<svg xmlns="http://www.w3.org/2000/svg" viewBox="0 -800 1024 1024">
	<path fill="#000000" d="M572 -663Q589 -664 600 -651Q606 -644 615 -625Q626 -596 627 -563Q630 -531 620 -453Q618 -433 607 -401L592 -356Q586 -340 581 -335Q574 -327 573 -319Q572 -311 569 -303Q567 -297 566 -296Q547 -271 534 -240Q519 -212 510 -204Q511 -203 511 -201Q511 -198 512 -198Q535 -187 558 -176Q566 -169 573 -162Q576 -159 578 -158Q586 -163 590 -159Q593 -155 598 -151Q600 -150 600 -149Q609 -150 622 -139Q631 -132 636 -130Q653 -124 669 -114Q674 -108 678 -102Q680 -98 682 -95Q689 -88 689 -86Q689 -85 683 -76Q671 -62 653 -59Q650 -56 648 -56Q650 -50 646 -48Q642 -47 639 -47Q618 -41 601 -52Q586 -62 575 -62Q568 -61 559 -77Q558 -81 556 -82Q555 -83 552 -79Q549 -75 546 -75Q543 -75 541 -79Q535 -88 524 -86Q517 -86 514 -91Q509 -99 489 -106Q487 -106 486 -107Q475 -117 457 -119Q443 -128 438 -134Q433 -140 423 -130Q410 -117 398 -118Q395 -118 385 -108Q371 -94 336 -81Q324 -76 311 -71Q281 -63 251 -56H245Q189 -56 173 -58Q140 -62 132 -67Q112 -79 104 -92Q82 -128 74 -169Q72 -178 66 -202Q55 -248 67 -275Q74 -292 66 -300Q60 -306 67 -315Q73 -324 68 -330Q63 -337 72 -344Q93 -359 96 -374Q96 -376 102 -382Q103 -380 108 -375L131 -353Q136 -348 146 -351Q159 -356 160 -360Q161 -363 154 -375Q132 -413 128 -433Q128 -435 123 -440Q106 -476 106 -499Q106 -503 102 -503Q90 -503 91 -515Q91 -523 90 -524Q83 -540 88 -567Q89 -583 89 -600Q91 -612 94 -616Q99 -622 106 -619Q114 -611 113 -605Q110 -594 118 -583Q127 -567 135 -551Q153 -521 163 -494Q172 -470 181 -464Q183 -463 183 -460Q201 -432 202 -427Q209 -412 221 -403Q227 -397 231 -401L250 -420Q257 -426 263 -432Q266 -433 268 -438Q273 -459 284 -462Q287 -463 287 -469Q288 -482 301 -488Q302 -489 302 -490Q302 -491 303 -492Q291 -499 300 -510Q308 -529 290 -555L278 -573Q268 -590 253 -595Q250 -596 244 -602Q232 -614 221 -613Q212 -615 202 -621Q186 -630 169 -632Q157 -632 145 -632Q142 -634 138 -636Q141 -638 143 -641Q153 -646 174 -646Q221 -644 244 -639Q288 -629 310 -602Q319 -593 327 -584Q333 -575 339 -565Q345 -556 343 -543Q343 -541 344 -540Q352 -534 352 -526Q353 -518 352 -510Q352 -491 338 -453Q329 -427 302 -391L295 -384Q293 -382 291 -381Q284 -367 274 -354Q271 -349 276 -346Q293 -331 310 -316Q316 -307 326 -300Q351 -288 368 -270Q376 -266 384 -263Q393 -257 402 -251Q404 -250 404 -249Q428 -235 441 -229Q451 -225 461 -221Q470 -217 477 -224Q492 -240 507 -257Q512 -263 532 -296Q535 -301 537 -301Q541 -302 543 -310Q543 -320 547 -323Q559 -336 566 -353Q570 -363 573 -373Q581 -394 588 -416Q591 -429 593 -443Q593 -448 594 -449Q595 -450 603 -484Q605 -495 603 -517Q601 -544 598 -572Q595 -579 587 -593Q567 -617 537 -597Q535 -596 522 -583Q516 -577 513 -576Q509 -575 507 -574Q504 -574 504 -569L501 -566Q498 -569 499 -570Q501 -583 504 -596Q507 -609 518 -620Q520 -624 522 -628Q531 -637 536 -646Q542 -655 552 -659Q562 -663 571 -666Q572 -664 572 -663ZM94 -261Q93 -260 90 -260Q92 -255 94 -242Q94 -218 105 -194Q125 -148 177 -129Q190 -124 210 -122Q224 -121 238 -119Q251 -117 265 -122Q270 -122 271 -121Q272 -118 274 -118Q276 -118 279 -121L288 -124Q293 -127 306 -128Q317 -128 323 -132Q329 -136 335 -140Q347 -148 383 -159Q395 -163 385 -168Q381 -170 377 -173Q365 -185 348 -193Q342 -196 321 -212Q306 -223 302 -225L296 -230Q288 -238 279 -242L269 -250Q258 -259 246 -268L215 -299Q208 -305 199 -303Q185 -298 171 -293Q152 -288 133 -282Q114 -277 93 -282Q91 -281 88 -281Q89 -278 89 -276Q92 -268 94 -261Z"/>
</svg>