<svg xmlns="http://www.w3.org/2000/svg" viewBox="0 -800 1024 1024">
	<path fill="#000000" d="M181 -60L134 -80Q92 -98 70 -155Q50 -208 50 -286V-299Q52 -320 64 -356V-355Q80 -421 105 -457L119 -477Q138 -503 144 -509Q166 -531 187 -550L197 -558Q230 -583 269 -603L320 -624Q334 -630 354 -630H365Q375 -631 384 -632Q387 -632 398 -628Q399 -629 400 -629Q404 -629 406 -630H405Q411 -633 422 -633Q433 -633 448 -630L463 -627Q510 -618 547 -561H546Q569 -529 571 -500Q572 -485 577 -474Q581 -462 581 -449V-440Q581 -431 580 -430Q577 -421 578 -407Q579 -405 579 -403V-399Q579 -387 573 -372Q551 -319 525 -293Q492 -260 444 -260H438Q408 -262 402 -264L395 -267Q371 -278 361 -287Q352 -294 347 -299Q341 -299 336 -288Q332 -276 325 -273Q294 -253 268 -247Q248 -242 212 -242Q190 -242 178 -264Q168 -283 168 -310V-316Q171 -320 171 -334Q171 -358 182 -387L190 -408Q202 -441 220 -456Q237 -464 257 -482Q282 -505 311 -511L321 -513Q322 -512 324 -512Q330 -513 336 -514Q351 -514 369 -505H368Q371 -502 375 -501Q380 -499 390 -492V-493Q394 -489 402 -489Q408 -489 409 -490Q410 -491 414 -491Q419 -491 424 -480Q428 -471 428 -469V-458Q427 -457 427 -447Q427 -438 430 -431Q432 -427 432 -419Q432 -404 424 -401V-402Q417 -395 417 -342Q417 -324 418 -323V-319Q422 -301 434 -301Q440 -301 447 -305Q477 -322 491 -355Q506 -388 506 -411V-453Q506 -517 453 -555Q403 -591 331 -591Q305 -591 292 -584Q212 -545 181 -511H182L180 -508L167 -494H168L149 -463Q137 -450 122 -400Q107 -351 107 -326Q107 -313 110 -306H109Q110 -302 111 -299V-296Q110 -295 110 -293Q110 -264 114 -257V-248Q114 -241 120 -231L131 -199L140 -177V-178Q159 -140 177 -124Q198 -105 231 -103Q256 -98 261 -98Q267 -98 283 -101L304 -107Q310 -109 336 -115L361 -121Q365 -121 392 -136L403 -142Q425 -159 473 -201Q476 -207 505 -231Q539 -259 541 -264L560 -284H559L571 -297L563 -252Q562 -251 562 -247Q562 -246 561 -246Q558 -246 550 -233Q542 -220 532 -210L526 -204H527Q512 -189 512 -181Q512 -180 513 -179V-177L506 -170H507L485 -146Q469 -130 456 -122Q443 -114 431 -105L418 -94L369 -72Q355 -62 322 -56L302 -51Q301 -50 298 -50H285Q241 -50 217 -56H209Q188 -56 181 -60ZM345 -388Q357 -406 359 -428Q356 -428 356 -433L354 -437V-436Q351 -444 346 -444H345Q344 -443 343 -443Q337 -443 329 -446Q322 -449 315 -449Q302 -449 293 -443V-444L290 -441Q252 -403 239 -381Q220 -349 220 -303Q220 -289 232 -284H234Q251 -284 261 -293L269 -302L314 -345Q330 -358 345 -388Z"/>
</svg>