<svg xmlns="http://www.w3.org/2000/svg" viewBox="0 -800 1024 1024">
	<path fill="#000000" d="M29 18Q22 8 22 -2Q22 -11 28 -19L37 -25Q42 -26 46 -27Q56 -29 58 -29Q74 -27 84 -27H109Q128 -27 146 -32Q160 -36 168 -36Q169 -36 187 -31Q191 -39 191 -128Q191 -130 196 -148Q200 -155 200 -184Q199 -192 199 -210V-239Q199 -258 195 -266Q191 -273 191 -299Q191 -429 188 -497Q189 -503 190 -509Q189 -509 189 -510Q189 -512 188 -515Q182 -552 181 -594L180 -602L173 -610L168 -615Q165 -618 163 -618Q162 -618 161 -617Q121 -617 85 -635Q79 -639 73 -643L64 -650L65 -649Q60 -651 60 -656Q60 -660 63 -666Q66 -673 71 -674L84 -677Q96 -679 100 -682V-681Q102 -683 106 -683Q114 -683 121 -680Q129 -677 139 -677H221Q234 -677 235 -676Q235 -655 255 -649Q257 -645 259 -642L262 -633L264 -624Q265 -620 266 -616L259 -605Q254 -590 254 -581V-575Q251 -564 251 -555Q251 -539 255 -532L251 -517Q247 -510 247 -494V-490L257 -449Q257 -435 254 -428Q250 -424 247 -410L243 -402V-393L246 -381Q247 -376 248 -371Q248 -365 247 -364Q246 -359 245 -356Q246 -351 247 -346Q248 -344 248 -331V-299Q248 -280 244 -268Q238 -247 239 -239V-219Q240 -208 241 -198V-188Q241 -181 245 -174Q248 -165 248 -153Q244 -122 240 -92Q240 -79 244 -66Q248 -53 248 -44Q248 -12 243 6Q239 21 221 21Q217 21 215 19Q211 18 207 17Q198 18 189 19Q176 18 163 17Q156 17 154 19Q151 20 147 21Q134 19 121 17Q116 17 110 20Q105 22 94 22Q82 22 81 21Q71 16 61 19H47Q46 18 44 18Q39 19 34 20Q29 20 29 18Z"/>
</svg>