<svg xmlns="http://www.w3.org/2000/svg" viewBox="0 -800 1024 1024">
	<path fill="#000000" d="M104 30H103Q102 29 93 29Q76 29 62 21H63L57 18Q53 15 48 9H49Q46 6 46 -71V-135Q45 -138 45 -146Q44 -149 44 -160Q44 -172 47 -181Q49 -187 49 -195L45 -250Q45 -256 44 -257V-392Q50 -402 50 -429V-437Q51 -444 51 -463V-577Q51 -585 54 -593Q57 -600 57 -612V-616Q58 -631 61 -639Q65 -646 65 -651V-662Q65 -677 103 -677H120Q146 -677 150 -681Q167 -686 175 -686H227Q240 -686 254 -678H253Q267 -676 267 -659V-652Q268 -651 268 -646Q268 -640 264 -637L258 -631H245Q224 -631 198 -628Q171 -625 148 -625H131Q117 -625 116 -624L111 -623L106 -617H107Q103 -613 103 -607Q104 -603 105 -600H104Q106 -598 106 -595V-544Q103 -508 100 -503Q100 -500 101 -499V-494Q100 -447 99 -400Q99 -393 96 -380Q93 -366 93 -351V-326Q93 -315 95 -295Q99 -288 99 -273Q101 -226 106 -194Q106 -175 102 -168Q103 -167 103 -161Q102 -152 101 -143V-124Q100 -97 100 -60Q101 -24 114 -21H141Q153 -24 164 -27Q166 -27 181 -24Q195 -21 237 -21Q237 -22 238 -22Q242 -22 243 -23L249 -19Q258 -10 261 0Q261 23 246 26H242Q237 27 226 27H178V23L141 27L123 29Q111 29 104 30Z"/>
</svg>