<svg xmlns="http://www.w3.org/2000/svg" viewBox="0 -800 1024 1024">
	<path fill="#000000" d="M51 13Q49 13 44 8Q44 5 46 3H45Q47 -2 52 -2Q56 -2 56 -7L59 -14Q59 -17 64 -22L67 -27H66Q67 -28 67 -29Q67 -33 68 -35Q70 -42 71 -44Q82 -66 82 -74L86 -84V-83Q86 -84 88 -86V-96Q89 -97 89 -107Q89 -110 84 -113H74Q66 -113 66 -119Q66 -125 72 -128L81 -130Q83 -130 89 -133H113Q114 -134 119 -134H123Q127 -133 130 -132Q140 -127 147 -121V-122Q159 -111 162 -98Q163 -96 163 -94Q163 -93 164 -93V-92Q163 -91 163 -90H164L161 -85H162Q161 -81 155 -77Q152 -75 145 -66L140 -61H141Q138 -55 136 -55Q133 -52 132 -49L130 -45L116 -30Q101 -15 92 -12H90Q84 -6 79 -5H80L63 8L58 11Q48 13 51 13Z"/>
</svg>