<svg xmlns="http://www.w3.org/2000/svg" viewBox="0 -800 1024 1024">
	<path fill="#000000" d="M510 -114Q534 -117 574 -119Q582 -119 598 -117Q610 -117 611 -114Q615 -103 609 -97Q573 -61 536 -62Q531 -63 526 -64Q504 -53 475 -61Q465 -64 426 -80Q380 -99 358 -147Q333 -202 340 -267Q350 -309 359 -351Q369 -393 384 -435Q389 -457 394 -479Q399 -495 402 -500Q414 -514 415 -532Q417 -539 424 -541Q429 -543 432 -539Q434 -536 434 -530Q434 -501 432 -493Q427 -453 426 -413Q426 -410 423 -360Q421 -307 419 -254Q418 -237 420 -179Q423 -133 469 -120Q490 -117 510 -114ZM461 -629H467Q477 -627 483 -635Q500 -638 520 -639Q556 -643 591 -651Q624 -657 653 -647Q659 -646 661 -635Q663 -623 658 -618Q635 -595 616 -594Q599 -588 588 -588Q579 -591 574 -587Q568 -583 562 -582Q560 -582 527 -579Q511 -576 496 -574Q480 -572 464 -578Q455 -572 434 -578Q421 -581 408 -592Q398 -605 410 -613ZM568 -334Q559 -337 548 -336Q537 -336 527 -344Q524 -347 508 -349L466 -356Q463 -357 458 -362L464 -369Q477 -382 501 -391Q514 -396 544 -403Q581 -412 596 -409Q611 -407 634 -388Q645 -369 625 -356Q608 -350 598 -341Q586 -335 568 -334Z"/>
</svg>