<svg xmlns="http://www.w3.org/2000/svg" viewBox="0 -800 1024 1024">
	<path fill="#000000" d="M666 -244H699Q713 -244 713 -237Q713 -228 696 -213Q680 -199 670 -199Q619 -196 568 -196Q531 -196 453 -198Q434 -199 396 -199H338Q324 -198 276 -198Q229 -198 223 -207Q223 -215 240 -229Q257 -243 265 -243Q465 -245 564 -245H632Q643 -244 666 -244ZM699 -351Q709 -350 709 -343Q709 -332 684 -317L660 -305Q645 -305 643 -307Q639 -308 635 -309Q588 -307 540 -305Q376 -305 243 -309Q227 -309 227 -321Q227 -323 232 -331Q246 -351 271 -355Q447 -355 587 -351H608Q630 -352 651 -353H685Q692 -352 699 -351ZM617 -461H699Q713 -461 713 -453Q713 -444 696 -430Q679 -416 670 -416Q619 -413 568 -413H529Q489 -414 449 -415H338Q223 -415 223 -423Q223 -431 240 -445Q257 -459 265 -459Q499 -461 617 -461Z"/>
</svg>