<svg xmlns="http://www.w3.org/2000/svg" viewBox="0 -800 1024 1024">
	<path fill="#000000" d="M369 -419V-417Q376 -417 379 -418Q396 -427 417 -428Q438 -428 456 -417Q475 -405 480 -388Q484 -371 495 -384Q531 -414 570 -440Q621 -468 662 -450Q692 -439 689 -405Q688 -394 689 -387Q694 -366 692 -335Q692 -331 686 -284Q686 -274 685 -264Q683 -244 676 -239Q669 -235 671 -228Q668 -204 661 -177Q653 -137 649 -95Q647 -89 645 -83Q639 -73 640 -69Q647 -49 636 -32Q626 -15 621 4Q611 45 600 85Q585 142 569 198Q560 245 550 291L547 315Q547 317 542 322Q536 320 536 317Q526 285 526 273Q526 237 533 183Q541 122 544 97Q546 73 559 34Q561 30 562 26Q556 13 560 3Q564 -8 567 -19Q573 -45 578 -72Q585 -115 586 -157Q587 -164 594 -202L608 -279Q610 -292 607 -320Q604 -351 608 -368Q609 -382 602 -390Q595 -399 589 -410Q583 -410 577 -411Q557 -400 541 -384Q525 -368 508 -352Q498 -339 489 -321Q458 -256 449 -231Q444 -215 419 -155Q411 -136 407 -116Q401 -97 399 -93Q392 -82 377 -80Q373 -80 371 -71Q369 -63 362 -65L347 -69Q345 -69 343 -70Q337 -66 336 -68Q334 -69 334 -74Q333 -81 332 -81Q317 -90 314 -104Q311 -118 307 -131Q306 -134 312 -145Q319 -156 325 -167L341 -205Q342 -208 342 -213Q341 -224 341 -226Q342 -234 349 -237Q350 -237 352 -247Q355 -254 357 -262Q374 -295 378 -310Q394 -362 380 -398Q379 -399 366 -407Q357 -413 356 -414Q362 -418 369 -419Z"/>
</svg>