<svg xmlns="http://www.w3.org/2000/svg" viewBox="0 -800 1024 1024">
	<path fill="#000000" d="M256 89V91Q225 93 188 95Q150 96 129 112Q111 98 97 85Q89 75 85 47Q82 21 75 11Q75 8 79 6Q84 3 84 -1Q83 -8 73 -14Q63 -20 63 -29Q67 -31 70 -31Q77 -30 84 -29H87Q85 -38 71 -42Q55 -47 54 -55Q56 -56 60 -56Q61 -56 79 -50Q94 -58 106 -68Q118 -78 138 -80Q153 -66 194 -66Q221 -67 248 -68H254Q259 -66 263 -65Q269 -67 275 -70H278Q287 -69 295 -69Q300 -69 303 -70Q306 -95 306 -129Q305 -191 304 -254Q304 -286 305 -301Q305 -314 306 -317Q313 -326 319 -335Q324 -345 324 -356Q326 -370 326 -403Q325 -459 323 -516Q324 -528 324 -541Q325 -546 325 -552Q325 -563 312 -568H311Q307 -568 306 -564Q305 -561 304 -561Q303 -561 303 -562Q301 -567 301 -580Q302 -598 302 -617Q302 -637 299 -647Q298 -650 292 -661Q285 -673 285 -682V-686Q289 -704 302 -720Q315 -735 322 -749Q324 -753 325 -761Q326 -772 331 -778Q334 -769 337 -761Q348 -767 349 -783Q351 -799 355 -811Q360 -808 360 -794V-783Q360 -776 362 -768Q367 -771 370 -783Q372 -794 376 -797Q388 -745 412 -725Q412 -706 413 -687Q413 -669 421 -659Q387 -568 387 -468Q387 -456 389 -430Q383 -425 383 -411Q385 -392 386 -374Q384 -365 382 -356Q384 -353 385 -350Q384 -342 382 -334V-325Q384 -270 386 -215Q386 -197 385 -188V-179Q387 -133 389 -88Q388 -76 386 -64V-61Q389 -53 391 -46Q393 -35 393 -12Q392 24 391 59Q391 75 392 83Q388 87 383 89Q378 92 376 97Q360 94 326 93Q301 93 284 90Q285 83 299 81Q310 79 313 74Q302 62 262 62H201Q189 62 176 61Q159 61 152 70Q158 84 184 84Q206 83 228 81Q235 81 245 83Q256 86 256 89Z"/>
</svg>