<svg xmlns="http://www.w3.org/2000/svg" viewBox="0 -800 1024 1024">
	<path fill="#000000" d="M28 -66V-71L29 -73L33 -87Q34 -88 35 -90Q37 -100 37 -121Q37 -149 31 -182L30 -188L32 -194Q35 -206 35 -209V-215L31 -233L46 -242Q71 -255 96 -255Q101 -254 106 -254H115Q231 -248 397 -248Q407 -248 423 -246Q430 -245 442 -245Q451 -245 456 -246Q474 -249 475 -249Q481 -249 489 -247Q581 -251 659 -251Q667 -250 674 -249Q677 -248 680 -248Q703 -248 745 -250L808 -253H809Q813 -253 821 -251Q823 -252 830 -255L832 -256H835Q842 -256 849 -251Q851 -251 855 -253Q870 -256 873 -256L874 -257H878Q882 -256 886 -256H889Q896 -256 901 -257Q913 -260 916 -260H922L924 -259Q943 -256 959 -232Q962 -229 962 -227L967 -221V-204L971 -199L970 -190Q970 -189 967 -162Q963 -144 963 -138Q963 -134 967 -122L971 -115L969 -108Q962 -75 962 -17V143L918 78Q911 71 905 45L902 42L888 32Q857 9 845 -13Q839 -16 835 -21Q814 -37 812 -38Q804 -46 792 -53L791 -54Q779 -57 776 -59Q774 -61 770 -66Q737 -71 729 -96L728 -98H699Q683 -98 651 -108Q642 -111 624 -115Q611 -118 585 -120Q557 -122 544 -124Q540 -123 532 -123Q523 -123 519 -124H517L511 -120L501 -123Q484 -128 463 -128Q440 -128 434 -125L431 -124H426Q419 -124 415 -126Q315 -121 256 -93H255Q212 -74 172 -43Q153 -28 138 -11Q138 -8 137 -7Q131 18 113 26L87 39Q85 43 83 45L63 73L44 44Q36 33 36 15V-2Q36 -15 33 -30Q28 -57 28 -66ZM85 -121Q85 -100 82 -82Q81 -76 77 -68Q77 -66 76 -66Q76 -58 80 -38V-36Q88 -38 91 -38H94L95 -37H98Q110 -56 142 -81Q186 -116 235 -137Q303 -168 409 -174L411 -177H421Q426 -177 433 -174Q449 -176 463 -176Q480 -176 506 -172Q510 -172 514 -173Q603 -180 733 -168Q761 -166 793 -143Q828 -118 859 -76L862 -62Q863 -61 864 -60L871 -56L873 -52H874L882 -47L885 -40Q890 -28 906 -16L913 -23Q915 -87 920 -111Q915 -124 915 -138Q915 -150 919 -170L922 -186Q918 -196 918 -202Q919 -204 919 -206Q917 -208 915 -210Q912 -210 910 -209Q900 -207 889 -207H881Q880 -207 878 -208H876Q872 -206 868 -206Q850 -203 847 -203H844Q837 -203 835 -204Q832 -203 826 -203Q816 -203 813 -204Q811 -204 809 -205L748 -202Q704 -200 680 -200Q674 -200 664 -202Q662 -202 659 -203Q580 -203 488 -199L484 -198L481 -199Q477 -201 475 -201Q474 -201 464 -199Q452 -197 442 -197Q426 -197 418 -198Q406 -200 397 -200Q230 -200 113 -206H96Q87 -206 83 -205Q83 -197 79 -185Q85 -152 85 -121ZM754 -98H753Q753 -95 752 -93Q752 -83 758 -81Q761 -81 762 -82Z"/>
</svg>