<svg xmlns="http://www.w3.org/2000/svg" viewBox="0 -800 1024 1024">
	<path fill="#000000" d="M810 -549H801Q800 -550 800 -553Q800 -560 806 -568Q812 -575 818 -575Q820 -574 821 -574Q821 -569 815 -561Q811 -555 810 -549ZM921 86H920Q917 86 916 82Q915 77 912 77Q907 83 907 98Q908 110 908 122Q905 119 901 108Q896 95 890 92H887Q883 92 878 97Q875 101 872 101Q867 93 848 79Q832 67 826 57Q812 26 798 -5Q755 -90 708 -176Q676 -230 673 -235Q643 -286 602 -329Q594 -341 594 -354Q594 -362 599 -384Q606 -416 610 -422Q625 -442 640 -462Q679 -525 721 -588Q743 -619 760 -653Q777 -688 795 -722Q803 -732 810 -743Q814 -755 817 -768Q833 -804 882 -813V-811Q882 -806 888 -798Q895 -801 907 -811Q915 -818 921 -821Q922 -820 922 -817Q922 -813 917 -806Q913 -800 912 -795V-794Q915 -795 917 -796Q918 -796 918 -794V-791Q917 -781 915 -771Q915 -767 916 -765Q917 -764 919 -764Q922 -764 928 -771Q931 -775 933 -775Q934 -775 934 -774Q927 -753 927 -732Q927 -715 931 -706Q928 -701 919 -675Q884 -654 863 -627Q859 -620 854 -613Q848 -607 839 -606H838Q839 -611 844 -623Q850 -636 850 -648Q833 -645 822 -630Q811 -615 801 -599Q766 -548 734 -495V-493Q733 -483 731 -474V-471Q741 -476 754 -494Q769 -515 783 -518Q748 -455 712 -392Q698 -368 693 -347V-346Q696 -331 708 -317Q715 -303 718 -291Q722 -278 731 -270Q768 -200 785 -180Q787 -174 788 -169Q803 -154 821 -116Q833 -90 842 -78Q874 -36 902 7L916 10Q911 16 911 27Q916 50 921 79Z"/>
</svg>