<svg xmlns="http://www.w3.org/2000/svg" viewBox="0 -800 1024 1024">
	<path fill="#000000" d="M304 -74V-165Q304 -181 305 -190V-298Q305 -339 308 -360Q316 -422 357 -457Q393 -488 457 -500Q472 -507 513 -507Q563 -507 613 -477Q667 -445 683 -398Q694 -366 694 -308V-238Q694 -226 695 -219V-182Q695 -134 691 -97Q690 -82 673 -72Q658 -63 642 -63Q633 -63 633 -70Q633 -73 634 -74L633 -73Q635 -193 635 -247Q635 -307 626 -348Q616 -396 571 -425Q529 -452 475 -452H444Q435 -452 433 -451Q418 -447 414 -447L408 -444Q405 -443 403 -441Q402 -440 400 -440H402Q401 -439 400 -439H399H400H399L398 -438L399 -439Q398 -439 397 -438L391 -435Q367 -382 367 -312V-99Q367 -87 348 -75Q331 -64 316 -64Q304 -64 304 -74Z"/>
</svg>