<svg xmlns="http://www.w3.org/2000/svg" viewBox="0 -800 1024 1024">
	<path fill="#000000" d="M461 -633V-634Q488 -631 489 -631Q499 -630 508 -628Q517 -627 527 -635Q529 -637 540 -637Q558 -633 576 -648Q589 -659 596 -648Q603 -638 626 -632Q640 -629 637 -616Q635 -607 632 -598Q617 -569 601 -540Q583 -515 583 -494Q583 -474 568 -435Q555 -402 554 -384Q540 -366 538 -346Q536 -326 531 -306Q524 -282 520 -276Q517 -265 513 -255Q506 -248 507 -242Q507 -237 508 -231Q508 -223 507 -221Q496 -182 485 -144Q483 -136 485 -135Q486 -134 496 -135Q526 -133 555 -132Q560 -130 564 -129Q588 -129 587 -118Q583 -102 568 -93Q553 -85 538 -77Q523 -69 506 -66Q493 -65 480 -65Q452 -64 424 -63Q418 -63 388 -71Q384 -72 385 -77Q387 -83 385 -84Q383 -85 377 -83Q370 -81 367 -83Q363 -86 363 -93Q360 -103 369 -103Q374 -103 375 -104Q392 -108 405 -115Q409 -119 409 -131Q409 -141 410 -144Q418 -163 420 -200Q422 -240 432 -261Q431 -290 442 -319Q452 -359 462 -399Q462 -401 463 -402Q465 -411 473 -424Q484 -443 485 -455Q486 -477 507 -507Q521 -529 527 -567Q530 -584 514 -586Q504 -588 494 -591Q474 -592 462 -602Q450 -612 438 -622Q436 -626 434 -631Q437 -631 445 -633Z"/>
</svg>