<svg xmlns="http://www.w3.org/2000/svg" viewBox="0 -800 1024 1024">
	<path fill="#000000" d="M577 -158Q563 -117 549 -107Q547 -106 542 -99Q526 -75 499 -62Q480 -54 469 -59Q458 -64 455 -84Q455 -90 453 -90Q440 -92 434 -105Q431 -112 428 -132Q423 -172 424 -199Q425 -215 435 -287Q440 -307 445 -328Q449 -337 449 -345Q453 -376 471 -441Q475 -457 487 -451Q498 -445 508 -455Q513 -460 523 -457Q530 -457 542 -452Q564 -443 552 -419Q545 -406 545 -390Q545 -376 539 -346Q531 -317 523 -288Q518 -267 512 -246Q510 -238 508 -199L505 -151Q504 -140 502 -130Q498 -120 499 -118Q501 -116 510 -119Q535 -123 552 -149Q556 -157 567 -165Q573 -169 576 -172Q576 -161 577 -158Z"/>
</svg>