<svg xmlns="http://www.w3.org/2000/svg" viewBox="0 -800 1024 1024">
	<path fill="#000000" d="M142 -652H147Q170 -652 182 -651Q199 -651 205 -646Q211 -641 213 -624Q217 -600 220 -576Q226 -501 222 -432Q219 -379 211 -275Q209 -241 201 -180Q195 -135 168 -64Q159 -38 150 -12Q147 -4 140 4Q134 14 128 24L106 51Q88 75 49 92Q32 99 -13 99Q-23 95 -34 84Q-37 81 -39 77Q-42 74 -48 79L-49 78Q-51 78 -51 76Q-67 61 -97 29Q-102 24 -103 18Q-112 -15 -114 -26Q-114 -30 -113 -34Q-111 -31 -109 -29Q-74 40 7 38Q23 38 36 25Q48 14 60 3Q72 -8 78 -22Q85 -35 94 -46Q104 -57 105 -74Q105 -77 109 -81Q119 -86 111 -94Q110 -95 112 -105Q120 -129 135 -194Q154 -285 155 -324Q155 -333 163 -389Q165 -408 165 -447Q171 -524 170 -562Q170 -586 157 -621Q155 -626 147 -632Q139 -638 137 -643Q133 -650 135 -652Q136 -653 142 -652Z"/>
</svg>