<svg xmlns="http://www.w3.org/2000/svg" viewBox="0 -800 1024 1024">
	<path fill="#000000" d="M314 -152L313 -154Q313 -162 320 -169H319L344 -203Q357 -216 368 -240V-239Q369 -240 369 -241Q369 -243 370 -244L385 -268Q402 -280 403 -286L408 -293H407Q408 -300 415 -305Q421 -309 424 -322L413 -332H414L387 -359Q381 -364 374 -370Q363 -381 363 -393Q359 -405 353 -413H354Q333 -434 333 -444Q333 -452 344 -459Q354 -465 362 -465Q369 -465 370 -464L399 -455Q403 -454 405 -453H410Q414 -453 415 -454Q434 -454 445 -446L458 -434Q465 -426 471 -419Q481 -409 482 -404L485 -398L522 -437H521Q523 -440 526 -442V-441Q556 -474 585 -507H584Q588 -514 595 -514Q600 -514 606 -508L609 -505V-506Q615 -500 628 -498Q629 -499 635 -499H638Q639 -498 641 -498L659 -485Q679 -470 686 -450Q672 -416 661 -415Q651 -414 621 -398V-399L608 -388Q587 -370 585 -370Q581 -366 575 -366Q567 -364 560 -355Q558 -349 548 -345Q537 -341 537 -328Q537 -324 538 -323Q539 -322 539 -317L552 -305V-306L557 -299L566 -283L578 -257Q580 -252 588 -244L608 -217Q608 -212 611 -211L614 -205L616 -198Q618 -192 610 -185Q603 -179 593 -179Q586 -179 579 -183L566 -192Q540 -210 527 -227Q514 -243 497 -258V-257L491 -261Q486 -264 480 -267Q477 -267 476 -268L470 -266Q447 -259 434 -246H435Q426 -235 416 -231L414 -230Q408 -218 392 -208V-209L384 -203Q383 -203 383 -202L370 -187L340 -158Q333 -151 323 -151Q315 -151 314 -152Z"/>
</svg>