<svg xmlns="http://www.w3.org/2000/svg" viewBox="0 -800 1024 1024">
	<path fill="#000000" d="M224 -45Q197 -48 169 -51Q147 -51 124 -56L88 -67Q84 -68 82 -73Q80 -79 77 -85Q83 -85 88 -86Q98 -86 100 -88Q103 -90 105 -102Q105 -106 105 -111Q98 -128 100 -145Q103 -163 106 -180Q109 -202 111 -224Q114 -243 120 -263L127 -293Q134 -316 140 -340Q141 -346 141 -353Q149 -385 156 -418Q166 -466 176 -515Q179 -521 181 -527Q181 -533 181 -539Q176 -539 170 -539Q157 -535 144 -532Q128 -528 112 -542Q103 -550 94 -559Q90 -564 90 -566Q91 -569 98 -568Q115 -566 126 -574Q137 -582 148 -592Q163 -605 168 -616Q176 -623 183 -630Q195 -649 215 -642Q226 -635 240 -642Q248 -645 252 -634Q253 -629 253 -608Q253 -594 252 -581Q249 -546 246 -512Q244 -494 238 -466Q234 -438 230 -411Q225 -394 220 -377Q219 -376 219 -375Q206 -323 205 -316Q197 -277 188 -239L184 -229Q180 -222 180 -212Q179 -203 177 -195Q175 -182 170 -165L167 -124Q166 -118 168 -117Q170 -116 174 -118Q177 -118 179 -119Q192 -113 208 -117Q219 -121 226 -114H227Q238 -117 242 -111Q244 -109 247 -96Q250 -88 252 -80Q254 -74 256 -68Q258 -62 250 -55Q237 -45 224 -45Z"/>
</svg>