<svg xmlns="http://www.w3.org/2000/svg" viewBox="0 -800 1024 1024">
	<path fill="#000000" d="M96 -192V-193Q97 -200 97 -207Q98 -228 98 -265L101 -304L105 -334L113 -394Q132 -482 134 -489L155 -575Q157 -584 165 -598Q166 -600 167 -603L181 -644L195 -679Q198 -687 196 -700Q196 -707 195 -714V-715Q195 -717 196 -718Q195 -718 195 -719H196V-718Q196 -717 197 -717L220 -693Q229 -684 233 -677Q237 -673 237 -668Q234 -659 236 -641Q240 -617 231 -605L230 -606Q234 -580 214 -537Q201 -513 198 -496L189 -446Q188 -441 187 -437Q170 -361 173 -324Q181 -223 182 -211L184 -192Q186 -169 192 -150Q202 -123 231 -62Q235 -54 249 -36L255 -28Q265 -15 252 -5Q229 11 207 0H206Q204 -1 201 -2Q200 -2 199 -3Q168 -13 156 -25Q154 -26 151 -28L145 -37Q141 -52 130 -74Q123 -89 115 -104Q112 -114 105 -168Q105 -170 99 -185Z"/>
</svg>