<svg xmlns="http://www.w3.org/2000/svg" viewBox="0 -800 1024 1024">
	<path fill="#000000" d="M83 -458L81 -460Q79 -477 77 -495Q77 -508 78 -510V-521Q78 -547 76 -549V-582Q76 -586 75 -590L73 -603Q72 -610 71 -613L77 -627Q81 -637 87 -639Q91 -639 94 -645Q102 -653 111 -653Q118 -653 119 -652Q123 -652 129 -649Q137 -645 137 -639Q137 -627 130 -620Q122 -612 122 -599V-577L120 -569Q118 -559 114 -549V-543Q114 -537 115 -536V-527Q114 -526 114 -523V-520Q114 -501 109 -493V-494Q108 -491 108 -486Q108 -484 107 -484Q107 -483 108 -483V-481Q108 -471 100 -464Q93 -458 83 -458Z"/>
</svg>