<svg xmlns="http://www.w3.org/2000/svg" viewBox="0 -800 1024 1024">
	<path fill="#000000" d="M263 -526H257Q253 -526 253 -530Q253 -532 255 -534H254L259 -543L262 -549V-548Q262 -552 266 -556Q269 -564 275 -570H274Q277 -574 279 -582Q279 -587 281 -589H280Q281 -593 282 -598Q283 -601 284 -606Q288 -618 292 -630Q292 -635 289 -643H281Q271 -643 268 -657Q268 -664 277 -670Q285 -675 294 -675Q300 -675 301 -674H305Q306 -675 311 -675Q320 -675 324 -671Q330 -665 343 -665Q370 -659 370 -626Q370 -625 368 -619L365 -613L360 -600L340 -569Q338 -566 328 -558Q322 -554 316 -550L306 -540H307Q302 -532 285 -532H279L280 -533L276 -530Q270 -526 263 -526ZM121 -514H120Q112 -514 112 -520Q112 -523 114 -525L120 -529Q128 -531 131 -544L133 -552Q139 -573 148 -591L151 -598Q152 -599 152 -600Q152 -602 153 -603L157 -616Q159 -618 159 -621L161 -643Q161 -649 155 -649H145Q135 -649 135 -658Q135 -661 145 -667Q158 -672 171 -672H187Q206 -672 222 -658Q236 -646 239 -635L241 -632V-633Q242 -632 242 -627V-625L238 -620H239Q237 -614 233 -612Q225 -609 222 -600Q219 -589 211 -586V-587L208 -579Q205 -578 204 -575L190 -560Q181 -548 162 -539V-540Q158 -536 151 -533Q144 -530 139 -525V-526L135 -521Q129 -514 121 -514Z"/>
</svg>