<svg xmlns="http://www.w3.org/2000/svg" viewBox="0 -800 1024 1024">
	<path fill="#000000" d="M421 -565Q423 -591 415 -600Q407 -608 386 -604Q336 -595 292 -572Q285 -569 276 -567Q268 -566 264 -560Q257 -546 235 -546Q214 -546 204 -558Q192 -571 209 -582Q218 -589 227 -597Q236 -606 250 -606Q259 -624 277 -630Q294 -636 310 -645Q353 -673 387 -665Q395 -662 409 -668Q420 -672 432 -667Q437 -665 451 -655L462 -647Q468 -643 468 -640Q468 -622 468 -605Q469 -590 469 -575Q472 -565 471 -563Q441 -504 416 -433Q413 -426 407 -422Q400 -418 394 -413Q391 -410 391 -411Q386 -400 378 -394Q369 -388 361 -380Q349 -367 336 -355Q323 -344 306 -337Q295 -333 276 -321Q274 -318 278 -314Q300 -302 319 -286Q338 -270 358 -255Q413 -217 467 -180Q475 -174 562 -109Q577 -98 569 -85Q567 -77 569 -66Q569 -51 565 -43Q555 -33 540 -47Q496 -86 448 -119Q405 -147 387 -167Q378 -177 356 -191Q334 -205 311 -219Q298 -230 285 -241Q254 -263 222 -286Q212 -294 208 -291Q195 -287 192 -293Q190 -297 190 -309Q189 -319 188 -329Q187 -371 230 -366Q256 -363 282 -382L294 -391Q325 -409 348 -434Q372 -458 400 -491Q404 -498 407 -509Q410 -515 421 -565ZM155 -565H152Q144 -523 141 -502Q132 -429 122 -357Q115 -290 108 -224Q104 -188 99 -153Q98 -131 103 -103L106 -55Q107 -48 104 -45Q101 -42 94 -43Q69 -46 63 -64Q54 -89 54 -115Q55 -163 61 -259L70 -320Q74 -357 78 -394L100 -518Q100 -527 100 -536Q104 -573 108 -611Q108 -613 116 -623Q121 -619 125 -615L149 -581Q152 -573 155 -565Z"/>
</svg>