<svg xmlns="http://www.w3.org/2000/svg" viewBox="0 -800 1024 1024">
	<path fill="#000000" d="M224 -148Q224 -187 232 -204Q236 -186 241 -178Q248 -167 264 -167Q281 -167 293 -178Q307 -190 314 -191H315Q335 -196 358 -227Q361 -231 398 -290Q412 -313 426 -336Q462 -388 483 -446Q493 -474 503 -503H504Q517 -536 524 -560Q531 -577 550 -586L556 -589H559Q554 -599 535 -603Q530 -604 520 -604Q514 -604 510 -606H507Q478 -608 463 -612H456Q426 -614 412 -614Q371 -614 330 -580Q318 -572 312 -540L309 -524H311Q318 -517 325 -510Q305 -490 275 -488Q267 -488 267 -517Q267 -525 272 -543Q296 -602 367 -637Q431 -669 503 -669Q525 -669 575 -667Q587 -666 610 -666Q617 -665 629 -665Q639 -664 648 -664Q659 -663 670 -663Q744 -661 776 -645Q767 -636 757 -632Q739 -622 738 -611Q723 -600 704 -600H675Q656 -600 648 -601Q637 -603 618 -603H588Q582 -603 581 -602Q579 -600 580 -600H577Q571 -590 570 -585Q534 -510 526 -476Q499 -369 436 -237H435Q421 -205 411 -195Q395 -179 379 -155Q319 -65 276 -65Q269 -65 247 -70Q224 -120 224 -148ZM231 -212H239Q235 -211 232 -204V-208Q232 -210 231 -212Z"/>
</svg>