<svg xmlns="http://www.w3.org/2000/svg" viewBox="0 -800 1024 1024">
	<path fill="#000000" d="M339 -280Q342 -295 342 -300Q341 -308 340 -316Q342 -320 343 -325Q340 -338 337 -352Q341 -369 345 -387Q343 -393 340 -400Q341 -401 341 -402Q340 -410 334 -414Q327 -418 326 -420Q334 -434 347 -441Q352 -439 359 -432Q360 -440 367 -442Q389 -440 395 -417Q402 -392 405 -375Q403 -365 400 -356Q402 -348 404 -340Q404 -336 403 -333Q404 -324 405 -315Q403 -309 401 -303Q403 -297 404 -292Q403 -287 401 -283Q402 -279 402 -275Q401 -238 400 -201Q402 -170 404 -140Q404 -107 397 -104Q388 -104 373 -132Q358 -160 358 -178Q353 -189 348 -210Q349 -217 349 -225Q346 -229 343 -238Q338 -238 338 -225Q338 -222 341 -219Q339 -206 326 -188Q316 -174 315 -174Q314 -166 306 -159Q297 -151 297 -150Q295 -151 293 -152Q291 -152 291 -150Q292 -147 293 -145Q291 -135 274 -122Q257 -108 251 -102Q227 -76 207 -69Q184 -66 157 -58Q146 -60 135 -63Q133 -62 130 -61Q128 -63 125 -65Q122 -63 119 -61Q118 -61 115 -65Q113 -69 110 -69Q108 -67 105 -66Q99 -67 98 -72Q96 -78 94 -79Q92 -78 90 -78Q88 -78 82 -86Q77 -93 77 -94Q79 -97 80 -100Q80 -102 75 -102Q60 -118 51 -142Q42 -151 42 -188Q42 -254 60 -296Q60 -311 67 -314Q71 -327 74 -343Q84 -358 87 -368Q103 -413 108 -413Q111 -411 114 -409Q115 -417 121 -424Q128 -431 129 -434Q132 -453 161 -456Q166 -458 170 -460Q173 -460 182 -445Q191 -430 191 -427Q189 -405 175 -388Q160 -370 158 -364Q125 -299 122 -288Q120 -278 119 -267Q112 -233 104 -200Q103 -198 103 -192Q104 -184 105 -176Q104 -170 103 -165Q103 -150 109 -140Q115 -130 126 -130Q129 -130 132 -126Q135 -122 140 -122Q145 -122 146 -124Q147 -127 149 -127Q154 -126 158 -125Q161 -126 163 -128Q168 -128 175 -121Q178 -121 180 -127Q181 -132 184 -132Q189 -129 190 -126Q196 -126 206 -133Q220 -143 230 -143Q234 -145 238 -151Q263 -156 274 -169Q285 -182 295 -189Q303 -194 303 -200Q319 -231 331 -250Q339 -259 339 -280ZM143 -810L144 -811Q174 -805 187 -790L199 -775H198Q203 -770 209 -761H208Q213 -756 214 -751V-752L237 -716H236Q237 -713 241 -709Q246 -704 246 -700L251 -690L260 -678Q270 -668 271 -657Q274 -642 282 -634Q291 -623 293 -616L308 -589Q309 -586 309 -583Q309 -582 310 -581Q310 -573 299 -571Q290 -571 284 -577L273 -586L260 -600Q253 -607 246 -614H247L237 -624H238L229 -635H230L199 -672L192 -683L183 -697Q179 -704 175 -706L167 -718Q155 -736 149 -742L131 -775Q130 -776 130 -780L127 -786Q123 -790 123 -798Q123 -808 133 -809Q142 -809 143 -810ZM171 -576L175 -574Q181 -573 186 -572Q187 -571 190 -571Q193 -571 194 -570L202 -566L214 -561H216L231 -546Q232 -543 233 -541Q233 -531 227 -527Q220 -522 220 -516Q220 -514 221 -514V-511Q220 -500 206 -496H204Q202 -496 199 -492Q196 -488 191 -488Q182 -489 174 -493Q163 -498 162 -504L151 -508Q141 -511 141 -523Q142 -525 143 -529Q143 -533 142 -534Q140 -542 140 -547Q140 -572 152 -572H156Q163 -572 167 -574ZM381 -508L375 -502Q373 -494 365 -494H359Q356 -494 350 -500Q342 -508 333 -508Q325 -508 316 -520Q308 -531 308 -538Q309 -539 309 -540Q309 -544 310 -546V-549Q309 -555 308 -562Q308 -567 313 -570L324 -573Q326 -573 333 -577Q339 -582 346 -580H345Q348 -579 351 -578L361 -573Q369 -571 372 -568Q375 -565 379 -563V-564Q396 -564 396 -550Q395 -549 395 -548Q395 -546 394 -544H393Q391 -536 388 -529Q389 -528 389 -523Q389 -516 381 -508Z"/>
</svg>