<svg xmlns="http://www.w3.org/2000/svg" viewBox="0 -800 1024 1024">
	<path fill="#000000" d="M163 -380Q163 -370 162 -361Q162 -345 166 -345Q178 -346 196 -360Q214 -374 225 -384Q309 -452 337 -452Q351 -448 370 -444Q376 -444 381 -434Q384 -428 387 -428Q391 -432 393 -432Q405 -415 410 -371Q409 -356 407 -342Q408 -333 408 -325Q406 -300 404 -275Q406 -270 407 -265Q404 -254 401 -243Q395 -208 395 -169Q395 -154 407 -154Q432 -154 471 -198Q482 -209 489 -212V-203Q487 -182 468 -158Q449 -134 433 -111Q406 -77 369 -73Q347 -74 342 -100Q336 -125 335 -157Q337 -174 339 -192Q338 -199 336 -207Q339 -255 341 -304Q341 -381 329 -381Q316 -379 294 -362Q272 -344 247 -328Q240 -324 230 -324Q203 -326 176 -329Q159 -329 158 -316Q152 -284 146 -253Q122 -58 87 -58Q84 -58 81 -59Q74 -54 67 -50Q63 -50 62 -61Q61 -76 52 -79Q44 -82 44 -87Q47 -94 50 -102Q47 -111 44 -120Q47 -135 64 -152Q75 -159 75 -169Q74 -180 76 -190Q81 -210 85 -231Q90 -247 94 -264Q101 -322 106 -336Q108 -344 108 -347Q108 -390 96 -406Q92 -413 82 -416Q44 -429 44 -435Q44 -441 64 -448Q81 -454 82 -457Q82 -462 86 -462Q87 -461 93 -461Q101 -461 109 -462Q117 -461 126 -455Q134 -449 142 -443Q157 -434 161 -415Q162 -412 163 -380ZM112 -712L113 -713H114L125 -710Q127 -709 129 -709L137 -706Q145 -702 149 -699Q151 -697 153 -695L156 -692L168 -678H167Q172 -672 176 -667Q176 -666 178 -664H177Q179 -662 179 -661Q182 -658 182 -656Q183 -656 183 -654V-655L206 -618H205Q205 -617 207 -613L210 -611Q210 -609 212 -609Q213 -607 214 -605Q215 -604 215 -602L220 -592L229 -580L233 -574Q234 -573 234 -572L238 -565Q238 -564 239 -564Q240 -562 240 -560V-557L243 -550L249 -538Q250 -537 251 -537Q251 -536 253 -534L255 -531L259 -526Q259 -524 260 -523L261 -522Q262 -520 262 -519L277 -491V-489Q278 -487 278 -485Q278 -484 279 -483V-481Q279 -480 277 -478Q276 -476 274 -475Q273 -473 268 -473H264H262L254 -477Q254 -478 253 -479L242 -488L229 -502L219 -513L215 -517H216L206 -527H207L198 -538H199L168 -574L161 -585Q160 -585 160 -586L156 -593Q154 -595 154 -596Q152 -598 152 -599L149 -603Q148 -604 147 -605Q146 -606 144 -608L136 -620Q135 -620 135 -621Q134 -622 133 -623L125 -637Q124 -639 120 -643Q119 -644 118 -645L100 -678L96 -686V-688Q95 -688 95 -689Q95 -690 92 -700Q90 -702 92 -704Q92 -707 99 -709L100 -710H102H104Q107 -710 110 -711H111Q112 -711 112 -712Z"/>
</svg>