<svg xmlns="http://www.w3.org/2000/svg" viewBox="0 -800 1024 1024">
	<path fill="#000000" d="M602 -432H600L604 -426L608 -417H612Q645 -410 665 -383Q685 -356 685 -317Q685 -250 637 -176Q587 -98 523 -75Q473 -54 431 -48Q417 -48 397 -57Q394 -59 376 -64L358 -71Q335 -79 324 -105Q314 -128 314 -158Q314 -170 321 -177L322 -178Q325 -176 327 -175H329L345 -166L355 -160Q359 -142 388 -122Q416 -102 434 -102Q450 -102 463 -109Q519 -140 561 -188Q608 -243 608 -292Q608 -328 584 -350Q560 -372 520 -372Q506 -372 491 -367Q463 -359 434 -352L405 -345H404L376 -338L375 -339Q368 -340 362 -354Q393 -382 444 -403Q616 -455 616 -533Q616 -565 579 -581Q549 -594 502 -594Q485 -594 451 -592H450Q447 -591 438 -591Q432 -590 425 -590Q419 -589 413 -589Q403 -589 399 -588L397 -589H390Q406 -616 452 -631Q491 -644 531 -644Q585 -644 629 -621Q678 -595 678 -553Q678 -498 602 -432Z"/>
</svg>