<svg xmlns="http://www.w3.org/2000/svg" viewBox="0 -800 1024 1024">
	<path fill="#000000" d="M423 -92H365Q344 -94 341 -115Q337 -135 326 -153Q325 -155 325 -161Q324 -162 324 -165Q324 -166 325 -167V-168L335 -205Q336 -222 356 -242L389 -275L392 -281Q397 -290 406 -295Q411 -297 425 -310L444 -327L449 -331Q455 -335 460 -339Q476 -351 488 -358V-357L512 -384H511L518 -394L525 -401Q543 -419 555 -456Q556 -459 557 -463Q557 -465 560 -468H559Q562 -474 562 -482Q562 -492 556 -503H557Q555 -505 555 -506L552 -509L544 -513Q534 -520 523 -520H470Q464 -520 452 -514L441 -510L439 -503Q430 -487 421 -487Q410 -487 406 -491L398 -494L370 -505L364 -508Q353 -514 352 -518H353Q350 -521 351 -527Q351 -531 347 -537L340 -546V-547Q340 -558 354 -567Q366 -575 377 -575Q382 -575 401 -583Q413 -588 437 -597L464 -606Q466 -606 511 -609H542Q546 -609 547 -608Q553 -605 555 -606L566 -601Q584 -596 605 -576Q628 -555 628 -539V-451Q628 -443 623 -438H624Q618 -432 613 -422Q601 -403 587 -390Q578 -385 577 -373Q576 -359 568 -358L564 -350Q559 -343 559 -342Q557 -338 552 -333Q546 -328 543 -321L530 -304Q522 -294 514 -284H515L500 -257Q499 -245 491 -236L484 -228H485Q463 -208 427 -177L424 -174Q433 -165 442 -165H450Q472 -171 486 -172Q514 -172 531 -176H530Q536 -179 547 -181H560Q581 -181 582 -182H591Q624 -182 642 -153V-150Q642 -146 639 -143H640Q635 -134 617 -130L610 -127Q609 -126 599 -126H577Q557 -126 550 -122Q518 -116 512 -112V-113Q507 -108 497 -108Q486 -108 479 -104V-105Q472 -98 450 -98Q444 -98 438 -95Q428 -91 425 -91Q424 -91 423 -92ZM818 -41L788 -1Q780 10 769 16Q754 23 738 29L722 37Q722 39 709 40L690 43Q711 18 715 11L725 -4Q730 -10 735 -17Q754 -48 775 -92Q792 -133 806 -175V-174Q813 -207 821 -226Q834 -260 847 -338L851 -363Q854 -382 854 -401V-416Q854 -429 853 -431V-441Q850 -481 848 -505Q846 -528 829 -562L822 -576Q799 -613 777 -635L773 -639Q734 -681 684 -680H670Q687 -700 714 -700Q736 -700 759 -690Q776 -683 786 -674L799 -663V-664L811 -657Q838 -642 859 -607Q873 -584 889 -568V-569Q896 -560 902 -551Q914 -539 918 -530Q927 -512 939 -484L944 -462Q950 -435 949 -428Q948 -421 947 -414Q944 -408 944 -403Q944 -400 947 -397Q954 -384 954 -345V-324L950 -300L947 -287Q945 -280 945 -267V-256Q945 -247 944 -245V-236Q940 -232 934 -213Q928 -194 924 -190Q922 -187 920 -173Q918 -159 907 -144H908Q905 -135 903 -131L899 -116Q893 -92 880 -81L846 -44Q839 -38 831 -38Q824 -38 818 -41ZM279 -744L281 -742L278 -731Q278 -729 277 -728L241 -660L219 -605Q219 -600 187 -510L161 -435Q157 -422 156 -417L151 -378Q147 -338 139 -306V-307Q138 -306 138 -300Q138 -294 139 -293V-294Q141 -286 141 -283V-275Q140 -274 140 -266Q140 -260 141 -259V-260L152 -228Q159 -193 186 -136Q194 -107 223 -73L240 -52L275 0L278 10L284 26Q277 23 272 23Q267 23 263 19V20Q246 12 229 -3L191 -37V-36Q147 -73 124 -101Q93 -139 77 -186L69 -203Q56 -231 52 -260L44 -290Q43 -295 42 -298V-316Q43 -320 44 -325L47 -363Q47 -379 51 -388V-387Q59 -419 60 -431Q60 -438 62 -448L74 -480Q97 -541 110 -558Q132 -586 136 -593Q156 -621 163 -629L175 -641Q199 -670 219 -686V-685L244 -711H243Q248 -718 264 -734L268 -736H267Q274 -739 279 -744Z"/>
</svg>