<svg xmlns="http://www.w3.org/2000/svg" viewBox="0 -800 1024 1024">
	<path fill="#000000" d="M581 -550V-547Q581 -540 577 -539L562 -527Q550 -519 541 -500L525 -466Q521 -462 522 -459Q522 -455 520 -453Q505 -396 479 -345Q477 -343 477 -342Q464 -313 462 -306Q461 -298 446 -273Q434 -252 406 -195L400 -186Q394 -175 385 -166Q377 -159 376 -153Q371 -139 353 -119H354Q353 -116 353 -111Q353 -109 352 -109L348 -100Q343 -88 333 -75Q318 -55 317 -51L310 -35Q304 -20 296 -12H297L286 7L278 23Q263 53 249 57L239 55Q234 53 234 51Q235 49 236 45L248 20L258 -6Q279 -52 298 -109L324 -172Q335 -188 344 -215L352 -238Q353 -241 361 -260Q382 -305 387 -330Q393 -338 394 -346L413 -394Q414 -395 414 -398Q417 -410 427 -432Q435 -447 439 -468L444 -491Q445 -493 446 -497Q447 -500 448 -504Q450 -510 450 -520Q450 -523 444 -528H437Q427 -528 426 -529H404Q394 -528 372 -535L359 -539Q353 -544 343 -546Q331 -548 329 -551L297 -566Q282 -573 282 -584Q282 -593 289 -598Q294 -602 301 -602Q305 -602 310 -600L319 -597Q327 -595 335 -593Q337 -590 346 -588H350Q371 -586 378 -583H377Q389 -580 401 -580Q413 -580 425 -583H424Q431 -587 452 -587H464Q486 -587 499 -596L512 -602Q513 -603 517 -603Q521 -603 525 -599V-600L529 -597L542 -589Q568 -584 581 -550ZM731 -112L732 -110Q732 -105 730 -103H731L722 -84Q718 -74 714 -64Q712 -60 704 -59Q675 -57 660 -50H645Q639 -50 633 -54Q626 -59 626 -65L620 -75Q605 -106 581 -135Q569 -147 566 -163L595 -184Q620 -179 659 -161Q702 -142 710 -130H709Q716 -120 731 -112Z"/>
</svg>