<svg xmlns="http://www.w3.org/2000/svg" viewBox="0 -800 1024 1024">
	<path fill="#000000" d="M741 -688Q766 -663 766 -626Q766 -621 767 -621H784Q785 -620 794 -620Q817 -617 829 -617Q841 -617 844 -605Q853 -579 881 -557V-558Q906 -538 912 -477L914 -457V-458Q915 -455 916 -452Q929 -439 929 -408V-400Q929 -394 928 -392Q926 -386 926 -375Q927 -361 928 -347Q923 -287 914 -214Q914 -207 906 -196Q900 -188 900 -183Q900 -178 903 -174L899 -165Q888 -141 881 -133H882L863 -108Q826 -59 803 -43Q792 -28 756 -11V-12Q746 -4 745 -4L739 -1V-2Q727 11 693 29L682 35Q675 39 650 48L642 50H643Q627 54 621 59Q614 62 601 64L561 71Q544 75 512 74Q491 73 486 74Q442 74 411 68Q368 59 320 35L243 -4Q218 -23 211 -35H212Q203 -41 197 -50L170 -77Q130 -120 113 -166L91 -211Q74 -257 74 -300Q75 -302 75 -315Q74 -321 76 -336L79 -359Q83 -390 89 -409L115 -478L134 -513L179 -584Q181 -587 184 -589V-588L189 -593H188L200 -608Q209 -619 233 -643L284 -687Q315 -718 367 -741Q422 -765 469 -765H518Q533 -766 547 -767Q575 -767 634 -750Q689 -734 711 -722Q713 -722 714 -721Q720 -720 715 -720Q722 -715 729 -701Q735 -690 741 -688ZM144 -312Q143 -311 143 -303V-293Q143 -232 168 -189H167L172 -182Q195 -118 231 -84Q280 -37 351 -13Q380 -2 393 5Q403 12 407 12Q408 12 409 11H413Q414 10 428 10Q442 10 455 13L466 15Q472 18 479 18Q480 18 494 16L509 13Q526 9 536 17Q542 18 547 19Q577 19 635 -8Q691 -34 712 -55Q747 -84 767 -111Q796 -150 812 -201L819 -224Q833 -272 835 -284L838 -303Q842 -315 842 -331Q842 -347 838 -354Q839 -362 840 -370V-386Q837 -398 837 -426V-447Q837 -452 833 -459L814 -506Q810 -522 803 -532H804Q782 -557 755 -579Q719 -608 703 -608Q693 -608 689 -604V-605Q687 -603 684 -603Q676 -605 670 -618L665 -629V-628Q657 -647 647 -651L608 -676Q582 -692 556 -698Q533 -703 492 -703Q477 -703 468 -700H456Q417 -700 369 -678L347 -666L282 -611V-612Q250 -580 212 -516Q177 -457 164 -420Q143 -360 143 -324Q143 -313 144 -312ZM493 -179H519L533 -188Q548 -193 556 -207L572 -233L589 -259Q591 -272 595 -280Q599 -286 598 -293Q597 -305 579 -316Q563 -326 546 -329H515Q498 -329 491 -325Q483 -320 473 -320H464Q450 -320 437 -313L426 -311Q412 -308 409 -305Q405 -301 398 -301Q391 -301 384 -308L374 -332Q375 -339 389 -351H398Q424 -351 444 -356H443Q457 -362 464 -363L474 -366L483 -369Q491 -372 510 -372H524Q580 -372 595 -369Q600 -364 623 -358Q638 -356 648 -349Q651 -347 660 -338Q667 -334 670 -322Q673 -308 676 -307Q677 -301 678 -295Q677 -288 676 -282L672 -274Q672 -255 660 -248Q635 -218 610 -188H611Q599 -168 571 -141Q540 -111 529 -86L526 -79L515 -62Q511 -49 498 -43V-44L489 -38Q482 -37 479 -36Q463 -36 451 -47Q439 -58 438 -73V-77Q436 -113 445 -123H444Q444 -126 449 -131Q459 -151 466 -165Q473 -178 493 -179ZM402 -624L403 -628Q419 -641 438 -641Q444 -641 464 -636H463L478 -632H482Q568 -624 607 -571L610 -564Q620 -549 621 -539V-540L628 -520Q629 -514 630 -509Q630 -498 622 -487Q615 -477 604 -452L598 -438Q588 -426 577 -420Q569 -415 560 -410Q541 -391 504 -380H495V-390Q495 -396 500 -401L513 -416Q520 -425 527 -430V-429L529 -434L534 -439L536 -446Q536 -452 545 -463Q556 -478 559 -491L566 -507Q568 -509 568 -511Q568 -515 562 -518L555 -526Q547 -526 523 -534Q520 -537 515 -539L473 -560Q447 -565 441 -572L431 -584Q407 -607 402 -624Z"/>
</svg>