<svg xmlns="http://www.w3.org/2000/svg" viewBox="0 -800 1024 1024">
	<path fill="#000000" d="M573 -508Q536 -459 510 -392Q496 -363 482 -335Q469 -310 469 -292Q469 -274 487 -274Q506 -274 506 -279L524 -282H527Q539 -282 547 -274L555 -266Q572 -251 580 -242Q588 -234 596 -211L601 -197V-198Q604 -192 604 -185Q604 -157 573 -126L513 -67Q493 -47 460 -47Q450 -47 449 -48H441Q433 -48 432 -49H433L420 -52L394 -79V-78L378 -95Q372 -125 366 -156V-213L368 -227Q368 -236 369 -239Q369 -250 372 -258Q379 -274 377 -289Q375 -300 378 -309L381 -318Q383 -325 385 -335Q387 -343 389 -349L409 -397Q420 -422 425 -430L437 -454L487 -536Q498 -554 505 -560V-559L562 -616L567 -618H566Q569 -620 576 -622H575L581 -625Q594 -635 630 -635Q651 -635 659 -622L661 -614V-615Q665 -600 671 -594V-590Q672 -589 672 -584Q673 -580 674 -577L663 -565Q647 -556 627 -550L618 -547Q593 -533 573 -508ZM880 -81L847 -44Q840 -38 831 -38Q824 -38 818 -41Q808 -26 801 -17L787 -1Q779 13 769 16Q754 20 738 29L722 37Q722 39 709 40L690 43Q738 -20 757 -55Q777 -91 807 -175V-174Q825 -247 835 -272L844 -321Q854 -368 854 -397V-422Q854 -428 853 -430V-450Q853 -489 849 -509Q845 -531 829 -562L822 -576Q818 -585 804 -601Q794 -613 792 -617Q785 -624 777 -635H778Q748 -668 721 -674H722Q700 -680 685 -680H670Q684 -700 713 -700Q747 -700 792 -670L811 -657Q837 -639 859 -607Q873 -584 889 -568V-569Q900 -558 905 -548L913 -532Q936 -506 939 -484L944 -462Q950 -435 949 -428Q948 -421 947 -414Q944 -408 944 -403Q944 -400 947 -397Q954 -384 954 -345V-323L950 -297L948 -287Q944 -276 944 -246V-242Q944 -238 945 -237Q940 -232 934 -212Q928 -192 925 -189Q923 -187 923 -186Q923 -185 924 -185Q924 -164 907 -144H908Q905 -135 903 -131L898 -115V-116Q892 -93 880 -81ZM264 -733L279 -744L282 -741Q278 -734 278 -728L241 -660L219 -605Q214 -596 205 -562Q196 -528 187 -510Q186 -502 181 -492Q172 -471 171 -468Q159 -441 153 -393L151 -378Q149 -365 147 -343L144 -318Q143 -307 140 -305V-306Q139 -305 139 -298Q139 -294 141 -292Q142 -291 142 -283V-268Q142 -253 146 -246L152 -228Q160 -189 187 -136Q194 -110 224 -72L240 -52L276 0L279 10Q279 15 285 25L271 22Q266 22 263 19V20Q246 12 222 -9L193 -35Q152 -72 133 -94Q106 -125 85 -168L70 -203Q56 -238 52 -262Q48 -268 47 -274Q42 -292 42 -307V-317Q43 -321 44 -326L47 -348Q47 -362 48 -365Q48 -381 52 -388V-387Q56 -413 56 -417Q57 -436 62 -448L74 -480Q97 -541 110 -558Q137 -593 163 -629L175 -642Q204 -675 220 -686V-685L245 -711H244Q254 -725 264 -733ZM489 -218H488Q479 -224 472 -224Q459 -224 451 -204Q444 -187 444 -145V-133Q444 -128 448 -127L451 -122Q451 -120 453 -120L460 -118Q480 -118 491 -126L519 -140Q523 -141 530 -152Q539 -165 539 -176Q539 -177 537 -185H538Q520 -198 507 -204L504 -211L500 -215Q497 -218 489 -218Z"/>
</svg>