<svg xmlns="http://www.w3.org/2000/svg" viewBox="0 -800 1024 1024">
	<path fill="#000000" d="M614 -44H601Q582 -46 562 -48Q538 -53 529 -57Q512 -64 502 -78Q498 -83 469 -115Q456 -132 453 -156Q447 -197 455 -236Q457 -258 462 -276Q466 -287 469 -299Q471 -311 482 -321Q488 -341 507 -371Q534 -414 538 -421Q542 -428 565 -459Q566 -460 566 -464Q565 -463 563 -463Q461 -414 406 -397Q364 -382 318 -379Q305 -378 288 -393Q284 -396 276 -407Q270 -415 263 -423L253 -439Q251 -446 257 -448Q260 -449 265 -447Q278 -438 291 -430Q304 -421 327 -427Q332 -428 358 -435Q443 -468 474 -482L589 -536Q614 -551 640 -562Q651 -568 652 -583Q652 -589 660 -587Q665 -585 721 -574Q732 -572 744 -557Q750 -545 737 -532L724 -524Q703 -514 684 -488Q664 -469 639 -441Q613 -409 607 -400Q558 -321 555 -317Q545 -294 534 -272Q521 -241 519 -202Q519 -173 527 -133Q535 -95 583 -90Q592 -90 601 -90Q636 -90 683 -104Q688 -104 689 -107Q694 -116 708 -118Q712 -119 731 -120Q737 -121 746 -112Q753 -105 744 -97L731 -84Q711 -64 693 -63Q679 -54 664 -52Q648 -51 634 -48Q624 -46 614 -44Z"/>
</svg>