<svg xmlns="http://www.w3.org/2000/svg" viewBox="0 -800 1024 1024">
	<path fill="#000000" d="M321 -54H318L314 -56L301 -70V-72Q301 -78 305 -79Q308 -81 311 -90V-89L323 -121Q340 -173 358 -194Q388 -241 423 -301L467 -369L473 -387Q359 -507 316 -652L324 -650Q330 -648 330 -646L344 -637Q350 -634 355 -629L364 -622Q371 -617 372 -615Q386 -599 399 -584Q404 -576 408 -572Q411 -568 412 -566L425 -553L444 -530Q451 -517 473 -495Q508 -460 522 -407L525 -402H524Q531 -395 531 -376Q531 -360 521 -350Q509 -337 501 -318L474 -274L447 -220Q434 -194 416 -179H417Q415 -175 412 -172Q408 -166 404 -161L346 -85Q339 -77 337 -70Z"/>
</svg>