<svg xmlns="http://www.w3.org/2000/svg" viewBox="0 -800 1024 1024">
	<path fill="#000000" d="M770 -169Q747 -161 722 -180Q684 -206 647 -232Q610 -258 577 -293Q533 -341 473 -396Q458 -413 426 -445Q398 -473 373 -435Q337 -378 296 -326Q276 -301 237 -301Q225 -299 213 -316Q204 -329 189 -343L176 -358Q170 -367 169 -369Q167 -376 172 -383Q179 -391 193 -377Q217 -353 252 -380Q276 -397 301 -414Q325 -431 346 -454Q357 -466 381 -477Q405 -488 427 -483Q445 -479 468 -462Q502 -433 536 -405Q604 -349 679 -301Q705 -283 736 -269Q766 -258 794 -239Q797 -237 800 -235Q816 -232 821 -221Q825 -210 830 -199Q833 -193 827 -190Q822 -185 815 -178Q809 -170 796 -175Q785 -176 770 -169ZM669 -467Q659 -467 647 -474Q626 -481 612 -514Q603 -536 619 -552L640 -579Q650 -591 656 -593Q664 -595 677 -589Q686 -584 706 -591Q717 -594 726 -584Q732 -577 747 -558Q750 -555 752 -543Q746 -500 718 -479Q694 -469 669 -467ZM674 -493Q699 -500 709 -523Q711 -534 705 -541Q699 -548 685 -547Q667 -541 651 -533Q645 -530 645 -525Q643 -514 653 -503Q662 -493 674 -493Z"/>
</svg>