<svg xmlns="http://www.w3.org/2000/svg" viewBox="0 -800 1024 1024">
	<path fill="#000000" d="M579 7Q575 9 567 4Q546 -7 529 -8Q525 -9 510 -17Q505 -22 492 -28Q478 -35 473 -41Q462 -44 458 -53Q454 -61 448 -68Q445 -71 447 -84Q454 -102 475 -121Q497 -143 516 -157Q551 -181 576 -182Q588 -184 599 -187Q604 -188 625 -188Q622 -205 618 -222Q615 -241 611 -261Q605 -280 606 -300Q607 -320 607 -340Q607 -351 604 -354Q601 -357 589 -358H568Q567 -358 567 -359Q543 -355 519 -352Q506 -351 498 -362Q489 -371 486 -379Q483 -388 483 -408Q483 -415 479 -424L475 -433Q472 -464 505 -473Q516 -476 517 -479Q528 -496 542 -510Q566 -536 586 -567V-574Q582 -574 578 -574Q570 -570 567 -571Q537 -568 506 -575Q495 -579 492 -584Q483 -596 474 -608Q465 -621 463 -625Q460 -629 460 -638L461 -648Q465 -646 468 -643Q497 -629 508 -630Q537 -627 562 -634Q576 -634 583 -646Q586 -652 602 -649Q605 -648 608 -645Q611 -643 616 -648Q620 -652 626 -647Q630 -643 632 -644Q642 -648 652 -642Q661 -636 671 -634Q673 -630 674 -627Q665 -616 666 -606Q667 -603 665 -599Q662 -594 657 -595Q649 -594 646 -589Q646 -581 641 -578Q637 -575 633 -570Q627 -562 621 -551Q617 -543 597 -530Q574 -516 559 -493Q555 -487 544 -468Q531 -445 521 -435Q517 -431 518 -429Q519 -426 523 -425Q544 -420 565 -416Q574 -414 605 -420Q607 -421 610 -431Q619 -461 612 -475Q608 -482 617 -491Q620 -494 630 -491L643 -483Q666 -469 680 -469Q701 -469 722 -469Q735 -467 741 -465Q750 -465 756 -457Q757 -452 745 -445Q734 -439 729 -434Q716 -414 711 -412Q704 -409 690 -395Q675 -382 660 -369Q655 -364 656 -363Q656 -350 655 -338Q653 -326 658 -312Q660 -306 660 -301Q658 -285 664 -237Q665 -233 674 -188Q681 -169 693 -165Q702 -161 710 -158Q769 -142 808 -114Q811 -112 813 -111Q816 -110 815 -107V-95Q817 -81 812 -75Q806 -69 793 -71Q789 -71 777 -78Q770 -78 762 -78Q753 -83 744 -89Q739 -85 738 -86Q737 -87 737 -90Q737 -98 732 -97Q726 -106 718 -110Q709 -114 700 -119Q696 -120 694 -115Q692 -102 694 -99Q701 -84 698 -71Q698 -52 691 -43Q685 -35 666 -26Q646 -18 625 -5Q604 3 579 7ZM285 -8Q273 -8 269 -9Q260 -11 257 -21Q256 -20 254 -20H249Q246 -21 238 -29L230 -38Q215 -50 209 -83Q201 -121 200 -159Q200 -162 197 -165Q193 -168 197 -172Q199 -174 196 -179Q192 -185 197 -189Q199 -191 198 -194Q196 -198 200 -200Q197 -228 205 -251Q206 -285 218 -320Q219 -321 219 -327Q220 -351 224 -370Q227 -390 233 -410Q237 -425 237 -447Q242 -475 243 -504Q248 -531 248 -532Q248 -572 246 -580Q244 -591 243 -602Q241 -613 233 -623V-625L236 -634Q237 -633 238 -633Q240 -632 242 -632L254 -626Q272 -613 286 -609Q300 -605 303 -601Q307 -596 307 -580Q305 -557 295 -533Q294 -530 292 -528Q294 -520 286 -491Q286 -474 277 -462Q279 -445 275 -430Q271 -415 268 -398Q264 -390 264 -384Q269 -378 265 -376Q261 -374 259 -372Q259 -370 258 -368Q257 -355 255 -343Q246 -328 249 -316Q245 -303 247 -293Q239 -281 238 -258Q237 -238 234 -231Q230 -200 240 -165Q243 -157 243 -152Q242 -146 244 -141Q245 -128 254 -119Q261 -128 267 -140Q279 -173 291 -206Q303 -250 308 -258Q311 -263 311 -272Q311 -282 315 -288Q321 -300 322 -316Q324 -323 326 -343Q329 -350 331 -368Q331 -372 337 -372Q346 -374 345 -367Q343 -350 343 -347Q348 -338 350 -329Q347 -323 347 -311Q348 -298 344 -293Q340 -279 341 -269Q336 -248 335 -236Q337 -219 335 -204Q325 -164 325 -155Q319 -150 320 -138Q321 -127 319 -123Q312 -106 310 -93Q310 -84 305 -72Q290 -48 301 -25Q303 -22 297 -15Q290 -8 285 -8ZM745 -518Q742 -518 740 -521Q727 -534 713 -548Q689 -581 691 -620Q691 -630 697 -632Q704 -634 715 -645Q734 -656 759 -654Q785 -654 787 -653Q798 -651 805 -653Q818 -650 828 -646Q832 -645 832 -643Q832 -641 830 -639Q825 -634 831 -629Q844 -609 842 -587Q852 -568 829 -545Q814 -532 793 -522Q768 -518 745 -518ZM574 -47Q583 -54 591 -51Q612 -52 635 -77Q640 -84 639 -90Q638 -97 640 -104Q642 -111 637 -127Q634 -136 634 -142Q616 -150 594 -148Q581 -150 569 -147Q541 -131 532 -124Q514 -110 504 -91Q493 -71 515 -62Q523 -59 531 -56Q551 -47 574 -47ZM760 -566Q775 -563 789 -579Q799 -595 787 -609Q765 -625 747 -620Q738 -618 727 -611L715 -608Q717 -600 720 -597Q725 -590 730 -584Q733 -574 742 -570Q746 -568 760 -566Z"/>
</svg>