<svg xmlns="http://www.w3.org/2000/svg" viewBox="0 -800 1024 1024">
	<path fill="#000000" d="M680 -142Q686 -136 687 -133Q686 -129 682 -125Q678 -115 676 -106Q675 -101 672 -100Q668 -99 666 -101Q661 -106 659 -103Q657 -100 654 -97Q641 -88 624 -90Q599 -89 575 -84Q544 -81 509 -81Q483 -80 450 -88Q407 -95 365 -130Q356 -138 342 -160Q311 -208 308 -243Q307 -255 314 -268Q318 -280 339 -278Q342 -278 344 -278Q347 -280 349 -283V-274Q340 -256 348 -238Q349 -236 367 -208L377 -197Q398 -166 437 -155Q467 -147 500 -149Q560 -152 603 -161Q618 -164 649 -162Q666 -162 671 -150Q676 -146 680 -142ZM384 -556Q378 -564 355 -587Q353 -589 353 -594Q404 -587 408 -586Q459 -578 504 -588Q527 -594 550 -601Q575 -607 602 -597Q619 -594 632 -583Q641 -572 634 -565Q624 -555 609 -526Q596 -500 583 -487Q576 -478 549 -458Q533 -447 532 -446Q524 -440 515 -432Q507 -425 495 -421Q494 -421 476 -408H471Q472 -411 473 -412L532 -469Q559 -497 568 -535L567 -541Q566 -541 560 -539Q554 -536 524 -526Q499 -521 469 -516Q465 -516 455 -518Q411 -521 384 -556ZM725 -609Q761 -589 774 -561Q778 -552 775 -546Q773 -540 769 -534Q764 -524 749 -526Q732 -528 717 -543Q692 -568 687 -574Q676 -588 661 -586Q652 -585 647 -596Q642 -606 646 -613Q647 -617 654 -617H676Q705 -623 725 -609ZM824 -615Q830 -609 837 -596Q841 -587 844 -584L841 -578Q822 -556 802 -576Q800 -579 791 -586Q751 -616 738 -637Q726 -652 712 -663Q710 -665 710 -666Q711 -667 713 -668Q721 -670 724 -670Q730 -670 742 -665Q756 -659 765 -661Q767 -663 767 -660Q796 -637 824 -615Z"/>
</svg>