<svg xmlns="http://www.w3.org/2000/svg" viewBox="0 -800 1024 1024">
	<path fill="#000000" d="M521 47Q503 43 484 39Q482 37 479 34Q483 30 485 30Q512 32 541 23Q554 19 593 1Q627 -14 644 -44Q654 -63 656 -85Q657 -110 656 -135Q654 -157 652 -163Q647 -193 642 -223Q634 -260 603 -298Q594 -305 583 -303Q542 -294 520 -287Q485 -275 462 -257Q418 -221 402 -196Q392 -181 366 -159Q348 -141 325 -141Q308 -139 301 -151Q293 -161 283 -171Q273 -180 270 -195Q268 -206 264 -218Q261 -231 264 -245Q270 -276 275 -308Q278 -328 280 -348Q290 -399 293 -422Q293 -442 293 -463Q293 -474 294 -479Q294 -480 301 -487Q301 -483 304 -480Q312 -472 325 -464Q346 -454 342 -430Q339 -417 342 -413Q348 -403 341 -396Q337 -392 339 -389Q341 -386 341 -382Q341 -366 337 -353Q332 -345 341 -342Q344 -342 344 -338Q339 -287 328 -254Q326 -252 327 -251Q328 -234 326 -221Q326 -207 342 -211Q372 -229 398 -250Q431 -274 463 -298Q510 -324 543 -337Q545 -339 548 -339Q571 -342 593 -345Q614 -348 637 -338Q688 -313 710 -258Q723 -233 729 -205Q729 -200 733 -190Q739 -176 737 -169Q733 -144 731 -118Q730 -93 721 -68Q723 -61 719 -56Q715 -51 711 -46Q703 -34 697 -23Q694 -10 675 -5Q664 -3 646 11Q634 19 622 22Q602 29 582 35L542 44Q532 46 522 44Q521 45 521 47ZM383 -534Q373 -534 370 -537Q368 -542 371 -543Q375 -544 378 -546Q408 -566 435 -603Q440 -610 448 -626Q452 -633 445 -645Q435 -662 403 -711V-713Q404 -715 404 -717Q406 -717 408 -715Q428 -695 456 -682Q475 -665 493 -648Q504 -639 506 -628Q506 -615 516 -611Q518 -609 519 -607L516 -604Q509 -603 503 -598Q509 -590 504 -587Q501 -584 498 -583Q497 -584 496 -588Q494 -588 491 -589Q485 -587 478 -585Q471 -583 467 -575Q461 -576 454 -569Q447 -563 439 -558Q432 -554 425 -550L408 -543L391 -536Q385 -534 383 -534Z"/>
</svg>