<svg xmlns="http://www.w3.org/2000/svg" viewBox="0 -800 1024 1024">
	<path fill="#000000" d="M184 -293L168 -284Q166 -283 165 -282Q161 -282 160 -287L157 -303Q155 -310 158 -314Q159 -315 163 -317Q168 -319 166 -322Q165 -324 168 -327Q172 -332 169 -336Q169 -337 176 -344Q215 -361 245 -396Q265 -417 280 -440Q294 -464 311 -486Q324 -507 333 -528Q341 -543 338 -548Q336 -551 338 -557Q340 -565 338 -568L324 -595Q317 -602 315 -611Q313 -621 316 -624Q319 -627 334 -626Q372 -617 390 -592Q392 -590 393 -588Q389 -574 392 -561Q395 -548 396 -534Q394 -530 391 -526Q387 -517 384 -507Q382 -496 371 -489Q368 -483 365 -477Q358 -460 344 -446L340 -443Q344 -441 347 -440Q359 -443 379 -445L454 -466Q499 -476 543 -487Q583 -495 623 -503Q641 -510 672 -498Q681 -494 677 -483Q673 -473 672 -466Q672 -462 668 -461Q663 -460 663 -458Q657 -465 650 -464Q644 -458 640 -458Q624 -460 610 -456Q595 -452 580 -450Q577 -450 527 -441Q505 -438 470 -423Q429 -409 388 -396Q381 -394 353 -394Q340 -393 326 -409Q317 -414 310 -406Q296 -385 281 -368Q279 -365 276 -361Q273 -357 266 -361Q263 -362 262 -357Q261 -348 255 -345Q248 -341 242 -338Q234 -330 220 -320Q214 -312 210 -311Q204 -313 202 -309Q201 -305 198 -302ZM310 -32Q287 -41 260 -41Q247 -43 230 -48Q225 -49 229 -56Q231 -60 224 -67L218 -72Q223 -72 228 -72Q237 -67 255 -65Q269 -63 287 -67Q300 -66 313 -68Q380 -90 410 -136Q427 -163 457 -233Q472 -275 478 -319Q482 -338 472 -370Q464 -389 479 -396Q487 -400 488 -396Q496 -388 510 -387Q534 -384 535 -360Q537 -336 539 -312Q539 -283 532 -268Q530 -265 530 -258Q530 -248 525 -244Q531 -238 528 -233Q524 -228 521 -223L494 -155L486 -132Q486 -130 475 -125Q469 -119 472 -119Q476 -112 472 -108Q468 -103 464 -100Q449 -85 418 -63Q417 -58 408 -56Q401 -55 400 -49Q392 -46 376 -42Q364 -39 316 -32Q315 -29 310 -32ZM834 -528H831Q808 -536 801 -544Q788 -558 773 -568Q760 -574 753 -586Q744 -596 746 -607Q746 -615 744 -619Q740 -626 742 -628Q744 -630 755 -630Q769 -632 775 -622Q779 -618 786 -617Q800 -613 810 -604Q819 -595 830 -586Q836 -580 840 -572Q847 -565 838 -559L833 -556Q836 -554 838 -553Q838 -534 836 -529Q835 -528 834 -528ZM734 -496Q708 -518 701 -534Q694 -543 686 -549Q682 -553 687 -555Q691 -559 713 -559Q738 -558 757 -540Q768 -541 768 -534Q769 -526 772 -523L761 -500Q754 -487 749 -486Q743 -485 734 -496Z"/>
</svg>