<svg xmlns="http://www.w3.org/2000/svg" viewBox="0 -800 1024 1024">
	<path fill="#000000" d="M384 -71Q372 -71 373 -79Q372 -84 373 -88Q373 -92 381 -94Q404 -100 427 -116Q460 -139 501 -181Q531 -211 563 -238Q608 -293 626 -351Q627 -352 627 -366Q628 -389 620 -395Q612 -401 591 -396Q550 -384 508 -372Q493 -367 480 -361Q467 -355 452 -357Q436 -349 420 -353Q404 -357 387 -358Q387 -362 386 -367Q395 -378 404 -379Q417 -382 427 -389Q438 -397 449 -403Q505 -434 563 -445Q577 -447 584 -450Q603 -457 650 -450Q684 -444 687 -407L684 -391Q684 -389 687 -374Q691 -321 652 -262Q641 -240 626 -221Q611 -201 592 -187Q564 -164 532 -142Q530 -141 495 -119Q488 -115 480 -112Q472 -103 464 -102Q461 -99 457 -96Q454 -94 446 -97Q442 -93 437 -90Q415 -71 384 -71ZM359 -175L356 -178Q331 -203 326 -235Q318 -269 318 -306Q319 -312 313 -351Q313 -353 315 -357Q316 -362 314 -370Q313 -380 318 -396Q318 -398 320 -399Q322 -399 325 -398Q331 -396 338 -394Q344 -392 347 -382Q353 -378 359 -375Q375 -365 369 -342Q368 -331 370 -308Q374 -284 378 -260Q382 -235 374 -209Q376 -204 370 -193Q364 -183 366 -177Q365 -176 364 -176Q363 -175 359 -175Z"/>
</svg>