<svg xmlns="http://www.w3.org/2000/svg" viewBox="0 -800 1024 1024">
	<path fill="#000000" d="M344 -32Q339 -32 334 -29Q329 -26 324 -33Q319 -37 314 -41Q322 -47 328 -47Q378 -53 429 -83Q495 -118 530 -153Q555 -176 603 -226Q618 -242 627 -256Q630 -261 632 -273Q632 -280 625 -281Q612 -283 598 -285Q584 -287 570 -281Q503 -277 412 -233Q390 -221 368 -209Q355 -201 356 -188Q356 -185 350 -175Q350 -173 346 -173Q337 -179 332 -169Q331 -162 329 -162Q311 -163 298 -171Q286 -183 280 -199Q280 -206 280 -214Q280 -226 284 -234Q298 -264 299 -285Q299 -290 305 -290Q320 -292 328 -283Q336 -273 340 -264Q342 -259 343 -258Q345 -257 350 -260L418 -289Q430 -294 432 -297Q435 -301 432 -312Q422 -340 422 -369Q422 -399 422 -428Q422 -440 412 -458Q407 -465 413 -473Q416 -478 426 -478Q440 -482 450 -478Q484 -457 493 -421Q497 -416 498 -409Q497 -394 498 -384Q494 -366 491 -359Q483 -339 475 -320Q472 -313 466 -317Q465 -318 461 -315Q463 -313 465 -311Q479 -313 492 -315Q548 -332 571 -334Q607 -338 646 -339Q675 -342 702 -315Q721 -300 721 -265Q721 -261 720 -257Q696 -225 671 -194Q652 -175 630 -158Q603 -138 574 -120Q558 -110 539 -104Q522 -99 500 -84Q480 -71 474 -68Q461 -62 435 -52Q419 -49 406 -44Q392 -38 377 -37Q363 -32 344 -32Z"/>
</svg>