<svg xmlns="http://www.w3.org/2000/svg" viewBox="0 -800 1024 1024">
	<path fill="#000000" d="M498 -51Q473 -82 474 -127Q483 -197 484 -210Q488 -265 481 -289Q479 -296 475 -297Q472 -298 468 -295L433 -258Q400 -224 366 -190Q348 -169 304 -141Q287 -129 269 -118Q251 -107 228 -106Q213 -103 203 -99Q193 -98 190 -101Q186 -105 188 -114Q192 -148 216 -169L277 -210Q354 -262 421 -334Q448 -361 475 -388Q484 -398 511 -437Q511 -442 511 -448Q503 -450 498 -449Q462 -435 423 -417Q379 -400 361 -396Q323 -387 309 -429Q308 -439 303 -447Q298 -458 301 -464Q304 -470 315 -471Q320 -471 322 -465Q329 -452 344 -457Q365 -463 420 -485L534 -526Q549 -530 553 -537Q563 -551 578 -540Q606 -523 634 -506Q643 -499 643 -494Q643 -489 635 -481Q615 -461 575 -413L546 -383L506 -337Q497 -330 507 -321Q522 -309 527 -289Q528 -286 533 -251Q534 -228 531 -206Q531 -167 531 -128Q532 -116 532 -104Q531 -92 520 -83Q520 -76 519 -70Q517 -66 514 -62Q508 -58 505 -55Q505 -50 503 -49Q502 -48 498 -51ZM770 -155Q767 -156 757 -163Q745 -171 728 -192Q714 -209 706 -216Q702 -219 653 -258Q638 -265 623 -272L610 -281Q607 -284 604 -288L613 -292Q657 -282 701 -273Q710 -270 720 -269Q721 -269 722 -269Q747 -261 763 -252Q787 -239 794 -232Q824 -202 809 -177Q803 -167 785 -158Q775 -153 770 -155ZM593 -595Q582 -588 570 -597Q560 -611 545 -619Q530 -628 515 -637Q494 -654 473 -671Q468 -675 462 -689Q459 -697 462 -700Q465 -702 474 -700Q492 -695 574 -665Q597 -659 600 -637Q608 -626 616 -615Q615 -600 593 -595Z"/>
</svg>