<svg xmlns="http://www.w3.org/2000/svg" viewBox="0 -800 1024 1024">
	<path fill="#000000" d="M596 -359L584 -352Q580 -350 569 -348Q555 -346 547 -359H548Q543 -364 533 -370L531 -371Q525 -374 525 -382Q525 -384 526 -385Q518 -390 516 -408Q517 -409 517 -411H516Q518 -420 526 -420Q530 -420 542 -415L547 -412Q546 -415 544 -415H549Q557 -411 565 -411Q597 -411 651 -568L650 -567Q653 -578 653 -601V-608Q653 -615 640 -615Q637 -614 634 -614Q563 -601 492 -574Q463 -561 404 -531L345 -501L339 -499L343 -500L326 -492Q312 -485 303 -485Q290 -485 284 -499L279 -510L281 -508L261 -531Q260 -532 260 -534Q260 -536 265 -556Q275 -546 275 -544H283Q289 -541 296 -541Q303 -541 315 -546H314L390 -587Q530 -662 647 -666Q658 -666 680 -662L694 -659Q705 -656 718 -640Q730 -625 730 -615V-594Q730 -541 702 -495L683 -467Q660 -428 634 -389H635Q622 -369 596 -359ZM451 2L436 -17Q425 -40 423 -71Q421 -103 419 -132V-137Q419 -144 418 -152Q419 -167 419 -183V-207Q419 -232 418 -258Q418 -293 423 -316L426 -331Q425 -347 424 -364Q424 -373 426 -379Q430 -390 430 -409Q430 -422 431 -429L441 -487Q442 -493 442 -499Q442 -507 441 -511L442 -509Q439 -515 439 -518Q439 -522 450 -527H449Q460 -533 465 -533Q476 -533 487 -522L490 -519Q495 -511 505 -503Q513 -496 513 -489Q513 -484 512 -483Q506 -470 505 -454Q505 -439 504 -425Q500 -391 497 -388Q498 -381 498 -370Q494 -325 490 -280Q490 -260 495 -244Q488 -229 488 -212Q488 -198 491 -186Q496 -167 496 -105V-74Q496 -52 482 -39L471 -21L462 -14Q458 -12 451 2Z"/>
</svg>