<svg xmlns="http://www.w3.org/2000/svg" viewBox="0 -800 1024 1024">
	<path fill="#000000" d="M540 -2Q528 -2 516 -3Q507 -11 495 -11Q486 -12 477 -14Q471 -13 470 -16Q469 -19 466 -22V-26Q467 -27 470 -27Q489 -21 500 -22Q511 -23 531 -26Q550 -28 579 -38Q631 -56 654 -82Q688 -117 705 -169Q718 -210 717 -230Q717 -247 721 -253Q722 -255 722 -277Q721 -282 719 -287Q716 -291 718 -298Q722 -306 716 -317Q704 -378 666 -405Q638 -428 594 -430Q557 -428 525 -419Q481 -401 472 -397Q442 -382 423 -362Q383 -322 370 -302Q359 -280 343 -258Q318 -228 307 -220Q298 -214 290 -208Q281 -202 280 -190Q280 -186 275 -184Q270 -182 266 -179Q264 -176 257 -183Q255 -184 252 -185Q252 -192 251 -200Q250 -200 246 -199Q242 -198 241 -203Q241 -209 238 -217Q232 -223 227 -229Q221 -234 221 -245Q218 -250 220 -253Q227 -259 230 -273Q236 -287 244 -291Q252 -295 257 -313Q272 -357 298 -395Q308 -412 318 -430Q340 -468 361 -507Q391 -561 403 -579Q412 -598 427 -612Q429 -613 431 -618Q431 -625 430 -626Q426 -626 425 -625Q418 -624 418 -622Q411 -607 399 -598Q386 -590 374 -579L355 -560Q344 -551 333 -546Q332 -545 330 -539Q329 -537 324 -539Q316 -542 308 -545Q285 -568 286 -598Q286 -599 282 -611Q276 -623 285 -629Q289 -635 293 -635Q296 -635 300 -629L312 -610Q318 -600 329 -606Q345 -613 379 -636Q412 -662 445 -689Q452 -695 458 -705L466 -720Q474 -729 482 -721Q492 -711 512 -711Q518 -711 532 -705Q545 -696 542 -682Q540 -660 527 -649Q527 -647 525 -647Q518 -625 505 -609Q491 -594 479 -576Q455 -539 431 -502L392 -446Q389 -439 383 -429Q375 -413 348 -368Q343 -355 334 -350Q334 -346 335 -345Q337 -345 339 -345Q354 -356 371 -373Q404 -401 442 -426Q460 -438 512 -458Q533 -467 536 -468Q571 -478 628 -473Q664 -470 693 -448Q706 -435 729 -421Q749 -408 757 -387Q765 -366 775 -344Q774 -333 777 -313Q782 -282 776 -267Q779 -240 769 -213Q766 -197 764 -181Q761 -165 752 -151Q742 -122 741 -119Q730 -97 707 -69Q685 -47 676 -42Q664 -34 650 -27Q637 -19 620 -22Q618 -23 607 -16Q605 -15 590 -15Q587 -16 574 -8Q562 -2 556 -5Q545 -6 540 -2Z"/>
</svg>