<svg xmlns="http://www.w3.org/2000/svg" viewBox="0 -800 1024 1024">
	<path fill="#000000" d="M553 -686L560 -682Q565 -677 588 -672Q610 -675 618 -646Q625 -639 620 -622Q616 -609 618 -602Q610 -587 608 -565Q599 -555 603 -542Q599 -536 591 -508Q590 -500 595 -500Q605 -501 609 -510Q613 -514 618 -520Q623 -526 629 -522Q642 -525 650 -519Q657 -519 659 -514Q661 -512 664 -516L690 -522Q707 -523 721 -515Q732 -515 735 -504Q738 -502 740 -494Q741 -487 745 -484Q751 -480 748 -474Q745 -469 736 -470Q724 -462 710 -463Q693 -460 675 -458Q672 -458 649 -453L618 -447Q599 -441 580 -435Q572 -435 573 -427Q574 -419 568 -416Q566 -408 557 -386Q547 -380 549 -364Q546 -361 547 -353Q548 -345 544 -341Q544 -334 537 -321Q529 -306 531 -299Q527 -284 523 -272Q516 -264 516 -254Q516 -244 513 -235Q508 -233 504 -223Q502 -217 499 -214Q500 -207 492 -195Q484 -184 486 -176Q483 -173 479 -162Q476 -153 471 -148Q472 -144 467 -139Q461 -134 462 -130Q458 -125 455 -118Q446 -117 446 -99Q436 -80 426 -61Q428 -55 420 -47Q415 -42 414 -37Q409 -37 408 -31Q407 -26 405 -25Q404 -16 397 -14Q390 -11 386 -7Q390 13 368 27Q364 35 358 35Q351 35 345 37Q337 30 335 20Q333 10 331 1Q330 -4 337 -11Q344 -17 342 -23Q337 -30 352 -35Q358 -43 367 -62Q378 -85 388 -96Q394 -109 400 -123Q406 -132 423 -169Q425 -169 426 -170Q425 -173 426 -176Q430 -187 436 -197Q444 -215 451 -233Q470 -281 472 -286Q482 -318 492 -350Q497 -358 505 -389Q504 -392 506 -399Q509 -409 506 -413Q485 -413 464 -412Q447 -416 429 -418Q412 -421 400 -434Q419 -442 437 -446Q482 -458 524 -476Q528 -503 532 -530Q535 -559 542 -588Q549 -611 551 -638Q554 -649 543 -654Q537 -654 536 -662Q535 -669 537 -674Q536 -681 542 -682Q548 -684 553 -686ZM317 -636L337 -611Q345 -593 338 -574Q333 -569 333 -557Q332 -548 326 -543Q319 -537 313 -531Q313 -528 309 -523Q304 -517 304 -512Q300 -510 293 -494Q281 -490 275 -481Q269 -472 263 -464Q256 -453 248 -442L222 -412Q214 -409 212 -402Q213 -399 207 -394Q201 -389 205 -386L231 -375Q244 -366 257 -357Q268 -341 275 -322Q267 -309 276 -281Q271 -277 274 -268Q277 -259 273 -254Q275 -243 273 -234Q273 -219 273 -205Q270 -183 275 -158Q267 -152 270 -144Q273 -136 272 -130Q274 -105 269 -95Q270 -94 272 -72Q269 -67 268 -55Q267 -41 262 -36Q258 -35 253 -30Q249 -25 246 -25Q237 -30 228 -35Q218 -40 214 -52Q215 -56 210 -57Q205 -58 205 -61Q202 -67 197 -74Q192 -81 198 -86Q200 -92 196 -103Q192 -114 195 -120Q202 -123 201 -128Q200 -134 199 -140Q210 -175 211 -178Q208 -181 211 -187Q213 -191 211 -193Q209 -205 211 -217Q212 -227 213 -238Q215 -256 216 -274Q211 -291 217 -320Q214 -329 214 -339Q213 -350 204 -356Q163 -370 151 -394Q146 -397 145 -407Q144 -414 142 -417Q136 -433 156 -458Q158 -466 172 -481Q182 -492 186 -501Q194 -500 196 -505Q198 -509 200 -515Q207 -520 216 -531Q227 -545 234 -549Q242 -562 255 -569Q261 -581 271 -588Q282 -596 290 -605Q307 -617 317 -636ZM704 -344L706 -343Q717 -343 727 -343Q739 -337 752 -335Q760 -325 750 -305Q745 -304 742 -296Q740 -291 736 -288Q716 -281 695 -275Q693 -270 702 -264Q710 -259 710 -254Q715 -251 716 -246Q717 -240 718 -237Q723 -231 721 -224Q718 -217 718 -209Q724 -192 715 -176Q712 -172 710 -167Q708 -160 701 -161Q694 -167 694 -152Q687 -147 688 -136Q678 -132 670 -110Q667 -108 667 -107Q669 -105 674 -106Q710 -114 747 -114Q752 -120 760 -120Q769 -118 778 -117Q791 -116 804 -118Q812 -115 821 -115Q829 -114 835 -107Q845 -107 855 -103Q856 -100 860 -97Q864 -94 865 -90Q875 -86 877 -79Q879 -71 881 -63Q883 -55 873 -52Q868 -53 859 -50Q849 -47 844 -49Q830 -43 818 -48Q804 -48 789 -49Q787 -48 782 -50Q778 -51 776 -49Q742 -52 711 -49L637 -45Q617 -42 596 -40Q586 -40 529 -38Q506 -34 477 -45Q461 -48 448 -55Q444 -56 444 -57Q446 -59 446 -66Q471 -69 496 -76Q520 -80 544 -84Q551 -87 569 -88Q588 -89 596 -93Q604 -108 612 -124Q622 -144 623 -148Q637 -165 639 -178Q644 -188 653 -215Q659 -225 663 -247Q657 -255 640 -262Q637 -266 628 -264Q620 -262 616 -265Q608 -264 593 -271Q585 -275 578 -276Q575 -279 566 -281Q555 -284 551 -288Q555 -290 557 -296Q558 -301 560 -302Q565 -299 568 -299Q580 -302 591 -309Q606 -309 615 -316Q626 -321 637 -326Q648 -330 659 -340Q667 -343 682 -342Q697 -342 704 -344Z"/>
</svg>