<svg xmlns="http://www.w3.org/2000/svg" viewBox="0 -800 1024 1024">
	<path fill="#000000" d="M506 -705Q516 -705 525 -694Q532 -695 541 -693Q545 -690 556 -687Q570 -684 575 -677Q589 -676 589 -659Q593 -647 585 -639Q583 -625 566 -623Q562 -619 556 -616Q551 -613 548 -607Q531 -595 514 -584Q509 -579 504 -574L483 -556Q476 -549 472 -546Q470 -541 461 -538Q453 -535 451 -533Q448 -525 441 -522Q434 -518 427 -513Q426 -509 420 -506Q417 -504 416 -502Q433 -500 449 -498Q458 -499 488 -490Q506 -481 524 -472Q531 -465 539 -459Q547 -452 543 -443Q546 -440 544 -437Q541 -431 545 -430Q613 -456 646 -473Q670 -484 696 -492Q700 -495 708 -495Q714 -495 717 -496Q731 -491 746 -488Q760 -484 771 -474Q773 -471 778 -457Q789 -442 774 -425Q766 -423 757 -414Q748 -405 745 -404Q730 -391 715 -379Q704 -372 693 -365Q678 -351 657 -336Q653 -337 651 -332Q649 -328 646 -328Q639 -325 632 -322Q631 -319 626 -318Q620 -316 618 -312Q610 -307 601 -303Q593 -295 575 -286Q562 -279 557 -276Q556 -274 550 -274Q544 -274 543 -271Q545 -270 545 -269Q541 -266 536 -265Q534 -260 526 -263Q520 -265 517 -264Q512 -258 505 -256Q501 -244 485 -240Q479 -232 471 -230Q463 -227 455 -223Q443 -213 428 -216Q420 -213 418 -222Q413 -223 410 -216Q408 -211 406 -210Q393 -206 375 -194Q371 -195 366 -191Q361 -187 357 -188Q345 -186 338 -181Q340 -176 337 -175Q336 -174 329 -173Q318 -174 308 -158Q302 -156 295 -154Q287 -152 289 -144Q316 -140 342 -137Q360 -135 373 -133Q416 -125 458 -118Q517 -103 578 -91Q611 -90 646 -83Q657 -82 684 -78L759 -68Q778 -65 796 -63Q815 -57 835 -57Q856 -58 876 -56Q920 -50 964 -48Q974 -47 983 -46Q989 -47 990 -46Q991 -45 988 -41Q989 -30 977 -23Q969 -16 959 -15Q954 -8 932 -4Q928 -1 901 6Q886 10 871 15Q861 20 849 19Q825 20 800 16Q780 15 743 6Q711 -2 696 -3Q650 -12 604 -21Q564 -25 530 -33Q511 -36 494 -42Q470 -41 426 -55Q385 -63 344 -71Q291 -78 237 -86Q228 -86 219 -97Q210 -109 200 -107Q196 -104 192 -107Q188 -110 192 -114Q190 -117 192 -122Q195 -128 190 -131Q193 -134 200 -135Q207 -137 204 -143Q202 -160 217 -162Q222 -162 225 -158Q225 -150 240 -150Q245 -152 257 -160Q272 -170 282 -172Q280 -175 285 -179Q291 -182 293 -178Q289 -172 300 -176Q310 -174 312 -180Q312 -181 309 -181Q308 -180 308 -179Q303 -177 299 -183Q297 -185 302 -184Q304 -187 310 -187Q316 -187 318 -191Q320 -197 317 -200Q317 -201 321 -201Q320 -197 321 -197Q325 -197 327 -194Q325 -194 325 -193Q325 -189 331 -190Q334 -193 339 -196Q344 -199 342 -204Q336 -202 333 -205Q340 -209 349 -210Q351 -216 355 -217Q361 -215 365 -220Q368 -224 368 -231Q366 -232 366 -233Q371 -233 378 -236Q385 -234 389 -239Q393 -243 397 -245Q404 -243 411 -248Q418 -253 416 -260Q424 -262 428 -267Q433 -272 437 -277Q439 -272 444 -272Q450 -272 451 -277Q458 -279 464 -284Q471 -290 466 -295Q466 -301 470 -300Q473 -300 476 -303Q477 -308 484 -309Q489 -309 488 -304Q486 -302 486 -301Q489 -300 493 -303Q511 -311 520 -326Q535 -328 541 -335Q544 -342 552 -344Q555 -346 552 -350Q548 -351 548 -353Q551 -358 561 -357Q566 -355 569 -360Q572 -364 575 -363Q606 -369 601 -385Q597 -379 585 -379Q593 -385 601 -391Q599 -395 596 -393Q591 -390 588 -389Q575 -386 561 -383Q543 -372 512 -365Q498 -357 482 -352Q474 -354 462 -347Q454 -342 449 -342Q421 -333 395 -323Q372 -313 349 -307Q343 -307 335 -300Q325 -292 318 -293Q294 -290 269 -298Q252 -301 234 -304Q216 -310 200 -317Q209 -319 218 -321Q230 -320 250 -328Q266 -335 276 -335Q363 -368 449 -396Q464 -399 478 -406Q490 -403 494 -413L456 -433Q446 -439 420 -449Q388 -461 374 -472Q368 -486 355 -481Q346 -471 337 -462Q329 -454 317 -450Q304 -445 287 -428Q279 -421 268 -419Q258 -419 245 -405Q233 -393 225 -391Q221 -394 216 -394Q201 -390 189 -390Q204 -401 221 -409Q226 -414 248 -433Q271 -452 282 -467Q289 -470 298 -481Q305 -497 318 -503Q322 -512 335 -524Q350 -538 354 -547Q370 -561 376 -576Q392 -571 396 -593L409 -604Q424 -617 440 -630Q456 -643 465 -663Q467 -668 462 -670Q457 -672 455 -675Q463 -679 472 -681Q480 -684 485 -692Q485 -700 492 -701Q498 -703 506 -705ZM534 -430Q530 -428 531 -426Q535 -424 539 -427Q543 -428 542 -430Q539 -433 534 -430ZM629 -403Q628 -400 620 -398Q612 -396 610 -391Q611 -386 619 -389Q627 -392 628 -397Q634 -399 632 -403Q631 -404 629 -403ZM374 -230L368 -223Q364 -219 367 -217Q371 -215 374 -219Q379 -220 378 -227Q378 -231 374 -230Z"/>
</svg>