<svg xmlns="http://www.w3.org/2000/svg" viewBox="0 -800 1024 1024">
	<path fill="#000000" d="M557 -721Q580 -719 595 -714Q602 -716 607 -714Q613 -713 621 -705Q625 -701 629 -699Q637 -692 634 -685Q631 -678 631 -669Q622 -667 622 -660Q603 -656 585 -649Q560 -645 554 -644Q533 -634 515 -633Q507 -629 492 -635Q481 -639 474 -638Q436 -644 398 -650Q389 -653 381 -654Q372 -655 366 -662Q367 -667 375 -666Q382 -665 384 -668Q410 -675 435 -683Q438 -683 443 -688Q447 -692 450 -690Q470 -696 489 -703Q495 -713 505 -713Q515 -713 525 -714Q541 -717 557 -721ZM288 -528Q307 -528 311 -518Q320 -526 329 -509Q328 -505 333 -502Q339 -498 340 -495Q342 -486 342 -466Q341 -446 344 -437Q326 -427 320 -410Q319 -401 310 -390Q301 -379 300 -372Q288 -352 272 -334Q265 -317 265 -302Q289 -301 312 -304Q335 -309 359 -311Q414 -322 421 -323Q435 -324 448 -326Q478 -332 508 -338Q516 -336 519 -343Q521 -348 518 -354Q517 -368 518 -382Q518 -396 512 -408Q512 -416 506 -420Q501 -425 496 -429Q491 -430 492 -434Q494 -437 498 -438Q502 -441 507 -446Q511 -451 516 -445Q524 -444 530 -443Q537 -441 543 -445Q567 -440 573 -437Q584 -424 588 -410Q589 -385 589 -360Q589 -353 596 -354Q600 -354 609 -357Q652 -366 695 -370Q701 -373 701 -379Q700 -385 701 -389Q708 -381 721 -377Q728 -371 747 -372Q761 -373 768 -370Q773 -373 783 -370Q792 -367 796 -368Q802 -361 810 -359Q818 -358 826 -354Q829 -356 840 -349Q844 -346 843 -338Q842 -330 846 -326Q844 -321 836 -320Q828 -319 826 -316Q821 -316 810 -312Q797 -308 789 -309Q785 -312 777 -312Q771 -312 770 -313Q703 -305 660 -298Q652 -296 644 -294Q628 -289 610 -286Q601 -289 592 -282Q583 -274 584 -263Q592 -247 583 -225Q587 -206 582 -188Q584 -181 583 -168Q582 -155 583 -150Q582 -145 583 -135Q585 -124 582 -119Q583 -117 582 -110Q580 -102 584 -98Q583 -96 584 -89Q585 -81 582 -78Q578 -62 582 -43Q576 -27 573 -12Q571 3 568 17Q565 23 563 30Q561 37 554 36Q547 46 538 35Q527 35 510 22Q499 10 488 -2Q487 -6 481 -10Q475 -14 473 -17Q471 -23 466 -26Q460 -28 455 -32Q445 -37 442 -44Q442 -46 446 -46Q448 -51 445 -56Q442 -61 440 -66Q450 -62 460 -59Q465 -55 472 -55Q484 -56 496 -58Q504 -56 506 -63Q508 -70 510 -77Q518 -116 519 -142Q522 -164 524 -190Q523 -203 524 -220Q527 -248 523 -271Q510 -276 497 -272Q484 -268 470 -266Q449 -261 424 -259Q405 -258 385 -249Q382 -248 378 -248L363 -246Q360 -245 356 -245Q330 -238 303 -237Q278 -237 252 -239Q226 -241 209 -260Q195 -271 183 -304Q179 -323 185 -341Q192 -359 198 -376Q208 -392 217 -408Q225 -425 239 -438Q245 -447 251 -456Q254 -464 267 -478Q277 -488 280 -495Q288 -509 288 -528ZM705 -172Q710 -172 712 -170Q713 -167 716 -165Q720 -164 723 -162Q729 -158 733 -158Q737 -152 745 -150Q753 -149 759 -146Q785 -149 792 -122Q790 -109 783 -100Q774 -88 762 -93Q748 -88 734 -83Q727 -83 720 -83Q709 -79 698 -74Q695 -73 691 -73Q687 -73 685 -69Q674 -57 660 -62Q667 -76 679 -92Q682 -102 690 -111Q697 -120 695 -132Q696 -135 692 -144Q687 -155 695 -158Q700 -159 701 -165Q702 -171 705 -172ZM370 -170H379Q384 -165 394 -164Q393 -159 399 -154Q405 -149 405 -146Q413 -138 409 -122Q406 -118 406 -104Q406 -92 402 -87Q394 -82 401 -73Q407 -66 406 -62Q408 -53 409 -48Q408 -47 405 -50Q397 -43 387 -39Q389 -32 388 -30Q387 -29 384 -31Q378 -33 373 -38Q368 -43 361 -40Q355 -41 347 -50Q341 -57 338 -59Q330 -62 327 -70Q325 -79 321 -85Q307 -100 319 -116Q322 -117 323 -125Q324 -131 326 -134Q324 -146 334 -150Q343 -153 351 -158Q354 -164 362 -166Q368 -168 370 -170Z"/>
</svg>