<svg xmlns="http://www.w3.org/2000/svg" viewBox="0 -800 1024 1024">
	<path fill="#000000" d="M403 -695Q412 -695 430 -692Q447 -689 458 -690Q461 -685 469 -687Q476 -689 479 -686Q484 -688 491 -684Q498 -680 503 -681Q505 -676 504 -670Q504 -664 511 -663Q515 -665 518 -660Q520 -656 522 -655Q519 -643 532 -630Q537 -623 536 -615Q535 -613 533 -614Q526 -614 520 -616Q514 -618 510 -614Q497 -607 481 -610Q431 -622 398 -636Q394 -636 378 -644Q373 -644 364 -650Q355 -656 350 -657Q340 -666 327 -674Q331 -678 344 -679Q357 -679 361 -685Q384 -687 403 -695ZM661 -595Q668 -595 670 -594Q672 -592 671 -586Q673 -582 680 -582Q686 -582 687 -579Q691 -577 689 -572Q687 -569 688 -567Q693 -565 694 -561Q695 -557 698 -555Q703 -557 706 -550Q709 -543 705 -540Q703 -538 694 -536Q684 -534 682 -529Q660 -522 638 -515Q630 -514 611 -508Q588 -501 575 -501Q560 -496 534 -490L451 -468Q439 -465 426 -463Q402 -458 375 -448Q339 -438 336 -437Q332 -433 323 -434Q313 -435 309 -430Q300 -427 291 -428Q287 -424 273 -424Q265 -418 245 -422Q229 -425 220 -422Q208 -425 196 -429Q185 -430 168 -438Q152 -446 145 -447Q141 -447 141 -448Q144 -450 152 -451Q204 -469 256 -487Q316 -513 384 -526Q404 -530 422 -538Q425 -539 431 -539Q438 -539 440 -542Q499 -560 559 -576Q565 -581 570 -588Q576 -595 585 -590H612Q627 -589 646 -592Q649 -595 654 -593Q660 -591 661 -595ZM547 -417Q559 -412 567 -402Q571 -394 579 -391Q587 -389 593 -385Q607 -378 604 -364Q600 -350 596 -339Q589 -334 590 -320Q591 -306 587 -301Q580 -294 579 -282Q573 -275 569 -255Q565 -238 561 -231Q560 -219 557 -210Q554 -200 556 -190Q546 -150 559 -104Q569 -85 589 -78Q610 -71 631 -65Q668 -58 743 -60Q752 -60 761 -60Q797 -62 832 -65Q849 -72 854 -88Q858 -104 862 -120Q866 -109 866 -93Q868 -91 867 -86Q865 -76 874 -76Q882 -65 892 -67Q912 -65 919 -58Q915 -52 918 -46Q919 -44 926 -36Q934 -36 937 -30Q940 -23 930 -21Q926 -17 917 -14Q910 -12 907 -9Q888 -9 879 -8Q871 -6 863 -5Q852 -7 841 -6Q807 -8 777 -5Q735 1 697 -2Q631 -1 568 -31Q555 -38 542 -46Q505 -75 493 -114Q487 -145 488 -174Q488 -202 496 -228Q497 -238 502 -250Q508 -265 508 -272Q517 -306 525 -316Q522 -326 527 -332Q533 -348 529 -362Q510 -355 492 -346Q470 -333 447 -325Q433 -321 425 -320Q422 -306 419 -293Q419 -281 419 -269Q414 -261 412 -245Q410 -229 407 -224Q400 -209 393 -194Q392 -181 383 -171Q375 -160 369 -148Q365 -143 360 -132Q353 -117 349 -113Q339 -102 328 -91Q321 -90 312 -92Q290 -123 291 -156Q297 -157 296 -163Q295 -170 299 -171Q298 -177 302 -183Q306 -191 306 -196Q311 -200 314 -213Q316 -224 320 -228Q320 -232 325 -234Q332 -237 329 -242Q334 -255 338 -268Q344 -270 347 -280Q349 -288 354 -290Q353 -295 356 -305Q359 -315 357 -320Q368 -334 364 -343Q365 -350 360 -362Q356 -370 357 -376Q372 -372 387 -365Q401 -358 417 -359Q449 -378 480 -402Q482 -408 490 -408Q497 -407 504 -408Q509 -415 518 -415Q526 -415 534 -414Q543 -414 547 -417Z"/>
</svg>