<svg xmlns="http://www.w3.org/2000/svg" viewBox="0 -800 1024 1024">
	<path fill="#000000" d="M534 -713Q542 -710 549 -707Q571 -701 594 -690Q602 -684 604 -675Q606 -666 611 -657Q609 -632 602 -611Q603 -606 602 -601Q601 -596 607 -595Q638 -605 668 -615Q672 -618 677 -614Q681 -611 684 -611Q696 -621 709 -615Q714 -610 722 -613Q729 -616 732 -615Q733 -612 736 -611Q740 -610 742 -609Q745 -607 741 -603Q746 -597 744 -590Q729 -575 718 -572Q699 -565 692 -567Q679 -563 666 -559Q657 -554 647 -550Q637 -554 625 -556Q621 -555 614 -560Q608 -565 604 -563Q602 -558 602 -546Q602 -531 598 -526Q605 -508 597 -493Q599 -479 594 -465Q591 -462 591 -450Q588 -452 581 -449Q575 -446 572 -449Q565 -446 558 -462Q554 -466 547 -487Q551 -514 554 -542Q554 -548 556 -559Q559 -574 557 -582Q561 -639 557 -669Q558 -683 543 -691Q543 -694 538 -701Q533 -709 534 -713ZM291 -647Q298 -648 302 -642Q305 -636 310 -633Q318 -619 318 -609Q314 -600 309 -592Q299 -590 301 -575Q282 -555 268 -534Q265 -531 259 -524Q253 -516 248 -514Q230 -484 219 -471Q216 -469 211 -461Q205 -451 198 -450Q190 -440 196 -429Q201 -419 212 -412Q224 -397 235 -383Q241 -378 243 -368Q245 -358 249 -354Q252 -323 251 -318Q252 -302 249 -284Q252 -276 250 -266Q250 -251 250 -236Q250 -224 253 -213Q255 -202 251 -192Q252 -164 248 -137Q252 -123 247 -89Q243 -85 242 -76Q241 -68 238 -65Q231 -67 223 -67Q214 -67 210 -73Q204 -79 197 -90Q188 -105 182 -109Q172 -118 179 -126Q174 -137 176 -151Q179 -164 178 -176L188 -263Q185 -284 188 -301Q189 -319 190 -338Q190 -339 189 -376Q189 -399 175 -409Q161 -402 157 -389Q154 -382 149 -382Q146 -382 129 -393Q128 -398 123 -409Q118 -420 117 -429Q108 -440 119 -449Q126 -452 136 -465Q144 -475 149 -478Q154 -477 156 -482Q156 -483 158 -493Q173 -519 200 -544Q215 -572 239 -592Q244 -597 250 -602Q256 -607 259 -615Q266 -619 275 -631Q284 -643 291 -647ZM693 -471H707Q722 -468 737 -465Q747 -465 755 -460Q756 -454 766 -454Q775 -454 776 -447Q780 -445 780 -437Q780 -431 783 -429Q782 -424 790 -417Q796 -412 796 -408Q805 -399 800 -387Q803 -383 799 -379Q794 -375 796 -370Q797 -363 796 -356Q795 -350 800 -346Q806 -346 805 -342Q804 -336 806 -331Q804 -319 804 -308Q797 -309 797 -302Q796 -294 802 -291Q793 -280 795 -272Q791 -268 794 -259Q797 -251 795 -246Q789 -242 790 -231Q791 -222 788 -219Q791 -212 787 -207Q785 -205 776 -200Q775 -190 782 -184Q783 -180 781 -180Q775 -180 776 -176Q779 -172 775 -169Q771 -166 772 -163Q771 -156 773 -147Q774 -138 766 -136Q766 -125 761 -118Q758 -108 755 -99Q755 -93 748 -86Q742 -80 741 -74Q738 -66 732 -61Q730 -64 724 -60Q720 -57 718 -61Q706 -76 698 -98Q691 -100 690 -105Q689 -111 688 -118Q687 -125 693 -125Q700 -125 705 -122Q719 -124 721 -136Q724 -150 728 -161Q732 -168 734 -188Q735 -199 738 -206Q736 -209 739 -216Q742 -222 740 -226L742 -266Q744 -288 745 -311Q740 -323 742 -335Q739 -340 740 -349Q741 -357 740 -359Q739 -370 737 -382Q733 -391 731 -401Q728 -411 717 -416Q713 -426 701 -421Q685 -416 668 -412Q639 -400 630 -394Q621 -387 607 -385Q604 -386 594 -385Q584 -384 579 -387Q576 -390 569 -393Q560 -397 557 -401Q550 -406 544 -397Q539 -389 542 -382Q539 -367 535 -353Q529 -318 523 -284Q525 -280 520 -273Q516 -267 518 -264L516 -240Q519 -235 517 -224Q515 -217 516 -215Q510 -194 512 -185Q513 -181 510 -172Q506 -160 511 -154Q506 -144 508 -132Q507 -124 509 -114Q512 -104 503 -102Q492 -97 482 -101Q476 -99 472 -106Q469 -116 460 -125Q453 -134 454 -152Q454 -156 457 -180Q468 -229 469 -232Q470 -237 470 -243L473 -253Q475 -267 472 -274Q478 -294 484 -315Q484 -325 490 -341Q496 -356 496 -363Q507 -390 514 -416Q519 -419 523 -428Q527 -437 533 -440Q538 -447 544 -444Q550 -441 551 -433Q557 -431 558 -425Q559 -418 562 -412Q623 -453 693 -471ZM633 -183L635 -181Q644 -179 652 -176Q655 -173 667 -174Q680 -175 684 -169Q689 -169 693 -164Q697 -159 692 -156Q691 -145 688 -140Q683 -131 675 -136Q674 -133 669 -129Q666 -127 665 -124Q655 -107 647 -108Q646 -104 640 -101Q634 -97 633 -94Q629 -96 625 -89Q621 -81 616 -85Q613 -83 611 -77Q609 -70 607 -68Q627 -65 646 -63Q673 -58 700 -54Q703 -52 710 -51Q718 -50 722 -47Q740 -44 758 -41Q769 -35 779 -33Q779 -30 784 -31Q789 -33 791 -27Q793 -23 795 -24Q798 -28 804 -27Q807 -29 817 -23Q818 -22 816 -23Q812 -25 811 -23Q811 -18 817 -17Q819 -14 821 -15Q825 -20 831 -21L853 -7Q861 -8 869 1Q871 -4 874 -2Q877 2 879 6Q878 10 867 29Q866 22 861 24Q856 26 857 33Q858 39 855 41Q851 43 849 47Q829 49 808 40Q802 35 794 32Q786 29 782 22Q772 21 764 16Q762 15 754 11Q747 8 744 3Q733 6 728 -3Q725 0 720 -3Q716 -5 711 -6Q702 -10 692 -13Q681 -16 675 -24Q667 -22 662 -26Q635 -33 610 -45Q599 -50 585 -47Q580 -47 575 -42Q571 -37 569 -37Q565 -33 562 -32L550 -20Q547 -19 543 -15Q539 -17 528 -10Q523 -7 521 -13Q519 -18 515 -18Q508 -24 514 -29Q520 -34 523 -38Q539 -60 566 -79Q580 -101 594 -124Q606 -143 597 -149Q589 -153 584 -158Q577 -166 583 -169Q596 -169 609 -174Q611 -179 622 -179Q630 -179 633 -183Z"/>
</svg>