<svg xmlns="http://www.w3.org/2000/svg" viewBox="0 -800 1024 1024">
	<path fill="#000000" d="M463 -721H468Q482 -710 495 -697Q520 -693 529 -683Q534 -682 536 -673Q538 -666 540 -663Q532 -647 523 -632Q509 -628 504 -620Q501 -615 496 -610Q492 -605 491 -598Q507 -592 526 -590Q536 -585 542 -577Q556 -570 588 -558Q589 -557 623 -543Q636 -535 648 -530Q660 -526 672 -522Q680 -515 700 -505Q718 -496 726 -489Q769 -470 808 -449Q817 -443 837 -438Q856 -433 863 -429Q872 -427 880 -426Q900 -414 924 -405Q931 -403 931 -385Q935 -378 934 -369Q933 -365 927 -367Q925 -364 925 -348Q900 -349 875 -351Q860 -355 845 -359Q770 -394 738 -415Q729 -420 660 -465Q655 -468 649 -471Q640 -477 610 -494Q575 -513 556 -529Q548 -532 516 -554Q499 -568 481 -577Q478 -580 474 -580Q469 -580 459 -567Q459 -560 454 -557Q449 -554 445 -552Q444 -549 439 -546Q431 -541 432 -537Q431 -534 425 -528Q418 -522 417 -516Q409 -513 403 -501Q397 -490 393 -487Q386 -480 380 -472Q374 -465 365 -461Q342 -434 315 -407Q292 -381 268 -355Q266 -355 255 -349L243 -341Q243 -336 233 -328Q227 -323 225 -318Q218 -316 210 -305Q204 -295 198 -293Q189 -279 177 -272Q167 -266 155 -256Q151 -254 148 -250Q144 -246 138 -246Q129 -235 116 -234Q114 -229 107 -229Q102 -229 98 -232Q94 -235 95 -240Q92 -247 90 -254Q87 -261 80 -264Q80 -278 91 -285Q101 -291 110 -299Q129 -314 142 -331Q163 -352 196 -378Q217 -402 240 -422Q252 -433 263 -444Q276 -460 290 -473Q311 -494 331 -516Q337 -524 348 -535Q365 -552 370 -561Q375 -565 381 -574Q387 -584 391 -587Q399 -599 406 -611Q415 -619 428 -647Q428 -652 433 -659Q439 -667 439 -672Q443 -680 434 -685Q425 -690 428 -696Q431 -700 435 -705Q438 -710 445 -711Q450 -707 455 -714Q459 -721 463 -721ZM488 -364L505 -362Q508 -359 519 -357Q530 -355 534 -350Q555 -350 560 -333Q564 -327 564 -315Q564 -304 566 -300Q563 -291 564 -276Q565 -259 562 -252Q562 -242 566 -234Q574 -236 584 -232Q606 -239 627 -250Q663 -255 697 -252Q715 -243 713 -234Q726 -220 708 -209Q701 -210 684 -204Q669 -204 653 -204Q634 -201 615 -198Q608 -199 597 -204Q586 -210 576 -219Q572 -219 568 -220Q564 -222 562 -216Q560 -173 554 -131Q551 -115 547 -100Q548 -95 544 -89Q541 -85 541 -82Q538 -76 536 -69Q535 -63 529 -60Q525 -63 521 -60Q517 -57 522 -53Q542 -55 562 -53Q608 -55 653 -58Q674 -63 708 -53Q718 -50 723 -42Q734 -37 732 -13Q721 -6 710 0Q698 -1 686 0Q672 0 660 2Q645 1 629 2Q613 3 599 -1Q581 -1 562 -1Q554 1 545 2Q538 0 526 1Q512 2 507 0Q499 3 484 2Q470 1 465 2Q443 0 422 -5Q410 -8 397 -12Q393 -14 368 -24Q349 -28 324 -61Q321 -72 317 -83Q313 -95 319 -106Q320 -122 328 -136Q335 -150 342 -165Q345 -168 349 -174L363 -193Q367 -197 370 -202Q377 -214 384 -226Q386 -231 387 -238Q388 -244 395 -241Q400 -241 407 -232Q417 -221 425 -225Q429 -214 436 -201Q443 -189 436 -177Q428 -179 424 -174Q419 -169 415 -165Q413 -160 405 -151Q396 -140 394 -133Q387 -126 385 -110Q362 -92 381 -68Q382 -68 385 -64Q388 -59 393 -61Q428 -53 452 -51Q469 -51 485 -51Q495 -51 489 -66Q483 -69 481 -78Q479 -85 478 -87Q470 -103 482 -121Q483 -127 491 -159Q490 -165 493 -173Q496 -184 495 -189Q501 -229 502 -248Q503 -255 504 -262Q501 -281 508 -301Q506 -325 499 -338Q499 -342 493 -350Q486 -358 488 -364Z"/>
</svg>