<svg xmlns="http://www.w3.org/2000/svg" viewBox="0 -800 1024 1024">
	<path fill="#000000" d="M268 -661L279 -657Q290 -653 305 -652Q329 -652 342 -641Q357 -634 365 -607Q363 -602 368 -594Q372 -587 370 -582Q364 -580 364 -575Q364 -570 363 -565Q357 -555 349 -547Q342 -548 336 -537Q332 -530 328 -528Q323 -523 317 -518L296 -497Q291 -491 285 -486Q276 -485 266 -471Q259 -461 254 -459Q244 -455 262 -440Q275 -434 292 -413Q293 -402 300 -392Q302 -388 297 -380Q292 -372 294 -366Q297 -359 295 -347Q293 -335 294 -331Q295 -315 290 -293Q284 -280 286 -261Q283 -245 283 -227Q277 -220 279 -202Q278 -191 282 -181Q277 -166 279 -160Q285 -150 282 -137Q279 -135 278 -129Q277 -122 273 -120Q259 -123 251 -118Q244 -115 240 -120Q235 -126 230 -128Q223 -131 222 -138Q221 -144 219 -149Q209 -154 211 -169Q204 -181 206 -195Q207 -209 208 -222Q209 -230 210 -239L212 -272Q213 -280 214 -289Q220 -333 226 -377Q227 -380 226 -388Q225 -397 228 -401Q228 -413 228 -426Q228 -431 222 -433Q218 -428 178 -391Q174 -389 168 -383Q160 -375 153 -374Q136 -368 125 -353Q118 -353 114 -348Q109 -343 105 -339Q100 -337 95 -333Q90 -330 86 -336Q86 -343 95 -352Q103 -360 104 -363Q114 -381 123 -399Q122 -404 130 -412Q135 -417 136 -421Q154 -451 173 -469Q191 -491 208 -513Q217 -527 227 -539Q233 -545 241 -557Q249 -569 254 -573Q261 -581 266 -590Q271 -591 275 -599Q278 -605 280 -607Q284 -612 281 -617Q277 -621 275 -625Q280 -632 271 -641Q269 -646 266 -652Q263 -658 268 -661ZM784 -555L816 -554Q822 -556 839 -554Q849 -553 857 -554Q864 -556 871 -550Q878 -552 892 -542Q897 -540 896 -535Q895 -531 897 -526Q900 -523 900 -520Q900 -516 896 -515Q889 -517 888 -511Q887 -506 891 -502Q892 -497 883 -493Q874 -495 851 -493Q844 -491 827 -491Q809 -491 801 -487Q785 -486 771 -482Q767 -482 744 -477Q734 -475 723 -474Q706 -473 691 -469Q686 -466 674 -465Q660 -464 655 -460Q652 -460 652 -458Q651 -457 653 -455Q656 -451 661 -451Q687 -445 711 -432Q719 -427 728 -413Q734 -410 734 -402Q733 -395 735 -389Q740 -384 740 -372Q740 -361 743 -357L744 -280Q744 -271 744 -263V-229Q744 -220 744 -212Q744 -197 743 -183Q743 -173 743 -163Q746 -142 740 -123Q738 -103 736 -83Q731 -65 726 -48Q720 -44 717 -34Q715 -25 713 -23Q711 -16 703 -9Q702 -8 689 2Q685 3 679 9Q671 16 666 16Q654 12 646 -2Q645 -7 639 -9Q638 -9 630 -11Q625 -12 625 -19Q625 -26 623 -27Q605 -41 595 -42Q584 -50 586 -53Q597 -54 611 -53Q628 -53 638 -58Q660 -64 666 -85Q669 -99 671 -114Q673 -125 675 -136Q680 -162 678 -188Q678 -210 681 -220Q680 -246 679 -272Q679 -278 678 -284L676 -351Q674 -379 668 -403Q666 -418 646 -429Q636 -434 628 -441Q619 -447 609 -448Q577 -438 562 -433Q559 -431 546 -428Q529 -424 511 -414Q483 -412 459 -404Q444 -402 428 -401Q414 -401 403 -395Q394 -398 387 -389Q381 -387 371 -381Q366 -386 370 -391Q374 -395 380 -396Q389 -399 397 -413Q411 -419 424 -426Q429 -428 433 -430L450 -439Q455 -441 459 -443Q480 -453 524 -473Q556 -489 590 -501Q603 -507 657 -523Q680 -528 702 -533Q716 -539 747 -543Q753 -547 764 -548Q779 -550 784 -555Z"/>
</svg>