<svg xmlns="http://www.w3.org/2000/svg" viewBox="0 -800 1024 1024">
	<path fill="#000000" d="M445 -755Q454 -755 455 -754Q470 -759 487 -748Q495 -743 503 -738Q511 -732 513 -723Q517 -710 520 -697Q524 -673 521 -651Q522 -634 518 -604Q517 -596 516 -588Q513 -561 510 -535Q504 -525 510 -516Q513 -517 519 -514Q525 -511 530 -512Q547 -517 569 -517Q588 -516 606 -510Q614 -508 616 -501Q618 -494 619 -488Q617 -485 606 -461Q599 -456 590 -451Q573 -453 555 -450Q548 -448 531 -447Q507 -445 497 -440Q494 -426 491 -412Q486 -401 483 -388Q484 -386 481 -380Q477 -373 481 -370Q497 -370 499 -372Q583 -387 666 -407Q671 -409 678 -409Q684 -409 684 -414Q696 -413 724 -417Q754 -422 772 -418Q790 -413 795 -411Q808 -405 812 -394Q810 -392 810 -387Q810 -381 807 -380Q803 -382 801 -381Q799 -380 798 -376Q799 -369 790 -362Q786 -356 780 -356Q774 -355 770 -353Q744 -357 726 -354Q693 -352 660 -350Q645 -347 630 -344Q616 -344 604 -338Q568 -332 532 -327Q519 -323 505 -322Q484 -317 462 -312Q455 -312 454 -306Q453 -300 451 -294Q448 -292 446 -284Q444 -277 440 -275Q441 -272 438 -268Q435 -264 437 -261Q430 -244 423 -227Q437 -227 449 -231Q468 -235 486 -242Q504 -245 522 -252Q552 -259 584 -265Q603 -265 621 -265Q628 -263 639 -265Q657 -253 659 -251Q679 -241 679 -195Q675 -173 668 -151Q660 -141 653 -123Q649 -120 645 -108Q642 -97 636 -95Q633 -96 631 -92Q629 -87 628 -86Q624 -68 601 -60Q593 -51 580 -45Q575 -40 570 -35Q569 -33 573 -31Q582 -29 598 -23Q625 -16 642 -3Q657 6 656 17Q656 21 650 26Q643 31 644 36Q647 45 640 50Q637 52 624 56Q614 58 604 54Q595 50 586 47Q578 40 557 31Q539 23 530 16Q520 14 489 -8Q476 -18 447 -30Q429 -38 419 -43Q417 -44 412 -45Q405 -46 405 -49Q420 -47 451 -47Q504 -47 521 -44Q532 -40 536 -48Q540 -56 547 -62Q557 -81 569 -101Q584 -131 597 -181Q596 -185 599 -194Q602 -201 599 -206Q575 -206 557 -201Q538 -198 519 -192Q511 -189 494 -184Q471 -178 461 -172Q442 -168 424 -159Q416 -160 408 -159Q400 -157 395 -164Q395 -168 388 -170Q381 -172 380 -175Q381 -182 373 -187Q367 -191 366 -195Q362 -197 362 -203Q362 -208 360 -210Q359 -220 362 -229Q361 -236 366 -239Q372 -243 376 -247Q372 -252 376 -257Q379 -263 381 -268Q383 -270 382 -276Q381 -283 385 -286Q389 -289 387 -291Q386 -293 382 -293Q357 -288 354 -287Q343 -283 331 -280Q298 -271 265 -265Q260 -260 247 -257Q235 -254 230 -250Q213 -245 210 -243Q189 -245 168 -247Q161 -249 150 -248Q132 -246 125 -252Q115 -251 108 -254Q106 -254 106 -255Q105 -256 106 -257Q108 -260 112 -257Q142 -271 174 -280Q212 -297 254 -308Q295 -318 336 -331Q369 -340 402 -349Q409 -350 410 -356Q410 -363 412 -369Q416 -370 415 -372Q411 -375 411 -376Q414 -376 414 -379Q413 -383 415 -385Q414 -388 417 -392Q421 -398 418 -403Q413 -410 419 -422Q421 -427 411 -429Q377 -434 355 -445Q348 -443 344 -449Q342 -451 340 -460Q372 -466 403 -478Q411 -482 420 -484Q429 -486 435 -492Q438 -498 438 -516Q438 -531 441 -539Q440 -550 444 -562Q446 -565 446 -573Q446 -582 449 -586Q447 -600 451 -616Q452 -633 452 -651Q456 -680 453 -711Q454 -721 448 -726Q441 -731 436 -736Q434 -742 425 -745Q418 -748 416 -750Q419 -754 431 -753Q441 -752 445 -755ZM319 -455H326Q327 -450 323 -450Q318 -451 314 -451Q310 -451 310 -452Q313 -453 319 -455Z"/>
</svg>