<svg xmlns="http://www.w3.org/2000/svg" viewBox="0 -800 1024 1024">
	<path fill="#000000" d="M463 -732L492 -731Q526 -729 549 -683Q560 -648 558 -582Q553 -565 551 -536Q549 -508 547 -499Q543 -484 557 -484Q563 -484 567 -488Q598 -490 628 -493Q650 -493 663 -484Q674 -483 689 -473Q703 -464 708 -462Q731 -432 732 -393Q733 -350 705 -328Q676 -282 647 -253Q635 -247 615 -228Q593 -208 580 -202Q536 -162 499 -157Q494 -160 483 -158Q467 -155 463 -163Q453 -181 436 -181Q423 -181 417 -167Q411 -170 402 -164Q399 -161 402 -167Q415 -186 427 -205Q446 -253 458 -334Q457 -340 461 -355Q466 -374 460 -383Q432 -371 377 -338Q334 -312 308 -300Q304 -288 297 -277Q290 -266 295 -253Q283 -226 296 -195Q308 -165 336 -155Q365 -138 406 -131Q429 -127 482 -124Q499 -122 516 -121Q555 -121 593 -121Q657 -127 724 -128Q790 -130 852 -142Q871 -138 873 -152Q876 -168 871 -182Q869 -189 871 -190Q879 -187 885 -173Q899 -159 914 -152Q916 -143 930 -133Q942 -125 943 -118Q919 -83 886 -75Q857 -81 797 -68Q793 -71 781 -69Q771 -68 766 -71Q688 -71 610 -71Q537 -67 468 -75Q435 -81 402 -87Q369 -92 339 -105Q255 -147 245 -196Q240 -202 239 -218Q237 -238 229 -243L180 -193Q163 -189 144 -192Q125 -196 110 -197Q104 -198 105 -201Q112 -209 122 -212Q179 -263 241 -307Q260 -368 281 -425Q285 -440 299 -467Q318 -503 320 -523Q312 -532 321 -537Q330 -541 339 -542Q345 -536 359 -540Q370 -543 375 -541Q392 -541 395 -528Q399 -513 393 -499Q386 -491 375 -470Q367 -454 360 -445Q348 -421 336 -398Q334 -377 329 -363Q346 -370 377 -391Q409 -412 427 -420Q439 -428 455 -435Q470 -441 476 -457Q475 -466 478 -480Q481 -496 480 -503Q486 -532 489 -561Q487 -574 487 -606Q487 -649 480 -668Q475 -692 454 -699Q432 -706 412 -716Q404 -717 406 -722Q410 -731 421 -725Q441 -730 463 -732ZM595 -436Q581 -436 553 -426Q541 -425 534 -413Q530 -406 527 -392Q521 -380 517 -349Q513 -311 500 -297Q499 -251 470 -205Q471 -198 478 -198Q493 -201 503 -208Q557 -244 599 -290Q646 -341 668 -394Q668 -418 643 -431Q619 -443 595 -436Z"/>
</svg>