<svg xmlns="http://www.w3.org/2000/svg" viewBox="0 -800 1024 1024">
	<path fill="#000000" d="M298 -660Q303 -658 304 -652Q302 -636 308 -628Q308 -620 310 -612Q312 -603 309 -595Q307 -576 300 -558Q296 -556 292 -546Q289 -538 282 -538Q276 -537 273 -530Q269 -524 266 -519Q252 -505 240 -491Q234 -490 230 -483Q229 -480 225 -471Q218 -464 227 -456Q240 -452 248 -436Q256 -425 258 -407Q263 -401 263 -384Q262 -366 260 -348Q257 -337 259 -324Q256 -314 258 -304Q258 -296 257 -288Q255 -280 260 -273Q261 -263 259 -240Q257 -216 259 -202Q255 -189 253 -161Q250 -156 255 -148Q260 -141 259 -135Q256 -130 263 -113Q265 -93 251 -79Q250 -75 240 -70Q216 -75 201 -96Q197 -104 186 -115Q173 -136 183 -158Q186 -167 188 -177Q187 -197 194 -271Q199 -307 203 -343Q203 -350 203 -358Q203 -383 206 -394Q207 -413 204 -430Q204 -436 199 -439Q193 -442 191 -437Q179 -428 172 -417Q164 -405 156 -394Q153 -389 148 -387Q141 -384 140 -390Q126 -408 120 -426Q124 -443 130 -459Q144 -483 153 -494Q163 -505 168 -516Q176 -522 180 -529Q183 -537 191 -543Q196 -548 200 -560Q200 -564 203 -565Q207 -566 210 -566Q214 -567 219 -574Q222 -578 225 -580Q229 -583 229 -591Q229 -596 231 -599Q236 -604 243 -600Q248 -608 252 -617Q253 -621 260 -628Q267 -634 267 -639Q280 -652 298 -660ZM709 -634L730 -633Q737 -631 746 -633Q755 -635 761 -628Q764 -625 760 -618Q756 -611 760 -607Q765 -600 756 -596Q750 -598 743 -589Q739 -583 735 -582Q717 -581 702 -576Q672 -568 658 -561Q647 -559 641 -551Q630 -552 618 -553Q614 -555 599 -558Q584 -561 568 -565Q561 -568 553 -570Q545 -571 542 -578Q554 -580 565 -583Q622 -604 679 -625Q694 -628 709 -634ZM504 -475Q507 -475 507 -472Q507 -469 510 -466Q511 -456 518 -441Q528 -421 527 -410Q527 -396 522 -383Q522 -377 521 -372Q525 -357 516 -345Q515 -330 511 -315Q510 -304 509 -293Q509 -284 502 -256Q499 -253 501 -247Q503 -242 502 -238Q499 -235 500 -227Q501 -220 499 -216Q496 -213 494 -194Q489 -187 495 -174Q494 -165 495 -154Q495 -146 495 -139Q496 -135 497 -129Q498 -124 504 -122Q513 -114 534 -112Q539 -115 548 -112Q556 -109 560 -110Q568 -110 575 -110Q613 -110 650 -110Q657 -114 687 -114Q690 -117 709 -117Q716 -116 777 -119Q793 -122 812 -123Q818 -123 824 -124Q838 -128 848 -124Q872 -127 893 -119Q894 -115 900 -112Q906 -109 908 -107Q910 -90 906 -82Q906 -75 900 -74Q893 -72 889 -69Q881 -70 869 -66Q834 -67 800 -65Q780 -68 762 -66Q758 -69 745 -64Q742 -62 728 -65Q709 -61 698 -65Q676 -65 654 -65Q637 -66 620 -64Q581 -64 544 -68Q535 -71 526 -69Q510 -73 493 -78Q473 -84 460 -97Q449 -107 437 -128L430 -143Q424 -156 422 -167Q426 -171 425 -182Q424 -191 426 -195Q428 -206 430 -218Q433 -224 433 -235Q433 -247 435 -251Q444 -273 446 -297Q447 -320 452 -340Q455 -352 457 -365Q459 -377 465 -387Q475 -422 496 -452Q499 -455 499 -464Q499 -473 504 -475ZM734 -465L749 -463Q758 -461 769 -461Q780 -461 788 -453Q806 -443 804 -422Q804 -409 801 -403Q795 -400 786 -381Q775 -367 766 -352Q757 -351 748 -333Q736 -325 743 -315Q747 -315 765 -303Q775 -295 795 -275Q803 -262 811 -249Q815 -243 820 -237Q825 -231 826 -223Q822 -220 821 -210Q820 -202 817 -199Q811 -190 798 -200Q783 -204 771 -215Q759 -227 747 -237Q731 -256 693 -276Q684 -277 674 -266Q667 -258 663 -257Q657 -255 654 -249Q650 -244 647 -239Q631 -237 627 -226Q622 -225 615 -217Q608 -210 603 -209Q584 -198 565 -187Q560 -183 556 -184Q555 -185 556 -187Q583 -218 612 -247Q643 -286 644 -288Q649 -298 639 -303Q613 -312 565 -332Q539 -341 537 -353Q539 -359 544 -358Q547 -358 552 -353Q555 -353 556 -354H563Q565 -355 567 -355Q598 -357 616 -351Q626 -352 637 -349Q652 -348 667 -341Q670 -337 674 -339Q678 -341 679 -346Q680 -357 687 -365Q694 -372 699 -381Q709 -402 716 -423Q718 -438 701 -440Q693 -440 688 -441Q687 -442 690 -445Q698 -451 734 -465Z"/>
</svg>