<svg xmlns="http://www.w3.org/2000/svg" viewBox="0 -800 1024 1024">
	<path fill="#000000" d="M583 -485Q586 -486 593 -486H600Q607 -486 610 -487Q621 -487 650 -476Q668 -469 688 -467Q707 -461 726 -456Q745 -452 781 -440Q798 -433 814 -427Q820 -427 829 -422Q838 -417 843 -417Q845 -416 852 -415Q861 -414 865 -409Q882 -406 898 -404Q913 -400 927 -394Q919 -385 927 -377Q925 -373 930 -366Q933 -361 933 -358Q930 -354 935 -349Q939 -345 938 -342Q938 -338 934 -339Q930 -342 927 -339Q908 -337 894 -340Q889 -337 877 -342Q868 -346 862 -344Q858 -347 850 -348Q841 -349 837 -354Q827 -355 807 -365Q793 -372 786 -374Q777 -378 767 -381Q766 -387 763 -387Q759 -387 755 -387Q751 -387 748 -391Q736 -396 723 -401Q708 -403 695 -415Q689 -412 685 -416Q682 -420 678 -424Q673 -417 655 -427Q635 -433 618 -444Q615 -445 611 -447L592 -452Q589 -453 583 -455L580 -456Q579 -456 578 -456Q561 -456 559 -457Q539 -453 533 -453Q528 -459 525 -455Q522 -450 518 -449Q514 -440 511 -432Q508 -423 499 -418Q487 -404 475 -391Q472 -391 470 -385Q469 -381 466 -380Q460 -380 459 -376Q457 -371 455 -367Q445 -360 439 -349Q434 -339 427 -333Q420 -326 414 -320Q405 -311 395 -303Q389 -304 385 -299Q381 -294 375 -290Q373 -293 372 -292Q371 -287 367 -283Q358 -285 350 -273Q337 -265 323 -262Q318 -262 314 -266Q324 -273 326 -284Q334 -283 340 -289Q346 -296 352 -300Q361 -305 364 -314Q368 -323 372 -330Q373 -334 380 -339Q387 -344 387 -349Q399 -370 417 -384Q418 -390 425 -395Q431 -399 437 -404Q439 -407 439 -409Q439 -410 441 -411Q440 -415 445 -416Q450 -417 450 -421Q451 -427 458 -437Q464 -445 465 -449Q466 -454 472 -456Q478 -458 479 -461Q480 -467 486 -475Q492 -484 493 -490Q503 -495 506 -511Q504 -517 510 -523Q516 -528 521 -533Q525 -542 530 -546Q545 -574 560 -603Q567 -619 570 -636Q581 -647 582 -662Q586 -671 581 -677Q576 -683 571 -690Q567 -694 572 -697Q577 -700 581 -702Q589 -704 596 -693Q599 -692 619 -689Q633 -687 640 -677Q643 -675 643 -668Q643 -663 644 -661Q648 -652 643 -645Q638 -638 637 -631Q634 -625 633 -619Q631 -612 625 -609Q623 -599 616 -593Q620 -584 607 -580Q604 -574 603 -568Q602 -561 597 -559Q591 -550 584 -542Q577 -522 563 -506Q560 -499 553 -493Q545 -486 548 -477Q566 -481 583 -485ZM329 -639L349 -615Q357 -597 350 -579Q345 -574 345 -562Q344 -553 338 -548Q331 -543 325 -537Q326 -533 322 -529Q317 -523 317 -518Q309 -511 306 -501Q294 -497 288 -488Q283 -479 277 -471Q275 -467 270 -461Q263 -454 262 -450L236 -421Q229 -417 227 -411Q228 -408 222 -403Q216 -398 220 -395L245 -385Q258 -376 271 -367Q282 -351 288 -333Q281 -320 289 -293Q284 -289 287 -280Q289 -271 286 -267Q288 -256 286 -247Q286 -233 286 -219Q283 -197 288 -173Q281 -167 284 -159Q286 -152 285 -146Q287 -121 282 -112Q283 -111 285 -89Q281 -83 281 -72Q280 -58 276 -54Q272 -53 267 -48Q263 -43 260 -43Q251 -48 242 -53Q233 -58 229 -70Q229 -74 225 -74Q221 -75 220 -78Q217 -84 212 -91Q207 -98 213 -103Q215 -108 211 -119Q207 -130 210 -136Q217 -139 216 -144Q215 -150 214 -155Q224 -188 226 -192Q223 -195 226 -201Q228 -205 226 -207Q224 -219 226 -230Q227 -240 228 -251Q229 -262 231 -286Q226 -302 232 -331Q229 -340 229 -350Q228 -360 219 -366Q179 -379 167 -403Q162 -406 161 -416Q160 -422 158 -425Q152 -442 172 -465Q175 -474 188 -489Q198 -500 201 -507Q209 -506 211 -511Q213 -515 215 -521Q221 -525 230 -537Q239 -549 248 -554Q256 -567 269 -574Q275 -585 285 -593Q295 -600 303 -609Q314 -615 329 -639ZM664 -350L665 -347Q666 -345 667 -344L668 -338Q669 -336 670 -335Q678 -336 680 -331Q695 -329 710 -322Q714 -318 722 -312Q730 -306 725 -302Q738 -287 725 -279Q720 -274 714 -275Q708 -277 703 -277Q699 -279 692 -272Q687 -268 683 -267Q676 -269 671 -263Q666 -258 661 -254Q656 -253 648 -245Q643 -240 639 -238Q637 -234 630 -235Q624 -236 622 -234Q612 -233 601 -227Q588 -222 575 -217Q567 -213 562 -216Q558 -219 563 -224Q560 -230 568 -234Q565 -237 569 -242Q574 -248 571 -252Q586 -246 599 -258Q604 -265 618 -278Q632 -291 637 -299Q642 -304 640 -310Q638 -316 639 -320Q643 -320 644 -322Q643 -328 639 -331Q643 -332 648 -333Q651 -333 650 -339Q660 -348 664 -350ZM558 -329L561 -325Q561 -319 571 -312Q577 -308 579 -304Q587 -297 576 -283Q577 -279 570 -278Q564 -277 565 -274Q569 -265 564 -257Q558 -249 555 -241Q550 -222 542 -205Q544 -202 539 -194Q536 -189 536 -185Q534 -179 529 -161Q529 -151 527 -141Q524 -132 531 -124Q534 -109 545 -98Q571 -82 599 -76Q667 -71 730 -77Q749 -77 767 -78Q777 -78 781 -86Q785 -94 787 -100Q790 -112 793 -117Q794 -116 794 -114Q798 -105 799 -95Q801 -84 811 -82Q814 -78 821 -78Q828 -78 829 -75Q829 -71 833 -75Q840 -81 841 -75Q836 -71 841 -61Q853 -61 863 -55Q876 -48 865 -45Q860 -42 861 -34Q862 -27 858 -27Q848 -26 837 -26Q809 -26 780 -26Q750 -26 720 -26Q693 -25 665 -25Q663 -28 659 -26Q655 -24 654 -25Q651 -24 647 -26Q644 -28 642 -26Q636 -25 617 -27Q614 -27 609 -30Q604 -33 600 -31Q532 -47 505 -93Q497 -107 490 -123Q485 -146 485 -167Q485 -186 491 -203Q498 -218 505 -234Q511 -239 515 -254Q520 -264 525 -274Q526 -279 533 -285Q538 -289 539 -291Q548 -300 545 -310Q551 -313 552 -320Q553 -327 558 -329Z"/>
</svg>