<svg xmlns="http://www.w3.org/2000/svg" viewBox="0 -800 1024 1024">
	<path fill="#000000" d="M570 -608H587Q598 -610 607 -605Q617 -600 627 -596Q631 -597 635 -590Q638 -585 640 -584Q645 -581 645 -577Q644 -573 644 -567Q647 -560 642 -558Q636 -555 630 -553Q625 -551 621 -543Q618 -536 614 -534Q580 -531 550 -523Q523 -521 495 -520Q464 -528 433 -537Q416 -544 371 -546Q365 -547 358 -549Q352 -552 351 -559Q361 -562 371 -566Q374 -565 376 -569Q378 -572 381 -571Q387 -566 395 -566Q412 -569 427 -575Q430 -580 442 -582Q451 -583 455 -586Q486 -591 516 -597Q543 -602 570 -608ZM802 -472H803Q811 -474 829 -465Q833 -460 838 -457Q843 -453 843 -447Q846 -439 846 -429Q847 -423 843 -421Q839 -419 835 -417Q831 -405 821 -405Q818 -397 803 -397Q794 -397 785 -398Q758 -395 730 -392Q717 -388 703 -388Q684 -382 673 -384Q666 -379 660 -384Q655 -379 649 -379Q640 -381 630 -383Q622 -371 613 -379Q597 -372 580 -372Q568 -373 558 -369Q532 -364 505 -359Q500 -357 501 -354Q507 -350 515 -346Q525 -345 528 -334Q530 -324 526 -315Q527 -310 524 -305Q521 -301 522 -299Q517 -290 501 -279Q489 -270 484 -265Q469 -259 457 -244Q429 -222 419 -209Q414 -196 401 -193Q400 -188 391 -178Q385 -171 383 -166Q385 -159 393 -158Q400 -157 407 -155Q432 -154 457 -159Q482 -163 507 -166Q542 -174 578 -175Q615 -177 651 -180Q667 -181 683 -185Q678 -204 672 -223Q667 -246 655 -269Q658 -273 663 -267Q667 -262 670 -262Q702 -257 741 -228Q775 -194 783 -173Q792 -154 797 -138Q799 -135 799 -127Q799 -119 802 -115Q807 -93 801 -72Q792 -66 784 -61Q775 -55 771 -45Q765 -48 755 -57Q744 -66 738 -69L721 -86Q714 -91 707 -97Q700 -104 691 -100Q639 -99 587 -99Q568 -99 524 -93Q494 -89 473 -88Q448 -86 424 -82Q417 -79 403 -81Q390 -83 384 -82Q376 -88 367 -89Q358 -91 350 -94Q347 -97 341 -94Q335 -92 333 -96Q327 -105 319 -111Q311 -117 313 -126Q305 -132 302 -143Q301 -146 300 -163Q302 -166 303 -175Q304 -183 307 -185Q323 -213 346 -239Q354 -243 366 -258Q375 -270 381 -274Q392 -288 403 -302Q410 -300 415 -308Q419 -314 422 -315Q426 -315 429 -320Q432 -325 435 -325Q438 -330 444 -334Q455 -342 456 -348Q444 -351 435 -346Q418 -343 400 -341Q396 -338 387 -338Q380 -338 376 -336Q368 -333 337 -328Q321 -324 305 -320Q288 -320 274 -312Q253 -308 232 -304Q213 -300 197 -300Q180 -293 148 -299Q139 -304 119 -302Q99 -300 91 -303Q70 -305 62 -329Q77 -324 84 -326Q108 -330 127 -335Q145 -347 166 -350Q224 -364 228 -365Q251 -367 272 -372Q288 -376 304 -380Q342 -387 364 -393Q385 -399 515 -425Q565 -435 579 -435Q583 -438 592 -435Q598 -433 602 -435Q604 -441 616 -441Q625 -441 627 -443Q636 -442 644 -446Q665 -447 681 -451L744 -465Q756 -467 764 -467Q783 -469 802 -472Z"/>
</svg>