<svg xmlns="http://www.w3.org/2000/svg" viewBox="0 -800 1024 1024">
	<path fill="#000000" d="M630 -682Q637 -682 643 -682Q648 -680 652 -681Q658 -680 666 -680Q673 -680 677 -674Q688 -671 693 -659Q697 -655 694 -652Q691 -648 687 -652Q680 -650 682 -645Q685 -640 693 -642Q699 -638 706 -632Q714 -627 709 -620Q695 -618 696 -609Q699 -604 695 -602Q688 -601 681 -599Q667 -601 653 -605Q639 -608 624 -605Q583 -613 567 -624Q561 -625 551 -635Q539 -647 529 -647Q523 -647 523 -651Q523 -656 523 -661Q532 -656 540 -660Q549 -665 557 -667Q559 -663 567 -666Q574 -669 576 -665Q580 -666 584 -670Q592 -677 595 -677Q613 -679 630 -682ZM313 -655Q327 -638 334 -611Q336 -593 333 -577Q337 -556 340 -535L305 -498Q303 -496 297 -488Q290 -478 283 -475Q279 -477 276 -470Q274 -466 271 -465Q265 -466 264 -463Q263 -459 261 -456Q261 -451 257 -449Q253 -446 249 -443Q244 -435 235 -431Q234 -427 228 -424Q222 -421 221 -418Q220 -411 216 -406Q211 -401 208 -397Q219 -386 237 -385Q248 -378 258 -372Q264 -371 268 -367Q273 -362 277 -359Q282 -357 280 -353Q279 -350 280 -347Q289 -333 295 -318Q297 -301 299 -284Q297 -281 297 -267Q297 -253 296 -239Q302 -229 297 -203Q296 -185 299 -170Q298 -166 299 -156Q300 -145 297 -139Q298 -124 295 -108Q301 -98 300 -88Q299 -72 297 -57Q299 -46 297 -32Q299 -18 283 -16Q281 -18 276 -20Q270 -22 268 -26Q262 -21 256 -27Q251 -33 246 -36Q239 -41 231 -55Q225 -67 219 -71Q211 -94 215 -108Q216 -135 221 -161Q228 -208 232 -256Q235 -264 235 -278Q235 -295 237 -300Q234 -312 232 -325Q231 -337 223 -347Q220 -356 212 -357Q204 -358 195 -360Q164 -358 149 -372Q137 -373 132 -383Q127 -393 123 -403Q120 -408 120 -419Q120 -428 117 -434Q113 -441 119 -446Q124 -451 126 -456Q130 -477 138 -488Q138 -492 143 -491Q149 -490 149 -493Q146 -496 147 -497Q152 -497 155 -501Q159 -513 165 -515Q171 -526 181 -536Q184 -542 189 -544Q194 -547 199 -551Q197 -558 206 -564Q214 -569 215 -574Q224 -576 235 -588Q245 -599 252 -601Q260 -612 273 -615Q276 -632 289 -636Q296 -640 299 -639Q308 -647 313 -655ZM764 -545Q774 -545 786 -542Q789 -538 793 -534Q797 -530 797 -523Q809 -517 808 -503Q807 -489 795 -485Q790 -486 782 -481Q777 -478 773 -478Q761 -470 752 -475Q749 -473 740 -472Q731 -471 727 -467Q718 -469 702 -464Q689 -460 683 -460Q680 -458 673 -457Q665 -456 663 -453Q669 -446 675 -439Q680 -428 688 -419Q695 -409 695 -397Q696 -387 696 -378Q696 -364 696 -351Q692 -331 702 -331Q713 -330 723 -329Q731 -327 738 -328Q756 -328 767 -315Q771 -318 774 -314Q777 -311 780 -307Q791 -304 789 -287Q791 -281 795 -274Q798 -267 795 -259Q804 -253 802 -241Q800 -228 790 -229Q783 -218 776 -208Q775 -202 769 -197Q762 -191 762 -187Q754 -177 745 -168Q739 -171 736 -164Q733 -158 730 -157Q721 -146 707 -136Q699 -123 687 -129Q684 -124 684 -120Q683 -119 680 -123Q674 -117 674 -108Q675 -100 674 -92Q670 -90 671 -88Q676 -81 685 -82Q702 -86 721 -85Q740 -89 754 -86Q761 -89 768 -86Q786 -87 806 -80Q808 -77 815 -74Q820 -72 821 -69Q826 -64 826 -57Q826 -48 819 -47Q817 -42 818 -37Q818 -33 812 -31Q799 -29 787 -32Q781 -31 774 -30Q744 -33 741 -33Q731 -33 720 -30Q708 -30 695 -30Q675 -28 657 -28Q638 -28 621 -22Q600 -18 578 -20Q568 -20 559 -29Q555 -34 545 -48Q541 -53 547 -60Q552 -67 552 -70Q554 -83 555 -96Q559 -102 566 -103Q573 -104 578 -105Q582 -108 580 -110Q575 -112 570 -117Q582 -119 593 -121Q604 -119 610 -127Q616 -135 614 -144Q619 -176 623 -209Q625 -232 629 -253Q630 -261 625 -261Q619 -261 614 -257Q594 -252 576 -243Q567 -238 557 -234Q539 -224 516 -218Q512 -217 510 -211Q509 -207 507 -206Q504 -201 504 -211Q504 -218 508 -222Q513 -227 516 -231Q536 -258 559 -268Q592 -290 626 -306Q635 -307 635 -317Q635 -325 635 -334Q638 -340 638 -349Q638 -361 641 -366Q640 -376 639 -387Q639 -403 633 -419Q631 -428 618 -432Q604 -436 601 -441Q589 -444 567 -434Q560 -434 549 -431Q531 -426 523 -429Q520 -430 515 -430L499 -433Q477 -436 460 -443Q456 -442 455 -446Q454 -450 456 -453Q461 -454 466 -455Q469 -456 491 -467Q510 -470 525 -480Q565 -489 604 -504Q630 -512 655 -520Q664 -524 673 -526Q683 -528 689 -536Q703 -540 718 -539Q722 -540 730 -540Q741 -540 745 -544Q749 -542 764 -545ZM705 -283Q700 -280 695 -278Q695 -258 687 -242Q688 -228 688 -214Q692 -213 697 -221Q700 -226 702 -227Q720 -251 733 -277Q730 -286 705 -283Z"/>
</svg>