<svg xmlns="http://www.w3.org/2000/svg" viewBox="0 -800 1024 1024">
	<path fill="#000000" d="M614 -720Q622 -719 631 -720Q640 -721 647 -716Q660 -703 660 -694Q658 -688 665 -679Q663 -661 665 -642Q665 -622 667 -601Q666 -579 664 -558Q660 -548 671 -545Q675 -545 700 -553Q705 -557 717 -557Q731 -558 736 -562Q755 -563 773 -564Q799 -564 802 -563Q830 -565 846 -554Q866 -551 882 -523Q886 -521 888 -515Q891 -507 896 -504Q902 -503 900 -495Q895 -490 901 -479Q904 -472 906 -465Q904 -460 905 -451Q906 -442 905 -438Q902 -426 902 -413Q896 -402 896 -389Q889 -385 889 -377Q889 -369 889 -361Q890 -357 886 -354Q881 -350 882 -346Q882 -342 879 -342Q874 -342 874 -337Q873 -336 873 -330Q873 -324 871 -324Q866 -323 867 -318Q867 -313 865 -309Q864 -307 860 -309Q858 -304 858 -291Q851 -278 844 -274Q844 -265 837 -257Q826 -233 826 -230Q821 -227 817 -219Q813 -211 809 -209Q801 -210 800 -205Q798 -200 796 -195Q790 -191 786 -180Q784 -175 780 -175Q775 -176 771 -174Q762 -169 760 -174Q750 -190 740 -202Q735 -205 731 -212Q726 -220 721 -222Q713 -226 695 -217Q682 -212 669 -207Q663 -199 659 -173Q657 -159 655 -145Q656 -135 662 -126Q661 -116 662 -107L657 -88Q655 -82 656 -77Q652 -65 654 -54Q657 -45 649 -34Q649 -22 651 -8Q650 -5 649 5Q648 17 644 23Q636 36 632 48Q631 50 629 54Q627 58 625 57Q617 37 616 16Q613 0 612 -14Q612 -36 612 -58Q610 -81 608 -105Q606 -112 609 -145Q608 -160 610 -173Q609 -176 609 -184Q610 -196 604 -198Q587 -198 572 -194Q546 -193 525 -197Q519 -203 504 -199Q497 -198 489 -208Q482 -217 476 -216Q471 -216 465 -215Q460 -215 459 -220Q467 -232 455 -242Q452 -246 444 -248Q438 -250 435 -253Q425 -269 415 -285Q407 -296 398 -330Q397 -340 396 -351Q393 -365 397 -377Q400 -391 403 -405Q406 -413 405 -422Q405 -430 412 -436Q414 -439 417 -451Q420 -463 426 -469Q439 -498 485 -532Q493 -533 496 -526Q500 -519 503 -512Q511 -503 504 -491Q510 -485 502 -473Q499 -466 490 -457Q478 -445 476 -439Q476 -424 471 -415Q469 -402 469 -388Q466 -377 464 -353Q465 -336 465 -320Q463 -317 466 -310Q469 -304 468 -301Q466 -295 475 -289Q484 -282 484 -276Q483 -271 490 -269Q496 -267 496 -263Q495 -259 502 -252Q506 -251 506 -243Q506 -238 507 -236Q508 -235 510 -227Q512 -220 517 -221Q526 -223 534 -226Q567 -231 599 -240Q606 -244 606 -252Q605 -261 607 -267Q606 -280 605 -294Q603 -317 606 -337Q607 -341 604 -345Q601 -349 598 -348Q589 -348 580 -348Q561 -345 547 -363Q542 -366 544 -369Q546 -372 551 -371Q556 -369 569 -373Q573 -376 591 -383Q604 -385 608 -398Q604 -432 605 -442Q605 -451 605 -460Q605 -475 597 -474Q588 -468 565 -476Q545 -477 527 -482Q523 -482 518 -483Q514 -483 515 -488Q540 -505 574 -516Q583 -520 594 -522Q605 -525 609 -535Q608 -571 611 -604Q615 -621 615 -638Q613 -652 613 -666Q614 -681 605 -691Q593 -699 582 -710Q583 -715 590 -715Q596 -714 601 -715Q603 -718 614 -720ZM300 -626Q301 -616 310 -596Q319 -577 319 -563Q312 -542 308 -526Q293 -513 278 -496Q268 -483 255 -474Q251 -471 246 -466Q242 -461 235 -460Q228 -446 222 -439Q216 -434 220 -430Q224 -426 229 -425Q240 -427 245 -418Q251 -409 254 -401Q260 -369 259 -354Q261 -351 259 -343Q257 -336 259 -333Q257 -312 255 -292L253 -233Q253 -208 253 -183V-152Q251 -144 251 -117Q250 -111 251 -102Q253 -88 250 -82Q250 -76 246 -71Q242 -65 237 -70Q231 -70 224 -70Q195 -82 189 -110Q191 -122 191 -151Q191 -184 195 -202Q199 -225 203 -248Q201 -257 204 -271Q207 -289 209 -308Q212 -313 212 -327Q209 -352 217 -380Q222 -401 215 -410Q217 -416 211 -418Q205 -420 202 -415Q194 -411 190 -404Q186 -398 180 -390Q175 -386 172 -381Q169 -376 162 -375Q158 -373 156 -375Q155 -378 154 -382Q153 -390 147 -390Q134 -394 129 -419Q125 -425 132 -443Q134 -445 135 -451Q136 -459 138 -460Q140 -466 149 -473Q160 -481 162 -487Q173 -493 178 -504Q191 -521 207 -538Q218 -547 228 -558Q239 -569 251 -575Q255 -583 269 -597Q278 -604 300 -626ZM758 -510Q748 -512 742 -509Q725 -504 709 -504L700 -502Q698 -501 696 -501L677 -495Q667 -495 667 -486Q666 -477 664 -470Q658 -457 663 -447Q660 -434 660 -405Q660 -401 662 -401Q667 -401 672 -402Q674 -400 679 -399Q686 -398 688 -394Q693 -373 680 -367Q677 -365 670 -364Q663 -363 660 -360Q654 -347 655 -333Q655 -320 657 -314Q656 -309 661 -288Q660 -277 670 -270Q669 -261 679 -259Q692 -262 705 -265Q713 -262 734 -262Q743 -257 754 -263Q768 -261 771 -268Q777 -273 783 -288Q788 -300 794 -306Q798 -327 811 -344Q814 -366 823 -384Q828 -413 836 -439Q839 -456 837 -472Q838 -496 819 -503Q803 -512 787 -511Q761 -511 758 -510Z"/>
</svg>