<svg xmlns="http://www.w3.org/2000/svg" viewBox="0 -800 1024 1024">
	<path fill="#000000" d="M594 -712H598Q614 -709 630 -707Q648 -700 641 -678Q650 -670 640 -659Q641 -654 638 -648Q634 -640 635 -637Q633 -627 631 -618Q633 -614 627 -608Q623 -604 624 -601Q621 -589 617 -578Q615 -573 611 -567Q608 -561 616 -559Q661 -573 701 -581Q711 -582 723 -582L739 -583Q760 -583 782 -581Q785 -580 788 -578Q790 -576 790 -571Q795 -567 792 -562Q789 -557 787 -552Q782 -549 782 -545Q782 -540 782 -536Q780 -531 775 -532Q771 -532 767 -531Q757 -532 749 -531Q721 -523 689 -523Q680 -517 669 -518Q640 -512 610 -506Q597 -497 580 -498Q577 -495 576 -488Q575 -482 573 -480Q573 -477 567 -474Q563 -472 563 -469Q554 -460 553 -446Q544 -444 544 -432Q532 -418 531 -413Q522 -405 519 -392L503 -374Q494 -361 484 -349Q477 -351 474 -346Q470 -341 467 -337Q462 -334 456 -331Q448 -323 442 -330Q457 -353 472 -377Q483 -407 497 -435Q508 -454 511 -468Q513 -472 517 -477Q520 -482 514 -484Q509 -486 501 -481Q494 -476 490 -476Q478 -475 466 -472Q449 -470 438 -465Q434 -467 424 -462Q419 -462 412 -459Q406 -457 400 -460Q385 -464 369 -469Q365 -472 354 -474Q339 -477 336 -485Q339 -490 349 -490Q363 -492 376 -495Q392 -497 406 -503Q408 -504 428 -511Q452 -520 476 -526Q486 -527 496 -528Q511 -529 541 -537Q553 -557 561 -579Q578 -622 585 -672Q583 -680 570 -681Q560 -682 557 -685Q554 -685 551 -686Q546 -688 548 -691Q561 -704 594 -712ZM301 -654Q315 -654 312 -626Q314 -617 304 -594Q302 -576 288 -571Q284 -572 283 -567Q282 -562 280 -562Q263 -539 260 -536Q258 -529 248 -519Q238 -508 236 -501Q226 -497 221 -487Q215 -478 208 -471Q197 -449 182 -431Q183 -426 192 -424Q198 -423 201 -419Q206 -418 220 -410Q229 -402 237 -395Q246 -388 249 -376Q253 -364 253 -351Q250 -345 253 -321Q249 -302 252 -291Q249 -287 251 -278Q252 -272 251 -269Q245 -245 247 -222Q250 -216 249 -206Q248 -194 249 -189Q251 -185 250 -177Q249 -165 251 -161Q248 -147 254 -137Q253 -119 253 -82Q254 -71 251 -61Q251 -40 242 -21Q242 -16 239 -16Q235 -16 231 -15Q223 -19 211 -31Q210 -35 203 -33Q197 -31 196 -35Q189 -42 183 -63Q186 -80 186 -112Q186 -151 190 -167Q194 -192 192 -248Q193 -264 191 -294Q190 -321 191 -347Q191 -374 184 -398Q183 -402 181 -402Q176 -403 173 -403Q165 -399 160 -409Q161 -415 154 -419Q149 -422 148 -424Q138 -426 137 -432Q128 -445 127 -457Q125 -472 136 -480Q145 -500 160 -519Q201 -571 225 -590Q242 -605 259 -621Q269 -630 282 -636Q292 -645 301 -654ZM674 -436Q680 -434 688 -442Q701 -447 714 -453Q729 -460 764 -460Q767 -459 769 -459L780 -457Q797 -455 804 -447Q808 -440 825 -421Q828 -413 832 -405Q835 -396 832 -387Q834 -386 836 -386Q838 -386 837 -382Q840 -371 842 -355Q840 -327 844 -308Q846 -304 844 -294Q842 -287 844 -282Q840 -269 842 -247Q839 -236 840 -223Q839 -210 837 -198Q838 -194 836 -187Q834 -179 837 -175Q834 -171 834 -149Q830 -115 831 -98Q831 -83 831 -69Q829 -62 830 -55Q826 -44 826 -32Q822 -22 818 -11Q814 0 805 6Q801 11 798 8Q794 3 790 3Q779 -4 773 -18Q765 -22 765 -35Q765 -41 765 -47Q760 -46 760 -48Q760 -50 758 -53Q753 -52 752 -54Q750 -57 755 -59Q763 -57 767 -66Q769 -71 769 -82Q770 -85 775 -146Q777 -179 781 -213Q783 -246 785 -279Q790 -313 784 -371Q779 -407 763 -423Q753 -426 744 -424L728 -415Q722 -416 716 -408Q709 -400 704 -402Q696 -405 682 -405Q678 -411 664 -415Q653 -404 647 -388Q641 -382 644 -364Q648 -360 644 -352Q641 -345 642 -340Q637 -332 640 -322L669 -330Q673 -326 681 -329Q688 -332 692 -330Q701 -330 705 -331Q710 -330 715 -329Q720 -328 721 -321Q715 -315 720 -304Q716 -303 712 -293Q706 -290 699 -290Q689 -291 678 -293Q663 -290 642 -294Q636 -298 633 -294Q631 -289 629 -285Q634 -277 626 -262Q627 -258 624 -250Q621 -242 625 -238Q641 -240 656 -243Q674 -242 694 -245Q700 -243 710 -243Q724 -243 728 -239Q727 -229 724 -225Q725 -216 719 -210Q714 -205 708 -207Q702 -206 695 -206Q680 -208 664 -211Q653 -214 641 -217Q634 -220 627 -221Q623 -222 623 -216Q617 -209 615 -186Q613 -166 612 -165Q610 -155 610 -144Q607 -127 608 -114Q606 -104 606 -97Q607 -76 608 -55Q605 -51 607 -44Q609 -37 608 -34Q604 -35 599 -30Q594 -26 590 -27Q585 -34 572 -44Q557 -55 553 -62Q537 -78 551 -89Q554 -117 560 -146Q566 -181 571 -219Q575 -239 579 -259Q586 -295 594 -321Q594 -327 599 -355Q601 -367 604 -377Q613 -402 618 -407Q622 -408 625 -414Q628 -419 629 -419Q633 -420 638 -427Q642 -433 646 -433Q654 -438 661 -437Z"/>
</svg>