<svg xmlns="http://www.w3.org/2000/svg" viewBox="0 -800 1024 1024">
	<path fill="#000000" d="M601 -589Q641 -581 659 -563Q677 -551 694 -540Q716 -531 747 -509Q775 -489 785 -484Q788 -484 792 -480Q795 -476 797 -478Q824 -460 843 -453Q860 -450 872 -445Q890 -435 907 -426Q913 -423 917 -420Q921 -411 917 -402Q912 -398 913 -394Q914 -390 919 -389Q920 -385 925 -384Q931 -383 932 -380Q932 -370 929 -367Q927 -369 925 -366Q924 -361 927 -358Q929 -358 929 -357Q930 -356 929 -355Q926 -351 922 -354Q910 -354 900 -357Q896 -362 889 -359Q881 -360 873 -361Q868 -360 865 -363Q862 -366 859 -367Q843 -371 837 -379Q828 -381 806 -399Q785 -411 780 -415Q769 -423 766 -423Q752 -430 740 -444Q722 -451 711 -465Q669 -496 629 -528Q626 -529 620 -537Q613 -545 609 -546Q589 -563 567 -559Q562 -558 558 -551Q555 -545 553 -544Q553 -539 550 -536Q547 -534 546 -531Q541 -527 536 -514Q532 -503 527 -499Q521 -495 516 -486L501 -467Q495 -464 493 -457Q487 -453 482 -443Q477 -431 471 -429Q468 -432 466 -429Q465 -423 464 -418Q455 -405 446 -401Q445 -405 441 -398Q445 -391 436 -385Q431 -379 427 -371Q422 -363 415 -361Q411 -351 389 -337Q387 -330 382 -326Q377 -322 373 -318Q373 -316 372 -316Q370 -317 368 -317Q363 -304 354 -299Q352 -294 343 -290Q333 -286 331 -281Q327 -274 322 -280Q316 -276 309 -272Q306 -270 304 -274Q302 -277 301 -280Q314 -285 320 -303Q327 -318 338 -326Q349 -341 359 -356Q361 -359 365 -361Q370 -364 371 -367L386 -389Q395 -401 403 -414Q428 -447 431 -454Q440 -459 444 -469Q444 -472 445 -472Q447 -471 450 -473Q446 -480 454 -490Q460 -498 461 -503Q466 -510 471 -518L490 -546Q494 -551 500 -561Q514 -585 529 -609L547 -641Q550 -646 543 -650Q537 -653 537 -655Q544 -666 551 -678Q555 -676 566 -683Q569 -682 567 -677Q569 -671 580 -667Q589 -667 599 -658Q604 -654 614 -641Q615 -630 601 -618Q594 -605 586 -592Q590 -589 601 -589ZM240 -643Q272 -643 299 -625Q319 -609 315 -586Q308 -566 301 -548Q293 -529 277 -515Q273 -494 258 -479Q242 -464 229 -449Q220 -444 223 -440Q233 -433 245 -433Q262 -426 265 -410Q269 -394 273 -381Q272 -368 274 -343Q277 -310 273 -295Q273 -250 273 -206Q275 -185 270 -140Q272 -135 271 -126Q270 -114 273 -108Q271 -95 270 -82Q269 -69 256 -60Q255 -51 253 -51Q251 -51 245 -60Q231 -58 225 -69Q219 -79 214 -91Q207 -98 202 -118Q195 -132 202 -150Q206 -169 210 -213Q215 -261 221 -289Q222 -319 225 -351Q228 -382 221 -413Q218 -422 211 -422Q200 -422 185 -402Q177 -394 168 -378Q157 -357 147 -349Q145 -339 127 -337Q113 -336 110 -331Q99 -341 97 -363Q92 -373 99 -385Q108 -401 109 -405Q116 -408 124 -421Q132 -433 137 -436Q154 -463 170 -491Q219 -545 238 -586Q248 -604 250 -610Q254 -625 238 -628Q230 -629 232 -636Q234 -643 240 -643ZM667 -380L670 -378Q684 -372 687 -367Q691 -369 703 -364Q705 -362 710 -361Q716 -360 717 -356Q717 -352 721 -347Q725 -342 725 -338Q731 -333 729 -322Q729 -312 725 -301Q724 -294 718 -278Q713 -270 708 -263Q697 -257 697 -243Q697 -239 692 -236Q687 -233 687 -230Q673 -213 669 -211Q663 -209 660 -204Q657 -199 652 -193Q648 -193 643 -187Q637 -180 634 -182Q626 -180 619 -180Q607 -166 599 -167Q589 -181 578 -192Q577 -200 582 -203Q588 -206 591 -210Q594 -216 586 -219Q580 -221 580 -223Q582 -225 595 -220Q608 -223 621 -226Q627 -231 632 -234Q638 -238 640 -245Q645 -251 659 -274Q664 -284 670 -295Q670 -298 675 -306Q680 -314 679 -318Q681 -329 671 -329Q666 -328 661 -327Q652 -324 643 -322Q631 -318 628 -318Q616 -316 606 -312Q593 -310 585 -304Q581 -305 581 -303Q581 -299 578 -296Q579 -292 576 -287Q573 -281 573 -278Q571 -276 571 -270Q571 -264 568 -262Q567 -254 562 -249Q557 -244 554 -238Q549 -229 548 -219Q546 -215 545 -212L541 -200Q540 -197 538 -193Q531 -172 526 -149Q516 -126 522 -108Q524 -93 537 -85Q545 -77 556 -74Q567 -71 578 -66Q610 -61 644 -61Q662 -61 681 -59L710 -61Q714 -58 721 -60Q728 -62 731 -61Q735 -60 739 -63Q744 -66 747 -66Q752 -66 757 -66Q766 -65 772 -76Q773 -78 779 -96Q779 -99 782 -102Q787 -108 787 -113Q790 -113 789 -108Q789 -102 791 -100Q795 -104 794 -116Q796 -105 798 -94Q799 -87 801 -78Q803 -70 811 -67Q815 -60 827 -60Q829 -51 831 -42Q839 -35 846 -29Q853 -30 847 -21Q843 -22 840 -19Q837 -16 839 -12Q839 -9 837 -9Q834 -10 832 -10Q826 -7 820 -7Q804 -9 788 -11Q784 -8 777 -9Q770 -10 767 -9Q751 -9 735 -10Q723 -7 712 -9Q698 -9 683 -9Q676 -9 669 -9Q650 -10 630 -11L606 -12Q588 -15 570 -19Q555 -27 540 -35Q526 -42 515 -56Q509 -64 502 -73Q489 -87 484 -112Q480 -119 482 -133Q483 -144 482 -149Q485 -182 499 -210Q505 -228 514 -243Q521 -265 526 -269Q526 -277 530 -283Q531 -286 526 -287Q512 -288 498 -290Q497 -293 492 -295Q486 -298 486 -300Q488 -302 486 -306Q484 -310 486 -312Q514 -334 531 -340Q533 -344 538 -343Q543 -342 545 -348Q557 -353 583 -359Q607 -366 631 -374Q635 -372 648 -377Q659 -377 667 -380Z"/>
</svg>