<svg xmlns="http://www.w3.org/2000/svg" viewBox="0 -800 1024 1024">
	<path fill="#000000" d="M575 -774Q579 -775 585 -772Q593 -777 601 -772Q608 -768 617 -766Q623 -762 629 -758Q634 -748 634 -730Q632 -726 634 -715Q636 -707 634 -702Q632 -694 632 -686Q632 -674 632 -663Q631 -653 630 -643Q624 -638 628 -634Q631 -630 633 -627Q631 -621 633 -619Q634 -618 639 -618Q641 -622 647 -620Q651 -619 652 -621Q656 -624 665 -625Q672 -625 675 -628Q683 -626 692 -628Q694 -629 698 -627Q703 -624 707 -626Q712 -635 732 -628Q735 -631 740 -631Q747 -631 748 -627Q767 -632 772 -623Q776 -625 781 -620Q786 -615 790 -616Q791 -609 801 -605Q807 -606 809 -603Q810 -601 808 -596Q816 -586 824 -577Q826 -575 825 -574Q820 -570 824 -567Q830 -567 830 -563Q830 -557 824 -554Q834 -543 831 -530Q826 -527 827 -522Q829 -517 829 -512Q831 -505 826 -502Q826 -496 828 -490Q821 -481 819 -476Q821 -471 814 -466Q809 -463 810 -459Q805 -451 799 -444Q798 -442 791 -420Q788 -418 785 -410Q781 -400 776 -397Q772 -386 762 -376Q763 -372 758 -368Q753 -363 752 -361Q749 -359 747 -351Q745 -342 742 -340Q738 -341 735 -335Q732 -330 730 -330Q726 -328 721 -327Q707 -321 705 -320Q701 -323 694 -342Q695 -345 693 -350Q691 -354 689 -353Q689 -346 682 -341Q666 -337 659 -338Q653 -338 646 -338Q643 -339 638 -337Q634 -335 632 -337Q606 -336 587 -331Q585 -329 580 -332Q576 -334 574 -333Q556 -330 538 -327Q535 -325 528 -326Q520 -327 517 -323Q497 -328 492 -331Q489 -332 482 -337Q473 -344 470 -342Q452 -349 437 -354Q432 -354 430 -359Q428 -363 427 -363Q389 -388 384 -419Q379 -436 383 -454Q392 -471 400 -513Q407 -537 415 -550Q418 -558 430 -572Q440 -584 443 -590Q443 -594 445 -594Q450 -592 457 -590Q463 -592 468 -586Q477 -565 479 -561Q488 -560 495 -565Q502 -569 510 -573Q516 -572 525 -578Q534 -584 539 -584Q555 -595 570 -598Q580 -603 588 -606L585 -684Q586 -706 587 -728Q586 -737 585 -745Q584 -753 575 -756Q573 -759 567 -760Q559 -762 558 -765Q561 -772 575 -774ZM289 -627Q301 -627 298 -603Q300 -596 292 -574Q290 -559 279 -553Q276 -554 275 -550Q274 -545 272 -545Q266 -538 256 -523Q254 -517 247 -508Q239 -498 237 -491Q228 -487 224 -479Q219 -471 214 -464Q211 -457 192 -429Q193 -425 200 -423Q205 -422 208 -418Q212 -418 223 -410Q230 -403 237 -397Q244 -391 247 -381Q249 -369 250 -358Q248 -352 250 -330Q246 -315 249 -305Q246 -301 248 -293Q249 -288 248 -285Q244 -263 245 -243Q247 -231 247 -214Q248 -212 247 -203Q246 -193 248 -188Q246 -177 251 -167Q250 -152 250 -118Q251 -115 249 -109Q247 -105 248 -100Q248 -82 241 -64Q241 -59 238 -59Q235 -59 232 -58Q222 -64 216 -73Q215 -77 210 -75Q204 -73 203 -77Q200 -80 193 -102Q195 -114 195 -145Q195 -178 199 -194Q201 -209 201 -266Q201 -294 200 -308Q199 -331 200 -355Q200 -378 194 -399Q193 -403 190 -404Q187 -404 185 -404Q177 -400 174 -409Q174 -415 170 -417Q166 -420 164 -423Q157 -425 156 -430Q137 -458 155 -472Q162 -490 174 -507Q206 -551 227 -571Q241 -584 255 -598Q263 -606 274 -611Q282 -619 289 -627ZM713 -588Q702 -587 693 -587Q683 -582 673 -584Q656 -581 637 -574Q631 -569 626 -553Q627 -540 628 -527Q624 -524 627 -518Q630 -513 627 -510Q625 -485 621 -464Q620 -461 627 -459Q643 -457 643 -453Q644 -449 630 -438Q619 -428 616 -422Q613 -412 610 -403Q609 -395 608 -387Q609 -380 608 -374Q608 -372 613 -372Q616 -369 621 -373Q625 -376 628 -374Q639 -372 652 -374Q664 -372 672 -365Q676 -369 692 -373Q713 -377 730 -403Q739 -423 749 -442Q759 -461 765 -481Q767 -484 778 -518Q785 -555 765 -581Q759 -584 752 -587L730 -590Q722 -589 713 -588ZM575 -556Q564 -546 552 -544Q548 -541 543 -538Q536 -538 529 -539Q514 -538 498 -538Q488 -538 476 -537Q470 -537 468 -532Q466 -527 461 -521Q451 -510 449 -493Q448 -484 442 -476Q441 -467 440 -458Q438 -448 436 -439Q436 -424 436 -410Q441 -390 451 -382Q455 -384 455 -400Q458 -393 461 -387Q464 -377 472 -369Q473 -365 480 -361Q488 -357 487 -352Q498 -350 522 -357Q545 -360 562 -366Q569 -398 570 -424Q570 -430 567 -430Q564 -431 561 -431Q556 -428 541 -432Q535 -431 516 -436Q510 -440 504 -443Q503 -445 507 -446Q510 -444 521 -444Q524 -448 532 -450Q538 -452 540 -454Q558 -457 573 -464Q578 -464 578 -469Q578 -474 580 -478Q583 -514 587 -548Q589 -555 584 -557Q580 -559 575 -556ZM795 -321L810 -319Q823 -319 836 -319Q841 -315 844 -309Q847 -302 841 -299Q842 -293 838 -291Q835 -290 834 -287Q826 -281 820 -281Q818 -280 815 -283Q812 -286 810 -284Q810 -282 809 -282Q807 -282 804 -281Q792 -280 784 -276Q772 -274 762 -274Q760 -272 755 -272Q750 -273 747 -270Q745 -276 740 -274Q738 -268 734 -268Q730 -269 725 -268Q723 -267 708 -267Q684 -262 659 -257Q647 -256 636 -253Q631 -254 626 -250Q624 -248 629 -245Q634 -242 634 -231Q635 -221 635 -212Q634 -203 626 -199Q627 -191 633 -192Q640 -193 646 -194Q650 -198 665 -198Q674 -198 678 -201Q705 -196 709 -194Q715 -188 720 -185Q729 -189 732 -179Q747 -164 747 -154Q747 -144 751 -138Q755 -132 752 -128Q749 -123 749 -109Q751 -101 747 -94Q750 -85 746 -74Q743 -71 742 -64Q741 -55 738 -53Q734 -51 733 -43Q732 -36 730 -34Q722 -35 720 -27Q717 -26 716 -17Q716 -11 714 -8Q713 -5 708 -4Q702 -3 702 0Q705 7 697 11Q691 14 692 19Q681 27 671 35Q665 46 658 56Q654 55 653 58Q651 61 649 62Q648 63 646 60Q637 54 635 44Q632 44 629 37Q622 28 612 20Q605 13 602 9Q599 10 595 6Q591 1 588 4Q584 5 583 2Q582 -2 581 -3Q598 -3 614 -4Q621 -5 627 -3Q638 -5 649 -7Q665 -27 677 -47Q689 -67 689 -69Q703 -97 709 -126Q714 -156 696 -161Q689 -164 667 -159Q652 -155 636 -152Q626 -150 616 -152Q606 -154 596 -155Q591 -149 584 -147Q577 -135 569 -135Q557 -143 550 -154Q549 -172 555 -185Q558 -195 572 -213Q583 -226 587 -236Q591 -240 587 -244Q583 -249 578 -245Q529 -242 476 -236Q460 -234 444 -232Q406 -234 398 -240Q384 -245 369 -252Q368 -253 368 -254Q373 -254 378 -255Q388 -256 398 -257Q403 -258 429 -258Q438 -261 446 -261Q471 -270 495 -273Q508 -275 520 -277Q529 -272 536 -279Q541 -274 543 -279Q544 -279 591 -282Q600 -288 612 -290Q620 -290 634 -294L649 -297Q663 -301 671 -301Q676 -301 681 -301Q684 -300 688 -303Q692 -305 694 -302Q697 -305 705 -305Q711 -305 713 -306Q719 -308 727 -308Q741 -313 755 -314Q770 -321 790 -320Q791 -316 793 -317Q795 -317 795 -321Z"/>
</svg>