<svg xmlns="http://www.w3.org/2000/svg" viewBox="0 -800 1024 1024">
	<path fill="#000000" d="M427 -724Q446 -722 464 -721Q482 -722 496 -717Q513 -714 529 -711Q538 -706 551 -706Q554 -702 564 -698Q571 -695 575 -691Q575 -681 586 -679Q594 -677 603 -681Q617 -680 631 -683Q652 -685 671 -676Q681 -662 683 -643Q672 -634 661 -626Q643 -623 628 -617Q600 -609 595 -609Q585 -611 577 -607Q568 -603 560 -602Q550 -601 539 -601Q538 -600 523 -595Q511 -594 503 -585Q496 -577 488 -570Q478 -566 471 -544Q467 -530 461 -524Q460 -520 458 -516Q455 -512 459 -509Q496 -522 533 -536Q544 -540 555 -542Q574 -547 592 -552Q604 -558 621 -556Q633 -555 644 -556Q653 -555 661 -553Q669 -551 673 -543Q675 -531 680 -530Q690 -520 680 -502Q681 -498 675 -493Q669 -488 669 -484Q647 -474 640 -462Q639 -467 635 -469Q631 -471 628 -464Q628 -461 624 -461Q620 -461 619 -459Q615 -458 612 -453Q610 -449 608 -448Q606 -446 602 -446Q599 -446 598 -442Q598 -439 597 -438Q594 -441 589 -436Q587 -428 572 -422Q566 -416 571 -413Q576 -411 582 -414Q586 -418 594 -416Q601 -414 604 -417Q618 -422 626 -421Q647 -421 667 -422Q673 -419 681 -421Q686 -420 693 -419Q700 -419 702 -414Q698 -407 706 -401Q714 -395 711 -390Q711 -383 705 -380Q699 -377 693 -374Q691 -368 686 -368Q680 -367 675 -366Q664 -362 641 -361Q616 -360 604 -355Q586 -350 577 -351Q562 -346 558 -342Q539 -337 520 -333Q517 -329 509 -329Q500 -329 497 -326Q492 -325 419 -314Q409 -315 400 -311Q395 -307 395 -298Q394 -290 392 -283Q393 -272 394 -262Q393 -258 395 -248Q397 -239 394 -234Q397 -219 395 -199Q397 -192 394 -186Q391 -181 389 -174Q390 -161 380 -143Q376 -132 374 -120Q373 -109 365 -100Q366 -93 362 -84Q358 -76 358 -73Q348 -55 338 -48Q334 -37 330 -27Q329 -14 321 -5Q311 3 303 25Q296 36 289 47Q281 58 274 71Q265 77 255 88Q252 90 250 96Q248 102 243 99Q237 98 231 87Q224 74 215 77Q196 65 194 40Q192 34 196 31Q200 28 203 24Q208 6 217 -10Q229 -21 235 -35Q241 -49 249 -62Q257 -77 265 -92Q275 -111 291 -153Q296 -160 299 -177Q302 -196 309 -203Q313 -206 313 -213Q313 -222 316 -225Q314 -230 318 -241Q321 -249 321 -254Q322 -257 322 -262L325 -278Q326 -282 326 -286Q325 -298 323 -310Q327 -317 313 -328Q304 -331 294 -333Q290 -341 295 -344Q300 -347 308 -345Q311 -348 321 -348Q330 -348 333 -352Q343 -349 355 -361Q363 -358 371 -362Q383 -359 397 -366Q425 -368 450 -376Q458 -381 476 -398Q487 -409 497 -416Q499 -420 504 -419Q508 -418 510 -420Q511 -424 518 -425Q523 -426 525 -427Q521 -438 531 -440Q542 -456 552 -472Q552 -476 559 -482Q567 -488 566 -494Q561 -499 556 -496Q551 -494 546 -493Q541 -493 533 -488Q526 -483 519 -484Q512 -475 495 -472Q493 -472 489 -469Q483 -465 480 -467Q466 -460 451 -456Q448 -452 438 -450Q428 -448 424 -443Q421 -441 418 -432Q415 -425 411 -422Q406 -418 400 -418Q387 -418 379 -432Q377 -435 371 -439Q362 -445 359 -452Q348 -465 346 -489Q351 -505 362 -520Q373 -534 383 -548Q388 -546 389 -552Q390 -560 394 -562Q396 -568 402 -572Q406 -577 400 -580Q380 -584 362 -594Q347 -595 332 -596Q321 -599 330 -602Q350 -606 369 -610Q371 -616 377 -616Q382 -616 387 -617Q435 -627 480 -646Q479 -651 467 -656Q459 -659 456 -664Q451 -663 445 -668Q440 -672 437 -672Q421 -678 406 -690Q392 -701 377 -711Q372 -714 375 -717Q379 -720 385 -721Q393 -720 404 -723Q409 -722 416 -720Q422 -719 427 -724Z"/>
</svg>