<svg xmlns="http://www.w3.org/2000/svg" viewBox="0 -800 1024 1024">
	<path fill="#000000" d="M482 -682H484Q492 -671 510 -676Q522 -676 537 -661Q537 -645 532 -627Q526 -621 524 -613Q523 -604 522 -596Q518 -589 516 -581Q516 -577 524 -578Q551 -588 578 -598Q581 -601 590 -603Q600 -605 604 -609Q611 -611 619 -623Q624 -630 628 -633Q633 -638 639 -633Q644 -629 647 -631Q653 -635 681 -637Q693 -644 710 -629Q717 -630 719 -620Q721 -612 725 -610Q729 -606 724 -602Q719 -598 722 -595Q724 -586 708 -583Q697 -582 686 -581Q678 -575 677 -566Q675 -557 673 -548Q671 -533 668 -519Q674 -506 673 -490Q671 -464 675 -452Q676 -432 673 -412Q674 -394 675 -376Q676 -359 671 -345Q673 -337 675 -329Q691 -330 708 -337Q734 -343 760 -350Q768 -351 788 -367Q800 -362 819 -364Q825 -369 841 -370Q853 -371 858 -373Q872 -379 882 -368Q906 -362 902 -340Q895 -339 896 -332Q897 -325 895 -320Q886 -317 877 -315Q872 -312 861 -312Q851 -312 847 -309Q831 -307 815 -305Q798 -299 779 -297Q774 -290 768 -293Q762 -296 757 -297Q742 -302 729 -304Q709 -308 693 -309Q688 -303 676 -301Q670 -303 668 -298Q666 -294 663 -289Q661 -268 663 -225Q664 -222 661 -216Q658 -209 663 -206Q663 -193 662 -180Q663 -169 663 -158Q667 -150 676 -152Q685 -154 692 -154Q728 -165 750 -168Q770 -175 790 -177Q814 -185 825 -185Q840 -189 851 -188Q893 -195 907 -180Q911 -181 912 -177Q913 -172 916 -172Q923 -168 919 -158Q915 -149 918 -145Q924 -141 920 -137Q914 -134 907 -129Q899 -129 890 -129L856 -128Q848 -128 839 -128Q815 -124 790 -121Q772 -121 754 -121Q746 -119 732 -122Q718 -125 712 -124Q698 -128 683 -135Q679 -136 674 -140Q669 -145 665 -145Q661 -125 663 -106Q663 -96 662 -86Q662 -78 660 -70Q658 -62 662 -53Q659 -42 659 -29Q656 -21 660 -7Q663 5 662 11Q658 32 654 53Q648 54 637 65Q634 63 630 66Q626 69 624 67Q623 66 613 60Q606 56 605 50Q599 43 593 24Q589 11 585 5Q572 -3 579 -19Q583 -23 580 -33Q578 -41 580 -45Q584 -57 587 -69Q591 -77 590 -92Q589 -106 591 -111Q593 -127 594 -144Q594 -166 594 -189Q599 -196 597 -204Q596 -212 597 -221Q600 -229 598 -242Q603 -272 604 -300Q604 -313 604 -327Q606 -362 611 -392Q611 -411 613 -428Q614 -447 614 -466Q614 -493 615 -505Q614 -526 613 -548Q597 -546 584 -538Q571 -530 558 -523Q554 -522 543 -515Q532 -508 524 -508Q510 -501 491 -512Q488 -518 472 -518Q457 -523 454 -537Q453 -547 449 -558Q444 -569 448 -581Q460 -607 472 -633Q483 -660 478 -669Q474 -673 474 -676Q475 -681 482 -682ZM291 -636L314 -627Q329 -622 345 -619Q361 -616 367 -601Q380 -579 366 -559Q352 -540 340 -521Q295 -478 255 -430Q274 -416 278 -398Q287 -383 288 -364Q289 -345 291 -325Q289 -317 289 -305Q289 -284 285 -277Q288 -250 282 -199Q277 -150 278 -126Q274 -117 277 -100Q280 -83 277 -75Q279 -61 268 -50Q263 -45 247 -36Q228 -45 222 -64Q217 -83 208 -98Q213 -121 216 -162Q218 -202 221 -216Q222 -260 229 -306Q235 -351 228 -395Q219 -400 205 -388Q195 -380 190 -379Q175 -356 155 -339Q134 -322 114 -302Q104 -291 90 -279Q77 -267 62 -272Q91 -301 112 -336Q132 -371 156 -403Q180 -440 230 -503Q278 -564 296 -590Q304 -599 298 -612Q291 -629 291 -636Z"/>
</svg>