<svg xmlns="http://www.w3.org/2000/svg" viewBox="0 -800 1024 1024">
	<path fill="#000000" d="M546 -739Q549 -740 554 -735Q558 -731 560 -731Q568 -725 578 -734Q588 -743 596 -738Q604 -738 609 -732Q615 -726 622 -722Q636 -714 633 -698Q634 -678 634 -658Q637 -648 637 -632Q637 -613 639 -607Q637 -602 639 -592Q641 -581 640 -575Q638 -564 646 -549Q662 -555 672 -552Q666 -539 675 -530Q682 -521 692 -518Q699 -519 705 -515Q709 -511 703 -507Q695 -508 694 -502Q692 -495 690 -489Q688 -493 685 -491Q681 -488 677 -485Q672 -483 671 -490Q670 -492 667 -490Q660 -480 647 -480Q639 -481 639 -475Q638 -468 638 -463Q642 -433 639 -422Q636 -410 640 -399Q645 -386 656 -385Q673 -386 685 -379Q692 -383 699 -380Q706 -377 713 -376Q716 -369 723 -371Q730 -373 736 -373Q759 -377 770 -372Q781 -349 789 -344Q796 -345 799 -337Q801 -329 793 -328Q786 -329 786 -325Q787 -317 790 -312Q786 -307 780 -309Q775 -310 770 -310Q764 -304 751 -308Q740 -312 735 -309Q721 -303 706 -300Q678 -299 648 -289Q641 -288 641 -281Q641 -274 638 -269Q641 -215 640 -208Q643 -203 640 -195Q638 -189 639 -184Q642 -177 638 -167Q635 -159 635 -153Q648 -142 643 -128Q646 -109 642 -91Q645 -86 643 -73Q641 -64 642 -59Q646 -50 640 -31Q639 -13 638 5Q640 13 636 24Q632 37 634 43Q633 49 629 57Q622 70 624 78Q620 81 616 89Q611 99 607 102Q593 114 583 99Q572 99 564 89Q555 60 555 44Q545 30 554 15Q552 9 556 -1Q559 -10 558 -15Q560 -66 563 -79Q564 -91 564 -101Q569 -112 562 -123Q563 -127 563 -154Q564 -163 567 -231Q561 -249 566 -269Q565 -277 557 -275Q550 -274 543 -273Q516 -273 490 -267Q466 -259 442 -252Q436 -232 430 -212Q425 -208 424 -197Q423 -187 420 -184Q421 -168 413 -154Q416 -141 412 -132Q400 -123 392 -101Q386 -98 382 -88Q378 -80 375 -78Q371 -72 366 -72Q355 -76 343 -80Q317 -102 308 -124Q326 -149 327 -171Q336 -191 340 -213Q341 -217 342 -224Q342 -231 337 -230Q318 -227 300 -222Q281 -216 260 -220Q239 -220 222 -247Q216 -248 214 -257Q213 -262 210 -264Q207 -260 205 -262Q203 -269 205 -274Q204 -279 209 -286Q214 -294 214 -299Q206 -316 227 -326Q230 -332 234 -332Q244 -328 252 -328Q262 -323 272 -328Q278 -333 284 -341Q289 -349 298 -351Q316 -367 336 -380Q353 -393 371 -402Q376 -416 375 -427Q375 -438 365 -439Q355 -441 346 -443Q336 -444 320 -454Q305 -463 299 -465Q295 -465 295 -467Q296 -472 299 -477Q322 -489 346 -492Q354 -496 365 -498Q378 -501 375 -513Q377 -519 375 -536Q374 -547 375 -553Q373 -569 376 -587Q378 -605 367 -616Q358 -619 354 -632Q356 -640 363 -637Q369 -634 374 -636Q378 -634 391 -636Q404 -638 410 -635Q417 -639 423 -629Q431 -632 433 -624Q435 -616 437 -610Q439 -599 442 -587Q444 -575 440 -564Q442 -558 440 -542Q438 -527 442 -520Q450 -518 468 -522Q484 -526 493 -524Q511 -530 529 -536Q541 -540 552 -543Q564 -547 572 -557Q575 -572 571 -610Q571 -627 571 -645Q567 -658 565 -673Q563 -688 550 -696Q541 -702 541 -710Q541 -718 537 -726Q540 -734 546 -739ZM556 -463Q540 -462 525 -457Q521 -449 506 -447Q492 -445 487 -439Q471 -427 458 -426Q450 -428 447 -423Q444 -418 445 -411Q441 -381 442 -352Q436 -343 441 -332Q440 -325 445 -322Q450 -319 457 -322Q557 -340 570 -344Q572 -363 568 -377Q569 -406 572 -430Q569 -440 571 -448Q574 -456 568 -461Q562 -466 556 -463ZM364 -366Q340 -350 329 -340Q313 -327 297 -315Q294 -313 278 -297Q268 -290 285 -288Q319 -294 352 -301Q359 -300 364 -307Q369 -313 369 -321Q366 -327 368 -337Q370 -345 369 -349Q371 -354 370 -362Q369 -368 364 -366Z"/>
</svg>