<svg xmlns="http://www.w3.org/2000/svg" viewBox="0 -800 1024 1024">
	<path fill="#000000" d="M615 -676Q621 -673 623 -664Q625 -657 627 -654Q633 -660 640 -651Q661 -643 666 -636Q679 -639 672 -614Q674 -606 664 -597Q655 -588 654 -580Q648 -579 647 -574Q646 -568 643 -564Q639 -562 635 -554Q631 -547 628 -544Q624 -542 625 -540Q626 -538 631 -537Q659 -536 687 -527Q718 -513 748 -499Q752 -498 796 -477Q799 -474 809 -472Q821 -469 825 -463Q835 -461 849 -453Q864 -451 870 -440Q885 -440 898 -433Q946 -409 952 -409Q960 -400 969 -395Q960 -383 979 -357Q975 -352 982 -347Q987 -344 984 -340Q980 -336 973 -336Q963 -338 953 -340Q947 -339 939 -344Q930 -349 926 -347Q917 -347 905 -357Q886 -359 865 -372Q860 -373 853 -380Q847 -386 844 -387Q839 -389 835 -393Q830 -397 825 -395Q812 -403 798 -411Q767 -432 736 -450Q710 -463 687 -479Q672 -492 655 -496Q643 -502 631 -508Q620 -511 609 -514Q603 -514 600 -508Q596 -507 591 -500Q586 -494 581 -492Q575 -480 566 -473Q557 -465 548 -459Q543 -450 531 -439Q519 -428 515 -422Q501 -401 485 -386Q484 -382 476 -379Q467 -375 465 -369Q458 -371 453 -360Q450 -352 447 -350Q442 -352 439 -345Q437 -340 434 -339Q427 -329 412 -323Q408 -310 394 -310Q390 -299 383 -292Q379 -293 377 -290Q375 -287 373 -287Q369 -280 350 -274Q343 -275 339 -272Q335 -276 332 -272Q329 -269 326 -267Q319 -266 313 -263Q307 -261 302 -265Q307 -273 308 -281Q303 -288 310 -291Q316 -294 321 -298Q327 -300 337 -309Q346 -317 350 -318Q352 -321 358 -321Q364 -321 364 -324Q372 -335 380 -346Q387 -348 393 -357Q395 -360 403 -375Q406 -378 410 -386L416 -398L438 -422Q445 -425 450 -436Q456 -448 462 -450L489 -485Q489 -490 494 -496Q499 -502 499 -506Q511 -512 524 -528Q526 -535 531 -536Q536 -537 541 -538Q545 -539 545 -545Q545 -551 546 -553Q557 -555 554 -566Q571 -585 579 -598Q581 -605 590 -613Q598 -620 599 -622Q603 -625 602 -632Q601 -639 603 -641Q605 -654 608 -662Q605 -671 615 -676ZM302 -655Q306 -655 307 -652Q309 -650 312 -647Q315 -642 319 -637Q323 -632 323 -625Q322 -609 330 -594Q327 -579 318 -565Q315 -558 308 -552Q305 -550 305 -541Q304 -537 298 -534Q291 -531 290 -528Q279 -517 270 -506Q263 -504 256 -495Q246 -481 245 -480Q242 -475 238 -471L222 -456Q219 -451 215 -447Q211 -442 206 -436Q201 -430 206 -424Q217 -418 227 -412Q250 -401 248 -366Q250 -363 248 -357Q246 -350 247 -347Q248 -335 246 -321Q249 -304 243 -287Q245 -281 245 -267Q244 -250 248 -243Q248 -232 243 -219Q243 -211 242 -207V-182Q241 -178 241 -170Q233 -163 242 -150Q246 -137 243 -118Q244 -114 241 -103Q238 -92 240 -86Q241 -77 230 -75Q220 -70 209 -77Q201 -83 195 -93Q184 -104 180 -116Q178 -129 175 -142Q172 -154 181 -164Q183 -175 183 -185Q181 -226 192 -316Q194 -325 195 -334Q196 -363 194 -390Q193 -391 187 -403Q183 -410 177 -407Q171 -397 164 -388Q148 -375 142 -373Q135 -378 133 -385Q131 -393 128 -399Q120 -411 123 -428Q134 -451 150 -471Q170 -498 192 -523Q203 -538 215 -552Q215 -560 222 -560Q228 -560 230 -565Q233 -570 236 -574Q241 -576 244 -585Q246 -593 250 -594Q257 -593 260 -598Q264 -604 267 -608Q274 -612 279 -624Q283 -633 286 -636Q290 -638 294 -645Q298 -653 302 -655ZM676 -427L682 -426Q690 -421 699 -421H707Q712 -421 715 -420Q721 -421 724 -416Q726 -412 729 -409Q733 -400 741 -390Q739 -374 741 -357Q744 -353 743 -345Q742 -335 745 -332Q741 -318 743 -305Q754 -285 748 -273Q753 -253 753 -245Q749 -238 753 -225Q758 -201 755 -177Q757 -173 754 -166Q751 -160 754 -157Q752 -150 754 -134Q756 -116 751 -107Q757 -92 754 -77Q744 -67 754 -59Q752 -56 753 -46Q754 -35 751 -30Q753 -18 746 1Q739 19 740 29Q740 38 729 40Q731 36 728 35Q725 34 724 39Q719 42 720 51Q721 59 717 60Q708 56 701 47Q694 38 687 30Q687 26 686 25Q684 24 682 25Q677 27 674 22Q666 17 668 2Q675 -6 682 -15Q680 -19 684 -26Q686 -30 685 -32Q689 -49 692 -74L696 -206Q695 -228 698 -245Q697 -265 696 -285Q694 -296 697 -311Q696 -328 695 -346Q697 -368 690 -382Q679 -381 671 -374Q662 -367 654 -360Q653 -359 651 -358L645 -354Q636 -348 632 -340Q624 -339 619 -333Q615 -327 609 -322Q602 -317 596 -304Q591 -293 587 -290Q583 -288 582 -281Q581 -276 579 -274Q564 -228 542 -182Q540 -164 535 -147Q533 -141 533 -132Q534 -124 528 -120Q527 -124 523 -124Q519 -124 519 -120Q517 -116 515 -117Q511 -122 507 -125Q504 -122 500 -124Q496 -126 496 -131L479 -148Q473 -149 472 -154Q471 -160 469 -163Q470 -187 470 -212Q475 -218 478 -235Q480 -245 483 -252Q488 -257 493 -274Q501 -275 504 -282Q507 -288 510 -293Q511 -302 518 -316Q525 -330 526 -337Q529 -340 527 -345Q526 -349 527 -352Q530 -354 533 -361Q537 -370 541 -372Q543 -378 549 -378Q555 -378 555 -369Q566 -361 565 -350Q563 -338 561 -328Q555 -321 551 -298Q550 -290 549 -282Q550 -279 551 -278Q556 -281 561 -291Q571 -311 581 -332Q592 -347 604 -362Q616 -378 631 -389Q635 -400 654 -408Q661 -409 666 -415Q670 -421 676 -427Z"/>
</svg>