<svg xmlns="http://www.w3.org/2000/svg" viewBox="0 -800 1024 1024">
	<path fill="#000000" d="M488 -623L497 -621Q500 -613 514 -612Q524 -611 529 -608Q540 -604 545 -594Q549 -584 555 -574Q558 -570 556 -562Q555 -557 556 -553Q562 -529 545 -509Q523 -487 498 -466Q485 -447 468 -432Q464 -428 444 -400Q442 -392 434 -379Q425 -366 424 -359Q415 -342 406 -325Q399 -303 389 -281Q384 -270 383 -266Q384 -260 379 -252Q374 -245 374 -243Q374 -232 373 -221Q373 -211 367 -193Q373 -165 387 -153Q421 -128 471 -118Q499 -112 565 -108Q595 -106 625 -108Q659 -108 692 -108Q709 -109 748 -113Q763 -113 776 -121Q779 -145 770 -170Q768 -176 773 -177Q780 -178 784 -171Q786 -163 798 -155Q804 -152 810 -142Q817 -130 824 -128Q832 -121 851 -116Q873 -110 881 -101Q889 -91 884 -74Q871 -64 858 -55L842 -50Q826 -42 806 -42Q784 -39 762 -37Q740 -35 717 -34Q697 -34 677 -35Q662 -34 647 -34Q620 -35 593 -37Q583 -40 553 -40Q546 -42 529 -43Q511 -44 502 -47Q398 -57 337 -118Q330 -129 322 -137Q322 -141 307 -163Q303 -190 299 -197Q295 -228 299 -260Q298 -277 305 -295Q310 -308 315 -321Q316 -330 325 -347Q332 -361 334 -370Q340 -384 348 -399Q351 -409 364 -429Q375 -447 379 -457Q388 -470 396 -483Q401 -492 406 -502Q413 -508 421 -519Q430 -532 434 -535Q432 -541 425 -540Q420 -539 415 -535Q383 -529 353 -519Q318 -507 283 -495Q265 -490 246 -486Q236 -482 225 -484Q214 -487 202 -488Q191 -489 182 -497Q175 -497 154 -510Q147 -511 149 -516Q150 -520 155 -523Q170 -521 183 -527Q197 -533 210 -535Q223 -541 257 -552Q278 -559 299 -567Q324 -575 348 -583Q373 -592 397 -599Q422 -605 447 -611Q458 -613 469 -614Q480 -615 488 -623Z"/>
</svg>