<svg xmlns="http://www.w3.org/2000/svg" viewBox="0 -800 1024 1024">
	<path fill="#000000" d="M597 -689Q606 -689 612 -686Q624 -681 635 -677Q641 -679 646 -672Q652 -664 663 -661Q661 -655 665 -652Q668 -648 669 -644Q663 -641 663 -635Q662 -629 661 -624Q662 -618 657 -615Q653 -613 649 -610Q644 -605 633 -598Q617 -589 612 -579Q608 -578 603 -572Q597 -566 593 -565L576 -548Q573 -550 570 -545Q568 -541 566 -541Q562 -542 560 -538Q558 -535 555 -536Q547 -529 532 -514Q523 -504 516 -498Q510 -494 500 -482Q488 -468 478 -464Q472 -457 486 -452Q496 -446 507 -440Q518 -435 522 -422Q530 -413 532 -402Q531 -398 534 -393Q538 -385 537 -380Q544 -366 539 -353Q540 -335 541 -317Q544 -295 539 -274Q538 -266 546 -267Q553 -267 559 -267Q564 -269 576 -268Q589 -267 594 -271Q615 -270 635 -270Q647 -269 659 -269L708 -263Q717 -269 724 -280Q731 -290 738 -298Q744 -304 747 -311Q749 -319 752 -325Q762 -344 771 -363Q776 -377 781 -392Q786 -407 783 -425Q783 -429 778 -431Q777 -431 769 -433Q742 -428 733 -426Q725 -427 714 -421Q703 -415 698 -415Q689 -412 680 -410Q657 -413 634 -422Q628 -425 622 -428Q616 -431 616 -436Q630 -436 636 -437Q645 -436 653 -446Q656 -445 657 -447Q658 -450 661 -451Q684 -460 706 -469Q714 -469 718 -473Q737 -479 755 -481Q795 -479 812 -469Q825 -463 835 -455Q845 -449 846 -438Q848 -427 851 -416Q849 -413 850 -403Q851 -392 847 -388Q842 -373 838 -360L824 -337Q822 -332 819 -325Q816 -319 809 -325Q805 -318 801 -311Q797 -298 791 -293Q792 -288 784 -285Q777 -282 776 -279Q771 -279 769 -271Q767 -263 764 -263Q761 -269 758 -267Q755 -264 756 -257Q768 -253 794 -249Q814 -242 820 -236Q845 -229 864 -214Q871 -209 878 -203Q886 -197 885 -189Q878 -193 875 -186Q879 -173 871 -168Q870 -162 863 -162Q856 -163 851 -161Q848 -157 846 -159Q843 -162 844 -166Q838 -176 828 -181Q818 -186 809 -192Q808 -195 795 -195Q770 -204 741 -207Q729 -210 717 -213Q711 -213 707 -209Q699 -204 693 -198Q687 -193 678 -191Q662 -177 632 -163Q626 -168 613 -165Q603 -163 599 -164Q600 -173 606 -180Q619 -178 628 -186Q645 -197 658 -210Q661 -212 666 -216Q671 -220 668 -225Q647 -230 626 -235Q603 -242 579 -249Q572 -250 550 -257Q543 -261 540 -254Q538 -249 539 -243Q539 -239 535 -217Q541 -176 525 -158Q530 -152 527 -145Q524 -139 522 -132Q520 -128 516 -116Q511 -100 505 -93Q506 -89 501 -85Q497 -81 497 -77Q489 -71 483 -63Q473 -55 477 -48Q494 -49 510 -51Q520 -48 540 -52Q546 -54 566 -54Q585 -57 589 -54Q598 -59 605 -54Q615 -56 637 -54Q668 -46 673 -44Q680 -40 687 -37Q693 -37 695 -33Q697 -29 699 -25Q703 -26 704 -24Q705 -21 703 -19Q698 -18 699 -10Q700 -3 697 -2Q693 -3 690 2Q688 6 684 5Q683 2 679 4Q673 7 670 5Q649 -2 623 -4Q619 -5 614 -8Q609 -11 606 -6Q589 -9 572 -6Q562 -5 551 -5Q526 -5 501 -5Q488 -3 474 -3Q457 -2 440 -2Q403 -2 399 -3Q386 0 372 -2Q363 -4 357 -6Q345 -10 332 -14L305 -21Q309 -20 312 -23Q314 -25 310 -28Q317 -31 329 -31Q345 -32 351 -35Q358 -39 388 -41Q398 -41 408 -42Q422 -43 435 -44Q438 -46 445 -45Q452 -44 454 -48Q447 -60 440 -73Q433 -75 428 -90Q421 -95 418 -104Q418 -107 414 -109Q409 -112 410 -115Q414 -116 418 -118Q422 -120 421 -125Q430 -122 439 -120Q446 -116 454 -121Q462 -127 462 -136Q470 -151 475 -171Q480 -186 487 -235Q491 -260 494 -286Q495 -333 494 -348Q491 -384 478 -406Q472 -416 461 -416Q450 -416 441 -417Q437 -420 432 -417Q428 -415 426 -416Q419 -426 415 -437Q411 -439 399 -459Q404 -466 405 -474Q416 -472 421 -483Q435 -494 449 -506Q449 -510 456 -515Q461 -519 462 -523Q475 -536 483 -548Q494 -559 504 -571Q505 -575 512 -579Q520 -584 521 -589Q527 -591 530 -596Q533 -601 537 -606Q540 -611 546 -617Q550 -622 554 -627Q555 -631 551 -632Q539 -631 526 -631Q522 -628 510 -627Q500 -626 496 -624Q493 -627 489 -624Q486 -621 483 -623L445 -614Q436 -615 424 -610Q413 -605 409 -605Q399 -602 388 -600Q378 -599 369 -593Q360 -592 356 -589Q348 -589 338 -597Q329 -604 325 -606Q318 -610 310 -618Q303 -626 294 -623Q289 -625 290 -627Q293 -630 298 -631Q307 -640 316 -634Q324 -635 334 -633Q360 -639 388 -647Q396 -650 404 -651Q415 -654 426 -657Q442 -660 458 -663Q470 -666 481 -670Q489 -670 497 -671Q498 -674 501 -673Q503 -671 506 -672Q517 -678 525 -678Q533 -680 558 -685Q578 -687 597 -689ZM160 -414L162 -413Q164 -411 171 -409Q179 -407 181 -402Q195 -401 206 -385Q207 -381 209 -380Q216 -382 223 -389Q251 -408 280 -412Q283 -409 288 -412Q292 -414 296 -413Q298 -415 301 -413Q303 -411 305 -414Q312 -414 319 -414Q319 -410 322 -409Q325 -407 328 -412Q330 -407 331 -402Q333 -399 337 -403Q341 -403 345 -396Q350 -388 356 -388Q355 -384 358 -380Q361 -376 361 -374Q359 -358 357 -351Q356 -347 350 -343Q345 -340 343 -336Q334 -321 325 -307Q323 -302 331 -299Q337 -297 338 -294Q344 -292 349 -291Q350 -277 353 -265Q346 -260 338 -255Q314 -253 289 -252Q279 -251 271 -254Q256 -253 228 -257Q219 -258 209 -258Q205 -258 205 -250Q203 -239 199 -227Q196 -227 195 -215Q195 -211 191 -214Q189 -216 188 -216Q186 -214 185 -211Q183 -209 181 -212Q173 -218 164 -228Q158 -235 151 -244Q152 -251 152 -258Q150 -267 154 -284Q156 -294 159 -304Q159 -324 169 -356Q167 -367 167 -377Q168 -387 161 -396Q161 -399 156 -401Q152 -403 155 -407Q153 -412 160 -414ZM289 -367L282 -365Q256 -358 232 -354Q228 -350 224 -353Q219 -356 216 -355Q210 -352 212 -346Q215 -341 214 -335Q211 -324 209 -305Q212 -301 208 -292Q204 -281 209 -277Q216 -277 228 -283Q233 -286 250 -289Q267 -292 275 -298Q287 -322 294 -346Q297 -354 296 -364Q295 -369 289 -367Z"/>
</svg>