<svg xmlns="http://www.w3.org/2000/svg" viewBox="0 -800 1024 1024">
	<path fill="#000000" d="M707 -678Q714 -679 723 -674Q729 -676 736 -667Q732 -660 736 -651Q740 -644 733 -638Q727 -633 719 -631Q712 -627 704 -631Q692 -627 686 -627Q671 -624 667 -624Q691 -616 698 -613Q720 -604 727 -592Q731 -588 731 -577Q731 -568 733 -564Q735 -559 731 -550Q727 -541 728 -536Q732 -529 730 -522Q728 -514 728 -506Q723 -490 727 -483Q721 -464 724 -451Q725 -447 722 -438Q718 -428 721 -423Q720 -404 718 -385Q718 -363 718 -341Q722 -337 720 -325Q719 -316 721 -311Q721 -307 722 -305V-290Q723 -288 723 -284Q723 -262 723 -241Q730 -241 737 -242Q750 -246 774 -253Q789 -257 803 -266Q810 -268 809 -274Q808 -281 809 -285Q814 -285 827 -276Q835 -264 860 -271Q875 -270 892 -266Q898 -260 908 -263Q914 -260 920 -257Q926 -254 925 -245Q929 -240 920 -234Q912 -229 912 -224Q901 -221 892 -217Q861 -216 832 -212Q814 -208 795 -205Q765 -198 735 -192Q728 -194 723 -188Q719 -183 721 -176Q719 -157 720 -138Q715 -131 717 -123Q719 -115 720 -107Q717 -102 719 -85Q721 -78 719 -67Q716 -54 718 -49Q715 -34 718 -29Q718 -10 718 9Q710 29 710 40Q708 43 708 53Q708 64 704 69Q695 73 693 92Q688 105 676 114Q667 121 656 110Q655 107 649 100Q643 93 643 87Q650 67 654 62Q661 40 659 32Q661 16 662 -1Q665 -17 663 -32Q663 -52 663 -73Q664 -79 662 -88Q658 -101 662 -107Q664 -126 663 -146Q662 -154 663 -164Q664 -173 655 -175Q628 -169 601 -163Q579 -158 557 -154Q537 -152 519 -145Q501 -143 493 -140Q489 -136 480 -138Q473 -140 469 -137Q466 -137 451 -140Q435 -142 421 -148L400 -160Q403 -164 408 -164Q413 -164 418 -165Q439 -167 459 -177Q463 -177 469 -180Q478 -184 484 -183Q495 -188 512 -193Q522 -195 532 -199Q515 -208 498 -217Q465 -231 458 -252Q447 -261 452 -271Q450 -278 455 -289Q460 -299 458 -305Q460 -317 465 -328Q474 -371 483 -415Q486 -421 487 -437Q488 -455 494 -462Q505 -519 511 -535Q516 -554 520 -574Q522 -581 519 -587Q515 -594 508 -592Q494 -588 480 -591Q465 -593 441 -599Q451 -609 466 -611L481 -617Q484 -617 488 -619Q506 -629 550 -644Q565 -649 579 -654Q602 -657 624 -666Q642 -670 662 -673Q673 -676 684 -672Q695 -676 707 -678ZM280 -651Q286 -651 288 -643Q295 -632 295 -616Q297 -602 295 -586Q293 -578 290 -569Q288 -560 279 -555Q269 -555 260 -538Q257 -529 249 -523Q240 -517 233 -509Q229 -499 209 -479Q200 -471 220 -462Q232 -444 233 -441Q239 -426 242 -409Q244 -405 241 -398Q237 -390 240 -385Q243 -371 241 -367Q239 -354 237 -342Q239 -333 238 -316Q237 -298 238 -291Q235 -281 239 -272Q240 -270 239 -264Q238 -257 240 -253Q238 -228 241 -204Q239 -189 241 -171Q239 -164 243 -151Q246 -140 246 -134Q244 -130 246 -123Q249 -114 245 -110Q240 -107 232 -110Q225 -113 222 -112Q216 -110 213 -118Q210 -125 207 -126Q199 -125 195 -133Q195 -139 187 -147Q182 -152 181 -155Q174 -168 177 -172Q179 -184 179 -196Q181 -234 181 -252Q185 -302 189 -353Q190 -359 190 -366L193 -392Q194 -398 194 -405Q194 -421 194 -438Q194 -446 184 -449Q175 -445 164 -433Q153 -421 148 -418Q143 -416 141 -420Q138 -424 137 -427Q136 -432 131 -439Q125 -447 126 -452Q121 -464 127 -475Q134 -485 140 -495Q148 -505 156 -513Q163 -516 168 -522Q173 -528 178 -534Q180 -539 188 -546Q195 -551 196 -555Q192 -565 200 -566Q214 -564 218 -577Q230 -599 236 -603Q245 -605 250 -621Q259 -632 260 -639Q268 -646 280 -651ZM635 -618Q621 -616 619 -614Q591 -606 552 -592Q552 -590 552 -588L551 -579Q551 -577 551 -575Q551 -564 551 -554Q552 -546 553 -538Q552 -529 554 -520Q558 -492 556 -462Q557 -462 558 -463L564 -465Q565 -465 566 -466Q581 -471 595 -477Q599 -477 621 -479Q624 -479 626 -480H635Q637 -481 640 -481Q654 -484 663 -473Q663 -488 663 -504Q664 -538 664 -573Q668 -589 656 -603Q652 -608 647 -614Q642 -620 635 -618ZM660 -459L652 -448Q645 -436 634 -428Q626 -425 618 -425Q607 -423 595 -421Q583 -422 570 -424Q564 -430 558 -431Q550 -432 548 -424Q542 -416 540 -401Q540 -391 540 -381Q540 -378 539 -375L537 -362Q536 -359 536 -356Q550 -351 564 -347Q579 -346 594 -345Q606 -343 618 -341Q622 -337 628 -333Q634 -329 634 -321Q628 -318 630 -304Q627 -298 621 -296Q615 -294 610 -291Q604 -280 591 -288Q584 -287 576 -298Q574 -301 565 -309Q556 -317 554 -322Q538 -343 535 -345Q532 -327 530 -321Q527 -308 527 -294Q522 -280 529 -260Q528 -239 540 -222Q543 -218 548 -202Q567 -205 586 -208Q591 -215 605 -213Q654 -226 663 -227Q663 -244 661 -250L660 -275Q660 -280 659 -286Q660 -297 660 -309Q659 -323 660 -338Q658 -355 660 -370Q661 -408 662 -446Q662 -448 662 -451Q662 -459 660 -459Z"/>
</svg>