<svg xmlns="http://www.w3.org/2000/svg" viewBox="0 -800 1024 1024">
	<path fill="#000000" d="M275 -648Q279 -647 287 -634Q305 -620 316 -615Q322 -612 329 -610Q335 -607 338 -600Q338 -591 346 -583Q347 -568 343 -554Q331 -550 328 -537Q322 -531 303 -505Q301 -498 289 -486Q270 -465 253 -442Q240 -430 224 -409Q223 -405 217 -401Q208 -394 209 -388Q212 -383 220 -378Q229 -373 231 -370Q243 -361 257 -353Q271 -348 273 -330Q276 -311 278 -292Q277 -280 277 -261Q278 -229 274 -215Q274 -198 273 -181Q274 -178 273 -170Q272 -162 275 -156Q274 -135 273 -115Q276 -110 274 -98Q274 -86 273 -74Q277 -69 272 -65Q268 -60 264 -56Q265 -46 257 -30Q252 -23 246 -27Q239 -31 234 -34Q222 -44 215 -61Q208 -71 207 -81Q200 -105 202 -114Q200 -120 204 -130Q207 -137 207 -141Q206 -151 207 -159Q214 -198 218 -237Q221 -265 223 -293Q223 -326 215 -342Q205 -353 201 -356Q192 -363 185 -358Q174 -346 162 -335Q156 -328 148 -326Q138 -316 126 -308Q113 -303 101 -297Q97 -295 95 -297Q93 -299 98 -302Q106 -309 117 -330Q120 -345 128 -360Q123 -369 136 -376Q142 -389 164 -424Q181 -455 201 -484Q223 -515 245 -547Q254 -553 263 -564Q270 -567 276 -579Q281 -589 284 -592Q288 -605 270 -617Q268 -622 273 -626Q278 -630 277 -633Q269 -642 275 -648ZM558 -630Q574 -628 589 -627Q597 -631 608 -615Q607 -610 614 -605Q619 -601 620 -598Q621 -588 628 -579Q626 -566 630 -552Q633 -533 632 -530L633 -480Q623 -465 631 -456Q632 -449 630 -421Q624 -416 627 -404Q622 -388 635 -387Q661 -392 686 -397Q701 -397 707 -403Q718 -411 735 -411Q741 -409 754 -413Q768 -418 775 -413Q787 -415 795 -407Q804 -408 812 -410Q819 -410 823 -406Q836 -404 835 -392Q833 -387 837 -384Q841 -381 846 -384Q853 -387 854 -382Q855 -376 852 -371Q853 -365 844 -360Q838 -357 836 -353Q825 -346 814 -346Q787 -344 759 -343Q744 -339 724 -339Q718 -338 701 -337Q681 -336 671 -332Q655 -332 641 -328Q630 -331 619 -325Q608 -318 610 -306Q608 -298 606 -290Q605 -284 601 -278Q597 -272 600 -266L617 -257Q645 -239 682 -206Q696 -196 709 -186Q729 -173 752 -161Q816 -125 850 -108Q882 -93 912 -69Q914 -66 920 -66Q927 -66 929 -62Q927 -45 937 -42Q942 -38 938 -33Q935 -29 932 -25Q932 -12 926 -9Q922 -9 913 -6Q904 -2 899 -4Q891 -11 882 -4Q868 -10 857 -17Q839 -24 808 -45Q785 -61 775 -66Q730 -94 687 -124Q644 -152 604 -182Q595 -187 587 -193Q580 -199 570 -199Q563 -194 556 -179Q549 -163 540 -158Q526 -138 506 -120Q503 -116 496 -112Q487 -106 484 -101Q477 -96 472 -89Q468 -82 459 -83Q435 -71 430 -69Q415 -70 404 -61Q401 -62 401 -64Q401 -65 403 -67Q414 -78 427 -88Q451 -116 472 -145Q473 -147 474 -149L478 -155Q479 -157 480 -159Q501 -191 512 -222Q522 -252 527 -266Q528 -282 531 -296Q525 -306 517 -300Q505 -302 492 -293Q479 -286 462 -286Q456 -288 437 -290Q423 -291 414 -295Q406 -301 397 -302Q387 -304 379 -307Q374 -307 371 -310Q369 -313 374 -315Q386 -317 397 -319Q400 -322 408 -322Q416 -322 419 -324Q423 -324 430 -327Q439 -331 444 -330L495 -346Q514 -353 554 -363Q562 -366 563 -374Q563 -383 563 -390Q562 -407 565 -425Q566 -432 566 -439V-492Q560 -500 564 -514Q567 -527 563 -538Q560 -563 552 -585Q543 -603 509 -601Q503 -600 498 -603Q495 -606 499 -610Q517 -619 538 -625Q547 -630 558 -630ZM680 -559Q718 -557 739 -557Q759 -557 779 -552Q794 -551 809 -545Q818 -542 826 -539Q832 -538 835 -529Q838 -521 843 -518Q850 -512 861 -491Q861 -476 866 -462Q865 -456 859 -456Q853 -457 849 -457Q844 -460 840 -459Q827 -461 798 -474Q777 -484 758 -499Q739 -514 720 -527Q707 -542 686 -551Q682 -553 679 -555Q677 -557 680 -559Z"/>
</svg>