<svg xmlns="http://www.w3.org/2000/svg" viewBox="0 -800 1024 1024">
	<path fill="#000000" d="M464 -762L480 -761Q485 -758 517 -756Q531 -753 544 -751Q545 -751 565 -746Q581 -738 590 -733Q601 -732 606 -720Q600 -714 606 -705Q604 -695 586 -695Q578 -695 570 -695Q560 -696 527 -709Q512 -717 498 -724Q484 -732 473 -746Q471 -750 466 -754Q462 -758 464 -762ZM725 -702Q735 -701 744 -701Q751 -702 777 -690Q781 -687 779 -682Q776 -676 778 -673Q784 -666 767 -659Q762 -661 755 -658Q749 -655 746 -656Q742 -658 733 -655Q727 -653 723 -654Q712 -652 701 -651Q677 -649 655 -645Q641 -645 635 -643Q619 -645 611 -638Q586 -640 572 -635Q557 -632 541 -629Q513 -627 497 -621Q480 -622 464 -616Q445 -618 425 -621Q417 -626 390 -628Q384 -630 378 -633Q376 -635 380 -638Q394 -642 408 -646Q442 -653 475 -660Q497 -664 519 -669Q540 -672 560 -675Q570 -677 579 -679Q599 -683 620 -686Q641 -690 662 -695Q669 -695 685 -697Q705 -699 725 -702ZM734 -603H735Q742 -601 753 -602Q769 -603 775 -600Q782 -598 787 -592Q792 -586 798 -582Q798 -577 807 -571Q815 -566 815 -561Q816 -545 810 -528Q806 -520 801 -513Q799 -510 791 -503Q785 -498 784 -492Q776 -480 768 -469Q765 -463 755 -461Q745 -459 743 -454Q739 -453 734 -448Q729 -442 725 -442Q723 -440 717 -441Q711 -442 708 -439Q700 -438 690 -436Q681 -434 672 -436Q669 -435 661 -439Q653 -443 648 -441Q644 -442 642 -437Q641 -433 639 -433Q625 -443 616 -455Q602 -471 597 -486Q597 -492 595 -498Q593 -503 588 -500Q586 -486 577 -482Q575 -477 551 -448Q545 -450 542 -446Q539 -442 536 -438Q535 -434 527 -430Q522 -428 520 -425Q514 -422 505 -423Q489 -421 472 -419Q468 -416 459 -419Q451 -422 447 -420Q448 -415 446 -413Q444 -411 438 -412Q425 -413 414 -418Q409 -427 400 -437Q382 -448 380 -475Q384 -493 394 -513Q408 -533 418 -555Q428 -563 436 -572Q444 -582 456 -584Q456 -575 466 -567Q495 -573 514 -580Q524 -580 533 -581Q574 -581 583 -578Q591 -576 598 -562Q603 -552 608 -548Q618 -561 623 -578Q631 -582 637 -577Q644 -572 648 -568Q660 -574 672 -581Q703 -594 734 -603ZM748 -565Q738 -561 728 -558Q723 -559 715 -554Q708 -550 704 -550Q693 -546 682 -543Q673 -537 655 -539Q651 -544 648 -540Q647 -538 643 -531Q650 -517 641 -504Q641 -500 638 -493Q634 -484 636 -480Q637 -465 649 -457Q663 -457 676 -463Q687 -464 698 -465Q708 -463 714 -469Q720 -475 724 -481Q754 -530 760 -555Q763 -559 758 -563Q753 -567 748 -565ZM537 -549Q522 -544 506 -540Q502 -541 496 -539Q487 -536 483 -539Q474 -544 465 -544Q461 -535 456 -526Q453 -513 449 -501Q446 -498 441 -477Q437 -470 438 -461Q436 -454 435 -447Q433 -440 441 -435Q466 -441 502 -453Q514 -475 529 -496Q544 -517 552 -541Q554 -552 537 -549ZM236 -449Q249 -449 256 -446Q262 -446 269 -445Q276 -444 281 -438Q288 -433 287 -426Q287 -419 288 -412Q293 -406 290 -398Q287 -391 286 -384Q288 -372 277 -363Q271 -359 265 -354Q259 -350 266 -343Q270 -344 273 -342Q276 -340 275 -336Q271 -333 270 -326Q269 -318 265 -316Q230 -313 195 -311Q184 -311 173 -311Q164 -315 157 -315Q155 -311 158 -304Q161 -297 161 -293Q162 -287 156 -286Q151 -285 147 -289Q134 -298 125 -308Q120 -320 114 -332Q110 -354 116 -375L124 -399Q127 -409 131 -420Q134 -432 127 -441Q125 -444 127 -445Q133 -444 139 -444Q150 -452 157 -441Q156 -434 159 -430Q163 -424 169 -428Q198 -443 219 -445Q222 -447 236 -449ZM601 -440L605 -439Q616 -420 632 -413Q642 -414 650 -398Q653 -395 651 -389Q649 -383 650 -380Q660 -375 675 -377Q681 -371 690 -375Q694 -374 695 -367Q696 -360 698 -358Q703 -349 691 -344Q680 -343 668 -343Q661 -345 656 -341Q650 -337 652 -331Q652 -309 651 -287Q648 -283 651 -279Q653 -275 659 -276Q669 -280 673 -274Q671 -262 676 -256Q674 -249 662 -248Q651 -247 648 -242Q641 -240 644 -231Q646 -223 645 -220Q644 -211 642 -202Q645 -196 651 -200Q657 -204 662 -206Q676 -201 693 -200Q702 -196 711 -190Q711 -187 720 -178Q727 -171 722 -165Q713 -154 696 -156Q684 -159 674 -152Q668 -149 655 -149Q635 -148 629 -142Q619 -138 615 -132Q611 -126 604 -119Q596 -116 596 -102Q596 -89 605 -89Q623 -95 644 -94Q646 -94 663 -97Q668 -97 669 -102Q671 -106 673 -110Q683 -118 694 -125Q705 -132 714 -142Q739 -163 754 -181Q769 -202 784 -224Q787 -234 796 -233Q805 -232 814 -232Q838 -228 857 -212Q857 -198 840 -190Q825 -173 816 -171Q812 -168 808 -164Q802 -156 798 -155Q792 -155 785 -148Q777 -140 771 -141Q763 -132 754 -123Q745 -119 737 -112Q730 -106 720 -105Q717 -103 708 -102Q698 -101 694 -95Q695 -94 708 -92Q721 -92 727 -90Q747 -90 770 -88Q784 -84 797 -81Q803 -77 813 -78Q823 -71 828 -69Q836 -69 842 -65Q849 -60 850 -52Q853 -40 842 -35Q836 -26 824 -31Q817 -31 785 -42Q767 -43 749 -45Q735 -48 722 -49Q715 -49 708 -51Q701 -53 697 -48Q694 -45 698 -36Q701 -31 700 -27Q700 -19 695 -7Q677 2 660 25Q646 37 644 46Q640 57 632 60Q622 62 618 72Q613 72 607 79Q602 85 598 85Q584 75 579 74Q568 67 558 60Q547 54 541 43Q529 35 525 8Q522 -2 525 -12Q527 -21 528 -31Q529 -34 530 -38L532 -48Q533 -51 534 -55Q539 -82 539 -84Q541 -88 542 -93Q542 -99 535 -100Q525 -98 518 -90Q511 -82 504 -75Q484 -65 475 -57Q469 -58 462 -50Q458 -46 455 -45Q449 -46 446 -42Q443 -37 441 -33Q432 -28 422 -24Q414 -20 413 -29Q411 -35 419 -48Q425 -58 430 -61L488 -116Q494 -122 499 -128Q501 -131 499 -132Q495 -133 493 -132Q479 -126 464 -124Q453 -129 446 -126Q436 -130 411 -137Q408 -137 404 -138Q399 -140 401 -143Q419 -145 437 -148Q456 -153 477 -154Q494 -157 510 -160Q516 -166 512 -172Q508 -178 505 -183Q498 -191 501 -199Q504 -207 504 -215Q508 -231 496 -234Q486 -233 472 -241Q466 -241 463 -246Q462 -248 466 -249Q480 -250 493 -255Q507 -255 510 -268Q513 -282 515 -297Q515 -308 515 -319Q514 -323 502 -323Q495 -325 490 -324Q482 -323 471 -328Q461 -332 457 -332Q452 -334 447 -334Q441 -335 441 -340Q445 -346 453 -347Q461 -348 468 -351Q480 -352 492 -354Q504 -356 511 -357Q517 -357 519 -363Q520 -369 517 -373Q517 -377 513 -384Q509 -391 511 -395Q515 -399 519 -399Q533 -396 544 -385Q548 -384 552 -378Q559 -368 566 -370Q580 -374 588 -376Q606 -378 605 -393Q604 -414 597 -430Q594 -433 596 -436Q598 -440 601 -440ZM233 -415L216 -413Q197 -406 165 -412Q157 -414 154 -407Q151 -401 153 -394Q156 -371 155 -343Q152 -340 154 -335Q157 -329 161 -331Q172 -333 183 -335Q192 -339 201 -341Q211 -344 218 -351Q236 -382 242 -404Q247 -409 242 -414Q237 -419 233 -415ZM592 -334L583 -329Q576 -331 570 -328Q562 -325 565 -318Q573 -303 566 -291Q567 -287 564 -279Q559 -268 566 -264Q581 -266 588 -259Q594 -255 598 -262Q599 -277 600 -293Q600 -315 602 -325Q605 -330 600 -334Q595 -338 592 -334ZM583 -228Q580 -227 571 -228Q559 -230 556 -223Q558 -210 560 -197Q557 -191 553 -184Q549 -176 557 -171Q573 -176 585 -185Q587 -190 587 -200Q587 -211 589 -215Q593 -220 591 -226Q589 -231 583 -228ZM600 -64Q594 -64 593 -58Q591 -52 592 -47Q588 -34 588 -20Q591 -9 589 3Q591 10 590 19Q588 29 597 32Q627 17 637 3L677 -41Q684 -45 681 -52Q678 -59 671 -57Q661 -57 635 -64Q624 -64 612 -64Q606 -64 600 -64Z"/>
</svg>