<svg xmlns="http://www.w3.org/2000/svg" viewBox="0 -800 1024 1024">
	<path fill="#000000" d="M563 -735Q572 -731 581 -731Q584 -729 592 -730Q601 -731 604 -726Q616 -693 594 -685Q592 -680 585 -678Q578 -676 576 -673Q556 -668 541 -660Q538 -662 533 -659Q526 -655 522 -658Q510 -649 518 -634Q518 -617 522 -601Q522 -584 524 -569Q525 -553 519 -539Q519 -512 513 -503Q510 -501 512 -496Q514 -490 513 -487Q511 -481 513 -468Q515 -458 513 -452Q508 -448 510 -440Q512 -432 509 -429Q510 -417 513 -406Q509 -372 511 -355Q517 -351 531 -354Q542 -357 547 -355Q565 -358 583 -362Q593 -362 610 -365Q637 -370 649 -367Q652 -370 660 -369Q667 -368 670 -371L690 -366Q701 -370 706 -353Q713 -349 712 -340Q711 -332 703 -331Q700 -333 696 -328Q693 -323 690 -323Q683 -315 664 -315Q650 -315 644 -312Q642 -314 637 -312Q633 -311 631 -313Q614 -307 595 -305Q577 -304 559 -303Q555 -300 546 -299Q536 -298 532 -294Q520 -295 515 -294Q506 -292 511 -282Q507 -262 503 -243Q504 -226 504 -210Q504 -191 505 -173Q506 -154 501 -136Q500 -131 503 -120Q506 -108 503 -102Q493 -71 504 -50Q506 -39 508 -28Q508 -22 504 -22Q500 -22 495 -20Q486 -19 487 -10Q489 -2 497 -2Q525 -3 550 1Q590 -6 646 -2Q674 3 696 10Q706 13 708 24Q710 34 706 44Q696 47 686 50Q684 54 676 55Q664 57 629 55Q624 58 619 53Q615 50 613 54Q550 56 519 54Q508 52 498 53Q495 55 489 54Q483 53 481 55Q474 54 459 57Q449 58 439 58Q433 57 426 58Q419 60 413 54Q397 56 381 50Q374 49 366 47Q352 42 344 44Q330 51 323 29Q328 28 334 29Q339 31 344 26Q348 28 355 25Q361 22 364 25Q386 19 397 14Q416 14 434 10Q455 5 459 1Q456 -4 448 -10Q440 -16 438 -20Q410 -33 416 -81Q415 -87 413 -94Q412 -105 416 -113Q420 -122 422 -131Q425 -155 427 -180Q430 -230 432 -280Q425 -282 407 -281Q392 -280 385 -282Q376 -284 367 -286Q355 -289 342 -293Q338 -290 334 -294Q330 -297 327 -297Q315 -300 303 -303Q297 -301 293 -303Q291 -305 295 -308Q303 -305 308 -312Q314 -316 326 -317Q340 -318 344 -322Q379 -328 426 -335Q434 -335 434 -342Q434 -351 435 -359Q435 -368 435 -378Q438 -411 438 -445Q439 -460 436 -475Q439 -493 436 -512Q440 -532 441 -547Q440 -570 446 -610Q446 -623 446 -635Q446 -648 435 -654Q432 -657 426 -656Q419 -655 416 -657Q401 -654 385 -657Q375 -660 362 -661Q349 -662 341 -673L371 -679Q374 -686 380 -686Q387 -685 394 -688Q399 -687 422 -692Q459 -708 495 -725Q501 -724 512 -728Q523 -732 528 -729Q533 -733 547 -733Q557 -733 563 -735ZM676 -582L709 -578Q722 -575 732 -567Q748 -559 757 -545Q760 -537 757 -523Q755 -511 755 -508Q750 -506 747 -499Q744 -493 741 -491Q736 -491 735 -484Q734 -475 729 -475Q721 -462 713 -450Q707 -439 695 -435Q695 -430 691 -430Q688 -429 685 -429Q673 -431 665 -424Q657 -418 649 -413Q648 -413 606 -422Q601 -418 594 -418Q586 -418 571 -423Q561 -429 551 -435Q541 -441 535 -450Q524 -467 530 -484Q536 -502 541 -519Q544 -525 549 -538Q555 -555 561 -562Q574 -562 588 -556Q622 -565 644 -576Q661 -578 676 -582ZM357 -554Q374 -553 403 -542Q414 -537 421 -528Q429 -517 423 -508Q416 -493 412 -479Q406 -472 402 -465Q398 -458 390 -455Q388 -448 384 -442Q381 -436 385 -429Q391 -423 386 -416Q381 -410 375 -408Q362 -398 344 -397Q335 -394 314 -396Q299 -397 292 -396Q275 -392 262 -404Q253 -403 247 -408Q241 -414 235 -416Q225 -421 218 -427Q218 -431 212 -437Q203 -446 207 -453Q202 -463 202 -468Q210 -484 218 -500Q229 -511 239 -526Q257 -552 278 -547Q280 -541 288 -541Q294 -541 304 -545Q307 -545 357 -554ZM675 -541Q666 -539 656 -536Q645 -533 639 -523Q617 -523 598 -528Q592 -536 590 -526Q593 -519 591 -508Q589 -499 590 -496Q588 -485 588 -472Q590 -468 587 -461Q583 -453 588 -449Q598 -445 617 -451Q631 -455 638 -455Q642 -458 650 -457Q657 -456 660 -457Q668 -475 676 -493Q679 -500 684 -508Q689 -515 688 -523Q693 -531 688 -539Q683 -547 675 -541ZM297 -519Q293 -518 293 -513Q295 -511 297 -501L300 -487Q291 -474 281 -463Q279 -446 280 -430Q278 -425 281 -424Q288 -425 297 -427Q300 -431 315 -432Q326 -433 327 -441Q340 -473 340 -510Q339 -519 331 -517Q323 -515 317 -515Q305 -515 297 -519ZM731 -241L735 -240Q746 -240 757 -241Q770 -239 785 -238Q800 -236 810 -226Q820 -225 824 -209Q832 -207 835 -198Q837 -189 832 -183Q834 -177 830 -172Q825 -166 822 -162Q821 -157 816 -158Q809 -159 809 -151Q810 -145 808 -143Q806 -141 803 -139Q801 -132 794 -131Q788 -131 787 -124Q783 -122 778 -114Q773 -106 768 -105Q762 -95 755 -86Q749 -87 747 -83Q744 -80 740 -77Q741 -73 736 -69Q731 -65 731 -62Q729 -54 717 -55Q709 -56 705 -53Q702 -55 697 -54Q691 -53 688 -57Q670 -52 649 -50Q635 -45 621 -50Q607 -56 594 -61Q591 -61 588 -67Q585 -74 578 -73Q577 -78 572 -78Q567 -78 565 -80Q559 -86 550 -91Q542 -96 537 -105Q529 -127 534 -150Q538 -172 544 -183Q548 -189 554 -201L563 -219Q564 -230 576 -230Q586 -228 595 -226Q606 -222 608 -209Q632 -218 641 -221Q662 -230 731 -241ZM357 -219Q374 -219 390 -219Q397 -217 405 -214Q412 -211 413 -203Q413 -193 413 -183Q421 -178 412 -161Q409 -151 398 -135Q385 -116 383 -105Q386 -104 390 -98Q396 -90 400 -92Q405 -81 403 -77Q396 -76 385 -65Q381 -67 376 -63Q371 -60 368 -61Q351 -59 319 -57L299 -60Q296 -59 290 -61Q282 -64 280 -60Q284 -53 279 -49Q274 -44 266 -45Q254 -52 241 -60Q224 -65 214 -73Q202 -84 202 -99Q192 -122 207 -154Q208 -163 218 -176Q226 -187 228 -192Q230 -198 235 -196Q239 -195 244 -195Q248 -201 255 -198Q262 -195 266 -195Q312 -205 357 -219ZM726 -199Q688 -190 649 -184Q639 -181 628 -184Q624 -183 617 -185Q608 -188 605 -184Q599 -171 590 -141Q589 -130 587 -120Q586 -110 594 -95Q600 -84 601 -79Q607 -75 618 -78Q626 -80 631 -79Q633 -80 687 -94Q702 -90 710 -107Q719 -116 736 -146Q742 -159 751 -172Q760 -184 757 -199Q742 -202 726 -199ZM342 -177Q333 -175 323 -174Q316 -170 302 -173Q291 -175 285 -174Q279 -165 277 -154Q270 -146 270 -135Q269 -125 267 -116Q268 -111 264 -101Q261 -93 262 -87Q263 -80 268 -80Q278 -83 288 -87Q296 -89 303 -91Q313 -88 323 -94Q341 -114 345 -163Q347 -168 347 -172Q347 -178 342 -177Z"/>
</svg>