<svg xmlns="http://www.w3.org/2000/svg" viewBox="0 -800 1024 1024">
	<path fill="#000000" d="M631 -652H634Q650 -647 665 -643Q678 -632 678 -620Q679 -609 671 -604Q664 -599 657 -594Q634 -592 625 -581Q618 -580 612 -575Q607 -570 602 -567Q604 -560 612 -561Q620 -562 625 -560Q630 -557 637 -554Q644 -551 644 -543Q656 -518 646 -507Q642 -503 641 -491Q640 -485 638 -479Q629 -470 628 -462Q627 -457 631 -457Q634 -457 636 -456Q640 -459 648 -460Q655 -461 658 -463Q658 -470 650 -473Q674 -476 695 -486Q708 -490 723 -491Q734 -496 749 -499Q752 -497 758 -501Q765 -505 769 -501Q775 -505 780 -500Q785 -496 789 -494Q792 -495 799 -491Q805 -488 808 -490Q825 -487 827 -485Q829 -481 836 -482Q842 -483 843 -478Q843 -464 842 -451Q840 -451 837 -448Q833 -444 830 -445Q828 -441 815 -441Q812 -443 804 -442Q796 -441 792 -444Q789 -442 783 -443Q775 -444 772 -441Q730 -437 690 -428Q685 -427 680 -425Q674 -424 676 -419Q728 -395 742 -390Q811 -349 834 -342Q836 -338 839 -334Q841 -330 846 -334Q863 -325 879 -317Q886 -312 904 -307Q919 -303 927 -298Q940 -294 950 -285Q957 -286 960 -280Q962 -276 961 -267Q962 -265 961 -264Q957 -264 950 -267Q946 -271 942 -268Q937 -265 941 -260Q945 -257 943 -255Q936 -252 930 -255Q924 -251 917 -256Q915 -254 903 -254Q895 -256 889 -254Q882 -256 874 -257Q866 -258 863 -265Q862 -270 854 -267L835 -278Q799 -298 765 -326Q762 -330 760 -328Q758 -323 761 -317Q758 -312 761 -303Q763 -295 762 -292Q762 -284 762 -277Q762 -258 759 -243Q764 -239 762 -229Q761 -222 762 -218Q764 -203 765 -189Q763 -185 767 -178Q770 -172 769 -169Q772 -160 766 -144Q777 -133 772 -116Q764 -111 767 -103Q769 -95 767 -87Q764 -76 765 -72Q765 -52 760 -38Q763 -25 756 -13Q756 1 753 3Q750 19 737 27Q729 29 716 28Q709 23 701 17Q694 11 695 0Q681 -14 690 -33Q702 -73 704 -118Q705 -121 705 -128L706 -149Q707 -154 707 -159Q707 -172 707 -186L711 -270Q709 -284 711 -308Q714 -342 709 -356Q708 -361 705 -366Q701 -372 706 -374Q679 -396 662 -414Q653 -424 642 -420Q637 -418 631 -420Q629 -416 616 -416Q611 -416 608 -412Q608 -408 598 -391Q590 -384 587 -374Q573 -353 560 -332Q547 -311 527 -293Q522 -285 509 -274Q497 -264 495 -262Q484 -260 476 -249Q471 -242 451 -236Q449 -233 434 -233Q427 -233 424 -228Q411 -220 410 -227L424 -241Q441 -253 477 -298Q493 -318 509 -338Q526 -359 540 -382Q548 -392 549 -402Q544 -405 533 -401Q524 -398 520 -399Q513 -394 505 -394Q499 -393 492 -390Q479 -384 472 -385Q459 -388 446 -391Q432 -397 417 -403Q412 -404 411 -408Q412 -409 413 -408Q426 -410 438 -412Q466 -415 494 -426Q509 -431 522 -434Q524 -437 530 -437Q537 -437 540 -439Q558 -442 576 -446Q581 -453 586 -469Q591 -484 595 -491Q597 -504 601 -519Q604 -534 598 -548Q588 -546 580 -551Q572 -545 564 -539Q554 -539 548 -537Q547 -531 543 -528Q539 -525 535 -530Q531 -529 525 -523Q516 -514 511 -516Q513 -532 520 -544Q541 -569 566 -591Q581 -605 595 -620Q598 -625 604 -630Q609 -636 608 -644Q611 -647 620 -648Q628 -649 631 -652ZM211 -593L215 -592Q230 -581 250 -577Q264 -579 276 -571Q285 -555 285 -545Q284 -540 290 -527Q288 -512 286 -498Q279 -471 278 -463Q272 -450 270 -435Q264 -421 258 -407Q257 -402 255 -397Q253 -391 260 -388Q275 -390 289 -392Q296 -393 304 -393Q312 -394 315 -401Q316 -413 314 -422Q312 -431 306 -435Q300 -439 294 -443Q289 -448 292 -453Q295 -458 301 -459Q312 -461 322 -464Q327 -463 350 -456Q363 -456 370 -432Q370 -426 369 -424V-406Q368 -404 368 -398Q364 -393 363 -378Q362 -367 359 -361Q354 -357 352 -341Q345 -331 340 -318Q336 -308 329 -299Q330 -287 311 -268Q300 -251 289 -235Q282 -228 292 -222Q324 -214 340 -208Q350 -202 363 -199Q374 -193 384 -187Q392 -185 399 -178Q406 -171 413 -165Q412 -157 429 -147Q432 -144 437 -142Q442 -141 443 -135Q437 -129 441 -122Q446 -118 441 -113Q438 -110 431 -107Q425 -107 418 -107Q398 -110 360 -131Q318 -156 302 -161Q291 -165 280 -169Q276 -174 270 -174Q264 -174 259 -176Q254 -182 246 -182Q241 -182 231 -178Q223 -177 214 -176Q211 -176 204 -172Q198 -168 194 -169Q198 -181 207 -193Q213 -203 202 -207Q190 -210 183 -221Q176 -232 176 -245Q168 -256 174 -265Q171 -273 179 -283Q185 -292 185 -297Q186 -302 187 -308Q188 -313 182 -314Q176 -312 169 -310Q146 -306 123 -302Q113 -304 103 -307Q95 -306 83 -311Q73 -315 68 -315Q62 -316 56 -316Q49 -316 48 -322Q65 -331 84 -337Q117 -348 150 -360Q161 -363 171 -368Q181 -373 194 -371Q199 -374 201 -383Q202 -390 204 -392Q217 -435 219 -441Q222 -465 229 -487Q231 -500 232 -513Q230 -532 227 -552Q227 -558 222 -562Q217 -566 215 -570Q210 -578 207 -586Q205 -592 211 -593ZM281 -338L280 -337Q262 -336 246 -329Q234 -330 232 -316Q229 -302 229 -287Q226 -282 221 -261Q220 -255 220 -248Q220 -241 227 -238Q242 -233 249 -239Q279 -295 289 -325Q291 -331 288 -337Q286 -341 281 -338ZM580 -315Q586 -300 590 -294Q579 -266 590 -244Q587 -240 589 -231Q591 -221 586 -217Q584 -205 582 -193Q583 -176 581 -160Q581 -149 580 -138Q580 -131 580 -124Q579 -116 572 -115Q572 -119 570 -120Q565 -122 564 -114Q558 -113 554 -115Q549 -117 549 -123Q539 -137 530 -155Q525 -179 535 -197Q536 -200 547 -243Q564 -279 580 -315Z"/>
</svg>