<svg xmlns="http://www.w3.org/2000/svg" viewBox="0 -800 1024 1024">
	<path fill="#000000" d="M378 -756Q384 -746 391 -734Q397 -722 397 -708Q399 -703 395 -699Q391 -694 389 -690Q389 -686 378 -665Q380 -657 368 -646Q358 -637 358 -630Q351 -619 345 -616Q339 -603 327 -590Q315 -578 304 -566Q301 -568 300 -566Q300 -558 295 -555Q294 -552 288 -548Q284 -545 283 -542Q275 -530 289 -525Q299 -515 309 -502Q314 -491 318 -481Q321 -468 319 -453Q322 -448 319 -438Q317 -433 318 -428Q320 -421 317 -412Q314 -402 316 -398Q314 -391 315 -381Q317 -366 313 -359Q315 -350 312 -341Q309 -333 308 -324Q304 -315 307 -307Q310 -299 311 -290Q313 -278 308 -269Q304 -260 301 -250Q310 -238 305 -219Q303 -210 312 -204Q322 -199 321 -189Q325 -174 321 -159Q319 -152 316 -143Q313 -135 304 -137Q294 -145 289 -146Q285 -148 280 -150Q275 -151 275 -157Q273 -159 270 -159Q265 -159 265 -163Q259 -165 257 -173Q255 -180 252 -182Q243 -194 236 -208Q248 -256 248 -269Q251 -312 256 -352Q253 -374 257 -392Q267 -442 263 -459Q273 -482 261 -507Q258 -514 254 -512Q250 -511 247 -512Q242 -509 239 -512Q236 -516 233 -519Q232 -534 220 -546Q209 -548 206 -561Q203 -574 216 -576Q217 -578 219 -580L226 -588Q228 -590 229 -592Q257 -625 281 -659Q301 -680 321 -701Q333 -719 364 -748Q370 -748 373 -750Q375 -753 378 -756ZM609 -637H623Q663 -635 688 -624Q696 -619 706 -615Q715 -611 720 -601Q719 -597 726 -595Q732 -593 732 -590Q739 -583 745 -564Q757 -552 759 -524Q756 -516 765 -497Q768 -488 762 -474Q763 -464 759 -445Q756 -431 756 -422Q755 -419 756 -410Q758 -400 754 -395Q752 -376 748 -357Q745 -354 745 -346Q745 -336 742 -333Q744 -327 739 -307Q733 -305 736 -299Q740 -294 740 -289Q737 -285 739 -276Q741 -267 739 -263Q741 -244 733 -233Q735 -228 728 -224Q721 -220 722 -216Q721 -195 722 -177Q721 -169 728 -167Q734 -164 739 -166Q745 -165 751 -170Q758 -175 762 -174Q766 -171 773 -173Q782 -175 784 -171Q788 -170 792 -172Q797 -174 800 -170Q814 -168 818 -166Q819 -163 826 -162Q833 -161 834 -157Q828 -152 831 -147Q834 -142 833 -137Q829 -136 826 -130Q824 -126 821 -125Q816 -128 812 -121Q809 -116 806 -115Q808 -110 805 -109Q798 -108 792 -109Q787 -105 778 -107Q768 -109 765 -105Q756 -107 740 -104Q720 -101 711 -103Q701 -98 688 -97Q680 -95 675 -96Q664 -94 653 -93L607 -86Q596 -84 585 -83Q570 -80 568 -81Q563 -74 554 -78Q540 -62 526 -47Q523 -46 519 -38Q514 -28 506 -28Q505 -25 499 -22Q494 -20 494 -16Q499 -12 510 -13Q520 -14 523 -12Q541 -19 557 -16L583 -18Q594 -15 605 -13Q619 -12 641 -3Q658 4 665 6Q677 13 697 21Q723 31 732 37Q732 40 737 41Q740 42 741 45Q746 46 749 51Q752 56 755 56Q760 63 751 70Q744 75 744 79Q740 79 736 79Q732 78 730 84Q725 91 717 93Q708 94 700 96Q688 94 679 89Q664 87 639 72Q622 62 613 59Q603 56 584 44Q561 30 547 27Q530 21 512 14Q496 9 479 6Q472 6 466 9Q464 13 458 15Q451 18 448 21Q438 25 427 28Q420 23 415 29Q404 36 392 42Q387 45 384 41Q381 37 383 32Q391 12 407 -3Q424 -18 438 -33Q455 -48 461 -64Q459 -66 439 -63Q430 -61 421 -59Q375 -54 329 -49Q292 -42 256 -39Q244 -37 235 -42Q232 -40 223 -42Q214 -44 209 -41Q196 -43 185 -46Q179 -46 169 -51Q161 -55 155 -55Q145 -59 135 -63Q136 -64 149 -67Q158 -72 174 -74Q189 -74 193 -77Q236 -83 278 -89Q314 -94 349 -99Q405 -106 460 -120Q469 -123 482 -124Q495 -125 491 -137Q487 -144 495 -149Q502 -153 508 -149Q515 -135 530 -139Q536 -137 551 -139Q562 -141 569 -139Q589 -146 609 -148Q615 -149 622 -150Q629 -150 633 -156Q627 -166 627 -172L652 -181Q666 -201 666 -214Q668 -218 673 -248Q671 -256 676 -272Q680 -283 679 -292Q681 -331 686 -344Q684 -377 688 -410L691 -440Q691 -454 691 -469Q698 -515 682 -548Q682 -574 655 -585Q639 -593 622 -590Q620 -589 591 -584Q573 -580 555 -576Q515 -559 506 -550Q500 -555 492 -554Q484 -554 478 -556Q467 -559 456 -562Q452 -570 443 -572Q435 -573 427 -576Q423 -580 427 -583Q431 -586 437 -585Q467 -592 493 -606Q531 -621 609 -637ZM476 -504Q478 -503 481 -503L484 -504Q487 -504 488 -503Q500 -505 513 -497Q527 -489 528 -477Q531 -469 549 -472Q552 -477 557 -477Q567 -474 575 -474Q579 -472 584 -475Q588 -478 591 -476Q602 -472 613 -468Q621 -464 624 -452Q627 -441 615 -440Q599 -430 592 -421Q588 -418 574 -407Q566 -406 560 -393Q548 -387 538 -387Q533 -387 533 -385Q533 -381 540 -380Q549 -386 557 -384Q561 -384 591 -387Q594 -384 602 -384Q612 -384 614 -379Q619 -385 628 -373Q623 -371 624 -367Q626 -363 627 -358Q629 -351 619 -349Q610 -347 608 -343Q605 -339 594 -338Q588 -337 584 -335Q569 -333 553 -332Q547 -329 540 -327Q533 -330 525 -322Q524 -304 523 -287Q518 -288 517 -286Q516 -285 517 -281Q519 -274 525 -275Q535 -278 583 -280Q594 -284 602 -280Q604 -276 613 -272Q621 -268 623 -262Q636 -255 630 -239Q632 -231 628 -227Q624 -223 616 -225Q609 -222 601 -216Q596 -219 592 -216Q588 -214 584 -213Q581 -213 578 -216Q584 -226 567 -232Q563 -236 552 -237Q543 -238 540 -240Q530 -241 520 -243Q515 -243 511 -239Q510 -234 512 -227Q515 -215 512 -209Q506 -206 505 -200Q504 -194 502 -188Q504 -176 497 -163Q496 -156 490 -158Q483 -162 479 -167Q478 -171 473 -174Q468 -177 468 -179L451 -202Q452 -214 452 -226Q455 -231 452 -232Q446 -233 441 -231Q432 -221 420 -219Q412 -232 412 -233Q416 -258 428 -280Q429 -283 443 -294Q453 -302 452 -312Q452 -319 444 -317Q439 -316 437 -317Q428 -312 420 -311Q398 -320 393 -321Q387 -320 380 -324Q374 -328 371 -328Q366 -331 369 -334Q376 -338 383 -337Q441 -350 464 -357Q473 -358 474 -365Q476 -374 475 -384Q477 -389 477 -403Q477 -414 479 -420Q478 -427 480 -443Q483 -463 479 -473Q480 -479 473 -477Q478 -484 473 -489Q469 -494 464 -498Q462 -501 464 -502Q469 -501 476 -504ZM423 -460H426Q442 -450 449 -428Q459 -411 456 -389Q456 -385 456 -379Q456 -373 450 -372Q445 -366 439 -373Q428 -371 424 -385Q409 -401 398 -418L406 -439Q403 -448 410 -452Q418 -457 423 -460ZM534 -455Q531 -454 533 -448Q539 -441 540 -450Q541 -459 534 -455Z"/>
</svg>