<svg xmlns="http://www.w3.org/2000/svg" viewBox="0 -800 1024 1024">
	<path fill="#000000" d="M589 -753Q592 -753 614 -751Q620 -747 631 -749Q645 -742 646 -731Q647 -726 645 -720Q643 -714 649 -711Q654 -707 659 -710Q663 -713 668 -716Q682 -714 695 -712Q700 -716 708 -713Q715 -711 717 -711Q732 -702 730 -694Q738 -685 729 -677Q717 -671 704 -668Q689 -669 676 -665L662 -661Q657 -661 614 -650Q610 -647 601 -646Q588 -644 584 -639Q579 -629 576 -618Q577 -610 596 -616Q614 -621 631 -626Q640 -629 650 -630Q660 -632 668 -638Q676 -647 681 -642Q699 -644 701 -636Q706 -636 709 -614Q716 -602 710 -588Q709 -586 709 -576Q709 -573 704 -571Q698 -569 697 -565Q698 -560 691 -553Q685 -547 685 -542Q667 -527 676 -521Q690 -525 703 -529Q736 -536 768 -544Q786 -549 804 -554Q819 -555 834 -556Q850 -560 871 -557Q876 -555 873 -547Q870 -540 871 -537Q872 -531 864 -530Q855 -529 854 -527Q850 -518 844 -516Q817 -514 793 -506Q765 -498 737 -490Q709 -482 680 -474Q663 -471 648 -466Q632 -460 615 -461Q620 -457 623 -440Q623 -436 619 -432Q614 -427 614 -424Q619 -417 628 -424Q649 -430 669 -437Q679 -441 702 -443Q708 -447 724 -449Q742 -451 749 -456Q787 -463 827 -461Q835 -459 842 -457Q849 -458 861 -449Q868 -444 874 -442Q881 -431 887 -429Q896 -413 901 -394Q906 -376 894 -359Q887 -348 880 -337Q874 -337 872 -328Q874 -323 867 -318Q860 -313 860 -308Q856 -305 852 -296Q848 -288 844 -285Q839 -283 834 -274Q830 -267 827 -265Q822 -265 821 -261Q820 -258 820 -254Q821 -249 814 -245Q808 -242 807 -239Q806 -235 800 -232Q794 -230 793 -228Q786 -219 779 -203Q778 -197 769 -196Q760 -195 759 -190Q748 -188 743 -178Q734 -175 727 -181Q719 -181 707 -177Q691 -175 674 -174Q668 -176 663 -173Q658 -170 664 -164Q674 -154 680 -139Q681 -130 695 -135Q716 -138 736 -141Q742 -142 750 -141Q757 -141 762 -146Q766 -148 765 -153Q764 -158 766 -160Q779 -158 785 -153Q794 -153 803 -153Q815 -155 828 -155Q841 -156 848 -143Q844 -139 840 -135Q836 -131 838 -124Q820 -118 802 -115Q791 -111 778 -111Q765 -110 753 -110Q744 -108 734 -106Q723 -102 711 -102Q704 -100 696 -100Q687 -100 683 -93Q678 -77 679 -59Q684 -53 677 -33Q673 -27 682 -14Q680 7 676 13Q679 29 678 47Q676 66 670 83Q664 89 659 95Q653 102 645 98Q641 99 639 95Q637 91 638 88Q637 65 633 46Q633 32 632 18Q633 4 634 -10Q635 -20 636 -31Q637 -53 638 -76Q640 -84 638 -90Q636 -97 628 -95Q611 -94 594 -93Q570 -87 544 -90Q541 -91 515 -95Q511 -100 516 -105Q523 -110 533 -107Q555 -111 577 -115Q598 -119 619 -123Q625 -125 631 -125Q637 -126 640 -132Q643 -138 640 -151Q638 -161 639 -167Q632 -173 622 -168Q618 -169 604 -169Q588 -169 582 -173Q576 -173 568 -180Q559 -187 553 -186Q540 -183 531 -193Q523 -197 507 -208Q499 -219 490 -231Q489 -237 486 -242Q483 -247 486 -252Q493 -265 492 -280Q492 -282 504 -308Q513 -344 529 -374Q545 -398 560 -422L583 -457Q554 -450 548 -447Q544 -448 529 -443Q517 -438 505 -438Q499 -437 489 -433Q472 -428 455 -424Q445 -422 434 -420Q418 -427 408 -427Q404 -428 397 -426Q387 -423 384 -428Q380 -433 384 -436Q388 -439 394 -437Q403 -443 435 -455Q458 -461 480 -467Q491 -470 501 -473Q545 -485 588 -498Q598 -499 604 -516Q629 -552 650 -589Q652 -592 650 -596Q648 -599 645 -597Q635 -596 621 -590Q618 -587 599 -582Q586 -578 573 -575Q565 -577 563 -571Q561 -566 559 -560Q553 -556 553 -549Q553 -542 552 -536Q552 -531 541 -526Q534 -523 527 -532Q522 -543 517 -555Q506 -565 516 -591Q515 -599 520 -604Q525 -609 529 -615Q529 -618 531 -625Q534 -633 530 -637Q521 -638 512 -642Q502 -647 492 -652Q488 -657 499 -657Q507 -661 529 -665Q532 -666 534 -667L543 -670Q546 -671 548 -672Q556 -672 570 -678Q582 -681 594 -684Q598 -687 604 -689Q610 -692 611 -698Q600 -709 591 -713Q586 -718 576 -722Q567 -725 564 -728Q552 -742 545 -745Q542 -747 543 -749Q544 -751 547 -751Q557 -751 566 -751Q578 -752 589 -753ZM219 -568H220Q231 -568 241 -568Q264 -571 277 -554Q282 -545 283 -535Q283 -529 281 -518Q278 -503 280 -495Q278 -483 276 -472Q276 -463 272 -452Q267 -437 267 -430Q266 -414 266 -383Q264 -369 262 -355Q265 -350 270 -353Q275 -355 279 -357Q292 -365 305 -374Q318 -383 323 -398Q330 -416 318 -420Q315 -424 318 -426Q320 -427 325 -426Q337 -430 352 -421Q358 -418 361 -412Q363 -406 366 -400Q372 -398 371 -392Q371 -387 370 -382Q372 -378 368 -372Q365 -366 365 -363Q369 -351 367 -343Q368 -337 364 -328Q359 -317 360 -311Q348 -296 342 -297Q330 -307 324 -314Q315 -325 318 -337Q319 -343 315 -344Q309 -344 306 -338Q268 -312 260 -306Q244 -294 204 -279Q177 -278 153 -275Q132 -279 115 -298Q100 -315 95 -336Q95 -359 104 -378Q114 -397 124 -416Q126 -420 126 -426Q126 -432 132 -433Q137 -430 143 -429Q150 -427 153 -421Q159 -415 158 -401Q157 -389 160 -383Q158 -371 160 -357Q157 -333 157 -331Q154 -323 154 -320Q153 -313 160 -311Q182 -316 203 -324Q210 -327 209 -335Q209 -337 206 -347Q210 -370 213 -394Q216 -414 218 -435Q221 -448 221 -477Q224 -489 224 -508Q225 -534 228 -544Q230 -552 224 -559Q219 -565 219 -568ZM798 -420Q785 -420 774 -418Q740 -415 708 -407Q692 -406 678 -403Q655 -392 632 -398Q625 -402 616 -404Q612 -405 609 -408Q606 -411 603 -407Q593 -383 576 -361Q565 -352 564 -346Q562 -329 556 -313Q550 -304 548 -282Q545 -259 541 -237Q537 -232 544 -225Q549 -220 549 -217Q561 -204 563 -202Q572 -195 582 -196Q597 -199 611 -202Q627 -204 659 -212Q679 -216 702 -216Q718 -220 734 -228Q742 -240 753 -247Q755 -253 766 -257Q769 -258 770 -265Q771 -270 774 -272Q781 -275 790 -290Q805 -316 817 -343Q819 -348 820 -354L825 -376Q827 -381 828 -387Q834 -408 821 -418Q804 -423 798 -420ZM582 -307L592 -303Q601 -301 612 -303Q625 -308 639 -301Q655 -301 671 -293Q681 -292 692 -277Q697 -270 682 -264Q677 -264 674 -260Q671 -255 665 -255Q652 -258 639 -262Q630 -262 623 -266Q603 -276 590 -289Q585 -293 581 -298Q576 -302 582 -307Z"/>
</svg>