<svg xmlns="http://www.w3.org/2000/svg" viewBox="0 -800 1024 1024">
	<path fill="#000000" d="M564 -703H567Q575 -700 584 -701Q588 -696 600 -696Q609 -696 614 -693Q622 -692 630 -691Q632 -690 629 -686Q627 -680 632 -678Q636 -677 640 -674Q646 -673 645 -664Q645 -657 647 -655Q660 -649 659 -641Q653 -640 646 -641Q640 -641 636 -636Q627 -633 618 -630Q610 -628 602 -630Q586 -628 569 -626Q559 -630 537 -620Q515 -618 492 -620Q480 -620 468 -621Q463 -619 451 -621Q439 -623 433 -621Q413 -624 399 -630Q382 -637 366 -644Q350 -651 332 -649Q326 -645 320 -648Q318 -648 322 -650Q326 -654 330 -659Q334 -665 341 -665Q356 -668 371 -672Q375 -672 382 -675Q388 -678 392 -677Q401 -680 453 -685Q480 -687 490 -691Q500 -691 513 -695Q531 -700 539 -699Q543 -700 550 -700Q560 -700 564 -703ZM272 -585H275Q285 -580 295 -574Q306 -569 308 -558Q311 -553 306 -545Q301 -537 303 -532Q297 -526 293 -513Q289 -501 287 -498Q284 -489 280 -480Q270 -470 272 -455Q264 -438 261 -417Q255 -414 255 -403Q255 -395 253 -392Q247 -380 247 -367Q242 -363 245 -353Q239 -349 240 -345Q240 -341 240 -336Q238 -332 235 -314Q236 -304 233 -291Q229 -275 230 -268Q230 -262 229 -257L228 -235Q228 -228 227 -224Q225 -212 226 -202Q220 -176 217 -151Q219 -144 218 -136L219 -107Q222 -102 222 -93Q223 -81 226 -77Q233 -70 235 -54Q249 -38 275 -36Q309 -32 346 -32Q356 -31 365 -31Q410 -30 461 -34Q464 -31 471 -33Q477 -35 480 -34Q521 -35 561 -36Q600 -39 638 -42Q655 -46 693 -45Q720 -44 735 -46Q751 -50 767 -49Q772 -46 779 -46Q786 -46 800 -50Q804 -51 810 -47Q817 -43 822 -45Q826 -48 828 -44Q829 -41 830 -38Q829 -33 835 -28Q841 -23 841 -19Q854 -10 845 -2Q842 -3 840 3Q838 8 837 4Q832 4 829 2Q813 19 784 14Q776 14 767 14Q756 10 744 12Q741 9 736 12Q731 15 729 14Q706 15 683 16Q660 12 638 16Q629 16 620 16Q615 14 605 18L580 16Q566 16 554 19Q549 16 542 18Q535 20 532 19Q521 19 509 19Q487 17 471 20Q460 18 449 19Q430 18 411 20Q340 18 287 10Q280 14 277 9Q275 7 270 10Q265 14 261 10Q244 4 229 -2Q216 3 207 -12Q201 -14 195 -24Q191 -31 187 -34Q175 -41 174 -53Q172 -65 169 -77Q161 -88 157 -106Q152 -127 153 -146Q151 -167 156 -196Q163 -232 169 -268Q174 -282 177 -312Q180 -339 184 -353Q190 -373 195 -394Q197 -403 207 -430Q216 -455 224 -481Q231 -499 235 -517Q242 -529 246 -541Q251 -554 262 -563Q269 -572 272 -585ZM392 -526Q397 -527 402 -521Q406 -517 409 -517Q412 -513 431 -508Q439 -507 439 -501Q439 -495 441 -490Q440 -480 431 -473Q430 -464 437 -465Q444 -466 450 -467Q461 -467 472 -468Q469 -464 471 -460Q473 -455 478 -456Q479 -460 482 -460Q485 -460 487 -457Q491 -458 493 -454Q495 -450 497 -450Q503 -452 504 -449Q504 -446 502 -440Q516 -436 514 -421Q499 -418 483 -416Q481 -418 475 -416Q469 -414 465 -416Q448 -409 426 -410Q423 -408 411 -407Q398 -406 394 -399Q388 -387 381 -375Q377 -364 373 -353Q366 -348 364 -341Q360 -336 358 -325Q352 -319 367 -316Q383 -318 399 -321Q408 -321 406 -330Q403 -339 395 -342Q391 -344 388 -345Q387 -346 389 -348Q393 -347 396 -351Q398 -354 400 -357L418 -353Q424 -353 432 -343Q439 -335 445 -333Q451 -330 462 -330Q475 -330 479 -328Q490 -326 501 -327Q533 -348 565 -369Q580 -374 593 -383Q605 -389 606 -403Q607 -417 611 -430Q616 -455 613 -480Q612 -485 608 -485Q605 -486 602 -486Q596 -483 578 -493Q588 -508 595 -511Q599 -509 602 -513Q605 -517 607 -517Q618 -513 628 -509Q636 -512 646 -497Q652 -499 659 -494Q664 -494 665 -489Q667 -483 670 -481Q665 -461 665 -440Q662 -435 661 -425Q661 -418 669 -420Q671 -419 677 -420Q685 -422 688 -417Q706 -424 708 -424Q714 -424 718 -419Q723 -417 727 -416L747 -410Q752 -408 756 -407Q762 -407 763 -400Q763 -395 765 -394Q767 -382 763 -369Q749 -327 748 -321Q752 -315 747 -303Q743 -293 744 -289Q737 -269 729 -250Q730 -243 726 -233Q722 -223 722 -219Q717 -211 718 -201Q719 -191 718 -183Q715 -170 726 -163Q736 -156 745 -151Q748 -153 756 -150Q763 -147 767 -150Q788 -148 808 -147Q824 -148 840 -150Q848 -149 857 -158Q865 -167 865 -176Q865 -187 868 -177Q874 -173 874 -166Q875 -159 877 -153Q879 -146 891 -146Q900 -146 903 -143Q903 -139 905 -139Q908 -138 912 -138Q916 -138 915 -133Q916 -129 920 -123Q926 -115 926 -110Q923 -109 920 -108Q917 -107 917 -104Q917 -95 910 -94Q900 -93 891 -92Q890 -92 844 -89Q836 -89 827 -89Q783 -89 768 -95Q763 -94 744 -99Q724 -103 709 -115Q707 -115 705 -116Q701 -121 700 -126Q699 -128 696 -126Q674 -145 662 -172Q663 -175 661 -181Q658 -188 660 -191Q657 -200 664 -228Q665 -243 670 -259Q682 -305 700 -352Q701 -358 703 -364Q706 -371 703 -377Q694 -375 673 -367Q663 -361 650 -357Q636 -354 637 -337Q634 -326 630 -316Q630 -314 615 -267Q616 -259 607 -246Q602 -238 600 -231Q596 -227 594 -215Q592 -201 584 -196Q584 -193 579 -188Q576 -185 576 -182Q571 -182 572 -174Q572 -167 569 -166Q569 -162 560 -154Q559 -148 544 -138Q540 -136 534 -126Q528 -115 520 -114Q514 -105 503 -101Q493 -97 483 -92Q478 -93 480 -100Q482 -108 478 -109Q471 -113 481 -116Q503 -130 516 -151Q525 -175 542 -206L560 -257Q566 -257 565 -263Q565 -268 564 -272Q566 -280 574 -295Q585 -316 585 -329Q575 -333 567 -325Q555 -321 544 -321Q527 -316 520 -316Q516 -321 514 -316Q507 -318 503 -316Q497 -313 500 -307Q506 -304 502 -299Q499 -294 497 -289Q490 -289 487 -281Q484 -274 481 -272Q482 -267 473 -261Q467 -257 465 -252Q459 -252 457 -244Q454 -235 450 -233Q447 -221 448 -220Q448 -185 451 -153Q449 -151 449 -146Q449 -141 446 -138Q447 -134 442 -110Q437 -103 423 -76Q416 -65 407 -59Q405 -65 395 -72Q386 -78 383 -85Q375 -97 367 -100Q364 -100 364 -101Q365 -105 367 -110Q368 -116 364 -119Q361 -121 358 -124Q368 -124 392 -136Q398 -144 398 -152Q399 -161 400 -169Q405 -181 400 -194Q392 -189 385 -183Q378 -177 368 -176Q357 -164 341 -156Q319 -136 294 -124Q282 -116 267 -113Q253 -118 238 -124Q234 -126 235 -128Q242 -130 248 -133Q249 -140 268 -150Q284 -173 317 -191Q339 -209 363 -219Q384 -230 407 -246Q408 -259 404 -272Q395 -271 386 -270Q383 -270 379 -270L375 -268Q372 -268 368 -268Q341 -264 327 -270Q317 -278 296 -303Q297 -317 300 -328Q305 -333 308 -344Q312 -357 318 -361Q343 -397 346 -407Q334 -414 318 -416Q315 -418 308 -416Q301 -414 298 -417Q292 -423 307 -423Q335 -431 363 -439Q379 -464 387 -494Q392 -504 386 -514Q382 -521 392 -526ZM455 -280Q450 -275 452 -273Q456 -271 460 -276Q463 -277 462 -279Q460 -282 455 -280Z"/>
</svg>