<svg xmlns="http://www.w3.org/2000/svg" viewBox="0 -800 1024 1024">
	<path fill="#000000" d="M415 -750Q420 -748 424 -750Q442 -745 461 -744Q481 -741 491 -737Q507 -731 512 -717Q518 -717 519 -712Q519 -707 521 -704Q518 -699 514 -695Q519 -687 511 -684Q494 -686 489 -682Q463 -685 446 -694Q442 -697 431 -701Q418 -705 413 -711Q410 -712 395 -718Q387 -722 379 -726Q375 -732 367 -736Q360 -740 363 -747Q375 -750 386 -747Q401 -748 415 -750ZM300 -655L301 -653Q305 -647 309 -642Q313 -637 322 -638Q334 -632 332 -617Q331 -603 319 -596Q317 -592 309 -588Q304 -586 301 -583Q296 -579 264 -547Q259 -545 254 -534Q249 -525 243 -522Q227 -490 222 -456Q219 -452 222 -450Q226 -449 230 -451Q259 -463 288 -476Q319 -486 361 -503Q406 -519 449 -543Q482 -552 492 -553Q507 -560 523 -562Q532 -561 547 -567Q561 -572 568 -572Q579 -579 596 -583Q608 -585 616 -585Q631 -590 648 -593Q656 -592 665 -595Q673 -598 684 -596Q708 -605 724 -600Q740 -602 756 -599Q777 -597 791 -584Q803 -583 809 -576Q816 -569 823 -562Q824 -555 826 -550Q827 -549 829 -552Q834 -553 834 -548Q834 -542 832 -539Q839 -530 828 -519Q822 -504 816 -502Q812 -497 808 -498Q806 -498 806 -494Q797 -485 787 -477Q786 -474 784 -471L779 -467Q778 -463 775 -462Q772 -461 769 -464Q765 -463 761 -456Q755 -446 749 -445Q744 -444 741 -438Q738 -435 734 -440Q732 -439 726 -434Q719 -428 713 -429Q710 -426 701 -425Q692 -424 689 -420Q685 -415 683 -423Q679 -424 678 -426Q677 -429 682 -430Q684 -431 685 -433L691 -441Q699 -451 708 -455Q714 -463 716 -467L734 -491Q736 -495 742 -503Q744 -509 751 -518Q760 -530 762 -537Q765 -542 760 -546Q754 -550 748 -549Q738 -551 728 -553Q718 -548 704 -551Q690 -547 676 -545Q662 -544 648 -543Q615 -537 613 -537Q593 -534 576 -529Q544 -519 511 -509Q485 -504 461 -492Q440 -487 418 -482Q415 -480 406 -479Q396 -477 392 -473L316 -448Q293 -438 290 -435Q286 -433 264 -419Q261 -416 262 -411Q263 -407 260 -406Q242 -403 227 -399Q223 -402 217 -398Q212 -394 208 -398Q204 -399 196 -405Q189 -411 185 -412Q170 -422 166 -434Q167 -437 162 -442Q158 -446 160 -449Q154 -457 164 -474Q165 -505 182 -531Q188 -557 201 -576Q204 -579 208 -580Q212 -582 212 -587Q218 -600 233 -609Q243 -619 253 -624Q286 -648 288 -649Q290 -651 294 -651Q299 -651 300 -655ZM464 -382Q468 -381 471 -380Q474 -381 476 -377Q478 -373 481 -374Q488 -367 498 -369Q519 -369 525 -365Q521 -355 523 -349Q521 -337 525 -332Q517 -326 519 -313Q519 -306 522 -305Q530 -306 537 -310Q549 -312 560 -315Q575 -317 589 -320Q591 -319 594 -321Q596 -323 599 -322Q609 -326 618 -323Q636 -330 656 -329Q676 -327 681 -322Q688 -327 694 -322Q699 -317 706 -315L721 -300Q727 -297 729 -290Q731 -284 734 -278Q733 -274 736 -268Q739 -262 738 -259Q741 -253 736 -243Q731 -233 733 -226Q725 -215 724 -213Q724 -203 718 -194Q710 -180 700 -167Q690 -154 685 -139Q665 -119 663 -106Q660 -112 655 -108Q651 -103 649 -101Q641 -90 631 -84Q619 -71 606 -62Q600 -64 592 -59Q584 -54 578 -55Q574 -49 570 -49Q565 -49 561 -54Q553 -52 547 -61Q541 -65 532 -63Q522 -61 525 -52Q521 -44 523 -28Q525 -13 523 -7Q517 1 521 10Q517 20 516 46Q515 67 511 79Q508 83 506 92Q505 100 501 104Q500 112 496 118Q492 125 485 120Q478 121 475 116Q471 110 473 102L479 74Q477 67 479 53Q480 44 479 37Q480 32 480 2Q481 -18 481 -38Q479 -40 479 -48Q480 -58 475 -61Q467 -60 458 -59Q444 -61 429 -63Q423 -65 400 -80Q393 -78 388 -82Q382 -86 376 -87Q370 -93 353 -103Q335 -114 328 -124Q328 -128 324 -134Q320 -140 322 -144Q319 -150 325 -159Q331 -167 328 -172Q324 -181 327 -192Q330 -202 334 -212Q344 -224 344 -231Q347 -238 347 -253Q347 -260 353 -261Q356 -261 356 -256Q362 -252 366 -260Q369 -267 364 -273Q370 -284 381 -288Q389 -297 398 -297Q405 -303 405 -294Q413 -276 408 -256Q411 -249 407 -245Q404 -240 403 -235Q398 -225 394 -214Q395 -207 390 -194Q386 -185 386 -180Q384 -166 379 -153Q382 -133 387 -114Q388 -111 389 -113Q392 -118 393 -114Q394 -105 403 -104Q412 -103 419 -101Q433 -91 440 -90Q462 -90 478 -98Q477 -109 479 -121Q481 -125 475 -134Q478 -144 466 -146Q457 -147 424 -159Q421 -173 422 -174Q446 -173 466 -178Q481 -176 475 -203Q482 -241 474 -254Q473 -254 452 -257Q441 -259 433 -264Q424 -264 423 -268Q424 -270 429 -269Q454 -279 479 -289Q485 -304 481 -323Q481 -332 481 -340Q481 -349 475 -355Q470 -362 464 -370Q458 -378 464 -382ZM638 -283Q614 -279 590 -276Q568 -273 545 -267Q535 -265 527 -260Q519 -259 518 -253Q517 -246 519 -240Q513 -218 514 -197Q512 -177 531 -175Q535 -169 542 -165Q549 -161 548 -153Q549 -146 544 -142Q539 -138 532 -139Q521 -140 521 -131Q520 -122 521 -114Q518 -101 542 -108Q546 -106 555 -107Q565 -108 568 -103Q573 -107 580 -108Q580 -104 587 -102Q598 -104 599 -104Q606 -107 605 -114L623 -133Q633 -146 642 -160Q649 -168 648 -183Q654 -184 655 -190Q656 -195 659 -200Q662 -203 662 -210Q662 -217 665 -220Q665 -227 670 -237Q675 -247 675 -253Q672 -260 672 -271Q671 -281 660 -284Q651 -286 638 -283Z"/>
</svg>