<svg xmlns="http://www.w3.org/2000/svg" viewBox="0 -800 1024 1024">
	<path fill="#000000" d="M534 -680Q542 -679 550 -676Q557 -673 565 -677Q585 -676 605 -676Q616 -673 627 -670Q634 -671 647 -663Q657 -660 665 -653Q669 -643 659 -631Q660 -628 655 -626Q651 -624 651 -621Q645 -620 635 -622Q621 -626 605 -632Q579 -644 563 -654Q555 -661 546 -666Q538 -671 534 -680ZM372 -408Q372 -409 371 -410L368 -414Q368 -415 367 -416Q369 -425 371 -434Q371 -445 386 -458Q395 -475 409 -490Q417 -494 427 -504Q439 -516 445 -519Q451 -523 456 -524Q455 -528 461 -530Q465 -531 466 -533Q469 -537 472 -536Q475 -535 474 -529Q473 -525 477 -519Q479 -513 473 -505Q469 -499 469 -494Q466 -486 462 -478Q462 -470 455 -459Q449 -449 448 -446Q450 -439 457 -441Q462 -443 467 -446Q480 -456 501 -466Q551 -496 612 -513Q662 -527 714 -537Q733 -541 751 -545L769 -547Q778 -547 787 -547Q811 -551 831 -547Q845 -542 858 -539Q863 -531 873 -529Q875 -526 883 -524Q892 -522 894 -517Q914 -504 911 -489Q916 -477 910 -463Q907 -459 905 -454Q902 -449 898 -449Q893 -454 890 -450Q888 -443 884 -439L862 -410Q856 -404 846 -404Q834 -395 830 -390Q823 -386 813 -382Q809 -380 799 -376Q796 -372 788 -372Q780 -372 778 -368Q788 -363 779 -345Q775 -344 773 -337Q772 -333 770 -331Q745 -327 719 -324Q698 -315 676 -315Q674 -311 662 -311Q651 -310 663 -301Q671 -291 681 -282Q684 -280 685 -272Q686 -265 688 -263Q690 -253 691 -244Q696 -234 698 -224Q703 -207 700 -195Q699 -186 694 -181Q699 -177 699 -172Q699 -168 700 -163Q698 -152 699 -144Q696 -131 698 -118Q697 -110 695 -103Q699 -99 699 -88Q696 -74 695 -61Q695 -59 689 -48Q690 -41 693 -34Q695 -26 688 -20Q688 -14 687 -10Q686 -9 684 -10Q680 -8 678 0Q676 6 673 10Q668 11 666 16Q664 21 660 26Q660 30 650 33Q647 38 643 42Q641 42 641 40Q631 35 626 30Q623 30 621 24Q618 17 613 18Q607 12 601 6Q596 -8 582 -14Q582 -20 586 -19Q589 -19 592 -19Q601 -27 614 -24Q623 -28 625 -47Q628 -96 631 -145Q636 -190 632 -235Q634 -247 624 -280Q618 -287 612 -294Q605 -301 596 -301Q579 -300 562 -296Q531 -294 503 -302Q496 -304 488 -306Q485 -308 489 -312Q505 -313 516 -317Q527 -325 542 -328Q579 -337 615 -346Q653 -350 689 -363Q692 -365 700 -366Q707 -366 710 -369Q714 -371 724 -370Q734 -369 739 -373Q751 -369 768 -384Q780 -388 788 -400Q795 -412 805 -422Q809 -426 813 -432Q816 -438 823 -439Q830 -453 841 -466Q855 -498 837 -497Q812 -509 785 -508Q783 -506 776 -507Q768 -508 765 -504Q759 -505 748 -502Q735 -498 728 -500Q724 -496 713 -495Q702 -493 698 -490L663 -485Q645 -481 627 -478Q612 -474 600 -469Q572 -459 557 -455Q533 -445 522 -439Q518 -434 510 -430Q504 -432 498 -428Q465 -428 448 -438Q440 -436 439 -427Q437 -418 435 -410Q429 -407 431 -394Q433 -383 431 -379Q431 -375 429 -375Q425 -376 422 -376Q415 -367 408 -376Q400 -379 394 -386Q385 -398 372 -408ZM213 -467Q222 -466 230 -465Q253 -466 281 -452Q288 -440 294 -428Q291 -415 284 -405Q279 -393 274 -381Q267 -372 263 -362Q259 -352 249 -346Q250 -342 248 -342Q246 -341 243 -341Q239 -341 240 -337Q254 -330 269 -328Q276 -325 283 -322Q291 -316 284 -303Q277 -290 267 -293Q238 -291 223 -293Q202 -289 188 -291Q181 -290 174 -289Q161 -291 158 -271Q156 -270 152 -267Q149 -264 146 -269Q139 -270 135 -276Q131 -282 126 -286Q125 -290 117 -297Q111 -303 108 -308Q101 -312 101 -325Q101 -335 97 -340Q100 -370 104 -392Q112 -422 125 -451Q128 -455 130 -455Q135 -454 138 -449Q142 -443 145 -439Q157 -447 172 -454Q179 -460 213 -467ZM222 -427Q217 -426 210 -422Q198 -414 192 -417Q187 -415 176 -416Q167 -417 161 -415Q154 -418 151 -411Q148 -404 152 -399Q152 -383 154 -370Q152 -366 152 -354Q152 -343 149 -338Q145 -334 148 -329Q152 -324 156 -327Q175 -329 193 -335Q207 -345 215 -368Q229 -406 230 -408Q232 -414 231 -421Q230 -429 222 -427Z"/>
</svg>