<svg xmlns="http://www.w3.org/2000/svg" viewBox="0 -800 1024 1024">
	<path fill="#000000" d="M657 -680Q658 -679 664 -679Q669 -676 681 -677Q699 -678 703 -672Q712 -672 719 -667Q727 -665 746 -651Q763 -634 765 -625Q772 -621 773 -620Q777 -617 776 -613Q786 -601 795 -589Q798 -575 801 -562Q801 -545 805 -537Q809 -522 812 -508Q803 -497 806 -491Q811 -482 815 -473Q816 -465 819 -457Q822 -449 819 -440Q824 -431 824 -421Q826 -408 825 -394Q825 -374 827 -355Q831 -336 825 -318Q827 -313 826 -306Q829 -284 825 -263Q822 -261 821 -253Q821 -247 819 -245Q822 -240 821 -231Q820 -221 824 -217Q826 -202 824 -184Q826 -181 824 -176Q822 -172 823 -168Q818 -158 824 -143Q825 -135 818 -128Q823 -124 816 -114Q823 -100 818 -92Q819 -87 817 -78Q815 -68 818 -62Q818 -49 818 -37Q817 -19 812 -4Q810 -1 810 8Q810 16 807 21Q808 24 805 28Q802 31 805 34Q805 56 793 69Q796 73 791 76Q786 79 783 75Q775 67 739 44Q734 40 728 37Q722 34 723 29Q726 28 750 25Q757 24 756 18Q756 12 758 6Q756 -7 759 -32Q761 -50 761 -59Q764 -77 766 -95Q767 -124 767 -153Q767 -171 771 -182Q769 -194 773 -222L775 -266Q773 -269 775 -276Q777 -285 774 -289Q777 -327 772 -370Q773 -379 773 -388Q770 -429 767 -470Q764 -494 759 -526Q756 -530 755 -537Q753 -548 750 -551Q747 -564 734 -596Q710 -637 678 -640Q665 -643 648 -644Q639 -642 604 -642Q589 -639 559 -635Q554 -634 504 -620Q474 -610 443 -601Q427 -597 410 -594Q408 -592 402 -589Q394 -586 391 -581Q379 -583 372 -580Q355 -583 340 -581Q337 -585 329 -586Q322 -586 320 -589Q327 -597 336 -599Q350 -610 367 -617Q384 -623 401 -631Q455 -647 509 -660Q536 -666 563 -673Q574 -673 585 -673Q601 -678 619 -679Q629 -679 638 -679Q648 -679 657 -680ZM240 -592Q242 -590 246 -579Q258 -568 264 -545Q270 -531 255 -512Q254 -509 253 -506L248 -491Q248 -489 246 -485Q236 -435 234 -425Q231 -408 228 -391Q230 -375 220 -343Q215 -320 210 -297Q207 -275 206 -255Q206 -253 200 -223Q204 -213 201 -192Q198 -174 200 -167Q200 -155 199 -143Q203 -121 208 -101Q207 -95 214 -86Q220 -78 221 -72L238 -57Q255 -46 277 -39Q281 -39 280 -34Q280 -30 282 -27Q287 -29 295 -27Q305 -27 331 -20Q333 -20 335 -20H344Q346 -20 348 -20Q377 -22 406 -24Q433 -26 459 -28Q470 -31 482 -27Q512 -30 541 -33Q544 -34 545 -31Q547 -28 549 -29Q555 -35 577 -33Q598 -33 619 -34Q648 -35 673 -30Q676 -30 676 -26Q676 -23 679 -21Q685 -29 693 -23Q689 -16 682 -7Q678 -7 674 -2Q671 2 668 2Q663 2 657 3Q646 6 640 3Q624 7 604 7Q591 4 579 6Q552 6 547 7Q540 7 532 6Q527 7 500 7Q483 8 468 5Q454 8 439 8Q424 8 409 8Q397 9 385 10Q382 9 375 11Q368 13 363 10Q355 8 345 7Q335 7 326 1Q321 2 315 -3Q309 -8 303 -8Q289 -22 283 -22Q278 -22 275 -16Q259 -16 245 -22Q242 -20 236 -24Q232 -26 230 -26Q212 -33 198 -44Q178 -57 162 -88Q159 -97 155 -106Q148 -125 148 -130Q144 -134 147 -144Q149 -150 148 -153Q143 -161 144 -169Q146 -177 148 -184Q147 -194 146 -204Q145 -212 148 -228Q151 -246 149 -255Q152 -267 154 -280Q157 -311 160 -342Q157 -348 163 -363Q162 -369 168 -377Q173 -384 171 -389Q171 -393 179 -440Q178 -444 183 -452Q188 -460 186 -465Q190 -481 193 -498Q204 -541 212 -556Q219 -561 226 -574Q234 -587 240 -592ZM461 -541Q485 -536 491 -535Q510 -529 515 -521Q520 -511 519 -505Q524 -496 535 -492Q538 -487 531 -481Q525 -475 526 -471Q521 -467 520 -456Q519 -447 517 -444Q519 -442 519 -436Q519 -428 525 -427Q530 -428 535 -430L555 -434Q560 -435 565 -437Q580 -437 594 -437Q619 -432 628 -427Q636 -427 641 -416Q641 -411 646 -410Q651 -408 651 -402Q660 -386 668 -371Q670 -363 670 -348Q668 -344 670 -337Q672 -330 671 -325Q673 -308 674 -292Q674 -282 673 -273Q674 -271 674 -262Q674 -251 677 -247Q673 -229 674 -212Q673 -202 672 -193Q669 -190 669 -183Q669 -175 667 -173Q663 -159 658 -145Q656 -142 654 -134Q652 -126 648 -122Q642 -117 644 -110Q638 -100 624 -110Q617 -110 607 -120Q598 -129 592 -130Q588 -139 580 -147Q568 -149 563 -154Q566 -160 573 -162Q579 -164 585 -165Q589 -167 596 -168Q607 -169 610 -173Q618 -218 619 -247Q620 -268 621 -289Q620 -315 619 -342Q613 -358 609 -376Q610 -383 606 -387Q602 -392 599 -397Q592 -407 579 -407Q568 -407 554 -399Q542 -394 529 -390Q524 -391 521 -386Q518 -380 519 -376Q516 -367 518 -350Q520 -330 515 -321Q518 -317 528 -318Q536 -319 540 -317Q544 -311 547 -305Q542 -304 540 -297Q538 -291 537 -290Q534 -287 528 -286Q521 -285 519 -282Q516 -275 518 -266Q514 -262 518 -258Q521 -255 526 -257Q531 -258 534 -253Q537 -248 541 -248Q540 -234 528 -225Q520 -224 520 -211Q517 -199 517 -175Q514 -172 515 -161Q516 -152 515 -149Q512 -143 511 -136Q509 -129 503 -124Q489 -134 476 -145Q463 -153 464 -167Q465 -182 468 -195Q467 -199 468 -208Q469 -217 466 -221L445 -218Q438 -219 431 -220Q428 -220 425 -221Q417 -222 419 -227Q436 -233 452 -239Q464 -241 470 -251Q473 -264 470 -277Q458 -274 444 -284Q439 -283 436 -285Q431 -288 432 -292Q463 -302 469 -304Q473 -321 470 -342Q470 -351 466 -360Q459 -356 453 -355Q442 -355 431 -354Q420 -352 410 -356Q404 -358 402 -350Q400 -340 398 -338Q395 -322 388 -310Q381 -296 380 -280Q378 -263 376 -248Q371 -245 374 -236Q376 -229 374 -226Q376 -209 374 -193Q371 -178 372 -161Q371 -154 374 -149Q377 -145 380 -139Q386 -137 388 -135Q391 -132 387 -128Q383 -119 375 -124Q365 -128 355 -133Q354 -138 346 -142Q339 -145 337 -149Q338 -156 327 -171Q329 -193 333 -199Q334 -222 340 -246Q343 -278 356 -314Q356 -318 359 -325Q364 -333 362 -338Q370 -354 374 -369Q379 -378 383 -388Q387 -398 396 -405Q400 -406 406 -409Q410 -410 410 -406Q408 -394 417 -385Q430 -388 461 -403Q467 -406 467 -413Q466 -419 466 -426Q465 -433 465 -442Q464 -451 456 -453Q435 -447 409 -452Q402 -453 396 -449Q389 -451 382 -453Q375 -455 374 -463Q377 -463 417 -477Q440 -484 463 -492Q468 -512 460 -526Q451 -532 461 -541ZM571 -530H576Q588 -529 600 -528Q616 -529 628 -522Q634 -521 633 -514Q632 -508 628 -503Q623 -493 613 -499Q606 -501 599 -502Q589 -501 578 -507Q576 -512 567 -514Q558 -516 556 -522Q558 -523 560 -524L567 -528Q569 -529 571 -530Z"/>
</svg>