<svg xmlns="http://www.w3.org/2000/svg" viewBox="0 -800 1024 1024">
	<path fill="#000000" d="M599 -754Q608 -755 613 -751Q617 -746 623 -742Q630 -739 633 -735Q643 -722 638 -718Q637 -705 640 -689Q639 -680 637 -672Q634 -660 630 -651Q630 -634 629 -617Q626 -615 625 -610Q624 -605 622 -604Q614 -597 619 -590Q618 -588 615 -588Q611 -588 611 -585Q613 -582 610 -577Q608 -573 609 -571Q609 -561 611 -553Q610 -547 609 -542Q608 -527 607 -513Q605 -499 598 -487Q595 -479 588 -484Q580 -476 571 -466Q567 -464 560 -471Q556 -474 553 -475Q549 -472 541 -484Q534 -494 545 -500Q542 -506 551 -509Q551 -514 551 -521Q551 -528 544 -529Q555 -553 559 -573Q565 -621 573 -668Q572 -675 574 -694Q576 -712 573 -723Q574 -732 567 -734Q559 -736 554 -737Q550 -744 557 -746Q563 -748 571 -749Q574 -751 584 -750Q595 -749 599 -754ZM755 -598Q770 -596 778 -598Q783 -599 790 -595Q796 -591 800 -591Q803 -589 806 -588Q811 -587 811 -582Q819 -576 817 -562Q813 -547 812 -542Q800 -522 797 -508Q794 -495 783 -487Q777 -487 774 -482Q772 -476 769 -472Q764 -471 764 -460Q764 -453 762 -451Q760 -445 762 -439Q763 -438 764 -439Q767 -443 769 -441Q770 -440 767 -437Q765 -435 757 -435Q748 -435 745 -431Q719 -429 708 -429Q691 -428 673 -427Q667 -428 655 -425Q639 -421 632 -425Q630 -423 622 -421Q605 -418 587 -419Q578 -414 563 -416Q551 -416 538 -416Q529 -421 513 -417Q509 -415 503 -417Q494 -419 491 -417Q489 -421 484 -418Q480 -416 479 -417Q463 -412 451 -420Q448 -419 443 -422Q438 -425 436 -424Q421 -437 410 -453Q395 -466 392 -481Q396 -490 400 -500Q405 -523 420 -551Q426 -556 430 -563Q434 -571 441 -570Q448 -578 456 -573Q472 -571 474 -556Q478 -550 475 -542Q479 -523 476 -515Q473 -512 472 -502Q472 -495 469 -491Q463 -485 462 -477Q461 -468 460 -460Q455 -457 457 -451Q458 -446 462 -447Q495 -448 528 -449Q552 -451 576 -453Q587 -452 595 -455Q598 -454 604 -456Q610 -458 613 -455Q622 -461 635 -462Q645 -464 658 -464Q686 -470 713 -472Q727 -484 725 -494L730 -528Q736 -548 741 -570Q743 -577 735 -583Q729 -588 728 -591Q725 -594 726 -596Q729 -599 732 -594Q736 -597 744 -596Q752 -595 755 -598ZM273 -464Q278 -463 285 -464Q292 -466 294 -461Q306 -451 296 -442Q289 -430 277 -425Q272 -417 264 -415Q256 -412 249 -409Q243 -411 240 -407Q237 -403 234 -399L230 -361Q227 -353 227 -321Q227 -308 227 -295Q244 -312 258 -332Q282 -372 301 -413Q309 -429 311 -425Q301 -409 296 -383Q292 -375 287 -367Q286 -363 289 -362Q293 -360 293 -359Q286 -363 282 -356Q278 -349 285 -346Q282 -332 285 -328Q284 -320 276 -308Q271 -301 269 -295Q272 -288 268 -282Q265 -276 263 -271Q257 -261 253 -251Q252 -244 247 -240Q242 -236 236 -232Q237 -220 230 -211Q222 -203 217 -194Q213 -190 210 -180Q206 -167 200 -164Q196 -160 189 -166Q185 -170 183 -169Q171 -173 167 -178Q165 -182 159 -186Q153 -190 153 -192Q147 -197 145 -204Q143 -198 137 -206Q133 -211 142 -227Q152 -245 149 -277Q156 -293 165 -346Q165 -357 166 -367Q167 -377 162 -386Q150 -392 136 -393Q129 -400 117 -404Q111 -403 109 -408Q106 -412 109 -418Q135 -418 155 -428Q176 -432 169 -450Q171 -454 170 -461Q169 -468 172 -471Q170 -510 174 -547Q176 -554 169 -564Q163 -574 167 -580Q216 -580 228 -570Q245 -569 246 -554Q243 -541 246 -527Q237 -524 239 -510Q240 -500 238 -497Q238 -485 235 -471Q233 -465 242 -464Q248 -464 249 -462ZM686 -382Q701 -382 713 -377Q742 -365 736 -347Q734 -345 732 -339Q730 -331 725 -332Q721 -336 718 -332Q715 -327 719 -324Q715 -323 714 -320Q712 -316 711 -314Q704 -317 701 -308Q697 -309 696 -308Q695 -306 695 -304Q695 -297 689 -297Q677 -281 663 -266Q656 -263 648 -260Q645 -257 633 -251Q629 -252 624 -249Q618 -246 615 -247Q598 -243 580 -246Q575 -248 573 -244Q572 -240 572 -236Q571 -233 564 -226Q557 -219 556 -213Q553 -213 553 -211Q553 -207 551 -204Q544 -198 541 -188Q537 -179 534 -171Q530 -168 532 -158Q534 -149 529 -147Q528 -140 530 -128Q529 -114 534 -104Q540 -94 544 -84Q557 -74 572 -67Q589 -62 606 -57Q619 -53 637 -54Q668 -55 699 -56Q709 -56 719 -56Q737 -57 755 -59Q770 -60 787 -60Q809 -60 829 -64Q841 -62 852 -61Q860 -70 861 -82Q862 -93 865 -103Q867 -121 869 -140Q876 -155 873 -173Q873 -182 875 -170Q876 -160 877 -151Q873 -145 876 -135Q878 -126 878 -122Q883 -119 883 -114Q882 -110 884 -106Q882 -93 884 -89Q888 -87 891 -80Q894 -73 897 -72Q899 -74 901 -71Q902 -68 901 -66Q905 -64 918 -64Q932 -64 937 -60Q943 -54 940 -50Q937 -48 937 -41Q937 -34 932 -33Q926 -25 918 -24Q909 -23 900 -20Q889 -18 877 -16Q873 -16 868 -19Q858 -16 843 -16Q833 -16 824 -19Q811 -17 798 -18Q789 -19 775 -16Q772 -17 766 -16Q757 -14 754 -19Q749 -21 745 -19Q739 -16 729 -16Q722 -17 715 -15Q688 -14 661 -13Q631 -9 614 -19Q607 -22 598 -24Q589 -26 582 -32Q577 -29 562 -35Q559 -40 552 -42Q543 -45 540 -49Q523 -55 509 -68Q500 -81 490 -95Q489 -104 486 -113Q483 -122 485 -132Q483 -137 486 -145Q489 -153 488 -156Q492 -173 500 -194Q500 -202 508 -207Q512 -222 520 -233Q529 -245 536 -257Q530 -260 534 -266Q538 -271 543 -270Q554 -267 566 -281Q576 -277 584 -278Q587 -277 592 -279Q599 -282 602 -278Q616 -281 629 -285Q640 -281 642 -296Q643 -305 651 -320Q657 -332 659 -338Q660 -344 656 -344Q649 -344 643 -343Q625 -340 606 -338Q598 -336 584 -340Q574 -343 569 -343Q553 -347 545 -361Q551 -357 558 -362Q599 -368 640 -377Q662 -381 686 -382Z"/>
</svg>