<svg xmlns="http://www.w3.org/2000/svg" viewBox="0 -800 1024 1024">
	<path fill="#000000" d="M408 -697Q418 -698 429 -695Q435 -699 445 -693Q452 -689 456 -689Q458 -688 464 -690Q470 -692 473 -689Q475 -679 485 -674Q487 -672 488 -666Q489 -659 493 -656Q499 -639 499 -637Q496 -634 495 -629Q493 -624 488 -622Q482 -624 471 -619Q462 -615 456 -617Q438 -615 420 -617Q415 -617 410 -618Q379 -626 348 -671Q347 -675 340 -679Q332 -684 334 -688Q346 -688 358 -691Q374 -694 390 -692Q399 -694 408 -697ZM638 -614Q647 -614 655 -614Q662 -614 670 -613Q677 -612 679 -604Q676 -600 678 -592Q680 -584 679 -581Q662 -571 658 -568Q646 -558 633 -553Q623 -550 614 -550Q591 -548 581 -545Q565 -545 552 -541Q545 -538 531 -538Q514 -538 508 -534Q493 -530 478 -529Q452 -523 426 -518Q418 -519 416 -511Q414 -503 421 -498Q430 -493 424 -481Q425 -475 416 -460Q413 -448 409 -436Q401 -428 401 -418Q397 -415 393 -412Q388 -409 390 -403Q391 -399 386 -377Q385 -372 384 -365Q383 -359 388 -354Q395 -351 408 -358Q417 -363 423 -363Q440 -363 456 -370Q470 -378 487 -382Q498 -382 501 -390Q500 -394 503 -397Q506 -399 510 -398Q518 -403 530 -395Q540 -395 549 -396Q557 -393 568 -394Q575 -396 578 -391Q582 -386 587 -383Q598 -387 605 -369Q609 -364 604 -355Q600 -348 600 -345Q590 -334 577 -330Q573 -328 565 -330Q557 -332 553 -329Q533 -329 516 -323Q500 -320 483 -318Q459 -315 438 -309Q427 -311 421 -306Q407 -309 392 -313Q388 -316 380 -312Q373 -308 370 -311Q365 -317 351 -321Q336 -325 333 -334Q333 -342 325 -344Q319 -346 317 -356Q315 -367 310 -369Q306 -388 301 -393Q292 -402 302 -414Q309 -430 318 -443Q321 -447 324 -455Q327 -465 332 -468Q339 -490 351 -499Q351 -505 346 -504Q341 -503 338 -502Q319 -502 303 -498Q257 -494 229 -508Q226 -510 202 -519Q196 -525 206 -526Q239 -533 272 -540Q286 -544 299 -548Q317 -552 335 -556Q350 -559 364 -563Q370 -563 389 -570Q401 -572 412 -574Q413 -575 420 -575Q428 -575 429 -579Q428 -580 428 -581Q433 -582 442 -581Q468 -588 493 -595Q503 -598 515 -597Q521 -604 532 -601Q541 -602 552 -602Q556 -605 566 -606Q575 -607 579 -609Q599 -612 620 -613Q627 -609 638 -614ZM827 -320Q835 -320 842 -320Q849 -317 878 -313Q884 -312 890 -312Q897 -311 901 -306Q901 -303 907 -300Q914 -297 913 -292Q908 -288 906 -276Q906 -269 900 -264Q895 -259 890 -253Q885 -252 879 -244Q875 -238 872 -236Q862 -227 850 -224Q845 -216 838 -212Q834 -213 830 -206Q827 -200 824 -200Q814 -196 803 -197Q782 -183 769 -170Q761 -169 768 -180Q778 -192 788 -212Q800 -236 808 -245Q809 -249 814 -255Q821 -264 821 -270Q818 -277 810 -274Q803 -272 801 -273Q781 -273 739 -261Q719 -255 698 -249Q655 -230 626 -194L608 -175Q606 -172 600 -166Q595 -158 588 -162Q585 -167 570 -174Q553 -192 540 -210Q539 -232 559 -278Q564 -290 570 -300Q579 -300 583 -292Q588 -285 592 -278Q595 -266 598 -254Q596 -240 604 -236Q614 -237 630 -249Q649 -262 678 -277Q713 -295 729 -298Q733 -301 750 -303Q751 -303 751 -304Q750 -306 752 -308Q770 -311 788 -314Q793 -317 808 -317Q820 -317 827 -320ZM300 -248H303Q305 -236 306 -225Q306 -220 307 -214Q308 -208 315 -209Q318 -212 325 -211Q333 -210 335 -212Q346 -221 348 -234Q359 -247 371 -242Q380 -244 383 -235Q385 -229 385 -217Q391 -200 391 -197Q399 -179 409 -160Q412 -148 420 -137Q431 -120 446 -107Q466 -87 494 -73Q514 -65 533 -58Q535 -57 564 -49Q579 -47 593 -46Q621 -42 637 -41Q643 -40 699 -40Q701 -40 703 -40H710Q712 -40 714 -40H747Q753 -42 766 -40Q778 -38 785 -40Q792 -45 786 -52Q780 -56 770 -80Q763 -90 761 -101Q762 -108 769 -97Q784 -85 801 -74Q822 -65 853 -41Q869 -38 882 -24Q897 -18 890 -4Q884 -2 881 4Q879 9 876 15Q868 24 855 25Q821 19 803 21Q799 23 791 21Q783 19 780 21Q729 19 679 19Q651 18 623 17Q619 17 619 16Q618 15 621 13Q617 11 594 11Q586 9 578 9Q570 9 566 4Q551 2 535 -1Q518 -5 503 -12Q459 -27 406 -66Q393 -81 380 -97Q368 -112 364 -131Q358 -147 356 -170Q354 -174 354 -181Q354 -191 350 -193Q338 -187 331 -176Q315 -162 304 -146Q298 -134 285 -119Q280 -102 274 -86Q275 -79 269 -77Q264 -75 257 -77Q240 -72 230 -86Q216 -103 213 -121Q216 -133 219 -146Q235 -176 262 -212Z"/>
</svg>