<svg xmlns="http://www.w3.org/2000/svg" viewBox="0 -800 1024 1024">
	<path fill="#000000" d="M616 -741Q620 -742 621 -738Q623 -731 623 -730Q627 -726 634 -728Q636 -726 635 -722Q633 -716 634 -714Q639 -707 630 -703Q618 -699 606 -695Q596 -696 582 -692Q549 -689 501 -700Q498 -702 490 -702Q484 -702 481 -704Q485 -711 493 -711Q514 -721 537 -727Q551 -732 566 -735Q577 -735 590 -736Q594 -738 602 -738Q612 -738 616 -741ZM267 -662Q273 -663 273 -650Q273 -638 272 -626Q274 -613 276 -601Q278 -590 274 -582Q273 -581 271 -581L265 -578Q264 -577 262 -577Q255 -575 256 -568Q257 -561 256 -555Q233 -536 230 -520Q230 -516 224 -511Q220 -508 219 -505Q219 -501 212 -485Q198 -476 193 -457Q181 -443 187 -425Q190 -418 204 -410Q219 -401 223 -392Q231 -383 231 -370Q236 -358 237 -343Q241 -334 239 -319Q244 -292 240 -282Q236 -275 238 -267Q240 -260 240 -251Q237 -246 238 -234Q239 -223 237 -218Q237 -198 238 -196Q236 -187 238 -157Q235 -144 239 -129Q235 -119 235 -96Q237 -84 233 -80Q228 -78 223 -72Q219 -67 213 -71Q211 -73 206 -72Q201 -71 200 -75Q198 -84 186 -92Q176 -112 172 -121Q168 -138 173 -154Q174 -155 174 -158L176 -166Q177 -168 177 -170Q177 -185 180 -198Q179 -231 184 -259V-348Q184 -362 183 -376Q182 -389 173 -399Q171 -406 160 -418Q149 -430 148 -438Q142 -449 144 -462Q146 -474 149 -485Q161 -508 184 -540Q221 -592 222 -593Q224 -598 232 -608Q242 -620 243 -629Q255 -645 267 -662ZM780 -638H789Q811 -641 837 -632Q862 -627 883 -606Q897 -597 899 -569Q899 -566 898 -564V-555Q897 -553 897 -550Q897 -543 888 -525Q889 -519 883 -512Q879 -507 878 -504Q878 -498 873 -495Q869 -493 865 -489Q860 -480 854 -471Q850 -470 846 -469Q841 -468 839 -462Q839 -457 835 -456Q831 -454 827 -451Q825 -447 819 -443Q813 -439 812 -437Q808 -431 789 -417Q782 -404 772 -402Q767 -399 762 -398Q757 -397 754 -392Q751 -384 740 -382Q736 -380 733 -379L720 -372Q717 -370 713 -369Q704 -373 699 -368Q691 -368 684 -370Q677 -372 670 -368Q628 -370 587 -370Q572 -369 558 -367Q543 -368 530 -364Q513 -363 497 -366Q482 -367 469 -372Q452 -372 439 -382Q418 -383 381 -407Q368 -416 363 -429Q358 -442 353 -454Q351 -464 356 -489Q359 -500 361 -511Q369 -544 381 -554Q397 -582 417 -591Q436 -600 451 -616Q452 -612 449 -605Q444 -599 446 -585Q449 -574 442 -564Q445 -558 454 -558Q462 -558 469 -559Q477 -564 506 -573Q517 -573 522 -593Q525 -602 518 -614Q523 -621 540 -619Q549 -615 557 -596Q559 -589 566 -591Q572 -593 577 -595Q587 -604 606 -600Q619 -609 610 -623Q609 -629 612 -629Q618 -630 623 -625Q627 -625 633 -618Q640 -610 646 -612Q661 -619 679 -621Q694 -623 709 -628Q726 -630 743 -633Q761 -637 780 -638ZM775 -596Q761 -597 735 -591Q691 -583 684 -581Q671 -581 661 -573Q664 -560 662 -547Q663 -539 659 -530Q655 -518 655 -513Q649 -499 649 -490Q643 -484 643 -474Q643 -465 642 -456Q634 -438 631 -421Q628 -417 628 -413Q628 -408 634 -407Q644 -409 654 -411Q664 -416 667 -414Q696 -414 700 -415Q704 -417 710 -413Q716 -410 719 -411Q726 -419 731 -428Q745 -432 749 -442Q757 -448 763 -461Q776 -469 777 -470Q778 -478 789 -487Q798 -494 800 -499Q813 -520 825 -542Q827 -550 830 -558Q833 -567 830 -575Q827 -590 801 -597Q777 -597 775 -596ZM601 -566L593 -565Q575 -564 562 -554Q559 -546 557 -528Q554 -522 557 -512Q561 -501 559 -496Q555 -489 557 -479Q554 -476 556 -469Q558 -462 556 -458Q553 -455 551 -445Q550 -439 547 -435Q547 -423 546 -411Q545 -408 543 -404Q542 -400 548 -399Q565 -400 582 -401Q588 -400 590 -405Q592 -411 587 -414Q579 -419 582 -425Q586 -432 586 -439Q587 -448 596 -481Q598 -488 606 -533Q607 -536 607 -539L609 -551Q610 -554 610 -557Q611 -561 608 -565Q604 -569 601 -566ZM438 -555L435 -553Q428 -533 425 -528Q407 -508 411 -484Q405 -467 408 -447Q410 -438 412 -429Q414 -420 423 -414Q435 -406 447 -398Q461 -388 479 -392Q490 -394 501 -389Q516 -388 528 -395Q530 -401 524 -404Q517 -407 514 -411Q509 -418 503 -424Q497 -430 496 -438Q501 -460 506 -482Q508 -499 512 -514Q511 -520 512 -527Q513 -535 505 -534Q492 -528 479 -535Q469 -534 452 -547Q450 -547 445 -552Q441 -556 438 -555ZM711 -325H718Q724 -321 738 -319Q753 -317 760 -312Q776 -312 788 -295Q788 -275 780 -271Q776 -272 774 -269Q772 -266 772 -263Q772 -257 768 -254Q764 -251 760 -248Q746 -243 741 -229Q732 -226 725 -216Q721 -216 711 -211Q707 -210 702 -208Q697 -206 699 -200Q703 -199 712 -201Q720 -203 725 -202Q742 -203 758 -199Q763 -197 770 -196Q777 -194 778 -186Q769 -164 755 -159Q745 -152 737 -159Q724 -156 710 -153Q689 -151 670 -149Q664 -145 653 -145Q639 -144 635 -142Q630 -134 634 -118Q635 -109 643 -107Q652 -105 661 -104Q685 -106 708 -101Q726 -99 744 -97Q751 -94 758 -92Q760 -93 771 -88Q786 -84 802 -78Q809 -79 831 -70Q832 -69 844 -64Q851 -64 852 -57Q854 -50 851 -43Q827 -25 811 -26Q804 -32 792 -32Q778 -38 764 -45Q756 -47 734 -57Q714 -66 694 -70Q688 -73 674 -75Q664 -77 655 -81Q646 -86 636 -82Q630 -81 630 -76Q630 -71 631 -65Q633 -30 632 -19Q633 -9 629 11L626 23Q626 26 625 29Q627 49 607 51Q604 49 599 50Q595 51 594 50Q589 37 579 36Q573 36 572 31Q571 26 570 23Q560 17 567 10Q573 7 575 1Q576 -6 577 -12Q578 -23 579 -34Q581 -51 580 -66Q580 -78 577 -88Q567 -92 556 -79Q541 -70 537 -64Q521 -59 518 -53Q506 -50 504 -36Q497 -31 488 -37Q480 -42 477 -50Q478 -54 483 -60Q489 -67 489 -72Q503 -77 504 -86Q531 -121 535 -125Q535 -132 527 -132Q523 -132 515 -131Q485 -131 457 -126Q439 -125 423 -133Q411 -137 399 -142Q395 -145 397 -147Q402 -149 408 -149Q428 -153 447 -158Q477 -162 492 -166Q519 -167 545 -168Q561 -172 570 -174Q586 -175 586 -202Q586 -216 585 -231Q583 -257 586 -278Q589 -284 577 -293Q573 -297 565 -297Q554 -298 553 -302Q558 -308 570 -310Q585 -318 599 -315Q603 -311 613 -310Q625 -309 629 -305Q632 -304 636 -298Q642 -289 649 -290Q654 -287 651 -282Q649 -276 647 -272Q641 -264 645 -252Q638 -241 638 -227Q640 -224 638 -216Q636 -207 638 -203Q653 -213 667 -224Q676 -231 682 -241Q694 -247 699 -260Q700 -272 704 -283Q703 -289 698 -288Q693 -287 690 -284Q683 -280 678 -285Q673 -290 667 -293Q661 -297 664 -304Q664 -312 680 -312Q704 -324 711 -325ZM494 -273L498 -267Q503 -260 513 -259Q517 -256 523 -252Q529 -248 530 -241Q525 -234 531 -228Q538 -223 535 -216Q530 -213 529 -201Q528 -191 523 -187Q518 -185 513 -191Q509 -196 507 -196Q497 -197 494 -206Q487 -211 481 -223Q476 -233 473 -236Q472 -247 477 -256Q480 -258 484 -264Q489 -272 494 -273Z"/>
</svg>