<svg xmlns="http://www.w3.org/2000/svg" viewBox="0 -800 1024 1024">
	<path fill="#000000" d="M395 -705H417Q437 -702 456 -699Q477 -691 498 -684L510 -672Q516 -666 521 -663Q528 -644 506 -628Q494 -626 480 -632Q471 -631 462 -637Q432 -651 417 -660Q413 -665 398 -673Q389 -678 383 -683Q370 -691 356 -700Q365 -702 373 -704Q383 -698 395 -705ZM713 -646H721Q735 -644 748 -643Q787 -634 801 -624Q811 -615 822 -607Q833 -598 837 -586Q836 -571 834 -556Q830 -549 829 -539Q827 -529 819 -523Q817 -514 808 -509Q799 -504 791 -498Q775 -493 762 -483Q757 -484 750 -480Q743 -476 739 -476Q725 -471 712 -460Q710 -454 705 -455Q701 -456 697 -457Q687 -453 673 -451Q665 -445 660 -452Q677 -459 694 -477Q700 -484 706 -489Q713 -495 715 -502Q716 -503 720 -506Q725 -509 723 -511Q733 -522 739 -532Q745 -542 752 -551Q759 -561 761 -574Q768 -587 745 -595Q730 -600 714 -597Q686 -594 657 -592Q650 -588 634 -587Q621 -586 616 -584Q607 -585 592 -582Q576 -579 568 -579Q554 -576 540 -574Q518 -571 499 -566Q469 -562 441 -554Q421 -549 400 -544Q376 -540 334 -526Q326 -526 318 -524Q311 -522 305 -527Q283 -534 261 -541Q246 -541 231 -542Q241 -546 250 -550Q260 -552 270 -554Q309 -564 348 -575Q381 -583 414 -592Q484 -612 488 -614Q560 -629 577 -630Q624 -636 670 -643Q691 -646 713 -646ZM210 -604Q214 -605 218 -600Q222 -595 225 -597Q226 -594 231 -591Q236 -588 237 -586Q244 -580 240 -573Q236 -567 235 -560Q230 -554 226 -548Q221 -541 214 -538Q200 -516 182 -496Q179 -493 177 -482Q175 -468 168 -465Q170 -453 166 -441Q162 -436 159 -431Q155 -425 149 -424Q134 -420 130 -429Q129 -434 121 -440Q116 -444 114 -449Q114 -460 107 -471Q105 -492 116 -507Q118 -515 135 -542Q147 -554 158 -567Q168 -579 181 -586Q195 -596 210 -604ZM355 -451Q357 -449 358 -448L361 -447Q373 -448 379 -438Q381 -434 391 -428Q398 -424 401 -419Q414 -407 405 -391Q402 -389 398 -380Q394 -372 390 -370Q383 -362 377 -355Q370 -348 361 -344Q357 -344 354 -337Q351 -331 346 -330Q332 -316 321 -310Q316 -305 309 -300Q307 -297 311 -295Q337 -283 344 -255Q351 -244 349 -221Q353 -209 349 -196Q346 -184 351 -170Q349 -166 344 -132Q342 -114 337 -100Q337 -84 336 -69Q335 -57 334 -46Q334 -39 329 -26Q324 -16 325 -9Q314 -9 303 -6Q298 1 293 -4Q291 -12 280 -27Q280 -31 275 -37Q271 -42 270 -47Q266 -54 274 -74Q273 -86 278 -109Q282 -129 282 -140Q286 -160 290 -181Q290 -186 292 -212Q297 -226 297 -241Q295 -253 297 -264Q294 -275 287 -284Q277 -278 271 -278Q269 -275 260 -273Q252 -271 250 -267Q246 -266 243 -257Q241 -249 236 -247Q228 -249 223 -244Q222 -251 218 -256Q214 -260 211 -265Q211 -270 210 -274Q209 -279 212 -281Q215 -276 222 -287Q240 -297 242 -298Q240 -306 245 -308Q250 -310 254 -313Q252 -317 250 -321Q251 -325 260 -327Q267 -328 266 -334L278 -345Q284 -358 293 -366Q318 -393 325 -403Q340 -424 341 -426Q350 -438 355 -451ZM666 -437L683 -436Q691 -434 698 -433Q704 -430 703 -425Q702 -420 701 -415Q708 -399 692 -391Q681 -386 668 -384Q655 -379 642 -379Q634 -378 628 -373Q633 -368 638 -360Q643 -353 636 -347Q628 -337 619 -331Q609 -326 600 -318Q589 -314 581 -299Q587 -296 594 -300Q601 -304 607 -306Q616 -309 625 -313Q666 -323 672 -324Q701 -328 734 -323Q754 -325 773 -300Q788 -288 785 -263Q790 -255 792 -244Q791 -242 792 -236Q794 -227 791 -223Q794 -208 793 -195Q788 -181 792 -165Q793 -145 784 -125Q784 -116 784 -108Q777 -98 775 -88Q777 -74 771 -62Q765 -50 762 -38Q759 -34 758 -21Q757 -6 750 -1Q745 18 730 34Q731 41 725 46Q719 52 713 46Q708 50 704 46Q700 42 700 37Q692 23 688 15Q673 13 658 15Q613 10 595 13Q579 17 568 17Q548 17 539 2Q529 -9 520 -4Q508 4 501 -9Q492 -16 488 -39Q484 -42 484 -47Q484 -52 483 -54Q479 -61 483 -69Q488 -77 490 -100Q491 -115 494 -123Q500 -141 499 -160Q500 -169 501 -178Q512 -240 513 -243Q513 -249 516 -259Q521 -274 517 -281Q515 -277 512 -279Q508 -281 511 -286Q510 -290 516 -295Q521 -300 521 -304Q524 -311 537 -326Q553 -346 557 -359Q556 -366 550 -364Q544 -362 540 -360Q525 -358 495 -352Q471 -361 446 -370Q440 -376 432 -380Q474 -388 476 -389Q500 -394 539 -408Q581 -423 599 -427Q619 -434 642 -434Q654 -435 666 -437ZM699 -278Q683 -279 645 -267Q637 -263 628 -262Q621 -260 616 -265Q612 -269 607 -271Q594 -273 580 -274Q578 -271 573 -273Q568 -275 566 -271Q571 -242 564 -233Q563 -213 556 -188Q552 -177 564 -175Q581 -183 599 -186Q604 -188 638 -193Q649 -191 661 -190Q672 -190 681 -185Q686 -184 686 -181Q687 -176 684 -172Q684 -166 685 -160Q686 -154 678 -151Q673 -151 661 -148Q650 -145 642 -146Q626 -144 610 -140Q590 -142 568 -149Q564 -154 552 -156Q547 -138 549 -119Q549 -105 546 -92Q546 -77 545 -63Q542 -58 545 -49Q547 -43 547 -39Q545 -36 547 -33Q549 -31 552 -31L600 -33Q610 -35 619 -34H649Q672 -33 695 -32Q704 -39 704 -49Q704 -60 708 -69Q712 -88 715 -108Q721 -129 723 -148Q723 -162 723 -177Q726 -186 725 -198Q723 -241 715 -261Q711 -266 709 -272Q706 -279 699 -278Z"/>
</svg>