<svg xmlns="http://www.w3.org/2000/svg" viewBox="0 -800 1024 1024">
	<path fill="#000000" d="M517 -774Q535 -772 553 -771Q559 -766 566 -763Q573 -760 575 -752Q583 -744 578 -732Q581 -725 593 -724Q603 -723 607 -720Q615 -714 609 -708Q610 -698 595 -687Q571 -685 563 -680Q555 -663 540 -650Q534 -647 530 -638Q525 -628 520 -627Q513 -620 506 -612Q499 -604 489 -601L467 -584Q463 -577 455 -578Q447 -580 450 -587Q457 -596 474 -627Q486 -647 497 -664Q500 -668 499 -671Q498 -675 493 -673Q468 -670 442 -664Q436 -662 421 -662Q400 -663 392 -655Q389 -646 385 -639Q381 -631 381 -622Q373 -635 364 -648Q357 -657 344 -658Q326 -665 308 -666Q297 -664 293 -668Q291 -670 296 -673Q321 -680 346 -687Q352 -698 357 -718Q365 -736 377 -735Q383 -724 389 -713Q397 -705 404 -698Q416 -696 447 -706Q462 -706 476 -710Q485 -716 512 -721Q527 -719 531 -737Q531 -745 526 -744Q519 -743 513 -746Q507 -743 495 -744Q480 -745 474 -741Q465 -740 457 -739Q449 -737 444 -743L475 -760Q496 -767 517 -774ZM563 -616Q573 -614 580 -616L608 -610Q620 -610 627 -605Q636 -599 634 -588Q645 -585 659 -586Q667 -585 674 -585Q677 -587 683 -584Q689 -581 693 -583Q697 -568 681 -554Q661 -549 655 -549Q651 -547 633 -544Q623 -541 612 -539Q603 -537 596 -538Q585 -535 573 -532Q572 -527 577 -523Q582 -519 585 -515Q591 -505 587 -493Q581 -479 577 -463Q577 -458 573 -453Q568 -447 568 -442Q565 -433 563 -423Q561 -413 554 -406Q554 -402 552 -401Q543 -402 540 -413Q529 -421 526 -434Q522 -441 515 -449Q509 -457 513 -467Q521 -493 539 -510Q540 -515 547 -522Q554 -530 555 -535Q551 -541 538 -543Q524 -546 520 -551Q552 -563 586 -571Q593 -572 600 -575Q604 -578 599 -582Q579 -595 558 -607Q554 -607 554 -609Q554 -614 563 -616ZM290 -576Q296 -576 300 -571Q303 -565 306 -561Q306 -544 324 -559Q329 -560 333 -561L349 -566Q355 -568 358 -568Q370 -572 383 -574Q395 -572 408 -571Q421 -570 432 -562Q442 -560 444 -541Q440 -529 435 -519Q435 -514 429 -506Q423 -499 423 -494Q419 -485 414 -477Q413 -470 403 -459Q394 -450 393 -444Q392 -436 385 -433Q378 -431 371 -429Q365 -426 359 -428Q352 -425 345 -425Q338 -425 330 -428Q298 -428 283 -424Q284 -411 284 -399Q285 -393 283 -387Q281 -380 286 -376Q303 -378 328 -387Q357 -397 370 -399Q385 -404 399 -401Q413 -405 424 -399Q435 -393 437 -380Q440 -352 420 -319Q414 -312 408 -305Q406 -301 413 -298Q417 -280 406 -273Q396 -271 380 -273Q357 -275 347 -273Q327 -273 310 -270Q297 -270 283 -271Q282 -257 281 -243Q268 -239 264 -244Q246 -249 240 -275Q237 -284 233 -294Q236 -308 239 -323Q242 -336 241 -346L246 -388Q244 -390 246 -396Q248 -400 246 -403Q247 -410 248 -418Q248 -436 248 -454Q250 -462 239 -464Q233 -483 222 -500Q216 -506 227 -516Q252 -549 290 -576ZM377 -538Q361 -534 347 -528Q340 -525 332 -521Q324 -516 316 -517Q304 -522 292 -528Q286 -517 276 -509Q265 -498 261 -484Q271 -476 274 -463Q280 -457 281 -447Q283 -437 293 -441Q324 -449 354 -458Q364 -480 369 -495Q369 -501 374 -509Q380 -519 380 -524Q383 -529 383 -536Q382 -540 377 -538ZM717 -531H718Q723 -525 739 -523Q754 -521 759 -515Q771 -506 760 -493Q761 -488 754 -484Q748 -480 748 -477Q743 -475 736 -465Q730 -456 723 -455Q713 -440 699 -429Q693 -419 683 -423Q679 -419 680 -418Q685 -415 694 -419Q707 -416 730 -422Q748 -421 766 -421Q786 -416 789 -413Q792 -413 792 -412Q790 -409 786 -406Q782 -405 782 -397Q782 -392 781 -391Q778 -388 758 -386Q748 -383 725 -382Q700 -381 689 -377Q681 -378 672 -376Q669 -374 659 -373Q646 -372 644 -366Q648 -359 646 -346Q644 -332 649 -325Q653 -320 660 -321Q675 -322 685 -325Q707 -324 727 -321Q736 -323 741 -315Q746 -308 742 -299Q742 -293 738 -292Q735 -291 731 -289Q723 -293 713 -290Q686 -290 662 -285Q655 -286 652 -279Q649 -272 648 -267Q646 -244 646 -222Q650 -211 647 -201Q645 -192 644 -181Q639 -168 634 -155Q630 -140 617 -128Q611 -129 605 -128Q599 -127 596 -133Q602 -146 604 -164Q603 -175 605 -218Q601 -228 602 -248Q602 -268 599 -277Q587 -274 574 -271Q540 -265 507 -269Q496 -271 486 -277Q482 -278 482 -279Q484 -282 491 -284Q504 -286 516 -290Q552 -298 586 -309Q594 -308 600 -311Q606 -314 604 -322Q601 -328 602 -339Q603 -356 597 -360Q582 -356 565 -355Q556 -352 547 -352Q527 -352 491 -370Q498 -374 507 -375Q535 -376 563 -388Q567 -387 573 -390Q582 -393 592 -395Q601 -396 609 -404Q611 -412 623 -423Q634 -433 637 -439Q640 -446 650 -455Q661 -466 663 -473Q666 -477 668 -482L677 -500Q680 -504 682 -509Q684 -515 679 -517Q673 -518 671 -521Q672 -522 696 -527Q699 -530 706 -529Q713 -528 717 -531ZM375 -365Q351 -356 334 -354Q316 -351 292 -364Q287 -367 284 -363Q283 -362 280 -354Q279 -348 280 -329Q281 -309 278 -298Q274 -286 294 -293Q315 -301 362 -305Q375 -325 384 -357Q386 -362 383 -365Q380 -368 375 -365ZM528 -214Q540 -212 551 -211Q556 -213 562 -208Q568 -203 568 -197Q574 -190 564 -173Q563 -163 555 -159Q547 -154 539 -149Q527 -144 517 -135Q493 -114 489 -108Q493 -103 502 -100L508 -98Q510 -97 511 -97Q519 -93 526 -85Q548 -86 568 -90Q635 -95 699 -85Q705 -85 713 -83Q721 -81 720 -74Q705 -66 705 -54Q686 -49 663 -49Q651 -49 639 -49L568 -48Q567 -47 554 -46Q545 -45 546 -37Q548 -33 550 -14Q545 -2 547 14Q550 18 547 25Q544 32 546 36L542 61Q540 77 531 90Q518 95 510 108Q506 111 502 115Q498 119 493 115Q492 106 484 102Q476 99 468 94Q464 91 466 89Q473 86 478 83Q490 75 493 62Q496 49 502 38Q507 14 509 -19Q508 -30 506 -41Q490 -40 470 -37Q466 -38 459 -36Q451 -33 447 -35L422 -32Q402 -30 394 -28Q361 -30 339 -35Q320 -35 321 -42Q341 -50 367 -53Q391 -60 441 -70Q482 -77 493 -80Q499 -83 495 -88Q490 -92 486 -95Q479 -99 472 -104Q465 -109 469 -118Q468 -128 478 -140Q482 -145 495 -158Q499 -164 504 -169Q508 -174 504 -179Q486 -179 468 -179Q460 -176 454 -178Q450 -180 445 -181Q436 -182 434 -186Q452 -195 460 -196Q482 -206 528 -214Z"/>
</svg>