<svg xmlns="http://www.w3.org/2000/svg" viewBox="0 -800 1024 1024">
	<path fill="#000000" d="M651 -752H653Q659 -747 672 -749Q687 -756 700 -732Q701 -716 702 -701Q704 -695 700 -677Q698 -665 696 -653Q695 -649 694 -644Q692 -638 697 -635H733Q738 -636 740 -630Q741 -628 742 -620Q745 -605 729 -597Q726 -594 717 -593Q711 -592 707 -589Q690 -587 689 -580Q688 -564 687 -548Q685 -537 686 -527Q688 -523 696 -523Q704 -523 706 -519Q707 -515 711 -510Q714 -505 712 -499Q704 -486 686 -488Q681 -485 682 -479Q683 -474 682 -468Q680 -458 678 -448Q677 -443 674 -437Q671 -431 677 -427Q691 -429 705 -432Q718 -434 730 -437Q737 -435 746 -440Q750 -444 764 -439Q767 -436 773 -439Q779 -442 783 -440Q789 -439 795 -441Q801 -444 804 -437Q803 -434 806 -427Q809 -420 805 -416Q802 -410 798 -404Q794 -398 786 -398Q776 -396 766 -394Q754 -390 737 -390Q725 -386 708 -386Q699 -384 690 -382Q675 -380 659 -378Q652 -376 645 -376Q638 -376 633 -371Q621 -371 609 -371Q603 -372 594 -368Q587 -365 582 -365Q575 -368 564 -365Q556 -363 552 -363Q544 -359 529 -359Q511 -359 505 -355Q499 -356 485 -352Q474 -349 466 -350Q455 -351 444 -349Q433 -348 424 -353Q408 -360 391 -367Q388 -370 391 -372Q396 -374 402 -373Q431 -378 459 -383Q482 -386 505 -390Q516 -392 526 -394Q531 -398 544 -397Q557 -397 562 -400Q566 -400 570 -401L586 -403Q590 -403 594 -404Q601 -406 608 -408Q617 -411 619 -419Q622 -441 625 -464Q626 -471 622 -475Q618 -479 613 -475Q607 -477 593 -472Q582 -470 570 -468Q560 -466 552 -462Q547 -449 546 -434Q544 -423 541 -413Q542 -408 539 -406Q536 -404 532 -406Q523 -416 511 -418Q500 -426 489 -446Q490 -461 473 -470Q469 -473 465 -475Q460 -477 462 -481Q472 -479 480 -480Q489 -479 491 -486Q493 -493 495 -499Q494 -521 499 -549Q500 -557 492 -559Q482 -562 473 -565Q460 -567 454 -573Q451 -575 452 -576Q455 -577 457 -578Q461 -577 477 -582Q490 -587 502 -592Q504 -604 505 -617Q503 -622 504 -631Q505 -642 502 -646Q494 -657 492 -668Q491 -672 493 -673Q495 -674 498 -671Q506 -665 518 -667Q536 -663 552 -653Q559 -647 559 -637Q559 -627 562 -618Q559 -614 563 -610Q567 -606 572 -608Q592 -616 612 -620Q624 -623 636 -629Q636 -632 637 -634V-643Q638 -644 638 -647Q640 -669 642 -691Q644 -703 645 -716Q646 -723 647 -730Q646 -736 646 -742Q645 -749 651 -752ZM620 -574Q616 -574 615 -573Q600 -570 586 -566Q582 -563 575 -563Q566 -563 563 -559Q556 -543 554 -524Q553 -519 553 -514Q553 -509 559 -506Q569 -508 591 -512Q606 -516 622 -517Q625 -519 630 -538Q631 -550 632 -563Q633 -569 629 -573Q625 -577 620 -574ZM214 -562H218Q223 -555 236 -558Q246 -560 249 -558Q260 -565 270 -556Q279 -549 282 -536Q280 -526 283 -516Q281 -485 272 -456Q272 -447 277 -448Q283 -449 287 -456Q292 -462 297 -462Q302 -461 306 -462Q341 -471 352 -454Q359 -400 354 -376Q344 -341 330 -307Q323 -291 318 -275Q312 -259 299 -248Q299 -240 287 -230Q280 -224 278 -219L324 -201Q329 -197 341 -192Q356 -186 360 -181Q371 -176 375 -165Q378 -154 380 -144Q383 -136 379 -133Q374 -131 368 -126Q365 -119 359 -119Q348 -122 335 -130Q318 -143 298 -150Q278 -158 257 -167Q252 -171 246 -171Q230 -167 216 -154Q210 -148 192 -145Q171 -142 166 -132Q154 -136 141 -132Q191 -163 209 -183Q204 -189 182 -201Q166 -214 160 -229Q152 -249 168 -261Q174 -270 180 -282Q185 -293 182 -307Q152 -296 118 -290Q111 -286 102 -286Q81 -289 58 -295Q36 -307 23 -320Q39 -320 69 -330Q131 -341 192 -358Q202 -364 204 -387Q206 -406 209 -412Q213 -442 220 -475Q228 -508 214 -538Q205 -545 205 -551Q205 -557 214 -562ZM269 -443Q265 -411 253 -383Q251 -377 253 -374Q254 -372 259 -372Q268 -374 277 -376Q289 -376 304 -381Q307 -396 308 -413Q309 -430 295 -436Q282 -439 269 -443ZM424 -85Q414 -88 411 -87Q409 -86 404 -100Q412 -103 419 -106Q459 -109 463 -110Q480 -108 487 -123Q488 -130 498 -160Q505 -185 512 -211Q516 -223 520 -236Q525 -263 539 -285Q543 -288 544 -295Q545 -303 549 -304Q558 -308 569 -305Q567 -296 575 -292Q584 -292 592 -292Q612 -302 623 -305Q635 -308 647 -312Q654 -316 652 -323Q649 -329 646 -334Q641 -344 636 -354Q633 -356 635 -358Q637 -361 640 -359Q652 -353 661 -353Q689 -345 689 -329Q688 -324 693 -323Q697 -322 703 -323Q714 -329 733 -327Q737 -331 756 -333Q769 -335 781 -337Q784 -336 794 -337Q804 -338 810 -335Q819 -337 825 -332Q831 -327 838 -323Q848 -323 854 -313Q858 -305 871 -290Q876 -284 880 -264Q886 -258 886 -250Q886 -241 886 -233Q891 -228 891 -214Q891 -205 893 -200Q894 -184 894 -169Q894 -166 900 -165Q905 -164 907 -162Q910 -152 917 -142Q917 -136 913 -128Q904 -123 894 -119Q885 -121 884 -114Q883 -107 883 -100Q876 -82 877 -60Q875 -54 873 -41Q871 -24 867 -17Q864 -3 858 10Q854 35 826 56Q821 62 814 59Q810 57 805 50Q803 39 795 39Q785 39 786 31Q788 26 781 20Q775 15 776 11Q778 4 794 2Q813 2 821 -36L824 -45Q825 -47 825 -50Q828 -75 831 -100Q835 -112 826 -115Q799 -113 772 -112Q747 -110 721 -108Q709 -104 697 -104Q684 -102 671 -101Q659 -97 633 -97Q610 -92 603 -93Q595 -94 568 -87Q555 -91 542 -96Q536 -98 533 -93Q530 -88 530 -82Q519 -71 526 -55Q531 -47 526 -37Q530 -28 527 -17Q530 -11 523 7Q524 13 517 18Q511 23 510 26Q506 30 503 29Q500 28 498 23Q487 7 476 -9Q476 -13 470 -20Q464 -28 466 -34Q467 -45 468 -56Q469 -67 473 -75Q474 -82 469 -82Q463 -82 459 -82Q441 -83 424 -85ZM269 -323L240 -316Q227 -278 213 -240Q219 -231 242 -231Q266 -269 285 -318Q289 -324 284 -326Q275 -328 269 -323ZM786 -297H777Q729 -289 725 -288Q716 -286 707 -285Q697 -284 691 -276Q691 -251 691 -227Q694 -225 702 -226Q711 -227 715 -225Q723 -222 731 -219Q728 -214 730 -208Q736 -198 731 -195Q724 -195 716 -189Q710 -182 694 -187Q686 -188 685 -181Q685 -174 683 -167Q682 -162 679 -156Q675 -151 681 -146Q702 -148 723 -151Q738 -155 755 -155Q760 -153 774 -158Q786 -158 799 -159Q810 -158 820 -161Q828 -169 825 -182Q824 -184 824 -193Q824 -215 823 -237Q820 -262 812 -282Q804 -301 786 -297ZM574 -279Q568 -278 569 -272Q570 -267 571 -262Q574 -251 567 -239Q563 -229 561 -217Q557 -206 558 -193Q553 -186 549 -166Q546 -152 543 -145Q543 -135 538 -126Q541 -121 546 -122Q552 -123 557 -123Q570 -127 580 -128Q599 -131 618 -134Q623 -133 627 -136Q631 -139 630 -143Q630 -155 635 -167Q635 -173 637 -179Q638 -186 632 -189Q627 -189 618 -192Q610 -195 604 -194Q595 -197 586 -200Q591 -208 602 -206Q608 -211 624 -213Q639 -215 645 -219Q647 -222 647 -231Q647 -239 649 -242Q648 -250 649 -257Q650 -265 646 -270L623 -268Q609 -264 603 -270Q594 -277 585 -276Q580 -277 574 -279Z"/>
</svg>