<svg xmlns="http://www.w3.org/2000/svg" viewBox="0 -800 1024 1024">
	<path fill="#000000" d="M255 -638Q263 -635 270 -633Q287 -610 288 -587Q294 -573 288 -558Q291 -550 287 -532L285 -521Q287 -508 279 -497Q277 -491 282 -488Q286 -485 291 -489Q308 -484 327 -489Q339 -489 350 -490Q356 -487 365 -484Q373 -482 373 -473Q368 -470 368 -458Q368 -447 360 -444Q358 -437 345 -431Q331 -428 316 -429Q303 -423 281 -418Q276 -420 272 -409Q279 -389 270 -374Q269 -359 267 -346Q268 -330 264 -317Q256 -305 262 -296Q285 -315 308 -339Q316 -351 337 -372Q352 -388 360 -397Q384 -426 387 -430Q394 -440 398 -439Q402 -438 397 -425Q386 -390 379 -379Q375 -369 367 -360Q359 -351 352 -342Q351 -335 338 -317Q331 -310 314 -276Q302 -262 292 -246Q271 -225 252 -201Q244 -200 238 -187Q233 -175 226 -174Q219 -170 216 -167Q206 -170 198 -187Q192 -200 186 -204Q178 -206 177 -213Q177 -220 173 -226Q175 -240 178 -246Q187 -274 187 -280Q195 -311 199 -342Q199 -351 203 -365Q209 -386 206 -397Q195 -396 184 -395Q158 -392 135 -398Q112 -404 90 -411Q85 -410 84 -411Q84 -412 85 -412Q86 -413 88 -413Q121 -428 125 -429Q147 -433 169 -441Q190 -449 212 -456Q217 -456 218 -461Q218 -466 219 -472Q222 -492 220 -513Q225 -534 219 -555Q218 -569 218 -583Q217 -598 204 -605Q198 -606 191 -608Q185 -611 190 -617Q184 -624 174 -626Q171 -630 173 -631Q179 -632 185 -634Q194 -633 230 -635Q243 -636 255 -638ZM521 -625Q529 -624 537 -623Q573 -621 588 -625Q609 -623 630 -622Q637 -624 650 -619Q658 -615 663 -615Q671 -608 681 -605Q696 -605 700 -587Q693 -564 690 -558Q685 -559 680 -550Q675 -542 670 -544Q659 -539 647 -549Q615 -559 577 -585Q565 -592 552 -598Q539 -603 529 -614Q512 -623 521 -625ZM445 -445Q471 -449 491 -456Q513 -461 535 -466Q541 -469 550 -470Q564 -472 568 -475Q585 -478 595 -478Q609 -482 622 -484Q635 -485 648 -487Q667 -491 685 -496Q703 -499 720 -503Q741 -509 762 -515Q772 -516 781 -518Q784 -521 796 -522Q802 -522 806 -524Q813 -524 820 -525Q830 -529 841 -530Q857 -530 873 -531Q889 -521 901 -506Q898 -504 899 -496Q900 -489 899 -487Q901 -481 888 -481Q884 -470 873 -470Q861 -469 852 -465Q836 -463 819 -462Q803 -461 773 -453Q761 -456 754 -450L724 -448Q718 -447 712 -446Q688 -444 664 -437Q658 -435 662 -432Q671 -426 671 -425Q681 -418 681 -414Q689 -409 684 -403Q678 -397 675 -392Q671 -384 663 -378Q659 -373 667 -369Q688 -375 725 -373Q729 -371 733 -373Q737 -375 739 -373Q754 -376 766 -371Q798 -365 809 -352Q821 -352 824 -327Q827 -324 826 -318Q825 -312 826 -311Q827 -298 830 -286Q832 -275 828 -264Q825 -252 824 -241Q819 -224 813 -208Q809 -204 798 -173Q787 -157 780 -140Q762 -115 756 -109Q756 -100 746 -92Q736 -72 715 -66Q712 -58 705 -53Q698 -49 693 -43Q689 -44 685 -38Q681 -33 678 -33Q668 -23 657 -17Q653 -21 643 -19Q631 -17 629 -26Q621 -28 614 -39Q607 -49 602 -51Q598 -51 595 -58Q592 -65 588 -66Q589 -70 584 -73Q579 -76 579 -79Q585 -83 581 -87Q575 -91 571 -95L607 -88Q613 -86 624 -89Q635 -91 641 -90Q653 -92 664 -95Q696 -129 719 -176Q733 -204 755 -263Q761 -293 761 -297Q762 -317 751 -327Q740 -330 721 -330Q697 -330 688 -333Q665 -337 647 -345Q633 -322 593 -274Q552 -224 539 -218Q539 -212 531 -206Q525 -201 523 -197Q517 -194 510 -183Q503 -172 498 -171Q487 -147 467 -145Q463 -139 453 -135Q443 -131 440 -127Q436 -128 430 -124Q425 -120 422 -123Q428 -139 442 -154Q445 -164 458 -173Q474 -185 481 -201Q489 -217 499 -232Q502 -244 510 -252Q518 -261 525 -270Q550 -307 572 -345Q584 -367 593 -390Q603 -403 603 -417Q607 -423 601 -427Q595 -431 590 -426Q584 -427 579 -424Q573 -421 569 -421Q559 -418 549 -415Q545 -417 537 -413Q530 -409 525 -410Q507 -401 484 -405Q474 -405 464 -403Q453 -401 449 -411Q445 -411 440 -418Q436 -424 432 -423Q419 -428 422 -435Q426 -444 445 -445Z"/>
</svg>