<svg xmlns="http://www.w3.org/2000/svg" viewBox="0 -800 1024 1024">
	<path fill="#000000" d="M604 -619Q633 -619 640 -615Q648 -611 661 -588Q658 -573 662 -558Q663 -545 663 -532Q661 -520 658 -508Q659 -504 658 -500Q657 -495 662 -492Q697 -500 702 -502Q710 -502 722 -504Q742 -508 751 -505Q759 -508 767 -508Q781 -508 794 -503Q822 -502 844 -473Q854 -465 859 -453Q864 -449 864 -439Q864 -428 869 -425Q874 -421 872 -410Q870 -402 872 -398Q872 -387 871 -376Q868 -372 866 -359Q864 -346 859 -340Q855 -307 845 -290Q840 -272 835 -254Q826 -245 824 -229Q818 -221 814 -207Q804 -194 797 -180Q794 -169 787 -159Q781 -157 781 -149Q777 -136 769 -124Q763 -120 755 -104Q751 -96 746 -90Q732 -85 720 -65Q704 -59 700 -51Q693 -44 685 -44Q681 -43 678 -36Q674 -28 669 -30Q665 -35 655 -28Q647 -32 639 -37Q636 -41 635 -50Q634 -59 631 -62Q626 -65 623 -75Q620 -84 615 -87Q603 -97 595 -107Q591 -116 606 -108Q616 -107 628 -104Q641 -102 653 -101Q658 -98 675 -108Q681 -111 688 -120Q696 -129 700 -132Q709 -150 719 -167Q724 -177 731 -186Q737 -195 740 -205Q745 -212 750 -225Q758 -244 765 -252Q772 -279 776 -286Q782 -305 790 -322Q788 -335 796 -353Q799 -367 801 -382Q802 -391 802 -401Q800 -420 793 -434Q789 -444 778 -449Q776 -450 758 -456Q730 -456 723 -452Q704 -451 688 -444Q681 -446 668 -439Q658 -440 646 -430Q639 -419 638 -405Q631 -393 630 -379Q622 -373 621 -363Q620 -354 617 -345Q602 -321 592 -295Q585 -280 577 -266Q561 -256 553 -226Q539 -209 525 -192Q520 -188 516 -179Q512 -169 507 -166Q505 -162 498 -158Q489 -152 488 -146Q485 -144 480 -138Q472 -129 468 -127Q449 -118 433 -107Q426 -102 425 -107Q425 -113 434 -121Q440 -126 442 -130Q458 -148 482 -201Q498 -240 504 -250Q511 -270 538 -327Q549 -354 559 -381Q558 -386 563 -396Q565 -400 562 -403Q558 -406 555 -402Q545 -400 534 -398Q524 -405 503 -403Q484 -408 465 -413Q454 -422 438 -420Q433 -420 428 -421Q423 -422 423 -426Q443 -438 479 -443Q492 -446 505 -450Q509 -450 517 -453Q525 -456 532 -455Q548 -462 569 -464Q581 -467 583 -482Q587 -509 593 -535Q593 -556 593 -577Q588 -586 574 -590Q568 -592 552 -594Q550 -600 556 -603Q562 -605 567 -606Q583 -615 604 -619ZM104 -473Q113 -471 121 -470Q129 -466 137 -463Q157 -463 183 -451Q188 -450 192 -441Q195 -435 197 -433Q209 -432 222 -438Q232 -445 254 -453Q284 -462 285 -462Q303 -463 321 -458Q328 -458 334 -452Q340 -447 347 -441Q355 -431 355 -417Q356 -404 351 -391Q341 -387 339 -374Q333 -371 329 -366Q326 -360 322 -355Q318 -349 305 -339Q294 -331 289 -324Q289 -318 294 -318Q298 -318 304 -318Q312 -318 313 -313Q317 -309 313 -300Q310 -293 311 -289Q308 -282 301 -281Q294 -281 288 -279Q244 -273 204 -283Q197 -286 192 -285Q186 -285 186 -279Q186 -275 188 -269Q188 -262 191 -253Q193 -245 186 -241Q175 -242 167 -249Q159 -256 152 -262Q143 -266 140 -273Q136 -281 131 -287Q118 -295 125 -308Q126 -317 127 -327Q127 -335 130 -343Q128 -348 131 -371Q133 -381 135 -391Q136 -409 136 -427Q120 -448 119 -449Q114 -455 107 -461Q100 -466 104 -473ZM196 -420Q188 -416 194 -408Q190 -370 191 -348Q191 -339 191 -331Q189 -323 189 -313Q193 -306 203 -307Q214 -313 227 -317Q240 -321 247 -333Q271 -364 276 -385L279 -395Q278 -397 280 -403Q282 -410 277 -412Q268 -410 258 -408Q222 -412 213 -416Q210 -416 205 -419Q200 -422 196 -420Z"/>
</svg>