<svg xmlns="http://www.w3.org/2000/svg" viewBox="0 -800 1024 1024">
	<path fill="#000000" d="M574 -688Q585 -688 609 -680Q624 -678 636 -663Q638 -648 643 -643Q643 -620 643 -598Q642 -582 641 -567Q642 -558 639 -547Q639 -534 640 -533Q642 -530 650 -530Q675 -539 686 -539Q726 -547 749 -546Q764 -546 778 -541Q800 -540 818 -523Q829 -518 831 -504Q840 -499 840 -476Q838 -466 839 -455L819 -433Q817 -430 810 -426Q801 -421 800 -415Q794 -411 789 -406Q783 -401 776 -400Q770 -397 764 -395Q760 -395 757 -388Q754 -381 749 -382Q745 -385 742 -382Q739 -379 735 -378Q730 -379 723 -374Q717 -369 712 -372Q699 -372 691 -365Q686 -366 681 -361Q676 -357 673 -357Q661 -353 637 -336Q626 -332 623 -323Q619 -313 617 -304Q608 -283 598 -263Q596 -243 593 -224Q588 -215 588 -204Q586 -192 584 -181Q583 -164 582 -148Q582 -139 586 -129Q588 -109 606 -103Q620 -97 634 -91Q643 -91 656 -86Q667 -84 677 -82Q712 -82 748 -80Q754 -82 790 -82Q805 -82 837 -84Q847 -87 858 -87Q869 -87 875 -95Q882 -121 887 -129Q891 -140 895 -152Q897 -157 899 -156Q905 -151 907 -143Q910 -131 919 -120Q919 -117 928 -111Q935 -106 933 -101Q932 -89 945 -89Q951 -86 952 -81Q952 -76 958 -76Q965 -74 968 -68Q976 -58 968 -51Q962 -44 953 -42Q941 -30 934 -36Q911 -34 888 -33Q868 -34 832 -30Q815 -31 801 -30Q779 -32 746 -32Q713 -32 699 -37Q688 -38 678 -37Q667 -35 659 -40Q629 -44 595 -61Q555 -81 545 -103Q538 -111 533 -134Q526 -147 532 -158Q531 -175 546 -205Q559 -241 566 -251Q571 -266 576 -281Q580 -286 582 -298Q584 -311 588 -316Q599 -330 585 -342Q577 -336 571 -325Q571 -311 556 -292Q553 -277 537 -256L529 -245Q527 -243 525 -239Q519 -232 513 -223Q508 -215 499 -211Q495 -210 493 -200Q493 -194 486 -189Q476 -183 475 -180Q473 -176 465 -172Q460 -169 457 -166Q447 -158 440 -166Q443 -173 455 -201Q461 -217 465 -224Q471 -244 479 -261Q505 -321 513 -339Q518 -354 542 -404Q548 -414 551 -425Q550 -430 555 -436Q559 -441 559 -444Q552 -453 540 -443Q525 -442 513 -434Q501 -426 489 -421Q473 -415 457 -409Q449 -406 449 -398Q449 -391 447 -384Q448 -378 442 -374Q436 -370 431 -373Q414 -378 400 -385Q389 -395 378 -396Q379 -402 381 -420Q375 -420 374 -418Q372 -413 366 -417Q361 -420 358 -419Q350 -417 344 -423Q339 -428 332 -432Q317 -440 300 -440Q293 -438 280 -438Q263 -438 256 -434Q255 -414 254 -394Q257 -388 253 -373Q250 -361 251 -355Q250 -349 251 -342Q253 -331 250 -325Q255 -311 252 -293Q250 -291 252 -285Q254 -278 251 -274Q251 -261 254 -246L252 -223Q249 -218 251 -207Q254 -198 250 -182Q251 -178 249 -171Q247 -163 250 -159Q252 -148 248 -139Q244 -129 243 -119Q239 -112 232 -115Q226 -118 220 -117Q216 -121 209 -125Q203 -129 202 -135Q192 -143 195 -155Q189 -166 191 -184Q188 -190 188 -199Q193 -210 193 -233Q195 -253 196 -274Q199 -289 201 -305Q194 -323 203 -339Q204 -352 204 -366Q205 -375 208 -388Q207 -391 209 -400Q212 -411 207 -416Q195 -406 186 -396Q178 -392 175 -379Q173 -368 170 -365Q169 -360 163 -353Q156 -346 156 -343Q154 -340 153 -332Q152 -321 147 -320Q142 -327 134 -330Q126 -333 119 -336Q115 -337 112 -344Q109 -350 104 -353Q104 -356 101 -361Q97 -366 99 -370Q90 -382 96 -397Q95 -406 101 -416Q104 -418 106 -425Q109 -435 113 -436Q119 -440 124 -446Q124 -455 132 -464Q137 -467 141 -470Q149 -476 153 -486Q155 -489 156 -488Q159 -481 164 -477Q167 -467 170 -458Q172 -452 170 -440Q168 -430 170 -424Q172 -421 171 -415Q170 -409 173 -407Q192 -419 214 -437Q216 -455 216 -474Q214 -543 224 -590Q227 -594 225 -602Q223 -611 226 -615H228Q239 -608 249 -596Q252 -595 258 -588Q262 -583 267 -580Q271 -557 260 -539Q257 -532 257 -499Q257 -478 257 -458Q257 -453 259 -453Q267 -455 275 -459Q281 -462 288 -464Q294 -466 291 -472Q289 -478 289 -482Q290 -483 292 -482Q306 -476 320 -470Q325 -472 334 -468Q342 -464 347 -465Q371 -460 376 -457Q381 -453 385 -450Q387 -445 394 -450Q400 -457 405 -465L429 -494Q437 -504 440 -509Q444 -513 448 -521Q452 -529 456 -532Q480 -523 491 -497Q494 -490 489 -484Q483 -478 478 -473Q477 -469 480 -468Q483 -467 487 -469Q516 -485 547 -497Q561 -503 575 -509Q579 -532 578 -557Q576 -580 579 -604Q579 -622 579 -640Q576 -653 564 -661Q553 -668 539 -667Q536 -671 542 -675Q547 -678 551 -678Q552 -679 562 -684ZM736 -494H728Q715 -494 704 -490Q686 -488 679 -483Q668 -481 659 -478Q654 -478 639 -468Q629 -465 625 -453Q624 -450 620 -432Q607 -412 595 -391Q591 -379 609 -374Q616 -374 624 -363Q630 -354 635 -352Q642 -348 648 -354Q654 -360 659 -365Q665 -368 670 -372L691 -389Q697 -392 702 -396Q718 -412 735 -426Q738 -433 749 -445Q760 -457 763 -465Q776 -488 762 -495Q738 -495 736 -494Z"/>
</svg>