<svg xmlns="http://www.w3.org/2000/svg" viewBox="0 -800 1024 1024">
	<path fill="#000000" d="M490 -716Q513 -716 518 -715Q522 -716 538 -714Q547 -716 558 -710Q582 -713 596 -690Q595 -686 606 -675Q609 -661 596 -645Q589 -634 581 -624Q564 -615 552 -594Q549 -590 546 -584Q544 -578 551 -574Q560 -576 560 -562Q562 -553 551 -546Q521 -545 494 -541Q483 -542 468 -538Q453 -534 448 -534Q422 -527 414 -527Q400 -526 388 -528Q381 -534 365 -531Q353 -529 349 -531Q340 -528 335 -518Q334 -516 330 -501Q328 -490 325 -480Q317 -464 314 -447Q313 -437 309 -417Q305 -406 303 -396Q298 -391 300 -384Q302 -378 301 -373Q296 -368 294 -357Q292 -346 290 -343Q283 -330 278 -315Q279 -305 275 -298Q270 -291 265 -284Q263 -268 245 -240Q246 -234 237 -210Q231 -206 231 -200Q230 -194 228 -188Q223 -186 223 -181Q223 -176 222 -171Q211 -155 203 -137Q189 -127 181 -109Q173 -99 169 -86Q162 -71 154 -57Q156 -51 149 -48Q141 -45 139 -51Q124 -67 116 -85Q114 -88 109 -94Q102 -101 102 -106L137 -154Q145 -170 153 -187Q172 -222 190 -257Q190 -270 197 -281Q205 -291 210 -302Q215 -314 219 -327L237 -376Q237 -384 243 -401Q247 -414 248 -422Q254 -437 254 -453Q256 -459 266 -485Q268 -499 277 -524Q285 -545 287 -556Q301 -599 309 -612Q317 -627 325 -640Q354 -672 398 -685Q418 -692 438 -699Q448 -701 458 -704Q468 -708 490 -716ZM509 -668Q506 -668 493 -663Q477 -662 463 -657Q450 -655 439 -654Q428 -656 419 -655Q409 -661 396 -654Q373 -636 370 -614Q356 -595 351 -571Q347 -566 349 -560Q351 -554 358 -555Q365 -562 396 -570Q423 -577 436 -579Q447 -584 460 -581Q462 -584 477 -586Q484 -588 485 -595Q487 -602 489 -607Q499 -619 510 -638Q522 -654 524 -662Q525 -669 519 -669Q513 -670 509 -668ZM464 -518Q471 -511 474 -511Q472 -505 476 -504Q478 -504 478 -508Q497 -511 518 -512Q532 -502 531 -498Q529 -495 529 -487Q529 -478 525 -475Q523 -464 518 -455Q511 -432 507 -407Q506 -402 505 -397Q503 -401 500 -399Q496 -394 501 -389Q520 -375 538 -362Q551 -368 564 -374Q608 -388 651 -402Q658 -403 665 -405Q704 -416 743 -428Q752 -430 762 -433Q769 -431 775 -435Q781 -440 785 -444Q791 -447 797 -445Q816 -443 823 -438Q839 -448 858 -444Q866 -443 873 -443Q875 -441 880 -441Q887 -441 888 -438Q893 -435 893 -424Q902 -420 893 -414Q891 -399 876 -404Q861 -401 848 -401Q837 -400 832 -402Q832 -407 826 -406Q820 -404 820 -401Q808 -397 792 -396Q787 -397 778 -393Q771 -390 767 -391Q760 -387 745 -387Q737 -383 728 -387Q726 -382 723 -382Q711 -382 701 -372Q696 -372 690 -365Q685 -359 679 -360Q655 -330 649 -318Q650 -313 646 -304Q643 -299 644 -295Q639 -292 637 -285Q635 -278 633 -276Q629 -270 635 -267Q641 -264 646 -268Q663 -284 707 -316Q717 -321 726 -329Q735 -338 750 -337Q753 -338 760 -336Q767 -334 769 -338Q797 -336 804 -324Q807 -323 809 -319Q810 -316 813 -314Q823 -312 824 -305Q823 -300 827 -298Q831 -297 832 -294Q831 -289 834 -288Q837 -287 839 -284Q840 -272 849 -267Q850 -253 850 -240Q851 -238 849 -231Q847 -224 850 -220Q853 -196 848 -175Q848 -161 847 -147Q852 -136 850 -126Q843 -113 847 -105Q843 -99 843 -81Q842 -78 844 -72Q846 -67 843 -64Q840 -59 842 -51Q844 -40 840 -36Q838 -28 836 -20Q842 -15 838 -8Q834 -2 834 3Q831 16 828 28Q820 24 820 35Q815 38 810 40Q808 48 802 45Q796 41 792 36Q788 31 775 29Q772 25 770 20Q769 19 767 21Q766 25 762 23Q757 21 756 22Q748 23 739 23Q738 19 730 18Q722 17 722 13Q716 9 720 5Q724 2 726 -1Q741 -8 754 -11Q768 -15 775 -19Q778 -19 778 -24Q778 -30 781 -31Q785 -52 788 -73Q784 -97 792 -129Q792 -162 797 -176V-197Q797 -206 797 -216Q797 -222 797 -229Q797 -280 775 -301Q771 -309 761 -309Q753 -309 747 -305Q737 -303 722 -291Q711 -282 703 -279Q682 -263 675 -252Q667 -246 669 -232Q672 -227 670 -221Q668 -214 661 -213L646 -221Q631 -233 619 -248Q614 -239 609 -230Q608 -222 594 -215Q589 -214 587 -219Q585 -223 583 -224Q580 -223 578 -227Q576 -230 574 -231Q569 -242 563 -253Q562 -268 563 -277Q563 -286 570 -293Q577 -299 583 -306Q602 -330 627 -354Q628 -358 623 -358Q618 -358 616 -356Q590 -351 563 -346Q556 -346 548 -346Q549 -339 549 -333Q547 -329 547 -320Q547 -310 543 -305Q543 -298 538 -299Q531 -300 526 -296Q521 -298 517 -293Q514 -289 512 -289Q506 -288 499 -295Q482 -303 473 -312Q469 -314 466 -322Q463 -329 459 -331Q448 -333 432 -343Q429 -344 426 -349Q424 -354 421 -354Q410 -347 414 -338Q418 -328 421 -319Q417 -311 417 -302Q414 -290 413 -277Q411 -274 413 -268Q415 -262 413 -257Q411 -255 412 -250Q414 -244 409 -242Q413 -230 408 -219Q409 -211 407 -194Q403 -189 405 -171Q395 -164 404 -153Q402 -147 402 -137Q402 -125 400 -120Q404 -115 404 -100Q402 -90 405 -78Q406 -59 406 -40Q406 -34 406 -29Q408 -25 405 -19Q403 -15 405 -13Q404 -8 400 -9Q396 -10 394 -14Q377 -9 368 -18Q367 -23 360 -31Q352 -41 352 -48Q340 -60 341 -74Q345 -91 349 -109Q350 -116 351 -123Q353 -149 354 -176Q356 -192 355 -197Q357 -200 356 -208Q355 -218 359 -222Q356 -235 357 -249Q356 -256 359 -267Q362 -278 362 -283Q364 -293 365 -304Q367 -320 371 -336Q379 -366 387 -375Q396 -379 405 -384Q406 -387 408 -386Q411 -384 413 -388Q422 -386 431 -385Q434 -385 435 -382Q435 -379 439 -379Q441 -377 446 -374Q453 -370 454 -366Q458 -359 466 -356Q474 -353 480 -351Q486 -344 493 -348Q497 -351 492 -355Q493 -358 489 -359Q484 -360 484 -363Q475 -368 471 -377Q465 -381 459 -396Q459 -408 455 -421Q455 -436 465 -458Q467 -470 455 -470Q444 -470 433 -470Q425 -472 416 -474Q411 -473 410 -478Q409 -481 410 -487Q423 -489 433 -496Q438 -498 443 -506Q446 -511 450 -513Q457 -515 464 -518Z"/>
</svg>