<svg xmlns="http://www.w3.org/2000/svg" viewBox="0 -800 1024 1024">
	<path fill="#000000" d="M540 -692H542Q552 -694 559 -691Q563 -690 571 -691Q582 -693 586 -689Q602 -694 610 -680Q605 -673 620 -669Q623 -672 625 -670Q628 -667 624 -662Q624 -658 617 -655Q609 -652 610 -647Q609 -644 601 -643Q595 -642 593 -640Q578 -637 563 -635Q560 -632 554 -634Q550 -635 548 -634Q533 -630 524 -633Q505 -626 483 -626Q473 -627 454 -622Q431 -616 419 -619Q408 -621 402 -620Q393 -626 381 -628Q370 -630 360 -633Q356 -630 361 -623Q365 -618 364 -615Q365 -609 363 -607Q361 -606 358 -603Q351 -597 353 -588Q354 -579 353 -571Q354 -565 350 -562Q346 -560 345 -557Q344 -552 339 -541Q333 -528 334 -520Q333 -504 331 -488Q329 -484 330 -476Q331 -464 326 -459Q328 -441 322 -424Q317 -412 318 -400Q313 -395 313 -383Q313 -372 311 -369Q308 -345 297 -322Q299 -312 296 -301Q290 -290 283 -280Q274 -232 257 -204Q258 -196 253 -184Q249 -175 249 -171Q242 -147 235 -123Q224 -109 219 -84Q208 -69 203 -53Q200 -43 197 -34Q189 -17 180 0Q175 2 172 8Q169 14 166 16Q162 20 157 13Q152 7 149 8Q116 -19 109 -45Q110 -55 123 -74Q133 -89 136 -99Q149 -121 178 -188Q183 -192 183 -203Q183 -211 186 -214Q199 -248 211 -294Q216 -304 220 -320Q224 -338 227 -344Q231 -355 236 -363Q238 -386 245 -408Q250 -417 253 -437Q257 -457 261 -466Q267 -507 275 -545Q280 -561 284 -578Q292 -607 318 -634Q324 -635 324 -642Q324 -649 328 -650Q340 -649 360 -657Q376 -663 386 -664Q419 -672 454 -676Q460 -677 465 -679Q470 -681 476 -678Q494 -684 508 -686Q524 -689 540 -692ZM716 -524Q733 -522 750 -522Q768 -523 781 -515Q788 -517 792 -512Q796 -508 801 -507Q804 -504 812 -501Q821 -498 825 -493Q848 -468 849 -457Q852 -447 851 -435Q851 -420 850 -405Q847 -391 841 -378Q836 -375 836 -365Q836 -353 827 -350Q821 -350 822 -344Q824 -338 823 -332Q811 -327 808 -312Q802 -309 800 -299Q797 -298 794 -292Q791 -287 788 -286Q782 -291 779 -285Q777 -279 774 -274Q770 -265 762 -261Q760 -244 747 -237Q746 -233 732 -219Q724 -218 717 -211Q710 -211 704 -200Q699 -192 697 -190Q692 -190 688 -182Q686 -177 683 -175Q681 -179 675 -175Q671 -169 666 -171Q662 -173 663 -179Q659 -181 656 -186Q652 -193 650 -194Q633 -198 613 -195Q607 -196 606 -191Q605 -186 605 -181Q604 -162 599 -145Q599 -124 608 -126Q619 -125 629 -127Q640 -129 650 -124Q659 -122 666 -118Q668 -112 667 -107Q665 -100 659 -100Q647 -90 633 -87Q628 -86 625 -78Q622 -70 618 -68Q619 -63 614 -62Q610 -61 606 -61Q605 -58 600 -52Q593 -44 594 -38Q591 -23 587 -10Q586 -6 582 -7Q578 -8 576 -6Q573 -8 569 -5Q564 -1 566 2Q571 3 583 1Q593 -1 599 0Q612 -5 647 -5Q661 -5 675 -5Q689 -3 706 -2Q723 -2 731 12Q727 29 724 34Q718 33 709 36Q696 40 690 38Q661 39 631 40Q613 43 594 45Q576 43 557 42Q546 46 539 39Q532 32 527 24Q519 17 511 9Q493 -9 524 -41Q532 -44 532 -59Q532 -72 535 -76Q532 -85 523 -85Q513 -85 505 -86Q496 -86 486 -87Q482 -89 474 -88Q462 -87 459 -91Q472 -97 487 -100Q523 -106 539 -112Q543 -118 544 -130Q546 -143 549 -148Q549 -161 549 -174Q551 -179 547 -183Q543 -187 537 -184Q527 -185 519 -183Q501 -183 490 -190Q478 -185 465 -195Q452 -207 434 -211Q431 -209 426 -207Q422 -205 418 -210Q413 -209 406 -214Q401 -217 396 -218Q380 -227 364 -240Q350 -257 350 -298Q349 -323 355 -345Q362 -368 368 -390Q372 -394 373 -402Q375 -414 381 -417Q385 -439 400 -456Q415 -472 425 -489Q437 -500 453 -493Q458 -478 463 -463Q466 -457 469 -459Q474 -464 479 -465Q510 -483 541 -493Q588 -508 605 -511Q619 -518 639 -518Q653 -522 682 -522Q706 -522 716 -524ZM734 -479Q729 -479 724 -479Q689 -479 671 -474Q648 -474 626 -466Q612 -466 600 -460Q588 -455 575 -451Q571 -451 570 -448Q570 -444 575 -441Q585 -447 594 -436Q602 -433 605 -426Q607 -420 612 -413Q609 -397 609 -382Q615 -362 608 -346Q605 -337 615 -325Q625 -312 620 -303Q613 -304 610 -300Q607 -296 608 -290Q599 -270 603 -255Q599 -239 610 -233Q638 -238 654 -244Q664 -243 674 -252Q677 -255 689 -271Q700 -285 711 -299Q713 -304 723 -315Q734 -327 736 -336Q756 -374 766 -392Q778 -415 782 -427Q788 -449 780 -466Q754 -484 734 -479ZM472 -456Q465 -457 465 -444Q455 -412 456 -400Q456 -381 449 -372Q444 -357 441 -342Q440 -327 438 -312Q436 -308 436 -301Q438 -296 436 -288Q434 -279 436 -274Q433 -243 449 -236Q467 -233 481 -224Q490 -219 499 -214Q514 -216 529 -218Q535 -220 543 -220Q551 -221 556 -228L558 -286Q561 -298 551 -298Q541 -299 533 -302Q522 -300 512 -306Q501 -313 491 -316Q503 -320 530 -322Q534 -324 544 -326Q560 -328 565 -335Q568 -362 566 -368Q567 -382 568 -396Q568 -409 568 -422Q568 -435 555 -439Q545 -439 535 -439Q527 -442 518 -442Q509 -443 503 -450Q497 -448 487 -453Q477 -458 472 -456Z"/>
</svg>