<svg xmlns="http://www.w3.org/2000/svg" viewBox="0 -800 1024 1024">
	<path fill="#000000" d="M474 -763Q484 -763 494 -763Q499 -762 509 -762Q522 -762 529 -758Q535 -754 543 -750Q550 -746 553 -738Q559 -732 552 -727Q554 -719 550 -713Q545 -708 541 -702Q540 -695 531 -685Q524 -678 522 -674Q522 -671 518 -667Q514 -662 513 -659Q509 -657 505 -649Q502 -641 497 -639Q495 -635 491 -631Q487 -627 489 -624Q506 -626 522 -632Q534 -634 555 -641Q584 -650 600 -651Q611 -653 622 -655Q650 -662 667 -652Q673 -653 673 -648Q673 -642 676 -638Q677 -638 678 -638Q676 -631 669 -628Q659 -608 644 -613Q631 -607 614 -607Q605 -608 592 -603Q579 -598 572 -598Q554 -595 535 -593Q526 -584 513 -583Q508 -581 501 -574Q490 -564 483 -562Q475 -561 464 -564Q450 -568 443 -566Q441 -567 434 -564Q427 -561 424 -564Q421 -559 416 -560Q412 -561 407 -559Q402 -560 397 -556Q391 -552 388 -553Q370 -551 352 -550Q331 -540 310 -539Q300 -534 289 -529Q274 -522 257 -520Q245 -506 229 -513Q225 -514 213 -514Q199 -514 193 -518Q187 -517 186 -520Q184 -522 185 -525Q185 -532 192 -531Q201 -538 212 -541Q232 -546 252 -552Q272 -559 279 -557Q290 -560 301 -566Q322 -574 343 -582Q403 -599 413 -602Q425 -616 433 -630Q446 -644 460 -667Q463 -676 477 -711Q474 -717 468 -715Q461 -714 456 -713Q441 -709 425 -705Q401 -693 390 -688Q384 -684 377 -681Q370 -678 365 -670Q358 -667 353 -646Q347 -645 340 -646Q333 -647 329 -640Q330 -629 315 -631Q294 -645 292 -659Q286 -664 284 -680Q284 -687 290 -695Q295 -705 304 -713Q306 -721 312 -726Q318 -730 324 -736Q330 -739 333 -735Q336 -731 339 -727Q343 -717 347 -707Q358 -707 365 -715Q371 -719 419 -740Q434 -746 446 -753Q456 -761 474 -763ZM526 -554Q538 -547 544 -545Q551 -539 566 -545Q587 -548 608 -552Q614 -550 625 -551Q639 -552 643 -549Q659 -548 672 -544Q682 -534 694 -530Q703 -524 710 -513Q710 -507 714 -505Q717 -504 720 -501Q726 -479 723 -468Q726 -458 728 -449Q726 -427 727 -416Q728 -411 726 -403Q723 -394 727 -390L722 -349Q724 -344 721 -338Q719 -333 720 -331Q716 -326 715 -313Q714 -299 710 -294Q710 -289 707 -280Q701 -265 705 -256L699 -240Q695 -227 694 -223Q687 -213 682 -195Q671 -189 674 -178Q677 -177 696 -180Q710 -179 724 -178Q733 -176 737 -172Q736 -167 742 -162Q746 -159 746 -157Q737 -148 731 -147Q722 -133 706 -136Q703 -134 698 -134Q692 -134 690 -132Q675 -127 662 -127Q653 -123 643 -120Q636 -113 640 -104Q635 -86 638 -70Q643 -59 639 -50Q646 -28 640 -11Q640 -8 640 -6V4Q640 7 640 9Q639 21 638 32Q639 37 635 52Q637 69 626 80Q621 82 621 90Q621 96 619 99Q619 105 607 113Q598 119 596 125Q595 138 581 138Q572 138 567 129Q546 121 539 109Q526 106 518 95Q512 87 506 84Q508 81 516 82Q522 83 525 80H544Q552 79 561 80Q570 80 573 72Q581 50 583 27Q584 10 585 -7Q589 -49 585 -77Q584 -95 576 -107Q573 -106 563 -106Q557 -108 549 -104Q539 -99 534 -102Q516 -96 499 -94Q497 -92 489 -91Q483 -91 481 -87Q484 -84 492 -81Q503 -77 506 -71Q508 -66 515 -61Q525 -53 526 -49Q524 -42 526 -31Q525 -16 504 -16Q492 -16 486 -23Q466 -34 447 -55Q439 -65 426 -70Q414 -80 401 -76Q394 -76 387 -77Q377 -75 357 -79Q335 -83 325 -81Q319 -81 313 -80Q306 -80 305 -88L347 -106Q352 -105 360 -109Q370 -114 375 -111Q382 -117 397 -117Q400 -119 424 -124Q438 -128 452 -132Q465 -134 478 -136Q503 -140 528 -147Q549 -149 553 -155Q567 -154 595 -160Q598 -161 603 -162Q608 -164 606 -167Q600 -166 598 -170Q595 -175 592 -177Q584 -174 573 -183Q556 -185 513 -179Q505 -179 497 -179Q477 -181 459 -175Q441 -175 437 -174Q433 -176 426 -174Q416 -172 412 -174Q398 -174 383 -175Q372 -175 367 -174Q353 -177 341 -187Q324 -190 315 -204Q305 -217 297 -231Q286 -237 285 -248Q283 -259 281 -270Q282 -298 291 -327Q292 -333 302 -371Q306 -393 315 -415Q316 -426 327 -441Q337 -469 352 -500Q355 -508 368 -514Q383 -521 388 -525Q389 -533 396 -531Q403 -528 409 -526Q412 -520 417 -519Q419 -519 418 -523Q414 -527 416 -530Q418 -533 423 -534Q430 -530 455 -526Q460 -529 469 -525Q475 -512 486 -518Q493 -523 503 -525Q512 -527 515 -537Q518 -548 526 -554ZM422 -516V-514Q423 -508 418 -507Q410 -506 409 -505Q406 -500 403 -493Q401 -487 408 -486Q410 -489 419 -492Q426 -494 429 -499Q438 -501 434 -509Q429 -517 422 -516ZM613 -509L605 -508Q595 -507 584 -507Q574 -501 566 -499Q560 -499 558 -494Q556 -490 555 -486Q536 -433 546 -403Q545 -393 553 -387Q560 -382 568 -378Q572 -380 581 -375Q589 -378 596 -381Q599 -379 608 -379Q623 -376 637 -374Q652 -372 655 -369Q654 -357 645 -356Q632 -354 620 -354Q619 -350 612 -350Q606 -350 604 -346Q593 -350 579 -343Q574 -343 568 -338Q563 -333 559 -333Q553 -327 537 -319Q533 -311 541 -309Q548 -307 550 -302Q554 -293 545 -285Q540 -280 528 -275Q514 -274 500 -273Q497 -271 489 -272Q480 -273 477 -268Q455 -268 432 -278Q431 -280 425 -281Q419 -282 418 -286Q417 -295 424 -294Q432 -292 439 -294Q458 -297 477 -304Q492 -309 510 -309Q530 -317 554 -352Q552 -359 536 -364Q529 -370 521 -376Q514 -383 509 -392Q495 -410 495 -430Q496 -451 496 -472Q497 -479 494 -479Q489 -479 483 -476Q476 -468 474 -448Q472 -441 470 -431Q469 -422 461 -417Q460 -405 450 -396Q449 -383 442 -373Q442 -367 439 -365Q435 -362 432 -358Q427 -353 422 -358Q418 -362 416 -369Q416 -383 409 -396Q420 -427 430 -459Q430 -462 429 -462Q424 -460 417 -458Q416 -459 415 -460Q406 -459 396 -459Q382 -449 378 -434Q374 -418 370 -403Q363 -391 354 -350Q346 -323 342 -264Q339 -250 342 -238Q340 -230 348 -224Q354 -219 355 -216Q369 -208 383 -201Q439 -207 494 -214Q515 -219 521 -217Q538 -222 576 -224Q579 -223 582 -223L596 -221Q600 -221 602 -220Q604 -220 606 -220L615 -217Q617 -217 619 -217Q622 -213 626 -213Q634 -213 641 -229Q653 -271 659 -319Q661 -335 663 -351Q666 -383 669 -416Q669 -438 669 -461Q669 -494 643 -504Q629 -509 613 -509Z"/>
</svg>