<svg xmlns="http://www.w3.org/2000/svg" viewBox="0 -800 1024 1024">
	<path fill="#000000" d="M257 -662Q264 -653 280 -646Q307 -625 305 -605Q306 -590 295 -583Q284 -577 276 -568Q268 -563 260 -552Q252 -541 248 -538Q241 -537 237 -526Q234 -516 229 -514Q205 -505 197 -482Q198 -474 188 -464Q180 -456 178 -451Q171 -450 168 -443Q165 -436 162 -430Q157 -427 157 -423Q158 -421 162 -423Q169 -419 194 -427Q226 -434 265 -425Q293 -425 308 -416Q320 -414 320 -400Q327 -378 308 -365Q305 -357 296 -350Q290 -337 277 -327Q274 -327 269 -321Q263 -315 258 -315L194 -258Q194 -255 188 -250Q182 -244 186 -240Q199 -243 211 -239Q223 -235 236 -234Q244 -230 252 -226Q260 -222 264 -213Q273 -203 276 -186Q285 -172 278 -146Q280 -140 278 -132Q276 -123 278 -119Q276 -102 280 -87Q278 -74 277 -60Q274 -57 277 -50Q279 -46 277 -44Q279 -31 271 -23Q263 -15 249 -17Q241 -31 226 -36Q220 -48 211 -60Q201 -72 201 -87Q213 -128 220 -170Q226 -190 220 -205Q217 -212 211 -212Q210 -212 200 -209Q197 -213 193 -210Q189 -207 186 -208Q177 -206 167 -204Q157 -203 150 -197Q148 -192 145 -193Q141 -196 141 -203Q137 -205 136 -211Q135 -217 132 -220Q123 -244 123 -250Q130 -267 144 -280Q159 -293 173 -306Q192 -326 209 -341Q214 -344 223 -355Q233 -367 241 -371Q245 -377 253 -383Q261 -390 255 -399Q248 -402 232 -397Q220 -394 213 -394Q194 -387 173 -383Q159 -378 143 -388Q133 -394 118 -409Q106 -423 101 -439Q94 -464 117 -487Q128 -490 133 -498Q138 -507 144 -514Q147 -524 161 -539Q173 -551 176 -558Q185 -565 195 -581Q203 -594 208 -599Q236 -627 245 -640Q253 -647 257 -662ZM691 -585H702Q726 -577 740 -576Q741 -574 747 -567Q753 -560 754 -554Q757 -545 760 -537Q764 -528 763 -510Q762 -493 764 -486Q764 -443 764 -400Q761 -391 765 -371Q768 -356 766 -347Q763 -323 765 -290Q763 -279 765 -246Q764 -225 763 -205Q764 -191 761 -178Q763 -172 761 -162Q759 -150 761 -144Q760 -138 762 -129Q764 -117 761 -113Q767 -94 765 -78Q760 -74 762 -70Q764 -66 765 -62Q765 -58 761 -54Q755 -48 760 -43Q760 -40 762 -40Q765 -42 765 -47Q766 -48 767 -47Q768 -39 761 -34Q761 -36 760 -36Q759 -37 758 -36Q754 -34 754 -31Q753 -28 753 -27Q754 -27 756 -27Q760 -28 760 -25Q762 4 746 4Q746 0 739 -1Q733 -2 735 -7Q737 -13 733 -15Q728 -18 724 -13Q719 -26 712 -38Q705 -51 707 -66Q710 -78 704 -87Q698 -96 695 -105Q700 -131 701 -158Q707 -214 708 -245Q711 -295 713 -346Q711 -366 712 -387Q715 -397 712 -449Q711 -468 707 -488Q704 -510 705 -535Q706 -559 688 -576Q685 -579 686 -582Q687 -585 691 -585ZM496 -560Q511 -552 525 -544Q534 -541 545 -538Q555 -535 559 -526Q564 -521 564 -514Q563 -508 565 -502Q567 -493 569 -473Q568 -458 564 -444Q572 -433 569 -421Q566 -385 568 -377Q572 -371 570 -365Q568 -359 567 -352Q570 -349 567 -340Q564 -333 567 -330Q571 -328 571 -322Q570 -317 571 -313Q571 -309 577 -310Q587 -322 597 -335Q594 -326 593 -315Q591 -304 583 -295L576 -266Q568 -256 566 -243Q565 -230 563 -218Q567 -210 563 -192Q565 -175 555 -172Q550 -168 545 -171Q541 -175 535 -176Q532 -180 518 -190Q512 -188 507 -182Q502 -176 498 -172Q488 -159 477 -147L443 -111Q436 -98 427 -99Q417 -101 409 -110Q408 -115 402 -123Q394 -132 392 -136Q380 -148 395 -164Q403 -196 410 -229Q413 -242 418 -252Q419 -265 424 -279Q427 -286 422 -287Q416 -288 409 -287Q391 -292 386 -294Q372 -300 368 -310Q378 -313 388 -317Q395 -318 408 -324Q426 -332 436 -330Q449 -328 461 -330Q468 -329 476 -328Q485 -326 484 -317Q481 -309 474 -306Q467 -303 460 -300Q452 -298 449 -290Q447 -283 444 -275Q440 -264 438 -251Q437 -232 432 -214Q427 -197 435 -180Q442 -181 453 -192Q464 -203 471 -205Q474 -212 488 -222Q498 -229 501 -235Q510 -272 512 -310Q520 -357 521 -406Q519 -416 521 -438Q523 -456 521 -467Q519 -479 520 -491Q521 -504 516 -515Q516 -525 511 -531Q506 -537 501 -543Q494 -548 496 -560ZM844 -508L852 -507Q870 -499 891 -503Q912 -498 915 -493Q920 -489 917 -484Q914 -480 909 -479Q906 -472 899 -470Q893 -469 887 -467Q878 -468 867 -465Q852 -457 838 -441Q834 -440 833 -441Q837 -449 835 -457Q819 -459 802 -456Q779 -458 779 -472Q797 -479 804 -485Q823 -492 844 -508ZM433 -468H442Q450 -462 469 -462Q491 -462 498 -456Q507 -452 505 -442Q503 -435 496 -428Q485 -420 479 -421Q476 -423 472 -421Q468 -419 466 -420Q455 -415 447 -425Q424 -428 411 -439Q406 -439 401 -447Q396 -455 402 -457Q412 -455 433 -468ZM805 -381Q808 -382 821 -375Q839 -371 856 -368Q862 -364 873 -364Q883 -365 888 -355Q892 -346 890 -337Q894 -328 890 -318Q886 -308 881 -298Q878 -254 862 -210Q851 -197 862 -187Q866 -174 878 -168Q880 -167 913 -152Q919 -146 930 -142Q940 -138 937 -127Q939 -119 937 -111Q935 -107 930 -111Q914 -105 897 -107Q882 -115 868 -123Q854 -130 844 -143Q831 -152 821 -163Q810 -174 807 -189Q808 -192 808 -198L811 -215Q812 -219 812 -224Q821 -244 838 -300Q844 -311 844 -324Q844 -339 831 -338Q826 -341 821 -347Q814 -356 809 -358Q802 -364 800 -369Q796 -378 805 -381ZM741 -10Q740 -9 739 -8Q740 -5 742 -5Q743 -5 744 -4Q744 -5 745 -7Q744 -14 741 -10Z"/>
</svg>