<svg xmlns="http://www.w3.org/2000/svg" viewBox="0 -800 1024 1024">
	<path fill="#000000" d="M448 -706L457 -702Q468 -705 479 -700Q487 -700 494 -701Q520 -697 534 -694Q538 -687 552 -685Q554 -690 558 -688Q562 -686 566 -684Q572 -677 573 -668Q576 -657 577 -646Q574 -642 575 -635Q576 -629 581 -628Q588 -632 597 -634Q606 -633 615 -633Q634 -634 652 -636Q658 -634 666 -633Q674 -633 678 -628Q678 -622 683 -622Q687 -621 691 -620Q695 -619 695 -612Q695 -606 697 -605Q697 -601 697 -598Q698 -593 695 -591Q692 -590 689 -587Q681 -584 649 -579Q639 -576 628 -574Q588 -567 582 -567Q568 -561 553 -560Q546 -559 539 -559Q535 -558 510 -553Q508 -551 504 -552Q499 -553 496 -550Q466 -545 436 -540Q415 -542 396 -542Q380 -544 363 -547Q354 -552 347 -547Q356 -528 359 -507Q362 -489 357 -470Q351 -444 344 -420Q343 -400 339 -384Q334 -368 331 -350Q330 -325 321 -305Q318 -296 315 -287Q309 -283 309 -272Q309 -264 307 -260Q307 -256 304 -250Q300 -244 301 -239Q292 -230 295 -220Q285 -198 279 -194Q276 -177 269 -162Q266 -157 262 -146Q256 -129 249 -122Q249 -110 240 -97Q233 -78 224 -58Q214 -48 211 -38Q209 -25 196 -16Q186 4 174 16Q161 26 152 16Q150 17 149 16Q149 11 145 8Q140 -1 140 -12Q135 -17 137 -30Q131 -35 130 -43Q131 -47 137 -52Q143 -57 143 -61Q153 -77 162 -93Q171 -110 180 -128Q184 -138 188 -148Q190 -152 192 -156L200 -174Q202 -178 204 -182Q205 -189 212 -201Q219 -214 220 -221Q223 -225 225 -235Q226 -242 230 -246Q235 -264 242 -280Q245 -289 245 -299Q251 -302 250 -311Q249 -319 252 -322Q251 -327 256 -336Q260 -342 260 -347Q272 -352 270 -370Q275 -372 272 -378Q270 -383 271 -385Q269 -391 274 -403Q278 -412 278 -418Q282 -425 284 -432Q289 -433 288 -439Q287 -445 289 -447Q286 -449 287 -452Q290 -456 294 -459Q295 -461 292 -463Q291 -465 294 -470Q297 -474 292 -479Q294 -482 295 -490Q296 -500 300 -503Q308 -509 308 -516Q304 -521 312 -527Q319 -532 319 -536Q325 -541 331 -546Q337 -553 332 -557Q324 -561 319 -562Q323 -564 329 -564Q338 -564 341 -568Q348 -567 357 -571Q360 -575 369 -575Q379 -575 381 -579Q384 -579 387 -579L398 -581Q401 -581 404 -581Q417 -586 429 -588Q444 -588 457 -592Q467 -597 480 -597Q491 -600 502 -603Q506 -605 516 -605Q524 -607 532 -609Q541 -611 545 -619Q530 -626 516 -637Q507 -642 498 -648Q486 -655 472 -660Q459 -665 449 -676Q432 -693 421 -693Q416 -694 415 -699Q415 -701 419 -700Q432 -703 434 -702Q436 -705 442 -705Q447 -705 448 -706ZM562 -630Q557 -627 552 -624Q550 -621 552 -620Q558 -620 563 -624Q568 -624 567 -628Q565 -632 562 -630ZM603 -500L619 -499Q646 -496 668 -489Q673 -483 691 -483Q702 -483 706 -480Q712 -485 718 -473Q722 -467 731 -469Q735 -469 736 -468Q732 -462 734 -457Q736 -458 737 -455Q738 -449 735 -446Q715 -436 695 -430Q689 -431 685 -424Q684 -422 680 -413Q678 -399 672 -388Q673 -378 664 -369Q664 -360 660 -355Q656 -349 653 -343Q645 -323 636 -304Q633 -300 636 -296Q639 -292 638 -291Q630 -288 621 -276Q616 -270 611 -266Q608 -260 612 -259Q615 -257 618 -255Q633 -254 649 -257Q664 -259 676 -251Q687 -250 690 -239Q693 -236 691 -232Q689 -229 685 -232Q679 -222 669 -216Q666 -217 659 -212Q654 -208 650 -208Q635 -190 623 -184Q602 -170 613 -163Q628 -162 643 -161Q649 -157 653 -158Q660 -157 664 -142Q666 -140 665 -139Q661 -139 659 -136Q640 -130 617 -127Q587 -127 576 -135Q577 -139 572 -147Q568 -153 568 -158Q560 -164 559 -172Q551 -175 556 -183Q555 -192 563 -192Q566 -195 574 -199Q584 -203 587 -209Q591 -212 589 -214Q582 -216 576 -214Q567 -212 554 -219Q544 -224 540 -225Q533 -228 524 -228Q521 -228 522 -233Q537 -230 564 -239Q567 -241 577 -243Q587 -245 592 -250Q597 -252 599 -254Q599 -255 596 -255Q595 -259 584 -267Q584 -273 577 -274Q571 -275 564 -272Q543 -270 522 -269Q519 -273 517 -271Q514 -266 511 -259Q508 -261 505 -257Q502 -254 500 -256Q487 -250 482 -260Q478 -258 475 -262Q473 -266 471 -269Q462 -278 450 -286Q438 -295 437 -309Q441 -317 439 -328Q444 -346 448 -365Q439 -367 432 -364L409 -366Q405 -373 392 -378Q380 -383 376 -387Q373 -385 370 -390Q367 -394 365 -392Q363 -400 371 -400Q377 -399 383 -402L391 -406Q399 -410 403 -408Q407 -412 419 -414Q429 -416 434 -419Q449 -420 463 -425Q475 -429 479 -446Q479 -453 488 -462Q487 -468 491 -471Q496 -475 499 -480Q509 -489 515 -478Q529 -467 538 -454Q542 -450 548 -452Q555 -453 560 -453Q605 -469 608 -470Q614 -469 616 -472Q618 -475 613 -480Q608 -485 601 -487Q593 -489 591 -497Q597 -498 603 -500ZM604 -407L585 -404Q558 -398 556 -397Q534 -397 530 -382Q528 -356 519 -334Q520 -329 517 -319Q514 -308 516 -303Q525 -304 533 -306L549 -311Q561 -316 576 -312Q581 -310 582 -314Q583 -319 583 -325Q596 -359 609 -393Q610 -396 610 -401Q609 -408 604 -407ZM503 -238L511 -237Q511 -233 517 -228Q525 -222 523 -214Q524 -179 519 -142Q517 -139 516 -130Q515 -118 510 -113Q506 -104 507 -96Q528 -84 554 -79Q581 -74 607 -70Q619 -64 632 -60Q636 -61 651 -55Q664 -50 668 -50Q675 -45 682 -41Q686 -42 691 -39Q696 -36 700 -37Q737 -22 773 -11Q781 -12 813 -1Q817 3 822 3Q835 8 848 12Q862 19 875 28Q874 33 881 36Q887 39 888 41Q890 41 893 46Q897 52 901 51Q905 52 904 54Q898 59 901 65Q905 74 908 83Q904 83 900 83Q889 81 884 85Q868 86 855 79Q847 75 838 71Q832 70 825 66Q813 59 808 59Q791 51 773 42Q756 37 739 30Q730 25 719 20Q685 5 651 -11Q640 -17 614 -26Q589 -34 577 -41Q539 -59 506 -86Q500 -90 495 -85Q493 -83 487 -74Q483 -73 481 -67Q479 -61 476 -59Q471 -39 464 -35Q460 -27 456 -18Q453 -10 444 -3Q429 17 403 38Q399 38 391 43Q381 50 374 46Q375 38 369 31Q365 28 362 34Q357 33 356 28Q355 23 354 19Q348 7 361 0Q367 -8 379 -14Q384 -9 387 -20Q388 -29 394 -36Q401 -43 406 -50Q425 -80 428 -89Q452 -131 459 -161Q457 -168 459 -172Q462 -177 463 -183Q464 -205 477 -221Q481 -220 485 -227Q488 -233 492 -233Q493 -234 497 -234Q502 -234 503 -238Z"/>
</svg>