<svg xmlns="http://www.w3.org/2000/svg" viewBox="0 -800 1024 1024">
	<path fill="#000000" d="M406 -329Q396 -339 377 -345Q356 -357 335 -370Q324 -380 311 -379Q293 -370 280 -354Q276 -346 261 -342Q256 -338 242 -333Q237 -334 229 -327Q222 -321 218 -321Q214 -320 208 -316Q200 -311 195 -311Q193 -317 198 -321Q202 -325 206 -330Q229 -353 252 -376Q253 -379 258 -384Q266 -391 264 -396Q258 -402 245 -410Q234 -416 230 -420Q227 -426 219 -435Q208 -446 207 -452Q206 -456 209 -462Q212 -468 208 -471Q202 -469 187 -461Q182 -458 171 -466Q168 -470 159 -469Q152 -468 149 -472Q144 -473 134 -473Q121 -473 116 -476Q112 -478 113 -480Q116 -483 122 -481Q128 -488 149 -499Q156 -501 167 -507Q180 -515 186 -516Q201 -526 215 -533Q217 -536 224 -538Q232 -541 234 -545Q241 -569 261 -613Q273 -641 280 -670Q284 -683 287 -696Q286 -706 284 -717Q279 -723 273 -727Q266 -732 272 -738H292Q299 -734 313 -736Q330 -733 334 -732Q338 -731 340 -724Q342 -718 345 -716Q352 -711 349 -698Q342 -682 333 -656Q334 -646 329 -638Q324 -630 320 -622Q314 -605 304 -588Q302 -583 298 -576Q294 -570 301 -564Q308 -565 357 -578Q368 -578 374 -587Q375 -604 361 -620Q357 -625 352 -629Q346 -633 347 -639Q357 -642 366 -636Q380 -634 387 -630Q396 -632 410 -620Q415 -619 414 -612Q413 -605 417 -602Q427 -596 420 -583Q422 -565 420 -558Q419 -544 412 -527Q405 -513 397 -499Q396 -492 391 -484Q384 -474 384 -470Q375 -464 368 -451Q362 -440 358 -436Q343 -428 351 -419Q367 -413 382 -408Q390 -407 410 -399Q429 -398 444 -377Q442 -373 445 -368Q448 -363 453 -365L475 -380Q496 -393 517 -407Q522 -414 517 -419Q512 -425 508 -429Q492 -442 475 -455Q482 -458 493 -456Q505 -454 509 -455Q523 -455 546 -448Q567 -445 571 -446Q601 -491 629 -521Q642 -540 654 -560Q661 -566 667 -578Q672 -588 674 -591Q679 -606 683 -621Q683 -626 681 -629Q678 -634 675 -632L654 -631Q638 -625 621 -622Q618 -620 612 -620Q603 -620 601 -616Q598 -608 582 -608Q566 -603 552 -612Q545 -612 535 -617Q524 -622 519 -622Q513 -622 508 -624Q507 -625 509 -628Q554 -649 599 -670Q610 -674 621 -679Q631 -676 652 -680Q659 -683 674 -681Q680 -684 685 -681Q690 -678 697 -677Q700 -675 707 -674Q717 -672 721 -667Q723 -663 734 -661Q747 -659 748 -650Q749 -638 757 -628Q753 -613 757 -605Q757 -600 756 -596L752 -579Q752 -574 751 -570Q742 -561 741 -552Q737 -550 736 -544Q735 -537 732 -536Q726 -531 716 -520Q702 -504 694 -500Q676 -479 658 -458Q650 -453 635 -434Q633 -427 639 -426Q644 -425 650 -424Q660 -422 670 -421Q683 -422 694 -415Q705 -417 719 -407Q722 -404 729 -402Q741 -399 743 -392Q740 -381 743 -378Q749 -365 732 -361Q721 -355 702 -357Q676 -360 649 -363Q629 -372 609 -375Q587 -381 577 -381Q561 -379 547 -372Q540 -373 529 -368Q518 -363 512 -364Q498 -355 483 -353Q473 -355 460 -342Q454 -318 435 -318Q423 -318 406 -329ZM347 -524Q338 -522 332 -518Q319 -518 308 -513Q297 -509 286 -506Q270 -502 268 -496Q270 -483 265 -471Q260 -465 258 -450Q251 -440 258 -432Q268 -433 288 -429Q302 -426 311 -446Q336 -477 354 -514Q357 -518 354 -523Q351 -528 347 -524ZM455 -319Q461 -319 470 -322Q483 -327 489 -325Q495 -321 507 -319Q524 -316 530 -310Q534 -306 540 -301Q545 -296 546 -289Q541 -287 544 -282Q547 -277 551 -279Q574 -281 596 -283Q607 -282 632 -284Q644 -281 659 -280Q673 -279 685 -272Q692 -272 698 -268Q703 -263 709 -259Q720 -245 722 -242Q723 -240 730 -230Q733 -228 731 -222Q729 -215 732 -211Q734 -198 736 -185Q733 -181 723 -150Q724 -143 714 -121Q712 -111 709 -102Q705 -83 697 -65Q692 -61 688 -44Q685 -40 682 -32Q678 -21 673 -17Q669 -12 660 -5Q645 5 644 14Q642 17 639 19L630 29Q628 32 625 34Q617 35 615 47Q613 52 605 54Q599 55 597 57Q595 60 590 62L585 64Q580 66 578 69Q577 73 568 78Q558 78 554 86Q549 90 545 86Q541 82 537 78Q520 55 520 43Q517 35 510 28Q503 22 498 16Q503 12 521 15Q547 20 557 19Q573 13 601 -22Q602 -23 617 -47Q628 -57 634 -70Q640 -83 647 -95Q655 -115 664 -133Q663 -140 668 -150Q673 -159 673 -163Q676 -169 677 -182Q678 -196 681 -201Q688 -213 678 -225Q671 -234 657 -240Q653 -244 643 -242Q636 -240 632 -242Q623 -243 580 -238Q560 -235 542 -230Q532 -231 523 -223Q521 -221 510 -206Q495 -193 495 -177Q493 -173 492 -170L485 -158Q484 -155 482 -151L470 -125Q462 -118 454 -100Q452 -94 444 -88Q436 -82 434 -78Q429 -67 419 -56Q418 -51 411 -43Q404 -35 403 -32Q401 -25 395 -20Q388 -15 382 -11Q365 -5 353 7Q340 4 330 12Q329 5 333 -3Q336 -7 339 -11Q342 -14 342 -19Q349 -30 355 -41Q357 -43 383 -84Q395 -103 406 -123Q411 -141 427 -173Q435 -187 440 -202Q440 -208 436 -208Q429 -207 425 -208Q401 -209 382 -214Q373 -217 364 -221Q360 -221 360 -224Q360 -228 364 -228Q374 -229 394 -235Q427 -249 462 -259Q470 -260 476 -272Q477 -278 480 -284Q483 -291 478 -296Q472 -298 466 -298Q447 -298 443 -306Q439 -314 455 -319Z"/>
</svg>