<svg xmlns="http://www.w3.org/2000/svg" viewBox="0 -800 1024 1024">
	<path fill="#000000" d="M584 -771Q594 -771 598 -769Q609 -770 614 -760Q619 -754 623 -748Q625 -734 624 -725Q619 -719 621 -707Q617 -698 618 -691Q618 -681 618 -672Q608 -650 628 -634Q650 -621 688 -605Q693 -601 703 -596Q716 -589 722 -583Q727 -580 729 -571Q731 -564 733 -561Q735 -557 732 -553Q729 -549 727 -545Q724 -541 725 -533Q725 -529 721 -530Q716 -523 711 -526Q706 -527 705 -524Q703 -519 700 -521Q689 -508 682 -504Q678 -493 671 -491Q667 -482 659 -478Q655 -470 649 -478Q642 -479 642 -472Q641 -464 636 -464Q634 -460 630 -461Q625 -462 623 -459Q615 -462 609 -454Q607 -450 604 -451Q600 -453 599 -452Q594 -448 590 -453Q586 -458 583 -462Q583 -469 575 -467Q567 -466 566 -469Q567 -473 574 -477Q579 -479 580 -481Q583 -486 588 -487Q594 -488 598 -490Q600 -493 603 -491Q607 -489 608 -492Q609 -496 613 -499Q617 -502 617 -505Q623 -511 628 -517Q632 -517 636 -525Q640 -535 646 -534Q656 -547 660 -561Q665 -567 661 -575Q657 -584 650 -581Q639 -588 628 -593Q617 -598 608 -607Q594 -615 584 -629Q576 -644 573 -662Q572 -668 569 -714Q565 -720 561 -717Q557 -714 553 -712Q553 -706 549 -704Q546 -703 541 -703Q534 -702 520 -708Q512 -711 506 -712Q495 -713 491 -720Q491 -722 495 -722Q510 -726 513 -730Q523 -739 535 -742Q543 -746 556 -755Q574 -768 584 -771ZM351 -764Q372 -761 378 -741Q376 -730 383 -726Q390 -723 395 -718Q398 -718 398 -717Q397 -714 394 -713Q396 -709 396 -704Q395 -698 400 -698Q402 -700 403 -699Q404 -696 407 -693Q403 -684 395 -681Q388 -679 380 -678Q375 -662 375 -643Q376 -638 374 -631Q372 -622 373 -618Q368 -603 383 -600Q381 -593 385 -580Q386 -575 380 -573Q372 -571 371 -567Q362 -558 365 -544Q364 -538 367 -536Q370 -534 375 -536Q387 -545 393 -539Q397 -540 401 -538Q408 -546 417 -540Q419 -541 425 -541Q432 -541 435 -545Q442 -539 450 -546Q458 -541 465 -540Q465 -536 470 -531Q477 -523 473 -518Q471 -516 471 -511Q471 -504 466 -503Q458 -500 424 -498Q421 -495 418 -498Q414 -501 412 -500Q410 -494 404 -494Q398 -494 393 -493Q382 -493 379 -492Q377 -491 372 -492Q368 -493 367 -491Q363 -494 358 -489Q353 -484 354 -479Q357 -476 353 -471Q349 -467 351 -463Q346 -448 346 -446Q337 -435 336 -420Q337 -416 333 -413Q330 -411 330 -408Q326 -408 327 -401Q328 -395 325 -393Q325 -379 321 -382Q317 -380 311 -371Q307 -365 303 -364Q293 -365 288 -375Q281 -390 278 -392Q273 -392 274 -396Q275 -400 276 -404Q279 -412 281 -421Q284 -422 287 -434Q287 -437 290 -437Q293 -437 295 -438Q292 -441 299 -458Q300 -463 302 -469Q303 -476 298 -478Q273 -469 245 -469Q242 -466 237 -468Q232 -469 231 -467Q215 -464 200 -468Q196 -471 184 -472Q167 -474 164 -482Q177 -489 181 -485Q199 -490 202 -495Q224 -503 245 -502Q247 -504 258 -507Q262 -506 268 -509Q275 -512 278 -511Q283 -515 296 -518Q313 -522 319 -528Q322 -545 321 -562Q322 -569 317 -573Q312 -576 306 -579Q299 -583 291 -587Q285 -591 278 -596Q271 -601 272 -608Q276 -612 280 -617Q282 -618 283 -614Q288 -606 306 -609Q318 -611 325 -608Q333 -611 332 -620Q332 -629 333 -636Q331 -640 332 -647Q333 -657 330 -661Q320 -666 309 -671Q301 -673 293 -676Q285 -680 277 -676Q271 -672 264 -679Q258 -685 260 -692Q278 -694 297 -699Q300 -706 310 -708Q321 -711 324 -714Q331 -718 338 -722Q336 -742 325 -746Q323 -747 318 -747Q312 -749 313 -751Q315 -758 320 -758Q325 -759 330 -760Q334 -762 340 -762Q348 -762 351 -764ZM473 -712Q479 -712 484 -707Q494 -707 503 -707Q523 -696 527 -665Q524 -660 529 -648Q526 -639 528 -628Q525 -623 527 -614Q529 -606 527 -603Q530 -591 529 -581Q527 -574 527 -549Q531 -537 526 -530Q529 -523 526 -514Q529 -511 526 -505Q523 -499 526 -495Q527 -483 528 -471Q528 -454 528 -438Q526 -434 527 -425Q528 -416 526 -413Q530 -392 521 -379Q529 -364 520 -352Q524 -339 515 -325Q516 -321 514 -321Q511 -321 507 -320Q506 -317 501 -319Q497 -321 496 -317Q488 -316 484 -328Q480 -329 476 -336Q473 -342 470 -344Q467 -356 469 -370Q470 -385 476 -396Q480 -424 483 -453Q484 -472 484 -491Q485 -509 486 -527Q487 -544 487 -562L488 -606Q487 -630 487 -651Q486 -667 485 -684Q486 -689 478 -698Q471 -706 473 -712ZM576 -314L583 -313Q593 -301 595 -294Q600 -290 598 -286Q597 -282 597 -278Q600 -269 607 -259Q619 -261 631 -264Q633 -267 635 -265Q637 -263 640 -264Q649 -270 661 -270Q668 -270 680 -266Q681 -272 688 -272Q693 -272 698 -270Q709 -270 719 -271Q720 -267 725 -267Q729 -267 730 -266Q735 -268 746 -262Q754 -258 762 -255Q773 -256 782 -245Q789 -236 792 -225Q799 -213 799 -200Q802 -197 799 -190Q797 -185 798 -183Q797 -172 795 -161Q794 -145 790 -133Q786 -114 778 -95Q773 -90 771 -87Q771 -80 765 -71Q759 -62 759 -58Q748 -43 739 -34Q734 -26 729 -20Q727 -20 726 -23Q722 -23 716 -17Q709 -11 704 -10Q696 -3 688 3Q686 8 681 8Q676 8 674 4Q664 0 659 -12Q656 -12 656 -18Q657 -24 653 -24Q649 -28 645 -31Q640 -34 640 -39Q646 -47 639 -51Q633 -55 627 -58Q623 -61 618 -64Q615 -69 613 -67Q609 -62 612 -57Q608 -41 609 -25Q609 -11 608 4Q607 19 601 32Q599 50 596 68Q592 70 592 76Q592 81 590 83Q589 88 586 89Q583 89 580 92Q576 94 574 100Q572 105 570 107Q568 118 559 123Q555 128 548 125Q545 123 536 117Q528 115 529 105Q530 96 532 89Q536 82 538 67Q539 54 542 49Q542 41 542 32Q544 27 544 18Q544 6 546 2Q544 -2 547 -4Q550 -6 551 -8Q545 -14 546 -29Q547 -39 544 -44Q546 -61 547 -79Q545 -89 546 -98Q546 -108 546 -119Q546 -142 546 -166Q545 -170 546 -179Q547 -190 544 -195Q538 -195 532 -195L508 -194Q502 -194 496 -194Q486 -191 477 -192Q468 -191 465 -184Q462 -177 459 -172L456 -153Q446 -126 444 -122Q440 -115 439 -106Q441 -84 434 -67Q429 -61 428 -52Q427 -43 425 -35Q425 -30 419 -31Q413 -32 412 -29Q411 -31 406 -34Q401 -37 400 -40Q398 -44 396 -44Q393 -44 391 -41Q389 -50 379 -51Q381 -54 377 -56Q374 -58 374 -60Q380 -62 381 -72Q382 -82 387 -85Q388 -86 388 -88L391 -95Q392 -96 392 -98Q397 -114 407 -127Q404 -136 411 -144Q409 -150 416 -162Q420 -170 421 -176Q430 -198 435 -206Q439 -216 453 -231Q456 -239 462 -236Q466 -234 470 -228Q472 -221 479 -219Q486 -217 487 -226Q508 -232 529 -235Q533 -238 540 -239Q546 -241 548 -247Q548 -262 547 -271Q545 -279 539 -286Q532 -293 539 -300Q541 -300 543 -304Q545 -308 549 -308Q552 -310 561 -309Q573 -307 576 -314ZM701 -227Q678 -228 649 -221Q630 -220 613 -213Q608 -205 609 -195Q609 -185 608 -176Q611 -168 609 -148Q607 -134 609 -125Q611 -120 608 -114Q604 -105 608 -101Q607 -84 624 -81Q634 -75 647 -74Q660 -73 672 -71Q684 -69 697 -83Q710 -98 723 -133Q722 -136 724 -139Q726 -143 725 -144Q730 -165 733 -167Q729 -171 730 -180Q730 -188 728 -192Q728 -206 721 -217Q713 -230 701 -227Z"/>
</svg>