<svg xmlns="http://www.w3.org/2000/svg" viewBox="0 -800 1024 1024">
	<path fill="#000000" d="M404 -709Q456 -707 507 -701Q518 -697 528 -697Q534 -696 541 -695Q548 -694 551 -688Q553 -690 562 -681Q566 -680 566 -677Q566 -673 568 -672Q577 -664 582 -655Q589 -647 584 -639Q578 -632 573 -624Q573 -620 575 -620Q580 -620 583 -623Q596 -624 608 -626Q628 -630 636 -631Q642 -629 651 -631Q663 -633 667 -630Q669 -629 673 -631Q677 -633 680 -631Q685 -635 693 -634Q695 -628 699 -619Q705 -612 704 -602Q702 -591 691 -589Q676 -576 667 -577Q653 -568 635 -573Q622 -570 608 -567Q593 -566 578 -566Q567 -563 556 -561Q531 -557 505 -554Q484 -546 463 -544Q447 -545 424 -540Q419 -538 408 -542Q399 -545 395 -544Q380 -546 364 -549Q360 -550 359 -549Q361 -545 364 -538Q369 -531 367 -522Q365 -512 358 -511Q347 -503 343 -487Q341 -479 340 -458Q330 -438 332 -414Q329 -407 329 -395Q329 -378 324 -372Q327 -367 324 -358Q322 -351 323 -346Q324 -340 336 -343Q344 -345 348 -343Q355 -347 364 -349Q378 -351 391 -354Q405 -359 418 -365Q440 -366 461 -374Q471 -375 480 -377Q485 -385 476 -390Q468 -394 465 -400Q469 -403 468 -408Q502 -401 513 -395Q519 -388 537 -393Q567 -402 573 -405Q581 -405 593 -411Q601 -415 607 -416Q618 -418 608 -437Q606 -441 597 -446Q586 -452 587 -461L608 -458Q612 -456 624 -456Q638 -456 644 -452Q650 -453 656 -445Q663 -437 669 -437Q672 -439 680 -441Q690 -443 694 -448Q707 -450 719 -453Q722 -452 730 -454Q739 -456 743 -453Q751 -455 759 -448Q754 -441 764 -432Q774 -423 768 -416Q759 -416 759 -408Q746 -400 744 -398Q742 -392 731 -392Q722 -392 718 -388Q698 -388 687 -381Q679 -383 678 -378Q677 -373 676 -369Q678 -364 673 -358Q669 -354 671 -351Q673 -346 670 -345Q664 -344 663 -341Q668 -332 668 -322Q664 -320 663 -314Q662 -308 658 -307Q659 -304 656 -298Q654 -293 656 -290Q655 -267 653 -244Q652 -243 652 -233Q657 -219 653 -203Q646 -198 635 -194Q633 -188 628 -187Q623 -187 618 -184Q600 -192 589 -188Q572 -188 554 -188Q547 -183 531 -192Q528 -191 523 -194Q517 -197 515 -195Q516 -190 512 -190Q509 -190 506 -192Q503 -186 500 -181Q496 -175 488 -177Q487 -181 481 -185Q476 -188 474 -192Q474 -198 466 -207Q457 -217 458 -224Q462 -222 463 -225Q463 -228 462 -233Q477 -250 476 -262Q467 -270 472 -290Q476 -304 474 -311Q474 -318 470 -317Q461 -315 453 -315Q428 -308 403 -301Q389 -301 376 -299Q363 -296 352 -301Q349 -304 339 -307Q329 -310 324 -315Q321 -318 316 -315Q312 -312 313 -307Q311 -305 310 -298Q310 -292 306 -289Q301 -268 295 -248Q286 -229 283 -212Q279 -198 277 -183Q274 -169 264 -157Q263 -152 259 -146Q254 -139 254 -136Q244 -122 243 -111Q235 -87 235 -85Q229 -71 225 -57Q221 -43 211 -31Q208 -29 206 -21Q204 -13 200 -10Q194 1 187 14Q181 26 167 30Q166 37 160 38Q153 39 149 41Q147 40 146 36Q144 31 141 30Q140 27 135 23Q128 18 130 13Q126 12 126 9Q125 4 124 4Q121 11 118 1Q119 -4 115 -6Q111 -9 112 -10Q117 -9 117 -11Q118 -13 117 -16Q114 -23 118 -25Q136 -33 145 -55Q167 -89 181 -126Q196 -163 211 -199Q222 -220 229 -244Q238 -272 247 -301Q248 -309 253 -319Q261 -335 259 -342Q270 -355 267 -361Q254 -371 267 -384Q264 -391 268 -408Q273 -424 277 -440Q278 -461 286 -503Q291 -518 296 -533Q295 -540 304 -550Q313 -560 310 -566Q312 -566 316 -568Q321 -571 324 -567Q341 -573 361 -573Q368 -576 388 -578Q405 -579 414 -584Q431 -587 447 -590Q451 -593 465 -595Q478 -596 483 -601Q488 -600 495 -603Q503 -606 507 -603Q513 -609 519 -607Q521 -610 529 -612Q537 -614 538 -619Q525 -621 517 -630Q513 -632 510 -633L497 -639Q494 -640 490 -642Q475 -653 461 -656Q459 -662 449 -664Q438 -667 436 -673Q432 -673 427 -680Q422 -687 418 -685Q417 -689 411 -691Q405 -693 404 -696Q400 -699 404 -709ZM566 -621Q563 -618 569 -616Q574 -618 572 -621Q570 -624 566 -621ZM596 -352Q590 -348 582 -351Q576 -345 569 -342Q563 -344 557 -340Q551 -337 548 -337Q539 -335 536 -324Q535 -322 534 -304Q532 -287 529 -270Q531 -262 529 -255Q527 -248 526 -240Q525 -235 523 -227Q521 -219 530 -219Q538 -218 551 -223Q561 -227 566 -227Q574 -229 582 -231Q588 -240 582 -253Q586 -251 590 -254Q593 -257 592 -261Q595 -266 593 -275Q591 -283 592 -288Q596 -310 600 -333Q603 -340 603 -349Q602 -354 596 -352ZM216 -156Q214 -157 212 -153Q210 -150 211 -148Q219 -143 222 -150Q225 -155 222 -157Q219 -159 216 -156ZM424 -138Q431 -140 433 -134Q435 -129 431 -123Q429 -121 429 -103Q430 -94 430 -80Q428 -77 427 -69Q426 -59 422 -55Q422 -47 416 -35Q423 -22 413 -10Q410 -13 407 -10Q405 -6 407 -4Q407 5 400 0Q396 3 392 0Q388 -4 384 -6Q381 -6 381 -8Q382 -12 377 -15Q364 -22 359 -36Q366 -47 368 -58Q371 -60 371 -65Q371 -71 374 -72Q378 -67 381 -71Q384 -75 379 -78Q375 -83 379 -85Q385 -88 390 -94Q405 -99 400 -113Q403 -122 411 -127Q418 -132 424 -138ZM799 -119H821Q831 -118 841 -116Q851 -115 856 -105Q862 -108 868 -103Q872 -102 874 -96L878 -90Q879 -86 884 -83Q886 -77 884 -68Q882 -63 884 -57Q884 -55 880 -55Q873 -51 870 -38Q868 -28 865 -25Q859 -26 856 -20Q852 -15 848 -11Q843 -12 838 -4Q834 2 829 4Q826 4 821 8Q817 12 813 12Q811 15 805 14Q800 14 797 16Q790 14 792 7Q793 2 799 -4Q811 -26 829 -49Q830 -53 834 -58Q837 -63 834 -68Q823 -74 804 -74Q785 -74 767 -69Q741 -65 730 -60Q716 -57 705 -50Q693 -43 682 -37Q673 -35 669 -28Q670 -23 664 -17Q661 -14 660 -10Q657 -7 654 -9Q650 -11 650 -15Q647 -16 643 -22Q641 -26 637 -28Q632 -28 633 -33Q633 -37 631 -41Q630 -45 624 -49Q618 -54 616 -58Q613 -64 621 -73Q628 -81 628 -85Q632 -96 635 -107L668 -91Q669 -87 671 -84Q673 -81 677 -85Q730 -105 750 -108Q775 -113 799 -119ZM502 -113L507 -112Q524 -99 529 -93Q541 -80 539 -67Q536 -48 537 -32Q534 -15 521 -5Q510 -7 502 -20Q494 -17 493 -28Q489 -35 487 -43Q485 -53 484 -65Q482 -78 493 -95Q501 -108 502 -113Z"/>
</svg>