<svg xmlns="http://www.w3.org/2000/svg" viewBox="0 -800 1024 1024">
	<path fill="#000000" d="M660 -313Q656 -313 654 -309Q642 -301 652 -287Q662 -285 667 -274Q672 -264 670 -256Q670 -251 662 -245Q653 -238 654 -232Q646 -214 643 -205Q640 -194 637 -184Q633 -167 626 -151Q623 -148 621 -135Q617 -128 618 -119Q617 -116 617 -101Q613 -84 627 -65Q644 -50 654 -48Q657 -46 665 -45Q673 -44 677 -41Q699 -39 711 -39Q736 -41 763 -40Q780 -39 797 -38Q809 -42 825 -44Q845 -49 868 -49Q879 -51 889 -54Q895 -57 897 -63Q898 -70 901 -75Q904 -88 906 -101Q909 -113 913 -123Q916 -139 923 -152Q928 -159 928 -148Q929 -133 932 -118Q932 -109 939 -79Q940 -73 939 -66Q938 -58 945 -53Q949 -49 957 -48Q969 -47 972 -41Q977 -34 985 -37Q988 -34 985 -29Q981 -25 978 -22Q974 -21 970 -14Q964 -5 958 -6Q944 -7 932 -4Q925 -4 917 -4Q881 -2 865 -2Q853 -2 841 -2Q836 -1 830 -1L807 1Q802 2 796 2Q748 3 704 -1Q700 -3 689 -3Q675 -3 670 -9Q655 -8 640 -17Q606 -29 591 -50Q570 -83 575 -141Q578 -166 586 -188Q590 -195 594 -211Q599 -231 605 -239Q622 -280 622 -287Q613 -284 598 -261Q597 -259 595 -257L588 -248Q586 -246 585 -244Q570 -234 557 -212Q552 -209 546 -199Q542 -192 538 -189Q521 -175 506 -162Q503 -155 489 -151Q479 -148 475 -144Q471 -144 466 -140Q457 -134 453 -136Q443 -143 453 -153Q472 -175 491 -197Q522 -236 553 -276Q581 -314 608 -353Q612 -361 613 -370Q614 -378 621 -378Q627 -378 634 -374Q644 -376 664 -366Q669 -366 669 -362Q670 -356 670 -350Q664 -341 663 -331Q664 -325 670 -326Q677 -327 680 -332Q686 -336 693 -352Q695 -378 700 -395Q700 -419 705 -439Q704 -453 703 -464Q706 -472 706 -489Q706 -493 707 -498Q708 -499 710 -497Q714 -506 713 -518Q709 -530 713 -553Q713 -571 714 -590Q715 -608 707 -623Q705 -629 697 -632Q690 -634 684 -632Q676 -628 667 -625Q643 -618 623 -606Q619 -606 611 -601Q604 -596 598 -597Q591 -602 577 -604Q569 -603 557 -607Q543 -612 537 -610Q535 -604 541 -600Q546 -596 550 -591Q560 -585 556 -569Q553 -560 556 -549Q552 -546 554 -531Q550 -519 554 -504Q550 -482 551 -457Q547 -428 546 -397Q545 -377 543 -358Q543 -352 543 -346Q544 -340 540 -330Q535 -319 537 -312Q534 -302 524 -302Q516 -302 511 -310Q503 -311 500 -317Q497 -324 494 -328Q479 -339 487 -356Q490 -361 488 -374Q493 -386 493 -399Q491 -411 495 -421Q497 -444 501 -465Q502 -494 503 -524Q503 -542 502 -560Q501 -578 508 -593Q509 -598 509 -604Q511 -607 521 -609Q529 -611 532 -615Q535 -625 547 -619L582 -636Q628 -659 638 -663Q662 -672 671 -674Q684 -678 699 -678L712 -677Q725 -674 738 -671Q754 -669 770 -639Q775 -635 775 -623Q775 -612 777 -609Q779 -606 779 -589Q777 -569 775 -549Q777 -546 774 -538Q771 -530 774 -525Q772 -511 769 -498Q772 -490 768 -468Q771 -461 767 -446Q764 -435 765 -427Q765 -408 760 -391Q756 -387 756 -374Q756 -366 754 -361Q752 -339 745 -319Q744 -315 743 -303Q742 -287 737 -280Q727 -273 717 -266Q683 -279 660 -313ZM227 -620H228Q235 -622 241 -617Q246 -613 253 -610Q255 -607 261 -609Q267 -610 269 -609Q285 -600 288 -590Q298 -575 298 -554Q295 -543 291 -533Q291 -511 286 -490Q282 -484 283 -467Q283 -453 281 -446Q282 -440 281 -431Q279 -417 281 -411Q280 -408 280 -386Q276 -379 276 -362Q276 -347 275 -342Q271 -338 272 -333Q273 -328 272 -323Q269 -315 280 -311Q296 -313 311 -316Q321 -318 332 -319Q342 -320 349 -328Q360 -347 371 -366Q383 -383 382 -403Q379 -411 386 -414Q393 -417 399 -413Q415 -407 419 -387Q423 -366 412 -352Q408 -349 404 -340Q400 -332 396 -328Q393 -325 394 -317Q395 -310 393 -307Q388 -293 383 -280Q381 -271 371 -269Q358 -267 346 -269Q334 -268 321 -268Q317 -269 311 -267Q304 -264 301 -267Q297 -269 290 -265Q285 -262 281 -262Q258 -260 234 -258Q215 -256 177 -254Q166 -251 144 -258Q134 -262 129 -265L117 -273Q111 -277 106 -288Q102 -297 99 -300Q91 -312 94 -327Q99 -369 127 -388Q135 -402 145 -402Q150 -402 154 -398Q176 -382 170 -359Q166 -346 162 -334Q152 -322 152 -304Q149 -300 151 -295Q153 -290 159 -291Q179 -293 198 -295Q202 -297 215 -298Q230 -299 236 -304Q229 -314 220 -319Q218 -324 210 -327Q203 -330 202 -335Q202 -345 211 -351Q211 -362 216 -371Q221 -386 225 -401Q228 -425 231 -449Q233 -461 234 -473Q234 -500 236 -526Q235 -542 236 -556Q234 -560 234 -571Q234 -582 230 -586Q226 -590 226 -595L225 -599Q225 -600 225 -601Q225 -606 223 -612Q221 -617 227 -620Z"/>
</svg>