<svg xmlns="http://www.w3.org/2000/svg" viewBox="0 -800 1024 1024">
	<path fill="#000000" d="M392 -752Q395 -753 402 -749Q409 -752 425 -752Q443 -752 459 -749Q470 -748 480 -748Q498 -744 515 -730Q516 -726 520 -723Q524 -719 522 -714Q520 -709 512 -706Q504 -703 502 -698Q503 -692 510 -693Q515 -694 520 -698Q528 -698 546 -702Q559 -706 572 -710Q579 -712 586 -716Q593 -720 601 -717Q607 -712 623 -717Q628 -716 643 -720Q651 -716 659 -719Q662 -718 664 -713Q666 -708 668 -706Q669 -703 673 -690Q677 -686 672 -682Q668 -679 663 -680Q658 -682 654 -675Q651 -671 648 -671Q636 -675 632 -669Q612 -663 591 -657Q575 -654 559 -652Q551 -649 543 -647Q537 -649 532 -647Q527 -645 523 -644Q521 -643 518 -643L506 -641Q503 -641 501 -640Q491 -636 480 -637Q476 -633 466 -633Q457 -633 454 -632Q444 -630 433 -628Q417 -626 406 -621Q391 -620 377 -617Q363 -623 349 -624Q343 -622 344 -617Q345 -613 346 -608Q344 -598 341 -588Q326 -569 327 -558Q321 -543 315 -528Q315 -519 313 -503Q307 -483 301 -463Q303 -457 301 -437Q295 -425 297 -411Q292 -399 295 -380Q291 -367 287 -354L286 -308Q286 -298 282 -290Q276 -282 279 -271Q274 -269 274 -261Q274 -254 271 -252Q272 -245 263 -225Q261 -218 259 -212Q256 -209 255 -200Q255 -192 251 -189Q252 -182 243 -162Q233 -148 227 -129Q218 -116 212 -101Q200 -83 188 -66Q180 -59 171 -53Q158 -71 150 -89Q148 -101 141 -109Q140 -114 147 -117Q154 -120 155 -124Q169 -143 196 -199Q201 -207 202 -215L205 -226Q206 -234 211 -242Q216 -259 221 -276Q224 -281 224 -291Q224 -302 227 -306Q229 -320 236 -329Q234 -353 243 -364Q244 -391 245 -419Q249 -453 252 -487Q255 -512 255 -513Q258 -522 260 -540Q267 -558 274 -577Q279 -592 289 -604Q295 -613 316 -621Q321 -625 318 -629Q315 -633 311 -634Q323 -644 338 -646Q354 -650 370 -655Q416 -666 447 -672Q461 -676 474 -681Q488 -683 492 -692Q489 -700 482 -699Q474 -699 468 -700Q457 -707 446 -709Q414 -723 401 -734Q400 -735 392 -743Q387 -748 392 -752ZM462 -619Q486 -619 489 -618Q493 -618 497 -618H512Q516 -618 519 -618Q527 -615 534 -617Q547 -616 556 -610Q568 -606 566 -596Q564 -586 554 -582Q536 -582 517 -583Q508 -586 490 -594Q471 -601 455 -615Q454 -617 455 -618Q459 -619 462 -619ZM635 -583Q640 -584 661 -579Q673 -586 685 -572Q687 -559 680 -549Q673 -540 662 -544Q656 -544 653 -540Q641 -539 628 -539Q616 -533 602 -535Q591 -531 580 -527Q563 -526 547 -523Q537 -520 526 -517Q496 -513 468 -506Q454 -507 442 -503Q428 -501 415 -505Q396 -512 377 -513Q374 -517 377 -519Q382 -520 387 -521Q426 -528 465 -538Q478 -540 490 -543Q505 -546 519 -550Q529 -550 536 -554Q546 -555 555 -559Q566 -561 576 -565Q586 -567 595 -570Q605 -576 613 -576Q624 -578 635 -583ZM701 -507H707Q731 -507 742 -504Q751 -505 767 -499Q776 -499 782 -491Q784 -486 792 -482Q801 -477 803 -473Q807 -471 807 -463Q807 -456 808 -454Q815 -449 819 -434Q818 -414 817 -395Q815 -393 805 -364Q800 -356 801 -345Q796 -341 787 -320Q787 -316 783 -312Q778 -307 778 -303L761 -281Q756 -270 736 -252Q731 -249 722 -241Q711 -231 705 -229Q702 -228 696 -221Q689 -212 683 -214Q672 -229 661 -231Q656 -234 659 -238Q663 -241 667 -241Q685 -256 686 -262Q695 -266 701 -275Q727 -301 754 -355Q757 -364 760 -374Q763 -383 765 -393Q766 -403 767 -414Q764 -429 761 -444Q755 -456 733 -476Q712 -479 692 -476Q687 -473 678 -473Q667 -473 663 -469Q642 -469 623 -465Q605 -466 589 -461Q586 -458 576 -458Q567 -458 563 -454Q558 -447 544 -449Q530 -449 518 -454Q514 -457 505 -456Q497 -455 495 -456Q492 -461 497 -463Q501 -464 505 -465Q510 -468 552 -481Q571 -486 589 -491Q605 -493 620 -495Q624 -497 638 -499Q660 -499 682 -504Q691 -507 701 -507ZM460 -466L462 -465Q465 -464 463 -460Q461 -456 462 -453Q462 -444 462 -436Q462 -432 458 -425Q453 -417 455 -411Q460 -400 453 -388Q452 -377 446 -368Q438 -339 435 -315Q432 -311 433 -302Q434 -294 432 -291Q427 -288 428 -283Q429 -277 435 -276Q451 -274 464 -259Q472 -254 469 -242Q466 -231 455 -233Q441 -225 433 -238Q430 -241 422 -242Q415 -243 413 -245Q383 -266 378 -280Q372 -288 377 -296Q381 -303 384 -310Q385 -322 391 -331Q394 -354 404 -369Q407 -394 419 -415Q421 -425 433 -439Q443 -450 445 -455Q445 -461 450 -463Q455 -465 460 -466ZM548 -420L551 -419Q553 -417 554 -416Q552 -414 559 -405Q563 -403 566 -402Q579 -406 591 -410Q608 -414 627 -416Q637 -419 644 -410Q651 -402 650 -391Q651 -378 647 -366Q645 -356 639 -350Q631 -350 631 -336Q626 -334 622 -332Q618 -330 618 -324Q621 -317 616 -314Q612 -311 608 -309Q604 -310 598 -305Q593 -300 589 -300Q587 -307 575 -305Q563 -307 561 -309Q558 -306 560 -301Q562 -296 563 -292Q561 -289 552 -292L537 -305Q527 -310 518 -327Q507 -350 523 -383Q530 -395 536 -408Q540 -418 548 -420ZM602 -386Q593 -380 586 -380Q582 -378 568 -380Q566 -384 562 -383Q559 -382 560 -377Q557 -374 555 -357Q559 -347 554 -333Q553 -326 558 -326Q564 -326 568 -330Q579 -331 589 -333Q595 -335 597 -345Q599 -353 602 -356Q601 -364 606 -370Q608 -378 606 -386Q605 -388 602 -386ZM591 -276H604Q620 -273 639 -273Q648 -276 645 -259Q642 -251 630 -249Q607 -244 582 -246Q569 -244 555 -242Q546 -238 536 -234Q519 -239 502 -239Q492 -239 484 -242Q482 -247 488 -251Q494 -255 499 -254Q508 -257 516 -260Q527 -262 538 -267Q548 -271 561 -269Q566 -273 578 -274Q588 -275 591 -276ZM627 -212Q637 -212 643 -204Q648 -200 642 -192Q637 -186 638 -182Q638 -174 631 -174Q624 -173 619 -172Q588 -170 556 -166Q541 -166 528 -164Q513 -169 498 -175Q496 -178 489 -179Q481 -180 482 -185Q493 -189 508 -189Q516 -191 522 -193L549 -199Q552 -200 562 -203Q578 -208 597 -209Q611 -212 627 -212ZM703 -147L706 -146Q715 -142 726 -144Q750 -149 766 -142Q771 -139 766 -133Q762 -128 762 -125Q759 -123 761 -119Q763 -114 762 -112Q754 -111 747 -105Q744 -102 739 -104Q735 -106 734 -105Q724 -100 712 -100Q694 -100 679 -95Q661 -96 649 -86Q639 -94 627 -89Q621 -87 615 -87Q609 -88 606 -83V-32Q608 -28 605 -20Q601 -10 606 -5Q604 11 602 26Q606 45 597 58Q582 73 574 68Q570 58 566 56Q562 57 558 52Q554 48 551 48Q545 49 543 47Q538 39 542 27Q545 24 550 6Q555 -6 559 -18Q560 -32 561 -46Q562 -64 558 -78Q529 -78 522 -74Q517 -75 516 -69Q515 -64 517 -59Q519 -48 518 -38Q520 -29 516 -22Q511 -14 507 -7Q507 9 503 12Q502 12 492 23Q486 29 480 25Q477 21 471 16Q464 11 463 8Q462 3 454 -7Q448 -15 446 -20Q452 -38 465 -51Q466 -53 474 -61Q477 -62 478 -65Q478 -71 473 -70Q463 -64 457 -69Q431 -70 407 -75Q390 -79 374 -82Q367 -81 363 -85Q359 -89 364 -93Q366 -98 376 -97Q385 -97 388 -100Q399 -100 419 -104Q425 -104 430 -104L451 -105Q456 -105 461 -105Q480 -110 502 -109Q512 -112 532 -113Q563 -114 574 -122Q576 -127 580 -126Q583 -124 588 -122Q596 -120 611 -124Q625 -124 636 -128Q650 -128 663 -132Q674 -132 683 -137Q695 -137 703 -147ZM652 -73Q657 -75 662 -68Q667 -61 672 -62Q678 -64 689 -57Q693 -58 699 -52Q705 -45 710 -47Q722 -46 734 -45Q744 -44 756 -44Q763 -46 767 -42Q771 -38 776 -34Q782 -32 780 -25Q779 -19 778 -13Q772 -11 770 -6Q768 -2 765 3Q748 3 730 3Q723 -2 712 6Q704 12 700 12Q696 4 691 -5Q682 -29 668 -50Q656 -53 652 -73Z"/>
</svg>