<svg xmlns="http://www.w3.org/2000/svg" viewBox="0 -800 1024 1024">
	<path fill="#000000" d="M455 -710Q479 -708 502 -701Q507 -700 513 -694Q520 -688 524 -687Q541 -661 531 -643Q534 -634 531 -626Q528 -618 527 -610Q523 -606 521 -596Q518 -584 514 -580Q511 -573 499 -554Q486 -534 482 -521Q475 -514 462 -488Q455 -468 444 -451Q435 -446 426 -431Q419 -419 415 -416Q409 -406 408 -398Q425 -396 443 -407Q467 -426 496 -438Q528 -450 601 -469Q640 -474 652 -472Q667 -472 680 -466Q692 -460 705 -454Q715 -453 727 -437Q737 -430 742 -418Q751 -407 755 -385Q764 -368 760 -357Q761 -347 761 -337Q756 -322 756 -298Q755 -277 747 -257Q749 -249 740 -226Q742 -217 733 -195Q726 -177 724 -156Q723 -137 714 -120Q711 -91 700 -66Q696 -62 695 -53Q693 -41 690 -38Q696 -18 671 2L646 36Q643 46 634 50Q624 55 621 63Q610 70 601 82Q593 85 590 79Q586 73 581 69Q579 54 575 51Q567 33 555 30Q547 25 544 13Q541 11 541 10Q545 10 551 13Q575 17 593 18Q602 9 628 -29Q641 -53 649 -82Q657 -112 663 -146Q667 -169 671 -193Q674 -205 676 -217Q684 -271 685 -298Q685 -321 684 -344Q683 -376 646 -404Q633 -411 617 -411Q588 -408 561 -400Q533 -393 504 -387Q481 -377 455 -377Q444 -380 427 -374Q418 -371 410 -374Q402 -377 393 -378Q389 -375 376 -360Q372 -358 366 -349Q361 -342 357 -339Q350 -328 343 -317Q337 -306 326 -299Q313 -276 279 -257Q275 -253 271 -248Q267 -242 261 -241Q254 -243 256 -249Q258 -254 263 -258Q287 -303 308 -349Q315 -363 322 -377Q321 -380 326 -383Q329 -385 329 -387Q332 -389 332 -396Q332 -401 334 -404Q334 -408 339 -413Q344 -418 342 -422Q343 -427 351 -439Q356 -446 358 -451Q367 -469 375 -487Q375 -494 382 -504Q387 -512 388 -516Q398 -533 409 -562Q420 -591 425 -601Q427 -612 435 -630Q445 -651 446 -662Q448 -677 427 -679Q421 -678 413 -684Q407 -688 404 -689Q407 -690 410 -692L424 -698Q427 -699 430 -701Q439 -700 444 -704Q449 -707 455 -710ZM378 -315H386Q394 -308 408 -302Q414 -299 420 -297Q427 -294 429 -287Q430 -277 423 -270Q416 -264 413 -257Q400 -240 386 -224Q383 -215 361 -198Q359 -192 363 -191Q373 -190 384 -192Q412 -197 439 -203Q447 -203 446 -207Q444 -214 439 -220Q437 -222 435 -229Q433 -238 429 -240Q425 -243 426 -244Q431 -245 436 -247Q447 -245 458 -244Q472 -244 506 -227Q510 -219 524 -213Q538 -207 542 -200Q550 -192 552 -183Q561 -175 570 -154Q558 -145 545 -139Q535 -131 519 -135Q511 -135 497 -146Q488 -153 482 -155Q455 -152 453 -152Q443 -151 425 -146Q402 -139 388 -140Q370 -138 353 -134Q333 -136 317 -133Q301 -125 294 -142Q294 -147 287 -154Q279 -162 281 -168Q287 -179 287 -191Q304 -208 321 -226Q334 -245 344 -253Q352 -263 363 -272Q374 -282 379 -295Q384 -299 380 -306Q376 -312 378 -315Z"/>
</svg>