<svg xmlns="http://www.w3.org/2000/svg" viewBox="0 -800 1024 1024">
	<path fill="#000000" d="M400 -747Q403 -745 406 -743Q412 -737 425 -733Q440 -728 445 -721Q461 -715 467 -693Q477 -683 474 -671Q471 -649 473 -625Q475 -614 472 -605Q469 -601 473 -599Q476 -597 480 -599Q487 -603 497 -605Q515 -609 520 -615Q534 -611 542 -612Q551 -612 554 -613Q563 -611 567 -613Q570 -610 578 -609Q583 -609 586 -606Q591 -601 584 -593Q578 -587 578 -583Q569 -579 559 -576Q552 -571 539 -571Q526 -571 520 -568Q511 -570 500 -570Q490 -569 483 -578Q477 -581 475 -577Q474 -572 473 -567Q471 -564 472 -558Q474 -550 472 -547Q471 -539 471 -528Q471 -504 472 -501Q474 -497 469 -492Q467 -489 466 -486Q471 -481 469 -470Q467 -459 471 -454Q482 -456 499 -464Q510 -467 521 -470Q549 -481 578 -486Q608 -491 638 -494Q653 -498 665 -492Q675 -493 683 -491Q716 -480 718 -479Q721 -475 727 -471Q733 -467 734 -461Q746 -453 754 -441Q759 -440 763 -431Q766 -425 768 -423Q767 -414 774 -407Q774 -399 780 -386Q788 -371 785 -362Q794 -346 791 -332Q792 -331 792 -328L793 -319Q794 -316 794 -314Q793 -309 795 -303Q797 -298 792 -294Q793 -282 793 -271Q791 -269 791 -263Q791 -256 788 -254Q784 -257 783 -256Q782 -253 784 -249Q786 -247 784 -241Q782 -236 784 -233Q792 -232 792 -225Q793 -217 792 -211Q795 -205 792 -193Q790 -185 791 -180Q789 -180 786 -177Q784 -176 783 -180Q781 -175 783 -165Q784 -159 783 -155Q779 -157 778 -155Q776 -149 782 -146Q791 -148 785 -139Q781 -140 781 -137Q781 -132 779 -129Q777 -123 776 -112Q771 -109 775 -101Q778 -94 777 -90Q772 -87 775 -82Q778 -79 775 -74Q773 -71 775 -69Q776 -61 776 -54Q770 -50 774 -35Q770 -30 763 -26Q764 -23 762 -18Q760 -12 762 -10Q757 -4 757 8Q750 28 746 34Q744 33 743 34Q742 35 742 38Q741 40 741 46Q740 49 741 43Q737 43 732 42Q726 41 726 44Q727 49 722 53Q724 54 725 55Q723 58 715 56Q709 61 706 56Q703 51 700 47Q688 36 679 24Q676 18 674 10Q672 1 664 4Q660 1 652 5Q647 8 643 7Q641 10 636 9Q631 8 630 9Q623 9 615 9Q571 9 548 10Q533 12 519 10Q514 12 498 10Q487 10 475 10Q448 7 421 11Q394 14 368 17Q311 20 260 -20Q254 -21 245 -31Q238 -39 232 -42Q227 -47 220 -72Q210 -74 207 -84Q202 -86 204 -91Q205 -97 206 -102Q202 -106 205 -114Q213 -116 211 -124Q209 -133 209 -141Q209 -150 209 -160Q210 -161 218 -195Q221 -207 224 -220Q227 -223 226 -231Q225 -238 227 -242Q231 -247 232 -261Q233 -274 236 -279Q239 -285 242 -292Q250 -318 258 -344Q263 -357 266 -371Q280 -414 299 -432Q309 -455 329 -464Q341 -468 346 -460Q361 -445 356 -431Q355 -430 355 -429L352 -423Q351 -422 350 -421Q348 -415 340 -409Q331 -402 330 -399Q324 -392 322 -384Q320 -376 317 -369Q302 -353 299 -329Q302 -316 294 -305Q289 -299 287 -284Q286 -271 282 -265Q273 -248 270 -225Q271 -208 264 -195Q265 -184 265 -173Q265 -169 262 -112Q259 -99 262 -85Q262 -76 265 -69Q266 -68 269 -71Q274 -69 274 -60Q274 -51 278 -49Q284 -47 291 -30Q294 -24 301 -24Q308 -23 315 -22Q330 -17 342 -17Q352 -17 372 -21Q394 -25 416 -29Q429 -29 441 -29Q454 -29 467 -30Q490 -29 513 -28Q521 -28 528 -29Q544 -29 559 -29Q581 -29 602 -30Q625 -30 641 -27Q646 -19 654 -16Q658 -19 666 -18Q676 -17 679 -22Q697 -21 699 -35Q703 -57 707 -79Q709 -92 710 -105Q712 -116 713 -127Q714 -130 714 -135L717 -150Q718 -154 718 -158Q724 -193 729 -228Q731 -257 732 -286Q733 -312 729 -335Q723 -355 720 -376Q716 -380 715 -388Q713 -399 711 -402Q696 -448 664 -454Q655 -454 645 -455Q627 -455 595 -447Q594 -451 592 -450Q589 -448 584 -445Q579 -445 569 -442Q559 -438 554 -440Q551 -434 545 -434Q539 -434 535 -432Q495 -419 468 -407Q453 -401 437 -403Q422 -407 407 -411Q404 -410 398 -414Q394 -417 390 -417Q407 -424 414 -429Q421 -430 419 -436Q418 -438 415 -436Q414 -440 409 -445Q401 -453 402 -459Q394 -467 395 -478Q397 -488 400 -497Q404 -523 409 -551Q418 -607 419 -646Q420 -659 421 -671Q423 -684 419 -697Q420 -713 404 -729Q392 -744 400 -747ZM528 -316Q531 -314 533 -310Q535 -306 537 -305Q541 -298 550 -301Q553 -299 556 -298L568 -295Q571 -293 574 -292Q582 -291 583 -281Q584 -272 580 -266Q574 -265 571 -260Q567 -255 564 -250Q558 -240 547 -231Q545 -226 541 -226Q537 -227 534 -225Q530 -222 533 -214Q535 -208 534 -206L551 -198Q552 -190 559 -183Q557 -180 560 -175Q563 -169 562 -167Q561 -158 551 -154Q546 -152 544 -142Q543 -135 540 -133Q529 -147 516 -156Q497 -165 478 -174Q466 -186 456 -174Q451 -177 447 -172Q443 -167 440 -168L426 -155Q422 -157 420 -154Q417 -152 416 -153Q432 -177 437 -181Q440 -184 443 -187Q447 -190 445 -194Q444 -207 433 -214Q421 -221 414 -231Q391 -241 404 -245Q418 -250 422 -247Q448 -243 473 -240Q480 -235 485 -240Q490 -245 496 -251Q495 -260 505 -277Q514 -292 513 -304Q523 -308 528 -316Z"/>
</svg>