<svg xmlns="http://www.w3.org/2000/svg" viewBox="0 -800 1024 1024">
	<path fill="#000000" d="M443 -634Q465 -634 475 -632Q484 -631 493 -630Q495 -627 503 -627Q511 -627 513 -625Q514 -621 517 -620Q520 -620 524 -619Q530 -620 535 -615Q540 -610 543 -610Q552 -595 538 -583Q536 -583 532 -580Q527 -575 523 -576Q521 -581 518 -580Q514 -577 514 -573Q509 -577 497 -574Q489 -572 487 -573Q475 -568 463 -564Q458 -559 448 -566Q441 -571 438 -570Q422 -572 406 -575Q405 -580 397 -578Q392 -579 387 -580Q386 -581 376 -591Q369 -598 371 -604Q373 -608 373 -613Q374 -619 380 -617Q385 -616 387 -618Q398 -614 416 -624Q430 -624 443 -634ZM658 -562L664 -557Q665 -557 670 -555Q674 -553 675 -556Q693 -556 710 -557Q728 -559 735 -545Q730 -535 740 -531Q745 -528 744 -524Q743 -519 743 -516Q744 -508 745 -501Q744 -498 734 -481Q727 -466 715 -460Q704 -444 696 -444Q692 -434 681 -428Q680 -425 673 -421Q666 -416 665 -413Q662 -412 656 -406Q649 -399 646 -398Q635 -387 623 -377Q614 -369 605 -362Q590 -352 573 -333Q537 -297 528 -296Q520 -290 515 -283Q522 -270 521 -256Q517 -245 520 -239Q518 -230 518 -203Q514 -195 517 -188Q519 -182 519 -175Q519 -158 521 -142Q523 -133 528 -123Q533 -99 558 -95Q559 -92 566 -92Q572 -92 575 -89Q596 -86 619 -89Q658 -97 693 -115Q703 -122 719 -127L751 -159Q763 -175 775 -200Q785 -228 794 -257Q797 -247 794 -240Q795 -237 793 -230Q790 -220 794 -217Q799 -207 796 -196Q793 -184 790 -173Q791 -168 786 -162Q780 -155 780 -152Q773 -143 772 -140Q767 -130 756 -122Q751 -117 748 -112Q736 -97 730 -92Q721 -85 708 -80Q707 -75 702 -74Q698 -74 695 -72Q691 -74 688 -67Q685 -61 681 -61Q666 -55 651 -50Q638 -48 631 -44Q626 -43 620 -43Q612 -43 603 -43Q600 -48 593 -43Q582 -42 571 -46Q562 -46 553 -50Q552 -53 547 -52Q542 -51 541 -54Q531 -56 509 -74Q492 -88 482 -104Q475 -121 467 -138Q467 -140 465 -144Q462 -150 465 -152Q462 -156 463 -166Q464 -176 459 -181Q458 -191 462 -204Q460 -210 463 -214Q466 -222 462 -230Q458 -234 454 -230Q450 -225 446 -223Q442 -221 435 -213Q429 -206 424 -204Q413 -197 396 -180Q379 -164 371 -158Q365 -154 360 -149Q353 -141 349 -140Q343 -132 338 -129Q336 -130 336 -135Q334 -140 328 -137Q322 -134 320 -136Q313 -141 307 -149Q303 -147 301 -150Q300 -152 299 -158Q303 -165 298 -170Q292 -175 299 -187Q310 -201 323 -213Q344 -227 372 -252Q373 -255 379 -258Q383 -260 384 -263L418 -297Q419 -302 426 -304Q431 -305 432 -309Q451 -333 491 -365L587 -459Q593 -463 589 -467Q586 -469 584 -465Q566 -457 565 -457Q562 -454 556 -454Q549 -454 547 -450Q490 -420 465 -414Q462 -417 460 -415Q458 -412 455 -410Q451 -411 446 -406Q442 -402 438 -402Q394 -384 348 -368Q328 -358 323 -357Q310 -351 298 -351Q292 -350 285 -350Q281 -349 246 -352Q228 -352 209 -358Q208 -367 212 -371Q217 -370 227 -377Q237 -384 242 -383Q247 -386 271 -396Q273 -400 280 -402Q287 -404 290 -408Q309 -414 328 -420Q356 -434 366 -436Q381 -442 396 -449Q399 -450 402 -451L412 -456Q416 -458 418 -458Q443 -465 449 -471Q457 -472 489 -487Q503 -494 519 -499Q533 -509 543 -509Q548 -515 560 -517Q568 -519 571 -520Q578 -523 585 -526Q594 -529 605 -532Q607 -536 611 -535Q614 -534 617 -535Q622 -542 629 -535Q631 -539 638 -542Q646 -546 648 -552Q653 -557 658 -562Z"/>
</svg>