<svg xmlns="http://www.w3.org/2000/svg" viewBox="0 -800 1024 1024">
	<path fill="#000000" d="M408 -732L410 -731Q420 -731 432 -727Q440 -729 450 -726Q454 -725 460 -727Q469 -730 473 -727Q479 -719 488 -719Q496 -719 505 -718Q510 -713 523 -706Q534 -700 541 -694Q557 -691 556 -673Q555 -668 547 -666Q539 -664 538 -660Q542 -645 537 -644Q526 -647 517 -645Q505 -646 495 -652Q485 -658 475 -662Q427 -687 378 -708Q374 -712 368 -714Q362 -716 362 -722Q375 -724 387 -727Q391 -730 408 -732ZM684 -633Q686 -633 688 -633L691 -630Q690 -626 690 -622Q689 -618 694 -616Q700 -618 701 -612Q702 -607 700 -601Q699 -593 690 -587Q688 -582 680 -581Q675 -580 673 -579Q638 -575 622 -569Q605 -571 580 -563Q563 -562 548 -559Q532 -558 517 -555Q502 -557 480 -550Q475 -546 462 -546Q450 -546 445 -543Q429 -541 412 -540Q402 -541 394 -537Q389 -537 371 -532Q365 -535 357 -532Q353 -529 345 -530Q335 -531 332 -526Q331 -522 326 -518Q319 -512 320 -506Q323 -497 328 -487Q333 -451 331 -441Q329 -427 332 -414Q329 -390 328 -388Q328 -367 327 -363Q323 -349 322 -341Q319 -329 315 -318Q309 -309 307 -293Q303 -285 303 -273Q298 -255 289 -239Q290 -227 286 -218Q282 -208 280 -197Q273 -189 267 -161Q265 -146 254 -132Q253 -128 242 -98Q235 -88 226 -71Q219 -56 208 -42Q203 -32 194 -23Q191 -17 185 -16Q179 -15 178 -22Q170 -30 164 -45Q158 -60 155 -64Q141 -75 165 -94Q170 -110 179 -124Q180 -137 188 -148Q195 -158 199 -169Q199 -175 205 -185Q209 -192 210 -198Q214 -220 215 -225Q220 -237 224 -249Q228 -257 228 -276Q234 -287 239 -298Q244 -302 245 -315Q246 -324 249 -329Q252 -339 255 -349Q253 -358 258 -364Q262 -370 265 -377Q268 -392 273 -414Q277 -445 280 -476Q281 -480 281 -485Q279 -500 274 -513Q274 -519 269 -521Q264 -524 260 -527Q252 -532 251 -536Q251 -540 256 -540Q261 -540 265 -540Q302 -561 317 -563Q334 -569 351 -576Q362 -581 376 -581Q385 -584 395 -585Q412 -591 448 -597Q451 -597 467 -602Q485 -604 502 -606Q513 -610 539 -614Q545 -621 554 -619Q562 -618 571 -619Q599 -624 626 -629Q630 -628 638 -630Q649 -632 654 -628Q670 -628 684 -633ZM539 -489Q552 -491 560 -486Q572 -489 583 -470Q586 -460 580 -448Q582 -443 582 -436Q582 -429 588 -425Q590 -425 596 -429Q602 -434 607 -433Q612 -434 616 -441Q620 -447 623 -448Q626 -448 632 -444Q640 -439 646 -440Q649 -443 670 -445Q682 -448 696 -448Q699 -447 706 -448Q714 -449 717 -447Q727 -443 724 -431Q713 -426 719 -416Q716 -406 701 -404Q687 -399 675 -392Q663 -391 654 -385Q650 -382 632 -380Q623 -378 615 -374Q589 -373 571 -357Q563 -335 555 -313Q550 -308 545 -296Q540 -285 536 -280Q532 -277 535 -274Q538 -271 542 -272Q546 -275 564 -277Q575 -284 591 -284Q610 -289 642 -285Q655 -283 667 -276Q680 -272 686 -259Q695 -253 692 -244Q694 -230 694 -217Q696 -202 690 -191Q685 -178 686 -163Q678 -155 670 -139Q663 -128 656 -118Q655 -115 650 -113Q646 -112 645 -110Q638 -100 630 -91Q630 -88 624 -85Q618 -82 617 -77Q618 -72 624 -72Q630 -73 636 -72Q640 -69 647 -69Q658 -68 661 -65Q682 -63 691 -59Q696 -60 704 -56Q712 -52 717 -53Q725 -55 744 -46Q761 -47 776 -37Q782 -39 790 -34Q796 -30 800 -30Q806 -33 811 -23Q815 -15 834 -20Q838 -19 839 -12Q840 -6 842 -4Q847 -2 851 5Q850 10 855 11Q860 11 864 13Q869 14 867 23Q866 26 864 29L863 37Q862 42 856 42Q850 41 846 43Q840 54 835 49Q820 45 807 38Q787 32 768 23Q763 23 754 18Q748 14 743 14Q727 6 718 6Q713 1 700 -2Q689 -4 685 -7Q658 -12 631 -18Q620 -19 613 -23Q584 -31 573 -33Q565 -37 558 -38Q551 -36 543 -34Q533 -40 526 -28Q513 -16 470 -12Q458 -8 452 -14Q458 -21 465 -24Q468 -27 486 -36Q511 -49 514 -55Q510 -62 503 -62Q495 -63 489 -65Q485 -70 475 -69Q468 -68 466 -70Q455 -76 428 -80Q399 -90 370 -96Q366 -99 362 -100Q359 -102 359 -106Q400 -109 446 -110Q452 -108 468 -108Q487 -108 496 -104Q512 -102 528 -100Q534 -100 546 -96Q558 -92 565 -93Q581 -110 596 -128Q602 -132 607 -140Q612 -147 614 -149Q620 -151 622 -156Q623 -162 626 -167Q638 -176 642 -203Q641 -217 640 -231Q639 -241 630 -245Q623 -249 613 -247Q582 -245 572 -240L560 -242Q554 -242 548 -242Q534 -237 525 -248Q513 -247 503 -264Q495 -281 501 -296Q510 -319 515 -327Q519 -333 516 -338Q513 -343 506 -341Q477 -333 471 -330Q464 -327 454 -327Q447 -327 435 -330Q402 -344 399 -351Q405 -353 436 -363Q441 -367 456 -369Q463 -374 481 -380Q498 -385 514 -391Q522 -392 526 -400Q530 -407 529 -415Q529 -442 525 -452Q521 -460 500 -476Q497 -480 500 -482Q503 -483 507 -482Q523 -485 539 -489Z"/>
</svg>