<svg xmlns="http://www.w3.org/2000/svg" viewBox="0 -800 1024 1024">
	<path fill="#000000" d="M637 -757L642 -755Q661 -754 678 -748Q684 -749 689 -739Q693 -732 697 -730Q700 -727 700 -718Q700 -712 702 -708Q704 -692 702 -674Q701 -661 696 -650Q692 -646 690 -635Q690 -625 683 -617Q678 -614 679 -604Q680 -595 676 -591Q672 -578 668 -566Q663 -564 663 -555Q663 -547 661 -544Q657 -541 652 -533Q646 -523 641 -521Q635 -517 630 -522Q625 -527 621 -529Q610 -537 603 -530L580 -529Q561 -528 542 -528Q513 -532 506 -536Q491 -543 476 -571Q467 -584 472 -601Q475 -608 477 -637Q478 -640 479 -644L481 -658Q482 -661 483 -665Q486 -678 488 -691Q489 -696 481 -700Q474 -704 477 -708Q496 -714 514 -724Q523 -728 533 -730Q551 -738 575 -743Q579 -742 584 -746Q591 -752 596 -749Q600 -749 637 -757ZM629 -717Q623 -718 618 -715Q603 -711 575 -703Q559 -700 542 -698Q532 -700 526 -696Q530 -684 530 -676Q525 -645 523 -641Q523 -636 528 -635Q533 -634 537 -637Q554 -640 571 -643Q581 -643 603 -645Q612 -641 621 -637Q624 -623 611 -616Q603 -614 594 -612Q569 -614 558 -612Q549 -611 540 -612Q531 -613 525 -607Q521 -589 521 -569Q517 -564 521 -559Q525 -554 532 -557Q555 -560 577 -563Q601 -564 624 -573L635 -604Q637 -620 642 -634Q647 -652 652 -670Q651 -675 654 -686Q657 -699 653 -706Q646 -723 629 -717ZM189 -575L192 -574Q196 -572 208 -573Q222 -575 228 -568Q238 -544 239 -535Q243 -521 240 -504Q237 -495 235 -475Q236 -471 235 -462Q233 -450 237 -444Q238 -438 247 -435Q255 -432 258 -428Q264 -425 265 -417Q263 -413 264 -404Q265 -395 264 -391Q264 -389 259 -389Q255 -389 254 -387Q245 -389 240 -386Q233 -382 235 -374Q233 -355 236 -334Q235 -322 233 -311Q233 -306 232 -301Q231 -296 236 -292Q237 -293 237 -294L241 -298Q242 -299 242 -300Q265 -327 287 -354Q292 -367 294 -370Q297 -365 296 -355Q289 -348 289 -329Q294 -322 285 -311Q275 -286 265 -261Q263 -255 255 -244Q245 -231 244 -222Q233 -209 227 -193Q216 -186 217 -176Q215 -170 208 -172Q201 -174 198 -177Q194 -182 188 -187Q180 -194 178 -198Q176 -203 168 -206Q163 -208 161 -211Q161 -216 166 -225Q171 -234 170 -241Q172 -259 173 -278Q173 -286 177 -274Q179 -283 177 -291Q177 -305 177 -320Q176 -331 178 -340Q179 -350 173 -358Q166 -357 145 -368Q138 -369 130 -371L117 -376Q111 -379 105 -383Q102 -386 103 -387Q106 -389 112 -388Q139 -395 146 -396Q161 -401 177 -404Q184 -413 184 -425Q184 -437 186 -449Q182 -461 184 -479Q186 -501 187 -524Q187 -530 187 -536Q189 -550 170 -555Q167 -559 170 -562Q175 -564 180 -567Q184 -575 189 -575ZM759 -512Q766 -512 773 -512Q783 -512 792 -509Q799 -507 806 -506L819 -501Q832 -495 843 -482Q850 -479 851 -472Q853 -465 855 -458Q854 -453 860 -440Q861 -432 857 -422Q853 -415 853 -405Q844 -387 832 -375Q831 -372 829 -370L824 -360Q823 -357 821 -355Q820 -353 812 -348Q807 -349 803 -341Q800 -334 796 -334Q779 -324 775 -309Q762 -305 760 -299Q756 -299 751 -294Q746 -288 743 -288Q734 -294 728 -285Q713 -283 705 -275Q695 -270 690 -282Q676 -292 669 -291Q663 -288 647 -287Q632 -287 625 -282Q617 -282 613 -281L605 -278Q601 -277 593 -277Q581 -273 569 -270Q551 -269 534 -267Q519 -265 503 -263Q489 -259 474 -259Q465 -255 457 -259Q449 -263 441 -264Q435 -262 426 -268Q419 -273 414 -272Q401 -281 387 -290Q373 -296 364 -319Q364 -322 360 -330Q355 -339 358 -345Q359 -371 368 -392Q372 -396 372 -406Q372 -416 376 -419Q391 -432 394 -436Q407 -449 419 -462Q422 -462 428 -456Q436 -448 443 -449Q452 -458 462 -452Q479 -457 496 -462Q513 -466 530 -470Q544 -475 559 -477Q573 -481 588 -482Q594 -481 603 -484Q612 -487 617 -486Q628 -490 644 -490Q647 -492 660 -494Q668 -495 676 -497Q697 -503 721 -506Q727 -510 742 -510Q754 -510 759 -512ZM754 -472Q729 -471 707 -468Q650 -454 618 -451Q610 -454 608 -445Q615 -440 625 -436Q631 -432 639 -429Q647 -427 653 -420L656 -397Q654 -382 651 -367Q647 -364 645 -356Q644 -350 641 -347Q637 -345 634 -339Q631 -332 628 -331Q620 -321 612 -316Q617 -311 637 -316Q641 -315 654 -319Q658 -318 664 -322Q671 -326 675 -325Q688 -320 700 -316Q715 -315 725 -325Q735 -335 747 -344Q761 -360 775 -377Q790 -394 799 -413Q816 -447 785 -467Q763 -476 754 -472ZM562 -441L557 -438Q556 -428 558 -415Q560 -401 561 -387Q563 -384 560 -378Q557 -372 558 -368Q560 -360 559 -349Q557 -345 557 -334Q557 -321 552 -316Q541 -308 535 -320Q522 -328 515 -344Q508 -357 515 -370Q519 -386 523 -402Q528 -424 522 -430Q517 -432 507 -429Q500 -427 496 -428Q475 -429 462 -440Q454 -440 450 -433Q447 -426 443 -420Q438 -418 435 -410Q433 -404 429 -401Q419 -392 416 -381Q413 -369 409 -358Q409 -355 406 -347Q403 -339 405 -333Q405 -321 422 -307Q435 -296 438 -291Q445 -281 460 -286Q489 -288 517 -294Q539 -298 551 -298Q569 -303 573 -303Q588 -306 603 -312Q602 -316 597 -319Q590 -322 592 -327Q600 -356 607 -386Q609 -398 611 -410Q613 -423 604 -432Q598 -439 588 -441Q567 -443 562 -441ZM646 -239Q655 -239 656 -238Q667 -238 680 -235Q696 -230 709 -221Q713 -220 715 -216Q717 -212 720 -208Q726 -203 729 -195Q732 -185 734 -176Q733 -168 729 -160Q729 -154 726 -150Q722 -146 719 -142Q716 -134 703 -121Q692 -110 688 -103Q684 -101 680 -94Q677 -88 674 -86Q669 -87 666 -83Q663 -79 663 -74Q663 -72 658 -69Q652 -65 654 -61Q654 -56 659 -56Q664 -56 669 -56Q672 -55 701 -44Q710 -39 727 -36Q739 -32 751 -29Q769 -19 790 -13Q795 -8 810 -5Q821 -3 827 1Q831 6 843 10Q854 14 859 19Q860 23 867 28Q873 32 874 35Q873 39 879 42Q884 40 888 44Q892 49 889 54Q889 60 884 64Q880 67 873 68Q867 73 852 73Q827 60 804 52Q794 45 766 36Q755 30 744 26Q726 18 710 13Q699 6 687 5Q681 -1 667 -3Q661 -8 647 -10Q635 -17 622 -20Q609 -26 595 -29Q591 -27 578 -11Q572 -8 566 -4Q561 0 554 -2Q548 -4 542 3Q538 9 534 9Q527 5 521 7Q514 9 507 9Q493 11 480 15Q474 14 467 17Q460 19 457 12Q461 7 467 6Q474 5 479 3Q506 -7 532 -22Q544 -29 551 -39Q536 -53 507 -55Q505 -56 486 -59Q455 -66 424 -73Q416 -79 396 -83Q383 -88 369 -88Q365 -90 361 -92Q356 -95 359 -98Q373 -98 387 -98Q411 -100 436 -99Q476 -99 520 -93Q523 -91 530 -91Q540 -91 543 -89Q567 -84 590 -80Q598 -76 604 -82Q610 -89 614 -95Q635 -118 656 -141Q661 -145 671 -162Q685 -179 673 -191Q666 -204 639 -202Q610 -196 581 -191Q562 -197 548 -207Q544 -209 538 -212Q533 -215 537 -219Q554 -220 570 -224Q584 -228 598 -232Q612 -232 625 -236Q636 -237 646 -239Z"/>
</svg>