<svg xmlns="http://www.w3.org/2000/svg" viewBox="0 -800 1024 1024">
	<path fill="#000000" d="M560 -678Q567 -679 573 -673Q591 -670 612 -659Q619 -650 625 -638Q626 -633 620 -623Q616 -616 615 -610Q610 -598 604 -587Q599 -584 599 -581Q600 -577 605 -575Q623 -579 641 -584Q661 -588 683 -589Q688 -591 689 -587Q690 -583 691 -579Q690 -574 697 -572Q706 -569 708 -568Q712 -558 716 -549Q717 -541 711 -539Q705 -537 701 -532Q698 -523 689 -522Q680 -521 673 -517Q665 -513 656 -509Q647 -508 644 -498Q640 -484 638 -482Q608 -460 593 -450Q587 -447 581 -445Q573 -444 569 -449Q565 -454 568 -461Q574 -475 581 -480Q591 -484 596 -498Q593 -504 588 -503Q583 -502 579 -499Q568 -500 556 -501Q545 -509 534 -499Q517 -485 512 -483Q504 -483 498 -478Q491 -475 489 -482Q491 -493 477 -503Q469 -507 470 -517Q470 -520 475 -532Q479 -535 481 -544Q483 -553 488 -556Q489 -564 500 -571Q512 -595 528 -617Q534 -624 539 -635Q545 -648 548 -652Q552 -660 546 -666Q547 -671 552 -673Q556 -675 560 -678ZM110 -454L130 -452Q143 -448 155 -445Q167 -445 187 -425Q189 -417 195 -415Q209 -420 223 -425Q239 -430 254 -436Q266 -441 280 -444Q293 -444 304 -436Q305 -430 319 -430Q326 -427 325 -420Q325 -413 326 -406Q327 -401 325 -380Q327 -375 322 -366Q318 -360 318 -356Q308 -343 297 -330Q293 -325 286 -318Q280 -311 288 -305Q291 -302 300 -303Q312 -304 316 -298Q330 -294 324 -282Q319 -280 317 -267Q316 -263 308 -263Q302 -263 299 -261Q262 -259 224 -258Q208 -257 191 -256Q184 -255 183 -245Q183 -237 180 -235Q170 -222 159 -231Q150 -239 142 -246Q133 -253 131 -263Q129 -268 129 -277Q129 -288 124 -293Q124 -297 124 -303Q123 -308 128 -308Q131 -313 129 -322Q127 -330 128 -334Q129 -357 132 -378Q140 -404 139 -419Q125 -440 119 -443Q118 -444 117 -445Q107 -448 110 -454ZM586 -420Q587 -420 594 -418Q607 -412 618 -418Q638 -418 648 -414Q660 -415 662 -399Q674 -391 672 -370Q661 -357 654 -341Q643 -336 637 -325Q632 -315 624 -305Q622 -300 613 -291Q602 -280 600 -273Q593 -260 585 -247Q580 -235 574 -224Q568 -212 567 -198Q566 -195 563 -177Q563 -147 564 -130Q569 -117 573 -105Q593 -79 626 -71Q641 -68 655 -65Q673 -65 690 -65Q730 -61 734 -61Q748 -62 761 -64Q766 -66 793 -66Q801 -66 808 -67Q809 -67 839 -73Q854 -74 868 -79Q871 -82 883 -86Q899 -91 903 -99Q906 -101 906 -115Q906 -141 907 -144Q907 -146 907 -147Q910 -145 913 -142Q917 -130 924 -117Q926 -106 933 -100Q936 -99 944 -92Q948 -88 957 -87Q969 -85 974 -80Q989 -76 991 -45Q984 -36 970 -29Q954 -27 946 -17Q943 -15 936 -16Q930 -17 927 -15Q904 -13 880 -12Q864 -9 846 -9Q807 -10 771 -6Q737 -2 702 -6Q697 -8 693 -6Q691 -6 691 -9Q682 -14 669 -12Q648 -11 633 -18Q613 -21 596 -28Q573 -40 552 -55Q516 -80 510 -122Q508 -135 509 -140Q508 -151 507 -161Q505 -171 509 -180Q512 -191 514 -202Q512 -218 524 -244Q534 -285 567 -330Q567 -333 571 -338Q577 -345 575 -349Q569 -353 561 -343Q542 -338 526 -330Q514 -325 503 -319Q492 -312 479 -314Q465 -320 450 -321Q436 -324 422 -327Q418 -328 418 -330Q418 -332 420 -334Q436 -341 451 -351Q497 -373 543 -395Q565 -407 586 -420ZM204 -389Q194 -389 194 -381Q193 -372 194 -363Q197 -354 194 -337Q192 -321 193 -313Q194 -309 190 -302Q185 -295 187 -290Q193 -288 218 -296Q229 -298 236 -308Q242 -317 247 -326Q256 -340 260 -355Q262 -367 267 -377Q267 -384 262 -385Q258 -386 252 -384Q243 -383 233 -382Q228 -382 221 -386Q210 -391 204 -389Z"/>
</svg>