<svg xmlns="http://www.w3.org/2000/svg" viewBox="0 -800 1024 1024">
	<path fill="#000000" d="M429 -707L441 -700Q455 -690 474 -682Q492 -675 504 -659Q520 -635 517 -605Q514 -576 511 -546Q530 -548 549 -551Q558 -550 558 -557Q558 -564 549 -565Q550 -568 559 -565Q568 -562 572 -562Q581 -562 585 -570Q590 -569 603 -571Q615 -573 623 -570Q653 -572 682 -574Q692 -568 705 -565Q718 -561 719 -546Q715 -539 719 -533Q723 -527 726 -520Q713 -510 694 -510Q674 -511 658 -513Q564 -500 510 -488Q506 -476 503 -462Q499 -448 504 -434Q503 -420 503 -407Q504 -402 511 -405Q528 -407 543 -410Q557 -414 572 -410Q574 -406 577 -398Q579 -389 589 -385Q607 -376 596 -362Q544 -354 491 -341Q486 -342 484 -335Q483 -328 481 -322Q479 -315 471 -319Q469 -334 452 -334Q439 -332 426 -330Q398 -326 382 -326Q351 -326 321 -334Q314 -332 308 -341Q303 -349 298 -350Q286 -351 286 -356Q287 -357 293 -354Q326 -363 419 -383Q429 -382 429 -390Q430 -400 431 -409Q434 -415 436 -444Q437 -454 437 -465Q437 -477 424 -475Q348 -457 328 -454Q283 -445 240 -442Q221 -442 201 -448Q189 -446 168 -449Q147 -452 138 -450Q131 -455 132 -456Q138 -457 150 -458Q182 -484 222 -488Q262 -492 298 -502Q326 -504 372 -516Q418 -528 439 -530Q443 -571 446 -611Q447 -630 446 -650Q446 -670 429 -683Q428 -693 429 -707ZM449 -277Q457 -280 463 -272Q468 -266 474 -264Q483 -263 480 -254Q477 -246 477 -238Q472 -234 471 -227Q469 -221 473 -220Q476 -220 480 -224Q524 -237 568 -251Q612 -266 658 -273Q718 -278 749 -242Q758 -222 761 -213Q766 -195 761 -182Q760 -170 746 -148Q736 -133 733 -122Q720 -109 706 -95Q692 -81 682 -63Q674 -59 677 -55Q679 -52 686 -47Q697 -45 695 -37Q692 -29 695 -22Q699 -14 697 -8Q695 -2 686 -1Q681 -5 670 -2Q661 0 657 -2Q610 -3 566 -11Q553 -17 526 -19Q494 -22 481 -28Q474 -32 475 -34Q483 -37 500 -38Q533 -45 601 -53Q613 -51 622 -59Q626 -63 636 -77Q638 -88 651 -106Q663 -123 665 -134Q671 -153 680 -170Q689 -188 682 -207Q670 -213 656 -213Q624 -210 596 -199Q559 -190 521 -182Q514 -183 498 -181Q476 -178 465 -182Q460 -179 457 -183Q453 -188 449 -186L431 -144Q428 -119 423 -96Q417 -73 421 -49Q423 -40 429 -28Q434 -17 421 -12Q416 -17 403 -19Q390 -21 386 -26Q376 -26 368 -38Q356 -56 355 -57Q350 -68 349 -83Q351 -88 350 -97Q349 -109 353 -112Q363 -130 377 -162Q395 -206 408 -224Q413 -233 428 -250Q444 -268 449 -277Z"/>
</svg>