<svg xmlns="http://www.w3.org/2000/svg" viewBox="0 -800 1024 1024">
	<path fill="#000000" d="M784 -693Q803 -690 822 -687Q833 -680 840 -670Q847 -669 846 -659Q845 -650 849 -648Q856 -640 847 -625Q844 -620 847 -609Q849 -601 848 -596Q851 -591 848 -581Q852 -573 849 -563Q844 -560 846 -552Q848 -545 844 -541Q849 -527 847 -512Q846 -497 847 -483Q847 -471 847 -459Q849 -455 848 -446Q847 -436 849 -433Q847 -423 849 -401Q850 -388 849 -378Q847 -369 847 -331Q848 -320 848 -282Q850 -264 852 -247Q855 -229 857 -212Q854 -193 857 -173Q856 -161 854 -149Q857 -137 854 -101Q849 -90 851 -75Q846 -71 847 -62Q848 -54 845 -51Q851 -39 839 -9Q834 -9 832 -5Q830 -1 832 4Q837 17 828 24Q819 30 814 37Q806 39 797 37Q788 35 773 18Q764 5 758 -9Q749 -9 748 -12Q740 -13 733 -22Q725 -22 720 -27Q715 -31 708 -35Q706 -37 706 -38Q713 -38 720 -35Q736 -28 751 -28Q757 -30 763 -30Q769 -30 772 -35Q780 -71 783 -110Q786 -164 785 -217Q786 -228 786 -240Q782 -286 783 -306Q787 -332 781 -357Q781 -403 783 -441Q785 -464 785 -541Q785 -555 785 -570Q784 -578 782 -608Q780 -641 775 -659Q772 -670 762 -674Q752 -677 742 -680Q756 -684 769 -689Q777 -691 784 -693ZM475 -571H479Q482 -568 488 -569Q494 -570 496 -569Q516 -572 531 -563Q531 -548 530 -534Q510 -523 501 -522Q488 -521 485 -509Q481 -498 479 -487Q474 -483 466 -470Q460 -460 453 -453Q442 -439 441 -428Q446 -426 454 -429Q462 -432 467 -431Q476 -430 485 -429Q502 -429 516 -425Q519 -427 524 -424Q528 -422 530 -424Q539 -421 547 -416Q561 -411 564 -398Q568 -386 570 -373Q564 -335 558 -317Q554 -316 550 -308Q546 -300 540 -300Q537 -295 530 -287Q520 -276 518 -269Q507 -258 497 -243Q480 -220 477 -217Q474 -218 472 -214Q470 -210 468 -209Q467 -205 465 -200Q463 -194 459 -195Q444 -186 429 -161Q426 -158 417 -153Q405 -147 403 -140Q398 -138 390 -129Q382 -121 378 -118Q377 -111 369 -109Q362 -107 355 -110Q344 -98 332 -105Q325 -106 318 -104Q312 -102 307 -107Q311 -107 319 -114Q326 -120 332 -121Q334 -127 341 -132Q348 -136 349 -140Q350 -145 356 -148Q362 -151 364 -154Q365 -160 373 -168Q383 -179 382 -185Q388 -192 394 -198Q400 -205 403 -215Q435 -249 441 -262Q440 -267 433 -268Q426 -269 420 -271Q403 -284 358 -300Q350 -300 338 -306Q326 -312 322 -313Q319 -316 318 -319Q317 -323 322 -323Q329 -321 340 -326Q342 -333 325 -340Q325 -341 324 -343L321 -352Q320 -353 319 -355Q308 -373 336 -397Q341 -401 346 -410Q353 -423 358 -425Q369 -444 382 -462Q395 -482 408 -500Q398 -508 386 -514Q372 -517 358 -520Q355 -525 346 -527Q335 -529 332 -533Q333 -537 340 -538Q348 -539 350 -541Q362 -541 374 -542L400 -554Q415 -554 433 -560Q453 -567 475 -571ZM185 -510Q199 -509 212 -509Q217 -506 224 -504Q230 -501 232 -495Q225 -491 233 -475Q230 -465 220 -462Q210 -458 198 -463Q194 -467 186 -468Q176 -470 173 -473Q166 -478 154 -482Q138 -491 124 -497Q119 -499 120 -501Q125 -504 133 -505Q141 -509 162 -508Q178 -508 185 -510ZM645 -444H652Q665 -432 684 -420Q693 -412 695 -402Q697 -381 698 -361Q699 -349 695 -331Q691 -313 691 -305Q686 -278 680 -252Q681 -242 663 -237Q657 -245 648 -246Q647 -249 642 -254Q637 -259 637 -264Q632 -265 628 -270Q622 -278 621 -279Q616 -284 614 -290Q615 -292 619 -292Q618 -295 617 -300Q615 -304 619 -308Q619 -323 628 -351Q636 -379 637 -395Q641 -419 645 -444ZM416 -398Q410 -394 402 -383Q395 -373 390 -370Q375 -353 365 -350Q364 -346 357 -342Q349 -337 348 -331Q347 -331 346 -330Q345 -329 347 -327Q351 -323 353 -326Q360 -325 366 -324Q390 -323 408 -318Q437 -317 455 -304Q459 -297 464 -301Q468 -305 468 -310Q475 -316 477 -324Q479 -332 483 -340Q496 -366 493 -383Q493 -391 486 -391Q477 -392 472 -389Q464 -389 454 -386Q442 -383 429 -392Q427 -392 423 -396Q419 -400 416 -398ZM222 -321Q222 -315 222 -310Q217 -301 225 -294Q224 -282 219 -272Q222 -264 215 -249Q210 -239 210 -234Q202 -219 196 -203L184 -180Q183 -171 180 -162Q178 -152 167 -153Q160 -155 149 -164Q139 -172 134 -174Q134 -179 126 -184Q119 -189 117 -195Q111 -198 114 -202Q118 -206 121 -212Q119 -226 123 -234Q124 -243 128 -254Q127 -259 130 -261Q134 -263 138 -260Q145 -258 154 -244Q161 -249 172 -264Q180 -275 186 -280Q205 -298 222 -321Z"/>
</svg>