<svg xmlns="http://www.w3.org/2000/svg" viewBox="0 -800 1024 1024">
	<path fill="#000000" d="M526 -675H534Q554 -677 566 -672Q574 -673 580 -668Q585 -664 590 -660Q589 -655 594 -649Q598 -644 599 -639Q601 -629 606 -623Q604 -605 602 -604Q591 -599 594 -587Q590 -580 579 -572Q568 -564 565 -559Q564 -551 559 -544Q559 -540 563 -534Q568 -527 565 -522Q566 -513 556 -505Q546 -497 538 -497Q499 -498 460 -494Q451 -492 441 -490Q418 -492 398 -485Q390 -479 370 -485Q367 -481 366 -471Q366 -462 361 -457Q363 -447 353 -435Q357 -422 353 -407Q354 -401 350 -392Q345 -381 348 -375Q346 -360 343 -345Q337 -335 333 -325Q327 -305 320 -286Q320 -283 311 -266Q306 -255 304 -245Q301 -235 293 -226Q289 -208 281 -190Q275 -180 273 -168Q270 -166 268 -159Q266 -152 263 -150Q258 -135 252 -120Q247 -114 239 -95Q231 -90 231 -83Q231 -75 229 -68Q213 -56 213 -42Q209 -39 205 -29Q199 -15 192 -14Q188 -18 177 -26Q163 -35 159 -44Q145 -58 151 -73Q192 -135 217 -183Q230 -205 237 -229Q245 -253 254 -275Q254 -281 260 -288Q266 -294 266 -297Q277 -336 277 -340Q299 -403 308 -476Q312 -495 315 -514Q321 -538 315 -566Q320 -587 305 -602Q297 -601 307 -611Q312 -620 321 -620Q333 -618 345 -616Q348 -614 351 -615Q353 -617 352 -620Q352 -622 348 -622Q349 -631 357 -634Q365 -638 372 -643Q386 -645 421 -653Q450 -661 484 -669Q495 -673 526 -675ZM529 -627H525Q515 -620 488 -615Q470 -612 460 -607Q450 -606 438 -601Q420 -597 405 -602Q389 -607 374 -611Q370 -614 362 -614Q357 -613 359 -608Q367 -607 367 -595Q367 -585 370 -582Q376 -565 371 -557Q374 -552 371 -541Q367 -527 375 -525Q410 -533 444 -539Q471 -541 500 -547Q526 -587 531 -608Q536 -617 535 -626Q534 -629 529 -627ZM471 -381Q485 -380 499 -367Q509 -357 517 -346Q531 -352 546 -355Q574 -364 601 -374Q615 -381 634 -377Q637 -376 646 -376Q657 -376 662 -372Q675 -365 688 -352Q689 -344 698 -334Q698 -329 696 -317Q696 -311 692 -301Q686 -295 683 -287Q680 -279 676 -271Q674 -267 674 -265L668 -254Q668 -252 666 -248Q655 -238 652 -223Q652 -220 648 -215Q643 -208 644 -203Q636 -187 623 -169Q622 -157 615 -144Q610 -141 608 -129Q606 -119 602 -115Q593 -94 597 -85Q603 -64 613 -54Q643 -28 665 -26Q680 -20 697 -18Q722 -18 747 -18Q761 -16 774 -17Q809 -18 843 -20Q856 -21 868 -23Q881 -23 882 -32Q887 -46 891 -60Q892 -79 895 -96Q898 -109 900 -123Q906 -112 905 -93Q903 -74 915 -49Q925 -33 929 -23Q935 -15 949 -18Q956 -18 959 -15L956 3Q952 7 952 18Q943 24 933 29L758 31Q718 27 698 27Q689 26 679 25Q677 20 672 21Q666 22 663 21Q659 21 630 12Q626 13 619 8Q615 5 612 5Q582 -12 573 -22Q553 -41 544 -72Q543 -93 541 -115Q537 -126 545 -133Q552 -141 558 -149Q560 -158 568 -173Q576 -188 578 -196Q600 -248 625 -298Q631 -311 636 -325Q636 -332 632 -332Q623 -329 614 -326Q605 -322 595 -318Q555 -308 517 -293Q509 -291 507 -277Q507 -274 505 -268Q502 -260 505 -254Q499 -239 496 -223Q492 -216 487 -203Q481 -185 475 -178Q469 -161 458 -145Q456 -140 447 -132Q438 -124 436 -118Q422 -102 411 -85Q401 -84 394 -77Q387 -70 380 -64Q374 -66 364 -60Q356 -55 350 -57Q347 -64 359 -78Q370 -90 377 -103Q394 -134 410 -166Q416 -180 422 -194Q420 -203 424 -208Q428 -214 431 -220Q433 -237 441 -251Q440 -254 443 -261Q447 -270 442 -273Q430 -274 420 -270Q410 -276 380 -276L356 -284Q349 -282 333 -287Q330 -289 331 -290Q334 -292 340 -292Q364 -300 387 -308Q407 -314 426 -320Q442 -326 458 -332Q469 -336 470 -346Q472 -356 473 -366Q474 -368 471 -374Q468 -379 471 -381Z"/>
</svg>