<svg xmlns="http://www.w3.org/2000/svg" viewBox="0 -800 1024 1024">
	<path fill="#000000" d="M331 -307Q330 -304 323 -300Q318 -297 315 -293Q308 -284 299 -277Q297 -271 292 -270Q287 -268 283 -265Q281 -261 267 -250Q264 -245 253 -236Q245 -229 240 -223Q231 -220 226 -215Q220 -209 214 -205Q207 -204 203 -198Q199 -193 194 -189Q188 -184 182 -191Q177 -196 175 -203Q179 -218 192 -228Q205 -249 223 -268Q240 -288 256 -307Q269 -322 278 -335Q277 -339 282 -345Q288 -353 284 -357Q270 -359 261 -356Q231 -354 217 -351Q206 -351 197 -349Q188 -354 183 -347Q177 -341 171 -338Q158 -332 153 -345Q141 -362 138 -379Q135 -382 137 -389Q138 -393 137 -395Q129 -407 141 -414Q143 -429 152 -430Q160 -431 171 -443Q178 -451 183 -454Q193 -466 239 -507Q243 -512 249 -517Q255 -523 250 -528Q228 -526 206 -524Q201 -523 195 -523L172 -521Q167 -520 161 -520Q152 -520 134 -526Q122 -530 113 -531Q109 -532 105 -533Q100 -535 102 -539Q131 -549 188 -555Q198 -558 257 -568Q282 -572 307 -577Q314 -581 325 -583Q343 -587 349 -592Q342 -599 334 -600Q267 -632 243 -652Q241 -655 233 -662Q226 -668 224 -673Q226 -678 238 -673Q247 -671 263 -675L282 -674Q287 -672 297 -671Q310 -670 315 -666Q330 -666 338 -660Q349 -654 360 -648Q369 -649 375 -637Q378 -630 379 -626Q387 -615 388 -605Q394 -603 404 -604Q418 -606 425 -601Q434 -602 439 -596Q443 -590 449 -583Q455 -571 454 -565Q442 -554 425 -556Q412 -553 400 -549Q388 -549 377 -545L352 -537Q352 -524 332 -502Q323 -496 314 -491Q276 -462 245 -433Q234 -422 227 -407Q228 -401 236 -401Q243 -402 249 -400Q266 -403 280 -399Q292 -403 303 -401Q311 -405 318 -410Q323 -413 326 -417Q328 -418 336 -422Q345 -427 351 -426Q358 -429 363 -426Q368 -424 374 -423Q376 -420 382 -417Q391 -412 393 -406Q393 -403 397 -398Q402 -392 399 -389L394 -382Q392 -379 391 -372Q390 -370 370 -350Q369 -348 367 -347L361 -339Q351 -329 331 -307ZM504 -141Q511 -155 518 -170Q524 -188 533 -202Q545 -233 557 -265Q567 -293 585 -349Q587 -360 592 -370L602 -395L583 -397Q565 -400 530 -413Q523 -413 519 -416Q518 -417 521 -420Q540 -426 558 -432Q562 -432 565 -433L579 -437Q583 -437 586 -438Q599 -447 615 -449Q611 -460 607 -472Q605 -480 601 -482Q597 -485 592 -489Q573 -502 582 -514Q591 -514 602 -510Q611 -506 623 -506Q634 -501 649 -500Q663 -499 671 -485Q672 -481 675 -478Q680 -473 680 -470Q679 -466 681 -465Q684 -464 687 -463Q711 -472 737 -475Q748 -479 761 -481Q799 -484 834 -473Q846 -471 856 -462Q865 -453 874 -443Q881 -437 881 -425Q889 -419 891 -414Q891 -406 896 -399Q898 -396 897 -389Q896 -381 899 -377Q900 -365 901 -353Q899 -348 897 -319Q889 -312 889 -299Q879 -290 879 -272L874 -263Q874 -261 873 -259Q866 -252 867 -241Q860 -237 860 -223Q852 -212 851 -197Q845 -195 845 -189Q844 -184 843 -179Q833 -172 829 -151Q829 -146 824 -139Q820 -133 819 -130Q810 -121 806 -110Q798 -93 784 -78Q777 -75 770 -65Q764 -56 760 -53Q747 -49 740 -38Q737 -33 728 -31Q718 -29 716 -24Q704 -23 704 -35Q691 -47 677 -60Q665 -71 653 -77Q639 -84 637 -87Q646 -88 657 -87Q670 -89 685 -89Q699 -89 711 -96Q726 -112 738 -128Q749 -146 760 -164Q764 -167 765 -176Q766 -181 768 -184Q775 -191 778 -200Q779 -211 789 -229Q798 -244 799 -253Q802 -260 801 -269Q801 -277 809 -282Q813 -288 816 -304Q818 -317 822 -323Q826 -331 829 -340Q833 -368 830 -387Q827 -399 824 -410Q820 -421 809 -426Q794 -439 774 -432Q758 -430 745 -425Q737 -425 722 -419Q711 -415 703 -414Q700 -411 691 -411Q681 -411 678 -404Q670 -393 664 -379Q660 -375 653 -355Q649 -349 649 -333Q649 -330 646 -326Q641 -321 642 -317Q631 -306 631 -290Q627 -287 625 -268Q620 -265 618 -256Q617 -250 614 -247Q606 -237 603 -224Q601 -222 593 -200Q584 -183 572 -166L561 -142Q546 -128 536 -105Q534 -98 522 -92Q515 -79 503 -78Q498 -75 492 -70Q486 -65 481 -71Q480 -79 486 -91Q491 -101 491 -106Q492 -108 494 -114L501 -133Q503 -139 504 -141ZM449 -108Q444 -95 431 -101Q416 -105 405 -115Q393 -125 381 -134Q365 -149 349 -159Q345 -166 338 -166Q332 -166 316 -153Q306 -146 296 -140Q290 -135 286 -128Q282 -122 275 -123Q268 -124 265 -118Q260 -107 259 -107Q256 -107 250 -103Q242 -98 238 -102Q233 -104 227 -99Q221 -94 218 -95Q211 -98 202 -92Q194 -87 191 -87Q187 -84 187 -88Q193 -99 202 -105Q215 -114 246 -147Q278 -182 302 -204Q334 -236 364 -269Q369 -278 376 -285Q382 -293 383 -303Q381 -309 387 -310Q404 -306 421 -297Q428 -296 432 -290Q433 -289 438 -277Q448 -269 440 -259Q435 -257 432 -248Q430 -242 426 -239Q420 -236 415 -227Q410 -218 408 -216Q404 -207 392 -205Q389 -202 385 -199Q378 -194 376 -190Q381 -183 392 -181Q399 -176 422 -168Q426 -163 435 -157Q448 -149 451 -143Q451 -135 451 -127Q448 -124 449 -116Q450 -111 449 -108Z"/>
</svg>