<svg xmlns="http://www.w3.org/2000/svg" viewBox="0 -800 1024 1024">
	<path fill="#000000" d="M486 -785L494 -779Q511 -778 525 -770Q536 -765 533 -755Q537 -740 529 -721Q529 -707 526 -703Q523 -698 525 -686Q526 -677 525 -672Q520 -664 518 -649Q516 -634 513 -629Q514 -615 511 -601Q526 -596 543 -595Q556 -597 575 -590Q579 -580 570 -571Q563 -564 552 -561Q534 -557 515 -555Q505 -556 498 -548Q492 -540 492 -530Q486 -517 480 -505Q481 -501 479 -495Q476 -486 480 -482Q505 -488 531 -492Q540 -496 559 -491Q567 -493 585 -488Q596 -485 604 -485Q621 -480 631 -469Q641 -456 645 -441Q647 -436 645 -426Q643 -417 645 -412Q635 -400 635 -384Q628 -369 621 -358Q620 -354 616 -350Q611 -346 612 -342Q599 -324 598 -319Q595 -314 592 -308Q590 -302 585 -301Q578 -292 571 -283Q568 -283 566 -279Q564 -275 561 -274Q557 -268 552 -262Q547 -257 540 -262Q540 -268 534 -271Q528 -274 523 -268Q511 -264 499 -261Q492 -259 494 -253Q495 -246 494 -239Q493 -232 497 -232Q503 -231 509 -232Q518 -234 527 -239Q534 -238 541 -237Q547 -238 559 -238Q574 -240 589 -228V-216Q571 -206 552 -204Q528 -197 504 -193Q490 -189 492 -161Q489 -142 491 -121Q491 -117 489 -111Q485 -102 488 -96Q487 -82 483 -70Q480 -59 476 -54Q470 -46 462 -49Q448 -58 441 -74Q431 -84 430 -93Q442 -153 442 -168Q443 -175 437 -176Q430 -178 423 -174Q420 -175 398 -170Q385 -167 372 -164Q361 -159 350 -155L339 -153Q333 -153 330 -154Q308 -159 286 -165Q286 -174 285 -183Q296 -184 307 -185Q324 -188 337 -192Q368 -199 398 -207Q424 -213 434 -215Q449 -215 450 -226Q449 -240 447 -255Q430 -257 413 -259Q391 -267 370 -290Q342 -306 335 -325Q328 -353 338 -372Q341 -392 354 -403Q358 -408 381 -437Q382 -444 395 -457Q399 -457 403 -465Q408 -474 414 -472Q417 -468 424 -472Q430 -475 433 -473Q441 -480 445 -489Q457 -520 455 -539Q441 -544 430 -543Q419 -546 407 -548Q395 -549 385 -557Q379 -558 381 -562Q392 -566 403 -571Q419 -574 434 -581Q448 -586 461 -589Q461 -590 464 -620Q470 -667 476 -714Q474 -719 475 -734Q476 -751 472 -759Q465 -769 459 -765Q456 -766 457 -768Q460 -771 464 -774Q474 -781 486 -785ZM856 -565Q859 -566 870 -563Q886 -559 894 -559Q904 -554 914 -549Q927 -540 929 -519Q931 -515 926 -511Q923 -508 924 -505Q923 -501 924 -492Q926 -480 922 -473Q915 -470 915 -462Q916 -455 914 -448Q917 -443 913 -434Q909 -426 912 -422Q911 -396 909 -371Q910 -365 907 -355Q902 -342 906 -336Q904 -325 902 -314Q898 -306 898 -300Q896 -288 897 -277Q899 -274 898 -269Q897 -260 900 -256Q900 -251 895 -221Q899 -213 901 -194Q901 -182 900 -171Q903 -162 900 -151Q902 -145 902 -128Q902 -116 904 -109Q902 -94 905 -81Q910 -72 907 -61Q912 -43 912 -21Q910 -7 905 5Q904 7 899 7Q892 7 892 11Q890 14 885 10Q880 6 878 6Q869 1 864 -9Q860 -19 853 -28Q850 -38 847 -49Q842 -54 849 -57Q852 -63 850 -73Q848 -84 849 -88Q848 -99 847 -110Q846 -127 848 -146Q845 -189 847 -236Q849 -247 838 -249Q819 -258 802 -268Q770 -289 762 -302Q747 -310 746 -330Q745 -346 754 -362Q756 -367 759 -372Q762 -377 757 -382Q746 -385 734 -383Q730 -365 731 -349Q728 -346 729 -338Q730 -331 728 -328Q731 -319 731 -298Q727 -294 727 -284Q731 -277 731 -259Q728 -250 726 -225Q725 -200 717 -179Q714 -166 710 -154Q707 -146 706 -138Q705 -130 699 -125Q703 -117 695 -93Q695 -88 691 -80Q687 -73 688 -67Q676 -45 659 -31Q650 -34 648 -43Q645 -52 640 -59Q638 -67 635 -74Q632 -82 636 -90Q649 -121 658 -154Q658 -163 665 -182Q670 -195 671 -204Q679 -228 682 -239Q690 -278 692 -314Q700 -360 696 -403Q694 -409 695 -421Q696 -436 692 -443Q692 -453 688 -471Q689 -479 681 -492Q674 -503 674 -509Q707 -499 714 -475Q714 -470 720 -462Q725 -454 726 -449Q725 -440 727 -432Q730 -424 727 -414Q730 -407 736 -409Q743 -411 749 -412Q754 -415 765 -412Q773 -410 777 -410Q798 -412 811 -403Q820 -386 810 -380Q804 -378 799 -372Q798 -371 791 -361Q789 -351 784 -345Q785 -329 785 -314Q789 -308 798 -306Q806 -305 814 -304Q831 -292 846 -291Q849 -316 848 -339Q854 -387 856 -412Q860 -455 868 -496Q868 -507 867 -519Q869 -525 864 -528Q858 -532 854 -526Q840 -522 825 -518Q815 -513 804 -509Q802 -503 797 -499Q791 -496 786 -492Q785 -486 778 -484Q770 -482 765 -486Q761 -486 756 -488Q751 -490 748 -486Q731 -484 721 -501Q712 -504 722 -511Q737 -512 763 -530Q785 -545 807 -552Q832 -561 856 -565ZM555 -454Q536 -449 517 -444Q505 -440 492 -439Q485 -428 468 -437Q461 -438 457 -434Q454 -430 451 -426Q447 -421 445 -423Q443 -430 439 -435Q430 -432 425 -423Q420 -415 416 -407Q412 -394 407 -381Q414 -377 421 -377Q435 -379 448 -381Q469 -376 489 -372Q498 -371 503 -362Q506 -356 500 -351Q498 -350 489 -345Q478 -347 467 -350Q461 -350 454 -350Q429 -354 409 -362Q402 -363 400 -358Q398 -353 397 -349Q393 -335 389 -321Q391 -305 398 -291Q403 -286 408 -288Q413 -289 420 -290Q447 -293 473 -300Q477 -303 487 -299Q496 -295 500 -297Q525 -292 537 -314Q554 -330 563 -362Q577 -389 587 -419Q588 -428 589 -437Q590 -446 585 -452Q563 -457 555 -454ZM220 -455Q224 -453 235 -453Q243 -453 248 -451Q263 -447 273 -437Q283 -404 281 -392Q277 -389 275 -380Q274 -372 271 -370Q271 -364 263 -359Q255 -353 255 -348Q251 -344 253 -342Q258 -339 264 -337Q275 -340 287 -320Q288 -317 288 -312Q288 -306 285 -306Q279 -306 273 -302Q247 -301 222 -297Q187 -294 153 -297Q148 -297 147 -294Q147 -289 149 -285Q148 -279 143 -281Q137 -285 132 -285Q97 -306 97 -339Q98 -350 98 -362Q101 -384 112 -404Q119 -408 126 -416Q132 -425 139 -429Q140 -434 144 -437Q149 -440 149 -441Q155 -447 158 -442Q161 -437 166 -434Q180 -438 194 -446Q201 -450 220 -455ZM223 -411L220 -410Q215 -413 207 -407Q198 -400 192 -404Q189 -402 181 -403Q168 -404 166 -398Q166 -392 161 -385Q156 -378 155 -374Q144 -358 140 -344Q140 -336 140 -328Q137 -322 142 -319Q146 -317 153 -320Q177 -321 199 -334Q227 -362 232 -401Q229 -401 228 -405Q228 -408 227 -411Q226 -412 223 -411Z"/>
</svg>