<svg xmlns="http://www.w3.org/2000/svg" viewBox="0 -800 1024 1024">
	<path fill="#000000" d="M414 -751Q421 -752 429 -750Q435 -755 442 -744Q450 -745 454 -739Q472 -731 477 -726Q513 -731 552 -720Q564 -720 571 -705L566 -681Q562 -678 557 -668Q549 -653 540 -649L518 -627Q509 -624 501 -616Q496 -609 490 -601Q484 -594 474 -592L450 -567Q440 -562 434 -555Q428 -546 420 -543Q399 -534 387 -520Q369 -512 356 -499Q352 -496 348 -492Q344 -487 337 -491Q329 -489 321 -488Q352 -514 379 -547Q395 -561 410 -575Q412 -579 416 -582Q419 -585 418 -589Q413 -592 390 -600Q375 -606 360 -613Q358 -615 354 -616Q348 -618 350 -622Q365 -622 379 -622Q396 -621 413 -621Q424 -618 434 -617Q442 -611 454 -619Q458 -619 460 -624Q462 -629 465 -629Q482 -642 484 -652Q497 -654 499 -665L511 -683Q514 -687 518 -691Q523 -696 519 -700Q502 -703 477 -698Q472 -692 466 -696Q461 -700 456 -701Q454 -704 449 -701Q446 -699 443 -700Q439 -700 432 -694Q425 -688 420 -689Q415 -681 404 -682Q403 -681 401 -681L398 -682Q396 -682 395 -681Q389 -671 380 -663Q381 -669 373 -684Q373 -686 373 -688L374 -695Q374 -697 374 -699Q376 -712 391 -720Q390 -726 395 -729Q399 -732 401 -735Q413 -742 414 -751ZM432 -523Q439 -524 449 -521Q463 -518 469 -519Q490 -512 512 -510Q521 -506 525 -500Q525 -499 521 -498Q515 -482 498 -487Q479 -484 464 -493Q458 -493 450 -496Q443 -500 438 -497Q433 -494 427 -493Q425 -493 424 -493Q426 -496 433 -500Q437 -501 439 -503Q440 -506 438 -508Q435 -512 428 -516Q422 -520 432 -523ZM672 -482Q682 -482 692 -482Q712 -483 728 -476Q735 -472 744 -472Q750 -463 760 -460Q772 -456 784 -444Q798 -428 795 -408Q797 -402 791 -396Q787 -392 787 -389Q774 -383 764 -372Q759 -367 754 -361Q750 -366 745 -362Q740 -358 739 -354Q732 -351 725 -348Q721 -330 696 -332Q693 -333 689 -331Q682 -328 680 -331Q679 -331 679 -332Q683 -335 688 -339Q692 -339 692 -341Q693 -343 692 -345Q689 -350 685 -346Q683 -339 683 -348Q691 -353 703 -365Q715 -377 720 -381Q738 -403 745 -416Q739 -425 727 -430Q714 -434 700 -439Q693 -440 686 -441Q684 -442 664 -442Q639 -439 614 -436Q602 -434 589 -432Q567 -429 544 -427Q518 -421 517 -420Q514 -420 511 -420L508 -418Q505 -418 502 -418Q494 -414 479 -414Q467 -407 434 -401Q428 -398 422 -399Q412 -396 398 -400Q387 -405 375 -406Q373 -408 369 -410Q362 -413 362 -415Q368 -426 380 -427Q391 -428 401 -431Q422 -438 442 -443Q446 -442 452 -445Q457 -447 459 -446Q468 -451 486 -452Q499 -453 504 -455Q509 -455 516 -459Q526 -465 531 -463Q542 -465 552 -467Q576 -470 599 -474Q615 -476 630 -478Q650 -481 672 -482ZM295 -470H303Q305 -467 308 -468Q312 -469 314 -469Q328 -465 338 -469Q343 -471 346 -469Q346 -468 343 -466Q337 -465 323 -453Q321 -448 312 -443Q310 -431 304 -429Q300 -431 298 -428Q296 -424 295 -421Q281 -419 265 -399Q262 -391 259 -384Q255 -381 251 -371Q249 -365 245 -361Q246 -352 244 -342Q243 -338 240 -335Q235 -331 232 -335Q230 -332 229 -333Q228 -338 224 -342Q218 -340 216 -345Q211 -350 198 -376Q201 -390 211 -405Q217 -409 223 -416Q220 -422 226 -432Q231 -440 243 -444Q260 -463 295 -470ZM518 -367Q521 -363 524 -364Q528 -364 533 -361Q538 -358 536 -355Q533 -354 532 -350Q531 -345 528 -344Q524 -340 514 -339Q505 -338 501 -334Q510 -331 517 -323Q519 -319 523 -314Q527 -310 523 -303Q526 -300 524 -294Q522 -290 523 -286Q524 -279 529 -277Q535 -275 539 -275Q544 -272 549 -278Q554 -284 558 -283Q571 -288 597 -290Q605 -290 613 -291Q628 -292 642 -287Q647 -287 655 -283Q661 -280 665 -280Q679 -275 686 -269Q701 -264 709 -249Q716 -241 718 -227Q718 -214 716 -203Q710 -200 713 -191Q715 -183 713 -179Q713 -173 708 -170Q703 -168 699 -165Q696 -158 693 -151Q683 -143 679 -132Q675 -130 672 -122Q669 -116 665 -113Q651 -102 637 -92Q633 -86 625 -84Q624 -81 620 -81Q615 -81 615 -79Q616 -73 612 -71Q608 -69 604 -66Q603 -62 601 -63Q599 -65 595 -70Q594 -70 592 -70Q590 -68 585 -72Q581 -75 579 -71Q574 -70 575 -63Q576 -57 573 -56Q570 -51 566 -51Q561 -51 558 -49Q552 -52 545 -48Q527 -47 509 -46Q485 -46 480 -47Q462 -45 443 -48Q441 -38 435 -29Q431 -27 431 -19Q431 -11 428 -9Q419 -9 417 3Q417 7 412 10Q407 13 410 17Q477 3 543 -12Q572 -16 600 -14Q616 -15 632 -17Q635 -17 637 -17H646Q649 -17 651 -17Q666 -20 679 -12Q685 -13 689 -9Q693 -5 698 -3Q704 6 709 14Q712 21 707 26Q703 31 701 37Q679 58 652 73Q648 71 643 75Q638 79 635 76Q624 77 612 78Q608 78 608 77Q611 75 615 71Q616 67 625 59Q632 52 634 47Q640 33 651 17Q653 12 647 10Q641 8 637 9Q611 9 599 10Q592 11 584 11Q582 10 578 11Q574 12 572 10Q562 11 551 12Q509 16 498 22Q474 22 452 32Q440 32 430 35Q416 39 401 43Q396 42 392 47Q388 52 385 52Q373 48 363 34Q356 30 350 19Q348 15 345 16Q341 17 338 16Q342 -2 354 -10Q361 -6 366 -14Q377 -22 390 -28Q395 -33 400 -39Q401 -42 408 -43Q408 -46 413 -47Q417 -48 418 -50Q416 -53 410 -56Q401 -60 399 -65Q397 -62 392 -64Q387 -65 385 -64Q366 -67 352 -78Q345 -97 340 -101Q333 -110 331 -123Q328 -136 328 -150Q334 -153 332 -165Q330 -167 330 -172Q330 -177 334 -176Q340 -190 337 -195Q338 -196 338 -200Q338 -205 341 -205Q348 -212 351 -223Q352 -229 347 -230Q342 -231 339 -232Q342 -236 368 -273Q370 -277 376 -280Q383 -283 386 -287Q392 -291 398 -297Q403 -303 412 -300Q410 -286 417 -275Q415 -271 418 -263Q421 -254 419 -250Q421 -247 427 -250Q431 -251 433 -251Q451 -255 465 -260Q476 -258 481 -263Q487 -264 490 -273Q494 -303 482 -328Q482 -335 477 -334Q469 -333 462 -330L438 -318Q435 -317 434 -318Q436 -322 443 -328Q440 -332 432 -334Q424 -336 421 -339Q416 -341 415 -346Q415 -349 419 -348Q437 -350 473 -360Q481 -365 497 -365Q512 -365 518 -367ZM600 -252Q581 -249 563 -243Q530 -235 528 -234Q520 -223 522 -206Q522 -191 524 -177Q533 -175 541 -177Q550 -178 555 -171Q552 -165 549 -159Q546 -154 538 -153Q532 -152 529 -150Q528 -146 529 -136Q531 -124 525 -118Q527 -104 529 -90Q529 -84 533 -85Q537 -86 541 -85Q550 -85 558 -86Q562 -83 564 -85Q566 -86 566 -88Q566 -91 561 -91Q556 -93 551 -91Q549 -91 549 -94Q547 -97 550 -99Q556 -101 562 -103Q569 -104 573 -110Q579 -111 584 -113Q589 -112 595 -113Q601 -115 599 -119L615 -137Q658 -182 662 -219Q666 -240 644 -247Q632 -253 613 -253Q607 -252 600 -252ZM477 -222L471 -221Q463 -217 446 -216Q427 -215 420 -211Q408 -211 395 -211Q387 -209 385 -196Q384 -186 381 -183Q376 -174 373 -164Q373 -151 372 -138Q367 -130 378 -114Q382 -115 382 -124Q383 -128 384 -128Q386 -126 385 -119Q383 -106 397 -104Q399 -98 409 -91Q415 -87 418 -83Q412 -82 409 -78Q407 -76 407 -75Q411 -74 417 -74Q433 -75 448 -76Q451 -78 457 -78Q466 -79 469 -82Q461 -94 471 -109Q475 -116 475 -124Q478 -136 475 -149Q463 -148 453 -147Q444 -147 434 -152Q428 -154 429 -161Q430 -163 434 -160Q454 -169 460 -169Q469 -172 480 -173Q484 -179 484 -201Q485 -210 484 -219Q483 -224 477 -222Z"/>
</svg>