<svg xmlns="http://www.w3.org/2000/svg" viewBox="0 -800 1024 1024">
	<path fill="#000000" d="M620 -768Q623 -767 626 -766Q640 -763 654 -761Q675 -757 675 -743Q682 -738 682 -730Q682 -721 683 -714Q687 -701 683 -676Q679 -653 682 -642Q679 -639 678 -632Q677 -624 675 -621Q676 -617 674 -609Q671 -600 674 -596Q674 -588 674 -580Q673 -575 678 -574Q683 -573 686 -576Q700 -581 713 -580Q731 -585 751 -586L814 -589Q818 -585 825 -582Q835 -578 837 -572Q836 -565 844 -557Q851 -541 853 -523Q848 -521 850 -514Q852 -507 849 -505Q844 -500 845 -495Q846 -490 844 -485Q848 -466 834 -452Q836 -447 833 -439Q831 -432 832 -428Q828 -421 828 -412Q822 -400 816 -388Q809 -379 807 -368Q807 -362 800 -357Q795 -353 794 -351Q787 -337 780 -324Q776 -323 774 -317Q772 -310 769 -309Q760 -308 751 -292Q748 -289 746 -289Q743 -289 735 -297Q730 -302 728 -303Q723 -304 722 -311Q721 -317 719 -319Q717 -325 709 -327Q690 -325 671 -323Q668 -324 663 -321Q659 -319 655 -321Q648 -317 650 -310Q652 -304 651 -299Q646 -291 648 -283Q649 -274 648 -266Q651 -257 660 -253Q668 -249 675 -246Q709 -239 733 -225Q745 -226 753 -218Q760 -210 766 -202Q764 -197 771 -190Q772 -182 768 -175Q764 -169 761 -162Q761 -158 751 -150Q746 -139 741 -129Q736 -129 733 -124Q732 -119 729 -118Q725 -118 722 -120Q718 -117 715 -115Q711 -113 711 -107Q714 -105 725 -102Q739 -98 745 -93Q755 -94 768 -89Q773 -88 817 -72Q834 -65 850 -59Q864 -54 876 -44Q887 -42 896 -35Q896 -31 903 -26Q908 -22 909 -18Q912 -15 916 -14Q920 -13 920 -7Q930 0 921 10Q921 15 917 14Q913 14 913 17Q910 17 909 23Q908 27 906 29Q889 25 857 10Q834 -1 822 -5Q817 -9 810 -11Q799 -15 796 -18Q788 -20 760 -31Q758 -35 753 -35Q749 -35 747 -37Q743 -38 738 -40L721 -48Q717 -49 712 -51Q707 -55 697 -58Q686 -61 682 -64Q673 -66 663 -69Q659 -69 656 -63Q643 -57 631 -44Q627 -46 618 -40Q609 -34 604 -36Q603 -33 599 -34Q595 -35 595 -31Q583 -22 579 -26Q572 -27 564 -32Q555 -27 551 -36Q551 -39 550 -40Q547 -39 542 -36Q557 -50 585 -57Q601 -72 616 -88Q615 -93 610 -94Q606 -96 601 -97Q585 -101 569 -105Q555 -107 540 -110Q538 -111 516 -114Q509 -110 504 -113Q495 -109 485 -114Q458 -111 442 -129Q437 -134 440 -136Q449 -137 457 -138Q472 -139 487 -143Q501 -146 516 -143Q534 -147 562 -141Q573 -138 584 -136Q616 -130 647 -124Q650 -127 663 -142Q673 -155 684 -169Q694 -183 693 -199Q674 -207 655 -215Q640 -218 615 -241Q616 -245 610 -250Q604 -255 604 -259Q593 -279 591 -307Q592 -311 589 -312Q585 -312 583 -312Q575 -307 568 -311Q564 -314 558 -314Q549 -315 546 -319Q543 -317 537 -320Q530 -323 528 -320Q521 -315 512 -315Q502 -321 491 -328Q487 -325 481 -328Q476 -331 470 -332Q461 -344 452 -356Q451 -356 441 -372Q448 -395 452 -419Q456 -438 456 -455Q463 -476 460 -495Q449 -516 464 -533Q466 -535 467 -539Q468 -542 473 -542Q489 -557 500 -574Q516 -596 525 -604Q527 -600 531 -603Q536 -607 539 -602Q540 -598 546 -598Q552 -598 553 -597Q564 -587 575 -578Q581 -574 583 -566Q584 -558 575 -558Q570 -554 558 -551Q545 -548 540 -543Q521 -528 500 -518Q495 -515 491 -509Q486 -504 481 -511Q473 -508 471 -499Q496 -478 500 -457Q503 -448 502 -440Q501 -432 508 -430Q515 -428 521 -432Q523 -435 538 -435Q556 -434 573 -436Q585 -438 591 -425Q587 -409 572 -409Q554 -406 537 -409Q528 -413 518 -415Q508 -416 504 -426Q502 -422 502 -409Q497 -405 499 -400Q501 -395 502 -389Q508 -374 510 -357Q513 -348 519 -340Q520 -337 522 -336Q525 -335 527 -337L539 -340Q560 -340 574 -345Q587 -345 597 -350Q601 -370 597 -384Q597 -385 600 -415Q602 -432 602 -447Q602 -503 611 -557Q613 -567 612 -578Q618 -617 618 -662Q620 -668 620 -681V-694Q620 -701 622 -713Q620 -716 620 -722Q620 -731 616 -734Q610 -738 603 -743Q602 -745 595 -749Q589 -752 588 -757Q585 -762 590 -764Q594 -766 600 -765Q606 -764 620 -768ZM237 -582H241Q246 -576 258 -579Q266 -581 270 -579Q280 -585 290 -577Q298 -570 301 -558Q300 -548 302 -539Q301 -510 292 -482Q292 -474 296 -474Q302 -475 306 -482Q311 -487 315 -487Q320 -487 324 -488Q358 -495 368 -480Q374 -432 370 -406Q359 -373 347 -341Q340 -326 336 -311Q331 -295 318 -285Q318 -278 307 -268Q299 -261 298 -257L341 -240Q346 -236 356 -232Q371 -226 375 -221Q386 -217 389 -206Q392 -196 394 -186Q397 -178 393 -176Q389 -174 383 -169Q380 -162 375 -162Q364 -165 352 -173Q336 -185 317 -192Q297 -200 278 -208Q273 -212 267 -212Q252 -208 239 -196Q233 -190 217 -187Q197 -184 192 -175Q179 -179 168 -175Q214 -203 232 -223Q227 -230 207 -240Q193 -252 187 -267Q179 -286 193 -297Q208 -315 207 -341Q178 -331 146 -325Q139 -321 130 -321Q110 -325 89 -329Q69 -341 56 -353Q70 -353 100 -363Q158 -373 216 -389Q225 -395 227 -417Q229 -433 232 -440Q236 -469 243 -500Q250 -531 237 -560Q228 -566 228 -572Q228 -577 237 -582ZM779 -554Q773 -552 768 -554Q744 -548 720 -542Q710 -539 707 -542Q699 -542 683 -549Q678 -553 673 -547Q668 -541 669 -535Q667 -523 665 -519Q665 -504 664 -490Q661 -487 662 -478Q663 -469 658 -466Q654 -460 659 -456Q664 -452 668 -456Q679 -458 689 -458Q693 -461 705 -459Q715 -458 720 -461Q730 -462 740 -463Q751 -464 756 -454Q760 -444 754 -437Q748 -431 737 -429Q714 -429 692 -434Q689 -433 671 -439Q666 -444 661 -440Q656 -436 658 -431Q660 -426 656 -420Q653 -415 654 -411Q655 -406 650 -403Q654 -398 652 -383Q653 -373 651 -364Q649 -358 654 -357Q663 -355 670 -358Q674 -358 675 -361Q675 -364 672 -367Q689 -362 696 -364Q713 -366 729 -369Q739 -369 745 -381Q752 -390 755 -403Q773 -438 782 -474Q783 -487 786 -502Q792 -529 790 -541Q788 -544 786 -550Q784 -555 779 -554ZM289 -470Q285 -439 274 -413Q272 -408 274 -404Q275 -402 279 -402Q288 -404 297 -406Q308 -406 322 -411Q325 -425 326 -441Q327 -457 314 -463Q302 -466 289 -470ZM289 -356L262 -349Q255 -335 247 -309Q240 -285 236 -277Q242 -269 264 -269Q286 -303 304 -351Q308 -357 303 -359Q295 -360 289 -356Z"/>
</svg>