<svg xmlns="http://www.w3.org/2000/svg" viewBox="0 -800 1024 1024">
	<path fill="#000000" d="M714 -720Q722 -719 729 -718Q741 -714 755 -716Q779 -718 785 -699Q789 -693 793 -687Q809 -680 804 -662Q808 -658 807 -649Q805 -640 809 -636Q808 -632 810 -624Q813 -612 808 -607Q808 -595 810 -588Q805 -579 809 -566Q806 -541 809 -527Q810 -518 807 -508Q810 -493 813 -479Q812 -460 810 -445Q812 -422 814 -400Q808 -391 809 -380Q810 -369 808 -359Q814 -347 814 -333Q812 -314 810 -295Q820 -285 814 -269Q815 -257 815 -245Q813 -237 817 -220Q821 -204 818 -194Q812 -185 814 -172Q811 -152 812 -133Q812 -119 815 -106Q815 -93 814 -80Q817 -50 813 -20Q811 13 812 45Q811 61 798 83Q798 94 788 100Q789 105 781 106Q773 107 769 105Q762 100 754 95Q751 97 748 92Q746 88 743 88Q743 86 738 83Q731 79 733 75Q732 72 730 67Q729 62 724 60Q712 52 698 48Q689 47 690 38Q691 31 697 24Q696 19 701 19Q705 18 707 14Q717 13 726 13Q735 14 743 4Q746 -16 748 -36Q746 -41 748 -58Q745 -69 749 -75Q747 -100 748 -126Q753 -161 750 -190Q747 -195 751 -203Q753 -209 753 -213Q748 -217 750 -226Q752 -234 750 -238Q755 -246 753 -257Q752 -267 752 -276Q749 -285 749 -306Q753 -311 750 -322Q746 -335 752 -341Q752 -354 752 -368Q749 -375 750 -388Q751 -399 750 -404Q750 -458 750 -512Q747 -516 747 -532Q747 -578 743 -621Q741 -636 741 -651Q740 -666 733 -679Q726 -677 714 -678Q691 -687 684 -694Q683 -698 685 -698Q690 -697 694 -702Q703 -717 714 -720ZM310 -655Q320 -650 329 -646Q339 -642 349 -647Q364 -646 374 -636Q374 -616 377 -596L379 -571Q381 -556 377 -542Q378 -535 376 -527Q374 -519 381 -516Q386 -529 391 -542Q393 -545 390 -552Q387 -557 391 -559Q396 -558 396 -561Q397 -565 399 -567Q406 -565 415 -576Q416 -580 418 -581Q424 -579 430 -570Q435 -561 442 -563Q450 -565 458 -562Q467 -558 475 -555Q472 -550 478 -544Q483 -539 483 -534Q488 -520 478 -510Q464 -509 447 -492Q442 -493 438 -488Q435 -484 435 -479Q423 -467 410 -455Q408 -452 401 -446Q391 -439 390 -431Q388 -423 394 -420Q399 -417 404 -413Q406 -401 416 -396Q415 -386 405 -382Q394 -379 386 -374Q380 -357 375 -349Q373 -344 373 -331Q372 -315 366 -307Q367 -300 368 -293Q378 -288 384 -297Q390 -306 387 -315Q403 -319 404 -305Q403 -300 405 -300Q409 -300 416 -302Q438 -305 459 -309Q473 -313 493 -305Q502 -294 512 -284Q522 -284 520 -276Q518 -269 511 -265Q472 -255 432 -246Q429 -242 420 -241Q412 -240 409 -238Q384 -231 358 -224Q349 -216 347 -204Q343 -202 344 -195Q346 -187 342 -185Q340 -175 337 -165Q333 -161 327 -149Q318 -122 309 -95Q308 -89 301 -85Q294 -81 294 -77Q295 -70 291 -66Q287 -62 283 -58Q278 -57 274 -48Q270 -40 264 -38Q263 -31 256 -31Q251 -31 244 -36Q240 -42 228 -44Q228 -50 220 -80Q219 -89 232 -97Q244 -104 244 -112Q243 -118 246 -121Q249 -124 254 -127Q266 -152 274 -179Q275 -183 277 -190Q279 -197 274 -199Q251 -193 227 -193Q203 -192 180 -190Q172 -192 163 -193Q137 -197 117 -217Q112 -223 108 -230Q124 -231 139 -227Q146 -224 152 -226Q158 -229 164 -229Q180 -228 196 -232Q234 -238 268 -252Q276 -257 286 -259Q295 -261 298 -269Q308 -312 314 -352Q314 -364 305 -362Q296 -361 288 -361Q266 -360 244 -360Q224 -360 217 -362Q200 -367 199 -381Q215 -381 226 -386Q251 -400 268 -402Q273 -409 288 -411Q297 -412 301 -415Q311 -430 319 -438Q328 -447 328 -460Q327 -473 327 -485Q327 -506 326 -510Q328 -541 330 -572Q329 -585 329 -598Q329 -612 321 -621Q311 -624 301 -631Q297 -636 292 -643Q288 -650 297 -653Q302 -649 310 -655ZM198 -535Q202 -536 208 -530Q212 -526 216 -525Q230 -507 243 -490Q248 -481 248 -455Q255 -447 255 -438Q255 -435 257 -429Q261 -420 257 -415Q258 -407 240 -411Q232 -408 225 -415Q214 -416 208 -425Q201 -434 195 -438Q180 -461 163 -484Q155 -495 175 -505Q175 -509 181 -512Q189 -516 187 -522Q182 -528 187 -531Q194 -534 198 -535ZM572 -472Q581 -472 581 -470Q582 -464 592 -449Q602 -438 597 -423Q599 -386 600 -349Q604 -344 602 -323Q605 -321 610 -305Q605 -293 606 -282Q609 -269 595 -263Q591 -259 586 -264Q582 -268 580 -266L562 -281Q554 -284 551 -290Q548 -297 545 -304Q530 -315 538 -333Q539 -360 548 -386Q548 -395 550 -405Q556 -421 557 -430Q555 -438 564 -448Q570 -454 571 -460Q568 -471 572 -472Z"/>
</svg>