<svg xmlns="http://www.w3.org/2000/svg" viewBox="0 -800 1024 1024">
	<path fill="#000000" d="M487 -715H504Q508 -712 517 -712Q527 -712 530 -708Q538 -710 543 -705Q549 -699 547 -690Q544 -687 545 -679Q546 -671 544 -668Q529 -659 510 -657Q502 -653 484 -649Q463 -644 453 -638Q445 -639 439 -640Q434 -642 427 -638Q418 -636 402 -642Q386 -647 378 -647Q360 -647 343 -650Q340 -652 332 -653Q321 -654 318 -658Q314 -662 320 -663Q333 -665 333 -670Q336 -673 347 -675Q355 -676 358 -678Q371 -683 384 -689Q387 -692 398 -695Q407 -697 412 -702Q418 -710 430 -705Q435 -704 443 -706Q453 -708 458 -707Q467 -714 478 -711Q484 -711 487 -715ZM315 -619H326Q333 -621 334 -617Q336 -614 338 -609Q335 -586 331 -563Q333 -557 329 -548Q326 -540 326 -536Q322 -531 322 -519Q321 -506 319 -501Q319 -490 321 -482Q329 -488 336 -495Q343 -502 352 -504Q356 -507 357 -507Q357 -504 355 -496L336 -475Q329 -468 328 -459Q326 -451 323 -443Q322 -427 318 -415Q311 -402 318 -386Q316 -378 309 -378Q302 -378 297 -378Q290 -376 285 -379Q280 -382 274 -384L260 -397Q243 -426 219 -455Q207 -468 225 -482Q232 -495 237 -508Q243 -521 255 -531Q255 -535 262 -543Q268 -550 269 -556Q277 -574 285 -592Q301 -608 315 -619ZM641 -613L655 -611Q662 -605 676 -607Q689 -608 693 -605Q696 -609 703 -606Q708 -604 710 -604Q715 -599 723 -593Q730 -587 726 -579Q727 -560 725 -540Q718 -541 714 -537Q711 -532 708 -528Q703 -529 702 -525Q701 -521 698 -518Q699 -513 693 -508Q689 -504 687 -501Q680 -497 673 -485Q667 -475 664 -472Q659 -473 655 -466Q653 -462 651 -462Q651 -454 635 -438Q627 -423 613 -412Q612 -407 606 -403Q599 -399 599 -396Q579 -369 556 -345Q550 -348 543 -339Q537 -331 531 -332Q529 -327 521 -323Q514 -320 513 -318Q507 -311 511 -295Q515 -279 508 -274Q499 -262 493 -248Q494 -242 487 -232Q480 -223 482 -218Q491 -216 516 -218Q528 -219 539 -220Q546 -221 554 -222Q561 -223 565 -229Q570 -259 575 -289Q580 -300 567 -315Q556 -328 557 -336Q559 -337 566 -333Q572 -330 576 -330Q585 -333 590 -328Q595 -324 600 -318Q607 -314 617 -312Q626 -310 628 -302Q640 -298 647 -275Q647 -257 645 -252Q646 -249 644 -243Q641 -234 646 -230Q670 -233 694 -236Q699 -233 711 -235Q723 -237 730 -232Q742 -239 750 -236Q756 -232 773 -232Q789 -232 795 -224Q795 -215 800 -210Q805 -205 810 -200Q809 -195 812 -192Q815 -188 816 -186Q816 -185 811 -183Q803 -185 798 -177Q799 -170 791 -168Q778 -170 753 -170Q740 -173 725 -172Q683 -170 641 -168Q633 -167 624 -167Q615 -168 612 -161Q598 -149 595 -141Q591 -124 580 -110Q569 -96 560 -81Q560 -76 552 -73Q542 -69 544 -62Q548 -55 563 -53Q574 -51 579 -46Q586 -40 594 -35Q605 -31 615 -28Q617 -20 629 -18Q638 -16 641 -13Q647 -17 654 -10Q658 -6 661 -6Q676 0 686 8Q708 18 728 40Q737 47 732 53Q726 58 721 65Q711 73 702 72Q688 75 675 70Q662 64 649 58Q598 23 541 -2Q527 -8 512 -14Q505 -18 497 -8Q490 1 484 1Q464 21 455 26Q450 25 445 32Q442 37 438 36Q429 32 423 44Q421 49 418 47Q413 44 412 44Q409 41 404 45Q401 48 399 46Q392 50 385 53Q373 58 366 58Q359 58 355 53Q369 40 383 27Q407 15 427 -6Q433 -12 436 -11Q437 -17 443 -23Q452 -32 453 -33Q433 -46 415 -54Q405 -59 394 -59Q384 -59 378 -54Q368 -53 366 -70Q367 -81 360 -85Q352 -90 345 -95Q350 -107 348 -121Q353 -127 347 -130Q342 -133 336 -132Q331 -130 321 -129Q311 -128 307 -125Q271 -125 266 -126Q257 -120 245 -120Q235 -120 223 -125Q210 -129 197 -133Q183 -140 170 -140Q162 -140 154 -137Q146 -138 139 -141Q137 -143 141 -147Q144 -147 150 -152Q156 -158 162 -157Q180 -165 218 -170Q252 -174 266 -179Q307 -186 348 -191Q370 -195 391 -200Q402 -202 412 -210L434 -251Q436 -258 440 -265Q443 -272 440 -279Q468 -332 471 -337Q470 -343 480 -350Q489 -357 489 -362Q490 -365 495 -369Q500 -372 501 -375Q504 -376 513 -385Q513 -392 518 -393Q525 -395 530 -397Q533 -397 532 -403Q533 -402 534 -401Q538 -402 539 -407Q539 -411 542 -412Q550 -415 553 -417Q558 -420 557 -426Q564 -427 565 -433Q567 -439 568 -444Q576 -448 574 -453Q581 -466 591 -475Q595 -488 604 -494Q606 -500 609 -504Q619 -524 627 -536Q627 -541 625 -542Q617 -540 609 -536Q600 -528 563 -511Q554 -503 544 -496Q534 -489 526 -478Q520 -472 506 -463Q492 -455 487 -448Q484 -439 479 -430Q476 -427 479 -421Q481 -415 478 -414Q474 -410 470 -410Q462 -414 453 -418Q449 -423 440 -432Q429 -442 426 -449Q421 -450 418 -457Q415 -464 410 -465Q408 -469 405 -472Q401 -477 405 -479Q415 -505 415 -517Q415 -525 410 -525Q402 -526 395 -528Q393 -528 392 -529Q394 -533 400 -531Q419 -529 436 -530Q447 -518 474 -516Q479 -510 486 -514Q492 -518 498 -520Q509 -530 529 -543Q559 -563 570 -575Q579 -579 587 -585Q596 -591 606 -593Q622 -608 641 -613ZM536 -161Q511 -161 500 -155Q496 -156 479 -152Q477 -151 470 -152Q461 -154 459 -148Q442 -150 433 -136Q423 -122 415 -109Q409 -103 415 -97Q421 -91 427 -92Q434 -94 442 -91Q450 -88 454 -89Q473 -81 491 -74Q501 -75 506 -84Q511 -93 518 -100Q517 -106 524 -114Q530 -120 531 -124Q541 -137 544 -151Q550 -156 545 -160Q540 -164 536 -161Z"/>
</svg>