<svg xmlns="http://www.w3.org/2000/svg" viewBox="0 -800 1024 1024">
	<path fill="#000000" d="M439 -677L442 -676Q446 -677 455 -673Q463 -669 468 -673Q476 -669 485 -673Q487 -662 500 -653Q510 -639 495 -629Q491 -628 489 -624Q488 -619 486 -616Q485 -613 480 -616Q424 -556 416 -538Q410 -530 404 -523Q397 -516 397 -505Q404 -503 418 -507Q431 -511 438 -510Q448 -514 456 -511Q464 -508 474 -507Q492 -498 502 -481Q509 -468 501 -455Q494 -449 481 -431Q469 -414 461 -407Q454 -402 446 -387Q438 -372 431 -366Q422 -361 419 -353Q416 -345 413 -337Q402 -321 390 -305Q388 -300 385 -294Q382 -288 387 -283Q400 -279 415 -281Q423 -286 439 -284Q451 -283 455 -284Q460 -299 452 -310Q443 -321 439 -332Q440 -339 446 -338Q451 -337 453 -332Q460 -328 472 -326Q487 -324 492 -319Q510 -310 521 -284Q519 -280 523 -275Q527 -270 526 -267Q520 -268 519 -262Q517 -253 516 -252Q523 -245 516 -234Q515 -229 509 -229Q498 -229 496 -241Q496 -246 486 -248Q478 -249 477 -253Q472 -251 465 -244Q457 -235 452 -234Q432 -229 412 -224Q400 -220 393 -220Q386 -220 374 -224Q366 -219 355 -231Q350 -228 347 -229Q342 -230 341 -237Q336 -243 329 -269Q323 -277 324 -288Q325 -300 333 -304Q338 -324 350 -341Q363 -359 375 -377Q376 -379 413 -430Q418 -435 424 -442Q430 -449 428 -457Q404 -455 382 -450Q371 -447 359 -445Q350 -445 347 -454Q341 -457 336 -460Q331 -464 330 -472Q321 -476 319 -488Q317 -499 322 -507Q324 -516 343 -542Q352 -554 360 -566Q393 -609 426 -653Q429 -656 431 -663Q434 -674 439 -677ZM632 -582Q641 -582 646 -575Q666 -575 682 -578Q696 -582 710 -581Q741 -581 756 -550Q765 -527 762 -505Q761 -499 760 -493Q760 -472 750 -462Q746 -447 738 -433Q739 -426 735 -419Q731 -413 729 -407Q728 -402 731 -401Q738 -402 744 -404Q763 -408 781 -412Q804 -412 827 -413Q872 -415 900 -393Q905 -380 914 -371Q921 -363 921 -354Q922 -344 925 -335Q929 -322 926 -309Q924 -293 922 -289Q922 -275 915 -261Q910 -255 908 -241Q906 -230 903 -225Q897 -209 890 -194Q876 -172 867 -151Q864 -137 857 -126Q853 -122 844 -109Q835 -96 828 -90Q807 -56 779 -29Q777 -20 757 -13Q744 -6 731 1Q729 18 720 16Q710 18 701 9Q696 -8 694 -11Q696 -16 691 -20Q687 -24 688 -26Q686 -34 669 -34Q667 -35 665 -40Q663 -45 659 -46Q652 -45 650 -53Q641 -56 640 -63Q674 -54 707 -50Q713 -50 719 -49Q725 -47 729 -52Q734 -54 738 -61Q744 -70 749 -71Q751 -74 787 -134Q795 -146 803 -158Q810 -167 817 -182Q821 -195 828 -207Q843 -231 849 -257Q857 -269 861 -285Q864 -300 869 -315Q869 -344 860 -351Q840 -371 814 -366Q783 -362 765 -359Q750 -355 735 -352Q729 -349 722 -348Q714 -348 709 -341Q698 -325 694 -307Q683 -285 678 -280Q674 -268 669 -256Q664 -244 657 -234Q653 -223 646 -213Q633 -206 631 -194Q629 -184 623 -175Q612 -153 601 -132Q597 -130 595 -125Q594 -121 592 -119Q589 -108 575 -90Q570 -88 566 -79Q560 -71 554 -62Q548 -53 539 -47Q535 -46 529 -38Q520 -26 513 -29Q503 -31 501 -41Q503 -45 508 -49Q516 -55 517 -59Q530 -73 539 -89Q550 -103 556 -120Q564 -142 584 -186Q591 -202 600 -219Q613 -260 634 -299Q637 -314 639 -318Q641 -324 640 -331L605 -335Q597 -339 588 -341Q578 -342 573 -351Q569 -355 579 -352Q612 -362 644 -373Q658 -375 663 -385Q675 -433 677 -442Q683 -468 688 -495Q693 -525 691 -533Q692 -545 682 -546Q671 -548 661 -549Q654 -550 645 -558Q630 -563 632 -582ZM139 -488Q146 -484 152 -478Q155 -474 157 -469Q160 -463 165 -466Q172 -466 184 -473Q200 -482 207 -480Q232 -486 256 -482Q269 -474 280 -467Q279 -463 284 -460Q290 -457 288 -451Q290 -442 286 -428Q280 -418 280 -412Q280 -402 264 -386Q260 -390 258 -388Q255 -386 254 -381Q251 -374 256 -373Q263 -371 271 -370Q277 -370 283 -363Q288 -357 288 -350Q292 -339 285 -333Q279 -328 267 -327Q252 -323 233 -323Q210 -325 193 -321Q169 -323 162 -326Q159 -325 152 -327Q145 -329 141 -325Q140 -315 127 -306Q121 -300 116 -304Q95 -329 78 -355Q71 -366 76 -379Q77 -382 88 -401Q91 -412 104 -430Q113 -443 117 -450Q119 -453 125 -466Q132 -481 139 -488ZM158 -443Q149 -421 153 -405Q149 -399 151 -387Q152 -376 149 -372Q150 -370 148 -359Q147 -352 153 -351Q172 -357 193 -367Q197 -387 213 -427Q215 -435 209 -435Q201 -436 193 -437Q189 -437 178 -441Q166 -446 158 -443Z"/>
</svg>