<svg xmlns="http://www.w3.org/2000/svg" viewBox="0 -800 1024 1024">
	<path fill="#000000" d="M518 -741Q528 -738 538 -736Q544 -741 551 -737Q563 -739 573 -734Q583 -729 579 -718Q582 -707 580 -686Q578 -665 580 -656Q578 -648 583 -647Q588 -645 593 -649Q600 -656 608 -655Q613 -653 623 -654Q633 -655 639 -652Q641 -650 646 -649Q652 -648 652 -646Q655 -644 661 -644Q669 -644 672 -640Q677 -639 681 -626Q680 -621 674 -615Q669 -610 668 -607Q667 -602 660 -604Q654 -606 653 -602Q656 -590 648 -586Q643 -587 641 -582Q639 -575 635 -575Q630 -580 623 -570Q618 -572 614 -569Q611 -566 607 -565Q602 -555 592 -552Q585 -554 574 -551Q571 -550 570 -551Q569 -558 578 -561Q601 -587 598 -606Q579 -609 574 -597Q568 -587 569 -577Q569 -562 561 -550Q562 -548 559 -544Q555 -539 559 -537Q575 -535 591 -534Q602 -532 612 -530Q615 -526 624 -523Q631 -520 635 -515Q637 -511 643 -506Q649 -501 651 -498Q655 -484 659 -470Q655 -453 639 -418Q629 -414 624 -405Q619 -396 614 -388Q615 -385 614 -383Q605 -381 607 -375Q612 -374 630 -372Q649 -370 660 -365Q671 -361 682 -358Q686 -356 700 -344Q705 -343 707 -337Q709 -331 703 -330Q696 -324 689 -319Q686 -316 684 -312Q681 -309 676 -309Q665 -313 653 -314Q636 -314 622 -320Q589 -328 540 -332Q538 -330 536 -329L527 -326Q525 -324 522 -323Q512 -319 502 -315Q497 -310 489 -310Q487 -310 488 -314Q487 -320 495 -325Q503 -330 503 -335Q473 -346 431 -356Q426 -358 419 -359Q411 -360 412 -366Q433 -367 453 -369Q474 -373 492 -373H520Q530 -373 540 -378Q560 -404 577 -433Q581 -436 585 -450Q589 -464 593 -479Q597 -498 572 -500Q554 -500 539 -507Q526 -500 511 -522Q498 -532 502 -550Q500 -554 501 -561Q502 -572 499 -574Q466 -561 449 -566Q443 -565 437 -565Q432 -564 433 -559Q434 -553 431 -551Q435 -547 435 -541Q435 -534 437 -529Q438 -523 434 -515Q431 -508 431 -504Q434 -499 430 -490Q427 -483 427 -479Q428 -474 425 -467Q421 -458 422 -453Q425 -448 422 -437Q420 -431 421 -426Q413 -404 407 -381Q401 -359 388 -340Q386 -343 384 -342Q383 -339 381 -336Q380 -331 373 -332Q365 -334 365 -338Q358 -345 352 -364Q353 -370 352 -377Q351 -383 358 -384Q372 -411 387 -478Q388 -508 397 -532Q397 -544 399 -556Q401 -568 396 -578Q390 -585 397 -589Q422 -580 423 -579Q438 -585 453 -591Q462 -599 482 -608Q503 -617 511 -625Q516 -698 513 -721Q506 -733 518 -741ZM321 -688Q339 -688 342 -687Q347 -683 352 -679Q356 -676 352 -670Q347 -667 347 -660Q348 -654 346 -649Q345 -644 340 -643Q335 -641 330 -639Q325 -639 319 -639Q300 -639 282 -647Q276 -646 269 -652Q264 -656 261 -657Q254 -660 253 -667Q253 -669 257 -669Q269 -671 285 -678Q287 -678 292 -681Q298 -685 302 -683Q305 -685 310 -685Q318 -685 321 -688ZM268 -559Q273 -560 275 -557Q278 -550 277 -540Q274 -525 270 -511Q262 -505 260 -495Q259 -486 255 -477Q252 -471 251 -457Q250 -445 248 -439Q242 -429 242 -416Q243 -403 244 -389Q248 -387 256 -392Q261 -395 265 -395Q279 -411 290 -416Q294 -422 303 -427Q311 -432 314 -436Q320 -439 328 -447Q337 -457 342 -459Q356 -475 366 -491Q365 -497 373 -498Q381 -498 375 -492Q373 -486 363 -466Q359 -460 356 -453Q353 -447 347 -444Q345 -436 330 -417Q329 -412 315 -394Q301 -368 280 -358Q279 -355 273 -352Q269 -350 268 -347Q263 -343 254 -343Q239 -343 229 -355Q216 -362 208 -375Q204 -387 205 -397Q208 -407 206 -416Q207 -442 214 -467Q218 -471 222 -487Q225 -502 229 -515Q231 -518 233 -524Q235 -533 240 -535Q243 -543 251 -550Q259 -557 268 -559ZM473 -300Q483 -296 486 -297Q489 -295 496 -297Q505 -300 509 -296Q516 -298 523 -294Q538 -287 530 -267Q534 -259 523 -251Q517 -246 517 -239Q517 -231 516 -225Q510 -216 512 -208Q531 -209 549 -211Q570 -213 590 -215Q598 -214 599 -221Q601 -228 603 -233Q604 -244 604 -256Q603 -268 593 -272Q591 -275 585 -274Q580 -273 578 -276Q589 -292 601 -292Q608 -289 625 -293Q628 -289 638 -290Q646 -290 649 -288Q657 -282 665 -274Q664 -269 668 -261Q672 -252 671 -247Q667 -246 669 -239Q671 -234 668 -231Q663 -224 663 -217Q699 -215 715 -216Q745 -214 775 -212Q792 -209 810 -207Q827 -205 842 -195Q840 -190 846 -185Q852 -180 853 -176Q852 -173 855 -170Q859 -166 857 -163Q851 -159 841 -153Q832 -148 833 -136Q814 -140 795 -145Q792 -144 784 -147Q775 -150 771 -148Q763 -149 755 -151Q740 -151 725 -151Q706 -152 686 -154Q670 -153 653 -153Q652 -153 650 -153H643Q642 -153 640 -153Q634 -151 631 -142Q628 -133 624 -131Q622 -116 613 -113Q612 -110 606 -103Q600 -96 599 -91L573 -64Q573 -60 568 -54Q564 -50 564 -47L594 -34Q597 -34 605 -31Q615 -27 621 -29Q636 -23 648 -21Q654 -15 666 -13Q679 -7 691 -1Q712 9 733 18Q740 20 746 25Q751 31 756 35Q759 38 765 41Q773 45 775 49Q784 55 781 64Q779 69 771 65Q764 61 762 66Q765 74 754 79Q744 80 735 77Q727 78 721 73Q714 69 709 65Q701 62 693 58Q674 49 655 40Q654 36 648 36Q644 36 643 35Q625 27 607 19Q594 13 579 10Q550 2 521 -7Q507 0 499 9Q492 16 474 21Q463 24 456 29Q451 30 439 35Q426 41 418 40Q412 43 410 39Q408 35 411 31Q449 23 481 -20Q476 -25 462 -29Q452 -32 447 -35Q437 -37 430 -37Q427 -39 403 -47Q396 -50 388 -53Q379 -57 376 -66Q358 -89 375 -98Q374 -102 376 -102Q381 -102 381 -105Q387 -114 393 -121Q399 -129 402 -138Q396 -141 381 -139Q366 -137 360 -141Q345 -136 330 -134Q295 -134 249 -122Q244 -118 234 -122Q225 -125 221 -123Q205 -126 194 -133Q175 -134 156 -136Q152 -141 156 -143Q163 -144 168 -145Q185 -147 201 -150Q249 -164 260 -166Q275 -171 288 -173Q293 -172 302 -175Q314 -179 319 -176Q325 -182 338 -182Q359 -186 385 -188Q397 -190 409 -190Q424 -194 440 -197Q462 -243 466 -253Q467 -263 469 -273Q472 -284 466 -292Q461 -295 463 -297Q468 -299 473 -300ZM563 -154L553 -152Q549 -154 540 -152Q530 -150 526 -153Q506 -148 493 -148Q488 -147 482 -146Q478 -148 472 -142Q467 -137 464 -137Q461 -135 460 -130Q458 -122 453 -121Q450 -115 438 -103Q428 -93 424 -85Q421 -79 427 -77Q434 -75 439 -74Q476 -69 487 -65Q502 -59 517 -60Q543 -103 569 -146Q573 -149 570 -153Q567 -157 563 -154Z"/>
</svg>