<svg xmlns="http://www.w3.org/2000/svg" viewBox="0 -800 1024 1024">
	<path fill="#000000" d="M627 -629Q640 -625 652 -621Q655 -620 664 -618Q677 -616 683 -610Q693 -601 700 -587Q700 -568 705 -549Q702 -533 705 -514Q702 -501 703 -486Q700 -477 702 -470Q703 -455 703 -441Q702 -428 697 -416Q701 -409 699 -394Q697 -382 698 -378Q698 -375 700 -374Q704 -374 709 -374Q734 -382 758 -390Q761 -392 768 -394Q778 -397 781 -401Q779 -406 783 -410Q787 -414 792 -411Q820 -406 831 -411Q843 -409 853 -409Q857 -407 864 -407Q874 -407 878 -404Q884 -402 882 -394Q880 -387 882 -384Q886 -367 868 -363Q862 -361 848 -362Q836 -363 830 -361Q798 -361 770 -354Q753 -350 745 -354Q732 -355 722 -359Q712 -364 702 -367Q695 -363 695 -350Q695 -338 692 -335Q690 -318 692 -302Q690 -298 692 -283Q690 -266 693 -248Q691 -238 690 -232Q693 -205 691 -175Q688 -165 693 -154Q693 -147 691 -140Q689 -133 697 -129Q714 -132 731 -132Q740 -135 782 -135Q794 -136 805 -138Q815 -135 827 -138Q837 -140 846 -137Q855 -134 865 -133Q874 -128 885 -123Q887 -118 893 -115Q898 -111 894 -105Q891 -101 894 -95Q897 -89 893 -86Q888 -87 886 -82Q885 -77 888 -73Q879 -63 869 -69Q860 -66 850 -66Q834 -67 818 -68Q804 -65 796 -71Q777 -71 775 -70Q759 -72 715 -70Q703 -71 692 -69Q685 -66 672 -68Q662 -70 658 -69Q640 -68 624 -63Q584 -63 544 -64Q532 -63 520 -63Q502 -65 484 -68Q465 -76 445 -85Q435 -89 428 -95Q434 -100 442 -101Q454 -104 466 -108Q473 -109 480 -109Q488 -109 491 -117Q489 -125 476 -131Q467 -135 465 -138Q459 -142 452 -155Q447 -165 442 -169Q427 -198 439 -222Q439 -227 450 -251Q457 -274 461 -297Q464 -316 472 -333Q475 -346 480 -358Q486 -365 492 -373Q492 -375 493 -377Q496 -379 498 -376Q498 -372 499 -367Q499 -362 505 -363Q509 -370 516 -366Q522 -362 524 -355Q524 -349 529 -344Q534 -340 537 -334Q535 -317 534 -301Q540 -291 536 -282Q538 -276 534 -266Q531 -259 531 -254Q533 -242 529 -227Q525 -223 527 -218Q530 -213 531 -208Q527 -202 526 -188Q525 -175 522 -169Q520 -147 518 -126Q515 -119 522 -116Q529 -113 535 -115Q564 -117 593 -119Q602 -121 611 -122Q621 -122 627 -130Q627 -135 620 -142Q615 -147 615 -150Q615 -169 616 -171Q619 -216 619 -217Q619 -225 619 -233L621 -270Q620 -290 625 -305Q626 -340 629 -372Q634 -439 633 -459Q634 -475 635 -491Q639 -537 630 -578Q629 -592 619 -597Q608 -603 599 -608Q593 -610 594 -616Q594 -619 598 -618Q606 -614 613 -620Q620 -626 627 -629ZM205 -585H208Q219 -578 233 -575Q239 -578 246 -578Q254 -578 275 -571Q284 -567 286 -558Q289 -549 291 -540Q290 -527 288 -514Q288 -498 288 -483Q289 -478 285 -469Q281 -462 283 -457Q283 -435 288 -415Q288 -410 292 -409Q297 -409 304 -410Q309 -412 311 -408Q312 -405 315 -401Q311 -390 309 -378Q310 -368 293 -354Q287 -352 285 -342Q286 -337 284 -319Q281 -305 278 -292Q271 -279 270 -264Q268 -250 265 -236Q261 -233 263 -229Q265 -225 270 -226Q311 -258 352 -293Q390 -326 418 -367Q423 -375 428 -383Q430 -386 431 -385Q433 -382 433 -378Q420 -355 407 -332Q397 -312 397 -306Q392 -302 390 -285Q383 -278 375 -270Q367 -263 366 -253Q362 -248 357 -244L338 -227Q334 -222 329 -218Q315 -201 292 -182Q265 -157 238 -133Q227 -119 215 -105Q208 -93 188 -91Q176 -100 168 -110Q167 -124 152 -130Q140 -142 154 -153Q160 -172 169 -188Q179 -216 189 -245Q193 -264 194 -281Q200 -305 200 -316Q200 -338 191 -332Q180 -332 171 -335L143 -341Q118 -346 95 -353Q90 -360 106 -360Q137 -376 169 -387Q178 -392 205 -401Q211 -403 214 -408Q216 -414 218 -419Q219 -453 219 -488Q219 -494 219 -500Q219 -516 218 -532Q222 -551 198 -560Q193 -560 194 -564Q194 -567 197 -569Q201 -577 205 -585Z"/>
</svg>