<svg xmlns="http://www.w3.org/2000/svg" viewBox="0 -800 1024 1024">
	<path fill="#000000" d="M493 -627H496Q505 -622 528 -618Q535 -619 541 -616Q547 -612 546 -606Q549 -599 542 -594Q531 -586 530 -585Q512 -573 490 -568Q473 -564 456 -560Q454 -562 452 -561Q451 -560 452 -558Q452 -556 456 -556Q464 -549 472 -543Q489 -538 485 -516Q488 -496 483 -485Q489 -476 482 -454Q484 -451 482 -444Q480 -438 482 -435Q485 -432 488 -432Q498 -435 508 -438Q514 -437 519 -441Q581 -461 582 -461Q611 -470 640 -479Q654 -481 668 -484Q697 -489 728 -492Q751 -492 813 -481Q824 -478 831 -473Q841 -467 851 -462Q858 -459 861 -453Q863 -447 868 -441Q877 -430 879 -416Q884 -412 883 -401Q882 -393 884 -389Q885 -381 888 -374Q890 -367 885 -361Q879 -333 882 -310Q878 -295 879 -291Q884 -281 876 -277Q876 -262 875 -247Q880 -238 871 -232Q877 -224 866 -215Q867 -206 860 -200Q861 -197 858 -192Q855 -188 857 -185Q851 -154 840 -141Q835 -117 832 -111Q826 -101 823 -98Q823 -89 817 -83Q812 -77 808 -70Q806 -60 790 -50Q778 -43 775 -36Q770 -34 767 -21Q760 -21 759 -13Q758 -6 751 -5Q745 -11 742 -20Q740 -32 723 -38Q712 -48 699 -72Q698 -79 689 -83Q678 -88 676 -93Q680 -101 701 -98Q711 -94 721 -91Q735 -90 749 -89Q750 -91 764 -111Q769 -132 782 -162Q788 -188 796 -209Q800 -228 810 -254Q812 -274 816 -294Q823 -357 816 -399Q822 -430 792 -442Q781 -450 769 -450Q756 -449 745 -452Q706 -448 691 -443Q686 -444 680 -441Q672 -437 668 -439Q651 -435 634 -431Q622 -425 606 -422Q582 -417 562 -410Q549 -405 535 -401Q520 -398 504 -396Q499 -394 493 -393Q487 -393 483 -388Q477 -364 481 -325Q479 -315 479 -309V-299Q479 -288 477 -283Q480 -274 479 -261Q479 -248 490 -243Q491 -238 487 -233Q483 -229 481 -224Q478 -206 477 -185Q474 -182 475 -175Q476 -165 470 -162Q471 -151 466 -141Q472 -120 450 -114Q444 -111 440 -118Q437 -122 436 -130Q428 -138 423 -149Q419 -163 415 -178Q422 -190 422 -216Q426 -223 421 -227Q415 -232 409 -236Q405 -235 402 -239Q400 -242 398 -240Q391 -245 385 -242Q379 -238 374 -236Q359 -221 331 -209Q328 -207 320 -206Q312 -205 309 -202Q302 -198 294 -198Q290 -192 271 -186Q266 -186 266 -188Q266 -189 273 -198Q297 -223 316 -248Q320 -253 327 -260Q334 -267 326 -272Q324 -275 316 -278Q308 -281 306 -286Q324 -289 343 -289Q378 -289 408 -277Q419 -274 430 -274L437 -354Q443 -371 433 -372Q406 -369 381 -358Q369 -355 359 -351Q354 -348 341 -346Q325 -343 320 -338Q299 -343 276 -345Q272 -342 263 -343Q250 -345 248 -337Q236 -314 228 -291Q228 -281 219 -250Q214 -243 211 -229Q207 -213 204 -208Q206 -205 203 -200Q201 -196 203 -193Q200 -173 197 -154Q197 -140 198 -134Q197 -123 189 -120Q180 -116 173 -112Q162 -116 157 -131Q151 -137 144 -144Q137 -148 136 -157Q136 -160 137 -173Q143 -194 148 -215Q147 -219 150 -228Q154 -238 150 -243L158 -274Q168 -292 174 -313Q182 -325 191 -349Q205 -385 218 -399L241 -431Q254 -444 264 -458Q275 -466 287 -467Q286 -462 291 -455Q296 -448 296 -443Q293 -436 293 -427Q293 -419 286 -415Q275 -400 258 -361Q255 -356 258 -355Q264 -354 270 -357Q296 -370 324 -375Q345 -387 380 -396Q389 -403 409 -408Q428 -413 434 -416Q439 -416 439 -422Q439 -427 441 -431Q438 -437 439 -447Q440 -457 439 -460Q441 -477 442 -494Q442 -512 443 -529Q443 -546 431 -558Q416 -556 401 -555Q375 -552 351 -543Q343 -543 321 -539Q318 -538 247 -527Q242 -529 233 -526Q227 -524 223 -524Q212 -523 200 -527Q193 -529 160 -534Q157 -537 160 -539Q167 -542 173 -544Q188 -548 203 -553Q207 -556 217 -557Q227 -558 232 -562Q245 -565 257 -568Q261 -569 265 -571L282 -575Q288 -577 290 -578Q300 -579 309 -582Q321 -585 332 -589Q337 -587 344 -591Q350 -595 355 -592Q363 -595 371 -598Q375 -596 383 -600Q390 -604 394 -602Q405 -605 418 -606Q430 -610 442 -614Q447 -614 454 -616Q463 -619 469 -618Q472 -623 483 -624Q490 -625 493 -627ZM541 -312Q558 -312 571 -310Q589 -306 606 -303Q657 -288 668 -283Q687 -277 705 -271Q711 -266 719 -261Q727 -257 728 -248Q724 -247 720 -240Q716 -234 714 -232Q708 -234 704 -232Q699 -230 695 -229Q676 -237 656 -246Q648 -248 641 -253Q633 -258 625 -254Q615 -250 608 -241Q604 -241 598 -235Q593 -229 588 -231Q583 -228 578 -226Q566 -222 564 -219Q557 -219 548 -212Q538 -204 531 -204Q524 -205 516 -202Q506 -193 496 -200Q515 -216 517 -217Q536 -235 564 -271Q572 -277 566 -282Q560 -286 554 -290Q542 -296 530 -303Q526 -306 527 -308Q534 -311 541 -312Z"/>
</svg>