<svg xmlns="http://www.w3.org/2000/svg" viewBox="0 -800 1024 1024">
	<path fill="#000000" d="M426 -734H429Q432 -732 438 -734Q443 -736 445 -733Q447 -729 463 -724Q476 -722 484 -716Q494 -713 494 -706Q494 -699 495 -692Q495 -685 492 -675Q492 -667 486 -661Q480 -655 475 -648Q467 -640 460 -631Q454 -622 443 -618Q420 -585 411 -577Q404 -577 405 -570Q406 -564 413 -565Q421 -579 439 -571Q442 -568 463 -563Q479 -558 488 -544Q493 -545 494 -540Q495 -536 493 -533Q487 -528 488 -520Q488 -513 488 -506Q475 -487 463 -465Q460 -459 455 -454Q449 -449 452 -443Q454 -445 460 -444Q466 -443 469 -446Q494 -448 505 -446Q510 -443 512 -446Q515 -450 516 -450Q533 -447 548 -452Q563 -456 583 -456Q593 -462 605 -461Q617 -460 630 -461Q642 -462 665 -456Q685 -451 697 -451Q714 -440 706 -422Q705 -417 710 -409Q714 -403 714 -398Q698 -396 680 -400Q669 -403 655 -404Q639 -409 589 -418Q582 -423 562 -429Q552 -432 544 -436Q538 -438 531 -441Q522 -445 516 -441Q534 -425 551 -409Q557 -385 557 -359Q555 -357 557 -351Q560 -343 555 -339Q555 -334 549 -326Q543 -319 543 -314Q541 -309 534 -303Q526 -296 525 -293Q535 -291 539 -291Q554 -290 566 -275Q577 -261 576 -244Q576 -232 574 -223Q571 -214 577 -202L622 -209Q633 -213 642 -205Q652 -197 646 -188Q653 -185 652 -179Q651 -173 652 -170Q654 -160 635 -160Q632 -159 577 -154Q568 -140 565 -106Q562 -75 556 -63Q555 -59 549 -48Q541 -34 544 -26Q613 -33 686 -35Q709 -34 735 -34Q761 -35 778 -16Q775 -8 778 -2Q779 0 786 8Q788 14 784 16Q781 17 775 15Q769 21 756 20Q744 19 740 22Q726 19 699 18Q664 17 649 12Q632 19 612 16Q600 16 579 19Q554 23 542 21Q506 27 453 29Q401 31 380 30Q339 28 313 15Q310 13 306 11Q282 -2 294 -1Q373 -12 457 -16Q476 -11 483 -25Q490 -38 494 -53Q502 -72 507 -107Q507 -115 510 -126Q512 -137 503 -140Q475 -136 447 -133Q431 -137 412 -141Q394 -146 381 -162Q410 -164 513 -188Q520 -225 509 -263Q507 -266 501 -272Q492 -268 482 -264Q479 -258 473 -255Q467 -253 462 -250Q458 -242 445 -242Q437 -237 429 -242Q422 -246 414 -250Q410 -253 414 -257Q421 -262 426 -266Q461 -300 483 -337Q495 -356 497 -376Q501 -391 489 -401Q478 -411 462 -409Q441 -407 422 -401Q407 -395 392 -389Q380 -385 367 -382Q359 -375 326 -354Q322 -349 316 -345Q309 -340 306 -348Q305 -366 304 -385Q301 -388 303 -395Q304 -399 303 -401Q300 -403 302 -406Q304 -410 304 -411Q319 -426 333 -441Q351 -462 367 -481Q384 -501 393 -525Q384 -526 374 -522Q355 -516 336 -510Q333 -510 328 -506Q324 -502 320 -503Q316 -501 308 -492Q298 -481 289 -478Q286 -477 281 -472Q274 -464 268 -465Q260 -460 249 -461Q243 -467 242 -477Q244 -493 237 -505Q240 -508 239 -517Q239 -524 242 -528Q254 -543 286 -569Q333 -608 375 -648Q388 -663 404 -678Q419 -693 428 -710Q433 -717 428 -722Q424 -726 415 -729Q413 -732 415 -733Q422 -733 426 -734Z"/>
</svg>