<svg xmlns="http://www.w3.org/2000/svg" viewBox="0 -800 1024 1024">
	<path fill="#000000" d="M406 -799Q412 -800 421 -793Q422 -792 434 -787Q445 -791 451 -776Q460 -770 458 -745Q451 -735 457 -720Q457 -715 456 -710L453 -689Q453 -682 452 -678Q447 -672 447 -664Q447 -656 445 -648Q442 -636 439 -625Q440 -621 436 -614Q431 -607 436 -602Q451 -601 466 -607Q482 -614 501 -617Q505 -617 512 -621Q519 -625 525 -624Q541 -620 562 -627Q584 -629 605 -624Q607 -608 594 -599Q584 -592 572 -585Q564 -581 555 -586Q540 -580 518 -578Q500 -578 485 -571Q442 -562 399 -554Q396 -553 393 -552L380 -550Q377 -549 374 -548Q367 -548 364 -547H370Q378 -546 385 -545Q408 -542 430 -539Q444 -536 457 -534Q467 -531 477 -528Q485 -526 490 -519Q495 -512 487 -507Q485 -497 474 -494Q467 -493 459 -493Q448 -495 437 -497Q409 -507 382 -521Q378 -528 369 -532Q360 -533 359 -538Q355 -541 350 -544Q347 -543 341 -543Q335 -543 329 -543Q318 -545 309 -543Q295 -534 290 -538Q281 -546 273 -539Q266 -536 261 -539Q256 -543 252 -546Q243 -546 240 -553Q238 -560 234 -565Q221 -573 221 -595Q225 -621 247 -653Q251 -656 256 -665Q261 -674 266 -677Q277 -675 288 -655L287 -645Q285 -635 284 -634Q277 -628 277 -618Q277 -608 276 -599Q277 -588 268 -575Q273 -568 282 -575Q292 -574 305 -577Q318 -579 330 -582Q345 -581 359 -587Q376 -589 391 -595Q390 -610 392 -636Q393 -657 395 -675Q400 -689 400 -704Q402 -719 403 -734Q403 -752 403 -770Q404 -778 398 -783Q395 -785 386 -789Q382 -791 384 -794Q385 -796 388 -796Q394 -795 406 -799ZM566 -748Q575 -744 584 -741Q598 -743 634 -732Q650 -728 662 -705Q673 -696 675 -681Q679 -675 675 -663Q676 -654 664 -642Q653 -640 648 -629Q637 -627 635 -628Q633 -635 624 -637Q613 -642 618 -660Q631 -689 604 -716Q588 -725 574 -735Q573 -737 570 -739Q562 -744 566 -748ZM590 -522Q602 -522 605 -520L642 -522Q659 -522 669 -510Q662 -498 662 -492Q648 -486 634 -481Q600 -479 568 -472Q552 -469 535 -467Q532 -466 524 -465Q514 -464 510 -460Q495 -458 479 -456Q475 -454 464 -453Q449 -451 444 -446Q442 -435 448 -425Q446 -418 451 -415Q456 -412 463 -413Q494 -419 498 -419Q506 -419 514 -420Q522 -422 530 -417Q537 -411 549 -412Q563 -408 566 -395Q568 -393 581 -372Q582 -367 576 -365Q568 -363 567 -361Q567 -348 560 -347Q540 -339 536 -323Q538 -313 532 -304Q526 -295 515 -295Q491 -288 466 -282Q453 -281 442 -277Q438 -274 433 -276Q428 -278 426 -277Q421 -276 419 -269Q416 -260 412 -259Q399 -267 390 -271Q381 -274 377 -282Q373 -290 370 -297Q366 -303 364 -314Q368 -334 375 -352Q381 -368 386 -375Q390 -384 394 -393Q402 -406 409 -420Q410 -425 414 -430Q417 -435 414 -440Q401 -443 387 -438Q382 -437 377 -437L356 -433Q351 -432 346 -432Q332 -429 321 -430Q303 -435 286 -437Q278 -439 271 -440Q263 -441 258 -447Q259 -451 263 -452Q267 -453 271 -453Q273 -455 282 -455Q290 -455 294 -458Q307 -455 319 -459Q351 -467 369 -468Q411 -478 433 -481Q461 -487 488 -494Q517 -500 546 -507Q568 -513 590 -522ZM439 -388L436 -384Q436 -368 423 -329Q424 -325 421 -319Q418 -312 419 -309Q426 -305 434 -307Q441 -310 449 -311Q455 -313 480 -318Q491 -316 496 -338Q502 -351 507 -364Q509 -371 511 -378Q513 -386 506 -389L485 -382Q481 -383 473 -381Q464 -379 460 -382Q457 -382 450 -386Q443 -390 439 -388ZM694 -284H698Q709 -283 720 -282Q736 -284 748 -277Q762 -276 777 -268Q795 -263 811 -243Q821 -236 821 -224Q825 -220 829 -217Q833 -213 831 -207Q828 -198 836 -189Q840 -186 838 -181Q837 -177 837 -172Q838 -148 831 -127Q832 -123 829 -115Q826 -106 828 -101Q826 -91 824 -82Q824 -78 820 -73Q815 -67 816 -62Q815 -50 811 -38Q812 -29 805 -20Q798 -6 796 11Q785 26 772 53Q766 59 760 72Q753 87 747 92Q740 94 732 107Q727 115 723 118Q719 122 714 126Q708 130 704 127Q698 119 696 110Q687 99 682 87Q678 74 670 65Q665 61 660 56Q655 52 661 47Q667 49 672 50Q692 48 697 45Q710 48 715 35Q726 13 738 -8Q755 -65 759 -75Q759 -86 769 -131Q773 -150 774 -162Q775 -187 763 -212Q760 -224 746 -232Q741 -235 722 -241Q699 -241 697 -240Q682 -241 667 -238Q652 -236 637 -234Q622 -234 612 -226Q595 -226 583 -222Q562 -218 541 -218Q531 -215 520 -212Q509 -212 480 -203Q473 -205 464 -199Q456 -194 450 -195Q428 -189 408 -181Q390 -174 371 -167Q359 -163 353 -168Q331 -167 313 -178Q306 -187 300 -172Q294 -155 287 -138Q279 -133 280 -127Q281 -121 275 -113Q271 -108 270 -104Q267 -90 260 -77Q251 -64 255 -40Q253 -27 254 -23Q255 -18 250 -4Q248 -1 252 4Q257 10 255 14Q248 23 245 34Q229 32 224 28Q208 30 206 17Q200 7 194 -4Q184 -13 186 -25Q182 -30 187 -37Q191 -43 190 -46Q193 -56 196 -66Q199 -78 202 -91Q219 -129 225 -138Q237 -161 251 -182Q286 -239 324 -257Q332 -269 342 -261Q356 -256 343 -232Q344 -227 337 -214Q331 -208 324 -205Q320 -203 320 -200Q321 -198 325 -195Q335 -200 347 -203Q368 -213 390 -217Q457 -237 463 -238Q488 -244 513 -251Q546 -258 557 -261Q569 -263 581 -265Q601 -270 620 -275Q642 -278 664 -281Q678 -284 694 -284ZM449 -178Q455 -179 456 -172Q458 -161 459 -160Q457 -154 460 -150Q463 -145 470 -147Q494 -159 502 -161Q522 -169 544 -168Q562 -170 579 -163Q588 -168 593 -151Q605 -144 600 -130Q603 -124 594 -112Q589 -96 586 -92Q579 -85 568 -85Q566 -83 558 -67Q553 -64 554 -55Q555 -46 550 -43Q537 -41 523 -40Q498 -44 472 -43Q468 -44 467 -45Q466 -46 468 -48Q490 -60 503 -61Q518 -70 528 -85Q537 -99 546 -114Q552 -128 550 -139Q543 -144 528 -137Q520 -138 507 -131Q497 -126 492 -125Q485 -121 465 -123Q462 -126 457 -125Q452 -124 453 -119Q456 -109 452 -98Q452 -95 448 -89Q443 -81 445 -76Q447 -61 443 -44Q445 -32 433 -26Q422 -18 419 -25Q412 -36 404 -48Q400 -56 395 -64Q390 -72 393 -81Q391 -96 403 -112L416 -136Q420 -140 425 -151Q429 -161 434 -165Q434 -173 449 -178Z"/>
</svg>