<svg xmlns="http://www.w3.org/2000/svg" viewBox="0 -800 1024 1024">
	<path fill="#000000" d="M538 -630Q589 -626 607 -617Q615 -614 619 -608Q623 -601 629 -595Q630 -588 633 -578Q638 -573 642 -557Q644 -546 647 -541Q644 -535 647 -520Q646 -514 642 -507Q636 -498 636 -493Q637 -487 633 -479Q630 -472 630 -468Q622 -461 617 -447Q612 -434 609 -430Q602 -419 597 -406Q582 -388 579 -386Q566 -369 553 -352Q543 -336 536 -322Q530 -318 526 -311Q522 -305 513 -302Q505 -290 496 -279Q502 -274 541 -259Q549 -254 568 -246Q588 -238 597 -231Q633 -215 669 -197Q684 -193 698 -184Q743 -165 761 -152Q772 -144 786 -139Q800 -132 810 -123Q816 -123 821 -114Q825 -108 828 -106Q834 -105 840 -98Q844 -93 848 -92Q854 -90 862 -80Q865 -73 871 -69Q877 -65 882 -60Q880 -52 885 -46Q889 -41 891 -36Q893 -28 896 -21Q899 -13 894 -7Q893 -1 885 7Q878 15 877 21Q874 29 867 29Q859 28 853 30Q850 29 846 19Q843 11 836 12Q803 -4 771 -31Q761 -39 748 -48L699 -82Q676 -94 652 -106Q642 -111 631 -116Q626 -121 616 -125Q607 -128 604 -131Q600 -131 600 -136Q600 -141 595 -142Q585 -138 573 -145Q531 -170 513 -178Q508 -183 499 -186Q489 -190 485 -193Q461 -205 436 -214Q418 -197 399 -181Q393 -180 384 -171Q377 -163 374 -162Q366 -152 360 -149Q353 -146 343 -138Q330 -128 323 -126Q308 -118 293 -114Q286 -103 275 -98Q264 -93 254 -87Q252 -92 248 -90Q244 -88 241 -87Q224 -74 211 -80Q206 -85 201 -90Q243 -108 260 -125Q306 -157 326 -180Q350 -205 367 -230Q371 -236 378 -242Q380 -245 375 -247Q357 -257 338 -268Q331 -273 310 -282Q286 -292 276 -302Q259 -306 244 -317Q239 -318 230 -331Q232 -335 226 -339Q220 -343 220 -346Q224 -348 232 -344Q242 -339 247 -342Q260 -342 274 -340Q294 -342 325 -337Q353 -331 380 -320Q405 -311 429 -302Q440 -312 449 -324Q460 -338 470 -353Q476 -363 482 -374Q487 -377 484 -380Q482 -383 477 -381Q458 -383 440 -392Q434 -398 416 -408Q401 -416 394 -424Q369 -436 342 -455Q345 -460 337 -468Q332 -473 331 -476Q334 -484 344 -484Q352 -484 356 -479Q372 -475 394 -477Q412 -478 440 -473Q472 -471 490 -456Q496 -451 505 -445Q513 -439 510 -430Q504 -428 505 -422Q506 -416 512 -414Q525 -438 538 -462Q548 -478 564 -514Q570 -527 571 -542Q566 -568 553 -566Q528 -562 504 -551Q494 -550 475 -537Q460 -527 450 -525Q440 -516 429 -511Q427 -505 417 -500Q407 -495 405 -492Q401 -497 392 -495Q383 -493 379 -496Q373 -497 367 -502Q359 -508 354 -508Q340 -513 325 -519Q309 -528 295 -531Q295 -532 304 -535Q312 -538 309 -543Q320 -544 328 -552Q342 -555 356 -558Q398 -577 440 -597L463 -607Q480 -617 500 -621Q520 -625 538 -630Z"/>
</svg>