<svg xmlns="http://www.w3.org/2000/svg" viewBox="0 -800 1024 1024">
	<path fill="#000000" d="M881 -674Q895 -674 900 -670Q925 -665 925 -647Q936 -636 919 -617Q908 -614 897 -612Q894 -610 887 -613Q880 -616 877 -612Q858 -610 855 -608Q848 -605 833 -604Q819 -603 813 -601Q793 -601 778 -596Q741 -596 706 -591Q688 -589 671 -584Q658 -582 644 -580Q633 -576 621 -573Q610 -573 601 -569Q588 -564 576 -564Q570 -563 560 -559Q552 -560 526 -550Q488 -546 449 -549Q429 -551 412 -555Q401 -556 390 -557Q386 -557 387 -561Q388 -565 393 -564Q404 -574 437 -580Q476 -590 515 -600Q533 -603 551 -607Q595 -619 607 -621Q628 -626 649 -632Q687 -639 724 -647Q759 -655 794 -663Q809 -665 825 -666Q841 -671 859 -670Q862 -672 881 -674ZM720 -562Q742 -556 747 -558Q759 -558 768 -552Q778 -546 788 -542Q802 -536 819 -508Q823 -506 824 -496Q825 -488 829 -484Q834 -481 830 -473Q825 -464 831 -460Q841 -454 841 -442Q840 -431 841 -419Q832 -402 840 -385Q842 -379 840 -371Q842 -357 838 -347Q837 -333 841 -319Q843 -303 842 -288Q842 -281 838 -265Q839 -261 839 -241Q842 -237 840 -229Q838 -221 840 -217Q838 -196 840 -184Q844 -172 842 -151Q838 -139 839 -125Q835 -113 836 -99Q835 -84 826 -72Q822 -59 815 -46Q806 -30 793 -15Q789 -11 785 -5Q781 0 774 1Q772 -3 766 -6Q761 -9 759 -11Q757 -14 748 -17Q744 -17 743 -20Q742 -23 741 -26Q742 -37 735 -41Q727 -46 723 -53Q721 -59 725 -61Q730 -63 734 -64Q742 -68 751 -71Q760 -74 763 -84Q773 -108 778 -133Q781 -146 783 -160Q784 -181 788 -201Q789 -220 786 -237Q789 -246 789 -265Q790 -300 786 -331Q785 -371 784 -412Q785 -430 778 -475Q775 -496 767 -512Q762 -521 733 -547Q732 -549 724 -554Q718 -558 720 -562ZM283 -525Q306 -526 332 -507Q345 -494 350 -476Q351 -466 344 -453Q338 -442 337 -438Q322 -423 318 -416Q315 -412 310 -409Q306 -405 310 -399Q316 -390 312 -376Q315 -368 309 -364Q303 -360 295 -361Q292 -360 285 -361Q277 -362 274 -360Q266 -362 250 -357Q224 -366 206 -365Q199 -369 193 -366Q186 -363 189 -355Q188 -349 194 -332Q196 -321 198 -311Q198 -300 182 -313Q170 -320 162 -332Q142 -359 133 -375Q128 -392 128 -409Q128 -418 127 -427Q126 -438 132 -458Q136 -470 139 -482Q143 -494 152 -503Q155 -510 159 -518Q163 -525 172 -522Q187 -525 194 -512Q194 -500 202 -499Q229 -513 261 -520Q265 -523 283 -525ZM564 -507Q566 -506 564 -504Q562 -491 556 -482Q552 -471 553 -457Q550 -455 545 -433Q545 -426 548 -426Q556 -425 564 -428Q588 -440 599 -448Q604 -445 611 -448Q617 -451 619 -450Q628 -443 640 -441Q650 -436 659 -435Q660 -429 675 -410Q670 -392 664 -380Q659 -368 654 -357Q655 -353 649 -351Q645 -350 644 -348Q636 -339 633 -327Q627 -326 627 -320Q627 -315 633 -314Q641 -312 637 -304Q634 -296 631 -290Q632 -286 629 -284Q625 -281 625 -280Q618 -276 611 -273Q599 -270 587 -267Q578 -268 562 -263Q548 -259 540 -259Q532 -257 525 -262Q518 -266 510 -268Q504 -267 505 -260Q506 -250 505 -249Q498 -250 491 -261Q486 -269 483 -270Q468 -290 460 -317Q456 -334 466 -365Q471 -382 476 -399Q496 -418 508 -442Q512 -450 521 -459Q533 -470 535 -476Q550 -491 564 -507ZM274 -477L261 -475Q251 -467 229 -467Q226 -466 219 -469Q212 -472 208 -467Q195 -449 193 -435Q189 -423 188 -409Q187 -404 186 -399Q185 -393 190 -390Q204 -388 218 -393Q228 -396 239 -397Q250 -398 259 -405Q267 -420 274 -435Q279 -450 284 -465Q289 -470 284 -476Q279 -482 274 -477ZM611 -399H608Q597 -396 586 -393Q569 -386 531 -386Q528 -373 524 -361Q523 -348 521 -335Q518 -321 517 -308Q516 -300 523 -298Q530 -296 535 -301Q544 -303 557 -310Q574 -320 584 -320Q590 -324 599 -350Q606 -368 612 -386Q614 -392 614 -398Q613 -400 611 -399Z"/>
</svg>