<svg xmlns="http://www.w3.org/2000/svg" viewBox="0 -800 1024 1024">
	<path fill="#000000" d="M423 -757Q436 -754 448 -752Q472 -754 490 -737Q508 -719 506 -694Q507 -684 508 -675Q508 -668 505 -658Q506 -646 503 -633Q497 -623 497 -612Q490 -603 491 -591Q488 -587 486 -577Q483 -563 477 -559Q471 -547 464 -526Q457 -520 455 -506Q453 -493 449 -488Q446 -484 441 -472Q435 -457 427 -451Q421 -434 419 -431Q415 -428 416 -423Q417 -418 424 -420Q444 -428 463 -437Q503 -452 545 -461Q569 -465 591 -470Q609 -473 646 -469Q666 -461 686 -453Q702 -448 713 -435Q724 -422 732 -410Q741 -403 745 -381Q750 -354 741 -332Q741 -314 740 -297Q732 -283 735 -268Q735 -253 732 -241Q730 -223 727 -205Q723 -193 725 -178Q721 -164 717 -151Q712 -129 712 -105Q708 -96 706 -83Q706 -75 698 -61Q692 -50 691 -43Q684 -33 680 -18Q673 -14 669 -7Q666 0 661 6Q658 12 649 15Q643 17 640 20Q637 28 629 31Q620 33 613 35Q604 43 594 46Q590 46 587 41Q582 37 579 26Q576 14 570 10Q565 8 565 2Q565 -4 561 -6Q547 -10 529 -24Q528 -28 520 -29Q515 -30 515 -31L541 -27Q570 -25 594 -33Q613 -33 627 -67Q638 -103 645 -141Q650 -165 654 -189Q658 -215 662 -242Q663 -248 664 -255Q666 -281 668 -308Q669 -328 670 -349Q667 -388 666 -391Q665 -402 656 -408Q652 -411 637 -417L606 -411Q588 -407 570 -403Q543 -401 521 -391Q490 -380 459 -369Q450 -372 428 -373Q404 -374 394 -378L375 -359Q368 -342 360 -331Q358 -324 356 -317Q375 -316 393 -315Q419 -312 445 -307Q461 -307 477 -295Q486 -288 503 -269Q508 -267 512 -256Q514 -249 517 -247Q521 -234 516 -225Q515 -216 507 -214Q499 -212 489 -210Q452 -220 426 -242Q416 -249 396 -268Q370 -294 355 -301Q348 -306 341 -298Q333 -295 326 -281Q321 -270 315 -266Q311 -264 306 -260Q302 -256 295 -257Q292 -252 291 -244Q278 -238 271 -226Q264 -220 260 -212Q255 -214 248 -209Q240 -204 235 -206Q256 -231 261 -245Q276 -273 285 -304Q308 -361 334 -419Q356 -463 374 -511Q378 -527 391 -564Q405 -604 410 -629Q417 -645 418 -664Q420 -683 422 -703Q423 -712 416 -719Q409 -726 399 -725Q398 -726 385 -732Q375 -737 373 -745Q382 -745 391 -746Q405 -754 423 -757Z"/>
</svg>