<svg xmlns="http://www.w3.org/2000/svg" viewBox="0 -800 1024 1024">
	<path fill="#000000" d="M551 -761Q555 -763 557 -760Q560 -758 561 -760Q572 -759 583 -758Q602 -758 611 -742Q614 -720 613 -696Q616 -689 615 -676Q614 -661 616 -657Q617 -653 615 -646Q612 -638 619 -636Q639 -642 692 -644L725 -639Q730 -639 736 -632Q742 -624 746 -623Q749 -613 757 -602Q762 -601 763 -591Q764 -582 769 -578Q773 -576 775 -569Q777 -562 781 -559Q782 -540 780 -516Q773 -512 767 -502Q763 -496 759 -486Q761 -480 756 -477Q752 -473 748 -469Q749 -462 741 -453Q736 -447 736 -443Q746 -440 767 -445Q778 -446 789 -448Q797 -451 808 -451Q838 -456 870 -454Q880 -453 889 -452Q901 -455 908 -448Q914 -448 913 -442Q913 -438 914 -437Q914 -432 920 -426Q926 -424 922 -415Q918 -407 911 -410Q906 -412 904 -409Q901 -406 896 -403Q887 -400 868 -402Q850 -404 842 -401Q839 -404 832 -401Q827 -399 824 -401Q808 -399 791 -397Q768 -393 745 -390Q742 -389 718 -389Q713 -386 687 -381Q684 -373 665 -359Q664 -355 659 -350Q650 -341 652 -335Q677 -338 700 -342Q710 -342 717 -338Q722 -341 725 -335Q727 -331 727 -325Q732 -322 730 -313Q728 -305 724 -301Q719 -303 712 -299Q703 -295 698 -297Q676 -293 652 -287Q643 -288 636 -284Q627 -281 623 -279Q615 -275 616 -266Q618 -264 619 -255Q620 -242 628 -239Q631 -237 640 -239Q652 -242 659 -237Q666 -232 673 -232Q679 -231 682 -225Q685 -219 679 -214Q679 -208 672 -208Q665 -207 663 -203Q658 -200 630 -197Q626 -185 621 -173Q617 -167 620 -161Q623 -155 630 -160Q641 -162 651 -164Q658 -164 662 -160Q665 -165 671 -165Q677 -164 683 -165Q687 -168 697 -168Q706 -168 710 -170Q716 -169 722 -169Q728 -169 729 -176Q732 -170 741 -174Q748 -177 751 -174Q778 -170 810 -173Q815 -170 831 -170Q853 -170 861 -160Q865 -138 858 -132Q855 -132 848 -126Q839 -119 836 -121Q833 -126 829 -125Q824 -123 824 -119Q815 -112 798 -119Q793 -119 787 -116L767 -118Q754 -116 741 -115Q718 -115 708 -114Q663 -114 619 -109Q613 -102 613 -86Q613 -70 608 -64Q610 -59 605 -50Q600 -41 603 -35Q602 -31 603 -21Q605 -6 601 1Q603 9 597 20Q594 22 596 28Q597 32 594 33Q587 35 588 41Q589 46 587 51Q589 56 585 63Q582 68 584 72Q586 84 577 91Q575 102 568 108Q564 106 561 108Q557 111 556 111Q548 117 543 111Q550 91 547 81Q549 59 550 36Q552 19 549 5Q549 -42 549 -90Q550 -101 542 -101Q533 -101 525 -102Q515 -97 505 -99Q495 -101 485 -101Q480 -97 476 -100Q472 -103 468 -105Q446 -106 429 -114Q423 -115 416 -120Q414 -122 417 -124Q447 -129 452 -129Q524 -140 537 -141Q545 -140 548 -146Q551 -151 550 -160Q549 -176 547 -187Q538 -195 525 -197Q513 -199 501 -201Q495 -205 487 -205Q488 -214 508 -214Q525 -225 547 -231Q551 -245 547 -260Q548 -267 543 -269Q540 -270 529 -270Q492 -276 475 -294Q472 -296 473 -297Q477 -295 484 -297Q520 -302 543 -307Q547 -321 545 -335Q544 -349 543 -362Q535 -367 520 -362Q510 -359 505 -361Q497 -359 488 -358Q483 -358 481 -357L466 -355Q464 -354 459 -354Q446 -350 403 -352Q399 -355 372 -362Q346 -362 330 -371Q326 -373 326 -374Q328 -376 338 -378Q359 -378 374 -385Q413 -388 439 -396Q479 -401 518 -407Q529 -408 541 -413Q539 -443 537 -473Q537 -480 537 -487L535 -496Q535 -502 535 -509Q534 -517 536 -526Q537 -536 533 -544Q531 -548 526 -548L522 -547Q520 -547 518 -547Q514 -550 504 -553Q491 -557 487 -562Q462 -579 453 -584Q448 -589 448 -595Q449 -596 452 -592Q480 -591 505 -598Q520 -602 537 -610Q537 -628 534 -657Q530 -695 531 -713Q530 -721 530 -730Q531 -739 523 -745Q519 -749 522 -751Q528 -752 533 -755Q535 -762 544 -760Q549 -759 551 -761ZM262 -685L268 -684Q271 -678 280 -670Q289 -663 289 -656Q292 -651 289 -641Q287 -635 288 -631Q281 -629 279 -622Q268 -602 257 -596Q247 -581 236 -567Q228 -564 224 -557Q219 -549 227 -545Q251 -541 275 -537Q287 -532 291 -530Q301 -524 301 -514Q303 -495 283 -465Q277 -453 273 -439Q268 -425 255 -417Q254 -413 246 -406Q237 -398 236 -391Q228 -388 229 -382Q230 -375 237 -373Q248 -360 247 -349Q243 -345 244 -335Q245 -328 243 -325Q246 -321 244 -310Q242 -301 243 -297Q240 -280 237 -263Q240 -251 238 -231Q236 -213 237 -205Q236 -201 236 -168Q233 -156 239 -150Q244 -143 248 -135Q246 -119 238 -109Q236 -100 236 -90Q238 -81 229 -80Q220 -79 214 -77L196 -90Q195 -95 189 -96Q184 -97 183 -99Q172 -110 183 -124Q175 -132 175 -141Q176 -147 176 -154L179 -181Q180 -187 180 -194Q184 -206 185 -224Q187 -250 190 -259Q191 -294 192 -329Q192 -335 190 -336Q187 -335 182 -332Q178 -326 172 -321Q165 -315 164 -306Q155 -297 145 -292Q138 -287 130 -290Q125 -298 120 -307Q117 -322 114 -337Q111 -351 121 -362L167 -408Q172 -415 190 -438Q212 -463 227 -492Q229 -498 233 -506Q237 -514 231 -522Q218 -528 192 -519Q184 -514 175 -509Q166 -510 163 -517Q161 -524 159 -530Q159 -541 155 -552Q150 -560 159 -571Q161 -574 167 -578Q174 -583 176 -588Q183 -592 191 -604Q200 -618 207 -622Q209 -627 217 -634Q227 -643 227 -651Q234 -654 241 -663Q247 -671 252 -674Q256 -675 258 -680Q260 -685 262 -685ZM679 -592L673 -591Q654 -583 650 -579Q638 -576 625 -574Q622 -569 622 -555Q622 -538 616 -530Q618 -527 615 -521Q614 -517 615 -516Q623 -505 621 -479Q616 -475 619 -462Q622 -449 618 -445Q620 -429 625 -421Q640 -421 647 -424Q665 -447 670 -462Q687 -479 697 -499Q702 -514 707 -530Q713 -546 710 -564Q711 -575 701 -584Q690 -594 679 -592Z"/>
</svg>