<svg xmlns="http://www.w3.org/2000/svg" viewBox="0 -800 1024 1024">
	<path fill="#000000" d="M528 -758L544 -756Q560 -754 571 -746Q584 -737 585 -723Q590 -715 590 -689Q589 -677 592 -664Q594 -652 585 -643Q587 -637 587 -623Q587 -609 590 -601Q609 -606 625 -616Q654 -620 672 -626Q686 -630 699 -623Q704 -613 709 -604Q707 -598 706 -592Q705 -586 700 -584Q687 -575 671 -569Q654 -568 612 -580Q606 -581 598 -583Q591 -584 586 -579Q588 -574 584 -565Q580 -557 584 -553Q586 -523 584 -492Q585 -489 582 -484Q579 -478 583 -475L629 -485Q648 -487 663 -494Q665 -492 669 -495Q673 -498 677 -497Q684 -496 690 -495Q710 -498 729 -491Q740 -493 742 -477Q738 -474 742 -469Q745 -465 744 -463Q735 -460 735 -446Q718 -443 700 -440Q695 -442 688 -439Q681 -436 678 -438Q669 -435 664 -429Q663 -423 653 -419Q646 -416 645 -414Q629 -394 619 -387Q603 -374 590 -359Q585 -351 575 -343Q564 -336 567 -327Q574 -321 580 -315Q585 -309 585 -300Q576 -283 578 -264Q579 -254 571 -247Q575 -245 596 -248Q615 -250 632 -249L659 -251Q666 -248 674 -251Q678 -252 678 -246Q692 -239 690 -223Q678 -202 657 -210Q647 -208 639 -212Q636 -212 633 -208Q624 -205 617 -205Q612 -204 611 -205Q611 -209 614 -217L573 -232Q568 -228 568 -220Q568 -213 567 -206Q562 -196 562 -184Q550 -154 548 -113Q542 -89 539 -65Q535 -54 537 -34Q539 -18 538 -14Q538 7 532 43Q533 47 531 47Q528 48 526 48Q519 55 507 49Q494 35 486 21Q471 12 481 7Q482 -14 483 -36Q488 -63 493 -91Q497 -114 501 -138Q507 -156 512 -175Q514 -186 520 -197Q523 -236 536 -269Q537 -280 541 -295Q547 -315 547 -323Q552 -324 562 -341Q572 -348 586 -366Q596 -380 602 -385Q616 -404 627 -423Q621 -430 605 -423Q578 -417 576 -417Q566 -413 534 -409Q529 -410 517 -405Q504 -400 496 -402Q481 -398 468 -402Q454 -407 439 -410Q425 -426 415 -433Q397 -444 395 -471Q390 -507 419 -563Q429 -570 431 -596Q447 -591 452 -588Q460 -590 467 -584Q479 -570 482 -558Q478 -550 473 -543Q472 -539 467 -531Q460 -519 460 -513Q456 -502 451 -492Q450 -476 449 -460Q456 -452 467 -452Q479 -453 489 -454Q500 -457 515 -458Q530 -458 541 -465Q540 -476 532 -481Q526 -493 520 -505L523 -547Q526 -559 526 -589Q526 -621 531 -637L533 -693Q531 -739 510 -753Q519 -755 528 -758ZM128 -481Q145 -475 156 -464Q156 -460 156 -455Q156 -450 160 -451Q176 -458 195 -463Q219 -473 238 -477Q263 -481 284 -477Q285 -474 290 -472Q295 -470 296 -467Q300 -463 305 -459Q310 -456 308 -450Q308 -435 301 -425Q296 -422 296 -413Q296 -407 294 -404Q293 -399 288 -391Q280 -379 283 -372Q286 -371 289 -363Q291 -356 295 -355Q298 -345 292 -335Q286 -325 276 -325Q269 -317 255 -317Q234 -311 210 -311Q185 -311 172 -317Q170 -316 165 -318Q159 -321 157 -317Q172 -304 160 -290Q156 -288 158 -284Q160 -279 159 -278Q155 -280 151 -282L133 -291Q129 -293 125 -295Q117 -303 107 -308Q97 -313 94 -323Q85 -337 83 -361Q91 -372 87 -393Q96 -416 108 -438Q109 -452 120 -472Q115 -478 128 -481ZM180 -430Q160 -430 154 -425Q146 -421 143 -413Q143 -412 140 -396Q145 -390 141 -376Q138 -365 140 -359Q138 -351 146 -349Q153 -347 161 -350Q175 -353 190 -355Q205 -356 217 -366Q222 -381 227 -396Q228 -403 230 -412Q232 -420 225 -423Q222 -426 216 -425Q210 -424 207 -426Q202 -424 194 -428Q185 -432 180 -430ZM741 -370L746 -368Q763 -374 781 -363Q791 -356 798 -347Q814 -333 814 -312Q817 -307 818 -295Q820 -278 823 -273Q821 -256 818 -239Q816 -219 819 -188Q823 -180 820 -164Q818 -153 819 -148Q818 -139 817 -130Q813 -119 817 -93Q817 -68 813 -45Q808 -24 805 -1Q800 8 793 47Q790 50 786 60Q782 70 776 75Q776 90 772 94Q772 100 770 100Q764 98 758 90L721 53Q712 47 715 37Q714 31 717 31Q725 31 733 32Q741 25 750 21Q756 -2 761 -26Q768 -54 772 -115Q772 -130 768 -143Q773 -178 771 -217Q771 -222 769 -257Q767 -285 756 -315Q753 -325 743 -326Q740 -326 726 -325Q720 -320 707 -316Q693 -312 687 -306Q674 -306 663 -312Q633 -323 604 -331Q600 -340 608 -343Q616 -346 622 -347Q663 -351 703 -363Q721 -368 741 -370ZM646 -161Q655 -162 671 -156Q676 -151 679 -143Q682 -134 678 -130Q677 -126 671 -121Q665 -116 664 -114Q647 -114 619 -122Q604 -128 588 -133Q571 -138 559 -148Q556 -152 557 -153Q560 -153 565 -154Q570 -152 578 -155Q585 -157 588 -156Q619 -157 646 -161Z"/>
</svg>