<svg xmlns="http://www.w3.org/2000/svg" viewBox="0 -800 1024 1024">
	<path fill="#000000" d="M678 -668H679Q688 -670 694 -667Q696 -666 704 -668Q713 -670 717 -666Q731 -669 738 -658Q733 -652 746 -648Q749 -651 751 -648Q753 -645 750 -642Q750 -638 744 -636Q737 -633 738 -629Q737 -626 729 -625Q725 -625 723 -623Q710 -620 697 -618Q695 -615 690 -617Q686 -618 684 -617Q671 -615 664 -616Q648 -610 629 -610Q619 -611 604 -607Q583 -602 574 -604Q564 -606 559 -605Q542 -613 523 -616Q519 -614 523 -608Q527 -603 526 -601Q527 -593 521 -590Q515 -585 517 -577Q518 -569 517 -562Q518 -556 515 -554Q511 -553 510 -550Q509 -545 505 -536Q500 -525 501 -517Q500 -503 498 -489Q497 -483 498 -476Q499 -470 494 -464Q495 -458 490 -433Q486 -422 487 -412Q483 -408 483 -397Q483 -388 481 -385Q478 -364 469 -343Q471 -335 468 -325Q463 -316 457 -307Q450 -265 435 -240Q432 -224 428 -211Q422 -190 416 -169Q408 -157 402 -135Q394 -122 388 -107Q386 -99 383 -91Q376 -76 368 -61Q362 -55 356 -47Q352 -43 349 -48Q346 -54 342 -54Q314 -76 308 -100Q309 -110 319 -126Q329 -141 331 -148Q346 -175 367 -226Q371 -229 371 -238Q371 -246 374 -249Q385 -280 395 -319Q403 -341 409 -363Q411 -366 412 -372Q414 -377 417 -379Q418 -400 424 -419Q428 -427 431 -444Q434 -462 438 -470Q443 -505 450 -539Q453 -554 458 -568Q465 -593 487 -617Q492 -618 492 -624Q492 -630 496 -631Q507 -630 523 -637Q538 -643 545 -644Q552 -646 604 -654Q614 -658 623 -656Q630 -658 650 -663Q664 -665 678 -668ZM796 -516Q809 -514 822 -514Q835 -515 845 -508Q850 -510 853 -506Q856 -503 860 -502Q862 -499 868 -497Q875 -494 878 -490Q894 -471 896 -461Q898 -453 897 -443Q898 -432 896 -419Q893 -408 890 -397Q885 -394 885 -386Q884 -376 879 -374Q875 -374 876 -369Q877 -364 876 -359Q867 -355 865 -343Q861 -341 859 -332Q857 -332 855 -327Q853 -323 850 -322Q846 -325 844 -322Q842 -317 840 -312Q836 -305 831 -301Q829 -287 819 -282Q818 -277 808 -267Q803 -266 797 -261Q793 -261 788 -252Q785 -246 782 -244Q777 -244 776 -239Q775 -234 772 -231Q770 -235 766 -231Q763 -226 759 -228Q756 -230 757 -235Q751 -240 747 -247Q735 -250 719 -248Q715 -248 714 -244Q713 -240 713 -236Q715 -218 713 -196Q713 -178 720 -179Q728 -179 737 -180Q745 -182 753 -178Q755 -176 759 -175Q765 -174 766 -172Q769 -157 760 -157Q751 -148 740 -145Q736 -144 733 -137Q730 -130 728 -129Q728 -125 725 -124Q721 -123 718 -123Q717 -121 713 -115Q708 -109 709 -103Q707 -91 704 -79Q703 -75 700 -76Q696 -77 695 -75Q688 -77 687 -68Q700 -69 713 -70Q723 -74 751 -74Q762 -74 773 -74Q784 -72 797 -72Q810 -71 817 -59Q814 -49 811 -40Q798 -37 784 -37Q761 -36 738 -35Q735 -34 731 -34L716 -32Q711 -32 709 -31Q695 -32 680 -33Q673 -29 666 -36Q665 -37 656 -49Q650 -55 644 -62Q629 -78 654 -105Q660 -108 660 -121Q660 -132 663 -136Q660 -143 653 -143Q645 -143 639 -145Q632 -145 624 -145Q621 -147 614 -146Q605 -145 603 -149Q614 -153 625 -157Q649 -160 666 -167Q669 -184 674 -198Q674 -209 674 -221Q672 -225 672 -231Q673 -235 670 -238Q667 -242 663 -239Q656 -238 649 -238Q636 -238 628 -244Q619 -240 609 -248Q598 -258 586 -261Q577 -255 574 -260Q571 -259 565 -263Q561 -266 557 -266Q545 -275 533 -284Q523 -298 523 -332Q524 -371 536 -406Q539 -409 540 -417Q542 -426 546 -428Q549 -446 560 -460Q572 -473 579 -487Q588 -498 600 -490Q604 -478 607 -466Q609 -461 612 -463Q616 -467 619 -468Q662 -493 713 -505Q725 -511 739 -511Q768 -514 796 -516ZM247 -487H261Q263 -486 281 -480Q294 -482 311 -463Q324 -440 315 -426Q312 -415 304 -405Q301 -399 295 -393Q289 -388 292 -379L275 -364Q269 -357 274 -353Q279 -349 284 -346Q290 -345 292 -337Q294 -330 288 -328Q284 -328 282 -321Q280 -314 275 -316Q262 -315 254 -315Q240 -317 217 -313Q200 -310 175 -316Q169 -312 173 -307Q177 -301 179 -296Q181 -290 176 -289Q170 -288 164 -288Q159 -284 148 -290Q146 -292 134 -297Q131 -304 126 -307Q120 -309 115 -312Q100 -320 96 -340Q94 -351 94 -378Q97 -391 99 -403Q102 -415 110 -424Q115 -438 125 -448Q135 -458 144 -470Q147 -473 150 -478Q153 -483 157 -479Q161 -473 163 -464Q164 -455 174 -454Q192 -471 223 -482Q237 -487 247 -487ZM810 -479Q806 -479 802 -479Q776 -479 763 -475Q751 -476 729 -468Q719 -468 710 -463Q701 -459 691 -456Q688 -456 688 -453Q688 -450 691 -448Q699 -453 705 -444Q714 -438 719 -425Q718 -412 716 -400Q721 -386 716 -371Q715 -368 719 -361Q729 -350 725 -336Q721 -337 718 -333Q715 -329 716 -325Q709 -309 712 -297Q709 -283 717 -279Q734 -282 750 -288Q759 -287 765 -294Q771 -302 776 -310Q785 -321 793 -332Q795 -336 802 -346Q809 -356 811 -363Q815 -371 817 -374L828 -397Q831 -402 834 -408Q854 -448 844 -468Q825 -483 810 -479ZM614 -460Q610 -460 610 -456Q610 -453 609 -450Q601 -424 602 -415Q602 -399 597 -392Q593 -380 591 -367Q590 -355 589 -343Q587 -340 587 -334Q587 -323 587 -312Q584 -287 597 -281Q607 -281 634 -263Q635 -263 657 -266Q662 -268 667 -268Q673 -269 677 -275L678 -322Q680 -332 673 -332Q665 -333 660 -335Q653 -333 641 -340Q632 -345 628 -346Q636 -349 657 -351Q659 -352 668 -354Q680 -356 684 -362Q686 -375 684 -389Q685 -400 686 -411Q686 -422 686 -432Q686 -442 676 -446Q669 -446 661 -446Q655 -448 649 -449Q642 -449 637 -455Q633 -454 625 -458Q618 -462 614 -460ZM240 -440L221 -437Q216 -434 207 -434Q189 -437 171 -437Q169 -427 174 -418Q168 -396 170 -375Q174 -368 170 -355Q167 -344 168 -340Q186 -344 201 -349Q209 -352 218 -353Q226 -354 228 -363L245 -424Q246 -430 245 -438Q244 -442 240 -440Z"/>
</svg>