<svg xmlns="http://www.w3.org/2000/svg" viewBox="0 -800 1024 1024">
	<path fill="#000000" d="M622 -682Q628 -681 635 -677Q640 -680 644 -676Q648 -664 661 -666Q669 -663 678 -658Q683 -656 682 -651Q680 -647 678 -642Q681 -635 675 -632Q664 -632 662 -621Q658 -614 652 -618Q647 -621 642 -624Q628 -620 613 -602Q598 -597 590 -590Q584 -591 582 -583Q580 -578 574 -577Q568 -582 563 -574Q555 -563 541 -558Q530 -548 519 -542Q505 -529 490 -519Q483 -512 491 -506Q498 -501 502 -494Q513 -488 516 -475Q522 -472 524 -459Q525 -451 528 -447Q526 -435 544 -440Q645 -467 672 -472Q677 -475 701 -477Q703 -480 710 -481Q716 -482 719 -485L785 -500Q791 -509 799 -503Q806 -501 810 -510Q812 -515 818 -510Q823 -507 835 -507Q844 -507 848 -506Q863 -508 879 -505Q887 -510 891 -501Q892 -494 892 -487L891 -464Q888 -461 880 -460Q872 -459 870 -457Q859 -459 849 -447Q835 -446 822 -449Q810 -445 793 -445Q777 -442 761 -439Q744 -436 726 -433Q715 -430 704 -427Q699 -423 702 -420Q708 -417 712 -412Q719 -407 721 -399Q724 -392 727 -384Q730 -375 729 -364Q735 -337 735 -336Q735 -328 735 -321Q736 -316 742 -317Q748 -318 750 -316Q755 -311 773 -311Q776 -309 784 -309Q793 -309 798 -305Q814 -301 830 -297Q835 -295 840 -287Q845 -279 848 -277Q854 -278 857 -272Q860 -267 858 -261Q849 -253 854 -240Q852 -236 844 -237Q838 -238 835 -236Q817 -244 798 -244Q772 -250 765 -254Q754 -260 743 -264Q739 -264 736 -260Q732 -236 733 -223Q730 -210 734 -196Q727 -187 734 -177Q730 -162 731 -145Q733 -134 732 -121Q737 -107 728 -92Q726 -88 729 -82Q732 -76 732 -73Q726 -58 730 -30Q725 -19 722 -6Q721 11 716 28Q709 37 705 48Q699 65 689 72Q685 78 680 77Q674 76 672 71Q661 62 650 58Q644 54 646 48Q649 43 651 38Q650 28 658 12Q660 2 662 -9Q665 -31 665 -32Q668 -61 671 -91Q674 -106 674 -136Q676 -170 678 -205Q678 -241 678 -277Q675 -284 667 -284Q660 -284 654 -286Q644 -287 639 -295Q637 -299 632 -303Q624 -309 625 -314Q637 -311 648 -308Q656 -309 666 -310Q676 -311 677 -321Q676 -342 674 -363Q672 -382 665 -397Q662 -404 658 -411Q653 -418 645 -415Q629 -413 615 -406Q602 -398 586 -403Q544 -411 541 -412Q536 -414 533 -411Q530 -408 532 -403Q533 -389 530 -373Q530 -354 529 -351Q524 -347 525 -337Q526 -329 524 -325Q521 -322 519 -308Q520 -298 514 -284Q508 -269 508 -262Q505 -257 501 -237Q501 -231 493 -220Q486 -211 485 -204Q484 -198 474 -196Q464 -195 463 -189Q457 -183 452 -188Q446 -193 447 -200Q442 -213 441 -225Q441 -230 436 -236Q431 -242 432 -247Q434 -249 434 -258Q435 -269 441 -272Q452 -292 455 -303L458 -313Q456 -318 460 -325Q463 -331 463 -334Q461 -338 465 -347Q468 -353 467 -357Q467 -367 471 -387Q473 -397 474 -408Q474 -422 476 -427Q476 -443 475 -459Q465 -477 458 -496Q452 -502 445 -520Q444 -524 441 -528Q438 -532 442 -534Q455 -532 462 -542Q464 -549 469 -552Q474 -556 479 -550Q482 -547 486 -547Q492 -547 502 -562Q530 -594 547 -609Q561 -628 579 -644Q587 -657 600 -666Q603 -675 622 -682ZM194 -623Q197 -621 200 -620Q210 -622 215 -614Q225 -599 237 -606Q245 -605 253 -604Q270 -608 276 -587Q284 -579 281 -566Q286 -555 282 -534Q280 -530 281 -520Q282 -510 281 -506Q282 -501 280 -495Q278 -490 283 -485Q289 -484 297 -485Q307 -487 307 -476Q306 -470 312 -464Q312 -463 309 -450Q309 -439 289 -432Q267 -431 262 -409Q263 -396 262 -382Q265 -374 259 -356Q257 -343 255 -331Q251 -321 249 -315Q248 -312 244 -308Q240 -303 246 -300L289 -342Q327 -377 364 -413Q381 -433 394 -455Q397 -461 399 -462Q399 -461 399 -458Q396 -450 393 -442Q391 -434 383 -422Q372 -407 372 -399Q365 -397 362 -388Q359 -380 356 -377Q347 -366 341 -353Q329 -339 327 -334Q321 -333 322 -324Q322 -318 320 -315Q311 -314 308 -306Q310 -302 306 -294Q289 -278 277 -260Q266 -241 252 -223Q242 -215 239 -201Q230 -196 219 -203Q211 -204 199 -213Q191 -219 188 -220Q177 -223 177 -234Q178 -240 176 -247Q173 -259 178 -264Q183 -282 190 -298Q192 -307 194 -316Q194 -332 194 -348Q194 -369 194 -390Q195 -395 193 -398Q191 -402 186 -401Q168 -396 157 -405Q144 -407 128 -421Q121 -424 119 -431Q117 -439 124 -440Q134 -438 137 -440Q141 -441 143 -446Q146 -453 150 -452Q153 -451 159 -454Q164 -457 168 -455Q172 -453 178 -457Q183 -461 186 -461Q192 -464 199 -466Q207 -468 212 -474Q214 -491 214 -526Q215 -544 215 -563Q217 -569 213 -573Q209 -577 205 -579Q199 -584 199 -590Q200 -597 198 -602Q197 -607 193 -612Q190 -618 194 -623Z"/>
</svg>