<svg xmlns="http://www.w3.org/2000/svg" viewBox="0 -800 1024 1024">
	<path fill="#000000" d="M652 -681L659 -670Q663 -666 666 -658Q664 -653 664 -625Q666 -606 664 -588Q663 -573 663 -499Q660 -469 660 -453Q661 -453 662 -453L667 -455Q668 -455 669 -455Q679 -456 689 -457L714 -462Q737 -466 758 -460Q762 -459 766 -457Q771 -455 770 -450Q770 -444 765 -441Q760 -439 756 -436Q752 -428 745 -431Q741 -436 733 -432Q728 -429 725 -430Q718 -431 712 -430Q695 -427 677 -424Q669 -426 663 -421Q657 -416 659 -408Q658 -400 656 -391Q654 -383 656 -374Q656 -355 649 -338Q646 -315 627 -299Q614 -303 608 -318Q608 -325 600 -334Q590 -346 594 -354Q598 -370 600 -386V-401Q572 -397 547 -388Q524 -388 506 -380Q486 -378 469 -371Q458 -367 446 -368Q437 -366 423 -370Q412 -373 407 -373Q395 -379 383 -385Q390 -390 400 -390Q430 -399 459 -409Q468 -413 476 -419L461 -427Q422 -450 427 -474Q431 -504 442 -532Q441 -540 451 -559Q458 -572 460 -585Q462 -590 473 -628Q476 -635 476 -636Q476 -637 469 -638Q462 -638 415 -647Q409 -647 408 -651Q406 -657 413 -661Q431 -669 434 -669Q481 -685 527 -702Q554 -710 580 -719Q589 -724 600 -724Q620 -728 640 -730Q665 -729 690 -728Q691 -726 695 -725Q701 -723 702 -719Q716 -702 702 -695Q678 -687 652 -681ZM602 -673Q590 -672 570 -664Q557 -662 540 -656Q538 -655 536 -655L528 -652Q526 -651 524 -650Q529 -639 527 -612Q528 -608 517 -583Q523 -583 529 -584Q544 -584 558 -585Q568 -584 580 -583Q591 -581 599 -573Q599 -567 597 -553Q596 -547 591 -546Q587 -544 582 -542Q571 -543 560 -544Q549 -551 513 -554Q504 -536 501 -526Q498 -517 495 -509L543 -510Q558 -508 572 -507Q580 -505 588 -504Q591 -506 597 -504Q605 -502 608 -506Q609 -517 608 -527Q607 -538 611 -548Q613 -577 614 -607Q615 -635 612 -659Q612 -666 610 -670Q607 -676 602 -673ZM490 -489Q490 -485 490 -482L491 -467Q491 -463 491 -459Q495 -440 498 -422Q500 -422 501 -422L507 -425Q509 -425 510 -425Q528 -430 545 -430Q570 -438 578 -437Q591 -441 603 -443Q604 -458 605 -473Q603 -473 600 -473L590 -474Q588 -474 585 -474Q566 -478 549 -478Q537 -481 525 -484Q520 -484 510 -487Q496 -491 490 -489ZM101 -465Q111 -466 119 -463Q125 -464 140 -460Q155 -460 159 -455Q163 -454 163 -447Q163 -440 167 -437Q188 -441 208 -446Q223 -449 237 -453Q248 -455 279 -451Q299 -440 295 -428Q295 -420 300 -412L294 -391Q291 -379 284 -370Q277 -360 271 -349Q271 -341 278 -340Q285 -338 290 -334Q290 -317 274 -306Q255 -305 235 -305Q222 -306 211 -304Q193 -304 175 -304Q169 -304 163 -304Q163 -299 163 -294Q168 -286 153 -280Q141 -283 125 -301Q109 -322 113 -356Q115 -370 121 -388Q125 -408 126 -426Q120 -441 109 -452Q98 -458 101 -465ZM165 -416Q165 -405 164 -401Q164 -399 164 -397V-390Q164 -388 164 -386Q164 -373 164 -360Q163 -353 163 -340Q163 -334 163 -328Q188 -333 212 -339Q227 -348 233 -364Q239 -380 246 -394Q252 -404 249 -413Q241 -413 225 -411Q206 -408 201 -411Q183 -413 165 -416ZM797 -313H818Q828 -311 837 -310Q853 -308 861 -300Q866 -300 870 -290Q870 -287 874 -282Q880 -276 880 -272Q876 -261 878 -256Q885 -251 879 -236Q878 -219 871 -203Q859 -191 857 -175Q853 -171 845 -157Q839 -146 832 -140Q807 -107 769 -69L748 -53L761 -50Q765 -48 787 -41Q798 -35 813 -34Q816 -31 826 -29Q837 -27 841 -23Q860 -16 878 -7Q890 -1 904 4Q907 8 907 14Q907 18 912 19Q920 21 919 26Q920 33 915 33Q908 33 902 36Q900 41 897 46Q895 52 889 53Q874 45 859 36Q848 32 839 27Q827 23 815 19Q799 14 783 9Q774 4 751 -1Q727 -8 706 -16Q693 -16 682 -8Q664 -7 648 -2Q643 -5 645 -8Q649 -12 653 -15Q655 -17 656 -19L666 -30Q669 -33 669 -34Q633 -43 583 -71Q578 -77 573 -80Q568 -83 568 -89Q577 -94 590 -88Q621 -83 632 -78Q656 -78 679 -73Q682 -73 684 -73L693 -72Q696 -72 698 -72Q716 -87 733 -103Q745 -112 753 -124L765 -137Q775 -152 784 -167Q804 -194 811 -224Q813 -235 815 -246Q817 -257 808 -264L787 -261Q743 -249 701 -234Q694 -231 676 -234Q663 -235 649 -236Q643 -236 634 -240Q622 -245 616 -243Q611 -242 610 -246Q609 -250 614 -251Q628 -259 636 -260Q643 -264 660 -269Q678 -274 687 -280Q697 -282 706 -285Q711 -290 723 -290Q725 -295 732 -297Q739 -299 740 -300Q750 -300 759 -305Q768 -308 779 -309Q781 -310 797 -313ZM514 -250H517Q532 -249 546 -240Q557 -233 557 -217Q560 -215 560 -202Q561 -191 552 -181Q553 -177 548 -170Q544 -165 544 -161Q534 -146 526 -130Q515 -123 515 -114Q506 -107 501 -97Q495 -95 493 -91Q490 -86 496 -82Q507 -83 518 -77Q536 -73 554 -70Q561 -64 567 -59Q574 -59 573 -53Q573 -47 572 -41Q576 -34 569 -16Q567 -11 564 -5Q561 1 554 0Q540 -6 526 -13Q499 -32 471 -45Q460 -51 458 -52Q450 -55 446 -48Q431 -40 417 -29Q402 -24 388 -17Q374 -19 364 -13Q359 -16 362 -19Q366 -23 370 -22Q391 -40 409 -61Q415 -68 407 -73Q392 -78 382 -85Q366 -94 350 -104Q342 -110 349 -111Q366 -109 378 -113Q400 -114 427 -106Q433 -107 439 -105Q445 -103 449 -110Q462 -131 474 -152Q486 -174 498 -196Q498 -204 493 -203Q487 -202 483 -200Q467 -197 466 -197Q454 -195 443 -189Q432 -183 420 -187Q394 -185 380 -191Q368 -194 357 -197Q358 -202 363 -203Q369 -204 373 -207Q404 -221 437 -231Q458 -242 479 -245Q495 -249 514 -250Z"/>
</svg>