<svg xmlns="http://www.w3.org/2000/svg" viewBox="0 -800 1024 1024">
	<path fill="#000000" d="M651 -686Q658 -684 660 -686Q678 -686 693 -683Q695 -683 718 -677Q730 -676 742 -668Q746 -668 750 -661Q754 -655 759 -654Q764 -650 772 -638Q778 -627 785 -623Q790 -607 797 -598Q801 -593 798 -588Q807 -584 807 -575Q806 -566 807 -557Q810 -548 816 -538Q819 -523 821 -508Q821 -493 824 -480Q826 -460 825 -455Q819 -453 819 -446Q819 -440 823 -434Q830 -412 828 -403Q828 -385 827 -370Q829 -352 828 -335Q830 -330 827 -318Q824 -309 826 -304Q824 -298 825 -288Q826 -275 823 -271Q831 -259 832 -244Q830 -242 831 -238Q833 -234 832 -233Q832 -217 830 -209Q833 -192 826 -176Q831 -171 830 -165Q829 -158 831 -152Q831 -136 826 -114Q832 -103 828 -90Q824 -79 822 -67Q825 -60 822 -48Q819 -35 820 -30Q819 -27 814 -1Q807 12 805 30Q803 37 797 44Q791 51 794 60Q789 65 785 62Q780 58 775 54Q773 53 770 51L760 45Q758 44 755 42Q752 42 751 36Q751 31 747 30Q738 19 722 17Q715 18 702 18Q687 16 673 17Q667 17 657 14Q645 10 639 12Q620 11 600 10Q591 11 582 11Q574 11 565 10Q558 10 550 10Q532 10 512 14Q499 15 486 15Q459 17 432 19Q428 18 419 18Q416 18 412 18L397 17Q394 17 390 17Q372 14 357 14Q339 18 306 -1Q303 -2 297 -8Q291 -14 287 -15Q285 -13 281 -15Q277 -17 275 -14Q275 -9 272 -9Q266 -9 263 -13Q241 -15 213 -33Q179 -50 157 -109Q153 -126 149 -144Q148 -157 148 -186Q149 -202 148 -219Q147 -236 153 -250Q150 -256 153 -271Q155 -283 154 -291Q163 -334 171 -378Q175 -393 181 -429Q197 -478 212 -527Q218 -553 248 -589Q251 -590 254 -595Q258 -602 263 -601Q264 -596 270 -588Q276 -580 276 -575Q283 -565 283 -553Q282 -542 283 -531Q281 -520 267 -504Q257 -495 255 -479Q252 -466 249 -454Q246 -449 243 -437Q241 -426 237 -421Q238 -414 233 -401Q228 -390 229 -382Q227 -371 224 -360Q223 -348 219 -337Q217 -329 217 -322Q217 -312 213 -302Q211 -295 211 -286Q212 -277 206 -272Q210 -255 202 -232Q196 -214 198 -195Q198 -183 198 -172Q198 -155 198 -139Q202 -116 208 -94Q226 -55 250 -42Q260 -43 268 -36Q298 -23 319 -17Q330 -13 350 -15Q370 -17 377 -15Q410 -14 442 -18Q474 -19 505 -24Q566 -27 629 -27Q643 -25 657 -24Q668 -23 679 -22Q690 -21 700 -15Q718 -15 730 -9Q733 -2 740 -1Q743 -2 747 -1Q750 0 754 -4Q760 -5 760 -11Q761 -17 763 -22Q771 -67 774 -110Q782 -175 779 -256Q776 -274 775 -296Q772 -330 774 -365Q778 -398 773 -434Q771 -451 772 -468Q765 -518 757 -568Q749 -583 744 -600Q738 -616 725 -629Q708 -646 663 -644Q637 -642 626 -636Q616 -633 605 -631Q598 -624 582 -622Q575 -622 565 -617Q555 -612 550 -612Q547 -610 543 -609L529 -606Q526 -604 522 -603Q499 -590 496 -590Q484 -584 483 -583Q484 -578 479 -578Q473 -577 472 -576Q459 -580 445 -584Q430 -584 428 -583Q420 -585 414 -584Q402 -585 395 -589Q386 -590 383 -595Q383 -596 387 -596Q393 -598 400 -600Q406 -602 403 -609Q415 -612 427 -616Q433 -622 457 -629Q488 -644 501 -647Q530 -654 558 -666Q586 -673 613 -681Q631 -686 651 -686ZM474 -572Q506 -572 515 -569Q529 -567 532 -564Q540 -564 544 -558Q548 -553 551 -547Q551 -532 552 -519Q548 -517 548 -509Q548 -501 544 -500Q544 -497 532 -481Q526 -483 519 -476Q517 -469 510 -463Q505 -461 506 -459Q508 -454 513 -457Q519 -456 525 -456Q531 -457 532 -449Q533 -445 531 -443Q528 -442 526 -440Q511 -429 496 -426Q487 -428 473 -416Q472 -409 466 -399Q459 -389 459 -383Q452 -368 449 -353Q448 -349 452 -348Q454 -348 457 -351Q462 -358 476 -366Q494 -375 512 -385Q529 -396 549 -399Q573 -400 594 -393Q602 -392 607 -379Q611 -369 613 -367Q611 -365 618 -356Q625 -349 625 -338Q628 -320 625 -304Q624 -299 624 -289Q624 -274 621 -269Q612 -260 618 -245Q615 -242 613 -223Q606 -208 603 -189Q599 -185 597 -170Q592 -168 594 -160Q596 -154 594 -152Q592 -138 589 -130Q595 -125 603 -124Q612 -124 619 -122Q641 -110 647 -103Q653 -101 652 -96Q652 -94 648 -95Q641 -91 634 -88Q608 -84 585 -97Q575 -102 571 -90Q569 -81 561 -95Q559 -101 550 -105Q545 -107 534 -110Q523 -110 512 -110Q494 -115 486 -109Q481 -109 476 -104L467 -96Q465 -94 458 -90Q450 -86 447 -80Q443 -80 438 -75Q433 -70 428 -70Q420 -67 423 -83Q445 -109 456 -127Q470 -148 479 -171Q480 -183 483 -193Q484 -199 484 -205Q483 -212 488 -216Q492 -212 503 -208Q513 -205 516 -200Q526 -196 532 -177Q526 -164 519 -152Q514 -152 515 -148Q515 -144 513 -142Q503 -139 505 -128Q512 -126 527 -129Q538 -131 545 -130Q552 -133 558 -136Q564 -159 567 -183Q566 -187 569 -194Q572 -201 571 -205Q575 -208 575 -216Q575 -222 576 -225Q573 -241 576 -255Q580 -270 582 -283Q585 -295 584 -305L578 -338Q580 -349 573 -359Q566 -369 555 -370L525 -353Q521 -352 514 -347Q504 -339 498 -341Q493 -334 479 -339Q467 -338 454 -341Q452 -346 448 -345Q446 -345 446 -341Q443 -330 440 -319Q433 -304 429 -289Q427 -280 421 -261Q419 -256 419 -246Q419 -231 414 -225Q419 -208 411 -193Q412 -174 409 -149Q403 -143 401 -133Q396 -134 390 -135Q379 -139 373 -149Q369 -148 366 -154Q362 -162 361 -163Q341 -170 347 -191Q353 -197 357 -205Q361 -215 361 -225Q358 -234 364 -239Q371 -245 375 -251Q372 -262 372 -273Q371 -278 375 -272Q382 -286 377 -293Q377 -306 377 -319Q389 -347 395 -354Q396 -360 404 -365Q411 -370 411 -373Q408 -379 415 -386Q421 -392 421 -396Q427 -401 429 -407Q433 -416 422 -418Q421 -418 397 -424Q391 -424 389 -430Q386 -435 384 -440Q370 -452 365 -462Q368 -479 373 -495Q379 -503 384 -511Q399 -530 407 -534Q412 -534 413 -540Q413 -545 416 -549Q445 -560 474 -572ZM494 -543Q490 -544 485 -540Q478 -536 474 -536Q472 -534 466 -532L457 -529Q444 -522 430 -531Q428 -528 434 -522Q439 -517 439 -516Q442 -511 435 -508Q426 -504 424 -501Q424 -489 418 -480Q413 -471 409 -461Q411 -454 411 -438Q414 -433 420 -433Q430 -435 439 -438Q453 -443 466 -449Q482 -467 482 -479Q485 -481 487 -493Q489 -498 490 -503L497 -522Q498 -526 500 -532Q499 -534 499 -538Q499 -544 494 -543Z"/>
</svg>