<svg xmlns="http://www.w3.org/2000/svg" viewBox="0 -800 1024 1024">
	<path fill="#000000" d="M580 -719Q593 -718 605 -717Q622 -717 637 -713Q648 -709 658 -701Q663 -690 666 -678Q671 -672 671 -665Q671 -657 663 -653Q660 -645 647 -627Q645 -626 641 -621Q637 -615 634 -616Q630 -616 627 -611Q624 -605 620 -606Q611 -599 607 -580Q605 -577 606 -576Q610 -576 615 -572Q628 -572 641 -570Q652 -568 652 -557Q655 -547 651 -536Q646 -531 637 -528Q627 -525 624 -522Q595 -522 566 -522Q540 -520 513 -522Q498 -518 485 -517Q481 -518 471 -516Q461 -514 455 -517Q451 -513 435 -518Q427 -517 415 -525Q404 -533 396 -532Q393 -527 392 -518Q391 -505 386 -501Q388 -496 385 -488Q382 -480 383 -476Q378 -470 378 -459Q380 -447 376 -433Q369 -413 364 -391Q367 -379 358 -371Q360 -365 356 -356Q352 -345 352 -339Q348 -336 347 -330Q346 -324 342 -322Q337 -295 326 -271Q319 -229 299 -198Q297 -196 296 -187Q296 -179 292 -176Q289 -174 286 -165Q284 -159 281 -156Q282 -150 278 -146Q274 -141 273 -137Q269 -134 266 -126Q263 -117 257 -115Q246 -93 234 -75Q227 -69 216 -52Q202 -30 190 -26Q185 -14 171 -6Q167 -7 164 -5Q163 -5 163 -7Q162 -8 155 -14Q147 -20 146 -25Q145 -30 136 -35Q126 -41 126 -47Q128 -48 127 -54Q126 -60 131 -61Q132 -65 137 -69Q143 -73 145 -76Q161 -93 175 -112Q178 -120 187 -131Q198 -144 200 -150Q213 -165 233 -203Q239 -226 248 -235Q250 -242 259 -261Q262 -281 275 -301Q278 -315 281 -330Q286 -351 293 -373Q293 -380 298 -395Q302 -406 302 -415Q310 -430 312 -446Q323 -483 330 -521Q336 -542 338 -558Q344 -579 349 -601Q354 -623 372 -641Q382 -652 397 -655Q400 -653 404 -654Q411 -655 412 -652Q412 -644 419 -632Q425 -622 425 -615Q420 -608 414 -601Q413 -599 405 -579Q397 -563 397 -544Q409 -544 420 -548Q465 -560 511 -567Q523 -566 528 -576Q533 -585 539 -593Q540 -598 548 -607Q554 -614 556 -619Q565 -628 570 -640Q574 -652 580 -663Q581 -669 576 -669Q571 -669 567 -671Q557 -663 549 -664Q531 -660 521 -655Q507 -655 489 -663Q482 -660 473 -665Q466 -669 463 -669Q456 -675 446 -675Q437 -676 429 -678Q427 -683 432 -684Q440 -686 441 -688Q448 -690 460 -694Q473 -697 485 -701Q511 -709 536 -713Q558 -716 580 -719ZM601 -476L615 -472Q633 -478 648 -470Q654 -474 656 -470Q657 -468 657 -465Q656 -461 651 -462Q648 -458 650 -456Q654 -455 658 -454Q662 -454 662 -452Q662 -450 658 -451Q654 -449 654 -442Q654 -436 652 -433Q637 -430 621 -427Q616 -423 610 -420Q611 -416 606 -416Q604 -416 604 -414Q590 -402 575 -391Q574 -386 566 -381Q560 -377 558 -374Q556 -369 548 -366Q538 -362 536 -358Q533 -357 530 -352Q527 -347 526 -346Q513 -328 495 -316Q487 -311 476 -295Q462 -277 452 -271Q445 -262 438 -254Q436 -250 440 -249Q444 -249 446 -248Q458 -248 469 -252Q489 -254 509 -257Q534 -259 549 -266Q553 -264 561 -267Q567 -269 571 -267Q601 -273 603 -273Q645 -280 687 -288Q709 -289 728 -296Q726 -302 722 -304Q717 -307 713 -310Q716 -315 718 -320Q745 -319 773 -316Q782 -313 788 -308Q795 -302 796 -294Q793 -289 794 -285Q795 -284 796 -285Q804 -289 812 -280Q808 -276 813 -272Q817 -268 814 -266Q811 -263 809 -258Q807 -254 803 -257Q799 -260 796 -255Q793 -250 792 -250Q789 -248 786 -252Q784 -255 782 -255Q777 -249 771 -244Q764 -249 758 -247Q751 -245 744 -244Q741 -249 737 -245Q734 -242 731 -243Q713 -243 705 -239Q697 -242 688 -237Q682 -239 674 -235Q668 -232 656 -235Q643 -237 638 -222Q642 -207 643 -191Q645 -186 643 -174Q642 -167 643 -161Q638 -155 646 -150Q654 -145 658 -151Q669 -148 679 -151Q690 -151 692 -143Q697 -146 699 -142Q701 -135 701 -129Q706 -127 705 -127Q703 -126 701 -125Q699 -123 694 -123Q687 -123 684 -119Q679 -108 666 -106Q653 -106 643 -88Q637 -54 636 -36Q634 -17 628 0Q627 7 631 7Q640 6 648 8Q669 8 690 7Q700 9 712 9Q724 9 733 15Q737 13 740 19Q743 24 746 22Q747 22 748 22Q751 21 749 24Q747 33 750 33Q751 41 741 45Q728 55 721 53Q711 55 692 52Q674 50 665 51Q664 49 660 51Q655 53 653 51Q652 48 651 48Q648 48 645 52Q642 55 639 53Q622 55 605 57Q581 56 556 55Q552 52 546 53Q540 54 537 53Q532 55 531 50Q529 45 527 41Q526 34 520 33Q514 31 510 29Q503 25 501 18Q501 17 505 18Q512 15 509 8Q506 2 504 -3Q507 -17 518 -25Q529 -33 537 -44Q543 -45 550 -52Q557 -59 562 -60Q570 -69 570 -89Q567 -92 559 -92Q552 -92 549 -94Q537 -97 524 -101Q522 -104 511 -102Q509 -104 503 -105Q497 -106 498 -109Q511 -116 526 -115Q532 -117 566 -127Q572 -128 573 -134Q573 -140 575 -145Q580 -203 577 -219Q572 -222 563 -219Q552 -216 548 -218Q542 -220 537 -214Q510 -208 482 -203Q464 -203 447 -200Q443 -202 436 -202Q428 -202 425 -205Q411 -211 401 -228Q395 -227 390 -234Q386 -240 383 -241Q380 -251 376 -261Q373 -270 382 -286Q394 -292 405 -303Q412 -308 418 -315Q424 -322 433 -326Q438 -331 443 -338Q449 -345 454 -343Q458 -340 460 -344Q462 -348 459 -352Q471 -361 482 -371Q486 -378 492 -381Q498 -384 505 -389Q515 -397 524 -406Q531 -408 535 -413Q540 -419 534 -423Q521 -434 512 -433Q496 -441 503 -448Q519 -447 539 -454Q560 -461 581 -468Q584 -472 591 -472Q599 -472 601 -476ZM549 6Q545 10 549 14Q553 15 554 12Q553 5 549 6Z"/>
</svg>