<svg xmlns="http://www.w3.org/2000/svg" viewBox="0 -800 1024 1024">
	<path fill="#000000" d="M436 -788Q442 -789 448 -785Q455 -784 462 -784L471 -782Q478 -781 484 -781Q492 -785 502 -779Q511 -773 512 -763Q523 -748 521 -722Q518 -711 517 -701Q521 -693 517 -674Q519 -669 515 -661Q510 -651 514 -646Q516 -633 510 -626Q506 -622 508 -618Q510 -613 510 -608Q509 -597 507 -587Q507 -580 506 -573Q503 -563 503 -561Q503 -554 510 -553Q520 -555 526 -556Q549 -559 571 -562Q574 -564 610 -569Q615 -573 627 -573Q641 -573 646 -577Q649 -591 654 -603Q655 -613 656 -624Q657 -635 649 -641Q643 -644 646 -648Q648 -651 654 -653Q657 -659 665 -656Q706 -634 718 -623Q718 -619 727 -603Q729 -594 730 -584Q729 -580 735 -574Q743 -567 738 -561Q728 -551 725 -544Q724 -538 715 -534Q708 -530 706 -527Q705 -518 690 -507Q676 -508 652 -488Q645 -484 642 -491Q639 -497 636 -501Q638 -517 630 -518Q620 -515 610 -513Q585 -512 562 -507Q554 -508 524 -503Q517 -499 509 -499Q505 -500 490 -495Q486 -493 475 -492Q465 -492 460 -488L420 -484Q401 -484 384 -480Q376 -479 368 -479Q363 -479 338 -474Q334 -477 314 -477Q289 -486 278 -501Q270 -514 262 -528Q264 -545 270 -560Q272 -562 273 -569Q274 -577 280 -579Q285 -581 290 -594Q303 -610 332 -639Q333 -645 338 -645Q342 -645 346 -642Q355 -629 364 -617Q368 -613 365 -608Q361 -604 359 -599Q357 -586 354 -574Q340 -546 335 -522Q336 -517 344 -519Q351 -520 354 -519Q368 -523 398 -527Q417 -532 436 -537Q449 -537 447 -554Q451 -564 453 -599Q453 -613 455 -618Q457 -642 458 -666Q458 -692 459 -695Q460 -723 456 -747Q457 -766 436 -775Q430 -777 430 -782Q430 -787 436 -788ZM403 -465Q410 -466 424 -462Q428 -459 438 -455Q448 -451 450 -444Q446 -440 443 -434Q437 -423 432 -420Q430 -416 423 -413Q414 -409 412 -403Q409 -400 402 -398Q392 -395 389 -389Q382 -381 372 -382Q356 -371 352 -365Q347 -360 341 -362Q322 -352 297 -346Q287 -340 296 -328Q303 -318 290 -299Q278 -272 278 -241Q269 -229 269 -209Q262 -185 265 -173Q272 -163 281 -172Q298 -179 301 -179Q316 -189 319 -190Q353 -208 378 -215Q383 -218 394 -221Q406 -224 411 -228Q409 -246 412 -258Q415 -272 403 -277Q391 -279 382 -285Q380 -287 381 -289Q382 -291 384 -291Q393 -290 409 -298Q423 -302 434 -302Q444 -302 451 -299Q472 -284 467 -270Q462 -265 468 -258Q474 -252 469 -234Q462 -227 466 -218Q470 -212 463 -200Q457 -190 459 -183L452 -159Q448 -148 445 -136Q434 -126 430 -103Q420 -90 415 -76Q413 -72 404 -65Q397 -60 394 -54Q387 -41 381 -39Q372 -38 370 -46Q367 -54 365 -60Q369 -77 378 -92Q385 -116 394 -138Q398 -160 403 -169Q399 -179 384 -171Q365 -164 336 -147Q320 -135 299 -135Q290 -130 278 -134Q277 -134 260 -142Q245 -146 231 -160Q223 -170 215 -177Q216 -183 211 -200Q218 -208 217 -217Q215 -223 220 -231Q223 -236 223 -240Q222 -246 231 -278Q234 -304 254 -334Q266 -349 277 -361Q280 -367 297 -369Q318 -385 338 -402Q346 -412 355 -418Q364 -423 373 -431Q378 -439 386 -443Q392 -448 386 -457Q386 -463 391 -463Q398 -464 403 -465ZM751 -432L788 -431Q822 -420 832 -409Q840 -401 843 -389Q850 -378 845 -362Q847 -356 843 -348Q839 -339 839 -336Q840 -329 836 -324Q832 -319 830 -313Q827 -310 825 -303Q822 -293 817 -290Q816 -276 805 -266Q794 -247 782 -228Q770 -221 766 -211Q753 -199 739 -190Q736 -185 726 -179Q717 -174 714 -168Q712 -163 704 -159Q697 -155 695 -152Q685 -143 676 -148Q674 -157 668 -164Q662 -170 658 -177Q660 -181 661 -186Q663 -192 670 -190Q676 -187 684 -200Q695 -209 705 -221Q710 -232 712 -243Q715 -247 720 -250Q725 -253 726 -259Q728 -261 730 -270Q732 -278 736 -281Q752 -318 753 -322Q758 -345 768 -365Q772 -371 770 -379Q769 -386 762 -385Q740 -374 717 -367Q710 -365 696 -363Q693 -360 685 -360Q676 -360 673 -355Q668 -352 661 -354Q652 -356 645 -347Q640 -342 635 -344Q629 -345 624 -345Q616 -343 607 -341Q602 -338 603 -333Q605 -329 606 -324Q610 -306 609 -286Q612 -269 609 -250Q610 -233 610 -217Q607 -207 609 -197Q611 -193 608 -184Q604 -174 607 -168Q605 -162 607 -149Q608 -140 606 -120Q604 -102 605 -91Q599 -76 603 -66Q603 -55 600 -42Q604 -32 601 -16Q602 -9 599 5Q595 20 597 29Q595 44 593 58Q595 72 590 86Q591 99 582 116Q581 122 576 125Q571 127 566 130Q558 129 542 120Q533 118 536 111Q540 95 541 78Q543 57 546 48Q546 15 548 -17Q548 -62 549 -67Q552 -74 551 -86Q550 -100 553 -105Q557 -112 556 -119Q555 -136 554 -153Q558 -183 559 -214Q564 -227 563 -242Q564 -288 560 -332Q561 -348 558 -361Q555 -366 550 -367Q545 -368 541 -371Q540 -378 538 -386Q538 -391 543 -393Q548 -395 550 -392Q553 -386 565 -382Q574 -379 579 -374Q587 -364 599 -359Q619 -376 641 -388Q672 -402 703 -416Q719 -424 751 -432Z"/>
</svg>