<svg xmlns="http://www.w3.org/2000/svg" viewBox="0 -800 1024 1024">
	<path fill="#000000" d="M412 -698Q416 -698 416 -693Q416 -686 420 -685Q421 -678 430 -677Q438 -676 440 -672Q451 -668 459 -656Q463 -656 463 -654Q463 -649 467 -646Q465 -640 468 -632Q471 -623 467 -620Q469 -614 459 -608Q457 -598 443 -586Q439 -585 434 -579Q429 -573 423 -573Q419 -567 414 -568Q409 -569 408 -562Q402 -563 396 -557Q390 -551 386 -551Q377 -537 362 -533Q351 -518 334 -509Q329 -505 323 -502Q317 -498 318 -492Q334 -484 350 -482Q353 -478 360 -476Q369 -474 371 -469Q380 -466 388 -453Q394 -443 398 -440Q407 -433 410 -424Q415 -420 416 -409Q417 -399 421 -396Q436 -401 437 -391Q453 -392 483 -401Q513 -409 529 -411Q531 -415 539 -414Q547 -413 549 -418L603 -436Q607 -462 605 -494Q607 -502 606 -520Q605 -538 606 -545Q608 -587 602 -627L558 -660Q554 -668 561 -672Q566 -675 575 -676Q598 -679 618 -670Q637 -665 655 -660Q664 -656 663 -648Q662 -639 662 -633Q666 -628 666 -616Q666 -602 670 -597Q669 -588 670 -577Q671 -567 664 -560Q667 -549 664 -536Q668 -531 664 -521Q660 -512 662 -506Q666 -503 663 -496Q661 -490 662 -485Q660 -478 664 -473Q667 -468 668 -464Q671 -459 673 -459Q676 -459 681 -465Q686 -470 688 -471Q712 -474 739 -474Q749 -472 759 -475Q774 -476 788 -478Q794 -476 800 -473Q806 -470 815 -472Q821 -468 828 -465Q835 -461 838 -455Q836 -447 842 -444Q847 -441 851 -436Q851 -426 838 -426Q820 -406 808 -411Q806 -408 801 -410Q796 -412 794 -407Q771 -403 748 -399Q724 -392 699 -385Q695 -387 690 -384Q684 -381 681 -383Q668 -375 670 -358Q665 -341 662 -320Q668 -311 664 -298Q659 -295 660 -287Q661 -278 656 -276Q660 -267 663 -258Q661 -231 662 -221Q656 -215 659 -202Q661 -191 659 -187Q660 -182 662 -177Q665 -172 660 -166Q654 -156 663 -145Q664 -126 658 -114Q664 -98 663 -89Q656 -86 656 -78Q657 -70 655 -63Q658 -40 652 -24L653 -11Q656 -1 649 8Q652 11 652 27Q653 35 648 40Q643 44 640 49Q640 69 637 77Q637 82 634 82Q630 82 630 85Q624 88 618 99Q612 110 605 112Q599 119 592 106Q586 98 589 90Q591 82 594 74Q597 0 595 -77Q593 -85 594 -92Q592 -168 598 -243Q601 -248 599 -260Q598 -269 599 -274Q597 -301 599 -327Q598 -335 600 -344Q602 -353 598 -361Q572 -356 546 -351Q519 -344 492 -337Q484 -338 477 -336Q451 -330 425 -324Q422 -302 413 -281Q407 -231 367 -187Q360 -175 355 -161Q348 -158 341 -149Q332 -138 326 -136Q321 -130 317 -123Q312 -116 303 -115Q292 -107 280 -99Q275 -90 263 -93Q260 -89 254 -91Q246 -94 242 -89Q235 -89 235 -98Q234 -108 229 -109Q224 -108 219 -111Q216 -114 221 -117Q228 -119 235 -127Q242 -135 246 -137Q316 -241 326 -297Q316 -300 301 -291Q296 -294 286 -288Q277 -283 270 -286Q256 -285 243 -289Q223 -291 205 -291Q194 -293 181 -294Q167 -295 153 -296Q150 -298 145 -299Q138 -300 139 -305Q144 -302 150 -306Q156 -310 159 -309Q161 -314 166 -314Q170 -313 176 -313Q203 -324 212 -327Q240 -333 269 -343Q276 -348 292 -351Q305 -354 312 -357Q327 -361 341 -366Q351 -371 349 -395Q354 -425 334 -441Q329 -445 290 -471Q287 -476 284 -476Q277 -473 270 -470Q268 -470 266 -475Q263 -475 260 -482Q258 -486 256 -485Q248 -487 248 -495Q247 -504 246 -512Q242 -521 246 -527Q250 -533 254 -539Q261 -552 261 -565Q259 -569 263 -570Q268 -571 272 -569Q282 -574 291 -578Q304 -589 315 -596Q319 -599 325 -603Q330 -606 331 -613Q344 -629 355 -633L374 -651Q381 -657 389 -665Q398 -672 401 -682Q396 -688 402 -691Q408 -694 412 -698Z"/>
</svg>