<svg xmlns="http://www.w3.org/2000/svg" viewBox="0 -800 1024 1024">
	<path fill="#000000" d="M564 -782Q586 -782 590 -781Q607 -775 610 -775Q624 -763 625 -749Q629 -746 628 -736Q628 -730 629 -726Q632 -721 632 -696Q627 -686 630 -680Q625 -641 621 -629Q619 -613 621 -598Q624 -593 619 -583Q615 -576 616 -571Q617 -569 618 -562Q619 -554 623 -550Q648 -549 660 -554Q667 -553 674 -552Q683 -553 687 -545Q691 -537 694 -530Q703 -515 696 -511Q686 -512 678 -506Q662 -506 651 -501Q642 -497 632 -496Q622 -494 615 -486Q609 -470 606 -451Q606 -431 605 -419Q598 -401 607 -392Q608 -393 635 -398Q653 -404 671 -410Q675 -412 678 -419Q680 -425 682 -426Q689 -425 694 -432Q700 -443 711 -452Q721 -461 753 -498Q754 -503 758 -506Q763 -510 766 -514Q766 -523 775 -528Q777 -541 782 -549Q785 -556 791 -553Q797 -551 802 -548Q809 -547 815 -547Q834 -547 844 -531Q846 -518 838 -509Q833 -507 832 -499Q831 -492 827 -490Q811 -472 797 -452Q793 -448 798 -444Q802 -441 807 -443Q819 -444 830 -445Q855 -448 878 -442Q880 -439 885 -437Q893 -434 894 -429Q894 -417 884 -414Q879 -412 880 -408Q881 -404 882 -399Q878 -395 872 -397Q867 -398 862 -398Q847 -393 833 -392Q820 -390 807 -388Q796 -384 773 -386Q762 -387 751 -383Q742 -385 736 -379Q731 -377 727 -372Q723 -366 717 -364Q714 -361 706 -355Q697 -349 694 -343Q668 -319 642 -298Q629 -284 613 -273Q611 -265 618 -263Q625 -261 631 -265Q641 -266 655 -274Q668 -282 673 -283Q707 -298 738 -301Q745 -303 780 -300Q808 -292 818 -273Q829 -263 834 -247Q833 -243 837 -237Q842 -230 841 -225Q838 -217 845 -207Q848 -197 840 -180Q838 -168 840 -155Q838 -136 836 -117Q835 -107 834 -97Q835 -92 833 -83Q830 -73 832 -67Q830 -56 831 -43Q824 -33 823 -29Q820 -19 817 -9Q817 -5 807 5Q803 10 797 16Q791 22 784 18Q777 16 767 8Q755 -2 749 -2Q744 -5 735 1Q730 5 725 5Q722 2 713 0Q676 1 639 1Q635 -2 627 2Q618 9 609 2Q583 -12 578 -16Q571 -19 568 -24Q564 -29 561 -34Q545 -46 543 -54Q540 -66 542 -76Q547 -81 547 -89Q546 -96 548 -102Q551 -124 554 -147Q560 -174 566 -201Q567 -219 575 -232Q574 -238 570 -237Q564 -234 562 -229Q536 -211 515 -186Q508 -182 495 -168Q483 -154 474 -150Q468 -148 459 -139Q451 -131 446 -129Q428 -124 414 -111Q409 -108 402 -113Q397 -116 394 -116Q381 -118 370 -123Q366 -130 372 -133Q378 -136 383 -139Q385 -145 393 -148Q401 -151 403 -154Q402 -162 408 -166Q414 -169 420 -172Q427 -172 431 -177Q435 -182 439 -187Q450 -197 461 -208Q478 -231 493 -240Q500 -253 516 -260Q534 -281 557 -299Q574 -315 590 -332Q601 -339 602 -348Q595 -352 591 -347Q586 -343 582 -341Q576 -338 561 -337Q544 -335 537 -331Q521 -328 505 -326Q487 -324 471 -317Q459 -320 440 -307Q415 -304 395 -310Q388 -311 379 -314Q368 -318 362 -318Q350 -318 343 -322Q342 -335 364 -333Q378 -336 401 -340Q426 -345 450 -351Q474 -357 498 -363Q510 -367 522 -369Q535 -371 545 -379Q547 -398 549 -418Q553 -436 554 -445Q553 -453 555 -463Q556 -473 547 -475Q527 -480 506 -486Q486 -491 468 -499Q469 -505 474 -505Q479 -506 484 -506Q518 -519 554 -528Q559 -527 566 -537Q565 -555 568 -575Q565 -589 567 -600Q563 -614 570 -621L571 -653Q572 -662 566 -672Q571 -682 570 -691Q569 -698 569 -710Q569 -726 566 -733Q563 -739 559 -745Q556 -752 549 -752Q537 -749 532 -759Q527 -761 528 -766Q529 -771 534 -771Q545 -779 564 -782ZM244 -582L245 -581Q258 -584 264 -567Q265 -554 265 -540Q262 -536 265 -528Q268 -520 266 -516Q261 -511 262 -504Q262 -497 261 -491Q258 -482 259 -473Q259 -463 269 -462Q278 -461 287 -460Q289 -459 296 -460Q304 -461 308 -458Q316 -456 314 -437Q307 -430 304 -420Q303 -416 299 -417Q295 -417 292 -417Q280 -414 267 -412Q258 -409 254 -392Q250 -380 250 -366Q250 -351 249 -336Q246 -330 244 -314Q243 -307 239 -299Q236 -292 240 -284Q257 -296 279 -322Q290 -334 300 -346Q300 -352 304 -356Q309 -362 314 -357Q316 -351 313 -340Q310 -329 312 -324Q314 -317 305 -313Q301 -311 302 -304Q304 -297 299 -294Q297 -291 288 -284Q281 -278 280 -272Q282 -264 273 -256Q266 -249 265 -246Q242 -218 218 -191Q216 -190 211 -183Q204 -174 199 -175Q186 -184 178 -194Q168 -204 162 -215Q148 -219 153 -228Q157 -240 165 -249Q184 -257 181 -273Q183 -304 188 -333Q189 -351 191 -367Q189 -374 190 -379Q191 -385 184 -386Q178 -387 175 -384Q163 -389 152 -389Q140 -391 125 -397Q120 -402 109 -404Q104 -404 101 -407Q99 -410 104 -412Q109 -411 118 -418Q128 -425 135 -422Q146 -426 159 -428Q187 -440 203 -442Q210 -447 210 -453Q210 -460 210 -468Q210 -484 210 -500Q209 -514 208 -529Q208 -538 208 -545Q209 -553 201 -556Q197 -559 192 -561Q187 -562 189 -567Q192 -567 197 -574Q201 -580 206 -580Q219 -576 244 -582ZM752 -262L715 -255Q705 -251 695 -248Q685 -250 676 -243L669 -239Q668 -238 666 -237Q650 -231 636 -235Q631 -239 627 -236Q623 -233 623 -227Q613 -208 614 -184Q613 -178 612 -170Q611 -162 619 -158Q622 -159 643 -162Q652 -166 672 -162Q686 -164 701 -160Q706 -158 712 -157Q719 -157 722 -151Q722 -146 727 -145Q732 -143 734 -138Q727 -121 718 -120Q699 -125 679 -130Q654 -132 633 -141Q622 -143 614 -140Q608 -122 608 -101Q604 -88 608 -73Q606 -68 608 -60Q610 -52 609 -48Q605 -40 614 -36Q624 -36 633 -36Q652 -37 670 -39Q686 -41 704 -41Q708 -44 717 -41Q725 -38 730 -40Q740 -40 750 -40Q755 -43 763 -46Q770 -48 770 -56Q776 -76 779 -94Q781 -114 785 -132Q786 -169 786 -207Q785 -230 777 -248Q769 -266 752 -262Z"/>
</svg>