<svg xmlns="http://www.w3.org/2000/svg" viewBox="0 -800 1024 1024">
	<path fill="#000000" d="M659 -719H662Q672 -722 682 -713Q689 -710 686 -704Q684 -699 684 -693Q685 -687 677 -685Q669 -683 668 -679Q666 -673 655 -674Q646 -675 643 -671Q630 -668 616 -665Q614 -664 612 -664L604 -662Q601 -662 600 -661Q591 -659 582 -658Q575 -657 568 -655Q560 -653 560 -645Q573 -630 564 -611Q560 -600 551 -591Q550 -581 540 -575Q536 -569 541 -566Q549 -563 555 -568L579 -576Q598 -586 654 -601Q685 -605 701 -598Q710 -589 719 -580Q720 -572 730 -562Q729 -556 731 -550Q738 -536 740 -520Q740 -517 739 -514L737 -501Q737 -497 736 -495Q734 -476 735 -458Q736 -454 733 -446Q730 -439 731 -433Q733 -429 730 -422Q726 -413 728 -409Q733 -403 725 -388Q722 -386 723 -379Q724 -373 723 -371Q724 -364 714 -336Q716 -329 714 -314Q704 -304 708 -296Q705 -282 701 -268Q693 -241 675 -232Q670 -233 667 -230Q665 -227 662 -224Q658 -221 654 -223Q650 -225 647 -225Q626 -227 622 -205Q613 -207 608 -200Q597 -177 583 -166Q574 -159 557 -140Q535 -117 512 -94Q505 -92 498 -84Q490 -76 486 -74Q466 -66 471 -56Q478 -55 486 -59Q494 -59 502 -59Q531 -59 541 -56Q548 -56 560 -52Q572 -47 580 -48Q591 -50 604 -44Q624 -43 643 -47Q647 -48 651 -56Q655 -64 660 -63Q667 -62 669 -67Q671 -72 674 -77Q682 -88 687 -97Q699 -110 717 -150Q721 -157 714 -164Q708 -170 701 -170Q683 -177 664 -181Q645 -185 630 -196Q626 -198 626 -201Q626 -205 631 -204Q640 -210 652 -210Q664 -210 677 -205Q696 -205 715 -200Q732 -197 749 -185Q767 -172 767 -156Q763 -131 746 -102Q734 -87 721 -73Q720 -69 713 -62Q705 -53 705 -46Q704 -39 714 -35Q725 -30 738 -27Q747 -25 756 -24Q758 -19 769 -18Q777 -17 781 -13Q797 -11 802 -7Q819 -2 837 5Q859 15 870 22Q884 24 891 40Q891 46 891 53Q891 60 885 63Q871 67 866 67Q860 62 848 66Q834 61 808 49Q792 43 778 35Q761 29 746 25Q733 17 722 17Q710 10 697 9Q692 6 679 4Q669 2 663 -1Q644 -3 633 2Q622 7 611 11Q604 17 596 9Q591 4 582 13Q568 13 557 19Q553 22 545 22Q537 22 538 15Q551 6 566 0Q575 -4 584 -9Q583 -19 566 -19Q557 -22 537 -27Q517 -31 496 -36Q486 -40 476 -44Q459 -45 445 -48Q443 -47 440 -46L429 -42Q427 -41 424 -40Q419 -36 413 -39Q407 -41 410 -47Q413 -51 410 -59Q408 -63 409 -67Q414 -72 421 -74Q424 -79 435 -82Q441 -84 444 -86Q448 -91 489 -135Q501 -145 514 -163Q515 -169 520 -171Q524 -173 529 -175Q535 -185 540 -196Q543 -199 546 -202L557 -215Q560 -218 563 -221Q563 -224 568 -230Q575 -238 571 -242Q568 -244 559 -241Q552 -239 547 -241Q544 -244 536 -241Q530 -239 526 -241Q520 -243 517 -239Q513 -234 510 -230Q507 -225 502 -226Q496 -227 494 -232Q485 -235 480 -242Q476 -249 472 -255Q471 -261 462 -263Q455 -265 453 -268Q456 -279 458 -290Q456 -332 467 -392Q470 -406 472 -421Q474 -437 478 -452L479 -488Q481 -500 483 -513Q484 -516 484 -521L487 -538Q488 -542 488 -546Q488 -561 492 -574Q507 -596 517 -618Q517 -622 521 -628Q525 -635 524 -638Q523 -644 518 -643Q515 -643 511 -639Q499 -640 486 -633Q468 -626 450 -623Q444 -622 422 -615Q415 -616 406 -613Q394 -609 388 -611Q372 -613 356 -615Q339 -617 324 -624Q326 -630 333 -630Q339 -631 344 -633Q365 -641 388 -647Q410 -658 433 -661Q448 -668 501 -682Q527 -691 555 -697Q575 -703 594 -710Q602 -718 612 -715Q623 -713 632 -714Q636 -717 647 -717Q655 -717 659 -719ZM650 -558Q633 -550 615 -542Q608 -537 595 -537Q583 -537 574 -540Q566 -539 546 -547Q542 -548 538 -550Q533 -553 531 -547Q531 -530 529 -527Q533 -519 532 -509Q529 -491 525 -474Q524 -463 544 -469Q567 -470 591 -469Q600 -467 612 -465Q623 -464 630 -456Q636 -451 636 -443Q637 -436 638 -428Q634 -418 624 -421Q611 -424 599 -424Q581 -430 562 -437Q549 -441 536 -446Q525 -446 525 -425Q523 -411 520 -398Q521 -395 518 -389Q515 -383 517 -379Q518 -373 524 -373Q530 -373 535 -373Q558 -377 583 -376Q603 -369 622 -353Q619 -347 611 -344Q604 -342 597 -339Q563 -342 531 -350Q526 -350 522 -352Q518 -354 516 -349Q515 -340 512 -331Q509 -322 512 -312Q509 -300 510 -290Q511 -285 509 -280Q506 -272 509 -269Q512 -260 528 -268Q536 -272 556 -276Q572 -286 582 -286Q593 -291 614 -289Q627 -289 640 -287Q647 -287 648 -292Q650 -299 651 -304Q658 -314 658 -328Q662 -341 669 -391Q671 -422 677 -450Q676 -476 677 -500Q678 -525 671 -547Q671 -555 664 -558Q657 -561 650 -558ZM130 -465Q149 -456 155 -450Q162 -446 168 -449Q174 -453 181 -455Q213 -465 217 -465Q249 -467 279 -457Q286 -449 289 -439Q285 -436 286 -430Q287 -425 285 -423Q280 -401 269 -384Q260 -376 250 -368Q244 -367 245 -358Q246 -352 249 -346Q258 -331 248 -320Q241 -312 225 -308Q222 -309 190 -306Q181 -301 168 -307Q160 -310 152 -313Q147 -313 147 -306Q148 -298 142 -295Q135 -292 131 -287Q113 -303 96 -320Q70 -339 79 -373Q80 -391 90 -405Q99 -419 107 -434Q114 -438 120 -451Q125 -461 130 -465ZM159 -429Q155 -425 156 -420Q157 -414 156 -409Q150 -403 148 -386Q147 -368 145 -351Q144 -344 149 -344Q155 -345 161 -346Q169 -350 198 -352Q204 -359 208 -375Q212 -389 216 -394Q227 -423 211 -421Q200 -423 188 -425Q182 -423 173 -427Q164 -430 159 -429Z"/>
</svg>