<svg xmlns="http://www.w3.org/2000/svg" viewBox="0 -800 1024 1024">
	<path fill="#000000" d="M585 -727Q596 -726 605 -719Q614 -718 623 -712Q635 -700 637 -683Q631 -674 618 -666Q607 -659 605 -657Q598 -652 591 -647Q584 -635 573 -626Q570 -628 567 -624Q565 -621 565 -617Q581 -601 583 -598Q589 -593 589 -584Q588 -576 589 -568Q592 -562 592 -549Q592 -536 595 -530Q598 -514 592 -499Q591 -493 597 -492Q602 -491 606 -494Q615 -493 627 -497Q638 -501 642 -501Q646 -498 653 -500Q661 -502 663 -501Q667 -495 676 -499Q678 -496 684 -499Q691 -502 695 -499Q702 -502 704 -495Q705 -492 705 -482Q708 -478 704 -467Q692 -470 686 -461Q680 -454 669 -452Q665 -453 657 -451Q650 -449 647 -451Q643 -447 634 -448Q617 -452 597 -455Q593 -458 589 -453Q585 -448 587 -444Q587 -427 583 -411Q584 -408 581 -403Q579 -398 581 -395Q580 -382 583 -370Q585 -365 580 -359Q575 -351 577 -347Q578 -337 579 -326Q580 -315 573 -307Q568 -304 568 -295Q568 -286 574 -286Q594 -288 614 -290Q615 -290 616 -290Q619 -294 619 -297Q620 -297 621 -295Q626 -288 632 -291Q638 -295 644 -297Q646 -296 658 -296Q667 -297 685 -297Q689 -295 717 -290Q718 -286 722 -283Q728 -278 727 -273Q731 -257 713 -252Q701 -243 688 -250Q684 -246 674 -247Q665 -247 662 -245Q654 -248 645 -245Q626 -240 608 -246Q605 -244 592 -244Q581 -242 573 -245Q571 -249 569 -248Q566 -244 563 -241Q560 -243 552 -242Q542 -241 538 -245Q533 -241 522 -244Q511 -247 507 -244Q504 -246 497 -246Q489 -246 485 -250Q481 -249 475 -253Q470 -256 468 -255Q464 -254 461 -259Q458 -265 454 -263Q452 -265 445 -268Q435 -272 433 -277Q402 -297 405 -334Q411 -367 420 -397Q434 -419 441 -440Q440 -446 444 -447Q447 -448 451 -446Q464 -438 470 -432Q478 -423 475 -413Q471 -402 473 -394Q470 -389 470 -373Q463 -369 464 -356Q465 -346 462 -342Q452 -311 463 -292Q478 -283 496 -283Q526 -285 555 -287Q562 -286 562 -290Q563 -294 557 -296Q556 -300 550 -302Q546 -304 545 -305Q544 -311 534 -313Q525 -315 523 -321Q515 -324 514 -333Q513 -341 519 -347Q515 -367 522 -380Q525 -395 525 -406Q526 -425 530 -440Q532 -472 534 -505Q535 -524 536 -544Q535 -558 536 -573Q536 -588 526 -597Q512 -602 506 -617Q501 -630 504 -645Q512 -657 533 -677Q558 -701 567 -717Q569 -722 585 -727ZM235 -403Q264 -399 271 -394Q276 -392 275 -390Q272 -387 269 -381Q262 -376 266 -370Q269 -363 271 -358Q273 -347 276 -340Q274 -329 273 -319Q271 -309 263 -302Q261 -292 259 -282Q255 -274 244 -249Q242 -241 233 -226Q226 -215 224 -208Q226 -203 222 -194Q218 -187 220 -182Q215 -173 223 -163Q229 -156 240 -151Q261 -140 289 -132Q305 -125 320 -119Q326 -114 333 -111Q340 -107 343 -100Q352 -97 347 -89Q342 -81 335 -84Q331 -86 329 -84Q323 -76 319 -79Q314 -84 311 -81Q308 -74 305 -70Q304 -63 312 -61Q319 -59 325 -61Q330 -63 336 -58Q341 -54 343 -58Q358 -60 383 -54Q402 -54 420 -52Q425 -53 428 -49Q431 -44 432 -44Q435 -50 440 -49Q445 -49 450 -49Q454 -46 463 -47Q474 -48 478 -43Q481 -49 488 -48Q495 -47 501 -48Q504 -48 507 -42Q510 -37 510 -42Q513 -53 517 -38Q522 -35 523 -38Q524 -41 525 -44Q526 -46 530 -44Q551 -41 571 -39Q585 -41 589 -31Q592 -37 597 -37Q599 -37 614 -31Q621 -38 634 -32Q637 -35 640 -30Q643 -25 645 -27Q647 -33 653 -31Q658 -30 663 -30Q664 -28 670 -29Q675 -30 677 -25Q684 -30 699 -25Q707 -22 716 -22Q719 -27 726 -23Q731 -20 734 -21Q749 -21 763 -21Q774 -20 784 -20Q803 -19 822 -19Q839 -16 855 -16Q890 -21 925 -23Q927 -20 922 -16Q916 -11 918 -6L903 9Q898 7 895 10Q892 13 893 18Q885 21 877 24Q871 30 867 28Q864 34 859 35Q854 36 850 38Q832 43 812 45Q806 43 800 43Q793 43 790 38Q792 35 790 33Q785 32 783 38Q783 42 778 41Q772 40 768 41Q747 39 746 38Q739 38 736 32Q734 31 732 34Q728 40 723 37Q714 41 707 33Q707 29 705 29Q700 28 700 34Q697 38 695 36Q691 28 684 32Q679 35 675 28Q671 21 666 22Q660 16 656 24Q643 24 640 25Q629 21 618 23Q605 21 591 19Q588 20 583 17Q578 13 574 14Q569 18 560 15Q558 17 553 14Q549 11 547 14Q543 11 533 12Q524 13 519 8Q516 11 513 6Q509 0 507 4Q505 6 504 6Q500 3 497 -4Q495 -4 493 -1Q491 -2 490 1Q488 4 488 3Q478 2 468 1L442 -3Q439 -2 432 -4Q426 -6 421 -5Q415 -10 407 -5Q398 -9 390 -8Q324 -20 320 -20Q294 -23 267 -27Q253 -33 249 -24Q241 -23 233 -29Q224 -26 221 -33Q217 -32 217 -35Q217 -41 214 -46Q210 -49 211 -56Q212 -62 208 -64Q209 -70 204 -70Q198 -71 198 -76Q202 -83 208 -83Q214 -83 220 -83Q223 -77 229 -77Q235 -77 241 -76Q242 -73 242 -68Q243 -63 249 -62Q256 -61 262 -67Q267 -73 271 -80Q273 -86 277 -91Q280 -96 276 -101Q272 -101 268 -107Q266 -111 263 -111Q259 -107 252 -110Q251 -115 244 -115Q237 -116 235 -119Q224 -124 212 -133Q191 -151 188 -166Q180 -181 187 -216Q199 -255 210 -296Q218 -317 226 -338Q227 -345 226 -354Q226 -363 215 -362Q212 -367 202 -367Q193 -367 190 -370Q185 -373 179 -374Q172 -376 173 -382Q182 -393 205 -397Q211 -402 219 -401Q228 -401 235 -403ZM297 -71Q290 -71 289 -68Q286 -71 282 -69Q278 -67 279 -62Q287 -60 296 -61Q302 -60 303 -65Q303 -66 303 -67Q302 -72 297 -71Z"/>
</svg>