<svg xmlns="http://www.w3.org/2000/svg" viewBox="0 -800 1024 1024">
	<path fill="#000000" d="M424 -711L436 -710Q451 -703 475 -698Q483 -704 494 -698Q505 -701 514 -695Q523 -689 533 -684Q534 -674 527 -659Q521 -645 520 -639Q515 -635 514 -622Q512 -606 504 -602Q507 -597 504 -587Q502 -580 503 -577Q517 -572 534 -576Q560 -577 581 -581Q585 -580 596 -581Q609 -582 614 -577Q630 -577 640 -555Q639 -551 643 -546Q648 -540 645 -537Q642 -534 642 -523Q642 -510 635 -509Q632 -505 623 -504Q614 -503 611 -500Q604 -495 582 -490Q568 -487 559 -482Q552 -483 541 -478Q529 -473 523 -473Q511 -469 499 -468Q486 -467 478 -457Q479 -451 472 -444Q464 -437 465 -431Q460 -424 456 -408Q453 -406 450 -397Q448 -388 443 -386Q440 -382 439 -373Q438 -364 436 -360Q438 -347 433 -335Q427 -324 423 -312Q421 -307 418 -299Q415 -291 424 -290Q463 -304 492 -318Q518 -330 550 -337Q572 -347 599 -353Q622 -355 644 -351Q661 -349 677 -340Q685 -339 687 -333Q690 -328 694 -324Q697 -311 700 -298Q700 -294 698 -288L695 -267Q694 -262 693 -257L681 -230Q682 -219 678 -210Q674 -201 670 -192Q658 -188 655 -177Q652 -165 646 -155Q632 -149 629 -133Q622 -130 618 -125Q614 -120 611 -115Q602 -106 578 -76Q580 -71 585 -72Q590 -73 594 -72L646 -75Q654 -73 665 -78Q676 -82 681 -81Q684 -79 690 -79Q697 -79 700 -76Q710 -79 740 -74Q750 -76 766 -72Q775 -71 780 -65Q784 -59 788 -53Q791 -55 792 -49Q790 -46 791 -39Q792 -31 788 -30Q786 -29 782 -23Q778 -17 773 -15Q758 -15 743 -15Q722 -15 701 -14Q674 -14 646 -14Q637 -12 591 -12Q569 -10 532 -10Q485 -10 468 -8Q443 -9 417 -10Q396 -5 358 -20Q348 -23 337 -28Q326 -32 322 -43Q319 -48 322 -50Q325 -52 329 -47Q350 -47 372 -54Q400 -57 427 -61Q449 -62 495 -68Q529 -98 550 -130Q562 -149 574 -169Q582 -183 594 -214Q594 -231 608 -250Q614 -267 612 -283Q599 -286 572 -277Q559 -274 546 -273Q534 -265 500 -261Q482 -258 461 -263Q446 -268 416 -276Q406 -274 403 -264Q399 -254 394 -246Q395 -239 390 -228Q385 -218 385 -214Q381 -211 377 -202Q373 -193 369 -191Q369 -188 366 -184Q362 -179 366 -175Q358 -158 351 -140Q347 -130 342 -120Q339 -117 338 -112Q337 -104 335 -102Q328 -84 318 -65Q313 -63 309 -55Q306 -48 304 -46Q297 -45 297 -40Q296 -35 298 -30Q290 -17 284 -3Q274 3 274 14Q269 18 265 26Q259 37 255 40Q251 38 246 38Q241 38 239 33Q237 30 231 30Q223 30 223 24Q217 19 215 -2Q211 -7 212 -13Q213 -20 220 -21Q220 -34 225 -46Q234 -48 237 -55Q241 -62 245 -68Q245 -75 253 -85Q260 -94 261 -99Q273 -122 284 -146Q285 -152 292 -163Q300 -173 300 -180Q306 -197 311 -215Q317 -230 322 -245Q326 -247 326 -254Q326 -261 329 -263Q328 -270 332 -274Q336 -279 338 -285Q336 -292 342 -301Q347 -309 347 -314Q355 -327 359 -341Q360 -349 367 -363Q374 -376 375 -384Q386 -400 387 -417Q387 -424 390 -431Q393 -438 387 -443Q377 -440 366 -440Q345 -442 324 -444Q310 -449 296 -451Q264 -445 255 -464Q256 -467 263 -465Q270 -466 277 -465Q281 -466 280 -472Q293 -472 317 -482Q338 -492 361 -499Q382 -509 403 -519Q412 -521 415 -528Q418 -535 421 -541Q420 -547 424 -556Q428 -565 426 -570Q424 -585 432 -616Q433 -630 437 -639Q435 -642 435 -650L438 -658Q438 -666 436 -669Q434 -672 428 -675Q419 -679 417 -684Q419 -691 418 -699Q417 -708 424 -711Z"/>
</svg>