<svg xmlns="http://www.w3.org/2000/svg" viewBox="0 -800 1024 1024">
	<path fill="#000000" d="M596 -675Q600 -675 603 -675Q611 -673 620 -671Q629 -669 635 -661Q642 -656 646 -646Q651 -633 646 -622Q653 -609 641 -599Q636 -578 631 -558Q628 -556 629 -552Q630 -548 635 -548Q651 -553 672 -550Q687 -552 701 -549Q708 -550 717 -544Q725 -539 728 -539Q741 -524 743 -507Q748 -491 739 -471Q732 -456 724 -442Q724 -437 718 -430Q712 -422 712 -417Q703 -405 693 -394Q686 -393 684 -387Q683 -380 681 -376Q682 -370 689 -371Q696 -372 701 -373Q704 -376 716 -378Q727 -380 732 -385Q742 -387 752 -385Q772 -390 788 -391Q796 -387 823 -389Q820 -382 825 -379Q822 -373 829 -370Q836 -367 841 -371Q848 -372 848 -367Q849 -361 848 -354Q839 -345 830 -344Q826 -347 824 -343Q822 -340 819 -339Q801 -338 765 -330Q746 -329 723 -320Q698 -318 692 -311Q692 -307 687 -308Q681 -310 679 -304Q678 -287 656 -281Q652 -280 643 -270Q636 -262 631 -260Q603 -228 588 -193Q590 -182 581 -166Q581 -158 576 -142Q571 -129 572 -120Q566 -110 566 -89Q566 -73 564 -66Q568 -62 565 -55Q562 -47 566 -44Q566 -35 566 -27Q568 -17 558 -17Q555 -10 549 -12Q544 -13 540 -19Q528 -23 521 -32Q509 -36 507 -53Q502 -61 503 -69Q505 -77 507 -84Q503 -100 507 -115Q512 -130 516 -144Q518 -160 528 -172Q538 -184 546 -196Q551 -209 577 -254Q595 -272 615 -289Q616 -289 618.5 -289Q621 -289 620 -296Q618 -305 615 -297Q610 -294 599 -294Q590 -294 584 -291Q527 -278 470 -265Q455 -262 442 -261Q422 -261 417 -264Q414 -264 410 -266Q405 -269 402 -266Q389 -268 378 -274Q372 -272 368 -276Q364 -280 369 -284Q371 -292 393 -294Q409 -296 425 -302Q451 -304 487 -313Q493 -315 501 -317Q509 -318 511 -325Q505 -340 505 -356Q504 -366 510 -374Q509 -379 514 -388Q517 -389 518 -397Q519 -404 522 -407Q524 -418 535 -440Q540 -450 540 -464Q532 -468 522 -466Q511 -465 504 -466Q482 -464 481 -476Q484 -482 496 -487Q508 -491 512 -497Q526 -504 539 -504Q545 -508 553 -512Q560 -516 563 -526Q566 -536 568 -549Q575 -580 584 -601Q585 -609 588 -617Q591 -625 582 -628Q565 -627 549 -631Q544 -634 530 -633Q514 -632 508 -639Q512 -648 523 -653Q534 -657 542 -661Q557 -666 571 -671Q582 -676 596 -675ZM674 -504L659 -502Q638 -492 617 -483Q609 -482 605 -475Q603 -472 600 -461Q596 -448 591 -436Q583 -417 580 -394Q570 -376 566 -357Q558 -341 557 -334Q560 -332 576 -337Q588 -338 598 -352Q612 -372 615 -375Q625 -393 640 -410Q670 -463 678 -489Q681 -494 681 -501Q680 -506 674 -504ZM305 -470Q323 -469 340 -469Q349 -458 362 -449Q378 -434 367 -415Q364 -400 361 -385Q350 -352 331 -320Q324 -316 328 -306Q331 -297 329 -294Q330 -290 324 -287Q319 -285 318 -283Q299 -280 280 -277Q257 -272 208 -278Q198 -278 198 -267Q199 -257 199 -249Q199 -234 195 -220Q196 -211 189 -209Q182 -208 176 -213Q159 -221 146 -249Q140 -253 139 -260Q138 -267 136 -274L141 -309Q140 -312 142 -317Q144 -323 142 -326Q143 -346 144 -366Q148 -380 147 -395Q148 -411 146 -428Q140 -438 133 -449Q127 -456 138 -458Q169 -454 179 -443Q183 -441 188 -436Q192 -432 196 -436Q233 -449 269 -462Q287 -466 305 -470ZM200 -415Q198 -411 200 -407Q203 -404 204 -400Q207 -395 207 -371L204 -346Q202 -326 205 -310Q225 -313 244 -317Q251 -319 259 -319Q267 -320 269 -328Q281 -353 292 -379Q292 -388 295 -397Q297 -406 291 -412Q271 -412 253 -406Q243 -401 232 -410Q227 -410 218 -413Q206 -417 200 -415ZM820 -282L847 -277Q856 -277 862 -271Q868 -264 874 -259Q883 -256 887 -243Q889 -237 891 -221Q895 -217 893 -208L892 -201Q891 -199 891 -194Q890 -190 882 -185Q875 -180 874 -175Q869 -169 869 -157Q861 -144 860 -135Q852 -129 845 -116Q839 -104 835 -100Q835 -89 823 -82Q817 -68 807 -58Q804 -48 810 -47Q817 -45 824 -44Q838 -42 851 -40Q865 -41 872 -26Q872 -22 878 -16Q885 -9 882 -4Q876 8 871 7Q845 12 796 2Q775 -1 754 -4Q743 -2 734 -4Q724 -6 714 -7Q703 -10 691 -14Q679 -15 669 -22Q665 -31 677 -33Q692 -32 707 -39Q720 -41 734 -42Q748 -43 751 -58Q777 -112 804 -159Q808 -175 815 -190Q813 -195 816 -208Q818 -220 816 -227Q812 -230 806 -230Q802 -230 778 -221Q775 -222 769 -219Q764 -217 761 -219Q734 -206 705 -202Q689 -197 675 -198Q653 -201 630 -205Q626 -205 626 -207Q625 -212 631 -213Q643 -219 651 -226Q677 -240 706 -249Q725 -257 743 -265Q761 -274 779 -278Q782 -277 789 -280Q798 -284 802 -278Z"/>
</svg>