<svg xmlns="http://www.w3.org/2000/svg" viewBox="0 -800 1024 1024">
	<path fill="#000000" d="M522 -86Q518 -84 518 -75Q518 -68 516 -65Q516 -58 513 -51Q508 -41 504 -12Q502 -5 505 1Q510 -2 524 -19L543 -42Q548 -47 565 -72Q559 -78 548 -79Q545 -79 537 -83Q528 -88 522 -86ZM530 -311Q544 -311 548 -306Q561 -307 573 -309Q583 -310 589 -310Q594 -311 594 -307Q595 -303 597 -301Q588 -288 580 -286Q580 -281 575 -279Q569 -278 564 -277Q547 -272 530 -267L502 -235Q496 -232 491 -225Q485 -217 482 -216Q474 -202 465 -189Q471 -187 480 -191Q505 -197 529 -207Q538 -210 547 -213Q552 -211 555 -214Q558 -218 562 -219Q563 -212 570 -209Q572 -210 573 -210Q577 -205 580 -209Q602 -204 598 -191Q595 -188 595 -182Q594 -177 589 -176L573 -162Q562 -152 551 -143Q548 -142 543 -137Q536 -129 532 -132Q524 -128 524 -109Q537 -101 544 -111Q549 -117 559 -124Q570 -127 580 -137Q585 -144 598 -157Q605 -153 608 -158Q608 -163 611 -168Q613 -174 620 -172Q621 -168 623 -169Q628 -173 623 -177Q623 -183 628 -188Q633 -193 633 -197Q635 -198 658 -227Q661 -228 664 -235Q667 -242 671 -242Q675 -247 681 -259Q682 -263 687 -264Q693 -266 694 -268Q697 -266 699 -268Q702 -270 701 -275Q706 -277 714 -269Q721 -262 726 -262Q729 -266 737 -262Q751 -264 753 -253Q747 -233 727 -219Q721 -217 719 -213Q717 -209 714 -206Q705 -203 698 -195Q692 -187 685 -181Q675 -162 658 -153Q650 -137 633 -130Q625 -124 617 -118Q609 -113 605 -104Q608 -100 619 -100Q628 -100 633 -98Q663 -96 691 -89Q693 -88 699 -88Q708 -88 710 -84Q729 -81 731 -79Q737 -70 749 -68Q751 -65 762 -62Q771 -59 772 -52Q770 -47 774 -42Q777 -38 777 -35Q770 -31 766 -23Q764 -19 759 -19Q754 -18 750 -18Q728 -20 721 -25Q719 -25 715 -29Q711 -33 707 -32Q701 -35 694 -38Q679 -43 665 -49Q656 -54 646 -57Q629 -62 623 -62Q609 -65 595 -69Q591 -72 587 -71Q583 -70 581 -71Q579 -70 578 -66Q577 -61 575 -60Q569 -54 565 -42Q562 -32 558 -28Q558 -25 553 -20Q549 -16 548 -12Q541 -1 534 9Q534 11 522 28Q521 34 512 45Q512 59 496 62Q495 68 488 69Q482 70 477 66Q465 56 466 47Q461 38 455 28Q456 11 457 -7Q461 -30 465 -54Q465 -57 467 -63Q469 -68 464 -69Q450 -59 435 -50Q431 -49 428 -43Q425 -38 422 -36Q417 -34 411 -26Q404 -16 398 -13Q395 -9 382 -9Q376 -9 373 -5Q369 6 364 -4Q365 -7 362 -12Q360 -15 360 -19Q356 -25 359 -35Q365 -39 370 -43Q380 -48 389 -58Q392 -60 412 -73Q428 -88 445 -102Q462 -116 475 -132Q480 -139 482 -140Q483 -143 492 -155Q482 -155 471 -148Q460 -145 448 -143Q444 -146 440 -140Q437 -135 435 -139Q432 -138 430 -142Q428 -147 427 -148Q423 -146 420 -149Q418 -151 418 -157Q406 -165 412 -173Q411 -182 419 -185Q422 -184 424 -188Q427 -194 428 -195Q426 -204 433 -209Q441 -214 446 -220Q447 -225 448 -231Q450 -236 446 -241Q401 -230 392 -230Q382 -228 374 -231Q365 -235 358 -239Q345 -248 349 -252Q372 -253 394 -257Q399 -260 411 -263Q423 -265 428 -269Q437 -273 449 -276Q456 -278 462 -283Q466 -284 469 -286Q472 -288 475 -285Q486 -282 496 -294Q507 -296 513 -299Q522 -305 530 -311ZM479 -485Q460 -480 459 -479Q449 -479 452 -458Q459 -441 451 -413Q450 -396 446 -381Q447 -377 443 -370Q440 -364 442 -360Q462 -364 467 -367Q477 -365 479 -374Q481 -384 485 -393Q484 -397 487 -401Q489 -403 491 -400Q498 -404 494 -412Q501 -437 506 -462Q510 -470 502 -477Q499 -479 488 -485Q485 -484 483 -486Q481 -487 479 -485ZM594 -515H585Q535 -505 510 -496Q501 -495 494 -493Q490 -492 491 -490Q495 -487 503 -485Q512 -480 522 -476Q533 -472 539 -462Q546 -458 546 -449Q545 -447 545 -443V-440Q545 -436 544 -434Q545 -421 534 -389Q531 -385 533 -383Q536 -381 538 -379Q538 -372 542 -373Q549 -374 556 -379Q557 -380 558 -379Q560 -374 564 -376Q565 -377 573 -378Q578 -379 577 -383Q583 -399 590 -405Q602 -419 629 -446Q656 -477 659 -499Q658 -503 651 -508Q646 -512 645 -513Q640 -508 632 -514Q611 -518 594 -515ZM614 -551Q620 -551 626 -551Q637 -553 643 -548Q647 -551 654 -549L663 -559Q665 -564 681 -577Q686 -591 695 -598Q701 -602 709 -616Q723 -632 725 -642Q731 -650 718 -658Q709 -659 700 -660Q690 -664 679 -662Q669 -660 658 -660Q633 -656 607 -653Q590 -651 572 -647Q567 -647 557 -645L530 -640Q523 -639 515 -638Q502 -637 488 -633Q478 -632 467 -629Q459 -629 443 -625Q402 -619 347 -599Q331 -594 314 -590Q300 -582 288 -572Q277 -566 265 -561Q262 -555 250 -550Q242 -547 238 -543Q230 -543 222 -543Q208 -545 200 -532L187 -535Q181 -548 175 -562Q160 -592 173 -610Q178 -634 196 -655Q216 -679 238 -687Q243 -695 250 -697Q257 -699 263 -704Q280 -698 277 -688Q278 -681 274 -665Q263 -655 255 -643Q250 -628 242 -615Q236 -604 229 -593Q226 -589 225 -585Q224 -580 229 -580Q272 -604 319 -621Q350 -631 381 -638Q401 -645 420 -652Q455 -659 475 -666Q519 -678 523 -679Q630 -697 670 -700Q679 -702 695 -702Q723 -700 749 -690Q758 -686 766 -679Q774 -673 781 -665Q784 -658 782 -649Q786 -645 786 -636Q786 -629 788 -625Q793 -620 789 -616Q785 -612 783 -607Q777 -604 769 -592Q764 -585 760 -581Q758 -577 753 -578Q747 -578 747 -574Q736 -563 725 -552Q724 -548 718 -546Q713 -544 711 -542Q707 -541 703 -536Q697 -529 692 -529H686L690 -528Q691 -522 696 -520Q701 -517 704 -516Q698 -507 707 -490Q706 -471 698 -459Q696 -452 688 -446Q681 -438 674 -429Q660 -406 648 -403L624 -380Q623 -375 619 -372Q615 -369 614 -367Q610 -366 606 -360Q601 -353 597 -352Q593 -347 586 -346Q580 -345 578 -343Q576 -335 559 -328Q555 -324 553 -327Q552 -333 548 -339Q544 -340 526 -338Q514 -337 504 -340Q498 -345 494 -339Q486 -346 477 -339Q448 -332 421 -330Q389 -338 385 -338Q373 -326 362 -333Q351 -334 342 -341Q334 -347 325 -353Q316 -358 306 -363Q295 -368 292 -380Q278 -407 294 -439Q294 -443 298 -450Q304 -461 302 -466Q304 -470 304 -471L310 -480Q310 -482 312 -484Q323 -494 340 -497Q345 -498 346 -494Q346 -488 345 -483Q348 -468 346 -459Q346 -450 340 -435Q333 -417 334 -406Q334 -397 334 -388Q338 -382 338 -372L358 -364Q361 -358 366 -357Q371 -356 376 -355Q388 -355 396 -350Q413 -353 430 -356Q437 -362 427 -367Q428 -372 424 -376Q420 -381 420 -385Q415 -388 412 -394Q416 -416 420 -420Q421 -435 424 -447Q430 -463 431 -466Q428 -472 421 -467Q414 -463 412 -463Q399 -459 370 -463Q366 -464 360 -463Q354 -462 353 -469Q349 -472 349 -477Q350 -480 355 -480Q423 -509 469 -520Q508 -536 558 -544Q564 -546 614 -551ZM416 -776H417Q432 -776 449 -773Q457 -775 467 -772Q477 -770 487 -768Q492 -768 494 -764Q497 -759 501 -756Q516 -758 518 -744Q514 -735 518 -724Q517 -720 515 -717Q512 -713 508 -716Q505 -719 500 -714Q497 -710 494 -711Q488 -722 477 -722Q467 -726 456 -730Q445 -734 434 -738Q407 -745 385 -759Q379 -763 374 -768Q372 -771 377 -773Q397 -771 416 -776Z"/>
</svg>