<svg xmlns="http://www.w3.org/2000/svg" viewBox="0 -800 1024 1024">
	<path fill="#000000" d="M590 -712Q602 -712 614 -706Q618 -705 624 -708Q632 -711 636 -710Q646 -705 656 -693Q657 -681 663 -669Q658 -619 656 -611Q654 -609 652 -592Q654 -575 649 -567Q645 -557 646 -544Q641 -539 642 -529Q643 -520 652 -521Q677 -531 703 -537Q710 -543 719 -538Q730 -545 741 -543Q744 -543 747 -543L758 -542Q761 -542 764 -542Q766 -540 766 -533Q765 -524 769 -521Q772 -518 766 -508Q765 -502 759 -501Q754 -500 749 -499Q737 -494 725 -493Q711 -489 699 -483Q690 -483 684 -479Q678 -477 676 -476L658 -469Q656 -468 650 -466Q637 -464 633 -442Q625 -424 623 -400Q619 -388 618 -375Q621 -367 629 -369Q637 -370 645 -370Q658 -370 665 -368Q682 -368 697 -361Q724 -351 737 -336Q742 -334 748 -322Q753 -313 758 -309Q764 -303 762 -292Q774 -266 766 -245Q766 -229 760 -219Q753 -209 745 -201Q726 -175 704 -155Q701 -149 689 -141Q679 -134 675 -128Q671 -123 666 -120Q661 -117 661 -110Q676 -103 693 -101Q707 -96 720 -91Q751 -82 752 -81Q759 -82 768 -76Q777 -71 781 -70Q804 -64 826 -52Q834 -48 845 -48Q854 -37 867 -33Q872 -33 875 -28Q878 -23 882 -19Q892 -17 891 -7Q890 -3 895 -1Q904 0 903 7Q903 11 896 20Q892 22 890 31Q889 39 874 32Q845 20 818 7Q793 -4 767 -16Q741 -25 735 -26Q719 -33 703 -38Q690 -43 677 -48Q661 -52 644 -56Q627 -63 610 -67Q601 -72 592 -62Q578 -46 569 -51Q558 -55 555 -42Q551 -37 547 -40Q543 -44 539 -45Q537 -45 535 -42Q529 -37 521 -39Q512 -42 497 -39Q481 -36 474 -39Q476 -41 486 -44Q498 -52 511 -57Q535 -69 556 -86Q547 -96 535 -97Q524 -99 513 -103Q491 -109 468 -113Q446 -121 424 -121Q418 -125 404 -128Q389 -131 383 -136Q378 -140 373 -143Q367 -146 369 -152Q371 -154 381 -154Q389 -154 393 -156Q424 -160 456 -158Q484 -160 527 -147Q549 -142 556 -140Q568 -137 581 -134Q589 -131 596 -136Q602 -141 609 -146Q649 -186 660 -204Q671 -224 685 -242Q695 -258 698 -278Q696 -305 681 -316Q673 -324 663 -324Q653 -324 643 -323Q629 -325 620 -324Q612 -320 597 -330Q572 -336 563 -364Q553 -377 561 -402Q563 -406 564 -416Q565 -426 568 -430Q572 -437 567 -442Q563 -444 559 -441Q555 -439 551 -438Q539 -432 526 -433Q514 -441 505 -436Q488 -436 471 -437Q467 -439 456 -440Q443 -441 439 -446Q441 -450 451 -451Q458 -452 462 -455Q494 -466 525 -477Q551 -487 577 -497Q581 -510 580 -524Q583 -537 583 -565Q587 -574 587 -589Q588 -608 590 -614Q590 -629 590 -644Q589 -655 587 -667Q589 -678 582 -685Q575 -692 564 -690Q558 -689 558 -694Q557 -699 562 -700Q576 -706 590 -712ZM273 -444H279Q282 -443 290 -444Q299 -445 304 -443Q319 -437 334 -432Q341 -431 340 -423Q339 -416 341 -409Q346 -406 345 -401Q343 -395 342 -390Q342 -387 339 -382Q334 -375 335 -371Q319 -347 315 -344Q300 -326 283 -309Q284 -304 298 -302Q313 -306 319 -293Q316 -290 315 -283Q313 -272 308 -270Q302 -270 296 -270L272 -268Q266 -268 260 -268Q243 -269 229 -268Q218 -269 207 -270Q195 -268 185 -270Q179 -271 178 -266Q177 -262 179 -257Q180 -249 174 -246Q169 -244 163 -242Q143 -254 135 -262Q131 -268 118 -296Q112 -309 116 -324Q119 -336 121 -349Q122 -371 131 -389Q141 -408 149 -427Q151 -436 160 -436Q170 -436 175 -429Q179 -427 179 -420Q179 -411 183 -409Q193 -411 206 -418Q222 -427 229 -428Q251 -436 273 -444ZM267 -394Q264 -394 251 -389Q237 -380 223 -387Q198 -394 190 -393Q187 -395 183 -392Q179 -389 181 -386Q181 -382 183 -363Q184 -354 177 -329Q177 -323 175 -313Q171 -299 174 -292Q182 -288 204 -298Q219 -299 233 -317Q252 -337 263 -360Q270 -372 276 -385Q279 -390 275 -394Q271 -398 267 -394Z"/>
</svg>