<svg xmlns="http://www.w3.org/2000/svg" viewBox="0 -800 1024 1024">
	<path fill="#000000" d="M459 -597Q483 -589 508 -582Q533 -576 554 -559Q578 -542 572 -511Q568 -488 548 -463Q528 -433 504 -403Q479 -374 465 -340Q430 -305 396 -269Q386 -252 362 -226Q336 -198 327 -183Q317 -174 322 -170Q331 -164 340 -168Q405 -175 466 -183Q528 -192 591 -193Q602 -195 620 -194Q642 -193 653 -196Q663 -196 663 -201Q658 -214 650 -226Q640 -237 628 -256Q608 -287 595 -297Q595 -302 609 -304Q620 -306 623 -308Q660 -299 693 -286Q714 -266 737 -245Q760 -224 775 -199Q782 -182 796 -163Q810 -144 804 -124Q806 -114 799 -106Q792 -99 785 -92Q769 -91 754 -91Q738 -91 725 -101Q712 -119 689 -119Q666 -118 643 -120Q624 -118 604 -120Q537 -123 502 -122Q443 -120 402 -108Q364 -101 334 -101Q280 -101 246 -124Q236 -147 224 -173Q213 -199 235 -220Q240 -215 244 -215Q254 -215 276 -245Q290 -251 297 -264Q305 -276 315 -289Q324 -304 363 -349Q395 -386 403 -413Q464 -494 483 -543Q480 -558 464 -571Q448 -584 459 -597Z"/>
</svg>