<svg xmlns="http://www.w3.org/2000/svg" viewBox="0 -800 1024 1024">
	<path fill="#000000" d="M532 -599Q545 -589 550 -587Q562 -580 571 -559Q569 -553 570 -539Q571 -527 569 -521Q570 -518 568 -511Q566 -504 569 -500Q566 -488 567 -475Q573 -473 583 -482Q590 -489 595 -489Q614 -508 635 -520Q642 -524 651 -528Q660 -533 663 -543Q672 -544 673 -552Q675 -561 678 -567Q678 -570 679 -570Q683 -569 689 -567Q690 -565 694 -567Q698 -569 701 -568Q702 -573 715 -578Q720 -571 742 -564Q748 -565 752 -559Q757 -553 753 -547Q755 -532 748 -518Q744 -512 739 -482Q734 -473 732 -455Q727 -446 721 -438Q722 -435 719 -430Q717 -426 717 -423Q712 -421 714 -417Q715 -412 714 -409Q710 -401 716 -395Q718 -392 728 -387Q728 -383 730 -383Q733 -382 734 -382Q745 -374 755 -366Q763 -364 767 -352Q772 -348 783 -329Q786 -308 776 -305Q773 -299 766 -301Q760 -303 757 -300Q755 -296 749 -297Q743 -298 742 -294Q740 -287 729 -283Q720 -280 717 -277Q710 -278 703 -270Q695 -262 690 -262Q684 -265 682 -260Q680 -256 677 -252Q672 -241 662 -237Q652 -232 645 -225Q644 -221 642 -221Q640 -221 637 -225Q631 -232 628 -230Q637 -239 644 -253Q645 -256 653 -265Q660 -273 662 -279Q670 -295 678 -311Q680 -317 686 -325Q691 -333 682 -338Q652 -351 652 -375Q644 -402 653 -432Q653 -438 659 -452Q665 -467 664 -477Q668 -487 664 -496Q646 -484 628 -473Q618 -466 608 -460Q602 -455 575 -433Q567 -430 569 -417Q571 -405 567 -402Q564 -388 570 -372Q575 -356 564 -344Q563 -334 566 -324L564 -311Q562 -308 564 -296Q565 -289 564 -285Q564 -251 556 -235Q561 -230 556 -222Q554 -219 545 -210Q540 -202 535 -207Q531 -211 528 -216Q525 -216 523 -223Q521 -230 517 -230Q508 -239 502 -250Q500 -259 496 -269Q492 -279 496 -289Q498 -331 501 -350Q501 -355 502 -361Q504 -367 500 -369L470 -344Q449 -323 428 -305Q425 -300 417 -294Q411 -289 409 -286Q404 -283 401 -276Q396 -266 391 -263Q380 -248 368 -234Q362 -231 360 -221Q358 -212 353 -210Q345 -185 344 -184Q341 -177 336 -178Q330 -180 324 -181Q316 -187 308 -192Q300 -196 294 -205Q289 -207 287 -216Q285 -224 281 -227Q276 -254 282 -262Q292 -285 301 -311Q303 -315 299 -316Q294 -317 293 -312Q293 -309 291 -309Q287 -310 286 -313Q286 -320 281 -323Q274 -320 268 -330Q264 -338 260 -338Q249 -359 247 -362Q242 -377 241 -393Q254 -421 283 -461Q298 -474 313 -490Q328 -506 345 -515Q355 -522 365 -524Q372 -510 380 -500Q396 -482 387 -466Q379 -454 370 -442Q370 -434 365 -429Q361 -425 356 -420Q351 -406 343 -393Q346 -388 343 -376Q331 -367 341 -359Q355 -362 364 -354Q368 -356 372 -350Q375 -346 378 -345Q384 -344 385 -334Q387 -323 391 -321Q416 -338 428 -351Q440 -364 457 -375Q468 -383 488 -403Q494 -402 495 -406Q496 -409 498 -412Q509 -421 510 -433Q512 -446 513 -458Q514 -504 523 -547Q522 -562 526 -578Q529 -581 528 -588Q527 -597 532 -599ZM802 -308H804Q811 -298 826 -291Q829 -287 838 -280Q846 -273 850 -268Q855 -268 858 -260Q860 -255 864 -253Q866 -241 871 -234Q877 -229 881 -217Q885 -206 888 -202Q896 -194 897 -182Q899 -171 902 -159Q908 -149 905 -135Q913 -118 904 -103Q898 -96 894 -87Q892 -82 884 -81Q878 -80 876 -78Q871 -72 866 -65Q863 -62 860 -66Q860 -72 855 -74Q850 -75 846 -78Q837 -84 830 -94Q824 -105 817 -116Q814 -124 806 -124Q793 -122 780 -120Q764 -118 748 -116Q719 -112 689 -108Q670 -109 635 -107Q621 -106 606 -106Q592 -104 583 -104H568Q552 -104 545 -102Q543 -103 538 -101Q533 -99 531 -102Q497 -99 463 -97Q451 -97 438 -97Q409 -94 379 -92Q374 -93 368 -92Q360 -90 356 -93Q338 -85 305 -83Q288 -81 272 -83Q256 -82 241 -85Q236 -83 227 -87Q218 -91 213 -89Q187 -100 168 -113Q153 -121 143 -139Q134 -156 133 -173Q124 -193 133 -208Q136 -216 138 -225Q141 -234 149 -239Q153 -247 185 -295Q190 -305 193 -291Q194 -286 202 -281Q212 -274 213 -274Q216 -269 221 -263Q227 -258 223 -251Q220 -249 215 -246Q211 -242 213 -236Q209 -209 193 -182Q184 -166 185 -157Q188 -147 199 -146Q210 -144 217 -140Q285 -135 302 -138Q335 -140 368 -142Q384 -144 400 -146Q411 -146 421 -146Q430 -147 439 -148Q512 -155 526 -156Q534 -156 542 -157Q557 -157 572 -158Q581 -159 590 -160Q634 -161 718 -171Q759 -178 787 -177Q799 -179 810 -182Q810 -208 807 -218Q806 -220 804 -251Q804 -265 804 -279Q802 -293 802 -308Z"/>
</svg>