<svg xmlns="http://www.w3.org/2000/svg" viewBox="0 -800 1024 1024">
	<path fill="#000000" d="M248 -723Q252 -724 258 -720Q261 -718 266 -718Q271 -718 273 -715Q286 -718 296 -698Q300 -689 294 -681Q293 -674 287 -665Q280 -654 279 -649Q276 -645 274 -642Q271 -637 277 -635Q282 -641 291 -645Q301 -649 303 -651L346 -668Q362 -671 363 -670Q377 -671 390 -672Q411 -671 432 -668Q438 -670 446 -665Q453 -661 457 -661Q470 -650 476 -631Q475 -626 477 -623Q480 -621 481 -618Q479 -613 482 -606Q486 -597 481 -595Q477 -590 480 -586Q483 -583 485 -580Q483 -577 486 -574Q489 -570 489 -567Q485 -565 486 -558Q487 -552 484 -549Q488 -543 486 -529Q484 -513 489 -506Q488 -495 486 -484L484 -464Q488 -459 486 -453Q485 -448 484 -442Q482 -439 486 -433Q490 -427 489 -423Q490 -418 486 -409Q481 -398 484 -393Q481 -384 484 -373Q478 -371 480 -367Q483 -362 484 -359Q480 -343 481 -331Q488 -323 484 -305Q481 -289 484 -282Q479 -264 484 -247Q482 -236 481 -222Q484 -186 481 -162Q483 -123 482 -112Q479 -108 480 -101Q481 -94 480 -92Q481 -85 481 -78Q479 -75 481 -63Q482 -60 479 -54Q476 -49 479 -46Q478 -14 472 19Q473 23 469 32Q466 39 467 43Q462 54 455 58Q450 68 445 77Q448 83 440 93Q436 92 427 86Q414 77 408 76Q402 61 394 51Q390 46 388 38Q388 35 394 36Q397 35 411 30Q422 8 421 -3Q423 -5 423 -11Q422 -17 425 -20V-40Q426 -53 426 -67Q422 -79 426 -93Q422 -112 431 -123Q429 -144 426 -165Q433 -184 432 -204Q432 -211 430 -220Q428 -223 423 -219Q418 -218 412 -212Q409 -209 405 -207Q404 -201 394 -193Q387 -188 385 -184Q376 -178 369 -170Q363 -161 355 -153Q351 -154 350 -150Q349 -147 348 -144Q343 -141 341 -135Q338 -131 334 -136Q326 -129 323 -117Q314 -108 307 -96Q287 -88 282 -87Q266 -59 233 -58Q232 -56 231 -56Q231 -60 235 -72Q251 -92 267 -112Q281 -135 303 -154L340 -210Q356 -230 344 -229Q335 -231 319 -223Q307 -217 301 -217Q297 -223 292 -225Q290 -225 289 -220Q292 -215 289 -214Q281 -212 277 -208Q257 -199 248 -198Q235 -190 223 -186Q219 -187 212 -184Q207 -181 203 -183Q195 -177 182 -175Q163 -164 141 -159Q137 -162 132 -159Q127 -157 125 -159Q123 -157 116 -159Q109 -161 105 -159Q103 -157 102 -158Q100 -163 96 -167Q91 -176 81 -181Q71 -187 64 -193Q62 -194 61 -194Q60 -196 66 -198Q60 -203 64 -206Q72 -211 79 -205Q100 -203 119 -209Q137 -214 155 -220Q158 -222 164 -224L180 -230Q185 -232 189 -234Q195 -235 197 -240Q198 -245 191 -250Q187 -250 187 -255Q187 -260 184 -261Q178 -263 177 -267Q175 -272 174 -276Q170 -286 166 -296Q174 -311 178 -339Q181 -345 181 -362Q182 -363 184 -383Q185 -392 185 -401Q186 -414 186 -428Q187 -436 187 -444Q187 -453 192 -458Q190 -464 192 -476Q194 -489 191 -495Q194 -505 196 -516L192 -555Q175 -575 172 -585Q167 -596 167 -610Q172 -619 182 -619Q187 -627 192 -635Q204 -650 217 -665Q229 -680 235 -698Q243 -699 243 -711Q243 -722 248 -723ZM413 -641Q408 -639 395 -636Q378 -632 370 -627Q351 -621 334 -610Q329 -610 320 -602Q310 -594 304 -593Q300 -588 294 -589Q287 -591 280 -592Q272 -595 264 -595Q253 -598 244 -597Q229 -585 227 -576Q222 -571 224 -569Q228 -567 233 -567Q246 -559 246 -534Q248 -524 239 -511Q232 -500 233 -494Q239 -470 232 -457Q232 -446 231 -435Q235 -430 233 -418Q232 -409 233 -406Q232 -398 233 -389Q235 -381 230 -373Q231 -350 232 -328Q233 -324 233 -317Q233 -307 237 -302Q237 -289 236 -276Q240 -273 243 -268Q249 -260 253 -258Q285 -266 313 -275Q338 -284 362 -293Q389 -297 416 -301Q420 -295 425 -299Q430 -304 426 -309Q431 -326 433 -328Q433 -349 433 -371Q436 -374 435 -382Q434 -390 436 -393Q431 -414 438 -424Q442 -430 437 -434Q433 -437 433 -441Q433 -472 433 -504Q433 -526 433 -549Q433 -590 424 -626Q421 -637 413 -641ZM755 -570L761 -569Q765 -566 779 -565Q792 -565 797 -561Q808 -561 812 -553Q816 -544 821 -539Q824 -530 827 -522Q838 -497 839 -467Q839 -458 841 -446Q845 -439 839 -426Q851 -420 860 -423Q863 -427 867 -425Q872 -422 873 -423Q877 -428 885 -423Q890 -420 893 -421Q892 -419 894 -412Q897 -402 894 -399Q894 -398 893 -398Q891 -396 890 -404Q888 -411 884 -411Q876 -412 874 -405Q872 -398 877 -393Q881 -394 884 -390Q886 -387 889 -388Q887 -384 877 -382Q869 -381 867 -378Q863 -374 858 -376Q853 -379 848 -380Q844 -380 843 -376Q837 -375 838 -370Q839 -365 839 -362Q836 -358 839 -351Q843 -343 841 -340Q832 -328 839 -313Q835 -313 835 -311Q837 -308 835 -303Q839 -290 837 -280Q832 -274 834 -267Q836 -260 837 -255Q840 -241 836 -225Q839 -219 834 -211Q829 -203 833 -199Q835 -186 836 -174Q839 -170 838 -160Q837 -151 839 -148Q835 -129 841 -107Q839 -104 836 -99Q833 -94 839 -89Q842 -79 839 -68Q837 -57 836 -46Q839 -41 832 -36Q827 -32 831 -29Q828 -27 826 -26Q824 -24 826 -20Q823 -18 821 -10Q819 -4 815 -3Q812 6 802 1Q798 0 794 4Q791 7 789 5Q787 9 785 8Q783 5 780 4Q777 1 775 0L765 -7Q763 -9 760 -11Q753 -12 752 -18Q751 -24 749 -29Q747 -35 738 -40Q730 -44 729 -48Q715 -57 700 -66Q698 -71 690 -75Q684 -78 681 -82Q671 -83 684 -82Q686 -88 694 -84Q701 -81 704 -84Q727 -72 749 -69Q752 -66 766 -69Q772 -68 772 -73Q773 -79 774 -83Q774 -88 771 -88Q768 -88 765 -84Q761 -87 764 -92Q767 -97 768 -102Q768 -103 768 -104Q768 -105 769 -105Q769 -104 772 -103Q787 -111 775 -134Q778 -137 775 -139Q770 -141 772 -144Q772 -158 774 -163Q775 -175 775 -184Q779 -191 778 -196Q775 -208 775 -220Q780 -236 779 -264Q778 -291 781 -302Q780 -324 781 -347Q783 -358 771 -358Q762 -358 758 -354Q752 -355 745 -353Q739 -350 728 -348Q712 -345 706 -340Q660 -331 656 -330Q640 -327 624 -324Q619 -322 604 -322Q588 -322 582 -328Q572 -328 566 -333Q559 -337 552 -341Q546 -344 539 -347Q537 -349 540 -351Q551 -356 572 -358Q593 -360 599 -362Q607 -363 620 -369Q636 -376 644 -376Q724 -402 760 -407Q763 -411 771 -413Q778 -414 781 -417Q783 -433 780 -452Q777 -472 776 -493Q775 -513 765 -531Q763 -537 746 -542Q744 -546 734 -550Q722 -555 720 -562Q722 -560 725 -562Q728 -565 725 -567Q740 -568 755 -570ZM294 -500Q329 -500 335 -498Q341 -497 341 -492Q340 -486 340 -481Q339 -474 342 -466Q342 -463 337 -464Q334 -460 327 -463Q322 -465 319 -464Q310 -466 301 -467Q291 -468 284 -476L267 -484Q253 -487 253 -495Q259 -498 274 -497Q287 -497 294 -500ZM238 -414Q267 -414 280 -407Q284 -410 293 -406Q299 -403 304 -404Q310 -403 317 -401Q325 -399 324 -392Q329 -387 326 -382Q323 -377 322 -372Q323 -366 322 -365Q321 -364 316 -368Q309 -360 302 -369Q291 -373 281 -381Q279 -384 258 -393Q254 -398 245 -401Q236 -404 238 -414ZM865 -409L863 -398Q870 -393 871 -405Q871 -413 865 -409ZM635 -228H639Q654 -227 664 -219Q663 -214 666 -207Q669 -197 668 -193Q670 -176 665 -169Q665 -150 655 -154Q648 -150 640 -156Q633 -159 630 -152Q619 -164 607 -176Q595 -201 583 -191Q582 -179 562 -186Q557 -193 563 -198Q569 -203 572 -209Q574 -212 579 -215Q587 -219 588 -225Q597 -224 606 -224Q610 -226 619 -225Q631 -224 635 -228Z"/>
</svg>