<svg xmlns="http://www.w3.org/2000/svg" viewBox="0 -800 1024 1024">
	<path fill="#000000" d="M268 -727H271Q275 -725 287 -726Q300 -728 305 -721Q322 -718 326 -700Q327 -696 329 -664Q326 -654 327 -633Q328 -616 327 -609Q325 -596 325 -582Q320 -573 332 -565Q343 -557 341 -550Q344 -541 337 -536Q329 -531 323 -527Q322 -513 323 -497Q319 -489 321 -480Q323 -472 323 -463Q320 -448 321 -431Q322 -422 320 -414Q318 -406 323 -399Q323 -396 324 -396Q330 -395 333 -402Q338 -405 347 -415Q359 -428 366 -432Q389 -453 411 -475Q417 -470 413 -463Q410 -457 409 -450Q393 -435 382 -419Q373 -410 364 -390Q360 -377 351 -367Q342 -358 334 -347Q332 -343 323 -333Q315 -324 316 -319Q314 -306 317 -288Q313 -277 314 -264Q318 -244 310 -225Q307 -221 307 -211Q308 -201 304 -197Q299 -194 298 -185Q296 -174 293 -171Q293 -168 292 -167Q287 -169 281 -170Q266 -187 257 -193Q255 -200 247 -211Q238 -222 237 -228Q236 -234 233 -233Q226 -230 224 -223Q222 -218 216 -214Q210 -210 207 -217Q200 -220 198 -226Q196 -232 193 -238Q194 -247 179 -254Q180 -268 176 -283L192 -299Q196 -301 200 -309Q206 -319 211 -321Q216 -345 219 -348Q218 -352 224 -360Q229 -366 228 -372Q224 -374 216 -371Q207 -368 202 -371Q196 -369 189 -374Q184 -378 181 -378Q176 -382 178 -384Q184 -388 189 -392Q200 -412 219 -422Q238 -432 257 -442Q264 -484 262 -499Q263 -506 258 -506Q250 -507 244 -507Q239 -504 227 -507Q219 -509 214 -508Q203 -515 190 -519Q188 -523 179 -527Q170 -531 171 -536Q188 -538 205 -540Q221 -546 236 -550Q253 -554 257 -563Q264 -559 266 -566Q268 -572 271 -576Q266 -594 270 -625Q274 -657 268 -691Q271 -701 263 -705Q257 -708 245 -708Q247 -717 255 -720Q262 -724 268 -727ZM725 -638Q730 -637 735 -637Q741 -638 744 -631Q762 -635 773 -628Q797 -613 804 -599Q810 -586 815 -574Q813 -557 821 -538Q816 -485 813 -475Q814 -472 810 -467Q806 -462 810 -458Q808 -446 805 -438Q804 -426 790 -385Q784 -377 783 -364Q784 -358 777 -349Q772 -342 772 -338Q767 -329 765 -321Q763 -312 755 -307Q749 -292 743 -278Q742 -269 736 -265Q731 -261 725 -258Q719 -241 705 -227Q698 -219 691 -208Q704 -202 719 -212Q734 -212 748 -212Q749 -215 754 -216Q760 -217 761 -219Q778 -213 786 -217Q790 -215 797 -217Q806 -219 810 -217Q815 -214 822 -213Q825 -212 822 -206Q823 -201 827 -201Q831 -201 834 -204Q834 -195 836 -188Q838 -181 830 -178Q827 -172 816 -168Q810 -166 807 -163Q784 -159 761 -156Q747 -152 718 -150Q712 -150 683 -142Q669 -142 655 -138Q617 -130 579 -123Q567 -122 562 -113Q557 -104 554 -94Q555 -79 546 -67Q542 -62 525 -47Q520 -36 508 -25Q505 -21 500 -18Q494 -14 495 -8Q515 -6 533 -11Q574 -14 615 -10Q645 -6 675 -3Q686 -3 702 4Q722 6 743 16Q751 15 763 23Q776 31 784 31Q793 36 789 46Q783 60 784 63Q785 69 782 71Q781 72 774 73Q772 77 763 77Q756 77 752 79Q726 75 695 63Q649 50 602 37Q599 38 596 34Q593 30 590 33Q560 28 532 19Q526 21 517 17Q510 13 506 14Q478 6 473 6Q466 -2 452 12Q443 18 430 23Q427 33 408 38Q398 42 392 43Q391 42 392 40Q404 32 412 22Q419 12 430 1Q431 -4 440 -14Q450 -26 451 -33Q463 -46 470 -61Q472 -69 477 -77Q482 -85 481 -93Q475 -96 461 -91Q453 -88 448 -88Q414 -81 380 -70Q367 -68 353 -67Q328 -62 323 -61Q289 -53 255 -46Q243 -46 231 -43Q214 -41 209 -43Q203 -41 194 -45Q184 -49 179 -46Q167 -53 155 -61Q145 -60 140 -73Q156 -81 173 -84Q190 -87 207 -92Q261 -103 280 -108Q310 -109 356 -124Q401 -134 446 -144Q452 -146 461 -148Q469 -150 469 -158Q462 -162 465 -168Q467 -174 473 -171Q483 -169 491 -164Q500 -159 510 -162Q552 -175 593 -182Q599 -183 607 -184Q617 -185 616 -195Q610 -201 606 -218Q602 -234 594 -241Q594 -244 588 -250Q582 -256 584 -260Q611 -252 626 -254Q634 -255 641 -257Q650 -263 657 -273Q662 -283 667 -287Q681 -303 681 -307Q683 -315 685 -322Q686 -330 693 -334Q696 -348 704 -361Q711 -358 714 -365Q715 -367 718 -379Q715 -389 719 -398Q723 -407 726 -416Q725 -421 730 -426Q736 -433 734 -439Q746 -441 745 -449Q748 -459 744 -467Q750 -493 761 -520Q762 -539 762 -558Q760 -574 749 -585Q737 -597 722 -592Q697 -591 674 -583L637 -571Q613 -563 588 -552Q584 -553 577 -549Q569 -544 564 -546Q561 -543 554 -545Q548 -547 545 -546Q543 -547 530 -547Q528 -549 511 -554Q506 -551 501 -557Q495 -563 491 -562Q482 -561 494 -569Q497 -575 508 -579Q534 -589 560 -599Q573 -602 585 -605Q603 -611 620 -618Q642 -622 663 -630Q693 -637 725 -638ZM543 -536Q553 -537 559 -532Q571 -526 583 -520Q595 -519 603 -502Q605 -467 593 -451Q594 -444 591 -432Q588 -420 589 -412Q581 -390 572 -368Q572 -364 571 -361L568 -347Q568 -342 567 -340Q562 -333 551 -305Q547 -301 542 -291Q536 -277 529 -274Q527 -267 521 -261Q514 -256 512 -249Q507 -247 505 -241Q503 -234 500 -232Q495 -229 489 -220Q482 -209 477 -206Q465 -206 454 -198Q440 -211 433 -230Q434 -242 443 -251Q452 -255 457 -265Q462 -274 468 -282Q467 -284 470 -285Q473 -287 475 -288Q476 -289 472 -292Q490 -327 504 -360Q512 -380 519 -400Q528 -440 542 -497Q548 -512 542 -527Q534 -529 543 -536Z"/>
</svg>