<svg xmlns="http://www.w3.org/2000/svg" viewBox="0 -800 1024 1024">
	<path fill="#000000" d="M357 -722L362 -721Q381 -718 400 -716Q420 -714 435 -704Q452 -690 462 -659Q460 -650 461 -634Q462 -614 458 -603Q460 -597 456 -582Q451 -565 458 -557Q509 -566 530 -576Q567 -582 606 -587Q627 -587 642 -576Q636 -569 640 -553Q644 -536 636 -529Q618 -522 578 -520Q545 -518 530 -514Q523 -509 511 -509Q485 -513 458 -520Q454 -509 456 -482Q459 -455 454 -442Q459 -422 454 -413Q457 -389 457 -363Q454 -340 454 -319Q453 -309 436 -273Q419 -284 406 -305Q402 -312 385 -344L392 -501Q392 -549 394 -595Q396 -641 385 -683Q385 -691 371 -701Q355 -713 357 -722ZM356 -307Q366 -304 375 -300Q379 -300 382 -305Q409 -288 405 -260Q398 -255 399 -248Q400 -243 408 -246Q478 -268 547 -290Q604 -310 682 -302Q754 -302 784 -255Q796 -243 796 -228Q795 -214 793 -199Q788 -194 787 -180Q785 -162 776 -156Q777 -147 763 -137Q749 -127 754 -118Q747 -111 736 -90Q728 -74 720 -66Q718 -57 704 -43Q689 -28 689 -14Q695 -3 683 2Q674 6 659 5Q655 2 649 2Q635 6 621 9Q616 9 611 6Q596 4 565 6Q533 9 516 6Q484 18 448 17Q413 16 379 18Q355 22 339 10Q322 -2 307 -14Q284 -35 270 -62Q255 -76 253 -96Q252 -117 253 -136Q276 -238 356 -307ZM611 -243Q566 -238 521 -224Q505 -223 481 -218Q451 -211 436 -211Q423 -212 410 -217Q398 -223 385 -227Q368 -221 353 -188Q311 -81 353 -28L431 -33Q578 -47 620 -49Q695 -114 720 -211Q724 -226 713 -235Q707 -240 689 -245Q647 -246 611 -243Z"/>
</svg>