<svg xmlns="http://www.w3.org/2000/svg" viewBox="0 -800 1024 1024">
	<path fill="#000000" d="M349 -680Q368 -678 387 -673Q393 -671 401 -671Q409 -670 410 -662Q416 -659 418 -648Q420 -640 422 -637Q425 -621 417 -617Q409 -615 400 -601Q397 -591 388 -587Q382 -576 373 -566Q365 -564 360 -556Q357 -550 366 -548Q372 -551 379 -548Q386 -545 381 -538Q383 -533 378 -526Q375 -520 375 -516Q352 -507 332 -507Q326 -508 323 -504Q320 -499 317 -495Q314 -479 300 -466Q290 -465 285 -451Q278 -439 280 -428Q281 -419 281 -411Q297 -419 312 -422Q319 -426 337 -429Q352 -431 359 -435Q365 -438 373 -439Q377 -439 403 -437Q411 -439 429 -435Q432 -434 435 -427Q438 -421 442 -419Q446 -418 449 -411Q452 -404 455 -403Q457 -389 464 -381Q459 -372 467 -367Q471 -364 469 -357Q467 -350 470 -348Q470 -334 470 -320Q471 -315 468 -307Q464 -298 467 -293Q467 -282 463 -276Q464 -262 465 -249Q459 -245 461 -237Q459 -232 460 -219Q461 -208 459 -202Q454 -202 454 -199Q454 -193 454 -188Q456 -183 451 -177Q447 -172 448 -168Q445 -164 443 -156Q439 -143 434 -139Q435 -134 428 -131Q421 -127 421 -123Q428 -115 447 -111Q455 -101 467 -97Q467 -94 470 -90Q475 -83 473 -80Q473 -75 469 -76Q464 -77 461 -73Q463 -67 459 -63Q456 -60 453 -56Q431 -58 416 -67Q402 -75 388 -83Q378 -94 366 -98Q353 -102 341 -107Q323 -110 304 -113Q298 -112 295 -98Q292 -101 287 -96Q282 -91 279 -93Q276 -98 272 -95Q268 -92 264 -91Q262 -86 257 -83Q253 -80 250 -77Q243 -73 236 -65Q229 -57 220 -60Q217 -61 211 -58Q206 -56 203 -59Q204 -69 211 -76Q218 -83 225 -90Q231 -92 239 -104Q244 -112 248 -115Q253 -121 259 -126Q264 -132 264 -139Q271 -141 275 -154Q279 -155 282 -162Q284 -168 286 -169Q293 -176 297 -189Q304 -199 292 -207Q292 -212 297 -212Q302 -211 308 -211Q314 -211 315 -216Q319 -218 327 -213Q333 -209 336 -210Q341 -205 353 -202Q365 -199 369 -196Q377 -196 379 -187Q381 -179 375 -175Q366 -161 364 -157Q342 -154 337 -132Q367 -128 396 -125Q401 -122 404 -125Q408 -128 409 -129Q411 -129 411 -130Q408 -134 405 -140Q407 -144 404 -145Q401 -147 398 -148Q397 -149 399 -152Q395 -155 385 -172Q387 -179 392 -205Q398 -250 403 -295Q404 -331 404 -340Q403 -367 396 -384Q393 -392 385 -390Q378 -388 371 -388Q347 -381 331 -380Q324 -374 316 -369Q308 -365 298 -367Q284 -366 272 -374Q264 -382 260 -365Q257 -352 256 -340Q253 -337 252 -327Q251 -320 248 -316Q247 -289 242 -266Q244 -253 239 -241Q242 -235 242 -216Q244 -209 240 -198Q237 -188 237 -184Q237 -174 232 -165Q232 -160 230 -160Q224 -161 217 -167Q214 -170 211 -170Q209 -170 208 -166Q206 -172 195 -183Q186 -192 183 -199Q183 -207 179 -215Q176 -224 183 -229Q186 -252 191 -273Q188 -282 193 -298Q198 -313 194 -321Q200 -343 205 -352Q210 -371 236 -419Q242 -441 253 -464Q258 -470 262 -484Q266 -499 272 -505Q263 -515 253 -519Q238 -524 225 -534Q212 -540 203 -553Q194 -562 192 -572Q190 -581 195 -595Q200 -608 199 -615Q194 -623 209 -633Q220 -644 231 -655Q236 -659 242 -663Q249 -667 253 -659Q250 -654 254 -651Q258 -649 263 -647Q268 -649 272 -652L290 -663Q296 -667 299 -668Q308 -671 317 -675Q322 -678 335 -678Q344 -678 349 -680ZM340 -643Q335 -641 325 -639Q314 -634 304 -627Q288 -622 265 -633Q260 -636 256 -637Q254 -636 254 -632Q248 -620 248 -608Q250 -590 248 -571Q243 -562 248 -553Q252 -544 256 -536Q257 -529 267 -532Q275 -535 277 -533Q279 -536 286 -537Q293 -538 295 -540Q301 -540 302 -550Q303 -560 309 -563Q314 -575 323 -586Q336 -605 345 -625Q349 -633 348 -642Q347 -646 340 -643ZM611 -427L622 -426Q635 -420 651 -415Q657 -414 659 -408Q661 -402 664 -398Q667 -376 662 -361Q662 -352 660 -345Q660 -343 665 -343Q693 -350 720 -358Q735 -361 750 -365Q775 -365 787 -363Q799 -365 815 -360Q819 -357 828 -355Q839 -353 843 -349Q852 -347 859 -340Q865 -333 872 -326Q882 -317 884 -303Q881 -294 887 -281Q881 -273 884 -263Q883 -262 883 -257Q883 -251 880 -249Q879 -243 878 -235Q878 -228 872 -224Q869 -210 862 -196Q864 -181 857 -172Q858 -163 854 -155Q846 -140 844 -129Q834 -99 831 -95Q820 -92 823 -81Q817 -62 810 -44Q803 -38 799 -27Q791 -21 781 -5Q772 10 766 15Q758 28 747 40Q740 38 739 46Q738 53 734 53Q719 39 710 19Q709 14 701 4Q696 -2 694 -7Q685 -25 687 -29Q694 -28 695 -35Q699 -36 707 -33Q715 -30 720 -31Q739 -55 753 -80Q762 -99 769 -120Q782 -155 795 -191Q794 -200 798 -221Q801 -236 801 -247Q803 -263 806 -280Q809 -297 800 -312Q779 -322 765 -319Q743 -311 723 -310Q714 -303 694 -299Q677 -295 656 -285Q649 -282 646 -275Q644 -269 642 -261Q642 -259 638 -256Q633 -252 635 -247Q630 -242 628 -228Q625 -223 622 -204Q617 -194 611 -185Q611 -176 603 -156Q601 -153 600 -142Q600 -133 596 -129Q597 -126 592 -122Q588 -119 588 -116Q579 -102 578 -98Q575 -96 574 -89Q573 -84 571 -83Q559 -73 553 -60L535 -39Q531 -35 527 -29Q522 -24 515 -23Q504 -30 516 -45Q516 -49 521 -57Q526 -64 525 -68Q530 -86 537 -98L540 -109Q541 -112 542 -115Q541 -122 548 -141Q558 -160 562 -180Q564 -194 571 -207Q573 -228 583 -247Q590 -265 580 -273Q561 -278 542 -283Q541 -283 541 -284Q543 -286 551 -290Q555 -291 554 -294Q554 -295 551 -299Q573 -310 597 -316Q600 -328 600 -339Q601 -345 606 -383Q607 -390 603 -392Q599 -395 594 -396Q584 -397 583 -407Q587 -412 598 -418Q607 -423 611 -427Z"/>
</svg>