<svg xmlns="http://www.w3.org/2000/svg" viewBox="0 -800 1024 1024">
	<path fill="#000000" d="M587 -600Q600 -600 602 -599Q616 -598 630 -598Q650 -594 666 -587Q671 -579 678 -578Q693 -567 695 -559Q699 -554 699 -546Q705 -538 706 -528Q711 -513 703 -503Q703 -477 697 -465Q693 -464 691 -459Q689 -454 686 -454Q680 -445 673 -437Q665 -423 656 -418Q647 -413 640 -405Q635 -396 621 -386Q608 -377 605 -373Q603 -369 596 -366Q591 -364 589 -361Q578 -349 563 -347L540 -328Q515 -322 515 -334L507 -346Q503 -347 499 -352Q497 -355 494 -356Q491 -344 491 -333Q490 -317 489 -302Q484 -278 484 -252Q482 -227 484 -202Q484 -187 483 -173Q485 -170 484 -161Q482 -152 485 -149Q487 -149 510 -152Q534 -153 558 -155Q575 -156 591 -158Q617 -161 642 -161Q661 -164 686 -162Q697 -160 707 -161Q727 -159 738 -153Q748 -150 754 -143Q760 -140 763 -135Q766 -129 769 -124Q769 -115 762 -103Q760 -88 734 -86Q711 -79 685 -84Q648 -84 610 -84Q602 -85 594 -86Q573 -84 555 -87Q523 -87 490 -87Q483 -88 477 -86Q463 -86 448 -86Q425 -82 365 -73Q344 -70 322 -70Q309 -68 295 -67Q265 -63 251 -69Q218 -80 216 -81Q207 -90 199 -91Q181 -99 160 -106Q169 -107 178 -108Q203 -108 224 -116Q239 -114 267 -118Q309 -122 329 -125Q368 -132 406 -140Q421 -140 422 -152Q423 -178 424 -204Q424 -228 424 -253Q425 -256 430 -327Q432 -331 433 -336Q435 -376 436 -417Q436 -435 432 -453Q423 -486 409 -492Q403 -491 394 -494Q385 -497 381 -497Q367 -497 354 -503Q327 -508 320 -508Q305 -508 297 -502Q294 -502 294 -504Q295 -509 301 -509Q317 -522 335 -526Q361 -533 389 -546Q428 -558 467 -570Q479 -573 501 -579Q517 -586 587 -600ZM605 -537Q583 -536 565 -532Q541 -526 515 -522Q499 -518 483 -514Q470 -509 456 -505Q450 -503 460 -497Q471 -497 479 -487Q484 -481 490 -469Q496 -462 495 -453Q495 -445 497 -438Q499 -431 495 -425Q492 -422 493 -414Q494 -407 492 -405Q491 -394 496 -386Q516 -382 528 -382Q545 -382 553 -388Q583 -413 611 -447Q623 -464 635 -482Q646 -501 647 -523Q630 -542 605 -537Z"/>
</svg>