<svg xmlns="http://www.w3.org/2000/svg" viewBox="0 -800 1024 1024">
	<path fill="#000000" d="M597 -302Q573 -298 548 -295Q523 -289 506 -283Q491 -281 482 -277Q469 -277 459 -273Q455 -275 443 -278Q429 -281 423 -287Q420 -291 412 -293Q406 -295 404 -297Q400 -298 401 -302Q402 -306 405 -306Q420 -306 437 -309Q461 -314 484 -320Q519 -327 524 -327Q534 -331 548 -330Q569 -334 591 -335Q598 -337 607 -338Q615 -339 620 -346Q618 -372 621 -393Q622 -406 623 -419Q622 -433 621 -444Q620 -449 616 -449Q612 -449 609 -446Q601 -445 588 -440Q570 -433 561 -433Q549 -431 536 -429Q518 -430 490 -443Q475 -458 471 -476Q471 -498 478 -512Q479 -534 489 -555Q493 -562 491 -568Q490 -574 489 -580Q489 -588 496 -581Q501 -575 510 -569Q526 -558 530 -550Q537 -545 541 -529Q538 -518 535 -507Q532 -494 528 -482Q524 -477 529 -474Q534 -470 539 -474Q554 -478 568 -482Q592 -490 616 -498Q621 -498 623 -504Q625 -509 622 -513Q617 -562 619 -595Q619 -607 618 -620Q612 -627 617 -637Q620 -645 619 -648Q614 -654 615 -661Q616 -668 616 -675Q612 -692 610 -708Q604 -712 603 -723Q602 -733 598 -736Q598 -739 593 -745Q588 -751 590 -755H592Q602 -752 612 -750Q623 -749 630 -738Q642 -737 647 -735Q656 -732 657 -723Q669 -709 669 -697Q669 -686 669 -674L670 -636Q667 -627 673 -608Q669 -598 671 -580Q671 -570 670 -560Q672 -555 672 -532Q674 -522 674 -521Q676 -515 683 -516Q690 -521 700 -518Q705 -516 713 -517Q722 -519 725 -518Q730 -514 737 -509Q744 -504 741 -495Q735 -482 725 -475Q719 -469 695 -465Q689 -463 682 -461Q675 -459 675 -451Q676 -430 673 -409Q669 -405 671 -401Q673 -396 674 -391Q671 -379 674 -364Q671 -359 674 -351Q677 -344 683 -345Q702 -348 704 -348Q718 -353 720 -352Q735 -359 750 -364Q755 -371 769 -369Q781 -375 801 -371Q804 -369 810 -371Q817 -373 820 -371Q822 -368 832 -368Q841 -368 845 -365Q855 -364 852 -352Q852 -337 845 -334Q841 -335 836 -329Q831 -324 828 -325Q822 -322 805 -322Q740 -313 674 -305Q674 -292 675 -286Q677 -274 684 -270Q714 -258 728 -250Q749 -241 775 -234Q800 -223 825 -213Q835 -210 844 -207Q863 -199 881 -192Q914 -183 920 -180Q934 -176 948 -168Q963 -164 967 -155Q970 -148 943 -138Q907 -125 879 -134Q875 -136 869 -138Q862 -142 854 -143Q810 -166 764 -184Q725 -201 685 -221Q676 -220 676 -212Q676 -203 677 -196Q678 -188 678 -180Q680 -164 679 -155Q675 -131 682 -106Q683 -101 680 -90Q677 -79 679 -71Q672 -45 668 -27Q658 -22 662 -6Q661 -2 654 -3Q647 -4 645 0Q644 5 635 14Q627 21 623 7Q609 -6 603 -23Q588 -33 592 -40Q592 -46 598 -53Q603 -59 604 -62Q610 -70 612 -90Q613 -104 616 -110Q616 -155 618 -199V-244Q601 -231 583 -218Q580 -218 576 -212Q571 -203 563 -202Q561 -197 554 -194Q545 -190 544 -187Q538 -186 530 -179Q524 -173 520 -172Q505 -167 490 -162Q485 -162 480 -158Q475 -154 470 -159L498 -182Q500 -190 511 -203Q519 -213 522 -218Q584 -286 597 -302ZM238 -613H242Q258 -610 274 -605Q279 -604 281 -599Q282 -595 278 -591Q272 -589 272 -579Q272 -572 270 -570Q272 -566 269 -559Q266 -553 269 -550Q267 -531 266 -530Q265 -526 265 -517Q265 -504 262 -499Q261 -488 259 -478Q256 -474 254 -455Q249 -451 249 -441Q249 -434 247 -431Q247 -424 251 -423Q256 -423 262 -425Q290 -433 317 -445Q315 -449 308 -448Q303 -447 301 -449Q299 -456 293 -459Q287 -463 283 -467Q274 -473 290 -477Q302 -479 313 -486Q323 -493 335 -487Q343 -486 360 -486Q366 -489 370 -484Q374 -480 377 -476Q392 -468 386 -452Q386 -442 377 -408Q374 -402 372 -390Q367 -388 368 -383Q369 -379 367 -376Q367 -373 364 -368Q360 -363 362 -358Q356 -343 350 -329Q345 -322 338 -303Q329 -281 322 -271Q318 -270 315 -262Q313 -255 307 -253Q300 -241 298 -226Q313 -218 365 -200Q369 -196 378 -194Q389 -192 392 -186Q403 -182 415 -178Q426 -174 435 -163Q434 -161 439 -143Q437 -138 436 -133Q434 -127 426 -129Q422 -116 406 -124Q404 -127 398 -128Q391 -129 389 -134Q384 -136 375 -143Q363 -152 354 -154Q344 -158 334 -163Q322 -165 316 -170Q292 -180 265 -190Q261 -189 241 -186Q228 -184 214 -183Q209 -183 203 -186Q219 -202 220 -209Q211 -214 202 -212Q196 -219 183 -221Q180 -220 179 -223Q178 -228 179 -233Q173 -247 170 -261Q173 -299 176 -309Q177 -316 180 -323Q183 -331 179 -337Q160 -330 132 -315Q124 -310 115 -306Q110 -300 104 -299Q98 -298 93 -296Q87 -299 84 -312Q81 -322 76 -326Q76 -330 69 -336Q61 -342 62 -347Q57 -355 64 -362Q70 -369 78 -366Q84 -358 93 -361Q115 -372 135 -380Q139 -380 147 -384Q156 -389 162 -389Q167 -394 178 -396Q188 -398 192 -401Q203 -458 210 -474Q211 -492 218 -519Q228 -561 228 -583Q230 -589 225 -590Q219 -591 215 -593Q208 -594 208 -598Q209 -605 217 -605Q223 -601 228 -606Q234 -610 238 -613ZM296 -381Q289 -378 287 -380Q275 -375 263 -370Q248 -363 233 -356Q233 -352 229 -347Q224 -340 225 -335Q220 -326 222 -314Q233 -303 225 -292Q218 -291 220 -283Q222 -275 222 -269Q227 -266 227 -259Q228 -251 231 -249Q237 -239 248 -244Q266 -277 278 -306Q283 -320 288 -334L301 -374Q303 -378 301 -381Q299 -384 296 -381Z"/>
</svg>