<svg xmlns="http://www.w3.org/2000/svg" viewBox="0 -800 1024 1024">
	<path fill="#000000" d="M331 -400Q349 -418 350 -418Q355 -427 370 -442Q388 -460 392 -472Q402 -475 410 -493Q417 -502 425 -511Q441 -528 446 -537Q477 -575 508 -614Q532 -647 552 -680Q558 -687 548 -695Q537 -704 542 -711Q545 -709 552 -712Q558 -714 560 -713Q566 -714 572 -716L586 -717Q594 -712 601 -707Q621 -706 629 -696Q632 -690 628 -682Q623 -675 618 -666Q612 -658 602 -650Q600 -641 589 -630Q584 -620 585 -615Q596 -612 607 -610Q627 -606 646 -600Q665 -594 684 -588Q704 -581 722 -573Q739 -571 757 -564Q768 -563 780 -557Q796 -554 811 -546Q836 -539 860 -528Q862 -528 869 -522Q874 -518 878 -520Q890 -510 903 -508Q916 -505 928 -500Q934 -498 941 -497Q948 -495 948 -489Q964 -482 971 -476Q979 -470 971 -462Q967 -457 957 -455Q949 -453 945 -450Q930 -442 906 -448Q888 -448 870 -449Q839 -452 814 -468Q789 -484 761 -498Q727 -514 693 -530Q683 -532 670 -541Q658 -546 634 -562Q607 -580 589 -585Q569 -593 559 -592Q555 -585 538 -568Q523 -553 520 -548Q509 -535 497 -522Q488 -512 478 -503Q466 -490 454 -477Q446 -467 438 -457Q426 -445 414 -434Q378 -403 338 -385Q320 -377 316 -377Q305 -377 331 -400ZM262 -640Q271 -637 276 -628Q281 -618 287 -610Q288 -600 291 -591Q293 -581 288 -573Q281 -563 276 -551Q278 -538 264 -519Q254 -505 252 -498Q243 -490 232 -468Q228 -458 213 -440Q201 -426 197 -418Q188 -408 204 -399Q207 -395 216 -387Q228 -377 229 -369Q238 -352 245 -336Q246 -322 246 -308Q242 -293 249 -279Q245 -267 249 -255Q245 -243 246 -231Q248 -210 245 -182Q244 -163 249 -143Q247 -140 249 -132Q251 -125 247 -121Q249 -108 244 -97Q249 -90 245 -75Q242 -64 243 -58Q243 -50 236 -48Q235 -48 223 -46Q215 -48 197 -64Q177 -79 170 -109Q174 -124 173 -138Q179 -147 178 -166Q178 -180 179 -186Q183 -195 184 -207Q179 -221 184 -236Q182 -238 184 -244Q186 -248 184 -251Q182 -265 184 -299Q186 -323 184 -339Q187 -364 162 -398Q142 -425 140 -440Q134 -457 149 -469Q163 -485 171 -503Q243 -605 249 -615Q255 -619 257 -628Q260 -638 262 -640ZM621 -444Q646 -439 650 -441Q662 -444 679 -437Q673 -425 673 -422Q654 -405 643 -405Q627 -397 620 -395Q596 -392 581 -365Q574 -363 569 -344Q558 -327 548 -313Q541 -301 529 -288Q528 -280 521 -267Q515 -257 514 -251Q508 -244 505 -232Q507 -207 496 -186Q497 -180 493 -169Q490 -160 491 -154Q488 -148 487 -135Q486 -123 483 -118Q479 -96 479 -77Q479 -55 468 -45Q462 -40 458 -44Q453 -47 448 -49Q444 -57 437 -64Q430 -71 431 -80Q427 -83 424 -93Q426 -97 421 -101Q418 -104 420 -106Q422 -109 420 -116Q418 -122 420 -126Q429 -144 431 -163Q442 -181 459 -231Q464 -241 468 -252Q482 -284 485 -291Q497 -315 512 -328Q523 -342 531 -355Q531 -358 535 -361Q541 -367 540 -371Q519 -368 498 -365Q472 -361 443 -385Q439 -385 438 -386Q440 -390 450 -390Q457 -397 467 -398Q476 -401 485 -399Q499 -405 531 -414Q545 -415 562 -422Q566 -425 576 -427Q588 -430 592 -434Q595 -433 600 -438Q605 -443 610 -440Q616 -440 621 -444ZM766 -382Q791 -382 809 -371Q816 -371 819 -363Q823 -353 825 -351Q825 -342 835 -305Q836 -301 834 -295Q831 -287 833 -282Q831 -277 834 -267Q837 -257 835 -251Q832 -249 834 -244Q836 -239 834 -236Q836 -230 834 -219Q833 -211 834 -207Q829 -187 835 -176Q833 -172 834 -164Q835 -157 834 -154Q835 -141 829 -132Q833 -120 833 -108Q830 -100 825 -57Q827 -49 822 -44Q817 -39 814 -32Q816 -16 810 -12Q804 -14 800 -6Q795 3 789 1Q785 -7 778 -9Q771 -12 765 -15Q764 -21 756 -27Q744 -35 742 -37Q741 -43 733 -43Q726 -43 725 -45Q736 -49 746 -54Q757 -60 757 -72Q757 -84 759 -95Q762 -117 764 -139Q761 -175 770 -208Q766 -224 772 -255Q772 -266 772 -277Q772 -278 769 -335Q769 -349 765 -361Q764 -367 757 -366Q750 -365 748 -368Q747 -377 754 -379Q761 -380 766 -382ZM590 -315Q598 -313 605 -312Q615 -310 626 -310Q636 -311 643 -302Q643 -274 643 -247Q642 -242 642 -227Q644 -221 641 -211Q637 -199 641 -193Q636 -187 637 -173Q638 -159 634 -153Q628 -121 625 -93Q620 -90 621 -81Q622 -74 619 -71Q615 -53 610 -42Q606 -40 604 -35Q601 -30 594 -30Q591 -39 585 -45Q579 -51 574 -57Q574 -63 564 -73Q557 -78 559 -86Q561 -94 562 -102Q564 -108 560 -110Q556 -112 552 -115Q549 -113 546 -120Q544 -125 543 -126Q533 -128 526 -140Q520 -151 520 -163Q521 -175 532 -211Q535 -232 543 -254Q545 -259 544 -267Q542 -277 548 -281Q551 -281 552 -282Q553 -284 552 -287Q548 -293 554 -297Q572 -306 590 -315ZM666 -288Q673 -288 680 -286Q708 -286 715 -270Q713 -248 711 -227Q710 -211 708 -196Q705 -189 701 -182Q700 -179 698 -178Q697 -177 696 -178Q692 -185 685 -189Q670 -202 666 -211Q656 -222 660 -236Q664 -251 666 -264Q668 -276 666 -288ZM585 -215V-213Q582 -208 579 -193Q581 -190 579 -185Q577 -181 579 -179Q576 -169 572 -160Q568 -150 572 -138Q576 -133 578 -135Q580 -141 580 -147Q583 -176 588 -200Q587 -203 587 -207Q588 -215 585 -215Z"/>
</svg>