<svg xmlns="http://www.w3.org/2000/svg" viewBox="0 -800 1024 1024">
	<path fill="#000000" d="M629 -731Q638 -731 641 -729Q642 -725 648 -722Q653 -719 654 -715Q662 -705 660 -682Q650 -658 639 -634Q631 -625 626 -613Q623 -607 636 -610Q651 -613 665 -616Q677 -616 689 -617Q705 -617 720 -597Q725 -594 727 -586Q729 -578 730 -576Q730 -562 729 -548Q727 -539 723 -531Q722 -523 711 -510Q703 -501 701 -495Q687 -476 669 -464Q668 -461 664 -457Q660 -454 663 -451Q670 -447 688 -442Q704 -438 713 -432Q717 -432 727 -427Q743 -422 758 -413Q761 -409 769 -403Q780 -395 782 -390Q793 -377 778 -355Q761 -353 756 -354Q743 -353 732 -360Q702 -379 670 -394Q663 -395 650 -402Q635 -409 626 -411Q615 -415 602 -397Q589 -391 574 -383Q572 -378 561 -374Q553 -371 549 -366Q540 -363 536 -356Q533 -356 525 -351Q517 -346 511 -348Q503 -345 495 -343Q490 -339 485 -347Q472 -345 458 -349Q484 -357 490 -359Q510 -375 530 -391Q542 -397 552 -408Q562 -419 572 -429Q578 -437 562 -440Q546 -445 534 -454Q519 -463 504 -473Q489 -485 473 -492Q485 -491 497 -487Q515 -484 535 -484Q553 -478 572 -475Q588 -472 604 -470Q611 -472 615 -479Q619 -486 624 -492Q628 -494 632 -500Q636 -507 639 -509Q645 -518 651 -527Q658 -536 660 -547Q671 -563 668 -573Q647 -568 626 -564Q619 -558 611 -559Q603 -561 595 -562Q587 -558 581 -552Q577 -552 576 -546Q575 -540 573 -540Q564 -561 558 -585Q566 -598 571 -613Q574 -616 577 -618Q580 -621 581 -625Q579 -628 586 -642Q589 -653 598 -664Q598 -669 602 -679Q607 -691 605 -700Q608 -705 608 -713Q608 -721 601 -721Q597 -721 597 -723Q599 -727 604 -729Q617 -725 629 -731ZM375 -722L376 -721Q395 -723 413 -720Q418 -717 424 -715Q430 -713 433 -707Q444 -696 444 -682Q447 -664 435 -645Q430 -642 425 -632Q421 -624 417 -621Q413 -615 399 -606Q388 -599 382 -591Q377 -589 380 -584Q383 -579 387 -580Q424 -587 438 -590Q457 -594 474 -590Q486 -585 494 -574Q511 -559 508 -539Q503 -517 491 -508Q483 -503 474 -498Q473 -494 470 -493Q466 -492 461 -492Q453 -488 445 -484Q441 -483 434 -477Q428 -472 422 -471Q409 -460 403 -460Q395 -461 394 -455Q392 -449 390 -443Q391 -430 387 -417Q391 -406 384 -393Q385 -386 383 -365Q381 -354 365 -309Q358 -302 350 -296Q347 -290 341 -289Q334 -288 333 -295Q324 -301 321 -316Q317 -317 311 -324Q307 -329 302 -331Q299 -330 297 -335Q295 -340 299 -341Q324 -341 325 -355Q329 -371 333 -388Q335 -405 334 -422L319 -409Q315 -408 310 -402Q305 -396 302 -395Q295 -393 288 -384Q282 -375 278 -374Q264 -353 244 -349Q240 -345 234 -345Q221 -345 219 -356Q229 -363 235 -373Q240 -376 246 -387Q251 -396 256 -400Q257 -405 261 -409Q266 -415 266 -419Q267 -421 270 -424L279 -435Q281 -437 283 -440Q295 -454 304 -470Q310 -484 315 -498Q303 -507 289 -499Q271 -499 256 -490Q228 -479 200 -469Q176 -475 154 -484Q151 -485 147 -485Q142 -486 143 -489Q165 -491 186 -503Q214 -517 244 -526Q273 -535 302 -546Q307 -548 314 -550Q318 -552 315 -556Q306 -567 290 -574Q287 -576 282 -577Q276 -579 278 -584Q288 -585 298 -586Q301 -588 323 -593Q332 -591 337 -598Q343 -604 348 -609Q352 -615 356 -619Q361 -624 361 -630Q369 -641 379 -663Q383 -665 382 -668Q381 -670 377 -668Q359 -660 334 -655Q324 -654 315 -658Q281 -669 256 -667Q253 -668 252 -668Q255 -672 263 -678Q297 -694 333 -709Q352 -718 375 -722ZM433 -543Q423 -540 412 -538Q391 -531 369 -525Q360 -521 350 -518Q348 -517 347 -517Q346 -516 347 -515Q348 -514 352 -513Q375 -507 384 -485Q390 -483 394 -488Q399 -492 403 -494Q409 -495 416 -504Q422 -512 424 -513Q431 -523 438 -534Q441 -537 439 -541Q436 -545 433 -543ZM466 -340Q479 -338 491 -336Q493 -335 501 -335Q511 -335 515 -331Q525 -329 531 -319Q537 -309 532 -299Q532 -288 525 -281Q520 -274 518 -265Q516 -255 505 -240Q497 -229 494 -223Q485 -213 488 -204Q498 -205 508 -206L536 -207Q555 -207 573 -211Q578 -222 586 -229Q590 -246 590 -262Q570 -270 564 -276Q559 -275 552 -284Q548 -284 545 -287Q542 -290 546 -294Q558 -290 583 -299Q596 -300 609 -300Q622 -301 631 -293Q635 -286 641 -280Q646 -274 647 -265Q651 -245 641 -223Q640 -217 643 -217Q649 -216 655 -217Q667 -217 679 -217Q701 -218 722 -220Q730 -218 740 -219Q756 -220 763 -217Q771 -218 802 -216Q827 -214 847 -203Q861 -200 871 -187Q871 -184 877 -180Q882 -176 883 -172Q881 -161 868 -159Q860 -151 852 -144Q846 -143 826 -145Q796 -149 765 -153Q714 -159 635 -157Q619 -155 603 -153Q594 -146 589 -134Q586 -125 578 -120Q576 -116 564 -102Q555 -93 565 -92Q575 -84 590 -84Q607 -78 623 -72Q665 -56 706 -41Q712 -42 719 -36Q725 -30 729 -30Q740 -25 749 -16Q759 -13 766 -8Q781 1 786 12Q786 15 789 19Q793 23 791 28Q786 44 763 52Q754 56 744 53Q732 53 722 49Q715 46 702 35Q684 21 673 17Q602 -25 520 -50Q498 -44 490 -30Q478 -22 466 -15Q452 -6 432 -4Q419 6 395 13Q381 16 367 19Q356 26 348 24Q332 10 324 8Q323 4 328 4Q334 5 337 3Q349 2 371 -8Q390 -15 408 -23Q421 -34 436 -43Q451 -52 463 -66Q449 -69 433 -71Q418 -74 405 -83Q403 -88 399 -92Q395 -97 396 -105Q390 -112 386 -120Q382 -124 383 -134Q383 -140 382 -144Q376 -147 357 -142Q347 -141 337 -140Q325 -140 313 -140Q291 -137 269 -135Q254 -136 241 -129Q218 -124 199 -129Q176 -129 162 -144Q160 -147 153 -152Q146 -156 144 -161Q165 -157 178 -162Q183 -163 191 -165L218 -170Q225 -171 231 -173Q254 -178 279 -181Q290 -182 300 -183L342 -186Q356 -188 363 -188Q372 -191 391 -192Q409 -193 417 -195Q421 -195 423 -198Q424 -202 427 -205Q434 -216 441 -228Q446 -232 449 -239Q450 -248 458 -256Q466 -273 472 -293Q477 -303 478 -318Q479 -323 472 -330Q467 -335 466 -340ZM524 -155Q491 -155 460 -150Q448 -147 442 -134Q434 -126 433 -120Q434 -119 437 -118Q456 -113 482 -113Q492 -111 501 -109Q507 -109 510 -113Q516 -126 528 -135Q529 -139 537 -153Q537 -157 532 -157Q527 -157 524 -155Z"/>
</svg>