<svg xmlns="http://www.w3.org/2000/svg" viewBox="0 -800 1024 1024">
	<path fill="#000000" d="M877 -675Q898 -675 900 -674Q908 -672 915 -671Q924 -673 931 -657Q930 -653 933 -646Q937 -639 935 -635Q931 -630 926 -625Q921 -619 914 -622L894 -616Q882 -623 872 -616Q847 -610 821 -605Q804 -608 789 -598Q763 -600 752 -593Q740 -589 727 -587Q722 -585 723 -582Q726 -579 730 -577Q745 -579 756 -571Q767 -563 779 -554Q788 -545 799 -537Q810 -529 815 -516Q819 -505 822 -495Q826 -492 825 -485Q824 -478 826 -475Q829 -461 831 -447L829 -408Q833 -394 830 -379Q831 -360 830 -339Q829 -323 833 -308Q831 -292 830 -275Q833 -252 830 -228Q830 -220 829 -212Q827 -204 832 -196Q837 -179 831 -157Q828 -142 830 -128Q830 -110 826 -93Q823 -81 819 -70Q814 -64 811 -53Q807 -41 804 -36Q799 -35 795 -27Q790 -18 784 -18Q781 -20 772 -18Q765 -16 763 -19Q757 -27 747 -23Q736 -31 738 -44Q731 -57 718 -59Q715 -63 710 -64Q709 -65 711 -68Q716 -70 728 -74Q735 -78 744 -80Q752 -81 758 -89Q763 -112 764 -133Q772 -170 772 -173Q772 -187 777 -196Q779 -210 779 -240Q776 -255 779 -268Q774 -276 776 -285Q778 -293 779 -302Q776 -308 777 -319Q778 -329 776 -333Q776 -396 776 -460Q771 -487 766 -514Q765 -520 757 -526Q749 -532 748 -536Q741 -545 722 -562Q710 -572 703 -581Q686 -588 678 -580Q674 -580 672 -579H660Q615 -573 603 -569Q585 -565 566 -562Q553 -560 540 -558Q536 -558 528 -554Q521 -550 515 -551Q510 -554 501 -549Q493 -545 489 -547Q481 -550 467 -549Q454 -548 448 -550Q414 -559 405 -561Q399 -563 394 -564Q392 -565 394 -568Q426 -575 458 -582Q480 -586 502 -591Q547 -604 594 -614Q620 -619 645 -624Q699 -637 731 -643Q756 -648 781 -654Q790 -658 810 -660Q816 -664 837 -666Q840 -669 856 -671Q859 -671 861 -672L872 -674Q875 -674 877 -675ZM202 -601Q221 -591 230 -592Q247 -596 260 -570Q258 -565 262 -555Q266 -544 264 -538Q260 -522 259 -504Q259 -496 267 -496Q275 -495 282 -493Q295 -497 308 -488Q310 -484 302 -476Q297 -471 296 -467Q292 -466 287 -459Q283 -454 279 -452Q257 -441 251 -435Q247 -428 242 -400Q238 -390 241 -376Q238 -370 236 -355Q237 -347 226 -334Q219 -325 217 -318Q216 -314 219 -314Q222 -313 225 -315Q261 -346 287 -369Q296 -378 300 -383L327 -410Q334 -417 340 -424Q341 -427 346 -438Q349 -446 356 -446Q360 -444 358 -441Q357 -438 357 -433Q346 -417 334 -402Q324 -387 315 -370Q304 -346 286 -324Q261 -301 250 -281Q242 -273 216 -243Q206 -236 202 -227Q192 -220 181 -220Q174 -220 170 -224Q168 -228 159 -236Q150 -244 149 -251Q144 -258 139 -277Q139 -282 139 -286Q138 -291 142 -293Q145 -296 153 -293Q166 -303 159 -311Q159 -315 164 -324Q169 -334 166 -341Q169 -356 172 -371Q174 -377 174 -381Q173 -386 175 -396Q178 -406 175 -411Q174 -418 168 -419Q163 -420 158 -420Q154 -424 141 -424Q133 -424 129 -426Q112 -431 97 -437Q93 -440 89 -441Q85 -443 85 -447Q97 -447 121 -455Q139 -460 156 -465Q166 -469 178 -471Q189 -474 196 -484Q198 -528 198 -550Q201 -566 187 -571Q180 -572 179 -579Q178 -586 184 -590Q185 -596 191 -598Q196 -600 202 -601ZM500 -468Q501 -467 503 -467Q504 -467 504 -464Q501 -461 503 -453Q505 -446 504 -443Q503 -438 506 -435Q509 -432 515 -433Q553 -454 574 -457Q579 -462 586 -461Q592 -461 600 -460Q612 -463 625 -459Q635 -458 644 -451Q642 -445 646 -442Q649 -439 656 -440Q670 -424 669 -411Q664 -407 658 -405Q651 -404 649 -397Q648 -393 641 -390Q634 -387 633 -383Q630 -377 619 -375Q611 -373 608 -370Q605 -366 600 -362Q595 -358 599 -353Q611 -352 622 -343Q622 -336 618 -322Q609 -320 605 -315Q580 -316 555 -318Q521 -324 520 -324Q508 -329 495 -334Q491 -341 484 -337Q480 -332 484 -322Q487 -313 486 -309Q483 -305 479 -305Q469 -308 461 -314Q451 -321 441 -328Q433 -333 438 -349Q436 -357 445 -370Q461 -450 500 -468ZM566 -416Q555 -414 543 -412Q538 -408 528 -411Q519 -414 515 -412Q507 -413 504 -407Q500 -402 498 -396Q499 -383 490 -350Q490 -342 500 -344Q514 -349 542 -355Q559 -369 573 -405Q578 -409 574 -415Q570 -420 566 -416Z"/>
</svg>