<svg xmlns="http://www.w3.org/2000/svg" viewBox="0 -800 1024 1024">
	<path fill="#000000" d="M614 -712Q617 -710 619 -705Q623 -698 632 -698Q640 -698 647 -696Q655 -696 660 -690Q665 -685 671 -681Q674 -679 676 -671Q678 -665 683 -664Q688 -665 691 -659Q693 -654 692 -648Q701 -635 695 -614Q694 -610 693 -610Q689 -610 685 -614Q679 -606 674 -596Q670 -596 667 -591Q665 -586 663 -586Q652 -577 644 -567Q642 -563 617 -536Q611 -536 608 -531Q604 -527 600 -523Q587 -515 575 -502Q572 -496 559 -487Q550 -480 545 -473Q543 -473 542 -474Q539 -473 541 -470Q544 -462 549 -470Q559 -475 578 -473Q585 -465 595 -459Q605 -452 609 -441Q618 -433 608 -423Q607 -418 601 -418Q595 -418 594 -415Q593 -407 585 -406Q577 -405 568 -404Q564 -409 556 -408Q549 -407 543 -406Q540 -403 532 -402Q521 -400 518 -394Q500 -392 493 -386Q487 -377 478 -376Q469 -375 462 -371Q460 -373 457 -369Q454 -366 452 -366Q459 -376 465 -387Q470 -392 465 -395Q459 -398 453 -398Q449 -399 445 -401Q440 -403 436 -400Q406 -404 375 -406Q370 -409 365 -411Q360 -413 360 -419L385 -425Q396 -434 411 -436Q418 -434 428 -437Q435 -439 442 -441Q450 -444 450 -452Q455 -461 467 -472Q480 -484 483 -491Q509 -517 522 -527Q520 -534 525 -538Q530 -543 534 -547Q539 -549 543 -556Q546 -562 549 -563Q564 -587 581 -610Q592 -627 602 -645Q601 -651 593 -649Q587 -648 585 -649Q572 -648 535 -639Q528 -640 517 -635Q506 -630 498 -630Q481 -622 463 -614Q454 -613 447 -607Q440 -601 433 -597Q429 -590 417 -581Q401 -570 399 -560Q391 -550 382 -541Q383 -534 378 -534Q370 -534 363 -534Q357 -541 352 -543Q346 -544 337 -553Q332 -558 327 -561Q313 -577 312 -598Q302 -636 318 -664Q321 -666 324 -672Q327 -679 332 -678Q337 -681 334 -688Q332 -695 337 -697Q342 -688 347 -679Q355 -681 366 -673Q376 -672 382 -667Q389 -662 388 -653Q392 -650 396 -639Q399 -632 402 -629Q435 -644 442 -649Q446 -650 470 -661Q488 -671 508 -678Q518 -679 534 -688Q552 -698 563 -698Q570 -700 577 -705Q584 -710 593 -708Q604 -710 614 -712ZM404 -318Q406 -310 406 -300Q405 -290 414 -284Q423 -279 434 -279Q452 -281 470 -284Q477 -286 489 -280Q498 -275 503 -275Q509 -277 517 -273Q524 -270 529 -271Q531 -267 537 -268Q542 -269 544 -267Q550 -268 551 -264Q553 -259 554 -256Q554 -251 554 -246Q555 -241 561 -243Q562 -241 566 -240Q572 -238 571 -235Q567 -235 564 -227Q561 -220 557 -220Q549 -215 535 -217Q527 -216 514 -218Q496 -221 489 -219Q469 -222 448 -226Q427 -231 411 -245Q394 -262 399 -279Q394 -289 395 -300Q396 -312 404 -318ZM615 -103Q622 -102 631 -99Q637 -95 655 -96Q668 -97 675 -94Q682 -94 690 -94Q698 -95 698 -87Q695 -82 698 -81Q702 -80 706 -78Q711 -77 710 -72Q707 -62 721 -56Q725 -56 725 -54Q724 -50 718 -48Q714 -50 711 -47Q709 -45 709 -40Q699 -36 687 -36L673 -33Q607 -37 537 -36Q529 -38 517 -36Q503 -34 496 -36Q486 -32 463 -32Q455 -30 441 -31Q425 -33 419 -31Q394 -29 368 -28Q345 -28 331 -38Q323 -40 315 -43Q310 -47 297 -50Q280 -54 275 -61Q278 -61 282 -63Q294 -65 306 -68Q336 -70 366 -73Q371 -71 377 -74Q384 -77 388 -76Q420 -78 428 -83Q443 -84 457 -85Q481 -89 508 -91Q540 -92 572 -93Q584 -95 595 -95Q607 -94 615 -103Z"/>
</svg>