<svg xmlns="http://www.w3.org/2000/svg" viewBox="0 -800 1024 1024">
	<path fill="#000000" d="M579 -682H585Q589 -682 591 -681Q594 -678 601 -681Q608 -684 612 -681Q613 -677 618 -675Q625 -673 626 -670Q624 -664 638 -659Q640 -655 636 -648Q632 -639 637 -634Q636 -628 630 -626Q624 -625 620 -622Q598 -619 576 -617Q565 -614 553 -612Q545 -609 531 -609Q513 -609 507 -606Q496 -606 476 -602Q453 -597 429 -597Q421 -597 413 -597Q402 -597 392 -599Q382 -601 373 -597Q367 -598 365 -587Q369 -569 372 -551Q370 -539 367 -528Q361 -523 362 -509Q363 -494 357 -490Q354 -474 353 -456Q344 -452 349 -442Q347 -418 343 -411Q343 -408 335 -385Q334 -372 329 -360Q329 -350 322 -336Q314 -320 314 -313Q304 -296 303 -275Q301 -264 292 -256Q288 -244 284 -233Q282 -216 270 -203Q264 -189 255 -176Q251 -164 247 -152Q237 -143 222 -117Q220 -112 214 -110Q206 -107 205 -104Q196 -90 186 -97Q180 -99 177 -104Q174 -110 171 -114Q166 -117 164 -124Q165 -129 161 -135Q157 -142 158 -146Q163 -150 167 -154Q171 -158 173 -164Q191 -188 218 -247Q219 -258 233 -289Q233 -296 238 -307Q244 -320 243 -327Q257 -360 266 -394Q278 -432 279 -451Q276 -459 279 -466Q283 -474 284 -481Q288 -486 288 -501Q288 -514 292 -520Q293 -545 293 -571Q291 -589 282 -601Q278 -608 265 -610Q261 -614 264 -616Q270 -618 274 -621Q280 -628 290 -627Q296 -630 304 -627Q313 -630 322 -633Q326 -638 330 -637Q334 -637 340 -636Q350 -643 446 -659Q465 -663 483 -667Q503 -669 522 -672Q534 -684 545 -675Q562 -677 579 -682ZM751 -496Q759 -497 779 -486Q782 -483 789 -484Q795 -485 798 -483Q808 -479 817 -475Q825 -474 832 -463Q838 -454 842 -451Q842 -447 846 -441Q851 -433 850 -428Q846 -426 843 -419Q840 -411 836 -410Q824 -408 815 -409Q806 -409 797 -409H761Q752 -409 743 -409Q718 -405 692 -405Q688 -403 678 -403Q669 -403 665 -401Q661 -399 655 -399Q645 -399 642 -395Q638 -393 639 -390Q640 -387 644 -385Q649 -383 651 -373Q652 -365 655 -362Q661 -358 659 -348Q657 -340 659 -337Q664 -329 664 -317Q664 -307 667 -298Q662 -292 670 -277L671 -234Q674 -220 672 -204Q675 -197 674 -184Q673 -168 675 -163Q678 -137 677 -106Q675 -86 673 -66Q672 -52 660 -24Q639 8 633 13Q629 19 621 20Q616 19 611 26Q606 33 603 33Q588 40 580 25Q579 19 571 14Q565 11 564 8Q561 -1 557 -11Q555 -20 547 -23Q539 -26 533 -31Q530 -35 533 -37Q539 -38 544 -34Q555 -34 567 -35Q578 -35 586 -43Q589 -51 593 -67Q596 -83 599 -100Q600 -115 604 -127Q605 -138 606 -150Q606 -179 606 -209Q603 -226 604 -240Q599 -305 597 -314Q596 -317 590 -343Q590 -349 586 -359Q582 -368 583 -375Q588 -382 581 -386Q563 -388 549 -383Q544 -380 522 -378Q516 -376 509 -375L495 -374Q484 -371 473 -369Q447 -370 426 -377Q410 -382 396 -388Q388 -390 379 -392Q374 -393 376 -399Q398 -409 410 -412Q423 -416 435 -420Q480 -431 497 -432L515 -437Q525 -438 535 -442Q552 -443 567 -447Q572 -450 583 -450Q594 -450 599 -453Q629 -460 686 -470Q693 -468 705 -476Q715 -483 722 -482Q725 -484 731 -483Q740 -482 741 -488Q739 -493 743 -495Q747 -496 751 -496Z"/>
</svg>