<svg xmlns="http://www.w3.org/2000/svg" viewBox="0 -800 1024 1024">
	<path fill="#000000" d="M494 -632Q503 -628 511 -625Q522 -625 532 -617Q533 -613 539 -606Q545 -598 547 -593Q549 -590 545 -585Q541 -579 543 -575Q547 -568 541 -563Q534 -559 530 -553Q521 -552 516 -545Q511 -539 505 -533Q490 -517 480 -499Q471 -489 471 -474Q465 -467 463 -446Q462 -434 459 -426Q456 -416 452 -407Q451 -396 446 -385Q441 -381 440 -369Q439 -360 437 -356Q433 -350 431 -335Q431 -331 427 -324Q421 -316 422 -311Q426 -303 421 -292L418 -285Q418 -283 417 -281Q412 -271 412 -258Q407 -246 408 -232Q407 -218 405 -205Q405 -197 403 -190Q400 -183 407 -176Q413 -173 414 -164Q414 -161 417 -155Q420 -149 419 -145Q411 -134 410 -118Q402 -111 385 -111Q360 -125 350 -146Q350 -151 345 -164Q343 -175 344 -180L345 -245Q348 -251 349 -266Q351 -286 358 -293Q360 -310 370 -333Q376 -360 384 -386Q385 -389 386 -393L389 -406Q390 -409 391 -413Q392 -425 395 -436Q396 -440 397 -444L401 -459Q407 -482 418 -506Q426 -521 430 -536Q434 -540 447 -560Q459 -579 470 -599L485 -624Q485 -630 494 -632ZM762 -496Q786 -496 790 -495Q807 -495 822 -490Q842 -483 850 -477Q859 -474 866 -466Q872 -458 881 -450Q881 -444 886 -441Q891 -437 894 -433Q894 -420 900 -408Q904 -385 907 -363Q908 -353 906 -342Q906 -329 905 -317Q903 -312 904 -302Q905 -292 904 -288Q901 -279 901 -269Q895 -248 894 -225Q892 -221 893 -213Q894 -206 893 -203Q894 -199 890 -196Q887 -193 886 -191Q886 -171 885 -152Q875 -135 871 -116Q867 -113 866 -106Q865 -99 862 -96Q853 -86 847 -74Q841 -61 825 -70Q816 -75 807 -81Q803 -89 796 -93Q789 -97 783 -101Q776 -110 760 -120Q759 -124 762 -124Q764 -124 767 -125Q772 -124 779 -132Q784 -137 788 -138Q805 -138 809 -144Q819 -160 817 -172Q821 -180 823 -200Q825 -214 827 -222Q827 -237 831 -249Q835 -279 835 -294Q836 -297 835 -306Q834 -316 838 -320Q839 -341 839 -363Q838 -395 830 -423Q828 -435 810 -446Q802 -449 794 -453Q787 -457 778 -455Q766 -457 757 -453Q746 -451 734 -451Q723 -452 714 -446Q712 -446 685 -440Q676 -437 666 -434Q663 -432 655 -432Q645 -431 641 -428Q634 -421 625 -420Q603 -421 586 -411Q576 -408 568 -409Q564 -404 552 -404Q542 -396 524 -401Q515 -406 505 -403Q490 -400 478 -404Q470 -406 480 -409Q496 -417 511 -425Q533 -433 537 -434Q600 -459 666 -479Q709 -491 730 -494Q746 -495 762 -496ZM95 -457H99Q118 -455 136 -453Q143 -454 151 -445Q159 -437 166 -437Q192 -450 224 -454Q232 -457 241 -457Q249 -457 256 -454Q267 -456 279 -440Q282 -437 281 -427Q280 -421 281 -417Q285 -409 277 -397Q274 -376 258 -365Q248 -354 238 -344Q234 -341 236 -337Q238 -333 243 -334Q248 -339 255 -334Q262 -330 261 -323Q259 -320 260 -312Q261 -303 258 -299Q248 -292 237 -292Q226 -297 214 -296Q205 -301 193 -298Q186 -296 181 -300Q176 -304 172 -307Q166 -311 160 -316Q155 -314 157 -307Q158 -303 157 -300Q151 -293 156 -286Q162 -279 165 -272Q161 -262 154 -253Q147 -255 124 -276Q121 -282 110 -291Q96 -303 94 -312Q88 -330 92 -349Q98 -375 104 -388Q108 -407 115 -425Q117 -432 113 -437Q108 -442 104 -446Q94 -454 95 -457ZM212 -415Q205 -413 198 -412Q185 -413 171 -414Q161 -414 161 -405Q161 -397 160 -389Q159 -378 158 -367Q156 -364 156 -355Q156 -347 154 -343Q154 -336 158 -330Q171 -328 181 -334Q191 -337 196 -346Q202 -355 207 -363Q209 -366 210 -369L215 -382Q217 -385 218 -388Q222 -399 222 -408Q223 -412 219 -415Q215 -418 212 -415ZM646 -357L654 -356Q664 -348 678 -347Q688 -339 697 -329Q696 -322 698 -315Q700 -307 695 -301Q689 -298 688 -292Q687 -286 686 -280Q678 -274 673 -264Q666 -259 669 -252Q670 -248 670 -239Q668 -232 665 -226Q659 -217 648 -218Q638 -219 628 -219Q617 -219 606 -219Q582 -217 575 -218Q566 -223 554 -217Q547 -212 532 -222Q516 -231 503 -242Q495 -245 493 -255Q491 -277 506 -297Q512 -305 537 -329Q541 -333 555 -335Q567 -334 587 -342Q604 -348 613 -349Q628 -354 646 -357ZM624 -322L605 -320Q596 -315 582 -313Q574 -309 560 -314Q551 -318 546 -310Q541 -303 543 -294Q541 -279 539 -265Q540 -254 545 -241Q548 -236 551 -236Q560 -238 569 -240Q586 -244 605 -245Q611 -248 613 -254Q614 -260 616 -266Q624 -288 631 -310Q633 -314 631 -319Q628 -325 624 -322Z"/>
</svg>