<svg xmlns="http://www.w3.org/2000/svg" viewBox="0 -800 1024 1024">
	<path fill="#000000" d="M689 -693Q724 -699 746 -686Q759 -671 742 -646Q717 -624 691 -600Q664 -576 634 -559Q633 -553 624 -548Q616 -544 615 -538Q605 -537 602 -530Q600 -522 604 -517Q650 -526 680 -497Q701 -483 699 -459Q698 -436 700 -412Q724 -414 750 -419Q752 -425 756 -425Q760 -425 765 -425Q773 -425 777 -431Q797 -429 834 -433Q860 -436 872 -436Q889 -436 904 -432Q920 -434 925 -411Q925 -402 919 -395Q912 -386 903 -386Q881 -376 859 -377Q852 -380 835 -379Q824 -378 817 -380L717 -365Q703 -366 702 -357Q700 -348 699 -340Q703 -328 699 -302Q695 -277 700 -265Q697 -258 700 -240Q702 -224 699 -216Q702 -213 699 -205Q697 -197 700 -194L705 -89Q705 -67 689 -3Q685 0 683 9Q681 19 675 22Q673 32 659 38Q648 43 645 50Q644 53 639 53Q633 53 633 48Q636 34 634 24Q633 19 635 10Q638 -3 635 -10Q626 -22 634 -55Q635 -55 635.5 -54.5Q636 -54 636 -55Q644 -56 642 -66Q642 -70 638 -67H637Q629 -66 634 -74Q642 -87 634 -92Q634 -118 634 -145Q634 -169 634 -194Q632 -212 640 -229Q625 -234 634 -263Q631 -279 631 -305Q631 -337 628 -350Q540 -337 507 -327Q452 -314 402 -355Q411 -357 411 -360Q451 -355 483 -365Q520 -373 558 -379Q596 -385 629 -398Q633 -428 623 -464Q621 -476 604 -489Q596 -496 588 -502Q581 -507 569 -503Q549 -494 532 -481Q531 -478 513 -471Q512 -467 502 -465Q495 -465 496 -460Q487 -455 479 -457Q477 -459 483 -464Q497 -475 511 -486Q518 -493 525 -500Q528 -503 533 -505Q537 -508 538 -513Q542 -514 545 -519Q550 -526 557 -528Q555 -533 558 -534Q560 -535 565 -535Q568 -546 576 -553Q584 -560 592 -567Q595 -573 603 -581Q610 -589 613 -599Q615 -608 626 -614Q645 -629 645 -644Q652 -653 645 -656Q637 -660 629 -663Q631 -662 641 -665Q651 -668 654 -674Q652 -685 670 -686Q685 -687 689 -693ZM251 -623H259Q262 -614 276 -607Q297 -586 299 -581Q298 -566 296 -550Q295 -534 310 -528Q320 -526 330 -523Q340 -520 350 -522Q364 -514 377 -506Q379 -503 385 -501Q389 -500 391 -497Q395 -489 403 -489Q412 -490 418 -488Q428 -489 433 -479Q437 -469 432 -463Q415 -459 397 -455Q382 -462 368 -455Q362 -456 355 -453Q346 -450 342 -451Q333 -451 313 -446Q305 -447 300 -441Q296 -436 297 -430Q297 -410 295 -406Q298 -396 296 -368L297 -330Q299 -325 299 -298Q295 -289 298 -273Q301 -259 299 -252Q302 -242 300 -224Q298 -208 299 -202Q302 -196 300 -180Q298 -167 301 -161Q305 -145 299 -130Q296 -126 299 -121Q303 -114 300 -110Q295 -104 299 -92Q296 -89 294 -81Q292 -70 286 -70Q282 -68 278 -71Q273 -74 271 -70Q262 -76 252 -82Q242 -88 238 -97Q232 -112 232 -127Q232 -143 233 -157Q236 -204 238 -252Q241 -260 242 -280Q243 -301 247 -311Q249 -327 250 -343Q250 -374 247 -404Q241 -404 236 -398Q232 -393 227 -389Q216 -384 211 -367Q199 -349 198 -326Q190 -316 189 -301Q187 -286 192 -273Q191 -266 185 -266Q176 -267 166 -269Q160 -276 140 -286Q133 -294 126 -299Q118 -305 117 -315Q116 -342 127 -366Q129 -382 148 -409Q164 -433 167 -448Q170 -454 173 -452Q178 -445 176 -437Q173 -431 176 -419Q178 -412 177 -405Q181 -397 182 -388Q183 -383 183 -376Q184 -369 189 -370L247 -430Q251 -458 251 -488Q249 -520 251 -550Q251 -559 252 -572Q254 -585 250 -596Q252 -601 248 -610Q244 -620 251 -623ZM301 -519L299 -513Q296 -490 301 -471Q318 -474 331 -485Q327 -497 320 -504Q316 -506 312 -514Q308 -522 301 -519Z"/>
</svg>