<svg xmlns="http://www.w3.org/2000/svg" viewBox="0 -800 1024 1024">
	<path fill="#000000" d="M381 -707L389 -701Q397 -701 417 -694Q433 -689 445 -688Q458 -685 472 -680Q486 -675 491 -661Q498 -647 489 -633Q481 -620 471 -608Q466 -596 442 -579Q421 -564 416 -548Q404 -543 385 -523Q372 -510 363 -503Q351 -499 330 -477Q311 -457 301 -451Q291 -443 286 -439Q276 -430 276 -424Q335 -434 392 -446Q450 -458 513 -458Q556 -465 568 -479L508 -539Q506 -539 504 -540Q494 -544 500 -557Q507 -570 513 -556Q540 -553 566 -543Q595 -529 626 -515Q657 -501 672 -471Q678 -459 670 -453Q662 -446 653 -441Q648 -429 637 -429Q618 -434 597 -444Q585 -436 560 -429Q539 -423 530 -419Q435 -400 342 -374Q293 -356 215 -347Q199 -340 184 -350Q170 -359 169 -376Q163 -384 159 -391Q156 -399 167 -407Q165 -423 180 -427Q194 -431 204 -441Q212 -454 233 -478Q249 -496 256 -506Q274 -523 291 -541Q308 -560 329 -574Q348 -592 362 -615Q375 -637 389 -658Q399 -665 395 -672Q392 -678 385 -684Q368 -695 381 -707ZM675 -378Q761 -387 812 -320Q819 -308 826 -296Q832 -284 832 -269Q822 -260 816 -237Q809 -212 797 -203Q790 -180 771 -162Q752 -125 720 -96Q718 -88 708 -80Q699 -72 697 -66Q687 -56 687 -46Q687 -40 699 -42Q713 -38 728 -34Q743 -31 752 -18Q759 -6 750 0Q741 6 734 13Q729 33 708 33Q688 30 667 26Q647 21 614 15Q565 7 543 -1Q523 -3 495 -24Q474 -40 461 -45Q505 -45 548 -45Q578 -47 607 -50Q623 -49 630 -63Q638 -80 647 -90Q651 -95 657 -110Q663 -125 670 -132Q673 -146 685 -170Q696 -192 699 -203Q712 -224 719 -248Q725 -272 734 -295Q730 -317 699 -317Q684 -317 670 -310L588 -292Q583 -288 566 -286Q552 -284 546 -279Q537 -279 522 -271Q502 -261 491 -265Q462 -262 436 -275Q423 -280 418 -269Q413 -258 408 -248Q399 -210 389 -173Q386 -149 381 -126Q377 -102 386 -80Q384 -75 390 -62Q398 -47 391 -38Q393 -30 390 -30Q387 -29 381 -30Q376 -30 373 -25Q372 -15 367 -12Q361 -9 353 -15Q320 -16 307 -56Q281 -72 290 -103Q300 -134 308 -166Q316 -198 331 -228Q344 -251 357 -275Q370 -299 386 -320Q391 -326 394 -326Q399 -326 407 -315Q417 -303 423 -302Q501 -340 675 -378Z"/>
</svg>