<svg xmlns="http://www.w3.org/2000/svg" viewBox="0 -800 1024 1024">
	<path fill="#000000" d="M743 -695H746Q753 -697 762 -693Q769 -690 772 -691Q799 -684 810 -657Q810 -651 812 -644Q814 -636 807 -634Q801 -628 781 -626Q732 -626 674 -612Q666 -603 643 -603Q639 -602 633 -604Q625 -607 623 -600Q605 -595 587 -590Q575 -588 562 -586Q556 -588 543 -584Q533 -581 527 -582Q509 -578 490 -574Q487 -575 479 -573Q469 -570 465 -576Q448 -561 426 -567Q417 -558 404 -557Q401 -552 390 -549Q383 -547 378 -543Q363 -544 333 -536Q328 -535 315 -531Q300 -526 289 -526Q286 -524 276 -522Q263 -519 259 -513Q237 -509 226 -503Q219 -498 199 -496Q181 -494 173 -490Q171 -491 169 -492L160 -496Q158 -497 155 -498Q122 -509 119 -511Q115 -516 104 -519Q90 -523 87 -532Q84 -538 88 -539Q97 -539 106 -538Q122 -532 127 -548Q141 -545 155 -550Q169 -555 183 -560Q202 -562 220 -567Q276 -580 286 -581Q336 -598 386 -615Q438 -627 489 -639Q506 -642 522 -646Q551 -648 603 -666Q618 -669 651 -679Q657 -678 665 -686Q670 -692 674 -692Q692 -694 706 -688Q712 -691 721 -692Q733 -691 743 -695ZM425 -532Q429 -531 425 -528Q423 -513 415 -503Q412 -498 412 -488Q412 -479 411 -475Q403 -464 402 -447Q401 -438 409 -438Q417 -440 425 -442Q459 -457 470 -464Q476 -461 485 -465Q492 -468 496 -467Q508 -458 522 -457Q534 -451 546 -450Q549 -441 567 -421Q560 -400 553 -387Q548 -374 540 -361Q541 -356 535 -354Q528 -351 527 -350Q522 -346 518 -337Q514 -328 513 -326Q506 -325 506 -319Q506 -313 513 -311Q523 -309 519 -300Q514 -291 511 -284Q512 -278 509 -277Q505 -275 503 -272Q494 -268 485 -265Q466 -260 455 -258Q445 -258 423 -253Q407 -249 395 -249Q385 -247 376 -251Q367 -256 357 -259Q349 -258 351 -248Q352 -239 350 -237Q343 -238 334 -250Q327 -259 322 -261Q311 -272 305 -286Q299 -301 293 -315Q288 -333 301 -370Q308 -389 314 -408Q328 -418 336 -432Q345 -446 354 -458Q358 -466 371 -477Q386 -489 389 -497Q408 -513 425 -532ZM592 -518Q604 -520 611 -515Q615 -516 622 -512Q627 -508 631 -510Q660 -512 668 -503Q678 -505 686 -497Q692 -491 695 -482Q705 -464 706 -446Q705 -418 707 -387Q715 -378 710 -357Q713 -333 711 -310Q713 -279 707 -252Q708 -245 708 -188Q710 -141 703 -97Q704 -89 702 -78Q700 -65 701 -59Q700 -46 699 -34Q697 -28 696 -15Q695 2 690 8Q691 16 685 26Q680 36 679 41Q673 43 670 47Q666 52 663 56Q658 56 652 66Q644 79 636 73Q632 75 629 85Q624 99 615 99Q606 108 596 98Q592 93 586 88Q580 82 572 87Q564 85 555 86Q545 86 540 79Q540 75 533 73Q529 72 529 70Q538 63 532 51Q575 35 586 26Q605 17 615 -53Q621 -97 623 -143Q628 -198 624 -242Q626 -264 627 -287Q626 -304 625 -322Q626 -357 628 -390Q626 -410 626 -430Q626 -450 619 -468Q603 -476 586 -485Q579 -488 569 -493Q559 -498 562 -508Q571 -504 578 -510Q585 -515 592 -518ZM485 -409H482Q478 -407 453 -402Q432 -394 384 -394Q378 -380 375 -365Q373 -360 373 -350Q374 -340 371 -335Q371 -330 368 -321Q364 -311 366 -305Q365 -293 378 -293Q385 -293 389 -297Q399 -298 416 -307Q438 -318 451 -318Q466 -332 470 -352Q479 -372 487 -394Q490 -400 489 -407Q489 -410 485 -409Z"/>
</svg>