<svg xmlns="http://www.w3.org/2000/svg" viewBox="0 -800 1024 1024">
	<path fill="#000000" d="M418 -695Q440 -689 439 -675Q444 -672 441 -669Q438 -665 437 -663Q440 -657 435 -652Q430 -647 425 -648Q412 -645 398 -646Q396 -642 389 -642Q381 -642 379 -641Q375 -643 369 -638Q355 -637 343 -637Q320 -635 297 -638Q287 -642 276 -646Q258 -651 265 -658Q271 -657 292 -667Q309 -673 325 -679Q333 -686 352 -686Q358 -684 365 -687Q371 -687 376 -687Q383 -691 392 -692Q405 -683 418 -695ZM758 -678Q762 -679 770 -671Q775 -669 784 -672Q794 -676 800 -673Q817 -668 822 -660Q831 -645 830 -626Q828 -622 831 -613Q833 -608 833 -603Q829 -582 833 -559Q830 -543 836 -527Q833 -505 835 -481Q833 -466 831 -451Q833 -431 831 -424Q826 -418 832 -406Q835 -398 832 -391Q830 -383 829 -376Q835 -360 831 -347Q827 -344 829 -336Q830 -330 829 -326Q829 -306 828 -286Q836 -268 831 -254Q829 -250 832 -242Q836 -233 834 -229Q832 -209 829 -189Q827 -185 831 -176Q835 -167 833 -162Q836 -140 835 -120Q833 -95 836 -71Q835 -44 834 -18Q826 9 826 13Q828 19 821 26Q814 33 815 38Q809 53 793 62Q787 64 781 57Q776 51 774 45Q773 41 767 39Q762 39 762 30Q762 25 760 23Q759 15 753 12Q747 10 742 7Q741 7 735 3Q731 1 732 -2Q747 -8 763 -11Q781 -22 777 -43Q777 -66 779 -76Q777 -99 778 -120Q780 -134 782 -140Q782 -169 784 -195Q786 -200 783 -210Q780 -219 782 -223Q788 -232 784 -243Q786 -284 788 -326Q782 -343 788 -357Q787 -364 786 -372Q790 -414 789 -457Q789 -459 786 -537Q785 -547 784 -558Q784 -568 779 -608Q777 -631 768 -649Q760 -667 750 -668Q744 -671 758 -678ZM369 -619L373 -618Q381 -612 390 -612Q400 -612 403 -597Q406 -584 412 -583Q414 -586 419 -585Q425 -584 427 -587Q435 -587 447 -591Q462 -596 479 -593Q482 -593 487 -593Q492 -594 495 -588Q498 -593 504 -589Q507 -587 509 -588Q518 -583 528 -582Q535 -575 542 -572Q545 -573 546 -570Q545 -565 549 -563Q552 -569 556 -566Q560 -562 563 -559Q571 -556 573 -548Q574 -540 576 -533Q586 -529 586 -516Q595 -507 594 -493Q590 -495 585 -490Q581 -485 584 -481Q583 -477 575 -469Q567 -461 565 -454Q562 -456 558 -452Q555 -449 552 -450Q551 -445 544 -440Q537 -434 536 -430Q533 -429 527 -422Q520 -415 515 -414Q513 -410 504 -404Q496 -399 493 -394Q490 -395 486 -390Q482 -386 480 -388Q472 -381 464 -374Q461 -376 457 -372Q453 -368 450 -368Q444 -361 436 -374Q434 -380 424 -382Q416 -384 414 -386Q404 -384 398 -388Q393 -387 388 -388Q382 -389 379 -384Q379 -372 370 -384Q356 -384 341 -379Q325 -378 293 -374Q283 -371 273 -369Q273 -366 265 -364Q257 -362 259 -356Q264 -352 250 -352Q235 -355 220 -359Q211 -361 192 -376Q188 -381 180 -387Q171 -393 169 -396Q166 -400 166 -405Q165 -406 163 -405Q160 -410 156 -415Q150 -421 143 -450Q146 -474 158 -495Q161 -500 163 -507Q165 -514 171 -515Q176 -515 177 -518Q176 -523 179 -528Q175 -535 185 -545Q183 -550 188 -553Q191 -555 191 -557Q193 -561 198 -559Q203 -557 205 -560Q206 -567 212 -570Q216 -571 223 -577Q233 -586 240 -585Q244 -572 254 -574Q255 -565 254 -558Q251 -551 248 -542Q244 -540 245 -537Q246 -534 250 -536Q263 -537 273 -542Q276 -544 281 -545Q288 -546 290 -550Q295 -551 299 -554Q304 -558 301 -563Q302 -570 295 -578Q288 -585 289 -592Q291 -596 291 -602Q292 -606 296 -604Q295 -600 297 -600Q303 -601 308 -597Q311 -589 319 -587Q326 -586 333 -582Q339 -580 337 -571Q336 -564 337 -562L367 -570Q374 -571 375 -579Q376 -588 370 -592Q369 -596 363 -593Q357 -589 354 -593Q345 -599 343 -608Q343 -611 349 -610Q361 -618 369 -619ZM459 -544Q448 -544 422 -540Q415 -535 417 -528Q418 -522 418 -516Q416 -513 417 -505Q418 -499 416 -497Q421 -489 420 -480Q419 -471 419 -461Q418 -455 417 -446Q415 -437 419 -431Q439 -427 455 -438Q467 -451 482 -463Q487 -471 499 -482Q511 -494 523 -507Q531 -523 526 -530Q487 -551 459 -544ZM232 -531L229 -526Q224 -516 213 -508Q214 -501 208 -491Q203 -483 202 -479Q192 -472 188 -441Q182 -435 191 -421Q194 -420 195 -415Q196 -410 201 -411Q203 -413 204 -412Q204 -408 206 -404Q213 -397 221 -400Q227 -402 233 -404Q238 -405 247 -402Q257 -398 263 -403Q265 -403 291 -409Q292 -412 287 -417Q281 -423 281 -426Q272 -468 288 -495Q287 -499 289 -506Q291 -514 289 -517Q286 -518 274 -518Q260 -518 254 -522Q251 -522 244 -527Q237 -533 232 -531ZM360 -526L343 -523Q337 -524 334 -517Q330 -510 328 -508Q335 -490 326 -477Q329 -463 327 -433Q326 -426 331 -426Q338 -427 346 -429Q359 -434 360 -447Q360 -461 365 -472Q369 -495 372 -519Q374 -526 369 -528Q365 -529 360 -526ZM642 -420H645Q650 -413 651 -405Q650 -391 659 -382Q664 -380 667 -371Q670 -362 674 -359Q681 -336 681 -294Q679 -282 677 -271Q679 -264 676 -256Q673 -248 666 -251Q652 -263 649 -268Q636 -285 631 -302Q625 -315 633 -332Q635 -353 639 -372Q641 -377 638 -390Q642 -403 642 -420ZM395 -342Q398 -344 402 -341Q409 -340 418 -341Q428 -342 429 -332L413 -311Q407 -302 394 -304Q379 -301 364 -299Q337 -297 332 -295Q311 -297 290 -299Q279 -303 267 -307Q273 -313 281 -315Q342 -335 362 -338Q379 -340 395 -342ZM406 -119Q405 -104 404 -89Q406 -68 404 -47Q398 -38 401 -27Q400 -25 396 -21L387 -10Q385 -7 382 -4Q373 -3 363 -3Q358 -6 355 -16Q351 -27 346 -30Q340 -33 337 -46Q336 -58 326 -59Q306 -62 311 -71Q318 -75 327 -80Q336 -86 346 -80Q353 -88 353 -107Q354 -112 353 -119Q352 -123 348 -121L321 -95Q315 -92 307 -85Q296 -75 290 -73Q283 -65 280 -54Q275 -48 272 -39Q270 -30 260 -28Q252 -32 247 -36Q241 -41 239 -48Q238 -53 231 -59Q224 -64 224 -68Q215 -77 226 -97Q233 -117 252 -135Q258 -138 263 -145Q269 -154 274 -155Q277 -151 278 -144Q280 -131 284 -128Q289 -123 287 -114Q289 -109 300 -111L344 -144Q352 -147 354 -155Q355 -164 356 -171Q357 -188 354 -200Q350 -213 331 -206Q310 -204 288 -200Q276 -197 264 -195Q253 -192 235 -186L201 -177Q188 -171 160 -173Q153 -179 144 -180Q136 -181 128 -182Q127 -187 130 -188Q134 -189 137 -190Q184 -209 233 -223Q287 -240 304 -240Q313 -244 344 -248Q358 -255 385 -257Q390 -261 403 -261Q414 -261 418 -263Q433 -269 451 -268Q456 -267 464 -272Q471 -276 475 -276Q483 -283 499 -277Q501 -277 518 -280Q527 -280 529 -278Q528 -270 533 -263Q539 -255 530 -248Q523 -250 519 -246Q515 -242 511 -239Q500 -238 480 -232Q468 -228 452 -228Q427 -220 401 -219Q395 -221 393 -216Q391 -212 397 -209Q401 -207 406 -206Q411 -205 413 -199Q412 -185 411 -171Q408 -169 410 -163Q411 -157 410 -155Q408 -137 406 -119ZM457 -178Q464 -170 486 -157Q499 -158 515 -144Q521 -141 523 -132Q521 -125 518 -116Q515 -108 505 -110Q495 -106 483 -106Q480 -104 472 -109Q461 -92 446 -100Q443 -97 437 -102Q433 -106 429 -104Q428 -102 427 -101Q424 -100 423 -108Q425 -118 430 -128Q435 -138 434 -151Q440 -163 432 -169Q431 -171 431 -172Q434 -170 440 -171Q455 -167 457 -178Z"/>
</svg>