<svg xmlns="http://www.w3.org/2000/svg" viewBox="0 -800 1024 1024">
	<path fill="#000000" d="M642 -788H649Q667 -785 685 -782Q694 -775 699 -775Q704 -755 699 -733Q696 -721 693 -710Q689 -706 690 -696Q691 -689 689 -686Q687 -684 684 -668Q683 -665 678 -643Q679 -622 677 -596Q690 -591 705 -590Q712 -587 717 -591Q722 -586 727 -587Q731 -589 738 -590Q748 -587 757 -590Q760 -592 766 -589Q772 -586 775 -591Q787 -588 799 -586Q799 -561 787 -550Q786 -540 776 -538Q767 -536 761 -532Q748 -533 736 -529Q725 -524 706 -521Q685 -517 677 -513Q666 -512 663 -504Q660 -495 658 -488Q658 -480 654 -477Q650 -473 647 -469Q644 -445 630 -422Q633 -413 625 -411Q624 -396 615 -382Q606 -381 603 -379Q597 -376 602 -370Q627 -374 651 -378Q666 -383 681 -385Q684 -383 689 -386Q695 -390 699 -386Q705 -391 717 -393Q730 -395 735 -398Q741 -397 752 -401Q763 -406 770 -404Q773 -407 783 -406Q791 -405 796 -407Q806 -405 816 -404Q819 -399 825 -403Q830 -406 833 -404Q835 -402 839 -401Q845 -400 848 -395Q856 -397 857 -392Q857 -388 857 -383Q867 -376 861 -365Q856 -355 846 -349Q839 -349 822 -344Q800 -338 787 -342Q776 -335 766 -335Q757 -338 754 -340Q753 -340 752 -335Q744 -340 741 -335Q726 -329 704 -331Q691 -327 678 -324Q671 -327 663 -319Q674 -312 685 -305Q699 -304 702 -292Q705 -281 706 -267Q706 -257 729 -257Q741 -259 752 -261Q773 -259 787 -251Q794 -254 800 -248Q806 -243 805 -236Q805 -211 787 -207Q781 -209 771 -206Q761 -204 757 -205Q740 -200 710 -198Q703 -197 701 -189Q699 -182 701 -173Q692 -173 694 -163Q696 -153 689 -150Q691 -138 689 -118Q689 -114 685 -107Q678 -97 685 -94L738 -100Q747 -99 753 -101Q770 -104 788 -104Q812 -104 825 -98Q847 -92 847 -66Q856 -48 837 -43Q833 -39 824 -40Q817 -41 814 -39Q807 -41 799 -40Q796 -36 790 -38Q784 -39 778 -39Q775 -31 766 -36Q759 -38 746 -36Q733 -34 726 -36Q723 -33 716 -35Q711 -37 709 -34Q703 -35 690 -33Q679 -31 671 -34Q669 -39 664 -37Q658 -35 656 -29Q651 -32 642 -30Q634 -28 630 -29Q625 -26 617 -30Q611 -33 607 -32Q592 -26 564 -37Q533 -41 504 -55Q501 -58 502 -60Q512 -64 521 -69Q533 -69 556 -74Q579 -79 592 -79Q598 -81 607 -82Q616 -83 619 -91Q623 -125 629 -146Q629 -155 633 -165Q637 -175 632 -186Q613 -186 592 -181Q587 -190 578 -188L548 -193Q531 -200 519 -211Q522 -211 528 -217Q535 -225 542 -220Q552 -224 561 -228Q576 -229 613 -237Q622 -238 630 -240Q646 -242 640 -267Q641 -278 635 -286Q629 -295 619 -296Q616 -298 610 -296Q602 -293 598 -296Q595 -301 600 -303Q609 -305 610 -313Q605 -315 592 -313Q581 -311 575 -313Q554 -306 531 -305Q526 -303 518 -305Q510 -307 506 -305Q477 -313 448 -322Q438 -325 432 -329Q423 -336 432 -343Q439 -338 444 -338Q460 -341 472 -342Q497 -347 521 -353Q542 -360 587 -364Q593 -368 590 -372Q586 -376 583 -381Q577 -393 587 -425Q594 -460 595 -477Q603 -490 582 -497Q572 -499 562 -501Q542 -507 518 -511Q504 -512 495 -516Q492 -523 502 -525Q509 -526 510 -529Q529 -531 548 -537Q573 -537 599 -552Q610 -554 609 -563Q608 -573 610 -581Q611 -613 615 -641Q615 -678 617 -714Q617 -738 610 -760Q598 -764 600 -774Q602 -784 615 -784Q620 -787 628 -786Q638 -785 642 -788ZM313 -466H315Q323 -465 332 -465Q340 -465 345 -457Q352 -451 355 -442Q358 -434 363 -426Q380 -411 370 -389Q369 -361 333 -331Q338 -326 336 -320Q334 -314 334 -309Q326 -297 317 -288Q303 -280 281 -278Q270 -275 259 -273Q214 -271 200 -272L195 -250Q189 -241 171 -237Q163 -228 150 -250Q139 -282 137 -289Q137 -296 137 -303Q142 -338 145 -370Q145 -390 147 -410Q149 -430 137 -445Q132 -455 132 -459Q136 -461 144 -457Q149 -454 153 -454Q167 -447 181 -441Q189 -434 196 -428Q238 -448 279 -460Q281 -461 313 -466ZM287 -410L280 -409Q268 -405 256 -402Q237 -393 210 -397Q203 -396 202 -391Q201 -385 200 -381Q202 -370 200 -363Q200 -353 198 -341Q199 -339 197 -333Q195 -326 198 -321Q193 -306 201 -303Q203 -304 230 -313Q267 -324 278 -330Q294 -351 297 -388Q298 -395 297 -402Q296 -413 287 -410Z"/>
</svg>