<svg xmlns="http://www.w3.org/2000/svg" viewBox="0 -800 1024 1024">
	<path fill="#000000" d="M500 -700Q506 -702 508 -696Q519 -690 529 -685Q537 -685 549 -678Q562 -671 569 -671Q579 -655 591 -642Q593 -633 587 -630Q580 -627 575 -622Q572 -613 564 -607Q555 -602 548 -598Q547 -593 542 -592Q538 -592 538 -587Q526 -576 518 -565Q507 -563 498 -554Q489 -544 481 -537Q448 -508 438 -503Q430 -496 419 -490Q408 -483 404 -472Q413 -468 430 -471Q444 -474 451 -473Q463 -474 482 -464Q498 -455 506 -454Q532 -459 557 -464Q624 -481 668 -473Q683 -470 698 -466Q713 -462 723 -448Q734 -443 748 -423Q757 -410 763 -405Q773 -402 773 -392Q773 -383 776 -374Q774 -359 762 -331Q764 -321 757 -305Q756 -301 748 -295Q741 -290 739 -285Q735 -283 730 -276Q725 -269 720 -266Q710 -263 704 -255Q697 -247 691 -240Q680 -223 670 -227L642 -204Q629 -196 618 -189Q610 -180 598 -173Q577 -160 556 -143Q546 -137 536 -131Q529 -129 520 -119Q511 -108 504 -106Q500 -101 492 -96Q478 -87 474 -79Q487 -75 501 -79Q547 -90 596 -87Q619 -88 639 -84Q643 -73 663 -69Q681 -67 687 -53Q691 -50 694 -43Q697 -35 702 -33Q689 -18 666 -18Q653 -15 635 -18Q621 -14 606 -11Q587 -7 567 -8Q547 -10 526 -9Q505 -8 485 -13Q479 -10 464 -10Q452 -10 446 -7Q424 -5 402 -4Q394 -2 379 -3Q361 -4 354 -2Q342 -9 323 -10Q314 -14 293 -17Q276 -19 269 -22Q278 -28 294 -33Q311 -38 317 -42Q325 -52 336 -52Q347 -53 356 -55Q370 -65 382 -78Q394 -86 402 -96Q410 -107 419 -116Q433 -150 434 -154Q445 -189 452 -225Q452 -231 456 -241Q461 -252 460 -258Q464 -286 467 -314Q465 -323 465 -338Q466 -356 462 -364Q464 -370 462 -373Q460 -376 455 -376Q449 -376 443 -372Q434 -371 416 -362Q398 -353 387 -352Q372 -346 356 -341Q335 -332 313 -323Q289 -309 262 -301Q256 -301 226 -287Q217 -278 199 -275Q195 -274 189 -267Q181 -257 172 -260Q168 -266 173 -273Q178 -280 182 -285Q202 -305 210 -308Q221 -320 233 -326Q246 -333 257 -341Q262 -341 267 -346Q273 -352 277 -352Q288 -357 295 -364Q356 -398 421 -422Q426 -423 426 -428Q426 -432 421 -435Q417 -435 412 -438Q404 -443 401 -441Q395 -443 373 -443Q359 -450 340 -431Q311 -407 297 -407Q289 -407 284 -411Q267 -410 280 -441Q277 -462 287 -473Q297 -481 308 -494Q325 -513 334 -519L373 -558Q454 -642 458 -646Q461 -656 472 -661Q484 -664 489 -685Q501 -687 500 -700ZM617 -419Q564 -409 554 -405Q543 -404 545 -392Q546 -383 553 -374Q553 -365 557 -356Q560 -348 556 -338Q557 -330 550 -317Q544 -306 544 -299Q538 -288 538 -275Q540 -249 531 -233Q532 -218 529 -204Q531 -198 533 -198Q535 -198 544 -206Q549 -211 552 -212Q626 -282 656 -328Q659 -330 662 -339Q665 -347 668 -349Q677 -363 683 -394Q685 -411 668 -414Q632 -422 617 -419Z"/>
</svg>