<svg xmlns="http://www.w3.org/2000/svg" viewBox="0 -800 1024 1024">
	<path fill="#000000" d="M508 -710L515 -709Q530 -704 549 -706Q559 -712 565 -701Q576 -695 582 -684Q583 -676 583 -668Q583 -664 580 -661Q576 -659 573 -656Q565 -656 560 -651Q555 -646 549 -643Q540 -645 536 -639Q532 -634 527 -630Q517 -632 503 -624Q500 -620 490 -616Q481 -613 478 -607Q462 -601 450 -590Q424 -578 398 -566Q378 -566 363 -553Q358 -555 350 -548Q345 -543 341 -543Q321 -533 311 -527Q302 -528 294 -516Q286 -512 277 -508Q270 -501 254 -506Q239 -514 223 -513Q219 -517 223 -520Q226 -522 232 -522Q248 -533 266 -542L304 -564Q326 -580 384 -612Q394 -620 399 -623L428 -646Q436 -651 443 -657Q447 -659 454 -666Q462 -674 468 -676Q478 -689 488 -702Q490 -708 499 -708Q506 -708 508 -710ZM425 -562Q428 -558 437 -554Q453 -556 468 -558Q494 -558 497 -557Q518 -560 531 -533Q529 -526 537 -512Q536 -498 535 -484Q535 -478 539 -478Q545 -477 551 -480Q562 -483 572 -487Q587 -492 591 -492Q597 -499 613 -499Q617 -502 626 -503Q635 -504 639 -506Q679 -508 702 -507Q721 -502 739 -498Q754 -490 769 -478Q771 -473 781 -464Q793 -452 795 -444Q800 -436 797 -426Q800 -420 803 -414Q802 -389 794 -366Q792 -358 781 -329Q778 -315 768 -303Q766 -293 766 -282Q767 -279 762 -277Q757 -275 759 -271Q759 -268 755 -264Q752 -261 751 -258Q747 -246 742 -235Q741 -227 732 -217Q724 -207 722 -203Q702 -182 681 -162Q678 -156 672 -156Q666 -156 661 -155Q647 -163 638 -176Q620 -204 602 -232Q595 -236 592 -242Q589 -248 585 -254Q584 -257 585 -257Q587 -256 588 -255Q607 -236 628 -231Q640 -227 654 -225Q669 -242 683 -259Q691 -268 694 -279Q697 -290 702 -300Q709 -314 715 -328Q717 -339 725 -364Q736 -398 737 -418Q732 -440 716 -449Q704 -457 691 -457Q678 -456 665 -455Q646 -454 610 -446Q573 -435 562 -430Q554 -430 546 -425Q537 -420 536 -412Q534 -400 535 -394Q531 -385 537 -372Q541 -360 541 -345Q534 -322 535 -304Q540 -294 531 -269Q528 -252 536 -236Q535 -226 540 -217Q537 -205 533 -194Q529 -177 531 -166Q531 -162 530 -159L528 -145Q528 -140 527 -138Q523 -133 526 -127Q528 -122 531 -117Q530 -105 528 -94Q522 -86 527 -76Q525 -73 527 -64Q529 -56 527 -52Q524 -49 525 -41Q526 -33 524 -29Q519 -25 522 -17Q525 -10 523 -7Q521 2 518 10Q521 18 515 29Q513 31 513 38Q513 48 507 49Q500 48 495 58Q491 66 488 67Q482 59 476 50Q472 30 473 21Q468 5 470 -20Q470 -46 471 -49Q471 -63 473 -77Q475 -90 471 -102Q473 -121 474 -141Q471 -171 476 -196Q478 -287 476 -376Q474 -380 476 -389Q479 -400 473 -404Q452 -402 444 -397Q422 -394 406 -387Q393 -384 380 -382Q368 -380 368 -367Q369 -352 369 -338Q362 -322 366 -302Q363 -278 363 -254Q359 -250 364 -242Q368 -236 367 -232Q364 -225 366 -216Q362 -210 345 -203Q334 -199 325 -202Q308 -214 304 -227Q290 -235 290 -247Q289 -259 287 -271Q292 -286 294 -301Q296 -305 296 -316Q296 -330 302 -336Q302 -360 319 -397Q334 -430 352 -451Q357 -460 362 -470Q367 -480 378 -485Q379 -479 373 -473Q364 -464 372 -447Q371 -442 375 -436Q379 -429 379 -424Q378 -419 381 -415Q384 -412 389 -413Q417 -429 447 -443Q453 -447 461 -450Q469 -453 474 -460V-520Q468 -529 458 -530Q449 -532 440 -535Q430 -535 424 -541Q417 -548 419 -557Q419 -561 421 -561Q423 -562 425 -562Z"/>
</svg>