<svg xmlns="http://www.w3.org/2000/svg" viewBox="0 -800 1024 1024">
	<path fill="#000000" d="M438 -690Q455 -692 470 -684Q474 -683 477 -675Q479 -669 483 -666Q491 -661 488 -653Q485 -645 486 -637Q491 -608 485 -598Q480 -594 484 -588Q488 -582 486 -579Q481 -563 483 -545Q480 -540 480 -527Q480 -516 477 -510Q479 -504 479 -489Q469 -480 480 -471Q480 -464 479 -458Q481 -451 498 -454Q507 -458 512 -445Q520 -444 525 -435Q522 -423 513 -415Q508 -410 501 -409Q494 -408 488 -406Q478 -402 476 -392Q473 -382 469 -373Q469 -362 469 -351Q471 -336 469 -318Q471 -310 482 -319Q495 -335 506 -341Q512 -350 521 -354Q521 -351 519 -351Q518 -344 509 -337Q497 -313 481 -289Q477 -283 471 -277Q466 -271 465 -262Q468 -255 466 -237Q464 -223 465 -216Q465 -206 464 -196Q461 -180 461 -163Q466 -157 464 -149Q462 -142 462 -134Q464 -120 461 -108Q460 -90 459 -72Q457 -70 457 -60Q457 -52 454 -48Q449 -45 448 -39Q447 -34 444 -29Q438 -26 434 -31Q430 -37 425 -40Q415 -40 414 -44Q413 -53 405 -54Q399 -61 398 -68Q389 -74 380 -80Q370 -86 366 -95Q365 -103 375 -96Q377 -93 383 -94Q390 -96 392 -94Q401 -92 409 -107Q409 -136 412 -162Q411 -180 415 -195Q415 -201 415 -207Q415 -213 410 -214Q401 -210 387 -198Q386 -196 384 -195V-194Q366 -176 345 -166Q341 -167 340 -163Q339 -158 338 -157Q340 -153 338 -152Q332 -152 326 -152L313 -141Q307 -139 302 -136Q296 -132 290 -136Q283 -146 276 -150Q276 -155 269 -167Q259 -176 266 -187Q293 -196 310 -204Q331 -221 348 -227Q352 -230 356 -233V-232Q358 -233 360 -235L381 -249Q387 -253 392 -256Q396 -261 407 -267Q418 -273 422 -279V-353Q421 -361 422 -370Q423 -379 416 -382Q411 -380 405 -378Q400 -378 393 -372Q386 -365 379 -367Q362 -375 344 -381Q341 -385 331 -386Q322 -387 319 -391Q321 -394 330 -399Q343 -403 369 -416Q396 -430 411 -434Q422 -435 423 -445Q425 -455 426 -464Q423 -495 423 -496Q423 -510 422 -524Q423 -534 423 -544Q422 -559 426 -572Q425 -577 423 -583Q429 -600 429 -619Q427 -624 428 -636Q429 -650 425 -655Q417 -660 408 -665Q406 -667 400 -670Q394 -673 395 -676Q404 -678 412 -681Q426 -683 438 -690ZM696 -568H701Q713 -566 721 -555Q725 -552 732 -555Q739 -558 742 -557Q757 -541 744 -519Q746 -508 734 -502Q719 -489 714 -471Q706 -466 705 -458Q703 -452 697 -451Q691 -450 686 -448Q684 -444 683 -443L676 -431Q675 -430 673 -426Q653 -406 645 -386Q636 -366 642 -354Q642 -352 647 -347Q652 -342 651 -338Q651 -293 652 -287Q656 -282 654 -266Q656 -236 652 -204Q648 -193 649 -187Q647 -169 650 -151Q647 -138 657 -123Q659 -112 666 -109Q682 -110 697 -115Q701 -115 709 -118Q717 -121 724 -120Q728 -119 743 -121Q753 -116 766 -114Q780 -114 783 -111Q784 -104 792 -101Q800 -98 806 -103Q817 -104 817 -119Q821 -141 825 -163Q833 -201 833 -220Q836 -230 836 -249Q836 -272 839 -280Q841 -317 834 -348Q832 -372 820 -383Q806 -385 794 -382Q776 -377 742 -363Q735 -365 727 -357Q720 -350 715 -351Q704 -351 696 -347Q682 -358 672 -359Q669 -367 676 -372Q682 -377 685 -383Q688 -389 697 -387Q703 -394 712 -394Q734 -408 747 -410Q770 -420 796 -424Q814 -427 834 -426Q843 -428 850 -422Q857 -416 864 -411Q873 -405 878 -389Q884 -383 886 -372Q891 -370 895 -359Q899 -353 896 -343Q893 -333 894 -329Q899 -319 901 -306Q899 -304 897 -284Q896 -273 894 -263Q894 -255 893 -245Q891 -242 891 -233Q891 -223 887 -218Q891 -195 883 -173Q885 -153 882 -134Q878 -127 878 -117Q875 -107 876 -98Q870 -84 866 -68Q859 -64 856 -57Q853 -50 849 -44Q844 -39 840 -43Q835 -46 831 -48Q826 -49 821 -55Q816 -62 813 -64Q807 -67 805 -72Q802 -77 799 -81Q790 -85 784 -81Q780 -77 770 -77Q762 -77 759 -75Q745 -76 731 -77Q709 -77 707 -76Q682 -75 657 -74Q647 -85 636 -88Q633 -93 622 -99Q610 -106 607 -113Q595 -137 595 -149Q596 -197 602 -242Q610 -295 617 -348Q619 -362 616 -376Q623 -391 629 -407Q641 -435 646 -449Q647 -454 664 -502Q666 -505 670 -519Q674 -533 680 -540Q684 -546 680 -551Q675 -555 673 -559Q674 -565 685 -565Q693 -565 696 -568ZM111 -443H116Q120 -440 132 -440Q145 -440 151 -435Q155 -427 164 -427Q173 -427 181 -432Q191 -434 202 -437Q213 -441 225 -437Q244 -438 262 -431Q269 -432 272 -427Q275 -423 274 -415Q279 -400 272 -383Q274 -375 261 -358Q261 -353 255 -348Q248 -342 248 -339Q244 -337 246 -333Q248 -329 253 -331Q259 -330 257 -324Q254 -318 252 -313Q253 -303 240 -296Q211 -296 198 -297Q188 -298 178 -297Q168 -297 164 -305Q150 -322 143 -313Q137 -296 139 -277Q140 -272 138 -269Q135 -265 131 -266Q123 -265 112 -274Q96 -282 86 -298Q76 -316 81 -332Q81 -346 88 -357Q95 -367 99 -379Q106 -391 112 -403Q114 -409 118 -415Q122 -421 120 -428Q118 -432 113 -435Q108 -439 111 -443ZM208 -401L201 -397Q174 -397 162 -398Q156 -399 153 -394Q150 -389 150 -383Q147 -376 147 -346Q146 -341 145 -334Q143 -327 151 -325Q171 -326 189 -330Q200 -334 205 -346Q209 -357 213 -367Q216 -380 218 -393Q220 -398 216 -401Q212 -404 208 -401ZM684 -257L697 -256Q705 -252 715 -253Q724 -254 735 -253Q745 -251 756 -251Q758 -247 766 -245Q772 -243 775 -241Q783 -234 767 -216Q749 -216 732 -219Q722 -221 718 -222Q699 -222 692 -229Q681 -238 669 -243Q665 -250 672 -253Q674 -254 684 -257Z"/>
</svg>