<svg xmlns="http://www.w3.org/2000/svg" viewBox="0 -800 1024 1024">
	<path fill="#000000" d="M527 -663Q539 -662 552 -656Q563 -653 574 -650Q591 -637 605 -617Q613 -593 605 -580Q606 -571 595 -561Q587 -554 586 -550Q587 -546 582 -543Q577 -540 577 -537Q571 -528 564 -519Q552 -516 543 -502Q541 -495 536 -489Q531 -483 537 -477Q557 -477 577 -477Q583 -474 594 -474Q609 -473 615 -470Q629 -469 642 -469Q659 -479 679 -510L719 -550Q726 -557 732 -567Q742 -583 748 -587Q750 -595 756 -602Q762 -609 752 -615Q749 -612 741 -612Q730 -612 726 -607Q696 -599 691 -599Q674 -608 654 -606Q648 -608 643 -615Q640 -619 646 -622Q668 -630 690 -638Q703 -642 715 -647Q727 -647 738 -650Q746 -652 752 -649Q758 -646 765 -643Q775 -638 784 -634Q790 -634 798 -626Q804 -620 807 -619Q816 -611 818 -602Q818 -577 802 -564Q797 -563 793 -555Q789 -548 784 -547Q777 -536 758 -518Q735 -497 726 -496Q713 -495 704 -488Q697 -482 690 -477Q684 -475 677 -472Q672 -469 677 -464Q706 -457 742 -452Q762 -447 781 -443Q798 -439 814 -433Q826 -433 831 -431Q848 -429 863 -420Q870 -422 879 -416Q884 -412 888 -412Q901 -408 909 -402Q898 -395 905 -390Q898 -390 890 -390Q886 -391 886 -389Q888 -385 887 -383Q884 -387 882 -385Q881 -382 880 -376Q859 -381 837 -387Q834 -390 826 -390Q821 -390 818 -393Q797 -398 776 -403Q766 -407 751 -409Q706 -419 694 -422Q673 -425 653 -432Q648 -432 614 -442Q605 -438 601 -437Q600 -438 602 -441Q599 -444 592 -445Q583 -446 580 -449Q559 -448 523 -465Q520 -463 515 -457Q511 -450 506 -448Q499 -436 491 -425Q485 -419 478 -410Q471 -401 460 -404Q444 -385 442 -382Q433 -371 423 -367Q423 -364 418 -363Q413 -362 414 -356Q410 -355 406 -350Q402 -345 400 -345Q395 -336 380 -330Q377 -322 370 -318Q362 -314 356 -308Q345 -296 329 -297Q315 -288 303 -297Q324 -311 332 -319Q354 -334 392 -381Q398 -388 404 -394Q411 -399 413 -408Q390 -423 367 -433Q347 -443 341 -450Q332 -456 340 -453Q347 -459 360 -459Q371 -459 392 -452Q411 -444 426 -434Q434 -432 438 -438Q441 -444 447 -449Q450 -456 457 -467Q466 -480 468 -487Q466 -492 463 -493Q459 -494 457 -488Q448 -487 437 -494Q426 -501 421 -501Q406 -506 390 -512Q380 -517 370 -526Q376 -528 390 -532Q404 -534 417 -536Q423 -534 428 -535Q435 -536 446 -527Q455 -523 465 -520Q475 -518 482 -508Q491 -518 501 -543Q510 -564 517 -574Q518 -578 526 -589Q535 -602 536 -612Q530 -614 511 -606Q490 -605 469 -604Q458 -603 446 -594Q428 -576 418 -560Q416 -557 415 -558Q416 -564 413 -568Q405 -557 397 -566Q399 -572 394 -581Q391 -587 391 -591Q389 -609 397 -625Q397 -628 399 -629Q402 -628 407 -627Q411 -630 416 -623Q420 -617 422 -617Q442 -628 460 -637Q494 -652 527 -663ZM221 -554H223Q226 -539 229 -524Q235 -515 232 -506Q229 -497 230 -487Q234 -477 231 -468Q229 -459 228 -449Q220 -444 217 -437Q213 -429 208 -422Q187 -408 176 -383Q170 -379 163 -375Q156 -371 161 -364Q172 -348 183 -336Q199 -324 198 -308Q208 -290 208 -280Q206 -277 208 -270Q210 -264 208 -261Q210 -257 210 -246Q210 -237 212 -232Q206 -213 212 -188Q210 -182 214 -167Q208 -153 212 -137Q214 -98 210 -80Q213 -63 207 -47Q204 -42 203 -35Q202 -27 196 -29Q174 -30 169 -48Q161 -55 156 -74Q152 -89 147 -95Q155 -106 155 -120Q158 -134 158 -150Q159 -160 160 -171Q162 -207 166 -241Q167 -249 167 -257Q168 -260 168 -277Q166 -281 167 -289Q169 -297 166 -301Q163 -315 157 -329Q156 -337 145 -349Q133 -362 134 -373Q122 -403 133 -423Q142 -440 169 -469Q171 -480 181 -486Q182 -493 192 -503Q203 -514 204 -522Q213 -538 221 -554ZM644 -356H646Q652 -349 658 -345Q665 -346 665 -342Q665 -337 660 -336Q658 -333 660 -328Q662 -324 661 -323Q658 -323 653 -320Q645 -316 642 -317Q630 -309 615 -306Q595 -302 579 -293Q550 -297 520 -301L494 -312Q489 -314 490 -316Q494 -320 501 -317Q506 -326 522 -328Q543 -334 562 -343Q566 -343 598 -354Q603 -353 613 -354Q626 -356 632 -353Q634 -345 640 -347Q646 -348 644 -356ZM754 -280Q759 -280 761 -271Q766 -269 765 -265Q764 -261 763 -257Q769 -253 766 -249Q763 -245 757 -244Q749 -243 740 -234Q732 -235 725 -232Q723 -227 716 -228Q710 -229 708 -224Q697 -224 689 -219Q683 -220 673 -214Q656 -211 639 -208Q625 -198 609 -195Q605 -195 605 -193Q606 -188 609 -183Q613 -154 616 -125Q620 -117 618 -106Q617 -96 617 -85Q623 -72 614 -63Q616 -54 614 -46Q612 -38 607 -15Q609 -11 604 -7Q599 -3 599 -1Q597 3 594 1Q591 -1 588 -2Q569 -9 571 -22L554 -38Q550 -42 539 -47Q526 -53 521 -61Q515 -60 509 -53Q505 -48 500 -40Q501 -34 497 -31Q494 -28 491 -25Q491 -24 491 -23Q487 -26 483 -29Q483 -35 480 -36Q476 -38 471 -40Q470 -44 464 -46Q459 -48 458 -50Q459 -56 453 -62Q448 -67 448 -69Q439 -74 440 -86Q441 -98 452 -102Q459 -118 481 -124Q499 -129 511 -115Q515 -110 518 -103Q521 -96 529 -100Q532 -103 533 -102Q534 -98 529 -95Q529 -79 546 -68Q550 -63 559 -63Q566 -87 569 -113Q570 -139 571 -165Q571 -171 570 -178Q569 -186 562 -184Q555 -186 543 -181Q535 -178 530 -178Q521 -175 511 -173Q504 -173 496 -171Q487 -167 472 -167Q457 -167 452 -166Q444 -172 432 -166Q419 -174 405 -176Q404 -184 391 -190Q391 -192 385 -195Q379 -198 380 -200Q386 -198 390 -202Q406 -201 422 -204Q443 -206 463 -208Q485 -215 506 -221Q525 -223 534 -227Q537 -229 538 -228Q539 -223 542 -220Q548 -226 554 -234Q566 -235 577 -237Q596 -247 620 -251Q630 -255 639 -257Q653 -262 667 -267Q676 -270 684 -273Q683 -277 685 -277Q690 -278 694 -275Q710 -279 715 -272Q728 -280 746 -278Q748 -272 754 -280ZM779 -142L784 -141Q789 -135 796 -135Q803 -134 809 -132Q815 -129 821 -127Q827 -126 830 -120Q838 -118 843 -114Q849 -109 845 -102Q845 -99 839 -95Q832 -90 831 -84Q825 -83 815 -75Q802 -66 795 -64Q789 -60 783 -60Q782 -56 772 -56Q772 -47 765 -41Q758 -35 749 -36Q741 -38 734 -37Q741 -49 745 -77Q748 -97 750 -104Q749 -108 751 -112Q754 -120 751 -123Q749 -127 745 -132Q741 -137 748 -141Q758 -140 779 -142ZM496 -108Q491 -103 492 -101Q489 -95 493 -90Q497 -85 504 -89Q514 -91 511 -99Q506 -110 496 -108Z"/>
</svg>