<svg xmlns="http://www.w3.org/2000/svg" viewBox="0 -800 1024 1024">
	<path fill="#000000" d="M497 -603Q515 -604 532 -600Q536 -595 542 -587Q551 -579 554 -575Q559 -568 555 -561Q561 -541 563 -518Q560 -504 561 -492Q557 -483 557 -465Q557 -443 553 -436Q548 -431 550 -426Q551 -421 551 -416Q553 -409 551 -402Q548 -396 547 -390Q540 -360 543 -323Q540 -311 543 -254Q537 -231 540 -206Q539 -195 538 -184Q539 -167 534 -153Q530 -152 527 -146Q523 -138 518 -142Q502 -153 499 -163Q490 -175 484 -215Q492 -219 492 -225Q495 -267 498 -310Q499 -336 502 -360Q501 -396 507 -453Q513 -514 513 -539Q511 -542 510 -551Q508 -561 504 -565Q493 -567 482 -563Q471 -560 462 -556Q447 -545 430 -538Q424 -535 416 -532Q408 -529 404 -523Q397 -519 400 -514Q403 -509 405 -505Q411 -489 413 -473Q417 -456 418 -440Q416 -434 421 -432Q426 -430 431 -433Q449 -436 466 -430Q471 -432 475 -426Q479 -420 477 -415Q479 -403 472 -402Q467 -395 460 -393Q448 -389 444 -390Q427 -389 414 -382Q407 -366 406 -348Q407 -343 404 -336Q400 -327 405 -324Q432 -331 454 -332Q483 -334 489 -319Q492 -314 494 -309Q496 -305 490 -303Q487 -303 482 -298Q476 -293 472 -292Q460 -288 450 -289Q417 -289 401 -286Q393 -278 390 -265Q381 -256 379 -244Q376 -231 374 -219Q368 -218 365 -209Q362 -201 359 -200Q358 -192 352 -189Q347 -185 341 -180Q335 -179 329 -186Q324 -192 322 -199Q323 -202 317 -208Q317 -214 313 -224Q308 -239 309 -247Q318 -257 328 -281Q324 -289 314 -290Q304 -291 295 -293Q290 -293 291 -297Q293 -302 298 -299Q319 -303 336 -312Q350 -347 357 -384Q358 -399 342 -401Q338 -405 331 -407Q325 -410 326 -415Q328 -419 332 -416Q356 -418 362 -423Q369 -457 363 -474Q362 -484 361 -486Q359 -493 355 -494Q343 -496 333 -502Q328 -500 319 -506Q313 -510 308 -510Q296 -513 289 -523Q292 -518 296 -519Q300 -520 302 -525Q315 -522 333 -537Q338 -536 347 -542Q353 -546 356 -547L406 -576Q432 -588 438 -592Q451 -600 467 -600Q482 -601 497 -603ZM774 -567L778 -565Q783 -565 787 -557Q790 -550 794 -549Q800 -549 800 -544Q801 -540 801 -536Q802 -518 794 -503Q794 -498 791 -490Q787 -480 788 -475Q783 -459 807 -440Q819 -433 831 -427Q840 -423 851 -420Q861 -417 870 -410Q884 -408 897 -401Q918 -392 928 -376Q928 -373 934 -371Q938 -370 939 -367Q946 -365 951 -343Q948 -334 948 -324Q947 -314 940 -308Q941 -303 933 -298Q928 -294 926 -291Q925 -288 923 -289Q921 -290 919 -291Q916 -293 914 -289Q908 -287 908 -279Q908 -270 899 -270Q896 -264 889 -261Q883 -258 877 -255Q874 -248 870 -254Q866 -251 862 -245Q857 -237 853 -236Q839 -230 827 -219Q825 -214 814 -214Q804 -214 802 -207Q798 -202 789 -202Q780 -202 771 -202Q766 -202 757 -201Q751 -204 742 -203Q729 -201 724 -206Q718 -202 716 -207Q714 -213 711 -217Q711 -224 699 -226Q691 -232 685 -240Q697 -242 708 -245Q734 -243 742 -243Q760 -240 772 -247Q799 -256 821 -269Q846 -291 870 -314Q874 -324 879 -333Q884 -342 882 -352Q873 -366 847 -372Q838 -378 828 -381Q810 -390 792 -400Q785 -407 777 -413Q768 -419 765 -427Q757 -435 750 -451Q742 -462 740 -488Q739 -491 739 -499Q739 -509 736 -512Q728 -510 711 -501Q700 -495 692 -492Q689 -490 677 -485Q666 -481 662 -475Q667 -466 665 -456Q663 -446 662 -437Q666 -429 665 -420Q664 -412 665 -403Q660 -387 663 -371Q659 -363 662 -356Q665 -349 666 -342Q667 -338 665 -328Q664 -319 666 -314Q666 -281 664 -263Q666 -232 664 -203Q667 -193 665 -172Q664 -166 668 -154Q672 -141 669 -132Q671 -115 669 -99Q669 -78 669 -57Q667 -53 665 -41Q663 -29 659 -23Q655 -21 657 -13Q659 -6 656 -2Q656 16 651 20Q652 35 643 46Q638 48 634 56Q629 68 628 69Q625 66 616 66Q610 66 607 64Q604 68 598 63Q592 59 596 55Q611 45 612 28Q613 12 614 -4Q616 -39 618 -74Q620 -94 621 -115V-136Q621 -150 620 -157Q622 -183 620 -214Q621 -222 621 -230Q621 -253 620 -276Q620 -290 620 -305Q620 -315 620 -325Q619 -379 617 -433Q618 -439 610 -448Q604 -455 603 -460Q605 -472 595 -480Q605 -481 613 -488Q621 -495 629 -499Q641 -507 653 -512L692 -534Q707 -543 722 -552Q729 -559 736 -558Q744 -558 753 -558Q756 -561 764 -563Q771 -565 774 -567ZM113 -491Q125 -482 125 -467Q122 -462 127 -460Q132 -459 134 -462Q159 -474 189 -476Q205 -480 219 -475Q234 -470 239 -456Q247 -453 248 -446Q248 -439 250 -433Q259 -418 251 -403Q251 -387 243 -371Q236 -360 233 -344Q228 -341 222 -337Q216 -333 211 -336Q191 -333 172 -337Q167 -339 156 -337Q147 -335 142 -337Q136 -336 126 -338Q122 -341 118 -338Q114 -335 119 -331Q123 -330 125 -322Q127 -315 122 -314Q113 -308 98 -323Q86 -331 73 -340Q61 -348 57 -363Q57 -388 70 -423Q80 -442 86 -459Q89 -466 100 -476Q111 -485 113 -491ZM120 -437L118 -436Q115 -423 114 -405Q113 -402 113 -377Q108 -371 112 -364Q115 -357 122 -361Q127 -361 132 -362L151 -366Q156 -366 161 -367Q183 -371 187 -378Q193 -391 198 -404Q203 -417 201 -431Q199 -438 193 -438Q181 -433 168 -434Q144 -438 120 -437Z"/>
</svg>