<svg xmlns="http://www.w3.org/2000/svg" viewBox="0 -800 1024 1024">
	<path fill="#000000" d="M564 -713Q571 -711 574 -713Q602 -710 603 -710Q614 -707 616 -704Q622 -702 624 -694Q630 -688 626 -680Q632 -677 631 -669Q631 -663 633 -660Q635 -654 630 -652Q624 -651 620 -649Q610 -646 602 -641Q593 -636 583 -638Q579 -636 552 -629Q544 -630 532 -627Q516 -624 511 -625Q501 -620 492 -618Q486 -619 480 -613Q475 -608 472 -608Q467 -604 455 -588Q446 -576 437 -569Q425 -560 420 -546Q416 -533 409 -521Q407 -508 399 -489Q395 -474 390 -460Q385 -449 385 -437Q410 -447 434 -460Q424 -448 413 -445Q415 -436 407 -429Q408 -425 401 -420Q395 -416 395 -412Q389 -400 380 -389Q379 -367 373 -346Q368 -347 365 -341Q362 -335 358 -335Q349 -328 341 -333Q338 -328 335 -328Q326 -331 319 -341Q309 -353 302 -366Q291 -380 294 -397Q300 -410 283 -423Q287 -443 295 -455Q301 -479 317 -499Q339 -516 357 -537Q375 -558 393 -577Q409 -588 424 -606Q428 -607 433 -613Q437 -618 440 -619Q445 -623 443 -625Q437 -628 430 -632Q415 -638 396 -639Q372 -645 347 -652Q363 -654 384 -666Q417 -669 452 -683Q458 -686 467 -687Q475 -689 480 -695Q490 -692 499 -698Q508 -703 517 -707Q519 -706 525 -708Q533 -710 536 -707Q550 -710 564 -713ZM475 -567H480Q489 -561 501 -560Q513 -558 524 -556Q526 -547 537 -545Q536 -537 540 -526Q546 -516 542 -503Q540 -484 538 -465Q538 -438 537 -410Q536 -405 538 -405Q543 -406 547 -414Q552 -422 562 -426Q576 -443 583 -461Q592 -472 601 -483Q609 -494 607 -507Q602 -515 596 -524Q595 -531 598 -531Q603 -530 607 -525Q611 -528 618 -527Q624 -526 626 -528Q629 -532 632 -532Q634 -532 639 -527Q647 -520 652 -523Q663 -518 676 -516Q689 -513 698 -504Q705 -501 702 -496Q700 -491 697 -486Q701 -472 692 -460Q684 -456 675 -443Q659 -431 645 -417Q639 -420 635 -416Q631 -413 626 -409Q619 -411 613 -402Q608 -395 603 -394Q595 -393 585 -380Q575 -367 568 -366Q565 -363 554 -359Q543 -355 539 -351Q534 -339 540 -333Q555 -331 572 -333Q583 -336 587 -334Q611 -342 641 -344Q662 -343 678 -348Q684 -350 689 -347Q707 -350 726 -348Q740 -345 756 -345Q766 -341 776 -337Q786 -335 788 -324Q790 -313 794 -304Q785 -286 787 -277Q783 -274 757 -274Q744 -277 728 -277Q724 -281 721 -277Q698 -274 626 -274Q545 -271 542 -271Q534 -268 534 -261Q533 -255 533 -249Q528 -244 530 -240Q532 -235 531 -231Q533 -227 530 -218Q528 -210 531 -205Q527 -196 527 -176Q520 -168 525 -148Q530 -140 528 -133Q526 -125 527 -118Q527 -98 527 -78Q525 -65 523 -52Q528 -47 526 -41Q524 -35 523 -30Q513 -1 512 25Q506 34 504 45Q491 54 495 68Q495 85 488 92Q489 101 482 106Q475 111 468 107Q459 105 453 109Q447 113 440 115Q437 103 448 91Q454 78 453 63Q451 59 453 48Q455 37 452 31Q456 4 451 -9Q452 -46 453 -84Q451 -106 454 -119Q454 -131 453 -143Q455 -180 456 -217Q457 -234 457 -251Q459 -258 454 -260Q451 -261 441 -261Q422 -257 410 -256Q395 -255 380 -252Q359 -252 353 -249Q321 -245 288 -242Q257 -233 237 -236Q211 -250 192 -251Q189 -253 164 -263Q166 -267 162 -271Q159 -275 160 -276Q184 -276 208 -281Q233 -286 285 -296Q302 -298 317 -298Q333 -303 348 -305Q373 -307 397 -310Q414 -315 430 -316Q440 -327 453 -334Q461 -336 462 -345Q462 -354 463 -361Q456 -388 460 -401Q457 -406 460 -416Q462 -424 460 -428Q462 -436 460 -448Q458 -462 460 -467Q458 -490 462 -505Q462 -513 465 -521Q467 -529 461 -536Q454 -534 451 -541Q448 -548 454 -554Q454 -560 464 -561Q472 -562 475 -567Z"/>
</svg>