<svg xmlns="http://www.w3.org/2000/svg" viewBox="0 -800 1024 1024">
	<path fill="#000000" d="M279 -681Q294 -683 306 -673Q314 -652 314 -645Q311 -636 319 -616Q319 -596 316 -575Q310 -562 314 -541Q315 -537 313 -530Q310 -522 313 -517Q315 -514 315 -508Q315 -503 320 -502Q327 -506 334 -511Q346 -509 357 -499Q362 -500 388 -500Q394 -502 399 -498Q404 -494 408 -489Q415 -477 413 -462Q404 -446 397 -442Q383 -442 369 -442Q357 -439 345 -437Q323 -433 314 -428Q306 -428 305 -422Q303 -416 302 -410Q303 -404 304 -398Q298 -388 300 -373Q302 -370 299 -363Q296 -355 298 -351Q297 -346 297 -340Q296 -334 303 -333L341 -361Q356 -376 372 -386Q389 -397 405 -409Q429 -425 447 -457Q445 -463 452 -472Q458 -469 450 -456Q448 -442 444 -436Q434 -417 433 -410Q415 -383 390 -359Q377 -351 367 -339Q351 -328 344 -317Q329 -303 299 -269Q289 -263 300 -250Q302 -236 299 -225Q298 -216 296 -196Q295 -186 293 -176Q300 -167 297 -158Q297 -156 294 -139Q294 -120 290 -107Q289 -91 290 -76Q289 -66 288 -57Q288 -52 283 -49Q278 -47 274 -44Q265 -42 256 -45Q253 -48 246 -49Q238 -50 236 -54Q223 -85 222 -89Q219 -104 221 -116Q220 -138 224 -159Q220 -170 231 -189Q232 -193 234 -198Q235 -203 230 -204Q208 -189 184 -168Q175 -160 165 -156Q163 -156 160 -160Q148 -168 143 -180Q138 -192 131 -202Q131 -205 126 -210Q120 -216 122 -220Q121 -226 126 -229Q130 -231 133 -234Q146 -248 178 -292Q187 -307 218 -349Q239 -365 248 -400Q254 -412 244 -417L221 -412Q213 -406 201 -411Q184 -417 166 -418Q149 -422 131 -427Q115 -428 101 -427Q95 -426 94 -430Q93 -434 99 -435Q115 -438 130 -442Q152 -451 177 -455Q211 -466 245 -477Q257 -476 255 -493Q257 -513 258 -534Q260 -559 256 -579Q259 -589 259 -610Q257 -622 257 -634Q256 -647 249 -656Q230 -663 236 -674Q246 -680 252 -680Q266 -680 279 -681ZM721 -594L725 -593Q730 -588 737 -590Q744 -591 752 -590Q758 -591 758 -583Q758 -574 764 -574Q770 -571 766 -566Q763 -562 761 -557Q760 -545 741 -543Q737 -542 724 -541Q709 -540 703 -536Q699 -536 672 -528Q660 -522 650 -527Q621 -528 597 -536Q591 -538 576 -541Q570 -541 566 -544Q561 -548 565 -552Q624 -572 658 -578Q664 -579 670 -581L693 -587Q699 -588 705 -590Q707 -592 721 -594ZM555 -456H556Q559 -455 559 -447Q558 -438 563 -435Q568 -433 567 -424Q566 -416 568 -413Q573 -408 571 -395Q569 -383 571 -379Q565 -369 567 -354Q569 -350 574 -352Q580 -355 581 -355Q584 -352 606 -345Q621 -347 658 -338Q682 -330 694 -324Q698 -320 702 -326Q704 -330 707 -336Q726 -368 738 -402Q744 -415 731 -419Q726 -422 719 -422Q716 -423 718 -427Q728 -431 738 -435Q742 -439 748 -439Q761 -436 773 -433Q782 -437 799 -426Q812 -426 814 -407Q820 -394 811 -384Q804 -382 801 -370Q799 -361 794 -357Q782 -339 770 -321Q765 -316 760 -311Q755 -305 762 -298Q773 -293 783 -289Q811 -274 817 -267Q819 -262 826 -258Q836 -253 836 -246Q833 -237 839 -227Q840 -221 830 -218Q822 -216 820 -212Q813 -206 806 -214Q791 -217 781 -225Q767 -230 747 -245Q730 -257 723 -261Q712 -270 699 -252Q697 -249 691 -243L682 -236Q673 -229 664 -225Q658 -216 647 -214Q642 -208 626 -201Q616 -204 599 -193Q592 -194 594 -199Q596 -204 601 -205Q607 -210 612 -216L634 -237Q640 -242 645 -247Q653 -256 661 -265Q670 -274 673 -286Q669 -294 662 -297Q654 -300 648 -304L605 -326Q582 -332 567 -350L558 -337Q555 -328 555 -319Q551 -306 550 -290Q545 -269 542 -245Q542 -237 538 -232Q533 -231 533 -226Q533 -221 536 -217Q536 -214 531 -189Q528 -164 529 -141Q525 -130 540 -119Q550 -112 570 -105Q609 -105 647 -106Q664 -110 683 -110Q693 -111 702 -113Q752 -113 778 -114Q786 -116 825 -118Q840 -121 855 -119Q872 -118 889 -118Q896 -120 899 -114Q902 -109 907 -105Q912 -104 914 -99Q916 -95 917 -90Q915 -79 912 -69Q909 -67 887 -62Q885 -61 882 -61L873 -59Q870 -59 868 -58Q826 -59 776 -56Q761 -58 755 -56Q742 -55 729 -55Q681 -56 635 -55Q543 -52 493 -96Q481 -106 476 -119Q471 -131 465 -143Q459 -157 458 -172Q458 -186 463 -201Q467 -212 468 -225Q469 -238 475 -248Q479 -273 486 -295Q498 -350 512 -387Q518 -406 531 -423Q543 -439 555 -456Z"/>
</svg>