<svg xmlns="http://www.w3.org/2000/svg" viewBox="0 -800 1024 1024">
	<path fill="#000000" d="M689 -698Q711 -698 714 -697Q719 -698 727 -693Q733 -690 738 -689Q766 -680 774 -660Q773 -656 777 -650Q781 -645 780 -641Q778 -638 783 -622Q782 -610 780 -598Q778 -585 775 -573Q764 -563 756 -549Q752 -539 738 -525Q728 -515 724 -509Q703 -490 695 -479L668 -449Q653 -434 665 -432Q673 -436 683 -435Q689 -437 701 -439Q715 -436 730 -437Q733 -439 739 -438Q745 -437 748 -438Q764 -438 780 -438Q789 -440 800 -437Q808 -433 815 -438Q818 -439 823 -434Q830 -427 835 -430Q842 -427 850 -430Q863 -430 869 -425Q874 -418 889 -416Q896 -418 900 -407Q899 -403 905 -400Q911 -396 911 -392Q911 -389 910 -388Q908 -387 906 -388Q901 -391 897 -386Q894 -382 896 -377Q896 -368 891 -367Q883 -371 879 -370Q870 -361 865 -367Q856 -368 846 -370Q839 -367 827 -373Q819 -377 814 -377Q802 -383 786 -383Q776 -383 762 -379Q743 -381 727 -385Q677 -391 661 -393Q658 -397 644 -397Q630 -398 625 -399Q613 -395 605 -384Q596 -374 587 -367Q572 -351 559 -334Q554 -331 546 -323L534 -311Q519 -303 505 -291Q500 -284 492 -281Q487 -281 481 -275Q473 -267 468 -269Q454 -269 445 -263Q433 -257 419 -257Q413 -257 409 -261Q404 -266 409 -269Q429 -278 445 -293Q462 -313 478 -333Q490 -342 499 -353Q507 -365 517 -376Q523 -384 528 -393Q533 -394 539 -401Q545 -409 550 -410Q561 -415 554 -424Q537 -431 523 -442Q515 -446 503 -458Q512 -462 522 -457Q549 -455 575 -453Q586 -449 599 -463Q603 -472 617 -487Q629 -500 633 -506Q648 -525 663 -545Q671 -560 682 -573Q697 -595 705 -612Q708 -620 710 -629Q709 -636 710 -643Q710 -651 705 -654Q667 -648 649 -643Q646 -641 638 -641Q629 -641 625 -637Q617 -637 605 -629Q602 -629 597 -626Q591 -622 588 -624Q584 -628 575 -628Q568 -628 565 -630Q541 -635 517 -640Q512 -643 515 -646Q519 -649 524 -648Q567 -671 615 -685Q628 -690 644 -692Q672 -695 673 -695Q674 -696 689 -698ZM246 -665Q253 -667 258 -664Q269 -651 270 -639Q271 -635 271 -627Q271 -615 274 -609Q271 -598 274 -588Q277 -584 276 -576Q275 -568 276 -565Q279 -559 275 -548Q275 -539 275 -530Q275 -522 274 -514Q282 -499 278 -492Q276 -487 280 -485Q283 -483 288 -484Q308 -487 307 -499Q308 -502 306 -509Q304 -517 308 -521Q314 -513 319 -506Q323 -500 332 -504Q340 -507 344 -505Q347 -503 360 -503Q371 -508 381 -498Q388 -499 391 -491Q394 -483 392 -476Q392 -471 383 -468Q377 -470 371 -465Q365 -461 362 -461Q350 -465 340 -460Q321 -460 298 -451Q290 -451 282 -451Q273 -446 271 -421Q271 -390 271 -359Q271 -339 269 -318Q269 -303 273 -291Q270 -277 272 -262Q270 -257 272 -243Q274 -229 270 -222Q266 -201 267 -177Q265 -164 266 -152Q269 -121 269 -120Q268 -112 266 -105Q265 -98 250 -101Q242 -95 236 -105Q227 -108 222 -115Q218 -123 214 -130Q200 -141 206 -168Q209 -183 211 -198Q209 -222 214 -235Q213 -246 216 -262Q219 -279 219 -286Q221 -292 226 -332Q228 -350 230 -368Q229 -373 229 -399Q233 -403 231 -408Q229 -414 224 -413Q216 -409 195 -393Q176 -378 169 -377Q163 -375 162 -365Q162 -358 160 -356Q153 -351 152 -335Q151 -319 145 -314Q137 -316 132 -323Q126 -329 122 -335L111 -359Q104 -366 102 -388Q100 -397 103 -407Q106 -412 108 -419Q111 -430 115 -434Q120 -446 131 -461Q146 -484 161 -507Q165 -513 167 -505Q166 -500 165 -496L166 -449Q167 -434 162 -422Q158 -409 155 -395Q155 -389 162 -389Q169 -389 173 -393Q177 -396 199 -414L223 -431Q228 -432 233 -442Q233 -486 233 -531Q233 -557 234 -560Q234 -573 234 -587Q232 -604 234 -618Q237 -635 239 -653Q237 -664 246 -665ZM653 -367Q669 -369 684 -372Q698 -369 700 -368Q708 -364 707 -355Q707 -349 707 -343Q706 -335 723 -335Q731 -334 739 -334Q745 -332 753 -329Q760 -327 760 -318Q753 -309 750 -295Q747 -283 724 -281Q720 -282 716 -280Q712 -277 714 -273Q714 -253 713 -234Q712 -227 724 -229Q729 -231 744 -233Q758 -235 766 -239Q772 -241 776 -246Q781 -251 788 -248Q791 -248 795 -245Q801 -240 805 -242Q808 -245 816 -243Q822 -241 826 -243Q834 -243 842 -243Q853 -247 857 -235Q857 -231 861 -229Q865 -227 868 -225Q872 -222 866 -216Q862 -211 863 -208Q863 -198 853 -195Q841 -199 829 -195Q810 -194 793 -191Q769 -188 745 -185Q731 -182 717 -180Q708 -181 706 -169Q702 -141 703 -112Q703 -105 703 -99Q700 -89 705 -78Q702 -72 703 -62Q704 -50 702 -45Q702 -25 697 -13Q697 -9 692 15Q683 19 689 32Q682 59 678 69Q670 71 666 85Q663 85 659 91Q655 98 651 95Q643 91 643 84Q642 77 640 71Q636 67 631 62Q627 57 630 51Q640 38 634 28Q639 14 640 -2Q642 -13 643 -24Q645 -52 639 -75Q640 -90 641 -105Q644 -133 643 -154Q643 -171 635 -170Q603 -166 588 -161Q582 -160 576 -160L553 -158Q547 -157 541 -157Q526 -154 512 -159Q496 -163 480 -168Q478 -170 470 -171Q461 -172 460 -177Q482 -179 503 -182Q534 -188 564 -194Q578 -198 592 -202Q615 -209 640 -211Q649 -212 649 -231Q649 -245 648 -260Q649 -270 641 -271Q634 -272 627 -272Q618 -277 606 -274Q573 -275 547 -289Q548 -293 553 -292Q558 -292 561 -293Q568 -293 581 -298Q594 -303 602 -303Q604 -307 613 -307Q619 -307 622 -309Q638 -312 653 -323Q655 -339 655 -346Q656 -355 658 -359Q660 -364 653 -367Z"/>
</svg>