<svg xmlns="http://www.w3.org/2000/svg" viewBox="0 -800 1024 1024">
	<path fill="#000000" d="M544 -745Q558 -742 574 -742Q582 -747 592 -745Q602 -743 613 -743Q615 -741 623 -740Q634 -739 637 -734Q641 -730 640 -712Q639 -700 641 -696Q652 -698 662 -700Q664 -700 666 -701L675 -704Q689 -704 701 -707Q705 -710 709 -706Q713 -702 717 -700Q727 -701 725 -687Q727 -683 724 -679Q721 -676 719 -672Q716 -664 698 -662Q688 -660 678 -658Q666 -657 626 -648Q621 -645 611 -643Q598 -640 593 -636Q578 -637 576 -621Q574 -616 572 -610Q569 -604 574 -599Q576 -597 579 -598Q583 -600 585 -599Q627 -616 661 -624Q675 -631 682 -625Q685 -622 692 -624Q699 -626 701 -625Q711 -610 710 -599Q708 -587 708 -575Q697 -566 696 -560Q684 -552 680 -538Q670 -527 659 -517Q659 -512 664 -513Q665 -513 672 -516Q684 -521 690 -520Q710 -525 730 -531Q752 -536 773 -541Q779 -545 796 -547Q814 -546 834 -548Q836 -547 842 -548Q851 -550 855 -545Q867 -540 869 -533Q873 -530 870 -526Q868 -522 863 -524Q857 -525 855 -520Q851 -511 850 -510Q840 -508 829 -507Q809 -502 789 -498Q761 -490 733 -483Q713 -477 695 -474Q684 -470 672 -467Q663 -469 656 -465Q650 -461 643 -458Q635 -460 628 -458Q621 -456 614 -455Q606 -451 608 -444Q610 -437 610 -429Q607 -424 604 -419Q600 -414 606 -409Q613 -409 634 -416Q691 -439 719 -441Q727 -446 738 -447Q749 -448 760 -450Q768 -455 782 -455Q791 -453 810 -455Q821 -455 831 -452Q843 -448 854 -444Q865 -442 872 -430Q883 -426 885 -418Q891 -414 893 -404Q895 -395 897 -392Q907 -382 900 -373Q894 -359 890 -343Q885 -337 880 -336Q877 -338 876 -337Q874 -332 875 -327Q876 -321 872 -319Q868 -317 865 -314Q855 -296 851 -286Q838 -276 831 -265Q826 -265 825 -261Q823 -256 823 -251Q823 -247 816 -245Q808 -243 809 -237Q809 -229 797 -231Q792 -229 793 -224Q793 -220 792 -215Q782 -207 781 -202Q777 -193 769 -198Q763 -199 762 -195Q760 -191 757 -188Q752 -189 746 -183Q741 -177 736 -180Q731 -185 726 -181Q721 -178 716 -176Q698 -176 678 -171Q662 -176 657 -168Q654 -166 654 -165Q657 -162 661 -159Q668 -158 674 -146Q679 -136 685 -133Q703 -137 723 -140Q747 -143 767 -152Q793 -150 822 -151Q832 -154 844 -145Q849 -141 845 -136Q841 -131 840 -126Q830 -114 816 -118Q799 -113 782 -112Q770 -110 765 -108Q751 -110 734 -103Q724 -106 718 -101Q711 -96 703 -97Q694 -98 687 -97Q680 -87 682 -72Q678 -62 684 -53Q687 -46 682 -35Q678 -25 678 -20Q686 -7 683 -2Q681 8 679 17Q679 34 678 50Q676 54 675 67Q673 83 668 90Q665 92 657 103Q651 111 644 111Q634 93 633 85Q631 57 629 28Q628 12 631 -11Q634 -36 634 -45Q634 -59 636 -64Q638 -79 632 -90L604 -88Q583 -84 561 -81Q549 -79 528 -81Q512 -87 499 -94Q494 -96 490 -100Q485 -104 489 -107Q514 -107 519 -108Q522 -108 524 -109H533Q554 -112 575 -115Q595 -121 607 -120Q621 -121 634 -125Q639 -137 634 -150Q631 -157 628 -165Q610 -166 592 -168Q583 -168 575 -165Q574 -165 542 -178Q531 -186 520 -193Q509 -201 503 -212Q489 -226 492 -237Q491 -244 490 -249Q489 -255 496 -259Q497 -270 498 -282Q505 -305 512 -319Q526 -382 563 -437Q568 -440 567 -446Q566 -451 560 -449Q554 -446 547 -444Q537 -445 529 -441Q518 -436 505 -436Q489 -430 472 -425Q466 -425 455 -421Q442 -416 435 -419Q422 -422 410 -424Q396 -425 387 -433Q385 -442 400 -445Q408 -447 413 -448L437 -456Q442 -457 450 -459Q463 -463 476 -467Q491 -470 505 -474Q541 -482 577 -491Q589 -490 595 -502Q599 -510 630 -559Q630 -562 634 -568Q640 -577 636 -581Q627 -580 619 -574Q602 -574 574 -560Q563 -560 557 -543Q557 -523 550 -515Q546 -512 535 -520Q529 -524 525 -536Q522 -544 519 -548Q506 -561 519 -583Q520 -591 535 -613Q536 -618 539 -623Q542 -628 538 -632Q536 -632 515 -635Q498 -637 486 -645Q493 -649 501 -650Q531 -658 561 -666Q584 -671 602 -685Q610 -695 599 -701Q594 -708 582 -711Q572 -714 569 -716Q562 -719 543 -738Q540 -740 541 -743Q541 -745 544 -745ZM371 -424Q361 -403 351 -383Q344 -368 337 -353Q334 -348 330 -344Q325 -339 325 -333Q305 -308 287 -281Q284 -275 287 -269Q289 -263 290 -256Q283 -229 284 -219Q281 -213 285 -203Q289 -193 287 -188Q290 -174 285 -159Q280 -154 282 -147Q283 -140 282 -134Q276 -112 276 -99Q271 -78 261 -78Q244 -76 242 -90Q226 -119 226 -120Q226 -131 225 -143Q227 -155 229 -168Q231 -175 231 -186Q231 -201 233 -206Q236 -218 238 -231Q238 -238 234 -238Q231 -234 228 -230L214 -214Q211 -210 208 -206Q197 -194 185 -183Q181 -184 174 -179Q170 -176 168 -176Q165 -176 163 -179Q160 -188 155 -197Q154 -203 148 -212Q141 -222 141 -228Q150 -240 158 -252Q170 -264 178 -278Q207 -328 215 -341Q223 -354 230 -368Q239 -381 240 -396Q239 -400 240 -407Q241 -418 238 -421Q225 -423 215 -417Q207 -412 199 -408Q186 -411 175 -405Q158 -409 140 -413Q122 -418 103 -424Q96 -427 107 -431Q125 -435 143 -439Q147 -439 153 -444Q160 -450 167 -448Q171 -447 186 -452Q196 -451 203 -456Q211 -460 220 -463Q232 -467 242 -474Q246 -486 247 -500Q243 -526 248 -537Q250 -565 251 -594Q252 -611 253 -628Q248 -639 254 -650Q255 -660 255 -670Q256 -674 252 -682Q248 -689 251 -694Q251 -706 267 -698Q274 -698 280 -698Q290 -698 294 -684Q294 -667 294 -651Q293 -622 291 -593Q292 -574 292 -555Q288 -549 290 -530Q290 -519 289 -508Q289 -498 289 -489Q292 -483 303 -485Q312 -487 315 -486Q316 -485 321 -485Q327 -485 329 -482Q332 -473 322 -459Q319 -454 307 -450Q296 -445 292 -441Q285 -438 286 -432Q287 -426 286 -420Q286 -407 286 -395Q286 -389 286 -384L284 -357Q284 -351 284 -346Q285 -342 289 -344Q295 -349 299 -353Q310 -361 332 -388Q337 -394 370 -431Q371 -427 371 -424ZM802 -414Q788 -414 775 -411Q764 -413 743 -408Q725 -404 715 -405Q703 -401 690 -397Q674 -396 660 -387Q629 -389 621 -393Q614 -394 607 -397Q600 -400 595 -395Q593 -388 584 -372Q575 -357 573 -347Q572 -331 570 -316Q563 -303 566 -289Q562 -282 562 -272Q562 -269 559 -260Q555 -250 558 -244Q559 -240 556 -234Q553 -226 556 -222Q554 -216 563 -207Q564 -199 575 -195Q584 -192 592 -194Q635 -205 638 -206Q653 -206 667 -213Q673 -212 680 -213Q691 -219 705 -214Q713 -217 722 -219Q732 -222 736 -230Q738 -233 745 -236Q753 -240 755 -245Q753 -251 763 -253Q769 -253 773 -262Q770 -266 773 -270Q775 -273 780 -272Q787 -275 792 -288Q796 -297 800 -301Q807 -316 814 -332Q822 -342 832 -391Q834 -401 827 -409Q820 -417 810 -415Q805 -416 802 -414ZM628 -327Q641 -323 654 -320Q679 -325 706 -319Q708 -316 715 -312Q722 -308 724 -304Q729 -301 731 -291Q733 -281 727 -281Q712 -274 691 -277Q679 -281 659 -281Q657 -282 643 -285Q630 -284 621 -292Q613 -300 604 -307Q599 -312 593 -316Q587 -320 591 -326Q601 -324 611 -323Q614 -322 628 -327Z"/>
</svg>