<svg xmlns="http://www.w3.org/2000/svg" viewBox="0 -800 1024 1024">
	<path fill="#000000" d="M262 -688L267 -687Q280 -686 292 -685Q299 -687 302 -681Q304 -676 308 -672Q315 -668 315 -659Q315 -651 314 -643Q312 -628 314 -611Q311 -590 308 -570Q309 -561 309 -553Q310 -548 307 -542Q303 -534 305 -530Q307 -526 305 -520Q302 -511 305 -507Q311 -505 324 -508Q334 -510 341 -509Q357 -510 357 -494Q359 -469 357 -460Q355 -453 349 -454Q342 -455 337 -454Q324 -452 311 -450Q304 -451 301 -446Q298 -441 301 -435Q305 -426 303 -402Q295 -393 302 -381Q304 -378 301 -371Q299 -366 300 -361Q301 -356 305 -357Q310 -360 313 -365Q350 -399 383 -437Q407 -463 417 -484Q418 -490 418 -496Q418 -505 427 -505Q429 -499 425 -489Q423 -481 421 -473Q409 -452 398 -429Q392 -427 390 -417Q389 -410 382 -404Q380 -400 369 -389Q361 -379 355 -368Q324 -334 301 -297Q302 -280 297 -265Q295 -239 296 -224Q296 -196 299 -187Q297 -176 295 -165Q292 -153 289 -141Q289 -117 288 -104Q287 -98 289 -92Q291 -85 286 -80Q280 -78 282 -70Q284 -64 281 -61Q280 -58 273 -59Q267 -60 265 -57Q257 -50 252 -60Q235 -73 234 -88Q229 -95 227 -123Q226 -131 231 -161Q234 -182 236 -203Q233 -215 238 -225Q240 -230 239 -236Q238 -242 232 -240Q214 -228 198 -214Q189 -206 179 -199Q175 -194 170 -194Q163 -194 153 -206Q146 -218 139 -230Q139 -234 134 -240Q127 -248 129 -253Q153 -278 172 -306Q193 -338 213 -371Q225 -389 237 -407Q237 -411 240 -416Q244 -422 243 -425Q241 -430 237 -428Q233 -425 230 -425Q225 -424 220 -424Q217 -425 211 -420Q206 -416 202 -418Q194 -424 188 -416Q183 -406 168 -413Q147 -416 127 -416Q104 -419 80 -422Q79 -428 84 -429Q89 -431 93 -432Q104 -436 115 -441Q119 -445 128 -446Q138 -448 141 -450Q144 -456 154 -454Q161 -453 165 -455Q169 -462 173 -469Q177 -467 182 -463Q187 -460 193 -463Q198 -472 208 -475Q218 -478 227 -481Q230 -483 239 -485Q251 -488 255 -494Q253 -531 255 -567Q256 -580 257 -594Q254 -599 257 -610Q255 -628 252 -646Q251 -657 233 -677Q228 -682 235 -683Q249 -682 262 -688ZM619 -639Q631 -639 645 -637Q652 -639 657 -634Q661 -630 667 -627Q671 -626 671 -620Q671 -612 675 -610Q680 -607 679 -600Q678 -594 679 -587Q682 -574 678 -559Q679 -551 676 -537Q672 -520 675 -511Q670 -496 670 -479Q666 -473 669 -463Q666 -458 668 -454Q670 -449 676 -449Q703 -459 733 -464Q746 -468 761 -468Q772 -472 785 -472Q798 -471 811 -470Q822 -468 832 -466Q847 -462 865 -452Q881 -442 891 -426Q892 -424 898 -417Q905 -409 906 -402Q912 -395 914 -384Q924 -377 921 -364Q918 -356 918 -346Q919 -332 917 -318Q914 -304 910 -291Q908 -275 901 -267Q895 -254 892 -239Q892 -230 883 -218Q874 -205 873 -199Q871 -196 868 -185Q865 -173 859 -168Q858 -164 852 -157Q847 -151 845 -146Q842 -136 836 -127Q825 -113 813 -101Q808 -88 795 -83Q790 -83 786 -74Q782 -65 776 -67Q771 -73 764 -77Q757 -81 752 -88Q746 -95 739 -92Q736 -89 731 -92Q728 -94 726 -93Q720 -89 713 -90Q707 -91 700 -90Q690 -92 682 -91Q654 -91 626 -91Q614 -90 601 -90Q587 -90 574 -88Q560 -88 545 -88Q538 -86 526 -91Q519 -94 514 -94Q484 -107 459 -124Q436 -137 430 -174Q421 -198 429 -247Q431 -254 433 -269Q435 -288 439 -296Q443 -322 453 -348Q465 -389 487 -424Q500 -445 518 -463Q521 -467 523 -472Q526 -478 532 -474Q535 -470 533 -462Q531 -454 533 -450Q533 -443 523 -416Q506 -398 503 -381Q499 -363 496 -343Q493 -338 493 -323Q493 -309 489 -302Q492 -271 485 -243Q485 -235 488 -228Q485 -222 490 -206Q488 -202 489 -192Q490 -182 489 -178Q494 -170 496 -158Q504 -141 526 -127Q534 -124 552 -126Q567 -128 573 -127Q598 -130 601 -131Q608 -140 602 -150Q595 -158 596 -167Q597 -176 598 -185Q601 -202 601 -204Q603 -220 602 -235Q602 -241 589 -244Q577 -244 567 -251Q560 -254 558 -255Q553 -258 557 -262Q572 -267 587 -272Q608 -275 607 -294Q604 -320 607 -345Q607 -356 607 -367Q605 -373 598 -372Q592 -371 590 -374Q570 -385 550 -390Q546 -395 550 -397Q555 -399 559 -398Q564 -400 569 -403L589 -411Q594 -413 599 -416Q612 -418 617 -431Q617 -516 618 -526Q620 -553 618 -581Q618 -592 618 -603Q619 -611 607 -619Q598 -625 597 -630Q599 -634 608 -635Q616 -636 619 -639ZM778 -420L769 -418Q758 -420 752 -414Q746 -415 738 -412Q730 -409 727 -409Q699 -400 678 -395Q669 -394 668 -386Q666 -379 664 -372Q659 -365 662 -353Q658 -336 658 -317Q654 -299 662 -292Q665 -289 671 -291Q677 -293 680 -292Q690 -289 700 -287Q702 -275 702 -267Q688 -259 681 -257Q675 -255 668 -255Q661 -255 657 -249Q653 -238 653 -223Q648 -210 652 -188Q656 -184 653 -176Q651 -168 653 -164Q652 -157 650 -149Q648 -141 657 -138Q658 -138 674 -141Q686 -142 698 -143Q709 -142 723 -144Q726 -147 730 -147Q740 -145 750 -144Q770 -140 782 -165Q793 -182 803 -200Q810 -216 818 -231Q826 -254 833 -277Q839 -302 845 -328Q847 -339 849 -350Q849 -361 848 -372Q848 -390 834 -404Q822 -416 804 -421Q780 -421 778 -420Z"/>
</svg>