<svg xmlns="http://www.w3.org/2000/svg" viewBox="0 -800 1024 1024">
	<path fill="#000000" d="M457 -688H463Q488 -684 493 -667Q500 -652 498 -645Q500 -638 496 -631Q492 -625 490 -620Q491 -610 486 -601Q482 -592 479 -584Q477 -575 470 -562Q463 -550 462 -544Q454 -535 445 -527Q442 -525 440 -519Q438 -512 434 -509Q431 -503 436 -501Q442 -500 448 -500Q450 -501 456 -501Q465 -501 468 -504Q484 -532 497 -561Q502 -567 509 -583Q519 -604 529 -615Q535 -628 544 -638Q554 -648 554 -664Q564 -664 563 -668Q571 -669 579 -677L588 -674Q607 -674 610 -676Q617 -679 626 -673Q634 -673 629 -663Q634 -657 631 -649Q627 -641 622 -633Q623 -621 612 -616Q607 -604 602 -592Q597 -589 595 -583Q592 -575 587 -573Q580 -559 565 -547Q562 -538 552 -533Q532 -524 544 -516Q561 -515 578 -514Q586 -511 593 -519Q595 -521 602 -534Q604 -532 605 -524Q606 -515 611 -513Q622 -529 632 -561Q636 -573 640 -585Q645 -614 656 -641Q658 -656 654 -667Q648 -671 651 -674Q656 -677 664 -676Q672 -688 689 -674Q710 -674 731 -671Q736 -667 742 -661Q748 -655 742 -647Q734 -626 718 -610Q719 -604 713 -601Q709 -599 708 -596Q707 -590 699 -585Q700 -578 690 -571Q682 -566 681 -561Q675 -550 669 -539Q662 -536 662 -527Q663 -523 667 -525Q681 -522 694 -519Q699 -521 706 -519Q713 -517 716 -518Q722 -515 731 -512Q739 -510 746 -503Q754 -504 758 -493Q762 -483 752 -480Q750 -477 743 -476Q736 -476 735 -471Q722 -475 708 -479Q706 -484 702 -482Q699 -480 697 -481Q693 -481 689 -484Q682 -489 679 -486Q667 -483 661 -477Q656 -469 637 -464L636 -465Q646 -476 641 -477Q638 -474 630 -473Q624 -472 620 -469Q608 -470 597 -474Q595 -474 569 -483Q555 -486 541 -490Q533 -495 525 -498Q520 -501 516 -495Q512 -490 510 -489Q510 -484 519 -479Q529 -473 530 -466Q532 -459 523 -455Q516 -452 515 -448Q508 -450 503 -447Q492 -451 481 -455Q467 -456 456 -469Q446 -469 434 -479Q429 -477 423 -482Q418 -486 416 -485Q402 -490 391 -480Q386 -485 386 -498Q405 -510 413 -529Q420 -548 428 -567Q429 -577 435 -591Q443 -607 443 -616Q450 -635 452 -658Q454 -661 452 -672Q449 -685 457 -688ZM550 -620L544 -618Q539 -616 537 -610Q535 -605 532 -604Q524 -589 522 -577Q518 -573 516 -564Q514 -557 511 -554Q505 -547 503 -534Q502 -526 510 -522Q517 -518 525 -522Q532 -526 537 -538Q541 -547 546 -552Q545 -561 552 -569Q549 -576 552 -590Q555 -602 554 -609Q554 -613 554 -618Q554 -621 550 -620ZM221 -610Q226 -610 228 -607Q237 -606 245 -605Q271 -603 278 -594Q283 -589 281 -583Q278 -577 277 -570Q274 -562 267 -555Q252 -554 239 -556Q226 -561 213 -567Q197 -566 184 -571Q171 -576 158 -580Q155 -585 160 -587Q165 -588 170 -588Q189 -595 206 -605Q216 -607 221 -610ZM639 -510H637Q631 -504 636 -501Q644 -496 652 -490Q654 -486 656 -487Q660 -490 662 -500Q652 -510 639 -510ZM793 -426H805Q831 -426 834 -425Q848 -424 862 -418Q900 -400 904 -378Q911 -373 913 -366Q912 -362 915 -354Q919 -345 916 -340Q916 -335 918 -327Q922 -314 919 -308Q919 -304 917 -285Q911 -268 904 -251Q904 -227 892 -219Q887 -199 882 -180Q871 -159 861 -137Q849 -120 839 -101Q823 -88 813 -69Q799 -58 785 -50Q778 -44 776 -36Q771 -31 765 -33Q760 -35 755 -38Q746 -43 740 -51Q733 -59 723 -58Q713 -62 704 -60Q698 -60 692 -60Q676 -63 657 -61Q621 -63 572 -60Q564 -61 549 -58Q538 -55 530 -56Q519 -58 499 -62Q489 -61 467 -70Q449 -80 431 -90Q409 -102 396 -141Q395 -143 392 -158Q392 -196 397 -206Q401 -229 409 -250Q410 -256 416 -265Q421 -272 422 -277Q431 -302 448 -324Q466 -358 502 -390Q515 -397 526 -377Q527 -366 528 -355Q528 -352 526 -348L520 -333Q519 -329 518 -326Q515 -317 507 -312Q500 -307 493 -300Q493 -297 487 -291Q483 -287 481 -283Q481 -274 475 -267Q469 -260 465 -252Q465 -250 457 -226Q458 -218 452 -207Q446 -195 446 -189Q443 -179 442 -166Q439 -154 440 -143Q445 -132 449 -122Q455 -116 462 -109Q469 -102 479 -101Q482 -99 487 -100Q495 -101 497 -98Q506 -89 521 -90Q539 -92 556 -94Q574 -98 593 -99Q600 -103 596 -108Q591 -115 593 -122Q595 -129 598 -135Q599 -152 606 -167Q605 -183 611 -197Q610 -203 613 -208Q615 -214 609 -216Q587 -217 570 -224Q558 -227 551 -231Q549 -234 550 -235Q554 -236 559 -235Q566 -237 572 -240L598 -248Q605 -250 611 -253Q623 -258 622 -273Q623 -283 624 -294Q624 -304 625 -314Q627 -324 622 -332Q620 -341 611 -340Q603 -340 596 -341Q583 -339 576 -343Q569 -349 556 -351Q545 -353 542 -354Q537 -354 539 -359Q543 -369 554 -370Q564 -371 574 -373Q587 -381 605 -383Q621 -389 630 -390Q654 -396 677 -402Q706 -411 736 -415Q748 -421 763 -422Q778 -423 793 -426ZM179 -415Q188 -415 207 -400Q207 -392 218 -385Q218 -381 222 -375Q227 -368 226 -363Q205 -358 203 -337Q194 -326 194 -312Q189 -306 187 -291Q185 -278 184 -275Q184 -273 182 -268Q179 -262 181 -258Q182 -248 182 -200Q183 -190 182 -179Q181 -169 186 -159Q184 -152 188 -146Q192 -139 200 -140Q211 -149 233 -178Q256 -204 281 -237Q285 -245 289 -254Q292 -260 297 -252Q297 -249 293 -242Q288 -234 289 -229Q285 -217 280 -205Q276 -202 279 -196Q282 -190 280 -187Q271 -181 267 -170Q261 -166 263 -162Q265 -157 265 -151Q258 -144 250 -136Q243 -128 241 -118Q236 -116 232 -114Q227 -111 227 -105Q227 -100 221 -98Q207 -106 200 -97Q187 -93 176 -103Q169 -108 162 -111Q154 -115 151 -121Q150 -128 144 -138Q138 -150 137 -157Q137 -170 134 -182Q132 -194 136 -205Q135 -233 138 -265Q141 -295 148 -323Q152 -338 155 -353Q160 -392 179 -415ZM800 -385Q792 -385 791 -384Q785 -385 760 -380Q747 -378 733 -376Q731 -374 726 -373Q720 -372 718 -369L698 -368Q685 -364 671 -360Q665 -358 658 -357Q651 -357 646 -351Q647 -345 653 -341Q659 -338 664 -335Q670 -331 669 -320Q668 -311 670 -308Q674 -301 669 -296Q664 -290 662 -284Q662 -277 665 -270Q665 -264 678 -267Q690 -266 702 -266Q708 -266 714 -262Q720 -257 719 -251Q719 -244 714 -240Q710 -237 705 -233Q702 -226 684 -224Q673 -222 663 -218Q657 -213 656 -206Q654 -199 652 -192Q647 -187 652 -169Q646 -160 643 -150Q646 -140 641 -128Q641 -108 642 -106Q642 -103 648 -104Q652 -105 654 -103Q657 -103 658 -104H665Q667 -105 669 -105Q684 -104 698 -103Q706 -103 714 -104Q726 -100 737 -96Q744 -86 754 -94Q756 -102 762 -105Q767 -108 773 -111Q780 -123 786 -135Q805 -162 818 -198Q824 -210 829 -222Q837 -250 845 -278Q851 -294 853 -312Q856 -322 854 -333Q852 -345 850 -358Q848 -373 825 -384Q811 -387 800 -385Z"/>
</svg>