<svg xmlns="http://www.w3.org/2000/svg" viewBox="0 -800 1024 1024">
	<path fill="#000000" d="M590 -749Q612 -751 621 -739Q641 -731 645 -715Q647 -713 656 -702Q661 -697 657 -693Q654 -689 647 -691Q636 -684 623 -687Q603 -688 583 -690Q577 -689 571 -693Q565 -696 561 -696Q553 -692 545 -688Q544 -688 544 -687Q545 -688 552 -695Q558 -700 553 -704Q547 -708 543 -709Q535 -714 519 -720Q497 -728 490 -737Q490 -740 491 -741Q496 -739 500 -742Q504 -740 508 -744Q511 -747 514 -745Q526 -741 540 -745Q574 -745 590 -749ZM230 -667Q238 -664 242 -667Q252 -665 263 -665Q274 -665 280 -657Q287 -651 288 -642Q288 -633 290 -624Q295 -615 292 -610Q287 -602 290 -585Q293 -571 291 -564Q286 -556 289 -550Q285 -546 287 -537Q288 -530 287 -527Q281 -519 284 -509Q287 -498 298 -500Q309 -508 317 -495Q320 -487 325 -482Q323 -466 316 -462Q304 -456 291 -451Q286 -448 285 -436Q284 -426 281 -423Q279 -407 280 -403Q278 -399 279 -392Q280 -384 278 -381Q279 -379 279 -374Q279 -367 283 -366Q311 -380 339 -395Q349 -388 345 -382Q342 -367 328 -359Q306 -343 284 -327Q278 -327 278 -322Q277 -317 276 -312Q277 -305 277 -299Q281 -292 277 -278Q274 -268 277 -262Q274 -259 278 -251Q281 -245 279 -242Q279 -155 272 -126Q274 -123 272 -115Q270 -109 272 -105Q270 -98 271 -90Q271 -82 266 -77Q268 -62 256 -34Q248 -31 241 -38Q235 -45 229 -50Q224 -59 199 -84Q200 -90 195 -97Q190 -105 191 -110Q190 -113 190 -114Q195 -113 202 -106Q213 -98 216 -115Q219 -126 219 -139Q222 -163 225 -187Q220 -204 226 -220Q226 -234 226 -249Q228 -270 226 -281Q227 -286 224 -287Q220 -287 216 -283Q215 -280 208 -278Q201 -276 200 -271Q193 -270 172 -253Q151 -237 147 -231Q137 -222 130 -208Q126 -208 125 -204Q124 -201 124 -197Q123 -194 118 -197Q112 -199 106 -200Q100 -201 97 -207Q96 -221 77 -234Q72 -233 72 -235Q71 -240 71 -245Q68 -255 77 -257Q86 -260 93 -264Q106 -266 113 -271Q157 -303 209 -328Q214 -331 220 -334Q226 -337 224 -343Q226 -360 226 -395Q224 -401 225 -409Q227 -419 226 -422Q226 -429 221 -429Q214 -428 208 -423Q188 -421 170 -425Q159 -427 149 -427Q133 -430 119 -429Q115 -430 108 -429Q101 -428 100 -434Q120 -442 126 -447Q151 -452 175 -463Q197 -472 219 -482Q230 -486 234 -505Q232 -516 234 -528Q234 -575 238 -598Q234 -618 230 -639Q227 -649 216 -646Q212 -647 206 -648Q201 -648 202 -654Q217 -659 230 -667ZM486 -656L489 -655Q482 -641 474 -635Q467 -614 464 -610Q461 -601 458 -592Q456 -587 454 -583Q448 -578 448 -571Q445 -562 442 -554Q441 -546 440 -538Q440 -534 442 -534Q449 -535 456 -539Q486 -557 531 -578Q577 -594 612 -612Q631 -619 649 -622Q652 -627 660 -629Q667 -631 669 -632Q680 -634 690 -637Q693 -634 699 -637Q705 -640 708 -638Q711 -645 719 -642Q729 -647 734 -648Q752 -653 770 -654Q774 -656 787 -656Q796 -656 802 -658Q816 -658 827 -653Q836 -651 844 -650Q850 -650 854 -646Q857 -643 860 -640Q861 -636 865 -637Q868 -638 869 -636Q875 -626 882 -617Q895 -607 891 -588Q891 -584 886 -579Q881 -574 881 -571Q855 -541 843 -529Q838 -528 832 -521Q826 -514 823 -513Q809 -503 807 -500Q803 -494 797 -491Q790 -488 787 -494Q783 -492 780 -488Q778 -484 772 -486Q764 -479 753 -476Q742 -470 730 -470Q717 -470 705 -468Q690 -475 675 -466Q672 -466 666 -464L645 -461Q641 -460 636 -459Q639 -463 649 -469Q660 -476 663 -481Q661 -486 655 -494Q647 -504 646 -511Q642 -516 637 -543Q638 -545 640 -547Q642 -548 640 -552Q638 -556 644 -560Q648 -562 648 -565Q647 -571 645 -578Q633 -573 620 -569Q613 -568 603 -564Q590 -559 583 -559Q573 -551 567 -551Q562 -548 564 -546Q568 -543 571 -538Q575 -535 572 -529Q569 -523 570 -519Q574 -509 570 -493Q566 -479 561 -466Q556 -458 551 -449Q545 -440 534 -436Q522 -436 521 -445Q520 -455 520 -464Q517 -469 520 -476Q522 -482 522 -485Q530 -489 533 -500Q535 -504 539 -506Q542 -509 540 -513Q541 -521 541 -530Q546 -533 543 -538Q540 -543 534 -539Q529 -533 511 -528Q502 -523 492 -519Q482 -513 472 -509Q469 -505 463 -501Q455 -497 454 -493Q455 -488 449 -484Q443 -480 444 -476Q440 -472 436 -467Q431 -462 426 -462Q420 -465 408 -467Q400 -474 391 -479Q385 -490 379 -512Q369 -531 379 -554Q388 -564 391 -578Q395 -584 394 -586Q393 -587 401 -593Q401 -598 402 -598Q403 -599 404 -599Q405 -599 404 -604Q411 -613 426 -624Q435 -633 441 -634Q447 -640 464 -645Q479 -650 486 -656ZM802 -613Q781 -615 763 -610Q744 -606 724 -603Q704 -598 690 -595Q678 -590 665 -586Q660 -585 661 -582Q664 -577 666 -572Q676 -564 667 -557Q669 -552 668 -540Q667 -528 670 -522Q675 -505 715 -505Q734 -500 741 -496Q749 -498 759 -511Q765 -519 771 -522Q781 -534 787 -546Q787 -550 793 -552Q799 -554 798 -559Q807 -574 816 -589Q818 -594 823 -600Q827 -606 824 -612Q816 -613 802 -613ZM614 -432H616Q617 -431 630 -412Q634 -403 644 -406Q651 -411 668 -412Q683 -413 689 -416Q725 -416 732 -414Q739 -412 747 -411Q756 -411 762 -404Q777 -399 770 -375Q770 -369 765 -366Q761 -363 757 -360Q756 -353 746 -347Q737 -342 735 -338Q728 -330 721 -323Q708 -312 695 -301Q692 -292 688 -284Q685 -278 680 -278Q674 -278 669 -277Q661 -275 652 -273Q646 -274 644 -270Q641 -265 642 -260Q643 -249 652 -250Q656 -251 666 -253Q678 -253 697 -258Q718 -264 727 -264Q741 -265 754 -267Q792 -267 801 -264Q812 -266 825 -253Q831 -252 831 -246Q832 -241 833 -236Q844 -226 838 -204Q832 -200 830 -194Q828 -188 826 -181Q817 -176 812 -168Q806 -160 800 -152Q792 -140 781 -134Q778 -131 781 -127Q785 -121 783 -118Q776 -114 776 -110Q775 -91 741 -86Q730 -87 721 -90Q705 -89 689 -89Q667 -89 644 -90Q647 -77 640 -30Q643 -25 640 -16Q637 -7 638 -3Q637 9 635 20Q639 34 629 53Q629 57 624 79Q618 86 619 97Q615 102 608 116Q604 120 599 124Q595 128 590 126Q585 110 592 96Q594 88 593 75Q592 59 594 53Q594 2 594 -50Q593 -60 592 -71Q591 -78 585 -78Q579 -78 573 -78Q549 -78 525 -79Q509 -90 489 -98Q481 -114 475 -118Q469 -125 454 -147Q454 -175 460 -189Q471 -239 517 -267Q522 -272 522 -278Q525 -279 528 -280L541 -282Q544 -283 547 -284Q556 -288 576 -294Q590 -292 597 -307Q597 -321 596 -336Q595 -342 596 -347Q597 -353 591 -356Q589 -355 570 -353Q567 -351 531 -354Q526 -354 526 -350Q527 -345 526 -339Q526 -332 520 -323Q513 -313 513 -308Q510 -303 513 -294Q516 -286 515 -282Q504 -281 494 -284Q479 -293 472 -309Q466 -322 474 -342Q478 -373 510 -400Q526 -413 545 -423Q547 -425 548 -424Q549 -420 549 -415Q546 -411 550 -403Q554 -393 551 -389Q550 -386 544 -381Q535 -373 537 -367Q544 -365 553 -367Q577 -375 589 -381Q595 -381 597 -387Q599 -394 594 -397Q594 -404 590 -412Q585 -437 595 -437Q599 -437 614 -432ZM691 -371Q685 -373 681 -369Q670 -369 661 -367Q655 -367 648 -368Q641 -369 640 -361Q643 -352 643 -340Q644 -333 642 -326Q639 -319 646 -314Q652 -314 662 -320Q670 -325 675 -326Q691 -345 699 -363Q702 -366 698 -370Q694 -374 691 -371ZM590 -261Q578 -259 568 -259Q552 -268 543 -260Q534 -247 525 -235Q524 -229 522 -223Q520 -218 522 -211Q523 -204 518 -200Q512 -195 508 -189Q505 -176 502 -163Q502 -157 502 -151Q501 -146 501 -112Q504 -107 519 -109Q531 -108 556 -110Q565 -112 575 -112Q585 -112 593 -118Q597 -153 596 -188Q598 -192 596 -198Q594 -203 589 -200Q582 -200 554 -205Q552 -207 546 -205Q540 -203 539 -207Q541 -215 549 -216Q556 -217 562 -220Q570 -226 579 -227Q589 -227 590 -238Q593 -247 593 -259Q592 -262 590 -261ZM761 -229H758Q744 -227 730 -225Q720 -225 673 -214Q661 -212 651 -208Q645 -205 645 -198Q646 -191 645 -185Q646 -162 647 -140Q642 -125 651 -120Q669 -122 687 -125Q709 -129 730 -134Q762 -159 785 -215Q789 -220 785 -226Q781 -232 775 -230Q767 -231 761 -229Z"/>
</svg>