<svg xmlns="http://www.w3.org/2000/svg" viewBox="0 -800 1024 1024">
	<path fill="#000000" d="M604 -701Q614 -696 626 -698Q645 -700 654 -681Q652 -667 657 -662Q659 -658 658 -646Q657 -634 660 -628Q657 -607 654 -587Q652 -563 650 -539Q650 -521 655 -518Q665 -522 682 -520Q713 -523 746 -521Q757 -518 768 -515Q778 -514 786 -507Q794 -500 803 -493Q810 -483 817 -473Q815 -453 815 -449Q817 -432 811 -425Q803 -415 797 -404Q789 -393 780 -384Q774 -382 772 -374Q770 -367 767 -364Q759 -364 757 -356Q758 -351 751 -348Q743 -345 742 -343Q740 -336 728 -328Q722 -325 725 -321Q728 -317 734 -319Q743 -323 754 -323Q769 -325 784 -328Q795 -332 806 -331Q810 -332 817 -327Q824 -322 830 -324Q838 -330 845 -330Q852 -330 856 -323Q857 -319 863 -320Q870 -322 872 -318Q872 -307 884 -303Q887 -299 880 -294Q873 -290 875 -285Q881 -281 878 -276Q875 -270 868 -272Q851 -266 832 -264Q807 -262 782 -261Q772 -257 749 -257Q724 -255 702 -250Q694 -249 686 -249Q673 -250 659 -245L623 -243Q617 -240 612 -224Q608 -220 608 -208Q608 -198 605 -193Q598 -182 597 -167Q589 -161 586 -147Q583 -142 588 -140Q593 -138 599 -140Q612 -144 626 -142Q633 -144 660 -142Q664 -142 699 -134Q713 -132 728 -126Q741 -121 753 -116Q773 -108 793 -100Q807 -94 820 -88Q824 -83 834 -83Q843 -83 846 -81Q859 -64 869 -59Q882 -57 879 -45Q872 -38 875 -32Q877 -30 880 -29Q886 -28 888 -24Q887 -20 880 -18Q873 -16 871 -13Q865 0 860 -2Q837 -10 817 -22Q797 -34 776 -44Q737 -65 698 -80Q688 -84 678 -89Q652 -103 625 -108Q598 -115 571 -117Q559 -126 548 -103Q546 -97 537 -89Q531 -83 528 -79Q517 -76 499 -64Q497 -63 493 -57Q488 -49 483 -51Q476 -55 470 -51Q464 -48 459 -46Q455 -43 450 -47Q445 -51 449 -54Q463 -65 473 -80Q479 -81 484 -90Q489 -100 494 -101Q502 -112 509 -124Q526 -148 536 -174Q544 -201 552 -229Q550 -238 537 -231Q523 -233 509 -229Q493 -227 477 -225Q471 -223 459 -221Q455 -218 446 -218Q435 -218 432 -214Q419 -211 409 -211Q401 -213 387 -215Q381 -215 370 -221Q358 -227 349 -225Q345 -230 349 -232Q354 -234 358 -234Q383 -246 393 -247Q424 -259 477 -268Q486 -272 497 -272Q503 -270 507 -278Q503 -285 490 -285Q471 -297 455 -311Q447 -322 438 -334Q430 -354 427 -374Q430 -383 436 -399Q432 -405 435 -412Q442 -425 442 -442Q445 -451 448 -460Q455 -478 489 -514Q490 -517 492 -516Q496 -514 496 -510Q504 -495 514 -480Q515 -476 514 -470Q513 -464 521 -463Q547 -478 576 -491Q586 -492 589 -513Q587 -538 593 -559Q594 -596 594 -633Q593 -643 592 -653Q592 -662 584 -668Q579 -672 574 -671Q568 -670 563 -671Q559 -671 559 -674Q559 -677 562 -677Q582 -690 604 -701ZM284 -558H293Q304 -554 317 -552Q324 -551 334 -540Q342 -531 346 -529Q351 -529 351 -524Q351 -519 351 -514Q357 -508 358 -498Q362 -483 357 -475Q354 -470 352 -446Q346 -418 343 -403Q336 -396 336 -370Q338 -366 334 -357Q331 -350 331 -346Q335 -339 333 -324Q331 -308 334 -301Q328 -288 334 -274Q333 -261 331 -249Q329 -234 317 -223Q312 -212 308 -208Q303 -203 299 -207Q296 -211 293 -215Q286 -220 279 -225Q266 -241 249 -235Q245 -235 238 -231Q230 -226 225 -228Q220 -226 212 -226Q198 -226 194 -222Q190 -223 184 -219Q177 -215 174 -216Q165 -221 153 -242Q146 -249 145 -259Q144 -268 141 -276Q137 -281 143 -289Q147 -295 147 -298Q145 -307 149 -321Q152 -332 152 -337Q155 -352 157 -368Q160 -383 163 -399Q164 -422 165 -445Q164 -457 164 -470Q163 -482 153 -489Q140 -498 136 -499Q132 -503 135 -505Q139 -507 144 -503Q160 -509 175 -515Q182 -522 199 -528Q212 -533 217 -536Q238 -546 260 -553Q271 -558 284 -558ZM265 -522L258 -519Q251 -520 242 -513Q235 -508 232 -507Q231 -506 218 -500Q209 -496 208 -489Q205 -481 208 -473Q212 -465 213 -456Q211 -449 209 -412Q206 -400 227 -400Q247 -398 263 -393Q273 -392 279 -382Q283 -379 286 -388Q285 -395 287 -422Q288 -444 292 -465Q291 -479 294 -494Q293 -502 294 -510Q295 -518 288 -523Q267 -523 265 -522ZM719 -472H716Q708 -468 690 -468Q674 -464 666 -463Q660 -462 655 -460Q649 -458 647 -452Q644 -437 640 -423Q637 -420 635 -404Q637 -395 635 -384Q627 -374 629 -354Q631 -349 629 -333Q627 -331 625 -311Q623 -304 631 -301Q638 -298 643 -304Q664 -336 687 -363Q687 -370 693 -374Q698 -378 702 -382Q702 -385 713 -398Q728 -422 739 -448Q738 -450 740 -458Q742 -467 738 -471Q722 -474 719 -472ZM519 -447Q514 -446 516 -437Q518 -433 515 -425Q512 -418 513 -415Q518 -400 511 -383Q508 -379 511 -372Q513 -365 512 -362Q510 -344 508 -335Q520 -299 522 -288Q521 -280 529 -278Q535 -276 542 -280Q548 -283 555 -284Q562 -284 565 -291Q564 -306 571 -345Q572 -347 572 -350L575 -362Q576 -364 576 -367Q576 -379 579 -389Q579 -399 582 -408Q582 -426 582 -444Q578 -450 573 -447Q569 -444 564 -443Q552 -439 540 -444Q536 -443 530 -446Q523 -449 519 -447ZM211 -376Q207 -377 205 -370Q204 -357 202 -345Q199 -333 201 -320Q199 -300 197 -281Q196 -277 195 -271Q193 -265 200 -264Q207 -266 241 -271Q251 -270 261 -270Q273 -268 274 -278Q273 -284 276 -317Q277 -332 277 -347Q279 -351 277 -356Q275 -360 271 -359Q260 -356 251 -360Q242 -359 235 -364Q229 -369 222 -373Q216 -377 211 -376Z"/>
</svg>