<svg xmlns="http://www.w3.org/2000/svg" viewBox="0 -800 1024 1024">
	<path fill="#000000" d="M660 -192H670Q683 -191 695 -191Q706 -197 720 -181Q713 -170 711 -168Q707 -168 703 -163Q697 -156 692 -158H665Q645 -158 626 -162Q620 -166 612 -169Q604 -172 607 -181Q614 -180 630 -182Q645 -187 660 -192ZM754 -299Q752 -295 744 -294Q737 -293 735 -292Q725 -292 691 -280Q682 -277 673 -275Q668 -268 662 -271Q655 -273 650 -273Q644 -275 639 -276Q629 -279 618 -283Q615 -279 614 -269Q613 -258 610 -255Q606 -249 606 -234Q606 -218 601 -212Q600 -209 595 -166Q589 -149 588 -131Q582 -113 586 -94Q584 -81 581 -69Q585 -65 582 -60Q580 -55 581 -53Q593 -48 605 -48Q613 -48 627 -52Q647 -52 667 -52Q685 -54 702 -56Q708 -54 725 -55Q743 -56 753 -52Q758 -52 765 -47Q772 -42 776 -42Q782 -41 783 -47Q785 -54 786 -59L787 -62Q789 -73 787 -78Q796 -113 798 -149Q800 -179 801 -209Q800 -232 799 -255Q797 -278 784 -296Q775 -303 754 -299ZM427 -560Q431 -558 434 -556Q443 -547 447 -533Q448 -527 452 -526Q457 -526 462 -530Q467 -538 487 -540Q502 -542 515 -542Q525 -548 535 -541Q545 -534 540 -524Q537 -522 534 -515Q531 -508 527 -507L499 -489Q493 -488 490 -477L474 -479Q458 -487 447 -475Q443 -474 444 -469Q444 -465 442 -464Q439 -455 436 -447Q435 -441 433 -433Q431 -425 437 -419Q472 -439 509 -468Q553 -503 569 -529Q571 -525 569 -513Q564 -502 561 -492Q560 -476 541 -464Q543 -459 530 -446Q522 -433 508 -422Q501 -417 492 -408Q482 -404 479 -396Q466 -382 457 -366Q450 -364 448 -357Q445 -350 441 -346Q438 -337 428 -337Q420 -337 415 -346Q413 -344 409 -344Q406 -344 405 -348Q392 -357 387 -373Q376 -391 385 -408Q386 -424 387 -440Q393 -461 397 -484Q401 -501 413 -533Q415 -535 418 -545Q422 -556 427 -560ZM216 -635L220 -634Q238 -637 259 -632Q280 -627 280 -617Q285 -611 282 -585Q285 -570 281 -556Q283 -552 281 -543Q279 -536 281 -532Q278 -525 282 -513Q278 -502 275 -500Q273 -489 274 -480Q277 -476 273 -470Q269 -464 271 -462Q276 -453 271 -445Q272 -439 278 -441Q283 -442 284 -440Q295 -444 313 -442Q322 -444 328 -440Q334 -440 334 -435Q335 -430 336 -426Q324 -417 315 -406Q307 -402 298 -399Q290 -396 282 -393Q274 -390 276 -379Q272 -354 275 -341Q277 -336 277 -313Q285 -321 302 -344Q319 -368 331 -378Q330 -377 330 -371Q330 -365 326 -364Q322 -361 321 -356Q320 -352 319 -351Q307 -315 300 -301Q295 -297 288 -282Q282 -269 274 -262Q267 -253 268 -242Q269 -232 269 -222Q267 -217 269 -209Q271 -201 269 -198Q270 -190 267 -182Q269 -175 270 -168Q269 -148 262 -131Q265 -107 260 -83Q260 -64 256 -45Q258 -41 252 -33Q247 -26 247 -21Q243 -19 240 -14Q236 -9 231 -10Q231 -16 227 -17Q223 -18 220 -20L203 -42Q203 -45 199 -48Q195 -52 194 -56Q196 -62 194 -72Q200 -82 200 -109Q203 -114 203 -125Q203 -137 205 -140Q209 -165 213 -190Q213 -194 211 -194Q207 -193 202 -190Q195 -180 176 -166Q176 -161 170 -157Q164 -154 164 -151Q155 -142 142 -134Q135 -132 134 -138Q132 -145 133 -152Q113 -172 114 -190Q131 -199 138 -212Q143 -216 147 -223Q154 -234 160 -237Q166 -251 181 -262Q198 -284 214 -306Q229 -318 226 -337Q225 -342 228 -349Q232 -357 229 -361Q230 -367 227 -371Q225 -372 224 -368Q205 -364 194 -357Q194 -356 184 -353Q176 -358 160 -360Q158 -362 152 -362Q147 -362 145 -365Q136 -364 113 -372Q105 -376 117 -379Q140 -379 159 -389Q190 -402 221 -416Q228 -416 229 -422Q231 -428 232 -433Q230 -449 230 -462Q232 -481 234 -501Q237 -516 233 -529Q234 -535 234 -542Q233 -547 234 -557Q235 -567 233 -573Q234 -585 231 -598Q229 -615 222 -619Q220 -622 217 -627Q214 -632 216 -635ZM651 -695Q663 -695 664 -694Q672 -691 681 -689Q689 -692 706 -682Q711 -679 709 -672Q707 -666 706 -661Q708 -653 704 -642Q700 -631 700 -625Q700 -617 700 -610Q710 -606 724 -616Q748 -617 771 -619Q776 -621 779 -618Q781 -616 781 -611Q785 -608 789 -606Q792 -605 793 -599L781 -588Q780 -584 779 -579Q777 -573 773 -574Q762 -569 747 -566Q734 -561 720 -556Q710 -553 702 -548Q695 -545 694 -537Q693 -530 689 -524Q691 -521 688 -511Q687 -501 687 -490Q687 -479 696 -474Q700 -466 711 -460Q715 -458 730 -453Q739 -455 746 -455Q757 -449 765 -449Q767 -448 783 -446Q804 -442 812 -432Q810 -428 814 -424Q817 -421 817 -419Q812 -415 803 -412Q799 -403 789 -402Q777 -399 765 -400Q753 -402 740 -405Q737 -404 728 -406Q717 -409 712 -405Q699 -404 688 -397L705 -412Q706 -419 687 -425Q655 -438 639 -473Q626 -489 630 -528Q631 -531 628 -550Q607 -556 608 -572Q627 -572 634 -578Q639 -585 640 -607Q641 -625 645 -634Q645 -648 648 -661Q651 -674 646 -686Q640 -693 651 -695ZM615 -304Q617 -301 621 -297Q682 -323 700 -328Q724 -329 745 -335L763 -334Q773 -337 790 -332Q802 -329 808 -329Q821 -322 831 -313Q838 -310 842 -299Q845 -290 849 -286Q852 -277 853 -264Q857 -254 857 -241Q854 -229 858 -222Q856 -210 854 -198Q855 -193 853 -186Q851 -178 853 -174Q852 -158 851 -143Q852 -140 850 -133Q848 -127 849 -123Q845 -112 847 -97Q842 -70 840 -66Q839 -50 831 -20Q826 -9 821 2L816 11Q815 16 813 20Q814 30 792 26Q781 10 781 9Q776 6 773 -1Q769 -9 765 -12Q757 -9 730 -14Q725 -17 715 -16Q700 -15 695 -19Q690 -14 684 -15Q678 -15 673 -14Q661 -16 630 -9Q607 -11 598 -18Q595 -17 587 -20Q580 -23 575 -21Q575 -19 575 -18Q571 -19 569 -25Q567 -25 564 -28Q561 -31 559 -28Q557 -28 554 -34Q549 -44 543 -45Q542 -50 533 -57Q522 -65 526 -74Q525 -79 527 -95Q527 -103 532 -122Q537 -141 536 -153Q549 -198 562 -244Q568 -256 572 -276Q577 -300 581 -308Q581 -312 587 -312Q592 -312 592 -317Q598 -319 602 -319Q610 -331 634 -384Q643 -379 657 -377Q675 -374 683 -370Q696 -363 685 -350Q644 -319 635 -315Q632 -311 615 -304Z"/>
</svg>