<svg xmlns="http://www.w3.org/2000/svg" viewBox="0 -800 1024 1024">
	<path fill="#000000" d="M238 -716Q248 -715 259 -711Q273 -717 286 -709Q295 -710 297 -702Q300 -693 300 -684Q301 -680 299 -671Q296 -658 300 -651Q296 -640 300 -627Q298 -625 300 -621Q303 -616 300 -613Q301 -600 299 -588Q298 -583 298 -546Q303 -538 312 -537Q320 -536 329 -536Q342 -537 355 -539Q363 -539 368 -532Q370 -505 357 -500Q339 -491 318 -486Q307 -484 299 -465Q294 -444 304 -423Q301 -420 302 -413Q303 -406 301 -404Q303 -392 304 -381Q306 -377 304 -372Q302 -365 305 -363Q326 -374 346 -390L374 -418Q378 -412 372 -400Q368 -391 368 -386Q370 -377 365 -371Q360 -364 356 -356Q352 -351 348 -344Q344 -337 337 -335Q319 -313 309 -304Q299 -295 301 -285Q302 -274 299 -265Q300 -257 300 -250Q297 -233 298 -218Q300 -206 296 -186Q294 -167 292 -148Q295 -143 292 -132Q290 -124 292 -119Q290 -110 291 -96Q292 -73 289 -64Q277 -54 276 -47Q276 -41 272 -40Q268 -39 265 -38Q259 -44 253 -50Q248 -53 243 -62Q239 -70 235 -73Q234 -78 227 -84Q217 -93 219 -102Q218 -107 210 -118Q200 -131 201 -140Q210 -134 218 -128Q226 -126 233 -130Q240 -135 238 -143L244 -231Q245 -238 243 -244Q241 -247 237 -243Q221 -229 207 -219Q197 -203 182 -194Q179 -185 172 -179Q165 -173 159 -167Q155 -165 150 -160Q146 -156 139 -156Q134 -151 130 -156Q127 -160 127 -166Q124 -169 123 -178Q121 -189 116 -194Q116 -199 109 -207Q99 -217 102 -223Q111 -235 127 -235Q140 -242 159 -258Q180 -275 190 -281Q198 -289 220 -301Q238 -311 247 -319Q252 -380 254 -455Q255 -467 233 -456Q229 -457 222 -454Q216 -450 211 -452Q202 -446 192 -446Q179 -446 159 -456Q155 -460 142 -463Q124 -468 122 -478Q131 -476 139 -475Q177 -483 211 -498Q246 -507 255 -515Q255 -540 255 -565Q258 -572 256 -585Q254 -598 255 -602Q255 -629 255 -656Q255 -682 241 -682Q236 -686 230 -691Q223 -697 229 -704Q232 -710 238 -716ZM563 -694Q582 -694 600 -694Q614 -693 628 -691Q641 -688 652 -679Q659 -676 661 -663Q671 -656 656 -641Q653 -638 642 -638Q637 -632 620 -638Q601 -639 586 -653Q564 -664 542 -676Q540 -679 531 -680Q522 -681 520 -686Q553 -690 563 -694ZM681 -626Q686 -626 691 -626Q717 -625 744 -621Q754 -618 763 -614Q773 -611 776 -599Q782 -595 778 -591Q774 -587 772 -583Q771 -571 763 -558Q751 -543 736 -534Q734 -530 728 -527Q722 -524 720 -521Q705 -523 704 -513Q689 -499 673 -489Q671 -483 666 -481Q660 -478 655 -474Q631 -470 606 -466Q594 -457 581 -466Q567 -467 545 -483Q539 -485 536 -490Q533 -496 540 -499Q557 -496 585 -511Q590 -510 602 -515Q610 -520 629 -519Q646 -518 653 -521Q662 -521 667 -531Q674 -545 677 -547Q682 -554 688 -561Q694 -569 693 -576Q676 -576 659 -570Q655 -567 640 -565Q627 -563 620 -558Q617 -560 611 -557Q607 -554 604 -557Q595 -554 572 -559Q543 -567 539 -569Q536 -568 529 -571Q520 -575 516 -570Q528 -552 520 -534Q506 -531 509 -503Q513 -484 513 -466Q516 -442 511 -419Q510 -408 508 -398Q508 -387 507 -376Q506 -373 507 -365Q508 -357 505 -352Q506 -346 501 -335Q497 -327 497 -323Q499 -318 496 -305Q494 -292 497 -286Q563 -311 631 -330Q650 -336 668 -342Q675 -342 675 -351Q675 -359 671 -365Q657 -373 644 -384Q641 -389 646 -391Q653 -393 658 -391Q664 -385 674 -387Q695 -385 702 -382Q714 -383 720 -370Q723 -361 732 -361Q745 -364 758 -367Q766 -373 790 -373Q804 -373 810 -376Q811 -382 805 -384Q798 -387 793 -391Q786 -392 781 -402Q777 -410 774 -411Q772 -413 770 -415L761 -424Q759 -426 756 -428L780 -429Q789 -437 805 -428Q821 -427 836 -427Q840 -425 848 -426Q857 -428 860 -426Q867 -427 867 -422Q866 -414 868 -408Q871 -394 862 -388Q856 -382 852 -370Q853 -362 843 -367Q840 -365 842 -363Q849 -360 849 -356Q853 -344 842 -338Q839 -333 831 -332Q825 -331 823 -329Q798 -322 773 -316Q763 -315 752 -309Q744 -306 737 -305Q730 -303 727 -296Q720 -286 717 -275Q716 -273 714 -266Q713 -259 708 -257Q706 -242 703 -228Q701 -214 692 -203Q691 -193 686 -186Q681 -178 677 -171Q668 -155 659 -140Q654 -137 649 -133Q644 -129 648 -125Q669 -125 697 -120Q706 -119 715 -120Q725 -122 733 -117Q744 -114 754 -113Q776 -108 798 -103Q808 -96 820 -94Q840 -89 845 -89Q890 -74 904 -67Q913 -65 920 -59Q927 -53 935 -48Q939 -46 940 -40Q942 -33 944 -31Q954 -26 947 -17Q951 -8 941 -3Q937 -3 933 2Q929 6 925 0Q908 9 905 9Q888 3 843 -20L807 -34Q787 -43 768 -53Q749 -63 727 -69Q702 -79 677 -89Q667 -91 631 -100Q623 -99 610 -87Q595 -74 585 -74Q570 -65 567 -65Q563 -65 560 -70Q574 -88 585 -106Q581 -110 584 -113Q587 -116 592 -117Q607 -136 615 -159Q624 -175 632 -191Q649 -224 658 -260Q657 -267 659 -274Q661 -282 654 -283Q637 -276 616 -274Q612 -274 607 -271Q600 -266 596 -268Q594 -267 546 -252Q526 -251 508 -257Q499 -260 489 -263Q485 -263 483 -257Q481 -253 475 -231Q471 -213 460 -196Q463 -186 459 -179Q454 -171 451 -163Q450 -155 444 -144Q438 -134 437 -129Q434 -113 425 -104Q418 -93 414 -86Q409 -78 401 -78Q360 -85 362 -112Q366 -128 365 -135Q372 -138 378 -153Q381 -162 386 -167Q392 -182 400 -196Q408 -210 409 -228Q421 -247 426 -271Q430 -276 433 -293Q436 -308 442 -316Q451 -342 454 -361Q456 -380 459 -399Q465 -420 468 -457Q471 -490 473 -502Q476 -533 476 -534Q479 -550 492 -557Q495 -560 501 -564Q510 -570 512 -575Q507 -578 507 -581Q508 -583 513 -582Q546 -593 575 -605Q608 -616 643 -622Q649 -624 664 -624Q675 -624 681 -626Z"/>
</svg>