<svg xmlns="http://www.w3.org/2000/svg" viewBox="0 -800 1024 1024">
	<path fill="#000000" d="M758 -674Q784 -673 809 -673Q821 -669 833 -666Q846 -663 855 -654Q856 -648 865 -645Q872 -643 874 -639Q888 -625 891 -609Q891 -603 883 -566Q879 -562 878 -557Q876 -551 869 -549Q867 -533 858 -521Q853 -519 848 -512Q842 -503 837 -502Q827 -488 816 -478Q801 -479 801 -464Q787 -451 778 -439Q775 -440 772 -435Q768 -427 763 -429Q752 -420 741 -411Q733 -407 725 -405Q723 -405 723 -410Q727 -414 724 -419Q721 -425 715 -424Q710 -428 707 -423Q704 -418 701 -413Q696 -404 678 -386Q666 -375 659 -365Q654 -359 639 -336Q635 -330 628 -322Q617 -311 615 -305Q611 -300 614 -297Q618 -293 624 -295Q627 -292 629 -295Q632 -300 635 -297Q646 -295 664 -298Q683 -301 691 -300Q720 -298 728 -290Q738 -291 743 -284Q749 -277 755 -271Q763 -264 764 -254Q770 -253 769 -247Q769 -241 773 -239Q775 -233 773 -210Q769 -207 765 -196Q762 -188 758 -184Q758 -181 749 -161Q748 -156 741 -149Q735 -143 734 -139Q725 -137 722 -130Q718 -124 715 -118Q708 -117 704 -107Q699 -96 696 -94Q692 -95 690 -89Q688 -82 685 -81Q679 -81 677 -71Q676 -66 669 -61Q661 -55 660 -51Q650 -40 639 -29Q628 -12 610 -2Q600 3 595 9Q585 19 577 24Q571 34 560 37Q540 49 531 48Q529 53 523 52Q516 51 514 55Q511 53 505 57Q498 62 493 57Q491 59 486 58Q481 57 482 53Q495 44 508 36Q521 28 529 15Q538 10 553 -8Q565 -22 574 -29Q582 -34 593 -47Q601 -57 606 -61Q616 -78 626 -86Q633 -104 645 -112Q648 -119 656 -127Q668 -139 669 -148Q645 -151 623 -158Q619 -156 611 -160Q606 -163 602 -162Q591 -164 554 -180Q549 -183 541 -186Q537 -188 541 -193Q560 -195 577 -197Q590 -197 596 -198Q606 -198 616 -198H655Q665 -198 674 -198Q683 -191 692 -190Q698 -186 702 -195Q706 -202 708 -203Q707 -210 710 -224Q713 -238 711 -246Q711 -252 707 -255Q702 -258 699 -262Q676 -262 652 -263Q644 -264 629 -273Q616 -280 608 -282Q601 -287 596 -278Q590 -266 586 -265Q576 -261 563 -246Q553 -234 547 -230Q544 -226 543 -224Q541 -221 536 -225Q532 -220 528 -223Q524 -226 525 -232Q517 -237 516 -242Q519 -245 517 -247Q515 -249 512 -248Q508 -251 504 -256Q500 -261 505 -266Q511 -262 517 -259Q522 -260 525 -275Q527 -279 532 -280Q536 -281 539 -284Q541 -293 548 -297Q550 -304 557 -308Q563 -313 568 -317Q567 -321 569 -321Q571 -321 573 -324Q574 -329 582 -334Q591 -339 592 -344Q605 -351 608 -361Q607 -366 605 -373Q603 -377 598 -373Q603 -382 612 -392Q615 -398 620 -403Q625 -409 623 -416Q606 -414 596 -411Q562 -406 549 -408Q519 -402 491 -427Q489 -430 491 -431Q495 -431 500 -430Q522 -428 543 -434Q563 -440 585 -445Q597 -446 600 -459Q604 -477 607 -479Q623 -518 637 -558Q652 -581 635 -598Q632 -602 633 -603Q640 -603 649 -600Q661 -606 669 -582Q675 -576 675 -567Q675 -559 676 -553Q683 -548 680 -537Q677 -527 669 -523Q659 -500 645 -481Q640 -476 637 -468Q637 -465 643 -465Q650 -468 665 -470Q669 -468 679 -469Q692 -470 697 -465Q704 -460 707 -451Q715 -446 723 -450Q731 -454 739 -457Q745 -466 753 -470Q762 -474 770 -479Q773 -490 778 -494Q783 -496 786 -506Q789 -514 792 -518Q802 -529 812 -546Q816 -555 821 -565Q826 -574 827 -587Q832 -601 825 -615Q817 -630 802 -631Q799 -634 791 -634Q779 -635 778 -641Q776 -645 774 -644Q771 -641 772 -635L706 -631Q699 -629 691 -628Q680 -627 669 -627Q648 -622 626 -617Q606 -612 585 -607Q561 -602 539 -593Q524 -594 508 -599Q491 -599 476 -605Q476 -585 478 -566Q472 -553 466 -541Q466 -530 457 -510Q452 -488 465 -479Q462 -475 474 -468Q480 -461 477 -453Q476 -452 474 -455Q468 -452 461 -455Q423 -469 414 -489Q405 -502 407 -518Q410 -534 412 -549Q412 -554 416 -555Q422 -556 426 -559Q430 -560 428 -567Q426 -573 427 -574Q426 -581 431 -582Q436 -584 440 -588Q451 -599 457 -613Q465 -617 468 -607Q476 -607 482 -612Q491 -614 551 -633Q563 -636 575 -639L620 -651Q632 -654 644 -657Q670 -661 696 -666Q726 -672 758 -674ZM260 -658H273Q282 -661 294 -647Q299 -644 301 -633Q308 -621 309 -615Q309 -605 309 -595Q309 -594 306 -585L301 -574Q300 -556 298 -538Q297 -523 295 -508Q290 -501 297 -486Q296 -481 296 -474Q296 -467 304 -466Q314 -470 325 -474Q336 -478 349 -474Q360 -475 366 -466Q371 -459 370 -447Q366 -441 346 -436Q340 -436 338 -429Q336 -423 333 -422Q324 -424 308 -412Q288 -408 293 -390Q294 -387 291 -381Q287 -375 289 -369Q291 -365 290 -359Q288 -352 289 -349Q291 -342 287 -333Q283 -331 286 -327Q290 -323 293 -324Q301 -328 308 -333L337 -354Q345 -358 352 -363Q359 -369 378 -383Q402 -400 412 -411Q415 -415 418 -421Q421 -426 427 -424Q431 -417 424 -412Q417 -407 414 -401Q409 -392 400 -384Q396 -373 386 -367Q382 -358 374 -350Q372 -347 366 -341L349 -325Q345 -320 341 -316Q310 -290 293 -267Q291 -261 285 -257Q280 -253 283 -246Q291 -229 284 -209Q285 -203 283 -196Q280 -185 283 -180Q287 -166 291 -153Q288 -140 284 -128Q280 -124 283 -116Q285 -109 284 -105L279 -87Q279 -81 279 -76Q279 -67 279 -58Q275 -44 272 -29Q274 -19 262 -12Q258 -8 254 -8Q244 -8 234 -23Q223 -33 223 -49Q222 -50 219 -69Q219 -94 220 -97Q222 -114 223 -132Q222 -146 226 -158Q227 -172 228 -187Q228 -193 230 -201Q232 -208 226 -212Q208 -205 194 -190Q182 -179 170 -169Q168 -164 159 -163Q151 -162 149 -160Q138 -159 136 -167Q133 -170 130 -179Q127 -189 122 -192Q113 -197 117 -205Q115 -214 120 -218Q125 -223 131 -227Q134 -237 142 -246Q150 -254 156 -263Q176 -294 196 -326Q206 -342 222 -355Q228 -365 230 -377Q221 -384 211 -375Q199 -381 187 -367Q177 -357 159 -364Q141 -370 121 -370Q115 -374 101 -377Q90 -379 84 -383Q86 -389 93 -390Q99 -391 105 -392Q115 -398 127 -399Q132 -398 137 -405Q141 -411 146 -411Q160 -402 169 -418Q172 -425 181 -418Q184 -415 190 -420Q196 -426 202 -424Q210 -433 239 -439Q244 -443 243 -455Q242 -465 244 -468Q243 -484 241 -500Q245 -539 244 -578Q245 -597 242 -614Q240 -617 241 -622Q242 -627 241 -629Q239 -634 231 -638Q224 -641 223 -644Q225 -649 230 -650Q236 -650 240 -653Q243 -658 249 -657Q255 -656 260 -658ZM585 -593Q592 -592 594 -587Q583 -574 588 -559Q583 -534 582 -529Q579 -521 582 -507Q585 -495 584 -491Q581 -483 579 -474Q577 -464 568 -460Q564 -469 560 -479Q554 -481 552 -485Q550 -489 548 -493Q547 -517 553 -539Q551 -547 555 -561Q559 -576 557 -585Q555 -588 556 -589Q559 -589 563 -590Q565 -590 565 -592Q576 -587 585 -593ZM223 -295L220 -294Q209 -275 220 -263Q230 -267 230 -283Q231 -287 228 -292Q226 -297 223 -295Z"/>
</svg>