<svg xmlns="http://www.w3.org/2000/svg" viewBox="0 -800 1024 1024">
	<path fill="#000000" d="M187 -710Q195 -709 202 -709Q219 -702 236 -701Q242 -699 245 -697Q251 -694 250 -690Q254 -690 259 -684Q262 -680 266 -680Q271 -671 275 -662Q272 -656 274 -646Q276 -639 275 -634Q277 -632 276 -627Q275 -621 278 -619Q276 -605 273 -590Q274 -570 271 -554Q271 -546 270 -538Q268 -522 266 -507Q264 -498 269 -493Q274 -487 282 -491Q292 -492 310 -484Q318 -482 324 -477Q332 -470 329 -463Q323 -459 317 -453Q311 -447 304 -451Q295 -446 286 -442Q279 -443 275 -437Q271 -431 273 -423Q270 -413 266 -404Q264 -398 265 -393Q264 -380 260 -372Q263 -356 266 -341Q280 -346 295 -363Q298 -366 300 -363Q302 -358 300 -354Q303 -350 298 -345Q294 -340 296 -337Q293 -330 290 -323Q284 -321 280 -312Q277 -304 274 -302Q268 -299 260 -280Q262 -251 258 -231Q257 -222 255 -213Q258 -195 260 -178Q248 -161 254 -142Q259 -129 255 -117Q253 -108 254 -95Q256 -74 250 -67Q251 -59 245 -49Q240 -41 239 -35Q227 -39 219 -50Q210 -62 203 -72Q192 -81 192 -88Q188 -97 189 -114Q190 -131 187 -138Q191 -136 194 -133Q197 -130 202 -131Q207 -135 207 -152Q208 -188 214 -221Q215 -234 212 -246Q200 -235 187 -224Q174 -212 166 -201Q157 -198 152 -187Q143 -175 132 -167Q114 -152 101 -136Q90 -124 80 -138Q78 -139 76 -146Q74 -152 70 -153Q71 -160 57 -174Q50 -173 50 -178Q51 -188 59 -194Q84 -196 98 -210Q112 -222 117 -227L155 -259Q165 -267 174 -276Q183 -283 192 -289Q202 -295 209 -304Q216 -305 218 -311Q218 -312 220 -322Q222 -358 223 -394Q223 -401 224 -410Q226 -420 216 -420Q197 -411 178 -402Q148 -401 110 -404Q107 -407 89 -413Q72 -419 77 -426Q88 -424 106 -432Q121 -439 129 -439Q141 -444 152 -449L197 -469Q208 -474 219 -479Q224 -478 224 -482Q224 -486 225 -489Q225 -498 224 -507Q223 -546 225 -584Q226 -596 226 -608Q226 -621 226 -635Q227 -640 224 -672Q222 -678 211 -684Q204 -688 202 -691Q185 -702 187 -710ZM660 -572Q667 -568 672 -562Q689 -560 705 -559Q722 -552 725 -550Q736 -543 737 -533Q738 -527 735 -523Q732 -520 730 -516Q733 -509 728 -501Q724 -495 724 -492Q729 -490 735 -494Q740 -498 745 -500Q773 -508 801 -514Q817 -514 832 -514Q862 -509 868 -506Q880 -505 890 -501Q891 -500 898 -498Q906 -496 907 -491Q911 -489 914 -481Q916 -476 917 -475Q929 -455 929 -432Q921 -410 916 -405Q917 -398 909 -396Q906 -390 897 -388Q894 -382 889 -379Q884 -377 881 -374Q877 -372 873 -367Q869 -360 865 -360L842 -335Q828 -331 816 -322Q812 -322 808 -317Q803 -311 798 -312Q791 -306 783 -304Q773 -297 761 -294Q755 -287 745 -287Q744 -289 743 -289Q741 -287 739 -289Q715 -274 702 -271Q695 -263 693 -253Q691 -249 685 -249Q679 -249 679 -245Q676 -233 668 -223Q660 -213 653 -203Q653 -201 648 -198Q642 -195 642 -190Q637 -183 627 -182Q616 -169 601 -160Q596 -158 589 -154Q584 -153 584 -159L594 -174Q602 -184 606 -188Q609 -202 617 -213Q621 -217 625 -228Q629 -238 633 -243Q648 -268 655 -297Q655 -304 655 -312Q645 -321 632 -325Q619 -330 618 -344Q614 -348 618 -352Q621 -355 624 -350Q634 -345 645 -347Q649 -348 654 -343Q658 -339 661 -340Q672 -338 683 -336Q686 -332 692 -329Q700 -326 701 -322Q706 -320 706 -315Q706 -311 708 -310Q713 -302 719 -306Q724 -310 729 -312Q744 -323 758 -335Q761 -336 769 -342Q776 -348 782 -349Q786 -356 795 -365Q802 -368 808 -372Q824 -388 840 -408Q848 -420 855 -434Q861 -449 855 -464Q849 -470 841 -470Q826 -467 810 -465Q789 -467 769 -454Q759 -452 748 -450Q738 -444 727 -445Q721 -441 707 -439Q691 -437 685 -432Q675 -429 664 -430Q652 -414 641 -417Q633 -396 620 -393Q617 -388 614 -391Q611 -396 614 -401Q612 -422 620 -437Q628 -460 635 -483Q639 -493 642 -504Q648 -517 654 -531Q657 -535 654 -537Q651 -540 647 -543Q642 -546 643 -552Q643 -558 642 -563Q654 -567 660 -572ZM482 -540Q486 -541 490 -537Q500 -537 510 -538Q519 -540 524 -529Q530 -527 530 -521Q530 -515 524 -513Q522 -509 517 -507Q510 -504 509 -502Q506 -499 493 -494Q488 -495 481 -488Q475 -482 472 -482Q458 -467 443 -459Q423 -462 417 -445Q420 -431 428 -417Q432 -408 435 -399Q436 -398 441 -382Q440 -376 444 -366Q447 -358 447 -352Q441 -346 448 -340Q453 -338 459 -340Q491 -350 523 -360Q526 -362 535 -360Q542 -358 546 -360Q557 -362 568 -364Q573 -368 573 -356Q583 -338 572 -331Q544 -326 545 -311Q546 -308 545 -299Q544 -289 546 -284Q553 -276 551 -266Q549 -255 546 -246Q548 -242 545 -234Q542 -227 543 -223Q541 -218 543 -208Q545 -198 544 -194Q537 -180 542 -160Q539 -156 541 -140Q540 -122 538 -105Q538 -93 520 -95Q500 -107 493 -127Q492 -131 486 -139Q478 -149 480 -156Q479 -161 483 -168Q486 -173 486 -176Q492 -202 497 -229Q503 -256 509 -283Q510 -291 510 -299Q513 -305 510 -310Q507 -315 501 -313Q494 -315 484 -309Q474 -303 469 -305Q460 -306 452 -306Q444 -306 440 -298Q440 -292 430 -270Q430 -257 418 -214Q414 -210 412 -200Q410 -191 407 -187Q401 -165 390 -143Q385 -139 374 -122Q362 -110 352 -121Q341 -131 341 -145Q340 -157 339 -169Q340 -170 346 -185Q348 -195 356 -203Q355 -220 366 -232Q371 -255 379 -276Q379 -285 383 -292Q387 -299 389 -306Q386 -317 394 -326Q395 -345 400 -361Q396 -369 398 -377Q400 -386 400 -394Q401 -402 397 -407Q392 -413 385 -411Q381 -414 381 -429Q381 -444 383 -456Q389 -463 401 -489Q401 -497 410 -490Q416 -487 419 -494Q419 -499 423 -500Q427 -501 431 -501Q445 -515 456 -518Q463 -523 463 -532Q465 -539 472 -535Q476 -533 482 -540ZM711 -186L724 -185Q730 -182 746 -181Q761 -181 768 -177Q781 -177 792 -171Q793 -169 797 -171Q802 -173 804 -169Q842 -161 846 -159Q863 -156 879 -153Q884 -149 895 -147Q908 -145 911 -140Q914 -137 920 -135Q930 -132 932 -127Q936 -114 940 -101Q941 -94 933 -91Q922 -87 920 -86Q908 -86 902 -89Q885 -90 872 -96Q858 -102 845 -107Q840 -106 834 -111Q827 -116 823 -115Q809 -121 795 -128Q778 -135 762 -145Q742 -154 732 -161Q717 -172 711 -186Z"/>
</svg>