<svg xmlns="http://www.w3.org/2000/svg" viewBox="0 -800 1024 1024">
	<path fill="#000000" d="M432 -721L452 -715Q458 -711 471 -713Q485 -715 490 -709Q496 -709 496 -703Q497 -698 499 -693Q499 -686 504 -671Q509 -657 508 -647Q512 -641 512 -629Q512 -618 513 -615Q506 -604 508 -587Q505 -582 507 -571Q508 -568 506 -563Q503 -556 505 -553Q513 -551 515 -560Q517 -573 520 -574Q518 -580 517 -588Q517 -590 522 -589Q531 -584 545 -580Q555 -589 568 -576Q570 -578 575 -578Q580 -578 584 -582Q599 -583 616 -584Q632 -585 646 -577Q654 -575 654 -568Q654 -562 654 -553Q658 -544 668 -538Q664 -536 657 -524Q645 -528 633 -518Q624 -519 618 -515Q615 -512 606 -512Q598 -512 593 -509Q579 -504 563 -495Q558 -496 547 -492Q539 -488 533 -489Q521 -483 509 -478Q506 -481 502 -478Q497 -474 494 -475Q482 -465 486 -449Q483 -432 479 -416Q480 -411 476 -402Q472 -392 475 -386Q501 -387 527 -388Q535 -384 547 -387Q559 -382 572 -380Q585 -377 592 -367Q603 -365 609 -358Q617 -346 624 -334Q628 -335 629 -330Q630 -325 632 -324Q631 -321 635 -318Q639 -315 638 -311Q632 -302 642 -290Q636 -281 642 -276Q640 -274 641 -267Q642 -261 638 -261Q633 -257 633 -244Q633 -232 629 -227Q628 -219 619 -207Q611 -197 610 -192Q608 -187 603 -185Q598 -183 596 -180Q597 -176 594 -174Q590 -171 587 -168Q584 -160 574 -154Q569 -145 563 -136Q558 -136 551 -131L541 -123Q539 -118 535 -120Q532 -122 529 -123Q527 -117 526 -111Q526 -104 520 -101Q521 -99 519 -98Q514 -98 513 -95Q527 -87 540 -80Q550 -82 561 -75Q561 -65 578 -67Q579 -65 582 -60Q586 -54 591 -59Q593 -64 598 -63Q603 -63 608 -62Q616 -43 633 -48Q631 -42 637 -39Q643 -36 649 -38Q652 -41 658 -37Q662 -34 666 -34Q667 -28 671 -27Q673 -27 674 -32Q692 -28 696 -17Q706 -22 712 -11Q719 -17 730 -6Q735 -7 738 -2Q741 3 738 7Q738 12 740 12Q747 10 750 7Q756 3 763 7Q769 11 776 15L808 33Q815 40 826 45Q837 49 836 61Q842 63 840 73Q838 80 840 83Q846 84 849 89Q851 95 846 100Q845 107 834 105Q824 103 820 107Q817 106 814 104Q811 103 809 108Q809 111 808 112Q804 108 797 110Q794 120 791 108Q790 97 780 92Q770 87 761 80Q756 76 751 72Q748 72 746 69Q744 65 741 65Q728 61 727 60Q724 60 719 54Q714 47 709 50Q688 42 679 36Q673 37 669 27Q666 17 662 17Q655 25 650 20Q650 15 645 16Q641 17 637 17Q633 13 620 8Q613 6 609 2Q596 -1 585 -12Q574 -7 563 -14Q560 -18 552 -19Q541 -21 538 -25Q535 -27 521 -29Q504 -36 487 -39Q473 -47 454 -52Q449 -57 440 -49Q434 -44 430 -44Q427 -41 410 -39Q398 -35 386 -31Q382 -27 368 -26Q357 -25 352 -22Q342 -24 334 -19Q331 -17 324 -18Q316 -19 313 -15Q295 -9 276 -3Q270 2 258 -1Q250 -3 246 -2Q244 -4 240 -7Q236 -10 238 -13Q237 -18 241 -18Q249 -16 259 -16Q284 -14 322 -34Q334 -37 345 -44Q348 -48 357 -51Q367 -54 369 -61Q370 -65 377 -66Q383 -66 384 -69Q388 -71 388 -76Q388 -80 384 -80Q373 -81 336 -96Q333 -96 329 -99Q324 -103 320 -101L275 -117Q271 -117 262 -121Q253 -125 247 -123Q243 -124 232 -125Q219 -126 213 -130Q189 -129 167 -134Q171 -141 165 -146Q168 -147 169 -148Q170 -150 165 -152Q178 -157 206 -165Q222 -168 237 -172Q243 -170 255 -171Q271 -172 278 -168Q281 -163 292 -163Q302 -163 305 -160Q317 -159 348 -146Q361 -142 375 -137Q391 -129 416 -124Q423 -119 436 -119Q441 -115 446 -117Q453 -120 460 -124Q458 -130 461 -132Q465 -135 468 -138Q478 -147 490 -154Q488 -159 492 -161Q496 -163 499 -166Q502 -171 513 -178Q521 -183 523 -186Q524 -196 538 -218Q545 -220 548 -226Q550 -232 551 -238Q556 -240 558 -252Q562 -252 562 -256Q562 -260 564 -262Q569 -289 568 -301Q567 -325 551 -334Q515 -331 481 -324Q478 -325 471 -323Q465 -321 462 -324Q449 -326 445 -329Q442 -333 429 -336Q414 -339 413 -349Q413 -361 412 -373Q401 -390 407 -403Q405 -406 408 -411Q410 -414 410 -418Q407 -422 408 -430Q409 -438 407 -441Q385 -432 362 -423Q346 -421 330 -420Q324 -418 320 -422Q317 -427 311 -430Q301 -439 284 -447Q281 -451 267 -451Q265 -451 263 -451Q261 -454 272 -454Q277 -453 278 -460Q279 -465 280 -465Q296 -468 348 -488Q360 -494 418 -518Q431 -520 431 -533Q431 -545 433 -555Q429 -582 440 -608Q436 -612 440 -618Q444 -623 441 -626Q439 -632 439 -669Q444 -684 418 -691Q410 -693 414 -701Q418 -709 420 -714Q420 -719 426 -719Q430 -719 432 -721Z"/>
</svg>