<svg xmlns="http://www.w3.org/2000/svg" viewBox="0 -800 1024 1024">
	<path fill="#000000" d="M555 -713Q563 -712 571 -709Q579 -710 588 -703Q600 -709 608 -706Q619 -710 628 -696Q642 -694 640 -680Q635 -677 641 -670Q645 -665 645 -662Q637 -657 628 -659Q620 -661 611 -660Q581 -670 561 -680Q543 -688 528 -700Q517 -705 524 -709Q535 -709 555 -713ZM457 -602Q458 -602 457 -600.5Q456 -599 455 -596Q444 -582 451 -564Q451 -558 447 -546Q442 -532 444 -522Q436 -513 442 -505Q451 -509 460 -514Q496 -532 516 -537Q545 -548 577 -557Q595 -561 613 -566Q638 -573 662 -580Q677 -580 684 -587Q689 -591 703 -587Q724 -591 745 -596Q766 -596 768 -595Q786 -597 793 -595Q810 -595 825 -589Q843 -582 860 -566Q867 -562 871 -554Q875 -547 881 -540Q884 -518 879 -512Q874 -511 873 -503Q872 -496 869 -494Q852 -485 837 -468Q835 -464 815 -453Q789 -435 762 -417Q747 -415 743 -411Q738 -410 730 -406Q727 -402 721 -404Q715 -406 716 -411Q734 -431 751 -452Q765 -465 779 -484L804 -517Q809 -523 809 -534Q791 -549 772 -546Q756 -547 742 -543Q719 -540 697 -535Q685 -535 675 -531Q659 -533 649 -527Q641 -525 632 -523Q616 -523 601 -519Q589 -515 574 -515Q558 -509 542 -504Q535 -502 527 -500Q524 -500 500 -489Q490 -485 451 -463Q434 -459 434 -445Q435 -440 432 -433Q428 -424 430 -418Q432 -412 427 -408Q423 -405 417 -407L392 -421Q382 -431 376 -440Q375 -445 368 -450Q363 -453 363 -456Q363 -487 378 -511Q386 -531 400 -547Q417 -568 427 -575Q435 -586 457 -602ZM203 -596Q229 -596 248 -591Q256 -585 265 -578Q274 -571 275 -560Q274 -551 269 -544Q263 -535 255 -538Q244 -535 235 -541Q199 -558 168 -579Q158 -584 157 -590Q168 -594 183 -594Q186 -594 188 -595H198Q200 -596 203 -596ZM634 -447H638Q644 -449 648 -445Q651 -441 655 -436Q660 -430 655 -425Q650 -419 645 -414Q642 -412 635 -411Q625 -410 622 -404Q613 -401 609 -389Q607 -383 602 -383Q596 -383 591 -383Q569 -383 571 -372Q571 -361 576 -354Q581 -349 587 -350Q594 -352 600 -353Q611 -357 658 -369Q672 -371 684 -376Q698 -379 711 -379Q714 -380 720 -380L737 -381Q742 -381 746 -382Q758 -382 765 -369Q767 -360 752 -347Q731 -337 710 -332Q704 -330 705 -327Q709 -321 715 -319Q726 -313 733 -301Q728 -293 722 -285Q715 -276 713 -266Q705 -252 703 -243Q696 -239 694 -228Q680 -218 689 -212Q703 -212 716 -215Q733 -216 750 -218Q766 -221 781 -220Q791 -219 801 -219Q815 -222 828 -216Q843 -211 836 -199Q830 -198 831 -188Q832 -179 826 -179Q820 -180 811 -173Q802 -166 796 -169Q775 -169 754 -169Q740 -168 726 -167Q709 -168 688 -163Q665 -161 641 -160Q634 -161 624 -157Q616 -154 612 -154Q603 -154 593 -154Q589 -151 582 -153Q575 -154 572 -152Q561 -146 549 -144Q536 -147 524 -144Q516 -141 508 -139Q487 -139 468 -131Q467 -131 437 -128Q415 -122 392 -125Q379 -127 345 -141Q341 -143 337 -145Q332 -147 333 -151Q332 -153 334 -154Q338 -155 343 -152Q353 -154 371 -156Q387 -161 406 -160Q409 -162 426 -164Q448 -167 469 -171Q473 -173 507 -178Q515 -181 524 -182Q533 -183 539 -189Q535 -197 525 -199Q508 -207 502 -222Q495 -230 499 -250Q503 -274 509 -296Q510 -304 511 -312Q510 -319 518 -344Q514 -358 525 -362Q532 -365 535 -371Q538 -378 541 -384Q543 -389 552 -393Q561 -397 563 -401Q566 -414 581 -423Q593 -430 607 -437Q619 -443 634 -447ZM195 -438Q198 -439 200 -434Q202 -430 203 -429Q204 -426 209 -422Q216 -416 217 -411Q238 -383 220 -362Q217 -356 214 -343Q210 -326 205 -319Q205 -310 203 -292Q199 -286 198 -270Q197 -261 195 -254L194 -207Q198 -181 196 -165Q194 -153 206 -145Q206 -140 216 -134Q217 -134 241 -162Q251 -175 261 -189Q275 -203 285 -217Q284 -229 292 -237Q296 -242 300 -249Q303 -255 311 -254Q318 -254 318 -248Q319 -241 319 -233Q316 -230 316 -221Q316 -212 313 -209Q302 -191 291 -174Q290 -171 283 -166Q276 -161 275 -157Q273 -145 265 -134Q256 -128 251 -120Q247 -111 240 -103Q232 -89 210 -94Q193 -100 180 -111Q174 -119 159 -131L147 -158Q142 -168 141 -178Q140 -189 138 -198Q139 -216 140 -234Q140 -242 140 -250Q142 -263 143 -277Q146 -289 148 -302Q146 -319 152 -330Q158 -346 163 -363Q164 -374 173 -399Q178 -406 182 -416Q188 -432 195 -438ZM567 -338Q565 -338 565 -337Q565 -335 564 -334Q571 -319 563 -296Q557 -291 564 -277Q560 -262 562 -245Q560 -230 566 -217Q570 -212 568 -201Q562 -193 572 -188Q592 -193 596 -193Q611 -195 625 -198Q633 -201 636 -209Q638 -216 641 -223Q643 -229 645 -231L651 -248Q654 -252 655 -256Q660 -284 661 -287Q665 -303 662 -320Q654 -333 636 -324Q606 -326 600 -328Q594 -331 584 -333Q580 -332 575 -336Q570 -340 567 -338ZM526 -120H527Q547 -115 549 -94Q546 -87 550 -72Q554 -55 549 -47Q535 -40 542 -26Q543 -19 539 -15Q535 -11 531 -6Q527 3 514 -2Q504 -4 498 -13Q486 -21 482 -34Q476 -34 474 -40Q474 -41 472 -51Q468 -56 469 -63Q470 -70 476 -71Q488 -65 494 -86Q505 -92 515 -98Q520 -100 522 -110Q523 -117 526 -120ZM810 -88H812Q831 -88 849 -86Q865 -79 878 -75Q882 -74 882 -66Q882 -59 886 -56Q887 -49 882 -45Q876 -42 872 -38Q868 -29 854 -21Q848 -21 845 -17Q841 -14 837 -11Q832 -11 828 -3Q824 4 819 4Q815 0 806 3Q797 6 794 1Q788 0 789 -6Q790 -10 795 -13Q798 -19 805 -27Q815 -39 817 -44Q824 -51 817 -58Q810 -66 803 -59Q788 -53 774 -65Q761 -67 747 -70Q730 -70 716 -66Q702 -68 693 -76Q697 -80 707 -80Q716 -80 719 -82L751 -81Q765 -81 778 -85Q794 -86 810 -88Z"/>
</svg>