<svg xmlns="http://www.w3.org/2000/svg" viewBox="0 -800 1024 1024">
	<path fill="#000000" d="M316 -155Q346 -182 374 -219Q381 -232 401 -254Q412 -265 426 -283Q441 -303 448 -310Q466 -332 472 -344Q461 -348 449 -352Q423 -356 398 -359Q392 -362 380 -364Q374 -364 354 -369Q350 -373 358 -374Q370 -383 375 -380Q397 -385 420 -386Q436 -387 452 -389Q472 -389 479 -392Q494 -395 498 -409Q507 -426 516 -443Q525 -463 533 -484Q530 -491 524 -492Q518 -493 513 -495Q488 -508 483 -512Q481 -516 484 -517Q488 -518 491 -516Q513 -524 534 -528Q544 -534 545 -545Q546 -556 549 -566Q549 -572 551 -577Q553 -582 548 -586Q536 -585 523 -592Q503 -599 483 -606Q477 -610 480 -613Q484 -615 490 -614Q529 -628 552 -632Q561 -637 562 -647Q564 -657 565 -666Q568 -683 568 -685Q569 -698 570 -712Q571 -722 564 -728Q556 -735 548 -731Q532 -737 538 -743Q543 -747 553 -750Q562 -753 570 -757Q578 -750 589 -745Q600 -743 613 -743Q614 -739 620 -736Q627 -733 628 -729Q630 -711 626 -694Q622 -679 618 -664Q618 -661 616 -656Q613 -649 616 -645Q626 -641 640 -644Q651 -643 661 -636Q663 -632 656 -626Q649 -621 649 -617Q643 -611 629 -606Q614 -601 610 -597Q601 -579 600 -557Q601 -550 598 -544Q596 -538 601 -532Q616 -529 620 -529Q626 -525 632 -522Q639 -524 647 -513Q647 -490 631 -489Q614 -484 596 -480Q588 -470 582 -461Q578 -456 575 -445Q570 -428 566 -423Q562 -411 555 -400Q582 -405 611 -406Q613 -407 626 -410Q630 -409 634 -412Q640 -416 644 -414Q657 -415 669 -417Q670 -418 694 -423Q703 -420 725 -427Q757 -427 763 -428Q775 -429 791 -426Q801 -429 826 -421Q835 -419 824 -405Q823 -392 818 -381Q818 -373 810 -371Q799 -372 787 -374Q764 -375 741 -374Q736 -371 721 -373Q710 -375 708 -374Q683 -375 661 -372Q673 -369 684 -366Q696 -363 707 -361Q714 -358 721 -356Q742 -352 763 -348Q780 -343 800 -340Q812 -336 824 -333Q830 -329 843 -328Q857 -326 863 -323Q873 -325 889 -313Q910 -307 923 -298Q936 -294 940 -283Q940 -279 941 -274Q943 -266 935 -266Q928 -272 917 -261Q911 -262 898 -262H878Q870 -257 856 -266Q818 -278 783 -295Q771 -300 759 -305Q746 -310 732 -315Q705 -325 678 -336Q662 -342 646 -348Q633 -353 620 -358Q612 -358 604 -359Q592 -358 580 -358Q568 -356 555 -355Q542 -353 539 -350Q537 -348 524 -330Q519 -328 515 -319Q511 -311 505 -310Q500 -309 498 -299Q497 -291 489 -284Q481 -277 474 -276Q467 -268 466 -255Q461 -248 448 -235Q442 -235 438 -227Q434 -217 430 -215Q420 -210 414 -201Q406 -200 403 -194Q399 -188 394 -184Q384 -172 376 -171Q371 -162 363 -157Q356 -158 351 -153Q347 -149 342 -145Q334 -146 328 -142Q323 -138 317 -136Q308 -132 304 -138Q300 -144 316 -155ZM230 -614L235 -612Q238 -607 248 -608Q258 -609 261 -606Q278 -610 287 -606Q297 -605 299 -591Q311 -578 298 -566Q286 -569 286 -557Q282 -553 275 -557Q270 -559 268 -559Q264 -558 257 -561Q252 -564 248 -563Q238 -569 227 -575Q222 -583 214 -582Q206 -582 199 -583Q200 -589 207 -593Q213 -597 215 -599Q223 -606 230 -614ZM286 -155Q286 -153 284 -149L279 -133Q278 -130 277 -127Q273 -125 270 -117Q268 -112 265 -109Q265 -102 259 -96Q252 -89 246 -82Q242 -81 238 -74Q233 -65 227 -66Q218 -68 211 -67Q191 -72 177 -82Q173 -89 167 -91Q161 -93 156 -97Q155 -102 147 -112Q140 -122 139 -128Q129 -149 127 -171Q125 -193 122 -216Q125 -236 130 -255Q133 -261 133 -280Q142 -326 162 -367Q178 -405 199 -417Q202 -416 205 -409Q208 -404 211 -401Q216 -390 217 -376Q214 -356 213 -354Q212 -349 207 -341Q200 -331 200 -326Q190 -307 183 -286Q184 -276 176 -256Q166 -249 170 -239Q172 -235 171 -225Q170 -217 172 -212Q172 -186 173 -183Q173 -163 179 -151Q174 -141 184 -132Q188 -122 200 -113Q210 -108 223 -113Q238 -125 248 -142Q254 -147 263 -161Q272 -174 278 -180Q285 -190 290 -188Q293 -187 292 -181Q289 -168 286 -155ZM656 -317Q658 -315 656 -310Q664 -297 663 -281Q662 -273 653 -268Q651 -267 638 -261Q635 -259 628 -258Q618 -257 616 -252Q617 -250 632 -240Q637 -235 645 -231Q653 -228 654 -219Q657 -212 664 -214Q670 -217 676 -219Q686 -216 691 -231Q693 -233 706 -225Q721 -225 736 -225Q745 -227 753 -226Q760 -222 766 -213Q764 -204 759 -196Q754 -195 747 -188Q740 -180 735 -180Q697 -171 687 -167Q677 -167 669 -162Q660 -156 662 -146Q663 -142 661 -134Q659 -126 661 -121Q660 -101 658 -81Q653 -62 653 -41Q650 -30 650 -18Q645 -13 644 2Q643 14 640 19Q635 22 631 32Q628 39 624 43Q620 48 615 45Q610 42 609 37Q605 32 603 17Q601 4 596 -2Q592 -4 593 -12Q593 -16 592 -18Q587 -25 593 -29Q599 -36 602 -45Q602 -59 602 -74Q603 -83 603 -92Q606 -109 602 -124Q590 -121 570 -101Q557 -88 548 -83Q537 -83 530 -71Q524 -68 520 -55Q517 -45 513 -42Q499 -37 491 -42Q481 -50 479 -59Q465 -73 463 -96Q472 -113 480 -114Q484 -117 490 -115Q496 -113 499 -114Q506 -116 513 -120Q519 -124 526 -121Q564 -128 595 -145Q575 -144 554 -143Q539 -142 526 -138Q505 -138 487 -135Q477 -137 450 -147Q447 -148 426 -157Q424 -161 427 -162Q430 -163 433 -161Q448 -162 480 -168Q503 -173 525 -178Q559 -188 593 -198Q608 -200 611 -211Q607 -228 598 -230Q591 -232 592 -241Q593 -249 589 -251Q586 -254 583 -253Q577 -254 571 -262Q569 -270 562 -276Q557 -278 558 -282Q559 -286 564 -285Q571 -283 583 -290Q591 -295 596 -296Q604 -302 619 -306Q633 -310 637 -312Q640 -317 646 -316Q651 -316 656 -317ZM770 -123Q775 -124 783 -119Q791 -113 796 -115Q799 -120 805 -117Q815 -107 825 -108Q839 -107 843 -91Q844 -88 850 -86Q854 -85 857 -82Q866 -77 867 -67Q865 -63 857 -61Q850 -59 848 -56Q847 -49 840 -47Q833 -45 827 -48Q816 -51 804 -55Q792 -54 788 -62Q786 -67 781 -66Q776 -65 773 -66Q767 -65 764 -69Q763 -71 760 -79Q760 -92 745 -100Q744 -105 739 -110Q734 -115 734 -118Q736 -121 741 -119Q746 -117 748 -117Q759 -119 770 -123Z"/>
</svg>