<svg xmlns="http://www.w3.org/2000/svg" viewBox="0 -800 1024 1024">
	<path fill="#000000" d="M578 -697Q602 -697 613 -695Q615 -691 619 -693Q622 -695 625 -692L650 -686Q657 -678 667 -672Q677 -667 677 -656Q678 -643 673 -630Q669 -626 663 -618Q663 -612 658 -609Q654 -607 650 -603Q648 -599 643 -596Q637 -592 635 -587Q635 -584 630 -582Q624 -580 624 -576Q615 -569 601 -553Q581 -531 569 -524Q570 -520 566 -517Q562 -514 562 -511Q558 -506 550 -501Q539 -494 537 -490Q522 -481 511 -466Q502 -469 501 -458Q492 -456 495 -447Q492 -444 493 -443Q499 -444 507 -444Q516 -444 524 -445Q537 -446 549 -447Q553 -440 563 -441Q570 -441 573 -439Q580 -423 573 -414Q574 -406 559 -397Q552 -398 546 -395Q540 -392 541 -387Q546 -370 550 -354Q552 -324 554 -295Q554 -281 559 -271Q564 -275 582 -304Q585 -309 587 -307Q592 -300 584 -295Q583 -279 568 -267Q570 -263 569 -257Q567 -250 568 -247Q567 -243 565 -240L561 -226Q560 -222 558 -219Q558 -213 559 -206Q559 -199 565 -196Q580 -185 597 -192Q608 -192 619 -192Q633 -204 643 -219Q648 -223 654 -234Q659 -243 663 -247Q702 -300 733 -362Q747 -395 749 -420Q750 -424 746 -426Q742 -428 739 -426Q726 -421 706 -419Q695 -411 683 -407Q672 -401 660 -395Q673 -408 711 -440Q724 -445 725 -454Q729 -454 732 -457Q734 -461 736 -464Q753 -471 769 -473Q773 -472 782 -473Q794 -475 800 -471Q805 -469 811 -468Q818 -468 821 -461Q828 -457 836 -453Q844 -449 845 -440Q847 -436 845 -421Q844 -416 839 -410Q834 -405 833 -402Q832 -396 825 -387Q813 -365 801 -343Q792 -338 788 -331Q785 -324 781 -317Q780 -312 774 -307Q769 -302 768 -299Q764 -294 762 -288Q760 -282 753 -277Q750 -273 745 -270Q740 -267 739 -261Q737 -256 730 -250Q722 -243 720 -239Q711 -237 707 -225Q703 -228 700 -225Q698 -221 695 -219Q695 -216 694 -215Q693 -217 687 -219Q678 -206 672 -194Q673 -189 681 -188Q688 -187 691 -185Q714 -183 735 -176Q752 -170 769 -165Q785 -161 797 -156Q811 -156 822 -149Q833 -146 848 -137Q852 -136 860 -129Q865 -124 870 -123Q873 -121 876 -115Q879 -108 884 -106Q896 -101 893 -90Q889 -78 886 -68Q881 -69 875 -63Q870 -58 868 -57Q862 -59 858 -61L839 -67Q837 -68 829 -71Q789 -96 745 -114Q723 -121 700 -129Q682 -137 673 -138Q627 -149 583 -165Q578 -166 573 -172Q567 -177 564 -171Q560 -166 563 -162Q567 -158 569 -154Q567 -150 563 -151Q557 -152 555 -148Q557 -137 555 -133Q556 -126 552 -111Q549 -100 550 -92Q545 -88 546 -76Q547 -68 544 -63Q543 -55 537 -39Q538 -35 536 -30Q534 -24 535 -21Q530 -9 522 11Q517 13 515 18Q514 23 511 28Q511 32 506 37Q502 41 501 44Q496 48 493 56Q489 66 485 68Q480 72 475 72Q467 71 460 64Q454 56 448 49Q441 42 434 34Q426 29 422 11Q423 4 414 -1Q406 -6 405 -10Q417 -10 422 -14Q424 -21 429 -19Q434 -17 439 -15Q446 -10 453 -20Q459 -29 460 -38Q468 -54 472 -87Q476 -115 478 -123Q479 -137 479 -152Q460 -155 447 -153Q434 -153 421 -153Q411 -147 396 -162Q397 -168 392 -177Q388 -183 388 -186Q383 -192 377 -199Q379 -206 383 -211Q387 -213 391 -222Q396 -233 403 -234Q413 -234 422 -238Q432 -246 435 -251Q436 -254 439 -254Q442 -253 443 -254Q444 -255 443 -257Q449 -266 457 -276Q450 -285 434 -301Q419 -308 421 -323Q423 -330 434 -347Q434 -353 439 -354Q444 -356 448 -358Q450 -362 447 -363Q443 -363 440 -363Q432 -356 416 -356Q392 -353 367 -343Q352 -339 340 -329Q328 -319 316 -311Q313 -312 314 -315Q320 -322 326 -324Q328 -327 336 -332Q342 -335 344 -339Q367 -360 395 -372Q400 -376 405 -381Q425 -393 444 -406Q445 -414 438 -420Q431 -426 426 -433Q415 -446 424 -463Q430 -462 433 -465Q435 -467 438 -473Q441 -475 443 -480Q446 -486 450 -486Q467 -501 481 -518L508 -547Q509 -550 515 -556Q521 -561 521 -566L537 -585Q543 -590 546 -596Q560 -615 568 -630Q572 -634 569 -637Q566 -641 562 -638Q548 -636 536 -632Q533 -631 525 -630Q515 -629 510 -625Q498 -624 485 -623Q478 -616 468 -618Q463 -614 447 -613Q436 -612 430 -610Q425 -611 419 -608Q411 -604 406 -605Q387 -598 367 -591Q362 -593 356 -592Q347 -591 344 -594Q340 -597 337 -594Q333 -592 329 -591Q313 -597 296 -604Q294 -609 292 -613Q289 -618 283 -618Q267 -615 273 -623Q279 -633 289 -634Q299 -635 310 -637Q317 -635 330 -639Q341 -642 346 -642Q353 -647 362 -644Q372 -654 386 -653Q406 -657 426 -662Q448 -667 469 -673Q480 -673 488 -677Q500 -679 511 -682Q519 -682 524 -687Q529 -687 537 -689Q548 -692 554 -690Q566 -693 578 -697ZM203 -409Q232 -407 234 -406Q249 -403 262 -394Q267 -393 278 -382Q279 -373 287 -364Q288 -353 288 -342Q296 -319 291 -309Q288 -297 291 -285Q286 -282 288 -276Q289 -272 287 -270Q281 -265 281 -259Q282 -252 281 -247Q275 -220 277 -205Q278 -199 271 -197Q267 -195 270 -190Q272 -186 269 -180Q266 -175 268 -171Q265 -162 262 -153L258 -135Q247 -127 244 -116Q241 -106 239 -95Q233 -89 230 -81Q229 -75 222 -65Q217 -58 215 -52Q215 -46 208 -37Q203 -30 202 -28Q201 -24 196 -25Q191 -26 188 -25Q177 -33 177 -38Q172 -43 167 -48Q151 -58 157 -85Q154 -90 156 -97Q158 -104 164 -105Q173 -124 182 -143Q187 -153 192 -167Q199 -189 205 -197Q208 -213 213 -224Q217 -236 224 -267Q230 -295 235 -324Q235 -335 234 -347Q232 -359 224 -367Q212 -363 200 -364Q188 -356 173 -356Q158 -356 144 -354Q132 -355 121 -362Q114 -364 120 -372Q145 -381 149 -385Q167 -395 203 -409ZM479 -332Q473 -329 475 -324Q476 -322 481 -323Q487 -320 486 -327Q485 -336 479 -332ZM476 -247Q467 -238 458 -230Q445 -229 440 -216Q437 -210 442 -208Q447 -206 453 -209Q463 -209 473 -209Q481 -209 482 -216Q484 -222 483 -229Q486 -250 476 -247Z"/>
</svg>