<svg xmlns="http://www.w3.org/2000/svg" viewBox="0 -800 1024 1024">
	<path fill="#000000" d="M484 -701H493Q498 -702 507 -700Q517 -697 523 -699Q538 -699 562 -681Q568 -676 574 -670Q581 -664 579 -655Q575 -652 573 -633Q567 -630 563 -619Q560 -610 556 -607Q551 -602 546 -597Q547 -590 537 -580Q530 -575 535 -567Q539 -561 547 -557Q552 -559 561 -547Q564 -542 561 -534Q558 -526 558 -524Q554 -516 538 -515Q526 -514 523 -512Q485 -513 450 -509Q442 -512 436 -508Q430 -503 423 -501Q419 -505 400 -516Q393 -517 386 -521Q380 -525 373 -522Q366 -513 355 -482Q355 -474 343 -448Q338 -445 336 -431Q331 -416 327 -400Q319 -389 313 -377Q302 -359 293 -339Q284 -330 278 -318Q270 -300 255 -288Q238 -269 221 -251Q216 -250 211 -241Q208 -236 204 -233Q197 -235 193 -232Q189 -229 185 -227Q180 -230 177 -237Q175 -243 173 -245Q162 -265 162 -271Q173 -291 186 -309Q227 -367 268 -445Q278 -469 290 -491Q293 -507 301 -523Q309 -537 316 -552Q315 -566 322 -575Q318 -583 324 -589Q329 -594 331 -600Q329 -608 339 -620Q339 -623 347 -641Q349 -648 345 -652Q340 -657 338 -661Q340 -663 362 -671Q376 -678 392 -682Q402 -682 410 -686Q425 -687 439 -694Q444 -693 458 -698Q470 -701 484 -701ZM485 -644Q480 -646 478 -641Q469 -641 458 -634Q444 -636 429 -638Q418 -639 409 -635Q407 -632 402 -616Q395 -607 396 -594Q389 -586 391 -572Q386 -565 385 -563Q383 -558 389 -555Q407 -558 424 -562Q439 -565 455 -561Q461 -565 463 -576Q465 -585 467 -588Q473 -606 484 -624Q485 -631 488 -636Q489 -637 489 -638Q489 -645 485 -644ZM534 -443Q595 -441 618 -433Q637 -425 656 -418Q670 -414 684 -407Q734 -388 739 -385Q760 -378 766 -373Q771 -368 783 -364Q794 -361 799 -356Q806 -347 821 -349Q823 -348 829 -347Q836 -346 839 -342Q853 -334 866 -326Q878 -319 878 -310Q874 -303 877 -299Q876 -283 868 -283Q865 -286 853 -281Q844 -278 836 -282Q826 -280 816 -285Q808 -291 782 -296Q758 -301 739 -312Q730 -319 726 -319Q727 -319 728 -317Q738 -312 734 -282Q732 -270 727 -258Q726 -251 718 -237Q711 -224 709 -216Q702 -207 695 -198L675 -170Q674 -165 665 -151Q663 -147 656 -143Q650 -139 647 -135Q640 -116 618 -97Q615 -93 608 -89Q599 -84 597 -80Q595 -74 583 -76Q575 -74 556 -79Q542 -78 529 -74Q503 -76 476 -73Q462 -71 448 -70Q433 -72 418 -72Q402 -72 390 -77Q357 -81 331 -101Q317 -107 309 -127Q306 -137 302 -146Q298 -155 302 -165Q305 -179 305 -194Q311 -209 316 -225Q324 -235 329 -247Q334 -259 346 -266Q350 -268 352 -275Q354 -282 359 -284Q364 -285 366 -292Q368 -298 371 -299Q376 -300 384 -309Q389 -314 394 -317Q399 -319 404 -327Q409 -336 413 -338Q417 -350 430 -345Q440 -343 450 -341Q461 -333 475 -345Q483 -347 490 -349L519 -357Q527 -359 534 -361Q547 -363 560 -366Q582 -370 604 -374Q617 -374 618 -376Q618 -379 609 -383Q592 -390 574 -398Q542 -410 538 -411Q531 -414 492 -422Q489 -424 484 -425Q476 -427 475 -430Q480 -437 495 -437Q513 -442 534 -443ZM644 -339Q629 -337 593 -331Q580 -329 567 -327Q563 -325 556 -324Q546 -322 543 -319Q540 -319 532 -313Q526 -308 521 -308Q518 -308 515 -311Q485 -317 472 -322Q462 -324 456 -317Q451 -311 446 -304Q432 -293 432 -283Q420 -274 415 -261Q401 -252 394 -233Q389 -226 389 -216Q384 -212 377 -188Q372 -170 373 -150Q366 -132 389 -118Q400 -107 415 -107Q431 -107 447 -107Q459 -108 470 -109Q491 -111 511 -113Q523 -118 550 -120Q562 -120 573 -123Q580 -123 587 -132Q593 -140 597 -141Q610 -146 616 -159Q623 -167 630 -176Q634 -181 644 -204Q646 -214 658 -230Q665 -247 668 -266Q671 -277 679 -297Q687 -313 674 -329Q661 -346 644 -339ZM470 -222Q479 -222 483 -218Q486 -216 494 -217Q500 -218 505 -217Q518 -219 525 -213Q533 -215 537 -209Q541 -203 546 -198Q549 -191 541 -189Q534 -189 531 -183Q527 -177 520 -178Q509 -179 498 -176Q489 -187 478 -180Q466 -188 454 -197Q444 -202 424 -206Q420 -206 420 -208Q420 -210 424 -210Q427 -213 444 -215Q449 -215 470 -222ZM595 -16Q601 -16 602 -15Q621 -18 642 -15Q664 -15 685 -16Q693 -16 701 -15Q709 -14 717 -10Q719 -6 716 -3Q712 -1 709 3Q711 17 697 21Q686 23 674 25Q661 32 648 29Q631 29 613 29Q605 29 596 29Q588 28 520 28Q518 29 513 29L499 30Q479 30 473 33Q449 31 427 34Q407 34 389 31Q377 29 364 26Q345 23 324 13Q322 10 318 10Q310 9 312 4Q315 0 327 1Q335 1 339 0Q348 -3 381 -5Q393 -6 405 -7Q432 -7 445 -9Q461 -9 476 -10Q493 -10 509 -10Q520 -11 531 -13Q539 -14 550 -12Q559 -15 572 -14Q588 -13 595 -16Z"/>
</svg>