<svg xmlns="http://www.w3.org/2000/svg" viewBox="0 -800 1024 1024">
	<path fill="#000000" d="M675 -674Q681 -672 687 -670Q700 -665 713 -660Q727 -651 735 -633Q737 -628 729 -610Q727 -599 720 -590Q718 -586 715 -581Q713 -576 718 -572Q723 -573 727 -574L744 -579Q750 -581 753 -581Q765 -587 788 -587Q801 -590 816 -590Q831 -591 845 -585Q857 -579 850 -567Q846 -564 844 -554Q843 -549 838 -548Q832 -546 830 -541Q829 -537 823 -536Q815 -535 814 -531Q814 -525 809 -522Q803 -520 799 -518Q786 -516 775 -508Q768 -507 763 -500Q759 -494 754 -490Q745 -489 736 -489Q727 -498 719 -489Q715 -489 707 -485Q700 -481 695 -482Q694 -489 700 -492Q706 -496 710 -499Q718 -501 723 -507Q729 -514 723 -520Q715 -525 695 -529Q686 -528 681 -534Q676 -539 670 -543Q660 -550 657 -561Q648 -579 657 -598Q659 -612 669 -632Q675 -645 677 -656Q675 -661 673 -666Q670 -671 675 -674ZM444 -587L446 -586Q464 -587 484 -579Q494 -581 499 -573Q522 -564 524 -553Q521 -551 521 -543Q521 -536 518 -534Q506 -533 493 -533Q489 -531 483 -535Q479 -538 476 -537Q466 -528 456 -535Q446 -545 433 -548Q421 -551 409 -555Q402 -561 383 -562Q368 -563 361 -567Q357 -571 359 -573Q364 -576 370 -574Q390 -579 410 -585Q427 -586 444 -587ZM175 -577H207Q221 -572 235 -568Q243 -562 240 -549Q237 -537 229 -530Q214 -524 200 -526Q186 -527 177 -535Q172 -540 160 -546Q147 -553 143 -559Q138 -563 141 -568Q144 -573 149 -572Q154 -575 175 -577ZM535 -504Q545 -502 554 -500Q564 -496 582 -502Q595 -499 606 -489Q608 -486 605 -480Q602 -475 603 -472Q605 -465 594 -461Q591 -460 572 -457Q559 -457 548 -451Q532 -451 517 -446Q502 -446 495 -441Q493 -440 485 -439Q476 -438 473 -434Q467 -428 473 -419Q481 -406 474 -391Q473 -386 465 -381Q457 -376 455 -371Q452 -364 459 -361Q466 -359 472 -358Q487 -356 502 -354Q506 -351 514 -348Q521 -346 523 -340Q521 -327 524 -311Q523 -302 524 -294Q523 -272 519 -251Q509 -243 514 -230Q509 -217 503 -204Q495 -200 494 -192Q492 -184 491 -175Q484 -176 484 -169Q484 -162 483 -157Q480 -154 477 -146Q475 -138 470 -135Q469 -129 462 -120Q455 -112 454 -107Q444 -98 435 -88Q431 -88 426 -83Q420 -77 416 -80Q410 -92 393 -130Q390 -140 382 -147Q374 -154 368 -161Q379 -161 388 -153Q398 -152 411 -151Q423 -151 430 -159L443 -191Q455 -209 464 -246Q471 -255 472 -267Q472 -279 475 -289Q476 -303 476 -317Q469 -324 452 -328Q438 -331 434 -334Q431 -337 428 -335Q426 -334 425 -330Q425 -324 419 -315Q414 -307 413 -303Q402 -298 398 -282Q396 -272 387 -265Q381 -259 372 -235Q366 -231 362 -222Q358 -214 356 -212Q346 -203 336 -195Q334 -185 319 -181Q312 -175 306 -183Q300 -191 302 -198Q308 -209 298 -219Q297 -225 302 -225Q307 -225 311 -226Q324 -236 336 -263Q344 -281 351 -290Q356 -304 365 -315Q369 -329 375 -334Q377 -346 382 -356Q382 -357 389 -364Q393 -368 393 -373Q395 -376 403 -392Q410 -405 419 -415Q422 -420 418 -422Q414 -425 409 -423Q395 -420 382 -415Q370 -415 361 -411Q348 -403 332 -409Q323 -409 310 -412Q292 -416 284 -415Q279 -415 276 -417Q274 -419 277 -421Q303 -436 333 -444Q372 -459 414 -468Q432 -473 452 -480Q478 -490 505 -495Q509 -496 512 -498L528 -501Q532 -502 535 -504ZM787 -460L793 -459Q797 -457 806 -457Q810 -459 818 -455Q825 -451 830 -452Q841 -453 845 -445Q850 -437 856 -429Q859 -409 856 -405Q850 -403 846 -394Q842 -386 837 -383Q834 -379 827 -374Q818 -367 815 -362Q804 -347 792 -336Q786 -336 779 -329Q774 -324 772 -323Q753 -318 756 -300Q759 -298 761 -291Q764 -280 771 -279Q826 -290 833 -291Q838 -290 850 -300Q872 -297 893 -301Q896 -300 914 -300Q919 -301 924 -293Q928 -286 932 -285Q933 -281 934 -275Q935 -270 930 -267Q925 -267 924 -264Q922 -260 921 -257Q919 -251 914 -252Q909 -252 905 -253Q884 -249 862 -246Q832 -240 801 -235Q796 -234 790 -233Q784 -231 786 -225Q790 -222 790 -215Q790 -208 792 -205Q798 -200 797 -193Q795 -187 795 -179Q795 -165 799 -151Q799 -145 799 -139Q799 -131 796 -124Q793 -116 797 -109Q801 -104 799 -97Q797 -91 797 -84Q791 -69 788 -51Q780 -43 772 -23Q771 -19 766 -16Q761 -13 760 -11Q750 -4 738 3Q732 4 730 0Q728 -4 727 -7Q725 -12 713 -15Q707 -14 705 -17Q702 -20 704 -25Q703 -29 696 -36Q690 -42 689 -47Q684 -55 684 -56Q684 -57 684 -58Q685 -59 689 -57Q694 -55 719 -63Q727 -64 731 -73Q733 -77 737 -89Q739 -101 741 -114Q741 -122 744 -128Q741 -142 743 -154Q744 -162 741 -202Q739 -210 737 -219Q736 -227 728 -231Q718 -231 709 -229Q694 -226 679 -224Q659 -222 638 -221Q624 -217 611 -222Q598 -227 586 -232Q583 -235 573 -236Q564 -236 562 -240Q572 -246 584 -246Q614 -249 615 -249Q621 -254 640 -254Q651 -259 667 -258Q683 -267 704 -267Q715 -270 722 -278Q723 -284 713 -291Q703 -298 708 -305Q711 -309 705 -316Q701 -321 702 -323Q714 -333 728 -338Q749 -350 750 -363Q757 -372 764 -382Q764 -386 769 -393Q776 -403 770 -406Q745 -401 743 -401Q725 -396 706 -391Q697 -392 687 -393Q681 -393 672 -398Q663 -403 657 -402Q653 -404 649 -404Q648 -405 649 -406Q649 -410 652 -410Q656 -411 659 -411Q675 -417 691 -423Q728 -441 746 -446Q767 -453 787 -460ZM174 -457Q183 -455 188 -445Q202 -435 198 -413Q201 -404 193 -400Q186 -396 180 -391Q177 -382 169 -364Q166 -351 162 -338Q165 -322 157 -307Q154 -304 157 -297Q160 -290 158 -287Q157 -282 154 -254Q150 -244 150 -233Q150 -228 152 -201Q154 -188 153 -169Q158 -165 160 -155Q162 -143 166 -140Q175 -131 183 -143Q207 -170 241 -226Q254 -250 266 -274Q267 -277 268 -277Q271 -275 269 -267Q264 -251 258 -236Q254 -234 255 -226Q256 -219 255 -217Q250 -214 250 -209Q250 -204 249 -199Q245 -187 240 -176Q239 -169 231 -157Q223 -146 222 -141Q212 -129 211 -120Q212 -113 204 -107Q196 -99 186 -99Q175 -100 166 -101Q154 -107 141 -114Q129 -121 122 -133Q114 -148 107 -164Q99 -180 98 -199Q96 -205 97 -216Q98 -228 96 -233Q98 -251 100 -269Q101 -283 107 -305Q106 -310 109 -317Q112 -324 112 -327Q130 -403 155 -431Q166 -444 174 -457Z"/>
</svg>