<svg xmlns="http://www.w3.org/2000/svg" viewBox="0 -800 1024 1024">
	<path fill="#000000" d="M343 -734L360 -729Q380 -723 399 -716Q406 -715 407 -706Q408 -698 403 -694Q403 -678 409 -663L408 -632Q408 -624 406 -615Q404 -607 414 -607Q420 -609 435 -605Q438 -602 443 -601Q447 -599 447 -595Q444 -590 444 -580Q444 -570 440 -565Q440 -561 435 -562Q430 -563 428 -559Q415 -563 404 -552Q394 -541 399 -529Q399 -516 399 -504Q402 -451 393 -400Q393 -381 392 -366Q392 -320 385 -277Q380 -273 382 -269Q383 -267 387 -270Q391 -278 399 -271Q413 -274 426 -274Q441 -278 455 -276Q463 -278 464 -270Q466 -257 467 -256Q464 -254 467 -249Q471 -244 468 -240Q457 -232 443 -229Q426 -226 409 -223Q389 -218 369 -214Q341 -208 312 -202Q302 -200 300 -185Q298 -174 294 -169Q286 -161 283 -151Q283 -144 280 -137Q277 -129 284 -124Q320 -134 356 -140Q371 -140 386 -141Q409 -140 430 -135Q443 -145 451 -162Q471 -198 498 -233Q499 -229 495 -224Q491 -219 491 -215Q485 -210 483 -194Q481 -181 476 -175Q468 -158 463 -139Q463 -124 456 -110Q458 -101 460 -92Q468 -84 463 -71Q458 -59 447 -58Q426 -65 403 -98Q397 -101 398 -107Q399 -112 398 -117Q389 -123 367 -123Q359 -120 341 -120Q328 -120 321 -119Q300 -107 280 -92Q272 -90 270 -83Q267 -77 262 -72Q244 -75 242 -59Q240 -52 234 -55Q228 -58 223 -58Q222 -61 221 -61Q218 -60 212 -59Q206 -55 203 -60Q199 -65 196 -66Q187 -69 189 -77Q191 -84 192 -91Q198 -96 196 -103Q194 -109 195 -115Q198 -118 205 -121Q216 -126 219 -131Q224 -137 230 -142Q236 -148 237 -157Q237 -162 246 -169Q254 -176 257 -181Q263 -187 250 -185Q245 -183 234 -181Q221 -179 215 -175Q190 -168 165 -161Q141 -156 117 -156Q98 -163 79 -171Q75 -174 69 -176Q63 -178 64 -182Q80 -185 96 -188Q128 -194 159 -204Q181 -209 201 -218Q227 -223 250 -233Q261 -234 268 -237Q301 -247 336 -255Q344 -260 339 -267Q333 -274 330 -280Q321 -288 326 -306Q330 -320 328 -326Q308 -325 287 -329Q282 -330 276 -334Q269 -338 264 -334Q262 -316 260 -299Q260 -282 250 -262Q251 -257 243 -237Q227 -242 214 -265Q193 -282 196 -311Q205 -389 205 -391Q205 -395 208 -403Q212 -414 210 -419Q213 -432 215 -481Q217 -495 213 -508L195 -506Q186 -507 171 -512Q153 -518 143 -518Q136 -513 129 -513Q121 -513 119 -520Q125 -523 134 -524Q142 -524 147 -531Q153 -534 195 -549Q201 -552 209 -554Q217 -555 221 -563Q222 -571 222 -645Q225 -653 217 -664Q210 -674 210 -679Q221 -682 231 -675Q240 -669 250 -666Q277 -657 277 -640Q285 -634 280 -627Q275 -619 274 -611Q278 -605 275 -593Q273 -582 276 -577Q292 -582 308 -587Q318 -592 330 -594Q343 -596 349 -607Q348 -639 347 -672Q346 -684 346 -697Q345 -711 335 -720Q331 -724 334 -728Q337 -732 343 -734ZM334 -539Q306 -531 281 -521Q275 -522 272 -517Q269 -512 270 -507L265 -483Q266 -477 265 -466Q263 -450 268 -443L334 -444Q338 -453 339 -476Q340 -492 342 -500Q342 -517 343 -532Q344 -537 341 -539Q337 -541 334 -539ZM736 -533Q743 -532 763 -514Q784 -512 793 -497Q795 -487 786 -478Q777 -469 768 -471Q740 -462 732 -452Q723 -451 719 -443Q714 -434 705 -433Q701 -429 696 -425L679 -408Q676 -406 670 -400Q662 -394 655 -387Q648 -381 638 -378Q628 -370 635 -359Q641 -348 643 -338Q645 -316 647 -294Q656 -292 666 -299Q733 -323 751 -326Q764 -329 776 -332L827 -345Q840 -348 852 -351Q868 -355 883 -354Q892 -354 900 -354Q912 -354 923 -356Q934 -357 942 -347Q943 -331 937 -319Q934 -319 919 -312Q892 -310 867 -305L807 -294Q783 -289 761 -279Q766 -273 776 -271Q779 -269 804 -252Q816 -246 817 -234Q817 -221 822 -210Q820 -204 824 -193Q828 -182 826 -175Q835 -149 827 -137Q825 -133 827 -127Q829 -119 827 -116Q828 -100 826 -43Q828 -37 824 -28Q821 -20 822 -16Q822 -7 823 2Q825 10 820 18Q820 44 809 66Q802 86 792 104Q791 110 788 112Q784 115 780 107Q775 106 772 100Q769 95 767 93Q762 96 759 90Q757 84 753 82Q749 77 742 77Q734 77 734 69Q742 64 752 60Q762 55 767 47Q769 15 773 8Q771 -18 774 -43Q778 -67 779 -92Q781 -111 783 -130Q783 -159 783 -189Q780 -211 773 -228Q775 -242 765 -251Q755 -260 745 -271Q742 -278 735 -277Q727 -275 721 -274Q716 -275 706 -269Q698 -264 693 -265Q677 -261 656 -263Q651 -267 646 -260Q641 -253 645 -248Q645 -242 643 -232L640 -215Q639 -199 633 -186Q626 -172 621 -157Q612 -140 606 -123Q600 -105 587 -90Q578 -78 571 -67Q561 -80 560 -85Q553 -104 545 -121Q537 -129 545 -134Q554 -140 561 -145Q577 -177 589 -210Q597 -231 598 -253Q598 -286 598 -320Q594 -334 591 -350Q588 -365 574 -373Q566 -378 555 -382Q545 -387 542 -398Q562 -398 584 -393Q590 -390 594 -394Q598 -398 603 -401Q608 -399 611 -403Q615 -408 619 -410Q621 -414 629 -417Q635 -419 636 -421Q642 -423 650 -432Q658 -440 663 -442Q667 -449 679 -459Q692 -469 695 -476Q704 -485 713 -496Q723 -507 720 -522Q726 -520 729 -525Q731 -530 736 -533ZM269 -416Q265 -408 265 -394Q268 -389 267 -378Q266 -367 268 -362Q274 -360 291 -361Q310 -362 318 -358Q320 -359 325 -357Q330 -355 332 -358Q332 -379 332 -400Q325 -403 303 -408Q295 -406 284 -412Q274 -417 269 -416Z"/>
</svg>