<svg xmlns="http://www.w3.org/2000/svg" viewBox="0 -800 1024 1024">
	<path fill="#000000" d="M476 -781L481 -779Q486 -777 491 -768Q495 -760 499 -757Q502 -755 506 -743Q506 -738 511 -738Q517 -738 522 -738Q526 -741 550 -746Q559 -755 571 -748Q585 -752 593 -749Q606 -752 609 -750Q623 -751 635 -743Q649 -743 661 -732Q663 -723 670 -715Q673 -708 671 -699Q671 -687 669 -685Q663 -684 662 -679Q660 -675 658 -671Q657 -668 652 -666Q647 -665 646 -663Q642 -654 637 -652Q631 -654 626 -643Q626 -639 621 -638Q615 -636 615 -633Q611 -620 601 -616Q594 -607 589 -605Q581 -607 576 -596Q562 -583 548 -571Q547 -565 553 -564Q558 -563 563 -562Q577 -562 586 -548Q593 -547 594 -538Q595 -530 590 -525Q579 -517 567 -509Q560 -512 553 -508Q540 -508 527 -508Q513 -507 500 -503Q483 -505 480 -496Q475 -483 470 -470Q459 -462 453 -438Q450 -436 451 -434Q454 -430 458 -431Q465 -433 472 -435L500 -443Q507 -445 514 -447Q535 -450 561 -460Q601 -465 609 -466Q632 -473 640 -473Q648 -477 656 -475Q665 -473 673 -473Q685 -478 697 -466Q702 -461 697 -442Q697 -439 690 -436Q685 -434 683 -431Q673 -424 661 -424Q617 -418 596 -416Q590 -415 582 -416Q574 -417 574 -408Q590 -400 610 -397Q620 -391 629 -386Q633 -375 648 -368Q654 -364 662 -361Q669 -359 675 -351L752 -307Q767 -297 785 -289Q790 -284 803 -281Q814 -278 820 -274Q824 -264 837 -258Q855 -262 856 -248Q851 -243 861 -236Q865 -234 865 -229Q864 -222 858 -223Q850 -226 836 -224Q827 -218 821 -224Q814 -226 807 -230Q801 -235 794 -231Q785 -224 778 -233Q762 -240 721 -263Q697 -278 673 -293Q664 -297 656 -303Q648 -309 639 -310Q623 -322 615 -336Q610 -347 597 -337Q592 -338 588 -344Q584 -351 582 -352Q563 -360 543 -368Q531 -374 521 -378Q517 -380 517 -387Q517 -392 515 -393Q502 -392 483 -388Q465 -384 446 -380Q438 -377 430 -375Q421 -372 422 -362Q423 -355 418 -352Q413 -350 409 -346Q404 -334 395 -323Q395 -320 389 -316Q383 -311 382 -307Q385 -298 379 -289Q376 -280 362 -274Q342 -242 333 -233Q317 -217 301 -202Q290 -192 278 -183Q266 -173 232 -153Q228 -154 221 -148Q216 -143 211 -144Q204 -146 200 -141Q196 -137 192 -133Q187 -134 180 -127Q175 -122 172 -122Q158 -115 160 -123Q166 -134 174 -140Q189 -158 206 -173Q208 -184 218 -183Q270 -232 311 -284Q322 -297 330 -311Q333 -322 337 -331Q350 -345 361 -362Q366 -365 366 -369Q366 -373 362 -375Q352 -375 347 -372Q343 -372 338 -368Q332 -363 328 -365Q314 -372 299 -369Q292 -371 275 -373Q269 -378 260 -374Q253 -371 247 -374Q243 -376 235 -375Q224 -374 222 -380Q221 -384 227 -388Q233 -391 237 -387Q246 -385 256 -390Q267 -392 277 -394Q306 -402 334 -410Q340 -416 352 -418Q356 -418 360 -423Q365 -429 370 -428Q374 -425 379 -426Q385 -428 385 -434Q391 -446 396 -458Q395 -464 402 -470Q408 -475 408 -478Q408 -484 404 -485Q400 -486 397 -486Q380 -494 364 -497Q361 -499 354 -500Q346 -501 343 -505Q343 -511 349 -511Q354 -512 358 -513Q375 -515 390 -521Q394 -523 406 -526Q421 -529 427 -536Q429 -549 431 -562Q431 -589 434 -614Q431 -619 434 -644Q430 -651 425 -647Q420 -642 416 -637Q400 -628 386 -617Q354 -591 345 -577Q345 -561 331 -559Q309 -572 305 -580Q301 -586 293 -592Q285 -598 283 -601Q283 -607 283 -614Q282 -622 286 -625Q293 -636 303 -642Q317 -665 330 -678Q334 -683 335 -689Q336 -696 344 -695Q357 -680 376 -669Q380 -667 377 -660Q374 -653 379 -652Q391 -659 402 -667Q417 -677 434 -687Q435 -707 436 -727Q435 -731 437 -743Q439 -754 436 -760Q436 -776 447 -780Q453 -782 456 -778Q459 -774 463 -770Q469 -776 476 -781ZM587 -722Q577 -718 567 -715Q560 -717 547 -708Q537 -707 528 -705Q515 -701 501 -687Q496 -674 490 -662Q489 -646 488 -631Q487 -617 486 -604Q487 -597 486 -589Q485 -581 492 -575Q503 -582 510 -593Q534 -625 545 -641Q557 -660 571 -677Q582 -695 593 -714Q597 -717 594 -721Q591 -726 587 -722ZM572 -317Q579 -317 580 -316Q590 -317 592 -300Q591 -296 589 -286Q590 -272 572 -267Q570 -266 563 -267Q555 -268 553 -263Q556 -253 559 -244Q562 -241 562 -234Q562 -223 567 -220Q577 -213 568 -204Q562 -203 562 -197Q563 -192 562 -187Q559 -181 568 -177Q582 -182 594 -181Q611 -179 627 -180Q635 -179 643 -179Q653 -174 662 -170Q668 -165 662 -160Q657 -155 653 -150Q631 -140 618 -141Q602 -138 585 -135Q580 -133 574 -132Q568 -131 566 -125Q564 -118 565 -109Q562 -69 562 -27Q552 4 550 24Q545 30 541 45Q538 48 537 56Q536 65 532 68Q526 69 523 75Q518 84 518 85Q515 86 513 91Q510 96 507 97Q497 91 491 84Q488 79 480 75Q474 72 472 69Q466 55 462 49Q460 40 473 43Q483 39 484 29Q484 19 488 12Q490 0 495 -10Q493 -23 498 -32Q505 -79 505 -92Q505 -99 506 -108Q507 -116 500 -119Q488 -120 470 -114Q446 -112 422 -110Q390 -118 376 -126Q372 -129 366 -133Q361 -137 365 -140Q377 -140 407 -142Q409 -143 447 -151Q471 -157 495 -163Q508 -163 509 -171Q508 -177 509 -184Q510 -190 505 -193Q487 -192 471 -196Q455 -198 438 -201Q443 -208 458 -208Q464 -212 489 -219Q493 -223 499 -224Q507 -226 508 -233Q509 -239 507 -243Q504 -248 500 -246Q479 -245 461 -247Q454 -252 440 -249Q431 -247 427 -248Q425 -248 425 -250Q427 -254 431 -254Q460 -272 477 -289Q487 -295 492 -306Q495 -311 503 -307Q509 -304 512 -306Q529 -314 556 -314Q557 -315 572 -317Z"/>
</svg>