<svg xmlns="http://www.w3.org/2000/svg" viewBox="0 -800 1024 1024">
	<path fill="#000000" d="M277 -678Q288 -670 294 -676Q301 -673 308 -674Q316 -675 319 -666Q344 -644 333 -602Q338 -585 333 -532Q334 -509 331 -490Q329 -480 336 -480Q345 -479 353 -477Q366 -482 385 -467Q394 -465 395 -453Q396 -444 390 -434Q391 -416 376 -413Q355 -410 337 -404Q325 -405 322 -396Q318 -387 316 -378Q315 -366 324 -366Q336 -366 341 -377Q344 -383 347 -381Q352 -373 348 -364Q351 -351 344 -341Q338 -331 331 -321Q313 -314 315 -283Q317 -260 315 -242Q319 -206 316 -168Q316 -130 314 -104Q316 -96 312 -83Q307 -76 307 -67Q307 -57 305 -49Q300 -47 295 -38Q289 -28 282 -28Q275 -19 264 -19Q254 -19 251 -28Q243 -33 239 -46Q237 -54 233 -58Q234 -68 227 -75Q220 -82 215 -89Q215 -93 208 -101Q198 -112 203 -111Q214 -106 225 -99Q236 -92 247 -98Q252 -117 253 -156Q254 -185 256 -197Q255 -205 257 -223Q260 -248 256 -260Q199 -230 147 -188Q132 -178 116 -175Q108 -175 103 -179Q98 -183 98 -192Q98 -202 93 -204Q88 -220 97 -239Q102 -240 108 -243Q114 -246 120 -243Q166 -269 212 -296Q228 -304 246 -313Q265 -322 263 -346Q261 -352 263 -365Q265 -383 260 -391Q246 -387 199 -385Q161 -399 117 -411Q134 -422 146 -425Q174 -430 253 -456Q270 -456 273 -473Q273 -510 275 -547Q277 -583 273 -620Q277 -632 268 -640Q258 -648 251 -655Q244 -661 244 -669Q245 -671 250 -669Q253 -675 266 -675Q274 -675 277 -678ZM787 -581H808Q842 -584 860 -559Q878 -535 891 -510Q890 -504 894 -492Q898 -483 897 -475Q901 -459 900 -446Q897 -439 899 -423Q901 -407 898 -400Q901 -390 901 -371Q901 -348 904 -339Q902 -333 903 -321Q904 -306 900 -299Q904 -288 904 -258Q904 -239 906 -225Q910 -215 904 -192Q907 -189 907 -178Q907 -168 910 -164Q906 -158 908 -145Q910 -135 908 -130Q900 -119 893 -96Q885 -69 875 -58Q858 -41 843 -41Q839 -51 826 -61Q810 -73 808 -83Q802 -82 800 -83Q798 -83 798 -84Q799 -86 805 -88Q815 -93 824 -99Q833 -105 836 -115Q840 -146 843 -177Q844 -193 845 -210Q840 -253 845 -275Q845 -369 843 -396Q843 -431 842 -467Q842 -503 823 -532Q815 -541 801 -541Q785 -541 765 -530Q756 -521 743 -521Q732 -522 721 -524Q715 -530 690 -530Q676 -530 670 -534Q685 -539 699 -545Q734 -564 787 -581ZM492 -581Q525 -579 560 -576Q594 -573 617 -545Q630 -530 617 -521Q614 -514 604 -512Q601 -511 586 -510Q562 -520 505 -567Q499 -573 491 -575Q490 -575 489 -576Q488 -578 492 -581ZM470 -486L488 -475Q486 -466 488 -450Q490 -433 488 -425Q478 -395 474 -339Q473 -324 473 -316Q472 -288 470 -261Q467 -255 471 -248Q474 -242 473 -239Q467 -234 470 -225Q473 -216 470 -212Q472 -210 470 -205Q467 -198 473 -197L469 -150Q472 -137 463 -128Q454 -119 443 -126Q424 -135 420 -155Q417 -176 409 -194L420 -294Q428 -341 435 -389Q439 -404 441 -420Q442 -437 450 -451Q460 -470 470 -486Z"/>
</svg>