<svg xmlns="http://www.w3.org/2000/svg" viewBox="0 -800 1024 1024">
	<path fill="#000000" d="M301 -698Q313 -696 323 -690Q335 -680 339 -665Q342 -649 345 -634Q348 -606 341 -579Q340 -575 341 -563Q342 -547 337 -539Q337 -525 337 -512Q333 -505 333 -480Q337 -476 335 -469Q333 -461 337 -459Q354 -465 361 -450Q365 -445 362 -436Q359 -428 363 -425Q362 -418 365 -418Q373 -421 381 -428Q384 -429 395 -440Q403 -448 408 -443Q405 -428 396 -416Q386 -404 376 -391L332 -345Q324 -335 325 -325Q325 -315 323 -304Q320 -265 319 -260Q322 -249 320 -226Q318 -204 322 -192Q319 -185 320 -167Q321 -152 318 -145Q322 -138 319 -121Q317 -109 319 -104Q315 -79 310 -54Q310 -39 299 -33Q289 -28 278 -23Q257 -21 254 -41Q250 -57 237 -63Q233 -69 228 -75Q223 -81 229 -84Q217 -97 200 -110Q213 -102 227 -96Q241 -89 257 -93Q261 -109 262 -146Q263 -171 265 -186Q265 -210 267 -234Q270 -259 265 -284Q244 -265 238 -258Q218 -233 151 -173Q138 -172 134 -182Q130 -192 124 -199Q126 -205 120 -212Q114 -219 120 -223Q113 -237 125 -244Q133 -243 137 -250Q141 -256 144 -262Q148 -270 155 -264Q155 -255 159 -255Q168 -259 177 -266Q199 -288 223 -305Q247 -321 272 -341Q271 -352 272 -364Q274 -376 268 -385Q243 -376 229 -381Q208 -380 186 -385Q178 -389 161 -388Q139 -386 130 -394Q124 -392 123 -394Q122 -397 130 -398Q157 -410 212 -426Q256 -439 275 -446Q278 -459 279 -486Q280 -510 282 -521Q283 -555 285 -590Q288 -625 282 -655Q266 -651 252 -656Q238 -660 225 -664Q236 -665 260 -690Q263 -697 282 -696Q295 -695 301 -698ZM737 -653Q775 -653 802 -611Q819 -593 812 -565Q810 -557 809 -538Q809 -522 805 -511Q807 -499 803 -491Q799 -482 796 -475Q796 -455 789 -437Q791 -422 781 -396Q773 -374 772 -364Q765 -353 760 -339Q754 -326 740 -322Q736 -318 733 -318Q728 -319 724 -327Q720 -335 716 -340Q707 -351 698 -362Q705 -371 698 -377Q695 -380 683 -385Q691 -384 703 -382Q716 -379 728 -384Q739 -399 742 -418Q745 -437 749 -455Q757 -473 757 -495Q757 -517 761 -538Q760 -557 759 -577Q758 -598 740 -607Q722 -610 705 -602Q688 -594 671 -589Q659 -587 640 -593Q622 -599 614 -599Q660 -623 673 -630Q709 -647 737 -653ZM534 -624Q557 -627 574 -615Q593 -601 590 -579Q595 -532 587 -486Q593 -477 590 -467Q587 -457 587 -448Q574 -385 567 -364Q566 -349 556 -338Q546 -328 535 -318Q526 -321 520 -339Q515 -354 508 -359Q513 -366 506 -374Q496 -386 495 -387Q518 -387 522 -389Q529 -397 530 -421Q531 -437 534 -446Q533 -452 535 -460Q537 -467 530 -468Q526 -461 516 -453Q502 -441 499 -432Q474 -415 450 -384Q438 -380 433 -393Q427 -406 422 -414Q424 -420 418 -428Q413 -434 416 -437Q427 -443 432 -457Q432 -463 438 -476Q444 -490 442 -499Q425 -509 414 -513Q421 -511 446 -517Q468 -520 489 -523Q503 -523 510 -512Q508 -500 500 -496Q492 -492 481 -491Q459 -492 446 -476Q438 -468 437 -455Q436 -440 446 -437Q501 -474 537 -504Q546 -539 537 -571Q537 -580 532 -580Q525 -577 518 -575Q507 -568 493 -568Q482 -568 454 -575Q446 -582 434 -578Q428 -578 425 -583Q452 -594 479 -606Q505 -618 534 -624ZM683 -535Q697 -535 703 -530Q709 -514 694 -504Q680 -495 666 -501Q637 -498 605 -521Q613 -519 626 -526Q637 -532 643 -530Q663 -532 683 -535ZM671 -453Q680 -456 686 -447Q691 -439 683 -435Q678 -424 665 -424Q652 -424 636 -432Q625 -439 619 -442Q619 -443 624 -443Q645 -451 671 -453ZM333 -404L328 -398Q327 -390 330 -390Q338 -391 347 -399Q353 -403 351 -405Q342 -409 333 -404ZM634 -349Q643 -344 657 -342Q675 -339 683 -335Q696 -328 685 -316Q644 -285 635 -281Q631 -277 620 -272Q609 -268 605 -262Q597 -258 602 -250Q607 -242 613 -246Q623 -254 634 -257Q646 -261 657 -266Q684 -274 710 -285Q747 -296 786 -300Q802 -300 814 -296Q845 -298 874 -253Q884 -228 874 -205Q876 -193 871 -151Q861 -139 857 -126Q852 -112 847 -100Q840 -87 835 -75Q827 -72 821 -57Q815 -44 810 -39Q799 -22 787 -5Q783 -1 778 -1Q769 -2 763 -11Q756 -21 751 -28Q738 -20 722 -21Q706 -23 689 -23Q676 -25 651 -23Q626 -21 614 -23Q598 -17 571 -30Q559 -39 548 -51Q536 -63 537 -81Q532 -115 543 -133Q546 -163 556 -190Q565 -217 575 -244Q579 -252 583 -262Q586 -271 596 -275Q611 -294 634 -349ZM781 -248Q752 -246 728 -239Q715 -238 693 -231Q661 -221 643 -223Q639 -222 628 -222Q615 -223 611 -217Q611 -204 606 -188Q600 -168 600 -160Q622 -159 648 -168Q669 -171 689 -174Q707 -174 712 -160Q711 -146 700 -138Q690 -131 675 -131Q652 -128 628 -126Q613 -126 602 -133Q593 -132 595 -122Q597 -113 598 -106Q615 -83 594 -63Q597 -58 608 -59Q618 -60 622 -57Q649 -61 715 -61Q724 -61 723 -66Q721 -72 715 -75L751 -69Q759 -64 765 -68Q772 -72 778 -77Q798 -131 814 -187Q816 -206 816 -220Q820 -235 807 -244Q795 -253 781 -248Z"/>
</svg>