<svg xmlns="http://www.w3.org/2000/svg" viewBox="0 -800 1024 1024">
	<path fill="#000000" d="M239 -724Q240 -724 251 -720Q265 -721 281 -717Q291 -714 304 -714Q319 -703 319 -692Q317 -687 321 -679Q326 -669 323 -663Q320 -642 320 -620Q325 -607 318 -596Q322 -575 320 -540Q318 -531 321 -524Q325 -515 334 -519Q340 -522 344 -517Q348 -512 352 -508Q355 -499 357 -490Q338 -479 330 -477Q316 -471 316 -456Q315 -442 314 -428Q314 -420 314 -412Q314 -397 310 -369Q308 -366 308 -361Q308 -357 312 -357Q326 -372 354 -391Q359 -396 364 -402Q372 -407 373 -405Q375 -400 365 -388Q364 -383 356 -374Q349 -367 348 -363Q347 -360 345 -357L335 -346Q334 -343 332 -340Q329 -335 322 -328Q311 -317 308 -310Q308 -287 308 -264Q306 -256 307 -241Q308 -225 307 -219Q309 -212 307 -198Q305 -184 307 -176Q308 -142 306 -107Q304 -103 303 -90Q302 -75 296 -68Q294 -64 292 -59Q291 -55 285 -57Q276 -57 271 -52Q265 -50 262 -55Q260 -61 259 -65Q236 -93 225 -113Q199 -135 170 -166Q164 -172 159 -167Q157 -165 152 -156Q148 -155 143 -148Q136 -138 129 -142Q127 -146 120 -150Q112 -155 111 -161Q112 -167 107 -179Q103 -188 96 -195Q96 -214 109 -224Q120 -222 132 -226Q185 -274 222 -299Q227 -305 242 -313Q257 -321 262 -328Q261 -339 263 -357Q268 -390 268 -425Q265 -432 266 -440Q267 -449 259 -450Q231 -443 225 -439Q212 -435 199 -432Q183 -430 166 -428Q142 -428 124 -436Q121 -438 105 -441Q101 -442 101 -443Q102 -446 107 -447Q146 -456 157 -461Q169 -463 180 -466Q192 -471 204 -477Q214 -479 228 -485Q245 -493 254 -494Q259 -495 261 -500Q264 -506 266 -510Q266 -536 266 -562Q258 -569 266 -575Q266 -592 268 -608Q265 -634 267 -665Q265 -668 265 -675Q265 -682 263 -684Q261 -694 247 -692Q241 -690 236 -694Q232 -697 234 -702Q236 -705 236 -713Q236 -721 239 -724ZM667 -705Q677 -707 684 -703Q694 -706 707 -702Q714 -705 732 -698Q753 -695 751 -663Q754 -655 748 -644Q744 -641 744 -632Q744 -624 739 -621Q728 -616 720 -606Q714 -600 708 -596L677 -573Q676 -570 682 -566Q687 -563 686 -560Q673 -544 669 -542Q660 -542 639 -538Q620 -534 607 -535Q595 -533 588 -531Q556 -531 543 -536Q536 -535 525 -542Q518 -547 513 -547Q510 -554 496 -563Q491 -573 485 -582Q478 -592 482 -603Q484 -625 491 -634Q499 -647 508 -659Q513 -664 517 -670Q520 -677 529 -675Q544 -673 551 -678Q556 -679 560 -681L579 -687Q584 -688 588 -690Q598 -693 610 -694Q614 -699 620 -698Q627 -698 633 -699Q637 -703 650 -702Q662 -701 667 -705ZM671 -667Q670 -667 642 -664Q629 -661 616 -658Q607 -658 595 -652Q576 -655 557 -659Q550 -657 549 -651Q549 -644 549 -637Q551 -626 543 -616Q538 -598 536 -575Q538 -570 533 -563Q528 -555 532 -551Q540 -549 554 -553Q567 -557 573 -557Q578 -559 601 -564Q606 -567 617 -569Q634 -571 639 -578Q641 -590 649 -599Q656 -609 661 -619Q672 -639 683 -659Q684 -664 679 -667Q674 -670 671 -667ZM706 -515Q716 -517 726 -519Q738 -519 749 -520Q764 -520 767 -516Q778 -510 775 -499Q772 -488 759 -485Q757 -484 721 -472Q718 -470 709 -469Q696 -467 692 -462Q696 -457 707 -455Q717 -453 721 -450Q749 -439 743 -408Q741 -404 747 -394Q749 -388 749 -364Q739 -350 748 -331Q749 -328 747 -321Q745 -315 746 -310Q743 -287 749 -267Q747 -258 747 -225Q748 -220 748 -215Q747 -211 750 -210Q752 -209 756 -210Q766 -215 775 -215Q796 -221 816 -231Q827 -234 837 -237Q871 -238 904 -237Q908 -239 914 -234Q920 -230 924 -230Q930 -233 932 -224Q931 -214 929 -205Q928 -202 921 -200Q916 -198 914 -195Q912 -190 910 -185Q909 -180 903 -180Q899 -184 880 -181Q865 -181 795 -176Q780 -173 764 -171Q757 -173 752 -169Q746 -165 750 -158Q750 -141 746 -124Q747 -109 747 -94Q743 -85 750 -75Q752 -72 749 -68Q746 -63 746 -61Q746 -47 746 -34Q747 -20 745 -5Q744 -3 741 10Q742 20 735 35Q728 50 728 58Q729 64 725 66Q721 69 717 72Q717 82 710 94Q704 95 698 95Q697 85 693 78Q686 68 690 53Q691 37 692 21Q692 9 691 -3Q689 -19 691 -33Q690 -43 691 -54Q692 -60 690 -68Q685 -73 687 -79Q690 -85 689 -90Q687 -96 690 -124Q687 -135 684 -147Q677 -150 666 -146Q658 -147 646 -143Q637 -140 631 -140Q627 -139 623 -138L606 -134Q602 -133 598 -132Q580 -129 562 -127Q540 -123 518 -120Q490 -118 471 -121Q454 -125 437 -130Q442 -133 456 -135Q489 -143 521 -152Q532 -154 542 -160Q544 -169 537 -173Q530 -178 525 -183Q507 -208 504 -231Q506 -239 508 -248Q512 -258 511 -268Q518 -291 525 -315Q535 -354 544 -394Q542 -398 543 -405Q544 -414 539 -416Q533 -415 495 -418Q479 -425 462 -426Q456 -427 456 -431Q460 -435 471 -435Q489 -440 507 -446Q530 -452 553 -461L603 -482Q615 -487 655 -498Q669 -500 682 -503Q694 -509 706 -515ZM650 -451Q614 -436 600 -432L573 -424L584 -419Q599 -410 596 -391Q595 -388 594 -379Q593 -368 589 -363Q585 -356 594 -353L619 -355Q625 -355 631 -355Q643 -358 653 -354Q656 -353 662 -354Q669 -356 672 -353Q670 -341 664 -331Q660 -327 656 -322Q652 -317 646 -316Q637 -325 628 -328Q612 -333 596 -339Q582 -346 579 -336Q580 -320 574 -305Q572 -302 572 -292Q572 -284 569 -279Q568 -266 564 -254Q560 -243 561 -230Q557 -220 565 -208Q563 -195 583 -179Q593 -180 603 -176Q634 -183 665 -191Q667 -192 677 -192Q682 -192 687 -202Q688 -223 689 -245Q687 -251 687 -287Q688 -313 686 -363Q684 -379 685 -392Q683 -424 674 -433Q669 -440 664 -447Q658 -454 650 -451ZM632 -293H636Q653 -297 653 -284Q653 -276 651 -267Q649 -258 638 -259Q633 -263 626 -261Q620 -260 616 -260Q605 -269 594 -273Q576 -279 579 -284Q590 -290 607 -288Q610 -291 632 -293ZM249 -260Q242 -257 237 -252Q214 -233 191 -205Q183 -201 180 -198Q174 -193 180 -187Q191 -181 203 -164Q216 -146 224 -140Q228 -137 233 -133Q238 -130 243 -135Q245 -147 249 -159Q248 -183 255 -216Q255 -231 255 -246Q259 -251 257 -257Q255 -263 249 -260Z"/>
</svg>