<svg xmlns="http://www.w3.org/2000/svg" viewBox="0 -800 1024 1024">
	<path fill="#000000" d="M504 -504Q503 -488 502 -473Q503 -469 499 -460Q495 -452 497 -446Q494 -440 491 -435L488 -412Q476 -391 472 -386Q472 -380 462 -363Q457 -358 445 -339Q442 -332 435 -337Q429 -341 427 -347Q423 -350 420 -356Q412 -366 404 -369Q400 -373 396 -377Q395 -379 398 -381Q404 -383 410 -385Q413 -387 420 -389Q430 -392 432 -395Q438 -411 443 -428Q453 -448 456 -472Q458 -482 459 -493L460 -498Q463 -528 461 -565Q458 -571 458 -580Q458 -588 450 -587Q440 -585 430 -583Q408 -577 385 -571Q378 -572 369 -568Q360 -564 356 -564Q341 -562 328 -557Q315 -554 303 -554Q294 -558 284 -559Q282 -558 279 -557L270 -554Q268 -553 265 -552Q256 -548 244 -535Q234 -529 231 -519Q227 -509 223 -499Q223 -498 220 -479Q215 -467 214 -452Q212 -433 210 -414Q202 -402 204 -382Q201 -376 196 -376Q187 -379 176 -380Q161 -393 155 -409Q155 -413 152 -419Q149 -424 150 -428L155 -435Q158 -440 157 -444Q164 -469 171 -495Q173 -499 174 -504L181 -524Q191 -555 210 -569L219 -577Q224 -582 229 -582Q232 -580 234 -572Q236 -561 243 -559Q249 -560 258 -567Q268 -575 273 -576Q282 -578 290 -581Q303 -588 320 -591L311 -600Q304 -599 302 -603Q297 -604 296 -608Q295 -611 292 -613Q288 -619 284 -625Q285 -635 285 -646Q284 -650 287 -650Q292 -651 296 -654Q298 -663 300 -673Q288 -672 275 -664Q264 -657 259 -647Q259 -644 255 -638Q250 -631 250 -627Q250 -620 242 -620Q234 -620 231 -625Q232 -629 228 -631Q225 -632 222 -635Q222 -645 216 -653Q215 -655 215 -658Q215 -661 218 -661Q221 -662 221 -665Q221 -669 223 -670Q228 -673 232 -678Q235 -684 241 -681Q250 -678 256 -672Q275 -679 293 -686Q301 -688 302 -694Q303 -700 307 -704Q311 -721 310 -738Q312 -743 310 -749Q308 -756 305 -764Q295 -768 299 -775L303 -774Q313 -774 328 -771Q348 -767 349 -762Q359 -754 353 -744Q360 -737 352 -730Q351 -722 350 -715Q347 -708 356 -712Q370 -719 386 -721Q398 -723 409 -725Q415 -722 434 -720Q441 -715 448 -712Q457 -710 456 -702Q455 -696 449 -690Q443 -684 437 -678Q435 -673 425 -668Q416 -664 415 -660Q411 -658 407 -656L393 -647Q389 -645 385 -643Q382 -643 377 -639Q373 -635 369 -635Q361 -634 356 -632Q338 -625 337 -619Q337 -611 336 -604Q337 -600 331 -594Q338 -596 345 -598Q379 -609 415 -615Q436 -621 467 -618Q481 -614 499 -590Q499 -587 502 -581Q507 -572 505 -568Q505 -545 505 -522ZM625 -743Q637 -743 646 -734Q653 -731 656 -721Q656 -690 645 -667Q640 -657 644 -648Q651 -644 682 -644Q699 -642 715 -634Q719 -634 723 -626Q726 -620 731 -618Q736 -616 736 -608Q736 -600 739 -597Q745 -587 739 -575Q740 -565 731 -541Q723 -531 716 -511Q705 -504 700 -488Q684 -470 675 -448Q674 -443 679 -442Q688 -439 689 -439Q698 -439 706 -434Q714 -436 727 -425Q732 -417 740 -412Q742 -403 744 -395Q737 -384 726 -377Q715 -372 702 -373Q700 -376 694 -376Q690 -376 688 -378Q685 -385 678 -387Q672 -389 667 -392Q639 -400 636 -400Q631 -404 623 -404Q609 -404 604 -391Q598 -386 594 -380Q590 -373 583 -372Q572 -369 560 -367Q552 -363 549 -371Q549 -376 548 -379Q546 -383 550 -385Q555 -387 566 -404Q567 -407 571 -413Q576 -420 576 -425Q571 -430 558 -434Q546 -438 541 -443Q538 -448 529 -450Q521 -452 519 -456Q516 -462 522 -464Q528 -466 532 -463Q558 -467 585 -468Q595 -463 606 -471Q611 -474 622 -487Q630 -502 639 -515Q665 -545 678 -580Q679 -587 682 -593Q685 -600 681 -606Q669 -619 653 -619Q643 -623 634 -619Q624 -628 617 -639Q612 -649 606 -658Q600 -667 603 -678Q606 -700 614 -718Q617 -724 618 -732Q619 -739 625 -743ZM387 -703Q370 -700 354 -693Q349 -693 348 -688Q347 -684 345 -683Q343 -676 341 -646Q340 -640 342 -636Q350 -641 357 -647Q376 -669 388 -693Q390 -696 391 -699Q391 -703 387 -703ZM363 -528Q370 -528 374 -526Q383 -525 392 -524Q406 -527 410 -509Q413 -489 403 -475Q389 -454 382 -445Q391 -441 400 -437Q402 -430 398 -426Q393 -422 389 -418Q388 -414 382 -415Q376 -416 374 -415Q349 -420 315 -411Q292 -407 277 -423Q278 -432 271 -435Q264 -438 257 -441Q247 -446 249 -468Q260 -486 271 -504Q280 -520 293 -509Q301 -505 308 -510Q316 -515 323 -518Q329 -522 343 -523Q358 -525 363 -528ZM353 -499Q342 -495 330 -492Q327 -487 318 -487Q309 -487 307 -485Q301 -469 294 -453Q293 -444 294 -440Q296 -433 303 -436Q314 -442 327 -443Q340 -444 346 -456Q357 -472 360 -487Q360 -503 353 -499ZM315 -95Q351 -108 375 -114Q399 -119 423 -125Q429 -127 437 -128Q444 -128 448 -134Q450 -155 453 -161Q452 -165 453 -172Q454 -183 451 -187Q437 -190 422 -194Q420 -196 409 -196Q401 -196 402 -202Q405 -207 412 -208Q418 -208 424 -209Q446 -218 468 -231Q472 -238 471 -256Q470 -272 474 -279Q474 -283 479 -291Q484 -297 480 -301Q471 -304 463 -304Q453 -304 448 -299Q444 -297 441 -298Q437 -299 439 -303Q444 -310 452 -324Q468 -328 476 -333Q482 -333 486 -337Q490 -342 494 -345Q503 -344 514 -341Q522 -346 541 -342Q550 -338 571 -336Q577 -334 575 -328Q573 -323 571 -318Q572 -309 565 -307Q558 -305 553 -301Q539 -299 528 -292Q521 -294 516 -291Q510 -288 515 -282Q521 -271 527 -261Q526 -256 530 -252Q534 -249 539 -252Q554 -255 560 -253Q562 -252 569 -253Q578 -254 582 -250Q583 -247 591 -247Q600 -247 601 -242Q594 -235 599 -227Q601 -222 594 -220Q587 -218 587 -214Q599 -193 624 -185Q634 -182 645 -183Q653 -184 671 -186Q677 -183 682 -180Q690 -180 689 -172Q689 -165 683 -160Q676 -159 676 -150Q676 -141 672 -139Q659 -137 657 -134Q637 -134 616 -126Q582 -119 548 -114Q522 -109 515 -111Q508 -108 508 -100Q509 -91 509 -83Q509 -62 513 -42Q516 -28 529 -23Q544 -18 558 -14Q588 -12 618 -10Q631 -10 643 -10Q646 -7 653 -9Q661 -11 664 -9Q671 -12 678 -6Q696 -13 711 -12Q712 -12 746 -15Q749 -18 755 -16Q760 -14 762 -16Q775 -17 789 -17Q802 -16 810 -27Q817 -56 814 -68Q819 -70 820 -66Q821 -61 822 -56Q819 -44 831 -31Q837 -34 841 -28Q844 -21 849 -16Q860 -15 866 4Q868 10 862 13Q856 16 851 19Q843 26 835 33Q803 29 775 33Q742 30 708 31H702Q694 34 683 30Q661 31 639 31Q632 29 614 30Q596 31 588 28Q571 26 554 23Q549 19 539 18Q528 17 524 13Q487 0 467 -28Q453 -42 447 -73Q445 -76 445 -84Q445 -93 440 -95Q430 -94 419 -93Q379 -87 353 -91Q334 -86 316 -89Q307 -93 315 -95ZM569 -203L567 -202Q550 -199 535 -194Q520 -196 518 -187Q519 -170 514 -154Q517 -147 524 -149Q531 -151 537 -152Q558 -156 578 -160Q583 -160 586 -164Q588 -169 591 -172Q594 -180 587 -191Q582 -196 578 -201Q575 -205 569 -203Z"/>
</svg>