<svg xmlns="http://www.w3.org/2000/svg" viewBox="0 -800 1024 1024">
	<path fill="#000000" d="M330 -748L335 -746Q345 -742 355 -738Q373 -738 386 -722Q389 -718 387 -711Q385 -702 387 -698Q391 -696 400 -702Q405 -706 409 -706Q426 -723 450 -731Q457 -728 467 -729Q474 -731 482 -730Q487 -729 492 -728Q501 -728 511 -724Q522 -720 520 -708Q515 -704 517 -693Q509 -689 500 -685Q486 -683 482 -675Q473 -671 457 -661Q446 -656 436 -648Q433 -646 420 -639Q406 -632 399 -624Q396 -619 391 -620Q385 -621 382 -620Q365 -616 362 -608Q360 -603 355 -606Q351 -610 348 -610Q342 -607 336 -615Q331 -621 326 -620Q323 -622 320 -626Q317 -630 314 -631Q308 -631 307 -635Q305 -639 302 -642Q291 -653 297 -668L320 -711Q324 -718 328 -725Q334 -732 328 -740Q324 -745 330 -748ZM419 -592Q428 -588 436 -584Q439 -580 444 -582Q449 -583 454 -583Q465 -583 476 -583Q478 -582 485 -583Q493 -585 497 -581Q511 -579 523 -569Q521 -565 524 -558Q528 -550 525 -545Q523 -540 513 -538Q506 -529 495 -529Q483 -529 474 -525Q460 -527 447 -524Q432 -521 422 -512Q412 -516 403 -512Q392 -501 382 -510Q368 -510 365 -511Q342 -510 312 -521Q306 -522 303 -526Q302 -529 307 -531Q320 -531 326 -533Q345 -542 365 -549Q372 -551 378 -553Q387 -556 395 -560Q402 -560 403 -567Q404 -574 399 -578Q395 -583 399 -587Q403 -591 407 -585Q410 -583 414 -588Q416 -591 419 -592ZM644 -249Q636 -270 631 -305Q624 -326 627 -356Q629 -374 630 -392Q636 -428 640 -464Q642 -468 639 -473Q636 -477 632 -474H629Q615 -471 600 -468Q586 -462 571 -457Q559 -456 549 -452Q546 -450 541 -449Q533 -447 531 -444Q525 -443 513 -437Q508 -436 493 -429Q483 -427 473 -425Q461 -422 450 -418Q438 -417 428 -413Q419 -410 411 -406Q398 -403 386 -398Q368 -392 361 -386Q348 -386 339 -378Q327 -378 319 -370Q311 -365 305 -371Q300 -376 291 -371Q277 -373 263 -375Q259 -375 240 -380Q220 -384 211 -388Q220 -397 280 -412Q302 -419 324 -426Q348 -436 356 -437Q363 -440 369 -443Q379 -446 388 -450Q401 -456 416 -459Q425 -463 434 -467Q438 -467 459 -475Q472 -476 484 -483Q491 -482 497 -485Q502 -489 508 -491Q518 -491 526 -498Q532 -497 541 -502Q549 -506 554 -506Q585 -518 593 -519Q600 -524 609 -524Q618 -524 626 -526H636Q641 -528 647 -522Q652 -517 656 -517Q660 -520 665 -514Q669 -510 672 -509Q680 -512 684 -502Q692 -489 690 -455Q689 -441 684 -428Q683 -417 682 -406Q673 -399 675 -390Q676 -373 674 -353Q673 -333 681 -315Q689 -305 692 -287Q693 -270 699 -254Q701 -244 701 -232Q705 -217 708 -202Q709 -188 714 -175Q718 -172 717 -163Q716 -152 721 -148Q727 -145 727 -138Q727 -132 727 -126Q729 -123 739 -101Q745 -88 762 -78Q766 -76 792 -64Q816 -60 844 -60Q861 -62 877 -64Q887 -61 889 -72Q889 -78 888 -86Q888 -93 893 -97Q895 -100 897 -98Q898 -95 900 -92Q901 -77 902 -63Q908 -45 918 -46Q924 -42 928 -26Q925 -23 926 -14Q927 -6 925 -3Q912 2 898 1Q873 -5 847 -4Q839 -6 819 -6Q798 -6 788 -10Q768 -13 753 -20Q707 -52 692 -77Q684 -91 675 -105Q664 -128 656 -180Q651 -220 650 -223Q647 -236 644 -249ZM630 -222Q626 -206 624 -189Q624 -183 620 -171Q621 -157 613 -146Q610 -129 607 -113Q605 -97 602 -82Q601 -78 603 -69Q605 -58 602 -52Q601 -41 599 -31Q600 -25 596 -14Q593 -5 593 1Q601 15 589 23Q586 23 585 30Q584 36 581 37Q577 38 571 34Q564 29 559 31Q547 24 543 14Q537 4 526 12Q515 13 506 15Q496 11 487 15Q470 10 443 12Q439 10 430 12Q424 13 421 12Q400 12 396 15Q382 19 369 18Q356 19 346 22Q322 23 301 23Q293 23 284 23Q264 19 247 11Q226 1 210 -13Q202 -19 196 -33Q191 -43 189 -46Q176 -64 174 -86Q171 -92 176 -102Q180 -109 180 -112Q175 -125 183 -135Q185 -159 192 -182Q195 -189 198 -204Q201 -223 206 -230Q213 -259 222 -286Q227 -301 242 -321Q257 -314 259 -299Q262 -296 261 -289Q260 -281 264 -277Q265 -268 258 -250Q254 -238 253 -229Q249 -221 249 -211Q249 -197 239 -182Q237 -167 237 -152Q232 -147 233 -140Q233 -133 232 -126Q226 -106 226 -94Q228 -80 227 -72Q230 -64 232 -56Q231 -51 237 -34Q239 -31 260 -18Q270 -6 281 -12Q286 -12 291 -12L324 -13Q336 -14 348 -15Q362 -16 376 -17Q384 -19 392 -18Q394 -20 408 -22Q416 -22 423 -22Q426 -30 437 -21Q439 -21 441 -21H448Q450 -21 452 -21Q459 -23 465 -25Q468 -26 475 -24Q481 -22 485 -23Q490 -29 505 -23Q512 -21 517 -25Q520 -31 527 -30Q529 -30 539 -26Q545 -27 546 -34Q548 -43 550 -45Q555 -56 562 -93Q565 -110 566 -128Q566 -145 573 -161Q574 -170 576 -218Q577 -237 577 -257Q584 -280 564 -292Q555 -295 548 -301Q539 -308 530 -310Q521 -313 511 -313Q502 -313 494 -310Q482 -307 469 -305Q454 -297 438 -295Q429 -291 402 -286Q386 -283 374 -279Q367 -279 353 -274Q339 -269 331 -270Q328 -271 302 -277Q288 -283 273 -290Q295 -296 306 -298Q319 -302 331 -307Q340 -307 349 -311L373 -319Q384 -321 395 -323Q409 -327 422 -331Q432 -333 441 -335Q444 -336 447 -337L458 -339Q461 -340 464 -341Q474 -344 495 -346Q514 -350 535 -346Q550 -346 564 -338Q575 -339 586 -331Q597 -323 606 -317Q621 -293 626 -272Q629 -258 630 -222ZM344 -261Q354 -257 363 -254Q371 -254 378 -254Q394 -250 407 -241Q413 -234 421 -234Q431 -235 441 -237Q457 -239 473 -234Q475 -231 482 -226Q491 -220 490 -213Q487 -212 484 -207Q482 -203 480 -202Q478 -193 467 -191Q454 -189 441 -188Q426 -185 414 -178Q409 -162 396 -143Q386 -143 384 -131Q381 -129 384 -126Q386 -124 390 -125Q396 -124 403 -126Q410 -128 416 -123Q430 -122 444 -121Q447 -120 455 -119Q463 -118 467 -114Q476 -108 478 -97Q478 -95 480 -95Q483 -96 485 -94Q483 -89 485 -83Q483 -76 490 -72Q482 -71 473 -71Q471 -68 465 -68Q466 -61 460 -57Q455 -55 451 -51Q447 -47 443 -53Q449 -64 428 -77Q420 -86 409 -89Q398 -92 389 -96Q382 -98 376 -101Q370 -104 363 -102Q354 -94 348 -83Q342 -82 333 -74Q327 -68 322 -67Q318 -63 315 -66Q312 -68 315 -72Q326 -80 339 -107Q342 -110 339 -113Q336 -117 336 -118Q346 -118 346 -127Q352 -139 354 -155Q356 -159 354 -162Q352 -166 348 -165Q346 -168 341 -165Q337 -162 336 -164Q324 -166 313 -166Q308 -169 299 -167Q289 -172 278 -177Q277 -177 281 -179Q287 -180 286 -184Q289 -187 297 -189Q305 -191 308 -195Q319 -197 330 -200Q336 -204 344 -203Q347 -207 356 -210Q367 -213 368 -219Q372 -240 354 -244Q350 -248 345 -252Q340 -256 344 -261Z"/>
</svg>