<svg xmlns="http://www.w3.org/2000/svg" viewBox="0 -800 1024 1024">
	<path fill="#000000" d="M597 -757H598Q603 -753 610 -751Q616 -749 615 -741Q626 -727 630 -699Q628 -686 630 -663Q634 -653 631 -643Q629 -633 628 -623Q632 -616 641 -616Q659 -619 673 -626Q691 -639 714 -631Q721 -630 728 -629Q737 -628 738 -620Q739 -612 733 -607Q731 -603 735 -598Q740 -593 735 -589Q721 -586 685 -576Q680 -573 675 -571Q656 -563 636 -556Q627 -549 628 -539Q629 -529 628 -520Q629 -512 626 -496Q623 -484 624 -476Q624 -464 623 -453Q623 -447 627 -447Q634 -448 639 -447Q659 -448 678 -450Q679 -448 684 -450Q689 -452 692 -450Q695 -452 701 -448Q707 -444 710 -445Q746 -442 765 -427Q767 -422 776 -413Q776 -402 782 -396Q784 -394 781 -391Q777 -388 780 -384Q784 -380 780 -377Q776 -375 772 -378Q770 -375 765 -375Q761 -375 759 -374Q751 -366 742 -365Q732 -364 723 -360Q721 -356 717 -356Q712 -355 711 -352Q701 -346 691 -344Q698 -356 704 -368Q705 -375 708 -381Q710 -387 708 -394Q696 -401 672 -405Q653 -411 634 -413Q623 -415 620 -403Q618 -385 618 -368Q616 -353 614 -338Q615 -334 612 -324Q609 -316 612 -311Q628 -308 643 -314Q658 -310 674 -309Q690 -307 704 -298Q716 -294 724 -284Q730 -281 728 -273Q727 -271 723 -262Q723 -256 724 -248Q723 -244 718 -246Q710 -236 702 -233Q698 -235 694 -231Q690 -227 687 -227Q685 -229 681 -226Q677 -222 675 -225Q669 -220 662 -216Q656 -212 654 -206Q650 -201 646 -208Q644 -207 641 -201Q638 -195 633 -194Q627 -196 624 -191Q620 -185 625 -182Q628 -182 629 -179Q629 -176 632 -176Q640 -173 650 -171Q657 -173 663 -168Q669 -163 665 -156Q662 -151 666 -146Q670 -141 672 -136Q663 -128 654 -131Q651 -136 646 -135Q641 -134 636 -134Q626 -132 618 -134Q615 -132 612 -131L600 -126Q597 -124 594 -123Q582 -120 569 -113Q566 -110 558 -109Q551 -108 548 -105Q537 -103 533 -84Q531 -58 528 -44Q529 -35 527 -26Q528 -20 524 -13Q523 -9 528 -9Q540 -6 552 -3Q564 -1 576 0Q678 11 683 16Q696 14 718 18Q735 20 751 21Q778 23 807 30Q818 31 842 37Q855 39 863 43Q870 60 864 75Q848 79 832 80Q816 86 796 89Q784 89 711 76Q693 74 678 69Q674 71 668 67Q662 63 659 66Q651 65 643 64Q633 63 627 56Q621 61 601 54Q597 55 591 52Q585 49 581 50Q526 37 507 33Q483 24 457 17Q450 16 435 8Q421 1 413 -1Q388 -10 376 -10Q364 -14 347 6Q338 10 331 14Q322 17 313 19Q310 22 307 25Q304 26 303 22Q306 16 336 -26Q341 -28 345 -37Q348 -45 351 -47Q355 -56 361 -65Q372 -80 373 -87Q379 -98 384 -109Q387 -114 381 -121Q377 -126 379 -130Q389 -131 397 -138Q401 -136 407 -140Q411 -143 412 -141Q415 -133 423 -131Q430 -129 437 -127Q444 -126 442 -121Q441 -116 440 -111Q429 -103 432 -93Q428 -91 427 -84Q426 -77 423 -74Q422 -67 414 -57Q406 -48 405 -45Q400 -39 393 -37Q387 -35 384 -31Q379 -25 385 -22Q399 -30 421 -24Q437 -27 456 -17Q474 -15 480 -12Q483 -13 489 -12Q496 -11 497 -16Q472 -39 485 -90Q489 -107 490 -128Q492 -139 493 -150Q491 -168 494 -186Q496 -208 489 -217Q491 -221 487 -223Q483 -225 479 -224L442 -215Q434 -215 425 -213Q408 -208 391 -203Q374 -201 361 -195Q340 -198 319 -202Q303 -204 287 -206Q279 -209 282 -216Q283 -219 288 -216Q304 -223 308 -227Q319 -231 331 -233Q362 -244 365 -245Q376 -250 389 -252Q393 -253 399 -255L419 -261Q424 -262 429 -264Q520 -287 533 -290Q539 -292 546 -293Q553 -293 555 -299Q552 -306 547 -312Q542 -318 548 -325Q552 -328 549 -335Q545 -343 550 -346Q556 -348 557 -353Q559 -358 559 -364Q560 -369 563 -398Q567 -422 568 -442Q555 -443 546 -432Q539 -426 534 -419Q530 -412 521 -409Q512 -396 499 -384Q476 -365 453 -346Q437 -332 421 -318Q417 -324 423 -329Q429 -334 432 -338Q438 -346 449 -358Q466 -376 472 -387Q486 -401 491 -410Q491 -414 496 -417Q500 -419 500 -422Q500 -426 502 -427Q504 -428 507 -425Q510 -434 509 -440Q516 -454 520 -459Q520 -470 531 -488Q539 -502 541 -508Q542 -511 541 -512Q535 -512 529 -506Q511 -499 493 -493Q482 -484 452 -471Q439 -463 426 -455Q413 -446 399 -440Q385 -430 371 -420Q341 -406 347 -373Q344 -344 341 -316Q336 -312 338 -300Q340 -289 336 -285Q333 -284 330 -275Q328 -269 323 -272Q307 -288 293 -305Q282 -310 285 -325Q285 -334 281 -344Q266 -340 263 -333Q258 -331 253 -321Q250 -315 246 -312Q245 -305 238 -303Q233 -302 227 -306Q218 -317 209 -328Q201 -357 201 -361Q206 -373 221 -393Q233 -405 240 -418Q256 -438 277 -449Q278 -450 290 -455Q298 -458 297 -465Q286 -464 274 -460Q254 -451 231 -458Q220 -457 202 -464Q184 -470 173 -470Q168 -472 162 -473Q156 -474 156 -480Q175 -485 197 -487Q203 -495 211 -498Q219 -500 226 -504Q237 -508 247 -513Q268 -524 288 -536Q305 -542 308 -551V-610Q309 -634 309 -659Q308 -675 307 -691Q304 -694 293 -696Q284 -698 280 -702Q283 -706 282 -711Q283 -712 285 -711Q294 -721 308 -714Q315 -718 326 -718Q345 -718 352 -705Q352 -701 356 -693Q361 -685 358 -680Q359 -666 360 -652Q369 -633 352 -613Q358 -602 353 -589Q355 -579 359 -574Q361 -567 370 -572Q378 -576 380 -572Q386 -577 390 -575Q398 -578 400 -571Q403 -564 405 -558Q409 -557 411 -550Q413 -543 416 -542L415 -530Q404 -523 389 -520Q386 -514 373 -507Q358 -499 358 -488Q361 -479 355 -463Q351 -450 351 -442Q349 -438 353 -437Q358 -436 362 -439Q376 -448 389 -457Q413 -471 436 -485Q481 -512 525 -540Q529 -542 533 -545L550 -557Q557 -562 558 -562Q561 -565 567 -568Q576 -572 578 -575Q584 -580 583 -587Q581 -594 582 -600Q581 -621 579 -643Q578 -662 578 -679Q577 -699 571 -715Q569 -722 562 -722Q556 -722 552 -716Q543 -728 554 -741Q558 -748 568 -750Q574 -750 580 -751Q596 -756 597 -757ZM286 -415Q280 -416 276 -407Q271 -398 267 -397Q262 -388 255 -380Q248 -372 249 -361Q257 -363 270 -374Q289 -382 289 -400Q290 -407 290 -414Q290 -416 286 -415ZM632 -257L621 -252Q620 -252 566 -243Q562 -242 532 -237Q524 -238 521 -232Q519 -228 526 -226Q528 -225 533 -224Q540 -223 542 -219Q547 -213 542 -202Q538 -193 539 -188Q536 -175 536 -162Q538 -157 536 -147Q534 -138 536 -133Q531 -114 537 -109Q550 -117 560 -127Q570 -138 579 -148Q583 -150 582 -156Q581 -161 584 -162Q585 -164 587 -165Q593 -170 589 -173Q585 -170 577 -181Q592 -186 604 -199Q615 -211 628 -223Q630 -230 643 -249Q648 -253 645 -256Q639 -259 632 -257Z"/>
</svg>