<svg xmlns="http://www.w3.org/2000/svg" viewBox="0 -800 1024 1024">
	<path fill="#000000" d="M280 -699Q305 -697 314 -699Q329 -701 337 -691Q340 -684 348 -678Q346 -667 350 -660Q357 -646 353 -631Q352 -616 358 -603Q356 -578 353 -554Q349 -545 353 -534Q352 -520 350 -507Q349 -496 356 -486Q358 -484 364 -481Q373 -477 376 -471Q379 -467 385 -469Q391 -471 393 -470Q399 -469 407 -471Q414 -473 416 -467Q417 -462 419 -456Q422 -444 416 -433Q402 -429 395 -428Q384 -425 373 -424Q361 -423 352 -416Q347 -413 345 -398Q342 -392 344 -385Q347 -381 339 -375Q333 -373 335 -368Q338 -364 342 -362Q348 -355 341 -346Q341 -338 354 -341Q379 -355 403 -369Q413 -372 435 -392Q438 -393 439 -392Q440 -390 440 -386Q421 -359 419 -354Q406 -345 392 -327Q374 -310 356 -294Q326 -278 333 -258Q329 -242 333 -224Q329 -204 332 -189Q334 -186 336 -171Q336 -158 332 -147Q327 -143 328 -137Q328 -130 326 -125Q324 -117 328 -107Q319 -94 326 -84Q324 -78 323 -68Q325 -60 318 -49Q312 -39 312 -34Q317 -26 308 -20Q303 -19 300 -11Q298 -6 295 -4Q292 -5 289 -12Q287 -16 284 -18Q278 -19 274 -29Q271 -36 268 -38Q254 -45 248 -63L212 -100Q210 -103 211 -105Q213 -108 216 -105Q225 -98 243 -91Q246 -88 254 -90Q261 -91 264 -90Q272 -88 277 -96Q277 -105 276 -112Q282 -118 281 -134Q281 -146 282 -150Q283 -155 286 -191Q287 -197 285 -206Q282 -217 284 -221Q287 -230 279 -232Q263 -222 249 -211Q224 -193 218 -186Q211 -184 201 -173Q194 -166 190 -163Q183 -158 175 -153Q170 -153 168 -149Q166 -145 169 -140Q162 -132 151 -127Q140 -126 134 -135Q129 -143 122 -149Q113 -158 112 -168Q121 -186 121 -192Q121 -197 121 -203Q122 -208 127 -206Q130 -206 133 -201Q137 -193 142 -194Q158 -204 173 -215Q230 -253 286 -292Q297 -299 297 -311Q297 -324 297 -336Q297 -349 299 -361Q301 -386 298 -404Q297 -410 291 -410Q288 -410 282 -407Q269 -403 255 -399Q234 -398 215 -400Q199 -403 185 -401L173 -406Q167 -407 161 -409Q150 -412 145 -419Q164 -426 202 -438Q206 -439 209 -440L222 -444Q228 -446 229 -446Q260 -456 290 -466Q298 -468 298 -476Q298 -483 298 -490Q297 -501 295 -512Q291 -518 295 -522Q299 -527 300 -532Q301 -536 301 -541L300 -575Q296 -580 301 -594Q300 -621 298 -645Q298 -664 284 -667Q273 -672 269 -680Q271 -692 280 -699ZM603 -658L613 -657Q628 -657 642 -657Q649 -658 649 -651Q650 -645 655 -641Q661 -640 659 -629Q654 -622 663 -611Q663 -596 663 -581Q657 -560 659 -522Q656 -517 658 -503Q660 -493 658 -487Q659 -482 659 -476Q659 -470 665 -468Q677 -476 688 -466Q690 -464 695 -466Q702 -469 705 -465Q705 -457 712 -456Q720 -457 727 -448Q733 -448 733 -442Q733 -438 730 -433Q717 -420 711 -421Q701 -413 689 -410Q677 -408 665 -403Q657 -401 656 -393Q655 -385 652 -378Q644 -372 644 -362Q644 -353 643 -344Q632 -337 638 -326Q635 -315 641 -313Q657 -314 672 -316Q693 -321 713 -326Q717 -329 731 -331Q735 -331 743 -334Q754 -339 760 -336Q768 -333 774 -340L780 -345Q782 -347 786 -349Q796 -347 805 -345Q809 -342 817 -345Q823 -347 827 -346Q841 -344 849 -336Q860 -340 866 -338Q872 -338 871 -333Q871 -328 870 -323Q868 -319 874 -314Q879 -309 877 -305Q872 -304 867 -297Q862 -290 858 -289Q846 -290 837 -283Q821 -285 805 -283Q789 -281 773 -280Q758 -279 745 -277Q736 -277 724 -273Q709 -273 696 -269Q678 -265 668 -265Q654 -262 642 -257Q635 -251 629 -228Q622 -216 629 -211Q638 -208 655 -206Q666 -205 681 -198Q696 -194 751 -165Q765 -159 804 -135Q829 -120 853 -105Q895 -82 936 -59Q939 -55 947 -51Q955 -48 957 -44Q954 -36 966 -30Q970 -31 971 -27Q972 -23 970 -20Q964 -17 964 -7Q964 2 960 5Q950 5 943 9Q931 -2 919 2Q911 7 904 2Q896 -3 889 -4Q839 -28 795 -62Q734 -107 672 -152Q640 -166 624 -171Q606 -175 596 -159Q595 -154 586 -144Q579 -136 577 -130Q565 -128 560 -118Q549 -109 545 -98Q540 -98 533 -90Q525 -81 518 -83Q507 -82 497 -79Q484 -72 470 -68Q463 -72 475 -78Q495 -93 525 -136L540 -166Q554 -191 560 -217Q559 -222 561 -232Q564 -242 561 -247Q548 -252 537 -249Q521 -242 503 -241Q494 -238 485 -236Q457 -239 455 -239Q449 -239 440 -244Q429 -250 422 -248Q415 -246 411 -251Q411 -252 414 -254Q432 -263 453 -267Q475 -274 499 -278Q520 -282 541 -287Q551 -290 563 -291Q574 -293 582 -302Q585 -325 588 -349Q589 -368 590 -388Q591 -396 578 -399Q576 -399 557 -402Q544 -407 530 -413Q523 -413 519 -417Q517 -420 521 -422Q522 -421 536 -424Q542 -428 568 -435Q575 -439 584 -440Q593 -442 598 -450L599 -482Q599 -528 602 -539Q604 -581 598 -617Q599 -629 587 -637Q584 -641 575 -640Q568 -639 566 -642Q572 -650 583 -653Q593 -655 603 -658Z"/>
</svg>