<svg xmlns="http://www.w3.org/2000/svg" viewBox="0 -800 1024 1024">
	<path fill="#000000" d="M468 -706Q471 -706 474 -701Q477 -697 479 -697Q488 -702 505 -694Q511 -695 513 -691Q514 -686 515 -682Q514 -669 505 -665Q496 -653 486 -642Q476 -638 471 -631Q464 -622 456 -611Q449 -601 438 -595Q431 -585 420 -579Q420 -573 417 -570Q414 -567 411 -564Q425 -554 439 -549Q443 -543 445 -528Q454 -513 444 -497Q449 -485 445 -468Q449 -465 459 -467Q471 -469 475 -464Q489 -467 501 -463Q513 -463 515 -445Q516 -441 513 -437Q510 -434 511 -430Q500 -430 492 -435Q486 -441 475 -431Q471 -430 471 -434Q470 -438 467 -440Q457 -447 446 -451Q443 -436 443 -435Q441 -419 438 -403Q435 -389 441 -379Q457 -377 471 -378Q483 -377 495 -376Q510 -379 515 -364Q511 -356 507 -348Q500 -345 491 -348Q484 -348 476 -348Q458 -355 441 -369Q434 -368 435 -362Q436 -356 435 -352Q436 -346 434 -335Q432 -323 435 -318Q438 -292 441 -267Q443 -264 439 -262Q436 -261 437 -258Q445 -255 453 -258Q461 -261 469 -262Q485 -271 502 -276Q508 -274 517 -278Q525 -281 530 -280Q535 -284 546 -287Q560 -290 565 -296Q571 -294 578 -296Q588 -293 588 -308Q588 -319 588 -331Q591 -364 594 -397Q599 -411 598 -439Q597 -461 599 -471Q597 -536 589 -557Q586 -565 569 -558Q564 -555 553 -551Q540 -547 534 -541Q531 -530 518 -534Q513 -524 503 -529Q501 -523 481 -529Q479 -532 477 -531Q475 -529 473 -531Q468 -544 453 -540Q451 -541 450 -541Q452 -543 455 -549Q467 -548 480 -555Q524 -585 564 -594Q567 -593 577 -595Q590 -597 597 -594Q607 -587 618 -580Q629 -573 630 -560Q628 -556 630 -555Q636 -555 635 -549Q639 -542 635 -533Q638 -528 640 -524Q639 -518 642 -504Q645 -486 641 -477Q640 -465 639 -454Q635 -401 631 -349Q635 -335 631 -306Q636 -301 634 -295Q632 -289 632 -282Q628 -279 631 -276Q634 -274 634 -272Q632 -262 628 -255Q634 -235 633 -217Q631 -208 631 -179Q634 -172 632 -158Q630 -145 631 -140Q634 -127 629 -97Q626 -77 627 -65Q627 -47 626 -29Q623 -26 623 -12Q617 -9 615 2Q613 12 610 15Q606 14 601 19Q595 24 592 24Q587 25 581 26Q576 17 571 8Q563 1 573 -11Q572 -21 575 -36Q579 -57 576 -67Q580 -107 583 -147Q582 -161 586 -176Q589 -180 587 -188Q585 -198 587 -201Q585 -215 588 -225Q588 -226 589 -227Q588 -230 584 -229Q580 -229 581 -225Q566 -212 561 -204Q556 -203 551 -197Q546 -190 543 -188Q535 -185 525 -174Q516 -164 513 -162Q499 -152 496 -142Q479 -126 466 -110Q458 -112 451 -105Q448 -100 439 -102Q439 -112 428 -101Q437 -114 447 -126Q467 -149 484 -175Q481 -179 487 -183Q493 -187 492 -192L517 -226Q522 -230 521 -233Q519 -236 514 -232Q505 -230 495 -229Q490 -226 469 -219Q466 -222 461 -218Q457 -215 454 -215Q451 -213 450 -215Q448 -218 445 -218Q442 -212 435 -210Q428 -208 422 -205Q411 -200 400 -199Q392 -198 383 -195Q381 -192 375 -194Q371 -195 369 -194Q366 -187 356 -195Q342 -196 331 -201Q329 -213 327 -226Q332 -221 341 -223Q354 -225 366 -228Q369 -230 386 -235Q394 -243 383 -250Q381 -251 382 -256Q383 -261 378 -262Q377 -258 374 -259Q370 -263 370 -270Q377 -284 380 -300Q379 -309 384 -354Q388 -361 388 -373Q394 -391 391 -407Q396 -413 395 -419Q393 -426 392 -431Q401 -440 396 -449Q400 -493 403 -534Q405 -545 398 -552Q391 -560 388 -568Q391 -576 389 -586Q397 -589 397 -595Q395 -601 400 -604Q404 -607 408 -610Q411 -609 412 -612Q413 -615 417 -615Q418 -618 421 -620Q425 -622 425 -623Q427 -625 426 -625Q421 -625 422 -628Q424 -630 425 -633L432 -642Q434 -644 435 -646Q435 -653 441 -658Q447 -662 451 -668Q451 -672 456 -680Q461 -687 460 -692Q460 -702 468 -706ZM185 -646Q195 -644 204 -643Q218 -649 229 -645Q249 -648 257 -630Q256 -622 264 -616Q265 -608 266 -600Q253 -577 252 -571Q255 -559 251 -544Q252 -541 251 -534Q249 -525 251 -521Q250 -518 252 -508Q254 -496 250 -489Q247 -485 250 -478Q253 -472 252 -468Q252 -462 255 -462Q263 -462 272 -463Q284 -463 296 -456Q300 -454 298 -450Q294 -445 292 -442Q288 -436 281 -434Q275 -432 269 -429Q253 -425 251 -408Q251 -385 250 -380Q250 -369 254 -358Q258 -350 248 -338Q248 -329 253 -318Q253 -314 252 -309Q251 -303 259 -302Q269 -309 294 -336Q301 -347 309 -355Q316 -363 322 -373Q328 -382 337 -389Q331 -375 327 -368Q323 -366 322 -358Q321 -352 320 -350Q314 -346 314 -332Q314 -322 311 -317Q307 -315 300 -306Q295 -300 291 -297Q280 -285 269 -273Q258 -261 254 -246Q247 -239 251 -225Q250 -205 248 -186Q250 -171 246 -157Q252 -151 253 -140Q249 -116 248 -103Q242 -94 247 -68Q243 -57 234 -47Q228 -45 227 -39Q225 -31 219 -31Q205 -45 200 -62Q190 -72 190 -103Q192 -119 193 -136Q195 -148 197 -160Q198 -175 200 -188Q207 -202 197 -206Q187 -202 182 -192Q177 -183 170 -175Q164 -171 156 -161Q145 -148 137 -146Q123 -155 118 -167Q116 -177 107 -182Q103 -190 109 -194Q115 -199 120 -204Q122 -211 132 -221Q142 -231 144 -237Q166 -276 188 -316Q211 -353 212 -392Q215 -398 211 -403Q206 -408 201 -404Q182 -399 178 -395Q166 -392 154 -384Q139 -394 124 -394Q111 -396 97 -399Q95 -403 97 -404Q102 -405 106 -408Q162 -432 184 -438Q190 -442 199 -444Q207 -446 211 -453Q213 -468 211 -481Q205 -495 213 -510Q214 -512 213 -516Q212 -520 214 -522Q214 -546 213 -571Q213 -585 208 -598Q206 -622 194 -629Q187 -634 184 -637Q179 -642 185 -646ZM809 -536Q811 -534 814 -534Q819 -534 820 -532Q828 -532 837 -533Q845 -533 853 -528Q858 -519 863 -511Q863 -503 866 -470Q866 -456 869 -448Q866 -443 867 -432Q868 -420 865 -416Q867 -410 867 -404Q867 -398 872 -394Q875 -390 883 -391Q888 -391 892 -390Q903 -391 913 -393Q925 -393 926 -389Q921 -392 921 -385Q921 -377 926 -381Q928 -379 927 -378Q923 -377 923 -374Q920 -368 925 -363Q925 -361 921 -361Q914 -362 911 -354Q901 -353 891 -352Q881 -352 874 -346Q867 -344 867 -338Q867 -332 864 -327Q866 -322 864 -307Q863 -298 864 -292Q862 -289 864 -280Q865 -275 864 -272Q865 -234 861 -197Q863 -179 865 -161Q867 -158 866 -150Q865 -141 869 -138Q867 -134 868 -128Q869 -119 865 -116Q861 -114 864 -109Q867 -104 866 -101Q866 -85 862 -78L861 -72Q859 -67 858 -67Q854 -66 849 -65Q845 -64 842 -60Q846 -55 843 -52Q839 -49 837 -45Q837 -41 835 -41Q832 -41 828 -39Q829 -35 824 -34Q821 -33 817 -34Q811 -38 795 -52Q790 -54 787 -63Q783 -74 775 -73Q774 -81 768 -85Q762 -90 756 -95Q749 -97 747 -107Q757 -102 787 -96Q792 -97 801 -95Q809 -94 809 -101Q817 -113 813 -119Q814 -124 811 -124Q808 -124 805 -125Q809 -147 810 -171Q810 -190 815 -215Q810 -219 813 -228Q814 -227 815 -227Q815 -230 817 -234Q816 -236 818 -239Q821 -244 819 -246Q811 -253 817 -262Q817 -270 817 -278Q818 -286 818 -294Q818 -310 817 -326Q817 -332 809 -332Q801 -332 798 -330Q777 -327 756 -324Q751 -320 746 -319Q725 -314 709 -319Q689 -319 672 -334Q667 -341 679 -341Q694 -341 729 -352Q745 -359 766 -361Q770 -362 774 -364Q794 -368 812 -375Q818 -374 818 -378Q818 -383 819 -387Q818 -428 817 -470Q816 -486 810 -503Q800 -509 781 -512Q777 -515 778 -518Q778 -522 783 -522Q791 -528 809 -536ZM738 -245Q744 -243 750 -242Q753 -244 756 -234Q755 -228 752 -223Q747 -210 723 -214Q711 -215 699 -220Q692 -221 673 -228Q670 -230 672 -232Q677 -234 681 -236Q696 -238 710 -241Q724 -243 738 -245Z"/>
</svg>