<svg xmlns="http://www.w3.org/2000/svg" viewBox="0 -800 1024 1024">
	<path fill="#000000" d="M483 -662Q508 -662 513 -659Q519 -661 523 -656Q527 -652 531 -648Q535 -647 536 -638Q537 -630 541 -627Q544 -621 539 -616Q533 -611 531 -607Q528 -605 524 -596Q521 -588 516 -586Q512 -586 509 -580Q507 -574 504 -574Q496 -576 493 -568Q489 -558 486 -556Q478 -548 469 -545Q463 -545 460 -539Q457 -533 463 -530Q474 -529 488 -538Q496 -538 507 -542Q521 -547 527 -547Q544 -550 560 -553Q568 -553 577 -554Q585 -555 591 -549Q592 -546 599 -544Q605 -542 607 -538Q606 -531 595 -528Q586 -525 583 -522Q575 -517 567 -513Q555 -513 541 -504Q537 -501 531 -498Q525 -496 524 -490Q543 -478 549 -459Q559 -451 559 -442Q563 -431 558 -421Q555 -416 561 -408Q566 -401 565 -395Q563 -383 561 -371Q556 -365 558 -357Q559 -350 558 -342Q553 -327 554 -310Q554 -298 550 -288Q549 -282 556 -286Q570 -293 571 -288Q570 -274 556 -261Q549 -261 551 -253Q552 -245 555 -237Q556 -222 556 -208Q554 -205 554 -195Q554 -187 551 -183Q551 -151 552 -145Q553 -132 551 -117Q553 -104 550 -89Q550 -64 549 -39Q552 -32 547 -28Q543 -23 541 -17Q541 -7 535 -5Q529 -6 525 5Q523 9 519 8Q515 7 514 3Q509 -5 503 -12Q497 -19 495 -27Q488 -37 488 -47Q479 -56 488 -71Q488 -98 489 -103Q491 -108 491 -121Q491 -137 495 -144Q491 -157 495 -168Q499 -193 496 -216Q493 -220 497 -226Q500 -231 498 -234Q489 -233 480 -224Q464 -217 429 -182Q415 -171 406 -156Q399 -155 390 -144Q383 -146 377 -136Q373 -129 369 -129Q351 -143 335 -157Q323 -163 329 -166Q332 -164 344 -162Q362 -159 378 -177Q381 -183 371 -193Q362 -201 354 -219Q351 -230 348 -241Q350 -245 347 -252Q344 -259 346 -262Q352 -270 348 -274Q339 -283 350 -291Q356 -301 349 -309Q350 -312 354 -316Q359 -321 359 -325Q353 -333 359 -347Q364 -368 368 -390Q370 -399 372 -408Q371 -413 373 -425Q375 -437 372 -444Q365 -451 345 -458Q340 -463 333 -463Q326 -463 320 -464Q316 -465 317 -468Q320 -472 325 -472Q342 -482 366 -491Q369 -494 380 -497Q392 -501 397 -506Q401 -519 412 -528Q429 -552 445 -576Q449 -579 452 -589Q453 -594 456 -598Q460 -609 457 -619Q453 -624 444 -621Q437 -618 434 -620Q428 -632 417 -635Q406 -638 396 -642Q400 -648 408 -649Q415 -650 422 -651Q437 -654 451 -657Q456 -661 467 -660Q478 -659 483 -662ZM758 -649Q771 -650 782 -643Q786 -639 792 -635Q798 -631 800 -625Q799 -621 802 -613Q805 -604 803 -599Q788 -588 781 -567Q774 -559 767 -530Q763 -522 764 -515Q762 -502 770 -491Q791 -477 815 -465Q829 -462 847 -451Q855 -452 860 -446Q864 -439 870 -433Q876 -422 881 -411Q885 -408 883 -399Q882 -392 883 -388Q891 -378 887 -371Q883 -360 885 -350L883 -314Q877 -296 861 -262Q850 -255 847 -242L844 -233Q843 -230 842 -228Q831 -212 819 -196Q809 -184 798 -173Q785 -167 780 -153Q778 -149 788 -144Q794 -149 808 -147Q826 -147 835 -144Q839 -147 846 -144Q852 -141 855 -141Q864 -138 875 -137Q885 -136 894 -129Q905 -130 914 -122Q921 -119 928 -112Q935 -112 937 -106Q940 -98 935 -92Q934 -86 920 -81Q915 -76 907 -78Q906 -78 895 -83Q891 -84 886 -82Q880 -80 877 -81Q869 -89 859 -90Q850 -91 841 -95Q818 -101 794 -104Q779 -106 764 -109Q749 -115 735 -106Q709 -108 703 -99Q698 -93 685 -93Q675 -93 672 -91Q669 -96 673 -99Q677 -103 681 -105Q684 -109 691 -113Q698 -117 693 -123Q678 -130 663 -129Q641 -135 618 -142Q613 -143 583 -154Q566 -159 567 -175Q568 -181 573 -179Q577 -177 581 -172Q594 -169 611 -169Q626 -168 640 -167Q661 -164 681 -161Q688 -162 710 -158Q719 -156 729 -155Q740 -154 746 -162Q757 -188 772 -211Q790 -238 803 -267Q814 -291 820 -317Q820 -330 822 -340Q824 -352 824 -362Q824 -370 822 -382Q824 -413 804 -428Q793 -435 781 -437Q768 -443 755 -450Q725 -467 723 -505Q716 -520 714 -535Q714 -566 720 -595Q720 -605 715 -605Q708 -602 698 -593Q689 -584 684 -582Q675 -573 665 -573Q661 -575 656 -578Q652 -581 654 -585Q661 -596 682 -608Q693 -615 704 -623Q713 -629 720 -638Q728 -646 740 -645Q742 -646 758 -649ZM197 -597Q203 -598 213 -595Q225 -593 237 -591Q250 -589 258 -578Q257 -573 245 -567Q234 -562 231 -555Q224 -555 212 -549Q208 -545 204 -545Q199 -545 191 -550Q183 -555 179 -555Q169 -559 158 -562Q148 -564 142 -573Q142 -589 154 -594Q174 -588 197 -597ZM493 -486Q470 -484 463 -478Q446 -472 431 -465Q420 -463 418 -451Q420 -439 417 -424Q413 -413 420 -403Q422 -402 421 -398Q420 -393 423 -391Q436 -391 449 -391Q468 -391 477 -389Q481 -387 486 -385Q491 -382 491 -376Q488 -374 486 -360Q484 -346 471 -348Q464 -348 456 -348Q450 -349 443 -350Q429 -353 417 -352Q410 -352 408 -346Q406 -341 405 -335Q400 -316 395 -298Q404 -293 415 -299Q430 -302 445 -305Q451 -307 477 -307Q485 -303 487 -293Q489 -283 480 -279Q468 -273 456 -274Q441 -272 426 -270Q418 -268 410 -271Q402 -273 398 -265Q399 -260 397 -252Q394 -241 396 -236Q398 -231 397 -225Q395 -218 402 -214Q411 -219 420 -224Q439 -234 458 -245Q467 -248 477 -256Q487 -263 497 -259Q504 -263 504 -278Q502 -299 507 -318Q504 -324 506 -338Q507 -349 506 -355Q508 -366 509 -378Q509 -391 511 -402Q512 -425 509 -445Q507 -459 504 -474Q498 -488 493 -486ZM177 -455Q179 -455 181 -450Q176 -442 189 -436Q194 -425 198 -415Q193 -377 191 -373Q186 -368 184 -357Q182 -348 181 -345Q180 -333 181 -318Q173 -304 173 -296Q176 -287 172 -268Q167 -262 168 -254Q169 -245 167 -237Q161 -231 164 -224Q166 -217 167 -210Q165 -199 163 -189Q166 -164 166 -162Q167 -160 167 -139Q175 -122 191 -125Q209 -140 227 -155Q249 -179 267 -203Q271 -211 277 -215Q277 -208 277 -201Q272 -188 278 -177Q280 -171 272 -162Q265 -154 265 -148Q267 -131 253 -120Q241 -98 228 -90Q223 -80 201 -73Q164 -84 141 -106Q124 -121 118 -140Q116 -160 113 -181Q111 -194 114 -206Q111 -219 117 -231Q117 -244 117 -257Q121 -283 122 -296Q126 -313 129 -330Q130 -344 133 -357Q136 -381 146 -399Q145 -417 157 -431Q166 -444 177 -455Z"/>
</svg>