<svg xmlns="http://www.w3.org/2000/svg" viewBox="0 -800 1024 1024">
	<path fill="#000000" d="M550 -768Q557 -770 561 -766Q571 -759 586 -760Q600 -764 609 -745Q608 -741 612 -735Q617 -729 617 -726L612 -708Q613 -705 605 -695Q591 -680 579 -664Q576 -657 569 -652Q562 -648 556 -642Q556 -637 561 -638Q565 -638 569 -638Q580 -636 590 -635Q597 -637 604 -632Q611 -627 612 -619Q614 -603 599 -598Q595 -595 574 -590Q568 -587 557 -586Q544 -585 540 -582Q527 -581 514 -580Q509 -579 503 -579Q495 -579 495 -571Q474 -570 453 -570Q438 -570 415 -573Q409 -570 398 -573Q389 -575 384 -574Q379 -570 370 -574Q362 -578 357 -576Q340 -584 322 -593Q314 -595 315 -601Q315 -603 320 -603Q332 -602 346 -605Q361 -606 376 -605Q389 -607 402 -610Q414 -614 428 -614Q437 -618 447 -620Q457 -622 465 -630Q467 -635 479 -647Q491 -658 500 -671Q508 -684 517 -696Q526 -715 535 -734Q536 -740 531 -741Q528 -742 522 -741Q506 -738 488 -738Q483 -737 481 -739Q479 -742 484 -744Q499 -752 514 -755Q518 -758 530 -759Q545 -761 550 -768ZM361 -738H362Q369 -739 369 -733Q370 -726 372 -719Q372 -711 377 -699Q379 -694 384 -696Q388 -699 393 -700Q408 -706 423 -713Q419 -705 411 -698Q406 -695 400 -689Q392 -680 388 -679Q383 -680 380 -675Q377 -670 378 -665Q379 -652 367 -651Q362 -651 359 -656Q332 -676 328 -692Q327 -707 343 -729Q347 -736 361 -738ZM449 -432L445 -425Q439 -417 433 -409Q433 -406 426 -400Q419 -393 418 -389Q414 -387 409 -382Q402 -375 397 -374Q386 -352 377 -347Q367 -337 366 -330L341 -299Q321 -286 303 -276Q303 -270 290 -265Q281 -261 278 -256Q270 -254 262 -246Q244 -246 228 -235Q214 -228 210 -228Q205 -228 201 -232Q221 -242 228 -253Q245 -263 257 -276Q270 -288 283 -299Q299 -320 345 -377Q362 -399 379 -422Q387 -430 389 -433Q392 -438 396 -445Q401 -451 395 -456Q391 -458 385 -455Q380 -452 378 -453Q359 -453 351 -449Q331 -447 322 -449Q306 -452 293 -448Q281 -448 268 -449Q262 -450 254 -449Q247 -449 245 -454Q244 -467 258 -468Q274 -472 289 -476Q308 -480 329 -482Q349 -486 391 -494Q404 -497 416 -501L421 -505Q422 -513 424 -522Q425 -530 417 -536Q412 -540 405 -543Q392 -548 390 -553Q393 -551 405 -554Q412 -554 422 -555Q431 -556 439 -551Q457 -550 474 -541Q488 -536 484 -519Q484 -517 482 -513Q495 -515 508 -517Q528 -521 539 -523Q564 -526 588 -530Q596 -537 611 -531Q624 -531 636 -531Q642 -533 645 -529Q649 -525 653 -522Q657 -522 658 -517Q659 -513 660 -509Q662 -503 657 -500Q653 -497 650 -493Q647 -486 638 -482Q626 -488 620 -481Q600 -482 580 -479Q573 -480 563 -477Q550 -474 544 -475Q531 -472 518 -470Q506 -467 493 -465Q487 -466 481 -467Q476 -469 472 -462Q467 -446 449 -432ZM610 -425L617 -424Q621 -422 637 -422Q658 -421 676 -401Q677 -397 677 -373Q679 -361 668 -351Q660 -332 646 -323Q636 -311 629 -302Q626 -296 617 -292Q610 -289 608 -287Q606 -286 601 -270Q596 -267 597 -262Q597 -257 596 -252Q591 -248 586 -243Q582 -237 575 -237Q570 -239 563 -235Q556 -231 552 -232L519 -230L505 -226Q476 -225 451 -218Q444 -214 436 -217Q429 -220 421 -220Q412 -224 398 -238Q398 -241 396 -247Q392 -256 397 -258Q405 -262 396 -274Q394 -288 397 -301Q402 -315 407 -329Q417 -348 426 -367Q427 -379 433 -388Q435 -391 436 -396Q437 -400 441 -401Q448 -403 450 -397Q453 -392 456 -387Q457 -379 469 -388Q509 -404 531 -408Q555 -416 568 -418Q588 -422 610 -425ZM613 -386Q609 -386 608 -385Q591 -385 576 -380Q563 -376 549 -373Q539 -371 531 -367Q522 -362 501 -363Q482 -364 475 -361Q464 -361 466 -343Q463 -337 463 -328Q464 -323 457 -318Q450 -313 451 -308Q445 -297 449 -275Q451 -270 446 -265Q440 -259 441 -255Q449 -251 458 -257Q474 -261 489 -265Q498 -268 507 -272Q515 -271 538 -278Q547 -278 552 -285Q558 -292 564 -297Q579 -317 594 -337Q596 -340 616 -377Q616 -378 617 -380Q617 -387 613 -386ZM807 -270H813Q825 -269 837 -268Q854 -269 878 -256Q880 -253 888 -249Q896 -245 899 -240Q900 -230 901 -221Q893 -207 892 -197Q890 -191 881 -189Q870 -187 869 -181Q865 -171 857 -170Q853 -165 839 -161Q830 -156 820 -152Q817 -149 810 -151Q804 -153 802 -151Q789 -152 776 -153Q774 -160 780 -164Q786 -168 791 -172Q812 -195 821 -214Q822 -219 819 -222Q817 -225 813 -223Q798 -219 784 -213Q765 -207 745 -201Q715 -191 684 -181Q666 -172 648 -164Q643 -163 637 -156Q629 -146 622 -148Q618 -147 615 -139Q612 -131 607 -131Q603 -134 598 -130Q593 -126 590 -128Q572 -136 557 -148Q536 -169 549 -184Q553 -193 555 -203Q567 -203 577 -191Q583 -184 593 -184Q602 -184 614 -190Q638 -205 666 -216Q722 -242 751 -255Q773 -264 783 -262Q787 -262 787 -264Q786 -266 781 -267Q794 -268 807 -270ZM362 -182Q362 -178 366 -179Q371 -181 374 -185Q377 -188 378 -187Q380 -183 380 -178Q385 -174 384 -165Q384 -159 386 -155Q383 -146 383 -137Q383 -127 374 -122Q372 -118 364 -110Q354 -100 353 -93Q355 -83 343 -75Q341 -69 331 -66Q322 -64 319 -59Q312 -49 297 -54Q288 -59 284 -72Q281 -83 277 -94Q285 -102 279 -119Q276 -124 282 -127Q287 -130 287 -132Q295 -141 309 -145Q310 -149 313 -149Q317 -149 318 -150Q331 -154 338 -163Q343 -162 349 -170Q354 -176 358 -176ZM420 -180Q421 -171 433 -166Q437 -162 447 -157Q457 -152 461 -147Q462 -143 467 -142Q472 -141 473 -138Q472 -124 486 -106Q490 -96 504 -86Q506 -85 527 -72Q548 -61 570 -56Q598 -46 627 -40Q705 -33 727 -32Q747 -27 763 -33Q765 -40 761 -53Q758 -64 758 -69Q750 -96 742 -124Q741 -131 745 -120Q754 -106 767 -94Q771 -94 774 -84Q776 -76 782 -77Q798 -53 810 -33L843 -21Q853 -16 863 -11Q873 -7 874 4Q871 12 883 24Q879 34 869 34Q860 35 852 38Q849 36 842 38Q837 40 833 38Q824 37 814 36Q807 32 793 33Q779 34 773 32Q770 34 762 32Q756 30 752 32Q737 31 722 30Q710 30 697 29Q672 27 647 25Q621 20 594 15Q570 9 546 2Q517 -7 483 -32Q473 -38 467 -50Q460 -61 453 -71Q451 -78 446 -86Q439 -99 431 -113Q430 -127 423 -140Q422 -151 419 -161Q416 -171 420 -180Z"/>
</svg>