<svg xmlns="http://www.w3.org/2000/svg" viewBox="0 -800 1024 1024">
	<path fill="#000000" d="M229 -677Q240 -672 253 -671Q266 -666 278 -662Q283 -659 284 -653Q285 -647 288 -641Q290 -618 288 -599Q289 -584 283 -573Q284 -558 281 -543Q286 -533 280 -524Q283 -515 282 -501Q293 -498 303 -495Q311 -495 313 -489Q319 -478 311 -471Q306 -466 294 -464Q284 -459 282 -449Q281 -439 279 -430Q285 -427 281 -417Q278 -408 281 -403Q281 -385 280 -367Q279 -364 279 -360Q280 -358 282 -359Q301 -372 322 -379Q323 -374 314 -368Q307 -363 306 -361Q309 -352 301 -346Q293 -340 288 -332Q276 -319 278 -286Q280 -282 277 -274Q275 -266 278 -261Q277 -250 280 -235Q281 -232 279 -225Q276 -216 279 -211Q275 -207 278 -196Q280 -188 279 -183Q276 -180 277 -170Q278 -160 274 -156Q281 -137 271 -122Q272 -120 270 -116Q268 -111 271 -108Q273 -94 266 -84Q271 -77 269 -62Q264 -56 267 -50Q271 -45 271 -38Q270 -31 260 -31Q251 -31 248 -39Q243 -38 241 -42Q239 -46 236 -47Q229 -40 227 -47Q225 -54 208 -83Q215 -105 208 -116Q208 -122 213 -118Q222 -110 225 -113Q227 -129 228 -146Q227 -156 229 -179Q232 -204 234 -230Q237 -253 234 -275Q226 -272 222 -266Q194 -246 165 -227Q148 -212 130 -200Q119 -185 110 -182Q107 -181 104 -172Q102 -165 95 -166Q92 -171 88 -169Q83 -167 81 -168Q76 -175 71 -183Q72 -199 63 -209Q56 -212 66 -225Q74 -222 80 -227Q87 -232 94 -235Q143 -269 191 -300Q212 -316 235 -331Q238 -352 235 -371Q236 -402 237 -434Q238 -440 235 -443Q232 -446 227 -442Q214 -440 208 -441Q199 -435 192 -434Q173 -438 153 -442Q139 -449 128 -451Q137 -454 147 -456Q157 -458 165 -464Q180 -468 218 -487Q229 -492 240 -497Q243 -504 240 -515Q241 -547 243 -580Q244 -613 237 -643Q226 -655 209 -660Q207 -655 202 -658Q197 -663 203 -667Q207 -671 217 -672Q226 -673 229 -677ZM487 -620Q489 -620 491 -620Q498 -616 515 -617Q525 -618 532 -616Q540 -617 548 -618Q564 -621 580 -619Q583 -621 587 -618Q591 -615 594 -619Q603 -620 611 -616Q617 -618 635 -611Q641 -609 641 -604Q641 -603 639 -603L638 -604Q635 -607 635 -599Q635 -593 638 -598Q641 -597 642 -596Q644 -594 641 -590Q644 -587 642 -585Q639 -584 635 -583Q628 -582 626 -577Q624 -572 623 -566Q590 -562 549 -579Q540 -586 526 -591Q511 -603 493 -613Q493 -615 491 -616Q486 -618 487 -620ZM692 -562L702 -560Q713 -559 725 -561Q738 -564 747 -557Q751 -562 757 -559Q762 -557 767 -556Q772 -543 766 -539Q765 -535 760 -535Q755 -535 754 -532Q756 -525 749 -523Q741 -520 740 -517Q740 -514 738 -514Q733 -515 731 -514Q727 -511 711 -510Q703 -510 698 -508Q690 -505 671 -505Q655 -505 645 -502Q615 -499 585 -496Q571 -494 557 -492Q549 -491 542 -489Q534 -487 526 -490Q520 -489 513 -489Q514 -470 497 -453Q487 -434 482 -414Q481 -406 480 -399Q479 -387 478 -376Q476 -361 473 -346Q471 -336 485 -342Q497 -346 511 -349Q555 -356 582 -367Q589 -366 589 -377Q580 -389 570 -393Q568 -396 570 -397Q575 -397 577 -398Q613 -387 621 -383Q632 -379 657 -388Q666 -389 676 -394Q680 -400 676 -406Q671 -413 665 -413Q660 -413 659 -409Q661 -414 668 -419Q681 -421 695 -418Q708 -415 721 -413Q738 -409 755 -409Q768 -414 786 -414Q797 -410 796 -401Q795 -395 797 -395Q801 -395 808 -397Q810 -391 799 -384Q798 -379 789 -377Q779 -375 779 -369Q769 -364 763 -365Q751 -361 738 -358Q738 -356 736 -354L732 -345Q731 -343 730 -341Q730 -328 730 -316Q729 -309 729 -250Q724 -243 725 -227Q726 -212 723 -207Q710 -204 704 -192Q701 -186 695 -186Q683 -186 677 -200Q675 -200 655 -194Q641 -198 626 -198Q625 -193 619 -193Q614 -193 613 -191Q603 -184 594 -193Q587 -199 581 -216Q576 -229 571 -235L580 -266Q581 -277 584 -292Q587 -304 587 -318Q588 -325 583 -325Q577 -325 572 -326Q566 -323 548 -323Q535 -318 514 -328Q499 -337 480 -338Q473 -340 471 -331Q472 -326 468 -317Q465 -310 465 -305L457 -278Q455 -263 446 -249Q447 -241 444 -232Q442 -229 439 -207Q434 -203 433 -192Q432 -180 427 -177Q424 -164 420 -151Q416 -149 416 -142Q416 -137 414 -135Q411 -134 409 -127Q408 -123 405 -121Q404 -109 399 -97Q395 -96 394 -86Q394 -78 390 -77Q390 -68 383 -59Q385 -52 376 -46Q369 -42 368 -38Q363 -35 360 -26Q357 -19 355 -17Q345 -14 345 -12Q340 -14 333 -14Q323 -14 319 -17Q313 -33 306 -49Q301 -58 308 -68Q314 -78 318 -86Q326 -98 329 -111Q335 -119 345 -141Q368 -186 387 -235Q397 -266 407 -298Q412 -311 424 -365Q429 -390 433 -416Q433 -440 449 -474Q448 -491 463 -499Q467 -503 463 -506Q459 -509 461 -511Q479 -511 493 -515Q530 -525 568 -533Q617 -539 673 -555Q683 -558 692 -562ZM667 -344Q663 -344 657 -342Q648 -343 645 -334Q641 -321 640 -320Q636 -309 637 -300V-286Q632 -272 634 -257Q632 -239 632 -224Q638 -221 645 -224Q652 -227 660 -229Q666 -231 663 -240Q661 -247 663 -250Q670 -286 673 -326Q674 -333 674 -342Q673 -346 667 -344ZM526 -145Q527 -140 522 -134Q520 -124 531 -104Q516 -94 520 -79Q524 -71 515 -51Q520 -44 517 -36Q514 -28 505 -27Q493 -19 485 -35Q478 -42 475 -53Q464 -69 464 -86Q476 -95 479 -102Q481 -111 487 -116Q493 -121 499 -128Q502 -136 510 -140Q511 -141 526 -145ZM593 -128Q600 -125 606 -122Q607 -121 636 -108Q646 -91 641 -79Q644 -66 622 -60Q619 -56 616 -55Q612 -54 610 -60Q606 -58 602 -63Q600 -65 597 -72Q578 -90 588 -112Q591 -114 591 -120Q591 -126 593 -128ZM873 -127H881Q884 -123 890 -125Q895 -126 897 -125Q899 -124 907 -124Q916 -126 920 -121Q924 -117 930 -115Q937 -118 942 -111Q946 -105 951 -102Q950 -99 952 -94Q955 -88 953 -85Q948 -84 948 -69Q952 -58 943 -49Q933 -47 931 -41Q930 -37 920 -37Q919 -31 907 -22Q904 -18 899 -19Q887 -11 873 -7Q867 -8 850 -3Q844 1 839 -2Q834 -5 839 -10Q861 -38 874 -65Q883 -72 883 -82Q882 -89 872 -88Q862 -88 852 -88Q830 -90 818 -84Q808 -83 800 -80Q793 -79 784 -75Q771 -69 766 -69Q763 -63 753 -61Q744 -59 742 -56Q733 -50 726 -42Q723 -50 712 -56Q712 -64 705 -71Q698 -78 698 -89Q698 -99 698 -110Q695 -113 696 -114Q701 -116 707 -114Q730 -110 744 -96Q761 -103 777 -110Q810 -122 835 -122Q840 -125 855 -125Q867 -125 873 -127Z"/>
</svg>