<svg xmlns="http://www.w3.org/2000/svg" viewBox="0 -800 1024 1024">
	<path fill="#000000" d="M343 -336Q342 -341 347 -345Q355 -350 356 -352Q355 -358 362 -367Q366 -373 367 -377Q370 -379 372 -386Q374 -392 378 -394Q384 -398 393 -414Q415 -450 432 -464Q436 -472 442 -473Q444 -473 444 -469Q442 -464 448 -457Q454 -451 453 -446Q450 -438 461 -436Q476 -439 480 -443Q484 -469 482 -496Q482 -504 483 -512Q484 -520 479 -526Q459 -530 443 -540Q440 -542 436 -544Q432 -547 435 -550Q457 -553 478 -557Q487 -561 489 -574Q490 -578 491 -596Q491 -608 491 -621Q489 -633 484 -643Q481 -649 475 -653Q473 -656 477 -658Q485 -654 499 -654Q529 -645 537 -632Q539 -623 543 -615Q547 -607 546 -596Q546 -591 544 -587Q542 -583 547 -579Q562 -581 576 -584Q579 -586 587 -587Q597 -588 601 -592Q601 -617 601 -643Q601 -653 601 -663Q598 -689 588 -701Q584 -705 588 -708Q592 -711 596 -712Q600 -713 608 -709Q614 -705 619 -706Q628 -711 642 -704Q647 -698 653 -692Q659 -687 658 -677Q656 -672 658 -656Q658 -641 657 -633Q656 -617 655 -601Q655 -593 663 -592Q671 -591 679 -591Q681 -590 688 -591Q696 -593 700 -589Q703 -585 713 -579Q724 -573 728 -566Q738 -562 742 -544Q747 -538 743 -531Q739 -525 736 -518Q729 -506 716 -500Q706 -503 704 -494Q700 -490 696 -486Q689 -484 689 -474Q689 -465 686 -463Q682 -462 676 -456Q670 -450 666 -451Q654 -455 650 -444Q645 -439 646 -433Q648 -427 647 -421Q648 -408 648 -380Q645 -374 651 -370Q657 -366 663 -370Q668 -374 679 -374Q688 -374 692 -376Q692 -381 696 -380Q700 -379 704 -378Q710 -378 714 -380Q714 -381 712 -382Q706 -383 712 -385Q718 -384 728 -387Q738 -390 743 -390Q748 -389 758 -392Q767 -395 774 -394Q788 -391 806 -392Q828 -388 849 -381Q885 -370 899 -342Q899 -331 906 -324Q909 -322 908 -316Q907 -310 909 -307Q911 -298 909 -278Q905 -268 904 -257Q904 -251 895 -245Q888 -240 886 -235Q887 -228 879 -218Q875 -209 862 -200Q849 -190 845 -185Q825 -172 807 -158Q785 -141 778 -137Q766 -137 760 -127Q757 -124 748 -123Q741 -122 738 -119Q727 -108 723 -107Q718 -105 711 -113Q705 -120 701 -120Q695 -125 682 -129Q670 -133 665 -137Q648 -147 658 -152Q663 -155 671 -150Q678 -146 684 -147Q694 -155 708 -158Q765 -192 782 -211Q790 -219 797 -228Q808 -231 814 -241Q822 -246 836 -267Q842 -282 847 -298Q852 -314 847 -330Q829 -352 792 -350Q758 -345 751 -341Q727 -336 704 -329Q693 -328 673 -322Q658 -324 650 -316Q643 -303 644 -285Q641 -271 641 -255Q641 -243 641 -232Q650 -221 642 -201Q647 -182 647 -178Q647 -163 646 -149Q647 -137 647 -125Q646 -96 650 -65Q640 -47 645 -34Q646 -25 644 -14Q640 27 637 45Q633 48 631 56Q629 66 624 68Q620 70 617 75Q612 83 608 81Q600 80 593 69Q587 59 582 57Q575 54 578 48Q587 32 579 11Q579 -8 582 -16Q580 -21 583 -43Q582 -71 585 -99Q584 -111 587 -122Q587 -164 587 -206Q587 -216 587 -226Q586 -246 589 -269Q590 -279 591 -290Q592 -296 586 -297Q582 -298 577 -295Q556 -294 537 -285Q534 -284 528 -284Q520 -285 518 -279Q512 -261 512 -231Q505 -220 509 -208Q501 -187 501 -166Q498 -154 498 -141Q497 -133 494 -124Q491 -116 494 -107Q493 -104 488 -88Q488 -78 469 -78Q460 -81 454 -88Q448 -95 442 -101Q435 -111 428 -122Q429 -125 426 -133Q424 -139 426 -143Q438 -153 438 -164Q445 -184 446 -189Q446 -213 451 -235Q450 -248 453 -263Q450 -269 442 -267Q440 -266 431 -262Q419 -259 409 -264Q378 -271 371 -275Q356 -282 349 -296Q340 -313 343 -336ZM236 -584H242Q255 -583 268 -582Q286 -582 295 -574Q300 -568 303 -560Q294 -541 273 -540Q265 -537 258 -541Q252 -546 246 -549Q230 -555 214 -562Q211 -564 207 -565Q199 -566 199 -570Q202 -575 211 -575Q214 -576 217 -578L230 -581Q233 -582 236 -584ZM664 -537Q655 -533 651 -527Q646 -507 650 -500Q662 -509 668 -523Q673 -527 672 -533Q670 -540 664 -537ZM586 -528H576Q565 -527 554 -526Q541 -528 539 -516Q532 -504 535 -490Q537 -480 534 -467Q534 -459 547 -466Q564 -473 584 -476Q595 -474 598 -484Q600 -503 597 -520Q598 -525 593 -528Q589 -531 586 -528ZM581 -429Q563 -429 545 -419Q539 -420 535 -416Q530 -412 530 -406Q528 -387 526 -368Q526 -355 523 -341Q523 -333 531 -333Q537 -333 547 -338Q567 -344 586 -350Q591 -349 595 -357Q595 -376 595 -396Q596 -405 597 -415Q598 -423 593 -428Q588 -433 581 -429ZM389 -319Q381 -311 375 -301Q379 -294 387 -295Q396 -297 403 -298Q408 -301 432 -306Q440 -309 459 -311Q469 -312 469 -330Q471 -361 472 -393Q474 -397 471 -401Q467 -405 464 -402Q457 -402 452 -398Q441 -400 437 -386Q436 -375 428 -365Q429 -356 419 -350Q404 -334 389 -319ZM313 -239Q309 -230 308 -228Q309 -223 304 -214Q300 -207 300 -202Q298 -190 296 -178Q296 -164 292 -151Q285 -142 283 -135Q278 -133 276 -119Q274 -116 272 -113L266 -100Q264 -96 262 -94Q258 -83 247 -78Q241 -79 238 -74Q234 -70 231 -66Q223 -54 208 -66Q180 -73 166 -88Q154 -97 151 -110Q149 -122 145 -134Q140 -148 140 -161Q147 -181 142 -189Q138 -196 140 -202Q143 -209 144 -216Q134 -230 142 -239Q147 -244 143 -251Q139 -259 142 -262Q150 -274 149 -288Q153 -304 157 -320Q160 -341 170 -360Q179 -379 188 -398Q190 -403 196 -400Q197 -399 205 -393Q209 -386 215 -380Q221 -373 221 -364Q220 -359 222 -351Q225 -338 221 -332L209 -312Q204 -308 202 -296Q203 -289 199 -276Q195 -263 196 -254Q197 -241 191 -229Q191 -185 192 -176Q191 -163 193 -148Q193 -139 193 -131Q195 -122 200 -112Q209 -96 222 -100Q241 -123 259 -146Q266 -157 272 -169L296 -217Q308 -238 309 -240Q311 -244 313 -249Q313 -244 313 -239Z"/>
</svg>