<svg xmlns="http://www.w3.org/2000/svg" viewBox="0 -800 1024 1024">
	<path fill="#000000" d="M260 -746Q271 -742 282 -739Q292 -732 293 -720Q294 -708 295 -696Q293 -652 289 -642Q286 -636 287 -621Q288 -609 286 -604Q286 -600 286 -597V-582Q286 -578 286 -575Q286 -564 286 -554Q282 -538 290 -509Q288 -503 294 -499Q300 -494 304 -499Q309 -499 357 -507Q364 -507 373 -506Q381 -505 380 -497Q378 -489 378 -483Q378 -477 372 -472Q369 -474 367 -470Q365 -466 363 -466Q359 -465 354 -464L338 -460Q334 -459 329 -458Q323 -459 302 -454Q294 -455 293 -448Q292 -442 294 -437Q291 -416 288 -395Q286 -361 282 -351Q281 -342 294 -349Q309 -356 323 -364Q327 -363 334 -369Q341 -374 344 -374Q346 -374 349 -371Q354 -368 356 -372Q358 -377 360 -381Q362 -380 363 -381Q364 -385 367 -385Q369 -389 377 -390Q383 -391 385 -393Q384 -389 378 -383Q371 -376 370 -371Q367 -369 364 -361Q360 -351 354 -351Q351 -339 339 -334Q334 -327 322 -319Q309 -310 305 -302Q277 -288 282 -274Q284 -209 282 -176Q280 -169 280 -156Q281 -137 275 -132Q273 -127 271 -110Q269 -90 263 -81Q258 -80 258 -69Q258 -60 253 -59Q244 -57 240 -67Q241 -72 239 -74Q237 -76 233 -74Q220 -83 224 -95Q217 -108 203 -136Q197 -149 186 -156Q175 -164 165 -172Q160 -181 150 -181Q142 -181 141 -174Q129 -162 115 -163Q110 -164 107 -172Q104 -179 102 -181Q101 -186 93 -190Q84 -194 84 -200Q79 -212 88 -219Q95 -225 102 -231Q105 -231 105 -233Q104 -238 108 -238Q111 -235 116 -238Q120 -240 125 -241Q142 -253 158 -266Q191 -290 226 -309Q238 -316 239 -327Q239 -339 239 -351Q242 -384 245 -417Q243 -420 243 -428Q243 -437 240 -440Q195 -434 193 -434Q185 -433 177 -433Q167 -428 152 -427Q147 -423 134 -426Q125 -428 120 -427Q111 -428 95 -437L115 -444Q144 -451 172 -459Q177 -458 187 -463Q193 -466 198 -466Q203 -468 218 -472Q235 -476 244 -482Q244 -503 244 -524Q244 -538 244 -553Q243 -564 242 -575Q242 -577 245 -649Q247 -652 244 -659Q241 -665 244 -668Q242 -676 243 -690Q244 -710 240 -719Q238 -726 230 -724Q224 -723 221 -726Q220 -735 227 -737Q234 -738 240 -740Q250 -743 260 -746ZM510 -636L515 -637Q519 -637 520 -635Q535 -637 559 -625Q584 -622 596 -600Q598 -594 600 -586Q603 -579 597 -573Q592 -562 587 -551Q589 -546 583 -540Q579 -536 579 -532Q578 -527 575 -523Q571 -518 567 -519Q557 -516 554 -507Q551 -498 548 -489Q545 -484 549 -482Q553 -481 557 -485Q570 -487 580 -494Q597 -493 610 -500Q618 -506 639 -510Q656 -513 664 -518Q719 -528 774 -531Q793 -531 808 -525Q825 -524 837 -516Q847 -515 858 -506Q865 -500 876 -488Q880 -483 879 -473Q878 -461 881 -458Q887 -436 886 -416Q885 -413 887 -407Q889 -401 886 -399Q890 -371 890 -357Q892 -351 889 -337Q887 -323 888 -317Q891 -278 885 -240Q882 -224 884 -205Q884 -193 883 -181Q881 -161 877 -142Q871 -129 870 -115Q862 -108 865 -91Q867 -78 865 -73Q861 -52 853 -34Q851 -12 842 -9Q839 -6 837 5Q836 14 831 18Q831 21 820 40Q808 45 805 51Q798 58 787 64Q787 67 786 67Q782 67 780 64Q780 59 774 53Q766 47 767 41Q764 37 760 32Q756 26 760 21Q763 22 764 20Q764 15 764 11Q765 10 767 11Q772 8 769 5Q765 2 761 2Q764 -5 774 -3Q786 0 788 -10Q790 -21 798 -41Q806 -60 808 -71Q818 -107 826 -155Q835 -238 843 -322Q836 -407 832 -428Q833 -443 827 -453Q821 -464 814 -476Q798 -477 783 -481Q779 -485 774 -485Q765 -483 755 -482Q747 -479 732 -477Q718 -475 703 -474Q697 -470 683 -470Q671 -470 666 -468Q651 -472 638 -465Q619 -459 601 -449Q588 -436 566 -442Q552 -447 532 -433Q525 -423 510 -425Q508 -423 501 -422Q492 -421 490 -416Q490 -411 487 -409Q483 -407 480 -404Q474 -402 471 -407Q467 -412 464 -416Q458 -430 449 -445Q449 -462 463 -474Q470 -488 477 -503Q485 -507 490 -515Q499 -533 504 -553Q505 -563 512 -581Q521 -603 520 -615Q510 -627 510 -636ZM502 -418L504 -417Q513 -402 526 -393Q532 -392 533 -386Q535 -380 538 -375Q528 -365 533 -358Q546 -366 564 -371Q568 -375 575 -378Q584 -381 587 -384Q590 -384 593 -388Q596 -392 597 -392Q602 -385 610 -384Q624 -378 640 -378Q660 -371 659 -361Q655 -355 651 -348Q646 -342 638 -345Q628 -343 619 -339Q618 -334 614 -333Q610 -331 606 -328Q604 -320 596 -318Q590 -308 590 -297Q594 -289 601 -290Q608 -291 615 -292Q647 -300 678 -308Q682 -313 689 -311Q696 -308 702 -307Q705 -310 715 -314Q721 -312 735 -312Q751 -313 757 -309Q762 -310 762 -306Q762 -302 759 -299Q758 -291 752 -287Q753 -283 748 -282Q743 -281 743 -279Q737 -273 723 -278Q718 -270 709 -270Q700 -270 692 -266Q684 -265 675 -265Q662 -258 647 -258L612 -245Q606 -247 604 -242Q602 -238 600 -234Q600 -211 597 -187Q594 -180 592 -161Q592 -156 591 -150Q589 -144 593 -139Q622 -142 651 -146Q655 -148 666 -147Q678 -146 683 -151Q682 -165 683 -181Q685 -196 678 -208Q675 -210 674 -211Q673 -211 673 -212Q674 -212 679 -213Q680 -218 684 -220Q688 -222 692 -219Q699 -221 704 -216Q709 -211 714 -206Q722 -206 727 -202Q733 -197 733 -189Q732 -182 734 -170Q737 -154 734 -147Q736 -123 731 -107Q727 -87 707 -88Q697 -86 687 -104Q685 -117 661 -111Q631 -104 608 -103Q604 -101 576 -96Q564 -94 552 -92Q525 -84 523 -84Q508 -78 492 -77Q479 -75 465 -74Q453 -81 441 -88Q440 -92 434 -97Q427 -102 427 -107Q416 -118 422 -140Q426 -142 426 -147Q427 -152 427 -156Q435 -172 448 -185Q448 -190 452 -193Q456 -196 455 -199Q462 -201 465 -195Q469 -189 472 -187Q480 -184 481 -178Q483 -172 484 -166Q477 -150 469 -134Q467 -117 471 -112Q508 -119 544 -127Q551 -131 548 -136Q545 -142 543 -147Q542 -160 547 -171Q550 -199 552 -228Q548 -231 539 -228Q530 -225 526 -226Q512 -221 497 -217Q480 -214 463 -211Q441 -202 420 -200Q397 -198 384 -202Q369 -212 353 -218Q355 -220 367 -226Q412 -236 457 -246Q478 -253 499 -261Q512 -262 529 -283Q538 -293 545 -304Q547 -312 540 -315Q534 -319 529 -321Q517 -318 504 -316Q495 -319 486 -323Q479 -340 471 -357Q484 -389 502 -418ZM221 -245Q217 -244 210 -237Q181 -216 164 -192Q165 -186 172 -180Q182 -172 184 -169Q193 -163 202 -157Q210 -151 213 -140Q215 -136 219 -137Q220 -138 219 -140Q223 -150 225 -166Q226 -183 228 -198V-225Q229 -235 228 -244Q227 -248 221 -245Z"/>
</svg>