<svg xmlns="http://www.w3.org/2000/svg" viewBox="0 -800 1024 1024">
	<path fill="#000000" d="M605 -597Q616 -595 626 -594Q633 -601 642 -593Q649 -597 654 -591Q665 -584 678 -574Q676 -559 684 -548Q689 -540 690 -536Q696 -537 708 -537Q725 -536 740 -540Q742 -535 747 -537Q752 -539 754 -538Q767 -543 779 -535Q787 -539 795 -531Q803 -524 796 -518Q795 -514 792 -514Q788 -514 788 -509Q798 -497 787 -490Q752 -486 735 -485Q726 -483 715 -478Q704 -476 690 -475Q672 -472 654 -469Q643 -470 637 -467Q607 -463 579 -456Q575 -458 565 -456Q559 -455 554 -456Q536 -461 518 -463Q510 -465 501 -469Q493 -473 494 -485Q500 -484 505 -483Q517 -484 536 -490Q553 -496 562 -497Q571 -499 580 -502Q597 -505 614 -511Q620 -512 626 -514Q633 -513 654 -522Q643 -524 635 -534Q630 -530 621 -536Q596 -553 579 -559Q573 -563 559 -568Q541 -575 534 -581Q526 -586 523 -592Q524 -597 528 -596Q533 -593 537 -591Q547 -590 557 -592Q569 -593 581 -594Q592 -591 605 -597ZM230 -589H232Q243 -582 253 -570Q256 -569 262 -562Q266 -557 271 -554Q275 -531 264 -513Q261 -506 261 -473Q261 -452 261 -432Q261 -427 263 -427Q271 -429 279 -433Q285 -436 292 -438Q298 -440 295 -446Q293 -452 293 -456Q294 -457 296 -456Q310 -450 324 -444Q329 -446 338 -442Q346 -438 351 -439Q375 -434 380 -431Q383 -430 388 -424Q394 -417 399 -417Q400 -412 404 -406Q408 -401 404 -396Q403 -399 397 -397Q392 -395 388 -396Q382 -394 378 -392Q376 -387 370 -391Q365 -394 362 -393Q354 -391 348 -397Q343 -402 336 -406Q321 -414 304 -414Q297 -412 284 -412Q267 -412 260 -408Q259 -388 258 -368Q261 -362 257 -347Q254 -335 255 -329Q254 -323 255 -316Q257 -305 254 -299Q259 -285 256 -267Q254 -265 256 -259Q258 -252 255 -248Q255 -235 258 -220L256 -197Q253 -192 255 -181Q258 -172 254 -156Q255 -152 253 -145Q251 -137 254 -133Q256 -122 252 -113Q248 -103 247 -93Q243 -86 236 -89Q230 -92 224 -91Q220 -95 213 -99Q207 -103 206 -109Q196 -117 199 -129Q193 -140 195 -158Q192 -164 192 -173Q197 -184 197 -207Q199 -227 200 -248Q203 -263 205 -279Q198 -297 207 -313Q208 -326 208 -340Q209 -349 212 -362Q211 -365 213 -374Q216 -385 211 -390Q199 -380 190 -370Q182 -366 179 -353Q177 -342 174 -339Q173 -334 167 -327Q160 -320 160 -317Q158 -314 157 -306Q156 -295 151 -294Q146 -301 138 -304Q130 -307 123 -310Q119 -311 116 -318Q113 -324 108 -327Q108 -330 105 -335Q101 -340 103 -344Q94 -356 100 -371Q99 -380 105 -390Q108 -392 110 -399Q113 -409 117 -410Q123 -414 128 -420Q128 -429 136 -438Q141 -441 145 -444Q153 -450 157 -460Q159 -463 160 -462Q163 -455 168 -451Q171 -441 174 -432Q176 -426 174 -414Q172 -404 174 -398Q176 -395 175 -389Q174 -383 177 -381Q196 -393 218 -411Q220 -429 220 -448Q218 -517 228 -564Q231 -568 229 -576Q227 -585 230 -589ZM644 -431Q654 -431 656 -425Q660 -417 665 -418Q666 -418 667 -422Q666 -431 669 -426Q670 -421 676 -422Q681 -423 683 -421Q686 -419 689 -418L701 -412Q704 -410 707 -409Q707 -407 712 -402Q717 -397 715 -392Q722 -380 711 -373Q713 -366 709 -361Q704 -356 700 -352Q693 -344 688 -337Q684 -334 682 -328Q679 -320 677 -318Q675 -309 666 -297Q657 -285 656 -282Q658 -277 663 -276Q667 -275 668 -274Q676 -272 683 -271Q690 -270 694 -264Q710 -260 714 -258Q719 -253 731 -249Q741 -246 744 -243Q745 -239 752 -239Q758 -239 760 -237Q770 -230 779 -224Q786 -210 792 -196Q789 -195 789 -185Q792 -176 785 -173Q777 -169 771 -174Q769 -172 764 -175Q759 -178 756 -176Q732 -184 721 -190Q707 -196 700 -198Q656 -219 612 -236Q610 -221 600 -215Q598 -208 591 -204Q585 -200 579 -195Q576 -196 572 -193Q566 -190 564 -191Q562 -189 558 -189Q553 -189 551 -185Q537 -178 533 -182Q523 -180 523 -187Q539 -204 554 -221Q562 -232 569 -244Q575 -248 572 -254Q569 -260 563 -261Q553 -267 543 -273Q543 -274 532 -283Q526 -288 530 -294Q537 -291 552 -289Q558 -288 563 -287Q580 -287 596 -287Q629 -337 649 -375Q650 -381 652 -390Q653 -398 645 -402Q634 -408 634 -421Q636 -431 644 -431ZM844 -336H848Q857 -329 868 -324Q882 -324 891 -313Q898 -301 899 -289Q904 -285 905 -272Q906 -260 909 -256Q913 -241 915 -207Q914 -202 916 -195Q919 -185 915 -181Q916 -170 913 -161Q914 -152 914 -134Q909 -125 908 -115Q909 -108 905 -104Q901 -100 898 -94Q890 -88 881 -86Q876 -84 870 -91Q864 -99 859 -97Q852 -97 844 -97Q831 -95 810 -95Q799 -94 788 -93Q774 -92 760 -91Q745 -91 730 -91Q713 -91 696 -89Q682 -90 667 -91Q655 -89 643 -91Q632 -88 623 -89Q607 -89 592 -87Q545 -83 502 -85Q461 -88 431 -110Q422 -124 413 -138Q408 -147 403 -156Q400 -159 398 -178Q396 -185 400 -195Q403 -204 403 -209Q407 -213 407 -224Q413 -251 426 -264Q430 -266 428 -274Q427 -279 428 -282Q435 -284 439 -290Q443 -295 447 -301Q448 -305 453 -313Q455 -320 459 -322Q461 -316 467 -312Q474 -307 479 -312Q482 -316 485 -314Q487 -312 485 -308Q487 -302 487 -296Q486 -291 491 -288Q499 -275 501 -261Q503 -255 496 -244Q491 -234 489 -224Q484 -214 478 -204Q479 -199 473 -193Q467 -186 468 -182Q465 -174 468 -167Q466 -162 466 -145Q472 -137 482 -135Q492 -134 501 -132Q508 -132 514 -132L560 -133Q586 -133 611 -134Q619 -134 626 -135Q630 -136 663 -136Q680 -138 694 -135Q709 -137 728 -138Q738 -136 753 -138Q761 -138 768 -138Q776 -140 811 -142Q831 -141 848 -144Q850 -157 848 -173Q852 -183 856 -214Q857 -226 857 -238L859 -285Q857 -299 858 -311Q858 -316 851 -323Q845 -330 844 -336Z"/>
</svg>