<svg xmlns="http://www.w3.org/2000/svg" viewBox="0 -800 1024 1024">
	<path fill="#000000" d="M772 -639L783 -638Q788 -634 801 -633Q816 -632 822 -624Q831 -621 835 -615Q839 -609 842 -602Q856 -591 860 -575Q859 -572 863 -566Q867 -560 863 -556Q864 -550 868 -543Q875 -530 874 -522Q879 -517 878 -510Q878 -503 879 -498Q882 -488 878 -470Q881 -462 881 -451Q878 -442 880 -439Q877 -436 880 -429Q882 -424 881 -421Q876 -415 883 -405Q882 -393 880 -381Q882 -363 878 -346Q878 -334 878 -323Q876 -315 879 -304Q882 -291 880 -285Q886 -279 879 -267Q883 -253 875 -248Q877 -233 875 -215Q878 -200 880 -185Q879 -174 883 -163Q882 -150 881 -137Q879 -129 880 -123Q879 -115 874 -107Q876 -90 878 -73Q876 -70 877 -65Q878 -59 877 -56Q872 -52 872 -42Q872 -33 869 -30Q872 -25 869 -18Q867 -12 868 -9Q867 -2 862 4Q864 10 857 12Q852 14 852 17Q849 17 849 19Q852 25 849 27Q839 20 832 12Q828 11 821 9Q817 6 820 3Q819 0 813 0Q808 0 806 -4Q801 -3 798 -8Q795 -12 796 -17Q791 -29 785 -36Q786 -43 777 -50Q789 -50 797 -60Q797 -63 802 -67Q808 -71 808 -76Q813 -87 814 -112Q815 -134 817 -143Q820 -156 822 -186Q828 -236 824 -287V-323Q825 -343 825 -363Q824 -382 826 -402Q829 -406 826 -415Q824 -423 826 -427Q825 -431 825 -452Q825 -465 824 -479Q822 -491 820 -504Q817 -520 814 -537Q805 -552 798 -569Q791 -586 775 -597Q758 -593 740 -590Q694 -579 691 -578Q683 -579 673 -571Q649 -565 608 -547Q603 -546 592 -539Q582 -532 575 -531Q570 -524 564 -518Q555 -516 539 -521Q527 -525 521 -525Q509 -530 497 -535Q496 -541 499 -542Q503 -544 506 -546Q515 -550 523 -556Q531 -563 542 -562Q553 -575 572 -581Q584 -586 595 -592Q632 -609 662 -617Q665 -620 673 -620Q679 -620 682 -623Q702 -630 729 -633Q739 -635 751 -634Q763 -634 772 -639ZM207 -594Q210 -595 212 -590Q214 -585 217 -585Q223 -580 231 -576Q238 -572 241 -563Q247 -557 250 -543Q252 -533 254 -529Q255 -517 253 -505Q254 -495 256 -486Q258 -477 255 -467Q251 -452 265 -452Q267 -456 273 -453Q279 -450 282 -451Q285 -453 287 -450Q293 -441 297 -444Q295 -445 295 -446Q298 -446 302 -446Q303 -444 308 -446Q314 -449 313 -445Q310 -438 316 -436Q322 -434 327 -437Q335 -435 342 -433Q345 -435 351 -430Q355 -427 359 -426Q365 -418 367 -405Q371 -397 360 -396Q354 -395 352 -389Q351 -383 345 -384Q339 -394 324 -386Q311 -388 301 -393Q298 -401 290 -400Q284 -399 279 -393Q248 -384 255 -363Q257 -358 254 -351Q251 -344 253 -340Q249 -338 249 -332Q249 -328 248 -326Q248 -309 254 -293Q252 -290 253 -281Q254 -272 251 -268Q253 -256 246 -226Q254 -203 247 -180Q254 -169 252 -145Q250 -126 253 -119Q250 -108 249 -95Q257 -79 249 -50Q249 -43 236 -39Q234 -38 231 -33Q227 -26 226 -30Q224 -30 221 -30Q214 -29 214 -36Q207 -44 196 -48Q184 -56 182 -66Q172 -71 179 -79Q173 -83 169 -85Q169 -86 170 -86Q183 -93 187 -119Q178 -134 186 -150Q190 -168 194 -187Q191 -204 199 -238L202 -321Q205 -335 202 -350Q201 -353 199 -352Q195 -347 188 -345Q168 -323 147 -302Q143 -288 139 -274Q136 -256 123 -241Q120 -235 113 -238Q111 -239 103 -245Q96 -259 87 -268Q80 -271 79 -276Q78 -282 77 -288Q87 -322 102 -354Q102 -360 109 -369Q118 -381 117 -390Q112 -404 113 -407Q114 -410 119 -407Q138 -397 140 -364Q148 -351 149 -333Q175 -355 201 -373L206 -389Q204 -393 207 -400Q210 -407 207 -411Q205 -421 205 -429Q208 -448 207 -467Q207 -469 207 -472L206 -481Q206 -483 206 -486Q206 -498 206 -510Q205 -525 207 -538Q210 -556 208 -562Q213 -568 209 -580Q206 -589 207 -594ZM414 -513L415 -511Q442 -507 453 -499Q457 -491 462 -485Q467 -479 466 -470Q469 -459 474 -444Q471 -439 474 -413Q479 -403 477 -392Q474 -381 473 -370Q474 -360 474 -351Q474 -335 475 -332L471 -305Q469 -301 470 -292Q471 -282 466 -278Q467 -265 462 -219Q462 -209 461 -199Q459 -173 455 -149Q454 -138 454 -128Q451 -95 442 -67Q443 -63 438 -61Q432 -58 432 -54Q427 -51 424 -56Q422 -65 418 -66Q407 -63 399 -83Q395 -92 390 -101Q387 -108 384 -115Q390 -126 392 -139Q395 -135 398 -138Q401 -140 402 -145Q400 -146 402 -151Q403 -155 401 -157Q399 -156 398 -158Q398 -163 400 -168Q412 -240 412 -244Q423 -314 423 -322Q422 -331 429 -362Q429 -363 435 -450Q431 -478 427 -492Q428 -497 420 -503Q412 -509 414 -513ZM592 -478Q599 -475 605 -478Q614 -475 623 -472Q625 -470 633 -469Q643 -467 647 -462Q653 -451 659 -451Q669 -456 676 -447Q683 -438 678 -428Q678 -422 670 -421Q663 -421 660 -414Q657 -411 656 -402Q655 -393 651 -389Q655 -384 653 -376Q656 -374 664 -378Q672 -382 677 -379Q681 -380 703 -380Q710 -381 725 -372Q720 -356 718 -355Q701 -348 683 -342Q675 -342 666 -340Q649 -336 631 -332L620 -307Q623 -305 621 -299Q619 -294 621 -291Q671 -308 673 -308Q680 -315 690 -313Q699 -311 708 -312Q719 -311 722 -310Q729 -308 730 -303Q730 -298 734 -291Q739 -283 737 -278Q731 -273 731 -266Q731 -260 729 -254Q718 -234 706 -219Q701 -215 705 -211Q709 -207 714 -209Q724 -208 733 -207Q734 -205 749 -198Q753 -192 743 -187Q735 -182 735 -170Q718 -173 700 -176Q641 -174 624 -170Q615 -169 606 -168Q604 -165 602 -166Q599 -168 597 -166Q595 -168 588 -171Q580 -175 577 -180Q578 -185 572 -191Q566 -197 566 -201Q560 -207 562 -220Q568 -227 568 -248Q565 -253 568 -261Q562 -266 568 -276Q572 -283 572 -286L588 -315Q591 -319 589 -320Q587 -321 584 -321Q569 -319 553 -319Q537 -318 526 -330Q550 -338 553 -340Q572 -343 601 -358Q608 -381 609 -402Q597 -405 584 -409Q569 -413 557 -423Q562 -428 577 -431Q589 -433 595 -437Q614 -440 612 -450Q612 -458 604 -460Q594 -462 595 -469Q598 -470 597 -472Q594 -476 592 -478ZM254 -433L253 -428Q252 -420 254 -413Q256 -410 261 -413Q270 -416 266 -426Q262 -436 254 -433ZM679 -284L651 -273Q644 -268 623 -268Q616 -272 613 -267Q610 -262 612 -255Q602 -243 603 -236Q606 -224 607 -213Q609 -212 609 -208Q609 -204 612 -203Q629 -208 647 -208Q653 -212 661 -226Q667 -236 671 -241Q672 -248 678 -259Q684 -269 685 -274Q688 -278 686 -282Q684 -286 679 -284Z"/>
</svg>