<svg xmlns="http://www.w3.org/2000/svg" viewBox="0 -800 1024 1024">
	<path fill="#000000" d="M470 -714Q480 -712 489 -711Q503 -714 525 -710Q541 -705 560 -701Q566 -697 574 -697Q583 -696 591 -691Q598 -686 607 -683Q615 -685 622 -678Q630 -671 627 -662Q628 -656 620 -651Q611 -646 609 -641Q607 -635 600 -636Q593 -636 588 -637Q574 -642 559 -648Q537 -661 514 -675Q494 -687 478 -703Q470 -708 470 -714ZM667 -636H673Q689 -636 704 -636Q709 -638 713 -632Q717 -627 721 -627Q728 -626 726 -620Q725 -615 724 -609Q726 -600 717 -598Q706 -593 693 -593Q688 -590 674 -590Q660 -590 655 -586Q645 -587 615 -582Q611 -579 600 -578Q591 -578 587 -575Q568 -572 549 -572Q543 -570 529 -569Q512 -568 505 -563Q488 -561 472 -562Q466 -563 462 -558Q460 -555 458 -548Q445 -540 444 -527Q437 -512 437 -494Q435 -491 433 -477Q432 -461 431 -446Q430 -431 429 -416Q425 -413 425 -394Q421 -386 422 -377Q419 -370 421 -361Q420 -350 418 -340Q414 -329 409 -318Q409 -310 405 -292Q396 -275 393 -255Q385 -242 383 -227Q381 -211 377 -196Q374 -192 372 -169Q367 -157 365 -142Q365 -138 360 -133Q354 -126 355 -120Q355 -103 348 -88Q343 -82 340 -67Q337 -52 331 -45Q326 -43 323 -39Q320 -34 317 -31Q301 -15 297 -24Q289 -40 278 -53Q276 -69 273 -83Q272 -99 287 -101Q294 -114 304 -142Q311 -169 313 -173Q319 -195 324 -205Q324 -219 334 -239Q344 -286 348 -294Q353 -322 360 -349Q368 -386 375 -424Q377 -442 382 -459Q383 -479 386 -496Q389 -521 397 -544Q397 -559 412 -567Q415 -572 410 -576Q406 -579 401 -579Q408 -588 419 -590Q430 -593 441 -596Q467 -601 493 -607Q508 -610 523 -613Q538 -615 552 -618Q557 -619 561 -620L581 -622Q586 -623 590 -624Q600 -623 616 -631Q629 -631 642 -632Q655 -632 667 -636ZM192 -555Q212 -553 231 -551Q250 -548 266 -535Q275 -529 269 -520Q269 -507 257 -505Q242 -499 226 -503Q185 -517 158 -532Q154 -533 149 -535Q143 -538 145 -542Q148 -547 163 -549Q176 -554 192 -555ZM659 -546Q662 -547 672 -544Q683 -541 693 -538Q708 -536 707 -518Q706 -501 694 -496Q675 -474 672 -469Q686 -464 699 -463Q709 -461 705 -451Q702 -443 694 -437Q682 -431 667 -428Q659 -425 668 -423Q679 -426 690 -411Q692 -404 698 -404Q704 -403 710 -404Q727 -407 743 -410Q747 -410 756 -412Q768 -415 774 -412Q792 -415 803 -413Q834 -411 853 -400Q864 -398 865 -387Q872 -389 876 -381Q879 -375 880 -366Q881 -346 881 -327Q878 -326 875 -320Q871 -312 866 -314Q856 -296 846 -279Q836 -269 831 -271Q824 -259 815 -258Q807 -244 796 -237Q793 -236 788 -231Q782 -225 776 -224Q774 -217 761 -207Q752 -200 749 -195Q746 -195 744 -192Q743 -189 742 -186Q740 -184 736 -188Q732 -188 729 -182Q726 -176 733 -174Q734 -173 740 -171Q746 -169 747 -166Q752 -153 736 -150Q728 -141 709 -143Q703 -142 695 -141Q689 -140 692 -133Q691 -123 690 -112Q689 -102 695 -92Q729 -86 764 -84Q791 -81 818 -76Q834 -73 847 -68Q873 -61 880 -56Q886 -39 887 -38Q883 -37 882 -29Q881 -21 876 -22Q873 -16 865 -19Q859 -15 855 -22Q850 -20 834 -27Q830 -27 824 -31Q816 -36 811 -35Q797 -41 775 -46Q746 -51 720 -61Q710 -63 699 -65Q693 -65 690 -60Q692 -54 689 -40Q687 -28 689 -21Q688 -3 686 15Q687 19 682 20Q676 22 675 24Q681 37 668 43Q666 37 654 42Q653 41 651 40L646 38Q645 37 643 36Q643 32 642 32Q639 31 636 32Q634 23 636 9Q627 2 627 -6Q627 -10 628 -15Q628 -20 632 -20Q638 -26 632 -36Q629 -43 633 -57Q636 -67 636 -73Q631 -81 622 -81Q613 -82 605 -84Q591 -87 579 -82Q578 -66 577 -51Q580 -40 576 -25Q575 -20 569 -21Q564 -22 560 -22Q556 -15 551 -23Q543 -24 538 -34Q532 -46 529 -48Q526 -57 514 -51Q510 -54 505 -51Q501 -49 499 -50Q485 -47 473 -40Q470 -41 465 -38Q459 -34 457 -39L492 -86Q498 -90 504 -100Q511 -111 515 -114Q518 -117 518 -120Q517 -123 513 -124Q504 -122 497 -125Q472 -123 455 -140Q449 -145 458 -142Q473 -144 488 -147Q498 -145 523 -152Q532 -150 535 -155Q538 -160 537 -168Q539 -176 539 -192V-208Q539 -218 541 -232Q545 -244 535 -250Q526 -256 517 -261Q513 -264 515 -268Q518 -273 522 -269Q533 -269 542 -266Q547 -266 550 -269Q550 -313 546 -327Q545 -334 545 -341Q544 -348 537 -349Q532 -351 526 -352Q520 -352 518 -358Q530 -356 538 -364Q542 -363 543 -368Q544 -372 541 -375Q537 -374 533 -378Q530 -382 535 -385Q538 -390 552 -392Q561 -392 570 -394Q580 -396 586 -389Q585 -384 588 -382Q591 -380 594 -378L626 -386Q632 -389 629 -393Q620 -400 624 -407Q628 -403 634 -408Q640 -413 637 -418Q634 -426 621 -418Q618 -419 613 -417Q607 -415 604 -416Q590 -413 577 -415Q564 -417 551 -418Q546 -422 540 -415Q536 -410 533 -410Q525 -413 523 -421Q520 -428 518 -435Q516 -448 514 -461Q512 -469 518 -474Q523 -479 527 -486Q540 -511 543 -540Q546 -545 551 -540Q555 -537 557 -531Q562 -528 562 -519Q563 -509 566 -506L591 -516Q598 -522 614 -527Q631 -533 637 -538Q642 -538 648 -539Q654 -540 659 -546ZM633 -507Q623 -506 614 -503Q609 -503 599 -499Q590 -495 583 -496Q580 -493 572 -490Q561 -486 560 -481Q561 -470 556 -455Q555 -450 552 -444Q549 -439 553 -434Q573 -438 590 -445Q606 -447 619 -463Q626 -472 636 -493Q640 -499 639 -506Q638 -509 633 -507ZM180 -409H184Q188 -407 190 -399Q193 -389 198 -387Q202 -386 202 -376Q192 -365 186 -351Q186 -346 181 -339Q174 -328 175 -321Q174 -313 167 -289Q162 -282 162 -272Q163 -267 159 -261Q155 -253 155 -248Q159 -238 148 -225Q146 -219 147 -214Q146 -206 149 -194Q150 -179 150 -164Q153 -144 156 -124Q152 -111 170 -101Q179 -98 186 -106Q193 -113 201 -117Q218 -132 235 -148Q241 -153 249 -165Q255 -175 259 -179Q260 -179 260 -166Q256 -156 255 -144Q256 -138 252 -134Q248 -130 245 -125Q246 -121 241 -116Q235 -110 237 -105Q237 -96 227 -88Q216 -77 208 -63Q205 -58 192 -61Q184 -57 175 -62Q159 -63 148 -70Q116 -87 111 -122Q107 -128 106 -146Q105 -159 102 -165Q106 -174 106 -187Q107 -201 109 -213Q106 -226 115 -235Q119 -239 116 -246Q113 -253 114 -256Q123 -283 129 -311Q131 -326 141 -352Q148 -372 157 -390Q166 -402 180 -409ZM799 -375L785 -374Q763 -372 744 -368Q729 -367 713 -366Q699 -366 690 -360Q690 -345 692 -338Q691 -325 689 -312Q689 -299 689 -286Q689 -276 698 -276Q706 -276 714 -276Q721 -274 729 -272Q737 -269 736 -260Q734 -249 724 -245Q719 -241 706 -241Q693 -241 688 -236Q689 -233 688 -225Q687 -215 690 -211Q701 -215 711 -221Q716 -221 717 -226Q719 -233 724 -232Q726 -233 728 -237Q731 -242 735 -242Q738 -245 741 -248L750 -261Q753 -264 756 -267Q771 -281 782 -298Q785 -306 796 -323Q810 -344 811 -358Q814 -364 810 -371Q806 -378 799 -375ZM628 -347Q618 -347 617 -346Q614 -345 610 -345L595 -343Q591 -342 587 -342Q577 -336 587 -310Q584 -299 586 -278Q584 -273 588 -270Q592 -268 598 -269Q607 -271 619 -271Q630 -270 639 -276Q639 -300 639 -324Q639 -333 638 -343Q637 -350 628 -347ZM607 -241Q593 -243 586 -235Q587 -230 585 -223Q582 -213 585 -208Q584 -188 582 -168Q583 -162 590 -164Q597 -166 599 -164Q614 -166 628 -169Q641 -163 637 -188Q642 -209 639 -232Q640 -237 636 -239Q631 -240 627 -240Q617 -240 607 -241ZM620 -133Q603 -133 600 -131Q594 -131 591 -127Q589 -123 588 -118Q591 -113 585 -106Q580 -99 581 -95Q584 -93 590 -94Q597 -95 600 -93Q611 -95 624 -93Q634 -92 634 -99Q635 -107 636 -113Q643 -121 634 -128Q636 -133 630 -134Q625 -135 620 -133Z"/>
</svg>