<svg xmlns="http://www.w3.org/2000/svg" viewBox="0 -800 1024 1024">
	<path fill="#000000" d="M358 -642H380Q406 -639 418 -615Q428 -595 425 -565Q425 -510 423 -500Q429 -494 449 -497Q471 -501 477 -489Q483 -481 475 -477Q466 -472 460 -465Q455 -453 443 -452Q430 -451 419 -445Q413 -409 413 -374Q421 -371 427 -376Q434 -382 440 -388Q455 -394 473 -413Q479 -418 480 -416Q480 -408 477 -398Q486 -389 480 -371Q454 -340 418 -316Q406 -310 407 -297Q407 -284 407 -271Q405 -248 402 -226Q404 -199 392 -125Q397 -118 395 -112Q393 -107 392 -100Q384 -87 387 -78Q387 -67 372 -60Q359 -54 358 -46Q354 -48 348 -58Q342 -68 335 -73Q326 -97 309 -116Q305 -130 294 -139Q282 -148 272 -157Q289 -147 295 -142Q306 -135 318 -125Q330 -115 344 -120Q350 -132 352 -163Q353 -183 357 -196Q358 -233 355 -269Q349 -268 341 -261Q333 -254 327 -249Q312 -240 285 -214Q259 -189 244 -180Q237 -169 222 -168Q212 -168 215 -180Q208 -187 206 -195Q204 -204 201 -211Q193 -218 193 -230Q193 -243 202 -245Q218 -250 230 -250Q288 -288 345 -326Q360 -330 359 -345Q357 -360 360 -371V-415Q360 -423 354 -423Q342 -419 330 -415Q317 -408 302 -408Q263 -414 228 -425Q218 -429 208 -431Q205 -433 207 -435Q215 -433 225 -437Q236 -441 241 -439Q286 -441 353 -470Q366 -472 365 -486Q364 -509 364 -511Q369 -522 367 -546Q366 -562 367 -570Q364 -585 360 -602Q356 -619 338 -624Q337 -631 330 -634Q324 -637 320 -640Q346 -636 358 -642ZM721 -570Q753 -571 778 -545Q792 -533 792 -513Q792 -506 787 -476Q774 -416 753 -384Q751 -369 739 -357Q727 -346 717 -335Q715 -327 704 -318Q694 -310 692 -304Q675 -299 672 -286Q661 -284 660 -297Q659 -312 652 -314Q645 -317 632 -329Q620 -340 611 -344Q603 -348 606 -348Q616 -345 629 -345Q638 -341 639 -346Q640 -351 633 -353V-354Q633 -356 635 -355Q647 -348 649 -351Q664 -348 669 -349Q679 -350 682 -361Q707 -387 726 -478Q728 -492 728 -506Q729 -521 717 -528Q686 -522 661 -513Q652 -510 642 -509Q633 -507 627 -500Q640 -484 629 -446Q621 -423 612 -400Q607 -393 584 -346Q568 -314 549 -297Q544 -297 538 -288Q533 -281 531 -281Q529 -281 526 -286Q527 -293 518 -304Q507 -318 513 -326Q525 -339 535 -351Q545 -364 548 -379Q577 -413 586 -474Q592 -485 583 -494Q574 -503 563 -500Q547 -502 534 -508Q528 -508 528 -510Q528 -513 536 -514L619 -545Q663 -560 721 -570ZM642 -345L646 -342Q653 -341 653 -343Q651 -349 642 -345ZM813 -281Q849 -281 877 -267Q906 -246 909 -222Q902 -192 885 -169Q878 -166 876 -161Q875 -155 872 -150Q871 -143 866 -141Q861 -138 857 -135Q856 -129 846 -121Q838 -114 837 -111Q854 -107 851 -91Q835 -86 832 -68Q820 -66 794 -67Q762 -69 748 -65Q735 -68 707 -67Q668 -65 652 -75Q637 -76 624 -84Q612 -93 598 -100Q583 -105 583 -120Q583 -136 584 -150Q591 -203 607 -230Q609 -241 621 -254Q639 -274 641 -276Q650 -281 653 -272Q656 -263 652 -255Q654 -252 653 -244Q652 -235 659 -234Q730 -266 813 -281ZM813 -242Q804 -242 786 -236Q746 -228 729 -220Q721 -215 713 -215Q701 -216 688 -220Q675 -225 661 -222Q650 -230 647 -210Q631 -173 637 -107Q644 -100 655 -100Q674 -102 692 -104Q718 -105 744 -107Q759 -109 775 -110Q792 -110 800 -125Q800 -130 807 -136Q813 -142 813 -147Q821 -151 831 -172Q828 -178 836 -189Q843 -199 842 -206Q855 -219 842 -234Q829 -249 813 -242Z"/>
</svg>