<svg xmlns="http://www.w3.org/2000/svg" viewBox="0 -800 1024 1024">
	<path fill="#000000" d="M431 -696Q436 -695 438 -689Q440 -684 442 -679Q448 -669 443 -659Q439 -649 437 -639Q440 -635 446 -639Q451 -643 454 -645Q467 -647 481 -654Q490 -648 494 -650Q505 -646 516 -643Q527 -641 526 -631Q525 -622 518 -613Q517 -597 501 -577Q498 -569 487 -558Q476 -548 474 -541Q467 -537 464 -531Q461 -525 457 -520Q436 -494 418 -467Q413 -467 411 -460Q409 -454 405 -452Q395 -445 400 -430Q404 -424 412 -427Q420 -431 424 -435Q427 -433 429 -436Q430 -439 433 -441Q451 -452 472 -461Q491 -469 515 -476Q535 -483 563 -480Q566 -477 571 -479Q575 -481 578 -479Q588 -479 594 -477Q609 -467 620 -452Q629 -448 631 -439Q630 -433 635 -426Q639 -419 639 -416Q650 -390 642 -374Q643 -369 643 -365L646 -349Q647 -344 647 -340Q649 -330 649 -316Q643 -296 643 -257Q642 -228 637 -207Q639 -203 638 -196Q636 -187 640 -184Q652 -189 684 -194Q708 -198 723 -203Q738 -208 752 -211Q764 -211 771 -221Q779 -232 787 -238Q792 -246 798 -254Q803 -262 802 -272Q803 -278 801 -284Q799 -287 794 -284Q752 -273 747 -271Q739 -267 734 -267Q720 -267 703 -297Q698 -309 704 -321Q710 -334 715 -346Q720 -350 718 -356Q716 -363 709 -365Q704 -372 699 -380Q691 -390 696 -399Q701 -409 706 -418Q715 -443 724 -466Q740 -493 729 -530Q726 -537 712 -543Q702 -547 698 -552Q690 -550 682 -558Q684 -566 698 -569Q709 -571 712 -574Q748 -584 783 -594Q807 -599 832 -599Q844 -602 856 -594Q871 -592 878 -584Q889 -563 884 -554Q884 -537 880 -523Q884 -513 878 -496Q871 -489 869 -475Q862 -456 849 -438Q848 -427 837 -422Q837 -412 826 -399Q824 -399 823 -394Q822 -390 819 -390Q817 -385 809 -378Q797 -368 798 -359Q796 -358 793 -363Q790 -368 787 -370Q780 -381 773 -393Q774 -405 759 -412Q779 -419 781 -419Q787 -414 793 -426Q799 -438 802 -448Q801 -450 803 -455Q806 -459 804 -462Q807 -471 819 -492Q827 -523 828 -529Q831 -550 824 -566Q817 -569 800 -565Q796 -559 778 -553Q763 -550 750 -542Q754 -530 758 -518Q764 -503 765 -491Q767 -487 765 -481Q762 -474 763 -470Q756 -458 754 -442Q745 -433 745 -422Q738 -411 727 -377Q722 -370 723 -361Q724 -357 729 -359Q733 -351 743 -350Q745 -337 744 -322Q744 -312 743 -303Q756 -305 793 -317Q805 -325 784 -336Q780 -334 778 -341Q776 -347 782 -343Q791 -351 802 -346Q812 -342 823 -342Q834 -343 840 -333Q844 -333 847 -334L861 -336Q865 -336 868 -337Q880 -334 894 -335Q899 -331 906 -334Q910 -333 910 -327Q911 -318 913 -316Q919 -303 906 -299Q901 -297 894 -289Q888 -283 883 -285Q873 -268 853 -254Q845 -236 855 -229Q875 -232 894 -236Q914 -235 931 -238Q934 -236 949 -238Q960 -236 965 -231Q963 -202 951 -198Q946 -198 941 -198L934 -196Q929 -196 924 -196Q919 -197 910 -195Q900 -192 893 -194Q887 -191 876 -191Q862 -191 857 -187Q857 -169 850 -152Q850 -143 855 -135Q860 -129 851 -120Q864 -90 850 -64Q855 -58 855 -27Q858 -22 855 -12Q852 -1 856 4Q859 10 853 20Q847 31 850 36Q848 49 844 53Q838 68 829 79Q829 83 827 83Q822 84 818 80Q809 80 804 74Q799 67 795 61Q783 49 787 36Q795 -8 795 -11Q799 -35 803 -59Q800 -105 802 -153Q801 -157 801 -165Q801 -176 798 -179Q788 -181 780 -177Q769 -178 757 -172Q750 -175 742 -167Q729 -167 716 -167Q712 -165 702 -165Q694 -165 690 -163Q683 -164 675 -162Q666 -160 660 -164Q651 -159 640 -158Q634 -161 633 -157Q632 -149 629 -144Q624 -137 623 -130Q622 -123 620 -116Q615 -114 614 -108Q613 -102 611 -97Q612 -89 604 -79Q596 -70 596 -65Q587 -70 577 -75Q571 -83 564 -87Q564 -102 559 -100Q554 -110 555 -112Q562 -114 560 -120Q558 -125 553 -129Q551 -134 547 -133Q543 -132 541 -135Q552 -135 565 -137Q579 -140 580 -153Q582 -167 585 -178Q592 -230 592 -265Q593 -272 593 -288Q595 -341 593 -367Q588 -385 586 -402Q584 -419 571 -431Q562 -447 546 -441Q509 -429 491 -418Q481 -415 479 -401Q472 -400 464 -400Q460 -397 463 -394Q468 -390 471 -385Q476 -382 474 -369Q472 -352 482 -351Q489 -350 497 -349Q505 -347 501 -339Q499 -338 498 -331Q497 -323 491 -324Q480 -325 477 -314Q477 -313 475 -295Q475 -282 478 -279Q490 -279 505 -277Q512 -278 515 -272Q518 -266 513 -263Q513 -248 502 -248Q490 -247 480 -245Q474 -240 475 -232Q476 -225 476 -219Q471 -213 471 -198Q471 -184 469 -179Q470 -175 468 -160Q469 -153 467 -142Q472 -128 463 -105Q460 -103 460 -98Q460 -92 455 -93Q442 -97 431 -108Q426 -118 421 -128Q406 -135 416 -160Q422 -194 428 -229Q429 -236 423 -236Q414 -236 409 -238Q390 -237 373 -235Q360 -238 360 -216Q356 -187 356 -186Q355 -176 352 -167Q349 -158 354 -149Q352 -140 354 -129Q348 -124 341 -128Q339 -125 337 -127Q335 -131 331 -132Q324 -130 321 -136Q319 -141 317 -146Q308 -149 302 -157Q293 -172 298 -174Q306 -186 302 -209Q308 -213 307 -222Q303 -237 310 -249Q317 -254 313 -275Q318 -287 318 -304Q320 -307 322 -319Q324 -333 330 -339Q336 -383 343 -402Q344 -407 349 -415Q354 -421 354 -425Q357 -426 357 -433Q357 -440 360 -442Q366 -459 380 -473Q389 -480 399 -491Q404 -495 407 -503Q418 -522 429 -542Q435 -547 436 -560Q437 -573 441 -578Q452 -594 453 -611Q445 -610 438 -609Q431 -608 426 -602Q420 -603 413 -605Q410 -616 400 -629Q395 -637 398 -644Q402 -651 404 -657Q413 -669 415 -684Q414 -692 420 -693Q426 -694 431 -696ZM197 -644Q197 -640 201 -639Q204 -639 203 -634Q216 -614 221 -592Q225 -584 225 -575Q224 -565 233 -555Q237 -552 240 -543Q242 -536 245 -533Q252 -513 269 -502Q274 -502 276 -499Q279 -496 282 -493Q288 -496 291 -492Q294 -487 297 -485Q304 -486 306 -479Q337 -474 344 -468Q349 -463 346 -458Q342 -454 340 -450Q336 -447 328 -450Q323 -438 314 -440Q305 -441 296 -442Q292 -448 283 -448Q266 -448 228 -429Q224 -426 218 -423Q212 -419 213 -412Q217 -398 214 -386Q215 -380 210 -367Q213 -360 210 -343Q211 -340 209 -325Q214 -313 212 -308Q209 -304 210 -295Q211 -287 209 -285Q206 -267 207 -251Q207 -242 206 -233Q207 -228 205 -218Q203 -207 206 -201Q205 -197 208 -191Q211 -186 210 -182Q206 -171 208 -159Q210 -140 207 -120Q204 -111 194 -112Q194 -115 188 -115Q183 -115 183 -119Q180 -123 173 -123Q157 -140 151 -157Q159 -200 163 -244Q166 -265 168 -287Q166 -312 170 -335Q175 -351 175 -367Q173 -370 173 -377Q173 -384 171 -385Q154 -378 151 -367Q131 -353 119 -334Q119 -327 112 -327Q105 -327 101 -332Q97 -331 92 -336Q88 -340 85 -340Q79 -347 75 -355Q69 -362 68 -374Q73 -392 78 -411Q87 -440 101 -470Q101 -477 115 -479Q120 -471 124 -463Q127 -448 126 -434Q126 -429 118 -399Q118 -394 117 -389Q116 -383 121 -383Q129 -386 167 -415Q184 -427 179 -444Q180 -465 180 -486Q182 -518 183 -550Q185 -573 186 -598Q186 -623 197 -644ZM226 -546Q223 -535 219 -525Q219 -516 219 -508Q219 -503 218 -500V-485Q217 -482 217 -477Q215 -474 217 -466Q219 -459 216 -455Q218 -450 222 -452Q228 -456 233 -459Q246 -464 255 -473Q253 -489 250 -493Q241 -506 233 -535Q232 -538 231 -543Q230 -547 226 -546ZM400 -423Q392 -416 390 -403Q392 -396 387 -385Q382 -373 382 -367Q376 -349 374 -328L365 -276Q367 -272 364 -266Q362 -261 365 -259Q377 -262 406 -266Q413 -269 422 -268Q431 -268 436 -275Q441 -310 441 -321Q427 -325 412 -324Q409 -326 401 -326Q391 -326 390 -330Q416 -347 442 -350Q454 -353 447 -379Q450 -396 438 -405Q436 -409 427 -411Q419 -412 417 -416Q409 -422 400 -423ZM793 -227Q793 -224 792 -221Q794 -220 795 -220Q801 -220 799 -226Q798 -230 793 -227Z"/>
</svg>