<svg xmlns="http://www.w3.org/2000/svg" viewBox="0 -800 1024 1024">
	<path fill="#000000" d="M569 -726Q571 -726 575 -724Q590 -724 593 -726Q606 -720 619 -715Q633 -707 635 -693Q637 -678 631 -667Q631 -660 625 -621Q625 -590 621 -580Q617 -572 615 -557Q613 -542 611 -537Q615 -523 610 -507Q608 -502 612 -500Q616 -499 619 -503Q624 -502 627 -507Q629 -512 632 -514Q647 -511 661 -514Q678 -511 695 -509Q705 -507 716 -507Q722 -505 720 -501Q717 -497 715 -493Q715 -475 701 -469Q690 -467 673 -459Q663 -459 647 -454Q627 -448 615 -449Q612 -452 609 -444Q607 -428 601 -412Q601 -409 599 -403L596 -388Q595 -383 594 -379Q594 -374 591 -368Q589 -362 594 -357Q609 -361 624 -366Q633 -368 641 -371Q646 -371 649 -377Q652 -383 656 -380Q660 -378 668 -385Q674 -391 678 -389Q681 -382 687 -383Q693 -383 698 -382Q706 -379 715 -378Q724 -377 728 -370Q723 -360 725 -351Q723 -346 719 -342Q714 -337 710 -340Q706 -343 702 -339Q698 -336 696 -336Q694 -333 688 -334Q682 -335 680 -331Q658 -325 642 -323Q629 -318 615 -314Q610 -313 604 -311Q598 -309 594 -314Q582 -311 590 -295Q595 -290 605 -289Q611 -292 617 -295Q622 -292 625 -289Q627 -285 632 -287Q646 -286 655 -278Q668 -276 655 -256Q649 -254 646 -249Q643 -243 639 -239Q633 -223 622 -210Q622 -199 613 -192Q613 -189 604 -164Q595 -150 592 -133Q591 -124 590 -115Q587 -80 592 -71Q594 -60 606 -52Q612 -48 629 -40Q687 -28 722 -29Q770 -33 817 -29Q849 -29 859 -35Q863 -40 873 -42Q880 -44 883 -48Q885 -70 883 -92Q887 -112 883 -151Q879 -165 882 -166Q889 -154 888 -142Q896 -129 895 -114Q898 -103 900 -92Q905 -90 903 -81Q901 -73 904 -71Q911 -63 916 -77Q916 -79 917 -80Q920 -79 918 -73Q916 -58 925 -44Q925 -36 939 -31Q943 -28 951 -29Q958 -30 960 -28Q965 -24 960 -17Q957 -12 950 -8Q944 -7 939 4Q933 15 925 13Q923 8 916 12Q912 15 910 14Q897 21 886 17Q862 22 835 23Q826 24 817 24Q777 20 758 20Q743 25 732 19Q728 22 717 22Q700 21 684 20Q668 19 654 13Q636 11 628 5Q623 7 618 2Q612 -3 609 -1Q598 -7 586 -14Q581 -19 572 -24Q559 -31 556 -37Q544 -50 533 -78Q527 -131 538 -158Q537 -160 538 -161Q539 -161 544 -163Q552 -176 548 -184Q550 -198 554 -202Q558 -212 561 -223Q571 -228 575 -242Q575 -246 581 -253Q589 -262 588 -268Q583 -270 577 -268Q571 -266 570 -261Q565 -259 559 -252Q554 -245 550 -244Q548 -240 543 -236Q538 -232 540 -228Q527 -205 504 -194Q502 -189 495 -183Q488 -177 486 -173Q480 -168 477 -162Q473 -156 466 -155Q460 -148 452 -145Q445 -135 435 -129Q434 -124 431 -124Q427 -123 423 -126Q414 -126 414 -139Q408 -156 411 -164Q414 -169 417 -175Q421 -182 428 -183Q458 -206 478 -234Q502 -261 526 -289Q531 -293 531 -298Q530 -299 528 -298Q518 -297 508 -297Q504 -293 489 -293Q481 -293 477 -289Q463 -284 440 -279Q422 -272 400 -268Q387 -266 374 -265Q354 -263 336 -271Q328 -275 305 -277Q310 -281 314 -285Q348 -293 381 -304Q394 -308 408 -310Q430 -316 431 -317Q436 -317 445 -321Q457 -326 463 -325Q478 -329 493 -333Q500 -334 507 -335Q516 -336 528 -343Q536 -381 544 -420Q546 -428 539 -430Q533 -431 528 -427Q511 -423 506 -417Q492 -412 478 -414Q469 -414 459 -414Q453 -420 446 -422Q443 -428 432 -435Q420 -442 417 -450Q413 -467 422 -485Q428 -497 444 -515Q447 -521 452 -521Q456 -521 461 -520Q466 -517 475 -503Q488 -496 481 -478Q478 -467 477 -457Q499 -461 520 -469Q536 -472 552 -480Q551 -493 554 -541Q556 -565 557 -589Q556 -602 559 -625Q563 -651 561 -666Q562 -675 562 -686Q563 -698 554 -704Q547 -703 543 -708Q538 -715 546 -718Q558 -722 569 -726ZM243 -576L274 -574Q306 -572 315 -564Q317 -555 327 -547Q325 -530 315 -532Q301 -534 299 -519Q297 -521 293 -520Q288 -519 286 -521Q261 -530 235 -534Q211 -540 191 -556Q185 -557 185 -563Q186 -568 192 -567Q193 -567 223 -574Q232 -573 243 -576ZM216 -420Q217 -417 218 -415Q227 -401 232 -387Q220 -383 232 -363Q229 -359 232 -352Q234 -347 233 -344Q234 -337 230 -329Q226 -322 226 -319Q218 -305 215 -289Q212 -278 208 -268Q210 -259 206 -243Q203 -230 203 -224Q200 -220 201 -213Q202 -208 200 -206Q205 -191 200 -176Q201 -171 201 -155Q201 -136 205 -127Q205 -119 211 -117Q218 -115 222 -112Q232 -101 242 -113L289 -148Q295 -154 303 -159Q310 -164 313 -173Q321 -189 331 -203Q333 -187 328 -176Q327 -170 327 -164Q327 -158 320 -155Q314 -141 305 -125Q304 -116 298 -110Q291 -104 286 -98Q284 -94 279 -88Q272 -81 271 -77Q261 -71 247 -68Q237 -66 232 -71Q228 -69 214 -72Q194 -82 191 -87Q181 -91 165 -112Q146 -134 142 -176Q140 -219 147 -245Q146 -269 152 -290Q157 -311 162 -333Q169 -353 176 -373Q184 -393 198 -410Q202 -410 216 -420ZM591 -289Q589 -285 591 -280Q588 -275 592 -273Q594 -273 594 -277Q599 -286 591 -289Z"/>
</svg>