<svg xmlns="http://www.w3.org/2000/svg" viewBox="0 -800 1024 1024">
	<path fill="#000000" d="M770 -671Q813 -675 828 -651Q845 -635 848 -613Q850 -592 855 -572Q853 -539 852 -537Q860 -502 858 -483Q859 -444 860 -406Q857 -347 856 -293Q860 -279 859 -246Q858 -217 862 -203Q862 -109 858 -74Q846 -41 837 -10Q829 -6 819 8Q809 22 800 27L755 -18Q748 -20 729 -29Q708 -39 695 -41H702Q714 -41 724 -38Q739 -39 755 -42Q770 -44 777 -58Q777 -68 781 -86Q786 -111 784 -126Q789 -130 786 -140Q783 -150 787 -155Q792 -188 789 -223Q792 -236 789 -264Q786 -296 791 -312Q791 -372 791 -432Q790 -471 791 -509Q790 -528 791 -546Q787 -557 785 -585Q783 -618 774 -633Q761 -634 747 -635Q730 -638 716 -631Q702 -624 687 -618Q703 -654 770 -671ZM351 -602Q413 -595 448 -572Q448 -560 443 -549Q437 -536 428 -536Q426 -536 420 -540Q400 -542 371 -566Q344 -588 330 -591Q327 -596 333 -598Q343 -599 351 -602ZM143 -550H165Q183 -549 201 -548Q232 -540 245 -529Q243 -521 242 -512Q241 -503 234 -496Q218 -493 203 -502Q187 -511 171 -517Q169 -521 160 -525Q147 -532 145 -540Q133 -546 143 -550ZM617 -505Q632 -503 633 -500Q663 -468 653 -439Q656 -429 654 -411Q652 -395 653 -387Q648 -375 645 -363Q642 -350 633 -339Q619 -335 613 -348Q606 -362 601 -373Q589 -384 592 -401Q595 -417 596 -432Q597 -452 601 -472Q605 -492 588 -506Q590 -509 593 -509Q604 -504 617 -505ZM441 -491H445Q476 -489 486 -484Q511 -467 506 -428Q501 -413 499 -398Q496 -383 482 -373Q477 -360 468 -350Q460 -340 453 -330Q460 -320 480 -310Q496 -302 502 -297Q517 -283 534 -271Q550 -260 549 -237Q541 -230 535 -216Q500 -227 472 -253Q445 -278 415 -296Q405 -291 391 -278Q375 -262 363 -260Q352 -252 330 -241Q326 -245 321 -245Q317 -245 309 -242Q298 -238 293 -240Q310 -252 327 -264Q340 -278 354 -290Q367 -302 374 -318Q336 -339 297 -360Q291 -365 292 -366Q300 -365 315 -364Q359 -366 398 -354Q419 -375 435 -412Q438 -419 444 -428Q450 -437 444 -443Q421 -424 387 -424Q369 -424 344 -431Q319 -435 322 -439Q344 -443 381 -465Q419 -487 441 -491ZM162 -416H165Q174 -396 191 -379Q192 -364 181 -341Q171 -320 171 -307Q165 -298 167 -277Q169 -258 165 -249Q164 -222 166 -199Q168 -190 168 -181Q169 -172 175 -166Q203 -205 215 -224Q235 -258 242 -289Q246 -274 245 -263Q249 -237 232 -207Q240 -204 238 -197Q236 -191 237 -185Q241 -166 234 -149Q226 -132 219 -116Q213 -114 211 -104Q209 -95 203 -93Q176 -99 154 -114Q129 -132 119 -156Q100 -223 108 -297Q126 -379 162 -416Z"/>
</svg>