<svg xmlns="http://www.w3.org/2000/svg" viewBox="0 -800 1024 1024">
	<path fill="#000000" d="M559 -749Q560 -749 561 -749H566Q567 -749 568 -749Q576 -747 582 -748Q626 -741 640 -736Q646 -734 653 -732Q659 -731 662 -725Q672 -722 674 -712Q676 -702 667 -698Q667 -693 665 -693Q661 -693 656 -694Q652 -694 651 -690Q651 -687 649 -687Q646 -687 644 -687Q642 -682 639 -684Q635 -688 631 -686Q631 -681 629 -681Q625 -683 620 -684Q603 -689 569 -719Q563 -725 555 -729Q547 -734 545 -743Q543 -746 545 -747Q552 -746 559 -749ZM772 -690Q779 -690 782 -688Q788 -689 790 -683Q793 -676 794 -675Q794 -669 793 -662Q792 -656 784 -653Q781 -650 769 -645Q765 -645 760 -642Q754 -642 744 -637Q735 -632 712 -628Q707 -625 692 -622Q676 -619 668 -612Q653 -611 644 -600Q635 -589 626 -578Q611 -558 600 -537Q591 -523 583 -509Q584 -505 582 -497Q580 -489 582 -484Q592 -485 607 -494Q621 -503 626 -504Q644 -513 664 -519Q686 -529 708 -535Q713 -534 720 -536Q760 -544 799 -541Q812 -538 815 -535Q820 -536 832 -534Q833 -531 838 -529Q844 -527 846 -523Q847 -517 852 -512Q858 -505 859 -496Q865 -485 868 -475Q864 -467 866 -457Q860 -449 859 -442Q858 -436 852 -428Q847 -422 846 -418Q840 -420 836 -414Q837 -408 831 -405Q826 -403 826 -401Q827 -397 821 -393Q818 -391 817 -388Q808 -383 799 -378Q800 -374 797 -371Q794 -369 791 -366Q789 -360 783 -359Q781 -358 783 -355Q792 -357 799 -352Q803 -353 804 -353Q802 -350 802 -345Q802 -337 802 -329Q803 -324 808 -322Q809 -320 806 -319Q799 -320 798 -314Q793 -311 787 -309Q782 -304 776 -303Q767 -302 757 -301Q728 -299 718 -295Q692 -295 657 -290Q615 -288 587 -299Q581 -302 573 -304Q565 -306 560 -313Q585 -314 641 -329Q675 -336 708 -344Q722 -346 735 -349Q740 -351 745 -360Q751 -371 756 -373Q759 -385 769 -391Q771 -398 776 -403Q781 -409 777 -416Q784 -429 790 -443Q792 -455 797 -468Q802 -480 793 -491Q789 -499 780 -500Q772 -501 765 -501Q744 -499 730 -495Q719 -490 708 -491Q688 -485 667 -476Q658 -474 636 -472Q625 -464 611 -467Q603 -472 593 -475Q584 -477 576 -473Q571 -453 566 -433Q565 -416 558 -403Q550 -370 549 -357Q548 -346 553 -331Q553 -329 553 -327V-318Q553 -316 553 -314Q558 -305 549 -300Q548 -296 546 -297Q541 -301 536 -304Q528 -316 516 -321Q500 -323 495 -340Q488 -347 491 -357Q494 -367 495 -376Q500 -380 496 -386Q499 -392 495 -400Q512 -451 522 -470Q525 -492 545 -512Q554 -530 560 -539Q574 -555 587 -572Q590 -576 595 -581Q601 -586 600 -591Q575 -586 574 -585Q548 -577 521 -572Q514 -570 498 -575Q489 -578 482 -578Q471 -581 459 -584Q448 -584 436 -584Q435 -586 430 -586Q425 -586 425 -589Q433 -590 441 -591Q461 -595 480 -603Q486 -602 494 -605Q505 -608 510 -607Q522 -614 536 -616Q582 -629 619 -645Q640 -651 660 -657Q667 -661 674 -663Q682 -664 685 -672Q685 -678 695 -673Q701 -678 712 -684Q715 -689 726 -685Q734 -682 737 -683Q768 -689 772 -690ZM300 -581Q307 -580 313 -580Q315 -575 320 -577Q326 -579 329 -575Q327 -563 335 -563Q336 -556 331 -549Q326 -542 322 -534Q305 -536 291 -532Q280 -534 263 -525Q261 -526 256 -524Q252 -522 251 -525Q255 -531 249 -536Q243 -541 236 -540L220 -547Q212 -551 203 -557Q196 -560 189 -563Q188 -566 204 -569Q214 -573 227 -575Q240 -584 260 -578Q280 -579 300 -581ZM223 -408Q226 -405 231 -403Q236 -402 236 -396Q245 -391 252 -385Q253 -376 259 -369Q263 -364 256 -356Q251 -350 252 -345Q241 -329 235 -310Q236 -297 230 -289Q232 -281 227 -264Q221 -244 227 -234L224 -214Q224 -199 224 -184L225 -141Q229 -137 229 -128Q229 -117 233 -113Q233 -104 235 -99Q238 -90 245 -93Q286 -119 333 -179Q354 -199 375 -245Q376 -248 377 -248Q380 -244 377 -236Q368 -226 374 -201Q369 -183 362 -171Q361 -162 355 -157Q350 -151 345 -144Q336 -124 326 -105Q324 -100 316 -93Q310 -88 308 -85Q304 -83 299 -73Q296 -66 291 -64Q283 -63 278 -55Q271 -52 261 -52Q244 -52 235 -60Q225 -61 214 -66Q204 -68 195 -74Q185 -81 184 -90Q170 -99 164 -125Q160 -140 158 -155Q160 -162 159 -175Q157 -191 159 -196Q163 -236 175 -274Q174 -287 178 -298Q188 -335 203 -374Q207 -382 211 -392Q214 -401 223 -408ZM707 -266Q730 -264 741 -261Q748 -259 746 -251Q745 -245 746 -242Q751 -233 746 -225Q741 -217 736 -210Q738 -200 721 -190Q715 -189 709 -189Q707 -192 705 -190Q703 -185 699 -185Q696 -183 687 -185Q679 -187 675 -183Q667 -181 670 -175Q674 -169 679 -166Q691 -165 707 -153Q715 -150 726 -141Q731 -141 735 -141Q790 -150 808 -147Q823 -143 821 -129Q821 -119 821 -110Q808 -107 794 -105Q774 -101 754 -97Q746 -96 738 -95Q736 -91 741 -87Q741 -79 741 -72Q740 -56 734 -40Q735 -21 719 -3Q721 2 716 12Q712 20 712 24Q687 51 687 52Q678 51 671 39Q670 39 655 20Q651 15 642 15Q633 15 631 9Q660 -4 666 -8Q679 -29 682 -51Q685 -66 688 -82Q688 -85 687 -87L664 -84Q657 -83 647 -81Q624 -78 600 -75Q559 -66 542 -71Q530 -77 513 -77Q509 -77 508 -79Q509 -83 515 -85Q548 -95 579 -107Q583 -110 598 -112Q611 -114 617 -119L662 -130Q671 -130 675 -131Q670 -137 662 -140Q651 -142 647 -152Q642 -161 638 -170Q630 -189 649 -200Q649 -203 654 -208Q659 -213 658 -215Q637 -215 622 -221Q615 -223 607 -226Q599 -230 597 -239Q602 -234 611 -236Q619 -238 627 -240Q653 -245 677 -256Q693 -259 707 -266Z"/>
</svg>