<svg xmlns="http://www.w3.org/2000/svg" viewBox="0 -800 1024 1024">
	<path fill="#000000" d="M394 -770Q397 -771 402 -768Q406 -766 409 -766Q423 -763 437 -760Q446 -760 450 -752Q454 -744 459 -739Q467 -730 459 -719Q463 -715 462 -706Q455 -701 450 -707Q445 -703 439 -706Q425 -701 413 -705Q388 -714 362 -723Q338 -729 316 -739Q313 -742 314 -743Q319 -744 325 -745Q331 -755 340 -757Q350 -759 359 -761Q377 -764 394 -770ZM646 -722H655Q660 -724 664 -720Q668 -716 671 -718Q677 -716 680 -701Q682 -687 689 -685Q688 -677 681 -675Q674 -672 666 -670Q664 -672 661 -670Q658 -668 656 -670Q645 -665 637 -664Q617 -661 596 -658Q584 -652 570 -650Q568 -648 563 -650Q557 -652 556 -648Q543 -642 515 -636Q509 -634 511 -630Q514 -626 520 -627Q533 -614 540 -603Q543 -597 540 -587Q537 -577 540 -572Q537 -562 544 -550Q544 -532 539 -512Q538 -496 538 -484Q536 -465 534 -446Q536 -433 537 -421Q532 -418 535 -412Q538 -407 536 -405Q535 -387 534 -369Q534 -363 536 -357Q538 -351 533 -346Q533 -340 533 -333Q533 -327 526 -325Q523 -325 519 -325Q514 -325 513 -320Q511 -316 509 -317Q506 -324 501 -324L485 -341Q483 -339 480 -344Q476 -349 473 -348Q468 -354 463 -361Q463 -371 463 -381Q469 -398 471 -417Q470 -425 473 -438Q477 -454 473 -462Q476 -474 478 -507Q481 -541 486 -559Q488 -582 486 -605Q483 -628 472 -625Q452 -620 432 -616Q431 -615 406 -610Q400 -607 403 -603Q407 -600 411 -597Q424 -595 428 -573Q427 -568 433 -543Q430 -534 432 -526Q421 -517 422 -505Q427 -499 425 -486Q424 -476 425 -470Q410 -443 405 -408Q406 -400 402 -396Q398 -391 394 -387Q392 -382 389 -381Q385 -380 383 -378Q374 -374 363 -387Q355 -389 347 -401Q347 -404 342 -409Q335 -417 337 -423Q342 -420 345 -428Q347 -434 350 -435Q348 -432 350 -428Q352 -424 356 -426Q359 -436 362 -446Q364 -449 360 -455Q357 -460 358 -464Q362 -471 367 -491Q366 -503 374 -522Q380 -537 381 -542Q382 -553 384 -566Q387 -579 383 -591Q381 -592 380 -597Q378 -603 374 -604Q366 -601 358 -598L320 -587Q304 -584 287 -578Q271 -573 253 -574Q232 -577 211 -581Q199 -578 186 -586Q181 -589 183 -591Q189 -593 195 -593Q217 -604 238 -611Q251 -611 260 -617Q273 -622 292 -627Q300 -629 308 -632Q318 -636 325 -636Q332 -638 339 -641Q349 -643 353 -644L383 -653Q387 -654 397 -656Q410 -657 431 -665Q452 -673 461 -674Q488 -682 515 -691Q521 -690 530 -694Q537 -697 541 -697Q565 -704 589 -715Q608 -720 629 -719Q638 -720 646 -722ZM599 -518Q605 -515 617 -517Q624 -518 629 -517Q660 -521 677 -507Q681 -503 693 -499Q705 -495 710 -490Q715 -488 714 -485Q713 -481 712 -478Q716 -467 717 -457Q719 -454 716 -449Q713 -444 713 -441Q717 -436 711 -433Q710 -433 700 -431Q692 -435 680 -435Q671 -437 661 -440Q646 -443 624 -465Q609 -481 599 -486Q595 -498 587 -507Q583 -512 587 -514Q593 -515 599 -518ZM314 -504Q339 -496 338 -483Q339 -471 334 -462Q328 -454 325 -445Q321 -437 321 -422Q321 -408 320 -404Q315 -396 315 -388Q315 -392 308 -391Q305 -397 301 -398Q296 -400 295 -393Q291 -396 284 -393Q283 -395 279 -399Q273 -404 272 -409Q269 -426 260 -425Q256 -430 252 -436Q250 -440 254 -441Q259 -441 263 -443Q265 -444 265 -446Q269 -457 272 -470Q277 -474 281 -479Q285 -485 293 -486Q295 -493 304 -497Q312 -501 314 -504ZM465 -293Q470 -292 474 -292Q486 -290 498 -288Q510 -287 519 -279Q528 -276 530 -267Q532 -259 537 -252Q535 -243 545 -243Q559 -246 573 -249Q588 -252 603 -255Q626 -260 649 -266Q654 -271 668 -271Q675 -270 682 -271Q688 -272 695 -268Q704 -274 712 -268Q719 -270 735 -265Q741 -263 740 -253Q739 -244 743 -241Q749 -240 748 -234Q747 -229 742 -226Q741 -220 736 -220Q730 -219 726 -217Q721 -220 713 -217Q692 -217 675 -215L629 -204Q605 -201 583 -201Q570 -195 554 -193Q546 -187 547 -179Q547 -170 546 -162Q547 -156 546 -149Q544 -142 551 -139Q570 -138 589 -137Q593 -136 602 -136Q616 -136 621 -133Q639 -137 649 -131Q668 -133 678 -124Q682 -128 687 -126Q692 -125 697 -124Q720 -120 742 -116Q752 -114 761 -110Q770 -105 778 -100Q784 -94 792 -89Q799 -84 794 -75Q795 -71 793 -71Q789 -71 790 -67Q793 -63 792 -59Q791 -55 786 -55Q784 -61 780 -59Q776 -55 775 -50Q775 -46 773 -46Q770 -47 765 -47Q755 -51 745 -56Q741 -55 737 -59Q732 -64 729 -60Q723 -63 707 -68Q703 -67 696 -71Q690 -74 687 -73L659 -79Q654 -82 640 -84Q626 -87 618 -92Q605 -95 592 -98Q577 -106 559 -109Q555 -112 552 -107Q549 -101 553 -99Q554 -84 551 -73Q552 -62 553 -52Q553 -33 553 -15Q552 -1 547 13Q551 21 541 38Q547 52 537 59Q531 60 531 69Q531 76 528 79Q527 86 518 93Q510 99 509 102Q508 109 503 107Q498 105 496 101Q485 98 477 83Q467 64 462 60Q459 61 457 57Q456 54 453 54Q452 52 459 50Q466 48 464 43Q461 40 469 39Q471 37 476 37Q482 37 484 33Q495 -4 496 -45Q498 -73 496 -100Q497 -108 495 -115Q493 -119 488 -116Q483 -114 479 -105Q475 -96 469 -94Q456 -76 455 -74Q449 -68 445 -60Q440 -52 431 -48Q405 -15 389 -10Q378 -1 366 8Q359 11 351 14Q347 5 357 -10Q356 -14 362 -17Q367 -20 369 -24Q377 -32 397 -64Q407 -73 414 -85Q421 -97 430 -109Q444 -138 458 -167Q461 -173 457 -174Q450 -175 444 -173Q440 -174 432 -171Q422 -168 417 -172Q410 -165 399 -167Q374 -161 348 -158Q338 -157 330 -157Q312 -153 296 -158Q284 -159 275 -164Q271 -164 259 -168Q245 -172 235 -171Q236 -178 243 -179Q250 -181 254 -183Q294 -189 314 -193Q339 -199 364 -205Q373 -204 387 -208Q397 -211 402 -211Q409 -215 431 -217Q454 -224 481 -229Q495 -229 483 -256Q481 -265 474 -271Q468 -276 462 -284Q458 -291 465 -293Z"/>
</svg>