<svg xmlns="http://www.w3.org/2000/svg" viewBox="0 -800 1024 1024">
	<path fill="#000000" d="M479 -683Q482 -680 487 -681Q492 -682 494 -679Q498 -676 506 -676Q514 -676 516 -673Q525 -670 533 -670Q544 -664 544 -652Q543 -639 543 -626Q531 -618 529 -600Q519 -596 519 -581Q517 -575 514 -568Q511 -562 517 -558Q536 -562 564 -573Q574 -574 590 -581Q606 -588 614 -589Q630 -592 645 -596Q657 -599 673 -599Q686 -599 696 -596Q705 -599 717 -594Q720 -590 731 -587Q747 -583 750 -573Q757 -562 760 -546Q773 -534 765 -517Q770 -491 761 -480Q768 -473 760 -461Q758 -445 756 -430Q750 -423 748 -404Q744 -400 743 -388Q742 -378 738 -374Q731 -353 720 -340Q709 -320 698 -301Q693 -292 687 -283Q689 -275 680 -271Q674 -268 674 -265Q662 -250 646 -236Q644 -230 648 -223Q652 -216 659 -217Q689 -238 750 -266Q767 -274 784 -283Q798 -290 846 -304Q861 -309 887 -311Q889 -308 896 -310Q901 -312 904 -309Q924 -307 937 -293Q945 -292 948 -284Q951 -277 953 -270Q956 -260 948 -252Q944 -250 939 -246Q934 -242 928 -244Q917 -238 908 -223Q902 -226 900 -222Q897 -218 894 -215Q887 -211 875 -213Q869 -219 861 -218Q853 -217 845 -218Q837 -222 843 -229Q849 -235 854 -240Q862 -252 870 -265Q874 -269 871 -271Q867 -273 862 -270Q845 -270 821 -258Q806 -248 786 -240L772 -236Q766 -233 760 -230Q745 -222 730 -217Q720 -212 710 -208Q700 -202 672 -179Q662 -175 651 -166Q648 -161 651 -150Q655 -135 648 -129Q638 -125 625 -134Q624 -139 615 -144Q606 -149 604 -155Q606 -161 598 -169Q592 -176 591 -182Q603 -224 604 -228Q604 -232 608 -238Q612 -244 612 -247Q611 -259 603 -266Q596 -274 591 -283Q571 -294 565 -304Q565 -306 565 -307Q566 -307 570 -309Q586 -309 604 -307Q621 -306 635 -315Q646 -334 656 -353Q666 -370 671 -383Q683 -404 689 -429Q695 -446 701 -464Q709 -498 709 -514Q709 -544 691 -560Q671 -565 641 -559Q623 -552 604 -546Q574 -539 545 -527Q542 -529 534 -529Q525 -529 519 -533Q508 -534 496 -536Q492 -529 488 -521Q484 -513 491 -506Q498 -505 504 -494Q509 -486 511 -484Q511 -483 516 -468Q516 -457 508 -445Q507 -442 508 -441Q513 -442 519 -445Q537 -447 555 -450Q582 -443 590 -438Q603 -442 612 -426Q604 -411 603 -395Q600 -383 596 -372Q590 -359 583 -346Q576 -327 565 -314Q549 -305 540 -297Q541 -289 533 -282Q532 -281 517 -273Q506 -263 494 -251Q482 -238 468 -229Q455 -219 465 -207Q468 -205 471 -198Q474 -192 476 -191Q479 -176 482 -162Q487 -148 492 -135Q494 -119 514 -95Q520 -92 528 -82Q534 -75 539 -73Q559 -58 587 -50Q590 -43 597 -43Q603 -43 608 -41Q628 -39 648 -37Q681 -35 714 -34Q727 -34 739 -34L788 -37Q798 -38 807 -37Q817 -35 825 -40Q814 -66 802 -93Q804 -99 798 -105Q794 -109 794 -113Q801 -114 808 -106Q813 -100 818 -101Q828 -83 842 -76Q851 -76 860 -64Q866 -57 870 -55Q874 -48 885 -47Q893 -46 895 -44Q907 -43 914 -34Q936 -40 948 -30Q955 -31 957 -25Q959 -19 962 -14Q956 2 950 8Q947 14 942 12Q937 9 932 10Q924 12 916 15Q902 14 887 13Q847 13 839 14Q811 12 784 12Q775 12 766 12Q751 14 735 12Q704 10 672 8Q664 5 655 7Q635 3 614 -2Q583 -8 545 -28Q501 -52 491 -76Q483 -81 468 -104Q459 -115 456 -130Q452 -144 448 -159Q445 -168 435 -156Q430 -148 427 -138Q415 -120 402 -102Q401 -88 396 -77Q395 -71 387 -73Q381 -75 379 -73Q370 -71 366 -77Q363 -84 359 -91Q348 -98 355 -126Q380 -164 402 -184Q406 -190 417 -199Q431 -210 434 -217Q435 -222 441 -220Q446 -219 448 -220Q493 -280 504 -303Q506 -308 513 -317Q521 -325 522 -331Q541 -366 554 -403Q556 -409 555 -419Q555 -429 544 -429Q538 -424 523 -420Q510 -417 506 -414Q497 -413 496 -405Q495 -397 491 -392Q490 -383 485 -377Q479 -372 475 -366Q474 -363 460 -341Q456 -338 453 -342Q450 -347 447 -350Q440 -373 438 -398Q445 -415 465 -447Q473 -467 485 -484Q489 -491 486 -500Q484 -504 479 -500Q477 -491 471 -485Q465 -480 459 -474Q449 -477 446 -485Q442 -493 437 -500Q431 -508 427 -515Q420 -537 444 -570Q454 -586 459 -600Q470 -622 480 -658Q484 -671 479 -683ZM215 -641H217Q227 -626 236 -612Q238 -607 236 -600Q234 -591 236 -588Q238 -583 236 -576Q234 -568 236 -564Q235 -561 238 -554Q241 -547 239 -542Q236 -516 248 -512Q261 -514 273 -516Q274 -518 276 -517Q278 -511 283 -514Q285 -511 299 -509Q301 -513 307 -508Q312 -504 315 -504Q319 -498 329 -500Q338 -502 342 -500Q351 -504 357 -494Q358 -490 365 -485Q375 -477 376 -469Q379 -460 360 -448Q351 -450 342 -453Q326 -453 312 -457Q305 -457 300 -453Q297 -451 293 -449L280 -439Q277 -437 273 -435Q266 -428 255 -425Q244 -423 242 -410Q239 -407 238 -392Q237 -383 235 -378Q237 -358 239 -339Q241 -334 239 -321Q237 -312 239 -306Q237 -289 237 -287Q241 -273 238 -261Q241 -246 237 -235Q242 -219 239 -200Q242 -191 242 -186Q237 -161 243 -145Q235 -134 247 -118Q245 -114 247 -107Q248 -102 247 -98Q244 -92 245 -82Q246 -67 239 -64Q234 -65 230 -57Q226 -50 222 -49Q213 -51 209 -58Q204 -65 200 -72Q189 -77 184 -87Q178 -97 175 -107Q178 -124 178 -192Q178 -210 180 -223Q180 -228 183 -235Q187 -243 184 -247Q186 -285 188 -324Q187 -338 191 -346Q188 -349 191 -357Q195 -365 189 -367Q188 -371 185 -371Q183 -371 179 -365Q173 -357 170 -357Q164 -348 157 -342Q149 -335 146 -324Q147 -318 137 -313Q129 -309 127 -306Q122 -303 118 -298Q113 -293 109 -296Q103 -301 96 -313Q88 -326 82 -332Q66 -342 74 -367Q76 -380 83 -393Q95 -416 104 -441Q107 -439 112 -444Q117 -449 121 -445Q118 -433 126 -417Q132 -405 132 -400Q135 -394 131 -385Q127 -376 128 -372Q142 -378 153 -390Q158 -397 178 -413Q194 -426 196 -440Q192 -451 196 -463Q195 -487 194 -511Q195 -518 195 -533V-556Q195 -583 200 -599Q199 -623 215 -641ZM244 -495Q240 -493 240 -488Q240 -483 238 -479Q239 -467 244 -459L267 -474Q275 -478 271 -483Q266 -489 259 -493Q256 -491 252 -494Q246 -497 244 -495Z"/>
</svg>