<svg xmlns="http://www.w3.org/2000/svg" viewBox="0 -800 1024 1024">
	<path fill="#000000" d="M671 -652Q718 -650 731 -636Q744 -624 745 -607Q746 -590 750 -575Q742 -554 744 -529Q746 -523 742 -509Q738 -494 745 -489Q793 -500 824 -502Q839 -505 851 -500Q865 -494 869 -481Q866 -477 863 -467Q859 -453 852 -448Q820 -442 788 -436Q775 -435 760 -432Q745 -429 743 -415Q739 -411 740 -404Q741 -398 739 -394Q741 -382 737 -358Q732 -333 736 -320Q734 -316 736 -305Q738 -294 736 -289Q735 -257 740 -223Q742 -202 743 -182Q744 -177 741 -169Q738 -161 740 -158Q740 -117 731 -79Q731 -70 725 -54Q720 -41 720 -33Q705 -27 702 -10Q669 -21 660 -52Q648 -57 639 -66Q630 -76 620 -84Q634 -79 648 -75Q655 -74 665 -74Q674 -74 676 -82Q685 -195 684 -268Q685 -277 683 -287Q681 -292 676 -289Q611 -230 543 -178Q537 -177 529 -168Q523 -161 518 -159Q511 -155 501 -156Q490 -157 489 -164Q508 -175 523 -194Q538 -212 553 -229Q569 -243 590 -272Q608 -297 615 -305Q620 -316 637 -340Q656 -367 662 -383Q669 -389 667 -395Q665 -400 657 -403Q626 -398 596 -388Q570 -382 532 -384Q524 -388 506 -387Q490 -386 482 -390Q471 -386 463 -377Q456 -369 447 -361Q428 -346 411 -330Q404 -323 391 -313Q369 -296 363 -287Q347 -276 348 -256Q348 -236 342 -219Q344 -163 339 -112Q337 -101 337 -91Q336 -80 328 -74Q330 -66 321 -60Q313 -55 307 -59Q292 -70 287 -75Q275 -86 273 -97Q280 -107 271 -113Q266 -135 275 -172Q272 -177 275 -190Q278 -203 273 -209Q265 -207 238 -187Q228 -183 218 -176Q208 -170 196 -168Q183 -169 171 -185Q159 -201 164 -214Q210 -279 259 -342Q259 -347 266 -355Q275 -365 273 -371Q251 -368 225 -361Q218 -363 205 -359Q191 -355 185 -357Q167 -355 153 -363Q139 -371 125 -379Q124 -379 123 -380Q134 -384 135 -379Q162 -386 189 -394Q245 -408 280 -426Q291 -425 294 -435Q296 -444 289 -451Q297 -449 298 -453Q300 -458 301 -462Q303 -502 300 -540Q304 -552 288 -569Q276 -582 275 -591Q270 -598 272 -602Q274 -605 281 -605Q291 -605 296 -601Q302 -593 320 -588Q338 -583 344 -575Q358 -564 357 -546Q356 -529 356 -511Q358 -486 356 -466Q355 -452 364 -452Q376 -451 388 -453Q431 -455 437 -434Q443 -419 424 -402Q418 -400 401 -399Q382 -398 374 -394Q358 -396 355 -380Q355 -377 356 -352Q355 -345 354 -335Q352 -324 360 -321Q382 -338 418 -364Q469 -400 491 -419Q494 -421 495 -422Q495 -421 491 -416Q487 -411 489 -407Q485 -403 486 -402Q492 -401 498 -403Q540 -425 585 -437Q630 -450 675 -466Q690 -466 690 -479Q692 -547 685 -615Q674 -621 659 -627Q644 -632 638 -649Q648 -645 671 -652Z"/>
</svg>