<svg xmlns="http://www.w3.org/2000/svg" viewBox="0 -800 1024 1024">
	<path fill="#000000" d="M110 -471H108Q99 -472 95 -477V-490H98Q104 -488 106 -482Q107 -477 110 -471ZM492 -17Q491 -13 483 -13Q477 -13 471 -14L470 -18Q470 -24 477 -24Q487 -24 492 -17ZM847 -332Q845 -320 834 -319L830 -320Q829 -322 829 -325Q830 -334 839 -335Q844 -335 847 -332ZM73 -230H76Q71 -218 68 -204Q61 -205 61 -215Q62 -228 73 -230ZM342 -135V-114Q329 -114 329 -132Q334 -136 337 -136Q340 -136 342 -135ZM684 -320H679Q668 -320 650 -311Q640 -306 634 -305Q633 -304 629 -304H624Q620 -304 618 -303Q610 -299 604 -282Q649 -300 690 -308L691 -310Q688 -315 684 -320ZM683 -403V-404Q666 -395 639 -384Q622 -376 617 -373Q605 -366 604 -356Q612 -358 636 -368Q659 -378 675 -381Q679 -392 683 -403ZM366 40V42Q365 56 350 69Q334 82 316 82H314Q313 83 308 93Q306 89 304 84Q292 74 279 64Q266 55 257 40Q252 32 245 6Q239 -14 233 -27Q227 -39 211 -56Q198 -70 193 -78H194Q200 -78 210 -70Q221 -61 228 -60Q246 -73 249 -103Q252 -133 252 -165Q256 -200 259 -236Q259 -243 257 -257Q218 -250 199 -240Q193 -240 173 -248Q158 -254 153 -254Q147 -254 142 -249Q136 -244 132 -243L131 -246Q131 -249 135 -252Q138 -255 138 -256V-257Q134 -266 115 -266H113Q102 -264 94 -255Q85 -246 82 -243Q80 -247 80 -249Q80 -256 92 -266Q103 -275 104 -279Q102 -286 96 -294Q89 -302 88 -308Q55 -307 33 -297Q35 -304 53 -316Q80 -334 80 -348Q80 -353 77 -359Q74 -365 59 -369Q47 -372 42 -377Q47 -380 51 -380Q66 -376 81 -373Q84 -373 86 -374Q100 -377 100 -394Q100 -405 94 -413H95Q99 -413 103 -409Q107 -405 111 -405H112Q124 -410 124 -423Q124 -431 112 -461Q118 -456 129 -447Q140 -439 149 -438Q159 -438 160 -458Q182 -430 214 -411Q216 -411 218 -415Q221 -419 225 -419H227Q226 -416 226 -410Q227 -390 239 -374Q251 -358 260 -341Q263 -375 263 -409Q263 -472 248 -596Q238 -609 238 -628Q238 -633 239 -636Q240 -642 249 -650Q256 -656 258 -660Q261 -669 264 -678H266Q269 -678 270 -675Q293 -707 319 -707Q329 -707 339 -701Q346 -696 358 -676Q370 -656 380 -650Q385 -620 389 -590Q389 -581 386 -572Q381 -564 375 -557Q374 -550 372 -543Q362 -525 360 -518Q360 -514 359 -510Q360 -500 360 -491Q360 -483 359 -479Q362 -478 368 -478H376Q386 -478 392 -473Q395 -475 402 -485Q407 -493 415 -493Q411 -481 407 -469Q407 -465 409 -462L411 -461Q414 -463 417 -465H419Q419 -455 430 -434Q441 -414 442 -402V-399Q442 -391 441 -384Q441 -380 442 -377Q448 -366 454 -356H453Q447 -358 442 -362Q426 -352 426 -331Q426 -321 428 -315Q424 -317 422 -327Q421 -333 419 -336Q414 -341 403 -341Q383 -341 381 -327Q377 -328 377 -335L378 -339Q365 -347 351 -356Q341 -325 341 -257V-202Q341 -166 339 -149Q332 -156 332 -178Q333 -197 334 -216Q334 -238 326 -246Q311 -216 311 -145Q311 -122 313 -84Q317 -19 342 4Q348 -2 348 -11Q344 -32 340 -53Q340 -61 344 -68Q353 -54 355 -30Q358 -6 360 16Q363 28 366 40ZM970 -164L964 -147Q970 -136 970 -125Q970 -110 962 -100Q953 -89 939 -89Q937 -89 929 -91L928 -90L929 -86Q926 -86 925 -89Q924 -94 923 -95Q908 -108 881 -110Q854 -113 831 -117Q821 -115 815 -115Q801 -115 787 -116Q765 -116 757 -107Q758 -102 758 -92Q758 -70 744 -30Q731 8 716 10Q716 -3 730 -25Q742 -45 742 -56Q742 -61 741 -63Q720 -50 704 -24Q688 1 672 24Q654 42 650 62Q650 69 653 75Q662 73 672 62Q682 51 689 51Q693 51 695 52Q693 68 672 84Q650 104 628 109Q605 95 581 84Q579 59 558 46Q537 34 517 22Q519 21 522 21Q541 26 562 33Q549 23 529 15Q522 13 513 12Q505 11 502 3L562 12Q558 2 534 -2Q513 -4 495 -14Q503 -17 510 -17Q538 -12 566 -8Q570 -8 573 -9Q587 -12 609 -36Q629 -58 653 -95Q572 -86 490 -54Q477 -48 463 -39Q450 -30 436 -29H434Q421 -29 403 -48Q387 -65 374 -68Q371 -72 371 -85V-101Q375 -105 386 -122Q399 -143 412 -150H416Q423 -150 434 -156Q441 -160 449 -162Q448 -158 441 -154Q434 -150 433 -144Q437 -137 454 -135Q464 -136 474 -138Q481 -138 482 -132Q480 -128 467 -128Q454 -128 452 -122Q456 -108 473 -108Q495 -110 522 -117Q544 -121 562 -124Q580 -127 593 -135Q588 -144 575 -144Q552 -140 529 -137Q524 -137 522 -138L521 -141Q522 -146 530 -146Q538 -147 545 -147Q594 -155 596 -156Q595 -161 593 -166V-168Q600 -186 627 -205Q652 -223 659 -236Q634 -228 608 -221Q582 -214 563 -201Q557 -197 548 -186Q535 -171 526 -167Q511 -173 494 -179Q478 -185 467 -197Q475 -221 479 -249V-255Q486 -263 498 -267Q503 -274 510 -276H512Q526 -271 539 -267H541Q564 -271 586 -276H588Q542 -292 514 -323H513Q511 -321 509 -320L507 -321Q506 -332 492 -347Q478 -361 476 -371Q480 -380 485 -391Q489 -402 498 -408Q512 -413 529 -413Q551 -420 575 -432Q644 -457 713 -483H711Q701 -483 676 -476Q651 -469 640 -469Q634 -469 631 -470Q635 -477 646 -480Q648 -481 667 -485Q689 -490 711 -495Q732 -501 747 -513Q740 -516 732 -516Q713 -512 693 -509Q590 -494 538 -462Q540 -455 548 -455Q561 -457 573 -460Q577 -460 581 -458Q580 -452 575 -451Q569 -450 565 -449Q538 -437 523 -419Q506 -416 489 -414Q476 -414 466 -419Q461 -432 443 -447Q421 -466 418 -482Q425 -507 427 -531Q429 -556 445 -572Q477 -599 493 -600Q491 -596 486 -592Q482 -588 481 -582Q481 -579 484 -576L486 -575Q487 -575 489 -579Q491 -584 494 -584H496Q499 -584 499 -580Q500 -576 501 -575Q558 -588 604 -602Q601 -628 582 -668Q577 -682 572 -694Q568 -707 556 -713Q559 -722 568 -730Q576 -738 585 -747Q598 -764 611 -780Q624 -795 649 -798H651Q663 -796 675 -794Q677 -787 687 -776Q699 -763 699 -753V-751L696 -750Q693 -750 687 -758Q682 -766 677 -767Q668 -762 668 -754Q672 -740 686 -723Q692 -713 696 -705Q701 -696 707 -694Q716 -698 716 -706Q712 -721 708 -737H710Q715 -737 721 -730Q728 -723 732 -722Q725 -710 725 -696Q725 -690 726 -686Q711 -667 702 -623Q727 -623 773 -642Q801 -652 828 -660Q856 -668 877 -686L879 -684Q879 -681 878 -678Q878 -675 881 -674Q902 -679 923 -685Q920 -677 906 -669Q890 -660 890 -651V-647H891Q896 -647 908 -653Q920 -659 930 -659Q923 -653 915 -646Q906 -638 905 -627Q905 -623 907 -617Q910 -617 913 -621Q916 -624 917 -624L920 -623L921 -620Q921 -618 918 -617Q914 -615 914 -612V-611Q915 -607 915 -599Q915 -575 898 -539Q856 -522 790 -507Q800 -490 805 -487Q813 -488 821 -490Q820 -486 818 -482Q822 -482 827 -489Q832 -496 836 -496L840 -495L841 -493Q841 -490 834 -484Q826 -477 826 -473Q826 -470 828 -468L829 -467Q832 -470 834 -473L837 -471Q836 -469 836 -463Q836 -451 852 -421Q849 -415 845 -410Q841 -405 841 -396L815 -390Q815 -398 824 -405Q830 -409 831 -414Q826 -425 816 -425Q798 -425 770 -395Q747 -370 747 -352Q747 -347 748 -345Q756 -347 768 -362Q780 -376 791 -376Q794 -375 796 -375Q793 -367 781 -355Q768 -343 766 -332Q782 -320 797 -320Q795 -316 795 -312Q795 -310 797 -308H799Q802 -308 808 -312Q817 -318 822 -318H825Q808 -309 805 -287Q802 -266 799 -246Q796 -227 760 -214Q720 -200 714 -188Q715 -181 722 -178Q729 -176 734 -173Q736 -173 793 -179Q812 -181 830 -183Q840 -183 847 -179Q837 -174 806 -172Q768 -169 758 -159Q760 -152 769 -152Q775 -152 781 -153Q862 -158 892 -168V-170Q892 -177 879 -177Q865 -178 865 -185Q879 -190 895 -194Q910 -198 919 -209Q921 -205 924 -201Q949 -206 953 -206H957Q944 -202 942 -189Q942 -184 945 -180H946Q952 -182 957 -184L961 -183L962 -180Q961 -175 959 -171Q959 -169 961 -167L964 -166H967Z"/>
</svg>