<svg xmlns="http://www.w3.org/2000/svg" viewBox="0 -800 1024 1024">
	<path fill="#000000" d="M242 -695H243Q263 -685 269 -681Q278 -675 289 -673Q306 -671 312 -655Q324 -629 324 -627Q332 -615 330 -600Q328 -585 327 -571Q328 -562 322 -550Q321 -533 320 -516Q323 -511 320 -500Q317 -489 318 -484Q317 -476 323 -475Q331 -473 338 -477Q344 -476 353 -488Q353 -489 353 -490Q354 -490 359 -486Q362 -479 379 -479Q384 -481 392 -479Q400 -477 404 -478Q413 -482 422 -475Q426 -472 434 -460Q433 -451 428 -440Q421 -440 418 -434Q415 -428 417 -421Q418 -413 412 -395Q410 -391 406 -388Q402 -384 402 -379Q403 -375 400 -370L395 -363Q394 -359 389 -353Q383 -347 382 -343Q383 -338 375 -331Q369 -326 368 -322L343 -295Q342 -294 312 -267Q310 -231 308 -195Q311 -185 313 -175Q312 -172 309 -154Q309 -153 306 -120Q306 -116 306 -113L307 -101Q307 -97 307 -94Q305 -75 303 -57Q296 -48 304 -39Q304 -33 300 -33Q293 -33 288 -31Q284 -34 277 -33Q269 -32 267 -35Q260 -45 251 -55Q243 -64 241 -75Q238 -80 236 -90Q237 -114 241 -134Q241 -156 244 -176Q241 -182 245 -190Q248 -197 248 -199Q243 -206 237 -201Q231 -196 226 -193Q211 -181 195 -169Q191 -163 169 -163Q157 -170 149 -186Q144 -195 144 -204Q143 -210 136 -215Q130 -219 130 -221Q132 -225 138 -230Q145 -235 146 -239Q164 -260 181 -281Q202 -311 223 -341Q232 -351 255 -393Q258 -399 253 -402Q249 -405 243 -406Q238 -408 228 -403Q220 -398 215 -401Q209 -400 201 -402Q191 -405 185 -402Q178 -397 168 -397Q160 -397 155 -400Q128 -403 126 -404Q110 -411 94 -419Q91 -423 95 -426Q101 -428 106 -426Q118 -424 129 -430Q136 -438 145 -432Q159 -428 161 -442Q164 -449 177 -440Q184 -434 196 -446Q206 -446 218 -451Q224 -456 239 -459Q253 -462 259 -466Q262 -486 264 -506Q267 -558 267 -559Q267 -590 264 -620Q264 -629 260 -643Q249 -666 246 -670Q239 -684 242 -695ZM522 -643Q540 -641 544 -639Q569 -641 586 -629Q594 -627 599 -620Q605 -612 611 -605Q612 -597 617 -587Q618 -570 616 -551Q618 -543 616 -515Q617 -510 624 -514Q647 -536 669 -559Q671 -568 688 -572Q695 -576 694 -584Q693 -592 694 -598Q695 -606 691 -610Q687 -615 683 -620Q688 -632 703 -637Q710 -638 715 -632Q720 -625 725 -621Q727 -618 733 -622Q737 -625 740 -625Q751 -620 757 -604Q759 -597 764 -590Q769 -584 768 -575Q768 -565 764 -552Q768 -539 755 -533Q749 -533 745 -528Q741 -524 736 -521Q729 -523 724 -515Q720 -509 717 -508Q714 -505 706 -502Q696 -498 693 -493Q686 -481 672 -475Q665 -467 648 -454Q628 -439 620 -428Q610 -421 606 -412Q604 -409 592 -407Q583 -405 584 -398Q589 -385 586 -371Q586 -364 586 -357Q588 -352 594 -353Q599 -354 604 -355Q615 -360 628 -360Q630 -360 635 -363Q642 -367 646 -365Q664 -365 682 -371Q697 -376 714 -377Q720 -384 728 -383Q737 -382 745 -384Q750 -384 759 -388Q773 -394 781 -392Q788 -391 811 -393Q833 -396 850 -391Q860 -387 849 -368Q845 -363 847 -356Q847 -352 843 -352Q839 -352 836 -350Q829 -351 820 -341Q814 -334 808 -333Q799 -331 790 -333Q781 -330 772 -328Q768 -329 751 -326Q725 -320 698 -315Q694 -314 690 -313L672 -311Q668 -310 664 -309Q646 -306 628 -304Q616 -303 606 -301Q585 -303 582 -283Q577 -266 574 -247L573 -206Q568 -193 570 -177Q571 -167 573 -156Q572 -154 569 -138Q569 -110 572 -101Q572 -95 571 -89Q570 -83 577 -80Q591 -88 602 -98Q623 -114 659 -156Q675 -175 690 -192Q694 -198 689 -201Q683 -205 679 -208Q661 -216 644 -221Q634 -225 628 -230Q633 -233 644 -232Q653 -231 657 -232Q671 -234 684 -236Q705 -236 725 -231Q744 -228 762 -226Q779 -223 795 -221Q806 -217 830 -215Q843 -211 858 -204Q872 -199 885 -194Q907 -187 929 -180Q949 -174 964 -160Q962 -150 960 -141Q960 -137 957 -136Q953 -134 950 -133Q941 -137 939 -127Q938 -122 929 -122Q924 -122 921 -120Q916 -117 909 -124Q903 -130 899 -128Q889 -120 884 -127Q876 -135 867 -138Q858 -140 850 -145Q846 -150 827 -150Q818 -156 808 -158Q798 -160 790 -163Q789 -164 767 -170Q763 -170 758 -174Q754 -178 751 -176Q744 -175 734 -179Q722 -184 716 -181Q701 -164 685 -147Q675 -130 665 -114Q664 -109 659 -103Q654 -97 653 -94Q634 -73 620 -53Q606 -36 591 -20Q587 -9 580 -6Q572 -6 564 -7Q560 -5 550 -12Q535 -16 534 -24Q527 -31 520 -38Q514 -45 514 -54Q513 -57 510 -88Q504 -100 508 -113Q506 -116 507 -123Q508 -129 507 -131Q508 -146 508 -162Q512 -183 512 -208Q515 -228 515 -230Q514 -240 519 -272Q521 -284 510 -286Q479 -286 471 -288Q455 -291 439 -294Q420 -299 400 -304Q398 -308 402 -310Q406 -312 411 -311Q432 -316 452 -322Q462 -326 474 -328Q486 -334 519 -338Q526 -342 524 -349Q522 -356 523 -362Q526 -373 528 -385Q532 -408 535 -431Q541 -445 545 -479Q548 -505 553 -520Q558 -566 555 -611Q539 -628 522 -643ZM384 -427Q359 -429 341 -423Q333 -423 323 -424Q314 -425 312 -415Q315 -405 316 -393Q319 -386 316 -373Q313 -362 314 -357Q314 -338 307 -320Q306 -315 310 -314Q314 -313 318 -315Q331 -327 344 -339Q356 -354 370 -366Q385 -379 398 -392Q404 -402 407 -412Q410 -417 407 -424Q404 -430 398 -428Q391 -427 384 -427ZM246 -294Q242 -293 240 -287Q223 -274 227 -263Q243 -279 250 -287Q253 -290 251 -293Q248 -296 246 -294Z"/>
</svg>