<svg xmlns="http://www.w3.org/2000/svg" viewBox="0 -800 1024 1024">
	<path fill="#000000" d="M242 -709H243Q254 -706 261 -703Q271 -698 273 -691Q271 -686 276 -676Q280 -668 279 -662Q278 -644 283 -626Q280 -620 280 -602Q280 -588 277 -581Q279 -571 276 -557Q280 -551 278 -545Q275 -538 275 -531Q276 -504 273 -481Q275 -469 272 -456Q269 -443 279 -435Q299 -439 318 -444Q323 -449 329 -449Q338 -449 350 -439Q351 -435 346 -428Q343 -423 343 -420Q337 -416 332 -410Q327 -405 320 -404Q314 -401 302 -398Q285 -394 278 -389Q273 -373 272 -355Q267 -350 270 -343Q273 -337 273 -330Q265 -309 272 -292Q276 -286 282 -290Q293 -295 298 -308Q303 -307 308 -316Q312 -324 316 -324Q334 -338 354 -359L343 -341Q329 -324 324 -304Q322 -295 316 -287Q303 -269 289 -251Q281 -241 275 -233Q264 -218 264 -201Q264 -190 264 -180Q263 -163 261 -146Q262 -134 263 -122Q258 -103 264 -69Q258 -54 257 -40Q255 -38 251 -23Q248 -13 240 -13Q234 -20 227 -27Q219 -34 216 -43Q203 -54 199 -80Q205 -94 208 -126Q210 -149 213 -160Q215 -165 211 -166Q208 -167 206 -163Q181 -141 180 -140Q174 -130 157 -121Q146 -126 141 -140Q139 -142 131 -154Q132 -163 121 -165Q116 -183 117 -187Q131 -200 141 -217Q144 -223 149 -227Q154 -230 159 -234Q167 -244 175 -253Q183 -262 183 -273Q187 -283 212 -312Q226 -327 222 -352Q219 -356 221 -363Q223 -372 217 -373Q181 -365 165 -355Q144 -359 122 -363Q104 -369 93 -366Q89 -367 88 -368Q90 -371 97 -376Q139 -389 180 -403Q198 -409 215 -415Q224 -414 224 -429L221 -460Q221 -471 223 -527Q225 -577 224 -628Q226 -646 218 -648Q225 -654 221 -674Q209 -682 218 -694Q232 -701 242 -709ZM540 -669H552Q564 -665 601 -665Q611 -670 636 -663Q645 -663 650 -658Q656 -654 662 -651Q670 -623 646 -609Q638 -597 626 -610Q581 -624 541 -651Q520 -657 520 -667Q532 -665 540 -669ZM715 -615Q737 -613 743 -606Q738 -591 726 -578Q725 -569 717 -567Q709 -565 703 -562Q676 -553 648 -544Q644 -544 636 -540Q627 -535 622 -536Q611 -533 604 -509Q601 -506 591 -480Q582 -459 579 -437Q584 -435 593 -440Q606 -446 611 -444Q633 -457 645 -460Q679 -470 688 -469Q698 -470 708 -471Q717 -473 724 -468Q733 -467 741 -467Q749 -465 756 -463Q762 -463 766 -459Q769 -454 773 -451Q780 -436 770 -425Q766 -423 764 -415Q763 -408 758 -406Q756 -394 747 -385Q737 -376 729 -366Q729 -362 724 -359L716 -353Q709 -340 694 -331Q686 -319 678 -308Q685 -303 697 -308Q726 -315 754 -323Q777 -328 782 -330Q791 -330 805 -333Q828 -338 840 -335Q862 -345 896 -340Q905 -341 908 -333Q911 -325 907 -318Q909 -312 906 -309Q904 -307 901 -304Q896 -304 894 -300Q889 -292 877 -290Q863 -292 824 -287Q778 -277 734 -265Q701 -261 665 -249Q662 -247 663 -246Q670 -242 678 -239Q700 -217 703 -202Q702 -196 705 -193Q707 -191 712 -193Q740 -200 770 -201Q779 -206 790 -195Q793 -189 792 -183Q791 -176 784 -177Q776 -171 776 -164Q766 -158 752 -158Q738 -153 722 -152Q714 -154 710 -146Q708 -141 708 -132Q705 -116 704 -101Q705 -84 706 -68Q697 -46 702 -36Q701 -20 693 -11Q686 5 685 20Q674 46 665 54Q660 43 644 21Q631 16 619 4Q619 -3 631 -8Q643 -14 644 -21Q650 -35 652 -48Q655 -67 657 -87Q661 -112 657 -139Q640 -139 622 -134Q621 -133 585 -128Q576 -128 575 -119Q573 -110 573 -103Q576 -88 565 -58Q560 -47 561 -34Q561 -11 555 -8Q549 -4 544 -9Q539 -14 538 -21Q521 -23 517 -34Q491 -54 510 -79Q516 -87 528 -118Q534 -126 527 -129Q519 -132 513 -134Q504 -138 499 -141Q497 -143 502 -146Q502 -151 506 -150Q510 -150 513 -152Q532 -152 549 -157Q567 -162 585 -165Q621 -171 655 -182Q657 -193 654 -203Q651 -214 649 -224Q636 -242 625 -242Q617 -240 574 -235Q558 -228 541 -225Q529 -224 507 -216Q486 -209 477 -207Q453 -206 433 -204Q406 -208 382 -222Q377 -223 375 -226Q374 -230 380 -231Q394 -234 407 -239Q433 -241 490 -259Q497 -255 502 -259Q508 -263 515 -265Q545 -271 574 -281Q582 -280 587 -286Q589 -289 593 -300Q606 -313 615 -318Q622 -324 630 -330Q638 -336 642 -344Q648 -343 648 -356Q653 -360 657 -362Q661 -364 661 -370Q668 -386 677 -401Q679 -406 684 -410Q688 -415 682 -420Q641 -406 632 -404Q605 -396 580 -385Q573 -384 561 -370Q561 -366 556 -364Q551 -363 549 -367Q545 -371 528 -400Q520 -408 520 -422Q516 -447 521 -472Q534 -490 546 -509Q547 -512 553 -518Q560 -524 560 -529Q547 -534 534 -537Q522 -540 511 -548Q508 -549 508 -550Q507 -551 508 -552Q513 -555 519 -557Q543 -559 599 -581Q619 -586 634 -596Q649 -598 656 -604Q664 -613 677 -606Q698 -608 715 -615ZM788 -114H804Q809 -106 826 -101Q842 -96 847 -90Q859 -88 870 -68Q874 -61 868 -53Q862 -46 854 -48Q849 -50 843 -46Q838 -42 836 -44Q829 -44 825 -48Q821 -52 818 -57Q790 -68 784 -100Q780 -104 781 -108Q782 -113 788 -114Z"/>
</svg>