<svg xmlns="http://www.w3.org/2000/svg" viewBox="0 -800 1024 1024">
	<path fill="#000000" d="M525 -725Q532 -727 536 -722Q545 -725 555 -715Q554 -707 561 -700Q554 -693 561 -685Q561 -680 557 -680Q551 -680 545 -678Q531 -673 516 -671Q511 -669 499 -671Q488 -673 482 -670Q477 -670 468 -666Q458 -662 451 -663Q439 -664 428 -660Q418 -658 407 -656Q390 -654 378 -661Q372 -660 361 -665Q350 -670 343 -666Q337 -664 336 -659Q335 -654 335 -649Q334 -639 329 -631Q321 -623 318 -612Q315 -601 311 -591Q305 -585 298 -562Q294 -553 294 -542Q290 -514 285 -502Q287 -482 281 -471Q280 -458 276 -446Q271 -433 270 -418Q268 -404 261 -392Q263 -378 258 -365Q258 -363 253 -348Q253 -328 250 -309Q246 -304 246 -289Q246 -275 242 -269Q240 -249 233 -230Q233 -223 228 -213Q223 -203 223 -198Q220 -192 210 -163Q208 -148 192 -122Q187 -111 185 -97Q185 -85 178 -74Q173 -70 170 -59Q168 -49 164 -45Q161 -39 149 -29Q140 -22 136 -16Q135 -11 129 -7Q123 -3 122 0Q116 8 109 2Q99 -8 97 -18Q87 -26 86 -33Q83 -36 82 -44Q81 -51 79 -53Q76 -58 78 -61Q80 -64 85 -64Q102 -81 112 -101Q125 -123 135 -147Q147 -173 156 -200Q168 -229 179 -259Q180 -275 188 -289Q186 -298 191 -303Q196 -308 199 -314Q197 -334 203 -345Q204 -358 211 -368Q209 -374 211 -388Q212 -397 212 -406Q223 -432 226 -459Q232 -497 236 -515Q243 -531 243 -549Q250 -568 251 -571Q249 -579 255 -591Q259 -599 259 -603Q271 -629 279 -640Q281 -645 290 -654Q296 -659 298 -663Q295 -672 308 -675Q323 -689 340 -690Q344 -693 354 -695Q364 -696 373 -698Q381 -704 399 -702Q413 -712 433 -710Q446 -714 458 -719Q474 -726 482 -718Q491 -725 501 -719Q513 -723 525 -725ZM482 -650L487 -649Q495 -640 510 -638Q526 -630 528 -621Q523 -612 496 -596Q481 -589 466 -582Q460 -573 450 -568Q460 -571 469 -574Q501 -582 533 -591Q550 -594 566 -597Q583 -604 605 -604Q618 -607 633 -607H640Q659 -607 677 -598Q687 -597 693 -588Q699 -580 707 -572Q712 -570 712 -564Q712 -559 714 -554Q721 -551 723 -533Q723 -522 722 -511Q723 -501 717 -495Q710 -489 706 -481Q706 -473 698 -462Q690 -451 689 -445Q688 -440 680 -430Q674 -423 672 -418Q662 -409 654 -398Q647 -393 652 -381Q656 -372 654 -368Q647 -364 641 -354Q635 -345 632 -342Q619 -346 610 -356Q605 -360 598 -354Q593 -350 590 -350Q582 -354 566 -352Q555 -357 544 -355Q536 -355 543 -348Q548 -347 556 -337Q558 -315 560 -294Q556 -288 567 -275Q562 -267 558 -239Q553 -234 555 -226Q556 -219 556 -213Q553 -206 548 -197Q543 -188 533 -191Q517 -195 501 -201Q510 -208 497 -223Q484 -236 478 -250Q476 -256 482 -257Q487 -259 491 -262Q496 -278 501 -295Q505 -309 508 -324Q507 -327 507 -332V-339Q508 -345 505 -348Q502 -351 498 -348Q492 -350 480 -349Q467 -347 461 -351Q455 -354 452 -354Q442 -351 432 -348Q428 -354 416 -360Q406 -365 402 -370Q392 -379 388 -397Q388 -404 386 -410Q384 -417 388 -422Q390 -425 388 -432Q385 -440 389 -443Q392 -459 395 -475Q401 -494 406 -514Q406 -521 410 -527Q414 -532 417 -538Q417 -546 411 -546Q404 -547 400 -549Q396 -554 401 -558Q402 -559 411 -564Q409 -567 408 -568Q409 -570 408 -573Q407 -577 410 -578Q412 -579 413 -580L418 -585Q420 -587 421 -587Q438 -601 444 -608Q448 -611 452 -615L466 -631Q470 -634 474 -638Q478 -644 482 -650ZM637 -563Q621 -562 604 -561Q594 -559 583 -558Q573 -555 563 -553Q550 -552 540 -549Q528 -547 515 -545Q505 -547 497 -539Q494 -536 491 -536Q488 -536 482 -539Q474 -543 470 -542Q452 -544 450 -534Q444 -505 443 -474Q441 -467 445 -465Q450 -462 455 -466Q476 -468 497 -470Q511 -470 526 -470Q541 -470 553 -462Q556 -456 552 -452Q547 -448 545 -442Q530 -437 515 -433Q504 -435 493 -438Q475 -440 462 -449Q456 -450 450 -452Q444 -454 441 -449Q441 -435 438 -422Q435 -412 437 -402Q439 -393 443 -382Q452 -381 492 -386Q499 -392 564 -399Q577 -400 589 -403Q599 -396 605 -401Q614 -404 620 -419Q628 -429 642 -464Q653 -496 660 -530Q661 -538 661 -547Q656 -567 637 -563ZM417 -325Q426 -325 435 -326Q430 -321 428 -318Q422 -309 421 -298Q425 -292 425 -275Q418 -259 421 -252Q424 -246 423 -238Q422 -229 413 -230Q392 -226 380 -255Q367 -268 374 -289Q377 -297 381 -306Q385 -314 396 -315Q403 -320 407 -320Q412 -320 417 -325ZM672 -300L689 -299Q700 -297 710 -295Q715 -292 721 -290Q728 -288 731 -282Q730 -276 729 -269Q728 -262 722 -259L710 -256Q702 -254 698 -255Q690 -259 683 -254Q676 -249 670 -245Q667 -242 671 -249Q672 -254 672 -260Q670 -267 664 -267Q657 -266 652 -267Q630 -269 611 -275Q593 -279 575 -278Q580 -284 587 -284Q595 -289 614 -291Q631 -293 648 -296Q659 -299 672 -300ZM745 -218Q793 -221 827 -204Q836 -194 828 -189Q815 -183 803 -177Q786 -172 771 -180Q755 -188 739 -192Q733 -195 725 -195Q703 -195 692 -174Q685 -153 665 -138Q660 -128 655 -120Q649 -111 635 -106Q620 -108 610 -118Q598 -129 597 -142Q584 -149 585 -159Q586 -170 587 -182Q588 -184 588 -193Q588 -203 591 -203Q593 -203 597 -200Q627 -198 638 -174Q641 -165 649 -165Q655 -165 661 -172Q689 -209 745 -218ZM429 -190H434Q441 -181 451 -173Q460 -165 462 -154Q483 -127 492 -111Q512 -78 575 -62Q651 -56 728 -64Q733 -75 729 -88Q724 -101 723 -113Q719 -125 714 -138Q715 -138 719 -133Q727 -120 746 -109Q774 -83 813 -60Q829 -59 841 -48Q851 -39 841 -28Q832 -19 819 -17Q803 -3 781 -6Q759 -10 737 -7Q671 -4 607 -11Q525 -11 470 -66Q415 -120 429 -190ZM323 -133L340 -132Q348 -136 356 -129Q362 -124 366 -114Q368 -107 363 -95Q358 -83 359 -77Q356 -72 358 -62Q360 -52 359 -48Q362 -40 355 -33Q342 -31 330 -35Q322 -35 316 -41Q310 -47 306 -52Q299 -57 292 -62Q283 -76 283 -90Q287 -115 306 -124Q311 -131 323 -133Z"/>
</svg>