<svg xmlns="http://www.w3.org/2000/svg" viewBox="0 -800 1024 1024">
	<path fill="#000000" d="M620 -769Q622 -769 637 -761Q652 -760 665 -751Q668 -748 666 -741Q664 -734 667 -731Q669 -719 667 -693Q673 -687 678 -678Q678 -675 677 -673L676 -663Q676 -660 675 -658Q663 -653 662 -647Q665 -636 665 -624Q662 -606 662 -587Q659 -582 663 -578Q667 -574 673 -575Q690 -577 698 -581Q717 -581 725 -586Q755 -591 787 -591Q794 -593 811 -589Q848 -578 868 -554Q871 -552 873 -545Q876 -537 880 -535Q886 -532 884 -524Q883 -517 884 -515Q888 -511 892 -505Q896 -500 892 -493Q885 -487 886 -478Q887 -469 887 -460Q880 -442 872 -425Q870 -412 864 -405Q854 -399 848 -376Q843 -374 839 -366Q836 -359 833 -357Q827 -356 824 -348Q821 -341 818 -339Q810 -340 803 -325Q798 -323 792 -316Q785 -307 783 -305Q780 -300 774 -298Q766 -295 764 -292Q763 -287 756 -280L745 -270Q732 -270 728 -260Q720 -250 711 -257L703 -269Q700 -275 697 -281Q696 -292 680 -290Q673 -295 656 -285Q635 -286 617 -275Q591 -273 584 -270Q572 -267 560 -264Q532 -262 519 -258Q497 -252 469 -254Q441 -249 409 -279Q403 -282 395 -292Q389 -299 385 -302Q370 -319 366 -333Q366 -338 360 -349Q353 -362 357 -370Q356 -374 359 -380Q362 -387 360 -391Q357 -395 364 -407Q375 -466 397 -498Q408 -524 443 -552Q448 -555 452 -551Q456 -547 460 -545Q470 -542 468 -528Q471 -522 477 -522Q488 -526 499 -530Q516 -532 521 -548Q521 -557 526 -616Q526 -623 525 -630Q525 -637 518 -638Q499 -640 487 -645Q483 -648 474 -649Q465 -650 462 -653Q463 -657 468 -658Q472 -659 476 -660Q492 -669 512 -671Q522 -673 523 -683Q524 -693 525 -701Q526 -707 519 -717Q512 -726 515 -732Q527 -724 542 -717Q549 -712 556 -706Q563 -701 565 -692Q566 -683 577 -683Q578 -683 596 -686Q604 -688 613 -688Q617 -696 616 -712Q615 -729 618 -735Q617 -742 616 -749Q615 -757 609 -760Q603 -763 599 -767Q610 -768 620 -769ZM596 -644Q587 -642 578 -641Q565 -639 572 -619Q574 -606 570 -591Q568 -586 566 -574Q565 -568 564 -561Q563 -555 570 -552Q584 -553 598 -557Q608 -556 614 -567Q611 -588 612 -604Q615 -613 615 -633Q616 -639 614 -642Q612 -646 607 -645Q602 -644 596 -644ZM201 -565Q209 -566 221 -561Q231 -562 246 -559Q253 -558 254 -550Q254 -542 257 -536Q249 -520 242 -520Q231 -522 221 -519Q179 -537 168 -545Q164 -548 160 -550Q155 -552 157 -556Q165 -559 183 -561Q185 -562 201 -565ZM777 -550H773Q754 -550 746 -547Q738 -549 731 -546Q723 -544 716 -543Q713 -542 704 -542Q693 -542 689 -539Q683 -539 667 -532Q657 -534 656 -526Q655 -512 654 -498Q652 -489 652 -481Q652 -470 651 -459Q651 -447 650 -435Q652 -429 657 -429Q662 -428 668 -427Q670 -423 674 -419Q677 -416 673 -412Q662 -408 651 -405Q641 -408 639 -396Q639 -393 639 -390L636 -380Q636 -377 636 -374Q630 -354 627 -331Q624 -323 632 -320Q634 -321 688 -329Q702 -330 715 -326Q721 -324 729 -329Q741 -331 745 -345Q755 -348 759 -357Q758 -363 762 -365Q766 -368 770 -371Q771 -380 781 -386Q795 -411 808 -437Q813 -453 818 -470Q823 -488 824 -507Q820 -537 807 -543Q789 -555 777 -550ZM462 -515H461Q456 -513 457 -502Q458 -494 456 -491Q444 -472 437 -452Q425 -423 421 -389Q415 -370 414 -348Q414 -338 414 -328Q426 -318 438 -305Q444 -301 449 -295Q455 -290 463 -289Q466 -290 472 -290L489 -291Q494 -291 498 -292Q503 -291 507 -294Q511 -297 509 -302Q496 -318 494 -330Q491 -341 491 -350Q498 -365 500 -381Q500 -391 486 -393Q474 -395 473 -400Q484 -403 494 -406Q506 -404 511 -416Q511 -429 510 -442Q509 -451 512 -489Q515 -497 510 -502Q505 -507 497 -505Q492 -505 482 -511Q470 -518 462 -515ZM596 -515Q590 -512 576 -512Q563 -517 558 -505Q557 -494 555 -484Q558 -471 554 -444Q554 -438 551 -431Q549 -424 556 -419Q572 -421 587 -423Q596 -421 601 -431L602 -464Q602 -477 602 -490Q603 -498 603 -507Q604 -511 601 -514Q599 -517 596 -515ZM179 -413Q183 -414 187 -410Q192 -408 198 -393Q206 -387 203 -380Q201 -371 204 -361Q199 -357 198 -348Q196 -337 193 -334Q191 -325 189 -317Q177 -307 177 -293Q173 -289 174 -284Q175 -279 174 -274Q174 -262 169 -251L170 -194Q170 -174 172 -167Q170 -148 178 -133Q176 -128 180 -122Q184 -116 190 -119Q191 -119 233 -165Q246 -179 258 -193Q268 -211 277 -229Q280 -233 281 -235Q282 -234 282 -233Q281 -230 280 -228L277 -217Q276 -214 275 -212Q274 -207 270 -192Q265 -187 266 -181Q267 -174 266 -168Q260 -166 260 -161Q259 -156 258 -151Q253 -142 253 -131Q249 -122 242 -115Q244 -104 233 -97Q223 -83 213 -69Q210 -64 205 -65Q201 -67 196 -66Q186 -58 173 -71Q169 -72 162 -81Q155 -89 149 -90Q140 -92 140 -109Q131 -128 130 -149Q129 -161 127 -174Q131 -199 132 -209Q132 -222 132 -236Q133 -244 134 -252L137 -284Q138 -292 139 -300Q144 -322 149 -344Q150 -361 166 -391Q173 -402 179 -413ZM577 -391Q574 -391 570 -391L558 -389Q555 -389 551 -389Q546 -385 547 -380Q548 -374 547 -369Q543 -363 544 -350Q545 -339 544 -335Q544 -328 542 -310Q539 -308 542 -304Q545 -300 549 -302Q565 -302 568 -303Q575 -303 577 -310Q578 -317 580 -322Q582 -332 583 -343Q588 -363 592 -384Q593 -391 587 -392Q581 -393 577 -391ZM663 -245Q686 -246 714 -243Q718 -246 726 -242Q733 -238 737 -240Q742 -237 749 -234Q755 -231 757 -223Q764 -212 768 -202Q775 -197 773 -191Q771 -185 772 -177Q775 -165 777 -138Q777 -135 774 -128Q770 -121 772 -116Q774 -113 774 -104Q774 -96 776 -92Q774 -82 769 -73Q766 -69 767 -60Q768 -53 766 -49Q759 -38 761 -28Q762 -23 757 -13Q751 -3 752 4Q751 15 750 25Q750 28 745 32Q741 35 741 37Q736 53 731 57Q718 57 704 41Q700 39 693 34Q683 26 677 26Q663 32 649 31Q634 33 628 31Q604 31 593 33Q583 37 573 32Q564 27 556 22Q548 20 542 9Q537 1 534 -2Q525 -6 521 -21Q516 -27 524 -40Q528 -58 531 -76Q535 -106 539 -120Q547 -157 553 -177Q557 -191 559 -195Q565 -205 575 -202Q586 -204 593 -196Q599 -189 598 -177Q590 -157 591 -145Q591 -140 590 -133Q588 -127 593 -122Q614 -127 636 -128Q646 -123 659 -127Q671 -128 682 -120Q685 -112 668 -98Q644 -98 620 -98Q602 -103 594 -109Q587 -109 587 -103Q586 -97 586 -91Q582 -80 580 -67Q579 -43 578 -19Q579 -15 577 -10Q574 -3 578 0Q584 2 592 2Q605 1 617 -1Q639 -2 660 -4Q676 -7 694 -3Q703 -1 708 -15Q708 -31 713 -45Q716 -59 720 -71Q722 -98 724 -126Q725 -137 725 -148Q723 -191 719 -200Q715 -213 699 -211Q695 -211 667 -205Q664 -204 661 -203L648 -201Q645 -200 642 -199Q623 -201 611 -206Q606 -209 601 -212Q595 -215 598 -221Q608 -222 628 -230Q638 -232 663 -245Z"/>
</svg>