<svg xmlns="http://www.w3.org/2000/svg" viewBox="0 -800 1024 1024">
	<path fill="#000000" d="M388 -713Q398 -709 430 -709Q435 -713 442 -713Q457 -709 475 -709Q487 -706 500 -704Q513 -703 522 -694Q526 -689 530 -686Q534 -682 534 -675Q540 -662 517 -652Q515 -648 509 -649Q505 -649 503 -648Q499 -646 501 -639Q503 -634 500 -632Q492 -636 484 -642Q475 -648 465 -646Q460 -650 450 -653Q435 -657 431 -664Q425 -668 418 -676Q410 -685 405 -688Q401 -692 382 -704Q379 -707 382 -710Q385 -712 388 -713ZM582 -638H587Q598 -640 624 -635Q640 -632 652 -621Q656 -607 659 -594Q661 -587 657 -584Q652 -582 649 -578Q643 -575 637 -565Q632 -557 627 -555Q618 -557 608 -548Q600 -541 595 -539Q594 -533 591 -534Q586 -534 582 -535Q578 -535 577 -531Q575 -527 567 -523Q558 -519 559 -515Q571 -511 573 -493Q558 -474 540 -470Q524 -468 507 -466Q499 -463 454 -450Q450 -445 444 -445Q430 -449 418 -457Q415 -460 406 -464Q394 -470 390 -475Q387 -483 395 -484Q402 -486 407 -482Q431 -488 457 -499Q463 -503 473 -506Q489 -511 494 -515Q504 -515 517 -513Q530 -511 538 -522Q556 -545 574 -568Q576 -573 580 -578Q584 -584 582 -589Q560 -587 537 -582Q530 -583 521 -580Q503 -576 484 -573Q471 -574 451 -566Q444 -563 434 -564Q424 -565 424 -557Q424 -547 420 -539Q403 -535 396 -526Q390 -522 385 -505Q386 -492 386 -479Q382 -467 386 -454Q386 -443 385 -433Q379 -412 373 -391Q369 -391 369 -386Q369 -382 368 -381Q367 -374 360 -359Q353 -343 352 -332Q346 -325 341 -311Q336 -297 331 -291Q317 -253 316 -248Q299 -216 281 -179Q275 -163 266 -150Q243 -123 245 -105Q235 -86 223 -71Q206 -35 192 -25Q189 -27 185 -24Q179 -20 176 -26Q158 -39 152 -60Q146 -68 151 -80Q158 -92 165 -104Q166 -108 173 -115Q181 -123 181 -129Q183 -137 194 -154Q207 -174 208 -187Q228 -229 249 -267Q252 -270 253 -275Q256 -284 258 -284Q265 -286 261 -295Q277 -323 294 -375Q302 -385 307 -404Q319 -434 321 -451Q330 -478 338 -506Q341 -544 372 -570Q379 -573 380 -579Q381 -585 374 -589Q364 -589 378 -596Q391 -594 404 -598Q416 -602 429 -605Q506 -622 582 -638ZM678 25Q665 31 663 31Q659 31 654 20Q648 15 643 5Q638 -6 634 -9Q624 -15 628 -25Q633 -35 633 -46Q635 -55 633 -74Q631 -90 633 -99Q636 -110 632 -119Q636 -175 640 -231Q641 -240 641 -250Q642 -260 642 -271Q644 -285 645 -300Q644 -343 639 -384Q637 -398 634 -410Q629 -415 623 -412Q618 -410 613 -408Q609 -411 613 -417Q616 -421 621 -424Q631 -430 640 -437Q649 -435 661 -436Q672 -437 681 -432Q691 -425 692 -413Q692 -400 694 -388Q692 -382 691 -374Q689 -365 700 -364Q714 -369 728 -375Q733 -375 741 -379Q751 -384 757 -383Q760 -378 775 -376Q780 -373 785 -370Q790 -366 790 -359Q793 -355 789 -352Q785 -349 782 -346Q777 -335 773 -334Q763 -337 755 -336Q720 -336 714 -338Q709 -339 703 -341Q698 -343 695 -336Q696 -315 692 -295Q695 -283 697 -272Q698 -267 698 -260Q697 -252 704 -251Q709 -256 720 -258Q730 -260 733 -262Q738 -267 743 -265Q749 -263 755 -262Q768 -260 780 -259Q790 -258 799 -250Q801 -251 802 -249Q803 -248 804 -245Q798 -239 801 -228Q791 -225 784 -219L742 -221Q727 -232 708 -228Q700 -231 698 -222Q694 -175 697 -139Q695 -133 700 -129Q705 -126 710 -130Q725 -134 739 -139Q745 -141 752 -140Q766 -140 780 -140Q791 -135 804 -130Q808 -128 805 -122Q803 -118 803 -115Q805 -106 791 -101Q782 -95 770 -99Q767 -101 761 -99Q755 -97 752 -100Q739 -108 722 -107Q711 -109 702 -113Q698 -113 695 -108Q696 -79 697 -51Q697 -41 696 -31Q696 -22 693 -14Q690 -4 691 7Q685 16 678 25ZM502 -394Q518 -396 528 -391Q532 -385 538 -379Q544 -374 545 -365Q549 -363 547 -355Q545 -349 548 -345Q550 -325 548 -301Q541 -292 545 -285Q550 -275 544 -263Q542 -249 542 -232Q542 -217 541 -203Q538 -178 539 -174Q537 -159 534 -144Q534 -118 535 -103Q535 -94 534 -86Q531 -83 529 -65Q516 -39 503 -47Q495 -49 489 -54Q484 -59 478 -64Q472 -69 465 -73Q458 -78 457 -86Q467 -102 469 -110Q473 -115 471 -122Q469 -129 462 -126Q437 -110 412 -94Q408 -87 391 -83Q387 -79 383 -79Q371 -82 361 -92Q351 -99 340 -107Q332 -111 334 -120Q336 -124 341 -120Q346 -109 360 -116Q367 -115 381 -121Q405 -134 429 -148Q440 -156 453 -161Q466 -167 474 -179Q478 -184 474 -189Q470 -194 465 -189Q458 -190 446 -188Q436 -190 427 -185Q417 -193 389 -209Q389 -214 393 -214Q398 -213 402 -214Q417 -218 451 -220Q459 -222 469 -222Q478 -222 483 -230L484 -253Q484 -267 486 -272Q484 -289 487 -304Q484 -307 481 -307Q477 -307 470 -299Q465 -293 461 -292Q456 -294 450 -288Q445 -284 442 -285Q438 -292 424 -297Q404 -298 384 -310Q366 -317 374 -324Q406 -328 417 -334Q446 -344 476 -352Q483 -352 486 -358Q489 -363 488 -370Q489 -378 484 -381Q478 -385 476 -389Q479 -391 489 -391Q498 -391 502 -394Z"/>
</svg>