<svg xmlns="http://www.w3.org/2000/svg" viewBox="0 -800 1024 1024">
	<path fill="#000000" d="M639 -657Q646 -658 656 -652Q670 -652 680 -651Q700 -647 706 -641Q723 -626 706 -613L702 -612Q698 -610 697 -609Q694 -601 688 -596Q682 -592 677 -586Q672 -581 666 -575Q661 -569 665 -563Q689 -572 692 -573Q703 -579 715 -583Q727 -581 740 -583Q771 -591 775 -574Q773 -565 779 -557Q776 -555 775 -552Q772 -546 770 -546Q764 -537 749 -537Q745 -535 730 -533Q712 -530 704 -524Q727 -499 723 -478Q721 -473 725 -472Q729 -472 730 -469Q735 -469 740 -467Q746 -465 746 -457Q749 -441 744 -438Q744 -431 733 -427Q722 -423 721 -416Q720 -396 719 -376Q721 -371 732 -368Q742 -365 744 -361Q744 -357 746 -349Q749 -339 746 -334Q744 -328 735 -323Q726 -317 723 -313Q715 -313 711 -305Q709 -302 707 -291Q707 -285 705 -279Q703 -272 707 -267Q708 -266 719 -263Q725 -261 738 -260Q757 -258 766 -253Q770 -252 772 -248Q773 -244 775 -240Q782 -236 779 -231Q778 -230 771 -224Q767 -213 757 -211Q746 -209 736 -207Q727 -202 703 -198Q687 -194 670 -188Q666 -190 657 -187Q647 -183 642 -185Q626 -187 615 -173Q607 -168 598 -167L621 -194Q641 -205 611 -226Q600 -242 612 -259Q619 -261 623 -272Q627 -281 631 -284Q643 -289 651 -298Q661 -310 657 -322Q648 -320 641 -322Q626 -326 615 -333Q601 -337 600 -345Q598 -350 601 -352Q604 -354 607 -348Q618 -345 648 -353Q657 -358 666 -364Q671 -376 673 -401Q673 -406 673 -411Q673 -416 668 -416Q658 -416 648 -417Q638 -417 617 -424Q602 -429 591 -430Q588 -434 590 -435Q596 -436 600 -440Q618 -448 638 -451Q643 -456 655 -460Q668 -465 672 -468Q676 -483 671 -498Q672 -507 666 -511Q660 -515 652 -510Q639 -508 628 -511Q616 -515 603 -516Q596 -518 588 -518Q580 -517 577 -524Q582 -527 590 -529Q608 -537 617 -540Q620 -543 621 -556Q622 -565 625 -570Q627 -583 630 -596Q633 -609 631 -622Q630 -629 624 -629Q616 -629 611 -630L621 -648Q621 -655 627 -655Q633 -656 639 -657ZM236 -645H239Q256 -639 277 -639Q290 -637 290 -627Q297 -616 297 -603Q296 -598 297 -591Q298 -584 294 -577Q293 -568 295 -536Q293 -514 290 -492Q287 -482 289 -470Q289 -464 294 -464Q300 -465 305 -464Q310 -466 317 -461Q323 -456 327 -456Q323 -452 327 -448Q330 -444 331 -440Q324 -431 317 -423Q309 -415 298 -414Q287 -412 286 -401Q286 -391 283 -384Q286 -359 280 -340Q283 -324 280 -306Q282 -303 281 -298Q280 -290 283 -288Q312 -311 314 -313Q348 -333 390 -377Q392 -379 393 -379Q392 -376 388 -368Q381 -358 373 -348Q375 -340 370 -333Q365 -326 362 -319Q341 -296 327 -286Q322 -278 308 -265Q294 -251 287 -241Q283 -238 281 -228Q280 -220 277 -217Q280 -213 280 -196Q278 -190 279 -176Q280 -164 277 -158Q277 -146 275 -137Q273 -105 273 -74Q283 -58 275 -42Q272 -39 267 -30Q262 -20 257 -17Q242 -29 231 -42Q230 -45 224 -50Q216 -57 217 -62Q213 -76 220 -100Q225 -118 225 -125Q223 -133 224 -150Q226 -167 223 -175L201 -153Q193 -148 190 -141Q186 -139 182 -133Q177 -126 173 -125Q159 -120 156 -137Q146 -150 140 -163Q134 -165 135 -173Q135 -178 134 -180Q131 -181 133 -185Q135 -190 131 -193Q130 -200 137 -204Q144 -208 149 -211Q155 -212 159 -223Q162 -231 165 -233Q206 -287 216 -303Q230 -326 233 -331Q241 -347 240 -362Q241 -373 241 -385Q241 -391 237 -390Q230 -389 223 -387Q220 -389 216 -384Q212 -379 208 -380Q206 -378 202 -381Q198 -385 195 -383Q186 -372 174 -372Q128 -372 91 -387Q83 -388 83 -393Q83 -395 88 -396Q94 -401 115 -406Q131 -403 138 -410Q142 -414 153 -414Q164 -414 168 -418Q184 -424 190 -430Q193 -431 204 -435Q206 -438 211 -437Q218 -436 219 -439Q233 -449 246 -460Q247 -466 247 -478L248 -514Q248 -525 250 -543L253 -567Q254 -572 254 -578Q254 -597 251 -615Q238 -618 213 -632Q220 -637 236 -645ZM504 -644Q509 -641 515 -640Q526 -632 526 -614Q524 -608 524 -600Q524 -592 518 -587Q498 -559 478 -531Q467 -513 461 -494Q453 -482 465 -472Q483 -465 493 -435Q497 -421 496 -408Q500 -398 496 -380Q493 -366 494 -361Q495 -353 489 -339Q483 -325 486 -315Q484 -304 481 -292Q479 -271 476 -250Q483 -230 476 -211Q480 -200 471 -186Q458 -193 448 -205Q444 -210 438 -219Q417 -226 425 -258Q427 -263 435 -301Q436 -331 440 -362Q442 -377 444 -393Q445 -404 445 -416Q447 -430 440 -460Q430 -470 421 -480Q411 -490 408 -503Q411 -531 443 -575Q455 -590 468 -605Q481 -620 488 -638Q498 -639 504 -644ZM460 -139Q470 -139 473 -131Q473 -116 473 -101Q468 -94 468 -78Q468 -63 464 -56Q463 -54 461 -45Q459 -34 454 -31Q447 -31 447 -26Q446 -20 445 -14Q445 -8 438 -9Q436 -15 430 -15Q422 -26 413 -38Q414 -43 407 -47Q399 -52 399 -56Q404 -70 408 -84Q412 -85 422 -100Q427 -111 439 -121Q450 -130 460 -139ZM682 -125H693Q693 -123 698 -120Q704 -116 702 -113Q702 -93 708 -84L741 -97Q774 -111 817 -119Q836 -121 854 -123Q869 -121 884 -119Q898 -116 909 -104Q908 -99 914 -91Q920 -82 917 -76Q918 -71 916 -69Q914 -66 911 -62Q909 -43 897 -39Q887 -29 875 -19Q861 -12 858 -9Q855 -6 847 -9Q840 -12 836 -8Q833 -8 828 -3Q823 2 820 1Q819 -3 824 -19Q827 -29 842 -45Q864 -68 863 -85Q855 -89 845 -89Q828 -87 810 -85Q800 -84 792 -82Q779 -80 766 -79Q740 -68 719 -48Q719 -41 708 -31Q700 -24 698 -20Q698 -15 696 -15Q690 -17 688 -26Q681 -31 673 -40Q656 -49 665 -68Q667 -85 673 -102Q675 -117 665 -123Q668 -124 673 -123Q678 -122 682 -125ZM558 -124H563Q576 -119 590 -101Q604 -87 590 -63Q587 -50 574 -47Q569 -47 566 -52Q562 -55 556 -64Q550 -75 543 -79Q538 -95 547 -111Q547 -115 553 -118Q558 -120 558 -124Z"/>
</svg>