<svg xmlns="http://www.w3.org/2000/svg" viewBox="0 -800 1024 1024">
	<path fill="#000000" d="M396 -601Q403 -598 403 -597Q415 -596 427 -595Q437 -591 450 -592Q453 -593 460 -590Q465 -587 469 -588Q479 -589 488 -584Q492 -585 494 -583Q495 -580 497 -577Q502 -573 507 -570Q515 -565 515 -548Q514 -544 517 -537Q520 -531 518 -527Q516 -522 508 -519Q500 -516 498 -513Q491 -510 485 -519Q476 -524 467 -530L441 -554Q415 -567 398 -592Q392 -596 396 -601ZM751 -588Q764 -584 794 -584Q797 -589 804 -588Q811 -587 812 -580Q808 -570 819 -567Q824 -565 823 -561Q822 -558 818 -555Q807 -554 799 -547Q786 -544 774 -538Q765 -537 758 -534Q749 -530 739 -530Q718 -525 717 -524Q705 -529 704 -530Q694 -536 683 -535Q679 -538 664 -538Q655 -538 651 -542Q654 -549 662 -549Q676 -557 693 -561Q708 -568 712 -569Q716 -573 722 -574Q730 -577 737 -580Q743 -585 751 -588ZM220 -557Q226 -556 254 -556Q265 -548 276 -541Q287 -535 283 -517Q281 -513 283 -510Q286 -506 287 -502Q283 -492 286 -479Q274 -467 280 -458Q274 -439 277 -425Q279 -418 278 -408Q278 -396 278 -385Q274 -375 283 -370Q285 -373 290 -372Q294 -371 293 -366Q290 -357 301 -351Q306 -345 300 -338Q301 -329 289 -317Q273 -293 270 -290Q268 -275 265 -260Q263 -255 259 -249Q255 -244 259 -238Q283 -254 307 -271Q336 -302 342 -314Q345 -321 348 -329Q351 -338 355 -346Q356 -354 359 -359Q360 -360 362 -365Q364 -369 367 -369Q372 -368 371 -362Q370 -355 366 -352Q364 -345 362 -338Q359 -332 356 -326Q353 -318 349 -310Q339 -287 332 -269Q328 -266 325 -257Q322 -248 317 -245Q285 -207 252 -169L230 -145Q211 -128 194 -109Q190 -107 184 -99Q179 -92 174 -90Q154 -102 152 -108Q144 -120 136 -133Q132 -141 138 -147Q144 -152 149 -158Q165 -188 172 -203Q174 -205 173 -212Q172 -220 177 -222Q183 -224 194 -238Q199 -251 203 -265Q204 -275 199 -284Q197 -293 204 -300Q210 -305 204 -310Q198 -315 193 -312Q185 -315 178 -312Q173 -311 166 -316Q162 -319 158 -319Q154 -322 142 -327Q141 -328 140 -328Q133 -331 134 -334Q139 -333 148 -338Q156 -342 160 -342Q167 -345 174 -349Q182 -353 193 -354Q194 -357 201 -357Q206 -357 208 -360Q218 -363 223 -374Q220 -419 226 -460Q224 -472 225 -482Q223 -485 223 -493Q223 -502 218 -504L198 -502Q192 -499 178 -499Q174 -498 161 -506Q150 -511 138 -511Q136 -515 130 -515Q124 -515 123 -519Q124 -520 125 -520Q130 -517 132 -520Q137 -524 138 -529Q147 -531 155 -533Q161 -531 168 -538Q173 -543 176 -544Q187 -545 197 -552Q201 -557 207 -556Q214 -556 220 -557ZM704 -504Q709 -499 718 -498Q724 -499 727 -494Q730 -489 733 -483Q737 -477 739 -469Q741 -461 750 -458Q754 -457 759 -452L766 -442Q763 -436 765 -423Q766 -412 765 -406Q759 -402 765 -394Q770 -391 769 -383Q768 -376 769 -370Q767 -365 771 -360Q774 -356 781 -357Q785 -363 795 -361Q803 -350 809 -357Q825 -359 839 -354Q840 -353 851 -349Q854 -349 854 -346Q854 -343 854 -340Q847 -333 854 -325Q853 -321 848 -318Q841 -314 839 -312Q823 -313 810 -309Q807 -311 798 -311Q793 -307 784 -307Q776 -305 776 -297Q775 -289 776 -282Q772 -277 773 -267Q774 -257 772 -254Q772 -233 769 -223Q766 -209 768 -192Q762 -183 765 -174Q766 -171 761 -158Q761 -140 760 -136Q757 -127 767 -124Q780 -128 794 -127Q810 -131 828 -130Q840 -131 852 -130Q861 -129 870 -129Q886 -129 904 -127Q909 -127 915 -121Q921 -116 924 -115Q926 -116 927 -114Q928 -110 925 -105Q923 -100 931 -92Q932 -87 927 -85Q922 -83 916 -83L890 -74Q873 -74 855 -74Q827 -78 815 -77Q805 -77 795 -78Q774 -78 752 -78Q740 -81 728 -78Q725 -77 719 -78Q714 -79 711 -77Q678 -77 645 -77Q613 -82 584 -89Q561 -96 543 -110Q547 -118 559 -115Q578 -119 650 -119Q680 -123 696 -123Q701 -128 699 -132Q696 -137 695 -141Q685 -151 694 -162Q693 -174 702 -196Q706 -200 706 -207Q707 -217 709 -219Q711 -242 712 -265Q712 -274 713 -283Q714 -293 706 -298L683 -299Q679 -301 673 -298Q668 -296 666 -297Q663 -305 657 -311Q655 -314 650 -316Q644 -318 644 -321Q657 -322 669 -324Q672 -325 675 -326L686 -332Q690 -334 692 -334Q699 -338 706 -343Q711 -348 711 -355Q710 -362 711 -368Q713 -403 715 -439Q716 -458 713 -475Q711 -484 695 -491Q690 -495 694 -498Q699 -503 704 -504ZM521 -481H524Q532 -479 540 -478Q547 -476 553 -474Q557 -472 558 -462Q559 -455 560 -452Q556 -441 559 -429Q569 -422 565 -406Q560 -397 561 -386Q556 -377 556 -366Q552 -356 550 -344Q544 -340 545 -332Q546 -324 545 -318Q545 -314 542 -311Q538 -306 538 -303Q535 -291 528 -280Q525 -275 529 -273Q534 -271 538 -269Q554 -263 560 -256Q563 -256 568 -251Q575 -244 579 -245Q586 -249 590 -240Q591 -235 601 -226Q614 -214 613 -204Q618 -195 620 -180Q618 -173 608 -172Q604 -172 593 -173Q575 -179 541 -199Q519 -212 506 -218Q494 -225 487 -225Q483 -225 478 -222Q472 -215 459 -206Q442 -194 437 -186Q435 -183 425 -178Q420 -179 416 -171Q413 -165 409 -164Q402 -165 393 -158Q386 -153 383 -152Q380 -150 379 -152Q379 -155 380 -157Q394 -175 408 -193Q417 -205 426 -217Q436 -229 441 -243Q438 -253 429 -258Q420 -264 413 -268Q408 -269 401 -277Q395 -283 391 -284Q383 -286 384 -294Q384 -299 391 -298Q394 -296 397 -295L405 -294Q420 -296 428 -294Q450 -294 472 -295Q478 -292 484 -297Q489 -301 488 -308Q486 -314 492 -324Q497 -332 495 -338Q488 -345 495 -351Q503 -361 501 -375Q508 -394 511 -413Q511 -418 512 -425Q513 -432 506 -432Q493 -427 479 -425Q475 -422 467 -420Q456 -413 447 -420Q441 -424 429 -425Q419 -426 416 -427Q402 -433 388 -437Q390 -445 399 -443Q415 -447 430 -451Q432 -451 436 -453Q441 -456 444 -455Q450 -458 456 -461Q464 -466 475 -467Q479 -471 497 -475Q500 -479 510 -479Q518 -479 521 -481Z"/>
</svg>