<svg xmlns="http://www.w3.org/2000/svg" viewBox="0 -800 1024 1024">
	<path fill="#000000" d="M491 -737Q496 -735 502 -737Q528 -738 553 -732Q556 -728 564 -729Q571 -730 574 -727Q585 -727 590 -719Q587 -715 590 -711Q592 -708 592 -706Q593 -700 588 -696Q586 -695 585 -699Q581 -705 578 -696Q569 -693 551 -696Q531 -699 523 -696Q519 -692 516 -696Q513 -699 511 -696Q507 -692 499 -689Q489 -685 486 -681Q480 -682 474 -674Q468 -667 463 -666Q460 -660 456 -656Q451 -653 446 -648Q445 -641 434 -634Q423 -627 422 -621Q415 -612 407 -590Q400 -579 398 -568Q422 -576 445 -585Q493 -603 541 -619Q562 -623 580 -629Q591 -634 635 -641Q715 -654 773 -647Q780 -645 785 -640Q793 -646 811 -635Q823 -634 832 -624Q839 -626 841 -622Q844 -619 846 -614Q848 -610 852 -610Q857 -602 863 -593Q869 -585 864 -576Q865 -573 862 -570Q859 -568 860 -565Q865 -562 861 -557Q857 -552 852 -550Q851 -544 843 -536Q835 -528 833 -524Q823 -505 806 -501Q803 -501 800 -496Q797 -491 794 -494Q792 -487 786 -483Q785 -481 780 -480Q774 -479 773 -474Q766 -469 759 -465Q752 -459 742 -463Q732 -450 715 -448Q706 -446 699 -441Q684 -441 685 -444Q697 -455 710 -465Q724 -475 734 -489L777 -532Q781 -539 786 -545Q792 -550 792 -559Q793 -569 794 -578Q799 -593 776 -606Q769 -608 737 -615Q728 -614 718 -614Q712 -613 705 -613Q699 -614 693 -614Q679 -612 651 -610Q648 -609 644 -609L631 -607Q628 -606 624 -606Q606 -602 597 -602Q586 -598 572 -596Q563 -597 551 -593Q539 -589 533 -589Q495 -580 480 -575Q475 -574 450 -563Q427 -556 408 -544Q388 -547 385 -538Q381 -533 378 -521Q376 -509 371 -504L364 -475Q366 -467 362 -460Q364 -455 361 -449Q358 -443 353 -445Q353 -447 348 -448Q344 -449 343 -451Q336 -450 335 -456Q333 -462 331 -467Q330 -468 328 -470L324 -477Q323 -478 321 -480Q317 -479 315 -482Q314 -485 316 -487Q322 -492 329 -500Q335 -507 329 -516Q326 -519 330 -524Q333 -528 333 -531Q336 -536 333 -539Q330 -541 329 -544Q336 -554 344 -562Q345 -572 359 -584Q365 -586 367 -592Q368 -598 371 -602Q378 -609 379 -614Q381 -609 386 -612Q394 -618 388 -624Q391 -633 399 -637Q407 -640 414 -645Q417 -644 423 -650Q428 -656 432 -657Q434 -658 448 -667Q452 -676 461 -677L491 -704Q494 -711 486 -714Q483 -715 473 -717Q469 -716 464 -721Q462 -723 459 -724Q455 -725 455 -728Q455 -730 460 -730Q465 -734 477 -734Q486 -734 491 -737ZM193 -649Q196 -648 198 -645Q202 -646 207 -644Q214 -642 216 -644Q226 -641 233 -636Q237 -636 238 -633Q240 -631 242 -634Q254 -633 264 -624Q272 -625 276 -618Q279 -612 284 -607Q278 -601 264 -589Q259 -593 251 -593Q241 -593 238 -584Q238 -579 234 -576Q230 -573 227 -570Q221 -573 217 -565Q214 -557 208 -549Q200 -545 198 -524Q193 -513 199 -502Q201 -498 214 -484Q215 -478 220 -460Q222 -452 219 -447Q216 -441 214 -435Q210 -432 209 -419Q208 -408 204 -404Q202 -383 199 -363Q197 -354 197 -344Q195 -341 195 -332Q195 -321 191 -317Q187 -313 190 -305Q192 -299 191 -296Q191 -273 190 -250Q191 -235 191 -220Q195 -220 199 -225Q202 -230 205 -235Q250 -273 283 -321Q284 -322 286 -324Q292 -335 294 -334L284 -312Q283 -307 281 -301Q278 -295 281 -290Q276 -262 275 -261Q265 -246 264 -239Q257 -228 250 -217Q251 -213 248 -209Q245 -204 247 -201Q244 -192 231 -178Q219 -165 216 -158Q213 -155 208 -146Q204 -138 198 -137Q196 -135 192 -138Q187 -142 184 -137Q190 -125 181 -117Q171 -119 161 -125Q156 -129 150 -133Q146 -137 145 -147Q143 -158 138 -163Q133 -169 133 -178Q133 -187 131 -196Q129 -202 131 -214Q133 -228 131 -235Q129 -241 130 -254Q131 -270 129 -276Q128 -283 131 -293Q134 -303 134 -308Q137 -315 136 -328Q135 -343 138 -349Q140 -378 147 -407Q151 -430 156 -452Q160 -475 173 -495Q174 -500 177 -506Q180 -513 188 -510Q200 -540 204 -573Q216 -600 202 -622Q198 -629 194 -635Q189 -642 193 -649ZM539 -496Q542 -497 552 -494Q557 -493 563 -493Q570 -492 573 -486Q578 -491 583 -489Q587 -486 592 -484Q597 -486 603 -483Q609 -479 604 -474Q602 -476 600 -473Q597 -470 600 -468Q601 -461 606 -463Q611 -464 617 -464Q622 -462 631 -466Q639 -469 642 -469Q644 -466 648 -463Q651 -462 652 -466Q654 -468 661 -469Q665 -470 665 -468Q665 -466 664 -462Q663 -459 666 -458Q675 -457 669 -445Q651 -427 640 -427Q633 -431 624 -424Q608 -422 603 -414Q601 -402 586 -386Q576 -376 573 -369Q568 -366 569 -362Q570 -361 572 -362Q582 -363 591 -365Q603 -367 614 -371Q620 -371 621 -375Q623 -380 625 -383Q634 -384 639 -389Q645 -391 649 -382Q660 -384 665 -378Q675 -382 684 -378Q694 -373 690 -363Q691 -357 687 -353Q683 -349 681 -344Q679 -343 678 -340Q676 -335 673 -337Q667 -335 661 -326Q656 -319 653 -317Q646 -318 644 -312Q638 -312 635 -305Q633 -297 641 -296Q645 -299 653 -299Q664 -300 668 -303Q672 -302 678 -305Q684 -308 688 -306Q691 -305 697 -307Q702 -309 706 -308Q711 -312 713 -308Q715 -304 718 -303Q720 -306 721 -305Q722 -301 725 -298Q732 -302 738 -299Q742 -302 742 -292L725 -275Q720 -276 715 -271Q713 -266 709 -266Q705 -267 701 -267Q695 -263 677 -263Q669 -261 661 -259Q657 -261 652 -258Q650 -258 644 -255Q636 -251 632 -255Q623 -244 611 -246Q601 -244 596 -240Q591 -239 592 -236Q594 -231 598 -227Q604 -224 608 -218Q612 -212 620 -213Q644 -216 665 -221Q675 -221 684 -223Q693 -225 700 -221Q707 -223 714 -226Q728 -225 741 -224Q743 -225 749 -223Q754 -221 757 -224Q761 -222 759 -216Q757 -210 758 -208Q763 -204 760 -201Q757 -199 754 -197Q753 -190 746 -188Q739 -186 734 -188Q730 -185 722 -186Q716 -187 714 -186Q686 -184 631 -176Q622 -178 620 -170Q619 -167 619 -153Q622 -149 620 -138Q619 -129 620 -125Q618 -119 620 -107Q622 -90 618 -83Q620 -69 622 -55Q618 -52 620 -45Q622 -39 619 -36Q621 -19 618 -3Q617 -1 618 7Q619 15 616 19Q613 21 615 26Q617 31 617 33Q617 42 617 51Q612 53 613 57Q614 62 615 66Q614 78 610 85Q609 96 602 101Q602 112 594 118Q593 125 592 129Q591 129 589 126Q584 137 575 132Q566 136 558 132L566 116Q571 74 571 62Q570 55 569 48Q571 13 569 -6Q568 -25 569 -46Q568 -60 567 -74Q566 -113 565 -152Q566 -157 563 -160Q559 -164 555 -160Q550 -161 545 -162Q531 -156 514 -158Q497 -157 474 -163Q468 -165 460 -167Q451 -168 453 -178Q464 -180 474 -183Q517 -186 554 -201Q563 -202 563 -208Q564 -216 559 -222Q552 -239 535 -229Q522 -227 509 -226Q492 -224 474 -222Q461 -225 448 -226Q435 -227 424 -235Q418 -241 430 -242Q443 -243 455 -247Q460 -247 463 -243Q468 -246 490 -253Q507 -257 524 -262Q533 -263 545 -276Q554 -286 560 -289Q566 -290 568 -294Q570 -299 572 -303Q588 -312 605 -334Q607 -343 599 -340Q583 -338 576 -336Q572 -333 560 -332Q549 -331 545 -328Q523 -306 512 -292Q505 -292 504 -298Q502 -305 501 -311Q503 -316 500 -324Q496 -334 500 -339Q502 -351 512 -359Q521 -367 530 -375Q538 -384 541 -395Q546 -401 540 -404Q533 -406 528 -405Q521 -404 513 -404Q485 -410 470 -420Q465 -425 470 -428Q476 -431 483 -429Q505 -434 526 -439Q542 -444 555 -451Q554 -457 548 -458Q542 -458 537 -459Q534 -457 528 -459Q522 -461 520 -459Q516 -466 505 -469Q495 -472 492 -475Q485 -477 483 -482Q482 -488 489 -491Q492 -491 503 -487Q524 -488 539 -496Z"/>
</svg>