<svg xmlns="http://www.w3.org/2000/svg" viewBox="0 -800 1024 1024">
	<path fill="#000000" d="M621 -667L627 -666Q634 -663 644 -663Q653 -663 659 -655Q670 -646 667 -629Q654 -611 647 -590L641 -578Q641 -576 639 -572Q633 -565 627 -545Q626 -540 622 -534Q617 -529 622 -524Q641 -529 659 -534Q670 -539 694 -545Q711 -550 728 -556Q734 -557 744 -555Q757 -553 764 -556Q772 -557 779 -558Q787 -559 792 -551Q791 -546 803 -540Q809 -537 801 -531Q797 -531 797 -529Q796 -524 801 -520Q804 -518 803 -515Q801 -512 798 -511Q791 -512 781 -504Q775 -499 770 -498Q750 -497 730 -492Q717 -489 704 -487Q691 -485 678 -483Q674 -481 666 -479L654 -476Q649 -472 638 -472Q628 -472 624 -470Q614 -470 606 -464Q601 -460 595 -460Q578 -460 567 -482Q562 -487 557 -503Q555 -533 567 -558Q586 -593 604 -628Q606 -634 611 -639Q615 -644 613 -650Q608 -661 621 -667ZM257 -611L286 -610Q296 -611 327 -604Q355 -595 356 -594Q377 -589 382 -567Q398 -556 393 -543Q390 -541 386 -540L372 -533Q369 -531 365 -530Q353 -523 335 -534Q324 -538 312 -542Q278 -557 243 -573Q227 -578 211 -584Q204 -585 199 -586Q196 -588 199 -591Q218 -599 240 -605Q242 -609 257 -611ZM404 -513Q408 -514 413 -510Q420 -507 426 -513Q436 -511 447 -512Q450 -514 458 -512Q464 -510 468 -512Q484 -512 488 -506Q491 -492 488 -487Q485 -484 488 -479Q491 -472 488 -470Q478 -467 468 -465Q456 -458 443 -456Q422 -451 420 -449Q401 -449 381 -444Q369 -442 359 -438Q336 -435 315 -429Q311 -428 310 -425Q310 -421 315 -418Q328 -407 330 -388Q323 -377 318 -362Q320 -358 315 -352Q310 -346 312 -342Q314 -339 319 -341Q326 -343 328 -341Q351 -346 377 -344Q388 -344 398 -339Q405 -333 415 -326Q425 -319 426 -307Q435 -292 436 -290Q438 -279 437 -269Q440 -254 437 -240Q433 -224 428 -209Q429 -203 422 -191Q418 -184 417 -178Q413 -156 402 -138Q400 -135 395 -118Q391 -117 389 -107Q390 -103 384 -96Q379 -91 379 -87Q359 -62 334 -41Q329 -39 321 -30Q314 -23 309 -20Q304 -18 298 -15Q293 -12 290 -19Q282 -27 279 -36Q276 -45 271 -53Q266 -83 264 -87Q259 -96 262 -102Q274 -97 289 -94Q306 -89 322 -120Q333 -138 343 -157Q344 -164 354 -177Q360 -186 363 -193Q363 -196 371 -220Q376 -241 380 -262Q378 -286 372 -295Q367 -303 356 -303Q349 -303 334 -298Q315 -304 298 -311Q290 -314 287 -307Q284 -301 282 -295Q275 -282 267 -269Q259 -252 250 -236Q244 -231 239 -217Q236 -208 232 -203Q221 -199 213 -184Q207 -166 189 -151Q183 -146 171 -131Q162 -120 154 -113Q146 -123 137 -133Q137 -144 136 -155Q141 -159 153 -178Q156 -188 168 -206Q178 -221 181 -229Q179 -237 185 -239Q190 -242 194 -246Q197 -259 203 -269Q210 -279 232 -323Q235 -341 245 -351Q263 -396 266 -400Q270 -406 270 -410Q270 -417 264 -417Q257 -415 254 -416Q246 -420 239 -417Q231 -414 224 -413Q218 -414 190 -409Q157 -403 122 -405Q106 -409 89 -413Q78 -414 74 -422Q76 -424 85 -424Q93 -424 97 -426Q112 -428 161 -442Q182 -447 202 -453Q235 -462 268 -472Q313 -484 357 -496Q362 -499 378 -502Q396 -505 404 -513ZM679 -417H681Q686 -418 692 -415Q699 -411 703 -413Q708 -416 713 -412Q718 -408 723 -404Q733 -405 733 -387Q736 -381 734 -365Q732 -353 733 -349Q745 -351 756 -354Q760 -355 778 -360Q795 -364 820 -359Q841 -362 840 -348Q838 -343 842 -335Q846 -326 844 -321Q842 -315 832 -315Q824 -315 822 -311Q816 -305 807 -303Q805 -302 798 -302Q789 -302 786 -298Q767 -298 752 -292Q745 -293 740 -288Q735 -282 736 -275Q731 -267 735 -248Q731 -238 734 -224Q736 -219 741 -219Q746 -220 751 -219Q763 -215 775 -211Q781 -210 780 -205Q778 -199 778 -194Q779 -186 773 -179Q772 -174 764 -176Q759 -177 757 -176Q746 -175 741 -154Q742 -150 739 -144Q736 -138 737 -134Q740 -131 738 -117Q733 -112 732 -99Q731 -88 729 -84Q729 -76 748 -74Q760 -72 768 -78Q775 -81 785 -78Q808 -81 829 -70Q844 -69 858 -61Q863 -60 865 -55Q867 -50 870 -44Q870 -38 866 -37Q862 -35 858 -34Q854 -34 855 -30Q855 -26 854 -23Q850 -19 842 -21Q835 -22 832 -20Q824 -15 816 -17Q808 -20 800 -19Q766 -19 734 -16Q726 -18 719 -17L684 -15Q676 -17 671 -16Q656 -14 643 -16Q634 -24 624 -16Q592 -48 612 -80Q615 -89 629 -101Q639 -101 648 -106Q650 -108 667 -137Q675 -164 668 -168Q657 -169 646 -171Q633 -179 613 -177Q607 -178 602 -179Q596 -180 594 -185Q603 -186 614 -191Q617 -197 633 -199Q645 -206 659 -209Q668 -209 672 -212Q677 -216 676 -224Q677 -245 677 -266Q672 -274 665 -272Q657 -270 651 -270Q640 -267 622 -271Q605 -275 599 -274Q595 -273 588 -276Q579 -279 575 -274Q570 -262 556 -262Q548 -262 543 -270Q542 -274 535 -278Q528 -283 528 -287Q528 -313 530 -318Q536 -345 563 -380Q568 -385 574 -379Q578 -375 581 -368Q584 -365 588 -352Q587 -348 592 -342Q598 -335 597 -330Q587 -320 586 -316Q586 -307 586 -298Q589 -294 595 -296Q601 -299 607 -300Q616 -305 656 -319Q658 -321 668 -323Q673 -322 676 -327Q678 -331 676 -335Q670 -349 667 -366Q666 -374 659 -378Q651 -381 644 -378Q634 -380 623 -371Q616 -369 613 -374Q609 -380 615 -384Q623 -390 631 -396Q640 -408 657 -414Q669 -418 679 -417Z"/>
</svg>