<svg xmlns="http://www.w3.org/2000/svg" viewBox="0 -800 1024 1024">
	<path fill="#000000" d="M574 -693Q586 -693 600 -690Q614 -692 620 -684Q631 -680 633 -656Q639 -639 635 -601Q633 -597 632 -586Q631 -573 628 -568Q628 -562 627 -556Q626 -549 632 -546Q647 -549 661 -552Q664 -552 670 -554Q677 -557 681 -555Q700 -558 704 -557Q714 -563 727 -559Q734 -558 740 -561Q746 -563 752 -558Q754 -554 761 -555Q766 -556 769 -554Q776 -552 778 -544Q779 -541 780 -528Q780 -520 771 -515Q757 -515 755 -512Q747 -506 736 -507Q730 -503 714 -501Q701 -500 695 -496Q673 -495 652 -491Q649 -490 642 -489Q632 -488 628 -484Q628 -481 627 -479L624 -468Q624 -465 623 -463Q620 -456 622 -447Q619 -430 618 -412Q615 -408 615 -403Q615 -397 621 -397Q633 -402 647 -402Q655 -412 666 -409Q672 -408 678 -408Q683 -409 690 -405Q692 -404 696 -406Q700 -408 704 -407Q706 -403 712 -402Q719 -400 721 -397Q721 -395 726 -393Q733 -390 732 -386Q728 -366 697 -366Q689 -364 681 -362Q676 -359 664 -359Q651 -359 646 -355Q626 -355 596 -343Q575 -345 566 -339Q562 -340 556 -337Q550 -334 546 -335Q533 -336 523 -334Q505 -340 486 -346Q482 -348 477 -349Q472 -351 472 -356Q477 -364 494 -362Q514 -370 536 -374Q550 -374 557 -388Q556 -399 559 -449Q557 -459 558 -467Q558 -473 553 -474Q547 -475 544 -472Q535 -473 519 -468Q502 -463 492 -465Q466 -465 463 -464Q449 -467 434 -471Q422 -474 410 -477Q407 -481 411 -483Q416 -485 420 -484Q434 -491 466 -497Q479 -502 532 -514Q535 -515 545 -517Q559 -519 565 -525Q567 -531 567 -541Q567 -554 570 -559Q571 -600 569 -638Q569 -659 562 -666Q559 -671 546 -679Q541 -681 543 -684Q544 -688 548 -689Q561 -691 574 -693ZM295 -605Q310 -605 318 -603Q326 -599 334 -594Q343 -590 349 -581Q357 -570 348 -557Q337 -552 331 -545Q325 -546 313 -539Q309 -535 305 -539Q302 -542 299 -544Q294 -550 288 -553Q281 -556 276 -559Q269 -561 255 -570Q243 -578 234 -580Q233 -581 224 -583Q219 -584 220 -589Q240 -594 259 -599Q276 -605 295 -605ZM248 -438Q250 -437 250 -432Q250 -425 253 -423Q257 -421 259 -412Q261 -404 265 -401Q273 -393 263 -376Q262 -368 253 -337Q254 -330 247 -308Q244 -291 241 -274Q240 -264 238 -255Q239 -247 235 -237Q230 -223 231 -215Q234 -210 232 -199Q230 -189 232 -184Q234 -180 232 -172Q230 -161 234 -157Q233 -153 240 -140Q236 -126 252 -110Q255 -106 259 -106Q268 -109 277 -116Q307 -144 323 -158Q355 -190 370 -207Q381 -219 385 -232Q387 -235 389 -234Q391 -233 390 -229Q388 -222 384 -214Q381 -206 384 -197Q386 -189 375 -180Q364 -171 367 -163Q368 -157 360 -154Q353 -152 352 -148Q351 -141 340 -134Q330 -128 329 -122Q332 -113 325 -104Q325 -100 320 -96Q316 -92 315 -90Q309 -79 303 -69Q302 -65 298 -65L294 -64Q290 -64 289 -60Q285 -47 277 -49Q270 -54 265 -50Q242 -57 224 -70Q217 -74 209 -85Q203 -93 200 -96Q186 -125 175 -162L173 -230Q175 -244 174 -251Q176 -271 183 -290Q186 -325 203 -370Q210 -394 224 -416Q244 -434 248 -438ZM807 -297Q814 -298 820 -294Q833 -295 857 -279Q863 -278 866 -273Q868 -268 871 -263Q877 -260 877 -247Q884 -238 882 -227Q878 -220 878 -210Q878 -198 873 -187Q869 -177 865 -165Q861 -162 859 -154Q857 -147 854 -144Q843 -132 838 -117Q830 -112 822 -98Q810 -85 800 -71Q797 -67 800 -64Q804 -60 809 -61Q836 -51 829 -38Q824 -29 819 -21Q818 -8 799 -11Q781 -11 766 -15Q752 -20 737 -20Q722 -20 708 -21Q711 -25 708 -26L671 -27Q657 -27 642 -28Q619 -31 595 -35Q587 -34 583 -39Q581 -41 586 -44Q595 -47 615 -51Q630 -53 644 -55Q658 -57 672 -60Q683 -62 693 -64Q702 -61 714 -65Q731 -66 746 -73Q774 -102 789 -138Q797 -157 801 -176Q803 -198 813 -233Q814 -242 810 -248Q805 -255 798 -252Q783 -249 767 -247Q758 -246 718 -236Q700 -230 681 -224Q664 -222 657 -214Q651 -208 638 -210Q629 -211 625 -210Q614 -211 600 -217Q595 -218 590 -221Q585 -224 581 -220Q581 -217 576 -201Q568 -194 567 -184Q565 -173 561 -164Q559 -156 562 -148Q559 -133 558 -116Q559 -107 557 -96Q560 -81 563 -67Q565 -54 547 -38Q535 -34 526 -45Q520 -49 515 -56Q507 -67 502 -68Q489 -72 498 -97Q498 -109 503 -118Q504 -130 504 -143Q510 -167 517 -191Q524 -214 539 -234Q549 -250 563 -262Q566 -267 570 -267Q579 -263 588 -260Q596 -257 588 -244Q586 -232 608 -239Q626 -251 646 -258Q670 -266 693 -274Q708 -278 722 -282Q736 -288 752 -291Q756 -291 763 -293Q771 -296 776 -295Q792 -296 807 -297Z"/>
</svg>