<svg xmlns="http://www.w3.org/2000/svg" viewBox="0 -800 1024 1024">
	<path fill="#000000" d="M233 -667L241 -664Q244 -660 258 -660Q267 -660 270 -657Q275 -658 277 -653Q279 -648 282 -646Q293 -636 287 -619Q282 -610 284 -599Q286 -588 286 -578Q280 -570 280 -547Q277 -522 274 -498Q274 -496 274 -494L275 -486Q275 -484 275 -482Q273 -476 275 -469Q277 -462 284 -461Q289 -464 299 -462Q303 -464 308 -460Q312 -457 314 -457Q319 -456 318 -453Q315 -449 311 -446Q307 -447 306 -443Q305 -439 306 -437Q289 -429 276 -425Q276 -411 274 -398Q275 -391 273 -378Q271 -360 274 -351Q276 -342 275 -335Q276 -326 274 -310Q271 -287 275 -278Q273 -264 270 -251L275 -230Q274 -216 272 -202Q275 -196 275 -183Q275 -174 276 -169Q275 -163 278 -154Q282 -139 280 -132Q282 -80 281 -65Q276 -59 280 -43Q277 -30 270 -18Q264 -3 258 12Q253 11 247 15Q243 18 240 18Q228 11 222 0Q211 -5 200 -29Q202 -56 199 -79Q198 -81 199 -82Q202 -82 206 -84Q209 -126 217 -166Q218 -173 224 -180L221 -200Q218 -203 221 -211Q224 -218 221 -222Q216 -221 210 -212Q206 -205 202 -204Q182 -191 166 -172Q158 -167 150 -157Q140 -144 132 -140Q123 -124 111 -117Q104 -110 97 -104Q93 -106 90 -102Q87 -99 85 -101Q79 -110 73 -120Q68 -129 63 -139Q53 -144 55 -151Q57 -158 59 -166Q72 -169 83 -175Q86 -182 97 -186Q107 -190 110 -195Q121 -209 134 -217Q148 -225 161 -234Q168 -240 188 -250Q205 -259 215 -267Q222 -269 224 -283Q227 -299 227 -317Q226 -334 228 -363Q228 -385 234 -405Q227 -410 220 -405Q213 -400 205 -399Q194 -391 181 -389Q167 -387 155 -383Q151 -386 143 -386Q132 -386 129 -389Q122 -387 119 -392Q116 -397 121 -403Q139 -408 156 -413Q166 -418 176 -423Q183 -418 185 -425Q189 -424 193 -429Q198 -435 203 -433Q207 -437 216 -440Q230 -445 233 -451Q233 -516 230 -548Q230 -557 230 -567Q229 -574 230 -585Q229 -591 229 -608Q230 -631 224 -640Q224 -645 216 -648Q208 -651 210 -658Q224 -661 233 -667ZM775 -661Q782 -659 787 -661Q795 -660 803 -660Q811 -661 816 -654Q825 -663 834 -656Q838 -654 843 -649Q847 -645 852 -649Q854 -643 863 -635Q871 -628 873 -623Q870 -619 874 -616Q877 -613 877 -611Q882 -607 880 -599Q878 -593 880 -590Q889 -586 887 -578Q877 -560 877 -535Q880 -530 873 -524Q867 -518 867 -514Q864 -510 861 -507L851 -493Q848 -489 845 -486Q833 -477 826 -464Q814 -448 801 -448Q799 -442 789 -434Q779 -426 776 -419Q767 -413 760 -404Q759 -400 751 -398Q746 -396 744 -393Q739 -396 736 -407Q734 -415 731 -418Q724 -428 717 -439Q714 -446 708 -443Q702 -440 697 -438Q690 -439 682 -437Q662 -430 640 -432Q633 -427 636 -421Q640 -415 642 -409Q641 -406 645 -403Q650 -399 650 -395Q655 -390 653 -378Q652 -369 653 -366Q651 -361 654 -360Q657 -359 661 -357Q677 -364 687 -351Q681 -347 690 -338Q686 -334 659 -322Q650 -314 650 -303Q650 -299 646 -291Q641 -283 643 -278Q642 -277 640 -265Q639 -254 638 -243Q637 -238 635 -232Q633 -227 638 -222Q661 -227 672 -224Q677 -229 687 -231Q700 -237 732 -243Q740 -245 746 -243Q752 -249 769 -251Q786 -253 792 -258Q803 -254 814 -251L831 -255Q840 -258 841 -252Q841 -247 846 -248Q850 -249 848 -254Q853 -260 857 -257Q862 -254 866 -254Q870 -243 865 -234Q861 -238 859 -235Q857 -227 852 -223Q849 -219 843 -219Q838 -219 835 -215Q823 -209 817 -211Q811 -208 795 -206Q775 -200 752 -197Q748 -194 739 -195Q729 -197 725 -192Q713 -185 705 -189Q702 -186 693 -185Q687 -185 683 -182Q666 -185 657 -170Q656 -166 649 -161Q641 -155 640 -150Q636 -137 624 -137Q616 -125 607 -113Q600 -112 598 -102Q595 -85 582 -72Q584 -68 578 -63Q573 -58 576 -55Q601 -53 623 -62Q662 -72 702 -79Q706 -84 704 -97Q702 -108 704 -113Q706 -121 704 -128Q704 -131 711 -130L740 -114Q747 -105 753 -96Q766 -80 775 -48Q778 -45 779 -36Q780 -25 785 -22Q783 -10 792 -2Q789 6 791 17Q793 28 792 32Q792 39 787 40Q779 39 771 38Q766 36 765 40Q764 44 761 47Q754 38 743 36Q735 35 731 30Q728 24 722 20Q715 17 716 10Q717 4 718 -2Q710 -4 709 -17Q708 -26 705 -30Q705 -35 701 -34Q696 -34 693 -35Q685 -32 656 -23Q634 -21 614 -14Q602 -13 593 -7Q571 -4 552 -5Q550 -7 544 -7Q537 -7 535 -10Q529 -15 522 -18Q515 -22 511 -29Q505 -40 498 -49Q493 -66 506 -91Q518 -112 530 -128Q535 -131 537 -141Q538 -148 541 -151Q538 -156 532 -155Q526 -154 520 -155Q503 -152 486 -149Q460 -146 433 -150Q415 -156 397 -163Q393 -165 394 -168Q394 -170 398 -169Q414 -177 432 -179Q451 -179 468 -183Q507 -190 546 -197Q555 -199 565 -200Q576 -201 576 -212Q586 -250 589 -270Q591 -283 588 -291Q579 -293 569 -296Q551 -292 535 -299Q533 -305 522 -309Q514 -312 512 -315Q521 -322 527 -322Q535 -326 545 -326Q554 -329 564 -329Q569 -334 580 -337Q596 -342 598 -350Q596 -404 589 -420Q585 -429 577 -421Q570 -418 558 -418Q539 -418 532 -410Q529 -409 512 -409Q504 -413 495 -418Q494 -422 488 -419Q481 -416 478 -419Q476 -420 470 -425Q462 -432 456 -432Q447 -438 438 -447Q422 -451 413 -461Q399 -467 391 -482Q382 -498 389 -512Q390 -527 399 -538Q408 -549 414 -562Q415 -577 428 -585Q439 -602 455 -611Q456 -615 461 -615Q474 -613 473 -600Q473 -583 471 -570Q464 -558 457 -546Q461 -539 456 -533Q451 -528 449 -523Q445 -514 447 -500Q441 -478 458 -464Q464 -460 471 -448Q480 -449 488 -444Q523 -451 557 -458Q564 -459 562 -465Q559 -470 557 -475Q557 -495 566 -522Q570 -544 570 -567Q558 -571 551 -570Q529 -572 510 -576Q509 -578 499 -581Q491 -584 493 -590Q518 -600 542 -610Q556 -616 571 -619L635 -636Q643 -641 664 -644Q680 -646 689 -650Q712 -656 737 -655Q755 -659 775 -661ZM790 -623Q768 -616 745 -612Q722 -607 699 -602Q687 -603 677 -600Q668 -597 677 -584Q684 -580 687 -571Q692 -556 693 -555Q692 -541 691 -528Q690 -516 684 -505Q684 -500 681 -492Q678 -485 679 -480Q675 -476 681 -472Q686 -469 690 -471Q695 -470 702 -473Q710 -474 712 -468Q713 -463 716 -458Q721 -461 735 -456Q754 -450 763 -470Q762 -474 767 -475Q772 -476 772 -479Q787 -484 780 -497Q785 -505 800 -518Q813 -539 825 -560Q843 -592 813 -616Q807 -623 790 -623ZM630 -588Q617 -585 607 -582Q601 -580 604 -574Q606 -571 612 -567Q612 -548 612 -530Q607 -500 602 -471Q604 -464 610 -466Q616 -468 618 -473Q618 -485 625 -503Q631 -519 632 -524Q632 -540 638 -568Q640 -574 638 -581Q636 -589 630 -588Z"/>
</svg>