<svg xmlns="http://www.w3.org/2000/svg" viewBox="0 -800 1024 1024">
	<path fill="#000000" d="M610 -714L642 -713Q681 -711 681 -690Q685 -683 685 -665Q685 -652 688 -645Q683 -593 687 -578Q684 -568 683 -536Q683 -505 679 -495Q676 -489 682 -487Q687 -485 691 -488Q713 -498 738 -500Q745 -508 755 -508Q762 -504 779 -506Q794 -508 800 -506Q803 -503 812 -501Q825 -498 826 -490Q827 -476 827 -463Q826 -459 820 -457Q816 -455 815 -453Q803 -453 796 -446Q772 -444 764 -446Q758 -442 750 -440Q740 -439 729 -438Q718 -435 707 -432Q698 -429 690 -424Q684 -426 680 -421Q677 -417 677 -411Q676 -391 674 -371Q669 -359 669 -348Q671 -311 679 -301Q681 -297 687 -295Q693 -293 694 -290Q705 -291 715 -292Q720 -291 726 -292Q732 -294 737 -290Q742 -294 747 -291Q751 -289 756 -289Q760 -286 765 -281Q769 -275 767 -270Q771 -264 767 -255Q763 -247 756 -246Q747 -241 738 -237Q731 -240 719 -235Q711 -232 706 -233Q698 -230 689 -227Q680 -225 682 -217Q683 -209 680 -202Q679 -187 683 -177Q713 -169 742 -161Q758 -155 773 -149Q788 -146 802 -144Q813 -140 821 -139Q863 -131 903 -119Q918 -113 933 -108Q945 -101 925 -88Q915 -84 904 -81Q898 -78 892 -73Q887 -68 880 -72Q868 -74 857 -73Q846 -75 798 -89Q748 -104 701 -127Q696 -129 691 -132Q685 -135 680 -130Q682 -109 678 -66Q680 -46 670 -11Q667 -7 669 2Q671 9 669 12Q666 24 645 33Q637 24 626 21Q626 16 621 16Q615 16 612 12Q607 -5 595 -20Q585 -27 603 -33Q608 -40 610 -67Q608 -84 611 -101Q612 -112 612 -123Q611 -128 614 -136Q618 -147 612 -152Q602 -150 591 -143Q578 -133 564 -124Q548 -110 531 -100Q522 -97 519 -93Q515 -93 506 -89Q499 -85 493 -86Q489 -86 490 -92Q490 -98 492 -100Q516 -122 535 -146Q553 -173 568 -183Q573 -189 579 -193Q586 -198 585 -205Q573 -204 560 -204Q555 -204 534 -211Q522 -221 507 -230Q497 -235 491 -243Q507 -243 522 -243Q578 -254 611 -266Q618 -276 616 -289Q613 -302 611 -314L612 -361Q612 -375 612 -389Q612 -396 613 -404Q614 -412 607 -414Q579 -408 566 -408Q553 -400 543 -406Q526 -404 511 -411Q496 -418 480 -423Q479 -424 471 -426Q465 -428 466 -431Q496 -437 512 -438Q559 -448 605 -462Q614 -463 612 -473Q612 -482 612 -491L610 -509Q611 -521 611 -533Q612 -551 613 -570Q613 -586 615 -614Q619 -637 617 -661Q623 -682 597 -694Q596 -696 590 -698Q585 -700 584 -704Q587 -708 598 -710Q607 -711 610 -714ZM282 -617Q291 -617 292 -616Q301 -616 310 -608Q326 -590 330 -579Q325 -570 319 -562Q315 -560 311 -554Q307 -548 304 -547Q300 -548 292 -540Q287 -540 279 -536Q271 -545 263 -555Q255 -565 245 -569Q237 -576 217 -581Q204 -584 198 -588Q194 -590 195 -593Q196 -596 200 -596Q205 -596 210 -600Q217 -605 220 -605Q225 -610 236 -608Q245 -615 259 -615Q271 -616 282 -617ZM212 -425Q216 -427 217 -423Q212 -414 224 -402Q226 -400 226 -392Q226 -383 230 -379Q230 -372 228 -356Q225 -333 218 -310Q216 -304 214 -290Q209 -269 208 -246Q204 -232 203 -224Q203 -189 203 -154Q207 -137 210 -121Q221 -107 223 -101Q226 -96 231 -96Q239 -96 248 -107Q311 -161 327 -194Q333 -200 339 -213Q346 -228 353 -234Q358 -231 357 -221Q356 -213 358 -209Q354 -199 351 -194Q347 -184 342 -174Q343 -165 336 -156Q330 -146 324 -136Q324 -132 318 -129Q312 -126 311 -123Q311 -109 307 -98Q298 -94 297 -87Q297 -80 290 -75Q282 -70 279 -62Q275 -54 267 -53Q258 -51 251 -49Q241 -39 233 -45Q216 -59 198 -71Q180 -84 168 -102Q166 -105 152 -145Q149 -153 151 -171Q153 -186 151 -194Q153 -214 152 -224Q154 -243 153 -252Q157 -272 161 -292Q164 -309 167 -327Q178 -366 194 -402Q199 -416 212 -425Z"/>
</svg>