<svg xmlns="http://www.w3.org/2000/svg" viewBox="0 -800 1024 1024">
	<path fill="#000000" d="M259 -692L266 -691Q293 -682 302 -674Q310 -669 317 -643Q317 -639 315 -634Q312 -626 314 -622Q310 -616 313 -612Q315 -607 315 -602Q309 -582 311 -561Q315 -552 315 -541Q311 -537 311 -530Q312 -525 317 -526Q330 -531 367 -529Q373 -534 382 -532Q395 -523 409 -522Q412 -518 420 -515Q432 -510 434 -503Q437 -499 432 -492Q428 -486 430 -482Q419 -478 413 -469Q406 -470 402 -464Q399 -458 396 -453Q389 -451 384 -445Q377 -438 373 -437Q369 -429 360 -422Q352 -421 354 -415Q354 -410 361 -411Q369 -408 377 -408Q395 -410 413 -412Q417 -413 424 -411Q431 -408 435 -410Q440 -408 439 -398Q436 -396 437 -392Q438 -389 436 -387Q431 -385 426 -377Q422 -370 419 -369Q413 -368 410 -360Q408 -354 406 -353Q404 -349 401 -340Q397 -327 392 -322Q392 -316 388 -313Q384 -310 382 -307Q381 -301 373 -293Q365 -286 364 -281Q359 -272 346 -258Q329 -240 326 -228Q312 -218 316 -201Q318 -196 315 -187Q311 -177 315 -172Q315 -160 314 -148Q315 -143 311 -138Q308 -133 308 -130Q311 -114 308 -105Q309 -97 309 -89Q306 -80 311 -68Q310 -58 308 -48Q310 -45 309 -36Q307 -27 310 -23Q312 -19 309 -3Q310 7 292 11Q279 5 272 -4Q264 -14 254 -23Q255 -31 250 -37Q244 -43 242 -49Q243 -51 243 -54L244 -65Q245 -67 245 -70Q250 -94 251 -121Q247 -130 250 -140Q245 -142 242 -138Q239 -133 235 -130Q223 -118 216 -107Q212 -98 205 -101Q198 -103 197 -111Q189 -116 179 -129Q170 -140 165 -144Q167 -155 174 -164Q180 -172 185 -181Q190 -189 193 -196Q196 -203 204 -208Q218 -227 228 -244Q235 -255 243 -270Q251 -286 262 -306Q263 -312 263 -321Q263 -331 254 -331Q244 -333 233 -325Q223 -324 212 -321Q208 -317 203 -317Q195 -316 193 -314Q190 -315 179 -311Q163 -309 146 -308Q134 -307 123 -312Q113 -316 102 -319Q96 -326 78 -326Q77 -330 81 -332Q86 -333 89 -332Q98 -337 110 -340Q153 -346 192 -357L233 -369Q250 -384 267 -400Q272 -426 265 -434Q265 -460 267 -465Q267 -478 263 -488Q269 -491 268 -499Q268 -506 267 -511Q262 -517 262 -523Q264 -529 261 -539Q258 -549 259 -554Q264 -569 261 -584Q258 -595 263 -606Q262 -618 266 -632Q264 -637 266 -646Q268 -656 266 -661Q266 -669 261 -673Q256 -678 250 -682Q246 -684 247 -686Q252 -691 259 -692ZM659 -676Q666 -677 678 -674Q694 -670 702 -675Q725 -679 739 -653Q749 -643 749 -624Q749 -613 742 -602Q747 -598 745 -585Q738 -571 725 -534Q714 -510 705 -486Q693 -477 688 -462Q688 -458 684 -452L681 -446Q677 -440 677 -436Q694 -431 708 -426Q751 -422 766 -402Q776 -396 786 -380Q792 -376 794 -365Q796 -356 799 -352Q798 -343 800 -323Q802 -301 799 -289Q797 -274 795 -260Q789 -259 788 -254Q786 -249 785 -244Q782 -241 782 -235Q782 -228 779 -225Q770 -209 762 -191Q753 -177 741 -166Q732 -146 709 -130Q704 -127 700 -119Q720 -110 741 -103Q776 -94 807 -77Q843 -66 872 -44Q876 -42 879 -35Q883 -26 887 -24Q884 -19 888 -17Q895 -15 895 -7Q899 2 896 5Q891 9 894 13Q896 17 897 20Q896 22 892 22Q890 22 888 22Q885 28 884 32Q883 33 881 31Q879 32 874 28Q868 23 864 29Q837 18 812 -1Q788 -16 763 -27Q753 -31 743 -35Q679 -60 650 -67Q642 -73 631 -59Q624 -59 616 -51Q609 -44 604 -43Q600 -45 598 -42Q596 -39 593 -36Q588 -34 581 -29Q575 -24 568 -25Q565 -26 556 -23Q546 -20 540 -23Q534 -17 523 -23Q519 -25 520 -27Q524 -29 530 -32Q554 -40 580 -59Q586 -63 593 -67Q600 -72 599 -79Q554 -92 508 -100Q495 -101 475 -110Q456 -118 448 -120Q435 -127 417 -129Q413 -128 412 -129Q410 -130 411 -132Q412 -136 418 -133Q424 -138 448 -138Q454 -138 464 -141Q477 -145 482 -144Q488 -146 519 -146Q523 -143 531 -144Q539 -145 542 -144Q545 -145 550 -142Q554 -140 556 -141Q583 -139 609 -133Q615 -134 626 -131Q638 -128 645 -130Q662 -146 681 -178Q683 -187 691 -198Q701 -212 702 -219Q709 -231 716 -244Q722 -261 727 -279Q734 -289 734 -300Q735 -325 726 -352Q719 -378 690 -389Q685 -390 665 -400Q659 -406 648 -401Q643 -406 635 -410Q619 -434 619 -453Q625 -475 632 -494Q638 -495 636 -502Q634 -508 636 -510Q638 -530 645 -547Q651 -572 656 -597Q655 -605 660 -610Q658 -615 656 -620Q653 -615 645 -614Q635 -612 634 -607Q624 -600 612 -597Q600 -587 587 -582Q578 -580 573 -575Q554 -563 547 -556Q542 -551 539 -551Q533 -551 549 -572Q578 -608 612 -631Q616 -639 624 -643Q632 -647 637 -656Q636 -659 642 -661Q647 -663 648 -665Q646 -671 651 -673Q655 -674 659 -676ZM201 -519L205 -510Q212 -484 222 -462Q238 -471 251 -483Q254 -486 255 -485Q256 -482 252 -478Q250 -475 244 -471Q237 -466 235 -461Q229 -458 228 -453Q226 -448 223 -444Q222 -442 222 -438L223 -435Q223 -431 222 -429Q219 -419 219 -411Q223 -391 216 -372Q207 -368 202 -374Q196 -381 190 -384Q183 -391 176 -399Q165 -408 167 -433Q161 -441 163 -453Q168 -458 170 -467L174 -476Q176 -485 181 -490Q182 -494 184 -493Q187 -491 190 -490Q191 -490 192 -494Q194 -497 195 -506Q196 -516 201 -519ZM321 -500Q317 -492 313 -485Q304 -468 313 -453Q322 -460 334 -487Q338 -494 332 -498Q326 -502 321 -500ZM384 -362L379 -360Q370 -357 360 -357Q342 -351 323 -346Q321 -341 316 -324Q316 -313 316 -302Q316 -290 316 -279Q316 -275 320 -276Q324 -279 326 -282Q371 -331 389 -356Q393 -358 391 -362Q390 -365 384 -362Z"/>
</svg>