<svg xmlns="http://www.w3.org/2000/svg" viewBox="0 -800 1024 1024">
	<path fill="#000000" d="M746 -676L747 -674Q763 -674 779 -674Q804 -671 806 -670Q823 -667 844 -651Q850 -650 851 -641Q852 -633 856 -631Q861 -629 859 -626Q854 -622 858 -616Q873 -614 859 -593Q862 -584 855 -564Q850 -561 846 -549Q842 -539 836 -536Q834 -530 824 -522Q814 -514 812 -506Q808 -507 806 -503Q805 -499 803 -497Q798 -496 797 -491Q796 -486 794 -483Q786 -478 785 -472Q780 -473 777 -467Q774 -461 771 -460Q764 -459 757 -451Q750 -443 746 -441Q744 -438 736 -433Q728 -428 725 -423Q715 -418 704 -423Q682 -427 663 -427Q640 -428 622 -424Q619 -426 611 -425Q604 -424 601 -427Q584 -422 569 -422Q529 -422 499 -412Q490 -414 481 -416Q472 -418 468 -427Q461 -428 462 -435Q457 -436 458 -439Q460 -443 463 -447Q458 -453 453 -459Q447 -466 439 -467Q427 -459 420 -473Q419 -482 412 -485Q405 -489 400 -494Q400 -505 393 -512Q394 -524 398 -541Q401 -551 403 -562Q405 -574 413 -583Q417 -584 418 -591Q419 -597 423 -598Q430 -612 441 -621Q449 -635 463 -647Q471 -646 473 -652Q475 -658 477 -662Q486 -659 495 -655Q497 -651 500 -653Q503 -655 505 -653Q511 -640 509 -609Q500 -602 490 -595Q488 -589 483 -579Q477 -576 473 -564Q470 -555 467 -552Q463 -543 461 -534Q455 -521 470 -508Q477 -504 480 -492Q483 -479 491 -476Q497 -474 498 -467Q499 -460 492 -459Q489 -461 486 -460Q484 -459 483 -455Q477 -454 477 -447Q477 -440 482 -439Q500 -439 519 -446Q526 -446 533 -447Q542 -453 553 -450Q557 -454 567 -458Q570 -455 575 -458Q578 -460 582 -460Q592 -481 601 -502Q609 -527 622 -549Q629 -566 632 -585Q634 -600 631 -611Q624 -616 613 -614Q602 -614 593 -610Q585 -607 589 -600Q592 -592 593 -585Q588 -580 586 -562Q581 -558 584 -548Q586 -539 583 -535Q583 -520 583 -505Q579 -490 571 -485Q569 -480 563 -482Q557 -484 554 -479Q551 -480 548 -475Q546 -472 544 -472L534 -494Q526 -508 529 -527Q530 -528 541 -568Q541 -572 544 -581Q549 -593 545 -598Q527 -601 511 -597Q507 -596 507 -597Q507 -603 513 -609Q521 -610 526 -614Q530 -619 536 -623Q552 -627 565 -635Q572 -635 584 -641Q600 -648 609 -647Q631 -660 651 -661Q658 -664 663 -659Q665 -658 666 -662Q685 -672 700 -668Q708 -673 718 -673Q722 -665 727 -670Q729 -671 746 -676ZM228 -665H229Q232 -662 233 -650Q234 -641 237 -635Q236 -625 234 -615Q232 -602 235 -592Q236 -582 236 -572Q238 -553 239 -551Q239 -533 239 -516Q238 -501 237 -486Q236 -475 239 -467Q258 -474 262 -479Q266 -486 265 -493Q264 -495 261 -493Q259 -504 252 -519Q243 -539 242 -549Q245 -549 249 -542Q253 -535 255 -534Q255 -528 262 -525Q267 -523 268 -520Q270 -513 276 -512Q282 -512 287 -511Q290 -510 293 -509L303 -504Q305 -504 309 -502Q323 -502 336 -502Q349 -500 352 -490Q357 -491 357 -487Q357 -481 359 -476Q363 -472 362 -465Q360 -457 352 -460Q348 -456 343 -456Q335 -456 325 -466Q318 -469 313 -467Q298 -472 275 -459Q266 -458 260 -454Q254 -449 248 -446Q233 -440 233 -409Q227 -389 227 -371Q228 -365 226 -358Q224 -350 226 -347Q223 -329 223 -309Q223 -301 223 -293Q223 -261 222 -229Q221 -215 219 -201Q219 -191 218 -186L217 -132Q214 -123 216 -112Q214 -101 210 -77Q209 -77 204 -74Q199 -71 198 -74Q196 -80 188 -83Q178 -87 178 -92Q171 -102 163 -113Q160 -124 153 -132Q153 -137 158 -150Q157 -158 162 -182Q165 -186 164 -196Q163 -206 165 -210Q164 -221 166 -231Q166 -249 171 -263Q168 -286 175 -306Q171 -317 173 -344Q175 -357 171 -371Q162 -361 152 -353Q145 -347 137 -341Q129 -336 128 -325Q130 -320 126 -316Q123 -312 118 -314Q107 -316 104 -320Q102 -318 100 -321Q98 -325 98 -330Q91 -333 88 -341Q85 -348 82 -350Q77 -373 88 -385Q95 -403 101 -421Q106 -428 113 -441Q123 -461 131 -468Q153 -446 143 -431Q143 -410 134 -393Q135 -388 133 -382Q131 -375 137 -372Q156 -391 175 -411Q183 -421 180 -429Q182 -442 184 -456Q182 -460 185 -466Q187 -472 186 -474Q183 -494 187 -515Q191 -518 189 -525Q187 -532 191 -535Q189 -544 191 -572Q195 -574 193 -581Q191 -587 194 -590Q194 -624 208 -640Q213 -646 217 -654Q220 -661 228 -665ZM735 -636Q728 -636 720 -636Q713 -634 697 -632Q673 -630 663 -623Q665 -617 675 -612Q684 -608 685 -604Q687 -580 673 -560Q670 -538 661 -520Q659 -518 656 -511Q654 -504 650 -502Q650 -498 644 -491Q637 -482 637 -477Q632 -473 635 -468Q638 -462 644 -466Q653 -466 671 -468Q677 -465 684 -465Q694 -465 701 -472Q705 -472 707 -474Q709 -477 712 -479Q726 -489 745 -518Q761 -542 771 -564Q776 -580 782 -595Q789 -610 787 -627Q757 -643 735 -636ZM584 -392L591 -391Q602 -386 612 -390Q620 -392 626 -390Q633 -388 640 -387Q652 -385 663 -383Q673 -385 678 -376Q684 -368 688 -360Q688 -356 690 -349Q692 -343 685 -342Q682 -337 675 -340Q674 -335 679 -335Q686 -335 689 -336Q729 -342 750 -345Q759 -345 773 -350Q794 -357 805 -354Q816 -358 821 -355Q837 -358 853 -350Q861 -349 863 -342Q865 -335 866 -328Q876 -318 853 -303Q851 -305 847 -303Q841 -300 838 -303Q829 -304 819 -300Q804 -301 788 -303Q771 -301 753 -299Q744 -301 740 -298Q717 -295 694 -292Q688 -292 682 -290Q678 -288 682 -283Q687 -283 688 -278Q690 -273 693 -268Q688 -255 696 -242Q708 -240 730 -238Q739 -239 747 -237Q782 -239 802 -226Q814 -215 819 -201Q822 -198 821 -188Q820 -179 822 -174Q826 -163 822 -150Q819 -146 818 -136Q817 -124 812 -120Q806 -117 805 -111Q804 -105 803 -99Q798 -86 792 -73Q784 -76 780 -67Q774 -55 771 -52Q767 -50 762 -35Q762 -31 756 -32Q752 -33 751 -30Q752 -18 743 -12Q742 -6 737 -3Q732 0 727 4Q725 9 719 14Q712 20 710 24Q704 26 697 36Q691 45 687 48Q679 50 668 61Q659 70 656 72Q647 72 638 73Q635 70 631 74Q626 78 623 75Q617 61 608 50Q606 45 599 42Q592 39 591 37Q597 29 588 25Q584 21 586 21Q596 20 596 17Q594 14 596 12Q598 10 602 11Q612 13 622 16Q633 19 644 14Q665 -9 689 -29Q712 -49 728 -75Q737 -87 740 -99Q741 -102 745 -109Q750 -117 750 -123Q756 -129 762 -143Q763 -151 763 -160Q770 -168 764 -181Q759 -198 731 -198Q706 -201 687 -210Q677 -215 665 -218Q659 -222 656 -216Q653 -210 648 -206Q646 -202 641 -204Q635 -206 633 -203Q633 -197 628 -196Q623 -194 618 -191Q609 -189 604 -180Q598 -174 592 -165Q586 -157 575 -156Q569 -144 559 -138Q558 -133 552 -127Q547 -122 546 -121Q539 -114 532 -108Q524 -103 520 -94Q508 -88 502 -79Q493 -71 480 -61Q471 -62 460 -56Q457 -59 455 -57Q449 -51 448 -52Q450 -57 453 -63Q456 -68 451 -71Q449 -83 460 -91Q471 -99 479 -106Q492 -121 505 -132Q526 -160 551 -183Q563 -198 574 -213Q582 -222 590 -229Q598 -237 604 -247Q608 -249 613 -259Q616 -266 621 -270Q617 -278 609 -277Q601 -277 595 -278Q564 -269 513 -260Q509 -258 500 -257Q490 -256 484 -249L455 -245Q450 -242 437 -241Q425 -240 420 -238Q401 -238 382 -238Q369 -238 362 -243Q367 -245 364 -251Q361 -256 363 -258Q375 -253 401 -263Q407 -271 416 -273Q425 -275 434 -279Q446 -281 476 -290Q508 -300 528 -301Q546 -313 569 -314Q582 -319 591 -313Q599 -319 607 -319Q609 -321 615 -319Q622 -317 623 -323Q634 -324 644 -326Q647 -329 644 -331Q638 -333 634 -335Q614 -335 596 -344Q585 -346 553 -362Q548 -363 540 -365Q533 -367 537 -374Q541 -377 552 -379Q562 -380 566 -384Q568 -387 574 -387Q581 -387 584 -392Z"/>
</svg>