<svg xmlns="http://www.w3.org/2000/svg" viewBox="0 -800 1024 1024">
	<path fill="#000000" d="M578 -727H589Q606 -721 622 -716Q627 -716 629 -712Q631 -707 634 -704Q640 -701 640 -695Q641 -689 642 -683Q648 -672 647 -659Q645 -646 644 -634Q645 -628 645 -622Q644 -616 656 -619Q682 -626 707 -633Q711 -637 717 -637Q721 -637 737 -630Q740 -633 748 -635Q757 -636 765 -632Q766 -625 773 -622Q779 -624 783 -617Q786 -610 782 -605Q786 -593 777 -588Q771 -590 764 -585Q756 -580 752 -581Q748 -580 744 -580L728 -579Q723 -579 720 -578Q709 -577 696 -578Q684 -578 674 -573Q662 -576 650 -579Q644 -581 641 -575Q640 -573 639 -564Q637 -560 632 -539Q631 -527 630 -516Q631 -506 626 -496Q627 -487 624 -477Q631 -472 642 -477Q661 -484 681 -488Q707 -496 736 -499Q757 -500 778 -501Q784 -507 798 -497Q819 -499 833 -487Q847 -485 850 -473Q854 -457 858 -442Q859 -434 847 -423Q838 -415 837 -409Q827 -400 818 -389Q811 -390 801 -380Q794 -374 790 -372Q786 -368 780 -363Q774 -359 776 -351Q784 -335 780 -328Q778 -326 778 -319Q778 -311 774 -308Q770 -308 755 -303Q722 -302 690 -299Q669 -303 649 -302Q645 -304 635 -303Q624 -302 619 -306Q599 -310 579 -315Q558 -323 551 -325Q545 -323 544 -318Q543 -314 541 -309Q535 -301 534 -291Q534 -272 526 -259Q526 -240 516 -223Q515 -213 513 -204Q508 -198 504 -181Q500 -168 495 -156Q486 -143 479 -127Q469 -112 465 -94L448 -68Q442 -51 435 -34Q415 -12 411 -1Q401 11 370 35Q361 36 357 30Q356 28 353 17Q355 9 352 6Q348 3 344 0Q340 -4 345 -7Q358 -16 373 -41Q386 -60 413 -121Q424 -153 432 -172Q438 -194 447 -214Q449 -233 456 -250Q459 -253 459 -262Q459 -269 462 -272Q463 -280 469 -292Q466 -299 470 -305Q474 -310 475 -316Q480 -329 480 -343Q487 -364 494 -386Q494 -400 501 -408Q501 -411 507 -425Q507 -438 497 -443Q493 -450 499 -452Q504 -455 509 -456Q528 -462 534 -459Q543 -457 552 -455Q556 -455 560 -459Q561 -488 570 -515Q571 -521 571 -528Q570 -545 576 -561Q576 -583 581 -603Q586 -619 584 -637Q588 -654 581 -691Q577 -699 564 -705Q554 -709 551 -712Q548 -715 550 -718Q552 -721 556 -721Q567 -722 578 -727ZM239 -618Q247 -615 254 -613Q268 -615 284 -613Q295 -609 306 -606Q314 -604 314 -585Q315 -576 307 -562Q307 -548 300 -546Q288 -548 264 -550Q241 -567 218 -582Q212 -589 199 -593Q189 -596 187 -598Q184 -602 186 -603Q192 -605 198 -604Q203 -607 217 -610Q231 -613 239 -618ZM225 -450H226Q233 -452 237 -447Q244 -437 245 -437Q252 -434 252 -425Q251 -417 254 -410Q255 -399 259 -387Q244 -372 243 -362Q231 -344 227 -303Q221 -279 217 -267Q216 -250 215 -234Q220 -221 217 -206Q219 -195 220 -182Q226 -172 232 -162Q237 -158 242 -153Q246 -148 253 -148Q260 -153 278 -157Q292 -164 305 -174Q316 -185 326 -197Q336 -211 338 -218Q346 -238 350 -258Q351 -264 350 -271Q349 -279 355 -282Q357 -275 353 -262Q355 -251 357 -240Q356 -229 352 -207Q350 -198 347 -190Q342 -179 334 -169Q324 -163 323 -157Q324 -154 316 -141Q309 -125 300 -124Q296 -124 289 -116Q280 -106 274 -111Q269 -115 264 -113Q258 -110 253 -109Q239 -113 224 -118Q204 -123 188 -141Q172 -155 168 -173Q159 -183 157 -215Q155 -229 156 -241Q158 -246 156 -256Q154 -266 156 -270Q158 -273 157 -282Q156 -290 159 -293Q162 -305 165 -317Q170 -328 174 -339Q173 -351 178 -367Q182 -374 187 -394Q194 -420 203 -432Q207 -446 225 -450ZM760 -449Q749 -450 717 -443Q702 -443 690 -438Q670 -432 651 -424Q643 -426 634 -421Q626 -417 623 -417Q612 -420 605 -418Q594 -417 582 -417Q577 -415 573 -406Q570 -399 568 -397Q568 -375 565 -370Q565 -366 555 -347Q555 -338 574 -341Q588 -347 620 -351Q632 -358 652 -354Q654 -354 654 -355Q652 -357 651 -359Q652 -359 654 -359Q667 -360 680 -362Q683 -364 689 -361Q694 -359 697 -359Q717 -371 719 -371Q728 -383 737 -396Q761 -429 767 -440Q769 -444 767 -448Q764 -453 760 -449Z"/>
</svg>