<svg xmlns="http://www.w3.org/2000/svg" viewBox="0 -800 1024 1024">
	<path fill="#000000" d="M515 -722Q526 -722 528 -719Q534 -720 536 -717Q538 -713 541 -710Q543 -691 556 -685Q550 -672 557 -663Q559 -635 554 -607Q550 -602 552 -593Q553 -587 552 -585Q554 -572 555 -559Q551 -558 552 -556Q555 -552 552 -548Q553 -545 552 -538Q551 -532 554 -528Q549 -513 549 -497Q545 -492 549 -484Q550 -479 547 -470Q543 -461 546 -457Q544 -451 543 -442Q542 -425 538 -420Q541 -397 540 -395Q548 -397 554 -406Q555 -417 566 -419Q577 -422 581 -430Q584 -431 587 -439Q590 -447 596 -446Q609 -467 622 -473Q623 -487 639 -492Q645 -504 656 -512Q667 -521 677 -530Q681 -531 685 -541Q690 -551 696 -553Q704 -564 711 -576Q723 -590 731 -602Q724 -615 716 -623Q715 -626 715 -627Q716 -628 717 -628Q721 -626 723 -631Q726 -631 732 -630Q738 -629 741 -634Q745 -634 750 -632Q755 -629 762 -633Q773 -622 779 -622Q787 -622 789 -615Q791 -608 795 -603Q796 -598 803 -589Q809 -581 810 -575Q815 -573 815 -567Q815 -562 817 -560Q811 -554 808 -546Q797 -542 790 -534Q783 -526 775 -519Q775 -516 770 -512Q766 -508 765 -504Q753 -497 747 -489Q743 -490 743 -487Q742 -483 739 -484Q737 -489 733 -487Q729 -484 732 -480L720 -467Q720 -461 711 -458Q701 -454 701 -450Q696 -451 693 -444Q691 -438 688 -438Q685 -433 679 -433Q673 -433 670 -429Q671 -417 658 -425Q654 -422 654 -417Q654 -412 652 -410Q651 -406 646 -406Q640 -406 638 -401Q627 -392 617 -387Q617 -382 608 -376Q598 -369 604 -363Q624 -355 644 -347Q659 -340 684 -336Q694 -333 704 -331Q714 -329 721 -322Q724 -324 729 -322Q737 -320 741 -321Q742 -315 754 -315Q765 -315 768 -309Q770 -309 773 -305Q777 -300 780 -304Q790 -301 800 -298Q835 -291 869 -280Q872 -275 884 -274Q897 -273 899 -266Q900 -261 907 -251Q915 -239 913 -232Q910 -229 904 -229Q897 -229 894 -224Q851 -215 834 -219Q826 -215 818 -218Q810 -222 803 -223Q801 -226 793 -227Q785 -229 784 -233Q782 -233 779 -237Q775 -241 772 -242Q769 -239 763 -242Q757 -245 753 -243Q741 -249 733 -250Q717 -255 706 -264Q694 -265 678 -272Q661 -279 655 -280Q624 -291 614 -300Q597 -306 586 -314Q559 -330 544 -337Q539 -342 536 -337Q534 -333 535 -327Q537 -316 529 -291Q533 -279 530 -265Q531 -244 528 -226Q528 -212 528 -198Q528 -188 527 -179Q526 -147 522 -114Q523 -102 523 -90Q514 -79 522 -62Q521 -51 519 -40Q517 -27 514 -15Q512 -6 505 0Q499 7 493 14Q485 18 483 24Q481 26 477 21Q472 13 462 11Q453 7 440 -13Q428 -31 417 -36Q412 -39 405 -41Q402 -43 404 -45Q398 -51 405 -49Q405 -47 406 -47Q408 -47 411 -50Q413 -51 414 -49Q430 -49 445 -50Q449 -52 446 -56Q443 -59 446 -62Q453 -62 452 -66Q451 -72 445 -75Q452 -75 452 -78Q461 -82 460 -93Q459 -104 460 -112Q461 -122 462 -132Q460 -140 463 -154Q465 -165 465 -170Q466 -178 466 -190Q467 -201 468 -213Q468 -242 468 -272Q470 -291 472 -294Q469 -298 471 -308Q473 -318 471 -322Q475 -337 471 -353Q475 -367 476 -384Q477 -396 477 -409Q473 -437 479 -451Q479 -461 479 -471Q480 -484 481 -498Q479 -514 477 -530Q479 -534 478 -543Q477 -551 478 -553Q475 -596 476 -606Q476 -623 472 -641Q473 -646 471 -653Q468 -662 471 -668Q461 -684 452 -688Q458 -696 456 -701Q466 -718 483 -718Q486 -723 490 -720Q493 -717 497 -715Q504 -721 515 -722ZM239 -480Q258 -481 275 -477Q278 -474 284 -474Q291 -474 293 -471Q296 -464 304 -458Q306 -454 314 -447Q323 -439 325 -433Q329 -430 329 -421Q329 -412 333 -409Q334 -401 335 -393Q336 -381 325 -357Q323 -353 322 -343Q321 -333 318 -330Q313 -329 314 -321Q315 -315 312 -314Q305 -291 295 -280Q296 -275 292 -270Q290 -267 290 -264Q286 -250 278 -243Q270 -232 269 -219Q265 -215 263 -210Q260 -205 256 -205Q246 -201 244 -191Q242 -189 240 -181Q238 -172 232 -169Q222 -155 208 -167Q202 -166 201 -170Q199 -174 199 -178Q198 -185 192 -184Q182 -201 179 -219Q176 -224 179 -226Q182 -228 186 -231Q189 -233 188 -240Q187 -248 190 -250Q195 -264 195 -279Q198 -277 200 -280Q202 -283 206 -285Q210 -287 214 -297Q217 -306 224 -304Q226 -306 226 -311Q226 -319 231 -322Q229 -328 233 -330Q236 -333 239 -337Q237 -347 248 -366Q253 -369 255 -380Q256 -387 258 -390Q269 -420 269 -426Q256 -426 244 -424Q231 -414 217 -413Q201 -406 186 -403Q182 -406 178 -402Q174 -399 172 -399Q152 -400 132 -401Q116 -403 105 -406Q87 -410 88 -427Q94 -428 100 -431Q102 -431 102 -428Q111 -426 128 -434Q140 -439 149 -440Q168 -454 188 -460Q205 -472 239 -480Z"/>
</svg>