<svg xmlns="http://www.w3.org/2000/svg" viewBox="0 -800 1024 1024">
	<path fill="#000000" d="M258 -702Q266 -700 276 -696Q289 -696 302 -696Q303 -693 303 -689Q303 -685 308 -683Q316 -676 318 -663Q319 -650 319 -638Q319 -622 319 -607Q314 -594 316 -583Q315 -572 316 -559Q312 -542 312 -522Q310 -519 313 -514Q315 -510 315 -507Q310 -489 315 -482Q315 -476 322 -476Q326 -476 332 -480Q346 -487 355 -471Q358 -465 367 -466Q375 -467 378 -464Q383 -460 383 -455Q382 -450 382 -444Q383 -435 376 -431Q369 -428 362 -426Q348 -425 335 -422Q326 -420 318 -418Q309 -417 303 -409Q303 -392 299 -380Q307 -357 293 -343L297 -328Q299 -324 297 -317Q295 -309 297 -305Q299 -302 307 -306Q321 -324 340 -338Q370 -367 397 -397Q401 -401 404 -406Q406 -411 412 -412Q411 -403 403 -395Q391 -375 379 -355Q366 -340 358 -326Q330 -293 308 -258Q296 -249 305 -237Q308 -230 305 -223Q303 -216 302 -208Q299 -191 301 -175Q300 -174 300 -162Q305 -157 304 -143Q303 -132 304 -129Q300 -103 296 -77Q293 -61 295 -57Q297 -51 292 -46Q287 -42 284 -36Q272 -18 265 -20Q256 -21 252 -28Q248 -35 243 -40Q235 -48 233 -58Q231 -67 227 -76Q227 -101 230 -108Q232 -129 234 -151Q235 -165 238 -177Q239 -182 240 -188Q240 -194 235 -195Q220 -184 205 -174Q195 -163 184 -159Q180 -160 174 -154Q170 -149 166 -151Q151 -175 150 -180Q145 -186 140 -191Q134 -196 137 -203Q137 -213 144 -220Q150 -228 157 -235Q162 -245 202 -306Q204 -311 211 -321Q218 -331 220 -338Q236 -356 239 -363Q245 -370 247 -387Q252 -401 244 -403Q228 -401 216 -393Q205 -391 196 -396Q186 -392 178 -395Q166 -397 153 -399Q133 -403 123 -406Q120 -408 111 -408Q99 -408 96 -413Q98 -416 109 -416Q125 -422 136 -423Q156 -431 163 -428Q180 -435 188 -433Q201 -442 219 -445Q232 -451 247 -453Q254 -461 254 -471Q254 -481 256 -490Q257 -496 257 -507L260 -542Q261 -550 261 -559Q255 -567 258 -575Q260 -584 262 -594Q261 -603 263 -633Q261 -638 262 -642Q262 -651 261 -661Q261 -672 250 -671Q243 -671 239 -679Q235 -687 241 -691Q250 -696 258 -702ZM721 -609Q726 -611 728 -607Q730 -603 727 -599Q724 -595 728 -592Q733 -589 737 -591Q740 -592 741 -590Q741 -587 741 -582Q737 -575 735 -566Q728 -562 698 -555Q695 -553 686 -553Q677 -553 673 -549Q651 -547 631 -540Q618 -538 604 -536Q603 -535 590 -532Q572 -531 556 -527Q552 -526 547 -518Q543 -511 539 -513Q531 -513 521 -517Q513 -523 503 -527Q484 -535 478 -542Q478 -547 483 -546Q487 -545 491 -545Q508 -552 528 -556Q560 -567 591 -578Q611 -584 630 -590Q633 -592 640 -593Q649 -594 652 -597Q655 -605 670 -603Q684 -603 699 -606Q702 -608 709 -607Q717 -606 721 -609ZM528 -503Q532 -504 537 -501Q550 -503 556 -491Q563 -481 575 -473Q576 -472 581 -469Q588 -466 588 -461Q584 -457 584 -438Q574 -428 582 -411Q583 -408 582 -402Q581 -394 584 -391Q580 -377 581 -360Q575 -350 582 -343Q582 -338 574 -310Q574 -290 573 -271Q565 -264 576 -249Q574 -244 572 -232Q567 -224 576 -215Q568 -194 574 -187Q570 -170 566 -153Q567 -144 567 -135Q565 -126 562 -117Q567 -111 576 -111Q585 -112 594 -111Q607 -112 619 -114Q626 -123 640 -148Q642 -159 647 -168Q644 -179 646 -208Q648 -220 649 -233Q650 -260 652 -285Q652 -293 652 -302L654 -370Q654 -393 654 -417Q653 -441 651 -462Q650 -470 634 -478Q622 -476 616 -492Q613 -498 622 -496Q634 -493 646 -490Q651 -493 672 -488Q685 -483 695 -480Q704 -480 710 -470Q717 -464 717 -454Q716 -445 717 -435Q720 -424 720 -410Q717 -403 722 -392Q726 -381 726 -375Q723 -367 720 -360Q722 -336 721 -328Q713 -310 718 -303Q718 -292 717 -281Q715 -277 718 -254Q719 -243 717 -230Q717 -227 719 -227Q722 -226 724 -228L748 -253Q755 -258 763 -269Q771 -281 774 -283Q784 -296 793 -309Q802 -325 816 -342Q821 -349 827 -357Q832 -365 825 -373Q817 -374 809 -375Q793 -373 776 -374Q757 -372 754 -369Q740 -358 731 -375Q733 -389 741 -392Q743 -396 751 -395Q756 -395 758 -396Q767 -396 779 -401Q795 -407 803 -407Q812 -412 852 -414Q874 -404 881 -400Q895 -394 911 -370Q916 -363 911 -354Q915 -346 904 -340Q901 -332 897 -324Q885 -319 877 -308Q869 -298 860 -290Q850 -280 838 -271Q826 -262 819 -250Q798 -237 787 -217Q778 -212 753 -187Q742 -181 735 -170Q728 -160 721 -150Q703 -135 693 -114Q693 -109 699 -109Q704 -110 708 -109Q723 -111 740 -109Q755 -109 769 -109Q776 -109 782 -109Q792 -110 807 -107Q835 -102 843 -98Q853 -91 861 -81Q861 -64 851 -63Q841 -56 829 -56Q818 -57 807 -56Q783 -57 761 -59Q729 -63 696 -62Q673 -59 652 -63Q642 -60 631 -61Q611 -61 590 -61Q579 -61 570 -63Q554 -62 528 -70Q515 -76 503 -78Q496 -79 482 -88Q472 -94 464 -96Q462 -99 463 -100Q466 -102 470 -102Q491 -104 511 -106Q519 -108 528 -107Q537 -107 543 -112Q543 -117 538 -121Q537 -122 530 -126Q517 -138 513 -153Q509 -168 504 -183Q497 -191 499 -201Q501 -211 503 -220Q505 -240 506 -261Q503 -273 508 -280Q508 -282 509 -283Q501 -284 492 -272Q483 -261 477 -260Q477 -249 476 -238Q474 -235 474 -228Q474 -220 470 -218Q459 -225 451 -207Q442 -213 431 -216Q429 -220 426 -224L415 -239Q414 -243 410 -247Q409 -251 405 -254Q401 -257 401 -258Q395 -272 416 -293Q424 -294 429 -307Q434 -315 448 -349Q452 -346 454 -349Q455 -351 457 -354Q459 -351 465 -345Q473 -338 475 -332Q482 -330 482 -318Q482 -306 486 -303L507 -312Q512 -313 513 -318Q514 -320 514 -323Q516 -345 521 -364Q523 -386 529 -420Q531 -433 532 -447Q535 -465 532 -481Q530 -486 526 -492Q522 -498 528 -503ZM242 -265Q237 -265 237 -260Q234 -255 233 -250Q232 -244 239 -243Q246 -241 246 -256Q247 -261 245 -265Q244 -266 242 -265Z"/>
</svg>