<svg xmlns="http://www.w3.org/2000/svg" viewBox="0 -800 1024 1024">
	<path fill="#000000" d="M286 -695H296Q306 -692 319 -692Q326 -693 330 -689Q335 -685 341 -681Q340 -676 346 -673Q351 -671 351 -668Q352 -667 360 -645Q359 -640 361 -632Q363 -621 360 -616Q367 -607 364 -593Q360 -587 362 -575Q364 -561 360 -555Q357 -539 355 -505Q351 -499 358 -496Q365 -493 370 -496Q407 -492 416 -487Q422 -486 424 -479Q427 -472 425 -467Q424 -454 419 -443Q410 -443 400 -441L385 -435Q368 -433 353 -428Q346 -429 345 -422Q343 -416 341 -410Q341 -396 341 -383Q341 -374 338 -366Q339 -360 337 -349Q334 -333 337 -326Q338 -320 336 -314Q335 -308 341 -306L369 -331Q373 -331 378 -337Q382 -342 385 -342L374 -325Q352 -301 345 -292Q334 -286 333 -277Q331 -267 330 -257Q332 -249 329 -236Q326 -222 327 -216Q328 -205 331 -193Q328 -165 325 -138Q327 -108 325 -77Q325 -60 321 -44Q324 -37 323 -28Q328 -15 313 -2Q306 15 288 15Q282 15 278 7Q274 -3 270 -5Q269 -10 261 -20Q251 -34 252 -44Q247 -58 260 -67Q266 -104 272 -141Q276 -151 277 -172Q278 -191 280 -199Q281 -204 278 -204Q274 -204 270 -200Q265 -200 264 -196Q263 -192 260 -189Q243 -171 225 -166Q213 -158 205 -145Q202 -133 189 -136Q185 -140 177 -152Q170 -163 164 -168Q158 -167 154 -172Q150 -177 155 -181Q153 -190 159 -195Q166 -200 170 -206Q191 -232 195 -240Q231 -291 269 -342Q280 -352 283 -366Q286 -380 291 -393Q290 -399 291 -407Q292 -416 285 -416Q265 -409 257 -414Q247 -408 232 -406Q229 -406 223 -403Q213 -398 209 -400Q206 -401 201 -401Q197 -401 193 -406Q184 -405 171 -411Q159 -416 154 -417Q148 -423 140 -422Q132 -421 125 -423Q122 -429 125 -432Q128 -436 130 -439Q136 -441 144 -440Q152 -440 158 -447Q177 -448 195 -453Q211 -456 226 -459Q242 -464 247 -465Q267 -469 286 -473Q294 -474 293 -483Q291 -491 293 -497Q288 -513 290 -537Q291 -572 291 -607Q288 -622 285 -637Q281 -653 270 -665Q260 -666 255 -669Q247 -673 249 -681Q248 -685 253 -687Q257 -688 257 -690Q279 -690 286 -695ZM658 -674Q665 -674 671 -674Q676 -672 680 -673Q686 -672 694 -672Q701 -672 705 -666Q716 -663 721 -651Q725 -647 722 -644Q719 -640 715 -644Q708 -642 710 -637Q713 -632 721 -634Q727 -630 734 -624Q742 -619 737 -612Q723 -610 724 -601Q727 -596 723 -594Q716 -593 709 -591Q695 -593 681 -597Q667 -600 652 -597Q611 -605 595 -616Q589 -617 579 -627Q567 -639 557 -639Q551 -639 551 -643Q551 -648 551 -653Q560 -648 568 -652Q577 -657 585 -659Q587 -655 595 -658Q602 -661 604 -657Q608 -658 612 -662Q620 -669 623 -669Q641 -671 658 -674ZM792 -537Q802 -537 814 -534Q817 -530 821 -526Q825 -522 825 -515Q837 -509 836 -495Q835 -481 823 -477Q818 -478 810 -473Q805 -470 801 -470Q789 -462 780 -467Q777 -465 768 -464Q759 -463 755 -459Q746 -461 730 -456Q717 -452 711 -452Q708 -450 701 -449Q693 -448 691 -445Q697 -438 703 -431Q708 -420 716 -411Q723 -401 723 -389Q724 -379 724 -370Q724 -356 724 -343Q720 -323 730 -323Q741 -322 751 -321Q759 -319 766 -320Q784 -320 795 -307Q799 -310 802 -306Q805 -303 808 -299Q819 -296 817 -279Q819 -273 823 -266Q826 -259 823 -251Q832 -245 830 -233Q828 -220 818 -221Q811 -210 804 -200Q803 -194 797 -189Q790 -183 790 -179Q782 -169 773 -160Q767 -163 764 -156Q761 -150 758 -149Q749 -138 735 -128Q727 -115 715 -121Q712 -116 712 -112Q711 -111 708 -115Q702 -109 702 -100Q703 -92 702 -84Q698 -82 699 -80Q704 -73 713 -74Q730 -78 749 -77Q768 -81 782 -78Q789 -81 796 -78Q814 -79 834 -72Q836 -69 843 -66Q848 -64 849 -61Q854 -56 854 -49Q854 -40 847 -39Q845 -34 846 -29Q846 -25 840 -23Q827 -21 815 -24Q809 -23 802 -22Q772 -25 769 -25Q759 -25 748 -22Q736 -22 723 -22Q703 -20 685 -20Q666 -20 649 -14Q628 -10 606 -12Q596 -12 587 -21Q583 -26 573 -40Q569 -45 575 -52Q580 -59 580 -62Q582 -75 583 -88Q587 -94 594 -95Q601 -96 606 -97Q610 -100 608 -102Q603 -104 598 -109Q610 -111 621 -113Q632 -111 638 -119Q644 -127 642 -136Q647 -168 651 -201Q653 -224 657 -245Q658 -253 653 -253Q647 -253 642 -249Q622 -244 604 -235Q595 -230 585 -226Q567 -216 544 -210Q540 -209 538 -203Q537 -199 535 -198Q532 -193 532 -203Q532 -210 536 -214Q541 -219 544 -223Q564 -250 587 -260Q620 -282 654 -298Q663 -299 663 -309Q663 -317 663 -326Q666 -332 666 -341Q666 -353 669 -358Q668 -368 667 -379Q667 -395 661 -411Q659 -420 646 -424Q632 -428 629 -433Q617 -436 595 -426Q588 -426 577 -423Q559 -418 551 -421Q548 -422 543 -422L527 -425Q505 -428 488 -435Q484 -434 484 -438Q483 -443 484 -445Q490 -443 494 -447Q497 -448 519 -459Q538 -462 553 -472Q593 -481 632 -496Q658 -504 683 -512Q692 -516 701 -518Q711 -520 717 -528Q731 -532 746 -531Q750 -532 758 -532Q769 -532 773 -536Q777 -534 792 -537ZM733 -275Q728 -272 723 -270Q723 -250 715 -234Q716 -220 716 -206Q720 -205 725 -213Q728 -218 730 -219Q748 -243 761 -269Q758 -278 733 -275Z"/>
</svg>