<svg xmlns="http://www.w3.org/2000/svg" viewBox="0 -800 1024 1024">
	<path fill="#000000" d="M487 -722H489Q496 -716 512 -715Q526 -714 530 -712Q540 -711 551 -709Q562 -707 566 -695Q564 -680 565 -666Q558 -661 549 -658Q541 -655 539 -644L521 -627Q510 -616 500 -603Q494 -605 492 -601Q490 -596 488 -591Q479 -584 470 -578Q456 -564 442 -550Q436 -537 421 -531Q418 -523 408 -514Q397 -504 395 -499Q388 -495 377 -478Q370 -467 363 -461L346 -443Q348 -438 353 -441Q359 -445 365 -443Q378 -451 391 -455Q431 -469 452 -475Q466 -478 480 -483Q495 -488 510 -486Q521 -489 531 -486Q556 -484 560 -475Q564 -479 567 -477Q571 -476 575 -475Q593 -466 605 -431Q602 -419 595 -411Q595 -396 580 -385Q576 -381 573 -374Q569 -367 562 -364Q553 -362 548 -354Q544 -347 539 -340Q535 -339 530 -330Q526 -322 521 -321Q514 -322 514 -316Q513 -309 510 -304Q495 -293 501 -282Q499 -270 501 -262Q499 -261 491 -254Q484 -248 478 -246Q446 -237 413 -233Q405 -236 395 -230Q390 -227 380 -218Q372 -213 363 -209Q341 -202 350 -193Q355 -194 355 -192Q354 -189 349 -187Q343 -183 348 -178Q353 -173 358 -173L371 -152Q370 -143 372 -121Q375 -109 381 -102Q407 -79 426 -75Q442 -63 485 -51Q493 -46 513 -44Q528 -43 536 -39Q545 -36 555 -38Q572 -37 587 -34Q591 -36 601 -34Q610 -32 615 -34Q628 -32 644 -35Q657 -35 669 -31Q686 -40 709 -34Q714 -36 721 -35Q733 -34 737 -38Q739 -46 735 -63Q732 -77 732 -84Q716 -116 706 -150Q703 -161 706 -152Q706 -148 711 -144Q715 -140 715 -137Q731 -116 743 -95Q750 -96 756 -86Q762 -76 769 -75Q770 -70 778 -60Q784 -52 786 -46Q789 -42 794 -38Q800 -33 805 -36Q808 -33 819 -32Q827 -32 831 -29Q848 -24 865 -20Q861 -10 869 -5Q869 -3 868 -2Q863 -1 858 -1Q857 0 858 2Q863 2 862 7Q861 12 861 15Q856 14 851 20Q846 27 841 24Q838 27 836 32Q833 36 827 37Q818 35 808 33Q774 30 738 30H719Q714 30 709 30Q699 30 688 29Q679 29 669 29Q665 25 662 27Q660 30 656 30Q637 27 623 28Q619 29 609 26Q598 23 593 26Q582 26 547 19Q531 20 516 12Q512 16 510 13Q508 10 505 9Q487 16 474 0Q467 5 461 -6Q455 -5 451 -8Q446 -12 442 -13Q425 -23 421 -27Q417 -34 403 -39Q391 -43 388 -48Q382 -51 373 -60Q365 -69 360 -71Q343 -89 324 -117Q321 -125 318 -134Q316 -137 317 -143Q318 -150 314 -151L263 -102Q259 -96 254 -91Q248 -85 249 -80L212 -39Q212 -37 211 -36Q209 -36 204 -42Q198 -32 194 -38Q197 -48 192 -55Q187 -63 183 -71Q159 -89 173 -97Q176 -93 178 -93Q180 -93 183 -99Q187 -106 190 -106Q228 -150 255 -172Q262 -177 271 -182Q279 -186 281 -197Q293 -215 311 -230Q314 -234 312 -236Q310 -237 307 -238Q300 -240 299 -246Q291 -249 286 -256Q281 -263 276 -269Q272 -264 265 -271Q256 -273 237 -287Q238 -301 235 -313Q233 -316 236 -325Q238 -333 235 -336Q237 -351 239 -367Q238 -376 246 -392Q251 -404 276 -436Q290 -466 321 -476Q330 -475 336 -482Q341 -490 347 -495Q353 -497 361 -514Q371 -526 380 -539Q388 -547 392 -556Q393 -562 398 -565Q403 -567 406 -571Q406 -576 416 -597Q420 -600 421 -606Q422 -614 424 -616Q423 -623 427 -628Q431 -633 434 -639Q437 -646 431 -647Q421 -647 416 -642Q405 -640 380 -630Q376 -625 367 -620Q357 -615 353 -610Q348 -609 341 -604Q334 -599 331 -599Q323 -599 318 -592Q317 -591 310 -578Q305 -574 304 -563Q303 -555 302 -553Q298 -546 290 -549Q288 -543 281 -546Q275 -548 275 -553L249 -578Q238 -587 231 -597Q230 -602 237 -604Q242 -605 242 -607Q248 -613 250 -635Q246 -641 250 -648Q256 -656 255 -662Q272 -658 287 -651Q293 -650 294 -644Q296 -638 298 -634Q315 -640 332 -651Q354 -668 379 -678Q403 -688 428 -699Q438 -704 454 -708Q478 -713 487 -722ZM492 -425Q453 -418 417 -403Q411 -403 398 -397Q387 -391 378 -392Q376 -394 369 -394Q364 -394 361 -396Q351 -397 340 -397Q332 -396 333 -386Q324 -376 316 -347Q309 -339 308 -327Q304 -315 311 -306Q312 -295 315 -284Q318 -279 316 -280Q314 -281 313 -282Q306 -279 311 -272Q316 -265 321 -264Q333 -263 340 -266Q369 -270 376 -273Q408 -280 436 -294Q443 -291 448 -297Q452 -302 452 -309Q454 -313 455 -317Q467 -326 480 -349Q484 -360 499 -379Q499 -391 505 -401Q512 -411 516 -422Q509 -432 492 -425ZM801 -318Q820 -318 837 -318Q853 -319 867 -309Q869 -304 872 -302Q876 -300 879 -297Q877 -292 879 -280Q881 -268 878 -262Q875 -238 865 -243L843 -223Q836 -213 817 -211Q809 -204 794 -206Q791 -203 783 -204Q776 -205 772 -203Q754 -188 745 -187Q762 -205 776 -226Q787 -245 797 -264Q784 -266 770 -262Q747 -255 726 -244Q701 -242 678 -233Q661 -228 633 -209Q624 -200 614 -193Q603 -186 597 -175Q597 -161 594 -156Q590 -155 585 -147Q580 -140 576 -139Q575 -144 570 -144Q565 -145 562 -147Q558 -144 556 -146Q555 -150 552 -154Q548 -166 525 -191Q508 -201 520 -218Q537 -226 534 -243Q538 -261 541 -280Q542 -286 545 -286Q549 -285 556 -283Q577 -272 598 -262Q602 -257 604 -249Q607 -242 615 -247Q617 -250 624 -253Q632 -256 634 -261Q673 -277 711 -293Q721 -297 731 -302Q741 -307 752 -305Q753 -306 772 -311Q787 -315 801 -318Z"/>
</svg>