<svg xmlns="http://www.w3.org/2000/svg" viewBox="0 -800 1024 1024">
	<path fill="#000000" d="M556 -681Q564 -681 569 -676Q580 -676 590 -676Q597 -674 603 -671Q609 -668 607 -659Q611 -646 614 -634Q610 -618 612 -601Q609 -592 617 -586Q620 -584 630 -580Q640 -576 649 -571Q659 -566 669 -568Q691 -560 702 -561Q711 -556 719 -552Q732 -559 750 -549Q754 -549 758 -545Q762 -540 766 -542Q769 -540 767 -538Q763 -537 760 -536Q760 -530 754 -528Q749 -526 745 -522Q731 -516 716 -510Q709 -505 690 -498Q671 -491 661 -484Q634 -472 607 -461Q605 -460 605 -446Q605 -442 606 -440Q605 -431 604 -422Q607 -416 608 -416Q612 -416 615 -417Q731 -452 787 -452Q799 -452 811 -449Q832 -454 855 -441Q874 -430 889 -410Q888 -405 893 -396Q897 -388 897 -384Q900 -381 899 -373Q898 -364 903 -361Q906 -337 901 -331Q902 -328 899 -305Q896 -301 891 -279Q888 -278 887 -272Q887 -268 884 -267Q881 -256 878 -246Q872 -232 865 -218Q850 -195 834 -172Q834 -165 824 -158Q815 -152 813 -147Q816 -135 804 -132Q803 -129 790 -114Q779 -103 773 -89Q765 -83 757 -78Q754 -73 754 -68Q748 -65 744 -56Q741 -50 738 -47Q733 -44 730 -38Q726 -32 719 -34Q705 -16 701 -11Q694 -6 686 -2Q680 5 675 12Q669 19 660 22Q655 21 650 27Q646 32 645 32Q641 38 631 44Q624 48 621 51Q616 52 608 59Q601 65 597 67Q593 72 587 70Q576 79 562 72Q556 68 545 73Q536 77 530 75Q536 69 547 63Q606 26 633 -4Q646 -15 646 -16Q647 -17 646 -18Q645 -19 658 -31Q669 -38 676 -50Q678 -54 683 -54Q687 -54 689 -56Q696 -71 703 -75Q707 -85 720 -101Q728 -110 733 -119Q738 -128 761 -160Q772 -174 791 -208Q801 -226 811 -241Q815 -251 819 -261Q833 -286 839 -314Q842 -329 846 -359Q848 -372 846 -386Q844 -406 823 -410Q816 -415 803 -415Q768 -411 739 -404Q727 -402 707 -396Q675 -389 645 -377Q618 -366 617 -366Q611 -363 603 -350Q606 -312 603 -304Q603 -286 601 -269Q600 -252 603 -234Q600 -231 600 -224Q599 -216 597 -213L592 -189Q580 -188 573 -197Q567 -196 561 -205Q557 -212 553 -213Q547 -219 540 -224Q533 -230 534 -239Q530 -245 533 -247Q539 -250 545 -250Q549 -261 550 -280Q552 -305 556 -314Q554 -317 555 -324Q556 -331 552 -333Q536 -327 519 -321Q514 -314 501 -305Q490 -297 486 -293Q485 -289 476 -285Q469 -282 465 -277Q444 -277 438 -259Q430 -257 422 -262Q413 -267 418 -275Q421 -288 434 -303Q438 -308 457 -328Q461 -333 473 -340Q485 -346 489 -353Q493 -352 501 -359Q507 -364 512 -365Q523 -371 537 -375Q539 -377 549 -380Q550 -381 552 -394Q552 -401 552 -409V-431Q532 -425 520 -419Q507 -413 493 -407Q488 -408 482 -404Q476 -400 473 -400Q468 -393 456 -395Q451 -399 444 -401Q433 -405 429 -410Q417 -411 410 -422Q399 -427 398 -441Q397 -452 403 -464Q404 -474 416 -487Q425 -497 427 -504Q436 -515 444 -526Q446 -532 458 -530Q472 -516 475 -501Q480 -493 477 -483Q474 -474 471 -465Q469 -459 473 -455Q476 -452 480 -457Q486 -456 492 -460Q498 -464 500 -464Q508 -472 529 -480Q547 -486 555 -494Q556 -531 551 -566Q550 -594 552 -620Q552 -625 551 -631Q550 -638 544 -640Q539 -644 533 -649Q527 -654 532 -661Q541 -675 556 -681ZM217 -562H234Q248 -563 258 -558Q274 -562 289 -558Q296 -553 310 -549Q323 -526 328 -514Q322 -497 307 -497Q305 -496 301 -492Q296 -487 292 -488L257 -497Q237 -505 217 -517Q194 -524 182 -530Q174 -529 171 -533Q167 -538 163 -543Q158 -546 159 -547Q162 -549 167 -552Q185 -554 217 -562ZM613 -558Q606 -551 605 -542Q606 -534 603 -528Q601 -522 607 -518L625 -526Q631 -526 632 -533Q633 -540 629 -544Q625 -548 622 -553Q619 -559 613 -558ZM218 -426Q222 -426 227 -421L234 -413Q252 -412 260 -389Q259 -386 262 -358Q268 -352 260 -339Q253 -335 252 -328Q250 -321 247 -316Q244 -292 240 -268Q234 -248 233 -224Q230 -222 231 -216Q232 -211 228 -209Q233 -184 225 -167Q228 -162 227 -149Q226 -137 231 -131Q234 -112 244 -99Q252 -96 259 -100Q266 -105 273 -109Q338 -169 359 -209Q360 -210 361 -211Q365 -220 370 -217Q363 -199 365 -192Q364 -182 351 -160Q345 -145 331 -126Q320 -109 309 -93Q306 -90 308 -84Q309 -80 307 -78Q304 -67 290 -62Q280 -58 276 -51Q262 -45 242 -54Q219 -53 197 -88Q183 -101 180 -115Q180 -121 175 -131Q169 -145 170 -153Q169 -164 167 -175Q163 -203 167 -229Q169 -247 171 -266Q172 -279 181 -304Q181 -324 185 -339Q193 -362 200 -385Q204 -408 218 -426Z"/>
</svg>