<svg xmlns="http://www.w3.org/2000/svg" viewBox="0 -800 1024 1024">
	<path fill="#000000" d="M611 -739Q619 -736 627 -734Q636 -732 646 -732Q656 -731 664 -725Q672 -722 674 -715Q676 -707 679 -700Q678 -679 676 -659Q674 -648 672 -638Q666 -633 673 -628Q693 -633 713 -638Q728 -643 739 -646Q745 -647 750 -650Q755 -654 762 -651Q778 -653 793 -655Q795 -657 798 -657Q803 -657 805 -650Q802 -647 804 -642Q806 -637 811 -639Q815 -643 820 -639Q825 -635 824 -629Q820 -618 812 -610Q807 -610 797 -604Q788 -599 781 -599Q776 -602 764 -597Q748 -588 728 -588Q720 -585 712 -582Q703 -581 696 -578Q689 -574 681 -573Q663 -573 651 -559Q649 -546 638 -526Q637 -519 631 -509Q625 -499 624 -494Q624 -491 620 -486Q615 -480 619 -476Q629 -482 649 -488Q666 -493 678 -496Q732 -512 751 -514Q761 -515 770 -517Q797 -517 806 -513Q824 -506 831 -501Q842 -487 853 -474Q858 -472 858 -463Q858 -456 860 -453Q869 -449 865 -436Q867 -425 861 -415Q862 -401 863 -387Q854 -376 858 -368Q858 -363 854 -353Q849 -343 851 -336Q856 -327 848 -313Q841 -292 840 -268Q843 -262 837 -254Q831 -246 832 -241Q833 -235 829 -219Q823 -211 823 -199Q819 -190 815 -172Q815 -168 811 -161Q806 -154 807 -148Q793 -132 782 -115Q779 -112 775 -108Q771 -104 775 -100Q786 -97 791 -99Q807 -99 823 -99Q842 -98 860 -98Q872 -95 886 -94Q890 -89 905 -89Q910 -88 910 -82Q910 -77 910 -71Q911 -64 906 -61Q901 -59 895 -58Q882 -52 868 -46Q862 -46 856 -46H793Q779 -46 764 -47Q760 -47 760 -48Q760 -49 765 -49Q766 -51 770 -50Q774 -49 774 -52L741 -53Q733 -48 725 -51Q714 -47 703 -48Q695 -55 683 -49Q679 -50 674 -48Q668 -46 666 -47Q614 -46 561 -46Q545 -41 540 -42Q528 -42 518 -40Q512 -42 500 -42Q486 -41 481 -45Q473 -45 459 -52Q447 -57 439 -58Q435 -63 437 -64Q442 -65 448 -65Q470 -67 491 -73Q496 -75 506 -76Q521 -77 526 -81Q529 -87 520 -93Q514 -97 513 -99Q501 -111 498 -129Q494 -136 500 -147Q506 -159 501 -164Q501 -173 507 -179Q507 -181 513 -219Q514 -224 517 -256Q519 -274 523 -290Q527 -311 530 -332Q535 -344 537 -357Q540 -370 540 -382Q538 -389 542 -394Q546 -399 550 -404Q554 -413 549 -422Q560 -436 567 -432Q583 -437 596 -426Q605 -421 609 -401Q609 -392 608 -383Q610 -378 629 -376Q641 -377 657 -374Q669 -372 681 -370Q687 -366 693 -360Q699 -354 699 -345Q697 -343 695 -341L685 -334Q683 -332 681 -330Q677 -327 668 -331Q662 -334 658 -333Q646 -336 633 -340Q620 -352 608 -353Q603 -356 598 -354Q593 -352 594 -346Q594 -330 591 -312Q590 -304 589 -296Q590 -292 595 -292Q599 -292 604 -294Q611 -305 621 -295Q626 -289 644 -283Q655 -287 665 -283Q678 -286 685 -275Q685 -262 678 -252Q672 -253 643 -253Q628 -255 613 -257Q610 -259 580 -271Q573 -270 575 -264Q576 -259 576 -254Q572 -226 573 -210Q569 -200 574 -195Q580 -193 597 -198Q623 -201 647 -196Q654 -198 659 -193Q664 -188 661 -182Q660 -176 655 -173Q650 -170 646 -167Q633 -168 620 -167Q607 -167 597 -172Q590 -175 583 -178Q575 -181 568 -177Q567 -161 566 -145Q556 -135 567 -127Q569 -124 567 -118Q565 -111 567 -107Q569 -104 567 -97Q564 -89 567 -85Q576 -85 584 -85Q586 -85 603 -88Q632 -90 660 -95Q671 -100 685 -98Q694 -100 705 -100Q716 -101 722 -109Q723 -114 732 -124Q739 -132 741 -137Q743 -140 744 -146Q745 -153 748 -156Q761 -164 755 -173Q755 -185 768 -209Q769 -218 775 -234Q781 -255 786 -277Q792 -301 797 -325Q803 -352 806 -381Q807 -391 808 -402Q805 -406 808 -417Q809 -431 806 -442Q803 -466 781 -474Q760 -474 741 -467Q733 -463 725 -463Q715 -459 704 -456Q689 -453 677 -447Q666 -452 657 -451Q634 -456 611 -461Q601 -469 593 -469Q587 -471 588 -481Q588 -488 585 -491Q582 -497 585 -501Q589 -506 590 -510Q591 -525 597 -537Q597 -545 588 -547Q570 -541 550 -539Q540 -544 530 -534Q521 -527 511 -534Q502 -533 480 -538Q463 -541 445 -544Q432 -546 436 -554Q440 -552 457 -557Q467 -562 479 -561Q500 -570 563 -587Q582 -593 600 -599Q605 -611 607 -638Q611 -652 611 -658Q615 -675 618 -693Q618 -719 604 -726Q605 -733 611 -739ZM361 -608Q361 -599 363 -595Q371 -593 371 -585Q371 -577 372 -571Q359 -561 346 -551Q332 -542 316 -541Q312 -537 303 -535Q291 -533 291 -526Q298 -512 289 -500Q280 -488 277 -474Q273 -467 275 -466Q279 -464 292 -470Q302 -475 311 -475Q332 -475 355 -456Q362 -422 361 -412Q360 -408 359 -405L355 -391Q349 -370 339 -360Q322 -331 294 -290Q303 -276 283 -269Q274 -261 258 -240Q242 -219 232 -210Q224 -196 201 -181Q183 -169 177 -162Q171 -152 161 -149Q151 -147 141 -145Q137 -141 132 -146Q126 -153 121 -148Q116 -146 115 -147Q116 -151 130 -159Q141 -164 151 -175Q160 -186 169 -194Q177 -205 194 -233Q216 -269 231 -287Q219 -299 193 -310Q167 -321 157 -332Q177 -339 200 -339Q210 -338 219 -337Q226 -340 241 -333Q252 -328 256 -329Q288 -378 299 -424Q289 -429 271 -422Q254 -416 247 -419L219 -391Q205 -378 193 -357Q190 -350 186 -350Q179 -352 171 -354Q168 -354 165 -349Q157 -364 162 -402Q185 -438 207 -479Q216 -490 219 -504Q219 -509 211 -508Q190 -499 166 -497Q155 -497 146 -501Q139 -506 121 -506Q103 -506 96 -510Q120 -514 143 -526Q183 -538 256 -568Q327 -597 361 -608Z"/>
</svg>