<svg xmlns="http://www.w3.org/2000/svg" viewBox="0 -800 1024 1024">
	<path fill="#000000" d="M530 -673Q533 -672 539 -666Q560 -660 560 -645Q565 -634 560 -623Q556 -612 551 -602Q552 -595 557 -597Q563 -599 567 -600Q571 -598 578 -602Q583 -605 586 -603Q591 -606 594 -611Q598 -617 605 -614Q626 -613 646 -609Q653 -611 657 -606Q661 -601 667 -597Q669 -591 662 -582Q655 -572 656 -567L637 -546Q634 -548 633 -546Q631 -540 633 -536Q626 -540 623 -533Q620 -526 617 -521L601 -506Q597 -500 593 -495Q587 -496 584 -491Q581 -486 577 -482Q574 -483 572 -479Q570 -475 567 -475Q564 -473 561 -473Q559 -473 557 -469Q556 -462 545 -453Q537 -446 535 -443Q524 -436 515 -427Q512 -424 513 -423Q519 -422 525 -425Q531 -427 536 -429Q538 -430 542 -430Q547 -430 549 -433Q557 -436 586 -446Q590 -445 595 -447Q603 -449 605 -447Q612 -449 618 -452Q672 -471 729 -480Q748 -480 766 -481Q770 -483 778 -480Q786 -477 790 -480Q802 -474 807 -468Q814 -472 826 -462Q832 -461 838 -452Q843 -444 847 -442Q865 -430 865 -414Q868 -409 870 -390Q875 -371 875 -351Q873 -348 870 -330Q867 -322 863 -314Q858 -313 858 -306Q858 -301 856 -300Q854 -296 849 -297Q846 -296 847 -293Q847 -275 839 -278Q834 -277 835 -266Q837 -255 830 -253Q827 -245 820 -237Q820 -230 812 -222Q805 -215 804 -211Q806 -203 799 -199Q799 -196 795 -193Q792 -190 791 -187Q789 -178 775 -164Q766 -155 763 -149Q758 -148 752 -139Q748 -132 744 -131Q742 -128 739 -126L729 -114Q727 -111 724 -109Q707 -108 703 -123Q697 -127 694 -137Q692 -144 690 -147Q683 -142 674 -142Q666 -140 646 -142Q587 -141 536 -136Q523 -140 511 -137Q501 -140 492 -138Q479 -136 464 -137Q443 -150 424 -167Q419 -167 416 -173Q413 -179 410 -180Q403 -195 387 -211Q378 -223 383 -229Q392 -234 390 -243Q387 -251 385 -260Q377 -267 384 -287Q389 -299 391 -313Q393 -326 403 -336Q414 -361 446 -406Q448 -408 450 -415Q452 -422 455 -422Q459 -425 469 -420Q487 -425 501 -437Q502 -442 509 -449Q515 -455 517 -460Q530 -462 536 -486Q542 -493 545 -503Q552 -514 557 -526Q562 -537 571 -547Q572 -554 576 -560Q580 -566 576 -573Q555 -566 537 -551Q537 -547 533 -548Q528 -549 526 -553Q526 -560 521 -559Q517 -559 513 -563Q507 -565 505 -571Q503 -576 501 -582Q496 -583 495 -589Q495 -594 499 -593Q504 -600 504 -618Q511 -653 530 -673ZM216 -526Q232 -524 247 -523Q252 -526 270 -521Q274 -513 283 -518Q292 -513 294 -515Q299 -512 304 -509Q309 -506 307 -500Q305 -498 303 -492Q301 -484 296 -483Q291 -486 285 -481Q280 -477 276 -478Q267 -477 257 -481Q249 -481 240 -482Q233 -484 219 -494Q204 -504 194 -506Q187 -506 184 -512Q182 -515 186 -517Q190 -518 194 -519L208 -524Q214 -526 216 -526ZM735 -440Q717 -437 683 -427Q668 -424 656 -424Q634 -414 612 -411Q595 -407 580 -401Q570 -398 561 -393Q547 -387 536 -394Q533 -393 529 -396Q524 -399 522 -398Q518 -400 504 -402Q502 -408 496 -406Q491 -404 492 -398Q496 -391 492 -386Q488 -381 486 -375Q481 -371 477 -361Q474 -353 471 -350Q469 -337 460 -316Q450 -294 449 -283Q446 -277 445 -262Q443 -245 439 -238Q435 -220 443 -206Q447 -201 451 -202Q455 -203 456 -208Q458 -211 459 -210Q459 -207 461 -203Q467 -204 467 -200Q468 -196 470 -193Q475 -194 476 -192Q478 -189 479 -186Q497 -175 501 -168Q500 -163 503 -163Q506 -162 509 -161Q543 -168 580 -172Q587 -173 590 -176Q581 -176 575 -180Q576 -190 576 -201Q574 -222 577 -239Q579 -245 576 -252Q573 -259 566 -254Q558 -253 543 -260Q533 -264 525 -265Q514 -269 519 -280Q531 -281 542 -282Q555 -284 567 -287Q580 -286 582 -303Q582 -322 581 -341Q582 -353 581 -359Q579 -369 571 -373Q560 -376 573 -380Q576 -385 580 -385Q584 -385 587 -379Q601 -383 608 -383Q616 -383 620 -380Q627 -377 629 -368Q630 -365 631 -353Q627 -331 629 -310Q628 -304 632 -302Q635 -301 640 -301Q649 -302 649 -295Q660 -284 648 -269Q626 -268 622 -247Q622 -238 622 -230Q620 -214 618 -206Q620 -198 616 -193Q612 -189 608 -183Q608 -180 607 -179Q602 -182 598 -187Q594 -183 593 -177Q593 -173 598 -174Q607 -174 616 -175Q637 -176 657 -175Q682 -178 703 -172Q706 -166 710 -166Q718 -166 725 -178Q726 -187 732 -194Q738 -200 743 -207Q744 -210 745 -210Q748 -210 750 -212Q752 -217 771 -253Q771 -257 778 -263Q786 -269 783 -275Q788 -291 797 -306Q810 -349 813 -378Q807 -398 802 -408Q794 -425 781 -433Q752 -443 735 -440ZM197 -389Q201 -389 205 -385Q208 -377 214 -370Q220 -363 217 -354Q215 -352 215 -334Q218 -322 210 -313Q210 -306 205 -296Q200 -285 200 -279Q196 -248 191 -218Q189 -201 187 -184Q192 -119 194 -111Q197 -104 202 -104Q207 -105 213 -111Q218 -117 222 -121Q228 -125 239 -137Q252 -151 260 -155Q263 -163 273 -174Q281 -183 284 -188Q306 -216 318 -248Q319 -250 320 -250Q318 -246 317 -242Q316 -225 314 -209Q311 -205 311 -196Q311 -185 308 -181Q307 -178 303 -174Q298 -170 298 -167Q294 -165 293 -155Q293 -146 288 -144Q283 -145 282 -139Q281 -131 280 -130Q274 -124 272 -112Q266 -105 267 -96Q262 -89 252 -79Q245 -70 236 -65Q230 -67 226 -64Q221 -61 224 -54Q228 -52 226 -49Q225 -46 221 -46Q203 -51 199 -50Q176 -66 168 -77Q150 -88 149 -106Q146 -110 146 -130Q146 -133 145 -136L144 -151Q144 -155 143 -157Q143 -173 140 -187Q142 -195 140 -205Q140 -212 139 -219Q138 -227 145 -232Q145 -239 145 -247Q145 -254 156 -307Q158 -323 168 -336Q175 -345 172 -356Q182 -375 197 -389ZM736 -92Q740 -88 744 -92Q746 -90 751 -90Q758 -90 760 -86Q764 -90 770 -88Q776 -87 781 -88Q796 -84 801 -79Q805 -79 804 -73Q804 -69 805 -68Q805 -63 803 -59Q800 -53 796 -54Q794 -49 789 -47Q784 -45 779 -42Q749 -42 743 -43Q732 -43 720 -44L678 -45Q671 -46 663 -43Q654 -42 644 -42Q610 -42 581 -39Q575 -38 567 -40Q558 -36 546 -39Q541 -35 529 -36Q522 -36 517 -35Q512 -38 505 -39Q493 -43 480 -48Q475 -50 469 -52Q463 -54 466 -60Q483 -63 500 -67Q515 -69 530 -72Q552 -76 580 -79Q595 -79 611 -84Q634 -83 658 -86Q679 -89 699 -89Q718 -88 736 -92Z"/>
</svg>