<svg xmlns="http://www.w3.org/2000/svg" viewBox="0 -800 1024 1024">
	<path fill="#000000" d="M614 -659Q642 -662 663 -654Q659 -647 666 -639Q671 -633 671 -630Q680 -617 669 -610Q659 -603 648 -598Q641 -601 617 -601Q601 -597 593 -597Q571 -598 549 -606Q528 -614 506 -619Q500 -621 499 -622Q502 -627 517 -627Q567 -652 614 -659ZM180 -615L188 -612Q212 -611 238 -613Q263 -615 280 -597Q296 -588 286 -565Q286 -549 266 -551Q209 -570 180 -615ZM835 -574Q846 -574 851 -569Q853 -557 859 -545Q866 -534 858 -522L796 -513Q756 -500 718 -494Q673 -487 627 -480Q619 -476 623 -471Q630 -465 634 -460Q640 -448 638 -438Q632 -433 628 -414Q626 -403 622 -397Q620 -392 610 -385Q597 -375 599 -368Q628 -375 655 -384Q682 -393 711 -397Q723 -401 740 -401Q767 -401 794 -391Q807 -381 819 -370Q832 -360 837 -343Q846 -309 837 -273Q825 -264 821 -234Q818 -212 814 -204Q813 -191 802 -168Q791 -147 790 -134Q783 -123 767 -91Q751 -59 738 -40Q724 -19 702 -8Q680 3 660 17Q654 23 649 23Q637 23 623 -3Q605 -17 583 -46Q609 -42 637 -39Q663 -50 686 -79Q699 -95 723 -134Q739 -164 751 -199Q761 -228 770 -260Q778 -291 777 -324Q775 -340 762 -340Q742 -338 726 -339Q715 -334 686 -334Q654 -334 641 -325Q632 -325 613 -322Q587 -318 574 -321Q562 -327 550 -310Q541 -298 535 -297Q509 -325 512 -347Q504 -359 515 -368Q525 -376 533 -385Q542 -399 561 -423Q584 -451 591 -464Q587 -468 582 -468Q566 -463 550 -460Q537 -453 507 -449Q476 -444 463 -438Q455 -438 437 -432Q418 -426 409 -426Q400 -426 393 -430Q364 -437 338 -449Q362 -459 387 -464Q427 -478 516 -498Q621 -527 731 -551Q785 -568 835 -574ZM199 -480H204Q203 -471 213 -461Q222 -452 221 -445Q226 -425 221 -414Q212 -404 209 -392Q206 -379 202 -368Q203 -360 196 -345Q189 -329 192 -320Q191 -292 189 -265Q180 -229 204 -172Q207 -160 215 -160Q226 -160 243 -180Q285 -229 314 -284Q321 -296 326 -304Q327 -304 327 -303Q328 -301 329 -297Q317 -261 301 -226Q302 -216 295 -198Q290 -185 289 -177Q261 -131 244 -117Q238 -114 231 -114Q217 -115 204 -123Q191 -132 178 -138Q147 -162 141 -223Q133 -260 141 -280Q143 -317 161 -411Q167 -431 173 -450Q178 -470 199 -480Z"/>
</svg>