<svg xmlns="http://www.w3.org/2000/svg" viewBox="0 -800 1024 1024">
	<path fill="#000000" d="M416 -748Q421 -747 426 -747Q429 -749 433 -747Q436 -745 439 -747Q460 -741 480 -742Q489 -744 491 -737Q492 -731 493 -725Q496 -723 496 -718Q496 -712 498 -709Q498 -702 503 -694Q502 -688 500 -681Q499 -675 505 -669Q502 -657 514 -635Q518 -616 523 -600Q529 -583 534 -567Q534 -561 541 -551Q548 -541 546 -536Q549 -534 553 -524Q556 -517 559 -514Q569 -512 587 -514Q603 -516 608 -515Q610 -510 622 -510Q630 -514 638 -503Q638 -496 640 -488Q645 -473 628 -471Q616 -458 600 -457Q589 -455 582 -450Q574 -444 579 -435Q583 -417 588 -406L598 -383Q606 -366 613 -349Q629 -375 647 -401Q652 -405 654 -414Q656 -423 644 -424Q646 -430 646 -436Q647 -443 654 -446Q657 -445 663 -446Q670 -447 673 -445Q678 -449 686 -443Q694 -436 699 -439Q702 -436 709 -437Q716 -437 718 -435Q724 -439 729 -433Q734 -428 739 -424Q739 -419 744 -411Q750 -401 744 -397Q744 -389 738 -387Q732 -385 726 -382Q726 -377 720 -372Q715 -367 715 -365Q698 -348 692 -344Q688 -340 684 -337L670 -322Q666 -318 662 -314Q642 -305 641 -292Q649 -270 658 -258Q659 -257 675 -230Q683 -213 695 -200Q705 -180 724 -163Q726 -158 747 -135Q753 -122 783 -94Q782 -89 791 -84Q801 -79 801 -72Q804 -69 806 -67L817 -57Q820 -54 822 -52Q830 -63 834 -77Q835 -81 836 -81Q839 -77 844 -74Q850 -54 850 -44Q851 -41 851 -29Q851 -17 855 -11Q859 -4 864 2Q869 7 868 16Q868 27 870 37Q872 48 864 54Q857 53 836 44Q817 39 798 25Q797 23 793 19L780 7Q778 4 775 1Q774 -1 767 -8Q758 -17 757 -23Q738 -40 721 -70Q713 -76 702 -92Q694 -104 685 -112Q671 -129 652 -158Q650 -164 641 -174Q632 -185 629 -192Q618 -205 610 -220Q602 -235 593 -250Q592 -253 590 -252Q586 -248 581 -246Q580 -246 579 -247Q573 -245 569 -242Q565 -239 560 -241Q558 -240 552 -242Q544 -245 540 -241Q537 -245 534 -242Q531 -239 527 -237Q522 -233 518 -238Q515 -242 519 -244Q541 -258 564 -283Q574 -293 567 -303Q560 -314 558 -324Q549 -342 540 -361Q537 -365 527 -399Q520 -417 513 -435Q503 -439 483 -432Q475 -432 467 -432Q449 -426 427 -425Q371 -416 355 -408Q352 -407 351 -406Q352 -403 359 -401Q374 -392 374 -380Q385 -371 389 -343Q389 -336 396 -336Q405 -338 414 -340Q418 -343 430 -343Q439 -343 443 -344Q450 -347 464 -344Q478 -342 484 -344Q498 -339 495 -326Q495 -316 482 -301Q465 -293 444 -291Q435 -286 400 -275Q390 -263 391 -251Q392 -234 385 -223Q386 -220 382 -213Q377 -204 379 -200Q371 -178 363 -159Q365 -152 360 -148Q354 -144 350 -140Q346 -121 329 -118Q327 -112 319 -106Q312 -100 310 -97Q302 -94 294 -94Q291 -94 292 -100Q289 -102 287 -109Q286 -114 282 -116Q277 -118 272 -125Q268 -131 264 -132Q268 -136 264 -143Q262 -147 263 -149Q277 -146 284 -156Q289 -164 309 -211Q318 -231 322 -254Q325 -259 322 -261Q316 -264 311 -260Q290 -257 271 -252Q257 -247 233 -253Q193 -264 186 -265Q179 -262 164 -271Q160 -274 161 -275Q165 -276 169 -277Q202 -276 248 -293Q274 -299 302 -304Q318 -309 333 -314Q333 -338 329 -361Q327 -369 312 -390Q311 -399 298 -400Q287 -401 285 -404Q269 -403 238 -409Q230 -412 221 -417Q211 -421 212 -430Q223 -428 233 -431Q250 -433 264 -439Q308 -451 352 -463Q364 -466 375 -469Q377 -470 427 -479Q460 -484 488 -495Q483 -498 481 -514Q472 -548 458 -580Q454 -586 446 -615Q448 -621 443 -630Q438 -640 440 -645Q428 -666 418 -706Q416 -722 408 -735Q412 -741 416 -748ZM593 -643L603 -642Q606 -637 616 -636Q626 -635 629 -632Q639 -631 648 -630Q660 -627 672 -624Q683 -626 700 -620Q709 -607 725 -600Q729 -589 739 -577Q741 -571 735 -568Q729 -565 728 -562Q724 -549 719 -537Q710 -533 705 -541Q701 -538 695 -541Q688 -544 685 -541L670 -549Q660 -552 649 -564Q640 -575 636 -577Q633 -585 624 -590Q614 -595 616 -603Q611 -606 609 -615Q607 -623 603 -624Q603 -626 598 -632Q592 -639 593 -643Z"/>
</svg>