<svg xmlns="http://www.w3.org/2000/svg" viewBox="0 -800 1024 1024">
	<path fill="#000000" d="M553 -742Q555 -743 559 -740Q566 -730 578 -730Q589 -725 599 -720Q610 -716 606 -699Q601 -685 588 -662Q583 -660 582 -654Q581 -648 587 -647Q640 -671 674 -677Q687 -679 700 -682Q727 -682 736 -678Q751 -678 770 -659Q782 -649 783 -633Q788 -630 787 -619Q786 -612 788 -608Q786 -592 783 -584Q782 -579 776 -572Q768 -564 768 -558Q763 -553 758 -542Q752 -529 747 -525Q737 -514 732 -501Q718 -482 715 -479Q702 -465 691 -452Q676 -440 669 -422Q653 -411 647 -399Q639 -390 630 -383Q627 -377 617 -369Q609 -363 606 -358Q603 -352 599 -346Q596 -340 589 -337Q583 -337 578 -332Q574 -327 569 -324Q564 -322 557 -314Q552 -309 548 -306Q528 -304 534 -287Q537 -283 540 -278Q542 -272 548 -271Q562 -273 571 -275Q591 -278 611 -282Q636 -286 660 -291Q674 -293 688 -296Q691 -302 697 -302Q702 -302 706 -296Q722 -294 738 -293Q744 -295 747 -292Q751 -289 749 -283Q746 -279 751 -273Q756 -266 754 -262Q753 -256 747 -253Q741 -251 736 -249Q708 -247 679 -245Q659 -241 635 -241Q614 -236 609 -237Q601 -234 581 -232Q571 -230 560 -228H558Q558 -219 557 -215Q558 -209 556 -202Q554 -196 561 -193Q580 -192 599 -191Q603 -190 612 -190Q625 -190 630 -187Q648 -191 658 -185Q676 -187 686 -178Q690 -182 695 -180Q700 -179 705 -178Q727 -174 749 -170Q759 -168 768 -164Q776 -159 784 -154Q790 -148 798 -143Q805 -138 800 -130Q801 -126 799 -126Q795 -126 796 -122Q799 -118 798 -114Q797 -110 792 -110Q790 -116 786 -114Q782 -110 781 -105Q781 -101 780 -101Q777 -102 772 -102Q762 -106 752 -111Q748 -110 744 -114Q739 -119 736 -115Q729 -119 715 -123Q711 -122 704 -126Q698 -129 695 -128L668 -134Q661 -137 650 -139Q634 -142 627 -146Q615 -149 602 -152Q587 -160 569 -163Q566 -166 563 -161Q560 -155 563 -153Q564 -139 561 -128Q562 -117 563 -107Q563 -89 563 -71Q561 -57 558 -43Q561 -35 552 -19Q558 -5 548 2Q542 3 542 12Q542 19 539 22Q539 27 529 34Q522 39 520 44Q519 51 514 49Q509 47 507 43Q494 38 489 25Q483 12 474 3Q471 4 469 0Q468 -3 465 -3Q464 -5 471 -7Q478 -9 476 -14Q473 -17 481 -18Q483 -20 488 -20Q494 -20 496 -24Q507 -60 507 -100Q509 -128 507 -154Q508 -162 506 -169Q504 -173 500 -170Q495 -168 491 -159Q487 -150 481 -148Q474 -138 467 -129Q465 -127 457 -115Q451 -106 444 -103Q428 -78 402 -66Q391 -57 380 -48Q373 -45 365 -42Q361 -51 371 -66Q370 -70 376 -73Q381 -76 383 -80Q388 -85 410 -119Q428 -137 443 -163Q447 -173 465 -209L422 -200Q416 -201 395 -198Q387 -197 340 -194Q324 -192 308 -190Q295 -186 283 -187Q273 -187 264 -184Q241 -184 221 -189Q215 -195 196 -197Q180 -198 174 -204Q175 -209 179 -210Q183 -211 188 -211Q218 -219 250 -225Q264 -228 277 -231Q289 -234 304 -236Q313 -235 326 -238Q340 -241 346 -241Q364 -246 383 -247Q394 -251 407 -252Q427 -253 446 -257Q454 -259 463 -259Q472 -260 480 -266Q476 -275 470 -282Q468 -290 462 -293Q456 -296 450 -299Q440 -299 445 -304Q461 -307 462 -307Q471 -307 480 -307Q490 -304 501 -305Q526 -324 549 -347Q567 -362 581 -381Q594 -399 609 -417Q611 -422 623 -438L638 -457Q669 -501 674 -510Q692 -535 721 -589Q726 -601 730 -614Q735 -628 724 -637Q704 -642 686 -636Q673 -630 660 -628Q656 -625 646 -622Q635 -619 631 -615Q622 -615 615 -601Q611 -597 607 -600Q603 -604 599 -606Q593 -610 582 -607Q571 -604 566 -607Q558 -607 557 -601Q555 -594 550 -589Q542 -586 542 -580Q541 -573 539 -567Q537 -561 531 -563Q527 -569 512 -579Q499 -598 497 -606Q501 -619 504 -633Q517 -655 523 -671Q530 -684 540 -710Q542 -719 544 -727Q545 -736 553 -742ZM345 -723Q356 -723 367 -721Q380 -724 389 -713Q394 -712 397 -705Q396 -701 399 -695Q402 -688 402 -685Q398 -669 398 -652Q396 -640 396 -624Q391 -612 391 -580Q391 -557 388 -544Q385 -537 389 -528Q380 -516 387 -501Q392 -492 387 -479Q396 -462 385 -448Q387 -432 384 -417Q385 -413 385 -394Q385 -384 383 -362Q382 -349 380 -337Q381 -333 378 -327Q375 -321 375 -317Q379 -301 367 -294Q359 -292 352 -296Q346 -300 340 -304Q323 -328 321 -332Q314 -339 314 -354Q312 -358 314 -366Q316 -376 312 -379Q303 -374 294 -364Q289 -357 281 -350Q273 -343 270 -333Q265 -324 259 -316Q254 -314 243 -316Q234 -321 228 -329Q221 -337 215 -343Q198 -353 203 -372Q202 -380 207 -384Q211 -388 217 -394Q222 -398 224 -403Q225 -409 233 -410Q238 -401 243 -393Q246 -389 249 -389Q260 -392 270 -402Q292 -426 319 -452Q327 -459 332 -467Q330 -481 332 -488Q332 -503 331 -518Q330 -525 322 -526Q314 -527 310 -523Q296 -522 282 -521Q247 -527 216 -543Q212 -542 207 -544Q203 -546 206 -550Q228 -561 252 -563Q272 -564 292 -565Q303 -564 313 -563Q318 -563 324 -559Q330 -555 334 -562Q337 -605 336 -641Q341 -659 339 -677Q339 -696 323 -698Q311 -700 312 -705Q318 -713 327 -716Q336 -719 345 -723ZM511 -449L525 -447Q530 -445 541 -443Q555 -441 560 -437Q568 -429 564 -423Q573 -414 562 -407Q561 -399 550 -399Q542 -399 532 -403Q506 -409 476 -413Q466 -414 452 -414Q439 -414 430 -424Q437 -428 443 -432Q456 -438 473 -442Q492 -448 511 -449Z"/>
</svg>