<svg xmlns="http://www.w3.org/2000/svg" viewBox="0 -800 1024 1024">
	<path fill="#000000" d="M969 -68Q974 -61 969 -50Q966 -42 957 -42Q950 -42 940 -47Q933 -60 920 -50Q915 -51 910 -55Q903 -60 900 -60Q897 -60 894 -57Q885 -52 881 -62Q873 -71 862 -75Q852 -78 843 -82Q786 -110 730 -131Q708 -133 691 -141Q678 -148 670 -138Q661 -123 650 -109Q639 -96 631 -96Q610 -85 607 -82Q604 -79 601 -81Q597 -83 598 -86Q596 -92 600 -95Q605 -98 609 -100Q629 -120 640 -143Q655 -177 669 -212Q678 -235 687 -258L695 -286Q694 -304 698 -321Q694 -329 703 -343Q694 -369 698 -377Q697 -382 701 -391Q704 -397 704 -401Q703 -409 706 -440Q706 -470 704 -499Q702 -549 699 -600Q703 -619 684 -631Q679 -634 678 -639Q677 -644 683 -645Q685 -644 692 -645Q700 -646 704 -643Q710 -638 720 -642Q743 -633 751 -617Q755 -614 755 -602Q755 -588 762 -583Q759 -569 760 -556Q771 -544 761 -524Q759 -519 762 -509Q765 -500 764 -494Q764 -469 764 -444Q761 -439 764 -415Q758 -394 758 -369Q752 -358 752 -343Q749 -339 750 -333Q751 -327 757 -327Q766 -337 778 -348Q815 -402 821 -415Q823 -421 826 -427Q829 -433 823 -436Q821 -437 814 -437Q805 -436 805 -442Q815 -454 826 -453Q835 -457 843 -466Q851 -474 862 -470Q866 -471 873 -465Q878 -460 882 -459Q898 -461 904 -451Q917 -438 918 -421Q910 -413 904 -402Q900 -398 896 -392Q891 -386 884 -387Q875 -380 866 -374Q857 -360 843 -353Q829 -351 828 -349Q819 -339 809 -334Q803 -329 795 -331Q788 -335 784 -331Q780 -327 776 -323Q767 -322 758 -308Q751 -308 747 -303Q743 -298 744 -291Q744 -271 740 -261Q739 -254 733 -244Q726 -233 725 -227Q726 -205 705 -184Q701 -180 701 -172Q701 -165 708 -164Q718 -162 735 -162Q758 -162 767 -160Q780 -160 792 -155Q803 -150 816 -146Q829 -143 844 -137Q856 -134 869 -127Q878 -128 885 -123Q891 -118 899 -115Q910 -112 923 -109Q942 -101 957 -85Q964 -77 969 -68ZM212 -634L216 -633L221 -618Q224 -616 224 -609Q225 -600 229 -597Q238 -587 236 -558Q231 -550 233 -541Q234 -531 234 -521Q236 -510 237 -499Q238 -497 237 -491Q236 -484 238 -481Q234 -469 234 -461Q235 -457 234 -452Q231 -444 240 -443Q245 -447 248 -456Q252 -468 259 -470Q262 -476 267 -474Q272 -472 274 -466Q276 -462 282 -459Q289 -455 291 -452Q299 -441 284 -434Q277 -430 270 -427Q264 -429 258 -423Q252 -418 245 -414Q237 -411 234 -403Q230 -398 228 -384Q229 -354 229 -325Q229 -312 229 -300Q232 -291 233 -280Q234 -269 231 -256Q232 -248 229 -238Q232 -217 232 -215Q230 -210 230 -194Q230 -182 228 -175Q230 -166 228 -135Q230 -126 225 -120Q221 -118 222 -110Q222 -105 221 -103Q221 -100 218 -100Q215 -100 213 -98Q203 -97 196 -104Q189 -111 184 -118Q178 -128 172 -138Q166 -148 168 -159Q170 -169 170 -180Q172 -194 174 -209Q180 -299 180 -301Q184 -318 183 -334Q185 -346 186 -359Q186 -364 187 -369Q187 -375 182 -375Q173 -366 167 -354Q152 -341 140 -326Q132 -324 129 -313Q128 -310 127 -294Q126 -290 121 -288Q117 -286 115 -291Q108 -293 106 -299Q103 -305 100 -309Q94 -312 87 -323Q79 -329 78 -338Q77 -347 76 -355Q81 -385 97 -409Q101 -413 109 -425Q119 -439 126 -445Q134 -434 131 -423Q128 -408 130 -390Q132 -385 131 -378Q131 -372 138 -370Q159 -389 182 -405Q187 -413 189 -445Q189 -466 189 -488Q192 -508 194 -529Q193 -540 195 -579Q198 -612 212 -634ZM441 -573L449 -574Q458 -569 469 -571Q479 -575 492 -569Q498 -569 501 -563Q503 -557 505 -551Q495 -537 477 -533Q471 -527 476 -522Q481 -518 484 -512Q482 -505 484 -486Q486 -465 482 -454Q482 -448 483 -440Q484 -433 493 -432Q502 -436 510 -433Q518 -431 528 -429Q543 -432 561 -427Q564 -424 562 -420Q560 -415 561 -412Q563 -399 552 -396Q544 -394 535 -393Q530 -385 518 -389Q500 -384 496 -382Q488 -380 486 -372Q484 -364 487 -356Q483 -329 489 -313Q489 -289 482 -275Q480 -270 485 -266Q489 -263 494 -267Q519 -300 542 -316Q564 -342 586 -368Q586 -372 593 -380Q600 -388 599 -393Q612 -401 625 -410Q641 -413 643 -412Q647 -413 651 -415Q655 -416 655 -412Q651 -407 637 -379Q627 -361 620 -342Q620 -335 624 -319Q623 -313 629 -310Q634 -308 639 -311Q645 -315 649 -311Q653 -307 652 -300Q648 -290 634 -270Q623 -258 612 -268Q588 -290 582 -303Q578 -315 583 -328Q583 -336 578 -335Q571 -333 568 -327Q536 -290 515 -260Q511 -253 500 -240Q487 -225 483 -217Q482 -203 483 -188Q484 -173 479 -159Q476 -153 483 -135Q486 -129 482 -119Q479 -110 479 -106Q482 -90 475 -78Q474 -76 474 -68Q475 -56 469 -54Q462 -53 455 -45Q446 -34 443 -32Q435 -45 426 -58Q425 -64 420 -72Q412 -85 413 -93Q418 -112 418 -132Q416 -138 419 -148Q422 -159 419 -164Q412 -164 408 -159Q403 -154 399 -150Q393 -148 389 -143Q386 -138 382 -133Q371 -131 366 -125Q360 -124 354 -131Q348 -137 345 -137Q337 -149 334 -160Q319 -168 327 -181Q331 -187 336 -195Q340 -202 349 -205Q375 -242 377 -245Q386 -259 393 -273Q400 -287 411 -299Q423 -309 426 -322Q430 -336 435 -348Q441 -358 431 -361Q418 -355 404 -350Q399 -348 392 -347Q386 -347 383 -342Q377 -335 369 -335Q361 -335 354 -340Q342 -339 315 -346Q296 -350 281 -360Q283 -366 290 -365Q297 -364 302 -365Q353 -383 389 -391Q408 -396 427 -402Q436 -405 437 -414Q438 -423 440 -430Q442 -474 442 -495Q443 -503 437 -528Q435 -535 429 -535Q423 -534 419 -533Q410 -532 405 -536Q396 -538 389 -537Q386 -537 385 -539Q385 -540 384 -542Q388 -552 402 -557Q405 -561 426 -566Q437 -567 441 -573Z"/>
</svg>