<svg xmlns="http://www.w3.org/2000/svg" viewBox="0 -800 1024 1024">
	<path fill="#000000" d="M383 -739L390 -737Q393 -738 412 -733Q423 -729 433 -726Q446 -720 449 -710Q452 -707 452 -689Q452 -684 446 -674Q447 -664 447 -654Q454 -650 462 -654Q470 -658 478 -660Q486 -663 532 -673Q541 -680 549 -670Q558 -663 571 -666Q584 -669 592 -651Q599 -646 598 -637Q597 -628 599 -620Q600 -614 596 -609Q592 -604 589 -600Q590 -595 583 -579L567 -553Q559 -547 558 -537Q556 -528 554 -519Q546 -507 544 -473Q546 -467 545 -460Q544 -453 549 -447Q558 -439 568 -431Q577 -423 590 -422Q598 -412 608 -415Q617 -416 626 -417Q634 -410 647 -415Q663 -416 681 -415Q694 -417 706 -422Q709 -426 710 -432Q710 -438 717 -437Q728 -426 740 -418Q747 -417 754 -420Q758 -417 760 -406Q764 -398 760 -382Q749 -378 738 -376Q734 -378 727 -375Q719 -372 715 -375Q708 -373 691 -372Q669 -371 659 -366Q650 -370 642 -367Q639 -366 635 -366L622 -364Q619 -363 615 -363Q604 -365 592 -368Q579 -370 569 -370Q565 -368 564 -371Q563 -374 562 -377Q547 -394 528 -407Q500 -428 489 -452Q482 -485 485 -496Q489 -507 492 -519Q491 -528 501 -557Q513 -587 527 -615Q529 -617 527 -620Q525 -623 523 -623Q506 -619 499 -613Q480 -611 468 -603Q458 -603 444 -595Q430 -594 416 -568Q415 -561 407 -550Q399 -538 397 -530Q391 -513 385 -497Q381 -494 376 -485Q369 -473 363 -469Q359 -467 356 -456Q353 -448 348 -444Q346 -439 344 -435L334 -419Q332 -414 330 -410Q329 -404 320 -397Q311 -390 309 -385Q301 -381 290 -367Q281 -356 275 -352Q263 -349 254 -338Q247 -340 237 -333Q230 -328 227 -328Q219 -324 218 -329Q222 -341 227 -344Q243 -368 273 -418Q276 -422 283 -435Q291 -450 299 -457Q310 -474 320 -492Q319 -500 324 -505Q328 -511 331 -517Q340 -531 338 -539Q338 -546 342 -552Q345 -558 339 -562Q332 -563 323 -559Q309 -553 303 -558Q287 -558 284 -560Q267 -562 252 -570Q235 -574 223 -583Q225 -588 229 -586Q234 -585 238 -586Q261 -595 276 -599Q303 -607 306 -609Q308 -613 316 -613Q322 -613 325 -615Q336 -616 362 -629Q373 -631 375 -642Q377 -653 380 -662Q380 -675 380 -689Q383 -705 378 -716Q374 -721 367 -723Q359 -726 362 -733Q365 -734 383 -739ZM624 -338L632 -339Q636 -336 644 -338Q651 -340 655 -338Q667 -334 678 -331Q686 -331 700 -319Q704 -319 705 -312Q706 -305 710 -303Q716 -300 717 -294Q718 -288 720 -282Q727 -269 728 -250Q735 -219 730 -200Q734 -183 734 -161Q735 -144 729 -129Q730 -121 724 -103Q724 -79 714 -68Q713 -58 711 -49Q711 -42 703 -28Q698 -18 696 -10Q689 4 685 19Q680 22 676 33Q673 42 668 45Q647 33 630 21Q626 19 622 12Q617 5 613 4Q607 2 601 9Q597 14 593 13Q581 2 562 8Q554 5 526 5Q499 4 476 7Q464 2 454 5Q448 8 440 2Q433 -3 428 -2Q423 -5 415 3Q406 6 405 -3Q381 -17 373 -27Q360 -40 353 -59Q351 -62 353 -69Q355 -76 352 -79Q350 -88 353 -100Q355 -112 356 -125Q356 -146 366 -184Q367 -186 367 -189L369 -198Q370 -200 370 -203Q370 -223 377 -239Q389 -278 410 -302Q416 -308 421 -316Q425 -324 434 -319Q437 -310 444 -303Q446 -301 447 -295Q448 -288 452 -285Q466 -287 480 -292Q490 -305 510 -308Q524 -314 534 -314Q538 -319 548 -321Q558 -323 560 -324Q576 -331 594 -332Q597 -335 609 -335Q620 -335 624 -338ZM612 -291H609Q586 -286 562 -281Q548 -276 533 -272Q524 -267 516 -263Q513 -260 504 -261Q498 -262 495 -261Q481 -263 468 -269Q464 -269 460 -272Q454 -276 451 -275Q448 -273 449 -268Q450 -264 452 -259Q452 -256 443 -225Q433 -213 434 -201Q435 -191 433 -181Q431 -170 438 -162Q449 -163 466 -167Q477 -172 491 -174Q508 -176 524 -179Q534 -179 540 -173Q564 -178 571 -166Q578 -164 577 -156Q577 -155 572 -144Q567 -138 559 -137Q552 -136 546 -134Q539 -135 515 -133Q497 -134 478 -135Q466 -134 457 -139Q447 -145 438 -148Q435 -151 431 -150Q427 -149 427 -145Q429 -124 426 -114Q423 -101 424 -87Q423 -79 423 -70Q422 -61 427 -54Q431 -52 434 -44Q437 -35 442 -33Q469 -34 495 -36Q519 -39 546 -40Q555 -40 564 -40Q569 -42 577 -36Q583 -32 587 -31Q590 -36 595 -36Q600 -35 606 -32Q612 -29 618 -31Q624 -34 631 -30Q637 -31 638 -37Q639 -44 642 -48Q649 -68 655 -89Q657 -107 662 -123Q668 -135 668 -163Q671 -177 669 -218Q660 -263 655 -276Q652 -290 639 -292Q620 -294 612 -291Z"/>
</svg>