<svg xmlns="http://www.w3.org/2000/svg" viewBox="0 -800 1024 1024">
	<path fill="#000000" d="M530 -747Q538 -747 546 -743Q554 -732 562 -720Q570 -708 568 -693Q571 -689 568 -681Q565 -675 568 -673Q589 -676 607 -683Q613 -688 629 -690Q644 -692 651 -696Q670 -693 689 -697Q702 -699 716 -699Q729 -700 736 -687Q742 -679 732 -669Q733 -664 728 -663Q724 -662 722 -660Q707 -654 685 -647Q679 -647 664 -644Q647 -640 638 -642L614 -645Q611 -649 603 -650Q594 -652 591 -654Q587 -651 577 -653Q568 -655 564 -652Q561 -635 564 -623Q569 -602 558 -570Q561 -567 560 -559Q559 -552 562 -548Q566 -540 564 -532Q562 -524 563 -518Q563 -509 562 -500Q562 -475 557 -463Q561 -410 561 -356Q560 -349 572 -349Q588 -352 604 -355Q612 -354 626 -359Q644 -365 653 -364Q667 -364 681 -364Q687 -361 699 -364Q711 -367 716 -363Q730 -363 746 -359Q749 -362 756 -359Q761 -357 763 -358Q771 -352 773 -336Q769 -330 765 -325Q761 -319 755 -318Q749 -312 740 -313Q737 -310 731 -313Q727 -314 726 -313Q714 -308 691 -312Q666 -317 638 -313Q633 -315 623 -312Q614 -309 610 -310L585 -309Q563 -309 556 -301Q548 -296 535 -295Q528 -293 524 -298Q519 -304 515 -309Q512 -322 503 -330Q493 -338 485 -347Q477 -349 481 -362Q484 -372 483 -377Q482 -382 485 -396Q489 -412 483 -420Q483 -424 483 -428V-442Q483 -446 483 -450Q484 -452 485 -455L487 -467Q488 -469 489 -472Q488 -487 489 -504Q492 -508 491 -516Q490 -524 493 -528Q491 -540 494 -553Q495 -567 496 -581L497 -651L503 -698Q506 -716 511 -719Q513 -723 530 -747ZM264 -714Q280 -713 295 -698Q303 -696 306 -690Q310 -685 315 -679Q306 -668 311 -656Q322 -656 338 -663Q357 -664 374 -665Q392 -666 409 -660Q415 -656 420 -656Q443 -656 451 -636Q454 -627 449 -612Q445 -600 445 -595Q436 -586 427 -577Q418 -568 412 -556Q406 -558 404 -554Q401 -549 398 -544Q391 -545 388 -540Q384 -535 381 -532Q377 -526 381 -524Q390 -521 400 -521Q409 -516 418 -512Q426 -503 412 -493Q413 -487 409 -486Q407 -485 401 -485Q395 -485 393 -482Q374 -475 352 -471Q339 -471 332 -458Q337 -445 324 -426Q322 -411 340 -407Q386 -403 401 -397Q403 -393 409 -393Q414 -393 417 -389Q430 -382 429 -373Q436 -363 429 -347Q430 -341 428 -341Q422 -341 415 -344Q412 -344 410 -341Q409 -343 405 -343Q402 -343 403 -337Q396 -334 386 -341Q379 -346 377 -346Q368 -349 359 -353Q350 -354 338 -369Q325 -384 315 -384Q305 -390 298 -375Q288 -355 268 -339Q266 -335 260 -335Q256 -335 254 -332Q247 -328 244 -338Q241 -346 237 -346Q226 -353 229 -366Q233 -378 236 -389Q266 -437 267 -439Q271 -444 270 -451Q269 -455 264 -453Q235 -449 206 -446Q192 -441 180 -446Q168 -451 155 -453Q153 -456 146 -459Q136 -464 134 -469Q145 -471 165 -473Q182 -477 199 -481Q217 -486 236 -490Q256 -495 276 -501Q281 -499 283 -503Q285 -508 288 -510Q293 -517 288 -538Q288 -541 283 -547Q277 -553 281 -556Q284 -555 291 -558Q297 -561 301 -558Q316 -554 323 -566Q329 -578 338 -586Q339 -590 345 -598Q354 -610 351 -617Q347 -618 327 -610Q323 -607 311 -605Q295 -602 290 -594Q290 -591 289 -591Q284 -591 279 -591Q276 -585 270 -590Q265 -594 262 -591Q259 -594 256 -604Q253 -614 248 -617Q231 -634 231 -644Q234 -650 237 -655Q240 -661 240 -668Q253 -681 264 -714ZM675 -595Q680 -595 686 -591Q695 -585 700 -589Q718 -591 722 -591Q736 -592 741 -571Q746 -566 742 -562Q739 -558 737 -554Q721 -543 719 -533Q721 -526 717 -512Q714 -502 714 -495Q702 -481 727 -462Q747 -444 742 -429Q741 -420 734 -422Q727 -424 722 -421Q711 -425 699 -430Q687 -427 673 -430Q659 -416 649 -419Q628 -422 606 -438Q600 -440 596 -446Q592 -452 587 -457Q597 -466 607 -468Q613 -471 626 -473Q645 -476 652 -482Q654 -515 658 -523Q663 -531 660 -536Q656 -542 647 -539Q635 -538 625 -542Q599 -546 591 -552Q585 -554 585 -559Q586 -565 594 -563Q602 -567 637 -577Q647 -578 653 -583Q655 -586 664 -587Q674 -588 675 -595ZM441 -276Q467 -273 468 -273Q478 -269 488 -267Q499 -265 501 -252Q504 -241 503 -233Q505 -215 515 -214Q540 -222 564 -222Q586 -225 606 -226Q619 -228 697 -233Q706 -231 717 -240Q725 -246 730 -247Q736 -252 743 -248Q749 -245 755 -242Q759 -236 771 -234Q788 -234 805 -234Q816 -235 823 -226Q830 -217 826 -207Q821 -198 817 -189Q812 -180 801 -178Q798 -175 789 -178Q781 -180 777 -177Q748 -183 732 -179Q729 -182 722 -181Q715 -179 712 -181Q710 -178 703 -180Q698 -182 695 -179Q687 -181 667 -180Q651 -179 643 -181Q604 -174 564 -172Q551 -170 537 -170Q524 -169 512 -161Q508 -134 510 -123Q511 -119 507 -112Q503 -106 505 -102Q504 -86 507 -65Q503 -56 504 -39Q505 -23 503 -17Q503 2 501 13Q504 34 497 39Q496 49 497 57Q498 66 493 74Q491 75 486 80Q479 88 474 85Q467 89 462 83Q457 76 451 73Q434 51 432 36Q427 27 429 18Q431 9 431 -1Q431 -5 431 -6Q434 -5 440 4Q445 2 445 -7Q445 -14 447 -17Q447 -32 447 -47Q452 -111 454 -122Q454 -132 455 -144Q456 -156 446 -161Q442 -159 431 -160Q419 -161 413 -158Q397 -156 381 -155Q378 -153 369 -155Q358 -157 353 -151Q344 -153 334 -150Q324 -147 317 -148Q302 -147 287 -143Q272 -140 258 -142Q252 -139 241 -138Q229 -137 224 -134Q164 -142 109 -158Q119 -165 134 -168Q156 -173 180 -178Q280 -193 301 -198Q339 -201 377 -205Q413 -208 449 -211Q451 -231 443 -252Q431 -259 441 -276ZM386 -146Q382 -121 386 -98Q393 -91 391 -84Q390 -76 389 -68Q384 -59 385 -48Q386 -37 386 -26Q386 -7 385 13Q387 25 377 30Q368 34 357 31Q343 20 332 7Q324 -5 314 -18Q305 -30 307 -48Q320 -76 339 -102Q342 -112 365 -132Q367 -136 377 -140Q382 -142 386 -146ZM627 -100Q631 -100 637 -94Q643 -88 648 -88Q666 -83 685 -77Q704 -72 721 -60Q737 -40 741 -22Q739 -17 742 -10Q745 -4 737 -1Q730 7 721 14Q719 19 716 19Q708 14 700 9Q694 -1 679 4Q678 -3 667 -11Q658 -18 655 -22Q644 -32 641 -45Q637 -58 633 -69Q624 -80 627 -100Z"/>
</svg>