<svg xmlns="http://www.w3.org/2000/svg" viewBox="0 -800 1024 1024">
	<path fill="#000000" d="M737 -710Q743 -710 748 -710Q757 -708 766 -707Q785 -706 803 -706Q819 -699 835 -693Q834 -687 844 -683Q854 -679 855 -675Q859 -666 863 -658Q869 -644 864 -630Q864 -621 863 -613Q855 -601 858 -592Q853 -589 851 -582Q849 -576 847 -574Q842 -574 843 -569Q843 -565 841 -562Q838 -554 837 -545Q835 -537 826 -532Q820 -524 816 -514Q817 -509 809 -501Q803 -496 803 -492Q802 -484 795 -481Q787 -466 778 -451Q772 -441 762 -429Q757 -424 752 -418Q747 -413 739 -413Q737 -408 734 -406Q730 -405 726 -399Q723 -395 722 -394Q717 -390 711 -390Q692 -388 689 -386Q680 -374 677 -358Q679 -355 675 -348Q671 -342 672 -338Q673 -324 665 -311Q662 -301 665 -292Q670 -290 679 -292Q689 -295 693 -294Q704 -293 715 -293Q725 -295 736 -292Q742 -286 760 -286Q766 -291 779 -278Q780 -258 758 -255Q750 -256 741 -257Q737 -257 736 -255Q736 -249 743 -246Q746 -243 756 -242Q763 -242 766 -240Q773 -237 780 -235Q794 -238 805 -225Q811 -225 822 -219Q834 -212 842 -213Q850 -215 855 -203Q858 -194 868 -198Q871 -201 874 -198Q874 -197 877 -191Q879 -187 885 -185Q888 -183 884 -179Q876 -176 867 -174Q862 -176 857 -171Q852 -167 848 -167Q840 -175 775 -191Q737 -207 719 -215Q712 -217 687 -235Q682 -236 679 -242Q677 -248 674 -249Q647 -253 619 -247Q597 -242 590 -242Q575 -240 565 -232Q559 -211 552 -206Q528 -192 521 -178Q505 -168 502 -159Q495 -155 477 -139Q463 -127 457 -123Q449 -114 434 -107Q425 -101 412 -99Q406 -100 406 -106Q406 -107 409 -116Q426 -135 443 -154Q463 -179 495 -211Q501 -216 501 -222Q500 -227 493 -226Q484 -222 465 -222Q459 -220 445 -220Q439 -219 431 -222Q422 -225 419 -225Q413 -228 388 -236Q384 -237 385 -240Q387 -243 392 -242Q426 -248 459 -254Q478 -257 496 -261Q509 -263 521 -266Q531 -272 531 -293Q536 -314 534 -346Q535 -352 531 -355Q527 -358 521 -356Q509 -357 496 -358Q481 -362 466 -366Q464 -370 465 -371Q470 -372 475 -372Q504 -380 532 -389Q537 -390 537 -395Q537 -400 532 -401Q530 -404 513 -415Q511 -423 519 -423Q523 -423 530 -426Q537 -430 543 -428Q555 -421 566 -415Q569 -414 573 -409Q578 -402 583 -402Q597 -409 609 -410Q615 -413 623 -415Q631 -418 635 -424Q641 -432 629 -440Q621 -438 618 -436Q616 -433 612 -433Q608 -433 607 -437Q597 -433 583 -433Q570 -433 546 -437Q525 -448 503 -458Q498 -464 487 -473Q475 -482 472 -486Q470 -494 457 -506Q444 -517 443 -524Q425 -541 438 -572Q436 -580 440 -590Q446 -614 461 -632Q462 -634 478 -664Q481 -667 485 -672Q490 -678 496 -675Q498 -677 501 -676Q505 -674 506 -675Q514 -675 515 -671Q516 -667 520 -664Q527 -653 536 -658Q588 -677 629 -689Q642 -695 671 -700Q694 -704 702 -706ZM743 -671Q723 -669 717 -666Q681 -666 644 -653Q628 -648 611 -643Q605 -639 600 -640Q567 -640 538 -647Q536 -651 533 -649Q530 -646 533 -644Q532 -637 518 -620Q510 -605 501 -590Q491 -582 491 -572Q490 -562 489 -551Q489 -541 488 -531Q488 -521 503 -505Q514 -494 517 -486Q516 -482 522 -479Q528 -476 527 -472Q531 -467 555 -467Q575 -469 608 -476Q654 -486 678 -486Q686 -485 694 -485Q706 -482 717 -479Q721 -472 729 -474Q735 -475 741 -481Q749 -485 753 -494Q756 -502 761 -511Q767 -525 772 -540Q784 -563 790 -586Q794 -597 798 -609Q802 -629 793 -653Q791 -668 771 -671Q757 -671 743 -671ZM622 -563H629Q642 -564 648 -555Q653 -548 650 -538Q650 -531 641 -530Q639 -530 614 -527Q602 -525 589 -523Q568 -524 551 -528Q542 -529 535 -534Q533 -536 536 -538Q540 -538 583 -549Q589 -553 605 -557Q615 -560 622 -563ZM276 -522Q281 -522 293 -516Q306 -513 315 -498Q314 -493 320 -488Q327 -482 326 -477Q324 -471 327 -460Q329 -449 328 -444Q328 -441 326 -434Q323 -425 326 -419Q320 -407 322 -394Q324 -385 320 -368Q323 -344 322 -318Q321 -285 316 -253Q310 -246 305 -236Q303 -231 298 -233Q294 -234 293 -238Q283 -243 273 -249Q247 -245 223 -235Q221 -235 219 -233L210 -230Q208 -229 205 -228Q194 -230 190 -239Q185 -248 180 -255Q176 -266 161 -277Q161 -297 167 -312Q168 -333 172 -368Q175 -394 173 -421Q171 -448 165 -472Q165 -480 155 -490Q154 -493 156 -494Q160 -494 164 -493Q176 -487 195 -500Q225 -516 245 -517Q260 -522 276 -522ZM262 -482L252 -481Q231 -478 215 -467Q214 -444 215 -418Q213 -398 215 -388Q215 -384 214 -379Q213 -373 221 -372Q226 -378 239 -372Q245 -367 253 -369Q261 -370 269 -369Q277 -376 276 -388Q274 -399 277 -409Q274 -424 276 -452Q275 -462 274 -472Q275 -479 271 -482Q267 -486 262 -482ZM681 -426Q685 -423 696 -425Q704 -427 710 -425Q715 -427 721 -425Q722 -423 728 -423Q726 -427 726 -430Q720 -434 715 -440Q710 -445 702 -446Q695 -448 679 -448Q680 -446 682 -444Q683 -435 681 -426ZM621 -375Q609 -375 601 -371Q594 -369 586 -370Q580 -371 580 -363Q583 -344 582 -323Q582 -306 581 -303Q579 -293 580 -283Q580 -279 584 -280Q589 -282 594 -280Q599 -280 604 -281Q609 -282 612 -286L619 -329Q623 -353 627 -365Q629 -369 627 -373Q625 -377 621 -375ZM216 -351Q214 -350 214 -339Q211 -324 211 -306Q212 -296 212 -286Q216 -279 224 -280Q232 -282 240 -282Q248 -283 257 -282Q267 -281 271 -288Q269 -307 266 -327Q263 -334 258 -333Q253 -332 248 -331Q243 -335 226 -345Q221 -348 216 -351ZM602 -189L606 -188Q612 -182 615 -186Q630 -184 641 -178Q648 -172 651 -156Q653 -141 661 -136Q697 -163 741 -167Q754 -167 780 -161Q787 -162 797 -157Q806 -152 810 -152Q818 -150 819 -143Q819 -136 818 -128Q802 -105 799 -92Q793 -80 796 -67Q811 -53 831 -46Q836 -42 842 -39Q848 -36 849 -29Q853 -23 847 -17Q841 -11 833 -9Q829 -5 822 -5Q820 -5 802 -10Q778 -26 768 -37Q730 -64 736 -93Q742 -113 743 -131Q733 -134 718 -132Q712 -127 702 -134Q687 -133 672 -128Q663 -127 665 -111Q664 -101 665 -89Q667 -77 662 -67Q660 -59 661 -43Q662 -27 661 -20Q650 -5 651 3Q647 7 647 16Q647 24 645 27Q647 31 642 35Q637 39 637 42Q636 49 622 63Q615 50 608 35Q600 21 587 12Q595 8 602 4Q611 -3 613 -15Q614 -26 616 -38Q618 -52 620 -66Q622 -82 616 -93Q614 -89 606 -84Q596 -78 594 -70Q579 -58 573 -55Q566 -40 558 -26Q549 -22 553 -7Q552 2 548 8Q529 2 519 -18L499 -37Q491 -52 501 -76Q505 -100 522 -118Q521 -122 526 -122Q532 -122 533 -124Q535 -120 543 -115Q548 -112 551 -108Q564 -104 554 -84Q552 -71 555 -60Q571 -72 580 -76Q600 -92 620 -109Q621 -137 615 -163Q616 -170 608 -178Q602 -185 602 -189Z"/>
</svg>