<svg xmlns="http://www.w3.org/2000/svg" viewBox="0 -800 1024 1024">
	<path fill="#000000" d="M494 -697L511 -696Q520 -696 528 -696Q535 -696 541 -697Q551 -697 596 -692Q612 -689 611 -684Q611 -681 614 -680Q616 -680 619 -682Q622 -670 614 -670Q609 -674 607 -670Q605 -665 605 -660Q596 -651 579 -660Q554 -661 516 -683Q504 -687 494 -697ZM449 -598Q451 -598 451 -595Q440 -581 439 -563Q426 -545 422 -533Q415 -529 413 -522Q411 -515 408 -509Q405 -500 401 -491Q403 -487 401 -481Q399 -472 403 -469Q451 -500 480 -511Q513 -530 615 -566Q630 -570 644 -575Q679 -580 713 -586Q717 -586 721 -586H734Q738 -586 742 -586Q746 -587 775 -584Q785 -578 790 -577Q796 -577 803 -567Q808 -567 808 -563Q809 -558 810 -553Q831 -541 817 -501Q819 -490 808 -486Q809 -476 801 -474Q793 -471 788 -466Q784 -452 770 -443Q767 -429 751 -436Q746 -428 740 -421Q733 -420 723 -412Q714 -416 707 -407Q699 -408 676 -396Q672 -392 655 -392Q652 -394 651 -393Q650 -389 646 -386Q646 -384 645 -384Q642 -385 639 -384Q637 -379 629 -377Q622 -375 621 -373Q612 -368 603 -363Q598 -360 600 -358Q604 -356 606 -353Q610 -350 608 -346Q607 -343 607 -340Q608 -332 605 -327Q601 -323 600 -317Q624 -313 639 -312Q646 -309 669 -307Q672 -305 693 -300L702 -297Q708 -295 711 -295Q726 -293 735 -283Q747 -289 761 -280Q763 -280 771 -278L789 -273Q794 -272 799 -271Q806 -268 814 -267Q822 -266 828 -260Q837 -257 846 -254L873 -243Q877 -239 873 -232Q870 -225 873 -222Q870 -213 859 -218Q854 -216 845 -216Q833 -216 828 -213Q828 -202 827 -196Q835 -186 827 -178Q822 -176 824 -169Q826 -163 823 -160Q822 -153 817 -148Q812 -143 808 -138Q808 -133 801 -127Q793 -120 794 -114Q791 -110 791 -105Q790 -101 785 -99Q783 -90 778 -86Q774 -83 766 -75Q759 -67 753 -64Q762 -59 776 -59Q790 -55 794 -55Q796 -53 803 -53Q811 -53 812 -49Q818 -48 818 -41Q826 -37 819 -26Q817 -24 816 -21Q815 -16 812 -16Q799 -16 785 -16Q773 -18 761 -21Q753 -20 744 -23Q736 -25 674 -30Q646 -24 620 -35Q616 -35 609 -38Q600 -43 596 -39Q591 -38 586 -35Q582 -31 575 -37Q570 -46 561 -56Q562 -60 559 -61Q557 -62 554 -60Q551 -64 546 -68Q541 -72 545 -77Q545 -87 544 -97Q542 -102 545 -112Q547 -119 547 -124Q553 -135 561 -159Q567 -164 573 -178Q578 -190 583 -195Q604 -235 619 -245Q627 -246 627 -240Q627 -232 626 -225Q623 -217 622 -206Q624 -200 629 -203Q635 -207 640 -210Q657 -216 673 -223L696 -231Q716 -237 718 -237Q722 -241 719 -243Q713 -245 709 -248Q704 -246 692 -252Q659 -265 621 -276Q607 -282 592 -285Q586 -286 578 -286Q570 -287 566 -280Q566 -276 558 -273Q551 -270 551 -266Q543 -257 535 -248Q532 -236 521 -229Q515 -229 512 -224Q508 -219 505 -215Q493 -201 480 -189Q478 -184 472 -182Q467 -180 465 -178Q466 -174 462 -174Q457 -173 457 -171Q457 -166 452 -163Q447 -161 446 -156L415 -134Q408 -131 401 -128Q399 -131 394 -126Q389 -121 386 -124Q377 -119 367 -114Q365 -115 359 -112Q350 -108 347 -114Q360 -124 372 -134L386 -148Q390 -149 390 -157Q390 -165 396 -164L433 -200Q444 -212 454 -224Q465 -235 475 -247Q479 -252 483 -258L503 -279Q511 -280 513 -291Q515 -295 516 -296L521 -306Q522 -307 524 -311Q538 -333 544 -346Q547 -352 540 -359Q537 -363 538 -364Q542 -365 550 -363Q554 -367 560 -368Q567 -369 570 -363L593 -359Q603 -369 609 -380Q608 -383 612 -389Q617 -396 615 -401Q601 -403 586 -405Q563 -406 540 -407Q550 -412 565 -415Q584 -416 600 -422Q607 -426 613 -431Q620 -437 629 -433Q644 -433 658 -427Q664 -428 673 -424Q682 -420 687 -420Q689 -428 696 -433Q710 -441 724 -450L742 -467Q749 -475 751 -485Q757 -487 758 -493Q760 -499 763 -505Q761 -515 765 -531Q756 -544 741 -544Q726 -543 711 -542Q707 -541 662 -538Q649 -538 636 -538Q623 -533 610 -533Q599 -531 588 -529Q564 -522 534 -510Q498 -498 480 -494Q459 -486 440 -472Q436 -473 435 -468Q433 -462 431 -461Q424 -452 417 -444Q414 -442 412 -435Q412 -431 408 -427Q402 -420 406 -416Q401 -412 394 -412Q390 -410 381 -413Q373 -416 368 -415Q365 -420 358 -427Q349 -435 347 -441Q339 -450 348 -469Q347 -474 352 -480Q357 -487 357 -491Q361 -506 357 -507Q393 -553 416 -575Q425 -585 449 -598ZM189 -582Q199 -581 208 -581Q213 -580 218 -580Q221 -582 225 -579Q229 -576 232 -579Q231 -581 233 -582Q236 -583 240 -582Q241 -580 243 -576Q245 -574 248 -577Q252 -577 257 -581Q261 -585 265 -580Q268 -580 270 -574Q272 -569 277 -571Q280 -566 284 -549Q287 -547 287 -546Q284 -545 277 -543Q273 -542 275 -538Q279 -534 275 -530Q266 -532 263 -527Q256 -529 250 -526Q235 -535 220 -541Q210 -542 202 -549Q196 -548 189 -555Q183 -561 179 -561L162 -577Q171 -578 180 -579Q184 -574 189 -582ZM503 -428H504Q510 -419 510 -415Q517 -408 524 -402Q524 -390 523 -379Q525 -376 525 -359Q514 -348 505 -355Q490 -368 491 -378Q488 -383 484 -389Q480 -407 503 -428ZM181 -397L190 -395L209 -397Q217 -393 223 -396Q232 -398 242 -386Q251 -383 251 -373Q252 -367 245 -361Q240 -357 239 -354Q231 -353 223 -352Q217 -352 214 -343Q211 -334 206 -332Q202 -334 201 -341Q200 -349 197 -351Q150 -366 134 -374Q133 -375 131 -377L122 -382Q121 -383 119 -385Q116 -387 117 -388Q120 -389 124 -391Q128 -387 136 -389Q143 -390 145 -389Q150 -392 163 -393Q175 -394 181 -397ZM267 -209Q272 -209 274 -204Q271 -186 266 -169Q267 -165 264 -158Q259 -150 262 -145Q259 -135 255 -125Q249 -115 247 -99Q243 -91 239 -83Q236 -71 235 -68Q234 -64 229 -60Q226 -58 225 -55Q217 -47 208 -55Q205 -55 201 -60Q197 -66 192 -65Q178 -75 169 -85Q166 -92 162 -100Q158 -108 165 -115Q168 -127 171 -139Q170 -152 179 -167Q181 -177 185 -183Q197 -173 197 -150Q199 -143 198 -135Q197 -126 204 -124Q220 -134 240 -163Q258 -188 267 -209ZM747 -205H742Q710 -203 695 -195Q683 -192 671 -189Q652 -183 631 -193Q623 -196 620 -189Q617 -182 614 -177Q614 -159 610 -145Q608 -142 608 -136Q608 -130 605 -128Q602 -113 599 -98Q596 -80 599 -64Q594 -53 604 -46Q627 -50 650 -55Q670 -57 690 -60Q702 -60 703 -69Q703 -81 718 -85Q722 -98 729 -102Q732 -109 748 -130Q752 -141 758 -150Q762 -158 765 -166Q765 -170 768 -179Q772 -189 771 -194Q771 -203 762 -205Q754 -208 747 -205Z"/>
</svg>