<svg xmlns="http://www.w3.org/2000/svg" viewBox="0 -800 1024 1024">
	<path fill="#000000" d="M338 -661Q381 -661 391 -657Q401 -657 410 -643Q417 -631 420 -619Q417 -602 408 -588Q399 -573 392 -560Q391 -551 379 -535Q366 -518 367 -506Q447 -544 536 -563Q555 -565 585 -560Q617 -549 623 -511Q628 -476 607 -451Q592 -412 560 -399L497 -351Q478 -347 478 -317Q472 -303 468 -288Q464 -273 456 -261Q453 -252 439 -239Q424 -225 420 -214Q414 -207 418 -205Q431 -204 449 -208Q488 -195 526 -185Q581 -163 636 -146Q691 -129 744 -100Q804 -81 813 -43Q825 -37 821 -28Q818 -18 817 -8Q798 4 781 4Q769 4 758 -2Q684 -49 599 -81Q565 -92 493 -124Q435 -150 399 -162Q391 -167 385 -167Q372 -166 362 -155Q351 -144 341 -135Q327 -128 307 -107Q286 -84 274 -78Q258 -71 244 -67Q236 -67 231 -75L274 -116Q307 -169 344 -221Q381 -273 402 -332Q404 -343 389 -355Q379 -363 378 -369Q372 -376 374 -377Q376 -378 381 -373Q428 -373 434 -375Q453 -370 467 -361Q505 -389 523 -427Q529 -444 538 -463Q546 -482 534 -500Q521 -503 495 -492Q476 -484 465 -484Q405 -466 373 -466Q356 -461 338 -466Q323 -447 310 -423Q302 -415 282 -388Q263 -362 247 -349Q238 -355 246 -375Q271 -415 288 -458Q306 -500 323 -542Q325 -554 332 -578Q340 -606 341 -621Q347 -632 339 -641Q335 -646 321 -654Q315 -658 316 -659Q326 -658 338 -661Z"/>
</svg>