<svg xmlns="http://www.w3.org/2000/svg" viewBox="0 -800 1024 1024">
	<path fill="#000000" d="M256 -713L266 -712Q278 -709 293 -712Q298 -708 304 -704Q311 -700 310 -693Q308 -689 311 -681Q314 -674 313 -670Q313 -663 313 -657Q315 -653 313 -644Q310 -632 316 -627Q323 -625 331 -628Q346 -624 343 -609Q344 -602 337 -596Q336 -595 324 -586Q309 -582 313 -555Q312 -536 311 -518Q313 -512 313 -504Q313 -497 318 -491Q328 -482 325 -471Q313 -469 315 -459Q316 -452 312 -438Q313 -433 319 -433Q323 -433 328 -436Q366 -440 381 -431Q388 -426 386 -419Q383 -412 381 -405Q379 -402 371 -399Q361 -395 360 -389Q358 -385 349 -384Q344 -383 341 -381Q330 -377 319 -373Q315 -369 313 -346Q311 -338 314 -328Q309 -317 308 -304Q304 -302 305 -294Q306 -286 302 -283Q297 -281 293 -274Q290 -268 286 -266Q277 -261 272 -274Q253 -287 253 -301Q245 -306 239 -313Q233 -329 238 -342Q245 -352 236 -357Q222 -354 207 -351Q190 -343 163 -343Q142 -343 129 -347Q116 -351 102 -356Q112 -365 133 -370Q155 -380 167 -384Q221 -406 234 -410Q244 -418 241 -433Q241 -441 241 -450Q239 -456 239 -462Q238 -468 232 -470Q224 -472 217 -471Q203 -476 195 -485Q199 -492 209 -494Q213 -498 220 -499Q229 -501 232 -503Q236 -506 238 -513Q240 -520 243 -522Q245 -524 247 -528L250 -534Q250 -547 250 -560Q251 -565 246 -567Q242 -569 239 -565Q228 -564 217 -564Q191 -566 165 -569Q153 -574 143 -576Q135 -581 145 -584Q157 -585 188 -598Q208 -607 245 -618Q252 -620 254 -626Q255 -654 251 -678Q251 -697 233 -699Q229 -701 230 -704Q231 -707 235 -709Q242 -709 256 -713ZM579 -618Q584 -619 588 -620L610 -625Q616 -627 619 -627Q631 -629 642 -632Q654 -633 666 -635Q671 -635 677 -632Q689 -632 700 -627Q706 -624 712 -621Q719 -618 722 -611Q731 -604 733 -590Q741 -583 738 -569Q736 -561 737 -554Q734 -538 733 -520Q731 -507 721 -497Q716 -491 717 -481Q710 -469 709 -455Q709 -451 704 -444Q699 -438 699 -434Q693 -423 693 -409Q683 -394 676 -376Q670 -372 666 -361Q662 -350 656 -347Q651 -342 648 -332Q644 -320 639 -316Q633 -316 629 -308Q626 -302 622 -301Q613 -300 609 -290Q599 -287 588 -284Q569 -268 553 -266Q535 -268 532 -276Q532 -277 526 -298Q524 -305 514 -311Q506 -316 505 -318Q507 -319 523 -319Q532 -324 546 -326Q561 -326 563 -331Q568 -337 578 -334Q587 -339 595 -345Q599 -353 601 -356L614 -379Q617 -384 620 -390Q626 -403 632 -416Q645 -438 651 -461Q665 -485 668 -514Q672 -538 676 -547Q678 -569 677 -575Q675 -583 667 -584Q660 -585 653 -584Q647 -581 635 -579Q618 -576 612 -571Q600 -571 590 -564Q578 -565 570 -557Q564 -558 562 -553Q560 -549 562 -544Q565 -537 562 -530Q559 -523 558 -515L548 -485Q548 -480 543 -469Q537 -456 538 -447Q536 -444 531 -430Q528 -421 524 -412Q522 -405 512 -386Q507 -381 496 -361Q483 -344 473 -326Q471 -321 462 -315Q454 -310 452 -306Q435 -300 420 -289Q416 -289 416 -291Q415 -293 417 -295Q420 -300 423 -306L435 -328Q438 -333 441 -339Q453 -360 464 -382Q474 -401 484 -420Q496 -457 508 -494Q511 -513 516 -531Q517 -540 504 -537Q496 -539 482 -530Q469 -535 452 -527Q443 -531 434 -535Q424 -541 414 -547Q407 -556 418 -562Q438 -567 453 -572Q468 -583 489 -591Q518 -600 547 -609Q552 -609 560 -614Q571 -621 579 -618ZM856 -319Q877 -321 882 -309Q882 -305 886 -303Q890 -302 893 -299Q892 -288 893 -275Q887 -272 885 -264Q881 -261 881 -253Q881 -244 877 -242Q867 -244 857 -234Q852 -234 849 -230Q847 -226 844 -223Q836 -223 825 -212Q814 -209 782 -191Q766 -191 754 -181Q747 -178 739 -174Q731 -170 723 -172Q729 -178 739 -181Q745 -188 757 -197Q775 -211 781 -220Q794 -236 806 -253Q813 -261 810 -267Q784 -258 757 -250Q696 -236 641 -212Q627 -209 617 -197Q615 -192 607 -189Q600 -186 598 -183Q595 -179 588 -180Q582 -181 580 -179Q574 -179 571 -175Q568 -170 565 -165Q550 -169 542 -182Q536 -186 530 -197Q526 -204 522 -208Q518 -215 524 -218Q529 -221 534 -225Q541 -242 535 -247Q534 -253 541 -253Q547 -253 548 -255Q557 -255 561 -247Q564 -239 567 -231Q571 -224 586 -229Q598 -239 622 -248Q652 -258 682 -272Q692 -281 714 -288Q730 -297 751 -299Q759 -298 770 -304Q783 -310 791 -310Q810 -311 828 -317Q841 -313 856 -319ZM341 -215Q347 -213 348 -205Q358 -197 367 -184Q369 -174 376 -165Q381 -153 385 -142Q406 -100 419 -88Q461 -55 481 -47Q485 -47 496 -42Q507 -37 516 -37Q530 -35 544 -33Q554 -31 566 -31Q596 -29 613 -29Q628 -30 642 -31Q657 -30 671 -30Q677 -32 683 -31Q715 -32 746 -31Q755 -30 764 -30Q770 -30 776 -30Q780 -29 781 -33Q783 -37 780 -40Q765 -49 748 -74Q745 -84 731 -98Q723 -110 720 -123Q732 -111 743 -99Q778 -80 813 -53Q823 -48 833 -43Q840 -42 851 -34Q864 -25 873 -24Q887 -17 890 -9Q883 1 876 11Q851 18 844 24Q839 34 829 32Q822 29 809 30Q796 30 790 28L711 27Q702 26 692 25Q642 27 618 27Q617 27 616 26Q616 25 624 26Q629 24 633 23Q633 22 631 21Q610 20 590 21Q584 21 578 21Q566 20 554 19Q550 19 543 16Q536 12 531 14Q511 9 490 4Q469 -3 453 -14Q423 -33 398 -56Q370 -77 353 -120Q349 -134 344 -149Q345 -153 342 -158Q339 -163 336 -160Q323 -146 319 -129Q310 -113 298 -99Q291 -96 289 -89Q288 -82 285 -76Q281 -72 276 -62Q270 -50 264 -46Q241 -45 232 -75Q226 -99 246 -129Q248 -131 283 -167Q305 -190 321 -201Q324 -202 326 -204L336 -212Q339 -213 341 -215Z"/>
</svg>