<svg xmlns="http://www.w3.org/2000/svg" viewBox="0 -800 1024 1024">
	<path fill="#000000" d="M519 -696Q531 -695 543 -695Q558 -696 575 -696Q591 -696 603 -688Q605 -683 614 -679Q623 -675 625 -668Q632 -665 634 -652Q636 -640 642 -635Q640 -631 643 -624Q645 -618 644 -615Q639 -612 637 -600Q636 -592 634 -589Q633 -566 628 -547Q616 -534 613 -514L593 -466Q580 -462 578 -445L565 -412Q566 -408 561 -404Q556 -400 556 -396Q555 -391 548 -391Q541 -391 539 -387Q537 -382 533 -382Q528 -383 523 -389Q519 -395 516 -399Q512 -401 496 -396Q491 -396 483 -394Q470 -359 467 -338Q474 -334 484 -340Q487 -343 516 -353Q528 -362 543 -358Q547 -355 555 -357Q563 -359 567 -356Q573 -356 583 -349Q591 -343 594 -342Q602 -333 609 -323Q611 -306 609 -290Q600 -278 593 -263Q582 -257 576 -232Q570 -224 565 -207Q561 -192 559 -188Q554 -167 549 -146Q545 -127 541 -108Q543 -71 563 -53Q575 -42 616 -25Q642 -21 667 -18Q684 -16 700 -18Q714 -18 727 -18Q731 -20 742 -18Q751 -17 757 -19Q786 -19 796 -23Q816 -23 836 -24Q844 -28 848 -40Q850 -45 852 -59Q852 -68 852 -76Q851 -85 857 -90Q861 -76 869 -71Q875 -60 885 -51Q906 -34 932 -21Q938 -19 946 -15Q953 -12 951 -3Q944 7 937 16Q931 22 923 22Q914 23 906 24Q884 26 862 27Q854 29 845 30Q843 29 826 29Q812 30 798 30Q775 33 727 33Q725 34 720 33Q716 32 714 34L649 29Q641 24 632 23Q617 24 601 17Q590 14 578 10Q511 -19 490 -61Q477 -79 477 -111Q472 -122 480 -130Q479 -143 484 -154Q489 -164 492 -175Q502 -209 516 -245Q527 -279 534 -292Q533 -297 538 -305Q544 -314 541 -319L527 -315Q522 -316 514 -310Q508 -305 503 -306Q492 -299 479 -296Q464 -288 448 -284Q433 -280 433 -257Q434 -252 430 -245Q427 -238 427 -234Q417 -216 409 -197Q400 -188 397 -176Q395 -169 382 -152Q366 -131 364 -127Q361 -118 354 -109Q347 -97 336 -87Q331 -79 323 -74Q317 -74 313 -66Q309 -56 306 -55Q299 -55 295 -49Q291 -44 287 -40Q278 -42 261 -33Q253 -33 260 -44Q266 -54 272 -64Q277 -66 277 -74Q277 -81 281 -84Q288 -96 295 -101Q310 -128 325 -156Q328 -168 335 -177Q336 -183 350 -197Q350 -213 357 -224Q358 -227 360 -231Q364 -237 359 -239Q358 -239 337 -236Q324 -232 311 -228Q300 -228 292 -223Q284 -220 266 -223Q253 -225 245 -224Q221 -233 196 -238Q187 -242 200 -245Q208 -246 219 -251Q234 -257 242 -258Q259 -265 293 -273Q297 -274 337 -288Q359 -297 381 -307Q393 -313 397 -316Q406 -323 407 -332Q410 -344 412 -356Q413 -368 413 -381Q407 -380 382 -388Q376 -394 363 -401Q344 -411 339 -421Q334 -424 335 -435Q337 -446 330 -450Q315 -453 300 -469Q293 -480 289 -508Q284 -531 294 -570Q297 -596 307 -617Q312 -624 318 -641Q326 -662 335 -671Q337 -675 344 -680Q351 -685 353 -690Q359 -696 363 -691Q366 -686 371 -682Q378 -667 384 -652Q388 -647 382 -642Q377 -637 382 -634Q406 -648 430 -659Q457 -675 519 -696ZM543 -646Q521 -641 500 -628Q483 -620 467 -611Q454 -602 444 -603Q436 -599 418 -599Q408 -602 397 -601Q384 -605 374 -613Q366 -616 364 -609Q362 -602 362 -596Q360 -565 356 -553Q357 -547 354 -535Q351 -522 356 -516Q353 -487 377 -466Q382 -462 387 -458Q381 -452 384 -445Q387 -437 387 -430Q390 -425 396 -425Q410 -430 423 -430Q431 -432 453 -437Q467 -445 480 -442Q485 -446 493 -444Q501 -442 505 -444Q515 -442 521 -450Q526 -456 527 -466Q527 -492 535 -515Q543 -538 550 -562Q555 -581 560 -599Q566 -617 564 -637Q567 -646 558 -648Q550 -650 543 -646ZM477 -536Q487 -536 497 -535Q508 -535 516 -526Q511 -518 505 -511Q504 -506 497 -505Q491 -504 489 -499L438 -489Q432 -490 420 -488Q410 -486 404 -489Q386 -492 370 -508Q368 -510 369 -511Q374 -511 380 -514Q395 -516 408 -525Q422 -529 435 -534Q455 -533 477 -536Z"/>
</svg>