<svg xmlns="http://www.w3.org/2000/svg" viewBox="0 -800 1024 1024">
	<path fill="#000000" d="M311 -711Q315 -711 318 -709Q333 -711 334 -701Q337 -697 339 -698Q341 -700 342 -702Q352 -698 357 -693Q359 -679 358 -666Q361 -661 360 -649Q359 -636 362 -631Q361 -618 360 -605Q360 -595 356 -589Q354 -586 356 -578Q358 -569 355 -566Q357 -547 355 -508Q350 -506 352 -496Q354 -488 351 -486Q354 -482 372 -482Q373 -482 392 -479Q400 -480 401 -474Q398 -463 406 -457Q406 -451 403 -449Q400 -446 397 -442Q388 -439 371 -437Q361 -435 351 -433Q348 -417 350 -413Q349 -400 347 -387Q347 -378 341 -373Q340 -362 346 -356Q369 -368 391 -384Q406 -394 420 -401L447 -421Q448 -426 457 -429Q464 -431 465 -436Q469 -441 472 -437Q474 -433 476 -430Q488 -422 481 -412Q478 -414 476 -410Q474 -405 473 -404Q467 -404 464 -401Q463 -399 458 -395Q453 -391 452 -387Q453 -378 459 -386Q460 -381 466 -383Q471 -386 475 -387Q487 -399 501 -406Q516 -412 530 -420Q537 -422 559 -433Q566 -435 567 -442Q569 -448 572 -454Q576 -469 580 -485L593 -539Q597 -562 588 -583Q569 -588 562 -584Q553 -586 561 -590Q568 -592 559 -595Q572 -604 582 -608Q602 -619 613 -615Q620 -620 635 -612Q641 -615 644 -612Q648 -609 652 -608Q659 -594 659 -588Q659 -585 657 -581L654 -573Q656 -569 651 -563Q651 -551 649 -545Q642 -539 643 -528Q637 -514 637 -500Q633 -490 634 -482Q632 -475 629 -468Q634 -462 647 -470Q654 -469 664 -478Q671 -484 676 -486Q678 -487 700 -490Q702 -494 706 -491Q709 -489 711 -492Q728 -492 733 -490Q737 -493 738 -491Q739 -488 740 -483Q741 -480 745 -481Q747 -471 754 -466Q759 -462 767 -457Q775 -452 774 -443Q773 -443 772 -443Q771 -443 772 -442Q776 -437 773 -435Q773 -433 774 -431Q774 -423 769 -424Q755 -412 755 -402Q754 -398 749 -391Q743 -383 744 -377Q737 -368 736 -357Q734 -355 733 -345Q732 -333 725 -330Q724 -324 724 -318Q724 -312 719 -309Q721 -303 714 -293Q709 -286 708 -281Q700 -273 704 -268Q702 -260 699 -254Q692 -232 685 -210Q683 -205 681 -191Q679 -168 682 -150Q688 -137 694 -125Q707 -115 722 -107Q736 -103 750 -100Q757 -97 770 -97Q787 -96 793 -93Q802 -96 817 -94Q821 -97 827 -94Q832 -92 833 -94Q838 -97 848 -96Q857 -95 860 -97Q867 -97 873 -99Q879 -100 884 -95Q894 -99 904 -104Q934 -103 939 -145Q942 -163 946 -192Q953 -177 953 -159Q953 -154 954 -148Q954 -142 959 -143L964 -122Q965 -113 980 -106Q991 -101 995 -96Q1004 -94 1009 -88Q1015 -81 1010 -72Q1003 -72 1002 -67Q1000 -62 997 -58Q987 -60 980 -54Q955 -51 930 -49Q926 -50 917 -49Q906 -48 901 -52Q896 -46 890 -47Q886 -48 877 -46Q868 -44 863 -47Q854 -43 844 -44Q835 -44 826 -45Q808 -46 787 -48Q765 -50 750 -54Q747 -64 734 -57Q720 -64 705 -71Q678 -86 675 -89Q673 -93 662 -102Q649 -114 647 -122Q638 -129 629 -150Q629 -157 629 -165Q628 -168 629 -179Q630 -190 627 -196Q622 -202 625 -209Q629 -215 629 -220Q628 -228 633 -233Q637 -237 643 -243Q637 -248 645 -261Q649 -279 653 -297Q660 -308 663 -317Q681 -358 696 -399Q705 -418 708 -441Q708 -448 704 -447Q699 -443 693 -440Q691 -437 685 -438Q681 -439 679 -436Q674 -436 672 -432Q670 -431 669 -435Q665 -435 661 -430Q656 -425 652 -427Q649 -422 643 -419Q637 -416 635 -424Q630 -426 629 -421Q628 -416 626 -412Q613 -408 607 -402Q607 -396 602 -389Q598 -383 598 -378Q595 -376 593 -365Q591 -355 584 -356Q585 -343 581 -330Q576 -324 574 -314Q573 -304 564 -306Q558 -303 558 -292Q558 -285 555 -281Q573 -272 591 -263Q595 -257 598 -251Q593 -249 595 -245Q596 -244 601 -237Q602 -232 599 -232Q595 -231 593 -235Q589 -236 589 -234Q590 -225 597 -227Q598 -225 597 -224Q594 -224 590 -223Q589 -222 590 -219Q585 -220 579 -217Q572 -214 569 -217Q566 -216 563 -219Q560 -222 557 -221L532 -230Q526 -227 523 -219Q520 -212 516 -205Q516 -201 513 -200Q510 -199 507 -199Q509 -196 505 -193Q501 -190 501 -187Q504 -182 499 -178Q495 -174 496 -170Q479 -155 471 -140Q459 -130 443 -121Q441 -120 439 -121Q440 -121 439 -130Q437 -129 435 -129Q429 -124 412 -120Q409 -122 405 -120Q401 -118 400 -121Q406 -121 406 -124Q406 -128 403 -131Q423 -138 436 -147Q439 -150 445 -164Q451 -177 458 -184Q464 -183 464 -189Q464 -195 466 -198Q467 -201 471 -204Q476 -208 475 -210Q479 -218 482 -226Q488 -228 489 -234Q490 -240 493 -244Q496 -250 490 -252Q483 -254 478 -257Q477 -258 461 -263Q458 -261 454 -262Q452 -263 454 -266Q457 -267 459 -271Q461 -275 462 -276Q467 -275 475 -279Q482 -283 487 -282Q498 -286 509 -285Q520 -302 527 -322Q530 -333 538 -345Q535 -349 539 -356Q542 -361 542 -364Q543 -369 546 -374Q549 -379 545 -382Q528 -376 511 -371Q489 -364 467 -358Q462 -353 456 -355Q450 -357 443 -358Q437 -358 430 -359Q427 -358 423 -360Q420 -362 418 -360Q419 -356 418 -355Q416 -354 414 -352Q411 -349 406 -346Q396 -340 393 -335Q390 -335 387 -331Q384 -328 381 -327Q378 -330 376 -327Q375 -323 373 -322Q371 -316 362 -313Q356 -311 354 -308Q340 -296 341 -286Q343 -280 341 -267Q339 -255 341 -249Q341 -238 341 -227Q342 -210 343 -194Q342 -191 343 -186Q345 -178 341 -178Q338 -174 341 -166Q345 -156 342 -152Q346 -143 338 -135Q341 -131 339 -125Q337 -119 340 -117Q337 -105 334 -93Q328 -89 331 -81Q323 -75 318 -59Q315 -48 312 -44Q312 -42 311 -42Q309 -44 306 -41Q296 -34 288 -42Q282 -49 277 -57Q272 -65 262 -69Q259 -78 256 -88Q247 -94 246 -106Q246 -118 244 -129Q244 -132 245 -133Q249 -131 254 -123Q264 -110 276 -123Q280 -154 282 -185Q283 -199 283 -213Q284 -224 284 -236Q288 -258 280 -254Q276 -255 273 -252Q271 -249 269 -251Q268 -250 264 -244Q261 -240 257 -239Q250 -232 233 -222Q220 -214 213 -208Q206 -205 200 -201Q193 -199 181 -185Q180 -182 174 -181Q169 -180 168 -178Q168 -174 166 -174Q160 -177 154 -181Q149 -189 140 -198Q132 -195 125 -197Q124 -203 132 -210Q137 -215 139 -220Q137 -223 139 -225Q142 -227 142 -229Q148 -230 146 -237Q144 -244 150 -246Q154 -250 161 -246Q167 -243 169 -243Q184 -249 212 -268Q238 -285 253 -292Q262 -299 273 -304Q283 -310 289 -319Q289 -338 289 -358Q292 -402 290 -411Q291 -420 279 -412Q250 -409 247 -410Q238 -407 228 -405Q212 -406 199 -410Q184 -411 169 -416Q164 -414 159 -420Q155 -426 159 -430Q162 -428 165 -430Q169 -433 170 -433Q168 -431 169 -429Q169 -427 173 -426L202 -433Q212 -436 221 -440Q231 -443 240 -446Q281 -462 291 -463Q297 -465 298 -470Q299 -475 302 -479Q300 -482 300 -500Q299 -547 303 -598Q305 -630 304 -664Q307 -674 299 -679Q290 -685 284 -689Q289 -697 299 -700Q300 -704 305 -705Q310 -706 311 -711Z"/>
</svg>