<svg xmlns="http://www.w3.org/2000/svg" viewBox="0 -800 1024 1024">
	<path fill="#000000" d="M206 -697H208Q217 -695 226 -693Q234 -695 242 -692Q244 -688 244 -682Q244 -676 251 -673Q255 -670 253 -665Q250 -660 249 -655Q251 -643 255 -631Q252 -604 251 -600Q247 -597 249 -587Q251 -580 249 -576Q249 -562 249 -548Q248 -532 246 -516Q242 -508 249 -502Q256 -496 265 -500Q280 -504 294 -501Q299 -496 298 -489Q294 -485 287 -467Q276 -461 264 -453Q254 -454 247 -440Q246 -420 244 -401Q241 -397 242 -387Q243 -376 241 -372Q243 -360 242 -346Q247 -341 251 -346Q255 -351 259 -354Q272 -366 284 -376Q288 -378 292 -385Q298 -394 303 -396Q299 -384 296 -378Q287 -366 284 -351Q284 -341 275 -328Q261 -307 247 -286Q241 -279 244 -271Q247 -263 246 -254Q246 -252 245 -250L243 -241Q243 -238 242 -236Q242 -226 242 -217Q239 -209 240 -194Q241 -178 240 -173Q233 -163 240 -148Q241 -134 239 -120Q238 -108 236 -97Q234 -94 234 -87Q233 -77 230 -74Q223 -74 220 -69Q217 -64 215 -59Q212 -56 208 -56Q196 -60 187 -68Q173 -80 164 -94Q160 -104 161 -113Q171 -112 174 -121Q176 -129 178 -137Q181 -159 184 -182Q186 -200 188 -218Q190 -222 188 -226Q186 -230 182 -229L145 -202Q137 -194 128 -187Q118 -181 114 -170Q113 -166 106 -163Q100 -161 98 -158Q92 -150 82 -163Q77 -166 71 -177Q66 -186 61 -189Q57 -199 52 -209Q54 -217 68 -215Q78 -214 82 -216Q106 -237 132 -253Q153 -269 173 -285Q176 -289 195 -301Q203 -314 200 -323Q200 -340 204 -344Q205 -372 203 -398Q202 -409 200 -421Q199 -426 195 -427Q190 -428 187 -425Q181 -419 173 -420Q165 -421 158 -422Q138 -427 117 -432Q113 -433 108 -435Q103 -437 105 -441Q113 -443 121 -445Q151 -460 171 -467Q184 -472 196 -477Q202 -480 203 -485Q204 -490 206 -495Q203 -517 205 -537Q205 -543 203 -552Q200 -564 202 -570Q203 -606 204 -642Q207 -652 204 -659Q201 -668 192 -669Q174 -676 171 -680Q168 -686 173 -688Q179 -690 183 -690Q185 -692 206 -697ZM661 -657Q668 -656 674 -650Q677 -650 681 -647Q686 -643 691 -644Q706 -649 723 -643Q736 -639 748 -636Q760 -638 763 -628Q776 -617 777 -609Q780 -605 773 -599Q766 -592 771 -588Q785 -591 800 -591Q812 -592 825 -593Q838 -594 847 -585Q858 -578 858 -568Q860 -558 849 -556Q846 -556 842 -551Q838 -546 835 -547Q828 -553 810 -548Q784 -541 757 -535Q745 -536 725 -526Q712 -528 706 -520Q700 -511 693 -503Q685 -490 677 -472Q670 -459 667 -444Q665 -434 665 -412Q661 -405 664 -393Q666 -383 666 -378Q665 -368 662 -356Q656 -347 649 -352Q642 -352 639 -357Q636 -361 633 -365Q618 -374 620 -402Q617 -414 620 -425Q624 -436 626 -446Q624 -452 629 -455Q633 -458 637 -461Q659 -490 673 -520Q675 -527 669 -529Q663 -532 658 -533Q656 -535 649 -536Q642 -537 640 -540Q644 -544 665 -551Q672 -552 687 -560Q702 -568 712 -569Q718 -575 726 -575Q734 -576 741 -578Q745 -583 742 -585Q736 -588 730 -586L700 -604Q687 -611 674 -618Q663 -619 658 -628Q653 -632 649 -636Q644 -640 648 -645Q655 -647 661 -657ZM500 -608H501Q519 -604 537 -600Q550 -602 564 -592Q570 -592 574 -583Q577 -577 579 -576Q575 -575 573 -569Q571 -562 576 -559Q576 -553 571 -552Q566 -551 564 -548Q555 -550 551 -544Q549 -541 548 -532Q544 -530 542 -525Q540 -521 537 -522Q528 -519 524 -511Q519 -510 520 -506Q521 -503 524 -500Q528 -494 524 -488Q521 -483 518 -479Q519 -472 511 -470Q499 -467 498 -466Q486 -464 472 -459Q450 -457 436 -450Q432 -432 428 -400Q421 -383 418 -365Q423 -363 426 -354Q428 -348 430 -347Q445 -351 460 -355Q471 -363 508 -367Q533 -368 557 -365Q561 -365 574 -354Q585 -352 582 -339Q578 -340 576 -334Q574 -328 577 -324Q574 -308 564 -296Q561 -296 558 -288Q555 -281 552 -283Q548 -275 544 -268Q535 -256 522 -251Q522 -253 521 -254Q520 -255 519 -254Q517 -252 518 -247Q524 -244 537 -245Q554 -246 560 -242Q565 -241 567 -236Q568 -235 570 -238Q585 -238 585 -226Q573 -228 565 -208Q563 -199 554 -201Q545 -204 538 -204Q520 -204 514 -207Q498 -203 473 -200Q458 -197 442 -198Q434 -198 434 -186Q434 -175 429 -172Q425 -166 417 -171Q415 -167 413 -171Q411 -180 409 -178Q404 -178 399 -183Q394 -188 392 -188Q382 -194 385 -204Q388 -214 386 -223Q390 -249 394 -275Q395 -288 396 -302Q387 -288 377 -275Q375 -268 366 -250Q356 -231 354 -218Q348 -207 343 -196Q338 -185 329 -176Q322 -170 314 -179Q313 -183 309 -183Q305 -182 305 -187Q297 -197 293 -208Q291 -213 288 -219Q285 -225 290 -231Q306 -239 313 -254Q316 -261 320 -268Q325 -275 324 -284Q336 -312 348 -340Q349 -341 361 -375Q387 -427 390 -468Q398 -485 396 -516Q395 -524 401 -539Q404 -548 405 -554Q390 -561 396 -572Q398 -570 403 -572Q407 -574 409 -572Q417 -573 431 -581Q444 -588 453 -590Q457 -594 468 -596Q477 -597 481 -600Q492 -599 500 -608ZM484 -547Q478 -549 470 -542Q463 -537 458 -538Q453 -532 444 -526Q436 -520 436 -510Q435 -505 433 -497Q431 -489 438 -488Q442 -491 451 -494Q464 -498 468 -502Q467 -507 469 -507Q471 -507 476 -507Q486 -514 486 -530Q488 -538 489 -546Q488 -549 484 -547ZM841 -541H847Q851 -541 853 -540Q862 -536 874 -533Q886 -530 886 -517Q886 -511 885 -504Q883 -497 888 -492Q895 -492 895 -484Q887 -473 879 -461Q879 -458 872 -453Q865 -448 865 -443Q853 -431 849 -423Q833 -415 822 -395Q813 -390 808 -382Q781 -358 777 -349Q780 -345 790 -348Q797 -350 801 -349Q814 -354 829 -355Q838 -362 858 -360Q874 -361 889 -360Q892 -354 901 -353Q903 -354 904 -352Q905 -349 904 -346Q897 -333 888 -320Q868 -320 852 -315Q825 -309 823 -309Q813 -309 796 -304Q776 -298 773 -291Q773 -288 784 -267Q786 -260 785 -249Q784 -238 795 -236Q814 -240 833 -244Q838 -250 844 -250Q870 -245 895 -240Q904 -241 906 -228Q917 -217 906 -208Q886 -202 865 -201Q850 -199 835 -197Q815 -196 797 -193Q784 -195 782 -177Q780 -165 782 -151Q781 -136 779 -122Q781 -103 784 -95Q778 -73 780 -60Q781 -41 779 -24Q777 -21 778 -12Q779 -5 777 -1Q772 2 773 8Q773 13 772 18Q767 21 764 30Q762 39 758 41Q752 43 749 38Q746 33 743 29Q738 26 733 18Q728 10 724 8Q718 7 718 1Q718 -3 723 -7Q726 -32 729 -57Q731 -93 730 -112Q730 -130 730 -148Q731 -167 727 -181Q717 -184 706 -181Q703 -180 699 -180L685 -178Q680 -178 678 -177Q670 -177 662 -177Q650 -170 633 -176Q618 -180 603 -184Q615 -191 632 -196Q655 -203 677 -211Q698 -219 724 -221Q734 -222 734 -232Q734 -241 733 -249Q731 -253 732 -260Q733 -269 730 -272Q726 -276 728 -283Q730 -289 728 -291Q715 -294 697 -282Q688 -286 679 -285Q670 -283 663 -286Q656 -290 649 -291Q647 -293 639 -293Q631 -293 630 -298Q654 -305 678 -312Q689 -318 701 -323Q713 -328 722 -337Q752 -374 771 -402Q789 -432 805 -457Q806 -462 811 -471Q816 -480 817 -486Q816 -492 808 -491Q802 -491 800 -493Q802 -498 810 -502Q817 -506 820 -510Q828 -515 834 -528Q839 -539 841 -541ZM506 -330Q494 -327 474 -316Q466 -307 453 -311Q447 -304 445 -287Q443 -273 440 -267Q442 -261 441 -250Q439 -237 441 -232Q451 -230 460 -234Q468 -238 478 -240Q497 -280 516 -319Q520 -324 516 -329Q511 -335 506 -330Z"/>
</svg>