<svg xmlns="http://www.w3.org/2000/svg" viewBox="0 -800 1024 1024">
	<path fill="#000000" d="M560 -639L562 -638Q595 -637 621 -628Q640 -623 653 -607Q652 -602 657 -597Q663 -591 659 -586Q652 -579 645 -572Q642 -572 640 -568Q638 -563 634 -565Q620 -560 602 -568Q575 -579 544 -596Q528 -599 493 -618Q481 -625 468 -632Q489 -631 504 -637Q507 -635 514 -637Q520 -639 523 -637Q542 -638 560 -639ZM209 -590H226Q240 -591 250 -586Q266 -590 281 -586Q288 -581 302 -577Q315 -554 320 -542Q314 -525 299 -525Q297 -524 293 -520Q288 -515 284 -516L249 -525Q229 -533 209 -545Q186 -552 174 -558Q166 -557 163 -561Q159 -566 155 -571Q150 -574 151 -575Q154 -577 159 -580Q177 -582 209 -590ZM841 -584Q865 -584 874 -574Q874 -564 874 -554Q879 -542 872 -536Q864 -525 854 -528Q851 -521 843 -520Q835 -519 828 -518Q812 -510 795 -507Q782 -503 769 -500Q761 -499 749 -493Q737 -491 724 -489Q711 -484 698 -480Q677 -474 655 -469Q645 -465 637 -459Q635 -458 634 -457Q635 -454 647 -453Q681 -438 683 -419Q684 -405 688 -392Q690 -388 688 -379Q685 -367 691 -364Q729 -365 763 -362Q768 -363 778 -359Q786 -356 792 -357Q806 -356 828 -348Q841 -346 849 -338Q851 -331 862 -326Q873 -321 876 -316Q889 -309 882 -296Q880 -282 871 -270Q874 -265 866 -262Q855 -249 841 -254Q820 -258 786 -280Q749 -303 712 -326Q707 -326 701 -330Q692 -335 688 -334Q687 -331 689 -325Q692 -316 688 -311Q681 -279 684 -264Q679 -242 679 -218Q680 -206 680 -195Q679 -180 678 -166Q677 -143 675 -121Q678 -114 675 -105Q676 -94 677 -84Q679 -73 675 -63Q678 -39 674 -18Q670 -8 669 2Q668 12 658 16Q656 22 649 22Q639 22 631 12Q625 -2 616 -8L606 -38Q600 -52 607 -74Q607 -82 607 -91Q609 -114 610 -137Q612 -175 613 -214Q613 -252 616 -270Q615 -279 618 -297Q621 -314 619 -324Q620 -327 620 -345Q621 -358 621 -372Q619 -392 613 -410Q611 -432 592 -438Q585 -438 570 -432Q559 -428 551 -427Q545 -421 524 -414Q503 -409 481 -402Q460 -395 435 -397Q417 -398 398 -399Q375 -402 351 -405Q374 -411 414 -432Q422 -438 432 -441Q440 -441 455 -448Q467 -453 475 -454Q490 -457 502 -465Q526 -475 550 -485Q590 -507 636 -524Q645 -525 653 -530Q664 -534 678 -534Q689 -545 701 -541L724 -551Q730 -549 734 -552Q739 -555 744 -557Q751 -556 761 -561Q769 -565 774 -565Q805 -577 841 -584ZM210 -454Q214 -454 219 -449L226 -441Q244 -440 252 -417Q251 -414 254 -386Q260 -380 252 -367Q245 -363 244 -356Q242 -349 239 -344Q236 -320 232 -296Q226 -276 225 -252Q222 -250 223 -244Q224 -239 220 -237Q225 -212 217 -195Q220 -190 219 -177Q218 -165 223 -159Q226 -140 236 -127Q244 -124 251 -128Q258 -133 265 -137Q330 -197 351 -237Q352 -238 353 -239Q357 -248 362 -245Q355 -227 357 -220Q356 -210 343 -188Q337 -173 323 -154Q312 -137 301 -121Q298 -118 300 -112Q301 -108 299 -106Q296 -95 282 -90Q272 -86 268 -79Q254 -73 234 -82Q211 -81 189 -116Q175 -129 172 -143Q172 -149 167 -159Q161 -173 162 -181Q161 -192 159 -203Q155 -231 159 -257Q161 -275 163 -294Q164 -307 173 -332Q173 -352 177 -367Q185 -390 192 -413Q196 -436 210 -454Z"/>
</svg>