<svg xmlns="http://www.w3.org/2000/svg" viewBox="0 -800 1024 1024">
	<path fill="#000000" d="M262 -681Q273 -683 285 -670Q295 -663 297 -652Q300 -641 303 -629Q303 -627 302 -625L300 -616Q300 -613 299 -611Q297 -593 295 -575Q294 -560 293 -545Q293 -538 291 -531Q289 -523 296 -518Q306 -516 315 -515Q328 -518 338 -508Q344 -499 350 -491Q350 -481 357 -472Q357 -467 353 -467Q348 -466 343 -466Q337 -464 331 -463Q325 -463 322 -457Q319 -452 314 -452Q309 -453 305 -452Q300 -448 295 -445Q290 -441 289 -435Q289 -409 290 -406Q285 -399 287 -382Q289 -371 285 -361Q287 -358 284 -351Q280 -341 287 -339Q293 -341 314 -360Q327 -372 370 -422Q373 -425 377 -433Q380 -441 385 -444Q388 -450 401 -465Q401 -463 399 -451L396 -418Q395 -410 394 -403L393 -402Q388 -384 374 -373Q359 -354 344 -336Q313 -313 292 -285Q281 -278 285 -258Q285 -244 283 -230Q280 -217 284 -203Q281 -188 283 -184Q287 -175 283 -159Q279 -144 281 -137Q276 -126 278 -106Q274 -92 275 -82Q277 -76 275 -68Q272 -59 273 -55Q271 -51 269 -46Q268 -41 262 -40Q255 -43 250 -40Q244 -37 238 -36Q233 -39 227 -49Q222 -58 218 -60Q209 -81 212 -98Q213 -110 212 -124Q211 -137 217 -147Q217 -167 221 -184Q223 -197 224 -211Q227 -230 218 -229Q202 -216 185 -203Q172 -192 158 -185Q151 -180 143 -185Q135 -190 133 -197Q122 -211 116 -225Q116 -228 111 -234Q106 -240 108 -244Q117 -256 126 -268Q142 -288 163 -329Q181 -364 189 -376Q195 -384 199 -392Q203 -401 211 -405Q215 -408 217 -414Q218 -419 212 -419Q201 -412 190 -406Q185 -408 178 -403Q171 -398 167 -400Q164 -403 154 -404Q147 -405 143 -408Q131 -408 91 -418Q87 -421 78 -422Q69 -423 66 -425Q74 -434 88 -432Q109 -439 130 -447Q140 -457 143 -459Q152 -465 159 -460Q164 -464 171 -467Q176 -465 185 -472Q203 -480 220 -489Q234 -489 234 -508Q231 -523 233 -540Q237 -555 237 -570Q238 -607 234 -640Q235 -651 229 -657Q222 -663 217 -669Q213 -673 217 -676Q221 -679 226 -677Q234 -683 246 -678Q254 -679 262 -681ZM618 -679H640Q657 -677 673 -676Q676 -672 687 -671Q701 -669 705 -660Q703 -652 708 -645Q712 -638 716 -631Q711 -623 703 -623Q695 -623 686 -623Q649 -619 636 -626Q623 -629 610 -632Q593 -643 561 -665Q556 -672 561 -674Q571 -677 579 -673Q597 -674 618 -679ZM526 -572Q528 -573 528 -567Q516 -550 516 -546Q516 -537 512 -531Q508 -526 504 -520Q500 -495 484 -474Q482 -455 469 -441Q470 -433 463 -421Q459 -413 458 -408Q456 -400 454 -393Q454 -390 451 -385Q446 -378 450 -374Q469 -386 488 -394Q502 -402 516 -410Q525 -417 543 -427Q585 -445 628 -460Q637 -465 691 -480Q711 -486 731 -492Q748 -495 763 -496L776 -499Q786 -501 791 -501Q822 -506 855 -503Q857 -500 861 -501Q865 -502 867 -499Q882 -495 887 -491Q900 -486 902 -465Q909 -458 911 -449Q910 -437 910 -425Q910 -413 900 -408Q899 -401 895 -398Q890 -396 888 -391Q883 -387 880 -381Q876 -382 874 -376Q872 -369 868 -368Q869 -364 863 -359Q857 -354 857 -350Q855 -348 853 -346L847 -337Q844 -334 843 -332Q840 -328 835 -331Q830 -333 828 -330Q830 -322 824 -319Q819 -317 814 -312Q810 -309 806 -304Q802 -298 796 -299Q788 -292 773 -292Q766 -295 761 -289Q754 -290 747 -291Q742 -292 743 -295Q747 -301 754 -303Q761 -314 771 -318Q778 -327 784 -336Q796 -350 806 -364Q817 -384 828 -404Q838 -412 843 -421Q845 -427 848 -432Q851 -438 848 -444Q847 -454 824 -454Q811 -454 797 -455Q791 -451 781 -456Q777 -451 760 -449Q740 -447 723 -440Q707 -438 694 -434Q651 -423 621 -411Q619 -408 614 -409Q610 -410 609 -408Q585 -398 560 -388Q548 -381 538 -377Q531 -372 523 -367Q513 -366 506 -359Q499 -352 491 -345Q480 -339 471 -331Q466 -332 463 -325Q461 -319 458 -318Q454 -310 450 -303Q450 -299 448 -299Q446 -298 442 -299Q437 -295 432 -299Q427 -303 424 -306Q420 -311 413 -314Q406 -318 405 -330Q404 -341 401 -344Q398 -355 404 -367Q401 -377 408 -401Q415 -409 409 -420Q415 -430 421 -441Q427 -444 430 -450Q432 -457 435 -463Q442 -477 447 -491Q458 -509 468 -528Q479 -530 483 -542Q491 -545 501 -559Q514 -565 526 -572ZM217 -318Q213 -317 212 -311Q211 -306 209 -304Q204 -294 202 -282Q210 -280 216 -290Q220 -298 224 -307Q228 -311 224 -316Q221 -321 217 -318ZM612 -303L631 -283Q644 -283 644 -265Q635 -234 635 -231Q625 -227 628 -214Q624 -213 626 -208Q628 -204 632 -207Q635 -211 643 -217Q664 -240 668 -249Q662 -261 664 -267Q672 -273 684 -277Q687 -280 690 -276Q693 -269 698 -269Q702 -266 715 -263Q729 -260 733 -253Q739 -249 741 -240Q739 -235 739 -228Q740 -222 733 -221Q721 -216 720 -216Q714 -218 710 -214Q706 -210 701 -206Q690 -206 683 -198Q677 -189 669 -182Q656 -184 648 -177Q644 -177 639 -173Q630 -167 624 -168Q613 -144 632 -118Q637 -107 650 -100Q657 -96 674 -91Q706 -80 742 -83Q763 -82 784 -81Q792 -79 800 -79Q809 -79 813 -73Q812 -67 815 -64Q816 -63 823 -59Q829 -57 826 -49Q824 -42 825 -40Q812 -35 789 -37Q786 -36 780 -36H774Q768 -36 765 -35Q701 -35 676 -41Q662 -46 648 -52Q647 -54 641 -55Q636 -56 634 -59Q619 -62 607 -76Q590 -84 576 -112Q566 -147 566 -158Q564 -178 570 -186Q571 -204 574 -220Q579 -236 579 -240Q588 -250 590 -262Q595 -276 602 -289Q598 -301 612 -303Z"/>
</svg>