<svg xmlns="http://www.w3.org/2000/svg" viewBox="0 -800 1024 1024">
	<path fill="#000000" d="M324 -345Q316 -346 317 -350Q317 -355 326 -356Q356 -362 385 -369Q411 -376 436 -383Q445 -384 471 -393Q501 -403 512 -404Q522 -408 543 -413Q552 -413 553 -420Q555 -427 556 -434Q559 -452 561 -470Q561 -475 558 -475Q553 -473 548 -477Q542 -479 536 -482Q529 -485 525 -478Q497 -480 488 -488Q466 -494 453 -518Q451 -528 447 -538Q444 -548 449 -557Q452 -572 456 -585Q463 -602 474 -614Q487 -628 503 -630Q510 -622 516 -614Q525 -612 538 -616Q553 -620 559 -619Q568 -622 577 -625Q587 -629 587 -636Q587 -643 587 -651Q587 -674 588 -697Q588 -721 583 -741Q579 -746 572 -751Q566 -756 570 -761L575 -759Q581 -755 593 -755Q608 -754 613 -750Q624 -752 631 -746Q636 -745 640 -742Q645 -738 646 -732Q652 -716 648 -683Q646 -674 643 -666Q639 -659 644 -649Q649 -639 658 -645Q674 -648 690 -646Q707 -649 723 -651Q733 -648 744 -649Q754 -650 760 -641Q774 -639 778 -632Q788 -620 785 -607Q787 -597 782 -589Q778 -581 774 -574Q772 -563 762 -558Q753 -553 747 -545Q741 -546 732 -538Q725 -532 721 -531Q719 -529 719 -523Q718 -513 712 -512Q703 -513 693 -508Q685 -504 681 -504Q643 -492 620 -486Q617 -473 614 -460Q615 -456 612 -450Q608 -441 612 -437Q619 -438 647 -447Q689 -460 731 -473Q747 -476 762 -479Q781 -484 800 -487Q810 -487 820 -487Q827 -489 829 -484Q831 -477 833 -471Q835 -464 830 -460Q826 -457 817 -455Q797 -446 785 -446Q769 -438 750 -432Q727 -425 704 -419Q672 -409 640 -400Q634 -398 634 -393Q634 -389 640 -386Q647 -385 651 -374Q654 -365 659 -364Q686 -375 714 -386Q741 -398 771 -402Q780 -402 789 -402Q804 -402 806 -401Q809 -399 815 -398Q824 -397 828 -392Q845 -383 848 -363Q854 -360 855 -348Q855 -339 858 -336Q863 -316 860 -295Q863 -291 858 -284Q855 -279 855 -276Q848 -258 845 -242Q840 -232 836 -219Q831 -206 831 -198Q829 -175 819 -152Q817 -135 807 -118Q807 -112 798 -104Q790 -97 789 -93Q783 -94 775 -86Q767 -77 760 -78Q757 -85 747 -81Q740 -78 738 -80Q735 -79 730 -79L725 -80Q720 -80 717 -79Q725 -90 736 -99Q756 -112 762 -132Q769 -141 775 -151Q788 -203 796 -241Q789 -264 799 -286Q802 -332 799 -341Q799 -352 794 -360Q787 -370 776 -369Q734 -357 694 -343Q691 -343 686 -338Q680 -333 677 -336L648 -343Q638 -346 634 -338Q629 -330 623 -325Q605 -284 598 -254Q594 -251 594 -241Q594 -230 589 -226Q591 -211 582 -197Q577 -180 575 -142Q576 -125 573 -113Q562 -89 558 -85Q553 -84 546 -91Q542 -95 538 -96Q515 -115 514 -133Q519 -138 515 -154Q520 -181 525 -208Q536 -259 558 -304Q561 -315 573 -337Q584 -356 587 -367Q589 -371 594 -375Q600 -381 594 -385Q567 -377 540 -370Q482 -358 451 -347Q449 -348 435 -342Q422 -336 418 -338Q406 -327 390 -331Q375 -327 367 -332Q358 -332 348 -339Q338 -339 324 -345ZM705 -614Q668 -609 664 -607Q647 -605 638 -592Q634 -565 632 -535Q635 -534 656 -537Q682 -537 698 -560Q716 -588 723 -605Q727 -612 720 -614Q712 -616 705 -614ZM232 -594Q248 -594 250 -593Q262 -595 279 -584Q285 -585 286 -579Q287 -574 289 -569Q294 -565 291 -560Q288 -555 285 -550Q284 -542 268 -537Q256 -541 243 -545Q234 -551 212 -560Q205 -566 188 -570Q183 -572 184 -575Q187 -579 192 -579Q203 -588 232 -594ZM516 -590Q513 -585 513 -575Q511 -555 505 -536Q499 -528 506 -518Q513 -509 523 -508Q529 -505 536 -505Q546 -505 562 -512Q571 -513 573 -521Q575 -528 576 -535L577 -583Q570 -586 565 -583Q559 -580 553 -579Q543 -575 534 -583Q526 -589 516 -590ZM187 -402Q192 -402 193 -401Q201 -396 205 -385Q213 -377 217 -364Q220 -357 215 -352Q209 -347 206 -341Q201 -338 199 -327Q199 -315 190 -301Q190 -277 184 -264Q181 -253 183 -241Q183 -228 183 -215Q182 -202 183 -189Q183 -179 186 -169Q184 -161 190 -147Q188 -140 196 -128Q202 -119 212 -127Q228 -141 243 -155Q256 -172 271 -189Q277 -197 282 -206Q285 -207 289 -214Q294 -222 298 -223Q302 -224 302 -221Q301 -215 297 -205Q294 -193 288 -181Q281 -172 276 -161Q278 -156 270 -149Q264 -143 264 -138Q260 -132 258 -128L245 -110Q243 -106 239 -100Q233 -90 224 -80Q217 -68 203 -72Q179 -84 167 -96Q153 -111 145 -134Q139 -140 137 -154Q135 -164 134 -167Q134 -192 140 -202Q138 -223 139 -242Q136 -255 138 -265Q141 -271 140 -283Q139 -293 140 -296Q144 -309 148 -322Q151 -332 154 -342Q157 -378 187 -402ZM681 -175Q702 -165 722 -156Q747 -144 737 -134Q736 -128 727 -125Q719 -123 717 -119Q688 -96 673 -67Q683 -59 692 -64Q701 -62 732 -62Q743 -59 754 -56Q759 -59 770 -56Q777 -54 782 -55Q788 -52 801 -52Q816 -52 823 -49Q837 -48 851 -42Q860 -42 868 -40Q882 -34 895 -28Q917 -23 925 -9Q917 -4 916 10Q915 20 912 25Q902 28 888 28Q867 28 855 20Q829 8 799 0Q790 -5 776 -9Q715 -20 696 -28Q682 -32 668 -41Q661 -45 651 -45Q632 -45 623 -30Q620 -30 611 -26Q598 -19 595 -23Q587 -23 583 -25Q580 -29 576 -29Q569 -29 559 -14Q554 -13 548 -11Q543 -10 543 -16Q548 -23 573 -46Q589 -61 599 -72Q642 -112 664 -149Q668 -156 656 -161Q646 -165 646 -169Q650 -172 662 -170Q676 -168 681 -175Z"/>
</svg>