<svg xmlns="http://www.w3.org/2000/svg" viewBox="0 -800 1024 1024">
	<path fill="#000000" d="M512 -713Q526 -713 527 -712Q534 -712 540 -712Q552 -708 563 -711Q580 -711 593 -702Q604 -703 617 -699Q626 -698 630 -691Q635 -684 639 -678Q648 -680 646 -665Q650 -658 644 -650Q638 -642 629 -644Q625 -647 616 -645Q607 -643 603 -646Q579 -650 560 -663Q556 -666 551 -667Q546 -668 544 -673Q527 -675 521 -684Q505 -687 494 -699Q489 -703 484 -708Q483 -710 487 -711Q501 -710 512 -713ZM719 -639L720 -638Q734 -635 744 -639Q756 -639 770 -637Q773 -638 777 -632Q780 -627 783 -628Q787 -628 787 -626Q786 -623 781 -619Q780 -610 779 -601Q770 -594 758 -594Q754 -592 747 -592Q736 -593 732 -588Q716 -585 699 -583Q694 -579 680 -578Q667 -576 661 -573Q671 -565 683 -565Q685 -553 687 -541Q691 -534 690 -519Q689 -510 691 -503Q693 -498 688 -492Q684 -487 684 -485Q686 -476 688 -468Q693 -466 716 -469Q725 -475 744 -471Q771 -471 803 -461Q812 -458 822 -456Q831 -455 837 -446Q844 -438 847 -433Q852 -425 848 -418Q849 -414 846 -413Q842 -412 841 -408Q838 -409 834 -406Q830 -403 827 -404Q821 -406 818 -403Q814 -399 810 -398Q803 -401 799 -395Q794 -390 790 -386Q787 -389 783 -397Q778 -408 773 -411Q759 -429 739 -437Q731 -443 718 -448Q701 -454 695 -460Q689 -462 688 -455Q686 -445 685 -444Q687 -425 682 -407Q679 -404 682 -399Q685 -394 684 -391Q684 -371 684 -351Q684 -342 684 -333Q686 -317 679 -300Q678 -286 665 -289Q662 -286 659 -289Q655 -292 652 -290L628 -315Q623 -316 624 -323Q625 -329 623 -331Q625 -338 621 -350Q627 -362 629 -379Q629 -399 634 -431Q640 -466 640 -480Q641 -483 641 -489L642 -506Q643 -510 643 -515Q644 -526 647 -537Q650 -548 646 -559Q641 -563 639 -568Q637 -571 633 -567Q622 -566 610 -566Q587 -562 567 -555Q571 -542 583 -533Q585 -528 589 -523Q594 -519 592 -514Q597 -502 594 -488Q592 -479 589 -471Q589 -459 585 -448Q586 -434 581 -418Q579 -414 577 -407Q575 -398 571 -394Q572 -387 565 -376Q560 -368 560 -363Q554 -351 547 -339Q544 -338 540 -334Q536 -330 532 -333Q524 -330 519 -341Q519 -344 512 -349Q503 -356 507 -362Q507 -378 509 -383Q521 -391 527 -412Q544 -449 547 -487Q553 -499 546 -527Q541 -535 536 -544Q530 -552 519 -550Q498 -545 478 -549Q474 -547 464 -549Q456 -551 451 -549Q435 -553 419 -557Q417 -559 412 -561Q408 -563 411 -567Q432 -571 453 -576Q496 -585 523 -592Q530 -591 539 -594Q570 -599 577 -602Q592 -603 610 -610Q618 -611 625 -612Q636 -615 647 -618Q699 -629 719 -639ZM234 -617Q241 -616 248 -613Q254 -610 261 -614Q265 -613 268 -613L282 -612Q287 -612 289 -611Q298 -601 308 -598Q314 -597 316 -587Q317 -580 320 -577Q318 -567 308 -561Q303 -560 274 -560Q242 -565 237 -567Q213 -576 188 -585Q184 -588 178 -590Q173 -592 170 -597Q194 -601 201 -607Q207 -615 216 -615Q225 -615 234 -617ZM504 -466Q507 -466 517 -460Q521 -461 522 -455Q522 -451 519 -448Q514 -440 511 -430Q505 -420 498 -411Q497 -407 490 -403Q484 -400 482 -396Q474 -388 472 -377Q471 -369 465 -369Q460 -369 455 -373Q451 -374 451 -378Q451 -383 450 -387Q445 -392 442 -404Q440 -413 436 -418Q433 -422 435 -424Q439 -426 442 -431Q449 -431 460 -444Q469 -449 479 -449Q483 -457 490 -459Q498 -461 504 -466ZM176 -439Q181 -436 186 -434Q186 -432 191 -427Q195 -422 194 -419Q193 -413 195 -394Q192 -380 189 -367Q179 -355 175 -343Q173 -332 168 -324Q162 -310 159 -297Q154 -293 155 -288Q156 -283 154 -277Q151 -252 148 -228Q142 -217 142 -204Q143 -191 142 -177Q145 -165 144 -154Q144 -133 148 -126Q149 -114 151 -103Q153 -92 164 -86Q180 -95 196 -105L250 -162Q256 -171 262 -174Q263 -159 263 -145Q255 -137 252 -131Q245 -124 247 -117Q251 -113 245 -107Q240 -102 240 -100Q236 -97 232 -88Q228 -80 223 -77Q219 -67 214 -58Q198 -36 185 -43Q170 -43 158 -52Q134 -59 124 -77Q114 -91 108 -105Q98 -123 98 -144Q97 -165 94 -185Q95 -193 95 -209Q96 -211 97 -214L100 -225Q102 -229 102 -230Q102 -246 103 -262Q102 -273 108 -283Q114 -309 120 -335Q126 -360 131 -386Q133 -398 141 -406Q149 -415 156 -425Q174 -430 176 -439ZM624 -273H631Q640 -270 650 -267Q659 -265 665 -255Q667 -248 679 -246Q690 -246 706 -250Q713 -249 726 -253Q738 -257 745 -255Q751 -256 783 -256Q799 -259 811 -248Q818 -247 818 -241Q819 -236 816 -230Q816 -226 813 -225Q808 -224 808 -219Q802 -212 792 -214Q791 -210 785 -210Q780 -210 779 -209Q764 -208 748 -207Q729 -205 710 -204Q706 -202 699 -201Q687 -200 684 -195Q694 -183 720 -169Q737 -161 753 -153Q758 -148 780 -139Q782 -136 789 -134Q795 -132 798 -129Q818 -120 837 -112Q854 -107 867 -100Q881 -97 907 -77Q907 -73 911 -68Q915 -64 909 -60Q907 -55 902 -57Q896 -59 893 -57Q884 -54 874 -58Q869 -55 858 -57Q850 -59 846 -58Q831 -55 810 -68Q798 -71 791 -81Q786 -80 774 -88Q767 -92 762 -94Q757 -100 747 -106Q734 -114 731 -118Q723 -118 718 -126Q702 -133 691 -140Q684 -134 686 -120Q684 -99 682 -78Q679 -67 678 -54Q680 -33 670 -19Q670 -11 663 2Q658 11 657 16Q658 23 651 31Q645 38 645 43Q639 51 633 59Q627 63 623 59Q620 55 616 51Q616 45 606 38Q604 30 602 21Q603 17 597 12Q593 8 593 5Q616 6 620 -19Q627 -48 633 -78Q633 -90 633 -102Q635 -117 637 -132Q638 -147 635 -157Q625 -155 607 -143Q602 -137 593 -131Q584 -130 580 -123Q575 -118 561 -108Q557 -95 538 -93Q528 -79 521 -73Q511 -72 504 -68Q499 -72 495 -69Q490 -66 486 -65Q485 -75 492 -82Q499 -89 506 -95Q517 -109 529 -123Q545 -144 566 -164Q577 -173 587 -184Q584 -189 578 -187Q572 -185 568 -185Q528 -179 508 -175Q495 -174 482 -173Q470 -168 451 -176Q447 -176 441 -180Q433 -185 427 -184Q419 -193 409 -199Q409 -204 411 -204Q419 -200 426 -202Q434 -200 454 -206Q466 -210 473 -210Q477 -211 526 -222Q530 -221 545 -224Q559 -225 572 -227Q581 -222 585 -229Q589 -227 595 -230Q601 -233 604 -230Q615 -232 625 -235Q634 -236 632 -244Q630 -251 624 -257Q618 -262 624 -273Z"/>
</svg>