<svg xmlns="http://www.w3.org/2000/svg" viewBox="0 -800 1024 1024">
	<path fill="#000000" d="M511 -677L517 -675Q521 -672 529 -672Q540 -672 544 -669Q548 -665 559 -663Q570 -661 575 -657Q581 -648 579 -637Q579 -625 577 -603Q574 -586 576 -570Q575 -564 580 -569Q583 -575 588 -576Q593 -578 597 -580Q602 -581 610 -587Q622 -596 631 -595Q645 -597 663 -594Q669 -596 679 -589Q694 -594 706 -580Q716 -574 717 -573Q723 -567 720 -561Q713 -558 720 -550Q721 -544 716 -542Q712 -541 708 -540Q702 -532 687 -523Q678 -517 673 -513Q655 -505 638 -492Q634 -492 626 -486Q617 -479 611 -480Q597 -472 591 -460Q590 -456 582 -452Q575 -448 574 -443Q565 -419 556 -395Q554 -389 551 -385Q547 -379 543 -382Q534 -386 530 -376Q523 -372 520 -377Q517 -383 514 -388Q513 -393 509 -398Q505 -402 507 -408Q508 -416 502 -421Q500 -426 504 -428Q508 -430 511 -433Q516 -455 521 -478Q520 -490 524 -510Q519 -523 508 -506Q480 -476 479 -456Q475 -446 475 -435Q470 -431 461 -431Q453 -431 443 -435Q433 -448 430 -462Q426 -469 429 -476Q432 -483 435 -488Q438 -498 453 -518Q464 -529 479 -541Q483 -543 484 -540Q485 -533 483 -527Q473 -513 483 -513Q498 -531 510 -540Q529 -551 524 -573V-605Q524 -619 524 -633Q525 -648 522 -661Q514 -669 511 -677ZM229 -581Q237 -575 245 -569Q246 -562 257 -555Q268 -548 269 -542Q271 -539 269 -531Q267 -523 269 -519Q274 -512 273 -505Q272 -497 273 -489Q270 -484 276 -475Q279 -469 279 -466Q286 -461 294 -462Q301 -455 320 -455Q327 -455 334 -457Q341 -459 347 -455Q355 -458 367 -452Q375 -445 374 -435Q374 -424 373 -413Q367 -411 360 -408Q353 -406 348 -413Q338 -419 324 -420Q299 -415 292 -413Q281 -410 270 -407Q268 -401 268 -369Q271 -365 267 -355Q264 -347 266 -342Q266 -315 265 -288Q265 -274 266 -264Q266 -239 263 -234Q266 -219 265 -204Q266 -185 264 -166Q262 -163 262 -155Q263 -146 259 -143Q267 -137 259 -123Q262 -116 259 -110Q256 -103 247 -105Q226 -126 215 -139Q212 -145 204 -159Q201 -183 210 -208Q212 -215 213 -223Q215 -276 219 -300Q226 -338 227 -374Q228 -377 225 -379Q222 -381 219 -378Q210 -371 201 -364Q194 -361 189 -349Q183 -345 177 -336Q171 -328 168 -326Q169 -322 163 -318Q159 -315 158 -312Q158 -305 154 -300Q149 -295 146 -289Q144 -287 145 -282Q147 -274 143 -271Q143 -267 140 -266Q137 -266 134 -266Q112 -279 92 -307L94 -329Q93 -336 98 -347Q102 -355 102 -360Q110 -386 123 -410Q129 -417 134 -425Q133 -439 147 -443Q153 -451 161 -437Q169 -424 163 -400Q158 -384 158 -366Q157 -359 153 -353Q149 -347 154 -341Q164 -344 171 -352Q177 -360 184 -367Q201 -384 226 -399Q230 -406 230 -422Q230 -434 232 -440Q231 -489 237 -545Q237 -552 233 -562Q228 -575 229 -581ZM616 -557Q609 -557 598 -548Q591 -542 587 -541Q581 -541 579 -536Q577 -531 580 -526Q578 -502 575 -491Q572 -484 572 -474Q577 -467 587 -484Q606 -509 626 -523Q643 -537 639 -546Q638 -554 630 -557Q623 -560 616 -557ZM274 -450Q267 -445 269 -436Q272 -429 279 -434Q285 -436 283 -444Q281 -452 274 -450ZM790 -435Q796 -436 806 -431Q831 -436 855 -428Q866 -420 880 -416Q885 -412 909 -388Q911 -382 912 -374Q918 -371 920 -363Q921 -356 923 -350Q924 -336 925 -322Q925 -303 925 -285Q923 -272 925 -256Q922 -242 919 -229Q912 -213 910 -195Q907 -182 901 -170Q901 -160 895 -142Q886 -129 882 -111Q882 -105 877 -101Q872 -98 869 -93L859 -68L841 -47Q840 -43 832 -39Q827 -36 825 -33Q819 -21 810 -13Q804 -17 797 -28Q791 -38 787 -41Q785 -46 778 -50Q771 -54 770 -57Q766 -60 762 -63Q757 -66 762 -71Q795 -77 807 -93Q819 -111 826 -130Q829 -135 839 -158Q839 -163 850 -192Q853 -198 855 -212Q855 -218 860 -248Q866 -308 854 -360Q850 -385 827 -391Q804 -394 780 -391Q778 -390 776 -390L769 -388Q766 -388 765 -387Q750 -387 737 -383Q732 -380 726 -378Q699 -373 698 -372Q690 -370 681 -368Q664 -362 647 -356Q638 -355 620 -349Q610 -344 599 -340Q589 -340 578 -333Q563 -331 555 -325Q537 -320 519 -315Q512 -311 503 -311Q492 -311 478 -317Q467 -320 459 -317Q432 -284 429 -263Q424 -259 422 -239Q422 -221 415 -205Q409 -191 407 -146Q408 -142 405 -115Q404 -108 397 -107Q391 -105 386 -110Q376 -115 370 -123Q365 -132 360 -140Q352 -149 350 -169Q350 -184 352 -196Q358 -218 372 -246Q384 -292 417 -330Q421 -336 424 -341Q428 -347 434 -350Q438 -355 445 -351Q451 -348 450 -341Q443 -330 453 -324Q466 -335 484 -340Q501 -348 519 -354Q522 -358 530 -360Q540 -362 542 -365Q545 -372 551 -371Q557 -371 563 -372Q571 -380 609 -393Q635 -402 659 -408Q686 -418 709 -422Q716 -425 738 -429Q755 -431 772 -433Q775 -433 777 -434H786Q787 -435 790 -435ZM634 -306H641Q659 -304 677 -303Q687 -294 697 -285Q704 -277 701 -266Q700 -255 695 -248Q689 -233 679 -220Q675 -214 669 -210Q663 -205 662 -197Q666 -191 674 -191Q682 -191 689 -189Q691 -179 689 -167Q674 -157 667 -157Q653 -159 638 -162Q629 -162 619 -162Q597 -163 578 -168Q566 -172 562 -157Q560 -157 554 -154Q547 -150 543 -153Q530 -161 518 -169Q505 -178 501 -192Q501 -230 517 -259Q523 -266 527 -274Q532 -282 539 -288Q539 -292 542 -295Q544 -296 545 -292Q546 -291 546 -288L545 -285Q545 -282 546 -280Q545 -271 557 -280Q589 -296 614 -302Q626 -302 634 -306ZM637 -271L628 -268Q601 -261 597 -258Q586 -252 571 -254Q561 -255 553 -253Q545 -252 546 -246Q546 -240 545 -234Q542 -216 546 -198Q547 -194 547 -188Q547 -179 556 -179Q574 -187 595 -189Q611 -189 616 -194Q622 -204 634 -236Q638 -248 642 -260Q644 -263 642 -268Q640 -273 637 -271Z"/>
</svg>