<svg xmlns="http://www.w3.org/2000/svg" viewBox="0 -800 1024 1024">
	<path fill="#000000" d="M684 -603L693 -593Q697 -594 703 -591Q710 -588 714 -590L732 -581Q744 -576 748 -555Q750 -544 753 -533Q757 -523 752 -512Q757 -500 751 -487Q748 -477 745 -468Q742 -464 744 -457Q745 -450 744 -447Q751 -421 741 -409Q736 -406 737 -401Q738 -396 737 -392Q742 -377 737 -363Q739 -356 735 -350Q731 -344 730 -339Q734 -334 734 -322Q734 -313 737 -309Q757 -323 768 -316Q774 -320 793 -320Q800 -324 805 -320Q819 -327 834 -329Q842 -324 851 -322Q855 -324 857 -322Q859 -319 861 -317Q866 -318 866 -314Q867 -309 871 -309Q873 -307 877 -307Q883 -307 886 -302Q873 -294 871 -280Q858 -276 859 -281Q859 -285 858 -286Q856 -287 854 -286Q847 -282 850 -275Q849 -270 846 -271Q842 -274 838 -276Q835 -277 833 -274Q834 -265 826 -264Q817 -263 812 -259Q808 -259 797 -255Q784 -250 776 -252Q775 -250 774 -250Q771 -254 769 -253Q768 -246 762 -245Q756 -243 750 -241Q744 -242 741 -235Q739 -231 737 -223Q740 -208 746 -193Q760 -162 814 -137Q822 -127 833 -134Q850 -125 869 -119Q876 -116 886 -114Q904 -111 911 -105Q917 -105 918 -99Q919 -94 921 -90Q927 -95 932 -90Q936 -88 935 -85Q932 -81 929 -77Q927 -74 932 -72Q938 -73 940 -71Q941 -69 941 -64Q940 -51 942 -49Q939 -47 935 -52Q934 -52 933 -50Q934 -43 925 -40Q917 -37 914 -44Q911 -49 907 -46Q902 -43 899 -46Q895 -43 887 -49Q881 -53 877 -53Q874 -50 869 -54Q863 -58 859 -54Q833 -60 826 -71Q824 -76 818 -72Q813 -69 810 -74Q780 -89 765 -99Q760 -101 751 -109Q742 -117 735 -118Q716 -133 699 -152Q686 -173 678 -196Q676 -202 674 -209Q671 -217 664 -212Q646 -204 611 -200Q597 -196 568 -190Q532 -183 515 -176Q478 -164 474 -164Q471 -168 466 -163Q460 -157 456 -159Q448 -153 435 -151Q433 -149 425 -148Q416 -147 414 -144Q393 -135 385 -134Q382 -136 380 -133Q378 -130 375 -130Q339 -119 337 -118Q320 -111 303 -105Q298 -104 293 -100Q288 -97 284 -101Q276 -91 260 -89Q242 -86 224 -83Q213 -80 201 -82Q190 -79 179 -76Q171 -75 162 -74Q158 -77 145 -80Q132 -83 126 -88Q117 -93 107 -110Q101 -120 96 -125Q90 -141 87 -158Q93 -186 100 -199Q108 -212 112 -228Q116 -240 119 -253Q133 -259 135 -259Q137 -265 142 -273Q151 -285 150 -293Q147 -297 150 -300Q153 -303 152 -306Q165 -322 177 -340Q189 -322 200 -305Q202 -300 209 -292Q216 -285 217 -281Q223 -281 224 -276Q226 -269 225 -262Q223 -255 222 -247Q221 -238 214 -235Q203 -219 192 -203Q192 -198 186 -192Q181 -187 180 -183Q177 -180 177 -176L176 -171Q176 -167 173 -164Q175 -158 173 -152L169 -140Q177 -136 187 -139Q197 -142 206 -143Q262 -159 290 -169Q301 -171 307 -174Q316 -179 314 -188Q310 -201 316 -214Q312 -226 316 -245Q316 -257 318 -266Q324 -327 326 -387Q328 -396 326 -416Q324 -433 326 -442Q325 -475 324 -509Q323 -521 309 -529Q290 -539 286 -545Q285 -558 279 -572Q279 -577 281 -577Q287 -576 295 -569Q299 -569 324 -556Q331 -556 351 -547Q357 -546 365 -538Q371 -532 375 -530Q376 -526 385 -498Q387 -476 385 -452Q386 -438 390 -428Q387 -420 390 -406Q394 -389 391 -382Q383 -377 387 -369Q390 -362 391 -356Q395 -350 393 -338Q392 -326 395 -322Q398 -312 396 -286Q395 -264 398 -252Q387 -230 395 -208Q394 -201 400 -201Q407 -201 411 -206Q468 -227 479 -229Q492 -232 494 -233Q501 -236 499 -245Q488 -265 497 -293Q505 -300 505 -320Q505 -347 501 -370Q506 -369 512 -363Q517 -357 521 -356Q527 -352 533 -347Q536 -346 537 -351Q544 -362 556 -389Q568 -415 577 -429Q579 -440 591 -458Q599 -470 601 -476Q612 -484 624 -505Q633 -522 639 -528Q644 -537 652 -546Q661 -556 659 -568Q661 -571 661 -581Q661 -595 668 -598Q670 -602 676 -600Q682 -597 684 -603ZM681 -537Q664 -517 646 -500Q636 -484 622 -470Q613 -458 604 -446Q593 -432 583 -417Q581 -410 569 -386Q559 -365 548 -345Q543 -341 546 -338Q551 -334 555 -329Q556 -323 560 -318Q564 -312 559 -307Q564 -285 564 -265Q561 -259 565 -252Q569 -246 576 -252Q592 -256 660 -281Q669 -280 671 -294Q666 -340 675 -376Q675 -393 680 -439Q685 -491 684 -523Q686 -527 685 -532Q685 -537 681 -537Z"/>
</svg>