<svg xmlns="http://www.w3.org/2000/svg" viewBox="0 -800 1024 1024">
	<path fill="#000000" d="M593 -788H604Q615 -787 627 -787Q639 -787 648 -778Q654 -770 658 -760Q655 -755 658 -744Q661 -735 660 -729Q663 -719 661 -696Q661 -681 660 -667Q657 -657 658 -645Q661 -641 665 -641Q676 -643 686 -645Q700 -640 705 -633Q711 -624 704 -612Q707 -602 699 -596Q692 -598 672 -591Q660 -592 658 -577L657 -540Q654 -534 657 -530Q659 -526 667 -527Q678 -531 681 -520Q681 -517 685 -514Q690 -511 689 -507Q688 -502 689 -496Q690 -491 685 -489Q676 -489 675 -479Q674 -473 667 -473Q653 -476 650 -462Q649 -455 639 -445Q631 -437 629 -432Q629 -427 635 -427Q642 -428 647 -427Q663 -429 679 -432Q708 -438 736 -444Q742 -443 790 -446Q795 -447 796 -442Q798 -435 800 -433Q808 -429 804 -421Q802 -417 794 -409Q788 -406 781 -403Q768 -404 754 -401Q743 -400 731 -399Q717 -399 705 -395Q693 -392 680 -390Q657 -385 627 -383Q603 -377 591 -378Q575 -378 562 -373Q545 -370 528 -368Q524 -369 515 -365Q499 -359 482 -356Q475 -354 467 -352Q455 -353 448 -349Q426 -344 420 -347Q404 -355 387 -355Q381 -356 375 -357Q372 -359 375 -362Q390 -366 404 -371Q425 -378 520 -402Q548 -408 560 -414Q566 -422 564 -430L574 -460Q575 -466 579 -471Q582 -476 578 -481Q567 -489 555 -489Q545 -493 536 -495Q533 -497 530 -499Q527 -500 528 -503Q544 -511 562 -516Q575 -520 587 -525Q590 -537 593 -550Q594 -556 591 -561Q587 -567 582 -564Q567 -560 562 -563Q560 -564 545 -567Q531 -569 520 -574Q519 -575 502 -578Q496 -577 493 -580Q491 -582 496 -585Q509 -588 524 -596Q547 -603 569 -610Q580 -614 593 -616Q604 -622 599 -641Q599 -686 599 -732Q599 -762 585 -774Q576 -777 572 -781Q573 -786 584 -786Q590 -786 593 -788ZM255 -568H286L301 -561Q333 -541 326 -500Q325 -485 324 -471Q321 -455 324 -436Q321 -419 326 -403Q322 -398 323 -393Q324 -388 323 -384Q324 -374 322 -363Q320 -352 326 -343Q325 -339 324 -328Q323 -314 319 -308Q320 -293 323 -279Q317 -266 313 -240Q306 -236 305 -227Q304 -218 288 -228Q271 -245 261 -261Q243 -257 227 -251Q220 -250 213 -250Q202 -243 193 -261Q191 -266 181 -275Q171 -284 167 -291Q161 -292 153 -305Q142 -316 137 -328Q147 -352 146 -360Q151 -371 154 -395Q156 -417 159 -425Q158 -442 161 -464Q160 -479 163 -494Q165 -508 156 -519Q151 -525 151 -531Q152 -532 156 -530Q161 -527 171 -525Q186 -522 191 -517Q197 -516 199 -511Q202 -504 203 -503Q210 -477 210 -471Q216 -466 213 -455Q211 -447 212 -444Q208 -440 210 -434Q212 -427 210 -425Q210 -418 214 -417Q219 -416 223 -415Q234 -421 259 -421Q268 -419 269 -426Q270 -435 270 -446Q270 -455 269 -464Q268 -488 266 -513Q264 -517 263 -523Q262 -530 255 -529Q251 -529 243 -523Q236 -518 231 -518Q218 -522 204 -526Q201 -530 189 -533Q180 -535 176 -538Q173 -541 176 -543Q180 -545 183 -547Q192 -546 212 -555Q224 -561 255 -568ZM212 -390L211 -389Q206 -379 209 -370Q205 -362 210 -345Q208 -342 209 -334Q210 -325 206 -321Q207 -319 208 -311Q209 -301 213 -299Q237 -308 262 -312Q265 -323 267 -337Q266 -345 268 -357Q270 -371 269 -377Q269 -381 267 -382Q261 -381 254 -382Q251 -383 243 -383Q234 -383 230 -387Q216 -391 212 -390ZM717 -365L752 -364Q775 -361 790 -351Q797 -348 799 -335Q811 -323 813 -318Q811 -307 813 -289Q816 -267 812 -257Q814 -248 812 -241Q810 -233 809 -226Q809 -211 808 -196Q811 -190 807 -187Q803 -184 802 -180Q804 -170 806 -161Q811 -143 804 -126Q806 -117 802 -105Q802 -95 802 -85Q804 -80 801 -70Q799 -63 799 -57Q805 -45 799 -36Q803 -15 797 -1Q798 5 796 8Q794 11 789 9Q788 21 785 28Q782 30 780 37Q779 43 774 43Q770 43 764 45Q757 47 760 53Q749 45 739 30Q734 28 733 18Q732 9 727 6Q723 2 728 -1Q733 -3 738 -9Q743 -40 744 -71Q745 -98 745 -125Q750 -138 747 -153Q747 -166 747 -180Q749 -197 748 -215Q750 -240 750 -261L747 -321Q743 -326 738 -326Q734 -326 725 -321Q716 -316 711 -317Q706 -311 694 -306Q685 -302 682 -300Q675 -302 671 -297Q667 -293 661 -291Q660 -283 653 -283Q649 -283 641 -286Q635 -292 626 -295Q622 -293 616 -299Q611 -303 607 -304Q601 -305 601 -302Q601 -296 601 -287Q599 -277 596 -268Q591 -259 594 -245Q601 -251 613 -256Q622 -259 631 -263Q634 -263 637 -260Q655 -258 672 -258Q683 -257 685 -247Q686 -237 675 -235Q672 -228 668 -227Q662 -224 662 -217Q663 -211 661 -207Q655 -202 657 -196Q659 -189 661 -184Q663 -174 686 -172Q690 -169 703 -164Q717 -158 724 -152Q728 -138 723 -135Q717 -129 708 -126Q685 -126 657 -141Q647 -150 636 -160Q625 -170 621 -183Q621 -199 626 -217Q625 -228 613 -229Q602 -230 594 -234Q588 -232 587 -221Q586 -213 583 -209Q582 -200 580 -191Q580 -170 576 -149Q571 -144 572 -132Q573 -120 568 -114Q572 -105 570 -89Q568 -75 569 -71Q564 -62 569 -47Q573 -35 571 -30Q569 -28 569 -22Q569 -17 567 -15Q570 -5 564 -1Q564 3 560 3Q555 3 554 6Q553 10 552 10Q548 8 540 1Q538 -3 532 -7Q526 -11 525 -15Q523 -22 510 -33Q500 -46 507 -51Q514 -63 518 -89Q521 -110 525 -119Q529 -131 534 -174Q553 -233 557 -271Q575 -321 586 -345Q586 -347 587 -348Q591 -346 596 -345Q598 -343 606 -330Q604 -325 609 -324Q617 -323 618 -322Q629 -327 639 -333Q649 -339 661 -341Q687 -360 717 -365Z"/>
</svg>