<svg xmlns="http://www.w3.org/2000/svg" viewBox="0 -800 1024 1024">
	<path fill="#000000" d="M595 -689Q604 -688 611 -685Q617 -689 633 -682Q652 -684 662 -665Q664 -663 667 -653Q672 -648 667 -637Q655 -628 653 -613Q646 -595 637 -585L619 -563Q613 -559 616 -555Q619 -552 625 -553Q649 -549 673 -546Q689 -540 705 -535Q716 -534 733 -527Q753 -519 762 -518Q778 -511 804 -502Q819 -495 834 -489Q847 -488 865 -479Q883 -472 900 -466Q916 -460 931 -454Q948 -449 964 -439Q980 -439 990 -428Q990 -419 990 -411Q982 -403 978 -400Q976 -398 974 -399Q972 -401 970 -400Q966 -402 959 -397Q953 -393 949 -396Q936 -397 925 -399Q920 -404 914 -403Q908 -402 902 -402Q889 -402 880 -405Q877 -405 871 -407L864 -412Q859 -417 853 -416Q847 -416 842 -417Q830 -428 819 -432Q808 -436 795 -443Q770 -454 747 -465Q723 -477 699 -490Q670 -503 640 -517Q628 -521 616 -526Q605 -531 592 -528Q587 -525 577 -514Q566 -502 558 -499Q550 -498 547 -493Q544 -487 540 -482Q528 -477 522 -464Q516 -463 512 -458Q509 -453 505 -450Q496 -449 490 -442Q484 -435 478 -429Q465 -430 459 -419Q453 -418 437 -409Q431 -409 419 -401Q409 -395 403 -394Q392 -388 381 -383Q380 -382 367 -378Q360 -369 355 -343Q350 -326 348 -306Q342 -296 342 -284Q342 -279 335 -265Q334 -261 327 -251Q320 -241 319 -234Q309 -226 304 -216Q299 -214 297 -219Q295 -223 293 -226Q282 -237 277 -252Q277 -257 273 -259Q269 -262 266 -258Q258 -254 250 -257Q229 -258 214 -246Q208 -240 192 -242Q182 -250 177 -251Q149 -250 125 -264Q93 -287 84 -301Q77 -313 75 -326Q76 -329 76 -334L75 -339Q75 -351 79 -365Q78 -380 82 -392Q82 -410 87 -425Q89 -435 91 -446Q98 -475 110 -494Q112 -500 122 -502Q126 -500 132 -499Q138 -497 139 -490Q136 -488 138 -483Q140 -479 144 -479Q156 -483 167 -487Q176 -493 199 -497Q220 -501 241 -508Q248 -508 261 -511Q276 -515 284 -514Q289 -510 302 -510Q314 -510 318 -508Q326 -508 346 -498Q358 -486 366 -470Q370 -459 374 -449Q377 -445 375 -438Q373 -430 375 -426Q378 -422 373 -408Q372 -404 374 -404Q377 -404 382 -408L405 -430Q413 -439 425 -442Q429 -443 432 -448Q436 -453 438 -454Q446 -458 456 -469Q470 -484 477 -487Q495 -507 514 -524Q515 -527 542 -556Q543 -562 553 -568Q561 -573 563 -578Q564 -584 571 -594Q577 -602 578 -607Q591 -624 594 -644Q598 -658 577 -666Q575 -668 572 -668Q565 -670 567 -674Q578 -683 595 -689ZM226 -456Q242 -454 243 -440Q246 -427 244 -412Q247 -404 254 -405Q261 -406 268 -407Q278 -405 287 -404Q287 -400 282 -394Q278 -389 277 -386Q276 -378 273 -374Q268 -367 262 -369Q255 -371 251 -365Q248 -360 248 -352Q243 -347 243 -341Q243 -334 241 -328Q240 -323 237 -295Q235 -287 243 -284Q259 -286 275 -289Q284 -286 289 -296Q292 -309 295 -323Q297 -345 304 -365Q309 -388 318 -409Q333 -443 309 -470Q293 -479 286 -476Q271 -476 259 -471Q253 -469 243 -465L215 -455Q211 -454 207 -453Q187 -453 169 -448Q157 -451 157 -437Q152 -431 146 -410Q143 -398 144 -387Q149 -384 153 -384Q165 -387 176 -390Q179 -392 186 -392Q197 -392 200 -397Q204 -414 208 -432Q212 -450 223 -454ZM590 -449Q605 -448 619 -448Q624 -448 647 -441Q658 -445 664 -429Q669 -421 663 -413Q661 -401 653 -396Q645 -379 627 -366Q616 -352 604 -338Q599 -334 566 -304Q554 -294 542 -285Q529 -276 518 -265Q511 -264 509 -272Q507 -281 504 -282Q498 -289 503 -296Q508 -302 513 -307Q520 -322 532 -336Q544 -349 554 -363Q571 -387 589 -409Q595 -415 600 -423Q605 -431 598 -438Q595 -440 591 -442Q586 -445 590 -449ZM145 -366L141 -361Q136 -335 137 -325Q138 -319 136 -297Q138 -291 140 -283Q142 -275 149 -271Q169 -272 189 -273Q200 -279 192 -301Q194 -326 193 -350Q195 -354 192 -359Q189 -364 184 -363Q177 -361 165 -365Q152 -369 145 -366ZM625 -315L631 -319Q640 -319 651 -316Q668 -318 684 -306Q692 -287 693 -280Q684 -255 676 -248Q673 -242 679 -239Q685 -236 690 -233Q698 -232 715 -222Q725 -216 735 -213Q746 -207 749 -204Q757 -198 754 -190Q754 -180 754 -170Q747 -161 745 -149Q742 -139 729 -114Q730 -108 723 -99Q719 -93 718 -89Q712 -82 679 -42Q676 -32 667 -23Q659 -15 650 -7Q646 -1 635 8Q625 16 621 21Q611 31 600 41Q595 41 589 46Q583 51 580 51Q572 60 564 56Q559 54 551 60Q545 65 540 64Q534 65 528 68Q525 69 524 65Q550 42 608 -23Q632 -55 644 -70Q676 -114 699 -161Q703 -174 703 -186Q703 -197 687 -206Q675 -210 666 -210Q643 -210 634 -193Q632 -189 625 -188Q619 -187 617 -184Q615 -177 603 -174Q595 -172 592 -169Q582 -169 571 -160Q564 -159 563 -164Q562 -168 566 -172Q566 -181 571 -187Q577 -193 582 -200Q621 -248 629 -263Q643 -289 644 -292Q639 -302 629 -307Q620 -310 625 -315Z"/>
</svg>