<svg xmlns="http://www.w3.org/2000/svg" viewBox="0 -800 1024 1024">
	<path fill="#000000" d="M532 -730H543Q548 -733 552 -727Q556 -722 561 -724Q574 -723 582 -716Q586 -709 591 -702Q595 -696 593 -686Q596 -682 591 -673Q587 -667 588 -662Q577 -625 577 -619Q572 -614 576 -609Q580 -603 587 -605Q594 -614 601 -607Q610 -607 618 -612Q620 -614 626 -614Q632 -614 634 -617Q638 -619 648 -615Q657 -611 664 -614Q667 -611 672 -611Q678 -611 680 -608Q688 -607 687 -600Q686 -593 679 -590Q675 -593 671 -585Q675 -575 663 -570Q660 -567 653 -565Q645 -563 642 -557Q630 -560 624 -555Q619 -557 614 -551Q609 -546 605 -546Q596 -555 588 -545Q583 -546 579 -540Q575 -535 573 -534Q557 -524 547 -520Q540 -514 537 -518Q534 -516 533 -518Q532 -522 532 -526Q543 -540 551 -555Q557 -560 549 -567Q544 -572 544 -575Q536 -583 534 -605Q534 -613 533 -622Q532 -632 539 -639Q538 -642 541 -646Q544 -651 542 -654Q541 -660 543 -670Q546 -683 542 -688Q528 -680 524 -675Q509 -665 494 -650Q482 -640 469 -631Q463 -626 453 -611Q445 -600 437 -592Q414 -579 400 -547Q395 -544 395 -531Q395 -522 392 -517Q392 -510 388 -510Q383 -510 380 -509Q376 -505 373 -510Q371 -516 366 -515Q365 -518 357 -524Q352 -528 349 -532Q345 -534 342 -542Q339 -549 336 -552Q332 -554 332 -563Q332 -574 328 -575Q321 -571 314 -568Q306 -565 303 -557Q301 -556 298 -550Q295 -544 291 -546Q271 -541 264 -543Q257 -568 258 -576Q249 -581 252 -588Q254 -596 257 -603Q257 -606 263 -609Q267 -611 268 -614Q272 -618 279 -630Q284 -639 289 -644Q292 -653 303 -665Q315 -678 318 -685Q326 -695 322 -709Q327 -714 330 -710Q334 -702 342 -699Q351 -685 356 -672Q354 -659 347 -650Q345 -643 338 -629Q330 -612 325 -611Q321 -596 328 -594L361 -588Q369 -577 379 -588Q384 -597 399 -610Q412 -621 417 -628Q418 -629 422 -631Q428 -633 428 -638Q437 -646 445 -654Q461 -669 490 -692Q501 -701 513 -709Q525 -717 532 -730ZM587 -497L607 -492Q641 -491 665 -462Q664 -460 665 -454Q666 -447 661 -445Q656 -444 656 -442Q655 -440 657 -438Q663 -434 664 -428Q667 -426 667 -425Q659 -427 651 -423L620 -437Q589 -459 562 -467Q561 -468 559 -468L553 -471Q544 -474 540 -481Q558 -492 587 -497ZM601 -78Q642 -33 665 -14Q693 11 720 36Q724 37 736 5Q750 -34 754 -30Q758 -29 759 22Q760 62 762 64Q769 67 772 81Q774 92 772 102Q769 106 763 113Q757 121 759 127Q758 134 749 134Q741 134 736 129Q721 124 700 103Q680 89 650 51Q628 23 613 10Q587 -14 564 -39Q559 -45 554 -51L494 -24Q463 -10 432 3Q409 10 381 13Q363 13 352 3Q348 2 347 1Q345 1 345 0Q353 -2 368 -3Q394 -10 419 -26Q444 -42 469 -58L517 -93Q490 -127 472 -163Q467 -167 464 -178Q461 -187 458 -191Q440 -189 424 -183Q409 -179 394 -175Q387 -171 369 -166Q351 -161 343 -156Q328 -152 314 -153Q290 -158 271 -170Q265 -173 267 -179Q269 -185 275 -184Q286 -181 296 -186Q305 -191 315 -194Q333 -201 351 -208Q354 -208 361 -211Q368 -214 373 -213Q388 -219 410 -226Q417 -228 425 -231Q432 -233 433 -242Q424 -258 418 -275Q415 -278 411 -290Q408 -299 403 -304Q387 -304 375 -295Q370 -292 359 -296Q351 -299 346 -298Q340 -296 329 -301Q317 -306 310 -303Q298 -302 286 -301Q281 -300 285 -309Q302 -331 333 -340Q361 -351 390 -360Q407 -364 404 -380Q406 -401 399 -427Q397 -439 402 -449Q404 -455 405 -461Q406 -467 412 -470L419 -466Q421 -462 430 -457Q436 -453 440 -449Q440 -446 445 -439Q451 -432 449 -426Q446 -421 452 -408Q454 -406 456 -399Q458 -389 465 -389Q483 -395 501 -404Q507 -405 512 -415Q517 -425 522 -426Q538 -416 557 -415Q573 -413 589 -411Q593 -411 595 -408Q596 -405 599 -401Q604 -397 612 -398Q616 -398 616 -393Q615 -389 615 -386Q613 -383 617 -378Q621 -373 617 -371Q608 -369 599 -367Q596 -363 593 -357Q590 -352 584 -354Q571 -359 564 -352Q545 -350 528 -343Q491 -334 475 -324Q468 -318 471 -310Q474 -303 476 -295Q479 -282 481 -270Q488 -261 497 -253Q508 -255 516 -259Q529 -263 563 -280Q569 -286 588 -285Q600 -285 607 -287Q623 -289 635 -284Q647 -286 649 -278Q651 -274 651 -268Q651 -261 657 -258Q652 -255 649 -247Q647 -240 640 -236L605 -230Q574 -224 542 -210Q531 -212 529 -200Q528 -191 532 -181Q537 -158 547 -142L562 -125Q599 -152 617 -177Q617 -181 625 -190Q635 -201 630 -206Q623 -207 622 -208Q621 -209 623 -211Q628 -215 629 -222Q630 -228 633 -229Q635 -230 638 -228Q645 -223 648 -229Q656 -225 672 -225Q692 -225 700 -217Q714 -210 714 -192Q714 -176 704 -164Q695 -161 682 -145Q667 -127 654 -124Q651 -118 644 -112Q637 -106 636 -104Q625 -98 601 -78Z"/>
</svg>