<svg xmlns="http://www.w3.org/2000/svg" viewBox="0 -800 1024 1024">
	<path fill="#000000" d="M601 -690Q603 -690 605 -690H612Q614 -690 616 -690Q646 -692 656 -678L665 -661Q664 -652 663 -643Q667 -630 665 -615Q665 -604 665 -593Q664 -572 663 -552Q661 -536 658 -521Q665 -512 671 -516Q675 -518 704 -526Q719 -531 736 -530Q740 -529 749 -530Q761 -532 767 -528Q799 -526 811 -503Q816 -501 819 -492Q822 -485 824 -482Q828 -473 825 -461Q817 -445 817 -441Q810 -429 803 -418Q801 -413 796 -409Q791 -406 787 -402Q785 -398 777 -390Q769 -383 767 -376Q757 -368 747 -360Q741 -361 739 -354Q736 -344 735 -342Q729 -341 727 -332Q726 -328 720 -325Q714 -323 713 -321Q697 -309 706 -305Q727 -309 747 -314Q768 -318 789 -323Q800 -322 813 -331Q823 -327 835 -330Q848 -338 855 -331Q860 -328 877 -330Q884 -334 889 -328Q895 -322 901 -319Q903 -308 904 -297Q905 -291 901 -288Q897 -286 893 -283Q886 -273 872 -273Q847 -269 839 -266Q826 -264 812 -262Q803 -258 786 -258Q770 -258 765 -257Q752 -254 751 -254Q734 -254 718 -251Q694 -251 675 -246Q654 -243 633 -240Q624 -240 622 -232Q620 -224 618 -217Q612 -207 608 -195Q610 -188 602 -175Q597 -167 596 -161Q590 -154 586 -146Q589 -142 596 -144Q602 -146 604 -145Q625 -148 645 -151Q669 -154 695 -148Q716 -144 739 -136Q759 -132 778 -126Q795 -120 811 -110Q827 -103 867 -78Q875 -77 879 -60Q897 -45 889 -34Q887 -27 892 -18Q890 -11 882 -9Q875 -7 869 -4Q841 -14 825 -27Q796 -51 773 -61Q733 -79 714 -89Q662 -113 656 -114Q637 -122 617 -128Q613 -132 608 -133Q603 -134 598 -134Q585 -135 576 -130Q565 -127 563 -114Q558 -112 553 -106Q545 -97 540 -97Q536 -95 530 -88Q523 -80 518 -79Q511 -80 508 -75Q505 -70 502 -66Q489 -65 477 -62Q475 -59 471 -60Q467 -61 467 -64Q462 -72 473 -79Q474 -85 482 -92Q488 -98 490 -101Q505 -123 522 -150Q535 -178 548 -207Q549 -217 554 -226Q554 -234 549 -234Q542 -235 536 -235Q522 -233 518 -231Q514 -232 502 -230Q488 -228 481 -232L442 -238Q408 -245 408 -262Q411 -267 416 -265Q421 -262 425 -263Q442 -271 461 -274Q481 -276 500 -280Q510 -281 520 -283Q537 -285 554 -287Q566 -285 573 -295Q580 -305 578 -317Q578 -329 583 -339Q586 -380 587 -419Q590 -427 584 -432Q578 -437 571 -433Q540 -437 532 -440Q518 -439 501 -448Q497 -449 497 -453Q497 -456 502 -455Q508 -453 518 -458Q526 -463 530 -463Q535 -464 539 -466L557 -474Q562 -475 566 -477Q577 -481 588 -486Q595 -489 594 -501Q593 -510 596 -514Q599 -542 601 -571Q598 -595 600 -619Q600 -642 596 -661Q593 -666 582 -667Q574 -668 571 -670Q560 -672 565 -678Q583 -684 601 -690ZM254 -600Q266 -598 278 -596Q295 -599 306 -578Q310 -569 310 -541Q310 -525 312 -513Q314 -495 313 -472Q310 -457 316 -444Q326 -454 332 -464Q338 -476 344 -488Q347 -487 352 -480Q358 -471 364 -471Q372 -471 380 -471Q389 -474 397 -472Q406 -472 416 -469Q421 -460 431 -452Q437 -454 439 -445Q438 -441 441 -435Q445 -428 442 -424L417 -416Q399 -415 383 -412Q349 -406 336 -404Q329 -402 322 -402Q314 -403 309 -396Q301 -387 299 -374Q298 -351 294 -330Q289 -323 289 -307Q288 -289 285 -283Q283 -268 278 -259Q275 -255 280 -252Q285 -249 288 -253Q293 -256 298 -261Q302 -266 309 -262Q311 -258 319 -258Q328 -258 330 -256Q336 -258 347 -250Q352 -248 358 -241Q364 -234 367 -232Q381 -231 391 -210Q388 -206 392 -198Q395 -191 395 -187Q391 -184 391 -176Q390 -167 387 -164Q374 -160 355 -162Q344 -171 333 -178Q321 -186 313 -197Q303 -204 288 -213Q276 -215 266 -212Q257 -210 254 -196Q251 -185 248 -182Q240 -171 231 -161Q231 -155 223 -150Q217 -146 215 -143Q215 -139 209 -134Q204 -130 203 -128Q194 -115 179 -110Q170 -103 158 -103Q154 -101 150 -102Q146 -103 148 -107Q162 -117 170 -131Q179 -143 199 -184Q211 -213 216 -243Q227 -260 231 -281Q232 -294 242 -316Q245 -330 247 -345Q246 -358 245 -371Q251 -386 244 -387Q238 -384 230 -376Q219 -366 214 -364Q184 -336 174 -315Q174 -304 167 -288Q165 -274 153 -276Q145 -279 137 -282Q123 -299 109 -316Q105 -319 103 -331Q104 -342 104 -353Q112 -381 117 -394Q117 -400 122 -412Q126 -422 126 -428Q127 -436 121 -446Q119 -449 121 -450Q126 -451 130 -451Q145 -456 143 -481Q147 -486 151 -482Q156 -476 158 -470Q172 -456 180 -433Q181 -419 181 -405Q183 -402 180 -395Q176 -387 181 -383Q200 -391 218 -403Q228 -411 239 -418Q250 -425 256 -437Q256 -442 256 -447Q256 -484 255 -521Q254 -533 252 -545Q251 -565 234 -572Q229 -573 229 -578Q229 -583 234 -584Q243 -594 254 -600ZM724 -468H720Q710 -470 695 -461Q685 -460 677 -457Q669 -455 661 -454Q653 -452 648 -445Q647 -427 645 -410Q644 -394 642 -378Q642 -375 639 -369Q634 -361 637 -356Q637 -344 636 -332Q632 -325 632 -315Q624 -296 638 -297L651 -315Q673 -339 692 -364Q695 -368 698 -373L708 -392Q711 -396 714 -401Q715 -409 722 -425Q729 -442 730 -452Q734 -457 733 -464Q731 -471 724 -468Z"/>
</svg>