<svg xmlns="http://www.w3.org/2000/svg" viewBox="0 -800 1024 1024">
	<path fill="#000000" d="M596 -167Q585 -172 578 -182Q567 -195 567 -204Q568 -208 565 -216Q562 -224 566 -228Q566 -233 574 -240Q580 -245 581 -249Q578 -255 582 -258Q588 -265 587 -274Q589 -276 596 -277Q604 -278 607 -282Q613 -292 622 -297Q632 -301 641 -306Q652 -311 670 -325Q686 -338 694 -342Q700 -345 698 -351Q696 -357 691 -354Q682 -352 678 -358Q674 -363 668 -367Q661 -369 652 -375Q642 -382 637 -383Q618 -399 609 -416Q608 -422 601 -422Q595 -422 591 -419Q581 -417 570 -416Q554 -423 538 -428Q536 -428 532 -430Q528 -432 527 -429Q519 -411 518 -399Q516 -395 511 -374Q510 -355 496 -334Q496 -316 492 -310Q487 -304 487 -296Q485 -285 480 -276Q476 -272 474 -248Q465 -247 467 -233Q468 -225 464 -219Q460 -212 457 -205Q453 -195 452 -184Q451 -162 440 -143Q430 -127 432 -117Q427 -96 415 -77Q413 -71 412 -63Q411 -56 406 -50Q398 -47 390 -53Q388 -54 377 -64Q368 -68 364 -79Q364 -83 359 -90Q352 -99 357 -104Q362 -105 363 -110Q365 -115 365 -120Q379 -138 380 -150Q388 -173 412 -216Q424 -255 441 -291Q445 -302 467 -364Q478 -377 488 -427Q497 -472 497 -493Q497 -506 497 -519Q495 -526 488 -526Q485 -526 476 -525Q471 -527 472 -530Q475 -534 481 -534Q493 -541 508 -544Q529 -548 550 -552Q567 -556 583 -561Q589 -562 588 -568Q587 -575 583 -577Q566 -584 573 -600Q576 -604 577 -617Q578 -629 582 -634Q582 -651 591 -671Q589 -697 591 -709Q593 -742 574 -741Q570 -741 569 -743Q568 -748 575 -749Q577 -751 591 -753L605 -752Q614 -749 622 -747Q640 -749 643 -728Q645 -713 643 -696Q638 -691 643 -687Q648 -683 653 -687Q668 -693 698 -699Q712 -702 727 -700Q741 -703 744 -690Q741 -684 738 -676Q736 -669 729 -664Q718 -664 709 -659Q695 -661 689 -656Q669 -655 651 -652Q637 -656 635 -644Q630 -626 627 -605Q625 -593 623 -581Q619 -576 623 -572Q627 -568 633 -570Q637 -573 649 -575Q663 -578 676 -582Q703 -588 730 -594Q753 -601 762 -600Q772 -604 783 -604Q799 -605 815 -600Q828 -603 837 -591Q859 -586 857 -575Q851 -561 847 -546Q847 -539 832 -534Q828 -530 820 -532Q813 -533 810 -531Q805 -531 796 -524Q788 -517 783 -518Q776 -517 769 -512Q760 -506 751 -503Q744 -493 733 -497Q736 -488 734 -486Q732 -483 728 -481Q715 -477 684 -453Q674 -453 668 -445Q661 -436 664 -427Q669 -422 670 -412Q671 -405 679 -405Q686 -405 693 -408Q699 -406 715 -404Q735 -406 746 -402Q751 -402 757 -398Q763 -394 762 -389Q762 -379 754 -373Q746 -367 738 -363Q734 -353 756 -353Q768 -353 776 -343Q775 -337 769 -325Q765 -318 752 -317Q743 -316 740 -314Q729 -315 721 -309Q714 -303 705 -300Q700 -298 702 -294Q705 -291 710 -289Q715 -288 738 -274Q743 -266 750 -258Q756 -250 756 -238Q745 -229 746 -215Q743 -207 745 -200Q744 -196 743 -190Q742 -184 749 -183Q779 -201 798 -236Q802 -241 818 -270Q827 -278 816 -289Q816 -292 817 -293Q822 -291 829 -289Q843 -291 859 -287Q868 -290 871 -280Q869 -272 874 -266Q883 -261 869 -254Q856 -252 854 -240Q854 -234 845 -230Q838 -229 836 -222Q835 -218 828 -214Q822 -211 820 -208Q818 -202 808 -198Q801 -195 798 -192Q789 -185 779 -184Q772 -187 770 -177Q774 -168 793 -173Q798 -172 805 -175Q812 -178 816 -178Q822 -177 830 -182Q839 -187 844 -186Q860 -176 875 -181Q877 -179 886 -179Q896 -179 900 -175Q901 -172 907 -168Q914 -163 914 -158Q909 -148 898 -145Q892 -146 889 -142Q885 -138 881 -136Q877 -134 870 -137Q863 -140 860 -138Q846 -137 832 -136Q805 -134 777 -132Q763 -131 751 -128Q744 -113 741 -97Q742 -90 743 -83Q745 -76 741 -69Q740 -52 742 -34Q742 -32 740 -28L737 -17Q736 -14 735 -11Q735 14 727 22Q726 26 724 29L720 43Q719 47 717 50Q710 54 704 67Q694 66 686 60Q679 54 671 50Q666 45 663 39Q659 32 653 30Q648 29 643 27Q638 24 643 19Q652 13 663 8Q674 3 682 -6Q696 -50 696 -95Q697 -113 693 -127Q685 -130 665 -127Q641 -124 616 -122Q613 -121 609 -121L594 -118Q589 -118 586 -117Q572 -112 556 -113Q549 -110 543 -106Q537 -103 530 -106Q515 -114 499 -116Q495 -120 487 -121Q478 -122 476 -126Q487 -128 498 -131Q533 -137 567 -143Q585 -146 603 -151Q616 -151 630 -153Q638 -155 641 -155L664 -161Q667 -161 675 -163Q677 -165 687 -165Q700 -166 703 -172Q702 -212 701 -253Q703 -268 693 -278Q692 -283 689 -287Q685 -291 681 -288Q664 -282 648 -271Q645 -268 636 -266Q627 -264 624 -259Q611 -249 617 -229Q623 -219 634 -224Q643 -224 650 -231Q657 -238 665 -243Q669 -248 675 -247Q679 -246 673 -240Q664 -237 656 -225Q652 -222 641 -208Q629 -193 620 -188Q618 -180 618 -171Q616 -163 609 -162Q603 -161 596 -167ZM218 -630H225Q247 -615 247 -586Q249 -580 243 -566Q237 -552 242 -545Q248 -547 250 -548L268 -555Q270 -556 276 -558Q296 -567 315 -569Q329 -573 342 -568Q358 -568 373 -568Q380 -567 381 -563Q380 -556 381 -549Q382 -542 372 -535Q363 -529 362 -526Q352 -515 340 -507Q336 -498 321 -485Q306 -472 304 -463Q307 -461 305 -454Q303 -445 306 -443Q327 -439 342 -444Q354 -444 367 -447Q379 -450 390 -446Q396 -431 379 -412Q371 -408 363 -405Q355 -403 347 -401Q328 -398 312 -392Q303 -392 299 -383Q296 -374 294 -366Q295 -352 289 -332Q290 -325 289 -316Q287 -301 289 -295Q286 -290 285 -282Q284 -271 280 -266Q278 -258 278 -255Q278 -249 284 -249Q298 -248 311 -245Q323 -241 334 -247Q347 -276 344 -314Q341 -317 344 -319Q349 -320 352 -320Q361 -313 369 -306Q378 -298 379 -287Q386 -267 385 -244Q380 -235 383 -222Q381 -210 381 -198Q379 -191 372 -180Q374 -175 369 -171Q364 -167 358 -169Q357 -173 353 -179L342 -198Q340 -203 337 -208Q331 -217 324 -211Q313 -209 302 -208Q282 -204 258 -195Q229 -191 199 -188Q173 -183 146 -179Q140 -175 137 -179Q135 -186 132 -190Q129 -198 118 -207Q107 -216 105 -223Q102 -242 113 -257Q124 -271 133 -286Q142 -293 150 -304Q162 -320 166 -323Q168 -328 173 -329Q177 -329 182 -330Q187 -321 183 -301Q180 -287 181 -282Q171 -269 170 -252Q167 -246 164 -238Q160 -230 167 -226Q173 -229 194 -231Q201 -235 206 -232Q212 -230 216 -231Q228 -232 234 -237Q233 -247 227 -257Q220 -267 229 -279Q237 -310 241 -342Q239 -348 241 -357Q243 -369 240 -373Q215 -368 209 -366Q195 -364 180 -363Q178 -361 170 -361Q160 -360 157 -357Q149 -358 140 -354Q138 -354 117 -350Q106 -348 97 -352Q78 -360 54 -360Q49 -360 49 -364Q49 -368 56 -369Q66 -371 69 -373Q73 -378 86 -380Q97 -382 102 -387Q116 -389 129 -392Q158 -402 186 -405Q196 -408 206 -411Q223 -417 240 -424Q249 -425 253 -432Q257 -439 253 -444Q248 -446 237 -441Q230 -438 225 -438Q228 -444 242 -458Q258 -475 260 -487Q262 -496 259 -503Q256 -507 250 -501Q230 -503 221 -487Q211 -491 202 -507Q199 -509 194 -519Q190 -527 187 -530Q183 -542 187 -558Q188 -561 196 -586Q207 -608 218 -630ZM763 -557Q757 -557 751 -557Q740 -558 726 -552Q707 -550 691 -546Q672 -538 651 -534Q642 -532 632 -531Q629 -531 628 -529Q628 -526 633 -523Q646 -520 658 -518Q663 -515 670 -513Q677 -510 677 -502Q670 -485 680 -484Q697 -491 714 -498Q741 -520 767 -542Q768 -544 772 -547Q778 -551 777 -554Q776 -559 771 -559Q766 -559 763 -557ZM602 -520H600Q597 -519 591 -520Q586 -521 583 -519Q576 -515 569 -514Q557 -518 539 -516Q532 -518 530 -512Q528 -506 534 -502Q536 -493 532 -474Q529 -459 530 -448Q526 -444 529 -440Q532 -436 537 -437Q542 -440 568 -447Q571 -449 600 -454Q610 -453 616 -463Q621 -471 620 -482Q619 -498 609 -509Q609 -513 607 -517Q605 -521 602 -520Z"/>
</svg>