<svg xmlns="http://www.w3.org/2000/svg" viewBox="0 -800 1024 1024">
	<path fill="#000000" d="M564 -636Q568 -636 568 -635Q579 -636 592 -635Q597 -633 604 -632Q617 -631 622 -627Q624 -624 631 -619Q637 -614 638 -609Q636 -600 639 -590Q635 -587 634 -576Q633 -568 630 -564Q625 -561 625 -549Q619 -536 612 -524Q603 -517 603 -508Q613 -508 622 -517Q634 -522 645 -527Q653 -533 697 -549Q736 -563 751 -567Q764 -572 780 -574Q803 -578 820 -574Q830 -568 843 -566Q855 -565 862 -553Q881 -530 877 -503Q875 -498 875 -470Q865 -449 862 -445Q856 -443 852 -435Q848 -427 846 -426Q836 -426 829 -410Q824 -401 808 -387Q794 -378 782 -363Q762 -347 745 -329Q738 -330 736 -324Q733 -319 729 -315Q725 -314 720 -307Q714 -299 708 -300Q695 -291 682 -282Q665 -273 661 -272Q657 -267 653 -262Q648 -258 650 -251Q652 -247 649 -238Q647 -232 647 -228Q642 -221 636 -203Q628 -193 620 -184Q611 -174 608 -162Q609 -158 614 -158Q619 -158 623 -156Q640 -160 664 -155Q677 -152 703 -148Q724 -145 744 -136Q750 -137 759 -132Q777 -129 795 -120Q812 -113 828 -107Q835 -105 861 -91Q870 -86 880 -82Q890 -79 897 -70Q905 -63 915 -66Q921 -66 924 -62Q927 -52 938 -45Q939 -42 942 -38Q949 -31 948 -26Q944 -22 945 -17Q946 -12 945 -7Q944 2 932 6Q921 9 912 6Q904 7 897 2Q883 -3 840 -29Q829 -37 817 -42Q767 -71 716 -95Q702 -100 687 -105Q680 -112 667 -114Q662 -121 650 -119Q636 -127 629 -127Q605 -133 594 -134Q583 -137 577 -126Q572 -124 565 -115Q561 -109 558 -107Q550 -106 547 -99Q544 -92 541 -86Q532 -81 525 -75Q518 -77 514 -73Q510 -69 506 -66Q499 -67 494 -62Q489 -58 484 -55Q470 -55 458 -50Q454 -49 449 -50Q445 -51 447 -55Q458 -65 470 -73Q525 -116 574 -204Q574 -218 582 -227Q580 -234 585 -239Q589 -243 592 -248Q593 -266 597 -282Q586 -308 577 -315Q549 -342 549 -348Q549 -353 574 -347Q583 -346 592 -346Q609 -345 622 -328Q632 -315 637 -300Q638 -294 646 -296Q673 -320 701 -343Q709 -349 725 -366Q738 -380 747 -387Q752 -391 756 -400Q761 -411 766 -414Q771 -417 776 -427Q780 -435 785 -439Q800 -462 811 -486Q813 -491 818 -509Q821 -516 816 -524Q811 -531 804 -528Q801 -529 797 -525Q783 -525 771 -521Q769 -521 746 -515Q736 -515 728 -510Q711 -503 694 -497Q679 -491 663 -486Q658 -484 654 -480Q649 -476 644 -479Q639 -478 632 -473Q623 -466 619 -468Q604 -468 591 -469Q582 -466 578 -458Q574 -450 571 -442Q568 -429 555 -409Q551 -398 544 -393Q532 -374 531 -368Q523 -364 520 -365Q507 -379 504 -399Q504 -408 502 -422Q503 -431 506 -438Q518 -443 524 -462Q523 -467 530 -478Q534 -490 542 -500Q543 -507 544 -514Q545 -516 547 -518L554 -527Q556 -529 557 -531Q563 -557 571 -582Q581 -599 571 -614Q567 -620 560 -620Q558 -620 548 -617Q536 -612 534 -617Q533 -632 549 -632Q554 -634 564 -636ZM329 -522Q334 -524 338 -516Q338 -511 345 -511Q351 -511 351 -505Q349 -502 353 -496Q357 -489 352 -486Q346 -487 338 -480Q334 -476 330 -475Q325 -474 320 -475Q315 -477 312 -472Q307 -458 294 -442Q282 -424 269 -407Q264 -397 248 -378Q226 -353 224 -337Q224 -329 237 -332Q270 -344 304 -352Q319 -355 333 -358Q334 -358 346 -353Q350 -355 355 -351Q361 -347 364 -347Q369 -351 386 -346Q393 -339 399 -328Q399 -325 404 -319Q410 -313 409 -307Q395 -295 388 -278Q386 -272 373 -269Q364 -260 355 -251Q350 -250 350 -244Q350 -238 355 -236Q365 -238 369 -231L363 -216Q365 -208 350 -201Q339 -202 328 -203Q293 -203 259 -198Q249 -200 239 -202Q236 -193 232 -185Q224 -177 218 -168Q214 -169 200 -177Q189 -190 188 -205Q185 -226 189 -241Q190 -256 193 -269Q191 -276 196 -287Q200 -296 199 -301Q194 -311 184 -297Q179 -294 172 -284Q163 -272 157 -269Q144 -259 137 -247Q126 -238 120 -227Q113 -226 99 -212Q73 -207 69 -205Q64 -207 65 -211Q67 -216 67 -220Q76 -230 85 -241Q105 -271 116 -285Q124 -301 161 -349Q204 -406 235 -451Q239 -455 235 -459Q232 -463 228 -459Q225 -456 216 -457Q208 -457 204 -455Q194 -453 183 -455Q169 -454 142 -463Q135 -464 129 -466Q128 -467 132 -470L164 -476Q170 -480 181 -482Q195 -484 199 -487Q218 -495 222 -495Q243 -504 263 -513Q287 -519 302 -520Q316 -521 329 -522ZM321 -312Q314 -312 314 -311Q300 -312 287 -307Q276 -308 267 -305Q246 -309 242 -293Q243 -273 241 -253Q236 -242 240 -230Q251 -230 264 -233Q265 -234 295 -239Q302 -240 305 -247Q307 -253 310 -259Q326 -285 329 -299Q334 -304 330 -310Q327 -316 321 -312Z"/>
</svg>