<svg xmlns="http://www.w3.org/2000/svg" viewBox="0 -800 1024 1024">
	<path fill="#000000" d="M643 -687Q648 -682 652 -687Q669 -685 686 -684Q690 -686 707 -683Q720 -683 727 -674Q737 -676 746 -670Q755 -664 764 -660Q800 -634 801 -612Q811 -597 808 -580Q811 -576 811 -568Q811 -559 814 -555Q809 -521 804 -487Q801 -482 800 -476Q799 -474 796 -476Q792 -472 789 -462Q786 -451 781 -448Q782 -437 778 -428Q774 -419 772 -409Q768 -395 757 -383Q757 -375 756 -368Q734 -333 729 -319Q721 -316 717 -301Q710 -300 708 -288Q706 -276 699 -273Q698 -269 691 -260Q681 -246 671 -232Q668 -224 661 -219Q654 -215 648 -210Q646 -206 638 -204Q632 -202 631 -200Q625 -198 622 -188Q620 -182 617 -180Q614 -188 598 -198Q591 -200 553 -215Q548 -227 526 -221Q517 -222 517 -215Q516 -204 517 -195Q513 -186 515 -178Q515 -143 513 -125Q512 -115 511 -105Q509 -95 513 -85Q509 -62 513 -50Q510 -44 510 -29Q510 -13 506 -7Q509 -1 505 5Q509 9 506 19Q503 28 507 33Q503 57 503 79Q497 81 493 95Q490 108 480 108Q477 115 474 113Q470 109 467 104Q464 106 457 96Q451 72 444 62Q451 34 449 -4Q451 -18 449 -31L453 -136Q455 -155 457 -175Q459 -198 455 -217Q442 -218 431 -214Q419 -214 407 -214Q388 -209 367 -211Q351 -215 332 -213Q319 -212 310 -216Q298 -216 263 -230Q247 -243 230 -256Q223 -268 210 -278Q183 -293 176 -330Q171 -342 174 -354Q175 -358 173 -366Q171 -374 174 -379Q172 -384 172 -403Q176 -413 178 -434Q180 -453 183 -462Q182 -469 190 -476Q197 -482 197 -485Q190 -495 200 -505Q206 -518 212 -532Q214 -541 226 -554Q234 -562 236 -567Q242 -567 245 -574Q249 -584 252 -585Q254 -586 255 -587L261 -591Q263 -593 264 -593Q274 -601 281 -610Q287 -608 291 -597Q294 -586 299 -583Q304 -564 301 -552Q299 -548 292 -543Q282 -536 281 -528Q277 -518 276 -505Q274 -493 266 -483Q266 -479 260 -474Q253 -469 258 -464Q253 -447 248 -423Q241 -408 242 -392Q243 -376 244 -360Q241 -357 244 -351Q247 -345 244 -342L252 -315Q251 -308 254 -304Q257 -300 262 -296Q267 -293 272 -289Q277 -286 281 -292Q285 -298 289 -295Q294 -289 295 -282Q305 -275 308 -266Q320 -258 331 -248Q383 -253 433 -262Q438 -266 446 -265Q453 -264 456 -266Q461 -281 459 -301Q460 -320 460 -339Q460 -353 459 -367Q462 -380 448 -384Q425 -386 408 -393Q379 -391 373 -412Q390 -416 411 -417Q418 -424 428 -424Q438 -423 449 -426Q455 -424 458 -429Q459 -430 460 -439Q458 -467 455 -496Q456 -507 436 -511Q435 -517 430 -522Q426 -526 425 -528Q428 -528 435 -532Q445 -537 452 -536Q458 -531 480 -524Q497 -524 505 -507Q509 -491 510 -476Q512 -471 511 -462Q509 -450 513 -445Q511 -434 509 -423Q512 -415 520 -414Q527 -414 533 -412Q541 -410 549 -406Q551 -404 546 -401Q547 -392 542 -383Q536 -373 529 -380Q523 -379 518 -377Q513 -375 513 -368Q514 -355 515 -343Q518 -336 514 -325Q510 -314 511 -309Q517 -296 515 -281Q512 -268 527 -268Q529 -273 546 -275Q567 -272 589 -273Q593 -275 606 -275Q624 -275 629 -282Q630 -285 636 -291Q644 -299 644 -305Q660 -325 667 -351Q676 -361 685 -380Q695 -400 700 -407Q705 -425 717 -446Q721 -481 730 -516Q734 -536 737 -559Q738 -563 738 -590Q738 -604 726 -614Q715 -623 702 -624Q674 -628 662 -628Q630 -629 601 -626Q576 -627 529 -610Q489 -607 457 -591Q432 -593 409 -599Q403 -603 383 -600Q367 -598 361 -609Q368 -617 380 -623Q411 -629 429 -638Q478 -653 526 -668Q545 -673 548 -676Q569 -679 590 -683Q617 -685 643 -687Z"/>
</svg>