<svg xmlns="http://www.w3.org/2000/svg" viewBox="0 -800 1024 1024">
	<path fill="#000000" d="M424 -741Q425 -741 432 -739Q440 -741 447 -737Q453 -732 459 -728Q465 -716 458 -707Q447 -698 426 -690Q406 -682 401 -679Q398 -677 391 -675Q384 -673 380 -669Q373 -670 357 -670Q342 -660 336 -630Q332 -623 331 -605Q330 -589 328 -583Q327 -575 329 -571Q349 -579 367 -590Q374 -594 382 -596Q390 -599 393 -607Q396 -609 396 -615Q397 -618 401 -616Q408 -621 414 -618Q420 -616 427 -615Q432 -612 435 -612Q445 -614 455 -616Q472 -623 506 -631Q519 -629 533 -628Q546 -626 556 -616Q568 -609 561 -599Q560 -593 560 -586Q559 -579 553 -575Q543 -563 532 -565Q529 -560 522 -561Q514 -562 512 -557Q505 -558 497 -551Q493 -553 488 -547Q484 -543 481 -543Q481 -548 477 -550Q473 -552 471 -547Q473 -541 461 -532Q456 -534 451 -527Q446 -522 448 -519Q454 -516 461 -519Q497 -529 515 -535Q525 -532 531 -536Q537 -543 548 -543Q559 -542 568 -542Q571 -546 576 -545Q581 -544 584 -547Q608 -543 632 -539Q639 -537 641 -523Q638 -518 634 -514Q630 -509 630 -502Q620 -503 612 -499Q610 -500 607 -497Q604 -494 601 -496Q587 -495 575 -493Q517 -485 461 -471Q442 -472 444 -444Q445 -440 443 -432Q441 -421 445 -415Q504 -414 562 -414Q573 -413 585 -411Q597 -409 606 -401Q612 -399 617 -397Q621 -391 610 -374Q605 -376 598 -370Q591 -365 587 -366Q582 -370 576 -365Q569 -368 561 -366Q551 -371 543 -366Q535 -362 526 -360Q525 -356 519 -353Q512 -350 511 -346Q495 -336 481 -324Q473 -319 458 -306Q450 -301 443 -294Q439 -290 432 -285Q422 -279 420 -275Q410 -265 409 -257Q405 -250 407 -239Q405 -227 424 -235Q467 -250 509 -261Q563 -278 620 -289Q631 -292 641 -291Q647 -294 653 -295Q677 -297 701 -299Q728 -301 750 -291Q769 -286 784 -276Q790 -271 798 -265Q806 -259 810 -250Q817 -244 818 -235Q819 -226 822 -218Q819 -202 823 -174Q820 -168 820 -154Q820 -143 817 -137Q810 -121 814 -114Q807 -95 800 -77Q800 -73 794 -68Q788 -63 789 -59Q780 -44 773 -26Q769 -24 766 -18Q764 -14 761 -12Q758 2 749 9Q749 15 744 19Q739 22 734 26Q725 29 719 38Q712 47 705 55Q701 54 696 59Q692 63 689 62Q686 60 680 65Q676 68 673 68Q671 68 668 63Q662 62 655 60Q652 49 642 42Q639 34 628 36Q619 38 616 36Q608 39 598 38Q587 38 575 37Q554 37 532 36Q524 35 502 37Q496 37 490 36Q466 39 444 44Q433 43 403 34Q398 29 393 31Q388 33 383 33Q377 28 367 34Q357 40 352 37Q345 36 339 29Q334 22 329 16Q322 2 309 -8Q304 -20 299 -33Q301 -43 297 -50Q292 -57 288 -64Q292 -90 318 -172Q318 -177 323 -183Q329 -190 329 -194Q335 -202 344 -221Q355 -246 367 -255Q383 -266 398 -269Q405 -267 412 -270Q418 -274 423 -279Q450 -306 508 -356Q510 -361 514 -365Q519 -370 514 -374Q509 -372 492 -374Q448 -380 446 -380Q441 -375 440 -363Q439 -353 437 -349Q439 -335 428 -305Q425 -297 414 -300Q409 -297 406 -303Q402 -310 398 -309Q394 -317 389 -325Q380 -329 376 -342Q380 -366 382 -391Q383 -395 379 -395Q375 -395 373 -394Q366 -386 359 -378Q343 -371 335 -372Q332 -366 327 -364Q321 -362 315 -359Q311 -354 306 -349Q301 -344 296 -351Q304 -374 309 -382Q330 -406 350 -430Q353 -435 358 -440Q362 -445 360 -452Q357 -450 353 -452Q349 -454 348 -452Q327 -444 305 -437Q300 -437 288 -432Q273 -426 265 -430Q255 -428 245 -427Q214 -432 208 -434Q196 -440 182 -443Q168 -446 160 -458Q157 -457 156 -461Q155 -467 159 -462Q173 -456 213 -458Q239 -464 265 -471Q293 -481 318 -486Q330 -489 342 -492Q354 -495 366 -498Q374 -498 382 -499Q397 -504 398 -519Q399 -535 398 -549Q399 -555 400 -562Q401 -570 396 -573Q374 -563 351 -553Q348 -547 337 -539Q327 -532 324 -527Q329 -516 327 -503Q319 -501 309 -509Q301 -523 292 -532Q278 -543 277 -545Q269 -553 273 -567Q277 -574 283 -580Q289 -587 288 -596Q296 -619 334 -663Q338 -666 336 -668Q333 -671 328 -673Q323 -679 317 -679Q310 -679 305 -681Q304 -684 299 -685Q294 -686 293 -688Q298 -696 316 -698Q331 -705 345 -712Q361 -718 358 -738Q361 -742 363 -740Q365 -733 365 -728Q368 -720 375 -731Q402 -732 424 -741ZM688 -252L673 -251Q660 -248 647 -245Q631 -247 615 -241Q603 -240 591 -240Q574 -235 553 -234Q534 -231 515 -223Q511 -222 512 -220Q516 -216 524 -215Q530 -213 538 -211Q545 -209 548 -201Q554 -186 551 -178Q558 -170 550 -154Q538 -140 547 -129Q563 -133 580 -134Q583 -128 589 -123Q588 -119 591 -111Q582 -100 566 -100Q563 -99 545 -99Q537 -94 537 -84Q536 -74 537 -65Q533 -60 533 -46Q533 -31 528 -26Q523 -13 528 -4Q542 -9 567 -8Q590 -7 601 -10Q619 -7 637 -4Q642 1 652 5Q656 11 661 8Q666 5 668 -1Q678 -9 682 -19Q687 -29 693 -38Q705 -73 716 -97Q717 -101 721 -109L727 -121Q734 -147 741 -173Q740 -179 742 -187Q745 -198 743 -203Q747 -227 726 -243Q714 -248 701 -251Q693 -252 688 -252ZM491 -220Q481 -216 471 -217Q459 -213 446 -206Q440 -203 435 -203Q427 -203 411 -209Q405 -212 402 -206Q399 -201 396 -197Q390 -194 388 -182Q387 -163 379 -148Q374 -144 372 -123Q373 -113 368 -100Q367 -85 364 -69Q361 -54 371 -41Q372 -34 372 -26Q372 -18 379 -13Q384 -16 386 -10Q389 -2 391 -1Q391 8 399 11Q406 14 412 10Q432 9 483 -1Q490 1 495 -2Q501 -5 496 -12Q491 -46 501 -78Q504 -84 501 -88Q499 -91 493 -91Q486 -91 483 -86Q475 -84 456 -92Q454 -95 449 -92Q444 -89 441 -91Q435 -88 427 -98Q425 -102 426 -103Q431 -104 436 -105Q444 -111 464 -113Q482 -116 504 -124Q511 -153 509 -183Q510 -199 503 -212Q497 -219 491 -220Z"/>
</svg>