<svg xmlns="http://www.w3.org/2000/svg" viewBox="0 -800 1024 1024">
	<path fill="#000000" d="M369 -702H371Q376 -691 395 -689Q401 -685 407 -682Q413 -679 416 -673Q412 -653 392 -646Q384 -651 375 -635Q366 -620 352 -608Q344 -604 338 -596Q332 -592 334 -587Q336 -582 342 -582Q365 -561 369 -536Q373 -523 370 -507Q364 -496 375 -492Q397 -499 418 -507Q431 -508 443 -510Q452 -507 464 -512Q474 -510 486 -511Q497 -511 504 -504Q511 -503 504 -489Q501 -489 498 -486Q492 -481 488 -482Q481 -476 473 -476Q464 -476 456 -474Q452 -476 439 -475Q425 -474 418 -478Q403 -475 376 -483Q371 -487 369 -483Q366 -475 369 -469Q369 -453 368 -438Q367 -423 366 -408Q361 -400 363 -390Q365 -380 375 -379Q377 -376 383 -377Q389 -378 392 -376Q402 -379 447 -384Q460 -385 472 -387Q482 -388 491 -390Q500 -389 507 -391Q521 -391 529 -393Q531 -392 537 -394Q542 -396 546 -393Q547 -392 551 -393Q557 -394 557 -391Q561 -390 566 -392Q573 -394 577 -393Q594 -409 605 -432Q614 -450 622 -468Q630 -482 633 -497Q650 -532 656 -570Q657 -586 656 -604Q655 -622 640 -628Q633 -633 626 -632Q618 -631 611 -633Q586 -628 561 -624Q556 -625 545 -622Q535 -619 529 -621Q525 -618 508 -614Q495 -609 481 -605Q467 -601 455 -591Q454 -586 446 -586Q439 -586 439 -582Q427 -584 407 -594Q403 -597 398 -600L387 -604Q385 -607 380 -606Q375 -604 376 -599Q372 -597 360 -606Q362 -612 373 -615Q382 -617 384 -620Q395 -619 415 -627Q435 -634 455 -642Q472 -650 491 -653Q506 -657 521 -662Q546 -666 571 -670Q616 -677 646 -675Q648 -673 654 -672Q661 -671 664 -666Q672 -668 683 -661Q692 -655 697 -655Q708 -645 715 -633Q727 -592 717 -562Q711 -563 711 -558Q712 -551 712 -545Q708 -543 710 -534Q702 -525 698 -512Q698 -508 697 -503Q697 -498 693 -498Q684 -481 684 -478Q668 -442 658 -425Q657 -418 649 -408Q642 -399 641 -393Q635 -391 633 -381Q632 -375 630 -373Q625 -362 620 -351Q616 -350 610 -343Q601 -334 596 -335Q591 -328 583 -322Q577 -323 572 -335Q566 -348 557 -348Q555 -346 554 -347Q554 -350 552 -353Q544 -352 536 -351Q523 -352 510 -353Q496 -350 482 -348Q475 -348 467 -349Q463 -348 440 -345Q416 -343 411 -340Q407 -342 387 -339Q384 -337 376 -340Q368 -343 364 -339Q354 -337 348 -339Q337 -340 328 -353Q323 -351 321 -355Q319 -358 315 -361Q311 -360 307 -367Q304 -371 302 -373Q302 -377 295 -382Q288 -387 287 -393Q284 -400 288 -405Q292 -411 294 -418Q298 -444 302 -470Q304 -475 305 -486Q306 -501 311 -507Q311 -520 310 -533Q312 -535 310 -541Q309 -547 311 -549Q313 -560 302 -578Q290 -596 296 -608Q305 -626 316 -643Q343 -672 369 -702ZM526 -289L529 -288Q534 -289 542 -286Q550 -283 554 -285Q570 -281 583 -273Q585 -263 593 -258Q596 -248 598 -236Q600 -224 595 -213Q592 -199 586 -187Q588 -173 577 -163Q574 -153 571 -144Q562 -131 561 -118Q557 -117 557 -111Q557 -106 556 -104Q556 -101 553 -101Q548 -100 549 -97Q543 -87 536 -82Q522 -67 515 -52Q501 -42 496 -33Q482 -13 467 5Q470 11 478 11Q485 10 491 12Q505 10 518 7Q522 8 530 7Q538 5 542 8Q557 9 568 9Q574 10 591 16Q594 18 598 19Q606 20 608 24Q608 31 606 40Q597 49 591 51Q582 56 572 57Q533 54 499 56Q493 58 482 58Q469 58 464 60Q439 60 433 58Q416 55 413 56Q400 56 393 47Q395 41 391 38Q387 35 386 32Q380 26 378 17Q376 8 384 5Q390 5 391 0Q393 -5 393 -10Q405 -15 405 -21Q410 -20 416 -25Q429 -34 439 -47Q451 -55 462 -68Q467 -69 466 -75Q465 -80 461 -81Q471 -89 491 -115Q499 -124 496 -133Q456 -124 435 -114Q428 -112 420 -108Q413 -104 405 -108Q394 -107 384 -110Q376 -110 368 -110Q365 -107 360 -107Q355 -107 356 -113Q371 -130 408 -142Q430 -149 452 -157Q459 -157 470 -161Q485 -166 493 -164Q495 -165 510 -165Q519 -175 520 -189Q527 -215 527 -239Q530 -248 520 -251Q485 -244 450 -238Q445 -232 431 -232Q420 -226 403 -232Q389 -243 375 -251Q369 -254 370 -258Q371 -261 376 -258Q414 -268 451 -279Q472 -284 499 -286Q512 -288 526 -289Z"/>
</svg>