<svg xmlns="http://www.w3.org/2000/svg" viewBox="0 -800 1024 1024">
	<path fill="#000000" d="M367 -663Q371 -663 369 -658Q366 -651 362 -644Q359 -636 359 -626Q361 -623 357 -617Q353 -611 354 -607Q356 -599 351 -590Q352 -583 343 -577Q335 -572 334 -568Q334 -565 328 -558Q324 -554 323 -549Q307 -523 296 -510Q278 -492 272 -481Q258 -473 249 -457Q245 -451 240 -445Q235 -439 235 -430Q238 -427 247 -427Q256 -427 260 -425Q265 -426 272 -421Q279 -417 281 -416Q296 -408 304 -393Q311 -383 311 -369Q315 -358 312 -345Q306 -328 296 -311Q294 -301 286 -293Q283 -286 271 -276Q262 -268 258 -262Q254 -256 247 -250Q240 -245 241 -236Q246 -231 257 -228Q273 -223 278 -217Q285 -208 283 -199V-170Q284 -164 291 -169Q294 -176 310 -193Q324 -215 354 -239Q357 -243 359 -248Q362 -253 367 -251Q365 -245 363 -239Q362 -229 358 -220Q353 -216 354 -207Q355 -199 353 -196Q344 -194 344 -179Q339 -163 323 -138Q308 -114 304 -104Q297 -91 286 -81L266 -53Q264 -48 252 -24Q250 -11 238 -13Q229 -17 214 -35Q204 -47 195 -53Q181 -72 193 -78Q209 -111 211 -113Q218 -124 222 -144Q224 -150 225 -157L232 -182Q233 -187 235 -195Q237 -200 237 -206Q236 -213 229 -214Q212 -204 202 -206Q185 -220 179 -231Q169 -244 167 -264Q169 -272 180 -282Q191 -291 192 -298Q209 -311 212 -321Q227 -349 241 -377Q244 -381 240 -385Q237 -388 233 -385Q216 -380 199 -380Q192 -379 186 -375Q179 -372 174 -377Q172 -382 166 -390L157 -402Q153 -406 148 -419Q145 -427 141 -432Q137 -439 143 -444Q149 -448 152 -453Q152 -462 159 -463Q170 -467 178 -478Q185 -493 196 -506Q206 -518 215 -531Q221 -536 230 -547Q242 -562 249 -566Q261 -571 269 -583Q271 -591 278 -593Q285 -596 291 -600Q298 -611 325 -629Q332 -632 351 -647Q359 -655 367 -663ZM695 -568H699Q715 -564 724 -561Q741 -551 756 -535Q755 -523 764 -512Q759 -503 761 -492Q763 -488 758 -482Q753 -476 755 -471Q757 -465 753 -461Q749 -457 745 -452Q745 -443 739 -437Q733 -431 729 -424Q727 -418 713 -406Q706 -400 701 -393Q697 -391 698 -387Q699 -384 704 -381Q710 -373 699 -368Q696 -365 687 -363Q678 -361 674 -356Q669 -356 662 -349Q656 -343 653 -342Q644 -344 638 -332Q633 -330 630 -334Q627 -338 623 -340Q616 -343 601 -339Q585 -340 570 -317Q565 -310 559 -302Q553 -295 555 -284Q545 -263 536 -250Q526 -236 525 -220Q519 -197 512 -174Q513 -160 537 -140Q552 -131 567 -123Q588 -114 612 -106Q624 -104 635 -102Q662 -98 688 -95Q728 -95 768 -96Q790 -98 812 -101Q826 -102 839 -103Q843 -103 847 -103L876 -106Q884 -107 891 -108Q892 -108 893 -108Q899 -108 904 -108Q914 -106 920 -114Q924 -119 927 -130Q936 -162 938 -198Q940 -187 941 -176Q942 -167 944 -161Q950 -156 948 -150Q946 -143 945 -138Q949 -136 958 -122Q962 -109 969 -104Q969 -98 978 -92Q985 -88 987 -83Q985 -76 974 -68Q965 -61 962 -58Q963 -49 953 -46Q945 -44 937 -47Q930 -45 916 -48Q906 -50 900 -50Q898 -49 895 -49Q883 -48 870 -48Q837 -48 822 -46Q816 -46 809 -46Q752 -41 739 -41Q719 -40 700 -42Q662 -45 661 -45Q654 -52 645 -50Q630 -51 617 -56Q593 -63 568 -71Q524 -94 508 -108Q469 -150 467 -185Q468 -202 471 -218Q475 -226 472 -235Q481 -248 482 -252Q484 -262 489 -271Q499 -285 506 -301Q518 -312 509 -321Q505 -323 505 -325Q505 -329 510 -330Q515 -333 516 -337Q506 -346 518 -354Q520 -362 531 -362Q546 -362 549 -364Q572 -373 620 -387Q626 -385 636 -389Q661 -405 690 -478Q695 -493 695 -510Q695 -516 691 -518Q687 -521 682 -519Q670 -514 658 -510L643 -505Q635 -499 620 -499L605 -492Q599 -493 592 -488Q585 -484 581 -484Q564 -489 548 -491Q531 -493 514 -491Q510 -491 510 -493Q510 -495 512 -497Q531 -511 535 -511Q573 -532 603 -543Q631 -557 656 -561Q674 -566 695 -568Z"/>
</svg>