<svg xmlns="http://www.w3.org/2000/svg" viewBox="0 -800 1024 1024">
	<path fill="#000000" d="M588 -692Q610 -693 630 -691Q639 -693 648 -690Q656 -687 664 -686Q677 -680 690 -674Q699 -671 703 -660Q716 -655 718 -632Q726 -620 729 -606Q732 -598 733 -592Q738 -576 732 -562Q734 -558 729 -553Q725 -548 727 -546Q725 -523 719 -517Q720 -501 712 -485Q712 -482 708 -479Q702 -475 703 -471Q697 -452 690 -433Q685 -436 684 -433Q682 -428 682 -424Q669 -400 656 -377Q653 -374 645 -361Q638 -350 632 -345Q627 -340 626 -331Q625 -329 623 -330Q616 -327 613 -321Q610 -315 607 -310Q600 -302 593 -294Q589 -288 587 -281Q585 -279 582 -282Q567 -286 565 -288Q565 -293 558 -297Q551 -301 550 -305Q550 -311 545 -312Q541 -313 535 -314Q527 -306 521 -314Q511 -310 505 -312Q496 -312 491 -311H463Q458 -310 449 -310Q442 -308 430 -306Q414 -304 406 -300Q403 -301 394 -298Q383 -295 377 -299Q375 -296 372 -298Q370 -300 368 -299Q360 -304 329 -317Q326 -317 325 -319Q324 -322 323 -324Q321 -327 317 -325Q290 -331 256 -364Q223 -396 213 -424Q208 -435 211 -445Q214 -455 217 -465Q214 -479 223 -499Q229 -503 231 -512Q233 -520 235 -522Q233 -530 237 -535Q240 -540 241 -546Q245 -551 246 -562Q248 -579 256 -585Q262 -588 264 -598Q265 -606 269 -609Q273 -626 286 -643Q291 -648 298 -655Q305 -662 313 -659Q317 -663 321 -661Q325 -659 325 -654Q335 -641 336 -637Q336 -626 350 -637Q377 -654 437 -668Q495 -682 558 -688Q573 -690 588 -692ZM621 -653Q584 -644 568 -647Q555 -640 537 -640Q492 -632 487 -630Q480 -632 469 -628Q461 -625 455 -625Q435 -621 416 -615Q402 -610 386 -615Q377 -613 365 -619Q353 -624 346 -624Q341 -625 341 -621Q342 -613 343 -606Q338 -593 328 -584Q327 -581 314 -555Q310 -546 305 -537Q306 -528 302 -518Q298 -505 298 -500Q288 -480 288 -456Q286 -439 280 -437Q277 -425 283 -415Q288 -404 291 -393Q295 -382 303 -375Q307 -375 317 -363Q334 -353 329 -333Q328 -327 332 -327Q339 -328 345 -325Q373 -325 404 -338Q412 -365 420 -392Q424 -420 429 -446Q432 -458 415 -456Q401 -456 379 -464Q378 -465 375 -466Q365 -469 366 -471Q399 -478 431 -485Q436 -508 438 -532Q438 -537 438 -543L437 -564Q437 -569 437 -574Q439 -596 420 -604Q422 -606 438 -609Q442 -606 452 -606Q460 -606 464 -604Q469 -598 475 -594Q481 -590 482 -582Q482 -579 486 -571Q491 -561 488 -555Q483 -553 484 -545Q485 -537 482 -534Q486 -527 487 -518Q490 -515 486 -509Q482 -503 484 -499Q484 -494 490 -494Q496 -494 500 -494Q518 -498 521 -483Q519 -482 519 -477Q519 -471 515 -470Q501 -461 482 -463Q466 -462 471 -433Q467 -429 470 -422Q472 -417 472 -414Q469 -411 468 -401Q467 -392 464 -388Q457 -388 457 -383Q456 -375 453 -369Q454 -366 451 -360Q448 -354 449 -349Q452 -345 457 -345Q470 -347 482 -349Q490 -349 498 -350Q504 -349 517 -360Q545 -356 558 -357Q575 -351 582 -371Q583 -377 590 -388Q596 -398 598 -406Q607 -413 617 -435Q624 -450 630 -465Q631 -481 636 -495Q643 -510 645 -526Q659 -561 663 -599Q670 -628 638 -652Q630 -649 621 -653ZM464 -294H472Q478 -291 491 -291Q504 -291 510 -288Q522 -290 529 -282Q535 -273 542 -267Q553 -265 575 -272Q592 -277 602 -277Q614 -281 628 -283Q629 -282 642 -285Q644 -283 650 -281Q657 -279 660 -276Q675 -278 681 -272Q698 -268 705 -259Q703 -249 713 -246Q724 -248 728 -233Q732 -219 739 -218Q741 -212 739 -203Q736 -192 738 -188Q736 -183 736 -173Q736 -162 733 -157Q736 -148 732 -141Q727 -133 725 -125Q720 -113 712 -103Q713 -97 707 -89Q702 -81 702 -77L685 -51Q678 -50 676 -44Q674 -38 669 -32Q669 -24 664 -18Q658 -13 651 -8Q647 -8 644 -1Q641 5 638 5Q636 10 633 12Q629 14 626 17Q610 22 604 36Q582 47 575 55Q572 60 573 66Q572 68 569 66Q554 64 544 51Q532 46 527 35Q522 24 517 12Q514 9 509 0Q503 -12 496 -15Q488 -19 487 -23Q488 -24 492 -21Q501 -18 511 -15Q521 -11 532 -16Q536 -12 546 -12Q556 -12 561 -8Q570 -9 576 -17Q582 -25 588 -30Q599 -44 611 -56Q624 -68 631 -83Q659 -125 663 -133Q679 -162 684 -190Q685 -211 680 -230Q651 -240 628 -239Q604 -235 580 -232Q573 -229 568 -229Q558 -228 546 -225Q539 -223 531 -220Q524 -216 523 -209Q514 -198 508 -171Q497 -157 491 -145Q486 -142 484 -132Q482 -122 478 -119Q478 -113 469 -102Q460 -89 450 -78Q450 -74 443 -70Q434 -66 435 -59Q430 -57 419 -44Q410 -33 401 -30Q400 -26 395 -25Q389 -24 387 -21Q383 -16 376 -10Q371 -7 369 -13Q367 -17 364 -21Q360 -25 364 -29Q380 -41 400 -77Q414 -102 426 -115Q456 -177 459 -186Q465 -204 473 -218Q469 -223 463 -221Q457 -219 452 -218Q433 -217 414 -220Q406 -220 399 -221Q392 -221 394 -229Q416 -235 438 -242Q439 -243 457 -248Q466 -252 477 -253Q490 -254 492 -267Q498 -280 477 -285Q474 -287 469 -289Q463 -290 464 -294Z"/>
</svg>