<svg xmlns="http://www.w3.org/2000/svg" viewBox="0 -800 1024 1024">
	<path fill="#000000" d="M294 -694L367 -687Q383 -685 398 -674Q400 -671 410 -664Q423 -655 424 -645Q428 -638 425 -624Q423 -612 424 -607Q419 -603 418 -590Q418 -579 414 -575Q412 -569 403 -560Q396 -553 393 -548Q388 -528 366 -501Q364 -496 358 -490Q350 -483 349 -479Q342 -480 338 -473Q333 -466 329 -461Q329 -460 332 -436Q329 -426 331 -415Q334 -404 337 -394Q342 -387 335 -377Q330 -370 330 -365Q335 -354 335 -343Q335 -331 335 -319Q341 -313 336 -301Q333 -292 334 -286Q329 -275 332 -263Q335 -240 337 -217Q333 -213 336 -203Q338 -196 337 -193Q340 -185 334 -171Q328 -157 332 -150Q332 -138 331 -125Q331 -113 327 -102Q329 -80 315 -68Q301 -43 299 -33Q296 -30 293 -25Q288 -17 284 -15Q273 -24 268 -37Q263 -50 255 -62Q247 -67 248 -76Q249 -86 258 -88Q263 -93 266 -108Q268 -119 271 -124Q272 -133 272 -143Q272 -145 278 -199Q276 -207 279 -221Q282 -234 280 -240Q280 -246 277 -246Q270 -245 264 -241Q236 -209 220 -198Q212 -185 188 -176Q186 -182 180 -180Q174 -176 170 -180Q166 -184 166 -191Q169 -203 188 -224Q200 -237 205 -246Q212 -268 224 -285Q240 -299 243 -310Q256 -326 269 -342Q273 -358 280 -363Q281 -381 281 -399Q279 -402 280 -408Q281 -414 278 -414Q271 -401 261 -392Q256 -390 250 -384Q243 -376 237 -377Q228 -370 218 -363Q216 -357 206 -351Q199 -347 197 -343Q187 -344 183 -337Q181 -335 160 -319Q152 -314 139 -314Q132 -320 115 -318Q101 -317 94 -320Q92 -324 86 -325Q80 -326 77 -330Q87 -334 96 -341Q107 -348 145 -377Q156 -382 172 -405Q173 -412 182 -418Q190 -424 192 -428Q212 -451 249 -490Q261 -497 246 -515Q238 -534 220 -531Q215 -536 204 -534Q192 -532 187 -536Q171 -532 159 -535Q145 -540 130 -546Q124 -550 116 -555Q107 -560 112 -568Q130 -575 148 -572Q170 -577 205 -574Q221 -569 238 -567Q255 -565 269 -557Q274 -556 280 -548Q285 -541 290 -542Q307 -557 315 -575Q324 -594 334 -611Q348 -641 336 -654Q318 -660 300 -666Q289 -669 289 -676Q290 -677 292 -677Q299 -680 296 -685Q294 -690 294 -694ZM718 -606H731Q772 -600 790 -582Q797 -579 800 -572Q803 -565 808 -558Q808 -554 813 -546Q818 -539 818 -534Q817 -529 820 -521Q824 -513 822 -508Q824 -500 824 -479Q825 -475 822 -467Q819 -458 821 -453Q820 -444 825 -434Q820 -412 825 -404Q823 -392 821 -380Q821 -360 820 -349Q818 -331 816 -313Q816 -292 814 -282Q806 -274 808 -266Q807 -264 807 -256Q807 -247 803 -243Q800 -234 792 -216Q793 -209 788 -200Q783 -192 783 -188Q758 -157 735 -124Q720 -117 713 -127Q703 -135 702 -145Q705 -156 713 -170Q719 -183 725 -197Q723 -208 732 -219Q734 -236 739 -252Q741 -266 746 -278Q744 -295 749 -309Q752 -324 751 -335Q753 -344 755 -353Q753 -378 759 -396Q758 -448 757 -500Q750 -527 744 -542Q736 -553 733 -557Q725 -565 718 -562Q702 -562 689 -557L650 -544Q640 -541 629 -538Q611 -526 601 -525Q583 -539 567 -534Q554 -529 553 -513Q552 -500 559 -486Q558 -466 556 -446Q556 -421 555 -418Q550 -406 549 -392Q547 -389 548 -382Q549 -373 546 -369Q542 -361 542 -345Q542 -331 540 -325Q536 -319 537 -303Q538 -289 535 -282Q536 -277 533 -268Q529 -257 532 -251Q531 -241 530 -231Q531 -223 527 -216Q523 -213 525 -204Q527 -194 521 -190Q505 -193 493 -202Q484 -215 474 -223Q470 -243 467 -252Q465 -261 471 -269Q468 -275 472 -284Q476 -292 475 -296Q477 -335 483 -349Q490 -384 496 -420Q499 -431 501 -443Q502 -466 502 -490Q502 -510 489 -518Q483 -530 486 -537Q488 -543 495 -539Q500 -536 502 -537Q508 -537 516 -545Q526 -555 534 -553Q541 -550 549 -554Q556 -559 563 -562Q583 -568 602 -577Q643 -594 689 -601Q703 -605 718 -606ZM647 -266H648Q666 -263 684 -257Q692 -253 694 -242Q695 -235 694 -221Q694 -211 689 -201Q678 -181 667 -162Q664 -160 661 -152Q658 -145 654 -142Q648 -140 646 -135Q643 -130 640 -125Q638 -120 633 -116Q626 -109 625 -105Q628 -98 635 -99Q642 -100 649 -98Q655 -99 686 -99Q715 -97 727 -92Q743 -91 777 -83Q801 -76 824 -69Q834 -64 846 -61Q858 -57 866 -46Q866 -36 878 -33Q877 -26 878 -17Q881 -14 879 -8Q878 -2 880 1Q882 8 875 9Q868 11 863 13Q858 15 851 12Q844 9 840 10Q824 3 780 -20Q765 -25 750 -31Q736 -39 728 -39Q718 -47 709 -47Q689 -55 669 -64L630 -77Q626 -77 618 -80Q610 -83 605 -81Q601 -76 594 -72Q586 -68 584 -65Q581 -65 576 -60Q571 -55 567 -55Q562 -59 557 -51Q553 -45 549 -46Q545 -47 535 -44Q526 -42 521 -44Q527 -52 533 -60Q564 -98 590 -137Q596 -150 605 -161Q605 -172 616 -177Q622 -195 630 -211Q632 -223 632 -234Q638 -247 624 -253Q622 -256 610 -259Q606 -262 608 -264Q613 -267 619 -264Q633 -265 647 -266Z"/>
</svg>