<svg xmlns="http://www.w3.org/2000/svg" viewBox="0 -800 1024 1024">
	<path fill="#000000" d="M451 -751H467Q482 -750 496 -750Q509 -748 521 -747Q532 -749 543 -744Q552 -743 563 -740Q579 -732 582 -727Q580 -716 593 -712Q595 -708 592 -704Q588 -701 585 -698Q570 -698 554 -689Q534 -688 516 -688Q498 -694 480 -701Q455 -709 432 -719Q428 -721 399 -736Q397 -740 400 -741Q404 -742 407 -743Q412 -742 430 -747Q440 -751 451 -751ZM706 -699H711Q713 -695 720 -695Q728 -695 731 -692Q734 -693 736 -689Q737 -686 735 -684Q730 -679 736 -671Q742 -663 732 -658Q718 -658 712 -647Q704 -648 695 -643Q682 -647 670 -642Q654 -640 638 -638Q634 -635 627 -637Q619 -639 616 -637Q608 -630 598 -630Q585 -634 574 -628Q567 -630 555 -625Q546 -621 539 -622Q520 -626 500 -622Q486 -618 471 -616Q468 -617 447 -614Q436 -610 413 -608Q399 -602 374 -604Q366 -596 363 -583Q357 -578 356 -570Q354 -563 352 -555Q340 -546 346 -532Q344 -503 345 -494Q346 -490 341 -484Q336 -479 337 -475L336 -435Q332 -429 329 -419Q328 -407 329 -396Q329 -379 328 -362Q322 -344 321 -323Q313 -307 315 -297Q307 -290 310 -275Q307 -263 304 -252Q302 -248 301 -240Q300 -228 296 -224Q293 -219 291 -208Q287 -187 278 -166Q272 -161 270 -149Q268 -139 267 -137Q261 -131 255 -116Q251 -106 248 -101Q240 -98 238 -83Q235 -78 209 -39Q204 -37 198 -29Q193 -23 190 -21Q184 -15 176 -15Q168 -15 166 -24Q162 -40 150 -53Q148 -73 161 -81Q194 -137 196 -139Q218 -185 222 -195Q232 -227 235 -232Q237 -236 236 -241Q235 -243 232 -242Q221 -232 210 -222Q204 -217 202 -209Q199 -206 188 -205Q180 -205 176 -202Q169 -196 162 -207Q161 -215 153 -224Q143 -235 141 -238Q143 -271 159 -287L184 -332Q186 -353 202 -384Q201 -389 205 -395Q210 -405 206 -409Q201 -409 197 -410Q194 -410 194 -414Q198 -419 190 -427Q183 -433 186 -437Q192 -440 205 -439Q219 -438 224 -440Q232 -441 250 -435Q257 -437 267 -432Q275 -428 279 -428Q285 -434 286 -442Q287 -451 289 -459Q290 -462 289 -472Q288 -482 291 -487Q294 -503 297 -520Q299 -546 302 -550Q304 -581 313 -602Q312 -606 318 -613Q324 -619 320 -623Q315 -627 319 -630Q321 -632 327 -634Q333 -639 345 -639Q358 -643 363 -644Q400 -649 436 -654Q464 -659 491 -666Q517 -669 540 -675Q575 -681 577 -681Q580 -685 589 -684Q596 -683 599 -684Q602 -687 623 -689Q627 -692 639 -692Q649 -692 654 -695Q664 -698 676 -695Q692 -695 706 -699ZM514 -227L538 -246Q545 -254 552 -264Q560 -274 552 -281Q546 -278 539 -276Q536 -277 522 -274Q508 -276 493 -272Q471 -278 457 -292Q442 -309 448 -322Q454 -328 447 -337Q442 -340 445 -345Q447 -349 452 -351Q452 -354 450 -360Q447 -367 451 -371Q451 -383 458 -413Q458 -425 463 -436Q467 -441 468 -451Q469 -460 471 -463Q480 -521 528 -577Q541 -596 550 -615Q560 -614 569 -606Q579 -605 588 -598Q592 -599 594 -596Q596 -592 594 -588Q592 -578 587 -568Q586 -564 580 -560Q574 -557 573 -554Q572 -552 567 -548Q562 -544 561 -540Q564 -537 570 -541Q575 -544 577 -544Q604 -562 635 -568Q638 -570 667 -575Q691 -575 694 -574Q715 -576 725 -560Q731 -550 736 -544Q740 -529 743 -515Q741 -511 746 -505Q751 -500 750 -495Q741 -480 750 -464Q746 -455 746 -441Q735 -436 741 -417Q741 -410 743 -398Q738 -384 737 -367Q739 -354 737 -339Q735 -327 732 -316Q732 -304 728 -300Q729 -290 720 -275Q720 -270 714 -261Q709 -254 708 -248Q700 -242 688 -243Q740 -214 794 -190Q826 -176 860 -163Q894 -151 920 -129Q932 -125 933 -113Q934 -101 925 -94Q913 -90 901 -94Q889 -98 879 -101Q858 -97 836 -104Q826 -107 796 -121Q767 -137 737 -152Q706 -167 677 -187Q663 -193 640 -209Q617 -225 606 -230Q572 -206 537 -183Q538 -182 539 -182Q552 -179 558 -165Q550 -161 547 -156Q544 -141 540 -127Q537 -116 533 -106Q532 -97 531 -88Q540 -87 547 -93Q554 -98 562 -101Q571 -104 579 -111Q589 -116 599 -121Q602 -126 611 -134Q619 -142 622 -147Q618 -157 630 -171Q633 -175 638 -172Q642 -168 645 -166Q653 -160 656 -163Q661 -165 664 -163Q679 -156 685 -159Q699 -161 704 -155Q710 -157 711 -154Q711 -150 709 -146Q709 -130 699 -126Q694 -129 692 -126Q683 -122 674 -118Q664 -115 662 -112Q655 -109 647 -107Q640 -104 627 -93Q622 -92 618 -89Q610 -83 605 -83Q600 -83 596 -80Q591 -76 572 -71Q571 -67 561 -64Q555 -68 551 -63Q550 -60 543 -57Q538 -55 535 -52Q534 -46 536 -40Q536 -31 541 -26Q547 -22 555 -16Q569 -7 602 -1Q631 7 683 7Q715 9 723 13Q729 11 737 13Q743 18 746 31Q750 32 753 41Q756 50 750 51Q746 51 746 56Q746 60 745 61Q737 61 735 64Q727 65 717 61Q708 65 695 64Q661 61 626 58Q579 49 565 41Q553 36 540 31Q521 20 517 16Q485 -5 482 -41Q477 -44 478 -51Q485 -68 485 -87Q488 -107 491 -127Q496 -141 500 -155Q484 -143 467 -131Q442 -120 400 -86Q364 -77 353 -69Q350 -67 340 -67Q332 -67 335 -69Q354 -83 397 -123Q427 -151 449 -168Q453 -177 470 -187Q487 -197 491 -204Q498 -207 503 -217Q508 -226 514 -227ZM666 -536L654 -534Q628 -524 602 -515Q593 -513 585 -510Q569 -514 552 -519Q547 -522 545 -519Q543 -516 541 -512Q538 -503 534 -494Q535 -489 529 -483Q525 -478 524 -476Q522 -467 537 -470Q567 -479 601 -479Q609 -481 619 -477Q638 -480 645 -462Q646 -454 639 -450Q637 -449 625 -446Q616 -443 578 -446Q554 -452 543 -458Q531 -461 521 -459Q518 -450 516 -439Q510 -421 513 -401Q507 -396 506 -386Q507 -377 508 -369Q508 -368 505 -352Q505 -339 505 -327Q505 -321 505 -315Q506 -312 504 -307Q501 -301 503 -298Q506 -292 512 -296Q517 -300 522 -303Q538 -311 572 -325Q584 -330 594 -339Q601 -348 609 -340L638 -341Q653 -341 670 -337Q678 -344 678 -358Q680 -370 682 -375Q684 -387 685 -399Q684 -411 686 -420Q690 -433 689 -446Q689 -452 689 -458Q689 -478 689 -498Q686 -509 683 -521Q681 -528 677 -533Q671 -539 666 -536ZM552 -411Q559 -413 564 -410Q577 -412 593 -409Q602 -408 611 -407Q620 -406 627 -399Q637 -391 630 -381Q616 -369 601 -374Q582 -375 566 -379Q555 -377 546 -382Q538 -388 529 -391Q524 -393 519 -395Q514 -398 518 -403Q548 -408 552 -411ZM245 -390H244Q237 -381 229 -376Q224 -371 214 -357Q213 -345 209 -333Q209 -332 207 -321Q205 -309 197 -298Q191 -287 194 -283Q196 -278 204 -282Q213 -294 243 -318Q245 -324 255 -326Q260 -328 260 -336Q260 -344 263 -346Q266 -349 264 -356Q263 -362 264 -364Q264 -373 265 -380Q269 -388 261 -391Q253 -390 245 -390ZM653 -287Q645 -287 617 -285Q627 -282 643 -268Q642 -266 638 -262Q650 -259 682 -246Q671 -254 665 -264Q657 -274 659 -279Q662 -282 659 -286Q656 -290 653 -287Z"/>
</svg>