<svg xmlns="http://www.w3.org/2000/svg" viewBox="0 -800 1024 1024">
	<path fill="#000000" d="M645 -680Q649 -673 651 -678Q659 -676 663 -669Q665 -660 680 -656Q681 -654 687 -654Q694 -654 695 -649Q705 -647 709 -640Q713 -639 718 -638Q723 -638 722 -633Q718 -632 714 -631Q712 -630 715 -626Q719 -621 716 -616Q712 -612 710 -607Q712 -604 712 -599Q712 -593 708 -594Q701 -598 696 -590Q692 -582 686 -583Q682 -571 672 -564Q672 -561 668 -559Q664 -558 665 -554Q661 -550 659 -545Q657 -540 651 -540L640 -519Q645 -514 659 -511Q669 -509 674 -506Q677 -498 688 -491Q697 -485 700 -480Q698 -474 697 -468Q695 -461 687 -463Q678 -456 667 -458Q656 -459 644 -459Q634 -460 623 -459Q613 -457 605 -464Q593 -466 583 -479Q579 -490 574 -501Q575 -511 576 -522Q572 -531 581 -550Q586 -556 590 -569Q593 -580 596 -584Q607 -591 610 -602Q601 -602 591 -603Q588 -603 585 -604L573 -606Q553 -610 543 -614Q538 -613 532 -615Q524 -618 521 -616Q514 -602 531 -583Q533 -558 538 -534Q540 -531 535 -528Q531 -525 531 -522Q535 -512 535 -501Q537 -487 533 -477Q533 -459 533 -441Q531 -430 529 -420Q526 -402 531 -400Q544 -404 556 -408Q573 -414 590 -420Q602 -424 613 -425Q618 -428 622 -430Q626 -431 627 -426Q630 -430 641 -434Q669 -441 699 -445Q708 -447 717 -450Q728 -446 731 -453Q769 -461 807 -463Q815 -465 819 -464Q835 -465 851 -463Q861 -464 867 -458Q874 -461 882 -453Q893 -444 904 -435Q906 -428 917 -421Q927 -415 929 -411Q937 -406 930 -399Q932 -394 927 -387Q923 -381 924 -376Q927 -369 917 -361Q909 -355 908 -351Q904 -350 899 -346Q897 -341 894 -342Q886 -346 885 -343Q886 -337 884 -335Q882 -333 880 -331Q880 -322 866 -320Q863 -312 859 -311Q859 -308 852 -304Q845 -300 844 -295Q831 -292 829 -291Q821 -280 809 -273Q799 -263 793 -264Q786 -257 771 -248Q754 -238 748 -231Q745 -232 742 -229Q739 -226 737 -226Q732 -228 725 -224Q718 -220 713 -221Q709 -217 705 -212Q700 -207 692 -207Q691 -210 687 -210Q683 -209 682 -211Q677 -214 680 -217Q685 -222 688 -227Q697 -237 710 -243Q711 -245 716 -248Q722 -251 722 -255Q724 -257 723 -262Q723 -266 726 -267Q740 -277 761 -304Q768 -308 781 -325Q797 -345 811 -349Q816 -358 828 -369Q837 -376 845 -384Q853 -392 855 -403Q834 -414 807 -411Q803 -409 795 -411Q792 -406 787 -411Q785 -415 783 -414Q781 -411 783 -408Q769 -404 755 -401Q745 -402 734 -398Q732 -400 728 -397Q723 -394 720 -394Q705 -391 689 -388Q676 -385 663 -382Q637 -376 610 -371Q598 -370 588 -365Q581 -364 574 -363Q551 -356 527 -349Q510 -344 506 -339Q500 -323 493 -308Q494 -300 487 -294Q482 -270 480 -265Q473 -249 466 -234Q467 -230 464 -229Q460 -227 459 -227Q456 -225 458 -225Q463 -225 461 -223Q461 -219 456 -217Q450 -215 452 -210Q435 -179 413 -153Q411 -146 405 -142Q399 -138 393 -132Q381 -122 366 -113Q365 -114 363 -112Q360 -109 357 -113Q354 -115 350 -116Q346 -118 345 -123Q340 -127 345 -136Q348 -143 344 -144Q325 -155 309 -170Q308 -174 303 -174Q296 -175 295 -179Q271 -193 243 -197Q232 -203 229 -191Q224 -188 218 -178Q213 -169 207 -167Q205 -161 197 -149Q197 -142 189 -137Q182 -133 181 -130Q176 -131 171 -123Q167 -116 164 -116Q161 -111 143 -101Q142 -105 141 -111Q141 -117 134 -116L158 -151Q167 -168 176 -186Q178 -198 186 -206Q190 -231 203 -252Q208 -271 213 -291Q214 -304 217 -316Q215 -319 218 -326Q221 -333 219 -335Q222 -343 224 -358Q223 -361 223 -365Q223 -372 217 -371Q211 -365 197 -360Q194 -352 190 -345Q181 -322 178 -294Q168 -293 159 -283Q155 -282 153 -277Q151 -273 149 -274Q144 -291 132 -321Q132 -324 130 -326Q122 -331 126 -335Q124 -367 132 -388Q137 -397 142 -406Q156 -426 164 -446Q165 -450 165 -451Q170 -451 174 -441Q178 -435 179 -417Q180 -407 182 -399Q183 -398 185 -384Q187 -375 194 -374Q203 -382 214 -388Q215 -390 220 -392Q225 -393 226 -396Q233 -400 235 -423Q238 -446 241 -469Q242 -475 242 -504Q246 -521 243 -541Q246 -548 242 -553Q237 -559 232 -564Q228 -563 226 -569Q224 -574 221 -576Q217 -584 225 -589Q230 -590 235 -592Q241 -591 246 -581Q249 -574 252 -572Q261 -574 269 -569Q273 -566 279 -564Q285 -561 284 -554Q287 -535 286 -515Q287 -512 287 -504Q284 -488 284 -472Q284 -458 284 -445Q282 -440 285 -439Q292 -438 296 -443Q291 -450 294 -458Q309 -464 326 -464Q330 -468 340 -465Q348 -462 352 -464Q363 -462 374 -463Q400 -468 415 -451Q416 -443 420 -440Q424 -439 424 -436Q426 -429 417 -428Q411 -432 408 -421Q399 -424 398 -418Q395 -413 391 -416Q387 -419 384 -418Q374 -417 366 -420Q358 -420 350 -420Q326 -420 301 -410Q273 -402 276 -389Q274 -374 271 -360Q268 -356 270 -349Q270 -342 270 -336Q267 -301 260 -268Q256 -254 251 -240Q251 -234 254 -234Q258 -234 261 -234Q262 -232 267 -233Q272 -234 274 -232Q278 -237 282 -232Q286 -227 290 -227Q291 -225 292 -225Q293 -228 296 -227Q310 -233 319 -246Q322 -252 328 -252Q339 -276 344 -292Q345 -304 344 -291Q344 -279 344 -267Q343 -255 342 -243Q343 -232 344 -222Q345 -215 342 -209Q350 -196 358 -192Q359 -187 362 -187Q367 -186 368 -192Q379 -213 391 -231Q395 -237 398 -244Q404 -253 415 -285Q416 -292 421 -300Q425 -307 423 -315Q413 -313 402 -312Q384 -312 382 -313Q377 -312 375 -317Q373 -321 375 -325Q395 -332 398 -332Q401 -334 403 -338Q405 -341 409 -341Q411 -345 420 -349Q447 -359 446 -376Q463 -429 466 -440Q469 -446 476 -485Q480 -496 480 -509Q483 -534 484 -560Q484 -586 493 -609Q497 -614 503 -619Q501 -624 510 -628Q518 -626 531 -635Q530 -639 534 -639Q539 -639 542 -639Q552 -641 560 -646Q564 -645 571 -648Q579 -651 583 -648Q584 -652 588 -653Q593 -655 594 -658Q610 -663 624 -672Q625 -674 626 -674Q629 -670 632 -672Q638 -671 640 -674Q642 -678 645 -680ZM603 -204L616 -203Q637 -197 645 -192Q649 -197 654 -195Q660 -194 666 -194Q676 -195 681 -188Q685 -182 692 -177Q695 -167 682 -151Q680 -144 675 -139Q669 -135 667 -128Q659 -122 654 -105Q650 -91 646 -86Q642 -59 645 -48Q648 -31 667 -29Q686 -24 705 -20Q707 -15 720 -11Q727 -9 734 -7Q776 8 781 10Q798 12 801 26Q796 30 800 36Q794 39 798 48Q799 50 800 51Q800 54 796 55Q793 65 783 61Q782 65 771 65Q769 67 766 63Q765 63 764 64Q743 60 735 54Q717 47 701 34Q697 35 684 29Q675 29 660 14Q655 8 645 0Q643 -4 639 -8Q634 -12 638 -17Q627 -23 619 -48Q611 -56 609 -70Q610 -72 609 -78Q607 -87 612 -90Q608 -97 613 -106Q614 -117 623 -136Q629 -150 631 -157Q617 -163 599 -164Q586 -167 573 -169Q559 -171 550 -181Q548 -183 544 -186Q539 -190 543 -193Q559 -190 581 -197Q592 -196 603 -204Z"/>
</svg>