<svg xmlns="http://www.w3.org/2000/svg" viewBox="0 -800 1024 1024">
	<path fill="#000000" d="M592 -687H595Q606 -679 619 -685Q628 -680 638 -676Q648 -673 654 -663Q670 -655 671 -637Q670 -620 669 -603Q668 -585 658 -573Q654 -561 639 -538Q638 -534 631 -527Q622 -518 621 -511Q614 -504 605 -497Q597 -490 593 -479Q580 -462 565 -449Q559 -438 553 -428Q552 -424 546 -419Q539 -412 538 -407Q535 -402 539 -400Q544 -398 549 -400Q583 -405 597 -402Q620 -399 639 -390Q650 -389 650 -371Q649 -367 651 -357Q653 -348 650 -343Q652 -340 648 -332Q645 -325 648 -321Q644 -302 631 -286Q619 -270 608 -254Q605 -249 601 -244Q597 -238 605 -235Q608 -236 637 -239Q681 -245 726 -202Q737 -197 741 -186Q744 -176 748 -166Q747 -144 739 -99Q733 -80 726 -61Q723 -48 715 -37Q707 -27 701 -16Q693 -10 684 -4Q673 14 656 29Q640 36 627 43Q619 49 605 47Q601 49 585 46Q579 43 583 38Q590 33 595 29Q633 1 645 -23Q654 -41 664 -59Q673 -77 676 -96Q677 -98 683 -135Q683 -147 684 -161Q685 -176 673 -182Q657 -193 636 -197Q604 -195 597 -192Q583 -192 568 -187Q549 -185 534 -172Q530 -174 528 -170Q527 -167 524 -165Q523 -164 521 -162Q517 -152 512 -155Q506 -149 499 -148Q494 -155 494 -170Q497 -180 493 -186Q500 -195 496 -206Q496 -209 493 -212Q489 -215 490 -218Q484 -221 487 -228Q490 -234 496 -235Q501 -235 506 -244Q512 -254 519 -254Q527 -260 539 -279Q547 -292 553 -298Q569 -328 581 -360Q585 -366 580 -368Q573 -370 566 -369Q547 -370 532 -364Q522 -365 508 -356Q500 -355 491 -345Q486 -343 481 -333Q476 -323 470 -321Q456 -342 455 -350Q454 -367 452 -384Q450 -390 447 -397Q444 -403 450 -407Q459 -419 466 -433Q473 -447 485 -458Q504 -494 526 -520Q538 -542 560 -569Q583 -601 603 -635Q615 -647 605 -663Q601 -665 599 -670Q597 -676 593 -677Q589 -678 589 -682Q589 -685 592 -687ZM324 -670Q327 -670 329 -670Q347 -657 349 -645L343 -633Q339 -625 336 -622Q332 -606 320 -594Q309 -579 298 -564Q285 -546 272 -528Q253 -490 235 -474Q225 -457 215 -440Q215 -436 209 -430Q202 -422 206 -417Q236 -419 257 -411Q268 -407 277 -400Q290 -394 293 -380Q298 -370 295 -353Q293 -338 282 -324Q271 -305 259 -286Q248 -272 237 -259Q236 -255 228 -247Q219 -238 217 -231Q224 -228 231 -225Q234 -221 245 -219Q253 -217 257 -215Q271 -209 278 -191Q290 -185 287 -168Q288 -153 288 -138Q301 -147 313 -160Q333 -192 355 -224Q356 -228 358 -229Q362 -229 361 -222Q356 -209 351 -196Q348 -193 347 -184Q346 -175 342 -171Q332 -144 320 -129Q315 -120 310 -112Q298 -98 291 -84Q284 -71 273 -61Q263 -51 251 -39Q251 -31 245 -19Q241 -15 237 -10Q232 -5 227 -8Q221 -5 213 -15Q212 -20 207 -25Q202 -30 201 -34Q195 -35 194 -46Q193 -53 191 -55Q191 -60 181 -62Q168 -65 169 -74Q174 -76 178 -86Q183 -97 190 -99Q203 -128 214 -161Q215 -169 218 -179Q220 -188 215 -196Q206 -201 189 -194Q178 -190 167 -187Q163 -187 161 -193L142 -213Q135 -221 132 -233Q128 -242 136 -249Q136 -262 143 -271Q164 -286 180 -312Q189 -328 204 -343Q217 -361 220 -382Q206 -386 189 -375Q186 -376 179 -374Q172 -372 168 -374Q159 -367 153 -375Q140 -380 132 -393Q123 -406 127 -418Q126 -428 131 -436Q136 -445 139 -452Q149 -458 155 -468Q161 -477 168 -486Q205 -519 235 -557Q252 -575 268 -594Q290 -623 311 -647Q322 -658 324 -670ZM732 -351Q743 -352 755 -350Q774 -350 783 -351Q807 -353 831 -350Q853 -347 875 -345Q884 -344 893 -344Q896 -342 903 -341Q911 -340 914 -337Q926 -326 928 -316Q926 -310 930 -305Q934 -300 937 -296Q942 -291 935 -280Q928 -269 932 -263Q930 -258 927 -258Q923 -259 918 -258Q891 -268 864 -278Q848 -290 831 -295Q798 -308 786 -316Q780 -318 769 -329Q757 -341 747 -343Q743 -345 737 -346Q731 -346 732 -351Z"/>
</svg>