<svg xmlns="http://www.w3.org/2000/svg" viewBox="0 -800 1024 1024">
	<path fill="#000000" d="M546 -800H549Q562 -802 568 -795Q595 -799 609 -783Q615 -766 603 -754Q605 -737 595 -715Q597 -710 600 -711Q603 -713 608 -714Q611 -712 616 -714Q623 -716 625 -714Q626 -711 632 -711Q649 -709 651 -708Q671 -706 677 -699Q683 -695 679 -691Q674 -687 670 -684Q665 -681 660 -676Q654 -670 649 -674Q642 -676 632 -669Q622 -662 616 -663Q604 -653 602 -651Q598 -650 594 -646Q589 -641 585 -641Q575 -631 564 -624Q561 -624 554 -618Q546 -612 541 -611Q536 -606 527 -601Q516 -589 503 -581Q478 -565 468 -562L487 -581Q555 -649 570 -668Q574 -674 569 -676Q565 -679 561 -681Q553 -694 545 -707Q539 -711 537 -726Q534 -731 535 -740Q536 -753 532 -757Q512 -751 503 -741Q479 -728 456 -710Q448 -708 446 -701Q444 -695 440 -690Q434 -688 431 -677Q428 -667 425 -664Q422 -650 419 -639Q422 -636 420 -628Q418 -621 421 -617Q420 -609 412 -610Q405 -611 400 -616Q385 -616 383 -629Q376 -636 368 -659Q369 -667 373 -675Q367 -677 362 -673Q356 -668 350 -666Q343 -668 334 -656Q335 -652 329 -649Q326 -648 325 -645Q324 -637 312 -623Q303 -615 294 -634Q286 -637 283 -645Q280 -653 275 -661Q269 -667 273 -676Q276 -684 280 -691Q290 -707 305 -725Q310 -729 316 -736Q322 -743 329 -737Q338 -738 342 -725Q345 -724 348 -718Q352 -710 357 -711Q365 -717 376 -716Q386 -715 396 -717Q399 -714 407 -714Q414 -714 415 -712Q418 -708 416 -705Q414 -703 413 -699Q410 -694 413 -692Q417 -690 419 -695Q442 -717 464 -739Q479 -752 493 -765Q496 -769 510 -778Q523 -786 527 -794Q543 -799 546 -800ZM427 -412Q432 -410 441 -416Q446 -420 450 -420Q473 -429 495 -438Q524 -447 552 -456Q584 -467 618 -471Q630 -473 642 -475Q648 -474 658 -474Q677 -475 698 -470Q719 -466 725 -460Q730 -462 733 -456Q736 -451 738 -450Q752 -448 759 -435Q761 -427 767 -417Q776 -401 777 -394Q782 -384 779 -372Q781 -362 776 -353Q771 -345 769 -337Q767 -321 758 -306Q758 -301 752 -293L745 -285Q739 -277 739 -272Q727 -257 715 -242Q714 -236 710 -232Q706 -228 703 -224Q695 -214 691 -205Q686 -208 682 -203Q679 -199 678 -194Q669 -188 661 -178Q656 -179 655 -177Q653 -174 652 -171Q648 -166 642 -161Q641 -158 645 -157L678 -164Q687 -167 695 -176Q716 -174 737 -173Q744 -175 757 -175Q759 -172 767 -173Q775 -174 777 -171Q776 -165 780 -164Q785 -163 788 -161Q789 -153 789 -145Q791 -142 789 -139Q786 -135 783 -137Q782 -137 781 -137L777 -135Q776 -135 775 -135Q765 -128 752 -129Q738 -129 726 -128Q713 -128 706 -125Q696 -125 676 -119Q654 -113 642 -113Q639 -117 635 -112Q631 -107 626 -110Q608 -106 586 -103Q570 -103 552 -97Q549 -78 549 -59Q550 -55 548 -49Q546 -43 547 -40Q548 -33 549 -27Q551 -23 548 -12Q545 -3 547 2Q546 6 548 15Q551 26 547 31Q546 54 540 76Q538 78 536 86Q534 96 529 98Q523 96 517 93Q508 87 503 76Q497 76 496 72Q494 68 494 65Q490 63 489 58Q488 53 486 52Q486 37 494 23Q492 7 496 -9Q492 -30 496 -49Q495 -62 494 -76Q494 -83 493 -85Q491 -88 486 -86Q469 -83 451 -80Q441 -75 415 -71Q401 -69 391 -66Q374 -63 357 -64Q345 -63 330 -65Q306 -67 262 -79Q260 -79 260 -80Q261 -82 266 -83Q301 -89 336 -96Q359 -99 438 -118Q464 -124 490 -131Q498 -133 497 -140Q496 -148 498 -152Q497 -160 495 -169Q497 -173 493 -174Q488 -175 484 -173Q468 -169 452 -169Q439 -172 425 -175Q419 -175 414 -171Q400 -172 389 -178Q378 -179 371 -185Q364 -191 356 -197Q347 -203 341 -213Q336 -223 328 -232Q320 -235 320 -247Q318 -256 315 -265Q319 -293 325 -309Q337 -337 349 -366Q349 -377 355 -385Q359 -392 363 -400Q369 -406 375 -408Q386 -412 389 -417Q394 -418 399 -427H401Q415 -434 427 -445Q443 -465 464 -480Q464 -488 475 -494Q475 -497 480 -502Q486 -508 484 -511Q478 -513 484 -517Q488 -522 490 -527Q489 -529 485 -529Q470 -522 455 -515Q454 -511 416 -492Q415 -489 406 -478Q402 -472 386 -476Q384 -480 375 -482Q366 -485 363 -489Q357 -493 349 -498Q344 -502 350 -507Q352 -512 353 -517Q354 -522 361 -525Q365 -533 368 -541Q372 -550 372 -559Q370 -562 373 -565Q375 -567 379 -563Q411 -555 414 -537Q413 -534 417 -533Q422 -532 426 -535Q456 -546 482 -559Q492 -562 503 -569Q509 -570 513 -577Q519 -585 526 -587Q540 -586 550 -581Q564 -577 578 -575Q593 -575 596 -566Q600 -563 597 -558Q595 -554 595 -552Q592 -550 589 -544Q585 -537 581 -536Q575 -536 567 -526Q561 -519 550 -516Q545 -515 543 -509Q541 -503 537 -502Q526 -492 510 -483Q502 -474 493 -465Q480 -455 478 -454Q472 -452 465 -450Q463 -448 462 -443Q461 -436 456 -433Q453 -429 443 -424Q430 -417 428 -412ZM677 -430L675 -429Q669 -430 653 -428Q637 -426 628 -428Q618 -425 600 -419Q594 -419 588 -416L580 -414Q574 -411 568 -411Q566 -409 561 -409Q554 -409 551 -405Q535 -401 519 -397Q514 -393 519 -389Q526 -385 530 -383Q543 -381 545 -363Q549 -353 549 -343Q546 -330 547 -318Q547 -311 552 -309Q556 -308 559 -304Q566 -304 568 -296Q571 -287 565 -283Q564 -278 556 -275Q549 -272 547 -269Q547 -252 547 -235Q545 -229 548 -224Q551 -218 558 -222Q570 -225 580 -225Q593 -225 600 -227Q620 -225 634 -229Q651 -231 662 -249Q662 -255 672 -266Q680 -275 682 -282Q685 -285 685 -293Q684 -302 689 -305Q711 -342 718 -384Q722 -407 690 -425Q684 -429 677 -430ZM418 -410Q415 -410 407 -399Q408 -394 406 -384Q404 -371 407 -364L398 -341Q383 -323 380 -299Q377 -294 376 -279Q375 -267 372 -261Q369 -255 379 -248Q387 -242 387 -237Q379 -230 389 -222Q393 -220 398 -214Q405 -206 410 -204Q421 -200 455 -205Q462 -205 469 -205Q470 -205 488 -210Q498 -213 496 -222Q496 -227 496 -232L494 -252Q494 -257 494 -262Q497 -268 491 -270Q490 -270 480 -272Q459 -277 454 -276Q444 -278 431 -279Q419 -280 413 -288Q441 -296 468 -304Q475 -306 485 -308Q494 -309 498 -318Q498 -335 494 -356Q497 -374 487 -390Q481 -397 472 -397Q463 -396 454 -398Q444 -400 433 -397Q429 -391 424 -396Q420 -401 424 -406Q427 -408 425 -410Q421 -412 418 -410ZM604 -187H599Q588 -186 577 -185Q563 -185 558 -183Q551 -182 549 -175Q548 -168 547 -161Q549 -145 551 -142Q588 -144 612 -150Q617 -151 623 -152Q629 -154 627 -158Q621 -168 614 -178Q614 -192 604 -187Z"/>
</svg>