<svg xmlns="http://www.w3.org/2000/svg" viewBox="0 -800 1024 1024">
	<path fill="#000000" d="M693 -655H694Q703 -651 711 -648Q724 -649 737 -646Q743 -647 745 -644Q747 -640 750 -637Q754 -637 754 -631Q754 -626 757 -624Q757 -616 757 -609Q754 -607 754 -602Q754 -598 752 -596Q754 -574 749 -556Q745 -549 748 -542Q750 -535 751 -528Q747 -521 749 -501Q745 -496 747 -485Q750 -472 744 -466Q743 -452 747 -437Q750 -422 740 -412Q740 -406 741 -401Q742 -395 747 -394Q771 -413 784 -420Q783 -424 785 -424Q789 -424 793 -427Q792 -432 795 -432Q799 -433 802 -435Q808 -436 823 -441Q835 -443 845 -447Q855 -450 864 -443Q869 -445 870 -442Q871 -437 874 -434Q879 -434 879 -431Q879 -425 872 -424Q869 -420 859 -416Q852 -413 850 -410Q844 -407 838 -405Q832 -403 829 -397Q825 -399 822 -393Q819 -388 817 -387Q805 -382 798 -375Q787 -367 776 -359Q768 -353 762 -345Q753 -337 744 -329Q737 -314 743 -302Q745 -291 741 -283Q738 -278 740 -265Q743 -262 742 -256Q741 -249 744 -247Q746 -224 757 -205Q763 -187 793 -168Q808 -160 842 -149Q844 -146 849 -146Q856 -147 859 -144Q876 -140 892 -136Q898 -136 902 -133Q905 -129 908 -126Q918 -127 922 -120Q926 -113 931 -105Q936 -103 934 -100Q930 -95 931 -90Q935 -84 930 -79Q924 -73 919 -69Q912 -64 900 -69Q898 -69 896 -70L885 -73Q883 -73 881 -74Q870 -80 867 -79Q862 -77 854 -81Q848 -84 846 -84Q832 -88 818 -93Q799 -100 785 -112Q777 -117 768 -122Q760 -128 751 -137Q738 -144 726 -156Q728 -161 726 -163Q724 -165 721 -161Q709 -173 700 -189Q690 -210 683 -233Q679 -252 674 -271Q668 -268 660 -261Q651 -252 647 -250Q623 -228 598 -206Q594 -207 591 -200Q588 -193 583 -196Q576 -183 572 -179Q561 -172 551 -163Q546 -160 539 -151Q531 -141 524 -138Q517 -135 509 -124Q503 -116 499 -113Q494 -112 488 -103Q483 -96 479 -95Q473 -91 464 -97Q456 -102 452 -101Q445 -105 436 -117Q428 -128 423 -131Q411 -136 414 -150Q412 -153 410 -161Q408 -169 405 -172Q404 -185 403 -198Q400 -202 403 -210Q405 -216 404 -219Q407 -223 406 -231Q405 -241 408 -244Q410 -280 424 -337Q431 -354 437 -371Q440 -384 445 -397Q449 -414 454 -431Q458 -447 471 -459Q473 -463 475 -462Q478 -456 483 -456Q488 -450 494 -444Q501 -438 501 -430Q505 -426 503 -414Q501 -402 502 -397Q502 -391 504 -383Q505 -376 512 -377Q519 -376 528 -380Q539 -385 545 -383Q548 -387 553 -387Q558 -387 559 -389V-390Q559 -391 564 -390Q560 -388 560 -385Q560 -383 562 -381Q567 -376 571 -381Q589 -381 596 -359Q591 -347 574 -345Q571 -343 565 -342Q559 -341 557 -338Q521 -325 515 -324Q513 -323 505 -322Q497 -321 493 -317Q492 -304 485 -292Q484 -279 480 -270Q481 -265 477 -259Q473 -254 475 -250Q477 -245 472 -238Q466 -230 470 -226Q469 -222 471 -214Q473 -207 470 -204Q467 -200 468 -193Q469 -187 466 -184Q468 -180 468 -174Q468 -165 471 -161L492 -175Q512 -195 537 -216Q545 -223 553 -230Q564 -239 575 -248L606 -276Q623 -290 636 -302Q643 -309 653 -314L679 -338Q680 -359 681 -381Q681 -424 682 -429Q682 -431 685 -465Q688 -499 691 -534Q690 -546 693 -576Q696 -609 693 -627Q690 -631 675 -641Q667 -642 675 -653Q685 -649 693 -655ZM295 -507L309 -506Q314 -505 316 -497Q317 -491 319 -489Q325 -485 321 -474Q322 -462 301 -448Q292 -433 283 -419Q277 -413 269 -400Q261 -387 256 -382Q246 -374 232 -352Q223 -338 216 -330Q213 -327 215 -324Q216 -321 220 -320Q233 -327 246 -328Q263 -337 283 -342Q285 -343 301 -343Q307 -346 326 -344Q337 -344 344 -339Q346 -337 348 -336L357 -329Q359 -327 361 -326Q362 -305 362 -284Q362 -281 359 -276Q355 -270 357 -265Q358 -259 355 -256Q351 -253 347 -250Q342 -243 331 -236Q320 -229 318 -227Q312 -226 308 -222Q303 -217 309 -213Q326 -215 336 -206Q341 -204 339 -200Q337 -195 335 -192Q341 -178 336 -174Q331 -176 324 -171Q318 -167 315 -168Q305 -176 281 -174Q268 -173 255 -173Q245 -174 235 -176Q231 -176 228 -173Q221 -169 225 -156Q226 -149 220 -144Q217 -142 209 -137Q202 -133 198 -144Q195 -150 189 -157Q181 -165 180 -170Q171 -181 176 -192Q179 -203 179 -213Q181 -222 183 -244Q184 -250 184 -256Q183 -259 185 -266Q187 -274 182 -275Q166 -267 163 -258Q153 -253 137 -235Q120 -216 109 -211Q104 -211 95 -202Q89 -196 84 -195Q69 -197 63 -189Q56 -188 46 -180Q42 -182 44 -186Q47 -190 50 -192Q52 -198 62 -208Q69 -215 72 -220Q89 -241 105 -262Q131 -298 141 -317Q184 -376 226 -435Q228 -439 225 -441Q221 -444 219 -441Q212 -437 204 -436Q200 -436 194 -433Q186 -429 181 -432Q161 -433 147 -440Q143 -443 133 -444Q121 -445 118 -450Q128 -454 137 -459Q166 -471 195 -483Q230 -498 239 -499Q249 -506 260 -503Q275 -508 295 -507ZM292 -298H291Q272 -294 252 -290Q237 -296 230 -281Q228 -271 230 -262Q231 -237 228 -212Q227 -200 247 -206Q260 -211 272 -216Q275 -233 287 -245Q299 -276 302 -290Q305 -295 300 -298Q296 -301 292 -298Z"/>
</svg>