<svg xmlns="http://www.w3.org/2000/svg" viewBox="0 -800 1024 1024">
	<path fill="#000000" d="M520 -747Q525 -747 534 -743Q541 -740 547 -739Q555 -738 566 -737Q578 -725 575 -716Q573 -702 565 -690Q567 -674 564 -667Q557 -647 565 -630Q565 -625 562 -618Q559 -611 566 -606Q587 -625 600 -627Q615 -624 633 -625Q643 -623 652 -622Q663 -625 668 -613Q672 -609 670 -604Q669 -599 669 -594Q660 -587 652 -577Q649 -576 646 -576L635 -573Q632 -572 629 -572Q626 -570 619 -559Q612 -548 604 -544Q597 -540 590 -535Q584 -530 576 -530Q558 -522 546 -506Q543 -501 539 -504Q535 -507 537 -511Q541 -526 552 -540Q553 -546 556 -552Q559 -558 554 -563Q547 -559 542 -559Q537 -559 532 -564Q526 -570 520 -567Q512 -572 510 -581Q510 -587 506 -595Q501 -606 502 -612Q502 -626 504 -631Q507 -658 507 -684Q508 -689 509 -695Q510 -700 503 -700Q484 -695 463 -670Q454 -669 445 -656Q434 -654 431 -643Q417 -635 415 -627Q405 -623 399 -609Q382 -598 373 -571Q375 -562 377 -554Q380 -541 362 -539Q350 -536 342 -546Q335 -554 333 -566Q329 -578 329 -590Q311 -593 305 -575Q303 -572 294 -566Q283 -559 281 -552Q264 -543 259 -533Q252 -531 240 -538Q232 -543 228 -543Q223 -542 221 -547Q219 -552 222 -555Q226 -571 230 -587Q231 -599 238 -607Q246 -615 252 -624Q272 -645 285 -669Q287 -673 293 -679Q303 -688 302 -695Q305 -699 307 -704Q310 -709 316 -708Q333 -699 344 -690Q350 -678 355 -667Q357 -660 354 -655Q351 -649 349 -643Q349 -640 346 -636Q342 -631 345 -627Q355 -626 358 -614Q360 -606 367 -606Q378 -606 382 -616Q458 -702 505 -735Q514 -739 520 -747ZM602 -468L609 -467Q611 -466 631 -461Q636 -460 649 -445Q659 -434 669 -436Q677 -442 687 -443Q697 -444 707 -445Q723 -448 741 -446Q751 -447 759 -442Q768 -436 777 -432Q782 -430 787 -428Q792 -425 795 -419Q792 -410 803 -401Q805 -398 804 -393Q802 -387 803 -384Q805 -366 800 -359Q801 -350 796 -344Q790 -338 784 -331Q780 -319 773 -313Q772 -310 765 -303Q757 -294 756 -288Q749 -283 741 -269Q739 -265 743 -263Q745 -262 750 -264Q758 -267 768 -267Q782 -268 794 -275Q801 -278 806 -274Q811 -270 817 -268Q825 -265 837 -266Q854 -261 859 -257Q862 -254 868 -252Q873 -250 874 -244Q872 -237 876 -227Q872 -226 865 -220Q857 -213 852 -213Q844 -213 838 -216Q821 -215 804 -214Q791 -214 767 -210Q750 -207 732 -205Q717 -207 709 -201Q696 -203 687 -202Q680 -198 663 -196Q650 -194 636 -192Q628 -191 626 -184Q624 -178 622 -171Q623 -159 612 -149Q605 -134 597 -120Q595 -116 590 -112Q586 -108 590 -103Q627 -102 664 -99Q667 -99 669 -99L680 -98Q683 -98 685 -98Q687 -97 703 -92Q710 -89 716 -87Q724 -87 730 -80Q746 -82 758 -73Q765 -72 786 -61Q792 -63 804 -53Q820 -48 837 -39Q849 -42 854 -29Q856 -24 863 -22Q872 -20 873 -15Q870 -2 882 4Q883 11 871 15Q863 18 861 21Q856 27 847 25Q837 18 825 21Q789 7 783 2Q746 -22 709 -42Q700 -47 690 -52Q681 -54 667 -62Q649 -71 640 -73Q632 -80 621 -81Q611 -82 602 -85Q585 -91 574 -87Q559 -89 556 -76Q548 -66 540 -56Q526 -52 522 -42Q519 -36 507 -34Q497 -32 493 -28Q475 -21 475 -30Q488 -48 501 -67Q514 -86 528 -103Q545 -128 554 -148Q556 -156 560 -163Q565 -171 559 -178Q543 -179 529 -176Q521 -176 486 -171Q470 -167 448 -167Q419 -167 398 -174Q383 -178 370 -176Q361 -172 358 -182Q355 -192 362 -195Q376 -193 391 -194Q407 -201 428 -201Q447 -204 466 -208Q491 -210 515 -213Q518 -216 537 -218Q545 -221 554 -221Q563 -222 569 -229Q571 -243 573 -258Q576 -275 578 -292Q580 -297 580 -309Q580 -324 584 -330Q587 -348 586 -363Q585 -372 571 -370Q546 -378 520 -393Q517 -398 522 -400Q526 -401 532 -400Q543 -404 577 -413Q591 -413 589 -426L579 -441Q569 -453 567 -455Q564 -458 565 -461Q566 -464 570 -464Q586 -466 602 -468ZM288 -468Q299 -461 309 -455Q329 -455 340 -439Q346 -436 347 -429Q348 -423 351 -417Q356 -413 355 -408Q353 -403 352 -398Q354 -391 351 -385Q348 -380 347 -373Q355 -372 362 -371Q378 -357 394 -361Q433 -358 437 -357Q447 -356 452 -352Q460 -346 455 -338Q444 -333 438 -323Q423 -319 360 -314Q353 -317 347 -316Q339 -314 338 -307Q338 -303 338 -300L335 -286Q335 -282 335 -279Q335 -269 335 -259Q333 -254 334 -241Q335 -228 332 -221Q330 -217 334 -211Q337 -206 336 -203L335 -182Q338 -176 336 -167Q334 -157 335 -153Q336 -148 334 -140Q331 -130 333 -124Q340 -98 334 -73Q339 -57 334 -43Q331 -39 333 -29Q334 -20 332 -16Q326 -19 319 -13Q313 -8 309 -10Q285 -32 277 -47Q270 -55 271 -65Q273 -75 274 -85Q274 -108 279 -127Q280 -142 280 -157Q274 -167 282 -177Q282 -213 285 -248Q285 -262 288 -273Q288 -278 286 -278Q278 -278 274 -269Q270 -267 263 -259Q257 -252 253 -250Q249 -246 245 -243L230 -230Q226 -226 222 -223Q217 -221 219 -213Q221 -206 218 -203Q209 -204 202 -198Q197 -194 193 -198Q189 -201 185 -204Q165 -229 162 -234Q150 -250 162 -274Q161 -284 174 -303Q178 -311 194 -325Q209 -338 214 -348Q215 -352 219 -352Q223 -352 224 -348Q223 -343 226 -336Q230 -326 228 -321Q226 -318 224 -296Q223 -281 218 -268Q216 -264 219 -263Q224 -261 228 -265Q257 -283 286 -302Q293 -305 293 -316V-324Q293 -325 293 -327Q296 -344 300 -385Q302 -405 304 -426Q303 -436 297 -445Q291 -453 287 -461Q284 -463 285 -466Q285 -468 288 -468ZM712 -392Q694 -390 679 -384Q669 -381 659 -379Q648 -378 644 -368Q641 -350 640 -331Q641 -321 637 -310Q637 -300 637 -291Q641 -278 632 -265Q633 -261 633 -255Q633 -250 638 -247Q641 -247 643 -248L652 -250Q654 -250 656 -251Q659 -256 663 -255Q667 -255 672 -257Q686 -278 696 -300Q712 -330 714 -334Q721 -345 730 -382Q726 -396 712 -392ZM347 -363Q345 -355 343 -339Q344 -333 349 -335Q354 -337 355 -342Q359 -349 354 -356Q352 -359 351 -361Q349 -364 347 -363Z"/>
</svg>