<svg xmlns="http://www.w3.org/2000/svg" viewBox="0 -800 1024 1024">
	<path fill="#000000" d="M689 -700Q695 -700 700 -700Q711 -697 724 -698Q735 -693 746 -692Q749 -692 752 -687Q756 -681 759 -683Q770 -681 773 -674Q772 -664 779 -664Q788 -663 792 -658Q791 -648 807 -632Q811 -632 811 -630Q810 -626 806 -625Q803 -619 800 -613Q796 -607 802 -602Q810 -602 808 -594Q807 -589 802 -583Q796 -572 792 -557Q794 -554 788 -550Q782 -546 784 -543Q782 -538 775 -531Q776 -523 772 -518Q768 -513 764 -508Q763 -502 755 -496Q747 -491 746 -486Q745 -483 739 -478Q730 -471 729 -466Q720 -463 709 -452Q700 -443 697 -441Q695 -435 685 -430Q678 -426 675 -423Q663 -425 661 -413Q661 -409 657 -409Q653 -408 652 -404Q644 -406 642 -400Q639 -395 637 -390Q626 -393 623 -381Q620 -382 617 -387Q613 -394 610 -394Q600 -392 592 -402Q587 -413 578 -412Q568 -410 559 -413Q546 -407 523 -409Q512 -410 505 -405Q509 -399 515 -395Q521 -390 521 -382Q526 -371 523 -365Q529 -351 528 -337Q526 -332 529 -331Q537 -330 543 -329Q550 -331 563 -325Q571 -324 572 -316Q573 -309 569 -301Q566 -300 563 -295Q560 -290 555 -291Q535 -283 526 -282Q520 -266 514 -250Q515 -244 512 -241Q508 -237 506 -233Q505 -223 501 -216Q503 -213 501 -205Q499 -197 501 -193Q510 -193 572 -203Q578 -207 589 -208Q603 -209 608 -213Q613 -212 616 -215Q619 -219 622 -221Q627 -220 631 -218Q638 -214 641 -216Q654 -215 667 -217Q674 -211 682 -216Q689 -216 692 -217Q694 -216 693 -212Q692 -208 695 -203Q698 -198 695 -195Q697 -186 691 -183Q685 -180 676 -182Q665 -173 651 -171Q642 -169 632 -168Q614 -164 595 -160Q590 -159 585 -159L567 -157Q557 -157 548 -154L530 -152Q526 -151 521 -150Q506 -148 507 -140Q513 -133 510 -126Q507 -119 504 -112Q493 -105 469 -81Q461 -68 452 -57Q443 -52 433 -33Q426 -30 428 -24Q429 -18 428 -12Q427 -6 432 -6Q441 -7 448 -6Q464 -12 506 -16Q530 -18 547 -22Q553 -27 563 -25Q570 -30 568 -38Q565 -46 562 -52Q561 -70 554 -85Q573 -83 586 -74Q588 -72 592 -65Q596 -57 601 -56Q611 -52 616 -43Q622 -34 628 -27Q639 -21 641 5Q646 7 644 13Q642 19 646 21Q654 24 654 32Q653 40 652 48Q651 54 652 60Q653 67 646 69Q641 66 638 69Q635 73 632 75Q606 65 582 38Q574 26 569 18L516 25Q489 30 472 29Q452 35 431 32Q422 27 411 26Q404 22 396 18Q384 16 380 6Q362 -3 368 -23Q367 -31 372 -39Q386 -56 392 -77Q397 -79 402 -88Q406 -95 411 -98Q414 -102 415 -107Q416 -111 422 -114Q424 -113 426 -114Q433 -116 432 -124Q431 -129 425 -126Q403 -125 374 -114Q361 -111 350 -111Q339 -107 316 -107Q302 -105 289 -107Q283 -105 270 -109Q255 -116 241 -130Q253 -129 294 -139Q328 -145 361 -154Q380 -160 401 -164Q422 -167 441 -177Q449 -198 449 -201Q441 -206 448 -217Q447 -225 450 -263Q448 -267 429 -267Q424 -269 413 -269Q397 -268 391 -274Q387 -275 368 -287Q366 -289 367 -290Q373 -288 377 -292Q396 -296 415 -300Q437 -304 458 -313Q461 -336 461 -359Q460 -369 461 -381Q462 -392 454 -400Q429 -395 404 -390Q395 -393 384 -389Q368 -390 354 -394Q343 -397 307 -397Q281 -409 275 -413Q264 -419 253 -424Q241 -429 233 -438Q211 -450 200 -465Q201 -465 206 -465Q210 -466 209 -470Q205 -483 196 -491Q195 -495 198 -498Q200 -500 200 -503Q192 -507 199 -522Q202 -530 209 -539Q212 -555 231 -584Q240 -595 235 -602Q240 -612 257 -622Q259 -626 264 -627Q269 -628 270 -632Q282 -637 294 -637Q294 -631 293 -623Q293 -616 298 -613Q323 -621 339 -623Q344 -621 351 -625Q358 -629 362 -628Q364 -626 365 -627Q366 -633 370 -632Q376 -623 380 -637Q421 -649 461 -661Q501 -667 520 -673Q523 -672 529 -674Q536 -676 540 -673Q549 -676 557 -677Q588 -682 616 -690Q633 -691 649 -693Q654 -694 659 -695L679 -698Q684 -699 689 -700ZM679 -644Q673 -643 666 -642Q632 -641 600 -633Q594 -634 582 -631Q569 -628 562 -630Q551 -623 538 -625Q533 -622 524 -621Q513 -620 509 -617Q512 -612 527 -612Q535 -603 543 -595Q545 -585 547 -576Q552 -569 550 -561Q548 -552 547 -544Q544 -536 540 -529Q544 -515 538 -501Q534 -487 530 -463Q534 -456 542 -458Q549 -461 555 -460Q558 -460 558 -457Q558 -454 561 -452Q564 -453 565 -451Q567 -449 569 -451Q568 -458 573 -458Q579 -459 584 -459Q586 -447 595 -448Q608 -448 611 -443Q619 -440 625 -448Q631 -455 638 -460Q647 -468 655 -477Q672 -495 685 -514Q690 -522 699 -531Q700 -535 703 -539Q708 -545 707 -547Q712 -557 724 -585Q731 -600 724 -619Q716 -638 700 -644Q698 -644 695 -644H684Q682 -644 679 -644ZM478 -614Q465 -611 462 -607Q455 -609 445 -603Q439 -599 434 -599Q427 -598 421 -596Q419 -594 424 -591Q427 -592 432 -587Q437 -582 440 -581Q454 -579 456 -569Q459 -556 461 -543Q462 -540 459 -536Q454 -531 458 -527Q461 -518 457 -509Q452 -501 450 -491Q449 -479 444 -467Q446 -455 444 -448Q442 -442 446 -440Q450 -438 456 -442Q461 -441 463 -448Q465 -458 468 -460Q475 -480 478 -503Q482 -519 486 -549Q489 -568 492 -588Q496 -596 492 -606Q488 -617 478 -614ZM289 -601Q289 -574 281 -557Q275 -556 274 -548Q273 -541 270 -539Q273 -528 269 -518Q262 -503 258 -489Q266 -463 288 -452Q293 -445 298 -438Q313 -427 339 -429Q344 -428 353 -430Q360 -432 365 -431Q375 -433 385 -436Q398 -436 410 -436Q415 -439 412 -443Q407 -448 404 -452Q404 -462 402 -471Q413 -493 414 -520Q415 -538 420 -557Q424 -575 418 -594Q403 -594 388 -588Q383 -592 377 -585Q373 -582 365 -585Q358 -588 354 -586Q341 -589 327 -592Q324 -597 317 -597Q310 -598 305 -599Q297 -600 289 -601Z"/>
</svg>