<svg xmlns="http://www.w3.org/2000/svg" viewBox="0 -800 1024 1024">
	<path fill="#000000" d="M788 -707Q798 -707 803 -703Q837 -704 849 -674Q857 -670 857 -660Q858 -651 860 -644Q862 -636 862 -623Q862 -601 860 -591Q862 -586 860 -577Q858 -568 860 -563Q864 -530 860 -517Q861 -500 859 -481Q857 -478 857 -472Q857 -463 854 -460Q852 -442 844 -426Q843 -423 842 -418Q841 -414 837 -414Q835 -413 831 -405Q827 -398 822 -394Q821 -392 820 -392Q816 -396 813 -392Q812 -388 808 -390Q804 -392 802 -388Q800 -380 794 -382Q787 -385 786 -392Q783 -393 781 -400Q780 -405 777 -407Q764 -396 753 -383Q740 -384 723 -365Q718 -360 723 -357Q730 -355 738 -357Q755 -361 771 -357Q792 -353 813 -349Q858 -334 860 -333Q868 -332 870 -324Q872 -315 864 -312Q858 -312 852 -302Q846 -301 824 -297Q821 -295 820 -297Q818 -302 814 -304Q807 -312 798 -313Q789 -315 781 -318Q776 -322 765 -325Q758 -327 753 -330Q724 -334 703 -344Q697 -342 690 -342Q683 -341 679 -335Q681 -331 675 -328Q671 -326 670 -324Q669 -319 664 -319Q659 -319 654 -318Q655 -326 660 -332Q665 -337 669 -344Q679 -354 685 -367L721 -424Q724 -432 717 -435Q709 -438 708 -444Q716 -456 742 -454Q746 -458 751 -454Q755 -451 759 -449Q769 -449 789 -440Q793 -431 786 -419Q779 -416 780 -410Q781 -409 782 -410Q792 -415 798 -426Q799 -434 803 -443Q808 -448 809 -456Q809 -464 811 -471Q807 -479 811 -486Q809 -488 808 -488Q803 -488 803 -480Q808 -507 808 -580Q805 -601 806 -622Q806 -644 798 -662Q797 -671 786 -673Q767 -666 733 -642Q709 -636 691 -641Q683 -643 683 -637Q683 -628 683 -622Q680 -616 682 -606Q684 -598 682 -595Q679 -583 675 -574Q672 -570 674 -565Q676 -561 677 -556Q678 -542 675 -529Q677 -499 675 -484Q677 -473 673 -463Q677 -457 672 -440Q669 -441 666 -437Q662 -432 659 -436Q653 -430 640 -443Q623 -454 622 -482Q622 -497 627 -529Q633 -549 635 -572Q643 -618 645 -623Q652 -645 659 -668Q665 -671 669 -665Q672 -659 677 -656Q698 -665 701 -668Q731 -689 758 -700Q773 -706 788 -707ZM521 -695H523Q533 -692 543 -690Q554 -695 570 -683Q580 -664 579 -645Q580 -643 577 -637Q574 -630 579 -626Q584 -619 580 -612Q580 -602 575 -593Q575 -577 578 -559Q574 -540 576 -528Q579 -515 574 -500Q568 -486 567 -478Q561 -455 555 -432Q555 -423 549 -419Q543 -414 537 -408Q534 -404 530 -406Q527 -408 526 -412Q520 -420 515 -430Q510 -439 506 -438Q497 -420 490 -401Q482 -392 474 -384Q469 -383 470 -379Q471 -375 477 -376Q479 -377 493 -377Q510 -379 526 -372Q540 -371 556 -367Q571 -363 584 -353Q589 -352 594 -349Q600 -347 597 -340Q594 -337 597 -331Q599 -326 599 -323Q590 -318 580 -319Q569 -320 560 -318Q552 -317 545 -324Q538 -326 531 -329Q514 -340 497 -346Q481 -351 464 -356Q453 -359 447 -344Q431 -332 415 -321Q405 -321 397 -317Q393 -318 387 -316Q378 -313 374 -316Q373 -324 378 -329Q382 -334 386 -340Q398 -350 419 -373Q427 -383 432 -394Q445 -402 448 -417Q447 -424 451 -429Q455 -434 458 -439Q457 -461 460 -483Q457 -490 459 -498Q460 -501 466 -499Q479 -494 492 -489Q501 -489 503 -473Q506 -466 512 -470Q517 -473 520 -479Q518 -486 523 -502Q527 -527 523 -549Q526 -557 526 -570Q526 -587 529 -593Q529 -618 528 -643Q526 -646 527 -651Q528 -655 527 -656Q524 -663 518 -661Q513 -659 509 -657Q496 -652 484 -646Q479 -638 469 -646Q462 -649 459 -643Q457 -637 455 -632Q449 -630 436 -617Q434 -614 438 -607Q441 -602 441 -598Q447 -588 440 -566Q435 -562 433 -549Q431 -539 428 -534Q426 -518 424 -502Q426 -497 426 -483Q421 -477 423 -462Q421 -456 424 -445Q427 -433 425 -426Q424 -414 416 -405Q405 -404 396 -412Q384 -430 377 -448Q376 -455 374 -461Q371 -467 374 -474Q379 -490 378 -507Q381 -515 381 -529Q381 -547 384 -553Q386 -573 388 -582Q390 -597 389 -603Q388 -609 397 -617Q404 -623 405 -629Q407 -632 406 -638Q405 -645 408 -648Q411 -652 418 -648Q422 -645 426 -646Q429 -650 438 -652Q447 -654 449 -659Q455 -668 465 -672Q474 -675 483 -680Q494 -684 505 -688Q513 -691 521 -695ZM213 -548Q229 -548 251 -539Q255 -530 264 -523Q265 -515 257 -503Q260 -493 258 -483Q258 -481 254 -477Q250 -473 251 -468Q254 -448 250 -425Q249 -411 248 -397Q246 -391 245 -383Q243 -376 251 -372Q258 -373 258 -358Q262 -350 251 -337Q245 -333 248 -322Q250 -314 248 -310Q246 -294 240 -279Q241 -267 237 -256Q233 -246 231 -234Q227 -229 227 -223Q227 -215 234 -215Q252 -230 270 -245Q272 -250 282 -260Q288 -266 291 -272Q296 -288 305 -299Q308 -303 310 -296L306 -271Q298 -261 293 -248Q292 -243 286 -237Q280 -231 279 -228Q277 -222 270 -213Q261 -202 260 -196Q248 -180 224 -146Q218 -144 216 -138Q215 -133 212 -128Q208 -127 201 -120Q191 -110 185 -112Q174 -126 163 -141Q162 -146 155 -153Q146 -162 147 -168Q149 -176 150 -184Q150 -190 162 -192Q165 -193 166 -199Q166 -203 168 -205Q168 -210 171 -218Q175 -226 173 -231Q168 -235 177 -244Q178 -256 178 -268Q177 -281 181 -291Q184 -306 183 -319Q183 -325 178 -328Q173 -331 168 -328Q162 -329 155 -330Q137 -334 125 -345Q121 -347 121 -350Q121 -353 126 -352Q138 -350 160 -356Q177 -362 194 -368Q201 -386 205 -404Q206 -411 206 -418L209 -447Q210 -454 210 -461Q211 -464 211 -471L212 -492Q213 -497 213 -502Q209 -508 204 -506Q198 -505 193 -504Q173 -502 156 -511Q153 -513 146 -514Q136 -515 135 -520Q137 -523 152 -528Q165 -533 178 -538Q196 -543 213 -548ZM613 -298H619Q641 -291 650 -272Q652 -266 647 -259Q642 -252 642 -249Q633 -241 627 -224Q623 -221 623 -218Q623 -215 628 -213Q635 -216 644 -215Q660 -217 676 -219Q678 -219 698 -222Q704 -220 710 -223Q716 -226 713 -232Q703 -251 691 -268Q686 -271 680 -272Q674 -274 677 -280Q678 -281 702 -286Q713 -293 724 -284Q751 -279 766 -258Q769 -242 768 -238Q764 -234 768 -230Q771 -226 776 -229Q790 -232 804 -231Q820 -219 835 -225Q847 -225 858 -220Q867 -217 877 -211Q881 -211 885 -202Q884 -198 885 -194Q887 -187 884 -184Q884 -177 871 -177Q864 -179 859 -175Q854 -172 848 -171Q837 -172 826 -173Q813 -174 803 -170Q792 -170 780 -170Q771 -168 762 -167Q755 -164 748 -161Q741 -159 740 -150Q730 -133 716 -119Q709 -117 705 -112Q701 -106 697 -100Q691 -94 683 -88Q675 -82 678 -72Q696 -68 706 -66Q716 -59 728 -58Q746 -53 768 -43Q790 -33 814 -21Q829 -19 833 -7Q834 -2 842 1Q852 4 852 10Q853 15 846 17Q840 19 839 22Q837 26 836 31Q836 36 830 36Q790 22 772 13Q759 8 735 -4Q710 -14 685 -24Q667 -34 648 -39Q639 -40 628 -26Q620 -16 614 -14Q598 -12 586 -3Q572 -3 561 3Q547 5 533 6Q524 6 518 3Q516 1 519 -3Q558 -17 584 -36Q589 -40 595 -45Q601 -49 597 -55Q568 -65 564 -67Q539 -71 530 -90Q525 -97 525 -112Q522 -124 529 -133Q535 -142 538 -151Q541 -159 533 -161Q523 -157 511 -158Q491 -157 473 -154Q464 -156 451 -152Q439 -149 433 -149Q416 -143 388 -145Q379 -141 363 -148Q340 -152 319 -160Q318 -161 310 -162Q305 -163 306 -167Q320 -169 333 -172Q346 -174 359 -176Q386 -180 412 -184Q416 -184 423 -186Q431 -189 436 -188Q466 -194 498 -198Q530 -204 546 -206Q565 -204 572 -219Q582 -227 586 -238Q590 -249 595 -259Q598 -269 589 -277Q582 -283 571 -284Q567 -286 568 -289Q569 -292 573 -292Q584 -290 592 -293Q596 -296 613 -298ZM688 -172Q661 -172 636 -166Q624 -167 611 -168Q602 -162 598 -153Q593 -144 588 -135Q579 -126 576 -114Q575 -110 571 -105Q567 -101 569 -96Q578 -94 590 -93Q624 -91 633 -88Q636 -86 646 -94Q657 -116 676 -133Q679 -138 688 -147Q697 -156 700 -162Q703 -168 698 -172Q693 -176 688 -172Z"/>
</svg>