<svg xmlns="http://www.w3.org/2000/svg" viewBox="0 -800 1024 1024">
	<path fill="#000000" d="M625 -741Q663 -741 693 -730Q700 -716 712 -715Q725 -703 732 -686Q734 -676 737 -668Q741 -660 736 -651Q735 -642 734 -633Q735 -629 731 -626Q728 -624 728 -621Q734 -614 725 -607Q723 -587 703 -559Q704 -554 698 -553Q691 -551 690 -548Q690 -538 677 -532Q661 -517 647 -500Q643 -500 641 -494Q640 -488 635 -490Q629 -494 627 -498Q625 -499 617 -506Q608 -514 601 -515Q600 -519 594 -521Q588 -523 587 -525Q551 -519 515 -514Q504 -511 498 -513Q478 -508 457 -503Q449 -503 447 -498Q447 -497 449 -497Q458 -495 468 -491Q479 -487 482 -476Q486 -461 495 -450Q498 -450 506 -455Q512 -459 518 -460Q528 -459 538 -458Q553 -466 574 -461Q583 -455 579 -444Q575 -434 566 -429Q562 -430 528 -425Q525 -422 519 -424Q514 -426 511 -425Q504 -429 495 -428Q490 -427 492 -421Q492 -407 491 -393Q493 -390 490 -384Q487 -376 491 -373L524 -385Q542 -391 560 -397Q597 -406 614 -402Q643 -406 659 -396Q663 -397 666 -393Q670 -388 672 -388Q683 -382 690 -373Q696 -365 704 -357Q709 -336 707 -330Q703 -327 705 -319Q707 -310 702 -307Q693 -287 683 -267Q672 -244 654 -226Q652 -218 644 -213Q645 -203 629 -194Q621 -178 612 -162Q607 -158 601 -155Q598 -162 583 -182Q578 -191 566 -192Q562 -201 572 -206Q581 -211 590 -216Q602 -225 610 -238Q617 -247 624 -264Q633 -285 641 -294Q642 -299 647 -314Q653 -331 652 -343Q647 -356 626 -364Q607 -364 568 -349Q564 -348 550 -343Q533 -336 521 -337Q518 -334 503 -332Q499 -329 490 -330Q477 -331 473 -326Q461 -327 451 -327Q440 -326 434 -336Q430 -341 435 -347Q439 -353 437 -355Q422 -364 427 -380Q433 -401 435 -422Q443 -442 442 -466Q446 -483 431 -498Q421 -501 402 -496Q388 -493 380 -493Q362 -493 347 -502Q341 -502 339 -506Q337 -510 335 -515Q367 -523 402 -527Q411 -528 414 -530Q421 -533 418 -541Q412 -544 408 -549Q404 -555 399 -560Q394 -566 396 -573Q398 -580 399 -586Q404 -602 408 -619Q411 -622 409 -626L406 -630Q406 -636 407 -637Q408 -643 410 -649Q413 -656 406 -658Q397 -662 392 -660Q371 -660 350 -661Q346 -659 339 -663Q333 -666 329 -666Q326 -662 322 -659L308 -644Q305 -640 301 -637Q301 -631 295 -622Q289 -613 288 -607Q284 -593 278 -582Q271 -566 278 -552Q278 -546 289 -544Q298 -534 311 -532Q319 -532 323 -526Q326 -521 322 -515Q310 -510 301 -510L271 -520Q263 -526 254 -532Q240 -537 236 -546Q233 -552 222 -563Q218 -575 219 -587Q218 -608 236 -646Q239 -650 242 -659Q246 -672 252 -677Q258 -688 272 -699Q272 -707 281 -709Q289 -719 299 -711Q305 -709 311 -711Q310 -703 316 -699Q322 -695 326 -691Q329 -689 329 -681Q329 -673 332 -673Q358 -688 385 -695Q388 -695 414 -704Q444 -712 471 -715Q499 -721 527 -728Q549 -732 570 -736Q598 -738 625 -741ZM598 -705Q591 -705 582 -702Q570 -698 565 -699Q545 -690 533 -691Q526 -688 518 -686Q512 -684 517 -676Q537 -654 523 -625Q521 -607 516 -589Q511 -571 502 -556Q500 -552 503 -550Q506 -547 510 -549Q543 -556 556 -556Q577 -555 600 -558Q607 -555 610 -549Q613 -543 617 -538Q632 -534 640 -546Q645 -549 657 -569Q662 -573 666 -581Q669 -588 672 -590Q675 -607 686 -615Q683 -619 687 -626Q690 -632 688 -635Q691 -672 666 -692Q655 -695 644 -703Q620 -707 598 -705ZM474 -677L462 -676Q458 -672 449 -672Q438 -671 435 -667Q454 -643 451 -629Q451 -615 447 -604Q446 -592 444 -580Q444 -570 439 -556Q434 -543 434 -538Q444 -535 456 -541Q460 -546 463 -562Q465 -577 470 -584Q481 -612 484 -643Q488 -657 487 -672Q488 -677 482 -678Q478 -679 474 -677ZM388 -357Q397 -353 399 -355Q411 -355 423 -348Q427 -341 423 -335Q420 -330 418 -325Q410 -319 407 -305Q401 -295 400 -285Q401 -281 396 -274Q393 -269 393 -266Q397 -260 392 -247Q392 -226 397 -215Q396 -209 404 -205Q412 -200 411 -195Q408 -189 410 -185Q413 -180 419 -181Q428 -174 437 -175Q454 -176 471 -179Q487 -179 503 -180Q511 -177 523 -178Q537 -179 543 -177Q551 -178 556 -172Q560 -166 564 -161Q563 -149 548 -148Q540 -141 524 -145Q512 -149 506 -143Q515 -134 521 -133Q524 -123 544 -126Q560 -129 575 -133Q629 -141 657 -143Q661 -142 665 -146Q670 -150 674 -149Q685 -146 718 -146Q728 -148 735 -143Q743 -137 735 -129Q735 -123 730 -120Q725 -117 720 -113Q704 -111 687 -110Q674 -109 661 -108Q655 -110 646 -107Q638 -105 633 -106Q614 -102 595 -100Q574 -95 553 -91Q545 -90 544 -82Q543 -77 546 -70Q551 -65 549 -59Q547 -53 546 -48Q544 -41 547 -23Q550 -3 545 6Q550 13 547 30Q545 42 547 49Q545 63 543 77Q538 81 538 94Q538 102 536 106Q533 111 528 118Q524 124 516 122Q512 121 507 119Q503 117 504 111Q500 106 482 92Q470 84 476 70Q477 57 483 33Q486 27 486 16Q487 0 490 -5Q488 -14 493 -37Q492 -41 494 -53Q496 -67 492 -74Q471 -72 459 -68Q445 -67 431 -61Q424 -62 418 -60Q408 -58 397 -56Q387 -53 378 -54Q375 -52 369 -52Q362 -52 359 -49Q354 -50 345 -47Q334 -43 329 -47Q317 -45 298 -49Q283 -52 276 -52Q266 -56 255 -61Q257 -64 265 -66Q272 -68 275 -72Q291 -76 305 -75Q331 -80 356 -85Q374 -87 393 -92Q444 -100 492 -114Q509 -116 493 -139Q490 -146 477 -145Q467 -144 463 -147L421 -152Q400 -159 378 -176Q367 -175 350 -192Q344 -196 339 -200Q334 -204 332 -211Q331 -228 330 -245Q330 -265 335 -284Q331 -300 351 -331Q352 -334 357 -338Q363 -343 364 -347Q376 -350 388 -357ZM488 -269Q492 -270 503 -267Q516 -266 529 -266Q534 -268 548 -262Q559 -246 534 -234Q522 -234 515 -233Q500 -232 472 -236Q457 -238 445 -243Q441 -243 437 -247Q433 -251 433 -255Q471 -265 488 -269Z"/>
</svg>