<svg xmlns="http://www.w3.org/2000/svg" viewBox="0 -800 1024 1024">
	<path fill="#000000" d="M334 -644L349 -643Q368 -641 378 -636Q388 -635 397 -618Q396 -615 398 -611Q400 -607 399 -604Q401 -600 396 -595Q392 -591 392 -587Q395 -582 392 -578Q389 -574 383 -574Q378 -568 371 -569Q365 -571 357 -571Q353 -572 345 -570Q335 -567 331 -570Q317 -570 302 -571Q292 -576 283 -579Q268 -584 252 -589Q246 -596 233 -599Q222 -602 219 -604Q202 -611 212 -615Q219 -613 232 -615Q267 -634 295 -639Q315 -641 334 -644ZM340 -506L345 -505Q365 -510 390 -492Q395 -490 396 -485Q396 -480 399 -476Q416 -469 404 -447Q401 -441 398 -435L390 -425Q376 -420 370 -405Q358 -394 348 -381Q339 -376 333 -369Q327 -362 321 -354Q326 -342 325 -329Q331 -315 329 -291Q333 -286 340 -288Q347 -289 353 -289Q404 -297 444 -272Q449 -271 455 -257Q459 -253 456 -251Q452 -249 449 -248Q444 -246 443 -241Q443 -236 442 -231Q439 -231 435 -226Q431 -222 428 -222Q411 -225 395 -233Q377 -245 358 -254Q351 -259 344 -264Q336 -270 326 -269Q326 -253 326 -237Q325 -230 327 -212Q329 -190 326 -178Q324 -152 325 -137Q322 -117 319 -98Q317 -52 312 -36Q306 -33 305 -27Q303 -22 300 -19Q297 -15 291 -18Q286 -20 284 -19Q276 -13 269 -24Q268 -26 266 -29L260 -38Q259 -40 257 -42Q255 -46 250 -51Q245 -56 247 -61Q245 -65 249 -73Q252 -80 249 -85Q253 -97 255 -110Q255 -119 255 -129Q257 -151 258 -174Q259 -183 263 -193Q264 -199 264 -206L266 -230Q267 -236 267 -243Q268 -249 269 -256Q270 -274 270 -292Q267 -293 264 -287Q262 -283 259 -282Q250 -274 240 -263Q238 -254 225 -249Q214 -244 211 -239Q187 -215 181 -205Q173 -197 167 -189Q156 -181 141 -179Q136 -176 131 -171Q122 -161 116 -160Q113 -160 108 -165Q104 -170 101 -170Q98 -170 97 -171Q98 -175 102 -179Q120 -199 137 -219Q142 -231 149 -240Q150 -243 155 -246Q162 -250 160 -255Q173 -271 185 -287Q192 -294 213 -320Q219 -324 225 -336Q232 -349 236 -352Q238 -361 244 -365Q249 -369 255 -372Q259 -379 271 -391Q281 -401 287 -410Q293 -415 293 -421Q293 -422 290 -422Q278 -418 234 -398Q197 -389 156 -392Q138 -397 120 -403Q116 -406 111 -407Q106 -409 105 -413Q135 -412 161 -430Q209 -456 260 -481Q278 -485 298 -496Q310 -502 340 -506Z"/>
</svg>