<svg xmlns="http://www.w3.org/2000/svg" viewBox="0 -800 1024 1024">
	<path fill="#000000" d="M725 -675Q732 -673 738 -671Q746 -676 756 -673Q761 -671 765 -672Q770 -673 774 -668Q772 -662 777 -659Q782 -655 785 -651Q783 -646 787 -639Q792 -630 789 -625Q786 -600 783 -576Q777 -565 782 -556Q775 -540 784 -531H799Q809 -531 814 -530Q821 -532 826 -523Q829 -517 833 -515Q833 -505 828 -494Q828 -492 820 -487Q813 -485 810 -480Q803 -480 795 -480Q781 -479 770 -473Q761 -466 764 -452L758 -427Q756 -424 759 -418Q762 -413 760 -410Q759 -401 753 -386Q746 -371 746 -363Q741 -356 739 -339Q739 -332 731 -318Q732 -309 753 -315Q767 -317 781 -320Q786 -322 820 -330Q826 -329 838 -337Q853 -337 867 -337Q891 -340 892 -340Q905 -340 917 -340Q923 -342 927 -333Q930 -327 933 -325Q938 -325 939 -319Q940 -315 938 -309Q932 -306 927 -302Q922 -293 917 -292Q892 -287 867 -286Q830 -281 823 -282Q817 -278 808 -280Q801 -278 795 -274Q788 -269 781 -271Q774 -274 761 -268Q754 -267 742 -263Q729 -265 718 -261Q702 -254 689 -254Q679 -255 672 -251Q665 -250 657 -249L626 -245Q619 -244 611 -243Q609 -242 606 -242Q596 -233 592 -228Q579 -216 571 -202Q562 -198 558 -190Q554 -182 550 -175Q542 -162 533 -152Q529 -131 524 -123Q520 -116 531 -118Q568 -126 604 -138Q608 -141 610 -139Q611 -137 607 -135Q603 -135 599 -131Q594 -126 592 -126Q588 -123 583 -120Q577 -117 581 -110Q573 -99 563 -98Q563 -92 558 -90Q554 -89 550 -87Q541 -78 531 -74Q528 -73 514 -59Q510 -55 502 -58Q499 -56 496 -59Q491 -64 487 -61Q476 -61 466 -74Q456 -89 459 -99Q454 -109 460 -118Q454 -120 451 -118Q450 -119 452 -122Q469 -141 485 -161Q492 -167 499 -174Q499 -175 510 -188Q513 -188 518 -194Q522 -199 527 -198Q530 -206 537 -208Q538 -213 544 -215Q549 -217 550 -219Q562 -224 571 -233Q573 -234 576 -237Q574 -236 572 -235Q550 -231 528 -228Q514 -224 500 -221Q494 -221 483 -217Q472 -213 465 -214Q457 -214 449 -214Q437 -216 426 -223Q418 -224 409 -226Q404 -227 400 -229Q398 -231 402 -234Q420 -241 440 -245Q466 -251 492 -258Q513 -266 518 -266Q522 -268 531 -269Q542 -270 546 -273Q559 -274 574 -281Q576 -287 564 -296Q548 -313 537 -328Q534 -341 536 -353Q535 -365 539 -374Q538 -386 541 -401Q539 -407 534 -407Q529 -407 525 -406Q516 -407 507 -409Q495 -408 480 -412Q461 -416 452 -415Q448 -419 452 -422Q456 -425 461 -423Q486 -435 514 -444Q518 -447 527 -450Q541 -455 545 -461Q545 -498 543 -515Q543 -531 543 -547Q542 -553 534 -561Q526 -568 526 -573Q528 -577 532 -574Q535 -571 539 -569Q549 -571 558 -565Q566 -560 575 -554Q590 -554 597 -530Q601 -515 604 -501Q605 -497 605 -492Q606 -486 611 -485Q627 -489 642 -497Q673 -506 703 -516Q711 -527 709 -542Q708 -560 710 -577Q714 -604 711 -629Q707 -649 696 -651Q694 -653 690 -652Q684 -652 685 -657Q688 -661 699 -666Q704 -674 711 -673Q719 -673 725 -675ZM233 -583Q238 -580 243 -578Q246 -583 253 -581Q260 -579 263 -582Q264 -579 270 -579Q275 -579 276 -578Q285 -575 295 -577Q301 -568 303 -558Q301 -548 299 -538Q300 -534 300 -526Q299 -512 303 -508Q297 -494 304 -484Q313 -486 321 -488Q326 -476 336 -482Q354 -478 371 -480Q379 -476 395 -478Q397 -476 404 -475Q412 -474 414 -471Q418 -469 420 -461Q421 -455 424 -453Q423 -450 426 -445Q429 -439 425 -435Q422 -437 421 -435Q419 -433 417 -432Q412 -432 410 -427Q407 -423 401 -426Q396 -423 375 -423Q341 -426 315 -413Q304 -410 304 -399Q304 -387 301 -379Q300 -361 296 -342Q293 -328 290 -314Q289 -289 282 -267Q279 -258 286 -257Q293 -256 297 -252Q308 -255 326 -275Q342 -305 353 -339Q354 -342 355 -342Q356 -336 353 -328Q355 -321 351 -311Q347 -300 349 -296Q347 -259 347 -254Q338 -241 356 -228Q368 -226 376 -221Q383 -208 387 -196Q391 -192 388 -190Q383 -188 381 -184Q387 -179 379 -168Q377 -169 371 -167Q364 -164 360 -167Q356 -171 352 -165Q349 -160 346 -163Q334 -170 325 -177Q318 -181 313 -187Q293 -200 276 -201Q264 -207 250 -197Q236 -187 235 -172Q229 -167 218 -156Q213 -159 211 -154Q208 -149 205 -146Q204 -143 199 -139Q192 -133 192 -127Q185 -118 161 -108Q155 -105 151 -99Q146 -94 139 -93L142 -112Q160 -125 169 -143Q178 -162 186 -180Q186 -185 191 -195Q194 -201 195 -206Q194 -212 204 -229Q211 -254 218 -280Q225 -301 231 -323Q235 -340 236 -361Q234 -364 236 -370Q238 -376 236 -378Q228 -375 219 -366Q211 -358 208 -356Q205 -350 196 -340Q186 -329 183 -321Q179 -318 172 -309Q167 -302 162 -298Q156 -297 155 -290Q155 -284 153 -279Q146 -279 145 -274Q144 -268 143 -263Q143 -259 138 -259Q133 -259 132 -256Q120 -254 114 -262Q110 -268 109 -274Q108 -275 106 -273Q100 -276 97 -282Q94 -288 90 -292Q91 -305 86 -315Q87 -325 86 -335Q85 -346 92 -356Q92 -369 97 -380Q103 -392 107 -405Q111 -402 113 -406Q115 -411 111 -413Q119 -438 138 -461Q137 -466 140 -466Q143 -466 148 -466Q150 -464 152 -447Q177 -405 181 -379Q177 -377 174 -373Q170 -366 177 -364Q206 -398 237 -422Q247 -426 246 -437Q246 -448 246 -459Q247 -476 247 -493Q246 -514 244 -536Q247 -550 237 -553Q231 -554 225 -556Q219 -557 218 -562Q224 -564 227 -573Q229 -581 233 -583ZM687 -458H684Q680 -455 668 -452Q656 -449 650 -444Q641 -441 631 -439Q622 -436 612 -433Q602 -429 602 -419Q601 -409 600 -400Q595 -393 596 -385Q596 -376 595 -368Q592 -364 594 -354Q596 -347 594 -342Q587 -335 592 -320Q590 -306 587 -292Q583 -287 587 -285Q592 -283 598 -285Q604 -288 617 -290Q639 -294 661 -299Q674 -299 677 -313Q685 -323 687 -335Q688 -348 690 -361Q693 -370 695 -380Q696 -396 699 -410Q704 -440 704 -447Q707 -454 700 -458Q693 -462 687 -458ZM786 -185Q794 -185 799 -180Q808 -179 822 -172Q825 -174 829 -169Q833 -165 835 -167Q870 -154 894 -135Q898 -126 902 -118Q912 -112 906 -97Q909 -91 906 -87Q904 -82 903 -78Q895 -67 879 -67Q873 -60 862 -73Q858 -69 851 -74Q846 -78 843 -84Q836 -93 830 -108Q822 -126 817 -133Q812 -137 806 -146Q799 -156 793 -160Q790 -172 786 -185Z"/>
</svg>