<svg xmlns="http://www.w3.org/2000/svg" viewBox="0 -800 1024 1024">
	<path fill="#000000" d="M702 -74Q700 -57 696 -49Q694 -43 692 -27Q694 -22 688 -14Q682 -7 684 0Q681 7 678 15Q674 23 665 23Q662 25 660 22Q658 17 655 17Q649 19 646 11Q644 4 639 4Q638 0 631 -4Q624 -8 625 -13Q622 -14 620 -19Q619 -23 617 -24Q613 -28 616 -31Q618 -34 623 -33Q631 -32 636 -37Q641 -42 639 -50Q645 -73 646 -98Q646 -115 646 -133Q645 -142 645 -150Q642 -155 638 -152Q633 -149 630 -146Q598 -123 588 -114Q581 -113 579 -108Q576 -102 572 -97Q561 -95 555 -86Q547 -86 535 -80Q522 -73 515 -75Q511 -82 524 -95Q538 -118 556 -138Q562 -145 566 -153Q570 -160 578 -165Q590 -180 601 -191Q605 -195 610 -199Q615 -204 613 -209Q603 -213 592 -207Q582 -209 566 -205Q551 -202 544 -202Q519 -197 492 -198Q480 -197 462 -205Q457 -209 442 -211Q430 -212 424 -216Q427 -220 437 -222Q459 -224 481 -226Q488 -225 499 -229Q509 -233 515 -233Q527 -232 540 -236Q564 -241 587 -247Q613 -252 638 -257Q651 -261 648 -275Q649 -297 645 -314Q641 -316 634 -314Q627 -312 624 -314Q607 -312 599 -313Q595 -314 577 -309Q569 -311 555 -313Q545 -319 535 -320Q530 -326 523 -328Q519 -329 518 -336Q516 -345 513 -347Q507 -350 500 -354Q486 -354 484 -360Q477 -371 465 -377Q462 -378 457 -384Q453 -389 449 -391Q439 -392 425 -408Q425 -412 418 -420Q410 -429 412 -436Q406 -450 413 -464Q414 -465 414 -468L417 -476Q418 -478 418 -480Q420 -493 430 -501Q440 -530 458 -555Q476 -577 493 -600Q502 -609 514 -623Q522 -628 530 -619Q536 -618 537 -609Q538 -600 543 -598Q539 -586 535 -575Q535 -568 525 -558Q516 -548 515 -541Q504 -525 490 -499Q483 -482 476 -465Q474 -448 471 -431Q467 -418 481 -412Q490 -408 498 -405Q508 -397 518 -389Q527 -386 535 -380Q546 -372 547 -357Q546 -350 543 -341Q547 -337 554 -337Q560 -337 575 -342Q597 -346 618 -351Q631 -351 642 -359Q642 -380 642 -401Q641 -408 642 -416Q642 -424 637 -427Q617 -431 598 -434Q584 -437 571 -438Q574 -445 585 -444Q610 -449 617 -449Q621 -452 628 -453Q638 -454 641 -458Q643 -478 644 -498Q643 -525 641 -553Q633 -568 625 -583Q617 -586 601 -589Q581 -592 573 -597Q570 -599 561 -599Q551 -599 549 -603Q551 -611 558 -614Q565 -617 571 -620Q602 -629 632 -639Q652 -645 671 -651Q678 -656 692 -658Q706 -660 710 -662Q726 -664 742 -666Q759 -670 778 -669Q807 -671 826 -663Q834 -663 840 -659Q847 -654 854 -651Q864 -643 878 -621Q885 -619 887 -611Q887 -607 891 -600Q895 -594 895 -589Q893 -583 897 -575Q900 -567 900 -563Q900 -551 897 -545Q896 -529 895 -513Q887 -503 891 -494Q892 -490 882 -476Q879 -466 869 -446Q862 -441 860 -427Q858 -422 853 -421Q849 -419 849 -412Q849 -406 846 -404Q836 -404 834 -392Q834 -388 829 -384Q823 -379 824 -374Q814 -360 800 -346Q798 -344 789 -337Q778 -329 775 -321Q772 -320 768 -314Q763 -307 759 -306Q755 -313 749 -316Q743 -312 738 -317Q734 -323 729 -325Q722 -329 716 -326Q709 -324 702 -324Q695 -325 692 -323Q688 -320 689 -314Q691 -299 693 -284Q695 -273 699 -272Q704 -270 721 -273Q743 -275 765 -274Q774 -279 783 -273Q793 -278 802 -271Q792 -268 798 -256Q799 -250 791 -250Q781 -250 779 -247Q775 -245 769 -247Q761 -249 759 -246Q747 -238 734 -238Q723 -239 707 -233Q701 -231 701 -225Q701 -218 701 -212Q703 -204 703 -196Q703 -187 708 -180Q721 -175 734 -170Q746 -169 760 -164Q768 -164 776 -159Q779 -162 785 -158Q790 -155 793 -156Q797 -159 801 -153Q804 -148 807 -148Q812 -151 820 -148Q831 -152 833 -140Q835 -135 840 -136Q845 -137 850 -138Q856 -135 863 -133Q871 -132 876 -126Q876 -120 886 -116Q890 -117 890 -114Q891 -111 893 -107Q893 -105 893 -104L896 -97Q896 -95 896 -94Q895 -90 888 -90Q880 -90 880 -85Q877 -77 862 -82Q854 -83 849 -82Q825 -91 805 -101Q801 -105 796 -106Q791 -107 786 -107Q777 -113 759 -117Q748 -122 736 -125Q724 -128 715 -136Q703 -145 702 -136Q704 -116 703 -105Q703 -89 702 -74ZM282 -658Q282 -656 284 -656Q286 -656 287 -658Q291 -652 305 -650Q317 -651 328 -649Q340 -650 349 -629Q348 -626 332 -611Q328 -611 324 -607Q319 -602 315 -604Q294 -581 278 -572Q266 -569 265 -563Q260 -562 256 -556Q252 -550 248 -550Q245 -546 241 -542Q237 -538 238 -534Q252 -534 266 -534Q269 -531 277 -531Q286 -531 288 -525Q297 -521 302 -514Q307 -507 313 -501Q325 -481 321 -466Q312 -456 325 -443Q323 -426 321 -410Q323 -397 324 -384Q326 -382 324 -377Q322 -370 326 -369Q347 -388 370 -404Q371 -405 372 -405Q371 -404 369 -400Q356 -385 351 -372Q347 -360 339 -349Q338 -345 332 -338Q326 -332 325 -328Q325 -305 325 -282Q327 -276 325 -264Q323 -250 325 -244Q323 -242 323 -236Q323 -230 321 -227Q326 -214 324 -195Q322 -182 317 -174Q313 -170 315 -164Q317 -159 315 -157Q308 -152 309 -143Q310 -133 306 -129Q305 -126 295 -111Q297 -101 288 -97Q282 -91 276 -99Q264 -102 257 -112Q244 -130 240 -134Q236 -140 241 -142Q249 -145 252 -151Q266 -226 267 -249Q267 -254 267 -261Q267 -265 261 -264Q259 -260 250 -256Q244 -253 240 -249Q227 -238 226 -237Q220 -233 215 -230Q209 -227 207 -221Q201 -218 195 -216Q185 -213 177 -221Q170 -229 164 -236Q159 -244 147 -245Q147 -255 147 -265Q146 -274 157 -280Q167 -283 173 -292Q201 -319 220 -345Q236 -372 252 -399Q256 -404 255 -409Q254 -411 250 -409Q248 -407 229 -401Q214 -393 195 -393Q178 -392 161 -392Q138 -394 117 -401Q124 -408 138 -410Q151 -416 164 -422L215 -449Q233 -457 241 -461Q254 -464 267 -468Q266 -482 264 -494Q261 -507 250 -515Q243 -517 237 -521Q231 -525 224 -523Q213 -523 212 -533Q212 -534 214 -545Q231 -570 248 -595Q252 -600 274 -636Q276 -639 273 -644Q271 -648 273 -649Q278 -650 282 -658ZM772 -627Q746 -626 725 -619Q688 -613 660 -600Q643 -597 646 -588Q650 -583 662 -578Q677 -572 681 -563Q690 -557 689 -537Q688 -522 690 -517Q686 -501 687 -483Q687 -477 692 -478Q696 -478 700 -481Q702 -484 705 -483Q708 -482 709 -478Q705 -473 711 -465Q715 -458 719 -451Q719 -443 712 -441Q704 -439 699 -435Q691 -432 690 -424Q689 -416 687 -410Q686 -391 685 -372Q684 -361 706 -361L718 -357Q728 -356 740 -353Q748 -356 763 -376Q771 -383 776 -392Q780 -395 785 -403Q788 -409 792 -412Q794 -417 813 -453Q817 -473 823 -490Q829 -511 835 -533Q837 -542 838 -552Q843 -593 834 -606Q819 -621 797 -628Q774 -628 772 -627ZM264 -345L257 -342Q242 -325 246 -314Q266 -323 269 -330Q272 -348 264 -345Z"/>
</svg>