<svg xmlns="http://www.w3.org/2000/svg" viewBox="0 -800 1024 1024">
	<path fill="#000000" d="M697 -606Q723 -606 753 -596Q771 -592 787 -577Q796 -568 798 -549Q799 -538 791 -520Q785 -506 784 -497Q779 -493 765 -469Q765 -462 757 -452Q750 -444 749 -440Q744 -430 732 -428Q727 -418 719 -410Q709 -400 702 -389Q700 -384 711 -380Q720 -382 717 -364Q719 -359 717 -353Q714 -346 708 -350Q691 -348 687 -349Q681 -351 676 -348Q671 -345 666 -343Q654 -338 642 -334Q624 -336 615 -329Q581 -331 575 -331Q566 -322 560 -331Q546 -338 532 -345Q522 -347 516 -361Q510 -376 503 -379Q490 -381 493 -404Q493 -418 492 -433Q494 -443 496 -467Q500 -489 504 -495Q504 -507 520 -534Q539 -558 528 -572Q528 -574 528 -575Q530 -573 537 -570Q543 -584 558 -580Q566 -576 572 -578Q577 -585 587 -581Q599 -586 625 -592Q649 -598 673 -604Q680 -602 697 -606ZM230 -592H241Q245 -586 257 -589Q268 -592 273 -588Q277 -581 282 -574Q287 -568 284 -559Q285 -556 284 -549Q283 -541 286 -536Q288 -529 284 -515Q280 -501 283 -493Q287 -487 292 -487Q304 -490 317 -491Q326 -493 338 -492Q341 -491 343 -490L355 -487Q358 -486 360 -485L380 -486Q389 -487 393 -481Q400 -482 404 -477Q407 -471 410 -467Q413 -457 415 -448Q421 -434 408 -431Q403 -437 394 -433Q383 -423 368 -430Q365 -428 358 -431Q351 -434 347 -431Q336 -430 327 -426Q310 -422 283 -402Q280 -388 281 -372Q279 -368 278 -357Q277 -344 274 -339Q277 -321 274 -305Q272 -302 272 -294Q271 -284 268 -280Q269 -265 266 -246Q263 -242 267 -239Q270 -237 274 -238Q281 -239 288 -239Q296 -239 301 -233Q303 -237 314 -235Q323 -234 328 -243Q333 -249 333 -250Q333 -249 332 -244Q331 -237 344 -232Q360 -228 367 -217Q379 -213 375 -197Q384 -193 388 -186Q385 -176 381 -166Q376 -160 370 -165Q364 -170 359 -170Q346 -175 332 -181Q325 -182 317 -191Q309 -201 304 -203Q274 -212 257 -209Q254 -203 250 -188Q246 -170 240 -163Q239 -160 237 -157L229 -144Q228 -141 226 -138Q223 -136 220 -132Q218 -128 214 -129Q210 -128 205 -121Q200 -114 195 -113Q193 -109 188 -110Q183 -111 181 -110Q178 -112 172 -108Q167 -105 164 -107Q156 -123 159 -128Q168 -156 182 -182Q184 -189 190 -197Q195 -204 193 -212Q188 -212 184 -215Q180 -219 185 -222Q204 -224 204 -243Q212 -286 219 -329Q220 -337 221 -346Q223 -356 217 -362Q206 -357 200 -350Q196 -343 187 -337Q175 -329 173 -325Q163 -314 152 -300Q151 -294 144 -296Q139 -298 135 -302Q122 -307 113 -312Q104 -328 103 -334Q99 -343 99 -383Q101 -409 117 -457Q119 -468 118 -475Q139 -470 148 -455Q160 -453 158 -443Q168 -418 162 -402Q164 -398 163 -390Q162 -381 164 -377Q176 -377 183 -390Q187 -392 197 -399L207 -407Q217 -414 221 -416Q234 -419 234 -432Q234 -445 236 -455Q233 -469 235 -501Q237 -534 232 -550Q233 -556 228 -557Q224 -558 219 -556Q214 -554 208 -558Q204 -561 201 -561Q200 -564 203 -570Q206 -575 210 -574Q221 -573 230 -592ZM698 -554Q693 -555 690 -552Q671 -550 668 -547Q656 -547 646 -542Q637 -540 627 -538Q610 -540 593 -543Q582 -546 570 -550Q566 -550 561 -544Q561 -539 563 -512Q555 -493 557 -455Q551 -450 554 -438Q556 -433 552 -421Q549 -412 550 -406Q557 -394 557 -378Q552 -374 555 -370Q557 -367 563 -365Q580 -369 592 -370Q600 -374 610 -374Q629 -375 644 -394Q655 -401 662 -415Q674 -436 686 -457Q698 -473 703 -496Q713 -530 712 -540Q715 -547 710 -552Q704 -558 698 -554ZM287 -480L283 -470Q281 -466 281 -458Q281 -453 286 -454Q293 -453 293 -470Q298 -472 294 -478Q291 -483 287 -480ZM581 -267Q588 -263 596 -267Q584 -256 570 -246Q557 -234 547 -220Q538 -216 533 -207Q529 -199 524 -192Q516 -178 506 -168Q500 -145 495 -138Q491 -131 503 -133Q542 -140 581 -152Q586 -155 587 -153Q588 -151 584 -149Q580 -149 576 -145Q571 -140 568 -140Q564 -137 558 -134Q552 -131 556 -124Q549 -112 537 -111Q536 -105 531 -103Q527 -102 522 -100Q513 -91 502 -87Q498 -86 484 -72Q479 -68 471 -71Q468 -69 464 -73Q459 -77 455 -74Q442 -76 433 -88Q422 -104 426 -115Q419 -122 427 -135Q420 -137 417 -135Q417 -136 419 -139Q452 -175 455 -179Q463 -185 470 -192Q474 -199 482 -206Q485 -206 490 -212Q495 -218 500 -217Q504 -225 511 -227Q512 -231 519 -234Q524 -236 525 -238Q538 -243 548 -252Q564 -261 581 -267ZM776 -203Q784 -203 790 -198Q798 -197 814 -189Q818 -191 822 -186Q826 -182 828 -184Q864 -171 891 -151Q895 -142 899 -133Q911 -127 904 -111Q907 -106 903 -99Q901 -94 901 -91Q891 -80 875 -80Q868 -73 857 -86Q852 -81 845 -87Q840 -91 837 -98Q830 -107 823 -123Q815 -142 809 -149Q803 -153 797 -162Q789 -174 783 -177Q780 -190 776 -203Z"/>
</svg>