<svg xmlns="http://www.w3.org/2000/svg" viewBox="0 -800 1024 1024">
	<path fill="#000000" d="M350 -677Q359 -672 366 -662Q364 -656 368 -649Q372 -641 372 -638Q373 -627 370 -617Q371 -606 363 -601Q355 -596 349 -588Q318 -563 292 -535Q287 -531 274 -516Q267 -514 256 -501Q250 -499 250 -493Q250 -486 257 -487Q272 -483 287 -480Q309 -473 319 -454Q325 -451 326 -446Q328 -440 331 -435Q337 -429 336 -420Q334 -412 335 -403Q334 -382 318 -365Q300 -344 285 -322Q274 -317 269 -303Q264 -300 263 -295Q262 -290 268 -287Q280 -282 316 -255Q327 -253 329 -240Q342 -227 336 -215Q329 -200 328 -182Q325 -170 321 -158Q314 -145 306 -132Q298 -118 278 -92Q267 -83 262 -74Q252 -67 241 -64Q217 -87 202 -113Q201 -117 197 -123Q191 -131 192 -135Q202 -143 205 -152Q208 -161 227 -190Q242 -213 253 -237Q253 -245 246 -248Q244 -249 232 -252Q221 -255 215 -263Q209 -272 204 -280Q196 -291 192 -302Q192 -319 194 -326Q207 -336 211 -345Q220 -355 252 -405Q255 -412 259 -420Q263 -428 256 -434Q252 -432 243 -433Q233 -434 229 -431Q219 -422 211 -432Q192 -437 183 -452Q175 -461 172 -471Q166 -481 167 -492Q163 -498 171 -511Q174 -519 177 -527Q176 -532 179 -532Q183 -532 187 -532Q193 -536 198 -548Q202 -556 205 -560Q217 -564 225 -574Q249 -596 274 -617Q298 -641 326 -657Q337 -668 350 -677ZM711 -635Q716 -635 717 -634Q740 -636 754 -628Q762 -620 769 -613Q769 -604 776 -594Q781 -589 777 -574Q778 -560 779 -547Q781 -544 778 -535Q775 -526 778 -521Q783 -510 778 -498Q776 -494 781 -486Q787 -477 784 -472Q776 -466 782 -457Q786 -453 786 -439Q785 -433 787 -422Q790 -411 788 -405Q784 -394 787 -385Q788 -363 788 -342L787 -322Q793 -315 788 -303Q791 -291 789 -282Q785 -277 789 -266Q793 -255 790 -250Q788 -245 791 -235Q794 -226 791 -221Q784 -214 792 -201Q792 -192 789 -183Q786 -174 792 -166Q790 -150 788 -135Q786 -132 787 -126Q788 -119 786 -116Q788 -93 784 -78Q780 -68 781 -56Q780 -54 780 -40Q778 -13 770 -2Q765 7 761 17Q762 24 756 27Q745 32 745 33Q741 37 737 34Q733 31 730 28Q723 29 721 22Q722 10 705 10Q700 1 694 -15Q690 -23 696 -26Q702 -30 707 -35Q707 -39 713 -48Q719 -58 717 -65Q716 -73 717 -79Q718 -79 719 -78Q720 -76 721 -76Q721 -79 723 -83Q723 -99 722 -115Q724 -129 726 -157Q723 -164 723 -170Q723 -179 725 -187Q729 -256 726 -304Q723 -317 723 -330Q723 -341 722 -352Q722 -358 722 -362Q721 -367 715 -367Q693 -360 671 -353Q630 -339 592 -317Q578 -311 569 -300Q566 -296 558 -291Q548 -285 545 -280Q538 -269 527 -274Q522 -273 509 -281Q495 -288 481 -308Q475 -313 473 -324Q471 -337 472 -347Q470 -374 486 -418Q488 -425 490 -433Q491 -438 486 -443Q480 -449 480 -451Q488 -456 509 -449Q520 -447 524 -436Q527 -426 532 -417Q539 -412 536 -405Q533 -398 533 -390Q535 -374 533 -355Q534 -351 532 -345Q529 -337 532 -333Q539 -331 545 -336Q551 -341 558 -343Q582 -355 606 -367Q621 -376 638 -382Q644 -383 652 -387Q663 -393 670 -393Q670 -398 678 -398Q687 -399 707 -405Q728 -408 727 -419Q726 -437 724 -455L723 -491Q722 -501 720 -512Q720 -516 711 -566Q705 -582 704 -590Q705 -599 697 -605Q682 -604 666 -603Q663 -605 656 -604Q649 -603 648 -607Q667 -619 689 -628Q693 -635 699 -634Q705 -633 711 -635Z"/>
</svg>