<svg xmlns="http://www.w3.org/2000/svg" viewBox="0 -800 1024 1024">
	<path fill="#000000" d="M295 -698Q333 -694 341 -689Q349 -683 357 -677Q364 -662 367 -643Q364 -640 362 -632Q360 -623 357 -620Q356 -606 339 -591Q333 -591 331 -586Q328 -582 325 -578Q320 -573 315 -562Q309 -550 306 -546Q285 -531 298 -508Q301 -487 306 -468Q310 -460 308 -443Q306 -427 309 -421Q309 -415 314 -406Q322 -393 317 -386Q309 -385 307 -373Q303 -370 305 -362Q307 -353 304 -350Q309 -337 306 -323Q301 -316 302 -310Q304 -303 303 -295Q305 -273 308 -258L309 -218Q307 -208 309 -198Q312 -187 301 -183Q301 -178 294 -174Q297 -166 293 -158Q289 -150 286 -142Q287 -136 282 -126Q277 -115 277 -111Q269 -104 266 -95Q264 -90 262 -91Q257 -97 253 -102Q249 -104 247 -113Q245 -121 239 -123Q238 -127 233 -132Q227 -140 226 -144Q220 -149 224 -152Q230 -155 234 -156Q243 -162 245 -188Q255 -232 252 -280Q246 -291 236 -272Q235 -267 231 -265Q226 -264 224 -261Q219 -256 203 -238Q203 -233 195 -231Q189 -230 188 -226Q175 -226 158 -221Q153 -225 157 -229Q162 -233 167 -237Q213 -314 255 -392Q259 -420 259 -436Q258 -441 260 -450Q263 -460 260 -465Q260 -473 255 -479Q254 -483 253 -484Q247 -483 245 -475Q241 -476 238 -472Q235 -468 233 -468Q227 -459 206 -440Q198 -434 189 -428Q184 -417 171 -409Q170 -405 164 -403Q158 -401 157 -399Q154 -400 152 -396Q150 -392 147 -392L130 -373Q125 -374 118 -371Q111 -368 107 -370Q103 -373 98 -376Q93 -380 94 -384Q114 -391 123 -406Q153 -439 181 -476Q186 -486 200 -503Q213 -519 218 -528Q214 -532 207 -531Q199 -530 192 -531Q164 -521 138 -524Q118 -524 100 -529Q85 -533 70 -538Q65 -539 65 -541Q66 -546 74 -545Q99 -551 133 -562Q161 -573 193 -573Q214 -573 233 -567Q247 -559 253 -573Q276 -605 295 -635Q299 -641 305 -649Q310 -657 302 -663Q279 -659 265 -668Q254 -680 266 -693Q281 -694 295 -698ZM569 -690Q570 -688 572 -688Q573 -688 574 -690Q604 -686 634 -683Q646 -682 653 -671Q660 -661 658 -649Q654 -637 643 -639Q638 -631 626 -631Q618 -631 606 -635Q600 -633 596 -637Q593 -641 589 -644Q579 -648 570 -655Q551 -663 537 -665Q528 -664 522 -672Q516 -681 518 -689Q528 -675 537 -683Q565 -688 569 -690ZM735 -632Q739 -633 741 -624Q742 -621 744 -621Q749 -622 752 -623Q754 -623 754 -619Q750 -619 748 -614Q746 -610 751 -606Q755 -607 755 -603Q756 -598 757 -594Q759 -588 752 -582Q745 -576 739 -578Q736 -575 733 -571Q730 -568 725 -570Q702 -558 666 -553Q659 -550 651 -547Q647 -548 640 -545Q630 -541 626 -545Q622 -536 613 -536Q604 -536 596 -532Q594 -522 589 -512Q583 -508 580 -496Q577 -486 572 -482Q574 -472 566 -462Q567 -455 561 -448Q556 -443 556 -440L546 -418Q537 -399 534 -395Q530 -388 537 -384Q543 -380 549 -376Q559 -371 569 -366Q576 -361 581 -368Q583 -371 589 -382Q597 -394 612 -425Q626 -454 637 -470Q646 -480 650 -491Q657 -502 669 -500Q681 -498 692 -499Q700 -503 706 -502Q715 -501 716 -493Q727 -477 728 -453Q723 -448 725 -443Q726 -437 727 -431Q740 -415 747 -421Q761 -419 774 -417Q778 -413 799 -411Q818 -401 823 -392Q828 -387 824 -382Q821 -377 819 -371Q821 -365 811 -357Q807 -349 803 -342Q801 -339 794 -336Q785 -332 783 -325Q782 -322 777 -318Q771 -313 770 -309Q768 -304 761 -301Q754 -298 753 -297Q751 -289 739 -286Q736 -289 731 -285Q726 -281 722 -282Q720 -280 716 -282Q712 -284 711 -282Q709 -277 703 -279Q698 -281 697 -277Q694 -277 693 -272Q692 -267 689 -267Q686 -265 682 -262Q678 -260 680 -257Q695 -255 709 -260Q721 -261 733 -262Q750 -268 771 -270Q775 -273 787 -275Q801 -277 806 -284Q818 -290 831 -288Q849 -287 863 -289Q879 -289 894 -289Q891 -281 899 -280Q906 -279 905 -274Q904 -274 902 -275Q898 -280 892 -274Q890 -272 890 -269Q890 -267 894 -267Q896 -274 897 -265Q901 -263 900 -260Q899 -257 901 -255Q906 -255 905 -250Q905 -245 907 -241Q903 -240 903 -249Q902 -251 899 -252Q896 -251 895 -244Q894 -238 892 -236Q888 -241 884 -238Q880 -235 879 -229Q860 -227 857 -226Q852 -224 846 -227Q841 -230 839 -229Q837 -232 836 -232Q836 -229 835 -226Q834 -226 833 -226Q832 -229 829 -231Q826 -232 824 -227Q820 -217 806 -221Q797 -217 788 -219Q780 -215 772 -215Q768 -218 762 -214Q755 -210 752 -211Q750 -209 743 -211Q736 -213 733 -209Q725 -206 696 -202Q689 -198 690 -182Q691 -171 688 -166Q685 -161 683 -148Q688 -137 687 -126Q680 -121 684 -108Q687 -99 685 -93Q685 -73 685 -53Q682 -46 683 -34Q684 -19 681 -13Q682 -7 680 3Q678 11 679 17Q676 45 665 72Q664 78 660 83Q656 88 651 88Q647 88 644 84Q640 83 635 77Q632 73 628 71Q627 66 620 56Q613 45 612 37Q623 17 624 -6Q627 -10 626 -19Q625 -28 626 -31Q625 -36 628 -47Q631 -57 629 -63Q628 -88 632 -112Q635 -119 633 -132Q631 -146 633 -151Q632 -156 634 -166Q636 -177 633 -183Q634 -189 630 -191Q626 -192 621 -190Q610 -190 599 -187L553 -180Q531 -176 509 -172Q492 -168 474 -165Q467 -165 460 -165Q448 -161 432 -161Q411 -161 397 -168Q372 -172 349 -180L348 -181Q348 -182 348 -183Q357 -182 357 -186Q361 -188 360 -192Q361 -194 364 -192Q404 -194 442 -203Q456 -206 469 -209L523 -220Q537 -223 550 -226Q608 -238 621 -242Q629 -243 630 -251Q632 -259 627 -264Q616 -273 604 -283Q600 -285 601 -287Q602 -289 606 -286Q613 -287 618 -288Q633 -283 647 -278Q652 -276 658 -274Q665 -271 668 -277Q667 -282 674 -287Q678 -291 680 -295Q680 -302 689 -305Q696 -308 697 -310Q696 -314 701 -316Q705 -318 705 -322Q714 -325 716 -332Q727 -338 738 -363Q746 -367 741 -374Q737 -381 730 -380Q716 -389 701 -398Q686 -408 679 -425Q677 -426 674 -435Q671 -443 666 -441Q665 -439 659 -435Q654 -432 653 -428Q652 -422 644 -413Q635 -402 635 -394Q627 -374 618 -355Q610 -341 597 -326Q598 -322 594 -314Q590 -305 592 -300Q591 -297 591 -272Q586 -263 581 -255Q581 -252 580 -252Q576 -252 571 -252Q569 -255 563 -258Q557 -261 555 -265Q555 -268 552 -268Q548 -269 549 -274Q542 -278 535 -283Q527 -288 526 -298Q530 -306 532 -325Q534 -335 527 -339Q521 -343 512 -341Q505 -343 498 -334Q493 -328 489 -326Q478 -335 477 -342Q476 -346 467 -348Q454 -364 454 -370L470 -385Q471 -392 472 -400Q474 -408 482 -411Q487 -423 498 -434Q505 -442 508 -452L524 -470Q531 -476 536 -483L557 -512Q557 -514 560 -517Q564 -521 563 -525Q551 -532 533 -529Q530 -534 524 -535Q518 -536 512 -538Q490 -542 468 -546Q465 -549 466 -550Q473 -553 482 -554Q496 -562 513 -568Q518 -567 528 -570Q536 -573 542 -572Q562 -584 587 -593Q596 -597 606 -597Q618 -603 629 -606Q634 -605 637 -608Q640 -611 644 -613Q653 -610 658 -628Q678 -628 698 -628Q703 -626 710 -628Q717 -630 721 -629Q729 -627 735 -632Z"/>
</svg>