<svg xmlns="http://www.w3.org/2000/svg" viewBox="0 -800 1024 1024">
	<path fill="#000000" d="M713 -669H714Q714 -662 721 -659Q727 -659 732 -659Q753 -656 775 -646Q781 -643 781 -638Q781 -632 781 -627Q784 -623 780 -616Q777 -611 779 -607Q778 -604 779 -598Q781 -591 778 -587Q767 -575 757 -561Q748 -556 738 -541Q736 -538 734 -537Q732 -536 730 -538Q723 -523 709 -522Q705 -520 702 -512Q699 -503 695 -501Q693 -505 690 -503Q686 -501 684 -497Q677 -489 681 -482Q686 -481 692 -484Q711 -490 732 -491Q735 -488 741 -490Q747 -492 749 -491Q752 -494 754 -494Q756 -493 756 -490Q752 -483 754 -479Q756 -477 759 -480Q758 -484 764 -489Q769 -493 769 -494Q771 -492 775 -491Q782 -489 784 -485Q811 -483 810 -467Q804 -459 810 -453Q811 -448 804 -448Q796 -449 796 -444Q792 -440 778 -441Q768 -442 765 -441Q761 -442 753 -439Q742 -435 737 -437Q735 -435 730 -436Q725 -437 721 -433Q719 -435 713 -432Q708 -429 704 -433Q702 -429 695 -428Q687 -426 686 -422Q698 -415 711 -404Q716 -398 720 -383Q723 -372 725 -368Q721 -364 724 -357Q726 -351 726 -348Q729 -342 728 -327Q727 -316 730 -311Q728 -306 731 -299Q733 -293 732 -291Q736 -270 729 -243Q729 -233 731 -221Q734 -216 732 -208Q730 -199 731 -197Q730 -194 730 -184V-160Q731 -155 729 -149Q727 -143 732 -141Q768 -185 808 -227Q821 -254 824 -265Q828 -277 816 -279Q813 -282 799 -289Q795 -291 793 -297Q792 -302 790 -303Q782 -302 779 -311Q777 -317 784 -321Q791 -325 794 -318Q796 -308 806 -309Q816 -310 824 -310Q827 -304 835 -306Q841 -307 843 -305Q852 -308 859 -305Q866 -301 873 -300Q878 -294 884 -290Q890 -286 888 -278Q895 -268 889 -251Q891 -246 895 -250Q897 -257 896 -256Q895 -248 894 -241Q890 -243 888 -240Q887 -238 885 -235Q881 -236 879 -230Q877 -225 875 -225Q872 -218 861 -201Q852 -191 842 -181Q835 -181 830 -175Q824 -170 818 -166Q812 -161 803 -152Q801 -151 796 -145Q792 -139 789 -140L770 -122Q765 -117 759 -113Q750 -108 743 -97Q735 -91 726 -86Q723 -79 729 -78Q736 -77 742 -79Q754 -79 760 -80Q773 -80 786 -81Q797 -78 807 -80Q808 -76 812 -76Q816 -77 821 -79Q825 -81 830 -79Q838 -82 845 -73Q852 -80 857 -75Q863 -75 867 -72Q870 -69 866 -66Q862 -66 862 -64Q864 -57 872 -57Q873 -54 877 -54Q882 -55 882 -58Q885 -63 888 -60Q891 -57 888 -53Q885 -49 889 -43Q892 -38 891 -36Q885 -37 883 -34Q880 -31 876 -28Q870 -24 866 -26Q865 -22 862 -21Q859 -20 856 -23Q846 -20 838 -20Q834 -23 826 -22Q818 -21 815 -25Q805 -22 795 -23Q788 -25 780 -23Q776 -20 774 -24Q772 -28 769 -27Q758 -21 743 -20Q730 -21 716 -23Q692 -20 656 -23Q652 -25 643 -25Q639 -22 633 -24Q627 -25 625 -23Q606 -22 587 -21Q582 -20 570 -20Q557 -16 512 -21Q500 -27 487 -30Q482 -27 470 -32Q465 -35 462 -44Q472 -43 486 -49Q511 -49 522 -54Q530 -56 538 -55Q549 -57 560 -60Q581 -65 601 -64Q610 -67 618 -70Q626 -70 634 -70Q634 -80 636 -89Q637 -107 643 -122Q650 -146 656 -171Q655 -185 659 -197Q657 -214 660 -233Q665 -280 665 -292Q666 -323 670 -350Q669 -364 667 -378Q663 -382 663 -389Q663 -396 661 -398Q660 -409 648 -412Q638 -415 628 -412Q613 -404 600 -403Q593 -403 595 -394Q596 -390 596 -389Q605 -374 595 -357Q594 -347 590 -340Q593 -337 590 -330Q588 -324 589 -322Q585 -303 584 -296Q580 -290 580 -275Q580 -262 578 -257Q578 -238 575 -220Q569 -215 574 -209Q572 -193 574 -179Q574 -167 574 -156Q576 -144 574 -133Q572 -118 578 -108Q577 -105 578 -98Q580 -88 575 -86Q570 -83 564 -80Q565 -83 563 -84Q562 -86 560 -86Q558 -85 558 -82Q560 -79 559 -78Q558 -77 557 -78Q556 -78 557 -82Q556 -87 553 -86Q550 -84 549 -81Q549 -84 547 -84Q544 -83 538 -81Q535 -79 531 -80Q523 -83 514 -86Q512 -89 502 -99Q494 -107 498 -112Q507 -125 499 -139Q497 -156 499 -165Q502 -192 508 -219Q503 -222 506 -228Q510 -235 506 -238Q506 -244 512 -256Q517 -265 517 -271Q520 -273 523 -287Q521 -296 519 -313Q513 -317 516 -321Q519 -325 520 -330Q524 -336 526 -345Q530 -361 536 -367Q542 -379 547 -393Q544 -397 525 -397Q509 -398 492 -403Q471 -403 465 -416Q474 -423 491 -425Q540 -434 601 -458Q614 -463 620 -474Q626 -486 634 -496Q650 -511 659 -530Q663 -536 667 -543Q666 -547 669 -549Q671 -550 675 -552Q679 -571 688 -583Q689 -588 699 -603Q710 -622 698 -622Q688 -621 678 -620Q670 -619 646 -609Q632 -602 616 -599Q605 -598 597 -590Q589 -582 580 -576Q577 -558 578 -555Q574 -542 570 -529Q565 -529 564 -525Q563 -521 560 -519Q551 -516 539 -522Q528 -525 519 -537Q510 -542 509 -550Q507 -558 503 -566Q506 -589 519 -604Q520 -608 516 -611Q513 -613 514 -615Q525 -620 544 -607Q555 -603 560 -594Q563 -588 569 -593Q575 -598 579 -599Q589 -609 598 -610Q612 -620 628 -629Q631 -629 638 -634Q647 -640 654 -640Q660 -645 675 -651Q688 -656 694 -661Q696 -666 704 -666Q711 -666 713 -669ZM278 -528Q284 -526 290 -525Q296 -530 305 -524Q307 -519 311 -520Q315 -521 319 -522Q320 -518 319 -513Q318 -508 324 -505Q331 -505 330 -500Q327 -491 317 -491Q309 -484 300 -482Q291 -481 281 -478Q274 -477 267 -474Q264 -472 267 -468Q271 -462 268 -457Q267 -456 262 -449Q255 -439 250 -428L242 -414Q230 -394 218 -374Q222 -369 218 -365Q214 -361 212 -357Q213 -348 225 -343Q276 -364 295 -366Q315 -366 320 -360Q332 -356 340 -348Q355 -340 355 -324Q358 -320 351 -302Q349 -302 347 -296Q345 -291 343 -292Q337 -290 335 -280Q333 -272 331 -270Q324 -264 317 -252Q319 -247 312 -241Q317 -230 312 -222Q311 -216 304 -216Q297 -216 292 -216Q280 -218 240 -213Q231 -215 228 -207Q225 -200 227 -193Q223 -181 219 -170Q219 -165 217 -165Q212 -165 208 -170Q203 -167 199 -170Q196 -174 193 -178Q185 -181 185 -188Q184 -195 184 -201Q176 -207 174 -219Q171 -223 174 -234Q176 -240 175 -244Q173 -260 176 -265Q181 -285 181 -302Q173 -298 158 -276Q153 -267 144 -257Q138 -250 123 -238Q116 -226 96 -213Q90 -212 86 -206Q83 -199 79 -194Q63 -183 53 -193Q54 -195 53 -201Q51 -211 56 -213Q60 -219 65 -223Q71 -227 72 -235Q91 -256 104 -276Q107 -285 120 -302Q129 -314 133 -322Q131 -331 145 -341Q149 -348 150 -348Q153 -353 159 -356Q164 -360 164 -367Q161 -387 171 -403Q181 -420 187 -437Q197 -448 200 -467Q198 -470 192 -471Q186 -472 184 -474Q177 -477 170 -480Q162 -482 159 -490Q144 -497 152 -503Q165 -499 177 -502Q189 -505 201 -506Q217 -511 233 -518Q256 -523 278 -528ZM292 -328Q278 -326 272 -323Q263 -323 254 -318Q249 -314 240 -318Q233 -321 230 -321Q225 -318 228 -310Q230 -303 229 -301L228 -263Q224 -248 234 -252Q243 -254 252 -257Q259 -253 266 -256Q273 -260 279 -268Q291 -290 295 -312Q298 -319 297 -326Q296 -330 292 -328ZM441 -269Q444 -269 444 -267Q445 -265 446 -264Q454 -260 461 -259Q482 -249 494 -230Q494 -208 483 -197Q477 -171 467 -144Q467 -136 462 -136Q460 -136 460 -140Q460 -143 459 -144Q456 -144 454 -139Q447 -137 444 -141Q441 -145 435 -147Q430 -146 429 -151Q428 -157 422 -156Q405 -171 406 -184Q410 -186 411 -193Q412 -200 417 -200Q422 -201 422 -206Q422 -211 423 -214Q427 -227 424 -235Q428 -253 441 -269Z"/>
</svg>