<svg xmlns="http://www.w3.org/2000/svg" viewBox="0 -800 1024 1024">
	<path fill="#000000" d="M557 -738Q562 -733 564 -730L577 -713Q582 -708 584 -705Q599 -699 613 -697Q622 -693 630 -689Q639 -688 644 -681Q649 -674 648 -665Q645 -661 644 -656Q643 -652 638 -650Q634 -641 627 -639Q623 -627 615 -616Q610 -613 603 -602Q594 -588 586 -586Q574 -565 560 -555Q556 -550 549 -547Q549 -543 544 -539Q540 -536 539 -533Q531 -533 527 -523Q525 -515 519 -510Q512 -505 506 -498Q505 -494 501 -493Q497 -492 494 -490Q489 -479 483 -471Q478 -463 474 -436Q470 -424 466 -413Q467 -405 464 -394Q460 -382 461 -376Q460 -354 467 -337Q477 -327 480 -314Q477 -304 488 -302Q506 -304 533 -310Q548 -313 563 -317Q569 -316 571 -322Q572 -325 572 -334Q576 -353 580 -373Q588 -392 577 -387Q570 -391 562 -391Q550 -394 537 -398Q533 -402 534 -407Q535 -412 541 -411Q561 -419 581 -426Q590 -426 591 -433Q592 -440 594 -447Q592 -455 593 -464Q593 -473 586 -479Q583 -482 584 -483Q589 -484 595 -486Q602 -482 606 -485Q618 -479 630 -474Q639 -472 639 -457Q639 -445 643 -441Q656 -441 669 -441Q673 -443 676 -439Q679 -436 682 -436Q683 -433 685 -428Q687 -423 682 -420Q679 -418 675 -417Q670 -417 670 -412Q665 -410 659 -409Q650 -404 640 -400Q636 -400 635 -397Q634 -393 633 -390Q626 -369 624 -347Q623 -342 619 -336Q614 -330 619 -325Q628 -326 636 -327Q645 -331 656 -332Q663 -333 675 -329Q683 -329 692 -329Q701 -330 709 -324Q713 -317 724 -317Q737 -315 743 -317Q781 -375 806 -435Q812 -474 809 -493Q806 -513 805 -517Q801 -530 789 -533Q780 -538 771 -537Q729 -535 720 -531Q707 -528 693 -526Q672 -519 650 -513Q631 -507 612 -502Q609 -496 595 -496Q583 -493 575 -496Q566 -498 562 -501Q559 -503 553 -504Q545 -505 546 -513Q543 -515 543 -522Q543 -528 549 -527Q550 -527 582 -540Q599 -545 616 -551Q619 -554 634 -558Q658 -569 693 -575Q706 -576 718 -578Q731 -577 743 -577Q751 -578 784 -575Q786 -575 791 -572Q795 -570 798 -572Q800 -570 807 -570Q816 -570 817 -566Q821 -566 826 -562Q831 -557 835 -560Q851 -551 856 -544Q858 -531 863 -525Q874 -524 876 -514Q876 -503 880 -494Q876 -490 874 -490Q872 -481 873 -476Q875 -477 876 -475Q876 -470 875 -466Q868 -464 868 -459Q868 -454 869 -449Q864 -444 862 -437Q851 -430 850 -430Q849 -422 849 -415Q849 -407 844 -401Q840 -391 835 -381Q828 -382 826 -365Q816 -348 806 -331Q791 -320 782 -300Q780 -292 772 -285Q773 -282 769 -280Q765 -278 766 -275Q779 -273 794 -279Q799 -285 805 -283Q812 -281 817 -281Q820 -279 825 -281Q830 -283 833 -281Q858 -283 870 -280Q874 -281 874 -278Q875 -276 875 -273Q881 -266 871 -264Q870 -261 866 -262Q863 -263 861 -261Q862 -257 857 -252Q854 -249 854 -246Q838 -238 833 -240Q824 -238 815 -236Q812 -232 804 -232Q797 -232 794 -230Q779 -227 763 -225Q754 -228 748 -220Q734 -218 720 -217Q717 -215 710 -215Q703 -215 700 -212Q687 -208 670 -206Q646 -202 634 -202Q626 -200 617 -199Q611 -198 604 -198Q578 -193 552 -189Q543 -191 513 -189Q504 -185 494 -184Q478 -181 463 -181Q441 -178 419 -175Q404 -177 391 -183Q384 -184 376 -184Q368 -185 366 -192Q368 -197 374 -198Q380 -198 385 -199Q400 -200 414 -202Q436 -206 447 -207Q467 -211 487 -215Q509 -218 512 -217Q542 -221 568 -228Q571 -227 576 -229Q582 -231 585 -228Q599 -233 612 -236Q621 -236 632 -239Q661 -245 690 -251Q695 -252 699 -254L716 -260Q721 -261 725 -263Q734 -263 730 -277Q728 -289 720 -299Q722 -302 719 -304Q716 -307 712 -306Q704 -312 703 -304Q700 -298 694 -298H669Q656 -296 642 -294Q619 -290 596 -289Q583 -289 561 -284Q554 -285 543 -282Q531 -279 525 -279Q507 -272 497 -277Q492 -281 488 -285Q483 -289 476 -288Q472 -285 463 -290Q458 -293 455 -292Q448 -294 444 -299Q440 -304 434 -309Q422 -320 420 -342Q419 -358 412 -369Q406 -388 416 -425Q426 -442 435 -460Q448 -491 469 -513Q475 -515 484 -524Q491 -531 496 -533Q516 -558 536 -584Q538 -589 541 -593Q547 -602 548 -607Q564 -626 577 -647Q579 -652 582 -657Q585 -662 581 -665Q578 -661 569 -659Q560 -657 557 -652Q557 -646 553 -642Q549 -637 543 -642Q536 -651 536 -654Q533 -663 528 -672Q522 -680 523 -691Q531 -693 535 -707Q538 -717 543 -721Q548 -732 557 -738ZM301 -580Q307 -581 319 -577Q331 -573 331 -566Q335 -557 329 -551Q323 -545 316 -538Q315 -538 311 -536L301 -530Q299 -529 296 -528Q283 -523 285 -503Q287 -469 285 -455Q283 -447 290 -447Q297 -447 301 -451Q314 -457 326 -455Q342 -460 349 -455Q355 -456 360 -453Q364 -450 361 -444Q363 -431 355 -426Q346 -422 338 -417Q314 -408 287 -404Q278 -395 278 -381Q277 -367 274 -355Q276 -344 274 -336Q271 -330 271 -312Q269 -308 270 -307Q275 -305 280 -312Q283 -316 291 -319Q300 -323 302 -326Q337 -354 362 -386Q364 -389 365 -389Q364 -387 365 -380Q361 -373 362 -364Q361 -356 341 -334Q339 -329 333 -324Q327 -319 326 -317Q321 -309 301 -293Q288 -282 281 -274Q264 -268 266 -249Q259 -244 264 -231Q268 -220 265 -216Q265 -201 265 -187Q268 -176 265 -155Q262 -134 265 -124Q262 -104 262 -102Q263 -89 261 -77Q260 -66 261 -57Q262 -47 254 -42Q244 -41 222 -57Q218 -59 213 -60Q208 -61 209 -67Q201 -77 201 -90Q200 -107 204 -121Q204 -125 204 -129L205 -133Q205 -137 205 -141Q209 -153 208 -168Q211 -182 210 -194Q213 -201 208 -208Q195 -203 192 -197Q187 -191 182 -184Q177 -177 169 -181Q170 -192 157 -198Q155 -203 146 -209Q136 -216 134 -221Q133 -225 139 -233Q144 -239 144 -241L164 -273Q166 -277 177 -292Q183 -293 186 -299Q190 -308 191 -309Q195 -319 204 -325Q207 -340 218 -344Q224 -347 223 -352Q222 -358 223 -362Q224 -370 225 -379Q226 -388 218 -392Q204 -388 189 -384Q185 -382 164 -377Q155 -377 146 -378Q138 -376 129 -380Q113 -380 96 -384Q91 -385 86 -387Q84 -387 83 -388Q82 -393 89 -394Q94 -395 98 -397L105 -399Q110 -400 114 -402Q124 -404 133 -408Q141 -413 151 -410Q180 -418 209 -426Q215 -429 223 -431Q231 -433 230 -441Q232 -445 231 -452Q230 -459 231 -461Q237 -466 234 -477Q231 -486 233 -491Q232 -498 235 -506Q237 -513 231 -518Q213 -522 194 -526Q189 -528 183 -530Q177 -532 175 -538Q192 -544 208 -550Q212 -549 217 -552Q222 -555 224 -555Q272 -573 275 -575Q294 -579 301 -580ZM744 -187Q769 -185 790 -181Q800 -170 809 -156Q808 -152 813 -148Q818 -144 817 -141Q814 -131 817 -122Q822 -116 819 -110Q816 -104 816 -97Q813 -94 813 -86Q813 -80 812 -78Q807 -69 807 -50Q809 -45 803 -38Q799 -33 798 -29Q794 -26 794 -11Q787 2 790 9Q784 10 781 21Q778 32 772 35Q774 44 767 50Q762 55 756 59Q745 54 738 40Q733 30 721 35Q716 33 675 28Q672 30 664 30Q655 29 652 32Q637 28 634 25Q613 26 602 -2Q602 -8 597 -11Q593 -14 589 -19Q588 -35 598 -65Q598 -71 606 -103Q616 -124 626 -146Q632 -153 635 -161Q638 -169 646 -170Q650 -164 655 -160Q661 -156 665 -161Q705 -174 744 -187ZM746 -146Q736 -145 725 -144Q718 -141 711 -139Q702 -140 691 -144Q681 -144 670 -144Q662 -131 659 -119Q656 -110 652 -101Q652 -99 650 -96Q646 -91 648 -88Q665 -87 681 -89Q688 -92 699 -89Q707 -87 712 -88Q718 -87 723 -87Q737 -88 737 -70Q739 -65 734 -63Q728 -60 725 -57Q696 -57 681 -59Q677 -58 663 -60Q656 -62 648 -65Q643 -68 641 -63Q640 -61 640 -54Q639 -43 637 -33Q638 -20 638 -7Q638 -2 645 -2Q652 -2 656 -2Q669 -3 681 -4Q686 -6 695 -5Q705 -4 709 -6Q724 -3 739 -6Q745 -6 745 -11Q746 -16 749 -21Q750 -22 755 -52Q757 -57 756 -64Q755 -77 758 -82Q756 -89 756 -99Q756 -113 756 -127Q756 -151 746 -146Z"/>
</svg>