<svg xmlns="http://www.w3.org/2000/svg" viewBox="0 -800 1024 1024">
	<path fill="#000000" d="M523 -740Q528 -740 530 -737Q533 -735 542 -736Q550 -737 554 -735Q563 -732 577 -732Q585 -730 593 -723Q593 -721 597 -717Q603 -711 602 -705Q600 -693 598 -681Q595 -677 596 -668Q597 -659 595 -655Q593 -638 590 -621Q591 -616 590 -612Q588 -607 594 -603Q608 -607 624 -607Q631 -607 639 -608Q648 -608 654 -603Q654 -600 657 -599Q660 -598 663 -597Q670 -598 675 -582Q671 -567 660 -562Q658 -562 639 -551L625 -542Q608 -532 590 -522Q582 -521 567 -513Q556 -507 550 -505Q539 -498 527 -491Q522 -488 519 -492Q516 -496 519 -500Q525 -506 521 -518Q521 -521 523 -525Q523 -547 518 -562Q518 -594 517 -597Q516 -620 521 -641Q521 -649 521 -657Q524 -664 517 -666Q504 -659 493 -650Q485 -653 481 -644Q471 -633 463 -631L436 -602Q430 -589 419 -578Q414 -576 415 -571Q416 -568 420 -564Q425 -560 421 -556Q417 -551 414 -548Q407 -537 400 -526Q388 -518 385 -504Q381 -500 383 -494Q384 -489 384 -482Q387 -469 374 -466Q355 -464 351 -477Q342 -493 337 -510Q339 -517 357 -545Q354 -552 348 -552Q341 -553 335 -553Q326 -552 317 -551Q311 -538 302 -526Q297 -524 295 -513Q294 -508 290 -506Q285 -504 283 -499Q282 -488 272 -481Q262 -474 252 -476Q245 -481 233 -503Q234 -508 231 -516Q228 -523 230 -527Q232 -530 233 -533L238 -545Q240 -548 241 -551Q238 -561 251 -565Q274 -611 282 -623Q283 -624 285 -632Q287 -640 292 -641Q298 -647 300 -667Q300 -672 302 -673Q307 -672 313 -671Q322 -674 332 -667Q343 -660 346 -644Q357 -625 346 -616Q336 -603 334 -585Q337 -579 343 -581Q348 -582 354 -583Q359 -586 368 -582Q376 -579 380 -579Q404 -602 428 -625Q437 -636 461 -656Q476 -669 485 -678Q489 -681 498 -693Q508 -706 516 -710Q523 -714 522 -727Q521 -737 523 -740ZM625 -457Q629 -457 633 -457H648Q652 -457 656 -457Q667 -457 680 -454Q704 -457 722 -432Q727 -430 731 -422Q736 -413 740 -410Q738 -401 747 -390Q745 -375 751 -362Q754 -327 752 -315Q748 -304 744 -282Q744 -270 739 -260Q732 -251 727 -241Q726 -228 719 -216Q712 -205 706 -193Q694 -185 691 -169Q691 -164 685 -158Q678 -152 678 -148Q669 -141 659 -127Q649 -113 644 -108Q630 -95 615 -82Q610 -76 605 -80Q599 -84 594 -85Q583 -93 559 -91Q546 -91 532 -92Q524 -92 516 -92L482 -91Q461 -87 440 -87Q430 -86 419 -85Q410 -83 400 -82Q385 -87 370 -92Q339 -109 332 -127Q319 -143 318 -163Q320 -177 322 -191Q324 -208 326 -226Q331 -241 335 -256Q336 -274 349 -318Q354 -341 363 -363Q385 -394 392 -401Q394 -403 396 -411Q397 -417 401 -419Q405 -423 407 -420Q410 -417 409 -411Q407 -405 413 -403Q418 -401 423 -404Q443 -408 486 -425Q493 -426 505 -431Q523 -438 533 -438Q545 -443 563 -445Q567 -448 593 -450Q598 -453 610 -454Q620 -455 625 -457ZM640 -414Q632 -415 625 -412Q605 -412 587 -406Q572 -406 558 -400Q547 -400 539 -396Q528 -395 519 -390Q512 -378 501 -383Q494 -386 472 -387Q454 -388 445 -392Q433 -398 421 -395Q412 -399 412 -395Q427 -373 427 -369Q429 -364 424 -357Q420 -351 420 -348Q413 -341 411 -321Q407 -307 406 -290Q405 -285 410 -283Q414 -282 420 -283Q421 -283 440 -286Q451 -287 463 -286Q473 -283 485 -285Q488 -284 497 -285Q507 -286 513 -282Q522 -284 533 -271Q541 -262 540 -249Q537 -248 534 -242Q531 -236 527 -236Q521 -236 515 -236Q492 -236 472 -240Q464 -239 439 -247Q419 -251 399 -260Q398 -260 393 -241Q389 -218 386 -194Q386 -185 386 -176Q386 -160 386 -145Q389 -142 392 -135Q395 -126 400 -123Q415 -123 430 -123Q434 -126 445 -126Q453 -126 458 -128Q487 -128 509 -135Q526 -138 545 -139Q564 -145 575 -138Q582 -140 589 -143Q606 -141 622 -158Q626 -161 628 -171Q630 -180 635 -183Q644 -188 647 -198Q647 -211 653 -222Q669 -255 676 -291Q679 -303 681 -316Q682 -330 683 -345Q681 -369 676 -385Q675 -407 655 -414Q646 -415 640 -414ZM651 -32L683 -31Q695 -32 707 -30Q715 -27 725 -28Q741 -30 744 -17Q742 -12 748 -4Q754 3 753 9Q755 18 741 18Q733 22 719 22Q702 23 697 25Q678 23 659 25Q624 25 589 24Q576 24 562 23Q532 23 503 25Q489 23 476 26Q460 27 446 29L419 30Q395 32 349 28Q325 20 300 12Q298 10 294 8Q290 6 291 4Q315 -3 341 -5Q349 -9 383 -9Q397 -18 419 -16Q435 -18 451 -19Q486 -21 520 -24Q531 -29 545 -27Q557 -28 569 -27Q595 -30 615 -28Q621 -31 635 -31Q646 -31 651 -32Z"/>
</svg>