<svg xmlns="http://www.w3.org/2000/svg" viewBox="0 -800 1024 1024">
	<path fill="#000000" d="M568 -693Q576 -694 582 -690Q589 -685 596 -682Q608 -683 622 -673Q626 -671 628 -664Q630 -657 632 -655Q639 -653 637 -640Q637 -636 631 -631Q626 -627 625 -623Q624 -612 611 -599Q610 -596 608 -594L601 -585Q600 -582 598 -580Q599 -577 612 -573Q621 -570 629 -568Q641 -565 654 -561Q674 -555 714 -537Q720 -536 734 -529Q749 -521 760 -521Q789 -508 818 -496Q821 -496 841 -488Q857 -486 872 -479Q900 -467 915 -461Q930 -458 954 -443Q963 -438 974 -433Q985 -429 991 -418Q990 -417 992 -413Q994 -408 991 -405Q988 -404 987 -399Q985 -393 981 -394Q977 -400 966 -395Q945 -393 928 -398Q920 -405 913 -398Q903 -399 892 -400Q884 -399 875 -405Q864 -412 857 -410Q839 -418 823 -427Q803 -436 782 -445Q753 -460 724 -476Q688 -495 652 -515Q608 -542 583 -549Q573 -553 566 -537Q565 -528 553 -522Q527 -496 523 -493Q519 -483 505 -479Q497 -469 489 -459Q486 -453 475 -446Q465 -440 461 -434Q451 -427 443 -418Q437 -418 430 -409Q425 -402 421 -400Q416 -394 406 -394Q393 -387 383 -379Q368 -378 354 -376Q347 -377 345 -378Q340 -380 342 -383Q351 -386 358 -393Q362 -406 371 -410Q404 -444 436 -478Q438 -484 447 -490Q455 -495 457 -500Q478 -525 499 -550Q538 -600 565 -651Q570 -663 553 -671Q549 -674 544 -677Q539 -681 542 -685Q556 -687 568 -693ZM246 -558L263 -557Q271 -562 279 -550Q286 -551 290 -547Q294 -543 293 -536Q295 -530 291 -526Q287 -523 283 -520Q271 -514 259 -509Q254 -508 253 -506Q252 -503 257 -500Q262 -498 263 -491Q265 -485 266 -479Q266 -469 266 -459Q267 -445 267 -431Q268 -429 272 -429L275 -430Q279 -430 280 -428Q296 -416 285 -405Q275 -395 265 -386Q272 -364 265 -346Q260 -339 264 -329Q259 -320 263 -309Q264 -297 257 -281Q255 -277 259 -275Q263 -273 267 -275Q304 -303 351 -330Q355 -331 362 -338Q367 -343 373 -345Q376 -341 372 -333Q369 -327 369 -325Q363 -320 359 -306Q327 -274 294 -244Q289 -242 273 -226Q223 -177 165 -138Q158 -135 154 -140Q149 -145 146 -150Q139 -155 135 -168Q132 -178 129 -181Q120 -191 131 -197Q134 -202 146 -203Q156 -203 160 -208Q172 -215 184 -223Q197 -234 195 -252Q195 -260 193 -267Q191 -274 195 -281Q194 -292 198 -301Q198 -311 198 -321Q198 -335 200 -340Q201 -355 197 -366Q182 -367 167 -359Q156 -356 136 -348Q128 -346 121 -342Q114 -338 107 -342Q104 -347 96 -352Q88 -357 86 -361Q81 -364 88 -366Q100 -369 112 -375Q120 -380 127 -385Q136 -386 145 -390Q160 -401 170 -401Q194 -411 208 -414Q217 -419 219 -429Q220 -439 220 -448Q220 -466 219 -485Q220 -493 216 -499Q212 -505 206 -501Q186 -501 168 -505Q158 -506 126 -521Q122 -522 121 -527Q120 -531 125 -531Q129 -529 137 -532Q142 -534 146 -534Q161 -536 174 -545Q191 -546 206 -554Q216 -558 229 -554Q234 -556 246 -558ZM578 -443H581Q596 -440 610 -437Q624 -443 637 -430Q642 -425 638 -419Q633 -413 632 -407Q633 -400 628 -398Q623 -396 619 -391Q617 -387 608 -383Q602 -380 599 -377Q594 -372 588 -368Q581 -363 586 -356Q591 -352 605 -350Q617 -348 623 -345Q641 -340 658 -327Q666 -319 661 -311Q655 -304 651 -296Q641 -277 636 -272Q631 -260 622 -254Q621 -250 618 -248Q617 -245 621 -244H660Q667 -242 681 -234Q690 -233 693 -225Q697 -217 700 -210Q703 -190 705 -185Q705 -172 700 -159Q697 -147 693 -136Q691 -124 680 -115Q676 -101 671 -87Q664 -84 655 -66Q644 -51 632 -36Q632 -30 622 -26Q613 -22 612 -15Q606 -9 600 -1Q595 7 585 6Q578 13 571 21Q564 29 555 33Q549 36 546 41Q544 46 540 51Q519 54 501 66Q496 67 496 64Q496 61 499 60Q522 32 545 4Q564 -21 584 -45Q599 -63 610 -83Q616 -92 639 -138Q640 -145 646 -155Q655 -170 654 -179Q654 -189 653 -199Q652 -210 642 -214Q637 -217 623 -220Q613 -222 607 -226Q599 -228 597 -223Q595 -218 591 -214Q584 -213 582 -208Q580 -203 576 -199Q571 -200 568 -196Q566 -194 562 -188Q557 -188 552 -181Q548 -175 545 -174Q539 -175 526 -169Q520 -179 523 -190Q524 -194 519 -201Q513 -209 519 -213Q532 -217 537 -224Q539 -228 547 -236Q553 -242 556 -247Q585 -276 606 -309Q609 -314 604 -327Q591 -336 577 -346Q567 -350 557 -336Q549 -324 542 -324Q526 -315 510 -307Q503 -300 485 -298Q481 -298 480 -300Q478 -303 480 -305Q483 -317 485 -328Q499 -341 512 -355Q537 -382 558 -409Q562 -414 565 -420Q565 -425 559 -428Q553 -431 554 -435Q566 -439 578 -443Z"/>
</svg>