<svg xmlns="http://www.w3.org/2000/svg" viewBox="0 -800 1024 1024">
	<path fill="#000000" d="M549 -751H560Q566 -754 570 -749Q575 -743 579 -745Q594 -744 602 -736Q615 -724 613 -703Q617 -698 612 -688Q609 -681 609 -676Q601 -655 597 -629Q593 -623 597 -617Q601 -612 608 -613Q612 -618 615 -619Q619 -620 622 -615Q630 -616 640 -621Q643 -624 649 -624Q655 -624 657 -627Q663 -629 672 -625Q683 -621 689 -623Q692 -620 697 -620Q704 -619 706 -616Q714 -615 713 -607Q712 -599 705 -597Q701 -600 697 -591Q701 -580 688 -575Q686 -573 678 -570Q669 -567 667 -561Q654 -566 647 -558Q641 -560 635 -553Q630 -548 627 -548Q617 -556 609 -547Q604 -549 599 -541Q596 -536 592 -535Q579 -527 565 -520Q557 -513 553 -517Q548 -515 549 -527Q551 -531 558 -540Q567 -551 569 -558Q576 -565 569 -570Q562 -575 561 -581Q553 -589 551 -613Q551 -622 549 -633Q548 -644 556 -651Q555 -654 558 -659Q561 -664 559 -668Q558 -673 561 -685Q565 -699 559 -705Q547 -698 540 -690Q527 -681 508 -664Q504 -662 497 -655Q486 -645 481 -643Q475 -637 465 -621Q456 -607 448 -599Q425 -587 408 -550Q402 -546 402 -531Q402 -520 400 -516Q400 -509 395 -509Q390 -509 387 -508Q383 -504 380 -509Q376 -515 372 -514Q366 -524 353 -532Q349 -535 346 -543Q343 -551 340 -554Q336 -556 336 -567Q336 -579 331 -581Q324 -576 316 -573Q308 -569 305 -561Q302 -558 300 -552Q298 -547 292 -548Q271 -543 263 -545Q255 -575 256 -582Q247 -587 250 -595Q252 -603 255 -611Q255 -615 262 -618Q268 -620 268 -623Q280 -640 290 -657Q292 -665 305 -679Q317 -692 321 -702Q330 -712 325 -728Q328 -732 330 -732Q332 -732 337 -725Q342 -718 345 -718Q357 -701 362 -688Q360 -673 351 -664Q348 -654 342 -640Q334 -622 328 -620Q327 -616 326 -610Q325 -604 331 -601L367 -595Q370 -589 376 -589Q381 -589 385 -595Q390 -603 406 -618Q419 -630 426 -639Q427 -641 432 -643Q439 -646 439 -650Q442 -652 447 -659Q452 -665 457 -668Q466 -676 503 -709Q516 -720 529 -729Q542 -737 549 -751ZM423 -484Q432 -486 438 -481Q443 -480 458 -471Q463 -469 460 -464Q457 -460 456 -455Q450 -420 432 -392Q427 -387 432 -384Q437 -382 443 -383Q446 -384 449 -385L460 -388Q464 -390 466 -390Q486 -395 490 -395Q503 -399 515 -403Q531 -407 546 -411Q566 -417 590 -420Q599 -424 610 -424Q621 -430 627 -424Q635 -423 642 -428Q645 -431 649 -431Q659 -429 669 -428Q680 -431 690 -424Q699 -428 706 -422Q712 -417 715 -406Q707 -397 713 -386Q704 -379 694 -379Q688 -374 668 -374Q653 -370 638 -367Q624 -366 609 -365Q600 -364 590 -365Q580 -367 573 -361Q567 -361 567 -356Q567 -351 572 -349Q580 -349 584 -342Q588 -336 587 -326Q590 -314 589 -312Q578 -303 585 -288Q588 -285 587 -279Q586 -271 589 -268Q594 -264 608 -266Q616 -269 623 -272Q635 -271 646 -270Q656 -271 669 -268Q673 -270 678 -268Q684 -265 683 -260Q680 -259 679 -253Q678 -250 676 -248Q673 -239 663 -234Q649 -232 640 -233Q630 -235 623 -230Q608 -223 604 -232Q595 -240 585 -245Q579 -243 580 -232Q581 -223 577 -219Q576 -205 575 -192Q573 -186 574 -173Q575 -160 574 -155Q572 -147 572 -140Q573 -135 579 -135Q586 -136 592 -135Q607 -138 621 -142Q635 -143 648 -148Q654 -153 664 -154Q672 -150 679 -150Q686 -150 694 -154Q705 -150 715 -153Q724 -154 735 -151Q747 -159 753 -148Q753 -144 757 -141Q762 -137 762 -135Q761 -124 753 -114Q751 -109 747 -109Q742 -108 737 -107Q732 -101 719 -101Q709 -101 706 -99Q684 -98 661 -98Q657 -100 640 -103Q632 -104 625 -106Q618 -108 611 -106Q601 -109 578 -121Q575 -124 572 -123Q568 -121 568 -118Q570 -106 568 -92Q564 -74 564 -53Q557 -47 562 -36Q558 -5 558 33Q563 47 559 54Q560 69 555 83Q553 88 549 87Q545 86 543 81Q527 70 516 56Q514 49 506 39Q498 30 497 26Q486 12 500 -2Q501 -22 505 -41Q507 -72 511 -100Q513 -112 514 -125Q515 -140 517 -154Q514 -166 518 -174Q523 -191 523 -206Q526 -212 526 -223Q526 -235 528 -239Q529 -253 530 -268Q532 -275 534 -282Q534 -306 537 -328Q539 -349 524 -352Q514 -351 503 -350Q489 -351 475 -352Q461 -353 450 -358Q438 -364 426 -368Q411 -363 398 -334Q396 -326 387 -304Q388 -296 381 -284Q376 -275 375 -271Q375 -261 362 -242Q357 -238 352 -233Q346 -228 341 -231Q337 -238 332 -245Q326 -252 328 -261Q334 -269 340 -287Q343 -291 361 -339Q367 -358 373 -377Q395 -440 396 -441Q398 -457 384 -461Q382 -464 375 -465Q368 -466 367 -470Q379 -485 393 -483Q408 -483 423 -484Z"/>
</svg>