<svg xmlns="http://www.w3.org/2000/svg" viewBox="0 -800 1024 1024">
	<path fill="#000000" d="M656 -722Q669 -722 673 -719Q677 -719 680 -712Q682 -707 686 -705Q688 -701 682 -697Q674 -692 677 -684Q671 -679 660 -681Q654 -677 647 -675Q640 -673 637 -666Q638 -636 636 -615Q635 -606 637 -598Q640 -591 632 -586Q632 -572 631 -559Q633 -555 630 -546Q626 -536 632 -532Q646 -535 661 -544Q668 -544 670 -548Q672 -552 669 -557Q669 -562 674 -561Q679 -560 680 -562Q683 -568 686 -566Q688 -564 691 -562Q713 -562 733 -561Q747 -563 759 -554Q759 -553 756 -546Q753 -539 755 -534Q751 -533 745 -532Q739 -531 736 -523Q716 -516 696 -509Q670 -495 640 -487Q631 -487 631 -475Q632 -457 629 -436Q626 -427 648 -430Q656 -432 672 -432Q682 -432 691 -432Q701 -432 711 -432Q720 -432 729 -432Q765 -428 767 -427Q788 -422 801 -409Q806 -401 810 -396Q809 -395 807 -395Q804 -393 797 -393Q793 -393 792 -391Q793 -387 792 -384Q792 -380 789 -380Q787 -380 785 -376Q776 -383 764 -367Q758 -372 753 -368Q748 -364 742 -361Q737 -363 741 -369Q745 -374 743 -377Q727 -389 706 -389Q685 -389 664 -389Q654 -388 643 -389Q632 -389 629 -380Q630 -352 631 -325Q628 -317 628 -311Q629 -304 627 -298Q625 -291 631 -285Q636 -280 644 -276Q652 -273 653 -264Q642 -246 631 -229Q627 -226 628 -225Q631 -224 637 -223Q664 -227 696 -230Q703 -228 706 -242Q709 -254 700 -257Q691 -261 684 -265Q676 -269 680 -274Q685 -280 692 -278Q709 -285 725 -281Q740 -282 753 -276Q761 -266 769 -257Q770 -251 767 -244Q765 -237 771 -233Q774 -235 782 -235Q790 -235 792 -239Q797 -241 807 -236Q814 -233 818 -233Q829 -236 844 -230Q849 -228 855 -227Q861 -226 862 -219Q868 -216 865 -208Q863 -202 858 -197Q858 -191 853 -189Q845 -186 844 -185Q828 -184 806 -187Q783 -190 776 -190Q764 -188 752 -187Q743 -185 737 -174Q729 -159 727 -157Q721 -142 707 -138Q703 -138 700 -132Q696 -125 693 -123Q686 -109 676 -104Q669 -97 675 -93Q683 -89 689 -88Q714 -81 738 -74Q782 -61 801 -58Q810 -53 818 -48Q827 -44 844 -30Q849 -26 854 -22Q860 -18 858 -14Q859 -9 854 -8Q848 -6 848 -5Q851 -1 849 1Q847 3 842 1Q837 7 830 8Q826 13 820 8Q816 5 814 7Q797 0 769 -16L640 -61Q634 -65 629 -60Q624 -55 620 -54Q616 -50 607 -49Q596 -47 593 -43Q589 -39 577 -37Q571 -36 566 -33Q559 -34 552 -30Q543 -31 536 -23Q532 -23 524 -20Q516 -17 513 -19Q507 -19 507 -21Q509 -25 514 -24Q536 -42 548 -46Q580 -61 594 -79Q593 -83 587 -84Q579 -86 577 -88Q558 -88 532 -105Q522 -124 511 -143Q510 -150 502 -149Q494 -147 488 -146Q454 -141 427 -134Q416 -133 405 -127Q394 -121 383 -126L357 -135Q343 -135 329 -136Q321 -134 315 -138Q313 -140 317 -143Q325 -141 339 -150Q361 -155 382 -161Q408 -172 437 -177Q450 -179 463 -181Q468 -185 483 -186Q496 -187 501 -191Q526 -194 547 -202Q564 -219 577 -239Q580 -245 585 -251Q589 -256 587 -261Q584 -262 584 -269Q584 -275 581 -275Q575 -273 573 -278Q570 -285 568 -286Q563 -306 573 -322Q578 -351 578 -382Q576 -386 573 -384Q569 -382 566 -380Q561 -378 553 -370Q545 -361 538 -360Q520 -336 494 -329Q484 -324 475 -322Q471 -322 471 -323Q469 -326 474 -329Q485 -344 499 -359Q512 -374 522 -391Q527 -396 531 -403Q533 -408 526 -409Q523 -410 523 -412Q526 -415 536 -415Q544 -420 547 -429Q550 -437 554 -446Q557 -452 557 -457Q557 -460 552 -459Q537 -456 524 -451Q510 -446 494 -446Q483 -439 467 -455Q458 -458 448 -462Q438 -470 429 -481Q435 -488 449 -481Q469 -480 485 -483Q539 -498 570 -509Q578 -511 578 -517Q578 -522 577 -528Q577 -551 577 -575Q578 -591 582 -602Q583 -625 581 -644Q581 -652 575 -652Q566 -652 558 -653Q539 -651 511 -667Q505 -669 506 -671Q507 -673 513 -673Q520 -672 532 -680Q541 -686 547 -688Q551 -690 554 -693L568 -700Q572 -702 575 -705Q582 -708 589 -713Q597 -717 606 -715Q615 -712 624 -716Q639 -722 656 -722ZM177 -641Q180 -638 185 -636Q190 -634 190 -629Q196 -626 197 -615Q197 -606 199 -604Q209 -593 199 -577Q196 -556 203 -553Q254 -571 290 -586Q296 -580 305 -589Q310 -585 324 -585Q338 -583 351 -575Q358 -574 359 -566Q360 -558 355 -552Q352 -547 343 -543Q342 -539 337 -536Q334 -535 333 -532Q330 -530 326 -523Q322 -516 317 -515Q312 -512 307 -509Q302 -499 296 -493Q285 -486 276 -477Q267 -472 239 -444Q235 -446 231 -438Q228 -431 224 -430Q228 -423 243 -418Q255 -414 259 -409Q262 -400 269 -401Q275 -402 279 -408Q290 -409 301 -411Q311 -411 315 -404Q322 -405 330 -401Q341 -398 351 -391Q360 -393 378 -388Q387 -386 396 -385Q405 -384 410 -377Q414 -378 414 -377Q415 -374 410 -370Q406 -373 403 -365Q396 -357 388 -349Q381 -348 374 -348Q370 -344 363 -343Q354 -341 352 -339Q340 -333 327 -334Q321 -328 310 -326Q301 -327 294 -322Q287 -318 278 -314Q268 -314 256 -298Q257 -296 255 -290Q253 -283 256 -281Q278 -281 302 -276Q319 -272 335 -261Q358 -250 376 -228Q382 -225 380 -222Q377 -218 371 -218Q367 -216 364 -213Q361 -210 358 -215Q347 -202 341 -207Q335 -208 327 -213Q317 -220 312 -220Q286 -248 260 -256Q254 -257 248 -259Q241 -260 238 -253Q230 -235 209 -210Q196 -200 190 -199Q182 -208 175 -216Q167 -225 170 -237Q170 -244 178 -254Q186 -263 186 -269Q192 -275 192 -283Q194 -288 192 -289Q187 -290 181 -286Q169 -283 157 -281Q144 -276 108 -271Q105 -266 101 -266Q98 -266 95 -271Q84 -283 80 -302Q81 -305 77 -309Q71 -315 72 -321Q74 -326 84 -334Q93 -340 96 -345Q121 -373 145 -401Q162 -422 181 -435Q189 -447 210 -468Q237 -495 246 -512Q244 -516 236 -511Q231 -508 229 -509Q219 -507 208 -505Q202 -505 198 -509Q194 -507 191 -510Q189 -513 187 -515Q177 -518 165 -543Q157 -549 158 -560Q158 -566 163 -580Q169 -599 175 -618Q179 -622 177 -631Q176 -639 177 -641ZM203 -409L190 -395Q184 -394 179 -385Q174 -377 170 -376Q158 -357 145 -345Q142 -338 138 -333Q136 -329 140 -328L171 -335Q187 -340 203 -345Q214 -345 216 -358Q214 -364 215 -376Q217 -390 213 -396Q215 -402 211 -407Q206 -412 203 -409ZM274 -378L272 -368Q273 -367 274 -367Q280 -367 279 -376Q278 -382 274 -378ZM676 -183Q667 -181 657 -179Q653 -181 650 -180Q646 -178 645 -179Q635 -177 624 -175Q599 -171 597 -170Q581 -165 575 -154Q572 -148 565 -143Q559 -138 563 -132Q593 -116 628 -108Q668 -144 677 -172Q680 -175 680 -181Q680 -184 676 -183Z"/>
</svg>