<svg xmlns="http://www.w3.org/2000/svg" viewBox="0 -800 1024 1024">
	<path fill="#000000" d="M618 -710Q628 -706 638 -703Q645 -709 669 -705Q676 -706 676 -699Q676 -693 680 -688Q688 -684 686 -669Q684 -653 681 -638Q682 -623 680 -591Q680 -570 676 -554Q675 -535 674 -517Q675 -514 672 -495Q673 -486 682 -487Q691 -487 698 -485Q711 -484 724 -483Q733 -485 735 -472Q737 -468 743 -470Q750 -472 752 -469Q757 -457 748 -444Q735 -442 730 -438Q725 -439 709 -434Q694 -429 678 -428Q668 -424 667 -413Q666 -402 662 -393Q659 -376 660 -361Q656 -356 657 -347Q658 -338 656 -334Q656 -328 656 -320Q655 -313 661 -310Q680 -313 698 -317Q719 -324 748 -327Q768 -331 787 -336Q790 -340 798 -338Q804 -337 807 -338Q813 -344 827 -342Q829 -343 839 -343Q860 -342 880 -342Q890 -342 900 -342Q905 -344 908 -340Q910 -337 907 -332Q904 -323 913 -317Q915 -312 913 -308L909 -299Q906 -294 900 -294Q894 -294 889 -292Q881 -290 872 -288Q848 -288 825 -285Q804 -280 798 -281Q787 -277 762 -277Q753 -275 728 -270Q713 -270 701 -265Q683 -262 665 -259Q652 -262 650 -240Q648 -230 647 -224Q648 -218 639 -211Q634 -207 632 -202Q625 -190 617 -178Q578 -126 565 -90Q563 -75 591 -81Q594 -84 601 -84Q609 -85 612 -87Q615 -88 620 -88L638 -90Q642 -90 646 -91Q651 -96 658 -95Q666 -95 673 -96Q678 -101 685 -100Q693 -100 700 -101Q722 -105 747 -106Q754 -104 759 -108Q766 -113 762 -119Q748 -144 740 -171Q735 -186 726 -199Q725 -204 728 -204Q732 -202 737 -199Q764 -192 787 -164Q802 -148 816 -130Q820 -126 823 -118Q828 -106 834 -102Q839 -100 837 -96Q836 -92 836 -87Q842 -78 844 -64Q846 -59 845 -48Q844 -33 847 -27Q847 -18 847 -9Q853 -2 846 4Q832 4 819 -1Q798 -14 790 -26Q780 -40 769 -55Q756 -55 743 -55Q706 -55 694 -50Q671 -50 664 -47Q637 -44 610 -41Q598 -39 592 -37Q576 -41 562 -37Q554 -35 548 -39Q542 -43 537 -47Q523 -59 509 -72Q486 -100 503 -132Q504 -141 516 -153Q525 -162 527 -166Q532 -170 537 -179Q542 -189 548 -192Q552 -199 568 -225Q568 -228 572 -233Q576 -238 575 -242Q573 -247 565 -244Q559 -242 557 -244Q539 -242 532 -238Q513 -235 496 -230Q483 -230 473 -226Q454 -220 446 -227Q439 -231 426 -229Q414 -227 410 -229Q397 -225 392 -231Q387 -236 391 -239Q395 -242 400 -238Q415 -242 429 -251Q466 -266 508 -273Q539 -281 569 -290Q586 -291 590 -307Q594 -323 595 -340Q598 -359 600 -379Q599 -383 599 -391Q599 -402 596 -406Q588 -407 580 -406Q571 -405 565 -409Q545 -415 525 -421Q509 -425 504 -431Q509 -437 520 -436Q539 -442 557 -448Q580 -454 603 -463Q614 -475 612 -494Q616 -582 614 -627Q613 -646 611 -666Q613 -676 606 -681Q599 -686 592 -681Q588 -682 584 -683Q580 -684 582 -688Q591 -697 605 -702Q609 -708 618 -710ZM270 -571H273Q293 -575 303 -565Q314 -562 321 -549Q321 -534 321 -519Q324 -513 322 -509Q320 -505 319 -501Q310 -485 314 -472Q311 -443 307 -424Q303 -417 310 -409Q316 -402 315 -397Q322 -386 317 -374Q321 -351 319 -340Q315 -320 312 -317Q312 -290 296 -258Q295 -251 293 -245Q290 -239 294 -234Q317 -251 339 -271Q343 -276 355 -287Q372 -302 375 -312Q380 -316 412 -351Q412 -342 403 -328Q395 -313 394 -305Q390 -302 390 -292Q390 -281 383 -278Q371 -254 351 -232Q347 -226 340 -220Q334 -214 331 -205Q322 -201 318 -189Q300 -176 289 -158Q261 -130 255 -118Q250 -114 249 -109Q247 -102 242 -102Q232 -98 223 -103Q214 -125 195 -131L184 -150Q175 -167 188 -176Q211 -184 224 -224Q228 -232 234 -242Q240 -251 230 -258Q228 -265 222 -265Q215 -266 208 -267Q204 -266 198 -273Q193 -278 191 -279Q173 -292 164 -305Q151 -315 155 -331Q156 -336 167 -359Q186 -381 192 -386Q208 -401 224 -404Q230 -407 237 -408Q245 -409 246 -416Q249 -445 255 -474Q261 -494 260 -518Q262 -531 251 -532Q245 -530 235 -531Q215 -533 209 -532Q207 -537 198 -539Q193 -540 191 -543Q187 -551 198 -550Q215 -560 234 -566Q252 -568 270 -571ZM232 -383Q227 -381 212 -363Q206 -348 207 -338Q209 -329 213 -324Q219 -317 224 -323Q225 -331 229 -341Q236 -358 234 -366Q237 -373 238 -381Q237 -384 232 -383Z"/>
</svg>