<svg xmlns="http://www.w3.org/2000/svg" viewBox="0 -800 1024 1024">
	<path fill="#000000" d="M575 -728H577Q583 -730 585 -725Q588 -721 591 -718Q593 -716 599 -718Q606 -720 608 -716Q618 -706 619 -698Q624 -691 622 -684Q620 -676 621 -668Q621 -655 621 -642Q623 -632 618 -623Q614 -614 611 -604Q618 -597 616 -590Q614 -577 612 -565Q612 -561 610 -553Q606 -542 610 -536Q608 -532 610 -522Q612 -514 610 -510Q606 -501 606 -489Q606 -486 604 -470Q600 -465 604 -460Q608 -455 614 -459Q635 -459 650 -466Q659 -472 670 -469Q683 -473 695 -477Q706 -484 718 -485Q727 -502 731 -539Q734 -557 717 -563Q711 -566 706 -569Q704 -571 707 -574Q711 -575 714 -576L728 -578Q732 -579 735 -580Q739 -584 756 -579Q770 -581 788 -561Q788 -549 789 -537Q791 -524 787 -513Q781 -507 781 -495Q772 -483 768 -469Q761 -466 759 -455Q757 -445 753 -442Q744 -443 736 -433Q730 -433 723 -425Q717 -418 713 -417Q705 -415 705 -423Q701 -442 696 -445Q688 -441 679 -438Q673 -434 659 -428Q654 -426 646 -426Q636 -426 632 -424Q613 -427 602 -416Q600 -415 597 -410Q594 -404 591 -405Q584 -408 576 -411Q568 -413 559 -416Q548 -412 538 -414Q532 -416 522 -412Q514 -409 510 -409Q492 -411 475 -411Q453 -418 447 -421Q435 -426 426 -439Q423 -443 413 -462Q410 -480 418 -501Q426 -529 437 -542Q442 -549 445 -552Q451 -557 456 -551Q465 -540 474 -529Q474 -512 474 -495Q468 -483 470 -474Q470 -462 468 -451Q467 -446 471 -444Q474 -442 480 -444Q487 -447 514 -449Q525 -453 538 -454Q555 -453 555 -477Q558 -507 561 -537Q563 -544 563 -561Q563 -578 566 -586Q564 -608 568 -620Q569 -649 569 -679Q567 -688 567 -697Q567 -706 561 -712Q556 -714 550 -716Q546 -718 550 -723Q562 -724 575 -728ZM192 -571L204 -570Q214 -568 221 -561Q230 -552 227 -543Q225 -540 223 -536Q221 -532 218 -532Q212 -528 203 -510Q186 -498 172 -484Q167 -482 164 -477Q162 -472 158 -466Q166 -457 177 -450Q187 -442 191 -430Q193 -415 193 -399Q192 -392 197 -392Q204 -393 209 -395Q227 -401 245 -402Q249 -407 257 -406Q265 -405 268 -409Q274 -425 276 -464Q279 -472 275 -479Q272 -482 269 -477Q261 -473 255 -475Q241 -472 229 -478Q226 -482 215 -481Q202 -480 199 -486Q197 -495 205 -497Q212 -500 219 -503Q241 -514 264 -519Q268 -520 297 -526Q302 -523 308 -522Q314 -521 317 -516L331 -503Q339 -494 335 -485Q331 -475 330 -464Q335 -451 328 -437Q330 -432 325 -425Q321 -419 322 -415Q318 -404 320 -380Q322 -354 317 -343Q320 -326 323 -310Q319 -306 321 -297Q322 -292 321 -289Q321 -257 311 -236Q307 -242 301 -236Q297 -230 293 -233Q289 -237 286 -237Q276 -243 267 -243Q224 -247 209 -243Q205 -244 198 -241Q191 -238 186 -239Q171 -256 157 -257Q148 -270 139 -284Q134 -286 131 -301Q152 -384 151 -422Q151 -448 135 -453Q134 -456 127 -459Q120 -462 120 -469Q130 -486 133 -494Q137 -496 144 -504Q149 -510 154 -514Q156 -520 162 -526Q169 -533 170 -536Q181 -553 192 -571ZM680 -382Q684 -380 698 -380Q716 -380 723 -372Q742 -368 739 -349Q739 -348 732 -334Q730 -326 722 -312Q716 -305 710 -298Q705 -292 697 -282Q696 -280 688 -266Q685 -262 685 -259Q685 -256 689 -257Q694 -256 693 -251Q692 -247 688 -244Q673 -234 653 -231Q640 -230 627 -226Q622 -227 610 -222Q601 -221 591 -222Q580 -223 576 -213Q574 -207 567 -198Q557 -185 556 -178Q542 -153 542 -112Q542 -85 563 -70Q571 -65 589 -59Q607 -54 625 -49Q629 -49 632 -49L645 -47Q649 -47 652 -47Q665 -46 678 -45Q690 -45 701 -46Q749 -49 797 -53Q837 -59 841 -59Q851 -57 855 -72Q859 -92 861 -114Q863 -117 864 -121Q865 -129 869 -130Q872 -105 872 -104Q876 -93 885 -83Q893 -71 905 -60Q907 -55 916 -51Q923 -48 926 -45Q932 -42 932 -27Q920 -18 900 -15Q885 -13 869 -14Q821 -11 772 -9Q757 -9 744 -7L665 -5Q653 -10 630 -8Q627 -8 623 -8Q619 -9 619 -12Q614 -15 605 -15Q594 -15 591 -18Q582 -22 564 -28Q541 -40 523 -57Q509 -70 503 -86V-87Q502 -88 499 -101Q499 -111 500 -116Q503 -149 521 -190Q540 -233 562 -253Q566 -258 571 -258Q579 -258 590 -247Q608 -246 622 -257Q627 -256 634 -261Q636 -265 642 -265Q650 -264 652 -268Q655 -289 672 -318Q673 -324 677 -331Q680 -338 675 -344Q663 -347 653 -341Q637 -343 620 -334Q605 -334 593 -328Q568 -337 542 -331Q532 -331 525 -334Q523 -338 526 -339Q527 -340 533 -341Q559 -360 599 -365Q624 -373 654 -378Q667 -380 680 -382ZM193 -366Q191 -361 191 -346Q191 -334 189 -327Q189 -303 193 -281Q199 -280 213 -284Q224 -287 231 -287Q244 -289 257 -292Q262 -322 266 -352Q267 -359 260 -361Q259 -361 248 -363Q232 -363 216 -364Q212 -363 205 -366Q197 -369 193 -366Z"/>
</svg>