<svg xmlns="http://www.w3.org/2000/svg" viewBox="0 -800 1024 1024">
	<path fill="#000000" d="M452 -626Q477 -628 494 -615Q500 -614 500 -608Q499 -602 501 -597Q507 -591 503 -579Q506 -570 504 -556Q497 -545 502 -530Q500 -514 498 -498Q492 -486 497 -470Q500 -464 506 -466Q512 -468 518 -467Q523 -469 535 -466Q544 -463 549 -465Q559 -471 565 -457Q573 -452 573 -439Q565 -430 533 -418Q524 -416 514 -414Q505 -412 499 -404Q496 -388 495 -367Q492 -363 478 -335Q477 -329 468 -324Q461 -320 459 -316Q455 -314 456 -310Q457 -307 462 -308Q474 -317 486 -318Q508 -329 530 -329Q542 -329 557 -324Q563 -323 567 -313Q570 -305 575 -302Q577 -283 573 -274Q568 -263 562 -252Q551 -240 550 -238Q545 -229 551 -222Q550 -216 552 -209Q553 -202 547 -197Q536 -197 527 -193Q485 -193 447 -185Q443 -183 436 -185Q429 -187 426 -185Q420 -185 420 -180Q420 -175 425 -172Q431 -170 432 -161Q433 -152 425 -152Q417 -147 410 -154Q403 -154 396 -163Q392 -168 389 -169Q387 -171 380 -171Q372 -171 372 -175Q372 -187 370 -192Q375 -210 369 -216Q368 -229 367 -242Q365 -253 376 -264Q380 -270 387 -289Q389 -299 392 -306Q401 -308 406 -313Q425 -324 430 -349Q435 -364 438 -381Q441 -387 435 -389Q429 -391 427 -386Q416 -386 408 -381Q403 -382 397 -376Q392 -372 389 -372Q382 -377 364 -380Q347 -383 340 -389Q332 -392 326 -399Q320 -407 325 -413Q340 -405 354 -414Q372 -418 390 -423Q411 -432 434 -438Q442 -441 444 -463Q445 -474 445 -485Q447 -492 446 -503Q444 -518 448 -524Q447 -530 447 -580Q447 -588 447 -596Q444 -604 437 -605Q429 -606 425 -610Q436 -621 452 -626ZM188 -606H199Q203 -600 214 -603Q225 -606 229 -602Q233 -595 238 -588Q243 -582 240 -573Q241 -570 240 -563Q239 -555 242 -550Q244 -543 240 -529Q236 -515 239 -507Q243 -501 248 -501Q259 -504 271 -505Q280 -507 291 -506Q294 -505 296 -504L308 -501Q311 -500 313 -499L332 -500Q340 -502 344 -495Q351 -496 355 -491Q358 -485 360 -481Q363 -471 365 -462Q371 -448 358 -445Q356 -450 353 -449Q349 -448 345 -447Q335 -437 320 -444Q317 -442 310 -445Q304 -448 300 -445Q290 -444 281 -440Q264 -436 239 -416Q236 -402 237 -386Q235 -382 234 -371Q233 -358 230 -353Q233 -335 230 -319Q228 -306 225 -294Q225 -271 223 -260Q220 -255 223 -253Q226 -250 230 -252Q245 -256 256 -247Q258 -251 269 -249Q277 -248 282 -257Q287 -263 287 -264Q287 -263 286 -258Q285 -251 297 -246Q312 -242 319 -231Q331 -227 327 -211Q334 -207 339 -200Q336 -190 333 -180Q328 -174 323 -179Q317 -184 312 -184Q299 -189 286 -195Q279 -196 271 -206Q264 -214 259 -217Q231 -226 214 -223Q211 -217 207 -201Q203 -184 198 -177Q197 -174 195 -171L187 -158Q186 -155 184 -152Q183 -152 179 -146Q176 -142 173 -143Q169 -142 164 -135Q159 -128 155 -127Q153 -123 148 -124Q143 -125 141 -124Q139 -126 133 -122Q128 -119 125 -121Q117 -137 120 -142Q124 -149 129 -166Q136 -187 142 -196Q144 -203 150 -211Q155 -218 153 -226Q148 -226 144 -230Q141 -233 145 -236Q163 -238 163 -257Q171 -300 178 -343Q179 -351 180 -360Q181 -370 176 -376Q161 -368 160 -364Q157 -359 147 -352Q137 -345 134 -339Q122 -326 114 -314Q113 -308 106 -310Q101 -312 97 -316Q85 -321 76 -326Q68 -340 67 -348Q63 -357 63 -397Q65 -423 69 -432Q75 -451 80 -471Q82 -482 81 -489Q100 -484 110 -469Q121 -467 119 -457Q129 -432 123 -416Q125 -412 124 -404Q123 -395 125 -391Q136 -391 143 -404Q151 -407 162 -417Q174 -427 180 -430Q192 -433 192 -446Q192 -459 194 -469Q191 -483 193 -515Q195 -548 190 -564Q191 -570 186 -571Q182 -572 178 -570Q173 -568 167 -572Q163 -575 160 -575Q159 -579 162 -584Q165 -589 169 -588Q179 -587 188 -606ZM827 -603H830Q842 -604 855 -597Q866 -601 887 -584Q893 -576 899 -566Q901 -554 903 -542Q903 -525 903 -509Q902 -498 900 -488Q897 -474 894 -460Q892 -457 895 -450Q898 -444 896 -440Q896 -433 891 -403Q884 -394 892 -385Q893 -368 890 -352Q889 -341 887 -330Q889 -316 888 -311Q888 -297 886 -283Q884 -269 888 -255Q888 -246 889 -237Q889 -224 889 -212Q884 -202 888 -191Q891 -181 893 -171Q888 -163 894 -146Q892 -134 896 -118Q896 -105 895 -89Q899 -68 896 -45Q895 -21 898 5Q895 8 892 16Q889 24 885 27Q870 29 864 21Q851 14 844 0Q830 0 830 -13Q831 -22 821 -26Q819 -30 813 -34Q806 -39 805 -42Q811 -45 824 -41Q832 -37 836 -46Q832 -61 837 -70Q838 -98 835 -120Q834 -133 835 -144Q834 -182 833 -221Q831 -236 829 -252Q832 -274 832 -275Q832 -291 834 -294Q834 -299 831 -300Q827 -300 826 -295Q826 -290 822 -287Q818 -285 815 -282Q810 -272 806 -270Q786 -262 763 -267Q754 -267 744 -268Q736 -264 727 -261Q719 -262 720 -268Q721 -274 722 -278Q734 -296 730 -319Q730 -329 735 -337Q747 -338 767 -328Q783 -331 797 -330Q804 -329 812 -328Q820 -328 823 -320Q824 -316 831 -314Q837 -318 837 -332Q837 -342 839 -346Q839 -350 839 -355Q841 -382 840 -408Q844 -423 841 -437L842 -471Q844 -486 845 -501Q845 -520 844 -539Q842 -546 842 -554Q841 -562 833 -560Q797 -543 783 -532Q778 -523 767 -531Q738 -534 714 -544Q706 -552 708 -555Q710 -560 715 -560Q720 -559 724 -559Q756 -578 769 -583Q778 -586 785 -591Q793 -597 803 -596Q806 -602 816 -601Q824 -600 827 -603ZM647 -575Q649 -575 655 -571Q663 -568 674 -566Q690 -561 705 -536Q709 -524 708 -510Q705 -498 707 -488Q709 -468 708 -454Q708 -448 707 -442Q705 -435 712 -432Q728 -435 744 -439Q761 -441 778 -444Q813 -447 813 -429Q808 -425 804 -416Q800 -407 796 -404Q786 -405 778 -399Q759 -402 744 -400Q740 -397 736 -397Q727 -400 717 -404Q711 -408 706 -405Q700 -402 702 -395Q702 -391 699 -382Q695 -372 697 -366Q696 -356 697 -344Q696 -334 698 -323Q697 -321 692 -292Q692 -272 687 -262Q682 -241 685 -233Q681 -214 676 -195Q677 -183 671 -157Q663 -129 658 -114Q658 -111 658 -109L656 -99Q656 -96 656 -94Q650 -79 643 -65Q637 -56 627 -48Q622 -43 619 -47Q615 -52 613 -56Q606 -69 604 -84Q604 -92 604 -100Q607 -111 610 -123Q620 -166 630 -209L634 -230Q637 -240 640 -251Q645 -280 650 -310Q653 -331 655 -352Q656 -355 655 -364Q654 -373 657 -377Q658 -436 658 -496Q655 -511 659 -536Q660 -545 652 -556Q643 -568 647 -575ZM243 -494L239 -484Q237 -480 237 -472Q237 -467 242 -468Q248 -467 248 -484Q252 -486 249 -492Q246 -497 243 -494ZM506 -295Q495 -297 488 -291Q469 -287 453 -280Q439 -276 427 -269Q407 -264 412 -232Q412 -221 415 -209Q422 -206 430 -210Q437 -213 444 -215Q465 -223 483 -227Q499 -228 502 -245Q508 -258 513 -272Q512 -275 517 -288Q519 -294 514 -296Q510 -298 506 -295Z"/>
</svg>