<svg xmlns="http://www.w3.org/2000/svg" viewBox="0 -800 1024 1024">
	<path fill="#000000" d="M535 -708Q543 -706 551 -705Q558 -705 598 -701Q605 -699 612 -697Q620 -696 623 -688Q627 -685 631 -676Q635 -667 640 -663Q638 -660 633 -663Q628 -665 626 -664Q624 -659 612 -657Q604 -652 579 -652Q575 -654 566 -654Q554 -653 549 -657Q528 -673 526 -675Q522 -682 507 -684Q493 -686 490 -691Q490 -694 497 -695Q502 -696 504 -699Q510 -707 518 -706Q527 -706 535 -708ZM355 -304Q349 -306 342 -299Q335 -292 330 -291Q319 -281 308 -272Q297 -268 298 -257Q298 -246 294 -236Q301 -226 293 -208Q298 -198 294 -185Q296 -177 293 -164Q289 -148 293 -140Q293 -116 289 -99Q288 -77 286 -55Q288 -49 283 -47Q279 -45 277 -42Q266 -40 263 -44Q259 -46 253 -53Q250 -57 247 -59Q243 -61 236 -64Q229 -67 229 -76Q224 -80 220 -94Q217 -104 213 -110Q213 -115 217 -114Q223 -112 228 -114Q233 -115 233 -120Q233 -125 234 -129Q236 -148 237 -167Q236 -176 239 -193Q242 -211 240 -220Q233 -219 224 -212Q216 -205 198 -194Q182 -185 174 -178Q170 -174 163 -171Q154 -167 151 -163Q137 -153 123 -144Q117 -133 107 -140Q99 -150 94 -152Q95 -156 83 -168Q76 -172 68 -177Q65 -184 69 -187Q73 -191 77 -194Q88 -204 102 -205Q116 -206 131 -206Q167 -224 201 -249Q224 -264 239 -274Q246 -276 246 -283Q246 -290 246 -296Q248 -313 249 -330Q253 -367 253 -402Q255 -407 250 -408Q245 -408 240 -408Q231 -401 220 -399Q209 -397 198 -393Q195 -391 173 -384Q169 -382 161 -385Q153 -388 150 -387Q146 -397 135 -406Q127 -406 124 -415Q121 -424 126 -430Q130 -453 140 -477Q154 -494 165 -517Q169 -522 171 -528Q174 -532 179 -528Q182 -528 182 -527Q181 -524 182 -517Q186 -503 186 -493Q194 -485 184 -465Q184 -457 180 -449Q176 -442 182 -436Q217 -448 252 -467Q260 -471 260 -478Q261 -484 260 -489Q259 -504 259 -541Q257 -566 255 -591Q255 -611 254 -615Q257 -619 254 -626Q252 -631 253 -635Q253 -645 252 -655Q251 -666 241 -670Q231 -673 234 -683Q233 -688 235 -688Q239 -688 245 -689Q251 -693 263 -689Q274 -686 280 -687Q285 -684 291 -683Q298 -682 301 -676Q310 -657 306 -621Q309 -617 306 -608Q304 -600 305 -596Q313 -578 306 -559Q307 -542 308 -525Q306 -519 312 -515Q317 -512 322 -517Q327 -518 333 -511Q339 -504 345 -506Q367 -505 385 -504Q397 -503 395 -488Q393 -473 382 -472Q377 -468 357 -461Q330 -449 325 -446Q308 -441 308 -420Q309 -416 307 -407Q305 -400 308 -396Q307 -387 305 -380Q304 -364 303 -349Q303 -335 304 -320Q311 -318 318 -324Q325 -330 332 -334Q351 -346 368 -361Q376 -367 384 -373Q381 -363 382 -352Q386 -346 382 -340Q378 -335 374 -329ZM665 -637H698Q703 -637 708 -633Q713 -629 710 -623Q720 -613 718 -604Q714 -594 704 -592Q694 -590 685 -587Q664 -583 643 -580Q633 -580 623 -580Q620 -577 615 -576Q608 -575 606 -572Q593 -572 584 -568Q578 -570 575 -567Q572 -564 572 -558Q571 -531 575 -505Q595 -512 614 -519Q620 -526 630 -525Q639 -524 648 -525Q661 -523 676 -521Q690 -519 702 -510Q709 -500 708 -489Q705 -479 702 -469Q699 -461 695 -453Q689 -452 684 -437Q681 -435 676 -428Q671 -420 666 -419Q665 -417 662 -416Q658 -414 658 -411Q653 -410 649 -409Q644 -408 644 -404Q639 -399 640 -395Q641 -391 647 -389Q647 -367 613 -362Q594 -356 574 -350Q565 -348 553 -354Q543 -355 537 -362Q530 -370 524 -377Q519 -377 516 -383Q513 -388 510 -389Q487 -404 490 -424Q491 -441 496 -457Q529 -515 532 -519Q542 -541 558 -558Q549 -559 542 -559Q532 -554 521 -550Q518 -547 513 -550Q508 -553 505 -550Q487 -557 479 -564Q472 -567 459 -567Q447 -569 434 -572Q442 -579 449 -581Q468 -585 487 -590Q501 -596 511 -594Q512 -596 521 -599Q532 -602 543 -606Q555 -612 566 -611Q578 -618 599 -623Q631 -633 665 -637ZM632 -477Q630 -478 625 -473Q616 -465 596 -465Q587 -465 585 -471Q582 -470 575 -473Q567 -476 566 -469Q559 -456 557 -438Q556 -420 549 -404Q553 -391 561 -385Q573 -385 587 -390Q602 -407 611 -426Q620 -445 628 -464Q630 -465 632 -468Q636 -476 632 -477ZM798 -363Q805 -360 812 -363Q831 -364 848 -358L863 -354L883 -339Q883 -335 888 -333Q893 -331 893 -329Q903 -323 911 -314Q911 -309 915 -305Q919 -301 919 -300Q924 -297 924 -290Q924 -284 926 -282Q929 -263 928 -259Q931 -252 928 -239Q930 -234 926 -229Q922 -224 922 -221Q920 -213 921 -205Q924 -184 909 -148Q909 -124 898 -98Q888 -65 871 -35Q869 -26 860 -24Q851 -23 850 -14Q849 -13 833 6Q829 4 827 7Q825 11 823 13Q814 13 804 13Q794 -5 792 -6Q793 -10 786 -13Q779 -16 778 -19Q773 -17 770 -20Q768 -22 765 -25Q779 -25 802 -30Q818 -32 827 -60Q868 -144 870 -192Q878 -227 870 -263Q873 -295 847 -311Q828 -325 805 -325Q792 -325 777 -320Q767 -321 760 -319Q744 -314 728 -309Q721 -307 714 -306Q694 -299 674 -293Q663 -289 651 -286L636 -278Q630 -281 622 -273Q592 -262 566 -247Q555 -245 538 -234Q518 -221 505 -221Q496 -216 486 -219Q482 -218 476 -223Q469 -229 466 -223Q467 -218 464 -214Q461 -210 461 -209Q458 -206 457 -197Q457 -188 452 -185Q441 -159 441 -152Q435 -133 437 -111Q434 -108 435 -98Q436 -90 434 -86Q427 -77 432 -69Q435 -55 421 -52Q416 -52 413 -57Q408 -59 404 -69Q401 -78 396 -82Q395 -91 388 -102Q380 -114 380 -121Q368 -132 378 -139Q386 -152 393 -165Q396 -181 403 -195Q406 -214 415 -230Q431 -251 443 -272Q456 -293 475 -309Q487 -324 497 -332Q511 -343 524 -343Q522 -339 522 -329Q513 -316 513 -302Q496 -292 493 -277Q494 -274 492 -267Q491 -261 493 -259Q501 -261 509 -264Q516 -268 523 -274Q530 -279 538 -278Q547 -287 558 -290Q587 -307 626 -318Q646 -325 665 -333Q680 -336 704 -345Q726 -353 745 -357Q756 -358 766 -359Q772 -361 782 -361Q793 -361 798 -363ZM667 -250Q685 -250 690 -248Q711 -254 718 -240Q718 -237 723 -235Q727 -233 727 -231Q740 -218 732 -200Q728 -197 726 -189Q724 -181 722 -179Q721 -174 712 -167Q706 -162 703 -157Q699 -154 701 -150Q703 -147 708 -146Q712 -136 711 -127Q707 -120 694 -124Q693 -119 685 -117Q671 -118 659 -114Q655 -112 633 -110Q616 -106 613 -106Q611 -107 588 -113Q585 -116 580 -112Q576 -108 573 -110Q569 -109 565 -115Q560 -122 556 -122Q553 -125 549 -128Q542 -133 541 -136Q530 -162 537 -174Q539 -205 561 -216Q565 -221 569 -227Q573 -232 580 -232Q582 -228 583 -222Q585 -219 588 -222Q600 -227 612 -232Q627 -238 642 -245Q651 -246 667 -250ZM675 -216Q658 -216 650 -212Q645 -208 637 -207Q626 -206 623 -203Q621 -197 616 -200Q612 -202 607 -203Q602 -201 596 -203Q590 -205 588 -203Q586 -189 583 -175Q586 -160 580 -147Q582 -144 581 -137Q579 -128 585 -127Q598 -128 618 -135Q638 -142 647 -143Q673 -195 677 -208Q682 -218 675 -216Z"/>
</svg>