<svg xmlns="http://www.w3.org/2000/svg" viewBox="0 -800 1024 1024">
	<path fill="#000000" d="M568 -770Q581 -770 583 -769Q594 -767 604 -766Q617 -766 636 -745Q635 -733 644 -722Q645 -710 646 -698Q642 -693 640 -672Q636 -663 637 -651Q638 -644 645 -645Q651 -647 656 -649Q665 -645 681 -647Q685 -649 689 -646Q693 -642 697 -639Q703 -637 701 -631Q699 -626 699 -620Q703 -613 689 -604Q684 -605 669 -597Q648 -593 635 -587Q629 -587 627 -582Q625 -577 624 -572Q622 -553 615 -535Q614 -530 611 -525Q608 -520 614 -515Q635 -519 655 -524Q676 -528 697 -532Q721 -539 753 -542Q756 -544 775 -546H810Q825 -544 841 -542Q857 -540 869 -528Q876 -523 879 -514Q891 -509 888 -501Q886 -491 886 -480Q887 -469 880 -460Q879 -451 871 -447Q864 -442 858 -436Q846 -430 839 -418Q832 -417 825 -408Q816 -410 810 -398Q806 -398 800 -392Q796 -388 793 -387Q783 -390 778 -379Q769 -378 762 -371Q751 -369 747 -362Q734 -364 731 -356Q727 -353 721 -356Q715 -359 712 -357Q698 -360 690 -350Q688 -347 682 -346Q676 -345 674 -342Q672 -329 675 -314Q675 -300 674 -286Q667 -274 670 -260Q671 -253 666 -242Q661 -231 662 -223Q658 -219 663 -215Q667 -211 672 -214Q677 -213 688 -215Q701 -219 716 -220Q728 -224 769 -229Q773 -230 796 -233Q800 -237 805 -235Q810 -233 815 -232Q821 -234 827 -228Q832 -222 836 -222Q843 -225 845 -215Q845 -195 837 -186Q817 -183 796 -181Q790 -179 772 -179Q752 -179 743 -174Q724 -176 712 -170Q690 -170 670 -166Q664 -166 659 -165Q653 -164 650 -158Q645 -150 643 -136Q636 -127 637 -114Q630 -108 624 -95Q619 -84 617 -81Q614 -77 609 -72Q604 -68 607 -62Q618 -60 634 -61Q642 -62 650 -61Q678 -59 706 -58Q727 -57 747 -51Q759 -48 773 -43Q791 -37 809 -32Q821 -23 835 -18Q841 -11 843 -1Q849 12 843 15Q839 16 836 22Q834 27 832 28Q824 21 820 29Q818 35 809 31Q802 28 799 29Q773 19 739 3Q713 -7 687 -18Q675 -19 665 -25Q652 -25 630 -31Q624 -31 613 -36Q604 -40 598 -40Q590 -40 584 -44Q578 -41 563 -28Q554 -26 550 -20Q548 -13 541 -12Q534 -11 528 -9Q519 -18 527 -26Q542 -37 549 -55Q569 -87 586 -120Q592 -132 597 -145Q596 -150 589 -150Q583 -150 579 -147Q565 -149 550 -146Q535 -143 523 -139Q507 -139 492 -135Q481 -130 469 -130Q450 -124 437 -130Q420 -134 405 -141Q401 -145 387 -147Q381 -148 379 -152Q379 -153 380 -153Q426 -163 451 -166Q498 -176 509 -177Q533 -184 561 -186Q585 -191 608 -197Q618 -204 618 -217Q617 -230 620 -241Q621 -257 625 -271Q625 -294 625 -318Q626 -338 627 -358Q628 -368 619 -377Q617 -382 615 -387Q613 -393 617 -395Q641 -392 662 -377Q666 -375 670 -362Q670 -357 675 -357Q679 -357 684 -360Q693 -369 713 -385Q716 -387 718 -389L728 -399Q731 -401 733 -403Q744 -406 761 -425Q774 -429 775 -438Q774 -445 780 -446Q786 -447 790 -449Q792 -454 810 -482Q811 -486 813 -490Q816 -494 813 -498Q804 -497 794 -497L755 -494Q742 -494 735 -493Q711 -488 687 -483Q682 -479 671 -478Q661 -477 658 -475Q636 -472 617 -464Q593 -462 589 -458Q581 -451 571 -452Q560 -453 551 -451Q539 -446 527 -441Q507 -437 487 -433Q482 -435 470 -433Q463 -432 459 -433Q449 -440 437 -440Q425 -441 414 -442Q411 -443 410 -444Q410 -446 414 -448Q424 -453 444 -461Q481 -472 518 -483Q525 -486 533 -487Q541 -489 547 -495Q554 -510 563 -557Q566 -562 564 -567Q561 -573 555 -571Q549 -568 539 -573Q531 -577 525 -575Q507 -581 499 -583Q498 -584 491 -587Q486 -589 488 -592Q491 -594 509 -599Q522 -607 547 -615Q569 -622 575 -625Q581 -630 581 -645Q581 -656 583 -660Q585 -690 585 -705Q583 -715 583 -725Q583 -736 576 -743Q571 -751 564 -754Q557 -758 551 -761Q552 -767 558 -767Q563 -768 568 -770ZM256 -670L260 -669Q274 -664 292 -666Q313 -666 318 -655Q316 -650 323 -644Q330 -638 328 -632Q324 -628 327 -618Q330 -608 327 -603Q327 -572 325 -563Q323 -547 323 -532Q314 -515 320 -505Q317 -494 324 -484Q337 -486 349 -496Q356 -494 365 -496Q370 -494 378 -481Q377 -475 377 -470Q377 -464 371 -462Q366 -457 354 -455Q342 -453 338 -449Q318 -448 318 -429Q318 -412 317 -395Q318 -381 318 -368Q316 -362 322 -360Q328 -358 332 -363Q352 -375 374 -382Q383 -384 384 -378Q385 -372 377 -364Q370 -358 363 -353Q354 -338 342 -327Q333 -318 321 -308Q310 -298 315 -284Q316 -252 311 -224Q309 -210 311 -193Q310 -190 313 -165Q312 -155 310 -145Q313 -134 310 -123Q308 -110 314 -99Q312 -87 310 -75Q308 -65 306 -55Q309 -48 303 -40Q300 -38 301 -32Q302 -26 300 -24Q287 -22 286 -15Q279 -14 275 -19Q270 -24 266 -26Q259 -30 254 -43Q250 -54 245 -57Q237 -60 238 -67Q238 -74 239 -80Q240 -83 241 -87L246 -101Q248 -105 248 -108Q250 -123 252 -138Q254 -153 256 -169Q258 -179 259 -189Q260 -206 260 -223Q259 -234 262 -245Q258 -252 251 -248Q245 -244 241 -238Q221 -227 205 -212Q183 -190 171 -179Q159 -170 148 -161Q136 -152 123 -146Q116 -151 114 -158Q106 -169 96 -175Q90 -174 88 -180Q86 -186 89 -190Q91 -192 92 -197Q93 -204 97 -204Q102 -208 121 -208Q128 -208 133 -212Q154 -227 176 -240Q219 -276 261 -313Q268 -317 271 -325Q269 -337 271 -357Q273 -377 272 -384Q274 -402 276 -421Q277 -428 271 -429Q264 -430 261 -426Q251 -426 233 -417Q217 -409 207 -409Q200 -411 188 -405Q180 -408 171 -416Q161 -425 158 -426Q155 -433 155 -453Q158 -470 163 -485Q170 -511 179 -532Q186 -532 197 -519Q197 -514 203 -509Q210 -504 210 -500Q216 -490 210 -471Q211 -467 206 -461Q200 -455 202 -449Q207 -445 222 -453L253 -464Q259 -468 267 -469Q274 -470 278 -478Q279 -496 279 -528Q280 -544 278 -557Q278 -582 277 -608Q271 -625 265 -647Q259 -659 256 -670ZM499 -358Q515 -357 530 -356Q558 -353 576 -344Q579 -340 587 -335Q599 -327 602 -321Q602 -312 602 -304Q602 -298 597 -296Q592 -293 589 -289Q583 -283 573 -285Q567 -289 560 -284Q557 -282 551 -273Q546 -257 548 -252Q549 -245 558 -239Q569 -232 570 -226Q569 -217 559 -214Q543 -202 534 -211Q529 -226 523 -227Q517 -229 510 -243Q507 -248 510 -252Q513 -255 516 -258Q512 -275 535 -289Q555 -300 549 -309Q532 -327 514 -337Q504 -344 493 -352Q491 -355 492 -356Q495 -358 499 -358Z"/>
</svg>