<svg xmlns="http://www.w3.org/2000/svg" viewBox="0 -800 1024 1024">
	<path fill="#000000" d="M523 -658Q530 -657 537 -657Q546 -657 554 -657Q562 -656 571 -657Q579 -659 587 -653Q589 -650 598 -651Q606 -652 610 -649Q613 -650 615 -645Q617 -639 618 -638Q618 -636 624 -633Q631 -630 630 -626Q628 -622 618 -616Q610 -611 607 -607Q602 -604 595 -608Q588 -612 585 -609Q578 -604 566 -616Q543 -624 520 -633Q496 -642 472 -651Q472 -657 477 -656Q483 -656 488 -655Q491 -656 497 -656L514 -657Q519 -657 523 -658ZM687 -586H697Q713 -581 716 -578Q718 -574 712 -571Q707 -568 704 -565Q697 -562 692 -549Q684 -544 674 -544Q668 -540 654 -537Q643 -535 638 -532Q622 -530 592 -514Q586 -514 585 -509Q584 -505 587 -501Q595 -495 587 -485Q568 -473 555 -453Q549 -451 548 -446Q546 -441 545 -436Q534 -422 529 -406Q514 -393 504 -375Q498 -371 494 -362Q493 -357 489 -353Q486 -348 492 -345Q504 -347 515 -349Q606 -377 618 -377L635 -383Q638 -383 644 -385Q655 -387 656 -393Q658 -398 661 -404Q665 -409 672 -408Q679 -406 685 -407Q702 -412 711 -408Q718 -411 730 -408Q737 -409 739 -400V-394Q740 -393 740 -391Q743 -386 738 -380Q737 -375 730 -373Q723 -371 721 -369Q710 -369 702 -364Q691 -362 676 -357Q663 -351 650 -346Q641 -343 632 -340Q619 -336 603 -333Q590 -330 577 -328Q575 -327 573 -326L565 -322Q563 -321 561 -320Q553 -318 547 -316Q530 -311 515 -310Q509 -309 503 -309Q485 -306 476 -305Q469 -306 462 -307Q451 -305 438 -320Q429 -329 425 -348Q424 -359 430 -367Q436 -376 443 -383Q441 -391 451 -397Q458 -401 459 -405Q468 -414 467 -427Q480 -432 482 -435Q479 -445 489 -449L516 -484Q517 -489 525 -496Q533 -504 534 -510Q528 -515 522 -512Q516 -510 510 -509Q494 -513 481 -519Q465 -515 463 -526Q480 -539 494 -537Q509 -542 539 -550Q545 -550 585 -561Q612 -568 638 -576Q646 -581 667 -583Q668 -583 687 -586ZM240 -568Q256 -570 265 -564L288 -547Q287 -542 290 -533Q293 -524 291 -520Q293 -502 288 -483Q283 -479 283 -468Q283 -460 281 -456Q287 -443 281 -428Q274 -413 281 -402Q290 -394 291 -384Q293 -374 295 -363Q291 -349 289 -334Q288 -319 280 -307Q283 -298 277 -290Q271 -277 264 -264Q265 -257 261 -256Q261 -252 260 -247Q258 -242 262 -241Q266 -244 276 -253Q287 -263 295 -267Q299 -269 308 -278Q317 -289 327 -298Q336 -307 342 -319Q343 -322 344 -322Q345 -322 346 -319Q340 -309 339 -303Q336 -294 332 -285Q325 -276 326 -266Q323 -259 317 -251Q316 -243 305 -228Q299 -221 296 -214Q271 -186 263 -180Q238 -157 212 -128Q201 -122 194 -115Q186 -114 178 -121Q174 -124 164 -137Q158 -140 161 -150Q162 -155 159 -162Q155 -171 160 -176Q163 -183 174 -185Q174 -191 179 -193Q183 -195 187 -198Q191 -205 195 -213Q198 -221 189 -225Q179 -242 166 -257Q123 -292 117 -320Q103 -343 120 -372Q137 -391 148 -396Q160 -403 172 -410Q193 -424 223 -427Q231 -426 232 -431Q234 -438 235 -445Q238 -479 231 -507Q232 -516 225 -517Q218 -517 212 -517Q201 -513 189 -518Q177 -523 166 -525L151 -539Q150 -544 153 -544Q159 -544 163 -544Q189 -545 208 -559Q214 -563 240 -568ZM212 -391Q187 -389 171 -377Q154 -372 145 -352Q135 -334 155 -305Q179 -283 199 -276Q204 -272 207 -275Q209 -277 211 -284Q223 -377 223 -381Q227 -386 222 -390Q217 -394 212 -391ZM741 -325Q747 -323 752 -321Q754 -326 757 -324Q760 -321 763 -319Q777 -318 782 -316Q792 -312 789 -302Q793 -293 790 -277Q787 -264 788 -259Q791 -254 786 -246Q782 -240 783 -237Q778 -214 776 -192Q771 -173 770 -152Q774 -148 772 -130Q776 -99 788 -90Q793 -82 798 -85Q809 -80 821 -79Q829 -77 837 -75Q852 -75 866 -75Q882 -75 898 -75Q915 -78 930 -79Q934 -77 942 -79Q952 -82 956 -79Q965 -84 972 -106Q978 -122 982 -155Q985 -179 988 -191Q988 -201 990 -191Q989 -183 992 -170Q995 -155 993 -147Q998 -146 997 -139Q996 -133 998 -129Q998 -107 1012 -84Q1019 -83 1018 -77Q1017 -72 1019 -67Q1022 -71 1026 -69Q1030 -67 1027 -62Q1023 -61 1021 -56Q1018 -49 1015 -48Q1017 -41 1013 -39Q1009 -38 1007 -44Q1006 -47 1004 -47Q1001 -43 997 -37Q979 -39 977 -40Q971 -39 965 -38Q959 -37 955 -42Q951 -48 947 -44Q943 -38 940 -40Q928 -34 915 -35Q908 -36 901 -35Q893 -34 886 -38Q884 -37 881 -38Q876 -40 874 -37Q867 -36 849 -39Q836 -42 827 -41Q808 -48 800 -49Q791 -54 781 -59Q769 -65 756 -71Q752 -72 748 -79Q743 -86 738 -88Q718 -108 716 -143Q715 -163 720 -205Q733 -255 745 -305Q747 -309 741 -315Q735 -321 741 -325ZM612 -314Q615 -315 623 -313Q628 -312 633 -310Q638 -309 641 -303Q642 -291 645 -280Q644 -271 645 -262Q638 -255 640 -239Q641 -235 639 -228Q636 -219 639 -214Q640 -208 635 -198Q631 -190 631 -184Q630 -170 625 -157Q623 -151 624 -144Q625 -137 620 -132Q611 -125 600 -137Q591 -152 582 -164Q580 -195 603 -255Q610 -275 617 -296Q616 -301 611 -305Q606 -310 612 -314ZM492 -304Q501 -302 506 -298Q513 -297 518 -292Q522 -286 528 -281Q535 -274 525 -261Q519 -249 518 -235Q522 -224 518 -214Q515 -209 514 -195Q513 -182 509 -176Q509 -157 503 -139Q503 -134 502 -132L499 -113Q498 -111 498 -106Q498 -90 486 -90Q472 -90 457 -108Q448 -121 444 -134Q445 -141 442 -152Q438 -165 441 -171Q446 -175 449 -185Q451 -193 454 -196Q455 -208 465 -228Q471 -247 477 -266Q480 -286 489 -304Z"/>
</svg>