<svg xmlns="http://www.w3.org/2000/svg" viewBox="0 -800 1024 1024">
	<path fill="#000000" d="M330 -682Q335 -683 338 -678Q336 -671 341 -668Q345 -666 350 -662L374 -640Q383 -634 380 -623Q377 -613 368 -607Q361 -606 348 -593Q345 -585 331 -576Q317 -567 314 -559Q304 -546 293 -535Q289 -533 278 -522Q272 -515 266 -508Q262 -500 267 -491Q269 -488 278 -479Q280 -475 288 -467Q295 -460 296 -455Q310 -431 309 -407Q311 -394 312 -379Q308 -376 309 -367Q310 -360 308 -356Q311 -351 312 -347Q312 -345 316 -346Q348 -369 378 -387Q383 -387 387 -391Q391 -395 394 -395Q396 -398 400 -400Q405 -402 405 -405Q409 -406 409 -409Q409 -411 413 -411Q405 -400 402 -381Q396 -382 394 -378Q393 -376 394 -370Q387 -358 377 -347Q375 -344 368 -340Q360 -336 360 -329Q353 -321 340 -315Q339 -309 334 -308Q329 -307 323 -304Q323 -298 316 -291Q309 -285 309 -279Q306 -267 305 -253Q302 -241 304 -224Q306 -220 301 -214Q295 -207 299 -204Q297 -197 300 -187Q302 -178 301 -174Q301 -137 299 -120Q303 -115 302 -109Q301 -102 302 -98Q299 -95 300 -85Q301 -74 296 -71Q300 -54 289 -41Q283 -33 279 -25Q272 -12 259 -21Q257 -19 255 -22Q253 -27 247 -26Q238 -36 229 -46Q220 -69 219 -79Q226 -76 234 -80Q240 -95 245 -110Q250 -178 249 -199Q251 -214 245 -228Q229 -214 212 -206Q200 -192 193 -190Q187 -190 186 -187Q184 -184 182 -181Q181 -176 175 -173Q169 -170 167 -166Q157 -165 150 -172Q142 -180 135 -187Q123 -199 121 -202Q114 -212 119 -220Q114 -236 118 -241Q123 -239 127 -243Q132 -247 134 -248Q151 -278 164 -306Q174 -331 198 -374Q190 -371 181 -369Q161 -355 143 -348Q138 -344 132 -344Q125 -344 112 -354Q106 -356 104 -361Q102 -366 99 -370Q99 -376 103 -377Q108 -379 112 -381Q164 -423 229 -435Q234 -437 242 -436Q250 -435 251 -443Q247 -458 231 -482Q216 -507 217 -528Q223 -553 242 -577Q257 -593 272 -610Q280 -623 296 -639Q313 -656 317 -662Q322 -665 324 -673Q326 -680 330 -682ZM538 -665L543 -664Q547 -661 559 -661Q573 -661 578 -656Q587 -655 592 -647Q597 -638 594 -629Q595 -624 588 -619Q581 -613 580 -609Q572 -605 571 -597Q570 -588 566 -581Q559 -576 558 -569Q557 -553 553 -535Q549 -522 551 -507Q549 -491 546 -475Q546 -467 548 -461Q588 -469 626 -480Q635 -487 634 -499Q632 -512 630 -522Q631 -524 628 -529Q625 -535 628 -537Q639 -533 649 -531Q666 -528 671 -519Q677 -515 677 -508Q676 -501 677 -496Q674 -488 680 -487Q686 -485 692 -486Q696 -489 703 -483Q708 -479 711 -479Q716 -470 711 -461Q713 -455 702 -455Q694 -452 683 -452Q672 -452 670 -442Q666 -437 667 -427Q668 -418 666 -415Q668 -402 664 -392Q660 -382 659 -372Q678 -369 697 -373Q705 -375 720 -367Q737 -358 748 -364Q757 -363 764 -370Q769 -376 771 -384Q777 -392 785 -408Q791 -422 796 -428Q808 -452 819 -477Q827 -507 825 -535Q825 -553 818 -567Q810 -580 800 -587Q791 -586 781 -586Q737 -580 712 -579Q692 -574 671 -567Q666 -567 658 -562Q645 -554 638 -557Q625 -563 611 -563Q605 -566 590 -564Q585 -563 579 -566Q572 -570 569 -563Q565 -563 565 -565Q569 -571 572 -578Q600 -589 625 -602Q627 -602 677 -618Q705 -622 732 -626Q781 -636 815 -635Q838 -638 846 -622Q852 -623 858 -620Q862 -613 867 -607Q871 -601 869 -593Q875 -582 877 -575Q885 -557 885 -548Q887 -544 884 -538Q880 -531 883 -526Q879 -519 874 -481Q867 -471 860 -449Q854 -429 848 -420Q839 -405 837 -396Q829 -394 827 -386Q825 -379 822 -374Q814 -358 806 -342Q799 -333 792 -324Q787 -321 782 -311Q777 -300 771 -298Q766 -310 760 -322Q759 -325 753 -329Q748 -332 746 -337Q741 -338 741 -344Q740 -351 736 -351Q728 -351 725 -346Q723 -340 720 -336Q716 -334 709 -328Q704 -322 700 -322Q683 -331 661 -307Q654 -307 643 -298Q625 -287 609 -268Q579 -245 562 -226Q555 -222 543 -207Q531 -192 523 -188Q521 -181 516 -175Q514 -172 519 -170Q551 -178 584 -182Q610 -188 636 -194Q656 -195 699 -203Q708 -206 720 -205Q732 -204 737 -215Q735 -238 729 -259Q728 -267 725 -276Q722 -284 728 -290Q742 -288 752 -279Q770 -269 772 -268Q782 -261 784 -252Q783 -248 789 -244Q795 -240 795 -238Q803 -225 810 -229Q821 -225 833 -228Q843 -220 858 -221Q883 -218 902 -207Q911 -205 906 -194Q902 -184 895 -188Q889 -184 889 -178Q890 -172 889 -167Q875 -167 860 -167Q838 -178 812 -171Q781 -171 783 -152Q784 -142 784 -132Q781 -115 781 -98Q780 -76 779 -55Q785 -35 783 -5Q781 22 778 48Q771 68 757 82Q758 86 752 89Q746 92 746 95Q741 100 736 94Q731 88 726 86Q716 70 703 59Q699 60 698 58Q700 53 707 49Q724 32 726 5Q729 -19 731 -43Q737 -89 737 -160Q723 -163 710 -159Q694 -159 647 -150Q605 -147 564 -135Q537 -130 509 -126Q498 -122 481 -132Q476 -133 476 -142Q476 -151 471 -152Q462 -151 456 -159Q451 -167 453 -175Q459 -182 464 -189Q468 -197 477 -201Q491 -209 507 -224Q518 -228 531 -241Q540 -251 566 -271Q589 -289 600 -301Q603 -304 601 -306Q599 -308 595 -309Q586 -305 576 -308Q572 -306 566 -310Q561 -313 558 -313Q544 -320 529 -325Q521 -326 519 -334Q516 -341 511 -346Q507 -352 497 -359Q485 -367 482 -373Q476 -415 483 -440Q492 -495 492 -502Q497 -518 502 -535Q502 -538 511 -594Q518 -623 538 -665ZM544 -454L543 -450Q543 -441 542 -432Q543 -401 543 -371Q545 -368 545 -358Q545 -348 549 -344Q582 -346 605 -357Q614 -379 619 -405Q620 -415 623 -423Q626 -432 624 -442Q619 -442 617 -441H603Q601 -440 596 -440Q569 -442 559 -448Q552 -451 544 -454ZM247 -320L239 -318Q237 -312 232 -305Q226 -298 227 -291Q238 -294 249 -302Q251 -305 251 -312Q251 -320 247 -320Z"/>
</svg>