<svg xmlns="http://www.w3.org/2000/svg" viewBox="0 -800 1024 1024">
	<path fill="#000000" d="M344 -723Q353 -720 357 -723Q375 -723 393 -721Q459 -728 499 -702Q496 -701 497 -697Q498 -693 494 -691Q492 -685 496 -683Q499 -681 504 -684Q508 -692 515 -693Q525 -689 535 -691Q545 -694 556 -695Q558 -696 562 -694Q569 -690 571 -695Q578 -692 580 -686Q583 -680 586 -674L572 -656Q572 -649 566 -650Q559 -650 557 -646Q549 -644 540 -643Q531 -643 526 -638Q529 -636 535 -634L542 -632Q548 -630 551 -628Q573 -626 576 -605Q584 -600 579 -582Q571 -569 567 -557Q560 -554 557 -546Q551 -546 549 -538Q547 -531 545 -529Q539 -528 535 -523Q531 -517 536 -513Q541 -511 553 -517Q560 -520 565 -521Q571 -524 579 -521Q582 -528 589 -529Q596 -531 602 -533Q605 -541 620 -541Q631 -539 640 -543Q648 -543 655 -543Q657 -545 662 -544Q667 -543 668 -547Q671 -549 674 -545Q677 -541 677 -537Q680 -532 682 -534Q685 -539 690 -538Q695 -533 691 -530Q687 -527 684 -524Q681 -524 678 -515Q677 -513 677 -518Q675 -523 673 -522Q669 -519 670 -511Q671 -504 665 -502Q659 -500 654 -499Q641 -497 631 -493Q628 -495 624 -492Q620 -488 616 -491Q612 -486 601 -484Q590 -482 588 -481Q583 -488 571 -476Q555 -468 550 -470Q547 -467 541 -468Q534 -469 533 -465Q528 -458 511 -460Q508 -457 504 -454Q500 -451 494 -451Q485 -447 475 -445Q464 -444 459 -435Q459 -427 449 -405Q434 -382 419 -359Q417 -354 421 -353Q426 -353 430 -355Q452 -365 477 -372Q516 -383 554 -395Q581 -400 609 -404Q614 -401 627 -402Q639 -403 645 -399Q666 -393 670 -377Q692 -357 674 -332Q675 -327 670 -325Q666 -323 665 -321Q637 -296 632 -293Q632 -289 623 -285Q619 -283 617 -280Q614 -276 607 -276Q599 -276 596 -270Q591 -268 586 -261Q580 -253 576 -251Q576 -244 569 -240Q566 -238 556 -235Q551 -232 555 -228Q562 -224 565 -221Q583 -207 563 -180Q559 -176 557 -171Q554 -163 551 -162Q542 -145 529 -129Q528 -124 524 -117Q518 -107 518 -102Q512 -94 510 -83Q510 -75 507 -65Q503 -51 504 -45Q503 -31 506 -16Q508 -4 531 10Q535 11 540 14Q547 19 551 18Q584 29 618 29Q628 26 646 27Q663 28 670 26Q710 24 719 21Q727 24 734 20Q739 18 747 19Q756 20 760 18Q767 17 811 14Q827 12 842 10Q851 6 857 -4Q863 -14 868 -22Q874 -41 879 -61Q879 -73 885 -83Q888 -79 886 -69Q885 -61 886 -57Q885 -49 892 -35Q897 -25 898 -19Q899 -16 899 -10Q899 -2 903 2Q906 8 917 10Q926 12 929 14Q933 19 932 26Q931 35 929 43Q914 56 904 57Q896 65 888 67Q864 66 842 70Q833 67 816 70Q799 73 791 70Q774 81 765 70Q760 73 744 70L726 72Q707 71 688 70Q671 73 615 71Q586 67 557 62Q553 63 549 59Q544 55 542 56Q525 54 498 31Q494 24 486 16Q477 7 474 1Q473 -6 466 -20Q462 -28 460 -35Q460 -48 459 -62Q461 -67 460 -78Q459 -88 460 -92Q463 -98 468 -118Q474 -143 482 -154Q484 -164 493 -176Q500 -186 502 -190Q507 -193 505 -198Q503 -203 504 -206Q505 -206 508.5 -205Q512 -204 509 -212Q506 -222 502 -212Q496 -209 487 -199Q476 -187 470 -184L439 -153Q424 -140 382 -93Q379 -88 370 -78Q354 -62 352 -52Q332 -32 321 -29Q316 -21 310 -34Q300 -44 295 -55Q296 -61 294 -67Q292 -73 298 -75Q305 -82 320 -89Q333 -95 336 -97Q379 -136 392 -153Q396 -159 401 -164Q406 -170 406 -178Q416 -181 419 -192Q421 -194 421 -201Q421 -207 423 -209Q420 -215 409 -217Q397 -219 394 -225Q388 -230 386 -226Q383 -219 380 -213Q368 -212 361 -225Q350 -234 345 -247Q346 -251 344 -251Q340 -250 337 -252Q336 -256 337 -256Q341 -253 345 -255Q342 -265 342 -277Q341 -281 344 -286L347 -291Q350 -296 349 -300Q350 -303 347 -306Q344 -309 345 -311Q348 -333 360 -351Q370 -370 383 -384Q392 -396 390 -412Q390 -417 386 -417Q383 -417 381 -414Q377 -409 376 -410Q374 -414 376 -419Q365 -420 352 -418Q345 -415 331 -413Q315 -411 309 -407Q296 -406 284 -400Q278 -402 269 -397Q263 -395 227 -387Q223 -389 214 -385Q206 -382 202 -382Q196 -383 189 -383Q181 -382 177 -387Q159 -390 141 -397Q137 -398 136 -402Q136 -404 141 -404Q154 -405 166 -407Q196 -415 226 -423Q231 -426 239 -426Q248 -426 252 -429Q272 -434 291 -440Q293 -441 301 -439Q305 -444 311 -445Q320 -446 329 -448Q331 -453 337 -451Q343 -449 345 -451Q350 -448 352 -452Q354 -456 357 -460Q370 -459 382 -463Q402 -467 421 -476Q426 -475 429 -481Q432 -486 433 -486Q434 -483 435 -483Q440 -483 442 -490Q447 -490 449 -493Q450 -495 452 -501Q455 -513 462 -513Q470 -520 474 -531Q476 -538 479 -545Q483 -553 490 -554Q504 -580 510 -588Q511 -596 515 -603Q518 -610 516 -618Q509 -628 488 -634Q485 -633 453 -625Q448 -623 440 -622Q432 -622 433 -614Q435 -597 442 -584Q440 -574 437 -564Q429 -562 427 -553Q422 -549 419 -539Q416 -531 413 -528Q415 -520 413 -513Q410 -508 404 -504Q396 -498 394 -495Q393 -488 388 -489Q383 -490 377 -490Q377 -494 372 -502Q367 -510 368 -517Q370 -521 365 -523Q361 -525 361 -528Q345 -540 357 -557L360 -592Q369 -602 364 -617Q355 -619 345 -621Q336 -624 326 -625Q317 -626 310 -633Q316 -638 325 -639Q336 -639 347 -639Q366 -645 385 -651Q395 -655 404 -656Q419 -658 433 -664Q435 -668 428 -671Q419 -675 419 -679Q411 -676 401 -682Q398 -682 392 -687Q386 -692 381 -692L352 -704Q343 -705 336 -716Q334 -720 336 -721Q339 -722 344 -723ZM581 -363Q527 -354 474 -336Q469 -331 461 -331Q460 -331 442 -336Q427 -342 413 -343Q410 -341 408 -333Q406 -325 404 -323Q397 -319 395 -306Q393 -294 388 -290Q386 -284 389 -271Q392 -259 391 -254Q394 -236 398 -232Q413 -233 427 -237Q441 -239 454 -245Q464 -245 473 -246Q480 -250 487 -254Q496 -262 508 -263Q517 -267 529 -267Q535 -261 544 -266Q548 -265 550 -271Q551 -274 554 -275Q561 -289 567 -294Q569 -305 583 -313Q586 -322 599 -333Q599 -338 605 -342Q610 -345 611 -348Q616 -356 611 -361Q607 -366 598 -364Q596 -364 594 -364L585 -363Q583 -363 581 -363Z"/>
</svg>