<svg xmlns="http://www.w3.org/2000/svg" viewBox="0 -800 1024 1024">
	<path fill="#000000" d="M619 -746H626Q634 -742 641 -745Q642 -744 652 -741Q660 -738 662 -734Q670 -726 667 -718Q664 -709 660 -701Q657 -689 653 -678Q647 -673 642 -661Q633 -638 618 -623Q616 -622 612 -615Q610 -611 605 -608Q601 -603 606 -600Q610 -597 616 -598Q634 -595 651 -592Q657 -589 665 -588Q672 -587 677 -581Q685 -579 690 -571Q688 -561 685 -552Q679 -551 671 -547Q669 -544 664 -545Q659 -546 659 -542Q650 -543 639 -547Q622 -553 614 -553Q605 -551 604 -556L578 -563Q572 -567 566 -563Q563 -561 556 -554Q551 -545 541 -536Q535 -534 525 -525Q514 -515 505 -514Q497 -510 488 -510Q475 -509 470 -514Q480 -526 489 -531Q517 -558 520 -569Q525 -573 525 -577Q525 -582 518 -583Q514 -582 512 -584Q483 -595 460 -602Q434 -618 429 -630Q433 -632 441 -628Q448 -624 452 -624Q468 -620 483 -617Q493 -617 516 -613Q534 -609 548 -610Q552 -608 554 -611Q556 -615 558 -618Q559 -627 565 -634Q571 -641 575 -648Q604 -691 613 -714Q614 -723 606 -724Q598 -726 591 -729Q599 -742 619 -746ZM210 -567Q213 -562 218 -561Q224 -561 229 -559Q270 -563 287 -554Q303 -524 298 -472Q297 -462 299 -449Q317 -459 337 -459Q347 -459 356 -456Q369 -458 375 -448Q380 -438 377 -426Q374 -409 359 -407Q352 -397 350 -371Q348 -348 342 -337Q343 -323 342 -300Q340 -263 345 -248Q341 -234 359 -215Q374 -199 372 -188Q371 -176 362 -169Q353 -163 340 -163Q323 -163 314 -174Q310 -181 299 -184Q290 -187 289 -192Q282 -205 270 -208Q257 -212 244 -215Q239 -219 235 -219Q229 -219 222 -207Q215 -196 209 -195Q202 -182 192 -172Q181 -163 172 -153Q163 -130 139 -122Q131 -114 120 -112Q117 -112 118 -117Q138 -133 150 -153Q161 -174 173 -196Q213 -274 234 -370Q236 -379 231 -379Q224 -380 217 -375Q191 -366 174 -344Q157 -322 142 -299Q145 -289 143 -278Q141 -264 125 -263Q102 -283 95 -291Q80 -310 83 -328Q86 -344 86 -361Q87 -377 95 -389Q94 -400 103 -408Q107 -411 109 -407Q121 -383 133 -360Q135 -358 136 -349Q137 -339 142 -337Q155 -350 188 -374Q217 -395 230 -408Q244 -416 243 -442Q242 -476 244 -482Q244 -497 243 -512Q247 -528 227 -544Q210 -557 210 -567ZM551 -523L557 -521Q555 -515 559 -512Q564 -510 570 -509Q582 -507 592 -500Q604 -491 605 -479Q611 -470 609 -462Q617 -460 624 -463Q631 -466 638 -467Q652 -472 666 -478Q698 -485 727 -499Q738 -513 752 -509Q771 -510 789 -511Q801 -513 811 -510Q817 -504 807 -501Q805 -498 807 -497Q813 -494 814 -492Q810 -494 806 -488Q801 -482 798 -482Q795 -476 789 -474Q782 -472 776 -469Q764 -462 761 -463Q758 -464 752 -462Q746 -457 732 -454Q721 -451 716 -448Q703 -446 695 -436Q688 -427 680 -419Q679 -415 673 -410Q665 -403 665 -397Q655 -380 645 -363Q646 -358 641 -351Q635 -342 637 -337Q635 -308 626 -290Q624 -280 620 -270Q616 -261 618 -251Q624 -253 637 -263Q646 -270 653 -273Q674 -286 697 -294Q707 -297 709 -307Q707 -326 705 -346Q706 -351 700 -357Q694 -363 696 -369Q705 -371 708 -375Q714 -369 727 -367Q741 -364 745 -359Q751 -354 752 -337Q752 -326 755 -321Q767 -324 778 -327Q805 -336 842 -338Q862 -340 878 -337Q892 -336 904 -330Q924 -328 928 -311Q932 -301 937 -292Q942 -283 938 -273Q940 -253 933 -247Q934 -235 940 -223Q937 -211 939 -203Q942 -198 939 -196Q935 -195 931 -193Q926 -176 928 -161Q923 -156 919 -144Q920 -138 914 -133Q909 -129 910 -125Q905 -119 900 -113Q886 -89 854 -74Q849 -73 848 -66Q847 -59 843 -57Q836 -63 831 -72Q827 -79 819 -91Q819 -97 816 -99Q812 -102 809 -105Q809 -110 801 -114Q795 -117 794 -120Q807 -119 819 -116Q832 -112 846 -115L869 -138Q882 -163 885 -179Q887 -187 889 -195Q892 -222 893 -250Q893 -265 891 -280Q889 -296 872 -302Q850 -306 828 -300Q807 -295 787 -288Q779 -285 771 -282Q763 -280 757 -273Q756 -258 756 -246L753 -212Q755 -192 755 -182Q754 -175 753 -169Q755 -140 754 -127Q753 -111 755 -93Q754 -80 756 -53Q754 -31 752 -10Q750 -7 750 4Q753 17 744 31Q741 33 739 42Q737 49 734 52Q733 53 731 57Q729 62 725 63Q724 72 719 78Q713 85 705 84Q702 83 696 86Q690 89 687 87Q702 51 702 31Q702 15 702 -1L703 -76Q703 -92 703 -108Q705 -140 703 -160Q705 -170 704 -190Q703 -209 704 -216Q706 -237 703 -253Q687 -255 673 -243Q666 -242 659 -233Q654 -226 651 -225Q643 -225 635 -226Q618 -226 615 -224Q614 -216 612 -208Q605 -203 605 -191Q605 -181 602 -177Q602 -162 601 -147Q598 -136 599 -126Q603 -113 592 -108Q589 -108 584 -104Q578 -99 574 -102Q568 -104 567 -112Q566 -118 563 -120Q559 -118 558 -121Q556 -125 555 -128Q548 -140 552 -157Q555 -163 558 -168Q561 -173 560 -182Q563 -189 564 -196Q565 -203 571 -208Q572 -212 571 -218Q570 -223 574 -228Q578 -233 579 -247Q584 -261 588 -275Q589 -292 605 -322Q614 -337 622 -352Q632 -363 644 -384Q659 -409 668 -419Q678 -427 678 -436Q675 -435 670 -438Q666 -441 663 -439Q665 -434 660 -433Q655 -431 651 -430Q616 -418 614 -418Q604 -412 594 -406Q592 -391 589 -376Q575 -358 568 -337Q559 -311 548 -290Q541 -277 532 -271Q524 -258 515 -248Q515 -244 510 -241Q507 -239 504 -235Q501 -236 497 -232Q494 -228 491 -228Q487 -220 479 -221Q470 -222 464 -220Q461 -223 448 -225Q447 -227 441 -229Q436 -231 436 -234Q464 -245 476 -261Q480 -267 486 -273Q491 -279 493 -287Q506 -303 514 -321Q522 -339 531 -357Q531 -362 535 -371Q540 -381 538 -386Q524 -381 509 -376Q500 -373 492 -373Q480 -366 470 -367Q466 -362 457 -360Q448 -358 445 -355Q431 -352 416 -355Q402 -357 388 -354Q382 -350 377 -354Q374 -357 379 -361Q386 -364 392 -370Q398 -376 407 -375Q417 -380 427 -385Q431 -384 438 -389Q445 -394 449 -394Q462 -398 474 -403Q487 -410 500 -417Q506 -415 516 -420Q524 -424 529 -424Q545 -430 560 -437Q565 -449 565 -475Q561 -487 557 -499Q550 -509 549 -511Q546 -518 551 -523ZM298 -414Q292 -414 291 -409Q291 -404 291 -400Q292 -397 295 -397Q301 -398 304 -409Q306 -418 298 -414ZM342 -397Q333 -387 312 -381Q293 -375 287 -370Q282 -355 277 -330Q271 -298 265 -285Q264 -276 258 -263Q252 -250 252 -245Q256 -244 269 -246Q289 -249 298 -245Q312 -242 315 -251Q318 -261 319 -271Q321 -291 332 -333Q339 -358 342 -375Q347 -384 348 -395Q347 -398 342 -397Z"/>
</svg>