<svg xmlns="http://www.w3.org/2000/svg" viewBox="0 -800 1024 1024">
	<path fill="#000000" d="M454 -830L458 -829Q467 -827 476 -826Q488 -824 488 -807Q499 -797 488 -780Q488 -771 488 -763Q487 -749 485 -735Q485 -713 483 -689Q483 -688 483 -687Q495 -689 507 -691Q509 -690 514 -691Q522 -693 526 -689Q529 -687 531 -681Q533 -674 536 -673Q534 -661 528 -657Q523 -651 508 -649Q494 -648 489 -642Q480 -643 476 -637Q476 -629 475 -621Q478 -618 475 -615Q472 -611 474 -610Q472 -596 469 -583Q477 -580 487 -585Q504 -589 520 -594Q549 -606 581 -615Q585 -616 599 -630Q616 -643 616 -656Q612 -659 615 -662Q616 -663 622 -666Q622 -680 636 -677Q649 -683 660 -672Q661 -668 666 -668Q670 -669 670 -664Q672 -661 671 -656Q669 -648 673 -644Q676 -643 685 -646Q695 -649 701 -646Q709 -648 717 -646Q720 -645 724 -642Q729 -639 729 -635Q736 -628 729 -625Q725 -625 722 -620Q719 -615 718 -614L693 -607Q662 -598 631 -590Q619 -586 612 -580Q610 -576 602 -572Q596 -569 593 -565Q591 -564 589 -560Q586 -554 583 -555Q575 -544 548 -522Q547 -519 541 -515Q535 -510 534 -505Q536 -504 550 -509Q572 -516 594 -510Q595 -510 597 -508L603 -504Q605 -503 606 -502Q607 -498 614 -493Q622 -487 623 -481Q633 -471 633 -465Q637 -462 631 -456Q636 -455 636 -449V-444Q636 -441 637 -440Q635 -437 636 -431Q638 -424 635 -422Q632 -418 637 -411Q642 -405 638 -400Q637 -392 633 -384Q638 -376 634 -369Q633 -359 633 -349Q631 -335 625 -325Q626 -320 618 -302Q618 -293 603 -276Q601 -276 599 -271Q597 -267 595 -268Q589 -267 584 -275Q581 -280 577 -281Q576 -288 569 -293Q563 -298 558 -304Q558 -308 554 -309Q551 -310 547 -306Q529 -303 510 -301Q500 -301 489 -302Q482 -299 471 -302Q467 -299 459 -302Q456 -306 445 -311Q435 -316 433 -322Q423 -334 426 -351Q424 -369 428 -388Q432 -404 436 -420Q436 -424 435 -424Q431 -421 425 -420L415 -410Q409 -408 399 -401Q387 -392 380 -390L373 -382Q370 -381 367 -375Q363 -367 357 -367Q353 -369 348 -364Q343 -365 336 -356Q326 -356 316 -357Q313 -359 312 -366Q311 -372 307 -374Q306 -378 312 -382Q317 -385 318 -387Q318 -391 322 -391Q325 -392 328 -393Q342 -401 362 -418Q381 -435 390 -440L429 -477Q439 -483 445 -489Q451 -498 462 -499Q465 -500 467 -509L501 -541Q502 -542 506 -545Q511 -548 510 -550Q504 -552 493 -546Q486 -545 464 -536Q456 -538 448 -530Q449 -522 438 -509Q431 -511 429 -505Q423 -503 414 -511Q408 -517 404 -517Q397 -522 383 -516Q366 -511 349 -507Q332 -504 320 -496Q301 -492 282 -488Q275 -484 268 -481Q267 -481 251 -484Q237 -489 223 -488Q204 -484 195 -487Q197 -492 209 -492Q226 -501 246 -507Q261 -512 275 -517Q291 -524 306 -525Q319 -533 338 -536Q376 -547 413 -559Q421 -568 422 -581Q424 -598 426 -616Q427 -625 418 -625Q410 -626 403 -627Q395 -627 387 -628Q383 -631 372 -630Q361 -629 357 -631Q353 -630 353 -632Q353 -634 357 -636Q378 -647 401 -654Q416 -661 430 -669Q435 -699 437 -707Q439 -743 440 -780Q441 -795 435 -804Q422 -806 415 -804Q419 -813 421 -821Q430 -823 438 -825Q440 -828 446 -828Q451 -828 454 -830ZM565 -487Q542 -479 536 -476Q534 -474 515 -469Q508 -470 499 -472Q491 -473 485 -467Q476 -449 476 -446Q470 -439 472 -418Q479 -413 498 -421Q501 -420 505 -423Q510 -426 513 -425Q526 -423 542 -427Q550 -426 556 -423Q565 -420 563 -410Q566 -404 560 -402Q552 -400 544 -399Q533 -400 510 -396Q490 -396 469 -396Q465 -388 467 -380Q469 -372 469 -364Q469 -352 470 -350Q474 -347 472 -340Q470 -333 472 -330Q475 -324 481 -326Q486 -329 492 -331Q505 -333 518 -337Q531 -341 546 -339Q553 -343 560 -334Q565 -328 570 -329Q580 -354 584 -377Q586 -397 586 -437Q587 -444 587 -451Q585 -458 585 -467Q584 -476 578 -483Q573 -490 565 -487ZM749 -289Q763 -290 776 -285Q790 -287 800 -278Q805 -275 811 -263Q816 -252 824 -248Q824 -245 829 -239Q836 -230 834 -224Q832 -215 841 -207Q840 -196 842 -174Q842 -173 839 -154Q841 -143 836 -125Q830 -105 832 -95Q829 -76 825 -57Q825 -47 821 -38Q817 -30 814 -21Q820 -10 813 0Q808 3 807 10Q806 16 804 22Q803 29 795 39Q787 49 786 54Q787 58 781 65Q778 69 777 73Q777 77 769 80Q761 83 760 88Q757 94 752 90Q747 85 744 83Q732 70 723 57Q711 52 702 46Q700 43 694 39Q687 35 687 31Q697 31 709 29Q713 26 723 24Q736 21 741 17Q757 -11 764 -36Q770 -55 775 -75Q777 -94 779 -114Q783 -134 783 -143Q787 -167 785 -190Q782 -207 776 -220Q774 -231 766 -241Q757 -251 747 -251Q721 -252 700 -242Q678 -234 656 -227Q649 -224 642 -222Q636 -222 624 -216Q608 -208 599 -213Q586 -214 570 -222Q566 -223 561 -225Q555 -226 557 -231Q565 -236 582 -240Q598 -244 604 -247Q636 -258 647 -264Q660 -268 673 -273Q686 -281 700 -281Q709 -285 721 -285Q726 -288 737 -288Q745 -288 749 -289ZM420 -236Q428 -235 435 -234Q458 -236 465 -214Q474 -205 472 -195Q476 -182 475 -167Q471 -155 474 -143Q470 -138 468 -123Q466 -119 467 -111Q468 -104 467 -101Q470 -85 464 -69Q463 -51 462 -34Q457 -26 457 -15Q457 -2 452 10Q445 16 443 29Q439 32 437 39Q435 47 433 49Q423 52 421 63Q416 68 413 63Q409 58 405 56Q399 55 393 47Q389 42 386 40Q380 37 376 28Q372 21 369 18Q353 13 363 6Q376 6 387 2Q396 3 404 -15Q406 -18 417 -52Q417 -69 423 -83Q423 -120 424 -138Q425 -142 425 -147Q425 -155 425 -164Q426 -178 422 -188Q417 -200 405 -199Q392 -201 382 -196Q373 -192 363 -189Q353 -190 318 -185Q307 -184 297 -188Q280 -192 263 -196Q261 -196 261 -198Q262 -202 266 -202Q272 -206 283 -206Q294 -206 298 -207Q310 -211 324 -213Q357 -222 390 -231Q404 -235 420 -236ZM630 -177Q644 -177 648 -176Q657 -174 659 -166Q669 -165 671 -156Q673 -148 667 -142Q669 -135 664 -133Q659 -131 655 -128Q622 -132 575 -156Q569 -158 569 -160Q573 -166 587 -166Q606 -175 630 -177ZM320 -145Q344 -147 360 -137Q370 -131 368 -123Q365 -114 364 -106Q345 -104 325 -106Q320 -111 307 -117Q290 -124 285 -132Q303 -136 320 -145ZM406 -111Q408 -108 409 -105Q370 -48 331 -27Q330 -22 321 -19Q313 -16 314 -9Q300 -5 289 12Q276 24 263 29Q257 29 255 23Q227 -5 238 -25Q262 -49 270 -58Q283 -70 291 -74Q292 -73 290 -69Q293 -64 288 -53Q283 -42 289 -37Q301 -46 315 -54L380 -94Q394 -102 406 -111ZM650 -98H665Q670 -76 659 -68Q662 -64 658 -61Q649 -57 641 -55Q628 -53 608 -41Q580 -24 563 -26Q561 -33 550 -36Q542 -38 541 -42Q538 -46 539 -54Q541 -62 536 -65Q544 -72 549 -67Q553 -62 557 -57Q581 -68 603 -80Q625 -91 650 -98Z"/>
</svg>