<svg xmlns="http://www.w3.org/2000/svg" viewBox="0 -800 1024 1024">
	<path fill="#000000" d="M572 -745Q592 -749 607 -735Q623 -720 615 -701Q598 -696 581 -695Q563 -694 546 -692Q541 -690 526 -689Q507 -688 501 -681Q512 -651 512 -620Q521 -618 540 -623Q556 -627 563 -627Q572 -627 579 -624Q592 -627 596 -618Q599 -609 601 -600Q591 -587 574 -586Q558 -584 544 -581Q538 -578 531 -581Q524 -583 518 -584Q514 -584 511 -581Q503 -564 505 -549Q502 -524 503 -499Q501 -491 506 -485Q511 -480 520 -481Q533 -485 565 -490Q586 -493 601 -497Q607 -496 623 -498Q645 -501 655 -497Q667 -497 667 -486Q668 -476 669 -467Q651 -457 630 -455Q608 -453 587 -448Q524 -438 474 -434Q465 -434 453 -432Q440 -431 444 -419Q457 -409 459 -394Q461 -379 467 -366Q494 -377 524 -381Q553 -386 582 -393Q592 -392 604 -392Q615 -392 620 -383Q621 -377 622 -367Q623 -357 616 -352Q545 -339 518 -337Q493 -330 467 -336Q454 -314 448 -261Q459 -259 481 -263Q503 -267 511 -267Q581 -280 648 -287Q664 -291 686 -291Q742 -291 774 -258Q787 -238 784 -222Q792 -199 784 -157Q783 -150 784 -142Q785 -134 779 -128Q781 -101 764 -70Q749 -6 688 53Q656 74 629 96Q623 92 616 88Q609 83 608 77Q604 62 593 56Q581 49 569 44Q571 38 562 34Q555 31 553 27Q544 17 537 13Q530 12 522 10Q531 10 537 13Q572 20 600 20Q623 20 640 16Q653 9 665 -7Q670 -14 684 -37Q700 -63 709 -95Q717 -126 728 -156Q729 -177 731 -200Q732 -223 717 -239Q705 -242 691 -242Q672 -242 634 -236Q575 -227 516 -223Q483 -215 448 -222Q442 -226 434 -220Q422 -210 421 -210Q394 -229 390 -251Q385 -266 382 -279Q383 -284 388 -292Q394 -302 392 -309Q396 -315 396 -331Q396 -346 401 -352Q412 -373 401 -411Q400 -426 383 -426Q366 -424 349 -423Q325 -419 300 -419Q275 -415 252 -422Q229 -430 207 -437Q215 -437 248 -444Q262 -450 292 -452Q326 -455 340 -462Q333 -476 319 -490Q304 -505 311 -524Q311 -535 320 -555Q330 -577 328 -589Q341 -585 354 -581Q367 -582 368 -571Q370 -561 369 -552Q361 -547 362 -540Q364 -533 364 -526Q366 -514 365 -502Q363 -490 372 -479Q376 -469 387 -467Q393 -466 410 -467Q419 -470 434 -471Q446 -472 443 -481Q427 -500 436 -516Q437 -555 441 -595Q445 -636 443 -675Q429 -680 405 -672Q383 -664 372 -668Q357 -679 337 -679Q317 -678 300 -682Q339 -695 377 -708Q440 -723 505 -734Q531 -740 572 -745ZM245 -160L255 -157Q266 -157 267 -148Q268 -142 264 -129Q258 -120 252 -110Q246 -100 248 -87Q244 -81 244 -66Q244 -51 238 -43Q196 -68 203 -114Q205 -125 223 -138Q242 -151 245 -160ZM557 -152Q589 -153 615 -139Q655 -110 649 -89Q653 -68 635 -68Q623 -68 616 -78Q600 -84 588 -97Q576 -110 564 -124Q558 -141 541 -141Q534 -141 526 -138Q514 -136 512 -125Q511 -115 505 -107Q499 -101 498 -81Q497 -55 482 -53Q474 -61 464 -67Q455 -74 448 -85Q434 -94 432 -109Q430 -125 426 -138Q433 -142 443 -139Q452 -135 460 -133Q466 -133 476 -126Q483 -121 487 -120Q518 -145 557 -152ZM328 -139Q330 -137 339 -135Q347 -133 350 -129Q373 -126 378 -103Q379 -82 379 -78Q377 -63 364 -62Q351 -72 337 -83Q323 -94 325 -114Q327 -126 328 -139Z"/>
</svg>