<svg xmlns="http://www.w3.org/2000/svg" viewBox="0 -800 1024 1024">
	<path fill="#000000" d="M509 -699Q515 -695 521 -692Q541 -692 556 -680Q563 -674 574 -673Q583 -672 586 -664Q589 -656 592 -649Q595 -647 594 -639Q593 -630 597 -627Q600 -628 606 -633Q612 -638 617 -639Q644 -656 687 -666Q694 -672 711 -664Q723 -669 728 -665Q733 -666 742 -661Q749 -657 754 -657Q769 -647 773 -614Q776 -604 767 -597Q758 -590 753 -581Q743 -575 724 -554Q719 -552 712 -543Q705 -535 700 -533Q691 -532 684 -523Q677 -522 676 -514Q675 -507 671 -505Q660 -506 654 -499Q647 -492 640 -487Q632 -485 627 -479Q623 -474 617 -469Q601 -454 597 -433Q590 -419 583 -405Q577 -396 577 -384Q577 -377 571 -366Q565 -355 565 -348Q560 -338 561 -326Q562 -321 560 -314Q557 -303 561 -298Q591 -306 606 -312Q617 -316 628 -323Q639 -317 654 -316Q661 -319 670 -316Q679 -313 680 -305Q679 -287 661 -282Q646 -282 630 -274Q623 -275 617 -265Q612 -257 609 -261Q609 -273 601 -278Q595 -278 583 -284Q572 -289 564 -290Q555 -293 553 -283Q552 -262 548 -241Q543 -224 543 -205Q540 -192 537 -180Q540 -171 536 -154Q529 -149 531 -128Q524 -118 528 -107Q526 -90 528 -71Q529 -67 526 -44Q524 -42 523 -38Q522 -33 517 -33Q514 -37 506 -33Q501 -31 498 -32Q492 -33 487 -42Q483 -51 478 -52Q468 -52 460 -67Q460 -71 458 -81Q455 -94 459 -100Q463 -105 461 -111V-116Q461 -117 461 -118Q465 -145 475 -174Q482 -204 488 -235Q491 -243 494 -252Q498 -287 510 -335Q514 -357 523 -380Q533 -408 542 -420Q547 -429 555 -436Q562 -443 562 -453Q560 -457 561 -463Q562 -471 560 -474Q549 -486 546 -502Q546 -506 538 -513Q533 -518 532 -522Q530 -529 536 -538Q542 -547 540 -551Q538 -561 527 -547Q520 -537 509 -531Q488 -506 487 -506Q482 -504 479 -495Q477 -489 475 -487Q469 -487 466 -479Q463 -472 458 -473Q456 -476 434 -494Q419 -506 418 -518Q413 -529 428 -544Q430 -553 443 -562Q445 -568 461 -582Q470 -596 483 -607Q495 -619 504 -633Q509 -643 515 -651Q517 -654 519 -654Q521 -650 521 -642Q515 -633 522 -618Q522 -610 516 -602Q519 -582 498 -553Q487 -539 497 -538Q501 -545 512 -553Q523 -561 526 -565Q537 -571 544 -582L543 -636Q543 -645 536 -652Q529 -659 522 -657Q520 -673 514 -684Q510 -688 506 -693Q504 -697 509 -699ZM687 -630Q675 -628 671 -626Q648 -628 614 -616Q600 -614 595 -604Q587 -597 595 -582Q596 -576 596 -570Q593 -530 590 -491Q591 -486 587 -479Q581 -470 584 -465Q592 -461 604 -474Q612 -482 617 -484Q647 -517 665 -549Q671 -565 684 -587Q692 -603 696 -620Q699 -624 695 -629Q691 -634 687 -630ZM247 -532H249Q255 -530 261 -529Q268 -529 274 -530Q282 -531 292 -532Q302 -534 304 -526Q302 -522 304 -516Q306 -510 304 -507Q296 -503 287 -485Q290 -481 287 -468L262 -443Q261 -441 253 -424Q252 -420 247 -414Q239 -405 240 -400Q234 -385 228 -371Q226 -367 229 -366Q233 -365 237 -366Q256 -377 279 -380Q301 -383 323 -386Q336 -382 348 -383Q356 -383 363 -382Q371 -381 374 -374Q379 -371 377 -367Q375 -364 375 -360Q383 -347 373 -338Q373 -313 346 -298Q341 -294 335 -290Q332 -293 328 -291Q324 -288 327 -285Q339 -280 353 -279Q359 -275 361 -259Q357 -259 357 -254Q356 -248 352 -249Q344 -248 339 -245Q335 -242 325 -244Q317 -246 312 -244Q299 -249 269 -247Q262 -245 254 -246Q246 -246 242 -240Q242 -226 242 -212Q240 -207 241 -197Q242 -184 239 -180Q237 -177 233 -172Q230 -168 227 -171Q220 -171 215 -177Q211 -184 206 -188Q202 -195 197 -201Q192 -208 195 -218Q199 -224 201 -242Q200 -246 200 -257Q203 -281 202 -306Q205 -321 203 -334Q195 -325 172 -294Q170 -293 162 -290Q161 -286 144 -264Q137 -268 134 -259Q126 -256 115 -245Q102 -232 91 -231Q81 -228 74 -221Q73 -217 71 -218Q69 -220 69 -225Q76 -244 84 -252Q102 -279 119 -307Q122 -314 132 -326Q144 -341 147 -349Q152 -351 155 -359Q157 -364 161 -367Q163 -366 164 -367Q165 -367 165 -369Q164 -374 168 -376Q181 -395 194 -414Q207 -424 214 -439Q220 -454 228 -469Q231 -474 228 -475Q225 -477 221 -473Q197 -475 190 -474Q173 -480 155 -487Q148 -487 147 -492Q147 -493 148 -494Q149 -495 152 -493Q161 -493 162 -500Q169 -500 183 -507Q193 -512 201 -513Q214 -518 227 -524Q234 -523 247 -532ZM740 -458Q746 -459 760 -453Q770 -452 778 -446Q786 -440 795 -435Q801 -430 812 -408Q821 -398 821 -382Q824 -378 822 -370Q819 -361 821 -357Q825 -349 822 -331Q819 -312 824 -304Q824 -302 823 -300L821 -291Q821 -289 820 -287Q820 -282 819 -277L816 -258Q816 -253 815 -248Q820 -237 817 -225Q817 -211 814 -199Q810 -191 814 -176Q818 -162 816 -156Q819 -145 812 -131Q815 -117 812 -103Q814 -91 812 -78Q806 -66 808 -51Q808 -33 801 -16Q801 2 780 10Q773 12 770 8Q766 4 762 2Q755 0 753 -8Q752 -14 746 -16Q745 -16 735 -18Q729 -30 723 -42Q725 -46 732 -48Q739 -50 741 -53Q752 -72 753 -93Q758 -122 760 -125Q765 -131 760 -144Q761 -156 764 -166Q760 -179 762 -184Q765 -190 765 -209Q766 -214 765 -226Q764 -237 766 -243Q766 -280 769 -315Q768 -328 767 -342Q763 -376 758 -391Q750 -421 734 -412Q718 -409 696 -389Q685 -378 669 -376Q660 -375 651 -375Q644 -376 637 -378Q626 -378 617 -383Q609 -388 599 -391Q595 -395 598 -397Q603 -399 609 -399Q612 -400 614 -402L623 -407Q627 -409 628 -410Q639 -417 649 -420Q678 -439 699 -445Q720 -451 740 -458ZM313 -349L297 -348Q288 -346 283 -342Q267 -340 251 -339Q244 -341 242 -340Q239 -339 240 -332Q240 -315 240 -299Q242 -283 248 -277Q261 -278 274 -282Q277 -283 291 -285Q303 -283 311 -289Q312 -299 318 -311Q326 -320 322 -338Q323 -342 320 -347Q317 -352 313 -349ZM621 -237L631 -234Q640 -234 662 -230Q667 -227 674 -224Q681 -222 685 -216Q691 -213 692 -207Q692 -200 692 -193Q694 -184 676 -181Q655 -189 634 -195Q612 -204 589 -213Q578 -218 567 -224Q566 -228 568 -229Q570 -230 574 -230Q582 -228 590 -234Q606 -232 621 -237Z"/>
</svg>