<svg xmlns="http://www.w3.org/2000/svg" viewBox="0 -800 1024 1024">
	<path fill="#000000" d="M552 -733Q557 -734 563 -730Q566 -727 574 -726Q586 -724 589 -719Q598 -711 603 -697Q602 -685 600 -673Q599 -667 603 -667Q609 -667 615 -669Q643 -674 651 -673Q658 -676 667 -671Q676 -666 674 -657Q671 -655 661 -637Q649 -639 647 -633Q635 -635 624 -635Q615 -637 606 -639Q602 -639 599 -634Q596 -616 585 -601Q586 -593 584 -576Q585 -570 581 -555Q580 -549 584 -549Q590 -548 597 -549Q607 -553 627 -557Q653 -562 679 -567Q681 -568 723 -576Q733 -576 743 -576Q759 -571 778 -569Q790 -564 800 -555Q804 -551 802 -543Q800 -536 801 -533Q802 -527 791 -522Q783 -524 778 -520Q773 -516 767 -513Q759 -517 751 -511Q741 -511 727 -505Q716 -501 705 -498Q703 -503 708 -507Q713 -511 716 -515Q723 -519 721 -526Q719 -533 712 -531Q698 -528 684 -526Q667 -522 649 -518Q633 -514 617 -514Q612 -512 613 -509Q613 -507 618 -504Q624 -503 633 -488Q640 -481 633 -470Q636 -464 641 -467Q645 -470 650 -474Q654 -476 673 -478Q671 -469 679 -465Q686 -461 691 -455Q693 -448 686 -443Q681 -439 673 -437Q670 -434 661 -434Q653 -434 650 -431Q648 -427 638 -422Q626 -415 625 -406Q628 -402 624 -395Q620 -388 621 -384Q629 -379 637 -390Q637 -402 653 -394Q659 -391 672 -390Q686 -389 692 -386Q701 -382 694 -364Q685 -352 671 -354Q657 -355 644 -355Q621 -353 604 -353Q587 -354 568 -376Q563 -384 559 -395Q556 -400 561 -408Q565 -414 564 -416Q561 -421 553 -417Q538 -408 520 -411Q505 -414 492 -414Q489 -414 489 -416Q490 -419 493 -420Q499 -419 507 -424Q515 -429 519 -429Q538 -437 558 -443Q573 -445 575 -459Q574 -470 576 -482Q578 -493 572 -502Q564 -502 558 -499Q548 -495 539 -495Q526 -495 506 -491Q489 -489 471 -487Q468 -486 460 -487Q451 -488 448 -485Q446 -463 455 -446Q456 -439 453 -429Q450 -419 450 -414Q452 -407 448 -395Q445 -385 445 -380Q447 -372 443 -355Q437 -346 438 -335Q435 -330 433 -312Q429 -297 425 -282Q423 -272 421 -262Q415 -251 415 -238Q410 -227 404 -216Q405 -209 400 -198Q396 -189 396 -184Q390 -176 381 -150Q382 -141 376 -136Q370 -131 366 -125Q364 -116 361 -107Q351 -100 351 -85Q346 -76 342 -66Q339 -56 330 -50Q322 -49 319 -51Q321 -61 315 -76Q311 -84 305 -88Q302 -93 305 -99Q303 -110 308 -114Q312 -121 313 -129Q318 -136 324 -153Q329 -168 334 -175Q337 -182 340 -190Q339 -198 344 -210Q348 -220 348 -225Q366 -268 368 -290Q374 -312 380 -334Q381 -337 383 -349Q385 -362 390 -368Q392 -389 395 -398Q397 -412 402 -424Q403 -455 408 -483Q400 -495 387 -499Q383 -500 384 -502Q387 -504 391 -503Q421 -510 450 -517L468 -522Q478 -524 487 -526Q490 -525 504 -530Q518 -532 531 -537Q539 -541 538 -548Q536 -555 535 -561Q535 -582 540 -601Q544 -612 544 -624Q549 -635 547 -648Q552 -665 552 -684Q551 -700 546 -714Q542 -721 535 -722Q530 -723 532 -728Q537 -730 542 -729Q548 -728 552 -733ZM195 -566Q203 -568 213 -560Q224 -558 226 -546Q235 -539 235 -528Q226 -524 233 -508Q230 -498 233 -485Q231 -477 232 -467Q228 -461 229 -453Q230 -446 229 -438Q228 -432 233 -430Q238 -428 241 -425Q242 -419 244 -412Q246 -406 243 -399Q235 -393 235 -384Q234 -375 235 -365Q231 -336 226 -308Q224 -300 222 -292Q221 -283 215 -276Q207 -270 211 -262Q223 -271 236 -280Q262 -304 285 -329Q290 -333 294 -340Q300 -351 306 -353Q303 -342 299 -331Q294 -327 293 -314Q292 -304 288 -299Q284 -288 276 -279Q267 -269 260 -259Q250 -250 229 -224Q209 -200 194 -186Q189 -180 177 -174Q169 -163 166 -162Q162 -163 156 -158Q150 -154 148 -154Q138 -164 128 -180Q127 -186 119 -192Q113 -196 112 -199Q114 -214 129 -216Q135 -218 136 -223Q137 -229 139 -233Q142 -245 152 -252Q155 -259 157 -266Q156 -271 159 -279Q162 -286 160 -290Q154 -297 164 -305Q164 -311 169 -331L177 -366Q180 -387 170 -386Q151 -381 148 -379Q138 -374 128 -369Q97 -391 91 -394Q86 -398 90 -401Q94 -404 99 -402Q119 -405 137 -412Q157 -416 177 -421Q190 -421 190 -446Q190 -461 189 -477Q192 -493 188 -522Q186 -527 181 -526Q177 -525 174 -522Q162 -524 150 -526Q142 -526 127 -534Q119 -538 112 -540Q103 -545 115 -548Q152 -560 175 -563Q176 -563 195 -566ZM603 -326Q631 -339 657 -341Q663 -341 679 -337Q692 -335 704 -333Q710 -324 712 -324Q718 -325 721 -319Q717 -310 712 -302Q699 -296 694 -283Q675 -270 670 -261Q654 -244 637 -227Q616 -207 600 -185Q599 -179 606 -178Q616 -176 618 -175Q625 -175 670 -162Q678 -161 692 -147Q702 -137 710 -134Q720 -131 725 -140Q731 -149 737 -155Q741 -160 744 -166Q747 -171 753 -174Q758 -176 761 -184Q763 -190 766 -192Q774 -199 776 -209Q778 -211 780 -213L786 -221Q788 -223 790 -225Q794 -227 793 -231Q792 -235 788 -236Q778 -241 772 -247Q771 -252 774 -252Q781 -252 789 -253Q797 -261 805 -253Q829 -253 840 -248Q846 -249 854 -243Q860 -239 864 -238Q872 -236 866 -222Q867 -218 860 -213Q855 -209 854 -206Q852 -201 845 -199Q838 -196 836 -193Q835 -190 828 -187Q822 -185 820 -181Q816 -172 801 -163Q795 -161 789 -152Q785 -146 782 -144Q776 -144 771 -139Q767 -135 762 -132Q758 -130 753 -127Q748 -124 750 -118Q756 -115 784 -108Q834 -96 835 -95Q846 -95 855 -88Q861 -85 869 -82Q877 -80 881 -72Q882 -66 884 -60Q887 -54 882 -48Q883 -43 878 -40Q874 -37 870 -40Q865 -45 859 -44Q852 -43 847 -44Q839 -52 829 -55Q819 -58 811 -63Q789 -71 766 -79Q755 -82 744 -86Q739 -86 737 -83Q737 -62 731 -54Q727 -41 722 -28Q718 -12 707 2Q698 15 689 28Q681 41 668 50Q662 50 659 55Q655 59 649 59Q639 49 629 39Q629 25 618 20Q615 20 614 18Q614 17 613 15Q621 7 633 4Q640 3 648 -8Q654 -16 658 -18Q671 -34 683 -50Q685 -56 693 -67Q703 -81 704 -90Q697 -99 674 -111Q663 -116 651 -122Q634 -105 618 -85Q612 -81 606 -69Q604 -63 595 -55Q586 -47 584 -42Q572 -35 565 -23Q555 -16 545 -17Q539 -19 531 -13Q527 -11 525 -13Q522 -16 525 -19Q540 -51 563 -79Q579 -102 599 -122Q602 -127 607 -131Q611 -136 608 -141Q594 -149 587 -148Q576 -144 567 -123Q557 -114 552 -102Q547 -98 540 -88Q535 -81 531 -77Q524 -74 520 -59Q513 -51 505 -53Q497 -66 494 -80Q489 -92 492 -102Q500 -111 512 -131Q517 -135 522 -144Q527 -153 531 -156Q531 -159 538 -163Q545 -168 542 -172Q536 -174 531 -169Q526 -164 522 -160Q518 -161 512 -157Q506 -153 503 -156Q501 -161 494 -165Q488 -168 486 -171Q479 -181 488 -194Q499 -197 506 -197Q528 -209 550 -222Q555 -224 559 -232Q564 -242 570 -242Q573 -244 607 -264Q609 -267 617 -274Q624 -279 626 -284Q625 -289 621 -289Q617 -289 614 -286Q591 -281 568 -279Q560 -281 548 -277Q538 -274 534 -274Q515 -284 495 -294Q490 -298 492 -300Q497 -302 504 -301Q516 -306 535 -308Q569 -317 603 -326Z"/>
</svg>