<svg xmlns="http://www.w3.org/2000/svg" viewBox="0 -800 1024 1024">
	<path fill="#000000" d="M502 -734Q510 -732 517 -731Q549 -726 579 -715Q601 -706 602 -706Q614 -699 613 -685Q622 -678 613 -669Q612 -668 611 -664Q610 -658 607 -658Q604 -653 597 -654Q590 -655 588 -652Q583 -653 577 -650Q571 -647 567 -648Q543 -654 521 -663Q510 -667 499 -672Q492 -675 484 -681Q436 -698 409 -714Q404 -717 406 -719Q410 -720 411 -724Q424 -723 436 -727Q448 -727 460 -727Q470 -731 476 -730Q494 -724 502 -734ZM664 -655Q676 -655 681 -652Q684 -647 688 -647Q693 -646 697 -645Q699 -642 713 -631Q714 -626 708 -619Q702 -618 702 -610Q702 -603 698 -601Q696 -594 689 -593Q682 -592 677 -599Q673 -597 667 -597Q659 -597 656 -595Q644 -592 632 -590Q629 -595 623 -590Q619 -587 617 -588Q602 -587 587 -588Q573 -589 559 -584Q551 -585 525 -580Q521 -583 513 -581Q507 -580 504 -581Q503 -581 451 -573Q448 -572 441 -572Q429 -573 425 -569Q411 -564 400 -566Q373 -562 354 -570Q347 -568 350 -562Q353 -556 355 -550Q354 -541 347 -532Q341 -529 341 -522Q341 -515 339 -513Q339 -492 338 -472Q338 -456 337 -440Q337 -439 334 -406Q328 -391 329 -377Q328 -362 323 -352Q319 -347 319 -333Q319 -321 315 -317Q317 -310 313 -300Q310 -293 310 -290Q310 -286 309 -283L307 -269Q307 -265 306 -262Q305 -253 298 -245Q301 -234 294 -224Q291 -221 291 -213Q291 -206 288 -203Q287 -184 279 -168Q274 -149 273 -144Q268 -136 264 -112Q261 -97 250 -80Q246 -70 237 -60Q238 -58 236 -58Q231 -57 231 -56L225 -39Q223 -35 218 -36Q213 -37 210 -33Q213 -18 197 -9Q190 -4 179 -5Q174 -1 171 -7Q169 -13 165 -17Q163 -21 160 -24Q157 -27 157 -33Q148 -45 152 -59Q153 -60 154 -67Q155 -73 159 -72Q168 -77 178 -100Q196 -128 213 -181Q217 -193 215 -206Q202 -198 190 -185Q176 -167 173 -161Q167 -157 163 -163Q156 -172 153 -174Q148 -181 142 -189Q132 -201 129 -216Q131 -226 137 -229Q151 -235 156 -249Q161 -263 166 -276Q169 -288 178 -308Q191 -338 193 -354Q180 -367 166 -378Q163 -383 169 -385Q176 -387 181 -382Q188 -387 195 -384Q213 -385 228 -380Q234 -379 239 -374Q245 -368 240 -362Q241 -358 236 -358Q231 -358 230 -356Q228 -352 226 -348Q224 -343 218 -343Q211 -338 207 -331Q203 -323 199 -317Q193 -295 186 -274Q182 -267 181 -260Q180 -250 188 -250Q201 -261 217 -270Q233 -280 246 -296Q256 -338 266 -380Q266 -387 274 -433Q277 -443 277 -465Q277 -489 281 -500Q280 -524 293 -549Q303 -570 315 -572Q321 -576 320 -579Q319 -582 314 -586Q311 -589 311 -590Q314 -590 325 -590Q396 -610 431 -614Q444 -617 505 -627Q523 -626 537 -630Q546 -630 555 -631Q563 -635 581 -637Q602 -640 612 -645Q614 -648 621 -648Q628 -648 631 -650Q633 -654 636 -653Q640 -651 641 -652Q653 -653 664 -655ZM553 -497L556 -491Q558 -495 563 -496Q569 -497 569 -491Q573 -490 577 -489Q581 -488 583 -484Q590 -477 597 -470Q601 -467 607 -472Q611 -475 613 -475Q639 -492 669 -492Q672 -495 679 -495Q686 -494 689 -497Q724 -495 734 -480Q738 -481 743 -476Q747 -472 750 -472Q751 -468 754 -465Q759 -460 756 -456Q763 -452 761 -444Q759 -436 759 -430Q761 -423 755 -403Q750 -390 744 -377Q736 -370 733 -360Q730 -350 727 -341Q727 -338 726 -338Q722 -341 720 -338Q717 -336 717 -330Q717 -323 712 -322Q704 -320 695 -306Q693 -305 690 -299Q687 -294 682 -291Q681 -289 679 -287L672 -278Q671 -275 669 -273Q680 -270 715 -270Q729 -273 742 -269Q748 -271 766 -269Q777 -268 785 -269Q792 -268 799 -268Q801 -270 807 -268Q812 -266 815 -268Q827 -270 834 -261Q836 -265 843 -262Q850 -259 848 -256Q846 -253 847 -251Q848 -250 852 -249Q860 -247 859 -242Q855 -219 837 -212Q832 -211 816 -212Q800 -213 791 -210Q785 -206 771 -201Q759 -199 751 -189Q746 -194 737 -188Q729 -187 718 -181Q708 -175 704 -174Q702 -171 681 -161Q670 -153 658 -150Q657 -154 662 -156Q667 -159 669 -162Q692 -187 720 -209Q724 -211 722 -214Q720 -216 715 -216H654Q647 -216 640 -217Q626 -215 612 -214Q601 -215 596 -208Q590 -201 583 -196Q580 -185 569 -182Q565 -181 561 -174Q558 -168 553 -169Q551 -165 533 -147Q519 -141 513 -134Q509 -133 502 -125Q493 -115 487 -116Q467 -97 440 -88Q437 -94 431 -89Q427 -86 425 -86Q417 -81 409 -81Q400 -82 391 -83Q382 -80 377 -87Q373 -93 367 -98Q364 -102 366 -103Q370 -104 375 -103Q397 -108 417 -116Q435 -119 450 -130Q464 -141 479 -154Q485 -158 490 -162Q494 -165 498 -172Q502 -180 506 -182Q522 -193 532 -209Q537 -211 535 -215Q533 -219 529 -216Q517 -216 504 -216Q487 -216 470 -216Q461 -219 451 -216Q430 -216 408 -216Q399 -213 385 -216Q372 -219 367 -217Q357 -219 347 -225Q350 -233 372 -237Q392 -244 412 -251Q429 -252 446 -254Q460 -258 475 -259Q486 -259 496 -260Q514 -261 532 -265Q535 -264 543 -265Q554 -267 556 -262Q559 -259 561 -262Q562 -268 567 -266Q576 -268 585 -270Q592 -285 604 -297Q619 -314 633 -332Q634 -336 648 -355Q680 -398 686 -441Q680 -447 673 -447Q658 -444 645 -439Q635 -427 625 -427Q613 -434 601 -441Q599 -440 595 -443Q590 -446 586 -443Q582 -429 570 -411Q569 -408 563 -403Q559 -400 557 -397Q554 -392 552 -386Q550 -380 542 -381Q531 -375 528 -386Q520 -390 519 -398Q514 -401 517 -404Q520 -407 521 -410Q513 -417 513 -431Q513 -446 523 -453Q531 -463 541 -473Q550 -484 553 -497ZM639 -143L645 -139Q647 -142 651 -141Q655 -140 656 -141Q666 -139 687 -139Q716 -137 724 -138Q731 -136 740 -136Q748 -137 750 -129Q760 -115 750 -104Q749 -101 743 -101Q736 -100 735 -96Q723 -94 720 -87Q719 -80 709 -72Q700 -65 697 -60Q691 -46 684 -33Q680 -26 684 -20Q687 -15 691 -8Q702 16 732 21Q745 28 758 34Q788 44 798 59Q801 67 793 73Q783 81 782 84Q780 83 776 86Q770 90 767 85Q761 87 754 87Q750 91 740 84Q737 83 734 78Q729 70 724 73Q718 67 706 60Q690 50 684 43Q668 29 662 15Q655 -19 657 -32Q663 -52 671 -69Q672 -75 676 -82Q682 -91 682 -96Q672 -104 660 -110Q636 -129 639 -143Z"/>
</svg>