<svg xmlns="http://www.w3.org/2000/svg" viewBox="0 -800 1024 1024">
	<path fill="#000000" d="M655 -712Q681 -710 697 -708Q711 -705 727 -689Q726 -684 733 -680Q739 -676 739 -673Q753 -662 751 -643Q755 -613 753 -597Q751 -577 745 -557Q740 -544 734 -531Q728 -510 721 -489Q716 -486 716 -481Q716 -475 715 -471Q711 -461 706 -451Q700 -433 696 -415Q692 -412 690 -402Q688 -391 682 -388Q683 -371 672 -358Q667 -358 659 -350Q655 -346 658 -341Q661 -337 665 -342Q705 -350 725 -353Q754 -357 781 -366Q795 -368 797 -375Q826 -374 854 -374Q860 -375 869 -371Q877 -368 882 -368Q885 -355 895 -353Q892 -346 888 -339Q889 -333 883 -330Q876 -327 871 -330Q869 -328 856 -326Q842 -321 828 -319Q799 -315 782 -314Q771 -312 759 -308Q746 -307 735 -304Q691 -298 646 -293Q638 -289 655 -279Q671 -268 673 -266Q683 -257 682 -247Q686 -236 686 -224Q688 -223 690 -216Q693 -208 697 -210Q721 -229 769 -246Q784 -246 798 -247Q805 -247 814 -241Q822 -235 828 -235Q835 -230 844 -224Q852 -218 854 -209Q856 -200 852 -196Q844 -191 845 -179Q845 -173 849 -159Q839 -144 854 -132Q877 -119 880 -119Q891 -114 901 -108Q911 -103 918 -95Q926 -85 920 -77Q921 -73 916 -70Q910 -67 910 -63Q898 -62 885 -61Q876 -62 869 -70Q867 -74 821 -109Q804 -120 795 -136Q785 -155 792 -172Q789 -177 791 -189Q793 -202 789 -208Q744 -209 692 -186Q689 -180 688 -168Q687 -152 682 -146Q682 -124 681 -102Q678 -91 678 -81Q682 -58 680 -25Q684 -19 681 -13Q677 -6 676 1Q674 4 675 11Q676 19 672 22Q672 26 666 25Q661 24 659 28Q656 32 654 38Q651 43 645 42Q632 27 620 9Q614 6 606 -5Q600 -14 594 -16Q587 -16 588 -21Q589 -27 593 -31Q593 -34 594 -34Q599 -34 603 -33Q617 -31 619 -42Q622 -54 624 -64Q624 -80 624 -96Q629 -110 625 -127Q624 -131 624 -136Q625 -142 620 -143L587 -124Q581 -124 578 -119Q575 -114 570 -110Q564 -108 562 -103Q559 -98 556 -95Q551 -90 546 -81Q538 -68 531 -63Q525 -62 525 -55Q525 -49 523 -44Q523 -39 520 -39Q515 -40 509 -37L482 -64Q472 -70 474 -80Q476 -90 476 -101Q483 -120 490 -139Q503 -185 502 -210Q499 -215 502 -216Q507 -218 512 -214Q526 -214 534 -204Q543 -193 538 -179Q547 -161 543 -142Q541 -135 538 -127Q535 -120 540 -113Q561 -121 581 -134Q604 -148 624 -162Q629 -169 629 -185Q629 -199 631 -203Q632 -232 632 -261Q631 -272 629 -276Q626 -283 618 -281Q606 -287 594 -281Q574 -277 553 -274Q541 -269 528 -270Q507 -263 485 -260Q463 -254 438 -267Q402 -275 397 -276Q384 -274 384 -280Q384 -287 397 -287Q416 -289 434 -296Q440 -297 454 -301L499 -312Q509 -314 519 -317Q562 -325 604 -333Q628 -336 617 -346Q600 -357 611 -369Q609 -383 613 -394Q617 -405 620 -416Q628 -424 629 -434Q631 -443 634 -452Q636 -456 635 -461Q634 -466 629 -466Q595 -469 567 -479Q547 -485 526 -491Q513 -496 511 -502Q513 -506 521 -505Q529 -504 531 -506Q547 -514 565 -516Q607 -518 639 -506Q646 -501 649 -506Q652 -513 656 -518Q664 -549 674 -578Q683 -608 687 -639Q687 -665 675 -664Q663 -663 631 -651Q625 -649 619 -648Q613 -648 611 -642Q603 -639 586 -645Q556 -653 534 -650Q527 -650 520 -648Q513 -646 509 -651Q521 -665 541 -668Q586 -695 655 -712ZM258 -557Q279 -557 284 -548Q289 -553 294 -549Q299 -545 304 -542Q313 -534 316 -523Q318 -512 319 -502Q314 -481 305 -467Q302 -459 289 -444Q279 -433 276 -426Q268 -415 260 -404Q259 -400 255 -398Q251 -396 250 -394Q251 -390 246 -383Q240 -375 240 -371Q258 -364 267 -371Q287 -381 311 -389Q316 -391 325 -389Q332 -388 335 -389Q345 -385 353 -386Q362 -388 366 -382Q370 -376 373 -371Q379 -358 384 -345Q386 -340 386 -319Q381 -310 376 -301Q370 -292 363 -283Q357 -272 352 -266Q348 -260 356 -253Q354 -246 362 -241Q369 -237 368 -233Q369 -225 353 -225Q342 -224 330 -224Q322 -226 304 -224Q294 -224 283 -224Q263 -221 243 -218Q239 -210 241 -193Q236 -184 240 -169Q240 -163 238 -156Q236 -151 231 -154Q225 -152 221 -156Q217 -160 213 -164Q212 -168 206 -174Q199 -180 199 -185Q190 -194 188 -224Q193 -225 192 -230Q191 -235 190 -239Q194 -253 198 -267Q199 -278 201 -291Q204 -304 201 -316L183 -294Q179 -283 172 -276Q164 -269 157 -260Q155 -254 147 -248Q136 -240 136 -233Q128 -223 118 -215Q117 -211 109 -207Q103 -204 101 -201Q98 -198 96 -198Q93 -198 89 -205Q85 -212 84 -213L70 -228Q72 -233 71 -240Q71 -248 78 -247Q80 -252 88 -258Q96 -264 96 -270Q106 -275 114 -284Q119 -293 124 -302Q130 -311 139 -315Q146 -327 157 -336Q160 -341 164 -345Q169 -349 170 -356Q175 -359 177 -365Q179 -372 181 -374Q187 -382 192 -389Q196 -396 206 -403Q207 -409 223 -429Q231 -436 239 -451Q247 -466 252 -471Q259 -472 259 -479Q261 -488 265 -499Q258 -501 246 -494Q235 -487 230 -488Q219 -475 201 -480Q178 -481 161 -486Q154 -484 147 -487Q138 -490 139 -498Q160 -505 169 -505Q185 -521 200 -526Q215 -538 258 -557ZM318 -343L308 -342Q304 -341 290 -339Q273 -337 265 -332Q257 -329 256 -320Q256 -311 255 -303Q252 -297 250 -288Q247 -274 242 -269Q241 -254 240 -239Q255 -234 273 -252Q274 -255 279 -257Q283 -258 284 -260Q301 -258 309 -285Q320 -311 328 -336Q331 -341 328 -343Q323 -345 318 -343Z"/>
</svg>