<svg xmlns="http://www.w3.org/2000/svg" viewBox="0 -800 1024 1024">
	<path fill="#000000" d="M451 -250Q445 -238 442 -223Q429 -201 420 -173Q413 -161 406 -150Q401 -133 376 -108L370 -102Q366 -98 363 -97Q358 -94 356 -95Q354 -96 353 -100Q354 -104 349 -107Q344 -110 345 -114Q338 -126 337 -137Q331 -150 344 -165Q362 -177 370 -198Q370 -202 374 -204Q377 -205 378 -208Q373 -215 385 -227Q389 -247 396 -264Q400 -272 413 -305Q443 -400 472 -496Q480 -527 487 -560Q491 -583 493 -608Q493 -619 499 -627Q504 -635 509 -644Q517 -644 523 -638Q528 -633 532 -628Q541 -612 536 -590Q532 -583 536 -575Q540 -567 550 -569Q561 -571 572 -574Q575 -573 581 -575Q585 -577 588 -575Q592 -579 601 -581Q609 -583 613 -586Q619 -587 621 -595Q619 -603 624 -615Q628 -627 627 -632Q616 -627 601 -625Q599 -619 594 -619Q590 -618 585 -617Q579 -618 574 -622Q568 -625 560 -625Q550 -627 542 -633Q539 -631 538 -632Q537 -635 536 -639Q535 -642 532 -641Q530 -644 525 -645Q520 -646 519 -648Q522 -654 529 -655Q536 -656 542 -656Q551 -662 569 -669Q592 -678 602 -686Q623 -691 641 -703Q647 -703 648 -701Q651 -702 658 -700Q665 -698 668 -700Q678 -699 685 -697Q700 -698 705 -685Q710 -685 710 -679Q710 -673 714 -672Q734 -665 727 -652Q717 -636 706 -628Q704 -619 695 -617Q690 -608 680 -605Q678 -605 675 -600Q671 -593 667 -594Q665 -594 655 -588Q664 -580 675 -580Q672 -571 674 -565Q677 -562 672 -558Q668 -554 668 -553Q671 -551 671 -550Q666 -548 665 -543Q664 -541 658 -542Q650 -543 650 -539Q640 -534 623 -534Q621 -533 611 -534Q601 -535 595 -532Q580 -530 561 -540Q550 -548 544 -548Q539 -548 538 -542Q535 -535 534 -525Q531 -510 528 -495Q523 -482 524 -468Q518 -466 518 -454Q513 -440 511 -425Q512 -413 505 -405Q504 -399 498 -381Q492 -375 488 -364Q482 -346 476 -324Q476 -321 471 -316Q465 -309 466 -303Q464 -291 467 -284ZM246 -601H248Q252 -601 256 -601H271Q275 -601 278 -601Q284 -603 286 -599Q289 -595 292 -591Q296 -590 302 -587Q308 -584 306 -577Q300 -576 300 -566Q300 -561 295 -560Q291 -559 288 -556Q273 -554 268 -544Q263 -528 240 -495Q238 -487 229 -476Q218 -464 217 -458Q217 -453 215 -448Q213 -443 217 -438Q226 -435 228 -436Q243 -440 257 -445Q275 -452 306 -452Q326 -452 345 -443Q349 -441 350 -434Q351 -429 353 -426Q364 -423 359 -410Q350 -397 350 -385Q344 -379 334 -367Q326 -363 318 -348Q314 -343 307 -339Q299 -335 304 -327Q318 -328 332 -319Q340 -314 337 -303Q334 -293 325 -290Q277 -293 242 -288Q234 -288 225 -289Q220 -287 220 -282Q220 -277 220 -273Q221 -266 213 -264Q206 -262 202 -267Q193 -273 186 -280Q187 -288 176 -296Q169 -301 168 -305Q167 -323 168 -339Q170 -352 172 -365Q173 -382 177 -397Q174 -404 169 -403Q164 -402 161 -396Q149 -379 134 -364Q128 -361 127 -356Q125 -351 122 -346Q116 -345 109 -344Q103 -344 99 -338Q97 -338 92 -334Q86 -330 82 -331Q83 -343 118 -399Q145 -441 162 -465Q181 -498 200 -530Q206 -539 203 -546Q194 -543 184 -540Q179 -536 166 -544Q149 -548 135 -556Q129 -556 126 -560Q124 -563 129 -565Q132 -564 137 -567Q141 -570 145 -569Q151 -564 168 -576Q177 -582 189 -582Q201 -592 216 -594Q231 -597 246 -601ZM709 -490Q718 -488 727 -487Q741 -477 761 -471Q776 -477 789 -475Q798 -473 806 -471Q812 -472 813 -467Q815 -462 812 -458Q811 -450 799 -442Q789 -435 787 -431Q783 -424 771 -420Q760 -417 756 -412Q751 -397 748 -381Q745 -367 741 -354Q739 -341 733 -330Q736 -327 742 -330Q748 -333 751 -332Q767 -336 799 -342Q804 -345 814 -345Q825 -344 829 -347Q855 -349 868 -351Q906 -351 919 -336Q917 -319 909 -315Q905 -310 894 -304Q880 -295 876 -287Q875 -282 869 -276Q862 -270 862 -266Q848 -266 847 -258Q846 -249 839 -246Q831 -243 825 -239Q816 -227 807 -221Q798 -213 788 -210Q780 -203 771 -196Q760 -191 756 -180Q762 -171 780 -171Q869 -150 895 -134Q907 -132 927 -118Q946 -116 950 -100Q948 -95 947 -88Q946 -82 940 -80Q937 -78 930 -80Q925 -82 922 -80Q914 -72 902 -77Q894 -77 881 -84Q871 -89 866 -90Q853 -97 829 -105Q814 -112 777 -123Q758 -130 739 -138Q728 -142 716 -146Q708 -150 687 -152Q670 -154 662 -158Q658 -161 649 -161Q639 -161 637 -164Q633 -166 634 -172Q635 -177 640 -177Q649 -182 662 -182Q675 -188 691 -192Q700 -191 709 -206Q717 -214 725 -222Q735 -226 744 -235Q759 -246 771 -261Q773 -265 781 -272Q786 -276 789 -281Q790 -291 775 -285Q766 -281 754 -280Q730 -274 718 -269Q702 -269 690 -265Q667 -259 644 -254Q633 -250 638 -227Q636 -223 625 -197Q620 -185 616 -171Q613 -166 606 -134Q599 -125 600 -114Q601 -102 599 -92Q598 -90 596 -74Q597 -68 594 -62Q591 -56 597 -51Q620 -57 639 -71Q670 -89 700 -107Q712 -115 726 -116Q728 -111 724 -107Q716 -102 713 -92Q710 -87 706 -83L691 -65Q687 -59 684 -56Q677 -50 661 -34Q645 -18 636 -11Q633 -8 624 -6Q613 -3 610 5Q604 12 597 5Q593 -1 585 7Q578 10 576 3Q575 0 569 -2Q564 -4 562 -7Q561 -12 553 -19Q547 -24 546 -27Q537 -54 545 -103Q548 -109 549 -120Q551 -135 554 -140Q568 -190 575 -204Q581 -226 589 -238Q589 -245 584 -245Q577 -246 572 -243Q562 -247 542 -240Q537 -238 526 -244Q500 -243 477 -256Q470 -257 464 -258Q462 -260 465 -263L489 -267Q501 -270 513 -273Q524 -278 562 -287Q579 -290 593 -299Q593 -328 592 -358Q591 -365 593 -372Q594 -379 589 -384Q581 -385 573 -387Q564 -388 561 -389Q554 -391 553 -395Q555 -399 551 -404Q547 -410 550 -412Q569 -409 588 -421Q602 -433 581 -449Q581 -454 586 -453Q590 -452 594 -452Q609 -462 619 -453Q632 -448 645 -439Q660 -444 677 -447Q681 -448 684 -450L698 -453Q702 -454 705 -456Q719 -470 704 -482Q701 -485 703 -487Q705 -489 709 -490ZM280 -414Q271 -413 260 -409Q252 -404 244 -406Q227 -401 221 -384Q214 -368 218 -350Q218 -344 218 -336Q217 -329 224 -325Q242 -328 258 -338Q270 -354 292 -397Q297 -404 292 -411Q287 -419 280 -414ZM686 -396L677 -395Q667 -393 656 -394Q645 -394 638 -387Q640 -372 642 -358Q642 -355 641 -353V-344Q640 -342 640 -339Q640 -328 639 -317Q639 -310 647 -309Q653 -308 660 -311Q665 -313 675 -323Q681 -332 684 -355Q686 -373 690 -382Q694 -388 692 -395Q691 -398 686 -396Z"/>
</svg>