<svg xmlns="http://www.w3.org/2000/svg" viewBox="0 -800 1024 1024">
	<path fill="#000000" d="M516 -746Q523 -744 530 -743Q557 -739 582 -729Q598 -724 603 -721Q613 -715 612 -703Q620 -697 612 -690Q611 -687 611 -684Q610 -680 607 -680Q605 -676 598 -677Q593 -677 591 -675Q587 -676 581 -673Q576 -670 572 -672Q553 -677 533 -685Q523 -688 513 -692Q507 -696 501 -700Q457 -716 436 -728Q432 -731 433 -732Q437 -733 438 -736Q449 -737 460 -739Q470 -739 480 -739Q489 -743 494 -743Q509 -735 516 -746ZM692 -665Q704 -665 709 -662Q712 -657 716 -657Q721 -656 725 -655Q726 -654 742 -641Q743 -637 737 -632Q731 -626 724 -620Q717 -613 705 -612Q701 -610 695 -610Q687 -610 684 -608Q672 -606 660 -602Q657 -607 650 -602Q646 -599 644 -600Q629 -599 614 -601Q599 -602 585 -596Q577 -597 551 -592Q547 -595 539 -593Q533 -592 530 -593Q503 -589 476 -585Q473 -584 466 -584Q453 -585 449 -581Q435 -576 424 -578Q394 -574 373 -582Q366 -580 369 -572Q372 -565 374 -559Q373 -550 366 -541Q360 -539 360 -530Q360 -523 358 -521Q358 -500 357 -480Q357 -463 356 -447Q356 -446 353 -413Q346 -398 348 -383Q347 -368 342 -358Q338 -353 338 -339Q338 -327 334 -322Q336 -315 332 -305Q329 -298 329 -295Q329 -291 328 -288L326 -274Q326 -270 325 -267Q324 -257 317 -249Q320 -238 312 -228Q309 -225 309 -217Q309 -210 306 -207Q305 -187 297 -171Q292 -152 291 -147Q286 -139 282 -114Q279 -99 268 -82Q264 -72 255 -62Q256 -60 254 -60Q249 -59 249 -58L242 -40Q238 -36 233 -27Q228 -19 214 -10Q209 -5 200 -6Q195 -2 192 -8Q190 -14 186 -18Q184 -22 180 -25Q177 -28 177 -34Q169 -46 172 -61Q174 -65 174 -69Q175 -74 180 -74Q189 -79 199 -102Q217 -131 234 -184Q238 -197 236 -210Q223 -203 211 -188Q197 -170 194 -164Q187 -160 184 -166Q180 -172 173 -177Q167 -184 162 -193Q152 -205 149 -220Q151 -230 157 -233Q171 -239 177 -254Q182 -268 187 -281Q190 -292 199 -313Q212 -343 214 -360Q201 -373 187 -384Q184 -389 190 -391Q197 -393 202 -388Q209 -393 216 -390Q234 -391 250 -386Q256 -385 261 -380Q267 -374 262 -368Q263 -364 258 -364Q253 -364 252 -362Q250 -358 248 -354Q245 -349 239 -349Q226 -338 220 -322Q214 -300 207 -279Q203 -272 202 -264Q201 -254 209 -254Q217 -262 233 -272Q259 -288 268 -301Q278 -343 288 -386Q288 -395 296 -440Q299 -450 299 -473Q299 -497 303 -508Q302 -534 316 -558Q326 -579 338 -581Q344 -585 343 -588Q342 -591 337 -595Q334 -599 335 -600Q339 -599 348 -599Q414 -620 456 -624Q471 -628 531 -637Q549 -636 563 -640Q572 -640 581 -641Q590 -645 608 -647Q629 -650 639 -655Q641 -658 648 -658Q656 -658 659 -660Q661 -664 664 -663Q668 -661 669 -662Q681 -663 692 -665ZM631 -562Q634 -563 643 -561Q647 -558 658 -558Q670 -558 674 -555Q676 -548 683 -545Q696 -535 686 -514Q687 -510 683 -503Q679 -496 680 -492Q683 -485 689 -487Q696 -488 701 -487Q713 -475 708 -464Q704 -465 702 -459Q700 -454 697 -454Q692 -456 686 -452Q681 -448 676 -449Q671 -450 667 -447Q663 -448 660 -444Q657 -440 654 -440Q645 -421 633 -412Q625 -404 619 -395Q612 -385 601 -383Q598 -384 595 -381Q591 -378 590 -380Q588 -385 583 -384Q577 -384 574 -385L584 -407L595 -427Q598 -434 599 -440Q599 -441 595 -441Q562 -441 533 -433Q533 -423 532 -413Q526 -413 518 -407Q511 -396 509 -400Q504 -405 499 -410Q499 -413 493 -414Q488 -414 488 -416Q489 -419 483 -422Q477 -425 477 -428Q464 -429 451 -431Q443 -430 423 -440Q418 -443 421 -446Q426 -449 431 -447Q451 -450 471 -456Q485 -455 487 -475Q487 -490 486 -505Q490 -507 492 -503Q495 -499 497 -496Q506 -489 514 -482Q528 -497 542 -511Q549 -520 558 -526Q568 -532 576 -539Q592 -543 604 -554Q618 -556 631 -562ZM612 -529Q598 -524 591 -519Q577 -516 565 -511Q559 -506 552 -502Q544 -497 541 -491Q536 -485 533 -478Q528 -474 530 -468Q531 -465 536 -467Q556 -471 576 -475Q594 -477 611 -480Q617 -498 619 -514Q618 -520 617 -527Q617 -530 612 -529ZM751 -378Q776 -378 783 -375Q792 -375 812 -366Q820 -366 822 -354Q830 -346 827 -334Q819 -332 815 -320Q805 -322 802 -315Q800 -311 795 -311Q791 -310 788 -310Q768 -295 761 -291Q759 -288 754 -287Q747 -285 746 -282Q727 -270 707 -258Q699 -256 690 -253Q676 -243 661 -234Q650 -240 664 -248Q668 -251 674 -251Q713 -284 733 -308Q742 -319 750 -331Q752 -334 756 -338Q759 -342 755 -345Q735 -347 721 -341Q703 -338 684 -335Q681 -333 641 -322Q634 -318 614 -314Q557 -297 555 -296Q548 -294 540 -293Q529 -296 520 -288Q509 -285 497 -282Q489 -281 483 -276Q478 -271 472 -268Q459 -263 456 -251Q452 -238 446 -228Q443 -224 441 -218Q439 -213 433 -211Q429 -216 422 -219Q414 -222 412 -225Q403 -233 394 -241Q390 -245 385 -248Q379 -251 381 -255Q388 -265 395 -276Q399 -277 400 -284Q401 -290 405 -292Q409 -294 413 -302Q417 -310 423 -313Q428 -313 427 -318Q426 -322 428 -324Q430 -329 433 -328Q436 -327 440 -327Q443 -327 443 -331Q443 -334 444 -337L453 -348Q460 -352 465 -347Q470 -342 474 -337Q485 -324 486 -314Q482 -311 484 -308Q487 -305 491 -308Q510 -317 531 -325Q553 -334 637 -358Q651 -361 665 -365Q677 -366 688 -368Q692 -372 703 -372Q707 -371 714 -374Q721 -377 727 -376Q738 -378 751 -378ZM600 -251H604Q609 -249 616 -247Q622 -245 625 -239Q631 -234 631 -227Q629 -223 633 -222Q639 -221 644 -223Q647 -223 652 -227Q659 -233 664 -230Q668 -227 677 -229Q684 -231 689 -230Q698 -232 724 -230Q736 -227 748 -224Q767 -223 788 -196Q793 -192 791 -183Q789 -176 793 -172Q800 -168 794 -160Q791 -149 791 -138Q786 -130 785 -119Q786 -112 781 -101Q777 -94 777 -90Q773 -78 769 -66Q759 -58 757 -40Q752 -31 746 -22Q740 -19 738 -15Q735 -10 732 -6Q720 0 713 11Q704 24 699 27Q688 31 680 41Q668 41 656 47Q647 48 645 40Q647 32 634 21Q632 17 624 12Q619 9 617 6Q625 5 633 3Q648 1 662 -1Q678 -19 694 -38Q708 -53 725 -93Q734 -104 736 -116Q736 -126 741 -134Q744 -144 744 -145Q746 -164 745 -180Q735 -204 690 -197Q677 -196 664 -191Q652 -191 644 -185Q637 -185 630 -185Q621 -180 618 -173Q614 -166 609 -159Q607 -147 596 -118Q592 -108 587 -99Q583 -92 582 -83Q576 -80 572 -68Q569 -61 565 -56Q558 -42 551 -28Q552 -23 546 -17Q540 -11 540 -8Q539 -5 536 -6Q533 -8 533 -10Q524 -26 517 -42Q510 -49 518 -56Q527 -69 532 -84Q545 -115 558 -146Q559 -151 561 -156Q563 -161 558 -164Q541 -164 535 -167Q532 -169 512 -169Q507 -169 504 -170Q499 -172 501 -175Q503 -175 522 -182Q563 -196 568 -197Q574 -198 581 -207Q581 -218 584 -227Q585 -233 577 -234Q569 -235 568 -238Q588 -248 600 -251Z"/>
</svg>