<svg xmlns="http://www.w3.org/2000/svg" viewBox="0 -800 1024 1024">
	<path fill="#000000" d="M450 -769Q462 -768 474 -768Q476 -764 484 -765Q489 -766 492 -764Q509 -766 516 -760Q521 -761 529 -757Q537 -753 542 -753Q546 -754 548 -750Q549 -749 551 -743Q551 -740 555 -738Q561 -735 560 -730Q558 -727 561 -720Q563 -716 563 -712Q560 -707 550 -706Q540 -705 537 -701L513 -700Q499 -703 485 -707Q471 -707 466 -711Q455 -713 421 -730Q415 -732 405 -740Q393 -749 385 -751Q381 -751 379 -753Q378 -756 383 -757Q398 -761 418 -768Q427 -769 436 -765Q442 -770 450 -769ZM643 -708L647 -707Q652 -705 662 -707Q663 -706 671 -704Q677 -702 676 -698Q673 -694 675 -689Q677 -683 683 -684Q688 -686 689 -682Q691 -679 687 -675Q687 -668 679 -664Q673 -664 669 -659Q666 -655 658 -656Q651 -657 648 -655Q636 -652 604 -648Q579 -643 556 -636Q542 -636 531 -631Q523 -631 504 -624Q490 -619 479 -618Q475 -614 465 -612Q455 -610 452 -608Q425 -604 415 -597Q397 -597 381 -589Q368 -586 355 -584Q345 -584 335 -584Q325 -584 321 -575Q321 -565 317 -557Q316 -546 312 -537Q309 -526 312 -516Q307 -495 306 -473Q304 -463 305 -451Q302 -443 300 -426Q302 -420 300 -401Q292 -390 298 -380Q297 -374 299 -368Q301 -364 306 -367Q310 -369 317 -377Q324 -385 330 -387Q355 -409 378 -447Q389 -457 393 -468Q394 -479 408 -468Q429 -461 431 -438Q433 -431 429 -424Q424 -418 420 -412Q419 -409 413 -406Q407 -403 405 -399Q404 -394 396 -388Q391 -384 389 -381Q387 -377 380 -373Q372 -369 371 -365Q368 -361 362 -356Q357 -351 361 -346Q370 -339 382 -333Q393 -326 400 -315Q405 -307 405 -296Q414 -287 405 -271Q404 -266 409 -248Q411 -242 407 -229Q403 -215 406 -207Q400 -194 403 -175Q396 -124 396 -84L394 -71Q394 -66 393 -64Q390 -51 389 -36Q389 -23 376 -22Q359 -30 337 -56Q329 -82 334 -109Q336 -119 338 -129Q342 -145 342 -162Q344 -174 346 -186Q348 -217 351 -231Q351 -238 351 -245Q351 -263 354 -271Q355 -291 355 -312Q352 -319 349 -326Q345 -333 338 -334Q324 -329 306 -318Q294 -320 285 -299Q281 -293 277 -288Q273 -286 275 -279Q277 -273 275 -270Q268 -259 267 -243Q262 -240 262 -234Q262 -228 261 -222Q261 -215 252 -204Q243 -194 243 -185Q238 -169 232 -153Q232 -146 227 -140Q222 -135 219 -128Q217 -119 215 -110Q207 -101 203 -89Q193 -77 182 -65Q177 -63 169 -55Q162 -48 158 -46Q145 -45 143 -59Q141 -72 132 -78Q133 -87 138 -94Q144 -101 148 -108Q158 -125 190 -197Q196 -221 205 -240Q206 -249 212 -256Q214 -259 213 -263Q212 -267 209 -266Q190 -255 172 -242Q151 -229 149 -228Q141 -224 138 -234Q126 -239 118 -258Q109 -274 123 -284Q125 -292 131 -294Q138 -296 142 -299Q144 -305 156 -315Q168 -325 169 -334Q175 -348 181 -363Q181 -371 191 -389Q192 -400 182 -403Q170 -411 161 -414Q158 -414 150 -424Q142 -434 144 -436Q158 -437 171 -439Q198 -441 206 -440Q207 -440 207 -442Q229 -442 242 -438Q250 -434 255 -431Q261 -436 260 -459Q259 -476 261 -480Q261 -482 262 -483Q264 -481 267 -483Q265 -504 270 -521Q273 -549 273 -550Q277 -558 277 -567Q277 -576 286 -581Q289 -585 282 -590Q277 -594 279 -596Q283 -597 290 -602Q298 -608 303 -609Q316 -616 319 -616Q326 -616 333 -620Q339 -624 346 -627Q355 -629 363 -632Q403 -648 447 -658Q492 -673 537 -688Q546 -693 558 -693Q566 -698 576 -699Q586 -700 595 -700Q602 -704 623 -705Q634 -706 643 -708ZM636 -533L640 -532Q658 -532 672 -530Q686 -527 700 -524Q714 -525 718 -511Q721 -502 720 -494Q722 -484 718 -475Q716 -471 714 -467Q705 -452 691 -440Q685 -431 678 -422Q676 -420 676 -419Q682 -415 690 -420Q694 -423 695 -428Q697 -431 700 -428Q705 -424 709 -429Q714 -434 718 -436Q727 -439 732 -433Q742 -433 744 -426Q752 -432 759 -432Q763 -434 772 -427Q775 -432 780 -431Q785 -430 790 -431Q790 -429 794 -426Q798 -423 797 -419Q791 -410 785 -401Q783 -397 778 -398Q774 -399 772 -397Q774 -393 773 -391Q772 -389 768 -389Q754 -385 742 -386Q733 -380 722 -379Q714 -378 705 -378Q693 -377 680 -371L659 -366Q654 -362 632 -358Q621 -356 609 -350Q618 -336 622 -323Q625 -307 615 -293Q608 -286 609 -282Q618 -282 638 -292Q665 -303 700 -307Q711 -305 718 -310Q732 -306 745 -303Q759 -300 760 -286Q753 -280 749 -275Q749 -270 746 -270Q742 -269 739 -267Q731 -266 722 -260Q721 -257 716 -255Q712 -254 711 -252Q703 -251 694 -243Q687 -237 683 -235Q679 -233 675 -229Q670 -226 674 -221Q679 -219 683 -218Q689 -218 690 -220Q704 -213 716 -212Q718 -214 724 -212Q729 -210 732 -212Q734 -212 735 -211H740Q741 -210 743 -210Q748 -214 758 -212Q765 -209 772 -209Q781 -205 787 -208L807 -209Q813 -211 822 -207Q827 -208 827 -206Q828 -201 822 -200Q817 -193 811 -190Q817 -182 810 -179Q800 -176 790 -173Q787 -171 766 -163Q759 -163 753 -160L744 -158Q738 -155 731 -155Q727 -156 722 -153Q718 -151 716 -151Q706 -149 695 -147Q680 -143 664 -139Q655 -141 654 -133Q653 -125 649 -119Q644 -110 638 -102Q636 -95 633 -88Q628 -75 617 -67Q616 -65 611 -63Q606 -61 605 -57Q599 -54 596 -50Q593 -46 590 -46Q581 -50 574 -58Q576 -62 571 -67Q566 -73 568 -76Q568 -90 577 -100Q585 -111 591 -122Q591 -127 586 -127Q581 -127 578 -125Q573 -126 565 -123Q560 -121 556 -122Q546 -121 535 -121Q529 -122 523 -124Q511 -124 487 -138Q485 -140 480 -140Q474 -140 475 -145Q488 -145 500 -146Q515 -150 533 -151Q557 -158 604 -164Q615 -165 615 -185Q614 -185 610 -182Q604 -178 600 -179L615 -195Q630 -216 616 -238Q610 -238 592 -227Q588 -229 585 -226Q581 -222 578 -226Q562 -231 552 -249Q548 -254 542 -258Q536 -262 537 -270Q538 -272 574 -335Q578 -339 576 -341Q569 -344 564 -338Q557 -338 547 -334Q534 -335 519 -331Q512 -331 504 -329Q492 -331 487 -333Q478 -334 453 -350Q450 -353 451 -354Q452 -355 455 -354Q494 -362 498 -363Q534 -372 569 -382Q576 -385 583 -400Q588 -410 594 -414Q595 -417 602 -424Q607 -429 609 -434Q624 -452 634 -475Q638 -482 640 -490Q640 -493 633 -493Q627 -490 620 -487Q612 -486 607 -482Q606 -479 602 -481Q598 -482 597 -481Q587 -482 574 -487Q557 -490 540 -498Q538 -500 539 -501Q543 -500 547 -503Q563 -506 578 -516Q586 -517 600 -525Q618 -529 636 -533ZM249 -389H231Q227 -388 222 -389Q214 -390 211 -387Q195 -374 187 -357Q180 -342 170 -327Q166 -312 162 -298Q157 -296 159 -292Q161 -288 166 -290Q206 -313 222 -325Q255 -348 249 -389ZM668 -221Q666 -213 663 -205Q666 -192 662 -179Q664 -178 681 -181Q687 -178 697 -182Q705 -185 708 -185Q717 -187 725 -190Q714 -203 680 -218Q679 -218 675 -220Q671 -222 668 -221ZM677 -94Q687 -92 696 -91Q699 -91 751 -79Q761 -78 770 -77Q782 -74 791 -72Q809 -67 826 -63Q829 -59 840 -56Q850 -54 852 -49Q860 -45 865 -45Q870 -41 875 -37Q881 -34 881 -28Q886 -26 884 -23Q880 -20 879 -17Q875 -19 874 -16Q874 -12 876 -10Q876 -7 874 -6Q869 -8 863 -6Q856 -6 852 -3Q828 -6 811 -18Q803 -21 794 -25Q766 -37 745 -47Q730 -55 698 -69Q685 -79 671 -90V-91Q677 -92 677 -94Z"/>
</svg>