<svg xmlns="http://www.w3.org/2000/svg" viewBox="0 -800 1024 1024">
	<path fill="#000000" d="M393 -715Q404 -714 414 -713Q437 -712 464 -694Q474 -691 490 -671Q491 -671 496 -657Q498 -650 492 -648Q486 -646 482 -643Q478 -644 473 -638Q469 -634 466 -633Q462 -635 459 -630Q456 -626 453 -627Q426 -644 398 -662Q377 -677 352 -687Q332 -690 320 -705Q323 -708 331 -707Q338 -706 340 -707Q350 -705 361 -709Q376 -713 393 -715ZM677 -665Q692 -662 706 -659Q715 -658 721 -652Q727 -646 733 -641Q744 -637 752 -619Q757 -606 758 -592Q760 -588 757 -585Q754 -582 753 -578Q754 -572 751 -568Q747 -564 742 -560Q720 -543 696 -530Q683 -522 670 -521Q652 -510 633 -499Q626 -500 612 -488Q602 -483 592 -478Q585 -476 570 -478Q584 -485 595 -495Q612 -508 629 -522Q652 -545 672 -572Q677 -580 682 -587Q688 -594 688 -604Q675 -613 649 -607Q619 -605 599 -599Q570 -592 533 -579Q527 -577 520 -574Q517 -573 519 -569Q530 -558 532 -546Q535 -533 529 -518Q519 -512 519 -501Q518 -490 513 -480Q510 -476 508 -462Q506 -453 514 -451Q522 -450 530 -448Q552 -444 570 -446Q590 -444 607 -438Q611 -433 607 -426Q604 -424 602 -419Q600 -413 597 -412Q591 -403 582 -401Q572 -399 563 -398Q546 -399 530 -399Q513 -400 499 -413Q482 -421 466 -444Q458 -471 461 -487Q462 -505 470 -520Q478 -535 485 -550Q486 -554 489 -559Q492 -563 489 -568Q477 -566 468 -564Q440 -553 412 -542Q402 -539 393 -535Q402 -525 414 -522Q426 -512 422 -495Q424 -487 416 -477Q410 -469 409 -465Q403 -456 394 -448Q382 -424 371 -417Q365 -414 358 -407Q348 -397 343 -395Q335 -398 324 -387Q320 -382 317 -386Q315 -392 311 -397Q310 -404 309 -412Q312 -423 318 -432Q321 -435 323 -438L332 -453Q335 -456 337 -459Q344 -469 350 -479Q358 -492 362 -504Q367 -510 361 -516Q356 -521 349 -522Q336 -515 323 -508Q317 -504 310 -499Q303 -495 295 -498Q274 -500 240 -486Q230 -484 220 -486Q217 -480 215 -459Q219 -454 223 -447Q226 -441 221 -436Q218 -432 212 -430Q206 -428 205 -424Q188 -427 179 -439Q172 -445 169 -454Q165 -463 161 -471Q153 -476 154 -484Q154 -493 153 -501Q158 -514 163 -527Q178 -549 192 -571Q200 -579 218 -595Q221 -602 227 -604Q233 -607 239 -610Q242 -618 250 -607Q253 -600 256 -595Q260 -589 258 -581Q258 -579 257 -577L253 -568Q253 -566 252 -564Q244 -544 235 -526Q234 -518 233 -511Q263 -526 291 -543Q320 -559 351 -568Q364 -574 374 -577Q396 -585 418 -594Q446 -607 498 -619Q525 -628 539 -631Q558 -637 576 -646Q614 -653 651 -661Q653 -662 657 -662L671 -664Q674 -664 677 -665ZM759 -339Q764 -340 774 -336Q800 -337 822 -323Q829 -320 834 -312Q839 -304 844 -298Q851 -293 849 -280Q857 -265 851 -243Q850 -227 842 -215Q845 -207 837 -193Q834 -188 832 -178Q829 -163 824 -159Q822 -147 819 -136Q811 -131 806 -116Q803 -105 800 -102Q791 -89 784 -74Q777 -53 769 -33Q763 -30 758 -20Q754 -12 750 -9Q748 0 736 8Q731 21 721 29Q711 38 701 47Q689 58 679 60Q671 59 665 63Q660 67 653 70Q648 75 635 65Q635 64 633 60L628 49Q627 47 626 44Q616 35 611 26Q607 25 608 21Q609 17 606 14Q600 1 581 -5Q572 -4 568 -24Q583 -17 597 -13Q613 -8 629 -1Q644 6 663 7Q676 -7 705 -49Q713 -70 723 -87Q732 -107 743 -126Q757 -156 768 -187Q768 -194 772 -202Q777 -213 777 -219Q780 -235 783 -253Q786 -270 774 -284Q767 -289 755 -289Q742 -289 724 -283Q685 -275 654 -265Q640 -261 627 -255Q623 -255 623 -253Q622 -249 627 -245Q632 -240 634 -218Q632 -184 626 -174Q616 -159 609 -144Q597 -136 591 -121Q580 -112 573 -101Q567 -86 562 -83L546 -64Q542 -49 531 -44Q515 -27 491 -13Q488 -8 484 -7Q479 -7 476 -5Q471 -2 464 -6Q458 -10 460 -15Q486 -36 508 -84Q526 -115 541 -148Q548 -165 557 -181Q566 -198 569 -218Q573 -238 560 -243Q550 -250 539 -252Q520 -255 500 -265Q518 -270 535 -275Q535 -280 541 -279Q546 -278 548 -280Q580 -292 612 -305Q660 -321 707 -334Q718 -335 729 -336Q744 -337 759 -339ZM292 -282Q296 -282 303 -279Q312 -275 317 -277Q335 -272 352 -264Q359 -264 365 -256Q370 -249 369 -243Q373 -233 381 -235Q388 -237 396 -238Q421 -242 428 -221Q424 -214 418 -208Q419 -200 415 -193Q411 -186 403 -185Q396 -180 377 -178Q371 -178 368 -172Q367 -169 364 -160Q365 -150 362 -142Q359 -132 356 -123Q353 -120 353 -114Q353 -110 359 -111Q366 -117 394 -137Q426 -160 444 -178Q447 -179 451 -184Q455 -189 458 -189Q464 -184 455 -172Q444 -149 442 -147Q435 -136 427 -127Q420 -117 412 -107Q401 -97 397 -88Q388 -75 377 -65Q365 -55 355 -45Q351 -44 346 -38Q342 -32 339 -32Q337 -30 335 -29L327 -22Q325 -20 323 -19Q309 0 297 -1Q289 3 282 -3Q276 -9 270 -15Q268 -22 261 -24Q252 -26 251 -34Q248 -40 253 -47Q256 -51 263 -58Q281 -91 290 -140Q291 -145 293 -150Q295 -155 290 -159Q267 -151 264 -151Q240 -145 216 -147Q201 -150 186 -153L158 -161Q150 -166 142 -172Q167 -178 184 -183Q217 -191 250 -200Q274 -207 297 -214Q304 -213 307 -226Q308 -244 305 -260Q304 -264 299 -270Q292 -278 292 -282Z"/>
</svg>