<svg xmlns="http://www.w3.org/2000/svg" viewBox="0 -800 1024 1024">
	<path fill="#000000" d="M579 -507Q584 -512 588 -518Q595 -529 600 -531Q605 -538 600 -544Q595 -550 590 -555Q577 -563 571 -579Q570 -582 563 -608Q563 -635 571 -661Q570 -665 570 -666Q569 -667 567 -666Q563 -660 556 -658Q552 -655 542 -653Q532 -651 526 -646Q517 -643 511 -636Q505 -628 499 -620Q494 -618 488 -610Q482 -601 477 -600Q465 -583 449 -571Q438 -556 426 -554Q426 -538 430 -526Q428 -517 428 -506Q429 -496 419 -490Q414 -476 395 -476Q386 -486 376 -498Q367 -509 369 -525Q366 -530 370 -542Q374 -552 370 -557Q357 -562 347 -554Q343 -555 338 -548Q334 -542 330 -541Q324 -540 322 -532Q320 -523 315 -522Q313 -516 302 -510Q292 -505 290 -499Q274 -486 257 -477Q256 -481 251 -487Q245 -494 246 -499Q237 -513 236 -530Q235 -549 249 -556L288 -604Q302 -625 316 -646Q320 -654 326 -661Q333 -668 333 -678Q331 -687 338 -687Q346 -687 351 -681Q363 -685 380 -668Q387 -660 393 -650Q389 -634 379 -620Q369 -607 360 -593Q358 -587 362 -586Q366 -585 371 -584Q393 -584 411 -575L446 -612Q459 -623 468 -636Q487 -661 512 -675Q536 -691 562 -701Q569 -705 578 -708H580Q586 -703 599 -707Q611 -711 617 -706Q630 -706 640 -684Q640 -656 627 -639Q620 -614 619 -589Q619 -580 627 -580Q636 -580 642 -586Q645 -587 650 -581Q656 -574 659 -574Q679 -579 697 -567Q704 -564 711 -561Q718 -558 717 -550Q714 -543 712 -534Q711 -526 701 -525Q697 -527 693 -522Q689 -517 685 -518Q675 -513 666 -507Q658 -502 647 -502Q638 -499 629 -496Q627 -496 622 -491Q617 -486 613 -486Q608 -491 603 -479Q600 -479 594 -475Q587 -470 582 -471Q571 -456 556 -456Q554 -452 547 -452Q541 -452 539 -447Q535 -442 531 -446Q528 -450 531 -455Q536 -457 541 -464Q546 -471 551 -472Q555 -475 559 -484Q564 -495 570 -496ZM505 -417Q516 -417 525 -414Q536 -417 545 -408Q549 -404 557 -390Q555 -385 561 -376Q566 -369 565 -364Q561 -352 567 -339Q570 -334 575 -334Q576 -334 593 -341Q598 -342 605 -345Q611 -347 617 -343Q627 -342 637 -341Q658 -341 667 -330Q667 -326 661 -320Q654 -313 655 -307Q652 -301 641 -301Q633 -301 630 -299Q625 -299 614 -294Q607 -291 602 -290Q598 -288 594 -288L586 -286Q575 -284 571 -278Q569 -259 571 -237Q570 -228 576 -212Q575 -205 578 -199Q582 -192 590 -193Q594 -192 600 -195Q609 -199 613 -196Q621 -191 628 -183Q626 -180 629 -175Q632 -169 626 -163Q620 -157 621 -153Q615 -144 605 -141Q595 -137 586 -132Q581 -130 574 -129Q567 -129 566 -122Q561 -115 563 -100Q559 -88 555 -76Q555 -71 550 -49Q550 -46 546 -40Q540 -33 543 -28Q553 -23 569 -24Q584 -26 628 -24Q631 -22 639 -23Q650 -24 653 -18Q654 -17 656 -17H659Q661 -17 662 -16Q666 -17 666 -13Q666 -8 664 -6Q667 2 675 7Q676 13 670 16Q659 13 654 23Q638 23 625 27Q585 28 545 29Q533 31 511 29Q496 30 484 27Q469 21 459 12Q452 0 450 -11Q449 -19 447 -27Q447 -32 450 -35Q454 -38 456 -42Q457 -45 476 -80Q477 -83 497 -111Q497 -114 502 -120Q508 -128 504 -132Q490 -130 476 -129Q448 -127 429 -134Q427 -136 422 -137Q414 -138 416 -143Q421 -146 428 -147Q439 -148 442 -151Q448 -152 453 -156L460 -160Q465 -164 471 -165Q488 -173 504 -181Q515 -185 515 -194Q516 -204 516 -214Q518 -230 516 -243Q515 -245 515 -254Q515 -264 511 -266Q487 -264 482 -260Q476 -262 470 -256Q466 -252 463 -252Q444 -242 425 -233Q410 -226 395 -219Q387 -217 378 -215Q365 -209 351 -211Q349 -212 329 -217Q309 -218 307 -238Q299 -249 310 -270Q317 -289 329 -307Q330 -309 346 -330Q355 -337 349 -347Q353 -357 354 -361Q365 -363 375 -366Q385 -372 394 -358Q402 -352 403 -342Q403 -333 404 -322Q396 -309 388 -297Q383 -289 372 -278Q357 -263 353 -255Q350 -250 353 -245Q356 -240 364 -242Q378 -250 395 -257L419 -269Q447 -281 476 -291Q482 -295 492 -298Q507 -302 512 -308Q511 -330 509 -352Q508 -370 504 -386Q495 -391 486 -396Q477 -400 474 -409Q477 -412 481 -411Q485 -410 490 -410Q495 -414 505 -417Z"/>
</svg>