<svg xmlns="http://www.w3.org/2000/svg" viewBox="0 -800 1024 1024">
	<path fill="#000000" d="M569 -748Q576 -747 583 -747Q588 -747 590 -741Q591 -735 593 -729Q602 -721 598 -707Q592 -688 593 -683Q589 -668 588 -649Q584 -642 590 -638Q595 -634 602 -637Q611 -635 618 -648Q624 -660 635 -652Q644 -649 652 -641Q660 -634 672 -637Q678 -634 686 -633Q693 -632 698 -626Q702 -621 699 -615Q697 -610 696 -605Q698 -600 691 -598Q685 -596 684 -593Q675 -590 666 -587Q662 -588 655 -583Q647 -577 643 -580Q634 -574 625 -569Q618 -573 614 -562Q611 -562 590 -557Q585 -560 580 -552Q575 -546 571 -546Q563 -538 553 -533Q548 -536 545 -531Q542 -526 538 -524Q533 -527 527 -522Q523 -519 521 -521Q526 -528 534 -535Q541 -542 545 -553Q547 -552 550 -556Q553 -560 556 -558Q559 -569 568 -580Q565 -585 570 -592Q574 -598 574 -601Q569 -613 558 -611Q539 -619 529 -638Q530 -652 530 -676Q530 -682 532 -689Q534 -696 529 -699Q507 -690 498 -682Q490 -681 484 -675Q479 -670 472 -664Q468 -655 451 -646Q441 -640 434 -634Q425 -626 414 -614Q403 -603 401 -587Q399 -581 405 -570Q410 -562 407 -557Q403 -557 395 -560Q387 -563 383 -561Q372 -565 365 -573Q358 -581 349 -588Q342 -592 333 -592Q317 -592 309 -581Q305 -576 301 -571Q297 -565 291 -567Q286 -567 278 -576Q272 -583 268 -586Q243 -612 281 -662Q284 -678 303 -700Q305 -708 309 -706Q315 -703 321 -700Q323 -697 331 -694Q339 -691 344 -687Q350 -683 346 -674Q342 -666 343 -662Q344 -650 335 -642Q324 -627 325 -613Q338 -611 350 -609Q358 -610 367 -606Q376 -602 380 -602Q386 -606 395 -620Q405 -633 410 -638Q420 -653 433 -664Q446 -675 457 -685Q467 -699 479 -707Q492 -716 504 -725Q512 -731 519 -739Q525 -747 536 -748Q544 -743 554 -743Q561 -743 569 -748ZM547 -482Q564 -490 580 -498Q595 -507 616 -506Q622 -505 636 -507Q639 -506 649 -507Q662 -509 667 -502Q662 -495 660 -485Q659 -480 651 -477Q643 -475 642 -471Q638 -465 628 -467Q616 -461 594 -453Q589 -450 584 -448Q578 -447 578 -441Q584 -437 592 -432Q599 -428 599 -418Q603 -408 605 -402Q608 -382 607 -363Q607 -358 612 -358Q616 -358 619 -360Q634 -369 650 -377Q655 -381 667 -379Q676 -377 680 -378Q700 -378 702 -377Q709 -371 718 -372Q728 -366 726 -355Q724 -346 715 -339Q705 -338 697 -332Q694 -330 689 -332Q684 -334 682 -332Q661 -336 651 -335Q644 -339 634 -339Q617 -335 602 -327Q596 -292 590 -258Q585 -244 583 -226Q580 -220 585 -218Q591 -216 595 -214Q609 -216 623 -219Q628 -222 639 -220Q648 -218 653 -220Q660 -220 666 -222Q672 -224 679 -220Q685 -221 701 -217Q703 -215 713 -211Q719 -211 722 -206Q725 -201 724 -195Q733 -184 722 -179Q718 -180 712 -174Q707 -169 704 -169Q697 -173 690 -172Q683 -171 676 -172Q673 -173 658 -173Q656 -173 628 -170Q602 -170 599 -169Q583 -168 566 -167Q563 -166 556 -166H549Q542 -166 539 -165Q531 -165 523 -165Q512 -164 492 -168Q481 -174 472 -166Q445 -180 435 -201Q424 -210 433 -223Q434 -224 434 -227L435 -235Q436 -237 436 -239Q435 -246 439 -252Q443 -257 446 -264Q446 -280 455 -294Q464 -318 477 -332Q490 -352 500 -344Q500 -338 509 -328Q522 -313 519 -302Q519 -300 514 -282Q490 -250 478 -208Q476 -204 478 -199Q480 -194 485 -195Q494 -199 504 -198Q526 -202 548 -206Q554 -205 560 -208Q566 -211 563 -216Q551 -224 539 -251Q536 -264 540 -273Q538 -302 546 -317Q551 -333 551 -349Q553 -368 555 -406Q551 -417 547 -428Q542 -434 537 -431Q532 -428 527 -427Q523 -430 511 -430Q502 -430 497 -433Q494 -435 480 -438Q474 -439 475 -443Q478 -448 484 -447Q513 -469 547 -482ZM527 -87Q534 -88 557 -86Q570 -85 582 -84Q607 -82 618 -83Q631 -85 635 -76Q639 -83 646 -80Q653 -78 659 -76Q666 -81 679 -77Q683 -79 684 -76Q686 -70 690 -72Q692 -77 697 -76Q702 -75 707 -75Q709 -72 714 -73Q719 -74 721 -70Q729 -75 742 -70Q750 -67 759 -67Q762 -72 769 -68Q774 -65 777 -66Q791 -66 805 -66Q815 -65 825 -65Q844 -64 863 -64Q879 -61 895 -61Q929 -66 963 -68Q965 -65 960 -61Q954 -57 956 -52L942 -37Q937 -39 934 -36Q931 -33 932 -29Q924 -26 916 -23Q910 -17 906 -19Q904 -13 899 -13Q894 -12 890 -10Q871 -4 850 -4Q818 -5 788 -10Q782 -9 780 -15Q778 -17 775 -13Q770 -8 766 -11Q759 -7 750 -14Q749 -15 739 -15Q704 -15 685 -22Q674 -26 663 -24Q650 -26 637 -28Q634 -27 629 -30Q624 -34 620 -33Q616 -29 607 -32Q605 -30 600 -33Q596 -35 594 -33Q556 -40 517 -45L492 -49Q489 -48 482 -50Q476 -52 471 -51Q465 -56 457 -51Q449 -55 441 -54Q407 -59 372 -65Q347 -68 321 -72Q307 -78 303 -69Q295 -68 288 -74Q280 -71 276 -77Q271 -76 271 -82Q271 -89 269 -90Q265 -93 266 -100Q267 -105 263 -107Q264 -113 259 -113Q253 -114 253 -119Q257 -125 263 -125Q269 -125 275 -125Q278 -119 284 -119Q290 -119 295 -119Q296 -116 296 -111Q297 -106 303 -105Q310 -104 316 -110Q321 -116 325 -122Q327 -128 330 -133Q334 -138 329 -142Q326 -142 323 -147Q320 -152 317 -152Q313 -148 306 -151Q305 -156 298 -156Q291 -157 289 -160Q278 -166 267 -173Q247 -190 244 -205Q236 -219 243 -252Q254 -290 265 -329Q273 -349 281 -369Q282 -376 281 -385Q281 -393 270 -392Q267 -397 257 -397Q249 -397 246 -400Q241 -402 235 -404Q228 -405 229 -411Q237 -421 260 -425Q266 -430 274 -429Q283 -429 289 -431Q318 -427 325 -422Q328 -421 329 -420Q327 -417 323 -410Q316 -405 320 -399Q323 -393 325 -388Q327 -379 329 -371Q328 -360 327 -351Q325 -341 317 -335Q315 -325 313 -315Q310 -310 298 -284Q296 -275 288 -262Q281 -250 279 -245Q282 -240 277 -231Q273 -224 275 -220Q266 -203 294 -190Q315 -180 342 -172Q357 -166 372 -160Q378 -155 385 -152Q392 -148 395 -142Q404 -139 399 -131Q394 -123 387 -126Q383 -128 378 -123Q373 -118 371 -121Q366 -126 364 -123Q361 -117 358 -113Q357 -106 365 -104Q372 -102 377 -104Q382 -106 388 -101Q393 -98 395 -101Q406 -103 434 -98Q452 -97 470 -96Q475 -97 478 -93Q481 -88 482 -88Q485 -94 490 -93Q494 -93 499 -93Q503 -90 512 -91Q523 -92 527 -87Z"/>
</svg>