<svg xmlns="http://www.w3.org/2000/svg" viewBox="0 -800 1024 1024">
	<path fill="#000000" d="M650 -727Q661 -727 662 -726Q673 -726 686 -724Q693 -724 691 -715Q690 -708 691 -705Q694 -700 692 -696Q680 -692 667 -689Q639 -681 626 -677Q620 -675 622 -670Q625 -665 627 -660Q625 -653 628 -644Q630 -629 631 -611Q636 -610 645 -611Q659 -613 664 -610Q673 -612 679 -605Q686 -598 684 -588Q690 -582 681 -576Q675 -577 672 -572Q669 -568 665 -565Q661 -561 650 -562Q640 -563 636 -559Q628 -555 626 -546Q625 -538 624 -529Q621 -525 620 -515Q619 -504 615 -500Q612 -498 614 -495Q616 -492 619 -491Q620 -492 635 -494Q647 -492 651 -504Q650 -508 652 -511Q654 -513 656 -510Q662 -507 667 -501Q673 -495 681 -498Q688 -498 695 -499Q703 -501 709 -496Q711 -493 717 -494Q723 -495 726 -493Q727 -485 724 -476Q726 -471 723 -469Q719 -467 715 -464Q709 -454 698 -460L666 -454Q639 -450 611 -447Q595 -449 585 -443Q567 -444 552 -433Q546 -431 543 -435Q540 -439 536 -441Q525 -442 514 -443Q497 -449 479 -456Q473 -458 465 -459Q462 -460 464 -465Q491 -469 517 -474Q523 -474 549 -481Q553 -485 551 -489Q549 -494 550 -498Q558 -520 557 -533Q565 -549 554 -552Q540 -550 526 -549Q503 -559 478 -558Q472 -562 484 -566Q519 -578 553 -590Q562 -591 567 -600Q565 -634 563 -640Q565 -648 559 -654Q553 -660 546 -656Q533 -658 519 -661Q507 -666 496 -665Q486 -666 478 -663Q474 -664 475 -666Q477 -670 482 -671Q493 -676 504 -681Q547 -701 598 -717Q610 -719 621 -721Q630 -723 650 -727ZM376 -708Q379 -709 387 -701Q394 -698 394 -682Q387 -674 361 -657Q347 -647 349 -631Q350 -615 349 -599Q350 -596 348 -588Q346 -577 350 -572Q364 -571 378 -570Q379 -567 384 -564Q390 -561 391 -558Q387 -546 387 -540Q377 -530 366 -520Q364 -515 356 -511Q348 -507 346 -503Q338 -486 339 -462Q336 -458 336 -451Q336 -444 341 -443Q366 -450 391 -457Q394 -457 399 -463Q404 -470 409 -469Q409 -465 405 -460Q399 -452 402 -447Q412 -429 395 -415Q387 -407 377 -404Q367 -402 358 -399Q336 -395 316 -388Q306 -386 295 -384Q291 -385 281 -380Q273 -379 265 -378Q257 -373 242 -375Q224 -372 186 -372Q170 -375 149 -382Q147 -384 139 -384Q129 -384 129 -390Q149 -401 171 -406Q192 -411 212 -416Q237 -424 259 -427Q265 -430 273 -430Q281 -431 283 -438Q272 -450 271 -462Q271 -478 275 -484Q282 -493 273 -497Q267 -495 261 -494Q249 -499 239 -499Q219 -507 198 -507Q196 -513 206 -515Q225 -529 251 -536Q269 -544 286 -553Q294 -564 294 -576Q294 -594 297 -611Q298 -613 297 -619Q296 -625 298 -627Q299 -638 290 -640Q282 -643 275 -645Q263 -647 253 -650Q240 -653 226 -656Q222 -658 212 -658Q204 -658 201 -660Q201 -665 205 -667Q209 -669 212 -671Q235 -678 258 -685Q267 -688 278 -688Q296 -693 300 -693Q311 -696 322 -700Q325 -699 339 -704Q349 -706 360 -707Q363 -706 376 -708ZM612 -419Q620 -413 628 -412Q639 -413 648 -400Q651 -393 653 -379Q649 -377 644 -368Q640 -360 635 -358Q637 -352 632 -342Q628 -335 628 -331Q627 -327 614 -310Q609 -297 600 -287Q599 -283 593 -279Q595 -273 601 -276Q636 -287 642 -290Q649 -288 659 -295Q683 -300 707 -306Q714 -307 720 -308Q739 -315 755 -315Q773 -320 796 -321Q807 -325 818 -326Q831 -326 833 -321Q843 -318 853 -315Q862 -312 871 -308Q880 -305 877 -296Q881 -293 879 -285Q886 -278 880 -269Q878 -263 869 -261Q868 -257 861 -252Q853 -246 850 -242Q844 -241 843 -240Q839 -238 841 -234Q834 -224 823 -216Q813 -209 802 -203Q798 -203 793 -198Q788 -193 783 -193Q776 -195 771 -187Q767 -181 763 -181Q756 -180 751 -176Q738 -169 727 -172Q751 -194 768 -218Q775 -230 785 -243Q795 -255 799 -269Q802 -275 792 -277Q768 -277 747 -274Q719 -270 704 -268Q675 -261 646 -255Q634 -251 621 -248Q611 -243 603 -242L578 -234Q566 -231 562 -224Q557 -217 551 -211Q548 -204 522 -174Q520 -171 512 -166Q503 -160 502 -155Q495 -145 487 -136Q482 -130 474 -128Q464 -118 461 -109Q466 -101 476 -99Q486 -96 496 -92Q507 -85 520 -82Q540 -76 560 -74Q575 -74 580 -72Q600 -72 620 -69Q625 -67 644 -67Q648 -65 659 -66Q670 -67 675 -63Q678 -65 691 -65Q720 -65 724 -64Q728 -66 737 -66Q748 -66 751 -70Q740 -109 737 -114Q735 -115 736 -118Q737 -121 741 -119Q753 -105 767 -97Q783 -88 798 -79Q801 -75 811 -71Q819 -68 823 -64Q826 -60 836 -57Q850 -53 847 -45Q862 -39 857 -31Q866 -19 857 -17Q846 -19 840 -16Q836 -11 825 -13Q809 -12 793 -11Q755 -11 716 -12Q714 -12 712 -12H703Q701 -12 699 -12Q695 -12 691 -12L676 -13Q672 -13 668 -13Q649 -15 630 -17Q609 -20 588 -23Q556 -23 520 -35Q519 -35 489 -44Q464 -51 440 -66Q431 -71 422 -77Q404 -62 386 -51Q383 -51 378 -49Q373 -46 369 -47Q359 -42 343 -43Q333 -40 331 -49Q374 -79 387 -99Q392 -101 390 -105Q386 -109 384 -114Q376 -116 372 -121Q368 -126 364 -132Q356 -140 348 -133L325 -114Q323 -108 317 -105Q312 -102 308 -99Q298 -81 260 -88Q249 -99 234 -107Q229 -113 223 -120Q217 -127 221 -134Q218 -141 222 -160Q223 -176 233 -193Q260 -229 277 -240Q284 -241 294 -254Q301 -259 308 -265Q302 -290 309 -297Q315 -296 319 -301Q323 -306 327 -304Q331 -303 331 -301Q331 -298 332 -295Q337 -291 341 -290Q370 -316 399 -342Q400 -346 393 -347Q388 -348 388 -350Q389 -355 387 -360Q387 -363 392 -363Q398 -367 405 -371Q411 -376 418 -371Q430 -365 438 -374Q447 -376 453 -372Q459 -368 465 -367Q468 -367 471 -363Q475 -358 479 -358Q494 -347 492 -338Q488 -329 479 -325Q470 -325 461 -325Q459 -327 454 -325Q450 -323 447 -325Q443 -323 435 -327Q427 -331 422 -327Q419 -324 413 -322Q408 -319 407 -314Q378 -297 372 -295Q366 -290 370 -280Q373 -272 370 -269Q361 -262 368 -242Q364 -233 370 -222Q372 -208 379 -195Q396 -198 409 -205Q417 -208 425 -212Q454 -227 485 -237Q494 -238 502 -245Q514 -266 525 -288Q535 -300 541 -314Q548 -326 550 -336Q554 -346 561 -356Q568 -366 569 -379Q574 -383 572 -389Q570 -395 569 -400Q568 -405 570 -408Q572 -412 577 -410Q581 -415 600 -415Q604 -413 606 -415Q609 -418 612 -419ZM313 -228Q313 -226 312 -224L309 -213Q309 -210 308 -209Q303 -193 292 -178Q286 -170 294 -162Q326 -169 334 -174Q332 -184 323 -204Q323 -209 321 -220Q320 -229 313 -228ZM461 -204L451 -198Q438 -193 424 -188Q417 -178 405 -176Q389 -168 399 -156Q404 -150 408 -145Q412 -139 419 -137Q433 -152 466 -198Q469 -201 467 -204Q465 -207 461 -204Z"/>
</svg>