<svg xmlns="http://www.w3.org/2000/svg" viewBox="0 -800 1024 1024">
	<path fill="#000000" d="M500 -742H512Q517 -745 522 -739Q526 -733 532 -736Q547 -735 555 -726Q560 -719 565 -711Q569 -703 567 -693Q571 -687 566 -677Q562 -669 562 -665Q554 -643 550 -617Q546 -611 550 -605Q554 -599 561 -600Q569 -611 576 -603Q581 -601 587 -605Q593 -609 595 -609Q598 -612 604 -612Q611 -612 613 -615Q618 -617 627 -613Q639 -608 646 -611Q648 -608 655 -608Q661 -608 663 -604Q672 -603 671 -595Q670 -587 662 -584Q658 -587 654 -578Q658 -566 644 -561Q642 -559 634 -556Q625 -553 622 -546Q609 -551 602 -544Q597 -546 590 -539Q585 -534 581 -534Q570 -543 562 -533Q557 -535 552 -527Q548 -521 545 -520Q529 -510 517 -504Q508 -498 505 -502Q502 -500 501 -501Q501 -506 500 -512Q501 -515 509 -524Q519 -536 521 -544Q528 -550 519 -558Q513 -564 513 -567Q505 -575 503 -600Q503 -609 501 -620Q500 -631 507 -639Q506 -642 510 -647Q514 -653 511 -657Q509 -664 512 -675Q516 -689 511 -695Q493 -682 491 -680Q475 -669 458 -652Q456 -651 447 -642Q438 -633 430 -630Q422 -623 412 -608Q402 -592 395 -586Q370 -572 354 -536Q349 -532 349 -517Q349 -507 346 -501Q346 -494 341 -494Q336 -493 332 -492Q328 -488 325 -493Q323 -499 317 -498Q314 -504 307 -510Q299 -516 298 -518Q293 -520 290 -529Q287 -537 284 -540Q279 -542 279 -553Q279 -566 274 -567Q267 -562 259 -558Q251 -555 248 -546Q246 -545 243 -540Q239 -532 234 -534Q210 -529 204 -531Q196 -561 197 -568Q187 -574 190 -582Q193 -590 196 -598Q196 -602 203 -605Q208 -607 209 -611Q221 -628 231 -645Q234 -654 247 -668Q260 -682 264 -692Q272 -701 269 -718Q272 -721 273 -721Q276 -721 280 -715Q286 -707 290 -707Q301 -692 306 -677Q304 -662 296 -652Q289 -633 285 -627Q280 -614 271 -608Q270 -604 269 -598Q268 -591 274 -588L311 -581Q320 -570 331 -581Q337 -590 353 -606Q367 -619 373 -627Q374 -629 379 -631Q386 -633 386 -638Q395 -648 404 -657Q427 -678 454 -699Q466 -710 479 -719Q493 -728 500 -742ZM728 -470Q736 -469 744 -469Q765 -468 783 -454Q788 -451 792 -443Q796 -434 801 -431Q803 -417 805 -411Q801 -402 796 -393Q794 -396 792 -394Q789 -392 790 -389Q789 -382 790 -374Q790 -366 785 -362Q778 -357 771 -344Q764 -332 759 -327Q751 -322 744 -308Q738 -295 733 -291Q726 -290 723 -284Q719 -278 716 -272Q708 -264 696 -246Q688 -243 680 -240Q675 -242 667 -238Q662 -236 659 -236Q609 -239 575 -229Q551 -225 530 -228Q521 -226 505 -235Q496 -240 489 -241Q484 -238 484 -232Q483 -226 482 -220Q475 -206 477 -166Q477 -151 476 -136Q474 -121 481 -107Q480 -101 485 -92Q490 -84 490 -80Q500 -60 521 -47Q545 -34 575 -29L590 -28Q598 -26 605 -25Q636 -22 668 -23Q670 -25 675 -22Q679 -20 682 -21Q692 -24 701 -22Q714 -25 728 -25Q750 -25 754 -26Q760 -26 766 -26Q775 -26 797 -28Q804 -26 815 -29Q829 -32 836 -31Q855 -33 859 -36Q862 -45 864 -55Q867 -60 866 -70Q865 -84 870 -88Q871 -87 873 -76Q877 -67 891 -49Q908 -33 921 -15Q929 -20 933 -11Q931 -5 929 1Q927 8 921 10Q897 18 869 15Q853 15 836 15Q816 14 796 13Q786 21 775 16Q761 16 746 16Q727 17 710 17Q687 17 664 17Q628 15 592 12Q580 11 572 7Q567 5 559 5Q546 5 543 1Q524 -2 495 -21Q459 -51 447 -72Q441 -79 432 -102Q428 -115 426 -142Q425 -154 424 -167L428 -179Q426 -197 431 -207Q430 -214 438 -242Q446 -266 453 -291Q461 -328 472 -346Q481 -365 493 -382Q493 -391 506 -402Q518 -412 518 -420Q522 -424 525 -422Q529 -419 534 -418Q537 -422 545 -420Q552 -418 556 -420Q577 -427 597 -435Q607 -439 613 -441L643 -452Q649 -454 659 -458Q679 -463 698 -469Q713 -468 728 -470ZM274 -458Q281 -458 287 -451Q304 -451 318 -443Q323 -444 325 -439Q328 -434 331 -429Q337 -425 338 -412Q339 -402 341 -399Q338 -392 345 -388Q356 -391 369 -388Q378 -385 386 -382Q390 -379 392 -370Q394 -363 396 -359Q398 -356 396 -351Q394 -346 390 -348Q376 -345 361 -343Q349 -341 339 -337Q333 -335 332 -330Q331 -325 331 -320Q332 -316 329 -310Q325 -303 327 -299Q329 -297 326 -290Q323 -283 326 -279Q331 -274 338 -280Q359 -287 380 -295Q392 -300 403 -309Q415 -316 428 -320Q420 -313 411 -307Q400 -298 388 -289Q384 -288 377 -279Q373 -275 369 -272Q362 -267 352 -257Q339 -244 332 -240Q323 -235 323 -224Q324 -213 323 -203Q323 -191 323 -179Q316 -169 323 -141Q323 -137 320 -128Q317 -119 318 -113Q316 -108 317 -99Q318 -90 317 -86Q317 -83 316 -81V-72Q315 -70 315 -67Q316 -48 307 -30Q307 -26 302 -16Q296 -5 298 4Q284 18 272 17Q266 13 253 -2Q252 -9 238 -20Q238 -38 228 -49Q212 -67 200 -84Q200 -89 204 -90Q209 -90 212 -85Q218 -71 234 -62Q251 -54 257 -60Q261 -65 261 -77Q261 -86 263 -90Q264 -96 264 -102Q268 -134 273 -148Q268 -161 277 -174Q278 -180 273 -182Q268 -184 265 -180Q228 -148 199 -116Q196 -111 191 -106Q186 -101 188 -94Q189 -91 183 -87Q180 -87 173 -82Q168 -78 165 -78Q163 -78 160 -81Q152 -86 149 -93Q145 -101 141 -107Q132 -114 134 -123Q136 -133 136 -142Q130 -151 133 -160Q132 -164 135 -164Q139 -164 142 -161Q147 -154 152 -158Q158 -162 163 -165Q216 -205 268 -246Q276 -250 277 -258Q278 -266 280 -273Q281 -296 278 -315Q278 -318 273 -319Q268 -319 267 -318Q248 -314 231 -307Q211 -308 191 -310Q161 -315 144 -327Q142 -332 146 -333Q153 -334 159 -335Q178 -341 197 -348Q210 -350 222 -353Q233 -358 250 -363Q267 -368 283 -377Q284 -381 287 -414Q288 -423 280 -436Q271 -450 274 -458ZM711 -426Q653 -413 610 -390Q605 -388 606 -386Q609 -383 613 -381Q622 -382 628 -375Q634 -369 633 -359Q631 -349 631 -338Q629 -339 627 -337Q626 -333 625 -329Q624 -328 621 -330Q615 -324 618 -316Q618 -311 615 -310Q611 -309 608 -306Q601 -294 594 -282Q596 -275 604 -276Q611 -277 617 -278Q633 -280 648 -277Q657 -277 663 -284Q669 -292 675 -298Q688 -318 698 -338Q728 -392 730 -398Q739 -413 733 -427Q713 -427 711 -426ZM549 -379Q543 -379 539 -372Q505 -318 497 -284Q493 -275 492 -268Q492 -262 497 -261Q503 -260 508 -261Q529 -265 549 -270Q562 -272 562 -287Q568 -312 574 -337Q578 -354 581 -371Q582 -376 577 -379Q573 -381 569 -379Q559 -379 549 -379Z"/>
</svg>