<svg xmlns="http://www.w3.org/2000/svg" viewBox="0 -800 1024 1024">
	<path fill="#000000" d="M377 -680Q394 -681 407 -675Q420 -672 424 -654Q426 -635 393 -630Q379 -630 364 -627Q355 -629 348 -625Q341 -621 334 -619Q324 -617 312 -623Q301 -628 296 -628Q291 -632 278 -635Q262 -638 256 -644Q253 -650 260 -652Q268 -655 269 -656Q315 -668 338 -675Q344 -678 358 -677Q370 -677 377 -680ZM701 -652Q713 -645 728 -644Q744 -643 749 -627Q756 -616 751 -606Q755 -598 752 -580Q750 -567 751 -561Q749 -536 750 -509Q748 -505 746 -495L743 -480Q744 -473 742 -465Q740 -457 747 -454Q769 -458 775 -465Q784 -466 799 -462Q809 -463 818 -464Q824 -464 831 -463Q838 -462 837 -456Q843 -449 841 -440Q845 -433 839 -430Q833 -427 828 -424Q801 -416 773 -409Q759 -405 756 -402Q749 -402 748 -395Q746 -389 746 -383Q742 -373 743 -361Q744 -354 743 -345Q741 -337 746 -333Q758 -323 755 -310Q752 -298 747 -286Q746 -283 746 -277Q746 -268 742 -265Q744 -243 735 -225Q724 -214 725 -208Q723 -205 721 -195Q718 -183 712 -178Q710 -168 707 -159Q705 -153 707 -150Q710 -146 716 -147Q743 -141 769 -136Q782 -139 792 -129Q802 -119 802 -106Q799 -103 796 -97Q791 -87 786 -84Q774 -79 756 -83Q728 -91 700 -100Q678 -121 665 -142Q654 -154 655 -170Q657 -186 660 -200Q665 -208 659 -215Q652 -222 649 -231Q644 -233 642 -241Q640 -248 636 -251Q636 -259 629 -262Q623 -265 619 -268Q613 -295 646 -317Q666 -329 687 -333Q688 -341 688 -381Q674 -379 659 -378Q657 -375 652 -375L647 -376Q642 -376 640 -373Q622 -368 608 -376Q597 -389 582 -396Q579 -402 573 -398L569 -394Q568 -393 567 -393Q565 -378 556 -371Q555 -365 551 -361Q546 -355 546 -350Q518 -305 504 -290Q502 -282 496 -278Q490 -274 486 -269Q493 -262 503 -265Q521 -257 524 -252Q528 -244 517 -226Q517 -217 509 -216Q501 -216 492 -212Q487 -215 475 -212Q466 -210 461 -212Q450 -213 441 -211Q435 -214 426 -213Q417 -212 413 -214Q406 -213 398 -212Q389 -211 385 -204Q382 -198 377 -191Q378 -187 375 -183Q371 -177 374 -173L360 -156Q362 -153 360 -147Q358 -142 362 -141Q384 -141 399 -133Q415 -127 424 -127Q435 -125 465 -119Q473 -116 516 -106Q531 -105 544 -100Q548 -97 560 -96Q571 -95 575 -93Q585 -90 593 -91Q596 -87 604 -88Q611 -89 613 -86Q619 -85 625 -84Q630 -81 644 -79Q654 -78 660 -75Q673 -72 686 -70Q698 -66 710 -63Q734 -58 757 -53Q764 -54 775 -49Q787 -44 792 -44Q819 -40 832 -36Q839 -33 853 -31Q870 -29 877 -25Q887 -25 902 -18Q915 -12 921 -11Q940 -4 956 5Q968 10 961 22Q964 27 960 35Q957 42 957 47Q952 57 940 51Q939 52 917 54Q888 47 859 40Q852 35 837 32Q820 29 815 24Q791 25 767 15Q732 7 697 -2Q688 -7 679 -7Q663 -9 659 -13Q642 -15 624 -21Q619 -21 610 -25Q602 -29 596 -28Q593 -29 585 -31L562 -38Q557 -39 551 -41Q546 -39 540 -44Q535 -48 533 -48Q531 -48 528 -44Q514 -49 479 -58Q471 -60 463 -63Q454 -59 444 -67Q433 -68 424 -72Q418 -74 396 -78Q373 -82 360 -88Q354 -93 343 -93Q335 -94 329 -84Q325 -82 323 -76Q321 -70 318 -68Q312 -68 308 -58Q305 -50 299 -49Q287 -42 274 -36Q271 -38 267 -35Q264 -32 262 -32Q252 -25 240 -24Q236 -27 233 -24Q230 -20 226 -19Q211 -9 205 -13Q200 -14 196 -17Q190 -21 192 -25Q211 -24 224 -39Q237 -53 251 -63Q279 -79 291 -101Q289 -110 281 -112Q273 -114 267 -116Q253 -118 243 -124Q233 -125 213 -135Q179 -143 172 -145Q154 -151 132 -156Q108 -161 103 -166Q98 -166 95 -172Q95 -173 95 -174Q96 -177 101 -176Q113 -178 124 -181Q137 -181 150 -181L205 -174Q210 -172 218 -171Q232 -170 236 -166Q259 -162 281 -158Q293 -157 307 -152Q314 -150 317 -160Q316 -165 320 -174Q325 -185 324 -190Q326 -194 327 -201Q327 -204 323 -203Q307 -201 290 -200Q283 -200 276 -201Q260 -201 250 -211Q240 -214 232 -219Q225 -225 217 -229Q196 -246 174 -259Q150 -281 149 -307Q143 -332 154 -358Q163 -368 161 -383Q166 -395 171 -408Q169 -418 175 -426Q181 -433 185 -442Q188 -446 191 -452Q193 -457 198 -459Q205 -471 226 -488Q231 -494 237 -489Q242 -485 246 -482Q252 -472 253 -460L274 -471Q307 -485 332 -492Q334 -494 345 -498Q354 -501 353 -507Q351 -545 344 -569Q345 -579 340 -586Q334 -593 329 -600Q325 -604 320 -602Q315 -600 312 -600Q311 -605 317 -605Q324 -605 325 -607Q331 -618 342 -615Q348 -610 359 -608Q373 -605 377 -602Q394 -588 401 -573Q396 -545 402 -535Q404 -533 402 -524Q400 -514 407 -514Q422 -516 436 -518Q466 -521 473 -520Q482 -519 491 -519Q514 -514 537 -510Q565 -507 570 -482Q569 -476 572 -473Q575 -470 578 -467Q579 -463 581 -464Q586 -469 590 -476Q592 -481 596 -486Q600 -490 598 -496Q597 -498 597 -499Q601 -499 605 -500Q622 -498 624 -469Q632 -462 630 -445Q623 -444 623 -438Q623 -432 620 -426Q617 -422 620 -418Q623 -414 628 -417Q640 -417 651 -418Q656 -422 667 -424Q680 -426 684 -429Q692 -432 691 -439Q690 -447 693 -453Q690 -457 692 -467Q694 -475 693 -477Q693 -512 694 -549Q695 -585 687 -618Q687 -625 682 -627Q677 -628 673 -631Q664 -631 663 -637Q663 -640 669 -639Q673 -641 701 -652ZM495 -471Q493 -471 465 -468Q446 -466 426 -464Q421 -464 414 -463Q407 -463 404 -458Q404 -448 399 -442Q404 -434 402 -420Q398 -416 400 -407Q401 -400 400 -398Q404 -385 402 -369Q401 -364 405 -359Q409 -354 409 -351Q404 -346 405 -333Q406 -321 402 -316Q402 -298 399 -276Q397 -269 403 -265Q408 -262 415 -266Q428 -263 437 -282Q439 -283 442 -290Q445 -296 448 -295Q458 -307 467 -320Q469 -327 473 -332Q477 -337 475 -344Q487 -370 498 -396Q508 -421 512 -449Q514 -459 510 -466Q505 -475 495 -471ZM252 -448Q251 -446 251 -443Q250 -441 246 -441Q240 -429 233 -419Q226 -408 225 -394Q220 -389 220 -371Q211 -345 211 -342Q211 -334 211 -326Q210 -313 208 -301Q205 -278 225 -266Q226 -265 227 -264Q230 -265 232 -268Q233 -268 234 -266Q251 -258 267 -248Q270 -243 290 -241Q304 -245 317 -249Q329 -251 341 -254Q349 -286 349 -319Q344 -326 336 -325Q327 -325 320 -327Q303 -324 287 -337Q276 -338 268 -351Q270 -350 273 -352Q276 -355 279 -353Q301 -357 308 -365Q331 -368 352 -374Q354 -395 356 -417Q355 -424 354 -434Q353 -444 343 -442Q333 -444 325 -436Q324 -428 318 -428Q312 -427 307 -432Q297 -434 288 -438Q280 -441 271 -445Q262 -450 252 -448ZM677 -295Q669 -295 666 -292Q664 -290 649 -283Q639 -278 641 -269Q649 -258 655 -246Q659 -240 665 -233Q669 -230 673 -236Q679 -255 685 -275Q688 -282 687 -291Q686 -298 677 -295Z"/>
</svg>