<svg xmlns="http://www.w3.org/2000/svg" viewBox="0 -800 1024 1024">
	<path fill="#000000" d="M623 -628L634 -627Q640 -618 654 -620Q667 -618 679 -617Q691 -618 701 -612Q713 -605 710 -594Q714 -581 705 -571Q691 -563 679 -552Q676 -545 669 -540Q661 -536 654 -532Q641 -532 641 -522Q624 -509 607 -497Q603 -495 594 -487Q584 -478 577 -476Q571 -466 563 -460Q555 -453 549 -447Q545 -444 547 -442Q548 -441 553 -440Q599 -438 620 -428Q625 -428 633 -421Q641 -413 647 -416Q666 -422 684 -428Q701 -436 720 -440Q736 -442 751 -444Q759 -444 766 -440Q778 -439 785 -433Q808 -427 814 -410Q812 -396 816 -386Q804 -376 807 -366Q795 -358 783 -351Q780 -351 776 -346Q773 -341 768 -342Q746 -325 742 -319Q736 -316 726 -306Q715 -295 707 -292Q704 -289 695 -285Q683 -280 680 -274Q674 -274 664 -267Q653 -260 645 -260Q644 -256 636 -253Q629 -250 627 -246Q598 -227 569 -208Q558 -203 553 -197Q544 -194 538 -190Q515 -186 503 -182Q496 -180 488 -180Q486 -174 491 -173Q496 -172 501 -170Q536 -164 570 -159Q573 -158 615 -150Q693 -137 771 -124Q802 -116 832 -112Q844 -109 855 -106Q876 -102 896 -96Q903 -95 962 -95Q974 -96 973 -86Q981 -66 949 -52Q933 -48 920 -42Q913 -39 897 -37Q887 -37 876 -37Q849 -40 827 -47Q801 -52 778 -60Q769 -60 759 -64Q735 -69 715 -75Q696 -78 598 -98Q572 -106 546 -115Q520 -121 495 -126Q470 -132 449 -146Q444 -157 438 -169Q437 -178 434 -187Q431 -196 439 -202Q452 -209 466 -211Q477 -208 490 -216Q517 -223 531 -229Q532 -232 541 -235Q551 -238 552 -243Q579 -259 582 -260Q586 -261 599 -274Q612 -287 628 -298Q630 -301 637 -305Q644 -309 646 -313Q675 -335 696 -358Q701 -363 706 -376Q711 -379 709 -382Q707 -384 701 -383Q697 -382 697 -378Q698 -377 696 -380Q668 -373 660 -369Q641 -362 621 -356Q608 -351 595 -347Q582 -344 572 -336Q570 -336 531 -320Q509 -310 486 -301Q478 -294 459 -298Q444 -302 431 -311Q423 -315 414 -320Q449 -332 459 -337Q503 -355 546 -373Q550 -376 558 -379Q571 -384 575 -389Q568 -395 548 -402Q521 -412 511 -424Q505 -418 498 -413Q490 -403 482 -405Q478 -399 470 -399Q464 -399 461 -397L476 -413Q476 -417 482 -423Q490 -431 488 -437Q499 -446 510 -459Q515 -472 525 -483Q534 -496 540 -506Q543 -508 546 -514Q549 -520 553 -522Q556 -527 561 -533Q565 -538 560 -545Q572 -554 593 -586Q600 -590 587 -599Q590 -604 598 -607Q606 -610 609 -613Q607 -618 613 -621Q619 -624 623 -628ZM275 -523Q292 -521 309 -520Q314 -522 317 -518Q320 -514 316 -510Q314 -506 320 -500Q327 -495 321 -488Q318 -484 309 -482Q298 -479 296 -473Q288 -447 276 -433Q269 -430 268 -423Q266 -416 263 -410Q262 -405 251 -395Q241 -386 239 -379Q238 -376 232 -369Q225 -361 225 -354Q228 -347 243 -356Q250 -358 256 -361Q277 -372 326 -380Q331 -383 336 -379Q340 -376 345 -373Q360 -371 375 -364Q381 -363 383 -350Q384 -346 388 -342Q393 -338 389 -333Q389 -331 385 -325Q381 -319 382 -314Q382 -304 372 -297Q370 -294 361 -291Q352 -288 350 -282Q349 -277 345 -272Q339 -266 339 -263Q342 -257 349 -257Q356 -256 362 -255Q367 -246 368 -232Q366 -227 361 -226Q356 -224 352 -223Q329 -222 308 -225Q292 -223 275 -222Q256 -221 236 -220Q227 -206 231 -197Q236 -184 217 -174Q197 -174 196 -183Q179 -204 182 -218Q180 -237 185 -254Q186 -271 190 -286Q193 -291 189 -295Q185 -299 181 -296Q176 -293 165 -281Q156 -271 149 -266Q138 -260 131 -250Q125 -240 116 -231Q109 -229 98 -219Q89 -210 83 -208Q77 -212 68 -205Q64 -200 56 -197Q47 -194 45 -191Q39 -190 39 -193Q39 -196 42 -199Q51 -208 65 -226Q89 -261 116 -294Q117 -295 123 -313Q135 -319 140 -331Q164 -362 190 -399Q191 -405 199 -414Q207 -422 208 -426Q209 -431 217 -442Q225 -454 226 -462Q222 -466 214 -462Q208 -459 205 -460Q186 -456 178 -451Q173 -444 157 -452Q153 -452 121 -461Q113 -464 105 -467Q100 -470 107 -472Q119 -473 145 -486Q165 -493 184 -498Q221 -510 257 -519Q259 -520 275 -523ZM311 -342H310Q303 -343 293 -339Q283 -335 279 -335Q268 -333 256 -332Q246 -332 244 -318Q243 -312 240 -307Q236 -301 239 -294Q238 -274 237 -254Q235 -245 251 -248Q271 -253 290 -259Q302 -277 316 -310Q318 -321 321 -330Q324 -336 320 -341Q316 -346 311 -342Z"/>
</svg>