<svg xmlns="http://www.w3.org/2000/svg" viewBox="0 -800 1024 1024">
	<path fill="#000000" d="M540 -719H551Q556 -722 561 -717Q565 -712 570 -714Q584 -712 592 -705Q604 -692 603 -674Q607 -669 602 -659Q599 -652 599 -648Q588 -616 587 -604Q583 -598 587 -592Q591 -587 598 -589Q607 -598 612 -591Q620 -591 630 -596Q633 -599 638 -599Q644 -599 646 -602Q650 -603 659 -600Q670 -596 677 -599Q680 -596 686 -596Q692 -596 694 -592Q702 -591 701 -583Q700 -575 693 -573Q689 -576 685 -568Q689 -556 676 -552Q673 -549 666 -547Q658 -545 655 -539Q642 -542 636 -537Q631 -539 625 -533Q620 -528 616 -528Q606 -535 599 -527Q594 -528 589 -521Q585 -515 582 -514Q569 -507 556 -500Q547 -494 544 -498Q542 -496 541 -497Q540 -501 540 -507Q542 -512 549 -520Q558 -531 560 -537Q566 -542 558 -549Q552 -555 552 -558Q544 -565 542 -589Q542 -598 541 -607Q540 -617 547 -624Q546 -627 549 -632Q552 -637 550 -641Q549 -646 552 -657Q555 -670 550 -676Q538 -669 531 -662Q516 -652 500 -636Q495 -634 488 -627Q479 -618 474 -616Q466 -609 456 -595Q447 -581 440 -575Q418 -562 402 -529Q397 -525 397 -512Q397 -502 394 -497Q394 -490 389 -490Q384 -490 381 -489Q377 -485 374 -490Q370 -496 366 -495Q359 -504 349 -512Q344 -515 341 -523Q338 -531 335 -533Q331 -535 331 -545Q331 -557 327 -558Q320 -553 312 -550Q304 -547 301 -539Q298 -537 296 -532Q294 -526 288 -528Q265 -523 260 -524Q252 -552 253 -559Q244 -564 247 -572Q249 -580 252 -586Q252 -590 258 -593Q264 -596 265 -599Q272 -604 277 -615Q283 -627 286 -630Q288 -638 301 -651Q313 -663 317 -673Q324 -682 321 -697Q324 -700 325 -700Q328 -700 332 -694Q337 -687 341 -687Q351 -673 356 -659Q354 -646 346 -636Q344 -626 337 -613Q329 -596 323 -595Q319 -581 327 -578L361 -571Q369 -560 380 -571Q385 -579 399 -592Q413 -605 419 -613Q422 -616 427 -617Q431 -618 432 -623Q441 -632 449 -641Q475 -663 496 -679Q507 -689 519 -697Q532 -705 540 -719ZM547 -453Q557 -454 579 -446Q587 -448 591 -442Q595 -437 600 -431Q602 -423 597 -416Q591 -409 585 -402Q574 -400 574 -389Q567 -384 563 -373Q551 -361 546 -342Q542 -333 550 -322Q557 -298 552 -286Q553 -275 549 -251Q544 -246 544 -238Q544 -231 543 -223Q544 -216 542 -208Q541 -200 549 -197Q551 -197 590 -203Q591 -203 607 -206Q644 -206 661 -201Q667 -189 649 -173Q646 -168 639 -168Q633 -168 628 -166Q621 -164 606 -165Q590 -166 582 -163Q570 -159 555 -167Q551 -171 546 -171Q539 -170 538 -163Q539 -154 534 -140Q529 -128 529 -122Q531 -118 528 -108Q525 -100 526 -94Q526 -73 526 -52Q523 -36 533 -25Q543 -24 562 -28Q586 -30 609 -33Q613 -34 620 -32Q627 -29 631 -31Q636 -29 645 -32Q652 -34 656 -34Q670 -33 684 -33Q687 -34 692 -31L696 -29Q701 -26 704 -27Q727 -45 731 -67Q737 -86 742 -106Q745 -125 750 -143Q751 -146 751 -151L754 -166Q755 -170 755 -174Q757 -180 757 -195Q757 -211 761 -218Q762 -241 762 -265Q763 -274 758 -302Q756 -320 747 -332Q744 -338 729 -340Q721 -339 713 -338Q698 -334 682 -331Q674 -327 666 -324Q658 -320 652 -312Q641 -303 632 -312Q618 -317 604 -322Q589 -325 574 -328Q567 -334 577 -335Q594 -343 611 -351Q631 -358 650 -366Q666 -374 702 -382Q706 -384 731 -384Q748 -386 772 -377Q793 -368 799 -360Q805 -355 813 -337Q818 -333 818 -322Q818 -311 820 -308Q826 -303 825 -296Q824 -288 823 -281Q821 -277 822 -269Q823 -260 822 -257Q824 -251 821 -241Q818 -230 819 -225Q813 -216 814 -194Q815 -175 812 -168Q806 -152 809 -134Q806 -124 802 -114Q803 -98 798 -75Q798 -72 795 -66Q792 -60 793 -55Q795 -36 792 -27Q787 -24 785 -17Q784 -13 783 -5Q779 -1 779 5Q779 12 777 17Q768 22 767 30Q767 33 764 38Q761 43 758 42Q748 41 741 37Q734 32 727 29Q723 28 716 21Q707 12 701 15Q687 15 677 11Q658 16 638 16Q624 16 609 15Q591 11 571 14Q559 13 544 9Q534 7 526 11Q515 5 503 -2Q492 -10 480 -18Q456 -35 460 -58Q465 -74 464 -79Q466 -102 473 -124Q476 -155 486 -191Q492 -221 495 -235Q498 -245 500 -256Q500 -266 503 -281Q508 -304 506 -314Q503 -316 503 -324Q503 -330 500 -331Q498 -335 490 -332Q484 -331 483 -335Q482 -340 486 -343Q490 -360 496 -366Q496 -382 506 -395Q515 -410 520 -426Q516 -432 509 -433Q503 -434 497 -434Q489 -439 499 -443Q524 -450 529 -449ZM290 -380Q318 -380 332 -376Q347 -380 354 -370Q362 -365 354 -355Q351 -352 352 -346Q353 -339 349 -336Q328 -333 309 -340Q291 -347 272 -351Q265 -356 255 -359Q241 -364 236 -368Q243 -373 253 -373Q272 -376 290 -380ZM260 -287Q264 -287 264 -284Q265 -280 265 -276Q274 -263 272 -245Q270 -240 268 -225Q267 -222 265 -214L260 -188Q258 -180 257 -177Q257 -163 252 -154Q251 -131 246 -110Q245 -82 243 -55Q240 -47 247 -34Q251 -28 253 -21Q254 -14 262 -10Q265 -5 271 -7Q276 -9 277 -14Q278 -25 299 -66Q309 -105 349 -146Q358 -153 366 -162Q368 -163 370 -167Q373 -172 376 -173Q372 -164 370 -153Q366 -150 363 -141Q361 -135 359 -132Q355 -120 350 -108Q340 -90 334 -69Q327 -48 320 -28Q314 -17 308 -6Q299 -3 299 9Q293 19 292 26Q291 33 286 40Q284 44 281 48Q278 53 274 52Q250 51 227 26Q215 17 207 -8Q198 -27 200 -51Q201 -79 203 -106Q205 -115 207 -124Q208 -147 209 -171Q214 -180 214 -191Q210 -206 226 -227L238 -263Q250 -278 260 -287Z"/>
</svg>