<svg xmlns="http://www.w3.org/2000/svg" viewBox="0 -800 1024 1024">
	<path fill="#000000" d="M636 -633Q655 -624 657 -623Q675 -623 692 -612Q699 -601 696 -589Q693 -577 694 -566Q698 -551 692 -538Q693 -527 693 -517Q692 -497 688 -471Q690 -446 685 -437Q686 -432 684 -426Q681 -417 684 -412Q679 -407 684 -404Q689 -401 693 -405Q700 -410 718 -416Q738 -422 747 -430Q749 -438 744 -441Q738 -444 732 -448Q721 -448 719 -455Q720 -457 725 -457Q732 -455 734 -460Q736 -464 734 -472Q741 -474 754 -470Q766 -467 771 -468Q772 -470 778 -470Q785 -470 786 -476Q790 -478 792 -473Q794 -468 797 -468Q800 -467 805 -470Q810 -473 812 -468Q819 -470 826 -459Q832 -449 838 -454Q848 -450 861 -450Q874 -449 882 -440Q883 -431 883 -423Q883 -414 869 -405Q864 -397 854 -399Q849 -393 837 -395Q820 -402 809 -401Q802 -398 785 -399Q768 -400 760 -395Q745 -396 730 -390Q716 -385 702 -380Q680 -380 680 -341Q678 -338 678 -330Q678 -324 675 -320Q676 -302 673 -283Q671 -279 670 -272Q669 -261 665 -257Q660 -234 650 -213Q649 -208 645 -203Q642 -199 648 -195Q682 -195 714 -188Q751 -181 788 -175Q794 -176 805 -170Q815 -165 819 -166Q861 -161 902 -151Q909 -146 920 -145Q926 -145 935 -140Q948 -133 956 -134Q957 -131 964 -129Q968 -128 970 -126Q974 -126 978 -123Q985 -118 990 -119Q1003 -113 1006 -96Q1003 -88 1000 -80Q998 -77 992 -79Q986 -81 984 -80Q979 -79 978 -73Q977 -67 973 -66Q958 -65 946 -71Q933 -78 920 -82Q875 -94 836 -109Q802 -117 769 -128Q761 -132 750 -134Q731 -138 725 -142Q717 -144 703 -150L688 -156Q674 -162 666 -164Q661 -163 654 -170Q649 -175 646 -175Q636 -179 636 -162Q627 -147 618 -133Q612 -128 603 -115Q591 -99 583 -93Q575 -88 567 -84Q564 -80 554 -76Q545 -73 541 -69Q535 -71 525 -64Q516 -57 511 -62Q519 -71 526 -81Q529 -85 537 -93Q545 -100 548 -107Q552 -109 555 -115Q558 -122 561 -123Q571 -141 580 -160Q584 -163 594 -181Q593 -186 597 -192Q601 -199 601 -202Q610 -231 611 -258Q617 -277 622 -297Q622 -305 624 -317Q627 -333 625 -341Q620 -339 612 -333Q602 -325 596 -324L582 -311Q580 -304 567 -294Q556 -286 553 -281Q545 -276 540 -261Q536 -250 532 -246Q525 -243 521 -248Q517 -253 513 -257Q503 -258 499 -265Q496 -273 494 -280Q477 -288 471 -303Q476 -323 485 -341Q486 -349 493 -364Q497 -373 499 -380Q497 -388 506 -397Q514 -406 515 -412Q521 -414 527 -423Q533 -432 538 -434Q543 -402 554 -373Q553 -362 552 -352Q553 -348 551 -340Q549 -331 553 -328Q561 -332 590 -351Q600 -358 612 -364Q624 -371 633 -380Q634 -394 635 -408Q637 -418 636 -426Q635 -430 638 -441Q641 -454 637 -459Q639 -475 640 -491Q637 -539 638 -591Q637 -597 631 -600Q626 -602 622 -605Q617 -612 612 -619Q611 -622 617 -623Q629 -620 636 -633ZM345 -618H346Q356 -617 366 -616Q373 -605 373 -596Q376 -583 366 -578Q356 -573 347 -569Q300 -557 283 -561Q269 -560 256 -563Q251 -565 238 -564Q226 -563 220 -566Q217 -569 218 -570Q224 -570 230 -572Q244 -587 263 -596Q282 -604 300 -612Q323 -611 345 -618ZM317 -505Q331 -505 342 -498Q348 -486 344 -472Q347 -454 352 -450Q366 -453 393 -455Q407 -456 412 -443Q416 -431 410 -418Q395 -407 368 -405Q358 -403 353 -399Q346 -394 350 -387Q344 -358 347 -344Q346 -323 344 -302Q344 -291 344 -281Q343 -275 347 -273Q351 -271 354 -276Q393 -310 428 -351Q430 -363 444 -366Q449 -370 457 -368Q460 -363 454 -357Q447 -350 448 -346Q442 -338 438 -328Q436 -324 430 -318Q423 -311 421 -307Q413 -303 406 -290Q400 -279 395 -275Q392 -269 384 -263Q372 -254 371 -249Q363 -244 354 -230Q346 -218 342 -214Q337 -190 339 -174Q341 -167 337 -159Q334 -153 335 -149Q333 -143 334 -133Q335 -121 333 -116Q334 -101 330 -89Q329 -87 329 -70Q326 -65 327 -53Q328 -42 326 -38Q320 -35 320 -25Q320 -17 314 -13Q313 -7 308 -8Q303 -9 300 -13Q288 -20 281 -31Q280 -36 279 -41Q278 -43 275 -42Q264 -53 262 -72Q252 -77 251 -90Q261 -109 259 -119Q260 -126 261 -133Q260 -135 258 -134Q249 -129 242 -122Q239 -116 229 -112Q217 -107 216 -98Q217 -94 214 -89Q210 -84 205 -90Q198 -89 192 -87Q186 -85 180 -89Q177 -92 172 -93Q167 -95 167 -100Q147 -113 153 -130Q144 -140 146 -153Q154 -162 165 -187Q174 -207 183 -218Q187 -228 190 -232L205 -262Q208 -266 212 -276Q217 -286 220 -297Q223 -307 232 -315Q234 -321 245 -337Q254 -350 258 -360Q263 -362 265 -371Q266 -377 270 -380Q253 -380 250 -376Q229 -373 162 -357Q143 -354 124 -361Q121 -360 112 -362Q102 -365 96 -362Q92 -365 66 -373Q68 -379 72 -380Q77 -382 83 -382Q85 -384 90 -383Q96 -381 97 -387Q118 -393 139 -399Q159 -401 193 -411Q232 -418 267 -431Q284 -436 301 -442Q300 -452 302 -463Q289 -479 303 -496Q303 -502 308 -502Q313 -503 317 -505ZM270 -237L267 -235Q259 -227 250 -203Q249 -198 252 -198Q258 -198 262 -201Q270 -204 272 -212Q273 -217 273 -229Q274 -234 273 -238Q272 -239 270 -237Z"/>
</svg>