<svg xmlns="http://www.w3.org/2000/svg" viewBox="0 -800 1024 1024">
	<path fill="#000000" d="M578 -704Q591 -701 593 -701Q596 -703 602 -700Q607 -698 610 -699Q615 -703 621 -700Q626 -697 633 -696Q645 -698 649 -686Q651 -676 657 -667Q662 -658 659 -648Q655 -641 657 -632Q657 -615 657 -598Q659 -584 658 -576Q656 -560 653 -545L651 -498Q651 -485 648 -472Q641 -446 657 -448Q669 -452 722 -467Q725 -470 739 -472Q742 -472 746 -478Q751 -486 757 -482Q765 -482 772 -482Q778 -483 788 -478Q797 -473 804 -474Q806 -475 826 -475Q835 -476 840 -471Q837 -456 846 -454Q852 -452 845 -445Q839 -445 837 -440Q835 -435 834 -430Q817 -426 799 -422L762 -421Q754 -419 745 -417Q736 -415 726 -414Q721 -415 701 -410Q686 -404 668 -406Q649 -407 649 -380Q645 -373 643 -347Q639 -337 638 -325Q633 -301 630 -296Q625 -284 620 -272Q620 -268 612 -262Q607 -258 605 -255Q601 -252 596 -249Q590 -245 595 -239Q607 -243 619 -248Q664 -270 692 -275Q701 -280 723 -284Q733 -286 743 -289Q759 -291 775 -293Q785 -292 795 -292Q801 -296 807 -293Q812 -289 819 -288Q825 -286 832 -286Q839 -287 843 -281Q845 -278 852 -273Q861 -267 863 -261Q868 -258 863 -243Q865 -236 865 -221Q868 -213 860 -204Q857 -195 851 -186Q839 -173 826 -145Q818 -141 810 -126Q791 -121 786 -103Q782 -100 783 -96Q784 -91 789 -90Q804 -90 811 -82Q821 -83 820 -73Q816 -67 824 -59Q825 -54 819 -51Q814 -48 813 -46Q810 -38 799 -38Q789 -36 778 -35Q756 -35 737 -39Q711 -43 660 -45Q634 -47 610 -52Q594 -54 580 -53Q575 -55 567 -51Q558 -47 555 -50Q533 -62 523 -67Q517 -69 514 -74Q512 -80 509 -84Q491 -110 494 -122Q496 -125 494 -131Q492 -137 494 -139Q500 -146 500 -155Q500 -164 502 -173Q510 -186 514 -199Q525 -221 536 -243Q534 -249 537 -253Q540 -257 547 -256Q555 -255 558 -261Q561 -267 566 -271Q573 -275 576 -282Q580 -290 583 -297Q582 -316 586 -333Q591 -351 592 -369Q594 -374 590 -380Q586 -385 582 -382Q575 -383 562 -378Q552 -374 546 -374Q534 -372 523 -365Q505 -359 487 -353Q480 -353 472 -354Q467 -355 460 -351Q452 -347 448 -348Q444 -354 431 -358Q423 -361 419 -364Q414 -371 429 -371Q452 -380 474 -390Q524 -410 576 -424Q586 -426 594 -431Q598 -436 597 -441Q596 -446 597 -451Q598 -508 598 -565Q599 -582 600 -599Q599 -627 597 -655Q593 -668 581 -673Q569 -679 559 -684Q554 -690 566 -693Q570 -694 573 -699Q575 -703 578 -704ZM259 -630Q264 -631 271 -628Q283 -631 293 -629Q302 -625 313 -626Q329 -619 344 -612Q350 -611 350 -602Q350 -594 354 -591Q365 -582 356 -571Q348 -571 346 -558Q346 -552 340 -550Q335 -548 331 -547Q311 -548 295 -556Q278 -565 262 -573Q202 -597 176 -616Q172 -620 175 -622Q179 -624 184 -622Q194 -622 204 -622Q214 -625 226 -627Q241 -630 259 -630ZM321 -489Q331 -487 341 -486Q348 -486 367 -473Q371 -466 379 -459Q378 -452 382 -448Q386 -443 388 -437Q387 -422 378 -409Q375 -403 367 -400Q358 -397 356 -393Q353 -388 346 -384Q336 -378 334 -372Q320 -366 318 -350Q318 -346 328 -342Q335 -340 335 -333Q335 -326 335 -319Q339 -313 342 -305Q341 -298 348 -292Q355 -287 363 -288Q383 -307 410 -320L428 -335Q432 -337 438 -341Q443 -343 444 -337Q436 -330 428 -323Q423 -317 413 -309Q400 -299 396 -293Q393 -274 393 -273Q396 -261 387 -249Q385 -242 372 -238Q361 -235 358 -230Q351 -226 345 -231Q339 -237 333 -240Q328 -245 324 -244Q319 -243 317 -237Q316 -220 312 -205Q310 -200 311 -190Q312 -180 311 -176Q309 -162 311 -147L309 -108Q304 -96 304 -84Q304 -62 300 -42Q293 -34 296 -25Q303 -11 293 -12Q286 -17 281 -11Q276 -6 271 -4Q261 -12 250 -20Q246 -33 238 -44Q229 -54 233 -72Q236 -80 238 -95Q240 -109 242 -113Q242 -135 244 -155Q246 -167 247 -179Q246 -191 250 -201Q253 -228 255 -256Q254 -262 256 -272Q258 -283 257 -288Q248 -291 243 -284Q237 -276 232 -271Q225 -267 220 -260Q215 -253 210 -247Q205 -246 195 -234Q184 -227 169 -211Q148 -190 136 -184Q124 -177 112 -170Q103 -166 93 -163Q88 -164 89 -169Q90 -174 93 -177Q107 -193 125 -225Q132 -237 171 -288Q190 -326 233 -369Q238 -375 247 -381Q256 -388 253 -397Q241 -398 232 -387Q229 -384 220 -383Q214 -382 210 -379Q201 -376 193 -374Q186 -365 169 -367Q166 -371 156 -371Q150 -371 147 -373Q132 -372 114 -379Q94 -391 95 -400Q102 -405 114 -404Q122 -405 133 -412Q145 -420 152 -421Q179 -435 227 -453Q261 -466 294 -480Q302 -485 321 -489ZM784 -241Q775 -242 767 -240Q752 -238 738 -234Q724 -233 712 -229Q694 -223 676 -218Q669 -220 654 -212Q646 -209 608 -212Q604 -211 596 -213Q586 -216 582 -212Q574 -198 571 -181Q567 -170 565 -157Q566 -154 563 -127Q560 -114 566 -102Q567 -100 568 -85Q569 -74 578 -73Q623 -84 632 -84Q659 -89 664 -89Q680 -95 689 -91Q702 -91 712 -98Q713 -103 722 -110Q728 -115 730 -119Q742 -131 750 -144Q753 -152 761 -168Q771 -183 776 -199Q782 -214 788 -229Q792 -233 791 -238Q789 -243 784 -241Z"/>
</svg>