<svg xmlns="http://www.w3.org/2000/svg" viewBox="0 -800 1024 1024">
	<path fill="#000000" d="M489 -727Q497 -725 501 -727Q506 -726 518 -726Q535 -726 542 -722Q558 -724 568 -721Q594 -719 616 -710Q622 -707 629 -704Q637 -702 641 -696Q638 -690 641 -687Q644 -685 646 -689Q652 -686 657 -684Q663 -683 664 -677Q663 -673 665 -667Q668 -659 663 -658Q662 -661 660 -660Q656 -658 652 -658Q651 -662 646 -661Q642 -660 642 -657Q632 -654 622 -659Q608 -661 598 -670Q591 -667 584 -672Q563 -683 560 -683Q557 -684 554 -686L543 -693Q540 -694 537 -696Q531 -700 527 -702L509 -712Q505 -714 499 -718Q497 -721 494 -722Q489 -724 489 -727ZM183 -573Q189 -569 195 -566Q202 -562 206 -556Q220 -546 204 -532Q203 -528 200 -525Q196 -523 193 -520Q186 -505 176 -493Q175 -491 170 -486Q164 -481 165 -477Q176 -472 203 -484Q208 -485 215 -490Q224 -497 228 -497Q245 -507 260 -506Q269 -511 290 -507Q292 -504 297 -502Q303 -500 305 -497Q305 -493 310 -487Q315 -480 314 -476Q315 -463 320 -455L342 -485Q353 -505 376 -524Q377 -525 417 -556Q421 -563 426 -564Q428 -563 428 -559Q424 -539 419 -533Q417 -511 400 -502Q399 -491 389 -481Q384 -477 379 -466Q374 -455 368 -451Q359 -428 357 -424Q355 -420 352 -414Q349 -407 354 -404Q430 -441 439 -444Q475 -461 484 -463Q490 -466 510 -473Q521 -478 600 -506Q611 -508 622 -510Q636 -512 649 -520L701 -531Q705 -529 714 -532Q721 -534 724 -533Q734 -539 744 -537Q751 -536 759 -539Q763 -533 767 -536Q770 -539 774 -541Q825 -539 836 -536Q836 -532 839 -532Q841 -531 843 -531Q848 -527 854 -530Q863 -528 870 -524Q885 -520 898 -507Q910 -501 913 -488Q915 -475 921 -463Q922 -455 922 -448Q922 -444 918 -445Q914 -445 911 -445Q908 -444 909 -440Q906 -430 893 -412Q889 -412 886 -406Q883 -402 880 -402L865 -387Q863 -388 857 -385Q852 -382 849 -384Q845 -387 839 -381Q834 -375 830 -375Q830 -365 823 -367Q815 -359 808 -356Q803 -354 797 -349Q792 -345 785 -349Q783 -348 779 -343Q775 -338 770 -337Q766 -339 761 -334Q757 -330 755 -330Q748 -328 740 -326L720 -320Q713 -317 707 -318Q700 -320 693 -323Q686 -326 679 -322Q675 -327 678 -331Q681 -335 687 -335Q696 -339 705 -343Q731 -350 779 -381Q787 -383 791 -396Q794 -397 801 -404Q809 -412 816 -413Q819 -422 824 -428Q840 -454 840 -455Q845 -467 845 -471Q846 -481 837 -482Q828 -484 819 -487Q815 -486 810 -489Q805 -493 802 -488Q790 -489 777 -490Q771 -494 760 -490Q749 -486 744 -488Q735 -486 726 -484Q717 -484 708 -484Q698 -481 687 -479Q667 -474 646 -468Q625 -464 603 -461Q589 -456 574 -451Q569 -451 557 -447Q546 -443 538 -444Q533 -440 517 -436Q513 -437 507 -433Q502 -429 500 -429Q494 -432 489 -424Q466 -417 443 -407Q438 -408 432 -403Q428 -399 426 -399Q412 -390 398 -385Q388 -377 378 -373Q378 -364 362 -364Q352 -362 350 -375Q345 -381 339 -369Q324 -375 318 -386Q316 -390 313 -389Q309 -389 310 -384Q303 -368 310 -349Q308 -339 306 -332Q306 -321 303 -310Q299 -306 300 -294Q301 -286 299 -282Q304 -269 299 -251Q299 -236 301 -222Q303 -211 293 -206Q294 -201 288 -200Q281 -198 277 -203Q277 -202 276 -202Q275 -204 269 -203Q251 -210 232 -217Q228 -215 219 -216Q209 -217 205 -213Q183 -211 160 -210Q145 -219 127 -227Q121 -227 120 -234Q119 -241 115 -245Q110 -259 114 -267Q125 -309 125 -317Q128 -333 131 -349Q137 -376 134 -403Q137 -426 109 -444Q98 -469 119 -486Q133 -509 167 -545Q179 -553 183 -573ZM250 -478Q248 -478 228 -473Q220 -467 199 -463Q194 -458 177 -463Q165 -463 158 -471Q149 -465 140 -459Q134 -454 138 -448Q141 -443 147 -441Q159 -439 163 -428Q167 -418 169 -408Q171 -398 172 -389Q170 -380 172 -376Q172 -369 174 -363Q176 -360 180 -364Q188 -367 196 -370Q208 -370 220 -372Q232 -374 243 -369Q242 -364 245 -363Q249 -362 253 -361Q255 -358 256 -359Q257 -364 260 -368Q263 -380 263 -395Q264 -411 265 -428Q265 -443 265 -459Q258 -481 250 -478ZM172 -347Q170 -339 168 -332Q171 -322 168 -311Q166 -295 163 -280Q162 -269 159 -262Q158 -254 158 -248Q158 -240 167 -240Q174 -241 181 -240Q188 -239 193 -243Q221 -249 237 -249Q247 -247 248 -259Q247 -266 251 -277Q255 -291 255 -297Q258 -311 257 -327Q256 -332 255 -340Q255 -347 247 -347Q246 -340 232 -340Q223 -338 217 -339Q204 -341 191 -343Q182 -345 172 -347ZM496 -340L499 -338Q509 -336 542 -338Q562 -343 594 -337Q595 -333 600 -333Q610 -333 616 -323Q622 -313 620 -303Q605 -298 601 -300Q574 -300 546 -301Q537 -304 528 -308Q521 -308 514 -314Q508 -320 501 -324Q498 -328 494 -332Q491 -337 496 -340ZM654 -281L672 -280Q676 -281 680 -277Q683 -274 687 -275Q691 -283 708 -279Q713 -271 718 -263Q719 -258 722 -261Q728 -266 728 -262Q733 -249 719 -245Q704 -240 685 -238Q682 -235 677 -235Q671 -235 669 -232Q662 -233 662 -227Q662 -221 667 -219Q676 -218 678 -211Q682 -200 679 -187Q679 -180 670 -173Q668 -160 665 -148Q665 -139 655 -130Q656 -123 652 -108Q652 -104 647 -101Q642 -98 642 -94Q646 -84 643 -72Q644 -64 644 -56Q643 -42 650 -29Q673 -20 697 -18Q735 -14 756 -15Q806 -18 807 -18Q826 -20 841 -15Q843 -20 848 -19Q852 -19 857 -20Q864 -22 873 -23Q891 -24 897 -28Q905 -44 908 -59Q912 -62 911 -66Q912 -66 913 -65Q910 -62 914 -57Q918 -51 917 -48Q923 -45 923 -38Q923 -31 925 -26Q925 -22 930 -18Q936 -13 934 -7Q931 -4 936 0Q941 6 936 6Q928 3 926 13Q926 16 927 16Q930 15 931 14Q935 17 933 19Q929 21 925 22Q923 28 919 30Q913 33 909 28Q908 28 907 27Q907 20 903 21Q901 38 886 35Q880 29 879 35Q877 35 875 35L867 36Q865 36 863 36Q849 36 834 35Q820 37 819 37Q809 36 800 38Q799 35 795 37Q791 39 789 37Q789 33 785 30Q782 29 781 34Q784 38 781 40Q775 41 768 39Q762 40 756 40Q750 38 730 38Q729 37 714 35Q708 35 702 34Q699 37 693 32Q688 27 685 31Q674 34 660 22Q662 18 659 16Q658 16 652 14Q646 17 644 13Q642 10 639 5Q636 7 633 4Q629 0 626 1Q625 -1 620 -5Q613 -10 612 -15Q605 -19 603 -25Q600 -31 596 -36Q602 -44 594 -52Q595 -91 616 -150Q622 -156 626 -171Q631 -186 636 -192Q642 -204 644 -217Q638 -225 629 -222Q620 -218 613 -220Q604 -213 600 -212Q593 -211 594 -207Q596 -203 601 -201Q605 -189 600 -181Q594 -185 590 -176Q586 -176 582 -171Q578 -167 576 -169Q573 -167 575 -163Q577 -158 574 -157Q575 -152 570 -151Q564 -150 565 -145Q558 -132 545 -123Q538 -107 521 -96Q518 -86 508 -80Q506 -79 500 -72Q494 -65 488 -63Q473 -69 472 -69Q472 -82 468 -94Q466 -103 471 -108Q477 -113 479 -119Q491 -137 498 -141Q501 -149 511 -157Q522 -166 525 -171Q545 -188 546 -191Q553 -195 549 -200Q544 -204 539 -200Q526 -194 488 -185Q477 -186 465 -183Q440 -180 419 -184Q411 -183 401 -193Q393 -201 387 -202Q383 -203 384 -207Q386 -211 390 -208Q427 -213 460 -222Q511 -236 561 -251Q576 -258 601 -263Q614 -268 628 -270Q642 -273 654 -281Z"/>
</svg>