<svg xmlns="http://www.w3.org/2000/svg" viewBox="0 -800 1024 1024">
	<path fill="#000000" d="M558 -676L564 -675Q584 -665 598 -663Q608 -658 614 -649Q613 -643 618 -636Q624 -632 619 -622Q615 -614 617 -609Q609 -589 600 -570Q593 -555 586 -541Q577 -527 571 -510Q567 -505 572 -502Q576 -499 580 -504Q604 -514 627 -524Q631 -523 637 -529Q644 -535 648 -535Q654 -543 660 -537Q665 -533 671 -536Q677 -539 682 -541Q688 -541 694 -542Q701 -542 706 -537Q707 -531 719 -527Q723 -523 720 -519Q716 -515 714 -511Q714 -501 707 -498Q698 -500 695 -490Q693 -486 686 -488Q682 -489 680 -488Q668 -481 655 -475Q648 -468 638 -468Q632 -469 625 -464Q618 -459 614 -457Q596 -451 589 -446Q574 -440 569 -430Q566 -427 564 -430Q563 -435 564 -440Q568 -448 569 -457Q550 -465 542 -461Q530 -462 523 -471Q516 -481 511 -490Q496 -508 510 -522Q514 -536 518 -551Q533 -583 548 -615Q551 -636 560 -648Q561 -654 556 -656Q551 -659 546 -657Q542 -672 558 -676ZM343 -670Q348 -664 348 -655Q347 -652 351 -648Q356 -643 354 -639Q352 -630 353 -622Q353 -619 349 -616Q346 -614 345 -611Q345 -597 335 -586Q324 -581 320 -560Q315 -557 312 -548Q309 -540 305 -537Q292 -526 284 -514Q280 -507 267 -493Q252 -477 248 -467Q242 -463 235 -451Q230 -442 225 -438Q224 -433 228 -432Q234 -432 239 -430Q251 -429 261 -421Q272 -413 282 -406Q289 -404 297 -390Q305 -385 302 -375Q296 -371 300 -360Q295 -345 290 -331Q288 -320 282 -310Q277 -305 267 -288Q262 -285 257 -276Q253 -270 249 -266Q239 -261 245 -251Q248 -250 263 -237Q271 -232 274 -221Q278 -186 267 -150Q266 -146 268 -144Q270 -142 273 -146Q289 -177 309 -201Q317 -218 327 -234Q329 -238 333 -237Q337 -236 339 -232Q353 -223 347 -206Q344 -200 342 -191Q343 -181 334 -174Q329 -173 329 -156Q330 -151 327 -148Q323 -145 320 -142Q311 -138 313 -125Q314 -122 309 -116Q306 -112 305 -108Q293 -95 289 -85Q280 -79 276 -68Q270 -57 263 -46Q258 -40 254 -32Q251 -24 243 -21L226 -33Q219 -35 211 -46Q205 -54 202 -56Q192 -63 192 -76Q192 -88 201 -97Q211 -125 221 -153Q220 -158 225 -176Q231 -192 236 -208Q242 -227 230 -232Q225 -235 201 -232Q189 -243 180 -259Q169 -278 173 -286Q172 -298 184 -307Q186 -315 201 -328Q220 -359 234 -392Q232 -399 227 -399Q221 -398 216 -397Q207 -396 197 -396Q188 -388 175 -388L158 -413Q145 -429 143 -447Q139 -454 143 -458Q148 -463 152 -467Q157 -482 168 -486Q179 -503 210 -542Q211 -547 220 -554Q226 -559 229 -564Q232 -566 237 -575Q242 -584 248 -586Q254 -586 258 -592Q265 -601 266 -602Q270 -614 289 -625Q297 -637 319 -653Q322 -654 329 -661Q336 -668 343 -670ZM613 -398Q623 -397 633 -396Q637 -400 645 -396Q651 -393 654 -393Q661 -394 664 -389Q667 -384 672 -379Q676 -378 680 -369Q680 -361 680 -354Q679 -348 674 -345Q668 -342 664 -339Q653 -317 633 -291Q625 -284 616 -268Q609 -255 605 -250Q601 -248 599 -240Q597 -233 594 -230Q590 -206 581 -184Q579 -171 579 -156Q585 -130 591 -121Q596 -112 618 -94Q638 -85 657 -77Q672 -73 687 -70Q706 -67 738 -67Q776 -67 790 -65Q820 -69 853 -68Q859 -71 884 -73Q891 -75 891 -82Q891 -88 893 -94Q892 -99 899 -101Q907 -103 908 -106V-139Q908 -153 910 -158Q911 -149 917 -140Q918 -129 923 -118Q926 -108 932 -96Q944 -72 951 -72Q958 -72 964 -72Q970 -73 977 -75Q984 -77 988 -70Q993 -64 993 -54Q990 -40 988 -37Q984 -31 974 -27Q966 -24 963 -21Q954 -8 942 -15Q929 -15 918 -11Q881 -9 843 -7Q810 -6 777 -5Q748 -6 719 -7Q709 -7 717 -11Q715 -13 700 -13Q675 -13 667 -20Q653 -20 639 -27Q610 -36 585 -53Q526 -99 522 -147Q517 -165 521 -200Q527 -229 538 -240Q554 -273 569 -307Q574 -312 574 -319Q574 -323 569 -322Q552 -316 534 -310Q488 -300 481 -299Q466 -299 453 -297Q438 -299 422 -301Q409 -304 396 -304Q406 -311 430 -319Q447 -328 465 -335Q497 -348 528 -361Q554 -374 580 -387Q595 -390 613 -398Z"/>
</svg>