<svg xmlns="http://www.w3.org/2000/svg" viewBox="0 -800 1024 1024">
	<path fill="#000000" d="M462 -720H474Q477 -716 485 -717Q494 -718 497 -713L528 -712Q540 -706 543 -705Q552 -702 560 -699Q565 -700 569 -693Q573 -686 578 -686Q589 -681 588 -669Q589 -666 582 -660Q575 -660 577 -648Q586 -642 574 -630Q573 -625 578 -624Q582 -623 586 -626Q588 -632 596 -632Q605 -630 614 -628Q618 -630 625 -627Q633 -624 637 -625Q650 -628 665 -628Q670 -627 670 -617Q669 -606 676 -603Q682 -603 682 -597Q681 -592 678 -588Q676 -575 664 -572Q646 -566 626 -568Q604 -567 584 -564Q561 -562 537 -560Q532 -557 523 -557Q512 -557 509 -555Q485 -553 472 -553Q456 -549 439 -548Q429 -546 418 -545Q402 -546 389 -542Q378 -542 367 -542Q361 -541 361 -535Q362 -529 360 -525Q351 -515 355 -497Q354 -482 352 -467Q343 -451 348 -433Q350 -424 349 -413Q348 -404 346 -395Q341 -382 342 -367Q339 -361 339 -346Q330 -323 331 -296Q328 -292 326 -285Q324 -276 320 -272Q317 -266 313 -262Q308 -257 308 -249Q300 -233 299 -214Q293 -210 292 -203Q291 -196 289 -190Q289 -169 277 -147Q271 -141 269 -128Q267 -120 265 -112Q255 -100 251 -84Q242 -77 240 -65Q235 -49 229 -34Q208 -11 201 14Q202 21 197 26Q192 30 188 35Q183 42 178 37Q176 34 170 34Q167 34 165 32Q161 18 153 16Q140 1 145 -7Q149 -11 147 -15Q146 -19 146 -24Q152 -29 169 -57Q186 -87 202 -118Q211 -138 216 -159Q221 -169 225 -180Q218 -182 213 -177Q207 -172 202 -168Q195 -163 189 -156Q183 -148 175 -154Q166 -154 161 -161Q156 -168 150 -173Q148 -177 142 -183Q135 -190 134 -194Q129 -208 138 -219Q163 -248 172 -264Q179 -273 193 -310Q200 -328 203 -346Q202 -351 208 -356Q213 -360 213 -363Q194 -375 174 -384Q169 -385 168 -389Q167 -392 171 -393Q192 -395 213 -400Q228 -403 245 -401Q254 -404 270 -399Q274 -400 280 -394Q286 -388 290 -388Q294 -396 295 -408Q296 -411 296 -416L299 -431Q300 -434 300 -438Q302 -450 304 -455Q306 -469 307 -484Q310 -514 312 -545Q314 -550 308 -562Q315 -566 323 -567Q331 -575 338 -571Q346 -565 356 -575Q366 -576 376 -580Q386 -582 395 -584Q403 -583 419 -589Q431 -593 445 -592Q453 -597 463 -596Q470 -601 482 -600Q492 -604 503 -607Q527 -614 553 -618Q558 -617 563 -621Q569 -626 565 -630Q545 -634 527 -639Q506 -647 484 -655Q463 -667 442 -678Q421 -689 403 -704Q398 -705 395 -708Q392 -711 396 -714Q405 -713 421 -715Q442 -717 462 -720ZM690 -494Q692 -494 712 -491Q725 -487 749 -485Q754 -483 767 -483Q776 -477 785 -472Q786 -463 786 -455Q792 -444 784 -436Q776 -428 767 -432Q755 -427 745 -431Q735 -435 726 -438Q724 -439 703 -448Q692 -452 677 -461Q670 -466 660 -470Q649 -473 648 -485Q656 -491 667 -491Q678 -492 690 -494ZM552 -443Q560 -445 572 -441Q585 -437 591 -438Q603 -432 611 -425Q622 -408 612 -389Q609 -384 613 -382Q618 -380 622 -383Q625 -383 645 -388Q667 -389 688 -391Q710 -391 717 -388Q720 -385 727 -386Q735 -388 738 -383Q737 -379 740 -372Q743 -364 741 -358Q730 -346 714 -346Q698 -345 684 -342Q668 -342 654 -337Q649 -338 643 -335Q635 -332 631 -333Q620 -336 614 -325Q605 -322 600 -316Q595 -309 591 -301Q588 -290 584 -280Q573 -267 564 -251Q553 -241 549 -228Q547 -222 538 -215Q527 -206 526 -198Q515 -184 480 -130Q467 -118 458 -103Q447 -88 435 -73Q429 -70 424 -60Q420 -50 415 -48Q408 -49 404 -45Q399 -41 394 -39Q383 -37 383 -48Q384 -53 382 -60Q379 -70 382 -74Q385 -77 381 -85Q378 -91 380 -94Q394 -101 408 -112Q417 -125 426 -139Q424 -146 429 -150Q433 -154 438 -157Q449 -181 466 -202Q469 -208 477 -219Q487 -233 490 -241Q501 -257 508 -273Q509 -278 515 -286L524 -298Q527 -301 525 -305Q522 -309 518 -307Q506 -297 490 -295Q477 -282 468 -290Q452 -293 435 -296Q428 -298 423 -297Q406 -302 393 -311Q389 -311 384 -314Q382 -317 385 -319Q398 -319 410 -324Q429 -329 447 -334Q451 -334 483 -342Q510 -351 536 -360Q549 -364 549 -389Q549 -421 521 -432Q518 -435 520 -437Q522 -439 525 -439Q538 -436 552 -443ZM273 -361Q267 -360 263 -357Q259 -355 250 -359Q243 -362 239 -361Q220 -346 206 -307Q204 -296 198 -286Q198 -281 194 -273Q189 -261 190 -254Q187 -237 196 -237Q223 -255 249 -273Q262 -285 266 -301Q271 -316 277 -331Q277 -350 278 -352Q280 -355 278 -359Q276 -363 273 -361ZM632 -298H637Q657 -300 663 -280Q663 -269 655 -259Q651 -251 643 -244Q633 -219 631 -215Q628 -203 621 -193Q615 -187 612 -172Q610 -161 608 -157Q608 -150 604 -139Q599 -123 600 -113Q595 -91 603 -69Q602 -54 615 -39Q626 -27 642 -19Q670 -10 726 -10Q740 -13 756 -13Q773 -14 789 -16Q804 -18 821 -17Q833 -21 848 -20Q854 -21 855 -28Q855 -34 857 -39Q858 -53 864 -79Q862 -95 869 -107Q873 -95 874 -81Q878 -65 882 -56Q893 -45 903 -32Q907 -30 911 -20Q915 -11 921 -8Q926 -7 925 0Q924 6 926 9Q929 14 925 19Q921 23 917 27Q890 28 862 29Q837 29 812 29Q806 27 797 31Q789 35 785 33Q757 34 729 35Q712 32 650 27Q649 24 641 21Q612 17 591 0Q581 -10 570 -19Q560 -29 554 -41Q545 -55 543 -79Q542 -90 542 -120Q542 -134 544 -139Q542 -156 557 -179Q559 -192 574 -218Q590 -246 608 -272Q612 -275 619 -285Q626 -294 632 -298Z"/>
</svg>