<svg xmlns="http://www.w3.org/2000/svg" viewBox="0 -800 1024 1024">
	<path fill="#000000" d="M258 -618Q263 -619 271 -616Q285 -613 301 -611Q321 -613 327 -595Q332 -581 329 -564Q331 -540 334 -529Q330 -520 340 -515Q345 -519 355 -517Q366 -514 371 -518Q377 -519 385 -515Q397 -510 403 -511Q417 -510 431 -500Q452 -494 447 -473Q443 -472 441 -466Q438 -459 435 -458Q424 -461 417 -456Q398 -452 382 -446Q376 -447 356 -442Q343 -445 338 -434Q328 -414 325 -394Q320 -380 321 -364Q313 -342 310 -317Q307 -309 303 -300Q299 -292 303 -282Q317 -275 335 -272Q341 -267 349 -266Q357 -265 365 -263L399 -242Q404 -232 418 -223Q425 -219 432 -199Q435 -197 435 -189Q434 -181 438 -177Q445 -171 442 -161Q438 -152 428 -152Q397 -149 374 -175Q367 -179 352 -202Q332 -227 308 -246Q293 -251 290 -251Q284 -251 280 -246Q270 -224 266 -220Q259 -218 257 -206Q255 -198 252 -194Q246 -185 240 -177Q241 -167 228 -163Q226 -160 219 -158Q211 -156 209 -151Q203 -141 197 -139Q182 -136 170 -130Q169 -137 180 -146Q192 -162 201 -179Q205 -186 223 -235Q230 -245 235 -270Q239 -290 244 -300Q246 -311 252 -339Q256 -348 255 -365Q254 -380 256 -386Q253 -392 256 -397Q259 -402 260 -406Q267 -418 262 -429Q247 -425 246 -414Q231 -397 221 -378Q210 -359 198 -341Q182 -314 180 -304Q179 -286 177 -269Q167 -267 156 -266L130 -287Q128 -293 118 -301Q106 -312 107 -321Q107 -345 113 -358Q118 -376 122 -394Q123 -403 124 -412Q125 -421 131 -427Q132 -440 143 -464Q151 -483 144 -493Q147 -498 152 -498Q154 -498 172 -489Q178 -489 181 -484Q184 -479 187 -475Q197 -438 189 -424Q184 -417 184 -405Q183 -391 177 -378Q177 -374 179 -374Q183 -375 188 -379Q201 -398 221 -413Q225 -417 229 -421L243 -437Q247 -441 251 -445Q265 -459 278 -473Q277 -499 275 -526Q273 -540 269 -564Q267 -576 258 -583Q249 -590 243 -597Q237 -601 237 -609Q237 -615 244 -614Q251 -616 258 -618ZM823 -558Q831 -558 832 -557Q836 -558 855 -553Q864 -557 872 -554Q890 -556 892 -545Q892 -536 898 -527Q883 -521 890 -510Q890 -503 884 -503Q878 -502 873 -503Q856 -501 839 -499Q828 -497 817 -495Q806 -493 794 -491Q784 -487 773 -484Q762 -482 751 -480Q722 -474 705 -473Q701 -472 702 -470Q705 -468 709 -465Q737 -458 740 -441Q747 -429 748 -412Q751 -405 753 -398Q748 -385 755 -373Q755 -359 755 -346Q758 -338 758 -319Q760 -316 758 -310Q756 -302 758 -299Q759 -281 762 -261Q764 -256 761 -248Q758 -240 759 -235Q762 -226 762 -209Q761 -190 764 -183Q761 -166 764 -147Q764 -132 759 -118Q759 -103 758 -89Q756 -79 754 -69Q750 -64 748 -49Q746 -39 744 -33Q732 -20 728 -10Q727 -5 720 -3Q714 -1 713 2Q709 10 704 8Q700 6 693 9Q688 11 686 11Q673 3 670 -6Q661 -22 648 -35Q646 -44 639 -48Q632 -52 626 -56Q629 -62 636 -60Q642 -59 648 -58Q681 -73 688 -91Q691 -109 694 -127Q697 -149 699 -172Q698 -187 700 -197Q699 -204 696 -210Q693 -216 697 -222Q697 -281 696 -340Q696 -389 686 -419Q686 -427 679 -434Q678 -435 666 -444Q661 -446 656 -455Q650 -467 641 -465Q612 -456 586 -442Q581 -442 573 -437Q564 -431 558 -434Q551 -440 534 -442Q527 -446 520 -443Q513 -439 506 -437Q501 -436 496 -438Q495 -439 496 -441Q503 -445 517 -459Q529 -470 537 -476Q562 -493 587 -503Q607 -512 635 -519Q644 -521 652 -523Q698 -539 752 -546Q755 -548 772 -550Q778 -549 786 -553Q795 -557 800 -556Q810 -550 823 -558ZM338 -508Q333 -504 334 -495Q333 -489 339 -489Q345 -489 346 -495Q348 -499 345 -505Q342 -511 338 -508Z"/>
</svg>