<svg xmlns="http://www.w3.org/2000/svg" viewBox="0 -800 1024 1024">
	<path fill="#000000" d="M483 -698Q489 -700 493 -696Q505 -699 516 -694Q519 -695 527 -693Q533 -691 537 -692Q547 -691 557 -690Q570 -682 588 -682Q598 -680 608 -678Q621 -671 634 -665Q640 -666 645 -659Q649 -653 652 -652Q657 -653 658 -647Q659 -641 654 -640Q648 -634 628 -625Q612 -629 604 -629Q580 -640 555 -651Q540 -653 529 -662Q508 -671 490 -685Q478 -689 483 -698ZM767 -570H777Q779 -569 785 -570Q792 -571 795 -569Q800 -570 827 -565Q833 -568 847 -559Q851 -560 859 -556Q866 -552 872 -553Q900 -540 904 -520Q911 -511 907 -501Q907 -486 897 -476Q887 -466 879 -454Q869 -449 862 -442Q858 -443 854 -437Q850 -431 848 -430Q837 -424 827 -416Q825 -408 812 -402Q805 -403 792 -390Q790 -387 781 -384Q773 -382 771 -377Q765 -374 766 -369Q767 -364 773 -362Q786 -362 798 -354Q810 -345 816 -321Q812 -309 808 -297Q801 -288 794 -270Q786 -264 777 -241Q770 -232 749 -226Q747 -221 743 -216Q739 -210 733 -212Q729 -216 723 -210Q719 -205 716 -208Q711 -216 696 -225Q681 -234 677 -241Q673 -247 669 -244Q664 -241 664 -235Q655 -215 646 -196Q640 -180 635 -161Q631 -135 631 -119Q632 -117 631 -110Q630 -103 633 -99Q636 -96 637 -89Q638 -80 643 -77Q648 -69 657 -67Q665 -65 673 -62Q684 -59 695 -56Q699 -57 705 -54Q713 -51 717 -52Q737 -49 780 -49Q794 -50 807 -49Q817 -50 826 -51Q832 -50 885 -53Q893 -59 896 -68Q899 -77 903 -85Q904 -89 904 -94Q904 -99 909 -100Q915 -91 921 -83Q925 -81 928 -73Q928 -65 931 -57Q934 -50 947 -42Q953 -43 955 -37Q956 -32 957 -27Q957 -21 957 -15Q955 -8 949 -9Q942 -10 938 -9Q925 -12 908 -10Q896 -10 884 -10Q870 -11 799 -11Q784 -11 782 -10Q762 -12 722 -12Q718 -12 714 -13Q711 -13 711 -17Q707 -19 695 -19Q681 -19 676 -24Q666 -26 643 -37Q633 -41 624 -49Q616 -57 607 -63Q596 -76 590 -102Q585 -119 585 -132Q585 -145 584 -158Q582 -171 588 -182Q592 -188 593 -195Q591 -203 600 -218Q603 -227 611 -243Q616 -256 617 -269Q625 -283 626 -291Q632 -298 639 -320Q642 -325 645 -331Q647 -337 654 -336Q661 -333 671 -340Q679 -346 683 -346Q703 -357 723 -368Q728 -370 736 -379Q745 -388 751 -390Q757 -398 760 -401L778 -425Q781 -428 787 -436Q790 -441 806 -465Q817 -485 828 -505Q832 -511 826 -516Q820 -521 815 -517Q799 -521 782 -520Q778 -519 767 -520Q757 -521 752 -519Q744 -519 737 -516Q727 -517 698 -512Q689 -510 667 -508Q633 -500 616 -500Q598 -496 581 -490Q569 -485 555 -484Q540 -482 520 -469Q512 -470 499 -461Q489 -455 478 -450Q450 -438 439 -427Q433 -424 428 -415Q424 -407 422 -405Q413 -401 415 -393Q416 -385 413 -378Q410 -373 405 -374Q400 -375 397 -380Q386 -385 382 -399Q367 -416 359 -429Q352 -443 354 -467Q357 -487 367 -498Q379 -527 409 -553Q421 -563 426 -561Q426 -556 433 -551Q442 -545 439 -538Q439 -524 437 -517Q432 -510 430 -499Q430 -497 426 -491Q421 -484 424 -479Q427 -474 431 -477Q436 -480 440 -482Q498 -510 529 -519Q593 -544 651 -553Q653 -554 698 -562Q721 -567 745 -568Q756 -569 767 -570ZM207 -556H217Q247 -546 254 -539Q254 -536 259 -527Q265 -517 263 -510Q260 -505 263 -495Q265 -488 265 -484Q264 -469 262 -454Q259 -450 257 -429Q257 -413 257 -398Q253 -387 265 -383Q271 -382 271 -378Q272 -372 271 -366Q267 -355 265 -343Q267 -330 265 -315Q257 -295 248 -275Q248 -270 245 -266Q242 -261 247 -257Q262 -258 278 -282Q287 -291 292 -301Q293 -312 302 -321Q305 -327 306 -333Q308 -339 315 -341Q321 -341 322 -337Q323 -334 320 -329Q315 -322 313 -304Q309 -298 312 -288Q312 -278 305 -269Q302 -267 301 -259Q301 -252 296 -249Q288 -239 275 -231Q260 -223 248 -209Q223 -195 202 -178Q187 -168 177 -155Q172 -155 164 -150Q158 -146 154 -146Q135 -165 120 -185Q116 -190 111 -195Q105 -200 111 -205Q114 -209 115 -215Q115 -220 124 -220Q139 -213 147 -221Q161 -231 166 -245Q165 -251 170 -256Q174 -260 176 -265Q180 -269 176 -277Q172 -285 176 -288Q179 -293 181 -298Q181 -304 184 -316Q187 -327 186 -335Q185 -342 187 -348Q189 -354 181 -357Q172 -360 157 -356Q145 -353 140 -353Q114 -353 109 -361Q103 -365 106 -368Q112 -371 119 -373Q128 -379 160 -388Q172 -393 187 -396Q201 -399 204 -412Q206 -421 208 -430Q210 -474 204 -513Q198 -520 191 -518Q183 -517 177 -516Q157 -516 145 -520Q140 -524 128 -527Q113 -530 111 -537Q124 -540 137 -543Q159 -553 176 -551Q182 -556 190 -555Q199 -555 207 -556ZM467 -372Q492 -369 499 -367Q512 -356 510 -345Q511 -336 525 -341Q535 -344 548 -344Q580 -342 591 -336Q596 -335 604 -328Q609 -323 613 -321Q614 -321 619 -310Q617 -305 617 -300Q617 -294 612 -290Q606 -288 606 -282Q606 -277 605 -271Q598 -260 591 -250Q588 -240 575 -228Q564 -217 561 -213Q554 -194 539 -182Q529 -167 478 -119Q471 -117 464 -109Q456 -101 452 -99Q450 -96 443 -94Q435 -92 433 -87Q420 -77 406 -73Q383 -65 377 -67Q373 -67 373 -71Q373 -75 377 -75Q386 -75 396 -87L428 -117Q471 -167 484 -185Q488 -190 485 -195Q483 -200 477 -196Q469 -199 460 -203Q415 -222 410 -223Q406 -227 394 -227Q386 -227 383 -229Q369 -237 358 -247Q354 -254 360 -258Q365 -262 369 -265Q373 -271 372 -280Q372 -285 378 -284Q386 -281 389 -284Q400 -296 407 -310Q407 -314 411 -315Q414 -315 417 -317Q422 -323 418 -328Q414 -333 411 -337Q413 -339 431 -344Q446 -353 452 -362Q453 -370 467 -372ZM744 -322Q723 -317 721 -315Q707 -313 695 -308Q691 -307 686 -310Q680 -313 677 -310Q679 -290 673 -278Q669 -260 688 -256Q703 -252 717 -248Q728 -249 731 -259Q734 -268 738 -276Q747 -293 751 -310Q753 -314 751 -319Q748 -325 744 -322ZM537 -309Q526 -311 520 -307Q508 -297 490 -303Q483 -304 477 -306Q471 -308 466 -303Q462 -295 458 -287Q448 -279 440 -269Q433 -264 427 -259Q422 -254 427 -250Q432 -247 438 -248Q456 -244 474 -239Q492 -235 507 -222Q514 -223 518 -229Q521 -235 525 -240Q539 -269 549 -298Q550 -304 546 -308Q542 -312 537 -309Z"/>
</svg>