<svg xmlns="http://www.w3.org/2000/svg" viewBox="0 -800 1024 1024">
	<path fill="#000000" d="M568 -744Q577 -740 578 -737Q587 -736 597 -738Q606 -740 613 -735Q618 -733 625 -734Q631 -735 631 -728Q633 -723 640 -715Q651 -703 650 -694Q644 -685 647 -674Q646 -657 644 -640Q635 -634 652 -631Q664 -638 684 -632Q690 -634 695 -632Q698 -630 697 -629Q694 -628 692 -625Q692 -624 694 -622Q703 -619 708 -614Q710 -605 717 -598Q713 -597 709 -593Q709 -585 704 -585Q698 -584 694 -583Q686 -582 677 -581Q675 -576 668 -581Q662 -573 653 -576Q651 -575 649 -575L646 -573Q644 -572 642 -572Q635 -574 629 -561Q629 -546 625 -534Q618 -522 611 -510Q607 -502 609 -495Q623 -500 636 -500Q651 -504 666 -508Q676 -505 684 -512Q702 -514 719 -516Q742 -521 764 -525Q773 -524 781 -523Q787 -528 794 -525Q798 -527 804 -527Q810 -527 812 -529Q817 -530 824 -525Q826 -525 830 -522Q835 -518 838 -519Q865 -511 869 -508Q884 -498 888 -493Q883 -483 897 -469Q900 -468 900 -463Q901 -457 905 -456Q908 -453 908 -445Q907 -443 904 -445Q901 -443 898 -447Q895 -448 893 -443Q894 -440 890 -437Q886 -434 886 -432Q885 -436 880 -434Q876 -432 877 -428Q872 -423 872 -420Q868 -418 866 -411Q863 -402 858 -403L842 -388Q834 -389 831 -383Q828 -377 823 -373Q813 -372 809 -368Q808 -365 803 -363Q798 -361 797 -359Q791 -355 785 -355Q783 -357 780 -357Q776 -358 776 -353Q771 -350 767 -346Q763 -342 757 -344Q751 -337 738 -339Q737 -341 732 -341Q727 -341 725 -344Q711 -337 707 -339Q706 -343 702 -342Q698 -341 698 -344Q707 -346 698 -358Q696 -360 697 -361Q703 -362 707 -364Q716 -365 728 -377Q736 -385 744 -389Q745 -392 750 -392Q754 -392 756 -395Q756 -398 761 -401Q766 -404 767 -409L809 -449Q813 -454 816 -460Q820 -465 817 -468Q814 -471 810 -470Q802 -472 782 -470Q769 -468 761 -470Q759 -468 754 -468Q748 -468 746 -464Q731 -459 718 -461Q713 -458 695 -456Q680 -454 664 -453Q661 -452 658 -452L645 -449Q641 -449 639 -448Q614 -443 589 -439Q583 -441 581 -437Q578 -434 575 -431Q560 -425 544 -420Q529 -409 511 -405Q502 -402 491 -405Q486 -412 476 -418Q466 -424 464 -426Q461 -431 450 -432Q442 -433 438 -437Q436 -441 433 -447Q432 -451 436 -451Q444 -457 453 -457Q457 -455 466 -458Q477 -459 487 -461Q514 -465 544 -478Q552 -478 557 -497Q561 -501 561 -512Q561 -523 563 -527Q567 -536 569 -556Q564 -562 550 -563Q537 -564 532 -569Q508 -573 496 -576Q481 -579 477 -594Q476 -595 476 -596Q477 -596 484 -594Q502 -594 518 -599Q536 -599 550 -604Q564 -607 577 -614Q582 -637 581 -642Q583 -658 586 -674Q584 -679 587 -694Q589 -706 570 -714Q555 -720 553 -728Q551 -738 568 -744ZM259 -573L262 -570Q275 -574 287 -569Q291 -567 299 -568Q310 -570 313 -565Q322 -562 328 -548Q331 -546 331 -538Q331 -532 334 -529Q334 -522 334 -516Q331 -502 328 -489Q324 -481 319 -476Q316 -475 315 -470Q314 -465 312 -464Q315 -459 311 -441Q310 -432 308 -423Q307 -417 313 -415Q330 -418 346 -421Q349 -418 354 -420Q359 -421 362 -420Q368 -422 371 -417Q374 -412 372 -405Q375 -401 377 -395Q378 -389 385 -386Q384 -382 377 -383Q369 -384 369 -380Q362 -376 336 -373Q318 -369 299 -365Q290 -364 280 -364Q272 -361 262 -361Q235 -361 222 -364Q215 -363 215 -357Q215 -351 213 -346Q210 -327 205 -305Q201 -299 206 -297Q212 -294 217 -298Q226 -301 254 -308Q257 -310 263 -309Q272 -308 274 -312Q292 -314 299 -319Q303 -325 306 -323Q310 -322 314 -321Q328 -323 348 -325Q364 -326 374 -315Q380 -313 380 -309Q381 -305 383 -301Q392 -297 379 -289Q373 -290 369 -283Q348 -279 327 -276Q320 -275 313 -273Q308 -271 312 -265Q320 -265 321 -258Q322 -248 318 -240Q324 -235 319 -225Q316 -218 317 -214Q321 -211 318 -204Q316 -199 317 -196Q316 -170 315 -145Q311 -136 311 -114Q311 -98 309 -89Q307 -75 299 -62Q298 -55 293 -57Q288 -59 285 -64Q285 -69 277 -74Q271 -78 269 -83Q261 -90 263 -116Q267 -120 267 -132Q268 -143 271 -148Q275 -172 279 -196Q282 -199 279 -206Q277 -212 279 -214Q278 -227 280 -239Q282 -252 274 -262Q267 -270 258 -270Q243 -268 214 -276Q210 -278 204 -277Q199 -277 200 -272Q198 -264 198 -249Q197 -240 195 -232Q194 -219 191 -209Q192 -200 190 -180Q187 -177 187 -168Q187 -162 185 -159Q180 -155 180 -149Q182 -145 176 -139Q172 -134 172 -131Q171 -129 170 -122Q169 -114 165 -112Q158 -100 147 -103Q133 -109 128 -124Q105 -140 118 -154Q119 -169 129 -195Q136 -212 138 -223Q142 -242 146 -261Q149 -269 151 -278Q152 -284 153 -290Q154 -299 155 -308Q157 -318 158 -329Q161 -340 163 -351Q162 -360 160 -370Q164 -386 164 -425Q165 -436 155 -451Q145 -465 145 -474Q145 -476 143 -481Q140 -488 143 -491Q154 -484 169 -480Q183 -479 193 -470Q202 -452 211 -434Q212 -424 212 -415Q213 -406 213 -398Q212 -386 220 -394Q229 -398 240 -397Q249 -401 263 -401Q270 -402 272 -413Q274 -422 277 -429Q283 -452 283 -486Q283 -493 283 -501Q288 -540 268 -546Q254 -560 259 -573ZM639 -365Q648 -364 657 -365Q665 -366 671 -358Q679 -346 675 -335Q677 -333 676 -326Q675 -319 679 -316Q676 -308 679 -301Q680 -295 682 -287Q685 -280 679 -274Q675 -253 677 -245Q672 -242 673 -238Q674 -234 673 -229Q672 -222 670 -216Q670 -205 670 -195Q680 -193 691 -197Q705 -198 719 -203Q726 -203 733 -204Q741 -204 749 -208Q753 -206 761 -209Q769 -213 774 -210Q778 -212 785 -210Q793 -207 796 -212Q804 -212 810 -211Q826 -213 842 -210Q843 -208 848 -207Q855 -205 857 -199Q861 -197 863 -193Q864 -190 865 -183Q867 -181 865 -175Q862 -167 868 -165Q868 -157 859 -158Q859 -162 855 -161Q850 -160 848 -158Q845 -159 844 -156Q844 -154 842 -154Q833 -158 831 -152Q827 -150 824 -155Q821 -159 817 -156Q817 -153 816 -152Q812 -153 807 -153Q798 -152 789 -154Q776 -150 759 -151Q751 -156 745 -150Q740 -151 735 -149Q729 -147 726 -148Q722 -149 714 -146Q707 -143 703 -145Q695 -143 686 -142Q678 -143 667 -141Q665 -140 661 -140Q655 -140 655 -136Q650 -134 650 -130Q651 -125 651 -121Q645 -107 639 -97Q635 -93 626 -77Q619 -66 612 -55Q608 -53 606 -46Q604 -40 605 -38Q637 -35 669 -33Q680 -32 691 -31Q700 -29 708 -24L722 -25Q740 -19 759 -17Q779 -13 794 -2Q801 -4 805 1Q809 6 813 9Q816 9 820 14Q823 19 826 17Q832 17 837 30Q834 41 842 47Q847 48 844 55Q841 62 843 64Q841 63 836 66Q831 69 828 66Q824 65 818 68Q808 73 804 69Q803 66 796 64Q791 62 790 59Q786 63 781 58Q768 52 754 45Q706 25 682 17Q673 14 664 11Q648 9 635 4Q604 -7 588 -16Q583 -20 578 -17Q573 -15 569 -13Q566 -12 563 -8Q559 -3 555 -3Q554 -2 552 -1L547 2Q546 3 544 4Q542 10 536 10Q530 11 524 11Q520 16 514 15Q508 14 508 8Q499 3 512 -2Q530 -15 542 -30Q554 -42 564 -58Q576 -79 587 -101Q590 -108 596 -116Q601 -123 599 -131Q579 -128 559 -125Q541 -120 539 -119Q521 -117 505 -112Q499 -108 476 -102Q459 -98 440 -98Q437 -94 430 -97Q425 -99 423 -98Q410 -99 397 -101Q375 -104 373 -105Q359 -110 358 -123Q374 -120 403 -131Q422 -133 429 -137Q444 -140 458 -143Q461 -147 468 -147Q476 -147 478 -151Q498 -156 517 -161Q539 -166 561 -172Q585 -179 608 -183Q611 -180 617 -187Q621 -197 626 -224Q628 -240 630 -257Q629 -275 633 -294Q635 -306 622 -321Q614 -327 613 -334Q611 -341 610 -348Q616 -344 622 -354Q624 -358 631 -361Q637 -363 639 -365ZM498 -341L504 -338Q517 -336 529 -338Q539 -336 543 -336L569 -330Q573 -330 583 -328Q585 -325 590 -323L595 -320Q600 -318 602 -315Q597 -308 600 -306Q601 -296 608 -289Q613 -287 612 -281Q611 -275 605 -277Q597 -269 582 -277Q572 -278 562 -280Q552 -288 538 -296Q515 -309 508 -316Q504 -317 505 -319Q507 -321 512 -323Q511 -327 505 -332Q499 -337 498 -341ZM480 -241H482Q484 -236 495 -236Q506 -237 516 -238Q521 -237 534 -238Q551 -240 557 -236Q569 -236 571 -227Q572 -217 575 -209Q583 -205 576 -191Q561 -188 558 -191Q545 -193 531 -196Q526 -201 510 -208Q490 -217 484 -229Q485 -232 482 -235Q479 -238 480 -241Z"/>
</svg>