<svg xmlns="http://www.w3.org/2000/svg" viewBox="0 -800 1024 1024">
	<path fill="#000000" d="M531 -526Q543 -547 557 -569Q565 -585 592 -618Q592 -624 600 -636Q602 -640 604 -645Q605 -651 611 -652Q618 -647 625 -659L626 -658Q629 -659 630 -656Q631 -653 633 -650Q636 -643 642 -644Q648 -644 655 -644Q673 -638 690 -623Q695 -619 702 -614Q709 -609 707 -600Q708 -592 703 -586Q699 -580 695 -573Q665 -545 635 -517Q620 -508 605 -500Q601 -496 593 -493Q581 -488 578 -482Q565 -469 551 -458Q547 -453 542 -449Q536 -445 539 -438Q563 -428 567 -422Q574 -419 573 -413Q572 -407 571 -402Q568 -397 570 -388Q572 -381 571 -378Q570 -369 562 -351Q560 -342 562 -330Q559 -307 556 -285Q556 -280 554 -274Q552 -268 559 -265Q569 -266 579 -268Q599 -273 618 -278Q632 -281 646 -285Q651 -285 657 -282Q671 -281 687 -284Q693 -284 699 -285Q705 -286 710 -281Q721 -273 723 -272Q726 -264 728 -256Q722 -251 715 -247Q709 -241 698 -242Q684 -239 670 -237Q640 -233 609 -236Q590 -232 571 -242Q560 -249 555 -246Q549 -245 550 -238Q550 -232 550 -226Q548 -219 546 -207Q546 -190 546 -173Q542 -159 548 -144Q547 -131 550 -115Q550 -109 547 -103Q544 -97 550 -93Q569 -95 587 -97Q596 -98 605 -100Q636 -100 655 -107Q665 -110 680 -107Q687 -113 703 -111Q717 -121 731 -112Q743 -118 757 -104Q762 -105 779 -109Q786 -109 789 -122Q792 -138 794 -155Q797 -172 797 -174Q798 -195 801 -213Q799 -219 802 -227Q804 -234 803 -238L805 -308Q808 -322 804 -331Q804 -348 804 -365Q800 -390 793 -413Q784 -432 773 -433Q765 -435 747 -430Q731 -425 715 -421Q711 -422 701 -417Q672 -404 650 -412Q637 -416 626 -421Q623 -424 614 -425Q605 -426 603 -431Q618 -440 636 -444Q687 -462 696 -464Q702 -467 731 -474Q749 -478 767 -483Q783 -481 792 -481Q803 -478 814 -475Q840 -465 857 -444Q865 -437 868 -428Q875 -420 873 -407Q877 -387 880 -368Q876 -353 871 -338Q870 -326 869 -315Q873 -302 871 -293Q871 -288 868 -278Q864 -266 866 -259Q869 -243 865 -220Q861 -204 865 -186Q862 -165 862 -164Q861 -152 859 -140Q859 -128 859 -116Q861 -113 858 -107Q855 -100 856 -97Q853 -79 843 -58Q843 -53 837 -45Q833 -40 832 -36Q836 -26 827 -20Q806 -3 795 -10Q778 -22 758 -63Q759 -71 751 -74Q743 -77 739 -70Q734 -63 719 -63Q713 -61 700 -64Q685 -67 678 -63Q666 -64 616 -61Q613 -60 607 -61Q602 -62 599 -60Q589 -60 579 -60Q568 -62 559 -62Q551 -65 539 -53Q534 -49 530 -53Q526 -58 522 -60Q515 -61 499 -72Q487 -78 485 -83Q485 -95 477 -103Q472 -113 475 -124Q477 -142 478 -160Q479 -174 480 -189Q480 -202 480 -215Q481 -231 482 -248Q486 -279 495 -305Q500 -339 508 -370Q514 -395 504 -407Q493 -416 489 -428Q474 -445 489 -455Q503 -473 504 -477ZM242 -540Q250 -538 255 -540Q281 -540 290 -533Q291 -532 293 -528L301 -519Q303 -516 304 -514Q303 -500 310 -493Q309 -483 307 -474Q315 -445 312 -432Q311 -422 310 -413Q311 -396 312 -379Q322 -367 312 -353Q305 -346 304 -330Q304 -315 301 -305Q292 -298 298 -292Q328 -307 349 -331Q357 -340 366 -347Q374 -354 379 -363Q390 -371 394 -384Q398 -396 404 -408Q409 -408 408 -400Q408 -392 414 -393Q418 -389 415 -384Q411 -379 409 -373Q405 -358 396 -353Q398 -349 391 -336Q389 -333 383 -326Q375 -317 373 -310Q369 -308 365 -306Q360 -303 359 -297Q356 -293 353 -286Q350 -279 342 -278Q338 -280 337 -278Q338 -270 333 -265Q328 -258 314 -247Q301 -237 296 -229Q284 -221 276 -210Q266 -204 259 -197Q256 -194 247 -188Q235 -181 233 -174Q217 -168 209 -156Q206 -155 199 -149Q191 -142 186 -141Q184 -135 168 -122Q154 -122 151 -135Q147 -147 139 -155Q140 -161 132 -164Q125 -167 127 -172Q126 -182 135 -189Q148 -198 149 -201Q152 -209 158 -210Q164 -211 170 -212Q179 -211 183 -217Q187 -224 191 -229Q198 -239 201 -250Q193 -262 185 -275Q190 -282 182 -289Q180 -291 180 -292Q181 -292 187 -284Q194 -278 201 -270Q208 -263 217 -267Q228 -288 238 -303Q246 -314 249 -332Q251 -350 254 -364Q254 -371 250 -372Q244 -372 237 -370Q230 -367 222 -363Q214 -359 206 -363Q204 -361 197 -360Q187 -358 185 -353Q168 -342 169 -323Q170 -321 170 -320Q167 -320 160 -329Q159 -330 155 -330Q150 -329 149 -332Q148 -335 143 -339Q137 -344 138 -347Q149 -369 165 -375Q202 -402 248 -398Q255 -396 258 -406Q261 -429 261 -450Q261 -473 258 -483Q256 -488 253 -488Q249 -487 247 -491Q230 -490 204 -498Q200 -500 193 -502Q187 -505 192 -511Q187 -518 196 -517Q217 -532 242 -540Z"/>
</svg>