<svg xmlns="http://www.w3.org/2000/svg" viewBox="0 -800 1024 1024">
	<path fill="#000000" d="M549 -752Q556 -751 562 -751Q568 -751 569 -746Q570 -741 572 -736Q581 -729 575 -713Q571 -702 572 -696Q568 -683 567 -667Q564 -662 569 -658Q574 -654 580 -656Q585 -653 595 -666Q602 -676 611 -669Q616 -668 625 -662Q637 -654 647 -656Q653 -654 660 -653Q667 -652 671 -647Q675 -642 672 -638Q670 -633 669 -629Q671 -625 666 -623Q659 -621 658 -618Q650 -617 641 -613Q636 -614 630 -610Q623 -605 619 -607Q611 -602 602 -598Q594 -601 592 -592Q586 -591 569 -587Q564 -590 559 -583Q555 -578 551 -578Q545 -571 534 -567Q529 -569 526 -565Q523 -561 519 -559Q515 -561 509 -557Q505 -554 503 -556Q508 -562 515 -568Q523 -575 526 -584Q528 -583 531 -586Q534 -590 536 -588Q539 -598 548 -607Q545 -612 550 -618Q554 -623 554 -625Q549 -635 538 -634Q520 -641 511 -657Q512 -669 512 -690Q512 -695 514 -701Q516 -707 511 -710Q489 -701 481 -695Q468 -691 457 -680Q451 -670 441 -666Q431 -662 421 -654Q413 -647 402 -636Q391 -626 389 -613Q387 -608 393 -599Q398 -591 395 -587Q381 -591 372 -591Q362 -594 355 -601Q348 -608 340 -614Q330 -618 324 -618Q309 -618 302 -608Q298 -604 294 -599Q291 -594 285 -596Q279 -596 274 -602Q269 -607 263 -612Q239 -635 275 -678Q278 -689 296 -711Q298 -717 303 -715Q308 -713 313 -711Q322 -706 335 -699Q341 -695 337 -688Q333 -681 334 -678Q334 -668 327 -661Q316 -648 317 -636Q329 -634 341 -632Q348 -633 357 -629Q364 -626 369 -626Q377 -632 384 -641Q395 -655 398 -657Q419 -681 442 -698Q463 -719 487 -732Q495 -737 501 -744Q507 -751 517 -752Q527 -748 534 -748Q542 -748 549 -752ZM621 -560L632 -559Q634 -558 639 -558Q646 -558 647 -554Q642 -546 647 -542Q650 -535 644 -532Q637 -530 632 -527Q628 -524 621 -524Q612 -524 609 -522Q599 -522 591 -518Q583 -514 575 -511Q555 -517 533 -521Q527 -517 522 -511Q517 -506 509 -504Q503 -497 496 -490Q489 -484 485 -475Q485 -467 476 -463Q476 -459 470 -453Q465 -447 465 -442Q452 -420 439 -399Q434 -392 441 -389Q447 -386 456 -387Q463 -393 464 -406Q467 -413 471 -422Q476 -430 472 -438Q475 -448 496 -469Q499 -475 505 -475Q511 -476 517 -479Q511 -471 526 -459Q526 -445 529 -433Q524 -421 518 -409Q519 -402 515 -397Q511 -393 509 -389Q518 -387 534 -392Q546 -396 551 -396Q558 -399 566 -401Q574 -404 573 -413Q579 -421 581 -431Q582 -441 585 -450Q588 -454 583 -459Q578 -464 580 -468Q592 -472 602 -471Q605 -469 627 -465Q633 -461 640 -456Q648 -451 644 -443Q641 -439 641 -435Q641 -431 648 -431Q651 -428 656 -428Q662 -428 664 -426Q666 -423 668 -424Q670 -430 674 -429Q693 -434 712 -431Q717 -431 719 -428Q732 -425 718 -417Q713 -417 713 -411Q713 -406 709 -403Q697 -394 692 -393Q680 -389 668 -388Q656 -387 647 -379Q650 -376 659 -372Q672 -366 675 -359Q680 -354 676 -348Q672 -343 669 -337Q656 -316 650 -290Q645 -285 643 -272Q641 -260 640 -257Q636 -245 642 -230Q648 -215 661 -211Q672 -200 687 -202Q702 -204 716 -202Q761 -205 807 -210Q829 -211 851 -216Q857 -223 858 -233Q859 -244 861 -251Q863 -226 875 -219Q876 -214 878 -214Q881 -213 885 -216Q888 -211 898 -210Q906 -209 908 -207Q916 -209 922 -204Q930 -198 924 -192Q914 -190 911 -183Q905 -182 899 -176Q893 -170 890 -170Q886 -168 880 -170Q874 -172 871 -170Q843 -170 829 -171Q824 -173 811 -170Q801 -168 794 -169Q788 -168 781 -168Q763 -166 739 -167Q733 -168 725 -166Q718 -164 712 -168Q703 -164 698 -169Q688 -165 676 -168Q670 -168 658 -172Q646 -176 638 -174Q642 -173 646 -165Q649 -160 652 -158Q660 -139 658 -112Q655 -98 655 -82Q654 -62 653 -42Q651 -37 652 -28Q653 -19 652 -16Q657 -2 652 16Q651 26 653 57Q649 65 650 76Q650 87 640 91Q634 86 626 89Q618 84 610 79Q608 76 605 72Q601 68 597 69Q590 72 582 74Q563 75 545 73Q505 66 461 68Q455 74 449 78Q445 80 441 76Q438 72 435 74Q422 68 417 56Q414 50 410 45Q406 39 407 31Q413 21 418 1Q423 -18 427 -26Q431 -41 430 -55Q436 -74 437 -95Q439 -103 440 -111Q438 -125 435 -139Q431 -146 430 -153Q430 -155 434 -155Q442 -160 459 -158Q489 -164 534 -180Q552 -184 565 -185Q577 -191 587 -187Q602 -191 619 -182Q624 -180 625 -184Q626 -188 621 -190Q621 -193 615 -195Q610 -197 608 -201Q594 -215 594 -228Q586 -257 591 -273Q592 -299 603 -320Q604 -328 614 -346Q623 -361 624 -373Q621 -378 615 -375Q612 -373 606 -369Q599 -352 591 -340Q588 -339 584 -333Q580 -327 575 -326Q568 -328 567 -320Q566 -312 561 -313Q559 -307 547 -301Q537 -296 534 -290Q534 -284 523 -282Q520 -278 519 -288Q520 -303 529 -315Q537 -322 538 -331Q537 -336 542 -343Q547 -349 545 -354Q539 -357 522 -355L496 -349Q486 -353 476 -365Q476 -370 471 -369Q466 -366 463 -361Q460 -362 458 -357Q456 -351 453 -351Q441 -350 429 -349Q421 -348 413 -347Q404 -344 401 -335Q397 -327 393 -320Q385 -291 385 -286Q383 -271 384 -257Q382 -244 377 -235Q376 -230 370 -230Q364 -230 362 -233Q349 -241 342 -255Q338 -261 334 -267Q330 -273 334 -281Q341 -303 343 -330Q346 -336 342 -338Q338 -340 336 -333Q327 -317 317 -301Q304 -290 303 -285Q302 -284 278 -254Q277 -251 270 -248Q263 -245 262 -240Q255 -236 251 -230Q246 -224 236 -225Q232 -224 230 -227Q229 -229 230 -234Q234 -249 244 -261Q247 -269 258 -282Q269 -296 272 -304Q278 -314 277 -325Q269 -326 254 -323Q236 -319 227 -323Q221 -316 211 -318Q190 -313 177 -344Q173 -348 168 -354Q164 -360 168 -368Q176 -403 180 -410Q189 -419 184 -433Q189 -438 194 -444Q198 -451 204 -452Q212 -452 218 -451Q224 -450 225 -443Q246 -420 248 -402Q240 -388 237 -382Q229 -375 224 -364Q218 -363 220 -357Q223 -350 230 -351Q244 -353 258 -355Q275 -360 291 -365Q303 -364 305 -378Q311 -382 311 -390Q321 -421 323 -434Q330 -444 324 -453Q323 -458 319 -462Q316 -467 320 -469Q329 -464 343 -460Q361 -460 369 -453Q384 -447 378 -434Q383 -422 378 -412Q372 -396 365 -380Q369 -378 378 -381Q385 -384 390 -382Q396 -385 411 -387Q432 -416 450 -444Q469 -469 487 -494Q491 -500 500 -510Q514 -524 517 -534Q519 -542 533 -542Q544 -542 548 -545Q566 -547 584 -554Q603 -558 621 -560ZM398 -531Q404 -525 409 -526Q415 -519 420 -514Q420 -512 416 -512Q409 -502 401 -493Q382 -492 365 -485Q359 -481 345 -481Q341 -482 332 -480Q321 -477 317 -480Q312 -480 303 -486Q294 -492 289 -491Q285 -496 281 -501Q277 -506 281 -511L311 -517Q316 -516 325 -519Q337 -523 342 -520Q350 -525 371 -526Q389 -527 398 -531ZM367 -339Q369 -331 376 -334Q380 -337 378 -339Q373 -343 367 -339ZM627 -181Q630 -179 632 -178Q634 -177 635 -177Q638 -177 636 -179Q631 -186 627 -181ZM577 -161H571Q569 -160 567 -160L558 -158Q556 -157 554 -157Q552 -153 543 -152Q536 -151 533 -148Q524 -146 517 -147Q496 -144 484 -131Q487 -128 486 -121Q485 -112 487 -109Q488 -96 488 -84Q489 -78 488 -73Q487 -67 492 -65Q509 -69 548 -71Q561 -74 570 -71Q586 -73 588 -59Q587 -51 585 -47Q582 -42 576 -43Q532 -41 517 -46Q503 -48 490 -54Q485 -57 482 -48Q477 -38 476 -16Q476 3 472 11Q470 19 467 27Q463 36 467 44L507 39Q518 39 528 38Q546 37 564 36Q576 37 589 34Q598 16 602 -3Q599 -14 605 -39Q608 -47 608 -69Q608 -87 611 -97Q614 -112 613 -127Q614 -141 602 -153Q590 -165 577 -161Z"/>
</svg>