<svg xmlns="http://www.w3.org/2000/svg" viewBox="0 -800 1024 1024">
	<path fill="#000000" d="M605 -740H610Q620 -737 629 -734Q640 -731 650 -728Q667 -728 667 -703Q665 -698 668 -690Q671 -683 671 -680Q667 -675 668 -663Q668 -653 666 -648Q666 -642 663 -636Q660 -629 667 -624Q687 -628 698 -621Q709 -621 719 -622Q724 -623 724 -618Q724 -611 729 -608Q739 -605 735 -597Q731 -596 727 -590Q723 -584 721 -583Q707 -584 694 -580Q688 -581 672 -576Q652 -576 650 -556Q644 -532 643 -519Q640 -517 639 -508Q638 -502 635 -498Q632 -495 635 -491Q638 -487 641 -489Q655 -494 671 -496Q682 -502 695 -505Q711 -509 726 -514Q730 -513 746 -517Q748 -517 752 -521Q756 -525 761 -524Q765 -526 772 -521Q777 -518 781 -518Q784 -522 789 -521Q794 -520 799 -521Q807 -522 814 -521Q817 -521 816 -514Q815 -508 817 -506Q817 -504 820 -500Q825 -494 822 -491Q810 -484 797 -478Q780 -476 762 -474Q755 -471 741 -469Q733 -469 712 -462Q701 -463 690 -458Q666 -453 642 -448Q627 -445 613 -440Q606 -436 598 -435Q588 -437 579 -426Q568 -421 561 -407Q556 -403 560 -395Q563 -388 562 -385Q558 -383 556 -376Q555 -369 552 -367Q541 -361 541 -350Q541 -345 546 -345Q550 -345 555 -347Q573 -354 591 -362Q606 -369 610 -376Q610 -380 605 -399Q604 -404 595 -408Q587 -412 588 -417Q594 -420 600 -417Q606 -414 613 -413Q630 -409 646 -397Q650 -396 652 -390Q655 -382 658 -381Q672 -384 686 -387Q693 -390 709 -392Q719 -396 731 -396Q742 -401 756 -400Q767 -405 811 -407Q822 -404 832 -401Q850 -394 867 -387Q869 -377 879 -371Q883 -371 884 -366Q885 -362 885 -358Q892 -345 885 -335Q890 -313 885 -304Q878 -282 874 -277Q873 -272 866 -263Q858 -252 857 -246Q857 -242 852 -239Q846 -235 845 -233Q839 -215 824 -200Q811 -189 801 -176Q787 -160 781 -151Q775 -146 768 -137Q757 -123 749 -119Q738 -112 729 -102Q721 -92 712 -104Q708 -105 701 -114Q691 -126 684 -122Q678 -119 672 -116Q664 -116 656 -116L625 -115Q617 -115 609 -115Q596 -112 582 -109Q576 -108 569 -108Q561 -110 559 -102Q558 -84 560 -65Q573 -57 586 -53Q591 -53 591 -48Q591 -44 589 -39Q584 -31 572 -33Q568 -31 560 -33Q552 -35 549 -32Q545 -26 538 -25Q532 -23 526 -21Q523 -16 518 -19Q513 -22 512 -26Q495 -38 498 -50Q499 -55 494 -62Q490 -67 490 -70Q500 -83 514 -91Q516 -94 524 -99Q533 -104 534 -110Q532 -117 526 -119Q519 -121 514 -123Q500 -130 485 -137Q483 -140 475 -142Q468 -143 466 -148Q463 -155 452 -159Q451 -164 445 -175Q438 -186 439 -194Q437 -209 434 -225Q438 -237 440 -249Q442 -253 442 -263Q442 -274 446 -279Q460 -305 474 -332Q473 -338 477 -341Q481 -344 483 -348Q482 -359 496 -359Q501 -360 502 -366Q504 -373 507 -373Q518 -369 526 -388Q536 -399 548 -407Q556 -415 561 -423Q561 -427 558 -427Q555 -428 551 -427Q537 -417 501 -415Q482 -408 463 -405Q448 -402 433 -400Q420 -402 407 -393Q374 -392 346 -398Q337 -402 329 -404Q322 -404 322 -409Q326 -413 346 -415Q347 -416 374 -421Q395 -425 426 -432Q450 -440 469 -443Q484 -446 498 -450Q509 -451 513 -460Q506 -464 499 -475Q492 -486 486 -489Q475 -506 477 -513Q479 -521 482 -529Q485 -537 478 -542Q468 -542 448 -551Q443 -554 438 -557Q432 -559 432 -565Q447 -574 464 -575Q471 -577 479 -580Q488 -582 488 -591Q487 -601 486 -611L487 -659Q485 -661 486 -665Q487 -670 490 -669Q522 -658 528 -632Q533 -627 533 -619Q533 -612 535 -604Q534 -601 533 -598Q532 -592 540 -591Q572 -598 597 -607Q604 -606 610 -610Q617 -614 614 -621Q609 -636 613 -646Q616 -653 615 -673Q614 -690 616 -693Q621 -712 613 -727Q613 -729 611 -731Q602 -735 605 -740ZM591 -561Q587 -561 587 -560Q575 -559 564 -556Q554 -553 543 -550Q536 -549 536 -542Q536 -535 535 -528Q535 -522 530 -510Q525 -499 525 -492Q527 -482 529 -472Q527 -464 535 -462Q541 -460 549 -462Q556 -467 573 -469Q583 -470 585 -479Q587 -487 590 -495Q591 -505 595 -523Q596 -526 597 -530L599 -544Q600 -547 601 -551Q605 -555 600 -560Q595 -565 591 -561ZM214 -549Q222 -546 230 -544Q238 -550 248 -543Q254 -544 256 -539Q258 -535 260 -530Q270 -524 268 -515Q267 -502 265 -489Q263 -484 262 -470Q261 -455 258 -449Q261 -431 256 -413Q256 -401 255 -390Q251 -381 265 -375Q276 -368 270 -355Q265 -350 263 -333Q262 -322 259 -316Q257 -303 254 -290Q248 -275 252 -262Q252 -261 252 -260Q254 -260 258 -266Q263 -277 268 -289Q276 -317 291 -336Q294 -350 303 -362Q302 -367 305 -370Q308 -373 312 -371Q317 -365 311 -355Q306 -346 306 -342Q302 -339 299 -329Q297 -323 294 -319Q288 -307 286 -292Q283 -281 282 -269Q274 -250 271 -234Q267 -227 261 -220Q255 -214 253 -205Q236 -184 219 -163Q213 -160 206 -150Q200 -140 194 -137Q190 -131 184 -130Q177 -129 174 -136Q166 -149 158 -162Q150 -174 147 -187Q143 -191 147 -195Q150 -198 156 -198Q161 -204 164 -210Q167 -217 174 -220Q182 -227 183 -236Q185 -244 189 -252Q190 -267 190 -283Q194 -288 194 -297Q197 -307 199 -317Q200 -324 200 -332Q201 -340 195 -345Q189 -345 166 -340Q163 -342 144 -347Q139 -350 141 -352Q145 -355 150 -353Q165 -357 182 -359Q196 -365 207 -376Q209 -393 212 -408Q212 -415 212 -422L213 -460Q212 -472 213 -483Q214 -495 207 -503Q196 -501 187 -503Q167 -503 147 -513Q139 -518 131 -524Q127 -527 130 -530Q132 -533 136 -531Q139 -529 143 -532Q148 -535 151 -534Q166 -532 179 -543Q185 -544 193 -541Q204 -545 214 -549ZM803 -363Q783 -363 765 -358Q747 -360 717 -350Q704 -351 690 -346Q683 -343 673 -342Q663 -342 660 -333Q650 -321 652 -300Q650 -283 648 -267Q645 -263 649 -260Q653 -257 659 -258Q669 -256 678 -254Q691 -251 685 -239Q684 -229 668 -227Q666 -225 658 -225Q650 -225 648 -221Q647 -220 642 -198L636 -179Q635 -169 630 -160Q632 -155 637 -155Q642 -156 647 -154Q667 -161 676 -159Q687 -164 714 -164Q725 -169 734 -178Q733 -186 743 -188Q748 -189 749 -195Q751 -202 754 -203Q761 -201 770 -213Q774 -229 789 -239Q793 -245 806 -274Q817 -295 826 -327Q825 -336 826 -344Q827 -352 821 -357Q811 -363 803 -363ZM530 -336Q531 -332 531 -323Q523 -308 512 -294Q505 -278 501 -265Q499 -252 496 -240Q491 -229 491 -214Q493 -210 490 -202Q487 -193 489 -188Q496 -178 503 -169Q509 -166 515 -156Q520 -147 525 -144Q541 -144 556 -145Q563 -146 572 -146Q581 -146 585 -154Q585 -155 588 -179L592 -197Q596 -209 598 -214Q595 -225 577 -230Q573 -233 565 -235Q555 -238 553 -242Q585 -249 593 -253Q599 -254 603 -265Q603 -290 606 -313Q605 -321 599 -321Q591 -322 585 -321Q565 -325 545 -329Q542 -328 537 -333Q533 -337 530 -336ZM746 -66H786Q791 -67 802 -63Q809 -60 815 -60Q823 -58 833 -56Q842 -55 850 -48Q859 -45 864 -34Q876 -32 875 -21Q873 -18 872 -11Q871 -3 868 0Q861 4 859 14Q854 19 850 14Q844 11 839 19Q835 25 831 25Q827 21 821 21Q812 21 800 33Q796 38 790 38Q787 38 788 33Q794 21 800 8Q806 -4 802 -18Q796 -27 787 -26Q777 -25 768 -25Q753 -38 738 -34Q733 -35 720 -38Q694 -40 673 -49Q667 -48 667 -53Q667 -57 672 -58Q704 -64 724 -64Q735 -65 746 -66Z"/>
</svg>