<svg xmlns="http://www.w3.org/2000/svg" viewBox="0 -800 1024 1024">
	<path fill="#000000" d="M634 -721Q639 -718 645 -717Q654 -715 663 -713Q673 -715 680 -710Q687 -705 694 -703Q698 -695 705 -687Q712 -680 713 -670Q719 -655 716 -634Q722 -618 714 -601Q711 -594 712 -584Q712 -574 703 -568Q706 -558 709 -548Q701 -540 701 -530Q698 -511 694 -492Q696 -468 692 -444Q688 -438 691 -434Q693 -431 698 -433Q728 -435 756 -440Q763 -440 770 -440Q777 -443 791 -444Q810 -445 817 -451Q823 -465 827 -480Q826 -485 831 -493Q835 -500 836 -505Q838 -523 835 -542Q830 -543 826 -545Q822 -548 822 -554Q824 -562 838 -565Q848 -567 851 -570Q871 -560 891 -551Q895 -551 898 -545Q901 -539 905 -538Q909 -531 908 -526Q909 -515 903 -509Q893 -492 891 -475Q892 -457 885 -443Q881 -435 891 -431Q900 -427 896 -421Q883 -421 885 -411Q875 -405 864 -396Q859 -396 853 -388Q845 -378 838 -383Q832 -397 821 -394Q807 -394 793 -395Q778 -397 765 -394Q757 -394 749 -394L719 -391Q711 -391 703 -391Q687 -390 670 -389Q645 -388 619 -383Q576 -378 535 -368Q531 -370 522 -368Q511 -366 505 -369Q502 -367 497 -370Q493 -373 490 -372Q478 -378 469 -385Q445 -408 451 -444Q454 -466 465 -486Q484 -518 479 -544Q489 -540 494 -531Q509 -522 522 -509Q523 -503 525 -497Q528 -490 523 -485Q525 -469 523 -454Q520 -451 519 -441Q518 -435 516 -432Q516 -427 506 -415Q503 -407 511 -406Q518 -405 523 -404Q540 -407 577 -417Q597 -421 621 -425Q630 -424 631 -431Q633 -437 632 -444Q642 -478 642 -495Q644 -508 644 -528Q644 -554 646 -565Q644 -571 645 -579Q646 -603 646 -627Q644 -668 640 -681Q614 -690 609 -696Q603 -699 595 -702Q587 -705 590 -712Q602 -709 612 -713Q624 -715 634 -721ZM324 -682Q329 -683 332 -678Q330 -671 335 -668Q339 -666 344 -662L368 -640Q377 -634 374 -623Q371 -613 362 -606Q355 -605 342 -592Q339 -584 324 -575Q310 -566 307 -558Q297 -545 286 -533Q282 -531 271 -520Q265 -513 259 -506Q255 -498 260 -489Q262 -486 271 -477Q273 -473 280 -466Q288 -457 289 -452Q303 -428 302 -404Q304 -390 305 -375Q301 -372 302 -363Q303 -356 301 -352Q304 -347 305 -343Q305 -341 309 -342Q341 -362 372 -383Q376 -383 381 -388Q385 -392 388 -392Q390 -395 395 -397Q399 -399 400 -402Q404 -403 404 -406Q404 -408 408 -408Q401 -398 396 -377Q390 -378 388 -374Q387 -372 388 -366Q381 -354 371 -343Q369 -340 362 -336Q354 -332 354 -325Q349 -318 334 -310Q333 -304 328 -303Q322 -302 316 -299Q316 -293 309 -286Q302 -280 302 -274Q299 -262 298 -248Q295 -235 297 -218Q299 -214 294 -208Q288 -201 292 -198Q290 -191 293 -181Q295 -172 294 -168Q294 -130 292 -113Q296 -108 295 -102Q294 -95 295 -91Q292 -87 293 -77Q294 -66 289 -63Q293 -46 282 -33Q276 -25 272 -17Q265 -3 252 -12Q250 -10 247 -14Q243 -19 239 -18Q230 -28 221 -38Q212 -61 211 -71Q218 -68 226 -72Q232 -87 237 -103Q242 -171 241 -193Q243 -208 237 -222Q221 -208 204 -200Q192 -186 185 -184Q179 -184 178 -181Q176 -178 173 -175Q173 -171 166 -167Q160 -164 158 -159Q148 -158 141 -166Q133 -174 126 -181Q114 -193 112 -196Q105 -206 110 -214Q105 -230 109 -235Q113 -233 117 -238Q121 -242 125 -243Q142 -273 155 -301Q163 -322 190 -370Q181 -367 172 -365Q152 -351 134 -344Q129 -340 123 -340Q116 -340 103 -350Q96 -352 94 -357Q92 -362 89 -366Q89 -372 93 -373Q98 -375 103 -377Q126 -395 156 -412Q185 -426 221 -432Q226 -434 234 -433Q242 -432 243 -440Q239 -457 223 -480Q208 -505 209 -526Q215 -551 234 -576Q250 -593 265 -610Q273 -623 289 -639Q306 -656 310 -662Q315 -665 317 -673Q319 -680 324 -682ZM668 -342H676Q679 -338 690 -332Q701 -326 705 -318Q710 -312 712 -305Q715 -295 709 -292Q703 -290 704 -288Q705 -284 714 -284Q734 -286 752 -283Q788 -285 806 -263Q812 -256 820 -251Q827 -246 830 -237Q832 -226 830 -214Q826 -211 825 -200Q824 -192 821 -188Q812 -186 812 -175Q809 -174 806 -167Q804 -162 801 -162Q795 -152 784 -140Q778 -130 767 -125Q766 -117 754 -108Q742 -99 740 -91Q738 -90 733 -84Q728 -78 722 -78Q714 -65 702 -56Q697 -58 695 -52Q693 -47 690 -47Q684 -38 680 -38Q674 -40 673 -35Q671 -30 668 -27Q657 -17 647 -6Q637 6 623 12Q618 12 612 20Q606 27 600 28Q599 35 593 38Q588 40 584 44Q573 50 559 53Q548 63 534 72Q528 71 518 77Q510 82 504 82Q499 75 487 87Q482 84 474 86Q466 88 462 85Q460 79 456 80Q452 81 447 81Q444 76 453 72Q461 69 461 65Q499 44 533 21Q564 -8 580 -26Q640 -79 694 -133Q699 -141 713 -155Q729 -171 736 -183Q749 -202 757 -226Q762 -235 753 -240Q747 -244 736 -245Q732 -249 721 -251Q713 -252 710 -256Q699 -261 690 -267Q675 -277 658 -254Q656 -249 650 -251Q647 -252 645 -251Q646 -245 640 -241Q636 -234 624 -226Q612 -217 608 -211Q605 -208 597 -206Q589 -204 588 -202Q624 -197 632 -198Q650 -194 662 -190Q665 -192 669 -187Q673 -183 675 -186Q691 -183 696 -175Q701 -172 701 -167Q702 -161 703 -157Q711 -149 692 -145Q689 -138 681 -140Q674 -143 668 -142Q637 -151 611 -173L577 -186Q552 -201 567 -200Q576 -201 585 -202Q581 -208 581 -228Q587 -237 604 -253Q623 -271 629 -283Q645 -306 663 -335Q663 -339 668 -342ZM239 -316L231 -314Q230 -311 225 -303Q218 -292 219 -286Q230 -289 241 -297Q243 -300 243 -308Q243 -316 239 -316Z"/>
</svg>