<svg xmlns="http://www.w3.org/2000/svg" viewBox="0 -800 1024 1024">
	<path fill="#000000" d="M490 -725Q495 -725 500 -720Q508 -710 520 -706Q531 -702 543 -699Q563 -681 562 -668Q568 -648 564 -633Q563 -629 561 -625Q559 -621 565 -619L598 -643Q634 -663 658 -662Q672 -669 690 -666Q698 -675 709 -669Q714 -662 722 -665Q726 -670 731 -668Q736 -666 742 -665Q749 -662 758 -657Q766 -652 770 -643Q774 -640 778 -630Q778 -625 778 -620Q779 -609 767 -599Q763 -589 749 -581Q740 -572 729 -564Q727 -560 716 -549Q712 -545 697 -538Q691 -532 684 -528Q677 -524 676 -515Q661 -511 659 -501Q654 -498 650 -496Q645 -494 644 -488Q643 -483 639 -481Q634 -478 631 -475Q628 -470 625 -464Q622 -457 615 -461Q612 -470 617 -476Q622 -482 628 -487Q641 -505 653 -524Q666 -541 679 -562Q682 -577 695 -599Q700 -611 704 -624Q701 -631 695 -629Q689 -627 683 -626Q674 -621 654 -622Q638 -623 632 -621Q598 -610 571 -588Q572 -549 569 -511Q572 -500 566 -490Q562 -485 557 -489Q552 -493 548 -497Q530 -509 524 -531L517 -558Q516 -563 514 -563Q512 -564 510 -561Q490 -540 476 -516Q474 -511 468 -503Q460 -492 459 -485Q449 -463 438 -442Q433 -435 426 -440Q420 -445 415 -449Q406 -456 402 -467Q397 -478 394 -487Q393 -503 404 -523Q404 -530 413 -539Q420 -542 425 -552Q429 -561 432 -563Q432 -566 434 -566Q437 -566 438 -562Q443 -552 439 -539Q437 -527 440 -522Q439 -517 444 -516Q448 -515 452 -517Q474 -537 502 -572Q514 -583 511 -598Q510 -620 508 -642Q504 -684 498 -702Q498 -707 493 -714Q488 -721 490 -725ZM340 -680Q341 -680 344 -667Q355 -650 348 -637Q349 -633 347 -632Q346 -631 341 -630Q338 -628 335 -626L325 -615Q322 -613 319 -611Q305 -594 300 -593Q298 -593 296 -588Q293 -582 289 -581Q284 -569 273 -560Q261 -551 251 -540Q251 -536 248 -534Q245 -533 243 -532Q231 -513 220 -506Q212 -494 210 -488Q204 -478 194 -469Q197 -462 203 -462Q209 -462 215 -461Q222 -462 227 -458Q231 -453 237 -450Q265 -438 275 -425Q274 -413 281 -404Q279 -383 275 -377Q275 -368 263 -360Q262 -352 258 -344Q250 -336 248 -325Q244 -322 239 -312Q235 -304 232 -301Q232 -296 226 -289Q219 -281 220 -275Q217 -270 213 -265Q210 -260 216 -258Q236 -244 245 -233Q253 -228 254 -211Q255 -199 258 -193Q259 -183 259 -173Q269 -181 287 -208Q288 -210 294 -214Q303 -220 300 -224Q301 -225 302 -230Q303 -234 306 -234Q305 -231 306 -230Q307 -228 309 -229Q311 -229 311 -232Q316 -238 320 -244Q332 -257 337 -269Q347 -290 349 -290Q353 -290 340 -261Q332 -246 327 -236Q328 -230 326 -227Q324 -226 321 -229Q319 -227 319 -222Q318 -215 315 -212Q318 -206 314 -202Q309 -199 307 -195Q308 -190 303 -183Q306 -178 303 -173Q300 -168 299 -164Q297 -158 294 -152Q291 -146 284 -146Q282 -143 282 -138Q282 -132 279 -130Q278 -129 276 -123Q274 -117 269 -115Q270 -105 259 -95Q261 -91 255 -84Q250 -78 250 -75Q247 -66 243 -58Q235 -49 232 -39Q219 -36 201 -52Q198 -52 195 -57Q193 -61 190 -59Q173 -69 169 -81Q172 -99 175 -117Q186 -127 192 -152L194 -167Q195 -171 196 -175Q195 -179 197 -194Q199 -208 196 -216Q195 -223 183 -227Q174 -230 172 -232Q143 -247 142 -267Q141 -273 146 -294Q159 -316 172 -338Q206 -391 206 -406Q197 -409 184 -405Q176 -399 169 -399Q163 -399 157 -405Q143 -420 124 -433Q116 -441 116 -455Q106 -459 118 -473Q122 -470 124 -473Q125 -476 128 -479Q131 -480 134 -486Q138 -493 143 -495Q146 -499 150 -504Q155 -508 154 -514Q160 -516 169 -529Q170 -542 186 -551Q205 -565 224 -580Q227 -581 230 -588Q233 -595 238 -595Q246 -604 257 -611Q266 -616 277 -625Q286 -631 295 -641Q302 -643 310 -654Q318 -665 325 -668Q327 -665 329 -667Q331 -671 334 -671Q337 -675 340 -680ZM735 -458Q768 -459 797 -430Q809 -411 808 -402Q814 -392 816 -377Q817 -337 817 -298Q819 -291 814 -271Q814 -253 813 -236Q810 -230 813 -220Q811 -208 812 -202Q809 -183 809 -163Q810 -157 810 -143Q811 -129 809 -113Q811 -108 808 -99Q805 -90 806 -86Q809 -80 806 -66Q804 -56 805 -49Q801 -38 801 -21Q801 -12 800 -6Q794 -2 793 11Q792 21 790 24Q779 33 770 44Q764 47 761 38Q758 30 753 31Q747 36 742 30Q737 24 742 20Q743 18 740 12Q736 7 730 9Q724 10 721 11Q716 10 717 6Q719 2 721 -1Q723 -5 719 -11Q716 -15 716 -17Q717 -20 724 -20Q730 -20 731 -21Q743 -25 745 -38Q749 -60 748 -82Q747 -86 749 -86Q751 -87 753 -83Q757 -95 752 -103Q756 -139 760 -177Q757 -196 763 -210Q763 -225 763 -241Q765 -259 764 -275Q766 -318 761 -359Q754 -400 749 -408Q744 -419 733 -419Q726 -419 719 -414Q699 -408 676 -392Q668 -390 656 -380Q651 -381 644 -379Q632 -376 628 -379Q615 -392 600 -399Q596 -400 596 -405Q596 -409 600 -410Q609 -408 618 -410Q631 -419 642 -423Q660 -434 669 -436Q670 -439 673 -439Q680 -439 679 -444Q680 -446 687 -446Q694 -446 696 -449Q698 -450 701 -450L710 -453Q712 -453 714 -454Q724 -458 735 -458ZM565 -448Q570 -447 573 -440Q577 -434 581 -428Q586 -422 586 -413Q584 -403 587 -391Q574 -362 573 -356Q570 -343 567 -331Q562 -319 562 -305Q559 -301 563 -298Q566 -296 571 -298Q587 -303 602 -309Q617 -315 635 -316Q645 -319 658 -319Q663 -319 669 -317Q676 -316 677 -309Q676 -301 674 -294Q673 -290 667 -286Q661 -282 660 -280Q644 -273 629 -263Q608 -268 586 -273Q575 -280 563 -280Q555 -280 554 -273Q553 -265 554 -258Q552 -254 550 -232Q548 -229 548 -222Q553 -221 565 -225Q577 -229 585 -228Q591 -225 605 -228Q618 -230 623 -228Q646 -231 664 -223Q674 -215 682 -207Q686 -198 681 -194Q675 -190 670 -187Q661 -187 650 -183Q647 -179 641 -180Q634 -181 632 -179Q612 -190 584 -198Q570 -205 550 -211Q550 -208 550 -206Q543 -179 542 -156Q545 -152 540 -144Q537 -138 537 -134Q539 -126 535 -112Q530 -109 532 -104Q533 -99 532 -94Q532 -68 531 -42Q529 -38 531 -29Q533 -22 531 -18Q527 -15 528 -11Q529 -7 528 -2Q527 1 522 0Q518 -1 516 0Q503 9 484 -13Q477 -25 468 -28Q459 -33 466 -47Q468 -52 467 -65Q466 -77 469 -83Q476 -119 482 -156Q485 -178 493 -198Q493 -211 497 -231Q498 -235 499 -239L503 -257Q504 -261 505 -265Q507 -279 509 -293Q511 -306 517 -330Q519 -341 520 -353Q525 -360 529 -377Q532 -391 537 -398Q537 -409 549 -419Q559 -433 565 -448Z"/>
</svg>