<svg xmlns="http://www.w3.org/2000/svg" viewBox="0 -800 1024 1024">
	<path fill="#000000" d="M615 -762Q624 -762 635 -757Q647 -754 658 -751Q672 -750 671 -735Q668 -730 665 -725Q661 -720 666 -714Q673 -708 672 -698Q671 -687 670 -676Q670 -672 669 -669L665 -655Q665 -651 664 -648Q665 -641 671 -641Q677 -642 682 -640Q703 -642 726 -640Q732 -641 734 -634Q736 -628 739 -626Q742 -626 743 -622Q744 -618 741 -617Q733 -617 733 -607Q733 -600 726 -598Q719 -595 714 -600Q697 -599 682 -594Q672 -593 664 -591Q656 -591 653 -585Q650 -579 648 -573Q642 -557 639 -540Q635 -531 633 -520Q633 -515 629 -511Q625 -506 630 -502L654 -506Q676 -515 700 -522Q705 -521 710 -526Q716 -531 719 -531Q728 -528 741 -533Q750 -537 760 -535Q762 -537 766 -534Q770 -531 773 -531Q783 -537 788 -535Q800 -537 813 -534Q817 -532 815 -525Q813 -518 816 -515Q820 -512 815 -502Q805 -499 796 -494Q772 -490 760 -489Q743 -485 737 -484Q727 -480 716 -480Q705 -479 697 -476Q692 -473 676 -471Q646 -465 619 -455Q602 -457 593 -450Q588 -451 581 -446Q576 -442 572 -442Q560 -450 549 -444Q539 -438 522 -436Q508 -436 497 -431Q480 -427 463 -423Q448 -418 432 -418Q427 -415 423 -411Q419 -408 413 -411Q399 -416 384 -421Q372 -426 360 -427Q355 -430 357 -432Q361 -435 366 -433Q375 -436 384 -439Q399 -442 414 -445Q458 -459 504 -468Q511 -471 518 -475Q508 -483 497 -491Q488 -503 479 -515Q474 -526 478 -537Q482 -547 486 -556Q484 -568 465 -566Q452 -570 443 -577Q441 -580 443 -581Q447 -583 449 -581Q464 -583 478 -591Q485 -591 489 -597Q494 -604 491 -610Q491 -654 488 -674Q487 -680 490 -680Q495 -679 499 -673Q512 -666 525 -659Q539 -649 541 -630Q542 -625 542 -617Q541 -609 550 -609Q571 -617 586 -619Q589 -621 597 -622Q608 -623 610 -629Q614 -646 614 -663Q616 -676 617 -689Q617 -717 620 -744Q621 -748 617 -754Q614 -759 615 -762ZM588 -577Q573 -575 561 -568Q546 -569 539 -546Q539 -524 531 -514Q522 -506 530 -490Q531 -488 527 -483Q522 -477 528 -474Q548 -476 568 -480Q577 -483 580 -491Q583 -499 585 -506Q588 -514 593 -544Q596 -555 599 -567Q603 -572 598 -576Q593 -581 588 -577ZM236 -542Q242 -542 250 -540Q260 -544 275 -541Q288 -544 292 -530Q286 -520 291 -513Q290 -506 287 -497Q288 -491 283 -490Q278 -489 274 -487Q269 -475 253 -459Q239 -447 231 -433Q230 -429 225 -424Q217 -416 217 -410Q212 -402 221 -397Q233 -402 246 -403Q259 -407 273 -408Q306 -412 322 -402Q332 -395 341 -383Q343 -374 339 -353Q331 -340 321 -328Q319 -324 312 -316Q303 -305 301 -299Q303 -293 311 -295Q319 -295 326 -290Q330 -291 334 -288Q339 -284 336 -281Q332 -268 323 -263Q285 -262 247 -261Q238 -260 230 -260Q221 -260 216 -252Q216 -246 215 -243L212 -238Q211 -235 211 -229Q218 -217 207 -210Q202 -206 198 -211Q194 -215 191 -218Q186 -221 178 -237Q173 -258 174 -262Q173 -271 177 -289Q180 -304 179 -315Q178 -319 180 -331Q181 -341 179 -347Q173 -350 170 -345Q166 -339 164 -335Q149 -318 134 -301Q130 -299 123 -290Q117 -282 111 -280Q103 -274 95 -268Q87 -262 77 -259Q75 -260 71 -259Q66 -258 65 -261Q63 -277 80 -286Q103 -313 122 -343Q131 -356 139 -370Q145 -376 151 -389Q157 -401 162 -407Q166 -419 177 -428Q190 -452 214 -485Q215 -489 212 -491Q208 -493 204 -492Q200 -490 191 -491Q181 -492 177 -489Q166 -482 160 -487Q140 -494 119 -501Q124 -508 133 -508Q136 -512 146 -514Q158 -513 170 -521Q203 -530 236 -542ZM599 -437Q613 -437 615 -435Q630 -436 645 -425Q658 -415 659 -410Q656 -404 665 -400Q685 -404 704 -409Q715 -411 726 -413Q730 -412 738 -415Q746 -418 751 -417Q771 -418 791 -423Q809 -424 829 -421Q840 -420 851 -414Q861 -413 868 -406Q875 -399 883 -392Q889 -384 893 -374Q895 -370 893 -363Q890 -354 892 -351Q900 -342 892 -321Q886 -317 886 -311Q885 -304 883 -298Q883 -293 876 -286Q870 -279 869 -274Q860 -266 858 -254Q845 -238 834 -221Q825 -217 820 -206Q820 -202 814 -197Q809 -193 808 -190Q807 -185 799 -178Q792 -172 790 -167Q780 -159 775 -149Q768 -147 766 -141Q763 -135 759 -130Q754 -130 746 -124Q740 -120 736 -119Q729 -117 724 -120Q718 -124 714 -128Q708 -133 700 -130Q690 -132 680 -129Q659 -130 640 -126Q614 -125 588 -125Q570 -99 564 -79Q558 -75 559 -67Q559 -64 562 -53Q594 -57 622 -65Q668 -71 714 -78Q734 -80 753 -83Q779 -84 804 -85Q827 -86 834 -85Q850 -82 857 -70Q863 -64 867 -57Q873 -50 870 -43Q874 -36 868 -31Q863 -27 860 -21Q858 -19 849 -14Q839 -9 835 -3Q834 4 825 4Q816 4 815 9Q804 11 798 19Q792 17 788 23Q784 30 779 29Q775 28 760 30Q755 29 750 27Q757 20 763 12Q769 7 777 -5Q784 -16 789 -20Q798 -30 805 -44Q811 -48 807 -52Q801 -57 794 -53Q784 -55 774 -55Q762 -54 750 -53Q718 -55 688 -51Q669 -52 645 -49Q634 -47 595 -35Q591 -38 585 -34Q579 -30 576 -32Q562 -31 547 -22Q539 -24 530 -26Q522 -28 518 -38Q515 -42 505 -47Q492 -54 488 -63Q494 -90 518 -107L552 -121Q538 -124 529 -126Q526 -128 498 -139Q468 -145 460 -160Q450 -168 439 -191Q433 -203 433 -217Q433 -233 436 -245Q441 -259 442 -274Q448 -292 453 -310Q471 -345 481 -369Q481 -383 491 -393Q503 -391 511 -402Q520 -406 526 -411Q551 -424 553 -424Q529 -397 513 -336Q508 -320 503 -305Q499 -295 495 -273Q486 -252 486 -226Q480 -218 482 -200Q485 -189 494 -179Q506 -159 521 -153Q539 -155 556 -158Q571 -160 585 -163Q592 -167 590 -177Q590 -178 596 -211Q594 -217 597 -226Q601 -238 596 -242Q578 -250 559 -258Q550 -261 551 -265Q552 -265 554 -265Q571 -268 587 -271Q601 -273 607 -277Q611 -293 610 -311Q609 -320 610 -330Q611 -339 603 -343Q596 -339 584 -344Q573 -346 562 -348Q553 -357 551 -362Q549 -370 560 -372Q579 -374 597 -384Q615 -386 616 -399Q613 -404 611 -418Q610 -425 604 -428Q597 -431 599 -437ZM796 -379L790 -378Q779 -379 750 -375Q731 -372 715 -367Q702 -367 691 -362Q686 -360 679 -359Q667 -358 663 -354Q650 -347 658 -331Q660 -325 656 -313Q653 -304 654 -298Q656 -295 654 -289Q651 -279 657 -276Q661 -274 667 -276Q676 -279 679 -276Q685 -254 677 -250Q674 -247 666 -247Q656 -246 655 -240Q652 -237 651 -227Q651 -219 648 -215Q644 -211 644 -199Q644 -192 642 -187Q642 -182 639 -177Q636 -172 642 -168Q659 -173 677 -172Q683 -175 695 -175Q710 -175 715 -178Q731 -178 744 -189Q747 -195 755 -201Q764 -207 766 -212Q771 -216 775 -224Q780 -234 784 -237Q800 -266 820 -307Q827 -321 831 -352Q836 -371 821 -379Q802 -381 796 -379ZM270 -377L264 -375Q246 -370 228 -365Q221 -361 224 -351Q223 -340 221 -330Q221 -321 219 -301Q212 -284 222 -282Q230 -285 248 -291Q259 -293 265 -302Q271 -312 276 -320Q284 -340 291 -361Q295 -371 287 -376Q278 -381 270 -377Z"/>
</svg>