<svg xmlns="http://www.w3.org/2000/svg" viewBox="0 -800 1024 1024">
	<path fill="#000000" d="M341 -711H344Q352 -707 353 -697Q354 -687 356 -678Q360 -671 354 -661Q343 -658 339 -647Q336 -637 331 -628Q325 -625 320 -623Q314 -620 313 -613Q308 -604 302 -595Q290 -593 282 -575Q279 -564 269 -554Q259 -540 247 -526Q236 -512 230 -495Q231 -488 239 -488Q247 -488 253 -485Q289 -465 288 -439Q286 -435 286 -420Q285 -417 285 -411Q286 -405 278 -395Q272 -387 271 -382Q270 -375 259 -362Q252 -353 249 -346Q241 -340 235 -326Q229 -313 225 -309Q212 -304 215 -297Q214 -291 226 -294Q244 -298 258 -285Q266 -285 271 -278Q275 -272 274 -262Q275 -247 276 -232Q278 -229 276 -222Q274 -212 279 -209Q284 -210 288 -215Q293 -221 295 -222Q325 -255 351 -289Q352 -291 353 -294L358 -304Q360 -308 360 -309Q361 -313 363 -317Q365 -320 368 -317Q365 -300 363 -297Q361 -290 359 -284Q353 -275 353 -263Q354 -257 349 -249Q344 -241 344 -236Q340 -224 332 -213Q318 -189 304 -166Q294 -151 284 -137Q263 -109 242 -82Q236 -80 236 -75Q235 -70 233 -65Q230 -59 225 -61Q220 -63 216 -65Q208 -66 195 -81Q189 -89 180 -95Q171 -101 174 -111Q178 -119 177 -127Q184 -130 191 -141Q197 -150 200 -153Q210 -180 216 -208Q221 -230 225 -252Q223 -258 223 -265Q223 -272 216 -274Q212 -279 206 -279Q200 -279 199 -272Q196 -270 193 -263Q189 -256 186 -254Q168 -269 165 -277Q163 -284 159 -289Q154 -293 150 -298Q149 -310 153 -320Q154 -331 168 -345Q205 -393 226 -438Q234 -446 226 -452Q210 -450 194 -448Q185 -441 176 -435Q173 -431 169 -432Q164 -433 164 -438Q151 -461 138 -485Q138 -498 145 -514Q145 -520 152 -519Q159 -518 161 -523Q167 -542 177 -545Q184 -548 191 -559Q199 -570 204 -573Q229 -600 254 -628Q268 -642 282 -657Q295 -669 307 -682Q323 -698 341 -711ZM627 -710L636 -707Q644 -703 655 -703Q665 -704 668 -684Q678 -672 675 -653Q670 -646 675 -636Q678 -622 675 -605Q677 -596 691 -601Q703 -605 717 -608Q738 -612 758 -619Q764 -626 779 -624Q782 -626 788 -623Q793 -621 796 -621Q800 -625 804 -622Q808 -619 812 -618Q826 -613 839 -608Q845 -607 847 -601Q849 -596 852 -591Q860 -588 857 -568Q848 -560 850 -548Q845 -546 840 -537Q836 -530 831 -527Q820 -518 809 -510Q807 -503 797 -497Q787 -491 784 -487Q772 -481 764 -470Q749 -454 731 -445Q726 -441 720 -438Q714 -434 713 -428Q716 -423 727 -424Q736 -425 740 -423Q754 -422 750 -409Q748 -407 745 -400Q742 -392 738 -390Q726 -384 714 -379Q703 -378 694 -375Q685 -374 686 -366Q686 -358 683 -352Q680 -342 681 -332Q691 -329 686 -313Q686 -310 682 -304Q677 -297 679 -291Q679 -265 680 -262Q680 -252 685 -242Q699 -244 713 -246Q724 -251 737 -250Q744 -254 754 -254Q756 -257 772 -259Q781 -264 792 -264Q801 -264 809 -265Q824 -264 839 -264Q843 -262 851 -263Q859 -264 863 -263Q868 -263 870 -257Q873 -250 877 -249Q883 -249 883 -243Q882 -237 884 -232Q885 -220 872 -218Q861 -216 851 -216L794 -215Q782 -212 770 -210Q758 -206 745 -206Q734 -202 722 -199Q717 -200 706 -196Q699 -193 693 -194Q682 -194 681 -186Q679 -177 678 -169Q680 -156 676 -145Q673 -142 677 -135Q679 -130 679 -127Q675 -122 678 -114Q681 -106 679 -102Q677 -85 672 -70Q677 -56 676 -49Q669 -14 671 1Q673 6 668 15Q663 23 664 29Q670 40 658 48Q648 46 646 59Q643 63 643 69Q643 72 639 71Q633 68 633 63Q633 58 631 54Q627 43 629 26Q628 15 627 4Q624 -37 624 -78Q624 -98 623 -118Q622 -132 624 -145Q624 -156 624 -167Q625 -175 623 -180Q620 -186 613 -184Q605 -184 596 -184Q585 -183 574 -183Q551 -183 549 -182Q534 -183 506 -179Q474 -181 468 -183Q448 -185 427 -188Q412 -189 401 -193Q399 -197 402 -198Q405 -199 408 -199Q419 -199 429 -203Q436 -204 442 -205Q461 -207 479 -210Q492 -212 505 -214Q524 -219 540 -218Q544 -220 566 -222Q580 -223 593 -225Q611 -226 626 -235Q631 -241 628 -247Q626 -253 625 -259Q625 -285 625 -311Q623 -329 624 -345Q622 -353 620 -362Q617 -363 596 -363Q586 -366 575 -370Q564 -373 553 -376Q548 -378 542 -380Q539 -381 541 -385Q556 -391 570 -398Q598 -414 606 -414Q609 -418 615 -417Q621 -417 621 -423Q620 -435 614 -443Q615 -455 615 -468Q613 -489 616 -508Q614 -513 615 -527Q616 -541 612 -548Q614 -568 615 -588Q618 -620 617 -623Q615 -643 612 -664Q610 -673 605 -680Q598 -689 590 -688Q585 -689 585 -692Q584 -697 587 -701Q588 -707 596 -706Q602 -705 605 -707Q608 -710 616 -709Q624 -708 627 -710ZM497 -593H501Q524 -579 531 -572Q536 -569 538 -561Q540 -551 544 -548L569 -568Q574 -570 585 -580Q595 -589 603 -592Q602 -586 597 -578Q587 -566 582 -551Q578 -545 566 -537Q559 -529 559 -519Q563 -515 557 -509Q557 -506 555 -498Q551 -494 553 -488Q554 -483 554 -476Q549 -470 557 -458Q560 -453 547 -445Q537 -439 529 -446Q524 -445 516 -453Q493 -468 488 -479Q475 -489 478 -504Q476 -518 486 -538Q487 -543 493 -554Q500 -567 498 -576Q497 -581 495 -586Q492 -590 497 -593ZM703 -588L694 -587Q681 -592 678 -570Q668 -563 672 -551Q673 -540 674 -530Q666 -515 674 -494Q672 -479 675 -463Q675 -449 680 -450Q683 -453 684 -455L693 -465Q694 -467 697 -470Q703 -474 709 -483Q716 -494 721 -497Q732 -514 743 -531Q753 -548 758 -567Q759 -572 757 -575Q755 -579 751 -578Q734 -577 722 -583Q712 -588 703 -588Z"/>
</svg>