<svg xmlns="http://www.w3.org/2000/svg" viewBox="0 -800 1024 1024">
	<path fill="#000000" d="M687 -693Q689 -693 698 -691Q706 -691 713 -691Q720 -693 741 -687Q746 -684 752 -681Q757 -678 760 -672Q768 -664 768 -652Q771 -635 772 -631Q770 -628 768 -616Q771 -603 767 -590Q768 -582 764 -570Q760 -556 761 -549Q764 -546 773 -546Q785 -545 789 -541Q791 -537 799 -538Q807 -539 809 -533Q807 -520 810 -505Q809 -497 800 -496Q792 -495 785 -494Q773 -493 760 -486Q750 -482 749 -473Q748 -464 745 -456Q738 -440 737 -421Q740 -414 735 -409Q729 -404 726 -398Q725 -386 723 -375Q716 -368 712 -349Q713 -346 708 -335Q707 -328 722 -330Q736 -334 753 -335Q762 -338 802 -345Q805 -345 811 -350Q818 -356 824 -353Q831 -347 845 -353Q867 -352 889 -352Q897 -354 901 -343Q902 -339 908 -339Q914 -339 915 -337Q919 -334 916 -327Q913 -321 914 -318Q916 -315 914 -311Q912 -308 908 -310Q896 -312 896 -300Q894 -296 886 -298Q879 -300 877 -298Q842 -295 840 -295Q824 -292 807 -289Q791 -293 784 -289Q777 -285 749 -285Q742 -283 734 -281Q724 -279 714 -277Q708 -275 697 -275Q681 -275 675 -270Q659 -272 649 -266Q642 -268 626 -261Q610 -263 598 -258Q582 -256 566 -255Q547 -253 535 -248Q524 -249 515 -245Q502 -246 491 -242Q483 -240 474 -238Q461 -238 450 -232Q448 -231 441 -231Q434 -231 431 -228Q417 -222 402 -219Q382 -216 362 -226Q350 -234 337 -237Q330 -241 332 -244Q335 -247 347 -249Q361 -253 374 -257Q397 -262 419 -267Q444 -275 482 -282Q487 -284 499 -286Q510 -288 520 -292Q523 -294 537 -296Q552 -296 559 -303L545 -313Q536 -316 531 -322Q526 -329 520 -335Q513 -344 513 -355Q513 -359 510 -366Q506 -374 508 -378Q511 -383 511 -392Q511 -403 513 -406Q511 -413 513 -426Q518 -436 508 -440Q495 -437 484 -440Q457 -440 435 -450Q431 -453 425 -455Q420 -457 422 -462Q436 -464 449 -466Q463 -470 476 -475Q481 -475 488 -478Q498 -482 504 -481Q512 -484 513 -493Q514 -500 511 -508Q508 -527 507 -544Q509 -554 502 -562Q496 -570 491 -577Q487 -583 492 -585Q496 -587 500 -582Q508 -587 519 -580Q524 -575 536 -573Q548 -571 554 -566Q564 -560 567 -541Q569 -524 575 -518Q579 -514 584 -514Q596 -517 610 -518Q619 -521 639 -525Q656 -528 672 -531Q680 -532 682 -539Q684 -546 686 -552Q687 -586 690 -618Q692 -646 685 -659Q684 -669 670 -669Q663 -667 661 -673Q659 -679 665 -682Q670 -683 687 -693ZM225 -565H226Q232 -561 238 -561Q247 -561 251 -555Q256 -549 261 -543Q261 -536 265 -530Q270 -525 273 -519Q269 -512 271 -498Q272 -489 271 -485Q273 -472 271 -462Q265 -450 265 -433Q270 -419 266 -404Q261 -389 261 -376Q272 -371 270 -359Q281 -349 281 -332Q285 -322 281 -313Q278 -304 275 -295Q272 -292 273 -283Q274 -274 270 -270Q270 -262 264 -255Q261 -253 261 -243Q263 -239 259 -234Q256 -230 257 -229Q269 -238 304 -278Q326 -297 343 -325Q350 -335 354 -338Q355 -338 355 -336Q353 -332 352 -329L345 -315Q344 -312 342 -308Q341 -302 336 -295Q329 -286 329 -282Q317 -272 316 -261Q313 -254 308 -251Q308 -248 303 -244Q298 -240 299 -234Q292 -224 284 -214Q279 -203 269 -183Q270 -173 262 -162Q261 -160 248 -146Q248 -141 236 -133Q231 -129 224 -116Q215 -99 203 -98Q196 -94 191 -101Q186 -107 179 -111Q177 -115 168 -121Q160 -127 158 -133Q151 -142 161 -150Q161 -154 168 -161Q175 -168 175 -175Q177 -178 181 -180Q185 -183 185 -189Q190 -194 185 -200Q181 -205 174 -207Q171 -211 164 -212Q158 -213 155 -215Q142 -226 137 -240Q129 -246 121 -264Q116 -282 108 -299Q103 -308 106 -321Q108 -327 115 -343Q125 -357 148 -367Q158 -375 179 -382Q196 -388 202 -391Q207 -408 205 -424L210 -460Q211 -466 211 -473Q210 -477 212 -489Q214 -502 210 -510Q210 -514 208 -514Q204 -515 200 -511Q167 -505 119 -510Q115 -508 114 -509Q114 -514 120 -519Q146 -538 175 -550Q188 -558 205 -561Q208 -559 225 -565ZM666 -479H665Q647 -476 628 -474Q617 -472 606 -471Q598 -469 590 -468Q582 -466 579 -458Q575 -444 574 -428Q575 -424 573 -416Q570 -407 572 -402Q574 -397 571 -387Q567 -377 570 -371Q569 -365 569 -334Q565 -330 566 -321Q567 -312 565 -309Q563 -305 566 -304Q574 -303 580 -305Q596 -307 612 -310Q631 -314 650 -319Q656 -320 658 -327Q659 -333 662 -338Q663 -361 670 -388Q673 -399 675 -410Q676 -424 679 -436Q684 -472 685 -473Q678 -484 666 -479ZM192 -352L185 -351Q178 -349 172 -345Q165 -339 152 -337Q150 -335 141 -331Q130 -326 126 -319Q120 -313 122 -305Q124 -296 125 -288L135 -260Q155 -227 175 -230Q184 -231 185 -238Q187 -246 189 -252Q194 -294 198 -337Q200 -343 199 -351Q198 -355 192 -352ZM593 -245Q600 -241 608 -245Q596 -234 582 -224Q569 -212 559 -198Q550 -194 545 -185Q541 -177 536 -170Q528 -156 518 -146Q512 -123 507 -116Q503 -109 515 -111Q554 -118 593 -130Q598 -133 599 -131Q600 -129 596 -127Q592 -127 588 -123Q583 -118 580 -118Q576 -115 570 -112Q564 -109 568 -102Q561 -90 549 -89Q548 -83 543 -81Q539 -80 534 -78Q525 -69 514 -65Q510 -64 496 -50Q491 -46 483 -49Q480 -47 476 -51Q471 -55 467 -52Q454 -54 445 -66Q434 -82 438 -93Q431 -100 439 -113Q432 -115 429 -113Q429 -114 431 -117Q464 -153 467 -157Q475 -163 482 -170Q486 -177 494 -184Q497 -184 502 -190Q507 -196 512 -195Q516 -203 523 -205Q524 -209 531 -212Q536 -214 537 -216Q550 -221 560 -230Q576 -239 593 -245ZM768 -191Q776 -191 782 -186Q790 -185 806 -177Q810 -179 814 -174Q818 -170 820 -172Q856 -159 883 -139Q887 -130 891 -121Q903 -115 896 -99Q899 -94 895 -87Q893 -82 893 -79Q883 -68 867 -68Q860 -61 849 -74Q844 -69 837 -75Q832 -79 829 -86Q822 -95 815 -111Q807 -130 801 -137Q795 -141 789 -150Q781 -162 775 -165Q772 -178 768 -191Z"/>
</svg>