<svg xmlns="http://www.w3.org/2000/svg" viewBox="0 -800 1024 1024">
	<path fill="#000000" d="M516 -730Q521 -730 522 -727Q526 -727 529 -724Q533 -721 536 -721Q541 -715 551 -709Q567 -699 570 -691Q578 -688 578 -676Q582 -666 578 -656Q583 -650 584 -643Q583 -641 578 -643Q572 -642 566 -634Q562 -634 555 -630Q547 -625 541 -626Q535 -628 532 -624Q528 -621 523 -618Q512 -616 503 -608Q499 -605 490 -604Q481 -603 478 -599Q462 -594 452 -580Q441 -579 429 -565Q421 -557 441 -553Q451 -555 458 -549Q465 -544 472 -539Q488 -507 493 -501Q520 -506 536 -513Q551 -522 563 -523Q569 -528 575 -526Q582 -525 589 -525Q603 -526 615 -531Q621 -528 632 -531Q642 -534 647 -532Q671 -532 683 -530Q695 -516 695 -506Q696 -500 693 -498Q690 -495 687 -491Q683 -486 692 -481Q693 -476 686 -475Q679 -473 673 -477Q664 -466 652 -466Q647 -462 638 -462Q626 -461 623 -459Q619 -457 613 -460Q608 -463 606 -461Q604 -455 591 -455Q584 -444 568 -449Q558 -444 548 -442Q535 -440 523 -434Q513 -423 526 -410Q534 -380 521 -372Q519 -367 516 -367Q513 -367 509 -372Q505 -364 507 -353Q505 -339 507 -301Q508 -294 508 -287Q507 -279 508 -271Q508 -263 518 -264Q527 -264 536 -264Q556 -264 567 -263Q585 -264 603 -260Q615 -254 619 -257Q624 -255 637 -255Q651 -255 658 -251Q669 -249 676 -250Q706 -244 735 -239Q743 -233 753 -234Q755 -230 761 -230Q768 -230 771 -227Q771 -223 773 -223Q778 -224 783 -224Q783 -216 794 -215Q801 -214 804 -211Q811 -206 819 -202Q828 -199 831 -190Q829 -183 840 -176Q838 -170 844 -162Q849 -155 849 -150Q848 -147 852 -142Q856 -137 852 -135Q843 -131 832 -140Q825 -136 817 -138Q809 -141 801 -142Q798 -147 789 -147Q784 -147 780 -149Q776 -149 775 -152Q775 -156 774 -161Q766 -160 759 -165Q743 -171 729 -180Q714 -186 699 -187Q691 -190 680 -190Q677 -196 672 -194Q667 -192 663 -193Q641 -197 619 -201Q580 -210 541 -220Q531 -220 520 -221Q511 -224 509 -211Q514 -179 512 -148Q514 -142 514 -110Q512 -106 514 -94Q515 -83 512 -78Q514 -67 514 -46Q515 -26 510 -9Q504 8 500 27Q496 34 494 43Q491 53 482 54Q481 55 470 59Q462 62 463 69Q465 76 459 78Q453 80 452 72Q444 73 441 68Q438 62 435 57Q431 52 430 45Q429 35 420 35Q415 36 415 34Q414 32 415 30Q418 23 415 18Q425 14 435 6Q438 -2 443 -42Q444 -60 450 -75Q446 -85 448 -103Q450 -118 449 -122Q449 -150 449 -179Q450 -187 450 -195Q447 -206 449 -219Q452 -231 441 -238Q430 -240 418 -243Q413 -246 403 -245Q393 -244 389 -247Q383 -245 376 -236Q371 -229 367 -227Q358 -227 353 -221Q349 -214 343 -209Q331 -207 321 -195Q306 -188 290 -182Q286 -179 276 -178Q266 -177 262 -175Q258 -166 250 -166Q247 -166 248 -171Q263 -189 296 -220Q308 -236 320 -252Q341 -275 359 -299Q368 -307 378 -322Q392 -342 401 -348Q402 -358 415 -371Q430 -393 433 -401Q431 -407 425 -410Q417 -414 414 -408Q392 -404 389 -404Q385 -403 381 -407Q378 -410 375 -406Q375 -397 366 -398Q358 -398 351 -397Q349 -394 344 -396Q338 -398 337 -392Q318 -387 312 -388Q307 -385 285 -382Q282 -380 275 -380Q268 -381 264 -378Q238 -379 211 -383Q203 -382 192 -387Q183 -391 177 -391Q173 -397 177 -399Q181 -401 183 -403Q199 -404 221 -415Q233 -423 250 -425Q259 -429 268 -434Q280 -438 292 -442Q300 -444 303 -446L327 -452Q330 -454 338 -456Q371 -463 403 -471Q424 -477 441 -486Q444 -498 432 -521Q415 -540 396 -547Q394 -557 384 -553Q382 -556 387 -562Q392 -567 391 -571L433 -611Q436 -617 446 -628Q456 -640 460 -647Q467 -650 475 -663Q482 -674 487 -678Q500 -693 500 -708Q508 -719 516 -730ZM441 -283Q437 -283 433 -279Q428 -274 425 -274Q421 -271 404 -265Q403 -261 407 -255Q409 -253 411 -253Q413 -253 414 -257Q431 -258 447 -260Q450 -266 449 -276Q449 -285 441 -283Z"/>
</svg>