<svg xmlns="http://www.w3.org/2000/svg" viewBox="0 -800 1024 1024">
	<path fill="#000000" d="M430 -755Q438 -755 445 -755Q450 -753 464 -752Q478 -751 484 -748Q493 -750 502 -745Q511 -740 504 -732Q501 -723 502 -718Q503 -710 498 -710Q490 -711 482 -712Q470 -708 459 -712Q449 -716 439 -719Q417 -734 400 -747Q415 -751 430 -755ZM706 -733H711Q722 -729 734 -727Q747 -725 754 -715Q757 -705 755 -681Q751 -668 750 -653Q749 -639 749 -626Q747 -604 745 -597Q744 -585 743 -573Q761 -579 777 -586Q780 -593 786 -593Q792 -593 798 -595Q805 -602 812 -600Q820 -596 840 -597Q858 -598 866 -595Q876 -591 873 -579Q870 -568 862 -562Q857 -553 849 -552Q845 -555 837 -551Q830 -548 828 -551L803 -548Q796 -548 791 -544Q787 -540 782 -538Q775 -533 763 -529Q762 -531 768 -537Q773 -542 774 -545Q777 -549 776 -552Q774 -556 769 -554Q761 -551 754 -550Q746 -549 741 -542Q741 -524 741 -506Q735 -497 733 -474Q731 -453 726 -444Q727 -440 725 -433Q722 -425 725 -422Q741 -422 779 -426Q804 -426 824 -422Q833 -413 854 -409Q870 -406 875 -403Q880 -403 879 -397Q878 -390 875 -388Q867 -383 859 -378Q851 -373 843 -373Q841 -373 817 -379Q794 -385 770 -386Q745 -388 721 -394Q711 -402 694 -382Q694 -377 687 -375Q680 -374 679 -370Q670 -355 657 -344Q644 -343 636 -339Q633 -339 630 -343Q651 -372 663 -405Q665 -407 665 -412Q665 -419 669 -421Q687 -469 691 -487Q692 -499 692 -512Q681 -512 670 -504Q660 -495 654 -490Q651 -483 650 -475Q649 -468 642 -461Q625 -476 617 -487Q605 -503 604 -520Q614 -550 623 -580Q624 -584 628 -584Q638 -580 646 -568Q652 -563 651 -549Q651 -536 656 -531Q679 -538 698 -552Q704 -564 700 -580Q701 -590 701 -609Q701 -635 704 -648Q706 -675 700 -697Q699 -698 693 -702L681 -711Q678 -713 674 -715Q672 -722 677 -727Q682 -733 689 -730Q699 -725 706 -733ZM200 -488L202 -510Q186 -507 164 -488Q162 -481 151 -470Q140 -459 138 -450Q133 -437 133 -421Q134 -411 118 -411Q115 -415 112 -421Q109 -426 102 -427Q100 -433 91 -443Q83 -451 81 -456Q83 -463 99 -503Q100 -517 113 -524Q111 -542 124 -555Q127 -559 131 -565Q135 -571 140 -571Q145 -562 150 -561Q165 -552 161 -536Q152 -533 150 -522Q152 -515 153 -508Q178 -516 204 -531Q209 -547 205 -554Q206 -564 206 -582Q206 -609 209 -622Q211 -649 205 -670Q196 -675 180 -687Q178 -694 182 -700Q187 -707 194 -704Q204 -699 211 -707H215Q227 -703 239 -701Q252 -698 259 -687Q262 -677 260 -654Q254 -628 253 -599Q253 -582 250 -569Q249 -558 248 -547Q266 -552 282 -559Q285 -566 292 -565Q298 -565 304 -567Q311 -574 318 -572Q326 -567 338 -568Q351 -569 358 -566Q368 -562 365 -551Q363 -541 353 -535Q348 -525 340 -524Q336 -527 329 -523Q323 -519 320 -523L309 -521Q302 -522 295 -516Q289 -512 287 -511Q280 -506 268 -502Q267 -504 273 -510Q278 -515 279 -518Q282 -522 281 -525Q279 -529 274 -527Q266 -524 259 -523Q251 -522 246 -515Q246 -497 246 -480Q240 -470 238 -447Q236 -426 231 -417Q233 -413 230 -406Q227 -399 230 -396Q253 -397 272 -402Q299 -402 304 -401Q312 -393 329 -390Q341 -388 349 -383Q354 -383 353 -377Q352 -370 349 -368Q340 -361 332 -358Q323 -352 318 -352Q315 -352 301 -356Q284 -361 263 -361Q254 -360 243 -364Q235 -366 226 -367Q219 -372 211 -367Q207 -365 199 -355Q198 -347 188 -339Q178 -331 174 -326Q165 -311 151 -301Q139 -300 131 -296Q127 -296 124 -300Q152 -341 157 -361Q159 -363 164 -375Q171 -393 175 -395Q194 -452 196 -460Q194 -465 198 -475Q201 -485 200 -488ZM583 -699H595Q604 -692 600 -681Q598 -675 589 -664Q582 -661 575 -657Q568 -653 561 -658Q548 -654 534 -650Q527 -653 514 -649Q507 -647 502 -648Q480 -640 457 -640Q432 -637 406 -631Q379 -637 351 -644Q351 -646 358 -649Q366 -653 369 -657Q391 -660 412 -667Q453 -679 496 -687Q502 -687 511 -691Q526 -698 535 -694Q572 -696 583 -699ZM445 -599L498 -598Q508 -599 517 -592Q520 -582 511 -574Q505 -568 496 -566Q485 -562 464 -566Q438 -573 414 -585Q420 -594 445 -599ZM539 -543H542Q549 -539 545 -533Q541 -528 537 -524Q542 -518 534 -513Q531 -511 521 -508Q515 -509 505 -504Q497 -500 492 -500Q480 -501 470 -483Q470 -468 463 -456Q461 -448 466 -448Q474 -448 482 -450Q500 -456 532 -462Q548 -462 564 -464Q580 -467 594 -459Q607 -458 612 -446Q618 -433 610 -421Q606 -413 601 -405Q595 -392 578 -375Q574 -372 568 -368Q562 -363 564 -358Q573 -356 571 -348Q568 -341 566 -334Q564 -332 562 -331L553 -327Q551 -325 548 -324Q527 -321 512 -324Q479 -321 448 -324Q444 -324 441 -316Q437 -306 430 -308Q414 -308 409 -324Q388 -336 378 -350Q373 -367 378 -383Q385 -404 395 -424Q398 -429 400 -442Q402 -457 408 -462Q407 -468 413 -477Q417 -484 416 -488Q393 -492 370 -493Q365 -495 366 -497Q371 -504 379 -501Q388 -509 399 -512Q411 -515 422 -519Q451 -525 480 -534Q491 -539 502 -536Q521 -539 539 -543ZM546 -431L526 -426Q514 -424 502 -422Q480 -417 479 -417Q465 -415 453 -416Q445 -411 445 -389Q445 -373 441 -366Q442 -363 440 -356Q438 -349 442 -346Q475 -350 512 -358Q533 -385 548 -415Q553 -418 552 -426Q551 -433 546 -431ZM556 -283Q575 -282 592 -278Q595 -276 605 -276Q617 -276 621 -271Q633 -252 629 -231Q628 -227 623 -197Q608 -160 595 -150Q589 -131 575 -117Q561 -102 546 -88Q548 -78 557 -76Q566 -73 574 -71Q590 -64 609 -58L643 -46Q675 -34 708 -23Q724 -15 739 -12Q746 -11 758 -2Q767 4 774 6Q778 10 793 18Q799 28 815 38Q826 42 826 52Q826 63 817 69Q803 71 800 76Q792 88 780 83Q721 50 662 17Q622 1 582 -16Q553 -25 516 -40Q511 -44 502 -40Q501 -40 489 -32Q483 -26 460 -14Q454 -14 444 -8Q433 -2 429 -1Q423 -2 415 4Q405 11 398 10Q388 8 377 12Q373 12 370 9Q382 2 394 -5Q402 -17 427 -34Q449 -49 457 -58Q441 -67 422 -70Q403 -73 386 -78Q381 -76 374 -79Q364 -82 359 -80Q341 -88 322 -94Q304 -101 287 -114Q281 -117 283 -122Q285 -126 291 -126Q302 -124 322 -125Q346 -126 357 -124Q373 -127 388 -124Q403 -120 417 -118Q455 -109 493 -100Q534 -143 558 -198Q569 -226 561 -238Q547 -234 533 -229Q520 -226 507 -221Q495 -217 482 -222Q471 -219 448 -227Q433 -232 423 -232Q415 -230 413 -237Q412 -243 419 -243Q426 -239 433 -243Q440 -247 446 -249Q466 -260 511 -275Q535 -280 556 -283Z"/>
</svg>