<svg xmlns="http://www.w3.org/2000/svg" viewBox="0 -800 1024 1024">
	<path fill="#000000" d="M609 -684Q616 -680 619 -672Q642 -656 632 -631Q632 -622 626 -615Q627 -611 624 -611Q619 -611 619 -606Q602 -589 599 -582Q594 -583 593 -579Q592 -576 591 -571Q582 -562 578 -561Q572 -547 562 -542Q556 -531 546 -522Q540 -506 532 -498Q527 -494 522 -482Q518 -472 513 -467Q509 -463 504 -450Q500 -440 496 -435Q487 -418 481 -402Q476 -397 479 -395Q485 -392 493 -393Q510 -397 527 -399Q532 -397 540 -401Q547 -405 550 -405Q556 -406 560 -405Q565 -404 570 -408Q574 -412 578 -410Q587 -407 592 -412Q596 -418 602 -420Q618 -423 633 -430Q651 -432 661 -438Q688 -442 699 -459Q702 -465 707 -462Q712 -459 717 -456Q725 -462 732 -457Q734 -460 736 -460Q738 -460 740 -458Q742 -452 747 -455Q750 -456 753 -454Q754 -453 751 -450Q751 -446 754 -445Q756 -445 758 -448Q761 -451 763 -451Q766 -451 767 -448Q772 -442 768 -435Q764 -427 760 -430Q754 -431 753 -426Q751 -421 748 -418Q749 -413 746 -413Q742 -412 739 -410Q733 -415 727 -409Q727 -404 722 -403Q715 -401 710 -399Q707 -395 703 -393Q698 -390 699 -384Q693 -378 688 -372Q682 -366 675 -362L651 -336Q638 -316 620 -298Q611 -282 602 -266Q598 -265 596 -256Q594 -249 590 -247Q586 -234 567 -207Q563 -197 557 -194Q551 -188 550 -188Q550 -179 545 -174Q539 -170 533 -165Q535 -158 527 -152Q522 -155 519 -149Q514 -142 513 -146Q501 -161 494 -156Q489 -158 487 -166Q486 -172 484 -174Q490 -177 490 -185Q490 -187 489 -187Q485 -185 482 -180Q476 -183 478 -186Q480 -189 482 -194Q484 -195 485 -202Q486 -208 486 -205Q489 -205 492 -211Q495 -217 499 -218Q499 -226 504 -231Q510 -237 515 -242Q523 -250 525 -256Q534 -266 541 -277Q546 -292 560 -310Q574 -326 588 -343Q590 -348 596 -355Q601 -361 600 -367Q597 -361 584 -365Q580 -359 576 -359Q572 -358 567 -355Q563 -352 558 -355Q553 -350 547 -349Q536 -348 525 -346Q521 -347 517 -350Q514 -351 513 -346Q503 -349 498 -345Q495 -340 486 -340Q481 -340 479 -338L455 -343Q448 -345 441 -346Q438 -347 440 -351Q440 -357 437 -357Q432 -357 428 -359Q427 -362 423 -364Q419 -366 418 -368Q419 -392 421 -411Q423 -421 424 -431Q424 -442 431 -450Q436 -463 449 -471Q444 -478 446 -483Q455 -492 457 -498Q461 -513 474 -526Q478 -529 482 -537Q487 -547 493 -550Q494 -557 501 -566Q507 -574 508 -576Q511 -577 514 -582Q518 -588 522 -591Q523 -594 526 -596Q530 -599 530 -601Q533 -603 536 -610Q540 -618 545 -621Q549 -628 559 -637Q570 -647 572 -652Q576 -659 597 -677Q603 -674 609 -684ZM287 -679Q296 -678 304 -672Q307 -673 324 -671Q338 -669 351 -665Q365 -668 374 -646Q372 -641 377 -632Q380 -627 375 -609Q369 -603 370 -590Q370 -579 369 -575Q362 -563 362 -540Q364 -535 359 -533Q355 -530 352 -527Q341 -516 332 -504Q328 -490 315 -481Q304 -476 306 -460Q313 -443 320 -427Q319 -421 324 -409Q329 -397 328 -389Q329 -385 333 -370Q331 -354 338 -343Q336 -334 336 -299Q333 -268 334 -236Q332 -228 333 -211Q334 -194 333 -187Q333 -179 333 -171Q330 -163 328 -143Q319 -130 320 -122Q313 -111 309 -99Q308 -86 290 -70Q281 -55 267 -44Q262 -44 258 -39Q256 -37 253 -30Q249 -26 245 -30Q242 -34 239 -37Q232 -47 224 -58Q224 -66 222 -80Q218 -83 219 -87Q220 -90 226 -89Q237 -84 248 -103Q260 -122 263 -144Q268 -159 268 -174Q272 -193 271 -213Q269 -224 272 -234Q274 -239 273 -245Q272 -251 266 -249Q263 -244 253 -236Q241 -226 238 -218Q228 -213 220 -200Q201 -193 186 -176Q170 -169 155 -159Q152 -162 157 -170Q161 -183 171 -193Q177 -207 185 -220Q201 -248 208 -262Q221 -284 235 -305Q241 -317 247 -329Q270 -361 270 -389Q269 -406 267 -424Q263 -429 257 -426Q239 -409 221 -393Q203 -377 185 -366Q179 -357 168 -352Q166 -350 160 -346Q153 -342 152 -337Q150 -332 145 -332Q139 -333 136 -331Q130 -331 124 -324Q118 -317 115 -317Q104 -317 98 -313Q97 -318 103 -324Q107 -328 108 -331Q121 -348 134 -365Q149 -387 197 -442Q203 -453 227 -479Q234 -486 220 -490Q186 -488 170 -488Q143 -483 136 -484Q133 -484 113 -478Q101 -479 89 -480Q85 -483 80 -485Q76 -487 76 -491Q80 -495 91 -498Q101 -501 105 -505Q130 -514 141 -514Q173 -520 193 -520Q207 -521 220 -522Q229 -522 239 -520Q249 -518 257 -525Q287 -559 292 -579Q299 -592 305 -605Q307 -629 306 -635Q291 -650 281 -652Q264 -655 267 -660Q276 -672 287 -679ZM697 -332Q701 -333 704 -327Q708 -320 711 -319Q724 -304 719 -281Q701 -262 694 -241Q696 -235 689 -228Q684 -223 684 -218Q679 -205 674 -193Q674 -189 671 -183Q666 -175 669 -170Q666 -164 665 -153Q663 -137 660 -132L661 -114Q660 -97 667 -82Q686 -74 704 -66Q712 -63 721 -62Q730 -62 735 -55Q745 -55 757 -49Q761 -45 766 -50Q770 -55 773 -51Q783 -54 797 -47Q800 -53 806 -52Q811 -51 816 -51Q819 -47 827 -53Q828 -48 832 -48Q839 -52 849 -53Q856 -51 862 -53Q875 -54 887 -56Q899 -59 907 -51Q914 -59 930 -59Q943 -71 950 -98Q955 -109 953 -126Q953 -130 954 -130Q957 -126 960 -116Q961 -108 962 -101Q962 -99 962 -98Q962 -97 960 -97Q955 -99 954 -94Q958 -88 962 -82Q962 -79 963 -79Q966 -80 967 -79Q964 -73 969 -64Q969 -54 978 -53Q985 -54 987 -46Q990 -36 991 -35Q994 -37 995 -36Q997 -34 996 -30Q998 -27 997 -26Q994 -25 991 -25Q987 -25 986 -18Q985 -13 982 -13Q980 -12 976 -13Q971 -15 969 -12Q963 -8 952 -8Q946 -2 937 -3Q929 -4 922 -3Q908 -4 893 -5Q882 -3 870 -2Q866 1 861 -2Q855 -5 852 -2Q847 0 829 0Q817 2 813 -5Q810 2 804 0Q798 -3 792 -2Q795 -6 791 -8Q786 -10 784 -3Q781 1 777 -3Q772 -8 771 -7Q770 -3 768 -3Q765 -4 761 -8Q756 -13 752 -7Q752 -4 751 -3Q746 -4 742 -6Q730 -8 717 -11Q712 -12 707 -14Q698 -17 688 -20Q684 -20 684 -22Q685 -28 684 -34Q678 -37 672 -28Q642 -42 624 -77Q625 -84 621 -92Q617 -102 618 -106Q617 -136 620 -164Q625 -185 632 -205Q634 -216 651 -256Q670 -288 689 -320Q687 -325 697 -332Z"/>
</svg>