<svg xmlns="http://www.w3.org/2000/svg" viewBox="0 -800 1024 1024">
	<path fill="#000000" d="M468 -767Q476 -769 480 -764Q490 -760 500 -763Q506 -767 510 -761Q514 -756 518 -751Q519 -745 526 -743Q532 -740 536 -741Q538 -738 535 -731Q532 -724 535 -721Q543 -718 555 -724Q566 -728 579 -727Q583 -726 587 -731Q592 -737 596 -734Q602 -725 611 -728Q620 -730 630 -729Q638 -733 651 -720Q649 -714 657 -704Q662 -701 659 -696Q656 -691 651 -693Q646 -695 643 -691Q643 -690 640 -684Q638 -679 626 -682Q615 -675 603 -674Q599 -672 592 -672Q583 -672 580 -669Q577 -666 569 -667Q562 -668 559 -666Q547 -659 531 -662Q523 -660 515 -660Q507 -661 501 -656L461 -655Q444 -651 427 -651Q422 -647 409 -647Q391 -644 373 -642Q360 -643 358 -643Q350 -642 347 -635Q342 -611 339 -605Q331 -586 329 -564Q326 -545 329 -524Q327 -509 324 -494Q321 -484 317 -474Q320 -469 325 -472Q330 -474 335 -474Q399 -499 406 -501Q427 -511 430 -520Q432 -539 434 -559Q435 -566 432 -570Q428 -574 427 -578Q434 -584 443 -588Q454 -588 461 -589Q469 -589 470 -581Q471 -574 474 -567Q477 -562 476 -550Q475 -532 482 -527Q484 -526 489 -527Q496 -529 499 -526Q500 -524 506 -521Q513 -517 514 -513Q519 -507 524 -502Q525 -503 527 -503L535 -506Q537 -506 538 -507Q555 -512 571 -520Q586 -525 626 -547Q638 -552 636 -568Q638 -579 633 -588Q627 -599 616 -598Q606 -606 625 -612Q635 -613 644 -619Q649 -623 658 -619Q667 -615 671 -616Q682 -619 700 -603Q706 -586 722 -585Q728 -585 728 -579Q728 -574 725 -569Q723 -557 712 -548Q701 -541 698 -526Q697 -523 696 -499Q697 -492 690 -470Q693 -463 691 -452Q692 -445 690 -437Q688 -430 695 -425Q714 -425 733 -426Q767 -425 801 -420Q806 -417 821 -417Q826 -415 841 -400Q845 -390 847 -382Q848 -377 841 -372Q832 -370 826 -362Q811 -362 802 -352Q797 -352 782 -347Q770 -343 758 -342Q754 -339 749 -341Q744 -343 744 -348Q752 -364 747 -374Q728 -387 706 -395Q700 -398 695 -395Q689 -391 691 -385Q686 -374 683 -365Q679 -353 674 -341Q671 -338 667 -328Q664 -320 659 -316Q654 -316 649 -310Q643 -302 638 -306Q631 -323 630 -324Q623 -345 636 -355Q638 -371 644 -384Q645 -392 647 -400Q649 -408 642 -413Q631 -409 625 -397Q619 -393 608 -379Q601 -370 595 -365Q583 -361 575 -349Q564 -337 552 -329Q538 -329 538 -345Q540 -350 539 -356Q538 -362 543 -365Q550 -372 560 -388Q579 -429 602 -468Q608 -482 617 -495Q614 -499 612 -499Q608 -498 604 -494Q600 -489 597 -487Q588 -486 578 -473Q569 -462 563 -459Q546 -451 534 -438Q517 -424 499 -410Q497 -406 489 -402Q480 -397 478 -391Q478 -386 473 -361Q470 -322 470 -321Q464 -311 454 -311Q449 -311 446 -316Q430 -326 425 -332Q420 -337 418 -344Q415 -351 408 -350Q401 -342 393 -334Q388 -332 381 -323Q373 -313 366 -312Q348 -327 345 -353Q343 -360 348 -370Q351 -378 351 -383Q346 -391 358 -396Q366 -395 371 -407Q390 -426 405 -447Q406 -453 402 -454Q398 -455 395 -452Q381 -445 376 -447Q367 -444 358 -444Q344 -444 326 -450Q316 -453 312 -443Q303 -422 302 -406Q298 -401 297 -387Q296 -376 293 -370Q288 -357 286 -336Q283 -333 283 -326Q283 -317 280 -314Q278 -304 276 -295Q274 -282 271 -270Q266 -249 268 -243Q262 -234 261 -222Q257 -216 255 -207Q255 -193 246 -171Q232 -151 234 -140Q231 -136 226 -123Q220 -108 212 -100Q197 -76 182 -52Q173 -44 163 -39Q159 -36 157 -32Q154 -28 150 -32Q142 -45 134 -58Q129 -69 124 -81Q121 -90 134 -96Q140 -106 152 -124Q161 -141 177 -175Q181 -187 199 -224Q197 -236 205 -252Q207 -262 212 -270Q217 -279 215 -289Q213 -296 220 -307Q219 -314 225 -326Q228 -333 229 -339Q231 -351 232 -363Q228 -370 232 -376Q239 -383 239 -393Q240 -402 243 -411Q243 -412 249 -439Q257 -470 265 -501Q267 -511 268 -522Q274 -528 273 -542Q273 -555 276 -559Q280 -588 295 -622Q294 -627 298 -632Q301 -637 301 -640Q298 -646 292 -648Q287 -649 282 -651Q275 -651 276 -655Q276 -659 283 -658Q323 -672 345 -675Q365 -681 396 -683Q406 -687 419 -687Q423 -691 442 -693Q444 -695 458 -697Q467 -697 479 -704Q484 -709 472 -713Q454 -715 440 -722Q414 -732 390 -743Q386 -747 381 -750Q376 -753 380 -757Q402 -757 423 -763Q433 -766 445 -764Q457 -765 468 -767ZM518 -492Q503 -483 487 -474Q486 -464 485 -454Q481 -439 478 -423Q480 -419 484 -421Q489 -425 494 -427Q508 -439 534 -454Q555 -466 562 -471Q564 -475 569 -477Q576 -481 577 -484Q572 -490 565 -489Q558 -489 552 -488Q551 -488 537 -492Q526 -493 518 -492ZM573 -311Q579 -312 586 -309Q595 -309 601 -304Q608 -299 616 -295Q624 -292 625 -283Q626 -275 622 -268Q621 -255 618 -243Q615 -228 609 -213Q608 -210 606 -205Q604 -201 609 -198Q615 -202 627 -212Q652 -241 667 -253Q678 -271 683 -275Q689 -285 679 -289Q676 -293 669 -295Q661 -298 660 -301Q663 -307 677 -307Q686 -311 698 -308Q732 -300 738 -297Q758 -289 756 -267Q756 -261 751 -259Q746 -256 743 -252Q739 -236 712 -223Q698 -212 682 -205Q676 -200 660 -194Q649 -190 642 -185Q637 -182 640 -179Q645 -177 650 -175Q656 -177 664 -177Q693 -180 725 -177Q732 -174 739 -171Q746 -168 744 -160Q743 -154 736 -150Q731 -149 729 -141Q727 -132 722 -132Q713 -136 703 -135Q683 -133 662 -131Q657 -128 644 -128Q627 -128 622 -121Q618 -96 622 -72Q620 -67 625 -62Q633 -64 641 -66Q674 -68 699 -61Q705 -62 712 -59Q718 -56 725 -57Q728 -57 732 -53Q738 -47 742 -50Q758 -47 774 -45Q782 -38 792 -37Q801 -33 810 -30Q816 -26 812 -17Q806 -3 800 -5Q793 -10 788 3Q788 4 778 10L753 -2Q729 -10 704 -18Q691 -21 678 -25Q651 -33 624 -41Q619 -40 618 -37Q618 -32 619 -26Q617 -21 615 5Q612 10 612 24Q612 34 610 40Q609 45 604 50Q597 56 597 59Q596 65 590 63Q585 61 583 57Q580 56 568 47Q558 48 554 37Q550 26 556 19Q562 -10 564 -41Q562 -56 563 -69Q557 -81 546 -63Q542 -56 536 -53Q530 -50 524 -45Q522 -40 515 -36Q507 -32 506 -29Q504 -25 498 -23Q491 -21 489 -18Q487 -15 470 -4Q463 -1 461 -8Q465 -20 481 -40Q488 -52 522 -88Q523 -91 530 -98Q537 -106 538 -111Q533 -118 527 -116Q520 -113 514 -113Q507 -116 497 -112Q488 -109 484 -109Q469 -109 456 -105Q437 -104 419 -100Q398 -105 380 -114Q379 -115 369 -116Q363 -117 364 -122Q371 -125 380 -125Q397 -131 446 -140Q448 -141 498 -149Q514 -151 530 -153Q544 -156 558 -160Q571 -165 573 -169Q574 -200 574 -261Q575 -280 571 -294Q569 -299 563 -300Q558 -300 558 -305Q563 -309 573 -311ZM477 -279Q482 -279 482 -268Q488 -258 490 -251Q490 -242 499 -236Q499 -224 498 -212Q498 -208 508 -186Q515 -176 509 -168Q491 -172 488 -174Q474 -177 465 -198Q451 -212 454 -224Q451 -234 457 -249Q466 -265 477 -279Z"/>
</svg>