<svg xmlns="http://www.w3.org/2000/svg" viewBox="0 -800 1024 1024">
	<path fill="#000000" d="M476 -767Q495 -765 514 -763Q519 -766 522 -761Q524 -756 527 -752Q534 -748 533 -741Q533 -735 534 -728Q537 -717 536 -701Q537 -690 528 -676Q526 -671 527 -664Q527 -659 525 -654Q522 -649 528 -645Q536 -647 539 -648L563 -652Q566 -653 574 -655Q591 -658 608 -662Q630 -668 643 -668Q649 -670 680 -670Q700 -674 724 -664Q744 -661 760 -646Q765 -638 772 -630Q780 -622 783 -612Q787 -607 786 -597Q785 -585 791 -580Q791 -568 791 -557Q787 -554 786 -545Q785 -539 784 -536Q780 -522 776 -508Q769 -497 764 -484Q764 -478 755 -469Q749 -463 747 -458Q738 -444 729 -431Q723 -429 717 -418Q713 -411 708 -407Q705 -402 694 -395Q684 -389 681 -383Q666 -367 651 -352Q649 -352 643 -346Q636 -339 632 -342Q620 -349 610 -358Q598 -366 585 -360L567 -355Q562 -356 554 -353Q547 -351 543 -351Q533 -349 522 -347Q496 -343 470 -339Q459 -337 448 -336Q443 -338 436 -333Q429 -328 425 -329Q415 -332 404 -330Q376 -325 356 -336Q352 -338 352 -346Q352 -353 349 -353Q344 -349 339 -352Q334 -355 330 -355Q317 -355 308 -359Q300 -364 289 -367Q272 -369 264 -384Q252 -395 248 -408Q245 -422 238 -434Q245 -450 242 -456Q244 -485 249 -512Q252 -525 254 -539Q262 -560 271 -579Q271 -586 283 -600Q284 -607 293 -612Q301 -616 303 -620Q319 -631 326 -625Q338 -625 344 -616Q352 -613 347 -598Q346 -593 352 -592Q357 -591 362 -593Q374 -595 385 -600Q420 -614 443 -617Q452 -621 462 -623Q473 -625 479 -634Q478 -647 480 -667Q480 -683 476 -698Q473 -705 476 -710Q479 -716 480 -722Q484 -730 473 -746Q470 -751 463 -754Q457 -756 455 -758Q456 -765 462 -765Q470 -765 476 -767ZM508 -434Q509 -429 506 -419Q503 -410 504 -403Q503 -399 502 -393Q500 -387 508 -386Q530 -391 552 -396Q564 -399 577 -399Q584 -398 594 -401Q606 -404 613 -403Q623 -398 638 -411Q646 -416 652 -429Q658 -442 664 -446Q669 -459 679 -470Q690 -489 701 -508Q707 -527 713 -546Q719 -568 722 -591Q725 -614 706 -623Q687 -631 675 -627Q666 -626 656 -625Q628 -618 599 -612Q579 -607 558 -602Q550 -599 541 -598Q532 -598 528 -589Q528 -567 526 -556Q521 -543 524 -531Q522 -518 519 -506Q521 -504 534 -509Q542 -512 543 -512Q560 -517 578 -512Q582 -515 584 -512Q586 -509 587 -506Q588 -501 590 -496Q593 -491 590 -486Q590 -480 586 -479Q581 -478 578 -476Q573 -471 553 -471Q540 -471 535 -463Q515 -460 512 -459ZM350 -583Q339 -584 330 -579Q323 -564 315 -549Q307 -526 301 -500Q302 -495 298 -484Q294 -473 297 -466Q293 -436 303 -418Q308 -414 316 -405Q326 -394 332 -390Q337 -386 344 -384Q352 -381 351 -372Q344 -364 352 -361Q378 -366 385 -365Q392 -364 407 -366Q408 -367 432 -372Q447 -373 444 -387Q442 -397 445 -405Q448 -414 449 -423Q450 -430 454 -450Q438 -453 422 -456Q399 -460 391 -478Q403 -484 405 -482Q437 -487 458 -496Q463 -497 467 -498L468 -533Q472 -551 472 -570Q473 -577 467 -578Q462 -579 459 -575Q448 -573 437 -572Q431 -575 419 -571Q406 -567 400 -565Q382 -566 367 -571Q363 -569 357 -578Q353 -584 350 -583ZM574 -322Q579 -322 580 -321Q582 -320 601 -315Q608 -310 617 -304Q625 -298 629 -289Q637 -279 638 -272Q644 -267 650 -251Q652 -238 654 -226Q651 -219 652 -210Q655 -203 653 -190Q651 -175 653 -169Q654 -159 649 -147Q653 -129 649 -116Q653 -101 649 -92L651 -50Q652 -23 650 3Q650 34 649 38Q651 46 647 60Q643 64 644 75Q645 89 637 93Q633 95 629 102Q625 110 621 111Q601 104 593 89Q588 80 577 72Q567 60 562 47Q561 43 558 39Q555 34 560 32Q565 36 569 41Q574 46 581 47Q590 40 597 15Q593 -5 597 -34Q593 -42 597 -57Q598 -76 595 -93Q597 -119 599 -145Q597 -171 599 -183Q597 -200 598 -215Q597 -242 592 -268Q589 -281 581 -286Q563 -286 555 -278Q550 -276 539 -267Q527 -257 519 -256Q514 -258 510 -256Q506 -254 502 -253Q497 -257 493 -253Q489 -250 485 -247Q481 -241 474 -237Q468 -232 469 -223Q469 -219 473 -209Q475 -201 482 -203Q490 -205 497 -205Q515 -207 534 -203Q542 -207 552 -199Q560 -201 562 -194Q564 -188 567 -182Q566 -174 558 -172Q550 -170 544 -168Q540 -168 534 -164Q528 -160 524 -161Q513 -153 513 -162Q515 -175 496 -182Q490 -183 485 -187Q480 -191 475 -185Q476 -170 474 -156Q474 -143 473 -131Q469 -119 468 -105Q464 -88 460 -72Q462 -68 459 -45Q458 -34 456 -23Q455 -15 452 -7Q449 0 452 9Q451 18 449 27Q448 29 448 38Q448 47 444 50Q432 47 422 41Q412 35 401 15Q392 9 397 -9Q408 -24 410 -40Q414 -66 419 -90Q423 -119 430 -147Q432 -157 434 -168Q434 -182 437 -195Q436 -210 435 -215Q433 -226 426 -232Q417 -237 427 -252Q429 -255 431 -260Q433 -264 438 -264Q456 -258 467 -264Q476 -266 486 -279Q497 -292 504 -294Q519 -306 544 -313Q548 -316 558 -317Q569 -318 574 -322ZM498 -140Q502 -142 504 -138Q507 -134 515 -137Q522 -134 532 -139Q548 -134 564 -129Q569 -120 574 -111Q574 -106 579 -101Q586 -94 585 -88Q577 -77 570 -81Q557 -80 532 -96Q512 -110 497 -127Q492 -129 493 -134Q494 -139 498 -140Z"/>
</svg>