<svg xmlns="http://www.w3.org/2000/svg" viewBox="0 -800 1024 1024">
	<path fill="#000000" d="M526 -768Q539 -768 543 -766Q557 -769 571 -769Q574 -766 584 -765Q593 -764 596 -759Q608 -747 607 -735Q605 -728 602 -724Q603 -717 594 -703Q593 -698 588 -695Q582 -692 582 -688Q575 -678 573 -679Q569 -678 566 -675Q561 -670 558 -670Q551 -655 544 -640Q541 -635 546 -633Q549 -632 553 -634Q570 -637 587 -641Q596 -642 603 -645Q610 -647 619 -643Q620 -640 628 -636Q638 -631 639 -628Q642 -617 638 -610Q625 -603 619 -600Q618 -599 594 -596Q580 -593 566 -591Q546 -589 525 -587Q509 -584 493 -581Q484 -583 473 -572Q463 -563 456 -563Q450 -561 449 -563Q449 -564 453 -566Q458 -571 453 -575Q447 -580 442 -574Q433 -572 423 -571Q410 -567 396 -567Q392 -564 386 -567Q380 -569 378 -567Q372 -563 362 -567Q351 -571 346 -567Q335 -574 323 -577Q321 -578 320 -578Q319 -580 321 -581Q324 -583 328 -586Q338 -585 349 -590Q354 -596 360 -596Q367 -596 374 -598Q398 -602 421 -606Q422 -606 440 -609Q458 -613 462 -619Q474 -622 480 -634Q479 -637 483 -639Q487 -641 487 -643Q488 -646 489 -646Q490 -647 491 -647Q492 -652 500 -658Q509 -665 508 -671Q505 -675 508 -678Q511 -681 513 -685Q519 -694 525 -706Q532 -719 530 -723Q515 -720 510 -718Q504 -716 476 -709Q467 -708 444 -689Q432 -687 424 -670Q424 -665 419 -645Q415 -649 410 -650Q404 -651 402 -645Q390 -656 377 -666Q365 -676 367 -693Q369 -696 367 -704Q365 -712 369 -716Q371 -727 378 -735Q386 -741 396 -734Q402 -734 409 -724Q414 -717 417 -716Q423 -717 431 -724Q440 -732 445 -733Q463 -746 484 -757Q504 -767 526 -768ZM480 -549Q486 -549 491 -549Q499 -548 507 -547Q534 -549 539 -532Q541 -525 536 -516Q536 -508 531 -504Q520 -499 511 -502Q509 -504 501 -504Q472 -513 464 -518Q458 -523 440 -532Q433 -537 425 -542Q437 -549 451 -544Q455 -546 466 -546Q475 -546 480 -549ZM394 -428Q391 -428 388 -428H386Q382 -422 381 -418Q376 -408 369 -398Q368 -390 355 -372Q351 -371 349 -365Q347 -360 345 -359Q339 -344 330 -330Q319 -310 307 -291Q315 -285 326 -291Q330 -289 335 -295Q339 -299 342 -299Q349 -297 352 -303Q356 -311 359 -312Q362 -316 367 -313Q372 -310 374 -311Q376 -307 383 -312Q386 -314 389 -310Q393 -305 396 -306Q400 -306 406 -306Q412 -306 411 -299Q413 -295 415 -288Q417 -282 411 -280Q394 -263 389 -257Q379 -249 369 -236L366 -232Q358 -222 356 -216Q336 -196 318 -176Q314 -175 314 -170Q314 -166 319 -167Q332 -173 347 -174Q365 -184 376 -180Q384 -171 392 -163Q394 -154 395 -143Q396 -139 393 -136Q390 -134 387 -130L376 -97Q370 -91 363 -72Q356 -53 347 -45Q341 -33 335 -21Q332 -19 330 -11Q328 -3 323 -1Q317 -1 315 5Q314 10 311 15Q307 16 302 23Q299 27 296 29Q293 32 286 29Q281 27 278 28Q270 28 270 21Q270 13 275 10Q298 -42 318 -81Q327 -104 336 -128Q337 -132 334 -136Q331 -139 328 -136Q309 -138 297 -127Q281 -109 272 -115Q269 -118 260 -121Q250 -125 246 -129Q238 -145 249 -159Q259 -181 276 -198Q297 -220 317 -243Q319 -246 319 -249Q319 -250 316 -250Q305 -250 277 -243Q273 -244 266 -254Q262 -260 259 -262Q250 -268 241 -275Q234 -282 244 -290Q248 -297 253 -294Q258 -296 261 -307Q263 -314 265 -316Q272 -321 281 -333Q289 -343 295 -348Q296 -352 313 -378Q317 -389 332 -404Q337 -407 343 -416Q351 -427 359 -429Q359 -430 360 -431Q356 -433 344 -435Q338 -439 326 -441Q312 -443 308 -448Q325 -456 344 -459Q364 -462 383 -467Q399 -469 414 -471Q435 -474 456 -477Q467 -482 483 -481Q492 -486 505 -484Q515 -494 520 -489Q526 -486 538 -495Q554 -495 574 -500Q577 -500 581 -506Q586 -513 591 -510Q599 -506 609 -513H611Q621 -511 630 -509Q646 -512 663 -511Q669 -515 675 -509Q676 -508 683 -498Q682 -491 685 -481Q689 -477 684 -474Q676 -477 672 -472Q663 -465 653 -469Q640 -462 628 -461Q617 -459 606 -457Q576 -451 546 -446Q504 -440 488 -438Q476 -434 463 -434Q456 -433 414 -430Q404 -429 394 -428ZM543 -413Q548 -414 560 -408Q565 -409 570 -401Q575 -393 579 -391Q583 -388 581 -381Q579 -374 581 -371Q583 -366 571 -357Q560 -346 553 -332Q541 -320 530 -307Q522 -297 514 -288Q504 -282 521 -271Q524 -266 536 -256Q551 -243 556 -233Q562 -228 562 -219Q561 -210 562 -201Q564 -184 559 -168Q561 -164 558 -157Q556 -150 557 -147Q556 -143 558 -137Q561 -129 559 -125Q559 -124 556 -91Q556 -84 556 -78Q556 -74 555 -70L553 -52Q553 -47 552 -44Q553 -33 552 -21Q553 -13 550 -3Q546 9 547 14Q548 24 534 34Q528 41 519 32Q510 20 501 11Q499 7 493 1Q485 -7 484 -12Q493 -28 495 -48Q498 -82 506 -115Q508 -132 510 -150Q512 -163 514 -176Q516 -212 511 -243Q507 -249 503 -257Q498 -264 491 -259Q484 -257 481 -263Q478 -269 475 -273Q473 -280 468 -285Q463 -291 467 -297Q475 -309 482 -322Q491 -331 495 -341Q503 -349 513 -369Q519 -381 524 -388Q529 -394 532 -402Q536 -410 543 -413ZM742 -402Q756 -404 763 -393Q763 -385 752 -374Q743 -365 741 -360Q740 -356 749 -352Q761 -356 781 -354Q796 -355 809 -351Q811 -350 816 -350Q818 -349 817 -347Q817 -345 814 -343Q811 -342 811 -339Q807 -338 807 -325Q796 -320 784 -315Q783 -314 764 -308Q756 -306 751 -288Q750 -273 748 -259Q746 -253 751 -248Q756 -243 764 -244Q775 -246 781 -238Q789 -233 783 -224Q784 -210 765 -210Q755 -203 757 -191Q758 -179 757 -168Q754 -160 766 -156Q768 -157 777 -155Q788 -156 798 -149Q803 -150 804 -144Q805 -139 802 -135Q799 -133 798 -127Q797 -120 793 -117Q776 -119 769 -115Q760 -111 759 -103Q758 -94 755 -87Q748 -84 747 -76Q746 -69 746 -61Q747 -59 746 -54Q745 -46 749 -43Q752 -42 762 -44Q774 -46 780 -42Q791 -43 805 -38Q825 -40 838 -29Q841 -19 830 -8Q828 -6 823 -6Q816 -6 814 -2Q809 5 802 4Q794 3 788 4H729Q696 6 668 2Q646 -2 629 -12Q624 -17 618 -19Q611 -21 612 -28Q618 -32 628 -35Q648 -36 667 -38Q672 -40 679 -40Q686 -40 686 -47Q680 -58 679 -70Q690 -84 700 -99Q706 -105 700 -111Q695 -117 688 -115Q660 -124 635 -137Q632 -141 634 -142Q639 -142 643 -140Q671 -144 685 -144Q691 -146 698 -145Q706 -145 709 -151Q709 -169 709 -187Q708 -193 709 -200Q710 -206 704 -208Q695 -205 677 -207Q671 -212 651 -214Q647 -214 642 -216Q639 -218 642 -221Q656 -229 684 -236Q704 -242 711 -244Q716 -251 715 -261Q714 -271 715 -278Q719 -283 715 -289Q711 -294 706 -289Q689 -289 675 -281Q654 -288 634 -293Q631 -296 623 -296Q614 -296 614 -301Q623 -308 638 -311Q645 -315 687 -332Q696 -336 693 -348Q690 -360 681 -359Q673 -358 669 -364Q665 -370 660 -374Q655 -373 648 -380Q650 -385 655 -385Q659 -385 664 -385Q683 -391 687 -391Q703 -392 717 -397Q729 -401 742 -402Z"/>
</svg>