<svg xmlns="http://www.w3.org/2000/svg" viewBox="0 -800 1024 1024">
	<path fill="#000000" d="M625 -684Q637 -680 649 -677Q655 -677 669 -673Q681 -674 685 -657Q691 -647 689 -635Q686 -622 686 -610Q688 -599 689 -588Q698 -591 706 -595Q720 -602 735 -606Q742 -608 749 -610Q762 -615 776 -618Q779 -623 787 -619Q794 -616 797 -619Q805 -620 815 -614Q820 -616 824 -612Q827 -608 832 -605Q840 -602 842 -593Q843 -584 845 -575Q845 -565 838 -561Q835 -558 835 -550Q835 -540 832 -537Q830 -531 825 -529Q820 -527 817 -520Q807 -511 793 -502Q783 -493 772 -485Q767 -485 761 -477Q756 -470 752 -469Q748 -468 744 -463Q740 -459 738 -458Q736 -457 734 -456L726 -450Q724 -449 722 -448Q719 -446 715 -444L697 -435Q694 -432 690 -430Q694 -431 697 -432L713 -435Q717 -436 720 -437Q732 -439 744 -441Q752 -446 758 -444Q780 -442 792 -442Q805 -438 818 -435Q829 -421 826 -415Q822 -415 816 -407Q811 -401 807 -400Q800 -402 786 -398Q777 -395 771 -396Q760 -393 738 -391Q737 -390 725 -387Q713 -385 703 -381Q693 -377 694 -367Q694 -357 693 -347Q694 -328 695 -310V-304Q695 -300 696 -297Q699 -293 703 -293Q713 -295 723 -297Q731 -301 746 -304Q763 -308 773 -305Q783 -304 797 -296Q805 -292 812 -288Q821 -288 823 -282Q826 -273 833 -267Q841 -261 848 -253Q847 -250 841 -245Q834 -239 833 -233Q830 -217 814 -221Q809 -220 792 -226Q780 -225 772 -232Q764 -239 755 -244Q744 -250 734 -257Q710 -261 699 -263Q693 -260 694 -251Q694 -243 694 -236Q697 -215 691 -193Q684 -181 680 -164Q675 -160 671 -149Q674 -140 660 -137Q647 -133 643 -144Q638 -155 631 -165Q624 -175 624 -187Q627 -201 632 -241Q629 -245 629 -253Q628 -264 625 -266Q618 -267 608 -259Q600 -252 595 -252Q576 -238 559 -232Q554 -230 548 -227Q541 -223 536 -228Q535 -241 542 -250Q549 -260 554 -270Q586 -318 624 -364Q622 -373 610 -367Q603 -365 595 -366L584 -365Q580 -363 575 -362Q571 -359 561 -360Q554 -361 550 -359Q542 -360 531 -356Q519 -359 507 -363Q500 -363 477 -368Q473 -373 477 -375Q483 -376 490 -375Q502 -383 534 -389Q550 -394 567 -397L603 -407Q619 -412 634 -418Q641 -422 638 -428Q636 -434 635 -440Q633 -449 634 -455Q634 -484 633 -497Q636 -511 625 -516Q623 -516 620 -512Q607 -506 597 -498Q592 -490 583 -485Q575 -485 574 -477Q577 -470 571 -460Q567 -459 567 -453V-447Q567 -443 563 -440Q548 -442 546 -445Q530 -455 522 -472Q506 -486 506 -495Q504 -514 512 -528Q519 -542 529 -556Q531 -560 532 -564Q532 -569 537 -569Q549 -559 563 -535Q564 -531 563 -525Q563 -519 570 -518Q586 -528 602 -539Q604 -542 613 -545Q623 -548 626 -554Q631 -575 628 -583Q629 -609 626 -630Q625 -651 614 -664Q596 -676 607 -683Q614 -680 625 -684ZM183 -578H193Q202 -576 218 -574Q229 -569 231 -568Q239 -563 240 -557Q235 -541 241 -536Q246 -532 243 -527Q240 -522 238 -517Q225 -508 213 -511Q209 -513 206 -511Q203 -509 200 -508Q193 -513 186 -518Q172 -522 149 -536Q130 -548 122 -551Q113 -557 112 -558Q108 -562 112 -566Q136 -570 159 -574Q167 -576 183 -578ZM736 -569Q711 -559 686 -550Q688 -537 687 -522Q687 -515 686 -510L685 -482Q685 -476 684 -470Q682 -466 683 -460Q684 -454 690 -455Q707 -476 724 -498Q727 -505 735 -517Q744 -530 746 -537Q752 -550 757 -564Q756 -571 748 -570Q737 -568 736 -569ZM351 -524Q366 -517 383 -513Q404 -505 409 -497Q426 -488 417 -471Q423 -466 415 -458Q417 -454 415 -448Q413 -445 410 -448Q379 -461 356 -480Q345 -493 334 -503Q332 -508 328 -513Q322 -520 323 -524Q337 -524 351 -524ZM186 -417L205 -415Q225 -409 224 -396Q221 -392 226 -385Q230 -380 230 -376Q224 -362 214 -349Q212 -336 215 -323Q210 -300 210 -274Q212 -264 208 -246Q205 -233 205 -227Q206 -210 206 -194Q204 -182 204 -167Q200 -164 203 -157Q205 -152 204 -149Q200 -141 204 -132Q204 -127 204 -120Q204 -114 211 -115Q228 -138 249 -158Q266 -179 274 -204Q275 -207 276 -211Q278 -216 283 -213Q277 -199 277 -189Q273 -173 269 -158Q270 -153 266 -145Q263 -139 263 -134Q260 -125 256 -116Q256 -104 247 -94Q245 -89 239 -81Q231 -71 230 -65Q225 -61 222 -54Q218 -48 211 -48Q208 -53 200 -52Q193 -52 190 -55Q179 -58 171 -67Q164 -75 157 -84Q147 -95 147 -108Q148 -121 149 -134Q151 -145 153 -157Q152 -180 155 -203Q157 -210 157 -222Q157 -238 161 -244Q162 -266 165 -286Q168 -296 170 -320Q173 -335 172 -351Q172 -358 165 -359Q159 -360 155 -356Q142 -355 134 -355Q117 -357 100 -360Q87 -364 73 -364Q70 -369 75 -371Q81 -373 86 -375Q116 -397 144 -406Q153 -412 164 -413Q175 -414 186 -417ZM327 -370Q345 -364 362 -351Q379 -339 376 -321Q370 -308 372 -290Q371 -284 373 -277Q373 -250 382 -207Q388 -186 393 -165Q403 -143 412 -122Q412 -112 430 -110Q452 -112 473 -109Q478 -110 484 -107Q493 -103 499 -104Q514 -106 537 -101Q547 -106 554 -98Q557 -95 564 -96Q571 -97 574 -95Q594 -95 614 -92Q635 -90 656 -88Q690 -85 723 -82Q726 -82 729 -82L732 -81Q735 -81 738 -81L762 -78Q771 -79 782 -75Q786 -76 801 -74Q813 -75 824 -73Q842 -70 882 -70Q901 -70 920 -71Q926 -70 933 -71Q940 -73 946 -69Q954 -69 952 -60Q942 -50 943 -44Q939 -38 931 -38Q924 -39 918 -37Q910 -28 902 -25Q889 -22 875 -20Q872 -17 862 -17Q854 -17 850 -14Q849 -14 786 -17Q773 -18 763 -20L751 -22Q744 -24 740 -21Q731 -25 712 -25Q696 -25 690 -27Q681 -26 674 -28Q666 -33 649 -34Q631 -35 624 -41Q608 -43 592 -45Q588 -48 576 -50Q560 -52 546 -52Q541 -60 535 -57Q509 -61 503 -64Q487 -66 464 -72Q450 -75 435 -78Q413 -87 393 -92Q390 -94 381 -95Q373 -95 369 -99Q366 -104 375 -110Q381 -114 381 -117Q376 -124 365 -133Q330 -197 332 -250Q334 -262 335 -275Q334 -293 344 -323Q344 -337 341 -341Q329 -354 327 -370Z"/>
</svg>