<svg xmlns="http://www.w3.org/2000/svg" viewBox="0 -800 1024 1024">
	<path fill="#000000" d="M578 -673Q591 -673 604 -673Q616 -672 628 -668Q656 -670 673 -660Q677 -661 680 -655Q683 -649 686 -648Q691 -649 694 -639Q691 -637 691 -625Q693 -621 690 -619Q687 -616 684 -614Q680 -615 676 -610Q673 -607 670 -607Q661 -613 642 -615Q634 -622 622 -622Q600 -633 578 -644Q564 -652 549 -660Q545 -660 540 -663Q538 -666 541 -668Q560 -670 578 -673ZM310 -332Q295 -330 280 -329Q273 -327 264 -325Q256 -324 254 -316Q258 -309 256 -295Q253 -290 254 -279Q255 -268 252 -264Q251 -257 247 -251Q243 -244 247 -237Q255 -239 261 -248Q273 -263 288 -276Q294 -278 308 -290Q323 -302 328 -304Q339 -308 345 -307Q347 -298 339 -290Q339 -285 333 -280Q326 -274 326 -270Q327 -264 322 -261Q318 -258 314 -254Q312 -248 305 -240Q297 -232 296 -228Q290 -225 285 -215Q280 -204 275 -201Q263 -183 254 -175Q252 -168 243 -163Q233 -158 232 -153Q228 -149 223 -146Q220 -146 219 -148Q218 -150 216 -150Q214 -154 207 -154Q202 -154 200 -156Q188 -170 175 -181Q175 -185 175 -189L177 -206Q177 -210 177 -214Q179 -227 191 -254Q199 -272 202 -284Q204 -295 205 -306Q206 -312 201 -317Q185 -317 177 -318Q164 -319 150 -321Q140 -315 134 -321Q129 -327 117 -334Q104 -342 100 -348Q86 -367 87 -387Q93 -411 107 -437Q123 -467 139 -479Q147 -488 158 -488Q168 -488 175 -482Q178 -481 180 -475Q182 -469 185 -467Q202 -472 218 -478Q227 -483 227 -493Q226 -503 227 -513Q227 -539 228 -542Q228 -559 228 -577Q218 -592 213 -607Q215 -610 222 -610Q228 -610 231 -613Q243 -612 255 -612Q264 -612 272 -607Q281 -601 280 -592Q278 -588 282 -580Q287 -572 284 -567Q282 -542 287 -525Q287 -520 285 -514Q283 -509 287 -504Q292 -499 303 -501Q320 -503 337 -502Q350 -494 362 -492Q379 -479 385 -469Q389 -457 393 -446Q391 -443 389 -436Q387 -427 383 -424Q377 -413 370 -403Q354 -383 348 -372Q339 -354 333 -348Q331 -342 310 -332ZM756 -606Q772 -607 790 -599Q797 -605 810 -601Q818 -606 827 -597Q834 -597 835 -591Q837 -584 832 -579Q823 -575 831 -565Q821 -560 814 -553Q806 -552 799 -555Q782 -546 760 -543Q756 -541 755 -540L743 -536Q742 -535 738 -533Q692 -520 650 -501Q633 -500 621 -493Q617 -491 606 -489Q594 -487 589 -483Q593 -475 611 -469Q621 -472 625 -460Q631 -455 624 -444Q623 -439 616 -435Q609 -430 608 -426Q595 -411 584 -393Q578 -390 569 -378Q562 -369 557 -365Q545 -356 538 -345Q526 -343 522 -330Q510 -325 505 -316Q493 -310 493 -302Q492 -299 490 -299Q484 -298 484 -304Q482 -306 479 -318Q479 -336 475 -345Q470 -358 489 -368Q497 -380 507 -391Q507 -397 511 -400Q516 -402 521 -403Q550 -452 558 -461Q563 -470 564 -478Q561 -485 551 -481Q544 -478 541 -480Q526 -476 512 -478Q497 -477 482 -480Q470 -489 457 -489Q444 -490 437 -495Q449 -501 464 -503Q476 -505 488 -507Q492 -512 497 -510Q502 -508 508 -508Q520 -515 552 -521Q591 -533 630 -545Q665 -558 699 -572Q702 -573 711 -577L719 -581Q727 -585 731 -586Q733 -589 745 -589Q751 -589 751 -597Q752 -606 756 -606ZM831 -471H833Q845 -468 857 -465Q873 -440 873 -439Q869 -426 862 -416Q857 -414 856 -408Q854 -401 849 -401Q832 -389 814 -377Q803 -368 778 -359Q763 -351 748 -344Q739 -339 732 -338Q730 -353 740 -363Q752 -376 765 -388Q768 -392 771 -396L782 -412Q785 -416 788 -420Q784 -428 770 -433Q758 -437 754 -442Q749 -445 752 -449Q755 -453 759 -449Q761 -450 768 -451Q776 -452 779 -456Q782 -463 791 -456Q794 -455 802 -461Q815 -468 831 -471ZM297 -450L285 -448Q272 -448 270 -435Q266 -423 264 -395Q267 -386 263 -374Q261 -370 265 -367Q269 -364 272 -367Q284 -375 295 -384Q299 -392 300 -396L312 -420Q313 -424 317 -432Q317 -434 320 -440Q324 -448 319 -451Q299 -451 297 -450ZM175 -433Q167 -431 167 -424Q158 -409 157 -392Q154 -376 156 -358Q154 -346 163 -346Q171 -347 192 -351Q204 -349 209 -360Q211 -379 212 -398Q212 -411 212 -425Q211 -430 206 -431Q201 -431 198 -433Q186 -435 175 -433ZM732 -324Q744 -325 756 -321Q768 -318 779 -316Q780 -312 789 -307Q797 -302 796 -295Q793 -288 793 -278Q785 -273 784 -265Q782 -255 773 -248Q772 -244 765 -238Q760 -234 758 -231Q747 -217 735 -203Q733 -198 725 -194Q718 -191 716 -187Q714 -183 708 -181Q701 -178 699 -175Q696 -168 690 -163Q684 -157 678 -151Q676 -148 673 -145Q685 -147 711 -136Q726 -136 741 -128Q747 -128 760 -123Q773 -118 781 -118Q792 -114 803 -110Q825 -102 847 -94Q860 -86 876 -79Q885 -72 896 -66Q904 -61 907 -52Q906 -47 911 -44Q918 -43 916 -27Q914 -16 907 -17Q900 -20 888 -20L877 -23Q875 -23 873 -24Q855 -28 841 -36Q797 -55 779 -60Q750 -71 720 -82Q704 -86 687 -90Q672 -98 654 -103Q643 -106 632 -110Q625 -107 618 -100Q612 -92 607 -88Q598 -88 590 -83Q583 -79 575 -75Q559 -72 546 -71Q538 -72 530 -73Q525 -73 526 -80Q532 -83 537 -87L562 -103Q570 -107 573 -109Q585 -118 596 -127Q547 -151 512 -159Q501 -161 489 -164Q456 -170 447 -181Q455 -186 468 -183Q476 -187 486 -186Q493 -185 499 -185Q570 -185 589 -173Q596 -176 608 -170Q623 -165 638 -160Q643 -163 650 -174Q658 -186 665 -190Q715 -246 730 -282Q733 -295 721 -297Q713 -299 704 -297Q694 -296 689 -303Q713 -318 732 -324Z"/>
</svg>