<svg xmlns="http://www.w3.org/2000/svg" viewBox="0 -800 1024 1024">
	<path fill="#000000" d="M541 -701Q568 -700 591 -696Q617 -686 620 -658Q623 -632 607 -611Q607 -607 601 -599Q593 -589 597 -583Q645 -567 665 -556Q686 -550 723 -535Q764 -518 783 -513Q863 -486 942 -460Q948 -452 964 -448Q979 -445 984 -439Q995 -432 990 -427Q985 -422 978 -416Q967 -412 951 -412Q934 -412 914 -418Q896 -411 868 -422Q732 -474 602 -542Q598 -543 586 -551Q576 -558 570 -558Q567 -558 562 -555Q555 -543 543 -534Q531 -526 522 -517Q503 -486 473 -466Q442 -446 417 -422Q406 -418 391 -406Q369 -388 354 -388Q346 -388 345 -389Q344 -390 347 -392Q353 -397 358 -404Q366 -410 380 -428Q395 -447 403 -454Q425 -482 434 -490Q435 -495 442 -503Q450 -512 450 -519Q456 -531 466 -538Q476 -546 484 -555Q487 -566 505 -586Q519 -602 522 -612Q548 -634 555 -663Q559 -672 548 -686Q541 -695 541 -701ZM207 -579H213Q253 -584 289 -551Q298 -541 288 -533Q278 -525 270 -517Q266 -509 257 -509Q254 -509 236 -515Q188 -545 134 -564Q131 -566 131 -567Q140 -568 152 -570Q162 -574 181 -575Q199 -576 207 -579ZM562 -441Q584 -438 606 -435Q619 -437 627 -427Q635 -418 633 -405Q626 -401 614 -389Q601 -375 592 -371Q590 -371 588 -370Q578 -363 581 -357Q582 -354 587 -357Q603 -353 621 -350Q638 -347 648 -331Q647 -316 637 -304Q627 -292 618 -280Q618 -273 608 -264Q597 -254 601 -247Q629 -253 656 -256Q670 -256 679 -251Q703 -238 702 -205Q701 -178 687 -153Q681 -148 678 -134Q676 -122 672 -118Q669 -107 653 -87Q639 -69 635 -57Q625 -53 615 -37Q605 -21 597 -18Q591 -9 562 20Q551 30 541 43Q531 55 517 57Q505 64 500 64Q494 64 492 58Q518 42 546 -2Q552 -20 573 -52Q591 -79 597 -95Q616 -120 639 -180Q641 -192 643 -207Q645 -223 633 -228Q564 -232 544 -195Q530 -196 523 -186Q516 -175 507 -169Q503 -164 497 -164Q490 -164 483 -176Q477 -187 477 -195Q472 -198 474 -201Q484 -208 492 -214Q493 -221 499 -222Q506 -223 506 -230Q524 -250 531 -256Q533 -262 545 -271Q562 -283 559 -293Q575 -309 590 -337Q594 -341 594 -344Q594 -346 590 -349Q587 -351 573 -356Q564 -350 555 -342Q546 -334 533 -328Q528 -320 511 -309Q498 -301 492 -294Q470 -288 443 -276Q440 -287 449 -296Q458 -306 465 -313Q466 -319 474 -324Q482 -328 483 -332Q536 -385 562 -441ZM209 -437H228Q256 -413 251 -398Q248 -365 241 -337Q245 -322 241 -309Q237 -296 235 -284Q229 -274 230 -252Q231 -234 228 -227Q230 -224 229 -213Q228 -205 236 -204Q286 -231 331 -293Q332 -297 333 -297Q335 -290 329 -276Q324 -252 312 -236Q302 -211 278 -186Q267 -174 232 -144Q223 -139 216 -131Q208 -123 199 -128Q195 -135 181 -149Q168 -162 164 -172Q164 -247 178 -294Q183 -318 188 -346Q189 -354 191 -365Q194 -376 185 -380Q159 -370 132 -366Q122 -366 113 -372Q100 -375 90 -380Q79 -385 66 -383Q59 -382 59 -383Q60 -384 66 -388Q102 -401 137 -416Q172 -431 209 -437ZM363 -399L362 -401Q357 -401 356 -399Q355 -396 357 -394Q360 -392 363 -399Z"/>
</svg>