<svg xmlns="http://www.w3.org/2000/svg" viewBox="0 -800 1024 1024">
	<path fill="#000000" d="M642 -513Q662 -517 665 -517Q672 -517 682 -510Q685 -515 693 -513Q703 -501 696 -487Q691 -485 688 -476Q684 -466 678 -467Q666 -460 644 -460Q636 -460 629 -458Q559 -456 526 -441Q517 -441 508 -441Q497 -438 485 -435Q467 -439 461 -417Q455 -410 452 -403Q441 -380 421 -364Q410 -350 403 -336Q394 -339 390 -328Q385 -330 382 -318Q375 -315 372 -310Q370 -304 368 -300Q363 -298 353 -284Q343 -269 338 -268Q331 -258 320 -248Q309 -239 304 -233Q290 -219 284 -217Q283 -213 278 -211Q274 -209 273 -207Q269 -203 266 -198Q263 -194 258 -194Q253 -190 249 -192Q244 -194 246 -201Q230 -220 248 -234Q275 -264 302 -295Q309 -300 322 -318Q333 -334 339 -338Q343 -345 352 -354Q360 -362 364 -368Q373 -386 387 -402Q390 -407 395 -413Q400 -419 398 -423Q371 -418 350 -425Q346 -428 338 -430Q327 -433 322 -439Q327 -446 334 -448Q341 -449 348 -452Q369 -454 388 -460Q394 -463 406 -465Q422 -468 427 -472Q431 -479 445 -521Q446 -533 444 -543Q444 -546 445 -547Q442 -546 438 -546Q431 -542 424 -539Q403 -535 381 -531Q371 -527 360 -524Q345 -520 330 -517Q319 -517 307 -517Q294 -516 281 -518Q267 -519 253 -521Q246 -524 240 -526Q239 -528 242 -530Q255 -531 267 -537Q285 -539 300 -545Q307 -545 313 -546Q324 -550 332 -551Q335 -554 343 -555Q352 -556 355 -560Q367 -561 375 -565Q378 -564 393 -570Q407 -573 420 -577Q444 -582 468 -588Q472 -590 484 -593Q500 -596 506 -604Q521 -621 525 -629Q537 -647 548 -666Q551 -675 556 -681Q568 -699 579 -718Q580 -722 585 -729Q592 -738 591 -744Q575 -745 561 -742Q531 -737 500 -729Q493 -730 470 -717Q460 -711 449 -706Q442 -702 434 -697Q426 -691 427 -679Q420 -674 417 -668Q413 -662 405 -663Q400 -660 398 -665Q396 -669 394 -673Q389 -665 383 -671Q376 -674 369 -684Q362 -694 358 -697Q356 -701 358 -705Q361 -710 360 -713Q361 -725 368 -737Q369 -741 373 -741Q379 -741 380 -745Q400 -749 407 -731Q412 -720 424 -723Q459 -748 504 -758Q524 -764 544 -767Q563 -770 582 -773Q600 -773 617 -773Q640 -769 645 -765Q666 -753 660 -730Q662 -725 659 -720Q655 -716 651 -711Q652 -707 646 -701Q643 -697 641 -694L614 -666Q606 -652 596 -647Q595 -641 591 -637Q587 -634 581 -631Q581 -628 575 -622Q566 -613 568 -609Q587 -615 605 -621Q612 -619 628 -624Q640 -625 651 -626Q658 -627 670 -625Q672 -626 674 -624Q675 -622 674 -619Q680 -615 677 -607Q674 -600 675 -597Q678 -595 677 -594Q674 -593 671 -592Q665 -582 646 -582Q643 -581 633 -579L603 -574Q598 -573 590 -571Q573 -569 556 -568Q546 -566 535 -565Q506 -559 505 -558Q489 -556 461 -550Q468 -550 471 -547Q479 -547 487 -543Q488 -539 495 -536Q501 -533 502 -529Q507 -524 507 -514Q503 -501 499 -488Q523 -496 547 -502Q555 -501 576 -506Q584 -506 608 -510Q611 -511 616 -511Q625 -511 629 -514Q636 -513 642 -513ZM588 -427Q594 -428 598 -426Q603 -428 613 -425Q621 -422 626 -424Q638 -423 650 -423Q669 -420 698 -416Q713 -414 727 -413Q741 -414 765 -404Q766 -397 772 -398Q778 -399 780 -397Q786 -389 791 -382Q796 -381 795 -374Q794 -368 791 -363Q791 -356 786 -357Q780 -358 778 -351Q783 -343 776 -340Q773 -338 771 -333Q768 -329 763 -332Q762 -332 760 -333L755 -338Q754 -338 752 -339Q743 -330 728 -330Q721 -326 717 -331Q717 -332 718 -332Q720 -338 725 -344Q730 -349 729 -356Q708 -362 685 -364Q659 -372 632 -381Q621 -391 607 -398Q590 -408 573 -422Q581 -424 588 -427ZM563 -359Q574 -356 584 -347Q596 -339 593 -330Q593 -320 583 -318Q573 -316 566 -313Q561 -313 551 -311Q536 -307 530 -310Q527 -309 515 -311Q501 -313 487 -311Q473 -309 460 -318Q459 -319 452 -325Q447 -329 448 -332Q454 -329 462 -329Q480 -329 493 -340Q500 -340 511 -346Q521 -352 528 -351Q534 -355 547 -356Q558 -357 563 -359ZM638 -270Q658 -266 661 -265Q674 -261 676 -252Q677 -246 678 -242Q679 -238 672 -235Q671 -218 648 -214Q645 -216 639 -213Q635 -211 632 -213Q625 -203 580 -203Q564 -203 557 -202Q551 -201 551 -198Q554 -191 563 -188Q565 -182 564 -170Q562 -153 568 -146Q567 -143 570 -126Q572 -118 569 -105Q567 -93 568 -88Q567 -75 567 -62Q568 -48 562 -36Q559 -15 552 10Q546 13 542 24Q539 34 531 33Q508 14 504 4Q492 -8 489 -21Q486 -33 488 -46Q489 -60 481 -71Q481 -79 489 -67Q499 -55 500 -66Q510 -111 510 -181Q511 -188 495 -186Q493 -184 487 -185Q481 -186 478 -183Q462 -182 446 -182Q435 -181 426 -180Q416 -178 408 -182Q383 -185 380 -186Q377 -189 366 -195Q353 -202 349 -210Q347 -212 347 -213Q350 -211 359 -210Q367 -212 384 -212Q403 -212 414 -216Q425 -216 443 -221Q458 -225 475 -226Q503 -242 535 -243Q558 -247 594 -260Q618 -262 638 -270ZM677 -118H679Q684 -120 685 -116Q687 -113 687 -110Q690 -100 698 -100Q700 -100 712 -103Q716 -108 720 -105Q723 -102 727 -100Q762 -91 772 -90Q773 -86 779 -83Q787 -80 787 -74Q797 -65 779 -53Q774 -47 768 -47Q761 -46 755 -44Q741 -50 729 -46Q721 -52 715 -36Q712 -33 709 -29Q707 -25 700 -25Q691 -36 681 -36Q678 -39 671 -36Q664 -33 663 -37Q681 -63 680 -91Q664 -103 677 -118ZM399 -116L406 -115Q412 -113 419 -111Q425 -109 425 -101Q427 -97 421 -92Q417 -88 420 -85Q434 -81 460 -91Q462 -91 462 -90Q458 -88 458 -81Q463 -77 459 -71Q456 -67 457 -64Q446 -44 434 -26Q429 -24 429 -21Q429 -18 428 -14Q425 -12 422 -6Q419 1 416 0Q414 -7 403 -9Q394 -11 392 -17Q386 -21 378 -32Q366 -49 355 -52Q339 -64 349 -82Q356 -98 399 -116Z"/>
</svg>