<svg xmlns="http://www.w3.org/2000/svg" viewBox="0 -800 1024 1024">
	<path fill="#000000" d="M513 -797L530 -798Q543 -796 556 -795Q588 -778 577 -762Q572 -744 566 -726Q558 -724 555 -718Q551 -712 548 -708Q546 -704 543 -701L531 -686Q530 -685 526 -679Q522 -675 524 -673Q529 -671 534 -676Q542 -674 550 -679Q580 -682 608 -688Q612 -684 624 -684Q630 -684 633 -680Q636 -672 636 -663Q637 -658 632 -657Q628 -657 625 -654Q619 -642 594 -634Q585 -631 575 -629Q566 -627 556 -625Q527 -619 501 -613Q488 -605 473 -602Q469 -604 464 -601Q460 -598 457 -599Q426 -591 394 -584Q390 -584 384 -582Q375 -578 371 -580Q360 -573 349 -577Q327 -583 307 -582Q301 -585 292 -585Q284 -585 280 -592Q287 -591 313 -599Q322 -599 332 -604Q341 -608 345 -609Q349 -610 352 -611L365 -615Q369 -616 372 -617Q387 -622 405 -625Q409 -629 421 -632Q436 -635 439 -644Q439 -653 448 -666Q457 -679 458 -687Q466 -700 473 -713Q487 -741 493 -767Q494 -774 490 -775Q485 -777 480 -774Q476 -776 470 -775Q461 -774 458 -777Q469 -781 480 -785Q497 -793 513 -797ZM305 -743Q316 -739 325 -734Q353 -726 359 -698Q357 -688 360 -676Q359 -675 358 -669Q357 -661 353 -660Q349 -658 345 -654Q341 -651 337 -654Q324 -661 310 -668Q297 -667 290 -685Q296 -691 296 -704Q294 -707 297 -715Q300 -722 299 -727Q305 -732 305 -743ZM491 -384Q486 -388 476 -400Q475 -402 473 -405Q471 -407 453 -430Q452 -431 451 -432Q445 -444 442 -449Q435 -461 424 -450Q408 -443 392 -439Q381 -429 369 -429Q356 -429 342 -430Q338 -433 328 -433Q316 -433 312 -438Q310 -445 319 -450Q329 -457 349 -466Q379 -481 408 -496L419 -501Q411 -516 409 -523Q409 -526 404 -529Q399 -532 398 -536Q397 -541 393 -547Q389 -553 396 -556Q403 -563 403 -575Q405 -576 410 -572Q416 -567 422 -569Q426 -567 428 -570Q430 -574 433 -576Q436 -579 439 -579Q447 -574 457 -571Q460 -564 460 -544Q457 -533 465 -523L474 -527Q480 -531 486 -534Q492 -537 495 -543Q501 -545 510 -554Q521 -565 529 -567Q537 -573 548 -569Q551 -567 558 -569Q566 -571 569 -570Q583 -570 596 -570Q601 -567 606 -564Q611 -561 609 -553Q612 -546 602 -540Q594 -536 593 -531Q577 -520 560 -515Q548 -509 535 -503Q520 -494 513 -492Q507 -488 495 -484Q482 -480 478 -476Q482 -470 485 -464Q487 -458 489 -452Q510 -427 520 -420Q528 -428 535 -437Q543 -449 549 -462Q555 -475 561 -489Q563 -493 561 -499Q558 -507 563 -509Q567 -512 571 -508Q577 -503 581 -506Q593 -518 601 -514Q618 -510 634 -507Q642 -508 647 -501Q651 -496 652 -487Q631 -462 610 -437Q609 -434 605 -432Q601 -430 599 -426Q599 -424 598 -423Q594 -424 591 -424Q575 -403 558 -383Q564 -377 576 -370Q586 -365 592 -361Q601 -358 608 -351Q621 -345 627 -337Q640 -329 642 -321Q648 -316 648 -311Q647 -311 645 -312Q643 -317 641 -316Q636 -313 638 -308Q643 -302 643 -299Q643 -296 640 -296Q637 -294 633 -287Q630 -281 626 -279Q619 -283 615 -278Q611 -273 607 -268Q602 -267 601 -259Q600 -250 607 -250Q610 -252 611 -250Q611 -248 614 -247Q620 -246 640 -231Q639 -228 642 -221Q645 -215 641 -212Q625 -196 623 -184Q612 -173 608 -159Q585 -126 579 -85Q579 -60 605 -47Q617 -40 628 -37Q639 -33 653 -32Q665 -31 676 -31Q698 -31 720 -32Q749 -33 774 -31Q784 -31 796 -35Q802 -34 808 -35Q815 -37 818 -30Q823 -30 830 -32Q840 -36 846 -34Q861 -37 869 -61Q881 -89 886 -127Q886 -130 886 -131Q887 -129 887 -118Q889 -108 887 -85Q890 -79 892 -54Q888 -41 894 -34Q907 -31 910 -30Q919 -26 917 -18Q926 -7 918 7Q917 13 909 12Q901 11 900 16Q898 19 895 18Q891 16 889 19Q878 20 869 17Q868 18 859 18Q847 17 835 15Q826 15 816 15Q798 17 786 16Q776 16 765 15Q758 13 751 15Q748 18 744 14Q739 9 735 12Q735 18 727 16Q720 14 719 16Q715 11 710 14Q705 16 702 16Q669 14 636 11Q610 9 597 -3Q590 -12 583 -9Q551 -26 548 -54Q543 -59 539 -81Q528 -123 545 -162Q562 -207 578 -237Q579 -242 578 -242Q574 -243 573 -237Q558 -228 548 -217Q542 -215 531 -205Q520 -195 513 -193Q504 -182 494 -172Q468 -153 445 -130Q441 -125 432 -118Q430 -113 422 -107Q412 -100 410 -94Q405 -98 403 -94Q400 -89 398 -84Q388 -83 380 -80Q376 -77 371 -81Q367 -84 365 -83Q361 -89 361 -97Q361 -106 367 -109Q376 -112 370 -125Q365 -136 371 -140Q374 -142 375 -141Q374 -137 376 -131Q385 -132 403 -148Q425 -169 462 -196Q465 -198 473 -207Q482 -217 489 -219Q498 -228 508 -232Q515 -239 522 -246Q520 -252 515 -249Q510 -246 505 -244Q503 -249 495 -248Q488 -247 485 -250Q479 -243 474 -245Q469 -247 467 -244Q464 -240 462 -237Q457 -240 453 -236Q449 -234 447 -234Q440 -225 428 -225Q424 -229 419 -223Q414 -218 410 -221Q408 -224 407 -223Q405 -218 402 -219Q395 -210 382 -208Q377 -212 372 -208Q367 -205 365 -205Q362 -208 358 -204Q354 -200 351 -202Q347 -208 342 -199Q335 -193 328 -200Q320 -201 317 -204Q314 -207 311 -211Q306 -212 305 -219Q304 -224 301 -226Q294 -232 292 -242Q288 -243 288 -244Q287 -250 294 -251Q310 -241 332 -247Q339 -248 355 -252Q416 -270 467 -290L508 -306Q527 -312 546 -318Q556 -323 565 -328Q558 -331 552 -336Q550 -339 547 -342Q540 -345 532 -349Q524 -342 516 -335Q510 -333 502 -324Q495 -316 490 -314Q484 -315 479 -307Q472 -311 463 -303Q457 -297 453 -297Q437 -297 432 -296Q426 -295 425 -299Q424 -304 427 -309Q445 -332 456 -343Q464 -351 472 -360Q475 -363 478 -366Q483 -374 487 -383Z"/>
</svg>