<svg xmlns="http://www.w3.org/2000/svg" viewBox="0 -800 1024 1024">
	<path fill="#000000" d="M627 -725Q633 -724 639 -719Q642 -714 653 -719Q657 -718 662 -719Q667 -721 671 -716Q671 -710 679 -707Q680 -698 681 -689Q675 -682 669 -676Q663 -670 654 -671Q647 -670 620 -663Q614 -662 607 -662Q601 -662 596 -658Q574 -663 551 -668Q545 -670 539 -671Q532 -672 532 -679Q594 -709 601 -711Q615 -716 627 -725ZM596 -649L597 -648Q605 -646 613 -638Q617 -635 621 -625Q625 -616 629 -612Q635 -604 640 -596Q646 -592 652 -596Q659 -599 664 -602Q667 -606 672 -605Q676 -604 680 -605Q683 -605 688 -609Q694 -615 699 -613Q709 -609 722 -610Q738 -614 761 -611Q765 -610 771 -609Q776 -607 777 -601Q773 -597 778 -590Q782 -585 782 -581Q775 -568 764 -569Q753 -560 745 -564Q736 -562 718 -560Q703 -557 688 -554Q678 -549 662 -551Q652 -551 650 -539Q651 -514 648 -489Q646 -483 651 -480Q656 -477 663 -478Q680 -482 718 -484Q733 -484 748 -484Q763 -480 772 -483Q774 -482 793 -477Q801 -476 811 -475Q813 -470 821 -464Q829 -459 832 -454Q835 -445 830 -438Q826 -437 824 -431Q821 -423 816 -424Q807 -425 798 -426Q787 -427 776 -429Q748 -444 727 -447Q699 -452 670 -457Q664 -458 658 -461Q652 -463 647 -459Q644 -444 643 -426Q643 -410 645 -395Q645 -391 644 -387L642 -372Q642 -367 641 -364Q636 -360 636 -351Q637 -344 628 -331Q621 -325 618 -317Q617 -313 612 -314Q607 -314 606 -312Q597 -316 587 -321Q569 -341 562 -359Q559 -368 565 -374Q570 -380 575 -386Q579 -406 583 -427Q584 -437 585 -447Q591 -465 583 -466Q579 -464 572 -456Q566 -449 561 -447Q555 -445 546 -436Q539 -429 534 -427Q516 -413 510 -412Q505 -407 485 -403Q477 -400 469 -395Q454 -386 446 -385Q449 -395 459 -400Q492 -436 528 -470Q539 -484 553 -494Q561 -509 574 -516Q578 -522 573 -524Q567 -527 562 -524Q554 -522 546 -520Q540 -521 515 -516Q504 -512 491 -513Q475 -512 451 -520Q449 -524 445 -524Q441 -524 438 -525Q432 -524 428 -527Q426 -530 431 -532Q439 -533 455 -537L479 -543Q491 -548 503 -548Q506 -552 514 -552Q523 -553 525 -555Q525 -558 527 -559Q530 -559 534 -558Q542 -558 542 -559Q540 -559 540 -560Q540 -563 544 -563Q558 -563 564 -567Q578 -570 591 -574Q597 -574 599 -581Q597 -592 594 -603Q594 -607 585 -630Q589 -645 596 -649ZM244 -574H293Q309 -572 325 -565Q333 -561 335 -554Q332 -549 339 -543Q346 -536 343 -530Q333 -523 326 -514Q311 -512 301 -516Q292 -515 279 -520Q269 -524 263 -524Q227 -534 196 -549Q194 -552 187 -554Q179 -557 179 -561Q189 -563 199 -565Q222 -569 244 -574ZM278 -422L283 -421Q292 -421 302 -416Q303 -413 309 -410Q314 -407 316 -403Q315 -401 320 -385Q320 -383 314 -369L306 -352Q306 -345 303 -335Q298 -320 300 -311Q295 -297 296 -280Q292 -275 296 -261Q294 -240 289 -224Q291 -211 292 -198Q283 -180 288 -157Q289 -152 289 -145Q288 -138 296 -137Q310 -145 328 -167Q331 -171 349 -195Q357 -207 364 -219Q366 -227 372 -241Q377 -248 378 -255Q382 -263 382 -252Q373 -233 375 -223Q370 -217 368 -196Q371 -188 366 -178Q367 -172 363 -168Q359 -164 356 -158Q356 -155 351 -138Q344 -132 336 -112Q328 -106 326 -97Q325 -92 321 -91Q316 -89 312 -88Q301 -86 289 -85Q273 -89 261 -99Q250 -107 244 -117Q239 -128 233 -138Q232 -152 233 -166Q233 -174 233 -183Q230 -204 236 -240Q238 -256 240 -263Q240 -278 248 -306Q249 -308 249 -312L250 -323Q251 -326 251 -329Q252 -342 253 -356Q254 -361 244 -364Q233 -362 222 -360Q209 -358 195 -360Q184 -362 172 -364Q168 -364 145 -373Q139 -374 136 -377Q135 -379 138 -380Q141 -381 143 -382L154 -385Q158 -387 159 -387Q187 -400 215 -414Q218 -414 220 -415L231 -418Q234 -418 236 -419Q243 -423 256 -419Q267 -420 278 -422ZM573 -285Q582 -286 595 -293Q608 -300 615 -299Q629 -305 644 -309Q681 -324 720 -333Q737 -338 756 -339Q792 -336 798 -335Q807 -334 815 -334Q819 -331 824 -328Q829 -326 831 -320Q818 -297 804 -275Q791 -257 776 -240Q770 -237 773 -230Q776 -225 782 -223Q802 -223 814 -216Q835 -213 852 -200Q865 -189 876 -176Q881 -173 881 -166Q881 -160 883 -154Q882 -144 883 -133Q884 -122 878 -113Q876 -98 874 -84Q866 -68 861 -59Q855 -31 834 -7Q823 18 817 25Q798 48 775 68Q770 73 760 78Q750 83 746 88Q736 92 728 75Q722 67 718 49Q715 40 706 35Q701 32 689 29Q687 25 688 24Q693 23 699 24Q706 22 732 29Q745 23 756 14Q769 -1 778 -17Q790 -42 805 -66Q813 -96 825 -124Q826 -136 827 -149Q828 -169 807 -179Q783 -187 771 -190Q741 -202 735 -221Q725 -235 730 -251Q733 -259 750 -291Q748 -302 733 -291Q723 -295 711 -287Q686 -280 663 -271Q656 -271 655 -264Q654 -258 658 -252Q664 -241 647 -224Q639 -215 629 -207Q622 -194 615 -182Q612 -171 602 -165Q594 -154 590 -143Q579 -132 571 -119Q564 -106 555 -93Q541 -78 527 -64Q522 -63 514 -54Q506 -44 498 -45Q497 -52 506 -65Q515 -82 524 -100Q546 -141 573 -181Q581 -197 588 -213Q594 -228 602 -241Q600 -247 595 -247Q589 -248 584 -248Q576 -243 558 -243Q535 -246 515 -251Q502 -251 500 -261Q504 -268 513 -261Q517 -259 524 -265Q530 -269 534 -270Q554 -276 573 -285Z"/>
</svg>