<svg xmlns="http://www.w3.org/2000/svg" viewBox="0 -800 1024 1024">
	<path fill="#000000" d="M714 -430Q716 -437 725 -451Q734 -466 736 -475Q747 -491 755 -533Q758 -551 754 -555Q739 -564 722 -564Q690 -560 664 -546Q657 -543 659 -536Q660 -528 659 -521Q658 -507 657 -494Q653 -474 654 -455Q651 -449 651 -436Q651 -424 649 -419Q649 -416 646 -410Q642 -403 646 -400Q646 -388 641 -386Q634 -386 631 -381Q629 -375 626 -370Q617 -359 611 -366Q605 -368 598 -380Q589 -388 587 -414Q588 -420 589 -427Q592 -434 594 -442Q596 -452 597 -462Q595 -476 599 -491Q597 -494 598 -500Q599 -507 597 -509Q585 -504 575 -495Q550 -480 532 -454Q529 -443 526 -432Q517 -422 512 -409Q507 -405 505 -397Q501 -398 500 -405Q499 -409 497 -412Q494 -420 487 -426Q481 -433 485 -442Q475 -462 483 -470Q483 -477 488 -481Q494 -485 498 -491Q503 -499 508 -507Q511 -507 514 -512Q518 -518 521 -517Q520 -513 525 -509Q529 -506 529 -503Q528 -499 530 -496Q532 -492 536 -495Q568 -515 600 -535Q603 -542 603 -558Q603 -573 605 -578Q605 -606 602 -632Q599 -644 586 -648Q588 -655 582 -656Q579 -657 587 -657Q592 -664 600 -663Q608 -662 616 -664Q636 -664 648 -647Q658 -633 658 -617Q660 -611 660 -581Q659 -577 662 -575Q665 -574 668 -576Q701 -587 707 -587Q722 -592 736 -592Q753 -592 766 -586Q777 -583 795 -575Q811 -570 818 -546Q818 -534 818 -523Q820 -517 817 -510Q813 -502 811 -490Q801 -481 796 -470Q798 -465 794 -461Q792 -458 792 -456Q789 -455 785 -451L779 -445Q777 -440 773 -438Q769 -435 766 -432Q769 -427 766 -426Q763 -424 760 -423Q762 -419 759 -418Q757 -416 754 -414Q755 -413 753 -412Q749 -410 750 -409Q749 -403 739 -401Q732 -399 729 -395Q721 -393 717 -385Q713 -381 716 -376Q719 -371 723 -372Q758 -378 793 -375Q836 -373 852 -357Q859 -353 865 -343Q870 -334 872 -332Q879 -322 878 -313Q889 -302 880 -291Q882 -283 883 -276Q882 -267 880 -258Q882 -253 880 -237Q879 -229 878 -223Q874 -209 870 -195Q867 -184 861 -174Q859 -168 856 -160Q854 -143 841 -129Q835 -127 834 -122Q832 -117 829 -112Q825 -101 814 -95Q803 -90 794 -82Q797 -72 792 -70Q779 -57 779 -44Q774 -36 758 -39Q745 -41 739 -37Q737 -40 730 -39Q723 -37 721 -42Q714 -44 695 -44Q680 -44 670 -46Q648 -47 625 -46Q613 -46 592 -43Q558 -37 542 -42Q504 -47 474 -57Q470 -57 466 -61Q462 -65 465 -68Q476 -62 488 -68Q514 -76 529 -78Q540 -79 549 -82Q552 -81 570 -84Q579 -85 616 -92Q634 -92 651 -97Q670 -98 688 -99Q707 -99 725 -97Q732 -98 739 -97Q746 -96 747 -104Q753 -103 763 -108Q759 -116 763 -122Q773 -134 778 -147Q783 -154 787 -164Q801 -196 806 -213Q823 -248 818 -284Q817 -289 817 -298Q818 -316 801 -324Q785 -336 760 -331Q743 -332 716 -326Q689 -320 679 -320Q648 -312 586 -302Q569 -297 548 -301Q539 -301 529 -302L508 -305Q503 -304 498 -310Q493 -315 490 -317Q485 -319 489 -323Q498 -318 511 -322Q529 -327 546 -333Q567 -339 607 -343Q644 -352 652 -357Q652 -362 658 -363Q663 -364 664 -366Q669 -375 677 -377Q681 -377 682 -382Q683 -386 685 -386Q689 -389 693 -395Q698 -403 701 -405ZM280 -640H292Q296 -637 306 -637Q316 -637 320 -633Q327 -630 335 -632Q341 -633 341 -626Q339 -617 341 -607Q348 -597 339 -593Q331 -588 323 -588Q321 -583 311 -583Q303 -583 300 -581Q279 -580 261 -587Q236 -593 234 -594Q225 -594 214 -600Q203 -606 198 -607Q197 -611 190 -611Q183 -611 181 -617Q193 -619 201 -619Q210 -617 214 -622Q218 -626 222 -629Q229 -625 233 -628Q236 -632 243 -632Q251 -637 266 -638Q277 -639 280 -640ZM319 -511H324Q326 -508 333 -507Q338 -507 339 -502Q351 -507 356 -497Q366 -492 368 -469Q376 -466 376 -457Q376 -448 368 -445Q363 -435 357 -425Q354 -418 343 -408Q334 -400 331 -394Q325 -383 306 -364Q301 -352 304 -339Q298 -333 299 -324Q300 -315 299 -306Q302 -298 300 -283Q299 -271 300 -265Q312 -272 317 -283Q321 -294 326 -305Q327 -313 331 -322Q335 -330 326 -336Q323 -339 324 -340Q328 -341 333 -339Q344 -336 347 -347Q348 -351 352 -349Q357 -346 362 -345Q375 -340 387 -336Q396 -334 400 -326Q404 -317 396 -313Q395 -306 385 -299Q377 -293 375 -289Q362 -285 354 -269Q325 -255 318 -240Q330 -237 344 -237Q358 -239 375 -237Q389 -236 400 -232Q406 -234 414 -228Q418 -224 425 -221Q432 -219 433 -212Q436 -209 432 -204Q428 -199 433 -196Q439 -193 434 -186Q430 -180 425 -183Q407 -184 394 -190Q385 -195 374 -197Q362 -201 355 -205Q347 -205 332 -211Q318 -216 310 -216Q303 -220 299 -215Q295 -210 296 -202Q292 -177 293 -151Q294 -126 293 -100Q292 -80 290 -61Q291 -58 288 -32Q285 -29 283 -21Q280 -11 275 -10Q270 -9 262 -15Q255 -20 251 -20Q249 -22 244 -19Q238 -15 236 -20Q233 -34 229 -49Q228 -62 226 -75Q229 -79 230 -97Q230 -111 233 -115Q231 -121 234 -131Q237 -142 236 -146Q237 -170 239 -191Q238 -202 239 -217Q243 -222 243 -235Q243 -250 248 -256Q246 -265 249 -277Q250 -285 250 -292Q249 -294 246 -292Q214 -260 181 -223Q163 -211 156 -200Q151 -200 146 -198Q140 -193 133 -191Q131 -192 131 -196Q121 -204 125 -223Q125 -236 129 -247L148 -267Q152 -270 160 -281Q168 -293 175 -297Q207 -339 215 -348Q230 -362 254 -392Q259 -396 263 -403Q269 -413 274 -416Q274 -421 278 -428Q283 -436 281 -441Q254 -437 229 -429Q223 -430 211 -428Q198 -426 191 -429Q183 -433 176 -433L152 -442Q150 -439 148 -443Q147 -446 150 -445Q152 -444 164 -444Q231 -474 255 -488Q260 -491 271 -494Q287 -498 291 -506Q298 -508 304 -510Q306 -505 311 -507Q316 -510 319 -511ZM656 -237Q671 -238 686 -232Q695 -231 700 -215Q703 -209 698 -207Q694 -205 690 -202Q672 -198 651 -199Q640 -195 589 -190Q564 -186 503 -195Q495 -197 485 -196Q475 -196 473 -206Q480 -201 497 -208Q523 -213 548 -218Q562 -220 575 -223L629 -232Q643 -234 656 -237Z"/>
</svg>