<svg xmlns="http://www.w3.org/2000/svg" viewBox="0 -800 1024 1024">
	<path fill="#000000" d="M561 -725H562Q565 -726 570 -722Q575 -718 578 -719Q582 -725 597 -721Q602 -721 606 -714Q609 -709 618 -707Q627 -705 630 -701Q629 -692 635 -684Q644 -679 631 -664Q630 -655 623 -647Q620 -643 620 -636Q620 -629 613 -628Q607 -631 605 -625Q602 -620 599 -616Q574 -600 569 -591Q572 -584 580 -586Q590 -590 601 -590Q616 -592 630 -591Q635 -590 640 -591Q646 -593 650 -587Q652 -582 661 -581Q670 -580 673 -575Q678 -567 679 -558Q679 -554 668 -549Q663 -550 656 -544Q648 -538 644 -540Q637 -544 632 -541Q626 -538 620 -538Q600 -536 591 -532Q560 -533 534 -527Q524 -529 514 -520Q510 -516 500 -504Q496 -504 488 -499Q479 -493 474 -496Q471 -502 479 -511Q485 -517 485 -521Q482 -525 479 -525Q470 -520 462 -521Q441 -525 431 -520Q410 -520 392 -517Q383 -520 358 -518Q336 -527 313 -531Q310 -532 310 -533Q312 -535 316 -535Q353 -541 389 -548Q394 -550 401 -549Q409 -550 417 -553Q424 -556 432 -553Q440 -552 452 -558Q462 -556 469 -563Q480 -566 488 -580Q507 -604 541 -664Q543 -670 546 -676Q549 -681 545 -686Q526 -683 510 -678Q486 -672 466 -661Q451 -659 440 -652Q423 -639 419 -631Q413 -626 410 -611Q407 -595 400 -590Q392 -591 383 -601Q377 -608 373 -610Q366 -619 359 -629Q352 -638 353 -651Q359 -679 369 -689Q373 -696 380 -696Q390 -696 394 -687Q397 -684 397 -674Q397 -665 400 -661Q401 -655 406 -656Q412 -657 415 -661Q450 -684 464 -692Q494 -709 517 -714Q539 -719 561 -725ZM353 -461Q357 -462 359 -454Q362 -452 366 -445Q369 -439 373 -436Q382 -437 382 -420Q372 -409 360 -407Q346 -397 333 -385Q329 -385 323 -377Q317 -369 312 -370Q306 -370 305 -366Q303 -360 301 -355Q295 -353 292 -345Q289 -338 286 -336Q278 -335 274 -327Q271 -320 266 -314Q264 -308 260 -301Q257 -294 264 -288Q284 -288 306 -283Q316 -270 324 -273Q337 -279 345 -271Q352 -265 362 -261Q374 -251 366 -240Q336 -223 322 -206Q318 -200 307 -191Q291 -179 289 -169Q292 -164 304 -164Q313 -164 317 -162Q331 -159 337 -134Q333 -129 326 -125Q318 -122 321 -114Q326 -106 317 -91Q314 -88 317 -82Q320 -76 319 -72L315 -58Q315 -53 312 -49Q309 -44 314 -41Q319 -44 323 -47L340 -62Q345 -65 349 -68Q354 -75 366 -86Q382 -102 388 -110Q400 -124 409 -140Q412 -149 414 -160Q413 -164 417 -167Q421 -170 424 -169Q425 -166 422 -159Q418 -152 420 -147Q414 -131 413 -122Q409 -118 409 -110Q408 -101 406 -98Q402 -91 405 -82Q392 -74 389 -67Q381 -55 361 -31Q354 -25 342 -11Q329 5 320 11Q298 35 296 42Q295 57 280 59Q257 50 243 23Q231 15 243 0Q254 -29 265 -58Q278 -83 278 -115Q280 -124 274 -130Q269 -136 261 -133Q242 -123 223 -144Q216 -146 215 -154Q214 -160 215 -168Q216 -177 224 -187Q227 -191 239 -204Q253 -222 269 -239Q273 -245 276 -251Q273 -253 265 -250Q259 -247 256 -249Q250 -250 245 -252Q240 -254 236 -251Q228 -249 222 -254Q216 -259 210 -261Q197 -264 185 -281Q183 -288 179 -296Q175 -303 179 -311Q185 -323 183 -330Q182 -336 186 -336Q192 -335 197 -335Q204 -339 204 -348Q216 -357 227 -367Q228 -371 230 -376Q232 -380 238 -378Q243 -378 247 -385Q250 -391 253 -392Q259 -392 271 -404Q282 -413 294 -421Q314 -443 332 -449Q343 -455 353 -461ZM686 -410Q693 -411 702 -408Q712 -412 724 -401L736 -378Q737 -372 730 -356Q739 -343 738 -334Q741 -328 749 -329Q757 -330 763 -331Q773 -334 785 -332Q800 -335 804 -333Q818 -336 829 -331Q843 -334 850 -319Q851 -314 847 -310Q846 -309 839 -305Q836 -304 838 -299Q840 -295 839 -292Q831 -287 822 -282Q807 -286 801 -282L761 -280Q745 -278 743 -273Q746 -240 747 -233Q748 -217 746 -199Q750 -188 747 -176Q747 -158 745 -148Q746 -144 746 -105Q748 -102 745 -95Q742 -88 745 -84Q747 -56 745 -47Q744 -38 743 -30Q748 -9 740 11Q737 24 737 38Q725 53 723 72Q709 89 697 108Q685 105 677 95Q662 85 655 70Q646 63 643 65Q633 69 623 73Q619 72 619 69Q619 67 622 65Q628 62 625 54Q623 48 624 47L643 37Q646 34 655 34Q663 34 667 31Q675 16 679 1Q688 -44 688 -61Q693 -88 693 -130Q693 -150 693 -170Q693 -218 695 -242Q693 -248 694 -254Q694 -261 689 -264Q672 -261 658 -256Q644 -252 629 -249L589 -236Q573 -232 557 -229Q536 -223 530 -219Q520 -219 513 -214Q510 -215 497 -210Q483 -216 468 -213Q455 -216 441 -219Q431 -222 421 -221Q421 -228 427 -229Q433 -230 438 -232Q492 -254 575 -277Q611 -289 646 -301Q664 -306 684 -309Q692 -315 686 -335Q684 -350 678 -376Q673 -386 663 -389Q652 -392 644 -396Q629 -404 638 -407Q647 -406 656 -405Q670 -409 686 -410ZM488 -189Q498 -189 500 -186Q520 -182 532 -175Q537 -174 547 -168Q561 -159 570 -160Q583 -157 596 -152Q599 -148 608 -145Q616 -142 620 -138Q626 -135 625 -129Q625 -124 626 -118Q625 -107 613 -105Q609 -104 591 -106Q560 -117 552 -121Q545 -122 539 -131Q534 -139 530 -140Q516 -151 491 -176Q484 -186 488 -189Z"/>
</svg>