<svg xmlns="http://www.w3.org/2000/svg" viewBox="0 -800 1024 1024">
	<path fill="#000000" d="M568 -587Q585 -587 605 -594Q625 -600 641 -605Q647 -606 666 -610Q686 -615 689 -619Q699 -625 712 -627Q716 -629 741 -629Q750 -629 759 -629Q766 -629 773 -629Q778 -630 779 -625Q780 -621 777 -617Q781 -606 780 -604Q780 -602 775 -600Q770 -598 769 -595Q763 -591 749 -588Q736 -585 731 -582Q692 -577 658 -566Q649 -564 624 -557Q589 -547 575 -546Q570 -545 571 -540Q572 -536 576 -536Q587 -536 593 -533Q602 -522 609 -487Q612 -483 610 -475Q608 -466 610 -462Q608 -452 611 -437Q614 -425 610 -414Q609 -410 606 -380Q604 -362 604 -345Q605 -341 603 -332Q600 -320 606 -314Q626 -332 646 -350Q653 -356 659 -355Q660 -354 659 -352Q654 -348 642 -333Q631 -319 621 -313Q616 -302 609 -292Q602 -283 602 -269Q600 -265 602 -257Q604 -247 601 -243Q603 -240 601 -231Q599 -224 601 -221Q599 -205 602 -188Q597 -174 597 -159Q598 -144 598 -129Q598 -125 596 -119Q592 -109 595 -105Q595 -69 595 -33Q598 -26 595 -21Q591 -17 588 -13Q587 -3 577 4Q571 3 564 -7Q557 -17 550 -20Q537 -44 540 -55Q546 -96 546 -136Q549 -169 552 -202Q551 -209 552 -217Q554 -230 550 -235Q538 -230 536 -223Q504 -197 471 -167Q461 -161 444 -145Q426 -128 416 -122Q408 -119 399 -120Q391 -142 380 -166Q377 -173 382 -175Q387 -178 390 -182Q398 -197 409 -210Q420 -223 423 -239Q404 -264 404 -285Q402 -287 403 -296Q404 -308 398 -309Q383 -304 367 -299Q359 -298 358 -288Q356 -274 354 -271Q354 -266 344 -259Q334 -252 333 -244Q329 -238 330 -223Q331 -208 327 -201Q330 -188 326 -173Q330 -159 328 -146Q331 -137 327 -124L325 -109Q322 -99 324 -86Q320 -72 315 -59Q313 -41 305 -30Q296 -37 274 -64Q260 -81 245 -99Q250 -102 258 -103Q266 -103 269 -111Q271 -154 273 -198Q271 -203 268 -201Q264 -196 260 -194Q256 -188 245 -183Q232 -177 229 -171Q215 -156 198 -145Q181 -134 166 -122Q154 -115 133 -92Q129 -86 122 -88Q115 -90 115 -97Q109 -107 105 -117Q102 -127 92 -130Q84 -143 100 -149Q103 -157 118 -162Q134 -159 167 -176Q219 -211 273 -241Q276 -256 274 -261Q277 -268 272 -269Q265 -270 260 -264Q242 -260 225 -252Q207 -249 194 -238Q184 -232 174 -232Q163 -232 160 -242Q147 -260 133 -278Q121 -301 137 -322Q148 -347 155 -373Q167 -394 172 -418Q161 -422 146 -420Q117 -426 110 -437Q116 -445 125 -447Q134 -449 143 -452Q171 -461 196 -477Q208 -503 216 -531Q224 -552 231 -573Q240 -608 248 -644Q253 -654 245 -660Q243 -662 229 -668Q226 -672 233 -676Q239 -679 240 -681L255 -680Q271 -676 287 -681Q301 -680 307 -664Q314 -659 310 -651Q306 -644 304 -637Q294 -619 292 -597Q286 -576 280 -556Q281 -550 277 -539Q274 -531 274 -527Q272 -517 270 -507Q278 -503 286 -516Q296 -509 308 -516Q317 -513 325 -520Q332 -519 339 -521Q345 -523 350 -517Q357 -512 358 -506Q365 -485 343 -474Q325 -466 305 -463Q297 -457 279 -455Q268 -451 258 -448Q247 -445 242 -436Q238 -424 231 -415Q227 -386 213 -361Q206 -347 199 -333Q192 -325 192 -315Q191 -305 189 -296Q187 -288 202 -292Q226 -302 249 -312Q253 -315 262 -317Q274 -320 278 -324Q281 -358 276 -366Q271 -368 266 -373Q261 -378 256 -375Q255 -378 260 -380Q265 -382 267 -387Q280 -385 292 -384Q303 -382 314 -383Q324 -384 329 -376Q338 -367 338 -360Q344 -358 342 -351Q341 -346 343 -344Q348 -342 359 -346Q369 -350 376 -348Q391 -344 406 -346Q415 -367 420 -392Q426 -403 435 -442Q443 -455 447 -472Q449 -480 458 -497Q468 -515 470 -526Q467 -536 447 -543Q438 -546 425 -547Q422 -547 422 -548Q422 -551 430 -553Q475 -562 485 -566Q493 -569 501 -571Q508 -572 513 -578Q536 -578 555 -583Q560 -587 568 -587ZM519 -308Q510 -307 501 -307Q488 -290 474 -274Q470 -268 464 -261Q459 -255 458 -245Q458 -230 451 -216Q456 -209 444 -207Q437 -202 429 -197Q422 -190 422 -182Q422 -180 426 -180Q437 -186 448 -192Q450 -194 479 -217Q482 -221 488 -224Q496 -228 497 -232Q513 -243 550 -273Q554 -291 554 -292Q555 -302 549 -308Q534 -310 519 -308ZM468 -323Q466 -316 466 -306Q467 -302 464 -296Q460 -289 464 -287Q470 -293 479 -299Q487 -304 487 -314Q482 -316 478 -321Q473 -326 468 -323ZM490 -402L485 -389Q480 -366 471 -345Q469 -337 476 -337Q483 -336 488 -339Q504 -340 520 -342Q525 -343 535 -343Q548 -343 553 -346Q554 -358 554 -371Q557 -380 552 -387Q533 -390 519 -396Q513 -395 505 -399Q495 -403 490 -402ZM708 -497H713Q719 -489 730 -494Q733 -491 738 -495Q742 -498 745 -497Q750 -491 756 -486Q761 -482 764 -475Q766 -462 764 -456Q758 -443 753 -419Q748 -395 744 -386Q737 -366 736 -349Q731 -324 725 -300Q727 -294 723 -278Q720 -266 721 -259Q718 -247 715 -235Q717 -224 713 -206Q708 -185 710 -176Q708 -170 710 -163Q712 -157 713 -150Q715 -126 740 -112Q755 -106 769 -101Q792 -95 816 -95Q840 -96 865 -94Q917 -99 968 -105Q976 -121 977 -143Q979 -145 978 -153Q977 -161 982 -162Q985 -159 986 -149Q987 -139 990 -135Q1007 -123 1018 -105Q1028 -103 1033 -101Q1041 -98 1042 -91Q1046 -86 1047 -79Q1048 -70 1042 -68Q1030 -52 1001 -51Q957 -50 953 -49Q947 -47 931 -48Q918 -49 911 -47Q898 -47 886 -45Q874 -43 863 -48Q826 -48 788 -53Q783 -52 776 -55Q769 -58 764 -58Q710 -83 692 -106Q681 -113 671 -136Q662 -157 661 -172Q654 -225 668 -273Q671 -294 674 -316Q681 -341 687 -373Q688 -388 696 -413Q707 -448 706 -466Q703 -471 692 -468Q681 -465 679 -471Q681 -477 693 -484Q704 -490 708 -497ZM529 -534Q525 -532 517 -532Q505 -532 501 -528Q501 -524 505 -520Q509 -516 508 -512Q517 -507 508 -486Q506 -464 502 -459Q503 -453 499 -445Q495 -437 495 -434Q504 -432 513 -431Q527 -431 541 -431Q553 -429 556 -438Q559 -448 558 -458Q556 -508 547 -525Q548 -531 542 -534Q537 -537 529 -534Z"/>
</svg>