<svg xmlns="http://www.w3.org/2000/svg" viewBox="0 -800 1024 1024">
	<path fill="#000000" d="M626 -671Q638 -673 656 -664Q664 -662 672 -644Q677 -642 675 -630Q679 -618 679 -588Q679 -578 677 -552Q672 -540 670 -503Q665 -491 663 -477Q663 -458 664 -456Q664 -453 668 -452Q672 -452 675 -452Q694 -463 722 -466Q726 -468 740 -470Q750 -470 760 -470Q783 -472 796 -470Q826 -460 835 -454Q845 -450 852 -437Q861 -427 870 -417Q870 -413 874 -404Q878 -396 878 -390Q884 -375 881 -357Q878 -345 880 -328Q879 -326 881 -319Q883 -312 882 -307Q885 -298 882 -289Q880 -274 876 -260Q879 -235 878 -230Q874 -221 874 -209Q870 -199 873 -189Q875 -178 875 -167Q873 -139 874 -109Q870 -101 870 -96Q870 -85 872 -78Q869 -67 866 -57Q862 -47 857 -37Q854 -27 847 -19Q842 -20 839 -11Q837 -4 833 -3Q823 -11 815 -14Q807 -17 804 -23Q801 -29 796 -34Q781 -38 773 -50Q769 -54 764 -58Q758 -63 761 -67Q770 -67 779 -67Q782 -70 793 -70Q806 -70 811 -76Q816 -108 816 -114Q813 -128 821 -141Q820 -157 825 -205Q825 -213 825 -221Q827 -230 825 -238Q824 -246 824 -311Q824 -326 823 -341Q824 -352 819 -378Q817 -390 814 -401Q810 -413 799 -418Q780 -429 755 -425Q729 -420 723 -417Q707 -412 694 -404Q678 -397 662 -390Q649 -381 646 -367Q643 -360 644 -351Q642 -348 642 -340Q642 -331 638 -327Q634 -325 633 -317Q632 -312 631 -310Q631 -309 628 -305Q624 -301 626 -298Q626 -294 631 -293Q636 -293 640 -291Q654 -293 676 -288Q685 -290 695 -287Q702 -291 707 -285Q712 -280 718 -277Q744 -280 753 -256Q759 -254 762 -249Q765 -244 769 -239Q772 -235 769 -231Q766 -228 765 -224Q760 -218 751 -221Q742 -217 734 -221Q726 -225 718 -226Q711 -227 702 -233Q693 -239 688 -239Q667 -248 661 -249Q639 -258 617 -267Q600 -273 590 -248Q560 -225 554 -222Q544 -221 537 -218Q526 -210 517 -211Q538 -232 557 -255Q565 -265 575 -289Q578 -302 583 -315Q588 -328 586 -342Q586 -345 589 -351Q593 -359 589 -363Q581 -366 572 -363Q560 -370 545 -369Q531 -375 508 -373Q497 -369 494 -358Q490 -347 488 -336Q482 -326 484 -313Q481 -302 482 -290Q478 -283 483 -261Q485 -253 482 -238Q479 -222 481 -215Q479 -209 479 -195Q479 -180 476 -172Q470 -165 477 -152Q475 -123 479 -113Q480 -110 479 -100Q478 -90 481 -85Q484 -78 478 -75Q477 -74 467 -71Q442 -73 430 -90Q423 -104 410 -110Q405 -117 393 -121Q387 -124 390 -128Q394 -133 400 -130Q404 -128 406 -133Q409 -138 412 -141Q412 -151 417 -161Q424 -170 418 -180Q415 -187 418 -197Q421 -206 420 -209Q424 -243 429 -256Q431 -280 436 -299Q438 -317 440 -335Q449 -374 468 -404Q472 -412 476 -420Q479 -429 490 -429Q499 -419 501 -403Q502 -401 500 -395Q498 -389 499 -386Q499 -381 504 -382Q509 -384 512 -385Q530 -397 576 -412Q591 -416 606 -427Q608 -441 610 -469Q610 -479 615 -522Q620 -557 620 -565Q623 -593 623 -622Q623 -637 619 -649Q615 -659 604 -656Q596 -659 599 -664Q602 -670 609 -666Q618 -668 626 -671ZM318 -198Q317 -196 316 -194L312 -188Q311 -186 310 -184Q306 -174 291 -155Q289 -151 277 -139Q262 -128 259 -115Q256 -114 253 -107Q251 -102 247 -101Q231 -95 220 -114Q207 -124 193 -132Q185 -136 188 -142Q192 -147 192 -155Q186 -170 190 -175Q194 -183 199 -189Q204 -195 202 -204Q203 -229 204 -254Q210 -265 207 -278Q201 -280 193 -278Q187 -275 179 -280Q174 -283 170 -283Q165 -285 162 -284Q159 -283 160 -278Q161 -276 160 -275Q156 -276 153 -279Q134 -291 129 -296Q102 -317 106 -341Q107 -363 121 -401Q137 -414 140 -418Q152 -428 169 -430Q171 -428 176 -427Q182 -426 184 -422Q184 -415 189 -416Q197 -417 202 -421Q227 -429 224 -444Q224 -480 225 -496Q225 -503 225 -511Q226 -536 226 -561Q228 -581 214 -580Q210 -581 209 -583Q211 -590 220 -594Q222 -594 224 -597Q227 -602 230 -600Q254 -596 278 -596Q288 -582 279 -567Q282 -546 276 -525Q279 -510 278 -499Q270 -494 275 -480Q278 -471 276 -467Q273 -457 283 -453Q304 -458 311 -459Q328 -459 345 -460Q349 -462 357 -458Q364 -455 368 -455Q374 -450 382 -445Q389 -440 390 -430Q402 -402 394 -391Q390 -388 387 -378Q383 -367 377 -364Q363 -356 355 -348Q347 -337 334 -327Q328 -326 327 -319Q326 -313 323 -309Q316 -305 308 -303Q305 -300 296 -300Q289 -300 285 -298Q279 -299 274 -294Q268 -288 271 -283Q274 -278 271 -271Q268 -264 269 -259Q266 -256 268 -249Q270 -241 265 -237Q264 -216 262 -196Q264 -190 268 -192Q272 -194 277 -196Q278 -198 285 -203Q292 -208 294 -214Q291 -219 296 -223Q300 -227 306 -227Q328 -245 346 -271Q350 -254 318 -198ZM317 -407Q302 -408 281 -402Q277 -393 278 -385Q278 -372 277 -360Q278 -354 278 -346Q277 -337 285 -338Q295 -351 297 -355Q306 -363 320 -396Q323 -400 323 -405Q322 -409 317 -407ZM211 -399L204 -397Q202 -394 197 -395Q191 -396 189 -392Q190 -385 181 -378Q172 -371 172 -366Q170 -357 164 -348Q158 -338 160 -328Q160 -321 165 -319Q170 -317 173 -315Q178 -314 207 -320Q219 -322 219 -334Q219 -346 220 -355Q221 -368 221 -382Q224 -388 221 -395Q218 -402 211 -399Z"/>
</svg>