<svg xmlns="http://www.w3.org/2000/svg" viewBox="0 -800 1024 1024">
	<path fill="#000000" d="M298 -647Q306 -647 314 -644Q325 -649 333 -637Q348 -640 352 -636Q368 -638 379 -612Q391 -603 387 -584Q385 -579 388 -569Q391 -559 389 -553Q385 -548 383 -534Q384 -529 381 -523Q377 -514 379 -509Q386 -499 378 -486Q378 -483 375 -476Q371 -466 373 -461Q375 -447 374 -434Q370 -425 370 -410Q366 -397 367 -383Q368 -373 366 -361Q364 -337 369 -327Q369 -312 366 -299Q368 -277 369 -256Q373 -250 371 -234Q370 -224 371 -217Q375 -202 374 -185Q374 -172 376 -165Q374 -151 382 -138Q377 -103 365 -71Q359 -68 355 -63Q351 -57 346 -52Q340 -50 335 -55Q330 -60 326 -62Q312 -71 309 -82Q309 -96 297 -96Q289 -96 290 -103Q290 -110 289 -115Q289 -123 280 -134Q273 -143 272 -150Q270 -154 269 -160Q269 -166 274 -166Q282 -159 286 -147Q288 -141 296 -137Q304 -133 309 -139Q313 -166 312 -194Q312 -237 311 -277Q313 -297 315 -317Q313 -332 316 -347Q317 -358 320 -367Q316 -373 312 -369Q307 -364 304 -361Q300 -356 296 -344Q287 -336 282 -325Q281 -322 276 -321Q270 -320 270 -317Q268 -310 270 -302Q271 -293 264 -289Q234 -307 229 -328Q223 -333 216 -347Q212 -357 219 -364Q225 -371 227 -379Q234 -395 240 -421Q240 -430 241 -439Q242 -448 232 -450Q223 -448 213 -446Q207 -446 206 -440Q205 -434 203 -428Q204 -402 201 -370Q201 -364 201 -358Q199 -354 197 -334Q194 -319 193 -303Q193 -293 191 -287Q187 -283 190 -274Q193 -267 187 -256Q182 -247 182 -244Q178 -231 175 -218Q171 -215 171 -203Q171 -196 169 -192Q160 -190 162 -175Q157 -162 152 -150Q144 -145 138 -131Q134 -127 129 -123Q123 -119 120 -125Q114 -137 107 -149Q103 -161 97 -170Q93 -176 101 -182Q107 -186 106 -190Q103 -194 105 -201Q106 -208 105 -211Q106 -216 115 -218Q121 -219 124 -223Q128 -238 131 -254Q127 -263 129 -270Q138 -281 141 -300Q143 -316 145 -324Q149 -343 153 -363Q157 -394 160 -425L162 -487Q161 -499 163 -522Q157 -537 162 -552Q163 -563 163 -575Q169 -585 174 -595Q176 -600 181 -600Q185 -600 190 -596Q198 -594 205 -598Q211 -602 218 -606Q241 -620 266 -632Q271 -637 282 -640Q294 -644 298 -647ZM766 -602Q770 -602 771 -601Q794 -603 806 -599Q819 -598 830 -592Q840 -586 851 -582Q863 -578 870 -567Q879 -558 886 -547Q891 -545 890 -536Q889 -530 892 -526Q895 -515 898 -504Q896 -499 901 -490Q906 -481 905 -475Q901 -466 901 -436Q902 -424 902 -413Q906 -408 904 -391Q902 -389 902 -379Q902 -369 905 -360Q903 -355 904 -346Q905 -334 903 -330Q903 -320 901 -308Q898 -299 900 -289Q906 -279 900 -268Q903 -237 898 -228Q898 -212 898 -196Q898 -183 895 -169Q900 -160 898 -148Q894 -130 892 -110Q894 -92 888 -76Q892 -67 883 -54Q878 -40 867 -28Q852 -26 847 -20Q838 -21 834 -28Q829 -35 826 -41Q808 -61 815 -72Q815 -81 821 -87Q827 -93 831 -100Q830 -114 838 -138Q838 -140 844 -202Q845 -264 851 -325Q850 -334 849 -344Q850 -363 851 -383Q853 -389 851 -399Q849 -411 851 -416Q848 -458 841 -497Q831 -540 828 -546Q808 -570 784 -563Q767 -563 752 -559Q741 -558 713 -549Q701 -545 689 -542Q682 -543 670 -539Q660 -536 654 -536Q640 -536 629 -531Q606 -529 595 -530Q578 -533 566 -531Q561 -530 561 -534Q561 -537 565 -539Q580 -547 595 -556Q605 -562 641 -573Q653 -578 666 -580Q668 -584 673 -584Q677 -584 682 -585Q685 -589 695 -589Q705 -589 708 -592Q713 -592 735 -597Q751 -599 766 -602ZM319 -600L313 -598Q309 -599 302 -594Q297 -591 294 -591Q287 -593 283 -588Q279 -583 276 -579Q270 -579 267 -575Q263 -571 259 -568Q238 -568 219 -576Q213 -577 206 -578Q199 -578 195 -572Q199 -564 199 -553Q199 -546 199 -540Q202 -536 197 -519L199 -495Q200 -493 199 -485Q197 -473 203 -468Q214 -471 225 -475Q240 -481 259 -478Q274 -479 288 -475Q299 -475 298 -464Q295 -457 287 -443Q287 -436 282 -423Q276 -407 277 -397Q276 -392 273 -386Q269 -380 274 -375Q286 -383 296 -396Q297 -399 307 -399Q313 -400 315 -407Q316 -413 319 -418L324 -454Q326 -472 327 -490Q329 -502 330 -514Q330 -540 333 -563Q333 -577 332 -592Q333 -598 328 -601Q323 -603 319 -600ZM493 -545Q501 -543 509 -537Q519 -531 532 -526Q540 -519 536 -507Q534 -503 525 -488Q517 -485 519 -477Q520 -470 521 -463Q519 -448 517 -434Q513 -425 513 -417Q516 -403 511 -387Q511 -365 507 -345Q507 -340 504 -333Q501 -327 507 -322Q519 -322 528 -327Q538 -333 548 -337Q561 -342 573 -348Q581 -352 616 -366Q622 -365 626 -371Q630 -377 627 -382Q630 -403 607 -416Q597 -423 600 -425Q613 -425 625 -425Q642 -427 661 -424Q683 -412 678 -397Q675 -395 678 -390Q681 -386 684 -388Q695 -391 706 -389Q722 -390 725 -390Q735 -389 740 -382Q743 -377 735 -370Q729 -364 729 -360Q727 -355 723 -355Q718 -355 713 -355Q704 -349 694 -351Q691 -348 684 -346Q673 -342 670 -337Q662 -332 661 -323Q659 -315 657 -307Q647 -297 641 -284Q635 -278 645 -275L670 -274Q682 -275 696 -272Q706 -268 713 -268Q714 -267 735 -262Q752 -260 753 -244Q752 -241 752 -236Q752 -228 749 -226Q744 -218 731 -226Q720 -229 710 -227Q669 -242 628 -252Q620 -255 616 -249Q612 -242 606 -237Q602 -232 591 -227Q578 -225 567 -216Q563 -214 562 -217Q562 -222 567 -225Q570 -229 572 -234L582 -251Q586 -257 587 -260Q589 -269 606 -305Q609 -310 607 -314Q605 -319 600 -316Q593 -312 585 -312Q579 -308 566 -309Q554 -310 550 -308Q542 -303 534 -303Q529 -303 522 -308Q516 -309 511 -312Q505 -315 500 -310Q494 -296 488 -283Q489 -279 485 -272Q481 -264 483 -259Q485 -253 481 -242Q478 -233 478 -229Q473 -223 473 -216Q473 -208 471 -201Q471 -155 483 -132Q493 -118 519 -110Q562 -113 572 -112Q598 -113 626 -112Q643 -114 662 -115Q665 -112 675 -113Q683 -114 686 -113Q699 -110 714 -115Q719 -117 726 -113Q733 -109 737 -109Q744 -113 750 -109Q755 -106 762 -104Q772 -109 775 -109Q779 -109 786 -103Q794 -96 801 -97Q808 -99 811 -92Q814 -86 810 -80Q806 -81 800 -77Q796 -74 792 -74Q780 -78 776 -74Q755 -74 733 -74H646Q624 -74 602 -74Q571 -73 542 -77Q519 -80 501 -86Q435 -111 425 -142Q414 -159 416 -198Q416 -212 418 -218Q419 -236 421 -252Q428 -270 434 -288Q441 -317 445 -323Q447 -343 454 -358Q456 -366 461 -389Q469 -436 470 -438Q470 -453 476 -481Q480 -495 483 -510Q487 -515 488 -528Q489 -539 493 -545Z"/>
</svg>