<svg xmlns="http://www.w3.org/2000/svg" viewBox="0 -800 1024 1024">
	<path fill="#000000" d="M434 -613Q424 -615 402 -608Q382 -614 366 -601Q357 -589 359 -578Q352 -578 345 -578Q340 -578 340 -582Q339 -587 339 -593Q337 -604 316 -609Q305 -609 289 -611Q276 -615 266 -623Q269 -629 278 -627Q285 -629 291 -632L317 -640Q324 -642 330 -645Q337 -648 338 -654Q340 -660 342 -666Q342 -682 338 -695Q332 -703 335 -712Q338 -721 341 -729Q344 -734 348 -730Q352 -726 357 -723Q362 -720 363 -710Q364 -703 367 -699Q367 -682 375 -670Q384 -659 375 -651Q374 -646 378 -646Q384 -645 389 -646Q394 -648 436 -656Q447 -661 459 -663Q468 -678 476 -694Q491 -716 502 -738Q505 -741 503 -745Q500 -748 497 -746Q479 -750 462 -750Q459 -755 464 -758Q467 -760 473 -761Q493 -770 516 -777Q531 -776 545 -771Q556 -772 565 -763Q578 -767 582 -750Q587 -746 584 -736Q582 -729 583 -725Q574 -712 564 -699Q561 -695 556 -690Q551 -686 555 -680Q559 -678 566 -680Q576 -682 580 -679Q593 -676 606 -673Q621 -666 629 -651Q631 -642 615 -637Q610 -638 604 -634Q597 -630 593 -632Q578 -630 565 -626Q541 -625 511 -616Q496 -615 484 -606Q473 -597 461 -589Q455 -588 453 -580Q454 -580 475 -575Q476 -575 478 -573L485 -568Q487 -567 488 -566Q493 -556 489 -550Q493 -545 499 -545Q508 -546 517 -548Q537 -551 557 -555Q571 -555 584 -556Q594 -556 604 -557Q610 -558 618 -555Q622 -557 625 -556Q629 -555 629 -549Q627 -545 632 -540Q637 -534 636 -530Q621 -520 605 -514Q585 -513 563 -506Q538 -504 532 -501Q506 -497 494 -495Q489 -492 478 -491Q463 -489 458 -484Q454 -477 448 -461Q445 -457 440 -454Q435 -450 437 -444Q439 -438 446 -442Q452 -449 473 -455Q480 -459 511 -466Q518 -467 526 -469Q533 -471 541 -469Q554 -466 567 -464Q574 -467 583 -465Q592 -463 594 -455Q593 -449 599 -445Q604 -441 609 -436Q613 -433 611 -429Q609 -425 604 -424Q596 -426 596 -419Q598 -414 594 -411Q590 -407 586 -410Q580 -411 577 -404Q574 -396 568 -397Q561 -401 556 -395Q552 -389 547 -386Q529 -372 509 -364Q487 -359 467 -347Q459 -349 448 -335Q440 -326 432 -331Q426 -345 447 -354Q477 -382 498 -409Q500 -414 509 -425Q516 -434 519 -440Q516 -446 507 -441Q502 -438 499 -439Q493 -440 472 -429Q457 -428 440 -407Q434 -403 433 -392Q432 -383 430 -380Q427 -380 423 -375Q418 -370 415 -373Q414 -377 407 -381Q403 -384 401 -387Q399 -391 393 -397Q385 -404 386 -410Q385 -417 383 -424Q382 -431 387 -437Q390 -453 402 -464Q405 -474 414 -483Q418 -486 414 -491Q411 -495 407 -494Q398 -494 389 -495Q383 -499 371 -500Q356 -501 351 -507Q358 -512 365 -512Q384 -519 434 -532Q438 -534 444 -535Q449 -536 450 -541L435 -558Q417 -567 417 -575Q416 -579 414 -583Q413 -589 422 -589Q429 -586 435 -584Q439 -589 441 -604Q444 -608 441 -612Q438 -616 434 -613ZM739 -401H746Q782 -403 803 -396Q814 -394 824 -390Q839 -380 847 -369Q852 -363 851 -353Q856 -338 851 -322Q851 -316 843 -306Q836 -298 835 -293Q827 -283 818 -273Q812 -275 809 -271Q807 -267 805 -263Q796 -257 794 -252Q793 -245 781 -247Q770 -241 764 -230Q756 -224 749 -232Q744 -230 744 -225Q743 -220 741 -216Q738 -215 734 -208Q731 -203 728 -201Q720 -202 712 -204Q704 -197 698 -195Q692 -197 681 -195Q670 -193 665 -195Q655 -199 646 -193Q628 -189 609 -186Q596 -186 589 -176Q574 -163 568 -152Q567 -148 563 -143Q556 -136 558 -131Q560 -127 565 -128Q570 -129 573 -128Q599 -130 640 -125Q657 -120 658 -120Q669 -116 672 -107Q675 -98 678 -89Q690 -77 683 -62Q682 -54 684 -45Q680 -30 675 -16Q668 -11 666 -5Q664 2 661 8Q655 30 647 38Q640 39 638 49Q636 58 632 61Q629 65 627 69Q625 74 619 77Q610 90 604 92Q601 96 592 100Q586 103 583 106Q570 117 559 104Q551 89 522 66Q520 63 517 61Q512 57 516 54Q526 54 536 54Q541 51 553 51Q565 51 569 46Q580 29 593 14Q610 -14 627 -43Q632 -81 620 -89Q610 -94 588 -98Q578 -98 560 -109Q557 -109 552 -113Q546 -118 543 -114Q534 -96 518 -82Q513 -79 508 -70Q504 -62 500 -59Q494 -58 493 -53Q491 -49 488 -44L485 -43Q480 -41 480 -37Q480 -31 474 -29Q469 -27 465 -23Q459 -10 446 -4Q444 -2 436 3Q428 8 425 13Q419 19 416 20Q407 18 402 3Q400 -9 392 -17Q390 -22 394 -24Q398 -27 402 -29Q401 -34 402 -39Q404 -42 408 -39Q414 -36 420 -42Q423 -49 429 -53Q435 -57 441 -63Q456 -75 467 -89Q478 -100 478 -110Q479 -114 484 -118Q490 -122 491 -125Q493 -134 503 -148Q504 -152 508 -156Q513 -161 513 -164Q509 -168 504 -166Q498 -164 493 -164Q485 -166 474 -162Q464 -159 459 -159Q454 -155 442 -155Q431 -155 428 -154Q423 -151 414 -151Q403 -151 400 -149Q386 -148 373 -151Q365 -156 352 -159Q333 -164 327 -170Q323 -173 326 -176Q329 -178 333 -177Q367 -183 371 -184Q379 -184 393 -188Q409 -193 419 -192Q441 -199 465 -201Q473 -203 476 -204L500 -208Q503 -209 511 -211Q527 -211 530 -218Q527 -232 512 -238Q508 -242 498 -240Q491 -239 487 -241Q484 -246 477 -251Q470 -256 468 -260Q461 -265 455 -273Q449 -280 440 -277Q421 -270 400 -270Q384 -268 367 -266Q366 -265 364 -265L357 -263Q355 -263 354 -262Q333 -262 314 -257Q304 -254 295 -251Q285 -247 283 -236Q280 -233 279 -225Q278 -214 273 -212Q260 -212 251 -219Q228 -238 227 -250Q220 -265 235 -286Q254 -320 275 -349Q281 -361 305 -372Q313 -378 313 -359Q326 -335 313 -309Q312 -299 305 -291Q303 -288 304 -287Q308 -285 313 -287Q343 -295 373 -304Q400 -311 429 -317Q437 -321 447 -320Q458 -322 468 -324Q493 -333 517 -339Q547 -349 576 -359Q591 -365 608 -370Q618 -372 628 -374Q637 -378 647 -380Q671 -386 673 -386Q684 -390 696 -393Q710 -395 723 -398Q733 -400 739 -401ZM767 -359L759 -358Q754 -355 744 -355Q732 -355 729 -352Q711 -349 694 -343Q686 -339 677 -339Q674 -338 663 -335Q661 -334 659 -333L651 -331Q649 -330 647 -329Q638 -328 631 -325Q627 -326 617 -321Q610 -320 573 -309Q547 -301 522 -291Q518 -289 513 -287Q507 -286 507 -280Q510 -274 517 -273Q524 -272 530 -270Q541 -269 551 -265Q571 -258 575 -252Q578 -249 576 -239Q573 -229 578 -225Q593 -223 607 -229Q627 -231 646 -234Q660 -233 674 -232Q686 -237 697 -237Q704 -234 709 -239Q714 -244 720 -247Q728 -246 732 -257Q774 -307 785 -335Q791 -345 784 -354Q777 -364 767 -359Z"/>
</svg>