<svg xmlns="http://www.w3.org/2000/svg" viewBox="0 -800 1024 1024">
	<path fill="#000000" d="M491 -745L505 -742Q520 -735 535 -729Q540 -726 538 -721Q536 -717 533 -713Q532 -707 527 -706Q522 -704 518 -702Q514 -699 503 -698Q491 -697 486 -693Q464 -689 458 -686Q432 -680 406 -674Q383 -677 363 -677Q352 -674 339 -678Q333 -678 333 -681Q333 -684 337 -686Q358 -701 380 -708Q384 -710 388 -712L405 -719Q409 -721 413 -723Q416 -724 420 -730Q426 -740 434 -737Q441 -733 451 -738Q460 -742 464 -741Q468 -745 478 -744Q487 -743 491 -745ZM333 -653Q338 -649 340 -641Q346 -622 329 -604Q322 -591 322 -576Q317 -543 314 -536Q311 -532 314 -529Q318 -525 323 -525Q327 -528 330 -526Q334 -523 329 -519Q320 -514 323 -507Q326 -500 326 -492Q319 -482 301 -494Q281 -500 271 -515Q266 -522 261 -530Q256 -537 258 -546Q266 -575 279 -598Q281 -606 290 -617Q299 -628 301 -633Q303 -643 313 -646Q323 -650 333 -653ZM603 -644H608Q620 -642 631 -641Q654 -631 658 -624Q653 -616 652 -606Q655 -600 644 -595Q636 -591 634 -588Q624 -577 613 -574Q603 -564 592 -560Q589 -557 584 -555Q576 -552 574 -549Q559 -547 557 -540Q556 -533 543 -533Q525 -522 519 -522Q503 -514 486 -506Q478 -501 477 -503Q476 -505 489 -516Q501 -522 513 -529Q531 -544 544 -560Q544 -567 549 -570Q555 -573 559 -578Q564 -585 573 -592Q582 -599 582 -608Q579 -611 572 -611Q560 -608 550 -603Q526 -598 507 -586Q496 -587 486 -580Q484 -578 471 -567Q462 -568 459 -553Q456 -546 457 -533Q458 -520 457 -515Q453 -504 445 -495Q441 -495 434 -490Q427 -484 422 -489Q422 -501 414 -509Q409 -515 404 -518Q399 -521 398 -527Q403 -530 409 -533Q416 -536 417 -544Q413 -555 419 -567Q416 -571 417 -575Q419 -580 424 -580Q436 -576 443 -586Q448 -592 452 -587Q456 -583 459 -578Q465 -581 468 -587Q471 -594 475 -599Q484 -603 486 -604L510 -615Q556 -635 581 -640Q584 -642 603 -644ZM565 -476Q581 -476 583 -475Q598 -475 613 -470Q624 -462 639 -434Q641 -413 648 -393Q643 -381 644 -367Q645 -354 645 -341Q636 -324 634 -294Q632 -289 627 -282Q619 -271 618 -264Q614 -249 593 -222Q583 -208 566 -195Q564 -190 556 -187Q549 -184 547 -181Q545 -176 540 -173Q535 -170 532 -164Q530 -160 522 -160Q514 -160 513 -156Q505 -144 499 -139Q492 -127 486 -98Q483 -90 481 -61Q480 -57 482 -53Q480 -43 488 -21Q503 9 525 17Q543 22 561 27Q575 26 591 30Q603 30 614 29Q629 31 648 26Q657 28 678 23Q692 25 702 24Q725 16 747 16Q762 14 777 12Q789 9 801 5Q805 0 819 0Q826 -14 831 -30Q835 -50 836 -70Q837 -75 835 -79Q833 -84 838 -87Q844 -76 847 -63Q846 -59 851 -37Q849 -24 855 -14Q853 -8 858 -2Q863 4 870 1Q875 2 877 10Q880 19 884 21Q889 23 886 29Q884 34 885 37Q880 38 879 42Q878 47 875 51Q873 55 867 52Q862 50 860 52Q846 58 840 56Q832 58 824 59Q800 59 775 59Q737 64 692 62Q673 64 651 65Q629 65 607 65Q596 65 585 65Q569 63 553 61Q540 58 527 55Q505 49 485 37Q463 26 451 -5Q440 -24 441 -44Q436 -72 446 -89Q449 -107 454 -122Q461 -137 464 -154Q453 -156 449 -144Q431 -131 421 -116Q409 -103 399 -89Q396 -86 386 -83Q375 -80 373 -73Q370 -65 358 -68Q344 -56 340 -63Q335 -66 336 -70Q337 -74 338 -78Q336 -88 341 -93Q357 -109 370 -127Q387 -149 403 -169Q429 -205 461 -242Q466 -245 468 -257Q469 -268 475 -271Q484 -272 488 -265Q493 -258 499 -251Q499 -245 504 -242Q509 -238 513 -233Q518 -222 508 -214Q495 -204 499 -191Q506 -184 515 -193Q526 -203 534 -226Q538 -242 550 -253Q555 -273 558 -279Q556 -287 563 -301Q569 -313 568 -321Q577 -329 577 -339Q578 -343 575 -350Q573 -356 576 -359Q579 -367 579 -374Q577 -380 580 -389Q581 -408 578 -424Q579 -431 573 -436Q567 -441 561 -438Q531 -428 501 -419Q490 -410 475 -404Q464 -408 452 -412Q446 -418 438 -418Q430 -418 423 -420Q421 -424 415 -418Q410 -404 401 -391Q392 -381 391 -369Q380 -355 380 -334Q376 -330 374 -318Q374 -307 368 -285Q362 -268 356 -252Q352 -247 351 -236Q350 -225 348 -221Q349 -215 341 -190Q338 -184 331 -195Q331 -200 326 -204Q321 -207 318 -204Q310 -205 310 -214Q309 -227 309 -228Q300 -237 299 -241Q305 -254 308 -268Q308 -293 322 -325Q328 -345 328 -348Q333 -371 345 -384Q348 -403 359 -415Q364 -428 375 -437Q386 -445 397 -454Q402 -460 420 -465Q423 -458 423 -448Q425 -445 422 -438Q418 -430 423 -426Q436 -427 449 -429Q464 -437 478 -445Q513 -469 543 -472Q546 -473 565 -476Z"/>
</svg>