<svg xmlns="http://www.w3.org/2000/svg" viewBox="0 -800 1024 1024">
	<path fill="#000000" d="M556 -769Q567 -767 574 -758Q587 -749 600 -740Q606 -735 626 -740Q641 -737 658 -731Q663 -734 668 -731Q672 -728 677 -725Q685 -725 689 -716Q692 -709 688 -702Q687 -701 672 -689Q670 -685 665 -684Q659 -682 658 -679Q651 -677 645 -668Q636 -655 635 -654Q629 -653 627 -647Q624 -641 621 -637Q616 -634 610 -631Q605 -628 605 -621Q598 -615 591 -606Q583 -592 569 -576Q565 -578 563 -575Q562 -572 561 -569Q561 -566 560 -566Q556 -567 554 -563Q548 -553 542 -543Q541 -539 535 -540Q530 -541 527 -538Q531 -531 525 -520Q519 -519 521 -514Q523 -512 526 -515Q577 -529 628 -543Q654 -549 679 -556Q707 -566 745 -573Q764 -576 783 -580Q836 -580 853 -573Q860 -573 863 -569Q866 -564 870 -561Q869 -555 873 -554Q876 -552 878 -549Q879 -541 885 -540Q883 -535 888 -529Q893 -522 893 -518Q893 -504 888 -491Q879 -483 878 -469Q870 -447 859 -441Q854 -441 850 -436Q844 -429 839 -431Q831 -425 825 -416Q818 -408 808 -405Q806 -401 797 -398Q789 -395 788 -391Q783 -384 780 -377Q776 -369 768 -366Q763 -352 750 -344Q744 -345 740 -355Q736 -364 732 -366Q723 -366 724 -376Q725 -383 729 -391Q736 -393 747 -405Q756 -415 762 -418Q764 -414 768 -417Q771 -419 769 -422Q770 -428 778 -434Q786 -440 787 -444Q791 -442 793 -444Q794 -447 792 -451Q807 -474 822 -498Q834 -518 812 -530Q788 -534 740 -523Q708 -512 673 -502Q672 -503 659 -500Q657 -498 650 -499Q644 -500 644 -498Q632 -494 620 -490Q616 -489 616 -487Q618 -483 624 -481Q640 -479 640 -461Q642 -443 643 -424Q641 -419 641 -409Q641 -400 638 -395Q632 -371 625 -357Q632 -356 656 -363Q670 -363 683 -363Q698 -366 701 -357Q704 -359 705 -358Q707 -357 706 -354Q709 -352 710 -350Q712 -345 706 -344Q703 -338 702 -330Q702 -322 694 -317Q690 -312 680 -307Q668 -302 665 -297Q661 -297 653 -291Q647 -287 643 -286Q629 -289 615 -271Q605 -272 597 -259Q594 -259 592 -254Q590 -249 586 -250Q574 -237 560 -230Q556 -232 555 -228Q553 -223 552 -220Q537 -204 525 -197Q525 -194 522 -192Q517 -189 520 -186Q526 -191 534 -186Q556 -184 580 -179Q587 -180 597 -176Q609 -171 615 -172Q616 -167 622 -165Q627 -163 628 -161Q632 -162 635 -156Q637 -152 640 -152Q648 -146 655 -141Q653 -135 661 -132Q668 -129 668 -125Q665 -116 676 -113Q684 -111 693 -113Q699 -112 699 -115Q699 -117 698 -117Q697 -117 696 -116Q691 -121 696 -131Q700 -139 707 -143Q718 -157 730 -171Q732 -171 735 -170Q738 -169 740 -173Q737 -177 742 -185Q745 -191 745 -194Q752 -205 766 -222Q785 -245 791 -256Q796 -263 790 -268Q784 -274 781 -281Q783 -283 789 -280Q795 -277 798 -279Q803 -276 808 -279Q818 -273 824 -272Q862 -263 866 -242Q864 -240 864 -233Q864 -226 859 -223Q858 -214 850 -209Q843 -205 838 -199Q831 -200 826 -195Q822 -190 817 -186Q801 -172 781 -163Q780 -161 775 -160Q770 -159 768 -156Q767 -152 760 -150Q754 -149 753 -146Q750 -144 749 -139Q748 -135 742 -136Q737 -138 735 -133Q732 -126 731 -125Q722 -121 721 -113Q735 -108 751 -110Q798 -104 845 -99Q848 -100 861 -95Q877 -91 870 -68Q874 -58 864 -55Q863 -48 856 -47Q853 -49 850 -48Q848 -47 847 -43Q838 -40 828 -44Q816 -44 798 -52Q785 -58 778 -59Q774 -61 762 -63Q752 -64 748 -68Q723 -72 700 -83Q687 -83 692 -64Q694 -60 689 -56Q685 -52 686 -49Q688 -38 678 -26Q677 -22 672 -17Q666 -11 665 -8Q660 -5 660 2Q660 9 656 11Q650 10 646 17Q643 22 640 23Q623 37 621 38Q607 44 601 50Q596 51 583 62Q580 63 577 67Q573 71 570 66Q569 57 562 48Q563 44 559 39Q555 32 555 28Q565 28 571 21Q576 15 583 11Q612 -22 629 -36Q640 -57 638 -72Q637 -84 626 -96Q620 -102 605 -113Q598 -110 599 -103Q599 -97 597 -91Q597 -82 584 -67Q575 -57 573 -50Q559 -40 550 -26Q540 -11 529 3Q525 6 523 4Q521 2 518 1Q512 4 509 -4Q506 -14 503 -15Q500 -21 507 -28Q517 -37 518 -40Q525 -46 529 -55Q540 -60 540 -68Q549 -90 562 -108Q565 -116 569 -125Q572 -133 562 -139Q557 -141 550 -144Q543 -146 541 -140Q537 -137 530 -125Q525 -116 518 -111Q502 -101 485 -95Q479 -97 473 -88Q468 -82 465 -82Q463 -95 458 -105Q455 -114 469 -121Q488 -139 503 -161Q499 -165 490 -165Q479 -165 478 -157Q475 -155 474 -157Q474 -163 471 -167Q470 -174 464 -182Q456 -193 457 -200Q459 -201 463 -205Q468 -211 473 -211Q483 -215 488 -226Q497 -229 503 -232Q505 -238 510 -241Q515 -244 520 -247Q532 -258 547 -266Q565 -283 586 -296Q589 -299 594 -302Q598 -306 596 -309Q580 -308 565 -305Q533 -300 526 -300Q512 -300 502 -305Q490 -301 479 -310Q472 -315 469 -319Q470 -319 473 -318Q490 -321 507 -325Q517 -324 524 -327Q542 -331 560 -336Q565 -334 574 -339Q582 -344 586 -343Q590 -342 597 -346Q604 -350 601 -356Q595 -357 588 -368Q585 -385 592 -400Q599 -414 602 -430Q604 -439 606 -448Q606 -457 608 -467Q609 -478 603 -486Q576 -480 574 -480Q563 -477 550 -480Q544 -485 534 -488Q531 -486 524 -490Q515 -495 513 -488Q493 -465 492 -444Q486 -438 482 -421Q471 -415 481 -400Q482 -391 494 -382Q508 -371 512 -366Q513 -360 508 -357Q504 -355 497 -354Q496 -349 494 -349Q491 -350 486 -353Q482 -357 477 -355Q459 -358 445 -372Q435 -387 425 -403Q411 -427 420 -458Q422 -464 428 -473Q436 -485 437 -491Q453 -512 455 -516Q457 -525 469 -536Q479 -546 482 -550Q484 -553 491 -555Q496 -556 499 -559Q505 -556 516 -564Q522 -568 522 -573Q523 -577 525 -582Q532 -585 541 -599Q540 -611 549 -625Q560 -636 559 -641Q559 -646 565 -653Q572 -660 570 -666Q571 -671 576 -679Q583 -691 583 -697Q576 -704 564 -709Q563 -711 561 -713L555 -722Q554 -724 552 -726Q544 -723 547 -728Q550 -725 552 -727Q554 -733 550 -737Q536 -749 545 -765Q550 -763 556 -769ZM262 -590H272Q284 -589 295 -583Q304 -580 306 -571Q315 -563 302 -544Q297 -542 289 -534Q281 -526 277 -524Q270 -510 258 -504Q258 -506 257 -506Q256 -503 253 -501Q251 -507 246 -504Q242 -501 245 -498Q258 -495 273 -494Q273 -487 282 -485Q285 -484 286 -483Q288 -482 286 -479Q289 -476 287 -467Q278 -463 274 -457Q253 -460 232 -463Q214 -472 198 -485Q196 -487 191 -490Q186 -492 188 -495Q204 -496 220 -497Q227 -506 244 -540Q244 -546 241 -547Q233 -546 227 -543Q222 -540 209 -541Q198 -542 193 -538Q186 -544 174 -547Q165 -554 157 -564Q159 -566 168 -566Q178 -566 182 -570Q191 -571 207 -577Q225 -584 235 -585Q247 -588 262 -590ZM333 -453Q352 -451 370 -449Q384 -445 398 -436Q398 -433 405 -430Q410 -428 411 -425Q413 -415 415 -405Q415 -399 412 -399Q409 -398 405 -395Q401 -388 395 -388Q388 -387 381 -384Q374 -391 367 -381Q360 -372 342 -364Q337 -366 334 -361Q331 -357 327 -354Q323 -353 319 -346Q315 -338 310 -339Q299 -341 290 -330Q282 -331 279 -325Q276 -319 277 -311Q275 -299 273 -288Q279 -278 275 -268Q272 -254 277 -243Q276 -242 276 -229Q274 -223 274 -210Q274 -193 270 -186Q268 -183 269 -174Q270 -164 266 -162Q270 -154 262 -144Q259 -133 252 -123Q229 -98 221 -91Q218 -92 217 -91Q216 -89 215 -86Q215 -82 210 -83Q204 -91 200 -99Q190 -115 179 -131Q186 -138 193 -145Q208 -174 211 -197Q216 -220 218 -247Q219 -264 219 -282Q216 -291 217 -310Q218 -329 214 -338Q213 -353 205 -367Q201 -372 195 -378Q189 -383 182 -380Q165 -373 147 -367Q139 -363 129 -365Q124 -368 116 -365Q109 -363 106 -363Q95 -364 84 -366Q79 -370 73 -373Q68 -377 65 -383Q80 -384 95 -389Q123 -397 150 -406Q168 -413 199 -421Q243 -435 290 -448Q312 -452 333 -453ZM321 -414L288 -407Q271 -401 258 -399Q239 -394 218 -388Q215 -388 214 -387Q213 -386 213 -385Q214 -382 219 -383Q223 -380 232 -377Q242 -374 246 -369Q255 -368 258 -360Q261 -353 265 -346Q277 -346 283 -359Q316 -386 328 -407Q331 -410 329 -413Q325 -417 321 -414Z"/>
</svg>