<svg xmlns="http://www.w3.org/2000/svg" viewBox="0 -800 1024 1024">
	<path fill="#000000" d="M531 -723Q534 -723 538 -721Q566 -727 592 -719Q598 -722 605 -713Q613 -712 614 -705Q616 -697 615 -689Q615 -675 611 -657Q608 -653 611 -651Q614 -649 617 -652Q623 -650 633 -652Q644 -654 649 -653Q653 -654 657 -648Q661 -642 665 -642Q672 -642 677 -634Q675 -632 675 -625Q675 -618 672 -617Q669 -613 656 -613Q655 -603 653 -594Q637 -590 621 -587Q607 -585 593 -583Q568 -583 560 -566Q558 -558 545 -547Q541 -536 536 -525Q526 -515 521 -507Q515 -509 511 -505Q507 -500 503 -497Q498 -493 492 -484Q484 -471 479 -469Q475 -462 463 -454Q457 -453 454 -443Q452 -436 449 -434Q445 -427 439 -431Q436 -428 430 -425Q426 -420 413 -418Q413 -427 424 -429Q432 -442 431 -445Q436 -445 439 -456Q439 -460 443 -464Q448 -469 447 -473Q452 -480 456 -488Q461 -495 459 -501Q463 -505 466 -515Q468 -523 471 -526Q476 -536 480 -547Q482 -550 483 -556Q484 -562 480 -562Q458 -555 413 -551Q388 -548 383 -546Q376 -537 376 -529Q374 -522 372 -502Q368 -490 368 -479Q368 -474 362 -473Q358 -472 357 -470Q347 -468 337 -466Q324 -479 320 -482Q321 -491 312 -502Q311 -514 303 -523Q301 -530 294 -530Q288 -529 281 -529Q276 -531 267 -529Q260 -528 256 -529Q250 -536 242 -536Q233 -537 224 -539Q223 -544 214 -547Q208 -549 205 -552Q207 -556 205 -558Q203 -561 205 -562Q212 -561 222 -563Q237 -564 254 -569Q277 -576 299 -583Q308 -584 308 -593Q308 -601 309 -608Q307 -621 305 -634Q304 -646 297 -657Q298 -660 291 -662Q286 -665 290 -666Q296 -674 315 -672Q319 -670 328 -668Q339 -666 343 -661Q352 -653 361 -642Q365 -635 368 -621Q370 -616 371 -610Q372 -602 380 -603Q385 -605 401 -624Q427 -653 432 -657Q451 -679 476 -692Q482 -696 498 -703Q521 -713 531 -723ZM524 -681Q501 -679 484 -674Q465 -671 448 -656Q434 -643 423 -627Q424 -625 420 -620Q415 -613 419 -609Q449 -615 494 -626Q509 -628 521 -636Q527 -655 533 -675Q536 -679 532 -681Q527 -683 524 -681ZM431 -394Q427 -391 428 -390Q432 -387 441 -388Q444 -389 447 -390L462 -393Q487 -406 510 -415Q513 -419 517 -418Q522 -418 526 -419Q529 -419 537 -423Q546 -428 552 -425Q575 -433 608 -433Q623 -431 638 -430Q659 -430 679 -419Q690 -408 701 -384Q703 -375 707 -364Q712 -361 712 -355Q712 -349 714 -343Q716 -336 717 -329Q717 -319 717 -309Q714 -305 718 -297Q722 -288 720 -284Q720 -258 714 -234Q714 -232 714 -230L713 -221Q713 -219 713 -217Q710 -210 710 -188Q706 -176 708 -168Q706 -147 704 -126Q704 -118 702 -106Q697 -100 696 -83Q695 -72 693 -66Q690 -63 689 -54Q688 -46 685 -42Q679 -35 680 -23Q673 -14 671 -2Q667 2 665 12Q666 16 660 22Q655 27 654 30Q654 40 644 42Q637 46 631 41Q625 36 620 33Q617 29 610 25Q604 22 602 19Q599 12 590 14Q580 12 573 17Q569 13 565 12Q560 11 556 11Q534 11 511 10Q495 10 478 10Q469 11 453 9Q438 9 430 5Q419 -4 409 2Q403 3 403 13Q403 22 399 24Q392 27 384 30Q369 21 359 7Q357 0 346 -9Q335 -18 333 -25Q328 -35 328 -47Q325 -57 333 -65Q330 -71 334 -83Q336 -90 336 -95Q342 -127 345 -160Q350 -178 350 -193Q353 -224 355 -256Q358 -266 360 -277Q360 -299 368 -312Q371 -337 382 -352Q386 -370 397 -384Q398 -396 412 -400Q420 -408 425 -408Q433 -408 431 -394ZM616 -390Q601 -390 593 -385Q584 -387 574 -381Q551 -373 527 -365Q515 -362 502 -359Q483 -361 464 -363Q451 -366 438 -369Q434 -369 432 -373Q430 -377 429 -377Q426 -381 422 -378Q418 -374 419 -370Q426 -348 423 -341Q415 -333 420 -319Q415 -311 413 -298Q412 -281 411 -265Q406 -259 407 -249Q408 -247 407 -240Q406 -233 408 -229Q410 -225 408 -216Q406 -208 408 -202Q414 -196 409 -183Q410 -176 426 -176Q429 -178 437 -175Q444 -172 448 -174Q458 -172 479 -172Q496 -170 512 -168Q516 -169 519 -164Q522 -159 520 -155Q516 -141 505 -134Q469 -127 437 -138Q425 -146 412 -146Q409 -151 404 -144Q405 -132 400 -122V-75Q399 -73 399 -65Q399 -56 395 -53Q391 -40 400 -25Q412 -25 424 -25Q439 -25 453 -27Q486 -32 513 -31Q531 -36 551 -36Q559 -36 566 -34Q574 -31 581 -35Q582 -35 594 -25Q602 -25 609 -20Q616 -27 616 -37Q619 -51 625 -63Q628 -76 631 -90Q634 -99 636 -109Q639 -118 642 -127Q638 -139 643 -168Q651 -192 650 -206Q645 -217 652 -227Q648 -239 651 -245Q654 -251 656 -258L655 -280Q654 -306 653 -332Q646 -365 643 -372Q642 -382 634 -388Q625 -394 616 -390ZM469 -269Q484 -270 502 -267Q509 -264 509 -257Q508 -250 511 -244Q510 -232 489 -232Q480 -233 470 -234Q460 -234 453 -239Q446 -244 439 -248Q435 -253 429 -256Q423 -259 424 -265Q432 -271 441 -267Q455 -268 469 -269Z"/>
</svg>