<svg xmlns="http://www.w3.org/2000/svg" viewBox="0 -800 1024 1024">
	<path fill="#000000" d="M183 -678Q187 -678 189 -676Q199 -670 207 -664Q230 -654 239 -642Q237 -635 242 -633Q246 -631 251 -634Q256 -638 281 -643Q302 -644 319 -636Q334 -637 346 -624Q357 -613 360 -599Q365 -587 363 -574Q361 -562 360 -550L349 -508Q350 -502 347 -489Q344 -479 346 -472Q340 -458 339 -428Q338 -402 335 -392Q336 -383 334 -375Q333 -367 339 -361Q349 -358 345 -350Q342 -342 342 -333Q345 -326 338 -315Q331 -304 332 -298Q329 -281 329 -264Q332 -260 330 -251Q328 -242 331 -238Q335 -232 332 -220Q330 -212 331 -209Q327 -192 328 -176Q327 -170 329 -159Q332 -144 329 -136Q331 -119 329 -100Q335 -85 331 -73Q326 -68 331 -51Q326 -31 320 -11Q329 6 315 12Q312 20 306 17Q305 17 295 10Q283 5 271 -1Q267 1 262 -4Q257 -9 254 -8Q251 -16 234 -24Q230 -24 229 -26Q230 -32 240 -32Q245 -30 249 -34Q252 -37 254 -34Q259 -34 259 -36Q257 -40 261 -44Q267 -86 270 -127Q268 -153 275 -238Q278 -244 276 -249Q274 -251 271 -247Q258 -240 247 -230Q241 -218 230 -211Q227 -201 211 -190Q200 -182 196 -176Q189 -173 176 -161Q164 -149 155 -146Q148 -148 140 -136Q130 -131 115 -136Q112 -146 129 -152Q138 -167 152 -177Q154 -182 157 -186Q163 -194 163 -199Q167 -201 181 -218Q201 -242 223 -261Q229 -264 236 -275Q241 -282 245 -285Q255 -299 265 -312Q259 -315 249 -311Q243 -309 239 -309Q219 -303 200 -298Q181 -294 164 -285Q150 -280 136 -276Q116 -276 101 -272Q91 -272 82 -271Q68 -276 40 -278Q36 -280 37 -282Q39 -284 45 -283Q53 -284 53 -293L99 -305Q108 -306 107 -316Q106 -325 99 -330Q105 -354 105 -377Q106 -382 114 -444Q118 -463 122 -483Q126 -501 123 -520Q122 -523 116 -531Q108 -541 111 -547Q117 -548 125 -560Q129 -574 138 -586Q147 -597 154 -610Q171 -634 181 -663Q184 -671 183 -678ZM560 -618Q604 -603 620 -581Q620 -568 623 -556Q625 -552 625 -544Q625 -533 629 -529L662 -542Q680 -545 697 -544Q710 -543 723 -543Q732 -539 741 -536Q758 -534 763 -521Q769 -509 758 -501Q750 -495 737 -494Q736 -490 731 -489Q725 -487 724 -484Q724 -479 719 -479Q713 -479 712 -476Q712 -473 708 -471Q702 -467 702 -464Q694 -465 689 -457Q684 -450 678 -446Q676 -441 666 -440Q659 -439 656 -437Q656 -431 651 -427Q646 -423 641 -418Q632 -418 629 -409Q619 -403 618 -399Q620 -376 597 -376Q590 -383 583 -374Q578 -369 574 -377Q572 -377 571 -378Q574 -381 576 -389Q570 -396 565 -404Q559 -411 560 -422Q555 -430 558 -443Q561 -455 560 -459Q554 -461 550 -457Q545 -453 541 -450Q536 -448 529 -443Q523 -438 517 -442Q514 -440 513 -431Q512 -423 508 -420Q500 -414 495 -421Q490 -429 483 -435Q478 -447 470 -459Q462 -472 470 -483Q476 -490 488 -485Q494 -478 500 -472Q516 -469 531 -477Q545 -486 560 -494Q567 -496 568 -504Q568 -512 570 -519Q566 -539 569 -562Q573 -578 566 -599Q568 -603 562 -609Q556 -615 560 -618ZM294 -603H293Q282 -596 270 -589Q259 -584 247 -579Q234 -571 223 -569Q205 -572 189 -571Q186 -574 182 -573Q177 -572 174 -574L158 -566Q155 -562 144 -559Q131 -556 128 -548Q123 -544 127 -539Q130 -535 136 -533Q149 -528 153 -514Q157 -500 164 -488Q161 -484 165 -480Q162 -477 163 -469Q164 -463 163 -462Q165 -439 164 -434Q159 -427 167 -415Q181 -422 197 -421Q211 -415 224 -414Q236 -415 238 -406Q240 -398 235 -389Q230 -388 223 -386Q217 -383 210 -386Q206 -384 200 -388Q194 -391 190 -391Q189 -392 185 -394L176 -398Q174 -399 171 -401Q165 -406 162 -400Q159 -395 159 -389Q160 -374 154 -350Q156 -348 155 -339Q154 -328 161 -328Q194 -340 205 -341Q229 -352 252 -355Q262 -359 273 -360Q284 -361 289 -371Q291 -402 292 -433Q292 -461 300 -488Q299 -504 302 -536Q305 -566 303 -583Q305 -590 302 -597Q299 -604 294 -603ZM659 -511Q652 -509 644 -507Q633 -509 630 -501Q622 -491 623 -477Q624 -464 622 -450Q623 -441 627 -435Q633 -442 639 -448Q645 -453 648 -462Q670 -493 673 -504Q676 -510 670 -512Q664 -514 659 -511ZM167 -480Q168 -481 169 -482Q167 -489 174 -491Q184 -494 185 -495Q194 -498 199 -501Q207 -494 217 -494Q228 -494 237 -493Q248 -493 251 -484Q254 -475 246 -469Q241 -461 233 -461Q220 -462 190 -470Q168 -480 167 -480ZM850 -391Q851 -391 881 -388Q895 -389 905 -382Q914 -375 926 -368Q934 -354 942 -352Q949 -342 952 -332Q949 -318 956 -309Q952 -300 956 -293Q952 -280 952 -266Q955 -260 950 -240Q954 -230 950 -221Q945 -212 943 -202Q941 -198 945 -192Q949 -186 948 -181Q941 -163 939 -142Q939 -134 932 -120Q924 -102 926 -92Q923 -88 920 -77Q917 -65 913 -60Q910 -53 907 -46Q896 -28 890 -11Q890 -2 883 -1Q875 1 871 4Q866 10 861 4Q856 -1 853 -5Q843 -11 839 -19Q835 -28 830 -36Q827 -35 814 -39Q804 -39 799 -46Q802 -50 810 -52Q818 -54 821 -57Q831 -58 844 -69Q855 -87 860 -108Q865 -129 872 -150Q876 -161 883 -216Q887 -227 888 -253Q889 -281 894 -293Q892 -310 890 -328Q890 -336 882 -342Q877 -346 867 -351Q848 -349 828 -347Q798 -341 768 -335Q755 -330 701 -321Q643 -301 585 -281Q576 -280 567 -264Q551 -259 535 -261Q512 -256 498 -272Q492 -276 490 -282Q489 -287 495 -287Q509 -295 522 -306Q528 -307 547 -316Q573 -325 599 -334Q611 -340 662 -357Q765 -382 804 -388Q827 -389 850 -391ZM567 -376L569 -375Q565 -361 542 -345Q539 -346 541 -347Q547 -352 547 -353Q557 -364 567 -376ZM450 -309Q465 -310 477 -299Q489 -288 488 -275Q484 -272 481 -262Q479 -256 477 -253Q476 -250 474 -247L469 -236Q468 -233 466 -230Q460 -223 454 -201Q449 -182 445 -163Q444 -150 442 -137Q440 -124 446 -111Q444 -94 436 -81Q436 -77 432 -76Q428 -74 427 -72Q415 -74 405 -82Q396 -90 386 -98Q376 -103 379 -127Q385 -144 375 -152Q372 -182 391 -215Q393 -225 412 -257Q414 -265 423 -274Q431 -282 432 -284Q442 -296 450 -309ZM668 -276Q698 -276 701 -275Q711 -273 722 -271Q733 -270 737 -259Q750 -251 752 -233Q753 -224 748 -217Q744 -211 741 -203Q733 -200 730 -193Q728 -187 723 -180Q719 -177 717 -173Q712 -164 707 -162Q707 -158 705 -157Q701 -158 697 -156Q696 -149 690 -147Q684 -145 677 -148Q657 -153 644 -145Q634 -143 589 -141Q585 -138 582 -135Q579 -131 573 -135Q569 -138 563 -137Q557 -136 554 -141Q539 -147 531 -159Q513 -176 526 -198Q530 -215 541 -229Q540 -235 549 -242Q556 -248 558 -252Q562 -256 572 -250Q579 -246 584 -246Q601 -253 618 -259Q627 -259 645 -268Q658 -274 668 -276ZM677 -237Q658 -234 642 -226Q634 -228 628 -222Q622 -217 617 -213Q604 -213 590 -216Q579 -205 583 -187Q585 -184 586 -174Q586 -166 590 -162Q617 -169 641 -185Q652 -184 661 -180Q681 -174 691 -197Q695 -202 697 -223Q702 -232 693 -236Q684 -240 677 -237Z"/>
</svg>