<svg xmlns="http://www.w3.org/2000/svg" viewBox="0 -800 1024 1024">
	<path fill="#000000" d="M891 -65Q895 -70 905 -72Q912 -74 915 -78Q917 -100 915 -122Q919 -142 915 -181Q911 -195 914 -196Q921 -184 920 -172Q928 -159 927 -144Q930 -133 932 -122Q937 -120 935 -111Q933 -103 936 -101Q943 -93 948 -107Q948 -109 949 -110Q952 -109 950 -103Q948 -88 957 -74Q957 -66 971 -61Q975 -58 983 -59Q990 -60 992 -58Q997 -54 992 -47Q989 -42 982 -38Q976 -37 971 -26Q965 -15 957 -17Q955 -22 948 -18Q944 -15 942 -16Q929 -9 918 -13Q887 -7 855 -7H857Q830 -4 804 -4Q771 -3 740 -10L720 -15Q708 -20 695 -17Q676 -21 659 -29Q627 -38 612 -61Q602 -76 592 -114Q592 -139 594 -150Q594 -162 600 -171Q603 -191 611 -208Q613 -221 622 -239Q637 -267 637 -268Q650 -293 660 -322H656Q651 -314 630 -292Q611 -272 607 -266Q600 -261 594 -250Q589 -240 587 -238Q579 -227 568 -217Q550 -195 531 -174Q516 -163 506 -147Q503 -145 495 -136Q487 -127 480 -124Q473 -124 469 -120Q465 -116 461 -112Q456 -109 454 -113Q452 -116 454 -121Q455 -124 452 -131Q449 -137 451 -140Q467 -155 478 -174Q481 -177 486 -187Q492 -198 498 -203Q500 -205 497 -211Q494 -217 498 -220Q500 -225 510 -228Q520 -231 522 -237Q520 -248 533 -250Q573 -295 586 -298Q591 -303 595 -309Q588 -313 587 -310Q585 -307 580 -304Q572 -305 558 -299Q547 -299 538 -294Q522 -288 505 -282Q486 -274 464 -273Q439 -273 435 -275Q429 -275 419 -283Q409 -290 402 -290Q396 -290 392 -292Q389 -295 395 -299Q404 -304 422 -306Q439 -308 443 -309Q497 -321 548 -342Q557 -346 568 -351Q579 -356 581 -368Q582 -381 583 -394Q583 -408 587 -420Q584 -427 578 -427Q569 -424 559 -422Q549 -426 541 -420Q535 -422 527 -416Q521 -412 517 -412Q511 -418 505 -425Q502 -433 495 -436Q489 -440 484 -445Q480 -449 479 -459Q478 -466 476 -469Q470 -475 474 -480Q479 -486 479 -491Q478 -499 484 -513Q491 -527 488 -535Q479 -548 488 -547Q507 -536 526 -526Q530 -520 536 -515Q542 -510 542 -501Q540 -497 542 -486Q544 -477 542 -472Q539 -466 547 -464Q557 -469 569 -471Q576 -473 584 -475Q592 -476 597 -482Q597 -489 595 -499Q593 -515 595 -529Q597 -572 598 -615Q597 -643 595 -669Q595 -677 590 -682Q584 -688 580 -693Q575 -696 575 -701Q575 -703 578 -703Q590 -704 600 -711L603 -710Q607 -711 613 -707Q621 -702 626 -704Q633 -706 638 -697Q642 -690 646 -689Q651 -687 651 -680Q651 -674 652 -668Q650 -660 654 -648Q657 -636 657 -630Q653 -608 652 -596Q653 -590 650 -575Q647 -564 648 -557Q646 -535 647 -512Q642 -508 646 -501Q650 -495 656 -497Q664 -500 671 -504Q681 -507 689 -497Q702 -501 709 -497Q715 -498 716 -490Q717 -482 720 -480Q727 -479 725 -472Q723 -466 717 -463Q702 -449 684 -448Q671 -444 657 -441Q649 -440 644 -430Q639 -411 633 -392Q631 -387 628 -381Q625 -376 630 -371Q653 -376 675 -381Q682 -385 694 -387Q708 -389 712 -391Q716 -398 726 -395Q736 -390 741 -395Q758 -396 774 -397Q779 -399 782 -392Q785 -384 789 -382Q788 -372 775 -357Q772 -351 757 -349Q750 -345 742 -343Q727 -339 722 -335Q705 -337 698 -333Q696 -333 695 -332Q696 -330 702 -329Q705 -327 710 -325Q715 -323 717 -318Q717 -302 711 -292Q706 -279 701 -267Q690 -260 689 -251Q684 -241 681 -229Q672 -210 663 -191Q656 -179 654 -165Q651 -148 648 -132Q643 -113 646 -95Q648 -81 661 -72Q677 -66 693 -61Q728 -54 743 -54Q771 -53 799 -53Q818 -57 839 -56L864 -59ZM318 -623Q340 -621 354 -612Q363 -601 366 -580Q366 -568 363 -560Q355 -536 341 -520Q341 -517 335 -511Q330 -506 329 -501Q340 -497 335 -488Q330 -482 334 -471Q324 -458 323 -457Q316 -449 308 -449Q303 -447 296 -446Q289 -446 287 -440Q284 -434 287 -422Q290 -411 289 -406Q293 -401 293 -392Q294 -380 298 -377Q363 -393 375 -393Q394 -387 394 -374Q397 -369 394 -364Q391 -360 390 -353Q389 -351 370 -338Q360 -335 328 -331Q315 -330 303 -333Q298 -334 297 -331Q296 -328 297 -326Q297 -310 291 -295Q297 -281 294 -263Q290 -258 293 -249Q295 -243 294 -240Q295 -232 293 -223Q292 -214 297 -208Q340 -219 383 -231Q388 -232 395 -233Q402 -235 407 -231Q404 -225 401 -219Q394 -207 386 -195Q381 -191 346 -175Q315 -165 283 -155Q253 -138 222 -125Q198 -110 182 -113Q160 -111 150 -131Q137 -138 136 -150Q134 -162 132 -174Q119 -191 132 -216Q138 -244 150 -271Q153 -282 171 -308Q174 -312 175 -318Q176 -325 182 -324Q191 -318 198 -310Q208 -298 212 -285Q214 -275 202 -252Q197 -244 195 -231Q185 -208 177 -184Q177 -179 176 -173Q175 -167 180 -166Q205 -174 227 -185Q242 -189 253 -197Q248 -202 243 -217Q240 -239 243 -259Q245 -291 247 -324Q250 -354 253 -385Q254 -397 254 -409Q255 -415 256 -422Q257 -430 251 -432Q240 -427 221 -435Q211 -425 201 -426Q188 -430 179 -440Q174 -450 165 -462Q159 -468 161 -478Q162 -481 165 -503Q166 -506 166 -525Q163 -545 162 -566Q167 -578 171 -591Q173 -595 175 -614Q179 -611 183 -607Q187 -603 194 -603Q199 -595 206 -591Q217 -587 230 -593Q235 -600 272 -611Q305 -621 318 -623ZM303 -572L298 -568Q294 -563 276 -563Q252 -566 227 -570Q221 -562 224 -546Q223 -537 221 -528L220 -510Q221 -501 219 -493Q218 -484 223 -480Q243 -485 246 -485Q251 -488 264 -491Q280 -495 286 -500Q304 -528 310 -551Q314 -557 313 -566Q312 -575 303 -572Z"/>
</svg>