<svg xmlns="http://www.w3.org/2000/svg" viewBox="0 -800 1024 1024">
	<path fill="#000000" d="M265 -623Q286 -623 307 -620Q323 -613 331 -601Q339 -597 339 -581Q340 -574 337 -565Q337 -538 337 -512Q339 -506 337 -497Q335 -489 343 -485Q351 -488 390 -498Q398 -496 422 -503Q433 -502 443 -502Q451 -494 464 -491Q484 -480 491 -473Q496 -471 500 -455Q502 -441 500 -427Q491 -422 481 -404Q474 -400 462 -381Q451 -373 447 -362Q443 -360 435 -350Q429 -343 424 -340Q416 -331 408 -322Q393 -300 374 -280Q362 -271 350 -263Q347 -259 337 -257Q325 -254 322 -247Q312 -224 302 -201Q299 -198 296 -189Q293 -178 287 -174Q285 -162 269 -148Q267 -145 264 -141Q260 -134 267 -132Q287 -144 307 -157Q335 -176 355 -184Q362 -188 371 -190Q377 -198 370 -204Q366 -208 361 -211Q360 -213 363 -216Q374 -218 385 -220Q399 -216 413 -212Q419 -214 434 -203Q439 -195 449 -188Q451 -173 447 -158Q445 -156 448 -149Q451 -142 446 -138Q422 -135 406 -153Q398 -165 384 -153Q364 -137 343 -125Q310 -108 278 -85Q264 -83 260 -69Q254 -68 248 -60Q243 -53 241 -52Q224 -58 207 -64Q198 -74 188 -85Q179 -94 184 -123Q189 -137 195 -148Q206 -158 213 -171Q219 -183 227 -195Q235 -211 245 -226Q250 -232 244 -237Q238 -243 233 -237Q224 -237 212 -239Q203 -239 178 -249Q169 -259 156 -255Q146 -264 128 -289Q117 -301 115 -315Q114 -326 112 -338Q115 -342 112 -351Q110 -359 113 -363Q111 -380 118 -387Q128 -436 165 -468Q170 -471 175 -477Q180 -483 187 -479Q193 -468 203 -459Q208 -457 208 -449Q208 -441 213 -439Q220 -441 234 -448Q253 -458 265 -458Q275 -461 275 -470Q275 -480 276 -487Q276 -493 276 -500Q276 -539 272 -575Q273 -588 265 -595Q257 -603 250 -610Q246 -618 253 -620Q259 -622 265 -623ZM754 -494Q771 -491 789 -492Q800 -496 810 -490Q809 -486 813 -481Q817 -476 817 -472Q810 -467 814 -456Q812 -454 806 -452Q799 -450 797 -447Q772 -445 761 -440Q745 -440 725 -431Q720 -432 717 -428Q714 -425 719 -422Q738 -420 744 -403Q749 -394 750 -380Q754 -375 754 -359Q754 -349 756 -342Q759 -337 757 -326Q755 -316 756 -312Q757 -293 743 -261Q737 -252 738 -240Q730 -239 731 -231Q731 -223 731 -216Q725 -210 725 -203Q724 -195 722 -188Q721 -180 728 -178Q736 -177 742 -179Q777 -180 811 -182Q826 -182 840 -183Q845 -176 858 -180Q865 -179 886 -175Q888 -174 893 -168Q898 -162 903 -160Q908 -160 907 -155Q905 -150 904 -147Q905 -141 897 -133Q891 -127 890 -122Q884 -110 867 -117Q853 -114 838 -116Q816 -116 793 -117Q789 -119 782 -118Q776 -117 774 -118Q762 -117 750 -117Q694 -115 667 -116Q648 -115 628 -114Q606 -116 583 -114Q551 -118 533 -122Q520 -124 507 -126Q478 -137 468 -138Q466 -143 470 -144Q476 -145 482 -146Q512 -146 535 -150Q545 -151 554 -153Q571 -156 591 -156Q604 -160 620 -160Q627 -162 640 -163Q661 -164 669 -170Q676 -177 670 -182Q670 -185 666 -190Q662 -194 663 -197Q664 -210 667 -222Q672 -234 674 -247Q677 -252 682 -270Q681 -273 684 -278Q687 -282 686 -285Q688 -308 695 -316Q700 -353 692 -385Q688 -402 677 -414Q669 -418 648 -418Q630 -418 621 -422Q613 -422 604 -426Q594 -430 589 -430Q584 -431 578 -431Q574 -432 576 -436Q631 -457 641 -460Q665 -466 688 -473Q704 -478 719 -483Q724 -484 728 -486L745 -491Q750 -492 754 -494ZM405 -445Q396 -440 387 -439Q363 -431 338 -424Q331 -418 329 -396Q330 -391 327 -380Q324 -367 327 -360Q329 -357 326 -351Q323 -345 325 -341Q325 -336 326 -331Q327 -326 331 -322Q338 -326 345 -331Q347 -343 357 -350Q357 -358 364 -361Q366 -366 373 -372Q381 -378 382 -383Q400 -410 412 -439Q414 -442 411 -445Q408 -448 405 -445ZM202 -413L199 -411Q194 -396 189 -381Q183 -375 183 -360Q183 -347 180 -342Q172 -326 176 -313Q176 -308 183 -304Q192 -299 190 -292Q188 -284 194 -280Q199 -276 207 -278Q233 -281 258 -287Q265 -292 263 -299Q262 -305 261 -311Q258 -332 263 -363Q266 -377 265 -388Q267 -393 266 -398Q265 -404 260 -404Q242 -402 237 -407Q228 -409 220 -412Q211 -415 202 -413Z"/>
</svg>