<svg xmlns="http://www.w3.org/2000/svg" viewBox="0 -800 1024 1024">
	<path fill="#000000" d="M462 -759Q466 -760 479 -755Q481 -750 489 -749Q497 -748 499 -746Q507 -745 510 -737Q512 -728 506 -722Q503 -710 500 -698Q493 -677 478 -665Q475 -662 471 -652Q468 -644 463 -640Q462 -637 461 -637Q459 -640 456 -641Q452 -639 447 -628Q445 -623 441 -619Q446 -614 461 -608Q475 -603 481 -596Q481 -593 482 -593Q487 -593 490 -592Q499 -587 508 -583Q521 -578 533 -570Q535 -568 545 -564Q557 -559 561 -552Q562 -548 568 -546Q576 -544 576 -540Q580 -536 579 -530Q578 -529 576 -531L560 -518Q558 -512 547 -509Q540 -507 537 -504Q529 -500 516 -504Q493 -518 474 -530Q455 -538 436 -549Q416 -560 395 -569Q391 -567 387 -561Q381 -552 377 -550Q359 -540 341 -526Q335 -528 333 -521Q331 -513 328 -512Q324 -510 318 -507Q313 -505 312 -512Q308 -514 305 -507Q301 -499 298 -499Q293 -501 281 -496Q285 -499 288 -503L302 -520Q306 -523 309 -527Q321 -541 332 -550Q341 -564 342 -568Q354 -571 362 -586Q342 -597 317 -608Q303 -612 290 -617Q277 -622 262 -623Q247 -623 242 -626Q240 -628 233 -631Q225 -635 223 -639Q219 -641 220 -643Q224 -645 227 -647Q239 -645 247 -647Q272 -655 284 -650L332 -644L359 -638Q377 -634 386 -633Q403 -653 417 -673Q424 -686 432 -699Q441 -713 443 -729Q444 -735 435 -740Q425 -746 427 -752Q429 -752 431 -753L437 -756Q439 -756 441 -757Q453 -757 462 -759ZM388 -539Q402 -538 415 -537Q432 -527 451 -519Q451 -515 457 -508Q462 -502 462 -497Q460 -494 462 -485Q464 -476 461 -472Q459 -466 459 -459Q459 -454 465 -455Q484 -459 503 -463Q516 -466 528 -469Q538 -468 550 -474Q552 -477 559 -475Q565 -473 567 -477Q585 -483 599 -486Q602 -491 611 -491Q621 -491 624 -497Q627 -497 633 -504Q639 -511 643 -506Q647 -504 649 -499Q651 -495 654 -493Q657 -496 657 -498Q658 -500 663 -499Q671 -502 678 -506Q685 -502 690 -507Q695 -509 700 -503Q703 -500 704 -500Q705 -507 709 -508Q716 -507 722 -506Q728 -506 732 -499Q737 -500 738 -497Q738 -495 740 -493Q751 -479 732 -467Q731 -453 708 -455Q700 -452 690 -453Q677 -453 664 -447Q661 -446 660 -447Q659 -449 659 -451Q659 -457 654 -457Q651 -455 639 -446Q636 -450 635 -449Q634 -446 632 -443Q631 -441 627 -442Q619 -443 611 -438Q604 -441 598 -434Q595 -438 589 -434Q584 -431 581 -433Q575 -428 565 -425Q557 -427 548 -424Q545 -428 539 -423Q534 -418 529 -420Q525 -421 517 -417Q510 -413 504 -415Q501 -412 494 -411Q487 -410 484 -408Q482 -407 479 -406L470 -404Q468 -403 465 -402Q459 -406 455 -402Q451 -399 446 -397Q420 -395 416 -382Q418 -377 412 -371Q407 -365 407 -360L392 -337Q390 -336 388 -331Q387 -327 384 -328Q378 -318 375 -315Q374 -306 367 -299Q360 -293 355 -285Q351 -269 334 -260Q329 -258 323 -248Q320 -242 317 -240Q309 -237 306 -231Q302 -225 297 -220Q292 -220 288 -213Q285 -207 282 -207Q280 -203 276 -202Q270 -200 268 -197Q267 -190 256 -187Q248 -185 246 -182Q244 -185 242 -184Q239 -179 235 -177Q234 -178 232 -178Q225 -174 220 -173Q219 -173 218 -176Q246 -196 269 -225Q283 -242 296 -262Q331 -310 356 -365Q355 -368 360 -369Q365 -370 366 -370Q370 -374 368 -378Q366 -383 361 -380Q348 -379 334 -378Q326 -379 302 -369Q297 -369 278 -361Q257 -357 235 -350Q223 -347 216 -350Q196 -347 177 -354Q166 -356 153 -357Q141 -358 132 -366Q176 -378 178 -378Q213 -391 250 -401Q253 -400 258 -403Q262 -406 265 -405Q285 -415 358 -426Q376 -431 389 -437Q395 -454 401 -474Q407 -493 403 -515Q400 -519 391 -521Q383 -523 379 -528Q375 -532 378 -534Q384 -536 388 -539ZM646 -383Q661 -385 672 -382Q679 -381 685 -381Q717 -384 739 -365Q746 -360 757 -341Q764 -344 767 -336Q766 -322 771 -312Q775 -307 773 -301Q772 -295 772 -290Q769 -279 770 -269Q770 -264 772 -264Q776 -264 775 -260Q763 -242 773 -226Q771 -211 769 -196Q769 -182 771 -170Q767 -154 770 -147Q768 -134 765 -121Q768 -112 767 -101Q766 -88 761 -78Q761 -64 761 -50Q756 -45 757 -37Q758 -30 756 -26Q758 -23 755 -20Q752 -16 753 -13Q749 1 745 14Q740 19 741 25Q743 31 742 38Q736 39 734 48Q729 51 727 64Q724 78 718 81Q709 78 703 84Q697 91 690 94Q686 97 684 95Q682 90 679 86Q671 70 644 60Q639 60 637 53Q636 46 638 41L664 50Q671 48 680 47Q686 46 683 39Q688 22 692 5Q695 -12 697 -29Q701 -60 705 -92Q706 -103 705 -114Q704 -125 710 -133Q709 -147 717 -167Q719 -173 715 -179Q712 -182 709 -177Q713 -194 713 -221Q719 -255 711 -287Q713 -324 684 -335Q675 -343 662 -337Q649 -338 630 -330Q613 -323 606 -323Q603 -319 595 -315Q586 -311 585 -307Q583 -308 582 -307Q578 -300 575 -302Q568 -302 556 -308Q546 -313 539 -314Q530 -319 518 -323Q507 -325 514 -308Q511 -290 512 -277Q502 -254 506 -246L529 -249Q535 -249 541 -253Q546 -257 553 -251Q566 -250 580 -251Q594 -252 604 -246Q606 -239 602 -233Q597 -228 592 -222Q589 -215 577 -218Q569 -220 565 -218Q547 -221 527 -221Q520 -218 513 -221Q507 -225 500 -227Q495 -207 492 -185Q493 -182 490 -175Q487 -168 491 -164Q514 -168 537 -172Q546 -180 557 -171Q576 -175 596 -171Q604 -165 597 -156Q597 -155 594 -146Q592 -140 587 -141Q580 -138 572 -139Q551 -138 533 -141Q509 -144 487 -150Q482 -145 482 -131Q482 -122 480 -118Q477 -114 477 -102Q477 -92 474 -87Q475 -83 473 -70Q471 -57 474 -50Q474 -42 473 -34Q473 -30 470 -24Q466 -17 468 -13Q472 -6 470 9Q469 20 471 27Q474 33 471 38Q467 44 466 49Q464 56 452 54Q443 53 439 56Q428 59 425 48Q422 38 420 28Q422 22 415 12Q411 6 410 1Q407 -4 412 -13Q415 -18 414 -21Q416 -46 419 -58Q430 -111 432 -129Q436 -145 440 -161Q446 -206 460 -242Q460 -256 461 -268Q465 -281 469 -294L479 -319Q484 -337 500 -348Q507 -348 507 -342Q507 -337 507 -333Q510 -327 520 -329Q523 -337 536 -337Q542 -343 557 -350Q567 -354 572 -358Q580 -361 602 -371Q643 -382 646 -383Z"/>
</svg>