<svg xmlns="http://www.w3.org/2000/svg" viewBox="0 -800 1024 1024">
	<path fill="#000000" d="M607 -664H613Q635 -667 658 -655Q672 -653 691 -630Q690 -625 695 -618Q700 -612 700 -608Q698 -590 701 -570Q706 -557 700 -534Q694 -522 699 -510Q697 -503 699 -487Q696 -474 698 -459Q694 -456 697 -450Q699 -444 704 -447Q742 -458 778 -465Q793 -472 841 -483Q855 -487 871 -485Q884 -487 898 -487Q908 -483 914 -483Q930 -471 925 -458Q922 -455 921 -444Q920 -435 917 -431Q915 -426 910 -426Q905 -425 901 -424Q891 -414 884 -419L858 -418Q844 -414 828 -414Q820 -412 800 -410Q796 -406 783 -405Q776 -404 771 -402Q760 -403 750 -399Q733 -394 719 -394Q708 -391 699 -386Q696 -372 693 -359Q691 -345 693 -329Q694 -315 695 -301Q693 -270 696 -239Q696 -231 696 -223Q694 -206 700 -192Q701 -175 701 -158Q699 -152 701 -144Q701 -87 695 -60Q695 -55 690 -20Q686 -4 678 0Q669 -2 659 8Q643 3 635 -13Q617 -24 613 -38Q604 -59 614 -68Q619 -73 617 -78Q616 -84 617 -89Q624 -99 621 -110Q619 -121 618 -132Q617 -140 615 -149Q619 -157 619 -167Q621 -187 617 -203Q616 -226 620 -246Q621 -254 621 -262Q621 -280 620 -299Q620 -313 619 -328Q621 -343 623 -359Q622 -367 614 -367Q584 -359 554 -352Q550 -353 544 -350Q538 -347 534 -348Q517 -344 485 -332Q467 -319 451 -325Q444 -327 432 -329Q425 -329 420 -333Q415 -337 410 -339Q395 -345 388 -356Q385 -367 402 -360Q413 -367 429 -367Q438 -366 447 -373Q493 -387 538 -402L599 -420Q605 -423 619 -425Q625 -426 628 -432Q630 -437 629 -444Q629 -483 629 -522Q630 -536 628 -584Q625 -598 622 -613Q618 -624 609 -628Q599 -633 592 -639Q585 -644 578 -642Q570 -641 564 -641Q564 -649 570 -652Q576 -656 582 -659Q586 -664 593 -663Q601 -662 607 -664ZM232 -608Q240 -607 258 -607Q268 -605 277 -603Q286 -600 297 -597Q307 -595 314 -585Q322 -575 317 -560Q312 -552 309 -541Q298 -531 286 -537Q266 -537 257 -538Q243 -544 217 -554Q196 -562 174 -571Q171 -574 165 -576Q157 -579 157 -583Q175 -589 193 -596Q203 -596 213 -603Q216 -608 222 -607Q227 -606 232 -608ZM246 -442Q259 -442 261 -441Q283 -435 287 -433Q295 -431 303 -419Q312 -415 309 -407Q305 -403 310 -389Q310 -371 305 -360Q302 -343 298 -327Q289 -298 290 -285Q284 -276 290 -266Q285 -246 285 -241Q280 -230 284 -220Q285 -216 284 -210Q283 -204 288 -201Q326 -236 364 -271Q371 -280 379 -287Q387 -295 388 -305Q391 -310 396 -310Q408 -309 407 -296Q402 -292 396 -285Q392 -272 388 -260Q380 -246 372 -232Q366 -220 359 -209Q351 -203 347 -194Q343 -185 337 -177Q326 -164 317 -150Q306 -140 299 -125Q293 -122 288 -112Q284 -103 279 -100Q274 -101 252 -118Q239 -133 225 -148Q218 -155 217 -163Q215 -172 213 -179Q214 -186 214 -194Q212 -201 214 -206Q216 -212 217 -218Q219 -239 220 -261L225 -277Q222 -290 227 -301Q230 -317 233 -334Q235 -350 237 -355Q238 -363 239 -371Q236 -376 231 -374Q226 -372 222 -371Q206 -366 194 -363Q184 -357 168 -361Q152 -362 135 -364Q121 -364 108 -369Q97 -375 86 -379Q83 -385 95 -385Q107 -388 130 -400Q155 -413 170 -416Q179 -422 205 -431Q225 -438 246 -442Z"/>
</svg>