<svg xmlns="http://www.w3.org/2000/svg" viewBox="0 -800 1024 1024">
	<path fill="#000000" d="M554 -732H557Q562 -733 569 -729Q577 -724 582 -727Q587 -731 592 -727Q597 -723 601 -719Q614 -715 627 -712Q630 -711 633 -706Q639 -698 644 -697Q649 -692 645 -687Q642 -682 640 -677Q639 -664 628 -657Q621 -647 613 -637Q607 -633 599 -623Q592 -614 586 -610Q573 -599 566 -587Q568 -581 573 -581Q578 -581 584 -580Q597 -584 605 -577Q619 -579 627 -570Q634 -567 631 -560Q629 -554 623 -551Q611 -550 602 -547Q597 -549 590 -543Q586 -539 583 -539Q576 -543 569 -539Q563 -536 556 -534Q553 -532 544 -532Q534 -532 530 -527Q527 -522 515 -519Q505 -516 501 -510Q487 -495 470 -481Q457 -483 453 -474Q450 -468 443 -470Q434 -471 426 -469Q421 -470 421 -474Q421 -479 424 -481Q426 -488 438 -495Q447 -501 450 -505Q455 -509 452 -514Q449 -519 444 -515Q442 -514 439 -513L430 -511Q428 -510 425 -509Q419 -504 397 -502Q394 -500 385 -503Q378 -505 374 -503Q352 -506 335 -517Q326 -520 328 -529Q329 -532 333 -532Q349 -531 364 -540Q377 -544 389 -548Q396 -547 410 -553Q422 -558 437 -559Q455 -566 472 -573Q490 -587 525 -622Q549 -656 558 -680Q562 -685 560 -690Q559 -696 553 -694Q539 -689 524 -687Q505 -683 489 -677Q477 -678 464 -671Q450 -671 443 -663Q439 -658 425 -656Q417 -656 411 -646Q405 -636 400 -636Q394 -633 394 -628Q393 -623 392 -618Q387 -616 385 -607Q387 -599 380 -595Q372 -590 368 -597Q357 -599 351 -608Q345 -618 340 -626Q336 -637 337 -640Q337 -657 348 -666Q360 -676 369 -687Q372 -692 377 -692Q388 -692 394 -677Q393 -673 397 -670Q401 -667 405 -669Q413 -676 427 -681Q442 -686 446 -689Q482 -708 523 -722Q539 -727 554 -732ZM740 -469Q751 -470 761 -467Q775 -460 788 -454Q795 -452 801 -442Q806 -434 809 -431Q813 -421 821 -412Q818 -401 820 -384Q817 -378 816 -366Q814 -348 808 -342Q807 -322 808 -301Q804 -293 806 -279Q798 -260 804 -247Q806 -237 803 -225Q799 -214 799 -201Q795 -195 797 -188Q798 -181 799 -173Q797 -167 800 -159Q804 -149 803 -144Q800 -138 805 -127Q808 -120 808 -116Q805 -102 807 -86Q805 -75 810 -63Q811 -61 810 -55Q809 -48 811 -45Q811 -14 813 -8Q815 29 804 62Q804 66 798 73Q793 78 792 83Q789 87 787 92Q784 98 779 96Q775 89 761 84Q748 70 734 55Q731 43 721 38Q712 33 720 30Q746 30 753 17Q756 -11 755 -38Q756 -54 754 -71Q758 -90 755 -110Q751 -120 753 -137Q755 -151 754 -155Q745 -166 751 -174Q755 -199 752 -222Q752 -232 751 -242Q751 -248 755 -256Q756 -262 756 -268Q757 -299 758 -330Q763 -344 761 -368Q759 -375 759 -385Q759 -401 755 -406Q752 -416 744 -418Q730 -415 718 -409Q709 -406 702 -402Q693 -404 681 -394Q664 -395 647 -397Q620 -397 599 -410Q596 -413 597 -416Q599 -420 602 -420Q626 -425 648 -435Q694 -459 714 -464Q718 -469 729 -468Q737 -467 740 -469ZM301 -423Q308 -424 324 -416Q332 -416 336 -410Q340 -405 346 -399Q349 -389 349 -377Q347 -372 350 -371Q357 -369 362 -373Q375 -376 388 -375Q393 -372 404 -374Q413 -376 417 -375Q423 -377 426 -373Q429 -369 433 -365Q437 -367 440 -363Q443 -359 440 -355Q436 -352 440 -343Q442 -337 434 -335Q430 -336 412 -331Q401 -329 391 -325Q376 -324 358 -313Q341 -311 330 -284Q325 -280 322 -270Q319 -262 316 -258Q312 -255 310 -241Q309 -234 299 -220Q296 -218 297 -215Q298 -212 302 -211Q312 -220 329 -225Q342 -233 358 -233Q373 -233 390 -233Q406 -236 420 -225Q425 -226 432 -219Q437 -214 440 -213Q443 -209 441 -199Q439 -190 441 -186Q446 -180 440 -172Q429 -167 426 -153Q420 -145 401 -109Q397 -106 399 -101Q400 -97 406 -96Q411 -95 411 -83Q413 -76 409 -71Q405 -69 402 -63Q399 -56 396 -55Q383 -55 369 -55Q363 -59 335 -56Q327 -59 306 -57Q302 -55 294 -59Q289 -62 285 -61Q271 -65 266 -52Q263 -48 260 -41Q258 -35 251 -35Q241 -45 231 -49Q227 -55 212 -65Q196 -69 201 -98Q199 -105 201 -110Q203 -115 204 -121Q204 -127 214 -142Q215 -165 227 -185Q240 -211 257 -236Q266 -253 274 -270Q279 -279 279 -287Q277 -295 270 -292Q265 -289 259 -293Q246 -295 232 -297Q205 -302 178 -301Q186 -311 197 -315Q221 -324 258 -334Q265 -336 273 -339Q281 -342 283 -350Q285 -365 286 -381Q285 -386 287 -394Q290 -405 284 -409Q280 -409 280 -412Q279 -416 283 -417Q286 -415 301 -423ZM579 -393L580 -392Q594 -383 608 -362Q610 -353 612 -344Q608 -326 607 -306Q604 -302 608 -299Q612 -296 616 -298Q639 -298 662 -298Q688 -300 712 -293Q717 -293 718 -288Q719 -283 715 -279Q708 -266 696 -264Q683 -261 671 -259Q658 -264 646 -242Q640 -243 638 -239Q635 -235 632 -231Q628 -227 626 -236Q625 -242 633 -246Q640 -249 640 -253Q644 -263 626 -272Q618 -277 609 -282Q604 -285 602 -280Q600 -274 604 -271Q604 -259 603 -247Q599 -234 603 -220Q604 -216 608 -218Q612 -220 614 -219Q623 -216 630 -222Q636 -217 646 -216Q661 -212 669 -216Q683 -215 696 -209Q703 -210 714 -201Q727 -201 725 -181Q722 -178 720 -170Q717 -160 713 -157Q695 -159 685 -166Q667 -174 650 -180Q638 -187 625 -193Q613 -199 608 -213Q601 -218 600 -209Q600 -208 594 -169Q590 -144 582 -121Q577 -102 575 -98Q575 -85 569 -74Q563 -64 558 -53Q556 -39 553 -26Q543 -13 537 1Q532 3 528 12Q525 19 520 22Q512 25 509 18Q506 12 502 8Q496 4 493 -8Q491 -18 486 -22Q481 -26 483 -35Q480 -44 486 -50Q492 -57 498 -62Q504 -78 513 -92Q520 -108 527 -124Q528 -143 541 -167Q542 -172 543 -177L546 -196Q547 -201 548 -206Q550 -219 552 -233Q554 -240 554 -257Q554 -277 558 -286Q556 -322 559 -349Q560 -358 554 -364Q548 -370 546 -376Q552 -381 560 -383Q570 -388 579 -393ZM367 -190Q361 -189 341 -182Q336 -183 328 -179Q319 -175 315 -176Q304 -181 287 -179Q285 -177 280 -165Q280 -148 274 -142Q268 -120 266 -108Q267 -105 263 -98Q259 -90 263 -85Q275 -87 286 -89Q298 -93 312 -93Q323 -96 333 -99Q345 -101 351 -112Q356 -123 361 -133Q369 -157 376 -181Q379 -186 375 -190Q371 -194 367 -190Z"/>
</svg>