<svg xmlns="http://www.w3.org/2000/svg" viewBox="0 -800 1024 1024">
	<path fill="#000000" d="M402 -753Q405 -751 408 -753Q413 -753 500 -738Q522 -727 527 -722Q529 -713 539 -709Q538 -697 519 -672Q520 -667 531 -670Q541 -673 545 -670Q548 -673 552 -669Q555 -665 557 -667Q570 -670 579 -677Q581 -675 584 -677Q587 -679 589 -676Q582 -673 591 -667Q596 -669 599 -667Q603 -665 601 -661Q592 -658 591 -650Q587 -649 587 -645Q588 -641 582 -640Q578 -636 570 -636Q566 -637 562 -632Q558 -627 554 -626Q538 -623 522 -624Q515 -624 510 -620Q512 -623 510 -624Q503 -624 498 -618Q498 -614 497 -614Q494 -615 491 -614Q488 -612 485 -613Q480 -617 477 -620Q476 -621 474 -618Q474 -607 464 -606Q455 -605 447 -600Q448 -585 454 -577Q453 -574 454 -567Q455 -559 450 -558Q444 -548 437 -539Q433 -534 432 -525Q431 -518 429 -515Q423 -498 429 -489Q445 -500 472 -513Q475 -516 485 -519Q496 -521 498 -525Q511 -532 527 -532Q535 -535 551 -535Q567 -535 575 -538Q597 -531 620 -529Q626 -526 633 -525Q641 -524 643 -518Q653 -505 643 -483Q645 -478 642 -473Q639 -468 637 -463Q634 -462 632 -458Q629 -452 624 -453Q620 -443 616 -434Q614 -430 608 -430Q603 -430 601 -426Q602 -422 597 -420Q593 -418 593 -416Q582 -414 576 -399Q554 -387 551 -384Q548 -386 547 -384Q545 -381 543 -380Q538 -382 536 -376Q534 -368 532 -367Q529 -368 527 -368Q526 -367 527 -366Q528 -363 533 -364Q558 -364 584 -372Q602 -374 609 -375Q630 -379 650 -378Q651 -373 654 -374Q659 -379 665 -382Q672 -381 684 -384Q699 -388 706 -384Q721 -384 723 -385Q742 -384 757 -379Q758 -373 764 -371Q770 -369 774 -375Q774 -379 776 -380Q783 -379 787 -375Q793 -360 789 -352Q788 -346 782 -345Q776 -343 771 -342Q768 -344 757 -339Q758 -335 755 -335Q748 -335 743 -331Q742 -338 734 -337Q726 -336 728 -330Q717 -326 702 -329Q700 -331 696 -329Q692 -327 688 -329Q686 -331 683 -329Q679 -325 676 -329Q666 -325 656 -325Q645 -325 640 -329Q634 -318 624 -323Q628 -330 624 -332Q617 -334 613 -326Q615 -322 612 -320Q610 -318 605 -319Q570 -317 550 -313Q548 -316 543 -313Q540 -312 538 -312Q534 -308 532 -311Q531 -314 530 -317Q529 -318 526 -316Q527 -307 519 -305Q513 -303 504 -305Q499 -302 493 -298Q492 -296 496 -295Q525 -288 530 -257Q530 -251 533 -251Q540 -253 546 -254Q553 -254 554 -251Q555 -247 559 -243Q556 -237 560 -236Q565 -235 568 -241Q564 -247 569 -253Q574 -259 581 -255Q585 -255 590 -250Q596 -244 601 -249Q600 -256 607 -256Q617 -258 620 -250Q621 -243 625 -244Q630 -244 633 -245Q636 -241 645 -239Q654 -237 656 -232Q651 -231 653 -225Q654 -219 651 -218Q649 -219 648 -217Q648 -214 647 -212Q646 -211 644 -212Q643 -209 637 -207Q632 -206 630 -202Q631 -197 626 -197Q620 -197 619 -195Q601 -192 596 -194Q584 -189 571 -192Q556 -189 541 -187Q535 -172 534 -157Q536 -143 528 -138Q531 -127 534 -117Q531 -110 534 -95Q536 -82 535 -76Q537 -59 534 -43Q536 -39 533 -32Q530 -26 532 -22Q527 -16 533 -7Q530 2 528 13Q525 15 526 22Q527 29 524 31Q526 37 520 47Q516 54 515 59Q505 73 492 76Q483 80 480 75Q477 69 474 66Q471 67 469 62Q467 58 465 57Q465 49 461 43Q457 40 457 34Q457 29 456 28Q458 9 465 -5Q466 -9 466 -13L469 -30Q473 -58 472 -71Q473 -102 473 -134Q472 -154 470 -174Q470 -177 465 -177Q461 -176 458 -176Q454 -174 445 -174Q435 -174 431 -172L400 -165Q396 -162 387 -163Q377 -164 373 -160Q361 -160 335 -177Q325 -186 314 -192Q320 -191 322 -194Q324 -196 321 -201Q328 -203 338 -200Q347 -198 352 -207Q350 -212 355 -213Q363 -214 371 -214Q376 -216 411 -221Q420 -224 428 -227Q441 -227 465 -235Q473 -234 475 -239Q477 -247 475 -272Q468 -289 458 -293Q445 -293 437 -289Q434 -293 429 -289Q424 -286 422 -292Q423 -296 419 -296Q415 -296 416 -292Q418 -284 413 -284Q408 -283 403 -281Q376 -277 349 -273Q325 -267 301 -262Q270 -257 267 -257Q253 -254 238 -257Q224 -261 210 -262Q197 -267 183 -269Q170 -272 161 -280Q156 -284 157 -285Q159 -286 164 -289Q178 -290 191 -292Q193 -294 198 -293Q203 -292 205 -295Q221 -297 237 -299Q269 -308 301 -315Q340 -322 353 -323Q361 -327 379 -330Q394 -332 400 -335Q419 -335 428 -347Q430 -364 440 -367Q441 -370 442 -375Q443 -382 447 -384Q447 -376 457 -386Q462 -385 465 -392Q468 -398 470 -399Q468 -402 465 -402Q465 -403 468 -405Q482 -407 491 -420Q497 -431 511 -444Q524 -457 527 -460Q532 -469 539 -477Q546 -485 547 -496Q538 -501 526 -489Q514 -492 501 -483Q489 -477 476 -474Q473 -469 456 -461Q449 -458 442 -456Q435 -454 431 -448Q429 -444 422 -442Q415 -440 414 -436Q409 -435 404 -420Q400 -418 399 -412Q398 -405 394 -403Q395 -399 389 -396Q384 -394 382 -391Q379 -381 374 -383Q373 -383 373 -386Q369 -402 354 -402Q356 -409 348 -415Q351 -418 347 -423Q344 -430 340 -427Q337 -425 335 -425Q329 -434 322 -444Q320 -452 325 -454Q331 -456 335 -459Q345 -464 352 -474Q351 -477 355 -483Q359 -490 357 -496Q354 -501 358 -509Q361 -515 361 -519Q370 -535 381 -548Q388 -562 394 -577Q397 -584 392 -588Q387 -593 383 -599Q367 -603 351 -608Q340 -615 328 -622Q334 -627 346 -631Q349 -630 355 -633Q362 -636 368 -632Q396 -641 423 -650Q426 -650 428 -651L438 -656Q441 -656 443 -657Q454 -661 464 -661Q472 -663 479 -669L435 -682Q411 -681 393 -703Q391 -706 384 -711Q376 -716 373 -722Q369 -739 348 -742Q344 -743 345 -745Q349 -748 354 -748Q378 -750 402 -753Z"/>
</svg>