<svg xmlns="http://www.w3.org/2000/svg" viewBox="0 -800 1024 1024">
	<path fill="#000000" d="M436 -517Q463 -515 490 -514Q502 -539 514 -565Q518 -570 521 -576Q525 -583 519 -588Q513 -586 498 -585Q483 -584 475 -581Q453 -581 430 -582Q419 -581 408 -580Q397 -579 390 -569Q387 -555 387 -545Q386 -539 387 -533Q388 -527 382 -527Q370 -533 347 -556Q346 -561 338 -567Q332 -572 330 -575Q301 -580 297 -580Q286 -578 282 -582Q280 -584 285 -587Q290 -595 305 -597Q320 -599 325 -605Q329 -622 332 -639Q336 -656 345 -670Q344 -677 351 -679Q357 -681 360 -676Q367 -678 383 -669Q389 -671 393 -667Q396 -663 401 -661Q406 -649 413 -661Q455 -697 458 -701Q475 -714 492 -726Q509 -738 530 -741Q538 -747 549 -747Q559 -746 570 -748Q587 -747 603 -741Q613 -740 621 -730Q624 -726 631 -711Q630 -702 629 -694Q631 -688 625 -675Q619 -661 623 -654Q632 -650 646 -651Q651 -649 658 -649Q665 -649 667 -642Q663 -637 665 -626Q667 -615 663 -611Q656 -599 643 -598Q631 -597 619 -596Q594 -600 590 -574Q582 -568 576 -561Q571 -553 560 -554Q554 -546 546 -538Q539 -530 527 -529Q518 -518 509 -508Q521 -502 532 -497Q538 -498 541 -493Q544 -488 539 -484Q545 -459 528 -455Q517 -455 505 -459Q481 -464 457 -475Q450 -482 438 -488Q438 -495 426 -502Q416 -508 414 -516Q420 -514 436 -517ZM555 -713L538 -710Q514 -700 496 -685Q476 -673 453 -655Q443 -652 439 -643Q435 -635 430 -627Q430 -622 435 -623Q440 -624 444 -623Q483 -633 548 -646Q560 -670 560 -697Q560 -716 555 -713ZM641 -91Q617 -99 605 -99Q590 -103 574 -107Q571 -113 568 -111Q564 -106 561 -104Q549 -94 538 -83Q524 -77 514 -60Q486 -32 457 -7Q446 2 440 14Q433 18 424 29Q412 44 403 45Q399 48 393 48Q384 47 374 45Q354 25 343 19Q326 3 325 -21Q324 -45 324 -69Q325 -75 325 -81Q327 -115 334 -145Q343 -182 351 -220Q367 -313 390 -360Q391 -373 409 -384Q407 -390 395 -392Q387 -393 384 -396Q379 -400 380 -401Q386 -401 394 -406Q408 -408 421 -411Q430 -416 446 -416Q453 -421 466 -424Q480 -428 486 -431Q501 -433 516 -435Q528 -438 544 -439Q584 -439 596 -436Q610 -426 617 -416Q623 -412 625 -397Q627 -384 631 -379Q632 -362 630 -346Q623 -334 615 -323Q611 -306 603 -291Q602 -286 598 -282Q594 -278 593 -276Q589 -255 574 -245Q574 -241 570 -239Q564 -237 565 -231Q558 -227 550 -213Q549 -207 543 -200Q536 -192 535 -189Q525 -183 513 -181Q505 -176 487 -176Q481 -172 468 -172Q457 -172 453 -170Q448 -171 434 -170Q417 -168 410 -175Q402 -172 399 -164Q397 -157 393 -151Q391 -127 388 -121Q385 -108 385 -96Q381 -91 382 -83Q383 -76 382 -70Q377 -64 379 -43Q379 -36 382 -27Q376 -21 381 -13Q386 -5 393 -11Q433 -37 501 -89Q504 -92 516 -100Q528 -108 534 -116Q524 -124 513 -124Q488 -136 463 -148Q474 -154 489 -148Q495 -151 507 -151Q524 -151 530 -157Q531 -160 538 -163Q545 -166 543 -170Q548 -168 554 -174Q558 -179 570 -187Q583 -196 588 -203Q608 -221 626 -241Q632 -250 647 -262Q668 -280 674 -290Q675 -294 674 -296Q673 -297 670 -297Q663 -296 662 -302Q659 -304 660 -305Q663 -306 667 -306Q673 -311 687 -309Q697 -308 702 -310Q704 -309 705 -308L711 -306Q713 -305 714 -304Q733 -300 740 -292Q747 -272 737 -268Q735 -271 733 -269Q732 -266 732 -263Q725 -254 718 -246Q710 -232 696 -230Q687 -221 675 -216Q672 -210 662 -205Q651 -199 648 -195Q642 -187 634 -185L612 -167Q606 -161 606 -153Q613 -150 648 -145L655 -142Q671 -139 687 -137Q731 -127 748 -116Q756 -114 764 -112Q766 -106 771 -104Q775 -101 780 -98Q781 -91 786 -86Q791 -82 794 -79Q797 -78 797 -77Q797 -75 792 -75Q785 -76 785 -71Q784 -65 783 -61Q785 -53 778 -53Q770 -52 765 -53Q763 -48 757 -48Q752 -48 739 -53Q731 -59 715 -64Q698 -70 690 -75Q686 -76 675 -81Q663 -83 650 -86ZM561 -394Q531 -392 507 -383Q502 -384 493 -381Q485 -378 479 -381Q471 -375 462 -373Q456 -369 443 -372Q434 -374 430 -373Q417 -386 416 -375Q421 -370 431 -343Q434 -334 438 -325Q441 -317 450 -323Q473 -326 493 -324Q523 -329 538 -311Q537 -309 538 -302Q540 -293 536 -291Q532 -292 528 -287Q524 -282 521 -282Q507 -279 494 -281Q477 -282 459 -283Q449 -282 437 -289Q419 -284 424 -267Q417 -250 410 -228Q404 -223 405 -213Q405 -206 410 -207Q418 -208 424 -207Q431 -213 441 -217Q446 -218 451 -220Q456 -223 461 -220Q478 -222 494 -224Q502 -213 517 -224Q525 -244 532 -264Q550 -299 565 -336Q566 -344 572 -356Q579 -370 579 -377Q583 -385 575 -391Q567 -397 561 -394Z"/>
</svg>