<svg xmlns="http://www.w3.org/2000/svg" viewBox="0 -800 1024 1024">
	<path fill="#000000" d="M559 -734Q570 -733 583 -720Q592 -719 597 -711Q602 -703 608 -696Q608 -689 602 -679Q605 -674 601 -665Q598 -658 599 -654Q592 -644 598 -634Q600 -627 606 -630Q613 -633 617 -635Q622 -641 632 -642Q641 -643 650 -644Q654 -643 661 -644Q667 -646 672 -642Q681 -642 687 -634Q693 -626 688 -618Q680 -608 672 -599Q665 -597 666 -591Q667 -585 665 -583Q661 -584 650 -582Q640 -580 633 -583Q624 -573 617 -570Q622 -581 622 -591Q614 -598 598 -601Q594 -595 595 -594Q597 -591 597 -588Q598 -568 598 -548Q600 -542 612 -547Q616 -550 620 -545Q624 -540 627 -542Q642 -547 652 -547Q669 -546 685 -546Q695 -543 692 -532Q690 -523 683 -518Q685 -512 679 -504Q675 -499 676 -496Q670 -478 664 -460Q659 -454 660 -445Q661 -437 671 -440Q673 -439 676 -435Q680 -430 683 -430Q706 -430 710 -415Q702 -403 698 -399Q693 -396 680 -398Q669 -400 664 -397Q651 -399 640 -393Q632 -390 623 -387Q619 -383 612 -383Q608 -382 599 -375Q589 -367 583 -368L630 -414Q635 -418 631 -422Q628 -425 624 -429Q611 -443 616 -460Q621 -478 627 -494Q631 -499 628 -501Q622 -503 615 -507Q611 -508 607 -511Q602 -514 598 -510Q598 -488 597 -466Q602 -448 594 -433Q596 -424 598 -415Q598 -408 597 -401Q596 -394 588 -393Q584 -385 574 -383Q569 -382 565 -387Q562 -392 559 -393L554 -418Q548 -423 539 -442Q541 -452 542 -462Q543 -495 544 -529Q548 -543 544 -557Q550 -570 544 -583Q547 -594 546 -606Q546 -626 548 -640Q551 -654 546 -673Q549 -679 545 -680Q543 -681 542 -677Q525 -666 517 -652Q494 -625 470 -599Q466 -596 460 -586Q452 -573 444 -569Q436 -556 426 -543Q417 -530 415 -515Q421 -500 417 -484Q419 -475 416 -462Q419 -453 416 -434Q414 -421 415 -413Q412 -409 412 -400Q412 -391 408 -388Q405 -384 398 -383Q392 -382 389 -380Q382 -392 368 -397Q361 -409 354 -422Q353 -428 351 -434Q349 -441 343 -441L316 -415Q309 -410 299 -390Q292 -381 277 -396Q275 -401 270 -406Q262 -414 261 -419Q262 -426 262 -433Q262 -440 269 -443Q276 -457 290 -490Q293 -497 295 -503Q296 -509 287 -509Q281 -509 275 -510Q269 -510 268 -516Q278 -518 294 -529Q302 -537 311 -537Q320 -537 330 -538Q338 -541 346 -536Q349 -533 344 -529Q346 -515 341 -517Q335 -513 323 -510Q307 -506 302 -501Q287 -472 286 -462Q284 -456 288 -453Q293 -450 297 -455Q312 -467 329 -480Q346 -492 361 -508Q366 -544 364 -560Q364 -565 364 -571Q364 -577 359 -576L322 -581Q309 -587 294 -589Q285 -586 276 -592Q279 -598 285 -600Q291 -603 297 -606Q301 -606 305 -609Q311 -613 315 -612Q319 -610 328 -612Q332 -613 334 -612Q349 -612 364 -613Q368 -631 364 -668Q366 -677 357 -690Q349 -702 349 -710Q349 -715 351 -715Q357 -713 364 -712Q370 -722 388 -714Q404 -716 420 -705Q425 -681 423 -655Q423 -654 420 -623Q417 -616 419 -605Q421 -593 418 -589Q418 -576 422 -566Q437 -580 451 -595Q468 -614 486 -630Q486 -629 487 -628Q489 -630 495 -633Q505 -646 539 -690Q541 -696 534 -701Q529 -705 529 -707Q525 -712 529 -714Q537 -715 542 -721Q550 -720 553 -726Q556 -731 559 -734ZM494 -383Q502 -378 517 -374Q539 -369 547 -360Q554 -359 554 -354Q555 -348 558 -343Q558 -337 562 -335Q567 -334 572 -336Q579 -339 590 -339Q606 -339 613 -342Q624 -343 635 -345Q642 -345 646 -342Q654 -350 664 -350Q666 -344 671 -346Q675 -349 679 -351Q688 -350 700 -345Q714 -340 729 -340Q732 -337 743 -332Q757 -326 758 -317Q768 -314 775 -303Q772 -297 776 -293Q781 -289 784 -283Q783 -278 786 -271Q789 -264 786 -260Q788 -252 783 -248Q777 -244 771 -241Q765 -242 761 -236Q758 -231 754 -227Q752 -221 747 -221Q742 -220 738 -218Q733 -218 728 -213Q722 -207 716 -211Q708 -202 700 -193Q691 -192 681 -178Q674 -168 668 -166Q661 -152 656 -149Q656 -143 647 -141Q636 -138 636 -132Q625 -130 600 -130Q573 -130 559 -127Q553 -128 543 -124Q537 -121 534 -111Q531 -102 527 -99Q525 -74 523 -70Q513 -62 502 -53Q491 -45 486 -31Q490 -25 499 -25Q507 -25 515 -25L569 -28Q585 -26 594 -31Q592 -39 580 -63Q576 -72 575 -78Q576 -79 578 -78Q595 -76 606 -63Q617 -50 628 -38Q642 -20 655 -2Q656 1 661 5Q668 10 667 16Q667 21 672 30Q677 39 677 44Q671 44 670 51Q670 58 668 64Q663 70 659 66Q654 61 649 61L621 37Q617 34 616 25Q615 16 612 15Q608 12 599 14Q592 16 588 13Q585 15 578 13Q570 11 566 16L541 18Q537 16 527 19Q519 21 514 18Q505 20 496 24Q491 22 480 26Q471 29 467 29Q461 29 458 23Q455 17 451 12Q448 7 439 2Q428 -4 426 -11Q431 -26 436 -42L464 -76Q478 -89 482 -118Q479 -119 471 -117Q464 -115 461 -117Q439 -113 432 -114Q422 -111 414 -115Q406 -119 398 -121Q395 -124 384 -124Q381 -123 374 -127Q365 -132 360 -129Q358 -123 353 -125Q349 -126 347 -131Q346 -135 344 -134Q341 -129 337 -129Q336 -130 327 -134Q319 -137 315 -143Q292 -152 281 -180Q281 -182 287 -215Q286 -224 291 -237Q296 -248 296 -253Q309 -264 317 -281Q316 -287 322 -293Q327 -298 327 -300Q344 -312 350 -321Q352 -327 356 -325Q361 -324 365 -325Q369 -323 371 -315Q373 -307 376 -304Q396 -302 416 -300Q430 -297 443 -303Q455 -309 467 -311Q473 -314 485 -317Q500 -320 506 -325Q506 -351 503 -362Q505 -367 498 -375Q494 -380 494 -383ZM644 -298Q618 -295 615 -296Q601 -290 592 -294Q585 -288 574 -288Q566 -265 564 -246Q563 -230 558 -220Q549 -205 557 -201L554 -182Q552 -175 558 -174Q564 -174 566 -180Q565 -189 566 -193Q567 -193 569 -190Q572 -189 575 -182Q578 -175 582 -176Q587 -180 602 -180Q608 -175 613 -179Q617 -183 621 -187Q636 -200 651 -211Q666 -222 673 -234Q689 -250 702 -276Q707 -292 690 -295Q677 -300 662 -299Q653 -298 644 -298ZM377 -283Q376 -278 374 -274Q364 -268 360 -256Q355 -245 351 -233Q347 -229 348 -218Q349 -208 345 -203Q338 -189 365 -174Q371 -170 375 -166Q375 -165 372 -165Q370 -168 368 -166Q365 -163 369 -160Q387 -151 405 -143Q453 -151 488 -162Q498 -159 501 -172Q501 -183 503 -238Q502 -242 503 -252Q504 -265 500 -271Q496 -270 491 -269Q487 -269 485 -264Q478 -267 467 -263Q458 -260 455 -260Q447 -252 431 -263Q425 -268 412 -269Q400 -270 395 -274Q391 -275 387 -279Q380 -285 377 -283Z"/>
</svg>