<svg xmlns="http://www.w3.org/2000/svg" viewBox="0 -800 1024 1024">
	<path fill="#000000" d="M257 -253Q271 -255 285 -257Q294 -258 295 -266Q296 -275 295 -282Q294 -289 296 -297Q297 -305 290 -306Q281 -305 274 -309Q263 -309 260 -311Q256 -315 257 -318Q258 -321 263 -322Q272 -321 297 -335Q307 -342 301 -356Q302 -363 297 -368Q292 -373 286 -371Q281 -371 276 -371L252 -372Q247 -372 242 -372Q230 -372 220 -370Q204 -369 189 -363Q184 -364 177 -362Q165 -359 161 -362Q152 -364 143 -367Q138 -370 121 -370Q116 -370 112 -371Q107 -372 108 -376Q115 -377 122 -379Q156 -391 221 -406Q231 -410 226 -419Q220 -425 223 -445Q229 -463 212 -469Q208 -473 197 -475Q186 -477 183 -482Q190 -486 200 -488Q218 -492 224 -498Q225 -521 226 -544Q227 -557 213 -555Q195 -560 177 -565Q173 -565 168 -567Q163 -569 165 -572Q183 -576 201 -581Q217 -583 228 -593Q228 -617 227 -642Q227 -648 221 -655Q215 -661 215 -664Q217 -668 220 -666Q224 -664 228 -663Q240 -667 247 -664Q258 -659 269 -655Q279 -651 281 -631Q286 -627 284 -615Q282 -603 287 -598Q292 -602 305 -604Q308 -606 319 -608Q332 -610 338 -616Q341 -635 340 -656Q340 -669 340 -683Q341 -697 329 -704Q326 -709 329 -711Q333 -714 338 -713Q342 -716 353 -718Q358 -717 363 -715Q368 -713 373 -716Q378 -719 381 -715Q384 -712 388 -709Q393 -707 395 -700Q393 -697 395 -685Q397 -680 395 -671Q393 -660 395 -655Q396 -640 392 -626Q392 -621 395 -621Q401 -620 407 -622Q415 -620 425 -623Q431 -625 434 -620Q436 -615 433 -610Q430 -606 432 -593Q428 -587 420 -585Q411 -583 405 -580Q392 -583 388 -569Q380 -544 383 -536Q386 -532 397 -532Q407 -532 410 -530Q414 -527 420 -524Q426 -521 425 -513Q413 -493 393 -490Q381 -494 377 -481Q375 -478 373 -468Q371 -459 367 -454Q366 -450 371 -448Q376 -446 380 -448Q389 -460 403 -461Q416 -453 434 -456Q453 -459 474 -458Q479 -457 479 -448Q479 -440 482 -436Q480 -429 466 -424Q456 -421 453 -417Q446 -418 418 -413Q400 -407 382 -406Q364 -402 349 -395Q333 -391 319 -384Q313 -380 317 -375Q321 -370 324 -365Q328 -354 345 -358Q350 -362 361 -363Q371 -364 375 -366Q425 -371 442 -360Q456 -356 465 -343Q470 -339 471 -333Q472 -326 474 -320Q478 -321 478 -318Q479 -312 479 -307Q479 -303 477 -303Q474 -302 473 -300Q470 -294 477 -277Q472 -264 473 -260Q476 -255 473 -244Q471 -236 471 -232Q469 -219 467 -206Q460 -196 471 -185Q466 -164 467 -157Q473 -147 472 -137Q469 -121 470 -102Q468 -99 470 -89Q472 -81 469 -76Q467 -61 462 -48Q461 -39 459 -31Q455 -21 456 -9Q449 1 442 11Q439 17 434 13Q429 10 427 5Q426 -1 421 -9Q414 -22 414 -29Q403 -44 403 -51Q399 -62 394 -74Q405 -89 415 -90Q422 -95 418 -105Q415 -113 417 -116Q419 -121 417 -134Q415 -144 417 -150Q418 -163 411 -173Q405 -192 410 -200Q412 -212 413 -224Q417 -247 420 -271Q422 -295 421 -317Q422 -328 414 -333Q406 -338 396 -335Q388 -333 379 -331Q370 -329 361 -327Q355 -324 349 -323Q342 -322 339 -316Q334 -309 337 -299Q337 -296 335 -277Q334 -271 348 -266Q363 -270 370 -254Q371 -243 368 -233Q364 -233 358 -230Q351 -226 347 -228Q345 -228 341 -231Q337 -234 335 -231Q321 -214 332 -206Q349 -206 368 -204Q374 -208 381 -196Q389 -192 385 -183Q382 -176 376 -171Q373 -167 364 -168Q357 -169 354 -167Q332 -166 312 -163Q292 -163 275 -157Q262 -156 250 -152Q247 -153 240 -151Q233 -149 229 -152Q217 -155 217 -141Q213 -126 211 -110Q211 -98 211 -87Q210 -86 205 -64Q201 -56 189 -65Q178 -61 175 -73Q161 -85 160 -96Q155 -103 157 -111Q159 -118 159 -126Q161 -131 157 -136Q153 -141 148 -138Q126 -139 109 -147Q104 -148 101 -151Q100 -154 104 -155Q136 -157 146 -162Q154 -163 159 -167Q165 -172 164 -180Q170 -205 175 -231Q180 -256 188 -280Q190 -283 194 -295Q199 -309 205 -315Q210 -325 217 -330Q224 -335 233 -342Q241 -344 248 -346Q253 -347 267 -344Q266 -337 259 -334Q254 -333 250 -326Q249 -324 245 -315Q251 -305 250 -292Q250 -281 237 -270Q234 -263 227 -251Q222 -246 227 -228Q229 -224 225 -217Q221 -209 223 -205Q224 -202 222 -196Q219 -187 224 -183Q234 -185 238 -186L268 -190Q272 -191 282 -193Q288 -196 288 -203Q287 -210 287 -216Q287 -226 282 -228Q264 -233 249 -241Q244 -245 245 -247Q251 -250 257 -253ZM700 -589Q705 -589 709 -589Q735 -590 759 -586Q761 -582 766 -580Q771 -578 772 -575Q778 -565 789 -556Q799 -547 794 -534Q801 -527 798 -512Q796 -500 797 -496Q795 -490 795 -475Q795 -463 793 -457Q788 -399 771 -345Q774 -326 762 -314Q762 -295 756 -286Q761 -285 760 -281Q759 -277 758 -274Q753 -273 753 -265Q754 -256 749 -255Q744 -252 744 -241Q744 -229 739 -227Q735 -222 732 -222Q728 -222 725 -226Q716 -223 706 -227Q689 -251 691 -268Q691 -273 688 -273Q681 -269 676 -270Q672 -268 667 -261Q662 -254 658 -253Q646 -240 633 -227Q627 -225 623 -217Q619 -210 615 -207Q614 -204 608 -202Q602 -200 602 -196Q597 -195 595 -188Q593 -182 589 -181Q569 -152 554 -142Q553 -138 548 -138Q543 -138 544 -133Q540 -125 528 -118Q514 -120 512 -127Q512 -134 509 -141Q506 -147 511 -152Q525 -168 544 -185Q560 -202 575 -220Q578 -224 583 -228Q587 -232 584 -234Q574 -233 566 -237Q563 -237 561 -241Q558 -246 555 -243Q552 -245 550 -250Q546 -259 543 -260Q539 -268 533 -275Q531 -286 539 -294Q542 -316 550 -339Q558 -413 575 -480Q576 -503 571 -526Q569 -529 558 -540Q551 -547 553 -554Q565 -546 578 -547Q586 -549 594 -555Q602 -560 610 -557Q638 -576 673 -584Q687 -587 700 -589ZM321 -563Q315 -562 308 -561Q298 -558 287 -558Q280 -554 280 -546Q281 -538 279 -531Q279 -522 278 -514Q279 -509 285 -510Q290 -511 295 -511Q300 -515 310 -516Q323 -518 327 -522Q329 -539 330 -556Q332 -560 328 -563Q324 -566 321 -563ZM710 -554Q694 -550 677 -546Q668 -538 657 -536Q646 -533 637 -529Q635 -523 625 -522Q618 -521 616 -519Q623 -504 622 -489Q625 -483 623 -469Q621 -452 624 -445Q619 -426 615 -406Q612 -401 611 -390Q610 -376 605 -371Q602 -350 599 -329Q600 -324 597 -318Q594 -313 595 -308Q598 -302 594 -294Q591 -287 593 -285Q595 -279 591 -264Q587 -248 593 -241Q599 -244 602 -250Q605 -256 610 -262Q629 -283 646 -307Q644 -311 647 -313Q650 -315 650 -317Q648 -320 647 -319Q645 -315 639 -314Q634 -316 636 -319Q639 -323 643 -328Q646 -337 664 -337Q675 -341 681 -339Q684 -336 694 -337Q702 -338 706 -335Q709 -332 712 -334Q714 -335 715 -339Q715 -347 719 -361Q724 -379 723 -389Q725 -393 722 -402Q718 -411 722 -416V-417L723 -420Q725 -451 732 -480Q733 -509 730 -538Q732 -546 725 -552Q718 -558 710 -554ZM313 -477Q300 -477 289 -473Q273 -475 271 -466Q270 -457 273 -444Q272 -433 270 -423Q275 -419 280 -421Q286 -423 292 -424Q294 -426 306 -429Q314 -431 315 -438Q314 -451 317 -466Q320 -469 318 -474Q316 -479 313 -477ZM663 -237Q667 -237 668 -234Q682 -221 698 -209Q706 -209 703 -189Q700 -187 695 -182L691 -177Q686 -172 683 -170Q677 -153 667 -140Q662 -121 657 -102Q654 -99 653 -90Q652 -82 648 -78Q649 -64 646 -51Q643 -37 651 -23Q659 -9 674 -5Q700 4 732 5Q753 5 773 5Q780 4 798 8Q812 -1 820 3Q823 6 829 3Q834 1 837 2L878 -1Q881 -3 889 -2Q897 -1 899 -3Q907 -3 911 -9Q914 -15 917 -21Q927 -78 930 -88Q933 -92 933 -98Q934 -99 936 -98Q931 -76 935 -55Q936 -47 938 -40Q940 -32 935 -26Q939 -21 939 -13Q940 -13 952 -8Q954 -4 959 -2Q965 0 966 4Q978 6 985 11Q989 12 989 14Q985 18 985 26Q982 29 981 35Q979 40 974 37Q971 34 970 35Q970 39 968 42Q967 44 965 43Q956 47 929 47Q919 45 896 47Q880 49 869 47Q864 50 855 49Q846 48 842 49Q836 48 796 48H771Q770 47 762 47Q751 48 707 43Q683 37 659 27Q658 23 654 23Q649 22 648 22Q628 10 619 -1Q603 -16 595 -40Q587 -80 595 -99Q595 -106 600 -116Q606 -127 606 -133Q611 -140 618 -159Q625 -177 632 -187Q635 -197 649 -215Q659 -228 663 -237Z"/>
</svg>