<svg xmlns="http://www.w3.org/2000/svg" viewBox="0 -800 1024 1024">
	<path fill="#000000" d="M522 -696L541 -694Q562 -697 572 -679Q581 -664 578 -643Q580 -638 581 -632Q582 -620 586 -618L638 -639Q674 -648 690 -648Q721 -648 738 -628Q757 -617 738 -592Q733 -588 722 -572Q710 -555 698 -548Q694 -543 685 -535Q674 -526 670 -518Q665 -515 666 -514Q675 -514 687 -517Q745 -532 785 -532Q806 -532 829 -527Q847 -528 860 -512Q870 -499 872 -480Q875 -470 867 -455Q862 -446 862 -440Q851 -425 836 -414Q821 -403 807 -392Q791 -383 757 -365Q736 -356 730 -356Q720 -356 719 -365Q733 -378 750 -393Q766 -408 776 -425Q781 -429 790 -442Q796 -451 802 -456Q806 -467 811 -477Q817 -487 809 -495Q784 -500 759 -492Q735 -484 712 -476Q678 -470 644 -458Q621 -453 598 -448Q575 -444 554 -434Q528 -430 512 -430Q487 -430 471 -438Q463 -441 454 -436Q450 -436 450 -444Q458 -453 483 -461Q501 -467 510 -472Q532 -476 533 -497Q534 -521 537 -542Q537 -552 540 -561Q542 -570 533 -571L498 -536Q501 -516 484 -513Q480 -513 476 -517Q452 -514 453 -539Q444 -557 456 -573Q468 -589 476 -603Q484 -608 491 -598Q498 -589 505 -582Q517 -577 540 -596Q540 -611 540 -627Q543 -645 530 -677Q531 -682 524 -688Q518 -693 522 -696ZM644 -618Q629 -615 613 -605Q602 -602 589 -596Q576 -590 582 -573Q580 -567 583 -553Q586 -537 583 -528Q588 -525 586 -509Q585 -496 593 -499Q615 -500 621 -520Q627 -541 640 -558Q650 -581 659 -604Q664 -612 658 -617Q651 -623 644 -618ZM191 -493Q207 -493 215 -490Q247 -489 261 -485Q285 -478 291 -458Q274 -437 262 -429Q183 -441 137 -480Q164 -486 191 -493ZM420 -482Q433 -477 435 -463Q437 -451 430 -438Q427 -424 423 -409Q418 -395 422 -380Q428 -367 426 -353Q423 -337 408 -335Q393 -330 386 -342Q380 -352 380 -370Q366 -388 374 -414Q378 -427 395 -456Q401 -478 420 -482ZM630 -390H662Q687 -393 706 -374Q706 -370 709 -363Q713 -353 712 -346Q710 -331 701 -319Q691 -308 683 -296Q691 -293 701 -289Q710 -285 703 -275Q706 -266 694 -261Q685 -257 684 -254Q705 -244 708 -221Q711 -199 696 -182Q659 -134 665 -72Q676 -52 702 -44Q719 -39 752 -38Q776 -35 799 -35Q852 -37 905 -39Q918 -36 925 -48Q930 -57 930 -70Q930 -73 930 -77V-78Q933 -72 938 -70Q950 -64 959 -53Q968 -42 977 -33Q988 -34 993 -21Q998 -8 987 -4Q983 4 975 5Q967 6 960 8Q953 9 936 5Q919 1 908 3Q879 7 850 11Q750 13 703 -7Q672 -9 644 -47Q631 -57 624 -76Q620 -87 616 -111Q620 -152 644 -199Q656 -225 670 -250Q668 -250 632 -241Q623 -240 625 -231Q628 -217 627 -214Q607 -203 591 -173Q580 -170 575 -159Q570 -147 558 -144Q547 -126 531 -114Q514 -103 498 -93Q478 -83 456 -87Q476 -114 501 -140Q526 -166 550 -193Q550 -198 558 -207Q568 -218 563 -224Q549 -222 537 -220Q525 -218 514 -210Q498 -210 475 -221Q454 -231 445 -232Q480 -239 514 -250Q515 -265 505 -288Q488 -301 501 -327Q512 -352 540 -380Q546 -384 549 -376Q553 -367 558 -366Q593 -379 630 -390ZM233 -353Q249 -352 264 -351Q270 -346 267 -332Q265 -322 266 -315Q258 -280 253 -246Q247 -193 248 -149Q248 -139 249 -127Q250 -116 259 -117Q323 -176 344 -228Q353 -204 328 -164Q325 -145 306 -113Q292 -89 287 -74Q281 -72 272 -61Q263 -50 257 -50Q253 -50 248 -54Q233 -52 224 -63Q215 -74 209 -85Q194 -90 192 -103Q190 -115 187 -126Q189 -189 198 -247Q202 -270 202 -289Q181 -292 156 -287Q145 -287 137 -292Q128 -290 121 -295Q113 -301 105 -305Q97 -303 97 -311Q97 -312 97 -313Q98 -315 103 -312Q117 -315 138 -324Q171 -338 187 -339Q203 -347 233 -353ZM634 -342Q611 -333 582 -339Q569 -346 562 -334Q556 -324 558 -311Q546 -293 563 -263Q593 -270 623 -278Q632 -291 636 -315Q642 -324 643 -337Q643 -344 634 -342Z"/>
</svg>