<svg xmlns="http://www.w3.org/2000/svg" viewBox="0 -800 1024 1024">
	<path fill="#000000" d="M706 -729Q713 -730 724 -723Q750 -716 753 -696Q757 -684 757 -655Q759 -640 751 -626Q748 -611 744 -597Q743 -592 740 -586Q737 -581 741 -575Q759 -572 778 -577Q785 -576 793 -578Q801 -580 808 -574Q813 -571 819 -568Q825 -565 826 -557Q825 -554 820 -549Q814 -543 813 -539Q808 -532 800 -531Q792 -530 786 -527Q769 -522 754 -521Q744 -519 734 -517Q724 -518 721 -508Q716 -491 715 -490Q715 -483 714 -480L711 -474Q710 -471 710 -464Q713 -453 706 -443Q704 -435 702 -427Q705 -422 710 -424Q716 -426 721 -425L791 -442Q808 -447 825 -453Q838 -454 850 -455Q862 -456 874 -455Q879 -455 880 -448Q881 -440 885 -439Q893 -440 893 -433Q892 -423 883 -420Q870 -412 855 -409Q843 -412 837 -406Q825 -403 812 -401Q808 -398 788 -396Q779 -393 769 -391Q758 -391 748 -386Q741 -381 716 -381Q699 -377 681 -373Q671 -367 660 -371Q657 -369 644 -364Q632 -358 619 -359Q608 -361 598 -354Q591 -353 584 -353Q575 -350 565 -348Q550 -345 535 -342Q522 -342 511 -338Q499 -334 473 -334Q462 -332 451 -330Q431 -333 410 -336Q397 -341 387 -341Q382 -345 379 -340Q376 -336 379 -331Q381 -321 379 -310Q379 -302 377 -293Q375 -284 379 -276Q381 -272 379 -264Q377 -256 379 -251Q378 -238 381 -224Q380 -204 379 -185Q376 -179 383 -165Q381 -139 380 -125Q376 -112 377 -94L370 -74Q358 -68 355 -63Q353 -58 348 -60Q344 -62 343 -66Q336 -71 326 -85Q319 -95 313 -100Q306 -112 305 -124Q305 -132 295 -150Q294 -152 289 -158Q282 -165 285 -170Q290 -168 299 -159Q308 -150 313 -148Q321 -145 326 -153Q325 -172 324 -191Q324 -226 324 -262Q323 -287 326 -315Q326 -329 325 -344Q326 -355 328 -375Q332 -382 332 -389Q331 -392 329 -393Q326 -394 324 -392Q312 -371 300 -351Q282 -332 268 -310Q258 -308 250 -315Q242 -322 235 -329Q226 -331 222 -339Q218 -347 221 -355Q224 -365 223 -373Q238 -402 250 -433Q251 -443 254 -453Q257 -463 253 -472Q252 -478 247 -478Q241 -478 237 -478Q220 -476 220 -487Q224 -491 233 -493Q239 -498 246 -499Q262 -495 287 -495Q297 -498 306 -489Q312 -492 314 -484Q310 -475 303 -469Q295 -465 294 -457Q293 -449 291 -441Q291 -431 285 -409Q282 -407 283 -400Q284 -394 289 -396Q292 -398 295 -401L304 -411Q308 -415 310 -416Q322 -413 327 -430Q330 -447 333 -465Q335 -477 336 -490Q338 -509 340 -528Q341 -550 346 -569Q346 -603 348 -619Q347 -627 348 -635Q348 -643 343 -647Q329 -647 309 -635Q294 -632 282 -623Q270 -604 257 -612Q235 -616 230 -619Q224 -619 219 -622Q213 -626 217 -630Q235 -642 252 -655Q269 -666 289 -672Q299 -679 319 -681Q323 -684 334 -682Q342 -681 346 -682Q366 -683 384 -673Q389 -673 393 -666Q397 -660 399 -658Q404 -658 404 -653Q405 -649 405 -643Q413 -635 409 -625Q406 -615 404 -606Q399 -596 400 -583Q400 -581 399 -579L397 -570Q397 -567 396 -565Q397 -555 393 -548Q389 -541 386 -533Q391 -516 387 -508Q385 -497 383 -486Q386 -482 382 -471Q382 -467 382 -464L380 -449Q380 -445 380 -442Q375 -430 378 -411Q380 -401 378 -389Q377 -386 380 -356Q379 -350 384 -350Q389 -350 394 -350Q411 -354 427 -359Q456 -362 484 -369Q503 -373 522 -378Q526 -382 536 -384Q546 -386 549 -388Q551 -394 546 -395Q541 -397 538 -400Q533 -408 531 -440Q530 -444 531 -450Q532 -459 529 -462Q511 -467 496 -474Q492 -476 488 -478Q484 -480 484 -484Q490 -486 519 -501Q537 -506 537 -526Q539 -552 542 -563Q544 -570 546 -577Q547 -580 546 -586Q544 -594 547 -597Q554 -606 566 -606Q569 -605 574 -608Q579 -611 583 -610Q591 -599 599 -585Q604 -572 604 -557Q606 -554 603 -547Q599 -536 606 -532Q632 -543 663 -549Q672 -552 672 -571Q672 -580 676 -587Q672 -602 679 -618Q679 -645 684 -670Q682 -676 683 -687Q684 -699 682 -704Q680 -710 674 -713Q670 -716 674 -720Q678 -730 688 -728Q698 -726 706 -729ZM189 -618H190Q202 -614 207 -605Q208 -592 208 -580Q204 -576 204 -564Q204 -554 203 -551Q203 -527 204 -524Q203 -510 202 -497Q203 -486 205 -473Q205 -460 202 -445Q202 -432 201 -417Q202 -393 200 -367Q197 -342 194 -317Q188 -310 189 -300Q190 -290 189 -281Q177 -276 185 -260Q182 -248 179 -237Q179 -227 175 -220Q170 -213 166 -205Q166 -185 163 -175Q159 -171 158 -162Q156 -152 153 -148Q149 -147 142 -139Q134 -129 126 -132Q116 -149 113 -162Q107 -170 109 -182Q99 -197 110 -201Q119 -207 119 -217Q119 -228 121 -237Q128 -243 134 -262Q137 -279 137 -281Q138 -297 144 -310Q144 -319 148 -331Q148 -346 154 -370Q159 -387 160 -406Q164 -436 167 -467Q167 -511 167 -555Q165 -568 171 -590Q182 -612 189 -618ZM656 -499H654Q642 -495 629 -491Q616 -487 603 -484Q593 -483 591 -472Q590 -467 590 -452Q589 -447 587 -442L582 -421Q581 -415 579 -410Q576 -397 605 -400Q621 -403 635 -409Q645 -432 651 -457Q656 -473 660 -490Q662 -492 660 -496Q658 -500 656 -499ZM787 -321H810Q819 -318 828 -315Q838 -311 842 -301Q842 -298 847 -294Q850 -292 852 -288Q850 -283 855 -276Q860 -269 859 -264Q856 -259 861 -251Q864 -246 864 -242Q861 -231 866 -219Q854 -201 861 -185Q863 -181 861 -172Q858 -162 861 -157Q859 -138 854 -120Q854 -83 850 -66Q845 -50 845 -32Q844 -21 837 -12Q831 -8 835 -3Q838 2 838 8Q835 12 826 12Q819 12 816 15Q808 23 799 15Q788 12 778 2Q773 -2 770 -9Q767 -16 760 -13Q754 -14 740 -7Q725 -10 708 -8Q694 -8 680 -9Q656 -8 636 -11Q629 -17 617 -10Q604 -8 596 -18Q578 -28 563 -52Q555 -58 553 -70Q550 -81 543 -87Q539 -92 543 -95Q547 -97 551 -101Q565 -165 568 -170Q578 -194 585 -220Q593 -243 614 -278Q626 -294 638 -311Q646 -314 655 -313Q666 -311 667 -303Q668 -302 670 -291Q672 -283 679 -282Q708 -299 716 -302Q736 -312 759 -317Q772 -321 787 -321ZM778 -281Q769 -281 755 -277Q752 -275 745 -274Q737 -273 734 -269Q729 -257 702 -260Q691 -262 680 -265Q676 -265 672 -261Q665 -247 658 -234Q647 -219 642 -198Q642 -194 640 -187Q636 -176 639 -170Q639 -163 655 -166Q667 -170 681 -168Q706 -170 728 -167Q744 -167 758 -158Q764 -154 761 -148Q757 -142 754 -137Q748 -126 736 -131Q723 -130 703 -132Q696 -135 683 -135Q667 -135 662 -138Q648 -145 636 -149Q629 -148 629 -142Q629 -136 628 -131Q618 -100 617 -89Q615 -79 619 -68Q622 -56 623 -53Q624 -47 630 -47Q635 -47 641 -47Q657 -46 672 -45Q696 -47 711 -46Q723 -48 736 -43Q744 -47 752 -43Q760 -39 770 -37Q780 -43 782 -54Q783 -64 787 -74Q792 -105 796 -136Q799 -166 802 -196Q798 -242 793 -264Q788 -285 778 -281Z"/>
</svg>