<svg xmlns="http://www.w3.org/2000/svg" viewBox="0 -800 1024 1024">
	<path fill="#000000" d="M360 -331Q355 -327 358 -316Q360 -308 358 -303Q356 -290 356 -277Q360 -271 358 -258Q356 -245 358 -240Q359 -237 357 -231Q355 -225 356 -221Q363 -209 360 -202Q359 -184 355 -166Q355 -142 349 -126Q349 -122 343 -117Q337 -113 337 -109Q333 -105 333 -99Q334 -92 328 -92Q322 -98 316 -105Q306 -107 302 -122Q297 -126 290 -136Q284 -145 279 -148Q272 -154 273 -162Q269 -170 268 -176Q266 -181 269 -183Q271 -185 275 -182Q285 -170 295 -170Q301 -170 305 -176Q303 -183 303 -209Q306 -223 306 -253Q307 -287 307 -322Q306 -326 308 -334Q311 -344 305 -347Q302 -345 299 -338Q296 -331 292 -329Q289 -324 280 -320Q269 -315 267 -308Q266 -301 250 -301Q238 -306 230 -315Q225 -323 219 -330Q212 -337 211 -345Q210 -354 215 -360Q221 -366 225 -372Q226 -390 235 -409Q235 -414 239 -425Q245 -440 241 -448Q239 -456 223 -453Q215 -452 207 -452Q202 -449 201 -442Q201 -436 199 -430Q200 -423 198 -408Q195 -401 194 -387Q193 -370 190 -364Q190 -354 190 -344Q185 -330 181 -298Q179 -294 179 -281Q179 -272 177 -266Q170 -261 171 -252Q172 -243 172 -234Q166 -221 163 -205Q158 -200 154 -187Q152 -178 149 -174Q148 -166 141 -160Q133 -153 126 -159Q105 -187 104 -191Q101 -198 95 -202Q89 -207 95 -213Q110 -219 111 -230Q122 -243 125 -257Q123 -272 133 -294Q141 -342 142 -344Q146 -357 150 -371Q150 -395 155 -417Q157 -424 158 -432L159 -447Q163 -475 163 -503Q165 -513 166 -524Q164 -551 170 -565Q169 -585 182 -609Q187 -615 194 -610Q200 -605 201 -598Q209 -581 203 -560Q201 -547 204 -533Q197 -520 202 -504Q201 -492 200 -481Q203 -476 208 -476Q218 -479 227 -483Q237 -487 249 -487Q263 -491 277 -486Q288 -486 299 -478Q310 -475 306 -461Q283 -438 279 -428Q273 -412 267 -396Q268 -391 271 -391Q275 -391 278 -391Q280 -391 279 -387Q279 -385 280 -384Q282 -384 284 -385Q286 -388 293 -390Q300 -391 303 -397Q307 -404 310 -409Q307 -421 311 -428Q315 -447 319 -466Q323 -479 323 -507Q328 -527 326 -549Q326 -577 326 -606Q324 -622 318 -623Q292 -615 280 -608Q273 -608 268 -602Q263 -597 257 -593Q248 -592 235 -597Q223 -601 217 -601Q213 -603 208 -604Q203 -606 205 -610Q210 -617 224 -623Q232 -633 265 -646Q279 -652 295 -654Q307 -655 318 -657Q319 -657 326 -655Q330 -651 339 -650Q349 -648 353 -646Q359 -645 361 -640Q364 -635 367 -630Q373 -629 373 -620Q373 -613 375 -611Q382 -607 380 -595Q376 -589 377 -572Q377 -558 375 -552Q375 -541 368 -531Q371 -503 371 -501Q368 -488 365 -476Q363 -465 361 -455Q364 -440 363 -423Q355 -412 360 -406Q364 -402 359 -391Q361 -363 361 -349L360 -336Q360 -333 360 -331ZM551 -310L562 -302Q569 -296 578 -297Q586 -295 591 -293Q597 -288 603 -283Q607 -282 606 -279Q606 -277 603 -275Q605 -267 604 -264Q608 -258 606 -245Q606 -239 602 -225Q601 -220 598 -218Q596 -213 594 -209Q587 -199 583 -204Q580 -209 577 -215Q574 -216 569 -218Q563 -228 563 -237Q552 -230 541 -223Q526 -220 515 -212Q499 -207 482 -203Q469 -199 466 -200Q460 -202 454 -196Q448 -190 445 -192Q433 -214 432 -216Q433 -221 426 -227Q421 -231 421 -234Q417 -240 419 -251Q415 -260 424 -271Q424 -282 434 -285Q449 -296 460 -311Q468 -322 457 -327Q441 -327 432 -323Q399 -328 376 -340Q379 -344 382 -348Q401 -348 472 -373Q484 -373 489 -396Q489 -422 490 -425Q489 -432 490 -439Q491 -446 486 -449Q473 -449 464 -452Q455 -451 434 -456Q421 -457 410 -461Q411 -463 427 -468Q443 -477 470 -488Q480 -493 490 -499Q488 -531 486 -545Q484 -570 487 -593Q490 -609 476 -615Q476 -630 486 -631Q499 -633 511 -624Q522 -626 532 -617Q542 -608 541 -596Q539 -591 539 -577Q539 -566 537 -560Q538 -546 539 -533Q541 -530 539 -524Q537 -516 542 -512Q553 -512 563 -509Q575 -509 586 -503Q593 -500 590 -494Q587 -489 587 -483Q585 -479 579 -474Q572 -468 570 -464Q548 -468 540 -455Q539 -443 540 -431Q541 -427 538 -421Q534 -414 538 -410Q540 -402 539 -393Q542 -388 548 -389Q553 -391 559 -390Q574 -387 608 -389Q610 -386 617 -384Q626 -381 628 -376Q627 -375 603 -354Q583 -350 573 -346Q555 -343 537 -340Q529 -334 527 -325Q524 -316 519 -307Q508 -290 497 -274Q485 -268 475 -252Q474 -249 476 -248Q478 -247 480 -246Q484 -249 511 -256L557 -268Q560 -269 556 -281Q556 -294 549 -306Q545 -311 551 -310ZM828 -506H840Q864 -506 886 -496Q902 -492 927 -465Q931 -462 932 -454Q933 -445 937 -442Q939 -423 938 -402Q935 -390 924 -372Q922 -364 923 -354Q912 -343 911 -338Q913 -330 898 -315Q887 -290 871 -275Q863 -274 860 -267Q857 -260 852 -256Q837 -251 836 -244Q814 -228 803 -222Q792 -221 786 -212Q778 -209 770 -207Q769 -208 756 -211Q748 -210 748 -221Q749 -227 750 -234Q749 -246 733 -255Q740 -260 748 -253Q756 -252 764 -248Q772 -244 781 -248Q811 -278 824 -292Q833 -307 848 -323Q849 -339 861 -352Q863 -364 869 -373Q871 -376 879 -413Q882 -448 852 -464Q817 -466 799 -454Q784 -454 773 -443Q767 -442 731 -429Q726 -427 720 -426Q714 -425 714 -418Q716 -409 718 -400Q730 -381 724 -372Q720 -362 731 -353Q729 -350 727 -338Q728 -311 728 -285Q731 -280 727 -272Q723 -264 725 -260Q731 -253 727 -241Q724 -228 724 -212Q724 -189 725 -186Q720 -172 728 -166Q733 -161 729 -151Q726 -143 728 -139Q735 -127 732 -119Q723 -110 732 -99Q734 -93 730 -81Q727 -73 727 -68Q728 -63 726 -51Q724 -41 725 -34Q727 -27 723 -15Q719 -2 720 5Q715 21 709 37Q705 41 703 48Q701 54 694 54Q684 51 674 48Q668 43 663 47Q657 50 652 52Q647 52 647 50Q647 44 651 40Q655 32 657 17Q659 0 662 -6Q666 -27 669 -49Q674 -69 675 -87Q677 -109 680 -118Q679 -137 681 -171Q681 -197 682 -200Q682 -211 681 -223Q681 -248 681 -273Q680 -286 681 -297Q681 -322 681 -348Q686 -365 663 -390Q658 -396 655 -403Q651 -411 643 -410Q637 -412 631 -414Q625 -415 623 -421Q622 -434 634 -433Q643 -437 654 -438Q660 -443 674 -445Q685 -446 690 -449Q744 -487 806 -502Q809 -504 828 -506Z"/>
</svg>