<svg xmlns="http://www.w3.org/2000/svg" viewBox="0 -800 1024 1024">
	<path fill="#000000" d="M510 -690L548 -689Q554 -689 560 -685Q568 -680 573 -680L596 -663Q600 -663 605 -656Q609 -649 613 -649Q617 -639 620 -627Q618 -623 620 -614Q622 -608 620 -603Q624 -592 623 -579Q627 -572 623 -568Q620 -563 617 -558Q622 -521 614 -492Q611 -478 604 -466Q605 -456 600 -448Q596 -439 593 -431Q593 -422 582 -404Q586 -390 573 -378Q573 -368 567 -359Q565 -354 559 -348Q551 -340 550 -334Q547 -325 542 -318Q538 -314 534 -305Q529 -292 522 -289Q518 -291 516 -289Q514 -286 510 -285Q488 -288 465 -284Q459 -284 452 -284Q442 -280 408 -278Q384 -273 330 -284Q319 -286 319 -276Q319 -266 314 -259Q312 -243 310 -228Q307 -213 307 -199Q309 -192 305 -181Q302 -172 302 -167Q298 -161 300 -154Q301 -147 300 -141Q304 -114 299 -103Q296 -100 296 -89Q295 -74 294 -60Q297 -50 295 -30Q294 -10 296 -1Q300 7 301 17Q302 27 310 33L351 6Q373 -13 405 -36Q455 -72 474 -90Q488 -103 503 -118Q517 -132 519 -150Q489 -170 459 -184Q455 -185 449 -189Q443 -194 447 -197Q450 -191 458 -196Q463 -199 465 -197Q473 -198 485 -197Q504 -195 512 -199Q527 -220 548 -235Q566 -247 599 -288Q611 -307 627 -324Q643 -341 658 -359Q674 -372 685 -392Q690 -398 695 -405Q701 -412 699 -420Q673 -430 683 -446Q706 -450 718 -456Q726 -463 736 -463Q746 -463 753 -455Q779 -451 789 -440Q789 -435 795 -430Q800 -425 795 -418Q797 -408 791 -402Q786 -395 780 -389Q780 -384 774 -379Q767 -374 767 -369Q764 -369 758 -364Q753 -360 750 -361Q740 -362 737 -354Q734 -346 727 -340Q720 -339 713 -325Q707 -313 698 -312Q684 -299 669 -287Q660 -291 649 -275L620 -244Q616 -236 604 -233Q594 -230 591 -227Q587 -229 583 -226Q579 -224 581 -219Q575 -214 565 -211Q561 -206 553 -203Q545 -200 545 -190Q548 -189 554 -191Q559 -193 563 -187Q581 -187 597 -183Q619 -182 640 -176Q661 -170 680 -167Q690 -167 698 -163Q705 -159 714 -156Q722 -157 735 -150Q748 -143 755 -143Q758 -138 767 -139Q773 -139 776 -137Q793 -129 807 -119Q811 -116 812 -108Q813 -100 817 -100Q819 -94 822 -85Q824 -77 817 -71Q817 -66 811 -67Q806 -68 805 -66Q804 -61 798 -61Q795 -61 793 -59Q787 -62 781 -65Q774 -69 771 -60Q759 -60 737 -74Q723 -84 711 -91Q704 -91 695 -97Q684 -104 678 -104L649 -118Q609 -128 600 -131Q597 -130 590 -133Q583 -136 579 -134Q572 -138 556 -141Q542 -144 536 -147Q530 -151 527 -144Q524 -137 527 -132Q523 -128 521 -115Q519 -99 509 -96Q502 -75 486 -64Q485 -59 479 -52Q473 -45 472 -42Q469 -40 447 -18Q438 -4 419 13Q409 27 393 34Q388 35 382 48Q377 58 372 62Q366 66 361 71Q356 76 347 76Q333 88 325 89Q316 92 306 86Q297 83 293 76Q284 69 275 62Q268 61 259 54Q252 48 248 47Q234 26 231 5Q228 0 226 -18Q228 -21 226 -26Q224 -32 226 -34Q226 -36 221 -59Q224 -80 226 -102Q227 -130 232 -156Q235 -168 239 -200Q238 -214 243 -241Q248 -264 247 -279Q256 -339 265 -399Q264 -405 267 -413Q270 -421 269 -424Q271 -452 272 -455L285 -539Q289 -565 293 -592Q295 -599 297 -606Q298 -613 304 -617Q306 -628 318 -640Q323 -646 330 -645Q329 -651 332 -651Q337 -650 342 -648Q345 -652 348 -657Q351 -661 356 -659Q378 -663 383 -665Q444 -680 471 -684Q489 -690 510 -690ZM524 -639L521 -636Q517 -638 509 -636Q503 -634 500 -636Q489 -634 482 -631Q456 -630 432 -621Q419 -619 408 -623Q395 -624 383 -628Q370 -632 357 -630Q368 -613 361 -598Q350 -594 350 -579Q343 -570 340 -558Q342 -554 339 -545Q336 -537 337 -532Q339 -529 337 -523Q334 -516 337 -512Q334 -508 335 -499Q336 -489 333 -486Q337 -478 334 -471Q331 -463 331 -456Q329 -450 330 -439Q332 -425 328 -419Q329 -404 327 -388Q321 -375 322 -362Q325 -342 322 -320Q333 -316 340 -321Q359 -327 379 -327Q382 -330 391 -330Q400 -330 403 -334Q429 -335 449 -346Q458 -342 460 -351Q462 -361 453 -361Q449 -361 449 -362Q451 -365 459 -361Q461 -364 469 -363Q478 -362 480 -365Q476 -370 478 -371Q484 -372 490 -374Q516 -416 523 -440Q525 -449 525 -453Q524 -454 521 -450Q519 -441 509 -441Q498 -441 490 -438Q461 -439 425 -452Q400 -461 363 -478Q357 -477 353 -483Q350 -488 356 -490Q374 -492 391 -495Q401 -494 419 -496Q445 -499 456 -495Q472 -496 490 -495Q500 -492 512 -490Q523 -487 527 -477Q530 -471 533 -473Q539 -478 540 -487Q548 -518 556 -549Q561 -583 556 -615Q557 -627 545 -635Q534 -642 524 -639Z"/>
</svg>