<svg xmlns="http://www.w3.org/2000/svg" viewBox="0 -800 1024 1024">
	<path fill="#000000" d="M673 -709Q695 -709 704 -699Q713 -691 717 -678Q722 -654 709 -641Q708 -628 693 -609Q686 -604 681 -596Q677 -588 671 -581Q666 -573 657 -568Q648 -562 648 -551Q659 -546 676 -555Q681 -555 685 -557Q690 -559 694 -554Q699 -556 705 -555Q712 -554 710 -549Q709 -544 713 -544Q718 -543 721 -542Q723 -541 720 -537Q722 -533 719 -530Q716 -526 716 -525Q713 -524 708 -514Q691 -508 673 -503Q659 -500 645 -497Q635 -497 626 -494Q612 -490 598 -487L549 -476Q538 -475 527 -475Q503 -477 486 -485Q475 -489 476 -495Q496 -499 508 -503Q543 -518 582 -528Q590 -529 594 -535Q598 -541 601 -547Q601 -550 606 -555Q610 -559 609 -562Q611 -569 616 -576Q621 -594 625 -600Q632 -615 638 -630Q642 -640 646 -650Q646 -652 648 -658Q651 -665 648 -669Q634 -666 619 -663Q607 -659 595 -651Q587 -650 575 -642Q566 -636 561 -634Q556 -622 542 -618Q540 -616 530 -611Q521 -607 518 -601Q518 -593 514 -593Q509 -592 505 -599Q500 -599 494 -605Q489 -610 487 -611Q472 -620 484 -643Q485 -649 486 -655Q487 -662 493 -665Q498 -663 502 -656Q507 -648 511 -647Q517 -642 523 -646Q528 -651 533 -654Q580 -688 626 -701Q632 -704 673 -709ZM271 -604H282Q286 -601 296 -601Q306 -601 310 -597Q317 -594 324 -596Q330 -597 330 -590Q328 -581 330 -572Q337 -562 328 -558Q321 -553 313 -553Q311 -548 301 -548Q293 -548 290 -546Q270 -545 252 -552Q230 -557 226 -559Q219 -559 206 -566Q198 -570 191 -572Q190 -576 183 -576Q176 -576 174 -581Q186 -583 194 -583Q202 -581 206 -586Q210 -590 214 -593Q221 -589 225 -592Q228 -596 235 -596Q242 -601 257 -602Q268 -603 271 -604ZM291 -481H296Q298 -478 305 -477Q310 -477 311 -472Q322 -477 327 -467Q337 -462 339 -440Q347 -437 347 -428Q347 -419 339 -416Q334 -406 328 -396Q326 -391 315 -381Q307 -373 303 -366Q297 -355 278 -336Q273 -325 276 -312Q271 -306 272 -297Q273 -288 272 -279Q274 -272 273 -258Q272 -244 273 -239Q284 -246 289 -257Q293 -268 298 -278Q299 -286 303 -295Q307 -303 298 -309Q295 -312 296 -313Q300 -314 305 -312Q315 -309 318 -320Q319 -324 323 -322Q328 -319 333 -318Q345 -313 357 -309Q366 -307 370 -299Q374 -290 366 -286Q365 -279 355 -272Q348 -267 346 -263Q333 -259 325 -243Q297 -228 290 -214Q303 -211 315 -211Q329 -213 346 -211Q359 -210 370 -206Q372 -208 384 -203Q388 -199 395 -196Q401 -194 402 -187Q405 -184 401 -179Q397 -174 402 -171Q408 -168 403 -161Q399 -155 394 -158Q378 -159 364 -165Q355 -170 345 -172Q333 -176 326 -180Q319 -180 304 -186Q290 -191 282 -191Q275 -195 271 -190Q268 -186 269 -177Q265 -152 266 -127Q267 -102 266 -77Q265 -63 263 -50Q264 -46 261 -22Q258 -19 256 -11Q253 -1 248 0Q243 0 236 -5Q230 -10 225 -10Q223 -12 218 -9Q212 -5 210 -10Q207 -24 203 -38Q202 -51 200 -64Q207 -78 211 -91Q210 -106 210 -122Q211 -145 213 -166Q212 -177 213 -192Q217 -197 217 -210Q217 -224 222 -230Q220 -239 223 -251Q223 -257 224 -264Q224 -267 220 -266Q214 -259 194 -239Q169 -214 157 -198Q139 -186 132 -175Q127 -175 122 -173Q117 -168 110 -166Q108 -167 108 -171Q98 -179 102 -198Q102 -211 106 -221L124 -241Q128 -244 135 -254Q144 -266 151 -270Q174 -303 190 -321Q204 -334 228 -364Q232 -367 236 -375Q241 -385 247 -388Q247 -392 251 -399Q256 -407 254 -412Q228 -408 203 -400Q198 -401 186 -399Q173 -397 166 -400Q158 -404 152 -404L128 -413Q126 -410 124 -414Q123 -417 126 -416Q128 -415 140 -415Q208 -447 229 -458Q233 -461 245 -464Q260 -467 264 -476Q270 -478 276 -480Q278 -475 283 -477Q288 -480 291 -481ZM561 -453Q568 -449 575 -446Q579 -450 583 -447Q587 -444 591 -443Q596 -444 612 -442Q620 -440 621 -428Q631 -422 623 -410Q614 -405 611 -395Q610 -391 603 -387Q596 -383 597 -379Q600 -372 611 -375Q624 -371 637 -367Q668 -360 716 -345Q746 -333 796 -318Q828 -308 859 -298Q879 -294 898 -288Q900 -286 904 -285Q911 -284 911 -281Q917 -274 923 -260Q920 -260 918 -259Q915 -257 917 -254Q918 -247 908 -245Q900 -244 895 -241Q890 -245 883 -243Q876 -241 870 -240Q851 -240 834 -245Q787 -262 779 -265Q743 -277 710 -290Q707 -292 706 -291Q704 -286 710 -283Q710 -277 707 -274Q703 -271 700 -267Q697 -263 688 -259Q676 -254 675 -247Q673 -245 671 -243L664 -235Q662 -233 660 -231Q654 -223 649 -205Q643 -186 638 -178Q633 -162 633 -159Q640 -161 657 -171Q686 -185 714 -195Q754 -212 801 -209Q816 -207 830 -201Q847 -195 856 -182Q855 -176 859 -173Q862 -170 865 -166Q867 -161 861 -155Q854 -148 855 -143Q854 -135 849 -128Q845 -115 837 -103Q836 -93 817 -82Q808 -66 806 -65Q798 -46 786 -34Q785 -32 781 -30Q774 -26 775 -23Q784 -20 799 -20Q814 -19 831 -12Q841 -12 848 -3Q846 2 850 3Q854 4 858 6Q856 11 856 17Q855 19 852 17Q848 15 847 18Q846 21 845 24Q844 27 840 25Q838 23 837 24Q836 28 835 31L809 24Q777 18 745 17Q740 14 729 15Q718 15 714 13Q681 13 643 3Q629 -1 616 -9Q636 -8 655 -12Q677 -16 720 -18Q738 -15 751 -41Q756 -56 773 -79Q788 -100 793 -111Q799 -126 805 -142Q813 -165 801 -169Q799 -170 776 -170Q734 -163 720 -158Q715 -156 703 -153Q685 -149 677 -143Q666 -136 654 -135Q640 -135 625 -135Q614 -120 608 -103L601 -81Q598 -67 594 -53Q585 -33 590 -17Q587 -13 588 -5Q588 3 586 6Q584 8 579 5Q573 1 569 4Q564 4 560 1Q555 -3 555 -9Q554 -11 542 -19Q534 -25 535 -32Q542 -39 543 -51Q539 -60 543 -68Q548 -76 550 -83Q553 -98 561 -111Q572 -138 582 -152Q588 -159 589 -170Q596 -187 602 -192Q602 -196 610 -203Q616 -208 618 -214Q617 -218 622 -224Q629 -233 625 -237Q614 -229 599 -227Q589 -220 557 -220Q550 -214 535 -217Q521 -217 505 -222Q494 -224 485 -228Q505 -230 522 -238Q539 -246 557 -253L596 -266Q618 -273 632 -281Q649 -288 669 -292Q678 -294 686 -300Q670 -311 658 -313Q649 -319 628 -325Q609 -330 601 -335Q576 -340 569 -339Q564 -340 559 -332Q555 -325 552 -324Q548 -324 547 -321Q546 -319 545 -316Q542 -315 538 -309Q533 -302 530 -303Q528 -295 521 -293Q519 -287 509 -277Q506 -277 504 -271Q503 -267 501 -267L489 -256Q478 -249 473 -241Q457 -229 444 -213Q441 -214 437 -212Q433 -209 430 -211Q422 -209 415 -219Q409 -217 406 -221Q404 -225 401 -229Q401 -234 401 -240Q401 -246 406 -247L446 -283Q447 -285 455 -297L501 -350Q517 -367 530 -385Q552 -417 561 -432Q565 -437 563 -442Q562 -447 561 -453Z"/>
</svg>