<svg xmlns="http://www.w3.org/2000/svg" viewBox="0 -800 1024 1024">
	<path fill="#000000" d="M544 -736Q553 -733 562 -731Q574 -732 592 -718Q610 -711 620 -688Q620 -668 611 -637Q599 -607 583 -578Q593 -576 602 -580Q616 -582 625 -588Q637 -588 648 -589Q664 -590 684 -587Q693 -586 708 -575Q720 -568 716 -551Q718 -537 707 -534Q706 -524 698 -527Q650 -518 637 -516Q620 -515 604 -511Q580 -507 558 -502Q541 -502 528 -493Q517 -477 506 -461Q503 -452 494 -441Q482 -427 481 -420Q479 -415 470 -405Q459 -392 457 -385Q454 -382 455 -381Q461 -379 464 -385Q466 -390 471 -390Q475 -390 479 -386Q484 -384 494 -385Q508 -386 513 -383Q520 -382 524 -377Q527 -371 533 -366Q536 -361 535 -348Q534 -338 537 -333Q537 -307 524 -301Q511 -282 494 -265Q486 -261 479 -245Q472 -230 463 -225Q454 -205 444 -185Q443 -184 433 -164Q427 -148 420 -133Q409 -110 410 -85Q406 -65 421 -47Q433 -31 454 -23Q486 -8 495 -7Q503 -6 522 -2Q549 1 576 3Q587 2 621 4Q654 6 676 3Q691 1 705 -1Q731 -3 757 -5Q777 -7 797 -9Q824 -7 836 -20Q840 -31 833 -66Q833 -70 834 -71Q839 -68 845 -62Q847 -54 863 -41Q869 -35 873 -29Q877 -23 885 -20Q893 -6 902 -4Q914 -3 920 12Q926 27 914 33Q906 50 889 52Q869 51 849 50Q817 53 778 51Q769 52 759 53Q740 53 721 52Q707 56 689 56Q685 55 678 57Q669 60 665 57Q637 55 613 56Q608 54 595 55Q582 56 576 52Q560 53 531 49Q520 49 472 39Q442 30 435 26Q419 18 404 11Q398 5 389 -2Q376 -11 373 -16Q353 -37 344 -60Q342 -70 338 -81Q335 -93 338 -104Q331 -121 335 -139Q335 -152 338 -162Q339 -164 340 -166L342 -176Q343 -178 344 -180Q344 -192 352 -203Q358 -220 379 -252Q399 -287 405 -294Q409 -300 408 -305Q407 -307 405 -306Q378 -301 326 -283Q317 -279 307 -279Q295 -273 282 -271Q261 -273 258 -275Q221 -279 209 -284Q197 -286 185 -289Q201 -296 219 -300Q239 -308 259 -317L350 -348Q380 -357 410 -366Q420 -373 431 -405Q452 -441 460 -482Q448 -484 436 -481Q417 -478 397 -480Q385 -473 365 -471Q358 -465 358 -447Q358 -432 355 -427Q347 -425 343 -416Q342 -408 335 -410Q330 -411 323 -417Q314 -418 305 -434Q299 -445 293 -450Q292 -459 278 -457Q261 -454 243 -451Q228 -456 203 -461Q192 -465 180 -470Q175 -471 165 -471Q158 -471 157 -474Q155 -479 163 -480Q171 -484 184 -487Q200 -494 220 -498Q244 -502 267 -507Q277 -504 283 -511Q283 -522 283 -533Q283 -550 279 -562Q281 -574 279 -587Q281 -608 279 -630Q281 -640 275 -643Q269 -646 264 -650Q270 -655 280 -659Q286 -663 298 -659Q308 -656 312 -657Q329 -651 335 -648Q341 -643 347 -639Q353 -634 356 -627Q360 -617 360 -607Q363 -596 358 -578Q353 -559 356 -549Q356 -541 355 -534Q353 -527 358 -526Q364 -526 370 -528Q381 -526 393 -529Q404 -533 415 -534Q450 -543 484 -553Q493 -571 497 -586L511 -617Q511 -621 515 -628Q519 -634 518 -638Q524 -658 530 -679Q531 -681 531 -685L534 -699Q535 -702 535 -705Q535 -712 531 -713Q522 -714 512 -713Q514 -714 515 -716L520 -721Q522 -722 523 -724Q531 -733 544 -736Z"/>
</svg>