<svg xmlns="http://www.w3.org/2000/svg" viewBox="0 -800 1024 1024">
	<path fill="#000000" d="M682 -691Q682 -683 678 -676Q671 -677 667 -671Q663 -666 660 -662Q659 -657 650 -657Q645 -657 642 -655Q627 -650 615 -651Q599 -645 584 -646Q577 -640 572 -643Q563 -640 548 -647Q538 -651 532 -651Q525 -654 516 -652Q508 -651 504 -660Q502 -662 502 -663Q508 -665 514 -670Q514 -672 514 -673Q527 -682 545 -680Q549 -685 561 -689Q576 -694 590 -702Q594 -699 603 -701Q613 -703 618 -701L640 -706Q644 -707 645 -702Q651 -698 660 -700Q663 -697 667 -698Q668 -698 668 -695Q676 -693 682 -691ZM321 -631Q337 -624 344 -619Q368 -617 374 -608Q374 -607 387 -592Q386 -586 387 -579Q388 -572 383 -568Q375 -567 375 -560Q375 -553 373 -547Q359 -541 351 -527Q343 -522 340 -514Q337 -505 332 -498Q326 -496 324 -478Q319 -466 307 -458Q295 -450 285 -442Q278 -441 271 -440Q264 -439 264 -431Q284 -409 280 -386Q275 -337 275 -334Q272 -325 282 -323L299 -328Q303 -329 307 -332Q314 -338 319 -337Q323 -333 330 -340Q337 -347 342 -344Q351 -335 365 -339Q376 -339 379 -331Q382 -327 380 -322Q378 -318 377 -313Q378 -303 363 -297Q348 -299 338 -296Q329 -293 312 -297Q299 -298 284 -304Q278 -304 278 -298Q278 -293 278 -289Q277 -275 276 -262Q280 -253 280 -229Q281 -223 277 -220Q273 -216 270 -211Q274 -199 272 -192Q269 -188 271 -182Q273 -177 279 -179Q340 -218 346 -221Q351 -222 360 -229Q360 -230 360 -231Q362 -230 360 -227Q354 -224 357 -215Q360 -207 358 -204Q350 -202 342 -189Q336 -179 330 -176Q311 -157 295 -145Q279 -131 262 -118Q239 -106 219 -86Q215 -86 209 -80Q200 -72 195 -76Q178 -76 172 -80Q155 -82 145 -90Q132 -89 129 -99Q127 -112 123 -122Q125 -127 122 -137Q120 -145 121 -149Q121 -160 125 -157Q129 -159 127 -165Q125 -171 127 -173Q127 -184 134 -212Q146 -240 151 -250Q162 -272 176 -285Q179 -287 183 -293Q188 -300 193 -301Q200 -289 203 -275Q201 -269 202 -255Q203 -243 201 -236Q201 -229 194 -223Q194 -219 190 -211Q185 -201 186 -194Q181 -181 181 -165Q174 -159 174 -144Q174 -131 171 -126Q166 -122 167 -115Q168 -107 176 -108Q201 -123 226 -138Q231 -143 238 -146Q245 -149 247 -156Q245 -161 239 -165Q233 -169 232 -172Q226 -182 219 -191Q212 -200 210 -211Q210 -212 207 -227Q205 -235 213 -240Q220 -252 224 -266Q226 -275 228 -285Q230 -323 235 -353Q237 -372 241 -389Q242 -402 242 -416Q243 -425 236 -433Q229 -441 221 -438Q215 -434 204 -439Q197 -442 192 -442Q187 -440 180 -444Q173 -448 169 -447Q159 -454 148 -462Q143 -471 137 -480Q129 -491 132 -504Q135 -517 137 -528Q144 -549 152 -569Q161 -589 179 -604Q182 -609 186 -613Q191 -618 196 -611Q200 -606 204 -600Q208 -595 216 -596Q238 -611 259 -615Q273 -623 289 -625Q305 -627 321 -631ZM842 52Q829 48 816 43Q800 36 784 28Q782 24 775 23Q770 22 767 20Q729 3 691 -12Q685 -15 668 -19Q647 -24 638 -31Q633 -31 607 -40Q598 -36 588 -27Q585 -30 583 -27Q581 -23 577 -20Q551 -14 550 -13Q545 -9 538 -7Q532 -6 532 -14Q529 -16 529 -17Q532 -18 536 -19Q558 -33 575 -65Q580 -71 596 -100Q595 -104 600 -112Q606 -121 600 -126Q579 -124 534 -114Q513 -111 491 -108Q483 -106 471 -106Q463 -106 454 -106Q435 -110 412 -112Q407 -113 401 -114Q398 -116 398 -117Q400 -119 407 -122Q416 -128 427 -128Q438 -131 450 -131Q468 -137 489 -142Q503 -144 516 -147Q565 -157 613 -168Q619 -192 600 -206Q591 -216 577 -213Q570 -214 561 -211Q552 -207 545 -213Q539 -214 537 -218Q534 -222 531 -225Q529 -229 521 -233Q510 -239 513 -246Q517 -247 519 -251Q521 -256 522 -256Q529 -271 560 -297Q566 -301 570 -311Q573 -319 577 -323Q576 -328 580 -333Q584 -338 583 -340Q573 -340 566 -335Q562 -337 561 -333Q560 -328 559 -324Q553 -329 545 -331Q545 -336 540 -341Q536 -345 536 -347Q515 -355 518 -375Q518 -379 520 -380Q524 -380 528 -380Q530 -382 531 -384L536 -392Q538 -394 539 -396Q562 -414 577 -433Q586 -442 595 -445Q593 -448 596 -454Q599 -458 596 -461Q590 -468 584 -475Q581 -480 577 -484Q573 -489 577 -494Q574 -503 582 -513Q584 -517 583 -526Q581 -537 586 -541Q589 -556 591 -569Q591 -580 604 -570Q614 -568 620 -559Q626 -549 632 -542Q647 -550 661 -559Q667 -562 672 -565Q686 -569 700 -578Q707 -581 742 -592Q762 -600 772 -602Q789 -607 805 -607Q808 -611 815 -611Q823 -612 825 -615Q832 -613 839 -611Q864 -609 869 -604Q869 -600 875 -599Q880 -598 881 -597Q880 -594 882 -589Q884 -584 881 -582Q882 -578 879 -573Q876 -568 879 -565Q876 -551 866 -545Q864 -537 858 -536Q852 -530 848 -523Q843 -516 834 -516Q831 -518 829 -516Q827 -513 825 -514Q825 -515 824 -516Q821 -514 821 -508Q821 -501 816 -500Q812 -508 805 -499Q799 -489 792 -487Q784 -486 779 -481Q777 -477 770 -475Q763 -474 762 -471Q759 -472 753 -468Q747 -464 743 -466Q741 -461 732 -456Q719 -449 717 -443Q716 -437 710 -434Q703 -432 700 -437Q698 -435 697 -436Q698 -438 697 -442Q691 -442 686 -446Q689 -447 692 -453Q696 -460 701 -458Q702 -457 703 -457Q703 -459 709 -459Q712 -462 717 -464Q722 -466 724 -472Q729 -473 734 -481Q739 -489 743 -490L757 -503Q762 -506 767 -516Q771 -524 776 -528Q778 -532 788 -544Q800 -558 803 -569Q799 -573 795 -573Q785 -571 774 -569Q747 -563 718 -552Q711 -548 695 -544Q675 -539 667 -532Q661 -530 654 -523Q647 -516 643 -514Q635 -513 630 -504Q626 -497 627 -488Q624 -474 620 -461Q616 -450 626 -446Q635 -442 639 -435Q642 -428 643 -421Q642 -418 637 -418Q624 -404 610 -391Q602 -388 602 -381Q602 -379 608 -380Q612 -375 615 -378Q619 -381 622 -385Q634 -384 647 -381Q665 -379 670 -377Q678 -373 676 -364Q675 -358 669 -351Q653 -338 645 -320Q642 -319 637 -314Q633 -309 631 -309Q625 -303 617 -298Q610 -293 606 -284Q598 -280 592 -275Q581 -263 569 -251Q572 -244 582 -246Q638 -255 652 -259Q661 -262 669 -266Q675 -273 668 -278Q661 -282 655 -285Q656 -287 654 -288Q649 -291 650 -292Q655 -289 660 -294Q665 -298 669 -297Q680 -295 710 -290Q738 -280 751 -265Q755 -260 751 -256Q748 -253 742 -251Q742 -243 732 -242Q723 -241 719 -238Q687 -232 655 -222Q651 -221 645 -220Q640 -219 641 -215Q659 -205 663 -202Q676 -193 681 -183Q693 -185 701 -188Q735 -191 765 -198Q769 -202 775 -199Q781 -197 783 -198Q800 -197 820 -198Q823 -194 829 -192Q834 -201 844 -197Q847 -188 852 -192Q852 -188 858 -189Q862 -190 863 -187Q867 -188 869 -185Q871 -182 866 -180Q863 -178 864 -177Q867 -174 866 -170Q866 -171 865 -171Q865 -167 860 -167Q854 -171 852 -166Q850 -161 848 -157Q845 -158 841 -156Q837 -154 835 -155Q829 -153 824 -154Q791 -148 753 -149Q744 -151 742 -147Q718 -148 684 -142Q676 -134 673 -124Q660 -122 660 -109Q653 -98 651 -86Q649 -82 647 -77Q646 -72 642 -73Q637 -71 632 -68Q626 -65 627 -58Q633 -56 650 -56Q674 -53 698 -51Q706 -52 716 -47Q728 -44 740 -43Q752 -42 760 -34Q765 -36 771 -31Q777 -27 781 -28Q792 -23 803 -18Q806 -15 813 -14Q820 -13 824 -10Q829 -8 835 -4Q847 4 858 11Q873 16 866 29Q861 38 856 46Q849 49 842 52ZM309 -588Q301 -587 293 -586Q286 -579 277 -573Q269 -568 259 -572Q248 -571 233 -576Q219 -581 213 -581Q202 -585 200 -566Q194 -544 187 -523Q182 -506 182 -486Q184 -461 190 -453Q193 -447 197 -447Q206 -447 213 -459Q218 -468 231 -464Q248 -472 264 -484Q281 -512 297 -540Q306 -555 313 -573Q317 -579 315 -587Q314 -590 309 -588ZM464 -569L468 -568Q483 -561 489 -549Q496 -531 492 -513Q494 -503 488 -482Q485 -469 484 -459Q479 -447 466 -454Q461 -452 460 -458Q459 -463 457 -463Q454 -466 450 -467Q445 -469 448 -474Q440 -487 431 -500Q433 -503 439 -506Q445 -509 448 -513Q445 -530 450 -541Q450 -557 464 -569Z"/>
</svg>