<svg xmlns="http://www.w3.org/2000/svg" viewBox="0 -800 1024 1024">
	<path fill="#000000" d="M223 -580H240Q258 -578 275 -573Q284 -573 290 -556Q302 -548 295 -536Q297 -524 290 -522Q285 -523 278 -518Q271 -514 268 -514Q254 -516 239 -519Q225 -529 211 -530Q207 -533 189 -538Q173 -548 164 -550Q158 -550 154 -555Q151 -558 156 -561Q174 -566 191 -572Q196 -576 208 -577Q219 -578 223 -580ZM825 -573Q833 -573 840 -570Q851 -572 876 -557Q881 -556 883 -551Q885 -546 888 -541Q897 -536 893 -523Q890 -518 896 -510Q902 -502 900 -496Q900 -488 899 -479Q897 -470 902 -462Q902 -450 898 -439Q899 -434 896 -427Q893 -420 893 -416Q899 -405 896 -390Q896 -387 893 -382Q888 -376 891 -372Q894 -367 889 -355Q883 -342 888 -334Q888 -315 882 -300Q877 -295 880 -290Q882 -284 883 -278Q884 -274 881 -264Q878 -257 879 -252Q884 -236 874 -221Q873 -217 876 -211Q880 -204 878 -200Q871 -192 875 -176Q869 -166 874 -158Q870 -153 872 -139Q866 -132 865 -122Q862 -108 855 -95Q854 -90 845 -81Q837 -73 835 -67Q831 -66 825 -60Q817 -52 811 -55Q801 -63 792 -75Q791 -79 784 -85Q777 -91 776 -95Q771 -109 758 -115Q743 -117 739 -127Q737 -130 739 -131Q743 -131 747 -128Q759 -128 772 -126Q786 -124 797 -130Q807 -132 811 -148Q813 -168 817 -186Q820 -200 822 -215Q824 -232 830 -266L832 -278Q833 -281 833 -284Q834 -288 837 -316Q839 -328 840 -340Q840 -363 843 -369Q848 -431 840 -489Q838 -504 835 -519Q834 -531 814 -529Q764 -522 728 -502Q720 -494 710 -495Q700 -497 691 -498Q684 -498 673 -502Q659 -508 652 -505Q647 -504 644 -507Q641 -510 645 -513Q697 -543 720 -551Q727 -554 761 -564Q784 -567 806 -571Q809 -571 811 -572H820Q822 -573 825 -573ZM534 -335Q534 -340 534 -346Q514 -315 505 -308Q459 -263 431 -231Q426 -229 423 -218Q419 -205 411 -204Q402 -212 394 -231Q387 -248 382 -254Q386 -258 388 -274Q390 -286 399 -288Q415 -332 431 -357Q425 -362 409 -368Q389 -375 382 -384Q378 -385 376 -386Q373 -388 374 -389Q375 -390 386 -390Q407 -395 428 -401Q448 -407 471 -408Q486 -414 501 -401Q517 -387 501 -376Q495 -361 465 -360Q443 -359 435 -353Q424 -337 415 -318Q405 -299 415 -283Q447 -302 476 -327Q505 -352 534 -377Q534 -394 531 -414Q531 -440 532 -443Q534 -476 530 -505Q525 -518 513 -512Q492 -510 486 -505Q468 -505 450 -505Q436 -507 421 -510Q417 -512 411 -514Q406 -516 408 -521Q418 -522 452 -538Q456 -540 460 -544Q464 -549 469 -548Q478 -547 487 -554Q492 -558 509 -557Q519 -556 525 -558Q538 -560 550 -555Q557 -551 565 -547Q574 -542 577 -533Q585 -526 585 -507Q591 -489 586 -472Q593 -459 584 -440Q582 -420 585 -399Q579 -358 581 -314Q582 -306 581 -298Q580 -291 584 -283Q584 -275 578 -259Q575 -254 580 -247Q585 -239 584 -234Q586 -224 581 -208Q575 -189 579 -179Q579 -174 578 -169L575 -148Q575 -143 574 -138Q570 -129 567 -117Q565 -106 556 -99Q550 -97 540 -89Q533 -83 529 -81Q525 -83 520 -93Q515 -101 510 -105Q502 -119 490 -131Q480 -139 470 -146Q460 -152 457 -164Q460 -169 471 -158Q486 -149 505 -146Q512 -145 519 -145Q527 -149 528 -157Q527 -163 526 -169Q527 -191 528 -214Q531 -246 533 -279Q534 -290 535 -301Q534 -309 533 -317Q534 -326 534 -335ZM247 -431Q261 -433 272 -426Q278 -426 282 -415Q283 -408 291 -401Q289 -389 286 -377Q272 -365 276 -352Q269 -331 269 -323Q269 -317 267 -308Q263 -293 266 -286Q264 -276 262 -267Q263 -258 258 -228Q251 -211 253 -184Q250 -174 255 -167Q259 -169 263 -175Q267 -183 270 -184Q297 -216 326 -246Q327 -250 333 -255Q339 -260 340 -263Q344 -275 353 -282Q352 -270 351 -259Q345 -248 344 -235Q346 -230 342 -226Q338 -221 335 -217Q336 -209 327 -194Q320 -191 320 -184Q320 -177 319 -171Q312 -156 304 -142Q292 -124 280 -107Q280 -98 275 -91Q270 -84 261 -85Q245 -88 222 -104Q196 -122 194 -136Q192 -140 193 -151Q194 -159 192 -163Q189 -179 194 -193Q194 -219 199 -242Q202 -260 206 -275Q205 -283 211 -298Q215 -308 215 -315Q218 -333 220 -352Q225 -361 216 -365Q198 -361 191 -356Q177 -352 164 -354Q152 -351 143 -358Q126 -360 114 -367Q108 -370 102 -372Q100 -373 103 -377Q107 -377 128 -385Q147 -397 189 -417Q205 -427 224 -428Q236 -429 247 -431ZM690 -401L724 -397Q728 -400 735 -396Q742 -393 746 -397Q758 -397 768 -394Q766 -387 766 -378Q766 -369 758 -367Q749 -355 730 -353Q713 -353 702 -346Q688 -337 688 -322Q683 -314 683 -295Q694 -280 710 -274Q726 -268 741 -258Q748 -264 758 -251Q761 -239 756 -230Q751 -219 738 -219Q732 -216 726 -216Q715 -216 708 -223Q693 -225 679 -247Q669 -263 661 -268Q657 -278 653 -292Q649 -305 658 -316Q665 -339 665 -351L642 -359Q620 -366 626 -374Q650 -380 669 -390Q672 -396 681 -398Q688 -400 690 -401Z"/>
</svg>