<svg xmlns="http://www.w3.org/2000/svg" viewBox="0 -800 1024 1024">
	<path fill="#000000" d="M613 -669L618 -668Q633 -666 647 -665Q653 -665 655 -659Q657 -654 661 -650Q665 -651 667 -646Q669 -641 667 -637Q669 -625 670 -613Q674 -603 673 -592Q669 -583 670 -565Q671 -548 669 -541Q669 -528 668 -516Q670 -506 669 -499Q667 -494 669 -473Q673 -465 681 -467Q688 -470 695 -470Q700 -472 704 -466Q708 -461 711 -460Q715 -462 738 -462Q742 -462 743 -457Q744 -453 745 -449Q744 -446 749 -440Q754 -434 751 -429Q746 -428 737 -420Q731 -414 728 -413Q716 -409 704 -406Q682 -404 673 -400Q669 -399 667 -393Q666 -391 665 -383Q664 -369 662 -356Q658 -347 662 -337Q660 -328 658 -312Q656 -307 660 -302Q664 -297 670 -300Q690 -303 709 -306Q713 -307 736 -310Q747 -314 760 -314Q768 -318 780 -318Q782 -319 789 -320Q798 -321 801 -326Q809 -328 820 -325Q830 -322 840 -320Q856 -326 869 -322Q874 -325 877 -321Q879 -317 882 -312Q887 -310 893 -307Q898 -304 897 -296Q895 -294 894 -287Q893 -278 889 -276Q884 -276 883 -272Q881 -268 879 -264Q878 -258 872 -259Q867 -259 862 -260Q846 -256 817 -265Q804 -262 794 -263Q787 -260 775 -260Q758 -259 752 -256Q730 -256 710 -252Q696 -249 681 -247Q674 -247 667 -247Q659 -248 656 -241Q654 -233 646 -212Q641 -206 646 -200Q650 -195 658 -192Q669 -189 680 -186Q693 -187 715 -171Q739 -156 762 -142Q789 -129 806 -116Q851 -90 898 -67Q902 -62 912 -59Q924 -56 928 -51Q938 -45 945 -35Q954 -30 952 -16Q950 -14 951 -7Q952 1 948 3Q937 3 936 11Q936 16 931 17Q925 19 920 16Q906 26 901 18Q864 0 826 -18Q765 -59 725 -100Q698 -123 673 -158Q668 -164 657 -166Q643 -169 634 -177Q625 -174 621 -160Q617 -143 604 -129Q594 -116 588 -102Q577 -95 568 -87Q558 -83 550 -78Q549 -73 541 -69Q534 -65 532 -60Q528 -55 521 -57Q514 -59 512 -57Q497 -46 479 -43Q474 -42 472 -47Q470 -51 474 -54Q523 -88 551 -141Q558 -149 567 -177Q573 -183 575 -196Q577 -207 579 -210Q579 -213 581 -220Q584 -228 581 -231Q578 -232 557 -232Q547 -228 537 -228Q531 -222 515 -222Q497 -223 480 -225Q467 -225 451 -233Q447 -236 434 -237Q424 -238 419 -242Q435 -250 450 -254Q482 -261 514 -269Q533 -275 555 -278Q560 -280 575 -282Q590 -284 598 -288Q602 -296 602 -305Q603 -314 603 -322Q603 -329 603 -337Q605 -357 606 -378Q606 -384 607 -390Q607 -396 601 -397Q590 -397 578 -398Q571 -398 562 -401Q548 -406 541 -403Q524 -405 524 -413Q527 -417 532 -419Q537 -420 542 -423Q565 -433 590 -438Q592 -440 599 -440Q608 -440 610 -444Q611 -451 611 -459L610 -522Q610 -563 612 -571Q614 -608 606 -640Q595 -654 581 -662Q577 -669 591 -666Q602 -667 613 -669ZM349 -659Q355 -660 367 -654Q386 -654 398 -637Q408 -632 407 -620Q412 -609 411 -593Q405 -586 408 -573Q404 -567 406 -549Q404 -536 401 -524Q402 -519 401 -509Q399 -495 402 -489Q401 -469 399 -449Q393 -438 399 -426Q396 -411 396 -395Q394 -386 391 -377Q397 -361 392 -339Q388 -328 390 -316Q391 -304 392 -291Q389 -286 391 -268Q390 -257 392 -243Q390 -239 392 -223Q393 -219 392 -207Q391 -193 394 -186Q396 -172 392 -156Q391 -135 395 -116Q391 -90 392 -62Q393 -57 389 -49Q385 -42 386 -37Q386 -31 381 -31Q376 -30 372 -30Q363 -23 358 -32Q338 -46 332 -66Q330 -70 322 -72Q315 -74 313 -78Q313 -91 305 -100Q289 -119 286 -127Q285 -130 283 -134Q298 -117 317 -111Q322 -111 326 -114Q332 -125 332 -138Q331 -150 333 -162Q334 -166 331 -174Q328 -182 332 -187Q336 -191 335 -200Q335 -208 336 -210Q333 -251 336 -291Q339 -303 332 -307Q324 -302 306 -277Q296 -274 300 -263Q304 -256 290 -248Q279 -232 263 -232Q239 -248 234 -271Q226 -285 231 -300Q238 -317 244 -319Q250 -326 254 -344Q257 -358 261 -364Q261 -366 267 -390Q270 -398 266 -411Q263 -415 262 -425Q261 -437 255 -440Q245 -440 244 -444Q243 -451 240 -457Q240 -459 245 -459Q255 -465 267 -461Q279 -462 291 -463Q302 -467 316 -463Q329 -466 331 -452Q330 -446 332 -442Q334 -440 337 -443Q345 -470 348 -507Q350 -534 352 -562Q354 -585 355 -608Q354 -614 348 -614Q344 -614 341 -609Q328 -602 314 -596Q298 -594 287 -583Q283 -580 277 -580Q270 -580 256 -587Q246 -590 235 -593Q219 -593 218 -601Q222 -607 233 -611Q254 -623 275 -635Q280 -643 287 -639Q291 -637 297 -642Q302 -646 305 -646Q323 -654 349 -659ZM197 -608Q212 -603 211 -592Q217 -577 215 -560Q216 -553 221 -544Q223 -539 220 -529Q218 -521 218 -516Q220 -505 221 -495Q221 -479 224 -461Q220 -443 227 -430Q225 -414 228 -408Q225 -402 227 -382Q226 -365 225 -349Q223 -334 221 -319Q217 -312 218 -304Q219 -296 218 -288Q216 -274 214 -260Q210 -257 210 -248Q210 -238 205 -236Q198 -232 199 -226Q200 -221 201 -214Q194 -207 192 -190Q186 -183 183 -168Q180 -153 177 -148Q167 -138 164 -127Q161 -117 162 -105Q157 -102 151 -92Q146 -84 141 -81Q137 -75 129 -78Q122 -81 119 -87Q117 -94 111 -101Q102 -112 102 -118Q96 -126 106 -136Q109 -139 109 -146Q109 -155 115 -156Q121 -152 128 -162Q130 -181 133 -185Q138 -195 136 -211Q144 -220 149 -231Q146 -237 151 -251Q155 -256 153 -268Q152 -277 153 -280Q155 -283 160 -300Q162 -315 164 -330Q167 -344 169 -358Q171 -377 173 -397Q177 -429 181 -462Q181 -470 181 -479Q181 -502 182 -504Q178 -514 180 -528Q182 -535 179 -545Q176 -558 178 -564Q178 -574 178 -585Q182 -588 186 -596Q191 -606 197 -608ZM332 -430Q327 -427 327 -423Q320 -411 310 -401Q297 -385 296 -370Q288 -356 294 -340Q301 -340 311 -351Q321 -361 328 -362Q337 -366 337 -375Q337 -384 337 -393Q335 -398 337 -409Q339 -417 337 -422Q337 -425 336 -428Q334 -431 332 -430Z"/>
</svg>