<svg xmlns="http://www.w3.org/2000/svg" viewBox="0 -800 1024 1024">
	<path fill="#000000" d="M556 -656L567 -653Q600 -657 618 -646Q627 -630 626 -618Q632 -615 633 -611Q634 -608 629 -605Q626 -595 626 -570Q611 -555 602 -533Q600 -522 587 -503Q578 -490 575 -482Q572 -477 575 -475Q583 -474 588 -476Q590 -480 596 -477Q600 -475 602 -476Q623 -485 632 -482Q636 -484 645 -483Q655 -482 662 -485Q688 -484 713 -484Q727 -481 736 -472Q750 -472 755 -471Q765 -469 768 -460Q773 -462 774 -457Q775 -451 776 -451Q778 -441 783 -432Q788 -423 782 -414Q776 -411 778 -402Q780 -394 775 -391Q775 -386 769 -381Q762 -376 764 -371Q754 -360 746 -350Q735 -334 723 -318Q720 -313 711 -311Q704 -310 700 -306Q701 -301 707 -301Q712 -301 716 -300Q741 -305 756 -299Q758 -299 758 -298Q755 -295 757 -292Q761 -291 761 -290Q760 -288 759 -284Q763 -260 749 -252Q730 -237 706 -241Q695 -240 683 -240Q665 -243 641 -241Q633 -243 624 -240Q612 -237 600 -238Q595 -233 599 -230Q608 -227 615 -223Q624 -220 629 -211Q631 -193 626 -177Q621 -162 616 -148Q606 -144 606 -135Q604 -128 601 -119Q597 -111 603 -104Q623 -102 641 -104Q652 -103 662 -103Q683 -103 701 -95Q715 -91 728 -91Q733 -93 734 -89Q735 -86 737 -84Q738 -82 741 -84Q749 -70 743 -65Q739 -67 736 -62Q733 -57 731 -55Q728 -55 725 -48Q722 -41 717 -41Q710 -46 701 -37Q697 -39 689 -37Q678 -35 675 -38Q667 -37 659 -37Q653 -39 636 -40Q622 -40 614 -44Q610 -43 603 -44Q593 -46 588 -43Q580 -46 568 -45Q554 -44 547 -47Q535 -44 515 -45Q492 -46 483 -44Q448 -41 415 -43Q412 -42 404 -44Q395 -46 391 -43Q376 -43 332 -55Q329 -58 326 -58Q320 -57 314 -53Q308 -48 301 -52Q282 -62 263 -73Q248 -81 241 -95Q233 -109 227 -122Q220 -128 220 -137Q220 -147 217 -156Q210 -167 210 -182Q206 -194 208 -206Q210 -219 210 -233Q220 -273 225 -313Q230 -362 231 -364Q240 -399 245 -433Q244 -444 252 -466Q258 -483 259 -495Q264 -516 269 -537Q268 -556 276 -572Q284 -588 292 -603Q293 -610 299 -613Q301 -614 310 -615Q321 -615 328 -611Q342 -598 352 -561Q358 -537 345 -529Q344 -514 336 -491Q325 -459 326 -442Q329 -435 324 -420Q321 -409 321 -402Q319 -395 314 -354Q307 -347 307 -326Q303 -297 298 -268Q298 -245 298 -223Q293 -216 296 -205Q301 -165 299 -150Q295 -142 306 -131Q317 -120 314 -113Q316 -103 317 -94Q322 -88 341 -81Q439 -90 466 -91Q473 -95 490 -95Q509 -95 514 -105Q515 -112 522 -122Q528 -131 529 -135Q542 -166 551 -198Q557 -218 535 -230Q528 -232 512 -229Q502 -227 496 -227Q456 -222 445 -222Q426 -222 402 -230Q374 -239 364 -252Q360 -256 362 -258Q364 -261 369 -257Q383 -258 396 -259Q431 -263 464 -271Q475 -272 486 -273Q491 -276 505 -277Q522 -279 529 -284Q577 -288 608 -294Q623 -292 630 -302Q638 -313 644 -321Q672 -367 699 -414Q705 -421 700 -424Q692 -427 683 -427Q665 -427 644 -429Q632 -423 620 -421Q603 -422 575 -414Q574 -411 568 -412Q564 -413 561 -411Q544 -408 527 -406Q512 -401 496 -398Q481 -395 467 -396Q454 -401 438 -405Q410 -414 406 -427Q404 -432 407 -433Q411 -433 415 -433Q437 -437 459 -442Q473 -449 486 -451Q493 -453 503 -455Q513 -458 511 -469Q507 -489 519 -505Q531 -521 541 -537Q541 -546 548 -561Q558 -582 553 -593Q549 -594 537 -594Q525 -594 518 -598Q514 -598 510 -602Q504 -608 499 -603Q482 -613 467 -615Q461 -613 458 -619Q457 -621 456 -630Q464 -634 472 -634Q493 -643 514 -648Q520 -651 556 -656Z"/>
</svg>