<svg xmlns="http://www.w3.org/2000/svg" viewBox="0 -800 1024 1024">
	<path fill="#000000" d="M479 -731Q493 -731 500 -724Q514 -715 509 -707Q512 -695 497 -695Q486 -686 462 -684Q458 -681 446 -682Q435 -682 430 -679Q399 -675 366 -684Q351 -684 338 -691Q333 -692 325 -691Q318 -690 318 -698Q318 -704 321 -704Q327 -704 334 -703Q339 -703 340 -707Q354 -710 356 -710Q384 -715 411 -721Q414 -720 421 -724Q430 -729 434 -723Q457 -727 479 -731ZM644 -646L703 -644Q707 -642 716 -642Q727 -642 731 -639Q735 -640 740 -636Q745 -632 750 -633Q759 -631 766 -623Q773 -615 780 -610Q791 -604 793 -587Q799 -572 802 -569Q806 -562 802 -549Q799 -538 799 -534Q795 -526 791 -518Q793 -511 787 -501Q782 -493 782 -490Q778 -486 762 -474Q758 -459 743 -464L716 -437Q714 -433 707 -431Q702 -430 700 -427Q692 -411 681 -418Q679 -414 677 -410Q675 -406 671 -409Q668 -408 662 -400Q654 -390 647 -390Q639 -378 622 -383Q615 -383 584 -398Q573 -394 561 -390Q539 -386 516 -382Q498 -381 479 -383Q477 -382 472 -383Q467 -385 465 -382Q443 -378 420 -374Q416 -371 406 -371Q394 -371 390 -367Q373 -368 356 -367Q343 -368 329 -370Q317 -377 307 -377Q301 -377 296 -374Q291 -368 285 -369Q276 -366 267 -364L234 -385Q213 -391 198 -405Q166 -443 179 -491Q180 -502 195 -521Q207 -536 209 -547Q210 -551 215 -554Q221 -557 222 -561Q226 -564 228 -573Q230 -581 234 -584Q241 -589 252 -592Q261 -593 273 -591Q274 -583 285 -578Q294 -574 296 -571Q299 -566 303 -568Q307 -569 312 -570Q347 -582 385 -592Q392 -604 393 -617Q404 -613 414 -610Q424 -608 433 -606Q438 -606 441 -610Q454 -622 486 -628Q494 -628 500 -632Q508 -625 517 -624Q609 -639 644 -646ZM668 -612Q619 -604 569 -597Q556 -600 550 -590Q544 -581 549 -570Q546 -553 536 -528Q531 -517 526 -507Q523 -503 521 -490Q519 -478 514 -473Q507 -468 506 -460Q505 -452 502 -444Q503 -442 501 -440Q495 -434 500 -431Q513 -434 529 -432Q534 -430 542 -433Q549 -435 553 -434Q562 -423 579 -421Q585 -423 608 -418Q625 -416 634 -423Q634 -428 643 -433Q651 -437 653 -441Q658 -442 666 -452Q671 -459 675 -461Q690 -477 706 -491Q722 -504 733 -522Q753 -547 749 -576Q734 -606 718 -609Q702 -613 686 -612Q677 -612 668 -612ZM476 -577Q457 -572 437 -568Q430 -566 429 -554Q428 -544 425 -541Q427 -534 423 -522Q420 -511 421 -505Q418 -500 419 -492Q420 -481 415 -478Q412 -467 412 -454Q412 -451 410 -449Q408 -447 405 -450Q398 -443 392 -443Q387 -438 384 -441Q381 -445 378 -450Q373 -458 367 -466Q360 -474 361 -484Q361 -489 359 -494Q357 -499 361 -504Q366 -526 371 -549Q371 -557 366 -556Q360 -556 356 -554Q344 -550 320 -555Q304 -558 294 -558Q286 -559 281 -553Q272 -542 271 -542Q264 -538 253 -519Q249 -517 246 -507Q245 -502 242 -498Q237 -468 241 -459Q242 -450 240 -442Q238 -434 243 -429Q252 -422 259 -413Q266 -403 273 -395Q280 -385 293 -385Q302 -385 312 -390Q357 -397 401 -408Q428 -418 450 -422Q457 -419 459 -426Q461 -432 453 -433Q449 -426 443 -431Q444 -435 453 -454Q457 -467 460 -480Q471 -509 482 -538Q481 -544 485 -551Q490 -561 489 -567Q491 -573 487 -576Q483 -580 476 -577ZM635 -366Q672 -364 674 -341Q686 -323 686 -301Q687 -293 687 -285Q688 -253 680 -227Q681 -223 679 -217Q676 -209 678 -206Q676 -188 667 -175Q668 -169 661 -147Q663 -141 660 -138Q657 -136 654 -133Q654 -122 653 -111Q649 -101 647 -92Q644 -82 637 -76Q631 -75 623 -62Q621 -57 614 -58Q607 -59 604 -56Q602 -58 600 -64Q599 -70 593 -71Q590 -77 583 -78Q579 -84 575 -81Q570 -77 565 -77Q562 -75 560 -72Q555 -65 551 -63Q551 -56 545 -55Q539 -54 534 -52Q530 -53 526 -49Q522 -45 527 -42L597 -38Q611 -37 625 -37L643 -33Q660 -33 675 -28Q681 -30 690 -26Q698 -22 702 -23Q714 -21 728 -18Q741 -15 751 -6Q754 -8 759 -5Q765 -2 768 -2Q782 3 782 12Q794 23 783 36Q778 48 760 43Q749 46 739 41Q729 35 718 33Q713 31 707 30Q701 29 696 23Q690 25 674 20Q661 17 648 13Q646 13 606 2Q593 0 579 -2Q556 -13 535 -17Q524 -21 513 -25Q502 -30 490 -27Q480 -19 471 -9Q463 -4 456 -6Q445 1 433 6Q430 3 424 7Q419 10 416 8Q441 -15 466 -38Q468 -42 477 -49Q484 -54 486 -59Q492 -72 499 -84Q499 -90 504 -95Q508 -100 509 -102Q514 -109 507 -113Q497 -119 496 -121Q497 -122 499 -122L507 -123Q509 -123 510 -124Q518 -126 530 -121Q539 -117 545 -117Q560 -115 570 -111Q573 -111 581 -104Q587 -99 590 -105Q603 -119 609 -137Q615 -198 635 -264Q635 -302 628 -318Q627 -326 618 -326Q611 -326 603 -322Q590 -319 576 -317Q565 -311 553 -306Q543 -306 535 -304Q500 -307 493 -305Q487 -306 485 -299Q483 -292 482 -286Q479 -281 478 -264Q477 -243 468 -235Q469 -225 467 -214Q461 -200 465 -190Q460 -188 458 -184Q457 -179 456 -176Q454 -158 455 -149Q463 -137 456 -126Q455 -112 450 -101Q453 -96 450 -86Q444 -87 442 -81Q439 -73 437 -72Q427 -67 421 -75Q415 -83 410 -89Q399 -96 390 -107Q387 -113 383 -117Q382 -119 386 -120Q394 -126 394 -134Q394 -143 397 -152Q409 -170 401 -192Q409 -217 416 -242Q423 -265 435 -290Q441 -307 462 -333Q472 -353 481 -346Q489 -342 491 -329Q491 -325 493 -325Q497 -326 502 -329Q530 -345 559 -355Q585 -362 614 -363Q617 -365 624 -364Q631 -362 635 -366Z"/>
</svg>