<svg xmlns="http://www.w3.org/2000/svg" viewBox="0 -800 1024 1024">
	<path fill="#000000" d="M654 -412Q659 -417 660 -419Q677 -436 694 -454Q730 -494 732 -496Q748 -527 749 -534Q744 -541 753 -547Q760 -554 768 -551Q787 -548 805 -545Q807 -542 815 -541Q820 -540 819 -534Q823 -524 817 -517Q812 -511 807 -504Q807 -493 792 -478Q778 -478 778 -463Q766 -448 774 -446Q785 -444 795 -445Q810 -446 824 -447Q835 -449 847 -445Q848 -443 854 -437Q861 -430 860 -424Q858 -418 855 -412Q850 -404 842 -403Q834 -402 826 -401Q779 -396 737 -383Q732 -380 723 -379Q710 -377 706 -372Q696 -362 685 -353Q682 -345 675 -341Q668 -337 662 -332Q657 -330 649 -321Q641 -312 636 -310Q620 -297 614 -283Q608 -276 614 -262Q618 -256 623 -260Q629 -264 634 -265Q659 -280 691 -293Q712 -302 735 -306Q741 -309 753 -306Q762 -304 767 -304Q779 -307 789 -300Q798 -293 808 -287Q815 -279 819 -269Q820 -265 823 -261Q829 -253 829 -248Q837 -238 835 -229Q832 -223 835 -218Q839 -214 840 -208Q837 -203 838 -192Q839 -179 835 -174Q828 -163 833 -150Q833 -145 830 -134Q826 -120 828 -111Q826 -107 824 -93Q826 -77 822 -45Q823 -38 813 -9Q809 -6 808 3Q807 11 803 15Q791 20 787 30Q777 32 771 26Q764 21 757 16Q752 14 746 6Q742 1 739 -1Q734 -3 728 2Q724 6 721 6Q712 3 703 7Q672 2 663 6Q643 5 622 3Q608 3 597 6Q591 -1 584 -3Q577 -5 566 -16Q558 -24 553 -26Q535 -48 536 -65Q540 -69 540 -79Q540 -88 541 -90Q545 -104 548 -118Q547 -136 561 -186Q567 -210 569 -222Q570 -230 574 -238Q578 -246 573 -253Q565 -249 542 -226Q530 -216 518 -207Q491 -179 464 -151Q456 -148 445 -134Q435 -121 427 -118Q421 -115 412 -102Q401 -92 387 -89Q383 -91 378 -101Q374 -109 369 -111Q360 -121 374 -125Q382 -136 394 -145Q401 -151 407 -157L432 -180Q437 -184 445 -192Q449 -194 454 -201Q460 -209 464 -211Q477 -229 483 -232Q485 -235 492 -240Q501 -245 501 -252Q503 -256 509 -259Q516 -263 517 -267Q525 -275 533 -284L568 -317Q576 -325 584 -334Q588 -339 593 -343Q599 -348 597 -353Q592 -357 583 -352Q576 -348 572 -349Q566 -352 559 -348Q553 -345 550 -345Q535 -345 522 -338Q505 -338 491 -332Q486 -329 474 -329Q461 -329 457 -326Q448 -326 439 -319Q423 -319 409 -314Q395 -317 381 -320Q367 -324 355 -328Q352 -329 349 -331Q346 -333 347 -335Q361 -338 374 -341Q411 -351 447 -362Q450 -362 484 -371Q498 -374 512 -377Q527 -380 539 -389Q542 -405 548 -419Q556 -446 556 -474Q556 -483 549 -483Q542 -483 537 -483Q527 -488 506 -490Q488 -495 470 -501Q467 -505 471 -507Q473 -508 479 -509Q493 -514 556 -531Q568 -533 568 -559Q569 -575 570 -591Q569 -602 574 -616Q575 -628 572 -636Q570 -640 571 -648Q572 -654 570 -658Q573 -674 571 -691Q570 -701 568 -711Q568 -721 562 -728Q555 -735 550 -742Q541 -750 534 -753Q534 -762 542 -762Q549 -763 555 -764H560Q576 -767 591 -757Q598 -757 605 -757Q611 -758 615 -745Q615 -740 621 -736Q628 -731 629 -727Q627 -719 633 -701Q631 -676 627 -624Q625 -620 623 -596Q625 -578 620 -566Q617 -561 626 -555Q648 -558 649 -558Q655 -558 661 -560Q667 -563 672 -557Q670 -543 679 -541Q684 -543 686 -539Q689 -535 685 -531Q683 -519 670 -513Q652 -512 631 -503Q618 -506 614 -491Q614 -487 610 -477Q605 -465 607 -456Q606 -439 601 -424Q595 -413 600 -402Q615 -404 629 -407Q642 -409 654 -412ZM269 -609Q282 -609 288 -607Q296 -608 317 -595Q323 -593 323 -586Q322 -580 323 -574Q326 -569 317 -564Q309 -560 309 -555Q304 -550 297 -550Q291 -551 285 -549Q273 -550 261 -552Q245 -558 228 -559Q216 -566 207 -566Q175 -580 169 -584Q164 -588 158 -590Q155 -592 159 -596Q184 -600 208 -604Q215 -607 248 -607Q259 -608 269 -609ZM229 -449L243 -447Q264 -449 273 -438Q274 -434 279 -429Q285 -424 286 -422Q285 -408 286 -395Q284 -375 277 -357Q276 -341 275 -326Q275 -316 273 -305Q272 -286 269 -267Q264 -242 268 -233Q261 -212 261 -205Q257 -202 259 -199Q262 -196 266 -198Q290 -225 315 -251Q326 -265 333 -279Q342 -291 350 -303Q353 -310 355 -310Q356 -310 356 -307Q342 -279 340 -262Q337 -241 330 -222Q328 -215 315 -197Q316 -188 306 -174Q298 -163 297 -157Q292 -151 287 -141Q278 -124 271 -119Q266 -102 258 -99Q234 -106 230 -111Q211 -125 198 -143Q189 -161 193 -176Q200 -193 198 -198Q201 -217 204 -237Q203 -247 207 -261Q205 -277 211 -283L215 -319Q218 -333 221 -347Q223 -362 224 -378Q227 -387 222 -393Q204 -389 194 -383Q186 -377 177 -380Q168 -383 160 -382Q147 -387 134 -387Q132 -389 123 -390Q117 -391 118 -396Q129 -402 140 -409Q170 -430 205 -443Q217 -446 229 -449ZM748 -270H738Q733 -268 728 -267Q717 -266 714 -262Q703 -261 694 -256Q686 -251 676 -247Q669 -248 655 -243Q640 -238 632 -240Q627 -243 624 -238Q621 -233 623 -228Q617 -213 616 -195Q617 -191 615 -185Q612 -176 614 -171Q615 -163 623 -164Q631 -165 638 -164Q659 -163 680 -162Q693 -159 705 -157Q711 -156 713 -151Q715 -145 719 -140Q718 -135 720 -129Q721 -123 716 -120Q711 -121 703 -119Q693 -117 689 -118Q683 -124 659 -131Q633 -143 621 -144Q613 -147 611 -139Q609 -132 610 -123Q608 -115 606 -99Q603 -71 609 -44Q605 -35 616 -31Q617 -32 620 -32L628 -33Q630 -33 632 -34Q636 -34 639 -34L654 -36Q658 -36 661 -36Q677 -39 695 -37Q714 -33 732 -29Q754 -31 759 -37Q769 -56 772 -83Q775 -104 781 -123Q783 -160 784 -198Q781 -226 773 -254Q762 -276 748 -270Z"/>
</svg>