<svg xmlns="http://www.w3.org/2000/svg" viewBox="0 -800 1024 1024">
	<path fill="#000000" d="M553 -751Q565 -751 574 -748Q587 -746 596 -743Q626 -728 627 -703Q623 -695 623 -686Q623 -683 629 -683Q639 -681 649 -679Q653 -676 655 -668Q656 -661 659 -660Q665 -658 663 -654Q660 -650 657 -646Q656 -632 640 -629Q628 -627 610 -631Q597 -628 586 -623L567 -605Q561 -600 557 -597Q554 -593 552 -588Q549 -582 545 -584Q537 -582 534 -575Q531 -567 526 -563Q523 -562 507 -553Q499 -551 500 -543Q500 -539 507 -540Q512 -539 523 -540Q535 -542 540 -539Q543 -539 545 -539L554 -537Q556 -537 558 -537Q559 -532 563 -527Q566 -522 563 -517Q568 -509 559 -504Q548 -496 546 -497Q542 -494 532 -492Q521 -490 516 -485Q499 -485 491 -468Q491 -448 484 -432Q491 -427 511 -427Q517 -426 523 -425Q527 -425 530 -426Q543 -413 541 -404Q545 -399 542 -396Q538 -393 536 -389Q533 -389 528 -383Q526 -380 522 -378Q496 -371 469 -365Q469 -362 463 -359Q457 -356 459 -351Q449 -329 439 -308Q444 -302 447 -305L490 -314Q499 -316 510 -316Q534 -322 560 -326Q583 -327 606 -333Q626 -338 640 -341Q649 -343 659 -343Q668 -344 674 -351Q683 -347 693 -351Q701 -348 711 -349Q722 -347 734 -346Q746 -345 755 -335Q759 -332 759 -323Q759 -314 752 -314Q749 -317 743 -311Q739 -310 738 -303Q737 -297 733 -295Q723 -292 711 -297Q684 -297 658 -292Q656 -291 650 -293Q643 -295 639 -292Q636 -289 626 -290Q617 -291 614 -287Q620 -281 628 -281Q636 -282 642 -280Q687 -276 703 -268Q711 -266 718 -265Q735 -262 751 -256Q778 -247 802 -235Q814 -226 826 -217Q839 -207 836 -195Q827 -200 824 -190Q819 -191 814 -187Q809 -183 808 -183Q805 -176 794 -178Q792 -176 787 -179Q783 -181 782 -179Q757 -187 734 -199Q727 -200 720 -204L710 -207Q703 -211 696 -212Q683 -220 669 -223Q649 -231 627 -236Q614 -237 590 -250Q572 -256 562 -269Q551 -283 541 -279Q537 -280 530 -277Q519 -275 508 -274Q504 -271 495 -271Q489 -271 485 -269Q483 -270 477 -268Q471 -266 469 -269Q464 -265 449 -265Q439 -265 434 -263Q426 -263 419 -257Q413 -251 412 -243Q403 -232 388 -201Q379 -182 366 -164Q360 -162 356 -153Q353 -146 349 -143Q348 -140 346 -137L337 -125Q336 -122 334 -119Q330 -118 325 -110Q319 -100 313 -100Q294 -82 272 -69Q264 -62 250 -56Q243 -58 239 -53Q235 -48 230 -44Q228 -43 226 -43Q222 -44 223 -50Q224 -61 232 -59Q283 -108 300 -137Q330 -180 347 -227Q350 -234 354 -243Q355 -247 347 -247Q334 -243 317 -243Q304 -242 292 -239Q265 -235 240 -235Q222 -238 188 -259Q181 -261 183 -269Q184 -277 192 -275Q198 -271 205 -272Q206 -264 213 -265Q219 -265 225 -266Q256 -271 287 -277Q295 -278 302 -279Q323 -283 344 -287Q355 -288 368 -291Q380 -293 383 -307Q389 -326 399 -345Q398 -348 402 -356Q406 -363 404 -368Q395 -372 378 -389Q373 -392 373 -398Q374 -401 378 -399Q379 -407 392 -411Q413 -408 425 -416Q428 -422 429 -430Q429 -433 425 -432Q422 -431 421 -431Q422 -434 432 -443Q438 -458 438 -474Q425 -476 412 -478Q404 -476 387 -491Q380 -495 377 -501Q377 -503 380 -503Q388 -501 402 -506Q412 -509 418 -509Q421 -514 426 -515Q431 -515 435 -517Q441 -518 445 -523Q449 -528 443 -533Q439 -538 432 -544Q426 -550 432 -557Q441 -558 450 -560Q457 -560 461 -557Q464 -557 471 -553Q481 -547 486 -551Q504 -575 517 -607Q523 -612 522 -618Q521 -622 516 -620Q508 -622 488 -620Q472 -618 463 -620Q444 -620 428 -617Q424 -618 421 -610Q419 -605 416 -604Q410 -590 411 -586Q408 -581 405 -576Q402 -571 395 -572Q384 -568 372 -582Q370 -599 367 -602Q367 -611 360 -616Q353 -621 344 -620Q330 -627 324 -627Q311 -632 298 -635Q321 -640 344 -645Q349 -643 359 -647Q370 -646 372 -660Q373 -666 375 -675Q377 -685 372 -691Q364 -697 376 -699Q390 -697 397 -685Q403 -673 411 -663Q414 -658 419 -660Q425 -661 429 -662Q446 -678 463 -697Q480 -717 501 -728Q511 -741 525 -745Q539 -748 553 -751ZM534 -715Q533 -715 530 -711Q527 -707 524 -707Q519 -704 508 -701Q494 -698 489 -693Q474 -682 470 -674Q468 -667 474 -666Q479 -665 484 -668Q500 -670 516 -670Q531 -671 544 -679Q554 -695 553 -715Q545 -718 534 -715ZM546 -225H551Q559 -225 567 -225Q574 -224 576 -213Q578 -205 575 -197Q566 -189 554 -187Q542 -186 530 -184Q525 -184 519 -183Q513 -182 512 -177Q528 -171 540 -162Q553 -151 556 -135Q555 -128 560 -128Q565 -127 571 -128Q592 -129 608 -139Q644 -145 677 -137Q681 -125 675 -106Q669 -101 660 -99Q646 -100 625 -96Q594 -91 563 -86Q555 -73 563 -51Q559 -44 561 -26Q562 -14 560 -6Q555 -3 555 3Q554 8 552 14Q553 22 548 30Q547 35 544 40Q541 45 537 44Q532 45 533 52Q534 58 531 61Q532 65 527 68Q523 72 523 75Q524 84 523 92Q522 97 517 95Q499 84 485 65Q480 64 478 54Q476 46 469 47Q464 46 465 43Q468 39 469 35Q485 33 496 23Q501 9 505 -6Q509 -32 512 -58Q511 -63 512 -69Q514 -79 510 -82Q508 -85 502 -83Q498 -82 496 -83Q491 -82 485 -81Q470 -80 453 -77Q443 -75 433 -74Q420 -76 428 -51Q430 -42 422 -34Q420 -26 417 -18Q429 4 428 19L407 26Q403 13 395 12Q393 8 385 4Q376 0 375 -5Q353 -35 375 -63Q380 -66 379 -71Q378 -75 372 -74Q357 -80 341 -86Q338 -86 338 -87Q342 -87 348 -90Q380 -96 412 -103Q459 -113 508 -121Q516 -120 517 -126Q518 -132 518 -137Q515 -147 512 -157Q492 -177 483 -180Q465 -182 446 -184Q444 -186 431 -188Q448 -191 482 -208Q499 -213 515 -219Q525 -223 546 -225ZM640 -67Q655 -62 667 -55Q675 -52 683 -50Q700 -48 714 -38Q732 -20 730 -9Q728 -6 727 1Q726 10 722 13Q720 12 717 16Q714 21 710 20L700 9Q691 2 688 1Q675 4 670 -13Q655 -31 648 -53Q646 -56 641 -60Q637 -64 640 -67Z"/>
</svg>