<svg xmlns="http://www.w3.org/2000/svg" viewBox="0 -800 1024 1024">
	<path fill="#000000" d="M578 -729L595 -728Q602 -731 611 -718Q616 -717 622 -718Q627 -719 632 -714Q639 -713 644 -707Q646 -704 652 -694Q658 -688 651 -671Q648 -668 646 -656Q646 -652 639 -650Q635 -649 633 -646Q629 -632 621 -619Q604 -603 587 -587Q585 -582 589 -581Q597 -579 602 -583Q617 -586 633 -585Q642 -589 653 -588Q658 -585 664 -584Q670 -582 673 -576Q675 -569 677 -562Q673 -553 664 -556Q659 -557 654 -551Q649 -546 645 -546Q634 -555 627 -544Q603 -542 595 -532Q547 -520 525 -504Q524 -504 506 -495Q497 -493 500 -508Q499 -515 493 -515Q488 -515 483 -511Q472 -511 466 -503Q441 -505 431 -497Q400 -490 368 -484Q361 -481 354 -477Q347 -474 340 -477Q334 -485 326 -484Q318 -484 310 -484Q296 -490 285 -498Q275 -501 278 -507Q311 -513 313 -513Q317 -514 320 -515L333 -518Q339 -520 340 -520Q355 -521 370 -529Q381 -525 402 -533Q407 -533 417 -537Q432 -543 440 -540Q443 -538 448 -541Q453 -544 456 -543Q461 -541 468 -547Q477 -554 483 -552Q490 -551 495 -556Q496 -556 503 -567Q553 -634 568 -676Q579 -693 568 -697Q555 -695 542 -693Q523 -686 503 -681Q487 -679 483 -675Q469 -667 458 -659Q452 -656 434 -641Q422 -636 416 -624Q408 -619 409 -611Q410 -604 411 -596Q409 -585 396 -583Q380 -593 363 -616Q352 -624 356 -642Q359 -652 369 -668Q372 -673 374 -679Q377 -684 383 -685Q401 -678 404 -664Q405 -661 405 -655Q404 -644 408 -641Q416 -644 426 -652Q441 -664 475 -682Q491 -693 508 -702Q548 -721 561 -722Q568 -728 578 -729ZM627 -452Q645 -453 663 -446Q674 -448 680 -431Q685 -426 684 -420Q682 -414 682 -407Q683 -403 679 -399Q675 -395 675 -391Q674 -387 677 -381Q680 -375 679 -371Q667 -345 677 -332Q683 -329 692 -334Q700 -338 703 -338Q713 -337 723 -351Q728 -358 730 -366Q734 -368 741 -363Q747 -359 749 -359Q755 -360 791 -363Q800 -365 807 -356Q813 -358 817 -354Q822 -350 819 -344Q817 -342 815 -332Q813 -324 809 -320Q803 -321 796 -309Q792 -306 781 -305Q771 -304 767 -301Q753 -298 738 -296Q709 -287 700 -285Q691 -284 680 -280Q672 -281 667 -265Q663 -256 663 -244Q659 -237 659 -227Q660 -219 652 -181Q649 -178 652 -175Q655 -172 659 -173Q709 -197 731 -202Q756 -212 783 -218Q786 -221 800 -219Q809 -217 816 -220Q824 -217 833 -220Q840 -214 849 -208Q857 -210 866 -201Q870 -199 870 -193Q870 -184 874 -182Q884 -173 874 -162Q875 -152 867 -134Q863 -130 858 -119Q852 -105 844 -101Q837 -90 831 -78Q828 -74 821 -74Q814 -75 815 -66Q809 -53 794 -34Q788 -31 788 -26Q789 -22 795 -22Q811 -18 827 -8Q841 0 839 8Q839 11 836 11Q833 11 831 13Q826 13 826 18Q827 22 827 26Q824 32 819 30Q814 28 809 27Q792 20 756 14Q749 15 733 13Q720 11 712 12Q702 11 691 10Q671 9 655 4Q653 3 633 -6Q630 -9 632 -12Q634 -15 637 -15Q649 -15 671 -19Q688 -24 707 -25Q736 -32 741 -39Q743 -45 753 -54Q761 -62 764 -68Q769 -78 773 -89Q783 -102 787 -113Q795 -136 802 -159Q808 -175 800 -175Q796 -173 766 -165Q735 -157 734 -156Q724 -158 704 -149Q692 -149 674 -137Q669 -134 660 -137Q653 -140 649 -139Q640 -134 636 -119Q634 -110 628 -103Q623 -95 626 -85Q624 -62 616 -21Q615 -19 614 -12Q613 -2 608 1Q601 8 592 4Q589 2 572 -12Q564 -21 556 -30Q549 -39 551 -50Q556 -66 554 -72Q552 -78 557 -85Q561 -92 561 -96Q558 -109 570 -119Q571 -135 584 -153Q594 -171 601 -189Q608 -216 614 -243Q616 -250 610 -252Q605 -254 602 -249Q584 -245 568 -237Q556 -235 547 -230Q538 -232 526 -224L489 -223Q472 -226 455 -229Q444 -228 435 -225Q422 -210 417 -190Q409 -173 403 -153Q394 -141 384 -129Q375 -117 366 -106Q364 -102 358 -98Q352 -95 357 -89Q402 -71 444 -43Q450 -36 457 -29Q465 -22 469 -13Q463 -12 463 -5Q463 0 466 5Q469 11 462 14Q449 11 435 8Q405 -7 377 -26Q337 -48 312 -57Q300 -55 280 -39Q274 -38 264 -31Q254 -24 247 -23Q240 -24 232 -20Q216 -13 209 -16Q212 -20 221 -26Q229 -31 233 -36Q255 -50 272 -70Q271 -78 265 -80Q259 -82 255 -85Q219 -101 211 -125Q202 -140 213 -146Q220 -153 221 -160Q218 -165 213 -162Q209 -160 205 -159Q193 -153 180 -148Q174 -145 166 -145Q155 -145 143 -151Q126 -155 108 -159Q103 -161 98 -164Q97 -166 100 -168Q105 -170 126 -179Q155 -192 187 -203Q215 -215 246 -225Q255 -237 265 -257Q279 -284 287 -294Q300 -330 309 -368Q315 -391 301 -398Q298 -401 289 -404Q282 -406 278 -411Q287 -417 290 -415Q297 -415 303 -415Q315 -421 323 -415Q351 -411 363 -386Q367 -375 357 -360Q356 -351 354 -342Q350 -330 349 -323Q349 -315 367 -315Q382 -317 391 -315Q402 -312 413 -310Q424 -303 425 -288Q432 -283 431 -275Q430 -267 429 -259Q429 -254 429 -247Q428 -241 435 -240Q440 -243 461 -248Q506 -261 551 -275Q558 -278 564 -281L590 -291Q597 -294 603 -297Q620 -302 622 -310Q624 -322 626 -335Q627 -357 628 -380Q626 -409 622 -421Q613 -432 600 -439Q593 -440 593 -447Q596 -454 602 -451Q607 -448 613 -448Q616 -449 619 -451ZM341 -286Q329 -272 320 -255Q310 -242 318 -237Q330 -239 342 -241Q345 -244 355 -243Q365 -241 369 -246Q379 -265 365 -279Q358 -281 353 -285Q348 -289 341 -286ZM352 -199Q343 -197 334 -196Q317 -190 299 -185Q291 -183 288 -181Q282 -178 283 -172Q279 -157 274 -142Q269 -132 268 -120Q274 -108 302 -97Q309 -94 314 -102Q315 -104 320 -117Q328 -129 335 -141Q347 -165 358 -189Q360 -193 358 -197Q355 -201 352 -199Z"/>
</svg>