<svg xmlns="http://www.w3.org/2000/svg" viewBox="0 -800 1024 1024">
	<path fill="#000000" d="M704 -70Q691 -58 677 -47Q675 -43 671 -42Q667 -41 665 -38Q663 -33 659 -32Q655 -31 651 -28Q648 -24 642 -25Q636 -26 634 -24Q629 -24 627 -18Q625 -12 622 -11Q617 -8 611 -14Q606 -19 602 -19Q600 -22 594 -27Q586 -33 585 -40Q588 -41 591 -44Q592 -46 588 -48Q587 -53 581 -56Q576 -59 575 -60Q577 -65 571 -67Q563 -70 563 -75Q563 -78 562 -79Q560 -81 557 -80Q550 -79 550 -86Q537 -95 524 -105Q520 -110 513 -116Q502 -124 499 -129Q512 -121 525 -113Q526 -110 531 -109Q536 -108 536 -107Q546 -98 557 -100Q565 -81 582 -87Q604 -79 628 -76Q637 -76 643 -82Q651 -90 659 -98Q670 -115 681 -133Q686 -146 691 -162Q695 -179 699 -196Q701 -217 690 -232Q678 -246 644 -242Q632 -239 619 -237Q600 -231 581 -226Q571 -222 561 -219Q542 -216 508 -204Q497 -205 495 -190Q495 -176 494 -162Q492 -153 495 -143Q498 -125 491 -103Q489 -91 493 -83Q491 -68 488 -53Q484 -25 485 3Q478 10 482 22Q477 45 480 56Q483 74 471 93Q472 101 467 106Q463 112 460 118Q458 120 456 122L447 130Q445 132 442 134Q436 137 429 136Q425 136 426 129Q430 117 434 105Q436 95 437 84Q438 59 435 38V-15Q434 -67 431 -118Q432 -123 432 -132L434 -162Q435 -169 435 -176Q435 -182 431 -182Q425 -183 420 -179Q415 -180 401 -175Q392 -171 372 -165Q354 -165 338 -162Q329 -163 306 -171Q280 -180 277 -185Q292 -193 312 -191Q318 -195 349 -202Q355 -205 377 -212Q415 -224 435 -230Q439 -241 437 -245Q437 -250 437 -256L438 -277Q438 -282 438 -288Q436 -291 437 -299Q438 -307 434 -310Q428 -312 417 -310Q407 -308 402 -310Q387 -318 374 -323Q371 -324 367 -326Q363 -328 364 -330Q375 -335 396 -339Q416 -346 436 -353Q444 -356 444 -364Q443 -371 443 -378Q442 -382 443 -391Q445 -402 440 -405Q430 -408 412 -410Q389 -413 379 -417Q367 -420 354 -424Q333 -427 337 -436Q392 -445 408 -450Q411 -453 421 -453Q432 -453 436 -458Q435 -462 429 -465Q423 -468 422 -470Q424 -473 432 -474Q438 -474 440 -476Q443 -480 454 -481Q464 -482 468 -486Q472 -501 479 -521Q486 -541 492 -561Q490 -570 499 -590Q496 -593 484 -588Q473 -584 470 -584Q450 -580 431 -575Q429 -576 428 -572Q428 -564 432 -557Q435 -547 432 -536Q429 -526 422 -517Q406 -515 398 -506Q396 -503 392 -506Q389 -509 390 -512Q386 -517 376 -540Q376 -552 373 -561Q369 -563 357 -557Q340 -551 328 -558Q311 -565 297 -573Q284 -579 238 -581Q229 -581 239 -588Q253 -594 261 -595Q282 -601 309 -608Q336 -615 356 -625Q361 -628 358 -636Q355 -643 358 -647Q359 -657 359 -668Q359 -674 359 -680Q358 -686 364 -688Q375 -683 379 -673Q379 -660 396 -651Q409 -647 421 -643Q435 -654 445 -665Q470 -693 496 -716Q515 -730 524 -733Q528 -737 537 -740Q548 -744 552 -748Q566 -748 568 -746Q574 -749 578 -742Q582 -735 586 -735Q593 -738 597 -733Q602 -727 607 -723Q607 -719 613 -713Q620 -706 619 -700Q616 -695 618 -683Q612 -675 611 -664Q609 -662 615 -658Q618 -659 634 -659Q647 -661 659 -652Q663 -649 661 -642Q659 -635 662 -631Q657 -615 640 -612Q635 -608 622 -608Q612 -608 608 -606Q604 -604 596 -604Q586 -604 583 -602Q570 -589 570 -577Q562 -565 558 -551Q552 -547 551 -540Q550 -533 547 -527Q539 -526 534 -520Q528 -514 523 -509Q507 -500 490 -491Q487 -488 482 -486Q477 -483 477 -478Q481 -471 496 -472Q509 -473 513 -470Q527 -473 543 -470Q556 -472 571 -469Q588 -467 598 -451Q601 -443 595 -438Q589 -434 586 -428Q585 -423 579 -422Q573 -421 569 -423Q553 -420 537 -418Q525 -417 512 -417Q496 -415 494 -408Q494 -391 501 -368Q503 -359 513 -364Q532 -362 542 -358Q551 -353 560 -348Q565 -344 565 -337Q564 -330 565 -323Q565 -319 562 -318Q559 -316 556 -315Q542 -314 530 -309Q509 -307 506 -307Q488 -307 492 -280Q493 -274 492 -266Q490 -259 497 -254Q512 -259 528 -261Q538 -265 549 -266Q553 -270 565 -272Q571 -273 576 -275Q580 -277 585 -277Q590 -277 590 -282Q603 -282 616 -285Q629 -290 670 -290Q686 -287 702 -285Q722 -278 740 -260Q741 -258 754 -234Q760 -229 760 -220Q760 -212 759 -204Q756 -193 758 -179Q751 -170 751 -156Q739 -127 724 -99Q716 -84 704 -70ZM530 -713Q523 -711 515 -710Q501 -710 484 -695Q471 -680 463 -667Q457 -661 454 -652Q451 -645 447 -638Q453 -630 463 -635Q467 -640 488 -642Q492 -645 502 -642Q509 -640 513 -641Q528 -661 533 -677Q538 -687 544 -707Q545 -714 539 -714Q534 -715 530 -713Z"/>
</svg>