<svg xmlns="http://www.w3.org/2000/svg" viewBox="0 -800 1024 1024">
	<path fill="#000000" d="M583 -746Q600 -746 609 -744Q612 -741 621 -741Q631 -741 634 -738Q652 -734 664 -724Q669 -723 673 -713Q672 -709 667 -702Q662 -696 661 -692Q659 -687 653 -690Q649 -692 647 -690Q637 -685 631 -691Q622 -693 600 -703Q556 -726 552 -729Q550 -731 544 -734Q538 -736 537 -740Q547 -743 559 -743Q571 -744 583 -746ZM742 -679Q748 -677 754 -676Q762 -679 768 -673Q774 -667 770 -660Q768 -658 763 -650Q758 -642 753 -639Q750 -636 743 -639Q739 -641 737 -639Q735 -638 732 -638L723 -635Q720 -635 718 -634Q706 -631 693 -628Q681 -629 665 -623Q656 -619 646 -619Q636 -615 627 -615Q619 -613 610 -611Q603 -611 598 -608Q593 -605 573 -603Q563 -601 555 -597Q542 -598 520 -592Q517 -591 511 -594Q505 -597 502 -594Q511 -580 510 -576Q511 -568 501 -544Q500 -536 496 -528Q500 -509 489 -495Q488 -471 482 -448Q478 -441 477 -421Q476 -407 474 -400Q468 -377 461 -354Q454 -349 456 -343Q457 -336 456 -329Q450 -324 450 -318Q449 -311 448 -305Q442 -283 435 -261Q435 -249 430 -234Q419 -221 417 -204Q418 -195 407 -173Q404 -170 401 -155Q402 -151 396 -143Q393 -139 392 -135Q382 -107 351 -70Q347 -65 341 -58Q336 -50 328 -52L312 -87Q307 -97 303 -106Q306 -111 319 -118Q333 -138 344 -161Q358 -198 369 -230Q380 -272 391 -315Q399 -339 407 -364Q412 -373 418 -393Q423 -410 428 -419Q426 -429 435 -447Q437 -452 438 -458Q441 -476 444 -494Q446 -500 447 -507L452 -532Q453 -537 455 -545Q458 -561 461 -577Q461 -588 466 -598Q466 -607 462 -614Q473 -630 483 -620Q489 -617 497 -622Q504 -626 507 -626Q531 -631 554 -637Q571 -642 607 -652Q609 -652 639 -663Q651 -665 662 -667Q674 -666 687 -671Q694 -677 711 -675Q727 -677 742 -679ZM299 -657Q313 -654 325 -650Q343 -650 350 -640Q361 -629 363 -621Q372 -612 365 -600Q368 -590 364 -578Q353 -575 350 -566Q336 -562 338 -542Q344 -534 337 -527Q330 -520 324 -515Q299 -507 292 -501Q291 -494 284 -491Q282 -490 271 -489Q268 -490 260 -490Q252 -490 251 -486Q259 -483 264 -477Q268 -471 273 -467Q276 -445 278 -424Q281 -419 280 -410Q279 -401 282 -397Q292 -401 304 -402Q335 -403 365 -405Q373 -404 372 -396Q371 -389 370 -383Q327 -371 311 -371Q305 -369 295 -374Q286 -378 282 -378Q278 -373 277 -360Q276 -349 273 -344Q278 -340 276 -329Q274 -320 277 -315Q274 -283 270 -251Q269 -246 270 -241Q271 -235 276 -236Q298 -250 307 -258Q309 -261 312 -266Q315 -271 319 -271Q328 -261 329 -252Q329 -246 326 -244Q323 -243 320 -240Q324 -233 312 -226Q311 -221 305 -216Q298 -210 297 -206L258 -170Q235 -151 213 -139Q203 -135 192 -127Q185 -126 179 -124Q139 -123 110 -150Q98 -170 101 -185Q96 -223 110 -250Q105 -255 108 -261Q110 -267 111 -272Q120 -283 128 -305Q130 -312 138 -324Q145 -334 147 -341Q150 -342 153 -347Q156 -352 160 -354Q168 -353 177 -356Q186 -358 190 -350Q204 -341 201 -327Q198 -313 194 -300Q191 -287 185 -276Q181 -248 173 -237Q169 -213 164 -190Q164 -185 161 -179Q159 -173 163 -169Q170 -166 179 -174Q187 -181 191 -181Q195 -184 225 -204Q231 -208 239 -212Q248 -216 243 -223Q235 -223 232 -229Q229 -236 224 -240Q219 -253 212 -267Q205 -281 209 -297Q211 -303 213 -321Q215 -340 220 -351Q220 -364 226 -387Q232 -407 231 -419Q235 -437 231 -463Q233 -484 212 -491Q204 -487 191 -491Q186 -494 182 -490Q179 -487 176 -487Q173 -483 170 -483Q161 -487 151 -491Q127 -523 122 -546Q125 -553 127 -571Q130 -594 136 -604Q138 -605 137 -611Q136 -617 140 -618Q145 -607 151 -623Q154 -626 155 -633Q158 -645 164 -648Q179 -658 185 -650Q188 -647 199 -630Q239 -645 257 -650Q261 -653 284 -653Q294 -653 299 -657ZM296 -618Q268 -610 239 -605Q227 -605 215 -605Q206 -608 193 -610Q180 -602 182 -587Q183 -571 179 -558Q176 -549 173 -537Q171 -526 176 -516Q192 -515 207 -521Q217 -521 229 -528Q244 -534 258 -540Q271 -555 283 -570Q292 -583 299 -600Q304 -605 303 -614Q302 -620 296 -618ZM766 -587H779Q793 -585 805 -587Q807 -583 810 -583Q814 -582 815 -580Q823 -580 831 -574Q838 -572 844 -570Q851 -564 851 -553Q866 -549 867 -535Q873 -519 868 -499Q863 -486 860 -471Q856 -468 846 -447Q822 -418 820 -416Q802 -399 784 -381Q783 -374 778 -370Q774 -366 769 -362Q764 -363 761 -355Q758 -347 755 -346Q748 -340 739 -340Q726 -341 713 -342Q697 -345 692 -343L690 -331Q695 -331 699 -332Q708 -334 711 -332Q712 -332 713 -332L719 -334Q720 -334 721 -334Q729 -334 736 -334Q740 -334 739 -325Q737 -307 731 -304Q725 -297 703 -295Q697 -298 694 -290Q692 -283 697 -280Q720 -284 743 -289Q748 -291 775 -296Q789 -296 792 -293Q794 -286 792 -281Q795 -277 793 -276Q789 -275 785 -274Q783 -259 772 -259Q771 -257 766 -255Q759 -253 761 -248Q776 -243 788 -243Q799 -244 806 -240Q808 -241 817 -239Q846 -234 878 -224Q880 -221 887 -220Q893 -219 895 -216Q897 -211 901 -206Q904 -201 900 -196Q896 -196 896 -190Q896 -185 892 -183Q889 -185 883 -180Q877 -175 873 -177Q869 -180 855 -180Q842 -183 824 -195Q773 -218 763 -224Q755 -226 743 -237Q735 -244 730 -247Q727 -246 724 -247Q720 -249 717 -245Q705 -241 689 -243Q688 -240 684 -241Q680 -242 679 -240Q676 -229 667 -224Q659 -219 651 -212Q647 -212 643 -207Q638 -202 633 -201Q624 -188 613 -180Q609 -172 604 -169Q598 -166 593 -162Q587 -162 579 -153Q573 -146 569 -146Q565 -148 557 -144Q548 -139 544 -144Q539 -141 537 -145Q541 -150 545 -157Q549 -163 556 -167Q570 -186 585 -200Q603 -213 617 -227Q621 -232 617 -235Q614 -237 609 -237Q594 -238 578 -240Q572 -239 572 -243Q572 -248 578 -248Q595 -261 617 -262Q627 -264 636 -268Q641 -266 648 -271Q656 -277 651 -281Q645 -279 637 -281Q636 -282 631 -284Q626 -286 627 -289Q627 -292 626 -292Q621 -290 619 -293Q617 -301 612 -301Q608 -305 616 -301Q621 -304 617 -309Q615 -312 616 -314Q628 -317 636 -316Q645 -319 653 -322Q659 -321 661 -329Q663 -338 660 -343Q653 -345 644 -344Q639 -343 633 -343Q627 -344 622 -339Q619 -336 610 -339Q604 -342 600 -339Q597 -341 588 -338Q571 -345 556 -360Q549 -366 539 -380Q529 -395 524 -399Q524 -401 520 -402Q517 -403 516 -406Q516 -411 515 -416Q515 -422 511 -426Q512 -442 512 -458Q514 -462 519 -490Q530 -511 538 -531Q549 -551 562 -565Q575 -570 586 -553Q588 -549 589 -545Q589 -540 595 -541Q614 -551 644 -561Q672 -568 699 -575Q714 -577 728 -580Q736 -579 748 -583Q752 -586 758 -584Q763 -583 766 -587ZM747 -550Q736 -546 726 -546L710 -541Q702 -539 693 -538Q688 -540 687 -535Q686 -529 690 -528Q693 -525 695 -512Q701 -500 700 -495Q698 -491 699 -480Q700 -470 696 -465Q696 -455 704 -457Q712 -458 715 -451Q716 -434 700 -429Q697 -423 695 -394Q698 -391 696 -385Q695 -380 696 -377Q705 -378 721 -382Q734 -381 745 -385Q757 -390 766 -402Q774 -414 782 -424Q789 -436 798 -448Q806 -460 807 -474Q811 -486 815 -499Q819 -512 813 -524Q808 -541 791 -548Q777 -554 759 -552Q757 -551 747 -550ZM662 -528Q650 -529 637 -525Q621 -516 606 -517Q601 -515 593 -516Q584 -517 579 -504Q574 -484 569 -464Q569 -445 568 -427Q569 -417 570 -415Q572 -408 576 -407Q582 -410 586 -404Q585 -395 599 -386Q606 -378 618 -370Q617 -365 621 -363Q624 -361 629 -363Q646 -368 662 -371Q667 -392 665 -411Q667 -418 663 -423Q658 -429 651 -427Q647 -429 638 -429Q624 -429 619 -434Q628 -445 636 -445Q639 -447 649 -448Q660 -449 662 -453Q662 -479 665 -487Q663 -496 661 -505Q660 -514 654 -520Q655 -524 657 -523Q659 -522 661 -523Q666 -521 666 -527Q666 -532 662 -528ZM694 -209Q708 -209 721 -200Q736 -199 752 -175Q753 -171 749 -162Q746 -156 746 -152Q749 -148 760 -148Q769 -148 773 -144Q783 -136 772 -126Q769 -119 758 -112Q748 -106 744 -99Q743 -88 737 -79Q730 -68 737 -56Q767 -57 797 -59Q802 -63 808 -59Q813 -56 818 -54Q826 -56 836 -53Q840 -56 846 -52Q854 -48 859 -50Q874 -53 879 -37Q884 -27 873 -22Q855 -21 838 -18Q826 -19 813 -17Q785 -19 758 -16Q731 -13 705 -12Q684 -10 662 -12Q654 -10 647 -14Q641 -19 635 -21Q622 -27 614 -34Q615 -39 620 -38Q626 -37 630 -39Q643 -41 656 -44Q662 -47 669 -49Q675 -50 678 -57Q675 -68 680 -77Q685 -86 689 -94Q693 -99 689 -104Q685 -110 680 -106Q672 -107 649 -117Q647 -119 641 -120Q635 -121 635 -124Q653 -131 671 -138Q674 -141 690 -143Q697 -148 698 -157Q698 -174 693 -186Q688 -189 683 -192Q677 -194 680 -200Q679 -205 684 -207Q686 -208 694 -209Z"/>
</svg>