<svg xmlns="http://www.w3.org/2000/svg" viewBox="0 -800 1024 1024">
	<path fill="#000000" d="M487 -720Q493 -722 501 -714Q511 -707 520 -700Q545 -685 541 -670Q541 -665 535 -655Q535 -652 534 -652Q528 -653 521 -653Q492 -641 490 -641Q482 -634 462 -620Q456 -617 447 -610Q432 -598 424 -597Q415 -591 408 -584Q400 -577 390 -576Q369 -560 343 -545Q341 -545 337 -542Q333 -539 330 -542Q323 -538 315 -535Q311 -538 302 -527Q296 -527 295 -523Q294 -519 293 -515Q287 -508 291 -489Q292 -482 299 -467Q307 -451 308 -441Q309 -438 308 -428Q306 -417 310 -410Q334 -419 358 -424Q364 -430 379 -434Q390 -437 396 -441Q439 -458 482 -476Q489 -476 491 -482Q493 -489 495 -495Q495 -497 495 -499V-508Q495 -510 495 -512Q496 -518 492 -521Q488 -524 486 -527Q488 -539 511 -536Q537 -534 547 -526Q553 -527 559 -519Q563 -513 567 -513Q571 -516 578 -514Q582 -513 586 -514Q591 -520 598 -521Q605 -523 612 -526Q621 -531 631 -533Q648 -540 663 -545Q667 -543 671 -546Q675 -549 678 -546Q681 -549 691 -546Q702 -551 713 -556Q723 -556 732 -557Q741 -559 750 -554Q758 -551 757 -543Q757 -535 756 -527Q737 -520 735 -514Q713 -510 706 -506Q690 -501 673 -497Q649 -487 623 -480Q587 -466 550 -452Q530 -448 529 -438Q522 -393 517 -381Q513 -375 519 -365Q525 -359 531 -365Q543 -372 555 -377Q566 -385 616 -410Q624 -417 635 -417Q640 -416 650 -419Q661 -423 667 -421Q682 -421 697 -421Q706 -422 712 -418Q718 -414 725 -412Q732 -408 742 -394Q750 -383 756 -378Q763 -353 762 -345Q768 -339 768 -330Q768 -321 770 -312Q767 -309 771 -304Q775 -298 772 -296Q773 -278 767 -264Q770 -254 763 -245Q756 -226 760 -206Q758 -204 759 -198Q760 -192 756 -190Q758 -177 752 -167Q745 -157 741 -147Q742 -137 739 -128Q733 -98 731 -86Q728 -86 728 -82Q728 -78 725 -77Q718 -54 717 -51Q714 -47 712 -40Q700 -36 705 -26Q734 -21 762 -17Q778 -12 796 -13Q825 4 852 18Q851 23 853 30Q852 31 849 31Q846 31 846 35Q846 36 837 48Q832 50 834 59Q836 69 832 73Q821 67 812 75Q798 74 785 66Q783 69 781 67Q779 63 776 63Q760 56 744 48Q723 40 712 32Q711 32 705 30L693 26Q690 25 686 24Q682 24 675 21Q666 17 662 18Q638 7 610 2Q590 -4 570 -10Q560 -17 550 -17Q545 -19 539 -13Q534 -7 529 -12Q524 -4 516 3Q510 0 505 5Q500 9 496 10Q487 18 476 23Q473 18 468 21Q463 23 462 24Q474 8 480 5Q493 -10 505 -26Q515 -35 526 -50Q543 -73 545 -76Q547 -82 555 -94Q565 -109 566 -117Q574 -128 558 -137Q555 -140 555 -141Q559 -143 565 -142Q574 -139 581 -141Q583 -142 588 -140Q594 -138 597 -141Q608 -135 617 -132Q642 -134 646 -121Q652 -110 644 -101Q636 -92 633 -83Q620 -75 616 -70Q607 -68 603 -62Q599 -56 593 -52Q592 -48 583 -43Q576 -39 575 -35Q589 -24 608 -30Q620 -34 632 -32Q644 -30 655 -30Q659 -31 671 -29Q685 -27 692 -31Q691 -36 682 -44Q677 -49 675 -52Q673 -59 667 -68Q659 -80 658 -87Q655 -91 661 -94Q668 -97 670 -102Q676 -116 681 -130Q685 -134 681 -140Q677 -147 680 -150Q688 -199 696 -249Q704 -296 692 -341Q687 -365 657 -378Q612 -359 600 -350Q594 -343 581 -347Q573 -344 556 -346Q542 -347 535 -346Q532 -351 520 -358Q518 -353 517 -342Q516 -331 513 -326Q514 -321 511 -311Q507 -301 510 -296Q506 -281 497 -238Q498 -234 494 -227Q489 -220 492 -215Q492 -188 483 -165Q480 -151 486 -132Q483 -120 483 -106Q480 -98 481 -87Q483 -82 479 -74Q477 -68 478 -65Q474 -58 477 -45Q480 -32 478 -27Q475 -15 458 -32Q446 -26 437 -47Q438 -54 431 -64Q424 -74 426 -82Q424 -85 426 -90Q429 -97 426 -101Q430 -119 428 -128Q434 -143 436 -161Q434 -164 437 -174Q439 -182 437 -187Q443 -207 448 -228Q448 -235 459 -291Q461 -307 466 -321Q475 -348 477 -377Q483 -397 482 -421Q473 -424 462 -417Q456 -418 451 -413Q448 -410 446 -410Q444 -409 441 -409L431 -405Q429 -404 426 -404Q409 -397 391 -391Q381 -386 366 -385Q359 -381 343 -382Q332 -383 326 -381Q323 -380 318 -383Q315 -385 312 -385Q304 -355 305 -346Q302 -343 302 -332Q304 -328 300 -322Q297 -318 298 -316Q296 -306 293 -296Q294 -273 284 -252Q279 -247 279 -242Q280 -236 279 -231Q276 -227 277 -217Q278 -208 275 -205Q268 -187 266 -175Q258 -157 255 -136Q251 -133 250 -122Q249 -112 245 -108Q246 -105 242 -99Q238 -93 240 -90Q238 -83 238 -76Q237 -68 232 -65Q225 -47 217 -30Q218 -24 214 -24Q208 -25 206 -31Q200 -29 195 -26Q190 -23 187 -31Q182 -39 176 -48Q177 -56 166 -65Q157 -73 156 -79Q147 -88 163 -102Q176 -106 181 -125Q180 -134 185 -146Q190 -157 190 -162Q188 -169 193 -181Q196 -189 196 -195Q204 -226 215 -254Q216 -258 216 -288Q217 -294 221 -301Q225 -307 221 -312Q225 -329 228 -346Q226 -355 227 -360Q232 -388 236 -416Q238 -421 238 -434Q237 -450 241 -456Q238 -474 235 -493Q238 -499 237 -509Q236 -519 237 -523Q236 -529 246 -550Q252 -553 263 -563Q275 -574 284 -576Q287 -578 294 -581Q304 -585 307 -590Q311 -588 316 -596Q322 -605 326 -601Q343 -601 349 -615Q350 -622 366 -633Q375 -644 401 -664Q422 -680 432 -692Q445 -701 451 -714Q454 -718 456 -718Q464 -715 471 -712Q473 -712 476 -716Q482 -716 487 -720Z"/>
</svg>