<svg xmlns="http://www.w3.org/2000/svg" viewBox="0 -800 1024 1024">
	<path fill="#000000" d="M569 -737L592 -735Q596 -737 601 -732Q605 -728 608 -728Q609 -726 637 -708Q646 -702 648 -675L626 -656Q620 -648 614 -641Q608 -640 593 -625Q592 -619 586 -616Q581 -614 576 -611Q572 -607 575 -605Q580 -603 585 -602Q592 -609 607 -603Q614 -604 623 -596Q630 -589 636 -589Q645 -590 653 -592Q658 -592 658 -588Q658 -585 654 -582Q658 -573 662 -564Q665 -561 662 -561Q653 -561 653 -557Q651 -557 649 -553Q646 -548 643 -550Q638 -547 617 -545Q601 -542 585 -539Q581 -541 575 -539Q569 -536 566 -537Q558 -533 545 -531Q519 -527 504 -523Q503 -524 491 -519Q487 -521 478 -517Q473 -514 468 -514Q460 -512 450 -511Q440 -511 433 -505Q415 -503 396 -501Q379 -499 362 -498Q312 -498 288 -515Q280 -517 278 -522Q278 -523 279 -524Q280 -524 281 -524Q284 -526 287 -523Q291 -520 294 -523Q302 -522 307 -527Q312 -533 318 -537Q325 -528 337 -538Q342 -538 363 -546Q373 -546 389 -552Q398 -549 400 -556Q422 -564 443 -572Q455 -574 464 -574Q480 -583 489 -597Q498 -603 507 -609Q504 -621 522 -636Q528 -644 536 -647Q547 -665 562 -680Q564 -684 568 -688Q571 -692 567 -697Q541 -692 514 -682Q483 -675 451 -662Q446 -659 433 -656Q419 -653 413 -648L402 -645Q403 -628 396 -615Q393 -610 390 -606Q390 -604 389 -604Q387 -606 383 -606Q374 -610 365 -615Q363 -616 347 -632Q346 -639 337 -647Q329 -655 327 -659Q331 -665 334 -671Q333 -673 336 -677Q339 -681 337 -684Q340 -687 341 -689L347 -698Q349 -700 351 -702Q359 -710 369 -715L380 -698Q386 -697 388 -694Q389 -690 392 -687Q390 -682 394 -678Q399 -673 405 -675L429 -691Q436 -687 447 -695Q455 -700 459 -700Q493 -718 512 -721Q524 -731 539 -733Q555 -734 569 -737ZM314 -441H317Q332 -439 346 -437Q353 -439 356 -433Q359 -427 364 -422Q370 -420 377 -409Q386 -396 372 -387Q363 -385 363 -370Q356 -366 347 -356Q337 -345 331 -342Q322 -337 318 -330Q314 -322 309 -315Q304 -312 297 -303Q291 -295 287 -292Q280 -283 269 -275Q269 -270 274 -269Q279 -267 284 -264Q294 -265 308 -251Q309 -237 310 -224Q310 -210 309 -196Q311 -191 307 -182Q303 -174 305 -168Q309 -158 308 -144Q308 -128 303 -118Q303 -93 302 -68Q298 -63 302 -48Q300 -44 300 -32Q300 -22 298 -17Q296 -15 296 -7Q295 3 289 4Q283 13 273 3Q263 -7 253 -18Q242 -29 241 -42Q238 -49 242 -63Q244 -72 244 -77Q242 -88 249 -110Q250 -133 256 -175Q259 -191 261 -208Q260 -218 260 -228Q260 -238 252 -244Q243 -247 239 -238Q235 -230 229 -226Q220 -229 217 -216Q212 -210 200 -200Q187 -203 181 -192Q167 -183 153 -174Q152 -184 159 -191Q169 -211 178 -232Q176 -239 185 -247Q192 -253 192 -257Q200 -275 223 -300Q238 -324 269 -353Q273 -364 293 -382Q301 -392 305 -403Q315 -413 306 -421Q304 -427 306 -434Q308 -440 314 -441ZM582 -410H586Q599 -407 611 -405Q619 -396 632 -394Q649 -385 654 -369Q655 -358 656 -347Q680 -347 703 -339Q717 -339 726 -314Q736 -302 742 -288Q742 -270 741 -253Q748 -246 746 -233Q748 -225 744 -211Q741 -200 741 -193Q732 -174 719 -155Q705 -137 697 -116Q688 -107 684 -96Q678 -94 674 -89Q670 -83 676 -79Q703 -71 730 -64Q748 -56 761 -55Q765 -51 778 -49Q790 -47 795 -43Q811 -40 827 -37Q835 -29 850 -26Q861 -22 872 -14Q877 -6 892 2Q902 6 901 20Q900 34 889 35Q883 31 873 36Q866 39 861 39Q835 29 832 28Q812 21 791 13Q785 14 776 8Q767 2 761 4Q746 -5 736 -4Q731 -9 719 -12Q709 -14 705 -18Q704 -18 674 -27Q660 -30 651 -34Q637 -39 625 -42Q621 -39 616 -36L597 -24Q593 -21 588 -18Q570 -12 560 -12Q545 -12 529 -12Q513 -11 508 -25Q516 -34 528 -29Q565 -40 578 -51Q580 -57 574 -59Q569 -62 565 -63Q535 -76 477 -98Q468 -106 458 -107Q458 -112 460 -112Q466 -110 473 -109Q490 -108 508 -109Q526 -110 543 -105Q548 -107 555 -104Q562 -101 564 -102Q576 -102 598 -96Q605 -95 614 -94Q622 -93 627 -101Q634 -118 655 -141Q657 -149 667 -164Q676 -179 679 -188Q692 -219 698 -255Q703 -269 681 -289Q675 -297 667 -298Q660 -300 653 -303Q644 -302 634 -301Q622 -308 612 -321Q597 -333 589 -356Q588 -374 586 -392Q583 -397 580 -402Q577 -407 582 -410ZM372 -276Q376 -275 380 -272Q401 -254 412 -228Q414 -216 416 -205Q415 -182 414 -159Q414 -125 412 -115Q408 -111 409 -102Q410 -94 409 -91Q406 -87 403 -82Q400 -78 395 -77Q383 -84 372 -98Q366 -102 362 -111Q358 -121 354 -123Q348 -126 349 -132Q349 -138 349 -144Q350 -151 350 -159Q347 -166 351 -179Q354 -191 353 -196Q356 -231 370 -264Q373 -271 372 -276Z"/>
</svg>