<svg xmlns="http://www.w3.org/2000/svg" viewBox="0 -800 1024 1024">
	<path fill="#000000" d="M684 -750L693 -747Q707 -748 729 -735Q735 -732 735 -726Q736 -720 738 -715Q743 -708 741 -692Q734 -680 735 -663Q736 -656 732 -645Q728 -634 728 -629Q727 -616 726 -604Q727 -599 738 -602Q752 -610 766 -618Q770 -625 777 -626Q783 -626 790 -626Q798 -626 802 -629Q815 -631 830 -631Q838 -632 846 -627Q853 -622 852 -615Q848 -612 844 -604Q839 -595 834 -591Q831 -587 820 -585Q814 -584 811 -581Q808 -577 798 -576Q791 -575 788 -572Q774 -569 759 -567Q739 -571 736 -573Q730 -573 729 -567Q729 -562 729 -556Q730 -544 728 -530Q727 -517 738 -508Q741 -500 752 -497Q778 -497 785 -492Q788 -492 794 -489Q800 -485 805 -487Q813 -491 823 -479Q842 -476 855 -468Q857 -467 862 -456Q861 -453 864 -450Q867 -447 867 -445Q871 -442 868 -438Q865 -433 860 -434Q836 -431 812 -434Q809 -436 798 -435Q787 -434 783 -438Q777 -444 768 -439Q761 -437 756 -440Q750 -444 745 -447Q740 -447 732 -456Q726 -463 720 -464Q719 -465 700 -481Q669 -509 665 -535Q659 -548 662 -561Q663 -564 661 -571Q659 -580 663 -584Q665 -596 666 -609Q668 -626 670 -644Q672 -653 674 -663Q675 -679 678 -693Q681 -708 683 -723Q685 -727 683 -737Q681 -745 684 -750ZM525 -698H526Q548 -698 564 -694Q567 -696 568 -695Q569 -691 572 -688Q578 -686 578 -680Q578 -674 579 -670Q587 -667 587 -653Q587 -643 590 -639Q588 -633 589 -617Q590 -604 587 -597Q583 -574 578 -551Q577 -529 576 -508Q593 -515 609 -522Q616 -527 619 -522Q622 -517 617 -511Q605 -500 593 -490Q584 -484 581 -475Q578 -466 575 -457Q573 -421 566 -407Q557 -394 550 -378Q533 -385 522 -424Q521 -432 513 -429Q506 -426 503 -420Q496 -418 476 -404Q471 -402 463 -391Q456 -381 449 -379Q442 -376 436 -386Q431 -396 425 -397Q421 -398 420 -401Q419 -404 419 -407Q406 -420 403 -424Q407 -442 418 -456Q420 -462 433 -465Q445 -465 467 -452L519 -482Q530 -497 526 -507Q529 -529 531 -552Q531 -558 527 -558Q518 -558 513 -552Q506 -551 498 -546Q490 -542 481 -544Q472 -545 455 -553Q441 -560 433 -561Q429 -563 423 -564Q417 -565 418 -568Q427 -567 438 -575Q445 -580 450 -581Q470 -595 503 -592Q511 -593 520 -592Q529 -590 532 -598Q537 -633 528 -665Q524 -672 516 -674Q507 -676 500 -680Q494 -683 495 -689Q496 -689 498 -688ZM264 -649H276Q280 -646 290 -646Q301 -646 305 -642Q312 -639 319 -641Q325 -642 325 -635Q323 -626 325 -617Q332 -606 323 -602Q316 -597 308 -597Q306 -592 296 -592Q287 -592 284 -590Q264 -589 245 -596Q223 -601 219 -603Q210 -603 197 -610Q187 -616 182 -617Q181 -620 175 -620Q167 -620 165 -626Q177 -628 185 -628Q194 -626 198 -631Q202 -635 206 -638Q214 -635 218 -637Q221 -641 228 -641Q235 -646 250 -647Q261 -648 264 -649ZM285 -523H291Q293 -520 300 -519Q305 -519 306 -514Q317 -519 322 -509Q332 -504 334 -482Q342 -479 342 -470Q342 -461 334 -458Q329 -447 323 -437Q321 -431 311 -422Q301 -413 298 -406Q295 -400 272 -375Q267 -364 270 -351Q264 -345 265 -336Q266 -327 265 -318Q268 -311 266 -296Q265 -283 266 -277Q278 -284 283 -295Q288 -307 293 -317Q294 -325 298 -334Q302 -342 293 -348Q290 -351 291 -352Q294 -353 300 -351Q310 -348 313 -359Q314 -363 318 -361Q323 -358 328 -357Q341 -352 353 -348Q362 -346 366 -338Q370 -329 362 -325Q361 -319 350 -311Q344 -307 341 -302Q329 -298 320 -281Q292 -266 284 -251Q298 -248 310 -248Q324 -250 341 -248Q355 -247 366 -243Q369 -245 381 -240Q385 -236 392 -233Q398 -231 399 -224Q402 -220 398 -215Q394 -209 399 -207Q405 -204 400 -197Q396 -191 391 -194Q375 -195 360 -201Q351 -206 340 -208Q328 -212 321 -216Q313 -217 299 -222Q284 -228 276 -228Q269 -232 265 -226Q261 -221 262 -213Q258 -188 259 -163Q260 -138 259 -112Q258 -98 256 -84Q257 -81 254 -55Q251 -52 249 -44Q246 -34 241 -33Q236 -33 229 -38Q223 -43 218 -43Q216 -45 211 -42Q204 -38 202 -43Q199 -57 195 -72Q194 -85 192 -98Q199 -113 203 -126Q201 -132 202 -143Q203 -154 202 -158Q203 -181 205 -202Q204 -214 205 -229Q210 -234 210 -247Q210 -262 215 -268Q213 -277 216 -289Q216 -296 217 -303Q217 -306 213 -305Q179 -271 148 -235Q130 -223 122 -211Q117 -211 112 -209Q108 -206 102 -202Q97 -201 97 -207Q87 -215 91 -235Q91 -248 95 -258L114 -279Q119 -283 126 -292Q136 -306 142 -309Q165 -342 181 -360Q189 -367 221 -404Q225 -408 229 -415Q235 -426 240 -429Q240 -433 244 -440Q249 -448 247 -453Q236 -452 218 -444Q202 -437 195 -435Q189 -436 177 -434Q164 -432 157 -435Q149 -439 143 -439L118 -448Q116 -447 114 -451Q112 -457 116 -458Q118 -456 131 -456Q177 -478 222 -500Q226 -503 238 -506Q253 -509 257 -518Q264 -520 270 -522Q272 -517 277 -519Q282 -522 285 -523ZM728 -391Q742 -392 759 -387Q766 -383 773 -378Q779 -374 781 -367Q792 -356 803 -330Q803 -327 807 -320Q811 -314 810 -309Q813 -287 811 -263Q809 -257 813 -246Q810 -233 811 -219Q815 -183 815 -162Q816 -153 816 -145Q812 -125 817 -109Q818 -97 818 -85Q816 -79 817 -66Q818 -49 812 -42Q811 -27 810 -13Q809 -9 807 -5L800 11Q799 15 797 19Q801 28 789 45Q790 52 781 61Q774 68 773 73Q763 77 753 69Q751 67 739 54Q733 36 716 25Q714 20 707 15Q699 10 698 7Q691 2 684 -4Q679 -7 681 -9Q685 -11 689 -10Q713 1 726 1Q735 1 744 -5Q748 -38 749 -42Q752 -73 752 -104Q752 -132 752 -160Q755 -165 751 -169Q752 -179 750 -210Q751 -214 751 -220L746 -261Q744 -276 743 -292Q742 -308 734 -320Q723 -335 718 -339Q707 -349 697 -343Q691 -343 681 -340Q671 -337 660 -334Q649 -323 631 -322Q625 -322 599 -310Q596 -308 588 -309Q582 -309 580 -307Q581 -295 581 -284Q578 -275 574 -266Q574 -263 572 -258Q569 -254 575 -250Q593 -262 614 -267Q637 -272 640 -275Q653 -280 664 -276Q676 -274 682 -264Q689 -253 680 -245Q671 -234 660 -232Q648 -230 637 -228Q619 -225 599 -225Q594 -223 584 -222Q570 -221 565 -217Q563 -204 560 -191Q557 -185 559 -170Q569 -169 580 -176Q588 -182 621 -189Q639 -192 657 -195Q665 -195 675 -190Q689 -190 687 -176Q688 -169 678 -164Q669 -159 669 -155Q651 -151 632 -151Q617 -151 601 -151Q586 -147 575 -149Q565 -150 555 -147Q554 -132 552 -117Q548 -108 544 -79Q546 -76 545 -65Q544 -56 546 -52Q543 -41 547 -14Q547 -11 547 -8V1Q547 4 547 7Q548 13 542 14Q536 15 531 10Q521 9 510 3Q507 2 506 -2Q505 -7 503 -8Q495 -17 487 -27Q477 -36 484 -58Q484 -83 489 -102Q494 -131 498 -161Q505 -192 511 -224Q515 -249 521 -272Q521 -315 544 -347Q547 -342 554 -342Q561 -341 567 -340Q574 -350 584 -340Q614 -352 639 -367Q663 -375 690 -381Q701 -386 728 -391Z"/>
</svg>