<svg xmlns="http://www.w3.org/2000/svg" viewBox="0 -800 1024 1024">
	<path fill="#000000" d="M560 -678Q568 -678 569 -677Q579 -677 588 -671Q623 -652 623 -626Q619 -619 619 -606Q619 -600 615 -590Q611 -581 611 -574Q604 -557 597 -540Q594 -535 597 -534Q605 -534 613 -536Q633 -540 652 -536Q657 -531 666 -526Q682 -517 686 -510Q686 -501 682 -492L657 -479Q636 -477 631 -474Q623 -474 615 -474Q584 -474 575 -471L560 -467Q548 -457 535 -447Q524 -435 512 -424Q500 -412 488 -399Q476 -386 461 -375Q445 -360 423 -352Q417 -352 430 -371Q433 -374 449 -398Q459 -414 468 -430Q469 -439 475 -447Q478 -453 474 -455Q471 -456 466 -454Q444 -449 421 -445Q404 -445 389 -443Q386 -443 385 -442H374Q373 -441 370 -441Q371 -430 363 -422Q358 -412 344 -409Q324 -407 312 -419Q306 -422 303 -432Q287 -432 271 -432Q250 -437 229 -442Q209 -444 187 -456Q197 -459 207 -462Q222 -466 239 -469Q251 -472 266 -474Q277 -476 288 -479Q291 -492 294 -505Q301 -528 301 -543Q312 -580 325 -611Q326 -617 331 -615Q336 -613 337 -608Q353 -601 371 -569Q382 -560 382 -549Q380 -531 376 -517Q375 -511 372 -506Q369 -501 372 -495Q392 -498 411 -501Q436 -505 461 -509Q478 -512 497 -517Q506 -517 510 -528Q515 -542 518 -544Q519 -559 526 -570Q526 -575 528 -583L531 -595Q533 -607 535 -619Q539 -635 528 -646Q515 -648 502 -644Q490 -639 477 -636Q454 -627 452 -626Q439 -626 426 -611Q422 -610 422 -611Q423 -616 430 -620Q470 -652 513 -668Q534 -678 560 -678ZM633 -359Q638 -361 643 -356Q648 -351 661 -351Q671 -351 675 -349Q679 -345 685 -341Q695 -335 697 -330Q701 -328 702 -321Q703 -313 707 -312Q713 -294 713 -275Q708 -262 705 -246Q707 -235 704 -221Q701 -203 703 -193Q703 -171 702 -150Q702 -139 712 -141Q727 -143 741 -143Q749 -142 754 -148Q758 -153 764 -156Q769 -162 772 -158Q776 -153 779 -150Q783 -142 793 -142Q803 -142 811 -138Q837 -140 848 -123Q847 -109 858 -100Q861 -91 858 -85Q854 -80 849 -74Q836 -70 822 -67Q820 -65 816 -66Q811 -67 809 -65Q796 -68 785 -59Q778 -53 759 -49Q757 -48 735 -38Q724 -32 713 -27Q707 -26 694 -18Q690 -17 674 -11Q659 -6 658 -6Q649 -3 647 -5Q645 -8 653 -16Q660 -25 665 -27Q677 -39 689 -51Q696 -59 705 -67Q706 -74 699 -77Q691 -79 686 -82Q670 -88 652 -106Q648 -109 645 -116Q643 -123 637 -126Q633 -146 633 -155Q632 -166 633 -175Q634 -200 641 -234Q643 -264 650 -273Q649 -287 647 -302Q644 -312 628 -302Q621 -301 608 -293Q594 -285 584 -284Q574 -276 560 -274Q534 -260 527 -249Q503 -221 493 -203Q480 -193 472 -178Q472 -177 470 -171L467 -159Q466 -155 465 -152Q464 -134 480 -131Q486 -128 493 -126Q496 -124 493 -121Q485 -118 488 -106Q490 -97 487 -94Q478 -91 476 -83Q474 -76 472 -70Q473 -63 470 -63Q465 -63 463 -70Q461 -74 457 -71Q454 -69 452 -70Q450 -69 448 -65Q446 -60 441 -62Q435 -60 432 -63Q429 -67 426 -70Q426 -74 422 -73Q417 -71 416 -72Q410 -80 403 -88Q396 -96 394 -106Q390 -109 390 -117Q390 -125 387 -127Q390 -145 384 -171Q385 -185 389 -175Q402 -171 408 -166Q428 -154 438 -152Q442 -157 451 -172Q460 -188 468 -195Q481 -211 493 -228Q495 -232 530 -274Q546 -289 565 -304Q584 -320 599 -336Q616 -347 633 -359ZM255 -184Q266 -199 259 -213Q258 -216 256 -221Q254 -227 259 -230Q263 -224 267 -227Q270 -229 271 -235Q270 -240 283 -240Q287 -246 297 -253Q306 -259 311 -265Q328 -250 328 -238Q325 -234 317 -206Q311 -193 307 -181Q299 -165 311 -146Q315 -127 319 -109Q319 -103 316 -98Q320 -84 315 -74Q310 -60 296 -58Q293 -62 286 -58Q282 -56 281 -58Q282 -62 279 -63Q275 -64 274 -68Q272 -68 271 -70Q269 -75 266 -73Q265 -69 262 -70Q259 -72 258 -75Q258 -80 252 -84Q247 -87 246 -89Q238 -97 236 -106Q233 -105 231 -108Q230 -110 233 -111Q233 -126 235 -128Q237 -134 239 -141Q238 -149 248 -165Q252 -174 255 -184Z"/>
</svg>