<svg xmlns="http://www.w3.org/2000/svg" viewBox="0 -800 1024 1024">
	<path fill="#000000" d="M535 -796Q547 -795 558 -789Q566 -788 575 -789Q584 -790 592 -784Q595 -779 599 -775Q604 -770 604 -764Q605 -758 601 -749Q597 -738 598 -732Q601 -730 607 -730Q615 -730 618 -728Q629 -727 624 -706Q623 -699 617 -696Q611 -693 606 -691Q602 -688 594 -689Q587 -690 584 -688Q570 -678 566 -674Q555 -659 535 -641Q535 -637 527 -631Q519 -625 519 -619Q506 -611 502 -605Q494 -607 484 -595Q467 -588 455 -573Q451 -569 445 -574Q440 -579 443 -583Q448 -591 467 -608L500 -650Q503 -658 509 -666Q514 -674 511 -682Q498 -685 487 -681Q480 -679 452 -675Q425 -671 408 -665Q403 -665 402 -661Q401 -657 403 -653Q409 -644 389 -635Q381 -645 374 -646Q354 -671 331 -678Q323 -680 316 -679Q312 -680 313 -684Q325 -692 336 -700Q358 -711 360 -731Q367 -741 352 -751Q356 -759 365 -753Q376 -752 387 -745Q396 -746 407 -728Q406 -723 404 -719Q402 -714 408 -710Q435 -713 462 -719Q465 -720 493 -725Q502 -728 513 -728Q532 -726 535 -741Q541 -747 536 -755Q531 -763 524 -764Q513 -761 504 -765Q490 -773 475 -773Q471 -777 474 -779Q478 -781 481 -783Q496 -782 520 -792Q525 -792 535 -796ZM616 -607L629 -606Q639 -604 650 -605Q661 -605 667 -595Q669 -590 679 -591Q687 -592 691 -589Q695 -590 699 -584Q703 -578 705 -577Q710 -577 711 -572Q712 -567 713 -562Q716 -557 708 -554Q703 -555 702 -550Q701 -542 700 -541Q699 -536 688 -540Q686 -543 681 -539Q677 -535 674 -538Q649 -537 627 -531Q606 -528 589 -516Q583 -512 587 -506Q590 -502 597 -496Q601 -490 597 -481Q594 -476 593 -459Q593 -447 590 -441Q589 -439 586 -426Q587 -419 583 -415Q579 -410 576 -404L558 -411Q551 -418 544 -424Q536 -429 535 -438Q530 -446 536 -460Q541 -467 550 -488Q549 -495 554 -500Q559 -505 562 -511Q559 -519 550 -521Q542 -523 535 -525Q531 -527 521 -527Q513 -527 510 -529Q513 -535 519 -538Q525 -540 531 -542Q559 -551 587 -561Q593 -564 600 -567Q607 -571 608 -578Q605 -587 597 -590Q589 -594 583 -598Q582 -602 585 -603Q587 -604 591 -603Q604 -600 616 -607ZM333 -583Q337 -579 340 -575Q344 -573 343 -564Q342 -556 345 -552Q376 -556 406 -560Q417 -557 429 -554Q441 -551 449 -540Q456 -531 453 -517Q456 -512 446 -497Q445 -490 438 -487Q432 -488 428 -483Q424 -478 424 -473Q424 -467 417 -461Q412 -457 410 -453Q406 -448 401 -445Q396 -441 397 -434Q403 -430 407 -423Q406 -414 401 -407Q390 -402 369 -400Q347 -398 340 -395Q324 -393 307 -392Q298 -391 295 -382Q294 -380 293 -365Q286 -355 295 -347Q305 -350 315 -353Q332 -357 349 -362Q360 -368 388 -370Q393 -373 404 -375Q422 -375 439 -375Q441 -371 451 -370Q460 -369 463 -364Q468 -353 471 -340Q476 -337 472 -330Q468 -327 466 -319Q465 -313 462 -310Q441 -300 436 -279Q425 -274 421 -264Q422 -242 400 -239Q394 -232 384 -230Q375 -225 372 -227Q368 -233 364 -229Q362 -227 358 -221Q346 -220 335 -218Q331 -214 322 -214Q312 -213 309 -211Q301 -209 295 -201Q284 -202 276 -195Q259 -197 240 -211Q234 -212 231 -217Q228 -222 225 -226Q222 -238 216 -247Q216 -252 216 -257Q215 -264 223 -272Q231 -280 230 -286Q226 -290 224 -294Q222 -299 227 -301Q237 -308 230 -325Q226 -330 233 -339Q235 -347 235 -356Q236 -365 242 -371Q241 -386 246 -404Q245 -410 253 -433Q253 -437 256 -444Q259 -451 257 -456Q258 -477 267 -493Q271 -499 265 -508Q265 -513 261 -518Q258 -522 256 -528Q259 -530 265 -530Q274 -530 276 -532Q283 -537 289 -545Q297 -555 296 -560Q291 -566 291 -574Q292 -578 297 -577Q307 -576 310 -585Q314 -588 323 -585Q330 -583 333 -583ZM732 -535Q775 -535 786 -518Q784 -505 778 -496Q772 -494 767 -485Q763 -476 759 -474Q757 -469 751 -464Q742 -456 741 -450Q723 -435 716 -423Q719 -414 729 -420Q735 -420 741 -420Q774 -422 790 -409Q794 -404 788 -400Q783 -395 780 -391Q770 -385 759 -379Q742 -375 724 -372Q708 -372 694 -368Q683 -367 667 -359Q661 -356 664 -351Q670 -345 673 -339Q671 -334 674 -330Q676 -327 682 -328Q699 -336 712 -330Q720 -332 734 -320Q740 -315 736 -310Q732 -304 730 -299Q730 -294 726 -293Q721 -291 718 -294Q706 -291 694 -288Q683 -287 678 -285Q670 -282 672 -273Q667 -260 665 -230Q659 -220 661 -206Q653 -193 654 -188Q652 -182 658 -179Q663 -177 669 -179Q681 -181 694 -180Q709 -186 729 -179Q738 -182 745 -177Q753 -173 761 -169Q768 -166 765 -159Q763 -153 756 -149Q746 -143 740 -132Q731 -136 723 -135Q713 -131 708 -133Q696 -139 683 -133Q670 -132 657 -132Q653 -129 641 -130Q629 -131 624 -126Q613 -125 598 -121Q591 -119 584 -119Q577 -118 572 -112Q568 -99 569 -84Q561 -67 563 -46Q567 -37 563 -26Q557 -8 558 3Q558 19 557 22Q553 25 551 38Q547 54 540 62Q531 73 523 86Q517 92 510 82Q505 75 502 75Q495 74 493 67Q491 60 488 55Q479 49 470 28Q471 24 466 18Q462 13 463 10Q471 7 481 10Q488 13 492 5Q495 -1 495 -10Q497 -19 502 -44Q504 -63 507 -71Q506 -82 507 -92Q507 -102 502 -110Q472 -110 469 -109Q464 -107 452 -106Q439 -105 434 -102Q411 -101 387 -101Q377 -98 355 -98Q330 -108 327 -109Q318 -114 308 -116Q299 -119 292 -126Q296 -130 313 -130Q324 -131 335 -132Q366 -135 397 -139Q420 -143 445 -144Q461 -145 477 -147Q480 -148 498 -151Q508 -150 508 -169Q510 -185 492 -195Q487 -195 487 -199Q487 -202 491 -201Q497 -198 510 -202Q523 -206 530 -202Q539 -207 554 -187Q562 -181 566 -166Q567 -162 572 -162Q577 -163 580 -163Q584 -166 595 -166Q604 -166 609 -169Q611 -178 604 -184Q607 -197 610 -211Q606 -218 609 -223Q612 -229 616 -233Q615 -243 620 -273Q616 -282 606 -278Q590 -279 573 -280Q558 -289 534 -285Q529 -289 542 -293Q560 -302 575 -302Q590 -308 606 -313Q612 -311 618 -313Q624 -315 625 -321Q621 -339 624 -347Q623 -354 618 -355Q612 -357 609 -352Q597 -353 585 -348Q566 -345 549 -348Q541 -348 512 -356Q511 -362 516 -362Q522 -362 526 -363Q537 -371 558 -375Q570 -378 582 -381Q593 -392 602 -393Q609 -398 618 -401Q621 -401 622 -405Q624 -409 626 -409Q630 -412 638 -413Q648 -414 651 -418Q654 -426 671 -458Q675 -471 699 -509Q699 -515 697 -520Q695 -525 700 -529Q709 -529 720 -531Q725 -535 732 -535ZM384 -514L378 -511Q369 -510 355 -506Q351 -503 320 -499Q308 -500 306 -500Q300 -499 303 -491Q309 -487 309 -479Q309 -471 311 -462Q310 -460 310 -450Q309 -445 305 -441Q301 -436 305 -432Q317 -432 328 -433Q331 -435 347 -437Q360 -436 365 -455Q376 -469 383 -484Q383 -489 390 -503Q392 -507 390 -511Q387 -516 384 -514ZM397 -336Q394 -337 392 -334Q370 -332 358 -326Q345 -324 332 -322Q324 -323 315 -325Q306 -327 296 -330Q292 -330 289 -326Q284 -305 283 -283Q277 -271 279 -248Q277 -238 288 -236Q326 -250 346 -256Q357 -256 363 -270Q363 -276 367 -279Q372 -282 376 -284Q388 -299 403 -324Q407 -328 406 -333Q404 -340 397 -336ZM674 -72H682Q692 -64 703 -61Q719 -59 734 -51Q739 -51 740 -45Q742 -37 743 -36Q753 -28 747 -14Q733 3 724 -4Q713 -3 701 -3Q679 -1 669 7Q664 4 651 10Q639 16 638 14Q638 9 645 -1Q652 -11 652 -15Q654 -28 649 -35Q651 -40 648 -44Q644 -48 643 -52Q640 -58 645 -60Q651 -62 655 -63Q662 -71 674 -72ZM390 -71Q397 -73 400 -67Q406 -57 399 -45Q397 -41 400 -38Q403 -35 407 -37Q418 -49 446 -61Q453 -63 447 -54Q438 -36 415 -17Q409 -15 409 -4Q409 5 405 8Q401 10 397 16Q391 24 387 23L365 -2Q353 -10 356 -25Q350 -33 357 -37Q363 -42 369 -47Q374 -50 378 -58Q384 -69 390 -71Z"/>
</svg>