<svg xmlns="http://www.w3.org/2000/svg" viewBox="0 -800 1024 1024">
	<path fill="#000000" d="M682 -662Q706 -662 713 -644Q716 -629 719 -615Q723 -614 726 -614L739 -611Q744 -611 746 -610Q764 -607 765 -597Q768 -593 766 -589Q764 -585 763 -580Q761 -577 756 -576Q750 -575 749 -573Q744 -574 738 -568Q733 -563 729 -562Q721 -564 713 -562Q705 -560 704 -551Q701 -543 697 -536Q687 -517 677 -499Q675 -494 672 -490Q670 -483 659 -476Q651 -471 649 -467Q649 -466 648 -465Q640 -460 643 -456Q648 -460 665 -462Q676 -461 686 -461Q698 -465 701 -454Q712 -448 712 -434Q707 -427 701 -430Q699 -422 681 -422Q676 -425 667 -421Q661 -419 657 -419Q648 -417 621 -412Q603 -406 586 -404Q571 -399 556 -398Q549 -394 531 -396Q527 -396 523 -393Q517 -389 513 -390Q499 -387 487 -395Q483 -395 477 -399Q470 -404 465 -404Q461 -406 454 -405Q443 -404 439 -408Q437 -409 437 -410Q441 -412 443 -414Q453 -418 461 -418Q463 -421 470 -421Q476 -421 479 -424Q481 -422 487 -423Q493 -424 495 -422L511 -431Q532 -434 552 -440Q561 -441 566 -443Q580 -443 608 -451Q615 -454 618 -461Q620 -469 623 -475Q625 -478 627 -484Q629 -491 632 -493Q641 -524 646 -547Q649 -553 645 -554Q637 -555 632 -556Q625 -552 616 -550Q601 -554 590 -548Q583 -545 581 -533Q579 -523 575 -519Q572 -506 569 -494L555 -480Q553 -477 550 -479Q546 -482 544 -481Q543 -482 524 -504Q521 -507 520 -515Q519 -523 515 -525Q506 -528 496 -532Q492 -530 484 -534Q480 -536 477 -535Q469 -537 443 -552Q438 -556 426 -570Q432 -572 437 -572Q444 -569 449 -573Q461 -571 472 -579Q491 -582 513 -587Q521 -590 521 -600Q521 -609 522 -617Q526 -616 528 -619Q530 -622 532 -625Q537 -627 548 -622Q553 -616 565 -614Q572 -613 577 -609Q583 -607 582 -600Q583 -597 587 -599Q599 -611 607 -628Q620 -641 637 -649Q639 -650 654 -656Q669 -663 682 -662ZM657 -632L654 -631Q647 -625 637 -619Q627 -613 629 -603Q642 -605 654 -608Q660 -606 663 -617Q663 -633 657 -632ZM215 -554Q225 -553 234 -550Q242 -550 250 -550Q258 -549 263 -543Q268 -536 273 -530Q277 -527 279 -523L281 -515Q279 -503 276 -491Q269 -488 272 -475Q274 -466 271 -461Q272 -459 270 -453Q267 -444 273 -441Q279 -443 282 -443L288 -444Q291 -444 297 -446Q312 -446 327 -447Q333 -439 342 -438Q347 -427 351 -416Q351 -410 354 -404Q357 -398 350 -393Q353 -384 346 -374Q344 -366 336 -359Q325 -348 316 -347Q312 -346 309 -345Q306 -345 306 -340Q318 -334 313 -323Q308 -312 297 -312Q285 -308 272 -304Q253 -302 248 -294Q250 -278 242 -263Q238 -258 239 -246Q240 -236 238 -232Q236 -222 242 -218Q249 -223 289 -261Q294 -263 297 -268Q301 -272 304 -268Q305 -275 312 -282Q320 -290 326 -290Q325 -294 329 -298Q333 -301 333 -304Q338 -303 340 -310Q342 -316 346 -317Q347 -314 341 -299Q340 -292 336 -287Q332 -282 329 -277Q331 -265 318 -244Q310 -241 302 -229Q295 -220 290 -216Q288 -207 275 -194Q274 -191 269 -189Q263 -186 264 -181Q251 -163 245 -160Q241 -157 238 -149Q234 -140 230 -138Q223 -136 220 -130Q212 -122 200 -132Q185 -138 184 -151Q173 -173 174 -182Q176 -186 181 -212Q185 -243 189 -274Q192 -284 177 -289Q166 -292 154 -295Q149 -292 144 -300Q140 -307 136 -308Q131 -307 121 -314Q114 -319 109 -320Q101 -327 102 -336Q104 -346 103 -357Q113 -384 127 -410Q126 -415 132 -419Q137 -423 138 -426Q141 -427 147 -431Q154 -437 159 -436Q166 -441 172 -436Q178 -430 184 -427Q194 -413 201 -420Q209 -422 210 -429Q211 -436 212 -443V-493Q211 -509 209 -525Q207 -536 201 -545Q199 -551 204 -552Q210 -553 215 -554ZM288 -410L279 -406Q261 -407 261 -386Q262 -377 256 -372Q257 -368 255 -357Q253 -347 256 -340Q266 -336 284 -345Q291 -368 300 -386Q307 -392 303 -404Q299 -415 288 -410ZM190 -397Q186 -396 184 -391Q182 -386 180 -385Q171 -378 172 -368Q173 -359 170 -349Q157 -329 172 -310Q186 -310 196 -321Q198 -327 203 -384Q207 -390 202 -395Q196 -401 190 -397ZM652 -379Q656 -378 659 -377Q677 -380 692 -363Q697 -362 702 -356Q707 -350 711 -348Q737 -353 763 -358Q776 -358 788 -359Q801 -361 807 -359Q821 -362 833 -359Q839 -355 845 -353Q851 -351 854 -345Q868 -343 883 -321Q890 -309 894 -301Q900 -287 901 -273Q899 -268 901 -260Q903 -253 902 -250Q901 -247 898 -231Q899 -224 896 -217Q893 -211 891 -204Q894 -194 890 -184Q892 -180 889 -177Q886 -174 886 -172Q882 -159 877 -146Q875 -131 869 -127Q863 -126 862 -116Q861 -109 859 -107Q861 -98 856 -93Q851 -87 846 -83Q842 -71 833 -64Q829 -55 812 -44Q796 -30 791 -23Q792 -19 789 -19Q786 -19 784 -21Q782 -25 775 -31Q768 -37 767 -41Q758 -56 748 -72Q756 -73 763 -74Q770 -76 777 -76Q788 -80 794 -85Q799 -92 802 -102Q811 -111 810 -127Q817 -145 823 -163Q826 -175 828 -188Q830 -200 838 -229Q842 -279 828 -303Q819 -312 796 -321Q789 -321 781 -321Q775 -319 768 -318Q744 -314 719 -310Q712 -311 703 -305Q696 -291 689 -277Q688 -270 676 -249Q671 -247 671 -242Q671 -237 669 -234Q666 -230 668 -229Q673 -227 676 -226Q686 -223 695 -225Q714 -220 733 -216Q740 -217 745 -215Q759 -210 771 -202Q776 -200 778 -187Q775 -180 771 -172Q767 -165 759 -166Q750 -166 741 -166Q730 -171 719 -176Q707 -186 687 -196Q669 -205 664 -208Q660 -210 655 -214Q651 -217 646 -212Q632 -208 628 -194Q629 -188 626 -187Q622 -185 617 -184Q606 -183 598 -189Q592 -190 578 -199Q567 -206 559 -208Q555 -214 548 -213Q543 -213 544 -207Q540 -204 537 -198Q534 -191 530 -190Q524 -192 522 -188Q519 -184 516 -181Q514 -174 507 -169Q502 -166 500 -172Q505 -181 509 -190Q513 -210 522 -226Q534 -245 536 -269Q539 -275 530 -281Q527 -281 502 -286Q494 -287 485 -295Q505 -299 524 -304Q530 -306 537 -307Q544 -309 547 -316Q549 -326 550 -338Q550 -350 541 -359Q538 -363 538 -367Q538 -369 544 -368Q558 -365 571 -366Q578 -367 581 -363Q585 -359 588 -358Q591 -354 596 -350Q601 -347 599 -343Q599 -338 597 -332Q595 -326 602 -325Q610 -327 616 -329L643 -335Q646 -336 657 -339Q664 -350 661 -361Q657 -365 654 -370Q650 -375 644 -375Q644 -378 647 -378Q650 -377 652 -379ZM470 -344Q476 -343 479 -340Q487 -336 486 -329Q484 -323 484 -316Q482 -304 472 -286Q469 -285 467 -280Q466 -277 464 -275Q456 -268 454 -253Q455 -247 447 -226Q440 -220 441 -212Q443 -205 441 -197Q434 -183 432 -170Q432 -167 432 -165V-156Q432 -153 432 -151Q433 -148 431 -146Q426 -142 430 -139Q429 -124 433 -109Q437 -96 426 -88Q418 -88 411 -92Q408 -92 406 -97Q404 -102 401 -102Q391 -111 381 -121Q370 -126 372 -137Q368 -153 375 -173Q375 -187 381 -197Q387 -207 390 -218Q401 -240 411 -263Q429 -299 457 -333Q458 -338 462 -340Q466 -341 470 -344ZM638 -299L632 -298Q624 -292 613 -293Q605 -289 594 -289Q588 -287 582 -284Q576 -281 573 -274Q572 -262 567 -253Q567 -249 562 -242Q557 -234 558 -229Q579 -227 600 -225Q609 -223 618 -221Q623 -221 624 -227Q627 -231 629 -246Q636 -262 643 -279Q646 -283 646 -292Q646 -301 638 -299Z"/>
</svg>