<svg xmlns="http://www.w3.org/2000/svg" viewBox="0 -800 1024 1024">
	<path fill="#000000" d="M606 -742H614Q625 -740 636 -739Q646 -741 653 -732Q656 -728 662 -715Q662 -706 665 -697Q668 -689 664 -680Q663 -657 657 -635Q655 -628 661 -623Q666 -619 674 -622Q681 -623 688 -624Q692 -624 692 -619Q692 -615 690 -611Q688 -607 694 -601Q700 -596 697 -591Q686 -583 674 -576Q650 -578 642 -565Q638 -546 637 -533Q635 -531 633 -517Q630 -505 631 -494Q632 -489 640 -489Q647 -489 649 -487Q651 -482 664 -480Q668 -477 666 -469Q664 -462 667 -458Q669 -452 664 -450Q658 -448 654 -446Q639 -433 624 -440Q616 -446 612 -437Q605 -414 597 -392Q594 -388 597 -385Q600 -382 605 -383Q616 -387 659 -396Q676 -399 692 -403Q696 -406 707 -406Q715 -406 719 -408Q728 -418 738 -413Q745 -412 754 -414Q766 -417 772 -415Q780 -415 787 -416Q793 -417 822 -417Q835 -417 844 -409Q840 -399 835 -394Q823 -392 825 -380Q822 -377 813 -377Q804 -378 801 -375Q794 -369 778 -371Q763 -372 758 -369Q749 -371 731 -367Q719 -365 711 -365Q685 -359 658 -353Q653 -355 648 -353Q642 -351 644 -345Q651 -342 657 -340Q671 -342 699 -336Q715 -337 752 -327Q770 -322 772 -315Q777 -305 788 -311Q795 -310 805 -302Q810 -299 813 -295Q817 -292 824 -290Q827 -288 831 -289Q838 -291 841 -285Q843 -281 849 -283Q856 -285 858 -282Q863 -275 871 -275Q879 -275 887 -272Q893 -267 902 -267Q906 -261 917 -259Q923 -255 932 -252Q937 -246 944 -241Q952 -237 949 -228Q944 -222 941 -214Q928 -212 915 -211Q903 -205 898 -211Q878 -214 863 -221Q853 -227 844 -229Q841 -229 835 -233Q827 -238 823 -234Q819 -217 820 -198Q819 -180 817 -162Q813 -153 817 -142Q819 -137 814 -128Q810 -121 810 -117Q808 -108 804 -88Q804 -83 804 -78L802 -60Q802 -55 802 -50Q790 -38 797 -29Q801 -25 795 -19Q793 -14 795 -1Q796 10 794 17Q791 25 790 35Q786 45 777 54Q773 68 767 66Q759 59 750 51Q744 45 739 38Q734 31 726 31Q720 35 705 35Q700 38 692 36Q684 34 681 36Q663 35 644 34Q631 32 620 36Q609 39 601 35Q596 28 586 22Q576 16 573 12Q567 8 560 -2Q554 -11 550 -14Q538 -29 546 -46Q552 -49 552 -63Q568 -134 571 -141Q577 -165 585 -187Q588 -193 591 -205Q595 -222 601 -229Q603 -232 603 -239Q603 -245 606 -247Q623 -247 624 -235Q623 -231 622 -225Q621 -219 629 -218Q644 -228 662 -236Q699 -251 735 -266Q740 -265 743 -270Q746 -275 741 -278L698 -300Q678 -311 658 -322Q645 -328 635 -337Q632 -345 624 -345Q616 -345 610 -341Q603 -342 593 -337Q585 -333 581 -333Q568 -335 566 -327Q563 -311 556 -297Q545 -272 534 -248Q528 -245 529 -236Q530 -229 526 -226Q518 -222 507 -199Q497 -193 493 -181Q487 -169 481 -158Q462 -139 452 -130Q443 -121 431 -121Q424 -114 415 -112Q406 -106 396 -101Q392 -98 389 -100Q388 -101 389 -102Q389 -112 406 -117Q430 -141 448 -165Q464 -190 477 -215Q489 -237 500 -260Q512 -285 526 -307Q528 -316 519 -317Q507 -312 494 -310Q482 -307 470 -305Q455 -312 450 -309Q437 -304 424 -308Q412 -312 401 -317Q394 -317 389 -320Q386 -323 391 -326Q411 -334 435 -339Q440 -343 462 -345Q484 -350 505 -355Q513 -356 522 -357Q530 -357 535 -365Q536 -367 553 -412Q553 -425 561 -433Q569 -445 556 -450Q545 -454 533 -458Q529 -460 531 -463Q533 -465 538 -465Q545 -470 556 -472Q569 -471 573 -486Q579 -507 584 -527Q584 -530 587 -537Q591 -546 586 -551Q577 -551 570 -546Q553 -550 535 -554Q532 -556 523 -556Q517 -556 514 -558Q516 -563 530 -568Q551 -582 576 -591Q589 -596 602 -605Q608 -628 608 -652Q609 -654 609 -657L611 -666Q612 -668 612 -671Q612 -692 614 -712Q616 -721 611 -726Q605 -730 599 -734Q595 -737 596 -738Q600 -740 606 -742ZM324 -222Q315 -224 311 -213Q306 -202 303 -195Q302 -193 301 -191L297 -185Q296 -183 295 -181Q291 -171 276 -152Q274 -148 262 -136Q247 -125 244 -112Q241 -111 238 -104Q236 -99 232 -98Q216 -92 205 -111Q192 -121 178 -129Q170 -133 173 -139Q177 -144 177 -152Q171 -167 175 -172Q179 -180 184 -186Q189 -192 187 -201Q188 -226 189 -251Q195 -262 192 -275Q186 -277 178 -275Q172 -272 164 -277Q159 -280 155 -280Q150 -282 147 -281Q144 -280 145 -275Q146 -273 145 -272Q141 -273 138 -276Q119 -288 114 -293Q87 -314 91 -338Q92 -360 106 -398Q122 -411 125 -415Q137 -425 154 -427Q156 -425 161 -424Q167 -423 169 -419Q169 -412 174 -413Q182 -414 187 -418Q212 -426 209 -441Q209 -477 210 -493Q210 -500 210 -508Q211 -533 211 -558Q213 -578 199 -577Q195 -578 194 -580Q196 -587 205 -591Q207 -591 209 -594Q212 -599 215 -597Q239 -593 263 -593Q273 -579 264 -564Q267 -543 261 -522Q264 -507 263 -496Q255 -491 260 -477Q263 -468 261 -464Q258 -454 268 -450Q289 -455 296 -456Q313 -456 330 -457Q334 -459 342 -455Q349 -452 353 -452Q359 -447 367 -442Q374 -437 375 -427Q387 -399 379 -388Q375 -385 372 -375Q368 -364 362 -361Q348 -353 340 -345Q332 -334 319 -324Q313 -323 312 -316Q311 -310 308 -306Q301 -302 293 -300Q290 -297 281 -297Q274 -297 270 -295Q264 -296 259 -291Q253 -285 256 -280Q259 -275 256 -268Q253 -261 254 -256Q251 -253 253 -246Q255 -238 250 -234Q249 -213 247 -193Q249 -187 253 -189Q257 -191 262 -193Q263 -195 270 -200Q277 -205 279 -211Q276 -216 281 -220Q285 -224 291 -224Q321 -245 346 -273Q347 -270 345 -263Q343 -257 347 -253Q346 -249 335 -237Q325 -226 324 -222ZM302 -404Q287 -405 266 -399Q262 -390 263 -382Q263 -369 262 -357Q263 -351 263 -343Q262 -334 270 -335Q280 -348 282 -352Q291 -360 305 -393Q308 -397 308 -402Q307 -406 302 -404ZM196 -396L189 -394Q187 -391 182 -392Q176 -393 174 -389Q175 -382 166 -375Q157 -368 157 -363Q155 -354 149 -345Q143 -335 145 -325Q145 -318 150 -316Q155 -314 158 -312Q163 -311 192 -317Q204 -319 204 -331Q204 -343 205 -352Q206 -365 206 -379Q209 -385 206 -392Q203 -399 196 -396ZM757 -234Q751 -234 742 -229Q734 -224 730 -224Q718 -223 707 -216Q696 -212 684 -209Q660 -205 636 -208Q629 -210 625 -206Q620 -201 624 -195L625 -176Q621 -158 619 -138Q620 -135 617 -126Q614 -116 618 -110Q636 -108 654 -113Q658 -115 680 -117Q695 -117 710 -117Q718 -115 725 -113Q731 -107 728 -98Q728 -92 723 -89Q718 -87 714 -84Q689 -86 663 -89Q640 -89 623 -99Q616 -105 613 -92Q611 -75 608 -58Q607 -36 605 -15Q597 4 611 8Q619 12 629 10Q638 8 648 8Q667 3 688 1Q701 -1 716 0Q728 0 740 0Q748 -4 749 -13Q748 -20 752 -31Q755 -39 755 -44Q758 -53 760 -71Q762 -92 764 -113Q765 -125 765 -137Q767 -140 766 -148Q765 -157 769 -161Q772 -196 771 -225Q773 -231 767 -234Q762 -237 757 -234Z"/>
</svg>