<svg xmlns="http://www.w3.org/2000/svg" viewBox="0 -800 1024 1024">
	<path fill="#000000" d="M668 -699H686Q694 -699 702 -695Q711 -691 709 -684Q712 -674 718 -666Q723 -657 720 -647Q724 -628 719 -612Q714 -596 709 -579Q701 -563 682 -514Q680 -507 676 -501Q671 -495 676 -490Q738 -522 779 -522Q791 -522 803 -516Q816 -509 817 -497Q834 -483 836 -463Q838 -443 840 -424Q835 -406 836 -392Q829 -372 821 -352Q820 -344 810 -329Q802 -317 800 -309Q794 -307 791 -296Q788 -285 783 -281Q779 -275 760 -253Q741 -231 731 -214Q722 -211 718 -203Q714 -195 709 -188Q708 -185 696 -177Q687 -171 689 -164Q782 -121 824 -96Q837 -89 846 -78Q855 -67 862 -57Q862 -40 861 -23Q832 -16 798 -32Q707 -95 635 -129Q607 -105 578 -85Q565 -91 555 -82Q546 -73 534 -70Q530 -67 525 -67Q521 -67 513 -72Q503 -78 496 -76Q517 -81 539 -100Q553 -111 570 -120Q586 -130 593 -147Q555 -164 497 -218Q496 -222 497 -223Q498 -224 501 -223Q507 -220 515 -220Q529 -220 543 -220Q591 -203 638 -187Q650 -197 666 -221Q668 -222 672 -229Q677 -237 684 -241Q711 -280 738 -321Q764 -362 771 -410Q772 -425 770 -438Q770 -452 765 -463Q758 -478 746 -473Q722 -464 697 -468Q683 -468 668 -472Q659 -472 658 -462Q652 -445 642 -435Q636 -434 636 -430Q636 -424 634 -417Q629 -417 626 -428Q624 -437 620 -439Q610 -435 605 -447Q600 -460 610 -464Q603 -492 611 -510Q633 -519 625 -540L646 -617Q646 -629 649 -645Q650 -658 636 -658Q624 -646 596 -632Q567 -618 556 -605Q551 -602 550 -603Q555 -609 566 -619Q590 -643 628 -675Q637 -695 668 -699ZM354 -644Q362 -641 372 -634Q378 -639 384 -636Q390 -634 396 -633Q408 -641 415 -627Q407 -616 418 -608Q426 -604 422 -598Q418 -592 411 -595Q395 -586 367 -577Q357 -577 349 -572Q343 -575 336 -579Q329 -580 322 -581Q315 -583 309 -578Q313 -571 322 -563Q331 -552 318 -543Q316 -536 304 -530Q293 -521 286 -506Q277 -500 271 -491Q265 -482 258 -474Q249 -471 245 -463Q240 -456 236 -450Q235 -441 221 -437Q203 -415 185 -399Q181 -394 186 -391Q190 -388 196 -389Q201 -393 211 -393Q221 -393 225 -395Q240 -400 257 -401Q270 -406 284 -406Q287 -409 295 -409Q303 -409 305 -412Q308 -416 313 -415Q318 -414 323 -415Q330 -419 339 -418Q353 -425 360 -425Q367 -426 378 -427Q389 -428 394 -434Q393 -444 384 -451Q381 -457 381 -460Q381 -463 386 -463Q390 -464 402 -459Q413 -456 423 -454Q425 -452 443 -446Q446 -441 453 -443Q460 -444 467 -443Q473 -444 473 -440Q474 -436 475 -431Q475 -428 478 -425Q482 -421 481 -417Q477 -414 480 -407Q483 -399 479 -396Q467 -398 466 -392Q467 -387 465 -382Q462 -378 457 -381Q453 -387 448 -387Q443 -388 439 -389Q418 -387 402 -382Q381 -376 360 -371Q338 -370 318 -362Q323 -355 339 -353Q360 -350 365 -339Q367 -319 365 -300Q362 -293 369 -290Q375 -287 381 -290Q384 -292 387 -287Q389 -284 391 -283Q396 -283 402 -283Q406 -283 405 -277Q402 -273 405 -265Q407 -259 407 -256Q409 -238 394 -236Q391 -235 373 -232Q366 -231 366 -224Q365 -217 363 -212Q356 -204 353 -194Q350 -184 346 -174Q345 -170 349 -168Q353 -166 357 -169Q372 -177 386 -186Q397 -191 407 -197Q415 -202 423 -207Q436 -217 448 -233Q456 -241 464 -250Q472 -262 482 -266Q481 -260 479 -254Q478 -249 476 -244Q462 -217 442 -195Q442 -192 436 -187Q432 -184 431 -182Q423 -174 383 -139Q376 -136 362 -120Q356 -123 349 -115Q344 -109 340 -109Q333 -104 317 -97Q294 -86 283 -77Q277 -78 273 -73Q269 -69 265 -65Q257 -65 253 -59Q250 -52 245 -48Q237 -43 230 -49Q223 -55 217 -61Q202 -76 189 -95Q182 -104 191 -119Q191 -127 198 -132L204 -136Q207 -138 209 -141Q209 -145 213 -144Q217 -143 219 -139Q220 -135 225 -134Q229 -133 234 -130Q238 -128 244 -135Q248 -140 251 -141Q270 -155 270 -171Q271 -179 269 -186Q267 -194 273 -199Q280 -205 282 -214Q285 -225 285 -234Q273 -243 257 -243Q243 -251 228 -259Q225 -259 222 -260Q219 -262 220 -264Q244 -266 267 -273Q275 -275 282 -277Q291 -276 305 -283Q317 -299 312 -318Q319 -334 303 -350Q296 -365 282 -357Q271 -354 221 -344Q195 -336 174 -342Q152 -340 135 -355Q120 -374 116 -388Q111 -402 117 -415Q124 -437 144 -456Q155 -459 162 -466Q192 -502 209 -519Q230 -544 251 -570Q252 -574 256 -578Q259 -582 256 -586Q244 -587 236 -594Q215 -599 211 -601Q203 -603 204 -608Q230 -613 254 -616Q256 -617 306 -625Q318 -628 331 -631Q343 -634 354 -644Z"/>
</svg>