<svg xmlns="http://www.w3.org/2000/svg" viewBox="0 -800 1024 1024">
	<path fill="#000000" d="M631 -651L640 -646Q648 -645 656 -645Q664 -643 674 -645Q684 -646 687 -636Q691 -634 691 -630Q691 -626 692 -625Q700 -617 685 -614Q684 -609 676 -602Q669 -602 661 -602Q656 -599 648 -600Q638 -601 635 -599Q622 -599 609 -599Q600 -597 591 -596Q578 -598 564 -600Q560 -597 554 -602Q549 -605 547 -602Q546 -602 532 -610Q522 -615 517 -613Q515 -615 509 -613Q503 -611 501 -614Q515 -620 522 -625Q541 -628 548 -633Q561 -632 573 -637Q575 -637 610 -643Q616 -644 622 -645Q628 -645 631 -651ZM302 -642Q319 -636 336 -631Q344 -628 349 -612Q352 -601 352 -588Q350 -579 351 -563Q352 -540 347 -531Q347 -527 347 -524L346 -511Q346 -507 346 -504Q343 -485 344 -464Q341 -458 342 -443Q343 -430 340 -424Q344 -405 339 -397Q341 -386 338 -379Q337 -377 337 -357Q336 -355 337 -347Q338 -338 335 -334Q333 -316 331 -299Q337 -279 336 -260Q336 -252 336 -244Q337 -234 337 -213Q343 -202 338 -174Q337 -170 341 -164Q345 -159 343 -156L344 -126Q340 -121 341 -111Q342 -101 340 -98Q343 -93 338 -87Q334 -83 336 -79Q329 -76 328 -67Q329 -62 326 -62Q321 -61 319 -67Q315 -64 312 -61Q309 -58 305 -61Q294 -68 290 -90Q287 -107 283 -113Q279 -118 276 -130Q274 -140 271 -144Q270 -146 270 -147Q274 -146 279 -138Q284 -135 287 -139Q289 -142 288 -147Q291 -154 289 -172Q292 -183 289 -206Q287 -223 288 -232Q288 -243 287 -255Q287 -270 288 -276Q284 -321 287 -353Q288 -359 287 -366Q285 -370 280 -367Q277 -361 261 -341Q256 -337 250 -325Q246 -325 246 -318Q246 -313 242 -311Q234 -309 225 -308Q216 -315 209 -326Q205 -326 205 -332Q205 -336 204 -337Q206 -342 200 -347Q195 -351 195 -355Q193 -360 191 -359Q187 -355 187 -350Q187 -337 186 -325Q185 -320 186 -316Q187 -311 183 -307Q178 -295 178 -285Q173 -276 169 -254Q167 -251 166 -243Q165 -233 161 -230Q163 -216 151 -193Q141 -175 141 -164Q136 -159 141 -151Q136 -149 134 -142Q133 -136 129 -134Q126 -135 121 -129Q118 -126 116 -125Q115 -127 112 -130L105 -140Q104 -142 101 -145Q102 -154 99 -162Q94 -177 95 -180Q93 -193 106 -206Q119 -247 135 -286Q143 -340 148 -400Q150 -420 151 -440Q158 -471 151 -499V-525Q148 -531 154 -541Q159 -550 158 -555Q158 -569 168 -577Q172 -587 184 -595Q191 -594 204 -603Q236 -623 270 -635Q286 -638 302 -642ZM284 -598L280 -596Q272 -594 257 -585Q242 -576 235 -574Q230 -571 217 -572Q203 -573 196 -568Q195 -564 187 -564Q181 -564 179 -562Q177 -554 178 -550Q178 -520 186 -494Q189 -491 191 -483Q193 -476 195 -474Q202 -477 209 -476Q215 -485 234 -487Q238 -485 239 -484L251 -481Q252 -480 256 -478Q269 -480 272 -469Q275 -459 267 -452Q260 -450 260 -440Q260 -436 261 -424Q262 -420 262 -414Q262 -407 268 -408L290 -424Q295 -451 295 -457Q299 -481 295 -506Q295 -519 295 -532Q297 -551 297 -575Q296 -581 295 -589Q294 -600 284 -598ZM626 -547H628Q643 -541 655 -531Q663 -527 673 -530Q682 -533 690 -536Q700 -532 711 -538Q719 -538 746 -543Q766 -543 786 -543Q832 -541 849 -525Q848 -520 854 -515Q859 -510 859 -506Q861 -504 861 -499Q861 -494 864 -492Q869 -492 869 -486Q869 -479 865 -477Q870 -460 861 -446Q861 -442 856 -437Q850 -431 850 -427Q850 -421 846 -420Q842 -418 839 -416Q840 -406 826 -396Q816 -389 813 -383Q807 -386 802 -387Q799 -386 799 -381Q797 -380 796 -375Q795 -370 791 -371Q786 -365 779 -362Q777 -359 775 -354Q773 -352 771 -355Q772 -366 763 -354Q765 -346 761 -339Q757 -332 748 -331Q733 -316 722 -322Q714 -318 705 -318Q679 -316 655 -312Q637 -308 623 -307Q622 -304 618 -306Q613 -309 611 -305Q608 -303 609 -302Q615 -298 621 -300Q647 -290 653 -283Q659 -264 658 -260Q657 -248 650 -238Q651 -233 645 -226Q639 -219 641 -215Q645 -214 659 -216Q662 -216 664 -216H673Q676 -216 678 -216Q691 -217 703 -222Q707 -239 703 -247Q701 -252 699 -251Q694 -247 688 -244Q690 -249 689 -254Q689 -258 695 -260Q702 -263 708 -268Q714 -273 722 -271Q736 -264 751 -260Q760 -258 762 -250Q763 -242 765 -235Q784 -232 802 -237Q820 -241 841 -241Q852 -242 863 -243Q868 -234 875 -233Q886 -232 896 -232Q898 -224 902 -219Q902 -217 907 -214Q914 -210 911 -205Q907 -199 902 -204Q897 -206 895 -203Q893 -200 899 -197Q902 -191 898 -190Q892 -189 886 -189Q884 -194 881 -192Q877 -190 879 -186Q881 -183 880 -182Q877 -181 876 -186Q874 -191 871 -189Q868 -187 867 -183H831Q813 -181 795 -180Q780 -179 764 -178Q752 -175 745 -163Q744 -151 730 -127Q730 -123 724 -121Q719 -120 719 -117Q713 -123 710 -110Q706 -96 721 -95Q757 -83 793 -74Q797 -68 811 -65Q824 -62 828 -56Q849 -52 853 -45Q858 -43 864 -43Q869 -43 872 -37Q881 -34 884 -33Q891 -30 890 -23Q901 -18 892 -7Q892 -2 885 3Q878 8 877 12Q867 10 841 1Q814 -18 787 -26Q758 -38 726 -47Q723 -49 716 -51Q708 -53 705 -56Q695 -58 685 -60Q679 -64 673 -60Q666 -56 660 -53Q658 -47 653 -43Q648 -40 643 -36Q642 -36 640 -36L634 -33Q633 -33 631 -33Q610 -12 599 -7Q594 -4 590 -9Q587 -11 585 -6Q577 -2 571 -2Q561 -2 555 -9Q551 -5 546 -9Q542 -12 540 -11Q543 -17 553 -20Q562 -23 565 -27Q570 -28 578 -35Q585 -41 590 -42Q593 -46 603 -54Q615 -64 620 -72Q624 -76 623 -77Q619 -79 615 -80Q602 -82 589 -85Q577 -88 570 -98Q560 -102 558 -120Q547 -131 550 -145Q553 -150 551 -152Q548 -154 545 -155Q534 -151 523 -147Q513 -144 501 -144Q477 -143 450 -147Q442 -155 434 -158Q421 -159 421 -162Q422 -162 424 -162Q433 -166 442 -171Q462 -175 498 -185Q508 -188 518 -191Q531 -193 544 -195Q554 -199 559 -200Q583 -200 584 -217Q603 -248 607 -279Q612 -286 608 -295Q603 -305 595 -302Q573 -300 550 -299Q542 -297 509 -305Q504 -304 496 -307Q485 -311 479 -308Q464 -314 454 -323Q435 -335 424 -350Q417 -358 415 -369Q412 -381 408 -391Q405 -414 413 -435Q414 -451 427 -467Q431 -471 436 -481Q440 -490 445 -493Q447 -503 456 -509Q465 -516 470 -523Q473 -529 482 -529Q492 -529 495 -520Q500 -518 497 -508Q494 -498 499 -495Q501 -490 504 -492Q507 -494 510 -497Q529 -502 548 -508Q550 -514 550 -519Q550 -525 556 -528Q560 -518 572 -511Q586 -515 602 -517Q613 -518 623 -520Q628 -536 611 -544Q622 -540 626 -547ZM777 -500L762 -499Q750 -498 738 -497Q725 -494 712 -492Q696 -491 683 -487Q674 -486 672 -479Q669 -473 666 -466Q663 -455 663 -442Q661 -429 659 -416Q658 -404 647 -384Q648 -379 645 -371Q641 -360 643 -355Q676 -357 691 -364Q710 -365 726 -365Q728 -369 732 -367Q736 -365 737 -366Q734 -370 736 -373Q738 -376 742 -376Q755 -384 764 -396Q768 -399 769 -409Q770 -415 772 -418Q796 -445 804 -479Q806 -490 796 -497Q787 -503 777 -500ZM606 -473Q593 -475 584 -466Q581 -435 577 -405Q576 -402 574 -388Q572 -372 566 -364Q565 -357 562 -351Q560 -344 564 -338Q591 -342 596 -353Q596 -376 602 -383Q601 -399 610 -428Q616 -449 617 -462Q620 -468 616 -472Q612 -476 606 -473ZM212 -463Q211 -461 217 -455Q219 -454 221 -455Q224 -455 222 -459Q219 -469 212 -463ZM480 -463Q476 -456 468 -447Q465 -434 462 -422Q462 -418 458 -412Q453 -406 454 -401Q448 -396 450 -380Q448 -372 461 -364Q472 -357 470 -350Q469 -341 475 -338Q482 -336 488 -332Q508 -334 525 -331Q533 -335 529 -340Q526 -345 523 -350Q524 -353 521 -356Q518 -360 521 -364Q524 -361 527 -366Q530 -371 529 -375Q534 -380 534 -396Q534 -411 539 -417Q544 -438 544 -460Q539 -465 534 -462Q529 -459 524 -459Q513 -459 501 -459Q492 -464 480 -463ZM196 -458Q193 -437 196 -418Q196 -416 196 -414L195 -406Q195 -404 195 -402Q193 -385 196 -372Q203 -376 209 -380Q217 -391 223 -431Q227 -441 217 -451Q207 -461 196 -458ZM659 -168Q642 -164 624 -163Q614 -163 610 -157Q606 -151 601 -145Q600 -140 594 -137Q589 -134 589 -133Q586 -124 593 -122Q601 -120 606 -118Q624 -117 640 -113Q644 -114 651 -111Q658 -108 661 -111Q679 -129 688 -162Q692 -168 679 -168Q668 -166 659 -168Z"/>
</svg>