<svg xmlns="http://www.w3.org/2000/svg" viewBox="0 -800 1024 1024">
	<path fill="#000000" d="M321 -663H326Q340 -664 354 -662Q361 -663 367 -659Q372 -654 378 -650Q379 -645 385 -641Q391 -637 391 -633Q397 -619 399 -604Q406 -592 400 -582Q394 -574 397 -567Q399 -559 400 -552Q397 -544 400 -535Q396 -531 399 -524Q400 -521 397 -517Q393 -513 396 -509Q396 -498 386 -451Q388 -447 387 -437Q386 -425 391 -422Q393 -423 404 -434Q412 -446 417 -445Q419 -444 417 -441Q416 -431 408 -422Q405 -416 403 -410Q402 -405 396 -402Q395 -399 391 -393Q386 -386 387 -380Q384 -363 386 -347Q388 -342 383 -336Q379 -332 380 -330Q384 -327 386 -311Q384 -308 386 -301Q388 -294 384 -291Q386 -261 385 -253Q388 -246 388 -230Q388 -218 389 -212Q387 -208 389 -198Q391 -191 389 -186Q387 -168 385 -151Q386 -141 386 -131Q383 -125 384 -114Q385 -102 383 -98Q384 -68 369 -37Q363 -38 362 -31Q357 -35 355 -41Q352 -47 346 -42Q343 -40 342 -42Q340 -48 335 -52Q329 -69 322 -87Q318 -101 314 -116Q328 -114 332 -121Q336 -125 335 -135Q334 -143 336 -147Q336 -162 336 -178Q340 -218 343 -259Q344 -267 344 -275Q344 -296 343 -317Q343 -321 341 -321Q338 -319 334 -316Q332 -312 328 -313Q324 -314 322 -312Q325 -306 321 -302Q318 -299 315 -293Q312 -287 306 -290Q306 -287 296 -274Q291 -274 290 -270Q288 -266 287 -263Q284 -251 275 -242Q253 -245 250 -267Q246 -276 244 -286Q237 -285 233 -291Q229 -297 231 -303Q229 -312 236 -316Q242 -321 249 -324Q269 -367 281 -414Q273 -423 261 -425Q253 -428 245 -432Q242 -432 240 -426Q243 -420 238 -397Q235 -386 234 -375Q234 -366 234 -358Q226 -323 227 -314Q218 -299 217 -279Q212 -257 206 -235Q205 -232 204 -229L201 -216Q200 -213 199 -210Q194 -200 192 -190Q189 -177 182 -168Q175 -152 167 -140Q163 -136 160 -132Q158 -127 152 -130Q149 -125 144 -128Q139 -130 136 -131Q131 -131 128 -135Q127 -137 123 -144Q124 -147 121 -152Q118 -157 119 -162Q121 -167 116 -173Q112 -178 112 -182Q110 -191 115 -195Q120 -199 124 -205Q136 -226 144 -248Q153 -275 162 -303Q165 -317 168 -332Q170 -337 175 -362Q179 -391 187 -420Q186 -446 191 -473Q189 -502 192 -530Q187 -552 210 -585Q217 -590 213 -595Q210 -599 202 -601Q202 -604 199 -606Q195 -608 196 -611Q208 -614 219 -617Q229 -619 250 -630Q263 -637 273 -640Q297 -656 321 -663ZM538 -640Q543 -641 551 -633Q553 -628 557 -630Q561 -631 566 -631Q573 -624 582 -629Q599 -627 616 -626Q626 -624 636 -622Q650 -617 665 -607Q668 -605 671 -596Q673 -587 678 -585Q683 -585 684 -580Q685 -575 683 -571Q678 -568 678 -560Q678 -553 675 -550Q660 -550 645 -550Q635 -553 625 -554Q614 -555 607 -561Q600 -562 583 -569Q579 -569 572 -574Q564 -579 559 -579Q557 -580 543 -589Q536 -592 526 -602Q517 -611 511 -614Q506 -617 504 -621Q503 -625 508 -625Q525 -628 538 -640ZM341 -621Q328 -617 311 -607Q289 -594 278 -592Q269 -588 259 -584Q250 -578 239 -580Q237 -560 225 -548Q225 -539 225 -530L227 -512Q227 -493 234 -479Q237 -475 236 -465Q235 -454 239 -450Q254 -449 270 -455Q281 -463 294 -460Q310 -465 322 -461Q327 -463 335 -458Q343 -453 346 -457Q348 -485 350 -513Q352 -537 355 -561Q358 -585 351 -606Q347 -623 341 -621ZM837 -542Q843 -543 868 -538Q874 -537 881 -535Q888 -533 888 -525Q882 -519 888 -509Q890 -502 884 -500Q879 -497 874 -495Q872 -491 869 -486Q865 -481 861 -483Q840 -484 824 -478Q812 -479 800 -474Q789 -475 769 -469Q754 -465 738 -465Q736 -464 733 -464L721 -461Q718 -461 716 -460Q697 -457 678 -455Q650 -449 622 -443Q631 -443 634 -441Q654 -432 661 -426Q667 -420 667 -411Q668 -402 669 -394Q671 -380 669 -367Q661 -364 671 -361Q682 -362 692 -363Q713 -366 733 -369Q735 -368 742 -369Q751 -370 755 -367Q758 -365 766 -365Q776 -365 779 -363Q806 -360 828 -338Q827 -334 833 -328Q839 -322 839 -318Q836 -314 842 -306Q848 -299 846 -294Q843 -281 839 -269Q839 -255 837 -251Q825 -243 825 -221Q820 -217 817 -206Q815 -200 812 -195Q802 -169 789 -147Q780 -126 780 -125Q776 -121 763 -101Q754 -87 744 -74Q730 -51 699 -26Q683 -22 680 -13Q676 -11 664 -1Q657 -3 649 3Q641 -1 637 -9Q633 -17 630 -23Q620 -41 609 -58Q607 -70 587 -83Q584 -87 586 -88Q590 -89 594 -86Q607 -82 623 -81Q637 -73 647 -73Q656 -67 673 -76Q697 -101 717 -130Q733 -154 737 -167Q747 -184 761 -218Q769 -238 777 -259Q782 -276 783 -291Q781 -317 765 -325Q724 -327 704 -326Q680 -324 673 -328Q664 -331 654 -334Q650 -334 647 -330Q633 -308 623 -283Q603 -261 589 -235Q584 -232 581 -224Q578 -217 575 -214Q568 -211 562 -202Q554 -190 551 -187Q538 -174 524 -161Q521 -158 511 -152Q501 -146 497 -140Q489 -134 483 -125Q478 -117 467 -116Q464 -119 466 -123Q468 -127 469 -130Q470 -138 471 -146Q485 -164 499 -183Q511 -201 523 -219Q551 -268 555 -277Q572 -307 582 -338Q591 -354 596 -372Q595 -378 599 -390Q603 -400 601 -406Q598 -414 594 -421Q591 -428 584 -430Q579 -432 566 -427Q557 -423 553 -424Q536 -422 519 -414Q503 -410 499 -410Q485 -413 470 -417Q464 -420 453 -423Q436 -427 430 -433Q428 -448 453 -448Q466 -454 485 -458Q506 -462 515 -466Q567 -480 575 -482Q591 -488 612 -491Q677 -506 741 -524Q745 -523 753 -527Q759 -530 763 -529Q781 -524 785 -533Q787 -538 794 -538Q800 -538 802 -541Q810 -540 820 -538Q829 -537 837 -542ZM341 -423L317 -421Q309 -415 308 -408Q306 -401 304 -394Q305 -381 296 -369Q298 -366 296 -357Q294 -351 296 -347Q305 -347 309 -353Q321 -361 334 -376Q342 -380 344 -389Q345 -398 345 -407Q345 -411 345 -417Q345 -424 341 -423Z"/>
</svg>