<svg xmlns="http://www.w3.org/2000/svg" viewBox="0 -800 1024 1024">
	<path fill="#000000" d="M864 -320Q875 -323 885 -321Q883 -316 886 -315Q891 -314 893 -321Q900 -321 907 -315Q914 -309 909 -302Q903 -290 918 -285Q921 -291 923 -284Q920 -283 917 -274Q914 -283 904 -269Q904 -263 900 -262Q893 -263 885 -264Q883 -262 879 -264Q874 -266 871 -262Q866 -263 849 -261Q847 -259 839 -260Q832 -261 831 -258Q825 -257 818 -257Q801 -248 782 -249Q777 -242 780 -231Q783 -201 780 -168Q778 -159 785 -139Q785 -107 784 -76Q786 -53 782 -34Q780 -25 780 -16Q787 0 773 11Q779 22 770 32Q768 37 761 34Q755 32 753 33Q750 28 747 35Q734 28 729 14Q726 8 716 10Q709 10 709 5Q711 3 710 -4Q709 -11 713 -12Q725 -16 725 -26Q726 -37 728 -47Q729 -65 729 -83Q731 -134 729 -188Q729 -213 727 -220Q727 -227 727 -234Q712 -230 696 -227L668 -221Q651 -218 639 -214Q612 -208 585 -203Q580 -204 576 -200Q573 -196 571 -189Q568 -164 564 -139Q564 -123 567 -106Q570 -89 557 -80Q547 -81 536 -82Q525 -97 514 -112Q510 -117 512 -127Q514 -136 511 -140Q511 -153 516 -166Q511 -179 511 -193Q508 -194 505 -195L489 -198Q485 -200 483 -200Q464 -208 444 -216Q435 -217 434 -222Q433 -226 444 -227Q450 -228 456 -230L480 -233Q486 -234 492 -236Q499 -236 506 -239Q512 -242 518 -241Q525 -244 527 -259Q531 -291 537 -313Q543 -325 548 -338Q555 -353 558 -370Q569 -382 577 -395Q566 -405 551 -408Q547 -415 543 -423Q565 -422 581 -433Q609 -442 631 -452Q639 -457 648 -460Q657 -463 661 -471Q669 -476 672 -484Q675 -492 680 -500Q681 -503 686 -506Q690 -508 691 -511Q704 -540 727 -567Q741 -603 743 -608Q747 -615 744 -626Q742 -635 733 -631Q722 -634 706 -627Q693 -630 684 -624Q671 -619 641 -602Q632 -598 623 -591Q602 -572 597 -563Q591 -563 591 -560Q592 -549 593 -539Q593 -530 585 -539Q579 -531 575 -528Q571 -522 567 -525Q563 -527 562 -532Q556 -534 553 -540Q550 -547 546 -551Q541 -554 541 -560Q540 -566 538 -570Q538 -572 538 -574V-582Q538 -602 551 -624Q551 -631 551 -639Q557 -640 563 -641Q565 -636 573 -627Q583 -615 585 -606Q591 -602 590 -595Q590 -587 597 -587Q618 -602 638 -615Q652 -627 691 -649Q699 -657 711 -663Q721 -664 742 -677Q748 -677 748 -676Q752 -680 761 -674Q771 -667 784 -663Q801 -663 803 -651Q803 -643 811 -641Q813 -620 809 -603Q808 -592 801 -584Q801 -567 785 -562Q779 -559 776 -554Q773 -548 770 -543Q764 -542 756 -529Q749 -518 743 -516Q738 -521 736 -519Q733 -513 732 -508Q728 -509 726 -505Q728 -500 720 -495Q714 -491 714 -488Q714 -483 718 -484Q722 -484 726 -483Q741 -485 749 -483Q750 -481 751 -481Q755 -482 758 -483Q759 -483 759 -481Q765 -470 770 -460Q769 -456 774 -452Q778 -449 776 -447Q777 -441 773 -437Q769 -433 764 -435Q762 -434 756 -433Q749 -432 747 -428Q752 -423 753 -417Q766 -396 762 -380Q765 -367 768 -355Q768 -342 766 -328Q768 -317 770 -307Q781 -304 796 -317Q803 -322 803 -327Q808 -329 808 -333Q809 -334 811 -332Q813 -328 819 -330Q823 -331 825 -330Q826 -327 844 -325Q854 -322 864 -320ZM345 -626H352Q365 -626 371 -623Q377 -614 382 -609Q390 -610 397 -602Q401 -597 406 -587Q404 -577 410 -560Q407 -551 408 -530Q409 -518 407 -509Q406 -499 404 -489Q404 -469 403 -449Q401 -436 399 -423Q396 -406 399 -390Q395 -381 397 -365Q399 -348 397 -341Q399 -336 395 -326Q394 -318 396 -307Q399 -291 395 -284Q397 -272 399 -260Q401 -254 400 -246Q398 -236 399 -233Q401 -222 400 -211Q401 -189 402 -168Q405 -162 403 -145Q401 -130 404 -122Q406 -108 401 -98Q405 -81 403 -75Q398 -71 395 -62Q392 -53 388 -49Q384 -45 376 -46Q374 -45 377 -41Q373 -36 368 -31Q358 -32 350 -48Q343 -61 337 -64Q331 -72 332 -80Q328 -87 318 -97Q316 -100 317 -102Q324 -105 321 -109Q312 -118 303 -120Q302 -123 297 -124Q291 -125 291 -128Q299 -124 313 -120Q316 -119 321 -118Q326 -117 325 -114Q329 -108 336 -115Q341 -111 347 -114Q353 -117 351 -124Q352 -135 352 -146L351 -233Q348 -282 349 -320Q350 -375 351 -431Q354 -455 353 -479Q356 -485 357 -499Q358 -514 361 -520Q361 -544 361 -568Q357 -573 352 -573Q343 -569 334 -566Q315 -544 278 -546Q273 -542 263 -545Q254 -548 250 -546Q247 -526 252 -519Q252 -507 251 -495Q253 -489 250 -476Q248 -467 249 -460Q249 -454 248 -449Q246 -443 250 -441Q259 -446 276 -449Q293 -452 299 -455Q315 -455 328 -450Q329 -448 329 -445L331 -435Q332 -432 332 -430Q329 -418 325 -406Q310 -404 295 -403Q292 -402 273 -402Q261 -402 248 -406Q242 -406 242 -398Q242 -391 239 -389Q238 -377 236 -366Q235 -354 231 -345Q229 -328 231 -317Q235 -315 244 -320Q251 -324 254 -324Q262 -331 272 -332Q286 -334 299 -337Q306 -337 310 -334Q324 -332 324 -309Q321 -307 317 -304Q313 -302 313 -297Q301 -289 293 -290Q286 -293 279 -290Q272 -287 265 -286Q244 -281 221 -280Q215 -265 213 -248Q212 -237 208 -227Q203 -225 201 -216Q200 -210 197 -210L184 -186Q179 -170 167 -157Q161 -147 155 -138Q149 -129 137 -127Q132 -121 123 -119Q122 -118 121 -117Q118 -108 114 -110Q104 -119 116 -128Q132 -165 137 -196Q145 -210 152 -236Q157 -255 161 -275Q166 -285 169 -306Q171 -325 174 -332Q182 -369 184 -406L190 -445Q189 -467 191 -488Q193 -510 186 -529Q185 -537 179 -538Q172 -540 167 -543Q168 -549 164 -552Q160 -555 156 -557Q151 -562 155 -565Q160 -568 162 -563Q167 -564 172 -568Q180 -574 184 -572Q196 -573 208 -569Q214 -572 228 -568Q233 -572 239 -570Q245 -568 250 -568Q282 -584 305 -604Q330 -621 345 -626ZM711 -394Q708 -421 699 -417Q677 -414 654 -405Q628 -394 600 -396Q595 -394 596 -388Q596 -379 604 -371Q605 -360 605 -350Q596 -337 593 -324Q588 -323 590 -317Q592 -311 589 -309Q579 -276 579 -270Q577 -262 578 -257Q579 -256 581 -258Q624 -267 653 -272Q690 -282 726 -293Q727 -311 724 -328Q724 -338 723 -348Q717 -371 711 -394Z"/>
</svg>