<svg xmlns="http://www.w3.org/2000/svg" viewBox="0 -800 1024 1024">
	<path fill="#000000" d="M556 -762H559Q572 -755 585 -748Q600 -733 603 -716Q604 -713 601 -707Q598 -700 601 -697Q606 -695 619 -700Q635 -707 653 -709Q674 -720 707 -718Q714 -717 722 -716Q731 -716 734 -707Q732 -699 725 -694Q719 -689 713 -683Q702 -678 691 -674Q677 -665 663 -657Q649 -649 634 -641Q627 -637 620 -635Q612 -632 611 -623Q611 -614 611 -606Q606 -591 605 -589Q605 -585 607 -585Q612 -585 618 -588Q634 -597 651 -603Q665 -610 697 -616Q704 -619 715 -614Q725 -610 730 -610Q737 -608 742 -597Q747 -587 750 -584Q757 -581 757 -564Q748 -552 756 -544Q758 -542 762 -532Q758 -520 758 -514Q752 -504 754 -490Q754 -463 752 -455Q749 -448 749 -430Q749 -412 745 -404Q745 -398 744 -392Q739 -374 740 -368Q737 -358 734 -348V-317Q727 -311 719 -306Q710 -302 706 -292Q681 -267 658 -241Q648 -241 645 -233Q642 -225 638 -218Q636 -213 627 -207Q620 -203 618 -200Q613 -189 595 -172Q580 -157 574 -148Q559 -135 548 -121Q541 -110 530 -104Q526 -99 515 -91Q501 -81 497 -74Q484 -67 474 -55Q460 -50 445 -45Q431 -39 419 -49Q414 -54 409 -56Q405 -59 410 -63Q428 -62 442 -74Q471 -99 500 -124Q511 -140 530 -156Q532 -161 546 -175Q541 -184 548 -187Q553 -191 551 -195Q550 -199 550 -203Q551 -205 557 -206Q563 -207 564 -210Q566 -214 573 -217Q581 -220 582 -224Q595 -246 620 -274Q621 -277 624 -282Q628 -288 628 -291Q625 -296 620 -294Q615 -291 611 -291Q598 -294 596 -282Q596 -279 592 -278Q588 -277 587 -276Q581 -277 575 -269Q571 -264 568 -263Q563 -264 555 -260Q547 -256 543 -258Q538 -258 538 -262Q538 -265 542 -268Q545 -276 540 -282Q535 -288 531 -294Q524 -304 537 -317Q540 -322 534 -328Q530 -333 531 -337Q538 -345 528 -357Q525 -364 528 -369Q531 -374 534 -378Q532 -389 535 -401Q538 -417 542 -449Q542 -463 544 -468Q548 -503 551 -539Q553 -563 555 -567Q553 -595 566 -613Q570 -617 570 -624Q570 -632 564 -633Q559 -631 558 -635Q557 -639 556 -641Q554 -646 547 -647Q542 -648 540 -650Q531 -656 531 -677Q531 -697 538 -706Q542 -720 554 -738Q554 -757 556 -762ZM310 -687Q312 -687 321 -683Q331 -680 340 -677Q349 -682 360 -671Q366 -668 369 -661Q371 -655 374 -649Q387 -637 377 -623Q369 -616 379 -604Q382 -593 375 -582Q376 -571 373 -558Q369 -553 372 -544Q374 -537 374 -534Q374 -522 370 -511Q364 -506 367 -499Q370 -492 370 -484Q367 -478 365 -454Q360 -446 364 -430Q367 -418 366 -412Q363 -408 363 -396Q363 -387 362 -383Q363 -379 363 -359Q364 -354 364 -350Q364 -338 363 -327Q360 -322 363 -314Q365 -307 365 -303Q363 -293 366 -280Q365 -263 364 -246Q365 -222 365 -198Q367 -179 368 -161Q368 -150 368 -139Q365 -120 361 -101Q359 -96 358 -90Q357 -84 351 -81Q347 -81 344 -76Q341 -70 337 -71Q332 -80 324 -82Q320 -84 314 -99Q313 -104 304 -107Q297 -109 296 -113Q297 -122 291 -128Q281 -154 279 -156Q270 -171 275 -174L286 -162Q293 -151 304 -151Q309 -151 311 -156Q309 -183 311 -208Q307 -236 309 -276Q309 -318 309 -361Q311 -377 313 -393Q314 -400 309 -400Q308 -399 308 -396Q302 -388 300 -378Q301 -374 295 -367Q291 -362 290 -359Q285 -357 280 -347Q276 -340 272 -338Q265 -335 265 -328Q266 -322 263 -316Q259 -311 254 -311Q250 -311 237 -321Q232 -323 228 -331Q224 -340 219 -341Q207 -348 211 -370Q212 -388 218 -404Q219 -411 220 -419L224 -449Q225 -456 226 -464Q228 -473 224 -479Q220 -486 212 -482Q197 -484 194 -488Q191 -499 205 -501Q210 -501 220 -505Q229 -509 236 -509Q240 -512 247 -508Q254 -504 258 -506Q273 -512 283 -494Q285 -489 279 -483Q272 -476 273 -472Q279 -454 273 -441Q269 -432 267 -412Q263 -406 268 -401Q273 -396 278 -403Q295 -423 309 -444Q312 -463 314 -483Q312 -500 320 -519Q320 -560 323 -572Q324 -588 325 -604Q324 -621 323 -639Q322 -649 314 -651Q284 -640 269 -630Q257 -620 245 -613Q233 -612 224 -618Q216 -620 207 -623Q198 -626 194 -614Q187 -601 187 -586Q192 -581 189 -573Q186 -564 187 -553Q192 -518 188 -502Q195 -489 190 -474Q187 -464 187 -451Q187 -428 188 -425Q189 -401 183 -378Q184 -354 179 -332Q174 -328 176 -323Q177 -317 178 -312Q180 -307 175 -299Q170 -291 171 -286Q172 -265 163 -246Q164 -243 161 -240L156 -236Q154 -221 148 -207Q145 -182 122 -172Q113 -182 107 -193Q98 -214 94 -217Q91 -221 96 -226Q100 -230 100 -232Q93 -244 107 -248Q113 -255 122 -285Q126 -289 124 -299Q122 -307 125 -311Q128 -318 130 -326Q130 -339 133 -350Q135 -364 137 -379Q141 -397 144 -415Q144 -439 149 -461Q152 -481 152 -544Q152 -568 156 -590Q155 -611 176 -638Q177 -645 183 -644Q189 -643 193 -638Q219 -646 239 -664Q269 -680 287 -683Q299 -681 310 -687ZM686 -573Q680 -574 673 -571Q657 -566 625 -558Q622 -557 616 -558Q608 -560 606 -555Q608 -545 606 -540Q604 -533 600 -526Q596 -519 600 -512Q599 -498 597 -485Q595 -470 599 -457Q648 -460 658 -457Q660 -455 666 -455Q674 -455 676 -451L671 -436Q671 -431 666 -429Q661 -427 657 -425Q644 -422 627 -429Q611 -435 599 -446Q593 -440 596 -429Q595 -417 593 -405Q592 -392 590 -379Q593 -375 590 -364Q588 -358 589 -352Q590 -350 587 -332Q590 -325 597 -327Q603 -330 609 -332Q645 -342 667 -341Q675 -350 673 -363Q676 -377 679 -391Q684 -410 688 -430Q689 -436 689 -443Q693 -481 696 -519Q701 -548 697 -559Q698 -566 695 -571Q692 -577 686 -573ZM743 -254Q761 -246 768 -250Q775 -255 783 -254Q792 -253 801 -253Q816 -250 832 -242Q849 -236 845 -211Q837 -196 831 -179Q830 -175 820 -162Q818 -158 817 -155L809 -143Q808 -140 806 -136Q789 -119 775 -99Q767 -94 762 -87Q757 -80 752 -73Q748 -71 743 -68Q739 -66 743 -61Q765 -55 786 -49Q794 -46 801 -44Q810 -44 819 -37Q826 -38 835 -33Q857 -32 885 -16Q892 -16 902 -8Q911 -1 916 0Q923 3 930 8Q938 13 937 23Q942 28 938 36Q934 43 927 42Q921 38 916 46Q912 52 908 52Q891 41 873 34Q863 29 843 21L813 9Q798 7 787 0Q776 -1 767 -4Q761 -10 746 -10Q730 -15 713 -21Q702 -26 691 -26Q681 -28 675 -21Q668 -15 661 -11Q653 -13 644 -5Q638 0 634 1Q622 -7 611 2Q607 5 603 3Q599 1 600 -4Q609 -12 618 -21Q634 -37 626 -41Q623 -43 618 -42Q614 -41 613 -42Q579 -44 564 -48Q544 -44 528 -54Q526 -56 517 -56Q505 -57 504 -63Q514 -68 525 -70Q560 -75 590 -75Q621 -74 652 -73Q663 -78 671 -69Q679 -72 689 -81Q706 -93 719 -109Q755 -145 780 -189Q785 -200 789 -212Q790 -220 783 -224Q781 -225 771 -228Q757 -221 727 -234Q721 -237 721 -243Q722 -249 729 -248Q733 -246 736 -249Q739 -253 743 -254Z"/>
</svg>