<svg xmlns="http://www.w3.org/2000/svg" viewBox="0 -800 1024 1024">
	<path fill="#000000" d="M463 -176Q460 -163 457 -151Q451 -135 454 -116Q453 -106 452 -97Q447 -91 448 -71Q448 -58 446 -51Q444 -33 443 -12Q439 -5 441 10Q446 31 441 40Q438 46 433 44Q427 42 423 40Q406 25 391 10Q383 -15 390 -29Q391 -30 391 -33L394 -40Q395 -42 395 -44Q397 -57 398 -70Q401 -85 403 -101Q404 -117 408 -131Q410 -156 412 -181Q419 -208 422 -217Q433 -254 434 -255Q449 -301 461 -316Q465 -319 464 -323Q463 -327 458 -325Q446 -323 433 -322Q425 -317 413 -318Q404 -314 395 -311Q388 -311 385 -310L379 -307Q376 -306 369 -306Q362 -302 354 -302Q349 -303 341 -300Q333 -297 329 -298Q315 -294 308 -294Q294 -290 287 -290Q283 -292 277 -288Q273 -286 270 -286Q267 -285 241 -282Q214 -277 205 -282Q181 -282 167 -287Q161 -290 154 -291Q151 -292 153 -296Q166 -298 179 -301Q192 -305 205 -309Q216 -311 226 -313Q238 -318 250 -317Q259 -317 266 -322Q278 -325 291 -325Q300 -327 309 -329Q322 -334 338 -333Q351 -342 363 -340Q378 -347 392 -348Q405 -352 417 -357Q423 -364 423 -372Q426 -391 434 -402Q438 -406 437 -412Q436 -417 431 -415Q403 -413 380 -418Q373 -421 373 -424Q376 -427 381 -429Q385 -430 388 -432L401 -439Q404 -440 408 -442Q416 -444 423 -446Q425 -449 439 -449Q445 -449 449 -453Q450 -468 453 -483Q451 -489 452 -495Q453 -502 448 -505Q431 -508 413 -509Q411 -512 403 -513Q399 -513 397 -515Q387 -518 378 -517Q373 -518 374 -522Q376 -526 382 -524Q390 -531 400 -532Q402 -536 408 -536Q413 -536 415 -538Q423 -543 434 -543Q442 -548 452 -550Q460 -553 460 -561Q461 -569 461 -576Q456 -583 452 -584Q451 -586 446 -587Q441 -588 442 -592Q448 -596 458 -595Q465 -597 474 -594Q483 -592 490 -606Q495 -616 500 -626Q503 -635 496 -636Q468 -636 454 -630Q436 -627 419 -623Q414 -624 404 -622Q394 -619 389 -622Q368 -626 349 -626Q326 -631 311 -639Q303 -646 318 -646Q330 -648 341 -651Q361 -654 382 -654Q396 -655 410 -657Q431 -661 452 -665Q459 -665 473 -669Q485 -673 493 -673Q506 -676 518 -679Q531 -691 539 -705Q547 -719 556 -732Q563 -743 567 -755Q568 -761 561 -763Q554 -765 550 -762Q540 -762 532 -760Q516 -759 502 -756Q475 -756 463 -754Q460 -752 453 -752Q445 -752 442 -748Q420 -746 397 -719Q390 -711 397 -694Q401 -692 401 -689Q401 -685 396 -684Q387 -678 380 -688Q373 -688 368 -697L362 -715Q356 -718 354 -728Q356 -748 368 -758Q371 -765 378 -761Q384 -757 386 -751Q388 -747 387 -741Q386 -736 391 -732Q397 -733 410 -742Q420 -749 427 -751Q443 -765 469 -772Q481 -777 495 -778Q506 -782 519 -784Q524 -786 538 -786Q550 -790 563 -790Q577 -790 580 -789Q585 -782 594 -784Q619 -786 628 -760Q629 -756 626 -747Q623 -739 624 -734Q618 -724 611 -715Q609 -711 599 -703Q592 -697 588 -691Q589 -686 595 -686Q601 -687 606 -688Q613 -688 622 -689Q632 -690 632 -679Q636 -673 635 -664Q629 -655 608 -649Q601 -651 596 -647Q591 -643 586 -640Q579 -642 575 -637Q572 -633 567 -631Q560 -634 552 -627Q544 -621 539 -622Q530 -618 520 -616Q511 -614 504 -607Q503 -602 496 -596Q485 -587 489 -579Q499 -573 508 -567Q516 -568 526 -565Q537 -562 543 -562Q548 -564 551 -561Q554 -558 557 -555Q562 -556 564 -551Q566 -545 562 -542Q562 -528 554 -529Q533 -525 514 -517Q509 -517 508 -512Q507 -508 507 -505Q505 -492 504 -478Q502 -474 503 -468Q505 -462 511 -463Q523 -470 532 -462Q539 -460 546 -458Q550 -458 550 -453Q550 -450 547 -446Q543 -443 541 -433Q539 -426 537 -423Q527 -425 526 -415Q525 -409 516 -408Q508 -407 507 -404Q502 -398 500 -390Q499 -386 494 -383Q489 -379 493 -375Q510 -377 526 -380Q537 -382 548 -385Q560 -388 571 -391Q580 -393 588 -395Q600 -396 611 -403Q618 -402 628 -410H660Q695 -415 722 -414Q725 -413 731 -416Q737 -419 741 -418Q746 -415 752 -412Q757 -409 760 -403Q758 -396 756 -382Q744 -381 732 -380Q729 -376 722 -376Q713 -376 711 -373L688 -372Q678 -370 667 -368Q653 -367 641 -364Q629 -363 618 -361Q576 -354 559 -347Q546 -344 533 -341Q520 -339 509 -334Q492 -336 488 -327Q490 -314 491 -302Q493 -299 489 -294Q484 -289 485 -285Q489 -280 495 -283Q502 -286 508 -288Q544 -308 582 -318Q590 -328 598 -322Q609 -311 629 -308Q643 -299 651 -287Q652 -279 656 -271Q656 -259 660 -247Q658 -240 659 -231L658 -208Q656 -203 657 -193Q658 -181 656 -176Q653 -167 652 -156Q657 -151 656 -145Q654 -139 653 -132Q658 -124 654 -112Q650 -106 653 -96Q655 -87 655 -83Q656 -68 656 -54Q658 -50 657 -41Q656 -31 659 -25Q659 -16 658 -7Q659 -4 659 12Q660 26 655 38Q650 50 647 63Q639 68 634 76Q631 77 629 84Q627 91 623 92Q605 76 596 59Q595 52 590 49Q584 45 581 41Q582 37 588 36Q595 34 597 31Q605 17 605 1Q605 -16 606 -32Q606 -62 606 -93Q606 -108 606 -124Q607 -139 605 -152Q603 -158 605 -163Q607 -168 608 -173Q603 -183 609 -191Q611 -195 609 -204Q608 -211 609 -214Q610 -246 604 -273Q599 -288 593 -285Q586 -286 569 -276Q565 -276 559 -271Q552 -266 547 -266Q539 -262 531 -258Q514 -254 499 -260Q494 -263 489 -266Q483 -269 480 -262Q478 -250 475 -239Q470 -235 470 -229Q470 -223 468 -216L467 -214Q467 -212 467 -210Q466 -201 474 -202Q482 -202 488 -204Q501 -207 513 -202Q533 -202 552 -198Q570 -189 562 -178Q554 -170 535 -163Q530 -165 528 -159Q526 -154 528 -150Q552 -140 563 -138Q569 -135 577 -132Q585 -129 581 -120Q582 -114 576 -111Q569 -109 564 -104Q551 -100 531 -111Q521 -115 516 -125Q506 -132 496 -144Q487 -152 490 -167Q484 -170 478 -174Q472 -179 464 -179Z"/>
</svg>