<svg xmlns="http://www.w3.org/2000/svg" viewBox="0 -800 1024 1024">
	<path fill="#000000" d="M592 -677Q602 -679 608 -674Q622 -674 636 -666Q643 -665 647 -660Q651 -655 656 -649Q667 -642 654 -619Q649 -617 648 -608Q647 -602 644 -599Q639 -598 637 -584Q625 -571 616 -557Q612 -555 613 -551Q614 -547 619 -545Q635 -546 677 -537Q693 -531 708 -526Q722 -520 738 -518Q763 -505 793 -496Q811 -488 828 -480Q843 -475 857 -471Q874 -463 891 -456Q909 -451 963 -424Q966 -425 970 -421Q975 -416 978 -417Q985 -417 986 -411Q987 -402 988 -393Q986 -390 977 -391Q970 -392 967 -389Q957 -381 944 -383Q934 -386 924 -389Q911 -386 900 -387Q886 -389 871 -392Q866 -396 856 -398Q838 -401 825 -412Q800 -422 775 -433Q751 -445 729 -458Q703 -472 677 -487Q647 -506 608 -516Q595 -522 588 -515Q583 -503 572 -495Q561 -487 553 -478Q538 -449 511 -425Q483 -402 461 -378Q451 -373 438 -362Q418 -344 404 -343Q396 -342 396 -343Q395 -344 396 -345Q402 -349 407 -357Q414 -363 426 -381Q437 -398 445 -405Q464 -433 472 -440Q473 -445 478 -452Q485 -461 485 -467Q500 -484 514 -501Q520 -515 536 -537Q548 -554 550 -557Q571 -588 581 -614Q585 -629 589 -644Q588 -653 581 -657Q574 -661 569 -666Q572 -670 581 -672Q589 -674 592 -677ZM374 -398Q369 -376 371 -355Q367 -349 369 -334Q370 -323 369 -318Q367 -287 371 -255Q371 -246 371 -237Q372 -226 373 -216Q372 -187 371 -158Q371 -148 374 -138Q373 -130 372 -122Q369 -112 365 -102Q358 -100 354 -94Q350 -89 347 -83Q342 -81 338 -86Q332 -93 331 -94Q325 -95 321 -104Q318 -112 314 -113Q309 -112 307 -119Q305 -124 303 -125Q286 -136 270 -153Q270 -160 276 -159Q281 -158 285 -153Q290 -151 294 -147Q299 -143 306 -143Q312 -147 310 -159Q308 -169 311 -173Q310 -215 312 -258Q313 -287 314 -317Q319 -335 314 -350Q310 -348 306 -339Q303 -333 299 -329Q293 -318 286 -307Q284 -301 276 -298Q271 -298 269 -294Q267 -291 269 -286Q266 -277 260 -274Q253 -275 237 -284Q225 -297 212 -310Q204 -323 210 -334Q214 -342 211 -351Q216 -357 220 -364Q218 -377 225 -382Q237 -414 237 -432Q235 -440 232 -444Q227 -450 222 -447Q216 -445 212 -446Q211 -447 212 -448Q212 -453 222 -456Q232 -458 240 -463Q248 -463 255 -460Q268 -464 283 -463Q284 -461 288 -458Q294 -453 295 -449Q289 -441 287 -419Q280 -394 278 -368Q285 -363 290 -369Q295 -376 302 -379Q309 -379 312 -387Q313 -390 316 -401Q322 -418 325 -438Q323 -449 326 -470Q328 -486 327 -495Q326 -509 329 -522Q331 -553 333 -585Q332 -592 332 -599Q332 -607 324 -608Q313 -604 293 -594Q288 -595 285 -591Q284 -590 280 -583Q276 -578 265 -580Q256 -582 253 -580Q240 -581 202 -595Q204 -602 219 -606Q229 -609 242 -618Q261 -631 271 -633Q285 -641 319 -643Q323 -645 330 -643Q339 -640 342 -642Q365 -638 376 -627Q377 -622 387 -610Q385 -597 387 -557Q385 -543 388 -536Q389 -530 384 -522Q379 -515 379 -511Q385 -497 379 -477Q376 -469 378 -450Q379 -434 378 -425Q375 -412 374 -398ZM179 -608Q186 -610 190 -604Q193 -599 198 -595Q199 -586 200 -577Q198 -572 198 -552Q197 -538 195 -525Q196 -509 197 -494Q197 -477 197 -461Q190 -450 207 -442Q204 -439 197 -420Q192 -406 195 -388Q195 -384 194 -381L192 -368Q192 -363 191 -361Q192 -359 189 -338Q185 -332 186 -315Q187 -305 185 -298Q176 -286 179 -272Q179 -263 170 -252Q170 -241 169 -230Q162 -223 162 -210Q151 -199 149 -179Q145 -171 144 -161Q142 -152 134 -146Q130 -146 126 -139Q122 -132 117 -133Q110 -141 102 -149Q102 -154 96 -160Q92 -164 91 -168Q91 -172 87 -176Q81 -182 84 -186Q91 -188 93 -200Q95 -208 97 -211Q107 -215 109 -228Q115 -243 121 -259Q121 -276 128 -290Q134 -322 141 -352Q143 -356 148 -397Q151 -418 153 -439Q158 -464 159 -490Q159 -516 160 -519Q160 -560 161 -568Q164 -594 179 -608ZM602 -431Q616 -427 630 -423Q640 -426 649 -417Q658 -407 652 -398Q651 -392 643 -383Q637 -376 635 -372Q627 -366 619 -355Q611 -343 608 -341Q602 -340 597 -333Q592 -326 588 -325Q578 -316 569 -306Q567 -301 559 -296Q551 -291 548 -285Q543 -285 533 -278Q524 -272 517 -272Q509 -287 509 -303Q507 -311 512 -314Q516 -317 521 -320Q527 -331 543 -349Q564 -375 584 -402Q590 -409 580 -417Q570 -422 566 -428Q574 -431 584 -428Q593 -429 602 -431ZM623 -304H625Q633 -297 653 -289Q670 -286 681 -268Q684 -263 677 -253Q672 -246 673 -241Q676 -235 683 -235Q690 -234 697 -232Q717 -222 737 -213Q757 -199 756 -180Q758 -176 755 -168Q752 -160 755 -155Q748 -131 745 -126Q738 -121 737 -114Q735 -107 732 -101Q706 -69 692 -53Q675 -39 663 -20Q649 -15 643 -5Q639 2 627 9Q618 14 614 19Q607 20 596 31Q587 40 580 42Q571 45 561 48Q551 56 537 56Q523 67 517 61Q518 56 525 52Q530 49 532 46Q535 42 543 34L552 26Q562 17 563 14Q574 7 581 -4Q605 -29 628 -55Q655 -93 667 -107Q693 -150 698 -172Q702 -184 695 -196Q687 -209 675 -209Q654 -214 638 -201Q623 -188 609 -173Q604 -172 594 -163Q586 -156 581 -154Q576 -149 567 -147Q555 -144 552 -141Q538 -136 526 -126Q521 -130 524 -138Q538 -156 545 -167Q557 -192 578 -212Q598 -232 616 -253Q619 -260 624 -266Q629 -272 629 -279Q615 -288 623 -304Z"/>
</svg>