<svg xmlns="http://www.w3.org/2000/svg" viewBox="0 -800 1024 1024">
	<path fill="#000000" d="M544 -422Q529 -425 514 -429Q501 -434 487 -439Q480 -439 471 -445Q462 -451 457 -451Q448 -452 445 -459Q442 -466 439 -472Q431 -477 431 -487Q421 -499 427 -512Q429 -516 425 -523Q422 -528 422 -530Q426 -537 436 -549Q444 -567 451 -585Q451 -588 454 -596Q457 -603 456 -609L460 -633Q464 -635 472 -627Q487 -622 501 -617Q514 -615 516 -600Q519 -587 511 -575Q507 -564 485 -520Q478 -514 474 -497Q472 -493 469 -489Q465 -485 470 -480Q489 -481 508 -486Q521 -490 533 -494Q537 -495 538 -501Q539 -506 541 -507Q560 -505 567 -507Q579 -509 589 -503Q601 -505 608 -503Q617 -506 625 -491Q635 -488 635 -482Q634 -472 639 -463Q639 -454 631 -451Q623 -448 618 -443Q617 -439 609 -438Q602 -437 600 -433Q597 -427 590 -425Q584 -423 578 -420Q574 -417 561 -421Q548 -424 544 -422ZM350 -231Q347 -218 343 -205Q339 -202 323 -186L312 -172Q296 -156 292 -153Q280 -141 266 -130Q255 -124 224 -99Q215 -95 206 -88Q198 -82 187 -83Q173 -86 164 -90Q154 -93 144 -97Q137 -96 134 -100Q131 -105 129 -109Q119 -114 119 -135Q114 -156 117 -178Q119 -181 118 -190Q117 -200 121 -204Q137 -254 163 -279Q171 -290 189 -299Q194 -302 197 -297Q201 -293 205 -290Q212 -286 209 -278Q205 -271 203 -265Q197 -253 193 -241Q192 -233 184 -219Q173 -210 177 -193Q172 -186 172 -168L161 -133Q158 -128 163 -124Q168 -120 174 -121L224 -149Q230 -154 237 -157Q244 -161 247 -168Q245 -174 240 -176Q234 -178 231 -181Q221 -201 217 -210Q218 -216 218 -222L223 -249Q224 -255 224 -261Q229 -296 229 -333Q231 -356 233 -379Q235 -394 237 -410Q242 -424 237 -442Q236 -454 217 -451Q206 -455 195 -455Q183 -456 176 -466Q168 -468 165 -475Q161 -482 156 -487Q136 -506 151 -541Q157 -553 163 -565Q168 -579 196 -607Q200 -611 205 -608Q210 -605 208 -599Q211 -595 214 -595Q224 -598 233 -605Q253 -618 277 -622Q286 -625 297 -625Q313 -628 330 -627Q333 -625 349 -622Q370 -621 388 -592Q383 -582 392 -573Q390 -562 388 -552Q379 -534 371 -514Q357 -497 347 -477Q345 -472 335 -464Q328 -452 313 -447Q302 -446 294 -442Q279 -442 273 -445Q268 -442 271 -437Q273 -432 275 -427Q281 -421 281 -398Q278 -382 275 -366Q277 -359 275 -348Q272 -334 274 -328Q277 -323 283 -326Q288 -329 292 -331Q304 -338 318 -343Q326 -345 340 -339Q355 -342 368 -333Q377 -333 379 -322Q381 -311 373 -307Q345 -297 331 -296Q312 -300 303 -297Q298 -295 289 -297Q278 -300 274 -294Q272 -277 272 -259Q273 -241 267 -225Q267 -209 266 -194Q265 -190 269 -188Q273 -186 277 -188Q306 -210 336 -230Q343 -230 350 -231ZM311 -588Q294 -583 279 -576Q274 -574 269 -574Q263 -575 260 -570Q252 -568 237 -573Q227 -576 221 -576Q214 -581 211 -573Q214 -563 208 -543Q205 -539 204 -531Q203 -520 200 -517Q196 -514 196 -503Q196 -496 194 -492Q197 -479 206 -478Q215 -483 245 -485Q250 -487 262 -486Q276 -485 282 -490Q287 -497 291 -504L308 -532Q313 -539 317 -546Q324 -559 324 -573Q327 -579 322 -585Q316 -592 311 -588ZM891 -438Q907 -438 927 -422Q933 -420 934 -412Q935 -402 941 -400Q944 -392 942 -379Q945 -364 941 -348Q933 -335 934 -331Q930 -321 923 -312Q916 -304 907 -290Q893 -269 884 -260Q880 -251 855 -229Q851 -227 853 -223Q855 -220 859 -219Q882 -221 894 -203Q897 -197 893 -192Q889 -187 887 -181Q886 -173 878 -173Q870 -172 863 -171Q842 -175 821 -174Q806 -174 790 -174Q762 -173 736 -173Q729 -178 715 -171Q696 -180 690 -181Q666 -193 648 -209Q639 -225 639 -244Q634 -270 644 -284Q650 -297 655 -311Q658 -320 661 -330Q664 -355 661 -359Q652 -371 658 -382Q663 -383 671 -377Q677 -372 681 -371Q688 -366 702 -377Q764 -404 801 -415Q833 -431 865 -435Q877 -439 891 -438ZM528 -401Q526 -394 532 -382Q537 -372 537 -369Q539 -360 534 -350Q538 -341 533 -332Q534 -321 549 -330Q558 -333 566 -342Q579 -339 592 -336Q608 -336 624 -337Q630 -339 632 -334Q634 -329 636 -324Q644 -317 639 -307Q639 -299 626 -290Q612 -290 600 -286Q587 -283 574 -280Q559 -277 546 -272Q543 -268 536 -269Q529 -270 527 -267Q525 -266 520 -250Q510 -233 505 -214Q504 -207 490 -190Q486 -188 489 -184Q492 -181 497 -181Q515 -179 526 -180Q532 -182 544 -179Q558 -176 565 -178L594 -169Q613 -169 618 -149Q632 -131 621 -111Q606 -110 593 -115Q566 -141 535 -150Q531 -152 519 -154Q508 -155 503 -159Q499 -159 493 -161Q484 -164 480 -162Q478 -157 472 -151Q462 -140 461 -133Q455 -119 442 -108Q435 -105 428 -101Q422 -97 414 -97Q398 -90 390 -99Q382 -107 400 -111Q413 -130 426 -149Q443 -185 452 -213Q451 -224 460 -237Q463 -240 460 -244Q457 -247 454 -245Q439 -244 428 -234Q412 -228 395 -222Q384 -220 375 -222Q371 -230 366 -234Q366 -235 361 -238Q355 -242 354 -245Q353 -248 361 -253Q367 -257 367 -258Q382 -269 387 -271Q397 -278 413 -281Q453 -298 463 -302Q468 -305 475 -308Q481 -310 482 -317Q482 -342 481 -367Q479 -378 485 -387Q478 -397 487 -404Q499 -414 512 -411Q514 -410 516 -409L524 -403Q526 -403 528 -401ZM872 -387Q857 -383 841 -380Q827 -378 814 -371Q805 -368 796 -365Q783 -361 759 -351Q750 -349 734 -343Q719 -345 703 -348Q698 -349 696 -343Q694 -337 697 -333Q695 -321 692 -309Q692 -299 690 -275Q688 -271 690 -259Q692 -249 689 -243Q680 -235 690 -226Q696 -212 712 -204Q734 -208 756 -212Q769 -215 783 -217Q797 -218 806 -229Q806 -237 810 -240Q818 -248 825 -262Q832 -272 836 -282Q836 -290 848 -298Q859 -327 874 -353Q877 -364 880 -376Q882 -380 879 -385Q876 -390 872 -387Z"/>
</svg>