<svg xmlns="http://www.w3.org/2000/svg" viewBox="0 -800 1024 1024">
	<path fill="#000000" d="M521 -680H523Q532 -669 548 -674Q560 -674 575 -659Q575 -643 570 -625Q560 -613 560 -595Q556 -588 554 -580Q554 -576 562 -577Q589 -587 615 -597Q618 -600 626 -602Q636 -604 640 -608Q649 -611 653 -619Q657 -626 663 -631Q668 -636 674 -631Q679 -627 682 -629Q688 -633 715 -635Q728 -642 743 -627Q750 -628 752 -619Q754 -611 758 -609Q762 -605 757 -601Q752 -597 755 -594Q757 -585 741 -582Q731 -581 720 -580Q712 -574 711 -565Q709 -556 707 -547Q705 -532 702 -518Q708 -505 707 -490Q705 -464 709 -452Q710 -432 707 -412Q708 -394 709 -376Q710 -360 705 -346Q707 -338 709 -330Q726 -331 741 -338Q767 -344 792 -351Q809 -356 819 -368Q831 -363 850 -365Q855 -369 872 -370Q881 -371 888 -373Q901 -379 911 -369Q935 -363 931 -341Q924 -340 925 -333Q926 -326 924 -321Q915 -318 906 -316Q902 -313 890 -313Q881 -313 877 -310Q862 -308 846 -306Q829 -300 811 -298Q806 -291 800 -294Q794 -297 789 -298Q775 -303 762 -305Q742 -309 727 -310Q722 -304 710 -302Q704 -304 703 -299Q701 -295 698 -290Q696 -268 698 -227Q699 -224 696 -218Q693 -211 698 -208Q698 -195 697 -182Q698 -171 698 -160Q702 -152 710 -154Q719 -156 726 -156Q760 -167 782 -170Q802 -177 821 -179Q845 -187 856 -187Q869 -191 881 -190Q922 -197 936 -182Q940 -183 940 -179Q940 -175 944 -174Q951 -170 947 -160Q943 -151 946 -147Q952 -143 948 -139Q942 -136 936 -131Q928 -131 919 -131L886 -130Q878 -130 869 -130Q845 -126 821 -123Q804 -123 786 -123Q778 -121 766 -124Q751 -127 745 -126Q731 -131 717 -137Q712 -138 708 -142Q703 -147 700 -147Q696 -127 698 -109Q698 -99 697 -89Q697 -81 695 -73Q693 -65 697 -56Q694 -45 694 -32Q691 -23 695 -10Q698 2 697 7Q693 28 689 49Q683 50 672 61Q669 59 665 62Q661 65 660 63Q659 62 649 56Q642 52 641 46Q635 39 629 21Q624 7 621 2Q611 -6 616 -22Q619 -26 617 -35Q615 -44 617 -48Q620 -60 623 -72Q627 -80 626 -95Q625 -109 627 -114Q629 -130 630 -146Q630 -168 630 -191Q635 -198 633 -206Q632 -214 633 -223Q636 -231 634 -244Q639 -272 640 -301Q640 -314 640 -328Q642 -362 647 -392Q647 -411 649 -428Q650 -447 650 -466Q650 -493 651 -504Q650 -525 649 -547Q633 -545 621 -537Q608 -529 595 -522Q590 -521 580 -514Q570 -507 562 -507Q549 -500 530 -511Q527 -517 511 -517Q497 -522 494 -536Q493 -546 489 -557Q484 -568 488 -580Q500 -605 511 -631Q522 -658 517 -667Q513 -671 513 -674Q514 -679 521 -680ZM358 -666Q371 -664 384 -663Q387 -660 395 -660Q401 -660 404 -658Q412 -656 416 -650Q419 -644 424 -638Q423 -633 428 -626Q433 -618 431 -611Q436 -604 435 -596Q433 -588 432 -581Q429 -573 429 -565Q430 -544 424 -523Q417 -521 417 -512Q418 -504 416 -498Q417 -485 412 -463Q408 -448 408 -439Q408 -427 408 -416Q407 -398 408 -381Q408 -366 408 -352Q410 -337 408 -308Q409 -281 410 -255Q413 -251 411 -240Q409 -231 411 -226Q413 -205 414 -184Q416 -181 415 -173Q413 -165 417 -162Q417 -151 417 -141Q418 -124 419 -108Q417 -92 419 -82Q417 -74 419 -64Q416 -54 417 -48Q413 -37 412 -25Q411 -12 402 -5Q400 3 389 -8Q374 -20 358 -33Q350 -37 346 -50Q342 -62 336 -66Q331 -75 325 -83Q319 -92 322 -103Q326 -113 322 -128Q320 -133 323 -134Q326 -135 328 -129Q339 -120 354 -115Q361 -111 364 -118Q366 -123 365 -132Q363 -136 364 -144Q365 -152 364 -155V-179Q364 -190 364 -201Q364 -211 363 -222Q362 -247 360 -272Q359 -292 361 -312Q361 -340 357 -367Q351 -360 349 -350Q339 -332 335 -312Q334 -299 328 -288Q321 -277 314 -267Q303 -260 300 -248Q297 -245 292 -249Q288 -252 286 -251Q266 -267 245 -284Q241 -296 245 -324Q252 -328 253 -341Q254 -352 257 -356Q263 -360 263 -374Q263 -385 266 -390Q266 -410 266 -431Q267 -439 265 -445Q262 -454 255 -452Q244 -452 234 -456Q228 -456 225 -450Q226 -434 225 -418Q226 -401 226 -385Q225 -373 224 -362Q225 -357 223 -335Q219 -322 223 -309Q221 -279 217 -249Q215 -219 208 -192Q206 -168 186 -105Q181 -81 168 -62Q165 -57 163 -58Q160 -61 155 -66Q151 -66 145 -71Q138 -77 133 -77Q124 -86 122 -103Q113 -120 120 -136Q127 -153 131 -169Q139 -202 147 -236Q164 -303 166 -314Q175 -358 175 -396Q175 -420 175 -445Q173 -476 171 -508Q172 -534 172 -560Q173 -581 197 -605Q200 -613 207 -609Q213 -606 214 -599Q217 -597 218 -599Q219 -606 223 -610Q232 -607 242 -612Q243 -613 258 -623Q301 -645 307 -647Q318 -655 332 -658Q346 -661 358 -666ZM374 -612L368 -610Q340 -600 312 -588Q304 -581 294 -582Q283 -584 272 -583Q267 -581 251 -583Q248 -586 241 -586Q236 -586 233 -588Q220 -587 234 -568Q239 -545 238 -538Q226 -524 226 -490Q225 -481 227 -473Q229 -470 234 -475Q236 -486 253 -490Q258 -488 266 -492Q277 -497 282 -495Q298 -492 313 -493Q319 -487 325 -465Q320 -448 324 -429Q327 -424 325 -416Q323 -409 324 -406Q328 -400 323 -396Q318 -392 316 -388Q317 -382 320 -383Q327 -387 332 -394Q335 -394 339 -400Q345 -408 349 -406Q350 -410 355 -414Q362 -419 360 -423Q359 -427 362 -436Q365 -445 361 -450L367 -504Q375 -546 383 -589Q383 -598 382 -608Q381 -614 374 -612Z"/>
</svg>