<svg xmlns="http://www.w3.org/2000/svg" viewBox="0 -800 1024 1024">
	<path fill="#000000" d="M341 -283Q371 -297 397 -312Q399 -318 404 -315Q408 -312 407 -306Q401 -298 401 -289Q402 -285 397 -282Q394 -280 393 -278Q393 -276 389 -274Q386 -273 387 -269Q381 -262 365 -255Q354 -250 349 -246Q343 -243 338 -239Q332 -236 332 -229Q326 -226 320 -223Q324 -207 321 -195Q320 -193 320 -176Q317 -143 314 -111Q311 -101 311 -89Q312 -86 308 -82Q303 -77 304 -73Q307 -69 306 -65Q304 -60 298 -60Q287 -52 277 -70Q275 -75 268 -80Q261 -85 261 -88Q260 -95 251 -108Q242 -122 241 -131Q237 -136 238 -141Q239 -147 245 -147Q255 -158 257 -184Q258 -187 258 -191Q255 -189 252 -188Q242 -186 234 -176Q229 -172 218 -167Q204 -161 198 -156Q186 -151 176 -143Q168 -141 153 -132Q141 -125 133 -123Q122 -117 119 -128Q116 -131 119 -142Q112 -147 109 -153Q107 -163 102 -173Q98 -184 101 -194Q104 -200 118 -203Q127 -205 131 -208Q132 -213 135 -212Q139 -210 143 -207Q146 -207 145 -202Q144 -198 146 -195Q152 -193 171 -202Q195 -213 218 -225Q231 -231 243 -237Q251 -243 265 -248Q265 -256 266 -259Q263 -280 266 -299Q265 -305 266 -312Q266 -318 260 -319L225 -306Q213 -302 200 -298Q184 -305 177 -290Q174 -289 170 -285Q166 -281 164 -281Q161 -281 161 -283Q161 -286 160 -288Q159 -294 153 -297Q148 -300 144 -304Q140 -311 135 -317Q130 -323 131 -331Q129 -348 133 -363Q129 -370 134 -374Q139 -378 143 -382Q150 -408 166 -433Q176 -452 186 -472Q190 -484 194 -496Q191 -503 185 -502Q179 -501 173 -501Q168 -504 156 -505Q141 -507 136 -511Q131 -514 134 -517Q137 -520 141 -518Q148 -516 154 -519Q160 -523 167 -525Q193 -530 218 -536Q229 -542 234 -553Q239 -564 242 -574Q249 -593 256 -612Q261 -625 265 -638Q267 -642 267 -653Q267 -661 269 -665Q273 -675 266 -683Q260 -691 254 -698Q249 -701 258 -705Q266 -706 273 -702Q284 -703 299 -698Q309 -700 323 -686Q328 -679 327 -671Q325 -662 324 -653Q322 -650 320 -637Q318 -624 313 -618Q309 -605 304 -592Q298 -575 302 -570Q314 -570 325 -570Q334 -563 344 -567Q351 -567 358 -568Q366 -569 372 -564Q378 -551 382 -549Q385 -545 382 -543Q374 -540 371 -534Q371 -525 365 -523Q346 -523 332 -515Q322 -516 311 -511Q300 -512 289 -505Q266 -505 258 -490Q253 -487 251 -475Q250 -466 247 -462Q239 -457 239 -449Q238 -441 236 -433Q230 -428 229 -422Q228 -415 225 -409Q219 -405 216 -394Q213 -384 211 -381Q206 -367 199 -359Q197 -354 201 -353Q205 -352 209 -354Q221 -362 233 -365Q244 -372 262 -375Q271 -374 273 -383Q275 -391 271 -397Q268 -402 272 -409Q276 -415 281 -412Q291 -413 300 -403Q312 -384 332 -391Q350 -398 365 -398Q377 -398 389 -396Q390 -385 390 -375Q389 -369 383 -367Q377 -365 372 -362Q363 -357 343 -351Q335 -352 331 -349Q326 -345 327 -338Q324 -331 322 -304L320 -274ZM406 -366Q412 -386 427 -402Q428 -403 443 -421L475 -458Q483 -467 491 -477Q492 -483 500 -491Q507 -497 508 -501Q518 -517 528 -534Q540 -538 547 -551Q565 -574 578 -598Q578 -604 581 -614Q585 -627 583 -634Q584 -650 563 -659Q559 -658 558 -662Q557 -666 561 -667Q569 -670 578 -675Q587 -681 597 -677Q610 -673 622 -670Q635 -664 647 -659Q650 -652 657 -646Q663 -640 659 -631Q658 -627 652 -610Q649 -599 643 -592Q641 -585 625 -564Q623 -561 618 -556Q616 -552 621 -550Q633 -548 645 -546Q653 -547 684 -537Q688 -534 697 -532Q709 -529 714 -524Q726 -521 738 -518Q748 -511 771 -503Q793 -495 803 -489Q820 -481 840 -475Q899 -450 919 -440Q925 -439 933 -433Q946 -425 953 -424Q969 -413 976 -412Q988 -397 982 -390Q970 -399 965 -390Q961 -385 957 -387Q952 -389 949 -388Q941 -383 929 -387Q917 -390 907 -386Q901 -389 887 -389Q871 -389 865 -394Q852 -392 842 -399Q832 -405 823 -411Q800 -422 776 -433L747 -449Q709 -472 670 -495Q643 -510 616 -520Q590 -526 586 -516Q584 -513 554 -475Q552 -473 552 -471L546 -462Q545 -460 544 -458Q542 -450 529 -448Q525 -439 521 -431Q518 -430 514 -424Q510 -418 506 -418Q493 -421 493 -408Q490 -405 489 -403L480 -394Q479 -392 476 -389Q457 -388 450 -371Q447 -359 431 -357Q426 -355 419 -348Q411 -341 406 -339ZM597 -433Q608 -434 624 -429Q631 -425 645 -427Q661 -417 662 -417Q668 -414 666 -408Q664 -403 663 -397Q660 -391 651 -383Q641 -374 638 -369Q623 -357 612 -340Q604 -339 598 -333Q593 -327 587 -323Q584 -318 577 -312Q569 -306 567 -302Q556 -298 550 -286Q545 -285 539 -278Q533 -271 529 -270Q523 -271 519 -267Q515 -263 511 -260Q500 -262 498 -271Q496 -280 492 -287Q490 -293 494 -295Q498 -298 501 -301Q504 -306 514 -310Q525 -315 527 -322Q551 -352 575 -383Q577 -387 583 -395Q590 -404 591 -410Q588 -416 578 -420Q570 -423 567 -427Q582 -430 597 -433ZM622 -306Q626 -305 629 -304Q643 -294 661 -289Q672 -284 674 -282Q681 -277 679 -270Q680 -262 666 -244Q664 -239 668 -238Q672 -236 676 -235Q685 -235 705 -223Q710 -217 720 -212Q733 -205 737 -200Q745 -187 740 -170Q737 -167 732 -148Q730 -136 719 -118Q711 -105 706 -90Q698 -80 689 -71Q679 -62 674 -51Q671 -49 664 -39Q656 -29 649 -26Q636 -11 623 -1Q609 7 593 25Q591 28 588 30L579 37Q577 40 574 42Q572 45 567 44Q563 43 561 44Q552 50 543 56Q540 59 534 57Q527 55 525 58Q522 58 520 60Q516 62 515 59Q527 46 538 32Q539 26 547 24Q553 22 555 20Q556 15 564 7Q570 1 572 -2Q594 -25 613 -49Q629 -69 640 -89Q653 -107 679 -155Q691 -188 678 -201Q666 -210 650 -212Q636 -218 627 -203Q617 -201 615 -191Q615 -186 610 -184Q606 -182 602 -181Q596 -183 589 -178Q584 -174 581 -174Q575 -176 567 -169Q560 -164 556 -165Q555 -170 560 -174Q566 -179 567 -181Q565 -189 574 -195Q596 -225 620 -254Q626 -265 632 -277Q629 -284 624 -291Q619 -298 622 -306Z"/>
</svg>