<svg xmlns="http://www.w3.org/2000/svg" viewBox="0 -800 1024 1024">
	<path fill="#000000" d="M632 -743Q638 -742 644 -741Q653 -738 662 -737Q672 -736 680 -729Q680 -718 682 -706Q687 -701 685 -695Q684 -689 684 -682Q690 -671 683 -642Q691 -590 669 -524Q664 -519 664 -512Q664 -505 671 -504Q701 -529 728 -560Q741 -581 753 -602Q760 -618 744 -628Q740 -628 740 -632Q739 -635 742 -636Q757 -637 771 -642Q792 -636 812 -631Q818 -627 826 -621Q834 -615 831 -606Q823 -589 809 -574Q791 -562 780 -544Q776 -543 774 -536Q772 -529 768 -528Q758 -530 758 -520Q759 -514 753 -510Q752 -509 742 -506Q739 -502 732 -497Q723 -491 721 -486Q724 -475 740 -483Q756 -483 772 -488Q781 -487 794 -494Q806 -494 808 -501Q806 -506 811 -508Q815 -509 819 -506Q826 -499 837 -500Q847 -502 857 -500Q865 -498 874 -499Q883 -499 889 -493Q892 -490 888 -485Q884 -480 885 -477Q889 -471 879 -466Q873 -468 869 -464Q865 -460 861 -457Q845 -459 838 -453Q824 -455 818 -449Q795 -447 777 -440Q773 -437 767 -437Q759 -439 759 -432Q762 -427 779 -420Q787 -416 792 -410Q798 -402 794 -395Q790 -391 788 -381Q786 -369 781 -367Q780 -363 773 -358Q767 -353 765 -349Q763 -344 734 -327Q700 -308 699 -303Q703 -299 723 -305Q739 -309 739 -305Q739 -301 742 -295Q746 -289 744 -285Q738 -277 725 -275Q712 -273 703 -271Q695 -268 687 -266Q679 -264 673 -258Q666 -256 664 -237Q667 -230 676 -229Q699 -231 700 -215Q707 -208 703 -199Q700 -191 692 -190Q684 -189 677 -187Q670 -187 670 -181Q669 -173 668 -167Q660 -154 671 -145Q681 -150 693 -149Q709 -151 724 -157Q735 -160 739 -159Q754 -155 771 -153Q784 -153 790 -151Q799 -144 786 -134Q775 -133 768 -125Q760 -128 739 -121Q732 -119 724 -117Q705 -116 688 -110Q681 -113 676 -109Q671 -106 666 -103Q654 -107 651 -97Q655 -78 644 -64Q639 -62 637 -53Q637 -47 648 -47Q663 -48 678 -47Q692 -49 727 -40Q741 -39 754 -33Q763 -36 773 -27Q781 -27 791 -24Q818 -18 834 -9Q847 -11 852 -2Q858 6 863 17Q862 22 854 23Q846 25 844 28Q831 30 830 39Q825 43 820 39Q816 35 812 32Q799 32 790 26Q777 21 764 16Q749 9 734 2Q710 -8 700 -13Q687 -18 673 -24Q657 -27 640 -30Q632 -32 623 -34Q614 -37 608 -31Q602 -24 596 -19Q582 -19 573 -9Q569 -4 563 -5Q560 -5 561 -9Q571 -21 596 -62Q602 -75 603 -88Q602 -95 596 -94Q590 -94 585 -93Q559 -90 534 -85Q529 -80 517 -83Q509 -85 505 -84Q464 -98 461 -98Q457 -101 453 -102Q448 -103 448 -107Q459 -108 469 -110Q495 -115 520 -120Q527 -122 539 -124Q571 -130 603 -136Q614 -135 617 -156Q620 -177 620 -178Q619 -186 613 -187Q607 -189 602 -190Q597 -193 579 -196Q576 -201 580 -203Q585 -205 590 -206Q606 -213 621 -220Q629 -224 633 -232Q637 -242 629 -246Q612 -247 595 -248Q581 -255 566 -257Q560 -256 557 -260Q554 -264 560 -267Q575 -270 589 -274Q592 -274 595 -275L606 -278Q609 -278 612 -279Q614 -280 646 -288Q655 -290 664 -292Q673 -295 679 -303Q680 -310 687 -319Q693 -326 694 -329Q699 -335 705 -348Q712 -364 719 -370Q727 -382 734 -394Q737 -400 731 -409Q726 -417 728 -421Q729 -428 724 -429Q719 -430 715 -427Q699 -432 691 -422Q685 -419 678 -417Q671 -418 663 -414Q655 -410 651 -410Q637 -412 631 -406Q618 -404 604 -402Q593 -400 582 -398Q570 -397 564 -388Q567 -371 567 -369Q564 -365 571 -356Q578 -347 577 -343Q576 -338 574 -324Q572 -311 569 -310Q566 -312 560 -304Q556 -298 554 -298Q550 -300 539 -315Q532 -324 528 -327Q523 -352 523 -376Q523 -383 518 -382Q513 -382 509 -379Q503 -380 483 -377Q480 -376 472 -376Q462 -377 458 -371Q451 -366 444 -368Q436 -370 429 -370Q423 -370 423 -374Q422 -379 420 -382Q404 -394 399 -395Q396 -397 395 -399Q395 -402 399 -403Q413 -403 424 -407Q438 -409 451 -411Q470 -416 488 -421Q535 -436 584 -448Q593 -457 619 -470Q624 -484 628 -499Q631 -513 634 -528Q635 -550 633 -569Q624 -578 628 -590Q627 -595 632 -618Q634 -622 636 -644Q634 -682 638 -707Q638 -715 638 -723Q639 -727 634 -734Q629 -740 632 -743ZM580 -482Q570 -479 565 -488Q560 -496 553 -500Q534 -525 535 -539Q536 -544 540 -552Q538 -555 544 -569Q537 -582 544 -588Q548 -620 550 -635Q559 -649 545 -658Q533 -670 541 -670Q557 -662 561 -661Q573 -664 585 -647Q592 -642 596 -623Q601 -614 598 -600Q599 -593 595 -584Q591 -576 591 -574Q594 -565 593 -553Q592 -545 593 -538Q600 -527 593 -517Q592 -512 588 -506Q582 -498 583 -493ZM290 -619H300Q314 -617 328 -615Q342 -612 352 -601Q370 -591 366 -554Q356 -549 360 -534Q356 -519 349 -515Q341 -514 341 -507Q340 -501 339 -494Q337 -489 338 -483Q338 -477 333 -474Q324 -472 321 -468Q311 -466 311 -458Q312 -446 303 -428Q295 -412 294 -404Q291 -399 291 -385Q291 -372 288 -366Q288 -342 282 -321Q280 -316 285 -313Q289 -311 294 -314Q297 -315 300 -317L311 -326Q314 -327 317 -329Q329 -338 346 -340Q354 -337 368 -345Q376 -346 384 -345Q389 -346 391 -340Q393 -335 391 -329Q388 -324 366 -308Q360 -307 335 -300Q314 -295 292 -291Q278 -278 286 -260Q288 -245 279 -233Q277 -219 279 -203Q276 -197 278 -191Q280 -184 287 -186Q294 -193 315 -210Q343 -233 355 -248Q357 -249 359 -251Q359 -249 359 -247Q357 -243 356 -232Q355 -220 352 -215Q344 -208 348 -197Q343 -194 336 -182Q331 -174 326 -169Q320 -166 315 -157Q311 -150 308 -148Q307 -146 303 -142L292 -133Q290 -130 287 -127Q284 -125 265 -103Q255 -97 247 -90Q242 -91 238 -83Q235 -78 232 -77Q228 -78 220 -73Q213 -68 208 -71Q206 -73 190 -73Q173 -76 159 -91Q157 -96 149 -98Q141 -101 139 -106Q137 -117 135 -128Q130 -136 132 -151Q131 -166 138 -177Q137 -183 141 -191Q144 -198 144 -202Q151 -236 172 -268Q176 -277 184 -285Q192 -292 199 -300Q207 -305 208 -293Q220 -279 215 -260Q208 -243 200 -226Q200 -218 196 -201Q192 -186 192 -177Q187 -171 186 -156Q185 -146 184 -142Q186 -139 183 -131Q179 -120 186 -116Q193 -117 216 -131Q224 -139 234 -145Q243 -152 247 -162Q229 -181 222 -216Q226 -228 230 -240Q229 -251 233 -269Q237 -288 237 -308Q235 -316 240 -332Q241 -346 245 -372Q249 -400 256 -425Q257 -434 261 -441Q257 -447 250 -449Q244 -451 238 -453Q226 -455 214 -457Q207 -463 217 -465Q238 -470 259 -479Q266 -479 270 -485Q274 -490 278 -495Q285 -507 292 -520Q303 -538 312 -567Q313 -572 314 -578Q315 -584 309 -585Q299 -580 289 -576Q285 -576 279 -570Q274 -564 269 -565Q257 -566 245 -568Q234 -570 222 -573Q212 -576 209 -567Q208 -557 197 -528Q192 -514 194 -499Q193 -485 196 -469Q198 -464 195 -458Q192 -452 187 -452Q175 -456 155 -478Q152 -492 147 -505Q143 -518 149 -531Q150 -546 161 -569Q173 -594 185 -600Q190 -605 195 -601Q200 -596 205 -591Q211 -589 234 -597Q258 -611 290 -619ZM460 -597Q473 -590 482 -579Q484 -575 488 -569Q491 -564 498 -565Q504 -564 511 -568Q520 -572 525 -572Q526 -568 521 -564Q517 -561 517 -559Q504 -546 503 -536Q493 -529 493 -519L479 -504Q471 -505 467 -511Q463 -517 457 -521Q452 -528 446 -535Q440 -542 443 -550Q442 -556 447 -566Q451 -573 451 -577Q453 -583 454 -588Q455 -594 460 -597Z"/>
</svg>