<svg xmlns="http://www.w3.org/2000/svg" viewBox="0 -800 1024 1024">
	<path fill="#000000" d="M527 -693Q530 -693 538 -689Q544 -690 565 -686Q572 -681 580 -677Q588 -673 591 -664Q597 -652 593 -644Q592 -635 590 -627Q582 -611 580 -610Q577 -604 566 -589Q564 -589 562 -584Q560 -578 555 -579Q548 -570 540 -562Q537 -562 532 -557Q527 -552 523 -551Q514 -540 503 -530Q501 -525 494 -520Q485 -514 483 -509Q482 -507 479 -506Q473 -504 474 -501Q499 -504 524 -516Q537 -515 549 -512Q555 -516 563 -518Q575 -514 577 -508Q585 -507 593 -507Q600 -506 606 -502Q612 -498 607 -492Q600 -492 598 -486Q597 -483 598 -481Q599 -476 606 -479Q607 -484 610 -483Q616 -477 609 -472Q603 -473 601 -469Q598 -464 595 -460Q585 -458 575 -456Q568 -455 560 -454Q538 -450 516 -446Q512 -446 503 -443Q494 -440 487 -441Q446 -433 402 -427Q393 -425 383 -424Q373 -422 363 -420Q347 -420 321 -413Q289 -405 272 -406Q264 -404 250 -409Q240 -413 234 -413Q226 -416 217 -419Q204 -416 197 -432Q199 -433 213 -433Q221 -434 297 -456Q307 -459 338 -466Q352 -469 366 -472Q377 -475 388 -478Q399 -481 407 -489Q417 -499 426 -509Q446 -530 465 -556Q475 -571 487 -584Q496 -593 509 -626Q510 -631 513 -639Q519 -652 517 -657Q508 -660 500 -657Q491 -654 483 -653Q475 -653 467 -653Q456 -653 444 -653Q430 -650 416 -647Q401 -647 400 -651L419 -657Q432 -667 474 -680Q499 -688 527 -693ZM312 -666Q318 -666 323 -666Q329 -655 339 -653Q349 -643 353 -630Q357 -622 362 -626Q367 -630 373 -632Q377 -627 374 -618Q370 -610 368 -602Q372 -597 364 -593Q356 -589 356 -585Q351 -563 335 -545Q332 -545 325 -548Q318 -552 313 -549Q296 -556 291 -565Q290 -577 275 -585Q268 -598 273 -614Q279 -618 287 -634Q289 -635 292 -643Q296 -652 300 -649Q306 -657 312 -666ZM681 -406Q693 -409 701 -404Q704 -406 717 -406Q723 -400 729 -406Q739 -405 752 -400Q780 -398 804 -381Q808 -380 811 -373Q815 -366 820 -365Q824 -357 827 -350Q828 -345 834 -338Q834 -334 840 -326Q846 -318 845 -311Q848 -298 840 -286Q846 -276 845 -268Q841 -257 841 -246Q837 -231 832 -217Q827 -214 828 -209Q827 -208 826 -209Q822 -209 821 -207Q822 -204 825 -199Q826 -196 822 -193Q812 -197 812 -180Q809 -176 810 -169Q811 -159 807 -156Q803 -157 802 -151Q801 -147 800 -146Q802 -142 798 -138Q795 -134 795 -132Q795 -126 794 -120Q793 -113 782 -100Q781 -99 779 -93Q778 -87 773 -86Q776 -68 753 -52Q746 -48 747 -40Q733 -29 736 -22L709 14Q704 13 702 20Q700 26 697 28Q690 35 683 35Q679 42 671 41Q664 40 659 35Q653 22 641 12Q639 11 637 7Q635 1 631 1Q627 0 624 -2Q621 -5 617 -2Q617 3 619 6Q619 7 617 7L523 11Q510 9 500 10Q493 13 481 7Q474 10 466 12Q421 14 380 10Q364 9 352 3Q348 0 340 4Q334 7 330 6Q306 1 288 -16Q271 -34 251 -50Q237 -68 236 -74Q237 -78 233 -85Q229 -91 232 -95Q233 -104 226 -108Q228 -116 230 -125Q229 -128 229 -133L230 -138Q230 -143 229 -146Q238 -153 232 -163Q231 -169 236 -179Q240 -187 240 -193Q238 -197 238 -198V-201Q238 -204 236 -205L247 -237Q264 -270 283 -303Q286 -312 292 -319Q291 -324 299 -330Q305 -335 307 -338Q315 -344 331 -352Q350 -371 353 -377Q354 -379 355 -380Q359 -380 362 -373Q369 -373 373 -364Q377 -354 380 -353Q391 -331 385 -324Q386 -316 379 -313Q373 -311 369 -306Q363 -304 355 -295Q347 -287 344 -285Q338 -284 335 -279Q332 -274 329 -270Q326 -259 323 -248Q314 -235 313 -219Q308 -216 305 -207Q303 -199 300 -197Q296 -185 296 -174Q290 -166 290 -148Q290 -135 288 -129Q283 -129 284 -124Q285 -119 285 -113Q288 -106 287 -96Q290 -82 292 -68Q298 -62 319 -45Q328 -35 342 -33Q355 -32 368 -31Q376 -31 384 -31Q413 -32 441 -33Q461 -33 480 -33Q483 -33 485 -33H497Q500 -33 502 -33Q514 -33 525 -33Q533 -33 540 -33Q575 -35 599 -31Q602 -33 609 -29Q615 -26 617 -27Q624 -26 631 -29Q638 -31 634 -38Q636 -39 640 -38Q646 -36 648 -40Q667 -36 686 -46Q688 -49 708 -77Q734 -132 739 -139Q743 -150 746 -161Q753 -174 756 -189Q758 -201 764 -219Q772 -242 773 -252Q786 -296 774 -322Q772 -345 735 -357Q729 -358 723 -358Q695 -359 666 -356Q659 -357 647 -355Q641 -353 620 -351Q602 -349 592 -345L540 -333Q516 -326 492 -319Q482 -311 466 -315Q459 -313 446 -318Q437 -315 427 -319Q410 -317 403 -328Q419 -336 453 -348Q499 -365 546 -381Q578 -390 610 -396Q627 -403 645 -404Q664 -404 681 -406ZM492 -273H501Q506 -270 517 -269Q532 -268 537 -262Q534 -257 541 -251Q548 -245 547 -239Q552 -227 553 -212Q557 -209 578 -204Q582 -204 582 -202Q582 -198 580 -194Q577 -195 576 -192Q575 -187 576 -181Q566 -168 559 -172Q551 -174 550 -168Q549 -163 546 -158Q541 -152 541 -145Q540 -137 538 -130Q536 -127 534 -120Q532 -110 527 -107Q518 -104 519 -96Q520 -88 520 -79Q515 -78 512 -70Q510 -65 507 -62Q505 -61 505 -56Q505 -51 502 -50Q497 -56 491 -62Q489 -68 491 -77Q493 -86 491 -91Q495 -108 498 -125Q497 -136 499 -146Q501 -156 494 -164Q464 -162 453 -166Q437 -164 420 -163Q413 -164 411 -176Q431 -188 468 -199Q491 -201 506 -214Q508 -227 509 -240Q509 -252 499 -260Q487 -263 492 -273Z"/>
</svg>