<svg xmlns="http://www.w3.org/2000/svg" viewBox="0 -800 1024 1024">
	<path fill="#000000" d="M524 -752Q534 -752 536 -751Q550 -751 563 -752Q565 -748 569 -750Q573 -752 575 -749Q588 -751 592 -742Q597 -738 602 -735Q607 -732 607 -724Q613 -720 608 -707Q611 -695 599 -693Q590 -680 579 -674Q569 -668 564 -663Q562 -661 560 -661Q555 -661 556 -657Q546 -650 538 -642Q534 -638 537 -636Q543 -634 549 -633Q552 -635 565 -635Q572 -626 572 -618Q570 -616 568 -609Q565 -599 559 -599Q551 -592 540 -591Q529 -591 518 -589Q513 -586 500 -586Q487 -586 479 -580Q451 -574 423 -568Q417 -567 410 -567L359 -575Q351 -574 331 -582Q327 -585 329 -587Q335 -590 341 -589Q353 -595 379 -601Q417 -613 443 -619Q468 -623 492 -633Q493 -635 506 -656Q512 -660 516 -666Q516 -670 520 -675Q525 -681 524 -683Q530 -696 537 -701Q539 -707 544 -712Q549 -718 547 -724Q530 -729 516 -725Q497 -721 490 -716Q486 -717 458 -714Q451 -707 442 -707Q426 -695 422 -691Q414 -685 402 -683Q399 -674 396 -666Q386 -660 384 -648Q389 -632 384 -632Q380 -626 377 -629Q373 -632 369 -634Q365 -634 361 -642Q358 -649 351 -647Q351 -654 340 -663Q329 -672 329 -680Q324 -713 351 -723Q359 -738 365 -738Q369 -738 370 -735Q376 -727 383 -718Q390 -709 384 -699Q381 -694 382 -688Q384 -684 389 -687Q421 -706 452 -726Q469 -735 488 -744Q494 -750 509 -750Q520 -750 524 -752ZM657 -560Q669 -559 681 -559Q700 -559 705 -557Q714 -559 719 -552Q725 -538 714 -532Q704 -532 703 -528Q702 -519 685 -519Q681 -523 677 -520Q673 -516 669 -515Q661 -516 653 -512Q649 -511 645 -510Q643 -510 638 -507Q633 -504 629 -506Q620 -510 612 -510Q609 -513 588 -515Q579 -517 578 -507Q576 -504 577 -498Q578 -491 575 -488Q573 -467 568 -448Q564 -440 564 -428Q565 -422 560 -409Q556 -398 557 -392Q553 -377 548 -363Q543 -344 538 -325Q535 -318 532 -312Q531 -299 529 -286Q522 -274 519 -261Q511 -243 506 -225Q498 -214 496 -202Q487 -183 478 -164Q478 -158 471 -149Q464 -138 457 -128Q457 -123 452 -121Q448 -119 444 -116L436 -124Q436 -129 429 -132Q424 -134 424 -136Q418 -151 417 -164Q437 -200 455 -237Q462 -252 468 -267Q476 -286 476 -290Q485 -309 486 -314Q489 -325 492 -337Q501 -371 517 -400Q517 -411 529 -449Q536 -495 550 -520Q553 -527 568 -532Q581 -543 596 -546Q619 -550 629 -551Q643 -556 657 -560ZM277 -486H279Q289 -483 298 -484Q302 -479 310 -476Q319 -473 321 -470Q325 -465 331 -459Q337 -454 335 -446Q339 -430 336 -419Q330 -411 330 -394Q320 -374 317 -351Q317 -347 314 -341Q310 -334 313 -331Q313 -321 329 -323Q337 -323 345 -324Q353 -327 354 -336Q356 -345 359 -352Q361 -367 348 -371Q341 -370 341 -376Q341 -383 345 -387Q351 -391 364 -387Q372 -384 378 -385Q383 -390 394 -384Q401 -380 409 -377Q417 -374 422 -368Q413 -339 404 -310Q398 -307 396 -295Q394 -286 390 -282Q386 -267 365 -244Q362 -235 353 -229Q352 -221 345 -217Q338 -214 334 -209Q334 -206 330 -205Q326 -204 323 -203Q325 -199 321 -197Q317 -195 317 -193Q308 -192 301 -190Q299 -187 297 -188Q294 -191 295 -197Q298 -201 301 -206Q303 -213 317 -227Q320 -238 326 -248Q331 -258 332 -270Q333 -274 331 -275Q326 -276 319 -274Q313 -273 306 -272Q299 -270 300 -262Q294 -242 294 -223Q286 -209 283 -193Q278 -188 281 -182Q284 -176 291 -175Q303 -168 318 -167Q333 -163 343 -163Q350 -173 344 -200Q344 -203 345 -204Q350 -201 354 -192Q359 -189 360 -181Q361 -174 364 -168Q374 -164 379 -154Q381 -151 388 -151Q393 -149 398 -148Q406 -145 408 -138Q405 -133 412 -124Q417 -118 415 -115Q412 -102 383 -107Q370 -113 352 -117Q335 -122 317 -127Q302 -129 289 -137Q266 -144 253 -161Q240 -173 234 -188Q232 -208 237 -223Q244 -241 246 -257Q235 -260 223 -252Q206 -249 189 -250Q185 -248 178 -253Q171 -258 166 -256Q151 -262 135 -269Q122 -268 122 -285Q136 -279 141 -282Q170 -286 195 -294Q213 -302 232 -304Q246 -307 260 -311Q272 -337 280 -387Q289 -410 295 -432Q295 -444 295 -456Q295 -462 286 -470Q275 -479 277 -486ZM655 -473Q663 -472 670 -471L688 -470Q695 -468 694 -463Q694 -458 694 -454Q688 -437 673 -438Q651 -436 645 -433L625 -442Q620 -446 614 -448Q608 -451 605 -458Q609 -458 612 -458Q614 -460 620 -460Q625 -460 626 -462Q638 -470 655 -473ZM779 -421H780Q788 -409 802 -416Q810 -413 813 -406Q815 -399 818 -391Q813 -379 808 -367Q806 -349 804 -332Q804 -312 822 -309Q824 -308 825 -307L833 -304Q844 -297 847 -292Q850 -286 844 -282Q838 -278 835 -274Q824 -271 810 -280Q803 -282 796 -285Q783 -295 772 -309Q762 -318 762 -345Q762 -354 758 -362Q718 -328 714 -324Q704 -313 694 -302Q672 -277 665 -273Q661 -266 649 -254Q640 -236 618 -200Q605 -192 596 -206Q589 -208 587 -214Q584 -221 580 -225Q579 -243 582 -266Q584 -291 602 -337Q607 -354 612 -371Q618 -380 607 -384Q599 -387 599 -391Q612 -395 625 -399Q633 -406 644 -405Q654 -404 665 -405Q675 -403 685 -405Q690 -394 684 -390Q675 -379 660 -376Q655 -376 650 -374Q643 -371 645 -366Q641 -354 635 -342Q632 -325 626 -311Q625 -301 617 -277Q614 -269 616 -257Q628 -268 640 -280Q663 -306 685 -333Q690 -337 701 -349Q712 -361 721 -367L748 -393Q754 -395 757 -404Q760 -412 764 -414Q772 -413 779 -421ZM726 -215L737 -212Q757 -208 772 -199Q780 -194 788 -195Q797 -197 806 -198Q826 -202 846 -204Q848 -209 854 -205Q857 -203 859 -204Q871 -203 882 -202Q886 -199 890 -197Q888 -193 892 -190Q895 -187 895 -185Q895 -183 890 -179Q884 -175 885 -170Q870 -163 859 -166Q857 -165 852 -167Q847 -169 845 -165L827 -164Q821 -162 814 -161Q806 -161 803 -156Q803 -146 803 -136Q804 -120 806 -104Q806 -94 806 -84Q804 -73 806 -61Q805 -43 803 -25Q799 -24 799 -19Q798 -13 796 -12Q791 5 791 19Q783 48 773 57Q771 60 767 61Q762 62 761 64Q749 63 745 57Q732 48 726 36Q723 28 717 28Q710 28 704 24Q701 22 702 21Q709 20 712 15Q724 15 735 15Q740 13 746 13Q751 -3 753 -17Q759 -33 757 -49Q761 -56 761 -71Q761 -84 762 -88Q762 -103 759 -119Q757 -131 755 -144Q755 -148 752 -153Q751 -154 749 -152Q736 -149 722 -146Q714 -145 705 -144L677 -137Q670 -139 656 -131Q657 -129 673 -124Q678 -121 685 -119Q692 -117 694 -111Q700 -106 705 -102Q705 -99 705 -95Q706 -87 698 -87Q691 -88 684 -81Q678 -79 665 -88Q663 -88 660 -91Q658 -93 655 -92Q638 -109 621 -126Q613 -127 607 -122Q588 -119 570 -112Q565 -111 559 -109Q553 -107 548 -111Q539 -110 530 -110Q518 -111 505 -112Q496 -111 491 -115Q484 -120 490 -127Q514 -131 559 -144Q617 -163 675 -173L698 -179Q701 -179 709 -181Q725 -183 737 -189Q735 -195 729 -198Q723 -200 718 -203Q716 -207 720 -209Q725 -212 726 -215Z"/>
</svg>