<svg xmlns="http://www.w3.org/2000/svg" viewBox="0 -800 1024 1024">
	<path fill="#000000" d="M557 -482Q569 -482 580 -480Q585 -481 602 -471Q607 -471 617 -463Q622 -461 627 -447Q626 -444 629 -438Q632 -432 629 -429Q631 -423 626 -413Q622 -406 622 -403Q616 -388 603 -376Q598 -371 587 -352Q580 -343 567 -332Q545 -313 540 -303Q548 -297 553 -297Q559 -298 569 -296Q603 -290 636 -282Q646 -280 654 -279Q674 -274 693 -274Q707 -277 718 -271Q726 -271 733 -271Q751 -269 768 -264Q774 -266 789 -261Q800 -259 798 -246Q796 -231 800 -227Q792 -223 783 -219Q781 -218 765 -218Q745 -217 709 -221Q685 -223 663 -228Q653 -228 627 -235Q622 -237 614 -238Q610 -238 611 -233Q630 -217 635 -200Q640 -197 641 -192Q641 -186 643 -181Q651 -160 652 -138Q652 -128 654 -121Q655 -117 652 -100Q653 -98 656 -82Q658 -78 654 -76Q650 -74 651 -72Q649 -66 652 -59Q654 -53 653 -49Q653 -46 653 -44L656 -34Q656 -31 656 -29Q654 -13 651 3Q653 7 651 16Q649 24 651 28Q649 37 646 46Q647 50 642 55Q638 59 638 63Q636 69 634 75Q632 81 625 83Q623 80 617 82Q612 84 611 80Q601 80 600 75Q594 74 593 66Q592 60 590 58Q584 56 582 50Q581 44 579 38Q587 24 587 7Q593 -19 595 -49Q599 -70 599 -91Q599 -112 599 -134Q596 -171 596 -172Q594 -225 580 -246Q563 -249 545 -253Q526 -258 506 -260Q502 -261 494 -263Q494 -262 493 -261Q491 -256 484 -251Q477 -246 476 -242Q467 -237 456 -227Q444 -216 439 -213Q429 -205 419 -195Q415 -193 410 -188Q404 -181 400 -180Q395 -179 389 -173Q384 -168 380 -166Q371 -159 362 -153Q351 -142 334 -135Q326 -131 318 -128Q316 -126 310 -125Q302 -123 299 -118Q291 -113 283 -110Q281 -106 274 -106Q270 -106 268 -105Q265 -102 258 -105Q251 -108 247 -106Q242 -102 235 -108Q230 -112 228 -111Q224 -113 220 -116Q215 -119 217 -123Q222 -129 220 -137Q220 -140 225 -139Q238 -142 251 -139Q268 -147 285 -160Q291 -163 297 -166Q313 -174 323 -185Q330 -186 339 -197Q347 -200 357 -211Q366 -220 371 -223Q389 -241 431 -279Q393 -291 357 -300Q351 -298 345 -302Q338 -307 342 -311Q356 -309 374 -314Q397 -314 404 -312Q416 -314 428 -312Q440 -310 453 -309Q460 -306 467 -318Q477 -325 490 -339Q503 -353 509 -358Q512 -364 522 -374Q531 -383 534 -388Q541 -393 554 -415Q563 -426 560 -438Q555 -440 540 -435Q534 -437 523 -430Q511 -428 507 -424Q503 -424 497 -421Q490 -417 486 -419Q480 -409 467 -413Q458 -406 448 -403Q441 -401 408 -407Q404 -411 392 -412Q379 -413 375 -420Q388 -425 400 -431Q433 -444 465 -457Q423 -479 402 -489Q398 -491 395 -494Q395 -495 397 -496Q402 -492 406 -495Q411 -498 415 -498Q431 -499 446 -501Q458 -499 464 -499Q464 -501 464 -503Q468 -510 472 -518Q477 -525 475 -530Q479 -534 482 -544Q484 -552 487 -556Q492 -566 496 -577Q498 -580 499 -586Q500 -592 496 -592Q473 -585 430 -581Q406 -579 401 -576Q394 -567 394 -559Q392 -551 390 -531Q386 -521 386 -509Q386 -504 380 -503Q376 -502 375 -500Q365 -498 355 -496Q346 -507 339 -512Q340 -520 331 -531Q329 -543 323 -553Q320 -560 314 -560Q307 -559 300 -559Q296 -561 287 -559Q280 -557 276 -559Q271 -566 262 -566Q254 -567 245 -569Q243 -574 235 -577Q228 -580 226 -582Q228 -586 226 -588Q224 -591 226 -592Q232 -591 242 -593Q259 -594 274 -599Q297 -606 319 -613Q327 -615 327 -623Q327 -632 328 -639Q326 -666 317 -687Q318 -690 312 -692Q304 -695 309 -697Q316 -705 334 -703Q338 -701 346 -699Q357 -697 361 -691Q366 -688 371 -682Q376 -675 379 -673Q382 -669 386 -652Q388 -647 389 -641Q390 -633 398 -634Q410 -642 418 -655Q432 -672 449 -687Q468 -710 492 -723Q500 -729 514 -735Q537 -745 546 -754Q549 -754 553 -752Q580 -758 606 -750Q612 -754 618 -744Q626 -743 627 -736Q629 -728 628 -720Q628 -707 624 -687Q621 -683 624 -681Q627 -680 630 -682Q646 -682 662 -683Q666 -684 670 -678Q674 -673 677 -673Q684 -673 689 -665Q687 -663 687 -656Q687 -649 684 -648Q681 -644 669 -644Q668 -634 666 -625Q652 -619 634 -617Q621 -615 607 -613Q582 -613 574 -596Q572 -588 559 -577Q555 -566 551 -555Q541 -544 536 -536Q531 -538 527 -534Q522 -529 518 -526Q514 -524 507 -512Q501 -502 495 -499Q494 -497 493 -496Q499 -494 504 -493Q530 -492 543 -480Q553 -480 557 -482ZM539 -712Q515 -710 500 -705Q479 -702 465 -686Q457 -681 452 -673Q446 -665 440 -658Q440 -656 437 -651Q432 -644 436 -640Q466 -646 509 -657Q524 -659 536 -667Q544 -686 548 -706Q551 -710 547 -712Q542 -714 539 -712ZM483 -233L487 -232Q482 -219 476 -206Q478 -201 474 -194Q470 -186 472 -183L454 -121Q449 -108 452 -96Q464 -101 474 -117Q481 -127 482 -127Q482 -126 479 -117Q476 -109 478 -102Q467 -90 462 -74Q463 -70 460 -66Q456 -61 457 -59Q451 -50 450 -42Q444 -36 445 -30Q446 -24 447 -17Q435 -2 423 -5Q421 -10 418 -8Q415 -6 411 -5Q404 -11 402 -18Q387 -33 393 -53Q398 -57 396 -69Q395 -80 400 -84Q406 -106 412 -128Q417 -149 429 -169Q433 -179 439 -186Q445 -197 453 -203Q468 -218 483 -233Z"/>
</svg>