<svg xmlns="http://www.w3.org/2000/svg" viewBox="0 -800 1024 1024">
	<path fill="#000000" d="M562 -733Q572 -733 576 -729Q602 -736 624 -723Q625 -717 633 -714Q640 -711 642 -708Q643 -699 643 -690Q637 -675 631 -661Q626 -655 622 -647Q618 -638 607 -640Q607 -637 601 -632Q595 -627 595 -622Q589 -623 586 -616Q581 -606 579 -604Q577 -603 573 -599Q568 -593 565 -595Q563 -598 560 -597Q557 -596 557 -592Q557 -586 560 -586Q564 -586 569 -586Q575 -586 578 -582Q584 -582 586 -575Q588 -569 585 -564Q579 -562 580 -555Q581 -549 574 -549Q565 -550 558 -545Q519 -538 503 -542L473 -537Q448 -533 422 -529Q411 -526 399 -531Q392 -537 382 -539Q372 -542 369 -552Q387 -556 407 -558Q428 -562 447 -570Q465 -574 485 -576Q494 -579 503 -583Q507 -597 517 -608Q527 -620 536 -631Q553 -651 567 -674Q573 -686 578 -699Q575 -705 570 -704Q565 -704 560 -703Q543 -702 528 -700Q512 -694 495 -696Q486 -696 477 -697Q472 -696 466 -696Q461 -695 458 -689Q454 -689 444 -684Q429 -676 413 -669Q412 -665 407 -661Q400 -657 400 -653Q392 -651 392 -642L393 -609Q389 -598 391 -586Q388 -583 384 -589Q380 -594 377 -592Q372 -585 369 -596Q364 -599 360 -606Q356 -615 351 -615Q350 -618 341 -621Q334 -624 336 -629Q342 -628 346 -634Q350 -640 348 -646Q342 -651 349 -663Q349 -672 354 -680Q358 -693 367 -704Q366 -708 369 -708Q372 -709 374 -707Q391 -698 394 -684Q399 -682 398 -677Q397 -673 399 -670Q420 -683 441 -696Q459 -706 460 -707Q472 -707 490 -713Q506 -718 511 -719Q537 -726 562 -733ZM682 -525Q686 -525 708 -523Q713 -526 717 -519Q719 -518 720 -522Q735 -519 750 -516Q751 -513 755 -512Q759 -511 759 -509Q767 -509 771 -503Q774 -498 779 -494Q782 -493 782 -489Q782 -485 785 -484Q791 -485 794 -477Q798 -466 799 -465Q811 -451 808 -434Q806 -432 805 -426Q804 -419 800 -416Q796 -415 797 -409Q798 -403 794 -401L781 -391Q779 -386 774 -384Q769 -382 766 -376Q752 -363 736 -354Q735 -350 733 -350Q731 -350 728 -352Q719 -350 709 -348Q701 -339 694 -346Q689 -344 688 -339Q687 -334 685 -330Q683 -328 682 -328Q681 -329 680 -331Q680 -335 676 -334Q668 -328 654 -331Q652 -333 642 -333Q644 -335 650 -339Q655 -344 654 -348Q651 -347 650 -349Q650 -356 657 -355Q661 -352 664 -354Q666 -357 669 -358Q673 -361 678 -364Q683 -366 683 -371L705 -385Q717 -393 724 -396Q726 -404 733 -406Q740 -408 746 -413Q745 -418 751 -424Q756 -429 756 -433Q762 -438 751 -454Q743 -460 735 -466Q727 -472 709 -480Q693 -481 676 -483Q657 -481 649 -478Q646 -479 640 -477Q634 -475 630 -476Q621 -478 619 -473Q609 -474 602 -469Q595 -469 588 -469Q587 -473 585 -472Q582 -469 578 -466Q566 -464 554 -462Q545 -464 538 -458Q531 -460 525 -457Q519 -454 512 -453Q491 -449 477 -445Q458 -440 438 -435Q423 -432 411 -427Q395 -423 378 -417Q355 -413 332 -404Q317 -399 301 -392Q295 -389 287 -385Q279 -382 276 -376Q277 -367 270 -367Q260 -367 252 -365Q248 -361 243 -364Q239 -366 234 -366Q230 -371 219 -369Q212 -368 208 -369Q204 -364 203 -350Q202 -338 199 -332Q198 -326 195 -319Q193 -317 189 -321Q182 -316 182 -322Q166 -330 160 -335Q160 -346 156 -358Q162 -372 162 -386L197 -430Q210 -441 213 -447L236 -473Q248 -481 262 -481Q271 -491 294 -491Q297 -488 293 -483Q289 -479 287 -475Q290 -470 282 -466Q275 -462 277 -457Q280 -449 270 -439Q250 -426 234 -404Q238 -402 248 -407Q255 -411 258 -411Q261 -414 277 -422Q289 -429 300 -431Q325 -439 349 -448L388 -460L404 -463Q429 -475 467 -484Q475 -489 491 -492Q505 -494 510 -497Q535 -501 573 -508Q595 -513 610 -513Q611 -507 616 -507Q621 -507 620 -514Q628 -519 638 -519Q660 -522 682 -525ZM544 -388L547 -387Q555 -391 560 -382Q564 -374 558 -369Q555 -359 547 -356Q544 -356 538 -354Q530 -351 527 -353Q510 -347 490 -345Q488 -346 481 -344Q474 -342 470 -344Q467 -342 445 -342Q440 -343 434 -344Q417 -341 402 -352Q394 -353 405 -357Q428 -357 452 -364Q455 -363 460 -365Q466 -368 469 -366Q477 -371 491 -374Q507 -377 511 -380Q518 -386 527 -386Q536 -386 544 -388ZM547 -326Q550 -324 552 -317Q557 -319 559 -315Q561 -311 564 -308Q575 -314 584 -305Q589 -298 599 -292Q602 -284 594 -279Q581 -270 580 -269Q577 -269 555 -259Q551 -255 542 -253Q532 -251 529 -249Q528 -245 522 -244Q516 -244 515 -240Q498 -227 481 -215Q479 -215 475 -211Q471 -206 467 -207Q464 -208 463 -207Q462 -206 462 -204Q462 -199 458 -198Q454 -191 447 -187Q441 -184 435 -179Q430 -179 425 -173Q421 -168 417 -168Q412 -166 414 -163Q419 -160 425 -161Q479 -154 495 -150Q508 -143 519 -134Q527 -126 538 -122Q541 -118 544 -114Q550 -96 558 -102Q561 -102 559 -100Q551 -92 555 -90L569 -103Q577 -110 585 -117Q588 -122 598 -129Q611 -137 613 -146Q622 -145 628 -158Q632 -168 635 -169Q639 -178 652 -188Q653 -194 647 -194Q638 -194 636 -195Q627 -191 617 -188Q603 -182 591 -185Q571 -172 560 -178Q579 -188 598 -198Q613 -205 617 -204L635 -213Q653 -219 671 -222Q679 -226 687 -230Q691 -215 708 -217Q723 -218 724 -204Q727 -201 727 -193Q727 -187 729 -184Q729 -178 724 -175Q719 -172 715 -169Q714 -167 707 -164Q702 -162 700 -158Q691 -152 682 -143Q672 -134 662 -125Q657 -124 654 -120Q651 -115 648 -115Q646 -109 637 -105Q631 -102 629 -99Q625 -96 620 -91Q615 -86 609 -86Q608 -83 603 -83Q599 -83 598 -80Q594 -77 595 -72Q597 -69 601 -72Q626 -70 637 -64Q643 -66 654 -63Q662 -61 667 -61Q671 -59 675 -59Q680 -60 682 -55Q692 -47 699 -54Q709 -49 718 -45Q720 -43 729 -43Q740 -42 744 -36Q750 -36 751 -32Q752 -28 754 -23Q757 -21 756 -17Q755 -13 756 -12Q762 -15 767 -12Q775 -7 770 4Q772 7 770 9Q767 12 767 13Q766 15 766 17Q761 10 759 12Q760 16 755 19Q751 22 752 26Q735 26 723 17Q709 10 695 2Q689 0 682 -3Q673 -11 658 -14Q650 -19 638 -23Q624 -23 611 -32Q606 -36 600 -37Q585 -49 566 -53Q565 -48 567 -44Q568 -40 563 -37Q564 -21 561 -3Q562 2 558 9Q554 17 554 21Q550 37 530 53Q531 59 522 62Q513 65 513 70Q503 86 496 84Q491 82 489 86Q487 90 485 93Q481 95 477 100Q470 108 465 109Q464 106 460 108Q456 110 458 113Q461 121 449 112Q442 106 442 96Q441 87 439 79Q434 76 436 73Q437 70 437 66Q427 62 426 56Q427 57 431 56Q434 55 436 58Q438 57 445 57Q454 57 457 53Q462 54 468 48Q472 44 475 43Q483 25 501 16Q501 5 509 -6Q520 -17 518 -51Q519 -64 505 -71Q503 -74 504 -75Q508 -75 511 -77Q506 -87 500 -97Q494 -108 482 -114Q469 -125 452 -129Q435 -132 417 -135Q404 -134 390 -134Q385 -132 386 -130Q389 -128 394 -126Q415 -124 431 -119Q440 -117 460 -105Q469 -87 461 -80Q462 -75 457 -66Q453 -59 454 -54Q449 -42 437 -34Q439 -28 432 -25Q427 -22 427 -19Q426 -3 412 12Q402 23 384 33Q380 33 376 32Q375 27 370 21Q363 12 363 7Q361 5 363 2Q365 -1 363 -3Q359 -2 359 -12Q361 -17 365 -21Q370 -24 376 -27Q381 -31 380 -37Q384 -42 390 -47Q396 -51 397 -58Q402 -61 407 -65Q413 -75 419 -85Q419 -89 423 -95Q428 -103 426 -108Q417 -114 408 -111Q402 -112 400 -107Q397 -101 395 -97Q389 -93 382 -82Q374 -69 365 -67Q362 -62 355 -59Q346 -55 344 -51Q339 -57 334 -63Q322 -83 330 -100Q343 -110 357 -128Q350 -137 356 -143Q350 -152 350 -153Q351 -156 348 -161Q344 -167 346 -169Q346 -182 357 -181Q360 -178 363 -181Q366 -184 370 -183Q374 -185 380 -191Q390 -200 396 -202Q399 -206 407 -210Q417 -215 419 -222Q418 -224 418 -225Q421 -225 427 -227Q428 -227 431 -227Q434 -227 434 -231Q429 -235 433 -238Q439 -241 442 -245Q445 -248 451 -251Q456 -255 454 -259Q433 -254 412 -250Q402 -245 382 -249Q366 -253 350 -262Q340 -268 356 -271Q386 -271 412 -281Q437 -288 464 -293Q469 -296 479 -296Q488 -296 492 -299Q496 -304 507 -306Q515 -307 518 -309Q528 -307 534 -315Q536 -318 542 -321Q546 -323 547 -326ZM567 -82Q565 -79 567 -77Q572 -75 573 -78Q573 -79 573 -81Q572 -84 567 -82Z"/>
</svg>