<svg xmlns="http://www.w3.org/2000/svg" viewBox="0 -800 1024 1024">
	<path fill="#000000" d="M474 -719Q483 -719 492 -719Q496 -718 499 -715Q503 -712 507 -715Q512 -714 518 -715Q527 -717 532 -712Q537 -712 544 -705Q548 -701 552 -699Q551 -694 553 -674Q559 -668 559 -659Q559 -649 560 -642Q559 -635 564 -625Q568 -616 568 -610Q572 -591 578 -573Q582 -562 586 -551Q593 -537 597 -522Q603 -507 608 -493Q611 -486 614 -478Q616 -469 622 -466Q633 -471 648 -476Q674 -484 684 -491Q701 -485 724 -492Q727 -489 736 -489Q743 -489 746 -488Q750 -485 755 -480Q760 -475 758 -469Q758 -456 744 -449Q740 -447 719 -441Q702 -435 684 -430Q677 -428 669 -427Q666 -423 657 -422Q648 -421 645 -418Q650 -403 654 -389Q663 -373 672 -358Q681 -337 694 -322Q697 -319 700 -312Q705 -302 710 -299Q719 -317 728 -336Q732 -340 728 -350Q725 -357 727 -361Q727 -365 732 -364Q737 -364 741 -364Q748 -368 759 -363Q768 -359 772 -360Q776 -357 785 -358Q794 -359 798 -356Q814 -351 816 -327Q813 -324 811 -318Q808 -310 803 -309Q789 -299 784 -287Q779 -285 775 -277Q772 -269 769 -268Q763 -251 749 -240Q746 -232 753 -225Q760 -218 764 -213Q781 -189 797 -166Q800 -162 812 -150Q826 -136 831 -126Q836 -119 841 -113Q842 -109 847 -104Q852 -100 852 -97Q866 -84 878 -69Q884 -68 889 -59Q892 -53 897 -50Q898 -45 908 -35Q916 -26 918 -21L937 -1Q944 -7 945 -16Q946 -26 946 -35Q946 -60 948 -70Q953 -59 955 -46Q959 -34 959 -25Q964 -21 966 -9Q968 1 971 5Q976 23 980 41Q979 52 987 65Q990 82 998 83Q1001 89 997 90Q993 92 989 88Q987 85 977 82Q977 84 971 95Q968 88 957 93Q944 91 936 82Q931 83 926 76Q923 72 921 71Q919 66 912 61Q903 54 901 48Q896 40 881 23Q866 6 859 -7Q851 -8 848 -16Q844 -24 839 -29Q819 -60 804 -75Q799 -76 796 -87Q793 -96 786 -95Q776 -104 769 -118Q761 -129 756 -133Q753 -135 751 -142Q749 -149 745 -147Q729 -169 713 -192Q712 -196 709 -196Q707 -196 702 -191Q696 -185 693 -185Q689 -192 685 -189Q682 -186 678 -182Q675 -175 667 -172Q659 -170 653 -165Q648 -169 636 -164Q628 -161 622 -161Q618 -161 617 -167Q616 -172 612 -174Q620 -176 628 -178Q639 -190 653 -213Q667 -236 676 -246Q675 -254 666 -264Q657 -274 656 -279Q627 -324 603 -373Q595 -388 587 -404Q568 -403 538 -393Q522 -391 494 -382Q464 -372 449 -371Q445 -367 438 -367Q431 -367 429 -366Q418 -366 409 -373Q404 -369 400 -374Q395 -380 390 -382Q380 -384 369 -387Q360 -386 358 -389Q358 -390 361 -392Q387 -396 427 -408Q456 -420 484 -427Q503 -432 521 -438Q541 -443 560 -448Q568 -456 563 -464Q558 -472 554 -480Q540 -514 526 -549Q516 -582 506 -615Q500 -630 500 -645Q492 -665 484 -685Q485 -694 478 -698Q471 -702 464 -708Q469 -713 474 -719ZM636 -587H638Q647 -583 655 -583Q666 -583 673 -582Q690 -581 707 -580Q712 -577 716 -577L723 -576Q728 -576 732 -573Q740 -563 761 -561Q765 -558 771 -554Q778 -551 781 -543Q787 -537 785 -520Q788 -514 783 -509Q781 -507 772 -500Q767 -495 757 -495Q743 -495 730 -505Q709 -506 694 -520Q685 -520 679 -526Q673 -533 667 -538Q667 -542 661 -547Q654 -552 656 -558Q643 -571 636 -587ZM187 -504H230Q251 -499 271 -494Q286 -475 284 -467Q282 -466 279 -461Q275 -455 273 -456Q263 -449 251 -453Q243 -449 236 -452Q230 -454 221 -455Q204 -458 189 -465Q185 -468 178 -467Q177 -468 178 -470Q171 -484 147 -491Q142 -494 144 -496Q147 -499 152 -496Q170 -500 187 -504ZM243 -369Q251 -371 252 -365Q251 -361 258 -361Q266 -360 266 -354Q268 -347 261 -342Q266 -331 264 -320Q257 -312 258 -302Q259 -292 258 -283Q255 -265 256 -249Q253 -231 250 -213Q243 -201 247 -186Q242 -178 242 -159Q242 -143 240 -137Q240 -124 240 -112Q242 -111 242 -104Q242 -97 247 -97Q270 -116 281 -128Q307 -162 316 -193Q322 -191 322 -185Q322 -180 321 -175Q318 -164 319 -152Q312 -129 311 -126Q305 -111 295 -105Q297 -97 293 -90Q289 -83 285 -76Q279 -71 272 -58Q266 -47 261 -42Q257 -40 253 -35Q247 -27 243 -26Q241 -19 235 -16Q227 -13 221 -20Q220 -23 214 -25Q208 -27 209 -31Q206 -38 196 -49Q187 -58 184 -65Q186 -77 185 -95Q184 -124 187 -135Q185 -147 189 -176Q192 -246 203 -296Q203 -301 200 -301Q194 -298 187 -296Q176 -289 160 -292Q150 -291 143 -294Q126 -300 105 -299Q104 -300 97 -301Q91 -302 92 -306Q114 -312 147 -330Q160 -333 179 -346Q206 -364 221 -363Q224 -365 232 -365Q240 -365 243 -369ZM536 -350Q548 -350 560 -344Q579 -328 583 -325Q589 -324 594 -321Q600 -318 607 -320Q619 -306 620 -296Q616 -295 614 -289Q612 -285 610 -286Q593 -277 589 -261Q591 -246 587 -229Q584 -217 581 -205Q582 -162 578 -119Q575 -110 574 -101Q573 -92 565 -86Q564 -80 556 -80Q545 -80 543 -89Q533 -96 527 -109Q518 -120 515 -128Q521 -141 523 -155Q523 -165 523 -176Q528 -189 523 -202Q526 -228 526 -255Q523 -261 513 -256Q507 -253 503 -254Q491 -251 481 -248Q470 -246 464 -236Q461 -234 461 -227Q461 -219 457 -217Q452 -197 449 -191Q454 -185 448 -177Q443 -170 444 -166Q444 -148 437 -133Q439 -121 426 -100Q428 -91 417 -80Q416 -71 411 -68Q407 -64 402 -59Q395 -72 387 -76Q386 -82 380 -95Q373 -109 374 -118Q385 -137 393 -177Q401 -202 398 -227Q390 -227 381 -227Q377 -227 371 -230Q364 -234 360 -231Q348 -244 331 -246Q321 -248 319 -251Q320 -251 323 -251Q352 -259 381 -265Q384 -267 395 -269Q407 -271 411 -277Q415 -308 402 -332Q400 -335 397 -341Q394 -348 400 -349Q407 -346 415 -336Q426 -323 434 -321Q441 -319 447 -306Q452 -295 459 -292Q470 -293 496 -303Q512 -305 525 -312Q531 -311 535 -317Q539 -322 539 -328Q533 -342 525 -344Q523 -348 525 -349Q530 -350 536 -350Z"/>
</svg>