<svg xmlns="http://www.w3.org/2000/svg" viewBox="0 -800 1024 1024">
	<path fill="#000000" d="M261 -698Q268 -699 277 -694Q280 -690 289 -692Q298 -694 301 -692Q310 -693 319 -676Q323 -674 323 -666Q323 -659 324 -657Q322 -642 319 -627Q312 -610 307 -591Q299 -581 299 -568Q295 -564 293 -545Q284 -531 294 -531Q300 -533 314 -535Q321 -534 328 -533Q332 -530 337 -532Q341 -534 346 -535Q354 -531 361 -528Q365 -518 365 -510Q359 -505 357 -498Q356 -494 349 -490Q343 -487 341 -484Q338 -481 329 -482Q320 -483 317 -479Q292 -475 282 -470Q272 -472 267 -465Q262 -459 257 -452Q248 -439 241 -423Q241 -409 233 -399Q225 -387 220 -372Q214 -368 214 -361Q213 -355 211 -349Q206 -342 209 -335Q233 -345 256 -355Q260 -359 265 -357Q269 -355 274 -355Q279 -360 278 -366Q277 -373 277 -379Q278 -384 275 -390Q272 -396 273 -399Q276 -404 280 -402Q284 -400 286 -395Q296 -393 308 -386Q313 -384 319 -378Q324 -372 331 -376Q337 -388 352 -381Q370 -385 387 -380Q397 -368 389 -350Q380 -342 368 -341Q356 -339 345 -335Q331 -329 335 -305Q336 -301 334 -293Q332 -282 335 -277Q342 -275 349 -279Q356 -283 363 -287Q367 -287 373 -293Q379 -300 384 -299Q386 -289 381 -281Q376 -273 372 -265Q371 -260 365 -257Q359 -254 358 -252Q351 -244 342 -239Q332 -234 329 -223Q332 -212 330 -197Q326 -185 330 -173Q329 -159 327 -145Q322 -140 326 -128Q322 -116 321 -109Q317 -102 317 -93Q315 -71 314 -59Q306 -49 304 -36Q299 -33 295 -28Q292 -23 286 -25Q278 -39 269 -53Q268 -61 261 -64Q254 -67 250 -72Q244 -76 247 -81Q250 -86 251 -91Q249 -98 252 -103Q255 -108 258 -112Q257 -124 265 -144Q267 -157 270 -169Q270 -176 272 -184Q274 -192 267 -195Q213 -161 162 -122Q155 -120 147 -110Q142 -103 138 -101Q134 -101 128 -96Q123 -92 120 -92Q109 -101 104 -114Q92 -128 83 -140Q80 -147 83 -153Q87 -159 89 -164Q90 -169 90 -176Q88 -184 97 -185Q102 -178 107 -171Q112 -170 119 -167Q125 -164 130 -171Q150 -171 159 -178Q165 -185 197 -202Q217 -214 239 -224Q253 -234 265 -238Q273 -239 276 -247Q279 -254 276 -262Q278 -272 276 -280Q275 -282 275 -290Q275 -299 271 -301Q251 -295 233 -284Q220 -282 212 -273Q209 -273 202 -269Q194 -264 189 -267Q186 -269 180 -265Q174 -261 170 -263Q165 -274 153 -294Q152 -299 145 -304Q137 -311 137 -316Q135 -320 138 -327Q141 -333 140 -337Q137 -342 143 -349Q149 -356 148 -360Q145 -366 150 -369Q155 -373 158 -377Q163 -393 179 -421Q181 -427 182 -429L187 -438Q193 -448 189 -454Q185 -462 177 -463Q168 -464 161 -465Q156 -473 150 -481Q153 -486 160 -484Q166 -483 172 -484Q181 -488 191 -489Q204 -495 220 -499Q227 -515 234 -532Q239 -549 243 -566Q247 -585 253 -602Q263 -640 263 -660Q266 -674 256 -684Q247 -693 261 -698ZM616 -626Q624 -625 657 -616Q674 -618 678 -598Q682 -592 678 -587Q674 -582 672 -575Q661 -563 655 -548Q655 -544 648 -538Q640 -531 640 -526Q640 -520 645 -520Q650 -519 655 -518Q662 -519 672 -516L688 -511Q721 -500 763 -477Q775 -474 804 -460Q811 -459 825 -452Q837 -446 844 -444Q871 -430 898 -416Q918 -408 938 -401Q943 -397 953 -394Q956 -394 958 -390Q962 -384 966 -385Q976 -385 982 -377Q992 -364 989 -357Q986 -350 980 -347Q974 -344 968 -340Q959 -332 947 -335Q911 -346 902 -348Q891 -353 879 -359Q852 -372 825 -385Q816 -392 763 -421Q739 -435 714 -445Q682 -464 679 -465Q641 -487 628 -492Q624 -497 619 -496Q614 -495 613 -489Q592 -460 587 -456Q575 -442 565 -426Q552 -408 538 -390Q527 -382 523 -371Q513 -369 506 -356Q501 -355 496 -348Q492 -343 489 -341Q484 -341 480 -335Q476 -329 473 -328Q459 -331 450 -315Q447 -312 441 -314Q435 -316 433 -313Q429 -309 423 -311Q416 -313 414 -311Q407 -302 396 -313Q400 -325 406 -329Q415 -333 418 -334Q449 -363 475 -396Q502 -433 525 -471Q537 -480 542 -494Q559 -534 601 -591Q605 -595 604 -600Q602 -606 597 -606Q595 -608 589 -609Q583 -610 583 -613Q587 -621 596 -620Q600 -624 616 -626ZM688 -374Q717 -376 723 -360Q719 -350 715 -341Q716 -333 704 -326Q696 -321 694 -317Q683 -310 671 -308Q674 -292 676 -276Q675 -261 677 -250Q692 -248 706 -247Q713 -247 717 -242Q722 -237 720 -231Q716 -210 699 -207Q695 -203 684 -203Q669 -202 670 -194Q669 -187 662 -160Q664 -146 660 -129Q658 -127 659 -121Q660 -114 656 -112Q656 -102 655 -92Q666 -90 679 -91Q682 -92 687 -92L705 -93Q709 -93 713 -94Q736 -95 759 -96Q782 -96 805 -97Q817 -94 828 -91Q845 -92 859 -72Q857 -55 849 -48Q842 -44 835 -39Q828 -35 819 -37Q814 -33 798 -38Q746 -39 694 -40Q685 -41 672 -41Q640 -41 605 -38Q583 -36 561 -35Q522 -39 502 -44Q489 -49 475 -54Q471 -56 472 -60Q473 -61 475 -60Q498 -68 527 -73Q546 -74 562 -78Q576 -81 589 -85Q588 -94 592 -102Q600 -116 602 -134Q607 -152 610 -171Q609 -177 611 -183Q613 -189 608 -194Q590 -194 574 -200Q557 -200 535 -206Q526 -207 522 -207Q523 -208 524 -208Q539 -210 550 -215Q576 -222 602 -229Q609 -229 613 -232Q618 -236 616 -242Q620 -262 617 -286Q621 -290 617 -298Q615 -307 607 -309Q598 -311 590 -313Q578 -319 570 -320Q563 -320 559 -326Q555 -332 562 -335Q566 -338 593 -346Q615 -352 635 -359Q639 -359 649 -364Q660 -369 667 -369Q674 -370 688 -374Z"/>
</svg>