<svg xmlns="http://www.w3.org/2000/svg" viewBox="0 -800 1024 1024">
	<path fill="#000000" d="M363 -677Q376 -677 379 -674Q396 -668 395 -659Q393 -653 396 -645Q395 -639 391 -638Q386 -636 382 -635Q379 -636 374 -632Q369 -628 366 -630Q360 -632 356 -630Q352 -628 348 -627Q322 -624 299 -615Q291 -611 284 -611Q277 -611 269 -615Q258 -616 247 -618Q227 -619 209 -626Q204 -629 190 -629Q179 -629 172 -632Q162 -637 177 -640Q193 -646 210 -649Q241 -657 250 -658Q256 -662 270 -664Q281 -666 288 -669Q298 -669 303 -671Q311 -678 319 -676Q328 -674 338 -674Q349 -677 363 -677ZM247 -588Q249 -589 252 -585Q251 -578 255 -572Q261 -568 263 -560Q274 -560 287 -564Q302 -567 317 -570Q327 -572 335 -569Q339 -566 348 -567Q355 -568 358 -566Q370 -568 373 -560Q374 -555 380 -552Q386 -549 386 -544Q385 -539 387 -527Q389 -513 385 -506Q380 -503 380 -498Q380 -494 378 -489Q377 -482 370 -478Q364 -474 358 -470Q354 -466 350 -462Q345 -458 345 -452Q350 -447 349 -439Q347 -430 340 -428Q334 -420 326 -420Q317 -419 310 -416Q287 -415 266 -410Q259 -407 247 -409Q246 -409 244 -410L235 -413Q234 -413 232 -414Q217 -417 203 -425Q184 -431 181 -439Q182 -446 179 -450Q175 -455 174 -460Q176 -474 177 -489Q183 -499 186 -510Q190 -527 214 -559Q220 -569 229 -575Q238 -581 247 -588ZM313 -530Q311 -529 293 -529Q288 -526 283 -521Q278 -516 272 -518Q267 -521 258 -520Q249 -519 247 -520Q240 -521 239 -515Q239 -508 238 -503Q237 -493 232 -485Q227 -480 227 -474Q227 -467 225 -461Q222 -452 224 -445Q226 -444 246 -447Q264 -452 284 -454Q292 -466 300 -479Q309 -489 314 -501Q319 -512 325 -523Q328 -528 322 -530Q316 -532 313 -530ZM671 -528Q683 -526 694 -525Q706 -529 722 -522Q739 -519 743 -502Q749 -490 745 -478Q744 -455 742 -433Q739 -422 746 -413Q755 -413 773 -419Q777 -419 781 -420L796 -422Q800 -422 803 -423Q808 -425 824 -419Q833 -421 841 -423Q862 -417 883 -404Q891 -403 896 -391Q900 -381 904 -378Q903 -373 907 -364Q912 -354 909 -348Q903 -345 903 -338Q903 -331 902 -325Q888 -309 887 -296Q879 -293 878 -286Q876 -280 874 -273Q863 -266 856 -254Q838 -245 843 -228Q849 -220 836 -212Q830 -212 823 -204Q814 -195 807 -196Q801 -192 794 -188Q786 -184 780 -189Q762 -194 745 -193Q735 -192 733 -184Q731 -174 730 -164Q724 -158 721 -142Q719 -129 715 -123Q715 -118 706 -106Q701 -99 698 -92Q695 -87 701 -85Q706 -84 710 -87Q733 -91 755 -96Q767 -98 779 -100Q786 -103 810 -108Q826 -108 835 -109Q847 -116 840 -127Q839 -131 836 -136Q831 -143 833 -146Q842 -146 850 -146Q876 -143 895 -121Q902 -104 918 -99Q919 -95 919 -89Q919 -84 925 -81Q929 -70 933 -59Q939 -54 935 -49Q930 -44 928 -39Q929 -35 923 -30Q918 -26 918 -23Q913 -18 905 -19Q895 -14 885 -29Q878 -41 877 -45Q874 -52 871 -59Q868 -67 860 -66Q842 -61 823 -56Q801 -55 781 -51Q760 -46 739 -41Q722 -35 707 -39Q694 -36 680 -34Q666 -32 661 -37Q651 -47 640 -52Q635 -64 626 -75L630 -98Q639 -115 650 -129Q651 -135 658 -145Q665 -155 666 -162Q677 -181 665 -185Q652 -189 641 -185Q636 -186 630 -192Q620 -201 613 -199Q604 -202 595 -205Q583 -212 561 -236Q554 -241 553 -248Q552 -255 549 -260Q548 -266 547 -272L544 -297Q543 -303 542 -309Q547 -323 552 -338Q569 -360 579 -383Q588 -391 595 -401Q602 -412 613 -414Q627 -411 635 -397Q641 -392 639 -376Q642 -371 649 -374Q655 -377 660 -379Q671 -386 684 -391Q691 -392 695 -402Q695 -413 694 -424Q691 -454 694 -481Q696 -497 687 -504Q686 -509 676 -517Q669 -523 671 -528ZM504 -336Q522 -285 522 -258Q521 -247 519 -237Q520 -233 518 -227Q516 -220 517 -216Q515 -204 517 -190Q514 -174 511 -159Q509 -146 502 -135Q502 -128 501 -121Q496 -116 496 -105Q496 -101 490 -94Q485 -88 484 -83Q474 -66 457 -50Q452 -50 448 -43Q445 -37 441 -36Q418 -58 409 -91Q405 -107 393 -121Q383 -132 381 -141Q380 -143 380 -144Q384 -145 389 -139Q411 -117 421 -111Q427 -107 433 -114Q437 -119 439 -127Q446 -147 452 -168L457 -198Q460 -213 462 -229Q466 -295 456 -332Q447 -349 421 -349Q417 -348 413 -348Q412 -348 390 -345Q387 -343 377 -342Q366 -341 362 -336Q343 -331 339 -329Q337 -327 327 -325Q316 -322 312 -316Q318 -313 324 -310Q329 -306 331 -301Q334 -295 341 -297Q346 -300 350 -296Q354 -292 352 -286Q354 -271 348 -265Q346 -261 336 -256Q324 -261 316 -242Q320 -235 330 -243Q333 -246 336 -246Q346 -242 356 -239Q366 -243 376 -238Q382 -222 368 -213Q358 -212 348 -211Q336 -209 323 -208Q320 -209 299 -206Q293 -209 288 -206Q284 -202 290 -197Q295 -195 304 -176L303 -139Q304 -135 302 -127L299 -114Q302 -101 293 -87Q293 -81 288 -75Q283 -69 278 -75Q266 -87 265 -89Q264 -93 257 -101Q248 -111 252 -118Q250 -124 252 -141Q255 -157 261 -171Q262 -177 263 -184Q263 -192 257 -195Q242 -196 229 -192Q202 -199 197 -202Q187 -207 176 -207Q164 -210 164 -188Q161 -170 158 -153Q155 -147 157 -127Q154 -118 155 -106Q153 -103 156 -97Q159 -92 158 -88Q151 -83 142 -86Q136 -84 132 -88Q129 -92 125 -94Q115 -99 113 -108Q110 -116 105 -123Q100 -140 101 -155Q106 -163 106 -173Q106 -183 108 -192Q108 -206 111 -218Q117 -237 123 -257Q128 -279 138 -300Q161 -346 187 -358Q196 -367 204 -354Q208 -348 202 -335Q202 -325 215 -332Q244 -350 284 -358Q286 -359 310 -367L328 -371Q352 -379 354 -380Q372 -385 391 -387Q401 -390 413 -388Q430 -390 462 -374Q473 -367 483 -360Q494 -354 504 -336ZM815 -372Q807 -370 799 -369Q797 -366 789 -366Q784 -366 781 -364Q774 -367 761 -360Q751 -361 744 -353Q737 -345 739 -333Q741 -327 737 -315Q733 -301 736 -293Q739 -283 735 -270Q734 -257 734 -240Q736 -232 744 -234Q752 -235 759 -235Q767 -232 774 -235Q782 -238 783 -245Q801 -261 808 -282Q820 -307 832 -333Q833 -342 834 -352Q835 -361 829 -368Q822 -375 815 -372ZM623 -345Q621 -346 619 -344Q617 -342 618 -340Q617 -329 619 -319Q616 -292 613 -266Q611 -262 616 -253Q621 -245 620 -239Q623 -231 629 -222Q635 -212 647 -215Q660 -224 677 -227Q682 -233 682 -251Q682 -261 684 -267Q687 -290 687 -336Q684 -342 679 -340Q674 -337 669 -338Q655 -330 646 -338Q633 -345 623 -345ZM192 -313Q190 -313 189 -308Q189 -299 185 -281Q185 -248 171 -220Q171 -213 173 -210Q177 -208 179 -212Q197 -214 214 -217Q218 -221 228 -221Q239 -221 243 -226Q236 -237 229 -245Q231 -257 227 -262Q234 -277 248 -288Q254 -296 260 -304Q256 -310 242 -304Q238 -300 232 -300Q226 -300 208 -309Q206 -309 201 -312Q195 -316 192 -313ZM279 -308L278 -307Q276 -300 277 -286Q278 -267 274 -259Q269 -249 271 -245Q276 -240 279 -248Q279 -261 287 -269Q293 -281 296 -291Q294 -306 292 -309Q285 -310 279 -308Z"/>
</svg>