<svg xmlns="http://www.w3.org/2000/svg" viewBox="0 -800 1024 1024">
	<path fill="#000000" d="M344 -667H345Q357 -663 373 -661Q380 -663 384 -658Q388 -654 393 -650Q394 -648 400 -645Q408 -641 409 -635Q409 -627 407 -607Q409 -602 406 -596Q402 -591 401 -586Q389 -573 393 -548Q390 -538 387 -528Q386 -496 382 -464Q383 -450 381 -437Q377 -426 381 -414Q376 -387 381 -365Q377 -346 383 -326Q386 -315 384 -302Q380 -297 384 -285Q387 -275 385 -269Q383 -263 385 -258Q388 -253 389 -246Q391 -242 388 -234Q385 -225 389 -220Q391 -210 392 -198Q397 -185 394 -171Q392 -157 390 -143Q389 -135 388 -127Q386 -112 383 -104Q375 -83 373 -69Q373 -64 369 -62Q365 -61 362 -58Q352 -50 346 -61Q335 -70 334 -78Q332 -83 327 -84Q323 -85 319 -85Q314 -88 315 -93Q315 -99 315 -102Q309 -109 288 -128Q282 -135 276 -142Q269 -148 267 -156Q274 -157 278 -151Q282 -145 288 -141Q295 -136 303 -130Q310 -124 320 -126Q329 -128 326 -144Q327 -157 328 -171Q324 -199 324 -234Q322 -274 324 -286Q324 -312 325 -315Q324 -321 326 -329Q329 -339 326 -344Q320 -343 318 -335Q316 -328 314 -326Q310 -319 295 -305Q280 -292 276 -283Q272 -280 267 -270Q260 -257 252 -256Q247 -260 235 -274Q233 -276 231 -284Q229 -292 224 -294Q215 -294 215 -300Q214 -307 212 -314Q209 -321 214 -327Q224 -334 228 -354Q233 -367 234 -381Q239 -389 240 -399Q241 -408 243 -417Q243 -424 243 -431Q242 -439 236 -443Q231 -448 228 -453Q228 -458 234 -459Q239 -459 243 -461Q252 -461 260 -461Q280 -463 286 -455Q286 -452 291 -449Q297 -445 297 -440Q295 -435 299 -420Q303 -413 290 -405Q280 -392 280 -373Q279 -372 274 -356Q275 -352 279 -353Q283 -355 287 -357Q291 -363 302 -373Q314 -383 317 -390Q321 -393 320 -403Q319 -411 323 -414Q326 -419 324 -429Q323 -436 324 -440Q329 -453 329 -468Q331 -486 332 -505Q335 -514 335 -529Q335 -548 338 -555Q339 -578 342 -598Q341 -605 342 -612Q344 -620 338 -623Q323 -616 307 -610Q304 -608 295 -606Q287 -605 283 -601Q276 -595 269 -591Q260 -577 247 -584Q233 -586 218 -588Q208 -591 197 -595Q186 -593 185 -581Q185 -576 187 -560Q194 -549 193 -543Q188 -537 190 -530Q192 -522 193 -514Q191 -503 194 -491Q194 -483 193 -475Q193 -466 198 -459Q206 -455 202 -442Q197 -434 200 -425Q201 -398 196 -373Q194 -359 192 -346Q195 -337 187 -299Q183 -294 187 -290Q190 -286 193 -282Q191 -276 191 -274L185 -258Q185 -256 183 -250Q183 -246 180 -238Q177 -230 178 -223Q180 -217 173 -209Q168 -203 168 -198Q167 -184 162 -171Q157 -163 145 -130Q146 -123 141 -118Q140 -116 131 -109Q124 -105 119 -111Q115 -118 111 -123Q106 -137 101 -152Q98 -158 106 -171Q108 -186 118 -197Q123 -202 119 -211Q116 -219 118 -222Q124 -226 128 -235Q128 -238 128 -242L130 -257Q130 -260 130 -264Q128 -276 132 -285Q136 -294 137 -304Q139 -317 141 -330Q141 -342 147 -360Q150 -389 153 -418Q155 -432 157 -460Q159 -473 159 -522L158 -558Q160 -571 161 -585Q169 -594 176 -604Q176 -611 182 -610Q184 -610 193 -605Q200 -606 211 -612Q221 -618 226 -619Q246 -631 267 -642Q271 -647 282 -649Q293 -651 296 -653Q306 -661 319 -663Q332 -665 344 -667ZM614 -605Q638 -602 639 -602Q647 -600 656 -598Q665 -596 668 -587Q677 -577 674 -561Q675 -544 673 -527Q671 -508 669 -490Q666 -482 664 -465Q665 -458 672 -459Q678 -461 683 -462Q704 -468 727 -472Q746 -474 766 -471Q776 -469 787 -466Q797 -463 804 -453Q808 -444 815 -433Q824 -422 822 -403Q815 -399 819 -390Q822 -382 821 -379Q819 -369 816 -359Q814 -351 814 -340Q813 -322 811 -304Q811 -298 811 -292Q811 -287 817 -286Q822 -286 826 -284Q843 -283 858 -276Q861 -279 867 -275Q872 -271 876 -273Q880 -277 885 -270Q890 -262 896 -264Q906 -270 914 -256Q917 -245 917 -233Q914 -223 911 -213Q908 -208 904 -210Q899 -212 896 -214Q883 -212 858 -228Q834 -240 810 -253Q803 -256 801 -248Q799 -232 792 -217Q786 -199 784 -179Q779 -173 775 -158Q771 -132 762 -122Q758 -104 753 -86Q745 -81 741 -66Q721 -30 694 -8Q692 -5 684 -2Q677 0 675 5Q675 9 671 11Q667 14 663 15Q651 14 638 12Q635 3 631 -7Q629 -20 619 -40Q618 -45 612 -50Q605 -55 606 -59Q614 -56 621 -50Q641 -48 659 -52Q662 -55 664 -58L672 -71Q675 -74 677 -77Q687 -91 694 -110Q701 -123 711 -151Q714 -161 722 -181Q727 -201 732 -222Q735 -233 737 -244Q742 -269 747 -294Q751 -313 754 -332Q758 -344 759 -356Q763 -379 765 -403Q767 -422 750 -425Q742 -429 735 -425Q727 -422 720 -420Q716 -417 707 -417Q697 -417 694 -414Q669 -410 658 -404Q648 -403 650 -389Q647 -372 644 -356Q644 -323 636 -305Q636 -299 623 -261Q616 -251 614 -236Q613 -232 607 -223Q601 -214 600 -207Q588 -194 585 -177Q576 -171 576 -159L558 -135Q545 -125 545 -111Q526 -89 508 -65Q504 -64 500 -58Q495 -50 490 -50Q478 -61 466 -66Q459 -68 464 -79Q468 -86 495 -129Q502 -149 512 -167Q532 -204 535 -211Q535 -220 540 -226Q545 -232 549 -239Q552 -252 555 -265Q561 -281 566 -297Q570 -306 574 -316Q581 -325 579 -337Q582 -352 585 -367Q587 -372 585 -377Q583 -381 579 -378Q573 -380 562 -376Q554 -373 549 -374Q526 -378 502 -382Q495 -385 475 -383Q468 -383 465 -386Q464 -388 467 -390Q485 -401 508 -407Q527 -416 584 -431Q592 -432 595 -441Q596 -442 597 -456Q600 -480 603 -504Q604 -507 604 -512L607 -527Q608 -530 608 -534Q607 -540 608 -550Q610 -565 606 -570Q593 -577 580 -578Q576 -578 573 -579Q569 -581 570 -583Q579 -587 581 -588L603 -600Q605 -600 614 -605ZM468 -304L473 -303Q483 -300 489 -293Q489 -290 493 -285Q498 -279 498 -275Q493 -267 496 -263Q499 -259 507 -262Q513 -264 517 -262Q518 -253 507 -238Q500 -234 496 -220Q489 -208 478 -210Q476 -214 468 -214Q464 -214 462 -216Q457 -230 448 -239Q445 -245 442 -252Q438 -262 444 -270Q450 -278 456 -285Q455 -296 468 -304Z"/>
</svg>