<svg xmlns="http://www.w3.org/2000/svg" viewBox="0 -800 1024 1024">
	<path fill="#000000" d="M584 -651Q590 -650 595 -647Q620 -653 632 -644Q651 -638 645 -620Q642 -609 633 -606Q624 -602 615 -597Q610 -598 607 -594Q605 -591 602 -589Q591 -590 584 -582Q568 -575 554 -563Q547 -562 536 -554Q527 -547 522 -546Q520 -540 510 -537Q500 -534 497 -528Q476 -519 480 -496Q478 -481 485 -470Q484 -464 489 -456Q496 -446 492 -439Q494 -428 496 -417Q499 -415 499 -407Q499 -396 506 -396Q532 -407 558 -418Q598 -437 642 -448Q671 -460 703 -460Q713 -459 722 -458Q723 -456 739 -449Q737 -446 741 -441Q744 -438 743 -435Q739 -426 733 -420Q727 -403 710 -403L648 -387Q644 -384 639 -387Q635 -388 635 -383Q619 -375 603 -368Q597 -368 590 -362Q584 -357 581 -356Q567 -358 553 -360Q546 -361 520 -370Q516 -368 510 -372Q505 -375 503 -374Q499 -374 500 -370Q501 -366 499 -364Q498 -346 491 -329Q490 -316 491 -302Q492 -287 484 -275Q487 -267 482 -252Q482 -251 476 -230Q477 -225 472 -218Q467 -209 467 -204Q464 -190 460 -176Q461 -167 454 -154Q449 -144 448 -139Q450 -132 447 -124Q444 -112 436 -105Q436 -101 422 -71Q419 -67 417 -61Q415 -56 410 -54Q405 -53 402 -46Q399 -40 397 -40Q389 -37 379 -41Q369 -56 356 -68Q353 -81 350 -94Q354 -93 355 -95Q356 -99 356 -105Q363 -114 373 -131Q380 -144 386 -158Q396 -189 405 -220Q411 -229 415 -254Q418 -271 422 -280Q426 -314 430 -348Q438 -380 436 -423V-453Q430 -478 430 -504Q438 -522 446 -532Q450 -541 458 -547Q466 -553 475 -559Q481 -561 490 -571Q498 -580 504 -583Q511 -584 515 -589Q519 -594 523 -599Q528 -599 534 -605Q539 -609 542 -611Q545 -611 549 -618Q553 -624 558 -625Q560 -629 566 -633Q573 -637 574 -641Q576 -649 584 -651ZM195 -572H206Q232 -572 235 -571Q248 -570 261 -566Q274 -563 291 -555Q296 -553 296 -544Q296 -537 299 -534Q305 -528 300 -523Q295 -518 290 -514Q279 -503 262 -506Q260 -507 240 -510Q235 -510 214 -518Q198 -521 184 -526Q161 -536 159 -537Q144 -547 129 -551Q123 -554 126 -558Q130 -562 137 -560Q165 -567 195 -572ZM220 -420Q228 -421 252 -417Q260 -415 262 -398Q268 -393 273 -384Q278 -380 275 -376Q274 -375 268 -370Q258 -358 260 -336Q256 -311 252 -287Q247 -279 250 -269Q245 -257 245 -243Q245 -226 241 -214Q237 -202 240 -187Q239 -177 237 -168Q236 -158 237 -148Q237 -146 239 -145Q241 -145 243 -146Q255 -163 281 -185Q307 -211 327 -238Q329 -253 337 -255Q339 -244 338 -232Q339 -220 336 -204Q326 -183 315 -163Q302 -144 288 -125Q270 -106 252 -87Q248 -84 244 -86Q240 -88 236 -88Q231 -86 223 -91Q217 -94 213 -94Q183 -112 179 -133Q173 -149 176 -171Q179 -201 182 -231Q184 -248 190 -272Q196 -300 202 -328Q201 -335 203 -342Q204 -350 198 -353Q187 -352 177 -348Q169 -340 153 -345Q142 -346 131 -348Q121 -347 104 -353Q90 -358 82 -358Q76 -357 76 -362Q76 -366 81 -366Q110 -379 139 -393Q169 -412 198 -417Q209 -418 220 -420ZM848 -328Q857 -329 869 -322Q880 -321 890 -313Q907 -307 921 -278Q923 -265 918 -250Q921 -240 910 -223Q901 -199 891 -191Q889 -184 874 -164Q873 -157 868 -151Q862 -146 858 -140Q849 -132 835 -112Q832 -107 823 -101Q813 -94 810 -88Q816 -82 827 -84Q832 -84 844 -80Q854 -80 863 -72Q872 -65 863 -56Q856 -52 855 -45Q855 -39 850 -37Q844 -35 840 -33Q792 -37 768 -36Q767 -36 765 -36Q756 -36 758 -38Q757 -42 754 -41Q750 -39 749 -36H712Q713 -40 711 -41Q709 -42 706 -41Q689 -36 673 -39Q660 -39 647 -39Q631 -40 619 -48Q606 -55 599 -63Q613 -62 626 -62Q640 -67 657 -68Q665 -75 680 -73Q687 -79 698 -77Q704 -76 715 -79Q727 -82 734 -81Q737 -85 744 -85Q751 -85 753 -87Q786 -130 805 -168Q806 -169 809 -175L817 -188Q819 -191 821 -195Q822 -213 837 -233Q845 -253 853 -274Q858 -283 849 -287Q828 -287 811 -280Q790 -274 768 -269Q765 -267 756 -266Q747 -265 743 -262Q741 -262 712 -250Q703 -251 686 -238Q681 -240 674 -236Q668 -233 665 -234Q659 -241 650 -240Q642 -240 634 -241Q621 -242 618 -231Q615 -221 609 -212Q607 -193 599 -176Q598 -151 596 -126Q596 -108 597 -106Q597 -100 597 -94Q597 -90 592 -87Q587 -84 586 -80Q586 -74 580 -72Q561 -69 560 -77Q559 -85 554 -91Q548 -96 545 -102Q540 -113 540 -123Q536 -135 539 -143Q537 -153 543 -169Q543 -174 547 -183Q550 -189 550 -194Q550 -209 561 -226Q567 -248 589 -276Q592 -279 596 -286Q601 -295 606 -298Q618 -301 626 -287Q635 -282 630 -269Q630 -264 635 -264Q639 -263 643 -265Q694 -297 737 -307Q752 -312 767 -317Q784 -321 804 -323Q807 -326 825 -326Q837 -327 848 -328Z"/>
</svg>