<svg xmlns="http://www.w3.org/2000/svg" viewBox="0 -800 1024 1024">
	<path fill="#000000" d="M521 -767Q541 -767 558 -762H578Q586 -757 593 -757Q601 -754 604 -747Q607 -741 610 -735Q620 -721 614 -711Q614 -705 609 -702Q605 -699 603 -696Q589 -681 574 -666Q573 -661 565 -656Q555 -651 557 -645Q572 -645 586 -645Q607 -642 609 -640Q630 -625 617 -617Q617 -612 613 -612Q609 -611 605 -609Q603 -606 592 -604Q576 -601 556 -601Q548 -599 539 -597Q528 -598 515 -595Q512 -596 503 -595Q494 -594 490 -596Q480 -596 472 -593Q465 -593 460 -591Q454 -588 447 -592Q441 -589 435 -589Q427 -589 417 -593Q410 -589 404 -589Q393 -591 382 -593Q374 -591 368 -593Q359 -595 358 -602Q357 -607 360 -608Q362 -609 366 -605Q379 -608 394 -613Q436 -626 484 -631Q500 -649 513 -674Q517 -683 533 -720Q533 -727 527 -726Q520 -724 514 -722Q510 -717 492 -720Q478 -716 466 -710Q458 -705 450 -701Q441 -696 437 -690Q426 -687 422 -673Q416 -668 420 -653Q424 -646 418 -641Q412 -636 405 -642Q402 -643 398 -648Q394 -653 389 -655Q379 -659 376 -668Q373 -678 368 -685Q362 -708 361 -721Q366 -735 382 -749Q385 -756 397 -755L408 -741Q412 -736 422 -726Q430 -727 442 -735Q452 -741 457 -743Q469 -751 485 -755Q500 -758 521 -767ZM612 -533Q622 -531 632 -530Q637 -531 642 -528Q647 -525 646 -520Q635 -514 642 -503Q641 -497 630 -498Q622 -498 619 -496Q605 -483 584 -486Q569 -482 554 -479Q541 -477 528 -475Q519 -470 506 -471Q499 -467 492 -467Q485 -469 475 -463Q458 -461 440 -459Q431 -457 421 -453Q407 -448 393 -456Q384 -457 374 -458Q366 -458 357 -458Q351 -458 350 -453Q349 -447 347 -441Q346 -426 336 -414Q336 -409 334 -401L331 -387Q331 -379 331 -372Q331 -353 327 -336Q328 -336 370 -342Q378 -344 423 -359Q426 -356 428 -359Q431 -363 433 -362Q446 -365 458 -374Q459 -380 459 -399Q460 -405 460 -412Q460 -419 461 -421Q462 -424 468 -423L484 -409Q489 -397 492 -394Q493 -390 494 -384Q495 -380 499 -382Q510 -381 520 -380Q524 -368 503 -351Q497 -354 496 -350Q495 -343 492 -339Q493 -334 494 -328Q494 -322 500 -321Q520 -334 522 -335Q537 -348 568 -370Q585 -378 601 -386Q619 -390 636 -401Q640 -414 633 -424Q629 -428 623 -431Q617 -433 619 -439H624Q638 -436 652 -433Q680 -427 682 -426Q686 -424 684 -418Q682 -413 684 -410Q684 -405 690 -406Q695 -407 700 -406Q710 -409 721 -402Q723 -398 720 -396Q717 -394 714 -391Q713 -390 712 -389L709 -383Q708 -382 707 -381Q696 -378 685 -375Q673 -375 677 -359Q679 -346 677 -316Q680 -311 687 -312Q693 -313 700 -312Q718 -312 735 -308Q737 -307 738 -307L745 -305Q747 -305 748 -304Q759 -302 769 -300Q777 -297 784 -295Q788 -295 789 -289Q790 -283 794 -282Q804 -284 804 -267Q795 -260 788 -251Q779 -248 763 -255Q750 -258 741 -265Q717 -280 693 -288Q687 -290 681 -293Q675 -296 672 -289Q674 -272 668 -244Q669 -239 666 -231Q662 -220 667 -215L707 -214Q717 -210 726 -207Q732 -205 732 -199Q732 -192 732 -186Q720 -182 715 -177Q704 -180 696 -176Q677 -174 661 -170Q648 -169 636 -167Q625 -166 617 -162Q614 -158 605 -159Q598 -160 595 -158Q591 -155 582 -155Q570 -155 567 -149Q578 -134 586 -114Q587 -111 585 -106Q582 -99 586 -96Q592 -98 608 -102Q619 -106 666 -118Q684 -121 701 -125Q723 -128 747 -123Q756 -120 766 -115Q775 -111 779 -99Q781 -80 778 -69Q775 -61 770 -54Q765 -53 763 -42Q763 -38 758 -35Q752 -31 751 -28Q747 -16 728 -1Q727 1 721 5Q715 10 714 14Q708 17 718 25Q724 28 730 30Q742 28 741 39Q743 48 730 55Q727 55 719 59Q709 64 704 61Q688 61 676 56Q635 56 609 51Q594 48 579 50Q572 48 565 55Q559 60 557 61Q545 56 536 48Q524 32 517 16Q519 -11 524 -36Q522 -44 531 -57Q532 -64 527 -66Q522 -68 518 -64Q510 -52 488 -30Q484 -22 473 -14Q462 -5 458 0Q453 10 441 16Q436 18 429 28Q422 38 416 40Q408 39 400 52Q395 60 391 62Q384 62 382 66Q379 71 375 74Q371 72 366 63Q362 56 358 53Q356 50 352 48Q347 46 347 43Q349 39 356 37Q365 35 367 31Q394 8 421 -15Q426 -22 439 -34Q450 -44 455 -50Q459 -53 464 -61Q470 -69 474 -72Q476 -76 488 -90L503 -106Q512 -117 521 -129Q526 -134 522 -140Q518 -146 513 -142Q505 -140 487 -143Q474 -145 466 -144Q444 -144 425 -152Q421 -158 427 -161Q431 -163 437 -163Q450 -168 464 -169Q473 -169 487 -173Q513 -178 538 -184Q568 -193 599 -199Q605 -198 610 -202Q616 -206 615 -213Q619 -229 623 -246Q623 -263 628 -281Q627 -290 629 -299Q630 -308 623 -314Q617 -309 615 -299Q607 -285 600 -270Q592 -254 578 -244Q574 -243 570 -237Q564 -229 559 -230Q549 -236 558 -247Q567 -261 571 -272Q580 -292 588 -313Q593 -324 600 -333Q600 -337 605 -344Q609 -349 609 -352Q607 -356 604 -354Q598 -349 593 -348Q590 -345 582 -341Q571 -336 569 -333Q565 -335 557 -328Q550 -322 546 -324Q544 -323 531 -316Q526 -311 513 -303Q499 -295 494 -289Q492 -275 490 -261Q488 -256 487 -246Q486 -235 483 -231Q482 -210 477 -192Q477 -173 465 -173Q458 -173 451 -177Q445 -181 439 -193Q435 -201 431 -205Q426 -212 428 -219Q431 -226 433 -233Q426 -235 422 -229Q419 -222 414 -219Q413 -214 405 -203Q396 -191 397 -182Q394 -175 387 -175Q376 -175 376 -186Q374 -187 372 -192Q370 -197 367 -195Q358 -201 349 -207Q347 -215 351 -220Q355 -226 358 -232Q361 -237 369 -247Q373 -247 374 -253Q375 -258 379 -260Q383 -271 392 -274Q395 -280 397 -287Q400 -293 414 -306Q423 -314 429 -322Q420 -323 404 -316Q392 -310 385 -310Q378 -306 358 -302Q339 -309 320 -316Q319 -313 317 -310Q318 -301 311 -288Q306 -278 305 -274Q305 -258 302 -243Q299 -240 297 -225Q292 -219 288 -204Q278 -199 284 -184Q281 -170 276 -161Q273 -153 269 -145Q269 -134 263 -120Q261 -99 248 -86Q248 -69 238 -56Q236 -50 234 -47L226 -30Q224 -27 222 -21Q209 15 198 27Q188 28 181 21Q174 14 168 8Q162 5 162 -1Q162 -6 160 -11Q147 -24 161 -35Q168 -49 174 -63Q184 -83 193 -103Q204 -125 215 -147Q227 -180 239 -214Q243 -234 249 -251Q257 -273 264 -296Q268 -311 272 -326Q274 -339 278 -351Q279 -360 282 -366Q286 -387 290 -409Q296 -448 303 -458Q307 -471 327 -485Q330 -485 334 -491Q341 -500 347 -498Q350 -493 355 -489Q361 -485 360 -477Q361 -472 368 -474Q374 -477 378 -478Q384 -481 423 -491Q445 -497 467 -503Q479 -506 491 -510Q492 -510 496 -512Q494 -514 491 -514Q464 -524 456 -528Q445 -529 437 -535Q427 -538 420 -545Q417 -545 417 -546Q418 -550 424 -551Q446 -557 471 -556Q506 -556 516 -550Q528 -551 536 -545Q544 -542 552 -540Q553 -538 559 -535Q565 -532 566 -529Q569 -529 572 -530Q577 -533 592 -531Q605 -530 612 -533ZM711 -93L704 -90Q680 -88 665 -81Q646 -81 636 -76Q612 -76 592 -72Q586 -72 581 -72Q575 -72 572 -66Q575 -51 571 -37Q569 -33 569 -8Q569 1 566 8Q563 15 568 23Q568 30 574 31Q582 28 609 26Q621 22 635 23Q650 23 655 19Q673 2 701 -38Q720 -78 721 -84Q723 -89 719 -93Q715 -97 711 -93Z"/>
</svg>