<svg xmlns="http://www.w3.org/2000/svg" viewBox="0 -800 1024 1024">
	<path fill="#000000" d="M552 -763Q581 -763 595 -758Q610 -760 620 -738Q611 -729 615 -720Q614 -716 616 -710Q619 -703 616 -699Q612 -697 610 -690Q608 -683 605 -680Q605 -675 601 -674Q597 -673 595 -670Q593 -668 591 -661Q589 -654 585 -652Q584 -648 579 -646Q574 -644 573 -641Q571 -637 568 -631Q565 -625 558 -623Q549 -611 545 -596Q548 -593 555 -595Q561 -597 565 -595Q610 -605 636 -584Q641 -570 624 -562Q612 -554 600 -547Q584 -544 568 -541Q554 -538 543 -541Q540 -539 518 -536L463 -531Q460 -528 454 -530Q449 -532 448 -529Q431 -527 416 -521Q409 -523 399 -520Q389 -517 386 -518Q376 -512 367 -515Q364 -513 354 -514Q346 -515 342 -512Q323 -515 304 -518Q301 -522 293 -525Q283 -529 281 -533Q281 -538 284 -539Q291 -537 298 -539Q318 -543 337 -547Q344 -551 353 -553Q356 -555 367 -557Q376 -559 381 -563Q385 -564 389 -565L405 -568Q409 -569 413 -570L423 -572Q450 -574 473 -580Q493 -606 503 -627Q503 -631 510 -638Q516 -644 517 -649Q528 -663 536 -680Q542 -698 547 -716Q550 -720 548 -723Q546 -726 541 -727Q520 -716 496 -715Q486 -709 464 -703Q446 -698 438 -694Q437 -694 410 -683Q408 -681 400 -678Q389 -674 387 -669Q377 -653 371 -648Q370 -645 364 -643Q360 -642 358 -639Q360 -631 353 -630Q338 -636 333 -644Q329 -645 326 -652Q324 -656 323 -657Q317 -664 322 -680Q317 -696 329 -720Q335 -736 348 -737Q359 -740 369 -739Q378 -741 381 -733Q381 -722 384 -709Q386 -705 393 -709Q399 -712 402 -712Q425 -723 447 -734Q477 -744 506 -754Q529 -760 552 -763ZM537 -479Q556 -480 575 -479Q594 -477 608 -464Q612 -457 618 -450Q625 -444 625 -434Q626 -417 630 -399Q627 -370 626 -367Q626 -349 626 -332Q620 -313 620 -309Q620 -302 613 -293Q605 -283 605 -278Q596 -259 587 -241Q582 -231 550 -192Q542 -186 529 -173Q524 -172 519 -165Q513 -157 507 -158Q492 -148 489 -133Q480 -112 479 -94Q476 -79 473 -65Q473 -37 475 -30Q475 -13 490 11Q502 24 520 28Q538 32 556 36Q575 40 617 38Q627 40 637 37Q644 38 662 35Q680 32 692 34Q694 33 721 29Q747 28 773 26Q784 25 794 24Q801 24 823 22Q844 22 850 3Q856 -5 858 -25Q863 -37 861 -49Q858 -62 860 -72Q859 -73 859 -74Q861 -73 864 -70Q864 -66 870 -56Q875 -48 876 -43Q889 -17 892 -12Q892 0 903 11Q906 19 916 24Q917 35 918 46Q922 57 914 65Q904 70 892 71Q866 72 839 73Q810 73 780 73Q766 73 760 75Q737 74 667 77Q618 79 571 74Q549 72 542 70Q512 66 487 59Q453 42 448 26Q437 13 432 -8Q429 -19 428 -30Q427 -47 431 -61Q434 -87 439 -111Q446 -128 452 -145Q454 -149 451 -153Q450 -154 448 -151Q437 -147 428 -132Q425 -125 411 -114Q399 -104 395 -97Q387 -86 371 -82Q365 -82 362 -74Q359 -66 353 -67Q342 -70 340 -59Q335 -52 328 -58Q313 -68 318 -84Q316 -92 325 -96Q327 -101 335 -107Q343 -113 345 -117Q379 -156 413 -195Q416 -202 430 -217Q442 -230 445 -239Q452 -248 448 -261Q444 -273 432 -272Q428 -273 428 -274Q430 -280 438 -279Q460 -279 467 -277Q489 -273 499 -255Q496 -242 506 -236Q526 -244 533 -265Q537 -268 542 -281Q542 -295 547 -305Q547 -316 554 -325Q555 -336 555 -348Q551 -353 553 -358Q556 -363 556 -368Q556 -383 556 -398Q559 -408 552 -425Q549 -434 539 -436Q530 -438 522 -435L506 -431Q491 -426 489 -425Q477 -426 464 -422Q445 -429 433 -423Q424 -425 417 -421Q410 -417 409 -409Q405 -406 403 -398Q401 -391 399 -388Q392 -383 383 -367Q377 -363 377 -356Q377 -349 375 -343Q365 -329 364 -310Q365 -305 358 -292Q353 -280 351 -267Q347 -254 343 -241Q341 -235 334 -235Q328 -235 325 -241Q319 -245 313 -254Q307 -263 303 -266Q288 -281 300 -298Q298 -309 306 -324Q313 -337 313 -343Q314 -359 321 -372Q328 -386 334 -401Q335 -402 338 -408L346 -422Q348 -425 350 -429Q352 -435 362 -443Q373 -452 373 -459Q374 -468 388 -466Q398 -465 401 -467Q408 -468 422 -454Q421 -450 425 -446Q429 -443 433 -444Q438 -446 483 -465Q504 -472 514 -474Q520 -477 537 -479ZM506 -221L502 -218Q501 -212 493 -203Q487 -196 485 -192Q480 -189 482 -184Q484 -178 491 -180Q506 -194 511 -211Q512 -215 511 -219Q510 -223 506 -221Z"/>
</svg>