<svg xmlns="http://www.w3.org/2000/svg" viewBox="0 -800 1024 1024">
	<path fill="#000000" d="M695 -745Q700 -746 709 -743Q714 -740 726 -740Q740 -740 745 -736Q747 -727 755 -723Q771 -710 759 -684Q759 -680 755 -671Q751 -662 752 -655Q755 -647 763 -649Q771 -651 777 -649Q782 -641 786 -634Q790 -627 785 -620Q780 -621 778 -615Q776 -608 772 -608Q766 -610 759 -605Q753 -600 737 -601Q725 -602 720 -599Q715 -600 712 -594Q710 -590 706 -589Q696 -566 681 -553Q677 -556 673 -552Q670 -548 670 -543Q664 -536 658 -528Q653 -521 644 -517Q641 -518 637 -514Q633 -510 631 -513Q630 -519 624 -519Q617 -518 613 -519L637 -573Q641 -582 642 -589Q641 -591 637 -591Q607 -590 581 -580Q579 -568 580 -555Q572 -554 564 -547Q559 -536 554 -538Q551 -539 548 -544Q545 -548 542 -550Q542 -554 535 -555Q529 -556 529 -558Q530 -562 523 -566Q516 -570 516 -574Q513 -576 503 -575Q491 -574 487 -578Q474 -577 453 -590Q447 -594 451 -598Q457 -602 463 -599Q481 -601 509 -610Q524 -609 528 -633Q526 -653 527 -672Q531 -676 534 -671Q537 -665 540 -661Q548 -651 560 -643Q566 -649 573 -659Q584 -675 591 -680Q610 -700 632 -715Q651 -721 663 -735Q681 -737 695 -745ZM673 -703Q659 -699 648 -691Q632 -687 619 -680Q611 -674 603 -668Q594 -663 590 -654Q583 -647 581 -637Q575 -632 577 -625Q579 -620 584 -623Q608 -628 632 -633Q652 -636 672 -640Q679 -663 681 -684Q680 -692 679 -700Q678 -705 673 -703ZM245 -565Q256 -563 267 -561Q276 -561 285 -561Q294 -560 299 -553Q305 -546 310 -540Q315 -537 319 -524Q317 -511 314 -499Q306 -496 309 -483Q311 -473 308 -468Q310 -466 307 -459Q304 -451 310 -448Q316 -450 320 -450L327 -451Q331 -451 337 -453Q354 -453 371 -454Q377 -444 388 -444Q393 -433 398 -422Q398 -415 401 -409Q404 -403 397 -398Q400 -387 392 -378Q390 -370 381 -362Q368 -351 359 -350Q354 -349 350 -348Q347 -348 347 -343Q361 -336 355 -324Q350 -313 337 -313Q323 -309 309 -305Q288 -303 282 -295Q284 -278 276 -262Q272 -257 273 -246Q274 -236 271 -230Q268 -220 276 -216Q304 -237 328 -260Q333 -262 338 -267Q342 -272 345 -268Q346 -270 350 -277L358 -284Q363 -291 370 -291Q369 -295 374 -299Q377 -302 378 -305Q385 -305 385 -311Q386 -317 392 -319Q393 -309 387 -300Q382 -287 373 -277Q375 -263 361 -243Q352 -239 343 -228Q334 -217 329 -214Q327 -205 313 -191Q312 -187 306 -185Q299 -182 300 -177Q287 -160 279 -155Q275 -152 271 -144Q267 -135 262 -133Q257 -133 255 -130Q253 -126 251 -124Q241 -116 229 -126Q213 -132 211 -146Q198 -167 199 -178Q202 -184 207 -209Q212 -241 216 -274Q218 -282 203 -290Q190 -293 177 -296Q171 -293 166 -301Q161 -308 157 -309Q151 -308 141 -315Q132 -321 126 -322Q118 -327 119 -339Q120 -359 120 -360Q124 -375 132 -388Q140 -402 147 -415Q146 -420 153 -425Q158 -429 159 -432Q171 -439 183 -442Q191 -448 198 -442Q204 -436 211 -433Q222 -418 230 -426Q239 -428 240 -435Q241 -443 242 -450V-502Q241 -518 239 -535Q240 -541 236 -546Q230 -554 230 -556Q228 -561 231 -563Q239 -564 245 -565ZM340 -129Q362 -147 378 -167Q387 -172 393 -179Q399 -187 405 -193Q417 -210 432 -226Q444 -241 455 -256Q465 -268 479 -292Q492 -315 500 -325Q524 -357 544 -390Q545 -393 551 -401Q558 -411 557 -417Q550 -418 526 -415Q518 -419 500 -421Q484 -422 477 -425Q478 -428 474 -429Q471 -430 470 -432Q459 -437 467 -448Q482 -450 497 -452Q513 -455 528 -456Q533 -460 544 -462Q557 -465 561 -467Q567 -466 574 -469Q578 -472 573 -476Q568 -475 568 -478Q568 -482 563 -487Q559 -488 561 -492Q563 -495 567 -494Q575 -505 589 -508Q596 -510 601 -507Q606 -503 612 -501Q619 -503 628 -499Q642 -492 643 -492Q646 -484 653 -485Q661 -486 668 -488Q675 -502 693 -495Q700 -499 706 -503Q713 -508 721 -504Q725 -508 728 -506Q730 -503 734 -502Q751 -490 773 -494Q783 -493 773 -503Q760 -516 749 -530Q751 -532 749 -536Q747 -540 750 -542H751Q763 -536 776 -532Q792 -532 804 -524Q825 -524 828 -504Q827 -500 828 -493Q829 -487 823 -483Q817 -478 811 -483Q802 -486 801 -479Q799 -471 797 -466Q798 -460 795 -460Q789 -461 783 -458Q787 -451 774 -446Q758 -442 744 -448Q726 -444 705 -442Q693 -442 678 -440Q665 -438 653 -436Q640 -435 633 -423Q628 -420 622 -407Q618 -397 612 -393Q614 -389 610 -383Q607 -378 609 -376Q653 -371 699 -367Q751 -358 802 -350Q827 -345 851 -337Q854 -338 857 -335Q860 -332 863 -334Q884 -327 888 -325Q895 -326 896 -318Q897 -311 895 -306Q891 -302 896 -297Q901 -292 897 -289Q892 -286 887 -287Q883 -281 884 -275Q868 -276 844 -283Q842 -280 839 -282Q834 -284 833 -281Q831 -282 829 -281Q821 -274 818 -280Q815 -287 804 -283Q808 -286 810 -290Q812 -293 805 -296Q788 -299 770 -307Q697 -325 689 -328Q674 -331 659 -334Q644 -339 629 -344Q609 -346 594 -351Q588 -354 584 -345Q580 -334 577 -334Q562 -319 549 -305Q539 -294 533 -285Q522 -276 515 -265Q500 -256 487 -229Q465 -201 455 -193Q450 -192 445 -185Q438 -176 433 -178Q419 -169 408 -154Q405 -155 401 -150Q398 -146 396 -148Q383 -139 360 -133ZM327 -415L317 -411Q297 -412 297 -390Q298 -381 291 -376Q293 -368 291 -359Q289 -348 291 -343Q301 -338 323 -348Q330 -372 341 -390Q348 -398 345 -408Q341 -420 327 -415ZM217 -402Q213 -401 211 -396Q208 -390 206 -389Q197 -382 197 -372Q198 -362 195 -352Q180 -331 197 -311Q213 -311 224 -323Q227 -333 232 -388Q237 -395 231 -400Q224 -406 217 -402ZM693 -260L699 -258Q714 -257 730 -250Q735 -247 740 -245Q746 -243 747 -237Q752 -232 754 -218Q755 -208 757 -205Q770 -206 783 -204Q792 -197 791 -188Q793 -186 790 -183Q779 -179 775 -174Q775 -169 770 -166Q764 -162 764 -157Q760 -139 767 -125Q768 -112 764 -98Q766 -93 766 -68Q765 -58 763 -49Q763 -38 765 -26Q766 -15 759 -6Q757 -2 755 14Q758 21 753 35Q749 46 750 53Q749 54 743 70Q738 75 734 76Q729 77 724 79Q717 83 710 73Q705 66 700 65Q700 58 690 48Q673 34 685 17Q693 -14 696 -46Q699 -58 699 -72Q697 -83 701 -103Q706 -127 702 -138Q702 -155 700 -154Q670 -148 640 -143Q635 -144 631 -142Q621 -138 610 -138Q598 -138 592 -129Q596 -123 592 -116Q592 -94 592 -72Q590 -67 591 -59Q592 -47 588 -44Q583 -34 578 -24Q576 -27 568 -33Q559 -40 555 -46Q554 -50 547 -50Q543 -50 542 -51Q536 -67 522 -76Q519 -89 524 -99Q529 -110 531 -121Q534 -127 527 -130Q522 -132 513 -132Q500 -135 486 -138Q475 -147 463 -151Q453 -153 462 -156Q473 -160 483 -162Q502 -163 520 -165Q530 -166 540 -167Q549 -169 553 -178Q556 -182 557 -187Q559 -194 561 -194Q573 -196 575 -191Q578 -190 583 -184Q588 -177 593 -178Q606 -181 619 -184Q644 -189 669 -195Q680 -195 691 -199Q696 -198 697 -202Q699 -206 700 -209Q698 -221 695 -232Q693 -243 684 -251Q683 -256 686 -258Q688 -259 693 -260Z"/>
</svg>