<svg xmlns="http://www.w3.org/2000/svg" viewBox="0 -800 1024 1024">
	<path fill="#000000" d="M614 -729Q620 -730 632 -722Q640 -724 647 -716Q654 -719 662 -712Q669 -707 672 -706Q676 -705 676 -700Q675 -695 676 -692Q678 -687 678 -674Q674 -664 670 -638Q670 -630 664 -624Q659 -618 654 -611Q654 -592 649 -580Q646 -568 646 -555Q646 -545 645 -535Q647 -525 648 -516Q651 -512 649 -502Q647 -493 649 -489Q651 -478 653 -468Q652 -457 651 -447Q649 -437 661 -434Q670 -432 681 -435Q700 -438 736 -448Q740 -448 752 -455Q759 -465 769 -456Q775 -458 780 -462Q786 -466 794 -464Q804 -472 812 -460Q815 -457 825 -459Q832 -460 836 -459Q845 -459 842 -440Q840 -437 844 -432Q848 -427 847 -424Q846 -418 836 -417Q828 -416 826 -414Q796 -413 769 -406Q748 -403 726 -400Q716 -398 706 -397Q691 -400 681 -387Q677 -384 670 -387Q664 -390 661 -389Q652 -386 644 -390Q634 -393 623 -397Q613 -407 603 -417Q600 -423 593 -430Q584 -438 583 -443Q583 -467 584 -469Q586 -477 586 -492Q586 -511 589 -518Q592 -530 591 -540Q587 -532 581 -533Q575 -526 570 -531Q567 -535 561 -531Q552 -535 542 -539Q533 -544 524 -550Q521 -549 516 -557Q512 -548 511 -538Q506 -530 509 -520Q501 -511 494 -495Q490 -492 488 -479Q488 -470 483 -464Q477 -457 473 -450Q466 -440 459 -430Q450 -426 444 -418Q439 -419 438 -424Q437 -429 437 -432Q437 -438 431 -447Q424 -456 426 -463Q421 -473 430 -484Q440 -507 449 -530Q451 -538 453 -547Q453 -562 461 -586Q460 -592 465 -615Q468 -625 471 -636Q470 -639 475 -652Q477 -656 472 -660Q468 -664 470 -667Q477 -669 484 -682Q491 -695 500 -698Q505 -697 513 -689Q521 -681 527 -680Q532 -682 559 -697Q578 -705 596 -718Q602 -717 605 -722Q609 -726 614 -729ZM521 -577Q530 -576 538 -575Q550 -573 563 -572Q575 -571 584 -563Q589 -561 589 -553Q589 -549 591 -547Q592 -551 593 -558Q597 -579 602 -598Q607 -616 612 -634Q615 -649 618 -664Q621 -668 619 -672Q617 -676 613 -673Q598 -668 586 -661Q576 -652 572 -650Q564 -646 557 -651Q542 -655 534 -642Q527 -635 528 -616Q529 -603 527 -597Q527 -593 521 -585Q518 -581 516 -576Q520 -576 521 -577ZM329 -667Q340 -670 350 -664Q358 -655 359 -644Q359 -628 350 -622Q330 -619 331 -608Q333 -601 327 -588Q323 -580 323 -574Q316 -554 312 -532Q311 -529 310 -524Q309 -519 314 -518Q326 -527 338 -536L394 -583Q406 -595 420 -602Q421 -608 427 -607Q433 -606 432 -599Q421 -586 424 -579Q426 -573 414 -561Q412 -557 402 -550Q394 -543 393 -537Q388 -532 382 -528Q376 -524 374 -517Q344 -492 342 -491Q327 -473 301 -453Q294 -442 278 -430Q266 -427 258 -418Q243 -419 232 -407Q222 -410 211 -423Q205 -430 197 -438Q189 -446 193 -456Q207 -450 221 -466Q225 -476 240 -480Q244 -484 242 -491Q241 -497 242 -499Q245 -508 248 -517Q252 -533 249 -547Q250 -551 251 -555Q252 -559 266 -587Q270 -591 266 -594Q262 -598 258 -596Q233 -596 216 -603Q199 -604 187 -610Q182 -614 181 -621Q181 -623 185 -623Q188 -620 192 -620Q197 -620 211 -631Q217 -637 226 -632Q235 -642 247 -650Q253 -646 260 -650Q263 -661 276 -663Q286 -662 296 -662Q311 -666 329 -667ZM516 -358Q525 -357 531 -348Q536 -340 542 -333Q541 -319 564 -329Q588 -334 611 -339Q643 -349 677 -351Q689 -351 698 -347Q709 -347 731 -337Q739 -330 753 -310Q756 -304 754 -295Q760 -285 759 -276Q760 -271 758 -262Q755 -253 757 -247Q750 -236 742 -226Q736 -225 732 -221Q728 -216 724 -213Q718 -213 716 -209Q713 -205 710 -201Q706 -201 700 -194Q694 -187 690 -189Q683 -190 681 -183Q679 -177 676 -171Q671 -169 672 -164Q672 -159 670 -154Q672 -149 671 -143Q671 -139 665 -139Q655 -141 643 -129Q631 -128 618 -127Q593 -123 568 -120Q558 -118 551 -112Q546 -106 543 -92Q540 -79 537 -74Q527 -67 529 -54Q517 -47 519 -33Q515 -29 518 -24Q521 -19 526 -22Q555 -22 582 -28Q600 -30 618 -32Q625 -31 627 -39Q623 -52 619 -66Q614 -71 618 -75Q622 -79 628 -76Q638 -73 649 -70Q659 -67 667 -57Q668 -53 676 -53Q683 -53 686 -50Q690 -47 691 -39Q693 -29 697 -26Q704 -25 706 -17Q709 -4 710 -2Q713 7 715 15Q712 22 715 38Q718 53 714 61Q706 70 688 57Q672 47 656 20Q650 13 646 6Q642 -2 634 -5Q615 12 599 13Q581 17 572 17Q549 19 525 21Q501 25 476 25Q470 26 462 22Q454 18 451 18Q445 15 425 -8Q416 -14 421 -22Q422 -47 458 -77Q467 -86 469 -97Q465 -102 458 -100Q452 -98 447 -99Q413 -99 406 -102Q376 -107 349 -133Q333 -144 337 -168Q342 -194 344 -199Q347 -248 386 -298Q400 -317 416 -330Q428 -334 436 -323Q442 -315 445 -301Q453 -296 461 -299Q468 -302 476 -305Q489 -308 500 -317Q502 -330 498 -340Q492 -344 492 -348Q493 -359 516 -358ZM664 -300Q650 -297 636 -295Q619 -291 602 -288Q585 -284 568 -280Q547 -275 550 -262Q555 -248 555 -231Q553 -213 553 -193Q546 -175 552 -165Q571 -166 589 -168Q600 -170 611 -171Q623 -172 632 -178Q635 -186 647 -198Q661 -223 675 -247Q681 -264 686 -281Q686 -293 681 -300Q672 -304 664 -300ZM446 -261Q437 -252 442 -239Q431 -230 425 -218Q420 -213 418 -197Q416 -184 411 -178Q408 -164 409 -148Q407 -134 422 -130Q453 -137 484 -144Q499 -143 497 -160Q492 -184 499 -215Q503 -239 502 -246Q504 -252 502 -257Q499 -263 493 -262Q482 -257 470 -259Q457 -262 446 -261Z"/>
</svg>