<svg xmlns="http://www.w3.org/2000/svg" viewBox="0 -800 1024 1024">
	<path fill="#000000" d="M563 -681Q571 -681 579 -681Q590 -681 602 -680Q631 -687 640 -667Q644 -659 645 -649Q651 -642 662 -648Q676 -649 689 -650Q697 -642 704 -635Q709 -627 708 -617Q702 -610 694 -610Q689 -611 684 -606Q679 -602 676 -602Q661 -606 649 -597Q641 -599 631 -591Q630 -591 611 -588Q602 -585 594 -582Q585 -579 581 -570Q569 -563 566 -551Q560 -545 558 -532Q557 -527 554 -520Q552 -514 557 -509Q573 -511 587 -520Q600 -524 612 -529Q631 -536 650 -543Q654 -546 662 -541Q668 -537 672 -538Q691 -546 711 -533Q717 -529 710 -520Q705 -517 707 -514Q709 -510 710 -506Q708 -502 701 -500Q693 -498 692 -494Q690 -489 683 -491Q676 -492 674 -488Q669 -482 657 -474Q644 -465 639 -458Q639 -449 627 -445Q616 -441 614 -436Q613 -434 608 -431L604 -428Q600 -426 598 -423Q595 -417 587 -411Q578 -405 576 -402Q564 -394 554 -399Q552 -409 565 -415Q573 -425 606 -476Q606 -479 609 -483Q613 -488 612 -491Q611 -496 606 -495Q602 -494 599 -491Q589 -487 577 -486Q567 -479 555 -480Q544 -478 536 -460Q530 -448 525 -443Q519 -445 505 -459Q491 -467 493 -487Q499 -515 529 -551Q534 -563 550 -572Q555 -575 552 -579Q549 -583 544 -581Q534 -580 520 -586Q512 -588 504 -591Q501 -595 503 -596Q508 -598 514 -598Q519 -601 539 -605Q558 -610 576 -616Q588 -622 601 -627Q607 -634 595 -640Q578 -651 561 -663Q556 -667 551 -670Q545 -672 543 -678Q553 -679 563 -681ZM302 -642Q319 -636 336 -631Q344 -628 349 -612Q352 -601 352 -588Q350 -579 351 -563Q352 -540 347 -531Q347 -527 347 -524L346 -511Q346 -507 346 -504Q343 -485 344 -464Q341 -458 342 -443Q343 -430 340 -424Q344 -405 339 -397Q341 -386 338 -379Q337 -377 337 -357Q336 -355 337 -347Q338 -338 335 -334Q333 -316 331 -299Q337 -279 336 -260Q336 -252 336 -244Q337 -234 337 -213Q343 -202 338 -174Q337 -170 341 -164Q345 -159 343 -156L344 -126Q340 -121 341 -111Q342 -101 340 -98Q343 -93 338 -87Q334 -83 336 -79Q329 -76 328 -67Q329 -62 326 -62Q321 -61 319 -67Q315 -64 312 -61Q309 -58 305 -61Q294 -68 290 -90Q287 -107 283 -113Q279 -118 276 -130Q274 -140 271 -144Q270 -146 270 -147Q274 -146 279 -138Q284 -135 287 -139Q289 -142 288 -147Q291 -154 289 -172Q292 -183 289 -206Q287 -223 288 -232Q288 -243 287 -255Q287 -270 288 -276Q284 -321 287 -353Q288 -359 287 -366Q285 -370 280 -367Q277 -361 261 -341Q256 -337 250 -325Q246 -325 246 -318Q246 -313 242 -311Q234 -309 225 -308Q216 -315 209 -326Q205 -326 205 -332Q205 -336 204 -337Q206 -342 200 -347Q195 -351 195 -355Q193 -360 191 -359Q187 -355 187 -350Q187 -337 186 -325Q185 -320 186 -316Q187 -311 183 -307Q178 -295 178 -285Q173 -276 169 -254Q167 -251 166 -243Q165 -233 161 -230Q163 -216 151 -193Q141 -175 141 -164Q136 -159 141 -151Q136 -149 134 -142Q133 -136 129 -134Q126 -135 121 -129Q118 -126 116 -125Q115 -127 112 -130L105 -140Q104 -142 101 -145Q102 -154 99 -162Q94 -177 95 -180Q93 -193 106 -206Q119 -247 135 -286Q143 -340 148 -400Q150 -420 151 -440Q158 -471 151 -499V-525Q148 -531 154 -541Q159 -550 158 -555Q158 -569 168 -577Q172 -587 184 -595Q191 -594 204 -603Q236 -623 270 -635Q286 -638 302 -642ZM284 -598L280 -596Q272 -594 257 -585Q242 -576 235 -574Q230 -571 217 -572Q203 -573 196 -568Q195 -564 187 -564Q181 -564 179 -562Q177 -554 178 -550Q178 -520 186 -494Q189 -491 191 -483Q193 -476 195 -474Q202 -477 209 -476Q215 -485 234 -487Q238 -485 239 -484L251 -481Q252 -480 256 -478Q269 -480 272 -469Q275 -459 267 -452Q260 -450 260 -440Q260 -436 261 -424Q262 -420 262 -414Q262 -407 268 -408L290 -424Q295 -451 295 -457Q299 -481 295 -506Q295 -519 295 -532Q297 -551 297 -575Q296 -581 295 -589Q294 -600 284 -598ZM196 -458Q193 -437 196 -418Q196 -416 196 -414L195 -406Q195 -404 195 -402Q193 -385 196 -372Q203 -376 209 -380Q217 -391 223 -431Q227 -441 217 -451Q207 -461 196 -458ZM824 -447Q831 -448 843 -444Q857 -439 871 -435Q889 -432 908 -412Q908 -408 914 -402Q921 -395 920 -389L916 -377Q918 -367 914 -361Q907 -356 900 -351Q893 -346 888 -338Q882 -325 866 -320Q859 -321 856 -315Q853 -310 849 -306Q839 -310 835 -303Q832 -294 818 -288Q816 -286 781 -263Q784 -255 797 -253Q806 -252 798 -237Q792 -226 780 -223Q760 -217 739 -215Q725 -214 711 -214Q700 -215 690 -213Q676 -208 679 -192Q682 -185 691 -185Q700 -188 712 -189Q729 -186 745 -183Q762 -183 777 -175Q796 -164 799 -162Q811 -153 815 -142Q812 -138 812 -126Q812 -116 809 -111Q804 -106 802 -93Q795 -87 788 -71Q782 -58 775 -51Q743 1 717 23Q703 36 689 48Q681 46 671 59Q664 59 657 60Q650 61 647 54L641 36Q641 28 635 24Q630 20 625 16Q624 11 627 11Q633 11 638 10Q641 6 656 4L688 -27Q715 -57 736 -89Q751 -109 755 -129Q757 -143 746 -149Q718 -154 690 -160Q685 -160 678 -164Q670 -169 666 -167Q652 -155 643 -140Q638 -135 629 -122Q621 -110 614 -104Q596 -80 583 -69Q576 -60 568 -57Q560 -45 551 -41Q547 -36 537 -32Q532 -37 534 -42Q535 -48 536 -53Q532 -64 542 -75Q556 -91 557 -93Q558 -95 557 -100Q555 -106 558 -108Q572 -115 572 -122Q592 -154 604 -169Q612 -181 616 -193Q611 -197 601 -195Q594 -194 591 -195Q578 -192 567 -187Q546 -189 537 -182Q515 -178 495 -181Q475 -193 465 -195Q463 -201 468 -202Q472 -203 476 -203Q495 -208 514 -213Q539 -221 566 -226Q599 -235 633 -239Q639 -239 643 -242Q645 -244 641 -247Q613 -253 589 -262Q575 -267 561 -273Q557 -277 552 -279Q547 -281 547 -287Q551 -289 564 -285Q583 -287 602 -289Q615 -289 630 -284Q646 -286 651 -275Q651 -272 655 -265Q660 -257 658 -252Q654 -249 656 -247Q659 -244 664 -245Q685 -248 686 -248Q689 -251 701 -253Q716 -256 719 -264Q717 -272 723 -274Q728 -276 734 -277Q747 -293 765 -303Q778 -315 790 -327Q822 -361 837 -387Q841 -392 839 -399Q837 -404 832 -401Q819 -402 799 -398Q787 -393 774 -393Q769 -390 757 -390Q744 -391 739 -386Q735 -386 706 -378Q704 -377 688 -374Q683 -372 674 -370Q661 -368 657 -364Q645 -361 632 -359Q622 -355 611 -351Q601 -351 593 -347Q584 -344 575 -341Q558 -336 541 -331Q532 -328 523 -325Q514 -324 486 -312Q472 -312 463 -304Q456 -304 452 -298Q448 -293 444 -288Q438 -286 436 -282Q434 -278 431 -273Q426 -271 422 -263Q419 -255 415 -254Q409 -257 404 -258Q398 -259 395 -265Q381 -278 376 -294Q376 -318 385 -331Q409 -374 444 -404Q449 -407 454 -411Q459 -413 461 -406Q459 -399 464 -394Q468 -389 472 -384Q472 -364 463 -352Q459 -350 457 -345Q455 -340 461 -339Q469 -345 479 -347Q545 -378 559 -382Q580 -388 600 -395Q625 -404 652 -411Q669 -418 689 -420Q726 -433 770 -438Q796 -444 824 -447Z"/>
</svg>