<svg xmlns="http://www.w3.org/2000/svg" viewBox="0 -800 1024 1024">
	<path fill="#000000" d="M453 -532Q470 -526 487 -523Q489 -527 490 -528Q494 -539 499 -545Q497 -549 499 -551Q501 -552 503 -554Q507 -556 507 -565Q507 -570 509 -574Q517 -591 531 -625Q533 -632 534 -639Q532 -642 517 -639Q493 -633 467 -634Q441 -629 439 -628Q435 -618 427 -603Q423 -591 424 -577Q422 -560 404 -559Q400 -559 395 -562Q388 -562 383 -568Q379 -573 374 -577Q367 -584 363 -596Q360 -599 360 -603V-609Q360 -614 357 -616Q347 -611 327 -622Q312 -626 294 -625Q290 -626 270 -634Q317 -645 332 -652Q348 -656 364 -661Q370 -662 371 -668Q372 -674 373 -678Q374 -690 370 -698Q373 -703 384 -698Q394 -695 403 -693Q413 -683 422 -673Q428 -671 432 -677Q435 -682 438 -685Q468 -728 489 -748Q497 -760 521 -773Q530 -783 543 -785Q556 -788 568 -792Q574 -789 575 -792Q591 -793 605 -784Q608 -784 612 -779Q615 -774 618 -774Q639 -753 636 -738Q638 -732 635 -724Q632 -715 634 -711Q640 -709 651 -710Q665 -711 670 -709Q679 -708 679 -698Q679 -690 674 -683Q672 -676 669 -670Q666 -663 659 -663Q651 -662 644 -660Q627 -659 620 -657Q608 -654 604 -643Q598 -632 594 -621Q590 -610 581 -601Q576 -599 572 -590Q569 -583 566 -580Q565 -577 558 -573Q551 -569 550 -563Q551 -560 548 -558Q542 -555 542 -554Q537 -551 534 -544Q530 -535 525 -533Q523 -530 516 -529Q510 -528 508 -525Q506 -522 503 -520Q510 -522 512 -517Q514 -504 510 -491Q508 -489 504 -487L498 -484Q490 -484 485 -479Q480 -473 474 -469Q467 -466 465 -460Q463 -454 459 -448Q452 -446 448 -436Q444 -427 440 -424Q422 -412 421 -396Q411 -386 399 -376Q387 -367 383 -353Q370 -340 360 -325Q358 -321 351 -316Q345 -311 343 -307Q345 -303 354 -298Q364 -292 366 -286Q371 -275 381 -264Q392 -257 386 -248Q378 -239 378 -226Q377 -208 376 -190Q375 -171 374 -152Q375 -148 373 -141Q370 -133 372 -128Q372 -120 374 -81Q372 -70 373 -58Q371 -45 370 -30Q371 -17 368 -2Q367 2 370 37Q363 48 352 54Q348 53 342 56Q337 58 334 58Q331 59 328 56Q325 53 323 54Q318 47 313 39Q314 33 309 25Q303 16 306 11Q308 -3 307 -15Q307 -27 305 -38Q303 -48 308 -58Q309 -77 311 -94Q313 -114 315 -134Q319 -156 320 -167Q325 -202 325 -208Q329 -245 324 -266Q322 -270 321 -274Q319 -279 314 -278Q311 -276 307 -269Q303 -262 298 -260Q291 -258 290 -264Q289 -271 292 -275Q291 -286 289 -298Q286 -306 290 -313Q294 -319 298 -325Q308 -349 326 -369Q332 -372 339 -382Q345 -390 350 -394Q366 -422 373 -428Q385 -447 397 -467Q399 -475 414 -486Q416 -502 424 -505Q427 -507 430 -514Q432 -519 436 -521Q438 -524 444 -525Q452 -527 453 -532ZM543 -753Q528 -748 514 -735Q509 -733 502 -725Q498 -720 494 -718Q486 -707 478 -697Q464 -683 466 -678Q479 -678 492 -681Q521 -687 550 -693Q559 -713 557 -733Q558 -742 555 -748Q551 -757 543 -753ZM594 -498H597Q613 -497 629 -496Q642 -499 651 -488Q665 -483 663 -473Q662 -464 661 -456Q664 -451 668 -453Q673 -455 677 -457Q682 -462 688 -460Q694 -458 701 -458Q713 -459 724 -460Q729 -463 732 -458Q735 -454 739 -450Q755 -447 753 -437Q742 -426 732 -422Q718 -408 700 -406Q689 -402 678 -399Q655 -395 637 -383Q633 -376 639 -372Q645 -367 648 -361Q653 -351 649 -328Q651 -315 651 -301Q652 -292 661 -293Q670 -293 678 -291Q686 -293 690 -291Q696 -288 695 -280Q687 -269 697 -262Q699 -258 696 -255Q692 -252 688 -251Q672 -249 659 -242Q651 -238 653 -229Q655 -221 654 -212Q656 -198 657 -184Q659 -179 665 -179Q670 -179 676 -178Q681 -176 687 -176Q693 -176 698 -171Q710 -154 703 -142Q703 -132 695 -129Q685 -131 671 -123Q663 -122 661 -115Q660 -107 659 -100Q661 -96 657 -88Q654 -81 654 -77Q658 -71 652 -59Q652 -54 649 -47Q646 -41 652 -36Q667 -38 682 -40Q693 -41 703 -36Q712 -27 720 -33Q728 -33 737 -32Q746 -32 753 -26Q758 -18 769 -17Q774 -13 771 -6Q768 0 769 4Q770 11 765 11Q757 12 750 12Q746 11 736 13Q727 15 722 12Q708 8 694 10Q684 9 674 8Q661 9 637 11Q628 13 610 13Q596 13 590 15Q578 15 566 15Q557 15 550 18Q532 14 513 2Q509 0 504 -1Q499 -2 501 -7Q533 -17 568 -23Q573 -25 573 -30Q573 -34 569 -37Q566 -47 560 -53Q558 -59 562 -61Q566 -63 570 -66Q572 -69 573 -72L577 -85Q584 -99 584 -111Q587 -117 583 -122Q578 -128 573 -124Q561 -118 533 -131Q520 -136 506 -142Q503 -145 506 -147Q508 -149 512 -148Q517 -150 541 -155Q551 -159 571 -163Q590 -165 593 -173Q592 -185 594 -205Q592 -214 591 -225Q591 -236 579 -235Q574 -237 555 -237Q534 -242 518 -241Q517 -242 508 -243Q502 -244 503 -248Q530 -265 562 -274Q575 -279 588 -284Q599 -287 596 -297L595 -337Q593 -346 594 -355Q595 -365 588 -371Q578 -369 568 -368Q555 -371 529 -379Q496 -389 494 -395Q499 -399 509 -399Q551 -414 592 -429Q596 -430 602 -433Q608 -436 606 -442Q606 -452 593 -461Q567 -469 545 -481Q538 -481 539 -486Q539 -488 543 -488Q569 -493 594 -498Z"/>
</svg>