<svg xmlns="http://www.w3.org/2000/svg" viewBox="0 -800 1024 1024">
	<path fill="#000000" d="M565 -729Q582 -729 599 -721Q609 -720 617 -710Q620 -706 627 -691Q627 -682 626 -673Q627 -666 622 -655Q615 -640 619 -633Q629 -628 643 -630Q647 -628 655 -628Q662 -628 664 -621Q661 -616 663 -605Q665 -593 660 -589Q652 -577 639 -576Q627 -575 615 -574Q590 -578 585 -551Q577 -546 571 -538Q566 -530 555 -531Q548 -523 541 -514Q533 -506 521 -505Q511 -491 497 -479Q494 -473 487 -470Q480 -468 474 -464Q468 -463 467 -467Q466 -469 469 -474Q485 -487 492 -506Q499 -525 508 -543Q514 -552 515 -554Q519 -562 513 -566Q507 -564 492 -563Q476 -562 468 -559Q445 -559 422 -560Q411 -559 400 -557Q389 -556 382 -546Q382 -542 380 -535Q377 -526 379 -522Q378 -516 379 -509Q380 -503 373 -503Q363 -508 338 -533Q337 -539 328 -545Q323 -549 321 -552Q304 -557 286 -558Q277 -556 272 -560Q270 -562 275 -565Q279 -572 295 -574Q310 -576 315 -583Q321 -619 336 -650Q335 -656 342 -658Q348 -660 351 -655Q358 -657 374 -649Q381 -651 385 -646Q388 -642 392 -640Q398 -628 405 -640Q445 -675 451 -681Q469 -694 486 -706Q503 -718 524 -721Q533 -728 544 -728Q554 -727 565 -729ZM550 -694L533 -690Q509 -679 490 -665Q460 -645 446 -634Q436 -630 432 -622Q428 -613 422 -606Q422 -602 424 -602Q431 -603 436 -601Q501 -617 542 -625Q550 -636 552 -650Q553 -663 555 -676Q555 -696 550 -694ZM602 -473L605 -472Q618 -467 632 -460Q639 -449 646 -444Q651 -437 646 -428Q644 -424 647 -414Q650 -406 649 -400Q650 -391 650 -383Q654 -378 662 -381Q665 -383 698 -394Q703 -400 710 -398Q717 -397 725 -398Q727 -399 740 -402Q755 -405 767 -397Q770 -388 772 -380Q770 -373 752 -363Q747 -357 740 -356Q733 -354 727 -352Q712 -351 698 -346Q692 -343 679 -343Q663 -343 657 -339Q652 -333 652 -317Q649 -312 649 -297Q649 -285 646 -278Q648 -268 647 -260Q639 -247 642 -229Q641 -215 639 -202Q642 -196 648 -199Q653 -202 658 -204Q666 -211 687 -215Q703 -222 717 -222Q729 -229 744 -229Q750 -229 753 -230L758 -233Q761 -234 767 -234Q774 -233 785 -235Q800 -238 807 -236Q829 -232 833 -231Q847 -227 855 -218Q863 -215 863 -201Q863 -189 867 -185Q861 -171 858 -154Q852 -136 842 -119Q833 -115 833 -103Q829 -92 822 -82Q816 -83 813 -77Q811 -74 809 -66Q797 -51 784 -37Q781 -32 786 -30Q790 -28 796 -29Q807 -25 817 -19Q826 -5 823 5Q821 13 813 13Q805 13 798 13Q782 11 769 7Q735 4 701 3Q694 0 687 0Q668 0 653 -3Q650 -3 618 -12Q612 -19 623 -22Q627 -22 667 -30Q685 -32 703 -35Q722 -36 738 -46Q746 -58 754 -69Q763 -80 766 -93Q772 -102 776 -115Q786 -143 796 -171Q796 -177 799 -183Q802 -188 796 -192Q776 -194 768 -190Q763 -187 752 -187Q740 -187 736 -184Q715 -179 697 -171Q689 -173 679 -166Q671 -160 667 -160Q651 -162 645 -165Q633 -170 622 -166Q618 -151 613 -137Q608 -133 608 -126Q608 -119 607 -113Q605 -104 603 -95Q602 -81 601 -68Q600 -48 599 -29Q597 -24 601 -20Q605 -17 609 -13Q607 -8 597 -6Q590 -5 587 -2Q572 -4 562 -11Q547 -20 535 -33Q520 -40 526 -55Q527 -58 524 -64Q521 -70 524 -74Q535 -81 533 -95Q535 -98 536 -101L541 -112Q543 -115 544 -118Q548 -138 560 -154Q563 -158 565 -166Q567 -177 573 -180Q578 -200 590 -210Q598 -215 587 -229Q586 -242 590 -262Q592 -279 594 -297Q595 -305 598 -348Q602 -377 602 -408Q603 -427 601 -444Q600 -451 594 -452Q588 -453 583 -453Q580 -459 585 -461Q589 -463 593 -466Q595 -473 602 -473ZM321 -430Q325 -432 329 -429Q341 -414 345 -397Q343 -391 347 -386Q351 -381 357 -384Q370 -385 383 -387Q395 -380 410 -383Q424 -377 433 -361Q441 -354 441 -343Q441 -332 442 -322Q448 -315 443 -294Q442 -275 441 -257Q441 -222 435 -200Q429 -192 427 -182Q422 -177 418 -169Q414 -162 405 -163Q396 -153 386 -143Q380 -141 376 -147Q373 -152 369 -155Q342 -175 346 -193Q349 -199 354 -200Q360 -201 365 -202Q377 -219 383 -236Q390 -258 390 -283Q390 -291 390 -300Q388 -325 387 -327Q385 -337 377 -340Q368 -343 360 -340Q350 -342 345 -335Q341 -330 339 -319Q337 -301 334 -284Q329 -272 330 -257Q326 -252 330 -243Q334 -235 333 -230Q330 -202 331 -173Q329 -168 330 -157Q331 -146 330 -142Q326 -127 330 -112Q332 -107 329 -97Q327 -89 327 -85Q327 -69 326 -54Q329 -39 325 -23Q323 -19 325 -9Q327 1 325 6Q315 15 307 42Q305 46 301 45Q296 43 297 39Q294 32 281 25Q279 12 273 10Q264 7 266 -7Q268 -20 268 -31Q270 -48 272 -65Q273 -76 273 -88Q273 -91 270 -109Q274 -121 274 -133Q275 -145 276 -157Q273 -209 280 -269Q284 -290 281 -309Q276 -316 269 -313Q263 -310 257 -308Q254 -308 247 -311Q238 -315 234 -311Q232 -300 229 -289Q230 -282 224 -271Q219 -263 219 -257Q213 -249 213 -226Q211 -218 212 -208Q211 -194 209 -181Q209 -167 205 -160Q200 -152 190 -162Q181 -167 175 -174Q166 -178 158 -201Q156 -216 160 -230Q163 -242 163 -256Q162 -270 171 -279Q169 -298 178 -309Q181 -335 210 -357Q214 -359 218 -365Q224 -373 228 -374Q234 -368 239 -357Q236 -353 238 -347Q239 -342 246 -343L280 -365Q292 -370 294 -396Q296 -400 293 -417Q291 -423 296 -424Q301 -425 307 -424Q309 -428 321 -430Z"/>
</svg>