<svg xmlns="http://www.w3.org/2000/svg" viewBox="0 -800 1024 1024">
	<path fill="#000000" d="M541 -670H548Q561 -662 568 -665Q573 -665 577 -667Q582 -669 586 -664Q586 -653 593 -642Q590 -630 593 -617Q598 -612 599 -599Q600 -587 603 -582Q607 -578 607 -568Q607 -555 613 -551Q615 -541 616 -531Q621 -526 624 -516Q623 -512 628 -506Q631 -502 632 -499Q635 -491 642 -492Q647 -493 655 -498Q657 -501 672 -506Q686 -518 696 -508Q709 -501 725 -506Q733 -507 732 -499Q731 -490 739 -487Q745 -485 742 -479Q739 -473 734 -472Q725 -468 715 -464Q711 -461 704 -460Q694 -459 691 -455Q682 -452 672 -450Q666 -447 660 -445Q654 -443 655 -435Q658 -430 664 -415Q670 -398 677 -390Q691 -365 707 -341Q738 -304 761 -265Q772 -252 781 -236Q785 -233 788 -225Q791 -217 795 -213Q802 -209 805 -196Q808 -184 813 -180Q823 -175 826 -162Q830 -159 833 -153Q837 -145 841 -142Q850 -126 877 -101Q897 -84 917 -67Q922 -60 931 -74Q932 -82 941 -103Q941 -110 941 -117Q941 -125 947 -128Q948 -105 948 -82Q945 -63 958 -50Q962 -36 969 -22Q973 -4 982 15Q989 21 987 34Q979 36 971 37Q955 36 943 31Q863 -8 815 -84Q796 -107 781 -130Q757 -162 698 -259Q683 -284 668 -309Q643 -357 617 -406Q614 -410 610 -418Q605 -428 601 -431Q584 -429 570 -425Q566 -423 557 -422Q547 -421 543 -418Q531 -418 518 -418Q515 -419 498 -422Q481 -426 461 -428Q455 -432 464 -435Q511 -450 514 -451Q516 -451 560 -468Q567 -472 576 -473Q586 -474 588 -483Q574 -524 570 -534Q562 -556 553 -578Q549 -587 544 -597Q539 -609 534 -621Q532 -634 523 -636Q513 -638 505 -644Q500 -643 500 -647Q499 -652 503 -653Q521 -663 541 -670ZM294 -648Q299 -645 303 -643Q308 -639 313 -641Q319 -642 325 -642Q333 -641 342 -639Q352 -637 353 -627Q355 -615 354 -599Q353 -598 350 -596Q347 -594 346 -591Q346 -565 328 -537Q329 -534 327 -529Q324 -522 328 -519Q348 -521 362 -525Q367 -522 374 -524Q381 -526 384 -524Q392 -527 398 -521Q398 -515 398 -508Q398 -502 404 -499Q404 -488 400 -481Q387 -479 382 -476Q335 -468 329 -466Q320 -463 310 -462Q299 -461 296 -451Q291 -450 291 -446Q290 -442 288 -439Q290 -430 280 -417Q273 -408 272 -401Q262 -389 261 -380Q254 -372 254 -360Q246 -346 245 -336Q244 -328 243 -321Q265 -325 286 -333Q292 -337 290 -347Q288 -357 286 -361Q281 -365 283 -367Q288 -370 297 -371Q323 -365 337 -352Q342 -348 349 -348Q358 -350 367 -352Q378 -351 388 -350Q399 -351 401 -332Q406 -328 404 -324Q402 -320 399 -315Q387 -308 371 -305Q360 -305 357 -294Q354 -283 360 -276Q367 -278 391 -295Q395 -286 389 -279Q384 -271 381 -263Q367 -248 354 -229Q348 -223 349 -210Q352 -206 349 -185Q349 -159 348 -133Q347 -120 345 -107Q346 -103 346 -84Q349 -73 344 -62Q345 -53 340 -48Q335 -44 330 -38Q317 -31 312 -38Q308 -41 304 -45L290 -58Q285 -63 282 -65Q276 -77 266 -83Q256 -89 247 -95Q236 -96 230 -104Q223 -111 216 -116Q208 -110 200 -105Q192 -94 175 -90Q166 -87 157 -97Q146 -110 142 -111Q140 -116 139 -122Q137 -128 131 -131Q126 -143 141 -149Q143 -149 154 -151Q163 -148 181 -156Q206 -176 258 -216Q269 -224 280 -228Q291 -235 299 -244Q298 -259 296 -275Q296 -280 291 -279Q286 -278 284 -276Q272 -272 229 -258Q224 -258 216 -252Q209 -247 204 -246Q195 -241 191 -247Q187 -253 182 -258Q178 -270 167 -277Q164 -287 161 -292Q163 -296 161 -303Q159 -311 162 -315Q171 -321 179 -337Q186 -351 191 -355Q201 -383 210 -388Q211 -394 217 -403Q229 -426 236 -452Q231 -456 214 -457Q205 -458 199 -460Q182 -464 176 -462Q163 -467 162 -472Q163 -473 166 -473Q206 -483 245 -494Q257 -496 261 -507Q283 -588 284 -591Q285 -599 287 -610Q289 -620 279 -624Q273 -623 271 -626Q268 -630 265 -634Q266 -639 270 -639Q275 -639 278 -640Q287 -642 294 -648ZM720 -590Q729 -588 738 -587Q748 -590 757 -582Q782 -578 794 -571Q799 -570 805 -561Q811 -552 817 -550Q827 -544 820 -533Q817 -531 814 -524Q811 -516 806 -516Q792 -522 777 -526Q731 -551 714 -568Q712 -571 705 -576Q696 -582 695 -587Q708 -586 720 -590ZM577 -339Q594 -341 602 -328Q606 -320 600 -311Q594 -302 586 -304L576 -300Q567 -295 565 -294Q566 -291 572 -287Q579 -282 580 -277Q580 -254 577 -232Q576 -223 574 -212Q571 -202 578 -193Q604 -208 629 -223Q641 -231 653 -236Q652 -229 651 -221Q649 -213 643 -209Q629 -191 609 -180Q605 -173 592 -166Q583 -161 580 -157Q571 -152 563 -145Q554 -138 544 -136Q538 -128 529 -125Q520 -121 513 -117Q507 -113 500 -110Q498 -106 490 -105Q482 -104 481 -100Q477 -99 472 -94Q465 -87 459 -87Q446 -99 437 -117Q428 -122 430 -132Q432 -142 443 -142Q448 -146 452 -143Q455 -140 459 -136Q470 -137 491 -148Q506 -156 513 -158Q519 -164 519 -173Q519 -182 520 -190Q533 -245 522 -274Q520 -280 517 -279Q512 -276 507 -278Q484 -278 457 -297Q454 -301 455 -302Q456 -302 458 -304Q490 -313 521 -323Q549 -334 577 -339ZM294 -188Q286 -179 277 -171Q264 -159 250 -147Q246 -142 239 -137Q229 -130 227 -126Q233 -110 256 -108Q269 -103 285 -102Q294 -116 292 -133Q294 -139 294 -155Q294 -166 296 -173Q296 -177 296 -182Q297 -187 294 -188Z"/>
</svg>