<svg xmlns="http://www.w3.org/2000/svg" viewBox="0 -800 1024 1024">
	<path fill="#000000" d="M704 -603Q710 -604 716 -600Q726 -599 735 -593Q746 -599 762 -581Q777 -571 770 -553Q764 -541 761 -526Q750 -504 739 -483Q735 -476 727 -470Q718 -461 710 -450Q709 -446 704 -443Q696 -438 699 -434Q702 -431 710 -434Q718 -437 722 -432Q722 -424 729 -423Q735 -423 734 -418Q732 -411 735 -405Q737 -399 731 -397Q725 -395 720 -392Q692 -386 665 -379Q648 -375 631 -372Q626 -370 612 -371Q599 -372 593 -369Q586 -365 587 -359Q587 -354 588 -347Q575 -332 564 -316Q550 -294 544 -271Q531 -250 526 -225Q520 -206 514 -187Q509 -176 518 -161Q524 -153 541 -143Q555 -135 562 -128Q589 -119 602 -120Q636 -114 656 -115Q666 -114 675 -114Q701 -116 729 -113Q741 -114 753 -115Q781 -118 809 -118Q826 -118 843 -119Q877 -123 893 -123Q895 -123 897 -123Q908 -124 915 -146Q921 -161 922 -178Q924 -196 926 -214Q928 -203 929 -192Q931 -189 931 -184Q931 -178 933 -177Q939 -172 937 -165Q935 -159 934 -153Q943 -146 947 -138Q951 -125 958 -119Q958 -113 967 -107Q974 -102 977 -98Q975 -91 963 -83Q954 -77 951 -73Q952 -64 942 -61Q934 -58 925 -61Q908 -61 890 -65Q887 -65 884 -65Q882 -64 863 -64Q858 -64 850 -62Q836 -62 822 -64Q807 -66 796 -59Q786 -58 777 -61Q769 -58 758 -60Q730 -56 701 -58Q690 -58 679 -58Q664 -59 652 -64Q631 -66 610 -68Q582 -74 570 -77Q561 -79 552 -82Q547 -85 532 -93Q514 -102 506 -110Q495 -118 489 -128Q484 -139 478 -149Q468 -170 466 -191Q464 -208 471 -228Q471 -251 480 -270Q504 -329 507 -335Q517 -354 526 -374Q529 -378 527 -386Q524 -397 531 -400Q535 -401 539 -403L554 -407Q558 -408 561 -410Q580 -411 597 -416Q605 -422 616 -419Q624 -419 628 -424Q631 -426 632 -433Q632 -439 637 -440Q649 -438 652 -448Q678 -481 691 -517Q699 -533 706 -550Q705 -558 697 -558Q689 -558 684 -554Q677 -553 668 -550Q656 -545 649 -546Q641 -543 632 -541Q610 -533 609 -532Q575 -529 574 -529Q563 -530 551 -531Q539 -536 528 -535Q517 -533 508 -536Q510 -541 519 -545Q527 -549 530 -552Q557 -563 583 -574Q598 -580 612 -587Q616 -588 620 -589L635 -594Q641 -596 643 -596Q662 -605 683 -600Q694 -601 704 -603ZM219 -584Q234 -584 236 -583Q250 -583 263 -584Q279 -583 295 -578Q319 -575 340 -562Q346 -562 348 -552Q346 -547 349 -542Q353 -537 356 -532Q361 -524 352 -520Q348 -520 343 -515Q339 -511 335 -511Q326 -511 317 -511L301 -513Q298 -515 285 -518Q278 -517 267 -522Q258 -526 253 -526L225 -540Q204 -549 182 -558Q178 -561 173 -561Q167 -561 167 -567Q184 -572 201 -577Q210 -580 219 -584ZM263 -429Q280 -429 295 -418Q294 -414 302 -410Q308 -407 309 -404Q309 -392 313 -379Q315 -373 308 -365Q303 -359 303 -355Q299 -338 294 -322Q295 -312 292 -298Q288 -280 289 -272Q281 -265 288 -256Q284 -240 285 -221Q276 -212 283 -200Q283 -195 283 -188Q284 -181 291 -183Q327 -221 363 -259Q383 -286 386 -292Q392 -303 398 -314Q401 -324 405 -322Q403 -313 400 -304Q395 -299 391 -279Q386 -276 387 -268Q388 -261 386 -258Q381 -256 381 -246Q381 -241 379 -238Q378 -233 373 -228Q367 -222 366 -219Q367 -212 364 -208Q361 -203 359 -197Q355 -194 351 -186Q347 -177 343 -174Q337 -163 331 -152Q314 -137 306 -112Q297 -88 285 -96Q277 -97 265 -101Q231 -114 219 -150Q217 -162 215 -175Q217 -186 213 -203Q216 -219 216 -237Q221 -243 221 -256Q222 -271 225 -276Q228 -309 238 -334Q240 -345 241 -357Q235 -363 220 -356Q202 -353 185 -348Q174 -351 163 -354Q151 -352 141 -354Q121 -358 105 -367Q102 -374 110 -374Q121 -375 130 -381Q140 -387 150 -391Q165 -398 183 -405L214 -419Q238 -426 246 -425Q249 -427 263 -429Z"/>
</svg>