<svg xmlns="http://www.w3.org/2000/svg" viewBox="0 -800 1024 1024">
	<path fill="#000000" d="M645 -651Q651 -653 657 -643Q659 -638 668 -640Q676 -642 679 -638Q689 -630 699 -619Q706 -610 702 -596Q701 -589 689 -568Q681 -558 673 -549Q667 -536 646 -521Q636 -508 623 -497Q612 -489 608 -477Q588 -457 581 -442Q578 -439 570 -424Q564 -413 554 -405Q551 -401 555 -399Q560 -397 566 -400Q585 -404 603 -408Q607 -411 625 -413Q636 -418 649 -417Q659 -422 671 -421Q679 -430 701 -428Q704 -432 724 -432Q735 -437 748 -436Q761 -435 774 -436Q777 -434 797 -434Q815 -431 832 -422Q846 -417 858 -407Q878 -387 882 -380Q880 -371 893 -365Q894 -353 894 -341Q900 -320 899 -294Q896 -278 896 -260Q886 -251 880 -230Q877 -221 873 -212Q874 -207 867 -199Q862 -194 861 -189Q856 -185 857 -176Q858 -165 853 -162Q852 -159 850 -156L845 -143Q844 -140 842 -137Q839 -133 836 -125Q832 -114 828 -110Q820 -88 803 -69Q781 -41 774 -28Q761 -21 758 -13Q751 -5 733 7Q720 24 709 25Q698 33 687 37Q683 37 680 32Q658 12 650 -12Q641 -23 621 -37Q612 -44 612 -49Q627 -45 642 -41Q657 -37 671 -34Q677 -29 683 -35Q688 -41 694 -44Q717 -66 742 -106Q754 -120 754 -125Q755 -129 760 -133Q765 -137 766 -140Q765 -152 771 -160Q777 -168 782 -177Q785 -181 788 -192Q790 -202 795 -207Q806 -234 819 -257Q821 -278 831 -294Q832 -320 826 -342Q821 -372 792 -387Q778 -396 751 -390Q730 -387 727 -386Q697 -386 670 -378Q658 -375 645 -373Q641 -372 636 -370Q631 -369 633 -363Q646 -356 658 -349Q670 -331 665 -316Q663 -303 665 -290Q669 -281 665 -271Q662 -262 661 -252Q662 -245 657 -235Q652 -224 652 -220Q645 -202 638 -185Q634 -181 632 -172Q630 -162 628 -159Q606 -121 575 -80Q573 -75 566 -70Q560 -66 559 -64Q557 -59 551 -55Q545 -51 544 -49Q542 -43 531 -36Q523 -31 520 -27Q512 -27 512 -38Q512 -46 510 -48Q510 -56 519 -66Q526 -74 527 -77Q546 -110 565 -144Q581 -183 593 -222Q603 -253 605 -267Q609 -283 613 -299Q615 -318 616 -338Q615 -351 608 -359Q602 -360 584 -355Q580 -355 574 -356Q566 -358 566 -349Q573 -340 572 -330Q563 -306 553 -282Q548 -266 541 -251Q532 -233 523 -216Q523 -202 515 -191Q500 -169 497 -153Q495 -142 485 -142Q480 -142 477 -146Q475 -150 472 -153Q470 -158 463 -162Q456 -166 456 -170Q456 -176 456 -182Q455 -189 461 -200Q465 -207 465 -213Q467 -217 487 -259Q497 -285 511 -309Q516 -325 523 -340Q520 -346 510 -344Q500 -346 489 -348Q478 -366 477 -372Q477 -388 477 -404Q476 -410 483 -408Q486 -403 498 -409Q512 -431 523 -437Q534 -456 547 -474Q561 -492 585 -528Q591 -541 604 -558Q616 -578 627 -598Q628 -603 623 -605Q618 -607 615 -604Q592 -598 579 -601Q574 -600 556 -603Q547 -610 537 -612Q531 -612 524 -615Q520 -618 525 -622Q533 -623 544 -627Q560 -633 568 -633Q606 -643 619 -644Q623 -647 632 -648Q641 -649 645 -651ZM249 -631H250Q255 -629 268 -629Q284 -629 288 -622Q307 -620 306 -608Q314 -597 306 -587Q304 -581 302 -575Q296 -571 295 -564Q293 -556 290 -550Q284 -534 270 -509Q270 -505 265 -498Q259 -489 263 -485Q321 -512 360 -520Q375 -525 386 -525Q398 -524 410 -522Q422 -520 428 -509Q433 -501 437 -494Q436 -482 442 -471Q447 -463 435 -459Q433 -440 427 -434Q425 -421 414 -418Q409 -421 407 -413Q403 -406 400 -414Q396 -418 393 -413Q391 -410 390 -403Q390 -396 381 -389Q374 -383 372 -378Q370 -377 365 -373Q359 -368 355 -368Q351 -368 347 -372Q340 -366 328 -366Q321 -363 313 -362Q319 -379 329 -390Q332 -396 341 -404Q355 -418 358 -426Q361 -427 363 -434Q364 -440 368 -441Q369 -448 375 -458Q383 -471 382 -479Q374 -482 365 -479Q357 -476 348 -475Q342 -473 340 -473L325 -467Q323 -467 317 -465Q301 -457 284 -449Q277 -449 277 -444Q276 -436 283 -434Q300 -426 302 -407Q305 -401 298 -395Q293 -390 293 -388Q296 -384 290 -378Q286 -374 287 -371Q287 -370 284 -342Q285 -336 281 -323Q276 -306 280 -296Q275 -289 275 -262Q273 -258 273 -235Q272 -220 270 -206Q272 -192 270 -178Q271 -174 271 -167Q271 -160 274 -158Q296 -171 313 -188Q352 -226 366 -268Q371 -265 370 -260Q369 -254 369 -249Q366 -238 362 -227Q361 -222 362 -217Q363 -211 357 -208Q351 -193 348 -187Q350 -178 345 -172Q340 -167 336 -161Q333 -159 331 -153Q329 -147 327 -145Q329 -140 324 -135Q319 -132 316 -128Q313 -124 307 -125Q303 -127 301 -123Q299 -120 298 -116Q298 -113 291 -110Q285 -105 278 -108Q271 -111 265 -113L235 -132Q230 -133 225 -141Q217 -154 215 -168Q213 -173 215 -186Q217 -198 214 -205Q216 -212 217 -220Q221 -225 221 -235Q221 -245 223 -249Q227 -266 230 -283Q234 -302 234 -322Q237 -330 238 -344Q240 -366 246 -374Q245 -380 250 -390Q255 -400 252 -407Q254 -420 266 -433Q266 -436 264 -436Q259 -435 254 -433Q239 -422 224 -412Q220 -411 213 -404Q206 -397 201 -396Q193 -384 187 -373Q177 -361 177 -353Q175 -352 173 -347Q170 -341 168 -342Q160 -346 151 -350Q143 -360 121 -382Q126 -401 128 -403Q136 -405 142 -414Q144 -417 150 -429Q153 -432 154 -440Q156 -453 161 -455Q178 -472 192 -494Q199 -503 202 -513Q206 -516 211 -520Q215 -523 214 -530Q212 -538 216 -545Q221 -551 223 -558Q226 -559 228 -565Q230 -570 233 -570Q234 -577 245 -602Q252 -609 242 -625Q239 -628 240 -629Q245 -629 249 -631Z"/>
</svg>