<svg xmlns="http://www.w3.org/2000/svg" viewBox="0 -800 1024 1024">
	<path fill="#000000" d="M249 -243Q247 -240 249 -234Q251 -227 249 -225Q245 -211 248 -199Q245 -195 245 -185Q245 -175 241 -172Q244 -159 238 -142Q243 -132 240 -124Q242 -119 240 -111Q238 -101 241 -96Q248 -98 263 -111Q267 -115 294 -136Q307 -149 322 -163Q331 -172 345 -192Q338 -205 353 -216Q356 -216 360 -218Q366 -222 369 -218Q384 -219 394 -226Q405 -234 418 -240Q430 -250 455 -265Q482 -281 494 -291L491 -362Q489 -361 486 -360Q473 -355 460 -351Q453 -345 410 -345Q381 -343 372 -346Q368 -350 357 -353Q351 -353 351 -359Q351 -364 356 -365Q367 -368 377 -371Q389 -377 428 -390Q456 -400 484 -411Q497 -413 495 -425Q492 -443 489 -460Q487 -477 476 -491Q476 -497 471 -499Q467 -501 464 -504Q461 -509 449 -512Q437 -516 435 -523Q433 -528 436 -530Q438 -532 443 -529L458 -535Q468 -539 473 -540L507 -552Q510 -557 516 -557Q521 -557 527 -558Q530 -559 544 -564Q550 -569 558 -565Q568 -574 560 -594Q557 -602 554 -611Q554 -614 548 -638Q540 -648 533 -657Q525 -667 526 -679Q528 -682 525 -689Q522 -697 528 -699Q544 -699 554 -693Q560 -687 575 -683Q585 -680 590 -677Q594 -676 596 -668L597 -663Q598 -663 598 -661Q596 -655 600 -648Q604 -640 603 -636Q600 -622 610 -609Q611 -596 619 -584Q620 -577 625 -567Q632 -555 632 -548L637 -533Q640 -524 640 -515Q643 -512 644 -504Q645 -495 647 -492Q651 -486 653 -478Q655 -470 664 -469Q694 -483 726 -486Q738 -487 752 -486Q765 -488 782 -476Q788 -474 784 -463Q786 -452 779 -443Q772 -433 762 -433Q747 -439 735 -429Q722 -429 710 -424Q704 -425 695 -420Q689 -417 684 -417Q674 -413 685 -402Q688 -386 696 -366Q695 -361 703 -341Q704 -336 706 -330Q707 -324 714 -323Q719 -332 732 -345Q738 -355 745 -364Q753 -373 749 -384Q743 -388 748 -395Q753 -402 759 -399Q768 -391 793 -389Q804 -386 815 -384Q824 -381 833 -379Q838 -375 834 -368Q834 -355 822 -348Q811 -338 802 -337Q799 -329 785 -318Q776 -311 771 -304Q769 -301 759 -293Q748 -284 744 -276Q738 -265 739 -263Q738 -261 742 -258Q746 -255 747 -253Q757 -238 767 -224Q773 -213 779 -203Q783 -200 787 -190Q790 -182 794 -178Q803 -159 818 -141Q833 -124 849 -106Q864 -84 884 -62Q894 -54 904 -44Q910 -43 913 -47Q916 -52 919 -53Q920 -52 921 -46Q922 -39 926 -37Q929 -36 932 -30Q936 -23 941 -22Q949 -24 949 -14Q948 -10 954 1Q952 11 957 19Q963 21 964 27Q965 33 967 38Q967 42 968 48Q968 50 965 50Q961 45 954 50Q948 54 946 52Q932 52 926 47Q910 38 893 29Q891 26 881 19Q872 13 870 7Q847 -17 827 -42Q791 -79 765 -118Q734 -163 709 -210Q706 -216 703 -222Q700 -228 693 -229Q675 -218 656 -208Q649 -199 631 -199Q626 -199 626 -201Q627 -205 631 -207Q663 -241 679 -259Q686 -266 672 -280Q665 -292 646 -335Q646 -337 640 -351Q620 -328 619 -327Q611 -325 603 -313Q597 -304 593 -303Q589 -299 579 -292Q567 -284 563 -278Q555 -268 559 -259Q561 -250 557 -231Q555 -223 552 -215Q557 -200 553 -176Q556 -167 548 -162Q546 -145 544 -128Q541 -106 529 -89Q526 -89 526 -87Q525 -84 523 -82Q517 -79 518 -74Q518 -69 518 -65Q509 -65 504 -78Q503 -82 496 -84Q490 -85 488 -88Q484 -102 469 -119Q461 -137 456 -145Q463 -142 470 -137Q477 -139 477 -146Q478 -153 480 -159Q484 -184 488 -210Q490 -216 485 -217Q480 -218 478 -213Q432 -176 418 -163Q402 -145 392 -152Q385 -160 378 -171Q366 -168 364 -180Q362 -185 357 -188Q357 -187 352 -180Q354 -175 350 -173Q347 -170 345 -167Q342 -164 343 -157Q344 -148 339 -145Q331 -136 326 -127Q320 -121 314 -115Q308 -115 308 -111Q308 -106 308 -103Q294 -86 291 -82Q280 -73 271 -62Q268 -61 265 -56Q261 -49 256 -50Q253 -46 246 -48Q239 -50 237 -46Q231 -39 223 -44Q218 -48 212 -48Q207 -60 195 -66Q191 -70 185 -73Q179 -76 180 -81Q184 -95 182 -109Q184 -114 182 -125Q180 -134 182 -140Q182 -150 183 -163Q186 -185 189 -207Q188 -212 190 -220Q192 -231 189 -236Q166 -232 143 -228Q128 -223 126 -223Q96 -225 88 -228Q62 -228 44 -240Q61 -249 79 -252Q97 -255 114 -260Q129 -262 142 -266Q175 -273 203 -286Q211 -314 215 -342Q219 -349 209 -356Q201 -361 201 -366Q181 -384 182 -395Q207 -433 234 -466Q233 -469 236 -474Q240 -481 237 -484Q208 -479 206 -478Q200 -477 196 -468Q193 -461 188 -459Q181 -446 170 -436Q167 -426 158 -418Q150 -411 142 -404Q141 -398 134 -396Q128 -394 127 -392Q116 -388 107 -393Q101 -408 107 -410Q116 -433 128 -445Q149 -489 174 -534Q198 -613 198 -616Q201 -623 192 -632Q184 -640 187 -646Q197 -641 211 -640Q216 -638 229 -637Q246 -636 254 -631Q261 -630 263 -625Q265 -619 268 -614Q267 -606 270 -596Q269 -595 267 -590Q265 -586 262 -587Q262 -580 258 -572Q258 -567 250 -559Q242 -550 243 -544Q238 -533 232 -522Q231 -520 231 -519Q236 -519 246 -522Q251 -528 262 -531Q273 -534 277 -538Q279 -542 289 -544Q291 -542 295 -543Q300 -544 301 -543Q301 -539 306 -540Q310 -541 313 -544Q326 -540 335 -544Q348 -544 360 -542Q365 -544 368 -539Q372 -533 376 -533Q374 -527 372 -521Q370 -520 368 -515Q366 -509 362 -510Q357 -506 345 -504Q336 -502 332 -500Q330 -496 322 -492Q314 -488 313 -485Q304 -475 291 -469Q278 -453 263 -442Q262 -439 253 -435Q246 -432 243 -428Q241 -428 238 -422Q235 -416 232 -415Q222 -405 216 -392Q219 -386 225 -388Q231 -390 238 -389Q249 -385 270 -385Q295 -383 308 -378Q311 -369 313 -361Q314 -353 300 -345Q287 -342 274 -340Q270 -331 265 -322Q272 -320 274 -322Q283 -319 291 -318Q298 -323 303 -318Q306 -318 312 -316Q318 -313 324 -315Q337 -316 349 -318Q351 -321 357 -318Q363 -315 365 -317Q370 -317 375 -313Q380 -309 376 -305Q380 -300 374 -297Q367 -295 368 -290Q356 -280 345 -279Q342 -278 333 -276Q321 -274 314 -268Q308 -271 301 -267Q293 -263 290 -263Q280 -258 250 -248Q250 -245 249 -243ZM703 -560Q717 -560 719 -559Q733 -561 744 -555Q756 -555 768 -550Q769 -550 795 -542Q807 -539 819 -536Q824 -536 825 -530Q825 -525 827 -520Q827 -516 832 -517Q837 -518 841 -517Q845 -504 846 -486Q850 -477 842 -474Q828 -471 820 -474Q805 -475 792 -480Q781 -493 759 -509Q747 -519 735 -527Q723 -535 714 -547Q711 -551 706 -553Q701 -556 703 -560ZM580 -533Q576 -529 572 -525Q551 -523 534 -516Q517 -514 506 -508Q501 -502 510 -497Q532 -488 536 -472Q543 -464 543 -451Q546 -447 548 -442Q551 -436 558 -437Q580 -445 601 -453Q608 -458 605 -463Q601 -469 599 -474Q591 -500 586 -524Q585 -525 584 -527Q583 -534 580 -533ZM564 -389Q562 -388 559 -387Q559 -373 557 -343Q561 -335 567 -338Q572 -342 579 -342Q591 -356 606 -362Q618 -370 634 -378Q634 -386 634 -394Q634 -402 626 -406Q610 -404 595 -398Q578 -396 564 -389ZM264 -321Q262 -311 260 -301Q266 -302 271 -304Q277 -307 273 -312Q268 -319 264 -321Z"/>
</svg>