<svg xmlns="http://www.w3.org/2000/svg" viewBox="0 -800 1024 1024">
	<path fill="#000000" d="M602 -696Q612 -694 629 -694Q655 -695 664 -690Q665 -688 666 -686L669 -675Q670 -673 671 -671Q669 -663 668 -656Q667 -654 664 -656Q649 -657 632 -655Q613 -661 592 -661Q585 -655 579 -647Q571 -643 556 -627Q547 -618 541 -613Q538 -598 526 -586Q526 -576 520 -568Q514 -561 509 -554Q510 -545 506 -540Q502 -535 498 -529Q497 -521 494 -514Q491 -506 495 -499Q501 -497 507 -501Q513 -505 519 -506Q546 -515 571 -525Q577 -527 583 -530L613 -545Q705 -583 788 -591Q799 -591 811 -591Q823 -592 832 -587Q838 -583 844 -579Q863 -572 874 -545Q878 -522 874 -506Q868 -493 867 -492Q865 -482 847 -471Q840 -466 833 -461Q829 -463 824 -458Q820 -454 816 -454Q811 -452 805 -450Q800 -449 797 -443Q790 -438 784 -432Q777 -426 768 -426Q741 -410 707 -395Q717 -390 722 -385Q731 -368 713 -362Q677 -351 641 -341Q635 -339 636 -336Q641 -330 649 -326Q651 -304 651 -301Q654 -260 650 -252Q652 -243 649 -228Q659 -236 669 -248Q682 -263 695 -279Q703 -289 705 -307Q716 -310 726 -313Q729 -319 733 -317Q737 -316 742 -315Q757 -300 767 -305Q785 -296 781 -276Q773 -262 762 -260Q754 -258 749 -259Q726 -238 717 -234Q708 -229 700 -223Q690 -215 679 -209Q674 -208 663 -197Q653 -187 647 -185L646 -181Q646 -180 646 -179Q646 -167 646 -155Q644 -142 641 -130Q638 -121 631 -115Q630 -112 634 -111Q649 -108 663 -108Q678 -103 693 -98Q712 -90 733 -88Q737 -84 747 -82Q755 -81 758 -79Q761 -77 766 -77Q773 -77 775 -75Q812 -65 848 -56Q866 -51 884 -47Q888 -44 897 -43Q910 -42 913 -37Q924 -40 935 -29Q952 -33 956 -20Q961 -23 962 -20Q963 -15 966 -11Q971 -12 973 -9Q973 -8 975 -2Q974 3 977 10Q981 21 976 27Q970 29 971 36Q972 43 968 46Q966 43 959 43Q953 43 950 40Q934 38 928 33Q923 33 916 27Q912 24 910 24Q895 16 878 13Q863 10 848 6Q846 7 844 5Q839 -3 835 1Q829 3 819 -2Q811 -6 807 -6Q796 -9 784 -11Q757 -20 736 -29Q711 -34 692 -42Q680 -47 667 -52Q662 -56 652 -57Q640 -59 636 -62Q607 -63 568 -80Q539 -87 509 -94Q497 -96 484 -99Q474 -99 469 -92Q456 -88 446 -81Q434 -76 425 -78Q423 -87 429 -95Q439 -109 463 -144Q470 -167 487 -202Q491 -206 494 -221Q497 -234 503 -241Q508 -248 503 -253Q502 -259 506 -261Q510 -262 516 -260Q527 -252 543 -260Q544 -254 556 -253Q565 -253 567 -251Q575 -252 577 -245Q579 -237 581 -230Q585 -223 580 -219Q575 -214 572 -208Q568 -207 565 -200Q560 -190 555 -191Q550 -184 545 -174Q537 -171 534 -165Q531 -159 526 -153Q523 -153 517 -146Q511 -139 506 -139Q506 -137 501 -132Q496 -126 497 -122Q503 -121 510 -123Q517 -125 522 -120Q528 -124 551 -121Q562 -120 572 -120Q584 -119 594 -113Q602 -113 612 -114Q604 -119 598 -135Q596 -145 593 -155Q589 -154 565 -143Q551 -137 540 -136Q537 -136 538 -140Q547 -143 565 -157Q575 -165 585 -174Q586 -177 590 -181Q595 -186 594 -191Q596 -201 597 -211Q598 -231 601 -250Q603 -258 605 -280Q608 -303 605 -327Q607 -332 602 -335Q598 -337 592 -338Q589 -339 570 -344Q566 -347 555 -348Q546 -348 543 -352Q537 -355 539 -358Q542 -361 545 -364Q550 -365 554 -366L572 -368Q577 -369 581 -370Q606 -378 626 -390Q628 -397 637 -398Q647 -399 649 -405Q667 -413 677 -407Q693 -410 714 -429Q722 -429 727 -434Q733 -440 739 -444Q743 -449 752 -456Q764 -465 767 -473Q787 -494 801 -514Q804 -521 808 -530Q812 -539 803 -544Q782 -541 761 -539Q752 -534 726 -530Q702 -526 689 -519Q662 -512 634 -505Q624 -505 604 -496Q591 -490 581 -488Q566 -482 551 -476Q543 -477 529 -477Q505 -476 495 -480Q483 -484 479 -470Q472 -461 470 -454Q469 -447 471 -435Q473 -418 470 -409Q475 -402 471 -391Q467 -380 457 -379Q448 -377 440 -389Q434 -397 429 -400Q412 -407 415 -421Q421 -429 417 -446Q413 -462 417 -469Q425 -503 439 -515Q452 -537 466 -557Q476 -564 491 -582Q506 -601 517 -607Q524 -610 535 -621Q542 -628 547 -631Q551 -636 560 -644Q575 -657 579 -666Q563 -673 550 -685Q559 -691 570 -692Q575 -694 587 -694Q597 -694 602 -696ZM180 -652Q184 -652 202 -649Q210 -650 218 -651Q222 -639 228 -635Q238 -634 246 -627Q253 -619 260 -612Q270 -596 266 -584Q264 -571 258 -560Q251 -554 253 -547Q254 -545 258 -547Q277 -552 296 -557Q316 -563 336 -560Q341 -556 353 -553Q371 -549 374 -539Q362 -519 359 -514Q351 -495 320 -503Q309 -505 289 -501Q271 -497 262 -498Q257 -497 245 -500Q233 -503 226 -500Q214 -483 201 -466Q195 -445 168 -420Q163 -407 148 -399Q141 -387 128 -375Q114 -362 111 -357Q105 -349 100 -354Q95 -359 101 -367Q105 -371 102 -373Q98 -376 97 -379Q111 -390 121 -411Q130 -428 150 -464Q160 -481 173 -508Q195 -545 216 -604Q214 -608 198 -630Q189 -641 180 -652ZM282 -441H286Q302 -439 311 -427Q310 -421 318 -416Q323 -412 324 -409Q317 -398 293 -398Q277 -398 269 -393L280 -379Q285 -369 284 -366Q284 -360 282 -355Q281 -349 286 -347Q310 -348 334 -349Q341 -348 348 -346Q356 -344 357 -335Q354 -325 365 -314Q369 -316 372 -323Q376 -332 378 -333Q377 -326 366 -301Q362 -279 354 -267Q350 -262 348 -249Q347 -240 337 -226Q335 -206 326 -198Q320 -177 306 -158Q296 -141 285 -124Q286 -117 283 -113Q279 -110 276 -105Q273 -90 262 -82Q257 -76 251 -81Q248 -83 242 -92Q237 -94 229 -101Q221 -109 216 -110Q213 -111 211 -120Q201 -132 201 -140Q201 -148 201 -157Q200 -167 202 -189L204 -202Q205 -205 205 -208Q210 -237 214 -266Q216 -276 214 -288Q189 -282 159 -285Q136 -292 117 -294Q102 -297 86 -300Q71 -300 73 -301Q95 -308 116 -316Q127 -320 138 -324Q160 -328 181 -332Q194 -335 222 -339Q229 -340 229 -347Q228 -354 230 -359Q230 -367 229 -375Q230 -380 226 -387Q221 -395 224 -400Q221 -406 208 -406Q199 -406 196 -408Q190 -406 181 -413Q184 -417 189 -417Q194 -417 199 -419Q206 -426 216 -428Q226 -429 235 -432Q246 -433 257 -435Q267 -439 282 -441ZM324 -297Q303 -295 300 -295Q291 -294 282 -293Q276 -292 275 -282Q275 -275 272 -272Q274 -263 267 -241Q266 -224 262 -200Q263 -197 262 -190Q261 -181 264 -180Q291 -203 321 -238Q325 -248 338 -267Q351 -286 355 -297Q338 -300 324 -297Z"/>
</svg>