<svg xmlns="http://www.w3.org/2000/svg" viewBox="0 -800 1024 1024">
	<path fill="#000000" d="M575 -686L583 -685Q588 -684 595 -682Q602 -679 607 -683Q623 -679 639 -676Q654 -678 671 -678Q675 -676 686 -676Q702 -676 704 -670Q708 -664 703 -662Q699 -660 695 -657Q697 -655 697 -653L701 -646Q701 -644 703 -642Q707 -631 697 -625Q688 -619 680 -627Q677 -619 663 -618Q654 -617 650 -614Q636 -614 621 -614Q574 -608 531 -601Q505 -598 479 -595Q461 -593 443 -591Q422 -589 401 -588Q393 -584 383 -587Q373 -590 363 -591Q355 -595 351 -584Q346 -585 344 -577Q343 -570 340 -569Q331 -571 323 -557Q314 -558 310 -551Q309 -550 305 -537Q298 -528 293 -507Q290 -494 287 -488Q278 -479 282 -467Q280 -465 280 -460Q280 -455 276 -453Q271 -435 272 -417Q274 -411 268 -404Q262 -397 265 -391Q262 -380 259 -369Q260 -366 262 -367Q264 -371 268 -373Q276 -380 289 -396Q304 -414 312 -421Q330 -443 341 -453Q345 -459 362 -476Q383 -497 389 -511Q394 -520 394 -529L419 -506Q426 -495 429 -483Q433 -476 425 -468Q418 -460 419 -455Q403 -448 401 -436Q396 -434 391 -425Q388 -419 384 -416Q378 -417 373 -407Q370 -400 365 -399Q361 -390 335 -362Q334 -357 327 -351Q318 -343 319 -337Q339 -318 356 -297Q367 -289 365 -267Q360 -251 363 -216Q365 -193 363 -179Q361 -163 358 -148Q359 -139 354 -118Q349 -96 352 -83Q350 -71 346 -60Q347 -52 345 -28Q343 -26 343 -18Q343 -12 341 -9Q347 7 331 19Q321 37 313 25Q305 22 301 12Q297 10 295 4Q294 -1 291 -2Q287 0 284 -5Q281 -11 279 -14Q272 -25 275 -37Q278 -49 278 -60Q283 -90 287 -121Q291 -156 295 -191Q307 -242 307 -281Q307 -290 306 -300Q305 -310 294 -309Q286 -314 282 -305Q278 -297 272 -293Q266 -295 267 -305Q268 -315 260 -315Q258 -326 252 -329Q248 -325 246 -313Q245 -302 243 -299Q238 -293 237 -279Q236 -268 234 -263Q230 -257 227 -241Q223 -222 214 -214Q216 -205 213 -195Q201 -171 199 -164Q194 -162 194 -151Q194 -143 191 -139Q188 -122 180 -107Q174 -101 170 -82Q167 -68 163 -63Q159 -44 146 -29Q130 -9 120 0Q115 5 110 -2Q106 -8 102 -7Q97 -17 91 -28Q82 -41 82 -63Q79 -75 89 -89L105 -115Q137 -177 157 -243Q170 -269 184 -316Q196 -357 201 -370Q203 -393 215 -430Q226 -463 228 -476Q240 -520 250 -545Q265 -584 285 -608Q289 -609 290 -618Q291 -624 293 -627Q310 -636 329 -639Q363 -644 397 -650Q405 -653 423 -655Q445 -657 454 -663Q489 -665 520 -673Q535 -675 549 -678Q565 -678 575 -686ZM517 -546Q525 -546 531 -540Q537 -535 543 -529Q569 -509 554 -477Q532 -461 519 -430Q515 -426 512 -420Q507 -411 503 -408Q501 -404 494 -401Q487 -398 486 -392Q478 -385 473 -362Q486 -346 494 -326Q503 -320 508 -302Q511 -290 516 -284Q514 -280 518 -272Q522 -264 519 -258Q514 -245 512 -205Q512 -199 509 -190Q504 -177 507 -170Q504 -165 505 -157Q506 -150 504 -147Q506 -140 502 -134Q502 -125 501 -116Q500 -92 494 -66Q490 -49 491 -34Q497 -4 494 9Q485 15 482 26Q479 29 477 29Q474 29 470 21Q467 15 465 13Q461 18 458 14Q454 9 450 7Q448 2 446 -3L437 -24Q435 -29 433 -34Q437 -44 432 -53Q435 -57 435 -67Q435 -74 436 -77Q436 -104 442 -130Q446 -163 450 -196Q449 -210 460 -244Q457 -258 461 -283Q465 -308 463 -320Q461 -334 444 -358Q423 -387 425 -406Q423 -413 432 -416Q440 -419 441 -423Q440 -430 450 -432Q450 -441 463 -454Q474 -464 475 -471Q472 -478 476 -483Q479 -487 483 -492Q492 -504 503 -517Q515 -529 517 -546ZM642 -537L659 -536Q665 -530 680 -529Q692 -528 697 -525Q727 -527 746 -512Q760 -509 753 -485L745 -476Q737 -478 737 -470Q737 -465 741 -466Q758 -468 770 -463Q782 -463 793 -464Q800 -465 802 -458Q804 -448 805 -447Q809 -445 813 -443Q815 -441 810 -436Q796 -423 778 -413Q763 -412 747 -411Q739 -409 730 -407Q721 -406 715 -400Q723 -387 737 -376Q750 -366 761 -355Q765 -343 780 -345Q783 -341 791 -339Q802 -336 802 -329Q799 -326 803 -320Q807 -314 803 -311Q803 -307 796 -305Q788 -302 787 -297Q780 -294 779 -283Q778 -276 775 -272L778 -235Q775 -229 773 -224Q772 -218 780 -213Q784 -205 793 -203Q798 -203 797 -199Q796 -195 796 -191Q799 -185 794 -182Q789 -178 785 -173Q781 -171 775 -170Q768 -168 766 -161Q768 -152 769 -143Q766 -138 767 -125Q768 -112 764 -106Q763 -94 762 -82Q762 -73 760 -65Q758 -57 762 -50Q776 -49 789 -49Q799 -46 809 -50Q832 -49 853 -47Q871 -50 875 -41Q876 -35 885 -27Q894 -20 895 -15Q896 1 879 7Q871 10 847 11Q844 13 838 12Q830 11 828 13Q821 15 811 10Q803 6 797 7Q760 11 682 7Q662 7 642 6Q617 6 594 -6Q575 -15 554 -22Q569 -24 583 -27Q637 -34 690 -42Q701 -43 698 -52Q694 -61 692 -68Q681 -77 692 -90Q693 -98 695 -106Q696 -113 703 -116Q706 -131 708 -147Q710 -155 702 -157Q695 -159 690 -155Q686 -158 678 -154Q672 -151 669 -153Q658 -152 643 -163Q631 -171 624 -173Q620 -172 614 -178Q609 -183 606 -183Q601 -186 602 -187Q606 -188 613 -187Q649 -196 686 -209Q689 -212 701 -212Q711 -212 715 -215Q720 -246 721 -277Q717 -283 708 -280Q701 -278 697 -280Q676 -275 655 -276Q653 -279 647 -280Q640 -281 639 -284Q620 -289 601 -294Q593 -296 595 -300Q599 -304 606 -304Q631 -314 655 -325Q669 -327 691 -342Q701 -342 711 -342Q715 -339 716 -341Q717 -347 715 -353Q711 -357 691 -388Q689 -394 682 -394Q671 -389 659 -390Q652 -385 643 -385Q634 -385 628 -392Q618 -394 599 -406Q586 -414 579 -417Q576 -421 577 -422Q583 -424 591 -422Q606 -424 641 -437Q682 -452 686 -460Q677 -497 654 -502Q651 -508 640 -515Q628 -523 624 -530Q634 -532 642 -537Z"/>
</svg>