<svg xmlns="http://www.w3.org/2000/svg" viewBox="0 -800 1024 1024">
	<path fill="#000000" d="M496 -790H497Q498 -789 510 -787Q520 -786 527 -776Q534 -766 526 -759Q517 -756 508 -754Q496 -745 480 -745Q476 -745 476 -743Q475 -738 479 -734Q484 -727 486 -712Q490 -705 487 -699Q485 -694 485 -687Q485 -683 486 -679Q487 -675 491 -674Q514 -676 523 -679Q540 -683 565 -691Q599 -700 632 -704Q661 -706 690 -709Q707 -712 744 -702Q756 -693 768 -684Q769 -680 773 -675Q778 -669 779 -665Q781 -657 778 -649Q775 -641 773 -633Q745 -601 726 -594Q715 -586 702 -582Q690 -587 688 -575Q684 -574 680 -573L665 -569Q661 -568 657 -567Q652 -565 621 -565Q615 -560 605 -562Q610 -572 615 -573Q617 -578 622 -575Q626 -573 628 -574Q641 -584 653 -594Q657 -596 660 -602Q663 -607 669 -604Q679 -612 689 -620Q689 -623 694 -627Q700 -631 700 -634Q698 -640 700 -641Q703 -642 706 -644Q705 -655 714 -666Q707 -677 688 -677Q634 -675 605 -663Q592 -657 577 -658Q556 -649 539 -648Q535 -645 537 -643Q544 -641 550 -640Q564 -641 565 -630Q567 -615 556 -606Q557 -594 554 -579Q549 -572 555 -564Q561 -557 569 -557Q576 -555 578 -557Q579 -556 578 -554Q589 -545 591 -541Q593 -536 589 -535Q583 -535 578 -533Q555 -533 547 -536Q540 -539 533 -536Q526 -534 518 -533Q513 -533 507 -527Q502 -522 500 -522Q501 -527 511 -540Q518 -550 521 -559Q506 -571 498 -600Q501 -616 503 -633Q505 -641 494 -639Q489 -634 486 -623Q484 -612 481 -609Q479 -593 478 -578Q476 -575 478 -566Q479 -559 477 -555Q476 -550 474 -545Q472 -540 474 -535Q477 -507 477 -505Q477 -504 474 -483Q473 -479 471 -472Q468 -466 464 -465Q462 -465 459 -468Q453 -471 450 -473Q445 -477 444 -482L427 -505Q419 -508 419 -515Q420 -521 422 -529Q425 -532 426 -545Q427 -554 430 -559Q430 -584 433 -613Q435 -620 429 -621Q423 -622 418 -618Q414 -615 406 -614Q399 -613 397 -606Q403 -595 409 -579Q414 -569 412 -558Q410 -547 409 -536Q409 -524 398 -524Q389 -531 379 -538Q377 -543 368 -551Q358 -560 357 -567Q354 -574 359 -595Q362 -599 360 -600Q354 -601 348 -597Q341 -589 330 -589Q314 -591 298 -594Q288 -592 278 -591Q273 -576 273 -562Q281 -547 264 -536Q259 -536 257 -525Q255 -516 250 -516Q234 -520 224 -534Q212 -535 211 -545Q190 -564 199 -591Q204 -600 209 -611Q213 -623 224 -630Q229 -638 239 -640Q247 -643 254 -646Q265 -648 274 -651Q282 -631 287 -612Q290 -609 292 -609Q300 -613 311 -616Q323 -624 333 -624Q340 -628 353 -630Q368 -632 372 -634Q376 -635 386 -640Q397 -646 404 -646Q419 -654 435 -658Q443 -673 441 -692Q446 -709 441 -726Q443 -736 427 -736Q390 -749 374 -749Q363 -750 354 -757Q350 -758 349 -761Q347 -765 354 -767Q365 -772 397 -776Q412 -780 426 -785Q430 -784 435 -786Q440 -788 442 -787Q467 -786 496 -790ZM413 -199Q413 -164 409 -129Q408 -117 407 -106Q404 -89 400 -72Q402 -68 399 -51Q393 -43 389 -15Q384 -4 378 6Q378 22 365 25Q353 19 345 8Q336 -3 325 -13Q321 -16 317 -17Q312 -19 314 -24Q316 -27 325 -27Q333 -27 336 -29Q340 -28 342 -31Q344 -35 347 -39Q354 -71 360 -103Q360 -120 370 -140Q365 -149 368 -159Q374 -194 371 -212Q369 -247 347 -259Q338 -265 325 -260Q324 -256 329 -250Q334 -245 334 -243Q344 -230 331 -206Q327 -203 323 -192Q321 -189 319 -179Q316 -165 310 -161Q311 -154 304 -146Q298 -139 297 -136Q291 -132 287 -126Q282 -120 273 -120Q271 -115 260 -102Q255 -104 250 -98Q246 -94 244 -94Q248 -110 253 -119Q258 -123 263 -135Q267 -144 270 -147Q272 -153 284 -168Q292 -191 312 -237Q313 -242 310 -248Q307 -252 303 -249Q298 -247 299 -240Q300 -235 298 -233Q294 -231 289 -222Q282 -211 277 -209Q275 -207 270 -206Q264 -205 263 -201Q252 -194 243 -184Q237 -186 234 -191Q232 -197 230 -202Q225 -212 226 -220L250 -245Q254 -250 259 -254Q264 -258 263 -263Q255 -259 247 -256Q237 -245 223 -240Q211 -238 204 -241Q208 -253 218 -259Q228 -266 236 -274Q245 -280 257 -292Q270 -306 277 -310Q279 -309 281 -311Q283 -313 282 -316Q274 -317 265 -318Q258 -322 232 -331Q226 -338 231 -346Q245 -349 264 -347Q276 -347 288 -347Q294 -345 300 -344Q301 -340 306 -340Q310 -340 312 -345Q320 -348 323 -355Q329 -357 327 -361Q326 -364 321 -364Q317 -369 305 -373Q291 -377 287 -385Q283 -387 279 -392Q276 -397 270 -393Q266 -388 250 -382Q248 -383 245 -379Q241 -375 238 -377Q226 -370 219 -369Q222 -376 230 -384Q235 -387 239 -391Q253 -403 266 -416Q272 -419 277 -423Q278 -427 281 -429Q285 -432 288 -435Q300 -455 317 -476Q329 -491 342 -503Q347 -501 351 -500Q355 -493 371 -490Q386 -487 391 -480Q389 -470 381 -462Q377 -460 378 -458Q378 -456 381 -455Q398 -453 399 -452Q405 -452 411 -452Q418 -454 427 -449Q445 -439 449 -432Q452 -428 449 -420Q447 -414 448 -409Q441 -406 436 -400Q427 -384 419 -382Q412 -368 397 -359Q392 -360 385 -353Q380 -348 377 -347Q367 -333 353 -326Q352 -323 345 -319Q340 -316 338 -313Q333 -305 321 -303Q319 -305 318 -304Q317 -300 316 -295Q311 -292 311 -288Q312 -286 315 -287Q327 -290 338 -289Q346 -290 356 -290Q360 -286 370 -283Q383 -279 387 -273Q388 -269 395 -264Q401 -260 402 -258Q405 -248 408 -238Q413 -227 414 -216Q413 -214 413 -199ZM714 -472Q726 -471 738 -471Q750 -472 759 -465Q763 -466 767 -462Q770 -459 772 -459Q780 -454 788 -448Q804 -427 805 -419Q807 -410 806 -402Q806 -390 805 -378Q802 -367 799 -356Q796 -354 796 -346Q796 -336 790 -334Q785 -334 786 -329Q787 -324 787 -320Q779 -316 777 -304Q773 -302 771 -294Q767 -288 763 -283Q759 -287 757 -284Q755 -279 754 -274Q752 -268 746 -264Q744 -249 735 -245Q732 -237 725 -230Q720 -229 715 -224Q711 -224 707 -215Q704 -209 702 -207Q697 -207 696 -202Q695 -198 692 -195Q690 -198 687 -195Q684 -190 681 -192Q678 -194 679 -199Q674 -204 670 -210Q650 -213 645 -211Q640 -213 640 -202Q639 -200 639 -204Q637 -189 635 -174Q635 -156 642 -158Q659 -160 675 -156Q682 -153 688 -151Q691 -136 682 -136Q672 -126 661 -125Q657 -124 655 -117Q653 -110 650 -109Q650 -105 647 -104Q643 -103 640 -103Q639 -101 635 -95Q630 -89 631 -83Q628 -71 625 -60Q624 -56 621 -57Q618 -58 616 -56Q614 -58 611 -55Q608 -52 609 -50Q621 -50 635 -51Q646 -56 673 -56Q684 -56 695 -56Q706 -53 719 -53Q732 -53 739 -41Q736 -32 733 -23Q720 -20 707 -19Q684 -18 660 -18Q646 -16 631 -14Q616 -15 601 -16Q594 -12 587 -19Q586 -20 578 -31Q572 -37 565 -44Q550 -59 575 -86Q581 -88 581 -102Q581 -111 584 -115Q582 -122 574 -122Q567 -122 560 -124Q557 -124 554 -124L551 -125Q548 -125 545 -125Q543 -126 536 -125Q526 -124 524 -128Q534 -133 546 -136Q572 -140 587 -146Q592 -162 595 -176Q596 -190 593 -202Q586 -203 581 -202Q569 -202 561 -207Q554 -203 544 -211Q536 -221 523 -224Q519 -218 513 -223Q505 -225 498 -229Q486 -237 476 -247Q466 -261 466 -293Q467 -332 479 -366Q481 -369 482 -375Q483 -385 487 -387Q490 -405 500 -418Q511 -431 517 -444Q525 -453 536 -448Q540 -436 543 -424Q545 -418 549 -420Q552 -422 554 -425Q574 -439 596 -448Q618 -455 639 -462Q648 -467 662 -467Q689 -471 714 -472ZM347 -443Q340 -441 335 -437Q329 -437 326 -429Q324 -423 321 -423Q320 -420 315 -418Q309 -416 309 -413Q297 -408 294 -410Q292 -404 299 -403Q307 -402 313 -401Q320 -400 326 -396Q338 -390 349 -384Q358 -386 362 -393Q363 -398 373 -408Q380 -408 383 -417Q386 -424 388 -426Q378 -431 368 -437Q364 -437 359 -440Q351 -445 347 -443ZM727 -436Q724 -436 720 -436Q696 -436 684 -433Q669 -432 653 -426Q635 -423 619 -414Q616 -414 616 -412Q616 -409 619 -406Q625 -411 632 -402Q640 -396 644 -384Q643 -372 642 -360Q646 -344 641 -331Q639 -320 643 -319Q652 -318 653 -311Q654 -306 649 -297Q641 -298 641 -287Q636 -267 638 -259Q636 -243 643 -241Q669 -249 672 -250Q680 -249 686 -256Q692 -264 696 -271Q698 -273 700 -277L707 -288Q709 -291 711 -294Q721 -308 728 -323Q742 -353 748 -367Q756 -386 759 -396Q764 -414 758 -426Q739 -440 727 -436ZM549 -418Q544 -419 544 -409Q538 -376 538 -374Q538 -358 534 -352Q530 -339 528 -328Q527 -316 526 -304Q525 -301 525 -295Q525 -284 525 -274Q522 -249 534 -244Q545 -241 555 -234Q561 -230 567 -226Q578 -227 588 -229Q595 -230 601 -238L602 -284Q604 -293 600 -293Q596 -294 590 -296Q583 -295 576 -300Q569 -305 562 -307Q569 -310 588 -312Q598 -315 606 -322Q608 -335 606 -349Q607 -360 608 -371Q608 -381 608 -391Q607 -401 599 -405Q578 -407 570 -413Q566 -412 559 -416Q553 -420 549 -418Z"/>
</svg>