<svg xmlns="http://www.w3.org/2000/svg" viewBox="0 -800 1024 1024">
	<path fill="#000000" d="M679 -688H694Q715 -687 734 -678Q748 -673 750 -665Q764 -661 766 -644Q773 -633 771 -613Q773 -598 768 -585Q762 -572 758 -559Q751 -549 749 -539Q749 -536 744 -532Q740 -528 739 -524Q736 -523 735 -519Q735 -516 733 -515Q726 -505 719 -492Q718 -487 710 -487Q702 -487 703 -481Q704 -461 683 -452Q682 -448 674 -445Q666 -443 666 -437Q663 -433 667 -429Q671 -425 676 -427Q711 -419 748 -415Q762 -414 772 -411Q802 -407 832 -401Q841 -399 850 -398L866 -393Q882 -389 897 -383Q898 -382 908 -378Q915 -375 914 -370Q911 -368 912 -361Q913 -355 918 -356Q907 -348 918 -339Q918 -337 922 -334Q928 -331 922 -331Q915 -335 907 -322Q897 -327 890 -321Q886 -323 870 -325Q863 -327 855 -330L830 -337Q829 -346 824 -338Q790 -347 778 -348Q771 -350 739 -355Q734 -355 734 -353Q736 -346 738 -337Q739 -332 747 -333Q755 -334 756 -330Q764 -329 772 -328Q781 -327 782 -318Q790 -311 781 -304Q781 -301 779 -301Q776 -301 773 -301Q771 -300 771 -296Q774 -295 774 -294Q775 -293 774 -292Q769 -291 764 -290Q762 -288 754 -287Q744 -285 741 -280Q737 -250 737 -234Q736 -224 746 -224Q756 -226 765 -228Q771 -227 772 -231Q774 -236 770 -240Q781 -230 791 -241Q792 -245 794 -244Q801 -239 805 -241Q828 -233 835 -234Q853 -231 870 -228Q877 -225 885 -221Q892 -217 888 -208Q881 -208 881 -202Q881 -197 886 -192Q890 -191 890 -187Q890 -183 886 -184Q876 -181 865 -179Q830 -187 791 -181Q788 -180 748 -175Q740 -176 738 -169Q736 -162 735 -156V-136Q732 -126 733 -106Q734 -87 732 -79Q732 -65 734 -57Q728 -33 732 -10Q727 -9 727 -5Q727 0 727 3L723 25Q723 33 717 41Q714 44 715 53Q716 64 711 67Q712 73 706 81Q701 87 702 91Q699 97 696 102Q695 106 692 111Q689 115 684 110L666 108Q660 93 667 79Q669 64 669 -16Q669 -55 669 -94Q673 -114 670 -137Q671 -143 672 -150Q673 -157 668 -160Q660 -158 617 -153Q600 -155 592 -150Q583 -152 573 -158Q547 -166 548 -186Q552 -188 557 -201Q558 -211 568 -215Q578 -220 588 -223Q600 -222 608 -234Q609 -239 618 -245Q626 -251 627 -256Q633 -258 638 -264Q642 -270 648 -275Q645 -282 637 -284Q629 -287 623 -290Q611 -297 622 -308Q628 -304 637 -313Q656 -310 674 -321Q675 -330 672 -339Q671 -347 658 -349Q650 -350 648 -353Q651 -355 653 -368Q651 -375 631 -375Q622 -378 614 -372Q609 -373 607 -367Q605 -362 602 -361Q600 -356 594 -351Q587 -345 586 -343Q581 -345 580 -340Q578 -336 576 -332Q570 -327 564 -323Q558 -318 555 -311Q546 -315 543 -306Q541 -301 532 -297Q523 -293 521 -290Q502 -271 495 -268Q482 -270 482 -263Q470 -254 452 -250Q444 -246 438 -250Q432 -254 433 -262Q444 -270 458 -276Q467 -287 478 -295Q498 -310 516 -329Q533 -348 550 -366Q556 -372 565 -379Q571 -386 561 -392Q542 -394 524 -406Q508 -412 492 -419Q483 -421 473 -424Q468 -422 464 -426Q460 -430 465 -433Q471 -442 487 -435Q535 -435 548 -433Q558 -432 565 -435Q585 -431 603 -433Q614 -442 623 -453Q630 -461 636 -470Q638 -477 648 -488Q657 -498 659 -505Q665 -513 677 -536Q686 -554 695 -566Q699 -580 705 -593Q711 -607 711 -621Q714 -629 711 -636Q707 -646 698 -643Q688 -638 677 -634Q656 -626 635 -618Q621 -615 587 -620Q581 -626 567 -626Q552 -626 548 -632Q543 -636 546 -639Q549 -643 555 -641Q576 -649 580 -652Q604 -665 639 -678Q659 -683 679 -688ZM204 -658Q210 -656 211 -654Q220 -657 237 -648Q240 -644 247 -644Q253 -644 255 -642Q264 -643 270 -638Q276 -633 283 -629Q290 -624 287 -619Q284 -614 284 -608Q286 -603 282 -599Q279 -596 279 -593Q276 -589 274 -578Q272 -567 268 -563Q264 -550 260 -538Q256 -532 252 -522Q246 -506 240 -500Q238 -492 235 -486Q235 -484 239 -484Q244 -487 250 -486Q277 -495 283 -502Q312 -505 341 -509Q343 -506 348 -505Q356 -504 357 -500Q357 -474 369 -471Q368 -464 359 -462Q350 -460 342 -462Q336 -458 330 -456Q327 -457 322 -455Q316 -452 312 -454Q280 -454 250 -464Q241 -464 232 -465Q223 -467 219 -457Q207 -449 202 -435Q192 -420 182 -406Q179 -405 175 -398Q170 -389 164 -389Q158 -381 155 -378Q148 -372 141 -373Q136 -373 135 -377Q134 -381 131 -384Q133 -387 130 -391Q127 -395 128 -398Q136 -407 146 -425Q155 -445 164 -465Q172 -486 180 -507Q193 -531 201 -558Q205 -567 216 -605Q217 -617 218 -630Q219 -636 211 -643Q201 -651 204 -658ZM293 -405Q306 -404 319 -404Q323 -406 328 -402Q334 -398 331 -392Q328 -388 332 -383Q336 -378 336 -375Q338 -369 332 -364Q326 -359 322 -363Q309 -352 294 -353Q286 -351 278 -348Q272 -351 270 -344Q272 -336 273 -328Q274 -320 279 -314Q294 -318 308 -323Q313 -329 321 -327Q337 -332 353 -337Q364 -334 374 -337Q381 -334 389 -335Q396 -334 399 -330Q399 -328 396 -328Q395 -321 394 -314Q393 -310 395 -305Q397 -298 395 -296Q393 -290 383 -286Q377 -289 372 -287Q369 -289 365 -285Q361 -281 356 -282Q354 -280 349 -280Q343 -280 341 -277Q332 -275 323 -273Q298 -266 293 -262Q291 -263 287 -261Q282 -258 280 -261Q269 -257 265 -249Q260 -245 259 -234Q259 -225 255 -222Q257 -208 246 -189Q250 -180 244 -168Q244 -158 244 -149Q243 -136 243 -125Q240 -115 244 -106Q243 -100 246 -99Q249 -97 253 -101Q259 -103 264 -109Q276 -115 284 -124Q293 -134 304 -143Q320 -163 336 -183Q356 -211 357 -214Q360 -217 361 -216Q362 -213 358 -208Q358 -204 353 -197Q347 -189 347 -185Q347 -184 334 -164Q334 -160 329 -153Q324 -147 324 -143Q325 -129 311 -122Q312 -117 306 -110Q302 -104 301 -101Q295 -95 291 -83Q287 -70 282 -66Q281 -61 276 -57Q270 -52 270 -49Q269 -47 268 -45L263 -36Q263 -34 261 -32Q250 -30 242 -36Q233 -43 225 -47Q217 -52 207 -55Q193 -69 191 -70Q188 -76 186 -87Q183 -92 181 -111Q181 -145 184 -178Q186 -191 187 -205Q186 -210 189 -218Q192 -227 190 -231Q178 -230 163 -227Q154 -225 145 -224Q121 -224 111 -228Q74 -233 68 -232Q67 -233 60 -235Q52 -237 51 -241Q91 -254 144 -268Q155 -270 166 -273Q171 -275 177 -277L199 -284Q205 -286 210 -288Q217 -300 219 -314Q219 -318 221 -325Q224 -334 222 -340Q219 -342 221 -344Q224 -347 223 -349Q203 -353 195 -350Q188 -356 182 -358Q190 -361 198 -365Q216 -372 233 -378Q241 -381 249 -384Q258 -387 262 -394Q278 -397 293 -405ZM669 -266Q656 -260 653 -254Q639 -251 637 -246Q630 -241 624 -232Q623 -228 617 -222Q611 -217 609 -213Q608 -209 601 -204Q595 -200 594 -197Q598 -194 609 -196Q634 -198 638 -199Q659 -202 675 -209Q677 -231 675 -251Q673 -256 674 -263Q673 -267 669 -266Z"/>
</svg>