<svg xmlns="http://www.w3.org/2000/svg" viewBox="0 -800 1024 1024">
	<path fill="#000000" d="M364 -669H368Q374 -665 393 -663Q407 -662 415 -658Q436 -655 450 -635Q455 -630 452 -619Q449 -610 450 -606Q455 -599 455 -580L454 -569Q454 -566 454 -563Q455 -555 451 -527Q453 -522 452 -513Q451 -502 453 -498Q454 -489 466 -487Q484 -484 487 -482Q489 -478 497 -478Q504 -478 506 -476Q509 -472 505 -466Q502 -461 502 -458Q505 -446 489 -442Q485 -438 472 -434Q458 -430 454 -422Q447 -416 448 -407Q448 -399 447 -390Q445 -376 448 -360Q445 -345 444 -325Q444 -306 443 -288Q446 -283 443 -271Q441 -262 442 -257Q454 -246 444 -230Q439 -225 445 -217Q450 -209 450 -205Q446 -199 447 -185Q447 -172 445 -166Q442 -141 439 -116Q434 -111 431 -104Q428 -98 420 -97Q403 -109 397 -128Q394 -134 387 -133Q381 -132 377 -127Q375 -127 371 -125L358 -122Q355 -121 352 -120Q331 -115 309 -113Q305 -112 293 -114Q282 -116 275 -113Q250 -120 245 -123Q233 -130 224 -141Q214 -152 205 -161Q193 -193 200 -205Q201 -212 200 -220Q200 -227 206 -232Q202 -254 208 -273V-326Q207 -336 206 -346Q205 -356 197 -361Q181 -359 175 -355Q167 -353 159 -349Q151 -345 143 -347Q118 -352 106 -359Q90 -364 75 -364Q69 -364 65 -368Q61 -373 67 -376Q81 -382 94 -388Q135 -404 175 -423Q184 -427 193 -430Q203 -433 208 -443Q208 -472 211 -502Q211 -511 211 -520Q211 -541 205 -558Q203 -560 197 -575Q197 -582 200 -584Q203 -586 207 -581Q228 -578 235 -569Q243 -568 250 -561Q257 -554 263 -551Q270 -549 271 -538Q272 -528 275 -524Q281 -517 276 -498Q276 -480 276 -462Q311 -478 347 -493Q357 -493 366 -497Q375 -500 385 -495Q393 -498 391 -516Q389 -528 392 -533Q391 -563 391 -592Q392 -621 380 -645Q379 -650 370 -656Q361 -663 364 -669ZM739 -644Q740 -644 745 -639Q749 -633 757 -631Q764 -629 770 -626Q779 -622 788 -617Q798 -612 799 -600Q802 -588 787 -573Q788 -570 786 -565Q783 -559 785 -555Q784 -544 779 -534Q773 -525 769 -515Q767 -503 761 -494Q754 -474 761 -462Q781 -434 808 -430Q827 -420 846 -410Q848 -404 860 -397Q870 -391 874 -384Q889 -369 898 -353Q902 -342 895 -309Q887 -307 883 -299Q879 -290 873 -283Q869 -284 860 -275Q853 -266 846 -257Q843 -253 837 -256Q833 -258 832 -254Q832 -253 832 -251Q831 -248 829 -249Q828 -249 828 -253Q828 -254 829 -255Q826 -256 824 -256Q821 -256 823 -254Q820 -247 816 -240Q810 -242 807 -237Q804 -233 800 -230Q796 -236 793 -227Q783 -229 780 -220Q779 -215 774 -215Q770 -215 768 -213Q760 -206 752 -200Q748 -201 740 -198Q725 -188 709 -185Q705 -189 695 -185Q687 -182 682 -183L663 -198Q653 -199 654 -212Q660 -213 662 -216Q665 -220 661 -224Q658 -227 659 -228Q664 -226 673 -222Q682 -218 692 -217Q701 -219 711 -219Q720 -220 727 -228Q735 -232 765 -253Q767 -259 781 -261Q790 -272 799 -283Q810 -297 822 -309Q834 -321 836 -338Q842 -348 835 -359Q833 -362 819 -376Q798 -387 776 -398Q754 -410 735 -430Q703 -465 713 -517Q712 -520 716 -522Q720 -524 719 -528Q715 -538 717 -540Q719 -545 720 -550L726 -570Q728 -575 729 -580Q727 -586 722 -584Q716 -581 711 -581L686 -571Q678 -568 669 -565Q667 -561 661 -559Q655 -557 653 -554Q640 -550 620 -547Q619 -548 618 -548Q613 -549 613 -542Q613 -536 619 -538Q627 -532 627 -521Q626 -510 625 -500Q624 -492 623 -482Q621 -473 630 -468Q633 -460 632 -443Q631 -432 633 -423Q634 -402 635 -382Q635 -373 635 -365Q635 -323 636 -315Q643 -304 640 -289Q639 -283 640 -266Q641 -247 638 -236Q638 -229 635 -220Q636 -214 636 -201V-181Q634 -166 636 -148Q633 -129 635 -109Q631 -88 634 -64Q632 -50 632 -37Q632 -18 630 -2Q631 4 622 17Q620 24 622 35Q625 51 620 58Q611 67 609 86Q604 89 600 96Q593 108 588 109Q582 100 575 91Q574 88 570 84Q564 77 563 73Q580 66 570 48Q577 41 577 40Q578 16 579 -9Q581 -30 583 -52Q583 -94 580 -131Q582 -138 580 -157Q578 -171 580 -202Q582 -227 580 -242Q580 -266 580 -291Q580 -301 580 -311L579 -349Q579 -356 579 -363L577 -434Q578 -449 578 -464Q576 -478 576 -492Q575 -506 570 -518Q560 -521 551 -526Q541 -530 540 -540Q542 -540 547 -541Q551 -542 554 -546Q555 -551 559 -553Q563 -554 569 -554Q570 -556 574 -557Q578 -558 579 -561Q575 -566 578 -568Q581 -570 585 -567Q609 -576 632 -590Q651 -599 669 -609Q678 -612 692 -621Q706 -630 714 -632Q724 -627 739 -644ZM378 -430Q375 -430 371 -428L356 -424Q352 -423 348 -422Q341 -419 328 -418Q312 -417 306 -413Q302 -410 290 -407Q278 -404 273 -398Q261 -390 263 -359Q264 -350 262 -334Q260 -326 267 -324Q273 -322 281 -324Q289 -328 307 -328Q323 -328 329 -330Q335 -333 347 -330Q357 -327 361 -329Q374 -329 366 -308Q374 -298 374 -284Q372 -281 371 -274Q370 -264 366 -261Q352 -261 336 -262Q331 -264 310 -267Q300 -265 285 -274Q274 -280 268 -280Q257 -276 259 -265Q261 -254 261 -243Q254 -228 262 -205Q260 -197 264 -173Q262 -165 270 -163Q277 -161 284 -165Q310 -168 331 -175Q344 -176 356 -177Q369 -179 381 -172Q389 -173 390 -183Q391 -192 388 -199L387 -247Q384 -252 386 -262Q388 -274 385 -278Q383 -287 383 -294Q388 -331 388 -369Q390 -376 389 -390Q388 -406 391 -414Q392 -421 388 -427Q384 -434 378 -430Z"/>
</svg>