<svg xmlns="http://www.w3.org/2000/svg" viewBox="0 -800 1024 1024">
	<path fill="#000000" d="M489 -668Q531 -673 561 -638Q591 -603 581 -560Q578 -556 576 -546Q574 -535 571 -531Q558 -491 541 -455Q536 -426 508 -388Q505 -378 496 -370Q486 -362 487 -354Q516 -356 570 -366Q617 -375 638 -377Q738 -389 797 -314Q801 -302 807 -290Q813 -279 811 -266Q809 -237 806 -209Q790 -158 788 -144Q772 -111 761 -76Q744 -42 738 -32Q723 -9 703 1Q694 9 688 18Q681 26 670 32Q668 42 652 54Q637 65 634 72Q628 76 625 76Q615 76 608 65Q601 54 606 44Q602 37 586 24Q566 7 562 -5Q564 -12 556 -17Q549 -21 548 -25Q583 -12 608 -12Q626 -12 637 -17Q643 -29 660 -53Q683 -85 689 -103Q704 -121 714 -163Q721 -193 727 -205Q733 -229 739 -254Q746 -279 732 -300Q711 -324 673 -324Q663 -324 610 -316Q542 -305 473 -294Q438 -287 400 -284Q388 -286 379 -282Q370 -278 361 -275Q347 -280 325 -306Q316 -327 320 -338Q316 -361 324 -381Q332 -401 335 -422Q343 -443 351 -481Q355 -506 362 -533Q368 -560 347 -580Q331 -584 308 -584Q297 -585 284 -584Q271 -583 267 -592Q274 -590 285 -596Q295 -601 300 -601Q359 -632 423 -649Q453 -662 489 -668ZM484 -611Q434 -599 387 -584Q381 -584 380 -581Q384 -573 395 -569Q408 -563 409 -550Q410 -536 412 -525Q416 -514 410 -483Q410 -452 406 -422Q424 -418 443 -422Q456 -423 461 -434Q466 -445 471 -455Q490 -514 500 -569Q504 -586 501 -604Q499 -617 484 -611ZM400 -402L387 -340Q385 -335 386 -333Q387 -331 391 -331Q392 -331 412 -336Q424 -340 437 -342Q446 -345 440 -355Q443 -365 436 -372Q429 -379 425 -385Q417 -401 400 -402ZM443 -200Q460 -198 475 -198Q491 -199 504 -188Q513 -187 513 -181Q513 -174 504 -170Q502 -162 500 -156Q497 -149 489 -148Q422 -143 353 -138Q224 -125 207 -122Q195 -124 177 -122Q156 -120 144 -122Q134 -122 116 -126Q93 -131 83 -129Q74 -129 71 -136Q69 -144 74 -145Q77 -145 81 -141Q113 -150 144 -160Q175 -170 235 -174Q283 -179 331 -184Q390 -189 443 -200Z"/>
</svg>