<svg xmlns="http://www.w3.org/2000/svg" viewBox="0 -800 1024 1024">
	<path fill="#000000" d="M243 -678Q256 -678 258 -677Q269 -682 277 -672Q287 -668 289 -652Q297 -644 293 -624Q290 -612 291 -599Q291 -592 288 -580Q283 -564 286 -555Q286 -542 285 -529Q288 -522 286 -510Q287 -506 285 -501Q282 -492 285 -488Q285 -479 294 -477Q298 -476 311 -476Q324 -478 340 -475Q344 -475 342 -467Q340 -460 343 -457Q346 -449 336 -448Q327 -452 318 -441Q306 -443 292 -433Q284 -432 282 -424Q280 -417 283 -409Q283 -405 283 -402L284 -398Q284 -394 284 -391Q284 -386 281 -376Q278 -367 279 -359Q278 -355 276 -345Q276 -338 279 -329Q284 -337 288 -345L319 -369Q336 -378 353 -387Q381 -404 452 -440Q461 -446 459 -455Q457 -464 460 -473Q456 -488 456 -503Q459 -514 459 -539Q455 -548 459 -557Q459 -587 455 -615Q453 -627 443 -631Q433 -635 425 -641Q422 -643 423 -645Q424 -647 427 -647Q434 -649 441 -648Q458 -651 474 -654Q485 -657 499 -648Q503 -648 506 -642Q509 -635 512 -633Q516 -629 515 -617Q514 -607 516 -602Q514 -587 511 -573Q511 -555 509 -521Q507 -516 510 -507Q513 -498 512 -495Q508 -484 511 -475Q514 -469 520 -474Q525 -478 529 -482Q538 -467 551 -469Q560 -466 569 -454Q568 -446 566 -439L543 -429Q538 -425 529 -422Q518 -419 514 -414Q507 -411 506 -403Q506 -396 504 -390Q504 -358 503 -327Q505 -316 521 -329Q539 -341 557 -354Q567 -364 579 -374Q590 -383 598 -395Q597 -400 601 -404Q606 -408 609 -405Q612 -405 612 -403Q613 -400 612 -397Q594 -375 575 -354Q569 -343 552 -327Q536 -312 532 -306Q525 -303 520 -297Q516 -291 510 -285Q496 -281 500 -263Q499 -249 498 -236Q499 -213 497 -192Q497 -183 497 -174Q497 -164 492 -156Q494 -125 490 -103Q488 -100 486 -82Q485 -71 480 -63Q471 -66 467 -56Q462 -54 459 -61Q456 -68 453 -68Q444 -74 440 -83Q436 -93 432 -102Q434 -126 438 -145Q440 -161 442 -197Q445 -215 448 -233Q447 -239 450 -250Q453 -259 451 -264Q447 -273 436 -265Q429 -263 421 -256Q411 -247 406 -246Q399 -242 395 -239Q393 -238 390 -231Q386 -224 381 -223Q377 -226 373 -224Q369 -222 369 -218Q357 -210 344 -208Q340 -205 336 -209Q332 -213 337 -216Q342 -218 346 -225Q350 -231 352 -233Q391 -275 421 -320Q426 -326 438 -355Q439 -363 445 -367Q450 -371 454 -377Q457 -380 457 -385Q456 -390 452 -389Q438 -381 430 -379Q416 -374 401 -370Q398 -370 391 -364Q383 -357 378 -360Q376 -360 352 -354Q338 -352 323 -350Q308 -341 299 -327Q296 -323 301 -317Q307 -311 304 -306Q295 -297 287 -286Q274 -273 274 -253Q276 -235 272 -197Q265 -183 273 -176Q277 -151 267 -112Q264 -108 263 -97Q262 -81 254 -78Q237 -80 232 -74Q227 -76 225 -83Q223 -89 220 -91Q216 -96 205 -120Q205 -137 208 -152Q210 -156 212 -178Q212 -186 215 -193Q219 -200 212 -205Q204 -203 191 -191Q181 -182 176 -179Q174 -176 166 -174Q159 -172 157 -168Q147 -164 144 -173Q138 -177 131 -197Q130 -202 124 -207Q117 -212 115 -215Q116 -224 124 -232Q122 -248 133 -249Q166 -296 195 -344Q195 -352 205 -354Q217 -352 219 -363Q224 -380 229 -397Q229 -406 220 -406Q211 -404 201 -402Q195 -400 175 -408Q173 -408 155 -414Q150 -416 135 -414Q123 -413 117 -415Q127 -418 136 -421Q142 -428 151 -428Q160 -429 169 -432Q179 -438 222 -455Q230 -455 238 -465Q240 -493 242 -522Q241 -545 245 -566Q245 -579 245 -592Q243 -598 243 -614Q243 -633 238 -641Q234 -651 223 -648Q213 -651 215 -659Q217 -667 219 -673Q231 -673 243 -678ZM761 -581H766Q769 -579 778 -580Q788 -581 793 -577Q804 -576 806 -565Q809 -554 806 -544Q800 -521 794 -498Q794 -491 790 -481Q784 -468 786 -460Q781 -446 796 -438Q803 -437 812 -427Q821 -417 826 -415Q832 -417 843 -410Q851 -404 857 -404Q868 -399 880 -394Q892 -390 901 -379Q907 -376 912 -367Q917 -358 921 -355Q925 -343 928 -331Q927 -328 928 -319Q929 -310 926 -305Q925 -293 910 -274Q908 -271 906 -269L895 -259Q893 -256 891 -254Q872 -237 852 -226Q842 -224 835 -217Q828 -211 821 -205Q814 -202 807 -200Q801 -198 796 -192Q783 -187 770 -182Q760 -182 755 -189Q733 -199 723 -204Q720 -206 716 -208Q712 -211 715 -214Q732 -216 747 -222Q757 -225 766 -229Q775 -229 782 -235Q788 -241 795 -246Q805 -248 824 -265Q835 -280 847 -294Q857 -309 859 -328Q865 -352 847 -361Q833 -368 820 -374Q807 -379 796 -390Q778 -402 762 -417Q747 -438 744 -446Q741 -456 736 -466Q731 -476 734 -486Q734 -500 733 -515Q729 -517 724 -510Q719 -504 715 -505Q709 -506 706 -498Q704 -492 700 -492Q686 -497 677 -491Q675 -487 667 -484Q661 -482 659 -478Q663 -474 669 -470Q674 -466 677 -459Q677 -453 679 -416Q678 -391 682 -365Q681 -352 679 -340Q684 -319 679 -311Q680 -299 680 -274Q680 -264 680 -254Q681 -250 681 -214Q680 -192 684 -171Q682 -155 685 -136Q681 -122 685 -105Q680 -91 684 -81Q684 -74 682 -62Q679 -43 678 -22Q675 -12 675 1Q675 4 672 12Q668 21 670 26Q671 32 666 41Q662 48 662 52Q665 60 659 66Q653 72 651 79Q644 90 639 103Q624 103 611 96Q600 89 609 78Q622 53 625 24Q629 1 630 -24Q634 -67 634 -111Q633 -123 636 -209Q635 -226 634 -244L631 -291Q631 -317 632 -320Q634 -336 635 -352Q634 -396 638 -438Q636 -443 637 -454Q639 -469 632 -472Q628 -472 626 -476Q625 -477 624 -483Q624 -488 627 -488Q634 -486 640 -485Q646 -487 647 -492Q649 -498 651 -503Q651 -514 658 -507Q663 -504 666 -509Q670 -515 665 -518Q660 -525 673 -528Q678 -530 678 -534Q677 -539 677 -544Q679 -547 686 -547Q693 -547 696 -549Q708 -558 719 -568Q722 -568 728 -573Q734 -579 739 -576Q750 -578 761 -581ZM215 -289L197 -270Q193 -264 195 -260Q196 -257 201 -257Q212 -257 215 -267Q217 -284 217 -289Q216 -290 215 -289Z"/>
</svg>