<svg xmlns="http://www.w3.org/2000/svg" viewBox="0 -800 1024 1024">
	<path fill="#000000" d="M475 -664Q463 -657 449 -653Q447 -653 443 -655Q444 -660 453 -667Q462 -673 467 -673Q474 -673 475 -664ZM694 -251Q671 -238 648 -225Q657 -206 671 -200Q686 -227 694 -251ZM906 -157Q903 -141 894 -130Q890 -134 890 -141Q890 -158 901 -158Q904 -158 906 -157ZM789 -396V-394Q789 -384 775 -384H771L770 -388Q772 -397 782 -398Q785 -398 789 -396ZM963 -696Q953 -694 948 -672Q945 -658 941 -653Q936 -665 935 -681Q934 -697 920 -701Q918 -695 918 -693Q923 -673 927 -653Q927 -646 923 -641Q905 -638 899 -633Q900 -625 914 -625Q922 -625 925 -626Q929 -631 933 -639Q937 -646 945 -647Q949 -647 953 -644V-642Q953 -628 946 -621Q939 -615 931 -609H924Q914 -609 898 -616Q884 -622 875 -622Q869 -622 866 -621Q860 -636 844 -636Q831 -636 822 -623L834 -644Q833 -652 824 -659Q816 -657 778 -642Q781 -653 798 -662Q812 -669 816 -676Q816 -683 809 -692Q805 -697 804 -702H792Q806 -705 806 -729Q806 -741 805 -753Q813 -749 829 -749Q861 -749 870 -758V-755Q870 -751 873 -748Q880 -750 883 -755Q886 -760 889 -764L891 -762Q890 -757 888 -753L889 -750Q893 -739 903 -739Q908 -739 913 -744Q932 -722 947 -695Q956 -698 958 -698Q959 -698 963 -696ZM462 -277Q456 -270 448 -264Q441 -257 435 -246Q431 -237 437 -213Q441 -196 448 -183Q446 -175 445 -172Q445 -152 460 -147Q458 -134 455 -122Q471 -151 486 -157Q482 -148 477 -138Q472 -129 471 -117Q471 -115 473 -105Q499 -132 516 -169Q533 -205 550 -242Q566 -272 566 -283V-290Q549 -280 530 -238Q514 -202 502 -190V-193Q503 -213 515 -238Q527 -264 536 -283Q518 -275 499 -269Q479 -262 470 -268Q466 -272 462 -277ZM461 -279Q457 -285 452 -291Q448 -295 445 -297Q435 -291 429 -285Q422 -280 425 -273Q426 -271 440 -275Q454 -279 461 -279ZM448 -109Q424 -97 413 -86Q411 -82 408 -79Q431 -79 448 -109ZM440 -302Q420 -320 420 -341Q421 -346 421 -351Q422 -356 434 -391Q439 -407 445 -422Q450 -437 464 -441Q467 -442 472 -442Q486 -440 500 -439H502Q515 -440 555 -459Q599 -480 618 -481Q627 -520 633 -558Q621 -576 608 -591Q609 -593 609 -596Q605 -610 599 -621V-622Q600 -637 613 -650Q626 -663 639 -678Q648 -690 658 -704Q669 -718 688 -719H689Q702 -719 714 -708Q726 -697 728 -681H725Q718 -681 710 -688Q703 -694 699 -694Q696 -694 694 -693Q696 -680 716 -663Q738 -644 740 -627Q736 -608 732 -589Q732 -581 737 -579Q743 -579 754 -604V-610Q754 -621 745 -640Q737 -657 737 -666V-670Q751 -661 759 -642Q766 -622 774 -604Q767 -595 763 -569Q753 -558 742 -547Q731 -537 723 -522Q743 -528 863 -578Q862 -573 861 -568V-566Q890 -580 897 -585Q892 -579 884 -570Q875 -562 873 -549Q875 -547 878 -547Q886 -550 893 -553H894L895 -552Q892 -550 886 -541Q885 -539 885 -534Q885 -522 891 -516Q896 -519 901 -523L902 -522Q895 -499 895 -489Q895 -473 905 -464Q897 -444 897 -427V-421Q882 -420 870 -411Q866 -408 852 -393Q846 -396 840 -396Q822 -393 804 -390H801V-392Q801 -402 819 -408Q839 -414 842 -421Q838 -425 830 -425Q822 -425 810 -421Q736 -406 722 -402Q670 -387 652 -363H656Q675 -363 708 -376Q736 -387 753 -387Q758 -386 762 -386Q726 -362 666 -337Q650 -327 630 -304Q712 -326 779 -367H802Q813 -367 818 -365Q823 -370 830 -372H832Q831 -366 829 -360L830 -357Q839 -361 850 -375Q860 -388 868 -392Q868 -384 858 -372Q846 -358 846 -348H848Q850 -348 853 -353Q856 -359 860 -359H862Q855 -345 855 -329Q855 -317 860 -314Q865 -312 876 -309Q871 -297 872 -276Q832 -259 801 -234Q760 -196 737 -138Q787 -72 846 -50Q852 -53 852 -74Q852 -93 858 -94Q862 -66 866 -38Q875 -82 874 -140Q874 -165 880 -173Q884 -156 884 -129Q883 -92 882 -56Q882 -37 883 -28Q888 -38 888 -60Q888 -76 887 -92Q887 -106 888 -109Q888 -121 892 -121H893Q897 -120 897 -118Q896 -113 894 -109Q897 -79 900 -50Q902 -21 904 -17Q921 13 929 43Q921 124 871 124H862Q856 123 847 117Q835 109 828 109H827Q821 97 801 77Q778 54 772 37Q783 37 795 54Q807 70 817 70H818Q812 48 776 6Q761 -14 751 -23Q735 -39 720 -43Q723 -29 738 -11Q753 6 756 16Q746 14 732 -3Q722 -16 715 -20Q714 -24 712 -28Q702 -32 693 -49Q678 -32 661 15Q648 51 640 65Q638 75 638 77V80Q626 85 618 85Q592 85 577 53Q566 29 559 -13V-14Q559 -17 562 -17Q564 -17 566 -19Q565 -31 558 -51Q549 -79 549 -92Q557 -88 563 -72Q570 -53 580 -50Q596 -65 629 -118Q619 -135 603 -147Q587 -160 574 -174Q563 -167 558 -153Q553 -140 548 -125Q524 -75 504 -16Q501 0 498 17Q495 33 487 43Q474 56 459 56Q438 52 416 38Q406 28 400 13V10Q403 4 406 -2V-6Q402 -27 388 -46Q389 -48 393 -50Q397 -52 397 -55Q397 -58 396 -61Q371 -28 368 -20Q365 -23 362 -23Q357 -22 352 -22Q349 -22 346 -26Q338 -22 329 -19Q334 -29 339 -39Q333 -43 325 -45Q320 -85 293 -86L288 -87Q299 -90 309 -94Q307 -103 287 -105H278Q271 -106 263 -107Q264 -104 264 -98Q265 -37 284 30Q279 40 278 59Q277 74 276 79Q274 85 265 94Q257 102 255 109H253Q237 110 217 97Q198 85 192 74Q186 61 182 44Q179 28 168 17Q184 -41 182 -126Q158 -121 138 -111V-113Q137 -122 156 -132Q170 -140 173 -145H171Q126 -138 101 -98Q104 -95 108 -95Q117 -100 127 -104Q130 -104 132 -102Q128 -91 117 -84Q108 -73 99 -69Q90 -70 85 -80Q79 -91 74 -100Q70 -109 55 -116Q39 -123 37 -132Q35 -140 35 -144Q35 -160 43 -171Q51 -181 58 -190Q76 -220 79 -223Q94 -241 110 -242Q109 -239 104 -235Q99 -230 97 -226Q103 -223 114 -223Q123 -223 140 -229Q161 -236 172 -236L190 -237L189 -253Q180 -249 158 -249Q126 -248 90 -275Q90 -283 99 -287Q99 -291 93 -294Q89 -296 88 -300Q108 -316 138 -326Q167 -337 194 -346L193 -366Q191 -362 177 -360Q162 -357 160 -351H154Q136 -351 122 -362Q108 -374 97 -383Q79 -395 78 -416Q75 -453 71 -491Q71 -512 96 -523Q114 -531 157 -536Q159 -536 159 -540V-541L160 -545H163Q169 -545 174 -546V-556Q173 -581 170 -594Q166 -611 156 -620H152Q143 -617 134 -615Q142 -636 156 -652Q155 -658 150 -663Q145 -668 144 -672V-673Q149 -694 156 -706Q156 -707 181 -734Q188 -742 195 -749Q202 -756 211 -756Q221 -756 229 -749Q242 -734 253 -713Q268 -693 276 -676V-674Q275 -660 270 -650Q272 -634 263 -624Q260 -628 258 -637Q260 -649 262 -662V-665Q260 -677 252 -684Q244 -692 238 -698Q230 -694 230 -688Q230 -683 239 -669Q245 -659 247 -652Q249 -642 249 -636Q248 -619 247 -603Q247 -592 252 -582Q256 -587 258 -599Q260 -610 263 -615Q268 -613 268 -601Q268 -591 271 -586Q281 -591 291 -597Q294 -597 296 -596Q322 -628 388 -637H389L391 -635Q391 -633 389 -631Q412 -640 435 -649Q432 -645 420 -636Q406 -625 403 -617Q404 -609 411 -604Q421 -609 431 -614L432 -611Q433 -608 428 -604Q424 -600 423 -599Q421 -596 421 -589Q421 -585 425 -573Q435 -576 445 -579Q433 -553 434 -523Q435 -516 435 -510Q423 -494 419 -486Q411 -470 411 -452Q404 -456 396 -455Q375 -451 353 -448H349Q349 -455 356 -460Q358 -461 372 -466Q394 -474 395 -484Q390 -487 380 -485Q350 -484 312 -468Q271 -450 256 -427Q267 -429 286 -439Q308 -451 323 -452Q328 -452 336 -450Q304 -430 273 -409Q262 -393 263 -388L264 -384Q276 -388 292 -397Q305 -405 311 -407Q315 -402 319 -398Q330 -403 340 -408V-406Q339 -400 337 -394L340 -393Q347 -396 353 -400H356L359 -398Q356 -392 353 -387Q355 -383 361 -378Q366 -374 368 -371Q367 -347 365 -323Q338 -314 309 -303Q291 -295 276 -288Q261 -281 258 -266Q258 -258 259 -254Q279 -259 307 -269Q349 -284 376 -288Q408 -295 440 -302ZM401 -79V-82Q407 -96 416 -110Q418 -133 409 -137Q396 -134 396 -116Q395 -113 396 -109Q377 -92 374 -87Q388 -83 401 -79ZM392 -66Q381 -73 370 -81Q368 -77 362 -59Q367 -56 369 -56Q374 -55 380 -60Q388 -66 392 -66ZM263 -111Q281 -120 303 -129Q324 -139 336 -160Q324 -159 312 -158Q330 -172 341 -175Q319 -182 288 -174Q277 -172 274 -168Q271 -164 264 -159Q277 -159 283 -160Q290 -162 302 -155Q289 -154 280 -147Q274 -142 264 -139Q263 -130 263 -111Z"/>
</svg>