<svg xmlns="http://www.w3.org/2000/svg" viewBox="0 -800 1024 1024">
	<path fill="#000000" d="M215 -680Q223 -680 227 -676L253 -671Q282 -652 271 -634Q271 -631 270 -630V-621Q269 -619 269 -616Q262 -613 261 -603Q260 -596 258 -594Q259 -584 255 -577Q250 -570 248 -562Q248 -559 243 -553Q238 -547 242 -544Q248 -541 255 -544Q262 -547 269 -548Q275 -549 281 -551L293 -556Q308 -560 321 -560Q324 -564 331 -565Q336 -566 338 -567Q349 -568 360 -567Q371 -566 378 -557Q387 -541 385 -532Q384 -517 377 -505Q375 -502 355 -488Q352 -488 346 -484Q341 -480 337 -480Q332 -478 328 -473Q324 -468 317 -469Q305 -460 293 -451Q286 -440 267 -428Q259 -419 258 -408Q263 -405 266 -408Q270 -411 271 -411Q275 -409 278 -412Q280 -416 283 -417Q286 -416 294 -418Q303 -420 308 -418Q311 -413 315 -414Q319 -415 323 -413Q324 -410 328 -411Q333 -412 334 -410Q340 -412 351 -407Q357 -404 362 -404Q374 -393 370 -366Q359 -367 352 -360Q349 -357 341 -356Q333 -355 330 -351Q321 -347 313 -347Q295 -344 296 -335Q312 -324 302 -309Q299 -305 302 -303Q307 -301 312 -304Q326 -304 313 -326Q324 -321 336 -317Q340 -317 344 -321Q349 -322 356 -318Q365 -313 370 -314Q380 -317 392 -312Q398 -301 400 -289Q396 -277 384 -274Q372 -270 360 -268Q356 -265 346 -264Q336 -263 332 -261Q324 -258 315 -259Q302 -253 289 -245Q287 -238 282 -230Q276 -223 281 -215Q283 -207 283 -169Q278 -158 279 -132Q280 -112 277 -102Q268 -90 278 -82Q286 -91 301 -104Q321 -122 329 -132Q361 -173 385 -215Q391 -224 395 -229Q396 -229 396 -227Q380 -187 378 -181Q374 -176 371 -164Q369 -154 366 -149Q366 -140 355 -132Q355 -116 347 -105Q350 -99 337 -86Q337 -78 328 -68Q321 -60 320 -56L295 -26Q289 -5 274 0Q269 0 263 -1Q256 0 248 -8Q242 -14 239 -15Q237 -19 226 -23Q217 -27 216 -34Q210 -41 213 -59Q215 -72 213 -79Q216 -108 224 -137Q221 -150 226 -193Q227 -206 227 -219Q230 -229 222 -230Q214 -231 209 -226Q202 -226 194 -226L179 -224Q173 -217 153 -215Q141 -213 128 -209Q109 -215 89 -219Q72 -227 54 -235L96 -244Q112 -248 128 -252Q140 -252 149 -257Q153 -257 156 -261Q158 -265 159 -268Q194 -307 229 -346Q223 -351 217 -354Q210 -357 209 -364Q206 -368 204 -376Q201 -387 197 -391Q190 -398 188 -407Q186 -418 193 -422L211 -439Q216 -447 231 -460Q249 -476 254 -485Q260 -489 259 -494Q259 -497 253 -496Q249 -492 240 -492Q230 -491 227 -489Q224 -489 221 -487Q216 -483 211 -484Q200 -491 193 -501Q186 -511 177 -522Q160 -540 178 -562Q186 -581 195 -594Q200 -605 208 -616Q212 -626 218 -635Q223 -644 223 -656Q225 -661 219 -670Q215 -676 215 -680ZM637 -673Q647 -668 653 -672Q660 -667 679 -663Q694 -666 705 -650Q718 -629 715 -616Q710 -607 718 -595Q720 -591 718 -583Q715 -575 720 -573Q742 -582 763 -600Q765 -605 772 -605Q780 -605 782 -609Q782 -613 786 -612Q789 -612 790 -616Q793 -618 799 -615Q804 -612 807 -615Q811 -610 820 -612Q828 -614 831 -610Q848 -613 852 -600Q841 -579 838 -576Q834 -574 832 -564Q830 -555 828 -553Q825 -551 825 -543Q825 -535 821 -533Q811 -515 804 -492Q805 -490 803 -485Q802 -481 804 -477L800 -460Q801 -454 801 -447Q800 -439 804 -436Q807 -436 811 -433Q815 -430 819 -430Q831 -419 848 -414Q866 -406 870 -401Q877 -401 884 -395Q885 -394 889 -392Q892 -390 890 -386Q888 -370 874 -365Q867 -370 859 -359Q856 -363 849 -365Q841 -367 838 -373Q814 -387 790 -401Q777 -412 760 -418Q763 -423 760 -427Q758 -431 757 -435Q747 -450 750 -486Q753 -524 767 -557Q770 -563 766 -564Q761 -564 758 -558Q749 -555 739 -553Q730 -546 720 -546Q716 -538 719 -522Q722 -501 715 -492Q718 -474 714 -453Q717 -438 711 -431Q712 -429 712 -409Q702 -399 711 -382Q709 -347 710 -314Q711 -306 723 -308Q732 -309 735 -307Q760 -309 780 -293Q797 -280 793 -260Q796 -245 785 -231Q779 -233 776 -227Q773 -221 770 -215Q767 -209 757 -202Q747 -195 743 -190Q739 -183 729 -173Q722 -170 720 -164Q714 -156 706 -150Q699 -145 702 -137Q692 -128 700 -120Q700 -96 687 -95Q683 -88 668 -97Q666 -97 663 -102Q660 -108 657 -106Q656 -106 655 -106Q652 -103 650 -98Q649 -97 647 -100Q639 -96 635 -83Q631 -82 632 -80Q635 -76 641 -75Q672 -81 689 -82Q701 -84 708 -83Q713 -86 723 -86Q734 -85 739 -90Q758 -86 777 -83Q787 -82 797 -81Q807 -79 812 -70Q822 -70 822 -57Q824 -54 824 -53Q821 -53 814 -51Q809 -42 810 -38Q807 -35 801 -36Q795 -37 791 -34Q779 -37 767 -40Q754 -38 740 -39Q733 -36 728 -40L680 -32Q670 -35 641 -35Q620 -35 609 -42Q606 -48 596 -57Q584 -68 582 -75Q579 -81 583 -85Q587 -89 588 -95Q590 -104 595 -112Q600 -116 605 -125Q612 -137 615 -140Q628 -148 636 -157Q644 -160 645 -166Q646 -173 649 -178Q650 -191 651 -205Q653 -222 653 -259Q650 -264 640 -259Q633 -256 630 -257Q622 -253 612 -252Q603 -249 594 -249Q563 -249 534 -257Q535 -263 550 -266Q564 -269 577 -272Q591 -278 605 -285Q610 -284 616 -287Q621 -289 625 -288Q629 -291 641 -294Q652 -296 657 -301Q658 -311 658 -321Q661 -342 663 -363Q662 -393 661 -424Q663 -437 663 -503Q656 -508 643 -492Q638 -490 633 -483Q628 -476 624 -474Q606 -465 587 -445Q573 -434 556 -407Q554 -406 551 -400Q548 -394 544 -392Q542 -383 548 -368Q555 -351 551 -343Q536 -340 533 -344Q532 -339 528 -339Q525 -339 519 -343Q509 -352 500 -363Q496 -367 490 -366Q484 -365 483 -359Q474 -350 469 -346Q468 -349 463 -350Q457 -351 457 -354Q450 -355 448 -360Q445 -365 442 -369Q438 -381 438 -393L464 -447Q475 -463 484 -483Q485 -491 488 -501Q491 -511 488 -521Q487 -526 490 -526Q494 -527 497 -529Q502 -531 507 -527Q512 -523 517 -521Q523 -523 530 -515Q534 -510 538 -509Q538 -491 533 -476Q532 -472 532 -466V-457Q524 -446 521 -433Q517 -421 513 -410Q512 -407 509 -402Q506 -395 512 -394Q530 -413 546 -435Q605 -486 663 -538Q669 -547 665 -561Q666 -585 659 -609Q657 -623 655 -638Q654 -648 644 -653Q634 -658 628 -663Q625 -667 629 -669Q634 -670 637 -673ZM218 -300L207 -298Q205 -293 198 -290Q191 -287 189 -284Q188 -282 178 -276Q170 -271 173 -266Q199 -271 224 -277Q233 -276 237 -286Q241 -296 233 -301Q227 -302 218 -300ZM718 -277Q713 -273 707 -269Q711 -263 707 -252Q708 -250 708 -235Q709 -231 711 -232Q714 -237 718 -241Q724 -254 735 -265Q738 -273 731 -276Q726 -278 718 -277Z"/>
</svg>