<svg xmlns="http://www.w3.org/2000/svg" viewBox="0 -800 1024 1024">
	<path fill="#000000" d="M407 -136Q395 -118 398 -86Q402 -54 401 -46Q386 -19 367 -7Q362 -4 357 2Q347 14 342 15Q346 7 356 -7Q351 -11 345 -6Q339 -1 334 1Q332 1 310 21Q313 26 317 26Q324 25 331 23H333V24Q333 30 329 33Q325 36 318 41Q307 52 295 62Q275 79 262 79Q247 79 243 60Q231 60 224 50Q217 40 217 26Q217 -7 226 -19Q223 -26 223 -35Q223 -63 254 -77Q251 -69 248 -61V-56Q250 -56 263 -63Q262 -80 261 -98V-110Q261 -144 255 -149Q249 -143 249 -122V-111Q249 -88 241 -82Q238 -107 234 -132H228Q214 -122 172 -97Q147 -84 130 -99Q126 -124 115 -137L121 -158Q118 -165 106 -177Q95 -188 91 -197Q106 -189 121 -182L122 -184Q121 -187 119 -191V-193Q125 -190 128 -190Q146 -192 189 -213Q217 -227 231 -231Q231 -253 225 -262Q213 -254 188 -246Q181 -242 165 -237Q160 -235 155 -239Q136 -262 108 -262Q108 -276 119 -282Q118 -285 118 -292Q118 -309 132 -320Q144 -330 163 -334Q190 -352 192 -353Q224 -363 277 -385Q290 -387 314 -399Q334 -409 340 -411V-410Q341 -408 339 -408Q336 -408 336 -407L339 -406Q348 -409 356 -413H358Q349 -402 350 -393Q350 -390 354 -384Q358 -388 364 -389Q360 -385 360 -376Q361 -369 370 -354Q359 -337 362 -310Q358 -312 356 -311Q353 -311 350 -301Q338 -297 327 -295Q327 -300 334 -307Q339 -313 340 -319Q335 -323 328 -323Q321 -322 314 -315Q306 -309 299 -303Q290 -299 283 -295Q275 -291 274 -283Q279 -281 281 -282Q286 -285 304 -299Q302 -276 300 -254Q302 -255 369 -286Q385 -296 401 -297Q394 -290 387 -279Q396 -281 404 -284Q398 -275 392 -266Q399 -234 389 -207Q378 -191 355 -183Q346 -181 328 -175Q308 -168 303 -162Q294 -139 294 -80Q333 -104 378 -136Q388 -146 407 -154Q407 -151 397 -141Q388 -132 388 -131L389 -128L392 -127Q399 -135 407 -136ZM717 -496Q687 -494 656 -493Q569 -475 514 -439V-436Q511 -397 507 -359Q507 -329 524 -316Q589 -332 653 -349Q674 -383 685 -421Q674 -417 663 -417Q652 -417 647 -406Q654 -406 654 -399Q666 -403 667 -403Q670 -403 673 -400Q668 -398 663 -396Q657 -394 657 -387Q660 -380 667 -379Q659 -371 659 -367V-365H654Q638 -362 621 -360Q613 -360 605 -364Q596 -359 562 -327Q541 -340 531 -340Q526 -340 521 -337Q524 -343 526 -349Q515 -349 511 -353Q541 -374 549 -388Q542 -391 539 -397V-399Q539 -407 528 -416Q521 -421 521 -425Q527 -420 537 -420Q551 -421 565 -423Q571 -423 574 -422Q577 -428 585 -434Q597 -443 599 -451Q597 -453 595 -453Q590 -452 585 -451H583Q615 -486 659 -486Q669 -486 675 -485Q682 -481 688 -463Q692 -450 697 -445Q707 -470 717 -496ZM602 -139Q598 -134 598 -118Q598 -105 594 -99Q587 -92 578 -92Q566 -91 554 -106Q543 -120 543 -133Q543 -152 563 -152H565Q572 -151 582 -145Q591 -137 595 -135Q598 -135 602 -139ZM597 -191Q597 -174 592 -152Q586 -155 582 -162Q575 -159 567 -159Q547 -159 532 -177Q518 -194 512 -218Q518 -218 529 -227Q542 -238 555 -238Q559 -237 562 -237Q579 -222 585 -212Q590 -213 594 -215Q597 -203 597 -191ZM973 84Q968 99 962 113Q929 125 910 143Q907 139 896 134Q881 127 879 118Q880 114 888 114Q897 114 897 110Q890 98 870 98H865L863 101Q867 105 870 109L868 110L864 111Q859 111 836 98Q823 87 808 62Q789 36 789 23V20Q801 30 817 52Q838 81 853 90Q844 73 819 36Q788 -10 776 -37Q774 -33 774 -30Q777 -18 779 -7V-4Q768 -7 763 -24Q760 -33 758 -54Q752 -120 746 -187Q742 -210 738 -233V-238Q738 -252 749 -262Q760 -272 774 -272Q791 -273 805 -255Q818 -238 818 -221Q819 -208 812 -184Q806 -162 805 -151Q804 -144 804 -130Q804 -71 833 -36Q854 -12 864 -12L868 -13Q875 -26 880 -62Q883 -85 887 -97Q888 -92 888 -80Q888 -62 887 -44Q887 -23 894 -13Q898 -96 902 -180Q906 -157 906 -126Q906 -93 905 -61Q905 -18 912 5Q914 -11 914 -21Q914 -40 913 -60Q913 -77 916 -91Q921 -40 928 8Q929 8 930 3Q930 -1 933 -1H934V4Q934 63 973 84ZM931 -126Q931 -106 919 -102Q918 -105 918 -112Q918 -127 926 -127Q929 -127 931 -126ZM714 -687V-683Q710 -660 689 -654Q667 -648 647 -638Q667 -634 682 -625Q685 -625 685 -628Q686 -631 689 -631H690V-629Q695 -608 699 -587Q699 -574 690 -568Q687 -567 683 -567Q668 -567 645 -582Q625 -595 613 -597Q606 -596 599 -596Q594 -596 592 -597Q570 -606 570 -642Q570 -651 571 -655Q594 -663 611 -677Q628 -691 645 -704Q645 -708 644 -712Q644 -721 653 -729Q652 -735 650 -742V-746Q655 -740 678 -738Q693 -737 700 -733Q701 -726 707 -712Q714 -695 714 -687ZM873 -695V-692Q873 -685 868 -681Q863 -678 859 -673Q858 -675 858 -682Q858 -696 868 -696Q871 -696 873 -695ZM402 -506Q406 -499 410 -493Q412 -496 414 -499Q514 -503 556 -517Q547 -525 535 -530Q523 -536 517 -547Q527 -545 537 -543Q540 -543 542 -544V-545Q541 -552 535 -555Q528 -559 523 -562Q499 -574 458 -574Q461 -568 480 -564Q506 -558 506 -548Q478 -553 449 -558Q440 -558 436 -550Q428 -564 420 -578V-584Q420 -591 423 -597Q418 -605 418 -616Q418 -620 420 -626L456 -660Q463 -670 471 -680Q480 -690 492 -694Q489 -678 471 -658Q459 -644 455 -635Q495 -667 524 -715H523Q511 -712 498 -701V-705Q502 -719 511 -735Q510 -740 506 -741Q501 -743 500 -749H506Q505 -752 501 -754Q495 -757 495 -762V-763Q502 -759 510 -759Q535 -761 559 -763H561Q582 -761 590 -741Q597 -724 597 -694V-676Q572 -672 549 -656Q524 -639 515 -616Q529 -609 543 -603Q545 -603 545 -608Q545 -612 544 -617Q553 -599 563 -583Q573 -567 574 -541V-538Q570 -533 567 -526V-523Q570 -522 572 -522Q589 -525 605 -528Q605 -524 600 -521Q595 -518 595 -516Q602 -512 609 -512Q629 -515 645 -520Q687 -525 731 -541Q729 -546 718 -546Q710 -546 687 -541Q653 -529 623 -526H620Q622 -536 635 -540Q636 -540 656 -545Q688 -553 721 -561Q754 -570 777 -586Q755 -599 721 -601Q710 -616 710 -635Q710 -657 724 -679Q736 -698 753 -709V-708Q753 -701 744 -686Q737 -674 735 -664Q744 -668 750 -678Q756 -688 762 -697Q769 -703 776 -710Q784 -717 785 -727H784Q773 -722 762 -718Q763 -727 771 -736Q779 -745 780 -749Q778 -757 771 -763Q782 -773 792 -784Q800 -786 804 -786Q824 -786 840 -770Q856 -754 856 -736V-733Q856 -723 843 -713Q833 -705 830 -700Q810 -697 794 -684Q784 -676 768 -657Q799 -648 830 -643Q841 -648 844 -658Q849 -655 850 -647Q853 -658 856 -669Q862 -632 868 -595Q870 -592 871 -592Q872 -592 876 -594Q872 -586 868 -578Q872 -570 879 -565Q887 -560 893 -554Q897 -533 900 -513Q900 -506 899 -502Q882 -496 866 -490Q850 -484 839 -473Q834 -467 828 -456Q819 -439 811 -433V-438Q811 -453 821 -470Q828 -482 830 -490Q808 -483 785 -433Q760 -375 760 -357Q760 -352 762 -346Q775 -363 783 -387Q787 -397 793 -407Q799 -418 811 -421Q793 -383 780 -343V-332Q780 -324 779 -321Q772 -288 750 -270Q733 -256 694 -243Q710 -239 725 -235H728V-231Q728 -224 734 -210Q739 -199 739 -189Q739 -185 738 -181Q732 -176 725 -172Q708 -173 697 -186Q687 -198 687 -216Q687 -229 693 -241L669 -247Q661 -254 654 -264Q647 -274 635 -277H628Q586 -275 556 -262Q542 -255 524 -233Q503 -236 487 -237Q471 -238 460 -249Q455 -257 451 -267Q447 -277 434 -278Q440 -288 447 -296Q443 -318 438 -341Q446 -341 450 -326Q453 -314 459 -314L462 -315Q459 -350 458 -355Q454 -378 443 -387Q441 -386 441 -379V-366Q441 -354 435 -353Q425 -379 408 -395Q392 -411 390 -447Q390 -450 390 -453Q378 -449 366 -446Q358 -445 353 -451Q369 -457 382 -465Q370 -477 348 -474Q322 -466 296 -458Q282 -453 282 -438Q288 -435 293 -436Q306 -440 319 -444Q325 -445 328 -444Q322 -435 305 -429Q293 -424 288 -421Q248 -404 209 -385L198 -380Q164 -361 155 -355Q127 -337 121 -322Q111 -315 96 -320Q77 -328 70 -334Q62 -341 60 -372V-393Q60 -410 58 -418Q58 -422 57 -426Q57 -455 80 -470Q82 -474 98 -507Q101 -516 105 -526Q108 -536 119 -537Q111 -507 103 -478Q107 -472 111 -467Q126 -496 141 -525Q159 -559 170 -582Q172 -588 172 -592Q171 -609 161 -613H159Q149 -613 142 -588Q137 -568 131 -564Q127 -567 127 -576Q127 -593 138 -593Q137 -595 137 -598Q138 -604 138 -610V-612L135 -613Q128 -610 121 -608H120Q123 -612 127 -627Q131 -641 137 -648Q158 -681 164 -686Q168 -690 176 -701Q184 -713 191 -717Q211 -717 219 -714Q233 -697 261 -682Q292 -667 296 -634Q296 -626 295 -621Q294 -615 275 -588Q248 -550 248 -539Q261 -543 277 -550Q287 -552 303 -564Q317 -575 326 -577Q332 -576 338 -576L341 -577Q355 -579 380 -590Q370 -580 367 -565Q370 -562 375 -562Q387 -568 399 -574Q402 -574 404 -574Q403 -569 395 -563Q385 -555 386 -546L389 -544Q392 -547 399 -552Q402 -552 404 -550Q399 -541 394 -533Q397 -519 402 -506ZM399 15Q404 -6 408 -27Q417 -73 449 -93Q443 -77 443 -67Q443 -56 449 -52Q455 -54 460 -57Q455 -88 444 -114Q435 -128 425 -139Q415 -150 414 -165Q414 -175 419 -184Q408 -208 408 -222V-229Q417 -218 423 -205Q427 -208 427 -211Q424 -218 420 -226Q425 -225 430 -217Q434 -211 438 -209Q441 -210 441 -213Q439 -217 437 -222L438 -223Q441 -222 444 -218Q448 -213 452 -212Q464 -222 485 -222Q489 -222 499 -220Q511 -195 523 -171Q527 -158 531 -145Q528 -134 521 -124Q516 -107 516 -92Q516 -86 518 -74Q541 -82 559 -91Q561 -91 561 -87Q561 -84 559 -82Q573 -75 579 -67Q577 -61 577 -59Q577 -51 588 -42Q594 -44 614 -54Q615 -57 615 -60Q614 -71 613 -82Q613 -90 617 -91Q622 -91 622 -82Q622 -77 621 -72Q622 -69 622 -67Q631 -92 631 -137Q631 -151 629 -171Q625 -164 624 -145Q623 -118 614 -114Q612 -144 610 -175Q609 -206 599 -229Q609 -251 628 -264Q630 -265 634 -265Q650 -265 668 -242Q685 -220 685 -206V-204Q681 -182 669 -155Q656 -110 656 -87V-76Q671 -77 691 -89Q705 -97 715 -100Q703 -110 696 -110Q691 -110 687 -106L694 -117Q683 -126 683 -141Q683 -158 699 -162Q701 -163 713 -163H718Q725 -160 731 -157Q733 -157 738 -162Q737 -159 737 -154Q737 -147 743 -134Q749 -121 749 -112Q740 -98 730 -93H729Q723 -96 718 -100Q710 -94 710 -87Q710 -83 714 -80Q721 -83 731 -91V-89Q728 -77 725 -66Q725 -62 728 -58Q733 -59 738 -60H740Q727 -53 727 -29Q728 -20 728 -11Q684 -4 650 21Q641 29 633 41Q624 53 614 56H611Q599 55 593 45Q588 33 573 30Q571 26 571 23Q573 14 574 5Q574 -1 568 -4Q570 0 571 4L570 6Q549 10 537 23Q524 35 512 48Q512 44 508 44Q512 27 524 18Q536 9 547 -2Q520 1 501 20Q481 40 481 67Q486 66 492 61Q499 55 506 55Q499 69 494 87Q471 94 457 94Q438 94 428 81Q424 76 422 62Q420 50 417 45Q416 43 409 30Q404 23 399 15Z"/>
</svg>