<svg xmlns="http://www.w3.org/2000/svg" viewBox="0 -800 1024 1024">
	<path fill="#000000" d="M256 -723L264 -717Q277 -716 291 -706Q307 -703 321 -686Q321 -670 320 -654Q310 -628 307 -622Q302 -611 296 -601Q295 -595 291 -590Q288 -585 292 -580Q328 -585 359 -601Q367 -606 377 -600Q389 -600 403 -598Q409 -604 417 -595Q421 -593 423 -584Q425 -577 429 -574Q441 -568 438 -557Q426 -557 416 -549Q395 -544 374 -539Q371 -537 362 -537Q352 -537 348 -533Q330 -532 312 -532Q305 -536 290 -537Q279 -538 275 -539Q267 -541 258 -544Q247 -539 242 -532Q227 -505 206 -476Q200 -474 197 -468Q195 -463 192 -457Q191 -453 183 -448Q177 -444 175 -440Q173 -435 163 -428Q157 -424 153 -419Q147 -417 139 -406Q133 -398 129 -396Q122 -395 117 -389Q113 -383 107 -379Q104 -374 99 -374Q96 -374 97 -379Q99 -385 107 -396Q114 -405 116 -411Q139 -445 159 -477Q217 -562 247 -660Q247 -664 250 -673Q254 -683 251 -690Q251 -699 249 -709Q247 -718 256 -723ZM779 -633H785Q798 -631 810 -630Q815 -629 820 -628Q826 -627 828 -620Q824 -607 830 -603Q838 -600 833 -581Q832 -577 834 -571Q837 -563 834 -558Q829 -550 837 -540Q836 -532 836 -490Q834 -484 837 -477Q840 -471 846 -474Q853 -485 863 -477Q868 -476 877 -478Q887 -481 894 -479Q901 -482 905 -480Q910 -478 911 -469Q909 -464 915 -452Q907 -444 911 -438Q913 -429 895 -429Q872 -422 848 -419Q841 -416 844 -411Q846 -405 845 -400Q845 -352 844 -326Q843 -303 841 -280Q844 -275 842 -266Q840 -256 842 -252Q842 -238 841 -225Q841 -209 845 -192Q849 -188 846 -178Q844 -170 846 -165Q844 -147 847 -128Q848 -118 843 -108Q843 -91 841 -83Q842 -74 834 -62Q828 -57 828 -49Q829 -42 828 -35Q812 -26 804 -10Q801 -9 795 -14Q791 -18 787 -18Q770 -33 761 -45Q752 -63 749 -68Q744 -63 723 -60Q678 -64 660 -63Q644 -63 627 -63Q619 -63 610 -64Q601 -66 594 -61Q590 -61 583 -56Q574 -50 570 -52Q559 -67 547 -80Q538 -86 539 -94Q540 -103 538 -111Q535 -122 540 -133Q538 -140 543 -147Q547 -153 547 -156Q545 -163 549 -173Q553 -182 552 -187Q548 -200 557 -209Q556 -226 560 -241Q563 -251 563 -272Q565 -305 567 -339Q567 -354 566 -369Q563 -381 541 -376Q534 -371 517 -376Q509 -376 500 -377Q488 -375 481 -378Q496 -383 512 -390Q541 -402 559 -405Q566 -407 568 -414L567 -468Q566 -498 562 -523Q558 -537 540 -560Q536 -562 539 -568Q542 -575 547 -573Q554 -567 586 -551Q594 -547 603 -545Q612 -542 619 -534Q628 -531 627 -517Q626 -505 629 -501Q627 -486 621 -469Q623 -455 624 -442Q626 -434 622 -426Q622 -418 638 -421Q642 -422 646 -424L661 -429Q665 -430 668 -432Q688 -436 707 -441Q719 -446 748 -450Q753 -453 760 -451Q766 -449 771 -449Q775 -453 775 -466Q775 -474 777 -479Q776 -490 774 -502Q772 -532 771 -533Q771 -551 771 -570Q769 -575 770 -588Q771 -605 766 -612Q763 -617 759 -622Q755 -627 761 -632Q770 -631 779 -633ZM316 -456Q322 -457 336 -455Q339 -454 344 -455Q352 -457 356 -454Q364 -452 378 -434Q379 -423 365 -413Q362 -413 335 -405Q329 -405 322 -405Q316 -405 314 -399Q319 -391 328 -382Q332 -380 332 -371Q332 -363 336 -359Q344 -357 354 -360Q367 -364 382 -362Q392 -362 402 -362Q404 -361 410 -360Q417 -359 419 -355Q421 -348 427 -344Q432 -336 428 -331Q426 -322 417 -316Q404 -316 393 -312Q380 -312 349 -301Q329 -303 322 -285Q317 -277 317 -266Q317 -255 316 -244Q307 -238 309 -225Q310 -205 308 -182Q302 -170 304 -159Q305 -154 303 -146Q300 -135 302 -129Q302 -124 306 -125Q310 -126 313 -129Q339 -162 363 -187Q381 -215 399 -243Q400 -246 402 -250L411 -263Q413 -266 414 -270Q417 -276 419 -282Q421 -289 427 -292Q429 -281 423 -262Q416 -246 409 -231Q408 -221 403 -213Q403 -208 400 -202Q395 -193 397 -187Q396 -180 390 -169Q384 -153 373 -140Q372 -130 365 -121Q341 -85 337 -75Q329 -64 321 -53Q316 -52 312 -44Q309 -38 305 -36Q288 -40 274 -48Q272 -50 256 -62Q245 -70 242 -78Q239 -92 238 -104Q235 -118 240 -129Q243 -133 241 -141Q239 -148 241 -151Q240 -166 243 -184Q244 -186 244 -189L246 -200Q247 -202 247 -205Q250 -228 253 -252Q257 -258 253 -263Q249 -269 243 -264Q223 -262 204 -257Q188 -255 171 -253Q140 -251 127 -255Q101 -262 86 -272Q81 -275 83 -278Q85 -282 90 -280Q115 -285 140 -292Q166 -298 191 -304L247 -324Q259 -327 267 -334Q266 -347 268 -367Q270 -387 267 -396Q266 -401 262 -401Q257 -401 253 -401Q235 -404 219 -411Q214 -413 209 -415Q203 -417 205 -423Q213 -426 223 -425Q239 -434 258 -441Q263 -441 271 -448Q279 -454 284 -455Q289 -452 296 -452Q304 -452 316 -456ZM755 -411L743 -409Q736 -406 708 -404Q698 -400 688 -396Q678 -398 662 -393Q650 -390 642 -390Q627 -395 623 -381Q623 -365 623 -350Q628 -332 625 -313Q624 -304 623 -295Q620 -286 623 -274Q620 -266 629 -261Q641 -264 652 -268Q658 -271 668 -267Q677 -263 681 -263Q694 -266 725 -259Q734 -257 743 -251Q745 -243 741 -236Q736 -230 732 -223Q730 -217 725 -218Q720 -219 716 -219Q694 -226 679 -225Q665 -224 631 -231Q622 -233 622 -224Q620 -207 618 -190Q611 -175 616 -168Q609 -155 613 -148Q611 -126 604 -108Q603 -100 611 -100Q618 -100 624 -100Q646 -104 667 -108Q685 -109 702 -111Q716 -111 719 -112Q721 -112 722 -112L729 -109Q731 -109 732 -109Q735 -109 742 -102Q743 -98 750 -93Q754 -90 756 -87Q761 -88 765 -94Q766 -96 770 -105Q770 -120 774 -146Q777 -167 780 -188L779 -271Q779 -344 780 -380Q779 -388 779 -397Q780 -405 773 -411Q763 -414 755 -411Z"/>
</svg>