<svg xmlns="http://www.w3.org/2000/svg" viewBox="0 -800 1024 1024">
	<path fill="#000000" d="M541 -764L543 -763Q559 -756 577 -744Q580 -740 591 -739Q600 -738 605 -734Q620 -722 627 -721Q636 -712 644 -704Q652 -693 661 -688Q667 -671 658 -667Q652 -666 651 -661Q650 -657 650 -652Q630 -645 620 -638Q601 -627 594 -625Q589 -622 583 -621Q578 -620 574 -614Q572 -611 565 -607Q562 -605 552 -600Q549 -598 552 -595Q558 -591 562 -588Q571 -584 579 -573Q587 -562 596 -558Q610 -553 638 -535Q642 -531 681 -503L713 -477Q722 -474 728 -464Q729 -460 736 -458Q742 -457 744 -455Q745 -452 752 -450Q757 -449 759 -447Q762 -441 768 -442Q773 -442 779 -441Q790 -436 800 -432Q802 -429 810 -426Q818 -423 822 -417Q824 -410 826 -404Q817 -396 804 -395Q794 -399 783 -398Q762 -400 746 -406Q743 -410 740 -412Q736 -413 736 -408Q712 -424 698 -434Q699 -432 700 -430Q703 -427 704 -419Q705 -411 710 -408Q711 -395 712 -383Q707 -379 708 -370Q709 -361 707 -358Q704 -348 700 -342Q695 -337 693 -324Q688 -308 681 -296Q672 -292 669 -279Q667 -269 664 -266Q663 -265 646 -243Q645 -229 637 -219Q631 -217 625 -204Q610 -189 605 -179Q602 -178 598 -175Q595 -173 591 -178Q583 -181 577 -179Q569 -181 565 -187Q559 -185 553 -190Q542 -189 530 -188Q524 -190 521 -184Q518 -177 521 -172Q519 -165 521 -161Q523 -156 529 -158Q537 -158 544 -152Q551 -146 547 -138Q539 -136 530 -118Q528 -114 521 -108Q513 -100 512 -95Q515 -90 532 -90Q545 -89 557 -89Q566 -81 564 -66Q556 -56 543 -57Q534 -54 500 -52Q486 -52 471 -52Q464 -53 459 -54Q458 -55 460 -58Q460 -63 463 -68Q466 -73 460 -77Q458 -74 455 -81Q456 -84 454 -91Q451 -100 454 -104Q461 -109 457 -123Q460 -137 446 -138Q436 -142 432 -149Q445 -151 458 -154Q465 -155 466 -161Q467 -167 468 -172Q470 -178 465 -179Q457 -180 451 -178Q443 -176 435 -174Q424 -176 414 -176Q403 -176 395 -182Q391 -181 378 -187Q361 -194 349 -206Q331 -218 325 -237Q315 -239 310 -247Q305 -255 299 -262Q295 -289 297 -302Q300 -327 310 -347Q313 -356 316 -365Q318 -374 325 -380Q332 -399 345 -416Q352 -422 360 -431Q367 -441 377 -441Q378 -440 380 -436L389 -422Q391 -419 392 -417Q395 -398 391 -392Q392 -389 388 -386Q385 -384 385 -382Q377 -369 371 -352Q365 -335 362 -320Q363 -305 361 -293Q352 -268 357 -246Q364 -225 392 -205Q402 -205 430 -211Q456 -217 468 -217Q474 -218 474 -223Q474 -228 474 -234Q470 -249 472 -263Q474 -277 474 -291Q477 -305 477 -337Q478 -361 479 -385Q481 -390 476 -391Q469 -392 463 -394Q456 -393 446 -396Q436 -399 430 -399Q425 -402 418 -404Q412 -406 413 -414Q441 -419 466 -432Q484 -439 501 -446L551 -458Q560 -462 589 -466Q614 -470 628 -467Q634 -467 640 -467Q648 -465 656 -463Q658 -463 659 -463Q652 -467 645 -472Q609 -495 573 -519Q565 -528 528 -558Q514 -575 504 -571Q485 -568 471 -556Q460 -552 448 -548Q428 -550 407 -553Q396 -554 384 -555Q384 -563 398 -565Q425 -577 452 -593Q472 -605 491 -617Q486 -627 480 -638Q474 -656 465 -670L447 -699Q437 -713 427 -727Q420 -737 412 -747Q414 -752 419 -750Q423 -749 428 -749Q433 -753 444 -751Q453 -749 456 -750Q469 -751 481 -752Q485 -745 488 -739Q490 -732 492 -725Q492 -717 499 -711Q496 -703 504 -694Q502 -686 511 -675Q516 -661 520 -648Q523 -639 532 -643Q551 -656 572 -667Q576 -671 584 -675Q593 -679 596 -683Q595 -689 580 -701Q558 -713 547 -738Q532 -755 541 -764ZM308 -745Q311 -744 314 -740Q317 -737 321 -739Q326 -737 335 -736Q347 -735 352 -730Q361 -731 366 -725Q372 -719 373 -711Q375 -693 357 -689Q351 -682 337 -672Q322 -662 317 -655Q308 -648 297 -638Q292 -632 302 -627Q325 -624 330 -586Q337 -546 326 -492Q330 -476 324 -461Q332 -448 322 -439Q311 -429 297 -436Q273 -460 273 -481Q270 -501 271 -519Q275 -537 276 -550Q277 -565 279 -581Q281 -598 273 -611Q268 -611 260 -603Q254 -597 251 -596Q234 -578 225 -564Q211 -552 190 -531Q170 -521 167 -521Q161 -521 158 -527Q161 -535 173 -551Q183 -564 186 -571Q208 -603 239 -642Q255 -663 271 -682Q287 -702 297 -725Q290 -731 294 -734Q302 -737 308 -745ZM620 -438Q607 -436 593 -435Q577 -431 564 -424Q548 -421 534 -416Q526 -413 517 -411Q507 -409 499 -402Q506 -393 512 -384Q515 -371 518 -359Q518 -352 518 -345Q517 -338 524 -337Q527 -341 539 -341Q548 -341 552 -343Q574 -337 581 -337Q601 -337 603 -326Q600 -311 596 -297Q589 -291 584 -284Q579 -276 570 -275Q568 -271 564 -269Q560 -268 559 -266Q548 -260 538 -257Q535 -255 528 -254Q520 -253 516 -248Q513 -239 514 -232Q513 -225 518 -224Q525 -222 529 -226Q539 -226 548 -226Q554 -229 576 -238Q578 -243 586 -244Q594 -245 595 -251Q606 -260 614 -273Q621 -286 630 -298Q653 -347 658 -401Q660 -412 646 -426Q633 -442 620 -438ZM426 -329Q435 -323 437 -303Q441 -293 453 -300Q452 -292 451 -284Q454 -271 456 -259Q453 -254 452 -250Q450 -246 444 -246Q430 -262 416 -278Q411 -284 405 -291Q399 -298 401 -306Q402 -317 410 -320Q418 -324 426 -329ZM541 -321L524 -319Q515 -316 515 -290Q515 -277 515 -265Q516 -256 525 -271Q529 -292 542 -307Q545 -310 546 -316Q546 -322 541 -321ZM577 25Q570 26 568 21Q565 15 562 13Q563 7 556 -1Q551 -7 550 -11Q546 -16 549 -21Q551 -26 553 -31Q559 -35 561 -30Q563 -24 565 -21Q572 -19 577 -23Q582 -26 586 -27Q629 -50 681 -53H685Q697 -53 706 -54Q708 -54 710 -54L718 -53Q720 -53 722 -53Q730 -49 737 -45Q754 -41 765 -35Q772 -36 776 -30Q779 -25 777 -19Q781 11 764 23Q759 29 752 37Q752 44 741 46Q734 51 726 56Q721 55 715 61Q710 66 704 66Q700 62 694 66Q699 53 704 40Q712 25 720 9Q729 -4 725 -15Q710 -19 694 -23Q665 -19 636 -15Q613 -13 599 -2Q592 -2 590 4Q588 9 590 15Q582 30 577 25ZM361 -47Q364 -48 367 -44Q370 -32 382 -24Q382 -14 377 -11Q376 -7 372 -1Q368 4 367 8Q361 23 358 42Q362 45 359 50Q356 55 351 51Q341 39 335 40Q333 28 326 21Q326 17 320 12Q313 7 312 2Q311 -9 319 -17Q327 -25 335 -31Q344 -45 361 -47ZM448 -30Q454 -30 460 -24Q493 -17 492 13Q488 21 484 28Q483 31 481 30Q478 28 475 30Q471 25 463 20Q451 12 448 6Q443 -2 444 -12Q446 -22 448 -30Z"/>
</svg>