<svg xmlns="http://www.w3.org/2000/svg" viewBox="0 -800 1024 1024">
	<path fill="#000000" d="M409 -674L414 -673Q422 -672 427 -670Q438 -668 449 -667Q458 -666 465 -663Q470 -664 473 -656Q475 -650 480 -650Q487 -651 488 -648Q490 -644 490 -638Q490 -630 498 -630Q498 -621 487 -619Q479 -618 470 -618Q464 -615 452 -615Q436 -614 430 -608Q427 -610 425 -608Q422 -605 420 -604Q418 -599 410 -598Q404 -597 402 -595Q400 -590 396 -588Q391 -587 387 -587Q384 -581 374 -577Q365 -573 362 -569Q355 -565 347 -557Q336 -545 329 -543Q324 -547 316 -540Q313 -541 309 -537Q305 -533 302 -533Q307 -541 321 -552Q337 -565 343 -574Q351 -577 359 -589Q364 -593 361 -596Q354 -600 349 -597Q338 -593 326 -590Q311 -593 296 -590Q294 -592 291 -590Q288 -587 286 -588Q284 -585 275 -585Q270 -585 268 -584Q258 -582 248 -581Q238 -583 224 -579Q218 -575 211 -575Q205 -579 200 -574Q181 -573 144 -584Q124 -596 106 -603Q102 -606 103 -608Q109 -611 113 -614Q148 -619 183 -624Q234 -629 284 -638Q305 -643 325 -648Q341 -651 356 -652Q363 -656 369 -655Q377 -656 384 -660Q393 -660 409 -674ZM650 -554Q669 -543 685 -543Q701 -542 710 -531Q719 -525 718 -514Q717 -503 707 -501Q706 -492 695 -492Q689 -480 677 -468Q676 -463 673 -460Q669 -457 666 -454Q663 -444 646 -429Q644 -426 638 -422Q630 -417 629 -411Q623 -403 617 -395Q616 -391 612 -387Q608 -383 613 -378Q631 -382 650 -380Q669 -378 689 -378Q702 -373 716 -369Q730 -365 739 -352Q744 -345 742 -337Q740 -330 739 -320Q741 -310 733 -302Q729 -301 727 -293Q726 -289 724 -288Q719 -284 714 -275Q706 -262 699 -259Q698 -255 692 -249Q686 -243 685 -237Q680 -236 677 -230Q675 -225 673 -224Q658 -218 652 -207Q647 -204 649 -202Q656 -198 662 -193Q669 -197 683 -188Q707 -189 727 -171Q734 -170 738 -166Q741 -161 745 -159Q752 -150 758 -142Q765 -134 765 -121Q763 -113 767 -100Q763 -95 765 -85Q766 -77 765 -74Q764 -70 760 -66Q756 -62 760 -58Q751 -50 750 -34Q743 -31 741 -18Q733 -13 724 1Q717 12 713 16Q705 20 697 24Q694 26 687 20Q680 14 676 18Q667 22 663 17Q663 16 665 16Q695 -18 702 -60Q711 -81 712 -106Q705 -136 696 -144Q677 -158 655 -158Q642 -158 627 -153Q614 -155 598 -149Q590 -143 581 -146Q572 -147 569 -156Q566 -166 564 -175Q558 -177 559 -180Q564 -185 566 -189Q564 -194 568 -195Q572 -197 575 -200Q581 -206 590 -213Q599 -219 597 -229Q614 -248 617 -258Q637 -284 652 -316Q655 -322 659 -331Q663 -339 657 -346Q633 -343 629 -341Q620 -342 606 -334Q595 -332 590 -324Q586 -328 582 -328Q573 -325 564 -320Q557 -321 556 -317Q555 -314 552 -315Q542 -326 537 -342Q534 -345 535 -354Q536 -363 532 -366Q540 -377 547 -388Q551 -397 554 -407Q572 -417 590 -454Q593 -459 599 -465Q604 -471 606 -479Q617 -500 627 -522Q634 -531 632 -545Q636 -546 642 -547Q648 -548 650 -554ZM330 -516H332Q347 -507 361 -499Q367 -489 366 -480Q368 -477 366 -469Q364 -460 368 -455Q381 -455 392 -451Q405 -457 410 -451Q411 -447 413 -448Q416 -452 421 -450Q427 -452 429 -447Q431 -443 434 -440Q436 -442 440 -438Q443 -434 446 -437Q450 -435 455 -428Q460 -421 464 -418Q470 -405 475 -393Q469 -389 478 -380Q480 -368 481 -356Q488 -349 487 -340Q486 -330 488 -321Q486 -319 487 -312Q488 -304 483 -302Q484 -300 484 -279Q484 -266 484 -253Q482 -224 478 -198Q475 -194 474 -182Q474 -174 471 -169Q467 -166 465 -155Q464 -146 461 -143Q458 -126 455 -123Q454 -115 445 -104Q437 -94 435 -88Q431 -82 426 -87Q421 -92 416 -95Q415 -98 410 -102Q403 -108 402 -114Q404 -126 394 -127Q384 -126 373 -125Q362 -127 344 -123Q343 -124 338 -124L335 -122Q331 -122 329 -123Q326 -127 320 -124Q315 -121 312 -121Q309 -124 304 -122Q299 -120 296 -121Q294 -124 292 -122Q290 -120 288 -120Q285 -118 279 -121Q272 -125 269 -120Q262 -118 254 -117Q251 -121 249 -119Q246 -117 244 -116Q236 -118 229 -115Q213 -111 195 -117Q190 -117 185 -121Q179 -126 175 -126Q171 -121 161 -129Q153 -135 149 -133Q138 -135 127 -148Q121 -149 122 -157Q123 -164 118 -167Q114 -167 114 -169Q114 -173 115 -178Q116 -183 111 -184Q106 -211 108 -229Q117 -281 123 -298Q132 -327 141 -357Q155 -403 182 -430Q202 -417 197 -403Q197 -393 197 -383Q195 -364 184 -349Q185 -330 175 -313Q168 -301 171 -287Q167 -282 168 -272Q169 -263 168 -260Q162 -252 161 -243Q167 -231 159 -214Q161 -210 161 -203Q160 -191 167 -188Q175 -184 179 -168Q182 -156 185 -152Q191 -149 195 -145Q200 -141 206 -143Q207 -139 212 -140Q215 -141 217 -144Q245 -149 255 -147Q266 -151 277 -150Q286 -152 291 -152Q310 -156 329 -160Q334 -158 350 -163Q355 -162 382 -167Q397 -166 412 -165Q419 -167 419 -173Q418 -180 421 -185Q423 -197 423 -207Q427 -229 430 -252Q430 -275 430 -299Q434 -307 433 -316Q432 -337 430 -358Q424 -399 411 -413Q410 -417 405 -417Q400 -417 399 -419Q391 -418 382 -418Q375 -416 368 -413Q361 -411 362 -402Q360 -395 358 -377Q359 -369 359 -361Q358 -353 365 -348Q377 -352 388 -347Q395 -343 401 -339Q403 -342 404 -341Q406 -338 408 -335Q417 -339 423 -323Q431 -315 424 -307Q415 -300 406 -303Q399 -304 389 -300Q385 -304 379 -299Q373 -294 369 -295Q364 -290 355 -286Q342 -280 337 -275Q335 -270 332 -269Q330 -268 327 -271Q330 -279 342 -289Q356 -301 358 -311Q354 -312 344 -322Q345 -327 343 -331Q342 -331 340 -328Q334 -331 328 -345Q327 -352 325 -358Q320 -375 323 -396Q323 -402 317 -402Q309 -400 300 -398Q295 -395 291 -392Q286 -390 285 -384Q279 -381 278 -370Q277 -359 272 -355Q268 -339 264 -323Q263 -316 254 -313Q253 -307 246 -299Q236 -288 238 -280Q235 -276 230 -281Q225 -286 224 -291Q224 -293 227 -313Q233 -319 237 -339Q239 -349 243 -357Q246 -370 246 -382Q227 -385 207 -389Q205 -390 205 -391Q210 -393 216 -396Q232 -405 248 -415Q266 -422 257 -450Q253 -465 243 -476Q237 -479 241 -487Q245 -495 251 -494Q270 -492 287 -486Q297 -485 300 -474Q302 -464 298 -454Q294 -450 295 -443Q295 -436 303 -438Q318 -441 330 -450Q332 -472 331 -494Q331 -512 330 -516ZM866 -290H893Q900 -288 909 -287Q915 -286 923 -282Q933 -277 938 -277Q944 -274 950 -270Q956 -266 957 -258Q953 -249 966 -236Q968 -232 963 -230Q955 -227 954 -226Q948 -220 938 -218Q922 -218 909 -224Q870 -238 832 -255Q808 -269 785 -272Q783 -274 777 -276Q772 -278 772 -280Q778 -281 794 -281Q819 -288 829 -286ZM315 -255Q326 -253 336 -251Q333 -240 342 -234L340 -223Q310 -218 300 -220Q273 -225 245 -233Q252 -237 263 -236Q264 -241 269 -243Q271 -244 280 -246Q291 -251 315 -255Z"/>
</svg>