<svg xmlns="http://www.w3.org/2000/svg" viewBox="0 -800 1024 1024">
	<path fill="#000000" d="M214 -709Q222 -709 226 -705L250 -700Q278 -682 267 -666Q267 -663 266 -662V-653Q265 -652 265 -649Q259 -647 258 -637Q257 -631 255 -629Q255 -619 251 -612Q247 -606 245 -599Q245 -596 241 -591Q236 -585 239 -582Q251 -580 265 -586Q271 -587 288 -594Q302 -597 315 -598Q322 -602 331 -603Q342 -604 352 -603Q362 -603 369 -595Q377 -581 375 -571Q375 -557 368 -546Q366 -544 347 -530Q339 -527 330 -523Q327 -522 323 -518Q316 -511 311 -512Q300 -503 288 -495Q280 -485 263 -475Q255 -465 255 -456Q259 -453 262 -456Q265 -459 267 -459Q271 -457 274 -460Q276 -463 279 -464Q282 -463 289 -465Q297 -467 302 -465Q309 -459 316 -461Q317 -458 321 -459Q325 -460 327 -458Q333 -460 343 -455Q350 -452 354 -452Q366 -442 361 -417Q356 -419 345 -411Q342 -409 335 -408Q326 -407 323 -403Q320 -400 313 -400Q309 -400 307 -399Q290 -397 291 -388Q305 -378 297 -364Q294 -360 298 -358Q302 -357 306 -359Q315 -359 313 -367Q312 -373 307 -379Q318 -375 328 -372Q334 -372 337 -375Q340 -375 347 -372Q355 -368 361 -369Q366 -372 382 -367Q388 -357 390 -345Q386 -334 374 -330Q363 -327 352 -325Q340 -322 325 -319Q318 -316 309 -317Q296 -312 285 -305Q283 -298 278 -291Q272 -284 277 -276Q281 -265 279 -250V-239Q279 -236 279 -234Q274 -223 275 -200Q276 -180 273 -171Q264 -160 274 -153Q282 -162 294 -172Q315 -190 322 -200Q359 -246 375 -276Q381 -283 384 -290Q385 -290 386 -288Q371 -250 369 -245Q365 -241 362 -229Q360 -220 357 -215Q357 -206 347 -200Q347 -185 340 -174Q343 -169 330 -156Q330 -150 321 -140Q315 -133 314 -129L290 -101Q284 -82 270 -77Q265 -77 259 -78Q253 -77 246 -84Q241 -89 237 -90Q235 -94 225 -98Q216 -101 215 -108Q209 -114 212 -131Q214 -144 212 -150Q215 -178 223 -204Q220 -216 225 -256Q226 -268 226 -280Q228 -289 220 -290Q213 -291 208 -287Q203 -288 180 -285Q174 -278 155 -276Q142 -275 131 -271Q113 -275 94 -280Q78 -287 61 -295L101 -304Q116 -307 131 -311Q142 -311 151 -316Q155 -315 161 -325Q194 -361 227 -398Q222 -403 216 -406Q209 -409 208 -415Q205 -419 203 -426Q200 -436 196 -440Q190 -446 188 -455Q186 -465 193 -469L210 -485Q215 -492 231 -506Q246 -519 251 -528Q256 -531 256 -536Q255 -539 250 -538Q246 -534 238 -534Q228 -533 226 -531Q223 -531 220 -529Q215 -526 210 -527Q200 -533 193 -542Q187 -551 178 -562Q161 -579 179 -599Q184 -614 195 -629Q200 -639 207 -649Q211 -658 217 -667Q222 -675 222 -686Q224 -691 218 -699Q215 -704 214 -709ZM657 -690Q663 -689 669 -685Q675 -681 682 -685Q690 -688 708 -684Q724 -675 739 -666Q747 -661 744 -651Q740 -647 735 -639Q728 -627 722 -624Q711 -614 702 -603Q693 -594 684 -585Q679 -576 674 -568Q673 -555 678 -543Q678 -541 678 -539L681 -532Q681 -530 681 -528Q673 -519 660 -517Q646 -519 632 -522Q621 -524 614 -533Q606 -542 598 -548Q587 -549 577 -548Q568 -547 562 -538Q558 -525 557 -515Q552 -508 552 -496Q551 -484 545 -460Q542 -445 539 -431Q542 -426 537 -417Q534 -411 534 -407Q534 -400 534 -394Q527 -387 527 -377Q527 -367 525 -358Q522 -354 521 -340Q520 -329 516 -323Q514 -318 510 -312Q506 -307 512 -302Q522 -304 539 -315Q554 -324 561 -327Q611 -347 660 -368Q669 -373 667 -388Q667 -392 666 -397Q666 -404 663 -409Q659 -415 653 -414Q648 -417 651 -420Q653 -424 658 -422Q664 -425 678 -427Q689 -424 700 -419Q703 -415 709 -412Q714 -408 713 -402Q712 -396 720 -394Q741 -404 764 -412Q776 -416 788 -424Q803 -425 818 -426Q842 -426 845 -425Q854 -428 865 -425Q872 -415 862 -403Q861 -394 849 -386Q846 -383 839 -384Q833 -385 831 -384Q827 -379 817 -376Q809 -373 806 -371Q804 -369 798 -369Q790 -369 788 -364Q784 -358 769 -361Q755 -358 746 -350Q744 -344 735 -345Q727 -345 725 -342Q715 -335 713 -324Q710 -312 706 -302Q706 -298 702 -292Q697 -285 698 -280Q684 -264 681 -252Q681 -248 678 -241Q674 -232 676 -227Q688 -226 700 -232Q718 -242 739 -246Q746 -251 756 -250Q759 -253 770 -255Q782 -263 797 -264Q814 -269 833 -269Q862 -268 887 -256Q897 -243 899 -224Q905 -218 895 -196Q895 -191 888 -182Q883 -176 882 -171Q881 -165 873 -157Q866 -150 865 -147Q864 -142 858 -141Q851 -140 850 -136Q849 -126 841 -117Q839 -113 832 -113Q825 -114 823 -109Q823 -100 810 -94Q807 -90 802 -87Q794 -81 792 -77Q794 -72 800 -73Q805 -74 810 -73Q832 -71 842 -66Q843 -63 849 -60Q854 -57 856 -54Q854 -47 855 -39Q855 -31 849 -26Q838 -24 829 -26Q817 -28 804 -30Q802 -30 766 -33Q753 -33 740 -33Q726 -33 711 -34Q698 -34 684 -34Q662 -32 651 -43Q645 -46 638 -40Q632 -35 628 -36Q616 -45 603 -49Q601 -53 594 -56Q590 -57 588 -60Q584 -68 580 -76Q579 -95 584 -110Q589 -122 587 -136Q592 -141 593 -154Q594 -166 598 -170Q599 -178 609 -190Q617 -215 633 -238Q646 -257 660 -299Q660 -304 663 -310Q666 -315 660 -318Q656 -318 637 -312Q619 -306 600 -300Q597 -298 593 -297L579 -291Q576 -289 572 -288Q556 -277 542 -277Q528 -275 516 -278Q506 -280 499 -272Q493 -265 494 -254Q491 -236 487 -219Q487 -206 480 -190Q477 -170 464 -150Q463 -140 451 -110Q439 -100 436 -80Q426 -64 416 -48Q403 -36 393 -25Q381 -33 377 -44Q376 -49 364 -61Q364 -68 364 -76Q360 -82 368 -90Q382 -106 389 -124Q391 -129 393 -135L402 -157Q404 -162 406 -168Q413 -192 424 -247Q427 -262 432 -275Q440 -280 440 -288Q440 -297 439 -305Q447 -319 452 -325Q462 -366 465 -373Q465 -388 473 -401Q472 -416 479 -427Q482 -445 487 -461Q492 -486 496 -512Q509 -581 523 -624Q527 -636 530 -649Q531 -653 529 -658Q526 -665 533 -667Q544 -660 554 -654Q556 -648 564 -646Q578 -656 584 -655Q604 -668 620 -674Q639 -682 657 -690ZM586 -614Q584 -614 581 -609Q581 -600 572 -587Q570 -575 571 -564Q575 -562 583 -566Q589 -569 592 -569Q602 -569 611 -574Q624 -579 626 -589Q628 -598 630 -608Q631 -613 628 -614Q625 -615 621 -613Q614 -612 607 -611Q597 -612 586 -614ZM217 -356L206 -354Q204 -349 197 -346Q191 -343 189 -341Q188 -339 178 -333Q171 -329 174 -324Q217 -332 223 -334Q231 -334 234 -342Q238 -351 231 -357Q224 -356 217 -356ZM808 -220Q800 -219 786 -215Q778 -216 766 -211Q755 -207 749 -207Q742 -209 732 -203Q710 -199 688 -195Q677 -197 669 -196Q662 -195 660 -189Q659 -183 656 -178Q646 -163 644 -144Q636 -136 641 -122Q637 -106 638 -87Q639 -81 637 -74Q635 -68 642 -64Q656 -66 670 -68Q696 -70 707 -73Q727 -73 746 -77Q757 -77 759 -97Q774 -109 775 -115Q807 -161 821 -208Q825 -215 819 -219Q813 -223 808 -220Z"/>
</svg>