<svg xmlns="http://www.w3.org/2000/svg" viewBox="0 -800 1024 1024">
	<path fill="#000000" d="M635 -745Q640 -747 644 -743Q648 -741 658 -741Q671 -741 675 -739Q698 -732 698 -714Q697 -702 699 -688Q700 -679 691 -657Q689 -646 693 -636Q707 -638 721 -640Q732 -648 744 -643Q748 -638 754 -640Q759 -643 766 -643Q774 -642 782 -643Q799 -648 817 -632Q821 -626 817 -620Q813 -614 812 -607Q809 -605 804 -605Q796 -605 794 -600Q789 -590 779 -596Q768 -594 757 -592Q748 -590 739 -589Q738 -589 716 -586Q711 -587 705 -585Q698 -583 695 -584Q687 -586 682 -580Q679 -576 678 -567Q676 -563 675 -560L670 -547Q669 -543 667 -540Q668 -536 663 -529Q657 -520 662 -515Q670 -515 682 -508Q688 -504 683 -488Q671 -479 654 -479Q631 -478 611 -472Q605 -473 594 -470Q585 -467 580 -469Q570 -476 557 -463Q548 -456 540 -456Q539 -463 528 -475Q519 -485 518 -492Q510 -506 510 -522Q508 -525 510 -534Q511 -539 510 -543Q508 -549 501 -548Q496 -547 494 -550Q467 -554 452 -561Q436 -566 423 -575Q425 -578 438 -578Q458 -581 477 -585Q492 -588 506 -591Q517 -591 521 -602Q521 -603 524 -631Q529 -653 533 -676Q533 -680 535 -680Q538 -680 540 -678Q549 -675 557 -666Q566 -657 569 -644Q571 -641 569 -635Q567 -628 568 -625Q570 -621 570 -615Q570 -609 575 -606Q600 -612 624 -618Q633 -622 633 -632Q633 -643 636 -651Q638 -690 640 -730Q638 -734 635 -738Q631 -742 635 -745ZM204 -581Q207 -583 211 -579Q220 -575 230 -574Q241 -573 248 -564Q251 -550 251 -546Q252 -535 246 -529Q242 -512 231 -495Q226 -484 221 -473Q220 -460 208 -447Q206 -441 212 -440Q230 -451 255 -462Q278 -471 304 -475Q313 -476 322 -478Q332 -481 341 -484Q344 -484 348 -480Q360 -476 384 -464Q392 -463 393 -456Q395 -449 399 -443Q409 -437 402 -424Q402 -409 394 -406Q388 -407 386 -403Q385 -398 383 -394Q380 -391 374 -390Q367 -389 365 -386Q358 -377 352 -375Q345 -375 341 -371Q336 -367 331 -365Q315 -358 301 -349Q289 -338 272 -328Q265 -323 257 -320Q248 -317 249 -307Q246 -284 249 -268Q247 -251 245 -234Q240 -227 244 -209Q245 -201 239 -185Q241 -153 241 -134Q239 -129 243 -124Q247 -119 251 -124Q261 -143 273 -157Q276 -165 286 -179Q298 -196 301 -206Q310 -219 310 -224Q310 -219 310 -214Q307 -207 307 -197Q302 -185 300 -166Q303 -159 297 -142Q288 -134 293 -122Q286 -107 279 -92Q274 -81 265 -70Q261 -63 257 -55Q252 -47 243 -46Q242 -47 227 -53Q219 -55 208 -67Q198 -77 192 -79Q181 -99 184 -123Q184 -131 187 -139Q188 -161 191 -181Q195 -201 195 -211Q199 -264 210 -312Q215 -326 223 -338Q233 -339 241 -353Q242 -358 251 -358Q258 -358 261 -361Q282 -377 300 -399Q301 -407 309 -417Q315 -425 316 -428Q318 -433 316 -439Q314 -443 310 -440Q282 -426 253 -412Q237 -408 230 -403Q219 -397 205 -394Q195 -391 188 -384Q185 -379 180 -374Q175 -369 175 -362Q176 -356 166 -346Q162 -337 158 -329Q157 -326 151 -324Q145 -322 144 -318Q138 -312 134 -322Q129 -348 133 -355Q136 -361 127 -370Q121 -376 121 -381Q122 -385 118 -392Q114 -398 116 -402Q118 -405 124 -408Q130 -410 127 -416Q122 -422 135 -430Q156 -481 183 -527Q190 -544 202 -556Q206 -561 204 -569Q202 -578 204 -581ZM609 -569Q593 -566 577 -563Q566 -558 568 -547Q569 -535 566 -525Q566 -519 565 -513Q564 -507 569 -503Q578 -508 583 -506Q590 -508 598 -509Q607 -509 606 -519Q608 -524 609 -530L616 -551Q618 -556 619 -561Q621 -565 617 -569Q613 -573 609 -569ZM539 -444Q541 -444 543 -440Q545 -436 548 -434Q553 -432 551 -428Q545 -423 541 -418Q537 -412 530 -408Q524 -404 523 -396Q526 -391 524 -378Q519 -370 538 -370Q551 -378 579 -386Q583 -387 587 -389L602 -392Q608 -394 610 -395Q614 -396 619 -407Q618 -413 617 -420Q618 -423 614 -427Q610 -431 612 -433Q620 -433 629 -432Q638 -431 646 -426Q651 -426 657 -420Q666 -412 673 -414Q718 -427 727 -427Q743 -429 758 -432Q770 -433 782 -432Q799 -436 820 -429Q828 -428 836 -427Q853 -419 868 -406Q868 -403 873 -398Q879 -392 880 -389Q876 -384 882 -376Q889 -368 887 -363Q881 -357 881 -348Q881 -340 879 -332Q873 -325 869 -315Q855 -313 858 -301Q856 -298 850 -295Q842 -292 841 -286Q830 -278 823 -265Q813 -265 809 -251Q800 -247 794 -239Q787 -231 780 -225Q768 -216 757 -205Q744 -206 730 -207Q718 -212 706 -212Q692 -212 677 -207Q670 -208 668 -199Q667 -192 670 -186Q669 -174 685 -172Q694 -175 704 -161Q712 -159 711 -150Q710 -141 701 -140Q686 -134 669 -134Q666 -120 666 -104Q663 -96 681 -96Q690 -96 694 -94Q701 -91 698 -84Q699 -74 685 -69Q679 -61 666 -68Q659 -68 659 -60Q664 -45 656 -31Q656 -26 659 -26Q665 -25 672 -26Q689 -25 706 -24Q710 -24 714 -24L719 -23Q723 -23 727 -23Q747 -21 756 -18Q777 -18 775 -6Q773 0 770 5Q763 13 753 16L686 15Q665 15 644 14Q640 12 632 14Q626 15 623 14Q616 7 599 17Q597 18 584 18Q579 16 575 18Q570 21 566 22Q564 21 557 10Q551 0 558 -8Q564 -16 569 -23Q582 -41 597 -57Q601 -61 606 -66Q611 -71 607 -77Q594 -77 576 -79Q571 -78 568 -80Q563 -83 567 -87Q579 -91 591 -99Q594 -102 601 -106Q611 -111 612 -117Q612 -123 607 -124Q602 -125 598 -121Q585 -125 571 -124Q559 -125 547 -127Q539 -130 548 -134Q558 -138 580 -146Q589 -151 599 -153Q608 -156 614 -165Q612 -179 614 -193Q614 -199 609 -200Q604 -202 600 -202Q593 -202 585 -202Q570 -197 553 -199Q548 -195 539 -195Q533 -194 521 -199Q510 -205 498 -211Q495 -214 485 -217Q477 -219 474 -223Q464 -219 462 -227Q460 -232 455 -231Q451 -230 447 -230Q439 -241 431 -253Q424 -271 422 -287Q430 -311 433 -323Q444 -342 457 -358Q469 -381 505 -415Q514 -424 525 -432Q529 -433 533 -438Q537 -443 539 -444ZM788 -383H775Q735 -383 719 -378Q717 -377 714 -377L703 -375Q684 -373 679 -364Q681 -349 678 -335Q674 -330 674 -318Q674 -306 671 -301Q669 -278 667 -255Q665 -249 668 -246Q671 -242 677 -244Q695 -246 713 -248Q716 -249 719 -250L732 -252Q735 -253 738 -254Q742 -256 744 -265Q745 -273 751 -273Q755 -271 759 -274Q763 -277 762 -282Q760 -289 766 -290Q775 -292 776 -294Q778 -301 788 -313Q793 -326 800 -339Q807 -351 809 -366Q811 -376 803 -382Q796 -387 788 -383ZM516 -372Q512 -372 512 -370Q511 -367 510 -365Q510 -350 501 -336Q496 -330 494 -313Q493 -301 490 -295Q487 -286 487 -275Q484 -261 489 -248Q500 -239 505 -231Q517 -219 532 -225Q548 -225 568 -230Q577 -234 588 -234Q599 -236 609 -238Q617 -242 617 -251Q616 -260 617 -268Q616 -279 621 -324Q619 -328 619 -336Q619 -348 614 -351Q606 -349 597 -348Q585 -348 573 -348Q559 -348 548 -351Q535 -356 524 -364Q524 -369 522 -371Q519 -374 516 -372Z"/>
</svg>