<svg xmlns="http://www.w3.org/2000/svg" viewBox="0 -800 1024 1024">
	<path fill="#000000" d="M622 -708H624Q630 -710 633 -702Q635 -697 637 -697Q637 -699 638 -699Q639 -699 646 -695Q649 -691 655 -690Q661 -689 664 -689Q669 -690 671 -685Q673 -681 676 -680Q686 -675 684 -661Q682 -647 670 -647Q663 -642 655 -643Q648 -643 635 -633Q627 -633 621 -629Q615 -625 608 -622Q605 -616 595 -610Q586 -605 584 -603Q580 -602 576 -598Q572 -594 568 -600Q569 -618 581 -634Q586 -636 591 -647Q595 -655 600 -659Q607 -671 607 -686Q598 -692 609 -703Q610 -707 613 -706Q620 -702 622 -708ZM282 -642Q313 -642 334 -631Q342 -632 346 -625Q349 -619 354 -613Q357 -600 357 -588Q353 -573 360 -538Q364 -516 368 -495Q372 -488 372 -479Q372 -476 378 -474Q385 -470 381 -467Q376 -465 376 -462Q377 -460 380 -457Q387 -451 383 -444Q389 -438 388 -428Q399 -406 409 -385Q407 -374 413 -368Q420 -361 423 -353Q425 -350 425 -343Q425 -333 430 -332Q435 -318 443 -306Q452 -276 470 -251Q472 -250 472 -247Q471 -241 472 -238Q473 -237 475 -238Q489 -218 496 -195Q500 -192 502 -181Q520 -172 525 -154Q517 -150 520 -135Q522 -124 518 -120Q511 -123 505 -121Q500 -127 486 -135Q475 -141 470 -147Q469 -149 445 -182Q440 -188 436 -200Q432 -213 427 -219Q411 -254 394 -290Q387 -311 380 -333Q366 -369 363 -380Q359 -386 355 -399Q349 -416 344 -423Q314 -418 286 -407Q282 -405 274 -403Q263 -401 260 -397Q267 -388 267 -365Q262 -362 265 -355Q268 -348 265 -344Q267 -339 267 -335Q267 -330 272 -327Q278 -330 301 -336Q304 -339 316 -341Q323 -342 328 -344Q331 -342 337 -345Q346 -349 350 -345Q354 -336 362 -328Q364 -321 359 -317Q353 -313 346 -310Q342 -306 328 -305Q316 -304 311 -301Q307 -303 293 -301Q284 -300 278 -301Q271 -304 269 -298Q267 -293 264 -288Q266 -267 267 -246Q264 -241 265 -235Q266 -229 272 -230L298 -238Q313 -245 329 -251Q345 -257 364 -256Q368 -258 372 -252Q375 -248 377 -247Q383 -248 387 -243Q390 -239 390 -234Q387 -226 367 -216Q360 -211 353 -207Q342 -208 332 -200Q327 -202 316 -194L276 -177Q267 -177 254 -171Q243 -166 236 -165Q232 -163 213 -158Q210 -155 202 -154Q196 -153 193 -150Q178 -146 163 -142Q149 -138 138 -145Q128 -152 118 -160Q111 -169 103 -178Q94 -191 97 -204Q104 -233 109 -238Q115 -259 126 -275Q132 -283 138 -292Q140 -294 141 -300Q143 -307 146 -309Q153 -303 164 -303Q170 -300 168 -288Q167 -279 168 -276Q165 -273 166 -267Q167 -259 164 -256Q153 -227 153 -219Q156 -215 153 -207Q150 -200 152 -197Q164 -195 178 -197Q184 -200 194 -202Q211 -206 217 -211Q217 -219 225 -264Q227 -272 228 -280Q229 -289 229 -298L232 -335Q233 -344 233 -353Q233 -362 234 -373Q234 -383 229 -391Q200 -386 170 -381Q165 -377 148 -375Q143 -370 133 -370Q124 -370 114 -375Q103 -384 91 -387Q79 -391 68 -393Q72 -393 108 -401Q164 -421 209 -431Q230 -437 250 -444Q267 -450 284 -456Q290 -456 302 -463Q313 -469 320 -469Q329 -467 331 -474Q333 -480 328 -486Q325 -511 318 -530Q315 -536 312 -534Q309 -530 303 -529Q294 -522 280 -519Q266 -519 252 -519Q244 -515 226 -519Q215 -521 207 -521Q194 -523 180 -525Q175 -524 174 -525Q173 -527 178 -529Q194 -534 219 -546Q222 -548 228 -550L247 -558Q252 -560 256 -562Q265 -561 280 -564Q298 -568 306 -565Q311 -570 310 -578Q308 -585 307 -591Q304 -601 302 -611Q299 -622 291 -629Q284 -630 281 -633Q276 -637 282 -642ZM724 -607Q731 -608 735 -605Q740 -601 745 -600Q760 -595 771 -581Q771 -568 777 -556Q781 -552 782 -541Q783 -534 785 -529Q782 -522 784 -508Q786 -494 784 -488Q781 -476 784 -465Q780 -445 775 -426Q778 -420 776 -414Q774 -408 773 -401Q768 -380 764 -376Q766 -366 760 -361Q767 -349 758 -344Q757 -334 752 -325Q754 -319 748 -315Q744 -312 745 -309Q743 -299 752 -299Q766 -299 768 -298Q773 -302 786 -302Q798 -302 802 -303Q816 -305 855 -301Q865 -302 875 -294Q882 -296 887 -290Q891 -285 896 -280Q903 -279 908 -273Q913 -267 918 -263Q922 -255 933 -246Q937 -229 935 -204Q936 -193 931 -158Q923 -126 913 -98Q909 -77 900 -57Q891 -39 884 -19Q879 -16 877 -12Q875 -7 873 -3Q868 1 864 16Q860 16 858 22Q856 28 854 29Q851 40 834 53Q829 62 821 67Q813 72 806 79Q800 87 791 91Q790 89 780 80Q774 74 776 68Q774 65 760 61Q755 62 752 57Q748 50 746 50Q739 46 729 44Q725 42 728 36Q782 31 785 20Q797 8 805 -5Q812 -18 821 -31Q843 -74 858 -118Q869 -158 875 -203Q879 -250 853 -256Q808 -261 768 -251Q752 -250 742 -253Q738 -250 725 -248Q716 -247 711 -243Q695 -239 682 -238L653 -232Q639 -230 613 -239Q593 -246 582 -246Q574 -249 567 -253Q565 -255 569 -258Q581 -254 600 -258Q618 -266 689 -285Q697 -288 694 -293Q689 -299 681 -298Q675 -296 674 -299Q673 -305 682 -309Q688 -312 695 -316Q703 -319 702 -328Q708 -346 708 -365Q696 -365 686 -361Q667 -364 653 -368Q645 -370 630 -378Q611 -388 600 -389Q598 -375 600 -361Q596 -354 597 -344Q599 -335 588 -335Q586 -333 586 -319Q586 -316 582 -311Q578 -306 579 -301Q571 -301 562 -301Q553 -294 545 -314Q547 -322 540 -338Q533 -353 536 -363Q540 -391 544 -419Q547 -444 549 -470Q553 -508 556 -547Q555 -555 554 -563Q554 -572 548 -579Q539 -585 541 -596Q542 -601 549 -598Q556 -598 565 -593Q575 -587 579 -587Q597 -591 610 -582Q615 -580 619 -572Q623 -564 627 -562Q640 -567 657 -581Q666 -584 678 -591Q695 -601 703 -603Q714 -605 724 -607ZM709 -555Q697 -552 689 -547Q686 -547 682 -543Q678 -539 674 -539Q658 -535 639 -539Q631 -544 624 -536Q618 -528 620 -519Q613 -499 608 -478Q607 -457 601 -439Q595 -433 598 -427Q601 -421 601 -414Q602 -412 600 -408Q598 -403 601 -401Q616 -399 633 -404Q658 -407 682 -406Q688 -402 706 -400Q712 -396 714 -400Q716 -408 717 -415Q720 -444 724 -475Q728 -505 724 -535Q724 -542 720 -549Q716 -556 709 -555ZM392 -522Q420 -519 422 -518Q426 -517 429 -515Q432 -512 436 -516Q448 -509 459 -503Q467 -504 472 -501Q479 -497 475 -491Q472 -487 473 -479Q474 -470 471 -467Q451 -465 443 -474Q431 -475 422 -483Q413 -492 405 -499Q403 -504 394 -509Q386 -513 384 -517Q381 -519 382 -520Q386 -520 392 -522ZM681 -150Q688 -149 694 -146Q705 -149 712 -137Q709 -133 713 -126Q716 -121 715 -118Q714 -113 708 -112Q702 -112 698 -109Q648 -105 601 -90Q546 -81 495 -65Q482 -63 469 -61Q452 -59 441 -55Q429 -52 410 -60Q403 -64 383 -64Q366 -66 362 -69Q378 -72 392 -79Q426 -88 458 -99L514 -116Q523 -119 528 -118Q536 -118 540 -121L582 -133Q589 -131 602 -136Q611 -139 618 -139Q626 -140 634 -142L665 -147Q671 -148 681 -150Z"/>
</svg>