<svg xmlns="http://www.w3.org/2000/svg" viewBox="0 -800 1024 1024">
	<path fill="#000000" d="M631 -672Q638 -669 644 -670Q649 -666 654 -667Q659 -668 663 -667Q677 -666 693 -652Q696 -646 698 -639Q701 -632 694 -627Q695 -623 691 -622Q687 -621 686 -618Q677 -612 677 -591Q679 -587 677 -580Q675 -573 677 -570Q679 -562 676 -556Q673 -549 666 -548Q662 -534 657 -520Q658 -516 655 -513L653 -510Q650 -507 651 -503Q646 -491 642 -480Q640 -474 637 -467Q635 -459 640 -454Q653 -462 674 -472Q678 -471 681 -476Q684 -481 687 -481Q698 -484 708 -492Q717 -498 726 -496Q740 -504 744 -508Q748 -507 756 -510Q762 -512 767 -510Q773 -512 790 -510Q792 -511 795 -510Q800 -508 802 -511Q810 -508 817 -510Q819 -504 822 -502Q825 -500 830 -497Q852 -496 858 -475Q855 -470 857 -465Q859 -460 860 -455Q858 -449 862 -436Q865 -427 865 -422Q867 -420 865 -416Q863 -412 863 -411Q856 -410 859 -398Q859 -385 857 -386Q851 -384 853 -380Q856 -376 857 -372Q856 -360 854 -348Q854 -335 850 -319Q846 -317 848 -306Q845 -303 845 -298Q845 -291 842 -288Q844 -284 841 -280Q839 -277 840 -275Q838 -251 832 -239Q828 -236 826 -228Q824 -220 821 -218Q820 -210 821 -201Q821 -192 814 -186Q809 -179 803 -172Q806 -168 801 -161Q797 -156 797 -152Q794 -150 794 -145Q794 -139 791 -138Q790 -128 778 -116Q779 -105 767 -93Q764 -87 754 -82Q744 -77 741 -72Q734 -73 726 -74Q726 -81 723 -84Q720 -87 717 -90Q711 -93 713 -103Q714 -110 712 -113Q700 -119 690 -108Q685 -101 680 -92Q676 -84 667 -80Q660 -83 658 -72Q657 -70 651 -68Q645 -66 644 -63Q668 -62 688 -67Q701 -66 713 -69Q731 -67 751 -67Q771 -66 789 -59Q827 -47 830 -46Q834 -46 838 -42Q844 -37 849 -39Q864 -29 878 -19Q884 -20 885 -12Q886 -6 889 -5Q899 -4 891 1Q887 11 903 14Q902 16 897 16Q891 16 891 21Q887 29 878 30Q871 30 863 30Q856 27 848 25Q839 23 836 15Q826 15 818 9Q740 -26 673 -39Q661 -41 648 -44Q634 -47 622 -45Q619 -38 607 -34Q594 -30 591 -24Q589 -27 583 -28Q576 -29 575 -32Q580 -41 590 -49Q603 -70 616 -91Q644 -122 656 -153Q645 -164 638 -175Q636 -179 636 -182Q637 -186 641 -184Q649 -185 662 -183Q668 -174 677 -172Q686 -171 693 -167Q700 -153 698 -150Q704 -143 706 -134Q709 -132 708 -126Q707 -121 709 -119Q727 -127 729 -128Q746 -156 747 -176Q754 -185 755 -197Q761 -209 763 -222Q763 -227 767 -232Q772 -238 771 -242Q777 -256 782 -271Q784 -280 785 -290Q796 -326 800 -363Q802 -369 802 -379Q807 -413 802 -446Q800 -454 794 -459Q786 -466 779 -461Q774 -460 764 -457Q731 -445 729 -444Q713 -435 696 -430Q679 -429 647 -421Q640 -425 629 -428Q625 -431 623 -427Q622 -421 621 -417Q613 -416 614 -408Q615 -401 612 -396Q614 -388 609 -378Q605 -369 606 -364Q604 -358 602 -352Q599 -332 593 -316Q587 -312 586 -299Q586 -289 584 -286Q583 -276 583 -266Q583 -256 578 -241Q574 -228 573 -222Q565 -210 566 -202Q568 -194 563 -180Q559 -171 559 -164Q557 -157 544 -133Q541 -134 539 -132Q536 -129 535 -129Q532 -126 527 -128Q522 -130 519 -128Q512 -129 507 -140Q503 -148 501 -150Q495 -167 497 -184Q494 -193 498 -197Q499 -204 499 -212Q494 -236 502 -242Q505 -251 508 -261L520 -298Q522 -305 526 -317Q533 -346 537 -353Q543 -356 540 -363Q546 -390 556 -418Q556 -425 561 -435Q567 -447 566 -454Q568 -456 570 -462Q573 -471 577 -473Q584 -497 587 -523Q605 -568 610 -603Q612 -607 608 -608Q603 -609 600 -608Q585 -598 566 -592Q549 -595 529 -596Q504 -601 479 -606Q468 -610 453 -608Q449 -608 449 -609Q448 -612 456 -614Q461 -619 474 -620Q483 -621 486 -622Q534 -636 566 -651Q570 -651 580 -657Q590 -663 598 -661Q615 -666 631 -672ZM256 -645Q262 -646 267 -639Q272 -631 277 -633Q280 -638 289 -636Q297 -634 300 -636Q307 -632 313 -628Q321 -625 322 -618Q322 -612 324 -606Q327 -604 328 -606Q329 -610 329 -615Q331 -607 327 -600Q318 -603 317 -596Q316 -589 323 -584Q329 -582 339 -583Q355 -584 361 -581Q365 -583 372 -580Q378 -577 382 -579Q385 -577 387 -569Q389 -559 395 -557Q395 -547 382 -538Q358 -534 350 -533Q334 -531 320 -524Q315 -520 317 -510Q314 -504 313 -499Q312 -493 306 -491Q310 -462 305 -450Q302 -447 304 -441Q306 -435 304 -432Q305 -420 302 -410Q304 -404 300 -393Q297 -382 301 -378Q308 -375 331 -381Q333 -387 346 -387Q349 -387 350 -391Q352 -397 355 -397Q370 -403 383 -401Q388 -405 392 -416Q396 -427 399 -431L398 -412Q402 -400 414 -404Q422 -404 425 -400Q430 -380 430 -373Q427 -361 420 -356Q396 -346 388 -345Q381 -337 380 -324Q373 -315 371 -304Q369 -301 369 -295Q369 -289 366 -286Q363 -284 364 -283Q368 -281 367 -278Q365 -263 360 -249Q366 -239 357 -226Q352 -208 346 -191Q342 -188 342 -183Q342 -178 339 -175Q339 -163 328 -144Q320 -130 318 -121L306 -109Q300 -92 289 -86Q264 -95 263 -96Q240 -111 239 -125Q223 -145 233 -170Q231 -187 233 -196Q234 -208 235 -220Q237 -242 241 -265Q239 -278 243 -282Q243 -292 239 -299Q228 -301 215 -296Q202 -291 188 -287Q183 -290 172 -288Q163 -286 158 -289Q156 -293 153 -291Q149 -288 148 -290Q138 -293 129 -302Q126 -305 111 -317Q104 -321 106 -328Q107 -335 107 -342Q101 -351 110 -373Q119 -381 125 -393Q142 -425 171 -450Q175 -451 181 -453Q186 -454 187 -450Q200 -435 206 -418Q204 -400 202 -382Q204 -365 192 -360Q195 -356 191 -353Q187 -350 187 -349Q188 -344 194 -346Q199 -348 201 -347Q220 -355 234 -357Q239 -358 246 -361Q252 -363 251 -370Q253 -403 252 -412Q253 -421 253 -431Q255 -484 260 -503Q259 -509 257 -515Q256 -522 251 -522Q245 -523 241 -525Q198 -539 195 -541Q184 -542 173 -543Q171 -547 175 -548Q179 -548 182 -551Q198 -555 217 -557Q237 -564 257 -572Q264 -571 266 -577Q268 -582 266 -589Q268 -605 255 -608Q252 -612 247 -617Q242 -622 243 -628Q242 -635 247 -638Q252 -642 256 -645ZM354 -337L329 -331Q326 -331 321 -329Q313 -325 311 -328Q299 -321 295 -315Q294 -305 293 -296Q303 -289 296 -279Q296 -273 295 -267Q298 -261 295 -249Q293 -242 294 -237Q295 -230 296 -224Q298 -222 301 -226Q307 -229 321 -252Q327 -262 337 -282Q348 -306 358 -330Q362 -332 360 -336Q358 -340 354 -337Z"/>
</svg>