<svg xmlns="http://www.w3.org/2000/svg" viewBox="0 -800 1024 1024">
	<path fill="#000000" d="M195 -667Q216 -667 224 -663Q232 -656 242 -648Q251 -641 253 -629Q254 -622 250 -616Q246 -610 244 -604Q247 -600 242 -592Q236 -582 240 -578Q257 -580 274 -585Q281 -586 288 -587Q292 -589 310 -592Q321 -593 328 -592Q366 -592 368 -570Q362 -550 352 -534Q349 -528 339 -519Q326 -507 323 -499Q319 -496 315 -490Q312 -487 309 -492Q305 -496 296 -488Q289 -481 285 -482Q277 -477 272 -470Q274 -466 277 -466Q280 -466 282 -469Q290 -465 299 -467Q307 -469 317 -469Q326 -471 328 -464Q330 -457 332 -452Q334 -442 327 -437Q320 -432 313 -428Q310 -426 298 -424L288 -421Q278 -419 273 -417Q271 -413 274 -405Q276 -399 275 -394Q278 -387 276 -379Q274 -372 273 -365Q272 -358 277 -358Q284 -357 288 -361Q296 -365 292 -371Q289 -377 287 -382Q286 -386 287 -386Q291 -385 293 -380Q294 -375 301 -374Q307 -373 309 -371Q317 -368 330 -371Q341 -373 346 -372Q351 -372 351 -369Q350 -364 348 -359Q348 -355 351 -354Q356 -351 354 -346Q351 -342 350 -337Q342 -327 330 -323Q317 -319 304 -315Q300 -312 291 -309Q277 -304 272 -298Q273 -292 269 -284Q265 -275 266 -270Q259 -242 261 -230Q261 -214 260 -198Q260 -176 260 -154Q263 -149 264 -137Q265 -124 269 -119Q279 -128 286 -137Q292 -141 303 -154Q314 -166 322 -172Q335 -202 348 -232Q349 -237 350 -237Q352 -234 353 -225Q354 -212 355 -200Q354 -175 348 -155Q345 -151 342 -148L330 -135Q326 -131 324 -128Q325 -122 317 -114Q310 -108 310 -103Q304 -92 287 -82Q282 -82 282 -76Q282 -71 277 -69Q269 -65 262 -65Q255 -65 248 -70Q242 -72 233 -80Q226 -87 222 -88Q207 -99 203 -125Q195 -188 207 -224Q207 -240 210 -254Q209 -261 212 -267Q214 -274 208 -277Q189 -273 169 -270Q156 -266 143 -263Q129 -262 114 -261Q101 -263 93 -269Q87 -267 79 -273Q74 -277 70 -277Q64 -284 79 -292Q106 -298 130 -306Q150 -313 170 -316Q181 -317 189 -322Q193 -326 207 -329Q220 -332 225 -338Q228 -364 228 -366Q231 -385 233 -405Q231 -412 225 -411Q219 -410 213 -411Q188 -409 165 -422Q163 -430 171 -432Q179 -433 184 -437Q196 -442 210 -447Q224 -452 231 -466Q247 -483 259 -500Q271 -517 279 -536Q267 -537 254 -531Q252 -532 248 -529Q243 -525 239 -527Q232 -522 225 -522Q214 -522 205 -531Q193 -542 181 -553Q175 -557 178 -560Q182 -562 184 -567Q180 -575 185 -587Q187 -593 187 -606Q186 -619 189 -626L199 -652Q202 -655 196 -661Q192 -665 195 -667ZM767 -613Q776 -614 786 -609Q789 -610 806 -605Q813 -605 819 -601Q824 -597 831 -594Q841 -586 853 -577Q864 -568 869 -554Q874 -549 878 -531L890 -510Q894 -504 890 -492Q888 -484 888 -479Q890 -476 894 -466Q894 -450 899 -432Q896 -402 897 -397Q899 -391 901 -362Q896 -358 900 -345Q894 -333 898 -322Q897 -318 899 -310Q902 -300 898 -296Q898 -285 898 -274Q898 -262 898 -250Q905 -238 899 -230Q899 -210 898 -191L902 -179L898 -165Q895 -147 895 -126Q896 -121 891 -107Q892 -96 888 -87Q884 -77 882 -67Q878 -61 876 -53Q874 -46 867 -41Q861 -40 857 -31Q854 -24 850 -22Q833 -30 818 -53Q816 -59 813 -66Q809 -73 816 -77Q826 -78 829 -99Q832 -110 834 -122Q840 -144 841 -168Q839 -177 844 -198Q846 -209 847 -221Q847 -231 845 -240Q843 -250 847 -258Q846 -265 845 -273Q847 -288 845 -301Q843 -304 845 -313Q846 -318 845 -322Q847 -363 848 -404Q847 -426 846 -449Q842 -476 837 -504Q834 -509 830 -525Q824 -546 817 -555Q804 -569 789 -574Q766 -581 736 -575Q731 -573 718 -573Q704 -573 698 -569Q676 -567 657 -560Q652 -555 645 -555Q639 -556 633 -554Q629 -554 623 -548Q616 -541 612 -543Q601 -548 592 -539Q574 -547 573 -547Q562 -554 541 -552Q538 -558 553 -564Q572 -576 612 -587Q629 -591 645 -596Q660 -597 675 -599Q680 -603 703 -603Q724 -612 742 -610Q755 -611 767 -613ZM489 -561Q494 -560 495 -554Q495 -548 498 -544Q498 -534 502 -524Q492 -510 490 -494Q486 -482 489 -470Q489 -445 488 -420Q491 -411 494 -399Q490 -371 491 -356Q490 -351 489 -346Q487 -340 492 -337Q500 -339 507 -342Q526 -349 545 -356Q557 -363 572 -364Q586 -372 602 -376Q619 -378 617 -396Q617 -411 593 -421Q589 -424 592 -427Q595 -430 601 -430Q627 -437 635 -436Q638 -434 646 -434Q655 -434 660 -430Q668 -430 670 -421Q671 -413 667 -406Q670 -399 677 -402Q683 -405 689 -405Q698 -401 715 -403Q727 -408 743 -392Q746 -387 738 -382Q729 -376 728 -372Q721 -361 700 -361Q689 -357 677 -353Q668 -351 656 -335Q651 -320 635 -290Q631 -285 637 -282Q639 -281 648 -278Q678 -280 696 -274Q700 -270 712 -270Q722 -270 727 -267Q733 -266 735 -260Q736 -254 739 -249Q745 -245 734 -231Q729 -225 721 -227Q714 -229 708 -231Q701 -230 691 -234Q684 -237 680 -237Q664 -247 646 -249Q639 -249 616 -254Q607 -258 601 -251Q596 -245 591 -239Q571 -230 566 -226Q562 -224 557 -221Q551 -218 548 -223Q551 -231 560 -243Q569 -255 571 -260Q586 -284 594 -312Q603 -330 592 -330Q583 -328 573 -326Q568 -323 560 -325Q552 -327 548 -323Q540 -324 510 -331Q503 -331 496 -331Q489 -332 486 -326Q482 -312 483 -304Q484 -301 482 -294Q480 -286 483 -281Q483 -275 480 -263Q476 -247 478 -237Q473 -221 475 -193Q471 -184 479 -167Q474 -160 487 -145Q484 -134 495 -126Q499 -118 520 -112Q525 -114 549 -114Q576 -116 602 -115Q615 -122 630 -115Q649 -121 672 -118Q676 -120 686 -118Q694 -116 699 -118Q712 -120 724 -119Q730 -118 737 -118Q745 -119 750 -111Q760 -110 771 -110Q781 -110 789 -102Q791 -85 781 -80Q778 -75 769 -76Q762 -77 760 -75Q752 -78 731 -76Q720 -79 699 -77Q693 -80 681 -79Q671 -78 667 -79Q645 -79 643 -78L585 -77Q578 -76 570 -75Q551 -76 531 -78Q509 -82 492 -89Q460 -105 448 -120Q428 -137 420 -159Q415 -174 416 -177Q416 -193 416 -209Q420 -229 419 -250Q428 -287 433 -317Q443 -356 453 -395Q453 -404 458 -444Q462 -502 472 -522Q475 -527 478 -538Q483 -554 489 -561Z"/>
</svg>