<svg xmlns="http://www.w3.org/2000/svg" viewBox="0 -800 1024 1024">
	<path fill="#000000" d="M388 -785Q391 -783 406 -774Q411 -774 414 -769Q416 -765 414 -761Q419 -738 410 -720Q404 -719 398 -708Q393 -699 387 -697Q368 -675 351 -652Q348 -646 341 -640Q333 -635 340 -627Q361 -603 370 -576Q369 -560 377 -548Q379 -543 376 -535Q372 -527 374 -523Q374 -518 373 -515V-500Q372 -497 372 -492Q369 -477 366 -462Q366 -457 364 -451Q361 -446 365 -441Q366 -419 364 -402Q368 -371 366 -356Q365 -347 364 -338Q368 -325 363 -286Q365 -269 364 -253Q369 -250 361 -235Q355 -233 356 -229Q356 -225 356 -220Q350 -216 342 -223Q336 -229 331 -229Q328 -239 316 -259Q310 -272 304 -286Q304 -307 309 -337Q315 -389 321 -441Q320 -457 325 -494Q329 -526 328 -546Q328 -581 313 -592Q304 -607 298 -611Q276 -634 288 -657Q288 -667 301 -674Q315 -700 328 -712Q329 -720 341 -732Q350 -741 352 -749Q355 -761 367 -765Q379 -767 380 -777Q380 -783 388 -785ZM535 -773Q554 -773 563 -764Q580 -760 593 -754Q596 -747 605 -745Q613 -743 616 -739Q621 -720 610 -714Q600 -713 589 -698Q580 -685 572 -683Q567 -679 569 -677Q574 -674 580 -675Q583 -679 592 -680Q598 -681 601 -682Q615 -681 635 -685Q646 -683 654 -676Q653 -669 656 -661Q659 -654 651 -649Q646 -649 646 -642Q645 -635 640 -635Q620 -628 600 -621Q584 -618 573 -611Q579 -605 586 -598Q592 -592 592 -583Q599 -568 618 -568Q628 -568 635 -571Q650 -572 657 -570Q669 -566 665 -554Q670 -538 662 -523Q638 -519 615 -509Q609 -509 609 -503Q610 -497 608 -493Q600 -489 604 -477Q608 -467 616 -471Q619 -469 626 -470Q636 -472 641 -468Q654 -472 656 -465Q659 -449 651 -433Q653 -427 647 -426Q642 -426 636 -424Q628 -421 617 -420Q606 -419 601 -407Q602 -399 599 -387Q595 -373 597 -364Q594 -359 600 -356Q606 -353 610 -355Q621 -355 632 -356Q643 -356 651 -351Q657 -351 658 -347Q659 -343 662 -340Q661 -334 663 -327Q664 -320 657 -315Q656 -309 649 -307Q643 -305 641 -302Q619 -300 596 -298Q589 -300 585 -295Q582 -291 581 -283Q582 -277 578 -274Q574 -271 568 -271Q561 -271 558 -275Q553 -294 536 -291Q521 -293 506 -295Q496 -299 482 -304Q472 -309 460 -314Q448 -319 446 -333Q454 -326 469 -326Q505 -333 536 -343Q538 -350 540 -382Q538 -389 539 -393Q540 -393 540 -392Q543 -389 547 -391Q550 -393 551 -398Q553 -406 550 -409Q546 -413 539 -411Q524 -417 508 -412Q477 -423 466 -432Q460 -440 463 -446Q465 -447 469 -443Q493 -436 525 -452Q538 -453 548 -457Q558 -463 558 -473Q558 -483 560 -493Q561 -501 551 -503Q544 -504 542 -507Q530 -503 516 -513Q505 -520 499 -521Q497 -524 488 -527Q481 -529 480 -532Q499 -536 533 -544Q540 -548 550 -550Q561 -553 561 -565Q556 -587 541 -605Q529 -609 516 -610Q477 -629 473 -632Q471 -635 479 -646Q483 -644 490 -647Q498 -650 501 -648Q506 -651 512 -652Q517 -654 520 -660Q523 -683 525 -706Q526 -717 527 -730Q528 -740 516 -740Q514 -742 508 -743Q501 -744 500 -747Q504 -748 507 -754Q511 -762 516 -762Q522 -759 526 -764Q530 -770 535 -773ZM754 -257Q767 -257 779 -257Q781 -254 785 -256Q789 -258 792 -257Q795 -253 811 -256Q815 -258 818 -255Q821 -252 823 -252Q825 -253 826 -252Q826 -248 826 -245Q821 -235 820 -223Q819 -217 810 -214Q803 -212 800 -208Q796 -193 772 -197Q768 -194 756 -194Q755 -190 752 -191Q748 -193 747 -192Q739 -192 732 -186Q730 -188 725 -185Q720 -183 717 -185Q715 -190 711 -190Q706 -190 704 -186Q704 -184 704 -183Q702 -185 698 -182Q695 -184 690 -179Q685 -174 682 -177Q679 -175 676 -177Q673 -179 671 -176Q668 -178 664 -174Q659 -170 656 -173Q648 -176 645 -171Q638 -169 632 -170Q626 -170 622 -164Q606 -166 589 -162Q572 -162 564 -153Q562 -138 560 -124Q558 -104 556 -85Q560 -75 555 -63Q551 -49 553 -32Q553 -15 552 2Q557 14 547 24Q540 36 539 40L518 59Q520 64 517 65Q514 66 510 60Q508 55 499 49Q494 46 491 42Q492 38 486 33Q482 30 480 26Q472 22 461 8Q450 -6 442 -11Q439 -17 433 -16Q428 -15 423 -10Q422 -6 418 -3Q412 1 411 2Q406 5 400 9Q402 16 397 22Q393 27 385 26Q376 16 366 6Q360 5 357 -1Q355 -5 353 -12Q345 -14 336 -16Q336 -19 333 -23Q329 -27 330 -32Q328 -42 343 -57Q347 -57 353 -63Q358 -68 361 -66Q377 -75 390 -74Q399 -76 403 -69Q407 -72 410 -68Q413 -64 416 -62Q422 -63 427 -55Q431 -49 434 -48Q448 -49 460 -55Q472 -62 485 -68Q481 -62 472 -56Q458 -47 456 -40Q460 -34 448 -22Q461 -5 478 -5Q487 -1 489 -9Q491 -17 493 -23Q492 -43 496 -83Q500 -123 499 -144Q497 -150 490 -146Q484 -143 481 -143Q477 -140 466 -140Q448 -138 433 -134Q418 -130 404 -134Q399 -130 393 -130Q391 -131 385 -129Q379 -127 376 -130Q368 -125 350 -122Q336 -119 330 -116Q306 -111 282 -105Q259 -99 234 -104Q224 -101 211 -102Q202 -108 181 -110Q175 -112 167 -115Q160 -118 161 -125Q165 -123 173 -127Q179 -130 183 -130Q197 -130 208 -137Q249 -144 287 -154Q308 -158 328 -163Q332 -163 337 -166Q341 -168 345 -164Q351 -161 358 -166Q366 -172 371 -170Q375 -165 381 -170Q386 -174 390 -172Q395 -178 403 -175Q407 -179 417 -180Q426 -181 429 -182Q450 -186 470 -191Q473 -193 484 -195Q497 -197 502 -203Q504 -214 496 -220Q488 -226 484 -234Q490 -237 491 -240Q508 -234 524 -229Q534 -224 544 -219Q558 -209 569 -211Q583 -209 586 -215Q595 -216 609 -221Q625 -227 633 -227Q644 -231 666 -235Q688 -239 697 -243Q712 -246 726 -249ZM736 -94L741 -92Q752 -93 778 -89Q784 -85 792 -80Q800 -75 800 -64Q813 -54 802 -40Q800 -37 794 -35Q789 -33 787 -31Q783 -23 778 -22Q774 -26 772 -23Q770 -17 769 -12Q766 -4 764 -12Q759 -22 755 -2Q757 1 751 4Q747 6 747 8Q743 4 740 8Q737 12 735 16Q732 16 732 20Q732 25 728 26Q725 22 718 23Q711 24 709 22Q705 28 693 26Q700 19 705 2Q709 -12 713 -17L716 -38Q715 -47 717 -55Q720 -64 711 -70Q705 -71 686 -78Q685 -86 691 -86Q698 -86 704 -85Q710 -93 719 -93Q728 -93 736 -94Z"/>
</svg>