<svg xmlns="http://www.w3.org/2000/svg" viewBox="0 -800 1024 1024">
	<path fill="#000000" d="M598 -773H600Q604 -770 612 -772Q620 -774 623 -773Q624 -768 631 -765Q637 -762 639 -760Q640 -755 637 -745Q634 -734 635 -729Q628 -710 626 -689Q625 -680 633 -673Q636 -671 648 -664Q666 -657 684 -651Q690 -647 699 -642Q707 -638 711 -629Q710 -625 712 -619Q714 -612 712 -607Q719 -593 703 -577Q700 -565 687 -547Q680 -547 678 -538Q673 -534 669 -527Q662 -516 658 -514Q658 -511 652 -506Q645 -499 649 -494Q666 -492 674 -493Q685 -491 697 -490Q709 -490 719 -484Q718 -482 720 -473Q714 -471 714 -461Q714 -451 707 -451Q701 -455 698 -449Q682 -450 666 -451Q658 -449 649 -454Q649 -457 647 -457Q645 -456 645 -453Q644 -454 641 -454L638 -453Q635 -453 633 -454Q628 -453 618 -456Q609 -459 603 -457Q601 -455 595 -453Q587 -451 586 -446Q574 -438 562 -431Q551 -420 541 -426Q536 -422 530 -425Q530 -428 526 -427Q522 -425 521 -422Q517 -422 513 -423Q508 -424 501 -422Q498 -422 499 -426Q499 -427 499 -428Q500 -429 502 -429Q508 -427 515 -434Q522 -440 526 -437Q528 -438 531 -444Q534 -451 540 -451Q541 -449 542 -449Q543 -452 548 -456Q551 -459 551 -465Q551 -468 547 -467Q538 -469 529 -471Q521 -470 505 -477Q494 -482 486 -482Q478 -479 479 -471Q482 -462 478 -455Q474 -431 465 -422Q465 -416 462 -412Q467 -415 471 -412Q475 -409 479 -407Q489 -403 497 -397Q506 -395 510 -382Q509 -377 511 -377Q516 -380 524 -381Q528 -377 530 -379Q532 -381 536 -382Q545 -379 554 -376Q560 -372 565 -367Q571 -363 571 -354Q571 -349 567 -348Q563 -346 558 -344L536 -320Q530 -320 526 -310Q521 -312 518 -308Q514 -304 512 -300Q508 -300 505 -295Q502 -289 497 -290Q476 -283 479 -273Q488 -274 497 -276L513 -281Q526 -283 538 -286Q542 -289 549 -289Q557 -289 560 -292Q596 -299 609 -298Q610 -295 615 -297Q619 -299 620 -298Q638 -302 670 -297Q678 -296 689 -291Q691 -284 696 -281Q701 -279 706 -274Q706 -266 711 -259Q717 -255 714 -243Q712 -235 713 -232Q718 -225 715 -217Q712 -210 710 -202Q699 -183 696 -161Q694 -152 691 -143Q687 -134 681 -126Q674 -118 673 -107Q664 -87 647 -75Q643 -69 639 -64Q634 -59 627 -57Q623 -56 620 -51Q615 -44 610 -45L596 -56Q594 -60 587 -61Q583 -61 582 -65Q578 -76 568 -72Q564 -74 546 -70Q495 -68 452 -56Q446 -54 435 -60Q423 -67 416 -64Q409 -52 395 -62Q380 -65 357 -88Q339 -96 331 -115Q323 -133 326 -153Q330 -170 348 -216Q360 -231 372 -253Q384 -259 386 -263Q390 -267 395 -271Q400 -275 405 -272Q438 -282 444 -289L478 -325Q483 -327 483 -333Q483 -337 485 -340Q488 -346 484 -347Q476 -348 470 -345Q465 -339 459 -334Q456 -330 455 -331Q454 -335 451 -340Q446 -340 441 -347Q437 -352 434 -353Q431 -362 425 -370Q418 -378 421 -387Q421 -389 421 -391Q423 -395 429 -399Q426 -406 419 -412Q419 -414 415 -417Q411 -421 411 -425Q408 -426 406 -434Q404 -442 398 -441Q395 -443 398 -447Q403 -451 407 -448Q410 -450 413 -448Q419 -445 422 -448Q437 -470 439 -504Q443 -526 443 -537Q442 -555 438 -573Q436 -579 435 -587Q433 -590 429 -588Q423 -579 416 -570Q410 -561 409 -548Q407 -538 413 -527Q417 -522 413 -516Q409 -510 403 -511Q395 -508 389 -513Q382 -518 375 -520Q376 -524 372 -525Q367 -527 367 -528Q369 -534 363 -542Q358 -549 360 -554Q362 -559 359 -564Q355 -569 352 -565Q352 -563 352 -562Q354 -557 352 -546Q349 -533 352 -526Q350 -521 351 -509Q352 -495 348 -489Q346 -486 349 -472Q347 -460 344 -449Q344 -445 342 -445Q339 -444 339 -441Q331 -442 325 -438Q326 -441 323 -443Q319 -445 320 -448Q303 -465 301 -477Q303 -491 305 -505Q306 -509 307 -513L309 -531Q310 -535 311 -539Q313 -543 313 -551Q313 -559 313 -567Q310 -572 303 -570Q294 -575 285 -578Q280 -578 278 -575Q267 -567 262 -557Q257 -546 251 -536Q244 -523 248 -520Q260 -534 269 -548Q272 -555 280 -557Q289 -559 290 -551Q303 -532 296 -519Q290 -504 283 -489Q280 -482 273 -489Q260 -503 246 -518Q240 -506 240 -496Q236 -478 237 -456Q240 -452 237 -446Q234 -441 229 -443Q223 -444 218 -439Q209 -447 200 -456Q189 -462 192 -474Q195 -486 193 -496Q211 -562 238 -601Q243 -620 273 -628Q275 -616 281 -606Q279 -600 283 -596Q288 -592 293 -595Q301 -597 315 -603Q316 -613 317 -623Q318 -649 319 -675Q313 -679 297 -669Q286 -662 278 -654Q278 -649 277 -642Q276 -633 268 -634Q261 -634 258 -636Q255 -638 255 -644Q242 -647 238 -658Q239 -669 234 -680Q227 -690 242 -709Q254 -724 265 -731Q274 -735 279 -717Q283 -704 283 -690Q299 -692 317 -702Q320 -714 320 -730Q319 -741 322 -752Q324 -763 318 -774Q316 -777 317 -778Q323 -777 330 -778Q338 -774 356 -766Q366 -759 366 -744Q366 -730 367 -717Q380 -718 392 -720Q404 -720 412 -726Q415 -720 420 -723Q426 -728 431 -726Q444 -715 462 -713Q469 -714 473 -709Q477 -704 471 -700Q467 -691 463 -683Q450 -677 437 -671Q432 -660 416 -660Q407 -649 393 -643Q385 -639 377 -635Q374 -632 372 -633Q369 -635 367 -633Q361 -632 359 -619Q369 -622 378 -625Q394 -629 410 -633Q419 -637 435 -637Q448 -637 454 -639Q470 -663 481 -675Q496 -694 514 -709Q533 -724 551 -739Q568 -753 584 -768Q594 -770 598 -773ZM581 -732Q565 -724 547 -708Q518 -695 502 -684Q488 -669 468 -635Q465 -628 471 -624Q477 -620 480 -617Q479 -612 482 -605Q485 -598 485 -595Q489 -583 488 -570L487 -537Q479 -524 483 -509Q479 -503 485 -500Q488 -498 495 -497L579 -495Q588 -499 597 -495Q607 -507 615 -521Q616 -535 632 -551Q638 -552 639 -556Q640 -561 635 -564Q645 -582 650 -596Q652 -597 659 -615Q664 -630 637 -642L605 -662Q596 -666 591 -673Q584 -682 589 -689Q586 -701 586 -715Q586 -721 586 -729Q586 -733 581 -732ZM387 -692Q380 -692 373 -692Q366 -691 362 -685Q354 -662 357 -641Q362 -642 365 -648Q370 -657 372 -659Q380 -671 388 -684Q391 -687 391 -692Q390 -694 387 -692ZM409 -601L397 -598Q393 -599 386 -595Q380 -592 376 -593Q373 -590 364 -588Q353 -586 352 -581Q352 -579 352 -577Q369 -564 388 -558Q397 -567 420 -597Q423 -601 421 -602Q415 -603 409 -601ZM623 -267Q607 -267 601 -264Q573 -265 549 -258Q533 -254 516 -250Q511 -250 506 -248Q503 -246 507 -242Q518 -244 521 -232Q528 -224 526 -214Q523 -203 524 -194Q522 -186 527 -185Q532 -183 536 -180Q543 -180 546 -175Q549 -170 543 -166Q541 -161 530 -159Q518 -157 515 -151Q510 -148 511 -143Q512 -137 510 -134Q513 -127 509 -113Q506 -102 507 -96Q511 -94 522 -95Q530 -96 533 -94Q542 -96 551 -98Q560 -98 569 -100Q577 -102 585 -93Q599 -93 613 -94Q624 -106 631 -118Q644 -130 647 -146Q651 -163 657 -178Q662 -191 663 -207Q664 -221 668 -234Q671 -248 663 -260Q645 -270 623 -267ZM441 -253L439 -250Q429 -245 426 -233Q420 -229 414 -225Q408 -220 405 -213Q394 -202 388 -173Q389 -169 385 -162Q381 -156 381 -152Q377 -145 378 -138Q379 -131 378 -123Q390 -103 400 -109Q402 -108 405 -104Q411 -96 415 -97Q419 -94 424 -89Q430 -82 434 -80L462 -86Q468 -87 466 -95Q464 -101 466 -104L471 -145Q470 -153 458 -150Q438 -153 426 -164Q422 -166 423 -168Q424 -170 427 -171Q441 -167 453 -172Q466 -174 475 -179Q479 -194 479 -223Q483 -230 477 -235Q472 -240 467 -244Q466 -251 457 -253Q449 -253 441 -253ZM658 -9Q679 -9 682 -8Q691 0 706 -2Q715 -3 726 2Q730 0 735 1Q740 2 740 7Q739 10 741 23Q738 26 728 29Q718 32 714 38Q709 41 705 39Q701 37 697 37Q687 38 676 38Q670 37 620 37Q573 37 526 37Q520 40 507 40Q499 39 493 41H425Q421 44 408 39Q391 32 374 30Q360 24 355 21Q353 20 353 19Q357 18 361 17Q370 19 387 15Q414 10 444 10Q449 11 470 6Q477 3 511 3Q522 2 533 0Q556 0 579 -4L632 -5Q644 -9 658 -9Z"/>
</svg>