<svg xmlns="http://www.w3.org/2000/svg" viewBox="0 -800 1024 1024">
	<path fill="#000000" d="M181 -723Q199 -720 214 -710Q244 -699 241 -678Q244 -670 237 -643Q233 -629 223 -617Q215 -598 208 -578Q217 -576 224 -580Q231 -585 237 -589Q242 -590 250 -595Q261 -602 269 -600Q274 -602 286 -598Q297 -594 303 -596Q309 -594 317 -594Q325 -594 329 -587Q336 -580 333 -572Q330 -565 327 -558Q326 -551 319 -550Q312 -549 307 -545Q301 -534 290 -524Q289 -518 279 -513Q272 -509 271 -504Q260 -504 257 -497Q250 -493 248 -489Q244 -488 238 -480Q234 -475 232 -474Q226 -466 220 -459Q213 -455 216 -451Q220 -448 224 -446Q233 -443 241 -445Q244 -444 254 -443Q267 -442 273 -437Q276 -420 261 -409Q258 -406 251 -408Q243 -410 240 -406Q237 -396 234 -387Q235 -373 235 -360Q235 -348 253 -359Q254 -361 253 -367Q252 -374 255 -375Q260 -372 269 -372Q278 -372 281 -370Q288 -366 304 -368Q314 -369 321 -368Q324 -366 330 -367Q337 -368 338 -366Q341 -360 335 -352Q338 -346 327 -338Q316 -332 294 -326Q286 -321 273 -319L242 -310Q230 -295 232 -278Q232 -267 228 -260Q227 -246 230 -235Q227 -225 225 -189Q227 -183 224 -175Q224 -162 228 -154Q268 -205 287 -238Q294 -249 300 -260Q306 -276 313 -289Q314 -277 307 -269Q305 -252 302 -236Q299 -230 297 -220Q293 -209 289 -198Q283 -188 283 -175Q274 -164 274 -152Q269 -152 267 -147Q264 -141 269 -138Q266 -126 255 -106Q243 -86 241 -75Q238 -71 231 -73Q224 -75 222 -72Q197 -85 182 -99Q175 -100 172 -107Q171 -109 170 -121Q175 -128 167 -134Q168 -140 168 -167Q170 -184 171 -202Q172 -223 180 -256Q185 -258 184 -266Q183 -274 185 -277Q187 -280 187 -286Q187 -290 182 -289Q164 -284 145 -279Q140 -274 133 -275Q126 -276 120 -277Q108 -274 96 -277Q84 -281 71 -284Q59 -287 48 -296Q62 -300 69 -300Q85 -304 101 -308Q107 -308 115 -313Q122 -314 130 -316Q137 -319 144 -316Q154 -326 166 -326Q168 -329 175 -329Q184 -329 187 -335Q196 -337 195 -347Q195 -357 197 -365Q201 -383 204 -401Q194 -406 183 -414Q178 -424 168 -431Q162 -440 167 -450Q168 -455 176 -460Q185 -465 186 -471Q206 -492 231 -524Q232 -528 236 -533Q239 -538 234 -541Q216 -534 197 -537Q190 -538 189 -534Q188 -529 186 -526Q172 -531 168 -540Q162 -554 161 -570Q167 -595 178 -622Q186 -649 199 -677Q208 -701 191 -711Q187 -715 180 -717Q177 -719 181 -723ZM485 -670Q489 -662 495 -661Q493 -657 496 -654Q499 -653 500 -658Q518 -662 539 -663Q549 -657 552 -647Q550 -643 550 -634Q550 -624 546 -620Q544 -608 539 -597Q533 -569 529 -541Q528 -535 526 -530Q523 -534 521 -532Q518 -527 521 -521Q539 -505 559 -490Q569 -485 570 -475Q570 -464 571 -455Q591 -459 614 -467L638 -475L668 -487Q673 -489 685 -493Q687 -495 692 -495Q698 -495 699 -497Q713 -500 740 -511Q765 -521 778 -524Q780 -526 786 -526Q793 -526 797 -530Q805 -528 810 -533Q816 -538 820 -542Q827 -546 832 -543Q851 -541 859 -536Q866 -543 875 -543Q885 -543 893 -542Q901 -541 909 -541Q911 -539 916 -539Q922 -539 923 -536Q931 -532 929 -519Q938 -513 930 -508Q927 -491 912 -496Q897 -492 883 -492Q873 -490 867 -494Q867 -498 865 -498Q857 -499 856 -492Q852 -489 840 -488Q831 -488 827 -486Q822 -487 814 -484Q806 -481 802 -482Q795 -476 780 -476Q776 -476 772 -474Q767 -472 763 -476Q761 -471 757 -470Q745 -470 736 -458Q731 -458 725 -451Q719 -443 713 -444Q696 -420 684 -397Q681 -380 678 -370Q673 -366 671 -358Q669 -350 667 -348Q663 -342 670 -337Q677 -333 681 -338Q699 -358 741 -394Q751 -400 761 -409Q771 -419 785 -419Q792 -419 796 -417Q801 -415 804 -420Q831 -418 839 -404Q843 -403 845 -398Q847 -393 849 -392Q859 -387 860 -380Q859 -376 862 -374Q866 -372 867 -369Q866 -363 869 -361Q872 -360 875 -357Q876 -343 885 -336Q886 -321 886 -306Q888 -301 886 -295Q884 -286 886 -282Q889 -254 884 -230Q883 -214 882 -198Q888 -185 886 -173Q877 -161 882 -149Q879 -144 879 -121Q877 -117 879 -111Q881 -104 878 -102Q876 -97 878 -86Q880 -75 876 -69Q876 -66 875 -64L872 -56Q872 -53 871 -51Q877 -44 874 -37Q870 -31 870 -24Q867 -9 863 5Q859 3 857 6Q855 10 856 14Q850 16 846 20Q843 28 838 25Q831 21 828 15Q822 8 810 6Q808 2 806 -4Q804 -6 802 -3Q800 2 797 0Q793 -3 791 -2Q783 -1 774 -1Q773 -5 765 -6Q756 -7 756 -12Q751 -17 755 -21Q759 -25 761 -29Q776 -37 789 -40Q804 -44 809 -49Q813 -49 813 -55Q813 -62 817 -62Q820 -87 823 -113Q819 -143 828 -177Q826 -214 833 -231L832 -256Q833 -266 833 -277Q833 -285 832 -293Q832 -352 809 -377Q806 -385 797 -385Q788 -385 781 -380Q772 -378 758 -366Q746 -355 738 -352Q716 -332 710 -320Q702 -314 704 -297Q706 -291 704 -283Q702 -274 695 -273L681 -283Q666 -298 653 -315Q648 -306 643 -294Q642 -285 628 -276Q623 -274 621 -279Q618 -286 616 -287Q613 -286 611 -291Q609 -295 608 -295Q603 -308 597 -321Q595 -337 597 -349Q597 -359 604 -367Q611 -374 616 -381Q628 -401 661 -438Q662 -442 657 -442Q654 -442 650 -441Q645 -439 627 -439Q625 -438 622 -438Q607 -438 592 -435Q589 -437 582 -435Q577 -433 573 -435Q567 -437 566 -432Q565 -427 564 -423Q564 -415 560 -416Q553 -416 547 -413Q543 -416 539 -410Q536 -406 532 -405Q527 -403 520 -412Q503 -421 494 -431Q490 -434 487 -442Q484 -450 479 -453Q473 -454 452 -468Q449 -469 447 -474Q444 -479 441 -480Q430 -472 434 -461Q438 -449 441 -440Q438 -432 438 -419Q436 -415 436 -405Q436 -397 434 -391Q431 -387 433 -379Q435 -371 434 -366Q431 -365 432 -359Q434 -352 429 -349Q434 -337 428 -323Q429 -314 427 -294Q422 -286 426 -267Q416 -260 424 -247Q424 -226 421 -208Q424 -203 424 -185Q423 -173 425 -159Q426 -137 427 -115Q427 -108 427 -102Q429 -98 426 -92Q423 -86 425 -84Q424 -78 420 -79Q417 -80 414 -85Q407 -84 400 -83Q392 -83 388 -91Q387 -96 380 -105Q372 -116 372 -125Q360 -139 361 -154Q363 -160 368 -196Q370 -204 371 -212Q373 -242 375 -273Q377 -289 376 -298Q377 -301 376 -310Q375 -322 379 -327Q377 -342 377 -358Q380 -377 382 -397Q384 -409 385 -421Q388 -440 391 -459Q399 -494 408 -504Q418 -508 426 -514Q427 -518 429 -517Q431 -515 434 -519Q443 -517 451 -516Q454 -517 456 -512Q457 -509 460 -509Q461 -507 467 -503Q474 -499 475 -494Q478 -486 486 -482Q494 -479 501 -476Q507 -469 514 -473Q518 -475 513 -481Q514 -485 509 -487Q505 -489 505 -491Q495 -497 491 -507Q484 -516 479 -528Q478 -542 477 -557Q476 -579 486 -601Q486 -613 476 -614Q465 -614 453 -614Q445 -616 436 -619Q431 -618 430 -623Q429 -628 430 -634Q444 -637 453 -644Q458 -646 463 -656Q466 -662 470 -664Q477 -668 485 -670Z"/>
</svg>