<svg xmlns="http://www.w3.org/2000/svg" viewBox="0 -800 1024 1024">
	<path fill="#000000" d="M611 -662Q618 -657 626 -650Q641 -644 656 -638Q662 -635 662 -629Q661 -623 661 -616Q659 -610 664 -608Q669 -606 676 -606Q692 -608 701 -609Q742 -605 762 -579Q770 -573 772 -563Q773 -553 775 -543Q772 -511 771 -506Q762 -488 755 -469Q750 -456 731 -433Q728 -425 713 -406Q701 -399 709 -390Q723 -393 740 -392Q756 -391 772 -391Q793 -389 813 -388Q822 -386 830 -385Q856 -387 858 -370Q861 -364 855 -352Q856 -344 848 -344Q839 -344 833 -340Q814 -338 797 -340Q789 -340 781 -340Q764 -345 746 -343Q732 -347 719 -346Q701 -345 686 -351Q671 -361 658 -341Q639 -319 620 -297Q613 -294 605 -285Q598 -277 595 -275Q592 -270 582 -264Q575 -260 572 -257Q556 -242 537 -231Q530 -222 521 -219Q511 -216 502 -212Q499 -208 490 -206Q483 -204 480 -202Q457 -194 450 -185Q437 -180 439 -167Q437 -152 436 -135Q434 -124 430 -114Q432 -104 421 -95Q416 -84 406 -89Q399 -89 396 -94Q392 -99 388 -102Q378 -111 372 -121Q366 -129 359 -123Q356 -119 348 -119Q341 -119 339 -117L297 -116Q265 -111 232 -107Q207 -99 197 -97Q195 -97 179 -100Q161 -95 156 -97Q150 -103 139 -109Q121 -119 117 -127Q103 -141 100 -153Q93 -159 93 -176Q88 -187 91 -197Q93 -208 91 -219Q90 -222 91 -223Q93 -223 96 -222Q96 -252 99 -279Q106 -294 107 -311Q115 -331 123 -352Q124 -365 135 -381Q147 -414 176 -428Q181 -433 188 -421Q193 -416 190 -410Q188 -404 186 -398Q188 -391 181 -368Q172 -357 172 -344Q169 -341 167 -328Q168 -319 164 -307Q159 -292 160 -284Q157 -274 155 -250Q153 -245 155 -232Q157 -221 155 -215Q153 -201 157 -185Q157 -176 156 -167Q156 -160 161 -151Q166 -141 167 -138Q169 -133 170 -126Q171 -118 180 -119Q197 -120 210 -130Q212 -134 209 -140Q206 -145 208 -147Q213 -147 220 -143Q230 -137 236 -138Q253 -144 270 -150Q278 -154 285 -158Q302 -159 319 -157Q332 -157 343 -161Q359 -155 371 -156Q377 -153 382 -158Q388 -164 387 -170Q389 -201 393 -210Q400 -229 403 -248Q413 -291 413 -329Q411 -361 408 -393Q405 -398 403 -405Q400 -417 395 -420Q381 -418 370 -413Q364 -412 359 -411Q353 -410 350 -404L349 -375Q347 -355 344 -335Q346 -333 346 -331Q361 -329 376 -328Q382 -313 389 -310Q393 -311 393 -307Q393 -302 391 -300Q383 -299 375 -294Q372 -295 365 -292Q359 -289 354 -290Q335 -290 313 -292Q295 -298 295 -311Q290 -322 290 -333Q296 -353 301 -373Q300 -377 302 -386Q304 -397 299 -401Q278 -401 274 -385Q277 -374 271 -357Q270 -336 262 -316L250 -276Q249 -271 248 -266Q247 -261 252 -257Q269 -253 281 -262Q285 -263 285 -270Q285 -276 287 -277Q297 -271 311 -270Q325 -269 338 -264Q343 -265 347 -261Q350 -258 350 -252Q342 -244 341 -240Q339 -233 332 -231Q325 -230 319 -229Q313 -228 300 -228L287 -230Q271 -230 268 -229Q258 -226 257 -235Q241 -249 233 -251Q209 -263 215 -285Q214 -297 219 -309Q224 -330 228 -352Q228 -359 230 -367Q232 -376 225 -379Q217 -379 207 -383Q192 -389 197 -395Q209 -401 221 -407Q235 -415 248 -425Q247 -450 246 -475Q245 -491 240 -504Q248 -504 254 -499Q260 -493 267 -489Q279 -475 284 -466Q287 -463 286 -456Q285 -447 290 -444Q299 -447 307 -450Q312 -452 310 -456Q308 -461 309 -465Q312 -486 315 -507Q314 -517 310 -528Q309 -530 304 -535Q298 -541 300 -545Q300 -548 302 -549Q305 -549 309 -548Q318 -549 327 -545Q336 -540 356 -528Q372 -516 364 -496Q363 -483 358 -471Q353 -464 362 -460Q375 -461 391 -458Q394 -454 404 -450Q417 -445 421 -439Q431 -432 443 -410Q449 -404 450 -392Q455 -385 455 -366Q459 -357 458 -343Q458 -318 456 -311Q452 -293 453 -274Q448 -254 451 -225Q448 -221 448 -216Q448 -210 453 -210Q484 -234 515 -259Q534 -278 554 -296Q575 -315 590 -336Q593 -340 590 -342Q585 -343 581 -342Q569 -340 555 -341Q550 -340 532 -343Q519 -349 506 -354Q493 -359 483 -368Q479 -372 482 -375Q485 -378 490 -376Q494 -376 504 -372Q536 -378 555 -378Q572 -381 593 -379Q609 -377 623 -380Q631 -384 639 -397Q646 -409 650 -412Q660 -427 669 -442Q675 -448 683 -464Q691 -479 698 -486Q705 -503 711 -521Q718 -543 713 -554Q707 -570 680 -570Q672 -570 663 -570Q655 -571 648 -574Q641 -577 634 -573Q626 -564 617 -556Q610 -542 596 -541Q591 -545 587 -554Q584 -563 581 -565Q576 -567 574 -574Q573 -577 572 -584Q577 -606 596 -630Q602 -635 605 -647Q608 -659 611 -662ZM345 -606Q357 -606 359 -605Q365 -601 373 -601Q383 -601 385 -590Q382 -580 378 -570Q357 -561 333 -561Q311 -561 305 -558Q263 -554 251 -549Q238 -542 222 -552Q214 -552 190 -560Q163 -569 162 -574Q178 -579 213 -581Q216 -583 232 -585Q253 -590 276 -593Q283 -596 290 -600Q300 -600 309 -600Q315 -605 327 -604Q340 -603 345 -606ZM693 -324Q695 -325 696 -324Q697 -321 695 -317Q694 -307 689 -299Q684 -294 690 -281Q691 -278 689 -272Q686 -264 690 -260Q690 -255 698 -257Q731 -278 760 -287Q781 -297 824 -297Q852 -300 872 -281Q900 -258 892 -221Q882 -215 882 -200Q865 -183 864 -173Q853 -161 847 -146Q843 -142 831 -118Q817 -103 806 -88Q799 -78 789 -71Q788 -65 795 -65Q806 -65 807 -64Q816 -63 825 -63Q836 -64 845 -57Q850 -58 851 -52Q852 -47 849 -43Q850 -35 843 -29Q836 -23 827 -24Q813 -22 798 -24Q794 -26 780 -26Q763 -26 757 -32Q754 -32 750 -32L735 -31Q731 -31 727 -31Q721 -30 701 -32Q694 -29 689 -34Q684 -40 679 -42Q677 -47 682 -48Q686 -49 690 -49Q729 -67 737 -69Q755 -91 773 -113Q775 -117 795 -151Q795 -159 807 -178Q811 -198 820 -206Q820 -215 828 -229Q838 -246 835 -256Q830 -262 823 -260Q816 -258 810 -257Q758 -243 754 -242Q736 -238 718 -235Q707 -229 695 -231Q683 -235 682 -222Q669 -198 668 -180Q663 -159 655 -139Q653 -121 651 -103Q658 -92 657 -80Q660 -72 646 -60Q641 -55 636 -59Q632 -63 628 -65Q619 -64 616 -77Q610 -83 604 -88Q598 -92 598 -101Q594 -110 603 -124Q601 -133 605 -139Q609 -146 610 -153Q611 -156 612 -159L614 -170Q615 -173 616 -176Q619 -182 624 -206Q633 -232 639 -239Q641 -249 658 -281Q659 -282 677 -309Q685 -316 693 -324Z"/>
</svg>