<svg xmlns="http://www.w3.org/2000/svg" viewBox="0 -800 1024 1024">
	<path fill="#000000" d="M638 -748Q642 -749 655 -743Q664 -744 674 -743Q683 -743 689 -734Q699 -730 694 -718Q697 -701 694 -685Q694 -677 691 -669Q688 -661 692 -653Q695 -648 692 -640Q688 -631 690 -627Q689 -621 696 -620Q700 -619 707 -620Q715 -626 733 -622Q740 -615 750 -621Q759 -620 768 -613Q767 -608 763 -598Q760 -594 751 -589Q740 -583 737 -578Q730 -573 722 -574Q713 -568 704 -567Q685 -561 685 -538Q685 -524 682 -516Q683 -511 683 -504Q683 -497 691 -498Q708 -502 724 -506Q741 -510 759 -511Q775 -513 790 -516Q807 -518 824 -515Q834 -516 848 -511Q864 -512 879 -500Q896 -497 901 -477Q907 -473 909 -460Q908 -442 897 -427Q896 -416 877 -409Q862 -394 845 -383Q842 -379 836 -377Q828 -374 826 -371Q824 -366 816 -364Q808 -362 806 -359Q801 -353 794 -352Q788 -353 780 -348Q774 -344 771 -344Q755 -345 744 -331Q742 -329 741 -330Q741 -335 742 -341Q743 -352 732 -341Q724 -340 721 -332Q719 -325 722 -317Q725 -314 722 -307Q720 -301 721 -298Q722 -294 717 -287Q712 -280 715 -275Q720 -270 714 -254Q720 -242 716 -232Q717 -225 715 -217Q714 -210 721 -206Q736 -209 751 -212Q763 -215 774 -216Q782 -217 790 -220Q798 -223 806 -220Q812 -225 824 -219Q833 -223 840 -217Q851 -221 862 -217Q871 -219 872 -212Q869 -207 875 -195Q875 -189 871 -187Q866 -185 863 -182Q856 -173 843 -175Q820 -171 797 -170Q772 -168 747 -166Q741 -163 730 -163Q717 -163 712 -159Q700 -156 699 -145Q697 -135 693 -125Q683 -120 682 -110Q680 -105 672 -101Q666 -98 664 -96Q662 -93 659 -90L650 -77Q648 -74 645 -71Q643 -68 645 -67Q648 -65 651 -64Q662 -65 674 -63Q701 -62 728 -61Q743 -61 775 -55Q788 -52 800 -50Q812 -48 823 -46Q840 -40 857 -34Q864 -34 866 -29Q868 -23 873 -19Q879 -18 884 -10Q886 -1 893 10Q887 17 889 28Q885 32 879 30Q874 29 869 29Q864 31 857 25Q850 19 845 21Q830 13 806 5Q795 0 777 -4Q768 -11 757 -10Q749 -17 733 -19Q716 -25 699 -31Q672 -37 645 -43Q635 -48 626 -48Q616 -48 612 -41Q603 -32 594 -24Q575 -24 564 -10Q557 -10 557 -14Q559 -25 567 -35Q569 -37 568 -43Q567 -49 571 -50Q583 -51 585 -63Q605 -81 625 -113Q626 -117 632 -125Q639 -135 640 -141Q637 -147 627 -144Q621 -142 618 -144Q616 -143 613 -143L604 -141Q601 -141 599 -140Q594 -138 581 -138Q566 -138 560 -133Q546 -133 531 -133Q512 -141 487 -141Q479 -145 476 -145Q471 -153 490 -153Q538 -161 584 -172Q591 -172 605 -177Q620 -182 630 -182Q638 -186 647 -187Q656 -188 662 -195Q659 -207 661 -218Q662 -223 660 -229Q657 -237 659 -240Q663 -256 667 -273Q667 -287 666 -302Q664 -306 665 -315Q666 -323 663 -327Q667 -344 665 -352Q666 -357 658 -372Q655 -374 656 -375Q660 -376 664 -375Q669 -373 677 -373Q688 -373 693 -371Q698 -370 703 -363Q708 -356 712 -355Q724 -356 734 -364Q744 -371 755 -377Q763 -383 769 -391Q776 -399 785 -401Q827 -443 835 -454Q840 -462 832 -467Q823 -474 811 -472Q800 -471 790 -472Q773 -472 761 -469Q745 -466 729 -463Q715 -461 702 -457Q693 -452 688 -456Q681 -460 679 -454Q678 -449 675 -445Q665 -448 657 -438Q645 -438 625 -428Q613 -428 599 -416Q587 -420 576 -416Q565 -413 553 -411Q528 -405 514 -407Q486 -406 462 -415Q448 -417 434 -419Q430 -419 430 -420Q432 -425 440 -425Q472 -436 506 -442Q532 -448 557 -454Q580 -458 604 -466Q608 -470 617 -471Q626 -472 630 -475Q636 -478 632 -483Q629 -487 625 -489Q618 -494 619 -500Q620 -506 621 -512Q624 -529 626 -546Q627 -558 614 -559Q583 -569 579 -570Q573 -571 568 -574Q564 -577 569 -581Q589 -587 608 -594Q610 -596 619 -598Q628 -600 631 -604Q635 -609 634 -620Q633 -629 634 -632Q634 -642 634 -653Q635 -668 635 -696Q639 -720 608 -737Q603 -739 605 -742Q610 -747 616 -743Q627 -745 638 -748ZM381 -656H411Q419 -654 426 -652Q437 -650 446 -640Q450 -636 460 -621Q469 -613 469 -600Q475 -570 469 -555Q465 -554 462 -547Q460 -543 458 -541Q451 -505 435 -489Q433 -483 429 -479Q424 -476 420 -473Q422 -462 408 -451Q404 -448 399 -441Q392 -431 385 -430Q375 -421 369 -407Q366 -400 366 -394Q365 -394 363 -396Q348 -394 344 -407Q335 -408 325 -404Q320 -408 314 -406Q308 -405 303 -404Q294 -403 285 -403Q275 -404 270 -394Q272 -390 272 -371Q276 -368 285 -372Q292 -375 296 -374Q298 -373 319 -373Q333 -373 334 -361Q336 -355 332 -349Q328 -342 322 -345Q320 -343 318 -339Q315 -334 311 -333Q306 -323 298 -316Q290 -310 282 -303Q275 -298 275 -291Q274 -284 272 -277Q272 -270 272 -263Q273 -262 276 -264Q279 -270 284 -270Q290 -270 295 -272Q297 -271 303 -273Q310 -276 314 -273Q315 -274 321 -274L325 -272Q330 -272 332 -273Q342 -272 354 -273Q367 -274 372 -264Q367 -260 363 -250Q358 -237 351 -234Q341 -233 326 -228Q306 -221 296 -221Q291 -217 279 -216Q266 -215 263 -209Q260 -211 257 -207Q253 -203 251 -205Q253 -212 239 -212Q230 -213 221 -210L198 -193Q197 -188 190 -183Q184 -178 182 -176Q176 -173 174 -160Q173 -151 170 -147Q167 -144 163 -134Q160 -126 157 -123Q155 -115 160 -96Q158 -93 159 -87Q160 -80 157 -79Q157 -74 157 -69Q157 -65 151 -63Q148 -57 137 -68Q135 -73 128 -79Q119 -87 118 -93Q101 -110 110 -131Q124 -151 132 -156Q140 -163 146 -173Q152 -183 163 -187Q174 -191 184 -202Q189 -207 198 -210Q206 -213 210 -221Q204 -224 197 -240Q183 -253 192 -269Q203 -279 217 -295Q232 -313 227 -335Q204 -335 180 -335Q172 -339 174 -346Q175 -350 181 -347Q187 -348 220 -356Q236 -354 233 -378Q232 -385 232 -392Q232 -396 225 -396Q217 -395 208 -395Q180 -400 164 -413L147 -411Q131 -419 116 -430Q110 -429 107 -434Q103 -439 100 -440Q79 -465 79 -487Q80 -495 77 -502Q89 -538 106 -567Q108 -569 111 -575Q114 -582 118 -584Q127 -602 141 -619Q146 -621 156 -631Q165 -640 169 -642Q174 -648 182 -645Q191 -641 187 -634Q174 -625 179 -616Q198 -617 216 -624Q220 -624 225 -627Q229 -630 234 -626Q260 -636 285 -641Q305 -644 325 -647Q340 -648 353 -652Q358 -655 369 -655Q378 -655 381 -656ZM386 -617L385 -616Q371 -610 358 -612Q339 -607 319 -603Q301 -600 282 -597Q274 -594 265 -592Q272 -578 279 -564Q277 -544 278 -537Q280 -526 278 -507Q279 -504 277 -498Q275 -492 278 -490Q291 -510 297 -536Q297 -543 304 -552Q309 -554 317 -551L334 -544Q342 -539 350 -535Q358 -529 355 -517Q352 -505 343 -504Q332 -501 321 -499Q312 -495 303 -491Q293 -493 287 -486Q282 -479 276 -474Q274 -458 274 -449Q272 -441 279 -439Q285 -438 291 -442Q290 -446 292 -446Q296 -446 297 -442Q316 -444 334 -443Q348 -447 358 -464Q374 -491 375 -492Q375 -510 383 -524Q390 -538 397 -552Q406 -564 401 -596Q401 -604 397 -611Q393 -618 386 -617ZM176 -604L172 -601Q171 -597 169 -598Q166 -602 162 -604Q160 -584 150 -575Q146 -576 146 -575Q146 -572 145 -569Q147 -558 143 -549Q138 -541 134 -533Q131 -517 128 -502Q129 -488 130 -481Q132 -467 137 -459Q137 -452 142 -448Q147 -444 153 -439Q159 -438 162 -433Q163 -431 167 -422Q175 -421 190 -423L199 -425Q201 -425 203 -426Q218 -427 231 -432Q238 -447 240 -490Q240 -500 242 -524Q243 -539 245 -555Q246 -572 240 -586Q230 -589 220 -593Q209 -597 197 -601Q187 -602 176 -604ZM192 -538Q195 -539 196 -537Q197 -535 196 -532Q200 -521 208 -516Q216 -511 223 -507Q222 -503 225 -500Q234 -494 230 -490Q230 -483 224 -481Q219 -479 214 -485Q212 -478 204 -475Q198 -474 198 -481Q182 -491 178 -507Q178 -528 192 -538ZM524 -351L530 -348Q543 -346 555 -348Q565 -346 569 -346L595 -340Q599 -340 609 -338Q611 -335 616 -333L621 -330Q626 -328 628 -325Q623 -318 626 -316Q627 -306 634 -299Q639 -297 638 -291Q637 -285 631 -287Q623 -279 608 -287Q598 -288 588 -290Q578 -298 564 -306Q541 -319 534 -326Q530 -327 531 -329Q533 -331 538 -333Q537 -337 531 -342Q525 -347 524 -351ZM506 -251H508Q510 -246 521 -246Q532 -247 542 -248Q547 -247 560 -248Q577 -250 583 -246Q595 -246 597 -237Q598 -227 601 -219Q609 -215 602 -201Q587 -198 584 -201Q571 -203 557 -206Q552 -211 536 -218Q516 -227 510 -239Q511 -242 508 -245Q505 -248 506 -251ZM292 -153L294 -151Q302 -153 315 -147Q325 -142 329 -142Q331 -140 332 -138Q336 -129 341 -133Q362 -151 386 -152Q393 -152 400 -152Q421 -150 433 -146Q451 -140 455 -126Q455 -124 459 -116Q463 -108 462 -102Q466 -96 463 -93Q460 -90 454 -90Q450 -94 448 -91Q447 -84 443 -81Q433 -86 413 -100Q410 -104 405 -107Q396 -112 395 -117Q391 -122 392 -128Q391 -137 383 -137Q373 -137 366 -130Q359 -127 350 -124Q340 -121 340 -110Q341 -102 341 -94Q349 -77 331 -68L306 -90Q300 -97 294 -104Q288 -111 288 -121Q294 -127 292 -137Q291 -146 292 -153ZM206 -144Q223 -141 242 -136Q252 -137 260 -129Q267 -121 266 -110Q268 -96 269 -83Q266 -80 262 -75Q258 -71 253 -76Q250 -74 247 -78Q244 -82 241 -81Q224 -94 220 -104Q208 -113 206 -144Z"/>
</svg>