<svg xmlns="http://www.w3.org/2000/svg" viewBox="0 -800 1024 1024">
	<path fill="#000000" d="M194 -679L212 -677Q213 -673 219 -673Q225 -673 226 -671Q236 -660 248 -652Q247 -649 251 -645Q255 -641 255 -638Q258 -633 253 -620Q249 -609 251 -603Q237 -576 234 -566Q233 -559 238 -557Q242 -555 247 -557Q256 -561 267 -564Q278 -566 284 -574Q295 -574 297 -582Q306 -582 309 -585Q314 -588 319 -584Q323 -580 327 -578Q329 -576 334 -579Q339 -582 342 -578Q353 -578 367 -574Q371 -574 378 -568Q382 -564 387 -563Q393 -558 390 -550Q387 -542 381 -540Q374 -536 366 -533Q364 -527 358 -524Q352 -522 346 -520Q330 -502 318 -496Q319 -492 315 -490Q312 -489 307 -490Q289 -474 284 -463Q274 -451 260 -441Q258 -442 257 -441Q249 -440 251 -430Q251 -424 257 -427Q264 -424 278 -424Q296 -423 303 -420Q314 -421 314 -403Q322 -398 318 -391Q314 -383 305 -385Q290 -379 270 -376Q269 -370 277 -369Q284 -367 288 -368L308 -349L330 -340Q335 -335 342 -337Q349 -339 356 -340Q365 -338 374 -335Q380 -336 385 -336Q390 -336 391 -328Q393 -323 388 -322Q381 -320 379 -318Q382 -314 381 -308Q380 -303 373 -304Q360 -298 346 -297Q344 -295 342 -297Q340 -304 334 -301Q335 -292 328 -291Q320 -290 312 -287Q295 -281 278 -276Q269 -275 266 -268Q264 -261 263 -254Q261 -239 259 -224Q257 -213 258 -201Q259 -195 258 -187Q256 -175 258 -170Q261 -163 258 -157Q254 -152 253 -146Q256 -141 256 -130Q254 -113 259 -104Q275 -116 278 -122Q303 -151 325 -187Q329 -192 345 -224Q346 -217 339 -195Q340 -191 336 -185Q332 -179 332 -177Q333 -172 328 -163Q325 -158 325 -154Q316 -138 309 -121Q308 -120 305 -107Q299 -105 297 -89Q291 -84 285 -72Q286 -68 281 -61Q277 -56 278 -52Q276 -47 274 -41Q273 -35 267 -33Q257 -36 247 -43Q233 -50 220 -58Q202 -65 202 -89Q199 -109 201 -130Q204 -161 210 -192Q207 -202 211 -217Q214 -230 214 -234Q215 -240 215 -247Q216 -255 210 -257Q205 -258 183 -253Q177 -251 170 -250Q118 -241 90 -246Q80 -248 70 -251Q57 -252 48 -261Q76 -263 106 -270Q123 -274 223 -304Q228 -319 228 -339Q225 -357 228 -376Q212 -381 205 -392Q202 -399 194 -408Q185 -418 183 -423Q179 -446 198 -453L241 -496Q252 -501 253 -511Q253 -514 247 -514Q246 -512 242 -513Q239 -514 237 -512Q235 -515 228 -514Q221 -513 218 -515Q199 -526 174 -556Q169 -567 169 -575Q178 -576 177 -584Q176 -591 179 -596Q181 -612 189 -627Q195 -633 195 -643Q195 -652 196 -661Q201 -672 194 -679ZM622 -660H624Q645 -660 658 -654Q670 -646 678 -634Q675 -626 683 -620Q688 -618 687 -610Q686 -602 688 -600Q688 -595 683 -560Q677 -544 676 -525Q671 -513 675 -502Q670 -484 668 -465Q666 -459 669 -453Q672 -447 678 -449Q704 -459 725 -463Q745 -466 766 -466Q773 -467 793 -463Q840 -455 858 -428Q859 -424 864 -420Q870 -415 871 -412Q869 -406 875 -398Q881 -390 880 -384Q885 -358 883 -349Q879 -336 883 -321Q884 -307 887 -292Q885 -274 883 -265Q878 -255 883 -239Q881 -224 879 -210Q873 -197 879 -174Q880 -167 878 -152Q876 -132 879 -122Q877 -104 875 -95Q877 -85 875 -63Q870 -42 864 -22Q861 -19 860 -14Q858 -6 855 -4Q848 -3 846 2Q844 8 842 13Q838 17 833 17Q826 17 815 6Q813 -3 800 -12Q799 -25 778 -39Q769 -46 787 -50Q790 -54 798 -56Q807 -59 810 -62Q818 -77 818 -98Q818 -124 819 -127Q818 -138 822 -147Q823 -158 824 -170Q822 -183 825 -194Q826 -210 827 -226Q825 -254 827 -283Q827 -357 815 -393Q812 -412 787 -419Q772 -427 749 -421Q734 -421 710 -411Q698 -409 688 -402Q676 -396 664 -393Q654 -389 653 -380Q651 -370 646 -363Q647 -357 639 -332Q631 -326 625 -312Q620 -300 615 -295Q615 -288 622 -289Q629 -290 634 -288Q653 -290 667 -286Q697 -285 741 -272Q756 -260 759 -246Q762 -239 755 -234Q749 -228 745 -222Q731 -224 717 -226Q690 -236 663 -247Q657 -250 608 -266Q593 -269 587 -254Q581 -242 572 -241Q564 -238 555 -237Q546 -236 540 -230Q534 -229 533 -233Q532 -238 537 -240Q547 -244 561 -268Q575 -296 585 -325Q588 -340 593 -353Q588 -359 584 -357Q579 -355 574 -352Q557 -356 550 -349Q538 -350 516 -344Q497 -334 497 -306Q493 -286 489 -267Q490 -257 488 -245Q483 -228 486 -208Q481 -183 483 -173Q480 -161 482 -146Q479 -128 483 -109Q485 -81 481 -71Q477 -70 462 -63Q433 -77 409 -113Q402 -133 406 -149Q410 -158 407 -168Q413 -179 415 -191Q419 -217 425 -241Q430 -261 434 -281Q436 -284 441 -301Q454 -353 485 -415Q489 -420 493 -429Q499 -443 504 -447Q511 -444 517 -438Q526 -430 533 -402Q536 -396 528 -389Q521 -382 522 -377Q525 -372 530 -374Q535 -377 540 -378Q573 -403 604 -415Q608 -416 613 -428Q613 -438 613 -448Q610 -461 612 -472Q612 -493 616 -512Q620 -532 620 -553Q625 -584 622 -616Q625 -633 610 -638Q605 -641 600 -642Q594 -644 592 -649Q591 -654 594 -655Q599 -654 606 -654Q610 -658 622 -660Z"/>
</svg>