<svg xmlns="http://www.w3.org/2000/svg" viewBox="0 -800 1024 1024">
	<path fill="#000000" d="M618 -693H620Q629 -690 640 -689Q651 -688 660 -680Q664 -675 669 -669Q674 -663 672 -655Q675 -637 675 -636Q682 -616 679 -606Q673 -587 675 -565Q673 -552 671 -540Q676 -531 672 -515Q668 -499 670 -479Q670 -474 674 -473Q680 -471 685 -474Q696 -487 708 -474Q711 -466 724 -471Q731 -471 738 -472Q744 -473 749 -466Q749 -462 754 -457Q759 -452 759 -447Q750 -435 749 -431Q739 -420 715 -414L685 -405Q679 -406 672 -395Q665 -381 662 -366Q665 -361 662 -354Q659 -345 660 -341Q652 -328 668 -323Q698 -328 706 -328Q711 -332 724 -331Q736 -330 741 -333Q759 -337 777 -341Q789 -344 801 -347Q808 -354 819 -351Q825 -353 834 -349Q842 -346 847 -346Q868 -351 877 -348Q881 -348 881 -341Q881 -335 882 -334Q882 -329 889 -328Q897 -327 897 -322Q894 -319 887 -304Q884 -303 879 -299Q873 -294 869 -295Q858 -296 849 -293Q827 -291 805 -289Q790 -285 773 -285Q767 -283 755 -281Q737 -277 718 -277Q708 -273 698 -273Q678 -272 661 -267Q654 -266 652 -259Q650 -253 647 -248Q640 -238 649 -228Q657 -219 669 -218Q684 -216 697 -207Q710 -198 723 -189Q742 -171 764 -160Q787 -149 808 -135Q813 -133 861 -109Q872 -103 883 -97Q892 -94 918 -81Q927 -80 934 -74Q941 -68 948 -62Q953 -61 954 -54Q956 -46 959 -44Q966 -42 961 -29Q958 -26 955 -17Q953 -10 950 -7Q944 1 933 -7Q923 -10 916 -1Q894 -14 872 -21Q864 -26 838 -38Q818 -51 799 -62Q785 -68 769 -79Q706 -126 676 -153Q658 -174 631 -184Q618 -188 614 -172Q605 -154 593 -137Q586 -127 555 -104Q553 -99 545 -96Q537 -92 535 -88Q533 -83 528 -83Q523 -83 519 -81Q513 -80 490 -67Q474 -63 461 -56Q460 -64 466 -68Q472 -72 477 -76Q505 -102 529 -133Q560 -174 566 -200Q573 -216 575 -233Q575 -241 577 -248Q569 -254 545 -249Q533 -246 520 -244Q495 -243 473 -236Q443 -237 412 -258Q397 -269 390 -254Q389 -250 387 -247L381 -233Q380 -229 378 -226Q367 -192 367 -185Q369 -180 366 -175Q363 -171 362 -166Q363 -160 354 -147Q353 -138 337 -111Q334 -103 330 -95Q321 -88 317 -77Q312 -67 304 -58Q299 -45 290 -38Q285 -26 274 -31Q268 -30 264 -33Q260 -37 256 -39Q251 -40 245 -48Q241 -54 237 -55Q226 -66 220 -89Q223 -100 226 -112Q221 -131 227 -146Q227 -159 227 -172Q232 -204 232 -210Q235 -228 235 -246Q231 -252 224 -252Q215 -250 205 -248Q186 -245 166 -243Q159 -242 144 -242Q131 -241 96 -253Q94 -256 86 -258Q79 -260 80 -264Q90 -268 101 -269Q108 -269 120 -273Q132 -278 140 -277Q188 -291 236 -305Q243 -312 244 -322Q244 -332 246 -341Q245 -346 246 -356Q248 -370 243 -375Q227 -381 211 -387Q207 -386 206 -390Q205 -394 209 -394Q222 -395 234 -401Q271 -415 284 -417Q297 -423 313 -426Q327 -426 341 -431Q346 -432 350 -425Q355 -417 360 -419Q365 -421 366 -417Q366 -411 368 -406Q371 -398 363 -395Q356 -392 350 -389Q333 -385 315 -381Q310 -381 303 -381Q295 -380 294 -374Q302 -360 309 -346Q305 -338 313 -335Q325 -337 337 -343Q341 -343 343 -350Q345 -356 349 -356Q356 -347 367 -349Q371 -354 380 -350Q387 -347 390 -348Q399 -356 415 -346Q422 -341 416 -331Q415 -326 408 -322Q401 -318 400 -314Q398 -308 392 -306Q386 -305 381 -302Q376 -302 367 -297Q358 -292 352 -293Q334 -288 330 -286Q323 -283 316 -281Q301 -280 296 -252Q296 -238 292 -210Q288 -205 288 -193Q288 -181 287 -178Q281 -160 286 -140Q281 -121 290 -123Q316 -150 342 -178Q351 -191 359 -204Q367 -220 374 -236Q374 -245 385 -261Q394 -274 404 -283Q407 -281 408 -277Q409 -272 412 -270Q429 -269 448 -271Q455 -274 465 -275Q480 -276 485 -279Q511 -285 536 -291Q559 -296 581 -302Q589 -301 597 -305Q606 -309 606 -317Q609 -342 611 -368Q609 -381 613 -391Q610 -398 604 -396Q599 -394 594 -392L580 -386Q573 -387 566 -381Q564 -379 556 -370Q542 -367 530 -362Q525 -364 515 -368Q504 -372 503 -376Q504 -383 500 -387Q495 -390 493 -395Q492 -402 497 -411Q502 -421 501 -425Q503 -437 507 -446Q514 -468 531 -486Q536 -497 533 -508Q531 -513 534 -514Q538 -515 541 -512Q553 -500 570 -489Q579 -482 581 -462Q582 -455 580 -439Q583 -434 592 -438Q598 -441 602 -440Q613 -443 621 -450Q620 -469 619 -488Q616 -528 618 -566Q621 -628 618 -640Q618 -660 601 -679Q596 -681 593 -687Q592 -690 597 -691Q607 -688 618 -693ZM216 -685Q222 -686 227 -679Q239 -677 250 -675Q263 -673 276 -669Q290 -665 299 -654Q297 -637 295 -601Q289 -592 287 -580Q287 -576 277 -557Q278 -552 290 -554Q314 -563 342 -566Q351 -572 367 -568Q371 -564 383 -567Q395 -570 400 -566Q403 -556 416 -558Q421 -548 425 -547Q432 -548 432 -542Q432 -534 425 -531Q416 -525 407 -519Q399 -511 390 -517Q389 -517 359 -511Q351 -508 336 -509Q321 -509 314 -507Q305 -504 294 -504Q283 -504 276 -496Q269 -490 262 -489Q244 -493 239 -488Q227 -489 218 -471Q210 -459 201 -447Q200 -441 195 -435L185 -425Q184 -420 176 -414Q167 -408 166 -403Q162 -401 158 -394Q154 -387 151 -386Q145 -388 140 -379Q136 -371 131 -373Q124 -376 120 -372Q115 -368 110 -366Q105 -361 101 -356Q97 -351 91 -350Q90 -357 98 -365Q104 -371 105 -375Q110 -382 114 -390L131 -418Q136 -425 140 -433Q155 -454 168 -481Q181 -512 198 -540Q209 -567 216 -595Q220 -610 224 -626Q232 -643 220 -663Q211 -674 216 -685Z"/>
</svg>