<svg xmlns="http://www.w3.org/2000/svg" viewBox="0 -800 1024 1024">
	<path fill="#000000" d="M722 -656H733Q739 -654 753 -654Q768 -654 775 -650Q783 -649 789 -643Q791 -641 798 -640Q805 -639 806 -635Q838 -612 844 -577Q845 -564 849 -554Q855 -547 853 -528Q852 -514 855 -507Q857 -490 853 -475Q857 -457 860 -440L858 -411Q856 -403 859 -393Q862 -382 860 -376Q860 -363 857 -349L860 -326Q860 -314 859 -302Q857 -292 862 -283Q865 -271 861 -245Q859 -230 859 -220Q862 -217 859 -211Q857 -207 859 -205L860 -154Q862 -149 861 -138Q860 -126 863 -121Q861 -110 859 -100Q862 -94 859 -83Q857 -74 859 -69Q858 -48 854 -28Q852 -24 850 -12Q848 0 843 6Q837 14 833 31Q827 36 822 50Q821 62 810 62Q800 62 797 54Q791 50 783 39Q783 31 774 29Q766 27 759 30Q756 28 753 24Q750 20 755 17Q769 10 780 -4Q790 -38 790 -73Q790 -94 790 -115Q791 -125 790 -147Q789 -174 792 -187Q786 -199 792 -216Q790 -231 793 -255Q796 -279 795 -288Q797 -363 795 -400Q798 -426 794 -453Q793 -490 792 -527Q788 -545 786 -563Q784 -582 775 -597Q769 -618 742 -618Q732 -620 715 -615Q698 -610 690 -610Q681 -605 658 -601Q652 -600 640 -594Q627 -588 619 -587Q612 -583 604 -580Q578 -580 526 -592Q524 -593 523 -593Q526 -595 536 -597Q546 -598 560 -608Q575 -619 583 -619Q595 -631 626 -637Q634 -642 655 -645Q668 -647 676 -650Q699 -653 722 -656ZM337 -635H350Q364 -634 375 -630Q388 -631 391 -618Q407 -606 413 -603Q419 -603 419 -598Q419 -593 419 -587Q422 -578 414 -576Q406 -573 399 -571Q386 -569 378 -576Q357 -581 341 -594Q327 -600 314 -607Q311 -611 300 -614Q288 -617 284 -623Q297 -625 310 -628Q323 -634 337 -635ZM212 -534Q219 -529 217 -518Q216 -511 209 -502Q198 -461 183 -424Q184 -415 181 -396Q178 -379 180 -370Q182 -357 180 -344Q178 -331 177 -318Q174 -306 177 -291Q173 -256 174 -236Q167 -223 174 -199Q173 -189 174 -179Q175 -175 175 -141Q180 -119 175 -95Q170 -90 172 -84Q175 -78 177 -73Q179 -60 181 -50Q170 -41 167 -31Q155 -28 146 -35Q137 -43 128 -52Q127 -56 121 -60Q112 -66 113 -71Q118 -84 103 -89Q100 -94 97 -114Q105 -160 112 -206Q114 -213 119 -259Q121 -284 125 -309Q125 -319 134 -355Q134 -379 138 -395Q142 -409 144 -425Q146 -440 156 -453Q160 -469 171 -482Q182 -495 192 -508Q198 -523 212 -534ZM408 -508Q421 -506 428 -504Q438 -502 442 -499Q448 -495 447 -486Q447 -480 451 -480Q458 -481 464 -485Q471 -484 482 -486Q497 -489 505 -486Q524 -489 538 -478Q545 -471 548 -462Q556 -449 548 -436Q545 -422 538 -408Q520 -386 516 -371Q510 -367 501 -353Q493 -342 486 -336Q484 -331 488 -330Q493 -329 497 -331Q523 -331 548 -335Q568 -336 588 -337Q602 -338 615 -340Q627 -335 630 -333Q639 -328 641 -321Q644 -310 621 -294Q616 -292 604 -293Q592 -294 585 -290H572Q563 -290 558 -289Q534 -288 510 -288Q501 -285 491 -286Q481 -286 479 -276Q482 -267 477 -261Q471 -255 466 -248Q465 -245 463 -239Q460 -234 465 -232Q483 -240 500 -246Q539 -270 570 -270Q585 -271 600 -272Q601 -271 626 -252Q640 -241 642 -227Q644 -220 640 -214Q636 -208 634 -202Q622 -178 609 -155Q602 -151 598 -144Q595 -137 590 -131Q586 -129 584 -122Q582 -116 589 -114L612 -111Q619 -111 624 -107Q631 -102 630 -95Q625 -88 619 -81Q614 -74 605 -74Q595 -72 585 -71Q551 -74 516 -77Q500 -72 483 -71Q472 -71 461 -71Q440 -72 426 -90Q421 -93 420 -102Q419 -113 414 -115Q409 -117 407 -122Q406 -127 403 -130Q391 -133 391 -146Q400 -187 416 -224Q438 -260 441 -263Q457 -276 449 -282Q444 -280 438 -273Q429 -263 424 -262Q422 -258 406 -242Q403 -234 389 -225Q377 -218 373 -212Q367 -212 358 -204Q351 -197 348 -196Q339 -199 326 -190Q323 -184 316 -187Q308 -190 306 -196Q313 -201 320 -206Q328 -211 331 -220Q349 -249 373 -276Q377 -280 376 -282Q369 -285 362 -286Q349 -288 336 -291Q319 -293 301 -295Q292 -294 290 -301Q290 -303 294 -303Q350 -314 406 -317Q418 -326 440 -359Q454 -373 462 -390Q469 -407 478 -423Q481 -431 484 -442Q486 -453 478 -460Q470 -456 463 -455Q455 -454 450 -447Q433 -452 430 -442Q428 -434 418 -426Q409 -412 399 -423Q395 -426 393 -434Q387 -440 386 -450Q385 -459 383 -465Q381 -471 388 -482Q390 -483 408 -508ZM559 -228Q558 -228 540 -222Q530 -218 520 -215Q514 -211 506 -212Q496 -206 481 -210Q469 -213 460 -217Q457 -217 455 -211Q446 -200 445 -187Q445 -175 445 -163Q446 -154 446 -146Q447 -135 451 -125Q447 -117 450 -106Q453 -96 463 -101Q467 -101 475 -104Q482 -107 487 -105Q493 -106 520 -112Q528 -113 533 -124Q540 -139 542 -141Q554 -178 566 -216Q568 -219 566 -224Q564 -229 559 -228Z"/>
</svg>