<svg xmlns="http://www.w3.org/2000/svg" viewBox="0 -800 1024 1024">
	<path fill="#000000" d="M294 -698H304Q323 -688 342 -679Q356 -675 358 -653Q355 -638 352 -623Q347 -614 342 -605Q338 -605 339 -600Q339 -596 338 -593Q332 -590 330 -580Q329 -577 324 -572Q319 -568 319 -566Q337 -568 369 -578Q388 -583 407 -586Q415 -584 424 -586Q434 -588 438 -580Q437 -576 442 -573Q446 -571 445 -567Q451 -556 444 -548Q435 -540 423 -537Q410 -532 393 -531Q385 -528 365 -528Q346 -528 337 -525Q327 -524 317 -527Q295 -533 290 -532Q270 -510 265 -496Q262 -494 256 -484Q252 -477 246 -473Q238 -464 235 -454Q226 -440 199 -417Q198 -405 185 -400L171 -391Q172 -385 166 -385Q159 -384 158 -382Q155 -378 146 -375Q139 -373 135 -369Q133 -365 129 -365Q125 -365 123 -369Q119 -373 123 -377Q127 -380 130 -382Q131 -387 138 -396Q144 -403 145 -407Q150 -417 158 -424Q165 -441 172 -458Q177 -462 184 -476Q191 -490 198 -496Q207 -516 223 -537Q230 -544 236 -555Q243 -568 247 -572Q252 -583 256 -595Q262 -599 265 -609Q268 -619 273 -621Q280 -626 285 -638Q289 -648 293 -652Q297 -664 297 -671Q298 -674 296 -675Q292 -676 288 -675Q283 -672 279 -675Q276 -677 276 -683Q275 -689 282 -693Q284 -694 294 -698ZM728 -687H733Q748 -682 765 -681Q777 -674 792 -669Q797 -669 798 -663Q798 -658 800 -654Q811 -646 809 -640Q812 -620 813 -619Q809 -607 816 -596Q820 -574 816 -549Q811 -544 819 -529Q818 -516 817 -503Q814 -499 816 -492Q818 -486 817 -483Q814 -473 821 -464Q821 -458 821 -452Q818 -421 817 -417Q822 -409 823 -397Q821 -384 819 -372Q821 -360 823 -348Q824 -331 825 -314Q827 -310 825 -303Q822 -292 825 -287Q828 -283 827 -273Q826 -263 828 -259Q827 -248 825 -238Q827 -223 828 -208Q831 -196 831 -180Q828 -165 832 -134Q830 -128 833 -98Q832 -90 833 -74Q835 -51 831 -40Q827 -22 825 -2Q827 15 815 20Q810 21 810 32Q804 38 798 32Q795 30 789 34Q782 38 779 33Q775 30 771 23Q767 16 763 14Q748 -3 744 -14Q740 -16 737 -22Q733 -30 729 -31Q725 -36 729 -38Q734 -41 739 -39Q749 -41 758 -48Q763 -68 763 -88Q764 -97 764 -106Q764 -119 763 -133Q763 -157 766 -164Q767 -183 767 -202Q767 -230 766 -259Q760 -281 764 -302L760 -444Q759 -465 757 -487Q757 -502 757 -517Q757 -531 756 -546Q754 -599 744 -634Q742 -646 734 -655Q725 -664 713 -662Q700 -661 690 -658Q681 -655 676 -658Q681 -666 689 -669Q697 -673 705 -677Q708 -678 711 -679L722 -685Q726 -687 728 -687ZM612 -500Q619 -501 621 -489Q625 -478 626 -464Q628 -446 629 -428Q637 -416 632 -399Q629 -394 631 -380Q632 -370 631 -365Q628 -357 626 -347Q628 -335 627 -328Q623 -320 620 -311Q616 -301 606 -297Q587 -305 576 -324Q557 -343 563 -369Q566 -375 566 -393Q571 -408 576 -423Q579 -434 582 -446Q588 -462 582 -465Q579 -466 574 -464Q570 -462 568 -466Q568 -481 574 -484Q579 -487 590 -490Q606 -494 612 -500ZM396 -461Q415 -461 418 -459Q420 -454 421 -450Q420 -445 423 -442Q427 -440 431 -437Q428 -430 432 -422Q435 -418 424 -414Q412 -409 397 -407Q378 -404 358 -402Q353 -399 355 -395Q357 -391 360 -387Q367 -380 356 -373Q353 -370 356 -363Q358 -358 357 -355Q350 -342 360 -339Q364 -339 373 -343Q385 -348 393 -347Q405 -349 403 -364Q406 -366 412 -363Q419 -359 423 -361Q427 -363 433 -359Q438 -356 442 -356Q456 -361 479 -361Q487 -361 487 -354Q488 -348 489 -341Q487 -332 474 -317Q472 -314 466 -313Q459 -312 457 -309Q429 -300 400 -292Q385 -287 370 -283Q359 -284 353 -274Q349 -268 346 -254Q343 -243 340 -233Q340 -228 338 -204Q339 -198 335 -187Q332 -179 332 -172Q334 -166 332 -157Q329 -145 331 -140Q330 -135 334 -135Q338 -135 341 -137Q359 -154 396 -187Q441 -227 463 -249Q470 -259 477 -269Q482 -278 483 -272Q473 -253 464 -231Q459 -228 460 -220Q461 -213 459 -210Q451 -205 451 -198Q433 -175 422 -153Q409 -136 395 -120Q386 -114 371 -93Q351 -80 346 -69Q341 -59 332 -65Q323 -63 318 -68Q305 -74 294 -81Q276 -95 272 -111Q271 -132 270 -154Q272 -168 276 -181Q275 -194 282 -238Q282 -248 282 -258Q280 -264 275 -263Q269 -263 265 -262Q238 -257 237 -256Q221 -253 204 -251Q195 -250 185 -249Q168 -251 133 -264Q121 -267 113 -271Q121 -278 135 -280Q162 -286 188 -293Q216 -300 223 -303Q227 -303 236 -306Q245 -309 251 -308Q257 -313 269 -313Q274 -318 291 -320Q299 -322 301 -329Q303 -336 305 -343Q307 -355 309 -367Q308 -376 310 -385Q312 -394 305 -400Q298 -401 290 -403Q279 -402 272 -407Q264 -412 256 -415Q252 -418 255 -421Q258 -423 263 -422Q267 -426 279 -428Q291 -430 302 -436Q336 -449 343 -451Q357 -455 371 -460Q382 -457 396 -461Z"/>
</svg>