<svg xmlns="http://www.w3.org/2000/svg" viewBox="0 -800 1024 1024">
	<path fill="#000000" d="M435 -684Q444 -684 453 -681Q457 -682 462 -680Q467 -678 469 -679Q478 -676 483 -669Q488 -662 494 -657Q505 -642 500 -622Q495 -617 482 -597Q483 -592 476 -589Q471 -587 471 -585Q467 -584 463 -577Q458 -569 455 -568Q449 -569 447 -565Q444 -561 446 -555Q425 -549 402 -547Q390 -539 380 -543Q369 -547 360 -553Q355 -548 348 -552Q343 -552 342 -561Q341 -567 339 -569Q334 -581 326 -594Q323 -609 329 -622Q334 -635 337 -648Q339 -653 333 -659Q327 -665 330 -668Q338 -673 344 -667Q348 -667 354 -661Q360 -655 365 -656Q381 -663 397 -671Q409 -676 435 -684ZM240 -671Q253 -670 265 -670Q276 -671 288 -668Q292 -666 293 -665L304 -658Q307 -656 309 -655Q316 -616 298 -605Q291 -582 275 -587Q268 -584 271 -579Q273 -574 275 -570Q267 -557 253 -553Q238 -550 227 -543Q225 -538 216 -535Q209 -532 208 -528Q204 -529 201 -525Q197 -521 194 -521Q179 -536 175 -544Q158 -559 141 -574Q134 -595 144 -619Q148 -622 150 -628Q151 -633 153 -635Q161 -651 183 -660Q186 -662 189 -660Q193 -657 194 -657Q223 -664 240 -671ZM441 -651Q429 -648 426 -648Q422 -641 412 -641Q407 -642 400 -637Q394 -632 389 -634Q383 -638 372 -636Q368 -638 366 -634Q364 -629 366 -627Q370 -616 366 -608Q370 -603 368 -597Q366 -592 365 -587Q366 -584 364 -577Q362 -570 366 -569Q375 -570 390 -577Q405 -584 414 -585Q422 -584 422 -590Q423 -596 426 -600Q436 -620 445 -640Q447 -643 446 -648Q445 -652 441 -651ZM250 -639L241 -638Q234 -637 227 -636Q218 -636 210 -635Q205 -635 206 -628Q200 -621 204 -614Q207 -608 207 -601Q195 -585 204 -573Q222 -579 239 -583Q255 -609 255 -627Q254 -629 254 -634Q254 -640 250 -639ZM756 -590Q766 -587 772 -582Q780 -579 781 -571Q782 -564 785 -558Q796 -541 784 -522Q776 -509 767 -486Q760 -472 753 -458Q753 -455 749 -449Q744 -443 745 -438Q735 -420 766 -407Q801 -394 832 -387Q851 -377 870 -367Q874 -366 876 -360Q878 -355 880 -353Q886 -352 888 -346Q892 -336 892 -335Q904 -316 901 -294Q899 -290 897 -278Q895 -266 891 -260Q890 -244 871 -227Q863 -228 854 -217Q848 -209 844 -208Q840 -206 835 -199Q830 -192 826 -190Q825 -195 820 -194Q818 -194 814 -191Q808 -191 805 -183Q802 -175 798 -173Q783 -162 763 -158Q759 -162 746 -163Q737 -164 732 -166Q731 -173 724 -173Q717 -174 711 -176Q709 -177 707 -178Q709 -178 711 -180Q750 -187 770 -208Q789 -220 809 -247Q821 -264 834 -280Q846 -297 845 -319Q846 -328 840 -334Q835 -340 832 -346Q800 -357 768 -369Q749 -373 726 -394Q697 -413 701 -457Q708 -493 720 -513Q720 -518 725 -526Q731 -538 729 -544Q705 -538 682 -528Q661 -521 643 -510Q636 -487 641 -478Q640 -474 644 -467Q647 -462 647 -458Q652 -448 650 -435Q652 -413 649 -397Q650 -389 651 -382Q649 -361 647 -341Q646 -318 645 -296Q643 -274 645 -227Q648 -223 645 -213Q643 -205 644 -201Q641 -190 646 -181Q643 -158 645 -133Q648 -109 645 -83Q644 -77 647 -63Q651 -45 645 -36Q647 -22 642 -11Q638 -1 635 11Q630 16 634 27Q637 35 635 40Q631 46 632 61Q633 74 631 80Q628 85 625 93Q622 100 615 98Q599 108 582 112Q580 103 587 77Q591 56 588 37Q590 25 588 7Q586 -11 587 -18Q586 -22 586 -53Q588 -66 589 -80Q588 -88 590 -100Q593 -118 589 -125Q592 -143 590 -160L589 -214Q589 -229 589 -244Q589 -252 590 -260Q592 -268 587 -274Q591 -286 588 -302Q592 -308 590 -319Q589 -329 590 -332Q593 -349 590 -364Q594 -368 593 -376Q592 -384 595 -387L594 -411Q597 -423 595 -435Q591 -440 590 -452Q589 -462 588 -466Q590 -494 563 -502Q555 -504 558 -510Q560 -516 566 -517Q568 -522 573 -521Q577 -520 582 -522Q586 -528 598 -524Q610 -526 621 -529Q650 -545 678 -562Q690 -569 705 -573Q712 -578 721 -581ZM342 -517L359 -515Q371 -516 392 -510Q399 -493 382 -485Q374 -484 362 -480Q334 -470 302 -468Q293 -464 276 -467Q259 -470 251 -468Q240 -469 228 -476Q250 -489 275 -497Q312 -511 342 -517ZM435 -432L447 -430Q469 -437 475 -424Q475 -417 475 -410Q473 -401 453 -393Q449 -387 437 -386Q427 -385 424 -383Q403 -378 383 -375Q376 -373 369 -371Q353 -371 338 -368Q332 -367 332 -362Q332 -357 336 -353Q338 -344 336 -333Q334 -321 335 -309Q345 -306 356 -309Q367 -309 378 -309Q413 -313 440 -285Q444 -283 446 -276Q448 -269 452 -266Q457 -264 456 -256Q455 -250 458 -246Q466 -243 464 -230Q463 -221 465 -217Q461 -199 456 -181Q449 -172 445 -161Q442 -152 430 -136Q417 -118 414 -108Q408 -96 391 -76Q391 -71 382 -66Q374 -62 373 -56Q367 -53 365 -48Q362 -43 359 -40Q353 -42 347 -44Q340 -45 339 -51Q337 -58 333 -62Q329 -84 311 -102Q306 -108 306 -111Q313 -113 329 -110Q341 -108 349 -108Q363 -113 371 -127Q378 -140 385 -152Q405 -199 408 -215Q410 -226 411 -237Q409 -258 407 -262Q401 -272 392 -271Q383 -271 374 -269Q343 -262 314 -252Q306 -252 295 -245Q288 -247 279 -242Q272 -238 268 -239Q263 -245 259 -257Q254 -270 250 -275Q250 -285 255 -292Q264 -303 264 -308Q274 -319 286 -339Q290 -343 287 -348Q283 -354 279 -350Q273 -347 267 -345Q256 -347 244 -344Q210 -336 175 -329Q168 -330 155 -326Q146 -323 139 -323Q138 -323 115 -330Q100 -335 84 -340Q79 -342 74 -344Q73 -345 75 -348Q108 -355 119 -358Q127 -358 141 -362Q146 -366 156 -366Q167 -367 171 -369L193 -370Q197 -375 203 -374Q209 -374 214 -375Q218 -379 230 -381Q238 -383 245 -385Q259 -386 273 -390Q286 -395 299 -401Q309 -403 318 -405Q342 -413 347 -413Q356 -418 367 -417Q370 -420 379 -420Q387 -420 391 -423Q403 -430 409 -427Q416 -428 435 -432Z"/>
</svg>