<svg xmlns="http://www.w3.org/2000/svg" viewBox="0 -800 1024 1024">
	<path fill="#000000" d="M673 -682L675 -671Q674 -667 678 -665Q681 -663 684 -665Q684 -660 688 -660Q691 -660 694 -662Q708 -662 714 -656Q722 -658 730 -652Q738 -646 737 -638Q736 -635 737 -629Q739 -620 734 -617Q720 -609 708 -598Q705 -594 698 -591Q690 -588 687 -584Q676 -585 671 -575Q670 -570 665 -569Q660 -561 652 -559Q644 -557 636 -554Q631 -555 630 -549Q628 -542 627 -541Q625 -537 619 -537Q615 -537 612 -535Q612 -526 606 -521Q600 -517 593 -512Q588 -512 582 -503Q575 -494 570 -496Q564 -490 558 -483Q552 -475 543 -471Q539 -464 545 -460Q550 -456 552 -451Q548 -438 556 -425Q563 -406 557 -389Q561 -373 560 -358Q557 -344 558 -331Q557 -315 557 -302Q554 -294 553 -285Q552 -276 546 -269Q546 -242 537 -224Q531 -222 531 -212Q531 -205 528 -203Q529 -185 518 -161Q514 -156 518 -154Q519 -154 527 -152L560 -148Q577 -145 593 -142Q600 -144 605 -142Q611 -140 617 -142Q632 -140 647 -138Q662 -135 673 -147Q677 -151 687 -169Q697 -176 702 -186Q707 -195 712 -203Q725 -222 737 -242Q751 -264 760 -288Q766 -316 771 -330Q775 -356 772 -365Q769 -377 744 -374Q740 -373 735 -372L719 -367Q716 -367 710 -365Q706 -361 698 -361Q686 -361 682 -369Q669 -374 655 -380Q651 -382 645 -381Q639 -381 638 -387Q645 -393 641 -395Q637 -398 639 -402Q642 -407 646 -403Q657 -405 684 -414Q706 -422 721 -424Q743 -428 755 -428Q780 -428 800 -418Q801 -407 810 -409Q817 -404 827 -391Q825 -376 830 -369Q836 -368 838 -361Q840 -354 835 -352Q833 -337 836 -324Q835 -317 827 -288Q820 -275 817 -260Q807 -234 794 -208Q790 -207 788 -201Q786 -195 781 -194Q777 -193 773 -184Q771 -179 768 -177Q763 -174 758 -165Q752 -156 749 -153Q743 -149 735 -144Q727 -140 728 -132Q749 -125 770 -118Q785 -114 800 -110Q802 -105 811 -103Q819 -102 821 -97Q825 -101 831 -97Q836 -94 839 -96Q865 -86 890 -77Q902 -73 912 -67Q926 -63 949 -48Q955 -37 966 -30Q972 -29 972 -23Q972 -21 971 -13Q973 -7 973 -4L974 3Q974 6 976 12Q975 17 969 22Q962 28 962 31Q944 29 929 21Q920 15 900 6Q898 2 891 1Q884 0 881 -3Q876 -7 870 -9Q848 -16 840 -21Q821 -29 801 -38Q786 -45 770 -52Q755 -59 739 -64Q717 -75 694 -81Q689 -80 685 -83Q680 -86 677 -83Q676 -87 670 -85Q664 -83 662 -87Q656 -81 641 -72Q628 -65 620 -57Q616 -59 609 -54Q602 -49 597 -50Q594 -48 587 -48Q579 -48 575 -42Q568 -42 569 -47Q571 -54 572 -61Q581 -63 606 -76Q617 -85 619 -94Q611 -98 595 -102Q580 -106 568 -113Q545 -123 522 -131Q505 -137 500 -125Q492 -95 476 -87Q474 -81 469 -81Q464 -82 459 -81Q453 -87 445 -94Q435 -111 436 -115Q428 -123 435 -140Q455 -152 462 -180Q469 -190 475 -215Q479 -231 483 -240Q499 -305 503 -328Q508 -366 505 -407Q505 -412 504 -414V-429Q503 -431 503 -436Q504 -443 499 -451Q493 -461 495 -467Q489 -473 495 -479Q498 -482 507 -488Q512 -491 516 -500Q520 -509 526 -511Q537 -506 539 -518Q545 -520 553 -530Q561 -540 567 -542Q571 -540 572 -544Q572 -550 574 -554Q578 -552 581 -559Q585 -566 589 -566Q593 -573 598 -581Q602 -590 609 -590Q611 -599 616 -604Q625 -615 632 -628Q637 -626 641 -632Q644 -637 647 -637Q649 -645 662 -665Q662 -670 668 -675Q671 -678 673 -682ZM230 -668L249 -666Q250 -662 256 -662Q261 -662 262 -660Q273 -649 285 -641Q284 -638 288 -634Q292 -630 292 -627Q296 -621 291 -609Q286 -598 288 -593Q273 -565 270 -556Q269 -549 274 -547Q278 -545 284 -547Q293 -551 304 -554Q315 -556 321 -564Q333 -564 335 -572Q344 -572 348 -575Q353 -578 357 -574Q361 -570 365 -568Q367 -566 372 -569Q378 -572 381 -568Q393 -568 407 -564Q411 -564 417 -559Q423 -554 427 -553Q433 -548 430 -540Q427 -532 420 -530Q413 -526 406 -523Q404 -517 397 -514Q391 -512 385 -510Q370 -493 357 -486Q358 -482 354 -480Q349 -479 345 -480Q327 -465 321 -453Q312 -441 298 -431Q297 -431 295 -431Q287 -431 288 -420Q288 -414 294 -417Q302 -414 316 -414Q334 -413 341 -410Q353 -411 353 -394Q360 -390 356 -382Q352 -374 343 -376Q337 -372 324 -370Q311 -369 308 -367Q307 -362 314 -360Q321 -358 326 -359L346 -340L368 -331Q372 -327 377 -327Q386 -329 395 -331Q406 -329 413 -326Q419 -327 424 -327Q430 -327 431 -319Q433 -314 428 -313Q420 -311 418 -309Q421 -305 420 -299Q419 -294 412 -295Q399 -290 385 -289Q367 -283 351 -279Q333 -273 315 -268Q306 -267 304 -260Q302 -253 301 -246Q299 -231 296 -216Q294 -205 295 -193Q297 -188 295 -178Q293 -167 295 -162Q299 -155 295 -149Q292 -144 290 -138Q293 -133 293 -122Q291 -105 296 -96Q309 -105 315 -114Q327 -129 341 -145Q354 -160 363 -179Q369 -187 384 -216Q385 -209 378 -187Q379 -183 374 -177Q370 -172 370 -169Q371 -164 366 -155Q363 -150 363 -146Q356 -129 348 -113Q346 -111 343 -99Q337 -97 335 -81Q329 -77 323 -65Q324 -60 319 -54Q314 -48 315 -45Q313 -32 305 -26Q295 -29 284 -36Q269 -43 257 -51Q238 -58 238 -81Q235 -101 237 -122Q240 -153 247 -184Q244 -195 247 -205Q250 -215 251 -226Q252 -232 252 -239Q253 -247 247 -249Q242 -250 218 -245Q212 -243 206 -242Q153 -233 124 -238Q114 -240 104 -243Q90 -244 81 -253Q110 -255 140 -262Q200 -278 259 -295Q264 -310 264 -330Q261 -348 264 -367Q249 -373 241 -383Q238 -389 229 -399Q220 -408 218 -413Q214 -436 234 -443L278 -486Q290 -492 291 -502Q290 -504 284 -504Q283 -502 279 -503Q276 -504 274 -502Q271 -505 264 -504Q258 -503 255 -505Q236 -515 209 -546Q205 -557 205 -565Q213 -566 212 -574Q211 -581 214 -586Q217 -602 225 -616Q231 -622 231 -632Q231 -641 232 -650Q237 -661 230 -668ZM303 -357Q301 -346 299 -336Q301 -333 301 -324Q301 -314 304 -310Q321 -310 336 -318Q338 -329 331 -336Q324 -343 318 -349Q314 -349 310 -353Q305 -358 303 -357Z"/>
</svg>