<svg xmlns="http://www.w3.org/2000/svg" viewBox="0 -800 1024 1024">
	<path fill="#000000" d="M612 -723Q618 -721 624 -720Q646 -717 642 -705Q639 -701 643 -693Q647 -683 644 -679Q639 -671 629 -671Q623 -672 616 -668Q609 -665 605 -665Q588 -662 571 -659Q557 -656 543 -654Q539 -652 514 -652Q502 -652 490 -653Q479 -658 467 -658Q452 -660 441 -666Q438 -669 430 -668Q421 -667 419 -671Q425 -681 467 -692Q483 -696 498 -701Q511 -704 524 -708Q532 -708 538 -711L548 -713Q554 -716 562 -716Q576 -720 583 -718Q598 -720 612 -723ZM513 -614Q514 -610 514 -606Q508 -600 510 -589Q512 -582 507 -576Q505 -569 510 -568Q516 -567 520 -571Q529 -573 537 -575Q545 -579 598 -594Q609 -594 621 -599Q639 -601 656 -604Q675 -609 695 -602Q710 -592 725 -588Q729 -584 748 -558Q747 -551 745 -544Q745 -533 738 -524Q739 -520 731 -505Q730 -501 723 -497Q718 -494 716 -492Q711 -483 702 -475Q700 -472 694 -469Q689 -466 687 -463Q684 -461 683 -454Q682 -447 679 -445Q670 -445 670 -437Q663 -426 652 -417Q640 -420 630 -415Q606 -413 600 -410Q587 -402 574 -394Q554 -392 546 -374Q538 -350 530 -326Q528 -318 536 -315Q539 -317 555 -322Q563 -323 553 -313Q547 -306 540 -299Q531 -295 527 -286Q524 -278 521 -269Q518 -267 517 -260Q515 -249 509 -249Q500 -254 490 -259Q489 -262 483 -267Q476 -273 476 -279Q460 -297 472 -317Q484 -344 507 -363Q524 -381 543 -395Q547 -398 545 -400Q538 -402 533 -397Q518 -394 506 -399L490 -404Q483 -407 476 -412Q468 -422 452 -438Q445 -441 441 -446Q437 -452 433 -458Q426 -465 424 -485Q429 -509 438 -531Q458 -571 487 -592Q499 -604 513 -614ZM668 -563Q657 -559 645 -556Q628 -551 610 -549Q601 -545 591 -542Q552 -540 513 -541Q497 -530 499 -520Q496 -512 492 -504L491 -475Q485 -464 488 -456Q491 -452 489 -436Q486 -433 489 -429Q493 -425 497 -427Q506 -429 514 -431Q520 -435 528 -435Q534 -439 542 -439Q551 -443 561 -444Q567 -448 588 -452Q602 -450 607 -464Q614 -466 624 -477Q632 -487 636 -489Q638 -495 645 -502Q653 -510 655 -514Q663 -533 673 -550Q677 -555 675 -561Q673 -566 668 -563ZM234 -470Q260 -471 288 -463Q294 -459 302 -456Q310 -453 309 -442Q311 -426 294 -417Q290 -419 282 -415Q273 -411 268 -414Q262 -411 248 -417Q233 -420 217 -424Q197 -432 181 -442Q179 -447 173 -449Q166 -451 165 -454Q167 -461 184 -461Q208 -466 234 -470ZM657 -383H661Q668 -380 680 -381Q694 -379 707 -375Q734 -375 742 -357Q747 -347 745 -333Q753 -324 743 -315Q734 -315 736 -302Q736 -298 730 -296Q723 -294 723 -290Q722 -286 717 -283Q711 -280 710 -276Q710 -269 701 -265Q689 -260 687 -258Q676 -254 666 -246Q653 -242 641 -228Q636 -225 635 -221Q634 -216 639 -213Q650 -214 660 -216Q674 -217 688 -218Q703 -217 717 -216Q723 -214 730 -214Q737 -214 742 -209Q749 -208 755 -199Q765 -194 758 -186Q752 -187 748 -183Q745 -179 745 -173Q739 -169 734 -174Q730 -178 723 -174Q718 -171 715 -173Q700 -177 691 -173Q669 -174 631 -170Q587 -166 567 -167Q533 -162 530 -161Q510 -163 499 -169Q489 -176 465 -182Q462 -188 468 -190Q473 -191 478 -192Q481 -194 489 -193Q498 -192 502 -195Q507 -201 515 -199Q522 -197 529 -198Q538 -202 548 -201Q562 -199 573 -209Q577 -217 581 -225Q585 -234 595 -236Q601 -242 603 -245L620 -262Q624 -266 628 -271Q640 -286 651 -302Q671 -324 672 -343Q678 -354 665 -367Q661 -371 656 -374Q651 -378 657 -383ZM238 -331L265 -330Q283 -322 284 -314Q281 -303 278 -292Q275 -277 269 -262Q269 -245 264 -240Q257 -228 258 -213Q259 -198 258 -183Q260 -170 262 -158Q265 -145 278 -139Q282 -138 286 -134Q291 -129 293 -129Q299 -125 306 -120Q312 -116 315 -108Q339 -101 368 -98Q385 -97 401 -97Q442 -90 483 -84Q530 -78 532 -78Q563 -77 632 -67Q666 -63 700 -60Q706 -62 718 -60Q734 -58 741 -60Q744 -58 753 -59Q761 -60 764 -59Q781 -59 797 -59Q807 -59 816 -59Q851 -63 888 -63Q896 -64 907 -53Q912 -53 912 -48Q911 -44 907 -43Q905 -35 893 -23Q878 -15 859 -8Q856 -4 848 -3Q839 -1 836 3Q820 5 805 15Q787 16 763 13Q749 11 741 10Q732 10 723 9Q692 7 663 -2Q648 -3 628 -7Q608 -11 587 -16Q572 -19 557 -23Q550 -23 542 -23Q537 -24 532 -26Q528 -26 524 -26L509 -29Q505 -29 501 -29Q489 -32 476 -35Q456 -41 437 -44Q424 -45 411 -47Q400 -49 388 -52Q384 -51 377 -53Q368 -56 364 -54Q345 -58 325 -63Q311 -65 296 -67Q286 -67 275 -67Q267 -71 240 -86Q234 -94 228 -103Q221 -106 228 -110Q231 -112 230 -107Q246 -100 265 -100Q272 -99 273 -104Q273 -109 267 -112Q212 -149 216 -215Q216 -223 216 -231Q219 -253 221 -275Q223 -284 224 -295Q224 -305 214 -306Q209 -307 197 -315Q189 -321 183 -322Q188 -322 198 -329Q215 -325 238 -331Z"/>
</svg>