<svg xmlns="http://www.w3.org/2000/svg" viewBox="0 -800 1024 1024">
	<path fill="#000000" d="M181 -641Q204 -641 213 -637Q222 -630 232 -622Q242 -615 244 -603Q245 -596 241 -589Q237 -583 234 -577Q237 -573 232 -565Q225 -555 230 -551Q249 -554 267 -558Q275 -559 282 -560Q287 -563 306 -565Q318 -566 326 -565Q367 -565 369 -543Q368 -535 359 -520Q354 -512 352 -506Q349 -501 337 -491Q324 -480 320 -471Q317 -468 312 -463Q308 -459 305 -464Q300 -468 291 -460Q283 -453 279 -454Q276 -451 271 -449Q267 -446 265 -442Q267 -438 270 -438Q273 -438 276 -441Q285 -437 294 -439Q304 -441 314 -441Q324 -443 326 -436Q328 -429 330 -424Q332 -413 325 -408Q317 -403 309 -399Q303 -397 293 -395L282 -392Q272 -390 266 -388Q264 -384 267 -376Q269 -370 268 -365Q272 -351 266 -335Q265 -328 270 -328Q277 -327 282 -331Q291 -336 287 -342Q283 -348 281 -353Q280 -357 281 -357Q285 -356 288 -351Q289 -346 297 -345Q303 -344 305 -342Q313 -339 327 -342Q339 -344 345 -343Q349 -343 350 -341Q351 -338 350 -335Q347 -325 351 -324Q357 -317 349 -307Q341 -297 328 -293Q314 -289 300 -285Q295 -282 286 -279Q271 -274 265 -268Q266 -263 261 -254Q256 -246 258 -239Q251 -211 253 -199Q253 -183 252 -167Q252 -144 252 -122Q255 -117 256 -105Q257 -92 262 -87Q275 -98 280 -105Q288 -110 299 -122Q312 -135 319 -140Q333 -170 347 -201Q348 -206 349 -206Q352 -203 353 -194Q354 -181 355 -169Q354 -143 347 -123Q334 -109 321 -96Q322 -90 314 -82Q306 -75 306 -70Q300 -59 281 -49Q276 -49 276 -43Q275 -38 270 -36Q262 -32 254 -32Q246 -32 239 -37Q231 -39 222 -47Q214 -54 211 -55Q194 -66 190 -93Q182 -159 194 -193Q194 -209 197 -223Q197 -230 199 -236Q202 -243 195 -246Q174 -242 153 -239Q150 -238 146 -237L132 -234Q129 -233 125 -232Q109 -231 93 -230Q80 -232 70 -238Q64 -236 55 -242Q49 -246 46 -246Q39 -254 55 -262Q85 -268 111 -276Q133 -283 154 -286Q166 -287 175 -292Q180 -297 194 -300Q210 -303 214 -308Q217 -336 217 -337Q220 -356 222 -376Q220 -383 214 -382Q207 -381 201 -382Q173 -380 149 -393Q147 -400 155 -403L163 -405Q168 -406 169 -408Q183 -413 198 -418Q213 -424 220 -438Q237 -455 251 -472Q255 -480 260 -487Q271 -501 272 -508Q259 -510 245 -503Q243 -504 239 -501Q234 -497 229 -499Q222 -494 214 -494Q203 -494 192 -503Q181 -514 166 -526Q160 -530 162 -532Q167 -535 169 -540Q165 -548 170 -560Q173 -567 173 -579Q172 -594 175 -600L186 -626Q189 -631 184 -634Q178 -638 181 -641ZM353 -330Q359 -334 401 -351Q419 -358 437 -365Q443 -368 446 -374Q448 -380 450 -386Q453 -417 460 -442Q465 -466 470 -490Q472 -512 469 -529Q465 -537 451 -539Q443 -539 438 -544Q433 -549 427 -552Q423 -553 422 -557Q421 -561 425 -562H428Q439 -556 456 -562Q485 -562 495 -559Q513 -561 521 -547Q528 -535 532 -521Q530 -507 527 -493Q526 -482 518 -460Q511 -443 510 -433Q508 -428 500 -397Q493 -387 501 -382Q509 -384 516 -386Q534 -393 554 -395Q562 -393 569 -399Q576 -405 575 -413Q578 -420 575 -426Q572 -433 565 -432Q559 -434 553 -435Q546 -436 543 -441Q541 -444 543 -446Q545 -448 548 -448Q554 -447 563 -453Q573 -459 579 -459Q582 -461 587 -458Q592 -455 595 -456Q600 -460 605 -456Q610 -453 616 -451Q624 -450 630 -442Q635 -435 637 -426Q639 -418 636 -409Q634 -400 642 -394Q649 -395 656 -394Q662 -393 666 -399Q669 -412 671 -425Q673 -429 670 -437Q668 -443 669 -446Q669 -451 673 -450Q676 -449 679 -446Q685 -438 696 -437Q707 -436 711 -414Q715 -410 721 -414Q723 -415 731 -422Q777 -440 811 -447Q830 -453 851 -455Q902 -464 926 -432Q929 -430 933 -417Q931 -413 936 -409Q942 -403 941 -399Q939 -393 940 -379Q941 -367 939 -359Q931 -350 932 -336Q916 -313 899 -291Q897 -286 889 -280Q882 -275 880 -272Q871 -261 862 -250Q866 -246 881 -246Q890 -246 896 -244Q903 -238 912 -233Q914 -221 907 -212Q892 -205 877 -199Q851 -198 825 -198Q823 -198 775 -195Q753 -193 742 -194Q731 -193 722 -198Q712 -198 707 -193Q701 -193 691 -201Q685 -206 680 -207Q677 -212 667 -218Q659 -223 656 -228Q656 -234 651 -243Q645 -255 646 -262Q645 -269 648 -299Q651 -327 654 -356Q652 -361 656 -369Q659 -375 658 -377Q649 -375 639 -373Q623 -377 610 -353Q605 -338 597 -323Q589 -311 588 -295Q583 -292 582 -287Q581 -282 578 -277Q567 -254 557 -230L539 -210Q534 -207 537 -202Q540 -197 545 -197Q558 -191 570 -186Q592 -178 615 -166Q635 -152 660 -142Q679 -131 684 -130Q693 -121 703 -113Q709 -111 715 -94Q719 -90 715 -87Q711 -84 706 -85Q704 -86 702 -88L697 -89Q668 -87 659 -91Q618 -105 583 -127Q553 -149 510 -163Q509 -164 507 -165Q496 -155 481 -150Q462 -127 421 -131Q458 -149 473 -174Q466 -177 458 -180Q438 -188 418 -196Q410 -199 406 -205Q401 -211 397 -217Q386 -225 391 -237Q395 -241 399 -245Q404 -249 403 -255Q401 -267 408 -274Q414 -281 419 -289Q423 -300 430 -309Q426 -315 421 -312Q416 -308 411 -307Q396 -309 372 -314Q353 -323 353 -330ZM844 -401Q842 -400 839 -400L828 -398Q826 -397 823 -397Q809 -393 803 -393Q793 -389 782 -388Q767 -377 760 -377Q737 -369 731 -373Q725 -373 719 -374Q713 -376 709 -371Q704 -360 705 -346Q702 -336 703 -313Q704 -294 702 -284Q706 -267 707 -253Q709 -250 707 -244Q705 -236 708 -233Q723 -230 739 -233Q757 -237 776 -238Q781 -241 792 -243Q806 -245 812 -251Q825 -272 838 -293Q841 -303 851 -312Q857 -337 869 -360Q878 -391 866 -401Q854 -404 844 -401ZM551 -348Q537 -344 530 -343L495 -331Q486 -331 481 -323Q476 -315 478 -306Q475 -288 464 -278Q461 -265 460 -251Q461 -245 455 -243Q446 -240 445 -238Q443 -233 439 -228Q434 -223 439 -218Q447 -216 465 -212Q476 -212 487 -209Q492 -209 495 -212Q504 -228 513 -244Q526 -273 539 -302Q549 -328 555 -340Q557 -343 555 -346Q554 -349 551 -348Z"/>
</svg>