<svg xmlns="http://www.w3.org/2000/svg" viewBox="0 -800 1024 1024">
	<path fill="#000000" d="M223 -695Q226 -696 229 -693Q237 -687 249 -687Q268 -680 287 -674Q294 -671 298 -654Q300 -649 295 -636Q289 -633 287 -615Q279 -604 273 -591Q272 -587 269 -582Q266 -577 270 -572Q282 -572 297 -575Q331 -584 346 -579Q350 -574 363 -576Q367 -576 373 -575Q379 -575 379 -568Q376 -561 384 -554Q388 -549 383 -546Q378 -543 374 -539Q369 -532 356 -534Q343 -530 330 -526Q314 -527 298 -524Q294 -527 287 -523Q283 -521 281 -522Q270 -531 257 -531Q243 -533 232 -532Q221 -520 212 -506Q196 -487 183 -467Q172 -450 157 -433Q145 -419 137 -415Q130 -409 122 -403Q114 -391 101 -383Q86 -381 83 -372Q79 -367 73 -367Q70 -367 71 -371Q79 -383 86 -396Q109 -432 132 -468Q159 -511 181 -555Q189 -568 196 -581Q207 -602 218 -623Q222 -640 230 -654Q234 -665 224 -675Q220 -691 223 -695ZM721 -573Q730 -572 738 -570Q747 -569 756 -569Q761 -572 766 -565Q771 -559 774 -558Q793 -552 796 -539Q804 -534 804 -519Q806 -513 804 -493Q799 -492 799 -482Q800 -475 796 -470Q792 -465 788 -459Q783 -456 784 -448Q785 -441 775 -433Q769 -426 763 -421Q756 -416 753 -407Q747 -402 738 -381Q738 -363 730 -360Q725 -360 718 -353Q710 -345 704 -347Q700 -350 689 -344Q684 -344 662 -342Q636 -340 609 -339Q602 -337 573 -340Q561 -339 555 -347Q549 -356 544 -364Q539 -366 537 -370Q536 -374 541 -374Q546 -373 554 -376Q562 -379 568 -378Q577 -377 582 -383Q586 -388 586 -397Q591 -426 593 -432Q595 -451 602 -468Q602 -470 599 -475Q595 -480 599 -482Q605 -482 619 -474Q626 -474 644 -468Q656 -463 647 -444Q645 -430 639 -417Q640 -413 634 -406Q630 -401 629 -398Q629 -389 644 -394Q650 -392 662 -396Q675 -401 683 -397Q691 -402 692 -412Q707 -433 717 -457Q726 -480 735 -503Q737 -518 732 -524Q714 -526 697 -521Q682 -517 666 -513Q652 -511 637 -509Q616 -505 596 -498Q575 -505 557 -514Q551 -516 549 -513Q547 -510 550 -505Q554 -499 558 -493Q562 -488 562 -479Q552 -454 549 -450Q545 -439 540 -428Q538 -411 536 -395Q535 -385 531 -376Q527 -373 526 -363Q525 -355 523 -352Q511 -329 507 -304Q504 -282 505 -278Q503 -269 503 -257Q500 -236 501 -214Q500 -203 499 -192Q500 -190 500 -182Q500 -172 503 -168Q523 -131 563 -118Q566 -116 572 -114L583 -111Q604 -105 628 -102Q639 -102 649 -102Q690 -102 730 -102Q744 -107 758 -106Q802 -108 845 -110Q868 -112 891 -114Q908 -112 914 -127Q922 -150 921 -174Q920 -178 917 -195Q917 -214 918 -216Q922 -218 923 -214Q924 -209 927 -205Q933 -200 941 -179Q944 -171 947 -163Q949 -152 955 -141Q957 -139 960 -130Q964 -119 970 -115Q981 -117 982 -108Q980 -105 983 -97Q985 -91 984 -87Q984 -66 976 -62Q958 -55 936 -57Q909 -57 901 -53L819 -51Q808 -50 797 -50Q792 -52 781 -50Q774 -49 769 -50Q762 -49 746 -50Q730 -51 722 -49Q700 -54 668 -52Q662 -56 656 -57Q649 -58 643 -58Q622 -62 601 -66Q592 -70 570 -75Q549 -79 539 -85Q509 -99 483 -124Q454 -153 447 -182Q444 -192 440 -202Q436 -212 438 -222Q441 -234 443 -247Q442 -265 447 -284Q455 -338 465 -369Q469 -391 475 -410Q477 -431 489 -467Q497 -486 498 -487Q505 -499 511 -512Q513 -518 514 -524Q515 -530 520 -533Q528 -536 536 -535Q539 -526 557 -526Q589 -538 621 -550Q647 -560 676 -565Q696 -573 721 -573ZM323 -438Q328 -440 334 -431Q333 -424 338 -419Q342 -413 345 -407Q344 -398 336 -396Q328 -394 321 -392Q311 -390 301 -388Q296 -389 295 -384Q294 -379 298 -376Q309 -375 307 -358Q306 -350 315 -350Q321 -350 328 -353Q335 -354 342 -356Q349 -358 356 -356Q360 -352 368 -355Q376 -358 381 -355Q383 -352 390 -355Q396 -358 400 -355Q401 -350 406 -350Q410 -350 415 -350Q418 -347 413 -334Q404 -325 403 -317Q400 -309 393 -312Q381 -308 369 -305Q352 -305 338 -300Q322 -295 305 -291Q297 -282 295 -271Q293 -260 290 -249Q284 -242 288 -229Q288 -212 281 -196Q282 -180 280 -163Q282 -158 279 -150Q276 -140 278 -135Q279 -131 283 -132Q287 -134 289 -137Q294 -142 298 -147L316 -167Q321 -172 325 -177Q343 -199 357 -222Q368 -248 386 -268L390 -276Q393 -279 396 -282Q396 -274 391 -267Q384 -251 384 -243Q381 -233 378 -224Q371 -215 371 -204Q371 -190 365 -187Q358 -183 361 -174Q363 -168 359 -163Q355 -158 351 -153Q352 -141 345 -132Q339 -123 333 -114Q322 -96 283 -60Q277 -57 271 -63Q259 -65 250 -71L224 -92Q214 -114 215 -132Q221 -137 215 -154Q219 -161 218 -175Q217 -188 219 -192Q222 -202 226 -229Q228 -245 230 -261Q226 -269 209 -262Q205 -260 193 -260Q180 -260 175 -256Q161 -258 151 -252Q130 -253 111 -249Q89 -254 77 -260Q73 -264 65 -266Q56 -269 53 -273Q57 -277 64 -276Q106 -286 117 -287Q131 -290 145 -296Q171 -300 196 -309Q202 -311 204 -312L222 -317Q224 -318 230 -320Q246 -324 244 -348Q243 -357 245 -365Q247 -373 240 -378Q213 -384 188 -394Q186 -399 189 -400Q195 -400 200 -401Q214 -409 230 -415Q254 -427 283 -430Q302 -437 323 -438Z"/>
</svg>