<svg xmlns="http://www.w3.org/2000/svg" viewBox="0 -800 1024 1024">
	<path fill="#000000" d="M328 -664Q331 -662 334 -664Q348 -655 365 -650Q367 -648 374 -645Q382 -641 384 -636Q392 -627 387 -616Q394 -612 392 -598Q394 -596 390 -591Q386 -587 386 -584Q377 -577 372 -563Q371 -553 363 -551Q354 -535 354 -528Q349 -510 365 -499Q374 -488 387 -479Q399 -470 403 -456Q402 -453 407 -447Q411 -443 411 -439Q417 -428 411 -423Q406 -423 405 -414Q404 -408 402 -406Q397 -408 395 -402Q393 -396 391 -395Q382 -392 372 -389Q369 -382 355 -388Q348 -387 342 -394Q336 -401 331 -401Q321 -401 315 -408Q309 -415 303 -422Q297 -420 293 -425Q289 -431 285 -435Q279 -434 275 -442Q272 -447 269 -448Q263 -447 265 -441Q267 -436 267 -432Q268 -422 264 -413Q256 -402 254 -388Q252 -374 248 -360Q249 -350 243 -345Q243 -329 242 -326Q237 -323 238 -318Q238 -312 239 -307Q236 -296 236 -278Q235 -254 232 -245Q234 -240 231 -231Q228 -221 229 -216Q236 -209 228 -198Q230 -182 229 -166Q227 -151 229 -136Q229 -120 228 -106Q228 -102 230 -102Q236 -104 240 -109Q245 -110 248 -116Q251 -122 254 -123Q275 -150 296 -177Q305 -188 311 -203Q312 -204 313 -203Q310 -199 309 -190Q308 -183 302 -174Q294 -162 294 -155Q289 -148 285 -139Q281 -137 278 -129Q276 -124 275 -123Q269 -113 269 -108Q262 -95 254 -82Q248 -81 245 -75Q242 -70 238 -65Q239 -61 235 -59Q231 -57 231 -55Q220 -51 212 -58Q212 -67 195 -64Q181 -74 174 -85L179 -102Q169 -129 174 -148Q177 -165 179 -182Q183 -202 184 -224Q186 -228 185 -235Q184 -244 188 -247Q186 -255 190 -269Q193 -279 193 -302L195 -327Q196 -333 196 -340Q198 -346 198 -360Q198 -374 201 -381Q199 -388 203 -401Q206 -411 206 -417Q215 -453 235 -470Q248 -480 249 -480Q254 -484 259 -478Q264 -472 269 -469Q274 -460 298 -453Q310 -446 339 -442Q345 -443 354 -443Q357 -444 354 -449Q348 -464 336 -474Q325 -485 313 -496Q313 -498 311 -500L308 -507Q307 -509 306 -511Q303 -514 304 -519Q305 -525 302 -527Q303 -529 303 -537Q303 -546 306 -550Q306 -567 311 -583Q315 -600 310 -601Q304 -596 293 -594Q280 -591 276 -588Q275 -588 269 -586L256 -583Q253 -582 249 -581Q240 -573 224 -573Q206 -573 184 -582Q163 -580 158 -594Q165 -596 178 -596Q199 -605 219 -614Q226 -622 236 -622Q239 -627 244 -628Q251 -635 260 -634Q268 -641 278 -645Q282 -645 288 -650Q297 -657 302 -654Q320 -658 328 -664ZM735 -640Q744 -640 749 -638Q766 -638 779 -629Q784 -629 790 -621Q794 -616 799 -613Q808 -605 811 -592Q810 -586 815 -577Q821 -566 819 -559Q828 -544 821 -533Q819 -510 820 -485Q822 -479 819 -468Q816 -458 817 -453Q816 -449 818 -440Q820 -433 819 -428Q818 -414 816 -400Q813 -390 814 -381Q820 -375 818 -360Q815 -332 816 -328Q815 -314 818 -298Q813 -277 816 -251Q821 -230 815 -222Q814 -212 817 -200Q818 -186 821 -171Q822 -165 821 -156Q819 -141 821 -135Q823 -125 819 -109Q815 -89 816 -80Q815 -65 813 -50Q809 -40 810 -27Q805 -24 804 -15Q803 -8 801 -5Q797 -3 796 5Q795 12 792 15Q784 17 782 25Q782 28 779 30Q774 33 773 34Q766 42 758 36Q756 33 747 29Q740 26 739 20Q740 14 737 11Q734 7 729 8Q723 1 727 -8Q730 -19 719 -20Q717 -22 712 -24Q706 -26 705 -30Q705 -33 710 -33Q714 -33 718 -33Q733 -38 737 -38Q741 -40 746 -52L747 -79Q750 -100 753 -122Q756 -144 758 -167Q755 -194 760 -218Q756 -231 758 -250Q760 -274 761 -285Q761 -292 761 -300Q761 -318 761 -337Q762 -340 761 -346Q760 -351 762 -354Q763 -388 763 -423Q757 -441 765 -467Q764 -476 763 -486Q763 -535 758 -568Q754 -588 747 -593Q731 -595 717 -589Q692 -578 686 -574Q675 -571 668 -559Q660 -557 651 -555Q627 -558 602 -562Q593 -569 574 -567Q569 -566 569 -569Q568 -572 573 -573Q596 -593 634 -607Q646 -613 658 -620Q663 -619 673 -625Q680 -629 683 -630Q698 -638 716 -638Q719 -638 721 -639H730Q732 -640 735 -640ZM512 -558Q516 -558 520 -556Q524 -554 528 -557Q533 -557 538 -557Q549 -558 560 -544Q570 -539 565 -519Q558 -513 564 -498Q561 -483 566 -468Q566 -453 565 -439Q562 -431 572 -426Q578 -427 584 -428Q603 -431 622 -430Q645 -432 663 -429Q670 -434 674 -425Q674 -417 681 -411Q680 -403 673 -401Q665 -399 660 -395Q648 -393 635 -392Q628 -395 622 -390Q613 -377 603 -387Q600 -398 590 -403Q579 -407 571 -411Q567 -416 562 -414Q556 -412 558 -405Q558 -395 557 -382Q556 -371 554 -360Q554 -354 551 -347Q548 -340 554 -335Q565 -335 575 -335Q580 -340 588 -334Q595 -329 600 -332Q610 -334 619 -330Q624 -323 637 -325Q643 -319 657 -321Q665 -319 672 -312Q674 -306 684 -294Q683 -293 683 -277Q683 -273 679 -273Q675 -273 672 -273Q641 -280 633 -287Q629 -292 622 -287Q616 -283 613 -285Q609 -293 603 -292Q596 -292 590 -293Q574 -309 557 -317Q554 -322 550 -321Q545 -319 545 -314Q546 -308 542 -297Q539 -288 539 -282Q541 -265 532 -249Q536 -240 533 -230Q524 -217 525 -200L512 -161Q511 -141 502 -124Q494 -108 491 -90Q486 -78 480 -67Q476 -66 473 -58Q471 -52 468 -50Q463 -48 458 -55Q455 -59 451 -60Q444 -64 443 -71Q444 -79 431 -87Q429 -102 435 -115Q431 -125 439 -137Q443 -145 450 -168Q453 -187 472 -247Q476 -269 479 -275Q482 -290 485 -306Q488 -319 490 -332Q490 -338 498 -370Q500 -379 502 -389Q501 -398 506 -412Q510 -422 510 -427Q506 -436 515 -447Q514 -463 517 -481Q516 -498 517 -513Q518 -529 516 -540Q514 -545 510 -550Q506 -555 512 -558Z"/>
</svg>