<svg xmlns="http://www.w3.org/2000/svg" viewBox="0 -800 1024 1024">
	<path fill="#000000" d="M517 -693Q537 -693 557 -691Q576 -693 594 -683Q606 -683 617 -675Q623 -676 625 -668Q628 -657 630 -655Q635 -650 625 -643Q617 -631 611 -626Q606 -621 602 -623Q597 -626 593 -629Q585 -629 579 -633Q574 -637 568 -639Q527 -662 489 -687Q486 -687 486 -689Q487 -693 492 -691Q505 -692 517 -693ZM671 -617H673Q695 -615 719 -616Q725 -619 729 -615Q732 -611 736 -606Q744 -604 740 -594Q739 -590 735 -586Q730 -581 729 -578Q728 -573 723 -573Q717 -574 714 -572Q706 -571 698 -570Q686 -572 657 -565Q641 -563 625 -561Q620 -559 609 -558Q597 -557 592 -554Q580 -550 567 -550Q553 -545 537 -546Q528 -542 516 -542Q501 -539 485 -539Q481 -543 476 -541Q471 -539 472 -533Q487 -513 483 -499Q479 -492 477 -476Q475 -463 472 -450Q470 -439 475 -429Q504 -430 532 -437Q535 -437 537 -438Q547 -443 539 -456Q538 -460 532 -464Q527 -467 527 -471Q526 -475 528 -476Q530 -477 533 -475Q542 -472 554 -474Q566 -473 580 -457Q579 -451 585 -449Q591 -447 596 -449Q624 -460 655 -466Q664 -467 665 -476Q666 -483 662 -490Q660 -493 656 -495Q651 -497 651 -499Q655 -513 669 -517Q680 -516 692 -508Q698 -508 717 -494Q722 -492 722 -485Q721 -479 729 -479Q734 -482 739 -482Q746 -482 758 -476Q762 -477 766 -472Q771 -465 774 -464Q779 -465 780 -460Q781 -456 779 -451Q773 -443 769 -434Q758 -434 749 -430Q735 -436 722 -429Q716 -430 712 -425Q708 -420 708 -414Q704 -404 706 -392Q698 -381 694 -367Q682 -360 691 -347Q698 -334 685 -311Q673 -300 661 -290Q650 -290 647 -278Q643 -276 638 -281Q632 -286 628 -284Q616 -281 606 -282Q602 -280 593 -283Q586 -285 582 -283Q578 -279 572 -286Q568 -290 565 -290Q558 -289 549 -297Q543 -303 538 -304Q531 -314 525 -327Q523 -344 527 -373Q529 -379 531 -386Q532 -392 525 -395Q514 -396 506 -400Q494 -404 482 -408Q477 -412 472 -409Q467 -405 468 -399Q457 -376 455 -366Q450 -361 448 -348Q446 -335 442 -330Q434 -316 428 -301Q423 -275 409 -253Q404 -239 398 -226Q393 -213 383 -201Q373 -191 369 -178L352 -189Q351 -195 342 -204Q335 -210 334 -215Q334 -224 332 -232Q330 -241 337 -247Q344 -253 350 -265Q366 -287 378 -311Q380 -320 389 -336Q397 -350 399 -359Q407 -389 414 -419Q418 -438 421 -458Q420 -472 429 -503Q435 -518 441 -533Q448 -538 442 -545Q436 -552 430 -550Q422 -550 421 -552Q422 -553 425 -553Q454 -567 489 -575Q497 -579 522 -583Q548 -590 575 -596Q583 -600 593 -600Q596 -600 601 -603Q607 -608 611 -607Q624 -609 636 -611Q641 -615 656 -615Q665 -615 671 -617ZM146 -474Q159 -475 186 -473Q199 -473 206 -471Q212 -470 213 -461Q214 -454 217 -451Q219 -449 222 -444Q226 -440 222 -437Q217 -435 208 -437Q199 -439 195 -437Q184 -438 172 -440Q147 -444 127 -456Q118 -460 113 -466Q118 -471 127 -470Q130 -472 146 -474ZM640 -413Q631 -414 620 -410Q608 -406 602 -406Q586 -410 582 -389Q582 -377 573 -341Q573 -336 569 -331Q565 -326 571 -321Q576 -319 593 -322Q599 -326 614 -326Q627 -326 632 -328Q635 -331 636 -340Q636 -347 638 -349Q640 -370 650 -403Q655 -408 650 -412Q645 -417 640 -413ZM111 -368L117 -366Q121 -362 132 -361Q140 -360 143 -359Q173 -355 187 -328Q187 -326 195 -303Q198 -294 194 -284Q190 -280 186 -263Q185 -247 183 -232Q183 -216 182 -201Q182 -190 186 -180Q181 -173 192 -162Q196 -149 218 -131Q227 -122 239 -113Q250 -104 257 -92Q256 -85 263 -80Q270 -76 277 -79Q304 -82 332 -80Q356 -82 375 -76Q385 -74 395 -73Q414 -73 432 -68Q445 -65 458 -62Q475 -62 494 -57Q508 -54 522 -52Q555 -51 590 -48Q608 -48 617 -45Q628 -44 638 -44Q655 -43 672 -43Q683 -41 693 -40Q704 -40 715 -40Q730 -38 744 -37Q752 -37 760 -37Q776 -35 792 -34Q831 -31 834 -30Q838 -33 845 -31Q853 -29 855 -30Q856 -30 887 -27Q889 -27 891 -27H898Q900 -27 902 -27Q925 -27 935 -22Q938 -23 940 -19Q942 -15 940 -12Q936 -9 936 1Q936 10 933 14Q929 17 923 12Q918 7 914 9Q899 15 884 18Q877 16 863 20Q851 27 830 28Q822 28 794 27Q787 27 787 22L766 21Q744 20 721 19Q714 19 714 14Q687 11 666 12Q658 11 649 10Q652 7 647 5Q625 5 587 3Q583 4 579 -2Q550 -3 521 -4Q513 -4 504 -5Q508 -7 506 -10Q503 -13 500 -10Q483 -12 476 -10Q465 -12 454 -14Q436 -17 418 -21Q404 -25 390 -29Q367 -33 344 -37Q335 -37 328 -38Q314 -39 300 -41L274 -42Q265 -45 243 -47Q219 -55 209 -60Q199 -63 191 -66Q188 -73 197 -73Q208 -74 218 -76Q223 -76 227 -78Q232 -80 230 -84Q223 -85 215 -94Q209 -101 206 -102Q193 -112 180 -122Q170 -131 153 -148Q141 -170 140 -173Q125 -197 131 -236Q131 -261 136 -276Q141 -311 141 -319Q145 -326 139 -335Q136 -340 126 -348Q121 -352 114 -357Q108 -362 111 -368ZM818 -257H826Q829 -254 835 -256Q840 -258 842 -256Q848 -256 853 -256Q861 -258 866 -254Q870 -250 876 -249Q883 -252 888 -246Q893 -240 898 -237Q897 -235 900 -230Q903 -224 901 -220Q896 -218 896 -213Q897 -209 897 -204Q902 -194 894 -184Q884 -181 882 -175Q880 -169 872 -170Q871 -165 860 -154Q857 -150 852 -151Q840 -142 827 -137Q818 -137 804 -131Q799 -127 793 -129Q788 -132 793 -137Q810 -163 824 -195Q831 -201 831 -210Q832 -219 820 -218Q809 -216 800 -216Q777 -216 767 -210Q757 -208 749 -204Q745 -204 733 -197Q724 -192 716 -191Q714 -185 704 -182Q695 -179 693 -176Q684 -170 678 -161Q673 -171 663 -174Q663 -181 655 -189Q647 -195 646 -206Q645 -216 645 -227Q642 -229 643 -230Q647 -233 654 -232Q683 -226 692 -216Q708 -224 724 -233Q754 -246 781 -249Q786 -253 801 -254Q813 -255 818 -257ZM471 -250Q464 -227 479 -209Q462 -198 470 -183Q474 -175 467 -155Q472 -148 470 -140Q468 -132 459 -130Q447 -121 438 -137Q429 -146 427 -154Q415 -169 413 -186Q424 -193 427 -203Q428 -212 434 -217Q439 -223 445 -231Q448 -240 455 -244Q463 -247 471 -250ZM539 -237Q546 -234 552 -232Q568 -226 583 -221Q595 -204 590 -192Q593 -184 587 -179Q583 -176 573 -172Q565 -161 561 -171Q554 -167 547 -182Q527 -198 535 -221Q538 -223 537 -229Q536 -234 539 -237Z"/>
</svg>