<svg xmlns="http://www.w3.org/2000/svg" viewBox="0 -800 1024 1024">
	<path fill="#000000" d="M602 -685Q613 -687 623 -681Q626 -678 632 -681Q637 -683 640 -682Q659 -684 667 -674Q670 -669 676 -666Q683 -663 682 -655Q675 -645 668 -636Q660 -631 651 -632Q640 -630 630 -626Q616 -624 604 -620Q591 -615 576 -613Q563 -609 549 -605Q531 -589 513 -573Q509 -567 503 -561Q498 -555 498 -547Q489 -538 489 -529Q487 -524 487 -505Q484 -498 487 -487Q497 -477 491 -461Q487 -457 490 -446Q493 -437 490 -432Q488 -419 485 -406Q481 -393 485 -380Q487 -374 479 -367Q473 -362 472 -358Q470 -345 456 -344Q450 -344 446 -348Q416 -366 409 -401Q409 -414 422 -442Q437 -467 451 -493Q464 -521 481 -543Q492 -566 510 -583Q517 -595 527 -599Q533 -601 538 -605Q544 -610 537 -615Q517 -620 501 -620Q497 -624 500 -627Q502 -630 507 -628Q524 -640 544 -643Q553 -647 555 -648L576 -660Q581 -662 586 -665Q589 -667 592 -674Q597 -683 602 -685ZM212 -619L215 -618Q226 -606 242 -601Q253 -604 263 -607Q266 -607 266 -605Q265 -602 264 -598Q260 -591 263 -579Q263 -563 254 -549Q244 -529 234 -509Q232 -506 207 -459Q203 -457 205 -453Q207 -449 211 -451Q230 -460 249 -469Q300 -490 318 -492Q332 -501 341 -491Q345 -485 360 -479Q382 -476 377 -433Q365 -415 357 -407Q351 -405 348 -399Q344 -394 341 -388Q331 -380 323 -371L288 -347Q280 -335 268 -330Q264 -328 259 -320Q253 -311 247 -310Q234 -318 228 -317Q232 -307 236 -298Q236 -268 235 -238Q235 -221 233 -216Q229 -210 233 -198Q236 -188 234 -182Q232 -178 233 -165Q234 -151 230 -144Q229 -141 231 -139Q233 -137 236 -139Q256 -167 275 -196Q285 -210 295 -224Q309 -246 322 -268Q326 -276 328 -279Q330 -280 332 -288Q334 -295 339 -294Q341 -284 332 -275Q325 -267 323 -256Q316 -244 308 -232Q300 -219 298 -204Q289 -188 291 -164Q289 -159 287 -155L280 -138Q278 -132 276 -129Q272 -106 258 -87Q255 -77 248 -68Q244 -65 249 -52Q244 -41 223 -46Q204 -48 181 -73Q173 -80 169 -101Q170 -126 175 -148Q175 -175 179 -182L180 -205Q182 -224 184 -243Q187 -279 192 -313Q193 -318 188 -325Q185 -330 185 -333Q186 -337 192 -337Q198 -337 219 -325Q219 -327 219 -330L239 -345Q241 -349 251 -361L261 -374Q271 -386 273 -390Q290 -408 299 -429Q301 -434 305 -439Q309 -445 307 -450Q300 -454 288 -442Q275 -440 265 -432Q244 -421 221 -406Q191 -397 176 -387Q164 -384 157 -374Q151 -371 151 -366Q151 -360 150 -355Q137 -353 126 -355Q121 -364 116 -373Q103 -383 110 -396Q115 -399 113 -409Q111 -416 114 -419Q124 -426 121 -436Q119 -441 124 -446Q128 -450 128 -453Q135 -468 141 -484Q149 -493 153 -503Q172 -534 190 -566Q190 -569 195 -576Q200 -584 199 -589Q200 -595 195 -602Q191 -608 191 -612Q192 -617 203 -617Q209 -617 212 -619ZM786 -544Q791 -545 796 -540Q801 -536 803 -535Q817 -534 830 -528Q837 -527 838 -521Q840 -513 842 -506Q849 -500 844 -482Q839 -478 838 -468Q837 -457 832 -454Q823 -447 814 -433Q809 -432 802 -423Q798 -417 794 -415Q784 -407 774 -403Q769 -402 766 -393Q763 -384 757 -385Q747 -388 745 -376Q745 -372 739 -370Q734 -368 733 -367Q730 -363 723 -358Q714 -351 711 -346Q696 -336 683 -322Q672 -316 663 -307Q656 -307 655 -300Q654 -293 660 -290Q666 -285 675 -285Q690 -287 704 -290Q724 -284 726 -284Q746 -274 746 -260Q748 -255 748 -248Q749 -242 755 -239Q772 -242 789 -242Q797 -242 804 -242H822Q834 -242 840 -241Q849 -245 860 -237Q865 -239 875 -236Q886 -232 892 -234Q901 -238 903 -228Q906 -217 895 -204Q895 -198 890 -196Q885 -194 881 -191Q877 -187 871 -192Q865 -196 862 -194Q857 -185 847 -186Q842 -190 835 -190Q827 -190 817 -186Q800 -190 776 -186Q756 -184 737 -179Q727 -180 724 -172Q721 -165 719 -158Q712 -146 705 -134Q697 -122 689 -111Q680 -106 676 -99Q671 -90 680 -85Q689 -82 697 -79L713 -71Q728 -66 745 -57Q758 -51 771 -46Q787 -38 805 -28Q820 -22 822 -21Q832 -16 835 -8Q836 -4 843 -3Q850 -2 851 1Q853 4 859 8Q864 12 860 17Q851 25 853 34Q850 43 841 43Q831 41 821 38Q802 28 783 17Q748 0 736 -5Q725 -11 713 -17Q703 -21 692 -26Q662 -42 647 -46Q636 -49 630 -41Q623 -33 616 -27Q599 -13 580 -5Q560 -4 542 2Q534 3 532 -5Q530 -13 538 -15Q549 -17 569 -33Q570 -35 580 -43Q587 -49 588 -55Q574 -66 559 -69Q552 -74 544 -80Q538 -83 531 -100Q527 -117 535 -138Q536 -151 514 -148Q495 -144 475 -141Q457 -140 440 -137Q420 -137 407 -141Q399 -146 383 -145Q371 -144 367 -145Q362 -147 357 -147Q352 -148 350 -152Q355 -157 363 -160Q377 -165 390 -170Q400 -175 422 -181Q447 -186 471 -191Q491 -195 510 -200Q520 -203 532 -205Q537 -208 548 -209Q560 -210 565 -213Q591 -251 609 -293Q620 -301 607 -312Q609 -317 617 -316Q625 -315 630 -314Q644 -307 654 -319Q670 -347 693 -369Q694 -374 703 -383Q707 -388 710 -393Q713 -398 715 -404Q716 -409 723 -412Q726 -416 728 -420L737 -435Q755 -461 765 -489Q767 -497 760 -497Q730 -487 702 -472Q687 -462 672 -452Q657 -443 644 -428Q633 -422 631 -405Q624 -399 622 -390Q620 -382 616 -374Q613 -358 599 -364Q584 -384 571 -409Q569 -420 562 -427Q562 -436 569 -454Q574 -467 575 -476Q575 -483 575 -491Q574 -496 572 -501Q571 -505 576 -505Q592 -495 593 -494Q602 -487 605 -478Q611 -476 613 -467Q615 -458 619 -456Q630 -470 662 -494Q711 -526 745 -535Q756 -540 769 -541Q776 -534 786 -544ZM663 -275Q655 -273 654 -266Q652 -259 648 -253Q647 -245 639 -236Q631 -227 630 -224Q633 -218 650 -224Q674 -224 694 -234Q702 -255 679 -272Q676 -272 672 -274Q666 -277 663 -275ZM663 -170Q655 -170 625 -165Q616 -165 608 -160Q600 -154 601 -145Q595 -131 589 -118Q585 -115 589 -110Q593 -106 597 -109Q603 -110 616 -106Q624 -103 630 -104Q635 -115 649 -133Q666 -154 669 -163Q674 -167 670 -170Q666 -173 663 -170Z"/>
</svg>