<svg xmlns="http://www.w3.org/2000/svg" viewBox="0 -800 1024 1024">
	<path fill="#000000" d="M604 -705Q613 -707 619 -701Q633 -697 642 -684Q645 -681 645 -674Q645 -668 646 -665Q657 -650 648 -611Q644 -600 642 -587Q640 -575 631 -564Q629 -559 633 -558Q637 -556 641 -559Q662 -567 682 -576Q689 -581 707 -585Q719 -588 725 -590Q747 -588 762 -582Q764 -579 771 -573Q780 -566 781 -559Q788 -552 790 -532Q795 -525 789 -512Q792 -483 790 -477Q788 -475 790 -469Q791 -465 790 -462Q785 -457 783 -446Q781 -437 780 -434Q775 -412 775 -388Q772 -372 769 -356Q762 -353 766 -345Q773 -342 771 -329Q767 -331 766 -329Q765 -325 762 -321Q753 -318 758 -309Q764 -307 777 -309Q797 -312 816 -315Q839 -317 861 -315Q869 -313 876 -312Q894 -307 905 -298Q910 -292 917 -287Q924 -283 925 -274Q926 -270 930 -265Q937 -257 937 -253Q942 -235 941 -211Q940 -198 940 -185Q941 -171 934 -160Q934 -141 931 -123Q926 -119 925 -107Q924 -98 922 -94Q918 -84 913 -74Q911 -60 897 -36Q890 -16 874 0Q873 3 869 9L857 25Q855 30 852 34Q851 39 843 41Q836 43 835 47Q830 57 818 63Q812 65 806 69Q800 73 795 69Q789 65 785 55Q781 44 776 41Q768 27 754 17Q750 15 745 14Q740 12 740 7Q750 3 763 4Q775 2 789 1Q811 1 821 -19Q833 -40 847 -59Q854 -76 860 -93Q862 -99 870 -125Q872 -130 874 -146Q876 -163 881 -171Q879 -207 880 -225Q874 -254 862 -261Q842 -273 819 -268Q806 -266 792 -264Q787 -261 778 -261Q768 -261 765 -259Q748 -257 734 -249Q731 -246 726 -248Q720 -250 718 -249Q708 -242 692 -240Q676 -233 659 -233Q654 -228 642 -226Q631 -224 627 -221Q618 -223 605 -220Q587 -216 579 -220Q566 -236 562 -238Q558 -243 563 -247Q566 -250 572 -252Q581 -261 594 -261Q616 -271 640 -276Q662 -280 684 -285Q695 -287 706 -290Q711 -292 710 -296Q709 -300 704 -303Q698 -306 699 -311Q699 -317 699 -322Q705 -347 715 -369Q721 -381 707 -385Q692 -387 676 -390Q667 -389 658 -389Q654 -390 649 -391Q643 -392 643 -396Q642 -396 632 -399Q625 -396 629 -389Q633 -383 637 -379Q629 -350 627 -332Q617 -317 612 -298Q610 -283 596 -284Q591 -296 571 -309Q553 -329 551 -335Q549 -345 555 -357Q565 -383 568 -410Q573 -440 578 -470Q579 -488 582 -505Q585 -512 578 -523Q572 -532 574 -539Q572 -545 577 -552Q581 -559 580 -562Q579 -573 582 -585Q583 -589 584 -599Q585 -611 589 -617Q589 -621 595 -652Q599 -681 594 -691Q591 -703 604 -705ZM147 -626Q161 -624 178 -626Q197 -623 216 -612Q219 -610 218 -603Q217 -596 220 -592Q228 -587 222 -572Q225 -555 224 -536Q223 -518 221 -500Q215 -476 225 -472Q226 -472 265 -475Q271 -479 278 -473Q285 -467 282 -460Q280 -451 277 -443Q270 -437 262 -432Q255 -428 247 -430Q243 -428 225 -421Q210 -414 204 -390Q202 -386 194 -341Q193 -329 191 -318Q191 -312 197 -311Q203 -309 208 -312Q216 -312 224 -313Q232 -314 253 -308Q270 -300 273 -284Q270 -270 266 -256Q261 -254 256 -244Q252 -235 246 -233Q241 -230 243 -226Q244 -222 244 -217Q244 -213 241 -211Q237 -209 234 -208Q221 -194 219 -194Q218 -194 200 -198Q173 -198 145 -198Q143 -195 146 -186Q149 -176 145 -171Q138 -164 129 -176Q105 -191 95 -214Q80 -230 93 -253Q102 -272 108 -277Q120 -289 132 -302Q130 -306 131 -309Q132 -313 137 -313Q139 -307 146 -302Q152 -299 155 -306Q157 -311 157 -319Q154 -336 156 -352Q157 -364 161 -377Q163 -385 165 -394Q162 -402 147 -400Q137 -399 132 -402Q119 -404 105 -406Q101 -409 94 -409Q86 -409 84 -412Q87 -418 92 -420Q97 -421 102 -424L140 -443Q149 -447 160 -453Q171 -460 169 -472Q169 -474 172 -543Q172 -572 168 -596Q168 -605 156 -615Q151 -615 147 -619Q143 -623 147 -626ZM764 -171H767Q779 -171 784 -170Q796 -175 803 -156Q800 -153 801 -147Q801 -141 799 -138Q786 -127 774 -130Q758 -128 742 -127Q736 -127 724 -124Q709 -120 701 -122Q694 -118 668 -116Q664 -119 659 -117Q655 -115 653 -116Q649 -111 626 -109Q615 -108 602 -104Q590 -101 576 -102Q565 -103 553 -96Q531 -98 515 -109Q511 -112 506 -112Q506 -106 504 -104Q503 -101 507 -95Q511 -89 507 -85Q504 -82 507 -75Q509 -71 508 -68Q507 -64 510 -46Q513 -40 513 -32Q515 -16 516 -1Q517 8 510 18Q505 18 504 22Q502 30 498 28Q487 23 477 10Q474 11 472 5Q471 1 468 0Q461 -9 454 -19Q453 -19 445 -30Q443 -40 439 -51Q445 -50 447 -56Q449 -63 451 -67Q447 -88 449 -109Q449 -123 448 -138V-162Q448 -199 448 -236Q449 -249 450 -262Q450 -294 453 -323Q453 -337 453 -351Q455 -391 455 -410Q455 -417 456 -421V-440Q457 -444 457 -451Q457 -463 457 -476Q455 -483 456 -494Q458 -507 457 -512Q459 -519 454 -520Q449 -521 445 -518Q437 -511 429 -505Q423 -504 407 -495Q403 -488 392 -482Q382 -479 380 -483Q374 -482 366 -492Q359 -496 355 -486Q356 -482 351 -476Q346 -471 347 -466Q345 -459 345 -421Q344 -404 348 -388Q356 -388 363 -388Q369 -388 375 -388Q381 -391 391 -387Q401 -383 407 -385Q416 -384 425 -382Q434 -381 437 -371Q440 -364 431 -359Q424 -355 424 -351Q417 -347 405 -354Q398 -352 389 -358Q381 -364 377 -362Q373 -364 351 -376Q349 -379 348 -379Q347 -376 347 -366Q349 -336 350 -306Q360 -305 369 -305Q376 -304 383 -304Q386 -304 408 -299Q417 -296 418 -294Q423 -289 422 -282Q421 -274 414 -273Q410 -266 405 -267Q399 -268 393 -268Q382 -274 371 -281Q364 -284 357 -288Q354 -289 351 -289Q349 -288 350 -285Q350 -279 350 -273L347 -250Q347 -244 347 -238Q344 -232 345 -220Q346 -202 342 -196Q344 -176 339 -163Q340 -157 337 -132Q334 -118 331 -104Q329 -90 325 -75Q326 -70 323 -64Q320 -57 320 -53Q317 -48 315 -37Q312 -23 303 -16Q299 -24 295 -30Q289 -27 283 -35Q282 -36 274 -51Q272 -53 273 -56Q275 -60 274 -62Q282 -62 277 -77Q283 -99 297 -173Q299 -186 301 -200Q304 -233 307 -266Q313 -290 313 -341Q313 -355 313 -370Q314 -389 310 -408Q315 -425 310 -445L314 -475Q317 -485 320 -495Q324 -510 337 -512Q343 -513 346 -509Q349 -505 352 -503Q364 -503 372 -512Q383 -520 393 -529Q406 -539 423 -547Q430 -551 437 -555Q451 -555 456 -553Q471 -555 495 -539Q504 -525 513 -511Q513 -495 512 -480Q510 -472 510 -457Q509 -445 507 -433Q506 -422 504 -412Q509 -399 509 -387Q508 -383 508 -364Q505 -353 504 -339Q505 -321 505 -304Q508 -296 508 -286Q500 -270 505 -247Q506 -236 503 -225Q508 -215 505 -204Q499 -187 505 -171Q508 -164 503 -149Q503 -141 507 -123Q510 -123 511 -122Q543 -132 559 -134Q589 -140 618 -146Q622 -149 631 -148Q642 -147 645 -150Q667 -153 689 -157Q697 -159 705 -161Q719 -164 732 -167Q748 -170 764 -171ZM717 -544Q696 -542 687 -536Q685 -536 647 -524Q641 -521 634 -519Q628 -516 629 -508Q631 -493 632 -479Q631 -472 633 -457Q636 -441 633 -432Q629 -424 638 -421Q654 -423 678 -429Q693 -429 708 -430Q719 -426 724 -438Q722 -446 724 -467Q724 -471 725 -470Q725 -467 725 -463Q726 -462 726 -459Q727 -456 729 -456L728 -504Q726 -509 727 -518Q728 -526 727 -529Q728 -536 726 -541Q723 -547 717 -544ZM204 -285Q197 -283 189 -282Q182 -283 173 -279Q164 -275 160 -275Q158 -279 154 -280Q150 -281 149 -276Q150 -272 142 -259Q126 -254 135 -238Q137 -235 138 -229Q139 -218 143 -215Q166 -220 189 -226Q199 -239 214 -276Q216 -281 212 -285Q207 -289 204 -285Z"/>
</svg>