<svg xmlns="http://www.w3.org/2000/svg" viewBox="0 -800 1024 1024">
	<path fill="#000000" d="M233 -666Q242 -664 248 -666Q264 -656 282 -654Q300 -647 298 -619Q296 -602 287 -596Q285 -578 275 -573Q278 -565 274 -558Q272 -553 277 -551Q282 -549 286 -552Q306 -554 319 -563Q321 -562 325 -562L331 -564Q334 -569 341 -567Q347 -566 350 -568Q359 -565 369 -565Q388 -565 406 -563Q418 -557 417 -544Q416 -533 406 -526Q389 -532 383 -513Q373 -502 362 -497Q341 -477 320 -457Q320 -454 315 -448Q310 -441 312 -437Q318 -423 341 -430Q345 -427 357 -424Q372 -420 376 -413Q392 -407 392 -398Q386 -388 371 -386Q361 -381 350 -380Q348 -377 343 -376Q337 -375 336 -372Q332 -373 330 -369Q329 -366 330 -363L355 -340Q359 -336 363 -338Q368 -341 371 -340Q389 -337 390 -337Q397 -337 401 -340Q408 -340 415 -341Q422 -343 423 -336Q424 -332 425 -332Q428 -334 434 -335Q438 -331 443 -326Q447 -320 440 -315Q434 -315 432 -310Q431 -306 430 -302Q394 -297 359 -285Q346 -281 332 -277Q315 -275 317 -258Q306 -225 299 -193Q300 -176 298 -163Q302 -159 300 -150Q298 -140 304 -137Q322 -155 339 -173Q357 -195 375 -218Q396 -242 415 -270Q418 -276 422 -280Q423 -280 423 -279Q409 -254 407 -252Q404 -238 390 -229Q393 -223 386 -213Q381 -206 381 -200Q375 -192 376 -182L366 -165Q360 -157 354 -150Q344 -141 339 -132Q315 -102 302 -68Q305 -59 300 -51Q295 -44 293 -35Q288 -30 285 -30Q277 -32 268 -34Q263 -34 261 -31Q245 -37 239 -49Q239 -57 227 -65Q227 -79 230 -95Q236 -141 242 -188Q246 -212 250 -236Q249 -241 251 -246Q253 -251 248 -254Q244 -254 201 -243Q194 -242 186 -241Q173 -240 160 -237Q147 -234 135 -238Q129 -230 119 -237Q111 -234 99 -242Q92 -247 87 -247Q80 -250 74 -252Q67 -255 66 -261Q77 -261 90 -262Q102 -263 113 -267Q165 -275 195 -284Q206 -284 213 -292Q219 -299 224 -306Q236 -317 250 -334Q255 -343 264 -351Q273 -360 274 -372Q273 -373 256 -376Q243 -377 242 -387Q240 -397 233 -403Q233 -406 228 -410Q223 -414 223 -418Q223 -435 239 -444Q270 -469 294 -499Q299 -505 297 -512Q295 -514 292 -510Q288 -511 271 -506Q258 -507 245 -508Q232 -514 225 -525Q200 -538 207 -564Q210 -569 213 -579Q218 -595 224 -601Q224 -612 229 -622Q234 -633 238 -644Q243 -648 237 -656Q232 -663 233 -666ZM755 -619Q762 -621 766 -617Q771 -614 777 -613Q799 -610 816 -594Q825 -586 830 -576Q835 -574 835 -567Q835 -560 838 -558Q841 -556 845 -544Q845 -540 849 -528Q853 -515 852 -505Q848 -500 850 -494Q851 -488 852 -481Q851 -470 850 -460Q850 -455 848 -446Q845 -434 847 -427Q846 -422 849 -412Q852 -402 850 -395Q844 -381 847 -371Q849 -361 846 -350Q852 -339 850 -330Q844 -319 847 -305Q846 -295 844 -286Q854 -272 847 -256Q846 -251 852 -238Q854 -235 851 -229Q848 -223 848 -220Q859 -210 848 -188Q846 -184 849 -177Q852 -171 852 -168Q849 -161 855 -147Q855 -121 854 -95Q855 -91 853 -82Q851 -75 852 -70Q852 -61 852 -53Q850 -45 848 -37Q852 -24 846 -4Q844 8 842 20Q843 25 838 31Q834 36 833 38Q830 45 809 47Q796 37 787 24Q780 13 773 2Q772 -3 761 -3Q755 -3 755 -8Q759 -15 753 -21Q747 -25 746 -28Q746 -30 751 -29Q764 -31 778 -27Q783 -27 784 -32Q785 -37 783 -40Q785 -52 785 -59Q786 -74 787 -89Q785 -106 787 -113Q788 -123 789 -134Q788 -165 792 -194Q793 -202 791 -211Q788 -223 790 -228Q793 -234 791 -248Q789 -260 792 -266Q792 -286 792 -306Q793 -312 791 -323Q789 -338 792 -345Q792 -380 791 -415Q790 -441 792 -468Q792 -498 788 -518Q784 -533 780 -547Q775 -561 762 -569Q749 -570 738 -565Q727 -560 716 -556Q691 -547 686 -541Q675 -538 664 -535Q654 -538 649 -542Q645 -543 619 -555Q614 -558 606 -561Q599 -564 601 -571Q615 -574 628 -578Q703 -606 711 -608Q719 -612 733 -614Q749 -616 755 -619ZM537 -585Q544 -586 555 -579Q563 -574 567 -573Q574 -572 594 -561Q605 -550 614 -536Q617 -530 623 -525Q629 -520 627 -513Q617 -506 609 -488Q607 -473 605 -459Q600 -448 603 -434Q603 -428 600 -421Q597 -415 603 -409Q612 -409 631 -413Q649 -417 662 -416Q675 -417 688 -418L713 -413Q719 -412 721 -403Q723 -395 726 -392Q728 -386 723 -384Q719 -383 715 -380Q711 -373 695 -375Q679 -372 678 -372Q667 -372 656 -370Q651 -369 645 -367Q639 -365 638 -372Q634 -378 624 -383Q615 -388 612 -391Q607 -393 602 -396Q596 -393 595 -383Q595 -374 593 -372Q589 -354 585 -337Q580 -326 591 -320Q607 -322 625 -322Q643 -317 661 -313Q679 -313 704 -295Q722 -277 716 -266Q713 -257 701 -257Q697 -257 682 -260Q671 -265 662 -254Q652 -256 648 -257Q643 -261 643 -267Q642 -268 640 -267Q636 -267 635 -259Q634 -253 630 -252Q623 -258 624 -267Q623 -271 617 -271Q611 -271 612 -275Q615 -293 599 -300Q594 -301 590 -302Q585 -303 583 -298Q580 -286 576 -274Q576 -260 576 -246Q576 -240 572 -233Q566 -222 568 -216Q571 -209 569 -202Q567 -195 566 -187Q559 -162 554 -135Q542 -123 541 -114Q542 -106 531 -91Q525 -76 513 -63Q500 -51 488 -38Q483 -29 470 -42Q462 -50 459 -61Q457 -73 453 -82Q449 -88 454 -91Q458 -95 463 -98Q472 -116 482 -133Q496 -151 497 -175Q497 -178 502 -183Q508 -190 506 -194Q501 -203 505 -211Q509 -219 510 -227Q508 -237 516 -245Q519 -277 526 -307Q528 -334 532 -358Q534 -364 535 -378Q536 -392 539 -399Q544 -431 544 -456Q548 -470 550 -484L551 -540Q545 -550 541 -560Q542 -564 538 -573Q535 -580 537 -585ZM310 -354Q307 -345 303 -337Q311 -322 312 -316Q323 -316 332 -320Q349 -323 332 -343Q319 -356 310 -354ZM257 -314H256Q252 -311 250 -308Q247 -304 241 -304Q238 -307 234 -303Q230 -298 233 -295L258 -301Q264 -303 263 -308Q262 -315 257 -314Z"/>
</svg>