<svg xmlns="http://www.w3.org/2000/svg" viewBox="0 -800 1024 1024">
	<path fill="#000000" d="M590 -787Q599 -787 600 -786Q610 -783 620 -781Q649 -785 659 -767Q661 -764 671 -728Q673 -716 668 -695Q663 -673 664 -663Q660 -652 660 -625Q659 -601 658 -577Q649 -568 660 -559Q663 -552 670 -557Q676 -558 682 -561Q689 -564 694 -558Q696 -549 707 -560Q720 -566 738 -561Q744 -560 751 -558Q758 -556 761 -548Q761 -540 758 -531Q757 -528 750 -524Q745 -522 743 -518Q736 -504 727 -511Q722 -514 717 -509Q712 -505 709 -505Q702 -507 697 -505Q692 -503 686 -502Q674 -497 662 -493Q651 -491 649 -481Q647 -471 645 -462Q639 -437 633 -413Q630 -402 626 -392Q630 -388 645 -393Q683 -401 690 -401Q702 -403 710 -411Q712 -420 726 -433Q736 -443 740 -449Q754 -463 763 -478Q772 -482 777 -491Q783 -499 788 -507Q793 -521 801 -531Q802 -536 802 -542Q802 -548 806 -551Q810 -554 819 -554Q834 -552 848 -551Q860 -552 867 -540Q874 -529 867 -518Q867 -513 860 -505Q852 -496 853 -489Q835 -465 826 -452Q822 -448 819 -444Q815 -440 821 -435Q833 -435 857 -437Q871 -436 885 -435Q892 -438 900 -435Q909 -432 909 -423Q905 -415 906 -405Q903 -399 899 -393Q896 -386 889 -384Q873 -387 855 -383Q850 -383 840 -379Q815 -376 790 -374Q772 -377 761 -369Q750 -367 739 -365Q734 -363 728 -354Q724 -347 720 -344Q718 -339 709 -335Q701 -330 698 -326Q693 -319 675 -303Q665 -299 661 -281Q645 -271 640 -264Q630 -256 631 -251Q640 -251 650 -258Q667 -266 703 -278Q746 -288 759 -287Q801 -291 823 -263Q835 -254 840 -235Q847 -226 847 -211Q858 -195 849 -177Q845 -172 847 -158Q848 -149 847 -144Q843 -139 844 -127Q845 -117 844 -113Q842 -102 840 -91Q843 -85 840 -71Q837 -60 839 -53Q838 -35 833 -17Q827 -6 826 8Q826 12 819 17Q814 21 812 26Q812 32 810 36Q808 41 803 39Q788 28 774 18Q770 17 766 9Q762 2 758 1Q749 5 731 11Q695 6 659 9Q655 11 639 8Q634 5 628 9Q622 12 620 12Q608 6 595 -1Q583 -6 576 -16Q568 -26 561 -35Q556 -46 551 -58Q547 -63 554 -71Q560 -79 557 -84Q558 -104 563 -123Q566 -142 569 -162Q571 -168 573 -175Q576 -182 569 -185Q562 -182 557 -175Q553 -169 547 -163Q525 -142 502 -122Q489 -108 475 -95Q465 -93 445 -78Q428 -72 425 -89Q418 -98 417 -104Q416 -115 429 -117Q445 -139 456 -147Q482 -174 507 -201Q517 -217 531 -230Q535 -239 549 -251Q560 -261 563 -265Q562 -272 576 -277Q579 -281 581 -286Q583 -291 589 -291Q595 -297 601 -305Q607 -313 616 -319Q627 -331 640 -342Q640 -348 635 -347Q630 -346 627 -343Q623 -338 608 -341Q580 -335 567 -336Q555 -333 548 -329Q534 -330 521 -324Q510 -320 495 -320Q488 -322 478 -316Q467 -317 457 -316Q447 -314 439 -319Q430 -323 412 -325Q407 -330 410 -335Q412 -339 418 -342Q441 -352 463 -352Q473 -354 483 -357L524 -366Q534 -368 544 -371Q561 -373 576 -383Q585 -414 594 -445Q595 -456 593 -465Q590 -470 582 -468Q576 -466 573 -468Q562 -471 553 -472Q535 -477 517 -480Q512 -481 507 -483Q503 -485 506 -489Q573 -515 592 -521Q598 -524 600 -530Q601 -536 603 -542Q604 -557 604 -572Q605 -588 605 -604Q606 -628 606 -653Q606 -670 605 -687Q605 -705 605 -723Q601 -733 599 -744Q597 -755 587 -761Q581 -765 576 -768Q570 -772 570 -779Q580 -783 590 -787ZM241 -700L249 -699Q255 -692 266 -692Q276 -692 285 -691Q296 -683 306 -676Q312 -653 305 -639Q296 -636 289 -623Q283 -610 276 -607Q272 -609 269 -604Q266 -599 263 -598Q260 -590 258 -573Q256 -567 260 -564Q264 -561 271 -563Q298 -568 301 -570Q304 -569 308 -573Q313 -578 316 -574Q324 -573 328 -576Q333 -580 337 -581Q359 -578 380 -576Q386 -574 394 -573Q402 -573 402 -565Q414 -544 389 -530Q385 -536 377 -532Q375 -531 366 -525Q359 -521 353 -516Q346 -510 337 -510Q334 -504 328 -501Q321 -498 315 -494Q308 -495 304 -486Q299 -479 287 -477Q279 -472 270 -468Q270 -465 265 -464Q260 -463 260 -460Q257 -460 255 -458Q252 -456 253 -454Q253 -453 257 -453Q285 -464 296 -462Q300 -459 310 -462Q318 -465 322 -462Q328 -465 330 -460Q332 -455 327 -452Q323 -448 325 -446Q333 -445 338 -442Q343 -438 338 -434Q333 -430 328 -429Q311 -424 293 -417Q288 -419 286 -415Q284 -410 290 -407Q297 -406 300 -397Q303 -389 306 -387Q313 -388 320 -389Q331 -387 339 -389Q348 -389 357 -389Q378 -395 389 -392Q394 -392 394 -390Q394 -388 393 -385Q389 -379 395 -376Q400 -379 403 -375Q405 -371 403 -367Q397 -365 396 -360Q394 -355 391 -357Q389 -355 382 -353Q374 -351 372 -347Q354 -341 335 -335Q330 -334 321 -329Q311 -323 305 -324Q299 -319 288 -317Q280 -314 278 -307Q276 -301 274 -295Q266 -289 274 -277L272 -256Q268 -251 270 -240Q272 -231 271 -229Q269 -227 269 -222Q270 -215 266 -212Q269 -207 268 -196Q267 -185 270 -181Q265 -176 268 -168Q269 -165 274 -168Q286 -180 294 -192Q335 -242 350 -275Q355 -281 361 -300Q363 -305 368 -303Q369 -302 366 -300Q361 -294 361 -286Q360 -280 359 -274Q351 -273 347 -267Q351 -249 341 -241Q332 -227 338 -221Q341 -218 337 -211Q333 -204 334 -200Q335 -191 327 -186Q322 -176 322 -164Q319 -161 315 -152Q311 -144 306 -139Q306 -129 296 -121Q292 -108 287 -96Q287 -88 279 -87Q272 -88 262 -83Q254 -79 250 -78Q248 -86 241 -86Q229 -106 218 -109Q208 -110 208 -118Q207 -128 206 -135L208 -192Q212 -200 209 -209Q212 -215 210 -224Q208 -234 211 -239Q214 -263 216 -288Q206 -291 194 -285Q182 -284 169 -283Q164 -285 160 -283Q156 -281 154 -283Q146 -276 119 -279Q107 -284 93 -288Q80 -293 73 -304Q87 -305 101 -307Q114 -312 130 -313Q147 -317 164 -321Q168 -323 176 -323Q185 -323 187 -326Q198 -332 211 -337Q224 -341 234 -352Q232 -379 242 -396Q241 -399 245 -405Q248 -410 246 -412Q238 -412 230 -412Q226 -414 216 -413Q205 -412 200 -416Q198 -419 192 -421Q186 -423 185 -425Q180 -427 181 -429Q184 -431 190 -429Q214 -434 219 -437Q229 -440 235 -445Q237 -448 259 -473Q260 -477 264 -479Q268 -481 269 -483Q286 -505 291 -516Q294 -522 290 -523Q283 -525 277 -524Q263 -521 249 -518Q242 -518 238 -522Q231 -527 222 -531Q213 -536 209 -544Q199 -550 201 -577Q208 -592 214 -607Q216 -619 229 -639Q232 -653 241 -665Q246 -673 232 -687Q229 -693 233 -695Q237 -697 241 -700ZM277 -390Q269 -377 274 -367Q275 -361 287 -365Q289 -367 293 -367Q297 -367 299 -370Q303 -373 300 -376Q296 -379 293 -382Q287 -392 277 -390ZM757 -248Q737 -248 726 -242Q721 -243 706 -238Q687 -228 657 -228Q647 -229 637 -231Q631 -231 630 -235Q629 -239 628 -242Q629 -246 626 -247Q622 -248 620 -246Q613 -242 617 -235Q620 -229 628 -228Q633 -214 630 -197Q625 -184 626 -169Q624 -159 629 -151L687 -152Q705 -150 722 -148Q729 -142 738 -137Q743 -135 741 -130Q740 -128 736 -121Q729 -111 720 -114Q707 -119 693 -119Q667 -122 644 -128Q637 -135 625 -135Q617 -134 618 -128Q618 -121 619 -115Q614 -91 617 -67Q617 -37 618 -31Q615 -25 623 -23Q671 -29 673 -29Q695 -35 709 -32Q714 -34 723 -33Q732 -32 736 -33Q740 -33 745 -31Q755 -27 760 -30Q766 -34 772 -24Q775 -17 779 -28Q778 -44 783 -63Q785 -78 787 -93Q789 -107 790 -122Q794 -135 793 -148Q794 -154 794 -160Q794 -180 794 -200Q792 -212 790 -224Q788 -235 779 -243Q771 -254 757 -248Z"/>
</svg>