<svg xmlns="http://www.w3.org/2000/svg" viewBox="0 -800 1024 1024">
	<path fill="#000000" d="M606 -706Q611 -706 614 -702Q621 -704 626 -700Q631 -695 637 -692Q646 -690 655 -687Q664 -685 669 -676Q670 -659 653 -647Q647 -646 641 -638Q637 -633 634 -632Q624 -618 617 -603Q607 -595 602 -580L574 -544Q564 -520 554 -497Q550 -492 549 -484Q547 -476 555 -476Q584 -478 623 -489Q633 -491 645 -497Q652 -497 665 -501Q683 -506 692 -505Q698 -511 718 -515Q731 -518 738 -521Q750 -524 762 -528Q768 -532 764 -536Q760 -541 757 -545Q757 -548 751 -554Q744 -561 745 -568Q753 -565 762 -565Q771 -564 777 -556Q784 -558 789 -554Q793 -550 798 -549Q808 -542 818 -547Q832 -543 836 -537Q842 -533 844 -526Q853 -508 845 -491Q841 -487 835 -487Q825 -489 815 -492Q804 -490 792 -489Q791 -486 785 -486Q780 -486 778 -483Q762 -482 748 -476Q739 -476 720 -469Q707 -464 698 -463Q684 -459 670 -456Q657 -449 642 -446Q626 -443 613 -439Q594 -434 574 -433Q560 -435 558 -435Q550 -431 542 -431Q532 -426 526 -434Q520 -442 514 -446Q499 -463 490 -479Q487 -492 492 -503Q498 -515 500 -527Q523 -582 537 -600Q550 -627 584 -666Q586 -670 594 -682Q604 -696 606 -706ZM322 -628Q337 -621 338 -618Q354 -613 352 -596Q354 -590 352 -574Q355 -566 350 -554Q344 -541 347 -535Q346 -526 345 -517Q347 -509 342 -497Q338 -488 338 -483Q332 -463 326 -444Q325 -440 321 -435Q316 -431 320 -426L347 -427Q357 -427 367 -427Q397 -421 405 -409Q416 -402 421 -389Q426 -377 433 -367Q434 -355 437 -347Q435 -340 436 -328Q437 -310 434 -303Q425 -277 429 -268Q427 -252 425 -237Q424 -217 415 -201Q416 -197 411 -194Q406 -191 408 -188Q397 -179 401 -162Q398 -153 394 -144Q395 -135 387 -129Q377 -114 367 -100Q360 -97 357 -87Q357 -82 353 -82Q348 -81 344 -84Q338 -84 333 -90Q327 -97 322 -98Q312 -112 303 -121Q298 -123 295 -132Q292 -142 286 -144Q282 -145 281 -147Q280 -150 280 -152Q277 -153 275 -157Q272 -162 270 -162Q272 -162 294 -157Q298 -159 309 -156Q320 -153 325 -155Q334 -154 338 -166Q348 -192 355 -217Q366 -245 370 -317Q374 -364 364 -385Q361 -392 355 -392Q346 -390 336 -388Q323 -382 306 -377Q285 -375 271 -370Q263 -366 255 -362Q242 -359 229 -357Q218 -354 211 -348Q207 -345 199 -350Q194 -353 190 -353Q185 -362 180 -371Q180 -374 177 -379Q173 -385 175 -390Q164 -406 163 -411Q164 -421 176 -453Q182 -471 187 -490Q193 -524 199 -558Q201 -577 189 -579Q183 -578 183 -581Q184 -586 189 -591Q189 -597 195 -599Q201 -601 206 -604Q211 -604 221 -610Q232 -617 239 -616Q268 -631 283 -627Q303 -627 322 -628ZM293 -590Q285 -586 276 -583Q265 -580 256 -571Q245 -573 234 -575Q224 -580 213 -577Q215 -573 220 -568Q226 -563 227 -559Q234 -554 236 -529Q236 -509 236 -490Q231 -476 231 -464Q226 -466 225 -461Q223 -456 228 -453Q226 -450 227 -444Q228 -437 224 -434Q218 -415 215 -409Q216 -404 213 -398Q211 -392 217 -391Q252 -407 278 -412Q284 -414 283 -419Q281 -423 278 -428Q269 -445 253 -461Q259 -462 265 -464Q273 -460 280 -463Q294 -480 296 -512Q303 -545 300 -576Q299 -580 298 -585Q297 -590 293 -590ZM766 -404L803 -403Q813 -403 831 -389Q830 -385 836 -379Q842 -373 836 -368Q822 -363 817 -364Q811 -356 802 -359Q793 -361 785 -360Q781 -358 774 -361Q766 -364 763 -360Q761 -356 752 -352Q743 -348 741 -343Q738 -339 737 -340Q736 -343 740 -347Q755 -373 741 -376Q732 -382 713 -384Q698 -386 694 -387Q692 -386 684 -388Q677 -390 673 -387Q670 -387 670 -388Q673 -389 677 -390Q704 -394 731 -399Q749 -401 766 -404ZM558 -370Q566 -370 572 -364Q584 -359 582 -343Q579 -339 577 -327Q574 -313 567 -308Q562 -289 559 -285Q555 -284 553 -289Q551 -295 549 -295Q546 -291 543 -294Q540 -300 537 -304Q529 -313 528 -324Q527 -338 538 -344Q541 -344 542 -349Q544 -356 548 -355Q553 -362 558 -370ZM303 -336H306Q318 -330 313 -314Q309 -313 301 -307Q294 -301 287 -301Q284 -295 271 -290Q262 -286 257 -281Q254 -282 250 -279Q246 -276 242 -277Q233 -268 227 -267Q210 -258 192 -250Q177 -240 156 -232Q140 -225 126 -215Q116 -207 105 -206Q94 -201 89 -210Q84 -219 80 -225Q80 -229 76 -235Q70 -242 71 -247Q80 -251 90 -260Q93 -265 95 -271Q96 -272 97 -273Q100 -265 102 -265Q104 -267 105 -266Q106 -262 109 -262Q133 -269 141 -274Q161 -281 180 -289Q194 -293 207 -298Q255 -317 303 -336ZM632 -300Q636 -301 639 -295Q642 -290 645 -289Q656 -289 664 -287Q669 -291 673 -285Q676 -280 679 -281Q686 -281 686 -272Q686 -262 691 -261Q695 -262 708 -266L724 -272Q746 -278 771 -274Q791 -270 800 -263Q814 -260 822 -243Q825 -232 818 -219Q817 -210 816 -202Q817 -195 811 -192Q812 -183 807 -178Q801 -174 796 -168Q798 -163 792 -155Q787 -149 787 -146Q781 -147 780 -143Q778 -138 777 -134Q761 -124 757 -107Q789 -99 822 -94Q888 -80 890 -79Q894 -71 901 -69Q907 -73 917 -63Q923 -64 928 -57Q933 -50 937 -50Q939 -47 942 -45Q946 -42 947 -37Q952 -34 951 -28Q950 -22 944 -21Q941 -11 930 -15Q922 -10 915 -13Q909 -16 902 -17Q840 -43 774 -52Q751 -56 728 -61Q713 -68 698 -55Q696 -51 685 -44Q678 -39 670 -35Q656 -35 652 -26Q647 -19 641 -22Q634 -27 641 -33Q644 -37 646 -41L657 -56Q662 -63 662 -64Q666 -67 664 -71Q662 -75 657 -75Q626 -86 593 -89Q583 -87 572 -86Q566 -86 563 -89Q556 -93 552 -88Q547 -83 543 -80Q539 -75 528 -79Q531 -89 534 -100Q542 -120 552 -135Q572 -159 586 -192Q591 -197 596 -209Q603 -224 609 -229Q625 -249 630 -273Q632 -277 631 -285Q629 -294 632 -300ZM674 -247L665 -233Q662 -226 659 -219Q655 -211 642 -196Q628 -180 624 -171Q621 -164 611 -154Q601 -143 597 -135Q591 -128 586 -118Q580 -109 569 -107Q560 -95 564 -91Q588 -94 630 -108Q650 -108 669 -108Q684 -108 699 -108Q711 -121 720 -139Q730 -160 743 -180Q755 -201 760 -224Q765 -232 760 -237Q756 -241 747 -243Q704 -240 692 -244Q688 -243 682 -247Q677 -251 674 -247Z"/>
</svg>