<svg xmlns="http://www.w3.org/2000/svg" viewBox="0 -800 1024 1024">
	<path fill="#000000" d="M673 -680Q678 -682 686 -676Q698 -674 709 -676Q711 -667 721 -662Q726 -664 731 -656Q731 -653 735 -648Q740 -642 739 -636Q740 -625 735 -615Q731 -605 727 -595Q711 -582 708 -578Q702 -577 694 -569Q687 -561 683 -560L657 -535Q646 -527 637 -517Q629 -515 618 -500Q613 -495 602 -489Q590 -482 585 -477Q584 -472 577 -468Q567 -462 568 -454Q573 -450 590 -460Q593 -465 597 -464Q601 -463 606 -464Q622 -470 630 -471Q644 -475 670 -479Q681 -484 702 -484Q715 -483 727 -477Q746 -479 753 -461Q757 -457 755 -448Q753 -439 756 -435Q759 -431 751 -418Q750 -407 740 -397Q739 -387 735 -375Q723 -361 710 -348Q706 -344 701 -340Q695 -336 697 -330Q698 -326 705 -327Q714 -328 715 -322Q715 -307 698 -298Q688 -295 678 -293Q698 -282 701 -259Q704 -235 688 -219Q650 -170 656 -105Q667 -84 695 -76Q712 -71 747 -70Q768 -66 797 -66Q852 -68 906 -71Q919 -68 926 -80Q932 -90 932 -103Q932 -111 932 -112Q931 -111 935 -106Q937 -104 940 -103Q952 -96 962 -85Q971 -74 980 -65Q987 -66 992 -60Q997 -54 998 -47Q1000 -37 991 -34Q987 -26 979 -25Q970 -24 963 -22Q955 -21 937 -25Q920 -29 909 -27Q879 -23 848 -19Q744 -17 696 -38Q663 -40 634 -79Q613 -95 605 -146Q609 -186 634 -237Q647 -262 660 -288Q658 -287 655 -287Q648 -282 641 -278Q633 -274 630 -265Q629 -256 622 -248Q614 -241 609 -232Q605 -219 597 -208Q588 -202 584 -194Q580 -186 574 -179Q565 -175 555 -161Q548 -151 543 -147Q532 -141 520 -123Q511 -115 500 -109Q494 -110 489 -110Q483 -110 480 -115Q477 -128 477 -136Q484 -146 491 -157Q493 -164 508 -175Q522 -201 541 -226Q542 -228 558 -255Q559 -261 553 -261Q546 -261 544 -258Q540 -253 534 -254Q529 -255 524 -253Q518 -249 509 -251Q492 -244 483 -253Q475 -262 466 -271Q465 -278 469 -278Q476 -279 482 -276Q496 -285 517 -291Q519 -297 525 -297Q530 -298 535 -300Q549 -307 583 -318Q590 -319 612 -326Q626 -324 638 -335Q645 -341 656 -358Q671 -387 681 -417Q684 -422 684 -429Q684 -433 678 -432Q652 -426 628 -418Q611 -413 594 -414Q574 -418 566 -417Q550 -420 542 -415Q546 -400 545 -385Q544 -381 542 -378L539 -363Q538 -359 536 -355Q530 -351 531 -345Q531 -339 531 -334Q528 -331 528 -321Q528 -311 525 -308Q523 -303 518 -303Q510 -307 501 -312Q482 -330 478 -335Q467 -349 469 -364Q474 -395 492 -416Q500 -423 497 -435Q500 -436 502 -438L511 -447Q513 -448 515 -450Q527 -450 537 -463Q587 -509 635 -589Q641 -606 648 -621Q652 -629 645 -631Q633 -624 625 -623Q603 -616 598 -612Q586 -611 577 -605Q567 -599 557 -595Q545 -584 538 -580Q530 -576 531 -568Q531 -560 530 -554Q519 -541 520 -533Q517 -523 513 -514Q510 -506 500 -504Q491 -502 485 -507Q472 -520 464 -534Q457 -542 460 -552Q462 -562 464 -570Q465 -572 467 -582Q469 -592 474 -597Q476 -601 480 -600Q484 -599 486 -595Q489 -583 500 -583Q523 -607 556 -626Q568 -633 618 -658Q632 -663 647 -673Q671 -679 673 -680ZM178 -654Q181 -654 182 -653Q183 -651 196 -647Q205 -649 220 -640Q231 -639 241 -632Q251 -625 253 -613Q256 -603 247 -588Q241 -576 240 -572Q233 -559 226 -547Q218 -541 213 -528Q207 -515 204 -511Q202 -506 207 -505Q211 -504 215 -506Q225 -514 244 -519Q256 -528 282 -530Q293 -531 303 -532Q313 -531 322 -530Q324 -527 333 -524Q341 -522 341 -515Q332 -506 334 -498Q338 -490 328 -486Q322 -488 315 -483Q310 -480 307 -480Q292 -477 277 -474Q272 -472 266 -463Q260 -454 254 -452Q245 -451 245 -464Q245 -475 240 -476Q220 -475 199 -474Q179 -481 159 -450Q149 -441 144 -426Q143 -422 137 -418Q131 -414 130 -412Q128 -405 117 -398Q105 -391 102 -385Q99 -379 94 -376Q89 -373 84 -370Q83 -382 87 -393Q96 -407 105 -421Q109 -435 115 -442Q127 -474 135 -489Q136 -501 142 -511Q148 -522 152 -532Q161 -552 170 -572Q179 -594 184 -616Q186 -623 179 -635Q172 -647 178 -654ZM285 -411Q291 -411 298 -408Q301 -408 301 -405Q302 -402 304 -400Q304 -387 310 -382Q312 -376 305 -372Q304 -372 292 -367Q286 -360 269 -359Q255 -358 251 -356Q244 -353 247 -347Q249 -342 252 -337Q255 -335 255 -327Q256 -317 260 -314Q279 -317 297 -326Q307 -326 307 -342Q306 -351 319 -346Q334 -336 340 -339Q348 -338 358 -340Q366 -336 366 -324Q366 -311 358 -306Q344 -301 335 -294L285 -270Q278 -267 271 -265Q264 -262 260 -255Q251 -248 252 -236Q253 -225 252 -214Q246 -204 249 -196Q252 -185 246 -174Q247 -162 245 -152Q245 -142 243 -133Q241 -123 247 -115Q251 -120 254 -125Q289 -164 318 -204Q326 -219 334 -235Q335 -242 340 -245Q341 -234 334 -223Q330 -211 326 -200Q324 -186 319 -173Q320 -168 316 -161Q312 -152 313 -147Q305 -139 303 -130Q298 -119 295 -106Q289 -102 288 -95Q287 -89 285 -82Q272 -67 265 -48Q256 -45 255 -35Q255 -25 242 -25Q234 -25 230 -29Q203 -35 190 -64Q182 -75 182 -86Q184 -91 182 -98Q180 -107 183 -110Q182 -126 184 -143Q189 -148 188 -160Q187 -170 189 -174Q192 -189 195 -205Q194 -209 195 -216Q196 -226 193 -229Q185 -232 162 -225Q152 -223 142 -222Q124 -216 117 -217Q69 -217 51 -229Q45 -230 41 -233Q36 -237 40 -240Q46 -240 60 -244Q72 -247 83 -250Q108 -259 136 -265Q158 -273 180 -281Q188 -284 198 -289Q208 -293 208 -305Q209 -307 209 -310L211 -319Q212 -321 212 -324Q214 -338 208 -346Q182 -352 162 -364Q159 -368 162 -370Q167 -371 172 -370Q198 -379 209 -385Q230 -396 253 -404Q268 -410 285 -411Z"/>
</svg>