<svg xmlns="http://www.w3.org/2000/svg" viewBox="0 -800 1024 1024">
	<path fill="#000000" d="M757 -338Q753 -330 748 -323Q740 -320 735 -314Q730 -307 724 -301Q715 -285 705 -283Q703 -280 697 -274L682 -256Q678 -251 674 -247Q675 -241 681 -240Q687 -239 692 -237Q712 -235 731 -231Q753 -226 775 -214Q782 -215 793 -209Q804 -203 809 -203Q821 -198 833 -193Q853 -189 871 -178Q889 -168 908 -159Q918 -153 927 -148Q935 -134 920 -124Q916 -119 912 -112Q907 -105 900 -109Q896 -114 891 -113Q887 -111 882 -110Q855 -120 831 -131Q813 -137 798 -145Q779 -153 759 -160Q751 -164 727 -174Q707 -182 687 -185Q676 -184 676 -174Q675 -165 671 -157Q666 -156 661 -148Q655 -140 650 -139Q644 -133 638 -127Q631 -122 628 -114Q626 -108 621 -104Q615 -101 610 -96Q604 -86 595 -77Q593 -73 585 -66Q577 -59 574 -54L555 -36Q550 -34 548 -30Q545 -25 542 -21Q530 -13 518 -6Q505 -4 496 -5Q492 -10 488 -7Q483 -5 480 -4Q478 -4 476 -7Q475 -13 470 -13Q466 -14 463 -16Q459 -21 455 -23Q449 -22 447 -26Q444 -30 446 -35Q447 -43 441 -46Q436 -49 432 -53Q431 -59 424 -71Q417 -84 417 -92Q417 -98 417 -104Q414 -119 415 -129Q417 -149 418 -169Q421 -194 429 -216Q430 -236 437 -253Q437 -265 446 -294Q449 -310 452 -326Q459 -357 465 -389Q476 -436 477 -439Q483 -470 488 -502Q492 -507 492 -518Q492 -528 494 -531Q495 -551 499 -569Q498 -581 501 -594Q501 -597 495 -601Q489 -606 493 -609Q502 -610 510 -614Q521 -618 532 -623Q544 -623 553 -631Q572 -635 589 -644Q609 -651 615 -652Q618 -655 628 -656Q638 -657 642 -661H646Q661 -656 682 -654Q692 -651 707 -637Q723 -622 726 -611Q726 -606 729 -595Q733 -584 731 -577Q732 -563 727 -551Q722 -539 718 -526Q713 -521 709 -507Q706 -497 704 -493Q698 -489 697 -477Q696 -466 692 -462Q687 -456 684 -442Q682 -430 679 -425Q675 -417 676 -406L668 -394Q664 -386 663 -381Q661 -366 655 -351Q651 -348 649 -338Q649 -334 645 -332Q641 -331 638 -330Q628 -326 623 -330Q617 -322 610 -314Q600 -317 589 -320Q577 -331 562 -328Q554 -325 547 -334L520 -343Q512 -347 511 -344Q512 -339 510 -329Q501 -317 504 -303Q501 -290 500 -277Q501 -274 500 -268Q498 -260 500 -256Q496 -238 496 -228Q488 -214 492 -191Q487 -175 484 -156Q484 -150 482 -145Q479 -140 483 -134Q487 -128 485 -115Q485 -107 485 -100Q483 -82 486 -67Q487 -60 487 -54Q487 -50 491 -48Q495 -47 499 -49Q544 -86 548 -88Q555 -94 568 -107L607 -143Q617 -152 627 -162Q642 -176 650 -193Q640 -205 620 -209Q610 -213 583 -217Q567 -221 550 -225Q544 -230 552 -232Q576 -236 600 -243Q610 -249 614 -255Q618 -261 626 -271Q635 -278 644 -289Q656 -304 661 -308Q671 -319 680 -330Q690 -340 699 -356Q713 -372 727 -386L734 -391Q739 -402 755 -420Q774 -442 779 -453Q779 -459 776 -460Q772 -460 768 -459Q764 -459 764 -463Q761 -465 762 -466Q764 -467 769 -469Q775 -475 789 -476Q801 -477 806 -480Q808 -479 809 -479L816 -477Q818 -477 819 -476Q840 -476 849 -468Q853 -462 856 -454Q859 -447 852 -441Q847 -445 847 -434Q841 -424 834 -414Q826 -396 813 -392Q804 -381 793 -373Q790 -367 780 -359Q769 -351 766 -345ZM282 -627Q289 -626 295 -620Q294 -615 302 -608Q311 -600 308 -593Q299 -585 295 -563Q289 -544 283 -525Q281 -516 288 -511Q295 -506 302 -501Q332 -478 340 -466Q346 -463 350 -454Q355 -444 357 -442Q359 -437 356 -430Q353 -423 353 -420Q355 -413 351 -401Q348 -391 348 -386Q344 -371 327 -362Q316 -345 305 -345Q297 -345 288 -357Q279 -364 257 -393Q251 -408 241 -417Q230 -427 218 -436Q214 -444 205 -437Q201 -433 203 -431Q205 -428 206 -424Q205 -421 205 -394Q202 -377 203 -358Q202 -333 200 -308Q197 -302 199 -291Q201 -279 200 -275Q197 -272 200 -264Q202 -258 201 -255Q199 -247 202 -237Q200 -226 199 -214Q201 -209 201 -195Q198 -189 200 -176Q202 -163 200 -158Q202 -120 203 -82Q205 -73 205 -37Q203 -27 189 -37Q188 -36 180 -39Q178 -44 170 -48Q162 -52 160 -56Q155 -67 148 -75Q143 -96 144 -118Q138 -125 144 -138Q142 -160 146 -167Q145 -194 149 -218Q152 -244 154 -271Q154 -283 157 -292Q157 -306 159 -334L162 -374Q167 -436 169 -448Q172 -460 171 -473Q171 -487 181 -494Q184 -497 185 -496Q186 -494 187 -490Q204 -466 206 -459Q219 -442 231 -439Q249 -426 266 -421Q275 -427 271 -438Q272 -450 272 -463Q269 -473 255 -493Q243 -511 239 -523Q244 -556 246 -560Q246 -565 248 -570Q250 -576 245 -578Q241 -578 231 -573Q220 -567 212 -570Q203 -574 194 -574Q179 -572 174 -582Q171 -588 178 -590Q184 -593 188 -596Q244 -622 263 -626Q273 -624 282 -627ZM644 -612Q640 -612 619 -604Q606 -600 596 -590Q588 -585 581 -590Q574 -595 567 -597Q561 -594 552 -598Q543 -602 539 -600Q531 -593 535 -585Q540 -577 545 -569Q555 -559 549 -543Q544 -540 546 -535Q548 -530 547 -525Q546 -513 544 -502Q544 -496 540 -490Q537 -484 544 -479Q559 -480 573 -482Q584 -480 597 -482Q610 -481 622 -480Q626 -482 633 -478Q639 -475 643 -475Q653 -500 653 -528Q657 -535 657 -551Q663 -587 663 -589Q662 -598 660 -607Q659 -612 653 -613Q648 -614 644 -612ZM522 -376Q533 -375 544 -374Q553 -373 562 -373Q565 -377 574 -376Q582 -375 585 -377Q607 -377 623 -403Q624 -417 629 -429Q630 -437 621 -439Q590 -442 560 -442Q557 -442 551 -446Q542 -452 539 -445Q537 -435 532 -426Q523 -412 526 -393Q527 -385 522 -376Z"/>
</svg>