<svg xmlns="http://www.w3.org/2000/svg" viewBox="0 -800 1024 1024">
	<path fill="#000000" d="M652 -750Q676 -750 680 -749Q683 -747 691 -749Q699 -751 704 -747Q718 -736 720 -716Q723 -710 721 -698Q719 -686 720 -683Q720 -668 717 -652Q719 -646 715 -635Q712 -627 712 -623Q712 -614 717 -605Q721 -604 729 -607Q739 -612 744 -609Q748 -605 757 -607Q766 -609 769 -608Q779 -610 779 -601Q780 -597 784 -596Q788 -595 791 -593Q793 -589 788 -572Q773 -570 769 -564Q764 -559 759 -561Q753 -563 748 -562Q743 -557 730 -555Q722 -554 718 -552Q712 -552 710 -547Q708 -543 707 -538Q701 -525 703 -511Q704 -506 711 -506Q717 -507 723 -506Q749 -506 754 -505Q763 -500 772 -496Q774 -490 759 -478Q752 -477 751 -472Q749 -467 745 -463Q739 -464 736 -460Q733 -456 729 -454Q725 -455 710 -450Q699 -454 695 -439Q692 -427 684 -416Q680 -413 678 -408Q676 -403 683 -402Q694 -404 704 -406Q719 -409 733 -412Q745 -418 754 -416Q767 -421 776 -418Q780 -422 785 -426Q789 -431 796 -428Q799 -424 804 -424Q815 -426 825 -428Q830 -428 836 -429Q842 -431 847 -427Q850 -418 852 -410Q839 -399 830 -397Q821 -393 812 -396Q801 -385 792 -388Q785 -389 772 -384Q763 -380 758 -380Q750 -377 741 -375Q736 -375 728 -371Q722 -367 717 -368Q696 -362 674 -360Q668 -358 639 -356Q635 -357 626 -353Q614 -354 604 -350Q593 -347 582 -345Q574 -345 570 -340Q540 -331 530 -330Q514 -338 497 -340Q495 -342 486 -344Q478 -346 476 -350Q478 -354 487 -356Q489 -357 543 -371Q561 -374 579 -378Q606 -387 618 -387Q625 -390 624 -395Q622 -401 623 -407Q625 -411 626 -416L633 -433Q635 -437 636 -442Q638 -451 623 -451Q610 -452 597 -454Q593 -456 584 -457Q572 -458 568 -463Q577 -468 587 -469Q604 -473 620 -477Q623 -480 636 -482Q643 -481 646 -488Q649 -494 646 -499Q646 -509 647 -520Q648 -531 643 -539Q623 -543 619 -546Q605 -551 590 -556Q588 -561 591 -562Q597 -562 603 -564Q616 -567 628 -570Q635 -574 644 -576Q653 -578 658 -586Q659 -604 659 -619Q661 -644 662 -670Q661 -685 662 -701Q663 -717 653 -728Q647 -740 652 -750ZM262 -737Q273 -737 280 -729Q287 -722 296 -715Q298 -706 294 -699Q290 -691 286 -684Q272 -668 280 -661Q299 -661 320 -658Q327 -660 337 -648Q354 -646 353 -633Q351 -626 351 -618Q351 -609 345 -603Q338 -602 324 -588Q317 -587 314 -582Q311 -576 308 -571Q302 -568 295 -557Q289 -548 285 -545Q278 -544 273 -533Q269 -524 264 -522Q255 -519 251 -511Q246 -503 243 -496Q223 -482 233 -475Q265 -487 273 -489Q280 -493 311 -500Q324 -501 337 -503Q366 -506 393 -501Q404 -503 416 -499Q425 -493 434 -486Q444 -479 448 -468Q449 -457 455 -447Q453 -436 454 -416Q455 -396 454 -388Q448 -372 442 -357Q436 -351 435 -344Q433 -336 430 -329Q425 -307 414 -292Q408 -289 403 -276Q400 -267 395 -262Q390 -260 383 -250Q377 -242 372 -240Q363 -228 350 -223Q342 -220 347 -211Q347 -207 344 -205Q341 -203 338 -202Q333 -201 332 -193Q331 -186 327 -185Q320 -186 309 -178Q300 -172 295 -171Q247 -153 225 -141Q221 -142 213 -137Q207 -133 201 -134Q189 -136 177 -138Q161 -147 147 -151Q134 -154 139 -160Q163 -165 185 -175Q191 -178 199 -179Q198 -181 199 -182Q204 -183 210 -184Q221 -188 231 -192Q266 -203 272 -204Q293 -211 314 -223Q320 -228 323 -234Q327 -243 320 -246Q304 -239 298 -240Q284 -238 270 -236Q233 -231 229 -229Q223 -228 206 -230Q189 -225 178 -234Q156 -242 143 -253Q128 -268 118 -284Q108 -297 106 -312Q106 -343 110 -352Q109 -358 114 -368Q117 -375 118 -380Q119 -389 128 -405Q134 -416 136 -422Q136 -425 143 -433Q148 -439 149 -445Q166 -476 189 -496Q209 -514 224 -535Q239 -557 254 -578Q255 -584 262 -594Q269 -605 270 -612Q258 -616 247 -603Q234 -597 224 -601Q209 -623 207 -632Q205 -643 208 -655Q218 -684 239 -708Q250 -724 262 -737ZM365 -465Q358 -465 355 -463Q347 -465 333 -461Q322 -458 317 -458Q309 -456 300 -455Q291 -455 285 -448Q286 -443 296 -439Q306 -434 308 -428Q305 -419 302 -411Q300 -390 297 -369Q296 -364 299 -363Q304 -362 310 -366Q320 -362 320 -347Q328 -335 319 -325Q316 -322 308 -322Q297 -322 296 -316Q288 -302 284 -286Q280 -280 286 -277Q292 -274 299 -274Q325 -276 350 -285Q356 -295 362 -306Q370 -318 374 -330Q379 -351 391 -377Q392 -396 393 -414Q395 -431 391 -448Q383 -467 365 -465ZM217 -448Q212 -447 207 -440Q200 -426 193 -412Q181 -384 175 -351Q171 -333 167 -316Q157 -304 168 -295Q173 -284 183 -277Q190 -264 212 -260Q217 -262 233 -264Q248 -266 247 -278Q243 -286 239 -302Q239 -310 239 -318Q235 -325 226 -324Q218 -324 211 -325Q200 -327 209 -345Q212 -347 212 -352Q212 -358 215 -359Q228 -362 241 -367Q250 -385 254 -403Q253 -410 255 -418Q258 -433 255 -439Q252 -444 241 -443Q234 -443 231 -445Q228 -445 224 -447Q219 -450 217 -448ZM659 -224Q654 -222 652 -211Q651 -203 649 -200Q648 -191 646 -182Q646 -162 642 -141Q637 -137 638 -125Q639 -113 634 -107Q638 -98 636 -82Q634 -69 635 -65Q631 -56 635 -42Q639 -30 637 -25Q635 -23 635 -17Q635 -13 633 -10Q636 0 630 3Q630 6 628 7Q624 6 621 10Q620 14 619 14Q615 12 608 5Q607 2 601 -2Q595 -6 594 -10Q589 -22 580 -28Q571 -40 577 -45Q583 -57 587 -81Q590 -103 594 -112Q598 -123 603 -166Q621 -236 624 -260Q637 -299 652 -333Q652 -335 653 -336Q656 -334 661 -333Q666 -325 671 -318Q669 -313 674 -312Q681 -311 682 -310Q701 -322 722 -328Q748 -347 775 -352L809 -351Q830 -348 844 -339Q851 -336 853 -322Q862 -315 866 -306Q864 -295 866 -278Q869 -257 865 -247Q867 -237 865 -230Q863 -223 862 -216Q862 -201 861 -187Q864 -181 860 -178Q857 -175 856 -171Q860 -161 860 -153Q864 -135 858 -119Q859 -110 856 -98Q856 -88 856 -79Q858 -74 855 -64Q853 -57 853 -51Q859 -39 853 -31Q857 -10 851 3Q852 9 850 12Q848 15 843 13Q842 24 839 31Q837 33 836 39Q834 46 830 46Q826 46 820 48Q814 50 816 56Q804 47 796 34Q792 31 791 22Q790 13 785 10Q781 6 786 3Q791 1 795 -4Q800 -34 801 -65Q802 -91 802 -118Q807 -131 804 -145Q804 -158 804 -171Q806 -188 805 -206Q807 -230 807 -251L804 -309Q799 -314 795 -314Q790 -314 783 -310Q773 -305 769 -305Q764 -299 755 -295Q745 -291 743 -289Q736 -291 732 -286Q728 -281 722 -279Q721 -272 715 -272Q710 -272 703 -275Q695 -281 689 -283Q685 -281 680 -287Q675 -293 672 -293Q666 -294 666 -291Q666 -284 666 -276Q664 -266 661 -257Q656 -249 659 -234ZM680 -246Q699 -247 716 -242Q729 -243 753 -239Q759 -236 765 -233Q770 -230 773 -223Q781 -207 768 -197Q748 -188 739 -192Q721 -195 709 -207Q696 -220 682 -229Q675 -230 674 -237Q673 -245 680 -246ZM702 -167Q711 -167 712 -166Q718 -168 735 -166Q748 -165 757 -167Q771 -167 784 -161Q789 -155 785 -146Q777 -139 774 -129Q761 -121 759 -119Q739 -113 720 -124Q710 -130 705 -139Q700 -149 694 -157Q689 -164 702 -167Z"/>
</svg>