<svg xmlns="http://www.w3.org/2000/svg" viewBox="0 -800 1024 1024">
	<path fill="#000000" d="M543 -486L566 -494Q571 -497 579 -499Q588 -501 586 -510Q577 -533 567 -556Q547 -603 527 -651Q519 -669 511 -687Q509 -694 503 -694Q496 -695 496 -701Q494 -715 514 -717Q518 -719 532 -721Q540 -721 549 -721Q558 -722 565 -716Q572 -713 573 -705Q573 -697 574 -690Q575 -680 579 -668Q587 -663 583 -653Q585 -646 592 -637Q590 -630 598 -622Q598 -618 599 -613Q600 -608 605 -606Q611 -590 613 -589Q619 -574 625 -559Q629 -548 633 -538Q640 -532 640 -521Q645 -516 652 -520Q658 -525 664 -526Q670 -531 686 -533Q697 -532 707 -532Q715 -530 722 -529Q728 -531 730 -519Q740 -512 734 -505Q721 -496 718 -487Q715 -482 704 -482Q695 -482 692 -479Q687 -476 677 -472Q671 -472 672 -468Q672 -463 675 -460Q678 -446 687 -434Q695 -425 706 -407Q720 -385 729 -375Q736 -362 747 -349Q750 -340 762 -330Q778 -342 788 -366Q795 -376 796 -387Q792 -391 792 -395Q792 -397 796 -397Q803 -399 810 -401Q815 -404 823 -399Q830 -394 837 -396Q843 -399 849 -395Q854 -392 860 -388Q868 -387 867 -379Q865 -372 863 -366Q856 -361 842 -343Q812 -315 790 -285Q786 -280 790 -273Q795 -267 799 -262Q802 -254 809 -247Q815 -241 819 -233Q852 -195 859 -188Q878 -163 906 -131Q915 -113 933 -102Q941 -103 948 -104Q951 -103 954 -108Q957 -112 959 -111Q956 -92 969 -76Q974 -72 977 -62Q980 -53 984 -49Q989 -32 990 -13Q986 0 984 16Q975 17 968 13Q958 5 953 10Q945 11 945 4Q945 -2 940 -2Q935 -2 931 -3Q924 -20 919 -22Q897 -48 880 -74Q861 -97 847 -119Q837 -134 814 -162Q803 -177 786 -197Q759 -229 750 -243Q749 -249 743 -248Q738 -247 737 -242Q725 -236 713 -227Q702 -216 690 -216Q684 -209 667 -205Q651 -199 632 -199Q626 -198 617 -198Q616 -198 616 -195Q610 -191 604 -183Q596 -172 590 -169Q587 -170 584 -165Q581 -160 577 -161Q575 -157 564 -148Q560 -154 559 -161Q554 -166 557 -173Q554 -178 552 -183Q551 -189 544 -190Q539 -200 533 -206Q530 -211 532 -213Q534 -215 542 -212Q559 -210 575 -209Q580 -215 591 -240L599 -257Q603 -268 609 -290Q607 -307 609 -311Q604 -321 592 -314Q582 -310 571 -306Q552 -301 533 -296Q522 -295 510 -295Q499 -292 490 -295Q479 -299 477 -284Q475 -267 472 -250Q470 -234 467 -218Q467 -200 462 -183Q456 -171 456 -157Q449 -137 437 -118Q425 -103 420 -107Q418 -110 411 -116Q402 -123 402 -129Q392 -141 390 -154Q382 -164 391 -172Q399 -176 400 -185Q400 -193 404 -200Q405 -205 406 -211L411 -233Q413 -241 413 -244Q411 -252 416 -265Q419 -273 419 -279Q425 -306 431 -333Q435 -351 439 -387Q441 -398 442 -409Q441 -420 445 -430Q448 -441 439 -447Q435 -446 433 -450Q431 -454 435 -455Q442 -453 460 -460L480 -464Q490 -467 499 -470Q512 -474 524 -478Q526 -481 534 -482Q540 -483 543 -486ZM200 -686Q207 -683 213 -680Q232 -678 243 -671Q256 -672 262 -654Q273 -642 262 -630Q262 -616 258 -607Q242 -591 236 -576Q233 -572 236 -568Q239 -564 244 -565Q247 -570 258 -572Q272 -574 285 -582Q308 -581 329 -585Q343 -583 352 -583Q356 -584 358 -582Q359 -581 360 -575Q360 -570 366 -569Q373 -569 373 -562Q371 -558 369 -557L363 -545Q361 -544 359 -540Q356 -532 347 -532Q337 -531 330 -530Q318 -535 311 -528Q295 -524 289 -519Q277 -520 269 -506Q262 -497 250 -495Q246 -495 242 -491Q237 -487 235 -487Q232 -494 238 -498Q243 -502 247 -506Q252 -514 256 -523Q248 -529 224 -529Q209 -536 201 -512Q186 -499 177 -481Q160 -458 139 -436Q131 -433 128 -426Q124 -420 119 -414Q116 -410 108 -406Q100 -402 98 -397Q96 -393 90 -390Q84 -388 83 -386Q75 -381 72 -380Q72 -381 72 -382Q74 -384 74 -385L79 -392Q80 -393 81 -395Q100 -422 119 -449Q137 -484 150 -521Q159 -529 162 -539Q165 -550 170 -559Q171 -565 182 -581Q193 -609 204 -638Q206 -648 207 -659Q204 -666 199 -673Q194 -680 200 -686ZM657 -641Q671 -635 690 -634Q695 -637 713 -630Q717 -631 736 -626Q740 -628 746 -625Q752 -622 755 -622Q765 -620 775 -617Q785 -614 790 -603Q800 -595 796 -587Q796 -577 799 -568Q803 -559 793 -552Q783 -546 776 -552Q757 -560 740 -569Q724 -580 707 -592Q664 -632 657 -641ZM631 -216Q643 -223 655 -230Q669 -237 683 -245Q689 -253 703 -261Q717 -272 726 -285Q726 -296 716 -303Q705 -311 700 -322Q696 -333 690 -343Q659 -383 620 -450Q614 -462 606 -455H605Q586 -450 567 -445Q556 -445 536 -437Q528 -436 519 -436Q502 -437 500 -421Q495 -415 495 -398Q495 -384 492 -378Q492 -357 490 -350Q489 -336 487 -323Q489 -318 495 -321Q501 -324 504 -323Q528 -334 552 -345Q557 -345 565 -352Q573 -359 579 -358Q593 -355 609 -359Q622 -356 636 -353Q650 -351 662 -341Q669 -333 666 -323Q664 -314 661 -305Q658 -290 654 -276Q648 -258 641 -240Q636 -234 633 -226Q627 -221 626 -214Q629 -215 631 -216ZM323 -454H325Q331 -456 332 -450Q330 -442 338 -434Q336 -425 329 -421Q322 -417 315 -413Q300 -411 288 -404Q284 -401 274 -401Q261 -401 257 -395Q267 -377 271 -367Q267 -363 272 -358Q276 -354 281 -357Q290 -361 301 -363Q309 -369 321 -364Q326 -362 336 -364Q347 -367 353 -363Q354 -360 360 -357Q366 -355 367 -352Q371 -348 368 -341Q367 -339 361 -330Q353 -322 341 -321Q324 -315 307 -310Q291 -304 276 -296Q268 -294 268 -286Q268 -278 267 -271Q265 -261 262 -251Q267 -244 261 -230Q260 -209 258 -189Q259 -182 255 -166Q252 -162 255 -156Q258 -151 263 -156Q286 -185 309 -214Q323 -232 332 -252Q339 -263 345 -274Q349 -269 344 -262Q340 -254 338 -234Q334 -231 336 -222Q338 -214 335 -211Q334 -207 333 -202Q333 -198 328 -196Q322 -193 324 -188Q326 -183 326 -178Q315 -165 310 -148Q304 -137 296 -126Q284 -108 278 -98Q277 -93 273 -90Q268 -86 265 -82Q262 -68 248 -70Q242 -74 230 -78Q204 -102 198 -120Q201 -162 201 -163Q205 -175 206 -187Q204 -192 208 -199Q210 -204 210 -208Q210 -223 214 -235Q215 -251 216 -267Q212 -279 202 -274Q190 -270 177 -267Q159 -264 142 -258Q117 -256 94 -257Q65 -266 58 -271Q53 -274 47 -276Q45 -278 48 -281Q59 -282 70 -284Q79 -289 109 -295Q116 -296 123 -300Q136 -303 148 -307Q161 -311 165 -312L198 -324Q205 -325 214 -329Q220 -336 222 -364Q222 -373 221 -382Q220 -390 213 -395Q201 -398 181 -408Q176 -407 172 -411Q168 -415 172 -418Q183 -420 194 -423Q223 -431 250 -442Q261 -448 275 -451Q284 -455 295 -451Q308 -454 323 -454Z"/>
</svg>