<svg xmlns="http://www.w3.org/2000/svg" viewBox="0 -800 1024 1024">
	<path fill="#000000" d="M673 -687Q680 -688 692 -683Q708 -685 716 -673Q720 -668 722 -653Q730 -639 725 -620Q723 -607 720 -595Q726 -587 722 -567Q715 -558 721 -548Q720 -546 720 -524Q716 -514 720 -502Q717 -493 719 -481Q716 -473 713 -466Q716 -461 731 -464Q734 -466 750 -468Q762 -469 773 -473Q785 -481 805 -479Q821 -484 841 -481Q866 -481 875 -475Q880 -470 877 -465Q875 -460 874 -455Q874 -448 868 -446Q862 -445 857 -442Q849 -443 845 -437Q841 -432 835 -429Q814 -430 795 -427Q789 -429 779 -424Q771 -421 766 -421Q751 -421 740 -416Q728 -413 716 -410Q705 -394 701 -375Q697 -351 693 -327Q693 -319 690 -312Q687 -304 693 -297Q701 -298 732 -307Q752 -311 773 -312Q784 -314 796 -310Q803 -307 801 -300Q798 -294 799 -288Q787 -276 771 -270Q764 -270 729 -262Q709 -261 692 -257Q671 -241 671 -214Q663 -198 664 -187Q664 -174 663 -171Q660 -169 660 -165Q660 -161 664 -162Q700 -182 738 -197Q747 -200 766 -208Q792 -220 808 -222Q823 -227 843 -226Q850 -232 861 -221Q881 -223 890 -212Q891 -208 897 -203Q903 -198 905 -194Q906 -180 904 -168Q901 -166 901 -158Q901 -151 898 -148Q897 -144 890 -137Q882 -129 882 -122Q871 -106 856 -91Q845 -86 840 -72Q839 -66 833 -63Q827 -61 823 -58Q815 -51 807 -48Q801 -48 799 -43Q797 -39 802 -35Q831 -30 837 -27Q844 -29 849 -24Q855 -19 861 -17Q866 -14 862 -9Q858 -5 862 -2Q865 1 869 3Q871 9 865 11Q860 9 855 13Q850 16 847 16Q837 15 826 13Q799 5 774 5Q762 4 750 2Q735 -2 720 -7Q704 -11 688 -16Q686 -20 688 -21Q691 -23 695 -24Q712 -27 728 -31Q734 -34 748 -36Q759 -36 769 -53Q782 -71 795 -90Q803 -107 813 -123Q824 -144 832 -165Q836 -176 830 -178Q826 -175 816 -175Q806 -172 788 -166Q755 -154 722 -142Q707 -134 692 -130Q678 -125 667 -128Q663 -133 656 -133Q650 -133 648 -126Q644 -111 637 -97Q637 -91 635 -78Q632 -61 634 -52Q635 -51 640 -24Q644 -23 642 -18Q641 -14 637 -15Q626 -15 617 -11Q599 -19 588 -29Q578 -36 574 -51Q562 -66 570 -92Q571 -93 571 -96L574 -104Q575 -106 575 -108Q574 -118 579 -126Q583 -134 586 -142Q610 -189 638 -229Q640 -235 649 -242Q657 -249 659 -253Q656 -261 648 -257Q641 -253 635 -256Q628 -259 622 -261Q620 -264 612 -265Q605 -266 606 -271Q608 -274 617 -275Q624 -276 627 -278Q647 -282 646 -301Q647 -318 648 -335Q650 -352 654 -367Q653 -377 656 -389Q653 -396 647 -395Q641 -394 635 -393Q625 -391 616 -387Q610 -387 598 -383Q581 -377 554 -375Q540 -372 526 -372Q511 -376 497 -378Q487 -382 466 -384Q454 -386 443 -387Q432 -389 427 -400Q426 -405 431 -406Q435 -407 440 -405Q442 -402 453 -405Q469 -408 485 -411Q499 -409 512 -407Q533 -410 553 -414Q590 -424 600 -427Q616 -431 631 -435Q638 -439 646 -440Q654 -442 660 -449Q660 -479 661 -485Q662 -493 662 -502L664 -535Q665 -543 665 -551Q666 -553 666 -557L667 -570Q668 -573 668 -576Q668 -601 667 -627Q666 -638 666 -649Q666 -660 660 -668Q659 -671 652 -674Q645 -678 647 -682Q660 -682 673 -687ZM237 -236Q231 -240 224 -256Q210 -268 219 -286Q229 -295 245 -315Q261 -333 256 -355Q232 -355 207 -355Q198 -359 199 -365Q200 -370 208 -367Q219 -368 249 -377Q258 -375 261 -383Q263 -389 262 -399Q261 -406 261 -413Q261 -417 254 -417Q245 -416 235 -416Q207 -421 189 -434L171 -432Q163 -437 154 -441Q144 -445 138 -453Q133 -452 127 -459Q123 -464 121 -464Q99 -488 99 -512Q100 -521 97 -528Q110 -564 128 -595Q130 -597 133 -603Q136 -610 140 -613Q142 -621 165 -648Q171 -651 179 -659Q190 -670 194 -672Q197 -676 203 -676Q216 -675 214 -664Q200 -654 206 -645Q226 -647 244 -654Q249 -654 254 -657Q258 -660 263 -656Q289 -666 317 -671Q338 -674 358 -677Q364 -676 376 -680Q384 -683 388 -683Q403 -686 418 -687H450Q458 -685 466 -683Q478 -680 487 -671Q495 -661 502 -650Q511 -642 511 -629Q517 -599 511 -582Q507 -581 504 -574Q502 -568 500 -567Q493 -532 475 -514Q473 -508 469 -504Q464 -501 460 -498Q461 -489 457 -484Q452 -479 447 -475Q440 -469 436 -462Q432 -455 422 -453Q411 -442 405 -428Q402 -421 402 -415Q401 -415 399 -417Q383 -415 379 -428Q369 -429 358 -425Q353 -429 347 -427Q341 -426 336 -425Q327 -424 317 -424Q307 -425 301 -415Q303 -411 303 -392Q307 -389 317 -393Q325 -396 329 -395Q338 -393 349 -394Q365 -397 368 -382Q370 -375 366 -369Q361 -362 355 -365Q353 -363 351 -359Q348 -354 344 -353Q332 -335 314 -323Q306 -318 306 -310Q305 -302 303 -294Q303 -288 303 -280Q304 -278 308 -281Q311 -287 316 -287Q322 -287 327 -289Q330 -288 336 -290Q343 -293 347 -290Q348 -291 354 -291L358 -289Q363 -289 365 -290Q376 -289 390 -290Q403 -291 408 -281Q403 -277 399 -267Q393 -253 386 -250Q377 -249 359 -243Q340 -237 329 -236Q323 -232 311 -231Q297 -230 293 -224Q291 -226 287 -222Q283 -217 280 -220Q282 -227 268 -227Q259 -228 250 -225ZM423 -646L422 -645Q408 -639 393 -641Q373 -636 352 -632Q333 -629 314 -626Q305 -623 295 -621Q296 -615 303 -606Q310 -597 311 -592Q308 -568 310 -563Q312 -552 310 -533Q311 -529 309 -524Q306 -518 310 -516Q322 -536 330 -562Q330 -567 337 -579Q342 -581 350 -578Q368 -569 385 -561Q394 -555 391 -543Q388 -531 378 -530Q366 -527 354 -525Q345 -521 336 -517Q325 -519 319 -511Q313 -504 307 -499Q308 -492 306 -484Q304 -476 305 -473Q303 -465 310 -463Q317 -462 323 -466Q322 -470 325 -470Q328 -470 330 -466Q349 -468 368 -467Q382 -471 393 -489Q410 -517 411 -518Q411 -536 420 -550Q428 -564 436 -579Q444 -592 440 -625Q440 -634 436 -640Q431 -647 423 -646ZM202 -633L198 -630Q196 -626 194 -627Q191 -631 187 -633Q183 -612 174 -603Q170 -604 170 -603Q170 -600 169 -597Q169 -574 156 -559Q153 -543 150 -528Q152 -494 159 -484Q160 -477 166 -472Q171 -468 177 -463Q183 -462 187 -456Q188 -454 192 -444Q202 -442 230 -449Q246 -450 260 -455Q267 -470 269 -515Q269 -526 271 -550Q272 -565 274 -582Q275 -600 269 -615Q259 -618 249 -622Q237 -626 224 -630Q213 -631 202 -633ZM224 -564Q227 -565 228 -563Q229 -561 228 -558Q231 -548 239 -543Q247 -538 254 -534Q252 -530 258 -525Q263 -520 260 -518Q260 -511 255 -509Q250 -507 245 -512Q241 -504 233 -503Q230 -504 230 -509Q217 -517 212 -534Q212 -553 224 -564ZM198 -208Q203 -209 200 -199Q195 -189 189 -179Q183 -166 183 -150Q181 -148 176 -127Q172 -121 174 -109Q176 -98 175 -95Q171 -91 174 -81Q177 -70 172 -66Q162 -62 155 -68Q147 -73 140 -79Q128 -98 122 -118Q129 -133 139 -147Q155 -172 178 -192Q181 -193 187 -200Q193 -207 198 -208ZM404 -192L417 -187Q452 -178 459 -157Q463 -153 464 -144Q465 -136 466 -133Q464 -127 474 -115Q477 -111 474 -108Q471 -104 466 -105Q460 -107 456 -99Q453 -93 450 -92L431 -110Q419 -128 410 -146Q404 -157 408 -169Q408 -172 404 -179Q399 -188 404 -192ZM235 -174H239Q242 -171 262 -156Q270 -152 274 -144Q277 -137 282 -129Q286 -112 284 -101Q285 -94 283 -90Q280 -84 274 -86Q271 -88 266 -86Q262 -84 260 -85Q258 -92 248 -104Q241 -112 239 -117Q241 -128 245 -137Q247 -154 232 -156Q232 -169 235 -174ZM334 -161H337Q343 -158 348 -150Q354 -141 357 -139Q360 -134 369 -130Q372 -132 375 -130Q378 -128 377 -124Q363 -104 360 -102Q347 -90 336 -98Q327 -107 319 -116Q311 -125 312 -137Q315 -140 317 -143L329 -155Q333 -159 334 -161Z"/>
</svg>