<svg xmlns="http://www.w3.org/2000/svg" viewBox="0 -800 1024 1024">
	<path fill="#000000" d="M224 -727H227Q241 -718 248 -716Q262 -710 270 -702Q283 -685 274 -663Q267 -642 257 -626Q257 -621 252 -614Q247 -607 246 -603Q239 -596 246 -594Q258 -598 270 -602Q295 -610 319 -624Q324 -627 327 -627Q335 -626 343 -621Q351 -616 360 -620Q367 -620 376 -620Q385 -621 386 -612Q384 -605 395 -603Q397 -600 393 -594Q388 -586 391 -582Q395 -577 386 -573Q379 -574 375 -569Q371 -565 367 -561Q355 -558 344 -553Q326 -542 311 -529Q298 -516 283 -510Q271 -502 258 -494Q256 -484 263 -472Q268 -467 276 -467Q290 -470 303 -474Q307 -474 318 -477Q333 -481 341 -477Q346 -478 348 -474Q350 -470 347 -465Q344 -463 342 -453Q342 -450 336 -447Q331 -444 329 -441Q328 -436 320 -433Q314 -430 312 -427Q310 -418 293 -421Q285 -421 284 -414Q283 -408 283 -402Q285 -385 291 -381Q317 -383 325 -396Q328 -398 332 -393Q337 -388 341 -389Q349 -391 357 -390Q365 -397 378 -382Q383 -376 373 -366Q365 -353 350 -348Q336 -345 325 -339Q315 -334 305 -330Q294 -325 287 -315Q286 -312 286 -301Q286 -290 282 -284Q282 -260 278 -237Q276 -229 277 -219Q273 -209 276 -197Q278 -188 276 -177Q272 -163 282 -165Q300 -182 317 -200Q330 -215 343 -231Q348 -249 353 -268Q357 -277 358 -288Q360 -293 360 -299Q360 -303 365 -302Q367 -292 368 -282Q363 -270 360 -256Q358 -238 353 -220Q350 -213 348 -203Q346 -193 341 -187Q336 -176 330 -166Q331 -158 321 -147Q313 -138 312 -132Q302 -119 293 -104Q282 -101 278 -92Q269 -83 261 -91Q246 -97 233 -106Q225 -117 217 -128Q212 -138 215 -149Q217 -161 218 -174Q219 -198 224 -220Q226 -241 229 -245Q230 -262 233 -277Q231 -280 232 -290Q233 -300 229 -304Q206 -304 191 -297Q186 -296 144 -288Q125 -285 108 -289Q89 -297 70 -305Q73 -310 80 -310Q86 -310 92 -312Q107 -313 121 -318Q126 -321 140 -323Q182 -336 223 -349Q239 -352 239 -368Q242 -392 241 -394Q240 -413 236 -427Q235 -432 232 -433Q228 -434 225 -434Q218 -435 217 -441Q216 -447 214 -451Q211 -456 214 -460Q216 -464 217 -468Q205 -482 215 -493Q239 -509 242 -513Q262 -531 282 -550Q281 -552 282 -553Q285 -555 284 -557Q283 -564 276 -564Q271 -564 266 -561Q255 -554 241 -559Q233 -558 222 -564Q213 -569 207 -569Q193 -578 193 -595Q193 -609 200 -625Q208 -646 215 -667Q217 -678 222 -688Q227 -699 223 -709Q217 -715 224 -727ZM679 -669L700 -668Q711 -668 721 -665Q737 -666 750 -652Q758 -651 761 -644Q764 -637 761 -630Q770 -615 766 -606Q766 -587 755 -571Q749 -566 742 -554Q736 -543 731 -539Q725 -540 723 -536Q720 -533 716 -531Q717 -518 712 -508Q712 -504 705 -505Q699 -506 697 -503Q691 -497 665 -497Q640 -490 614 -489Q594 -483 568 -481Q565 -479 559 -480Q552 -481 548 -477Q536 -478 534 -462Q528 -456 528 -446Q528 -437 526 -429Q524 -406 517 -385Q518 -375 510 -357Q505 -345 504 -336Q504 -331 500 -322Q495 -312 496 -306Q490 -299 490 -290Q489 -280 487 -272Q480 -264 478 -253Q478 -246 474 -237Q469 -225 469 -219Q464 -214 461 -201Q458 -187 452 -182Q450 -178 449 -177L444 -165Q443 -164 441 -160Q441 -149 433 -141Q424 -132 419 -122Q416 -111 403 -100Q402 -93 398 -89Q394 -85 391 -81Q379 -61 370 -70Q366 -69 365 -73Q365 -77 362 -78Q361 -81 360 -86Q359 -90 353 -93Q351 -106 353 -131Q366 -144 378 -170L393 -201Q397 -211 399 -214Q408 -208 412 -230Q449 -310 470 -396Q489 -452 492 -505Q496 -517 496 -531Q491 -585 532 -619Q538 -621 540 -623Q543 -626 539 -630Q560 -636 579 -645Q609 -660 642 -666Q661 -667 679 -669ZM687 -622Q678 -623 671 -619Q662 -621 655 -616Q648 -612 640 -610Q638 -605 644 -596Q649 -588 649 -584Q653 -581 650 -574Q647 -569 649 -565Q644 -556 643 -545Q648 -540 656 -539Q664 -539 671 -537Q681 -534 690 -548Q695 -566 704 -582Q714 -599 710 -620Q694 -624 687 -622ZM548 -619Q546 -612 546 -596Q546 -589 541 -578Q536 -567 536 -562Q535 -549 531 -538Q534 -528 536 -518Q541 -516 552 -519Q560 -521 566 -520Q573 -525 586 -527Q604 -530 611 -535Q612 -538 611 -549Q610 -561 613 -567Q617 -583 614 -597Q601 -596 587 -598Q581 -603 574 -605Q568 -608 564 -615Q555 -619 548 -619ZM781 -442Q793 -442 819 -440Q842 -440 860 -428Q874 -423 883 -411Q891 -396 899 -381Q901 -376 902 -371L905 -350Q907 -345 908 -340Q907 -331 910 -317Q905 -299 907 -293Q912 -283 908 -264Q904 -260 906 -248Q907 -242 906 -236Q908 -231 905 -220Q903 -209 904 -205Q901 -198 897 -173Q897 -161 894 -150Q886 -114 885 -98Q888 -92 885 -83Q882 -74 884 -70Q884 -64 871 -39Q860 -10 858 -2Q852 5 844 5Q840 1 838 4Q836 7 833 8Q821 -2 817 -18Q818 -25 808 -42Q807 -46 808 -48Q810 -50 815 -50Q823 -58 824 -69Q826 -80 829 -90Q838 -132 844 -173Q847 -194 846 -209Q851 -252 855 -296Q854 -319 853 -342Q852 -365 840 -384Q829 -403 801 -395Q784 -390 766 -385Q761 -379 746 -377Q725 -369 711 -351Q698 -346 688 -353Q677 -359 668 -364Q657 -371 649 -373Q642 -377 640 -371Q638 -365 638 -360Q639 -354 637 -345Q634 -333 636 -329Q634 -321 632 -303Q631 -298 620 -237Q612 -220 614 -200Q610 -191 608 -157Q607 -138 602 -120Q604 -108 602 -100Q603 -85 603 -70Q621 -52 634 -54Q643 -56 670 -56Q691 -56 703 -59Q726 -59 748 -59Q770 -58 788 -50Q787 -46 791 -42Q795 -38 794 -35Q796 -26 787 -24Q777 -21 776 -18Q757 -17 737 -17Q732 -16 706 -16Q684 -17 663 -10Q645 -10 638 -15Q620 -25 614 -22L588 -29Q572 -39 568 -47Q565 -50 563 -58Q561 -69 555 -71Q547 -88 539 -105Q544 -127 549 -149Q555 -183 565 -218Q574 -251 582 -284Q600 -357 607 -381Q611 -389 614 -399Q617 -410 626 -412Q630 -388 638 -381Q641 -386 648 -390Q650 -392 656 -394Q663 -396 665 -400Q676 -409 719 -422Q751 -436 781 -442ZM700 -285Q712 -282 724 -282Q737 -282 745 -273Q751 -273 750 -268Q749 -262 746 -260Q738 -248 724 -248Q709 -247 693 -251Q682 -250 671 -250Q657 -254 650 -260Q640 -269 642 -280Q645 -285 652 -281Q658 -278 662 -280Q681 -282 700 -285ZM681 -196H682Q701 -194 719 -192Q739 -189 741 -180Q739 -170 729 -166Q719 -162 710 -166Q701 -164 697 -165Q678 -162 661 -166Q637 -173 631 -187Q638 -185 646 -187Q664 -191 681 -196Z"/>
</svg>