<svg xmlns="http://www.w3.org/2000/svg" viewBox="0 -800 1024 1024">
	<path fill="#000000" d="M705 -661Q710 -661 717 -656Q727 -650 733 -650Q746 -645 749 -641Q761 -641 766 -629Q770 -620 769 -607Q774 -596 766 -585Q766 -581 761 -575Q755 -568 756 -563Q753 -557 737 -526Q736 -521 732 -512Q725 -498 726 -489Q723 -482 721 -473Q721 -459 734 -448Q736 -446 758 -433Q817 -408 848 -384Q860 -373 864 -360Q886 -334 889 -314Q895 -300 893 -285Q888 -284 887 -275Q886 -267 884 -265Q878 -263 877 -259Q876 -255 873 -252Q870 -253 868 -250Q866 -247 867 -244Q862 -235 850 -232Q844 -230 837 -231Q835 -227 828 -225Q821 -223 819 -220Q816 -223 814 -221Q812 -220 812 -217Q809 -214 806 -211Q803 -207 798 -207Q796 -204 791 -202Q787 -200 785 -197Q782 -198 777 -193Q773 -189 770 -189Q756 -176 731 -176Q729 -171 722 -170Q716 -170 710 -168Q699 -167 689 -169Q672 -168 657 -163Q653 -160 648 -164Q644 -167 643 -166Q634 -166 627 -170Q620 -177 610 -179Q598 -182 602 -197Q600 -200 605 -203Q610 -206 607 -210Q604 -207 599 -212Q597 -214 598 -215Q598 -216 601 -216Q609 -211 629 -209Q638 -206 645 -208Q648 -205 656 -206Q662 -207 665 -204Q672 -207 678 -210Q694 -217 709 -225Q711 -223 714 -226Q717 -229 718 -229Q720 -226 724 -228Q727 -230 729 -229Q735 -236 753 -246Q768 -255 776 -263Q782 -271 790 -273Q791 -275 795 -282L803 -289Q805 -294 812 -298Q819 -302 820 -308Q825 -332 803 -354Q791 -366 777 -373Q762 -381 748 -389Q731 -394 717 -405Q708 -414 696 -424Q685 -433 680 -446Q676 -454 672 -474Q668 -501 675 -525Q678 -541 680 -558Q693 -575 693 -596Q668 -590 642 -581Q613 -574 584 -568Q580 -567 581 -561Q582 -555 586 -552Q584 -548 587 -545Q590 -541 590 -539Q592 -536 592 -528Q593 -524 594 -521L598 -506Q600 -500 600 -498Q602 -473 601 -449Q597 -447 598 -440Q599 -435 597 -433Q598 -426 595 -420Q602 -409 596 -396Q592 -390 594 -381Q595 -373 594 -366Q599 -352 590 -342Q590 -332 590 -323Q590 -308 589 -305L590 -273Q592 -265 591 -257Q590 -244 590 -223Q592 -220 590 -212Q588 -204 590 -200V-158Q590 -137 590 -116Q590 -106 589 -96Q589 -95 586 -74Q583 -67 586 -55Q588 -45 588 -40Q589 -36 586 -29Q582 -20 584 -15Q586 -11 581 -4Q578 0 578 3Q575 6 577 12Q579 17 578 21Q580 32 574 56Q571 62 569 70Q566 78 560 81Q556 88 548 94Q544 93 541 99Q538 105 533 104Q526 97 528 89Q533 66 535 37Q539 19 539 -34Q541 -44 542 -55Q541 -88 540 -122Q540 -134 539 -147Q541 -155 540 -167Q541 -208 541 -250Q540 -270 539 -291Q541 -315 539 -338Q540 -362 540 -387Q540 -397 540 -408Q539 -431 542 -452Q539 -470 545 -486Q542 -492 543 -505Q544 -518 541 -524Q540 -535 521 -538Q508 -540 504 -544Q496 -548 503 -557Q502 -560 508 -562Q512 -563 513 -565Q517 -569 521 -567Q526 -566 528 -567Q535 -566 539 -571Q543 -575 548 -578Q565 -585 582 -597Q596 -605 609 -613Q637 -630 667 -643Q679 -650 692 -654Q700 -660 705 -661ZM401 -652L409 -651Q426 -653 431 -636Q426 -625 435 -620Q437 -620 437 -619Q438 -619 438 -618Q436 -617 433 -619Q432 -616 422 -608Q407 -601 381 -596Q370 -592 358 -589Q350 -587 341 -585Q329 -582 318 -587L286 -595Q266 -605 248 -605Q245 -601 239 -604Q233 -607 233 -612Q239 -614 244 -618Q249 -622 255 -619Q260 -621 267 -620Q296 -628 322 -637Q346 -642 370 -648Q386 -650 401 -652ZM199 -513Q202 -512 203 -508Q207 -498 212 -489Q217 -479 213 -469Q219 -449 213 -431Q209 -422 205 -413Q192 -400 202 -397Q231 -403 256 -411Q263 -413 268 -413Q279 -421 286 -418Q302 -424 317 -429Q339 -434 342 -445Q340 -449 342 -456Q344 -466 342 -469Q341 -478 334 -481Q327 -484 321 -488Q314 -492 314 -500Q314 -502 318 -502Q322 -498 327 -501Q332 -504 337 -505Q344 -500 353 -498Q355 -500 361 -500Q366 -500 368 -503Q375 -499 381 -496Q385 -489 388 -483Q390 -476 389 -467Q388 -461 395 -459Q405 -457 406 -456Q415 -458 428 -449Q433 -447 437 -446L446 -441Q434 -438 433 -429Q418 -421 402 -417Q392 -417 392 -403Q392 -386 392 -369Q394 -366 391 -360Q389 -356 391 -354Q390 -344 389 -335Q389 -321 391 -309Q390 -300 388 -291Q392 -264 383 -253Q388 -229 383 -214Q380 -209 383 -199Q386 -190 384 -184Q386 -180 382 -173Q378 -165 381 -162Q375 -147 377 -142Q379 -139 376 -133Q373 -128 375 -126Q369 -113 367 -99Q362 -95 357 -91Q348 -85 339 -79Q340 -75 336 -73Q332 -71 327 -72Q308 -82 286 -119Q281 -131 274 -139Q275 -143 270 -147Q267 -150 267 -152Q273 -154 288 -148Q295 -149 304 -149Q312 -150 313 -158Q312 -186 318 -211Q321 -238 323 -266Q325 -279 321 -291Q303 -277 294 -265Q285 -257 275 -249Q268 -251 263 -245Q262 -240 254 -231Q248 -224 246 -220Q234 -214 230 -210Q220 -202 207 -202Q203 -201 203 -203Q203 -207 206 -211Q211 -216 215 -224Q220 -234 224 -237Q225 -245 232 -250Q238 -255 244 -261Q243 -271 254 -273Q299 -344 303 -349Q311 -360 316 -375Q314 -376 304 -389Q290 -385 275 -382Q266 -378 256 -375Q253 -372 235 -368Q230 -368 224 -368Q209 -360 192 -358Q188 -359 181 -356Q173 -352 168 -355Q162 -350 149 -355Q142 -355 138 -362Q129 -370 124 -381Q119 -410 133 -413Q147 -444 168 -473Q176 -479 186 -495Q195 -509 199 -513Z"/>
</svg>