<svg xmlns="http://www.w3.org/2000/svg" viewBox="0 -800 1024 1024">
	<path fill="#000000" d="M551 -737Q567 -735 574 -731Q580 -731 588 -727Q588 -725 601 -715Q603 -714 603 -709Q603 -702 606 -700Q607 -695 604 -670Q609 -664 606 -657Q604 -651 604 -645Q606 -639 602 -627Q598 -618 600 -611Q603 -607 600 -598Q598 -589 600 -586Q609 -580 628 -590Q632 -591 638 -593L657 -601Q662 -602 667 -604Q680 -610 715 -608Q722 -602 729 -596Q737 -590 738 -581Q743 -578 742 -568Q741 -559 747 -556Q743 -549 743 -540Q747 -529 747 -519Q744 -512 744 -490Q744 -471 740 -461Q733 -456 736 -449Q738 -442 738 -434Q734 -431 733 -422Q732 -412 727 -409Q725 -387 721 -380Q723 -363 716 -357Q711 -345 707 -321Q718 -318 743 -325Q759 -328 775 -331Q785 -332 795 -334Q817 -335 839 -336Q844 -334 851 -333Q857 -333 862 -327Q882 -324 897 -310Q903 -299 909 -296Q916 -295 921 -284Q927 -279 927 -273Q928 -266 929 -259Q932 -257 933 -249Q933 -243 937 -240Q942 -228 945 -210Q940 -137 936 -122Q925 -117 928 -103Q925 -95 926 -89Q921 -69 912 -53Q910 -40 901 -31Q903 -11 889 4Q886 14 879 22Q872 29 865 36Q865 40 858 44Q853 47 852 51Q850 58 845 61Q839 64 835 67Q834 69 831 70Q826 71 826 74Q827 87 815 89Q809 87 803 94Q798 100 794 99Q786 103 783 97Q781 91 778 87Q777 82 770 75Q764 70 763 66Q762 62 756 58Q749 53 748 48Q725 25 712 15Q711 12 704 9Q700 7 698 4Q710 4 721 8Q759 24 762 26Q788 33 795 33Q801 28 805 21Q809 14 813 8Q820 1 827 -13Q836 -31 842 -36L859 -88Q859 -94 864 -107Q869 -120 869 -128Q878 -167 874 -199Q872 -211 870 -223Q857 -272 826 -281Q810 -286 795 -282Q770 -280 750 -275Q748 -276 737 -273Q731 -274 721 -270Q712 -266 706 -267Q696 -263 665 -258Q656 -259 649 -258Q645 -255 635 -254Q626 -253 623 -251Q621 -246 612 -247Q606 -248 603 -245Q591 -243 578 -245Q559 -252 552 -252Q537 -255 524 -261Q521 -265 516 -267Q510 -270 514 -275Q521 -274 546 -279Q571 -286 595 -293Q601 -294 606 -295L629 -300Q633 -303 632 -311Q631 -320 635 -322Q643 -328 650 -346Q656 -360 660 -366Q665 -388 669 -410Q671 -421 673 -432Q676 -451 678 -470Q680 -473 682 -492Q683 -519 684 -546Q682 -551 681 -558Q679 -565 672 -564Q664 -552 649 -560Q638 -558 622 -563Q609 -567 604 -567Q599 -568 597 -563Q596 -561 595 -553Q591 -550 593 -543Q594 -536 591 -534Q592 -522 592 -508Q594 -499 590 -481Q586 -465 588 -455Q583 -447 591 -442Q597 -438 606 -438Q619 -435 630 -439Q636 -442 644 -439Q653 -436 652 -430Q648 -429 649 -427Q655 -422 652 -415Q658 -402 647 -391Q638 -385 625 -387Q611 -387 599 -393Q594 -394 588 -396Q582 -399 579 -393Q579 -385 572 -348Q573 -338 564 -331Q568 -323 564 -317Q560 -311 558 -305Q550 -305 544 -311Q539 -317 533 -321Q524 -329 515 -338Q513 -344 518 -369Q519 -385 525 -412Q533 -450 533 -470Q534 -483 535 -497Q536 -516 537 -536Q538 -574 539 -612Q540 -636 541 -661Q541 -686 538 -707Q538 -715 528 -720Q522 -723 520 -727Q524 -736 533 -735Q543 -734 551 -737ZM240 -636Q256 -633 271 -631Q294 -629 295 -616Q291 -604 294 -589Q297 -573 304 -560Q304 -549 304 -539Q313 -531 314 -521Q316 -511 317 -500Q319 -495 319 -484Q323 -482 325 -475Q328 -466 334 -466Q348 -473 362 -480Q375 -480 380 -485Q378 -492 366 -502Q358 -509 354 -515Q353 -519 355 -522Q358 -525 363 -524Q382 -517 400 -514Q419 -506 434 -493Q441 -491 440 -484Q439 -479 434 -474Q434 -472 432 -468L426 -457Q425 -454 424 -451Q428 -446 417 -441Q410 -441 384 -434Q375 -431 365 -428Q357 -426 349 -424Q344 -416 348 -408Q352 -401 353 -392Q365 -370 366 -361Q369 -350 373 -348Q374 -349 375 -352Q378 -358 373 -368Q378 -369 383 -370Q388 -368 389 -371Q390 -374 391 -378Q392 -381 396 -379Q408 -376 418 -370Q437 -371 444 -355Q443 -349 435 -340Q429 -333 428 -328Q428 -322 422 -317Q416 -311 416 -306Q407 -303 397 -287Q405 -274 412 -262Q415 -254 418 -247Q427 -232 432 -214Q436 -211 447 -193Q453 -183 461 -174Q459 -165 463 -160Q467 -155 471 -148Q482 -131 479 -121Q478 -121 475 -117Q471 -112 469 -114Q461 -108 453 -112Q448 -110 443 -115Q439 -113 433 -118Q429 -122 426 -122L409 -138Q397 -146 395 -165Q379 -197 363 -230Q362 -238 351 -240Q347 -234 340 -232Q328 -229 315 -226Q312 -224 307 -223Q298 -222 295 -218Q291 -224 295 -229Q298 -235 302 -240Q310 -246 314 -257Q316 -259 337 -291Q331 -307 325 -323Q318 -347 312 -352Q300 -340 287 -331Q275 -321 263 -312Q261 -306 250 -296Q244 -290 241 -286Q234 -283 231 -278Q228 -273 223 -268Q222 -251 222 -233Q228 -225 220 -210Q215 -205 213 -193Q211 -180 206 -175Q204 -156 197 -148Q191 -148 184 -149Q157 -170 149 -184Q152 -196 147 -206Q147 -214 139 -216Q131 -218 127 -210Q124 -202 117 -202Q111 -202 99 -211Q94 -212 94 -217Q94 -222 92 -225Q87 -226 86 -234Q85 -242 81 -244Q75 -244 68 -248Q71 -266 88 -268Q97 -275 112 -269Q122 -260 132 -270Q147 -276 155 -281Q162 -284 162 -291Q162 -298 163 -303Q162 -306 164 -313Q165 -318 163 -320Q165 -340 159 -361Q155 -366 147 -363Q139 -360 133 -359Q129 -354 117 -353Q109 -352 106 -351Q104 -355 99 -353Q95 -351 93 -354Q77 -358 67 -358Q61 -359 54 -359Q46 -361 38 -364Q29 -365 39 -370Q54 -373 68 -377Q119 -393 166 -413Q169 -426 168 -435Q166 -435 165 -436Q166 -439 163 -443Q168 -464 154 -476Q155 -479 153 -483Q151 -488 156 -489Q160 -493 158 -495Q153 -497 147 -496Q133 -496 127 -503Q130 -508 148 -519Q192 -539 219 -541Q224 -543 231 -540Q244 -543 251 -540Q254 -547 248 -560Q244 -569 244 -574Q235 -610 227 -622Q224 -628 229 -631Q235 -634 240 -636ZM257 -517L256 -515Q239 -504 219 -499Q196 -487 175 -493Q173 -487 180 -483Q186 -480 192 -481Q200 -477 207 -471Q215 -470 217 -463Q220 -452 222 -450Q221 -446 225 -435Q228 -429 235 -432Q242 -434 247 -435Q261 -440 274 -446Q281 -445 281 -450Q282 -457 278 -462Q277 -468 264 -504Q263 -507 261 -512Q260 -517 257 -517ZM291 -406L274 -401Q264 -398 258 -398Q253 -395 247 -393Q231 -391 226 -380Q226 -370 225 -361Q225 -355 224 -347Q223 -338 227 -334Q256 -350 284 -367Q291 -371 299 -375Q307 -380 302 -389Q301 -394 298 -400Q296 -407 291 -406ZM667 -152H685Q686 -150 691 -150Q696 -151 698 -148Q714 -150 714 -134Q713 -131 713 -126Q713 -119 710 -118Q707 -116 692 -101Q666 -97 653 -97Q627 -91 611 -91Q589 -87 567 -82Q531 -75 496 -66Q488 -61 454 -57Q447 -46 429 -56Q418 -57 406 -64Q397 -58 388 -62Q385 -65 380 -67Q374 -69 373 -75Q385 -80 397 -85Q401 -85 441 -96Q444 -98 451 -99Q459 -100 462 -103Q469 -104 477 -109Q495 -113 513 -118Q538 -126 544 -125Q554 -131 556 -132Q573 -134 589 -137Q604 -139 618 -145Q640 -148 642 -147Q655 -150 667 -152Z"/>
</svg>