<svg xmlns="http://www.w3.org/2000/svg" viewBox="0 -800 1024 1024">
	<path fill="#000000" d="M730 -672H736Q740 -669 746 -668Q751 -667 755 -661Q755 -657 752 -652Q748 -645 750 -641Q752 -637 748 -635Q745 -633 742 -632Q737 -632 730 -624Q724 -616 719 -618Q711 -624 705 -618Q673 -611 640 -604Q634 -606 630 -602Q627 -598 633 -595Q635 -588 631 -581Q627 -575 623 -568Q617 -563 613 -551Q610 -542 607 -538Q606 -534 604 -531L599 -516Q598 -512 596 -508Q589 -486 578 -465Q581 -456 578 -446Q579 -431 576 -413Q570 -405 572 -397Q574 -387 572 -374Q572 -359 568 -345Q569 -321 565 -299Q566 -294 563 -286Q559 -276 561 -271Q559 -266 559 -256Q559 -243 557 -239Q553 -225 557 -215Q557 -210 556 -205Q553 -194 554 -181Q554 -178 545 -135Q537 -126 530 -136Q525 -139 519 -149Q515 -156 511 -159Q508 -168 496 -177Q492 -181 496 -188Q499 -193 498 -196Q491 -211 500 -223Q498 -230 502 -241Q505 -251 505 -256Q506 -280 510 -301Q511 -302 511 -305L513 -313Q514 -315 514 -317Q514 -332 517 -345Q520 -352 521 -365Q522 -382 525 -387Q522 -402 526 -414Q529 -421 526 -435Q524 -445 525 -451Q526 -455 523 -461Q520 -468 523 -471Q533 -480 542 -512Q548 -530 553 -548Q556 -556 558 -565Q558 -571 562 -577Q566 -582 560 -586Q548 -582 536 -581Q528 -578 519 -575Q506 -579 493 -578Q474 -587 458 -584Q453 -584 448 -585Q444 -586 446 -590Q456 -594 462 -599Q508 -620 542 -630Q558 -635 574 -641Q584 -643 593 -646Q614 -652 634 -659Q637 -663 643 -662Q649 -661 653 -661Q664 -665 675 -669Q678 -671 685 -668Q690 -666 694 -666Q699 -670 715 -670Q724 -670 730 -672ZM264 -558Q271 -558 272 -557Q275 -559 281 -558Q287 -557 290 -558Q301 -558 311 -558Q317 -556 325 -555Q332 -554 337 -547Q337 -535 337 -523Q338 -520 329 -514Q318 -514 310 -509Q305 -507 299 -505Q293 -503 294 -496Q300 -494 302 -488Q304 -483 308 -478Q314 -476 313 -465Q312 -457 314 -454Q317 -448 318 -436Q319 -421 322 -416Q319 -404 320 -391Q320 -365 314 -340Q314 -323 314 -307Q319 -293 314 -278Q312 -273 316 -262Q320 -252 318 -245Q316 -239 316 -227Q317 -214 314 -209Q312 -186 310 -164Q303 -154 302 -143Q303 -138 292 -129Q284 -118 273 -124Q265 -134 256 -139Q254 -145 239 -162Q227 -194 216 -207Q207 -213 206 -220Q217 -215 237 -217Q244 -223 246 -231Q248 -239 251 -246Q248 -254 249 -261Q252 -268 251 -282Q250 -298 254 -304Q254 -316 254 -328Q254 -347 259 -363Q260 -383 260 -403Q264 -442 262 -460Q260 -473 258 -487Q257 -493 252 -494Q247 -495 244 -492Q228 -492 215 -487Q208 -483 198 -483Q169 -487 139 -491Q136 -494 125 -496Q114 -499 110 -504Q115 -510 126 -510Q136 -518 148 -515Q165 -520 181 -527L237 -546Q251 -550 264 -558ZM769 -534Q799 -536 818 -527Q829 -525 841 -511Q851 -502 854 -492Q860 -487 860 -475Q858 -469 864 -462Q871 -454 868 -449Q870 -432 872 -416Q871 -404 870 -392Q869 -375 864 -360Q870 -350 867 -340Q865 -329 862 -319Q859 -312 859 -298Q859 -281 856 -275Q856 -262 849 -251Q848 -232 840 -214Q842 -202 833 -193Q829 -174 819 -156Q818 -148 808 -137Q799 -126 797 -121Q786 -116 783 -106Q769 -91 755 -77Q750 -74 757 -71Q766 -71 801 -64Q814 -62 827 -58Q843 -57 868 -48Q874 -44 882 -41Q890 -38 895 -30Q895 -27 899 -25Q903 -23 904 -21Q909 -10 906 -1Q894 14 879 17Q860 8 841 2Q826 -3 811 -8Q788 -15 767 -20Q753 -27 738 -29Q736 -31 722 -34Q713 -33 700 -38Q688 -42 683 -42Q667 -49 657 -49Q648 -52 639 -56Q631 -61 627 -50Q616 -45 608 -36Q605 -30 598 -29Q592 -28 587 -26Q571 -24 557 -19Q554 -19 554 -20Q556 -24 560 -27Q608 -80 622 -101Q636 -123 652 -144Q655 -152 660 -160Q665 -168 657 -174Q655 -177 648 -178Q641 -180 641 -182Q642 -188 654 -190Q666 -194 677 -198Q683 -201 693 -199Q704 -197 707 -198Q728 -196 737 -190Q744 -189 744 -182Q744 -175 740 -170Q739 -166 731 -161Q723 -156 723 -151Q719 -145 723 -139Q728 -132 735 -136Q748 -141 755 -153Q761 -165 769 -175Q776 -204 780 -210Q786 -234 791 -259Q793 -287 801 -312L802 -356Q801 -370 803 -382Q804 -406 805 -430Q803 -459 793 -483Q789 -493 776 -493Q770 -493 762 -489Q726 -481 710 -472Q694 -468 681 -459Q674 -460 671 -454Q667 -449 663 -445Q654 -442 647 -447Q641 -451 634 -453Q624 -457 613 -461Q608 -461 604 -461Q599 -461 598 -465Q602 -469 607 -471Q620 -483 663 -504Q705 -522 728 -526Q738 -531 752 -530Q755 -532 769 -534ZM705 -117Q700 -118 696 -112Q689 -103 662 -76Q662 -72 666 -70Q670 -69 674 -71Q685 -72 696 -73Q719 -73 722 -72Q734 -70 745 -74Q738 -85 721 -102Q719 -108 715 -113Q710 -119 705 -117Z"/>
</svg>