<svg xmlns="http://www.w3.org/2000/svg" viewBox="0 -800 1024 1024">
	<path fill="#000000" d="M175 -680Q180 -678 181 -676Q188 -678 205 -671Q208 -667 214 -667Q220 -667 222 -665Q230 -666 236 -661Q241 -657 247 -653Q254 -649 251 -644Q248 -639 248 -633Q250 -629 246 -625Q243 -622 244 -619Q241 -615 239 -604Q237 -594 234 -591Q230 -579 226 -567Q219 -549 208 -532Q208 -526 203 -520Q202 -516 207 -516Q211 -519 217 -518Q242 -527 247 -533Q274 -536 301 -540Q303 -537 308 -536Q315 -535 316 -532Q316 -507 327 -504Q326 -497 317 -495Q311 -494 302 -496Q301 -494 296 -493Q292 -492 291 -490Q288 -491 283 -489Q278 -486 274 -488Q244 -488 217 -498Q208 -498 200 -499Q192 -500 189 -491Q178 -484 173 -470Q172 -469 168 -463L160 -450Q158 -446 155 -443Q152 -442 148 -435Q143 -427 138 -427Q134 -422 130 -416Q125 -411 117 -412Q111 -412 111 -415Q110 -419 108 -422Q107 -429 105 -436Q113 -445 121 -461Q130 -480 138 -499Q146 -518 153 -538Q158 -546 172 -586Q173 -588 186 -630Q187 -642 188 -654Q189 -660 181 -666Q172 -673 175 -680ZM403 -229Q400 -220 397 -211Q395 -201 389 -189L372 -160Q370 -145 366 -139Q356 -116 349 -112Q345 -98 329 -82Q326 -70 320 -80Q311 -82 307 -85Q309 -95 301 -108Q294 -120 294 -126Q291 -130 297 -136Q300 -139 300 -142Q308 -145 309 -151Q313 -161 319 -171Q325 -181 323 -191Q327 -199 331 -208Q342 -219 348 -232Q354 -245 361 -258L367 -284Q387 -336 397 -392Q397 -405 397 -419Q397 -420 402 -425Q405 -428 401 -432Q402 -444 402 -456Q406 -476 412 -514Q417 -538 423 -556Q424 -562 427 -568Q430 -573 426 -578Q427 -583 445 -587L518 -608Q560 -612 602 -617Q624 -619 645 -629L652 -628Q668 -627 683 -627Q697 -626 711 -626Q713 -623 720 -623Q728 -623 729 -618Q734 -609 730 -596Q726 -583 716 -581Q711 -578 698 -579Q685 -579 681 -577Q647 -574 643 -575Q639 -572 626 -572Q615 -572 610 -569Q601 -568 588 -568Q583 -567 578 -567Q568 -568 559 -566Q551 -563 534 -563Q518 -563 512 -561Q501 -559 490 -557Q475 -555 468 -561Q462 -560 463 -556Q467 -550 467 -544Q465 -532 462 -520Q459 -510 458 -494Q458 -481 456 -476Q444 -398 437 -358Q435 -337 432 -328Q432 -325 431 -322L428 -308Q428 -304 427 -302Q423 -287 418 -272ZM449 -205Q433 -217 428 -228Q421 -241 429 -257Q433 -266 454 -292Q465 -307 473 -300Q475 -297 481 -293Q491 -286 493 -280Q488 -271 489 -261Q483 -255 476 -248Q469 -242 467 -232Q462 -226 468 -223Q474 -220 480 -223Q484 -221 491 -223Q500 -226 504 -225Q509 -228 515 -230Q521 -231 524 -237Q534 -289 521 -320Q512 -321 503 -323Q501 -326 492 -330Q486 -333 483 -336Q475 -334 471 -338Q467 -343 470 -350Q469 -354 471 -355Q474 -355 480 -353L497 -357Q488 -363 474 -385Q462 -403 454 -411Q453 -414 455 -419Q457 -425 461 -425Q465 -426 463 -433Q461 -438 464 -440Q463 -445 469 -450Q473 -454 473 -458Q477 -462 476 -469Q476 -475 482 -475Q487 -472 493 -469Q499 -466 502 -460Q520 -439 511 -408Q509 -403 511 -391Q513 -381 511 -375Q512 -371 514 -361Q536 -367 549 -380Q560 -392 570 -415Q578 -425 585 -438Q592 -447 593 -451Q596 -458 601 -465Q606 -472 602 -479Q587 -480 571 -481Q571 -485 580 -485Q588 -485 590 -489Q593 -488 599 -491Q608 -495 612 -492Q616 -492 621 -494Q625 -496 629 -491Q652 -487 669 -475Q677 -462 670 -446Q664 -444 660 -435Q657 -429 655 -427Q653 -423 643 -420Q633 -417 629 -412Q620 -411 616 -404Q612 -398 607 -391Q602 -386 601 -382Q601 -380 605 -380Q614 -379 620 -374Q624 -375 627 -369Q629 -364 632 -364Q635 -358 628 -356Q621 -343 607 -341Q593 -339 582 -338Q572 -334 561 -331Q549 -332 542 -330Q538 -326 533 -327Q527 -328 527 -322Q533 -314 541 -308Q549 -302 550 -291Q556 -285 560 -268Q563 -258 564 -255Q568 -248 575 -249Q576 -249 578 -248Q590 -248 601 -249Q608 -252 608 -255Q615 -265 613 -279Q617 -281 630 -279Q636 -280 646 -274Q654 -273 658 -263Q663 -252 655 -248Q651 -247 651 -241Q651 -234 654 -232Q656 -226 651 -224Q646 -221 643 -218Q637 -216 631 -215Q630 -208 617 -212Q616 -216 612 -214Q609 -212 607 -212Q596 -214 582 -209Q564 -205 562 -192Q559 -190 560 -182Q561 -171 556 -167Q555 -154 547 -142Q543 -119 535 -108Q530 -107 531 -100Q532 -94 530 -92Q526 -88 524 -78Q522 -69 519 -66Q518 -63 510 -58Q502 -54 499 -48Q487 -52 482 -57Q482 -64 473 -75Q464 -85 464 -92Q463 -102 472 -117Q479 -128 480 -136Q483 -137 489 -152Q490 -159 497 -170Q507 -186 505 -193Q499 -196 487 -195Q477 -194 473 -196Q458 -191 449 -205ZM257 -442Q269 -441 281 -441Q284 -443 289 -439Q294 -435 292 -430Q289 -426 293 -421Q296 -417 296 -414Q298 -408 293 -404Q287 -399 283 -403Q272 -392 258 -393Q250 -392 243 -389Q237 -392 235 -385Q237 -378 238 -370Q239 -362 244 -357Q267 -365 270 -365Q275 -371 282 -369Q297 -373 312 -378Q322 -375 331 -378Q338 -377 345 -376Q353 -375 354 -371Q354 -370 351 -370Q351 -363 350 -357Q349 -354 351 -348Q353 -342 350 -340Q349 -334 339 -330Q334 -333 329 -331Q327 -333 323 -330Q319 -326 315 -327Q313 -325 309 -325Q303 -325 301 -322Q293 -320 284 -318Q260 -310 257 -308Q254 -309 251 -307Q247 -304 245 -307Q236 -304 231 -296Q227 -293 226 -282Q226 -273 222 -270Q224 -258 213 -239Q217 -233 212 -219Q211 -209 212 -202Q210 -190 211 -179Q208 -169 212 -161Q211 -156 213 -154Q215 -153 220 -157Q229 -161 230 -164Q249 -178 267 -196Q283 -214 296 -234Q312 -255 316 -263Q323 -267 316 -257Q316 -254 311 -247Q306 -240 306 -235Q305 -231 294 -216Q290 -206 285 -196Q286 -183 273 -176Q274 -171 269 -165Q265 -159 264 -157Q259 -151 255 -139Q251 -128 247 -124Q246 -119 241 -115Q235 -111 235 -108Q230 -97 227 -92Q217 -90 209 -96Q201 -102 194 -106Q186 -109 178 -113Q165 -126 163 -127Q160 -132 158 -143Q156 -148 154 -166Q154 -187 156 -229Q158 -241 159 -254Q158 -259 161 -267Q164 -275 162 -279Q151 -278 137 -275Q129 -273 120 -272Q98 -272 89 -276Q55 -281 50 -280Q46 -282 41 -283Q36 -284 34 -288Q87 -305 120 -313Q130 -315 140 -318Q160 -325 180 -332Q187 -344 189 -357Q192 -368 191 -381Q190 -385 192 -390Q171 -392 166 -391Q161 -394 155 -398Q162 -401 169 -405Q185 -411 201 -417Q209 -420 217 -423Q225 -425 228 -432Q243 -435 257 -442ZM891 -290Q878 -280 871 -272Q865 -266 859 -261Q858 -257 852 -253Q847 -250 845 -247Q840 -246 834 -237Q830 -230 826 -229Q820 -231 817 -227Q814 -223 811 -218Q798 -220 796 -212Q795 -208 788 -208Q783 -208 781 -207Q773 -200 760 -200Q757 -195 751 -191Q745 -187 743 -184Q740 -171 732 -160Q722 -160 717 -152Q716 -144 708 -134Q702 -125 700 -122Q699 -118 689 -113Q681 -109 684 -102Q692 -98 709 -104Q712 -103 725 -105Q793 -102 800 -101Q812 -98 826 -95Q838 -94 850 -89Q860 -91 878 -81Q888 -80 897 -74Q900 -77 903 -75Q905 -73 907 -69Q909 -67 917 -64Q926 -61 928 -55Q934 -46 928 -32Q924 -28 922 -21Q921 -14 913 -13Q894 -23 872 -31Q858 -38 843 -41Q831 -49 818 -52Q811 -56 804 -57Q797 -58 791 -58Q776 -66 761 -66Q737 -68 718 -73L697 -81Q687 -83 676 -86Q663 -91 658 -79Q655 -76 654 -74L645 -65Q644 -63 641 -60Q637 -60 631 -55Q625 -49 621 -51Q616 -63 623 -73Q625 -90 635 -105Q646 -127 676 -167Q679 -174 688 -185Q699 -199 702 -207Q717 -231 697 -257Q692 -260 692 -266Q692 -271 699 -270Q711 -265 723 -261Q739 -261 750 -242Q754 -237 755 -229Q756 -222 765 -223Q774 -228 792 -246Q804 -258 813 -265Q814 -266 823 -278Q836 -293 839 -299Q844 -312 846 -315Q857 -333 858 -345Q858 -376 843 -371Q831 -371 821 -367Q811 -362 799 -359Q777 -349 752 -341Q745 -336 735 -334Q731 -333 726 -328Q720 -322 718 -323Q716 -322 713 -323Q707 -325 703 -321Q699 -313 688 -304Q679 -295 666 -293Q664 -296 666 -309Q666 -318 667 -320Q672 -342 677 -365Q676 -372 680 -387Q684 -404 680 -413Q681 -417 678 -420Q675 -423 678 -425Q681 -431 687 -432Q693 -432 697 -434Q708 -431 718 -429Q729 -433 732 -425Q746 -421 736 -401Q733 -398 732 -390Q730 -377 723 -374Q722 -369 724 -368Q730 -369 737 -373Q752 -381 795 -400Q824 -409 854 -406Q863 -406 871 -406Q880 -404 889 -402Q898 -400 901 -391Q909 -387 907 -377Q908 -372 909 -367Q910 -361 916 -358Q921 -330 905 -311Q898 -303 891 -290Z"/>
</svg>