<svg xmlns="http://www.w3.org/2000/svg" viewBox="0 -800 1024 1024">
	<path fill="#000000" d="M610 -755Q626 -753 632 -749Q639 -749 646 -745Q650 -738 658 -733Q659 -732 659 -727Q658 -720 662 -718Q660 -703 658 -688Q662 -682 659 -675Q656 -669 656 -663Q658 -656 653 -645Q648 -635 649 -629Q651 -625 648 -616Q645 -607 647 -604Q656 -598 675 -608Q695 -615 715 -622Q729 -628 764 -626Q770 -620 777 -614Q784 -608 785 -599Q790 -595 788 -586Q786 -577 792 -574Q788 -569 786 -558Q789 -547 789 -537Q785 -529 783 -508Q782 -488 777 -479Q770 -474 772 -467Q774 -460 773 -452Q768 -449 767 -440Q765 -429 760 -427Q755 -403 752 -398Q752 -380 745 -375Q739 -363 733 -339Q744 -336 770 -343Q786 -346 802 -349Q812 -350 822 -352Q844 -353 866 -354Q871 -352 878 -351Q884 -351 889 -345Q908 -342 922 -328Q928 -317 933 -314Q940 -313 944 -302Q952 -292 950 -277Q954 -274 954 -267Q954 -260 957 -258Q958 -253 963 -228Q958 -182 947 -140Q941 -138 939 -133Q938 -130 937 -121Q933 -113 934 -107Q928 -87 917 -71Q917 -64 913 -59Q908 -54 905 -49Q905 -29 890 -14Q881 5 863 18Q863 23 856 26Q850 29 849 33Q846 40 841 43Q835 46 831 49Q830 51 827 52Q822 53 821 56Q822 68 809 71Q802 69 796 76Q791 82 787 81Q779 85 777 79Q775 73 772 69Q771 64 765 57Q760 52 759 48Q758 44 752 39Q746 34 745 30Q724 7 712 -3Q705 -9 699 -14Q711 -14 722 -10Q742 -1 761 8Q787 15 794 15Q806 3 814 -10Q821 -16 829 -31Q838 -48 846 -54L867 -106Q868 -113 873 -125Q880 -139 880 -146Q892 -185 891 -217Q890 -229 889 -241Q878 -291 849 -299Q834 -304 818 -300Q793 -298 773 -293Q771 -294 760 -291Q754 -292 743 -288Q734 -285 728 -285Q718 -280 686 -276Q678 -277 670 -276Q666 -273 656 -272Q647 -271 644 -269Q641 -264 632 -265Q626 -265 623 -263Q611 -261 598 -263Q582 -270 573 -270Q557 -273 546 -279Q542 -284 536 -287Q533 -289 537 -293Q544 -292 569 -297Q594 -304 619 -311Q625 -312 630 -313L654 -318Q657 -321 657 -329Q657 -338 661 -340Q669 -346 678 -364Q685 -378 690 -384Q696 -406 702 -428Q705 -439 708 -450Q712 -469 716 -488Q721 -498 722 -510Q725 -537 728 -564Q727 -568 726 -573Q726 -583 717 -582Q709 -570 694 -578Q683 -576 668 -581Q655 -585 650 -585Q644 -586 642 -581Q640 -576 639 -571Q636 -569 637 -561Q638 -554 634 -552Q633 -549 634 -540Q635 -531 633 -526Q634 -516 629 -499Q624 -482 625 -473Q620 -465 626 -460Q631 -456 641 -456Q654 -453 666 -457Q672 -460 680 -457Q688 -454 687 -448Q682 -446 684 -443Q690 -439 686 -433Q690 -420 679 -409Q670 -403 656 -405Q643 -405 631 -411Q626 -412 620 -414Q614 -417 611 -411Q610 -399 600 -366Q601 -357 591 -349Q595 -341 590 -335Q586 -329 583 -323Q575 -323 570 -329Q565 -335 559 -339Q550 -347 543 -356Q541 -363 548 -387Q550 -398 559 -430Q569 -465 571 -488Q573 -501 575 -515Q578 -534 580 -554Q584 -592 588 -630Q591 -654 594 -679Q596 -704 595 -725Q595 -734 588 -737Q582 -740 578 -745Q582 -754 592 -753Q602 -752 610 -755ZM279 -583L303 -582Q306 -581 310 -582Q318 -584 321 -582Q323 -582 323 -581Q323 -578 325 -574Q324 -572 325 -571Q327 -570 329 -569Q333 -570 334 -567Q335 -564 335 -560Q338 -553 326 -547Q320 -547 308 -543Q300 -540 293 -540Q276 -536 272 -525Q266 -519 269 -512Q268 -508 272 -500Q275 -495 275 -490Q276 -483 272 -478Q268 -473 264 -469Q256 -460 247 -451Q235 -439 222 -419Q214 -417 209 -407Q202 -394 199 -391Q187 -384 183 -375Q174 -361 162 -349Q152 -347 152 -329Q150 -320 143 -314Q139 -305 134 -296Q130 -279 129 -261Q126 -249 122 -238Q124 -236 124 -229Q124 -223 126 -220Q127 -219 131 -206Q132 -196 120 -196Q109 -196 104 -201Q86 -201 74 -232Q74 -240 74 -248Q79 -264 84 -280Q87 -285 87 -301Q88 -308 86 -314Q84 -320 90 -324Q96 -330 97 -340Q96 -346 97 -349Q98 -353 103 -351Q109 -351 110 -357Q112 -362 113 -367Q121 -370 127 -379Q141 -393 152 -409Q164 -415 169 -428Q183 -442 193 -458Q209 -481 227 -502Q229 -507 238 -516Q244 -521 247 -526Q246 -530 250 -533Q254 -536 253 -537Q242 -545 231 -538Q222 -536 213 -534Q190 -536 170 -541Q158 -546 148 -547Q131 -547 118 -554Q114 -562 123 -564Q139 -565 154 -567Q186 -571 202 -574Q212 -575 221 -577Q243 -579 265 -580Q269 -581 279 -583ZM474 -254Q468 -248 469 -237Q470 -231 466 -228Q463 -224 460 -219Q457 -205 448 -193Q439 -182 429 -170Q420 -165 414 -156Q408 -147 402 -140Q396 -140 394 -146Q392 -151 391 -155Q377 -175 374 -182Q367 -196 362 -201Q361 -203 357 -226Q356 -231 354 -235Q352 -239 357 -242Q363 -242 368 -231Q376 -213 386 -210Q395 -204 402 -212Q408 -219 411 -230Q421 -271 424 -277Q423 -283 428 -297Q429 -298 432 -318Q435 -337 437 -356Q435 -385 424 -400Q419 -411 404 -402Q393 -400 385 -395Q375 -392 364 -390Q345 -382 325 -375Q319 -373 313 -374Q307 -374 306 -368Q309 -363 318 -360Q330 -357 332 -351Q342 -342 338 -326Q345 -317 338 -309Q330 -304 336 -289Q333 -282 334 -275Q329 -256 331 -251Q330 -249 325 -224Q326 -219 320 -209Q320 -193 311 -192Q304 -188 299 -193Q294 -198 288 -201Q265 -234 272 -256Q276 -266 288 -302Q289 -312 294 -324Q301 -341 301 -349Q299 -355 298 -361Q296 -367 290 -366Q279 -364 267 -365Q263 -363 257 -363Q248 -363 247 -359Q249 -353 253 -348Q256 -342 256 -334Q252 -323 247 -313Q239 -295 235 -285Q231 -274 232 -261Q229 -256 231 -246Q229 -233 234 -224Q238 -217 231 -211Q226 -206 219 -208Q199 -213 192 -228Q183 -246 182 -264Q187 -292 200 -315Q200 -319 206 -329Q211 -338 211 -345Q212 -353 205 -353Q198 -353 192 -350Q185 -346 175 -347Q173 -352 177 -355Q181 -358 184 -361Q196 -372 207 -384Q212 -388 228 -394Q262 -403 296 -413Q318 -419 340 -425Q343 -427 367 -435Q381 -439 394 -444Q408 -445 422 -447Q427 -446 432 -445Q443 -449 466 -441L482 -417Q487 -413 489 -402Q491 -391 493 -388Q496 -368 493 -346Q489 -335 488 -323Q488 -319 487 -316L485 -302Q485 -298 484 -295ZM739 -170H757Q758 -168 763 -168Q768 -169 770 -166Q786 -168 786 -152Q785 -149 785 -144Q785 -137 782 -136Q779 -134 764 -119Q738 -115 725 -115Q699 -109 683 -109Q661 -105 639 -100Q603 -93 568 -84Q560 -79 526 -75Q519 -64 501 -74Q490 -75 478 -82Q469 -76 460 -80Q457 -83 452 -85Q446 -87 445 -93Q457 -98 469 -103Q473 -103 513 -114Q516 -116 523 -117Q531 -118 534 -121Q541 -122 549 -127Q567 -131 585 -136Q610 -144 616 -143Q626 -149 628 -150Q645 -152 661 -155Q676 -157 690 -163Q712 -166 714 -165Q727 -168 739 -170Z"/>
</svg>