<svg xmlns="http://www.w3.org/2000/svg" viewBox="0 -800 1024 1024">
	<path fill="#000000" d="M762 -680Q780 -675 795 -668Q805 -662 810 -651Q815 -640 807 -631Q808 -625 797 -617Q790 -612 788 -607Q787 -599 780 -590Q773 -581 772 -578Q769 -572 762 -565Q755 -558 764 -552Q769 -552 769 -550Q769 -543 772 -536Q771 -523 760 -515Q750 -508 737 -508Q724 -505 696 -499Q684 -503 672 -505Q665 -509 657 -513Q649 -515 646 -520Q641 -527 649 -531Q659 -527 676 -534Q687 -539 698 -543Q709 -547 712 -558Q723 -578 733 -598Q739 -612 740 -628Q736 -627 731 -620Q728 -616 725 -614Q709 -616 696 -620Q687 -624 677 -624Q671 -626 665 -616Q657 -614 653 -607Q649 -601 644 -597Q634 -582 624 -567Q624 -561 619 -553Q613 -542 614 -534Q604 -509 593 -485Q585 -464 574 -445Q568 -439 561 -424Q554 -410 548 -403Q549 -395 544 -390Q540 -385 537 -379Q530 -369 525 -359Q518 -353 517 -345Q517 -336 514 -328Q510 -314 496 -316Q490 -322 484 -326Q477 -330 475 -338Q464 -350 464 -351Q459 -359 465 -367Q467 -380 473 -391Q474 -399 476 -407Q477 -416 470 -419Q459 -417 439 -424Q434 -411 434 -396Q429 -369 427 -366Q429 -355 430 -345Q430 -341 425 -314Q426 -301 421 -285Q426 -271 422 -233Q425 -227 424 -221Q422 -213 413 -211Q408 -214 398 -217Q386 -220 381 -225Q380 -228 373 -231Q365 -235 366 -240Q362 -250 365 -256Q358 -276 360 -298Q362 -320 363 -342Q372 -397 383 -456Q386 -508 394 -538Q399 -549 402 -569Q406 -595 412 -605Q410 -609 417 -615Q423 -621 418 -625Q407 -629 418 -630Q420 -635 429 -637Q437 -639 439 -640Q452 -643 464 -647Q489 -655 514 -664Q522 -660 547 -664Q557 -667 563 -661Q570 -654 576 -649Q588 -643 589 -631Q590 -620 582 -610Q572 -605 568 -596Q563 -588 556 -579Q551 -577 547 -571Q543 -565 540 -563Q528 -533 500 -531Q489 -527 470 -529Q459 -528 449 -524Q442 -489 440 -452Q436 -448 439 -444Q443 -441 447 -447Q457 -450 467 -457Q473 -456 476 -459Q479 -463 482 -464Q486 -468 491 -466Q496 -464 502 -464Q507 -460 518 -463Q530 -466 534 -463Q544 -456 549 -465Q559 -478 565 -492Q569 -498 570 -501L580 -518Q581 -521 585 -527Q587 -534 599 -551Q608 -565 612 -576L635 -610Q630 -625 640 -635Q645 -635 646 -638Q647 -641 650 -645Q678 -658 684 -659Q698 -664 711 -669Q727 -677 744 -674Q756 -674 762 -680ZM514 -616L502 -613Q496 -606 488 -606Q477 -608 466 -610Q462 -611 455 -614Q449 -616 447 -610Q451 -606 454 -597Q457 -586 460 -583Q463 -578 457 -572Q452 -567 454 -562Q457 -559 459 -559Q468 -563 476 -568Q479 -568 482 -564Q496 -562 502 -568Q509 -594 514 -605Q517 -608 518 -614Q518 -617 514 -616ZM166 -513L186 -510Q200 -510 213 -510Q233 -508 237 -493Q243 -485 235 -477Q227 -469 220 -463Q208 -466 195 -469Q180 -473 177 -475Q133 -493 126 -495Q123 -493 118 -495Q113 -496 115 -501Q129 -507 144 -507Q155 -510 166 -513ZM757 -472Q770 -473 779 -466Q790 -463 801 -444Q801 -440 804 -433Q808 -424 807 -421Q809 -403 804 -395Q800 -391 797 -378Q794 -366 788 -361Q782 -348 775 -335Q775 -331 768 -329Q764 -328 762 -325Q764 -316 759 -312Q753 -308 749 -304Q749 -298 745 -298Q739 -297 739 -292Q748 -282 765 -282Q770 -278 794 -270Q804 -266 814 -261Q823 -257 828 -246Q838 -231 827 -216Q823 -213 822 -209Q821 -205 821 -201Q822 -199 821 -198Q817 -195 811 -198Q789 -205 747 -227L722 -236Q702 -243 696 -244Q693 -247 680 -249Q664 -249 645 -241Q640 -242 627 -241Q614 -240 608 -242Q604 -242 603 -244Q604 -250 612 -253Q614 -255 620 -258Q626 -261 623 -265Q596 -280 568 -287Q555 -296 536 -305Q532 -309 534 -311Q541 -314 547 -309Q571 -312 597 -307Q617 -304 637 -302Q653 -299 668 -297Q678 -297 685 -305Q691 -314 711 -334Q729 -352 737 -365Q744 -378 750 -393Q756 -408 751 -425Q748 -432 741 -430Q735 -428 729 -426Q714 -420 696 -422Q693 -427 682 -427Q672 -427 669 -432Q660 -436 646 -447Q642 -452 646 -454Q653 -456 658 -453Q661 -454 710 -465Q732 -472 741 -467Q743 -467 745 -468L753 -471Q755 -471 757 -472ZM149 -383H162Q176 -379 190 -375Q199 -377 203 -372Q208 -367 213 -364Q220 -350 218 -342Q210 -333 210 -312Q201 -305 199 -295Q198 -285 194 -277Q192 -257 189 -238Q191 -231 190 -213Q189 -195 193 -185Q193 -156 217 -143Q220 -137 240 -126Q252 -122 270 -109Q282 -102 283 -101Q289 -95 284 -88Q272 -89 256 -97Q250 -96 243 -97Q236 -98 233 -93Q229 -90 230 -87Q231 -84 235 -83Q283 -81 307 -81Q351 -79 359 -77Q367 -78 374 -74H390Q401 -75 423 -73Q435 -66 449 -66Q461 -65 472 -64Q484 -62 495 -60Q501 -62 509 -60Q520 -58 525 -60Q527 -60 529 -60L537 -59Q539 -59 541 -59Q561 -58 580 -58Q587 -57 593 -56Q625 -53 657 -50Q673 -47 688 -45Q712 -46 739 -43Q765 -39 777 -39L817 -30Q827 -34 846 -30Q854 -30 862 -30Q881 -29 935 -39Q945 -37 943 -28Q940 -18 930 -19Q922 -10 912 -7Q908 -3 898 -2Q892 -1 889 1Q868 5 852 16Q841 21 809 26Q797 27 784 28Q740 22 696 15Q670 12 644 8Q595 2 546 -4Q536 -3 526 -5Q506 -4 442 -13Q428 -16 413 -20Q411 -19 405 -21Q401 -23 398 -22Q386 -23 379 -26Q363 -28 347 -33Q332 -35 317 -38Q278 -48 267 -49Q259 -53 245 -54Q227 -56 220 -60Q211 -63 206 -70Q199 -79 209 -84Q212 -86 213 -95Q214 -102 217 -104Q221 -102 224 -104Q226 -105 225 -109Q196 -123 173 -149Q158 -169 150 -193Q150 -212 150 -232Q147 -262 154 -291Q161 -319 164 -348Q166 -357 160 -361Q159 -362 146 -366Q138 -368 130 -370Q122 -373 119 -380Q125 -381 134 -380Q142 -378 149 -383Z"/>
</svg>