<svg xmlns="http://www.w3.org/2000/svg" viewBox="0 -800 1024 1024">
	<path fill="#000000" d="M684 -675L719 -674Q733 -672 746 -670Q753 -672 759 -667Q778 -667 778 -656Q779 -651 782 -652Q787 -656 792 -654Q799 -637 806 -641Q816 -641 816 -625Q816 -612 820 -608Q821 -608 825 -611Q827 -612 829 -608Q830 -602 836 -593Q842 -584 843 -579Q836 -577 836 -568Q836 -561 841 -555Q846 -553 845 -549Q843 -545 842 -541Q846 -537 845 -530Q843 -521 842 -513Q848 -512 848 -506Q848 -499 842 -499L839 -487Q841 -477 841 -476Q843 -470 848 -471Q851 -467 848 -459Q844 -450 846 -446Q839 -438 848 -427Q842 -414 846 -405Q847 -401 843 -397Q841 -395 841 -392Q849 -384 849 -365Q851 -354 843 -343Q845 -337 844 -329Q843 -322 848 -316Q844 -298 848 -285Q847 -281 849 -273Q851 -265 849 -261Q851 -252 853 -234Q848 -226 852 -215Q848 -210 850 -204Q851 -198 851 -192Q848 -180 852 -169Q848 -163 849 -150Q849 -137 846 -133Q846 -110 846 -87Q846 -68 846 -49Q846 -35 846 -21Q844 -10 845 0Q846 10 837 16Q837 34 835 37Q833 47 831 57Q823 56 819 65Q818 70 814 66Q813 63 808 63Q804 63 802 61Q798 66 795 62Q793 55 786 57Q785 50 780 44L770 32Q762 25 768 19Q760 12 763 0Q768 -3 774 -3Q786 -10 787 -23Q788 -37 791 -49Q789 -63 790 -75Q791 -79 790 -89Q789 -101 792 -107V-149Q794 -159 799 -211Q799 -249 796 -267Q797 -270 797 -278Q797 -289 800 -292Q802 -296 802 -304Q802 -316 806 -320Q798 -337 802 -347Q806 -363 799 -375Q799 -381 798 -385V-403Q797 -407 797 -413Q801 -423 799 -447Q798 -464 799 -472Q798 -485 796 -499Q794 -520 792 -541Q793 -566 781 -586Q774 -617 728 -639Q724 -638 716 -641Q708 -644 703 -641Q670 -641 637 -628Q623 -626 612 -621Q600 -618 588 -615Q585 -611 577 -608Q570 -605 568 -603Q567 -596 561 -594Q555 -592 549 -595Q540 -595 524 -602Q512 -607 504 -608Q494 -613 509 -617Q524 -622 536 -631Q560 -645 651 -669Q653 -672 655 -670Q658 -669 660 -671Q673 -667 684 -675ZM330 -637Q336 -637 340 -634Q346 -635 369 -630Q375 -630 388 -621Q388 -618 391 -613Q395 -606 393 -601Q390 -598 388 -600Q385 -604 382 -605Q376 -595 368 -589Q363 -591 353 -590Q339 -589 334 -593Q330 -591 325 -595Q321 -599 318 -599Q312 -603 307 -608Q301 -613 294 -612Q290 -611 287 -613Q286 -614 286 -618Q287 -626 295 -624Q299 -629 312 -630Q326 -631 330 -637ZM212 -583H214Q221 -580 221 -570Q221 -563 223 -560Q229 -534 221 -521Q214 -513 208 -492Q204 -491 203 -483Q202 -477 201 -475Q199 -473 199 -459Q195 -454 195 -441Q195 -429 192 -424Q195 -409 191 -393Q186 -376 185 -373Q185 -350 180 -328Q172 -319 179 -309Q178 -296 177 -283Q169 -277 173 -269Q173 -246 172 -224Q170 -210 173 -197Q168 -193 171 -185Q176 -180 174 -175Q172 -169 169 -164Q170 -154 171 -145Q169 -142 171 -137Q173 -130 168 -127Q172 -120 166 -110Q165 -99 168 -86Q168 -78 168 -70Q155 -59 164 -49Q167 -45 162 -40Q157 -36 159 -32Q153 -20 140 -24Q127 -35 113 -46Q108 -53 106 -84Q110 -89 108 -99Q107 -107 108 -110Q104 -121 109 -140Q113 -155 113 -162Q117 -172 117 -194Q115 -207 119 -218Q122 -233 123 -250Q121 -257 123 -268Q125 -279 124 -284Q131 -291 131 -311Q127 -324 132 -330Q138 -350 141 -371L146 -400Q145 -413 150 -430Q148 -449 151 -466Q153 -481 155 -496Q157 -512 168 -524Q173 -539 187 -558Q199 -573 212 -583ZM417 -502Q428 -500 441 -499Q453 -497 462 -487Q477 -466 460 -447Q458 -441 449 -430Q443 -424 447 -419Q452 -414 454 -409Q456 -387 432 -384Q426 -382 412 -378L391 -374Q387 -376 379 -373Q373 -370 368 -371Q361 -365 341 -369Q334 -373 326 -376Q318 -380 314 -387Q308 -390 314 -397Q307 -399 306 -410Q305 -418 303 -420Q296 -435 292 -452Q287 -471 308 -474Q319 -466 330 -459Q329 -451 332 -434Q336 -415 333 -404Q330 -400 332 -397Q334 -394 337 -397Q358 -402 375 -411Q381 -415 389 -428Q395 -438 398 -441Q403 -456 411 -469Q416 -472 416 -478Q416 -484 408 -485Q403 -486 397 -487Q391 -487 388 -493Q393 -499 401 -499Q409 -500 417 -502ZM521 -455H522Q533 -450 540 -453Q542 -448 546 -448Q551 -449 555 -447Q564 -446 570 -437Q576 -428 573 -419Q573 -415 569 -410Q564 -403 565 -400Q587 -407 608 -418Q640 -423 660 -432Q662 -432 663 -432L670 -433Q672 -433 673 -433Q676 -431 681 -433Q689 -435 692 -433Q701 -433 712 -430Q726 -428 731 -405Q735 -399 732 -385Q730 -373 731 -369Q724 -356 717 -343Q708 -327 703 -324Q700 -318 691 -310Q682 -302 680 -297Q672 -291 667 -284Q662 -277 651 -280Q644 -264 629 -254Q623 -250 613 -247Q606 -239 596 -236Q587 -235 585 -243Q582 -251 585 -260Q592 -266 582 -273Q590 -279 601 -281Q608 -286 615 -292Q634 -304 656 -327Q664 -334 671 -342Q679 -355 687 -368Q695 -382 694 -397Q691 -407 682 -406Q674 -405 666 -404Q661 -401 646 -399Q632 -397 624 -392Q617 -392 610 -388Q587 -382 569 -366Q570 -362 565 -361Q560 -360 557 -362Q546 -368 542 -356Q532 -349 527 -337Q521 -335 517 -327Q514 -320 512 -319Q511 -323 504 -328Q498 -333 496 -337Q491 -343 496 -365Q499 -373 509 -385Q522 -400 523 -411Q535 -423 529 -432Q512 -447 521 -455ZM298 -356Q304 -355 304 -350Q305 -345 307 -342Q315 -337 315 -328Q314 -320 313 -311Q307 -295 300 -279Q297 -274 292 -268Q287 -263 293 -259Q307 -260 321 -262Q330 -263 335 -267Q349 -267 361 -270Q368 -274 368 -283Q367 -292 369 -299Q368 -303 370 -311Q372 -320 369 -324Q372 -340 368 -351Q379 -341 383 -337Q393 -333 395 -311Q398 -307 398 -297Q398 -285 402 -280Q407 -280 412 -280Q414 -281 423 -280Q435 -278 435 -285Q431 -290 435 -292Q440 -295 444 -297Q457 -297 469 -297Q491 -286 498 -274Q499 -264 492 -260Q486 -257 480 -252Q477 -246 472 -246Q466 -246 461 -245Q451 -242 440 -243Q425 -239 409 -236Q402 -235 394 -234Q392 -222 389 -211Q387 -201 385 -192Q386 -187 381 -178Q376 -170 377 -164Q375 -155 373 -146Q369 -131 361 -117Q355 -104 339 -107Q332 -104 326 -110Q320 -116 324 -122Q323 -143 332 -161Q336 -176 345 -189Q345 -195 350 -204Q357 -218 355 -225Q349 -228 338 -224Q325 -220 319 -222Q300 -219 277 -220Q275 -225 269 -221Q265 -218 264 -219Q261 -218 259 -222Q257 -227 254 -227Q254 -233 247 -243Q237 -257 241 -265Q243 -269 243 -280Q243 -295 249 -301Q260 -321 273 -337Q278 -346 298 -356ZM540 -310Q551 -310 555 -307Q564 -306 568 -297Q569 -294 573 -281Q575 -276 573 -269Q570 -261 571 -256Q573 -248 569 -237Q567 -216 557 -210Q548 -195 549 -182Q553 -180 561 -181Q572 -182 576 -179Q579 -180 602 -180Q610 -176 620 -176Q651 -171 682 -167Q685 -161 692 -159Q698 -158 704 -155Q718 -139 717 -129Q719 -123 715 -122Q710 -121 705 -120Q699 -125 694 -117Q684 -119 673 -121Q661 -120 651 -125Q641 -131 631 -135Q611 -143 591 -147Q584 -150 577 -153Q565 -156 553 -162Q548 -161 542 -164Q533 -168 529 -165Q519 -169 516 -160Q516 -152 505 -147Q503 -141 496 -139Q487 -136 486 -143Q472 -162 482 -170Q482 -183 499 -189Q509 -199 514 -213Q519 -214 521 -217Q524 -221 528 -225Q534 -240 540 -255Q552 -280 531 -298Q528 -304 532 -306Q536 -308 540 -310Z"/>
</svg>