<svg xmlns="http://www.w3.org/2000/svg" viewBox="0 -800 1024 1024">
	<path fill="#000000" d="M200 -691Q202 -688 204 -685Q206 -683 209 -687Q217 -680 231 -673Q234 -675 240 -671Q244 -668 246 -668Q262 -655 256 -649Q254 -644 244 -638Q236 -634 233 -628Q227 -627 223 -622Q219 -617 214 -613Q211 -609 204 -605Q194 -600 190 -594Q184 -591 181 -585Q178 -579 183 -574Q195 -562 197 -559Q204 -549 201 -540Q201 -534 201 -525Q200 -517 208 -517Q221 -527 237 -528Q247 -527 256 -527Q272 -527 272 -514Q277 -505 270 -503Q262 -501 256 -499Q229 -497 202 -495Q200 -483 197 -472Q199 -469 196 -462Q194 -456 195 -453Q196 -449 193 -441Q190 -434 193 -428Q198 -425 199 -419Q199 -414 201 -411Q230 -417 259 -427Q261 -427 291 -433Q304 -436 316 -436Q325 -438 334 -440Q341 -439 364 -443Q367 -448 372 -464Q377 -466 378 -475Q379 -480 380 -482Q384 -495 384 -509Q350 -502 319 -508Q314 -511 308 -514Q306 -516 311 -520Q331 -532 359 -535Q372 -537 377 -533Q382 -533 384 -530Q385 -526 387 -521Q391 -522 392 -524Q391 -528 393 -532Q395 -552 396 -573Q399 -593 395 -613Q393 -621 388 -620Q382 -620 377 -619Q360 -611 342 -611Q325 -606 306 -613Q300 -612 295 -617Q290 -622 294 -628Q306 -629 319 -634Q329 -639 339 -644Q342 -644 348 -647Q354 -651 357 -649Q372 -655 394 -655Q404 -657 414 -649Q420 -646 425 -643Q430 -640 432 -634Q439 -626 443 -614Q447 -603 447 -601Q449 -591 444 -587Q445 -574 446 -562Q439 -552 440 -539Q440 -527 439 -514Q441 -510 437 -506Q434 -502 434 -499L426 -474Q429 -464 422 -455Q423 -444 412 -426Q404 -413 403 -406Q397 -383 381 -367Q368 -375 362 -389Q353 -391 353 -397Q351 -402 344 -402Q340 -402 325 -397Q304 -397 301 -396Q297 -397 286 -393Q276 -389 269 -390Q261 -389 253 -388Q246 -383 232 -383Q220 -383 216 -381Q206 -379 196 -383Q187 -387 179 -390Q169 -394 165 -402Q160 -410 154 -417Q140 -421 144 -442Q145 -462 154 -477Q159 -485 161 -503Q163 -519 166 -526Q166 -537 167 -549Q169 -562 158 -567Q153 -562 151 -565Q148 -569 145 -573Q138 -580 142 -605Q177 -643 200 -691ZM665 -656Q675 -656 677 -654Q701 -658 713 -649Q714 -645 721 -639Q727 -634 728 -629Q731 -622 731 -612Q735 -597 731 -583Q729 -581 731 -575Q733 -570 731 -567Q725 -564 724 -559Q723 -553 721 -548Q722 -545 721 -541Q720 -536 726 -536Q736 -539 768 -537Q770 -537 774 -535L787 -532Q790 -531 793 -530Q798 -521 807 -518Q813 -513 815 -499Q819 -487 818 -474Q815 -463 811 -453Q811 -448 805 -442Q799 -435 798 -429Q791 -420 789 -412Q780 -399 771 -389Q761 -384 749 -368Q749 -365 743 -360Q738 -356 739 -353Q759 -353 775 -357Q794 -358 811 -357Q820 -358 827 -351Q815 -337 824 -328Q827 -330 830 -328Q832 -326 830 -323Q825 -315 814 -317Q771 -306 733 -297Q727 -295 721 -294Q682 -285 681 -285Q674 -281 676 -268Q678 -257 674 -253Q664 -247 662 -237Q660 -226 656 -217Q652 -202 644 -190Q642 -184 644 -181Q645 -179 650 -182Q704 -218 732 -229Q746 -236 772 -244Q802 -253 813 -259Q817 -258 826 -261Q834 -264 839 -262Q848 -267 857 -264Q865 -260 874 -260Q889 -260 898 -251Q903 -251 906 -244Q908 -238 911 -237Q921 -234 923 -221Q922 -219 923 -218Q927 -217 930 -216L938 -184Q931 -166 917 -149Q916 -146 915 -146Q913 -150 910 -151Q909 -151 908 -149Q903 -141 898 -134Q892 -133 889 -128Q887 -122 884 -119Q884 -115 880 -112Q877 -110 874 -107Q869 -98 863 -89Q851 -71 836 -57Q835 -53 830 -51Q825 -48 824 -46Q820 -42 823 -40Q828 -39 832 -37Q851 -35 865 -29Q871 -27 878 -25Q885 -22 885 -15Q884 -9 887 0Q892 13 884 16Q881 15 876 17Q871 20 869 16Q855 20 828 11Q818 10 812 7Q801 4 748 0Q696 -12 673 -22Q672 -22 671 -22Q666 -23 668 -29Q668 -31 671 -29Q686 -31 701 -33Q703 -34 755 -39L777 -62Q779 -65 784 -70L797 -86Q800 -88 804 -94Q808 -103 815 -109Q815 -113 823 -120Q832 -127 830 -135Q836 -138 841 -149Q846 -159 849 -162Q854 -177 858 -180Q860 -196 870 -210Q870 -216 864 -217Q857 -219 852 -219Q840 -214 828 -210Q792 -200 756 -190Q725 -180 696 -168Q689 -169 673 -167Q655 -165 646 -168Q640 -171 636 -166Q632 -161 634 -156Q631 -146 627 -136Q626 -130 625 -125Q623 -119 627 -114Q620 -77 620 -69Q624 -66 622 -58Q620 -52 621 -50Q618 -35 620 -21Q613 -19 613 -4Q606 1 599 -5Q593 -11 587 -14Q573 -25 560 -38Q555 -57 553 -61Q556 -72 563 -115Q564 -125 570 -142Q575 -156 576 -163Q587 -198 601 -227Q615 -246 623 -267Q618 -270 606 -265Q599 -262 594 -262Q582 -257 568 -257Q536 -251 504 -245Q481 -249 457 -253Q453 -256 446 -256Q440 -256 440 -262Q453 -271 466 -275Q473 -277 517 -287Q526 -289 535 -291Q548 -296 560 -298Q590 -305 601 -310Q610 -314 603 -323Q595 -336 602 -347Q600 -354 604 -357Q608 -361 612 -365Q612 -380 620 -392Q629 -411 635 -433Q639 -437 640 -446Q641 -454 642 -456Q644 -458 643 -459Q639 -461 633 -459Q630 -457 606 -457Q598 -457 589 -458Q586 -459 583 -460L570 -462Q567 -463 564 -464Q561 -467 565 -470Q570 -472 572 -474Q582 -477 597 -485Q606 -494 628 -501Q645 -507 651 -510Q665 -511 667 -531Q670 -539 678 -582Q678 -589 680 -598Q683 -606 676 -611Q663 -605 650 -600Q641 -597 632 -597Q602 -599 573 -610Q568 -611 562 -613Q560 -615 564 -618Q578 -620 599 -630Q619 -639 628 -641Q638 -650 665 -656ZM753 -493Q748 -493 740 -490Q730 -486 726 -488Q723 -486 715 -483Q706 -480 702 -474Q696 -462 693 -449Q686 -448 685 -441Q683 -435 679 -429Q681 -425 677 -419Q674 -414 675 -411Q667 -396 668 -385Q665 -380 662 -364Q659 -348 654 -341Q653 -337 648 -333Q640 -327 642 -322Q661 -324 673 -332Q676 -343 684 -351Q692 -359 698 -368Q704 -370 710 -381Q714 -389 717 -391Q750 -454 755 -474Q760 -489 759 -492Q758 -495 753 -493ZM303 -331H304Q306 -327 312 -324Q317 -321 320 -318Q327 -314 330 -309Q334 -302 328 -297Q323 -297 323 -293Q322 -288 321 -285Q324 -278 316 -263Q314 -256 319 -254Q324 -252 330 -256Q339 -256 348 -260Q359 -262 372 -260Q378 -257 380 -263Q382 -272 383 -278Q382 -282 384 -287Q387 -294 385 -297Q385 -308 393 -317Q403 -309 418 -302Q431 -299 433 -285Q431 -275 424 -263Q424 -262 421 -238Q422 -236 419 -231Q416 -226 417 -221Q409 -212 411 -193Q407 -190 408 -183Q409 -177 407 -175Q407 -165 407 -155Q405 -137 403 -119Q403 -110 402 -102Q402 -85 417 -103Q419 -108 430 -118Q440 -128 443 -135Q465 -171 470 -190Q477 -180 470 -175Q467 -167 466 -153Q465 -139 463 -134Q459 -118 454 -103Q452 -94 445 -81Q437 -67 436 -61Q430 -56 426 -46Q422 -36 418 -33Q417 -28 414 -28Q410 -27 405 -27Q398 -28 386 -33Q373 -39 367 -40L361 -64Q360 -66 355 -86Q357 -105 358 -125Q358 -152 362 -179Q371 -208 371 -227Q366 -234 350 -231Q343 -235 323 -237Q312 -238 313 -229Q313 -220 311 -214Q302 -195 312 -190Q337 -197 347 -194Q356 -198 358 -190Q354 -177 356 -164Q358 -157 353 -148Q349 -139 350 -134L340 -117Q341 -106 337 -95Q334 -92 335 -85Q336 -78 334 -76Q328 -75 328 -66Q328 -59 325 -57Q326 -53 322 -46Q319 -41 320 -37Q313 -29 305 -21Q303 -11 288 -21Q278 -27 267 -35Q256 -43 259 -58Q252 -72 257 -78Q259 -121 266 -162Q270 -190 274 -218Q275 -222 276 -228Q277 -234 272 -236Q252 -234 241 -235Q236 -234 224 -236Q213 -238 207 -235Q201 -215 200 -215Q198 -209 199 -204Q201 -199 208 -204Q232 -211 238 -214Q245 -218 251 -211Q257 -204 255 -197Q259 -192 259 -182Q259 -180 245 -142Q247 -138 242 -132Q238 -128 238 -125Q245 -109 233 -102Q229 -88 224 -74Q217 -67 213 -50Q211 -39 208 -34Q203 -28 198 -32Q192 -36 185 -36L158 -51Q144 -53 144 -65Q142 -69 137 -91Q138 -95 136 -104Q134 -114 138 -120Q139 -130 139 -141Q144 -162 146 -183Q157 -214 161 -248Q168 -278 183 -303Q186 -306 188 -311Q190 -316 196 -315Q203 -299 207 -295Q213 -277 219 -259Q224 -257 232 -260Q241 -263 244 -262Q252 -263 260 -265Q268 -266 274 -259Q275 -246 282 -255Q281 -267 291 -305Q295 -312 294 -317Q292 -323 296 -325Q300 -327 303 -331ZM203 -192Q199 -193 198 -190Q196 -186 195 -183Q192 -165 189 -148Q187 -143 189 -132Q191 -123 189 -118Q181 -108 190 -98Q204 -108 218 -126Q240 -148 255 -187Q244 -190 227 -190Q222 -187 213 -190Q206 -192 203 -192ZM305 -178Q302 -174 304 -165Q306 -157 305 -153Q303 -130 301 -108Q303 -105 302 -97Q301 -89 304 -86Q323 -108 347 -154Q346 -157 348 -161Q351 -168 348 -171Q338 -173 327 -175Q316 -179 305 -178Z"/>
</svg>