<svg xmlns="http://www.w3.org/2000/svg" viewBox="0 -800 1024 1024">
	<path fill="#000000" d="M624 -749Q631 -748 638 -748Q655 -752 660 -736Q667 -730 672 -712Q674 -708 672 -697Q669 -685 674 -679Q672 -664 670 -650Q667 -640 669 -631Q668 -621 664 -598Q659 -593 658 -585Q657 -576 664 -575Q676 -577 683 -576Q684 -572 686 -573Q689 -577 695 -577Q701 -575 708 -574Q715 -572 713 -564Q709 -558 709 -548Q709 -539 700 -536Q695 -538 689 -533Q684 -529 681 -529Q676 -530 671 -526Q664 -521 658 -523Q649 -508 649 -489Q649 -485 644 -479Q639 -474 640 -469Q642 -462 637 -457Q633 -453 629 -449Q629 -442 624 -438Q619 -434 615 -430Q609 -425 618 -425Q628 -428 643 -435Q649 -435 655 -439Q671 -446 731 -466Q744 -470 756 -475Q777 -480 797 -485Q806 -486 815 -482Q821 -483 827 -481Q833 -479 834 -474Q834 -469 834 -463Q836 -457 827 -449Q821 -444 820 -440Q808 -437 796 -434Q791 -435 786 -432Q780 -429 776 -431Q766 -425 744 -419Q737 -416 729 -414Q705 -408 680 -403Q678 -403 675 -400Q671 -396 669 -399Q659 -393 648 -391Q632 -387 618 -381Q605 -376 602 -377Q592 -372 589 -358Q589 -340 588 -338Q589 -331 580 -323Q572 -316 571 -311Q557 -296 548 -282Q538 -262 527 -242Q525 -234 516 -236Q508 -238 506 -245Q500 -251 499 -262Q481 -281 496 -306Q499 -310 520 -328Q532 -340 544 -355Q536 -357 526 -349Q501 -341 476 -333Q461 -333 447 -336Q447 -326 440 -317Q437 -299 423 -272Q424 -268 419 -268Q415 -268 414 -264Q415 -260 413 -252Q410 -249 409 -241Q408 -232 405 -230Q400 -227 394 -224Q388 -221 390 -214Q390 -210 389 -210Q386 -212 383 -209Q384 -206 380 -204Q375 -202 375 -198Q371 -192 370 -186Q370 -184 375 -185Q375 -181 380 -182Q384 -183 385 -181Q381 -176 383 -167Q385 -158 383 -154Q379 -155 376 -150Q373 -146 370 -146Q359 -144 348 -142Q342 -139 334 -142Q332 -135 323 -136Q315 -137 312 -134Q306 -132 299 -131Q275 -127 248 -120Q246 -123 243 -121Q239 -118 237 -122Q230 -117 223 -116Q212 -116 201 -117Q197 -114 187 -116Q179 -118 174 -117Q166 -120 158 -123Q153 -122 150 -128Q147 -134 154 -137Q166 -138 176 -143Q196 -147 216 -151Q218 -147 220 -148Q223 -149 224 -153Q259 -161 293 -170Q295 -172 300 -171Q304 -171 306 -173Q307 -174 310 -174L318 -175Q320 -175 322 -176Q326 -178 331 -179Q336 -180 336 -186Q328 -188 322 -203Q316 -201 310 -206Q305 -210 301 -208Q284 -208 266 -203Q265 -199 260 -200Q256 -201 255 -199Q236 -193 218 -200Q206 -192 192 -206Q176 -206 171 -215Q164 -218 161 -231Q158 -243 155 -246L130 -271Q117 -300 127 -330Q134 -334 136 -341Q138 -348 141 -356Q139 -360 143 -364Q146 -368 146 -371Q143 -383 155 -388Q155 -403 160 -414Q156 -419 159 -424Q161 -429 163 -434Q169 -446 178 -452Q178 -464 188 -466Q191 -469 192 -468Q193 -467 193 -464Q206 -475 221 -510Q223 -515 221 -520Q226 -523 226 -528Q226 -533 228 -538Q229 -544 223 -546Q217 -548 213 -545Q209 -554 195 -564Q187 -568 184 -576Q184 -578 188 -578Q196 -591 201 -605Q210 -613 223 -636Q231 -649 238 -658Q237 -665 242 -668Q245 -670 247 -665Q258 -662 266 -650Q268 -646 276 -627Q274 -625 275 -619Q277 -611 273 -609Q267 -604 271 -601Q277 -598 284 -599Q293 -598 318 -587Q318 -581 322 -575Q326 -568 321 -563Q314 -563 313 -557Q311 -549 305 -552Q303 -546 295 -531Q295 -529 294 -529Q289 -531 288 -527Q283 -526 278 -518Q274 -511 269 -510Q267 -503 257 -494Q247 -486 244 -479Q235 -461 225 -452Q225 -450 224 -450Q222 -451 219 -449Q215 -449 216 -444Q216 -440 221 -440Q234 -447 246 -450Q249 -454 257 -455Q265 -456 267 -460Q287 -462 303 -469Q318 -473 333 -477Q341 -478 348 -480Q363 -482 378 -484Q387 -484 392 -483Q404 -481 432 -472Q443 -461 452 -449Q458 -446 459 -439Q460 -432 462 -426L453 -369Q453 -366 453 -363Q458 -369 460 -370Q461 -370 461 -367Q466 -366 474 -370Q481 -373 484 -373Q494 -380 514 -385Q533 -390 540 -394Q569 -410 587 -414Q606 -418 599 -427Q590 -455 594 -500Q593 -506 572 -506Q565 -510 550 -509Q541 -508 534 -510Q531 -511 531 -512Q530 -513 531 -514Q535 -516 540 -516Q568 -528 595 -541Q605 -548 601 -572Q603 -577 603 -588V-598Q603 -604 605 -614Q609 -653 613 -692Q613 -695 613 -699V-714Q613 -717 613 -721Q614 -728 609 -732Q608 -733 598 -737Q593 -742 594 -746Q594 -745 595 -745Q599 -747 609 -746Q619 -745 624 -749ZM349 -447Q346 -442 328 -439Q321 -434 309 -439Q302 -429 288 -435Q283 -429 274 -427Q268 -425 272 -423Q279 -419 279 -416Q285 -402 283 -393Q288 -388 288 -370Q283 -365 285 -357Q281 -354 281 -348Q281 -345 285 -346Q297 -346 301 -345Q304 -345 307 -341Q310 -335 314 -337Q317 -336 316 -328Q315 -321 321 -321Q327 -314 317 -313Q317 -308 312 -308Q306 -308 303 -311Q291 -303 284 -302Q280 -300 279 -289Q278 -280 277 -278Q274 -268 279 -252Q277 -247 281 -245Q285 -242 289 -246Q293 -247 332 -247Q336 -247 336 -246Q337 -244 336 -242Q333 -237 338 -235Q352 -248 361 -264Q369 -279 378 -294Q384 -311 390 -329Q395 -337 398 -353Q401 -369 404 -374Q405 -389 406 -405Q407 -421 399 -435Q380 -451 360 -446Q353 -444 349 -447ZM217 -433Q214 -429 210 -422Q208 -401 202 -392Q202 -390 201 -388L199 -381Q199 -379 198 -377Q195 -372 195 -360Q195 -348 191 -344Q187 -337 188 -333Q192 -338 195 -334Q198 -331 202 -328Q210 -326 216 -331Q222 -336 229 -339Q235 -342 241 -340Q248 -346 249 -355Q249 -365 251 -374Q260 -406 253 -418Q257 -425 251 -427Q245 -429 240 -432Q229 -432 217 -433ZM786 -381Q790 -381 797 -379Q810 -378 828 -369Q834 -366 829 -360Q824 -355 823 -349Q822 -342 812 -344Q805 -346 802 -344Q789 -344 775 -345Q763 -349 750 -348Q732 -350 719 -356Q703 -363 698 -367Q718 -367 734 -371Q743 -370 758 -375Q770 -379 774 -379Q777 -376 786 -381ZM624 -307Q629 -307 632 -302Q646 -297 659 -293Q670 -292 678 -289Q684 -289 684 -284Q684 -280 685 -275Q687 -272 683 -267Q677 -259 680 -254Q694 -260 708 -266Q721 -268 733 -270Q739 -270 745 -270L754 -271Q760 -271 766 -271Q772 -269 789 -259Q795 -257 796 -248Q797 -242 799 -240Q802 -231 802 -209Q800 -204 799 -198Q799 -192 793 -189Q789 -176 784 -164Q780 -156 768 -145Q768 -140 763 -133Q759 -127 758 -125Q743 -101 735 -97Q731 -94 733 -92Q736 -91 740 -90Q787 -86 832 -74Q842 -70 852 -67Q863 -69 888 -60Q892 -56 899 -54Q906 -52 909 -50Q922 -45 934 -40Q938 -38 940 -33Q941 -32 943 -35Q949 -26 957 -24Q963 -21 964 -15Q965 -9 959 -6Q957 10 942 9Q928 11 904 -1Q897 -2 890 -4Q864 -11 838 -18Q819 -23 800 -29Q746 -46 688 -55Q682 -49 677 -45Q671 -42 669 -36Q664 -34 658 -29Q649 -21 644 -22Q637 -24 627 -21Q617 -18 613 -19Q598 -10 590 -15Q579 -13 575 -18Q582 -23 589 -25Q607 -31 631 -61Q634 -64 633 -65Q629 -67 622 -69Q606 -67 591 -73Q584 -76 558 -78Q544 -81 546 -84Q573 -84 594 -91Q612 -95 628 -96Q634 -98 647 -97Q661 -96 667 -97Q694 -127 695 -129Q701 -133 707 -143Q712 -152 717 -155Q725 -174 733 -193Q735 -205 740 -217Q744 -230 738 -242Q728 -244 711 -236Q707 -231 698 -233Q688 -235 677 -238Q671 -244 665 -238Q664 -237 656 -226Q643 -206 630 -187Q624 -182 618 -171Q613 -161 609 -157Q607 -153 599 -148Q593 -144 591 -139Q583 -133 572 -120Q557 -102 547 -97Q537 -77 516 -80Q506 -85 497 -86Q495 -99 504 -110Q512 -121 520 -131Q538 -152 554 -175Q569 -195 584 -216Q591 -227 598 -239Q606 -252 614 -266Q620 -276 625 -289Q628 -291 624 -297Q620 -304 624 -307ZM168 -281L167 -279Q161 -272 168 -268Q174 -264 177 -261Q180 -257 178 -250Q176 -243 177 -241Q180 -239 179 -232Q178 -227 180 -224Q180 -217 191 -216Q196 -216 208 -217Q216 -214 219 -222Q222 -228 221 -237Q223 -239 221 -244Q219 -250 222 -253Q222 -265 221 -278Q207 -277 192 -277Q187 -274 179 -279Q172 -283 168 -281Z"/>
</svg>