<svg xmlns="http://www.w3.org/2000/svg" viewBox="0 -800 1024 1024">
	<path fill="#000000" d="M695 -656Q723 -657 741 -653Q764 -648 777 -633Q799 -598 805 -585Q817 -557 814 -531Q819 -522 818 -504Q817 -489 819 -482Q815 -466 817 -437Q819 -405 815 -392Q818 -384 819 -366Q820 -346 824 -338Q819 -326 822 -304Q825 -285 824 -278Q826 -271 823 -258Q820 -244 824 -237Q821 -231 825 -215Q829 -197 823 -188Q821 -183 824 -157Q821 -149 822 -134Q823 -120 821 -114Q823 -105 819 -84Q815 -68 817 -59Q813 -32 797 -11Q793 3 784 13Q775 24 768 36Q760 39 751 35Q742 31 734 27L716 5Q713 2 706 -3Q695 -10 692 -16Q690 -22 678 -26Q666 -29 663 -33Q648 -41 662 -34Q685 -31 707 -29Q721 -29 733 -35Q745 -73 743 -97Q745 -140 747 -184Q748 -193 748 -203Q749 -223 751 -244Q754 -266 751 -286Q751 -327 751 -369Q750 -406 752 -441V-488Q753 -517 752 -546Q750 -576 733 -598Q726 -612 707 -612Q692 -612 681 -603Q624 -592 572 -571Q560 -544 532 -550Q512 -554 488 -564Q476 -570 473 -578Q474 -578 477 -577Q496 -582 513 -590Q532 -596 561 -610Q603 -630 624 -635Q658 -648 695 -656ZM300 -633Q316 -633 322 -630Q382 -625 411 -573Q402 -566 395 -556Q387 -546 375 -546Q362 -551 348 -557Q335 -563 323 -577Q317 -585 302 -597Q281 -614 275 -626Q271 -630 272 -631Q285 -630 300 -633ZM182 -498L194 -492Q193 -488 196 -481Q200 -472 196 -468Q196 -430 196 -392Q193 -374 193 -340Q187 -324 189 -286Q185 -277 185 -237Q186 -216 183 -195Q185 -147 190 -124Q189 -117 192 -106Q197 -89 190 -81Q189 -70 184 -63Q177 -54 166 -56Q129 -84 136 -121Q123 -141 126 -163Q130 -186 130 -210L137 -273Q142 -304 146 -335Q150 -386 156 -434Q158 -452 166 -467Q175 -483 182 -498ZM508 -466Q530 -462 538 -454Q543 -445 552 -444Q554 -444 571 -445Q599 -447 608 -420Q598 -391 580 -392Q570 -393 567 -388Q565 -384 565 -377Q569 -362 565 -351Q571 -334 567 -304Q563 -275 567 -263Q564 -242 564 -220Q563 -199 554 -181Q553 -165 540 -147L532 -134Q530 -131 528 -128Q524 -125 519 -125Q511 -125 500 -138Q487 -153 477 -154Q474 -158 463 -164Q450 -171 447 -177Q472 -171 495 -184Q509 -227 509 -281Q510 -290 508 -300Q506 -304 501 -300Q499 -291 493 -286Q486 -281 479 -277Q470 -259 451 -258Q414 -232 376 -207Q373 -207 365 -201Q356 -194 352 -194Q349 -194 346 -198Q370 -218 417 -277Q464 -336 477 -364Q469 -366 459 -362Q449 -358 440 -356Q416 -345 391 -348Q367 -350 342 -348Q329 -352 323 -355Q323 -356 328 -356Q351 -367 500 -427Q505 -439 495 -443Q486 -447 481 -454Q484 -462 493 -463Q501 -464 508 -466Z"/>
</svg>