<svg xmlns="http://www.w3.org/2000/svg" viewBox="0 -800 1024 1024">
	<path fill="#000000" d="M640 -707L667 -706Q673 -707 675 -701Q677 -696 680 -694Q685 -692 683 -689Q680 -685 679 -683Q677 -683 674 -676Q672 -670 666 -671Q652 -668 637 -665Q630 -667 627 -662Q623 -657 631 -653Q638 -650 640 -641Q642 -633 643 -625Q639 -613 640 -603Q643 -587 641 -573Q641 -563 641 -554Q643 -552 641 -545Q638 -536 645 -533Q668 -538 691 -544Q729 -554 772 -560Q827 -562 849 -555Q858 -551 867 -548Q876 -541 888 -537Q887 -533 895 -518Q900 -516 899 -513Q895 -509 896 -504Q897 -500 895 -499Q893 -498 890 -495Q890 -488 882 -485Q874 -481 874 -478Q869 -478 863 -471Q858 -465 853 -464Q844 -459 835 -455Q830 -456 824 -449Q820 -444 816 -446Q802 -439 787 -438Q778 -438 772 -433Q767 -432 764 -435Q763 -436 766 -438L826 -492Q829 -498 834 -504Q838 -510 835 -516Q824 -524 812 -520Q802 -519 770 -514Q755 -512 740 -511Q735 -507 738 -503Q741 -499 742 -495Q739 -470 726 -447Q726 -445 716 -426Q716 -423 710 -418Q703 -412 705 -406Q704 -400 711 -398Q717 -396 722 -399Q724 -398 753 -393Q754 -391 763 -387Q769 -384 768 -380Q767 -372 760 -370Q752 -368 746 -366Q739 -369 731 -367Q727 -365 722 -368Q718 -370 716 -369Q712 -364 699 -358Q687 -352 681 -345Q676 -344 670 -338Q657 -328 644 -322Q642 -320 641 -320Q640 -321 647 -327L678 -358Q683 -364 689 -372Q695 -379 687 -386Q668 -404 670 -421Q670 -432 672 -441Q679 -465 686 -489Q684 -494 680 -493Q676 -491 671 -491Q665 -486 644 -477Q640 -473 635 -453Q636 -439 633 -426Q631 -422 633 -414Q635 -406 631 -401Q632 -395 632 -377Q632 -365 627 -354Q626 -341 624 -328Q622 -321 619 -315Q615 -310 613 -312Q610 -315 607 -319Q602 -315 598 -327Q594 -334 593 -337Q593 -336 592 -335Q582 -343 581 -352Q584 -384 587 -416Q592 -429 590 -439Q589 -444 586 -443Q582 -441 581 -438Q558 -417 559 -400Q555 -388 551 -377Q548 -375 547 -369Q547 -364 543 -365Q534 -369 532 -378Q529 -386 526 -395Q526 -397 523 -401Q519 -406 520 -411Q518 -418 522 -422Q526 -427 530 -431Q530 -436 538 -444Q547 -453 546 -458Q529 -454 509 -440Q501 -436 475 -415Q465 -407 461 -408Q458 -407 453 -410Q446 -414 443 -408Q437 -418 429 -419Q428 -424 421 -429Q413 -434 413 -438Q401 -446 402 -461Q403 -475 413 -485Q421 -494 428 -509Q437 -528 443 -534Q449 -535 459 -549Q469 -553 483 -567Q487 -552 483 -547Q477 -539 478 -518Q478 -505 476 -498Q476 -493 470 -483Q463 -473 466 -465L481 -470Q507 -487 536 -496Q551 -500 565 -505Q572 -510 598 -516Q600 -538 601 -561Q602 -597 602 -634Q602 -643 602 -653Q594 -659 582 -657Q580 -664 566 -666Q551 -669 534 -675Q531 -675 531 -676Q536 -678 546 -683Q576 -691 606 -700Q623 -703 640 -707ZM207 -683Q227 -674 244 -656Q249 -647 249 -633Q253 -625 252 -612Q247 -602 246 -590Q241 -578 236 -567Q235 -563 233 -559Q230 -554 235 -551Q251 -556 266 -561Q270 -561 278 -566Q287 -571 294 -570Q307 -573 320 -567Q335 -573 348 -567Q352 -569 358 -567Q363 -565 362 -559Q357 -550 365 -542Q367 -536 362 -532Q357 -528 353 -525Q341 -526 334 -522Q327 -520 313 -514Q293 -499 289 -490Q276 -480 262 -470Q252 -463 241 -457Q220 -443 235 -422Q240 -419 244 -419Q254 -420 263 -422Q278 -424 294 -422Q303 -425 313 -420Q319 -419 319 -413Q319 -411 316 -401Q314 -394 303 -389Q294 -385 291 -381Q286 -375 280 -377Q274 -379 269 -380Q258 -383 256 -371Q258 -361 260 -355Q257 -341 269 -337Q275 -336 283 -344Q289 -350 293 -350Q301 -345 315 -349Q322 -345 330 -347Q341 -351 349 -339Q355 -336 352 -331Q349 -326 344 -325Q341 -321 338 -315Q335 -310 329 -310Q314 -306 300 -300Q282 -293 263 -286Q257 -281 256 -266Q255 -253 253 -249Q251 -225 249 -201Q241 -191 247 -180Q245 -175 245 -156Q247 -151 249 -125Q247 -120 248 -113Q249 -106 255 -108Q279 -133 303 -159Q317 -178 330 -197Q330 -206 336 -211Q341 -205 335 -196Q328 -185 326 -171Q323 -168 324 -160Q324 -153 321 -150Q314 -149 315 -140Q316 -132 312 -130L296 -103Q286 -90 279 -75Q273 -77 269 -73Q265 -69 267 -63Q254 -50 248 -50Q224 -63 223 -64Q206 -79 203 -84Q193 -97 196 -110Q198 -115 195 -123Q193 -129 194 -133Q197 -158 199 -184Q201 -202 203 -221Q205 -238 206 -256Q208 -264 200 -266Q189 -263 178 -261Q174 -261 166 -259L142 -256Q136 -255 130 -254Q109 -247 90 -256Q87 -259 77 -262Q69 -265 65 -269Q85 -275 107 -278Q112 -281 124 -283Q139 -286 154 -290Q163 -294 175 -296Q197 -303 217 -315Q218 -336 219 -358Q219 -373 218 -377Q215 -387 206 -387Q199 -386 198 -392Q196 -398 198 -402Q201 -414 198 -425Q195 -435 201 -443Q207 -450 214 -457Q223 -471 235 -479Q246 -485 254 -493Q263 -502 273 -511Q276 -519 266 -521Q231 -519 225 -519Q219 -518 211 -522Q205 -525 203 -525Q199 -525 196 -520Q186 -513 177 -505Q165 -514 170 -528Q180 -581 201 -636Q203 -647 205 -659Q197 -673 207 -683ZM580 -471Q567 -466 556 -460Q555 -455 554 -448Q553 -441 559 -437Q585 -456 593 -464Q595 -470 589 -472Q583 -474 580 -471ZM800 -306Q805 -305 810 -304Q820 -307 839 -301Q859 -298 874 -283Q882 -272 889 -258Q889 -257 894 -245Q893 -234 892 -223Q893 -216 893 -178Q893 -163 892 -149Q893 -143 888 -134Q884 -125 884 -120Q880 -103 872 -87Q865 -79 865 -68Q858 -55 850 -42Q830 -20 807 1Q803 1 798 4Q790 8 786 5Q779 1 772 -5Q766 -10 758 -10Q744 -10 732 -6Q718 -7 706 -6Q658 -6 612 -3Q605 -3 597 -3Q585 -7 574 -9Q561 -8 551 -14Q541 -20 531 -26L519 -42Q515 -49 510 -57Q502 -68 496 -98Q498 -126 503 -151Q508 -176 528 -215Q537 -231 547 -246Q545 -254 552 -256Q558 -258 563 -252Q579 -255 595 -259Q611 -262 627 -266Q646 -270 665 -275Q674 -279 686 -279Q690 -283 697 -283Q705 -284 712 -288Q735 -296 758 -300Q768 -299 780 -302Q783 -304 800 -306ZM811 -263Q804 -263 804 -262Q781 -259 760 -253Q757 -253 749 -251L727 -247Q722 -246 716 -245Q706 -242 696 -240Q688 -241 688 -233Q688 -225 694 -221Q703 -214 698 -202Q698 -192 698 -182Q697 -177 696 -171Q695 -165 702 -163Q713 -166 726 -161Q734 -165 743 -159Q752 -153 752 -144Q753 -137 748 -134Q743 -130 738 -127Q721 -126 706 -123Q691 -127 684 -114Q683 -108 679 -102Q675 -97 680 -90Q683 -86 679 -78Q675 -71 676 -66Q677 -64 675 -57Q672 -48 678 -44Q684 -44 694 -46Q712 -47 729 -48Q747 -52 767 -48Q777 -44 787 -56Q788 -61 794 -67Q800 -74 801 -76Q814 -98 817 -105Q819 -117 827 -127Q829 -149 836 -169Q842 -203 836 -235Q838 -260 821 -263Q816 -263 811 -263ZM599 -225Q590 -225 581 -212Q574 -198 566 -185Q556 -160 551 -133Q545 -105 550 -75Q547 -69 555 -61Q561 -55 562 -52Q572 -41 584 -34Q612 -36 626 -39Q632 -38 636 -43Q639 -47 637 -53Q636 -61 639 -72Q642 -84 642 -89Q639 -101 646 -112Q646 -123 638 -123Q630 -123 618 -127Q600 -132 591 -131Q583 -130 587 -133Q596 -137 605 -141Q613 -142 620 -144L635 -149Q649 -149 654 -162Q654 -183 654 -204Q652 -210 651 -217Q651 -223 645 -226Q623 -223 621 -221Q616 -218 609 -223Q602 -227 599 -225Z"/>
</svg>