<svg xmlns="http://www.w3.org/2000/svg" viewBox="0 -800 1024 1024">
	<path fill="#000000" d="M564 -720H567Q577 -716 583 -715Q597 -713 610 -703Q624 -695 625 -684Q635 -674 625 -657Q621 -645 619 -633Q608 -626 608 -611Q599 -601 589 -591Q583 -588 585 -583Q587 -579 592 -576Q597 -570 603 -573Q610 -577 616 -579Q637 -587 657 -595Q681 -603 696 -603Q706 -601 715 -600Q735 -602 756 -577Q763 -563 765 -545Q771 -536 766 -522Q765 -507 763 -493Q765 -486 763 -471Q762 -457 761 -443Q757 -427 753 -411Q749 -405 747 -384Q743 -371 739 -359Q740 -354 732 -331Q731 -328 725 -324Q718 -319 719 -313Q727 -313 735 -313Q748 -312 761 -320Q769 -319 799 -324Q800 -324 819 -327Q840 -329 859 -324Q877 -322 886 -318Q895 -316 902 -308Q909 -301 918 -295Q927 -282 935 -270Q940 -268 939 -260Q938 -254 940 -251Q948 -243 942 -235Q942 -231 944 -224Q947 -214 945 -208Q944 -192 942 -176Q937 -169 935 -151Q930 -137 925 -124Q916 -118 915 -108Q916 -101 911 -90Q906 -79 906 -75Q897 -64 882 -27Q872 -20 859 4Q847 12 846 19Q838 30 828 38Q823 39 818 47Q815 53 811 55Q805 55 796 61Q788 67 783 67Q780 67 776 73Q770 80 766 76Q758 72 752 58Q747 48 743 44Q737 40 734 32Q732 25 729 23Q724 20 720 16Q719 14 722 13Q731 13 742 15Q756 10 772 9Q787 8 799 -13Q807 -20 818 -40Q826 -55 836 -68Q850 -103 855 -113Q860 -127 864 -141Q867 -144 865 -151Q863 -157 865 -160Q874 -172 876 -185Q877 -201 877 -214Q874 -237 868 -258Q856 -276 829 -276Q815 -276 802 -271Q784 -273 752 -263Q738 -259 722 -258Q713 -260 700 -251Q689 -245 677 -248Q662 -246 647 -245Q637 -238 629 -243Q619 -240 599 -242Q594 -245 590 -241Q586 -237 582 -236Q575 -242 574 -250Q562 -255 551 -258Q549 -264 554 -268Q558 -273 560 -277Q554 -292 538 -299Q528 -312 531 -327Q534 -341 537 -355Q536 -365 540 -379Q544 -386 542 -403Q535 -410 543 -416Q546 -420 547 -432Q547 -441 550 -445Q551 -460 557 -481Q563 -501 564 -508Q567 -517 567 -537Q569 -545 567 -551Q564 -558 560 -566Q552 -576 551 -581Q551 -587 546 -596Q541 -605 543 -610Q545 -612 547 -620Q548 -625 551 -628Q556 -646 563 -661Q573 -679 570 -698Q570 -702 565 -708Q559 -715 564 -720ZM604 -432Q608 -431 615 -434Q622 -437 626 -436Q630 -434 638 -435Q649 -437 650 -431Q661 -433 669 -423Q683 -412 676 -404Q677 -396 666 -390Q667 -385 662 -381Q658 -377 654 -381Q652 -375 645 -382Q626 -387 612 -398Q603 -405 593 -412Q588 -396 592 -367Q590 -354 591 -339Q590 -335 586 -330Q583 -326 587 -321Q589 -318 587 -311Q585 -305 586 -301Q588 -296 580 -285Q576 -283 578 -280Q581 -277 585 -278L619 -283Q625 -286 653 -293Q658 -294 669 -297Q680 -300 680 -306Q674 -311 672 -314Q670 -317 670 -324Q672 -338 679 -350Q680 -352 692 -379Q694 -389 696 -399Q694 -414 699 -436Q703 -457 703 -466Q709 -492 707 -519Q705 -533 703 -548Q704 -553 700 -557Q695 -562 691 -558Q681 -558 680 -557Q674 -558 670 -554Q666 -550 661 -548Q644 -556 624 -558Q610 -560 605 -553Q595 -544 603 -522Q603 -508 602 -495Q603 -490 600 -482Q596 -471 600 -465Q600 -463 597 -433Q598 -433 599 -433L602 -432Q603 -432 604 -432ZM162 -538H165Q173 -534 186 -538Q207 -535 227 -533Q231 -524 234 -516Q236 -511 230 -510Q225 -509 221 -506Q216 -501 210 -504Q204 -507 199 -509Q185 -518 170 -527Q159 -532 162 -538ZM431 -501Q436 -501 438 -497Q441 -493 444 -490Q453 -483 446 -474Q443 -468 430 -462Q418 -456 414 -449Q411 -416 401 -384Q397 -377 394 -361Q391 -347 388 -340Q390 -331 376 -315Q372 -311 364 -305Q373 -303 381 -308Q389 -314 397 -318Q415 -321 432 -331Q466 -353 500 -375Q515 -388 529 -402Q533 -401 532 -398Q529 -392 526 -388Q523 -383 515 -376Q502 -364 500 -357Q487 -343 474 -330Q461 -318 442 -308Q436 -303 426 -299Q409 -292 404 -285Q394 -284 388 -278Q381 -271 374 -265Q370 -262 362 -262Q353 -262 350 -259Q336 -255 320 -267Q308 -272 308 -291Q306 -296 310 -307Q313 -316 311 -321Q308 -326 312 -330Q316 -333 321 -330Q334 -331 338 -342Q342 -354 347 -363Q347 -404 354 -426Q355 -433 356 -441Q353 -448 347 -448Q340 -449 335 -451Q323 -457 311 -459Q307 -461 301 -460Q293 -459 291 -461Q293 -467 304 -469Q313 -474 322 -479Q328 -476 343 -483Q360 -493 382 -496Q390 -501 403 -498Q417 -499 431 -501ZM189 -462Q191 -459 191 -445Q185 -434 184 -420Q188 -408 192 -397Q195 -386 189 -377Q183 -368 180 -359Q180 -352 177 -342Q172 -327 174 -318Q173 -317 171 -302Q172 -298 170 -289Q168 -282 169 -277Q169 -255 171 -232Q172 -219 172 -207Q171 -194 178 -182Q181 -173 183 -165Q183 -160 188 -161Q191 -162 195 -166Q225 -187 239 -207Q254 -224 266 -243Q273 -259 279 -275Q281 -282 282 -290Q282 -297 287 -303Q290 -299 289 -288Q289 -278 283 -261Q277 -242 277 -231Q276 -210 269 -190Q265 -176 261 -162Q258 -158 256 -150Q253 -138 249 -134Q242 -132 240 -115Q235 -107 226 -107Q217 -107 210 -106L184 -113Q166 -124 150 -140Q143 -141 140 -152Q137 -162 132 -163Q122 -169 120 -179Q119 -190 117 -199Q113 -214 112 -218Q111 -238 112 -255Q114 -283 115 -312Q116 -305 117 -299Q117 -296 119 -296Q121 -297 121 -300Q118 -318 120 -334Q129 -377 152 -413Q156 -430 178 -445Q181 -447 183 -454Q185 -461 189 -462ZM700 -177Q701 -177 713 -175Q719 -176 725 -175Q732 -173 731 -166Q721 -154 719 -146Q710 -138 701 -131Q693 -134 683 -128Q667 -127 652 -125Q648 -124 640 -124Q627 -125 623 -121L603 -120Q598 -118 587 -117Q575 -116 570 -113Q543 -112 519 -105Q507 -105 494 -105Q484 -106 473 -107Q463 -106 447 -113Q434 -115 421 -118Q415 -122 416 -127Q417 -131 423 -134Q426 -135 451 -135Q466 -135 479 -138Q507 -143 535 -149Q551 -150 566 -151Q580 -157 597 -156Q602 -160 622 -162Q630 -166 640 -166Q653 -170 666 -174Q683 -171 700 -177Z"/>
</svg>