<svg xmlns="http://www.w3.org/2000/svg" viewBox="0 -800 1024 1024">
	<path fill="#000000" d="M237 -685L256 -674Q282 -665 283 -650Q288 -646 285 -643Q276 -638 281 -631Q285 -635 293 -632Q300 -630 303 -631Q311 -630 321 -632Q331 -633 335 -625Q347 -617 340 -600Q337 -599 337 -593Q337 -588 336 -587Q333 -585 330 -577Q328 -570 324 -567Q320 -567 318 -561Q315 -553 310 -554Q300 -542 287 -530Q284 -535 281 -532Q278 -530 279 -525Q268 -510 254 -499Q248 -499 246 -496Q243 -493 240 -490Q239 -484 233 -484Q227 -484 227 -480Q219 -474 211 -469Q205 -464 198 -460Q190 -456 187 -449Q192 -438 193 -428Q199 -427 209 -434Q217 -440 220 -440Q264 -470 330 -477Q352 -477 373 -477Q381 -473 389 -476Q395 -475 400 -474Q410 -468 420 -463Q427 -451 437 -439Q443 -419 443 -397Q443 -393 443 -387Q443 -382 438 -380Q437 -367 436 -354Q433 -352 433 -346Q433 -340 432 -338Q428 -325 424 -313Q428 -306 423 -297Q417 -293 415 -285Q413 -279 412 -277Q408 -268 403 -259Q402 -255 398 -242Q389 -223 378 -215Q368 -214 363 -206Q357 -199 350 -192Q346 -190 347 -186Q348 -182 352 -181Q348 -169 343 -164Q343 -161 341 -160Q338 -160 335 -160Q332 -154 324 -153Q318 -152 316 -150Q314 -152 311 -150Q307 -147 306 -147Q285 -135 261 -129L239 -117Q227 -114 215 -111Q208 -106 186 -106Q168 -101 154 -110Q147 -110 123 -118Q120 -122 121 -123Q124 -123 128 -120Q135 -129 211 -153Q279 -175 301 -179Q307 -181 315 -181Q324 -181 325 -191Q322 -196 316 -200Q310 -204 312 -213Q299 -222 288 -215Q277 -212 264 -212Q257 -207 249 -206Q237 -205 227 -202Q205 -200 185 -200Q179 -204 167 -201Q155 -198 151 -201Q147 -201 130 -213Q113 -226 96 -239Q92 -250 87 -262Q80 -280 80 -301Q80 -316 88 -327Q88 -352 109 -403L125 -428Q145 -463 180 -476Q194 -480 205 -491Q215 -503 224 -515Q225 -520 231 -524Q238 -529 237 -535Q246 -546 249 -558Q261 -574 264 -586Q266 -590 267 -595Q266 -597 264 -596Q259 -594 253 -592Q247 -591 244 -584Q242 -579 239 -581Q234 -585 229 -585Q231 -580 226 -579Q222 -578 220 -583Q221 -587 216 -590Q212 -593 210 -595Q206 -601 199 -607Q192 -613 189 -621Q191 -633 202 -649Q209 -659 220 -673Q221 -679 229 -681Q235 -683 237 -685ZM780 -630Q792 -632 806 -627Q810 -628 824 -622Q834 -622 841 -615Q848 -609 856 -602Q864 -599 870 -584Q875 -572 880 -567Q881 -559 887 -547Q895 -533 895 -525Q899 -520 903 -514Q906 -508 904 -501Q903 -496 900 -490Q898 -485 902 -480Q905 -463 908 -446Q910 -439 906 -424Q904 -413 910 -403Q913 -391 910 -377Q912 -374 910 -369Q907 -363 908 -360Q909 -348 910 -337Q909 -332 911 -324Q914 -316 912 -311Q909 -305 911 -282Q914 -270 916 -258Q917 -254 914 -248Q911 -241 911 -237Q912 -227 912 -218Q913 -204 916 -192Q913 -189 913 -179Q913 -171 911 -167Q910 -152 909 -137Q909 -136 906 -106Q904 -101 899 -77Q897 -71 895 -64Q894 -57 888 -55Q880 -54 880 -40Q877 -33 870 -36Q864 -39 860 -41Q828 -65 828 -91Q822 -100 810 -95Q801 -99 794 -92Q777 -96 769 -93Q744 -93 719 -93Q702 -93 674 -95Q656 -94 640 -91Q617 -92 594 -93Q582 -95 570 -97Q556 -99 545 -104Q504 -120 486 -133Q461 -152 447 -185Q444 -190 444 -210Q451 -257 454 -269Q457 -285 459 -301Q461 -310 463 -319Q463 -330 468 -338Q470 -360 472 -373Q476 -408 480 -443Q482 -452 483 -461Q481 -495 490 -519Q494 -543 505 -561Q507 -568 514 -567Q521 -566 523 -559Q523 -551 528 -542Q529 -532 526 -520Q521 -516 522 -510Q522 -504 521 -498Q515 -489 517 -476Q519 -464 518 -455Q520 -450 517 -437Q514 -423 517 -414Q516 -403 519 -390Q514 -369 515 -362Q515 -353 515 -345Q514 -339 512 -325L511 -304Q510 -281 509 -259Q510 -255 505 -241Q506 -233 507 -226Q505 -209 505 -194Q508 -191 508 -182Q508 -175 511 -171Q519 -164 522 -153Q525 -142 544 -134Q548 -135 555 -130Q563 -125 569 -127Q588 -126 606 -126Q623 -127 640 -129Q653 -127 665 -129Q679 -130 692 -132Q697 -134 710 -133Q724 -132 731 -136Q743 -133 757 -134Q761 -137 766 -133Q770 -129 775 -128Q787 -128 798 -129Q808 -125 823 -123Q829 -122 829 -116Q829 -109 829 -103Q828 -98 832 -96Q836 -94 840 -98Q853 -104 856 -116Q858 -162 865 -206Q866 -223 867 -240Q866 -281 864 -323Q864 -337 863 -351Q864 -379 864 -408Q864 -415 864 -423Q862 -451 862 -454Q862 -464 862 -474Q862 -487 852 -530Q847 -545 843 -559Q839 -573 828 -584Q824 -590 811 -593Q790 -596 773 -593Q762 -589 750 -589Q741 -586 732 -583Q716 -582 702 -575Q691 -575 682 -571Q671 -566 659 -562Q643 -549 625 -543Q613 -547 600 -551Q575 -553 560 -561Q552 -561 551 -566Q569 -572 579 -575Q603 -586 608 -586Q649 -602 650 -602Q663 -607 698 -616Q716 -617 733 -622Q744 -625 757 -625Q763 -628 780 -630ZM656 -475Q668 -474 678 -465Q683 -467 687 -457Q691 -454 699 -456Q707 -458 710 -457Q714 -460 718 -457Q722 -454 727 -453Q734 -452 733 -445Q732 -439 732 -432Q729 -431 725 -424Q721 -418 717 -416Q704 -415 693 -410Q674 -400 668 -380Q669 -376 665 -369Q660 -360 665 -355Q670 -356 682 -360Q710 -368 727 -367Q734 -374 746 -365Q756 -361 766 -358Q772 -359 773 -354Q774 -349 776 -344Q784 -340 785 -329Q776 -323 779 -311Q771 -307 768 -295Q763 -293 759 -285Q756 -278 754 -276Q742 -279 736 -272Q732 -269 726 -267Q720 -265 718 -259Q717 -254 723 -252Q731 -250 732 -248Q735 -241 734 -235Q733 -226 726 -225Q718 -222 710 -220Q684 -223 652 -221Q644 -224 638 -224Q634 -225 630 -220Q626 -215 623 -215Q609 -225 605 -231Q590 -243 582 -268Q578 -283 587 -310Q591 -321 617 -361Q620 -377 624 -391Q613 -394 601 -395Q587 -395 578 -398Q575 -400 566 -400Q559 -400 556 -402Q566 -409 574 -410Q602 -424 629 -438Q639 -444 633 -453Q623 -461 629 -469Q642 -472 656 -475ZM350 -444Q343 -444 340 -441Q320 -437 301 -431Q293 -431 281 -423Q270 -415 263 -417Q260 -414 246 -406Q244 -406 244 -405Q247 -404 252 -398Q254 -395 274 -386Q280 -385 279 -378Q278 -371 277 -365Q274 -359 274 -352Q274 -344 280 -343Q299 -347 305 -330Q307 -325 303 -322Q301 -320 294 -317Q293 -310 282 -308Q266 -307 264 -277Q266 -271 263 -263Q260 -253 263 -249L291 -252Q299 -254 305 -248Q314 -244 322 -243Q336 -260 349 -280Q374 -329 380 -386Q384 -410 378 -431Q370 -447 350 -444ZM186 -414L185 -413Q176 -401 171 -386Q170 -376 164 -362Q158 -348 157 -345Q155 -339 154 -337L150 -319Q149 -317 147 -311Q151 -290 148 -266Q149 -265 154 -250Q154 -241 165 -236Q178 -230 181 -227Q214 -234 222 -237Q227 -239 226 -241Q224 -244 222 -248Q218 -274 226 -291Q228 -299 215 -296Q203 -296 192 -301Q174 -304 164 -317Q160 -324 170 -320Q202 -324 231 -334Q240 -358 234 -383Q237 -389 230 -395Q225 -400 226 -403Q231 -402 231 -404Q231 -409 222 -409Q212 -410 201 -411Q193 -412 186 -414ZM718 -330L712 -327Q694 -322 676 -318Q664 -314 652 -310Q638 -315 634 -311Q624 -309 620 -291Q621 -280 620 -267Q621 -259 621 -251Q621 -246 626 -242Q631 -239 635 -240Q646 -246 665 -248Q666 -248 673 -251L682 -252Q692 -251 699 -258Q719 -292 725 -318Q729 -322 726 -328Q723 -334 718 -330Z"/>
</svg>