<svg xmlns="http://www.w3.org/2000/svg" viewBox="0 -800 1024 1024">
	<path fill="#000000" d="M592 -746H600Q603 -745 612 -746Q624 -747 630 -743Q642 -739 640 -723Q646 -716 641 -708Q635 -700 634 -692Q627 -676 619 -661Q612 -658 615 -652Q618 -646 625 -648Q650 -649 671 -643Q690 -631 699 -611Q703 -595 707 -579Q709 -571 705 -564Q700 -557 698 -550Q688 -539 670 -511Q669 -506 665 -504Q660 -502 656 -499Q650 -491 644 -483Q641 -477 634 -473Q627 -469 632 -461Q642 -459 651 -458Q667 -455 683 -452Q694 -447 703 -444Q708 -443 708 -437Q707 -431 708 -425Q708 -419 704 -419Q699 -418 695 -417Q689 -412 679 -417Q672 -414 662 -417Q657 -420 643 -421Q632 -422 627 -425Q611 -428 594 -432Q587 -432 581 -426Q575 -422 568 -419Q561 -417 556 -410Q551 -410 536 -400Q526 -405 521 -396Q510 -393 500 -385Q497 -384 493 -383Q489 -382 489 -386Q506 -420 548 -444Q554 -451 547 -459Q545 -461 534 -469Q519 -479 508 -489Q508 -496 522 -494Q523 -493 545 -488Q548 -487 559 -486Q573 -485 579 -480Q589 -478 592 -491Q602 -500 611 -509Q620 -526 631 -540Q640 -566 644 -573Q652 -589 647 -604Q642 -614 633 -613Q623 -611 615 -613Q608 -616 604 -610Q599 -605 595 -599Q590 -595 587 -600Q585 -606 582 -610Q572 -616 561 -636Q549 -649 561 -680Q560 -686 564 -694Q568 -702 568 -706Q565 -713 552 -711Q544 -710 541 -717Q538 -723 546 -725Q549 -726 552 -728L563 -734Q566 -735 569 -737Q581 -741 592 -746ZM350 -735Q365 -735 371 -731Q382 -733 398 -717Q405 -707 405 -699Q408 -685 400 -673Q373 -639 352 -623L365 -614Q368 -604 366 -596Q398 -608 415 -612Q433 -615 450 -619Q458 -625 468 -612Q478 -609 486 -602Q497 -595 498 -581Q506 -575 507 -570Q497 -560 504 -550Q502 -547 497 -545Q491 -542 490 -537Q488 -532 480 -533Q472 -534 470 -531Q467 -527 460 -524Q450 -520 447 -514Q435 -515 418 -504Q399 -492 383 -477Q383 -467 383 -458Q380 -437 382 -407Q375 -388 370 -367Q365 -364 363 -346Q353 -340 348 -329Q347 -324 342 -326Q337 -328 337 -332Q320 -358 317 -375Q311 -386 320 -395L329 -425Q333 -441 333 -462Q334 -481 331 -498Q322 -496 324 -486Q318 -479 313 -465Q309 -461 302 -445Q295 -432 287 -419Q279 -406 269 -393Q268 -392 262 -378Q258 -369 250 -371Q240 -383 233 -396Q227 -410 239 -420Q253 -445 268 -469Q283 -494 292 -522Q299 -539 289 -537Q264 -528 238 -520Q222 -515 205 -510Q185 -505 165 -501Q148 -504 132 -504Q128 -507 118 -508Q109 -509 107 -511Q104 -513 105 -515Q108 -516 111 -517L143 -526Q172 -535 200 -545Q214 -548 227 -551Q230 -556 235 -556Q239 -557 244 -559Q254 -563 264 -567Q287 -573 308 -582L331 -587Q317 -592 311 -589Q306 -585 301 -581Q294 -578 290 -585Q285 -589 287 -593Q290 -597 292 -601Q282 -613 270 -620Q265 -622 260 -624Q259 -625 261 -627Q280 -628 298 -630Q310 -630 316 -633Q327 -650 338 -667Q343 -678 339 -686Q325 -688 319 -682Q312 -680 304 -678Q294 -674 280 -680Q274 -683 268 -687Q259 -694 250 -702Q246 -701 244 -703Q243 -705 247 -706Q256 -709 265 -710Q283 -720 301 -725Q324 -734 350 -735ZM435 -578Q417 -576 413 -573Q406 -572 384 -565Q358 -559 346 -554Q342 -551 336 -550Q330 -548 329 -542Q357 -521 365 -513Q372 -509 375 -501Q377 -494 379 -488Q382 -489 386 -494Q391 -501 394 -501Q407 -519 421 -535Q434 -552 441 -572Q443 -576 441 -578Q438 -581 435 -578ZM464 -366Q466 -366 487 -369Q497 -378 517 -378Q528 -381 539 -381Q553 -381 568 -376Q577 -377 584 -364Q588 -361 590 -352Q591 -343 594 -340Q593 -330 592 -320Q585 -315 583 -308Q580 -301 576 -295Q571 -294 568 -286Q564 -276 557 -277Q548 -279 542 -268Q539 -262 533 -260Q526 -259 520 -258Q505 -252 505 -260Q501 -268 511 -280Q515 -286 518 -293Q520 -300 528 -302Q536 -311 550 -341Q553 -345 550 -349Q547 -354 543 -350Q537 -351 517 -346Q508 -344 498 -342Q485 -341 472 -340Q464 -339 455 -338Q459 -331 471 -327Q488 -312 488 -298Q480 -288 480 -274Q476 -270 478 -261Q480 -254 479 -251Q470 -242 469 -229Q466 -212 463 -195Q459 -193 466 -189Q486 -194 490 -194Q494 -197 508 -199Q520 -199 528 -210Q537 -209 545 -209Q556 -211 566 -213Q601 -220 610 -219Q621 -221 631 -224Q645 -227 661 -228Q674 -227 690 -228Q705 -230 720 -225Q731 -222 742 -220Q759 -211 775 -203Q785 -194 794 -185Q800 -182 801 -171Q801 -162 803 -159Q812 -148 805 -124Q800 -118 801 -110Q801 -102 802 -94Q795 -87 791 -63Q790 -62 782 -40Q777 -27 775 -24Q766 -8 765 -2Q751 21 748 28Q727 50 710 72Q702 84 676 95Q673 94 670 99Q667 103 665 103Q660 100 655 91Q651 83 647 81Q646 77 639 72Q631 67 632 62Q641 55 643 51Q645 50 664 50Q670 52 674 45Q680 35 683 33Q693 18 703 3Q714 -19 724 -41Q732 -65 736 -76Q736 -86 741 -103Q747 -125 746 -138Q743 -148 741 -159Q739 -169 730 -174Q715 -184 699 -186Q694 -184 682 -186Q674 -187 669 -186Q664 -184 652 -184Q637 -185 632 -181Q602 -181 583 -170Q576 -172 556 -168Q544 -164 532 -162Q524 -164 512 -159Q502 -155 496 -156Q485 -155 476 -151Q459 -155 452 -148Q442 -140 424 -158Q414 -164 411 -173Q407 -183 402 -190Q396 -196 399 -203Q401 -210 401 -218Q405 -228 409 -248Q408 -252 415 -257Q419 -260 420 -263Q424 -276 432 -285Q431 -289 436 -309Q437 -314 438 -322Q438 -329 431 -329Q420 -326 410 -334Q409 -336 402 -338Q396 -340 395 -344Q399 -346 401 -346L413 -350Q415 -350 419 -352Q443 -357 447 -360ZM525 -118H527Q531 -116 535 -112Q539 -109 544 -112Q549 -117 554 -115Q560 -112 565 -111Q576 -103 565 -89Q560 -88 556 -78Q552 -68 546 -69Q519 -61 494 -61Q471 -57 447 -56Q443 -55 419 -52Q407 -47 396 -47Q387 -44 378 -42Q366 -43 345 -36Q329 -30 320 -30Q308 -27 296 -30Q271 -39 258 -55Q254 -59 256 -62Q258 -65 262 -62L293 -66Q310 -74 328 -75Q332 -78 341 -79Q351 -80 355 -83Q366 -87 382 -89Q390 -94 419 -98Q453 -104 486 -109Q516 -109 525 -118Z"/>
</svg>