<svg xmlns="http://www.w3.org/2000/svg" viewBox="0 -800 1024 1024">
	<path fill="#000000" d="M328 -711Q332 -711 367 -700Q367 -698 372 -698Q377 -698 379 -696Q384 -678 375 -632Q370 -613 374 -598Q372 -574 369 -551Q370 -548 369 -543Q369 -538 374 -537Q375 -543 381 -548Q386 -552 390 -557Q395 -570 402 -580Q418 -608 424 -615Q427 -622 432 -628Q437 -634 432 -640Q424 -643 425 -653Q433 -650 441 -648Q444 -649 449 -647Q452 -645 454 -647Q471 -642 483 -635Q494 -633 494 -610Q494 -601 487 -600Q486 -595 479 -589Q472 -583 470 -580Q466 -583 464 -579Q462 -574 460 -570L443 -552Q441 -549 434 -545Q427 -541 425 -537Q422 -539 420 -534Q417 -527 412 -529L392 -509Q396 -504 413 -510Q422 -510 429 -515Q437 -513 445 -512Q448 -510 451 -510Q453 -510 454 -513Q458 -515 461 -511Q464 -508 467 -509Q469 -515 475 -515Q480 -515 486 -515Q491 -516 493 -513Q494 -512 495 -505Q507 -497 505 -494Q506 -490 503 -489Q500 -488 496 -485Q494 -479 486 -478Q478 -477 476 -473Q468 -468 458 -467Q439 -463 420 -459Q378 -455 306 -443Q296 -444 261 -436Q252 -437 234 -433Q219 -429 210 -431Q199 -429 187 -427Q175 -430 159 -431Q147 -440 133 -444Q127 -444 121 -446Q117 -448 121 -453Q126 -451 134 -454Q143 -457 146 -456Q159 -457 172 -459Q185 -460 197 -462Q201 -462 209 -465Q220 -469 226 -467Q245 -470 263 -478Q267 -482 271 -479Q275 -477 280 -476Q289 -478 298 -479Q307 -480 313 -488Q300 -496 307 -512Q310 -530 313 -549Q320 -580 324 -612Q327 -648 329 -685Q330 -689 327 -698Q323 -708 328 -711ZM237 -678Q239 -674 241 -671Q269 -645 275 -626Q275 -622 278 -612Q281 -603 280 -597Q281 -592 279 -586Q276 -578 280 -575Q280 -559 275 -545L277 -523Q275 -514 274 -504Q274 -494 267 -488Q259 -490 250 -492Q242 -501 235 -511Q223 -521 223 -537Q224 -540 225 -543L229 -554Q230 -557 231 -560Q231 -585 235 -605Q242 -626 237 -653Q225 -667 237 -678ZM166 -606Q174 -603 182 -599Q185 -593 194 -581Q207 -564 209 -553Q212 -547 205 -545Q198 -534 189 -543Q188 -544 186 -544Q182 -540 179 -536Q178 -536 177 -538Q175 -542 170 -543Q164 -544 163 -549Q162 -552 156 -555Q151 -558 154 -561Q156 -578 160 -593Q164 -595 164 -599Q164 -603 166 -606ZM692 -548H694Q709 -543 724 -539Q745 -537 748 -514Q752 -497 748 -489Q743 -484 743 -478Q744 -472 742 -466Q736 -449 730 -433Q727 -428 732 -426Q736 -424 740 -428Q743 -428 750 -432Q757 -436 762 -434Q794 -436 801 -438Q805 -436 812 -437Q822 -438 827 -433Q831 -432 830 -430Q826 -425 829 -419Q827 -409 816 -403Q806 -397 797 -398Q778 -392 758 -387Q734 -381 720 -374Q707 -365 706 -352Q705 -342 700 -331Q695 -319 690 -307Q689 -291 680 -278Q682 -272 676 -264Q670 -256 670 -251Q663 -230 638 -192Q638 -188 632 -180Q629 -176 627 -171L607 -152Q604 -147 599 -143Q590 -136 589 -129Q594 -123 618 -121Q631 -119 643 -118Q667 -114 693 -115Q697 -113 702 -118Q706 -124 710 -127Q711 -130 714 -132Q718 -135 718 -138Q735 -160 752 -183Q762 -198 773 -213Q784 -227 791 -244Q795 -252 793 -263Q792 -273 781 -271Q779 -275 773 -272Q768 -270 767 -272Q759 -274 749 -278Q742 -284 734 -288Q725 -291 730 -301Q731 -298 733 -299Q735 -303 739 -303Q743 -299 753 -300Q761 -300 765 -298Q778 -298 790 -298L816 -289Q833 -292 839 -269Q842 -260 845 -251Q843 -226 838 -209Q826 -187 812 -171Q806 -167 805 -161Q799 -159 795 -148Q790 -144 783 -133Q776 -121 770 -117Q766 -113 761 -109Q756 -105 762 -100Q769 -99 776 -98Q784 -93 793 -92Q797 -89 804 -87Q813 -85 816 -81Q837 -78 856 -73Q864 -67 874 -68Q880 -69 886 -66Q892 -63 895 -64Q903 -60 910 -56Q914 -58 915 -55Q916 -52 918 -50Q929 -46 936 -39Q943 -35 942 -30Q942 -24 941 -18Q942 -17 942 -16Q942 -15 941 -15Q937 -16 936 -12Q933 -11 928 -10Q923 -9 922 -5Q920 -7 918 -5Q916 -3 914 -5Q894 -1 873 -11Q871 -16 864 -16Q857 -16 855 -18Q842 -22 828 -27Q814 -33 798 -37Q786 -42 776 -48Q760 -52 741 -63Q728 -68 714 -68Q708 -67 701 -66Q695 -64 688 -60Q681 -61 677 -57Q672 -53 668 -50Q665 -51 659 -50Q651 -48 647 -51Q658 -61 665 -72Q671 -79 665 -82Q658 -85 651 -86Q621 -96 593 -111Q582 -117 573 -125Q562 -114 554 -110Q551 -110 546 -105Q538 -97 532 -100Q525 -90 526 -77Q520 -66 514 -56Q509 -31 508 -30Q502 -22 501 -18Q502 -12 493 -7Q484 -2 483 2Q480 3 475 8Q468 15 463 14Q453 3 442 -7Q435 -11 432 -23Q430 -33 425 -37Q420 -38 430 -40Q435 -48 443 -44Q463 -56 467 -89Q472 -104 477 -120Q478 -136 478 -153V-176Q478 -189 479 -194Q478 -215 477 -237Q479 -251 473 -263Q467 -277 454 -280Q446 -281 438 -282Q390 -276 369 -268Q352 -263 334 -259Q329 -258 323 -255Q318 -253 321 -248Q320 -242 322 -223Q320 -221 322 -215Q323 -211 322 -209Q323 -205 322 -199Q321 -193 326 -191Q343 -185 361 -193Q363 -190 366 -192Q368 -195 370 -196Q382 -193 392 -185Q412 -183 417 -178Q434 -166 427 -146Q415 -141 411 -143Q402 -140 393 -144Q390 -140 385 -145Q378 -147 373 -152Q369 -158 364 -163Q337 -172 329 -174Q324 -179 321 -174Q318 -170 319 -164Q321 -157 318 -139Q316 -125 318 -117Q320 -111 319 -97Q318 -81 323 -73Q323 -67 322 -58Q322 -50 314 -45Q311 -39 306 -40Q300 -42 294 -44Q294 -52 288 -58Q284 -65 277 -73Q269 -81 272 -91Q281 -105 283 -140Q279 -143 271 -140Q264 -138 260 -141Q256 -141 252 -146Q249 -150 246 -150Q242 -154 243 -158Q244 -162 243 -166Q244 -169 242 -170Q241 -171 239 -171Q235 -170 234 -175Q229 -184 237 -192Q241 -201 257 -207Q269 -215 274 -210Q281 -210 282 -206Q283 -201 285 -196Q290 -189 294 -201Q299 -222 303 -244Q305 -247 303 -248Q299 -249 294 -245Q289 -235 274 -240Q269 -247 251 -249Q242 -251 233 -257Q219 -253 218 -243Q221 -237 216 -227Q212 -218 213 -213Q213 -212 210 -199Q203 -181 204 -168Q202 -156 198 -144Q197 -129 193 -118Q187 -91 189 -67Q190 -60 188 -52Q184 -55 180 -48Q176 -42 173 -42Q170 -39 166 -39Q154 -43 144 -53Q143 -61 134 -62Q129 -66 132 -77Q131 -85 136 -110Q142 -123 139 -134Q143 -147 145 -162Q151 -177 157 -192Q160 -201 162 -210Q160 -219 166 -229Q185 -263 201 -279Q203 -285 208 -286Q212 -286 217 -288Q218 -286 222 -287Q226 -288 227 -284Q228 -273 232 -263Q244 -259 255 -265Q265 -271 275 -276Q278 -274 283 -277Q287 -280 289 -278Q296 -281 303 -284Q338 -295 369 -307Q374 -300 383 -309Q399 -313 414 -314Q430 -316 441 -316Q450 -317 460 -315Q473 -318 485 -309Q493 -304 502 -299Q510 -295 516 -286Q527 -259 528 -241Q528 -228 528 -216Q519 -207 523 -193Q527 -194 527 -192Q528 -189 529 -186Q528 -165 526 -144Q528 -123 530 -118Q535 -121 543 -133Q549 -142 556 -146Q566 -163 575 -181Q580 -184 591 -204Q616 -263 626 -281Q636 -310 646 -332Q650 -341 648 -348Q635 -348 622 -348Q608 -351 592 -350Q573 -352 567 -355Q573 -365 583 -366Q612 -373 656 -392Q667 -394 669 -405Q672 -415 676 -425Q676 -431 680 -441Q687 -457 685 -464Q689 -480 693 -497Q695 -513 695 -518Q700 -529 687 -538Q680 -545 692 -548ZM808 -539L817 -538Q831 -535 845 -533Q852 -532 856 -532Q868 -530 880 -528Q887 -506 881 -497Q877 -498 871 -492Q867 -487 863 -486Q849 -490 835 -495Q822 -502 811 -513Q802 -519 790 -525Q788 -527 787 -527Q786 -528 787 -529Q788 -529 791 -530Q799 -538 808 -539ZM375 -510Q370 -508 371 -503Q371 -501 375 -502Q376 -502 377 -501Q381 -498 381 -505Q380 -513 375 -510ZM379 -411Q382 -410 385 -408Q388 -405 392 -410Q395 -402 403 -399Q410 -396 417 -393Q428 -398 441 -383Q442 -370 429 -370Q424 -367 414 -362Q411 -356 405 -356Q400 -353 394 -347Q385 -337 380 -336Q373 -338 369 -333Q363 -324 351 -332Q354 -335 354 -339Q353 -341 349 -341Q345 -334 338 -332Q333 -335 337 -339Q342 -343 344 -348Q341 -356 350 -365Q357 -374 361 -387Q365 -396 368 -405Q378 -403 379 -411ZM272 -410Q287 -412 300 -406Q305 -404 313 -392Q321 -389 323 -380Q325 -371 320 -365Q321 -362 319 -355Q317 -348 320 -344Q320 -321 319 -316Q311 -314 307 -304Q304 -300 300 -304Q296 -308 292 -307Q290 -304 289 -305Q288 -310 285 -309Q285 -306 284 -306Q281 -306 281 -311Q270 -326 264 -343Q265 -346 266 -350L270 -363Q272 -369 272 -370Q280 -391 272 -410ZM198 -368Q203 -368 206 -363Q231 -335 233 -333Q232 -323 237 -309Q237 -303 233 -303Q226 -303 220 -301Q211 -306 206 -316Q202 -317 202 -322Q203 -327 198 -327Q197 -330 195 -331Q192 -331 189 -328Q180 -339 180 -347Q178 -352 181 -356Q184 -360 186 -365Q196 -360 198 -368Z"/>
</svg>