<svg xmlns="http://www.w3.org/2000/svg" viewBox="0 -800 1024 1024">
	<path fill="#000000" d="M606 -749Q607 -749 608 -749H613Q614 -749 615 -749Q622 -747 629 -748Q675 -741 686 -737Q692 -735 699 -733Q706 -732 708 -725Q718 -722 720 -712Q722 -703 713 -698Q713 -693 711 -693Q707 -694 702 -695Q698 -695 697 -691Q697 -688 695 -688Q692 -688 690 -688Q688 -683 685 -685Q682 -689 677 -687Q677 -682 675 -682Q671 -684 666 -685Q639 -697 616 -719Q610 -725 602 -729Q594 -734 592 -743Q590 -746 592 -747Q599 -746 606 -749ZM818 -691Q824 -691 827 -689Q832 -690 835 -683Q837 -678 840 -676Q839 -670 838 -663Q837 -657 829 -654Q827 -652 815 -646Q812 -648 810 -646Q806 -643 805 -643Q798 -643 790 -638Q780 -633 757 -629Q752 -626 740 -624Q722 -620 714 -613Q699 -612 690 -601Q681 -591 672 -580Q659 -559 646 -538Q638 -524 630 -511Q631 -507 629 -499Q627 -491 629 -486Q636 -487 653 -497Q664 -503 672 -506Q690 -515 710 -521Q732 -531 753 -537Q760 -535 766 -537Q804 -546 844 -543Q856 -540 860 -537Q867 -538 877 -536Q878 -533 883 -531Q888 -529 890 -525Q891 -519 897 -515Q903 -506 904 -498Q910 -488 912 -477Q909 -470 910 -459Q906 -451 904 -445Q899 -431 890 -421Q885 -423 881 -417Q882 -412 876 -408Q871 -405 871 -403Q872 -399 867 -396Q863 -393 862 -391Q853 -386 844 -381Q845 -373 836 -369Q834 -363 828 -362Q826 -361 828 -358Q838 -360 844 -356Q848 -357 849 -356Q847 -354 847 -348Q847 -340 847 -333Q848 -328 853 -325Q854 -323 851 -322Q844 -323 843 -317Q838 -315 832 -313Q827 -308 821 -307Q812 -306 802 -305Q773 -303 764 -299Q745 -299 703 -293Q661 -291 634 -303Q628 -306 620 -308Q612 -310 607 -316Q629 -317 687 -333Q720 -340 753 -347Q767 -348 780 -353Q785 -355 791 -365Q796 -373 801 -376Q804 -381 806 -386Q808 -392 815 -394Q817 -401 822 -406Q826 -412 822 -419Q833 -441 835 -446Q837 -458 842 -470Q847 -482 838 -493Q834 -501 826 -502Q817 -503 810 -503Q791 -501 775 -497Q766 -493 753 -493Q735 -488 713 -478Q706 -476 683 -474Q677 -470 658 -470Q649 -474 639 -477Q631 -479 622 -475Q621 -468 613 -436Q612 -420 605 -405Q597 -375 596 -360Q595 -349 600 -335Q600 -333 600 -331V-322Q600 -319 600 -317Q605 -309 596 -304Q596 -301 594 -300Q590 -303 583 -308Q575 -319 563 -324Q548 -327 543 -343Q536 -351 539 -360Q542 -370 543 -380Q548 -383 544 -389Q547 -395 543 -403Q557 -449 569 -472Q574 -496 592 -514Q597 -526 607 -540Q621 -557 634 -574Q637 -578 642 -583Q647 -587 646 -592Q633 -589 620 -586Q592 -578 568 -574Q559 -572 546 -576Q534 -580 529 -580Q518 -582 506 -585Q495 -585 483 -585Q483 -587 478 -587Q473 -587 473 -590Q481 -591 489 -592Q509 -597 527 -605Q543 -608 557 -608Q569 -615 583 -617Q644 -636 665 -646Q686 -652 707 -658Q713 -662 720 -663Q728 -665 730 -672Q730 -681 741 -673Q747 -680 757 -685Q761 -690 771 -686Q779 -683 782 -684Q811 -689 818 -691ZM270 -632H276Q278 -627 280 -627Q282 -627 285 -631Q291 -632 291 -628Q291 -623 295 -622Q301 -628 307 -624Q312 -626 314 -621Q316 -618 318 -617Q322 -617 322 -615Q320 -611 320 -606Q320 -604 323 -604Q327 -598 321 -594Q315 -590 308 -592Q300 -584 285 -584Q281 -583 279 -586Q277 -586 276 -583Q258 -576 252 -578Q242 -575 236 -576Q234 -578 230 -575Q226 -573 224 -575Q198 -572 171 -577Q154 -577 151 -582Q147 -591 155 -598Q161 -603 171 -604Q173 -601 175 -602Q178 -609 185 -606Q200 -614 216 -618Q225 -619 231 -627Q245 -632 255 -629Q257 -631 262 -630Q267 -629 270 -632ZM294 -525Q300 -527 302 -520Q312 -517 326 -503Q341 -505 347 -507Q351 -507 361 -511Q371 -515 378 -514Q380 -512 388 -512Q394 -512 397 -510Q400 -512 404 -507Q408 -502 411 -506Q423 -505 428 -495Q436 -488 444 -482Q453 -472 464 -456Q462 -446 473 -433Q466 -423 475 -423Q480 -419 478 -411Q477 -403 478 -396Q478 -380 480 -365Q479 -352 475 -340Q475 -329 477 -319Q477 -308 476 -297Q474 -294 476 -288Q478 -283 476 -280Q472 -274 473 -257Q474 -241 470 -234Q470 -211 469 -188Q467 -176 464 -165Q463 -155 460 -147Q461 -134 456 -116Q453 -113 451 -108Q449 -103 444 -103Q432 -100 423 -111Q409 -123 398 -134Q393 -152 388 -157Q393 -162 404 -165Q407 -169 408 -178Q409 -188 413 -192Q418 -197 417 -209Q416 -222 420 -227Q420 -263 426 -299Q428 -322 430 -346Q429 -351 431 -360Q433 -370 430 -375Q431 -380 429 -391Q427 -402 429 -409Q427 -422 425 -429Q426 -445 416 -458Q406 -471 393 -472Q384 -472 374 -472Q368 -467 344 -465Q332 -461 329 -457Q325 -452 325 -441L322 -426Q322 -421 321 -419Q321 -408 319 -397Q317 -386 325 -378Q327 -376 331 -378Q335 -380 338 -379Q348 -385 354 -377Q369 -375 383 -374Q387 -360 395 -356Q399 -357 399 -353Q399 -348 397 -346Q388 -344 382 -340Q378 -341 372 -338Q366 -335 362 -336Q355 -328 343 -326Q331 -317 317 -312Q314 -306 303 -297Q294 -290 292 -284Q290 -281 292 -280Q296 -278 301 -281Q309 -277 319 -277Q317 -268 326 -266Q333 -262 325 -251Q303 -244 287 -246L247 -242Q236 -239 233 -247Q235 -249 232 -252Q228 -255 228 -256Q232 -260 243 -265Q256 -271 260 -275Q274 -276 282 -293Q291 -301 307 -320Q316 -331 323 -338Q326 -343 322 -345Q318 -347 314 -349Q305 -352 297 -364Q295 -368 286 -385Q284 -423 288 -440Q289 -449 278 -442Q269 -440 269 -423Q269 -409 265 -404Q266 -394 261 -385Q259 -381 258 -369Q256 -352 251 -344Q247 -331 243 -319Q240 -312 238 -304Q236 -296 229 -295Q225 -299 219 -304Q212 -309 211 -317Q202 -328 213 -339Q214 -350 218 -359Q221 -363 224 -381Q231 -391 231 -409Q240 -425 235 -439Q235 -443 232 -444Q228 -445 225 -446Q217 -445 208 -445Q204 -444 204 -447Q204 -450 202 -453Q206 -458 219 -461Q228 -463 233 -467Q240 -468 240 -477Q240 -487 233 -489Q227 -491 230 -499Q232 -504 231 -506Q229 -512 234 -513Q239 -514 243 -515Q253 -506 260 -495Q263 -492 266 -487Q268 -482 274 -482Q280 -486 288 -488Q296 -490 297 -499Q296 -503 299 -507Q302 -511 301 -514Q302 -516 301 -517Q299 -518 297 -518Q292 -521 294 -525ZM187 -497Q189 -493 191 -489Q196 -484 196 -468Q193 -454 188 -440Q188 -434 181 -427Q173 -418 175 -412Q167 -398 164 -382Q157 -365 160 -358Q157 -334 153 -311Q149 -296 151 -284Q148 -279 150 -265Q152 -255 150 -249Q153 -239 153 -219Q154 -205 154 -191Q160 -185 163 -175Q166 -171 163 -167Q159 -161 164 -159Q225 -164 259 -174Q315 -182 328 -180Q341 -181 354 -177Q358 -180 363 -173Q368 -166 371 -169Q372 -167 368 -165Q363 -162 366 -157Q370 -156 369 -151Q368 -147 369 -146Q368 -135 349 -138Q346 -136 341 -138Q336 -140 334 -138Q320 -143 312 -138Q308 -139 304 -140Q301 -142 298 -138Q285 -139 260 -134Q258 -133 252 -134Q243 -135 240 -131Q234 -132 218 -129Q204 -127 189 -125Q181 -124 172 -124Q163 -123 154 -123Q143 -127 137 -131Q117 -143 107 -159Q100 -165 97 -182Q95 -197 91 -202Q91 -209 97 -222Q103 -234 102 -241Q99 -263 105 -283Q103 -295 107 -319Q109 -325 113 -345Q117 -367 123 -378Q125 -406 135 -426Q138 -431 140 -436L152 -456Q154 -461 157 -466Q173 -478 187 -497ZM752 -269Q779 -267 787 -265Q792 -263 791 -255Q790 -250 792 -246Q796 -237 791 -229Q786 -221 781 -214Q783 -204 767 -195Q765 -197 762 -195Q757 -192 754 -194Q753 -196 752 -196Q750 -191 745 -189Q742 -187 734 -189Q725 -192 721 -187Q714 -185 716 -181Q719 -175 725 -171Q739 -170 752 -157Q761 -156 771 -146Q776 -146 780 -146Q835 -155 853 -152Q868 -148 866 -133Q866 -124 865 -115Q853 -113 840 -111Q820 -106 799 -102Q794 -101 783 -101Q781 -95 787 -92Q786 -84 787 -77Q785 -61 779 -45Q780 -26 765 -9Q768 -3 762 7Q757 15 757 18Q745 32 733 46Q728 47 717 33Q709 24 701 14Q697 9 688 9Q679 9 677 3Q706 -10 712 -14Q720 -23 722 -35Q725 -46 728 -57Q730 -66 734 -88Q734 -91 733 -92Q703 -88 693 -87Q670 -83 646 -80Q606 -71 589 -76Q575 -83 560 -83Q556 -83 555 -84Q556 -88 562 -90Q595 -100 626 -112Q631 -115 644 -117Q658 -119 663 -124L708 -134Q717 -134 722 -135Q714 -143 708 -145Q697 -147 693 -156Q688 -165 684 -175Q676 -194 695 -204Q695 -206 700 -211Q706 -216 704 -220Q684 -220 668 -225Q661 -227 653 -230Q645 -234 643 -243Q648 -238 658 -240Q660 -242 666 -242Q671 -242 673 -245Q685 -246 723 -260Q739 -263 752 -269Z"/>
</svg>