<svg xmlns="http://www.w3.org/2000/svg" viewBox="0 -800 1024 1024">
	<path fill="#000000" d="M224 -490Q217 -484 213 -485Q210 -486 207 -486Q224 -505 242 -521Q245 -525 250 -530Q254 -534 254 -539Q247 -544 237 -543Q223 -548 209 -554Q196 -562 182 -571Q184 -575 188 -574Q192 -573 196 -573Q207 -574 218 -575Q242 -575 266 -572Q269 -573 278 -571Q286 -570 291 -572Q311 -608 323 -636Q323 -646 304 -643Q285 -639 269 -648Q264 -652 257 -653Q254 -654 256 -658Q276 -662 285 -666Q306 -677 330 -684L344 -681Q370 -684 384 -666Q386 -662 382 -653Q379 -646 380 -641Q380 -632 371 -625Q370 -619 361 -600Q355 -598 348 -585Q344 -580 338 -575Q333 -570 337 -563Q366 -556 376 -549Q381 -548 381 -543Q382 -538 383 -533Q394 -527 387 -514Q384 -508 392 -506Q400 -510 410 -507Q427 -505 443 -499Q446 -499 463 -489Q470 -485 467 -476Q464 -472 470 -466Q476 -460 473 -455Q463 -441 463 -432Q459 -428 455 -420Q450 -409 446 -406Q437 -392 424 -380Q425 -376 434 -373Q474 -365 475 -345Q481 -333 467 -323Q458 -318 450 -323Q435 -331 420 -340Q412 -343 405 -348Q398 -354 389 -351Q374 -335 356 -322Q338 -314 323 -304Q311 -294 304 -297Q301 -301 303 -304Q305 -307 309 -307Q335 -331 351 -356Q361 -369 348 -376Q328 -390 308 -404Q308 -407 305 -407Q317 -407 328 -407Q345 -407 361 -403Q370 -400 379 -397Q389 -408 395 -421Q406 -443 416 -465Q415 -471 410 -472Q402 -474 398 -469Q387 -467 377 -452Q362 -450 352 -453Q342 -453 334 -448Q327 -456 320 -459Q314 -461 316 -466Q318 -470 323 -466Q331 -466 341 -472Q352 -479 357 -479Q363 -483 371 -486Q378 -490 382 -497Q375 -503 368 -503Q353 -507 338 -511Q326 -516 313 -522Q303 -530 295 -530Q289 -530 285 -526Q280 -520 267 -516Q256 -512 251 -508Q247 -503 236 -498Q228 -494 224 -490ZM676 -598Q683 -597 689 -593Q695 -588 692 -582Q699 -575 697 -560Q692 -546 689 -530Q683 -517 677 -505Q671 -481 665 -457Q662 -446 656 -437Q658 -430 654 -417Q651 -406 652 -399Q647 -393 644 -378Q641 -364 638 -359Q640 -345 635 -331Q629 -328 629 -322Q629 -316 627 -310Q627 -307 624 -299Q621 -291 623 -286Q621 -276 619 -267Q616 -255 613 -243Q608 -238 608 -217Q606 -213 604 -194Q605 -187 600 -175Q596 -164 596 -158Q593 -147 591 -136Q589 -124 583 -114Q582 -108 575 -109Q569 -110 565 -114Q561 -122 550 -127Q550 -130 541 -147Q533 -155 534 -165Q529 -172 532 -178Q534 -185 535 -193Q536 -196 537 -199L540 -211Q541 -214 542 -217Q540 -225 546 -237Q551 -247 549 -253Q550 -259 559 -280Q559 -290 565 -301Q565 -315 568 -327Q576 -339 577 -353Q577 -357 580 -362Q584 -368 582 -372Q586 -385 590 -398Q590 -407 595 -414Q606 -432 607 -453Q609 -457 612 -468Q615 -482 620 -488Q624 -504 628 -521Q628 -524 630 -529Q631 -534 628 -535Q608 -530 588 -526Q581 -523 567 -527Q557 -530 552 -530Q539 -535 529 -531Q512 -528 497 -530Q493 -526 483 -536Q491 -538 499 -540Q511 -543 522 -549Q537 -558 561 -565Q569 -570 588 -576Q604 -581 612 -586Q620 -597 636 -597Q646 -597 653 -593Q658 -598 665 -597Q671 -596 676 -598ZM196 -467Q206 -469 216 -473Q226 -473 238 -476Q261 -474 272 -469Q282 -468 286 -452Q291 -444 287 -435Q283 -426 279 -418Q273 -417 268 -408Q264 -400 260 -398Q257 -394 234 -367Q232 -362 235 -360Q238 -358 244 -359Q257 -356 264 -353Q276 -348 282 -340Q288 -328 289 -325Q292 -315 286 -310Q277 -310 268 -311Q258 -318 247 -317L218 -331Q208 -339 200 -339Q194 -339 189 -334Q180 -330 164 -318Q151 -313 139 -306Q127 -306 118 -301Q114 -301 114 -302Q114 -303 116 -305Q152 -336 161 -354Q164 -360 158 -364Q151 -367 147 -372Q145 -379 141 -384Q137 -390 142 -395Q153 -393 164 -392Q167 -392 174 -388Q183 -383 189 -385Q206 -400 219 -422Q222 -426 223 -432Q224 -437 217 -438Q213 -435 208 -431Q204 -428 199 -430Q174 -433 154 -445Q152 -448 153 -450Q154 -452 157 -452Q177 -456 196 -467ZM777 -456Q782 -453 785 -455Q795 -453 805 -453Q816 -453 824 -448Q847 -443 850 -434Q849 -427 857 -421Q865 -415 864 -409Q870 -394 870 -375Q870 -365 872 -354Q871 -341 870 -329Q868 -324 866 -313Q864 -298 860 -293Q865 -285 862 -277Q859 -268 856 -260Q853 -247 850 -234Q851 -224 846 -209Q842 -196 842 -190Q833 -176 832 -162Q826 -148 821 -133Q816 -118 806 -106Q806 -101 798 -92Q794 -87 792 -82Q789 -78 793 -76Q798 -74 801 -73Q805 -74 810 -71Q818 -67 822 -69Q849 -68 875 -60Q893 -55 898 -56Q901 -55 919 -42Q919 -32 922 -25Q924 -18 920 -11Q919 -9 912 -1Q907 0 900 3Q894 6 887 1Q865 0 845 -9Q820 -16 795 -24Q787 -24 778 -28Q758 -36 738 -45Q712 -53 682 -56Q672 -62 652 -63Q636 -63 631 -65Q626 -62 620 -60Q616 -50 605 -50Q595 -37 584 -47Q594 -69 610 -81Q614 -90 629 -108Q639 -120 644 -128Q664 -152 674 -179Q680 -186 672 -193Q665 -200 660 -195Q660 -191 655 -192Q650 -193 651 -197Q655 -201 658 -206Q665 -206 672 -206H698Q705 -206 712 -206Q720 -201 728 -200Q741 -197 743 -182Q746 -167 735 -160Q720 -137 705 -115Q701 -113 694 -104Q687 -94 680 -91Q674 -89 675 -85Q676 -83 679 -85Q690 -82 703 -83Q709 -80 718 -81Q726 -82 729 -81Q733 -83 738 -80Q744 -77 746 -81Q745 -83 741 -85Q736 -87 735 -91Q729 -97 723 -101Q716 -106 720 -113Q725 -112 729 -114Q734 -117 732 -121Q735 -124 743 -122Q749 -121 752 -122Q760 -129 769 -150Q775 -171 784 -194Q797 -232 803 -269Q807 -301 811 -333Q814 -369 805 -403Q803 -412 795 -413Q788 -415 779 -414Q751 -406 750 -405Q744 -397 734 -397Q724 -397 715 -397Q710 -402 702 -400Q694 -399 687 -400Q686 -405 680 -407Q675 -408 674 -410L693 -424Q711 -439 730 -449Q743 -453 756 -452Q759 -454 766 -454Q774 -454 777 -456ZM265 -297Q271 -297 272 -293Q277 -288 284 -288Q291 -289 298 -287Q308 -284 318 -276Q322 -275 335 -263Q345 -254 354 -257Q368 -260 382 -264Q396 -264 400 -277Q404 -280 406 -277Q408 -274 412 -270Q423 -269 434 -269Q439 -272 443 -268Q447 -264 452 -263Q461 -258 450 -239Q444 -232 435 -232Q431 -228 420 -228Q410 -228 407 -225Q399 -223 390 -221Q384 -222 375 -216Q367 -211 362 -211Q351 -212 348 -194Q346 -184 347 -174Q344 -163 346 -150Q340 -140 343 -125Q340 -115 339 -102Q337 -88 335 -75Q338 -57 334 -53Q325 -49 329 -37Q319 -29 308 -37Q304 -46 298 -46Q290 -42 287 -54Q286 -61 276 -67Q268 -72 267 -76Q267 -92 274 -103Q277 -125 282 -146Q280 -151 275 -150Q270 -149 268 -145Q247 -132 228 -121Q218 -113 208 -105Q204 -100 194 -96Q190 -96 184 -92Q177 -87 174 -90Q172 -100 166 -108Q160 -113 164 -116Q169 -119 173 -121Q184 -138 200 -152Q215 -167 229 -181Q233 -184 235 -189Q236 -194 231 -194Q189 -190 176 -185Q168 -184 161 -183Q153 -181 147 -185Q125 -185 111 -192Q108 -196 99 -198Q91 -200 89 -204Q103 -209 119 -210Q130 -215 144 -214Q147 -217 157 -217Q166 -217 170 -220Q187 -225 201 -225Q210 -227 218 -229Q230 -230 242 -233Q247 -234 270 -241Q279 -241 282 -249Q281 -256 271 -278Q268 -283 264 -287Q261 -292 265 -297ZM365 -185Q371 -182 377 -177Q382 -172 391 -173Q400 -174 417 -170Q431 -166 440 -167Q447 -164 449 -163Q454 -160 454 -154Q449 -144 440 -137Q436 -138 431 -133Q427 -129 425 -129Q402 -147 400 -148Q389 -155 377 -163Q367 -166 362 -173Q357 -180 365 -185Z"/>
</svg>