<svg xmlns="http://www.w3.org/2000/svg" viewBox="0 -800 1024 1024">
	<path fill="#000000" d="M533 -740Q534 -740 540 -734Q551 -735 561 -737Q574 -737 587 -737Q605 -719 604 -705Q604 -700 596 -695Q588 -691 588 -686Q587 -679 576 -679Q568 -679 566 -677Q548 -674 529 -671Q515 -668 500 -665Q492 -666 480 -663Q468 -660 463 -660Q444 -658 438 -660Q411 -660 387 -663Q386 -664 366 -667Q355 -667 344 -668Q333 -669 327 -661Q331 -649 334 -637Q339 -628 332 -621Q324 -614 321 -605Q322 -597 318 -591Q313 -585 308 -578Q293 -548 295 -532Q291 -516 286 -500Q288 -493 282 -474Q283 -467 278 -455Q273 -444 274 -436Q276 -429 269 -408Q269 -403 268 -399L264 -383Q264 -378 263 -374Q259 -358 254 -343Q254 -338 249 -327Q244 -315 244 -307Q240 -293 236 -280Q233 -266 229 -253Q221 -244 220 -234Q219 -223 215 -213Q208 -201 206 -187Q199 -178 196 -161Q196 -152 182 -129Q176 -113 169 -97Q169 -94 159 -77Q150 -62 143 -44Q138 -40 126 -36Q115 -48 108 -60Q105 -77 93 -89Q88 -102 98 -110Q99 -122 111 -132Q122 -155 133 -178Q140 -194 144 -210Q147 -213 157 -236Q167 -267 169 -273L178 -299Q191 -311 190 -324Q192 -343 199 -353Q202 -359 207 -383Q205 -400 217 -416Q219 -446 222 -454Q228 -472 231 -490Q234 -495 234 -506Q234 -519 237 -523Q238 -532 248 -571Q246 -581 258 -595Q259 -604 266 -617Q273 -629 274 -634Q278 -637 282 -646Q288 -657 294 -660Q301 -672 315 -677Q330 -682 344 -687Q363 -694 384 -698Q386 -699 399 -702Q405 -701 417 -707Q434 -712 452 -714L473 -721Q489 -723 505 -729Q524 -731 533 -740ZM582 -641Q591 -639 601 -640Q610 -638 619 -637Q635 -633 644 -622Q647 -622 649 -622Q656 -623 678 -616Q682 -617 683 -613Q684 -609 682 -606Q678 -604 676 -593Q675 -586 667 -585Q660 -585 661 -579Q662 -573 658 -569Q656 -565 649 -567Q644 -568 642 -566Q638 -562 627 -563Q620 -564 616 -561Q611 -554 597 -554Q591 -558 587 -554Q584 -549 580 -546Q571 -549 563 -541Q547 -535 533 -526Q528 -525 525 -522Q520 -518 524 -514Q531 -511 540 -514Q546 -517 554 -517Q577 -519 599 -519Q604 -520 612 -517Q621 -513 626 -516Q629 -516 630 -515H639Q640 -514 643 -514Q646 -510 658 -510Q662 -507 672 -507Q685 -507 690 -502Q693 -494 700 -487Q700 -481 699 -473Q697 -466 691 -463Q680 -467 671 -463L653 -466Q641 -468 636 -470Q624 -471 611 -473Q592 -477 573 -482Q556 -481 541 -484Q539 -485 520 -488Q508 -490 500 -487Q495 -481 487 -467Q483 -456 467 -446Q465 -444 459 -440L438 -425Q432 -421 430 -419Q423 -418 407 -407Q404 -407 383 -396Q378 -402 386 -407Q401 -419 414 -433Q426 -448 440 -462Q454 -497 457 -506Q454 -512 449 -510Q444 -508 440 -509Q402 -509 367 -516Q364 -517 355 -516Q344 -514 340 -519Q345 -524 354 -523Q375 -533 399 -539Q427 -545 442 -549Q457 -554 471 -559Q483 -562 489 -576Q497 -598 493 -618Q491 -622 482 -624Q476 -625 473 -629Q472 -639 481 -639Q490 -639 497 -641H499Q515 -638 533 -633Q540 -630 542 -623Q543 -616 544 -609Q549 -601 544 -592Q547 -587 552 -589Q557 -592 562 -593Q570 -596 577 -599L595 -605Q592 -608 588 -611Q578 -618 568 -626Q564 -626 555 -633Q553 -633 552 -633Q553 -636 559 -636Q571 -636 582 -641ZM698 -188Q697 -193 691 -193Q680 -191 668 -190Q652 -188 637 -183Q627 -185 605 -176Q587 -176 590 -167Q592 -162 602 -159Q610 -157 613 -154Q621 -151 619 -144Q617 -136 615 -130Q600 -121 596 -114Q593 -107 598 -99Q591 -84 590 -80Q591 -72 586 -61Q580 -47 582 -39Q576 -26 578 -9Q575 5 586 16Q595 26 610 29Q626 34 644 35Q664 37 684 39L719 38Q737 34 757 34Q786 32 815 29Q823 32 836 28Q847 29 867 21Q876 13 881 2Q886 -9 892 -19Q893 -31 897 -42Q897 -53 902 -65Q907 -64 907 -59Q906 -55 908 -51Q908 -35 908 -20Q920 9 923 19Q924 30 936 38Q945 35 942 52Q943 57 939 60Q935 63 930 63Q915 68 900 71Q842 73 783 75Q778 79 765 78Q754 77 751 79Q737 79 723 78Q712 79 700 79Q677 80 618 73Q611 67 598 67Q584 57 571 52Q538 27 533 3Q518 -29 531 -60Q534 -77 539 -93Q541 -96 544 -106Q548 -118 553 -124Q560 -138 553 -139Q547 -137 541 -129Q532 -118 530 -116Q517 -111 515 -108Q500 -91 485 -75Q483 -68 471 -58Q463 -53 459 -45Q455 -37 449 -29Q438 -30 434 -16Q413 -13 405 -32Q410 -44 417 -53Q420 -56 423 -64Q428 -76 434 -79Q443 -80 448 -91Q454 -105 459 -107Q483 -135 509 -160Q509 -169 502 -168Q496 -168 491 -164Q482 -162 475 -158Q469 -149 456 -157Q435 -158 418 -165Q410 -163 405 -168Q400 -173 402 -180Q405 -189 399 -193Q394 -198 389 -203Q383 -205 383 -212Q383 -215 384 -223Q376 -235 385 -241Q385 -267 393 -288Q402 -318 408 -329Q411 -340 419 -348Q426 -357 432 -366Q440 -377 448 -389Q458 -401 467 -413Q463 -418 478 -434Q492 -449 497 -450Q508 -455 521 -452Q527 -457 536 -456Q545 -455 554 -457Q558 -466 567 -459Q573 -446 560 -433Q555 -425 542 -418Q530 -411 526 -407Q522 -402 517 -404Q513 -406 508 -406Q494 -384 483 -377Q476 -358 466 -340Q461 -322 454 -303Q450 -297 448 -288Q448 -277 447 -266Q444 -246 441 -227Q438 -222 442 -207Q439 -198 446 -190Q453 -182 462 -186Q463 -192 472 -194Q478 -193 489 -198Q498 -203 505 -202Q519 -200 524 -213Q527 -228 533 -242Q533 -249 536 -257Q539 -265 532 -269Q526 -268 509 -273Q501 -277 490 -277Q486 -279 482 -282Q477 -285 480 -290Q488 -292 498 -292Q526 -300 541 -303Q549 -305 548 -313Q547 -321 546 -327Q548 -345 537 -350Q529 -351 509 -359Q506 -363 498 -362Q491 -361 489 -364Q499 -372 514 -372Q542 -386 572 -394Q578 -398 594 -400Q610 -403 625 -406Q626 -407 647 -412Q663 -416 679 -420Q699 -422 716 -416Q739 -418 751 -413Q767 -416 779 -394Q779 -391 785 -386Q790 -381 791 -377Q791 -370 794 -361Q793 -352 797 -334Q795 -319 792 -305Q791 -301 785 -296Q781 -293 779 -289Q779 -286 775 -280Q770 -273 772 -267Q773 -261 769 -259Q766 -256 763 -252Q763 -230 756 -213Q756 -206 746 -198Q736 -188 724 -187Q718 -186 698 -188ZM695 -385Q661 -381 626 -368Q616 -365 605 -363Q596 -361 592 -359Q584 -356 585 -349Q591 -333 591 -321Q589 -316 593 -313Q597 -310 602 -313Q608 -313 628 -315Q637 -316 637 -309Q638 -301 633 -294Q632 -290 624 -286Q619 -284 617 -281Q613 -273 606 -273Q601 -277 588 -269Q581 -267 581 -260Q581 -254 580 -248Q580 -239 579 -233Q574 -229 576 -224Q578 -218 585 -219Q602 -225 621 -226Q634 -229 647 -233Q656 -233 686 -240Q692 -239 697 -245Q702 -250 700 -256Q698 -259 700 -260Q702 -260 704 -261Q709 -264 709 -270Q708 -276 710 -280Q708 -289 720 -299Q728 -305 726 -317Q737 -323 740 -332Q744 -342 740 -353Q740 -377 719 -386Q697 -386 695 -385ZM715 -186Q734 -172 739 -161Q747 -143 743 -136Q736 -131 728 -126Q718 -104 709 -93Q705 -89 710 -86Q715 -84 721 -87Q728 -87 735 -87Q747 -85 755 -89Q755 -100 755 -112Q756 -116 752 -119Q748 -122 748 -123Q759 -128 777 -110Q783 -110 788 -102Q793 -94 796 -92Q805 -85 805 -69Q804 -62 805 -56Q806 -49 801 -47Q799 -47 795 -44Q789 -39 786 -41Q781 -40 778 -44Q774 -48 770 -52Q759 -52 749 -54Q739 -56 730 -51Q724 -51 717 -50Q704 -45 688 -48Q668 -40 661 -41Q657 -55 652 -70Q650 -71 649 -74Q648 -78 646 -78Q641 -91 647 -104Q657 -115 665 -129Q670 -138 682 -151Q699 -169 703 -181Q704 -186 709 -185Q714 -184 715 -186Z"/>
</svg>