<svg xmlns="http://www.w3.org/2000/svg" viewBox="0 -800 1024 1024">
	<path fill="#000000" d="M635 -693Q641 -694 646 -691Q651 -687 663 -687Q672 -687 676 -685Q697 -674 700 -657Q704 -645 703 -631Q702 -618 694 -606Q692 -596 692 -586Q699 -582 704 -586Q709 -591 714 -593Q739 -589 752 -593Q756 -588 761 -590Q766 -592 771 -593Q772 -591 778 -591Q783 -591 783 -589Q780 -581 786 -575Q786 -570 790 -569Q797 -569 796 -563Q801 -560 799 -557Q796 -554 795 -551Q782 -547 743 -541Q735 -540 726 -539Q722 -538 698 -535Q691 -533 683 -533Q675 -533 670 -527Q664 -512 657 -498Q653 -496 654 -490Q655 -485 660 -486Q664 -485 663 -476Q662 -470 665 -467Q670 -465 681 -472Q688 -477 693 -477Q699 -477 709 -482Q721 -488 727 -487Q741 -477 756 -475Q760 -475 763 -471Q766 -466 770 -467Q780 -458 777 -444Q774 -431 771 -419Q760 -399 749 -380Q743 -369 755 -365Q759 -355 762 -345Q746 -340 732 -339Q727 -337 714 -335Q698 -333 691 -328Q690 -320 682 -321Q676 -322 671 -327Q660 -317 648 -308Q630 -304 620 -281Q606 -274 596 -259Q593 -252 587 -244Q581 -236 582 -228Q652 -258 660 -260Q665 -264 681 -268Q699 -273 708 -280Q717 -281 731 -285Q749 -291 757 -291Q772 -294 786 -298Q822 -305 835 -304Q882 -312 929 -274Q947 -256 951 -236Q949 -234 951 -229Q953 -225 951 -222Q951 -217 945 -205Q940 -195 940 -187Q932 -181 927 -170Q924 -164 916 -158Q908 -151 906 -149Q902 -144 898 -140L882 -120Q878 -115 874 -111Q871 -111 862 -104Q861 -100 857 -96Q853 -91 854 -86Q865 -84 875 -81Q886 -78 892 -68Q895 -67 894 -65Q891 -61 890 -57Q887 -54 891 -51Q899 -48 896 -46Q889 -46 883 -40Q881 -43 883 -51Q884 -56 883 -59Q879 -56 878 -50Q877 -44 877 -39Q861 -34 843 -35H805Q794 -35 782 -35Q773 -35 764 -35Q755 -31 750 -33Q736 -30 725 -35Q718 -30 715 -32Q701 -30 687 -32Q679 -30 667 -32Q654 -34 647 -32Q645 -33 640 -33L624 -34Q621 -34 617 -35Q582 -31 556 -43Q553 -46 543 -49Q533 -52 530 -56Q532 -59 539 -59Q548 -59 549 -65Q542 -77 536 -88L524 -110Q519 -113 522 -122Q524 -129 521 -131Q520 -135 520 -152Q518 -158 521 -168Q523 -175 523 -178Q523 -195 531 -208Q547 -228 560 -248Q573 -267 592 -284Q595 -284 599 -290Q604 -296 609 -297Q622 -303 637 -317Q643 -321 642 -327Q641 -328 639 -327Q634 -320 625 -323Q616 -331 606 -341Q596 -350 594 -362Q589 -371 586 -383Q582 -386 575 -381Q569 -377 565 -377Q561 -373 555 -374Q549 -375 543 -374Q540 -376 533 -373Q525 -369 521 -372Q522 -380 530 -387Q532 -389 543 -397Q546 -399 554 -408Q560 -416 564 -417Q580 -438 592 -464Q596 -468 599 -477Q603 -488 608 -492Q614 -505 619 -518Q617 -522 601 -519Q579 -519 566 -521Q544 -523 527 -530Q522 -530 516 -530Q515 -537 523 -539Q579 -554 581 -554Q596 -557 611 -560Q626 -563 639 -571Q639 -575 642 -580Q647 -589 645 -594Q648 -609 650 -624Q651 -632 652 -641Q652 -650 647 -657Q626 -654 610 -662Q605 -663 603 -669Q600 -675 602 -680Q619 -686 635 -693ZM268 -655H274Q277 -650 279 -650Q281 -650 284 -654Q290 -656 291 -650Q292 -645 295 -645Q301 -651 307 -647Q312 -649 314 -645Q316 -641 319 -640Q323 -640 323 -638Q321 -634 321 -629Q321 -627 324 -627Q328 -621 322 -617Q316 -613 308 -615Q300 -607 284 -607Q282 -605 279 -608Q276 -610 274 -606Q256 -599 249 -601Q239 -598 232 -599Q230 -601 226 -598Q222 -596 220 -598Q191 -595 163 -600Q145 -600 142 -605Q138 -615 146 -621Q153 -626 164 -627Q166 -624 168 -625Q171 -632 178 -629Q194 -637 211 -641Q221 -642 227 -650Q241 -655 252 -652Q254 -654 260 -653Q265 -652 268 -655ZM293 -548Q300 -550 302 -543Q313 -540 327 -526Q341 -528 349 -530Q354 -530 365 -534Q376 -538 382 -537Q384 -535 392 -535Q399 -535 402 -533Q406 -535 410 -530Q414 -525 417 -529Q432 -525 435 -518Q438 -517 442 -512Q447 -506 452 -505Q466 -489 473 -479Q471 -468 483 -456Q480 -453 480 -449Q480 -446 485 -446Q490 -442 488 -434Q487 -426 488 -419Q488 -403 490 -388Q489 -375 485 -363Q485 -352 487 -342Q487 -331 486 -320Q483 -317 486 -310Q488 -306 486 -303Q481 -296 482 -280Q483 -264 479 -257Q479 -234 478 -211Q476 -199 473 -188Q472 -178 469 -170Q470 -157 465 -139Q462 -136 459 -131Q457 -126 452 -126Q439 -123 430 -134Q415 -146 403 -157Q398 -175 393 -180Q399 -186 410 -188Q413 -192 414 -201Q415 -211 419 -215Q424 -220 423 -232Q422 -244 427 -250Q426 -279 433 -322Q435 -345 437 -369Q436 -374 438 -383Q440 -393 437 -398Q438 -403 436 -414Q434 -425 436 -432Q434 -445 432 -452Q433 -469 423 -481Q412 -494 398 -495Q388 -495 378 -495Q372 -490 346 -488Q335 -484 331 -480Q326 -475 326 -464L323 -449Q323 -444 322 -442Q322 -431 320 -420Q317 -409 326 -401Q328 -399 332 -401Q337 -403 340 -402Q351 -408 357 -400Q372 -398 387 -397Q393 -382 400 -379Q404 -380 404 -376Q404 -371 402 -369Q394 -368 386 -363Q383 -364 376 -361Q370 -358 365 -359Q358 -351 345 -349Q322 -336 318 -335Q314 -329 303 -320Q294 -313 291 -307Q289 -304 291 -303Q296 -301 301 -304Q310 -300 320 -300Q318 -291 327 -289Q334 -285 326 -274Q304 -266 286 -269L244 -265Q232 -262 229 -270Q231 -272 228 -275Q224 -278 224 -279Q228 -283 240 -288Q252 -293 257 -298Q273 -299 281 -316Q293 -325 307 -342Q320 -357 324 -361Q327 -366 323 -368Q319 -370 315 -372Q305 -375 297 -387Q292 -395 285 -408Q283 -446 287 -463Q288 -472 277 -465Q267 -463 267 -445Q267 -432 263 -427Q264 -417 259 -408Q256 -403 255 -391Q253 -374 248 -367Q244 -354 240 -342Q237 -335 234 -327Q232 -319 225 -318Q220 -322 214 -327Q207 -332 206 -340Q196 -351 208 -362Q209 -373 213 -382Q219 -392 220 -404Q227 -414 227 -432Q236 -448 231 -462Q231 -466 228 -467Q224 -468 221 -469Q212 -468 203 -468Q199 -467 198 -470Q197 -475 196 -476Q201 -481 214 -484Q224 -487 229 -490Q237 -491 236 -500Q235 -510 229 -512Q222 -515 225 -520Q228 -525 227 -529Q225 -535 230 -536Q235 -537 240 -538Q250 -529 257 -518Q261 -515 263 -510Q266 -505 272 -505Q279 -509 288 -511Q296 -513 297 -522Q295 -526 299 -530Q302 -534 301 -537Q302 -540 297 -541Q291 -545 293 -548ZM180 -520Q183 -517 185 -512Q190 -507 190 -491Q187 -474 181 -463Q181 -457 174 -450Q166 -441 168 -435Q160 -421 156 -405Q149 -388 152 -381Q149 -357 145 -334Q145 -328 143 -322Q140 -312 142 -307Q139 -302 141 -288Q143 -278 141 -272Q143 -268 145 -242Q146 -228 146 -214Q152 -208 155 -198Q158 -194 155 -190Q151 -184 156 -182Q221 -187 256 -197Q316 -205 329 -203Q343 -204 357 -200Q361 -203 366 -196Q371 -189 375 -192Q376 -190 372 -188Q366 -185 370 -180Q374 -179 373 -174Q372 -170 373 -169Q372 -158 351 -161Q348 -159 343 -161Q338 -163 336 -161Q321 -165 312 -161Q308 -162 304 -163Q301 -165 298 -161Q283 -162 258 -157Q256 -156 249 -157Q240 -158 236 -154Q231 -155 213 -152Q198 -150 182 -148Q174 -147 165 -147Q156 -146 146 -146Q134 -149 128 -154Q106 -166 96 -182Q88 -188 85 -205Q82 -220 79 -225Q79 -233 85 -245Q91 -258 91 -264Q87 -286 94 -306Q92 -318 96 -342Q98 -348 102 -367Q107 -390 113 -401Q115 -429 126 -449Q138 -469 149 -489Q165 -501 180 -520ZM721 -444H719Q710 -443 699 -439Q681 -432 672 -433Q668 -431 663 -432Q656 -434 655 -426Q649 -423 648 -412Q648 -403 646 -401Q647 -396 643 -389Q639 -383 639 -379Q637 -368 649 -362Q668 -362 686 -372Q701 -370 708 -392Q721 -414 727 -437Q730 -441 727 -444Q724 -447 721 -444ZM843 -257Q837 -257 829 -255Q824 -254 747 -237Q724 -237 704 -228Q705 -223 713 -221Q719 -220 721 -217L736 -203Q740 -190 735 -178Q734 -168 734 -157Q734 -147 729 -137Q725 -134 725 -124Q725 -116 722 -111Q718 -107 717 -98Q715 -87 713 -84Q716 -79 722 -80Q728 -81 733 -80Q735 -82 742 -81Q749 -80 752 -83Q771 -79 799 -103Q810 -107 814 -114Q821 -124 828 -135Q834 -139 840 -148Q850 -161 857 -163Q875 -178 884 -208Q891 -215 889 -224Q887 -233 886 -242Q871 -262 843 -257ZM691 -225Q675 -225 672 -216Q687 -199 681 -185Q678 -182 675 -172Q672 -162 667 -157Q667 -131 663 -107Q654 -100 654 -91Q648 -90 644 -94Q640 -99 636 -101Q614 -117 620 -139Q623 -148 626 -157Q632 -163 637 -179Q641 -192 646 -198Q647 -202 649 -207Q651 -212 646 -213Q630 -208 610 -207Q603 -208 594 -203Q583 -198 576 -199Q568 -202 566 -194Q563 -186 561 -179Q562 -172 562 -166Q563 -154 564 -142Q576 -127 579 -123Q583 -112 595 -97Q605 -84 608 -79Q608 -66 626 -70Q630 -73 647 -73Q650 -75 656 -75Q664 -75 666 -77Q678 -77 683 -88Q679 -101 686 -108Q690 -126 694 -144Q704 -169 707 -201Q709 -207 701 -210Q693 -213 695 -217Q699 -218 697 -222Q693 -226 691 -225Z"/>
</svg>