<svg xmlns="http://www.w3.org/2000/svg" viewBox="0 -800 1024 1024">
	<path fill="#000000" d="M250 -664L258 -660Q263 -662 271 -658Q277 -655 280 -655Q282 -652 289 -649Q298 -645 299 -640Q306 -632 306 -622Q305 -611 307 -601Q302 -587 298 -574Q293 -566 290 -556Q288 -543 280 -533Q272 -523 266 -513Q265 -508 259 -500Q253 -492 252 -489Q252 -482 248 -475Q247 -471 252 -471Q270 -476 280 -482Q302 -488 323 -488Q335 -491 344 -487Q354 -483 364 -480Q376 -471 387 -462Q388 -448 388 -442Q387 -430 380 -428L371 -410Q372 -401 366 -395Q360 -390 356 -383Q348 -377 345 -367Q341 -365 335 -357Q329 -349 323 -346Q322 -340 316 -340Q310 -340 308 -337Q304 -334 296 -332Q285 -329 281 -324Q275 -326 273 -321Q271 -316 268 -312Q269 -310 269 -302Q269 -292 272 -288Q271 -253 269 -219Q272 -206 272 -193Q278 -191 282 -196Q286 -202 290 -205Q310 -231 331 -254Q368 -295 393 -340Q408 -361 421 -386Q422 -374 416 -364Q406 -346 399 -329Q393 -324 393 -313Q393 -303 390 -299Q386 -295 385 -284Q384 -275 383 -272Q374 -268 373 -259Q372 -254 366 -248Q358 -240 358 -233Q353 -231 352 -224Q351 -218 347 -217Q343 -209 340 -200Q338 -192 329 -187Q321 -175 321 -161Q305 -146 293 -127Q294 -123 289 -118Q283 -112 282 -109Q281 -106 277 -104Q272 -102 272 -100Q267 -90 261 -81Q261 -74 256 -75Q251 -76 248 -79Q243 -78 237 -84Q231 -91 227 -91Q226 -93 224 -95L216 -103Q215 -105 213 -107Q210 -110 212 -117Q214 -124 209 -127Q203 -127 203 -132Q203 -137 203 -143Q197 -152 205 -166Q211 -178 210 -184Q210 -186 216 -219Q220 -230 221 -260Q222 -283 225 -296Q226 -306 226 -316Q228 -345 233 -372Q238 -389 234 -404Q217 -398 203 -385Q202 -381 197 -375Q191 -369 191 -365Q183 -349 170 -334Q165 -324 153 -324Q146 -321 139 -334Q141 -346 134 -346Q132 -345 132 -341Q131 -347 121 -353Q121 -357 114 -363Q110 -367 108 -371Q96 -380 101 -391Q113 -388 131 -404Q138 -410 141 -428Q146 -428 148 -433Q149 -439 150 -442Q156 -446 161 -460Q164 -469 167 -473Q169 -484 174 -492Q173 -496 171 -497Q169 -498 167 -496Q161 -493 161 -484Q161 -481 160 -479Q158 -478 157 -479Q154 -480 156 -486Q176 -524 194 -548Q209 -570 225 -593Q240 -616 246 -643Q247 -647 246 -653Q244 -661 250 -664ZM754 -619Q773 -619 778 -617Q789 -620 799 -613Q812 -613 830 -604Q840 -600 848 -590Q855 -581 862 -572Q862 -568 866 -561Q871 -553 870 -547Q878 -535 877 -520Q872 -514 879 -501Q883 -493 883 -488Q886 -480 878 -468L881 -442Q881 -432 881 -423Q885 -409 877 -382Q881 -361 878 -350Q875 -347 875 -330Q872 -314 874 -310Q874 -292 874 -274Q874 -263 874 -252Q870 -236 870 -218Q867 -210 867 -170Q867 -140 864 -110Q862 -90 859 -70Q854 -54 848 -38Q841 -32 839 -21Q838 -14 833 -9Q827 -4 823 2Q820 3 819 10Q818 15 815 17Q808 15 796 25Q788 27 779 29Q774 26 770 18Q767 12 763 9Q752 2 743 -7Q734 -17 723 -22Q712 -27 702 -33Q699 -36 700 -37Q701 -37 704 -38Q727 -38 749 -38Q753 -40 762 -40Q773 -40 777 -44Q788 -54 791 -67Q794 -80 797 -93Q799 -111 805 -138Q806 -140 806 -143L807 -153Q808 -155 808 -158Q809 -171 809 -185L814 -202Q816 -227 817 -253Q819 -260 820 -268Q820 -289 820 -311Q821 -323 824 -330Q823 -344 826 -358Q828 -386 829 -415Q831 -422 829 -435Q831 -459 826 -481Q822 -503 820 -525Q817 -538 813 -551Q797 -582 776 -581Q761 -581 748 -579Q740 -581 727 -575Q717 -571 710 -571Q701 -568 690 -563Q681 -563 671 -558Q664 -560 656 -555Q645 -547 644 -547Q629 -548 619 -539Q593 -540 545 -544Q540 -547 531 -545Q521 -543 518 -547Q521 -554 531 -554Q577 -580 629 -594Q650 -600 671 -607Q683 -607 698 -612Q716 -614 734 -617Q747 -617 754 -619ZM622 -462Q625 -462 627 -462L631 -460Q644 -451 642 -445Q642 -438 636 -432Q635 -431 623 -422Q594 -415 564 -402Q547 -405 537 -391Q533 -391 532 -393Q529 -400 518 -397Q510 -395 507 -397Q495 -399 483 -402Q479 -405 467 -406Q457 -407 452 -411Q462 -417 468 -417Q494 -426 520 -436Q540 -444 560 -452Q564 -452 572 -455Q581 -459 588 -457Q604 -462 622 -462ZM321 -450L307 -445Q296 -442 287 -437Q277 -429 285 -417Q283 -389 281 -362Q281 -358 282 -357Q287 -359 291 -366Q307 -386 320 -407Q326 -412 326 -418Q326 -424 328 -430Q330 -436 329 -444Q328 -452 321 -450ZM533 -386Q533 -381 533 -377Q525 -358 527 -352Q526 -350 530 -345Q534 -339 532 -335Q529 -333 531 -330Q533 -327 536 -326Q580 -344 620 -355Q625 -355 634 -358Q645 -362 652 -360Q667 -365 678 -355Q683 -357 697 -350Q702 -348 700 -341Q699 -336 700 -333Q711 -317 703 -306Q697 -303 695 -290Q694 -282 691 -278Q687 -275 684 -269Q679 -260 675 -258Q666 -257 662 -249Q658 -242 653 -235Q642 -227 650 -218Q660 -221 663 -210Q668 -203 667 -190Q665 -184 659 -183Q653 -182 648 -181Q625 -186 602 -184Q588 -184 573 -185Q568 -183 556 -183Q541 -181 537 -182Q527 -185 520 -180Q513 -176 506 -172Q491 -187 476 -196Q465 -200 464 -208Q463 -213 457 -222Q450 -232 451 -240Q457 -263 466 -284Q471 -295 473 -306Q475 -318 483 -327Q490 -345 505 -358Q519 -372 533 -386ZM635 -315Q623 -313 620 -311Q600 -309 583 -301Q577 -298 571 -298Q556 -300 543 -305Q534 -312 528 -303Q521 -287 522 -280Q524 -275 518 -267Q513 -260 513 -255Q515 -250 510 -231Q509 -226 505 -220Q502 -215 509 -211L528 -214Q537 -218 558 -218Q568 -223 581 -223Q585 -226 594 -225Q607 -224 610 -230Q619 -247 627 -264Q635 -284 642 -305Q646 -309 643 -314Q640 -319 635 -315Z"/>
</svg>