<svg xmlns="http://www.w3.org/2000/svg" viewBox="0 -800 1024 1024">
	<path fill="#000000" d="M641 -637Q646 -638 652 -633Q660 -627 665 -628Q673 -628 677 -621Q681 -614 686 -609Q694 -605 693 -597Q691 -589 690 -581Q690 -580 695 -563Q693 -553 691 -502Q690 -487 688 -473Q686 -470 688 -457Q686 -447 686 -435Q685 -430 682 -424Q680 -418 684 -413Q695 -412 705 -418Q711 -421 717 -425Q719 -429 723 -428Q727 -428 730 -429Q750 -427 756 -428Q766 -430 779 -427Q793 -426 807 -421Q817 -417 827 -411Q833 -398 838 -385Q842 -373 837 -362Q833 -351 831 -339Q832 -329 825 -322Q818 -316 812 -309Q806 -304 803 -298Q800 -291 797 -285Q791 -284 784 -275Q780 -270 777 -268L765 -254Q757 -246 752 -242Q740 -236 731 -226Q724 -226 714 -219Q706 -214 702 -213Q693 -218 695 -233Q696 -237 689 -244Q683 -250 687 -254Q697 -257 706 -261Q714 -268 723 -276Q731 -285 734 -295Q748 -312 758 -333Q763 -344 767 -356Q775 -369 765 -372Q739 -372 712 -362Q702 -358 692 -358Q677 -356 676 -345Q674 -334 675 -324Q675 -305 671 -288Q670 -274 666 -261Q662 -250 658 -228Q655 -216 652 -205Q652 -192 646 -186Q638 -176 632 -167Q625 -166 622 -172Q618 -179 615 -183Q607 -192 606 -204Q605 -215 603 -226Q607 -250 611 -275Q614 -289 616 -303Q615 -307 617 -314Q620 -324 615 -327Q604 -324 592 -322Q586 -321 577 -317Q566 -311 560 -312Q554 -310 547 -310Q540 -309 537 -303L536 -276Q529 -261 525 -220Q526 -216 524 -207Q522 -196 525 -191Q527 -174 542 -162Q554 -152 566 -142Q570 -141 577 -133Q584 -125 590 -123Q599 -122 621 -114Q682 -113 743 -113Q763 -115 783 -117Q814 -119 845 -122Q861 -124 878 -125Q897 -126 915 -127Q925 -128 935 -130Q946 -132 949 -143Q954 -154 954 -180Q952 -187 957 -189Q959 -189 960 -185Q962 -183 963 -177Q964 -169 967 -166Q971 -158 979 -150Q982 -147 983 -140Q985 -130 990 -127Q995 -126 999 -121V-88Q990 -89 976 -83Q945 -84 917 -78Q900 -79 868 -77Q854 -75 840 -73Q815 -74 788 -71Q780 -72 774 -70Q770 -70 766 -71Q760 -71 754 -71L729 -70Q723 -70 717 -70Q695 -71 672 -73Q639 -73 615 -77Q592 -82 573 -91Q541 -103 519 -126Q502 -143 480 -180Q467 -212 468 -227Q469 -234 469 -241Q469 -246 477 -286Q481 -290 479 -296Q477 -301 472 -300Q466 -299 456 -295Q444 -295 446 -316Q451 -323 465 -330Q478 -335 491 -345Q493 -360 501 -386Q505 -394 498 -401Q491 -402 488 -408Q484 -415 492 -418Q512 -421 531 -425Q536 -424 542 -425Q548 -425 551 -419Q556 -411 561 -404Q560 -395 562 -387Q564 -378 556 -373Q552 -371 554 -368Q557 -364 561 -366Q568 -367 620 -383Q629 -385 632 -393L633 -424Q637 -462 640 -501Q641 -539 638 -576Q637 -590 636 -604Q633 -611 621 -612Q611 -613 610 -618Q626 -627 641 -637ZM433 -282Q429 -278 429 -264Q429 -254 427 -249Q420 -220 409 -192Q406 -189 404 -172Q401 -168 398 -164L389 -147Q387 -145 383 -139Q369 -115 354 -91L322 -56Q310 -54 308 -47Q307 -42 301 -44Q296 -46 296 -50Q289 -57 282 -71Q276 -82 272 -87Q265 -107 250 -120Q246 -119 246 -124Q245 -127 248 -125Q260 -119 274 -115Q278 -117 285 -116Q293 -114 296 -115Q306 -116 313 -137L340 -187Q340 -200 348 -207Q349 -221 354 -231Q356 -235 357 -249Q358 -264 363 -270Q367 -327 357 -346Q354 -360 341 -361Q319 -363 309 -357Q298 -360 289 -355Q275 -352 261 -350Q248 -347 235 -345Q221 -348 212 -345Q206 -340 199 -335Q193 -338 177 -336Q156 -351 148 -375Q148 -386 147 -398Q158 -409 156 -418Q159 -433 162 -448Q167 -458 170 -467Q174 -498 186 -525Q189 -531 188 -543Q187 -556 189 -561Q191 -564 185 -572Q174 -583 162 -592Q157 -595 160 -598Q163 -601 168 -599Q178 -599 190 -602Q225 -623 268 -633Q279 -638 292 -635Q300 -638 310 -633Q321 -629 328 -626Q340 -628 343 -624Q343 -619 351 -612Q360 -604 357 -597Q357 -580 355 -577Q344 -571 346 -554Q334 -535 326 -516Q316 -510 320 -492Q311 -476 307 -472Q300 -469 302 -463Q303 -457 302 -452Q291 -451 277 -437Q263 -436 268 -416Q258 -407 247 -417Q246 -431 251 -445Q262 -466 273 -487Q285 -539 297 -571Q298 -580 289 -589Q283 -594 277 -591Q270 -588 264 -586Q253 -586 241 -576Q232 -575 224 -575Q216 -576 211 -568Q213 -564 222 -561Q229 -558 232 -554Q244 -537 238 -520Q230 -509 232 -494Q234 -488 229 -480Q224 -471 226 -466Q222 -448 218 -441Q220 -435 215 -424Q212 -417 212 -412Q212 -407 210 -400Q209 -393 216 -392Q218 -393 235 -398Q238 -397 255 -402Q258 -405 269 -407Q299 -409 328 -411Q340 -415 350 -409Q360 -408 370 -407Q382 -406 393 -399Q400 -396 404 -389Q409 -382 415 -376Q417 -370 427 -355Q429 -346 431 -338Q436 -314 433 -282ZM305 -284Q322 -284 323 -274Q328 -269 324 -263Q321 -257 319 -252Q319 -243 312 -242Q304 -241 298 -237Q245 -228 229 -222Q189 -213 144 -193Q130 -188 117 -180Q100 -178 94 -163Q87 -153 78 -162Q67 -166 63 -180Q56 -188 29 -200Q24 -200 22 -205Q27 -212 34 -212Q41 -212 49 -213Q53 -213 60 -218Q68 -224 73 -223Q80 -214 88 -219Q92 -225 109 -229Q121 -232 133 -236Q136 -235 142 -239Q146 -242 150 -242Q163 -249 175 -250Q178 -255 184 -254Q190 -254 195 -255Q192 -259 194 -260Q199 -261 203 -260Q214 -262 225 -265Q228 -271 235 -270Q238 -270 242 -270Q246 -270 246 -273Q248 -276 257 -276Q265 -276 268 -279Q287 -280 305 -284Z"/>
</svg>