<svg xmlns="http://www.w3.org/2000/svg" viewBox="0 -800 1024 1024">
	<path fill="#000000" d="M238 -649H240Q245 -646 259 -647Q275 -648 279 -639Q299 -635 298 -623Q308 -610 298 -599Q296 -592 294 -586Q288 -581 287 -573Q285 -565 282 -558Q276 -544 261 -511Q260 -506 256 -499Q249 -488 253 -484Q309 -514 355 -524Q371 -530 383 -529Q396 -528 408 -526Q420 -524 426 -511Q431 -503 436 -495Q435 -481 442 -468Q445 -460 434 -455Q432 -434 425 -427Q423 -411 412 -409Q406 -413 404 -403Q401 -394 397 -404Q392 -409 389 -404Q387 -397 386 -392Q386 -384 378 -377Q369 -369 367 -364Q359 -356 350 -353Q346 -353 342 -357Q332 -349 322 -349Q314 -347 306 -346Q311 -365 323 -377Q326 -383 337 -395Q350 -408 353 -417Q356 -419 358 -427Q359 -434 364 -435Q365 -444 371 -455Q379 -469 378 -478Q369 -481 361 -478Q352 -474 343 -473Q326 -467 309 -461Q292 -452 275 -444Q260 -435 244 -426Q240 -422 212 -402Q208 -400 201 -393Q193 -385 188 -384Q179 -370 173 -358Q163 -344 163 -335Q161 -334 158 -328Q155 -322 153 -323Q144 -327 135 -332Q120 -350 104 -369Q109 -389 112 -392Q121 -395 127 -404Q129 -407 134 -421Q137 -424 138 -434Q140 -448 146 -451Q156 -459 163 -471Q170 -483 178 -495Q187 -505 190 -516Q194 -520 198 -524Q203 -527 202 -535Q199 -544 204 -552Q209 -560 211 -567Q214 -567 216 -574Q218 -580 222 -580Q226 -599 234 -616Q242 -624 231 -642Q228 -646 229 -647Q234 -648 238 -649ZM274 -409Q292 -400 294 -378Q297 -372 290 -365Q285 -360 285 -356Q287 -351 282 -346Q277 -340 278 -337Q278 -336 275 -305Q276 -298 272 -283Q267 -264 271 -253Q266 -245 266 -215Q264 -210 264 -184Q263 -168 261 -152Q263 -136 261 -120Q262 -115 262 -107Q262 -99 265 -97Q288 -111 306 -132Q347 -173 362 -221Q367 -218 366 -212Q365 -205 365 -199Q361 -187 357 -176Q356 -170 358 -163Q359 -157 352 -154Q348 -142 343 -130Q345 -120 339 -114Q333 -107 329 -101Q325 -92 321 -83Q323 -77 317 -71Q311 -67 308 -63Q305 -59 299 -60Q295 -63 293 -59Q291 -54 289 -49Q289 -47 283 -44Q279 -40 274 -40Q265 -43 255 -46L224 -67Q217 -69 213 -78Q210 -82 203 -109Q200 -116 202 -129Q205 -144 202 -151Q204 -159 205 -167Q209 -173 209 -184Q209 -195 211 -199Q215 -219 218 -239Q223 -258 223 -283Q226 -290 227 -309Q228 -331 235 -341Q234 -348 239 -359Q245 -371 242 -378Q243 -392 256 -408Z"/>
</svg>