<svg xmlns="http://www.w3.org/2000/svg" viewBox="0 -800 1024 1024">
	<path fill="#000000" d="M505 -733Q533 -733 538 -732Q552 -732 565 -726Q572 -722 581 -724Q595 -717 601 -717Q606 -715 607 -708Q608 -699 612 -697Q620 -687 612 -677Q598 -677 583 -677Q547 -686 537 -691Q509 -699 483 -719Q479 -720 476 -722Q472 -725 474 -727Q490 -730 505 -733ZM720 -646H759Q773 -643 787 -640Q797 -639 806 -632Q815 -625 825 -619Q831 -618 833 -611Q834 -604 835 -598Q841 -588 840 -578Q841 -565 832 -553Q831 -549 824 -547Q817 -546 816 -542Q815 -538 808 -537Q803 -536 801 -534Q790 -529 778 -524Q767 -525 758 -521Q750 -517 741 -514Q730 -507 712 -505Q711 -505 711 -506Q715 -510 719 -515L749 -546Q766 -566 774 -584Q779 -593 771 -599Q741 -603 725 -602Q719 -600 705 -599Q691 -598 684 -595Q666 -595 650 -590Q645 -587 634 -587Q622 -588 618 -585Q609 -579 600 -577Q585 -579 572 -574Q557 -570 542 -566Q537 -568 530 -563Q525 -559 522 -559Q513 -561 507 -557Q500 -553 493 -552Q483 -554 476 -550Q468 -546 460 -544Q450 -549 443 -543Q426 -540 412 -535Q395 -527 391 -524Q380 -516 381 -504Q374 -497 373 -490Q372 -483 366 -481Q359 -479 354 -476Q345 -480 340 -488Q335 -497 330 -504Q321 -524 324 -531Q324 -542 332 -549Q339 -556 344 -564Q378 -609 393 -620Q397 -624 401 -620Q404 -615 406 -611Q413 -607 417 -590Q421 -580 408 -567Q402 -564 401 -560Q399 -554 406 -553Q424 -559 438 -568Q452 -575 510 -597Q532 -605 555 -610Q568 -613 581 -617Q589 -619 597 -621Q637 -631 658 -635Q688 -642 720 -646ZM586 -518L588 -517L587 -488Q586 -482 588 -479Q590 -475 596 -477Q626 -492 641 -493Q661 -496 681 -493L694 -485Q706 -478 702 -456Q699 -436 691 -434Q685 -422 678 -410Q672 -410 672 -401Q672 -392 666 -391Q667 -388 669 -389Q671 -391 674 -389Q679 -387 678 -385Q674 -381 670 -377Q670 -369 656 -367Q636 -361 633 -361Q597 -361 580 -366Q571 -365 571 -345Q570 -329 568 -314Q563 -298 565 -287Q559 -282 561 -276Q563 -269 563 -262Q562 -244 560 -226Q560 -216 558 -205Q560 -203 559 -197Q558 -192 560 -189Q575 -188 591 -192Q605 -196 662 -203Q674 -212 682 -224Q690 -236 699 -248Q719 -278 727 -294Q729 -300 724 -301Q717 -302 712 -299Q696 -296 681 -291Q660 -287 638 -284Q630 -286 622 -289Q615 -288 598 -293Q596 -296 587 -298Q577 -300 575 -305Q581 -311 590 -312Q598 -313 605 -315Q648 -321 686 -334Q699 -334 711 -339Q725 -340 754 -336Q772 -327 780 -320Q790 -304 784 -298Q782 -300 781 -299Q778 -294 778 -289Q774 -287 769 -272Q765 -272 761 -265Q757 -257 753 -257Q747 -246 738 -238Q731 -230 723 -222Q721 -218 717 -214Q712 -211 714 -207Q728 -204 741 -202Q749 -195 751 -183Q750 -182 748 -182L740 -179Q739 -178 737 -177Q734 -171 729 -171Q723 -172 718 -172Q707 -170 696 -169Q667 -169 637 -169Q622 -167 609 -164Q598 -166 586 -167Q575 -167 565 -173Q559 -175 558 -169Q557 -162 561 -156Q556 -151 551 -149Q549 -152 545 -155Q541 -159 536 -154Q537 -147 527 -154Q521 -153 520 -157Q518 -162 517 -166Q512 -170 510 -177Q512 -183 505 -191Q499 -199 500 -204Q503 -230 509 -260Q512 -265 513 -280Q514 -296 520 -303Q523 -316 525 -329Q521 -341 527 -352Q529 -368 533 -385Q533 -390 533 -396Q533 -398 536 -402Q539 -407 536 -410Q538 -420 544 -446Q543 -458 547 -471Q550 -489 560 -506Q564 -513 572 -515Q580 -516 586 -518ZM214 -473Q240 -474 268 -466Q274 -462 282 -459Q290 -456 289 -445Q291 -429 274 -420Q270 -422 262 -418Q253 -414 248 -417Q242 -414 228 -420Q213 -423 197 -427Q177 -435 161 -445Q159 -450 153 -452Q146 -454 145 -457Q147 -464 164 -464Q188 -469 214 -473ZM646 -466Q645 -463 636 -460Q627 -452 613 -457Q608 -456 598 -460Q587 -461 585 -452Q582 -444 581 -436Q581 -429 581 -422Q581 -418 580 -415V-403Q579 -400 579 -396Q580 -394 578 -389Q576 -384 579 -382L601 -388Q612 -391 623 -395Q633 -398 637 -411Q654 -439 654 -462Q650 -464 646 -466ZM218 -334L245 -333Q263 -325 264 -317Q261 -306 258 -295Q255 -280 249 -265Q249 -248 244 -243Q237 -231 238 -216Q239 -201 238 -186Q240 -173 242 -161Q245 -148 258 -142Q262 -141 266 -137Q271 -132 273 -132Q279 -128 286 -123Q292 -119 295 -111Q319 -104 348 -101Q365 -100 381 -100Q422 -93 463 -87Q510 -81 512 -81Q543 -80 612 -70Q646 -66 680 -63Q686 -65 698 -63Q714 -61 721 -63Q724 -61 733 -62Q741 -63 744 -62Q761 -62 777 -62Q787 -62 796 -62Q831 -66 868 -66Q876 -67 887 -56Q892 -56 892 -51Q891 -47 887 -46Q885 -38 873 -26Q858 -18 839 -11Q836 -7 828 -6Q819 -4 816 0Q800 2 785 12Q767 13 743 10Q729 8 721 7Q712 7 703 6Q672 4 643 -5Q628 -6 608 -10Q588 -14 567 -19Q552 -22 537 -26Q530 -26 522 -26Q517 -27 512 -29Q508 -29 504 -29L489 -32Q485 -32 481 -32Q469 -35 456 -38Q436 -44 417 -47Q404 -48 391 -50Q380 -52 368 -55Q364 -54 357 -56Q348 -59 344 -57Q325 -61 305 -66Q291 -68 276 -70Q266 -70 255 -70Q247 -74 220 -89Q214 -97 208 -106Q201 -109 208 -113Q211 -115 210 -110Q226 -103 245 -103Q252 -102 253 -107Q253 -112 247 -115Q192 -152 196 -218Q196 -226 196 -234Q199 -256 201 -278Q203 -287 204 -298Q204 -308 194 -309Q189 -310 177 -318Q169 -324 163 -325Q168 -325 178 -332Q195 -328 218 -334Z"/>
</svg>