<svg xmlns="http://www.w3.org/2000/svg" viewBox="0 -800 1024 1024">
	<path fill="#000000" d="M548 -696Q549 -696 553 -694Q567 -694 570 -696Q583 -691 596 -687Q608 -678 610 -668Q609 -662 610 -656Q611 -650 607 -645Q606 -634 604 -624Q603 -614 601 -605Q597 -590 597 -576L595 -562L601 -563Q606 -561 614 -568Q620 -573 621 -573Q635 -573 648 -573Q661 -571 673 -569Q682 -567 692 -567Q697 -565 695 -562Q693 -558 692 -554Q692 -537 679 -534Q666 -529 653 -524Q632 -518 598 -517Q593 -517 590 -512Q586 -498 582 -484Q578 -465 577 -459L590 -461Q602 -461 616 -465Q629 -470 644 -472Q646 -475 654 -473Q662 -470 666 -473Q678 -476 692 -475Q698 -471 704 -468Q707 -458 698 -446Q697 -440 690 -437Q674 -436 660 -431Q656 -430 651 -429L632 -425Q628 -424 623 -423Q611 -420 598 -415Q595 -412 597 -409Q599 -406 604 -404Q623 -404 635 -398Q643 -399 649 -393Q655 -387 654 -379Q655 -375 650 -369Q646 -364 645 -361Q643 -353 638 -345Q628 -328 617 -312Q611 -306 610 -298Q609 -290 606 -283Q605 -266 603 -250Q606 -237 608 -232Q612 -228 621 -231Q630 -234 635 -233Q647 -231 653 -233Q658 -235 665 -232Q676 -234 686 -231Q695 -226 709 -225Q714 -227 729 -223Q730 -218 734 -213Q738 -209 736 -202Q729 -201 727 -192Q725 -185 722 -182Q718 -178 708 -176Q700 -175 697 -173Q684 -172 670 -168Q656 -168 641 -168Q620 -169 599 -171Q591 -174 586 -180Q577 -184 572 -198Q571 -202 565 -208Q558 -215 559 -220Q552 -233 554 -252Q553 -263 555 -270Q551 -277 559 -287Q558 -295 562 -309Q568 -325 580 -347Q582 -364 585 -370Q587 -372 584 -374Q577 -376 572 -374Q567 -370 562 -361Q557 -351 553 -348Q548 -336 539 -328Q531 -324 527 -318Q523 -311 518 -306Q505 -301 500 -294Q494 -293 492 -289Q491 -285 490 -280Q489 -275 477 -273Q469 -272 467 -270Q460 -257 449 -251Q438 -241 426 -234Q414 -230 404 -225Q403 -237 408 -247Q411 -251 406 -258Q402 -263 403 -267Q419 -272 421 -275Q423 -277 424 -285Q425 -295 430 -298Q444 -298 453 -307Q460 -320 468 -323Q478 -335 483 -339Q486 -346 495 -357Q505 -370 508 -377Q518 -382 519 -386Q518 -387 514 -386L500 -384Q477 -379 454 -375L426 -366Q413 -366 402 -363Q370 -375 355 -382Q351 -385 347 -386Q342 -388 342 -393Q354 -395 366 -397Q378 -402 392 -402Q403 -405 413 -408Q419 -408 433 -412Q446 -412 451 -416Q456 -415 464 -419Q471 -423 476 -422Q499 -429 517 -435Q520 -435 522 -436Q524 -443 525 -450L528 -466Q532 -485 533 -491Q535 -498 529 -499Q522 -501 518 -498Q502 -494 498 -488Q485 -483 471 -486Q462 -486 453 -486Q448 -491 442 -493Q439 -499 429 -504Q416 -511 413 -517Q408 -540 438 -573Q445 -581 453 -577Q461 -571 467 -563Q480 -557 473 -541Q470 -532 469 -524Q503 -530 537 -543L539 -579Q539 -588 541 -608Q541 -626 541 -644Q542 -651 543 -661Q543 -672 535 -676Q526 -676 522 -683Q521 -687 526 -688Q537 -692 548 -696ZM194 -586H196Q199 -584 209 -585Q220 -586 223 -581Q231 -576 231 -568Q230 -560 232 -552Q230 -550 232 -545Q234 -539 230 -536Q225 -527 213 -532Q191 -539 169 -547Q152 -556 150 -557Q140 -561 127 -572Q125 -578 129 -581Q133 -584 139 -580Q148 -582 166 -582Q180 -582 194 -586ZM125 -435Q137 -425 145 -424Q160 -420 174 -413Q190 -404 202 -393Q205 -392 206 -387Q207 -382 209 -381Q210 -369 210 -357Q208 -333 206 -310Q208 -295 209 -280Q206 -276 208 -267Q210 -260 209 -257Q210 -255 209 -247Q207 -239 211 -235Q207 -231 210 -225Q217 -214 223 -203Q229 -193 240 -183Q246 -177 253 -172Q260 -167 263 -158Q268 -154 272 -141Q276 -127 282 -123Q330 -123 378 -124Q411 -121 444 -118Q474 -113 503 -108Q519 -106 535 -104Q549 -101 562 -99Q595 -99 623 -91Q646 -86 669 -84Q691 -83 713 -83Q728 -80 741 -82Q781 -79 818 -80Q840 -77 862 -75Q873 -74 883 -74Q886 -74 891 -70Q896 -66 900 -68Q902 -66 909 -64Q918 -62 917 -58Q915 -46 906 -46Q898 -42 890 -38Q884 -36 872 -30Q856 -22 846 -21Q822 -4 775 -12Q774 -13 771 -13H768Q765 -13 763 -14Q730 -16 697 -19Q665 -23 651 -26Q643 -27 635 -28Q623 -30 592 -38Q561 -46 541 -48Q526 -55 507 -55Q496 -58 484 -62Q469 -63 455 -69Q448 -66 436 -72Q397 -80 354 -82Q340 -80 325 -82Q317 -85 310 -83Q291 -87 271 -91Q260 -89 250 -92Q240 -95 229 -96Q222 -98 214 -101Q205 -104 205 -114Q220 -110 234 -115Q248 -119 261 -123Q266 -121 267 -125Q267 -129 262 -130Q222 -155 193 -188Q176 -214 172 -235Q170 -249 167 -263Q165 -287 166 -310Q165 -348 163 -386Q159 -391 149 -397Q137 -404 133 -410Q119 -419 125 -435Z"/>
</svg>