<svg xmlns="http://www.w3.org/2000/svg" viewBox="0 -800 1024 1024">
	<path fill="#000000" d="M260 -713Q269 -710 278 -708Q280 -704 288 -697Q298 -689 298 -682Q299 -678 293 -675Q287 -672 290 -668Q290 -664 294 -665Q298 -667 301 -666Q320 -674 355 -659Q359 -657 359 -643Q360 -640 357 -633Q354 -627 356 -624Q373 -625 390 -629Q420 -636 446 -632Q461 -633 476 -622Q481 -616 487 -614Q492 -610 494 -601Q495 -596 498 -593Q504 -573 502 -550Q499 -546 500 -534Q501 -526 499 -520Q496 -517 497 -508Q498 -501 496 -497Q495 -492 498 -490Q499 -489 505 -488Q559 -483 611 -474Q631 -494 644 -514Q648 -516 651 -524Q654 -532 658 -535Q668 -551 674 -571Q679 -581 684 -593Q689 -605 685 -619Q685 -624 680 -630Q675 -636 670 -635Q626 -635 621 -636Q617 -639 610 -641Q603 -642 601 -649Q590 -650 582 -660Q580 -665 575 -663Q570 -661 567 -660Q564 -660 564 -664Q564 -669 565 -675Q566 -676 568 -674Q570 -679 575 -677Q578 -676 580 -679Q581 -690 592 -693Q595 -699 604 -695Q610 -692 613 -695Q625 -692 636 -687Q630 -678 632 -663Q649 -660 668 -661Q680 -661 691 -661Q700 -659 708 -657Q716 -655 720 -647Q735 -632 735 -614Q733 -608 732 -594Q731 -579 727 -572Q727 -565 718 -560Q711 -556 711 -552Q708 -549 702 -541Q695 -532 689 -528Q684 -527 681 -519Q678 -512 677 -511Q664 -495 654 -477Q655 -470 663 -470Q670 -471 676 -469Q683 -466 691 -467Q699 -468 718 -463Q721 -460 727 -459Q733 -458 735 -453Q741 -457 749 -454Q754 -450 761 -447Q767 -444 763 -435Q756 -428 763 -423Q763 -418 761 -418Q755 -419 751 -416Q742 -415 741 -414Q736 -412 738 -407Q736 -400 730 -403Q724 -406 724 -412Q704 -423 682 -428Q655 -431 627 -435Q617 -432 607 -418Q600 -408 594 -404Q583 -394 570 -387Q569 -384 567 -385Q564 -391 560 -389Q553 -395 541 -388Q533 -385 524 -382Q531 -388 538 -396Q544 -403 553 -407L582 -438Q591 -447 575 -449Q560 -453 544 -458Q537 -459 519 -465Q496 -473 480 -471Q474 -459 470 -434Q465 -422 454 -412Q457 -406 451 -400Q451 -392 445 -387Q440 -382 436 -376Q434 -367 424 -351Q415 -337 413 -329Q404 -318 400 -317Q395 -322 384 -316Q384 -320 378 -321Q373 -322 371 -324Q364 -325 349 -331Q332 -338 322 -338Q307 -342 292 -346Q287 -344 281 -347Q273 -350 270 -349Q262 -351 244 -351Q223 -354 207 -361Q190 -356 185 -371Q169 -387 165 -390Q160 -394 161 -398Q163 -402 163 -407Q157 -413 163 -418Q168 -423 171 -427Q174 -431 178 -437Q183 -443 177 -446Q171 -447 167 -445Q152 -443 137 -442Q125 -440 105 -449Q98 -452 90 -460Q94 -458 103 -463Q124 -467 143 -468Q153 -474 183 -474Q191 -477 200 -478Q208 -479 214 -487Q218 -486 224 -490Q229 -489 229 -496Q228 -502 224 -498Q218 -505 224 -510Q229 -516 231 -522Q233 -528 241 -533Q243 -545 253 -556Q279 -590 298 -625Q301 -631 301 -639Q300 -643 296 -641Q286 -641 279 -638Q273 -636 265 -632Q258 -628 252 -633Q251 -637 245 -639Q238 -641 238 -645Q223 -660 226 -670Q235 -682 243 -694Q246 -696 251 -703Q256 -710 260 -713ZM433 -598Q423 -597 412 -596Q404 -594 396 -594Q387 -594 380 -589Q377 -588 369 -587Q358 -586 355 -582Q339 -588 332 -577Q320 -569 320 -559L301 -539Q296 -525 288 -514Q290 -511 286 -506Q282 -500 282 -497Q286 -495 297 -498Q302 -500 306 -499Q318 -500 324 -504Q331 -502 335 -506Q338 -509 339 -515Q342 -530 347 -545Q352 -560 346 -576Q351 -575 358 -578Q362 -575 372 -573Q387 -570 392 -563Q396 -558 394 -551Q393 -545 393 -540Q393 -531 392 -522Q391 -513 400 -510Q417 -509 434 -509Q438 -506 440 -510Q442 -514 443 -517Q446 -573 442 -585Q441 -589 439 -594Q437 -600 433 -598ZM389 -474Q384 -471 384 -465Q382 -453 365 -422Q361 -406 348 -393Q344 -383 338 -381Q336 -371 346 -370Q355 -369 361 -366Q370 -365 379 -365Q388 -360 396 -378Q395 -383 400 -388Q404 -393 404 -397Q408 -402 409 -412Q410 -422 412 -425Q417 -433 422 -442Q421 -447 426 -469Q428 -474 425 -475Q418 -475 411 -474Q400 -474 389 -474ZM319 -467L311 -464Q306 -465 302 -463Q297 -461 292 -465Q288 -460 282 -461Q275 -461 269 -460Q267 -459 260 -457Q251 -455 250 -450Q237 -434 225 -417Q225 -413 219 -406Q213 -399 213 -394Q225 -389 238 -388Q252 -387 265 -385Q279 -382 292 -383Q292 -386 293 -390Q294 -393 299 -394Q302 -394 303 -398Q303 -402 305 -404Q308 -406 308 -413Q308 -418 309 -421Q316 -423 317 -430Q318 -437 320 -443Q322 -445 319 -448Q318 -450 320 -451Q323 -454 324 -462Q324 -468 319 -467ZM463 -381Q466 -382 467 -380Q468 -378 471 -378Q475 -380 479 -377Q483 -374 487 -372Q487 -371 488 -370Q494 -368 494 -364Q495 -361 496 -356Q495 -351 499 -351Q506 -353 514 -355Q516 -352 521 -354Q524 -355 526 -355Q535 -352 543 -350Q555 -344 558 -330Q558 -325 555 -323Q551 -322 546 -320L526 -297Q518 -297 516 -288Q511 -290 508 -286Q505 -282 502 -278Q498 -278 495 -273Q492 -269 488 -269Q469 -263 471 -253Q482 -253 504 -261Q516 -263 527 -265Q530 -267 538 -267Q545 -267 548 -270Q584 -277 594 -276Q596 -272 600 -274Q603 -277 605 -276Q620 -280 652 -276Q661 -272 670 -269Q672 -265 679 -260Q684 -257 687 -253Q690 -240 692 -239Q697 -235 694 -225Q692 -218 694 -214Q698 -207 695 -200Q691 -193 690 -185Q681 -167 677 -146Q673 -130 672 -129Q668 -121 663 -113Q657 -105 656 -95Q645 -76 630 -65Q624 -52 611 -48Q608 -47 605 -42Q601 -35 595 -36L583 -47Q581 -51 575 -52Q569 -53 569 -56Q566 -65 555 -62Q544 -64 535 -60Q486 -59 445 -47Q440 -45 429 -51Q419 -57 412 -54Q404 -44 392 -52Q375 -55 355 -77Q321 -98 326 -139Q329 -152 346 -198Q359 -214 369 -234Q380 -238 383 -243Q391 -253 401 -252Q431 -260 438 -268L470 -302Q475 -304 475 -310Q475 -313 477 -316Q479 -321 476 -322Q470 -324 462 -321Q458 -315 454 -311Q451 -309 448 -317L445 -322Q441 -330 436 -337Q430 -344 432 -354Q432 -361 438 -364Q444 -367 447 -371Q453 -371 457 -376Q461 -380 463 -381ZM608 -246Q592 -246 587 -244Q561 -244 537 -238Q522 -234 507 -230Q502 -230 496 -228Q494 -226 497 -223Q509 -225 511 -214Q518 -206 516 -196Q513 -186 514 -177Q512 -170 517 -169Q522 -167 526 -165Q531 -165 534 -160Q537 -154 532 -151Q529 -146 520 -144Q508 -141 506 -136Q502 -135 502 -128Q502 -123 500 -120Q503 -114 499 -99Q497 -90 497 -85Q501 -83 512 -84Q519 -85 523 -83Q531 -85 539 -87Q548 -87 557 -89Q565 -91 572 -82Q586 -82 599 -83Q609 -95 615 -105Q627 -117 631 -132Q634 -147 640 -162Q643 -176 646 -190Q647 -203 651 -216Q654 -229 646 -240Q637 -248 608 -246ZM435 -234L433 -230Q425 -229 421 -214Q410 -208 409 -207Q402 -202 401 -196Q389 -183 384 -158Q385 -153 381 -146Q378 -141 378 -138Q374 -124 375 -111Q386 -91 396 -97Q399 -95 402 -90Q405 -86 411 -86Q414 -84 418 -79Q424 -72 429 -70L455 -75Q460 -76 459 -83Q458 -90 459 -92L463 -131Q462 -138 451 -135Q433 -140 421 -149Q417 -151 418 -153Q419 -155 421 -156Q436 -152 447 -157Q458 -158 468 -163Q471 -177 471 -206Q475 -212 470 -217Q464 -221 459 -225Q459 -230 450 -234Q448 -232 442 -234Q438 -236 435 -234ZM573 -13V-12Q598 -14 610 -12Q631 -11 649 -8Q653 -10 658 -6Q662 -4 665 -4Q670 0 675 0Q684 4 687 16Q686 19 679 22Q672 24 672 29Q663 30 655 33Q638 30 625 26Q618 23 608 25Q590 25 573 21Q567 26 554 21Q549 23 544 22Q539 23 533 23Q526 21 513 23Q499 25 492 22Q463 28 433 29Q399 29 395 28Q381 23 366 21Q362 21 357 17Q352 14 355 11Q357 8 362 9Q366 10 367 9Q390 7 434 1Q437 4 443 1Q448 -1 451 1Q465 -2 478 -5Q501 -7 524 -10Q535 -10 545 -11Q559 -12 573 -13Z"/>
</svg>