<svg xmlns="http://www.w3.org/2000/svg" viewBox="0 -800 1024 1024">
	<path fill="#000000" d="M697 -661Q711 -660 725 -660Q738 -661 750 -654Q755 -651 777 -644Q808 -617 821 -593Q823 -581 829 -571Q839 -548 835 -525Q835 -502 838 -495V-479Q843 -462 838 -455Q841 -441 841 -429Q838 -402 838 -401Q841 -390 843 -380Q838 -374 843 -363Q839 -358 842 -353Q844 -348 844 -344Q841 -337 844 -323Q846 -312 846 -306Q850 -295 841 -270Q845 -264 845 -256Q844 -251 845 -245Q847 -234 845 -230Q844 -221 842 -211Q839 -201 843 -192Q844 -180 845 -173Q843 -161 845 -151Q847 -143 849 -135Q848 -126 846 -118Q846 -115 844 -110Q841 -104 845 -100Q844 -95 846 -79Q846 -64 846 -49Q846 -43 845 -35Q845 -28 841 -25Q836 -26 836 -23Q836 -20 835 -18Q837 -14 835 -8Q833 -2 835 0Q829 11 822 21Q818 33 814 44Q811 44 807 53Q803 61 796 56Q795 52 792 52Q788 52 787 51Q780 53 777 49Q773 45 770 43Q763 34 757 33Q750 19 737 14Q732 14 731 10Q730 6 728 4Q726 0 723 -5Q728 -3 735 -6Q740 -8 742 -7Q752 -9 761 -16Q770 -17 771 -26Q772 -35 774 -42Q776 -50 778 -58Q781 -77 783 -97Q786 -153 788 -210Q788 -229 788 -248Q786 -265 788 -282Q788 -318 788 -355Q788 -371 787 -388Q787 -407 787 -426Q787 -469 788 -489Q788 -505 787 -521Q787 -530 787 -540Q784 -565 777 -586Q771 -603 750 -619Q741 -623 715 -629Q699 -625 682 -624Q674 -625 662 -620Q651 -616 644 -616Q624 -609 603 -603Q594 -602 585 -600Q573 -594 560 -592Q552 -592 546 -585Q541 -579 540 -571Q531 -573 523 -579Q519 -578 512 -582Q507 -585 503 -585Q489 -595 479 -600Q474 -607 491 -610Q508 -616 524 -622Q561 -634 598 -647L635 -654Q668 -660 697 -661ZM316 -614L333 -611Q350 -610 366 -609Q369 -606 379 -604Q388 -602 391 -599Q391 -591 392 -584Q392 -577 387 -571Q376 -569 372 -560Q368 -561 364 -562Q359 -562 356 -568Q350 -569 333 -576Q326 -577 319 -579Q307 -580 293 -590Q287 -587 280 -599Q271 -605 287 -611Q301 -611 316 -614ZM202 -537Q213 -534 211 -524Q211 -523 214 -496Q207 -479 207 -460Q207 -440 205 -421Q210 -407 203 -399Q207 -378 204 -357Q200 -353 203 -345Q206 -337 203 -332Q205 -301 202 -287Q199 -279 198 -272Q200 -263 202 -255Q197 -242 196 -229Q200 -220 197 -210Q194 -201 193 -192Q192 -179 190 -167Q192 -147 188 -111Q190 -108 188 -99Q186 -89 192 -85Q198 -82 197 -76Q196 -73 193 -65Q191 -63 189 -51Q187 -43 181 -45Q178 -42 175 -42Q164 -46 158 -58Q155 -65 154 -73L136 -88Q134 -94 129 -99Q124 -104 128 -111Q129 -112 134 -151Q138 -168 140 -198Q142 -235 146 -249Q146 -264 146 -279Q149 -291 150 -312Q151 -338 154 -348Q153 -362 155 -389Q159 -424 163 -459Q167 -479 171 -500Q179 -527 202 -537ZM404 -492L407 -489Q410 -489 416 -485L421 -482Q427 -478 430 -478Q459 -486 468 -486Q479 -486 489 -491L511 -489Q522 -496 535 -480Q539 -479 541 -475Q544 -471 547 -467Q550 -454 541 -444Q541 -440 537 -438Q533 -436 532 -433Q532 -428 524 -428Q523 -422 518 -418Q514 -415 509 -411Q508 -407 504 -404Q501 -400 505 -397Q508 -400 517 -394Q524 -396 528 -385Q520 -380 515 -370Q498 -358 474 -355Q467 -355 463 -352Q459 -348 453 -345Q446 -340 431 -323Q420 -312 411 -299Q407 -293 407 -273Q405 -257 424 -267Q432 -271 496 -292Q523 -299 553 -304Q575 -307 593 -304Q598 -301 613 -299Q630 -285 631 -278Q638 -267 632 -248Q624 -238 624 -231Q615 -215 605 -199Q591 -187 576 -175Q576 -170 570 -162Q564 -153 565 -149L596 -143Q598 -139 604 -138Q612 -136 613 -131Q610 -126 608 -120Q606 -114 598 -113Q596 -108 587 -108Q580 -108 576 -106Q559 -111 540 -108Q532 -109 516 -108Q495 -106 486 -111Q471 -104 455 -107Q444 -108 424 -104Q400 -108 384 -113Q368 -113 372 -130Q380 -125 397 -125Q453 -136 509 -144L530 -170Q542 -184 549 -201Q557 -218 565 -233Q566 -242 567 -251Q569 -260 565 -267Q556 -264 545 -264Q534 -260 522 -256Q512 -255 502 -254Q498 -252 474 -245Q463 -243 451 -241Q444 -239 432 -244Q423 -247 417 -247Q411 -251 407 -246Q403 -241 399 -237Q389 -221 390 -209Q387 -202 383 -194Q379 -187 379 -177Q375 -159 382 -136Q382 -132 381 -132Q375 -133 368 -137Q364 -135 363 -139Q361 -143 360 -146Q354 -152 346 -152Q339 -155 335 -174Q335 -194 343 -216Q344 -227 351 -237Q358 -248 363 -259Q372 -288 396 -298Q418 -312 436 -345Q440 -349 437 -352Q435 -355 430 -355Q414 -355 410 -361Q405 -360 401 -366Q396 -372 393 -372Q385 -373 384 -381Q382 -389 379 -397L383 -413Q383 -430 404 -468Q408 -472 405 -481Q403 -488 404 -492ZM481 -457Q479 -452 471 -453Q464 -454 461 -452Q454 -449 447 -446Q443 -449 441 -446Q439 -441 439 -436Q435 -430 434 -421Q433 -412 433 -405Q433 -394 428 -384Q436 -381 447 -385Q453 -387 456 -391Q459 -395 462 -397Q479 -418 484 -442Q486 -449 485 -457Q484 -459 481 -457Z"/>
</svg>