<svg xmlns="http://www.w3.org/2000/svg" viewBox="0 -800 1024 1024">
	<path fill="#000000" d="M313 -704Q316 -705 318 -702Q320 -699 321 -694Q335 -680 338 -674Q343 -663 339 -656Q337 -649 338 -643Q338 -638 332 -631Q325 -623 328 -617Q333 -615 341 -618Q351 -621 356 -620Q360 -614 373 -612Q386 -610 390 -605Q398 -591 405 -578Q405 -557 396 -557Q385 -536 378 -530Q372 -525 366 -520Q359 -510 348 -501Q345 -497 342 -491Q339 -486 335 -485Q332 -490 327 -481Q328 -476 322 -472Q317 -468 316 -466Q312 -460 304 -455Q295 -449 293 -446Q289 -444 278 -434Q278 -430 273 -429Q269 -429 266 -427Q262 -425 261 -427Q260 -432 262 -436Q258 -450 267 -460Q275 -469 283 -478Q294 -493 305 -509Q316 -525 323 -539Q335 -555 340 -572Q342 -575 340 -576Q335 -577 327 -577Q323 -574 312 -573Q297 -572 296 -562Q290 -552 281 -561Q275 -572 266 -584Q261 -589 264 -611Q260 -620 265 -627Q271 -634 272 -641Q288 -653 303 -680Q306 -684 313 -704ZM709 -606Q713 -607 718 -604Q730 -592 745 -597Q761 -595 765 -589Q779 -580 781 -563Q783 -548 775 -533Q775 -525 771 -509Q757 -476 757 -447Q761 -437 774 -428Q780 -424 797 -415Q803 -413 818 -406Q834 -398 845 -396Q860 -388 878 -381Q891 -370 898 -356Q904 -351 905 -336Q906 -324 910 -319Q909 -311 910 -304Q911 -297 905 -291Q902 -277 899 -264Q890 -257 883 -249Q875 -240 865 -237Q849 -225 840 -221Q832 -212 821 -208Q814 -198 803 -192Q794 -187 784 -186Q780 -186 774 -178Q769 -170 763 -171Q753 -177 750 -171Q745 -173 738 -166Q734 -160 726 -164Q718 -168 715 -164Q692 -168 672 -164Q663 -163 653 -163Q649 -167 653 -171Q656 -174 661 -175Q670 -175 682 -180Q710 -192 737 -205Q748 -207 757 -213Q764 -212 768 -217Q771 -223 774 -228Q777 -237 787 -238Q793 -239 799 -248Q804 -255 807 -257Q817 -270 831 -296Q837 -314 838 -332Q841 -355 820 -360Q807 -365 794 -371Q790 -375 779 -381Q767 -387 762 -394Q752 -405 741 -414Q730 -422 725 -434Q720 -448 714 -462Q710 -481 714 -516Q718 -540 721 -551Q724 -557 722 -562Q720 -567 713 -565Q709 -562 704 -559L685 -546Q681 -543 676 -540Q668 -535 663 -527Q656 -523 648 -523Q638 -519 630 -523Q621 -526 613 -528Q600 -527 592 -529Q587 -533 590 -538Q594 -543 599 -544Q617 -551 635 -565Q651 -573 667 -582Q696 -602 709 -606ZM531 -499Q546 -497 562 -493Q596 -485 600 -482Q612 -478 622 -456Q623 -445 628 -435Q623 -429 630 -414Q631 -399 631 -381Q636 -372 634 -360Q633 -340 634 -318Q636 -309 634 -298Q635 -288 636 -278Q634 -267 638 -246Q637 -235 638 -222Q639 -208 637 -194Q634 -180 642 -167Q639 -157 640 -147Q640 -116 640 -86Q641 -82 641 -46Q638 -30 640 -13Q640 4 631 18Q631 37 628 46Q626 63 619 78Q618 86 617 94Q616 102 609 107Q607 112 605 118Q602 124 595 124Q589 122 585 125Q580 128 576 130Q571 131 569 126Q567 122 569 118Q571 111 575 106Q575 70 583 39Q584 16 585 -7Q587 -26 588 -45Q585 -61 588 -73L589 -192Q590 -204 590 -225Q591 -234 589 -246Q589 -256 589 -266Q588 -277 589 -289Q587 -307 589 -322Q589 -370 589 -418Q588 -430 587 -443Q589 -462 577 -466Q564 -471 538 -489Q526 -495 531 -499ZM382 -451L422 -449Q439 -445 455 -439Q456 -433 466 -426Q476 -418 478 -411Q485 -405 485 -395Q486 -385 489 -376Q484 -359 484 -338Q480 -334 479 -325Q478 -314 474 -310Q472 -293 467 -278Q463 -269 459 -260Q451 -250 448 -230Q444 -223 439 -215Q434 -206 425 -205Q422 -192 413 -179Q410 -169 406 -160Q397 -154 396 -143Q393 -140 390 -138Q387 -136 387 -130Q381 -127 372 -124Q367 -115 356 -106Q352 -100 348 -103Q343 -108 339 -112Q338 -119 331 -120Q324 -122 320 -124Q270 -122 262 -122Q248 -122 237 -117Q218 -122 209 -130Q206 -135 195 -138Q182 -141 179 -148Q176 -154 184 -151Q184 -153 190 -154Q195 -155 194 -159Q192 -163 194 -164Q199 -163 205 -165Q235 -167 263 -172Q279 -172 285 -173Q303 -175 320 -182Q322 -182 323 -183L329 -184Q330 -185 332 -185Q335 -187 343 -187Q354 -187 358 -193Q365 -202 388 -244Q392 -250 396 -262Q403 -263 404 -269Q406 -276 407 -281Q410 -291 415 -299Q414 -306 418 -316Q422 -326 422 -331Q426 -334 427 -344Q428 -351 430 -355Q430 -366 432 -378Q433 -391 424 -401Q411 -406 395 -401Q378 -401 364 -397Q345 -392 325 -388Q321 -389 316 -387Q308 -384 305 -387Q293 -380 273 -386Q263 -387 255 -389Q223 -398 217 -401Q217 -406 216 -409Q216 -410 218 -410Q239 -406 258 -412Q264 -422 289 -427ZM274 -304L333 -303Q343 -302 354 -297Q360 -298 361 -292Q363 -284 364 -283Q368 -273 371 -263Q362 -254 344 -254Q328 -254 311 -255Q288 -248 270 -251Q250 -258 242 -263Q235 -262 229 -269Q228 -270 220 -283Q217 -288 217 -295Q215 -302 220 -301Q220 -292 228 -292Q231 -292 243 -295Q247 -298 258 -299Q270 -300 274 -304Z"/>
</svg>