<svg xmlns="http://www.w3.org/2000/svg" viewBox="0 -800 1024 1024">
	<path fill="#000000" d="M386 -254L390 -246Q386 -248 386 -254ZM386 -254L382 -257V-259Q377 -262 372 -265L376 -273L374 -276L365 -291Q359 -297 356 -299Q356 -309 354 -311L345 -320Q344 -321 344 -323L338 -332L324 -343Q324 -348 323 -349L316 -356H314L306 -365Q302 -369 299 -369L293 -374Q295 -372 286 -347Q279 -371 281 -375H275L258 -399L268 -402V-414L278 -409Q283 -410 284 -412L290 -418L301 -423L304 -424L309 -429H329Q335 -432 343 -430L344 -429Q349 -427 353 -426H356L357 -424H360V-422L363 -419L376 -408Q379 -400 383 -396L391 -384L410 -352V-349L414 -341L431 -335L422 -326Q426 -319 448 -275L450 -270L449 -274L454 -265V-260L467 -235V-237L489 -193V-194L499 -175Q513 -185 520 -198Q529 -213 552 -262L555 -269V-268L566 -300Q572 -300 572 -302Q572 -304 572 -306Q571 -305 550 -326Q578 -320 579 -319L587 -341L593 -356Q595 -358 595 -361Q597 -368 599 -376Q600 -378 600 -380L602 -386L603 -397Q601 -392 587 -392Q599 -405 605 -400V-402Q600 -402 600 -405H592Q596 -416 596 -419L592 -422L596 -426Q596 -429 595 -432L605 -440L608 -447L618 -459L632 -444L646 -436L676 -414L689 -405L698 -397L694 -381L690 -373Q688 -368 685 -363L680 -351L677 -348L667 -320Q663 -309 659 -292Q650 -287 650 -280L646 -275Q642 -270 639 -260V-259L634 -246Q628 -235 625 -225Q612 -212 598 -191V-192L570 -152V-153L552 -127Q545 -123 543 -120L538 -107H531Q531 -106 533 -103L532 -98L534 -89L533 -81L537 -55L539 -37L538 -19L539 -6L534 -1L539 -3Q539 -2 540 0V-2L544 9L541 17Q542 23 542 29L543 36L542 40L535 33V50L542 43Q543 51 543 59H538Q532 79 522 83Q519 86 512 86H509L501 90L494 81L492 80H493Q482 77 479 74L474 62L472 59H466L468 43L466 32L464 17L468 5V-7L466 -10L467 -6L463 -13L464 -26L462 -39L461 -50L464 -57Q464 -58 463 -60V-59L460 -82L458 -101L456 -114L457 -117V-129L435 -161L418 -188L402 -227V-226L390 -245Q393 -245 396 -248ZM477 -115L478 -120H469ZM293 -421L290 -418Q291 -422 293 -421Z"/>
</svg>