<svg xmlns="http://www.w3.org/2000/svg" viewBox="0 -800 1024 1024">
	<path fill="#000000" d="M479 -260Q472 -257 465 -255L457 -248L442 -240L430 -234L433 -235L411 -218L401 -199L398 -185L395 -173Q396 -161 397 -149Q397 -142 398 -140L402 -131Q405 -128 407 -126L417 -122L442 -124L451 -129Q455 -132 458 -136L468 -142L486 -159L494 -169L505 -194L537 -204L545 -182V-155L533 -133L525 -119L511 -108L504 -99L492 -88L477 -80L453 -66L438 -59L393 -62Q387 -63 380 -64L352 -78L340 -85L332 -95L321 -108L318 -122L313 -134L309 -145L307 -174L309 -187L310 -201L313 -214L318 -228L327 -239L338 -251L349 -257L373 -274L388 -277L397 -283L426 -291L439 -297L451 -299L464 -306L478 -310L477 -309L485 -311L483 -315L479 -324L467 -335L461 -344L453 -353L444 -367L437 -374L427 -388Q420 -395 413 -402L381 -409L387 -443L407 -448L420 -449L433 -452H451L463 -448Q471 -447 479 -446L510 -416L516 -405L527 -395L533 -384L543 -373L550 -363L558 -348Q562 -344 565 -341L572 -327L586 -308L594 -296L602 -285L607 -271L615 -258L619 -247L625 -236L633 -225L640 -216L645 -202L650 -190L654 -179Q657 -173 659 -168L664 -155L670 -145L686 -122V-98L674 -85Q670 -80 665 -76L651 -66L632 -64L609 -88L608 -101L604 -111L599 -121L593 -131L585 -148L580 -160L575 -173L570 -181L564 -194V-193L558 -204L549 -217L544 -230Q540 -234 535 -238L522 -261L515 -270L506 -268L489 -264ZM427 -498L417 -525L438 -537H453Q456 -540 459 -543L473 -551L491 -568L502 -578L508 -584L522 -609L553 -608L564 -598L584 -580L594 -560L573 -535L557 -525L541 -520L532 -513L497 -491L486 -486L462 -471L439 -487ZM479 -260Q478 -259 477 -259Z"/>
</svg>