<svg xmlns="http://www.w3.org/2000/svg" viewBox="0 -800 1024 1024">
	<path fill="#000000" d="M431 -432L442 -437L441 -436L471 -446H500L515 -444H528L543 -442L555 -437L571 -434L599 -419L610 -413L622 -407L630 -393L643 -369L642 -354V-329L639 -316V-302L626 -280L613 -266L599 -261L591 -255L574 -246L550 -238L537 -234L523 -230L508 -229L478 -233L466 -235Q457 -236 447 -237L417 -264L439 -278L456 -277L481 -279Q493 -281 504 -284L514 -288Q521 -291 528 -294Q533 -299 534 -299Q537 -302 537 -307L544 -318Q545 -323 546 -328L549 -342Q550 -347 550 -353V-363Q549 -366 543 -379Q540 -380 536 -382L522 -388L512 -392Q507 -392 501 -393L488 -397H480L454 -389L452 -388L441 -376L433 -365Q430 -360 427 -355L417 -345L414 -338Q412 -332 409 -326L404 -314Q402 -308 402 -303L396 -277V-268L397 -240V-227L401 -212L408 -194L414 -185L419 -171L435 -154L439 -147L450 -136L469 -122L481 -115L491 -112Q498 -111 504 -110H529L550 -119Q556 -121 561 -123L580 -142L594 -158Q598 -162 601 -167L609 -182L616 -189L623 -207L651 -213L668 -201L677 -168L668 -141L662 -127L652 -116L643 -104L622 -86L608 -76L596 -74L581 -65L568 -62L555 -57L536 -56H496L483 -58L468 -59L455 -61L439 -68L440 -67L400 -83L386 -92L376 -101L364 -111L356 -121L347 -127L330 -154V-153L321 -166L317 -180L312 -193L306 -218V-273L307 -284L309 -300L312 -313L320 -328L322 -339L329 -352L336 -366L348 -375L354 -385L366 -396L376 -408L389 -412L403 -422L418 -428Q425 -430 431 -432ZM522 -610L553 -608L564 -598L584 -580L594 -560L572 -535L557 -525L541 -520L532 -513L497 -491L485 -486L461 -471L439 -487L427 -498L417 -525L438 -537H453Q456 -540 459 -543L473 -551L491 -568L502 -578L508 -585ZM515 -288H514L517 -289Z"/>
</svg>