<svg xmlns="http://www.w3.org/2000/svg" viewBox="0 -800 1024 1024">
	<path fill="#000000" d="M156 -49L140 -33L132 -39Q130 -44 124 -46Q117 -48 117 -63V-66Q116 -71 115 -77H116Q116 -83 115 -84Q115 -89 116 -90Q117 -91 117 -94V-98Q115 -106 126 -115Q132 -120 146 -139L160 -158L169 -177L185 -191Q190 -193 193 -202V-200L195 -206L198 -213L227 -250Q235 -257 248 -280V-279Q252 -283 252 -293V-297Q251 -298 251 -300Q250 -309 239 -329Q230 -347 230 -363V-366Q229 -366 227 -368L219 -384L215 -391Q214 -394 213 -397Q210 -401 209 -403L199 -426H200Q195 -431 190 -431H185Q175 -431 173 -435Q170 -440 171 -446Q174 -452 181 -452H188Q206 -452 225 -444Q211 -459 235 -438Q257 -419 274 -385L277 -379Q280 -376 280 -368L289 -348Q291 -339 302 -332Q310 -336 321 -348L326 -353Q326 -370 349 -385Q354 -387 357 -400Q359 -412 364 -417L379 -428Q379 -437 383 -441L392 -451Q398 -457 405 -457Q412 -457 419 -453Q425 -450 430 -450H434Q459 -445 478 -426H477Q488 -421 488 -413Q488 -410 483 -405H484Q481 -401 469 -398H470Q442 -388 434 -373L422 -360L387 -332L377 -324Q344 -301 331 -280L326 -275L332 -264Q333 -257 341 -249Q344 -246 346 -239Q348 -233 349 -228L355 -216V-217Q359 -211 361 -194L367 -188Q375 -180 375 -176L377 -172L379 -171Q379 -169 380 -168Q384 -153 390 -143L393 -135Q396 -121 396 -111Q396 -100 380 -100Q363 -100 354 -112Q343 -126 328 -136Q321 -140 319 -148Q319 -149 308 -166H310L301 -177Q294 -185 287 -194Q288 -196 288 -205V-216Q283 -228 272 -229L255 -213Q248 -212 239 -197L230 -182V-183L216 -166H217Q213 -151 213 -149Q209 -139 201 -133H202Q193 -119 189 -101Q182 -80 171 -74Q162 -65 156 -49ZM724 -131V-135Q724 -146 728 -153V-213Q728 -223 729 -224V-223Q732 -235 732 -236V-245Q732 -261 737 -269Q741 -275 741 -287V-307Q741 -314 745 -315H742Q750 -336 751 -362V-366Q751 -371 753 -381Q754 -387 755 -389Q754 -389 753 -397V-412Q755 -414 755 -418V-423Q755 -425 761 -431L767 -428L776 -424Q778 -424 779 -425H792Q811 -423 836 -412L843 -409Q850 -403 850 -393Q838 -363 831 -338V-315Q831 -306 828 -299Q825 -293 825 -290V-279Q825 -263 824 -262Q822 -260 822 -253Q818 -232 814 -212L809 -199Q807 -191 806 -191Q805 -186 804 -182V-178L799 -164Q796 -159 794 -148L788 -126Q787 -124 787 -120Q787 -119 786 -118Q785 -112 784 -107Q784 -105 783 -104Q779 -80 766 -57H767Q764 -49 761 -49Q757 -49 754 -53L747 -62V-61L735 -71L732 -76V-75Q728 -85 729 -96Q729 -101 726 -112Q724 -122 724 -131ZM512 -55L477 -83V-82Q467 -91 467 -103V-106Q467 -110 463 -110Q458 -110 455 -113Q457 -121 459 -121Q459 -119 460 -119H462Q462 -118 464 -118Q470 -124 470 -134V-146Q470 -168 474 -175L480 -192Q482 -194 484 -210Q484 -216 486 -226V-233Q487 -240 488 -247Q488 -255 487 -256Q486 -258 486 -268Q487 -272 488 -277Q491 -283 491 -288V-295Q491 -305 497 -311V-316Q496 -317 496 -321Q497 -325 498 -330Q499 -335 500 -338V-349Q505 -354 505 -358L506 -365Q511 -373 511 -381Q511 -409 502 -416Q502 -420 505 -422H503Q505 -424 505 -427Q505 -434 498 -443Q503 -449 514 -449Q515 -448 518 -448Q522 -448 523 -449H532Q568 -449 579 -445Q592 -439 592 -430Q589 -420 586 -417L584 -413Q572 -402 572 -381Q571 -380 571 -378Q571 -377 570 -376H569Q569 -374 568 -373Q567 -364 566 -355Q562 -346 562 -341Q561 -331 559 -321L556 -306L554 -289Q548 -245 540 -227Q539 -227 539 -226Q539 -224 538 -222Q536 -212 536 -211L530 -185Q527 -183 527 -176Q527 -167 526 -166L524 -163Q517 -154 517 -117Q518 -112 519 -108V-102Q518 -101 518 -99Q519 -98 519 -97Q519 -93 520 -91Q522 -85 522 -78Q522 -68 512 -55ZM615 -390L610 -398L619 -410H631L640 -425Q644 -433 650 -433Q653 -431 655 -430V-431Q658 -428 666 -428Q672 -428 684 -433L701 -415Q701 -414 702 -414V-412Q702 -395 698 -388Q694 -381 694 -373V-362Q690 -358 690 -352V-337Q690 -334 685 -309Q682 -301 682 -293Q681 -290 681 -284L679 -275V-276L675 -260Q673 -251 673 -240Q673 -230 669 -226V-216Q669 -207 666 -203L662 -186Q661 -175 656 -162L655 -159Q655 -157 653 -143L650 -129V-123L648 -117Q644 -103 642 -90Q639 -76 638 -75Q638 -68 639 -67V-61Q639 -56 636 -53H638Q634 -49 632 -49Q630 -49 628 -51V-50L606 -71Q601 -73 601 -80V-83Q601 -93 597 -100Q593 -104 593 -114Q593 -115 595 -129Q600 -137 600 -150Q600 -169 603 -177V-176Q607 -185 607 -205Q611 -209 611 -222V-239Q615 -243 615 -253V-264Q615 -265 617 -279Q621 -297 625 -315V-318Q623 -320 623 -322Q623 -329 628 -342L630 -350Q631 -350 631 -351Q630 -357 629 -364Q630 -367 631 -371Q632 -372 632 -377Q632 -385 628 -384Q623 -379 615 -390ZM745 -559L747 -555V-554Q747 -544 737 -534Q728 -525 721 -525Q702 -517 697 -508Q690 -496 680 -496Q676 -496 670 -502L659 -518L639 -553H640Q635 -558 635 -565Q635 -583 645 -591L658 -608L660 -614Q665 -627 667 -627Q668 -626 669 -626Q672 -625 674 -625L684 -614Q684 -612 688 -611L718 -585L717 -586L728 -577V-578Q740 -571 743 -566H742Q745 -561 745 -559ZM592 -546L591 -545Q590 -544 590 -541Q590 -538 587 -535H588L580 -515Q580 -499 570 -486Q561 -474 556 -475Q553 -476 548 -481V-480Q536 -484 530 -497L524 -506Q521 -510 514 -534Q514 -542 511 -550H512Q509 -553 509 -554Q509 -555 511 -557L515 -587V-589Q514 -589 514 -590Q514 -595 518 -603V-602Q518 -603 521 -608Q524 -615 535 -615Q543 -611 551 -608L563 -603Q568 -600 572 -597L582 -587Q589 -565 592 -546ZM809 -613L811 -627Q820 -624 828 -624L838 -621L852 -613Q872 -605 877 -596Q883 -585 884 -583Q884 -576 879 -574Q875 -570 875 -566L868 -550Q861 -540 861 -530V-526Q861 -518 855 -507Q848 -494 838 -494Q834 -494 826 -502H827L815 -521L805 -550Q799 -563 799 -569L801 -578L809 -594Q811 -596 811 -605Q810 -608 809 -613Z"/>
</svg>