<svg xmlns="http://www.w3.org/2000/svg" viewBox="0 -800 1024 1024">
	<path fill="#000000" d="M535 -363V-66Q567 -43 605 -39Q715 -39 715 -203Q715 -398 598 -398Q559 -398 535 -363ZM535 -672V-406Q579 -430 617 -430Q785 -414 801 -227Q789 -27 609 -12Q574 -12 535 -27V98Q532 110 532 119Q532 161 588 161H597Q604 161 605 160V184H391V160Q392 161 400 161H407Q463 161 463 118V109Q462 104 461 98V-31Q424 -12 383 -12Q215 -31 199 -211Q211 -418 391 -430Q430 -430 461 -406V-559Q464 -571 464 -580Q464 -618 408 -618H400Q399 -617 391 -617V-641Q501 -656 535 -672ZM461 -66V-363Q441 -398 395 -398Q290 -398 285 -238Q285 -43 402 -39Q437 -44 461 -66Z"/>
</svg>