<svg xmlns="http://www.w3.org/2000/svg" viewBox="0 -800 1024 1024">
	<path fill="#000000" d="M633 -395Q638 -392 647 -393Q657 -394 661 -393Q669 -387 685 -388Q698 -389 704 -386Q712 -388 719 -377Q726 -367 731 -365Q736 -364 736 -362Q735 -358 726 -351Q721 -348 719 -342Q717 -336 714 -330Q706 -327 696 -323Q686 -319 676 -323Q670 -324 658 -321Q645 -318 638 -322Q631 -320 594 -320Q588 -319 570 -319Q550 -319 540 -315Q530 -316 516 -312L468 -304Q447 -303 429 -296Q420 -300 411 -295Q403 -291 393 -289Q376 -289 361 -286Q345 -284 328 -288Q293 -295 254 -310Q248 -312 240 -316Q232 -320 235 -328Q249 -326 261 -331Q273 -335 287 -338Q297 -346 323 -347Q340 -348 349 -351Q368 -354 387 -358Q455 -369 522 -380Q556 -383 590 -387Q593 -382 597 -384Q601 -387 603 -388Q618 -391 633 -395Z"/>
</svg>