<svg xmlns="http://www.w3.org/2000/svg" viewBox="0 -800 1024 1024">
	<path fill="#000000" d="M560 51H564Q545 31 513 19Q511 20 511 24Q515 36 523 44Q499 43 483 5Q473 -26 465 -59L467 -61Q471 -60 475 -59H476V-62Q476 -71 486 -77Q495 -82 507 -82Q531 -82 534 -71H535Q538 -72 540 -73Q544 -68 561 -63Q577 -58 582 -52Q590 -58 596 -65Q602 -71 613 -73Q603 -63 599 -46Q599 -41 602 -37Q612 -49 620 -61Q628 -74 643 -80Q634 -66 624 -54Q614 -41 612 -20Q624 -30 630 -32Q621 -19 621 -2Q621 5 622 8Q626 7 629 5H630Q622 17 622 29Q622 38 628 44Q620 64 602 86Q573 83 559 74Q546 66 533 45Q542 46 547 48Q553 51 560 51ZM852 -254Q852 -252 847 -237Q838 -240 836 -254Q836 -260 845 -261V-265Q852 -256 852 -254ZM743 -319Q742 -311 741 -303H731Q728 -304 728 -311Q728 -315 733 -328H740Q743 -323 743 -319ZM848 -552Q840 -533 824 -524Q825 -530 831 -542Q838 -555 843 -554Q846 -554 848 -552ZM599 -575H600Q600 -569 593 -561Q588 -555 588 -551Q588 -547 590 -545Q583 -545 573 -535Q576 -530 578 -525Q578 -523 576 -521Q529 -518 493 -503Q456 -488 422 -472Q418 -473 388 -483Q358 -494 358 -503V-506Q359 -511 368 -524Q380 -541 380 -553Q428 -567 476 -582Q497 -595 528 -600Q537 -600 547 -595Q562 -604 595 -607Q592 -604 585 -601Q574 -596 573 -592L574 -588Q576 -586 579 -586Q585 -587 591 -589L594 -588Q585 -584 585 -577Q585 -575 587 -571L589 -570Q594 -572 599 -575ZM751 -674V-673Q723 -665 718 -649Q609 -643 499 -611Q504 -628 522 -631Q541 -635 560 -637Q614 -647 627 -657Q578 -656 479 -634Q450 -626 446 -625Q428 -619 421 -608Q424 -607 430 -607Q448 -609 465 -611Q470 -611 476 -608Q425 -590 358 -575Q335 -568 288 -527Q248 -492 233 -488H229Q189 -488 169 -494Q157 -499 146 -508Q134 -518 117 -519Q111 -519 108 -518Q110 -527 115 -536Q110 -542 93 -542H79Q158 -586 221 -649Q227 -656 234 -665Q240 -674 251 -676V-674Q251 -663 230 -640Q195 -599 160 -559Q178 -559 199 -578Q253 -630 286 -700Q283 -708 278 -718Q274 -728 264 -729L260 -728Q255 -724 254 -711Q253 -696 248 -693Q232 -726 197 -729Q234 -752 243 -762Q259 -763 291 -771Q332 -781 359 -781Q374 -781 382 -780Q392 -778 402 -776Q406 -776 408 -777Q426 -764 448 -747Q469 -730 471 -707Q471 -696 466 -687Q510 -699 550 -711Q590 -723 636 -731L637 -733Q636 -740 634 -747Q641 -745 651 -739Q666 -731 674 -730Q685 -730 710 -738Q741 -748 755 -748H760Q747 -742 731 -739Q715 -736 707 -726Q710 -722 717 -722Q737 -726 757 -730H758Q739 -726 738 -711Q738 -703 745 -696L744 -693L740 -694L739 -692V-690Q739 -685 746 -680Q751 -676 751 -674ZM458 -157Q474 -160 490 -164Q507 -164 525 -161Q529 -172 526 -171Q525 -171 526 -178Q527 -185 544 -178Q544 -187 536 -195Q535 -197 530 -202Q529 -205 532 -207Q540 -202 548 -192Q554 -185 566 -177Q568 -180 566 -183Q558 -191 549 -200Q548 -202 548 -206Q559 -201 569 -188Q578 -176 587 -173Q608 -164 609 -164Q609 -161 611 -159Q617 -152 623 -146Q624 -143 623 -138Q621 -131 624 -126Q626 -124 627 -123Q621 -121 608 -112Q593 -102 586 -100Q580 -98 578 -98Q570 -98 562 -98Q548 -99 521 -95Q468 -91 457 -88Q471 -96 520 -102Q524 -102 538 -104Q556 -107 563 -113Q549 -115 524 -113Q507 -112 444 -106Q448 -77 443 -51Q434 -56 434 -71Q433 -85 432 -100L433 -104Q428 -103 422 -103Q418 -72 425 -23Q432 27 442 33Q451 30 449 25Q448 20 446 14Q446 10 449 8Q455 11 458 15Q461 20 464 24Q475 48 475 51Q475 56 475 61Q445 80 420 99Q402 100 384 100Q363 90 342 80Q340 65 293 39Q277 31 265 19V25Q259 47 251 66Q248 65 242 65Q221 65 217 76Q190 70 162 69Q154 69 150 74Q151 68 159 63Q156 57 152 54Q133 55 123 62Q112 69 99 74Q111 56 134 40Q129 31 129 6Q129 -16 126 -25Q131 -15 142 -15Q145 -15 147 -16Q150 -22 171 -31Q187 -38 200 -41Q204 -40 207 -40Q214 -41 221 -43L225 -42Q231 -40 238 -30Q245 -21 249 -15Q255 -6 256 -6Q259 -6 262 -11Q266 -17 271 -17H273Q265 -10 265 4V12Q276 15 296 28Q315 40 322 42L324 43Q324 38 323 37Q307 27 273 -5Q315 11 328 21Q327 13 325 5Q309 -7 292 -20Q296 -20 300 -20Q315 -14 330 -8L333 -7Q337 -6 341 -1Q344 3 348 3Q353 -21 347 -47Q341 -73 340 -89V-90Q304 -82 282 -74Q288 -72 305 -74Q316 -76 326 -78Q329 -79 336 -79H337Q326 -72 306 -69L301 -68Q276 -62 263 -57Q253 -51 247 -50L245 -49Q224 -49 203 -53Q199 -57 194 -65Q189 -72 182 -74Q179 -79 176 -85Q168 -90 160 -96V-97Q176 -105 192 -113Q204 -135 215 -158Q209 -151 201 -150H199Q192 -150 180 -157Q167 -165 161 -165Q154 -165 149 -161Q123 -175 119 -204Q118 -208 118 -214Q119 -229 126 -234Q132 -238 139 -247V-249Q139 -265 148 -272Q151 -274 168 -281Q177 -290 185 -294H187V-292Q186 -286 185 -280V-279Q187 -274 196 -273Q204 -272 206 -270Q204 -264 198 -258Q191 -252 191 -247Q206 -236 262 -244Q268 -254 273 -264Q276 -270 264 -275Q252 -280 244 -285Q240 -288 241 -291Q243 -296 241 -303Q237 -315 246 -321Q256 -325 262 -327Q238 -328 210 -331Q190 -347 178 -350Q166 -352 157 -358Q155 -362 164 -368Q171 -373 171 -376Q171 -410 198 -434Q216 -450 257 -468Q273 -476 288 -484Q302 -492 318 -493Q312 -486 304 -480Q296 -475 295 -464V-460Q298 -445 322 -445Q365 -450 399 -458Q397 -441 367 -434Q334 -428 324 -419Q328 -416 342 -416Q371 -419 399 -430Q477 -451 526 -459Q575 -468 661 -513Q637 -511 582 -496Q527 -481 506 -475Q508 -494 596 -521Q652 -538 659 -546Q668 -557 675 -570Q682 -582 701 -583Q705 -582 708 -582Q714 -575 732 -565Q749 -555 755 -548Q764 -550 775 -561Q788 -573 798 -576Q773 -548 773 -535Q773 -524 787 -519Q790 -519 793 -523Q796 -527 801 -527L804 -526Q801 -514 794 -503H796Q801 -503 809 -512Q815 -519 820 -520Q818 -515 813 -505Q805 -491 804 -482Q809 -474 822 -475Q836 -476 840 -466Q833 -448 812 -442Q794 -436 784 -428V-427Q784 -424 791 -421Q769 -397 753 -365Q752 -361 751 -354Q749 -348 741 -347Q739 -350 739 -357Q739 -365 746 -378Q754 -393 754 -401Q754 -406 753 -408Q720 -395 707 -365Q695 -338 693 -285Q692 -269 692 -228Q692 -198 697 -155Q705 -179 708 -226Q711 -264 727 -289V-283Q727 -259 723 -239Q718 -213 718 -190Q718 -148 741 -114Q764 -79 802 -65Q814 -73 817 -104Q820 -132 827 -140Q829 -124 830 -108V-103Q833 -119 837 -162Q841 -205 846 -228Q849 -207 849 -160Q849 -101 855 -77Q862 -118 862 -171Q869 -164 870 -153Q871 -143 872 -130Q877 -87 894 -53Q911 -19 926 15Q918 23 908 50Q896 82 882 91Q787 82 726 25Q666 -31 650 -78Q644 -98 639 -131Q635 -162 630 -194Q623 -188 632 -314Q638 -379 654 -433Q616 -404 534 -376Q454 -349 388 -342L373 -341Q376 -340 383 -340Q400 -336 416 -333Q417 -333 429 -338Q429 -334 428 -330Q430 -326 440 -327Q437 -324 438 -320Q440 -317 442 -315Q437 -310 435 -306L437 -304Q421 -300 396 -273Q468 -289 495 -294Q526 -298 556 -302L557 -301Q554 -299 551 -297Q589 -305 596 -305H600Q592 -302 581 -298Q568 -295 567 -288L568 -284Q581 -287 594 -290H598Q598 -288 589 -283Q582 -279 582 -277Q582 -275 586 -273H587Q590 -273 592 -274H596Q588 -266 588 -263Q588 -259 594 -258Q593 -255 585 -259Q583 -260 583 -257Q583 -250 594 -246Q580 -237 550 -234H547Q546 -238 560 -241Q571 -243 571 -246Q570 -252 554 -250Q535 -248 526 -245Q503 -239 480 -234Q479 -232 477 -230V-229Q479 -228 488 -228Q502 -230 516 -232H525Q499 -214 476 -208Q401 -196 326 -184Q308 -156 289 -128Q308 -132 339 -136Q336 -144 324 -159Q325 -165 341 -175Q355 -184 369 -190Q412 -189 454 -189Q463 -183 463 -178Q463 -172 458 -157Z"/>
</svg>