<svg xmlns="http://www.w3.org/2000/svg" viewBox="0 -800 1024 1024">
	<path fill="#000000" d="M210 -629L208 -627Q208 -629 210 -630ZM210 -629Q226 -639 237 -636L240 -635Q241 -635 247 -632L261 -625H259Q260 -624 262 -624L279 -618Q280 -617 286 -617Q288 -617 289 -617Q296 -621 304 -621V-590Q304 -580 306 -564Q301 -549 301 -526Q301 -508 299 -472V-431Q298 -422 298 -402V-391L323 -397L346 -395L370 -399L390 -402L412 -400H416V-401Q416 -405 412 -417Q413 -434 413 -451Q413 -465 412 -479Q409 -546 400 -610L397 -635Q399 -638 398 -645L400 -654Q408 -662 414 -662Q415 -662 416 -663Q417 -664 422 -664L426 -663Q428 -663 430 -662Q433 -661 435 -661L442 -657L451 -653L450 -654L460 -652L470 -649Q474 -649 477 -649H484L489 -646Q490 -646 501 -637V-630L496 -635V-618Q500 -618 501 -620V-583L498 -526Q497 -495 497 -423V-406L499 -408Q507 -408 515 -410L514 -409Q522 -411 525 -411Q526 -411 527 -412L538 -416L550 -420H551Q553 -422 561 -422Q562 -422 562 -423L565 -428Q585 -426 589 -427Q600 -428 626 -428H634Q638 -427 642 -427Q649 -429 664 -429H687L695 -424Q706 -424 724 -416Q767 -400 803 -371V-369Q803 -367 805 -367L811 -358L822 -338L829 -319L828 -320Q836 -299 837 -274L839 -251H837V-250L842 -235Q832 -224 834 -222Q834 -221 833 -218Q830 -198 818 -176Q805 -147 799 -138L780 -120L771 -111Q760 -99 744 -87Q742 -86 738 -82Q736 -82 733 -79Q728 -78 723 -78Q722 -76 714 -74H715L686 -62Q682 -63 667 -61L642 -57Q638 -56 633 -56H617Q618 -55 614 -52Q611 -54 608 -56H584Q582 -56 579 -57L567 -59Q561 -59 546 -64Q546 -65 557 -65H559L545 -76L547 -71L540 -78L532 -89Q532 -93 531 -98V-102Q531 -113 541 -122L540 -121L550 -129Q557 -124 561 -124V-123Q565 -123 567 -122Q572 -120 576 -119L592 -111H595Q600 -110 604 -110Q617 -110 633 -116Q641 -117 659 -126Q672 -132 687 -145Q710 -161 723 -182H722Q744 -218 744 -249Q744 -265 743 -272Q740 -287 733 -299Q734 -321 721 -345H722Q705 -372 676 -375Q674 -375 672 -376Q668 -376 664 -372Q650 -378 633 -376Q610 -375 583 -364L566 -358Q568 -354 568 -346Q558 -353 554 -356Q542 -350 537 -346L531 -342L522 -334Q512 -334 507 -330L499 -323Q499 -322 500 -322Q496 -313 496 -307L498 -274L501 -234Q501 -202 502 -186L505 -131Q506 -120 506 -96Q506 -81 505 -77Q503 -68 501 -66Q499 -64 491 -64Q488 -64 486 -63L477 -78Q473 -73 476 -70Q460 -81 453 -92L445 -102L440 -114L435 -118Q436 -122 436 -125Q435 -128 435 -134L434 -145Q434 -157 432 -177V-182Q430 -218 428 -237L426 -239Q427 -242 428 -241Q428 -243 427 -245L423 -247Q425 -277 424 -284L418 -342Q418 -344 417 -347L404 -341L368 -335Q333 -326 298 -317Q298 -311 300 -299Q302 -262 305 -250Q303 -228 303 -217Q303 -213 306 -162Q307 -155 307 -149Q311 -69 298 -64L293 -68L295 -65H271Q275 -72 279 -70L270 -76L260 -83Q256 -91 251 -96L244 -104Q241 -110 238 -117Q239 -119 239 -122Q237 -142 235 -162V-163L230 -179Q234 -196 233 -203V-202L230 -221L228 -236Q227 -235 220 -240Q230 -246 231 -245L229 -261L225 -287Q225 -305 223 -335Q223 -346 222 -357Q220 -414 217 -472L215 -529L213 -561Q213 -572 212 -584Q210 -608 208 -620L211 -617ZM478 -69Q476 -69 476 -70Q477 -70 478 -69Z"/>
</svg>