<svg xmlns="http://www.w3.org/2000/svg" viewBox="0 -800 1024 1024">
	<path fill="#000000" d="M915 -700L922 -683L916 -668Q909 -655 909 -644Q909 -638 910 -637Q907 -620 907 -604Q907 -586 908 -585L905 -565Q902 -557 902 -547Q902 -541 903 -540L909 -494Q912 -485 912 -475Q912 -470 905 -454Q898 -438 898 -432Q898 -423 902 -416Q907 -408 905 -402Q904 -397 903 -393Q902 -385 900 -383Q904 -368 904 -364V-320Q900 -287 895 -255Q896 -253 896 -240V-197L900 -186Q905 -173 907 -158Q908 -150 902 -122Q896 -95 896 -87Q896 -72 900 -63L903 -48L906 -34V-8Q906 42 888 42Q866 38 844 33Q842 34 831 34H711Q697 34 667 32Q603 32 559 43Q507 46 401 46Q393 46 375 44Q370 43 362 43Q360 42 355 42L332 44H309Q306 47 287 47Q240 53 210 59Q189 55 167 50Q121 50 104 -3Q104 -10 94 -36Q84 -62 84 -70Q84 -82 88 -94Q92 -105 92 -117Q92 -125 89 -142Q85 -154 85 -173Q85 -184 88 -198Q91 -210 91 -220Q91 -236 88 -256V-255Q84 -264 84 -302V-313Q84 -321 85 -324V-346Q89 -367 93 -389V-397Q93 -404 92 -405L95 -611Q95 -629 99 -637Q102 -649 102 -656V-672Q102 -686 109 -696Q117 -708 115 -714Q114 -717 114 -720V-727Q114 -735 126 -744Q139 -753 152 -753Q203 -753 264 -749Q325 -745 372 -745Q395 -745 414 -748Q434 -751 443 -751Q540 -751 568 -748Q637 -745 705 -742Q729 -754 743 -754Q751 -754 761 -751Q768 -747 782 -747L842 -742Q856 -742 883 -727Q910 -712 915 -700ZM497 -653L487 -654Q479 -652 469 -652Q460 -653 453 -648Q444 -646 382 -617Q367 -617 362 -615Q348 -615 341 -605Q344 -602 351 -603Q359 -604 362 -601Q378 -591 396 -584Q401 -586 408 -581Q414 -576 418 -576Q440 -574 445 -574Q450 -571 452 -574Q454 -577 454 -582Q463 -590 473 -593Q482 -596 491 -601Q496 -596 494 -589Q492 -583 491 -578Q484 -559 484 -554Q483 -552 482 -547Q481 -539 477 -537Q474 -534 472 -523Q469 -511 464 -506Q464 -499 457 -487Q450 -476 450 -470Q445 -464 440 -452Q433 -435 425 -429Q418 -426 410 -423H396Q373 -414 349 -405Q340 -401 331 -397Q314 -388 293 -386Q285 -381 296 -378Q322 -369 332 -367Q334 -365 341 -363Q350 -361 352 -357Q362 -356 371 -355Q381 -354 389 -362Q394 -366 399 -365Q402 -364 399 -358Q393 -345 388 -327Q384 -323 383 -314Q382 -307 380 -304Q376 -299 369 -281Q365 -269 349 -225Q338 -205 338 -193Q335 -185 331 -178L341 -158Q346 -149 350 -140Q359 -125 348 -126Q335 -127 321 -125Q293 -132 268 -128Q267 -127 260 -126Q256 -125 258 -121Q259 -119 257 -119Q254 -120 256 -118Q266 -110 275 -103Q296 -82 338 -77Q347 -75 380 -77Q391 -76 406 -79Q437 -81 449 -85Q453 -82 460 -84Q467 -85 470 -83Q483 -86 509 -86Q518 -87 526 -85Q542 -86 558 -85Q567 -86 575 -87Q604 -87 633 -87Q659 -87 684 -87Q699 -87 713 -88Q712 -107 720 -121Q706 -133 691 -136Q680 -145 668 -145Q656 -144 644 -147Q631 -144 600 -143Q577 -143 563 -140Q558 -140 552 -142Q550 -144 554 -147Q557 -146 563 -151Q569 -157 575 -155Q583 -160 588 -169Q600 -176 601 -186Q606 -185 607 -179Q609 -178 610 -181Q617 -184 627 -196Q635 -205 640 -209Q647 -222 657 -225Q667 -247 682 -263Q693 -270 701 -284Q710 -300 710 -307Q722 -324 727 -346Q735 -370 729 -392Q725 -396 722 -403Q717 -415 710 -418Q710 -419 691 -440Q682 -444 673 -448Q667 -456 659 -459Q650 -462 641 -465Q630 -465 615 -468Q603 -470 575 -464Q550 -460 524 -456Q519 -453 512 -454Q506 -456 509 -461Q511 -479 520 -491Q518 -497 522 -505Q525 -511 525 -514Q532 -518 534 -532Q536 -541 539 -546Q547 -559 547 -572Q551 -591 554 -614Q552 -621 537 -633Q527 -641 524 -646Q521 -651 508 -651Q501 -651 497 -653ZM629 -416Q647 -422 666 -407Q682 -396 674 -377Q670 -359 666 -342Q662 -339 661 -331Q659 -321 656 -318Q652 -314 648 -303Q644 -294 639 -289Q627 -267 611 -248L582 -207Q573 -195 563 -184Q561 -182 554 -173Q546 -163 539 -160Q537 -157 531 -152Q523 -147 524 -140Q518 -136 502 -137Q492 -137 486 -136Q453 -138 434 -134L381 -130Q375 -131 377 -136Q379 -142 383 -143Q392 -147 393 -155Q395 -164 399 -171Q412 -203 425 -235Q433 -254 437 -275Q451 -294 454 -317Q458 -322 461 -335Q465 -351 471 -357Q476 -366 477 -377Q475 -382 481 -384Q487 -386 492 -388Q502 -393 506 -390Q549 -401 554 -403Q573 -403 580 -408Q599 -410 609 -416Q619 -413 629 -416Z"/>
</svg>