<svg xmlns="http://www.w3.org/2000/svg" viewBox="0 -800 1024 1024">
	<path fill="#000000" d="M658 -183Q656 -175 656 -166Q656 -145 659 -145Q667 -146 671 -151Q676 -161 691 -177L704 -193L711 -206Q718 -218 741 -253Q763 -288 766 -303L781 -339L785 -342Q789 -345 791 -355L794 -365Q794 -366 795 -367V-368Q794 -372 793 -377Q790 -381 790 -386Q790 -388 793 -396L800 -409L807 -418V-417L810 -421Q819 -433 825 -435L833 -438Q842 -442 851 -446Q858 -448 885 -450Q893 -450 897 -444Q901 -438 901 -431Q900 -428 899 -423L872 -387Q869 -384 854 -358L833 -321Q829 -307 827 -305L823 -298Q821 -294 816 -289L811 -270L788 -226L785 -215L779 -205L756 -175Q750 -166 750 -163L746 -157H748L737 -141H738L724 -122Q710 -103 696 -89Q675 -68 666 -68H660Q659 -67 658 -67Q648 -67 630 -78Q609 -91 598 -108L589 -122H591Q587 -123 587 -127V-130Q587 -132 584 -140L581 -149Q576 -181 576 -188V-249Q576 -253 579 -256H578Q585 -272 585 -306V-311Q587 -313 587 -317V-327Q592 -332 592 -339V-401Q592 -415 588 -416Q583 -418 583 -426Q583 -446 594 -446Q598 -446 605 -440Q618 -435 619 -435Q628 -435 629 -436Q639 -427 648 -426Q657 -425 664 -423Q673 -423 673 -405V-387Q673 -382 675 -374Q676 -365 677 -357V-305Q677 -288 675 -286Q673 -278 673 -273Q673 -269 671 -259V-255Q671 -250 672 -249V-236Q672 -233 671 -232L669 -226Q664 -209 664 -205Q663 -199 661 -194Q658 -185 658 -183ZM277 -369Q286 -372 286 -386V-390L292 -398Q303 -413 315 -414Q328 -415 328 -425Q328 -432 330 -442Q333 -456 338 -456Q342 -456 344 -454Q346 -454 347 -453Q353 -452 348 -452L361 -446Q374 -438 394 -428L398 -425Q403 -422 404 -422L403 -423L409 -421L420 -412V-404Q421 -403 421 -397Q421 -388 414 -381L407 -377Q396 -360 376 -357L365 -349Q349 -338 339 -322L316 -298H318Q316 -297 310 -291Q302 -286 302 -279Q302 -277 304 -275Q312 -259 312 -245Q314 -238 316 -232Q325 -204 329 -183L334 -177Q340 -167 341 -166L368 -102L365 -94Q358 -85 353 -85Q349 -85 346 -90V-88L322 -107L311 -116L312 -115Q309 -115 305 -119L276 -157L272 -168Q268 -179 269 -182V-184Q269 -195 262 -205L258 -211Q257 -213 255 -213Q251 -213 250 -212V-213L240 -203H241Q230 -185 218 -168Q209 -154 207 -150Q206 -147 196 -137L191 -126Q182 -112 177 -107H178L156 -70Q143 -54 137 -49V-50L132 -46Q128 -42 125 -42Q123 -42 121 -45H122L114 -51V-50Q105 -56 101 -62L98 -85Q98 -105 123 -130V-129L129 -140Q132 -146 150 -161Q155 -165 155 -174Q153 -178 159 -187L166 -199Q176 -211 194 -242L202 -257Q221 -293 221 -304Q221 -306 219 -308L210 -332Q209 -334 208 -338Q206 -345 204 -347Q200 -359 196 -371V-370L192 -380L183 -391Q179 -396 160 -415Q150 -425 150 -433Q150 -435 153 -435H158Q167 -436 178 -433Q183 -427 200 -425Q233 -421 239 -408Q244 -396 265 -374L275 -370Q276 -369 277 -369ZM464 -64L452 -61L449 -62Q445 -62 442 -65V-64Q424 -73 415 -88H416L413 -96V-97Q413 -101 407 -107Q402 -112 402 -117Q402 -122 405 -131Q408 -138 408 -145V-148Q407 -153 406 -159Q406 -175 413 -190V-211Q413 -220 419 -230Q423 -237 423 -243V-250Q422 -251 422 -255Q422 -261 430 -272Q438 -282 437 -288Q436 -292 435 -296L437 -308Q438 -311 440 -323Q442 -327 445 -335L451 -354V-359Q453 -361 461 -388L464 -397Q464 -402 467 -408Q470 -414 470 -417Q470 -423 468 -423Q467 -430 466 -438Q466 -448 474 -448Q479 -448 480 -447Q482 -445 487 -445L495 -439Q515 -423 521 -422L538 -404V-402Q538 -399 534 -392L527 -379Q526 -378 526 -373Q526 -356 522 -349Q517 -339 518 -330V-322Q517 -317 516 -313Q515 -309 514 -305V-300Q514 -285 510 -278V-270Q510 -256 506 -249V-242Q506 -236 503 -229L494 -200V-194Q491 -189 491 -174V-164Q491 -162 487 -158H489Q486 -156 486 -144Q484 -132 482 -130H483Q479 -122 479 -110V-106Q478 -101 477 -97Q475 -90 475 -81V-75Q475 -66 464 -64ZM529 -534H521Q510 -536 510 -545V-552Q510 -562 515 -587Q519 -609 519 -628Q519 -630 516 -639Q513 -643 513 -647Q513 -650 520 -653Q526 -656 527 -656Q530 -656 531 -655L581 -637L605 -623L614 -613Q615 -608 616 -603Q614 -591 599 -585Q578 -577 572 -571V-572Q563 -559 547 -557Q533 -549 529 -534Z"/>
</svg>