<svg xmlns="http://www.w3.org/2000/svg" viewBox="0 -800 1024 1024">
	<path fill="#000000" d="M804 -632L797 -635L799 -626Q763 -604 742 -577Q727 -556 711 -535L705 -520L703 -511L697 -499Q692 -488 689 -485L680 -460L647 -372Q639 -355 638 -347Q628 -321 615 -293V-294Q608 -269 589 -222V-223Q575 -187 556 -147L550 -136Q546 -127 541 -119Q542 -113 536 -109V-104Q535 -99 535 -92Q535 -83 533 -79L534 -78Q534 -71 525 -60H514Q503 -60 497 -61L484 -64L468 -71H469Q445 -82 441 -84Q400 -205 319 -400L305 -435L277 -508V-506Q267 -522 262 -541L261 -545L257 -554L253 -551Q245 -567 241 -571L233 -584Q228 -584 228 -587L220 -592Q221 -591 220 -591L208 -598Q208 -595 207 -593L191 -609H190Q188 -609 174 -615L183 -631L186 -634Q184 -642 184 -644L213 -642L225 -635H245L260 -648V-634Q300 -630 318 -621Q327 -619 329 -614H340L341 -607L343 -606L348 -602Q351 -599 351 -594L354 -591Q354 -587 355 -585Q356 -581 356 -578Q360 -564 359 -555L372 -513H371L373 -504Q388 -456 392 -445L403 -409Q413 -382 434 -317L433 -318L460 -248Q464 -238 486 -186L488 -183Q488 -182 490 -180L495 -188Q502 -201 516 -232Q551 -311 585 -414L612 -492Q629 -539 640 -558Q642 -564 645 -570L644 -567Q645 -568 646 -570L648 -574L650 -581L656 -587L654 -586L664 -602Q671 -613 683 -629V-628Q691 -638 704 -646Q708 -652 717 -661Q730 -674 741 -677V-678H748Q754 -678 755 -677L759 -675Q786 -671 799 -652Q806 -643 804 -632Z"/>
</svg>