<svg xmlns="http://www.w3.org/2000/svg" viewBox="0 -800 1024 1024">
	<path fill="#000000" d="M662 -269Q663 -256 663 -226Q672 -224 680 -223Q663 -212 662 -211Q662 -200 661 -190V-169Q661 -145 662 -134Q656 -124 654 -105Q654 -102 653 -99L648 -56L643 -22Q635 -13 634 -6Q632 -4 632 0H646Q629 17 629 19Q627 30 614 51L600 62Q598 61 595 63L586 70L573 64Q570 64 567 63L559 59Q562 64 562 65Q558 64 545 48Q528 38 521 22L523 11L539 8Q537 6 534 7Q539 2 541 -2L540 2Q541 1 541 -1L543 -5V-11Q545 -15 543 -25Q550 -30 552 -38L561 -71V-70L564 -88L567 -101Q572 -112 574 -136Q575 -142 575 -148Q577 -168 577 -179V-210Q579 -219 579 -229Q576 -232 573 -233Q578 -245 578 -251L576 -271L571 -292Q574 -306 572 -317Q572 -318 571 -320Q567 -338 565 -343L560 -353Q561 -356 559 -358Q557 -372 554 -375Q548 -388 530 -393H525Q521 -392 516 -392H509Q485 -389 469 -382L463 -378Q457 -375 453 -372Q450 -371 434 -362Q426 -353 418 -349H417L412 -345L413 -344Q417 -344 419 -342H413V-341Q413 -334 415 -318Q416 -313 416 -308Q416 -304 418 -292Q415 -278 417 -260L419 -217L422 -178Q420 -169 420 -152V-134Q421 -127 421 -121L420 -115Q420 -107 419 -102Q419 -94 418 -87Q410 -83 405 -78L403 -76Q397 -67 375 -52V-58L359 -50Q365 -68 366 -68L353 -81L340 -96Q348 -102 346 -104Q346 -105 345 -107L344 -109Q344 -108 339 -108Q341 -129 341 -148Q341 -166 340 -177L338 -200Q328 -343 317 -487Q314 -516 313 -524Q313 -533 313 -543L300 -539Q310 -564 310 -568L308 -581L301 -574Q299 -578 296 -582H290L279 -580Q278 -581 281 -584Q278 -584 276 -585Q273 -585 271 -587L258 -590Q252 -600 240 -608Q226 -620 224 -632L226 -650Q246 -644 250 -646L273 -650Q281 -649 289 -649H309Q311 -653 318 -653Q462 -675 567 -679V-678H569Q592 -669 596 -656Q598 -650 594 -630Q583 -633 579 -631L580 -632Q568 -626 560 -625L543 -620Q540 -625 539 -625H535Q530 -625 526 -621Q512 -626 497 -624Q456 -620 441 -616Q429 -616 419 -612Q417 -613 413 -613L426 -605Q402 -605 401 -607Q402 -599 402 -582V-534Q403 -528 403 -523L407 -516Q404 -513 404 -512V-508Q406 -464 408 -441L410 -416Q409 -412 409 -405V-400L416 -405L430 -419Q438 -420 449 -425Q457 -430 463 -431Q490 -439 511 -443Q525 -445 532 -445Q536 -446 548 -446H553L560 -443Q568 -441 574 -437Q576 -437 589 -432L610 -422H608Q609 -421 612 -421Q619 -417 627 -411L636 -404L642 -396L643 -389Q643 -388 644 -388L651 -373Q648 -369 650 -366Q651 -363 651 -361L653 -348Q653 -346 655 -338L661 -306Q660 -296 662 -269Z"/>
</svg>