<svg xmlns="http://www.w3.org/2000/svg" viewBox="0 -800 1024 1024">
	<path fill="#000000" d="M371 -461L364 -457Q352 -461 348 -468Q344 -475 344 -490V-499L360 -515Q370 -525 373 -527Q377 -530 390 -543L402 -554H401Q409 -566 420 -571Q421 -570 429 -582Q438 -595 457 -611L471 -623Q495 -640 520 -640H529Q533 -636 533 -634Q532 -633 532 -629Q532 -620 544 -601H543Q546 -598 550 -597Q553 -595 553 -591Q556 -583 561 -578L570 -569L576 -565Q580 -555 592 -545L609 -527Q612 -522 617 -519L641 -494Q642 -493 642 -492Q642 -488 635 -485L628 -482Q625 -480 621 -478L611 -473L491 -588L477 -579V-580L469 -574Q462 -568 457 -562L440 -544Q428 -531 408 -505L381 -469L371 -460Z"/>
</svg>