<svg xmlns="http://www.w3.org/2000/svg" viewBox="0 -800 1024 1024">
	<path fill="#000000" d="M415 -43Q388 -47 368 -67L364 -71Q344 -82 338 -103Q334 -113 329 -123Q318 -151 322 -164Q323 -175 323 -186Q323 -187 326 -209Q325 -222 330 -234L332 -236Q334 -253 337 -266Q337 -270 340 -270Q348 -275 344 -283Q341 -291 349 -292Q353 -292 354 -298Q355 -301 355 -305Q360 -317 364 -329Q364 -331 368 -335Q375 -342 372 -346Q369 -349 372 -349Q375 -352 378 -360Q382 -371 388 -374Q388 -378 392 -383Q397 -389 397 -392Q403 -402 402 -413Q404 -415 405 -417Q405 -418 410 -425Q412 -428 412 -430Q413 -433 418 -433Q420 -433 420 -437Q420 -442 421 -444Q423 -446 428 -446Q432 -447 436 -448Q439 -459 436 -462Q430 -468 439 -474Q440 -477 441 -481Q442 -484 444 -497Q445 -503 453 -514Q460 -524 462 -531V-532Q468 -536 470 -546Q472 -554 474 -557L483 -569Q484 -571 486 -576Q493 -587 495 -589Q501 -593 505 -602Q513 -619 521 -636Q526 -648 525 -651Q525 -657 532 -673Q533 -675 534 -676Q536 -676 538 -675Q552 -665 562 -664Q575 -662 574 -652Q574 -647 579 -647Q589 -646 587 -635Q587 -633 588 -632Q588 -624 582 -621Q577 -616 575 -609Q575 -598 567 -592Q565 -588 562 -585Q558 -572 548 -556Q546 -552 540 -544Q538 -538 535 -532L529 -525Q525 -524 525 -520Q525 -510 517 -510Q515 -510 515 -507L501 -466Q499 -462 496 -459L493 -455Q486 -437 482 -418Q481 -414 471 -395Q466 -386 460 -377L453 -358Q451 -352 447 -350Q444 -349 443 -346Q442 -344 445 -341Q448 -336 443 -331Q439 -327 438 -322Q433 -306 427 -296Q424 -285 420 -274Q413 -259 412 -247Q411 -241 398 -201Q397 -198 390 -189Q390 -182 392 -176Q390 -144 387 -130Q385 -121 390 -117V-112L392 -101Q395 -92 406 -83Q416 -75 418 -72Q423 -66 435 -71Q444 -73 452 -76Q459 -80 466 -85Q469 -87 471 -88Q477 -86 480 -89Q483 -93 486 -96Q500 -107 517 -117Q538 -134 544 -148L553 -169Q554 -170 554 -172Q560 -177 565 -183Q576 -191 578 -212Q579 -217 582 -220Q592 -230 594 -256Q595 -259 595 -262Q596 -265 597 -268L600 -311Q600 -317 605 -316Q606 -316 607 -316Q609 -316 606 -319Q601 -324 599 -339Q598 -346 596 -353Q596 -361 591 -365Q586 -369 582 -374Q580 -374 578 -375Q564 -382 556 -383Q555 -384 553 -384Q539 -376 519 -389Q515 -391 515 -402Q515 -407 516 -409Q518 -411 524 -409H537Q554 -408 571 -408Q585 -410 588 -402Q588 -401 589 -401V-403Q590 -407 597 -405Q621 -398 626 -396Q645 -388 651 -371L654 -368Q658 -370 660 -367Q661 -366 662 -361Q669 -340 675 -320Q679 -308 675 -298V-294Q682 -290 676 -279Q675 -274 667 -270Q657 -266 661 -257Q662 -255 663 -255Q664 -255 666 -257L670 -260Q672 -258 672 -255Q669 -245 666 -235Q666 -234 664 -234Q663 -234 663 -233Q661 -235 661 -237Q660 -239 660 -244Q658 -238 658 -237V-236Q652 -230 653 -225Q656 -220 659 -215Q659 -202 655 -194Q651 -180 646 -173Q639 -163 633 -158Q622 -149 620 -137Q619 -128 606 -115Q600 -110 594 -106Q592 -106 592 -103Q590 -92 582 -94Q581 -92 579 -90Q576 -85 573 -80Q570 -76 565 -78Q561 -81 558 -78Q557 -77 536 -62Q528 -52 516 -54H514L495 -45Q494 -44 492 -44Q471 -46 450 -38Q437 -36 430 -39Q418 -43 415 -43Z"/>
</svg>