<svg xmlns="http://www.w3.org/2000/svg" viewBox="0 -800 1024 1024">
	<path fill="#000000" d="M646 95V96L623 78Q623 77 624 77L611 64Q601 59 588 35Q580 30 582 24Q583 23 578 -1V0Q574 -7 574 -16Q574 -17 575 -18V-21Q573 -23 571 -29L568 -48L562 -62L558 -74L553 -94Q549 -101 549 -104Q549 -105 550 -106V-107L537 -141H538Q533 -163 527 -185Q524 -188 522 -198L518 -213L514 -221Q512 -223 511 -229Q505 -252 498 -275V-278Q498 -283 495 -286Q494 -288 493 -292Q492 -295 491 -299Q491 -303 492 -304V-308Q492 -312 486 -324Q479 -337 478 -347Q478 -352 474 -359Q472 -365 469 -372L466 -385V-384L460 -395L458 -399Q456 -399 456 -405Q456 -408 457 -409V-412Q456 -413 456 -414Q456 -417 455 -420L453 -424H454Q450 -428 448 -436Q446 -440 444 -445L438 -467Q438 -479 431 -492L425 -509Q424 -519 419 -524Q414 -531 412 -543Q413 -544 413 -547Q412 -550 411 -554L407 -567Q405 -576 402 -585L396 -601Q396 -607 392 -614L389 -620L386 -624L383 -633L377 -650H378Q376 -652 376 -655L374 -662V-661Q368 -680 367 -681L358 -694L355 -702V-704Q354 -704 354 -705Q354 -707 353 -710L352 -712Q348 -712 344 -720Q341 -727 341 -731Q342 -732 342 -735L347 -746Q350 -748 354 -750Q356 -750 358 -751Q359 -751 359 -752V-753Q362 -761 367 -764L372 -766Q386 -760 397 -753Q411 -749 412 -736Q414 -716 419 -708L435 -654Q438 -646 440 -638L448 -609L455 -585V-584Q454 -583 454 -582L458 -570L461 -561H460Q462 -559 462 -556L465 -541Q466 -540 466 -536Q465 -535 465 -530Q470 -521 475 -501L486 -465Q488 -455 492 -445Q495 -436 497 -428V-426Q496 -425 496 -423Q496 -415 500 -408L518 -350Q518 -348 519 -347V-339Q518 -338 518 -335Q531 -313 534 -282V-277Q534 -271 537 -265Q542 -244 547 -223Q550 -210 553 -209Q556 -207 556 -200L566 -164Q567 -163 567 -160Q567 -156 568 -155Q568 -147 572 -143H571L575 -136Q576 -135 576 -134Q577 -131 577 -128L580 -119L584 -106Q586 -100 588 -92Q591 -80 596 -64L616 -12L619 -1L626 15Q634 26 635 32L638 42L641 50L642 52H641Q650 61 654 91Q654 97 649 97Q648 97 646 95Z"/>
</svg>