<svg xmlns="http://www.w3.org/2000/svg" viewBox="0 -800 1024 1024">
	<path fill="#000000" d="M417 -192Q417 -218 417 -244Q421 -312 425 -348Q429 -388 444 -487Q449 -526 458 -553Q465 -568 468 -584V-601Q468 -603 468 -606Q478 -627 459 -646Q460 -650 461 -654Q466 -658 470 -657Q501 -643 511 -624Q513 -616 512 -606Q515 -592 515 -537Q513 -496 507 -480Q505 -463 504 -444Q489 -306 489 -304Q481 -259 472 -214Q470 -197 474 -180Q476 -159 479 -153Q488 -135 511 -132Q522 -130 532 -128Q551 -125 571 -128Q590 -131 610 -132Q622 -132 637 -137Q647 -139 654 -134Q661 -128 668 -122Q670 -122 670 -120Q670 -117 675 -116Q679 -116 681 -114Q684 -112 678 -105Q676 -103 673 -94Q671 -87 664 -87Q653 -73 639 -72Q624 -72 610 -72Q607 -71 603 -70Q594 -68 584 -67Q574 -69 562 -68Q549 -69 536 -71Q522 -72 508 -73Q494 -75 483 -85Q460 -101 440 -119Q423 -136 421 -160Q421 -175 417 -192Z"/>
</svg>