<svg xmlns="http://www.w3.org/2000/svg" viewBox="0 -800 1024 1024">
	<path fill="#000000" d="M527 -392Q529 -378 529 -375Q527 -370 525 -365Q527 -358 529 -352Q525 -329 520 -306Q521 -300 522 -295Q518 -282 513 -270Q514 -265 514 -261Q514 -244 508 -208Q501 -166 501 -144Q501 -135 511 -129Q520 -123 530 -123Q537 -123 543 -130Q548 -137 552 -139Q564 -148 580 -165Q596 -182 599 -184Q602 -181 602 -179Q602 -124 552 -91Q512 -64 504 -64Q498 -65 491 -66Q487 -66 481 -63Q456 -88 452 -94Q438 -115 438 -148Q445 -235 452 -268Q454 -270 454 -274Q453 -278 451 -282Q455 -290 458 -299Q457 -304 456 -310Q457 -322 463 -331Q469 -341 470 -345Q470 -346 469 -346Q465 -346 464 -345Q462 -353 462 -354L470 -381Q470 -383 469 -385Q472 -395 475 -406Q475 -416 474 -427Q474 -435 475 -437Q477 -439 485 -439Q488 -439 490 -437Q489 -436 489 -434Q489 -426 510 -419Q525 -414 527 -411Q529 -408 529 -393Q529 -392 527 -392ZM476 -588Q488 -593 498 -593Q504 -591 515 -590Q526 -589 531 -583Q531 -582 532 -582Q540 -583 548 -584Q553 -584 559 -578Q565 -572 571 -572Q580 -572 582 -566Q584 -561 584 -546Q584 -530 573 -518Q564 -508 554 -508Q534 -509 531 -516Q527 -524 522 -525Q518 -524 514 -524Q503 -525 496 -535Q489 -546 480 -555Q455 -574 455 -582Q460 -588 475 -591Q476 -589 476 -588Z"/>
</svg>