<svg xmlns="http://www.w3.org/2000/svg" viewBox="0 -800 1024 1024">
	<path fill="#000000" d="M704 -200Q711 -183 702 -167Q698 -151 688 -121L686 -119Q656 -93 635 -88Q620 -84 615 -83Q594 -80 573 -78Q567 -77 560 -77Q546 -74 550 -62Q553 -56 549 -48Q549 -47 548 -46Q548 -20 548 5Q548 28 547 39H546Q545 40 543 40Q538 40 535 42Q531 52 519 45Q514 43 512 34Q512 27 511 26Q510 24 504 29Q501 28 497 27Q496 22 494 17Q489 5 487 -9Q483 -19 486 -28Q489 -36 480 -51Q475 -59 468 -54Q467 -53 466 -53Q444 -53 422 -56H421Q414 -56 411 -57Q408 -57 407 -58Q404 -55 399 -57Q382 -61 364 -68Q339 -84 333 -89Q317 -102 312 -120Q310 -123 307 -127Q302 -137 300 -139Q294 -147 294 -157Q295 -168 293 -178Q293 -189 294 -190Q300 -200 300 -212Q300 -225 302 -237Q304 -246 305 -247Q307 -248 315 -246Q335 -241 343 -217Q346 -206 361 -181Q370 -160 379 -140Q385 -131 396 -125L403 -119Q405 -119 406 -118Q442 -106 481 -106H483V-109Q484 -112 484 -124Q484 -132 484 -139Q483 -146 491 -151V-154Q488 -174 485 -195Q484 -203 483 -212Q483 -240 485 -247Q486 -254 486 -262Q485 -269 493 -275V-279Q481 -293 490 -307Q498 -317 494 -330Q487 -347 486 -361Q486 -362 485 -362Q483 -362 483 -363Q459 -373 435 -383Q411 -391 398 -411Q398 -414 394 -415Q381 -422 379 -433Q379 -437 378 -437Q368 -444 368 -455Q367 -466 363 -475Q354 -489 364 -493V-494Q363 -504 371 -519Q368 -528 377 -541L382 -547Q382 -555 394 -572L412 -599Q415 -606 422 -606Q423 -609 423 -612L433 -639Q435 -639 436 -640Q452 -634 461 -639Q466 -640 470 -641Q474 -645 485 -642Q498 -641 499 -654Q501 -668 503 -673Q510 -691 510 -710Q513 -720 505 -728Q498 -733 501 -742Q504 -752 516 -751Q541 -749 559 -731L562 -728Q574 -727 576 -726Q578 -725 584 -715Q585 -715 585 -714Q595 -708 594 -701Q592 -693 589 -685Q581 -675 592 -666Q593 -665 593 -655Q592 -651 593 -648Q608 -644 626 -641Q641 -633 656 -626Q676 -618 683 -602Q689 -602 691 -595Q692 -589 693 -581Q693 -578 692 -575Q693 -556 679 -550Q678 -549 676 -549Q674 -548 672 -548Q658 -544 637 -551Q631 -549 613 -558Q596 -566 587 -557Q581 -551 585 -545Q591 -533 590 -518Q589 -508 589 -490Q587 -475 585 -460Q588 -449 577 -445Q578 -438 580 -438Q589 -434 586 -427Q583 -413 585 -386Q587 -382 594 -379Q600 -376 613 -369Q616 -367 619 -363Q622 -359 628 -363H629Q632 -358 642 -354Q650 -351 654 -345Q666 -332 674 -320Q680 -305 688 -297Q699 -283 700 -269Q707 -250 706 -230Q706 -223 706 -216Q706 -208 705 -205Q705 -202 704 -200ZM625 -217Q629 -226 622 -233Q615 -238 621 -244Q628 -251 618 -265Q610 -276 610 -291Q610 -292 609 -294Q608 -295 608 -296Q603 -294 601 -298Q600 -300 599 -306Q597 -314 592 -316Q587 -317 579 -311Q568 -303 572 -289L570 -272Q567 -259 562 -246Q558 -233 562 -219Q562 -217 561 -216L558 -187Q558 -186 556 -180Q553 -174 551 -164Q550 -148 551 -133Q551 -126 556 -119Q567 -122 567 -123L568 -124L577 -128Q583 -131 585 -131Q592 -131 597 -136Q615 -133 621 -149Q622 -153 622 -174ZM498 -503Q505 -507 505 -511Q505 -515 499 -520Q495 -523 495 -529L492 -570Q497 -586 482 -594Q465 -605 448 -617L439 -620L441 -610Q441 -608 445 -607Q456 -601 449 -587Q443 -575 446 -567Q448 -564 443 -561Q435 -559 440 -554Q447 -539 439 -533Q437 -532 437 -528Q439 -521 436 -516Q433 -510 432 -504Q430 -488 432 -483Q445 -459 457 -436L461 -434Q477 -430 483 -416Q483 -415 484 -415Q485 -415 486 -414Q496 -424 496 -426Q487 -438 497 -450V-451Q490 -456 497 -468Q503 -480 495 -489Q489 -497 498 -503Z"/>
</svg>