<svg xmlns="http://www.w3.org/2000/svg" viewBox="0 -800 1024 1024">
	<path fill="#000000" d="M414 -239Q413 -246 411 -254Q413 -263 423 -270Q434 -278 435 -281Q514 -314 549 -412Q548 -418 547 -424Q547 -432 564 -442Q579 -451 586 -451Q597 -451 610 -446Q627 -439 627 -428Q627 -412 611 -391Q595 -370 576 -364Q573 -353 564 -348Q556 -343 549 -338Q523 -311 496 -285Q489 -278 479 -272Q466 -264 466 -262Q466 -258 492 -248Q512 -240 512 -238Q512 -236 511 -234Q511 -232 516 -232Q532 -229 541 -216Q565 -192 594 -173Q622 -153 649 -133Q652 -130 653 -125Q655 -119 657 -119Q660 -120 662 -121Q671 -121 681 -114Q694 -105 694 -93Q693 -82 684 -78Q675 -75 674 -72Q679 -65 683 -59Q678 -56 662 -56Q628 -56 563 -107Q514 -141 483 -170Q464 -186 440 -202Q415 -217 413 -234Q414 -236 414 -239ZM400 -623Q398 -555 389 -491Q385 -428 380 -365Q381 -358 382 -352Q378 -324 374 -296Q375 -283 376 -271Q373 -253 369 -236Q369 -199 360 -130Q350 -57 343 -57Q319 -57 311 -80Q306 -94 306 -127Q306 -218 310 -252V-270Q320 -367 329 -465Q333 -485 337 -506Q342 -534 346 -562Q348 -583 350 -604Q348 -620 346 -637Q346 -645 356 -649Q363 -652 373 -652Q388 -652 393 -648Q400 -643 400 -623Z"/>
</svg>