<svg xmlns="http://www.w3.org/2000/svg" viewBox="0 -800 1024 1024">
	<path fill="#000000" d="M160 -237Q173 -260 185 -266Q188 -265 190 -265Q194 -265 199 -270Q203 -274 204 -276Q202 -279 200 -283Q200 -285 210 -295Q223 -308 223 -312Q223 -319 202 -340Q190 -352 190 -354Q190 -364 180 -364Q171 -364 168 -367Q159 -375 150 -375Q140 -376 128 -377Q127 -376 126 -376Q122 -378 118 -380Q116 -380 112 -377Q108 -375 97 -375Q66 -375 66 -385Q65 -392 52 -394Q40 -396 40 -403Q41 -405 41 -407Q40 -408 34 -413Q28 -419 25 -427Q25 -435 35 -441Q43 -446 48 -446Q50 -446 54 -437Q59 -426 63 -426Q73 -430 89 -434Q97 -433 104 -432Q117 -434 129 -437Q130 -437 140 -431Q141 -432 147 -432Q157 -430 166 -429Q171 -429 175 -430Q184 -430 198 -419Q210 -409 220 -409Q230 -409 245 -384Q249 -386 253 -389Q255 -388 260 -383Q264 -378 270 -377Q281 -381 290 -401Q292 -407 304 -411Q315 -415 315 -424Q315 -427 321 -431Q329 -436 331 -444Q340 -460 351 -471Q355 -470 358 -469Q363 -471 367 -473Q377 -470 387 -467Q391 -468 395 -469Q400 -469 400 -462Q400 -438 369 -403Q340 -364 308 -329Q307 -328 307 -324Q307 -312 320 -292Q333 -272 333 -264Q332 -257 331 -250Q333 -247 334 -244Q335 -247 341 -253Q344 -250 346 -248Q345 -235 344 -223Q344 -220 349 -217Q355 -214 355 -208Q352 -203 352 -200Q352 -191 369 -162Q380 -143 380 -138Q378 -129 375 -121Q375 -115 382 -104Q387 -96 387 -92Q387 -85 386 -79Q387 -75 387 -72Q387 -63 383 -61Q378 -59 369 -51Q366 -46 364 -46Q359 -50 356 -55Q353 -51 349 -48Q347 -48 343 -53Q339 -59 335 -59Q333 -58 330 -57Q322 -57 318 -82Q318 -88 311 -95Q303 -104 303 -109Q303 -115 305 -137Q305 -139 303 -141Q297 -151 293 -162Q293 -164 294 -165Q295 -167 296 -170Q290 -173 289 -186Q288 -193 287 -193Q280 -198 269 -224Q258 -250 252 -250Q248 -250 236 -240Q227 -232 223 -231Q205 -224 193 -206Q170 -173 147 -159Q123 -145 121 -138Q121 -136 117 -137Q114 -138 113 -135V-134Q114 -133 114 -132Q112 -128 98 -118Q95 -115 83 -107Q71 -93 58 -80Q21 -45 -14 -16Q-16 -14 -18 -14Q-28 -14 -28 -36Q-27 -63 -10 -76Q7 -89 20 -100Q41 -126 61 -139Q68 -142 81 -162Q95 -185 104 -188Q112 -191 133 -215Q148 -232 151 -232Q155 -230 159 -228Q162 -230 162 -236Q161 -237 160 -237Z"/>
</svg>