<svg xmlns="http://www.w3.org/2000/svg" viewBox="0 -800 1024 1024">
	<path fill="#000000" d="M168 -64V-65Q133 -67 97 -70Q84 -71 71 -73Q67 -74 45 -88Q41 -92 39 -92Q30 -95 27 -102Q23 -110 20 -116Q14 -125 23 -133Q35 -143 36 -157Q36 -164 37 -165Q39 -167 44 -162Q46 -160 47 -160Q58 -162 69 -164Q79 -166 86 -177Q97 -190 107 -204Q117 -218 122 -223L140 -241Q145 -246 150 -251Q156 -257 162 -264Q167 -269 172 -271Q176 -274 177 -282Q182 -287 186 -293Q192 -302 206 -318Q219 -332 231 -349Q257 -386 269 -398Q286 -418 300 -439L334 -482Q338 -486 358 -504Q362 -508 363 -511Q370 -527 384 -539Q393 -546 396 -559Q396 -561 408 -584Q411 -590 410 -592Q409 -594 403 -592Q384 -588 364 -584Q351 -580 338 -576Q326 -572 312 -574Q309 -575 307 -573Q294 -560 264 -562Q247 -562 229 -562Q217 -563 205 -565Q185 -566 167 -574Q160 -577 153 -579Q145 -581 144 -592Q143 -593 143 -594Q130 -600 134 -611Q138 -622 136 -631L137 -632Q138 -632 139 -633Q141 -629 148 -630Q154 -631 156 -629Q165 -622 179 -624Q207 -627 234 -631Q236 -631 241 -626Q243 -623 243 -622Q244 -622 247 -626Q249 -630 250 -630Q253 -632 257 -629Q264 -624 272 -630Q280 -635 299 -633H303Q320 -640 342 -639Q350 -639 358 -640Q359 -639 360 -639H362Q364 -632 370 -633Q375 -634 377 -636Q382 -643 389 -643Q395 -643 402 -645Q412 -647 423 -647Q433 -647 443 -653Q447 -655 459 -653Q474 -649 496 -636Q497 -636 497 -630Q491 -606 472 -590Q458 -575 446 -558Q432 -542 423 -530Q419 -522 415 -515Q400 -489 378 -467Q357 -440 335 -413Q328 -403 321 -393Q316 -388 306 -374Q276 -337 245 -295Q244 -292 242 -289Q239 -286 234 -292Q231 -289 231 -288Q230 -273 220 -261Q217 -257 198 -241Q195 -239 193 -238Q190 -236 190 -231Q188 -227 181 -223L173 -214L164 -200Q160 -194 145 -183Q117 -159 106 -147Q102 -143 89 -135Q86 -133 86 -131Q88 -130 90 -130L117 -124Q122 -124 123 -120Q126 -115 129 -115Q132 -115 134 -119Q141 -128 152 -125Q171 -125 190 -125Q206 -124 222 -124Q242 -124 262 -125Q270 -125 278 -126Q286 -126 293 -121H294Q295 -121 295 -122Q314 -131 333 -126Q359 -127 384 -125Q397 -125 409 -126Q417 -126 429 -121Q430 -120 431 -120Q457 -130 482 -120Q486 -120 489 -121Q495 -123 497 -122Q507 -118 553 -116Q565 -113 565 -110Q564 -99 558 -94Q555 -91 541 -85Q515 -70 487 -66Q477 -65 466 -65Q455 -63 444 -61Q442 -60 429 -63Q427 -63 424 -64Q400 -61 354 -63Q326 -61 297 -63Q285 -65 273 -64Q260 -63 249 -68Q247 -68 246 -67Q228 -61 210 -65H206Q187 -64 168 -64Z"/>
</svg>