<svg xmlns="http://www.w3.org/2000/svg" viewBox="0 -800 1024 1024">
	<path fill="#000000" d="M468 -347H474Q503 -347 530 -364Q541 -371 577 -401Q604 -424 620 -441Q630 -453 640 -466Q650 -478 664 -483Q665 -482 665 -481Q663 -476 658 -472Q644 -454 627 -434Q610 -414 600 -389Q608 -394 624 -416Q644 -442 656 -447Q650 -430 631 -408Q607 -380 602 -358Q617 -375 635 -399Q633 -387 627 -378Q621 -368 616 -357Q595 -310 586 -296Q566 -264 540 -253Q536 -250 534 -245Q526 -244 512 -238Q496 -231 484 -231H482Q412 -233 340 -296Q317 -318 292 -340Q267 -362 239 -367H232Q207 -366 187 -350Q167 -334 149 -318Q125 -298 73 -270Q67 -272 61 -274Q58 -274 55 -270Q53 -271 51 -275Q49 -280 46 -281Q38 -278 29 -276Q30 -284 30 -292Q30 -298 26 -299Q25 -300 23 -300Q18 -297 12 -294H10Q19 -320 33 -339Q47 -358 63 -379Q87 -413 106 -425Q118 -430 129 -436Q184 -470 225 -470Q239 -470 254 -467Q279 -462 309 -444Q346 -418 383 -384Q420 -350 468 -347ZM667 -470L670 -467Q669 -452 660 -451Q658 -452 656 -453Q658 -463 659 -464Q662 -470 667 -470Z"/>
</svg>