<svg xmlns="http://www.w3.org/2000/svg" viewBox="0 -800 1024 1024">
	<path fill="#000000" d="M292 -56V-49Q292 -45 295 -44Q308 -49 322 -49Q335 -49 340 -45Q324 -39 322 -22Q322 -12 330 -7Q334 -9 339 -9Q344 -9 348 -7Q341 1 333 8Q326 16 325 30Q329 28 332 26Q333 26 334 27Q334 37 323 52Q313 66 311 73Q292 78 259 78Q241 78 223 77Q160 77 138 98Q94 97 83 62Q83 61 82 61Q82 59 84 59H85Q87 59 87 58Q80 35 80 6Q80 -11 83 -25L77 -35Q80 -48 80 -64Q79 -94 77 -125Q82 -130 82 -145Q82 -159 78 -166L83 -203V-206Q80 -231 77 -257Q79 -284 81 -312V-318Q80 -341 78 -365Q80 -377 81 -389Q80 -408 78 -428Q78 -438 81 -447Q78 -448 78 -452Q79 -455 79 -458Q79 -460 77 -464Q81 -473 81 -489Q81 -504 80 -520Q82 -526 84 -532Q83 -552 81 -572Q81 -583 83 -587Q80 -591 77 -596Q80 -602 80 -613Q79 -628 77 -643Q77 -651 80 -659Q73 -668 73 -676Q73 -682 77 -683Q64 -702 64 -732Q64 -764 78 -802Q116 -807 127 -807Q139 -807 145 -806Q161 -802 175 -802Q181 -802 186 -803Q266 -811 296 -811H297Q299 -811 299 -809V-805Q315 -807 331 -809Q329 -806 322 -804Q315 -802 314 -794Q343 -802 352 -802H357Q353 -795 339 -789Q328 -784 325 -782V-766L348 -772V-770Q348 -767 341 -762Q329 -753 329 -745Q330 -742 330 -740Q331 -739 332 -739Q337 -740 341 -742H343V-740Q343 -734 338 -730Q334 -726 333 -724Q334 -721 334 -718Q334 -706 324 -689Q315 -675 314 -668Q269 -664 222 -664Q175 -665 155 -640Q158 -635 158 -627Q157 -615 156 -604Q156 -593 161 -588Q159 -553 157 -519Q157 -499 160 -484Q153 -473 153 -450Q154 -427 155 -404Q155 -391 154 -386Q153 -377 151 -369Q151 -362 155 -358V-356Q153 -354 151 -353V-352Q153 -344 157 -338Q154 -327 154 -317V-307Q154 -292 151 -287Q153 -281 153 -272Q153 -262 152 -252Q152 -245 155 -233V-232Q153 -230 151 -228V-227Q155 -207 155 -176Q155 -146 154 -116Q154 -73 160 -45Q184 -39 216 -39Q246 -39 278 -44Q280 -45 283 -51Q286 -58 290 -59Q292 -59 292 -56Z"/>
</svg>