<svg xmlns="http://www.w3.org/2000/svg" viewBox="0 -800 1024 1024">
	<path fill="#000000" d="M85 87H83Q63 87 42 68Q40 53 25 38Q26 37 27 36Q31 37 34 38Q36 38 36 36V33Q36 23 18 10Q38 6 39 -8Q38 -16 27 -20Q17 -24 15 -29Q21 -26 27 -26Q34 -26 48 -34Q58 -40 64 -41Q68 -41 72 -42Q95 -38 117 -35Q125 -38 133 -38Q155 -36 176 -34Q190 -34 197 -36L204 -177V-187Q204 -206 203 -217Q200 -328 200 -333Q202 -391 203 -450V-458Q202 -489 200 -521Q202 -535 204 -550Q204 -558 199 -568Q201 -612 201 -629Q201 -662 199 -685Q189 -687 184 -687Q162 -684 139 -682Q108 -677 77 -673Q61 -673 48 -683V-689Q48 -701 37 -715Q30 -724 28 -731V-733Q28 -736 31 -736Q34 -736 34 -739V-740Q29 -750 13 -764Q17 -766 19 -766Q30 -763 37 -758Q43 -764 43 -768Q42 -776 34 -783Q26 -789 21 -796Q31 -794 38 -794Q56 -794 60 -809Q63 -810 68 -810Q83 -806 98 -803Q121 -799 172 -799H225Q232 -807 243 -807Q265 -803 287 -799Q288 -798 288 -795Q288 -791 287 -788Q287 -784 290 -783Q291 -783 292 -782Q294 -782 296 -786Q299 -791 304 -791H305Q307 -791 307 -789Q307 -785 305 -783H306Q315 -787 323 -792Q322 -787 315 -778Q306 -767 305 -760V-758Q308 -746 310 -734V-731Q306 -722 298 -714Q277 -676 277 -550V-350Q276 -326 275 -302V-293Q275 -93 283 22Q284 30 284 37Q284 52 278 78Q267 95 266 99Q236 79 174 79Q158 79 120 81Q103 84 85 87Z"/>
</svg>