<svg xmlns="http://www.w3.org/2000/svg" viewBox="0 -800 1024 1024">
	<path fill="#000000" d="M665 16L666 17Q667 16 668 12Q669 8 673 7H674Q672 14 672 30Q673 54 674 78Q674 91 671 103Q664 134 647 148Q641 152 626 157Q605 163 598 175Q588 171 577 167Q574 167 571 171Q506 133 482 51Q469 9 465 -48Q456 -45 452 -37Q449 -29 444 -21Q427 1 410 22Q396 42 382 68Q368 91 353 115Q338 139 332 168Q325 180 311 180Q292 180 274 160Q258 141 256 134Q255 132 255 126V112Q247 88 243 66Q243 60 246 55V54Q244 50 241 45Q254 33 254 16Q249 -14 237 -45Q245 -40 255 -22Q263 -7 271 -1Q274 -4 274 -6Q274 -9 268 -15Q262 -21 262 -26Q271 -17 280 -17Q298 -17 329 -51Q401 -123 437 -188Q428 -285 361 -368Q322 -396 303 -402Q301 -414 293 -431Q283 -451 283 -461Q283 -468 284 -471Q263 -500 249 -533Q254 -531 291 -496Q288 -508 273 -528Q274 -529 276 -529Q279 -529 286 -521Q295 -511 302 -511Q306 -511 308 -512V-513Q308 -515 301 -520Q296 -524 296 -526V-527Q298 -527 299 -528Q309 -525 318 -522Q323 -523 329 -529Q334 -535 338 -537Q353 -547 380 -547Q396 -547 406 -542Q416 -535 426 -524Q440 -514 453 -503Q465 -492 468 -471Q491 -448 504 -400Q506 -391 521 -311Q557 -363 570 -388Q594 -432 604 -477Q600 -484 595 -484Q585 -481 574 -479Q597 -496 628 -522Q637 -533 645 -545Q652 -557 662 -562Q663 -563 690 -568Q705 -574 712 -574H715Q727 -572 736 -542Q759 -526 774 -506Q773 -503 773 -498Q773 -490 781 -475Q789 -460 789 -451V-450Q789 -433 772 -410Q753 -385 734 -385Q732 -385 729 -386Q688 -359 654 -316Q620 -273 588 -230Q578 -217 565 -201Q552 -184 549 -170Q549 -167 548 -165Q551 -149 554 -134Q560 -98 573 -64Q589 -22 607 -9Q613 -4 627 -4H634Q641 -15 645 -30Q649 -44 662 -50Q657 -26 652 -2Q656 -9 671 -48Q674 -60 678 -73Q682 -86 693 -92Q678 -42 665 16Z"/>
</svg>