<svg xmlns="http://www.w3.org/2000/svg" viewBox="0 -800 1024 1024">
	<path fill="#000000" d="M432 -694H435Q434 -689 427 -684Q419 -678 418 -672Q423 -669 426 -669Q430 -669 439 -676Q449 -684 456 -684Q443 -661 425 -644Q410 -625 367 -594Q325 -563 308 -541Q304 -539 300 -538Q288 -527 277 -513Q266 -499 249 -495Q246 -494 243 -494Q228 -496 215 -505Q208 -506 200 -508Q188 -513 171 -527Q157 -539 152 -541Q150 -545 147 -550Q107 -580 66 -608Q25 -636 -11 -669H-10Q-2 -669 13 -659Q29 -648 40 -648Q44 -648 47 -649Q44 -653 35 -659Q22 -667 20 -676Q28 -675 37 -670Q47 -664 54 -664H58Q63 -667 64 -675Q64 -678 59 -680Q53 -683 53 -687Q58 -691 63 -691Q69 -690 75 -690H80Q97 -697 114 -705Q120 -699 126 -693Q150 -679 173 -666Q184 -657 203 -643Q221 -629 235 -628H236Q251 -630 272 -643Q292 -657 302 -664Q319 -675 332 -686Q346 -698 364 -702Q361 -696 349 -686Q334 -673 333 -663Q349 -664 361 -675Q374 -686 386 -694Q387 -689 390 -689Q397 -691 403 -694V-693Q402 -688 400 -684Q400 -683 401 -682H403Q408 -682 418 -688Q428 -694 432 -694ZM456 -298Q461 -298 461 -293Q459 -285 457 -277Q451 -277 451 -282Q454 -290 456 -298ZM183 38H182Q177 40 166 40Q149 40 112 24Q74 12 47 -25Q44 -32 40 -40Q35 -45 29 -51Q20 -69 20 -121Q20 -182 24 -214Q30 -265 49 -292Q61 -364 130 -413Q134 -415 144 -415Q181 -444 201 -450Q219 -455 238 -455Q250 -455 266 -453Q312 -448 339 -407Q353 -386 376 -324Q378 -319 383 -294Q395 -246 395 -230Q395 -204 379 -192Q374 -189 359 -186Q344 -184 338 -177Q311 -182 302 -182Q297 -182 287 -180Q208 -160 200 -158Q153 -152 111 -140V-132Q111 -103 132 -87Q151 -73 182 -73Q194 -73 206 -76Q263 -88 332 -115Q368 -130 383 -139Q394 -147 404 -160Q413 -166 420 -170Q428 -175 432 -184Q436 -195 441 -220Q448 -255 456 -268Q459 -266 459 -261Q458 -249 456 -238Q456 -228 455 -218Q455 -206 457 -192Q460 -224 466 -253Q470 -246 470 -232Q470 -217 469 -203Q469 -186 474 -180Q476 -184 476 -188Q476 -193 475 -198Q475 -207 480 -208Q483 -159 514 -137Q502 -131 501 -108Q500 -81 496 -74Q485 -61 462 -49Q439 -31 410 -14Q389 -4 346 9Q337 14 327 18Q312 21 297 23Q255 36 241 38Q235 39 223 39Q202 39 194 44Q189 41 183 38ZM252 -289V-295Q252 -338 220 -360Q206 -359 197 -352Q188 -345 180 -335Q167 -312 145 -301Q143 -293 135 -282Q123 -265 123 -250Q128 -247 132 -247Q143 -249 154 -256Q173 -265 201 -270Q209 -272 226 -280Q242 -288 252 -289Z"/>
</svg>