<svg xmlns="http://www.w3.org/2000/svg" viewBox="0 -800 1024 1024">
	<path fill="#000000" d="M736 -332Q730 -327 722 -326Q720 -326 718 -327Q723 -335 731 -337Q735 -337 736 -332ZM750 58H748Q723 53 693 44Q648 36 593 27Q539 18 481 17H464Q450 18 435 18Q414 18 393 17Q316 17 289 38Q280 44 270 57Q254 76 240 83Q216 65 201 56Q182 12 182 -27V-35Q185 -68 190 -76Q193 -82 206 -91Q220 -100 223 -105Q235 -128 240 -152Q248 -159 253 -183Q259 -209 268 -215Q277 -250 289 -284Q301 -317 302 -356Q282 -365 262 -378Q242 -390 241 -422Q221 -433 221 -470Q221 -496 234 -509Q226 -521 214 -549H216Q219 -549 227 -540Q237 -529 243 -527Q240 -538 227 -559Q214 -581 210 -597Q217 -593 229 -578Q246 -556 258 -552V-553Q258 -561 247 -571Q236 -581 234 -588Q235 -589 237 -589Q249 -585 260 -581H261Q271 -581 289 -597Q311 -617 324 -617H326Q332 -617 342 -611Q351 -605 357 -605Q363 -604 375 -604Q416 -608 462 -615Q488 -625 568 -634Q629 -641 649 -645Q677 -653 695 -656Q703 -656 708 -654Q724 -662 747 -665H750Q751 -664 751 -663Q751 -661 747 -658Q742 -654 742 -651Q745 -650 751 -650Q763 -650 782 -657Q802 -664 809 -665Q799 -659 789 -652Q778 -646 771 -636H773Q797 -639 820 -643Q827 -643 831 -642Q825 -636 801 -627Q780 -619 776 -606H777Q781 -606 788 -612Q797 -620 801 -621Q801 -616 794 -607Q790 -602 788 -596Q786 -591 786 -580Q786 -555 806 -533Q788 -508 783 -470Q774 -470 760 -460Q748 -451 741 -450Q737 -449 730 -449H711Q648 -439 585 -430Q487 -419 437 -404Q442 -390 442 -370Q442 -339 426 -324Q429 -323 434 -323Q445 -323 455 -329Q520 -332 565 -339Q573 -342 580 -345Q583 -345 585 -344Q594 -351 622 -356Q641 -359 651 -364Q655 -364 658 -359Q660 -355 663 -355H664Q672 -357 679 -360Q680 -360 684 -358Q686 -356 686 -355Q682 -348 678 -342Q699 -353 725 -356H730Q720 -348 708 -341Q695 -335 688 -323Q689 -322 690 -322Q696 -325 702 -328Q704 -328 706 -326V-324Q706 -321 702 -317Q698 -312 697 -308V-306Q700 -293 706 -281Q702 -260 697 -239Q677 -230 671 -209Q656 -203 636 -203Q626 -203 600 -205Q591 -206 575 -206Q550 -206 464 -197Q436 -193 417 -185Q393 -171 374 -167Q363 -167 352 -177Q335 -167 328 -148Q322 -128 315 -108Q326 -106 350 -106Q370 -106 379 -107Q387 -108 403 -108Q441 -107 479 -106Q499 -106 509 -107Q519 -108 541 -108Q568 -107 595 -107Q618 -107 629 -108Q665 -112 700 -116Q707 -117 712 -122Q718 -127 724 -131Q727 -125 727 -116Q733 -120 735 -139Q738 -161 747 -164Q748 -161 748 -153V-135Q748 -109 759 -105Q768 -109 782 -110Q773 -99 770 -86Q770 -81 774 -77Q781 -78 787 -80H789V-78Q789 -73 788 -69V-67Q789 -62 795 -57Q800 -53 801 -50Q800 -47 800 -41Q802 -24 804 -7V-2Q802 13 785 34Q765 58 750 58Z"/>
</svg>