<svg xmlns="http://www.w3.org/2000/svg" viewBox="0 -800 1024 1024">
	<path fill="#000000" d="M706 -122V-110Q706 -87 714 -80Q711 -70 704 -64Q697 -57 690 -51Q681 -39 672 -26Q663 -13 651 -3Q580 49 478 52Q394 45 353 -18Q334 -51 334 -100Q334 -121 338 -136Q345 -162 364 -183Q373 -192 403 -217Q401 -227 384 -239Q371 -249 367 -256Q350 -292 350 -337Q350 -364 357 -379Q396 -475 519 -480Q542 -480 554 -478Q591 -471 613 -443Q634 -415 657 -393Q666 -342 666 -330Q666 -319 665 -313Q648 -303 646 -277Q645 -276 642 -276Q637 -278 634 -283H633Q629 -283 629 -277Q629 -270 625 -270Q623 -270 622 -275Q621 -280 618 -280H614Q602 -278 590 -276H588Q582 -276 573 -282Q563 -289 557 -289H556Q538 -330 480 -331Q470 -331 465 -330Q455 -329 441 -320Q426 -311 425 -304Q425 -301 424 -298Q425 -283 438 -274Q451 -265 461 -256Q472 -257 492 -257Q532 -257 555 -248Q582 -237 592 -211Q589 -208 589 -206Q589 -203 594 -196Q600 -187 600 -181V-180Q598 -179 596 -179Q594 -181 591 -183Q589 -179 589 -177Q591 -167 592 -158Q583 -151 582 -139Q564 -134 539 -134Q514 -134 489 -133Q448 -132 435 -105Q432 -97 432 -92Q432 -74 452 -65Q469 -57 495 -57H505Q562 -57 614 -93Q659 -124 686 -172Q685 -149 680 -130Q687 -132 690 -148Q692 -160 696 -165Q698 -155 698 -146Q698 -134 696 -124Q698 -124 699 -128Q700 -133 703 -133H705Q706 -130 706 -122Z"/>
</svg>