<svg xmlns="http://www.w3.org/2000/svg" viewBox="0 -800 1024 1024">
	<path fill="#000000" d="M474 95L465 98Q456 159 419 179Q373 175 361 158Q354 142 351 121Q348 116 344 110Q342 104 338 87Q334 66 326 58Q331 48 342 36Q356 20 360 12Q363 2 365 -9Q367 -20 375 -27V-29Q378 -43 381 -58Q387 -66 391 -69V-84Q391 -122 373 -187Q355 -217 338 -249Q332 -252 316 -266Q298 -281 287 -285Q287 -295 280 -318Q273 -342 273 -354Q273 -370 283 -381Q268 -433 268 -452V-459Q283 -429 303 -406Q292 -442 290 -446H291Q297 -446 306 -433Q315 -420 321 -420H323V-422Q319 -429 314 -437Q316 -437 317 -438Q321 -438 327 -432Q333 -426 338 -425H340Q357 -430 369 -437Q374 -437 379 -438Q422 -435 447 -409Q458 -395 464 -377Q470 -360 478 -342Q479 -340 479 -339Q478 -335 477 -332V-330Q482 -309 484 -255Q486 -210 491 -187Q498 -194 508 -210Q522 -232 532 -240Q532 -264 550 -265V-269Q550 -275 551 -277Q564 -292 578 -319Q590 -343 594 -348Q608 -362 621 -376Q621 -377 627 -388Q630 -395 637 -396Q641 -412 657 -422Q664 -426 689 -437H700Q703 -437 703 -436Q718 -443 733 -451Q729 -446 729 -436H733Q741 -436 752 -444Q765 -454 774 -454Q772 -446 767 -442Q761 -438 755 -433Q756 -432 757 -432Q762 -435 767 -439Q762 -404 762 -403V-396Q763 -395 764 -395Q766 -395 768 -398Q771 -402 773 -402H776Q772 -387 767 -373Q766 -369 766 -359V-352Q766 -338 764 -331Q762 -325 755 -318Q747 -311 747 -306Q743 -304 738 -303Q736 -303 736 -300V-296Q736 -294 735 -293Q726 -292 721 -286Q715 -280 708 -274Q696 -269 683 -264Q677 -258 671 -252Q648 -240 629 -223Q627 -215 625 -207Q593 -188 557 -120Q544 -98 530 -78Q516 -58 509 -34Q508 -31 508 -24Q508 -11 512 -3Q508 11 495 34Q475 69 474 95Z"/>
</svg>