<svg xmlns="http://www.w3.org/2000/svg" viewBox="0 -800 1024 1024">
	<path fill="#000000" d="M108 -814H114Q122 -823 123 -838Q145 -798 188 -775Q231 -753 276 -731Q339 -695 402 -660Q421 -647 440 -634Q450 -631 459 -629Q474 -623 489 -614Q504 -605 516 -604H517Q534 -605 557 -617Q579 -630 597 -640Q670 -683 743 -727Q786 -751 790 -754Q813 -770 821 -793Q831 -800 859 -803Q886 -806 896 -813H897Q899 -813 899 -812Q898 -809 897 -807Q897 -805 899 -805H903Q909 -805 914 -811Q919 -817 924 -817Q926 -816 926 -812Q926 -808 924 -804Q930 -805 938 -815Q944 -822 950 -825Q945 -804 945 -801Q951 -794 958 -788Q965 -782 968 -771Q960 -750 942 -738Q925 -726 906 -715H904Q900 -715 896 -716H894Q873 -706 648 -582Q628 -571 607 -560Q572 -537 560 -531Q528 -515 501 -515Q485 -515 468 -521Q460 -526 448 -543Q436 -559 426 -566Q412 -575 396 -582Q381 -588 369 -601Q286 -641 204 -683Q122 -726 33 -760Q34 -763 34 -767Q33 -775 31 -784Q35 -791 46 -799Q57 -808 61 -813Q67 -815 75 -815Q82 -815 83 -822Q93 -816 108 -814Z"/>
</svg>