<svg xmlns="http://www.w3.org/2000/svg" viewBox="0 -800 1024 1024">
	<path fill="#000000" d="M509 -97H507Q474 -101 432 -101Q314 -101 225 -62Q192 -45 161 -22Q126 3 115 13Q94 34 87 61Q82 60 80 51Q78 44 73 42Q71 42 68 41Q55 43 50 58Q45 78 37 89Q35 78 35 43Q34 -1 28 -20Q36 -56 36 -86Q36 -115 28 -131Q32 -149 35 -167Q35 -173 34 -176Q58 -185 106 -185Q148 -183 189 -182Q384 -174 420 -174Q493 -176 566 -178Q589 -178 600 -177H604Q629 -179 653 -181Q663 -181 667 -180Q676 -178 684 -177Q733 -179 782 -181Q797 -181 805 -180H810Q831 -181 851 -183H860Q901 -186 942 -189Q957 -184 968 -170V-168Q967 -162 966 -157V-155Q969 -148 972 -141V-139Q968 -115 963 -94Q963 -80 965 -76Q965 -73 969 -63Q967 -36 965 -7Q964 21 957 48Q963 67 963 105V122Q957 114 952 93Q946 69 940 61Q939 62 939 67V82Q934 71 924 66Q914 61 905 55Q895 47 882 30Q869 12 861 6Q847 -2 833 -11Q724 -94 544 -99H542Q536 -98 529 -98Q523 -98 516 -102Q513 -98 509 -97Z"/>
</svg>