<svg xmlns="http://www.w3.org/2000/svg" viewBox="0 -800 1024 1024">
	<path fill="#000000" d="M359 115V119Q352 120 344 121Q339 121 334 119Q330 120 322 120Q293 116 254 112Q198 112 100 108Q103 100 121 95Q138 91 142 85V84Q142 76 133 71Q121 64 119 60Q144 56 163 35Q173 23 192 -10Q264 -136 264 -292Q264 -316 263 -328Q258 -438 245 -499Q235 -552 226 -602Q217 -652 198 -691Q191 -703 177 -719Q161 -736 157 -745Q152 -757 150 -769Q147 -783 133 -785Q133 -788 139 -789Q143 -790 144 -793Q141 -801 128 -801Q121 -800 113 -800Q102 -800 97 -805Q100 -815 113 -815Q119 -814 125 -814Q185 -817 244 -821Q256 -820 267 -820Q348 -816 362 -808Q376 -800 376 -780Q372 -755 368 -730Q364 -698 362 -622Q362 -617 361 -613Q362 -608 362 -604V-555Q359 -417 355 -279Q355 -246 357 -184Q362 -49 362 -13V-9Q362 5 361 18Q361 30 365 38Q362 47 362 55Q363 65 363 75Q363 89 356 96Q359 114 359 115Z"/>
</svg>