<svg xmlns="http://www.w3.org/2000/svg" viewBox="0 -800 1024 1024">
	<path fill="#000000" d="M579 -190V-202Q580 -203 583 -203H589Q586 -200 585 -196Q584 -191 579 -190ZM602 -88V-82Q602 -68 609 -61Q601 -48 583 -4Q576 -2 569 9Q562 20 555 23Q553 24 548 24Q536 23 524 21Q520 21 514 23Q505 0 489 -19Q473 -37 456 -55Q414 -103 392 -125Q359 -157 326 -188Q292 -218 262 -254Q250 -247 201 -209Q188 -201 170 -188Q151 -176 144 -162Q138 -140 138 -118Q129 -61 118 -23Q113 -23 103 -18Q92 -13 85 -13Q79 -13 71 -16Q60 -21 40 -43Q28 -62 18 -90Q9 -102 6 -118Q6 -120 10 -142Q23 -206 50 -291Q61 -330 70 -366Q83 -410 86 -443Q85 -449 83 -455Q86 -463 88 -472Q88 -473 86 -479Q82 -486 74 -493Q66 -499 59 -506Q57 -508 56 -511Q54 -517 50 -518Q53 -533 53 -553Q53 -567 52 -573V-574Q52 -576 53 -576Q57 -576 61 -572Q66 -584 66 -594Q66 -608 54 -637Q40 -671 40 -691V-694Q63 -643 83 -609Q87 -613 87 -619Q87 -628 77 -644Q68 -659 67 -665Q74 -663 87 -645Q99 -629 106 -626V-629Q106 -632 102 -639Q97 -648 97 -654V-657Q102 -656 109 -649Q117 -641 124 -641H126Q137 -644 148 -648H152Q159 -647 166 -647Q190 -649 213 -652Q217 -652 223 -650Q230 -646 236 -632Q243 -615 255 -612Q265 -578 274 -544Q254 -502 231 -463Q209 -424 197 -375Q212 -384 247 -413Q289 -447 314 -461Q329 -479 348 -493Q368 -506 386 -521Q405 -544 428 -551Q434 -565 451 -582Q469 -600 474 -611Q472 -622 450 -626Q450 -630 458 -632Q464 -634 465 -638Q458 -641 445 -641Q436 -641 422 -639V-640Q423 -646 434 -650Q445 -654 455 -660Q463 -667 469 -677Q489 -680 529 -695Q559 -710 567 -710H570Q580 -708 593 -679Q604 -655 610 -651Q609 -649 609 -643V-639Q617 -624 627 -609Q638 -594 641 -573Q642 -568 642 -563Q638 -527 634 -492V-488Q537 -474 474 -426Q411 -378 353 -325Q391 -292 429 -259Q447 -246 465 -233Q484 -213 511 -190Q519 -184 526 -179Q531 -179 538 -191Q546 -204 553 -204Q556 -204 557 -203Q556 -193 551 -187Q550 -186 549 -185Q557 -191 568 -209Q571 -217 574 -226Q577 -236 586 -237Q585 -229 576 -210Q565 -187 564 -172Q565 -171 567 -171Q569 -171 571 -175Q574 -181 577 -181Q577 -149 585 -128Q595 -112 601 -100Q602 -96 602 -88Z"/>
</svg>