<svg xmlns="http://www.w3.org/2000/svg" viewBox="0 -800 1024 1024">
	<path fill="#000000" d="M740 75H738Q728 75 714 66Q700 57 691 57Q687 41 658 25Q636 12 631 3Q646 4 656 11Q666 19 678 24Q662 7 616 -16Q578 -34 565 -47Q574 -44 602 -32Q638 -17 655 -14Q647 -21 619 -31Q600 -38 592 -42Q598 -45 604 -45Q613 -45 630 -39Q649 -32 657 -32Q659 -40 659 -47Q659 -74 634 -146Q585 -293 531 -426Q492 -374 464 -316Q436 -257 408 -198L379 -138Q357 -96 334 -51Q311 -6 303 49Q276 49 246 66Q233 57 219 48H217Q212 50 206 52H204Q205 49 205 43Q204 31 197 23Q190 15 186 6V5Q187 2 187 -1V-2Q182 -13 175 -21Q175 -25 174 -29Q176 -48 178 -67V-75H179Q182 -75 183 -72Q183 -69 186 -69Q243 -157 290 -256Q336 -356 384 -453Q385 -470 396 -491Q407 -512 408 -526Q413 -528 413 -532Q412 -537 414 -541H419Q429 -560 432 -579V-581Q432 -588 431 -596Q431 -605 438 -609Q435 -618 422 -618Q424 -624 430 -626Q435 -628 441 -631Q450 -637 469 -660Q487 -682 499 -688Q506 -692 514 -692Q527 -691 536 -684Q546 -677 555 -670Q557 -670 562 -675Q574 -653 590 -629Q606 -605 608 -576V-574Q608 -562 595 -547Q597 -543 597 -540Q597 -535 590 -526Q582 -516 582 -509V-506Q582 -494 587 -481Q591 -470 599 -459Q602 -449 604 -441Q605 -433 613 -429Q625 -384 654 -321Q659 -313 664 -306Q671 -285 678 -265Q698 -207 725 -149Q740 -113 761 -75Q793 -27 793 5Q793 16 790 28Q785 45 769 60Q753 75 740 75ZM622 3Q618 4 612 4Q602 4 601 -5Q604 -10 608 -10Q618 -8 622 3Z"/>
</svg>