<svg xmlns="http://www.w3.org/2000/svg" viewBox="0 -800 1024 1024">
	<path fill="#000000" d="M642 -107V-97Q642 -49 605 3Q597 18 589 32Q575 51 515 75Q462 96 424 96H416Q404 96 361 88H340Q288 73 257 47Q226 21 201 -22V-26Q201 -34 194 -41Q195 -43 195 -47Q192 -61 189 -76Q190 -85 191 -95Q191 -101 189 -103Q189 -106 192 -115Q192 -155 210 -189Q223 -213 253 -249Q279 -279 294 -289Q303 -293 312 -298Q379 -348 444 -348H451Q497 -425 542 -501Q588 -578 626 -663Q525 -627 493 -567Q485 -569 481 -569Q456 -565 442 -550Q440 -551 440 -554Q442 -560 444 -567V-568Q441 -580 428 -580Q419 -578 409 -576V-577Q412 -584 414 -592Q414 -595 413 -597H411Q404 -597 391 -588Q379 -580 370 -579Q374 -594 395 -610Q412 -623 416 -630Q416 -633 412 -634Q407 -636 407 -639V-640Q419 -644 427 -657Q433 -666 438 -682H439Q442 -682 444 -677Q445 -673 447 -672Q455 -674 469 -684H473Q493 -685 513 -695Q532 -706 552 -718Q619 -753 685 -789Q702 -798 720 -808Q739 -817 757 -818Q762 -818 770 -816Q787 -809 796 -790Q805 -772 816 -756V-753Q815 -743 814 -733Q814 -728 817 -724Q816 -718 814 -712Q820 -677 822 -628Q826 -616 829 -604Q827 -601 825 -598Q828 -590 830 -583Q835 -552 839 -523Q843 -493 854 -471Q844 -460 842 -457Q835 -447 835 -437V-433Q832 -434 831 -439Q830 -443 829 -445Q816 -444 816 -415Q813 -417 812 -426Q811 -435 807 -436Q796 -435 795 -415Q794 -401 789 -397Q774 -449 740 -457Q740 -460 748 -475Q744 -480 744 -488Q745 -498 746 -508Q744 -517 742 -526Q741 -530 741 -537V-549Q741 -564 740 -571Q734 -600 731 -624Q699 -590 676 -549Q652 -508 629 -466Q605 -426 577 -386Q550 -346 534 -300Q569 -259 604 -217Q639 -175 642 -107ZM507 -138V-141Q507 -148 506 -155Q506 -159 507 -162Q494 -206 481 -225H478Q472 -224 465 -223Q464 -238 447 -238Q435 -237 422 -236Q417 -236 413 -238V-234Q396 -232 382 -223Q368 -213 358 -205Q348 -199 337 -193Q308 -161 297 -115Q296 -111 296 -102Q300 -47 328 -27Q350 -12 383 -12Q434 -12 468 -44Q505 -83 507 -138Z"/>
</svg>