<svg xmlns="http://www.w3.org/2000/svg" viewBox="0 -800 1024 1024">
	<path fill="#000000" d="M446 -229V-224Q446 -199 433 -136Q420 -69 420 -35Q420 -13 424 6Q421 13 412 24Q403 35 400 44Q390 46 387 46Q377 46 360 37Q346 30 335 28Q323 1 305 -23Q287 -46 285 -79Q285 -87 286 -92Q293 -115 303 -143Q308 -172 312 -202Q322 -229 325 -257Q325 -265 322 -274Q288 -261 267 -233Q246 -206 223 -181Q221 -162 199 -146Q187 -124 171 -101Q163 -85 155 -48Q147 -14 141 -1Q136 10 115 22Q112 21 106 21Q98 21 86 28Q75 15 61 14Q47 -12 26 -20Q21 -33 19 -47Q17 -62 1 -63H0Q16 -84 35 -146Q50 -197 60 -215Q62 -221 62 -225Q61 -238 59 -252Q59 -257 60 -259Q54 -268 48 -278V-283Q48 -292 54 -306Q59 -319 60 -323V-327Q58 -347 55 -368Q55 -383 64 -389Q64 -366 73 -353Q70 -395 70 -402Q70 -419 73 -436Q78 -422 80 -402Q83 -383 92 -371Q92 -384 91 -398Q91 -406 92 -410Q101 -396 107 -380H108Q117 -384 125 -389H128Q138 -388 148 -387Q153 -387 156 -389Q160 -383 169 -381Q177 -379 180 -377Q191 -369 207 -340Q222 -312 232 -304Q248 -313 262 -326Q277 -339 292 -351Q336 -383 376 -383Q404 -383 418 -362Q436 -334 442 -256Q444 -242 446 -229Z"/>
</svg>