<svg xmlns="http://www.w3.org/2000/svg" viewBox="0 -800 1024 1024">
	<path fill="#000000" d="M330 43H322Q272 43 208 15Q125 -21 79 -89Q29 -163 29 -267Q29 -358 71 -453Q144 -616 321 -676Q319 -687 300 -695Q278 -704 275 -712Q312 -703 339 -686Q336 -690 327 -696Q315 -705 312 -714Q348 -698 377 -688Q382 -694 389 -694Q405 -691 422 -683Q430 -661 445 -648Q460 -636 478 -622Q492 -608 506 -595Q514 -591 521 -588Q555 -559 587 -471Q620 -395 623 -309Q623 -289 622 -279Q614 -156 559 -87Q517 -32 483 -6Q436 30 380 37Q355 40 330 43ZM519 -339V-343Q519 -407 498 -465Q476 -525 442 -549H441V-548Q434 -535 430 -524Q426 -513 413 -507Q404 -504 394 -504H375Q330 -499 297 -472Q272 -451 247 -410Q224 -377 210 -348Q191 -299 191 -246Q191 -190 211 -156Q249 -96 337 -91Q350 -91 356 -92Q391 -96 430 -125Q462 -150 488 -217Q519 -299 519 -339Z"/>
</svg>