<svg xmlns="http://www.w3.org/2000/svg" viewBox="0 -800 1024 1024">
	<path fill="#000000" d="M377 -516V-512Q375 -511 373 -511Q364 -511 362 -524H366Q377 -524 377 -516ZM356 -528H355Q339 -531 322 -534Q310 -534 310 -525Q310 -524 312 -516H309Q306 -516 300 -510Q303 -499 308 -492Q252 -512 179 -531Q149 -541 139 -541Q127 -541 123 -531Q117 -535 112 -540Q108 -546 101 -546H100Q77 -565 77 -621V-639Q83 -646 94 -669Q95 -669 96 -670Q99 -669 101 -668H102Q133 -680 145 -680Q159 -678 167 -671Q176 -663 186 -656Q213 -642 246 -629Q289 -609 337 -592Q385 -574 420 -546Q417 -545 412 -545Q402 -545 383 -553Q357 -564 343 -564Q349 -558 366 -550Q387 -539 394 -531Q378 -536 365 -542Q351 -548 335 -549H330Q333 -543 343 -538Q353 -532 356 -528ZM172 30H170Q167 32 164 33H163Q153 24 128 10Q101 -5 91 -15Q64 -41 45 -75Q22 -115 19 -156Q18 -164 18 -179Q18 -236 44 -281Q56 -301 105 -359Q169 -434 250 -461Q257 -458 264 -455Q269 -458 273 -461H275Q281 -460 287 -459Q322 -478 375 -478H382Q367 -473 350 -468Q332 -464 324 -452H326Q331 -452 340 -457Q349 -462 356 -462H359Q354 -452 345 -447Q336 -442 334 -429Q337 -429 339 -435Q341 -440 343 -440Q344 -440 346 -438Q348 -436 348 -435Q345 -425 342 -415Q346 -403 349 -392Q437 -343 437 -219Q437 -197 434 -173Q430 -142 417 -102Q414 -92 398 -71Q388 -58 383 -48Q360 -2 336 15Q299 42 240 42Q204 42 172 30ZM235 -82H237Q253 -82 272 -101Q285 -114 296 -119Q319 -157 327 -177Q348 -224 348 -247V-249Q344 -260 340 -271V-274Q341 -283 341 -292Q341 -300 337 -305Q336 -306 336 -305Q315 -303 294 -301Q286 -301 282 -302Q271 -293 259 -289Q252 -274 239 -261Q226 -247 212 -234Q177 -208 169 -165V-154Q169 -113 199 -94Q215 -86 235 -82Z"/>
</svg>