<svg xmlns="http://www.w3.org/2000/svg" viewBox="0 -800 1024 1024">
	<path fill="#000000" d="M840 -587H833Q815 -587 793 -607Q771 -627 766 -646Q762 -661 762 -680Q762 -731 790 -769Q820 -809 865 -809Q864 -801 852 -797Q840 -792 839 -785Q855 -792 874 -802Q892 -813 917 -815Q901 -805 884 -795Q867 -784 857 -767H862Q888 -767 901 -746Q923 -710 923 -677V-670Q923 -650 905 -614Q885 -608 881 -596Q861 -589 840 -587ZM659 -577H653Q634 -578 623 -586Q611 -594 598 -599Q568 -630 568 -682V-688Q568 -716 587 -748Q605 -778 628 -793Q645 -804 666 -807Q687 -811 707 -815Q709 -814 710 -814Q705 -806 685 -799Q664 -791 659 -781Q679 -788 701 -800Q722 -812 751 -815Q743 -805 717 -793Q690 -781 682 -769Q705 -764 720 -736Q734 -709 734 -676Q734 -646 724 -625Q713 -601 692 -593Q683 -591 674 -589Q665 -588 659 -577Z"/>
</svg>