<svg xmlns="http://www.w3.org/2000/svg" viewBox="0 -800 1024 1024">
	<path fill="#000000" d="M403 -406V-407Q403 -413 411 -413Q418 -413 419 -410Q412 -405 407 -405Q404 -405 403 -406ZM418 -311V-306Q417 -290 405 -283Q393 -276 381 -269Q369 -271 345 -271Q279 -271 243 -239Q194 -193 183 -169Q176 -153 175 -134Q175 -115 173 -97Q172 -83 170 -70Q170 -62 172 -59Q168 -51 167 -18Q166 4 164 8Q148 36 148 37Q138 43 125 43Q107 43 91 25Q90 24 67 -9Q61 -42 40 -56Q52 -73 53 -92Q54 -111 55 -131Q58 -138 61 -145V-147Q60 -154 59 -162V-164Q62 -169 64 -175V-189Q64 -220 61 -256Q61 -262 65 -263Q60 -270 60 -280V-288Q60 -294 59 -297Q51 -314 37 -332Q25 -350 19 -370Q21 -376 22 -383Q22 -389 17 -400Q12 -411 12 -419V-424H13Q18 -424 20 -418Q22 -411 25 -410Q8 -453 6 -478Q13 -475 15 -468Q17 -460 19 -454Q28 -440 36 -427Q38 -426 39 -425Q31 -442 25 -461Q33 -459 40 -449Q47 -439 58 -433Q64 -441 71 -448Q77 -445 85 -445Q95 -445 104 -448Q112 -443 120 -441Q124 -441 126 -442Q132 -438 137 -433Q142 -428 150 -427Q153 -419 164 -406Q181 -387 183 -374Q189 -351 191 -328V-322Q185 -308 181 -289Q211 -326 253 -352Q295 -377 336 -403V-397Q336 -392 338 -391H342Q351 -391 365 -398Q377 -404 383 -404Q390 -404 394 -400Q370 -398 370 -381V-380H373Q385 -384 402 -388H404V-387Q404 -382 398 -380Q392 -377 392 -373Q393 -368 396 -368Q402 -369 408 -371H409V-369Q413 -343 425 -322Q422 -316 418 -311Z"/>
</svg>