<svg xmlns="http://www.w3.org/2000/svg" viewBox="0 -800 1024 1024">
	<path fill="#000000" d="M831 16V20Q828 30 810 48Q776 78 746 78H742Q731 78 703 69Q679 61 663 60Q623 55 583 49Q576 49 569 48Q539 50 508 52H503Q456 47 437 47Q422 47 416 48Q412 50 407 52Q383 57 360 61Q337 66 319 77Q295 67 274 55Q244 70 219 70Q208 70 197 67Q204 62 224 56Q239 52 246 48Q244 47 240 47Q228 50 216 52H213Q216 47 225 39Q235 32 237 26Q227 9 224 4Q216 -12 216 -23Q216 -30 219 -39Q223 -41 226 -43Q228 -50 229 -57Q235 -65 247 -72Q258 -79 268 -86Q271 -89 274 -93Q301 -107 330 -111Q457 -189 560 -286Q533 -305 449 -349Q413 -370 376 -387Q354 -393 331 -400Q310 -408 289 -417H284Q272 -416 260 -415Q232 -417 206 -442Q179 -469 179 -498Q179 -513 188 -528Q181 -542 169 -552Q173 -554 178 -554Q185 -553 192 -553Q178 -563 166 -574Q153 -585 136 -591H141Q155 -591 173 -585Q194 -578 206 -578H211Q204 -588 191 -593Q178 -598 166 -604Q171 -607 175 -607Q191 -603 206 -599Q213 -599 217 -603Q216 -606 209 -608Q201 -611 200 -615H208Q215 -615 250 -622Q248 -626 242 -629Q235 -633 235 -635V-636Q254 -646 281 -646Q291 -645 310 -645Q323 -645 330 -646Q417 -617 518 -617Q538 -617 549 -618Q595 -622 641 -630Q673 -630 696 -634Q701 -635 710 -641Q723 -649 730 -649H734Q747 -648 758 -643Q769 -637 779 -634Q796 -601 819 -575Q824 -533 832 -492Q827 -496 821 -510Q817 -519 814 -523Q807 -519 807 -509Q810 -491 817 -477Q810 -479 802 -486Q794 -492 782 -493Q776 -493 773 -492Q771 -492 771 -487V-481Q736 -509 724 -516Q705 -517 666 -517Q578 -517 528 -503Q521 -504 507 -504Q472 -504 398 -492Q480 -440 571 -402Q606 -384 637 -379Q651 -383 664 -387Q681 -386 694 -372Q707 -358 708 -340Q708 -338 713 -337Q717 -337 717 -334V-331Q714 -291 689 -276Q666 -261 649 -240H638Q628 -222 613 -222Q611 -222 607 -224Q498 -156 440 -92Q473 -82 530 -82Q611 -84 692 -87Q713 -86 733 -86H748Q774 -86 788 -92Q797 -105 820 -146Q817 -119 808 -87Q812 -89 814 -98Q816 -107 819 -109Q817 -97 817 -88Q817 -50 834 -36Q827 -29 827 -17Q829 0 831 16ZM157 -549H153Q145 -549 137 -555V-562Q145 -562 157 -558Z"/>
</svg>