<svg xmlns="http://www.w3.org/2000/svg" viewBox="0 -800 1024 1024">
	<path fill="#000000" d="M390 -713V-715Q390 -724 403 -724Q409 -724 415 -722Q410 -712 396 -712Q392 -712 390 -713ZM922 -305V-294Q922 -265 904 -180Q895 -134 865 -89Q841 -52 823 -31Q800 -5 771 15Q751 29 732 39Q718 45 694 47Q665 50 654 54Q523 37 453 -44Q380 -129 380 -277V-294Q375 -296 364 -296Q345 -294 326 -293H302Q292 -293 286 -288Q285 -266 285 -219Q285 -153 288 -84Q296 -82 300 -82Q312 -82 338 -92Q356 -99 362 -99H365Q366 -98 366 -97Q366 -95 362 -93Q357 -90 357 -87Q372 -89 386 -92H393Q391 -88 383 -83Q372 -76 372 -65V-63Q372 -60 377 -60Q383 -60 388 -61Q392 -61 394 -59Q391 -55 386 -53Q381 -50 381 -42Q381 -33 380 -24V-22Q385 -14 390 -7Q391 -3 391 1Q389 21 374 33Q358 45 347 60Q318 49 272 49Q254 49 245 50Q238 51 223 51H213Q193 51 185 53Q177 55 161 64Q148 71 140 73H133Q101 71 86 50Q78 36 74 18Q70 1 56 -10Q56 -14 55 -18Q55 -32 71 -50Q87 -67 88 -81Q95 -88 108 -94Q126 -103 131 -108V-105Q129 -97 126 -90V-89Q126 -74 149 -74Q158 -74 174 -76Q176 -201 178 -327Q178 -404 174 -460Q172 -493 160 -503H152Q141 -503 138 -500Q133 -503 124 -507Q116 -511 109 -520Q108 -526 106 -533Q103 -540 96 -547Q85 -557 85 -568V-574Q85 -575 92 -589Q81 -608 68 -624Q55 -641 49 -664Q62 -651 73 -638Q85 -624 103 -617Q101 -624 91 -633Q82 -641 80 -647Q91 -642 104 -640H109Q110 -641 110 -643Q110 -644 105 -648Q100 -652 100 -655Q100 -657 101 -658H104Q112 -657 120 -656Q121 -657 137 -670H146Q163 -669 180 -669Q191 -669 196 -670Q210 -676 223 -682Q232 -684 252 -684Q272 -684 280 -686Q291 -688 307 -698Q323 -707 330 -709Q332 -709 332 -707Q329 -701 326 -695H329Q338 -695 348 -701Q358 -707 364 -707Q368 -707 371 -706Q348 -690 348 -671Q348 -665 351 -658Q359 -658 369 -663Q380 -668 387 -668Q385 -662 375 -655Q363 -646 363 -639Q363 -634 365 -631H366Q368 -631 372 -634Q377 -638 382 -638H383Q372 -620 372 -603Q372 -587 381 -577Q363 -565 362 -545Q331 -543 322 -535Q327 -529 327 -522Q326 -512 324 -502Q324 -499 323 -497Q324 -490 325 -483Q325 -481 324 -479Q323 -473 316 -463Q310 -455 309 -451Q307 -447 307 -438V-430Q307 -422 306 -419Q306 -415 298 -395Q325 -397 349 -398Q373 -399 393 -404Q442 -513 491 -575Q555 -655 645 -689Q643 -697 622 -708Q606 -716 603 -722Q633 -717 659 -697Q657 -702 648 -709Q639 -716 637 -724Q667 -710 696 -700H697Q698 -700 698 -702V-707Q725 -701 738 -694Q742 -671 756 -659Q769 -647 785 -634Q797 -621 809 -608Q820 -602 830 -593Q847 -570 862 -536Q910 -439 922 -305ZM659 -87H668Q696 -87 728 -110Q755 -129 772 -156Q793 -190 808 -235Q825 -288 825 -334V-350Q825 -415 806 -472Q786 -531 754 -557Q754 -558 753 -558V-557Q746 -543 742 -531Q738 -518 726 -512Q721 -510 703 -510H695Q684 -510 680 -509Q629 -500 589 -449Q530 -367 525 -245Q525 -169 560 -128Q597 -87 659 -87Z"/>
</svg>