<svg xmlns="http://www.w3.org/2000/svg" viewBox="0 -800 1024 1024">
	<path fill="#000000" d="M662 -593V-595Q668 -596 673 -598Q675 -598 677 -596Q675 -583 666 -583Q663 -583 661 -584Q661 -585 660 -587Q661 -590 662 -593ZM661 -472V-467Q649 -464 649 -449Q649 -442 653 -434Q640 -443 635 -455Q626 -447 607 -447H592Q572 -447 564 -437Q566 -444 567 -452Q545 -467 545 -503Q545 -525 555 -543Q566 -562 584 -566Q586 -574 586 -589Q586 -609 590 -616Q594 -610 594 -595V-592Q594 -580 597 -575Q601 -567 615 -565Q626 -563 631 -560Q637 -563 642 -568Q646 -573 655 -574Q648 -563 645 -551Q645 -546 649 -542Q669 -548 686 -548H693Q691 -541 678 -540Q664 -538 662 -530V-529Q667 -520 672 -512V-509Q672 -502 667 -491Q661 -478 661 -472ZM715 -257V-252Q715 -243 712 -236Q706 -238 706 -249Q706 -257 712 -257ZM443 -503V-501Q443 -489 432 -470Q425 -457 423 -449Q416 -442 401 -438Q390 -435 384 -431Q383 -430 383 -424Q383 -416 379 -415Q375 -432 353 -443Q324 -458 319 -463Q310 -461 301 -459Q299 -459 295 -461Q306 -471 319 -479Q317 -501 296 -504Q267 -508 237 -509Q250 -515 280 -519Q309 -523 319 -527Q315 -539 307 -547Q299 -554 290 -561Q307 -556 328 -553Q339 -553 346 -558Q351 -564 353 -573Q354 -586 366 -587H367Q367 -581 366 -576Q366 -572 369 -569Q372 -569 373 -572Q375 -575 377 -575H378Q383 -570 399 -565Q422 -558 426 -548Q441 -564 444 -567Q455 -578 467 -580Q462 -566 453 -555Q443 -545 435 -533V-531Q438 -516 443 -503ZM688 -147L697 -191Q700 -201 702 -212Q705 -222 712 -228Q713 -223 713 -218Q711 -192 708 -166Q709 -161 709 -156Q713 -164 718 -188Q722 -208 726 -217Q728 -213 728 -203Q727 -184 726 -166Q726 -150 732 -143Q733 -144 733 -147Q732 -154 731 -161Q731 -166 735 -167Q741 -137 755 -113Q761 -107 767 -101Q762 -91 757 -81Q755 -67 754 -54Q754 -41 748 -33Q740 -24 723 -16Q707 -8 693 0Q584 73 450 73H441Q381 73 332 42Q292 12 278 -36Q276 -44 276 -49Q277 -61 277 -73V-81Q275 -89 272 -98Q272 -108 271 -119Q271 -193 306 -265Q338 -330 384 -369H385Q392 -371 398 -374Q399 -374 403 -372Q409 -382 419 -386Q428 -390 440 -395Q451 -401 462 -407Q478 -411 498 -411Q510 -411 524 -409Q560 -405 583 -383Q606 -360 619 -327Q644 -257 656 -185Q652 -182 648 -171Q645 -163 641 -159Q622 -145 593 -140Q584 -141 575 -143H570Q537 -143 467 -125Q425 -114 415 -111Q373 -98 370 -90Q369 -88 369 -83Q369 -67 389 -52Q406 -40 422 -37H441Q475 -37 538 -60Q576 -74 597 -77Q610 -91 632 -98Q649 -106 662 -120Q674 -134 688 -147ZM376 -212V-210Q402 -213 443 -228Q483 -243 505 -246Q506 -250 506 -259Q506 -280 496 -298Q485 -317 471 -317H469Q455 -316 446 -306Q437 -296 426 -284Q415 -274 407 -266Q399 -257 396 -245Q389 -239 382 -234Q379 -223 376 -212Z"/>
</svg>