<svg xmlns="http://www.w3.org/2000/svg" viewBox="0 -800 1024 1024">
	<path fill="#000000" d="M941 -725V-727Q941 -737 955 -737Q960 -737 966 -735Q959 -724 947 -724Q943 -724 941 -725ZM941 -22V-16Q940 10 924 22Q909 34 895 47Q850 34 798 34Q768 34 741 40Q733 42 716 51Q701 59 692 61H685Q655 59 639 38Q634 31 628 13Q619 -14 608 -23Q608 -60 630 -67Q634 -91 651 -100Q668 -109 682 -121Q683 -119 683 -118Q680 -109 677 -100V-98Q680 -86 697 -86Q698 -86 725 -89Q728 -179 728 -281Q728 -373 725 -454Q728 -491 714 -514Q709 -513 700 -513Q671 -513 659 -536Q658 -544 646 -560Q635 -575 635 -584Q635 -594 643 -602Q633 -621 620 -636Q606 -651 602 -675Q613 -662 625 -649Q637 -637 655 -630Q653 -635 644 -644Q635 -653 633 -660Q645 -653 658 -653H662V-655Q662 -658 657 -662Q653 -665 653 -667Q653 -668 654 -669H663Q668 -669 670 -668Q674 -669 680 -676Q684 -681 688 -683H697Q715 -682 732 -682Q742 -682 747 -683Q761 -688 775 -694Q803 -696 831 -699Q841 -701 858 -710Q874 -718 882 -720Q883 -720 884 -719Q881 -713 877 -708H880Q889 -708 899 -713Q909 -718 915 -718Q921 -718 924 -717Q903 -709 899 -685Q899 -676 907 -669Q921 -676 934 -680H938Q937 -676 927 -668Q914 -658 914 -651Q914 -650 916 -644Q917 -643 918 -643Q924 -647 934 -651H935Q931 -634 921 -621Q931 -591 933 -587Q919 -584 913 -556Q910 -557 903 -557Q884 -557 873 -548Q873 -544 877 -540Q880 -537 880 -533Q878 -528 878 -519V-504Q878 -496 877 -493Q876 -484 868 -471Q857 -453 857 -441Q857 -436 858 -433Q857 -425 852 -421Q853 -419 853 -415Q847 -388 840 -360Q838 -279 834 -252Q836 -248 840 -244Q836 -160 836 -154Q836 -124 838 -112Q838 -97 846 -94Q850 -96 858 -96H863Q869 -96 873 -97Q879 -98 890 -104Q905 -112 914 -112H917V-111Q917 -108 912 -105Q909 -103 908 -100Q909 -99 913 -99Q924 -101 935 -104Q939 -104 941 -103Q942 -102 942 -101Q942 -98 935 -94Q923 -87 923 -79V-76Q924 -72 929 -72Q935 -72 940 -73Q944 -73 947 -70Q940 -67 935 -63V-59Q935 -48 934 -37Q934 -27 941 -22ZM602 -152V-144Q602 -62 538 -15Q477 30 377 30Q367 30 356 29H273Q260 28 247 26Q243 26 237 28Q232 30 228 38Q224 46 220 49Q216 48 211 43Q204 37 198 37H196Q154 6 120 -35Q121 -38 121 -43Q117 -60 108 -78Q120 -94 129 -139Q135 -171 140 -183Q139 -187 139 -195Q143 -235 150 -276Q153 -323 156 -370Q161 -385 165 -400Q172 -446 172 -493V-496Q172 -532 144 -552Q140 -569 120 -595Q95 -629 94 -660Q106 -644 116 -625Q126 -607 144 -597Q142 -606 130 -620Q116 -637 113 -648Q122 -645 137 -632Q150 -621 160 -617Q157 -624 151 -631Q142 -640 141 -647Q143 -648 145 -648Q155 -644 165 -640H166Q178 -641 187 -651Q197 -660 205 -668Q213 -669 223 -674Q235 -680 242 -680H245Q270 -678 289 -660Q307 -642 325 -630Q333 -619 349 -576Q344 -573 344 -561Q344 -552 347 -548Q331 -526 317 -501Q317 -495 319 -487Q297 -446 282 -363Q302 -365 313 -365Q420 -365 523 -286Q555 -260 563 -252Q581 -233 590 -205Q602 -167 602 -152ZM445 -217Q425 -227 405 -227Q379 -227 341 -205Q338 -197 334 -190Q330 -189 322 -189Q303 -189 283 -209Q270 -222 261 -224Q249 -168 246 -104Q317 -92 403 -87Q415 -87 426 -88Q505 -91 520 -116Q525 -125 525 -136Q525 -156 499 -180Q487 -193 477 -201Q464 -204 451 -208Q449 -209 445 -217Z"/>
</svg>