<svg xmlns="http://www.w3.org/2000/svg" viewBox="0 -800 1024 1024">
	<path fill="#000000" d="M891 -59V-57Q882 -15 854 12Q844 20 819 25Q798 29 789 34Q785 31 779 31Q770 32 761 33Q738 29 715 25H707Q706 25 655 28Q642 28 628 27Q512 31 395 34H299Q239 34 212 36Q201 36 196 39Q181 33 163 31Q159 24 153 16Q147 8 145 -5Q145 -39 152 -55Q158 -67 173 -74Q188 -81 199 -89Q222 -115 241 -152Q296 -245 351 -358Q376 -409 403 -462Q430 -515 450 -574Q456 -594 462 -615Q467 -637 474 -651Q483 -660 494 -660Q518 -655 536 -642Q571 -597 615 -510Q650 -443 691 -377Q732 -312 771 -245Q791 -212 810 -179Q845 -127 853 -117Q865 -105 877 -91Q890 -78 891 -59ZM652 -68H677Q697 -68 708 -74Q699 -98 681 -119Q659 -156 653 -167Q627 -220 558 -331Q511 -406 485 -455Q483 -455 481 -456H480Q427 -354 376 -251Q350 -202 322 -153Q293 -104 270 -51Q426 -58 591 -60Q622 -62 652 -68Z"/>
</svg>