<svg xmlns="http://www.w3.org/2000/svg" viewBox="0 -800 1024 1024">
	<path fill="#000000" d="M757 108H754Q756 104 760 102Q752 88 736 88Q731 88 719 92Q721 85 729 79Q732 77 742 70Q740 45 732 40Q767 22 803 -41Q855 -129 879 -203Q902 -275 902 -355V-375Q902 -480 864 -584Q859 -593 854 -602Q830 -664 816 -682Q814 -685 789 -710Q774 -721 760 -736Q753 -752 751 -773Q749 -781 740 -794Q730 -808 729 -819Q737 -818 747 -808Q754 -801 759 -799Q759 -800 760 -801Q760 -803 755 -808Q750 -812 750 -816Q750 -818 751 -819H753Q759 -819 766 -813Q772 -808 778 -808H781Q782 -809 783 -810Q781 -812 778 -815Q779 -816 780 -817H781Q785 -817 789 -812Q792 -809 796 -808Q803 -809 810 -811H812Q830 -809 847 -792Q855 -784 873 -759Q902 -713 922 -662Q976 -536 979 -358Q979 -276 963 -205Q955 -173 950 -158Q941 -138 929 -119Q895 -36 873 1Q858 30 845 60Q832 91 811 114Q785 119 783 120Q771 108 757 108ZM672 -55H674Q670 -46 669 -28Q668 -13 666 -7Q661 4 651 9Q641 14 633 21Q608 14 575 14Q531 16 487 17H470Q453 15 435 12Q428 12 424 13Q418 15 410 25Q400 39 393 40Q390 41 387 41Q370 38 358 30Q353 19 347 8Q339 5 331 1Q322 -7 322 -25Q323 -44 329 -65Q336 -85 338 -98Q349 -105 361 -113Q373 -121 388 -122H392Q391 -119 387 -116Q383 -113 383 -109Q392 -104 411 -104Q432 -104 450 -110Q463 -330 495 -502Q487 -501 483 -494Q479 -488 473 -482Q467 -477 446 -471Q425 -465 418 -457Q418 -464 422 -464H423Q415 -481 405 -481Q395 -481 386 -466Q385 -468 385 -472Q387 -483 392 -493Q383 -487 378 -477Q374 -467 368 -458Q369 -479 378 -496Q387 -514 397 -532Q414 -566 434 -600Q454 -634 468 -672Q481 -684 497 -696Q514 -709 538 -710Q546 -710 550 -709Q555 -708 565 -701Q575 -694 581 -693Q588 -697 595 -703Q602 -708 612 -710Q606 -698 606 -687Q613 -689 622 -699Q630 -708 636 -710Q637 -708 637 -705Q637 -699 630 -691Q621 -681 621 -675Q628 -680 634 -685Q636 -671 637 -657Q638 -643 651 -641Q651 -634 661 -620Q668 -610 670 -602Q671 -598 671 -595Q668 -575 657 -555Q618 -541 597 -489Q588 -467 568 -383Q539 -260 535 -113H545Q553 -113 640 -122V-121Q638 -118 636 -115V-113Q659 -117 682 -131Q681 -123 667 -109Q655 -98 652 -91Q655 -85 660 -80Q669 -83 677 -86Q681 -89 684 -94Q688 -99 694 -100Q698 -100 700 -99Q698 -92 682 -84Q664 -75 664 -65V-64Q666 -55 672 -55ZM278 93H270Q267 95 267 101V104Q267 110 266 111Q253 116 243 116Q213 113 188 96Q185 84 167 76Q165 64 151 46Q141 34 138 24Q83 -46 52 -131Q16 -228 16 -330Q16 -388 29 -446Q31 -458 33 -487Q37 -505 45 -524Q48 -539 51 -555Q57 -568 63 -581Q69 -618 84 -638Q83 -640 83 -643Q83 -646 87 -650Q90 -653 90 -654V-655H89Q88 -655 88 -657Q88 -658 89 -660Q90 -659 90 -658V-662Q90 -667 93 -667H96Q97 -683 112 -704Q126 -724 128 -738Q142 -751 152 -773Q161 -794 185 -796H189Q202 -807 223 -813Q223 -811 220 -802Q228 -805 234 -809Q240 -814 251 -814Q250 -810 242 -803Q229 -792 229 -783Q229 -779 232 -773Q233 -772 234 -772Q239 -776 244 -780Q245 -780 245 -779Q235 -764 235 -744Q235 -734 238 -725Q231 -722 229 -703Q220 -694 220 -687Q214 -684 208 -682Q153 -611 141 -559Q139 -561 137 -561V-558Q135 -549 128 -539Q115 -504 107 -461Q102 -451 100 -439Q100 -433 103 -429Q102 -430 101 -430Q100 -430 100 -429Q101 -427 101 -425V-424Q96 -404 91 -385Q90 -375 90 -354Q90 -245 129 -167V-155Q144 -135 162 -86Q211 6 272 44Q270 54 270 56Q274 77 285 92Q284 93 278 93Z"/>
</svg>