<svg xmlns="http://www.w3.org/2000/svg" viewBox="0 -800 1024 1024">
	<path fill="#000000" d="M928 -157V-159Q930 -177 943 -178Q947 -178 949 -176Q943 -163 928 -157ZM861 29V19Q861 2 849 -11Q837 -24 822 -24Q810 -24 801 -14Q801 -23 806 -28Q811 -33 814 -39Q806 -52 806 -75Q806 -114 825 -121Q823 -126 821 -131V-132Q836 -133 845 -153Q837 -166 833 -183Q833 -186 834 -188Q843 -184 850 -166Q855 -154 859 -150Q861 -152 865 -152Q871 -151 876 -151V-161Q876 -176 882 -177Q886 -141 908 -141H909Q912 -142 913 -146Q914 -150 920 -151H923Q917 -143 917 -138Q918 -126 928 -116Q938 -105 945 -97Q956 -98 967 -99H972Q959 -89 945 -83V-74Q945 -36 969 -20Q963 -20 938 -30Q933 -28 926 -21Q920 -15 914 -12Q899 -6 883 -3Q866 0 862 19V26ZM341 -129V-128Q360 -130 384 -145Q384 -139 374 -127Q361 -112 361 -104Q361 -101 366 -94Q373 -97 380 -101Q382 -101 383 -100Q384 -98 379 -91Q371 -79 371 -75Q371 -68 380 -68Q374 -60 374 -42Q374 -27 372 -22Q367 -10 358 -4Q347 2 337 9Q318 3 288 3Q241 5 193 7Q179 7 170 6Q155 4 139 1Q134 1 131 2Q121 3 111 17Q103 28 99 29H94Q85 29 62 20Q59 10 56 0Q50 -8 38 -9Q25 -19 25 -44Q25 -70 37 -85Q36 -88 36 -93Q36 -106 54 -120Q64 -125 73 -132Q83 -139 92 -140H94Q95 -139 96 -138Q92 -133 88 -125Q100 -118 117 -118Q135 -118 152 -125Q156 -196 169 -324Q183 -455 186 -519H184Q180 -519 173 -511Q168 -505 163 -503Q154 -501 145 -500Q139 -496 135 -489Q130 -483 123 -482Q124 -484 124 -490Q124 -503 109 -512Q104 -511 97 -504Q91 -498 89 -498V-501Q92 -511 96 -519Q89 -516 71 -486Q72 -507 82 -524Q91 -541 101 -558Q117 -593 133 -628Q143 -646 154 -665Q165 -684 172 -706Q186 -717 202 -731Q218 -745 241 -746Q246 -745 250 -745Q258 -744 270 -737Q281 -731 288 -729Q302 -737 316 -745Q313 -736 309 -728Q309 -725 310 -723Q316 -723 326 -733Q336 -743 342 -743H345Q340 -734 334 -727Q328 -720 327 -709Q332 -712 336 -721Q340 -718 340 -708V-701Q340 -694 341 -691Q343 -684 357 -676V-675Q357 -668 365 -654Q372 -642 373 -635Q374 -632 374 -625Q372 -606 363 -587Q317 -566 299 -507Q279 -443 268 -376Q239 -248 235 -129Q240 -128 251 -128Q302 -131 346 -139Q344 -134 341 -129ZM835 -337V-321Q835 -256 802 -173Q773 -104 751 -78Q723 -46 678 -15Q623 28 572 28Q563 28 559 27Q494 14 451 -30Q411 -68 388 -139Q366 -208 366 -290Q366 -324 370 -352Q384 -483 495 -606Q548 -667 591 -700Q616 -719 653 -730Q675 -736 729 -745Q737 -747 743 -747Q749 -747 752 -743Q737 -740 723 -737Q709 -734 701 -724H703Q717 -726 731 -729H734Q730 -725 723 -722Q712 -718 710 -712Q711 -711 713 -711Q719 -712 724 -713H728Q730 -713 730 -711Q727 -707 723 -703Q726 -689 745 -689H752V-688Q751 -685 745 -680Q739 -675 738 -668Q738 -663 740 -660Q742 -658 745 -658Q749 -658 751 -660Q745 -648 745 -635Q745 -624 748 -612Q835 -510 835 -337ZM710 -551H707Q621 -515 567 -456Q538 -425 518 -388Q494 -345 487 -304Q485 -278 485 -262Q486 -164 537 -124Q558 -110 584 -110Q615 -110 640 -127Q684 -155 715 -226Q744 -293 749 -370Q750 -379 750 -389Q750 -454 710 -551Z"/>
</svg>