<svg xmlns="http://www.w3.org/2000/svg" viewBox="0 -800 1024 1024">
	<path fill="#000000" d="M977 -739V-733Q955 -731 934 -712Q916 -720 891 -721Q866 -722 848 -726Q845 -727 837 -727Q816 -725 794 -723Q778 -726 762 -730Q731 -730 673 -726Q661 -728 648 -730Q634 -729 619 -729Q609 -729 604 -730Q590 -730 580 -725Q567 -728 550 -728Q516 -726 482 -724Q474 -724 458 -726Q379 -722 290 -718Q202 -714 127 -699Q99 -693 81 -693Q47 -693 39 -723Q33 -728 23 -733Q6 -741 3 -748Q0 -754 0 -762Q3 -789 29 -802V-808Q30 -831 49 -835Q69 -840 93 -842Q111 -845 144 -858Q173 -870 186 -872Q186 -863 166 -855Q149 -848 146 -839Q169 -826 223 -826Q248 -826 261 -827Q437 -833 625 -836Q813 -838 984 -851Q980 -846 969 -843Q955 -839 953 -834Q954 -827 962 -827Q975 -829 987 -831Q988 -830 988 -829Q988 -828 982 -824Q973 -818 973 -814V-812Q975 -805 981 -805Q988 -807 995 -809Q995 -805 991 -802Q987 -799 987 -797Q993 -790 1001 -787Q996 -775 987 -766Q978 -756 977 -739Z"/>
</svg>