<svg xmlns="http://www.w3.org/2000/svg" viewBox="0 -800 1024 1024">
	<path fill="#000000" d="M634 6Q625 3 615 0Q615 -7 624 -7Q635 -6 637 1Q637 3 634 6ZM575 -9H572Q565 -8 559 0Q550 12 549 13Q527 27 507 35Q506 38 506 46Q507 61 508 75Q508 83 505 89Q499 81 498 64Q497 44 486 37Q480 33 466 31Q452 29 445 25Q430 17 421 7Q411 -2 402 -11Q375 -8 348 -6Q354 -12 375 -20Q389 -25 397 -31Q396 -34 396 -40Q399 -60 402 -80Q402 -86 400 -89Q393 -94 381 -99Q386 -98 390 -98Q411 -98 418 -116Q418 -128 405 -138Q392 -148 391 -158Q411 -146 434 -135Q440 -137 448 -144Q456 -151 463 -152Q465 -153 469 -153Q482 -151 494 -149H496Q515 -154 517 -175Q519 -198 532 -212V-207Q531 -187 530 -168Q530 -148 537 -138Q545 -129 555 -122Q570 -103 576 -84Q582 -65 604 -58Q608 -57 616 -57H619Q631 -57 637 -52Q631 -49 622 -49Q610 -50 598 -51Q589 -51 583 -48Q579 -45 572 -24Q577 -22 601 -6Q599 -5 594 -5Q585 -7 575 -9ZM397 -473H394Q400 -482 408 -489Q387 -521 387 -542Q388 -546 388 -550V-567Q393 -599 397 -620V-622Q397 -638 379 -658Q365 -674 361 -686Q377 -682 388 -668Q398 -653 409 -641Q422 -647 433 -657Q445 -667 460 -668H466Q473 -671 480 -674Q482 -673 487 -673H495Q503 -673 505 -671Q512 -674 519 -687Q527 -701 534 -704Q530 -684 525 -664Q566 -633 586 -590V-582Q586 -576 585 -575Q594 -571 619 -569Q641 -567 651 -564Q641 -561 629 -561H620Q603 -561 595 -554Q590 -550 586 -538Q582 -527 577 -521Q581 -514 586 -508Q591 -502 592 -493V-489Q591 -489 590 -488Q585 -488 579 -497Q573 -505 571 -505Q563 -500 553 -491Q545 -488 531 -482Q516 -477 511 -471Q508 -467 508 -459Q509 -447 510 -435V-431Q504 -437 497 -450Q490 -463 487 -467H483Q474 -467 452 -474Q434 -480 423 -480H421Q409 -476 397 -473ZM537 -721Q538 -736 547 -739Q549 -738 550 -738Q552 -734 552 -732Q551 -721 541 -720Q539 -720 537 -721Z"/>
</svg>