<svg xmlns="http://www.w3.org/2000/svg" viewBox="0 -800 1024 1024">
	<path fill="#000000" d="M548 41H542Q482 41 456 18Q382 -9 358 -100Q359 -98 354 -91Q346 -79 346 -75Q346 -68 354 -68Q349 -60 349 -41Q349 -28 347 -22Q342 -10 333 -4Q322 2 312 9Q293 3 263 3Q216 5 168 7Q154 7 145 6Q130 4 114 1Q108 1 106 2Q96 3 86 17Q78 28 74 29H69Q60 29 37 20Q34 10 31 0Q25 -8 12 -9Q0 -19 0 -44Q0 -68 11 -85Q10 -88 10 -93Q10 -102 16 -109Q18 -112 29 -120Q39 -125 48 -132Q58 -139 67 -140H69Q70 -139 71 -138Q67 -133 62 -125Q76 -118 92 -118Q110 -118 127 -125Q131 -196 144 -324Q158 -455 161 -519H158Q154 -519 148 -512Q142 -505 138 -503Q129 -501 120 -500Q116 -497 111 -492Q103 -483 98 -482Q99 -484 99 -490Q99 -503 84 -512Q79 -511 72 -504Q66 -498 64 -498V-501Q67 -511 71 -519Q64 -517 46 -486Q47 -507 57 -524Q66 -541 76 -558Q92 -593 107 -628Q117 -646 129 -665Q140 -684 147 -706Q161 -717 177 -731Q193 -745 216 -746Q221 -745 225 -745Q233 -744 245 -737Q256 -731 263 -729Q277 -737 291 -745Q288 -736 284 -728Q284 -725 285 -723Q290 -723 300 -733Q310 -743 317 -743H320Q315 -734 309 -727Q303 -720 302 -709Q306 -712 311 -721Q315 -718 315 -708V-701Q315 -694 316 -691Q318 -684 332 -676V-675Q332 -668 340 -654Q347 -642 348 -635Q349 -632 349 -625Q347 -606 338 -587Q292 -566 274 -507Q254 -443 243 -376Q215 -250 209 -129Q215 -128 226 -128Q276 -131 321 -139Q319 -134 316 -129V-128Q330 -129 350 -140Q348 -166 348 -180Q348 -194 350 -226Q355 -259 367 -289Q379 -319 392 -347Q424 -421 445 -454Q444 -457 444 -466Q471 -514 501 -560Q501 -561 504 -561H509L512 -580Q522 -594 535 -606Q547 -618 554 -637Q563 -641 568 -651Q573 -661 578 -668Q587 -679 613 -701Q625 -713 637 -722Q649 -732 667 -736Q667 -733 663 -731Q659 -729 659 -725V-724Q666 -725 679 -736Q696 -751 710 -751H712Q691 -739 678 -717Q682 -717 689 -725Q697 -734 703 -736V-733Q703 -727 697 -718Q690 -708 690 -701Q691 -700 691 -698Q691 -697 692 -697Q697 -700 701 -704Q703 -704 703 -702Q702 -694 701 -686V-682Q701 -681 702 -681Q704 -681 706 -682H707Q704 -675 704 -662Q706 -642 707 -622Q707 -611 704 -602Q699 -590 683 -573Q666 -556 656 -545Q636 -512 615 -480Q585 -435 573 -415Q550 -377 540 -346Q590 -360 642 -363H650Q716 -363 767 -315Q824 -263 825 -202Q825 -162 798 -114Q754 -38 661 6Q617 27 608 30Q578 41 548 41ZM681 -211V-212Q681 -235 641 -253Q606 -269 579 -269H577Q524 -269 514 -256Q507 -248 507 -237Q508 -226 506 -215Q500 -176 500 -164Q500 -156 501 -152Q504 -115 558 -115Q570 -115 576 -116Q604 -119 640 -150Q681 -185 681 -211ZM867 29V19Q867 1 855 -11Q842 -24 827 -24Q814 -24 805 -14Q805 -23 810 -28Q815 -33 819 -39Q810 -51 810 -75Q810 -113 830 -121Q828 -126 826 -131V-132Q841 -133 850 -153Q842 -166 838 -183Q838 -186 839 -188Q848 -184 855 -166Q860 -154 864 -150Q868 -152 871 -152Q877 -151 882 -151V-161Q882 -176 888 -177Q892 -141 914 -141H916Q919 -142 920 -146Q921 -150 927 -151H930Q924 -143 924 -138Q925 -126 935 -116Q945 -105 952 -97Q964 -98 975 -99H980Q967 -89 952 -83V-74Q952 -36 977 -20Q970 -20 945 -30Q940 -28 933 -21Q927 -15 921 -12Q905 -6 889 -3Q872 0 868 19V26ZM354 -101Q357 -101 358 -100Q355 -110 351 -130Q339 -118 336 -104Q336 -101 341 -94Q348 -97 354 -101ZM935 -157V-159Q937 -177 950 -178Q954 -178 956 -176Q950 -163 935 -157Z"/>
</svg>