<svg xmlns="http://www.w3.org/2000/svg" viewBox="0 -800 1024 1024">
	<path fill="#000000" d="M860 -506V-499Q856 -497 851 -497Q846 -497 836 -505Q840 -509 848 -509Q856 -509 860 -506ZM828 -508H826Q808 -507 800 -495Q793 -483 783 -474H779Q772 -474 759 -469Q748 -465 741 -465H738Q728 -465 708 -477Q693 -486 683 -488Q677 -487 671 -486H669V-488Q670 -496 682 -499Q682 -502 678 -504Q674 -506 673 -508Q651 -498 645 -497Q647 -505 660 -512Q669 -517 672 -521Q666 -533 666 -549Q662 -556 647 -564Q632 -572 627 -580H630Q636 -580 652 -572Q666 -578 672 -594Q670 -602 666 -602Q666 -605 668 -605Q673 -604 677 -603H679Q691 -610 691 -635Q691 -647 686 -672Q693 -662 699 -650Q704 -638 714 -631H720Q731 -631 746 -622Q760 -614 767 -614H768Q776 -614 790 -624Q807 -636 818 -637Q816 -630 802 -620Q787 -609 784 -602Q785 -596 791 -592Q796 -589 797 -584Q820 -593 843 -599Q837 -589 826 -583Q814 -578 808 -568Q810 -561 812 -555Q812 -553 811 -551Q816 -547 829 -546Q850 -545 854 -536Q850 -537 841 -537Q811 -537 811 -516V-515Q812 -512 819 -512H821Q828 -512 828 -508ZM513 -470L503 -465H501Q489 -465 469 -477Q451 -488 438 -488Q432 -488 423 -485V-487Q423 -493 431 -498Q437 -501 438 -505Q426 -508 422 -525Q420 -531 417 -565V-571Q417 -585 429 -602Q429 -605 425 -607Q420 -609 420 -612V-614Q423 -613 429 -613Q447 -613 447 -638Q447 -646 445 -658Q449 -656 451 -649Q452 -645 455 -643Q460 -639 470 -639Q479 -639 488 -640H494Q498 -639 506 -634Q518 -627 526 -627H528Q536 -628 553 -636Q569 -644 580 -644H584Q554 -621 547 -609Q551 -599 560 -590Q597 -604 608 -605Q606 -598 589 -590Q573 -582 569 -574Q571 -558 582 -552Q594 -547 605 -543Q589 -541 582 -537Q572 -531 572 -517Q584 -513 595 -511Q579 -508 566 -496Q560 -490 547 -473Q530 -471 513 -470ZM374 -652Q372 -639 359 -639Q354 -639 352 -640Q354 -653 368 -653Q372 -653 374 -652ZM752 56H748Q736 56 714 39Q696 25 686 12Q678 -3 672 -28Q669 -35 666 -39Q663 -44 663 -52Q664 -55 664 -59Q666 -68 672 -82Q682 -103 683 -113Q686 -132 686 -181V-215Q684 -232 681 -250Q681 -260 686 -266Q661 -300 661 -349Q661 -387 680 -407Q681 -410 681 -414Q681 -417 680 -419Q688 -417 691 -417Q702 -417 708 -428Q716 -426 720 -426Q741 -428 762 -430Q772 -430 777 -428Q785 -425 793 -416Q804 -404 811 -402Q821 -408 833 -410Q826 -398 818 -386Q821 -385 823 -385Q829 -385 840 -391Q849 -396 855 -396Q854 -388 837 -380Q823 -373 819 -367Q820 -363 829 -363Q837 -363 843 -365Q842 -359 830 -355Q822 -352 819 -349Q820 -346 820 -340Q820 -328 811 -313Q803 -300 803 -292V-287Q789 -266 789 -194V-175Q789 -139 793 -95Q794 -91 794 -83Q794 -69 793 -55V-47Q795 -26 796 -5Q796 21 786 41Q776 46 769 51Q763 56 752 56ZM357 -508H355Q337 -507 330 -496Q322 -485 313 -474H308Q300 -474 287 -469Q276 -465 269 -465H267Q257 -465 238 -476Q219 -487 206 -487Q200 -487 196 -486Q197 -490 204 -495Q207 -497 209 -500Q206 -504 202 -508Q180 -498 174 -497Q175 -506 187 -512Q197 -517 199 -521Q196 -528 196 -536V-539Q196 -545 195 -548Q191 -558 173 -567Q159 -574 155 -578Q159 -580 161 -580Q173 -577 181 -572Q188 -575 192 -581Q196 -588 201 -594Q201 -598 198 -600Q195 -602 195 -604V-605Q200 -604 205 -603H208Q220 -611 220 -635Q220 -652 214 -672Q218 -668 225 -654Q234 -636 242 -631Q246 -631 249 -632Q259 -632 275 -622Q288 -614 295 -614H297Q303 -614 318 -624Q336 -636 347 -637Q344 -630 330 -619Q315 -608 312 -602Q314 -596 318 -592Q323 -588 327 -584Q347 -593 367 -597H371Q367 -592 351 -582Q338 -574 338 -564Q338 -562 340 -554Q343 -547 359 -546Q377 -545 383 -537H375Q340 -537 340 -516V-515Q341 -512 348 -512H349Q357 -512 357 -508ZM525 55H520Q475 51 445 13Q437 -1 432 -25Q423 -47 423 -54V-56Q423 -64 431 -83Q441 -107 442 -118Q445 -149 445 -188Q445 -214 444 -226Q442 -239 440 -252Q440 -261 445 -266Q438 -277 430 -289V-301Q427 -306 423 -311V-327Q420 -338 417 -349V-352Q417 -372 427 -392Q437 -403 440 -415Q440 -417 439 -419Q447 -417 450 -417Q460 -417 464 -428Q474 -426 478 -426Q500 -428 522 -431Q527 -430 531 -430Q546 -423 556 -392Q565 -365 574 -358Q572 -355 572 -351Q575 -343 578 -335Q574 -321 569 -308Q566 -302 562 -296V-295Q563 -291 563 -287V-286Q559 -277 554 -269Q545 -230 545 -164Q545 -128 547 -112Q549 -92 551 -73Q554 -16 554 -15Q554 19 544 40Q532 47 525 55ZM328 -72V-67Q332 -29 332 -14Q332 14 321 32Q308 46 289 46Q267 46 244 29Q222 13 214 -7Q208 -27 201 -47Q200 -50 200 -57Q200 -68 207 -87Q214 -106 215 -113Q219 -138 219 -192Q219 -220 218 -230Q216 -244 216 -247Q216 -254 220 -261Q212 -302 198 -310Q194 -345 180 -414Q187 -412 194 -402Q200 -393 206 -390Q220 -396 220 -414Q227 -412 233 -410Q241 -415 245 -424Q253 -421 259 -421Q278 -423 296 -426Q305 -426 312 -422Q319 -416 324 -402Q328 -387 334 -374Q352 -339 354 -332Q353 -325 346 -311Q339 -297 339 -289Q339 -287 341 -281Q322 -258 322 -170Q322 -132 324 -115Q326 -109 328 -103Q329 -100 329 -94Q329 -83 328 -72Z"/>
</svg>