<svg xmlns="http://www.w3.org/2000/svg" viewBox="0 -800 1024 1024">
	<path fill="#000000" d="M754 108V107Q754 106 760 102Q752 88 736 88Q730 88 718 92Q721 83 728 78Q736 74 742 70Q737 44 732 40Q758 25 778 -3Q781 -7 814 -61Q835 -95 850 -133Q875 -195 884 -225Q899 -276 902 -326Q903 -341 903 -370V-389Q903 -486 863 -584Q843 -632 832 -653Q812 -690 789 -712Q786 -715 777 -721Q765 -729 760 -736Q752 -752 751 -773Q749 -781 740 -794Q730 -808 729 -819Q738 -818 747 -808Q754 -801 758 -799Q759 -800 759 -802Q759 -804 755 -808Q750 -813 750 -816Q750 -818 751 -819H752Q758 -819 765 -813Q771 -808 777 -808H780Q781 -809 782 -810Q781 -813 779 -816V-817H780Q785 -817 789 -812Q792 -809 795 -808Q802 -809 809 -811H811Q836 -809 859 -775Q899 -715 921 -662Q979 -516 979 -354Q979 -298 970 -241Q960 -185 939 -139Q918 -92 897 -47Q882 -17 865 10Q852 41 835 79Q819 115 782 120Q772 108 754 108ZM785 -308L782 -314Q783 -323 800 -323Q808 -323 811 -322Q802 -311 785 -308ZM736 -184V-182Q726 -179 714 -179Q694 -179 653 -188Q607 -198 586 -198Q568 -198 555 -194Q539 -145 535 -92Q530 -39 524 19Q510 26 496 26Q474 25 455 11Q437 -2 420 -14Q419 -23 411 -36Q402 -51 402 -60Q402 -62 404 -70Q408 -81 421 -98Q436 -117 440 -125Q446 -137 452 -155Q462 -184 469 -193Q456 -197 436 -197Q428 -196 420 -196Q371 -192 348 -179Q335 -168 322 -162Q318 -153 317 -143Q314 -146 310 -146Q301 -142 292 -139Q272 -159 252 -160Q242 -176 234 -181Q222 -200 222 -240V-253Q224 -254 234 -267Q242 -276 249 -280Q325 -438 339 -469Q331 -496 317 -511Q314 -524 314 -535Q314 -561 331 -584Q339 -593 346 -602Q340 -619 330 -640Q324 -656 322 -669Q322 -672 324 -678Q330 -670 340 -649Q353 -622 364 -612Q358 -632 351 -653Q358 -651 363 -637Q369 -622 378 -621Q379 -623 379 -626Q375 -635 371 -644Q372 -645 372 -646Q374 -646 375 -647Q379 -647 386 -641Q394 -634 401 -634Q404 -634 406 -635Q407 -635 407 -636Q405 -638 402 -641Q402 -643 404 -643H406Q415 -640 423 -637H429Q451 -639 473 -641Q483 -641 490 -638Q496 -636 502 -630Q509 -623 512 -622Q514 -609 526 -590Q540 -569 540 -552V-551Q538 -546 535 -545Q535 -543 537 -542Q526 -531 516 -515Q507 -500 492 -492Q482 -476 471 -460Q451 -451 440 -424Q428 -398 417 -376Q391 -336 373 -304Q399 -306 437 -306Q474 -306 503 -313Q523 -363 539 -433Q553 -514 558 -535Q569 -568 572 -592Q571 -603 562 -619Q551 -639 543 -638Q546 -654 563 -670Q580 -687 597 -703Q605 -713 613 -721Q621 -729 638 -730H644Q663 -727 676 -716Q689 -705 705 -697Q736 -649 742 -618Q738 -613 726 -602Q711 -588 705 -577Q703 -565 697 -555Q690 -545 681 -537Q671 -529 664 -520Q654 -495 643 -470L619 -424Q601 -373 585 -320Q605 -315 625 -315Q670 -315 736 -332Q732 -327 729 -321V-320Q731 -315 733 -310Q736 -308 744 -308Q756 -309 768 -311Q771 -310 773 -310Q771 -306 759 -302Q747 -298 745 -291Q748 -289 754 -289Q767 -290 779 -292H783Q776 -286 766 -282Q755 -278 752 -266Q752 -265 754 -265Q759 -266 764 -267Q766 -267 766 -266Q764 -262 757 -258Q750 -254 748 -248Q746 -242 746 -240Q747 -230 748 -220V-217Q747 -209 742 -200Q736 -189 736 -184ZM284 93H269Q266 101 265 111Q258 115 243 115H228Q219 114 205 105Q194 98 187 96Q184 84 166 76Q164 63 151 46Q141 33 138 24Q17 -137 17 -319Q18 -331 18 -344Q20 -394 22 -411Q26 -445 36 -470Q35 -474 35 -483Q36 -506 45 -532Q54 -558 62 -580Q69 -605 75 -630Q79 -634 83 -638Q84 -649 89 -655H88Q87 -655 87 -657Q87 -658 88 -660Q89 -659 89 -658L90 -659Q90 -661 89 -663Q89 -667 92 -667H95Q97 -684 112 -705Q127 -725 129 -739Q142 -753 151 -771Q160 -790 179 -798H181Q184 -797 187 -796H188Q197 -800 204 -806Q212 -812 224 -813Q223 -809 221 -805V-804H222Q231 -809 248 -814H250Q250 -809 240 -802Q232 -796 230 -793V-785Q230 -775 233 -772Q238 -776 243 -780L244 -779Q235 -765 235 -744Q235 -731 237 -725Q231 -721 227 -704Q224 -692 221 -688Q214 -685 207 -682Q154 -616 141 -559Q137 -561 136 -561Q136 -554 126 -536Q120 -525 117 -515Q110 -493 107 -458Q100 -449 100 -438Q100 -435 102 -429H99Q100 -426 101 -424Q97 -411 92 -398Q88 -381 88 -350Q88 -328 89 -319Q95 -229 130 -155L151 -110Q159 -95 161 -86Q176 -52 204 -20Q237 24 271 44Q269 54 269 56Q269 65 277 78Q282 86 284 93Z"/>
</svg>