<svg xmlns="http://www.w3.org/2000/svg" viewBox="0 -800 1024 1024">
	<path fill="#000000" d="M897 -305V-298Q897 -237 851 -143Q816 -72 765 -29Q690 35 564 62Q521 75 481 79H470Q400 79 330 40Q272 8 224 -40Q174 -91 146 -151Q109 -233 104 -296Q103 -306 103 -325Q103 -398 132 -471Q133 -473 152 -506Q193 -580 219 -608Q234 -624 274 -650Q330 -686 367 -699Q420 -718 489 -718H508Q582 -718 647 -684Q850 -577 887 -391Q897 -341 897 -305ZM774 -143Q807 -183 817 -220Q820 -235 823 -251Q830 -280 830 -312Q830 -378 799 -440Q773 -492 729 -535Q620 -642 501 -642Q487 -642 480 -641Q359 -631 268 -529Q184 -435 184 -325Q184 -299 188 -278Q194 -246 219 -188Q232 -165 252 -137Q265 -116 289 -92Q341 -40 378 -22Q397 -16 416 -11Q434 -5 452 1Q459 2 481 2Q503 2 509 1Q579 -8 659 -53Q736 -96 774 -143ZM578 -293V-290Q578 -281 592 -270Q605 -260 607 -253Q595 -253 587 -258Q578 -263 569 -266Q547 -248 535 -243Q515 -237 499 -232Q483 -228 480 -204Q477 -241 434 -260Q424 -259 417 -252Q410 -245 405 -243Q406 -253 415 -265Q422 -274 424 -279Q412 -291 412 -319Q412 -357 430 -368Q425 -375 422 -383H427Q439 -383 453 -389Q455 -394 455 -402Q451 -423 446 -444Q456 -439 466 -419Q473 -405 478 -400Q484 -400 490 -401H493Q496 -404 497 -417Q498 -430 502 -434Q512 -391 530 -391H532Q536 -391 541 -397Q547 -404 554 -404Q555 -403 555 -402Q555 -401 551 -396Q546 -390 546 -386Q548 -374 561 -362Q573 -351 579 -342H582Q596 -343 609 -345H614Q599 -334 579 -326Q582 -320 582 -315Q580 -304 578 -293ZM578 -432Q574 -418 563 -413Q561 -415 561 -419Q561 -433 573 -433Q576 -433 578 -432Z"/>
</svg>