<svg xmlns="http://www.w3.org/2000/svg" viewBox="0 -800 1024 1024">
	<path fill="#000000" d="M859 -71V-69Q843 -63 834 -49Q824 -36 813 -25Q793 -11 773 2Q756 17 739 31Q727 38 713 42Q700 46 692 59Q676 60 663 68Q650 76 636 81Q622 85 607 86Q591 87 583 97Q579 96 573 96Q563 96 547 101Q534 105 528 105H526Q520 104 513 102H511Q500 105 488 108Q487 108 436 105Q360 102 306 81Q282 69 257 57Q212 36 168 -7Q147 -26 131 -43Q117 -59 92 -110Q41 -210 41 -352V-373Q41 -458 78 -541Q110 -611 162 -669Q277 -795 479 -805Q490 -805 501 -806Q601 -806 679 -769Q718 -749 753 -723Q787 -698 821 -672Q921 -548 948 -405Q955 -368 955 -357Q953 -347 951 -337V-331Q952 -319 952 -307Q950 -268 936 -226Q929 -204 908 -156Q902 -140 893 -126Q881 -115 878 -100V-97Q869 -96 864 -88Q859 -80 859 -71ZM871 -382V-387Q864 -417 853 -447Q842 -489 833 -502V-505Q833 -512 829 -518Q825 -524 825 -527V-529Q771 -600 728 -637Q700 -661 689 -666Q681 -667 673 -669Q653 -678 635 -690Q616 -701 593 -706H583Q580 -706 572 -708Q559 -711 544 -717H507Q485 -719 463 -721Q454 -721 449 -720Q399 -710 353 -690Q290 -663 268 -648Q248 -633 227 -609Q192 -575 168 -529Q151 -499 147 -489Q137 -466 137 -444Q120 -394 120 -336Q120 -232 166 -145Q195 -93 218 -76Q227 -71 236 -67Q243 -59 249 -52Q267 -38 283 -29Q296 -21 353 2Q404 23 461 23Q480 23 491 22Q508 14 527 12Q545 10 563 8Q574 6 622 -13Q708 -47 772 -107Q859 -188 868 -296Q866 -314 877 -330Q870 -341 870 -357Q871 -369 871 -382ZM670 -256Q664 -242 655 -232Q652 -236 652 -243Q652 -257 664 -257Q668 -257 670 -256ZM683 -135V-133Q685 -124 687 -115Q671 -76 660 -56Q658 -57 655 -57Q651 -57 645 -52Q640 -48 637 -47Q581 -69 469 -69Q418 -69 375 -64Q373 -64 357 -53Q355 -50 353 -40H321Q295 -56 288 -95Q286 -105 286 -114V-118Q287 -123 292 -130Q298 -138 298 -143V-147Q344 -176 377 -218Q410 -259 449 -305Q467 -324 487 -344Q507 -364 523 -385Q548 -419 556 -433Q572 -461 575 -487V-494Q575 -518 557 -533Q540 -547 515 -547Q501 -547 489 -543Q468 -536 449 -513Q430 -490 430 -469V-461Q430 -443 433 -433Q437 -424 449 -413Q460 -402 461 -383Q461 -376 460 -373Q456 -345 423 -345Q411 -345 397 -351H391Q390 -351 389 -348Q386 -349 382 -354Q377 -360 371 -360Q368 -358 368 -356Q369 -351 370 -346Q370 -344 369 -343Q365 -346 362 -359Q359 -373 353 -376Q351 -374 351 -373Q352 -368 353 -364V-361Q344 -371 341 -382Q331 -393 322 -405Q312 -428 312 -462Q313 -471 313 -481Q320 -570 378 -627Q439 -679 520 -679Q528 -678 536 -678Q571 -675 604 -656Q634 -639 655 -613Q687 -575 687 -518V-507Q686 -446 663 -404Q639 -362 604 -331Q549 -285 498 -238Q472 -210 454 -176Q492 -181 543 -181Q593 -182 625 -193Q634 -196 640 -207Q650 -224 651 -225Q653 -221 653 -218Q653 -209 652 -201Q652 -193 654 -190Q658 -189 666 -189Q679 -189 692 -190Q700 -190 704 -189Q701 -184 687 -181Q677 -179 673 -176Q673 -174 676 -174Q683 -175 689 -176H690V-175Q690 -170 685 -168Q679 -165 679 -160V-157Q680 -153 682 -153Q686 -154 689 -156Q692 -156 693 -153Q693 -151 689 -147Q684 -141 683 -135Z"/>
</svg>