<svg xmlns="http://www.w3.org/2000/svg" viewBox="0 -800 1024 1024">
	<path fill="#000000" d="M755 108H752V107Q752 106 758 102Q752 89 733 89Q726 89 718 92Q722 84 730 76Q737 67 738 58Q738 51 730 44Q795 -7 845 -124Q872 -187 880 -211Q897 -260 900 -305Q903 -339 903 -374Q903 -515 851 -601Q836 -668 783 -715Q774 -722 766 -729Q757 -736 753 -744Q749 -759 746 -781Q745 -785 737 -796Q728 -809 728 -819Q736 -817 745 -808Q752 -801 756 -799Q757 -800 757 -802Q757 -804 751 -809Q746 -813 746 -815Q747 -816 747 -817Q749 -818 752 -818Q757 -818 762 -814Q770 -808 775 -808H778Q780 -808 780 -810Q778 -813 776 -816Q776 -817 777 -817Q779 -817 780 -818Q783 -818 787 -813Q791 -809 795 -808Q802 -809 809 -811H811Q834 -804 851 -788Q859 -772 874 -750Q895 -720 901 -707Q906 -696 909 -685Q913 -673 921 -664Q950 -564 955 -544Q972 -475 975 -413Q976 -399 976 -370Q976 -341 975 -325Q969 -208 925 -107L909 -71Q882 -16 851 39Q842 58 833 78Q824 99 809 114Q805 114 780 120Q768 108 755 108ZM786 -77V-71Q782 -61 775 -52Q773 -41 771 -30Q770 -19 763 -13Q749 -10 743 2Q709 -23 647 -26Q634 -24 620 -22Q601 -22 582 -23Q537 -23 519 -7Q511 -6 502 -5H499Q475 -21 475 -90V-136Q525 -173 553 -236Q588 -302 634 -368Q681 -436 692 -523Q693 -531 693 -539Q693 -575 683 -597Q671 -623 648 -623Q636 -623 620 -615Q588 -598 577 -544Q574 -526 574 -511Q574 -503 576 -481V-466Q576 -461 577 -458Q584 -447 591 -437Q594 -426 594 -410Q594 -361 574 -358H573Q564 -363 549 -368H546Q544 -365 541 -363Q531 -367 524 -376Q521 -374 521 -372Q522 -367 523 -362Q523 -360 521 -358Q514 -362 514 -373Q514 -384 512 -392Q510 -391 510 -386V-376Q508 -384 496 -403Q484 -422 482 -434V-445Q482 -453 481 -457Q475 -479 475 -498V-505Q475 -602 521 -668Q573 -739 646 -739Q657 -739 662 -738Q687 -735 711 -721Q730 -710 744 -694Q786 -646 786 -564V-547Q786 -467 753 -394Q738 -365 716 -337Q638 -223 606 -158Q635 -162 672 -163Q708 -165 734 -175Q741 -181 749 -196Q756 -210 761 -215V-173Q766 -170 772 -170Q784 -171 796 -172Q805 -172 809 -167Q799 -165 789 -164Q779 -162 775 -154Q775 -153 776 -153Q780 -154 784 -155H786Q780 -146 780 -138Q780 -127 793 -127H795Q784 -122 784 -107Q785 -92 786 -77ZM759 -221V-237Q759 -252 767 -252Q770 -252 772 -251Q772 -222 759 -221ZM412 -2H410Q399 -5 388 -8Q372 -10 360 -10Q315 -10 287 1Q280 4 272 11Q263 19 256 22Q236 10 232 2Q230 -6 228 -14Q226 -18 220 -21Q213 -25 210 -29Q203 -37 203 -59Q203 -73 204 -79Q210 -110 219 -140Q227 -142 239 -152Q253 -163 264 -165Q264 -162 260 -158Q256 -154 256 -149V-146Q259 -145 268 -145Q284 -145 291 -149Q298 -213 305 -334Q312 -455 317 -505Q305 -501 286 -486Q271 -474 263 -470V-474Q263 -491 247 -491Q237 -491 232 -484V-488Q232 -495 235 -500Q231 -495 219 -473Q229 -534 254 -587Q278 -640 300 -693Q310 -703 323 -718Q336 -733 353 -735H356Q363 -735 371 -727Q378 -720 383 -718Q394 -729 410 -735Q407 -724 404 -714V-712Q411 -714 418 -723Q426 -734 433 -735Q426 -719 423 -697Q424 -697 427 -700Q432 -706 437 -706H439Q430 -698 430 -683Q430 -664 444 -661Q445 -651 450 -637Q457 -615 457 -602Q457 -594 456 -590Q413 -542 392 -456Q375 -387 370 -280Q367 -217 364 -154Q367 -152 373 -152Q393 -157 415 -162H416Q418 -162 418 -161Q418 -158 417 -156V-154H419Q431 -156 442 -158H444Q433 -146 430 -128Q430 -121 432 -116Q434 -115 435 -115Q442 -117 449 -120Q450 -120 454 -118Q445 -111 442 -108Q436 -101 436 -92Q437 -88 440 -88Q443 -88 445 -89Q440 -67 437 -38Q434 -8 412 -2ZM282 93H274Q271 93 267 95Q264 102 263 112Q244 115 225 117Q191 101 165 76Q160 55 128 17Q15 -147 15 -337Q15 -361 16 -374Q18 -423 26 -454Q31 -472 31 -484Q37 -519 50 -552Q66 -600 81 -649Q88 -652 88 -660Q88 -662 87 -664Q90 -665 92 -667H93Q95 -683 109 -704Q123 -724 125 -738Q129 -739 134 -746Q139 -752 143 -754Q146 -778 176 -798Q179 -797 183 -797Q191 -797 200 -804Q212 -813 221 -813H222Q220 -807 217 -801Q225 -804 232 -809Q239 -814 250 -814Q245 -807 237 -800Q228 -794 227 -784Q227 -778 231 -773Q235 -773 237 -776Q239 -779 242 -781Q237 -771 234 -740Q232 -714 228 -703Q221 -699 219 -690V-687H217Q213 -685 209 -684H207Q152 -617 140 -559Q138 -560 136 -560V-559Q137 -557 137 -555Q123 -541 117 -517Q111 -494 105 -472V-469Q102 -453 98 -438Q98 -432 100 -429Q99 -430 98 -430Q97 -430 97 -429Q98 -426 99 -424Q87 -364 87 -338Q87 -324 88 -316Q95 -239 127 -167Q131 -151 161 -92V-85Q186 -39 207 -12Q235 24 270 44Q268 52 268 55Q272 77 282 93Z"/>
</svg>