<svg xmlns="http://www.w3.org/2000/svg" viewBox="0 -800 1024 1024">
	<path fill="#000000" d="M357 -625H354Q359 -640 369 -641Q371 -641 375 -639Q374 -625 357 -625ZM790 -210Q788 -197 785 -185Q779 -186 779 -200Q779 -213 785 -213Q787 -213 790 -210ZM483 56H477Q452 56 437 36Q422 15 422 -18V-19Q422 -22 419 -22Q417 -22 415 -24Q415 -46 422 -79Q426 -88 430 -97Q431 -101 431 -110Q430 -136 428 -162Q428 -181 431 -190Q441 -148 452 -110Q458 -111 467 -118Q475 -124 482 -126Q487 -129 493 -141Q512 -149 525 -164Q537 -178 551 -193Q541 -207 531 -220Q521 -233 505 -240Q502 -242 495 -242Q488 -242 485 -243Q471 -248 448 -269Q431 -284 421 -289V-292Q421 -300 426 -313Q430 -324 430 -328V-329Q429 -334 426 -338Q421 -344 421 -349H422Q428 -347 433 -346H436Q434 -354 422 -364Q413 -371 410 -379H413Q420 -379 428 -371Q435 -364 442 -364H445V-366Q445 -369 439 -375Q432 -381 431 -386Q437 -384 443 -383Q460 -404 469 -411Q486 -424 510 -424H514Q530 -424 538 -418Q546 -411 559 -400Q571 -389 580 -377Q589 -366 603 -358Q626 -326 649 -294Q658 -298 670 -314Q681 -329 692 -334Q713 -368 714 -369Q731 -384 738 -401Q738 -409 719 -409Q748 -435 779 -458Q784 -456 793 -456Q807 -457 820 -459Q824 -458 827 -458Q835 -456 843 -445Q850 -435 852 -424V-422Q851 -412 849 -403Q855 -377 861 -351Q861 -344 856 -332Q852 -322 852 -317V-316Q850 -313 844 -310Q837 -306 836 -301Q781 -298 744 -268Q725 -248 705 -229Q720 -204 736 -180Q752 -155 775 -138Q776 -141 778 -154Q780 -170 785 -175Q785 -145 790 -135Q793 -178 799 -219Q805 -185 807 -147Q809 -109 824 -84Q827 -72 827 -60Q827 -40 815 -25Q816 -22 816 -16Q816 -8 812 6Q785 28 752 28Q747 28 741 27Q729 25 711 9Q697 -4 689 -6Q664 -57 612 -118Q576 -92 548 -50Q529 -21 502 36Q490 40 483 56ZM273 -452H270Q259 -452 240 -463Q221 -474 207 -474Q202 -474 199 -473Q199 -479 204 -481Q208 -484 211 -487V-488Q209 -491 206 -494V-495Q191 -489 175 -484Q177 -492 189 -498Q199 -503 201 -508Q201 -531 186 -545Q182 -549 156 -565Q160 -567 163 -567Q175 -564 183 -559Q191 -562 194 -568Q198 -574 202 -580V-581Q200 -585 197 -590Q197 -591 198 -592Q201 -591 204 -591Q221 -591 221 -621Q221 -639 217 -659Q221 -654 227 -641Q236 -623 243 -617Q246 -618 251 -618Q263 -618 278 -609Q291 -601 298 -601H300Q308 -602 319 -610Q336 -622 348 -622H350Q346 -618 330 -606Q318 -597 313 -589Q319 -578 328 -571Q350 -580 374 -586Q370 -578 355 -570Q342 -563 338 -556Q340 -549 341 -543V-541Q343 -535 361 -533Q380 -531 384 -524Q370 -524 357 -521Q343 -519 341 -504Q342 -499 350 -499Q359 -498 359 -495Q349 -495 337 -489Q331 -485 315 -460Q312 -460 308 -461Q288 -457 273 -452ZM331 -69V-47Q333 -24 334 -1Q334 34 322 47Q308 58 286 62Q255 52 230 29Q213 9 211 -18Q205 -30 201 -46Q207 -72 217 -99Q219 -111 219 -136Q218 -175 217 -214Q217 -230 218 -237Q220 -244 223 -245Q219 -263 214 -282Q207 -290 199 -298Q194 -324 192 -351Q189 -374 181 -400H183Q189 -400 197 -388Q203 -379 208 -376Q221 -387 221 -398V-400H224Q231 -400 234 -397Q242 -402 246 -411Q254 -408 261 -408Q280 -410 298 -413Q306 -413 313 -409Q321 -404 330 -378Q339 -351 348 -345V-340Q350 -327 356 -317Q354 -309 349 -298Q341 -282 341 -274Q342 -271 342 -268Q325 -248 325 -182V-164Q325 -130 329 -90Q331 -84 331 -69Z"/>
</svg>