<svg xmlns="http://www.w3.org/2000/svg" viewBox="0 -800 1024 1024">
	<path fill="#000000" d="M676 -334Q673 -206 671 -186V-164Q671 -49 700 -10Q703 7 703 20Q703 53 686 80Q678 93 651 121Q648 122 644 122Q631 122 620 109Q602 88 600 86Q592 82 584 78Q576 69 568 59Q555 51 529 45Q508 40 494 33Q532 39 569 44Q558 31 529 26Q500 20 476 14Q458 5 434 -1Q462 -1 545 18Q534 7 515 4Q496 1 477 -3Q450 -10 408 -30Q400 -32 391 -33Q383 -35 380 -43Q439 -25 509 -10Q552 0 559 0Q563 0 565 -1Q575 -7 577 -20Q579 -32 580 -45Q586 -87 586 -126Q586 -147 583 -162Q570 -160 516 -137Q461 -114 455 -107Q439 -107 418 -93Q402 -88 399 -80H397Q382 -80 372 -63Q359 -41 354 -38Q343 -30 332 -30Q315 -30 298 -56Q275 -92 271 -95Q276 -107 276 -115Q276 -126 268 -147Q262 -163 261 -172Q280 -199 288 -209Q294 -207 298 -207Q309 -208 320 -214Q330 -221 340 -225Q356 -299 359 -356Q360 -367 360 -379Q360 -434 335 -450Q328 -450 325 -439Q323 -430 319 -429Q320 -440 320 -452Q320 -462 317 -467Q316 -468 315 -468Q314 -467 313 -463Q312 -459 310 -459Q307 -462 307 -465Q309 -472 311 -480Q309 -488 306 -497V-498Q308 -509 319 -519Q329 -530 337 -539Q354 -563 362 -583H365Q372 -581 376 -573Q417 -552 430 -542Q439 -535 447 -519Q459 -496 470 -491V-483Q470 -465 476 -453Q464 -444 464 -426V-415Q461 -392 458 -369Q457 -352 456 -335Q454 -321 444 -298Q432 -270 432 -255H434Q445 -257 455 -263Q523 -283 589 -312Q589 -355 597 -592Q598 -607 598 -622Q598 -679 575 -703V-711Q573 -735 560 -749Q546 -763 539 -778Q553 -769 566 -761Q567 -762 567 -765Q566 -769 564 -773Q564 -776 565 -777Q568 -777 583 -772Q607 -782 643 -784Q650 -784 660 -774Q672 -762 680 -762Q684 -762 686 -763Q720 -720 739 -670Q737 -649 726 -623Q711 -616 706 -598Q702 -581 698 -559Q691 -522 691 -512Q691 -504 692 -501Q686 -496 686 -480V-454Q684 -449 682 -444V-441Q683 -435 683 -429V-427Q680 -417 677 -408Q675 -392 675 -384Q676 -364 676 -344ZM486 33Q480 35 472 35Q468 35 458 33Q458 22 466 22Q478 22 486 33Z"/>
</svg>