<svg xmlns="http://www.w3.org/2000/svg" viewBox="0 -800 1024 1024">
	<path fill="#000000" d="M805 -565H806Q808 -565 811 -569Q814 -574 816 -574Q818 -574 820 -572Q816 -567 816 -559Q820 -532 842 -517Q843 -494 844 -472Q844 -448 835 -433Q806 -432 785 -416Q770 -405 750 -376Q733 -352 690 -285Q634 -198 599 -154Q548 -91 475 -31Q432 4 402 20Q384 34 365 47Q336 68 322 68Q315 68 306 65Q299 52 280 33Q262 14 255 3Q258 -3 261 -10Q249 -30 242 -39Q233 -49 209 -61Q185 -73 177 -81Q183 -83 184 -83Q190 -83 203 -76Q220 -67 231 -67H233Q226 -76 201 -88Q168 -104 162 -117Q177 -113 196 -102Q221 -88 234 -85Q221 -98 182 -117Q142 -136 128 -150Q156 -145 196 -129Q211 -122 229 -113Q247 -104 264 -103Q291 -108 320 -123Q416 -163 466 -202Q453 -212 439 -223Q421 -218 399 -201V-202Q399 -208 409 -218Q418 -227 420 -232Q414 -245 402 -246Q397 -243 391 -241Q390 -242 389 -243Q387 -243 387 -244Q390 -249 393 -254V-255Q389 -265 377 -279Q361 -297 359 -310Q358 -314 358 -322Q358 -365 411 -365Q418 -364 424 -364Q443 -359 462 -355Q468 -355 475 -360Q481 -351 493 -346Q505 -341 517 -337Q523 -338 528 -342Q536 -348 541 -348Q538 -339 535 -330Q538 -324 552 -315Q563 -308 567 -302Q592 -327 616 -368Q631 -394 655 -445H648Q521 -445 415 -396Q407 -397 381 -409Q372 -404 367 -390Q362 -375 358 -359Q353 -337 337 -333H336Q332 -333 317 -341Q297 -351 287 -352Q283 -352 279 -353Q268 -353 251 -343Q249 -345 249 -347Q249 -350 251 -354Q244 -364 231 -364H227Q220 -364 211 -355Q203 -347 198 -346Q206 -363 213 -381Q210 -383 208 -387Q190 -385 181 -374Q172 -363 159 -354Q161 -368 177 -389Q190 -405 193 -415Q149 -386 122 -351Q119 -347 118 -342Q116 -336 110 -336H109Q113 -351 125 -370Q151 -403 180 -437Q192 -453 204 -469Q215 -485 233 -496Q243 -522 276 -565Q303 -601 314 -624Q319 -626 323 -628Q328 -650 334 -669Q325 -676 308 -678Q318 -687 329 -693Q340 -700 341 -717V-719Q354 -723 376 -742Q404 -766 425 -766H432Q446 -774 464 -774Q488 -774 498 -759Q508 -758 517 -757H520Q529 -736 540 -715Q551 -693 552 -671Q552 -654 544 -641Q488 -608 467 -568Q474 -564 481 -564Q494 -566 507 -568Q557 -573 594 -581Q637 -586 673 -595Q682 -599 691 -604Q701 -609 711 -610H713Q721 -609 728 -608Q730 -608 732 -609Q745 -611 760 -634Q775 -657 788 -658Q781 -646 772 -632Q762 -618 761 -603Q761 -598 762 -595Q768 -596 775 -608Q782 -621 788 -622V-620Q784 -605 780 -590Q780 -581 791 -577Q798 -578 807 -587Q817 -597 826 -598Q824 -590 816 -582Q806 -573 805 -565ZM93 -160V-166Q95 -167 100 -167Q115 -166 118 -151Q98 -155 93 -160Z"/>
</svg>