<svg xmlns="http://www.w3.org/2000/svg" viewBox="0 -800 1024 1024">
	<path fill="#000000" d="M563 66H561Q556 66 552 71Q550 74 548 74Q547 74 545 72Q542 73 540 78Q538 83 536 83Q495 78 450 75H439Q436 75 348 80Q332 80 319 81Q307 82 299 91Q285 88 271 85H269Q265 81 261 67Q255 48 246 45Q253 38 253 25Q253 3 238 -7Q247 -12 247 -23V-28Q244 -32 240 -32Q232 -30 224 -29Q231 -40 249 -47Q248 -50 248 -55Q248 -75 269 -78Q273 -79 283 -79Q333 -75 383 -71Q402 -71 413 -75Q417 -307 420 -540Q420 -644 416 -723Q422 -736 433 -747Q436 -746 440 -746Q448 -746 454 -754Q472 -744 477 -738Q483 -740 487 -740Q496 -739 505 -738Q509 -738 511 -739Q516 -741 522 -750Q528 -759 534 -759H536Q541 -775 548 -790Q551 -788 551 -783Q551 -777 550 -771Q551 -768 551 -766Q555 -767 556 -775Q557 -783 560 -784Q577 -742 589 -730Q583 -714 583 -698Q583 -688 586 -681Q580 -646 580 -609Q578 -586 578 -536V-511Q578 -476 577 -459Q574 -378 573 -242Q572 -73 569 -12Q568 1 567 14Q567 26 572 32Q564 64 563 66ZM312 5V9Q446 9 504 17Q511 -282 511 -400Q513 -469 515 -538Q513 -597 511 -657V-667Q511 -676 510 -679Q508 -684 502 -684H498Q497 -681 495 -679Q488 -556 485 -292Q483 -117 480 -24Q396 -27 395 -27Q347 -27 312 -18Q311 -16 311 -11Q312 -3 312 5Z"/>
</svg>