<svg xmlns="http://www.w3.org/2000/svg" viewBox="0 -800 1024 1024">
	<path fill="#000000" d="M757 108H754Q756 104 760 102Q752 88 736 88Q731 88 719 92Q721 85 729 79Q732 77 742 70Q740 45 732 40Q767 22 803 -41Q809 -51 814 -61Q806 -59 801 -59H800Q769 -62 754 -87Q741 -108 720 -119Q689 -181 656 -239Q620 -295 580 -349L463 -510Q455 -522 446 -539Q431 -565 430 -570V-580Q431 -593 431 -607Q431 -611 430 -614Q425 -623 422 -633Q422 -634 423 -634Q427 -632 430 -630L431 -631Q432 -633 432 -635Q430 -650 423 -659Q432 -655 442 -655Q478 -660 510 -671Q521 -659 540 -659Q541 -642 554 -635Q555 -593 592 -527Q641 -435 697 -366Q720 -338 727 -332Q757 -306 767 -306H768Q782 -307 786 -338Q790 -375 794 -380Q795 -375 795 -363Q794 -336 793 -309Q793 -298 794 -292Q800 -318 806 -364Q813 -425 820 -447Q822 -443 822 -435Q822 -427 820 -411L818 -370Q816 -333 814 -297Q814 -280 815 -272Q822 -290 827 -361V-375Q827 -391 835 -392Q834 -352 832 -313Q832 -262 852 -246Q852 -242 851 -239Q851 -227 862 -206Q871 -189 872 -181L879 -203Q902 -275 902 -355V-375Q902 -480 864 -584Q859 -593 854 -602Q830 -664 816 -682Q814 -685 789 -710Q774 -721 760 -736Q753 -752 751 -773Q749 -781 740 -794Q730 -808 729 -819Q737 -818 747 -808Q754 -801 759 -799Q759 -800 760 -801Q760 -803 755 -808Q750 -812 750 -816Q750 -818 751 -819H753Q759 -819 766 -813Q772 -808 778 -808H781Q782 -809 783 -810Q781 -812 778 -815Q779 -816 780 -817H781Q785 -817 789 -812Q792 -809 796 -808Q803 -809 810 -811H812Q830 -809 847 -792Q855 -784 873 -759Q902 -713 922 -662Q976 -536 979 -358Q979 -276 963 -205Q955 -173 950 -158Q941 -138 929 -119Q895 -36 873 1Q858 30 845 60Q832 91 811 114Q785 119 783 120Q771 108 757 108ZM316 -78H315Q310 -78 301 -83Q290 -89 286 -89Q283 -89 280 -85Q277 -82 273 -82Q276 -89 278 -92Q268 -105 259 -119Q250 -133 230 -135V-140Q230 -149 222 -149Q212 -149 204 -143V-144Q204 -151 212 -161Q218 -169 219 -171Q212 -187 190 -187Q162 -184 134 -181H128Q134 -189 145 -191Q156 -193 166 -195Q193 -206 200 -215H191Q183 -215 150 -204L126 -199L116 -195Q124 -175 129 -167V-155Q144 -135 162 -86Q211 6 272 44Q270 54 270 56Q274 77 285 92Q284 93 278 93H270Q267 95 267 101V104Q267 110 266 111Q253 116 243 116Q213 113 188 96Q185 84 167 76Q165 64 151 46Q141 34 138 24Q83 -46 52 -131Q16 -228 16 -330Q16 -388 29 -446Q31 -458 33 -487Q37 -505 45 -524Q48 -539 51 -555Q57 -568 63 -581Q69 -618 84 -638Q83 -640 83 -643Q83 -646 87 -650Q90 -653 90 -654V-655H89Q88 -655 88 -657Q88 -658 89 -660Q90 -659 90 -658V-662Q90 -667 93 -667H96Q97 -683 112 -704Q126 -724 128 -738Q142 -751 152 -773Q161 -794 185 -796H189Q202 -807 223 -813Q223 -811 220 -802Q228 -805 234 -809Q240 -814 251 -814Q250 -810 242 -803Q229 -792 229 -783Q229 -779 232 -773Q233 -772 234 -772Q239 -776 244 -780Q245 -780 245 -779Q235 -764 235 -744Q235 -734 238 -725Q231 -722 229 -703Q220 -694 220 -687Q214 -684 208 -682Q153 -611 141 -559Q139 -561 137 -561V-558Q135 -549 128 -539Q115 -504 107 -461Q102 -451 100 -439Q100 -433 103 -429Q102 -430 101 -430Q100 -430 100 -429Q101 -427 101 -425V-424Q96 -404 91 -385Q90 -375 90 -354Q90 -270 114 -201Q230 -264 290 -355Q308 -379 309 -386Q308 -394 302 -398Q296 -401 292 -407Q305 -413 321 -433Q332 -447 338 -452Q356 -460 378 -469Q379 -467 383 -467Q389 -467 394 -468Q405 -463 416 -458Q418 -451 424 -442Q432 -431 433 -425Q433 -422 432 -419Q432 -413 442 -383Q435 -344 419 -306Q402 -269 386 -230Q378 -204 373 -191Q364 -173 355 -156Q347 -136 340 -111Q334 -87 316 -78ZM826 -491H827Q828 -488 828 -484Q825 -471 821 -459Q815 -465 815 -475Q815 -491 826 -491ZM838 -427H839Q841 -425 841 -419Q840 -410 838 -402Q830 -402 830 -415Q830 -427 838 -427Z"/>
</svg>