<svg xmlns="http://www.w3.org/2000/svg" viewBox="0 -800 1024 1024">
	<path fill="#000000" d="M921 -119V-111Q931 -95 943 -82Q944 -53 955 -24Q917 28 857 28Q847 28 841 27Q837 30 828 31Q819 32 813 36Q786 31 741 31Q694 32 646 33Q566 33 516 -22Q485 -57 484 -94V-107Q484 -122 492 -194Q501 -264 518 -327Q535 -390 552 -452Q548 -456 548 -460Q550 -470 552 -481Q550 -496 540 -507Q530 -518 522 -530Q515 -544 515 -560Q515 -595 543 -616V-619Q543 -631 555 -639Q556 -670 609 -670Q657 -669 674 -650Q702 -664 732 -675Q706 -662 689 -631Q693 -624 702 -619Q707 -621 716 -628Q727 -637 733 -637Q735 -636 736 -636Q717 -627 716 -610Q716 -597 729 -597Q734 -597 743 -600Q724 -587 715 -561Q705 -535 693 -510Q684 -494 676 -481Q668 -468 668 -456V-452Q648 -396 626 -331Q605 -266 599 -195V-162Q610 -105 711 -105Q773 -105 817 -122Q823 -140 834 -156Q835 -153 835 -144V-139Q835 -129 838 -125Q851 -144 854 -171Q857 -198 861 -226Q861 -237 867 -239Q868 -230 868 -209V-177Q868 -139 875 -120Q883 -143 884 -198Q885 -248 890 -266Q893 -230 894 -191Q894 -152 901 -119Q904 -123 904 -134Q904 -147 903 -160Q903 -170 908 -174Q910 -154 914 -135Q917 -130 920 -126Q921 -124 921 -119ZM130 -22L116 -25Q107 -36 105 -51Q103 -66 99 -81Q89 -100 79 -120Q90 -113 101 -107Q100 -133 76 -167Q50 -203 46 -226Q62 -209 84 -174Q110 -132 126 -117Q121 -132 109 -153Q96 -175 94 -183Q102 -180 105 -172Q108 -164 113 -157Q133 -138 156 -123Q183 -150 216 -181Q248 -211 275 -248Q295 -279 316 -329Q340 -386 344 -423V-431Q344 -456 331 -469Q324 -476 298 -490Q300 -498 300 -501Q296 -522 289 -534Q288 -556 277 -565Q278 -566 280 -566Q285 -564 289 -563Q291 -563 292 -564Q293 -567 293 -571Q292 -581 284 -587Q275 -593 268 -599H271Q284 -596 297 -594Q303 -594 307 -599Q306 -601 302 -603Q297 -606 296 -609Q302 -613 308 -613Q314 -613 316 -611Q366 -645 379 -656Q424 -653 442 -623Q461 -594 480 -565Q483 -548 483 -531Q482 -486 469 -446Q455 -407 448 -371Q448 -370 447 -368Q449 -363 451 -358Q436 -318 426 -273Q417 -228 385 -204Q365 -162 338 -124Q312 -87 287 -48Q255 -25 234 21Q215 19 195 17Q181 17 172 21Q160 12 148 3Q137 -7 130 -22ZM68 -122Q57 -133 51 -147Q54 -147 56 -148Q74 -145 76 -131Q76 -125 68 -122ZM902 -309Q900 -301 899 -292Q897 -283 890 -280Q886 -290 886 -299Q886 -310 896 -310Q900 -310 902 -309ZM760 -691Q758 -687 739 -678Q741 -693 754 -693Q756 -693 760 -691Z"/>
</svg>