<svg xmlns="http://www.w3.org/2000/svg" viewBox="0 -800 1024 1024">
	<path fill="#000000" d="M743 -212V-209Q686 -124 674 -110Q634 -59 601 -30Q563 5 509 36L464 63Q431 82 417 82H415Q408 78 402 66Q393 59 383 51Q382 50 372 36Q368 30 361 30H356Q358 24 358 20Q358 2 328 -6Q318 -8 307 -9Q297 -9 291 -15Q295 -21 311 -21Q324 -20 336 -20H341Q329 -30 282 -39Q278 -39 273 -40Q267 -41 266 -47V-48Q272 -51 281 -51Q305 -48 328 -45Q336 -45 343 -48Q329 -56 288 -59Q244 -62 230 -71Q245 -73 273 -73Q303 -72 332 -72Q343 -72 367 -74Q412 -79 473 -123Q542 -170 561 -191Q602 -238 633 -290Q633 -295 636 -296Q639 -298 642 -300Q643 -311 651 -336Q662 -372 662 -398Q668 -402 668 -413Q668 -419 667 -422Q608 -417 475 -384Q431 -375 385 -365Q339 -356 308 -326Q296 -324 293 -320Q291 -316 291 -306Q291 -298 293 -282Q294 -275 294 -262Q294 -231 285 -195Q264 -189 260 -170Q250 -175 236 -175Q218 -175 218 -160V-156Q212 -160 207 -173Q203 -184 198 -188Q193 -185 193 -177Q190 -189 173 -200Q156 -211 153 -222Q146 -223 138 -225Q147 -240 147 -263Q143 -303 138 -338Q89 -385 89 -439Q89 -452 90 -459Q91 -465 96 -479Q102 -496 103 -507Q118 -522 120 -539V-542Q119 -563 117 -584Q117 -597 120 -603Q123 -599 126 -583Q129 -566 135 -560Q141 -561 144 -565Q147 -569 150 -573Q140 -605 140 -626V-636Q147 -622 152 -604Q156 -586 168 -577Q174 -580 180 -584Q173 -597 169 -611Q169 -614 171 -618L187 -594Q196 -590 214 -590Q227 -590 239 -591Q246 -590 252 -590Q268 -588 276 -580Q282 -575 291 -558Q297 -540 303 -522Q305 -514 305 -505Q305 -497 310 -491Q330 -497 366 -503Q412 -510 433 -519Q432 -524 432 -533Q433 -543 433 -554Q433 -572 427 -585Q425 -590 411 -611Q403 -625 395 -637Q388 -649 367 -650Q371 -655 378 -659Q385 -663 389 -674Q389 -678 388 -682Q388 -685 389 -686Q396 -698 412 -714Q424 -727 435 -741Q459 -763 498 -777Q523 -782 532 -782Q539 -782 541 -781Q549 -779 560 -767Q570 -755 577 -752Q583 -745 591 -725Q601 -700 612 -692Q609 -687 609 -683Q612 -671 614 -660V-656Q612 -649 600 -639Q589 -630 587 -627Q577 -612 576 -592Q575 -573 571 -548Q624 -553 668 -564Q677 -566 689 -574Q704 -583 709 -584Q719 -582 728 -580H731Q741 -582 751 -593Q758 -600 768 -616Q790 -649 808 -654Q798 -634 784 -618Q769 -603 768 -579V-574Q769 -573 771 -573Q777 -575 782 -578Q784 -578 785 -577H786Q789 -577 789 -575Q788 -571 787 -568Q795 -571 807 -583Q820 -596 830 -599Q817 -576 803 -554L804 -553Q810 -556 815 -559Q817 -558 818 -558Q816 -552 816 -547Q816 -529 829 -524H830Q836 -528 839 -532L840 -531Q839 -523 839 -510Q839 -477 864 -471Q856 -459 856 -447Q856 -440 859 -436Q842 -413 824 -394Q805 -375 791 -348Q768 -299 759 -260Q758 -252 757 -245Q754 -238 749 -230Q744 -222 743 -212ZM221 -71Q220 -67 212 -67Q204 -67 198 -69Q197 -71 197 -73Q197 -78 204 -78Q219 -78 221 -71Z"/>
</svg>