<svg xmlns="http://www.w3.org/2000/svg" viewBox="0 -800 1024 1024">
	<path fill="#000000" d="M716 -764H726Q733 -749 734 -744Q717 -747 716 -764ZM874 -747H878Q872 -739 866 -731Q860 -723 860 -709Q861 -708 862 -708Q864 -710 871 -713Q874 -713 875 -712Q872 -706 872 -698Q872 -683 893 -654Q896 -656 899 -656Q902 -656 904 -654Q896 -651 895 -644Q893 -637 892 -629Q884 -611 881 -593Q881 -586 885 -579Q878 -579 873 -584Q869 -588 866 -588Q856 -587 854 -576Q853 -565 851 -552Q834 -586 811 -586Q805 -593 798 -600Q791 -608 783 -609Q777 -619 775 -621Q770 -626 763 -627Q761 -637 753 -641Q746 -645 740 -651Q741 -654 741 -660Q738 -678 732 -695Q733 -698 737 -701Q740 -703 741 -705V-707Q739 -719 736 -731Q736 -736 737 -738Q748 -727 754 -727Q758 -727 758 -731Q758 -732 756 -740Q762 -738 772 -738Q787 -739 802 -740Q813 -740 818 -737Q821 -740 824 -744Q826 -749 832 -749H836Q835 -745 835 -738Q835 -728 840 -726Q848 -727 857 -737Q866 -747 874 -747ZM735 -462H738Q734 -457 734 -447Q734 -440 747 -404Q738 -396 728 -379Q713 -354 701 -348Q669 -350 652 -350Q633 -350 618 -347Q624 -329 646 -329Q644 -321 644 -318Q644 -309 649 -297Q661 -295 664 -271Q667 -251 673 -247Q668 -238 662 -229Q656 -220 655 -206Q646 -198 619 -189Q596 -181 586 -174Q563 -190 521 -212Q516 -236 485 -236Q472 -235 458 -235Q445 -235 439 -237Q449 -245 465 -247Q481 -249 495 -253Q477 -255 466 -255Q451 -255 429 -253Q418 -251 406 -249Q399 -249 396 -253Q408 -260 441 -265Q489 -272 498 -291Q490 -308 482 -326Q434 -313 413 -305Q377 -291 355 -273Q351 -273 347 -274Q328 -274 310 -250Q291 -224 274 -222H267Q238 -222 229 -230Q223 -238 217 -246Q205 -254 193 -263Q184 -273 184 -290Q184 -317 203 -329Q202 -332 202 -338Q202 -368 241 -384V-378Q241 -374 242 -373H244Q260 -376 276 -380Q280 -380 286 -378Q311 -390 372 -404Q420 -415 441 -423Q434 -459 423 -494Q410 -488 361 -475Q325 -465 309 -450Q301 -439 292 -428Q288 -425 279 -422Q267 -418 263 -414Q238 -419 222 -438Q210 -452 198 -480Q176 -482 164 -503Q164 -521 145 -538Q132 -550 130 -558Q131 -559 134 -559Q142 -555 152 -551Q149 -560 132 -573Q113 -588 110 -594Q113 -597 116 -597Q120 -597 136 -590Q149 -584 156 -584Q160 -584 162 -586Q162 -592 150 -594Q140 -596 138 -602Q141 -606 148 -606Q157 -606 174 -599Q211 -627 262 -634Q312 -641 363 -655V-657Q363 -664 356 -674Q350 -682 350 -686Q350 -689 349 -693Q349 -721 378 -750Q411 -783 444 -783Q453 -783 458 -781Q463 -784 465 -784Q473 -782 481 -781H485Q492 -773 503 -752Q517 -726 528 -717V-715Q530 -708 532 -701L631 -732Q632 -731 632 -729Q632 -726 627 -722Q622 -718 621 -715Q623 -714 627 -714Q635 -714 649 -725Q663 -736 670 -736Q675 -736 677 -735Q667 -725 654 -716Q642 -708 637 -692Q640 -689 643 -689Q652 -692 661 -695Q656 -684 654 -672Q654 -666 659 -657Q663 -650 663 -648Q663 -647 661 -643Q662 -639 668 -633Q674 -627 674 -621Q674 -617 673 -615Q686 -628 689 -647Q689 -652 688 -654H690Q694 -654 697 -649Q700 -643 704 -643Q713 -646 722 -649Q731 -639 742 -631Q753 -623 757 -609Q763 -608 770 -603Q776 -598 780 -598Q782 -598 786 -600Q784 -594 784 -591Q785 -578 793 -568Q801 -557 808 -548Q800 -519 796 -511Q787 -496 777 -482Q777 -479 776 -477Q778 -468 780 -460Q780 -458 778 -454Q772 -457 768 -482Q765 -481 759 -481Q750 -481 736 -489Q722 -497 713 -497H709Q704 -515 688 -522Q679 -519 669 -517H667Q667 -518 666 -520Q670 -527 675 -534Q671 -544 668 -557Q665 -571 657 -574Q648 -574 642 -554Q583 -546 534 -522Q537 -506 541 -490Q544 -475 553 -465H554Q557 -467 559 -470H560Q586 -471 610 -480Q634 -489 658 -495Q663 -493 667 -491Q673 -495 680 -497H682Q683 -496 683 -495Q682 -490 680 -486V-485Q692 -473 705 -473Q710 -473 716 -476Q717 -473 717 -471Q717 -467 716 -463Q716 -456 719 -453Q724 -453 728 -458Q731 -462 735 -462ZM601 73H595Q568 71 540 69L483 66Q469 66 455 65Q411 66 367 67Q333 67 313 63Q309 60 304 57Q295 56 285 54Q256 40 232 21Q212 -9 206 -63H207Q209 -61 211 -59H212Q214 -112 250 -115Q251 -115 251 -116Q251 -118 250 -120V-122Q284 -130 321 -141Q358 -152 402 -156Q382 -150 379 -137Q379 -130 387 -125Q358 -110 353 -81Q365 -78 376 -78Q385 -78 393 -79Q399 -78 405 -78Q433 -74 460 -71Q477 -71 494 -72Q509 -72 522 -69Q525 -69 538 -73Q554 -78 564 -78H566Q572 -76 578 -75Q605 -75 614 -99Q618 -97 618 -87Q618 -76 622 -74Q645 -76 660 -81V-80Q660 -76 650 -71Q638 -66 638 -60Q638 -58 639 -56Q643 -61 649 -64Q651 -64 652 -63Q654 -52 659 -32Q664 -13 679 -6Q669 0 669 15Q669 22 673 30Q659 40 642 55Q626 69 601 73Z"/>
</svg>