<svg xmlns="http://www.w3.org/2000/svg" viewBox="0 -800 1024 1024">
	<path fill="#000000" d="M898 -772V-770Q898 -758 903 -752Q908 -745 914 -739Q912 -716 910 -694Q910 -687 911 -684Q907 -684 903 -685Q888 -685 879 -678Q869 -670 869 -657Q870 -654 870 -651Q862 -657 862 -669Q857 -676 850 -676Q843 -676 835 -679Q829 -682 825 -690Q821 -697 815 -705Q793 -732 770 -757Q772 -765 773 -774Q768 -784 764 -798Q770 -795 773 -795Q779 -795 785 -801Q785 -804 784 -808V-811Q788 -809 792 -809Q811 -812 829 -816Q840 -816 846 -810Q858 -813 870 -817Q869 -814 869 -809Q869 -797 883 -783Q902 -786 920 -790Q917 -785 909 -781Q900 -776 898 -772ZM829 -646V-645Q808 -620 808 -591Q808 -579 812 -568Q806 -571 801 -587Q797 -599 794 -603Q790 -601 788 -601Q781 -602 773 -603Q770 -596 766 -589Q759 -618 727 -630Q725 -640 714 -650Q701 -662 699 -672Q696 -673 692 -679Q696 -725 696 -747H697Q701 -747 702 -740Q703 -734 705 -733Q707 -734 707 -738V-745H713Q732 -745 751 -754Q753 -750 756 -745Q758 -740 763 -740Q765 -740 767 -741Q773 -731 777 -727Q784 -720 794 -720H796Q801 -704 810 -690Q818 -676 819 -654V-649Q819 -648 821 -648H826Q829 -648 829 -646ZM816 -229Q810 -233 810 -248Q810 -261 819 -261Q821 -253 821 -244Q821 -233 816 -229ZM862 1V3Q861 8 855 19Q847 33 847 43Q847 49 850 56Q843 58 835 77Q829 75 826 75Q821 75 809 78Q775 59 746 34Q717 9 687 -16Q628 -64 560 -105Q534 -127 504 -146Q475 -165 454 -192Q342 -104 234 39Q223 43 213 43Q204 43 197 42Q179 12 157 -4V-8Q157 -19 148 -42Q151 -49 151 -60Q151 -72 147 -84Q150 -94 150 -104Q149 -126 139 -147Q129 -167 122 -186Q129 -181 137 -167Q147 -149 157 -145Q150 -163 134 -191Q111 -231 105 -255Q125 -238 139 -206Q152 -174 181 -166H187Q214 -166 272 -201Q330 -236 347 -250L379 -276Q402 -297 425 -318Q469 -351 508 -388Q516 -397 523 -406Q529 -416 540 -421Q541 -427 551 -436Q558 -443 561 -449Q526 -446 454 -417Q430 -409 405 -402Q391 -393 376 -384Q365 -378 354 -372Q349 -368 339 -356Q326 -340 317 -337Q315 -336 312 -336Q290 -338 275 -349Q265 -366 258 -381Q240 -400 220 -417Q199 -435 197 -469V-477Q200 -496 210 -516Q212 -524 218 -532Q226 -544 227 -550V-554Q227 -561 226 -569Q226 -574 227 -576Q232 -593 248 -604Q264 -614 280 -624Q287 -630 295 -636Q303 -642 313 -643Q306 -632 297 -622Q288 -612 286 -595Q294 -590 313 -590Q322 -590 332 -592H333Q337 -590 341 -589Q352 -592 363 -595H366Q373 -594 379 -594Q383 -594 385 -595Q411 -602 436 -609Q517 -626 540 -630Q590 -638 593 -639Q599 -641 608 -649Q621 -660 628 -661H633Q644 -659 654 -658Q656 -658 662 -660Q665 -653 679 -644Q694 -634 698 -624H701Q704 -624 707 -628Q710 -632 712 -632Q714 -632 716 -631Q710 -622 710 -614Q710 -607 716 -597Q720 -602 723 -609Q726 -615 735 -616Q729 -590 729 -577Q729 -564 733 -556Q738 -556 739 -563Q741 -570 744 -570V-558Q744 -529 751 -516Q747 -507 745 -486Q744 -469 741 -462Q739 -457 731 -450Q723 -443 722 -438Q700 -435 690 -429Q689 -428 689 -427Q692 -423 694 -420Q694 -419 693 -418Q664 -410 642 -390Q620 -371 599 -351Q555 -311 532 -283Q573 -243 679 -192Q705 -177 730 -163Q742 -159 754 -159H757Q769 -161 773 -180Q777 -202 784 -207Q785 -205 785 -199Q784 -187 783 -175Q783 -166 788 -162Q791 -178 791 -199Q791 -222 790 -246V-263Q790 -285 799 -288Q801 -279 801 -256Q801 -232 800 -208Q800 -174 808 -154Q813 -161 813 -174Q812 -189 811 -205Q811 -215 813 -219Q818 -206 822 -180Q827 -152 834 -138Q836 -133 846 -122Q855 -112 858 -104Q860 -96 861 -88Q864 -81 867 -75Q868 -72 868 -67Q864 -40 859 -13Q861 -6 862 1Z"/>
</svg>