<svg xmlns="http://www.w3.org/2000/svg" viewBox="0 -800 1024 1024">
	<path fill="#000000" d="M544 -585H538Q526 -585 515 -576Q489 -587 457 -591Q448 -591 439 -588Q438 -589 438 -591Q439 -594 439 -598Q426 -609 410 -609Q394 -609 386 -595V-597Q390 -608 398 -620Q395 -624 383 -631Q364 -626 338 -609Q317 -595 307 -591Q318 -611 336 -623Q354 -636 372 -650Q367 -665 362 -680Q357 -694 338 -695H336Q338 -700 348 -705Q355 -708 358 -711Q359 -736 374 -754Q367 -776 355 -795Q364 -793 375 -781Q384 -771 389 -769Q401 -772 410 -782Q409 -790 408 -798V-802Q408 -803 410 -803Q417 -798 423 -789Q431 -794 441 -794Q449 -794 467 -788Q472 -790 481 -801Q489 -811 500 -811Q495 -803 495 -795Q496 -780 509 -769Q522 -759 531 -749Q533 -731 555 -711Q560 -713 564 -719Q570 -727 575 -728V-727Q570 -712 565 -682V-676Q567 -669 574 -665Q571 -662 571 -657Q571 -649 578 -644Q574 -602 544 -585ZM843 -265H846Q846 -256 840 -252Q835 -249 826 -247Q826 -265 843 -265ZM369 -571H366Q366 -582 377 -591Q380 -589 380 -585Q380 -573 369 -571ZM832 -140H834Q835 -140 835 -138Q828 -131 821 -125Q822 -118 822 -103Q822 -58 798 -47Q800 -27 802 -7Q798 -10 792 -23Q785 -37 778 -41Q773 -44 760 -44Q745 -44 738 -49Q729 -58 722 -68Q706 -86 685 -98Q664 -111 645 -125Q605 -151 565 -178Q547 -172 547 -137Q548 -121 548 -105Q548 -96 547 -92Q545 -86 543 -80V-77Q545 -62 547 -47V-46Q547 -44 544 -38Q544 -28 553 17Q545 54 541 66Q532 91 515 99Q509 98 501 93Q490 86 483 86Q478 86 475 87Q471 76 462 71Q452 66 445 58Q437 47 430 35Q423 23 411 14Q412 6 412 -2Q412 -15 405 -19Q445 -59 445 -176Q445 -200 444 -212Q413 -202 388 -181Q364 -160 340 -140Q300 -106 277 -82Q244 -47 227 -10L211 5Q207 3 199 3Q192 3 176 5Q173 2 163 -10Q152 -24 143 -29Q136 -63 121 -73Q122 -75 122 -80Q119 -93 115 -107Q117 -115 124 -121Q110 -150 94 -179Q79 -207 69 -242Q81 -228 101 -196Q124 -158 140 -143V-145Q140 -155 129 -173Q121 -186 119 -193H120Q127 -191 135 -179Q142 -166 152 -160Q224 -185 253 -203Q263 -212 281 -217Q286 -223 291 -229Q354 -270 418 -310Q483 -350 541 -395Q512 -393 467 -380Q442 -373 390 -355Q354 -343 318 -331Q291 -320 256 -292Q193 -294 182 -331Q130 -347 130 -391V-400Q137 -446 159 -481Q164 -486 180 -496Q194 -504 201 -512Q219 -535 238 -553Q229 -526 229 -520Q229 -500 254 -499Q276 -502 297 -506Q307 -507 372 -523Q392 -525 411 -527Q422 -531 433 -536Q448 -539 462 -540Q476 -541 485 -547Q543 -551 568 -566H572Q587 -568 601 -570Q605 -570 607 -569Q612 -576 616 -584Q620 -592 630 -595Q632 -603 634 -611Q650 -616 654 -626Q671 -628 687 -631Q691 -631 703 -629Q710 -628 723 -614Q737 -599 744 -599H745Q751 -599 757 -606Q763 -613 771 -613V-612Q771 -609 767 -603Q759 -590 759 -585Q759 -579 765 -575Q776 -580 791 -595Q806 -610 814 -614Q812 -609 790 -585Q774 -567 774 -551Q775 -547 775 -544H776Q781 -544 787 -552Q792 -558 794 -558Q795 -558 796 -557Q785 -539 785 -525Q785 -517 789 -512L790 -511Q792 -513 798 -516Q800 -515 801 -515Q801 -507 800 -499Q801 -481 801 -464Q801 -422 783 -409Q739 -398 701 -385Q687 -379 668 -365Q644 -348 636 -344Q592 -325 568 -309Q549 -295 534 -286Q535 -275 544 -263Q551 -253 553 -248Q557 -248 560 -253Q562 -257 565 -257Q581 -259 588 -259Q611 -259 652 -248Q690 -238 713 -238Q725 -238 731 -239Q739 -240 749 -246Q758 -252 763 -253Q765 -252 765 -250Q764 -244 762 -238Q762 -235 763 -233Q772 -226 780 -220Q798 -235 821 -244Q820 -239 809 -227Q795 -212 795 -202Q795 -193 801 -187Q822 -190 824 -190H829Q818 -181 808 -171V-166Q810 -147 820 -139H822Q827 -139 832 -140Z"/>
</svg>