<svg xmlns="http://www.w3.org/2000/svg" viewBox="0 -800 1024 1024">
	<path fill="#000000" d="M474 -67Q477 -69 483 -67Q505 -57 530 -52Q527 -59 520 -61Q513 -64 507 -67Q512 -70 516 -70Q529 -68 542 -67Q551 -67 556 -69Q592 -132 629 -195Q667 -258 698 -326V-337Q712 -355 725 -375Q723 -377 723 -381Q725 -391 730 -399Q702 -396 680 -390Q611 -372 553 -360H548Q525 -360 496 -340V-335Q497 -323 497 -311Q497 -298 491 -292Q469 -278 458 -274Q426 -243 398 -207Q370 -171 340 -137V-130Q335 -129 334 -126Q333 -123 331 -119Q326 -113 320 -107Q314 -95 311 -91Q305 -83 296 -83Q294 -83 291 -84Q277 -88 265 -102Q252 -117 244 -127V-143Q241 -145 239 -151Q236 -160 231 -160H230Q227 -164 224 -169Q215 -170 206 -183Q192 -184 192 -200Q213 -187 236 -178Q238 -180 238 -181Q236 -184 234 -187Q235 -188 235 -189H247Q258 -196 267 -208Q287 -219 293 -235Q302 -244 320 -258Q338 -279 343 -288Q332 -285 315 -274Q299 -264 288 -261Q272 -251 260 -237Q247 -223 235 -209H220Q218 -207 216 -206Q213 -205 209 -205Q195 -206 189 -213Q182 -220 174 -226Q136 -226 121 -255V-259Q120 -268 119 -278V-280Q102 -286 102 -313Q102 -317 104 -329Q106 -337 116 -344Q127 -352 127 -358Q132 -361 136 -364Q147 -387 180 -425Q212 -462 224 -486H226Q227 -487 228 -489H230Q237 -509 251 -536Q273 -578 278 -601Q277 -602 272 -602H262Q257 -602 255 -604Q257 -609 265 -615Q273 -621 275 -625Q271 -637 259 -637Q232 -632 219 -615H218Q215 -616 212 -618H209Q214 -630 234 -646Q248 -658 253 -664Q267 -679 284 -693Q301 -708 309 -728Q322 -743 347 -751Q387 -755 420 -769Q439 -766 460 -757Q467 -752 473 -741Q478 -730 485 -719Q506 -698 508 -666Q508 -656 507 -649Q509 -645 510 -641V-639Q499 -618 467 -588Q439 -561 428 -544Q381 -490 358 -432Q367 -433 384 -439Q409 -448 423 -448Q426 -451 429 -454H431Q434 -452 436 -451H437Q442 -453 442 -457Q451 -457 461 -461Q474 -466 482 -466H491Q497 -468 499 -471H511Q524 -480 542 -480Q562 -486 564 -486Q598 -493 628 -504H643Q659 -506 686 -518Q708 -529 725 -557H727Q743 -559 759 -562Q765 -565 770 -576Q776 -588 780 -591V-581Q780 -578 782 -574Q793 -580 804 -604Q815 -629 827 -635Q826 -627 819 -612Q810 -591 810 -581Q810 -575 813 -569Q815 -565 836 -547Q844 -548 856 -555Q871 -563 879 -563H882Q880 -559 869 -552Q854 -543 853 -534V-531Q853 -520 865 -520Q877 -521 888 -523L877 -501Q881 -493 885 -486Q892 -490 901 -492H905Q904 -479 902 -466Q902 -456 905 -447Q909 -439 912 -431Q916 -421 916 -406Q916 -403 915 -400Q912 -393 902 -386Q897 -377 893 -369Q889 -362 878 -361H876Q871 -356 865 -351Q866 -350 871 -349Q877 -348 877 -344V-343Q858 -337 847 -324Q836 -310 824 -297Q805 -248 751 -145V-137Q728 -94 705 -50Q682 -7 672 50Q656 57 638 70Q620 83 600 84Q591 84 580 78Q578 77 575 71Q572 64 566 62Q562 66 556 66Q559 59 559 48Q557 17 530 2Q531 -2 531 -9Q531 -27 513 -40Q506 -45 478 -59Q472 -62 474 -67ZM846 -670H847Q847 -653 833 -643Q831 -649 831 -653Q831 -659 835 -664Q840 -670 846 -670Z"/>
</svg>