<svg xmlns="http://www.w3.org/2000/svg" viewBox="0 -800 1024 1024">
	<path fill="#000000" d="M902 -180V-178Q903 -174 903 -170Q903 -168 902 -167Q900 -161 892 -150Q881 -135 881 -126Q876 -126 871 -127Q847 -127 839 -108Q797 -118 765 -138Q732 -157 699 -177Q682 -158 671 -131Q660 -104 648 -77Q614 -4 598 22Q591 32 560 50Q550 46 542 39Q533 33 520 31Q521 28 521 24Q521 6 491 6Q481 7 470 7Q471 3 479 -1Q490 -6 490 -14V-16Q485 -17 476 -17Q438 -13 415 -3Q419 -14 429 -18Q439 -23 450 -26Q469 -35 488 -45Q484 -49 476 -49Q470 -49 455 -44Q434 -37 410 -29Q386 -21 354 -17Q409 -42 463 -70Q515 -97 538 -154Q539 -155 542 -155H545V-170Q565 -195 581 -224Q541 -244 452 -244Q425 -244 385 -242Q368 -244 359 -233Q355 -219 350 -206Q340 -188 311 -119Q309 -102 306 -86Q303 -78 300 -70Q300 -66 301 -63Q291 -45 284 -21Q276 4 254 7H252Q243 7 237 1Q232 -4 224 -8Q223 -19 209 -33Q196 -69 167 -90Q137 -112 116 -142Q86 -146 58 -154Q54 -162 54 -169Q55 -177 55 -185V-189Q51 -194 46 -194Q43 -209 43 -223Q43 -250 56 -278Q72 -287 92 -296Q111 -305 133 -306H138Q141 -307 144 -310Q147 -315 150 -315Q260 -334 313 -335Q346 -414 391 -497Q335 -486 285 -452Q268 -435 250 -427Q247 -426 240 -426Q218 -426 205 -443Q193 -458 190 -484Q164 -498 164 -534Q166 -584 200 -608Q198 -620 198 -623Q198 -640 210 -654Q215 -659 234 -675Q251 -689 268 -704Q284 -719 301 -723V-722Q301 -715 289 -708Q275 -699 274 -689H275Q278 -689 282 -693Q288 -700 293 -700H295Q291 -691 289 -680Q295 -679 309 -679Q357 -679 401 -704Q402 -703 404 -703Q407 -703 410 -704Q412 -704 412 -701Q427 -710 450 -732Q468 -749 474 -754H481Q512 -754 530 -734Q533 -735 538 -735Q546 -735 559 -728Q574 -720 582 -720Q584 -720 592 -722Q594 -721 595 -720Q592 -714 589 -709V-708Q593 -701 598 -701Q610 -704 621 -707Q605 -691 605 -683Q605 -681 607 -677Q622 -684 640 -695Q620 -675 620 -646Q620 -632 624 -620Q615 -613 616 -600Q616 -587 613 -575Q611 -569 605 -563Q598 -556 597 -551Q562 -551 518 -509Q517 -504 516 -499V-497Q511 -495 505 -494Q501 -483 489 -466Q479 -453 476 -446Q476 -443 471 -443Q468 -425 448 -397Q427 -367 422 -349Q554 -344 618 -333Q617 -334 628 -356Q628 -361 619 -376Q607 -396 607 -404Q607 -416 616 -430Q625 -444 636 -447Q635 -460 631 -477Q640 -477 646 -472Q651 -468 658 -465Q660 -466 660 -467Q657 -471 653 -476Q653 -477 655 -479Q664 -476 676 -476Q706 -476 714 -493Q724 -488 726 -488H735Q759 -488 767 -481Q791 -463 809 -399Q817 -369 817 -358Q817 -341 809 -326Q782 -324 770 -302Q798 -290 831 -276Q865 -262 910 -261H920Q918 -258 908 -255Q899 -253 896 -249Q899 -246 908 -246H916Q907 -240 907 -228Q907 -212 920 -209Q918 -204 912 -197Q904 -187 902 -180ZM406 -3Q399 5 387 9Q385 7 385 3Q385 -6 396 -6Q402 -6 406 -3ZM264 -234Q223 -226 217 -225Q190 -219 177 -211Q209 -179 233 -167Q236 -177 248 -200Q260 -222 264 -234Z"/>
</svg>