<svg xmlns="http://www.w3.org/2000/svg" viewBox="0 -800 1024 1024">
	<path fill="#000000" d="M756 -62V-58Q757 -44 763 -33Q770 -21 776 -9Q769 -6 769 12Q755 28 750 51Q741 51 724 64Q717 57 709 57Q705 57 702 58Q695 50 688 42Q657 27 627 11Q598 -5 556 -6Q552 26 548 57Q543 60 538 63Q536 74 521 86Q508 96 505 105Q461 118 410 118Q363 118 331 105Q307 93 283 78Q258 60 235 45Q212 29 197 10Q181 -10 181 -43Q186 -114 231 -150Q264 -153 300 -153Q397 -153 455 -137Q454 -148 452 -159Q442 -167 433 -176H431Q428 -175 425 -174H423Q400 -189 372 -195Q343 -201 329 -230Q316 -236 308 -243Q303 -253 302 -266Q301 -280 288 -284Q291 -288 301 -288Q299 -298 283 -308Q271 -315 268 -320Q282 -318 295 -317Q303 -317 310 -321Q311 -322 311 -323Q310 -328 308 -333V-335Q330 -339 352 -344Q363 -344 391 -338Q419 -332 438 -332H442Q444 -337 444 -347Q442 -366 440 -386Q417 -400 360 -400Q314 -397 267 -395H261Q221 -395 206 -413Q189 -417 173 -429Q165 -435 147 -452Q148 -455 154 -456Q160 -457 160 -459Q157 -467 148 -467Q136 -464 123 -461Q124 -474 137 -480Q159 -490 160 -491Q171 -501 179 -515Q228 -544 280 -554H298Q307 -557 316 -561Q336 -566 370 -566H385Q396 -572 424 -573Q450 -574 459 -579V-591Q459 -646 434 -656V-660Q434 -677 424 -692Q433 -704 433 -715Q433 -726 423 -746Q412 -767 411 -779Q422 -774 435 -754Q444 -740 452 -734V-735Q452 -741 446 -751Q439 -762 439 -768Q450 -767 455 -759Q459 -751 468 -748Q469 -749 469 -752Q467 -758 464 -765Q472 -763 479 -761Q519 -783 549 -783Q572 -783 587 -771Q589 -761 605 -753Q612 -738 619 -724Q626 -710 627 -694Q627 -689 625 -679Q624 -675 611 -645Q597 -621 597 -620Q589 -603 588 -587Q595 -581 607 -581Q625 -583 643 -585H647Q653 -583 658 -579Q664 -580 670 -581Q693 -576 715 -572Q714 -569 711 -569Q708 -569 708 -566Q711 -563 720 -563H732Q741 -563 744 -560Q736 -554 736 -552V-551Q736 -549 739 -549Q762 -552 785 -556Q792 -556 794 -555Q792 -554 765 -544Q747 -537 742 -525Q743 -524 747 -524Q756 -524 764 -525H770Q751 -519 749 -501Q749 -493 756 -486Q763 -489 769 -492Q772 -492 773 -491Q773 -486 766 -480Q761 -475 759 -470Q759 -467 758 -465Q761 -445 764 -425Q764 -419 763 -416Q759 -403 754 -390Q735 -386 717 -365Q698 -343 676 -343H668Q643 -349 620 -359Q587 -370 565 -370Q539 -370 539 -350Q539 -343 542 -333H556Q558 -337 568 -339Q577 -341 579 -343Q595 -343 610 -344Q638 -344 652 -332Q654 -323 665 -308Q677 -292 679 -284V-282Q678 -274 677 -267Q680 -259 683 -251V-247Q681 -232 674 -219V-217Q675 -212 676 -207Q673 -204 670 -203Q667 -201 667 -196V-195Q653 -188 611 -184Q560 -179 544 -168V-152Q544 -131 550 -125Q640 -106 723 -83Q726 -83 726 -81Q725 -77 724 -74Q741 -81 760 -83Q756 -78 750 -74Q745 -71 744 -62Q744 -61 746 -61Q750 -61 753 -62ZM462 -5Q461 -9 461 -15Q462 -22 462 -29Q462 -32 461 -36Q424 -48 384 -51Q344 -54 301 -59Q298 -54 298 -49Q298 -31 349 -9Q403 12 425 12Q450 12 462 -5ZM799 -529V-527Q792 -525 785 -524H781V-528Q781 -536 791 -536Q799 -536 799 -529Z"/>
</svg>