<svg xmlns="http://www.w3.org/2000/svg" viewBox="0 -800 1024 1024">
	<path fill="#000000" d="M782 -637V-649Q777 -663 754 -679Q737 -690 733 -696Q730 -700 726 -709Q722 -720 716 -723Q718 -733 718 -737Q718 -748 710 -769Q712 -770 714 -771Q720 -768 726 -765Q729 -766 730 -771Q731 -776 733 -777Q755 -788 773 -788Q786 -788 796 -783H797Q801 -783 804 -786Q807 -789 809 -789Q809 -777 825 -771Q828 -772 835 -778Q843 -785 850 -785Q852 -784 854 -784Q853 -779 846 -774Q837 -767 837 -760Q840 -741 862 -738H866Q858 -730 858 -708Q858 -701 852 -686Q846 -671 846 -663Q848 -656 850 -650Q850 -647 846 -643Q839 -651 831 -659Q814 -653 794 -648Q791 -648 789 -643Q786 -637 782 -637ZM763 -585V-580Q743 -575 728 -565Q715 -572 697 -572Q683 -572 670 -567Q670 -569 676 -580Q676 -581 668 -594Q654 -591 639 -576Q628 -565 622 -562Q626 -572 640 -587Q651 -599 655 -607Q655 -618 644 -628Q635 -636 633 -642H619Q620 -646 636 -649Q638 -659 638 -662Q636 -680 633 -699H634Q638 -699 641 -693Q643 -688 646 -687Q650 -691 652 -696Q664 -700 677 -700Q707 -700 731 -674Q746 -658 765 -622Q766 -621 767 -621Q770 -621 772 -622Q774 -622 775 -621Q763 -607 763 -585ZM801 -495H799Q791 -495 791 -506Q791 -515 799 -515H801Q803 -509 803 -507Q803 -503 801 -495ZM279 -541L300 -561Q298 -569 293 -573Q288 -577 282 -580Q278 -580 273 -577Q267 -573 262 -573Q263 -584 277 -594Q273 -599 268 -613Q260 -635 251 -640H250Q247 -640 244 -636Q241 -633 237 -633H236Q236 -634 235 -636Q239 -645 248 -651Q246 -672 234 -682Q221 -692 209 -702Q211 -703 214 -703Q218 -703 227 -697Q234 -692 240 -691V-693Q240 -696 235 -699Q232 -701 232 -703Q232 -704 233 -705Q243 -707 257 -716Q275 -728 285 -729Q294 -728 302 -728Q312 -728 318 -733Q327 -731 336 -730Q341 -739 345 -748Q348 -745 350 -737Q352 -728 357 -725Q363 -722 379 -720Q400 -718 406 -712H407Q411 -712 413 -715Q415 -718 417 -718H418Q422 -707 432 -704Q443 -702 455 -697Q481 -682 503 -659Q505 -649 506 -640Q513 -629 514 -613Q515 -602 515 -592Q515 -543 494 -529Q462 -513 436 -513Q429 -513 417 -515Q400 -519 383 -524Q381 -524 379 -520Q377 -516 374 -516Q371 -533 355 -536Q335 -539 322 -549Q304 -549 285 -534Q268 -521 257 -519Q260 -528 267 -532Q273 -537 279 -541ZM821 -427L822 -426Q826 -399 831 -389Q739 -215 548 -99Q499 -71 449 -46Q398 -21 356 19Q344 25 334 32Q325 38 311 38Q304 38 301 37Q276 33 255 7Q242 -9 224 -44Q217 -46 209 -48Q209 -52 215 -64Q216 -67 216 -70Q216 -77 209 -89Q203 -99 203 -105V-107Q206 -127 215 -148Q216 -149 216 -150Q215 -151 214 -153Q217 -160 229 -168Q239 -175 242 -180H244Q268 -180 277 -211Q279 -210 279 -205Q278 -195 277 -185Q277 -178 279 -176Q291 -161 307 -161Q319 -161 347 -171Q374 -181 396 -196H402Q405 -196 405 -195Q567 -288 643 -364Q668 -393 693 -423Q718 -447 737 -471Q755 -495 756 -541V-559H760Q763 -547 764 -522Q765 -490 769 -480Q773 -485 773 -495Q772 -507 771 -520Q771 -528 774 -534Q784 -517 785 -492Q786 -467 790 -444Q792 -450 792 -456Q792 -465 791 -475Q791 -482 793 -484H794Q799 -484 799 -474V-459Q801 -441 815 -420Q818 -423 821 -427ZM439 -383H437Q414 -383 405 -340Q401 -341 393 -341Q368 -338 345 -333Q304 -346 274 -346Q255 -346 240 -340Q245 -350 245 -351Q241 -356 236 -356Q229 -355 222 -348Q215 -341 209 -336Q209 -348 215 -356Q220 -363 224 -372Q223 -376 217 -380Q210 -384 208 -386Q198 -381 187 -378Q192 -387 197 -396Q181 -415 150 -427V-429Q150 -439 142 -442Q134 -444 125 -446Q127 -450 138 -453Q149 -456 152 -463Q152 -467 149 -469Q146 -471 146 -473V-474Q159 -479 168 -486Q178 -494 196 -495H200Q205 -497 205 -506V-513Q205 -518 206 -519Q208 -518 211 -513Q214 -508 217 -507H218Q221 -507 223 -510Q225 -513 229 -513Q235 -513 248 -506Q257 -501 263 -501Q267 -501 271 -504Q277 -495 298 -495Q311 -495 323 -496H329Q377 -496 396 -462Q407 -448 422 -444Q422 -405 439 -383ZM189 -311H186V-313Q186 -328 197 -328Q201 -328 203 -327Q199 -311 189 -311Z"/>
</svg>