<svg xmlns="http://www.w3.org/2000/svg" viewBox="0 -800 1024 1024">
	<path fill="#000000" d="M879 -388V-378Q879 -304 827 -223Q789 -163 737 -127Q693 -96 610 -64Q545 -39 506 -31Q484 -27 476 -27Q454 -27 441 -45Q443 -49 443 -52Q440 -67 430 -80Q427 -83 417 -83Q409 -83 408 -85V-86Q409 -91 414 -91Q420 -92 424 -94Q420 -112 398 -112Q371 -112 351 -118Q377 -122 405 -132Q393 -143 357 -145Q313 -147 303 -151Q309 -157 326 -157Q341 -156 355 -156Q372 -156 380 -162Q365 -166 327 -167Q287 -168 270 -172Q275 -178 284 -179Q293 -180 301 -180Q347 -184 398 -186Q454 -201 510 -217Q552 -228 593 -243Q648 -267 687 -297Q703 -308 713 -329Q718 -339 729 -372Q727 -415 707 -431Q690 -445 646 -445H627Q554 -445 478 -417Q425 -397 349 -355Q326 -342 312 -330Q304 -324 276 -303Q269 -296 262 -279Q256 -266 253 -261Q231 -231 202 -228Q198 -227 193 -227Q169 -227 143 -240Q137 -243 127 -257Q118 -270 112 -274Q102 -280 86 -285Q64 -291 57 -298Q32 -321 32 -351V-359Q32 -373 50 -409Q59 -433 68 -457Q80 -475 104 -488Q127 -500 145 -514Q164 -531 182 -546Q199 -562 221 -573Q209 -560 198 -548Q187 -535 183 -514H185Q191 -514 195 -523Q198 -530 204 -531Q206 -531 206 -529Q204 -523 201 -517V-516Q208 -500 224 -500Q233 -500 272 -513Q344 -538 416 -564Q464 -581 517 -598Q570 -615 623 -620Q633 -621 651 -621Q732 -621 787 -580Q827 -550 852 -500Q879 -446 879 -388ZM235 -169V-177Q240 -180 248 -180Q264 -180 265 -171Q250 -166 245 -166Q240 -166 235 -169Z"/>
</svg>