<svg xmlns="http://www.w3.org/2000/svg" viewBox="0 -800 1024 1024">
	<path fill="#000000" d="M665 -112V-101Q656 -83 644 -66Q623 -30 612 -14Q593 14 574 29Q545 52 502 66Q477 74 417 85Q416 76 407 70Q405 69 389 62Q388 61 388 60Q389 57 389 53V51Q380 41 348 36Q324 33 317 29Q322 26 332 26Q343 27 353 27Q359 27 367 25Q352 15 315 11Q277 7 265 -4Q271 -6 284 -6Q307 -5 329 -4Q348 -4 358 -10Q314 -13 266 -20Q238 -27 234 -34H237Q252 -31 266 -28Q275 -27 284 -27Q293 -27 302 -28Q379 -33 459 -88Q562 -159 562 -316V-334Q562 -353 567 -368Q564 -381 563 -413Q563 -441 558 -457Q558 -458 557 -459Q559 -462 561 -465Q552 -485 550 -509Q548 -533 545 -556Q541 -559 538 -571Q535 -583 530 -586Q523 -586 519 -579Q513 -569 512 -568Q498 -561 489 -547Q480 -533 469 -518Q463 -512 458 -507Q453 -502 453 -491V-489Q395 -390 395 -312V-305Q399 -286 403 -267V-260Q401 -238 399 -217Q399 -209 400 -205Q372 -174 336 -166H335Q333 -166 333 -162Q333 -159 331 -158Q324 -168 314 -175Q305 -172 305 -158V-151Q299 -155 292 -171Q287 -183 281 -188Q280 -188 278 -189Q275 -188 272 -187H271Q261 -226 236 -239Q237 -242 237 -249Q237 -276 222 -289Q235 -328 235 -381Q235 -472 197 -494Q184 -521 184 -563Q184 -602 197 -643L207 -649Q206 -660 206 -686Q206 -726 216 -742Q220 -711 226 -684Q228 -692 228 -700Q228 -711 226 -719Q231 -716 234 -703Q237 -688 245 -687Q248 -690 248 -695Q246 -703 244 -712Q248 -712 252 -704Q255 -698 259 -697Q262 -698 268 -705Q272 -710 278 -712Q284 -714 295 -714Q325 -712 341 -690Q358 -666 377 -652Q380 -640 386 -631Q393 -623 397 -615V-614Q396 -611 395 -609Q399 -599 402 -590Q402 -586 401 -583Q405 -581 408 -580Q404 -576 400 -572Q399 -553 393 -521Q385 -478 385 -457V-446Q392 -460 419 -505Q429 -520 443 -549Q459 -583 469 -597Q478 -611 490 -636Q507 -673 519 -687Q522 -694 524 -701Q530 -705 538 -709Q546 -712 547 -718Q547 -720 546 -721H554Q569 -737 586 -754Q603 -772 627 -773H633Q661 -768 674 -757Q678 -751 681 -745Q698 -725 715 -706Q717 -694 721 -681Q728 -660 728 -650Q728 -640 724 -629H716Q711 -617 705 -606Q705 -605 707 -601Q706 -597 700 -597Q701 -595 701 -591Q696 -567 691 -543Q691 -535 694 -531Q688 -509 687 -480Q688 -479 689 -475Q690 -472 693 -472H694Q690 -464 690 -450Q693 -420 695 -391Q694 -376 693 -361Q693 -347 700 -339Q693 -330 693 -310Q694 -289 695 -268V-261Q691 -241 687 -221Q687 -214 690 -207Q687 -198 681 -191V-183Q681 -167 672 -139Q666 -121 665 -112ZM228 -28Q216 -31 207 -35Q197 -40 195 -52Q198 -52 201 -53Q211 -53 219 -46Q227 -39 228 -28Z"/>
</svg>