<svg xmlns="http://www.w3.org/2000/svg" viewBox="0 -800 1024 1024">
	<path fill="#000000" d="M748 -560Q745 -554 741 -550Q737 -545 729 -545Q728 -547 728 -550Q729 -560 741 -562Q744 -562 748 -560ZM575 -236H572Q563 -235 553 -234Q544 -235 524 -245Q501 -257 485 -257Q475 -257 466 -253Q469 -261 489 -264Q503 -266 507 -269Q503 -269 498 -270Q461 -265 424 -261Q433 -267 458 -274Q485 -282 496 -291Q491 -299 485 -310Q479 -321 471 -323H470Q453 -318 431 -305Q411 -297 391 -290H388Q374 -289 365 -281Q355 -273 345 -266Q343 -265 331 -260Q325 -255 318 -244Q311 -233 307 -230Q299 -223 286 -223Q272 -223 254 -233Q251 -232 247 -232Q241 -232 227 -236Q218 -250 218 -265V-269Q202 -292 202 -310Q202 -319 206 -326Q211 -336 224 -344Q236 -353 249 -362Q258 -370 264 -377Q271 -385 279 -387Q280 -386 280 -383Q279 -377 277 -372Q277 -370 279 -368Q282 -366 288 -366Q310 -370 332 -381L428 -411Q432 -423 442 -429Q437 -443 434 -458Q431 -474 424 -485Q382 -480 354 -459V-457Q354 -451 344 -443Q334 -435 332 -429Q325 -428 311 -419Q303 -414 295 -411H290Q275 -412 264 -420Q254 -428 242 -434Q228 -438 214 -441Q200 -444 195 -459H189Q166 -461 160 -483Q153 -508 142 -528Q128 -536 128 -541V-542Q134 -542 142 -537Q148 -533 152 -533Q154 -533 156 -534Q155 -543 136 -553Q118 -563 115 -573Q151 -564 156 -564Q168 -564 178 -570Q177 -579 162 -580Q151 -581 148 -585Q152 -590 156 -590Q163 -588 169 -586Q184 -586 195 -593Q204 -598 212 -603H217Q227 -602 236 -602Q241 -602 243 -603Q246 -606 249 -609Q252 -610 258 -610H266Q274 -610 277 -611Q290 -615 302 -620H318Q323 -620 326 -621Q334 -623 341 -626Q344 -626 348 -623Q350 -626 357 -628Q365 -630 366 -633Q366 -647 353 -654Q350 -667 350 -681Q354 -739 397 -762Q400 -766 403 -771Q423 -784 452 -784Q480 -784 493 -767Q500 -750 508 -737Q508 -735 511 -735H514Q517 -735 517 -734Q519 -725 529 -713Q528 -711 528 -707Q528 -699 538 -689Q568 -706 609 -717V-715Q608 -711 606 -708Q620 -708 638 -721Q657 -734 672 -734Q663 -727 654 -721Q644 -715 639 -704Q644 -704 657 -711Q670 -718 677 -718H678V-717Q678 -711 668 -703Q658 -695 658 -690V-687Q659 -686 660 -686Q665 -690 671 -694Q673 -693 675 -692Q676 -691 676 -689Q672 -680 667 -672V-669Q667 -663 673 -646Q678 -632 678 -624Q656 -610 648 -576Q624 -570 620 -568Q606 -562 599 -552Q592 -553 587 -557Q566 -544 541 -537Q540 -533 540 -524Q544 -497 551 -471Q568 -473 592 -491Q613 -507 628 -510Q658 -515 668 -522Q672 -522 672 -520Q672 -518 671 -516Q671 -514 674 -514Q682 -515 699 -527Q712 -536 720 -539Q719 -533 712 -527Q705 -521 704 -516Q711 -516 727 -525Q743 -534 751 -534H752Q749 -524 735 -516Q721 -508 719 -493Q719 -488 720 -486H721Q723 -486 728 -491Q733 -497 737 -497Q738 -497 742 -495Q739 -489 739 -481Q739 -462 754 -441Q741 -421 731 -398Q721 -395 708 -389Q695 -383 683 -382H682Q673 -384 664 -387Q648 -382 631 -378Q633 -371 644 -360Q656 -347 659 -338Q661 -325 662 -312Q668 -297 671 -281Q671 -276 668 -270Q653 -242 624 -230Q621 -229 617 -229Q596 -232 575 -236ZM674 -69H677Q682 -51 686 -33Q669 -20 669 -6Q670 -2 670 1Q665 6 657 18Q649 31 642 36Q632 42 619 45Q606 48 599 58Q590 62 575 62Q567 62 551 60Q508 58 464 55Q435 49 404 45Q379 44 353 43Q346 41 339 39H337Q333 40 328 40Q311 32 294 23Q251 7 245 3Q223 -10 218 -36Q212 -42 205 -46Q206 -48 206 -52Q204 -67 201 -83Q201 -95 212 -99Q213 -114 222 -123Q230 -132 242 -132Q246 -131 249 -131Q278 -145 310 -153Q329 -161 345 -170Q361 -179 380 -180Q376 -176 372 -174Q367 -172 366 -164V-163Q366 -158 371 -151Q377 -143 377 -138Q373 -129 369 -120Q370 -110 385 -106Q392 -104 415 -102Q436 -97 457 -93Q475 -95 493 -98Q502 -97 510 -96Q527 -103 545 -108Q561 -109 584 -117Q590 -106 599 -106Q605 -106 618 -112Q633 -119 640 -119Q643 -118 645 -118Q644 -115 639 -109Q630 -98 628 -92Q629 -88 637 -77Q642 -78 648 -86Q653 -93 655 -93H656Q658 -91 658 -85V-75Q658 -69 662 -65H663Q669 -67 674 -69Z"/>
</svg>