<svg xmlns="http://www.w3.org/2000/svg" viewBox="0 -800 1024 1024">
	<path fill="#000000" d="M634 -199V-194Q634 -176 639 -169Q645 -186 645 -221Q645 -228 644 -235Q644 -258 647 -276Q653 -219 658 -163Q662 -166 662 -174Q662 -182 661 -191Q661 -196 662 -198Q669 -179 675 -159Q681 -140 695 -127Q695 -91 713 -57Q708 -48 707 -28Q706 -14 704 -7Q697 9 679 22Q660 35 649 48Q568 16 528 -6Q444 -51 411 -86Q359 -140 354 -225Q355 -257 362 -294Q388 -351 441 -405Q455 -419 541 -495Q439 -463 332 -393Q300 -372 267 -352Q255 -345 251 -337Q247 -332 242 -315Q237 -298 231 -291Q219 -276 194 -276Q176 -276 162 -285Q154 -291 144 -309Q135 -326 129 -331Q124 -336 116 -340Q104 -347 101 -352Q92 -367 92 -391Q93 -414 98 -437Q104 -460 107 -480V-510Q110 -522 126 -538Q155 -563 184 -588Q198 -601 212 -615Q227 -628 245 -633V-632Q244 -627 237 -620Q229 -614 222 -607Q206 -589 205 -571Q214 -573 225 -586Q232 -594 237 -597Q236 -587 234 -577V-574Q261 -577 303 -589Q335 -598 353 -601Q366 -610 386 -616Q405 -622 424 -630L474 -651Q500 -662 526 -673Q563 -685 618 -706Q632 -711 652 -727Q681 -750 704 -750Q715 -750 722 -748Q730 -743 738 -738Q743 -723 750 -712Q750 -711 752 -711Q756 -711 759 -712H761Q761 -698 766 -693Q767 -692 768 -692Q770 -692 774 -698Q779 -706 782 -706Q783 -705 784 -705Q777 -684 777 -680Q777 -670 784 -663Q786 -664 787 -667Q789 -670 791 -670H794Q789 -659 789 -644Q793 -609 802 -574Q797 -553 778 -514Q751 -510 741 -498Q709 -495 681 -476Q671 -469 633 -436Q599 -408 567 -382Q534 -356 505 -322Q485 -298 477 -287Q460 -263 460 -248V-247Q460 -231 488 -215Q493 -212 531 -195Q572 -175 614 -159Q621 -165 625 -189Q628 -208 633 -214Q634 -209 634 -199ZM628 -232V-239Q628 -245 630 -247H634Q636 -247 636 -242Q636 -238 637 -237Q636 -232 628 -232Z"/>
</svg>