<svg xmlns="http://www.w3.org/2000/svg" viewBox="0 -800 1024 1024">
	<path fill="#000000" d="M854 -166V-162Q829 -139 816 -106Q804 -101 796 -88Q788 -76 780 -66Q753 -39 696 -12Q630 20 575 22Q570 19 564 10Q559 2 554 -1Q550 -4 542 -6Q531 -9 527 -13H530Q539 -14 547 -15H550Q547 -35 529 -40Q511 -46 495 -55Q498 -56 503 -56Q516 -54 529 -53H533Q526 -70 502 -80Q492 -84 461 -93Q469 -97 478 -97Q500 -93 521 -89Q528 -89 532 -90Q503 -107 467 -115Q462 -116 456 -118Q450 -120 449 -125Q459 -127 465 -127Q478 -127 507 -118Q533 -110 548 -110H550Q572 -111 601 -122Q629 -134 655 -145Q715 -171 739 -228Q743 -238 747 -248Q752 -257 756 -267Q756 -269 754 -271Q760 -284 760 -302Q759 -325 757 -349Q740 -389 722 -407Q697 -432 659 -432Q620 -431 588 -416Q555 -402 526 -389Q521 -387 521 -380Q457 -353 385 -279Q368 -262 362 -255Q347 -238 345 -226Q344 -222 344 -213Q344 -197 350 -169Q355 -139 362 -119Q369 -105 376 -91Q375 -77 385 -70Q384 -67 384 -62Q388 -38 392 -15Q392 -9 390 -1Q385 11 376 19Q366 27 359 36Q338 36 295 23Q292 15 280 4Q265 -9 264 -22Q257 -24 249 -27Q255 -38 264 -40Q261 -76 257 -113Q258 -120 258 -127Q229 -100 225 -70Q221 -67 213 -50Q201 -25 191 -21Q184 -18 174 -18Q152 -18 144 -31L142 -33Q139 -30 132 -27V-33Q132 -45 121 -64Q113 -78 113 -87V-88Q113 -94 118 -105Q124 -120 125 -129H128Q133 -129 136 -132Q193 -198 222 -276Q206 -271 189 -253Q178 -241 162 -217Q152 -212 140 -212Q126 -212 115 -219Q103 -226 91 -235Q67 -250 59 -261Q57 -275 57 -284Q57 -310 65 -319Q61 -330 61 -345Q61 -371 76 -389Q85 -396 94 -403Q104 -413 113 -433Q126 -462 139 -466Q122 -437 119 -402Q122 -405 125 -416Q129 -430 134 -433Q135 -431 135 -425V-406Q163 -415 197 -438Q214 -450 252 -480Q253 -490 253 -508Q253 -553 228 -565V-574Q229 -595 235 -611Q241 -627 247 -644Q255 -653 262 -662Q269 -695 311 -725Q340 -746 347 -748Q353 -750 363 -750Q382 -750 412 -730Q433 -688 439 -670Q453 -632 453 -599Q453 -580 449 -565Q422 -558 412 -547Q394 -524 391 -494V-489Q392 -482 403 -472Q415 -460 416 -451Q423 -453 426 -457Q430 -462 433 -466Q475 -490 514 -515Q581 -554 656 -554Q672 -554 680 -553Q739 -549 803 -481Q865 -417 881 -328Q883 -318 883 -296Q883 -252 868 -225V-223Q868 -210 861 -194Q854 -177 854 -166ZM444 -129Q438 -127 435 -127Q423 -127 416 -132Q417 -142 424 -142Q436 -142 444 -129Z"/>
</svg>