<svg xmlns="http://www.w3.org/2000/svg" viewBox="0 -800 1024 1024">
	<path fill="#000000" d="M828 -62H816Q809 -64 798 -75Q784 -89 775 -89Q772 -116 763 -127Q754 -139 722 -146Q694 -152 687 -162Q693 -164 696 -164Q716 -160 735 -156Q729 -174 692 -180Q651 -187 641 -197Q651 -199 658 -199Q682 -196 705 -194Q689 -207 660 -216Q630 -224 604 -233Q589 -235 581 -245Q585 -246 592 -246Q604 -246 630 -239Q656 -232 670 -232Q679 -232 683 -233Q674 -246 647 -275Q609 -315 597 -344Q593 -346 587 -357Q583 -364 578 -368V-375H579Q579 -377 576 -377H574Q572 -377 572 -378Q572 -392 561 -420Q551 -447 551 -461V-463Q552 -468 552 -473V-475Q551 -483 541 -500Q534 -512 532 -521H535Q541 -521 544 -516Q547 -511 549 -507Q556 -499 563 -491V-492Q560 -499 557 -506Q557 -508 558 -509Q572 -507 579 -500Q593 -506 606 -506Q630 -506 649 -489Q657 -478 665 -467Q693 -442 699 -437Q704 -435 708 -434Q711 -431 713 -427Q715 -423 721 -423H723Q724 -421 732 -410Q745 -405 761 -387Q777 -368 788 -366Q794 -355 817 -338Q842 -320 856 -320H858Q862 -321 865 -325Q867 -328 870 -328H871Q870 -325 870 -319Q870 -306 884 -288Q889 -295 889 -296Q897 -277 904 -267Q914 -251 926 -245Q922 -234 922 -221Q926 -188 930 -156Q930 -151 929 -147Q928 -135 921 -124Q915 -114 909 -102Q903 -86 897 -73Q891 -60 877 -53Q874 -52 870 -52Q845 -55 828 -62ZM139 -96Q126 -92 125 -87V-91Q125 -109 113 -121Q108 -126 87 -140Q86 -153 74 -190Q75 -191 77 -191Q81 -189 85 -188Q86 -191 86 -194Q86 -196 83 -202Q91 -210 91 -236Q91 -255 90 -275Q90 -294 95 -303Q98 -294 101 -270Q104 -244 108 -234H110Q114 -234 117 -235Q119 -235 120 -233Q141 -243 155 -263Q169 -283 182 -303Q217 -349 228 -378Q242 -390 243 -404Q252 -410 252 -420Q249 -438 245 -456Q241 -463 231 -475H240Q257 -475 264 -488Q264 -491 261 -492Q259 -492 257 -494Q273 -500 291 -510Q309 -520 327 -521Q338 -521 348 -515H356Q384 -515 424 -498Q426 -482 443 -456Q461 -429 461 -409Q461 -404 459 -394Q448 -386 428 -375Q404 -362 394 -354Q382 -344 370 -328Q345 -296 322 -259Q299 -222 277 -188Q249 -126 246 -86Q234 -77 221 -62Q210 -62 194 -67Q178 -72 170 -72Q163 -72 160 -71Q156 -78 151 -85Q147 -92 139 -96ZM813 -513H810Q798 -514 785 -516H782Q770 -516 756 -511Q742 -506 735 -506H730Q700 -510 680 -543Q660 -575 660 -619Q661 -627 661 -635Q665 -674 694 -702Q723 -730 763 -734Q768 -735 776 -735Q815 -735 846 -710Q877 -685 884 -647Q887 -632 887 -617Q887 -576 868 -548Q848 -518 813 -513ZM766 -623V-618Q766 -601 774 -579Q782 -558 782 -546Q783 -549 791 -559Q801 -572 803 -582Q804 -585 804 -592Q804 -606 797 -618Q790 -630 780 -630Q773 -630 766 -623ZM607 -202V-210Q611 -210 614 -211Q634 -211 634 -196Q618 -196 607 -202Z"/>
</svg>