<svg xmlns="http://www.w3.org/2000/svg" viewBox="0 -800 1024 1024">
	<path fill="#000000" d="M682 -433H674Q643 -433 610 -410Q575 -407 536 -386Q528 -378 516 -375Q514 -375 512 -376Q514 -387 528 -394Q546 -403 549 -406Q527 -400 500 -382Q467 -360 454 -355Q463 -373 495 -395Q518 -411 527 -421Q503 -413 468 -387Q431 -359 408 -352V-353Q408 -358 417 -365Q435 -381 457 -397Q478 -413 488 -437Q471 -450 431 -465Q397 -478 382 -487Q366 -497 340 -526Q317 -552 302 -562Q299 -599 284 -623Q291 -640 291 -659Q288 -694 285 -730Q285 -740 286 -745Q290 -742 293 -728Q296 -711 304 -708Q306 -710 306 -715Q304 -723 301 -731V-733Q314 -726 332 -723Q336 -723 339 -724Q389 -694 422 -680Q475 -658 522 -658H533Q568 -663 605 -668Q615 -668 620 -667Q623 -666 627 -660Q633 -652 640 -652Q644 -653 648 -659Q654 -668 662 -668V-666Q660 -659 657 -652Q659 -645 669 -642Q671 -613 693 -586Q695 -587 697 -590Q699 -593 702 -593H705Q700 -575 700 -567Q700 -564 702 -556Q703 -555 703 -554Q704 -557 707 -560H708Q709 -557 709 -551Q708 -537 707 -523Q707 -514 711 -507Q697 -470 682 -433ZM506 -371H511Q506 -360 494 -356Q493 -358 493 -362Q493 -371 506 -371ZM730 -197H731Q733 -189 739 -185Q745 -181 751 -178Q757 -152 771 -136Q767 -127 767 -116Q768 -103 769 -90Q769 -83 768 -80Q764 -67 760 -55Q760 -51 761 -49Q751 -35 748 -25Q717 -4 676 10Q617 25 589 30Q533 41 492 41H478Q453 41 397 28Q357 23 327 14Q326 14 295 -5Q230 -43 200 -112V-114Q201 -117 201 -121Q194 -131 194 -149Q196 -172 197 -196Q208 -211 237 -231Q265 -250 275 -263Q290 -264 304 -277Q320 -292 328 -295H331Q330 -288 324 -280Q317 -271 316 -266Q317 -265 318 -265Q322 -266 325 -268Q326 -268 328 -266Q326 -258 326 -256Q326 -252 328 -244Q312 -212 312 -200Q312 -196 314 -190Q315 -188 324 -181Q348 -160 364 -158Q398 -157 425 -152Q454 -154 496 -155Q537 -156 573 -164Q576 -165 577 -169Q578 -175 580 -175Q603 -180 625 -185Q634 -193 645 -197Q647 -196 649 -196Q656 -203 659 -217V-219Q658 -228 656 -238Q656 -246 662 -248Q666 -239 669 -226Q671 -214 682 -213Q686 -213 688 -214Q690 -216 690 -222V-233Q690 -238 691 -239Q694 -236 706 -213Q714 -197 730 -197Z"/>
</svg>