<svg xmlns="http://www.w3.org/2000/svg" viewBox="0 -800 1024 1024">
	<path fill="#000000" d="M102 -417H100Q102 -425 104 -434Q107 -443 113 -444Q117 -444 121 -441Q114 -428 106 -416ZM682 -51V-42Q674 -41 666 -41H661Q655 -46 655 -51Q655 -58 667 -58Q678 -58 682 -51ZM583 -284H585Q588 -284 595 -289Q603 -295 609 -295Q612 -294 614 -294Q624 -330 624 -356V-366Q608 -354 591 -343Q574 -332 562 -315Q566 -312 570 -300Q575 -286 583 -284ZM897 35V40Q894 62 881 74Q875 78 863 79Q852 80 848 83Q845 85 842 92Q839 98 835 101Q828 100 826 94Q824 87 821 83Q812 77 800 71Q794 66 784 51Q772 34 764 28Q764 2 749 -5Q749 -8 752 -8Q755 -9 756 -11Q755 -18 750 -23L747 -24Q745 -23 742 -23L740 -24Q732 -32 722 -39Q714 -41 706 -42Q698 -43 693 -48Q698 -51 706 -51Q723 -49 740 -47Q706 -66 659 -71Q612 -76 568 -85V-95Q593 -93 633 -85Q696 -73 725 -73H737Q727 -82 712 -84Q697 -85 682 -86Q628 -93 531 -120Q521 -122 511 -123Q502 -125 499 -134Q548 -126 600 -114Q651 -101 713 -100Q724 -100 750 -102Q752 -108 753 -114Q770 -127 778 -160Q782 -176 786 -221Q798 -372 799 -404Q798 -419 796 -434Q796 -441 799 -447Q792 -453 791 -465Q790 -476 787 -486Q780 -486 775 -477Q772 -472 768 -470V-474Q775 -513 808 -534Q812 -536 820 -536H833Q839 -536 842 -537Q859 -533 868 -517Q874 -506 881 -482H887Q893 -482 909 -480Q907 -469 892 -456Q894 -447 894 -429Q894 -403 880 -350Q866 -297 864 -267Q862 -245 862 -234Q865 -188 867 -142Q868 -114 881 -48Q894 0 897 35ZM395 -4H393Q382 -3 377 4Q372 11 367 18Q364 16 364 9Q364 3 362 1Q331 -6 320 -33Q308 -61 296 -89V-102Q286 -116 275 -116H272L271 -118Q278 -124 284 -131Q287 -137 287 -145Q286 -158 285 -172V-176Q292 -192 299 -209Q304 -224 306 -260Q308 -305 321 -320Q300 -306 276 -276Q265 -262 238 -224Q219 -197 199 -170Q179 -144 166 -114Q148 -109 141 -104Q130 -96 128 -82Q104 -96 83 -96Q76 -96 72 -95Q74 -99 76 -104L75 -107Q69 -120 60 -120V-121Q60 -133 49 -148Q39 -162 39 -172Q39 -177 40 -180Q35 -185 26 -199Q20 -209 14 -215Q20 -274 47 -320Q74 -367 100 -408Q99 -396 88 -376Q74 -348 72 -332Q76 -334 83 -350Q92 -372 102 -372H103Q100 -361 95 -352Q90 -343 90 -329Q241 -475 321 -590Q316 -594 313 -600Q309 -605 302 -608Q335 -625 367 -642Q370 -637 376 -633H378Q400 -633 411 -618Q417 -610 428 -582Q440 -558 451 -534Q466 -494 466 -479Q463 -471 460 -464V-462Q461 -458 461 -454V-453Q460 -449 453 -441Q445 -432 445 -425V-424Q411 -411 388 -388Q364 -364 342 -339L343 -338Q348 -339 353 -340L356 -339Q381 -323 389 -291Q397 -259 405 -227Q411 -221 417 -220Q415 -210 415 -191Q416 -163 417 -135V-129Q416 -117 410 -97Q403 -75 402 -65Q401 -61 401 -52Q402 -43 402 -34Q402 -16 395 -4ZM684 -195H669Q665 -194 663 -187Q661 -180 658 -179Q656 -180 656 -183Q658 -193 660 -203V-205Q648 -215 634 -215Q629 -215 627 -214Q614 -211 606 -187Q596 -156 592 -151Q581 -147 572 -147Q559 -147 538 -159Q520 -167 516 -170Q508 -175 499 -191Q487 -211 476 -214Q472 -231 460 -243Q450 -271 435 -296Q421 -320 417 -355Q425 -361 429 -384Q434 -409 443 -414Q440 -396 440 -393Q440 -387 441 -384H442Q450 -384 450 -395Q450 -398 450 -401Q449 -403 449 -407Q453 -404 457 -394Q461 -383 466 -381Q468 -381 469 -383Q469 -386 471 -386H473Q481 -383 487 -383Q504 -383 542 -408Q574 -429 592 -434Q579 -437 566 -440H565Q561 -445 548 -456Q531 -469 527 -482Q515 -491 495 -504Q476 -518 470 -533Q469 -548 467 -564Q466 -568 466 -574Q467 -596 478 -616Q490 -635 499 -656Q522 -711 541 -716V-713Q541 -709 537 -705Q534 -702 533 -700Q531 -688 529 -677Q529 -673 531 -669Q626 -702 732 -732Q797 -746 858 -764Q871 -769 889 -791H894V-789Q891 -778 888 -768Q888 -764 889 -762Q898 -764 906 -766H910Q910 -763 904 -761Q898 -758 898 -753Q901 -750 907 -750Q922 -753 937 -757Q943 -757 946 -753Q916 -749 916 -734Q916 -726 925 -717H930Q939 -717 947 -713Q946 -708 939 -705Q934 -703 932 -699Q932 -678 947 -675Q937 -660 937 -631Q936 -602 935 -581Q930 -574 928 -565V-561Q919 -568 916 -569Q916 -560 915 -551Q896 -547 802 -537Q783 -532 764 -528Q729 -520 694 -513Q666 -506 652 -485Q635 -484 626 -470Q617 -456 610 -443Q626 -447 666 -474Q694 -460 697 -459Q701 -460 708 -468Q715 -476 723 -477Q716 -468 712 -452Q712 -441 725 -440V-438Q727 -425 732 -416Q743 -422 753 -426Q755 -426 759 -424Q758 -419 750 -415Q741 -410 741 -402L744 -401Q749 -402 753 -403L756 -401Q751 -393 744 -386Q750 -369 755 -365Q753 -357 753 -354Q753 -345 759 -326Q764 -310 764 -302Q764 -289 755 -283H751Q748 -283 734 -290Q709 -278 700 -251Q691 -224 684 -195Z"/>
</svg>