<svg xmlns="http://www.w3.org/2000/svg" viewBox="0 -800 1024 1024">
	<path fill="#000000" d="M45 -382V-378Q41 -382 39 -398Q40 -399 46 -399V-396Q46 -389 45 -382ZM483 -13Q479 -11 475 -11Q465 -12 454 -14H452Q450 -21 447 -28Q449 -29 453 -29Q470 -25 483 -13ZM591 -136Q586 -116 583 -86Q578 -40 573 -24Q569 -24 565 -25Q559 -25 556 -21Q550 -22 535 -31Q532 -29 532 -25Q519 -33 498 -37Q495 -51 491 -65Q487 -78 473 -79H472Q478 -87 488 -88Q489 -138 465 -162Q467 -187 474 -204Q482 -220 491 -238Q511 -240 526 -249Q530 -251 550 -268Q554 -267 554 -263Q554 -259 553 -255Q553 -251 556 -250H557Q560 -250 560 -254Q560 -259 562 -259H564Q575 -240 588 -233Q602 -226 618 -213Q613 -204 611 -194V-192Q601 -191 599 -172Q597 -155 590 -153ZM912 -380Q912 -375 905 -361Q900 -363 900 -372Q900 -385 910 -385H911Q912 -383 912 -380ZM902 -664Q898 -656 876 -650L875 -654Q875 -660 880 -664Q885 -668 891 -668Q899 -668 902 -664ZM772 -291Q796 -277 807 -269Q815 -271 816 -271Q828 -268 840 -266Q848 -269 850 -277Q852 -285 857 -292Q860 -285 862 -275Q863 -266 869 -265Q875 -265 875 -290Q874 -314 872 -338V-353Q872 -383 879 -394Q882 -357 885 -321Q888 -284 899 -256Q904 -258 904 -265Q903 -272 902 -280Q901 -305 901 -352Q910 -325 911 -290Q912 -255 937 -243Q944 -223 957 -218Q956 -216 956 -212Q959 -201 967 -193Q968 -191 968 -186Q967 -177 966 -168Q966 -162 969 -158Q957 -146 957 -134Q957 -130 959 -124Q950 -121 947 -114Q944 -107 941 -99Q927 -97 922 -97Q897 -98 876 -108Q856 -119 838 -130Q815 -134 792 -139Q802 -145 796 -152Q782 -167 743 -184Q740 -163 740 -140Q740 -114 743 -84L755 -14Q759 8 761 29Q764 50 774 65Q761 76 757 96Q754 115 748 132Q746 133 741 133Q731 132 720 131Q712 131 709 136Q704 127 684 120Q671 115 664 110Q651 99 641 87Q635 85 628 84Q621 83 618 76H627Q633 76 634 74Q631 64 619 63Q608 61 598 58Q561 45 558 44Q563 44 567 43Q593 46 621 52Q595 42 533 20Q536 19 544 19Q557 19 583 28Q610 37 622 37H625Q606 30 567 19Q519 6 492 -7Q512 -5 547 4Q587 15 605 15Q628 15 648 5Q652 -6 652 -31V-47Q656 -102 659 -157Q659 -174 658 -182Q659 -201 659 -220Q659 -228 657 -244Q649 -254 631 -259Q622 -271 599 -282Q595 -284 559 -300Q497 -264 452 -203Q453 -203 454 -203Q459 -201 420 -187Q375 -171 380 -165Q373 -170 370 -173Q367 -176 356 -176Q359 -180 359 -185Q358 -193 350 -202Q356 -209 356 -217Q352 -236 337 -256Q337 -249 337 -242L338 -234Q343 -192 343 -165Q343 -156 342 -147L337 -85Q341 -81 341 -70Q341 -59 339 -39Q338 -25 337 -12Q327 -4 317 4Q307 13 304 28Q302 22 300 15Q253 -5 235 -59Q232 -66 228 -74Q227 -76 227 -81Q228 -87 228 -94Q228 -105 220 -110Q237 -134 243 -179Q250 -221 250 -231Q250 -255 238 -276Q230 -262 219 -233Q203 -190 190 -174Q188 -158 174 -130Q162 -105 159 -92Q159 -63 149 -42Q133 -38 121 -38Q104 -38 98 -47Q92 -44 85 -41H84L90 -56Q85 -64 80 -72Q75 -81 63 -82Q61 -93 48 -105Q34 -119 32 -128V-130Q35 -141 37 -153Q36 -162 34 -172V-174Q36 -190 41 -204Q45 -225 45 -257Q44 -301 43 -345Q44 -355 44 -366Q53 -346 55 -293Q57 -251 60 -237Q63 -247 63 -261Q63 -274 62 -288Q62 -302 66 -311Q67 -306 69 -288Q71 -266 76 -258Q78 -259 78 -263V-268L79 -272L82 -273Q86 -271 89 -269H90Q111 -304 158 -398Q163 -409 169 -420Q174 -432 185 -436L205 -489Q205 -511 222 -549Q237 -583 237 -605Q237 -617 235 -624L237 -627Q241 -625 244 -624H245Q254 -630 254 -641L253 -645Q266 -653 280 -662Q293 -672 307 -673Q314 -673 324 -668Q335 -662 345 -634Q354 -608 365 -600Q371 -576 376 -552Q371 -535 360 -524Q349 -512 340 -499Q337 -492 334 -486Q323 -469 311 -452Q286 -403 266 -345Q275 -352 291 -352Q295 -351 298 -351Q301 -352 301 -358Q301 -365 305 -365Q309 -364 309 -359Q310 -355 310 -351Q329 -332 337 -299Q338 -293 338 -281Q338 -269 337 -257H342Q359 -257 359 -279Q359 -275 363 -279Q375 -290 381 -287Q406 -297 426 -302L445 -309Q452 -320 466 -326Q481 -332 493 -340Q482 -350 482 -360Q487 -388 525 -391Q537 -391 549 -385Q591 -402 615 -435H612Q593 -434 577 -429Q562 -424 550 -422L532 -419Q518 -413 504 -402Q489 -392 472 -391Q449 -396 428 -410Q411 -417 396 -422Q381 -427 379 -451Q381 -463 383 -475Q379 -506 375 -527Q375 -534 380 -544Q395 -562 418 -576Q446 -585 475 -590Q470 -587 470 -583Q470 -572 483 -570H488Q499 -570 525 -578Q551 -586 565 -586H569V-592Q569 -603 563 -616Q559 -625 558 -630L552 -644Q543 -645 538 -652Q533 -659 528 -665Q518 -672 508 -680Q513 -690 513 -697Q513 -703 509 -715Q518 -731 557 -745Q572 -752 590 -763Q607 -775 629 -776H635Q648 -775 668 -758Q685 -738 701 -719Q728 -689 728 -674V-673Q728 -663 721 -658Q714 -653 706 -649Q686 -643 683 -625Q683 -617 685 -612Q706 -618 757 -627Q835 -641 862 -652Q861 -647 850 -632Q856 -628 858 -622Q879 -625 899 -629Q893 -623 883 -621Q873 -620 871 -610Q873 -608 877 -608Q883 -609 888 -610Q890 -610 894 -608Q866 -600 862 -572Q865 -566 869 -566Q876 -568 883 -570Q887 -570 888 -569Q870 -564 870 -540Q870 -534 872 -526Q840 -506 795 -500Q749 -494 719 -472Q722 -467 731 -460Q738 -455 740 -451Q738 -441 738 -438Q738 -434 740 -422Q721 -417 721 -397Q680 -385 638 -353Q649 -349 659 -345Q677 -357 690 -361Q710 -358 721 -347Q732 -336 743 -323Q750 -316 759 -308Q767 -301 772 -291Z"/>
</svg>