<svg xmlns="http://www.w3.org/2000/svg" viewBox="0 -800 1024 1024">
	<path fill="#000000" d="M324 34Q306 37 303 37Q297 37 292 34Q292 25 307 25Q323 25 324 34ZM574 -295V-301Q576 -329 578 -358Q549 -352 521 -342Q508 -309 508 -291Q508 -283 509 -279Q541 -282 574 -295ZM660 121H656Q642 125 628 128H624Q611 126 591 111Q567 93 550 91H543Q530 92 517 92Q503 92 492 87Q497 80 515 80H531Q542 80 546 79Q527 62 462 62H423Q415 63 407 63Q396 63 392 56Q410 52 457 52Q508 52 531 46Q518 43 504 43Q474 45 443 47H438Q409 43 380 38H357Q345 38 340 34Q354 31 371 31Q376 31 424 34Q440 36 452 36Q519 36 546 16Q551 9 551 1Q553 -19 553 -34Q553 -56 552 -78Q553 -89 553 -101Q549 -103 539 -103Q517 -100 501 -95L497 -94Q494 -94 490 -95L486 -94Q472 -84 470 -64Q468 -44 462 -26Q451 -10 444 4Q440 2 437 2Q432 2 423 8Q417 4 403 -1Q386 -7 380 -12Q371 -23 362 -34V-35Q363 -38 364 -41Q359 -52 355 -63V-64Q299 -52 249 -39Q198 -27 161 7Q139 -1 114 -9Q89 -17 87 -40Q87 -46 88 -49Q86 -53 70 -79Q59 -97 59 -113Q60 -117 60 -122Q64 -138 77 -153Q90 -168 102 -184Q156 -258 205 -276Q175 -248 162 -216Q169 -218 176 -223Q188 -215 203 -215Q212 -215 235 -221Q254 -226 265 -226H266Q269 -226 270 -229Q271 -233 273 -233Q276 -234 283 -234H291Q296 -234 298 -235Q300 -237 301 -239Q308 -243 332 -244Q347 -245 356 -247Q368 -254 382 -257H384Q393 -273 393 -300Q393 -312 390 -323Q386 -324 379 -324Q350 -319 324 -314Q306 -318 288 -322H272Q263 -324 249 -338Q233 -354 221 -354H217Q223 -358 223 -362Q223 -372 201 -372Q197 -371 193 -371Q194 -377 203 -381Q211 -385 212 -389Q207 -393 197 -393Q181 -391 164 -389H161Q164 -397 172 -399Q180 -402 188 -404Q229 -427 278 -451Q320 -467 344 -474Q366 -480 386 -486Q407 -493 408 -514Q408 -520 407 -527Q407 -537 415 -543Q410 -553 410 -573Q411 -594 412 -615Q420 -612 420 -596V-593Q421 -588 421 -584Q426 -568 430 -553Q434 -557 434 -563Q433 -573 431 -584Q431 -588 433 -592Q440 -588 443 -573Q445 -561 451 -556L454 -555Q460 -556 465 -558H466Q478 -555 486 -546Q494 -537 503 -526Q546 -542 589 -558Q588 -589 586 -619Q584 -649 569 -665Q559 -661 555 -637Q552 -617 547 -612V-638Q547 -654 546 -661Q539 -658 539 -650Q538 -642 536 -635Q530 -639 530 -648Q530 -650 533 -668Q533 -705 518 -719Q518 -721 517 -724Q518 -737 530 -744Q542 -752 553 -762Q560 -771 566 -781Q576 -794 585 -804Q594 -814 612 -815Q617 -814 621 -814Q638 -801 680 -796Q703 -742 729 -691Q726 -677 715 -655Q699 -623 698 -601Q702 -589 719 -589H723Q743 -589 777 -601Q811 -613 829 -613H831Q827 -607 816 -604Q800 -599 796 -589L798 -588Q803 -590 808 -593L811 -592V-591Q811 -588 805 -583Q797 -576 797 -570Q797 -567 798 -565L800 -562Q805 -563 809 -565Q810 -565 814 -563Q812 -558 812 -550Q812 -537 824 -518Q834 -502 836 -494Q846 -497 855 -501Q858 -501 860 -500Q858 -493 850 -490Q840 -486 839 -480Q839 -477 838 -475Q838 -465 848 -455Q839 -447 839 -437Q839 -429 843 -421Q830 -413 793 -407Q762 -402 750 -397Q746 -389 742 -382Q737 -383 736 -387Q735 -391 732 -394L677 -382Q664 -356 664 -325Q664 -318 666 -308Q701 -318 777 -326Q837 -333 860 -337Q867 -344 870 -354Q873 -354 875 -349Q877 -345 881 -345H882Q886 -348 887 -361Q888 -378 895 -380Q895 -373 894 -366Q894 -333 910 -320H926V-319Q926 -316 921 -313Q914 -308 913 -305Q916 -296 927 -296H931Q928 -291 925 -286Q926 -284 930 -284Q935 -284 940 -285Q943 -285 947 -283Q946 -279 937 -278Q929 -277 928 -273V-268Q924 -245 920 -223L921 -220L919 -219L916 -218V-216Q916 -213 920 -209Q922 -207 923 -204Q919 -201 911 -188Q901 -172 892 -167V-164Q892 -159 891 -155Q876 -151 873 -145Q858 -151 835 -151Q802 -149 768 -147H763Q759 -141 745 -141Q728 -139 661 -128Q656 -114 656 -95Q659 -55 669 -13Q671 3 671 23Q670 42 679 56Q678 76 676 94Q673 112 660 121Z"/>
</svg>