<svg xmlns="http://www.w3.org/2000/svg" viewBox="0 -800 1024 1024">
	<path fill="#000000" d="M959 -81V-79Q954 -79 952 -82Q953 -82 960 -95Q965 -103 973 -103H976Q976 -97 968 -93Q959 -88 959 -81ZM77 -397Q79 -415 89 -417Q90 -415 90 -411Q89 -402 87 -393L84 -392Q82 -392 77 -397ZM675 -490H682Q708 -578 711 -600Q678 -588 639 -563Q608 -543 598 -534Q576 -515 576 -494Q576 -477 585 -463Q599 -465 627 -477Q658 -490 675 -490ZM917 28V39Q917 70 910 85Q892 96 874 106Q850 100 832 90Q786 44 731 6Q677 -32 622 -70Q593 -55 572 -19Q561 -1 540 49Q522 51 482 65Q479 55 472 52Q466 49 458 46Q457 37 449 25Q441 13 440 3Q438 -2 431 -7Q421 -15 419 -22H421Q432 -20 440 -13Q439 -26 416 -39Q398 -49 394 -58Q406 -57 423 -45Q438 -34 447 -34Q450 -34 452 -35Q461 -42 466 -54Q470 -59 487 -73Q506 -89 512 -98Q481 -96 460 -83Q439 -71 420 -57Q398 -61 387 -76Q376 -93 361 -106Q359 -114 359 -116Q360 -126 365 -133Q370 -140 373 -148Q375 -153 376 -167Q377 -177 380 -182Q388 -192 404 -198Q420 -204 432 -208L434 -206Q434 -205 430 -201Q425 -197 425 -194V-193Q428 -184 438 -184Q452 -186 465 -188Q564 -199 580 -201Q590 -216 590 -224Q590 -229 589 -232Q569 -227 548 -223Q539 -220 529 -211Q515 -199 508 -199Q502 -199 499 -201Q492 -207 485 -214Q475 -223 465 -229Q455 -236 454 -250Q454 -255 455 -258Q460 -266 465 -274Q463 -278 463 -285Q463 -295 472 -304Q470 -310 455 -317Q470 -316 484 -316Q612 -316 688 -362Q681 -372 671 -379Q632 -379 599 -363Q580 -354 545 -328Q507 -336 479 -367Q480 -374 480 -381Q479 -462 423 -490Q422 -494 422 -502V-516Q385 -486 363 -443Q341 -401 314 -361Q292 -336 283 -305Q286 -304 288 -304Q295 -304 317 -314Q318 -302 336 -283Q355 -262 357 -248Q353 -229 349 -211Q348 -199 348 -172V-140Q348 -107 346 -92Q346 -87 345 -82Q349 -52 352 -22V-17Q351 -10 345 1Q339 12 339 17V20Q303 50 288 66Q284 66 284 64Q285 61 285 58V57Q279 55 272 43Q264 29 252 28Q245 13 233 3Q220 -7 207 -16Q223 -18 238 -20Q227 -36 200 -36Q173 -37 152 -43Q161 -46 183 -46H198Q235 -46 241 -60Q247 -118 247 -154Q247 -190 241 -220Q216 -208 195 -156Q179 -116 164 -103Q140 -103 136 -98Q123 -111 96 -111Q82 -111 77 -107V-110Q77 -138 38 -160Q32 -182 32 -204Q33 -239 43 -273Q54 -307 65 -340L71 -361Q74 -376 80 -377Q81 -374 81 -369Q78 -344 75 -319Q75 -307 77 -302Q82 -306 84 -328Q86 -353 96 -353Q95 -349 95 -342Q95 -328 101 -321Q110 -331 117 -344Q125 -357 139 -364Q173 -431 215 -490Q257 -550 280 -629Q274 -631 271 -631Q262 -631 252 -620Q244 -611 239 -611Q236 -611 234 -612Q248 -634 278 -652Q284 -675 318 -700Q349 -720 372 -720Q385 -720 394 -715Q406 -710 419 -681Q431 -676 437 -672Q447 -666 449 -657V-652Q449 -644 448 -636Q448 -627 453 -622Q463 -631 472 -638H473Q488 -638 502 -654Q514 -668 526 -670Q508 -645 508 -635Q508 -625 521 -616Q587 -648 699 -718Q746 -747 761 -773Q779 -784 809 -784Q824 -784 832 -783Q842 -781 858 -770Q868 -763 874 -761Q878 -754 882 -748Q892 -749 906 -758Q918 -766 927 -767Q924 -760 917 -752Q906 -740 906 -733Q906 -726 910 -721H913Q919 -721 926 -727Q935 -735 940 -735Q939 -728 933 -719Q926 -709 926 -704Q926 -700 927 -698L929 -697Q934 -701 938 -705L940 -704Q938 -696 938 -682Q938 -664 947 -654Q939 -637 934 -615Q914 -612 897 -591L900 -589H903L906 -588Q863 -557 839 -494Q825 -459 817 -427Q806 -388 800 -376Q787 -352 761 -348Q768 -344 776 -328Q783 -330 789 -333Q792 -333 795 -330Q783 -323 783 -308Q783 -301 788 -293Q782 -290 776 -276Q769 -260 759 -258H756Q747 -259 737 -261Q723 -261 687 -248Q688 -244 693 -236Q699 -227 699 -218V-216Q747 -218 832 -238Q894 -253 921 -255Q921 -251 912 -246Q903 -240 903 -235Q907 -228 913 -228Q927 -231 940 -235Q939 -230 933 -227Q926 -223 925 -218Q929 -204 942 -202Q947 -202 949 -204Q946 -196 939 -185Q933 -174 932 -161Q932 -158 934 -152L906 -126Q870 -133 815 -133Q758 -133 726 -124Q773 -85 857 -52Q884 -62 900 -83Q915 -104 934 -121Q928 -106 913 -83Q895 -56 890 -41Q942 -111 973 -141V-138Q970 -122 959 -112Q944 -94 929 -73Q915 -53 908 -26Q914 -28 924 -42Q937 -61 949 -64Q939 -48 930 -33Q921 -18 918 3Q917 11 917 28Z"/>
</svg>