<svg xmlns="http://www.w3.org/2000/svg" viewBox="0 -800 1024 1024">
	<path fill="#000000" d="M914 -710V-715Q914 -736 927 -736Q930 -736 934 -734Q931 -727 926 -722Q920 -716 914 -710ZM500 8Q496 10 492 10Q475 10 471 -5Q473 -7 473 -9Q484 -6 500 8ZM713 -379Q713 -397 716 -403Q710 -405 706 -405Q697 -405 690 -397Q684 -390 684 -381Q684 -374 687 -368Q689 -373 701 -375Q710 -377 713 -379ZM612 -351V-376Q609 -377 605 -377Q590 -373 574 -370V-366Q574 -358 581 -344Q597 -347 612 -351ZM614 -439V-445Q614 -457 608 -460Q590 -455 583 -452Q570 -445 570 -435Q570 -433 572 -425Q590 -428 614 -439ZM744 -474Q750 -505 764 -529Q735 -526 716 -517Q692 -505 692 -486Q692 -479 697 -467Q707 -477 725 -477Q735 -477 744 -474ZM729 -717Q733 -716 737 -715V-707Q737 -686 723 -656Q709 -626 709 -608Q709 -599 710 -595Q746 -613 782 -632Q788 -657 813 -663Q845 -670 868 -683H869Q872 -681 874 -677Q881 -679 890 -688Q900 -697 909 -699Q908 -693 901 -684Q893 -673 892 -664H894Q896 -664 902 -668Q910 -673 916 -673Q917 -671 917 -668Q915 -657 913 -647Q920 -638 947 -615Q970 -596 976 -578Q969 -573 966 -563V-560Q949 -555 931 -536Q926 -530 920 -522Q914 -515 904 -514H900L860 -454Q865 -449 865 -442Q862 -428 850 -411Q842 -396 831 -362Q820 -326 812 -313Q827 -319 847 -329Q853 -350 854 -356Q862 -342 869 -329Q897 -335 924 -342Q922 -336 912 -329Q906 -325 904 -322L907 -321Q912 -321 916 -322H919Q909 -318 909 -305Q909 -297 910 -293Q912 -291 916 -291H921L924 -290Q909 -281 909 -272Q909 -268 910 -265Q910 -262 913 -262L917 -263L921 -262Q917 -258 917 -250Q917 -241 921 -236Q905 -227 899 -209H887Q864 -209 856 -204Q855 -209 853 -214L793 -204Q785 -196 774 -195Q763 -195 753 -193Q693 -180 640 -161Q622 -139 620 -128Q677 -149 685 -152Q733 -168 765 -168Q786 -168 802 -163Q808 -165 815 -172Q822 -179 827 -181Q826 -178 821 -170Q815 -161 815 -155Q815 -153 817 -147L819 -146Q826 -150 830 -154L833 -153Q829 -145 829 -131Q829 -122 830 -119Q835 -121 839 -123L843 -122Q838 -118 838 -111Q840 -102 841 -93V-90Q839 -82 823 -73Q803 -61 802 -50Q790 -54 777 -59L773 -24Q773 -19 759 -5Q747 15 740 39Q733 64 725 89L715 99V102Q713 117 699 125Q684 133 674 144Q654 138 635 133Q615 128 605 114Q592 79 562 60Q529 41 507 13Q525 21 542 31Q560 41 580 45Q548 23 516 2Q484 -19 457 -46Q490 -29 521 -10Q552 9 590 22Q587 16 581 12Q574 9 569 5Q571 4 575 4Q595 7 614 13Q634 -4 654 -31Q658 -36 687 -80Q621 -74 589 -52Q584 -48 577 -40Q569 -32 562 -30H561Q548 -33 535 -36Q532 -36 526 -34Q517 -44 509 -56Q501 -69 500 -85Q501 -89 501 -93Q506 -108 520 -119Q534 -130 543 -141Q521 -141 505 -125L476 -113Q455 -104 430 -104Q411 -104 397 -116Q382 -129 382 -148V-153Q386 -163 389 -174V-177Q389 -183 388 -190V-192Q388 -218 412 -235Q418 -239 455 -257L456 -255Q456 -252 450 -246Q443 -239 442 -236Q447 -227 462 -227Q514 -233 565 -247Q692 -285 744 -296Q742 -300 731 -305Q722 -309 719 -313Q680 -311 644 -304Q599 -295 581 -282Q577 -279 570 -265Q567 -265 525 -262Q484 -283 455 -311Q459 -316 459 -327Q459 -339 448 -367Q405 -392 385 -436Q377 -454 377 -469Q377 -482 382 -497Q366 -470 350 -443Q339 -428 327 -414Q315 -400 313 -385Q303 -375 299 -363Q294 -350 288 -335Q312 -335 321 -341Q324 -328 345 -304Q372 -273 372 -250Q372 -246 371 -242Q370 -237 365 -221Q358 -200 358 -185L350 -140Q357 -134 357 -127Q356 -118 355 -110Q359 -63 362 -17V-7Q362 12 340 41Q321 66 319 82Q315 78 313 68Q292 65 281 53Q269 40 254 31Q253 12 239 -2Q240 -8 241 -14V-17Q234 -30 220 -40Q223 -44 230 -46Q228 -53 217 -62Q205 -71 203 -81Q214 -77 235 -74Q254 -113 254 -190Q254 -223 253 -256Q245 -250 240 -239Q235 -229 230 -220Q213 -192 194 -161Q174 -129 163 -97Q139 -96 124 -91Q120 -89 117 -82Q114 -76 110 -73Q107 -74 105 -80Q102 -87 99 -89Q91 -95 77 -96Q64 -98 52 -101Q42 -122 37 -149Q33 -176 27 -202Q36 -225 46 -281Q54 -324 59 -343Q60 -347 61 -353Q61 -359 67 -361Q68 -358 68 -352Q66 -324 63 -297Q63 -281 67 -272Q74 -274 74 -287Q74 -297 73 -307Q73 -318 79 -322Q81 -305 86 -301Q105 -323 123 -346Q131 -359 139 -371Q146 -384 160 -389L206 -461V-467Q206 -484 227 -516Q248 -548 248 -568V-572Q247 -594 227 -603Q208 -613 187 -622Q193 -627 207 -627Q219 -626 231 -626Q242 -626 246 -628Q245 -633 236 -634Q227 -635 225 -638Q226 -642 230 -642Q234 -643 237 -643Q262 -649 277 -658Q291 -669 299 -679Q307 -690 331 -691H338Q351 -681 361 -669Q371 -657 391 -655Q397 -647 400 -623Q401 -609 409 -585Q417 -561 417 -552V-547Q422 -542 427 -538Q428 -539 428 -548Q426 -564 423 -580V-583Q428 -582 435 -569Q443 -553 451 -551Q455 -552 455 -555Q453 -562 450 -570V-572Q456 -571 463 -564Q468 -558 473 -557Q483 -559 487 -559Q505 -558 517 -548Q529 -538 540 -527Q574 -540 608 -554Q612 -572 612 -581Q612 -615 580 -668Q560 -676 527 -681Q540 -690 553 -722Q567 -758 581 -767Q612 -784 661 -787H670Q706 -783 723 -743Q723 -740 720 -737Z"/>
</svg>