<svg xmlns="http://www.w3.org/2000/svg" viewBox="0 -800 1024 1024">
	<path fill="#000000" d="M554 -222V-224Q443 -207 417 -198Q407 -181 404 -153Q487 -160 542 -167Q554 -212 554 -222ZM607 -563L606 -564H604Q582 -551 549 -533Q517 -516 499 -498Q491 -490 483 -481Q476 -473 475 -461Q492 -441 511 -425L510 -421Q510 -415 515 -403Q498 -390 497 -372Q541 -377 586 -391Q592 -435 599 -477Q606 -518 607 -563ZM885 -205Q885 -194 875 -188Q869 -188 869 -196Q870 -204 871 -212Q877 -211 882 -210H884Q885 -208 885 -205ZM784 -527L761 -497Q755 -490 748 -486Q739 -473 735 -453Q731 -432 727 -413L689 -248Q685 -242 682 -226Q679 -208 674 -201L671 -187Q674 -180 676 -173Q696 -173 719 -172Q742 -171 756 -167L769 -165Q773 -169 780 -169Q787 -168 793 -168Q818 -164 843 -161Q863 -161 875 -176Q874 -173 874 -168Q875 -152 890 -151Q909 -149 922 -149Q919 -143 908 -141Q896 -139 896 -131V-128Q897 -116 912 -116Q926 -116 941 -113Q939 -111 926 -102Q919 -97 919 -89V-87Q920 -79 931 -71Q941 -63 943 -60Q928 -52 928 -25Q928 -8 934 4Q920 14 912 30Q893 34 888 36Q803 3 717 -5H600Q572 -2 543 1Q531 1 520 -2L458 4Q456 10 450 10H440Q384 21 327 31L284 39Q263 51 241 58Q226 68 208 81Q191 95 171 96Q154 96 139 81Q138 80 126 62Q112 47 96 38Q80 29 77 10V8Q79 -3 80 -14Q79 -23 69 -34Q60 -44 59 -50Q58 -54 58 -62Q60 -94 85 -108Q111 -122 136 -134Q142 -138 165 -154Q182 -166 193 -168Q189 -161 172 -146Q157 -133 154 -119Q158 -120 168 -129Q178 -138 185 -141V-139Q185 -133 181 -127Q178 -122 178 -118V-116Q248 -118 280 -132V-135Q279 -153 269 -163Q259 -173 247 -181Q225 -193 222 -221V-223Q222 -234 230 -251Q237 -266 238 -274Q239 -278 239 -285V-292Q239 -308 243 -314Q249 -324 265 -335Q273 -349 287 -354Q288 -351 288 -346L320 -338Q332 -343 351 -347Q379 -353 389 -359V-361Q391 -367 392 -374Q375 -379 345 -407Q337 -414 328 -422Q320 -430 317 -441Q317 -444 316 -447Q317 -454 317 -461Q317 -467 314 -475Q311 -478 297 -483Q283 -488 278 -495Q280 -498 285 -498Q291 -497 296 -497Q293 -505 271 -512Q248 -519 243 -528Q249 -526 254 -526Q263 -526 272 -527Q276 -527 284 -525Q263 -539 234 -543Q205 -547 191 -567Q206 -566 233 -557Q266 -546 283 -546Q303 -546 332 -566Q358 -584 376 -585L407 -608Q406 -611 406 -616Q407 -629 419 -636Q430 -644 444 -654Q449 -658 464 -675Q475 -687 487 -690Q487 -699 492 -703Q496 -708 502 -714Q507 -722 511 -731Q539 -733 567 -736Q575 -742 581 -747Q587 -753 598 -753H605Q624 -750 650 -737Q678 -723 686 -711Q695 -713 713 -731Q728 -746 742 -746V-745Q742 -742 732 -735Q722 -728 717 -722Q708 -709 708 -699Q708 -687 720 -684Q731 -688 742 -692Q738 -678 738 -668Q738 -651 747 -642Q753 -644 755 -644Q756 -644 760 -642Q759 -641 757 -637L770 -585Q775 -584 784 -578Q787 -564 787 -556Q787 -546 784 -527Z"/>
</svg>