<svg xmlns="http://www.w3.org/2000/svg" viewBox="0 -800 1024 1024">
	<path fill="#000000" d="M751 -652Q749 -649 745 -646Q738 -640 736 -636Q733 -639 733 -643Q734 -655 744 -656Q748 -656 751 -652ZM869 -309Q873 -311 877 -311Q882 -311 884 -309Q882 -304 880 -293Q878 -283 872 -279Q871 -294 869 -309ZM902 34V37Q895 40 877 53Q863 63 853 64H851Q812 61 781 48Q772 40 763 32Q753 27 742 21Q733 16 716 -2Q700 -18 690 -23V-25Q689 -28 687 -31V-32Q638 -82 589 -133Q540 -184 489 -231Q480 -228 477 -221Q473 -214 468 -207Q450 -191 434 -175Q416 -145 395 -120Q370 -98 348 -74Q327 -48 305 -23Q284 2 258 21Q247 45 224 66Q195 63 163 37Q156 40 148 42Q148 31 159 24Q155 15 148 6Q142 -4 141 -14Q141 -18 142 -20Q142 -23 137 -27Q133 -30 132 -34Q139 -38 146 -39Q154 -41 159 -48Q152 -72 134 -86Q116 -100 105 -124Q116 -119 133 -105Q149 -91 159 -87Q148 -107 111 -138Q74 -169 62 -193H64Q80 -188 93 -171Q134 -130 168 -118Q178 -122 191 -123L192 -124Q189 -127 185 -131L186 -132Q195 -130 204 -129Q247 -151 292 -188Q313 -206 370 -259Q395 -285 416 -312Q448 -339 480 -372Q509 -406 533 -441Q512 -437 496 -426Q480 -414 462 -405Q458 -397 440 -388Q424 -379 421 -368Q408 -363 389 -348Q376 -338 367 -333Q334 -333 313 -344Q310 -361 298 -361Q279 -356 263 -344Q269 -350 275 -357Q281 -364 281 -376Q273 -377 265 -379Q272 -395 272 -401V-407Q270 -413 253 -413Q238 -427 234 -451Q233 -453 230 -453Q225 -453 221 -451Q236 -472 236 -498Q236 -509 234 -514Q313 -584 394 -705Q391 -709 386 -709Q378 -708 370 -707L366 -708Q381 -722 397 -733Q414 -744 425 -761H426Q433 -761 439 -768Q443 -773 447 -774L451 -775Q454 -774 457 -774H460L462 -776V-778L463 -780Q467 -781 473 -781Q496 -777 514 -768Q515 -759 524 -752Q534 -745 534 -738Q557 -729 565 -705Q573 -680 582 -658Q576 -645 572 -632Q561 -622 549 -617Q533 -598 517 -580Q503 -565 490 -554Q477 -542 469 -523L468 -520Q523 -542 580 -561Q636 -580 678 -617Q679 -616 679 -611Q679 -604 678 -597Q678 -593 680 -589Q690 -593 702 -607Q716 -624 727 -627V-626Q727 -621 717 -611Q702 -595 702 -585H704Q710 -585 718 -592Q727 -600 733 -601Q729 -581 721 -557Q724 -553 729 -553Q732 -553 734 -554Q731 -548 731 -544Q734 -530 739 -517Q735 -502 731 -488Q729 -476 729 -467Q729 -458 721 -453Q716 -449 708 -449Q699 -449 690 -450Q678 -450 672 -442Q672 -439 676 -439H678Q683 -439 683 -435V-434Q655 -431 642 -416Q628 -401 611 -379Q606 -373 590 -359Q570 -341 566 -331Q564 -325 564 -322Q565 -306 580 -294Q594 -283 604 -275Q725 -160 795 -132Q797 -133 798 -139Q799 -147 803 -147H804Q804 -124 813 -121Q827 -139 830 -168Q834 -198 838 -225Q842 -213 842 -184Q842 -151 846 -140Q850 -155 851 -191Q852 -234 858 -249Q861 -198 868 -149Q868 -141 867 -134Q867 -125 872 -121V-137Q871 -177 870 -217Q870 -249 875 -272Q883 -230 883 -180Q884 -129 884 -84Q888 -86 890 -89Q893 -93 895 -93H896Q898 -85 898 -77Q898 -67 896 -57Q908 -37 914 -11Q905 8 902 34Z"/>
</svg>