<svg xmlns="http://www.w3.org/2000/svg" viewBox="0 -800 1024 1024">
	<path fill="#000000" d="M701 -268Q700 -270 700 -276Q701 -284 701 -293Q701 -299 698 -304Q632 -291 586 -264Q586 -258 585 -252Q585 -248 587 -246Q698 -267 701 -268ZM707 -394V-408Q707 -415 705 -417Q644 -404 601 -382V-381Q600 -376 599 -372L601 -369Q653 -384 707 -394ZM705 -519Q702 -532 698 -546H689Q681 -546 680 -552Q685 -560 690 -568Q668 -562 628 -549Q588 -536 584 -523V-522Q584 -517 593 -505Q600 -495 602 -489Q621 -496 651 -507Q680 -517 705 -519ZM70 -426Q69 -417 68 -409V-406H67Q57 -406 57 -422Q57 -434 66 -434H68Q70 -430 70 -426ZM513 17Q506 26 494 26Q488 26 482 23Q487 15 498 15Q501 15 513 17ZM914 -344Q911 -341 913 -338Q918 -318 929 -313Q943 -314 957 -316L960 -315Q956 -311 952 -305Q952 -302 954 -301Q954 -298 960 -297Q964 -297 965 -294Q943 -281 941 -252Q941 -244 944 -238L946 -237Q950 -239 954 -241H955Q953 -236 945 -229Q938 -222 937 -212Q937 -205 942 -199Q932 -192 881 -183Q880 -186 878 -189L837 -184Q832 -177 811 -172Q790 -167 784 -160Q783 -155 782 -139Q781 -119 777 -112L785 -31Q791 -28 792 -19Q793 -10 794 -1Q799 20 801 45Q801 59 798 66Q763 79 753 97Q743 100 735 100Q723 100 703 89Q683 78 669 77Q661 66 653 54Q645 50 625 49Q601 48 595 44Q614 41 632 38Q622 33 582 31Q566 29 554 29Q541 29 523 27Q542 22 584 20Q616 18 639 14Q616 10 584 10Q527 12 469 14Q432 14 408 9Q476 1 549 -5Q622 -10 672 -37Q673 -49 686 -148L628 -134Q539 -99 491 -32H489Q451 -31 415 -63Q380 -96 379 -134V-137Q382 -145 384 -153Q384 -165 383 -177Q383 -187 387 -195Q399 -212 417 -224Q435 -236 454 -252Q450 -242 444 -234Q438 -226 437 -212V-210Q443 -207 450 -207Q458 -207 469 -212Q484 -219 493 -219Q493 -248 500 -301Q508 -362 508 -385V-391Q508 -438 486 -451V-454Q486 -465 494 -480Q499 -489 500 -496Q496 -498 486 -515Q471 -541 461 -552Q448 -568 441 -573Q429 -582 414 -579Q415 -575 416 -571Q353 -470 349 -466Q298 -396 273 -335L319 -364Q320 -363 322 -360Q324 -356 327 -356Q329 -363 333 -368Q370 -315 384 -267Q371 -213 365 -203Q355 -195 349 -159Q344 -128 344 -101Q344 -29 359 -11Q365 -25 367 -57Q369 -93 374 -104Q380 -102 380 -95Q380 -89 379 -84Q384 -41 384 -29Q384 -8 379 6Q349 19 347 20Q330 29 322 43V33Q295 28 281 8Q268 -12 251 -29Q253 -39 253 -42Q253 -63 238 -66Q260 -146 266 -233Q266 -269 254 -296Q226 -262 198 -168Q179 -104 165 -76Q151 -77 133 -87Q113 -98 102 -98H97V-101Q97 -129 72 -154Q59 -165 47 -173Q36 -182 35 -203V-211Q36 -218 43 -245Q52 -278 53 -299Q54 -325 55 -349Q57 -372 65 -392Q66 -384 66 -367V-336Q66 -304 76 -289Q79 -292 79 -298Q77 -311 75 -324Q76 -327 76 -331Q86 -318 88 -299Q127 -336 159 -383Q190 -430 220 -476Q223 -482 227 -489Q231 -495 238 -497L257 -535V-549Q266 -563 274 -598Q284 -638 294 -652Q293 -658 291 -664L293 -665Q299 -663 304 -661Q318 -672 353 -672Q363 -672 373 -670Q390 -685 403 -696Q416 -707 438 -712Q445 -713 452 -706Q458 -700 462 -702Q467 -706 467 -714Q466 -721 467 -726Q473 -725 473 -716Q473 -707 476 -704H477Q479 -704 484 -708Q491 -713 497 -713H500Q496 -706 491 -699Q523 -707 554 -716L613 -726Q618 -735 627 -744Q666 -762 706 -779Q747 -797 797 -801Q797 -797 792 -794Q787 -791 787 -787V-786Q791 -784 795 -784Q801 -784 813 -789Q828 -795 836 -795H839Q832 -789 822 -785Q813 -780 811 -769Q825 -773 839 -778V-777Q839 -766 824 -756Q812 -748 812 -742Q814 -740 815 -738Q822 -742 839 -746Q821 -735 821 -714Q821 -695 834 -681Q848 -666 871 -666Q867 -660 863 -656Q859 -652 859 -646Q859 -641 860 -638Q819 -631 795 -604Q807 -589 822 -577Q814 -574 814 -562Q814 -553 817 -547Q795 -541 790 -520Q784 -498 777 -477L771 -438Q781 -431 783 -418Q784 -406 785 -394Q786 -385 786 -365V-346Q786 -305 790 -288Q864 -298 914 -344Z"/>
</svg>