<svg xmlns="http://www.w3.org/2000/svg" viewBox="0 -800 1024 1024">
	<path fill="#000000" d="M55 -359L52 -334Q44 -342 44 -354Q44 -356 46 -362L49 -363Q51 -363 55 -359ZM573 -343V-338Q573 -324 581 -324Q586 -334 586 -341L585 -345Q577 -345 573 -343ZM537 0Q534 2 525 2Q515 2 509 -1Q510 -10 517 -10Q527 -10 537 0ZM668 -339V-336Q686 -345 688 -361V-364Q681 -360 671 -358V-356Q670 -347 668 -339ZM592 -414Q585 -436 579 -439Q572 -433 564 -429Q555 -424 551 -415Q552 -409 558 -403Q574 -410 592 -414ZM674 -287H672Q645 -284 633 -255Q621 -226 611 -204Q637 -209 659 -221Q652 -231 652 -242Q656 -270 682 -280Q681 -289 674 -287ZM727 -445Q729 -454 737 -469Q747 -489 748 -499Q726 -496 656 -472Q660 -466 665 -459Q670 -453 670 -443Q670 -439 669 -436Q686 -442 703 -448Q711 -443 717 -443Q719 -443 727 -445ZM263 -46V-55Q263 -87 274 -145Q284 -198 284 -224Q284 -247 278 -271Q199 -145 157 5H152Q143 5 134 8Q119 -1 108 -15Q96 -28 84 -40L82 -39Q83 -42 83 -48Q79 -76 62 -109Q43 -149 43 -167V-169Q49 -184 55 -199Q56 -204 56 -213Q52 -255 48 -298Q48 -315 50 -324Q54 -313 57 -284Q60 -251 66 -238Q72 -223 80 -218L81 -221Q78 -236 74 -252Q70 -271 69 -292Q75 -279 78 -263Q80 -244 98 -240Q100 -242 100 -244Q98 -254 95 -264V-267L98 -269Q105 -264 111 -259Q137 -299 166 -334Q178 -354 188 -378Q191 -384 215 -415Q224 -431 235 -458Q248 -491 256 -504Q278 -547 299 -591Q298 -597 292 -605Q287 -613 286 -619Q318 -639 355 -652H358Q364 -652 366 -648H368Q370 -650 371 -652H372Q378 -648 383 -644Q388 -639 388 -630V-628Q400 -620 411 -615Q412 -605 422 -583Q434 -557 434 -542V-537Q432 -526 424 -520Q415 -514 407 -507Q389 -487 373 -457Q357 -426 343 -399Q331 -381 316 -359Q301 -338 300 -313L301 -305Q303 -313 314 -316Q322 -318 339 -318Q348 -309 361 -296Q373 -283 378 -265Q379 -261 379 -251V-220Q383 -162 387 -105Q391 -60 394 -16Q394 9 387 26Q381 42 363 56Q355 63 333 75Q320 67 298 45Q277 23 263 15Q264 13 264 9Q264 0 251 -12Q242 -20 240 -25Q250 -36 263 -46ZM708 126V128Q692 123 663 103Q645 90 631 84Q622 61 593 41Q554 14 546 6Q560 7 583 20Q605 32 617 35Q572 4 521 -25Q505 -33 496 -46Q515 -38 547 -21Q592 3 617 11Q616 4 602 -1Q591 -5 589 -10Q598 -7 606 -7Q637 -7 648 -53Q655 -80 656 -133Q597 -121 521 -89Q510 -83 498 -74Q485 -66 474 -64H473Q460 -64 441 -78Q423 -91 410 -91H407Q398 -107 398 -128Q398 -135 399 -138Q399 -142 406 -146Q414 -151 417 -157Q419 -163 420 -169Q427 -178 437 -182Q446 -186 452 -190L454 -189Q453 -185 451 -181L452 -178Q462 -176 466 -176Q477 -176 497 -181Q494 -195 484 -201Q473 -208 462 -214Q465 -217 468 -217Q471 -217 477 -214Q472 -223 457 -236Q442 -249 437 -258Q482 -240 502 -240Q528 -240 545 -261Q533 -260 520 -259H515Q499 -271 485 -303Q475 -327 468 -336Q449 -357 425 -377Q402 -397 400 -432Q400 -442 401 -448Q447 -506 496 -519Q530 -579 548 -642Q558 -676 558 -689Q558 -703 549 -718Q540 -715 533 -711Q586 -796 650 -801H656Q674 -801 696 -786Q712 -775 723 -772Q757 -718 757 -669Q757 -653 755 -645Q688 -621 635 -552Q656 -556 749 -579Q769 -582 788 -586Q794 -588 817 -606Q837 -621 852 -622Q859 -622 876 -614Q891 -607 899 -607H900Q912 -613 924 -618Q928 -618 930 -616L931 -614Q931 -612 927 -610Q920 -607 920 -603V-601L919 -599Q923 -600 926 -601Q925 -591 924 -582Q924 -577 926 -571L927 -568Q930 -569 932 -570L935 -569Q932 -558 932 -548Q932 -522 952 -519Q944 -513 937 -507Q930 -500 930 -487Q907 -473 885 -461Q864 -448 847 -428Q833 -409 825 -382Q816 -356 807 -331Q799 -312 758 -243L756 -242Q752 -242 748 -243H746Q746 -242 749 -224Q787 -233 823 -239Q859 -244 890 -258Q893 -258 894 -254Q895 -250 897 -250Q910 -255 923 -261Q917 -252 915 -240L917 -237Q921 -239 924 -241L926 -240L927 -237Q925 -233 922 -229L923 -226Q932 -208 952 -202Q950 -196 939 -192Q945 -188 950 -184V-183Q931 -170 903 -132Q873 -149 815 -149Q766 -149 730 -138Q726 -119 726 -97Q726 -70 734 -23Q742 24 742 44Q742 78 727 104Q721 108 715 112Q708 117 708 126Z"/>
</svg>