<svg xmlns="http://www.w3.org/2000/svg" viewBox="0 -800 1024 1024">
	<path fill="#000000" d="M202 -525L200 -522Q196 -530 204 -548Q210 -560 218 -556Q218 -553 216 -549Q209 -537 202 -525ZM334 -490Q334 -492 336 -496Q347 -510 362 -520Q379 -534 396 -549L476 -618Q484 -634 499 -651Q515 -669 519 -678L522 -683Q525 -690 525 -701Q524 -715 529 -724Q533 -730 537 -734Q536 -741 526 -746Q521 -749 511 -751Q540 -757 567 -761Q581 -765 594 -770Q605 -771 618 -770Q630 -769 641 -775L647 -772Q672 -756 687 -739Q688 -730 685 -715Q682 -699 683 -691Q694 -646 704 -601L700 -594Q686 -567 666 -554Q646 -541 628 -528Q599 -514 547 -468Q496 -423 471 -400Q457 -387 443 -375Q314 -265 288 -232Q250 -199 182 -122L179 -124Q170 -128 166 -123Q158 -127 126 -172Q104 -204 100 -206Q88 -210 84 -210L85 -213Q92 -230 88 -246Q84 -263 80 -279L83 -285Q91 -298 98 -311L99 -315Q101 -322 102 -330V-332Q119 -359 137 -380Q141 -384 145 -392Q161 -437 176 -482Q184 -498 195 -509Q192 -492 177 -449Q159 -399 159 -375Q161 -376 167 -385Q176 -408 184 -432L187 -439Q193 -432 186 -412Q178 -391 185 -385Q189 -387 194 -394L195 -398Q207 -399 215 -407Q224 -416 235 -424Q241 -428 248 -430Q255 -433 260 -442L262 -446Q271 -449 279 -458Q287 -466 299 -461H300ZM962 -197H957Q959 -211 971 -211Q976 -211 979 -209Q978 -197 962 -197ZM972 -101Q956 -97 953 -97Q946 -97 945 -103Q949 -110 961 -110Q972 -110 972 -101ZM616 -55Q497 -31 402 13Q375 25 357 38Q339 51 315 67Q295 63 276 58Q257 53 245 39Q239 11 239 10Q234 -4 221 -6Q225 -12 228 -19Q218 -37 218 -54Q218 -73 231 -85L224 -119H227Q233 -118 239 -117Q246 -122 246 -126Q246 -129 243 -132L258 -129Q352 -198 446 -285Q500 -335 624 -460V-464Q625 -473 626 -483Q653 -491 660 -491Q670 -491 675 -489Q691 -481 706 -479Q708 -479 712 -481Q711 -478 711 -473Q711 -464 718 -455Q731 -459 744 -464Q727 -456 727 -431Q730 -400 732 -369V-367Q732 -337 707 -318Q691 -306 653 -291Q596 -267 550 -222Q504 -177 463 -141L462 -137Q465 -139 472 -139Q481 -139 483 -144H486Q490 -142 493 -141H494Q539 -154 590 -158Q642 -162 696 -166Q700 -189 704 -213Q714 -215 720 -222Q737 -221 748 -213Q759 -205 770 -196Q784 -201 797 -207L798 -205Q794 -196 790 -188L791 -184Q801 -184 815 -196Q829 -208 837 -210V-209Q837 -205 827 -196Q811 -181 812 -172Q813 -163 820 -158Q828 -153 837 -149Q864 -159 888 -171Q913 -184 942 -191Q941 -182 934 -180Q927 -178 920 -176Q865 -156 846 -127Q850 -123 856 -123Q859 -123 869 -128Q881 -134 889 -134Q894 -134 897 -133Q890 -126 880 -120Q871 -115 867 -104Q873 -95 883 -95Q905 -99 926 -104Q930 -103 933 -103Q929 -96 903 -90Q880 -85 880 -74V-72Q881 -62 901 -62Q913 -62 924 -63Q943 -63 948 -55Q933 -54 914 -52Q891 -51 889 -36Q889 -30 893 -23Q899 -19 906 -17Q894 -10 888 8Q887 12 880 44Q879 44 867 38Q855 43 837 43Q799 43 778 20Q774 7 766 -2L763 -4Q758 -2 753 -1H751Q757 -7 757 -15Q756 -28 744 -39Q732 -51 724 -61H716Q689 -59 662 -57Q652 -57 646 -58Z"/>
</svg>