<svg xmlns="http://www.w3.org/2000/svg" viewBox="0 -800 1024 1024">
	<path fill="#000000" d="M774 -250V-249Q776 -250 783 -250Q796 -250 798 -258Q795 -261 787 -261Q774 -261 774 -250ZM773 -364Q777 -350 782 -339Q777 -310 774 -273Q789 -276 804 -293Q810 -300 828 -325Q840 -342 869 -394V-396Q837 -392 818 -387Q791 -379 773 -364ZM770 -20Q772 -4 774 11Q771 21 770 47Q770 67 767 78Q764 93 757 102Q749 111 743 120Q723 116 712 89Q701 62 692 38Q693 34 693 30Q693 13 678 -17Q687 -21 696 -29Q698 -66 698 -152Q698 -214 699 -244Q701 -267 702 -291Q702 -311 696 -319Q692 -319 686 -313Q680 -308 676 -308H675Q672 -309 670 -317Q668 -324 667 -325Q653 -339 652 -343Q647 -352 647 -364Q649 -381 650 -399V-403Q649 -414 648 -426V-430Q651 -449 659 -463Q667 -472 674 -482Q677 -495 682 -500H684Q684 -494 682 -482Q683 -474 689 -468H690Q703 -472 716 -476Q719 -476 723 -474L768 -494Q773 -494 773 -490L799 -499Q812 -514 860 -518Q893 -521 904 -526Q910 -536 914 -548Q919 -561 927 -568V-566Q922 -541 917 -517Q917 -508 922 -506L925 -505Q928 -505 932 -511Q936 -518 939 -518L941 -517V-514Q941 -510 937 -504Q932 -497 932 -492L933 -488Q934 -479 940 -479Q951 -482 962 -485Q962 -483 957 -476Q950 -467 950 -459Q950 -453 952 -450H953Q958 -452 962 -454H963Q962 -450 962 -444Q962 -431 968 -423Q973 -415 978 -406Q976 -357 974 -308Q973 -288 967 -273Q961 -259 956 -245Q947 -245 933 -252Q927 -247 920 -243L903 -223Q897 -204 882 -185Q868 -167 857 -151Q855 -145 852 -136Q849 -126 845 -124H844Q840 -124 837 -135Q835 -144 832 -145L816 -142Q817 -148 821 -151Q825 -153 828 -157Q819 -178 816 -183Q808 -196 798 -199V-200Q799 -203 800 -206V-209Q798 -215 791 -217Q785 -219 783 -221Q784 -226 790 -226H798Q797 -241 774 -241Q770 -150 768 -55ZM267 12Q250 26 232 38Q215 51 209 72L170 66Q163 56 156 46Q127 45 108 27Q107 19 105 11Q105 -10 114 -13Q113 -20 111 -28Q111 -55 127 -71Q143 -86 159 -100Q164 -82 176 -78Q202 -84 228 -91Q240 -101 255 -104Q271 -112 276 -111Q295 -122 328 -130Q337 -138 361 -146Q381 -153 388 -157Q394 -140 395 -122Q392 -120 395 -116Q400 -112 400 -107Q400 -103 405 -101Q410 -99 410 -95L407 -94Q404 -94 404 -91Q408 -83 411 -76Q390 -62 345 -40Q301 -18 279 -4ZM250 -204Q248 -202 242 -201Q237 -200 236 -196Q236 -181 242 -169Q244 -175 249 -173Q252 -177 252 -189Q252 -198 250 -204ZM314 -233H311Q301 -233 294 -224Q288 -216 288 -202Q289 -198 289 -194Q300 -198 305 -209Q310 -221 314 -233ZM208 -244V-243Q208 -229 222 -229Q240 -229 253 -244Q247 -267 241 -273Q230 -267 220 -261Q209 -255 208 -244ZM333 -279H338Q344 -299 348 -321Q345 -324 341 -327Q329 -320 314 -318Q297 -316 294 -300Q295 -299 301 -299Q306 -299 307 -297Q309 -294 309 -289Q307 -280 305 -271Q305 -267 306 -265Q313 -268 318 -273Q323 -278 333 -279ZM449 -317Q451 -297 451 -292Q422 -274 411 -263Q393 -246 386 -219Q374 -192 369 -166V-159Q362 -153 353 -153Q342 -153 332 -161Q307 -154 281 -142Q256 -129 228 -117Q210 -106 194 -102H193Q177 -103 170 -120Q162 -137 156 -155L149 -162Q138 -174 122 -174Q107 -174 89 -175Q80 -176 65 -198Q52 -217 44 -220Q46 -227 46 -241V-257Q46 -270 48 -276Q50 -283 62 -293Q77 -306 79 -316Q80 -319 80 -322Q80 -329 79 -337Q79 -346 85 -352V-348Q85 -337 97 -330Q103 -327 121 -321Q143 -315 157 -315H161Q175 -317 197 -332Q215 -345 223 -345L218 -361Q257 -424 286 -459Q267 -458 255 -450Q243 -442 232 -435Q221 -439 218 -441Q183 -411 159 -351Q151 -349 148 -349Q133 -350 124 -361Q116 -372 109 -382Q110 -384 110 -389Q110 -396 104 -408H102Q96 -405 89 -403H86V-404Q86 -408 89 -410Q92 -412 92 -414V-415Q88 -419 83 -419Q72 -415 59 -409Q66 -419 73 -430Q69 -434 64 -434Q59 -434 48 -424Q39 -416 33 -415Q50 -445 94 -480Q96 -484 97 -489Q101 -491 111 -502Q124 -517 134 -517Q138 -517 141 -516L165 -549Q165 -553 178 -571Q183 -578 206 -602Q232 -630 242 -645Q247 -653 250 -661Q253 -669 264 -670H266Q285 -667 300 -658Q310 -631 327 -589Q330 -579 333 -568Q336 -557 345 -550Q351 -553 355 -553Q370 -549 385 -545Q390 -545 393 -546Q393 -543 392 -541Q392 -523 402 -520Q402 -516 401 -513Q401 -505 407 -491Q420 -504 433 -517Q477 -563 505 -582L552 -632V-634Q552 -645 574 -669Q596 -692 596 -704V-706Q596 -724 579 -724Q584 -742 594 -752Q604 -762 612 -775Q665 -757 718 -752Q719 -726 736 -697Q750 -673 753 -657Q730 -566 702 -525H700Q699 -525 693 -528Q641 -509 597 -472Q557 -436 539 -408Q547 -403 555 -399Q555 -383 560 -373Q575 -380 588 -387Q613 -401 628 -406Q624 -398 621 -389V-388L623 -386Q626 -386 628 -387Q630 -387 632 -385Q631 -381 631 -375Q634 -354 637 -334Q626 -327 626 -303Q626 -292 629 -283Q627 -277 624 -271L625 -268Q595 -260 595 -227V-218Q631 -239 677 -252Q682 -254 687 -256Q692 -256 693 -250Q684 -243 674 -239Q663 -236 658 -223H660Q669 -225 678 -227Q681 -226 683 -226Q668 -214 666 -212Q656 -202 656 -189Q656 -180 658 -175H660Q665 -176 670 -178L671 -176Q668 -171 665 -166Q668 -158 671 -151Q667 -145 665 -123Q582 -79 555 -57Q548 -50 546 -50L515 -31Q514 -24 506 -15Q500 -8 497 0Q494 21 484 35Q478 42 472 42Q467 42 450 29Q439 21 429 14Q420 7 414 -8Q412 -16 412 -18Q412 -25 418 -42Q422 -53 422 -61V-95Q422 -108 424 -114Q431 -128 437 -143Q439 -153 439 -164Q439 -174 447 -176L448 -173Q448 -167 447 -162Q447 -159 449 -157Q453 -167 455 -183Q456 -200 465 -204Q464 -200 464 -190Q464 -170 471 -164Q483 -169 503 -183Q502 -195 500 -208L498 -230Q491 -234 486 -254Q482 -269 479 -273Q468 -279 462 -292Q455 -304 449 -317ZM442 -354Q446 -370 446 -378Q446 -390 436 -393Q437 -396 437 -401Q437 -402 432 -422Q418 -418 409 -410Q409 -421 424 -430Q421 -437 418 -444Q414 -444 407 -437Q401 -431 396 -431H395Q396 -433 396 -436Q384 -432 377 -430Q365 -420 350 -396Q364 -404 382 -404Q402 -404 418 -396Q438 -387 439 -361Q441 -357 442 -354Z"/>
</svg>