<svg xmlns="http://www.w3.org/2000/svg" viewBox="0 -800 1024 1024">
	<path fill="#000000" d="M47 -438V-425Q36 -425 36 -439Q36 -446 40 -450Q47 -450 47 -438ZM901 -264H903Q904 -262 904 -257Q901 -246 898 -235Q891 -236 891 -250Q891 -264 901 -264ZM654 -565H653Q654 -562 655 -560L653 -558Q631 -548 607 -537Q584 -527 576 -501Q572 -481 572 -470Q572 -453 577 -436Q647 -450 670 -451Q682 -499 699 -542Q699 -546 695 -549Q690 -553 690 -557Q710 -570 713 -596Q691 -583 654 -565ZM879 63H863Q849 55 832 38Q792 8 720 -25Q708 -30 598 -77Q570 -89 549 -89Q522 -89 497 -94Q472 -54 470 -11Q464 -4 459 3Q456 2 452 2Q445 2 438 7Q431 12 428 12H425Q408 11 396 -4Q385 -19 373 -30Q374 -35 374 -40Q374 -63 362 -75Q362 -80 371 -80Q362 -93 351 -93Q346 -80 345 -45Q344 -8 334 6Q328 14 311 24Q297 32 290 41Q270 38 248 14Q228 -8 211 -12Q213 -22 213 -25Q213 -51 190 -51H186Q235 -111 237 -216Q237 -260 226 -293V-296Q226 -300 228 -304Q215 -294 207 -276Q174 -223 154 -174Q149 -158 145 -143Q140 -129 124 -122Q108 -131 96 -131Q82 -131 75 -121Q77 -124 77 -132Q77 -146 58 -161Q37 -178 35 -189Q33 -201 33 -207Q34 -220 34 -233Q34 -252 29 -267Q43 -284 43 -340V-389Q43 -395 42 -401Q42 -409 47 -410Q49 -388 50 -360Q52 -333 62 -315Q66 -322 66 -334Q66 -349 65 -365V-372Q73 -354 80 -336Q107 -363 134 -390Q150 -413 166 -436Q196 -465 222 -504Q232 -520 241 -536Q257 -557 257 -569Q257 -579 250 -589Q260 -592 274 -604Q296 -622 309 -623Q314 -623 319 -624Q339 -624 349 -615Q354 -604 359 -594Q369 -579 382 -564Q394 -549 395 -527Q395 -523 394 -519Q390 -493 370 -476Q350 -459 330 -442Q312 -421 293 -400Q275 -379 262 -353Q250 -350 249 -339Q275 -344 275 -351V-353Q297 -349 308 -335Q318 -321 331 -303Q349 -279 351 -270V-267Q349 -247 346 -228Q346 -216 345 -204Q347 -156 348 -108H353Q379 -108 397 -122Q409 -131 426 -156Q461 -207 465 -215Q487 -254 487 -286V-290H488Q492 -290 495 -286Q498 -282 500 -282H502Q507 -285 508 -288L509 -287Q549 -267 550 -237V-235Q550 -225 543 -204Q538 -187 537 -177Q539 -177 574 -165Q575 -191 575 -218Q575 -240 574 -251Q573 -275 572 -297Q571 -319 564 -333Q559 -332 550 -324Q543 -317 538 -315Q524 -318 500 -332Q484 -341 473 -345Q476 -352 478 -359Q458 -430 453 -442Q435 -486 407 -505Q405 -527 405 -542Q405 -581 422 -593Q421 -599 415 -613Q408 -629 408 -640Q408 -644 410 -652Q413 -649 421 -634Q427 -622 437 -620Q434 -630 431 -641V-643H432Q437 -643 442 -636Q447 -629 453 -629Q457 -630 457 -633Q454 -639 451 -645Q458 -642 474 -642H486Q508 -642 518 -633Q524 -623 530 -614H532Q547 -617 559 -627Q578 -639 644 -666Q672 -679 700 -693Q732 -705 755 -721Q768 -733 783 -751Q798 -769 822 -771H827Q836 -769 843 -762Q849 -755 856 -750Q869 -751 888 -760Q902 -767 912 -769Q909 -765 899 -757Q886 -747 884 -738Q887 -735 888 -735Q896 -739 903 -743H904L907 -741Q905 -737 903 -733V-731Q905 -700 919 -690Q926 -696 934 -699L938 -698Q934 -686 930 -675Q944 -637 944 -604Q944 -593 943 -588Q898 -574 886 -558Q889 -555 895 -555Q795 -481 773 -336H770Q758 -336 753 -321Q744 -318 738 -318Q728 -318 711 -328Q696 -337 685 -337Q682 -336 679 -336Q672 -345 672 -355V-357H671Q667 -357 667 -352Q667 -345 669 -341Q661 -328 661 -303Q661 -287 662 -279H668Q684 -279 712 -290Q741 -301 761 -303Q780 -314 805 -323Q803 -316 801 -310Q826 -313 847 -320Q842 -314 834 -308Q826 -302 825 -293Q825 -288 827 -285Q834 -287 840 -289L844 -288Q835 -283 831 -273Q827 -263 823 -254Q824 -244 833 -241Q810 -227 805 -192Q796 -193 777 -193Q713 -193 673 -177Q647 -167 645 -144Q675 -137 742 -113Q812 -88 859 -78Q869 -100 876 -138Q880 -120 881 -97Q887 -109 887 -137V-175Q887 -211 898 -222Q900 -206 900 -172V-127Q900 -88 903 -71Q906 -84 907 -118Q908 -167 918 -183Q920 -173 920 -151Q920 -131 919 -112Q919 -87 924 -69Q929 -47 950 -42Q954 -25 959 -8Q964 9 965 25Q965 38 959 51Q948 53 932 64Q918 74 909 76Q895 68 879 63Z"/>
</svg>