<svg xmlns="http://www.w3.org/2000/svg" viewBox="0 -800 1024 1024">
	<path fill="#000000" d="M949 -721Q946 -715 943 -710Q940 -704 933 -703Q932 -705 932 -709Q932 -723 942 -723Q943 -723 949 -721ZM404 -127H402Q388 -130 386 -149L387 -153Q396 -152 398 -144Q401 -135 404 -127ZM604 -173V-171Q614 -169 631 -155Q646 -143 655 -141Q632 -172 610 -183Q604 -175 604 -173ZM516 -349H519Q530 -335 530 -311Q527 -270 515 -252Q511 -248 503 -240Q495 -232 493 -226Q471 -221 460 -211Q455 -217 446 -217Q435 -217 423 -205L426 -216Q422 -227 414 -236Q406 -245 401 -269V-274Q401 -302 413 -321Q431 -355 457 -362L461 -361H480Q489 -369 494 -374Q499 -380 512 -384L519 -387Q505 -376 505 -360Q505 -349 516 -349ZM687 -433V-430Q696 -424 698 -393Q699 -364 708 -355Q698 -346 694 -321Q667 -302 646 -265Q635 -245 614 -193Q649 -172 663 -172Q676 -172 685 -184Q688 -188 706 -232Q731 -301 753 -381Q774 -461 791 -525Q723 -507 659 -466Q665 -460 675 -442H679Q686 -443 693 -444Q690 -438 687 -433ZM361 -19V-12Q354 15 340 38Q326 55 308 66Q306 73 304 80Q298 67 286 60Q274 52 264 42Q257 31 252 19Q246 7 232 2Q235 -4 235 -9Q234 -19 228 -27Q221 -34 215 -39Q221 -43 229 -43Q221 -58 212 -74Q208 -78 202 -81Q197 -85 196 -91L199 -92Q205 -92 217 -83Q227 -75 231 -74Q256 -122 256 -191Q256 -232 246 -262Q202 -213 193 -135Q188 -129 179 -129Q168 -130 157 -131Q145 -131 143 -118Q136 -131 114 -132Q103 -132 98 -127Q78 -131 69 -164Q59 -202 50 -210Q56 -228 56 -248Q53 -290 49 -333Q49 -348 52 -360Q58 -338 60 -312Q63 -285 77 -276Q80 -280 80 -285Q76 -300 71 -316V-336Q75 -333 78 -319Q81 -304 89 -301Q125 -352 145 -390Q164 -419 184 -453Q192 -471 200 -489Q207 -502 213 -514Q219 -525 232 -531Q234 -548 241 -553V-558Q241 -567 251 -580Q260 -592 261 -601Q266 -607 275 -609Q279 -635 279 -644Q279 -668 267 -687Q255 -690 243 -690Q275 -701 317 -741L321 -743Q333 -747 345 -747Q358 -747 382 -739Q404 -732 420 -730Q429 -718 433 -700Q437 -683 443 -664Q455 -633 456 -624V-606Q459 -597 459 -589Q459 -579 452 -571Q446 -562 424 -547Q407 -535 398 -525Q380 -505 357 -469Q312 -410 284 -348Q291 -348 303 -342Q317 -335 328 -335Q332 -335 336 -336Q358 -302 367 -272Q357 -240 357 -171V-153Q357 -110 355 -90V-80Q358 -49 361 -19ZM820 -66V-58Q821 -49 822 -40Q821 -32 812 -13Q800 13 800 27Q800 33 801 36Q776 51 761 51Q756 51 754 50Q746 48 738 38Q732 30 727 29Q716 32 711 39V36Q711 25 717 15Q708 -7 688 -24Q675 -28 662 -36Q657 -41 653 -54Q647 -72 638 -78Q641 -84 641 -90Q641 -100 628 -114Q614 -129 613 -138Q630 -126 647 -115Q640 -131 628 -142Q615 -152 603 -163Q570 -95 551 -28Q537 -16 524 19Q515 43 508 53Q498 68 485 68Q469 68 452 47Q440 32 431 12Q416 -18 416 -19V-21Q419 -29 422 -37Q422 -42 415 -56Q407 -72 407 -81Q409 -81 411 -77Q413 -73 416 -73L419 -74Q420 -76 420 -80Q420 -87 411 -102Q404 -113 404 -118Q406 -119 409 -119Q416 -118 421 -113Q426 -108 431 -105Q444 -111 467 -145Q484 -166 500 -187Q512 -206 546 -279Q569 -341 592 -397Q590 -405 588 -414Q588 -418 591 -421Q580 -419 569 -406Q558 -393 546 -393H542Q528 -395 521 -405Q513 -415 505 -424Q492 -431 478 -445Q470 -456 470 -472Q474 -498 478 -525Q476 -544 474 -564Q474 -572 477 -580Q489 -592 500 -604Q504 -603 507 -603Q517 -603 530 -613Q541 -621 552 -622V-620Q551 -613 549 -606V-604H557Q575 -604 612 -618Q636 -627 650 -630Q658 -635 665 -640H672L674 -639Q699 -655 746 -669Q756 -688 783 -688Q815 -685 846 -678Q852 -680 862 -690L864 -687Q863 -683 862 -679V-678Q867 -673 873 -673Q878 -673 889 -683Q897 -691 903 -691V-689Q903 -686 898 -679Q893 -672 893 -667Q901 -668 914 -681Q924 -692 929 -694Q929 -690 921 -678Q912 -665 912 -656Q912 -649 917 -643H919Q921 -643 925 -647Q930 -652 935 -652H938Q932 -643 932 -632Q932 -608 950 -595Q950 -576 964 -552Q962 -546 962 -535Q963 -521 963 -507Q963 -496 961 -490Q949 -488 940 -478Q936 -473 927 -459V-458Q927 -455 931 -456Q934 -456 935 -454Q914 -419 894 -358Q886 -333 860 -246Q846 -202 834 -157Q821 -112 820 -66Z"/>
</svg>