<svg xmlns="http://www.w3.org/2000/svg" viewBox="0 -800 1024 1024">
	<path fill="#000000" d="M921 -685V-683L918 -684Q914 -684 910 -679Q906 -674 903 -674V-679Q903 -698 917 -698Q918 -698 924 -696V-694Q923 -689 921 -685ZM517 19V17Q520 16 524 16Q526 16 547 22Q544 30 531 30Q517 30 517 19ZM52 -431H53Q55 -423 55 -418Q55 -403 47 -398Q45 -409 42 -420Q42 -431 52 -431ZM725 -218V-231H718Q689 -227 668 -215Q653 -209 643 -203Q632 -196 632 -179Q650 -185 725 -218ZM723 -288H725Q731 -300 731 -314Q731 -322 728 -328Q711 -322 683 -306Q652 -288 647 -278Q643 -270 643 -264Q643 -259 644 -257Q661 -267 681 -277Q701 -287 723 -288ZM502 -404Q486 -406 477 -417Q468 -427 456 -434Q383 -389 327 -309Q331 -310 337 -310Q360 -309 375 -295Q389 -280 400 -265Q457 -329 502 -404ZM797 119H795Q768 118 751 105Q735 92 718 80Q692 69 659 58Q662 55 666 55Q677 57 688 59Q692 59 693 58Q692 52 680 51L676 52Q621 37 556 31Q559 22 568 22Q570 22 585 25Q633 36 685 39H690Q680 31 651 27Q618 23 610 13H620Q644 15 668 17Q681 17 690 13Q707 -15 711 -55Q715 -96 721 -134Q695 -133 670 -123Q665 -121 627 -102Q626 -98 626 -91Q630 -70 633 -50Q622 -32 614 -11H610Q596 -8 582 -5H580Q576 -6 569 -11Q561 -17 556 -17Q553 -17 549 -15Q548 -20 546 -26Q541 -27 527 -27H508Q510 -31 518 -32Q524 -33 527 -35Q524 -43 513 -43Q499 -41 484 -40Q478 -40 475 -41Q480 -45 492 -48Q505 -52 511 -58Q522 -69 526 -100Q528 -115 529 -155V-162Q529 -191 509 -237Q497 -229 481 -198Q466 -170 450 -161Q430 -165 417 -188V-186Q417 -171 411 -137Q404 -97 404 -79Q404 -48 419 -30Q413 -25 413 -22Q413 -18 417 -14Q393 23 349 29Q345 29 337 27Q331 28 327 35Q324 41 320 42Q315 30 297 9Q282 -9 276 -20Q269 -33 263 -46Q257 -59 244 -67Q292 -120 295 -215Q295 -236 290 -263Q258 -249 236 -223Q214 -197 189 -170Q165 -145 153 -128Q136 -104 130 -77H80Q71 -93 66 -112Q60 -132 43 -140Q45 -144 45 -152Q41 -171 36 -191Q36 -200 41 -208Q37 -224 37 -245Q37 -279 49 -335Q46 -365 46 -368Q46 -381 50 -389Q55 -344 62 -300Q66 -305 66 -317V-343Q70 -332 73 -321Q76 -309 84 -302Q150 -362 216 -425Q237 -445 272 -487Q314 -538 337 -558Q332 -565 330 -573Q354 -581 379 -584Q399 -589 403 -589Q406 -589 414 -587Q426 -583 434 -571Q442 -559 451 -548Q465 -565 487 -572H488L490 -570V-564Q502 -562 509 -562Q524 -562 555 -569Q582 -575 595 -576Q604 -587 613 -621Q620 -644 622 -665Q622 -676 616 -682Q586 -679 577 -654Q574 -658 574 -663Q574 -672 586 -696Q598 -726 612 -752Q627 -778 662 -785H669Q690 -782 711 -779Q715 -778 719 -778H726Q747 -778 755 -771Q762 -764 769 -739Q774 -719 779 -711Q783 -705 789 -699Q794 -693 795 -683V-680Q795 -665 774 -645Q759 -631 755 -621Q845 -647 895 -673V-671Q893 -666 891 -661V-659Q901 -650 917 -650Q944 -653 971 -656Q954 -648 946 -643Q930 -633 930 -622Q930 -619 934 -611Q943 -603 961 -602Q956 -597 949 -594Q942 -590 941 -581Q942 -578 942 -575Q942 -572 947 -572H956Q933 -564 931 -526Q906 -519 847 -507Q781 -494 744 -481Q720 -473 688 -461Q670 -456 653 -451Q636 -447 625 -438Q608 -420 598 -394Q609 -389 622 -386Q704 -423 731 -443Q743 -452 753 -464Q764 -476 779 -478Q784 -479 793 -479Q826 -479 863 -446Q880 -451 897 -457Q875 -441 872 -423Q876 -418 880 -418Q889 -421 895 -426Q887 -413 887 -390Q887 -375 890 -360Q863 -351 848 -320Q839 -301 829 -257V-254Q831 -249 832 -245Q818 -186 818 -114Q818 -60 827 -14Q833 9 839 31V32Q839 50 817 80Q798 105 797 119Z"/>
</svg>