<svg xmlns="http://www.w3.org/2000/svg" viewBox="0 -800 1024 1024">
	<path fill="#000000" d="M715 -57Q714 -44 697 -42Q696 -45 694 -48Q695 -58 708 -59Q711 -59 715 -57ZM893 -319H895V-312Q895 -303 890 -286Q880 -286 880 -298Q883 -308 885 -318L888 -317Q891 -318 893 -319ZM560 -376V-368Q558 -369 555 -369Q542 -366 535 -358Q554 -354 582 -333Q589 -350 610 -379Q628 -404 635 -418Q632 -418 629 -419Q623 -419 615 -412Q605 -403 603 -402Q591 -400 578 -388Q567 -378 560 -376ZM572 74Q554 72 548 57Q543 37 528 26Q521 2 515 -26Q534 -28 534 -40Q552 -44 565 -44Q578 -44 583 -40Q587 -41 594 -41Q617 -41 623 -32Q633 -37 635 -37H637Q637 -32 636 -27Q636 -21 641 -19Q652 -24 662 -31Q671 -37 685 -40Q685 -37 676 -29Q664 -19 664 -11Q664 -1 680 8Q683 7 688 3Q693 -1 698 -1H700Q691 8 691 20Q691 33 700 43Q721 43 729 46Q714 50 705 61Q697 71 690 83Q680 108 648 114Q628 110 608 107Q585 105 582 84ZM795 -422L746 -393V-391Q746 -387 738 -381Q676 -319 655 -284Q677 -267 704 -253Q721 -235 758 -218Q770 -210 784 -199Q798 -187 813 -186Q816 -186 819 -187Q829 -190 834 -213Q838 -236 846 -241Q848 -235 848 -220V-211Q848 -192 854 -184Q862 -210 863 -272Q864 -322 867 -340H871Q875 -333 875 -324Q873 -307 871 -290Q877 -273 877 -270V-260Q876 -235 875 -211Q875 -191 881 -175Q883 -210 885 -246Q885 -266 884 -276Q892 -263 894 -220Q897 -172 910 -157L911 -159V-165L913 -167H914Q916 -153 930 -127Q944 -101 946 -85Q947 -81 947 -77Q947 -72 946 -67Q946 -57 953 -52Q948 -19 933 8Q905 21 881 21Q875 21 871 20Q862 13 852 6Q851 5 846 5H840Q832 1 800 -34Q767 -67 763 -75L732 -111Q721 -111 711 -119Q702 -126 697 -127Q687 -145 656 -168Q631 -186 622 -198Q608 -199 599 -208Q579 -202 570 -172Q584 -176 603 -179Q607 -178 611 -178Q623 -171 635 -167L639 -168Q645 -160 650 -149Q655 -139 665 -134Q669 -123 669 -111Q669 -79 640 -55H632Q609 -55 575 -74Q564 -72 552 -70Q546 -70 544 -71Q545 -77 551 -80Q552 -80 564 -83Q563 -94 554 -108Q544 -124 543 -134Q508 -97 478 -35Q465 -25 461 -10Q458 -12 454 -12Q447 -11 440 -10H436Q406 -17 402 -67Q391 -71 391 -94V-105Q390 -110 379 -110H375L374 -80Q380 -77 381 -69Q382 -61 382 -54Q384 -39 385 -24Q388 -16 390 -9Q390 5 379 32Q368 61 357 69Q351 73 331 79L329 82V87Q325 87 325 79Q297 72 283 52Q269 31 252 13V9Q249 -5 245 -19V-24Q246 -37 247 -50Q247 -62 237 -66Q275 -95 275 -191Q275 -210 273 -242Q232 -183 208 -139Q174 -77 160 -19Q152 -15 144 -15Q126 -19 107 -23Q101 -23 97 -19V-22Q98 -27 98 -32V-35Q83 -53 68 -71Q52 -89 40 -111V-116Q43 -153 49 -186Q50 -192 55 -193Q59 -194 63 -195Q66 -218 67 -271Q69 -332 73 -360Q77 -340 79 -302Q81 -256 85 -240Q87 -247 87 -265V-271Q87 -291 91 -302Q96 -298 96 -283Q96 -275 97 -272Q97 -270 104 -246Q173 -321 208 -381Q215 -393 222 -405Q228 -418 233 -429Q238 -440 252 -443L273 -488Q276 -507 295 -543Q317 -585 317 -610Q317 -624 313 -636L316 -638Q321 -637 325 -636H326Q364 -674 393 -674Q406 -674 419 -665Q429 -657 431 -645Q434 -632 439 -620Q450 -605 460 -594Q463 -570 466 -546Q466 -530 457 -518Q450 -509 434 -496Q418 -483 412 -476Q387 -442 365 -405Q328 -352 319 -335Q353 -324 354 -323Q363 -307 376 -290Q389 -273 390 -252V-250Q388 -235 385 -220Q385 -213 387 -209Q380 -204 380 -182V-174Q380 -161 378 -156H377L375 -113Q430 -135 461 -173Q492 -211 525 -255Q511 -275 495 -295Q497 -341 517 -352Q458 -377 458 -436V-442Q459 -461 471 -482Q482 -503 491 -522Q493 -530 495 -536Q497 -544 507 -544L515 -577V-583Q515 -596 525 -625Q534 -651 534 -663V-670H530Q518 -669 510 -662Q502 -655 495 -652Q499 -663 512 -678Q527 -695 530 -706Q529 -709 525 -711Q521 -713 521 -715Q524 -724 540 -733Q553 -740 557 -745Q565 -760 576 -771Q589 -784 600 -784Q611 -780 622 -776Q635 -774 647 -773Q663 -766 676 -728Q688 -693 701 -684Q702 -679 702 -671Q700 -635 680 -615Q660 -595 645 -571Q633 -567 623 -554Q620 -550 610 -531V-529Q697 -562 746 -609Q750 -609 754 -610Q769 -610 787 -594Q793 -598 801 -600H803V-598Q803 -594 802 -591V-589Q814 -592 830 -606Q839 -614 847 -618Q846 -612 835 -601Q820 -586 820 -573V-571Q827 -573 833 -581Q840 -591 847 -592Q843 -583 838 -576Q833 -569 833 -556V-550Q833 -543 840 -530Q846 -519 847 -512Q848 -511 848 -507Q846 -494 844 -481Q848 -470 851 -459Q848 -446 839 -436Q829 -427 820 -418Q807 -422 796 -422Z"/>
</svg>