<svg xmlns="http://www.w3.org/2000/svg" viewBox="0 -800 1024 1024">
	<path fill="#000000" d="M71 -411Q62 -412 62 -426Q62 -438 71 -441Q75 -437 75 -431Q73 -421 71 -411ZM896 -306Q895 -309 895 -315Q895 -333 908 -333Q911 -328 911 -325Q909 -310 896 -306ZM882 -356Q873 -360 873 -378Q873 -397 884 -397Q888 -393 888 -385Q888 -383 882 -356ZM924 27V30Q922 30 919 29Q907 33 894 36Q879 32 862 24Q832 16 788 16Q739 16 709 26Q699 29 684 39Q663 53 649 55Q636 50 622 45Q618 40 583 -8V-17Q582 -42 581 -68Q581 -92 588 -106Q593 -114 601 -120Q608 -127 613 -135Q618 -152 622 -169Q627 -178 632 -187Q641 -213 651 -271Q659 -316 664 -336Q640 -328 614 -310Q595 -296 586 -268Q577 -241 567 -212Q560 -193 551 -166Q547 -146 542 -127Q531 -105 519 -80Q507 -56 503 -37V-21Q500 6 489 26Q478 45 469 64Q457 67 450 72Q415 62 404 26Q392 -13 378 -51Q378 -54 384 -54Q390 -54 391 -57Q388 -64 380 -66Q372 -67 363 -69V-59Q363 -33 369 -22Q356 29 349 43Q332 75 298 75Q288 75 283 74Q273 59 263 45Q252 31 249 9Q239 -3 226 -12V-15Q228 -26 234 -33Q231 -37 230 -47Q229 -58 224 -61Q234 -81 244 -102Q250 -147 253 -206Q253 -215 252 -225Q240 -221 240 -212Q240 -209 241 -207Q210 -197 179 -147Q144 -94 135 -63Q129 -65 118 -72Q104 -81 98 -81Q92 -81 86 -75Q89 -81 89 -86Q89 -93 79 -103Q72 -110 71 -115V-118Q73 -125 74 -133Q74 -143 69 -153Q61 -166 49 -175Q37 -184 36 -205V-212Q37 -221 44 -237Q52 -255 52 -265Q51 -280 49 -296V-300Q55 -322 61 -345Q62 -350 62 -360V-367Q62 -386 69 -397Q71 -383 71 -351V-287Q78 -290 78 -306Q78 -312 77 -319Q77 -334 84 -338Q86 -334 86 -319Q86 -296 92 -291Q123 -307 154 -335Q170 -350 206 -390Q263 -454 298 -510Q292 -534 287 -545Q290 -545 298 -543Q300 -544 313 -560Q339 -568 364 -571Q379 -569 389 -561Q399 -553 410 -548Q411 -546 419 -513Q435 -471 440 -431Q440 -403 416 -387Q410 -384 403 -381Q383 -368 369 -348Q354 -329 339 -313Q326 -305 318 -295Q331 -277 340 -250Q349 -223 358 -198Q349 -190 349 -172Q349 -166 355 -133Q356 -127 356 -114V-109Q356 -88 361 -80Q379 -81 396 -83Q435 -119 472 -206Q486 -239 486 -252Q486 -270 467 -275Q466 -288 449 -307Q430 -327 429 -341Q429 -345 428 -349Q428 -365 435 -391Q441 -401 446 -411V-433Q450 -452 459 -469Q462 -479 464 -489Q467 -498 477 -499V-497Q476 -490 475 -484Q475 -481 477 -479Q500 -486 527 -496Q554 -506 563 -528Q567 -542 568 -568Q569 -600 572 -612Q560 -629 549 -647Q538 -666 523 -680Q523 -682 532 -684Q530 -689 522 -695Q514 -701 514 -705V-706Q541 -710 564 -729Q587 -749 608 -761Q612 -763 615 -763Q630 -759 641 -753Q661 -752 672 -735Q686 -716 700 -697Q711 -685 715 -677V-676Q712 -665 708 -654V-651Q710 -641 711 -632V-630Q710 -623 700 -610Q689 -596 689 -584Q690 -580 690 -577Q694 -578 704 -578Q723 -578 733 -571Q743 -575 761 -589Q780 -604 794 -608Q793 -604 781 -593Q765 -578 765 -572Q765 -566 770 -564L772 -563Q774 -563 778 -567Q784 -574 790 -574H791Q785 -558 785 -552Q785 -545 789 -540L790 -539Q793 -541 796 -543L797 -542Q793 -534 793 -524Q793 -505 807 -499Q800 -492 800 -476Q800 -471 803 -447Q796 -439 789 -432Q786 -418 779 -409Q772 -400 764 -391Q726 -259 688 -127Q711 -124 735 -124Q764 -124 822 -130Q825 -133 829 -140Q834 -151 840 -153Q841 -152 841 -146V-137Q855 -145 855 -197Q855 -228 854 -259Q854 -266 853 -273Q853 -286 862 -287Q867 -191 869 -172Q874 -199 875 -254Q876 -315 881 -339Q884 -324 884 -289V-250Q884 -208 890 -186Q893 -198 893 -213Q892 -238 891 -264V-279Q891 -292 897 -297Q901 -261 902 -222Q903 -183 914 -156L915 -159V-165Q915 -169 918 -169H920Q925 -149 929 -143Q936 -131 949 -129Q954 -114 960 -100Q967 -86 968 -69V-68Q968 -49 946 -22Q924 5 924 27Z"/>
</svg>