<svg xmlns="http://www.w3.org/2000/svg" viewBox="0 -800 1024 1024">
	<path fill="#000000" d="M646 -172Q550 -145 547 -143Q569 -120 603 -105Q619 -118 632 -141Q643 -160 646 -172ZM866 -91Q863 -85 861 -79Q859 -73 853 -70Q848 -72 848 -78Q848 -83 852 -88Q855 -92 861 -92Q864 -92 866 -91ZM801 -391Q799 -387 799 -385Q801 -383 805 -383Q814 -385 822 -388H823L824 -387Q821 -386 814 -379Q813 -377 813 -373Q813 -369 819 -369Q825 -372 831 -375L832 -374Q824 -358 824 -348Q824 -336 835 -329Q832 -324 829 -321Q826 -319 826 -311V-307Q809 -306 796 -299Q790 -296 776 -285Q766 -287 762 -287Q742 -285 722 -283H718L675 -269Q635 -252 597 -242Q586 -237 573 -221Q563 -210 557 -205Q644 -223 714 -254H739Q752 -254 757 -252Q763 -256 771 -258H773Q772 -253 770 -248L771 -246Q780 -249 793 -260Q804 -269 813 -273Q813 -266 802 -257Q789 -246 789 -239H791Q794 -239 797 -243Q800 -247 805 -247H807Q799 -237 799 -224Q798 -209 823 -209Q817 -200 818 -183Q774 -170 738 -150Q706 -130 676 -76Q735 -24 799 -8Q806 -11 806 -27Q806 -41 812 -42Q817 -21 821 2Q828 -15 829 -36Q829 -56 830 -78Q830 -97 837 -104Q841 -89 841 -69Q840 -41 839 -13Q839 2 840 9Q846 2 846 -16Q846 -28 845 -41Q845 -51 846 -53Q846 -63 850 -63H852Q856 -62 856 -60Q855 -56 853 -53Q856 -30 859 -8Q859 7 864 18Q871 29 881 41Q890 53 892 65Q882 127 827 127H817Q809 126 800 122Q787 116 779 116H778Q770 105 748 90Q722 72 715 60L698 44Q686 42 674 32Q658 18 652 16V15Q651 12 649 9Q638 6 627 -7Q610 7 591 43Q577 71 568 81Q566 89 566 90V93Q550 97 543 97Q493 97 477 21V20Q479 18 484 16Q483 7 475 -9Q465 -30 465 -40Q475 -37 482 -23Q489 -10 500 -8Q533 -32 555 -60Q544 -74 527 -83Q509 -93 494 -104Q482 -98 476 -88Q470 -78 464 -66Q453 -47 439 -25Q425 -4 416 19Q411 31 408 44Q405 57 397 64Q383 74 365 74Q341 72 317 60Q306 53 299 41V39Q302 34 305 29V26Q303 18 288 10Q273 3 265 -4Q265 -7 283 -9Q296 -10 296 -11Q295 -20 276 -33Q263 -42 260 -47H265Q285 -43 305 -40H308Q321 -40 347 -68Q376 -100 395 -106L403 -116V-119Q407 -136 435 -172Q464 -209 476 -226Q465 -223 433 -206Q385 -180 377 -185Q376 -185 357 -202Q344 -210 333 -215Q322 -219 321 -234Q322 -237 322 -241Q332 -256 341 -272Q348 -285 354 -298Q389 -359 389 -379Q389 -391 380 -401Q409 -430 446 -423Q457 -421 466 -410Q472 -410 476 -413Q480 -416 484 -416H486Q479 -410 479 -403Q484 -385 488 -368V-367Q475 -366 461 -346Q450 -330 446 -314Q530 -339 543 -342Q558 -382 560 -394Q547 -408 532 -419L533 -423Q533 -427 529 -428Q525 -429 524 -433Q525 -445 539 -450Q553 -456 567 -467Q578 -477 589 -483Q604 -491 622 -491H623Q662 -491 667 -469L677 -461Q704 -452 718 -429Q710 -422 706 -402Q694 -394 682 -389Q670 -385 661 -374Q665 -375 775 -403L785 -416Q784 -423 774 -428Q756 -425 723 -415Q726 -424 746 -431Q760 -436 765 -441Q765 -448 758 -454Q753 -459 752 -461H738Q754 -464 754 -482Q754 -491 753 -501Q764 -498 780 -498Q816 -498 826 -505V-503Q826 -500 829 -497Q837 -499 840 -503Q843 -507 847 -510L849 -508Q848 -504 846 -501L847 -499Q851 -490 863 -490Q868 -490 874 -494Q896 -476 912 -456Q918 -458 924 -458Q928 -458 930 -457L910 -419Q913 -419 919 -416V-415Q918 -404 911 -399Q903 -394 894 -389H886Q873 -389 857 -394Q841 -399 831 -399Q830 -399 801 -391ZM796 -402Q802 -410 797 -410Q786 -410 777 -404Q780 -405 788 -407Q787 -403 786 -400V-398Q792 -400 796 -402ZM452 -664Q452 -673 451 -678V-674Q452 -669 452 -664ZM451 -628Q451 -633 451 -639Q449 -642 446 -645Q444 -670 437 -680Q435 -683 415 -700Q427 -791 527 -791H530Q542 -783 553 -776Q563 -769 567 -757Q576 -747 586 -739Q595 -731 598 -716V-713Q598 -700 587 -692Q577 -685 576 -677Q564 -663 561 -644Q565 -640 571 -640Q585 -642 598 -645Q624 -647 646 -653Q652 -653 653 -650Q678 -658 740 -665Q756 -667 768 -675Q780 -684 792 -689Q789 -683 789 -680Q789 -677 791 -675H794Q805 -675 826 -682Q842 -687 855 -689Q852 -684 839 -677Q821 -668 820 -654L823 -653Q835 -657 847 -662H849Q844 -655 836 -649Q829 -643 828 -634Q829 -631 829 -629Q840 -633 850 -638Q843 -625 838 -612Q838 -606 846 -603Q841 -599 838 -599Q834 -599 834 -590Q834 -580 838 -573Q831 -549 816 -532Q797 -517 768 -517Q740 -518 711 -514Q696 -511 695 -511Q690 -511 687 -515L608 -503Q552 -489 492 -475Q433 -462 381 -444Q381 -426 369 -411Q354 -392 352 -384Q348 -373 297 -265Q252 -169 246 -144Q233 -129 225 -102L206 -55L197 -26Q181 -10 164 31Q149 68 139 80V82Q139 87 138 91V93Q135 92 131 92Q120 96 108 99Q81 99 58 64Q40 37 39 28Q38 24 38 16Q40 -9 42 -35V-39H43L45 -36Q45 -32 47 -32H48Q58 -47 58 -74Q55 -118 51 -162V-171Q65 -118 78 -65Q94 -73 115 -100Q138 -130 153 -137L172 -173Q175 -201 212 -238Q244 -305 280 -420Q263 -418 240 -404Q222 -393 210 -393Q207 -393 203 -394Q171 -401 157 -427Q153 -439 148 -451Q139 -458 130 -466Q117 -482 117 -503Q118 -523 127 -534Q136 -545 147 -558Q147 -562 146 -566Q147 -585 163 -589Q181 -593 201 -603Q217 -613 227 -621Q238 -629 254 -630Q253 -626 247 -620Q237 -609 236 -601Q248 -597 264 -597Q299 -601 334 -605H340Q355 -616 375 -616Q396 -615 419 -618Q430 -622 440 -627Q443 -628 449 -628Z"/>
</svg>