<svg xmlns="http://www.w3.org/2000/svg" viewBox="0 -800 1024 1024">
	<path fill="#000000" d="M221 -154V-149Q222 -141 237 -134Q271 -153 305 -173Q307 -210 309 -247Q309 -258 308 -264Q280 -252 280 -229V-224Q276 -225 272 -227H269Q258 -222 253 -212Q248 -202 241 -189Q224 -170 221 -154ZM120 -86H118Q109 -86 104 -92Q99 -98 94 -103Q85 -108 76 -114Q69 -120 60 -128Q51 -135 38 -137Q28 -149 23 -154Q24 -157 24 -163Q21 -182 17 -202Q23 -236 39 -272Q53 -312 77 -325Q72 -312 64 -298Q56 -284 55 -267Q55 -259 59 -252Q63 -265 67 -278Q71 -290 82 -296Q79 -284 79 -270Q79 -258 82 -252Q85 -254 86 -263Q88 -276 94 -277Q94 -246 107 -236Q117 -241 130 -256Q145 -273 155 -277Q170 -292 184 -308Q216 -336 234 -341L262 -356Q265 -366 277 -382Q289 -399 293 -410Q325 -420 355 -427Q367 -426 378 -425Q389 -427 405 -439Q418 -449 425 -451L426 -448Q426 -444 415 -435Q402 -425 402 -419Q402 -414 407 -410Q412 -410 418 -416Q423 -421 429 -421Q422 -396 422 -393Q422 -386 426 -381H429Q433 -381 434 -384L435 -382Q434 -378 432 -375V-372Q432 -368 440 -357Q448 -346 450 -338V-334Q450 -324 449 -315Q449 -308 450 -305Q452 -295 454 -285V-283Q452 -276 444 -272Q436 -268 431 -264Q394 -158 384 -46Q379 -44 374 -44Q368 -43 368 -37V-35Q362 -41 362 -45V-47Q359 -46 356 -41Q352 -35 349 -34Q345 -38 345 -44Q345 -49 347 -57Q344 -64 336 -64Q331 -64 325 -61Q317 -74 305 -79Q300 -78 293 -72Q284 -65 277 -65Q267 -50 261 -31Q256 -7 230 -4H228Q216 -4 183 -17Q169 -24 154 -32Q148 -30 141 -28H137ZM715 -123Q659 -114 609 -97Q600 -90 591 -87H590Q584 -89 578 -91L576 -90Q575 -88 575 -83Q576 -72 577 -62V-60Q600 -67 655 -73Q696 -77 718 -82Q742 -92 766 -97H767Q777 -92 787 -88H788Q787 -105 785 -123Q783 -124 776 -124H761Q751 -124 746 -127ZM645 -206Q645 -217 639 -225Q611 -225 592 -244V-246Q592 -251 587 -255Q583 -258 583 -261V-266Q583 -284 599 -294Q607 -299 632 -306Q631 -317 624 -323Q616 -328 609 -334Q596 -349 586 -364Q584 -365 582 -366Q570 -284 570 -239Q570 -211 573 -183Q579 -183 591 -193Q599 -200 604 -202V-199Q604 -193 603 -187V-184H617Q636 -184 642 -187Q645 -205 645 -206ZM727 -198Q724 -204 705 -237Q701 -214 696 -192Q712 -195 727 -198ZM792 -207Q792 -212 791 -218V-264L790 -265H789Q778 -259 778 -249Q782 -235 786 -221V-219Q785 -212 784 -206Q784 -203 786 -201H787Q792 -201 792 -207ZM793 -392Q793 -410 792 -419Q780 -395 755 -386Q727 -377 711 -357Q713 -345 714 -333Q722 -335 731 -341Q744 -350 751 -351Q747 -344 745 -334V-331Q753 -336 757 -336Q761 -336 764 -333Q760 -328 760 -321Q760 -313 768 -297Q758 -281 748 -265Q754 -262 757 -262Q763 -262 774 -271Q784 -279 791 -280V-303Q792 -347 793 -392ZM798 -540Q790 -554 783 -556Q739 -526 689 -487Q667 -470 644 -453Q628 -441 615 -429Q601 -418 597 -400Q612 -401 625 -409Q637 -418 650 -426Q698 -454 712 -476Q724 -477 740 -487Q752 -495 760 -497Q754 -492 754 -484Q754 -480 755 -479H756Q760 -479 765 -488Q771 -499 778 -499H780Q774 -475 774 -473V-469L776 -468Q780 -470 783 -472L785 -471Q783 -463 783 -459Q783 -443 794 -435V-445Q796 -492 798 -540ZM907 -190Q914 -151 918 -107Q922 -64 934 -30Q930 3 930 40Q929 78 904 89H900Q882 93 864 96Q859 96 856 95Q836 84 822 66Q808 48 795 29Q785 27 777 18Q762 21 756 21Q748 21 746 18L724 15Q723 24 715 24Q710 24 704 23H702Q663 28 623 32H610Q568 32 562 71Q555 72 543 72Q530 72 523 71Q497 53 484 39Q466 19 462 -7Q462 -11 458 -14Q453 -18 453 -21Q455 -27 455 -30Q455 -44 435 -54Q446 -72 447 -102Q448 -131 453 -162Q458 -184 458 -186Q458 -191 455 -199Q458 -203 459 -218Q460 -234 465 -237L462 -287Q458 -290 456 -297V-299Q459 -304 461 -309Q457 -352 462 -389Q462 -394 461 -400L453 -467Q457 -511 466 -526Q474 -542 494 -547Q499 -545 499 -535Q503 -537 510 -537Q516 -537 524 -532Q529 -529 534 -529Q542 -529 547 -538Q556 -540 570 -552Q586 -565 595 -565Q598 -564 600 -564L638 -589Q654 -609 675 -625Q695 -642 717 -658Q724 -664 742 -673Q762 -683 770 -691Q776 -701 782 -712Q809 -745 862 -749Q867 -748 872 -748Q881 -744 892 -741Q895 -741 898 -742Q897 -740 897 -737Q897 -728 905 -728Q919 -728 925 -738Q928 -736 928 -735Q925 -729 922 -723Q928 -725 939 -736Q948 -744 956 -748Q943 -735 943 -716Q943 -704 951 -699Q952 -699 955 -704Q958 -709 961 -709L964 -708Q967 -692 970 -675Q974 -659 985 -651Q979 -639 979 -622Q979 -612 982 -603Q962 -600 954 -582V-580L956 -579H961Q930 -528 923 -453Q915 -378 910 -301Z"/>
</svg>