<svg xmlns="http://www.w3.org/2000/svg" viewBox="0 -800 1024 1024">
	<path fill="#000000" d="M85 -301H88Q87 -284 70 -282L69 -286Q70 -299 85 -301ZM922 -330L929 -358Q935 -359 940 -361Q943 -361 944 -357Q933 -343 922 -330ZM541 -28Q555 -61 569 -94Q461 -77 418 -55Q420 -31 436 -6Q486 -29 521 -29Q534 -29 541 -28ZM583 -179Q555 -189 529 -205Q502 -222 477 -238Q452 -215 427 -192Q402 -169 381 -142Q384 -141 387 -141Q406 -145 425 -153Q441 -157 583 -179ZM766 -336H760Q741 -336 731 -320Q722 -306 722 -284Q722 -275 723 -270Q718 -271 714 -281Q710 -290 705 -292Q688 -292 686 -271Q682 -275 680 -285Q666 -289 651 -294Q645 -291 642 -286Q639 -287 639 -290Q640 -293 640 -297V-299Q591 -313 566 -342V-346Q538 -377 533 -414Q533 -415 539 -424Q538 -429 533 -436Q527 -445 526 -451Q537 -445 547 -439Q570 -450 599 -452H605Q625 -452 649 -446Q676 -439 687 -429Q692 -425 700 -412Q711 -395 722 -391Q729 -396 739 -398Q742 -398 744 -397Q729 -390 729 -370Q729 -360 735 -351Q739 -347 751 -343Q762 -339 766 -336ZM922 -515V-512Q908 -505 899 -496Q893 -497 881 -497Q831 -496 799 -474Q767 -452 735 -427Q716 -440 698 -440Q690 -440 682 -437Q678 -438 671 -446Q662 -456 656 -456Q651 -456 649 -454Q646 -461 642 -469Q639 -469 636 -470Q624 -467 616 -460Q623 -487 645 -518Q536 -503 440 -468Q411 -453 381 -440Q369 -436 356 -433Q345 -424 335 -408Q337 -402 343 -401Q349 -399 354 -397Q366 -369 380 -345Q389 -352 404 -355H406Q397 -345 397 -327Q399 -305 401 -284Q401 -276 400 -273Q382 -261 363 -250Q342 -254 318 -258H315Q312 -264 309 -270Q299 -269 290 -259Q282 -250 276 -248Q281 -261 291 -279Q284 -291 276 -301Q268 -312 265 -327Q255 -324 245 -318Q228 -309 220 -307Q217 -305 216 -296Q215 -287 211 -285V-287Q210 -304 199 -310Q188 -317 177 -322Q169 -316 160 -311Q160 -312 163 -328Q155 -342 139 -342H137Q121 -339 110 -327Q99 -315 88 -308V-309Q88 -313 103 -331Q113 -343 122 -355Q119 -374 106 -374Q93 -374 82 -360L81 -362Q81 -365 86 -371Q94 -381 94 -388V-390Q75 -409 64 -423Q56 -429 51 -437Q50 -439 50 -445Q54 -466 57 -487Q57 -498 50 -505Q67 -510 68 -512Q69 -531 85 -543V-545Q85 -552 81 -561Q76 -572 76 -580Q86 -572 95 -561Q107 -566 109 -577V-578Q109 -585 100 -595Q89 -608 89 -615Q96 -612 109 -600Q124 -586 135 -583Q143 -585 146 -585Q167 -581 183 -572Q198 -578 204 -612Q209 -639 217 -647Q213 -613 209 -579Q209 -549 230 -544Q235 -545 236 -550Q237 -555 242 -556Q244 -551 245 -541Q246 -532 251 -526Q338 -543 422 -565Q424 -579 424 -586Q424 -615 412 -637Q399 -660 377 -667Q398 -695 398 -718Q398 -725 397 -729Q407 -739 420 -756Q440 -782 455 -793Q472 -805 489 -805Q506 -805 523 -791Q543 -771 560 -742Q569 -732 580 -718Q591 -704 592 -690V-689Q592 -681 583 -666Q567 -643 564 -614Q564 -608 565 -604Q603 -611 643 -624Q677 -631 709 -634Q741 -638 763 -655Q776 -668 785 -681Q794 -695 812 -696H813Q818 -688 827 -688Q840 -688 854 -704V-702Q850 -694 846 -683V-679H849Q862 -679 879 -696Q892 -709 901 -712Q900 -705 890 -693Q877 -678 877 -668Q877 -662 880 -656Q887 -653 902 -631Q906 -632 912 -639Q917 -645 918 -645L920 -644Q914 -635 914 -622Q914 -613 919 -613H920Q919 -609 919 -601Q919 -591 925 -572Q931 -553 931 -544V-541Q926 -529 922 -515ZM828 -193V-190Q828 -182 832 -182Q842 -185 849 -198Q855 -207 867 -235Q884 -273 892 -282V-280Q888 -258 877 -229Q874 -213 871 -198Q865 -180 865 -179Q865 -175 868 -172Q880 -192 895 -246Q908 -291 919 -313V-309Q919 -287 906 -246Q893 -205 893 -183Q893 -178 895 -164Q900 -173 906 -201Q914 -239 928 -250Q915 -208 912 -168Q912 -158 913 -153Q918 -137 922 -115Q924 -100 931 -76Q939 -51 939 -38Q939 -24 932 -10Q917 -3 901 -3Q875 -4 854 -17Q833 -31 812 -44Q773 -63 748 -84Q743 -80 741 -63Q723 -56 710 -52Q696 -48 686 -35Q656 5 646 29Q639 49 634 66Q629 82 618 93Q606 105 591 105Q568 105 547 75H545Q538 78 531 80H529Q532 76 532 71Q529 61 526 51H515Q488 51 448 63Q438 80 431 100Q421 107 414 107Q406 107 391 96Q374 84 362 84Q357 84 354 85Q351 45 327 10Q304 -23 273 -40Q272 -43 270 -47V-49Q252 -25 232 -6Q212 14 203 45L200 44Q195 46 193 51Q182 49 172 49Q162 50 156 41Q144 48 140 48V45Q142 40 144 35Q137 23 127 14Q116 5 107 -4Q112 -15 112 -30Q112 -46 104 -64Q108 -76 108 -92Q108 -113 95 -152Q82 -191 82 -210V-214Q95 -203 98 -185Q126 -119 146 -97Q166 -102 186 -115Q205 -128 223 -141Q268 -170 317 -203Q367 -235 402 -268Q436 -302 436 -325Q436 -336 430 -348Q444 -350 455 -367Q474 -369 493 -372Q498 -372 506 -370Q514 -367 525 -349Q541 -328 542 -319Q643 -245 806 -185Q820 -191 828 -193Z"/>
</svg>