<svg xmlns="http://www.w3.org/2000/svg" viewBox="0 -800 1024 1024">
	<path fill="#000000" d="M70 -190Q70 -176 59 -165Q55 -168 55 -175Q54 -189 64 -191Q67 -190 70 -190ZM282 -238Q282 -216 279 -198Q263 -186 246 -175Q232 -177 218 -180Q213 -183 207 -186H206Q203 -185 199 -185H198Q191 -188 184 -191H181Q176 -189 174 -181Q172 -173 168 -170V-176Q166 -192 166 -196Q158 -203 149 -205Q139 -207 130 -210Q125 -228 113 -228Q101 -226 90 -215Q79 -205 72 -201Q74 -212 85 -226Q96 -240 98 -247Q91 -264 70 -264Q52 -262 43 -255Q43 -266 60 -275Q71 -281 74 -287Q64 -333 48 -343L51 -344Q62 -342 72 -341Q75 -341 77 -342Q72 -356 52 -373Q35 -388 29 -398Q51 -386 72 -366Q102 -370 104 -404H107Q110 -404 112 -402Q114 -400 117 -400Q122 -402 126 -406Q120 -420 117 -436V-442Q129 -424 142 -406H143Q148 -408 152 -411L154 -410L157 -408Q156 -405 155 -403L157 -400Q167 -389 197 -380Q202 -384 204 -391Q206 -398 214 -399Q214 -384 214 -370Q216 -356 224 -350L225 -351Q229 -353 233 -356V-354Q235 -349 236 -344V-342Q274 -304 282 -238ZM420 -391Q422 -389 424 -388Q445 -396 473 -401L475 -400L473 -397H475L557 -441Q557 -455 574 -458Q596 -462 609 -472Q602 -496 581 -505L580 -526L576 -525Q569 -525 556 -519Q545 -514 539 -513Q546 -525 559 -528Q548 -548 525 -548Q515 -546 509 -542V-543Q508 -548 514 -551Q518 -553 518 -556Q514 -559 510 -559Q508 -559 496 -553L495 -555Q501 -562 507 -569Q504 -582 483 -589Q483 -611 497 -623Q510 -636 524 -647Q533 -657 542 -666Q551 -676 563 -678L597 -711V-712Q596 -719 601 -726Q606 -733 613 -734H616V-735Q613 -739 606 -753Q649 -782 697 -791H702Q726 -790 740 -770Q755 -747 773 -734Q773 -728 771 -726Q798 -672 800 -646Q800 -627 794 -615Q785 -608 777 -598Q769 -589 752 -587H746Q720 -576 693 -566Q698 -555 707 -550Q716 -545 724 -538Q723 -533 723 -525Q725 -511 731 -505Q773 -511 806 -511L814 -512Q816 -509 817 -506L851 -529Q874 -534 912 -564Q907 -554 907 -543V-538Q910 -535 915 -535Q919 -536 927 -540L928 -536Q926 -525 924 -515L925 -512Q927 -510 929 -510H934L935 -508Q935 -504 931 -501Q939 -500 944 -494Q945 -501 954 -501Q962 -503 965 -496Q961 -489 961 -482Q966 -465 971 -449Q971 -443 970 -441Q974 -434 980 -434Q958 -400 930 -373Q912 -373 903 -372Q859 -369 802 -359Q738 -347 717 -336Q717 -321 714 -284Q710 -237 712 -209Q712 -202 714 -182H709L706 -180L707 -178V-57Q713 -49 718 -7Q723 32 728 42Q718 62 711 87Q704 113 681 115H678Q664 112 639 96Q613 79 607 67Q602 44 596 21Q585 3 580 -10L582 -14Q587 -10 592 -7H593Q591 -20 578 -35Q564 -51 562 -64Q581 -53 600 -43Q613 -68 615 -140L616 -158Q613 -252 617 -291Q592 -283 559 -275Q527 -266 511 -256Q478 -232 462 -231Q447 -229 433 -243Q412 -265 405 -279Q394 -300 392 -334V-342Q391 -372 410 -393Q405 -399 393 -402Q378 -406 372 -414Q368 -408 368 -375Q370 -348 372 -322L376 -258Q376 -236 377 -224Q377 -222 380 -186Q384 -159 388 -133Q388 -121 387 -115L391 -67Q403 -41 407 35Q409 63 398 82Q386 104 361 105H359Q346 105 335 98Q324 91 314 85Q303 58 292 29Q282 0 258 -14Q261 -17 267 -17Q262 -29 250 -33Q238 -36 228 -43Q244 -42 259 -42Q268 -42 277 -45Q293 -86 290 -139Q288 -192 288 -245Q289 -272 287 -326L285 -353Q283 -381 281 -400Q279 -419 284 -435Q282 -451 283 -474Q283 -492 286 -501Q283 -512 281 -527Q281 -531 283 -553L275 -567Q278 -573 280 -580Q270 -593 259 -605Q247 -617 245 -634V-639Q244 -647 251 -662Q258 -678 258 -687Q271 -698 288 -710Q305 -722 325 -724Q340 -724 351 -718Q352 -711 363 -701Q372 -694 372 -689Q372 -688 370 -684Q376 -678 383 -676Q391 -674 393 -662V-660L396 -645Q401 -645 405 -635Q408 -628 408 -620L409 -618Q409 -610 400 -603Q391 -596 389 -589Q388 -583 387 -578Q386 -571 381 -567Q377 -565 378 -559Q378 -550 382 -543Q372 -527 373 -519Q385 -513 395 -513Q405 -515 411 -522H412L414 -519V-512Q422 -519 423 -530Q427 -509 434 -502Q439 -497 460 -489V-486Q461 -476 470 -463Q480 -449 480 -440Q480 -434 474 -431Q469 -427 469 -421V-403Q463 -408 457 -410L455 -406Q451 -400 438 -397L437 -396Q433 -397 429 -398L427 -397Q424 -395 420 -391Z"/>
</svg>