<svg xmlns="http://www.w3.org/2000/svg" viewBox="0 -800 1024 1024">
	<path fill="#000000" d="M754 -671Q742 -652 733 -648Q731 -654 731 -657Q732 -672 745 -674Q750 -674 754 -671ZM867 -243Q858 -221 856 -212Q849 -221 849 -233Q849 -248 859 -252Q864 -249 867 -243ZM403 -252V-253Q403 -260 411 -272Q416 -280 416 -284L415 -288Q371 -279 341 -258Q345 -247 353 -240Q373 -242 403 -252ZM608 -326H598Q550 -326 538 -309V-307Q539 -304 539 -301V-299Q527 -290 524 -272Q542 -273 560 -282Q566 -279 570 -279Q571 -279 579 -281Q583 -309 608 -326ZM776 -58V-54Q752 -42 727 -42Q710 -42 689 -48Q687 -53 685 -59Q670 -66 661 -79Q652 -92 641 -108Q633 -117 628 -124Q622 -130 622 -139Q622 -146 624 -151Q639 -165 668 -165Q700 -165 730 -151Q740 -158 751 -162Q750 -159 750 -154V-150Q758 -152 769 -163Q785 -178 796 -180V-179Q792 -172 781 -164Q771 -151 771 -140Q771 -131 781 -122Q786 -124 791 -127Q792 -127 796 -125Q781 -120 781 -104Q781 -91 790 -78H786Q781 -78 778 -75Q777 -66 776 -58ZM911 13V15Q922 33 922 54Q922 65 917 75Q912 82 899 87Q886 92 883 96Q880 95 876 95Q863 99 850 102Q808 111 750 111Q730 111 692 109Q584 104 563 101Q494 91 464 61Q442 36 439 -1Q436 -39 431 -84Q390 -35 350 14Q309 63 260 102H255Q235 101 223 92Q212 82 200 73Q191 76 181 78Q181 70 186 67Q191 64 194 61V58Q194 47 184 39Q185 37 185 33Q185 27 178 18Q183 13 183 2Q178 -25 169 -47Q179 -35 188 -24Q182 -42 164 -70Q143 -102 138 -120Q178 -65 215 -28Q274 -70 281 -75Q317 -103 337 -131Q314 -128 291 -125Q285 -125 282 -126Q268 -129 257 -143Q254 -147 239 -171Q216 -209 186 -209H182Q176 -225 160 -243Q145 -261 143 -285Q144 -288 144 -292Q145 -296 151 -304Q158 -313 158 -320Q158 -327 153 -333Q161 -330 169 -327Q170 -329 170 -332Q170 -337 162 -346Q156 -353 156 -358V-360Q184 -346 196 -346Q212 -346 220 -361Q249 -359 265 -350Q274 -358 288 -358Q303 -358 319 -360Q344 -367 369 -374Q407 -377 424 -392Q419 -401 408 -401Q447 -431 482 -464Q354 -450 285 -375Q282 -377 275 -377Q270 -377 258 -375Q253 -378 247 -386Q240 -395 234 -398H233Q229 -398 226 -394Q223 -389 220 -389Q223 -396 223 -404Q223 -415 215 -423Q207 -431 196 -431Q179 -431 169 -414Q171 -420 180 -432Q191 -447 191 -457V-458H189Q170 -457 157 -444Q144 -432 132 -420Q154 -462 199 -505Q223 -528 283 -575Q285 -585 294 -592Q298 -595 313 -602Q317 -624 344 -636Q349 -654 361 -665Q372 -676 384 -687Q382 -693 372 -693Q382 -703 391 -714Q385 -716 383 -716Q378 -716 368 -710Q360 -705 355 -705H353V-707Q354 -713 360 -717Q366 -721 372 -725L381 -735Q396 -747 417 -755Q422 -757 433 -768Q448 -782 458 -783Q461 -784 468 -784Q517 -779 545 -746Q553 -737 553 -721Q553 -705 554 -684Q561 -661 564 -636Q564 -628 563 -624Q533 -617 516 -608Q493 -596 486 -575Q542 -597 597 -620Q631 -634 635 -635Q644 -634 653 -633Q659 -633 662 -636V-634Q662 -630 661 -627V-625Q665 -619 670 -617Q694 -633 721 -647Q712 -637 699 -626Q687 -615 686 -600Q686 -593 689 -587Q706 -592 726 -594Q719 -590 713 -586Q706 -582 706 -572V-570L708 -568Q711 -570 713 -572H714Q707 -562 706 -536Q705 -512 701 -504Q671 -500 647 -482Q627 -472 608 -462Q590 -452 584 -429Q608 -431 666 -451Q715 -468 745 -473Q745 -470 742 -470H739Q740 -460 745 -455Q750 -451 754 -444Q766 -450 783 -469Q796 -483 804 -489Q796 -477 787 -466Q778 -454 776 -437Q788 -431 793 -417Q806 -423 819 -430Q818 -425 811 -419Q803 -412 801 -405V-402Q801 -396 806 -387Q812 -377 812 -372V-367Q812 -355 807 -337Q801 -316 801 -307V-305Q796 -307 782 -307Q765 -307 754 -303Q721 -289 688 -247Q659 -211 644 -174Q619 -172 582 -170Q545 -168 516 -160Q517 -152 526 -152Q534 -152 541 -157Q540 -150 538 -144L539 -143Q543 -144 547 -146L548 -144Q548 -138 547 -133Q547 -124 550 -120Q535 -90 535 -58Q535 -33 550 -22Q587 -10 648 -10Q694 -10 733 -16Q770 -20 795 -41Q821 -63 825 -96Q827 -109 828 -121Q829 -134 837 -146Q838 -141 838 -130Q837 -105 836 -81Q836 -61 841 -51Q843 -68 845 -107Q847 -161 853 -183Q858 -164 858 -118Q858 -72 862 -53Q869 -84 874 -117Q876 -97 876 -74Q876 -51 883 -36Q883 -34 887 -34H890L893 -33V-30Q893 -12 912 3V5Q912 9 911 13Z"/>
</svg>