<svg xmlns="http://www.w3.org/2000/svg" viewBox="0 -800 1024 1024">
	<path fill="#000000" d="M325 -224Q333 -301 334 -306L330 -307Q327 -306 323 -306L321 -309Q342 -340 342 -382Q342 -394 341 -401Q319 -380 292 -360Q264 -340 257 -307Q257 -302 256 -297Q257 -274 267 -252Q276 -230 284 -208Q310 -220 325 -224ZM732 -57Q731 -44 714 -42Q712 -46 712 -48Q712 -59 725 -59Q728 -59 732 -57ZM912 -319H913V-312Q913 -300 909 -286Q899 -286 899 -298Q899 -302 903 -318L906 -317Q909 -318 912 -319ZM594 -376V-368Q591 -369 588 -369Q577 -366 569 -358Q587 -354 615 -333Q621 -350 642 -380Q658 -403 665 -418Q663 -418 660 -419Q652 -418 646 -412Q639 -406 635 -402Q624 -400 611 -388Q600 -379 594 -376ZM596 74Q578 73 569 49Q562 30 554 26Q547 2 541 -26Q559 -28 559 -40Q575 -44 588 -44Q601 -44 606 -40Q609 -41 617 -41Q638 -41 644 -32Q654 -37 656 -37H658Q658 -32 657 -27Q657 -22 661 -19Q671 -24 681 -31Q690 -37 703 -40Q703 -36 695 -29Q683 -18 683 -11Q683 -1 699 8Q702 7 706 3Q710 -1 715 -1H717Q709 9 709 20Q709 32 717 43Q737 43 745 46Q732 49 723 60Q719 65 709 82Q692 112 668 114Q649 110 630 107Q608 105 605 84ZM817 -422L771 -393V-391Q771 -388 764 -381Q707 -324 684 -284Q705 -267 731 -253Q748 -235 783 -218Q794 -210 807 -199Q821 -187 835 -186Q838 -186 840 -187Q850 -190 855 -213Q859 -236 867 -241Q869 -235 869 -220V-211Q869 -193 874 -184Q882 -210 883 -272Q884 -322 887 -340H891Q894 -332 894 -324Q893 -307 891 -290Q894 -280 896 -270V-260Q895 -235 894 -211Q894 -191 900 -175Q903 -241 903 -246Q903 -266 902 -276Q910 -263 912 -220Q914 -171 927 -157L929 -159V-165L931 -167H932Q934 -152 947 -126Q960 -100 962 -85Q963 -81 963 -77Q963 -72 962 -67Q962 -57 968 -52Q964 -19 950 8Q922 21 900 21Q894 21 891 20Q887 19 882 14Q875 7 872 6Q871 5 867 5H860Q843 -9 822 -34Q791 -67 787 -75L757 -111Q748 -111 738 -119Q730 -126 724 -127Q715 -145 690 -164Q660 -187 652 -198Q641 -199 630 -208Q618 -205 609 -194Q606 -191 596 -174Q609 -178 627 -181Q631 -180 635 -180Q646 -173 658 -169L661 -170Q667 -162 672 -151Q676 -141 686 -136Q690 -125 690 -113Q690 -80 662 -57H654Q621 -60 600 -76Q580 -72 578 -72Q573 -72 570 -73Q572 -80 577 -82Q583 -84 589 -85Q588 -96 579 -111Q570 -126 569 -136Q551 -111 534 -85Q517 -60 509 -25Q497 -16 493 0Q491 -2 486 -2Q480 -1 473 0H470Q441 -7 437 -57Q427 -61 427 -84V-95Q427 -97 424 -99Q422 -96 420 -92Q413 -95 405 -99Q401 -98 399 -91Q397 -83 392 -83V-87Q392 -106 382 -113Q374 -115 365 -118Q358 -124 350 -131H345Q332 -130 322 -121Q311 -111 302 -105V-104Q302 -75 269 -75Q246 -75 230 -89Q224 -95 218 -102Q212 -108 199 -109H198Q195 -116 192 -124Q189 -123 183 -123Q176 -123 174 -125Q174 -130 179 -136Q182 -139 183 -143Q177 -168 159 -204Q142 -236 138 -250L125 -274Q116 -276 104 -292Q92 -307 81 -307Q79 -306 76 -306Q54 -315 52 -346Q51 -376 48 -406Q50 -412 52 -418Q50 -428 41 -449Q29 -476 29 -496V-499Q40 -465 65 -444V-446Q65 -451 59 -461Q51 -474 51 -483V-487Q58 -483 66 -471Q76 -456 85 -453L86 -457Q82 -469 77 -481Q85 -481 91 -473Q95 -467 98 -466Q105 -468 112 -473Q120 -479 130 -479H135Q146 -478 170 -463Q191 -450 201 -450Q218 -455 236 -469Q248 -477 261 -485Q274 -494 288 -495Q292 -495 294 -494L323 -518Q324 -525 330 -529Q337 -534 341 -538Q352 -549 364 -556Q383 -586 398 -595Q410 -596 422 -598H426Q431 -602 438 -616Q448 -636 459 -640Q455 -628 448 -618Q442 -608 441 -592V-588Q446 -596 451 -605Q455 -615 467 -616Q463 -603 458 -591Q458 -590 460 -586Q464 -586 467 -594Q470 -601 474 -601H476V-598Q475 -586 474 -574Q474 -558 484 -556H485Q488 -556 488 -559Q488 -562 491 -562H492Q494 -543 500 -515Q507 -499 510 -487Q526 -518 527 -522Q529 -530 532 -537Q534 -544 543 -544L551 -577V-583Q551 -596 560 -625Q568 -651 568 -663V-670H565Q553 -669 546 -662Q538 -655 532 -652Q535 -663 548 -678Q561 -694 565 -706Q564 -709 560 -711Q556 -713 556 -715Q559 -725 574 -733Q587 -740 590 -745Q597 -759 609 -771Q622 -784 631 -784Q642 -781 652 -776Q665 -774 677 -773Q696 -761 703 -731Q710 -701 728 -684Q729 -679 729 -671Q727 -635 708 -615Q689 -595 674 -571Q663 -567 654 -554Q651 -549 641 -531V-529Q723 -561 771 -609Q775 -609 778 -610Q794 -610 810 -594Q816 -598 824 -600H826V-598Q826 -594 825 -591V-589Q837 -592 851 -605Q862 -615 868 -618Q867 -613 856 -602Q841 -587 841 -573V-571Q848 -573 854 -581Q861 -591 868 -592Q857 -578 854 -556V-550Q854 -543 861 -530Q867 -519 868 -512Q869 -511 869 -507Q867 -494 864 -481Q868 -470 871 -459Q868 -446 859 -436Q850 -427 841 -418Q829 -422 818 -422ZM498 -456Q486 -442 485 -441Q484 -431 479 -425H482Q486 -425 487 -422Q466 -403 467 -366Q469 -330 464 -290Q456 -260 451 -225Q448 -175 448 -122Q483 -148 509 -184Q534 -220 560 -255Q547 -275 532 -295Q533 -318 536 -329Q541 -345 553 -352Q496 -376 496 -436V-442Q496 -448 498 -456Z"/>
</svg>