<svg xmlns="http://www.w3.org/2000/svg" viewBox="0 -800 1024 1024">
	<path fill="#000000" d="M306 -335Q306 -338 304 -340Q258 -317 252 -261Q253 -256 253 -252Q255 -237 268 -213Q278 -195 280 -186Q288 -192 295 -193Q296 -250 304 -303V-304Q304 -306 300 -306Q297 -306 296 -309V-310Q303 -321 306 -335ZM964 -432H963Q962 -435 962 -441Q962 -455 972 -455H973Q975 -449 975 -445Q975 -432 964 -432ZM412 -6Q395 -6 386 -22Q390 -24 394 -24Q410 -22 412 -6ZM763 -272Q743 -296 723 -320Q703 -344 678 -363Q676 -351 676 -345Q676 -332 681 -311Q686 -290 686 -280Q686 -270 683 -260Q686 -259 694 -259Q706 -259 763 -272ZM581 -629H585Q574 -622 574 -592Q574 -567 570 -559Q559 -552 546 -552Q529 -553 514 -561Q498 -569 484 -575Q485 -578 485 -581Q485 -594 467 -602Q463 -602 458 -598Q452 -594 447 -594H445Q448 -600 452 -605Q456 -611 463 -614Q458 -628 456 -632Q451 -640 442 -641Q471 -657 471 -675Q471 -680 465 -690Q459 -700 459 -706Q459 -709 460 -711Q466 -707 474 -695Q482 -683 487 -679Q495 -682 502 -682Q514 -682 523 -674Q527 -670 539 -655Q559 -629 581 -629ZM717 -673Q716 -669 716 -662L734 -702Q748 -735 763 -767Q778 -800 819 -805Q845 -788 873 -776Q881 -741 890 -732Q884 -722 884 -697V-685Q854 -669 831 -625Q842 -625 868 -634Q887 -640 899 -641Q898 -638 891 -632Q881 -624 881 -618Q881 -613 884 -609H888Q899 -609 912 -615Q923 -620 928 -620Q932 -620 935 -619Q917 -607 916 -606Q906 -597 906 -586Q907 -583 907 -581L909 -580Q913 -581 917 -583L920 -581Q907 -570 907 -546Q907 -533 911 -524Q910 -521 906 -519Q903 -518 902 -516Q897 -484 867 -476Q828 -468 791 -464Q772 -458 752 -452Q743 -450 735 -449Q727 -448 726 -443Q728 -438 745 -424Q762 -410 767 -405Q779 -396 789 -387Q799 -379 803 -369L831 -350Q847 -348 856 -340Q864 -331 875 -324Q898 -331 907 -352Q916 -375 933 -390Q933 -379 921 -359Q908 -337 908 -320V-318Q921 -330 933 -364Q947 -403 960 -414Q939 -365 929 -306Q940 -312 948 -342Q957 -374 967 -381Q956 -343 953 -300Q953 -289 954 -284Q961 -242 969 -204V-195Q967 -162 945 -141H941Q935 -140 929 -140Q902 -141 885 -155Q869 -168 853 -183Q839 -170 814 -169Q789 -168 766 -168Q773 -160 779 -152Q778 -137 776 -122Q776 -112 778 -106Q762 -96 746 -86Q729 -77 722 -58Q733 -51 769 -43Q804 -36 818 -28Q828 -37 838 -46Q848 -55 864 -58Q864 -54 859 -51Q854 -49 850 -45Q835 -26 832 -9H834Q838 -9 844 -16Q852 -25 860 -25H862Q843 -1 843 14Q843 25 852 32L854 33Q855 33 858 29Q861 25 864 25L867 26V27Q863 35 856 45Q857 49 857 55Q857 65 851 78Q844 92 844 100Q838 100 827 107Q815 114 807 114H805Q792 111 781 104Q734 92 731 75L705 60H704Q692 60 672 47Q657 37 648 35Q638 42 625 67Q608 100 587 104Q577 100 569 95Q561 90 548 89H544Q543 76 527 65Q516 58 513 52L516 51Q522 52 527 53Q530 53 532 52Q517 39 476 22Q440 7 425 -4Q427 -5 432 -5Q444 -5 475 8Q509 22 522 24Q526 25 529 25Q549 23 559 5Q549 0 528 0H508Q483 -17 477 -20Q475 -42 473 -65Q473 -72 474 -75Q482 -91 498 -102Q500 -103 506 -103H513Q519 -103 522 -105Q525 -107 529 -116Q531 -122 534 -124Q499 -121 466 -108Q449 -94 430 -90Q419 -90 410 -100Q410 -107 398 -120Q386 -133 386 -144V-146Q388 -155 390 -165V-181Q403 -199 415 -218Q416 -218 418 -222Q420 -228 423 -228H426Q428 -228 428 -223Q428 -218 430 -218Q434 -216 438 -216Q449 -218 460 -220Q464 -220 467 -216L495 -218Q498 -225 507 -227Q515 -229 523 -231Q540 -234 556 -238Q561 -252 566 -266Q582 -269 593 -278Q590 -287 590 -295Q591 -307 591 -320V-330Q562 -322 523 -278Q514 -269 506 -262Q498 -254 493 -243H491Q480 -240 471 -229Q465 -230 458 -236Q451 -242 446 -242Q445 -242 439 -240V-243L440 -247Q425 -275 415 -309H422V-310Q421 -314 411 -329Q408 -315 408 -314Q389 -273 384 -246Q372 -174 371 -170Q369 -106 367 -42H363Q350 -42 350 -34L351 -30Q348 -30 348 -37Q348 -41 349 -42Q319 -47 307 -70Q290 -62 286 -41Q281 -20 265 -10Q248 -21 228 -25H225Q216 -44 199 -48V-57Q198 -58 193 -58H185Q185 -62 189 -65Q193 -68 193 -70Q188 -89 167 -121Q151 -145 147 -154Q141 -169 141 -173L120 -189Q105 -196 95 -215Q85 -236 59 -239H57Q49 -256 41 -271Q32 -287 31 -306V-309Q31 -324 38 -351Q46 -382 46 -397V-405Q52 -415 66 -417Q64 -447 62 -477Q62 -488 63 -494Q73 -469 78 -441Q82 -444 82 -450Q81 -460 79 -470Q79 -474 81 -478Q85 -473 88 -459Q92 -442 96 -438Q98 -442 98 -444Q96 -451 94 -458Q94 -461 96 -463Q102 -454 107 -441Q137 -424 145 -418Q164 -404 176 -388Q192 -402 208 -416Q217 -433 232 -446Q248 -458 264 -475Q284 -499 301 -526Q317 -553 349 -555Q355 -552 361 -550Q375 -551 387 -544Q392 -545 396 -552Q402 -561 409 -561H412Q409 -553 405 -545Q405 -541 409 -538Q413 -540 421 -552Q432 -568 440 -572Q429 -557 429 -536Q429 -524 434 -501L441 -490Q422 -389 413 -340Q420 -333 427 -324Q473 -340 511 -367Q548 -395 585 -416Q553 -414 534 -401Q529 -396 522 -389Q514 -381 506 -380L502 -381Q499 -382 495 -389Q492 -394 487 -398Q482 -402 473 -405Q461 -409 458 -414Q457 -417 457 -424Q458 -434 459 -445Q459 -450 458 -452Q455 -459 452 -467V-475Q452 -519 507 -555V-539H514Q539 -540 562 -549Q585 -559 607 -567V-579Q607 -634 599 -657Q587 -693 550 -694Q571 -708 594 -725Q605 -736 615 -747Q625 -757 644 -758H651Q666 -756 677 -746Q687 -737 699 -726Q708 -720 716 -714Q722 -704 722 -690Q722 -678 717 -673ZM646 -94Q647 -105 662 -122Q677 -139 677 -150V-155H671Q648 -155 627 -131Q617 -119 596 -86Q615 -82 630 -76Q636 -82 646 -94Z"/>
</svg>