<svg xmlns="http://www.w3.org/2000/svg" viewBox="0 -800 1024 1024">
	<path fill="#000000" d="M908 -620V-618Q908 -615 902 -610Q896 -604 895 -600Q892 -603 892 -608Q893 -618 905 -620ZM94 -272Q79 -275 79 -292Q83 -294 84 -294Q91 -294 94 -272ZM717 -162V-163Q717 -165 714 -167Q711 -169 711 -172Q718 -172 720 -174Q722 -182 723 -191Q723 -195 720 -198Q673 -186 656 -178Q652 -181 639 -183Q594 -124 560 -46Q576 -37 594 -26Q611 -15 630 -11Q616 -22 600 -32Q583 -42 572 -56Q601 -39 636 -28Q669 -48 684 -87Q700 -125 717 -162ZM448 -615V-613Q445 -606 442 -600Q442 -596 441 -593Q444 -571 446 -550Q446 -543 445 -540Q442 -530 427 -517Q413 -505 400 -499Q367 -483 341 -471Q316 -459 288 -438Q258 -414 254 -410Q238 -395 231 -378Q216 -379 194 -392Q169 -406 153 -406Q149 -405 145 -405L144 -409Q146 -412 148 -416Q144 -417 139 -422H137Q130 -419 123 -416H122L130 -429Q121 -437 112 -445Q103 -443 89 -435L88 -439Q89 -446 96 -450Q103 -455 107 -459H102Q89 -459 70 -444Q56 -433 48 -430Q54 -446 68 -456Q82 -465 98 -477Q116 -496 133 -516Q158 -535 186 -551Q202 -563 216 -575Q230 -587 248 -592Q254 -609 268 -618Q284 -627 299 -637Q292 -660 292 -671V-674Q299 -673 308 -664Q325 -679 363 -679Q383 -679 396 -673Q411 -666 413 -652Q423 -647 433 -642V-641Q431 -638 427 -637Q433 -616 434 -615L437 -614Q441 -614 445 -615ZM888 -229V-215Q888 -199 884 -188Q849 -169 827 -134Q804 -100 787 -59Q760 5 757 60Q727 77 714 89Q710 95 705 102Q700 109 693 110Q690 111 687 111Q672 111 652 85Q636 64 625 60Q623 35 597 9Q590 2 582 -4Q574 -10 568 -19Q582 -18 601 -4Q616 8 624 9Q607 -5 560 -39Q546 -31 546 -4Q546 3 548 15H546Q542 17 537 19H536Q528 29 510 40Q489 52 483 60L482 57Q483 53 484 48V47Q459 16 433 -50Q442 -43 452 -37V-38Q452 -48 437 -55Q416 -65 413 -68Q458 -69 486 -102Q519 -144 547 -206Q562 -237 572 -263Q588 -295 594 -322V-326Q594 -332 593 -338Q593 -344 597 -347Q565 -345 557 -342Q549 -339 535 -328Q520 -316 510 -315H508Q496 -315 486 -324Q475 -333 473 -347Q453 -359 440 -369L437 -351Q431 -348 421 -336Q412 -325 404 -321Q381 -313 360 -301Q342 -286 330 -269Q335 -268 342 -268Q351 -268 359 -275V-269Q359 -251 376 -222Q392 -195 393 -180V-175Q392 -154 390 -134Q388 -90 386 -47Q386 -19 390 -2Q387 0 386 11Q385 18 383 22Q370 33 357 44H356Q351 43 345 41Q341 42 336 48Q329 55 323 57Q313 39 285 15Q260 -7 251 -19Q252 -21 252 -27Q252 -37 247 -37L245 -36Q259 -55 270 -88Q271 -90 276 -140Q281 -190 281 -196Q281 -209 280 -216Q248 -193 236 -182Q211 -160 196 -134Q189 -123 165 -80Q158 -67 149 -52Q140 -37 129 -34Q127 -33 124 -33Q114 -33 106 -46Q98 -60 91 -62H90Q87 -62 84 -58Q81 -55 80 -55L79 -56Q81 -68 83 -72Q66 -102 66 -127Q66 -141 70 -153Q70 -155 64 -166Q69 -182 74 -198V-203Q74 -217 64 -251Q56 -278 55 -292V-299Q55 -308 61 -310Q73 -259 75 -252Q85 -221 101 -206V-210Q101 -219 95 -234Q90 -246 90 -254Q90 -258 91 -261Q99 -238 113 -218Q148 -239 178 -266Q208 -294 237 -321Q313 -391 338 -448Q342 -446 344 -446Q353 -450 365 -457Q370 -459 382 -459Q404 -459 416 -450Q418 -434 428 -410Q435 -427 453 -459Q468 -486 475 -501Q493 -509 510 -517Q513 -503 532 -503Q546 -503 576 -511Q606 -519 616 -519Q617 -525 617 -538Q614 -575 610 -612Q602 -674 575 -674Q565 -674 556 -669Q555 -671 555 -674Q555 -679 563 -685Q572 -692 572 -699V-700Q568 -703 562 -703Q555 -703 543 -697Q533 -692 529 -692H528Q538 -709 559 -720Q579 -731 587 -753Q613 -767 639 -781Q665 -793 678 -793H684Q706 -791 733 -759Q756 -732 772 -727V-724Q772 -717 777 -707Q782 -697 782 -691V-689Q782 -683 766 -654Q752 -629 738 -602Q724 -575 720 -543Q822 -556 886 -591L887 -589Q885 -585 883 -582L884 -580Q890 -574 898 -574Q915 -577 932 -581Q937 -581 940 -580Q915 -574 905 -552Q911 -545 916 -539H921Q932 -539 943 -540H947Q933 -533 930 -518Q930 -511 939 -511H940Q937 -506 933 -501V-498Q932 -473 923 -456Q913 -439 904 -422Q884 -420 841 -407Q811 -398 791 -395Q766 -391 738 -387Q711 -382 690 -366Q693 -357 707 -347V-343Q706 -326 704 -310V-306Q750 -316 774 -325Q812 -338 832 -357Q833 -340 844 -335Q855 -330 864 -322Q871 -323 882 -329Q896 -336 907 -336H911Q897 -328 892 -323Q883 -315 880 -304L886 -295Q897 -295 904 -298Q901 -294 894 -289Q887 -284 886 -275Q888 -270 889 -266L892 -264Q896 -265 899 -266H901Q888 -258 888 -229Z"/>
</svg>