<svg xmlns="http://www.w3.org/2000/svg" viewBox="0 -800 1024 1024">
	<path fill="#000000" d="M933 -165Q921 -158 913 -146Q911 -152 911 -154Q912 -168 924 -169Q929 -169 933 -165ZM927 -624Q912 -622 904 -612Q902 -616 902 -619Q904 -633 917 -635Q926 -635 927 -624ZM647 -344Q639 -352 639 -367Q640 -369 640 -372Q638 -373 634 -373Q622 -374 622 -358Q622 -352 626 -345Q630 -338 636 -338Q641 -338 647 -344ZM696 -357H699Q701 -381 701 -390Q701 -405 699 -413Q684 -412 684 -392Q685 -379 686 -367Q686 -362 684 -356Q690 -356 696 -357ZM698 -523V-525Q695 -539 691 -547Q691 -548 693 -552Q684 -549 672 -547Q660 -545 658 -533Q664 -523 673 -514Q686 -518 698 -523ZM751 -376V-372Q755 -376 758 -376L761 -375Q773 -408 785 -442Q780 -443 775 -444H773Q751 -420 751 -376ZM431 -150H434L437 -149Q433 -142 433 -133Q433 -126 437 -112Q409 -99 379 -86Q348 -73 320 -57Q272 -31 229 -3Q185 26 170 83Q151 81 131 78Q125 76 111 64Q94 50 86 45Q73 38 60 31Q47 23 43 9Q41 -3 41 -7Q41 -35 68 -62V-65Q66 -76 64 -87V-90Q66 -96 72 -99Q78 -102 83 -106Q94 -117 108 -132Q121 -148 135 -153Q125 -145 125 -130V-126Q133 -123 140 -123Q158 -124 180 -133Q201 -143 222 -152Q261 -167 299 -183V-215Q299 -265 293 -293Q268 -285 236 -266Q210 -246 190 -228Q179 -220 167 -220Q161 -220 147 -224Q142 -236 118 -259Q87 -288 87 -309Q87 -324 98 -339Q81 -375 61 -388H64Q69 -388 79 -382Q88 -377 95 -376Q89 -386 73 -399Q53 -415 48 -426Q67 -410 95 -401Q92 -405 85 -410Q73 -419 73 -423Q107 -411 116 -407Q130 -416 147 -416Q155 -416 159 -413Q220 -431 281 -450Q289 -456 289 -467Q289 -471 287 -477Q282 -494 277 -504Q269 -521 258 -526V-528Q260 -577 284 -603Q308 -629 334 -654Q372 -652 393 -623Q404 -608 421 -561Q417 -553 416 -526Q415 -512 413 -501H416Q431 -504 445 -507Q437 -503 437 -490V-485L440 -483Q446 -485 452 -488V-480Q452 -427 477 -369Q434 -351 390 -333Q379 -316 379 -262V-250Q374 -242 374 -232Q374 -225 375 -222Q422 -240 468 -258Q458 -251 448 -244Q437 -237 431 -225H432Q435 -225 444 -229Q455 -234 464 -234Q454 -226 443 -220Q432 -213 431 -197L434 -195Q440 -197 445 -200Q425 -177 425 -164Q425 -158 428 -152ZM953 -39H955Q941 -31 941 2Q941 15 942 20Q931 24 926 30Q918 38 918 51Q911 51 902 54Q891 58 891 64L892 67Q840 51 764 51Q722 51 605 60Q545 64 520 76Q514 80 508 87Q502 93 493 94H492Q481 94 455 73Q439 59 427 42Q429 36 429 35Q425 20 419 6V-1Q419 -18 431 -40Q431 -41 452 -74Q453 -73 453 -69V-63Q475 -58 495 -58Q521 -58 576 -66Q614 -72 631 -72Q633 -84 633 -90Q633 -98 631 -108Q593 -95 575 -84Q548 -100 537 -113Q520 -132 520 -160V-162Q520 -168 525 -168Q520 -174 513 -194Q505 -216 495 -224Q490 -229 481 -232Q469 -237 464 -243Q466 -244 470 -244Q489 -241 508 -239Q521 -239 526 -247H535Q563 -247 585 -253Q608 -258 631 -263Q630 -269 628 -276Q628 -279 630 -281H627Q617 -281 605 -271Q596 -263 590 -263H588Q580 -263 567 -271Q549 -282 538 -282Q522 -293 506 -329Q493 -357 484 -367Q484 -376 477 -390Q471 -402 470 -408V-410Q474 -431 478 -453Q478 -462 474 -470L476 -471Q483 -466 490 -456Q496 -459 505 -459Q513 -459 519 -456Q538 -458 568 -472Q595 -484 612 -485Q610 -493 610 -500Q610 -506 612 -508Q584 -499 567 -482Q539 -489 517 -503Q494 -517 472 -530V-532Q472 -543 463 -566Q456 -583 455 -591V-598Q456 -619 463 -638Q470 -656 475 -675Q484 -672 492 -672Q531 -677 563 -698Q607 -720 653 -743Q698 -765 736 -790H740Q760 -789 770 -780Q781 -770 793 -762Q816 -771 837 -772Q821 -763 821 -751Q821 -746 823 -743Q832 -744 840 -749Q837 -745 832 -742Q827 -739 827 -732Q828 -729 828 -727Q832 -725 833 -725Q837 -728 846 -731V-729Q844 -720 838 -712Q838 -710 842 -707Q846 -704 846 -699Q844 -693 844 -689Q847 -668 849 -647Q849 -641 847 -633Q812 -623 793 -614Q766 -601 752 -583L775 -574Q774 -566 772 -558Q811 -570 841 -589Q850 -580 861 -579Q867 -587 874 -595Q880 -604 893 -606Q879 -591 879 -565Q881 -519 914 -501Q928 -506 944 -509Q949 -509 951 -508V-507Q950 -502 941 -495Q932 -488 924 -483H925Q934 -485 942 -488Q946 -488 949 -485Q939 -485 933 -474Q928 -464 928 -448Q928 -434 932 -426Q917 -418 917 -406V-404Q900 -401 893 -382Q890 -383 884 -383Q863 -383 848 -360Q838 -345 829 -316Q825 -318 823 -318Q809 -314 796 -304Q793 -305 791 -310Q789 -316 787 -316L785 -317Q783 -315 780 -313H778V-322Q774 -322 769 -323Q735 -319 707 -307V-306Q707 -302 713 -295Q719 -288 720 -284Q761 -299 785 -300Q805 -275 808 -272Q816 -278 826 -278Q832 -278 835 -275Q826 -269 820 -260Q823 -250 835 -251Q847 -251 856 -249Q844 -241 839 -236Q831 -228 829 -218Q830 -208 831 -198V-195Q829 -186 817 -171Q807 -159 805 -152Q740 -147 720 -121V-90Q725 -87 732 -87Q771 -93 809 -99H828Q856 -99 865 -102Q877 -105 889 -121Q901 -137 913 -138Q908 -129 908 -118Q908 -101 925 -92Q939 -84 963 -84H969Q963 -80 954 -79Q944 -77 942 -69Q943 -65 951 -65H955Q942 -58 938 -46Q938 -42 941 -39L943 -38Q948 -38 953 -39Z"/>
</svg>