<svg xmlns="http://www.w3.org/2000/svg" viewBox="0 -800 1024 1024">
	<path fill="#000000" d="M777 -324H780Q782 -324 788 -322Q781 -304 776 -301Q773 -304 773 -308Q775 -316 777 -324ZM469 -84V-81Q470 -68 477 -56Q485 -44 491 -34Q535 -48 565 -48Q576 -48 582 -47Q584 -62 597 -85Q613 -114 613 -131Q622 -136 627 -149Q597 -145 537 -125Q508 -115 495 -109Q470 -97 469 -84ZM761 -60V-59Q742 -56 715 -31Q665 21 636 109Q625 107 613 95Q605 97 601 104Q591 92 569 84Q565 83 528 72Q530 65 531 57Q528 56 520 56Q496 56 496 72Q494 70 488 70Q481 70 463 80Q449 88 441 89H439Q405 82 383 61Q378 55 372 37Q367 21 359 12Q340 -10 306 -14Q305 -14 293 -30Q274 -36 264 -52Q254 -67 241 -80V-87Q243 -102 244 -117V-122Q243 -131 228 -142Q213 -153 211 -166Q226 -159 241 -153L243 -157Q243 -160 238 -164Q234 -167 234 -169L235 -172Q243 -170 250 -170Q258 -170 262 -172Q269 -178 273 -185Q293 -199 324 -201Q330 -200 336 -200H339Q348 -203 356 -207H362Q384 -203 408 -192Q448 -206 494 -215Q496 -235 496 -246Q496 -250 493 -313Q326 -279 231 -235Q216 -228 196 -206Q175 -184 160 -177Q143 -182 139 -182Q136 -181 133 -181Q125 -183 112 -201Q100 -217 90 -222Q79 -228 65 -236Q51 -244 46 -253Q41 -266 41 -277Q41 -311 68 -338Q64 -347 64 -357Q64 -377 82 -394Q86 -398 118 -420Q185 -467 246 -488Q244 -485 232 -478Q221 -472 216 -466Q204 -457 189 -439Q198 -443 206 -449Q213 -454 225 -456Q222 -451 215 -446Q202 -437 202 -430Q202 -426 205 -422Q212 -421 226 -421Q258 -421 311 -432Q354 -441 371 -442Q387 -443 428 -452Q467 -461 487 -463Q484 -496 481 -529Q478 -562 463 -583V-590Q463 -612 446 -638Q431 -661 429 -676Q436 -686 436 -696Q435 -711 425 -723Q416 -734 411 -744L414 -745Q423 -740 434 -735Q445 -736 459 -749Q474 -762 484 -772Q513 -797 535 -797Q546 -797 555 -793Q566 -784 577 -771Q588 -763 598 -756Q605 -748 613 -737Q620 -727 636 -726Q634 -714 634 -707Q634 -671 651 -648Q638 -615 625 -580Q612 -545 611 -504Q606 -497 603 -489Q603 -487 605 -483Q679 -495 762 -508Q845 -520 910 -549Q903 -540 903 -528Q903 -519 907 -514Q929 -520 947 -520Q955 -520 959 -519Q957 -513 945 -510Q932 -506 931 -499Q933 -496 936 -496Q943 -497 950 -498Q954 -498 956 -496Q955 -491 951 -489Q948 -488 946 -485Q949 -474 959 -473Q948 -460 948 -443Q948 -435 953 -427Q943 -407 943 -394Q943 -385 950 -379Q942 -372 931 -366Q918 -367 892 -367Q815 -366 738 -354Q660 -342 591 -333Q582 -297 582 -262Q582 -248 583 -241Q624 -249 663 -263Q683 -276 706 -281H709Q727 -277 744 -274Q747 -274 749 -275Q754 -276 760 -284Q766 -292 771 -292V-289Q769 -282 767 -275Q767 -261 786 -244Q798 -251 809 -258L810 -256Q810 -254 806 -250Q801 -245 801 -242V-240H804Q817 -240 835 -254Q854 -269 866 -269H868Q853 -254 835 -242Q816 -230 809 -207Q815 -205 817 -205Q824 -205 838 -213Q852 -221 858 -221H859V-219Q858 -213 850 -213Q848 -208 839 -201Q826 -191 826 -182Q826 -178 827 -175L829 -174Q832 -176 834 -178L836 -177Q832 -161 832 -154Q832 -144 836 -135Q822 -107 817 -80Q809 -72 786 -72Q764 -72 756 -65Q756 -62 759 -62Q761 -62 761 -60Z"/>
</svg>