<svg xmlns="http://www.w3.org/2000/svg" viewBox="0 -800 1024 1024">
	<path fill="#000000" d="M750 -185Q738 -175 732 -175Q730 -179 730 -180Q730 -187 741 -187Q744 -187 750 -185ZM80 -350H78Q78 -352 77 -355Q77 -368 90 -368Q95 -368 97 -367Q94 -361 90 -355Q87 -350 80 -350ZM351 24V23Q354 22 358 22Q370 22 375 36Q372 37 369 37Q351 37 351 24ZM551 -310Q555 -324 555 -331Q555 -339 551 -344Q508 -342 494 -325Q500 -311 509 -299Q531 -302 551 -310ZM712 -145H713Q707 -135 698 -121Q688 -108 686 -89Q674 -89 661 -90Q615 -90 575 -83Q570 -72 570 -55Q570 -37 581 5Q588 32 589 45Q590 50 590 55Q590 97 535 124Q523 119 519 119Q516 119 510 121Q496 109 484 96Q472 83 455 74Q439 66 422 59Q405 52 390 40Q401 40 425 51Q442 59 454 61Q450 55 432 53Q424 45 402 35Q382 26 375 20Q367 18 356 14Q344 10 341 -1Q372 10 397 20Q421 30 455 37V36Q455 31 443 26Q429 21 427 14Q438 17 446 17Q468 17 479 -3Q489 -21 489 -50Q464 -48 447 -38Q429 -27 412 -17Q391 -24 377 -36Q363 -48 347 -58Q345 -72 345 -81Q346 -100 346 -119V-127Q352 -134 374 -142Q388 -147 396 -152Q448 -155 500 -172V-194Q456 -189 399 -167Q350 -150 300 -134Q279 -125 263 -108Q248 -92 232 -80Q221 -73 210 -73Q183 -77 156 -82Q130 -84 120 -89Q103 -98 101 -121Q104 -132 106 -143V-145Q102 -162 98 -180Q98 -188 100 -193Q114 -223 150 -246Q185 -268 214 -286Q211 -279 199 -269Q182 -254 182 -244Q182 -241 184 -235Q190 -234 202 -234Q235 -235 267 -244Q299 -254 334 -262Q379 -271 424 -281L423 -285Q425 -292 426 -299V-301Q423 -309 406 -317Q393 -323 390 -326Q382 -333 376 -346Q369 -360 362 -364Q366 -369 371 -374Q371 -377 365 -377H364Q357 -377 357 -381V-382Q369 -384 388 -399Q410 -416 425 -416Q432 -416 441 -413Q480 -424 494 -426Q487 -441 480 -457Q429 -445 408 -436Q374 -422 353 -398Q340 -378 328 -355Q313 -336 287 -336Q261 -336 221 -355Q213 -360 202 -368Q191 -376 181 -377Q177 -377 172 -372Q169 -369 167 -369L164 -370L163 -374Q163 -378 167 -386Q159 -394 149 -394Q138 -393 128 -387Q117 -381 106 -377Q119 -393 135 -406Q122 -435 103 -435Q100 -435 94 -433Q96 -436 102 -441Q109 -445 110 -449V-453Q109 -469 102 -477Q94 -486 88 -497Q82 -498 77 -499Q71 -500 70 -506Q78 -509 86 -512Q90 -536 98 -555Q89 -597 89 -601V-604Q94 -601 103 -583Q110 -569 122 -568V-571Q120 -579 117 -588Q117 -589 119 -593Q124 -592 126 -584Q129 -576 132 -575Q145 -584 199 -586Q203 -588 205 -597Q207 -605 209 -607Q213 -606 213 -600Q213 -595 212 -590Q212 -586 214 -584Q226 -575 244 -571L268 -618Q269 -615 269 -611Q269 -604 264 -589Q260 -577 260 -569V-566Q262 -550 275 -541Q288 -533 297 -521Q315 -530 323 -530H326Q344 -541 360 -542Q366 -545 372 -549Q378 -549 378 -547Q385 -551 391 -556Q404 -558 417 -561Q448 -573 485 -581Q474 -629 452 -664Q430 -700 408 -736Q408 -740 414 -743Q419 -745 420 -747V-749Q416 -751 412 -753Q419 -763 440 -776Q457 -787 464 -794Q493 -812 545 -816Q567 -816 578 -808Q587 -802 596 -774Q603 -753 608 -745Q623 -727 631 -710Q626 -690 626 -689Q626 -685 628 -681Q613 -674 605 -653Q600 -640 594 -612Q664 -631 730 -646Q756 -650 763 -653Q775 -662 787 -671Q803 -676 819 -682Q831 -689 843 -697L844 -693Q844 -690 842 -684Q851 -683 855 -677Q859 -672 865 -668Q874 -670 884 -679Q895 -688 900 -690Q893 -682 885 -674Q877 -666 876 -654V-650H878Q881 -650 886 -655Q892 -661 898 -661H901Q889 -655 889 -640Q889 -622 904 -618V-612Q906 -597 911 -583Q906 -578 906 -568Q907 -556 908 -545Q908 -539 907 -536Q890 -528 888 -517Q883 -518 873 -518H867Q835 -514 774 -478Q755 -464 741 -448Q732 -440 712 -428Q689 -414 680 -404Q688 -421 698 -436Q697 -445 684 -445Q673 -445 670 -437Q671 -447 672 -457Q672 -465 667 -470Q653 -468 643 -461Q647 -473 663 -491Q675 -505 680 -514Q648 -512 610 -501Q596 -497 554 -482Q557 -476 575 -458H582Q590 -458 608 -464Q622 -469 634 -470Q633 -468 633 -465Q635 -458 637 -452H639Q647 -454 654 -457V-454Q654 -451 651 -448Q648 -446 648 -443V-440Q653 -419 658 -399V-398Q657 -384 636 -377Q636 -371 644 -371Q652 -371 652 -365V-364L655 -363Q659 -364 663 -365H665Q658 -358 658 -346V-343Q653 -340 648 -336Q642 -332 640 -325Q694 -336 751 -347Q807 -357 843 -392Q843 -384 842 -376Q842 -370 845 -367Q851 -365 854 -365Q869 -367 883 -370H885L886 -368Q883 -363 879 -349Q879 -345 880 -343L882 -342Q887 -344 892 -347H894Q892 -339 889 -331V-329Q890 -323 895 -317Q900 -311 901 -308Q893 -277 883 -267Q869 -253 836 -253Q772 -253 702 -239Q660 -231 580 -208L586 -191H589Q597 -191 611 -196Q623 -200 630 -200Q636 -200 642 -197Q653 -206 667 -214Q666 -206 664 -199Q664 -194 668 -190Q694 -197 720 -205Q717 -202 701 -190Q689 -181 689 -169V-166Q708 -169 723 -173Q717 -169 710 -165Q704 -160 703 -151Q703 -147 704 -145L705 -143L706 -142Q709 -143 712 -145Z"/>
</svg>