<svg xmlns="http://www.w3.org/2000/svg" viewBox="0 -800 1024 1024">
	<path fill="#000000" d="M32 -628V-629Q33 -632 34 -635V-636Q46 -636 48 -619L44 -618Q37 -620 32 -628ZM830 -259Q828 -246 826 -233Q817 -235 817 -250Q817 -260 825 -260Q828 -260 830 -259ZM882 -581V-567Q866 -568 853 -570Q839 -572 835 -583Q804 -581 782 -571Q759 -561 738 -550Q725 -563 706 -571Q704 -588 698 -595Q695 -594 690 -594Q679 -596 668 -598V-599Q668 -605 672 -606Q676 -607 679 -610H676Q669 -610 656 -603Q647 -598 641 -598Q637 -598 635 -599Q674 -625 712 -652Q671 -649 640 -638Q608 -626 570 -616Q423 -563 282 -478Q285 -462 288 -446Q292 -452 299 -459Q305 -465 313 -466Q316 -465 318 -465Q324 -469 329 -474Q335 -480 344 -480Q353 -494 387 -506Q410 -514 418 -520Q422 -518 425 -513Q429 -506 433 -505Q445 -514 462 -517H464Q459 -513 454 -509Q449 -506 447 -499H448Q465 -503 482 -508Q486 -508 492 -506Q482 -502 472 -497Q461 -493 460 -480Q460 -477 463 -477Q466 -477 468 -478L470 -477Q468 -467 468 -462Q468 -452 475 -446Q471 -439 466 -431Q460 -424 460 -412H459Q454 -412 452 -407Q450 -403 447 -399Q430 -390 412 -382Q407 -379 396 -365Q387 -354 379 -349Q372 -346 365 -345Q358 -344 355 -336Q353 -338 347 -338Q340 -338 334 -336Q326 -338 322 -346Q308 -346 296 -357Q284 -368 284 -383Q286 -391 288 -399V-401Q286 -414 284 -427Q284 -431 285 -433Q280 -430 276 -415Q272 -399 266 -394Q259 -388 246 -386Q235 -384 232 -382Q214 -388 194 -392Q175 -397 162 -408Q155 -405 147 -400Q144 -416 134 -416Q111 -410 102 -387V-390Q106 -406 117 -420Q108 -447 84 -451Q73 -451 64 -439Q71 -450 71 -460Q71 -470 61 -487Q51 -510 41 -529Q49 -542 51 -565Q53 -570 62 -580Q67 -585 67 -587V-588Q67 -592 61 -598Q54 -604 54 -608V-609Q72 -601 76 -596Q84 -602 89 -609Q95 -616 105 -619Q104 -629 95 -646Q89 -658 87 -668Q93 -665 103 -653Q119 -634 130 -630Q144 -638 164 -638H168Q171 -645 175 -665Q180 -692 189 -700Q188 -678 186 -657Q186 -625 198 -622H199Q202 -623 203 -627Q205 -632 211 -633H213V-609Q220 -603 226 -596Q231 -589 241 -586Q312 -616 394 -651Q477 -686 562 -713Q650 -734 728 -763Q747 -774 767 -778Q777 -778 783 -773Q787 -768 792 -760Q797 -752 805 -751H808L807 -747Q807 -743 808 -742Q817 -749 829 -751H833Q832 -747 826 -742Q819 -736 818 -730Q818 -727 821 -727Q825 -727 828 -728H829Q826 -723 826 -719Q826 -707 838 -706Q859 -713 862 -713Q867 -713 873 -710Q866 -705 858 -702Q849 -699 848 -690Q849 -684 857 -684H861L862 -681Q862 -677 861 -674V-672Q864 -668 876 -668Q876 -659 882 -635Q887 -615 887 -603Q887 -590 882 -581ZM948 -9V-3Q947 20 940 38Q933 56 928 74Q894 72 825 54Q745 34 700 31Q642 28 579 28Q535 28 513 29Q462 32 445 36Q410 44 400 66Q375 53 359 30Q343 6 325 -15Q324 -18 324 -24V-29Q322 -34 317 -34Q312 -35 308 -37Q374 -114 399 -216Q416 -227 434 -227Q449 -227 457 -219Q466 -203 478 -186Q490 -169 491 -150Q491 -138 484 -127Q479 -118 454 -102Q433 -88 430 -72Q455 -68 491 -68Q575 -72 659 -76Q647 -94 626 -101Q604 -108 584 -117Q586 -119 591 -119Q597 -119 598 -120Q590 -129 561 -137Q535 -144 525 -153Q538 -152 572 -144Q604 -136 626 -135Q640 -159 640 -213Q640 -242 639 -272V-289Q596 -276 577 -247Q605 -224 610 -218Q625 -200 626 -175Q620 -170 613 -165Q606 -161 603 -151Q584 -159 579 -159Q576 -159 570 -157Q565 -169 556 -176H555Q551 -176 546 -171Q541 -166 536 -166H535Q535 -169 539 -174Q544 -180 544 -186Q540 -193 531 -193Q513 -189 495 -186Q497 -189 512 -200Q523 -208 523 -214Q523 -219 513 -225Q534 -235 540 -238Q512 -261 501 -291L500 -287V-282Q500 -278 498 -277Q462 -269 445 -260Q420 -248 409 -226L400 -223Q368 -190 344 -154Q335 -142 263 -49Q233 -11 221 17Q219 20 216 21Q213 22 213 27L214 31Q181 48 171 74Q162 73 151 68Q139 62 133 62H128Q124 46 115 38Q119 26 119 20Q119 -2 105 -22L108 -24L111 -23L112 -24Q107 -49 87 -88Q66 -131 61 -157Q69 -148 97 -98Q119 -60 141 -46Q170 -60 191 -82Q212 -104 236 -123Q234 -127 222 -129Q206 -132 205 -141H200Q184 -141 174 -152Q163 -164 163 -181Q163 -189 164 -193Q149 -209 144 -232Q144 -240 149 -248Q149 -253 142 -258Q137 -262 137 -263L138 -265Q146 -261 151 -261L155 -262V-263Q155 -268 146 -274Q135 -282 134 -289Q151 -284 167 -280Q175 -280 182 -288Q192 -283 202 -283Q239 -287 273 -304Q410 -351 469 -383V-381Q469 -372 483 -363Q494 -356 497 -349Q500 -352 509 -371Q505 -381 505 -390Q505 -426 524 -442V-429Q524 -421 525 -418Q550 -421 588 -435Q624 -448 642 -451V-462Q642 -518 619 -518H618Q624 -525 629 -533Q628 -540 623 -546Q617 -552 617 -556Q630 -561 643 -569Q657 -577 671 -578H676Q690 -575 708 -549Q725 -525 741 -523Q730 -509 730 -491Q730 -484 731 -480H734Q742 -480 752 -485Q762 -490 768 -490Q772 -490 774 -489Q758 -485 757 -474Q757 -462 774 -462H775Q780 -462 793 -469Q807 -476 813 -476Q816 -476 818 -475Q816 -470 804 -463Q793 -456 790 -449L792 -448Q797 -448 801 -449H805Q798 -438 790 -427Q793 -419 795 -411Q787 -402 787 -386Q789 -370 790 -355Q777 -341 743 -332Q718 -325 709 -320Q711 -195 721 -153Q728 -137 731 -123V-121Q731 -111 722 -98Q713 -85 713 -78Q733 -74 750 -74Q805 -74 805 -109V-110Q807 -107 809 -104Q817 -119 817 -164Q817 -210 824 -226Q826 -178 832 -133V-146Q834 -195 836 -245V-258Q836 -264 835 -271Q835 -283 843 -285V-263Q843 -222 842 -182Q842 -154 845 -129Q851 -165 854 -205Q861 -202 861 -195Q861 -193 858 -178V-170Q858 -113 883 -93Q888 -121 892 -150Q897 -115 907 -87Q930 -70 939 -61Q954 -45 962 -25Q955 -17 948 -9Z"/>
</svg>