<svg xmlns="http://www.w3.org/2000/svg" viewBox="0 -800 1024 1024">
	<path fill="#000000" d="M823 -593V-598Q823 -607 832 -618Q835 -615 838 -613Q832 -596 823 -593ZM105 -524H107Q114 -524 118 -519Q122 -515 125 -509Q121 -507 120 -507Q114 -509 107 -511Q106 -516 104 -522ZM370 -324V-316Q362 -308 357 -296Q355 -297 352 -297Q342 -293 332 -289Q329 -288 325 -288Q296 -291 266 -295H257Q247 -296 236 -298H234Q227 -292 219 -287V-289Q221 -301 225 -308Q211 -315 196 -321Q181 -327 171 -337Q142 -336 107 -311Q98 -302 88 -299V-300Q89 -307 98 -313Q108 -319 116 -325Q136 -340 147 -355H145Q141 -355 131 -349Q123 -344 119 -344L116 -345V-346Q117 -356 124 -358Q132 -361 138 -365Q139 -368 139 -372Q139 -397 108 -397Q98 -397 89 -394Q92 -402 110 -408Q123 -413 128 -417V-422Q128 -436 122 -442Q135 -443 142 -450Q148 -457 154 -464Q152 -472 142 -483Q131 -495 129 -505Q135 -503 146 -493Q154 -486 160 -483Q164 -486 168 -490V-492Q167 -497 165 -503V-506H166Q168 -506 172 -503Q177 -499 181 -499H182Q187 -499 196 -505Q203 -510 209 -511Q212 -512 218 -512Q233 -512 263 -494Q268 -495 273 -504Q278 -514 286 -514Q281 -507 281 -500Q282 -483 296 -481Q302 -481 305 -483Q310 -462 325 -445Q327 -443 354 -417Q373 -390 373 -343V-336Q370 -334 370 -324ZM525 -298H522Q505 -300 493 -311Q481 -322 467 -330V-337Q466 -354 459 -364Q452 -374 445 -385Q451 -383 456 -382H458Q456 -394 440 -416Q422 -442 419 -460Q430 -448 441 -434Q451 -419 468 -414Q478 -450 478 -495Q478 -509 470 -618Q467 -680 422 -706V-710Q422 -718 418 -728Q477 -785 534 -806Q562 -793 584 -790Q595 -776 607 -762Q619 -749 635 -740Q635 -714 649 -706Q646 -701 646 -695Q646 -687 650 -677Q646 -670 643 -661V-658Q614 -649 602 -574Q594 -508 594 -470Q594 -418 606 -383Q596 -352 572 -328Q563 -318 552 -308Q541 -299 525 -298ZM912 -356H911Q910 -356 907 -362Q904 -370 900 -371Q890 -374 876 -374Q848 -374 840 -362Q835 -378 813 -391Q787 -407 781 -415Q784 -393 787 -371Q794 -353 797 -336V-334Q796 -323 784 -309Q776 -300 773 -292H771Q768 -292 765 -293H763Q742 -283 723 -277Q719 -275 717 -271Q681 -257 653 -233Q624 -208 597 -183Q569 -159 540 -135Q513 -109 489 -83Q449 -44 410 -4Q372 36 328 71Q308 88 301 95Q286 111 281 127Q271 129 266 129Q240 129 222 106Q218 106 213 110Q208 115 204 115Q209 104 216 95Q211 84 199 77Q192 63 192 47Q196 14 199 -20Q199 -31 196 -43Q197 -47 202 -50Q208 -54 209 -57Q207 -95 196 -124Q185 -153 177 -184Q189 -177 194 -162Q199 -147 204 -133Q206 -127 228 -81Q230 -85 230 -88Q230 -93 225 -102Q220 -111 220 -115Q220 -119 222 -121Q233 -99 251 -76Q282 -89 310 -107Q338 -124 366 -142Q417 -175 471 -216Q590 -306 661 -388Q659 -393 659 -404V-412Q659 -421 656 -427Q684 -433 735 -433H752Q722 -459 690 -535Q690 -539 693 -540Q696 -541 699 -541Q698 -546 692 -550Q687 -553 686 -557Q721 -559 736 -563Q761 -570 769 -587Q772 -586 772 -579Q773 -571 775 -569Q779 -567 785 -567Q793 -567 807 -576Q817 -582 822 -584Q820 -574 820 -571Q820 -551 840 -540Q845 -540 851 -545Q858 -550 864 -550Q863 -542 861 -534V-530Q864 -529 867 -529Q878 -529 892 -541Q906 -553 915 -553Q918 -552 921 -552Q912 -543 900 -535Q888 -527 887 -513Q887 -507 890 -500L905 -487Q909 -487 912 -491Q916 -495 919 -495L923 -494Q919 -485 919 -475Q923 -451 927 -427Q927 -417 920 -401Q912 -384 912 -376Q914 -369 915 -363Q915 -360 912 -356Z"/>
</svg>