<svg xmlns="http://www.w3.org/2000/svg" viewBox="0 -800 1024 1024">
	<path fill="#000000" d="M484 36V25H486Q496 28 505 31Q505 37 497 37Q491 37 484 36ZM845 -711H844Q838 -708 831 -705H830V-708Q830 -722 844 -722L845 -718ZM943 -487V-485Q940 -471 936 -457Q929 -460 929 -473Q929 -490 937 -490Q940 -490 943 -487ZM678 -566Q649 -564 633 -558Q613 -550 601 -532Q617 -518 635 -509Q654 -537 678 -566ZM577 -306H591Q594 -326 609 -341Q625 -357 642 -357Q658 -357 669 -341Q671 -333 672 -326Q686 -330 700 -334Q685 -351 641 -386Q605 -350 577 -306ZM456 -165V-159Q457 -151 457 -143Q457 -140 455 -134Q453 -127 445 -121Q436 -114 434 -108Q426 -108 413 -114Q401 -119 392 -120Q392 -127 387 -131Q386 -132 377 -137Q376 -146 372 -159Q336 -148 314 -136Q284 -124 256 -111Q223 -89 208 -76Q165 -44 155 -33Q155 -27 151 -19Q146 -9 146 -2Q134 3 126 3Q109 2 94 -8Q79 -18 64 -29Q57 -51 37 -62Q34 -77 34 -91Q36 -118 37 -145Q36 -155 35 -165Q38 -184 62 -205Q96 -234 99 -239Q108 -251 121 -276Q131 -296 140 -308L137 -321L140 -322Q144 -319 148 -317H149Q151 -325 151 -328Q151 -333 146 -346Q171 -344 188 -326Q204 -309 204 -285V-283Q198 -257 194 -229Q194 -225 196 -215Q202 -216 217 -223Q230 -229 237 -231Q229 -305 228 -389Q227 -475 193 -526Q202 -565 204 -602Q204 -615 199 -632Q204 -631 209 -623Q213 -615 216 -615L219 -616V-618Q219 -624 210 -634Q200 -645 200 -652V-655Q207 -654 217 -641Q227 -629 235 -626Q237 -628 237 -631Q237 -634 232 -639Q226 -645 226 -650Q242 -647 255 -639Q273 -647 289 -650H291Q298 -648 304 -641Q309 -634 315 -628Q331 -619 343 -608Q348 -602 350 -586Q353 -568 360 -563Q361 -559 361 -551Q358 -513 342 -470Q332 -433 331 -390Q329 -347 326 -300Q326 -291 325 -283Q325 -276 327 -272H329Q338 -275 346 -278H348V-281Q344 -309 339 -338Q339 -345 340 -349Q341 -358 353 -371Q362 -381 364 -386Q379 -379 391 -376Q394 -376 398 -378Q417 -362 432 -323Q460 -251 463 -203Q464 -200 464 -192Q464 -185 463 -182Q460 -173 456 -165ZM977 -206V-200Q976 -192 969 -183Q961 -173 961 -167Q939 -157 926 -157Q918 -157 915 -159Q912 -158 908 -158Q889 -158 869 -175Q861 -182 838 -206Q788 -259 731 -303Q736 -283 736 -280V-277Q725 -262 725 -251V-245Q713 -238 696 -236Q679 -234 672 -220Q676 -218 677 -218Q692 -222 705 -228Q713 -221 721 -215Q744 -221 746 -221Q746 -218 741 -215Q736 -212 736 -207V-203H737Q742 -204 746 -205H749Q743 -196 736 -189Q729 -182 728 -170Q728 -167 730 -159Q727 -154 717 -152Q713 -151 698 -149Q674 -146 674 -131V-128Q737 -133 820 -165Q828 -151 838 -151Q852 -153 866 -156Q865 -152 860 -150Q854 -147 853 -145Q857 -139 866 -139Q879 -140 892 -142Q878 -137 878 -125Q878 -115 890 -115Q895 -115 898 -116Q883 -102 880 -77Q877 -52 857 -44Q822 -52 763 -52Q703 -52 674 -42Q673 -38 673 -30Q673 -12 680 18Q687 48 687 58V63Q683 76 678 89V92Q668 99 625 118Q616 107 604 98Q592 88 589 76Q583 70 571 70V67Q571 64 574 63Q578 61 579 60Q574 57 555 56Q542 56 539 53Q556 50 573 46Q562 39 544 39Q526 39 511 37Q520 32 558 28Q590 25 598 12V9Q601 -10 604 -30V-33Q597 -37 587 -37Q579 -37 547 -29Q504 -17 491 -7Q488 -5 479 5Q471 14 465 16Q461 18 454 18Q436 16 420 6Q419 0 417 -7Q391 -19 391 -45V-47Q392 -54 398 -64Q404 -74 404 -79V-83Q445 -107 485 -126Q485 -121 475 -112Q465 -103 463 -98Q492 -102 533 -106Q574 -111 611 -120Q607 -122 603 -122Q592 -119 580 -117Q570 -124 560 -131Q549 -137 543 -148Q544 -155 544 -162Q544 -168 539 -173Q542 -172 545 -172Q554 -173 557 -179Q561 -185 564 -191H570Q581 -191 607 -197Q606 -204 601 -204Q592 -201 583 -198Q569 -200 562 -211Q554 -223 543 -233Q544 -239 544 -245Q544 -254 539 -258Q530 -252 527 -233Q515 -227 505 -227Q484 -230 459 -240Q456 -296 441 -338L442 -340Q447 -337 452 -334Q450 -342 440 -356Q430 -370 429 -378Q438 -375 449 -361Q459 -347 468 -344Q502 -359 531 -387Q549 -405 580 -443Q575 -450 558 -460Q542 -470 535 -479Q518 -467 505 -449Q492 -431 476 -421Q475 -437 460 -444Q449 -449 428 -452Q428 -455 419 -469Q415 -468 411 -465Q407 -461 403 -461H401Q408 -475 412 -489Q412 -492 411 -494Q408 -503 401 -503Q393 -503 372 -488V-490Q376 -502 388 -512Q443 -576 459 -597Q499 -649 521 -691V-693Q521 -714 503 -714Q497 -714 478 -707Q486 -718 506 -735Q530 -755 538 -768Q558 -777 578 -791Q598 -805 624 -806Q631 -806 635 -805Q650 -802 661 -792Q667 -787 679 -768Q678 -765 678 -759Q678 -745 692 -726Q704 -710 704 -699Q704 -694 703 -691Q700 -678 680 -664Q658 -649 654 -638Q691 -643 724 -661Q728 -663 734 -671Q742 -681 747 -683Q756 -686 765 -689Q779 -696 786 -696Q795 -696 805 -689Q817 -694 824 -699L825 -695Q824 -690 823 -685Q823 -682 826 -679Q857 -685 887 -692Q885 -687 871 -684Q861 -682 857 -679Q839 -669 838 -655L841 -654Q849 -657 857 -661V-660Q857 -655 849 -647Q841 -638 839 -630V-618Q839 -613 838 -611Q840 -605 842 -599Q832 -588 827 -569Q778 -562 752 -529Q726 -496 702 -461Q798 -396 872 -337Q892 -344 897 -367Q901 -391 907 -412Q912 -407 912 -399Q909 -377 905 -356Q905 -347 907 -343Q913 -360 917 -390Q923 -433 930 -447Q931 -441 931 -430Q927 -388 923 -346Q923 -335 924 -329Q929 -341 934 -370Q940 -409 950 -422Q954 -418 954 -408Q952 -393 950 -378Q942 -330 942 -323Q942 -311 947 -294H948Q950 -294 952 -299Q954 -304 955 -304L956 -303Q961 -302 961 -299Q960 -296 959 -293Q960 -281 967 -257Q977 -220 977 -206Z"/>
</svg>