<svg xmlns="http://www.w3.org/2000/svg" viewBox="0 -800 1024 1024">
	<path fill="#000000" d="M500 -272Q499 -254 487 -216Q477 -185 474 -169Q468 -148 463 -103Q459 -65 453 -48Q441 -50 433 -50Q426 -50 422 -46Q418 -56 402 -64Q382 -74 380 -87Q346 -73 318 -55Q289 -37 261 -19L240 6Q233 17 223 26Q214 35 211 51Q194 57 182 70Q142 60 115 35Q110 7 82 -9Q87 -24 94 -34Q84 -45 84 -58Q84 -78 107 -103Q99 -128 94 -149Q90 -171 75 -190Q60 -207 45 -224Q30 -241 27 -265Q26 -271 26 -289Q26 -324 39 -328Q33 -347 28 -367Q33 -366 39 -360Q44 -354 48 -353Q45 -364 39 -378Q30 -399 28 -411Q49 -385 66 -369V-374Q64 -385 62 -397V-399Q70 -382 102 -368Q125 -358 133 -350Q153 -334 177 -312Q201 -290 203 -259V-253Q203 -243 197 -214Q191 -185 191 -166Q191 -146 197 -133Q212 -146 232 -154V-164Q232 -202 231 -241Q231 -292 239 -316Q237 -361 240 -391Q237 -442 228 -471Q215 -511 185 -528Q196 -544 207 -562Q217 -580 233 -592Q254 -608 295 -608Q317 -608 327 -601Q341 -587 352 -562Q365 -544 378 -528Q391 -512 395 -488Q387 -467 376 -445Q366 -424 365 -399Q365 -390 366 -385Q349 -347 347 -295Q345 -243 342 -198H344Q364 -202 384 -207H386Q390 -216 390 -229Q390 -243 382 -269Q374 -295 374 -307Q374 -315 377 -324Q388 -346 406 -352Q416 -354 429 -354Q448 -354 457 -350Q469 -343 478 -325Q487 -306 497 -293Q499 -293 503 -295Q501 -301 501 -304V-307Q506 -308 516 -320Q526 -331 532 -333Q580 -343 656 -378Q658 -382 659 -386H670Q677 -399 685 -400Q684 -403 684 -410Q684 -423 691 -443Q699 -466 699 -480V-482Q685 -472 638 -450Q591 -428 575 -411Q569 -394 559 -378Q542 -362 515 -360Q512 -360 508 -361Q477 -368 469 -423Q434 -456 434 -493Q434 -503 441 -519Q447 -533 448 -538Q449 -543 449 -551Q449 -564 448 -578V-585Q450 -593 459 -602Q470 -612 472 -615Q477 -622 481 -630Q485 -638 496 -639Q494 -633 494 -631Q494 -624 499 -619Q566 -641 626 -670Q647 -683 655 -683Q660 -683 666 -680L711 -701Q721 -728 744 -728H747Q760 -745 783 -745Q817 -745 849 -717Q858 -724 872 -728L874 -725Q874 -724 871 -721Q865 -716 865 -712V-710Q874 -712 888 -726Q904 -742 918 -744Q909 -733 898 -720Q887 -708 886 -688Q887 -684 887 -680Q893 -681 898 -690Q904 -700 912 -701V-704Q912 -708 914 -708H916L918 -705Q914 -697 909 -689Q911 -669 915 -656Q918 -656 919 -660Q920 -664 922 -664L926 -663Q922 -651 922 -646Q926 -622 930 -599Q930 -589 926 -581Q930 -569 931 -561Q888 -528 879 -516L881 -515Q885 -516 888 -517L891 -515Q889 -509 884 -507Q879 -506 875 -503Q863 -491 849 -483L837 -465Q821 -421 799 -378Q795 -368 786 -338Q776 -303 766 -285Q760 -287 756 -287Q751 -286 745 -286Q733 -286 727 -293Q703 -288 658 -275Q623 -264 617 -244V-242Q621 -225 625 -208Q623 -184 608 -163Q608 -157 611 -156Q594 -133 576 -113Q558 -93 550 -70Q562 -64 573 -64Q590 -65 607 -67Q616 -65 624 -64Q628 -64 632 -67Q643 -63 660 -63Q677 -63 722 -70Q773 -78 786 -78Q806 -78 818 -82Q831 -86 838 -98Q843 -119 847 -141Q848 -146 848 -153Q848 -160 856 -161H858Q857 -143 856 -125Q856 -112 859 -108Q865 -110 865 -115Q864 -120 863 -125V-174Q863 -242 872 -269Q877 -230 877 -186Q877 -142 890 -111Q891 -117 891 -123Q888 -162 885 -201Q885 -219 887 -227Q893 -225 893 -214V-199Q897 -183 900 -167Q903 -148 906 -131Q909 -113 922 -105Q926 -90 935 -79Q944 -69 953 -58V-53Q953 -45 962 -29Q945 51 932 79H918Q899 80 880 80Q861 80 849 76H831Q816 81 786 80Q763 80 739 79Q700 79 679 87Q669 84 658 80L610 88H595Q516 88 500 50Q497 33 493 15Q485 -7 482 -33Q482 -63 498 -123Q515 -187 515 -215Q515 -247 500 -272Z"/>
</svg>