<svg xmlns="http://www.w3.org/2000/svg" viewBox="0 -800 1024 1024">
	<path fill="#000000" d="M435 -175Q429 -180 404 -205Q404 -224 396 -226Q385 -208 373 -190Q365 -178 357 -169Q349 -160 347 -146Q358 -151 387 -155Q427 -160 435 -175ZM530 -139L493 -135Q475 -128 464 -107Q481 -96 485 -96Q497 -96 530 -139ZM923 -213Q918 -197 908 -192Q906 -194 906 -201V-215Q912 -217 915 -217Q920 -217 923 -213ZM819 -774Q811 -765 795 -760V-762Q797 -777 811 -778Q816 -778 819 -774ZM780 -458Q762 -454 760 -446Q761 -442 765 -442Q770 -442 774 -443Q777 -443 778 -441L779 -438Q779 -436 774 -433Q768 -429 767 -426Q767 -415 778 -402Q785 -394 787 -387Q770 -384 770 -364V-362Q756 -360 750 -358Q746 -356 743 -350Q739 -344 737 -342Q659 -339 631 -335Q636 -311 662 -270Q681 -241 687 -226Q688 -232 695 -244Q702 -255 702 -260V-261Q701 -268 695 -271Q689 -274 683 -279Q705 -312 749 -325H752Q759 -325 769 -317Q777 -310 781 -310H785Q792 -310 805 -318Q816 -325 823 -325H824Q823 -319 818 -313Q811 -304 811 -298V-295Q815 -289 820 -289Q831 -294 841 -300V-298Q838 -288 835 -278Q835 -273 837 -271L839 -269Q843 -271 847 -273L849 -272V-271Q848 -266 844 -254Q839 -241 838 -228V-224Q843 -217 847 -210Q844 -204 839 -198Q834 -192 834 -183V-181Q826 -183 824 -183Q814 -182 804 -181L786 -173Q777 -162 767 -153Q757 -144 752 -132Q793 -57 861 -22Q873 -32 876 -49Q879 -66 882 -85Q888 -80 888 -58V-45Q888 -32 891 -25Q899 -74 899 -136V-154Q899 -168 908 -173Q913 -170 913 -165Q911 -158 909 -151V-147Q911 -126 912 -106Q913 -93 913 -80V-65Q913 -33 917 -19Q916 -14 914 -10L915 -6Q920 -14 920 -34V-67L923 -93V-96Q923 -107 922 -118Q922 -137 933 -143Q934 -136 934 -122Q933 -93 932 -65Q932 -37 938 -20Q941 -17 944 -14Q941 -2 941 12Q941 48 958 72Q950 84 947 99Q925 107 915 113Q906 119 905 120Q901 124 897 128Q858 122 853 121Q840 118 825 111Q802 100 802 75V74Q783 47 763 13L737 -26Q725 -33 709 -62Q699 -57 693 -47Q687 -37 681 -27Q676 -27 668 -32Q660 -37 652 -37Q647 -54 624 -65V-68Q624 -71 625 -73L624 -76Q613 -83 602 -91Q605 -95 611 -96Q617 -97 622 -99Q622 -105 612 -112Q603 -119 602 -128Q608 -127 625 -117Q642 -130 652 -154Q608 -240 560 -325Q487 -319 436 -297Q428 -281 420 -265H422Q434 -268 445 -271Q450 -271 453 -268L484 -273Q488 -287 520 -293Q525 -296 528 -301Q531 -305 539 -306H541L543 -303Q542 -298 541 -293Q542 -289 548 -285Q554 -281 555 -276Q562 -277 569 -279Q571 -279 575 -277Q568 -271 562 -266Q555 -261 554 -251V-249Q557 -235 560 -222V-220Q553 -217 545 -213Q538 -209 536 -202Q515 -199 503 -195Q503 -194 510 -183Q527 -188 542 -195Q556 -202 576 -203H581Q598 -203 612 -197Q628 -190 628 -178V-177Q627 -168 620 -159Q613 -151 607 -144Q569 -104 555 -85Q558 -80 562 -80Q570 -82 578 -85Q579 -79 580 -73V-70Q590 -65 595 -65H601Q603 -46 605 -27Q605 -20 604 -17Q596 -13 590 -9Q584 -5 584 4V5Q563 3 542 1Q520 -2 509 -14Q501 -11 493 -9H491L478 12Q475 19 468 28Q462 37 461 50Q459 49 454 49Q442 51 430 53L426 52Q422 51 408 40Q397 31 391 29V26Q391 20 390 13L391 10Q372 3 353 -6Q359 -8 362 -8Q369 -7 376 -7Q366 -13 346 -13H329Q311 -13 303 -17Q340 -22 372 -23Q404 -24 424 -40Q413 -48 376 -48Q375 -54 363 -67Q349 -82 349 -89V-91Q350 -96 365 -102Q380 -108 382 -112Q361 -114 353 -122Q346 -130 342 -131Q332 -125 323 -115Q312 -94 300 -73Q294 -73 292 -70L264 -30Q249 18 208 49H203Q141 49 130 -9Q123 -14 109 -17Q109 -23 118 -26Q127 -29 128 -33V-42Q128 -58 116 -68Q107 -75 89 -83Q92 -86 97 -86Q107 -83 116 -81Q120 -81 123 -85Q117 -94 97 -101Q80 -107 75 -111Q81 -113 83 -113Q97 -110 111 -108Q116 -108 118 -109Q110 -116 93 -120Q76 -124 59 -128Q43 -131 42 -136Q52 -138 56 -138Q91 -133 126 -128Q132 -128 136 -129Q150 -130 168 -142Q171 -144 198 -165Q223 -186 254 -223Q266 -237 279 -250Q292 -264 300 -281Q287 -276 271 -276Q252 -276 239 -283Q224 -291 224 -305V-307Q200 -329 200 -351Q201 -357 201 -364Q204 -379 213 -390Q220 -398 235 -410Q245 -420 254 -431Q282 -449 306 -462Q323 -478 344 -483Q343 -479 336 -473Q329 -467 328 -460Q336 -453 347 -453Q372 -457 397 -462Q404 -462 410 -459L449 -467Q450 -479 461 -481Q475 -484 488 -487Q485 -499 478 -502Q476 -503 462 -506Q452 -507 441 -509Q423 -509 422 -475Q416 -479 416 -486Q418 -495 419 -504Q419 -509 418 -511Q413 -510 412 -504Q411 -499 409 -495Q401 -495 401 -502Q405 -514 409 -526Q408 -529 403 -530Q399 -531 397 -534Q405 -546 423 -559Q440 -571 448 -582L449 -584Q427 -579 411 -574Q352 -556 332 -546Q292 -526 275 -496L198 -508Q194 -516 189 -524Q184 -532 175 -533H173Q183 -540 186 -571Q188 -593 193 -602Q189 -612 184 -622Q204 -631 229 -636L260 -643Q261 -655 270 -662Q280 -669 291 -676Q318 -697 343 -709Q359 -719 375 -727Q371 -723 371 -713V-709Q376 -705 383 -692Q389 -680 395 -676Q392 -670 392 -667Q392 -664 393 -662Q427 -666 461 -670Q458 -683 456 -694Q454 -706 441 -709Q436 -725 429 -734Q422 -744 413 -758Q404 -773 404 -785V-788Q407 -800 431 -813Q454 -825 472 -827Q479 -828 493 -828Q551 -828 562 -778L572 -766Q577 -752 577 -733Q577 -722 575 -692Q601 -696 627 -700Q635 -700 639 -699Q634 -709 634 -720Q637 -746 652 -766L690 -748Q696 -751 703 -758Q712 -767 717 -769Q712 -759 712 -750Q712 -734 725 -730Q735 -733 753 -743Q774 -755 789 -757Q779 -748 763 -738Q748 -729 746 -712Q747 -700 768 -691Q780 -697 791 -701Q794 -701 796 -700Q789 -689 781 -679Q785 -668 793 -660Q811 -660 854 -651Q848 -649 832 -649H824Q799 -649 793 -642Q790 -627 790 -614Q790 -600 795 -589Q792 -590 785 -590Q774 -591 764 -590Q754 -589 753 -578Q746 -589 735 -592Q725 -594 713 -598Q706 -601 696 -609Q682 -620 675 -621H671Q654 -617 637 -614H634Q598 -614 527 -598Q523 -597 518 -596Q534 -586 541 -583Q577 -572 588 -556Q598 -545 601 -534Q601 -529 592 -523Q584 -517 583 -511V-509Q607 -518 618 -520L619 -523Q654 -528 679 -542L701 -540Q701 -536 689 -535Q679 -534 679 -531Q700 -515 721 -499Q716 -489 710 -480Q730 -471 749 -462Q751 -461 754 -461Q761 -461 773 -465Q759 -479 754 -500Q749 -511 744 -522Q744 -525 743 -529Q745 -541 746 -553H748Q753 -552 757 -552H760Q765 -556 768 -583H769Q776 -583 777 -574Q778 -566 781 -564Q788 -567 792 -584Q810 -572 830 -566Q839 -572 844 -573H848Q845 -570 845 -562Q845 -558 848 -557Q851 -556 859 -556H862Q872 -556 897 -574Q919 -590 928 -590H932Q928 -580 905 -569Q878 -557 874 -538L875 -534Q879 -522 894 -522Q912 -524 929 -526Q937 -526 941 -523Q916 -523 902 -505Q889 -488 889 -460Q889 -450 890 -446Q895 -435 898 -425H896Q891 -425 884 -435Q878 -443 873 -445Q852 -437 832 -437H815Q801 -453 788 -453H785Q783 -455 780 -458Z"/>
</svg>