<svg xmlns="http://www.w3.org/2000/svg" viewBox="0 -800 1024 1024">
	<path fill="#000000" d="M486 -194Q486 -201 485 -204Q485 -210 486 -213V-217L485 -221Q485 -223 478 -222Q480 -228 480 -230L478 -232L476 -235L474 -232Q471 -228 464 -223L463 -228Q462 -237 467 -250Q469 -254 469 -256Q470 -262 471 -269Q471 -279 473 -283Q483 -305 508 -306Q528 -308 539 -294Q542 -291 544 -283Q545 -279 554 -269Q546 -261 544 -244Q542 -229 537 -220Q526 -119 515 -18Q516 -14 517 -10V-8Q516 2 511 15Q504 32 504 39Q499 43 487 45Q467 45 446 44Q434 46 429 52V50Q423 15 369 -2Q401 -6 406 -11Q403 -23 382 -33Q360 -43 349 -49Q367 -46 384 -43Q385 -43 401 -41Q393 -55 366 -65Q359 -70 328 -80Q301 -89 295 -93L330 -87Q371 -76 402 -63Q461 -48 470 -82Q486 -136 486 -194ZM702 4H713Q717 15 723 22Q721 23 718 23Q712 23 707 17Q703 12 702 4ZM67 -236V-231Q66 -218 65 -205Q51 -208 51 -229V-236Q57 -240 59 -240Q63 -240 67 -236ZM654 14V16Q650 28 646 40Q638 40 634 45Q630 50 624 54Q560 45 543 -14Q548 -19 548 -32Q548 -41 547 -46Q557 -44 558 -38Q576 -45 588 -45Q592 -44 596 -44Q603 -43 608 -38Q613 -34 617 -32H619Q622 -32 631 -37Q642 -43 651 -43Q645 -32 635 -26Q638 -22 641 -22Q648 -22 655 -32V-30Q652 -25 649 -20V-16Q652 -1 654 14ZM664 -197Q664 -213 650 -238Q639 -259 639 -272V-274Q641 -297 663 -314Q686 -331 702 -344L701 -341Q703 -335 705 -329L707 -328Q709 -330 716 -333L719 -332L749 -296Q772 -267 772 -252V-251Q770 -245 764 -238Q759 -225 759 -202Q760 -185 760 -168Q760 -145 757 -136V-135Q759 -130 761 -125Q755 -103 749 -81Q747 -82 744 -82Q739 -82 732 -71Q726 -74 717 -74Q708 -73 699 -73Q692 -67 689 -60Q688 -65 682 -72Q675 -80 674 -84Q667 -98 667 -133V-155Q666 -161 665 -168Q665 -172 670 -175ZM902 -292Q908 -271 908 -244Q905 -183 901 -122Q901 -86 913 -34Q925 -2 929 22V24Q929 45 905 76Q883 103 867 114Q848 107 831 99Q814 90 810 68Q774 39 732 23H735Q758 26 781 34Q769 25 720 0Q680 -21 665 -38Q684 -34 723 -12Q757 7 784 8Q779 -1 759 -9Q738 -18 732 -28Q756 -22 771 -22Q791 -22 800 -35Q814 -61 818 -110Q825 -163 828 -253Q833 -306 837 -359V-364Q835 -373 832 -382Q829 -412 825 -437Q821 -463 803 -478Q794 -486 773 -488Q777 -495 785 -498Q792 -502 800 -505Q796 -506 791 -508Q815 -528 837 -549Q859 -570 901 -572Q909 -566 913 -556Q917 -550 924 -544Q934 -536 936 -532Q939 -525 942 -518Q944 -512 954 -503Q962 -496 963 -490V-486Q963 -471 957 -455Q939 -421 920 -391ZM388 -207Q379 -209 376 -220Q373 -230 371 -240L360 -277Q331 -242 305 -195Q278 -148 252 -107Q215 -52 201 -26Q174 24 168 70Q164 71 158 71Q144 71 127 54Q107 34 92 34Q81 16 61 7Q55 -8 40 -29Q55 -47 55 -107V-128Q55 -167 61 -187Q63 -155 65 -122Q66 -89 80 -68Q83 -72 83 -81Q81 -100 78 -120Q78 -132 85 -139V-133Q85 -113 101 -91Q161 -163 165 -167L164 -163L167 -161H169L234 -251Q249 -286 280 -334Q292 -348 296 -363Q296 -371 282 -374Q286 -383 292 -391Q284 -398 262 -404Q236 -411 228 -424Q222 -433 222 -443Q222 -450 228 -469Q234 -488 234 -500V-502Q234 -510 228 -522Q221 -536 221 -543V-549Q221 -570 241 -607Q258 -638 260 -658Q265 -654 270 -644Q281 -644 299 -638Q548 -713 684 -750Q715 -759 747 -770Q780 -780 818 -781H822Q810 -771 792 -767Q774 -764 772 -743V-741Q776 -737 783 -737Q788 -737 800 -741Q815 -746 824 -746Q831 -746 834 -745Q819 -738 803 -731Q788 -724 778 -712Q782 -704 795 -704Q810 -705 824 -707H827Q818 -701 803 -695Q789 -689 787 -677V-675Q789 -662 806 -659Q808 -659 812 -661Q812 -655 807 -644Q803 -635 803 -629Q807 -617 812 -606V-599Q812 -578 791 -568Q790 -568 748 -556L702 -549Q702 -542 695 -540Q694 -540 684 -538Q529 -497 393 -431Q396 -422 415 -417Q428 -413 433 -409Q441 -399 449 -389Q467 -398 498 -423Q525 -445 542 -454V-455Q542 -470 556 -485Q570 -500 585 -502H588Q597 -501 605 -501Q615 -501 618 -508Q620 -503 622 -499Q629 -501 635 -510Q642 -520 649 -521Q648 -515 643 -507Q637 -497 637 -492V-491L640 -490Q642 -490 645 -495Q648 -500 652 -500Q649 -498 649 -487Q651 -481 657 -481H659Q664 -468 672 -457Q680 -446 681 -429Q681 -423 680 -419Q681 -412 686 -409V-408L685 -406Q682 -407 678 -409Q638 -380 622 -313Q609 -260 609 -174Q611 -121 612 -69Q593 -64 579 -54Q572 -59 567 -64Q562 -69 551 -71Q547 -88 541 -94Q544 -118 552 -210Q561 -303 554 -321Q552 -331 552 -338Q552 -358 557 -366H556Q554 -367 551 -369Q521 -355 493 -336Q458 -312 452 -293Q454 -193 460 -88Q451 -82 444 -83H438Q393 -86 386 -132V-134Q387 -140 387 -147V-150Q384 -164 381 -179Q381 -187 387 -190Z"/>
</svg>