<svg xmlns="http://www.w3.org/2000/svg" viewBox="0 -800 1024 1024">
	<path fill="#000000" d="M890 -259H892Q892 -235 883 -233Q880 -237 880 -245Q880 -259 890 -259ZM895 -532V-529Q885 -526 874 -523L870 -524Q875 -539 889 -541Q894 -541 896 -539Q896 -535 895 -532ZM957 55V59Q943 66 927 66Q895 63 852 53Q792 42 770 41Q755 41 739 40Q671 40 610 51Q586 54 573 59Q555 65 548 78Q525 72 508 71Q492 49 478 43Q470 8 461 -28Q464 -31 471 -31H474Q514 -70 555 -112Q595 -153 630 -201Q606 -197 587 -181Q547 -157 539 -128H530Q501 -128 484 -144Q471 -157 461 -185Q455 -167 450 -123Q446 -79 439 -61Q430 -63 420 -65Q413 -65 412 -59Q407 -74 391 -78Q376 -81 368 -94Q242 -46 203 40H201Q192 41 186 47Q180 53 175 59Q135 41 110 22Q104 -8 77 -22L89 -49Q84 -62 79 -76Q81 -85 92 -98Q102 -110 103 -118Q100 -132 91 -154Q85 -181 77 -197Q63 -214 48 -226Q18 -256 18 -301Q18 -310 19 -314Q20 -320 26 -328Q32 -336 33 -342V-346Q29 -364 24 -383Q29 -381 35 -374Q39 -369 43 -367Q41 -380 32 -399Q24 -415 22 -423H23Q27 -422 32 -416Q36 -409 40 -403Q48 -393 65 -383Q66 -385 66 -388Q62 -399 58 -411Q64 -395 85 -388Q111 -381 117 -376Q125 -370 153 -339Q169 -323 183 -308Q196 -294 198 -268Q194 -232 189 -196Q189 -181 188 -166Q188 -153 190 -147Q206 -164 225 -166Q229 -264 229 -328Q229 -375 228 -398Q225 -457 218 -482Q207 -521 178 -536Q206 -580 211 -586Q233 -613 261 -616Q267 -617 282 -617Q304 -617 311 -611Q318 -607 335 -580Q347 -561 362 -541Q376 -521 382 -497Q373 -479 364 -461Q355 -442 351 -420V-397Q349 -382 342 -352Q332 -312 332 -285Q333 -277 333 -269V-266Q331 -244 329 -223Q329 -214 330 -210Q354 -218 368 -220Q371 -230 371 -241Q371 -253 364 -282Q358 -306 358 -320Q358 -337 369 -351Q383 -366 418 -368Q440 -368 451 -357Q458 -351 467 -330Q475 -312 483 -302L485 -300Q487 -301 489 -302H490V-300Q490 -294 498 -288L572 -307Q565 -310 554 -310Q551 -312 548 -315Q546 -314 544 -313Q532 -324 526 -331Q515 -344 513 -357Q513 -364 512 -372Q512 -388 516 -397Q514 -403 511 -409Q517 -432 538 -491Q562 -558 570 -601Q567 -614 567 -629Q566 -645 557 -652Q530 -648 517 -631Q503 -614 490 -596Q501 -628 524 -657Q546 -686 567 -713Q577 -728 590 -748Q604 -768 627 -770H630Q652 -763 672 -748Q690 -732 701 -695Q701 -694 717 -628Q702 -615 702 -598Q680 -590 677 -568Q672 -562 664 -549Q654 -532 646 -526V-521L648 -518Q637 -513 637 -502V-499Q640 -496 648 -496Q657 -496 659 -493Q698 -508 737 -524Q757 -538 785 -541Q790 -541 802 -539Q807 -546 810 -553Q814 -561 823 -562L824 -560Q822 -550 820 -541V-538Q822 -531 826 -528Q830 -525 834 -521Q851 -524 862 -524Q860 -519 853 -514Q843 -507 843 -500Q843 -496 844 -493L847 -491Q851 -493 855 -496Q851 -486 846 -476Q845 -474 845 -468Q846 -456 847 -444V-439Q843 -427 838 -415Q838 -411 841 -407H840Q835 -409 830 -411H829Q822 -406 822 -398V-395H818Q809 -395 809 -389V-388Q805 -389 797 -389Q767 -386 736 -380H734L736 -377L733 -376Q656 -371 588 -313Q613 -317 661 -335Q704 -351 720 -355Q724 -355 725 -352Q726 -349 727 -346Q739 -354 755 -357H757V-355Q756 -350 754 -345Q756 -344 760 -344Q770 -346 779 -348Q778 -345 776 -343V-342Q803 -345 806 -345Q795 -341 790 -334V-325Q790 -306 797 -299Q792 -294 792 -287Q794 -275 796 -264V-262Q795 -256 788 -244Q779 -228 779 -217V-214Q735 -211 711 -188Q687 -165 665 -138Q630 -113 604 -78Q610 -77 624 -77Q682 -81 739 -86Q749 -85 758 -85Q774 -83 790 -82Q799 -82 804 -84Q812 -81 819 -79Q824 -81 828 -92H829Q834 -89 838 -87Q843 -93 845 -113Q847 -131 852 -138Q846 -144 846 -152Q848 -167 850 -182V-184Q854 -180 856 -161Q857 -147 861 -141V-160Q860 -206 859 -252Q859 -287 864 -310Q869 -284 869 -241Q869 -222 868 -204Q868 -148 878 -118Q881 -168 883 -219Q888 -164 898 -116L899 -115L903 -116L905 -115Q908 -90 923 -75Q945 -72 959 -54Q967 -44 979 -18Q971 -11 971 -1Q973 12 974 24Q974 29 973 31Q972 36 965 42Q957 49 957 55Z"/>
</svg>