<svg xmlns="http://www.w3.org/2000/svg" viewBox="0 -800 1024 1024">
	<path fill="#000000" d="M951 -93H953V-89Q952 -77 950 -65Q942 -67 941 -80Q941 -93 951 -93ZM720 -207Q726 -213 730 -230Q704 -228 703 -211Q694 -211 691 -203Q703 -205 714 -208Q718 -208 720 -207ZM641 -185Q642 -191 655 -191H660Q659 -196 651 -200Q641 -206 641 -215V-216L637 -217H631V-226Q631 -228 629 -230Q620 -224 608 -221Q613 -233 628 -243Q630 -267 632 -291V-302Q612 -298 576 -270Q544 -276 541 -306Q541 -311 542 -314Q529 -321 529 -342Q529 -364 543 -372Q540 -381 540 -389Q540 -431 607 -462V-461Q607 -459 602 -455Q596 -450 595 -446Q601 -443 608 -443Q629 -446 652 -455Q686 -461 709 -470Q722 -479 726 -494Q730 -509 735 -524Q725 -517 712 -505Q699 -492 682 -491Q670 -491 660 -500Q658 -512 642 -526Q630 -537 626 -546Q624 -551 624 -561V-566Q624 -574 623 -578Q620 -588 616 -599V-607Q616 -625 630 -659Q638 -679 641 -693Q652 -688 663 -678Q702 -698 739 -723Q757 -733 759 -734Q769 -741 773 -751Q781 -756 791 -756Q814 -756 838 -732Q845 -735 851 -738H853Q851 -731 848 -724Q848 -723 850 -719Q855 -721 860 -728Q866 -737 871 -738Q866 -727 861 -711Q861 -704 868 -700Q873 -701 877 -703H880Q882 -704 882 -700V-699Q882 -695 884 -694Q888 -697 890 -703Q892 -710 894 -711Q896 -708 896 -700Q895 -687 894 -674Q894 -665 897 -659H898Q903 -661 908 -663Q906 -659 906 -650Q906 -633 915 -627Q911 -618 910 -600Q909 -577 903 -569Q889 -563 871 -558L850 -536Q849 -530 841 -520Q835 -512 833 -506Q843 -507 863 -514Q885 -521 900 -521H903Q909 -519 914 -518Q919 -518 929 -523Q939 -528 946 -528Q938 -523 938 -514Q938 -508 942 -504Q946 -500 952 -500Q956 -500 958 -501Q956 -498 956 -492Q956 -487 965 -471Q965 -464 961 -456Q966 -448 966 -437Q961 -406 947 -380Q944 -381 938 -381Q920 -379 901 -378Q888 -378 882 -383L820 -372Q808 -367 772 -358Q726 -347 706 -335Q712 -323 717 -320Q747 -327 777 -334Q806 -342 829 -357Q831 -348 832 -339Q837 -337 848 -337Q856 -337 876 -339Q874 -334 863 -332Q853 -330 851 -326V-324Q851 -312 866 -312Q848 -297 848 -287Q848 -282 851 -276Q841 -266 807 -262Q770 -258 759 -248Q781 -221 803 -195L810 -222Q818 -234 852 -242Q880 -249 890 -257Q887 -266 887 -269Q887 -273 888 -274Q893 -273 897 -265Q900 -259 903 -258L905 -260L904 -264L905 -266H906Q912 -265 915 -260Q918 -256 921 -251Q929 -254 937 -257H939L940 -255Q938 -250 935 -245L936 -242Q940 -240 943 -240Q953 -242 962 -244Q965 -243 967 -243L968 -241Q965 -239 962 -234V-232Q965 -214 968 -196Q968 -188 962 -179Q953 -168 940 -166Q926 -164 911 -161Q899 -159 863 -149Q826 -141 816 -135Q845 -79 891 -47Q894 -53 897 -59Q899 -58 900 -51Q901 -46 903 -44Q908 -56 911 -75V-77Q911 -83 910 -90Q910 -99 918 -99V-87Q918 -67 922 -35Q928 -40 928 -54Q928 -64 927 -75V-97Q927 -124 930 -135Q935 -127 935 -114Q935 -100 934 -87V-83Q938 -59 941 -35Q945 -36 945 -46Q945 -55 949 -57Q954 -51 954 -40Q953 -27 952 -15Q953 -10 953 -6Q954 3 962 17Q969 29 969 39Q969 45 968 49Q942 81 903 102Q868 87 829 75Q819 50 807 27Q795 3 788 -24L777 -59Q768 -61 760 -79Q755 -92 749 -96Q739 -90 735 -79Q731 -68 723 -56Q699 -18 687 51Q676 53 670 60Q663 67 656 73Q649 68 641 65L637 66Q637 58 628 48Q621 40 621 34Q621 30 622 28Q618 25 612 23Q606 21 604 15Q615 11 617 6Q605 -16 582 -27Q559 -38 540 -51Q555 -50 579 -43Q602 -36 616 -35Q636 -51 672 -99Q666 -101 662 -101Q647 -101 623 -86Q616 -80 610 -73Q604 -65 597 -63H593Q575 -63 570 -84Q554 -94 543 -108Q547 -136 547 -147Q547 -174 537 -197Q574 -185 610 -178Q611 -178 641 -185ZM364 -201Q360 -193 360 -182Q360 -174 365 -162Q358 -127 351 -117Q344 -106 315 -90Q279 -67 242 -44V-46Q224 -20 212 -10V-8Q210 4 207 16V22Q187 32 166 32Q133 32 121 6Q89 3 74 -21Q74 -69 87 -83Q85 -93 85 -99Q85 -136 130 -162V-159Q130 -152 135 -147Q154 -152 185 -168Q216 -184 233 -189Q235 -199 235 -219Q235 -238 231 -276Q159 -262 115 -208H109Q90 -208 77 -216Q65 -224 55 -235Q39 -260 16 -282Q16 -285 15 -288Q15 -299 24 -317Q32 -333 33 -340Q32 -348 30 -357V-359Q30 -384 63 -417Q83 -437 114 -456Q108 -447 101 -438Q93 -429 92 -420H94Q98 -420 101 -426Q104 -431 108 -435Q113 -433 115 -429Q117 -424 120 -421Q131 -422 141 -424H144Q144 -421 143 -419L145 -417L169 -425Q170 -435 179 -437Q187 -439 195 -441Q210 -447 225 -453Q221 -470 210 -495Q192 -535 192 -557V-561Q192 -593 221 -617Q250 -641 290 -641Q297 -641 311 -639Q324 -619 342 -595Q359 -572 361 -543V-537Q361 -531 355 -521Q350 -513 350 -506Q350 -502 351 -500Q366 -506 410 -522Q406 -516 399 -509Q391 -502 388 -492Q391 -488 393 -488Q400 -492 406 -497Q399 -488 395 -461Q397 -458 398 -458Q401 -458 404 -459H407Q399 -454 399 -438Q399 -425 407 -420Q397 -407 397 -388Q397 -381 398 -378Q390 -365 390 -363Q390 -359 392 -357Q361 -343 330 -329Q316 -305 316 -260Q316 -242 317 -233Q327 -237 352 -252V-254Q357 -266 369 -282Q378 -294 402 -336Q405 -345 409 -352Q413 -360 420 -362L438 -399Q445 -430 458 -460Q471 -490 482 -522Q493 -543 496 -558V-560Q496 -572 484 -594Q474 -613 472 -622V-623L473 -625Q476 -624 479 -624H481Q485 -638 505 -649Q525 -660 547 -660Q564 -660 574 -653Q585 -643 592 -628Q617 -553 617 -528V-524Q614 -508 602 -501Q590 -495 579 -486Q561 -462 545 -431Q528 -400 515 -371Q487 -313 480 -285Q512 -248 517 -208Q518 -203 518 -192Q518 -172 517 -152V-142Q521 -94 526 -50Q528 -25 529 0Q529 41 506 54Q504 53 501 53Q495 53 485 63Q466 54 446 45Q446 35 436 23Q426 12 426 1Q417 -11 408 -23Q409 -28 410 -33V-39Q410 -42 404 -42H394Q417 -58 422 -89Q427 -120 429 -155Q392 -155 387 -171H372Q373 -175 373 -180Q373 -183 372 -185Q370 -191 364 -201Z"/>
</svg>