<svg xmlns="http://www.w3.org/2000/svg" viewBox="0 -800 1024 1024">
	<path fill="#000000" d="M100 -292H101Q104 -287 104 -281Q104 -270 98 -264Q91 -264 91 -278Q91 -292 100 -292ZM589 20V17Q589 12 592 9Q601 10 609 11Q617 11 619 21Q611 23 609 23Q599 22 589 20ZM467 -543L458 -529Q450 -520 420 -502Q398 -488 382 -475Q370 -465 347 -443Q321 -418 308 -409Q299 -398 288 -389Q277 -380 273 -364Q269 -366 268 -366Q261 -363 256 -358Q252 -357 248 -357Q234 -357 220 -369Q216 -364 210 -361V-364Q212 -372 216 -378Q212 -382 210 -388H199L196 -387L195 -389Q195 -395 197 -397Q185 -415 155 -415Q140 -415 128 -409Q130 -413 137 -419Q144 -425 146 -431V-433Q145 -438 141 -441H139Q121 -440 110 -431Q99 -421 86 -415Q92 -430 103 -439Q114 -448 126 -457Q109 -454 88 -440Q79 -434 53 -414Q63 -435 84 -450Q104 -465 123 -480Q148 -498 173 -517Q185 -526 213 -553Q246 -585 267 -597Q293 -626 320 -654Q316 -664 312 -675H316Q321 -675 326 -669Q330 -664 335 -664Q339 -664 339 -668V-676Q341 -677 345 -677Q356 -674 366 -672Q371 -672 375 -675Q383 -671 391 -668Q393 -668 397 -670Q404 -664 411 -658Q418 -652 428 -651Q437 -630 446 -610Q451 -601 459 -586Q467 -571 468 -552Q468 -546 467 -543ZM252 -42L232 -49Q235 -53 241 -53Q248 -53 253 -54Q268 -93 268 -150Q215 -101 195 -78Q155 -34 133 11H131Q127 11 122 10Q118 10 117 14Q110 7 100 -2Q91 -12 80 -13Q72 -13 65 -6Q69 -18 77 -28Q71 -36 63 -59Q57 -76 52 -84Q55 -98 58 -112Q66 -123 73 -135Q77 -156 80 -177Q85 -192 90 -208Q91 -220 91 -233Q92 -245 102 -252V-247Q102 -232 96 -196Q92 -178 92 -165Q92 -151 98 -141Q107 -147 107 -170Q107 -182 106 -195Q106 -212 111 -220Q117 -216 117 -204Q117 -195 116 -186Q118 -166 122 -153Q189 -212 255 -272Q320 -332 369 -408V-431Q374 -435 382 -436Q393 -438 396 -442Q401 -443 410 -443Q429 -443 440 -430Q448 -421 456 -399Q463 -380 463 -369Q463 -356 455 -345Q436 -327 407 -310Q402 -302 393 -292Q378 -279 362 -266Q345 -253 344 -238Q344 -227 357 -213Q370 -200 370 -192Q374 -189 378 -186Q387 -159 387 -109Q387 -86 386 -64Q386 -17 393 6Q387 16 378 44Q368 45 352 52Q335 60 327 60Q322 60 320 59Q314 57 306 48Q297 38 290 36Q285 23 273 2Q257 -26 252 -42ZM717 61V59Q699 44 671 36Q659 33 646 29Q634 26 629 17Q661 22 693 27Q674 18 634 10Q585 0 564 -13Q587 -12 627 -3Q675 9 700 9Q697 2 683 -1Q669 -5 658 -9Q675 -11 688 -12Q701 -12 711 -19Q731 -32 736 -92Q742 -174 745 -184Q697 -177 612 -135Q623 -131 634 -127Q653 -119 659 -96Q668 -73 668 -59Q668 -43 659 -30Q650 -16 627 -16Q619 -16 607 -20Q600 -22 592 -32Q583 -43 577 -46H575Q568 -44 560 -42L558 -43Q558 -44 562 -47Q567 -51 567 -53V-54Q561 -56 558 -56Q540 -52 529 -48L526 -49Q541 -65 561 -78Q558 -82 558 -88Q558 -95 560 -105Q547 -103 530 -87Q514 -71 502 -71Q499 -71 491 -73Q482 -76 472 -90Q462 -104 455 -109Q448 -114 437 -119Q426 -125 423 -136Q422 -139 422 -145Q422 -157 433 -175Q443 -192 443 -205V-207Q447 -215 462 -226Q474 -235 479 -243H484Q504 -240 523 -238H526Q553 -239 580 -249Q607 -260 634 -270Q691 -286 742 -304Q738 -319 733 -334Q685 -326 617 -304Q583 -294 569 -285Q545 -267 523 -258H522Q506 -260 497 -276Q488 -293 471 -298Q469 -303 464 -309Q459 -315 458 -319Q457 -321 457 -326Q457 -338 472 -357Q487 -376 487 -390V-394Q515 -409 542 -425L543 -423Q543 -421 539 -418Q535 -415 535 -411V-408Q547 -406 553 -406Q585 -406 631 -428Q629 -434 629 -438Q630 -446 630 -454Q630 -461 628 -463Q612 -457 597 -448Q582 -439 565 -438Q550 -438 536 -448Q534 -460 514 -483Q490 -511 490 -529V-535Q495 -546 500 -558Q502 -563 503 -580Q505 -598 509 -604Q514 -611 531 -619Q548 -627 554 -634Q557 -633 561 -628Q566 -622 570 -621Q598 -630 622 -641Q603 -673 592 -714V-718Q592 -726 599 -731Q604 -735 606 -739L607 -743V-750Q617 -757 626 -764Q626 -777 644 -790Q659 -800 675 -804Q678 -805 683 -805Q693 -805 707 -794Q719 -784 730 -783Q744 -760 758 -738Q772 -715 779 -685Q798 -692 820 -698Q824 -699 826 -706Q829 -714 834 -715Q836 -699 845 -690Q871 -701 921 -718Q908 -708 892 -701Q875 -694 868 -678Q871 -673 874 -669Q892 -679 912 -685Q905 -677 896 -671Q887 -665 883 -652L887 -650Q892 -652 897 -655H900Q892 -642 888 -626Q888 -618 897 -615Q889 -605 887 -577Q877 -571 877 -558V-555Q863 -549 803 -535Q756 -524 738 -507Q737 -500 731 -486Q724 -470 724 -462Q724 -455 727 -451Q816 -467 894 -508H895Q898 -508 899 -504Q900 -500 902 -500H903Q914 -501 926 -508Q941 -516 949 -517Q948 -511 938 -505Q930 -500 928 -494Q931 -493 936 -493Q941 -493 952 -498Q961 -502 967 -502H970Q966 -497 960 -493Q954 -488 953 -481Q953 -479 955 -475L957 -473Q961 -475 965 -477H967Q960 -461 960 -452Q960 -444 964 -436Q970 -433 976 -430Q977 -428 977 -425Q977 -420 967 -400Q961 -390 955 -381Q945 -372 920 -372H884Q853 -369 816 -355Q824 -345 832 -336Q863 -341 881 -352Q881 -338 896 -338Q902 -338 917 -343L919 -341Q916 -336 912 -331Q914 -319 935 -319H943Q931 -315 931 -298Q934 -279 936 -261Q930 -249 924 -236Q918 -224 906 -217Q896 -222 880 -222Q861 -222 828 -211Q816 -196 816 -155V-145Q818 -76 829 -45Q848 2 851 39Q851 64 837 83Q830 90 823 96Q815 102 812 115Q803 119 794 119Q777 119 747 98Q735 91 726 84Q717 77 717 61Z"/>
</svg>