<svg xmlns="http://www.w3.org/2000/svg" viewBox="0 -800 1024 1024">
	<path fill="#000000" d="M776 -232H768Q770 -238 773 -243Q775 -249 783 -249Q780 -240 776 -232ZM934 -587Q934 -573 918 -567Q917 -569 917 -573Q918 -586 930 -588ZM750 0H748Q736 0 712 -9Q693 -16 687 -17Q665 -20 642 -20Q569 -20 485 6Q456 14 441 26Q422 47 405 52H403Q392 52 359 38Q332 29 324 15Q322 10 322 0V-5Q322 -12 321 -15Q320 -19 315 -28Q308 -40 308 -51Q308 -56 309 -59Q312 -67 315 -75V-77Q314 -83 305 -89Q295 -95 295 -102L296 -106Q302 -106 308 -100Q313 -95 318 -94Q317 -107 299 -119Q285 -128 282 -137H286Q293 -137 301 -132Q311 -126 318 -126H321Q327 -127 337 -136Q346 -145 352 -146Q361 -149 370 -149Q403 -145 435 -141Q469 -145 502 -150Q499 -207 499 -263V-287H490Q466 -286 442 -279Q417 -271 392 -264Q349 -257 314 -238Q262 -232 211 -197Q199 -189 186 -181Q183 -179 179 -171Q173 -161 168 -159Q158 -157 148 -156Q133 -153 117 -150H114Q99 -152 93 -163Q87 -173 76 -183Q64 -190 53 -195Q42 -199 37 -210Q35 -220 35 -225Q37 -245 38 -266Q35 -298 29 -327Q28 -331 28 -338Q30 -374 57 -385Q83 -396 106 -407Q121 -419 137 -435Q162 -454 188 -468Q215 -482 234 -494Q228 -481 204 -465Q173 -444 170 -420Q184 -417 196 -417Q236 -421 276 -432Q379 -449 491 -471Q490 -497 480 -520Q477 -528 459 -561Q452 -574 445 -588V-594Q447 -610 448 -627Q448 -633 447 -636Q447 -639 441 -647Q435 -655 435 -661V-663L437 -665Q442 -660 450 -656H451Q457 -663 457 -669Q457 -675 448 -688Q438 -703 438 -713Q447 -711 455 -698Q463 -685 470 -683Q468 -694 451 -715Q435 -735 433 -746Q442 -741 457 -724Q479 -698 497 -693Q509 -699 523 -699Q544 -699 559 -686Q573 -687 587 -689Q595 -689 602 -686Q611 -680 624 -660Q650 -627 655 -619Q673 -591 673 -568V-563Q672 -554 663 -535Q654 -516 654 -504Q723 -514 792 -524Q856 -529 861 -530Q894 -536 912 -555Q906 -537 906 -536V-533Q910 -526 923 -526Q939 -527 954 -529Q958 -528 961 -528Q958 -525 943 -519Q932 -515 931 -505Q932 -500 937 -500Q945 -502 953 -504Q955 -504 959 -502Q955 -498 950 -495Q944 -493 943 -486Q946 -474 961 -474Q967 -474 971 -477Q965 -469 965 -459Q970 -430 975 -405V-402Q974 -395 968 -387Q962 -378 961 -370Q944 -370 936 -357Q851 -354 769 -349Q687 -345 624 -326Q603 -256 601 -166Q616 -166 651 -172Q686 -178 706 -178Q719 -178 725 -177Q735 -181 745 -197Q755 -213 764 -216Q753 -198 750 -177Q750 -174 752 -166Q754 -165 758 -165Q770 -167 782 -170Q785 -170 789 -168Q787 -164 779 -161Q771 -157 770 -148V-147Q771 -138 781 -139Q791 -139 799 -137Q785 -131 785 -116Q785 -101 795 -89V-88Q792 -81 789 -75Q793 -67 793 -55Q793 -35 781 -18Q769 -1 750 0Z"/>
</svg>