<svg xmlns="http://www.w3.org/2000/svg" viewBox="0 -800 1024 1024">
	<path fill="#000000" d="M679 -754Q675 -739 662 -739L658 -740Q663 -751 679 -754ZM629 -76V-84Q635 -86 639 -86Q659 -86 659 -69Q634 -69 629 -76ZM714 -98H717Q735 -96 753 -95Q771 -95 780 -106Q797 -264 797 -451Q797 -489 795 -553Q793 -617 788 -637Q778 -682 747 -682Q743 -682 733 -680Q736 -687 749 -693Q759 -697 762 -702V-704Q762 -707 758 -710Q755 -712 755 -715Q781 -726 802 -750Q823 -774 844 -790Q849 -794 854 -794Q860 -794 869 -786Q876 -780 879 -778Q888 -775 896 -773Q898 -772 904 -764Q908 -758 914 -754Q925 -746 935 -739Q946 -727 962 -686V-684Q961 -668 953 -659Q945 -651 935 -641Q909 -608 898 -535Q893 -500 888 -407Q884 -319 884 -269Q884 -137 903 -64Q912 -41 915 -13Q915 -8 914 -3Q913 11 898 37Q884 62 884 75Q863 82 835 103Q817 101 806 92Q795 83 788 70Q775 40 755 19Q756 16 756 12Q756 -4 741 -19Q738 -22 712 -41Q699 -49 685 -57Q672 -64 665 -76Q703 -61 740 -46Q724 -65 693 -81Q663 -97 635 -112Q624 -118 621 -120Q613 -125 611 -131H615Q622 -131 646 -119Q716 -82 755 -72Q755 -82 734 -88Q718 -93 714 -98ZM570 -167H573Q570 -148 567 -129Q567 -116 573 -107Q552 -76 510 -65Q468 -54 422 -43Q369 -27 340 -15Q288 4 266 20Q261 23 240 54Q223 78 203 78H198Q191 77 178 68Q167 60 161 57Q147 51 133 47Q119 42 114 29Q113 26 113 21Q113 13 124 -12Q122 -18 120 -25Q124 -50 143 -63Q163 -76 184 -91Q210 -116 238 -124Q235 -117 225 -109Q212 -98 210 -87Q213 -86 218 -86Q235 -88 252 -94Q316 -104 352 -113Q355 -117 355 -126Q355 -131 354 -133Q345 -132 318 -116Q300 -117 291 -123Q288 -125 271 -141Q249 -157 248 -177Q248 -189 253 -202Q258 -216 262 -230Q267 -244 278 -248Q281 -249 287 -249Q295 -248 303 -248Q322 -252 345 -262Q343 -274 341 -287Q341 -291 342 -293Q334 -289 323 -287Q308 -284 302 -279Q299 -272 295 -266Q277 -248 255 -244Q249 -244 229 -259Q209 -269 203 -295Q187 -330 187 -339V-341Q189 -352 199 -366Q210 -381 220 -383Q244 -385 259 -389Q279 -399 293 -417Q308 -437 321 -457Q317 -463 311 -463Q302 -460 292 -458Q274 -454 266 -449Q252 -441 239 -431Q226 -421 210 -420Q203 -420 200 -421Q184 -427 167 -439Q156 -445 141 -450Q127 -455 119 -464Q116 -471 116 -479V-496Q113 -504 107 -511Q102 -518 101 -531Q101 -537 102 -541Q81 -555 60 -569Q53 -571 44 -574Q36 -577 35 -587Q45 -586 65 -579Q89 -571 101 -571Q100 -577 82 -581Q65 -585 63 -595H68Q84 -594 100 -593Q109 -593 113 -595Q111 -602 100 -605Q91 -608 89 -610Q95 -613 102 -613Q113 -611 124 -610Q150 -632 175 -655Q182 -654 196 -654Q230 -654 292 -670Q485 -725 548 -751Q550 -750 550 -747Q550 -743 555 -742Q567 -743 588 -749Q606 -755 609 -755Q615 -755 617 -749Q611 -744 603 -741Q595 -737 592 -728Q595 -723 598 -718Q612 -722 623 -728Q635 -733 652 -734Q641 -726 626 -718Q610 -711 608 -697Q608 -692 611 -686Q626 -692 640 -699Q639 -692 627 -683Q615 -673 615 -666Q615 -661 617 -658Q616 -654 611 -649Q606 -645 605 -641Q608 -636 611 -632Q614 -632 618 -636Q622 -640 624 -640Q626 -639 628 -638Q605 -611 605 -585Q605 -575 608 -563Q565 -548 516 -535Q467 -521 425 -502Q433 -497 443 -479Q438 -464 438 -460V-457Q420 -450 404 -433Q394 -421 379 -398Q388 -400 409 -408Q437 -418 458 -421Q455 -436 455 -447Q455 -462 462 -475Q474 -497 488 -499Q495 -497 502 -495L505 -496Q517 -500 524 -511L525 -508Q525 -504 524 -500V-497Q526 -493 539 -485Q546 -487 554 -499Q562 -511 568 -511H570Q569 -504 563 -492Q557 -480 557 -472Q557 -466 560 -460H562Q569 -463 575 -466H576Q573 -460 573 -453Q573 -443 582 -423Q592 -443 622 -472Q642 -491 650 -502Q654 -499 657 -497H658Q663 -505 666 -516Q668 -526 678 -530V-529Q676 -517 674 -505Q674 -495 681 -491Q682 -493 683 -496Q684 -499 687 -499H690Q696 -489 699 -478Q703 -472 712 -464Q723 -455 726 -449Q737 -428 740 -385V-383Q740 -371 731 -350Q722 -330 721 -322Q716 -292 716 -250Q716 -221 717 -205Q705 -184 668 -184Q651 -184 638 -191Q631 -187 629 -178Q610 -206 606 -259Q600 -336 597 -351Q588 -347 583 -340Q577 -332 570 -326Q566 -328 559 -328H551Q545 -328 542 -329Q534 -331 522 -340Q506 -351 497 -351H495Q488 -351 461 -343Q449 -340 419 -326Q427 -312 435 -298Q451 -304 469 -308Q479 -308 483 -301Q505 -307 526 -314L527 -310Q527 -305 520 -297Q513 -289 513 -284Q513 -279 517 -275Q520 -275 523 -279Q527 -284 532 -284L536 -283Q527 -265 527 -258Q527 -250 535 -250H536Q527 -225 527 -213V-205Q516 -193 498 -188Q479 -183 462 -177Q434 -170 429 -139Q498 -149 551 -179Q567 -190 585 -197Q579 -187 570 -180Q562 -173 560 -160H561Q562 -160 564 -163Q566 -167 570 -167Z"/>
</svg>