<svg xmlns="http://www.w3.org/2000/svg" viewBox="0 -800 1024 1024">
	<path fill="#000000" d="M358 -479L359 -483Q359 -488 355 -488Q355 -482 358 -479ZM420 -8Q410 0 396 6Q394 6 394 2Q395 -1 395 -5Q400 -10 409 -10Q416 -10 420 -8ZM721 -692V-678Q710 -673 698 -669Q703 -692 721 -692ZM697 -93Q670 -97 669 -114Q672 -116 677 -116Q684 -115 688 -108Q692 -100 697 -93ZM576 -423Q574 -428 574 -436Q574 -445 576 -455Q562 -446 546 -437Q529 -427 527 -410Q527 -407 529 -399Q540 -418 576 -423ZM571 -344V-347Q572 -356 573 -366Q573 -371 570 -374H567Q542 -358 535 -352Q518 -337 518 -322V-318Q530 -326 540 -335Q550 -343 569 -344ZM577 -255Q573 -270 568 -285Q536 -280 512 -260Q512 -252 511 -245Q511 -236 516 -232Q549 -243 577 -255ZM257 -338H254Q240 -329 218 -308Q193 -284 187 -270Q182 -258 182 -246Q182 -240 190 -197Q206 -201 244 -216Q243 -220 243 -229Q243 -241 248 -264Q252 -282 252 -291Q252 -301 248 -309Q258 -319 258 -331Q258 -334 257 -338ZM473 -222Q466 -247 463 -252Q474 -298 474 -342Q474 -357 473 -365Q465 -361 457 -350Q449 -339 442 -330Q421 -332 408 -347Q396 -363 380 -377Q353 -354 344 -298Q338 -263 337 -192Q349 -200 367 -215Q390 -235 402 -242Q395 -232 387 -224Q378 -217 377 -201Q389 -199 393 -199Q408 -199 438 -211Q458 -219 473 -222ZM874 21V28Q874 52 862 74Q858 81 838 108Q798 88 779 49Q761 16 735 -9L738 -10Q747 -7 753 1Q748 -10 730 -28Q710 -49 704 -60H706Q709 -60 719 -50Q736 -32 761 -20Q752 -33 732 -54Q708 -79 701 -89Q733 -74 765 -59Q788 -69 788 -131Q787 -161 786 -192Q789 -247 791 -303Q791 -332 786 -350Q769 -337 765 -305Q765 -304 762 -242V-237Q763 -222 763 -207Q763 -195 761 -191Q758 -184 746 -174Q736 -166 735 -156Q732 -158 728 -158Q719 -158 709 -141V-153Q690 -164 690 -208Q691 -228 691 -249V-261Q687 -332 681 -373Q672 -431 653 -462H656Q662 -462 666 -459V-464Q666 -490 691 -503Q699 -550 716 -597Q733 -644 749 -690Q762 -734 762 -751Q762 -755 761 -759Q758 -770 751 -777Q743 -783 737 -791L740 -792Q745 -790 750 -788L753 -789H754Q757 -789 757 -792V-794L758 -795L760 -794L763 -795L765 -794Q775 -800 783 -809Q791 -817 806 -818H811Q851 -813 873 -755Q889 -714 894 -651Q837 -612 812 -586Q771 -544 758 -492Q782 -502 806 -512Q859 -527 894 -558Q902 -559 909 -561Q912 -563 913 -568Q915 -576 918 -576V-563Q930 -571 941 -579Q934 -563 934 -553Q935 -550 935 -548L938 -546Q943 -548 948 -551Q944 -543 944 -534Q944 -518 960 -491Q959 -488 959 -481Q959 -470 963 -467Q956 -451 956 -444V-438Q933 -429 909 -420Q880 -411 880 -402Q880 -397 892 -393Q891 -391 891 -387Q893 -381 894 -375Q888 -361 888 -352V-348Q859 -307 859 -205Q860 -178 860 -152Q861 -136 861 -105Q861 -73 862 -57Q867 -14 874 21ZM602 -71H589Q585 -78 581 -86Q577 -93 568 -95Q566 -105 559 -118Q550 -134 550 -141Q550 -144 552 -150Q528 -149 498 -125Q505 -116 511 -106Q517 -95 528 -90Q536 -55 540 -21Q540 -11 537 1Q528 3 519 5Q508 7 507 18V19Q500 10 491 3Q483 4 477 14Q471 25 464 27Q473 13 477 -2Q477 -10 470 -14Q463 -14 461 -11Q462 -14 462 -17Q462 -25 457 -33Q454 -34 449 -34Q441 -34 434 -25Q429 -18 423 -17Q439 -42 445 -48V-49Q443 -53 441 -57V-59H442Q446 -60 450 -62Q448 -68 448 -69Q451 -81 453 -93V-95Q380 -81 374 -23Q362 -24 350 -38Q336 -54 322 -54H318Q311 -75 297 -77Q287 -77 284 -59V-60Q284 -72 270 -89Q256 -105 247 -107H243Q227 -107 207 -89Q188 -72 183 -54H179Q152 -55 139 -69Q125 -83 112 -98Q114 -104 114 -105Q114 -110 102 -122V-123Q105 -127 108 -131Q96 -168 84 -204Q71 -240 36 -254Q25 -268 20 -290V-294Q21 -303 21 -313Q21 -318 20 -321Q17 -328 14 -335V-338Q14 -349 26 -372Q38 -395 39 -408V-411Q36 -429 32 -447Q32 -454 38 -462Q44 -430 55 -419Q57 -420 57 -424Q55 -434 52 -444V-446Q61 -433 70 -423Q74 -426 75 -431Q83 -420 94 -420H108Q123 -419 136 -408Q145 -401 156 -387L158 -384L157 -383Q157 -381 161 -381Q174 -391 187 -402Q233 -440 270 -456Q274 -475 287 -484Q301 -492 315 -500Q319 -498 327 -498H336Q340 -498 343 -495Q345 -499 345 -500Q345 -505 339 -511Q332 -518 332 -521Q346 -513 359 -506V-507Q359 -510 356 -513Q352 -517 352 -520V-521L356 -522Q363 -520 370 -518Q374 -530 385 -535Q387 -536 412 -543Q421 -546 438 -555Q457 -565 467 -567Q462 -586 457 -606L461 -605Q467 -605 474 -614Q481 -622 485 -624Q493 -626 496 -626Q523 -623 531 -596Q542 -598 555 -605Q570 -613 574 -614Q575 -622 575 -636Q575 -654 571 -690Q567 -690 566 -685Q565 -681 564 -678Q563 -688 557 -705Q549 -726 549 -735V-737Q549 -758 563 -777Q577 -797 595 -797H597Q610 -791 623 -785Q633 -765 645 -745Q656 -726 660 -702V-699Q660 -690 655 -677Q649 -661 649 -654Q649 -652 651 -644Q670 -657 691 -668Q691 -658 676 -648L677 -644Q675 -633 672 -622Q672 -615 676 -611H678Q681 -611 683 -612H685Q679 -603 679 -591Q679 -574 688 -564Q682 -558 682 -550Q686 -531 689 -513Q663 -506 635 -483Q628 -405 623 -316Q623 -293 624 -282Q625 -277 629 -269Q645 -270 653 -283Q656 -288 664 -312Q666 -309 666 -298V-282Q668 -278 680 -276V-274Q682 -264 683 -255Q683 -247 680 -243Q683 -233 688 -227Q684 -215 680 -203Q659 -201 644 -194Q628 -188 612 -182Q617 -174 621 -167Q626 -167 628 -170Q629 -174 632 -177V-175Q630 -163 627 -152Q627 -147 630 -143Q633 -144 635 -149Q631 -105 626 -62Q623 -71 602 -71Z"/>
</svg>