<svg xmlns="http://www.w3.org/2000/svg" viewBox="0 -800 1024 1024">
	<path fill="#000000" d="M679 -422Q679 -415 668 -415H659Q662 -423 673 -423Q677 -423 679 -422ZM786 -215Q788 -191 788 -178Q788 -148 783 -116H781L782 -98Q784 -82 784 -72Q781 -12 777 47V57Q781 81 784 105Q784 108 783 110Q782 113 776 119Q770 125 770 128Q770 131 773 134Q761 137 749 140Q737 135 734 135Q730 135 728 136Q710 123 689 107Q668 90 666 67L633 60Q626 59 619 57Q612 56 599 56Q574 57 549 57H536Q523 57 510 56Q442 56 404 72Q401 84 398 96H395Q373 96 330 78Q301 65 278 40Q279 37 279 31Q279 19 268 13Q270 5 274 -1Q262 -9 250 -17Q266 -33 266 -61Q262 -103 246 -144Q243 -156 243 -157Q243 -163 250 -164L225 -188Q213 -208 178 -238Q141 -269 129 -293Q95 -308 95 -374V-380Q97 -419 115 -445Q133 -471 143 -500L146 -501Q150 -500 154 -500H155Q158 -510 158 -524Q158 -538 157 -552Q157 -561 158 -566Q162 -562 166 -546Q169 -534 173 -528Q181 -533 181 -545Q180 -559 178 -574Q178 -585 184 -591Q191 -590 191 -578Q191 -571 190 -564Q194 -537 201 -530Q203 -533 203 -538Q201 -548 199 -559Q199 -560 201 -564Q208 -535 232 -514Q241 -506 280 -480Q286 -483 291 -487Q293 -487 294 -483Q310 -492 341 -515Q373 -539 391 -549Q410 -556 428 -564Q462 -587 496 -610Q517 -623 533 -630Q553 -640 557 -640L680 -698Q683 -700 685 -702Q704 -720 722 -740Q741 -763 780 -765Q789 -765 794 -764Q800 -762 811 -749Q825 -733 836 -732Q845 -733 854 -738Q862 -744 869 -747V-746Q866 -736 862 -727V-725Q872 -725 890 -737Q908 -748 921 -750Q909 -736 892 -726Q876 -716 871 -696Q875 -694 876 -694Q879 -694 883 -697Q888 -701 893 -701H897Q882 -694 881 -677Q881 -666 891 -660Q887 -648 887 -639Q887 -631 891 -626Q876 -611 876 -599Q876 -596 878 -590Q876 -588 859 -581Q847 -576 847 -565V-561Q847 -556 853 -556L857 -557Q843 -515 825 -410Q812 -334 801 -293ZM899 -768Q898 -759 891 -756Q884 -753 877 -750Q876 -752 876 -755Q878 -770 891 -773Q897 -773 899 -768ZM696 -235Q722 -480 728 -594Q683 -587 626 -541L623 -540Q576 -512 524 -475V-474Q536 -462 541 -453V-452Q541 -448 537 -438Q537 -434 536 -430Q536 -426 532 -424L530 -418Q534 -417 535 -406Q536 -398 537 -396Q545 -399 552 -402H555Q581 -422 621 -426L623 -425L622 -423Q639 -428 655 -433Q639 -428 632 -415Q632 -412 637 -407Q645 -410 652 -413V-411Q651 -409 645 -405Q644 -403 644 -399Q646 -394 647 -390Q655 -392 662 -394Q653 -378 653 -362Q654 -358 654 -354Q640 -343 637 -321Q634 -323 626 -323Q621 -323 609 -321H607L598 -323Q588 -317 571 -311Q546 -302 539 -297Q531 -289 532 -286V-283Q546 -287 560 -292Q563 -289 566 -287Q574 -290 581 -293V-292Q580 -288 578 -285H580Q585 -286 589 -288H592L594 -287Q592 -284 590 -281Q595 -276 600 -272Q599 -258 598 -245Q565 -236 558 -233Q528 -222 528 -211Q528 -204 529 -202Q578 -212 627 -222Q662 -228 696 -235ZM696 -230Q689 -227 685 -224Q680 -220 682 -218Q682 -217 695 -219Q696 -224 696 -230ZM694 -209Q690 -205 688 -202Q685 -196 691 -181Q693 -195 694 -209ZM684 -118H682Q676 -113 670 -109Q669 -106 666 -106Q658 -101 650 -96Q638 -85 628 -70Q624 -72 623 -72Q620 -71 617 -71Q615 -71 612 -74Q607 -70 600 -70Q604 -75 607 -81Q602 -83 597 -85Q593 -107 575 -108H571Q579 -110 586 -112Q584 -118 571 -118H564Q552 -120 551 -121Q564 -127 580 -132Q596 -136 605 -149Q597 -149 588 -149L577 -145Q554 -143 533 -137Q532 -125 533 -113Q534 -77 547 -41Q542 -27 541 -13L539 -10Q563 -10 576 -14Q632 -6 638 -4Q643 -10 653 -10Q660 -9 666 -9Q673 -33 684 -118ZM487 -10Q483 -14 482 -16Q480 -19 476 -30Q471 -43 465 -48Q476 -82 474 -129Q463 -125 451 -121L447 -115Q444 -110 436 -105Q429 -99 423 -97Q412 -101 405 -114Q402 -119 392 -123Q380 -128 379 -133Q378 -136 377 -140Q378 -149 383 -154Q389 -160 394 -166Q400 -175 409 -184Q417 -194 431 -195Q426 -191 422 -186Q426 -184 434 -184Q455 -188 475 -192H480V-203Q468 -201 465 -201Q448 -200 417 -220Q417 -225 423 -227Q419 -230 415 -234Q425 -241 483 -260L482 -271Q480 -268 474 -267Q467 -266 466 -263H462Q449 -263 439 -269Q429 -276 422 -281Q408 -290 408 -300Q406 -321 403 -342Q404 -359 420 -363Q438 -367 456 -368L458 -370L459 -373H461Q465 -373 469 -374V-379Q467 -413 456 -421H451Q415 -387 413 -389Q391 -386 378 -368Q365 -349 352 -333Q350 -323 350 -317Q350 -296 358 -285V-273Q358 -247 363 -233Q358 -222 362 -167Q365 -112 366 -96Q366 -85 372 -54Q377 -28 377 -16V-14Q391 -8 397 -4Q422 -11 454 -11Q475 -11 487 -10Z"/>
</svg>