<svg xmlns="http://www.w3.org/2000/svg" viewBox="0 -800 1024 1024">
	<path fill="#000000" d="M852 -359Q840 -347 835 -346Q834 -348 834 -354Q834 -365 838 -370H842Q847 -369 847 -365Q848 -361 852 -359ZM295 67V70Q295 78 283 78Q275 78 269 76V74Q269 66 281 66Q288 67 295 67ZM504 -41H510Q520 -56 537 -77Q559 -103 566 -115Q563 -116 557 -116Q543 -115 534 -108Q524 -100 516 -94Q493 -83 478 -69Q456 -58 453 -48Q493 -41 504 -41ZM809 -535H814Q815 -532 815 -527Q815 -514 805 -508L802 -482Q791 -398 791 -357Q792 -343 793 -330Q798 -327 802 -324Q812 -328 822 -331H825Q830 -327 837 -317Q844 -305 852 -302Q863 -306 874 -311Q884 -316 901 -316H905Q893 -309 881 -302Q869 -295 864 -283Q869 -276 890 -276H902Q917 -276 923 -274V-273L921 -269L923 -268Q915 -262 898 -262Q886 -262 880 -259Q864 -252 864 -231Q864 -216 870 -206Q868 -208 860 -208Q847 -206 833 -205H830Q815 -205 786 -217Q765 -226 755 -226Q746 -245 719 -265Q685 -291 677 -299Q676 -301 665 -301Q683 -312 701 -324Q692 -330 685 -330Q693 -378 698 -468Q702 -549 709 -590Q680 -586 635 -563Q586 -538 585 -518Q581 -462 581 -436Q581 -419 582 -394Q582 -370 574 -341Q531 -347 527 -396Q527 -449 492 -502Q480 -422 473 -340Q520 -325 541 -324Q572 -322 589 -341Q623 -390 620 -438Q618 -442 621 -446Q620 -448 620 -451L619 -455Q619 -456 620 -456Q618 -456 615 -456Q617 -462 617 -464L615 -465L612 -468Q611 -466 609 -465Q606 -461 596 -457Q593 -471 600 -483Q602 -486 603 -489Q604 -494 604 -503Q604 -510 607 -516Q617 -532 636 -538Q664 -540 678 -526Q682 -522 683 -519L685 -518Q697 -510 697 -503V-502Q695 -489 687 -474Q685 -466 676 -450Q676 -447 676 -444Q678 -338 644 -259Q630 -230 587 -221L611 -218H614Q618 -218 624 -212Q631 -205 637 -205H638L640 -207Q639 -210 637 -213L638 -214Q648 -214 658 -202Q708 -186 746 -186H751Q760 -187 769 -189Q778 -189 781 -177L811 -179Q819 -192 838 -193Q857 -194 876 -196Q879 -200 882 -204Q884 -208 890 -208H893V-206Q896 -178 917 -177Q923 -177 930 -185Q939 -195 945 -195Q945 -194 929 -166Q936 -152 946 -152Q949 -152 951 -153Q943 -148 943 -139Q945 -127 946 -115V-112Q941 -102 935 -95Q933 -91 933 -84Q933 -76 929 -72Q905 -68 896 -68Q880 -68 875 -70Q874 -70 861 -78Q851 -82 795 -91Q764 -98 733 -106H726Q713 -106 709 -99Q705 -92 696 -81Q681 -67 657 -54Q634 -42 623 -20Q642 -14 673 -10Q688 -10 694 -20Q697 -7 703 2Q713 -7 716 -24Q718 -42 723 -56Q725 -46 725 -39Q724 -20 723 -2Q723 9 726 18Q728 16 728 7Q728 -5 733 -5V-1Q733 18 746 37Q740 39 740 46Q744 62 749 73Q740 82 740 93Q740 96 742 102Q709 117 694 133H693Q688 133 687 129Q686 124 683 121Q677 115 660 106Q636 93 629 81L599 72H595Q586 72 575 64Q566 57 561 57H560Q551 58 540 75Q531 90 527 105Q518 106 505 122Q494 135 488 135H486Q459 127 443 103Q404 94 364 85H397Q410 85 428 87Q416 79 390 78Q364 77 341 76Q332 75 322 74Q313 74 308 68Q324 64 332 64Q366 68 400 71Q411 71 421 68Q417 63 401 63Q387 63 384 61Q392 56 408 54Q422 52 428 48Q433 45 444 32Q439 31 433 29Q429 31 418 31H409Q402 30 386 30Q343 30 332 49Q301 43 292 17Q281 -11 271 -38Q280 -47 300 -58Q321 -70 328 -76Q208 -52 159 -17Q150 -8 140 4Q131 15 117 18H115Q99 17 90 7Q81 -3 70 -11Q58 -14 51 -19Q44 -27 44 -42Q44 -50 45 -53Q51 -71 55 -81V-84Q53 -95 51 -107Q52 -120 62 -130Q66 -135 81 -145Q91 -153 102 -163Q112 -173 125 -177Q110 -159 110 -150Q110 -144 114 -139Q165 -146 213 -148L325 -159Q338 -169 363 -171Q387 -173 412 -175Q417 -179 417 -190V-198Q417 -213 427 -216L429 -218Q427 -217 423 -217Q415 -228 394 -245Q377 -259 368 -269Q358 -232 343 -206Q339 -198 315 -183Q290 -168 280 -167H278Q274 -167 253 -175Q239 -182 234 -182Q231 -183 209 -165Q219 -182 219 -192Q219 -196 216 -198L212 -199Q195 -203 178 -207Q194 -211 207 -211Q206 -214 204 -218Q202 -224 202 -228Q202 -236 204 -240Q198 -250 191 -261Q184 -273 170 -280Q156 -285 148 -295Q203 -278 237 -276Q279 -274 299 -296Q315 -314 327 -360Q338 -403 335 -423Q335 -428 336 -431V-436L335 -440Q334 -441 325 -441Q328 -447 327 -449L323 -453Q322 -451 320 -450Q316 -446 306 -442Q303 -457 310 -468Q313 -471 313 -474Q314 -481 315 -488Q315 -497 318 -501Q326 -516 347 -523Q368 -525 381 -517Q398 -516 409 -486Q412 -477 406 -468Q399 -458 392 -447L391 -445Q388 -437 389 -429Q391 -364 375 -294Q389 -310 416 -319Q408 -337 408 -366Q408 -370 412 -421Q424 -560 411 -588Q395 -586 368 -577Q339 -567 332 -559Q325 -553 318 -547Q311 -542 310 -534Q310 -529 311 -526Q295 -524 295 -504Q295 -475 305 -381Q308 -328 293 -319Q289 -319 286 -314Q284 -310 282 -306Q279 -305 275 -305Q267 -308 258 -311Q229 -331 224 -351L220 -360Q211 -367 203 -384Q195 -402 187 -405Q124 -447 100 -508Q98 -528 84 -560Q66 -598 66 -620Q72 -615 78 -601Q82 -591 86 -586Q104 -563 116 -562Q111 -571 102 -583Q94 -595 92 -611Q101 -605 113 -591Q123 -580 129 -575V-578Q126 -588 122 -599Q122 -602 124 -604H128Q142 -602 152 -597Q177 -617 219 -620Q248 -620 259 -600Q262 -603 269 -617H271Q274 -616 277 -616Q344 -656 401 -715Q408 -724 417 -734Q425 -745 435 -751Q445 -755 465 -756Q488 -757 496 -760Q495 -758 495 -754Q496 -747 502 -742Q507 -736 511 -730Q523 -733 529 -742V-740Q524 -732 519 -721Q521 -718 522 -716L523 -715Q530 -715 534 -719Q531 -710 531 -709Q531 -704 536 -691Q543 -673 543 -661Q543 -656 542 -652Q508 -633 499 -577Q508 -582 512 -590Q516 -598 521 -607Q532 -623 546 -631Q556 -633 565 -633Q572 -633 578 -631Q579 -631 626 -663Q655 -683 683 -685L705 -701Q705 -719 725 -741Q744 -761 762 -766Q783 -770 806 -770Q828 -770 846 -781Q846 -778 845 -775Q845 -763 858 -757Q865 -763 872 -769V-768Q872 -764 868 -756Q862 -745 862 -739Q863 -736 864 -733H866Q869 -733 874 -737Q881 -743 885 -743Q878 -732 876 -718V-713L878 -711H882L884 -710V-706Q887 -685 890 -665Q890 -662 888 -650Q872 -635 854 -619Q836 -603 825 -584Q823 -580 823 -575Q824 -568 813 -565ZM562 -225Q558 -226 553 -228Q542 -233 534 -235Q531 -234 525 -230ZM515 -231Q519 -239 519 -245Q519 -249 517 -251Q515 -251 512 -252Q499 -256 485 -260Q498 -264 507 -264Q506 -267 504 -271Q502 -277 502 -281Q502 -285 504 -293Q498 -303 491 -314Q485 -325 473 -332Q471 -320 471 -313Q459 -313 459 -307V-305Q451 -307 449 -307Q445 -307 439 -304Q446 -290 464 -290H471Q462 -284 462 -275Q465 -262 467 -249Q467 -245 464 -237L468 -238Z"/>
</svg>