<svg xmlns="http://www.w3.org/2000/svg" viewBox="0 -800 1024 1024">
	<path fill="#000000" d="M417 -524V-526Q417 -538 429 -538Q433 -538 436 -535Q429 -524 417 -524ZM912 -227H915Q916 -225 916 -222Q912 -209 904 -199Q902 -205 902 -212Q902 -227 912 -227ZM888 108H886Q878 110 870 111Q861 108 852 105Q849 105 847 106Q810 80 768 66Q727 53 682 35Q652 21 618 8Q608 7 598 5Q585 -3 570 -6H567Q558 -16 546 -17Q535 -19 518 -23Q497 -31 476 -40Q464 -41 451 -43Q388 -64 321 -75H302Q285 -80 280 -80Q278 -79 275 -79Q262 -75 249 -58Q236 -40 228 -28Q203 6 198 41Q186 44 176 60Q172 61 164 61Q143 61 130 49Q118 38 110 22Q97 -12 74 -34Q79 -34 83 -30Q87 -26 91 -26Q92 -29 92 -33Q92 -50 77 -67Q69 -77 51 -90Q31 -105 25 -113Q60 -100 114 -56Q129 -61 141 -69Q152 -78 164 -86Q139 -93 126 -100Q106 -111 103 -127V-130Q103 -137 109 -149Q115 -161 115 -171V-173Q133 -187 172 -187Q215 -184 257 -181Q271 -197 284 -214Q276 -214 262 -204Q249 -195 240 -195Q233 -195 226 -199Q214 -206 196 -236Q177 -268 177 -285Q185 -315 199 -346Q211 -380 217 -409Q212 -408 199 -399Q182 -387 170 -387Q167 -387 163 -388Q155 -391 146 -402Q138 -412 130 -420Q112 -435 94 -451Q91 -458 91 -466Q91 -480 104 -504Q114 -522 115 -529Q116 -532 116 -538Q116 -551 102 -584H105Q109 -584 114 -579Q119 -574 122 -574L125 -575L126 -578Q126 -583 117 -590Q109 -596 109 -601V-604Q121 -597 133 -590Q140 -594 146 -598H147Q151 -595 154 -592H155Q187 -594 215 -607Q231 -614 266 -637Q283 -650 297 -656L301 -657Q307 -656 313 -655H315Q330 -660 347 -664Q349 -662 349 -660Q348 -656 347 -652Q353 -655 359 -661Q367 -669 371 -671Q365 -659 365 -645Q365 -633 371 -628L374 -627Q375 -627 377 -632Q384 -607 393 -585Q402 -563 403 -533Q403 -523 402 -518Q393 -510 380 -505Q359 -487 348 -460Q337 -433 327 -403Q313 -382 306 -349Q300 -341 296 -329Q305 -330 320 -339Q341 -352 356 -352H358Q380 -333 388 -316Q396 -303 404 -291Q413 -279 414 -261Q414 -257 413 -253Q371 -233 337 -173Q442 -152 546 -131V-133Q545 -142 543 -151Q543 -155 544 -158Q541 -167 524 -184Q525 -187 525 -191Q524 -208 511 -218Q498 -228 490 -239L493 -240Q502 -236 511 -232Q520 -234 531 -247Q543 -262 552 -263L556 -264Q562 -263 568 -262Q576 -262 593 -268Q612 -274 623 -274Q623 -290 618 -335Q521 -321 467 -270Q458 -275 446 -280Q434 -284 427 -293Q425 -301 422 -310Q419 -316 406 -325Q388 -338 385 -348Q384 -353 384 -362Q388 -397 416 -421Q415 -425 415 -432Q417 -457 441 -468Q465 -479 487 -489Q484 -483 480 -479Q476 -475 476 -467V-464Q511 -466 546 -469H552Q560 -477 571 -478Q581 -480 595 -483Q591 -501 589 -523Q586 -524 581 -524Q566 -524 552 -505Q551 -517 538 -526Q526 -535 512 -535Q500 -531 491 -527H490Q491 -534 498 -540Q504 -546 506 -549Q499 -561 486 -561Q474 -560 461 -553Q448 -546 439 -542Q442 -553 459 -563Q471 -570 475 -577Q463 -574 404 -547Q432 -580 490 -626Q513 -644 534 -664Q555 -684 576 -704Q591 -716 608 -727Q624 -738 636 -754V-755Q636 -757 633 -759Q630 -761 630 -763V-764Q648 -772 671 -783Q694 -795 716 -796Q726 -796 731 -794Q744 -790 759 -770Q775 -750 787 -746Q786 -743 786 -737Q786 -725 796 -703Q803 -688 805 -679V-667Q809 -656 812 -646V-644Q811 -631 803 -617Q798 -604 796 -602Q793 -599 777 -596Q729 -588 706 -571Q717 -542 728 -514Q819 -534 868 -555V-553Q868 -549 865 -547Q862 -545 862 -543V-541Q871 -543 890 -554Q908 -565 918 -568Q914 -560 903 -550Q888 -536 888 -522V-520H889Q892 -520 910 -529L911 -526Q907 -517 903 -509Q906 -496 925 -494V-493Q923 -484 915 -472Q909 -454 905 -428Q902 -402 888 -391Q852 -390 784 -380Q763 -377 744 -373Q724 -369 709 -359V-356Q706 -333 702 -311Q702 -301 704 -296Q732 -299 750 -305Q756 -302 762 -302Q768 -302 780 -308Q790 -313 797 -313H798Q788 -296 788 -286Q788 -277 796 -273Q804 -278 813 -280H817Q809 -269 805 -257Q805 -252 809 -248H810Q814 -249 818 -251H821Q814 -244 814 -234Q814 -227 818 -223Q805 -195 805 -165V-154Q797 -145 789 -136Q753 -138 735 -138Q662 -138 630 -116Q649 -105 678 -100Q706 -95 737 -88Q781 -72 820 -64H823Q837 -64 851 -73Q859 -129 868 -154Q870 -144 870 -139Q869 -123 868 -107Q868 -91 874 -85Q878 -112 878 -146Q877 -197 876 -248V-259Q876 -264 875 -269Q875 -275 880 -276Q884 -223 886 -168Q889 -113 898 -66Q902 -81 902 -100Q901 -131 899 -163Q899 -172 901 -188Q907 -142 915 -100V-73Q917 -58 926 -45Q935 -32 943 -19Q954 4 965 41Q959 48 957 83Q944 93 931 103Q919 113 901 114Q895 111 888 108Z"/>
</svg>