<svg xmlns="http://www.w3.org/2000/svg" viewBox="0 -800 1024 1024">
	<path fill="#000000" d="M520 30V24H525Q538 24 554 31Q551 32 542 32Q532 32 520 30ZM889 -419Q882 -410 868 -405Q866 -409 866 -410Q866 -415 871 -420Q877 -420 883 -421Q887 -421 889 -419ZM36 -338V-340Q36 -358 57 -358Q49 -339 36 -338ZM655 -443V-447Q656 -453 656 -460Q656 -467 652 -468H649Q633 -464 606 -447Q601 -444 594 -441Q588 -438 587 -432V-429Q620 -434 655 -443ZM692 -614Q679 -608 670 -599Q655 -585 640 -571Q626 -560 612 -550Q598 -540 593 -525Q643 -539 680 -561Q686 -590 692 -614ZM174 -371H169V-373Q170 -377 174 -381Q171 -388 165 -388Q156 -385 147 -383L146 -386Q149 -390 154 -395Q148 -400 140 -400Q129 -399 119 -392Q109 -385 101 -381Q111 -395 120 -410Q104 -407 84 -386Q70 -371 60 -366Q65 -383 78 -396Q92 -409 105 -424Q163 -488 209 -531Q221 -542 238 -556Q256 -570 260 -585Q261 -588 261 -592Q261 -601 249 -615Q253 -614 260 -614Q279 -614 284 -623V-624Q281 -630 278 -636Q292 -636 316 -643Q344 -651 354 -651Q370 -651 381 -640Q389 -622 397 -605Q420 -564 420 -541Q420 -526 415 -516Q289 -416 233 -345Q222 -349 211 -353Q209 -353 203 -351Q195 -356 190 -363Q185 -370 174 -371ZM366 -74V-39Q369 -20 372 -2Q372 6 363 22Q357 34 356 42Q346 50 336 59Q327 68 325 84Q321 77 319 69Q306 64 297 62Q287 60 278 51Q277 50 263 29Q253 14 240 12V9Q241 2 242 -5V-8Q230 -16 218 -19Q246 -33 254 -79Q256 -92 260 -170Q248 -165 241 -155Q233 -144 227 -135Q208 -120 197 -98Q187 -90 174 -67Q163 -48 156 -41Q150 -8 135 13Q131 14 127 14Q114 14 104 8Q100 6 87 -5H85Q80 -2 75 0H74Q77 -9 79 -18Q67 -36 51 -48Q52 -50 52 -53Q52 -59 44 -69Q37 -78 36 -85V-91Q40 -114 46 -137V-143Q46 -159 41 -185Q35 -216 35 -229Q35 -240 36 -246Q44 -223 51 -198Q57 -173 73 -156Q78 -161 78 -166Q78 -171 71 -183Q63 -197 63 -206Q63 -210 64 -212Q69 -207 76 -194Q86 -177 93 -171Q137 -199 188 -257Q190 -260 257 -323Q299 -363 317 -398V-400Q316 -405 314 -410H316Q322 -410 331 -416Q337 -420 341 -420L345 -419Q353 -430 368 -430Q382 -430 394 -420Q406 -410 407 -396H408Q412 -396 415 -397L419 -396Q415 -391 415 -384Q418 -368 421 -353V-351Q420 -335 404 -317Q397 -309 378 -300Q363 -293 358 -289Q342 -276 325 -248Q336 -231 352 -213Q369 -195 373 -168V-158Q370 -116 366 -74ZM708 125H701Q690 116 680 105Q670 95 655 90Q652 74 642 66Q631 58 617 54Q586 48 563 33H570Q600 35 630 42Q607 28 579 23Q550 18 525 13Q497 6 490 -3Q525 2 558 10Q590 18 628 19H632Q629 11 612 9Q599 7 593 4Q613 3 631 1Q649 -2 659 -12Q670 -71 671 -137Q664 -138 648 -138Q604 -138 578 -126V-125Q578 -117 584 -114Q590 -111 596 -107Q597 -110 599 -113Q600 -116 605 -116H609Q607 -108 607 -106Q610 -87 628 -78Q625 -69 625 -54Q625 -44 627 -32Q614 -18 595 -18Q584 -18 559 -24Q535 -30 523 -30Q503 -30 493 -16Q494 -22 507 -34Q516 -42 519 -47Q517 -54 508 -66Q497 -81 497 -89Q497 -95 505 -105Q497 -103 478 -93Q453 -80 441 -80Q426 -80 415 -95H412Q400 -95 393 -104Q386 -113 386 -126Q386 -150 403 -156Q402 -162 400 -168V-170Q414 -189 436 -196Q459 -203 481 -213V-212Q481 -205 472 -200Q463 -196 462 -191Q470 -188 479 -188Q491 -188 519 -194Q589 -211 662 -225Q659 -235 653 -243Q622 -240 578 -226Q566 -219 557 -211Q548 -203 536 -202Q532 -202 529 -203Q525 -207 522 -213Q517 -222 513 -226Q502 -233 490 -237Q478 -241 474 -251Q472 -257 472 -262Q472 -276 478 -285V-286Q478 -291 473 -296Q470 -299 470 -302L471 -305H472Q478 -302 484 -299L486 -300V-302Q486 -308 475 -316Q464 -324 464 -330V-332Q470 -332 478 -327Q484 -324 489 -323Q499 -328 507 -333Q515 -335 519 -335Q534 -333 548 -332Q584 -333 617 -342Q650 -350 684 -358Q679 -365 670 -365Q659 -363 647 -361Q625 -357 598 -356Q572 -354 557 -342Q551 -344 545 -344Q537 -344 529 -342Q527 -350 518 -361Q509 -373 507 -381Q506 -384 503 -385Q499 -386 498 -387Q500 -402 505 -410Q494 -515 459 -555Q455 -556 450 -557Q449 -557 446 -554Q443 -579 440 -605Q440 -622 449 -631Q447 -653 444 -675Q444 -685 446 -689Q455 -659 468 -649V-652Q468 -659 463 -667Q458 -675 458 -680V-683Q464 -681 469 -675Q474 -668 480 -666Q484 -664 494 -664Q508 -664 521 -665Q538 -665 545 -656Q562 -668 595 -686Q640 -711 659 -726Q682 -739 704 -753Q713 -767 729 -774Q741 -805 783 -805Q820 -805 838 -781Q846 -788 859 -791H861Q861 -790 856 -778Q861 -778 872 -788Q886 -800 893 -800Q894 -800 898 -798Q893 -792 884 -782Q874 -772 873 -761Q873 -754 878 -749Q882 -749 885 -755Q887 -760 891 -760Q894 -760 896 -759Q893 -745 893 -735Q893 -711 908 -690Q899 -665 893 -634Q885 -636 882 -636Q868 -636 858 -629Q848 -622 848 -612L849 -608Q827 -599 812 -564Q806 -551 791 -501Q782 -469 773 -396Q787 -392 797 -386Q801 -387 805 -390Q811 -395 815 -395H817Q819 -391 819 -390Q816 -383 810 -377Q819 -379 834 -388Q849 -397 861 -399Q849 -391 838 -382Q826 -373 822 -357L825 -356Q828 -356 832 -362Q837 -369 843 -369H844L845 -367Q840 -358 835 -350Q835 -341 843 -315Q839 -290 819 -283Q799 -276 781 -267Q786 -254 791 -242Q843 -245 892 -273Q894 -282 896 -291Q909 -264 940 -261Q948 -261 952 -263L953 -259Q952 -253 951 -247V-246Q951 -243 954 -243Q959 -244 963 -245Q960 -240 960 -234Q965 -210 970 -187Q970 -176 963 -171V-170Q966 -163 969 -157Q963 -158 956 -160H954L955 -158Q955 -154 942 -153Q929 -151 929 -148V-147Q869 -149 809 -151Q785 -151 773 -150Q760 -118 760 -72Q760 -11 779 50Q768 85 756 101Q738 125 708 125Z"/>
</svg>