<svg xmlns="http://www.w3.org/2000/svg" viewBox="0 -800 1024 1024">
	<path fill="#000000" d="M933 -284H931Q923 -281 915 -279Q914 -279 910 -281Q912 -292 923 -292Q933 -292 933 -284ZM112 -69Q111 -66 105 -64Q100 -62 99 -60Q87 -68 84 -75Q86 -76 90 -76Q101 -72 112 -69ZM746 -321Q690 -321 690 -291Q690 -285 691 -282Q668 -280 665 -263Q679 -268 697 -275Q715 -283 736 -284Q733 -291 733 -299Q733 -317 746 -321ZM752 -407Q743 -424 726 -424Q700 -420 673 -410Q650 -407 626 -404Q591 -396 556 -366Q658 -386 752 -407ZM299 -332V-295Q299 -284 298 -274Q298 -260 305 -257Q327 -327 333 -410Q335 -420 336 -431Q336 -438 330 -443Q299 -434 299 -332ZM665 -496V-499Q666 -505 671 -509Q677 -512 681 -516Q697 -543 703 -584Q685 -583 673 -575Q661 -568 644 -561Q586 -542 586 -507Q586 -492 594 -476Q618 -480 665 -496ZM705 43H693Q620 43 571 69Q562 76 552 79H550Q539 79 523 63Q519 64 515 64Q495 64 482 51Q469 38 469 22Q469 1 494 -5V-7Q495 -28 511 -35Q527 -42 542 -50V-48Q540 -42 537 -37V-36Q549 -34 557 -34Q602 -37 646 -41H651Q648 -55 644 -69Q642 -70 637 -70Q629 -70 612 -61Q596 -53 587 -53H586Q575 -54 568 -63Q561 -71 553 -80Q556 -86 556 -92Q554 -110 538 -121Q521 -132 509 -143H513Q528 -139 542 -134H544Q554 -134 574 -144Q600 -157 616 -157Q624 -157 628 -156V-157Q628 -158 622 -173Q599 -167 579 -154Q556 -157 545 -176Q537 -191 533 -222Q545 -246 564 -262Q582 -278 601 -295Q597 -296 590 -296Q579 -296 570 -292Q568 -276 555 -268Q547 -263 527 -258Q507 -209 490 -134Q480 -91 465 0Q458 6 444 6Q436 6 428 5Q413 5 407 12L406 9Q407 4 408 -2Q406 -12 394 -21Q383 -30 380 -36Q378 -42 377 -53Q376 -66 373 -72Q370 -76 367 -80Q373 -92 379 -105Q392 -146 407 -183Q409 -177 409 -173Q407 -158 405 -144Q405 -136 410 -132Q461 -246 476 -302Q474 -306 474 -318Q474 -328 475 -332Q476 -333 480 -333H482Q481 -336 479 -340V-341Q488 -345 493 -372Q498 -403 503 -410Q499 -417 499 -424Q501 -435 502 -446V-448Q501 -458 499 -468Q499 -475 503 -479Q487 -500 466 -519Q439 -472 428 -442Q411 -395 411 -341Q409 -322 407 -303V-293Q410 -259 413 -225V-216Q412 -208 402 -192Q393 -178 392 -170Q388 -171 378 -171Q360 -171 360 -160V-159Q355 -162 355 -170Q328 -173 323 -198Q317 -224 303 -242Q298 -238 298 -228Q299 -218 300 -209Q308 -62 329 -9Q323 12 323 38V49Q312 61 302 72Q292 83 272 84H264Q255 76 242 56Q227 32 216 25Q210 5 194 -7Q177 -19 167 -32H169Q180 -32 186 -27Q192 -23 199 -20L200 -24Q200 -31 189 -35Q183 -38 160 -43Q129 -49 120 -59H122Q136 -59 162 -51Q188 -43 198 -43Q213 -43 223 -54Q233 -115 236 -198Q237 -218 238 -351Q223 -346 215 -327Q207 -308 207 -285Q207 -264 214 -243Q209 -238 209 -227Q209 -212 216 -198Q212 -183 208 -168Q191 -161 176 -153Q161 -145 157 -126Q152 -135 148 -156Q142 -163 126 -165Q118 -180 117 -181Q111 -189 100 -189H96Q105 -202 105 -224Q105 -246 96 -282Q91 -318 78 -344Q73 -351 58 -365Q44 -378 40 -387Q40 -399 36 -414Q31 -433 31 -443V-449Q36 -469 41 -490V-492Q41 -500 34 -512Q27 -524 27 -530Q27 -535 28 -537Q32 -535 37 -526Q43 -515 49 -515L52 -516Q51 -522 43 -535Q32 -553 31 -564Q48 -541 74 -527V-529Q74 -536 58 -552H61Q67 -552 76 -546Q85 -539 90 -539H92Q105 -542 117 -545Q122 -543 126 -542H129Q136 -543 143 -544Q146 -544 148 -543Q172 -532 184 -505Q196 -478 207 -446Q215 -451 225 -460Q236 -470 249 -474Q243 -541 243 -615Q242 -631 233 -659Q225 -684 225 -697V-699Q226 -718 241 -740Q257 -764 274 -769Q277 -770 285 -770Q296 -770 299 -768Q310 -762 324 -738Q339 -712 339 -691V-689Q338 -668 326 -632Q311 -587 311 -562Q311 -548 314 -533Q332 -542 339 -557Q346 -573 355 -588Q362 -598 382 -608Q407 -621 414 -636Q416 -634 416 -627V-612L417 -611Q420 -614 425 -617H426V-615Q427 -608 428 -602V-600Q447 -594 452 -579V-589Q452 -664 540 -690Q520 -681 520 -669Q520 -663 524 -659Q651 -689 727 -726Q745 -736 766 -748Q788 -761 811 -762Q830 -762 845 -750Q851 -751 868 -755L870 -753Q868 -748 866 -743L868 -740Q886 -747 903 -755Q901 -751 895 -744Q888 -737 887 -731Q890 -726 892 -722Q898 -723 905 -729Q914 -737 922 -737Q918 -724 910 -712Q917 -695 925 -681Q933 -667 934 -647Q929 -640 911 -629Q894 -619 887 -609Q878 -591 869 -573Q858 -558 845 -545Q816 -502 805 -444Q797 -425 797 -420H799Q808 -421 816 -423Q819 -423 821 -422Q836 -441 887 -446Q871 -438 871 -425Q871 -413 892 -410Q892 -407 891 -405Q891 -397 896 -384Q903 -365 903 -357Q903 -349 900 -342Q890 -339 872 -329Q857 -334 840 -334Q796 -331 757 -324Q810 -321 844 -300Q862 -308 879 -312Q872 -305 864 -301Q856 -296 853 -285Q858 -274 873 -274Q885 -274 897 -275H900Q898 -270 889 -268Q881 -266 879 -263Q873 -255 873 -248Q873 -227 919 -212Q907 -212 894 -213Q873 -213 873 -203Q873 -198 875 -195Q864 -193 864 -177V-164Q864 -157 863 -154Q860 -156 856 -162Q851 -169 848 -171Q837 -171 832 -162Q830 -166 827 -171Q808 -176 796 -188Q784 -201 770 -212H766Q760 -212 740 -207Q745 -200 746 -191Q746 -187 743 -180Q746 -176 752 -176Q765 -178 778 -180H780Q785 -165 787 -161Q792 -152 803 -152H808Q807 -147 803 -140Q798 -132 798 -128Q801 -119 804 -110Q804 -106 799 -100Q795 -95 795 -91V-90Q773 -90 755 -87Q725 -83 723 -52V-50Q728 -49 733 -49Q771 -52 815 -62Q871 -71 882 -75Q913 -86 924 -113Q918 -86 918 -75Q918 -56 931 -50Q942 -54 952 -58Q956 -58 958 -56Q948 -53 944 -41Q949 -36 956 -35Q955 -32 955 -27Q955 -17 966 4Q974 19 976 30Q971 37 968 43Q968 46 970 48Q954 52 950 67Q947 66 939 66Q930 66 924 69Q885 54 821 49Q813 48 705 43Z"/>
</svg>