<svg xmlns="http://www.w3.org/2000/svg" viewBox="0 -800 1024 1024">
	<path fill="#000000" d="M438 -377Q432 -372 422 -362Q406 -362 390 -366Q378 -366 356 -374Q333 -343 327 -300Q316 -214 316 -118V-87Q359 -110 396 -152Q429 -190 454 -239Q428 -226 410 -205Q392 -184 375 -164Q352 -178 347 -188Q345 -192 345 -196Q346 -199 346 -203Q332 -212 328 -224Q327 -228 327 -240Q327 -283 335 -305Q351 -338 371 -355V-351Q371 -343 374 -339H378Q398 -340 411 -345Q423 -350 439 -354V-367Q439 -372 438 -377ZM520 -416Q518 -385 521 -378Q532 -380 542 -383Q546 -383 548 -382Q554 -388 561 -395Q568 -402 578 -403Q582 -403 584 -402Q584 -415 583 -429Q588 -436 592 -443Q592 -444 589 -446Q572 -436 520 -416ZM972 42V47Q972 51 974 61Q959 69 941 76Q924 82 916 96Q905 89 883 83Q863 78 857 75Q846 70 818 42Q790 15 767 -18Q744 -51 723 -84Q688 -37 649 10Q614 9 589 -30V-33Q590 -38 590 -43V-45Q590 -49 587 -51Q584 -52 581 -54V-59Q578 -76 575 -94Q576 -102 581 -113Q587 -126 587 -131Q587 -137 583 -144Q549 -53 525 39H521Q511 36 501 33H497Q482 11 461 -36Q467 -52 467 -63Q467 -74 460 -81Q462 -83 464 -83Q471 -79 477 -75Q486 -82 496 -106Q504 -125 510 -132Q508 -137 506 -143Q494 -140 487 -131Q480 -121 475 -111Q467 -89 445 -81Q423 -54 406 -21Q390 12 372 43Q338 40 315 -3V-6Q315 -12 319 -18Q297 -13 289 16Q260 -1 236 -26Q203 4 183 49Q178 50 169 50Q156 50 138 42Q130 40 121 37Q114 33 109 17Q104 0 94 -5Q97 -17 97 -31Q97 -74 73 -144Q59 -183 51 -198Q42 -213 34 -228Q25 -243 23 -263V-269Q23 -286 29 -314Q38 -333 42 -356V-359Q39 -383 30 -408Q25 -435 20 -462Q28 -442 34 -421Q41 -400 54 -386V-389Q54 -396 50 -406Q44 -421 44 -428V-432Q57 -411 70 -405Q69 -418 64 -430Q87 -407 109 -407Q116 -407 125 -410Q135 -403 144 -389Q161 -403 190 -437Q219 -471 236 -485Q238 -510 253 -522Q268 -533 283 -545Q293 -544 303 -544Q315 -544 321 -549L323 -548Q321 -544 318 -540V-539Q320 -534 325 -533Q339 -541 339 -557Q338 -582 315 -594Q321 -595 326 -597H328Q326 -602 317 -610Q308 -619 307 -623Q321 -619 334 -615Q377 -632 420 -650Q423 -662 423 -676Q423 -721 392 -729Q412 -745 425 -753Q446 -766 463 -766Q482 -766 498 -753Q522 -735 536 -708Q537 -704 537 -701Q537 -691 528 -681Q518 -670 518 -659H520Q527 -662 541 -666H544Q546 -654 548 -651Q561 -646 566 -633Q572 -619 577 -606Q572 -598 572 -586V-576Q560 -572 548 -560Q521 -558 509 -553Q491 -546 488 -528H491Q506 -532 529 -536Q537 -536 541 -534Q549 -537 556 -540Q567 -526 580 -515Q584 -518 601 -518Q599 -516 593 -515Q587 -514 586 -508L587 -504Q590 -501 609 -499Q607 -497 601 -496Q594 -495 593 -488Q593 -480 601 -477Q600 -475 598 -473Q595 -471 595 -469V-467Q598 -463 601 -463Q608 -465 615 -468Q626 -508 639 -552Q651 -596 657 -645Q644 -667 627 -667Q615 -667 609 -650V-654Q610 -663 616 -670Q621 -677 625 -684Q621 -694 617 -705Q634 -729 659 -758Q684 -786 720 -789Q729 -789 734 -788Q753 -784 769 -751Q784 -720 784 -692Q784 -682 779 -663Q774 -644 774 -633Q774 -627 775 -623H766Q751 -600 734 -577Q718 -555 714 -519Q721 -521 728 -524Q733 -524 735 -519Q791 -548 845 -581L846 -579Q846 -575 845 -571V-568Q856 -568 868 -578Q880 -588 889 -588Q895 -588 898 -587Q891 -582 885 -579Q878 -575 877 -565Q882 -557 891 -557Q893 -557 917 -565Q900 -556 900 -541Q901 -537 901 -534Q904 -531 910 -530Q903 -514 903 -483V-465Q903 -441 901 -429Q901 -423 895 -423Q895 -419 899 -419Q820 -406 759 -372Q767 -370 771 -370Q784 -371 797 -372H802Q827 -365 832 -337Q836 -305 846 -278V-277Q844 -273 842 -270V-265Q840 -226 818 -207Q795 -187 778 -162Q789 -131 818 -102Q819 -101 870 -56Q873 -56 873 -60V-65Q891 -51 898 -50Q900 -60 901 -81Q902 -115 908 -125V-115Q908 -87 913 -60Q915 -90 915 -108Q914 -160 913 -213V-234Q920 -139 926 -45Q932 -58 932 -87V-131Q931 -161 938 -180Q943 -153 944 -101Q945 -41 950 -18Q952 -27 952 -49V-82Q952 -116 960 -126Q962 -81 964 -36Q966 8 983 37Q978 40 972 42ZM732 -269V-270Q732 -282 723 -301Q714 -320 714 -328V-333Q718 -345 731 -351Q744 -357 754 -366L751 -368Q705 -348 670 -320H660Q657 -315 654 -311Q649 -317 634 -322Q622 -326 617 -330Q613 -316 609 -303Q577 -303 562 -300Q539 -295 531 -281Q539 -277 547 -273Q558 -282 567 -282H569Q570 -262 587 -245Q582 -227 582 -203Q582 -146 609 -138Q609 -148 612 -150Q617 -147 621 -144Q632 -155 658 -171Q645 -193 629 -212Q612 -231 611 -265Q611 -276 612 -282L613 -283H615L617 -285Q612 -295 612 -296Q612 -298 614 -300Q650 -295 671 -274Q692 -253 713 -233Q715 -239 722 -247Q732 -259 732 -269ZM223 -308V-317L221 -318Q197 -307 197 -279Q197 -270 199 -266Q192 -261 189 -251Q186 -237 186 -217Q186 -174 193 -141Q189 -140 189 -133Q189 -124 195 -120Q206 -136 208 -160Q210 -184 211 -210Q219 -263 223 -308ZM409 -512H408Q399 -517 390 -522H388Q385 -521 381 -521Q374 -530 367 -538Q359 -547 346 -549Q344 -541 344 -536Q344 -516 354 -515Q355 -516 356 -520Q357 -525 360 -525H362Q366 -505 369 -485Q407 -495 435 -506Q434 -513 421 -513Q415 -512 409 -512ZM931 -192V-215H933Q939 -214 945 -213Q941 -194 931 -192ZM598 -452H599Q601 -456 602 -461Q593 -461 592 -458Q595 -457 595 -455Q595 -452 598 -452ZM321 -27Q322 -28 322 -34Q322 -40 319 -42L318 -39Q318 -36 321 -27Z"/>
</svg>