<svg xmlns="http://www.w3.org/2000/svg" viewBox="0 -800 1024 1024">
	<path fill="#000000" d="M254 -85Q252 -84 249 -84Q238 -84 238 -108Q253 -100 254 -85ZM739 -261Q741 -253 741 -251V-248Q736 -239 731 -231Q730 -228 730 -223Q731 -210 732 -197Q732 -185 725 -179H721Q702 -179 693 -170Q685 -161 676 -149Q667 -140 657 -132Q652 -124 646 -108Q637 -84 628 -77L624 -54Q626 -46 626 -44Q623 -22 605 2Q593 24 582 40Q571 56 541 59Q533 47 532 46Q526 40 516 39Q510 19 496 5L495 4Q490 7 484 10L482 9V7Q482 2 486 0Q492 -3 493 -4Q488 -31 473 -49Q458 -67 443 -84Q445 -85 449 -85Q455 -85 463 -76Q472 -66 479 -66Q484 -66 486 -67Q478 -78 463 -89Q447 -100 443 -120Q467 -101 492 -87V-90Q492 -96 482 -103Q469 -113 468 -121Q483 -117 495 -108Q517 -118 534 -144Q540 -153 560 -192Q489 -178 455 -144Q446 -135 423 -87Q387 -5 358 51Q339 58 334 82Q326 62 312 60Q295 32 282 25Q286 17 289 8Q287 3 274 -15Q276 -21 277 -28Q277 -40 267 -58Q259 -72 258 -77H259Q265 -77 268 -73Q270 -70 274 -67Q276 -75 275 -79Q275 -93 263 -108Q248 -127 247 -143Q258 -139 277 -123Q299 -104 315 -96Q335 -106 347 -123Q359 -140 370 -158Q361 -166 349 -175Q337 -184 334 -199Q318 -214 318 -234Q318 -258 338 -281Q358 -304 381 -309Q389 -298 410 -293Q426 -296 436 -305Q435 -313 447 -335Q458 -357 460 -364Q460 -378 481 -389Q501 -399 522 -399Q546 -399 562 -385Q567 -381 557 -350Q548 -323 551 -318Q568 -323 592 -325L617 -324Q625 -353 660 -353Q666 -352 671 -352L658 -362H656Q651 -364 646 -371Q601 -420 556 -470Q508 -462 488 -455Q454 -444 437 -423Q406 -372 332 -290Q267 -218 241 -181Q226 -159 211 -138Q209 -135 188 -114Q174 -99 169 -88Q163 -84 128 -82Q129 -87 129 -93Q129 -101 119 -104Q114 -103 111 -99Q110 -98 106 -91L105 -95Q105 -105 115 -110V-113Q115 -126 110 -133Q104 -141 98 -148Q100 -155 100 -169Q98 -204 80 -233Q62 -262 50 -292Q63 -277 77 -262Q90 -248 109 -239Q112 -248 122 -251Q131 -254 141 -258Q143 -253 147 -251L167 -272Q171 -281 180 -286Q241 -348 301 -410L300 -412Q286 -406 268 -404V-401Q230 -383 216 -383Q198 -383 184 -398Q179 -410 174 -422Q170 -431 151 -449Q136 -464 134 -476Q133 -480 133 -489Q133 -521 168 -560Q176 -597 209 -619Q234 -636 279 -647V-646Q278 -641 272 -637Q265 -633 258 -629Q242 -615 239 -606Q240 -603 244 -602L247 -601Q249 -601 253 -607Q257 -614 263 -614H264L266 -613Q263 -611 260 -605L261 -602Q264 -599 273 -597Q281 -595 283 -593Q298 -600 323 -600Q338 -599 353 -599Q364 -599 369 -600Q376 -600 391 -606Q407 -612 416 -612Q423 -612 429 -609Q446 -621 446 -646Q446 -671 423 -672Q430 -684 432 -697Q432 -700 430 -706Q476 -779 524 -779Q528 -778 532 -778Q551 -776 565 -762Q579 -748 582 -728Q596 -700 596 -685Q598 -682 598 -674Q596 -655 593 -637Q627 -643 660 -646H662Q666 -649 669 -653H670Q672 -653 674 -650Q678 -653 682 -656Q706 -665 744 -666Q764 -672 782 -676Q787 -676 790 -675Q803 -684 824 -687L827 -686Q825 -682 822 -678Q829 -679 845 -685Q869 -694 886 -695Q873 -690 860 -683Q847 -677 843 -663Q856 -665 867 -670Q854 -667 854 -648Q854 -629 865 -629Q868 -629 872 -632Q863 -608 863 -597Q863 -583 872 -578Q862 -562 861 -551Q851 -548 838 -535Q826 -522 818 -520Q795 -518 772 -517H735Q731 -507 708 -503Q687 -499 682 -492V-490Q683 -480 695 -477Q699 -466 716 -452Q730 -440 735 -431H745Q782 -376 857 -320Q862 -324 864 -339Q866 -353 870 -356Q873 -350 874 -336Q875 -314 883 -310Q884 -315 884 -327Q882 -362 880 -397V-412Q880 -426 886 -430Q893 -414 893 -381Q893 -362 892 -343Q892 -303 905 -289Q904 -293 904 -304Q905 -320 905 -336V-339Q905 -345 904 -351Q904 -356 908 -359Q909 -311 937 -248Q954 -212 954 -176Q954 -126 913 -119Q909 -118 904 -118Q862 -118 810 -166Q793 -184 778 -212Q762 -233 745 -254Q742 -257 739 -261Z"/>
</svg>