<svg xmlns="http://www.w3.org/2000/svg" viewBox="0 -800 1024 1024">
	<path fill="#000000" d="M129 -15H146Q153 -15 156 -13Q156 -4 145 -4Q133 -5 129 -15ZM914 -306Q917 -305 920 -304Q921 -301 921 -299Q921 -295 916 -275Q909 -276 909 -287Q909 -296 914 -306ZM329 -278H323Q289 -278 273 -246Q261 -221 257 -175Q264 -169 276 -166Q283 -183 302 -220Q322 -258 329 -278ZM963 -32V-25Q956 -21 942 -9Q923 8 910 12Q894 17 863 17Q836 17 809 16H802Q716 16 674 -7Q621 -36 619 -108V-117Q619 -138 626 -183Q632 -222 633 -243L636 -316Q629 -314 621 -304Q616 -297 612 -295Q569 -294 540 -272Q509 -248 509 -207Q509 -193 511 -185Q561 -225 616 -260Q616 -254 609 -243Q600 -230 600 -222L602 -221Q604 -221 606 -225Q608 -229 611 -229H612Q605 -217 605 -206Q605 -198 609 -191Q594 -174 594 -149Q594 -134 598 -122Q577 -117 556 -103Q549 -98 522 -75Q503 -59 496 -51Q489 -40 482 -26Q475 -13 460 -6Q431 -15 416 -43Q404 -65 398 -106Q394 -106 393 -100Q392 -95 390 -94Q397 -80 406 -51Q413 -26 418 -16Q409 0 409 13Q409 18 410 21Q403 28 394 28Q385 27 375 26Q367 26 362 30Q356 25 354 10Q341 7 330 -12Q319 -30 310 -34Q280 -24 267 4Q254 30 231 47Q214 37 207 30Q195 18 194 1Q190 -2 181 -4Q167 -8 163 -13Q165 -15 169 -15Q175 -14 181 -14Q185 -14 187 -15Q177 -25 140 -29Q107 -32 97 -39H105Q132 -37 158 -35Q176 -35 186 -41L187 -42Q184 -45 181 -49V-50H161Q70 -50 38 -81Q86 -63 120 -63Q142 -63 157 -68Q165 -64 175 -64Q206 -64 230 -100Q226 -105 217 -105Q202 -105 196 -97Q176 -107 159 -119V-124Q159 -144 138 -157L141 -159H147Q152 -171 157 -181Q162 -192 174 -197Q172 -201 172 -203Q175 -211 177 -220Q155 -220 135 -206Q124 -196 117 -183Q110 -170 97 -168H95Q79 -168 61 -188Q48 -207 42 -228Q35 -241 26 -253Q16 -265 15 -284V-288Q19 -337 100 -401Q114 -413 141 -423Q122 -407 98 -367Q109 -369 119 -379Q128 -390 136 -398L137 -395Q133 -386 129 -378L130 -375Q143 -376 174 -390Q204 -404 224 -407Q227 -434 233 -465Q242 -495 245 -518Q245 -535 233 -548Q222 -541 217 -528Q212 -515 206 -502Q207 -573 240 -614Q252 -630 264 -645Q276 -659 297 -664Q337 -632 352 -611Q377 -576 377 -527V-519Q360 -511 354 -492Q348 -474 342 -454Q359 -456 375 -459Q384 -470 398 -470H401Q401 -465 397 -461Q393 -457 392 -454Q402 -443 402 -417Q402 -403 401 -390Q401 -379 404 -372L401 -373L400 -372Q402 -364 410 -354Q408 -351 408 -342Q408 -322 416 -304L413 -303H403L402 -301Q404 -297 405 -294L404 -291H402Q398 -289 394 -288Q399 -277 401 -249Q403 -247 405 -247Q409 -248 412 -249Q406 -240 406 -230Q406 -223 409 -214Q401 -198 375 -176Q350 -154 347 -129V-126Q351 -108 375 -105Q384 -105 390 -110Q389 -113 381 -114Q376 -115 374 -117Q385 -120 401 -131Q418 -142 428 -145Q429 -179 434 -222Q440 -258 440 -260Q440 -269 432 -289Q425 -305 424 -315Q422 -329 422 -336Q423 -358 424 -381V-388Q432 -394 439 -395Q429 -441 424 -495Q424 -546 468 -546Q477 -546 483 -545Q503 -519 512 -502Q526 -475 526 -446Q526 -434 525 -427L529 -426Q534 -426 542 -432Q553 -440 559 -440Q564 -440 566 -439Q572 -447 588 -452Q595 -454 615 -460L616 -458Q613 -451 610 -445H611Q617 -447 622 -450Q621 -448 621 -443Q621 -435 630 -424Q641 -411 642 -402Q644 -411 645 -421V-422Q643 -425 639 -426Q640 -428 640 -431Q639 -437 638 -443Q638 -447 643 -447Q641 -464 639 -481Q639 -492 643 -499Q635 -515 635 -545V-550Q635 -568 634 -577Q628 -594 621 -612Q620 -616 620 -624Q620 -651 641 -675Q652 -688 684 -712Q688 -713 696 -713Q733 -711 746 -685Q759 -657 769 -627Q746 -546 746 -511Q782 -538 806 -577Q814 -584 828 -584Q852 -580 876 -577H878Q892 -581 906 -585Q908 -585 914 -583Q899 -575 899 -564V-562L902 -560Q907 -562 912 -565H914Q912 -557 912 -554Q912 -542 921 -524Q929 -508 930 -501Q932 -493 932 -480Q932 -460 937 -450Q925 -438 921 -432Q913 -420 913 -405V-402Q861 -396 840 -391Q805 -382 781 -363Q771 -355 756 -333Q740 -310 728 -301Q722 -248 718 -194Q718 -173 722 -157Q748 -141 792 -141Q853 -141 869 -174Q872 -180 873 -192Q875 -211 880 -219Q881 -217 881 -210Q881 -196 880 -182Q880 -168 883 -163Q884 -167 888 -167Q891 -167 893 -166V-208Q893 -281 898 -329Q905 -253 908 -178V-169Q914 -179 914 -202Q914 -216 913 -231Q913 -252 918 -261Q932 -178 948 -151V-147Q948 -137 955 -121Q960 -111 961 -103Q963 -88 965 -73Q966 -59 975 -50Q963 -47 963 -32Z"/>
</svg>