<svg xmlns="http://www.w3.org/2000/svg" viewBox="0 -800 1024 1024">
	<path fill="#000000" d="M547 -38V-39Q550 -40 555 -40Q562 -40 577 -30Q574 -23 565 -23Q550 -24 547 -38ZM563 -165H560Q551 -165 539 -172Q532 -176 529 -176Q523 -176 516 -165Q511 -167 505 -170H504Q497 -169 495 -156Q493 -145 489 -143Q489 -166 475 -189Q473 -192 448 -226Q451 -278 453 -331Q453 -418 409 -435V-437Q410 -447 415 -452Q421 -457 426 -464V-472Q427 -492 438 -504Q449 -517 464 -528Q493 -545 504 -577H507Q511 -574 515 -567Q519 -559 522 -557H525Q536 -557 543 -550Q549 -543 558 -534Q570 -525 583 -515Q596 -506 598 -491Q594 -482 593 -462Q592 -443 590 -435Q584 -422 580 -398Q580 -391 583 -384Q573 -356 573 -303Q573 -284 574 -275Q574 -261 574 -247Q574 -192 563 -165ZM170 -184V-194Q164 -260 112 -326V-336Q99 -365 85 -408Q83 -414 83 -425Q83 -431 85 -435Q90 -445 109 -463Q136 -488 140 -504Q157 -507 162 -510Q166 -532 169 -556Q171 -580 182 -594Q184 -572 184 -549Q184 -526 198 -517Q202 -522 202 -530Q201 -540 200 -550Q200 -554 202 -560Q206 -556 210 -539Q216 -517 227 -514V-516Q226 -527 225 -538Q225 -544 227 -546Q237 -529 248 -513Q278 -499 294 -499H296Q301 -481 322 -439Q338 -415 343 -396Q340 -382 336 -369Q336 -364 338 -361Q311 -311 309 -236Q307 -161 301 -88Q292 -82 288 -71Q283 -71 278 -72Q242 -72 223 -48Q209 -63 190 -72Q171 -82 153 -93Q155 -96 164 -96Q173 -96 176 -95Q167 -112 144 -114Q121 -116 97 -117Q101 -126 135 -131Q142 -132 153 -132Q170 -149 170 -184ZM596 -23H598Q614 -23 643 -12Q673 -1 691 0Q667 -14 611 -33Q551 -53 525 -72Q544 -67 596 -50Q657 -30 701 -21Q691 -33 658 -42Q633 -49 624 -54Q628 -54 631 -55Q663 -50 695 -46Q717 -46 724 -63Q730 -78 732 -115Q733 -127 734 -174Q735 -215 736 -257Q739 -306 739 -352Q739 -374 737 -420V-451Q737 -480 737 -510Q737 -586 724 -620Q706 -668 656 -668H648Q650 -674 663 -681Q677 -689 677 -697Q677 -700 676 -702Q709 -719 733 -747Q756 -774 783 -798Q787 -797 790 -797Q802 -799 814 -801H818Q826 -800 842 -782Q864 -758 877 -758Q883 -758 889 -761Q884 -754 884 -745Q884 -736 889 -729L891 -728Q897 -731 903 -735L906 -734Q903 -726 903 -720Q903 -709 913 -692Q921 -678 922 -672V-669Q919 -655 916 -641Q916 -636 919 -630Q883 -602 871 -530Q865 -496 861 -392Q861 -377 860 -363Q861 -323 862 -284Q862 -269 861 -254Q860 -241 860 -216Q860 -91 897 -17Q891 -6 886 23Q880 57 873 70Q870 76 863 83Q853 93 851 101Q839 102 812 113Q801 107 790 100Q780 93 765 92Q756 76 745 66Q731 54 713 51Q710 32 697 22Q683 12 665 6Q626 -2 596 -23Z"/>
</svg>