<svg xmlns="http://www.w3.org/2000/svg" viewBox="0 -800 1024 1024">
	<path fill="#000000" d="M283 -254Q284 -287 284 -320Q284 -338 282 -366Q264 -359 257 -332Q253 -317 250 -279Q255 -274 260 -262Q265 -249 269 -245Q271 -246 283 -254ZM951 -372H954Q956 -366 956 -363Q956 -348 945 -342Q944 -350 943 -359Q943 -372 951 -372ZM777 -675Q779 -669 779 -666Q775 -651 771 -637Q771 -634 772 -632Q760 -615 757 -593Q766 -594 791 -608Q811 -619 821 -621Q820 -614 818 -608Q835 -610 861 -624Q890 -640 908 -640Q895 -628 878 -619Q862 -609 859 -586Q865 -583 871 -583Q878 -583 888 -588Q903 -595 911 -595H913Q904 -588 893 -578Q882 -569 881 -556Q881 -552 883 -546Q894 -550 905 -554Q909 -554 911 -552Q889 -538 886 -523L888 -522Q891 -522 894 -523Q896 -523 898 -521Q889 -512 881 -504Q873 -496 873 -482V-480Q875 -469 876 -459V-457Q871 -430 822 -426H809Q802 -416 791 -414Q781 -412 769 -407Q774 -377 788 -353Q803 -329 818 -306Q851 -247 886 -230Q898 -247 905 -270Q913 -292 921 -314Q921 -299 914 -263Q907 -227 907 -204Q919 -219 927 -267Q935 -314 947 -329Q940 -293 933 -256Q925 -219 924 -176Q932 -185 937 -216Q942 -248 951 -257Q941 -193 941 -154V-143L942 -141L946 -142L948 -141V-137Q948 -136 945 -124Q947 -112 947 -105Q947 -75 932 -55Q917 -35 895 -35Q879 -35 862 -49Q826 -83 810 -137L788 -182Q759 -225 739 -263Q737 -227 737 -207Q737 -143 745 -47Q748 -14 763 10Q755 24 755 60Q742 72 732 96Q722 119 701 122H699Q689 122 678 108Q666 92 657 90V89Q657 80 646 66Q636 53 636 45Q636 43 638 37Q628 32 621 24Q622 23 626 23H633Q637 23 638 21Q629 14 614 13Q599 12 583 11Q601 7 619 4Q637 0 648 -11Q654 -85 656 -165Q624 -107 592 -49Q585 -52 579 -52Q566 -49 554 -41Q556 -44 556 -52Q556 -69 541 -77Q539 -70 539 -58Q542 -32 545 -6Q544 23 531 47Q519 70 508 93Q502 86 487 78Q470 70 463 60Q457 51 451 31Q442 -1 428 -15V-29Q425 -36 417 -39Q451 -72 451 -176Q451 -217 450 -237Q440 -229 438 -218Q437 -206 435 -194Q428 -164 401 -84Q379 -77 369 -89Q359 -101 349 -110Q358 -144 369 -216Q383 -304 393 -337L423 -467Q423 -484 434 -523Q444 -560 444 -579Q444 -597 437 -611Q444 -609 450 -608Q453 -610 453 -619V-626Q457 -644 478 -662Q499 -680 517 -680Q539 -680 545 -649Q559 -643 564 -626Q569 -609 575 -595Q580 -588 586 -581Q592 -575 592 -564V-560Q583 -534 560 -509L526 -463Q522 -432 500 -388Q478 -345 474 -320Q485 -321 495 -323Q499 -322 502 -322Q538 -273 542 -245Q543 -240 543 -235Q541 -209 538 -183Q539 -177 539 -171Q547 -178 559 -196Q576 -222 592 -228L600 -244Q635 -312 650 -365Q638 -358 625 -358Q612 -358 602 -365Q591 -373 591 -386Q592 -389 592 -392Q590 -396 575 -414V-417Q571 -451 566 -486Q566 -499 570 -508Q574 -516 590 -528Q601 -536 606 -542Q607 -540 608 -538Q609 -535 612 -535Q651 -539 662 -557Q659 -567 659 -586V-591Q659 -606 657 -614Q656 -620 647 -633Q637 -648 637 -657V-658Q636 -659 631 -659H624V-661Q624 -665 629 -669Q633 -673 633 -678Q631 -679 628 -679Q620 -678 614 -672Q608 -665 603 -661V-664Q603 -671 619 -696Q644 -731 665 -747Q695 -767 710 -767Q738 -761 763 -727Q783 -710 777 -675ZM221 -452Q227 -470 243 -483Q259 -496 271 -509Q277 -516 282 -530Q287 -546 292 -552Q297 -559 311 -567Q322 -573 324 -575Q353 -552 372 -526Q391 -499 408 -481Q413 -460 387 -424Q366 -395 362 -380Q349 -334 349 -281V-206Q350 -183 350 -161Q350 -146 345 -135Q340 -139 334 -139Q330 -139 324 -135Q309 -140 294 -146Q280 -138 280 -107Q269 -103 258 -103Q238 -104 224 -115Q210 -126 195 -137L193 -138Q189 -137 185 -136L182 -137Q186 -142 186 -150Q186 -156 182 -167Q176 -183 176 -191L150 -212Q140 -213 133 -224Q126 -236 119 -242Q113 -248 96 -255Q79 -262 72 -269Q46 -293 46 -337Q46 -348 47 -353Q48 -362 55 -378Q62 -394 63 -402Q64 -407 64 -416V-425Q64 -438 68 -446Q72 -451 79 -455V-473Q79 -497 90 -501Q95 -475 97 -471Q100 -476 101 -493Q102 -517 112 -521V-517Q112 -506 111 -496Q111 -485 118 -479Q121 -484 122 -491Q122 -497 129 -498H131Q133 -495 133 -488V-485Q133 -481 134 -479Q140 -463 155 -453Q172 -443 187 -431Z"/>
</svg>