<svg xmlns="http://www.w3.org/2000/svg" viewBox="0 -800 1024 1024">
	<path fill="#000000" d="M904 -766Q900 -752 888 -750Q888 -760 893 -763Q894 -764 904 -766ZM645 -305V-299L642 -300Q636 -296 629 -293V-296Q629 -310 644 -310Q645 -309 645 -305ZM448 -145V-138Q439 -131 429 -127H428Q418 -127 399 -142Q380 -157 369 -157H365Q365 -169 367 -174Q357 -187 340 -192Q341 -164 356 -112Q393 -114 469 -127Q556 -142 601 -142Q606 -141 611 -140Q615 -140 617 -145Q612 -144 607 -144Q580 -145 557 -161Q535 -176 513 -187Q511 -195 501 -203Q493 -210 491 -213H489Q476 -211 469 -201Q469 -187 459 -173Q448 -157 448 -145ZM321 -330V-327Q324 -314 327 -302Q329 -281 330 -261Q331 -240 337 -223Q372 -260 405 -316Q423 -341 440 -370Q458 -399 459 -435Q459 -449 457 -457L456 -459Q442 -447 406 -427Q365 -404 349 -390Q341 -384 331 -376Q320 -368 318 -362V-359Q320 -351 322 -344V-341Q322 -335 321 -330ZM578 -299V-298Q577 -294 576 -290L578 -287Q582 -293 583 -296Q590 -298 597 -312Q604 -326 610 -326Q613 -326 615 -325Q593 -301 593 -283Q593 -277 596 -270Q603 -271 612 -279Q619 -286 624 -287Q623 -282 618 -275Q612 -267 612 -264Q612 -259 617 -255Q621 -260 635 -264Q630 -259 630 -249Q630 -232 638 -229Q655 -329 688 -430Q690 -460 706 -513Q719 -555 722 -575Q705 -575 693 -566Q689 -563 672 -546Q672 -554 667 -560Q664 -557 660 -556Q656 -554 654 -549Q583 -525 530 -488Q536 -486 547 -478Q556 -471 564 -469Q573 -475 575 -475Q574 -473 574 -468Q574 -449 586 -444Q588 -446 592 -446L593 -445Q601 -412 606 -382Q606 -372 602 -364Q596 -364 584 -362Q571 -346 555 -330Q540 -313 534 -292Q551 -292 564 -287Q566 -288 569 -293Q572 -299 577 -299ZM664 92H659Q638 86 627 66L626 65Q622 69 618 73L617 72V69Q618 62 618 55V52Q613 49 609 40Q602 26 591 26H590Q586 -3 581 -32Q561 -34 550 -34Q474 -29 402 -17Q359 -11 347 29Q312 26 299 8Q285 4 278 -6Q271 -17 263 -26Q267 -30 267 -34Q266 -42 260 -51Q253 -59 250 -66Q249 -69 249 -73Q249 -77 248 -78Q240 -95 227 -95H224Q228 -102 232 -109Q233 -112 233 -119Q233 -130 223 -183Q217 -202 211 -221Q199 -259 180 -298Q170 -312 164 -333Q155 -335 141 -342Q126 -350 117 -352Q102 -372 87 -396Q79 -407 71 -418Q64 -428 63 -447Q63 -454 69 -460Q65 -467 65 -476Q65 -488 69 -497Q77 -511 84 -526V-527Q84 -534 78 -545Q72 -556 72 -563V-566Q80 -562 84 -552Q88 -541 99 -538V-542Q99 -555 85 -581Q76 -598 73 -609H75Q79 -609 82 -604Q84 -599 87 -595Q103 -568 118 -560Q121 -563 121 -568Q121 -574 115 -586H116Q119 -586 124 -580Q131 -571 135 -571Q144 -576 152 -582Q161 -577 173 -577Q194 -578 215 -580H223Q239 -577 250 -565Q261 -554 270 -543Q338 -562 452 -610Q556 -654 609 -670Q633 -690 664 -701Q695 -713 725 -726Q730 -727 731 -732Q746 -734 766 -746Q784 -757 794 -757Q799 -757 802 -756H804Q808 -758 811 -760H812Q816 -758 835 -753Q838 -745 846 -742Q854 -740 863 -738Q871 -743 880 -746Q884 -746 886 -745Q873 -739 873 -723Q873 -712 883 -709Q885 -708 890 -708Q901 -708 920 -724Q938 -739 946 -739H948Q921 -717 915 -691Q919 -693 923 -699Q929 -708 937 -709Q928 -696 923 -679Q923 -671 931 -667Q929 -657 929 -653Q933 -625 937 -597V-592Q934 -577 930 -563V-559Q897 -551 863 -503Q866 -504 869 -505H870Q849 -490 824 -433Q810 -392 801 -353Q792 -327 780 -302Q761 -247 739 -127Q729 -92 725 -58Q725 -48 728 -39Q712 -23 712 19V45Q712 63 709 78Q691 89 664 92Z"/>
</svg>