<svg xmlns="http://www.w3.org/2000/svg" viewBox="0 -800 1024 1024">
	<path fill="#000000" d="M864 -672V-674Q864 -680 868 -685Q872 -690 879 -690Q882 -690 886 -688Q885 -675 864 -672ZM920 -247Q916 -244 911 -236Q904 -224 898 -222Q897 -224 897 -227Q897 -234 902 -243Q907 -251 912 -251Q916 -251 920 -247ZM489 -184L540 -247Q554 -261 554 -264V-265Q538 -264 503 -250Q482 -241 467 -238Q462 -229 441 -223Q419 -216 416 -208Q423 -213 425 -213Q433 -210 442 -204Q444 -203 449 -203Q454 -203 455 -202Q460 -197 465 -193H467Q471 -193 474 -194L477 -193Q483 -187 489 -184ZM837 120H832Q818 120 797 112Q775 101 752 83Q713 57 674 30Q645 14 616 -3Q597 -16 581 -28Q566 -40 545 -46Q536 -53 526 -57Q513 -41 500 -26Q486 -11 478 11Q444 42 421 83Q405 84 396 100Q371 93 347 89Q338 89 334 91Q338 87 338 81Q338 76 331 62Q323 46 322 36V34Q323 28 323 22V20Q323 14 317 3Q311 -9 311 -16L313 -18Q315 -18 318 -13Q323 -6 325 -6V-10Q325 -20 317 -36Q309 -52 308 -63Q315 -60 324 -45Q331 -34 337 -30Q363 -45 384 -65Q405 -86 428 -106Q412 -119 395 -132Q377 -146 376 -175V-181Q387 -183 393 -202Q385 -205 376 -208Q357 -185 341 -152Q324 -119 304 -81Q281 -42 270 -13Q261 13 254 34Q246 55 225 68Q217 72 208 72Q194 72 177 62Q172 62 166 68Q162 72 160 72H159V59Q159 55 160 54Q150 41 125 41Q124 33 114 23Q105 15 104 8V3Q106 -11 108 -25V-28Q108 -38 97 -64Q100 -73 100 -80Q100 -92 95 -105L97 -106Q100 -103 103 -100Q110 -107 110 -122Q110 -136 101 -168Q91 -204 91 -219V-225Q98 -214 111 -180Q127 -139 139 -124Q148 -112 160 -112Q172 -112 183 -123Q207 -151 230 -192Q295 -301 359 -411H355Q336 -411 292 -397Q275 -393 263 -384Q254 -376 244 -367Q233 -359 218 -357Q202 -361 193 -365Q181 -371 178 -382Q168 -380 164 -380Q145 -380 131 -398Q118 -415 118 -437Q118 -467 141 -483Q136 -496 136 -505Q137 -522 149 -533Q161 -544 172 -555Q185 -571 195 -589Q205 -607 222 -613Q218 -603 211 -593Q205 -582 204 -569Q204 -565 206 -557H208Q212 -557 216 -568Q221 -582 229 -582H231Q230 -571 228 -561Q228 -551 233 -549Q244 -553 249 -559Q252 -559 255 -555Q257 -552 260 -552Q342 -564 424 -576Q443 -617 443 -635Q443 -639 442 -643Q439 -653 432 -658Q424 -664 418 -670Q420 -676 420 -679Q416 -695 412 -711Q425 -711 437 -718Q432 -725 415 -725H402Q393 -725 390 -726Q423 -743 455 -760Q472 -772 489 -784Q506 -797 529 -798H531Q551 -797 587 -765Q604 -751 623 -733Q641 -715 643 -690Q639 -669 635 -649Q604 -637 591 -604Q782 -639 855 -669V-667Q854 -659 848 -653Q841 -647 837 -640Q849 -631 868 -631Q896 -634 924 -637Q914 -631 896 -624Q876 -618 874 -604V-601Q875 -594 883 -594Q896 -596 909 -598H912Q911 -593 901 -586Q887 -576 886 -567Q891 -550 909 -550H915Q912 -543 907 -542Q903 -541 898 -537Q893 -532 889 -517Q886 -506 884 -502Q880 -496 869 -490Q860 -485 856 -480Q840 -482 809 -482Q753 -481 700 -472Q647 -464 597 -456Q524 -446 493 -433Q456 -380 440 -339Q493 -354 545 -370Q598 -381 644 -399Q658 -409 671 -414H677Q692 -413 705 -406Q718 -400 729 -393Q748 -401 769 -406Q761 -399 752 -389Q742 -378 741 -366Q741 -357 751 -348Q756 -349 762 -353Q769 -358 774 -358H778Q770 -342 761 -330Q764 -320 769 -313Q763 -298 762 -275Q762 -253 746 -246Q714 -246 702 -243L700 -241Q703 -238 706 -236L705 -235Q666 -227 636 -201Q615 -182 588 -144Q654 -108 729 -72Q755 -59 765 -59Q777 -59 787 -69Q794 -76 808 -101Q826 -133 840 -142Q835 -128 824 -112Q813 -96 812 -75Q813 -71 813 -67Q829 -87 854 -139Q877 -187 893 -208Q890 -188 882 -169Q873 -151 864 -132Q848 -95 837 -52Q851 -68 867 -106Q884 -146 895 -160V-159Q895 -149 876 -100Q859 -55 859 -36V-33Q859 -31 863 -31H866L870 -30Q868 -23 868 -11Q868 3 877 32Q886 61 886 80Q876 92 864 103Q847 118 837 120Z"/>
</svg>