<svg xmlns="http://www.w3.org/2000/svg" viewBox="0 -800 1024 1024">
	<path fill="#000000" d="M164 -497Q166 -495 170 -495Q170 -485 161 -472Q157 -476 157 -480Q157 -485 164 -497ZM377 -71Q363 -78 359 -95L363 -96Q364 -96 373 -93Q375 -82 377 -71ZM895 -131H887Q843 -133 808 -159H805L806 -156L804 -155Q780 -163 742 -163Q714 -163 689 -158V-148Q689 -122 676 -99Q668 -85 647 -62Q604 -17 558 24Q511 64 476 113Q455 110 438 96Q428 87 413 68Q408 71 402 73Q403 70 407 68Q410 67 411 65Q410 55 409 44Q410 41 410 37Q395 29 391 11Q394 2 394 -5Q394 -17 387 -37Q379 -59 379 -68Q394 -49 408 -27Q408 -37 397 -55Q385 -74 385 -89Q394 -75 402 -61Q410 -47 424 -40Q414 -60 405 -84Q425 -47 442 -40Q444 -42 445 -44Q497 -57 526 -93Q553 -126 588 -152Q444 -152 312 -93Q309 -93 309 -90Q309 -88 306 -87H304Q285 -87 273 -80Q260 -73 250 -64Q231 -41 199 -30Q182 -39 164 -53Q157 -57 147 -63Q137 -68 133 -77Q131 -83 131 -86Q134 -100 137 -114V-116Q137 -120 130 -129Q125 -136 123 -143Q122 -146 122 -153Q122 -172 135 -187Q148 -202 167 -202Q176 -202 185 -199Q239 -219 293 -240Q269 -221 244 -203Q246 -199 254 -198Q261 -197 263 -194Q304 -210 349 -210Q361 -210 367 -209Q389 -217 441 -220Q482 -222 496 -225Q486 -239 486 -255Q488 -279 502 -302Q517 -324 527 -343Q502 -341 481 -321Q460 -302 439 -285Q413 -292 398 -294V-297Q398 -308 381 -319Q366 -329 364 -338Q364 -341 363 -345Q365 -374 377 -395Q387 -408 406 -408Q417 -408 423 -403Q451 -415 485 -426Q509 -437 532 -448Q555 -459 582 -460Q605 -460 627 -449Q639 -440 650 -431Q659 -427 668 -425Q678 -423 682 -410Q699 -427 715 -444Q700 -454 654 -463Q600 -474 582 -492Q565 -509 565 -545Q565 -570 574 -591Q521 -587 509 -569Q500 -549 493 -524Q483 -503 473 -482H469Q459 -482 446 -472Q435 -464 429 -464Q424 -464 416 -469Q376 -446 343 -414Q311 -381 278 -350Q213 -295 157 -218Q145 -219 133 -221Q123 -221 112 -214Q113 -224 121 -234Q104 -260 88 -290Q89 -293 89 -299V-312Q89 -322 93 -328Q89 -334 88 -340Q101 -368 118 -435Q136 -507 152 -538Q151 -519 145 -486Q136 -437 136 -413Q139 -418 143 -435Q148 -455 154 -462Q156 -456 156 -453Q153 -434 150 -416Q150 -407 154 -400Q157 -406 159 -415Q161 -423 167 -428Q168 -426 168 -421Q167 -411 166 -402Q166 -394 171 -392Q254 -441 358 -519Q346 -527 333 -534Q319 -541 312 -555Q312 -574 315 -588Q308 -602 308 -617Q308 -647 343 -695Q355 -712 365 -728Q375 -744 389 -751Q384 -741 384 -733Q384 -714 410 -711H415Q449 -715 491 -731Q531 -742 561 -754Q568 -758 587 -775Q601 -787 615 -788H623Q638 -788 644 -783Q650 -778 660 -771Q673 -764 685 -760Q697 -757 704 -743Q726 -748 747 -754Q729 -745 725 -743Q714 -735 713 -723H715Q726 -727 737 -731Q734 -725 726 -719Q718 -712 716 -710Q718 -707 719 -707Q720 -707 728 -711Q722 -696 722 -691Q722 -685 725 -678Q730 -673 740 -672Q734 -665 726 -659Q719 -652 718 -643V-641Q697 -636 691 -615Q685 -595 679 -575Q699 -557 727 -552Q755 -547 783 -542Q798 -537 812 -533Q818 -536 826 -544V-542Q826 -533 845 -527Q859 -523 863 -518Q868 -498 871 -476Q874 -455 886 -441H898Q884 -432 884 -401V-379Q884 -357 880 -349Q835 -349 797 -325Q776 -312 736 -274Q709 -275 681 -277Q679 -290 673 -294H667Q660 -294 656 -293Q659 -299 659 -311Q659 -322 654 -325Q616 -297 601 -256Q619 -241 661 -241Q686 -241 749 -250Q780 -256 811 -262Q816 -259 817 -259H818Q828 -264 843 -268H846Q850 -268 852 -264Q854 -260 856 -260Q861 -262 866 -271Q872 -282 879 -284V-279Q879 -268 878 -258Q878 -251 879 -248Q883 -245 893 -245Q904 -245 915 -246Q914 -243 907 -241Q899 -238 898 -234Q901 -227 909 -225Q906 -219 906 -213Q908 -198 909 -184Q909 -173 901 -168Q902 -160 907 -152Q902 -150 895 -131Z"/>
</svg>