<svg xmlns="http://www.w3.org/2000/svg" viewBox="0 -800 1024 1024">
	<path fill="#000000" d="M682 8Q655 23 624 33Q593 43 563 54Q536 68 511 83Q492 91 484 91H477L451 69Q447 43 443 33Q436 14 421 7Q429 5 436 3Q436 -3 435 -8Q434 -14 430 -17Q451 -41 458 -46H460Q488 -47 500 -63Q513 -82 525 -101Q509 -100 491 -80Q476 -64 464 -62H461Q449 -62 433 -69Q415 -77 410 -86Q408 -95 406 -104Q397 -118 393 -139V-144Q394 -149 400 -159Q408 -173 408 -182V-187Q425 -207 445 -207Q453 -207 460 -199Q476 -204 496 -206H499Q531 -214 535 -214Q544 -214 548 -210L595 -219Q597 -229 612 -229Q616 -229 619 -228Q627 -237 657 -237Q685 -246 729 -255Q772 -264 797 -277Q801 -278 801 -273V-271Q801 -266 803 -266H804Q806 -269 817 -273Q820 -273 822 -272Q821 -265 819 -258Q845 -226 852 -199Q848 -192 841 -186Q834 -179 833 -170Q833 -165 834 -162Q825 -158 819 -153H816Q797 -150 777 -147Q735 -140 724 -140Q713 -140 701 -141Q674 -141 664 -131H650Q633 -131 627 -128Q628 -124 628 -116V-101Q618 -90 605 -80Q592 -71 584 -55Q631 -63 682 -78Q681 -81 681 -87V-92Q684 -99 689 -105Q693 -112 702 -113Q709 -125 727 -125Q738 -125 771 -116Q775 -117 780 -123Q787 -130 794 -131L796 -129Q794 -124 791 -120Q793 -98 805 -88Q809 -89 817 -95Q824 -100 830 -101Q823 -92 823 -81Q823 -78 825 -70Q857 -80 887 -85Q891 -84 895 -84Q893 -78 885 -75Q876 -73 869 -71Q840 -61 833 -48Q838 -22 865 -19Q868 -19 871 -20Q871 -16 863 -10Q855 -3 853 0Q854 6 854 19Q854 45 843 56Q849 68 855 80Q839 66 823 66Q808 66 801 85Q795 76 775 72Q761 69 756 66Q739 52 725 31Q722 26 701 -10ZM685 -360V-355L688 -353Q692 -356 696 -359L698 -358V-356Q698 -342 709 -337Q718 -333 721 -324Q712 -300 702 -277Q690 -269 681 -260Q659 -258 622 -244Q588 -231 563 -229Q553 -243 540 -255Q526 -268 525 -285Q525 -294 529 -302Q531 -314 531 -318Q531 -323 550 -336Q568 -338 601 -355Q640 -374 664 -375Q666 -375 666 -373Q665 -370 668 -369H669Q672 -379 690 -387Q694 -387 697 -384Q700 -381 697 -379Q685 -376 685 -360ZM412 -505H416Q425 -503 436 -496Q444 -506 451 -517Q452 -501 461 -479Q468 -461 470 -452Q478 -450 481 -448Q497 -456 513 -466Q530 -476 547 -479Q534 -487 523 -498Q513 -510 496 -511H493Q494 -514 494 -518Q494 -525 487 -529Q475 -525 464 -518Q467 -525 476 -536Q483 -545 486 -550Q483 -562 473 -569Q488 -569 488 -582Q488 -593 478 -611L480 -612Q482 -612 487 -605Q492 -598 496 -598Q498 -599 498 -603V-613Q511 -613 525 -620Q530 -616 538 -614H542Q546 -602 560 -578Q581 -543 581 -524Q581 -510 575 -499Q596 -505 619 -515V-519Q619 -609 563 -667Q578 -694 596 -724Q613 -754 646 -757Q658 -757 673 -751Q680 -740 688 -729Q695 -718 696 -701L707 -686Q716 -654 716 -641Q702 -628 700 -602Q699 -576 698 -550Q728 -607 754 -672Q749 -678 749 -687Q750 -696 751 -706Q751 -712 748 -718Q751 -717 754 -716Q775 -739 798 -739H802Q809 -737 815 -735L819 -736H821L822 -734V-730Q831 -739 844 -742Q832 -730 832 -713Q832 -706 835 -700Q837 -701 839 -704Q841 -707 843 -707Q839 -700 839 -691Q842 -670 845 -649Q845 -645 843 -637Q811 -631 788 -586Q812 -594 844 -600Q845 -630 877 -630Q896 -630 911 -621Q927 -612 930 -598H932Q937 -599 941 -600L943 -599Q941 -594 938 -589L939 -586Q943 -587 948 -591Q954 -596 957 -596L961 -595Q960 -591 954 -586Q949 -582 948 -580V-575Q948 -556 962 -556H966Q960 -542 960 -528Q963 -500 965 -472Q965 -460 960 -443H956Q941 -440 936 -430Q926 -433 916 -436H914Q898 -433 882 -431Q877 -431 874 -434L864 -422Q840 -408 805 -367L775 -352L743 -344L756 -365L714 -348L722 -360L735 -381Q718 -382 707 -384Q713 -395 718 -406Q728 -419 734 -421Q750 -439 760 -464H756Q750 -464 740 -459Q728 -453 723 -453Q718 -453 714 -457L652 -430Q647 -423 639 -422Q633 -419 593 -394Q562 -377 532 -358Q513 -342 507 -318Q501 -294 495 -265Q475 -254 460 -254Q452 -254 443 -257H442V-253L440 -251H439V-255Q439 -264 433 -269Q427 -273 422 -278Q416 -271 411 -253Q405 -234 400 -227V-232Q405 -257 410 -283Q410 -294 402 -301Q383 -294 378 -281L377 -285Q381 -302 391 -313Q381 -351 372 -367L371 -368Q369 -365 364 -362H362Q363 -370 370 -380Q377 -390 378 -395V-399Q378 -411 368 -431Q324 -404 290 -372V-371Q291 -368 292 -365Q284 -365 282 -360Q280 -355 277 -351Q302 -353 305 -359Q307 -347 317 -342Q326 -336 334 -328Q340 -319 345 -305Q351 -286 357 -279Q353 -264 353 -245Q353 -224 358 -195Q363 -166 363 -153Q363 -139 360 -127L355 -84Q363 -81 366 -48Q367 -42 367 -29Q367 2 353 21Q338 42 309 42H306Q297 47 297 57L298 61L296 62Q291 62 291 55L292 51Q284 45 277 45Q266 28 254 11Q245 4 235 -3Q232 -8 228 -21Q223 -40 216 -46V-49Q217 -54 217 -59V-61Q216 -66 211 -66Q208 -65 204 -65L200 -66Q210 -78 220 -89Q230 -100 232 -124Q240 -184 245 -256Q245 -278 240 -303Q211 -281 190 -238Q177 -212 156 -153Q150 -151 147 -151Q140 -151 128 -158Q118 -164 111 -165Q107 -165 104 -159Q102 -155 99 -155H96Q98 -163 99 -172Q99 -176 96 -179Q89 -182 81 -184Q73 -187 69 -193L68 -196Q71 -203 75 -208V-212Q74 -224 67 -233Q59 -241 50 -251Q30 -278 30 -300Q30 -306 31 -309Q32 -318 48 -360Q62 -382 72 -406Q76 -425 78 -443Q80 -460 90 -477Q94 -473 94 -466Q91 -449 87 -433Q85 -415 85 -406Q85 -392 87 -387Q112 -401 130 -424Q147 -447 164 -469Q176 -483 188 -483L189 -480L232 -537V-540Q232 -552 243 -565Q245 -568 263 -584Q271 -617 272 -633H275Q282 -633 297 -639Q312 -645 322 -645H325Q331 -645 340 -640Q347 -636 353 -636H356Q388 -612 414 -561Q418 -561 415 -531Q414 -516 412 -505Z"/>
</svg>