<svg xmlns="http://www.w3.org/2000/svg" viewBox="0 -800 1024 1024">
	<path fill="#000000" d="M840 -264V-278H842Q846 -279 849 -280Q850 -278 850 -275Q847 -266 841 -259Q840 -260 840 -264ZM286 -73Q301 -93 343 -121Q381 -147 396 -164Q396 -168 391 -175Q387 -180 387 -183V-185Q393 -182 399 -182Q408 -182 423 -191Q436 -199 442 -199Q449 -199 455 -193Q464 -179 473 -158Q482 -147 483 -135Q483 -129 482 -125Q453 -115 435 -95Q417 -74 396 -52Q346 -2 267 58Q259 64 219 84Q190 98 181 116L166 108H165Q162 108 159 112Q156 115 155 115L153 114L152 110Q154 102 156 93V92Q155 83 140 71Q130 63 127 58Q124 52 122 39Q120 23 110 17Q106 6 103 -7Q110 -18 118 -20V-23Q118 -43 108 -70Q98 -97 97 -113Q104 -105 112 -86Q122 -62 130 -55Q103 -115 79 -179Q88 -177 91 -168Q94 -160 98 -152Q118 -118 137 -84Q143 -73 148 -62Q152 -51 163 -46L164 -49Q162 -57 160 -65V-67Q167 -63 175 -51Q181 -42 184 -39Q194 -43 204 -48Q214 -53 227 -54Q233 -54 237 -53ZM410 -197Q402 -204 396 -209Q386 -218 376 -226Q366 -234 362 -252Q357 -256 348 -258V-261Q349 -265 355 -268V-270Q354 -282 346 -287Q338 -292 331 -298Q375 -323 410 -356Q444 -389 480 -421Q480 -424 479 -427Q479 -434 485 -444Q491 -454 491 -462V-465Q502 -475 509 -489Q521 -490 533 -492Q542 -492 557 -483Q575 -473 587 -472Q586 -466 586 -453Q587 -428 588 -404Q588 -384 582 -372H580Q578 -372 575 -373H574Q570 -360 544 -350Q515 -339 507 -330Q539 -331 573 -340V-342Q574 -348 575 -355Q575 -359 573 -361Q603 -371 630 -403Q633 -395 633 -388V-384Q650 -374 662 -361Q668 -364 673 -369Q677 -374 686 -375H688Q676 -366 676 -353Q676 -344 694 -316H699Q712 -317 724 -318Q720 -313 701 -301V-296Q700 -278 693 -266Q685 -254 676 -243H669Q648 -243 634 -249Q620 -256 607 -262H604Q540 -262 457 -215Q440 -205 410 -197ZM912 -486Q912 -484 909 -481Q905 -478 905 -473Q903 -474 900 -474Q894 -472 888 -470Q890 -484 912 -486ZM322 -583Q324 -591 348 -596Q396 -606 443 -617Q435 -656 431 -665Q424 -678 416 -688Q409 -697 408 -708Q408 -718 417 -730Q455 -776 514 -787Q519 -787 523 -788Q541 -788 556 -776Q558 -775 579 -752Q607 -722 607 -701Q607 -690 602 -681L586 -677L587 -673Q587 -665 578 -655Q571 -647 570 -644Q605 -658 651 -661H655L694 -662Q694 -670 700 -671Q707 -672 714 -673Q726 -677 739 -684Q751 -691 766 -692H768Q770 -691 772 -687Q775 -681 779 -681Q806 -690 829 -699Q828 -694 821 -687Q814 -680 813 -673Q815 -669 817 -665Q826 -667 835 -670Q835 -668 831 -665Q828 -663 828 -661Q829 -650 834 -632Q841 -609 841 -599V-593Q840 -585 833 -574Q825 -563 825 -555H821Q814 -555 810 -550Q808 -547 805 -539Q791 -540 765 -540Q654 -538 566 -516Q478 -493 395 -469Q412 -456 426 -440Q353 -331 349 -326Q333 -316 321 -300Q309 -284 297 -268Q297 -262 299 -254Q291 -253 281 -243Q268 -231 257 -229H249Q222 -229 194 -246Q164 -264 164 -287Q164 -294 169 -304Q163 -319 148 -322Q133 -325 115 -328Q160 -334 192 -352Q225 -371 257 -391V-392L256 -395H254L253 -396V-397Q297 -424 311 -442Q282 -434 261 -419Q239 -403 217 -388Q213 -390 173 -406Q148 -413 127 -421Q106 -428 105 -460V-467Q109 -486 117 -499Q120 -517 122 -535Q131 -553 163 -575Q208 -602 241 -610Q234 -604 227 -598Q220 -592 219 -580Q228 -575 241 -575Q268 -577 294 -580H302ZM762 -321L754 -352Q744 -360 735 -369Q725 -379 715 -380Q695 -393 664 -437Q657 -447 645 -463Q633 -479 632 -497Q632 -510 643 -520H645Q649 -519 653 -518Q667 -527 688 -527Q714 -527 737 -517Q740 -518 744 -526Q749 -536 757 -536H758Q752 -532 752 -509Q757 -504 764 -500Q771 -503 780 -518L781 -514Q779 -506 776 -498Q776 -496 779 -493Q790 -496 832 -519Q864 -536 894 -538Q869 -526 844 -514Q819 -503 804 -479Q804 -476 808 -472Q810 -470 811 -467Q824 -475 835 -483Q847 -491 864 -494Q852 -488 841 -480Q830 -473 826 -458Q833 -442 847 -433Q860 -453 881 -462Q859 -444 859 -419Q859 -410 863 -403Q853 -388 853 -350Q853 -338 855 -316H853Q850 -316 841 -323Q822 -315 814 -308Q787 -312 759 -317Q759 -319 762 -321ZM664 70V74Q658 76 645 76Q644 73 642 70L621 71Q601 79 581 86Q564 97 546 105Q535 87 522 70Q509 53 508 24V19Q498 18 487 17V16Q490 9 496 2Q495 -20 486 -35Q504 -56 517 -95Q535 -142 535 -168Q535 -193 519 -205Q521 -222 534 -228Q546 -234 557 -242Q559 -241 596 -231Q605 -215 615 -199Q625 -183 642 -174Q634 -170 634 -153V-145Q606 -116 594 -59Q620 -57 634 -57Q722 -62 809 -67Q815 -79 821 -92Q822 -95 822 -100Q822 -106 821 -112Q821 -127 831 -130V-123Q831 -87 843 -77Q841 -145 838 -214Q838 -236 839 -247Q841 -246 843 -245Q845 -208 847 -173Q850 -137 859 -109V-115Q856 -151 853 -188Q853 -204 858 -219Q864 -186 866 -147Q867 -109 885 -87V-94Q883 -122 881 -150Q881 -161 882 -167Q888 -153 894 -117Q900 -81 908 -65Q911 -64 917 -64Q923 -64 925 -65Q926 -53 937 -38Q948 -23 948 -11V-7Q948 4 934 22Q922 38 920 51Q906 51 898 62Q896 65 887 85Q828 76 763 73Q748 74 733 74Q717 74 710 68Z"/>
</svg>