<svg xmlns="http://www.w3.org/2000/svg" viewBox="0 -800 1024 1024">
	<path fill="#000000" d="M412 54Q403 53 394 53Q385 53 384 45H396Q412 45 412 54ZM379 -556Q378 -533 377 -511Q506 -522 510 -525Q518 -530 529 -537Q541 -543 557 -544H561Q578 -571 582 -597Q563 -590 473 -574Q407 -562 379 -556ZM377 21Q370 30 347 27Q337 29 323 39Q320 36 313 23Q302 23 290 12Q280 3 274 3H273Q273 -4 276 -6Q273 -10 265 -14Q255 -19 254 -25H256Q261 -24 265 -24L269 -25Q263 -35 249 -43Q235 -51 222 -58Q229 -58 245 -51Q258 -45 267 -45Q271 -45 277 -47Q289 -54 298 -73Q307 -92 314 -103Q281 -96 246 -87Q210 -79 184 -59Q179 -55 171 -43Q159 -26 150 -22Q143 -19 135 -19Q119 -19 97 -39Q65 -44 57 -53Q52 -59 52 -68Q53 -78 54 -89V-94Q49 -107 45 -122V-124Q49 -151 73 -173Q89 -183 110 -193Q122 -202 131 -210Q140 -217 156 -218Q156 -214 146 -206Q131 -194 131 -186V-184Q132 -176 154 -176Q169 -176 196 -179Q217 -183 237 -188Q299 -198 366 -207Q375 -220 380 -240Q382 -243 395 -263Q400 -267 395 -275Q390 -282 388 -282Q387 -284 412 -294Q437 -305 452 -305Q465 -304 479 -285Q489 -279 489 -261Q489 -243 490 -230Q542 -235 547 -237Q546 -255 539 -262L538 -264Q539 -273 540 -283H527L514 -284Q533 -303 553 -312Q586 -317 634 -314Q651 -308 662 -295Q662 -284 656 -268Q651 -255 651 -249Q651 -244 652 -241Q690 -246 737 -248Q748 -248 766 -246L835 -249Q864 -264 927 -264Q941 -263 954 -263Q942 -258 935 -250Q940 -233 972 -233Q965 -229 965 -220Q967 -207 969 -195V-193Q962 -177 954 -162Q945 -140 942 -136Q933 -124 917 -124H915Q911 -124 879 -132Q787 -157 676 -157Q660 -156 643 -156Q638 -147 638 -118V-113Q638 -88 634 -78L637 -1Q648 14 648 40Q648 46 643 96Q639 100 613 115Q595 127 578 131Q571 130 563 121Q554 111 551 109Q539 104 526 99Q517 88 504 77Q491 75 478 73Q462 67 446 61Q441 61 434 61Q428 60 424 54H432Q469 57 504 62Q493 52 437 43Q425 41 412 41Q398 40 390 32Q395 31 405 31Q417 31 446 37Q470 42 485 42Q490 42 502 40Q492 29 470 28Q449 27 431 23Q439 19 451 19Q469 20 486 21Q501 21 510 17Q537 -7 540 -55Q543 -102 545 -145Q538 -146 525 -146Q490 -146 468 -130Q445 -115 431 -90Q404 -37 385 23H384Q379 23 377 21ZM374 -442Q372 -416 371 -411Q410 -411 557 -426Q661 -437 696 -438Q701 -442 708 -456Q718 -476 725 -479L726 -476L727 -450Q738 -456 740 -486Q742 -512 749 -519Q752 -514 752 -507V-493Q752 -484 754 -480Q756 -481 757 -485Q758 -490 761 -490V-470Q761 -463 772 -454Q780 -447 781 -445Q784 -438 798 -426Q815 -412 815 -400V-398Q813 -391 810 -385Q813 -377 816 -370V-367Q816 -359 808 -349Q802 -341 800 -336Q798 -337 794 -337Q783 -337 760 -322Q729 -327 675 -327Q621 -326 585 -326Q560 -326 516 -322Q518 -326 520 -331L434 -315Q424 -306 363 -298Q296 -289 286 -279Q279 -280 271 -282H268Q262 -289 248 -301Q226 -319 219 -333Q222 -337 222 -343Q222 -357 209 -357Q209 -359 213 -359Q207 -370 218 -382L219 -383Q225 -386 226 -386Q236 -392 254 -404Q267 -452 274 -466Q277 -467 279 -468L282 -498Q276 -505 290 -529Q259 -517 247 -506Q237 -495 228 -483Q220 -470 203 -468H201Q180 -468 162 -478Q144 -490 142 -509Q143 -513 143 -517V-520Q142 -524 133 -532Q120 -543 118 -553Q117 -556 117 -562Q117 -577 133 -600V-605Q135 -622 142 -633Q161 -637 176 -661Q188 -680 197 -685L266 -661Q276 -672 293 -676Q309 -679 325 -684Q357 -694 478 -711Q592 -727 623 -736Q628 -743 631 -750Q659 -757 669 -757Q675 -757 689 -753Q692 -754 695 -758Q699 -763 703 -764L706 -762Q704 -758 702 -755Q714 -744 726 -733Q733 -735 740 -738H743V-736Q741 -732 738 -728L740 -726Q749 -728 764 -738Q780 -748 791 -750Q791 -744 778 -735Q769 -729 766 -724Q765 -722 765 -717Q765 -703 779 -703Q791 -703 801 -711L802 -709Q798 -702 791 -696Q793 -679 803 -666Q802 -663 802 -656Q802 -643 810 -629Q794 -611 794 -598Q784 -602 780 -602Q767 -601 757 -593Q747 -586 740 -581L723 -558Q716 -543 709 -541Q706 -529 698 -519Q689 -508 680 -496Q674 -484 666 -471Q658 -457 644 -454H640Q627 -455 614 -457Q605 -457 599 -452Q587 -458 585 -458Q581 -458 578 -456Q577 -462 573 -464Q510 -455 374 -442Z"/>
</svg>