<svg xmlns="http://www.w3.org/2000/svg" viewBox="0 -800 1024 1024">
	<path fill="#000000" d="M498 13V10H500Q507 10 512 15Q514 17 517 25Q511 23 505 22Q498 20 498 13ZM909 -462H908Q905 -465 905 -468Q905 -473 908 -476Q912 -480 917 -480H920V-478Q918 -463 909 -462ZM737 -207Q725 -236 675 -236Q668 -235 661 -235Q664 -232 667 -219Q670 -204 677 -201Q685 -205 710 -205Q728 -205 737 -207ZM678 -513Q653 -499 615 -489Q611 -482 588 -475Q569 -469 567 -456Q620 -461 674 -492L673 -496Q677 -504 680 -509Q680 -512 678 -513ZM692 -412H666Q646 -412 613 -399Q599 -394 585 -390Q572 -385 566 -375Q592 -383 640 -390Q698 -399 723 -408Q715 -412 692 -412ZM563 -289H571Q591 -289 653 -302Q671 -304 689 -307Q701 -312 708 -323Q715 -334 723 -343Q721 -343 719 -345Q718 -343 716 -342Q668 -338 622 -324Q598 -318 585 -312Q566 -303 563 -289ZM631 130H629Q615 127 601 123Q599 115 587 106Q578 100 575 94Q564 75 553 56Q550 52 539 43Q527 33 522 23H523Q529 23 540 31Q551 39 560 40Q552 31 524 14Q483 -11 474 -29Q496 -17 517 -3Q538 12 560 16Q555 7 534 -2Q519 -9 513 -15Q541 -15 561 1Q579 -7 581 -31Q583 -54 585 -78H580Q533 -78 474 -59Q460 -54 440 -39Q420 -24 410 -23H407Q390 -23 369 -37Q357 -47 353 -70Q351 -77 342 -88Q333 -100 333 -108Q333 -116 338 -124Q309 -111 233 -61Q218 -49 203 -37Q181 -25 165 -10Q154 3 146 13Q138 23 124 24Q120 24 104 20Q87 14 80 6Q74 -3 62 -15Q48 -26 38 -35Q28 -45 27 -67V-70Q28 -88 39 -105Q52 -124 52 -141Q62 -149 78 -169Q96 -190 107 -199L108 -197Q103 -189 98 -172V-169Q124 -171 168 -190Q193 -201 219 -213Q244 -225 274 -233Q272 -267 270 -302Q231 -294 201 -274Q171 -253 139 -235Q121 -238 107 -244Q99 -250 95 -260Q91 -270 85 -279Q75 -291 63 -299Q51 -307 49 -324V-328Q50 -348 61 -365Q72 -382 83 -400Q81 -409 72 -421Q61 -437 59 -447Q65 -447 73 -437Q81 -427 88 -426Q88 -437 74 -454Q61 -470 61 -480V-481H63Q70 -480 73 -474Q76 -468 79 -463Q86 -453 103 -445V-449Q103 -455 97 -460Q91 -465 91 -471H92Q100 -467 110 -459H122Q137 -451 156 -451Q177 -451 218 -466Q251 -478 264 -480Q264 -508 258 -534Q252 -546 245 -558Q244 -562 244 -569Q244 -618 326 -636Q338 -630 353 -630Q367 -602 387 -585Q386 -582 386 -576Q388 -560 389 -544Q389 -534 385 -526Q394 -527 407 -535Q419 -542 428 -543Q424 -535 417 -530Q410 -524 409 -513Q413 -511 414 -511Q422 -515 431 -519Q425 -511 422 -501Q424 -495 427 -495Q431 -496 435 -497Q437 -497 439 -495Q436 -484 436 -474Q439 -449 442 -425Q442 -421 440 -411V-409Q442 -403 446 -403Q444 -400 438 -396Q431 -392 430 -387Q431 -384 431 -382V-381L434 -379H440Q438 -375 430 -371Q420 -366 419 -359Q398 -351 377 -343Q369 -341 360 -340Q344 -333 344 -295V-270Q357 -272 385 -286Q418 -303 440 -304Q436 -299 418 -292Q403 -286 401 -271H402Q406 -271 413 -275Q422 -280 426 -280Q429 -280 431 -279Q429 -272 419 -265Q406 -256 406 -246Q407 -242 407 -239Q409 -236 419 -236Q413 -231 409 -209Q406 -191 401 -184Q415 -192 431 -198Q430 -195 430 -190V-186Q441 -185 461 -185Q525 -188 588 -192Q582 -204 579 -223Q567 -222 552 -212Q538 -203 530 -203Q526 -203 523 -204Q516 -208 508 -219Q499 -226 489 -235Q478 -243 474 -255Q472 -266 471 -275Q471 -283 458 -283Q474 -300 475 -332Q475 -364 477 -390Q472 -425 469 -462Q465 -499 445 -519V-520Q445 -525 441 -531Q436 -539 436 -543V-546Q437 -559 443 -569Q450 -579 455 -588Q473 -595 475 -608Q481 -610 487 -612Q491 -628 508 -650Q523 -670 528 -683Q537 -687 540 -697Q543 -706 550 -720Q566 -742 570 -768Q570 -782 557 -795L561 -796Q564 -796 584 -786L585 -787Q583 -792 580 -797L581 -798Q617 -798 642 -813Q644 -811 666 -803Q682 -797 684 -786Q701 -781 709 -769Q718 -756 726 -744V-738Q725 -714 717 -695Q709 -677 702 -657Q681 -653 661 -640Q646 -630 627 -612L625 -609Q719 -639 763 -652Q789 -664 813 -668Q826 -668 837 -658Q850 -666 862 -672Q861 -664 856 -657Q863 -659 873 -672Q884 -686 896 -687Q893 -678 885 -668Q872 -651 871 -637Q874 -637 880 -644Q886 -651 890 -652Q882 -637 882 -618Q886 -585 890 -552Q805 -509 757 -411L761 -410Q769 -410 779 -423Q786 -433 791 -435Q818 -447 838 -450Q848 -449 855 -443Q863 -437 872 -432Q877 -434 884 -441Q893 -450 901 -451Q888 -438 888 -424Q888 -416 893 -411Q896 -412 899 -416Q903 -422 907 -422L910 -421Q907 -409 907 -396Q909 -366 911 -336Q911 -315 905 -302Q872 -297 858 -290Q857 -286 855 -282V-280Q836 -272 820 -254Q809 -241 794 -216Q877 -216 916 -244Q919 -244 919 -241V-235L920 -232Q927 -233 936 -238Q944 -243 948 -244Q943 -236 940 -225Q940 -218 946 -213Q953 -217 964 -217Q963 -214 963 -208Q963 -195 969 -186Q962 -178 962 -166Q962 -156 969 -135Q956 -113 948 -88Q884 -97 806 -97Q736 -97 669 -89Q662 -79 662 -52Q662 -2 675 22Q671 29 671 37Q673 54 675 71V76Q673 89 658 108Q643 128 631 130Z"/>
</svg>