<svg xmlns="http://www.w3.org/2000/svg" viewBox="0 -800 1024 1024">
	<path fill="#000000" d="M210 -319V-317Q214 -300 217 -283Q221 -252 224 -223Q226 -194 239 -175Q245 -176 253 -181Q263 -187 267 -187Q273 -187 276 -184Q291 -223 296 -273Q300 -322 303 -374L301 -376Q299 -375 296 -374L294 -376Q298 -384 303 -390Q309 -396 310 -407Q309 -408 307 -410Q257 -383 228 -350Q212 -331 210 -319ZM911 -481Q905 -470 898 -459Q895 -463 895 -470Q895 -485 904 -485Q907 -485 911 -481ZM818 -292Q829 -231 829 -219Q829 -203 816 -194Q796 -198 776 -198Q744 -198 714 -191Q714 -185 722 -181Q727 -178 729 -175Q739 -183 746 -185Q734 -165 734 -153Q735 -149 735 -146L736 -145Q739 -146 741 -147L743 -145Q741 -136 725 -95Q704 -40 701 -23Q715 -16 737 -16Q771 -16 819 -26Q822 -28 824 -35Q828 -33 829 -33Q839 -33 845 -51Q850 -65 851 -86Q852 -122 853 -132Q855 -161 861 -170Q861 -101 867 -36Q870 -42 870 -57Q869 -79 868 -102Q868 -135 876 -147Q876 -83 881 -27Q888 -36 888 -60V-78Q888 -101 893 -107Q899 -79 901 -46Q903 -13 916 8Q922 11 929 11H933Q939 25 950 37Q946 76 941 115Q926 118 907 126Q901 122 887 118Q870 113 864 109L853 108Q828 105 795 105Q773 106 750 106Q736 106 721 105L706 112H701Q696 112 668 117Q651 122 633 126Q613 121 595 103Q589 85 587 51Q583 33 583 31Q583 24 588 15Q602 -5 628 -42Q654 -80 662 -104Q666 -105 669 -107H670V-110Q670 -113 659 -130Q646 -150 646 -155V-157Q644 -158 640 -158Q632 -157 628 -141Q624 -126 619 -115Q577 -73 545 -37Q527 -16 511 7Q495 29 476 43L469 62V63Q469 78 450 98Q432 117 432 131V132Q425 138 413 138Q405 138 376 125Q378 115 378 111Q378 97 369 81Q374 71 374 55Q374 45 373 39L372 38L374 36H375L377 35V34Q371 -3 365 -41Q384 -3 394 10Q391 -17 387 -44Q393 -40 399 -16Q405 6 411 13Q422 5 435 -15Q446 -31 451 -37Q472 -61 494 -78Q509 -89 515 -109V-113Q514 -127 513 -141Q510 -140 492 -140Q481 -140 458 -162Q438 -181 429 -183Q426 -194 417 -200Q409 -206 400 -212Q400 -225 403 -228Q503 -252 611 -282Q719 -312 801 -306L792 -313Q736 -333 697 -372Q588 -295 560 -291Q554 -289 548 -289Q544 -289 531 -297Q517 -305 510 -305Q502 -305 498 -298L497 -300Q501 -305 504 -310Q472 -336 439 -363Q443 -364 464 -357Q485 -349 488 -351Q488 -362 452 -378Q430 -388 426 -393Q471 -383 484 -378L485 -382Q483 -388 461 -397Q438 -406 416 -415Q391 -363 387 -227L384 -159Q383 -149 388 -132Q392 -117 392 -109V-104Q392 -93 381 -78Q371 -64 371 -57Q368 -56 358 -56Q339 -56 322 -62Q307 -73 297 -79Q294 -80 288 -80Q270 -80 260 -61Q252 -45 252 -19V-15Q237 -9 222 -3Q213 -10 197 -16Q174 -26 166 -35Q158 -46 152 -55Q145 -64 136 -69V-73Q140 -89 144 -106V-109Q144 -119 138 -137Q133 -152 133 -157Q133 -166 144 -172L119 -197Q91 -240 62 -284Q47 -309 46 -313V-316Q49 -331 51 -346Q50 -356 49 -367V-370Q50 -374 56 -383Q62 -392 62 -399V-401Q59 -416 55 -431Q55 -433 57 -439Q60 -427 69 -422Q72 -428 72 -435Q72 -443 68 -455Q62 -473 62 -483V-490Q68 -481 74 -470Q79 -459 88 -452Q76 -496 72 -543V-554Q84 -521 91 -507Q103 -482 119 -470Q122 -470 124 -475Q127 -480 131 -481Q137 -477 143 -471Q154 -460 161 -457Q163 -447 165 -441Q178 -455 195 -471Q216 -503 247 -523Q278 -543 306 -568Q322 -588 343 -607V-594Q357 -592 360 -592Q386 -594 395 -612Q405 -634 424 -649Q413 -626 408 -598Q408 -583 420 -578Q426 -582 435 -597V-593Q435 -586 434 -569Q450 -470 449 -466Q447 -456 445 -446Q439 -443 433 -440Q424 -429 419 -419L468 -403Q512 -390 563 -407Q594 -418 644 -448Q633 -467 621 -497Q566 -459 541 -457L534 -456Q518 -457 501 -471Q483 -486 482 -503Q480 -513 488 -522Q479 -532 477 -547Q475 -576 518 -606Q517 -604 514 -596Q524 -591 533 -592Q541 -592 584 -608Q570 -654 562 -676Q557 -688 547 -698Q538 -707 529 -717Q537 -734 559 -745Q580 -756 601 -756Q606 -755 611 -755Q631 -749 655 -746Q662 -746 665 -747Q664 -745 664 -740Q665 -728 674 -720Q683 -713 691 -707Q689 -701 689 -697Q689 -686 694 -676Q692 -658 691 -650Q703 -654 707 -656Q787 -692 799 -697V-693Q803 -684 808 -677H810Q813 -678 815 -680H816Q818 -667 824 -667Q827 -668 829 -669Q827 -666 827 -659Q828 -651 834 -639Q832 -624 830 -609Q830 -602 834 -599Q830 -592 829 -582V-578Q807 -572 784 -566Q768 -558 751 -556Q732 -548 708 -539Q716 -518 726 -497Q758 -521 761 -537Q772 -534 783 -534Q799 -534 814 -535Q840 -535 849 -520Q851 -522 858 -522Q857 -519 857 -512Q857 -501 863 -485Q868 -470 869 -465Q862 -458 854 -447Q846 -436 834 -433Q815 -430 795 -427Q788 -425 778 -421Q821 -370 863 -369Q867 -405 877 -436Q878 -429 878 -423Q878 -410 877 -398Q877 -379 881 -367Q884 -380 886 -404Q889 -436 893 -448Q897 -434 897 -399Q897 -363 901 -349Q909 -377 910 -412Q913 -404 913 -383Q913 -360 917 -348Q922 -333 929 -316Q936 -299 937 -285Q937 -275 929 -261H925Q916 -261 900 -256Q887 -252 880 -252H878Q863 -253 847 -266Q832 -279 822 -289Z"/>
</svg>