<svg xmlns="http://www.w3.org/2000/svg" viewBox="0 -800 1024 1024">
	<path fill="#000000" d="M901 -306H904Q901 -294 898 -282Q892 -284 892 -303Q897 -306 901 -306ZM859 -367H860Q863 -365 866 -364Q859 -354 851 -345Q849 -349 849 -352Q849 -362 859 -367ZM884 -146V-137Q884 -118 888 -113Q891 -130 891 -180Q891 -246 901 -270Q900 -229 899 -188Q899 -139 907 -114Q911 -126 911 -161Q911 -192 913 -203V-217L914 -218Q915 -218 915 -210V-201Q915 -134 952 -78Q959 -68 967 -57Q974 -46 975 -31Q975 -27 974 -24Q971 -14 968 -4Q968 3 975 7Q968 11 957 28Q943 49 928 53Q878 37 812 34Q780 32 762 32Q751 32 733 34Q723 35 703 42Q679 50 667 50Q653 50 642 42Q615 23 615 -29Q615 -45 618 -60Q632 -187 647 -303Q643 -310 636 -310Q625 -306 614 -303Q618 -317 632 -339Q650 -368 651 -391Q651 -402 652 -413Q653 -423 660 -429Q654 -433 654 -448Q654 -461 659 -465Q655 -469 655 -473Q655 -474 660 -487Q655 -492 655 -500Q655 -502 660 -522Q657 -527 653 -533L654 -535V-537Q654 -540 657 -540H660V-543Q658 -554 655 -566Q655 -572 660 -573Q654 -575 654 -583Q655 -592 656 -601V-604Q655 -612 647 -629Q635 -654 635 -669V-676Q646 -727 678 -751Q690 -757 703 -757Q707 -756 710 -756Q717 -751 725 -742Q733 -740 740 -738Q748 -733 762 -705Q780 -670 780 -667V-663Q780 -657 771 -621Q754 -561 750 -486Q754 -493 769 -517Q787 -545 795 -565Q795 -567 784 -591Q800 -599 818 -612Q836 -625 855 -626Q866 -626 879 -618Q893 -622 895 -625Q899 -625 899 -621L898 -618Q901 -618 906 -623Q911 -628 916 -628H919Q909 -608 909 -598V-594Q913 -583 918 -576H920Q924 -576 927 -577Q924 -575 924 -572Q926 -567 927 -562Q924 -558 922 -552Q926 -540 930 -529V-528Q930 -512 914 -491Q894 -465 891 -457Q885 -459 873 -459Q855 -459 839 -448Q833 -444 812 -424Q794 -409 778 -397Q761 -385 752 -366H748Q734 -366 725 -355Q717 -345 717 -329Q717 -322 718 -319Q752 -306 765 -306Q778 -306 786 -313H788Q791 -313 791 -309Q792 -304 793 -304Q806 -312 818 -321Q830 -331 844 -333Q841 -325 831 -316Q822 -307 821 -291Q826 -283 830 -275Q834 -283 844 -285H848Q846 -279 846 -265Q846 -236 866 -235Q857 -230 857 -214V-201Q857 -191 851 -175Q847 -164 847 -158Q847 -153 850 -147Q845 -148 842 -155Q840 -160 836 -162H833Q810 -162 808 -132Q806 -140 804 -148Q798 -154 789 -154Q785 -154 783 -153Q769 -162 750 -179Q723 -203 709 -211Q697 -169 697 -88Q699 -89 702 -89Q713 -86 724 -84H730Q757 -87 784 -91H787Q791 -89 795 -87Q816 -90 836 -94Q856 -95 873 -103Q874 -128 882 -163Q884 -153 884 -146ZM576 -108V-98Q578 -64 579 -31Q579 -9 573 9Q564 10 558 22Q556 21 552 21Q545 24 537 30Q520 22 496 -7Q478 -29 465 -38Q476 -41 479 -44Q465 -58 439 -75Q415 -91 411 -94Q440 -84 482 -78Q493 -97 497 -124Q500 -152 505 -177Q492 -174 487 -160Q481 -147 478 -132Q473 -112 456 -110H455Q447 -110 444 -116Q440 -122 433 -128Q427 -132 417 -135Q408 -138 403 -144Q400 -150 400 -159Q400 -172 405 -182Q399 -195 399 -211Q399 -252 429 -291Q427 -281 425 -272Q425 -266 428 -263Q444 -274 474 -303Q499 -327 515 -339Q513 -345 507 -346Q501 -348 494 -351Q482 -360 463 -364Q455 -364 450 -360L449 -363Q450 -367 451 -371Q451 -373 448 -375Q436 -372 426 -360V-361Q426 -366 433 -374Q440 -382 441 -385Q434 -389 433 -399Q431 -408 428 -417V-413Q428 -406 421 -396Q414 -386 414 -377V-373Q347 -362 308 -329Q282 -274 238 -204Q243 -195 253 -192Q263 -189 273 -186Q294 -213 318 -286Q322 -299 322 -314Q323 -330 332 -342Q342 -344 348 -344Q380 -343 388 -315Q392 -316 396 -318H398Q393 -308 393 -299Q393 -294 394 -292L396 -291H403Q399 -280 397 -253Q395 -222 389 -211Q342 -206 339 -165Q357 -165 362 -157Q366 -171 371 -174V-170Q371 -138 392 -131Q395 -89 395 -85Q395 -28 357 -28H355Q335 -48 309 -65Q298 -60 289 -37Q280 -14 270 -9Q262 10 255 31Q249 52 235 66Q233 74 231 81Q217 83 186 95Q175 84 155 56Q129 19 109 4Q86 -14 81 -22Q93 -19 113 -6Q133 7 146 10Q136 -8 98 -33Q59 -58 47 -78Q74 -62 98 -44Q123 -25 152 -16Q148 -26 143 -36H145Q151 -35 156 -34H158Q183 -48 199 -70Q215 -93 232 -116Q229 -121 219 -121Q203 -121 198 -110Q155 -113 151 -151Q148 -166 148 -185V-191Q149 -213 162 -228Q174 -244 179 -257Q148 -250 137 -214Q123 -218 106 -221Q88 -224 78 -235Q74 -241 70 -255Q65 -274 59 -282Q56 -285 47 -292Q37 -299 35 -307Q33 -317 33 -323Q35 -358 47 -375Q44 -387 44 -402Q44 -426 53 -441Q64 -459 84 -459H85Q101 -474 117 -490Q133 -506 161 -510Q153 -503 143 -496Q133 -489 132 -473Q135 -473 138 -478Q142 -484 147 -484H149L150 -482Q148 -474 145 -467Q145 -464 146 -462Q152 -460 162 -460Q186 -463 210 -467Q220 -523 220 -552Q220 -583 210 -609Q218 -625 226 -640Q233 -655 235 -676Q242 -679 272 -699Q306 -678 340 -657Q346 -613 361 -576Q336 -552 333 -510Q353 -512 390 -528Q417 -539 431 -543Q408 -529 408 -512V-508L411 -506Q417 -509 422 -512L423 -511Q420 -502 417 -493Q417 -491 419 -487L421 -486Q425 -488 428 -490H429Q423 -484 423 -472Q423 -468 425 -462Q429 -468 434 -476Q438 -484 445 -487H448Q452 -487 454 -483Q463 -492 472 -492Q486 -490 500 -477Q513 -463 524 -456Q528 -492 528 -509Q528 -565 512 -621H530Q535 -631 541 -640Q546 -650 560 -651H562Q568 -654 574 -657Q617 -628 629 -589Q635 -573 635 -557V-553Q631 -538 621 -517Q597 -452 592 -381Q588 -330 582 -276Q576 -223 575 -164Q575 -139 576 -126V-124Q578 -120 580 -117V-116Q576 -115 576 -108Z"/>
</svg>