<svg xmlns="http://www.w3.org/2000/svg" viewBox="0 -800 1024 1024">
	<path fill="#000000" d="M843 -252V-240Q843 -228 840 -224Q835 -228 835 -240Q835 -246 837 -252ZM99 -401H98V-410Q98 -424 107 -424H109V-418Q109 -401 99 -401ZM315 49H311Q308 48 305 43Q302 38 299 35Q292 31 285 27Q283 23 280 18Q270 10 262 -1Q260 -4 259 -14Q257 -27 252 -31Q240 -30 234 -36Q234 -41 243 -41Q247 -41 249 -42Q248 -51 234 -55Q221 -59 219 -64Q220 -66 229 -67Q236 -68 239 -70Q240 -78 240 -92Q238 -130 235 -169Q235 -188 239 -205Q245 -208 246 -208H248Q250 -254 264 -277Q250 -265 233 -240Q228 -233 206 -197Q193 -178 180 -157Q166 -136 159 -111Q157 -112 152 -112Q143 -111 134 -110Q124 -110 121 -117Q111 -107 100 -98Q100 -100 99 -103Q103 -113 106 -123Q89 -130 80 -145Q71 -159 61 -173Q47 -175 46 -182H45Q42 -182 41 -179Q39 -175 37 -174Q28 -181 28 -191Q31 -208 42 -229Q48 -251 56 -263Q60 -284 73 -330Q77 -346 82 -362Q88 -378 100 -387V-385Q100 -374 91 -351Q84 -333 82 -324Q79 -313 79 -289Q88 -312 97 -335Q98 -333 98 -329Q97 -319 95 -310Q95 -308 97 -302Q187 -421 289 -585L285 -586Q276 -585 271 -577Q266 -568 261 -563V-566Q265 -588 280 -605Q291 -622 302 -645Q311 -642 320 -640Q338 -649 350 -649Q362 -649 369 -640Q375 -633 387 -612Q403 -585 413 -574Q413 -564 422 -546Q419 -542 419 -534V-518Q413 -486 409 -458Q409 -452 410 -449Q365 -421 351 -395Q326 -391 317 -378H332Q344 -365 354 -350V-348Q354 -338 363 -314Q369 -297 371 -286Q373 -276 373 -257V-226Q373 -199 378 -186Q376 -170 376 -158Q377 -126 378 -94Q375 -72 372 -50Q369 3 366 13Q359 42 335 52Q332 48 326 48Q321 49 315 49ZM875 -209V-237Q875 -278 881 -298Q885 -260 885 -216Q885 -173 898 -143Q904 -142 908 -130Q911 -121 914 -119Q918 -128 921 -137Q929 -135 930 -126Q930 -118 931 -110Q934 -73 948 -57Q931 -5 930 -1Q913 7 910 10Q901 17 899 30Q855 40 805 50Q755 59 703 60Q677 60 644 55Q608 48 598 44Q590 39 582 34Q578 31 570 29Q560 26 555 22Q544 17 529 5Q506 -12 490 -34Q487 -45 484 -57Q479 -68 470 -79Q461 -90 459 -107Q459 -114 458 -121Q458 -137 462 -167Q463 -182 469 -207Q477 -236 477 -251Q470 -250 457 -241Q442 -231 433 -229Q436 -241 451 -251Q470 -264 474 -270Q486 -294 484 -333Q486 -366 498 -423Q509 -479 511 -496Q505 -510 503 -558Q501 -610 493 -624Q487 -634 480 -634Q471 -633 462 -622Q453 -611 445 -605Q445 -614 454 -625Q463 -636 463 -644Q463 -648 462 -651Q460 -650 458 -647Q455 -642 451 -642Q448 -642 446 -643Q460 -693 499 -750Q511 -751 521 -764Q530 -776 538 -777Q540 -778 545 -778Q576 -773 594 -752Q603 -742 617 -712Q636 -673 650 -665V-663Q650 -658 645 -648Q641 -639 640 -633V-631Q641 -625 641 -619V-617Q636 -597 631 -578Q622 -514 609 -453Q605 -441 601 -430Q615 -437 628 -451Q641 -464 653 -476Q653 -486 644 -506Q664 -509 700 -525Q721 -535 733 -537Q749 -508 777 -508Q784 -508 788 -509Q787 -503 780 -500Q772 -496 772 -491Q774 -487 775 -483Q783 -486 803 -501Q819 -513 832 -513H835Q831 -506 818 -498Q810 -493 806 -489Q797 -479 788 -465Q797 -468 806 -471H807V-470Q807 -463 801 -457Q794 -449 794 -444Q794 -440 795 -437L797 -434Q801 -435 805 -436H806Q801 -427 801 -409Q801 -393 806 -356Q793 -335 776 -318Q769 -319 761 -320Q755 -320 754 -315Q749 -320 738 -320Q724 -320 716 -314Q710 -316 708 -316Q699 -316 684 -306Q684 -301 683 -297Q683 -294 684 -292Q683 -292 665 -295H662Q639 -293 622 -283Q609 -278 596 -276Q583 -274 570 -266Q546 -194 546 -155Q546 -128 555 -114Q593 -99 652 -99Q719 -99 775 -116Q775 -114 773 -113Q770 -113 770 -111H772Q792 -111 805 -124Q817 -137 819 -158Q822 -158 823 -155Q825 -151 826 -151Q836 -158 837 -175Q837 -193 840 -208Q844 -183 850 -160Q856 -166 856 -177Q856 -184 855 -189Q854 -197 854 -216Q855 -253 855 -290V-348Q855 -371 856 -383Q854 -396 863 -407Q867 -404 867 -401Q865 -394 863 -387Q862 -382 862 -371Q865 -333 868 -295Q869 -229 874 -173Q875 -184 875 -209Z"/>
</svg>