<svg xmlns="http://www.w3.org/2000/svg" viewBox="0 -800 1024 1024">
	<path fill="#000000" d="M911 -358H910Q903 -355 896 -353Q894 -354 892 -355Q894 -365 904 -367Q911 -367 911 -359ZM345 -45V-44Q343 -42 340 -42Q334 -44 327 -47V-49Q327 -56 333 -56Q343 -55 345 -45ZM522 -734V-721Q522 -714 519 -713Q512 -713 512 -726Q512 -735 517 -735Q520 -735 522 -734ZM375 -567V-570Q375 -582 384 -582Q390 -582 395 -574Q389 -567 375 -567ZM230 -23H229Q214 -22 211 -9Q208 4 203 16Q191 35 174 35Q157 35 139 19Q124 6 115 -11Q116 -14 116 -20Q116 -30 109 -49Q103 -65 103 -74Q103 -79 104 -82Q106 -89 127 -110Q131 -115 134 -119Q138 -122 146 -122Q156 -139 156 -170Q141 -182 104 -188Q100 -194 96 -200Q92 -206 83 -206Q82 -212 74 -221Q65 -230 64 -236Q64 -239 63 -243Q66 -263 74 -281Q71 -291 58 -303Q44 -316 41 -325Q48 -325 62 -315Q73 -307 79 -305Q79 -309 74 -316Q70 -321 70 -324V-326H73Q79 -326 87 -320Q97 -313 104 -313L105 -315Q105 -317 100 -320Q94 -323 94 -326L95 -328H97Q103 -328 111 -322Q119 -317 125 -316H132Q165 -320 198 -325Q213 -325 221 -317Q223 -309 236 -295Q245 -286 248 -278Q255 -261 255 -233Q255 -230 252 -167Q265 -175 279 -178Q280 -182 280 -190Q278 -212 276 -235Q276 -296 263 -349Q261 -356 247 -372Q236 -385 232 -391Q214 -421 214 -442Q214 -454 218 -463Q222 -475 235 -502Q237 -517 244 -527Q250 -536 272 -548Q296 -561 313 -561H318Q335 -559 368 -521Q379 -508 383 -493Q387 -483 392 -475Q398 -467 399 -452Q377 -403 369 -334Q368 -321 368 -294V-223Q372 -224 379 -229Q386 -234 393 -235Q392 -244 392 -262Q392 -296 398 -328H414Q416 -329 417 -333Q419 -340 423 -341Q426 -325 429 -319Q434 -307 443 -307Q446 -307 448 -308V-299Q448 -294 449 -292Q461 -275 476 -212Q480 -191 483 -170Q486 -164 489 -158Q480 -144 470 -130Q458 -120 442 -120Q436 -120 434 -121Q426 -127 418 -133Q414 -133 371 -116Q348 -104 325 -92Q295 -79 269 -65Q242 -51 230 -23ZM935 -37V-32Q937 -29 938 -29Q941 -29 944 -30L947 -29Q946 -27 946 -21Q950 6 962 35Q954 41 952 52Q953 55 953 58Q932 68 909 68Q889 68 845 57Q801 46 774 44Q766 43 751 43Q729 43 719 44Q673 46 653 51Q616 60 614 84Q601 90 590 90Q567 88 551 70Q535 52 521 38Q520 34 520 28Q520 16 525 2Q530 -12 530 -18Q530 -27 528 -32Q540 -44 551 -54Q563 -65 578 -71L579 -68Q577 -62 574 -56L575 -53Q583 -49 594 -49Q615 -51 636 -53H643Q649 -59 649 -72V-77H622Q616 -75 609 -74H606Q595 -77 585 -103Q578 -122 571 -127Q545 -96 533 -80Q508 -46 500 -22Q490 19 455 38Q441 49 426 53Q414 53 404 35Q393 15 383 13V11Q384 7 389 5Q388 -15 374 -25Q360 -36 350 -44L354 -45Q366 -42 377 -39H380Q374 -55 354 -61Q334 -68 318 -77Q321 -78 326 -78Q336 -78 362 -69Q386 -60 399 -59Q498 -120 545 -182Q529 -188 517 -197Q505 -206 492 -214Q498 -281 515 -319Q523 -301 547 -301Q559 -301 599 -311Q623 -312 634 -323L630 -325Q625 -324 620 -323H618Q601 -330 583 -334H578Q578 -339 584 -342Q590 -344 590 -347Q584 -355 568 -359Q593 -383 633 -391Q637 -401 637 -407Q598 -399 571 -385Q558 -376 547 -364Q536 -352 520 -351Q511 -351 503 -355Q495 -362 482 -380Q455 -405 455 -420Q455 -432 464 -442Q462 -448 462 -451Q462 -459 470 -473Q489 -490 494 -493Q497 -492 502 -492Q507 -492 516 -498Q509 -506 502 -514Q494 -521 484 -522Q479 -522 477 -521Q473 -527 466 -532Q446 -529 437 -515L436 -519Q436 -524 445 -532Q455 -541 455 -548V-550Q454 -573 406 -580Q409 -586 426 -587Q441 -587 443 -592Q436 -612 417 -620Q396 -629 380 -642H384Q411 -636 443 -617Q449 -621 456 -624Q463 -628 464 -634V-636Q464 -641 460 -646Q455 -652 455 -657V-658H457Q463 -658 466 -655Q469 -652 473 -649Q488 -658 510 -661H513Q520 -664 520 -676Q520 -685 519 -695V-699Q526 -695 526 -684V-679Q532 -665 544 -664H547Q557 -665 566 -666Q574 -666 580 -659Q585 -661 589 -664H592V-654Q592 -648 593 -646Q597 -642 602 -633Q610 -620 616 -616Q629 -586 637 -553Q632 -546 632 -532Q632 -519 631 -512Q663 -517 680 -523Q681 -525 681 -529Q681 -535 677 -539Q706 -582 729 -632Q751 -683 775 -730Q773 -734 762 -738Q752 -742 750 -748Q765 -753 805 -782Q838 -805 870 -806Q898 -786 920 -769Q943 -751 944 -706V-697Q938 -671 929 -646Q853 -633 815 -562Q838 -569 860 -577V-574Q860 -555 873 -555Q891 -558 908 -562Q903 -557 896 -553Q889 -550 888 -541Q891 -537 895 -537Q903 -539 910 -541V-539Q906 -529 898 -520Q900 -518 901 -511Q903 -502 908 -501Q899 -495 897 -482Q895 -469 892 -457Q882 -459 863 -459Q824 -458 787 -448Q750 -438 719 -430Q721 -424 723 -418Q733 -423 746 -423Q772 -423 787 -406Q783 -383 778 -361Q746 -361 723 -353Q700 -345 700 -334V-332Q799 -345 830 -359L831 -356Q831 -352 830 -349L831 -347Q852 -350 873 -353Q878 -352 883 -352Q878 -349 871 -347Q864 -345 863 -337Q865 -334 870 -334Q876 -334 880 -337V-335Q880 -332 875 -327Q869 -322 869 -319Q876 -312 876 -302Q876 -292 877 -281Q872 -281 860 -273Q850 -267 843 -265Q833 -268 818 -268Q773 -265 728 -256Q707 -253 685 -250Q673 -246 660 -225Q652 -212 646 -208Q630 -208 627 -203Q653 -207 699 -222Q734 -234 745 -236L747 -238Q746 -240 744 -243L745 -245Q759 -242 773 -239Q778 -239 784 -242Q789 -240 799 -232Q811 -222 820 -222Q825 -222 828 -223V-220Q825 -207 822 -194Q836 -188 836 -169Q836 -154 824 -148Q826 -142 826 -141Q824 -134 822 -128H803Q766 -128 735 -119L736 -116Q738 -102 739 -89Q739 -73 731 -61Q737 -60 743 -60Q778 -64 813 -68Q849 -66 870 -79Q877 -85 881 -102Q885 -118 894 -125Q895 -122 895 -119Q894 -105 893 -91Q893 -76 902 -71H905Q916 -72 926 -73Q932 -73 935 -71Q932 -68 926 -66Q921 -65 920 -59Q921 -53 925 -53Q932 -54 938 -55Q942 -55 944 -53Q937 -48 935 -37Z"/>
</svg>