<svg xmlns="http://www.w3.org/2000/svg" viewBox="0 -800 1024 1024">
	<path fill="#000000" d="M818 -308H810L809 -312Q809 -321 819 -321Q821 -321 825 -319Q825 -317 821 -315Q818 -313 818 -310ZM68 -269Q64 -255 60 -241Q56 -244 56 -252Q57 -267 65 -270ZM662 -389V-408Q656 -410 653 -410Q637 -410 637 -393Q637 -391 639 -383Q651 -386 662 -389ZM681 -493Q687 -521 693 -550Q685 -548 643 -535Q636 -525 636 -503Q636 -489 639 -480Q660 -486 681 -493ZM178 -365V-375Q178 -381 180 -383Q173 -393 156 -407Q135 -425 128 -436Q124 -436 119 -437Q114 -438 112 -443Q114 -445 123 -447Q131 -448 133 -452Q127 -470 106 -474Q85 -478 65 -483Q80 -487 98 -487Q127 -492 152 -511Q165 -521 193 -550Q226 -584 233 -593Q252 -617 260 -641H255Q247 -641 235 -631Q223 -621 212 -621Q222 -637 238 -645Q254 -654 270 -664Q266 -667 263 -667Q251 -662 239 -658Q260 -682 272 -691Q296 -710 319 -710Q327 -710 331 -709Q338 -707 352 -699Q372 -687 384 -687H387Q391 -668 403 -667Q399 -655 399 -640Q399 -628 405 -596Q410 -569 410 -553Q410 -541 407 -529Q381 -515 345 -483Q341 -480 329 -465Q317 -451 308 -445Q299 -439 289 -434Q281 -427 273 -418Q257 -400 249 -395Q243 -385 237 -374Q230 -363 219 -361L215 -360Q201 -364 187 -368Q183 -368 178 -365ZM357 -34V-28Q350 -5 336 11Q319 36 314 48Q311 42 307 37Q302 37 296 36Q294 36 282 38Q259 8 240 -26V-29Q240 -52 221 -58Q229 -61 240 -61Q260 -90 260 -136Q260 -164 248 -179Q176 -110 117 -18H112Q103 -17 93 -16Q87 -16 82 -22Q78 -22 77 -19Q77 -16 74 -16H73V-18Q75 -21 76 -25Q52 -40 45 -79Q36 -102 35 -120Q35 -127 36 -131Q38 -159 41 -185Q44 -212 55 -230V-223Q53 -194 51 -165V-160Q58 -170 58 -185Q67 -258 104 -332Q101 -310 91 -275Q74 -217 74 -182Q81 -188 81 -199Q80 -209 82 -219Q88 -237 95 -248Q97 -246 97 -239Q96 -227 95 -215Q95 -204 101 -202Q173 -246 243 -317Q261 -334 279 -352Q297 -370 307 -394V-396Q305 -400 303 -405L304 -408H306Q321 -408 336 -425Q350 -440 361 -440Q369 -440 377 -436Q379 -422 399 -412Q403 -401 408 -391Q414 -381 414 -366Q414 -359 413 -354Q400 -343 399 -328Q380 -326 362 -315Q355 -310 334 -293Q312 -267 295 -244Q297 -241 308 -240Q316 -239 320 -236Q328 -222 343 -206Q358 -190 360 -166Q357 -138 353 -110Q353 -101 352 -92Q353 -83 353 -74Q355 -54 357 -34ZM952 -172H953Q961 -174 968 -177L972 -176Q965 -165 958 -154Q950 -144 949 -127Q941 -119 936 -106Q918 -100 902 -91Q845 -108 764 -108Q698 -108 653 -95Q655 -61 657 -28Q659 4 668 29Q663 35 662 52Q661 66 659 71Q642 102 615 109H614Q604 109 598 101Q591 94 582 85Q566 77 555 62Q542 59 532 55V54Q532 52 536 52H540L544 51Q535 41 509 34Q487 28 480 23Q503 26 525 29Q535 29 545 26Q558 -5 567 -79Q560 -80 548 -80Q522 -80 499 -68Q497 -67 465 -45Q445 -31 423 -31H416Q404 -34 400 -45Q397 -56 390 -70Q383 -81 375 -92V-96Q377 -106 379 -117V-119Q377 -125 375 -131Q375 -132 377 -136V-138L378 -139Q381 -138 383 -137H384V-163Q407 -145 445 -145Q470 -145 519 -155Q556 -163 570 -164Q572 -168 573 -173Q570 -180 563 -180Q547 -176 529 -167Q521 -172 511 -177Q501 -181 498 -191V-193Q500 -200 501 -208Q499 -217 496 -227Q497 -237 505 -245Q512 -253 516 -260Q521 -251 536 -251Q550 -251 581 -265Q581 -278 578 -280Q560 -270 545 -267Q536 -267 526 -274Q519 -281 514 -290Q509 -299 499 -301Q499 -334 513 -352H519Q533 -352 557 -363Q575 -371 585 -373Q586 -378 586 -384Q586 -387 584 -391Q566 -386 545 -381Q524 -376 508 -364Q500 -357 495 -348Q489 -340 480 -339H476Q452 -341 439 -351Q428 -364 416 -391Q414 -394 414 -400Q418 -420 424 -439Q434 -445 434 -446V-451Q434 -461 433 -472V-477Q440 -474 445 -462Q449 -452 454 -449Q464 -442 478 -442Q494 -442 530 -454Q566 -466 581 -466H582V-509Q579 -510 574 -510Q562 -510 543 -490Q524 -470 511 -469H509Q495 -470 481 -477Q466 -485 452 -490Q449 -509 445 -529Q443 -535 436 -546Q429 -557 428 -565V-567Q428 -587 448 -600Q447 -604 444 -608Q439 -614 439 -618V-621Q446 -618 452 -615Q453 -618 457 -619Q456 -629 448 -640Q441 -649 440 -655Q450 -652 466 -639Q478 -629 487 -625Q493 -622 499 -622Q516 -623 534 -634Q552 -645 567 -652V-655Q567 -668 556 -686Q546 -702 545 -710Q545 -712 544 -715Q545 -720 545 -725Q545 -732 541 -736Q521 -734 501 -733Q509 -742 519 -746Q530 -750 541 -756Q559 -770 576 -785Q593 -800 619 -801Q633 -801 649 -795Q660 -781 667 -762Q683 -748 690 -730V-728Q688 -713 685 -699Q685 -695 687 -687Q700 -688 729 -704Q767 -725 787 -725Q803 -725 816 -716Q829 -719 849 -731Q871 -744 880 -744H883Q876 -733 862 -730Q846 -720 835 -701H838Q857 -705 876 -709H878Q869 -702 859 -696Q850 -690 846 -679Q848 -673 852 -672Q857 -672 863 -676Q870 -681 876 -681H878Q878 -674 872 -668Q865 -661 865 -655V-652Q866 -647 877 -647Q875 -630 875 -612Q876 -595 867 -578Q842 -561 826 -520Q839 -521 869 -530Q898 -539 916 -539Q923 -539 927 -538Q914 -533 912 -520Q912 -515 916 -511Q932 -517 942 -517Q941 -514 936 -508Q931 -502 930 -496Q930 -490 938 -490H942Q933 -483 933 -473Q932 -463 930 -452Q927 -443 912 -430Q902 -421 898 -415H891Q880 -415 863 -421Q850 -425 841 -426Q837 -427 827 -427Q796 -427 787 -415Q781 -406 781 -398Q783 -381 785 -364V-357Q780 -341 760 -329Q753 -323 746 -317Q739 -310 729 -308H725Q711 -311 696 -314H694Q681 -314 664 -306Q648 -298 640 -298Q640 -292 639 -287Q640 -283 640 -279Q670 -290 708 -299Q713 -292 720 -286Q735 -291 750 -296H751Q751 -290 743 -286Q735 -282 735 -276Q745 -277 768 -289Q786 -298 797 -301Q793 -294 777 -285Q757 -274 755 -260L757 -259Q764 -260 770 -262Q773 -262 775 -260Q761 -254 749 -228Q737 -204 726 -197Q711 -202 697 -202Q663 -202 643 -187Q645 -182 646 -178Q787 -200 927 -233L929 -231Q926 -226 923 -222L924 -219H927Q948 -224 963 -232V-230Q963 -226 955 -220Q942 -210 942 -202V-200L945 -199Q951 -201 956 -204L958 -203V-202Q953 -194 948 -180Q948 -176 952 -172Z"/>
</svg>