<svg xmlns="http://www.w3.org/2000/svg" viewBox="0 -800 1024 1024">
	<path fill="#000000" d="M404 -137V-144Q404 -148 405 -149Q414 -148 417 -142Q420 -136 423 -130Q414 -133 404 -137ZM904 -488H903Q901 -498 899 -508Q899 -515 908 -515Q911 -509 911 -500Q911 -488 904 -488ZM255 -312V-308Q256 -272 266 -244Q276 -216 284 -185Q306 -195 314 -196Q313 -203 313 -219Q313 -263 327 -329Q326 -331 322 -331Q319 -330 315 -330Q311 -330 311 -335Q331 -343 335 -366Q335 -369 333 -375Q312 -360 292 -345Q271 -331 255 -312ZM714 -481Q703 -492 685 -521Q659 -562 638 -575Q621 -542 605 -509Q588 -477 577 -438Q646 -459 714 -481ZM965 -271V-260Q960 -246 945 -242Q930 -237 916 -233Q908 -237 896 -239Q885 -240 881 -249Q880 -248 876 -248H873Q855 -270 824 -321Q787 -383 762 -409Q761 -407 761 -404Q762 -398 763 -393Q763 -389 759 -386Q764 -379 766 -379Q769 -379 771 -380Q758 -363 758 -349V-346Q739 -345 720 -337Q702 -330 685 -324Q670 -320 654 -317Q646 -311 638 -305Q613 -296 608 -283Q596 -278 589 -278Q570 -278 556 -299Q550 -308 536 -338Q526 -318 516 -298Q507 -278 505 -251Q513 -254 522 -260Q532 -266 542 -267Q552 -267 559 -259L637 -281Q673 -293 709 -305Q725 -307 737 -312Q744 -318 749 -324Q755 -331 764 -335L763 -332Q763 -329 770 -324Q777 -326 782 -340Q786 -350 789 -353Q793 -349 793 -342Q792 -333 791 -324V-320Q797 -306 805 -293H809Q818 -294 824 -299Q820 -291 820 -282Q820 -271 827 -253Q834 -236 835 -227Q828 -220 828 -206Q828 -202 830 -196Q829 -193 821 -193H811Q769 -154 741 -100Q712 -45 682 8Q661 36 651 73Q630 77 615 87Q600 97 583 107Q575 105 567 90Q560 76 550 73Q544 73 540 79Q536 85 533 85Q532 83 532 80Q532 77 536 73Q539 70 540 67Q539 61 533 60Q528 58 523 56Q513 9 476 -22Q472 -25 467 -28Q461 -30 460 -36H461Q469 -36 490 -22Q505 -9 518 -5Q511 -32 487 -47Q460 -63 444 -88Q466 -78 483 -64Q500 -50 518 -38Q513 -51 494 -59Q484 -74 462 -93Q435 -116 428 -124Q447 -121 462 -109Q477 -96 490 -85Q521 -63 536 -48Q535 -54 523 -63Q511 -72 509 -79Q523 -79 540 -65Q557 -51 568 -50Q602 -90 623 -116Q654 -156 672 -188Q603 -164 576 -145Q570 -140 565 -134Q560 -128 553 -127Q551 -126 546 -126Q536 -126 521 -138Q510 -146 503 -149Q502 -171 500 -181Q497 -198 487 -205Q482 -203 472 -203Q457 -203 444 -217Q437 -225 425 -243H424Q422 -243 420 -240Q419 -237 416 -237Q417 -239 417 -242Q417 -251 412 -258Q407 -265 404 -272Q406 -278 408 -284Q408 -288 405 -296L408 -297Q411 -296 414 -295Q416 -295 417 -299Q417 -304 414 -306Q410 -308 407 -309Q390 -239 379 -162V-150Q379 -131 385 -121Q381 -85 373 -77Q356 -87 337 -87Q314 -87 290 -74Q280 -59 280 -51Q280 -46 281 -44Q270 -37 253 -35Q232 -40 213 -64Q186 -99 182 -102Q180 -108 178 -115V-117L174 -118Q168 -116 161 -114Q171 -129 171 -147Q171 -159 167 -170Q161 -178 155 -186Q148 -200 141 -214Q134 -227 120 -234H103Q73 -255 50 -293Q31 -326 31 -350V-359Q33 -370 35 -381Q35 -385 34 -390V-392Q38 -412 66 -430Q73 -446 75 -475V-479Q72 -503 72 -505Q72 -515 78 -519V-516Q82 -485 91 -464Q95 -467 95 -472Q93 -484 90 -497Q90 -502 93 -507Q98 -496 102 -484Q106 -473 117 -467Q118 -469 118 -473Q118 -478 115 -490H116Q124 -489 126 -481Q128 -474 131 -469Q139 -458 165 -448Q196 -437 204 -422Q267 -463 326 -509Q326 -512 330 -518Q349 -527 367 -536Q372 -544 377 -553Q379 -551 381 -546Q384 -539 388 -538Q400 -541 404 -552Q409 -563 416 -573L417 -569Q414 -553 411 -537Q411 -530 413 -527L414 -526Q417 -528 420 -530H422V-510Q431 -492 444 -475Q456 -457 457 -435V-428Q455 -414 444 -404Q433 -395 423 -383Q414 -370 413 -357Q411 -343 407 -329Q427 -332 448 -362Q456 -374 476 -412L497 -458Q509 -480 520 -503Q531 -525 545 -572Q559 -622 571 -642Q571 -649 576 -668Q582 -691 582 -703Q582 -719 573 -728Q561 -725 552 -719Q552 -728 558 -733Q564 -739 570 -746Q577 -761 583 -777Q602 -803 645 -806Q667 -806 679 -795Q683 -786 688 -776Q693 -766 694 -756V-751Q708 -722 710 -716Q717 -696 717 -673V-669Q712 -665 709 -658Q706 -651 697 -650Q697 -644 706 -634Q717 -621 718 -611Q726 -608 735 -593Q745 -578 753 -575Q755 -567 756 -560Q783 -531 808 -500Q833 -469 862 -443Q864 -452 864 -462Q863 -472 868 -478Q871 -472 873 -455Q875 -436 879 -430Q886 -432 886 -442Q884 -453 882 -465Q878 -492 878 -531V-553Q886 -538 891 -495Q896 -454 903 -438Q907 -442 907 -453Q907 -465 905 -473Q912 -471 912 -457V-446Q917 -429 921 -413Q929 -380 931 -377Q933 -373 941 -364Q952 -351 955 -343Q956 -341 956 -335V-328Q965 -285 965 -271Z"/>
</svg>