<svg xmlns="http://www.w3.org/2000/svg" viewBox="0 -800 1024 1024">
	<path fill="#000000" d="M65 -144V-141Q62 -143 55 -144Q43 -146 40 -150V-159Q42 -160 46 -160Q63 -158 65 -144ZM850 -259Q847 -262 847 -271Q847 -288 857 -288Q859 -288 863 -286Q864 -284 864 -281Q864 -273 850 -259ZM830 -371H833Q834 -368 834 -361Q834 -345 827 -338Q820 -345 820 -358Q820 -371 830 -371ZM917 -28V-23Q917 -10 905 10Q895 27 893 34Q885 41 875 59Q847 62 830 75Q803 69 770 66Q677 -86 655 -119Q590 -218 526 -289H519Q495 -288 481 -270Q468 -253 455 -233Q428 -196 406 -156Q385 -117 360 -76Q328 -24 308 31Q306 30 301 30Q282 34 262 38Q257 38 255 37Q247 36 245 30Q243 24 239 19Q229 11 218 3Q214 0 206 -12Q197 -25 190 -29Q187 -52 172 -63Q157 -73 144 -85Q160 -81 190 -75Q170 -96 137 -108Q104 -120 76 -136Q94 -136 139 -119Q188 -101 201 -101H207Q223 -102 248 -125Q266 -142 280 -161Q314 -205 335 -238H334Q321 -238 301 -250Q281 -262 270 -262Q259 -267 253 -278Q253 -314 261 -326Q266 -332 271 -338Q274 -351 276 -365Q281 -377 293 -383Q305 -389 317 -394Q328 -390 340 -390Q360 -390 402 -406Q433 -418 449 -421V-428Q449 -434 456 -455Q450 -471 446 -488H443Q410 -484 382 -470Q348 -462 321 -449Q307 -438 293 -422Q280 -406 264 -404Q247 -404 223 -425Q203 -442 190 -445Q163 -450 152 -459Q137 -471 136 -495Q136 -504 144 -522Q151 -538 153 -548Q154 -552 154 -556Q154 -565 153 -574Q153 -580 154 -583Q157 -591 171 -602Q179 -608 194 -619Q215 -638 237 -650L240 -648Q237 -643 234 -638V-637Q253 -650 273 -666Q294 -683 323 -689Q310 -677 294 -668Q278 -660 274 -640Q292 -635 307 -635Q328 -635 398 -652Q529 -688 659 -725H662Q666 -724 669 -724Q674 -727 678 -731Q706 -735 726 -746Q746 -758 766 -770Q776 -755 782 -754Q810 -766 840 -773H841L843 -770Q833 -765 823 -759Q813 -754 812 -742V-739Q814 -738 817 -738Q827 -742 838 -746H841Q828 -738 827 -723Q827 -712 838 -712Q841 -712 844 -713L845 -711Q841 -704 837 -698Q833 -690 831 -659Q832 -655 834 -655Q838 -656 842 -657L844 -656V-650Q845 -638 845 -627Q845 -620 844 -617Q843 -609 831 -596Q819 -583 818 -574Q671 -558 573 -520Q593 -496 604 -475Q599 -461 597 -457Q626 -465 656 -474Q686 -483 708 -499Q711 -493 711 -481Q721 -482 737 -488Q752 -494 758 -494Q761 -493 764 -493Q761 -488 744 -477Q729 -468 729 -457Q730 -454 730 -452H732Q735 -452 739 -455Q745 -459 749 -459Q752 -459 754 -458Q744 -447 741 -428V-426Q743 -423 744 -423Q747 -423 749 -424H751V-423Q747 -413 743 -404V-401Q745 -385 746 -370Q746 -360 742 -352Q741 -351 737 -347Q732 -343 732 -339L733 -335Q665 -333 639 -325Q687 -267 739 -210Q751 -196 763 -184Q775 -172 792 -166Q800 -171 802 -194Q804 -219 812 -223Q812 -166 827 -148Q828 -158 828 -178Q827 -228 825 -278Q825 -305 827 -319Q833 -298 837 -240Q842 -162 857 -135Q854 -198 854 -201Q854 -224 857 -245Q865 -207 870 -157Q874 -106 899 -87V-83Q899 -72 909 -52Q916 -37 917 -28Z"/>
</svg>