<svg xmlns="http://www.w3.org/2000/svg" viewBox="0 -800 1024 1024">
	<path fill="#000000" d="M45 -454V-451Q28 -453 28 -467Q28 -470 29 -472Q45 -472 45 -454ZM911 -628V-626Q912 -622 913 -619Q903 -613 892 -608Q891 -610 891 -614Q892 -627 907 -628ZM286 -302L285 -303V-304Q291 -319 294 -334V-337Q240 -315 224 -282Q232 -257 236 -229Q240 -201 245 -172Q261 -176 280 -185Q280 -204 286 -244Q291 -277 291 -301L290 -303ZM714 22V21Q716 16 719 13Q718 11 714 9Q709 6 708 3Q720 0 732 -3Q753 -41 770 -84Q786 -127 804 -169Q794 -174 779 -174Q761 -174 754 -167Q768 -151 768 -133Q750 -114 738 -77Q732 -58 720 -6Q702 4 680 10Q680 7 674 -10H671Q668 -8 664 -7Q666 -42 671 -72Q675 -97 678 -123Q678 -142 668 -148Q665 -146 653 -144Q643 -143 639 -139Q646 -124 652 -109Q642 -93 642 -56Q643 -34 643 -13Q633 -7 630 -1H608Q603 2 597 17Q592 3 591 -16Q590 -34 588 -52Q586 -79 563 -85Q560 -53 557 -21V-15Q561 4 565 22V25Q555 49 530 63Q525 55 516 51Q514 51 512 56Q495 28 474 25Q477 18 485 8Q473 -28 449 -67Q436 -87 421 -106Q406 -126 405 -154Q405 -163 408 -175Q411 -187 420 -196Q430 -204 437 -214V-222Q435 -243 433 -265V-269Q437 -264 441 -253Q447 -237 452 -233Q457 -233 462 -234Q516 -231 535 -190Q553 -193 572 -195Q591 -198 602 -210Q586 -208 577 -208Q544 -208 532 -230Q529 -239 525 -248Q519 -253 512 -259Q509 -264 507 -271Q505 -278 499 -279H497V-280Q497 -283 500 -283Q502 -283 503 -286Q499 -288 496 -288Q490 -287 483 -286V-287Q484 -293 491 -297Q498 -302 504 -308Q510 -317 515 -326Q511 -328 510 -328Q506 -328 501 -319H499Q466 -319 448 -345Q432 -368 432 -403V-412Q420 -404 413 -381Q412 -376 403 -332Q386 -247 386 -192V-175Q388 -155 390 -136Q390 -131 389 -127Q382 -81 366 -46H362Q345 -46 331 -37Q330 -38 313 -47Q302 -53 301 -64Q256 -43 247 -1Q237 1 233 1Q206 0 189 -18Q172 -36 158 -53H156Q154 -52 151 -52L150 -53Q152 -60 152 -74Q152 -105 126 -164Q116 -185 107 -205Q98 -225 86 -239Q71 -252 54 -265Q37 -277 33 -295V-299Q38 -322 42 -345V-348Q42 -353 41 -358Q43 -368 50 -382Q62 -406 62 -418Q62 -425 57 -437Q60 -437 64 -432Q68 -427 70 -427Q72 -427 75 -430Q69 -459 57 -489Q63 -485 73 -470Q85 -453 95 -448Q97 -456 97 -458Q97 -471 82 -492Q69 -511 66 -521L68 -522Q71 -522 73 -518Q75 -515 77 -512Q115 -467 143 -452Q144 -454 149 -454H155Q171 -423 187 -414Q222 -448 257 -481Q293 -514 321 -555Q354 -563 397 -589Q396 -586 396 -580Q396 -556 420 -549H421Q423 -549 423 -552Q423 -555 426 -555H427V-552Q427 -517 457 -514Q452 -506 452 -498Q452 -490 457 -486Q470 -502 498 -545Q523 -585 541 -605Q545 -599 545 -589Q574 -563 577 -512H582Q596 -513 609 -515Q604 -532 601 -563Q596 -610 587 -632Q583 -642 565 -663Q549 -682 548 -694V-697Q548 -714 575 -749Q594 -776 601 -782Q616 -796 639 -796H648Q662 -786 678 -779Q693 -772 704 -759Q724 -731 729 -703V-700Q726 -682 717 -662Q695 -576 694 -530Q697 -528 705 -528Q726 -530 746 -533H751Q749 -547 747 -562V-568Q747 -570 751 -572Q755 -575 755 -579L754 -583Q769 -587 781 -595Q784 -594 809 -583Q821 -591 836 -596Q831 -593 831 -580Q831 -559 840 -558Q846 -558 862 -576Q880 -596 887 -596H888Q883 -588 874 -577Q866 -566 865 -554Q865 -545 873 -538Q883 -545 892 -552Q890 -542 887 -532Q887 -525 892 -523Q902 -527 915 -535Q937 -549 950 -552Q943 -543 929 -533Q916 -522 914 -508Q914 -503 917 -497Q925 -509 944 -512H948Q946 -508 938 -502Q927 -494 925 -486Q925 -482 924 -479Q928 -452 948 -446Q943 -438 943 -426Q943 -417 947 -403Q939 -396 939 -381Q939 -365 944 -353Q935 -363 921 -363Q898 -363 882 -349Q879 -353 879 -356Q879 -359 880 -361Q859 -367 842 -383Q825 -400 807 -415Q800 -420 789 -420H780Q687 -414 650 -407Q579 -393 556 -357Q554 -358 549 -358Q542 -358 537 -352Q534 -348 530 -340Q534 -344 547 -346Q560 -349 565 -355Q568 -354 573 -354Q580 -354 599 -365Q621 -369 643 -374Q705 -391 771 -406V-404Q770 -397 769 -390Q769 -385 772 -382Q777 -382 784 -386Q793 -391 800 -391H804Q788 -380 788 -371Q788 -368 793 -361Q799 -363 804 -365H807Q803 -361 803 -349Q803 -332 809 -332Q809 -329 805 -321Q799 -310 799 -301Q799 -295 800 -292Q786 -276 786 -262V-259Q764 -256 739 -256Q713 -255 695 -248Q690 -234 685 -220H692Q722 -220 762 -229Q797 -238 830 -253Q834 -254 867 -260Q890 -264 901 -274V-273Q899 -267 896 -261Q896 -258 898 -256Q904 -257 909 -266Q915 -276 924 -276H928Q915 -263 913 -239Q913 -224 927 -224Q934 -224 939 -226Q937 -217 935 -208Q949 -185 959 -158Q950 -147 948 -125Q898 -104 880 -49Q862 7 851 71Q833 74 823 84Q812 93 801 103Q789 91 773 87Q768 87 762 90Q747 75 732 60Q725 33 714 22Z"/>
</svg>