<svg xmlns="http://www.w3.org/2000/svg" viewBox="0 -800 1024 1024">
	<path fill="#000000" d="M939 -41V-46Q944 -48 954 -48Q964 -48 968 -46Q958 -35 941 -34Q939 -35 939 -41ZM935 -287V-280Q913 -267 910 -265Q915 -280 917 -283Q923 -292 934 -292Q935 -291 935 -287ZM587 -409H583Q571 -409 571 -394Q571 -386 574 -380Q588 -380 598 -383Q587 -407 587 -409ZM688 -445H685Q678 -443 671 -442Q666 -432 666 -420Q666 -409 671 -404Q682 -407 684 -420Q686 -432 688 -445ZM777 -467Q774 -468 769 -468Q758 -468 751 -458Q744 -448 744 -435Q744 -425 747 -416Q754 -422 763 -443Q770 -460 777 -467ZM692 -535Q693 -542 693 -555Q693 -571 691 -578Q661 -578 648 -557Q653 -551 657 -541Q662 -529 664 -526Q677 -528 692 -535ZM286 -181Q301 -202 312 -229Q332 -271 332 -292Q332 -302 329 -313Q332 -318 334 -323L332 -325Q308 -304 286 -268Q274 -249 250 -200Q253 -199 286 -181ZM916 23H915Q904 22 893 21Q882 21 879 31Q878 33 878 37Q879 49 887 60Q895 70 902 78Q896 77 882 65Q865 50 855 50Q845 50 837 59Q795 29 753 -1Q745 -17 735 -32Q724 -46 723 -61V-64Q726 -84 736 -94Q743 -101 753 -101Q769 -99 784 -98Q790 -99 796 -101H797Q808 -98 819 -96Q821 -96 827 -98Q831 -94 845 -86Q850 -87 853 -93Q857 -101 863 -101H864Q864 -92 863 -83Q863 -74 867 -70Q884 -74 906 -85Q933 -98 945 -101Q936 -90 915 -74Q893 -58 885 -47Q887 -38 893 -32Q905 -35 917 -39Q922 -39 925 -37Q911 -36 904 -28Q897 -20 897 -9Q897 15 916 23ZM698 79V81Q686 98 670 114Q638 99 634 96Q616 82 608 41Q598 -15 593 -26L595 -27Q598 -27 603 -21Q608 -16 611 -16L614 -17Q620 -18 620 -24Q620 -30 621 -35Q626 -55 626 -79Q626 -96 624 -104Q581 -100 537 -79Q581 -40 581 -5Q581 11 569 26H559Q545 26 538 34Q520 22 505 22Q496 22 488 28V26Q488 18 500 14Q491 -3 473 -20Q478 -25 478 -31Q478 -36 473 -40Q478 -44 483 -49Q476 -58 463 -58Q454 -74 441 -89Q441 -94 440 -99Q441 -113 442 -127Q433 -118 433 -98Q433 -80 442 -76Q437 -65 430 -20Q417 -16 402 -13Q388 -9 381 3Q369 -6 358 -17Q346 -27 329 -32Q307 -18 289 27Q269 77 256 91H250Q238 90 226 88H223Q213 71 201 55Q190 38 165 34V26Q99 -5 70 -32Q120 -9 171 9Q167 -3 139 -16Q116 -27 109 -34Q146 -28 183 -22Q180 -34 174 -43Q191 -46 204 -58Q210 -63 224 -82Q216 -84 211 -84Q189 -81 162 -70Q144 -73 134 -88Q127 -98 121 -125Q114 -146 111 -168Q111 -173 113 -181Q115 -184 132 -204Q159 -238 185 -272H179Q160 -272 128 -251Q105 -236 93 -233Q90 -232 84 -232Q48 -235 44 -286Q37 -293 27 -302Q17 -311 14 -325Q13 -329 13 -338Q13 -363 27 -377Q18 -393 18 -407Q21 -437 47 -458Q74 -479 94 -496Q104 -499 121 -513Q134 -524 141 -526Q143 -524 143 -521Q139 -513 131 -509Q110 -488 102 -457Q105 -456 112 -456Q137 -459 162 -469Q194 -476 220 -489Q224 -487 226 -487Q231 -490 242 -493V-500Q241 -528 217 -538Q222 -555 227 -571Q232 -588 244 -598Q240 -613 236 -629Q240 -629 245 -621Q248 -615 252 -615Q255 -615 257 -616Q257 -625 248 -642Q240 -656 239 -665Q249 -658 259 -645Q268 -633 281 -632Q287 -632 291 -635Q289 -657 286 -667Q300 -646 324 -635Q348 -625 368 -610V-607Q368 -590 376 -566Q383 -544 384 -532Q421 -544 458 -557Q458 -553 457 -549V-547Q469 -535 476 -519Q484 -503 492 -488Q490 -480 488 -472V-470Q505 -476 533 -481Q574 -489 587 -497V-502Q587 -511 584 -520Q572 -512 560 -505Q509 -521 486 -557Q487 -561 487 -568Q487 -578 481 -597Q477 -611 476 -620V-628Q476 -682 528 -716L527 -712Q527 -711 532 -701Q585 -709 670 -743Q762 -780 821 -787V-778Q826 -778 837 -784Q847 -789 855 -789Q860 -789 863 -788Q853 -783 844 -778Q834 -773 833 -761L835 -760Q837 -760 839 -763Q843 -768 845 -768H846L849 -767Q847 -764 845 -762V-761Q847 -750 849 -739Q855 -739 861 -745Q858 -738 858 -722Q859 -704 859 -687Q859 -672 857 -665Q855 -656 846 -644Q837 -632 836 -626L834 -625L830 -626H828V-616Q818 -618 812 -618Q788 -618 777 -607Q788 -592 788 -578Q788 -573 784 -563Q797 -565 824 -581Q860 -602 880 -602Q893 -602 907 -595Q915 -601 923 -604V-603Q921 -598 919 -593Q937 -611 954 -629Q954 -623 949 -614Q942 -601 942 -593V-590L943 -589Q947 -592 950 -595H951Q949 -589 949 -584Q949 -574 954 -569L957 -568Q961 -568 962 -571L961 -566Q961 -548 981 -544Q975 -537 975 -525Q976 -515 976 -506Q976 -502 974 -494Q969 -481 957 -470Q945 -459 934 -449Q891 -400 878 -380Q850 -339 840 -296L836 -295H830Q829 -288 828 -282H823Q798 -282 776 -302Q761 -316 744 -343Q741 -344 734 -344Q717 -344 707 -337H696Q608 -337 577 -298H579Q608 -302 637 -316Q676 -328 704 -332Q708 -331 711 -327Q714 -323 716 -322H718Q723 -323 728 -325Q726 -322 724 -320L726 -317H728Q732 -317 735 -321Q738 -325 742 -325H745Q740 -316 737 -301Q737 -294 742 -290Q750 -292 757 -295Q751 -288 745 -265Q739 -241 731 -233H728Q689 -232 659 -217Q628 -202 600 -187Q585 -191 568 -202Q548 -215 545 -227Q544 -230 544 -237Q547 -260 556 -280Q555 -284 552 -284L548 -283Q546 -283 544 -286Q540 -286 540 -281L541 -279Q518 -283 503 -294Q485 -308 479 -331Q457 -339 445 -367Q421 -357 397 -348Q403 -347 413 -341Q423 -335 429 -335Q435 -330 439 -323Q445 -327 450 -332L452 -330Q450 -326 447 -322Q446 -317 446 -309Q451 -274 455 -239V-232Q430 -222 409 -195Q402 -186 377 -144Q378 -136 386 -133Q393 -131 400 -127Q406 -131 416 -146Q430 -166 443 -171Q423 -153 423 -129Q423 -122 424 -119Q434 -126 444 -133V-135Q444 -165 467 -179Q475 -184 516 -196L517 -194Q517 -192 510 -186Q502 -179 501 -175Q514 -170 532 -170Q552 -170 590 -179Q623 -187 636 -188H637Q641 -187 645 -187H646Q674 -193 701 -200Q711 -203 757 -213Q786 -223 813 -236Q840 -249 874 -250H875Q877 -250 877 -245Q892 -254 910 -260Q894 -247 890 -232H894Q912 -233 931 -239Q919 -233 916 -231Q908 -226 907 -218Q908 -212 915 -212L922 -213Q913 -208 913 -189Q913 -175 917 -170Q907 -148 902 -119Q898 -121 896 -121Q888 -121 888 -109Q875 -109 852 -117Q832 -124 821 -125Q813 -126 795 -126Q749 -126 694 -115Q692 -78 690 -42Q691 -31 691 -20Q696 15 700 49Q700 59 697 68L696 71Q697 75 698 79Z"/>
</svg>