<svg xmlns="http://www.w3.org/2000/svg" viewBox="0 -800 1024 1024">
	<path fill="#000000" d="M282 -191Q280 -231 278 -272Q242 -234 242 -201Q242 -190 248 -178Q241 -173 239 -151Q237 -137 234 -131Q241 -120 251 -92H252Q263 -97 275 -106Q278 -121 278 -142Q278 -151 277 -161Q279 -166 281 -172Q282 -178 282 -191ZM948 -135Q947 -116 921 -112Q923 -136 940 -136Q945 -136 948 -135ZM775 -530Q779 -522 782 -511Q785 -500 796 -499Q791 -494 791 -482Q791 -467 797 -460Q764 -422 741 -172Q747 -182 752 -193Q787 -284 815 -378Q809 -386 796 -381Q786 -376 775 -372L772 -371Q794 -397 810 -424Q826 -452 861 -470Q868 -466 874 -465L877 -466Q883 -468 889 -471L893 -472Q893 -468 894 -466Q898 -453 914 -457Q931 -466 948 -475H949Q942 -464 942 -450L944 -445L947 -444Q951 -446 955 -449H958Q960 -424 968 -391Q976 -358 970 -334Q956 -327 941 -320L900 -288Q898 -272 889 -261Q880 -249 870 -238Q855 -220 841 -203Q827 -186 820 -164Q801 -171 785 -166Q779 -164 777 -163Q775 -161 769 -154Q764 -147 758 -145L756 -144L755 -147Q754 -150 756 -157Q759 -167 757 -172Q751 -169 746 -158Q743 -150 739 -147Q734 -93 734 -88Q746 -93 777 -95Q807 -97 819 -101Q829 -105 838 -119Q845 -131 849 -134Q847 -128 847 -126Q847 -113 856 -109Q871 -116 889 -139Q904 -159 912 -164Q890 -127 881 -104Q884 -97 891 -97Q902 -97 909 -107Q909 -88 924 -78Q929 -80 937 -88Q947 -97 952 -98Q947 -89 941 -81Q936 -72 935 -60V-56Q936 -51 943 -43Q951 -34 951 -30V-27Q951 -19 935 23Q925 53 914 69Q902 64 888 62Q881 62 877 69Q875 65 864 63Q851 61 850 54L822 61Q797 58 769 58Q719 58 653 69V68Q653 65 647 63L606 70Q605 76 603 82Q549 97 510 128Q499 124 466 102Q453 95 438 87Q422 79 419 64V60Q419 52 427 31Q434 13 434 3V0Q434 -5 426 -14Q419 -23 419 -29V-30Q429 -25 439 -17V-21Q439 -28 428 -41Q418 -53 416 -61Q429 -56 456 -40Q467 -45 478 -50Q482 -50 485 -51Q504 -47 523 -43H529Q546 -43 561 -49Q559 -104 556 -159Q553 -153 550 -147L543 -132Q532 -111 523 -107Q502 -96 478 -109L476 -110Q470 -113 450 -133Q449 -134 447 -136L444 -137Q438 -141 438 -145L435 -158Q407 -170 402 -234H401Q376 -109 376 -72Q378 -61 379 -50V-47Q374 -26 369 -4Q369 1 370 4Q360 8 353 20Q340 17 328 13Q316 9 311 -2H308Q293 -1 288 11Q283 25 274 36Q272 38 265 40Q259 42 254 48Q204 44 180 20Q180 9 174 4Q168 -2 163 -8Q166 -14 166 -20Q162 -37 157 -55V-59L142 -90Q134 -90 129 -97Q126 -102 123 -113Q120 -117 110 -122Q97 -129 93 -137H90Q81 -137 68 -146Q56 -154 46 -155Q39 -188 28 -209V-225Q28 -230 30 -244Q38 -250 39 -265V-267Q41 -269 43 -271V-272Q69 -339 76 -422Q80 -456 93 -464Q96 -462 96 -457Q94 -446 91 -435Q85 -409 85 -384Q85 -360 92 -350Q96 -355 98 -381Q99 -403 113 -404V-397Q112 -381 110 -365Q110 -354 117 -350Q119 -351 119 -356V-363Q119 -368 122 -368H123Q126 -368 126 -365Q126 -360 125 -355L126 -351Q130 -339 145 -320Q150 -323 155 -323Q168 -323 175 -314Q187 -323 201 -347Q219 -377 233 -385Q256 -433 286 -492Q299 -500 308 -511Q331 -511 353 -517Q361 -520 369 -534Q378 -549 388 -551Q382 -542 382 -533Q385 -509 409 -501H410Q414 -501 416 -505Q419 -509 422 -509Q422 -498 424 -494Q439 -478 454 -461Q469 -444 471 -416Q452 -386 433 -359Q426 -343 410 -277Q425 -283 434 -302Q440 -316 443 -334Q447 -329 449 -317Q451 -305 456 -300Q460 -301 461 -304Q462 -311 463 -318L464 -319H466Q472 -312 476 -304Q493 -305 512 -295L520 -291Q524 -267 528 -244Q528 -236 527 -228Q528 -220 537 -201Q545 -184 546 -173Q549 -172 556 -172Q547 -395 521 -432Q511 -426 505 -425Q483 -441 469 -464Q452 -492 452 -521Q452 -531 460 -548Q467 -563 468 -569V-575Q468 -587 467 -599Q467 -607 468 -611Q472 -665 525 -705V-703Q521 -689 517 -668L519 -667Q521 -667 526 -677Q528 -668 535 -665Q551 -669 564 -671L591 -675Q592 -687 602 -692Q612 -697 621 -701Q639 -710 702 -731Q748 -746 768 -755Q771 -754 777 -754Q793 -754 816 -767Q839 -780 853 -780H854Q839 -770 835 -765Q826 -755 826 -739Q827 -734 827 -730Q836 -721 851 -721Q848 -717 848 -704V-691Q848 -682 847 -677L849 -676Q851 -676 855 -680Q860 -686 864 -686H865Q858 -678 851 -671Q853 -662 854 -651Q854 -640 860 -633Q858 -627 856 -621Q863 -595 863 -594Q863 -588 860 -581Q836 -570 827 -542H821Q801 -542 775 -530ZM676 -75Q677 -87 677 -112Q677 -241 676 -371Q676 -400 677 -414Q679 -440 679 -453Q679 -478 671 -493L666 -491Q653 -487 640 -483Q650 -473 654 -464Q656 -422 664 -414Q661 -399 657 -358Q652 -318 644 -288L650 -215Q644 -181 638 -69Q652 -72 658 -72Q666 -73 676 -75Z"/>
</svg>