<svg xmlns="http://www.w3.org/2000/svg" viewBox="0 -800 1024 1024">
	<path fill="#000000" d="M404 28H400Q390 27 379 26V20Q385 18 388 18Q402 18 404 28ZM248 -643Q244 -641 241 -641Q231 -643 221 -646Q222 -652 230 -652Q241 -652 248 -643ZM869 -351V-348Q869 -341 863 -338Q858 -335 853 -332Q852 -334 852 -338Q852 -351 867 -351ZM566 -383Q536 -371 504 -361Q471 -351 456 -322Q459 -321 464 -321Q471 -321 498 -331Q526 -341 545 -342Q560 -361 566 -383ZM787 -675V-671Q775 -673 770 -673Q740 -673 713 -656Q709 -654 697 -641Q683 -626 678 -625H677Q674 -625 665 -631Q655 -638 650 -638H649Q643 -636 637 -634H635Q638 -638 640 -643V-646Q638 -648 635 -650Q626 -650 621 -645Q616 -641 610 -638Q610 -643 615 -647Q618 -650 619 -652Q609 -651 596 -643Q586 -636 579 -635Q605 -658 610 -662Q628 -679 640 -697Q667 -731 667 -750Q667 -757 662 -767Q674 -771 691 -787Q704 -799 710 -802H715Q729 -800 743 -799Q748 -799 751 -800Q756 -798 761 -796H764Q772 -798 780 -801Q781 -801 785 -799Q782 -791 778 -784Q780 -776 794 -765Q803 -758 807 -752Q805 -749 805 -742Q806 -731 807 -721V-719Q806 -712 797 -699Q787 -685 787 -675ZM923 -635V-604Q928 -598 932 -592Q935 -577 935 -562Q935 -530 917 -506Q904 -506 899 -499Q886 -503 870 -503Q805 -503 749 -420Q745 -422 744 -428Q743 -433 742 -439Q740 -443 729 -449Q716 -457 714 -466H713Q710 -464 706 -463H704V-464Q707 -475 716 -487Q700 -485 689 -480Q709 -508 733 -533H729Q667 -529 613 -508Q513 -477 456 -453Q371 -417 314 -373Q316 -369 316 -363Q315 -354 313 -345Q314 -342 314 -340Q297 -326 275 -322Q267 -322 259 -326Q256 -325 251 -325Q237 -328 219 -334Q194 -337 184 -349H182Q181 -349 178 -346Q175 -342 171 -342Q172 -343 172 -347V-354Q162 -362 139 -373Q113 -385 102 -391Q60 -414 60 -453Q61 -458 61 -464Q61 -468 57 -471Q54 -473 54 -476V-477Q64 -481 74 -500Q84 -520 95 -523V-528Q94 -538 92 -548V-550Q99 -549 102 -544Q105 -539 110 -536Q116 -541 128 -541H148Q152 -542 155 -548Q158 -554 163 -555Q163 -543 166 -536Q183 -529 212 -505Q231 -489 245 -481Q262 -487 281 -495Q299 -504 317 -506Q322 -512 329 -515H342Q354 -526 369 -527Q358 -544 338 -544Q335 -544 327 -542Q329 -548 335 -552Q329 -561 329 -562Q304 -561 277 -536L276 -540Q276 -549 290 -560Q303 -570 303 -577Q303 -582 299 -587H293Q278 -587 252 -577Q231 -569 222 -569H218Q229 -577 251 -586Q284 -599 293 -611Q290 -625 278 -630Q266 -635 255 -641Q257 -643 263 -643H275Q280 -655 284 -666Q289 -678 301 -682Q298 -692 295 -702V-706H296Q300 -706 305 -698Q311 -689 314 -688Q336 -692 346 -696Q362 -703 366 -715Q367 -698 376 -688Q385 -679 395 -671Q401 -673 407 -676H409Q406 -667 406 -665Q411 -650 422 -639Q432 -629 443 -619Q447 -583 455 -574Q452 -564 449 -555Q456 -556 464 -560Q476 -566 483 -566Q477 -637 473 -659Q463 -707 439 -727Q434 -727 428 -728H425V-732Q428 -740 430 -748Q447 -762 461 -780Q474 -797 496 -806H502Q532 -803 545 -785Q559 -768 585 -764V-756Q587 -726 597 -704Q564 -670 564 -593Q642 -614 720 -635Q750 -639 779 -644Q796 -650 813 -656Q826 -658 844 -658Q862 -659 875 -667Q878 -666 881 -661Q884 -656 887 -655Q893 -656 901 -666Q909 -675 917 -677Q903 -657 903 -644Q903 -634 911 -629H912Q917 -632 921 -635ZM853 -219V-213Q853 -202 864 -182Q856 -178 856 -166Q855 -155 853 -144Q843 -145 838 -147Q817 -136 790 -117Q763 -99 761 -70Q750 -64 731 -42Q712 -19 696 -12Q683 -20 678 -20Q674 -20 672 -19Q658 -28 644 -37H642Q638 -33 633 -30L631 -31V-33Q632 -36 632 -39L631 -41Q625 -45 618 -47V-50Q618 -71 607 -86Q601 -94 582 -109Q582 -112 585 -112Q591 -110 596 -109H597Q590 -117 581 -123Q571 -130 570 -139Q588 -130 605 -127H609Q620 -133 631 -148Q642 -159 653 -171Q663 -183 668 -199Q618 -199 588 -190Q558 -181 558 -100Q558 -94 561 -40Q562 -28 571 -4Q576 11 578 20V22Q577 29 576 35Q579 48 581 60Q579 77 561 96Q545 113 541 124Q523 118 504 115H501Q499 107 492 104Q486 101 480 96Q474 90 470 77Q466 66 463 62Q453 48 441 44Q428 40 412 32Q415 29 420 29Q433 32 446 35Q391 12 338 -7Q355 -7 390 2Q428 12 448 12H458Q453 6 436 3Q420 0 416 -3Q435 -4 452 -6Q469 -8 478 -23Q483 -90 487 -160Q435 -148 419 -123Q423 -92 427 -84Q424 -68 417 -55Q410 -43 404 -29Q395 -32 384 -32H365Q352 -32 347 -34Q341 -36 330 -45Q318 -55 311 -58Q295 -62 277 -64Q269 -71 264 -79Q252 -89 240 -100Q232 -114 229 -130Q226 -145 212 -151Q229 -167 233 -187V-188Q233 -195 228 -208Q222 -223 222 -231V-236Q227 -234 234 -222Q242 -209 251 -207Q255 -210 255 -212Q252 -220 248 -229V-230Q254 -229 261 -225Q267 -221 271 -221Q276 -221 287 -229Q298 -237 307 -239H310Q324 -237 337 -236H341Q350 -224 372 -202Q386 -204 416 -213Q451 -223 471 -224V-228Q471 -248 487 -261Q503 -274 523 -274Q536 -274 546 -268V-269Q546 -272 540 -275Q531 -280 531 -286L532 -289Q496 -282 481 -268Q472 -258 463 -242Q455 -226 442 -224H439Q424 -225 410 -238Q396 -250 387 -259Q380 -263 373 -268Q371 -271 366 -282Q361 -294 356 -298V-307Q338 -327 338 -357V-365Q350 -380 357 -386Q368 -395 381 -395H382Q390 -393 397 -392Q405 -393 425 -403Q441 -411 448 -414Q524 -445 546 -455Q571 -472 591 -481Q595 -482 608 -482Q658 -482 672 -472Q679 -463 687 -449H688Q693 -450 698 -452H701V-451Q700 -445 698 -439Q698 -434 702 -433H703Q707 -433 712 -438Q717 -443 722 -443H723L724 -440Q721 -434 716 -428Q719 -416 725 -402Q731 -389 732 -373Q732 -363 730 -358Q727 -349 720 -343Q713 -345 713 -346Q618 -324 581 -253Q571 -258 560 -262L559 -259Q559 -256 567 -248Q679 -263 737 -301Q742 -303 751 -303Q765 -302 778 -301H781Q786 -301 793 -305Q800 -310 805 -310L808 -308Q807 -304 805 -300V-299Q815 -301 827 -313Q839 -324 849 -326V-324Q845 -317 832 -307Q823 -294 823 -282Q823 -278 825 -270Q829 -270 834 -276Q839 -282 842 -282H844Q835 -269 832 -254Q832 -246 840 -235Q845 -228 853 -219Z"/>
</svg>