<svg xmlns="http://www.w3.org/2000/svg" viewBox="0 -800 1024 1024">
	<path fill="#000000" d="M272 -314L269 -315Q252 -305 230 -285Q204 -262 203 -249Q203 -246 202 -243Q206 -219 214 -196Q215 -193 229 -147Q252 -167 257 -179Q266 -199 266 -251Q266 -298 272 -314ZM948 -144H949Q947 -136 946 -128Q944 -120 938 -117Q935 -120 935 -125Q935 -132 942 -146H944Q946 -145 948 -144ZM924 -340Q924 -342 920 -342Q920 -344 919 -347Q919 -356 932 -363Q936 -360 936 -356Q935 -343 924 -340ZM595 -289V-301Q558 -293 531 -279V-276Q531 -271 535 -265Q545 -266 561 -277Q578 -289 595 -289ZM589 -138V-144Q547 -141 541 -108Q544 -107 546 -107Q565 -110 582 -117Q589 -124 589 -138ZM549 -205V-203Q548 -195 547 -188Q547 -184 549 -183Q572 -191 594 -199Q593 -201 593 -206Q594 -213 595 -221Q595 -225 592 -228Q571 -216 549 -205ZM652 -493V-495Q652 -500 656 -504Q660 -508 660 -511V-514H657Q628 -514 603 -502Q576 -489 575 -472Q611 -485 652 -493ZM687 -576Q697 -590 707 -636Q668 -628 635 -606Q602 -584 572 -561Q574 -560 574 -555Q574 -550 578 -549Q594 -558 625 -570Q657 -582 672 -591Q672 -576 687 -576ZM682 -57Q684 -51 686 -49Q692 -52 698 -62Q703 -69 706 -72Q696 -85 696 -105Q696 -119 702 -129Q708 -139 719 -139Q728 -139 739 -129Q753 -151 767 -174Q737 -162 707 -150Q688 -151 677 -166Q672 -172 662 -196Q654 -182 654 -167Q653 -151 652 -128Q660 -128 668 -133Q679 -139 691 -140Q690 -136 686 -133Q681 -129 681 -126V-125Q683 -120 688 -120H691Q690 -116 686 -112Q680 -106 680 -103Q683 -93 689 -93Q682 -81 684 -71Q685 -61 686 -58ZM675 -54Q651 -43 644 -43L653 -24Q656 -14 659 -4V-1Q659 35 630 72Q606 67 590 48Q578 35 566 8L572 -15Q547 -10 523 0Q492 13 478 30Q472 30 464 32Q453 46 443 61Q433 77 414 78H408Q403 77 394 69Q386 62 379 60Q367 57 358 54Q348 51 344 38V34Q345 26 345 18Q341 -7 337 -32Q338 -36 338 -40Q343 -49 352 -56Q361 -62 370 -69Q379 -76 391 -89Q407 -106 415 -111V-110Q415 -107 408 -96Q399 -82 399 -74Q399 -68 402 -64Q417 -68 440 -73Q463 -79 479 -88Q481 -102 483 -117L482 -157Q476 -167 471 -190Q465 -220 456 -228Q454 -227 449 -227Q439 -227 426 -238Q412 -250 400 -250Q397 -249 393 -249Q378 -259 378 -288Q378 -305 385 -313Q382 -319 382 -327Q382 -338 386 -343Q391 -353 400 -361Q411 -371 422 -371Q427 -373 432 -376H433Q447 -369 460 -369Q482 -371 503 -374Q510 -374 518 -372L572 -384Q606 -405 714 -426Q695 -437 665 -437Q655 -437 650 -436Q608 -431 576 -411Q569 -407 560 -398Q544 -382 537 -382H533Q516 -383 503 -394Q490 -406 478 -413Q466 -441 459 -474Q452 -508 424 -522Q399 -548 399 -604Q399 -636 406 -675H407Q411 -675 413 -671Q415 -667 416 -667Q422 -671 422 -680Q418 -697 413 -719Q413 -724 416 -730Q423 -718 429 -705Q436 -693 447 -684Q457 -688 466 -693H472Q498 -693 523 -668Q544 -677 564 -686Q575 -696 591 -699Q689 -736 702 -742H704Q708 -743 711 -744H714Q721 -749 728 -761Q736 -775 744 -780Q752 -785 766 -785Q796 -785 833 -765Q839 -766 845 -768Q844 -764 844 -758Q844 -752 848 -752Q859 -756 873 -765L874 -763Q874 -761 869 -754Q861 -743 861 -738V-736Q861 -728 873 -726H874Q880 -726 887 -733Q896 -742 904 -742H907Q888 -724 888 -702Q888 -693 891 -681Q900 -665 904 -640Q904 -636 902 -628Q882 -597 853 -589L821 -564Q785 -518 771 -445Q774 -447 786 -450Q802 -454 806 -460Q812 -460 817 -461Q821 -461 823 -460Q838 -470 848 -483Q854 -474 862 -468Q873 -470 883 -473L886 -472V-471Q886 -468 883 -468Q879 -467 879 -464V-463Q881 -458 887 -456Q893 -455 899 -453Q905 -457 912 -459H916L917 -457Q915 -454 913 -451Q918 -452 923 -454L926 -453Q916 -444 916 -421V-402Q916 -383 910 -373H908Q901 -373 881 -365Q864 -358 853 -357Q848 -356 840 -356Q827 -356 813 -357H808Q806 -357 741 -345Q689 -335 659 -322Q668 -314 670 -298Q671 -282 672 -265Q683 -267 699 -275Q719 -285 737 -286Q740 -290 743 -294Q753 -296 783 -310Q825 -330 850 -330Q867 -330 880 -324Q886 -327 892 -330H895Q894 -323 892 -316Q898 -318 904 -325Q911 -333 917 -334Q916 -328 911 -319Q905 -309 905 -304V-300L907 -298Q910 -300 912 -302L914 -301Q913 -297 913 -289Q913 -269 924 -262V-259Q923 -248 921 -238Q923 -233 924 -229Q910 -215 907 -196Q868 -190 841 -160Q830 -148 801 -100Q845 -60 888 -42Q898 -54 901 -73Q902 -79 902 -85Q902 -100 901 -115Q901 -132 907 -139Q909 -135 909 -124Q908 -102 906 -80Q906 -58 916 -52Q919 -73 919 -102V-126Q919 -177 927 -198Q929 -167 929 -118Q928 -69 933 -28Q939 -38 939 -56Q938 -74 937 -93Q938 -99 938 -105Q945 -93 947 -59Q949 -19 959 -9Q968 20 972 57Q960 89 947 109Q936 113 925 113Q903 112 885 101Q867 90 851 81Q847 68 838 61Q828 54 821 44L796 8Q788 5 776 -6Q764 -18 758 -18Q753 -18 746 -8Q740 2 737 16Q733 30 723 35Q713 33 699 21Q689 12 680 9Q678 -22 675 -54ZM199 -422Q217 -446 241 -468Q266 -490 273 -527Q280 -533 304 -547Q313 -538 328 -548L397 -454Q400 -443 382 -415Q359 -379 359 -355V-354Q362 -351 364 -349V-348Q340 -323 340 -255V-237L343 -235Q347 -236 351 -238L352 -237Q338 -223 338 -209Q338 -202 343 -198Q436 -216 450 -217V-207Q429 -206 408 -197Q383 -186 383 -173Q317 -44 314 -41Q305 -31 300 -30Q298 -29 295 -29Q284 -29 276 -38Q268 -46 265 -60Q249 -56 237 -34Q223 -9 215 -3Q190 -4 173 -9Q160 -14 143 -37Q128 -58 118 -63Q122 -74 127 -85V-88Q124 -106 120 -124Q120 -130 125 -135L99 -173Q91 -178 87 -187Q84 -196 78 -204Q70 -210 62 -216Q46 -236 36 -261V-266Q37 -277 38 -288Q38 -295 35 -301Q44 -323 54 -345Q65 -367 66 -392Q66 -409 59 -426Q73 -411 79 -392Q87 -394 90 -400Q75 -447 75 -464V-471Q83 -456 89 -440Q95 -425 108 -415Q111 -419 111 -426Q111 -436 105 -452Q96 -486 96 -499V-508Q105 -498 108 -484Q112 -470 117 -456Q126 -423 153 -423Q157 -411 167 -391Q178 -401 199 -422Z"/>
</svg>