<svg xmlns="http://www.w3.org/2000/svg" viewBox="0 -800 1024 1024">
	<path fill="#000000" d="M385 -640Q380 -635 376 -629Q371 -624 363 -622Q361 -630 361 -635Q366 -640 385 -640ZM885 -138Q879 -140 879 -151Q879 -162 884 -169Q890 -166 890 -158Q890 -148 885 -138ZM582 -84V-89Q582 -100 569 -109Q557 -117 557 -125V-126Q557 -131 570 -151Q582 -167 594 -178Q594 -172 598 -170Q618 -174 638 -179Q637 -186 636 -194Q636 -202 631 -205Q614 -199 597 -193Q591 -190 583 -184Q569 -174 564 -173H562Q556 -173 548 -177Q537 -182 532 -182Q531 -178 524 -178Q518 -154 498 -143Q476 -131 462 -110Q482 -104 519 -98Q560 -91 582 -84ZM546 -355V-358Q548 -364 550 -370L549 -373L546 -374Q536 -371 525 -368H524Q531 -381 544 -391Q557 -401 570 -412Q598 -437 599 -438Q614 -455 614 -472V-478Q503 -461 459 -442Q461 -434 461 -431Q459 -415 442 -407Q425 -399 422 -380Q432 -387 445 -395Q457 -403 472 -404Q482 -404 490 -400Q496 -402 501 -404H503Q501 -398 501 -394Q501 -391 502 -389L503 -388L507 -389L509 -386V-384Q509 -380 513 -373Q518 -364 518 -357V-356Q516 -334 499 -319Q482 -305 470 -289Q460 -269 455 -236Q465 -238 469 -238Q473 -238 483 -236Q481 -240 481 -248Q481 -258 489 -270Q490 -271 502 -288Q511 -320 557 -329Q553 -324 551 -317Q559 -316 567 -316Q602 -316 623 -326Q621 -327 620 -331Q618 -337 614 -338Q599 -338 592 -331Q580 -356 555 -356Q549 -356 546 -355ZM555 -624H550Q543 -624 528 -629Q515 -633 505 -634Q493 -640 467 -646Q455 -651 443 -656Q440 -657 435 -657Q413 -654 393 -643Q395 -653 407 -659Q419 -666 428 -673Q426 -680 416 -688H413Q403 -685 393 -683Q401 -693 414 -701Q414 -707 411 -711Q408 -714 406 -718Q409 -723 411 -728Q404 -741 389 -745Q374 -749 358 -754Q361 -755 366 -755Q381 -752 396 -750Q399 -750 402 -751Q414 -755 421 -766Q428 -777 434 -787Q457 -792 478 -800V-801Q476 -807 473 -814L475 -817H477Q480 -817 484 -809Q487 -801 490 -800H498Q522 -800 535 -785Q544 -790 548 -794H549Q547 -786 547 -783Q547 -772 563 -762Q574 -755 577 -749Q602 -762 610 -765Q593 -755 593 -738Q593 -729 601 -708Q609 -687 609 -674Q609 -665 606 -658Q600 -655 587 -643Q569 -626 555 -624ZM921 -31V-25Q922 -9 929 2Q936 14 940 26Q941 28 941 32Q941 37 942 38Q954 56 957 76Q957 85 953 93Q942 96 927 108Q908 124 893 124Q886 122 879 119Q860 119 842 115Q833 107 823 97Q784 79 738 62Q694 46 649 29Q624 24 582 8Q547 -5 529 -10Q500 -19 413 -38Q374 13 354 75Q342 82 327 84Q322 84 314 79Q307 75 304 75Q303 75 299 77Q296 57 275 57H272Q275 53 275 48Q275 41 270 30Q264 17 264 11Q264 6 267 0Q261 -12 252 -21Q243 -31 234 -40Q244 -39 256 -29Q269 -18 278 -18Q290 -18 309 -33Q324 -45 333 -47Q316 -49 310 -51Q295 -55 289 -64Q288 -73 281 -89Q275 -102 274 -112Q283 -136 312 -136Q326 -136 354 -130Q382 -124 392 -124H397Q392 -135 384 -153Q376 -171 375 -190Q376 -193 376 -197Q377 -206 392 -226Q411 -252 411 -265V-266Q390 -251 367 -251Q351 -251 342 -260Q334 -257 334 -250L335 -247Q312 -220 295 -187Q278 -155 259 -122Q236 -78 206 -31Q172 19 166 59Q148 75 141 84Q132 82 123 76Q107 66 96 66Q91 56 86 44Q82 32 72 26H71Q69 26 67 29Q65 31 62 31Q69 23 69 13Q69 4 62 -15Q54 -37 54 -47V-49Q58 -53 69 -55Q72 -77 73 -127Q74 -191 81 -216Q80 -209 80 -193Q80 -152 92 -113Q93 -108 94 -102Q95 -96 101 -95H102V-100Q99 -123 95 -147Q95 -155 98 -163Q103 -151 106 -136Q108 -122 117 -115Q245 -237 348 -406Q300 -404 241 -355Q213 -362 199 -377Q190 -390 181 -403Q169 -408 157 -414Q144 -424 144 -447Q145 -452 145 -458Q152 -481 167 -502Q166 -506 166 -514Q167 -542 189 -552Q210 -562 237 -572Q259 -582 290 -602Q297 -603 304 -605L307 -604Q298 -596 289 -590Q279 -583 274 -572H284Q322 -572 390 -583Q443 -592 462 -593Q502 -606 563 -613Q585 -616 746 -644Q801 -653 829 -677H831L832 -676Q834 -672 834 -670Q834 -664 833 -659Q833 -655 835 -653Q863 -660 890 -667Q884 -660 873 -653Q862 -647 861 -638L862 -634L864 -633Q873 -637 887 -641V-640Q887 -638 882 -633Q874 -624 874 -616Q875 -613 875 -611L879 -610Q885 -612 890 -614L894 -613Q890 -609 890 -593Q880 -586 878 -570Q875 -545 874 -542Q873 -539 867 -532Q859 -523 859 -517V-514Q772 -508 696 -500Q707 -494 719 -488Q731 -483 738 -472Q753 -477 767 -480H771Q769 -476 762 -471Q754 -465 752 -461Q752 -454 757 -454Q762 -453 767 -452L768 -450Q766 -441 764 -433Q764 -428 770 -407Q761 -394 756 -376Q749 -379 742 -379Q727 -378 716 -370Q705 -361 693 -355Q697 -341 711 -341Q716 -341 746 -348Q819 -366 841 -383L842 -381Q840 -375 837 -370V-368Q843 -370 851 -376Q862 -384 871 -385Q869 -382 863 -376Q857 -370 856 -363Q856 -358 862 -354L865 -353Q870 -355 875 -357H877Q878 -347 883 -333Q889 -316 889 -307Q889 -297 885 -288H882Q878 -288 874 -286Q871 -272 871 -256H852Q783 -256 705 -229Q698 -214 696 -188Q700 -187 704 -187Q721 -188 737 -196Q753 -204 768 -211Q764 -204 764 -200Q764 -190 780 -190Q793 -190 801 -194L802 -192Q801 -190 797 -188Q792 -187 791 -181V-179L794 -178Q800 -180 806 -183L809 -181Q801 -176 801 -162Q801 -150 807 -147Q797 -124 790 -114Q779 -98 764 -95H759Q757 -95 730 -98Q672 -98 643 -75Q679 -59 750 -46Q800 -37 814 -37Q826 -37 832 -38Q839 -52 845 -88Q848 -83 848 -67Q848 -49 853 -43Q856 -43 856 -46Q856 -49 859 -49H860Q858 -96 855 -144Q855 -174 860 -193Q866 -169 869 -112Q872 -52 879 -28Q883 -36 883 -53Q882 -74 881 -96Q881 -112 887 -124Q893 -99 894 -65Q895 -31 908 -10Q912 -11 914 -20Q916 -30 921 -31Z"/>
</svg>