<svg xmlns="http://www.w3.org/2000/svg" viewBox="0 -800 1024 1024">
	<path fill="#000000" d="M711 -693V-695Q711 -711 730 -711Q729 -697 711 -693ZM718 -100L715 -99Q706 -103 696 -111Q698 -115 700 -120Q716 -110 718 -100ZM38 -393Q29 -396 28 -412Q28 -423 35 -423Q38 -423 40 -422Q42 -416 42 -414Q40 -403 38 -393ZM879 84H876Q851 82 830 62Q808 42 789 31Q788 -12 749 -47Q751 -48 755 -48Q763 -48 773 -42Q782 -37 786 -36Q782 -47 773 -54Q765 -62 757 -69Q756 -70 723 -100Q726 -100 728 -101Q738 -101 760 -85Q774 -75 782 -72Q781 -77 775 -81Q768 -85 761 -89L735 -110Q722 -119 709 -129Q695 -138 688 -152Q706 -146 733 -129Q772 -104 798 -100Q816 -146 819 -212Q821 -278 823 -347Q824 -361 824 -389Q821 -484 817 -579Q814 -627 812 -638Q806 -673 791 -674H790Q783 -674 776 -666Q771 -660 768 -660H767L766 -664Q769 -677 779 -689Q787 -701 794 -714Q812 -730 829 -746Q840 -759 850 -775Q860 -791 875 -795H879Q893 -792 906 -789H908Q926 -758 955 -758H958Q957 -756 957 -752Q957 -742 970 -729Q979 -720 980 -714V-709Q979 -692 969 -674Q959 -656 953 -643Q944 -621 929 -552Q918 -495 915 -419Q909 -260 909 -237Q909 -130 924 -71Q930 -55 935 -39V-37Q934 -26 932 -15Q932 -7 936 -2Q926 23 915 51Q905 79 879 84ZM655 -95H642Q592 -94 548 -71Q511 -57 480 -43Q449 -29 432 3Q421 2 405 -5Q385 -14 371 -14H369Q363 -24 363 -38Q364 -50 364 -63Q364 -77 361 -84Q369 -92 374 -103Q380 -113 391 -117Q393 -117 396 -112Q399 -108 403 -107Q442 -118 481 -129V-144Q470 -144 457 -134Q446 -126 437 -126H435Q419 -128 409 -141Q399 -154 388 -165V-172Q388 -195 397 -209Q394 -217 390 -225Q409 -234 440 -242Q468 -249 481 -255Q481 -269 475 -278Q455 -275 438 -252Q435 -251 431 -251Q416 -251 399 -264Q383 -276 373 -276Q362 -290 362 -310Q362 -316 364 -324Q354 -335 346 -350Q354 -353 364 -353Q392 -373 404 -385Q424 -405 432 -428H431Q426 -428 419 -422Q410 -415 403 -414H401Q364 -417 352 -451Q335 -441 325 -424Q315 -408 305 -392Q294 -377 282 -361Q270 -345 266 -324L270 -323Q274 -323 279 -328Q283 -332 285 -332Q287 -332 290 -329Q293 -329 295 -334Q297 -339 301 -339Q308 -325 310 -310Q314 -299 326 -278Q343 -249 346 -233V-227Q346 -216 345 -205Q345 -198 346 -195Q342 -191 342 -184Q344 -174 345 -164Q343 -109 341 -55Q341 -41 343 -15Q339 -6 324 7Q305 23 302 40Q282 4 241 -6Q231 -27 226 -52Q221 -79 193 -84Q236 -94 236 -177Q236 -198 231 -248Q210 -217 177 -144Q146 -76 126 -45Q102 -51 95 -53Q77 -59 68 -68Q64 -68 62 -63Q60 -59 56 -59H55Q58 -68 58 -77Q55 -102 46 -129Q43 -134 33 -140Q23 -167 23 -187Q23 -209 33 -230Q33 -231 34 -237Q36 -247 36 -268Q35 -306 33 -345Q33 -367 37 -382Q42 -331 47 -281Q51 -284 51 -292Q50 -305 49 -318Q49 -325 52 -330Q61 -301 69 -294Q161 -384 250 -576Q246 -592 235 -608Q258 -609 288 -631Q313 -649 326 -652Q330 -653 337 -653Q357 -653 369 -627Q384 -594 393 -588Q395 -589 408 -605Q419 -602 430 -602Q460 -602 529 -629Q621 -667 643 -675H644Q650 -672 655 -668Q679 -680 700 -693Q699 -687 687 -678Q671 -666 670 -654H672Q674 -654 681 -658Q690 -663 696 -663V-662Q696 -660 691 -654Q682 -643 682 -636Q682 -631 687 -626L689 -625Q694 -628 698 -631Q700 -631 702 -629Q687 -612 687 -582L689 -580Q692 -580 694 -581L696 -580Q688 -574 682 -552Q677 -534 672 -528Q628 -521 594 -506Q561 -492 524 -479Q527 -467 527 -459Q527 -444 519 -433Q512 -423 503 -410Q510 -410 528 -418Q542 -424 552 -426Q551 -430 551 -437Q551 -450 565 -468Q576 -482 578 -491Q603 -481 616 -481Q620 -481 628 -483V-480Q628 -474 632 -468Q636 -469 641 -475Q646 -481 652 -482Q648 -470 644 -459V-458Q644 -455 648 -455Q652 -454 653 -453Q653 -446 652 -440Q652 -430 658 -428Q664 -439 670 -451Q682 -459 693 -468Q697 -474 700 -489Q704 -513 715 -519Q718 -514 718 -509Q718 -501 717 -494V-488Q719 -492 720 -497Q721 -502 727 -503Q728 -493 733 -487Q739 -479 750 -479H752Q785 -448 800 -408Q802 -402 802 -398Q802 -385 790 -346Q778 -309 777 -293Q776 -287 776 -275Q776 -248 782 -227Q767 -208 758 -185Q756 -186 751 -186Q744 -186 729 -176Q726 -177 721 -181Q716 -185 711 -186Q705 -185 705 -180Q704 -174 702 -170Q701 -184 690 -215Q679 -245 678 -264V-274Q679 -294 679 -315Q679 -336 674 -350Q657 -340 638 -337Q634 -337 626 -339Q620 -343 614 -347H613Q595 -343 576 -333Q566 -329 540 -315Q543 -306 548 -299Q554 -292 558 -285Q568 -295 599 -299Q623 -302 635 -309V-308Q635 -304 631 -300Q628 -297 628 -294V-291Q630 -289 631 -287L633 -286Q639 -289 645 -292L647 -291V-290Q642 -277 636 -265Q636 -258 646 -257Q636 -247 636 -232Q636 -228 638 -222Q624 -211 607 -206Q589 -201 573 -195Q544 -188 537 -152Q562 -161 587 -170Q611 -178 631 -192Q639 -199 645 -209Q650 -219 662 -222Q651 -210 651 -194Q651 -184 659 -159Q666 -137 666 -124Q666 -107 655 -95Z"/>
</svg>