<svg xmlns="http://www.w3.org/2000/svg" viewBox="0 -800 1024 1024">
	<path fill="#000000" d="M308 -228H311Q316 -239 331 -240Q331 -247 330 -255Q334 -313 342 -357Q328 -349 313 -342Q297 -336 295 -315Q271 -304 271 -266Q271 -235 286 -222Q307 -228 308 -228ZM565 -246H553Q550 -220 554 -216Q563 -242 565 -246ZM696 -205V-208Q677 -208 655 -202Q630 -195 627 -184Q633 -179 638 -175Q666 -180 693 -186V-188Q695 -196 696 -205ZM634 -353Q634 -358 632 -360Q610 -350 584 -348Q573 -348 567 -358Q558 -357 558 -341Q558 -337 561 -316Q569 -319 593 -322Q625 -326 633 -331V-335Q634 -344 634 -353ZM723 -297Q713 -289 667 -278Q621 -268 609 -265Q576 -257 570 -247Q573 -248 580 -248Q604 -245 614 -237Q616 -239 639 -242Q661 -244 663 -247Q729 -284 761 -288V-286Q760 -283 759 -280L760 -277Q772 -262 778 -262H780Q782 -271 783 -281Q783 -290 777 -298H770Q753 -296 736 -295H733ZM629 -432Q628 -436 626 -440Q626 -442 629 -445H627Q599 -441 586 -421H587Q608 -423 629 -432ZM788 -419Q788 -424 786 -436Q779 -422 764 -416Q749 -409 733 -402Q702 -393 699 -361V-355Q705 -356 726 -364Q755 -375 765 -375Q771 -375 780 -369Q786 -393 788 -419ZM787 -448V-543Q761 -541 727 -516Q700 -496 685 -492Q682 -487 671 -481Q658 -473 656 -468Q661 -466 686 -454Q704 -461 710 -461Q718 -461 720 -460Q724 -471 734 -476Q745 -481 755 -486Q757 -478 758 -471L774 -475Q777 -468 779 -460Q781 -452 787 -448ZM672 -19Q661 -22 650 -25Q649 -30 647 -36Q665 -32 672 -19ZM412 -148Q444 -132 456 -137Q463 -167 463 -243Q463 -269 462 -296Q462 -348 468 -379Q465 -383 465 -388V-392Q465 -397 462 -400Q465 -409 465 -416Q462 -434 459 -453L453 -538Q449 -557 444 -577Q453 -569 462 -562V-565Q462 -574 456 -586H459Q460 -586 476 -579Q492 -572 510 -563Q527 -555 538 -541Q560 -559 630 -592Q677 -614 695 -625Q712 -640 733 -644Q736 -643 739 -643L751 -655Q764 -677 803 -706Q835 -728 866 -751Q868 -751 868 -746V-738H869Q881 -738 891 -750Q901 -762 910 -762Q896 -742 896 -734Q896 -730 898 -726Q900 -725 903 -725Q907 -725 914 -732Q920 -738 924 -738H925Q923 -732 923 -729Q923 -716 937 -700H938Q942 -703 945 -706L946 -705V-700Q946 -688 956 -678Q961 -673 976 -664Q970 -605 970 -603Q939 -600 930 -580Q929 -572 927 -564Q913 -533 898 -508L891 -479Q896 -475 896 -466Q896 -455 895 -445Q893 -411 893 -386Q893 -355 898 -340Q894 -319 894 -288Q895 -248 896 -209Q896 -176 892 -151L888 -135Q894 -134 894 -127V-117Q903 -56 925 -1Q918 19 919 39Q913 60 893 77Q872 94 858 107Q821 102 791 76Q777 64 745 24Q729 15 712 5Q695 -4 683 -19Q694 -18 711 -10Q731 -1 744 0Q727 -12 694 -32Q649 -59 630 -75Q649 -70 689 -49Q724 -31 745 -28Q739 -41 716 -51Q689 -62 683 -71L717 -60Q747 -51 750 -51H752Q763 -53 767 -64Q771 -75 778 -85Q773 -97 773 -118Q775 -148 776 -178Q776 -192 775 -198Q759 -194 748 -158Q736 -121 721 -114Q677 -125 655 -125Q651 -124 647 -124Q643 -122 643 -119V-117Q642 -119 639 -119Q633 -117 626 -115Q598 -124 585 -147Q571 -171 555 -192Q559 -167 560 -139Q562 -112 574 -96Q572 -92 572 -89Q574 -80 576 -71Q561 -61 550 -44Q538 -23 518 -21H517Q503 -25 489 -30Q481 -32 453 -44Q425 -56 405 -60Q415 -62 446 -56Q463 -53 466 -54Q451 -83 438 -100Q425 -118 411 -140Q410 -134 410 -121V-114Q385 -114 360 -91Q347 -115 322 -115Q299 -115 279 -96Q258 -76 257 -52Q238 -48 234 -45Q201 -64 178 -124Q172 -138 166 -149Q160 -160 160 -177L126 -200Q118 -202 109 -205Q81 -213 80 -214Q56 -228 42 -260Q28 -291 28 -328Q28 -377 54 -402Q55 -420 55 -453Q59 -450 62 -439Q67 -423 74 -423H76V-425Q70 -446 64 -478Q64 -486 66 -490Q72 -487 77 -466Q83 -442 93 -442Q94 -442 100 -444Q94 -454 91 -466Q91 -469 94 -474Q98 -471 102 -462Q106 -453 109 -450Q178 -447 199 -403Q221 -417 242 -432Q250 -438 262 -447Q274 -455 283 -456Q290 -456 293 -448L317 -480Q326 -497 334 -514Q340 -514 345 -515Q353 -514 361 -514Q365 -514 377 -516Q383 -524 388 -533Q392 -543 402 -547L403 -546Q401 -538 398 -530Q398 -528 400 -524Q406 -522 414 -516Q436 -471 437 -466Q450 -424 435 -381Q433 -356 434 -329Q433 -313 430 -297Q427 -282 413 -277L403 -190Q414 -190 414 -176Q414 -168 413 -160Q413 -154 412 -148Z"/>
</svg>