<svg xmlns="http://www.w3.org/2000/svg" viewBox="0 -800 1024 1024">
	<path fill="#000000" d="M830 -441H833Q835 -435 835 -431Q835 -421 830 -413Q824 -417 824 -431Q824 -441 830 -441ZM823 -660H825Q826 -657 827 -654Q824 -651 821 -646Q817 -641 812 -641Q809 -641 807 -642Q809 -660 823 -660ZM883 -297H882Q873 -297 873 -311V-325Q874 -326 878 -326H885Q887 -322 887 -320Q885 -311 882 -303Q882 -299 883 -297ZM936 6V19Q935 32 933 45Q936 56 938 67Q937 74 930 81Q924 87 923 90Q903 99 843 110Q818 104 789 94Q768 80 745 53Q729 36 702 -2Q683 -28 670 -44Q644 -74 631 -92Q553 -192 486 -289Q469 -268 468 -248Q454 -241 448 -226Q442 -212 436 -199Q431 -193 426 -187Q422 -172 417 -158Q398 -121 375 -85Q359 -58 342 -32Q325 -7 316 26Q296 40 280 59Q269 58 258 56H253Q248 57 242 63Q235 70 230 70H229Q233 55 242 43Q230 22 207 12Q184 1 161 -10Q154 -20 147 -30Q137 -39 110 -47Q79 -56 72 -68Q88 -66 122 -54Q149 -45 162 -43Q156 -60 134 -68Q112 -77 92 -83Q62 -90 45 -107Q58 -106 89 -95Q128 -81 150 -81Q161 -81 178 -86Q204 -95 230 -121Q302 -192 369 -309Q330 -297 316 -290Q287 -275 279 -250Q270 -246 257 -246Q216 -246 183 -281Q163 -281 151 -296Q139 -311 139 -331Q139 -345 147 -359Q147 -360 140 -377Q139 -382 139 -391Q140 -427 163 -443Q185 -459 212 -472Q226 -480 262 -511Q294 -539 313 -545Q307 -536 295 -527Q291 -522 277 -494L280 -493Q284 -493 289 -499Q296 -507 300 -507V-505Q299 -498 298 -492V-490Q304 -492 307 -492Q318 -491 328 -490Q344 -490 378 -502Q416 -515 436 -515Q441 -523 443 -562Q447 -593 450 -624Q450 -630 449 -632Q447 -640 435 -642Q422 -631 416 -614Q411 -596 406 -578Q405 -582 405 -589Q405 -602 410 -623Q416 -648 416 -658Q416 -663 414 -673Q405 -669 400 -648Q396 -628 389 -623V-629Q389 -646 396 -664Q386 -679 382 -701Q382 -707 383 -711Q389 -726 411 -735Q433 -744 449 -751Q456 -755 467 -773Q476 -789 483 -794Q496 -804 518 -804Q525 -804 541 -802Q548 -793 555 -783Q562 -773 574 -768Q577 -758 591 -736Q613 -702 613 -682Q613 -672 611 -667Q610 -663 603 -654Q594 -642 592 -633V-631Q593 -626 594 -622Q584 -604 572 -550Q627 -563 653 -571Q700 -586 729 -604L730 -600L729 -596Q729 -589 735 -588Q749 -594 766 -609Q787 -627 798 -632Q797 -627 789 -615Q777 -598 777 -589Q777 -581 784 -573Q787 -574 794 -582Q801 -590 806 -590H809L810 -589Q810 -588 805 -582Q797 -573 797 -566V-564Q801 -556 809 -556Q816 -556 835 -567Q850 -576 857 -576H858Q855 -570 840 -559Q820 -545 820 -530Q821 -527 821 -524L823 -521Q827 -522 830 -524Q812 -498 806 -461L807 -460Q810 -460 812 -461Q815 -461 815 -458Q800 -439 786 -420Q772 -400 745 -394Q725 -396 714 -396Q653 -396 575 -368Q578 -352 591 -335Q597 -327 615 -308Q640 -283 665 -259Q695 -221 726 -185Q743 -167 759 -149Q775 -132 798 -122Q807 -136 807 -163Q805 -195 803 -228L798 -346Q819 -245 822 -217V-206Q822 -191 831 -190Q831 -236 828 -286Q825 -325 821 -364Q821 -384 827 -401Q832 -392 832 -379Q832 -366 831 -354V-350Q836 -319 840 -289Q841 -238 849 -191Q851 -187 855 -186Q860 -186 863 -184Q862 -181 862 -175Q862 -166 865 -159L867 -157Q870 -159 873 -161H874Q871 -134 871 -129Q871 -108 880 -102Q886 -109 886 -127Q886 -138 885 -149Q878 -205 873 -256V-260Q873 -280 880 -284Q885 -226 896 -155Q897 -130 897 -105Q897 -81 907 -61Q911 -62 911 -70Q912 -78 914 -79Q919 -35 938 -5Q936 -1 936 6Z"/>
</svg>