<svg xmlns="http://www.w3.org/2000/svg" viewBox="0 -800 1024 1024">
	<path fill="#000000" d="M966 -225V-213Q952 -209 938 -205Q941 -223 966 -225ZM303 -204Q300 -219 300 -233Q301 -260 307 -286Q313 -312 317 -337Q314 -340 311 -340Q307 -339 302 -339Q318 -352 323 -374Q323 -380 320 -386Q302 -368 271 -348Q239 -328 236 -297Q237 -277 254 -239Q270 -205 272 -187Q279 -196 303 -204ZM147 -119L146 -120Q154 -135 161 -150Q152 -170 146 -188Q139 -206 127 -222Q118 -233 93 -244Q68 -255 60 -262Q44 -279 31 -308Q14 -336 14 -357V-367Q16 -396 21 -410Q29 -431 46 -437V-440Q46 -445 53 -457Q58 -465 59 -472V-477Q57 -494 55 -512Q55 -522 59 -529Q68 -486 79 -475Q81 -479 81 -481Q79 -495 76 -509Q76 -512 78 -518Q87 -484 103 -477V-502Q106 -485 117 -476Q128 -468 142 -462Q171 -455 187 -433Q215 -445 245 -469Q273 -487 299 -509Q309 -519 322 -531Q335 -543 355 -544Q362 -551 367 -562Q375 -549 379 -547Q394 -563 405 -584Q408 -583 410 -583Q402 -575 402 -556Q402 -550 404 -540V-539L406 -538H411Q411 -534 410 -531Q410 -513 431 -485Q450 -460 450 -445V-440Q449 -428 427 -406Q406 -385 402 -371Q399 -347 396 -324Q388 -291 378 -252Q368 -213 367 -173Q367 -145 374 -123Q370 -100 362 -82Q346 -91 322 -91Q300 -91 285 -82Q268 -72 268 -53Q269 -49 269 -46Q253 -42 236 -39Q212 -48 199 -69Q185 -90 167 -108Q165 -116 162 -124L159 -125Q153 -122 147 -119ZM882 75H880Q857 75 821 23Q812 11 780 -48Q541 -26 445 68H442Q418 68 406 46Q399 34 390 -1Q378 -30 374 -55V-57Q378 -76 393 -87Q409 -97 417 -111Q420 -111 423 -112L426 -111Q442 -142 466 -167Q490 -192 512 -217Q522 -180 540 -148Q534 -142 534 -131Q534 -123 538 -115Q555 -122 574 -127Q576 -163 576 -181Q576 -231 571 -289Q569 -288 538 -264Q511 -241 497 -241Q485 -241 473 -249Q460 -257 439 -278Q414 -303 412 -316Q412 -319 411 -323Q415 -360 435 -377Q465 -432 500 -481Q511 -499 521 -517Q524 -516 524 -511Q522 -498 520 -486Q520 -482 522 -478Q524 -480 525 -487Q526 -496 531 -496Q532 -494 532 -490Q532 -482 531 -475V-472Q538 -458 547 -445Q550 -434 552 -424Q553 -414 561 -408Q584 -418 584 -471Q582 -512 579 -553V-594Q579 -619 576 -640Q572 -677 537 -684Q554 -716 579 -739Q605 -762 630 -785Q635 -783 660 -778Q673 -748 701 -744Q702 -736 719 -697Q725 -688 732 -681Q724 -676 723 -667Q722 -658 719 -646Q712 -629 703 -613Q685 -552 685 -465Q702 -474 713 -483Q710 -498 706 -509Q719 -533 747 -533Q781 -533 824 -501Q828 -501 829 -505Q831 -509 835 -510L838 -509H839Q841 -509 841 -505Q841 -501 840 -498L841 -495H843Q855 -496 863 -501Q870 -507 879 -511V-510Q878 -506 872 -497Q865 -487 864 -476Q864 -470 868 -465H869Q873 -465 875 -471Q877 -477 881 -477H882Q879 -456 879 -437Q882 -382 885 -327V-321Q878 -315 872 -309Q865 -303 857 -302Q852 -301 843 -301Q808 -304 790 -332Q771 -360 756 -383Q711 -371 666 -342Q661 -306 661 -250Q661 -199 666 -144Q702 -154 737 -165Q724 -185 724 -249H726Q734 -252 741 -255V-273Q751 -267 758 -258Q782 -252 805 -226Q838 -189 842 -186Q846 -187 854 -192Q863 -198 869 -198H873Q867 -191 863 -176Q863 -171 867 -167Q879 -175 897 -186Q914 -197 931 -202Q928 -192 909 -182Q895 -175 891 -170Q884 -162 884 -146Q884 -121 901 -120H904Q913 -120 926 -129Q942 -140 954 -140Q959 -140 962 -139Q939 -125 935 -122Q919 -109 919 -96Q919 -86 924 -79Q943 -77 962 -75Q941 -69 931 -52Q933 -35 940 -19Q941 -18 945 -18H951Q940 5 937 36Q937 45 940 54Q926 55 908 65Q891 75 882 75Z"/>
</svg>