<svg xmlns="http://www.w3.org/2000/svg" viewBox="0 -800 1024 1024">
	<path fill="#000000" d="M485 -341L474 -326Q468 -326 467 -328V-330Q467 -341 481 -341ZM954 -732Q951 -726 949 -720Q946 -714 939 -713Q938 -716 938 -720Q938 -734 947 -734Q950 -734 954 -732ZM610 -182V-179Q625 -175 636 -166Q646 -157 658 -150Q652 -171 615 -193Q610 -188 610 -182ZM667 -181H671Q687 -185 697 -210Q709 -239 714 -257Q747 -345 796 -535Q725 -516 664 -476Q667 -474 673 -464Q680 -452 688 -452Q692 -452 698 -455Q694 -449 692 -441V-438Q703 -432 704 -400Q705 -373 711 -365Q701 -356 699 -331Q672 -313 651 -275Q643 -260 618 -205Q629 -200 641 -191Q653 -182 667 -181ZM830 -49V-43Q825 -36 816 -27Q808 -14 806 26Q785 38 757 40Q752 38 746 30Q738 21 731 19H729Q727 19 723 23Q718 28 714 28H713Q719 18 719 8Q719 -19 668 -46Q648 -84 643 -89Q645 -97 645 -100Q645 -111 629 -128Q619 -138 616 -146L619 -147Q626 -147 638 -136Q649 -126 652 -125Q645 -141 633 -151Q620 -162 609 -173Q592 -145 566 -71Q560 -54 554 -37Q545 -23 535 -10Q528 5 519 29Q510 55 488 58H485Q462 46 448 28Q439 9 430 -11Q421 -29 421 -34Q421 -42 427 -47Q420 -68 412 -89L413 -91Q414 -91 416 -87Q419 -83 421 -83L424 -84Q425 -87 425 -90Q424 -100 419 -107Q413 -115 409 -122Q375 -107 342 -79Q321 -61 286 -24Q274 -30 267 -30H264Q252 -37 237 -63Q223 -87 211 -95V-102Q211 -146 184 -146Q208 -168 215 -206Q221 -245 225 -285Q205 -274 186 -262Q166 -250 160 -225Q151 -220 135 -220Q118 -220 104 -228Q89 -237 86 -250Q26 -275 26 -342V-347Q31 -369 39 -395Q40 -411 41 -425Q41 -440 49 -447Q61 -453 73 -460Q75 -461 80 -469Q83 -474 88 -475L89 -472Q88 -466 86 -460Q86 -459 88 -455Q101 -448 114 -448Q132 -449 150 -457Q168 -466 186 -473Q215 -480 231 -500V-508Q231 -527 212 -550Q194 -571 192 -588Q189 -626 169 -665Q175 -662 184 -648Q193 -634 203 -630Q200 -641 196 -653H197Q202 -653 205 -649Q208 -644 212 -644Q223 -660 250 -660Q271 -660 286 -648Q296 -635 306 -622Q352 -568 353 -535Q384 -546 415 -557L418 -555Q416 -550 413 -546V-544Q421 -545 433 -552Q449 -561 461 -561H463Q453 -552 441 -545Q429 -539 428 -521V-519L430 -518Q433 -519 435 -520L437 -519Q430 -510 428 -501Q430 -491 440 -484Q450 -477 458 -473V-471Q461 -457 471 -449Q468 -432 468 -404V-380Q430 -365 390 -351Q350 -337 317 -317Q303 -270 298 -228Q318 -237 354 -264Q385 -287 401 -296Q403 -295 403 -290V-285Q416 -290 434 -303Q451 -316 458 -319Q458 -312 445 -300Q431 -287 431 -277Q431 -275 433 -269Q443 -285 454 -287Q444 -264 444 -260Q444 -252 451 -245Q448 -236 448 -226Q452 -199 455 -172Q455 -165 454 -162Q450 -148 438 -143Q426 -137 416 -128Q425 -113 432 -113Q439 -113 448 -122Q471 -145 494 -183Q497 -189 533 -256Q558 -305 597 -409Q595 -416 593 -424Q593 -428 596 -431Q585 -428 572 -415Q560 -403 549 -403H545Q534 -405 524 -417Q508 -436 507 -437Q488 -452 484 -458Q476 -469 476 -490Q476 -500 477 -506Q480 -521 483 -536Q481 -555 479 -575Q479 -582 482 -590Q491 -605 504 -614L508 -615Q513 -614 518 -614H520Q528 -616 537 -623Q548 -632 557 -633Q555 -624 553 -616Q559 -613 565 -613Q583 -615 603 -624Q641 -632 668 -650Q683 -652 711 -665Q734 -676 751 -679Q759 -697 784 -697Q813 -694 842 -691Q859 -691 868 -699Q867 -697 867 -694Q867 -687 881 -682Q887 -684 893 -692Q900 -701 908 -702V-701Q908 -695 902 -689Q897 -683 896 -677Q904 -677 917 -691Q929 -704 935 -704Q931 -697 924 -686Q917 -676 916 -666Q916 -659 923 -653Q928 -654 931 -657Q936 -662 940 -662H943Q937 -653 937 -643Q939 -616 955 -605Q955 -580 969 -563Q967 -557 967 -546Q968 -532 968 -518Q968 -507 966 -501Q951 -500 932 -469Q933 -466 940 -466Q915 -426 895 -353Q876 -289 854 -223Q832 -157 827 -87V-84Q829 -66 830 -49Z"/>
</svg>