<svg xmlns="http://www.w3.org/2000/svg" viewBox="0 -800 1024 1024">
	<path fill="#000000" d="M756 -138Q753 -154 744 -164Q734 -175 725 -185Q725 -179 722 -175Q734 -164 756 -138ZM844 -568Q801 -542 757 -502Q764 -488 771 -475L774 -473Q777 -474 780 -475L783 -473Q781 -465 778 -457Q786 -448 786 -427Q786 -417 785 -408Q785 -388 792 -380Q782 -360 782 -349Q782 -345 784 -339Q761 -315 750 -278Q739 -241 728 -202Q745 -181 765 -172Q799 -256 815 -361Q831 -466 844 -568ZM313 -67Q322 -59 322 -44Q318 -19 314 6Q307 15 304 25V27H303Q297 27 291 33Q287 37 282 38Q280 37 278 33Q276 29 272 29Q264 29 264 39Q261 18 247 7Q233 -5 222 -19Q218 -26 216 -33Q213 -40 205 -41Q209 -48 209 -56Q205 -77 200 -99V-104Q204 -113 211 -120Q217 -132 220 -157Q222 -178 225 -186Q196 -158 175 -133Q145 -98 133 -68Q118 -77 102 -82Q98 -82 93 -79Q99 -86 99 -96Q99 -114 85 -120Q86 -123 86 -129Q82 -147 78 -166Q82 -178 85 -190V-191Q84 -199 78 -202Q72 -206 66 -211V-214Q66 -221 71 -225Q75 -229 78 -235Q82 -244 82 -258Q82 -273 76 -300Q69 -331 69 -344V-350Q78 -324 85 -295Q92 -266 108 -245Q177 -292 229 -337Q261 -361 269 -386Q271 -395 272 -403Q273 -412 278 -418Q288 -429 306 -429Q332 -429 351 -406Q354 -374 356 -342Q356 -316 349 -296Q289 -271 289 -247Q289 -238 300 -230Q305 -208 317 -183Q316 -180 316 -174Q319 -153 321 -132Q321 -118 314 -108ZM41 -419Q39 -413 29 -398L20 -403Q27 -419 41 -419ZM231 -583Q229 -587 229 -589Q233 -601 239 -610Q241 -633 247 -648Q261 -666 289 -666Q302 -666 330 -660L328 -657Q328 -655 333 -652Q337 -650 337 -649L335 -647L333 -644L335 -642Q337 -641 337 -643Q337 -646 338 -647H339Q343 -636 349 -635H350V-631Q350 -618 361 -586Q372 -554 372 -537V-530Q372 -504 364 -489Q361 -485 353 -481Q344 -477 342 -471Q337 -473 336 -474Q331 -470 322 -467H319Q318 -464 317 -462Q300 -459 273 -449Q240 -431 214 -404Q204 -397 194 -391Q190 -387 187 -382Q184 -377 178 -377Q178 -382 182 -388L181 -390L177 -389L175 -390V-391Q178 -395 178 -399Q178 -405 172 -408Q166 -412 160 -416Q156 -421 154 -425Q152 -429 148 -429H146Q140 -429 133 -423Q125 -417 121 -416Q122 -424 133 -432Q143 -440 145 -449Q139 -451 136 -451Q126 -451 106 -438Q91 -428 84 -426Q92 -440 104 -449Q115 -459 126 -470Q124 -471 120 -471Q112 -471 100 -463Q98 -462 82 -450Q74 -444 66 -436Q58 -429 47 -426Q69 -454 99 -478Q129 -503 157 -528Q168 -538 177 -546Q186 -554 202 -558ZM956 -770Q951 -760 940 -756Q939 -758 939 -763Q939 -772 943 -776H953Q955 -773 956 -770ZM720 -670Q735 -676 749 -682Q767 -693 784 -706Q800 -720 819 -725L827 -741Q836 -744 845 -744Q868 -744 881 -734Q887 -738 892 -743H893V-740Q893 -735 895 -733Q898 -731 900 -729Q903 -735 907 -741Q911 -747 918 -748Q909 -725 909 -723Q916 -726 922 -737Q928 -748 934 -751Q923 -727 923 -709Q923 -705 925 -695Q929 -696 931 -700Q934 -706 938 -706H939L941 -705Q939 -699 936 -694V-686Q939 -661 947 -632Q953 -609 959 -597V-595Q958 -587 956 -580V-577Q957 -562 958 -547Q958 -537 955 -530Q938 -513 938 -496Q938 -487 942 -482Q929 -456 922 -420Q915 -385 906 -353L900 -324Q889 -213 868 -126L870 -111Q868 -103 868 -86Q869 -65 869 -45Q869 -31 868 -25Q866 10 859 37Q851 65 822 68Q818 66 814 59Q809 50 805 48H804Q797 52 793 55L792 54Q799 42 799 34Q797 15 781 0Q765 -16 756 -32Q750 -46 750 -61Q749 -76 747 -90Q746 -98 737 -111Q727 -126 726 -137Q738 -123 750 -110Q748 -128 739 -139Q729 -149 721 -162Q701 -100 687 -30Q674 40 642 92Q624 76 616 49Q608 21 598 -6Q602 -14 602 -24Q599 -45 592 -68L593 -70Q597 -67 601 -65Q602 -67 602 -71Q597 -89 588 -105Q559 -89 538 -58Q518 -28 500 1Q492 2 483 3Q481 3 475 1Q469 -6 460 -35Q452 -53 444 -71Q442 -88 442 -104Q442 -120 430 -131Q443 -160 446 -200Q448 -240 454 -277Q436 -268 437 -245Q439 -222 429 -206Q424 -206 419 -211Q415 -215 410 -215Q401 -213 401 -199Q401 -188 409 -188Q405 -178 388 -167Q373 -200 366 -244Q361 -304 364 -359Q367 -428 367 -429Q371 -465 389 -480V-471Q389 -454 399 -453H400Q405 -453 412 -460Q422 -469 426 -469Q428 -469 432 -467L435 -478Q433 -480 433 -485Q433 -490 443 -501Q449 -508 451 -513Q450 -530 438 -563Q426 -596 424 -615Q423 -662 407 -696Q413 -695 419 -683Q427 -667 430 -664L431 -666Q429 -673 427 -680L428 -682Q432 -679 435 -677Q439 -682 442 -689Q453 -694 469 -694Q505 -694 529 -661Q539 -647 540 -612Q541 -582 545 -571Q570 -580 594 -589Q592 -584 590 -580L591 -577H592Q597 -577 605 -584Q616 -594 624 -594Q618 -585 611 -576Q605 -568 604 -553V-548L606 -546Q603 -540 603 -532Q603 -512 622 -499Q628 -481 628 -448V-394Q605 -381 578 -370Q551 -358 532 -341Q518 -327 513 -298Q510 -280 510 -240V-230Q547 -264 582 -299Q585 -296 585 -290Q594 -298 602 -308Q610 -318 624 -323Q619 -313 613 -302Q607 -292 606 -279Q606 -274 607 -271Q615 -276 618 -288Q617 -277 617 -250Q617 -221 618 -205Q619 -184 620 -164Q620 -157 619 -154Q617 -145 606 -131Q594 -115 594 -109Q594 -99 608 -92Q620 -117 631 -147Q641 -177 657 -196L666 -220Q668 -262 690 -337Q712 -411 714 -451H713Q706 -451 700 -437Q693 -421 686 -421Q678 -421 655 -451Q638 -473 634 -485Q632 -495 632 -502Q636 -535 639 -569Q639 -589 638 -610Q638 -644 652 -652Q661 -654 671 -662Q682 -671 689 -672Z"/>
</svg>