<svg xmlns="http://www.w3.org/2000/svg" viewBox="0 -800 1024 1024">
	<path fill="#000000" d="M573 -96Q573 -102 566 -102Q560 -102 552 -96Q543 -89 543 -82V-81L547 -80Q559 -84 571 -88Q573 -94 573 -96ZM583 -180Q583 -187 579 -190Q553 -181 542 -174Q525 -163 520 -144Q526 -141 531 -141Q540 -141 559 -152Q575 -161 582 -163V-166Q583 -173 583 -180ZM658 -139H654Q641 -139 636 -127Q633 -120 631 -101H637Q656 -112 658 -139ZM691 -229H686Q670 -229 658 -222Q644 -214 644 -199Q644 -196 646 -188Q656 -190 666 -193Q668 -193 674 -191Q676 -197 682 -206Q690 -218 691 -229ZM692 -331H699Q685 -350 665 -373Q659 -382 650 -396Q640 -410 631 -412H628Q614 -412 602 -403Q581 -389 558 -346Q538 -309 529 -277Q555 -291 587 -296Q581 -316 575 -337Q590 -359 591 -360Q602 -374 612 -374H615Q623 -373 641 -352Q655 -336 660 -334Q659 -328 657 -323L658 -319Q678 -331 692 -331ZM675 -729Q683 -726 689 -719Q695 -713 701 -707Q677 -662 671 -608Q724 -625 743 -643Q746 -618 769 -618Q799 -622 829 -627H831Q815 -618 795 -613Q777 -609 773 -590Q776 -586 781 -586Q793 -589 805 -592L806 -590Q806 -587 798 -582Q788 -575 787 -572Q789 -569 792 -569Q796 -569 799 -572V-570Q793 -559 787 -548Q795 -541 799 -518Q803 -495 808 -488Q797 -479 794 -476Q787 -469 787 -459V-457H779Q744 -457 719 -439Q752 -398 788 -361Q793 -356 799 -351Q805 -345 805 -338V-337L818 -328Q825 -324 856 -301Q864 -333 867 -351Q869 -335 871 -319Q872 -303 882 -295Q878 -342 874 -412Q880 -409 881 -400Q882 -392 883 -383Q886 -357 890 -328Q893 -299 904 -279Q906 -289 906 -296Q906 -305 905 -314Q905 -321 907 -331Q913 -319 915 -288Q918 -247 928 -236Q930 -249 936 -251Q936 -243 942 -221Q947 -203 947 -192V-188Q947 -181 936 -154Q927 -125 924 -121H922Q901 -116 880 -112H877Q868 -116 859 -121Q855 -122 847 -122H843Q837 -122 829 -125Q819 -131 813 -152Q808 -170 800 -179Q788 -178 781 -169Q773 -160 767 -157L764 -144Q733 -91 707 -37Q705 -36 702 -36Q697 -36 690 -44Q682 -53 677 -55Q668 -59 654 -59Q638 -59 628 -52Q617 -44 617 -30Q617 -23 620 -16Q656 -18 672 -18Q717 -17 761 -16Q801 -16 840 -22Q830 -34 805 -50Q770 -73 760 -92Q775 -85 803 -65Q831 -45 849 -37Q843 -45 831 -54Q819 -62 814 -75Q835 -62 856 -50Q883 -34 899 -34H901Q910 -37 918 -40H919Q926 -38 932 -28Q939 -19 945 -13L972 13Q975 22 975 28Q975 36 970 47Q963 63 963 75V79Q940 86 911 106Q893 101 844 97Q813 95 793 91H784Q776 93 768 93Q748 92 728 90H708Q690 90 682 85H660Q624 90 588 94Q574 94 562 90Q552 80 544 46Q539 25 534 16Q541 4 553 -5Q565 -14 566 -34V-37Q555 -36 544 -24Q534 -13 531 0H526Q494 -1 475 -15Q456 -30 433 -40Q434 -42 434 -45Q434 -50 430 -56Q425 -64 425 -68Q425 -69 427 -75L420 -81Q406 -90 389 -117Q374 -140 365 -148Q363 -155 363 -169Q363 -180 374 -200Q371 -211 370 -213Q340 -202 310 -192L268 -151Q192 -116 146 -82Q138 -53 128 -43Q120 -41 116 -41Q104 -42 94 -48Q83 -55 71 -61Q62 -78 53 -115Q44 -151 38 -164Q39 -168 44 -175Q49 -183 50 -190Q72 -208 85 -234Q99 -260 115 -283L119 -305Q119 -310 118 -315Q119 -328 120 -342Q120 -347 119 -352Q114 -378 102 -394Q107 -393 112 -389Q118 -384 121 -384L125 -385L127 -387Q126 -391 124 -395V-397Q133 -394 143 -394Q154 -394 165 -395Q185 -395 193 -383Q196 -373 206 -355Q216 -337 219 -325Q214 -308 212 -290Q209 -271 201 -259H202Q207 -259 218 -265Q229 -271 236 -271Q237 -278 237 -285Q236 -311 234 -337Q234 -350 236 -356Q228 -399 227 -445Q226 -492 206 -521Q203 -525 194 -532Q180 -543 178 -550Q177 -553 177 -559Q177 -571 180 -579Q181 -585 187 -595Q196 -610 196 -618V-619Q196 -625 189 -634Q183 -642 183 -648V-650Q188 -649 194 -642Q200 -636 206 -635Q201 -658 180 -671L184 -672Q192 -672 204 -660Q213 -650 220 -648Q221 -650 221 -653Q217 -663 213 -673Q223 -669 229 -664Q235 -659 246 -659Q262 -662 278 -666Q284 -666 287 -665Q295 -663 309 -647Q318 -637 328 -623Q351 -592 351 -563Q351 -538 325 -535L319 -506Q325 -498 325 -480V-470Q320 -412 315 -346Q315 -335 317 -313L319 -312Q320 -312 330 -319Q333 -337 336 -355Q337 -378 337 -401Q338 -424 346 -442Q348 -415 351 -412L352 -414V-419L354 -421Q357 -421 358 -415Q359 -410 362 -409L365 -407Q369 -408 372 -410H373Q400 -382 412 -353Q425 -339 430 -328Q437 -333 446 -338L452 -355Q455 -363 462 -374Q475 -393 475 -403V-405Q474 -417 467 -426Q459 -435 452 -445Q452 -471 437 -476Q440 -488 443 -500Q442 -510 426 -525Q415 -536 412 -542H415Q431 -539 445 -532Q493 -555 532 -561Q536 -594 540 -627Q546 -646 552 -665V-669Q550 -696 532 -703H531Q524 -703 518 -695Q511 -686 505 -685Q508 -709 525 -726Q533 -734 563 -754Q585 -773 602 -784Q605 -785 612 -785Q628 -785 642 -769Q654 -765 675 -729Z"/>
</svg>