<svg xmlns="http://www.w3.org/2000/svg" viewBox="0 -800 1024 1024">
	<path fill="#000000" d="M300 -370Q279 -355 256 -336Q232 -317 229 -295Q233 -275 244 -253Q257 -220 260 -214Q273 -219 285 -224Q293 -297 300 -370ZM892 -632Q889 -626 882 -623Q876 -620 871 -617V-621Q871 -632 885 -634Q886 -634 892 -632ZM946 -426Q942 -419 937 -413Q931 -416 931 -423Q933 -435 940 -437Q945 -437 946 -426ZM807 -248Q806 -253 795 -266V-262Q795 -247 803 -247ZM699 -320Q701 -306 701 -300Q701 -293 699 -281Q733 -303 756 -308Q747 -317 730 -339Q713 -362 701 -372Q699 -369 699 -360V-343Q699 -335 698 -332ZM614 -253Q605 -278 595 -285Q605 -289 605 -307Q605 -315 602 -323Q582 -313 565 -293Q557 -284 536 -254Q538 -255 542 -255Q566 -250 590 -246Q603 -246 614 -253ZM711 -158V-161Q713 -179 714 -197Q714 -205 711 -213Q701 -205 661 -197Q631 -191 619 -185Q597 -175 597 -161Q598 -158 598 -156Q616 -168 645 -172Q673 -175 698 -180Q703 -168 711 -158ZM701 -98V-96Q700 -93 699 -91Q699 -89 703 -89Q705 -109 706 -130Q670 -125 635 -117Q604 -105 604 -89Q604 -74 605 -72Q618 -82 659 -88Q692 -93 701 -98ZM786 77H766Q738 77 710 76Q655 76 624 85L585 86Q557 93 539 109Q521 126 503 144Q485 132 464 119Q442 107 440 82Q440 75 443 66Q435 53 435 38Q435 14 460 -4Q479 -18 508 -24Q497 -17 494 -6Q497 0 503 0Q510 0 524 -7Q539 -12 623 -20Q689 -24 766 -25Q797 -26 828 -27Q833 -52 844 -71Q845 -68 845 -61Q845 -50 844 -39Q844 -29 849 -24H864Q861 -19 856 -15Q858 -8 868 -8Q875 -8 882 -9Q887 -9 890 -8Q881 -4 877 10Q883 15 890 17Q887 22 887 29Q887 39 890 46Q884 48 884 56V67Q875 88 866 108Q836 97 807 85ZM407 -446Q400 -434 404 -411L405 -409Q408 -410 411 -412L412 -410Q381 -363 376 -292L349 -190Q351 -187 355 -183Q459 -240 590 -397Q550 -392 524 -375Q507 -364 478 -332H475Q461 -332 452 -348Q444 -357 436 -364Q427 -372 423 -384Q423 -388 422 -392Q423 -396 423 -401L422 -405Q415 -425 407 -446ZM404 -472Q404 -476 406 -486Q410 -494 420 -504Q428 -512 430 -516Q433 -530 438 -540Q444 -549 459 -551Q473 -553 481 -556Q487 -559 498 -570Q512 -585 522 -586Q519 -581 512 -574Q505 -566 504 -557Q504 -552 507 -549Q509 -550 512 -556Q516 -564 522 -564Q516 -552 516 -551L517 -547H519Q534 -547 560 -554Q582 -560 601 -561Q603 -562 606 -566Q609 -570 612 -570L616 -569Q618 -577 618 -580Q618 -597 599 -632Q579 -669 579 -691V-696Q580 -713 589 -725Q598 -737 610 -750V-758Q610 -762 611 -764Q626 -782 664 -782Q694 -782 704 -767Q709 -760 710 -743Q712 -725 718 -717L720 -704Q724 -702 726 -692Q728 -681 732 -680Q731 -677 731 -671Q733 -660 734 -649V-647Q734 -640 725 -625Q717 -611 717 -601Q717 -597 718 -594Q722 -593 728 -593Q737 -593 760 -606Q763 -605 768 -605Q778 -605 794 -613Q807 -620 814 -621Q811 -609 811 -608Q816 -608 825 -612Q838 -618 847 -618H855Q847 -613 840 -608Q833 -603 832 -590V-588Q836 -583 842 -583Q853 -586 863 -590Q860 -584 855 -580Q850 -576 849 -569Q851 -563 858 -563L861 -564Q853 -556 848 -530Q844 -505 838 -497Q838 -493 841 -490Q844 -487 844 -485Q836 -473 832 -461Q827 -465 817 -465Q802 -463 786 -462Q779 -462 776 -463L762 -453Q748 -451 735 -450Q722 -449 715 -441Q728 -417 769 -384Q809 -352 822 -329L832 -318Q859 -298 886 -278Q889 -283 892 -288Q895 -280 901 -276Q913 -281 913 -316V-335Q913 -356 918 -366Q920 -364 920 -360Q919 -352 918 -344Q921 -319 924 -294V-291Q928 -303 928 -321Q928 -344 927 -367Q927 -391 934 -402Q937 -349 939 -296V-294Q938 -277 937 -260Q937 -246 942 -239Q947 -260 952 -282Q957 -250 962 -219Q966 -187 980 -165Q962 -131 957 -110Q950 -109 943 -109Q908 -110 888 -128Q868 -146 854 -171Q835 -214 807 -246Q804 -243 804 -240Q808 -231 812 -226Q807 -223 807 -221Q809 -213 811 -205Q811 -202 807 -196Q802 -189 802 -185Q787 -122 771 -59Q749 -51 678 -44Q629 -39 617 -36Q584 -35 550 -34Q540 -57 523 -78L518 -101Q508 -101 497 -116Q487 -130 481 -144V-149Q481 -156 486 -171Q492 -190 492 -197V-200Q459 -171 428 -129Q392 -80 379 -37H376Q359 -35 348 -26Q330 -46 325 -55Q315 -73 314 -95Q314 -98 314 -101Q315 -122 315 -143Q315 -162 316 -168Q306 -172 295 -176Q269 -161 269 -142Q269 -135 270 -132Q264 -124 242 -109Q204 -120 167 -134Q168 -138 168 -145Q167 -158 166 -171V-172Q148 -198 134 -216Q109 -228 83 -240Q57 -253 36 -270V-274Q33 -297 30 -320Q32 -342 42 -363Q53 -384 62 -405Q73 -448 84 -496Q86 -486 86 -477Q86 -468 85 -459Q85 -431 96 -422Q97 -424 97 -429Q96 -440 95 -451Q95 -457 99 -461V-460Q104 -427 118 -419Q121 -419 121 -427Q121 -434 120 -439L185 -418Q186 -425 193 -429Q200 -433 206 -437Q225 -452 244 -468Q264 -484 286 -496V-501Q286 -529 313 -540Q333 -548 363 -545Q374 -542 387 -518Q398 -497 404 -472Z"/>
</svg>