<svg xmlns="http://www.w3.org/2000/svg" viewBox="0 -800 1024 1024">
	<path fill="#000000" d="M809 -481Q811 -497 822 -497L826 -496Q826 -480 814 -480Q811 -480 809 -481ZM818 -87V-97Q824 -100 830 -104Q834 -102 835 -97Q828 -87 821 -78Q818 -80 818 -87ZM121 -266V-263Q120 -251 115 -241Q107 -243 107 -256Q107 -268 115 -268Q119 -268 121 -266ZM806 -144H805Q795 -144 795 -160Q795 -174 803 -174Q805 -174 809 -172Q810 -168 810 -165Q810 -156 806 -144ZM574 -245H567Q551 -245 540 -235Q529 -225 529 -211Q529 -207 531 -199Q552 -206 573 -214Q572 -223 570 -233Q570 -240 574 -245ZM497 -430V-455Q450 -453 447 -430Q434 -429 434 -412Q467 -424 497 -430ZM633 -368H624Q598 -368 582 -355Q565 -341 564 -316Q585 -320 610 -323Q624 -343 633 -368ZM496 -302V-304Q495 -310 494 -316Q489 -316 477 -310Q464 -304 455 -304Q452 -304 448 -305Q441 -311 435 -319Q425 -324 419 -325Q412 -326 410 -335Q409 -339 409 -346V-354Q409 -366 401 -371Q386 -344 367 -319Q349 -294 340 -265Q351 -272 360 -281Q370 -289 385 -293Q378 -285 376 -274V-272Q435 -282 496 -302ZM826 -53V-41Q832 13 836 25Q840 33 847 47Q854 61 855 78Q855 83 853 91Q849 107 828 118Q807 129 785 129Q777 129 774 128Q753 123 728 108Q699 90 693 74H691Q687 72 682 69Q634 14 573 -35L568 -44Q557 -49 545 -59Q529 -73 520 -76Q477 -49 460 -7Q453 9 445 25Q437 40 436 59Q436 64 438 74Q431 75 416 88H411Q400 88 388 87Q381 87 373 90L374 86Q373 77 364 72Q355 68 349 62Q348 58 348 50V32Q345 21 336 13Q331 9 316 -1Q288 -19 284 -35Q294 -32 310 -21Q327 -9 340 -6Q327 -30 303 -43Q280 -56 266 -78Q295 -62 326 -41Q337 -32 351 -30Q355 -30 359 -31Q372 -33 394 -58Q409 -73 422 -94Q419 -100 409 -107Q395 -117 395 -128V-133Q396 -138 400 -143Q407 -153 408 -160Q419 -174 434 -185Q444 -183 447 -183Q462 -183 476 -194V-211Q426 -201 410 -195Q376 -182 367 -157H361Q338 -157 324 -172Q314 -183 305 -207Q294 -200 289 -188Q284 -177 278 -167Q251 -128 226 -87Q217 -64 207 -41Q192 -18 183 8Q182 36 168 63Q154 72 136 72H133Q117 69 108 55Q99 40 90 28Q85 23 78 18Q71 13 70 8L69 4Q73 -7 76 -18V-20Q72 -34 68 -48V-49Q72 -59 75 -70V-75Q74 -88 73 -101Q73 -112 78 -118Q83 -101 87 -84Q97 -98 99 -120Q101 -142 103 -169Q106 -181 109 -194V-213Q109 -227 117 -230Q119 -214 119 -203Q118 -169 116 -135Q116 -124 117 -119Q132 -126 150 -152Q165 -174 176 -181Q211 -230 248 -277Q285 -325 312 -382Q316 -384 320 -386Q310 -385 294 -380Q276 -374 268 -374Q260 -374 252 -377Q247 -379 240 -389Q234 -398 229 -401Q216 -408 207 -410Q195 -419 195 -437Q195 -442 204 -484Q196 -509 183 -529Q188 -529 192 -525Q196 -521 199 -521Q199 -528 190 -535Q180 -543 180 -552V-553Q191 -547 201 -541Q200 -550 188 -560Q175 -571 174 -583Q182 -579 195 -569Q213 -555 225 -551Q250 -565 287 -565H300Q399 -589 497 -613Q496 -632 483 -644Q473 -653 454 -661Q453 -676 442 -685Q431 -694 415 -694Q412 -694 402 -692Q406 -706 417 -717Q428 -728 438 -739Q432 -742 425 -746Q446 -759 473 -779Q490 -793 505 -805Q520 -817 546 -818Q552 -817 558 -817Q569 -816 586 -809Q599 -753 638 -734Q637 -732 637 -729Q637 -725 644 -713Q638 -708 632 -696Q622 -677 613 -674Q608 -662 608 -650V-644Q683 -658 759 -679H760Q764 -676 767 -674Q777 -680 792 -682H795Q794 -680 794 -675Q794 -667 800 -661H803Q827 -664 850 -668H856Q847 -662 837 -658Q828 -654 824 -643Q825 -636 834 -636Q843 -637 852 -638H854Q844 -627 842 -610V-607Q844 -604 845 -604Q848 -604 850 -605H851Q847 -598 842 -592Q844 -583 847 -578Q838 -563 829 -549Q819 -536 814 -518Q800 -520 792 -520Q734 -515 678 -499Q621 -486 571 -472Q582 -464 589 -452H590Q601 -452 619 -465Q630 -473 636 -475Q645 -478 653 -478Q665 -477 676 -476Q684 -476 688 -478Q711 -477 726 -467Q741 -458 755 -448Q758 -448 760 -451Q763 -455 767 -455Q768 -451 770 -448Q775 -450 783 -457Q796 -468 805 -470L806 -468Q800 -461 794 -455Q790 -448 785 -433L787 -432Q791 -435 795 -438L798 -437Q795 -431 795 -426Q795 -417 806 -403Q813 -393 815 -388Q812 -375 809 -363V-362Q813 -361 821 -361Q856 -361 885 -382Q887 -374 888 -367Q895 -369 901 -371H903Q903 -362 906 -355L910 -354Q915 -354 920 -355L924 -354V-353Q921 -347 918 -341Q932 -333 932 -318Q932 -301 916 -276H909Q862 -277 814 -279Q767 -279 744 -268Q727 -260 717 -239Q715 -235 702 -197Q694 -193 685 -190Q689 -182 689 -173Q689 -168 684 -141Q630 -130 617 -122Q648 -97 679 -69Q710 -42 752 -26Q759 -29 763 -41Q768 -54 773 -56Q771 -50 771 -46Q771 -33 779 -25Q782 -34 782 -63Q783 -105 789 -118Q794 -68 798 -19Q802 -32 802 -50Q801 -81 799 -112Q799 -128 801 -136Q808 -123 809 -106Q809 -88 811 -70Q813 -33 814 3Q821 -8 821 -26Q820 -49 818 -73Q826 -68 826 -53Z"/>
</svg>