<svg xmlns="http://www.w3.org/2000/svg" viewBox="0 -800 1024 1024">
	<path fill="#000000" d="M515 -41Q516 -58 510 -67L472 -57Q474 -47 476 -37Q479 -36 485 -36Q488 -36 515 -41ZM514 -178Q514 -186 510 -189Q487 -186 474 -171Q461 -157 449 -142Q453 -130 456 -119Q463 -136 480 -141Q497 -147 513 -155V-160Q514 -169 514 -178ZM706 -237Q626 -237 596 -212V-189Q599 -190 602 -192Q608 -190 613 -188Q620 -192 625 -198Q630 -204 639 -205Q636 -194 632 -183Q632 -178 633 -176H636Q646 -180 656 -184Q660 -184 662 -183Q652 -172 645 -158Q645 -154 649 -150Q651 -148 652 -146Q642 -141 638 -127Q635 -113 630 -101Q628 -102 625 -102Q619 -102 609 -96Q599 -90 590 -90Q587 -90 583 -91Q577 -67 577 -62Q577 -58 579 -50Q586 -54 603 -55Q618 -56 624 -60Q635 -69 656 -129Q669 -146 685 -189Q698 -223 706 -237ZM84 -199Q84 -185 76 -185Q73 -195 69 -206Q69 -209 71 -213L74 -214Q84 -214 84 -199ZM852 -463Q850 -455 850 -447Q850 -438 843 -437H842Q840 -443 840 -449Q840 -464 848 -464ZM718 -496V-494Q706 -491 681 -491L668 -489Q640 -473 566 -464Q524 -454 495 -447Q490 -438 488 -425V-422Q482 -420 473 -408Q453 -378 406 -317Q399 -308 383 -281Q384 -279 385 -277Q439 -283 507 -306Q502 -354 487 -396Q491 -397 495 -398H498Q509 -421 527 -431Q533 -437 541 -446Q550 -456 554 -457H555Q562 -457 576 -448Q597 -434 610 -441Q613 -435 610 -409Q608 -388 616 -385Q614 -367 614 -356Q614 -346 616 -334Q658 -342 699 -351Q751 -361 763 -366Q777 -374 790 -383Q807 -391 819 -400Q823 -404 828 -413Q835 -426 841 -430V-429Q839 -413 837 -398Q837 -390 839 -386Q848 -389 865 -405Q885 -424 899 -427Q880 -408 877 -404Q866 -389 864 -370Q870 -372 875 -379Q883 -389 888 -389Q879 -373 879 -361Q879 -354 882 -347H883Q885 -347 888 -351Q892 -357 896 -357H898L894 -336Q895 -328 905 -326Q906 -304 923 -276Q920 -250 917 -225Q915 -218 904 -208Q894 -199 892 -193Q889 -194 882 -194Q868 -194 855 -179L858 -177H861L864 -175Q859 -171 850 -166Q837 -159 832 -152Q827 -147 824 -138Q820 -130 812 -128L790 -81Q782 -34 760 2Q738 45 725 84V96Q717 96 715 101L716 103Q713 102 709 102Q695 102 694 112Q691 102 679 102Q671 102 670 106Q634 91 616 36Q599 28 573 28Q520 29 490 56Q482 65 475 73Q469 80 460 81H458Q433 79 421 57Q408 36 388 24Q391 16 396 9Q395 -5 384 -26Q375 -42 375 -52L366 -81Q353 -84 349 -97Q345 -111 333 -114Q332 -123 321 -132Q312 -139 310 -146Q312 -154 313 -163Q260 -98 205 3Q194 26 183 51Q173 76 157 98Q151 95 136 92Q122 90 116 85Q110 79 106 70Q102 62 93 61H91Q88 31 73 7Q74 4 74 0Q70 -16 64 -31Q64 -34 63 -37Q67 -59 71 -82Q69 -92 69 -95Q69 -99 70 -102Q77 -100 80 -83Q82 -68 88 -65Q82 -107 79 -157Q79 -170 80 -176Q87 -169 89 -157Q90 -146 91 -134Q98 -99 98 -90Q104 -93 104 -100Q100 -116 95 -133Q95 -138 98 -141Q105 -137 108 -117Q111 -96 119 -91Q148 -109 191 -162Q196 -171 204 -181Q211 -190 226 -191L261 -234Q268 -256 283 -273Q330 -344 363 -406Q322 -404 295 -388Q283 -379 270 -366Q258 -353 242 -352H239Q220 -356 207 -369Q195 -383 178 -398Q168 -404 152 -407Q137 -410 132 -424Q130 -430 130 -441Q130 -466 151 -501V-505Q151 -527 165 -559Q180 -568 209 -595Q241 -626 265 -636Q262 -629 245 -614Q231 -601 231 -591Q231 -588 233 -582Q239 -584 245 -592Q254 -604 264 -604Q257 -596 257 -589Q257 -575 288 -575Q319 -575 401 -593Q469 -608 489 -608Q485 -640 478 -652Q469 -668 446 -674V-678Q443 -687 440 -697Q454 -709 465 -725Q476 -742 487 -757Q506 -791 551 -800Q566 -759 612 -750Q614 -740 616 -730V-726L618 -716Q627 -713 629 -704Q632 -695 637 -688Q630 -681 630 -675Q630 -670 628 -661Q627 -657 620 -652Q609 -643 609 -633Q609 -628 610 -626Q735 -646 839 -671H840Q844 -669 847 -667Q857 -670 866 -675Q875 -680 888 -680H893Q892 -675 880 -666Q868 -656 868 -650Q868 -646 872 -642Q877 -643 880 -648Q885 -655 891 -655H892V-654Q892 -649 886 -643Q880 -637 880 -630Q880 -614 883 -610Q891 -613 899 -616V-614Q895 -599 890 -584Q890 -576 898 -573Q891 -562 887 -552Q887 -548 890 -544Q878 -530 852 -506Q841 -507 818 -507Q788 -504 758 -502Z"/>
</svg>