<svg xmlns="http://www.w3.org/2000/svg" viewBox="0 -800 1024 1024">
	<path fill="#000000" d="M737 -110H738Q756 -116 766 -137Q772 -162 777 -197Q788 -228 799 -260Q801 -275 802 -290Q814 -326 814 -334Q814 -343 812 -348Q809 -351 805 -351Q802 -351 796 -348Q765 -335 735 -320Q711 -233 693 -140Q698 -138 710 -126Q726 -110 737 -110ZM343 -616Q301 -596 285 -586Q256 -568 240 -545Q244 -545 244 -543V-542Q234 -537 234 -532L235 -531Q254 -536 273 -540Q293 -545 304 -558H309Q319 -557 328 -557H333Q333 -569 343 -616ZM500 -194H504Q500 -181 489 -173Q488 -176 488 -182Q488 -194 500 -194ZM798 -753Q803 -750 805 -735Q810 -728 825 -718Q839 -709 843 -704Q839 -682 834 -660Q810 -654 801 -628Q791 -603 785 -573Q774 -529 772 -496Q833 -511 866 -552Q869 -549 871 -542Q875 -531 879 -528Q886 -538 893 -548Q899 -558 913 -562V-560Q913 -555 904 -545Q891 -530 891 -520Q891 -518 893 -512Q900 -507 908 -504Q911 -505 917 -511Q924 -518 931 -518Q922 -507 922 -496Q922 -482 935 -468Q947 -455 962 -453Q974 -458 990 -461Q975 -453 975 -431Q975 -415 981 -405Q959 -396 957 -371Q957 -362 963 -353Q920 -331 910 -291L893 -242Q896 -236 896 -228Q894 -208 885 -189Q872 -141 872 -93Q872 -55 880 -30Q869 -15 857 -1Q844 13 839 33H837Q814 34 803 47Q792 60 780 72V56Q780 43 774 39H772Q748 38 737 24Q726 11 710 1Q717 -12 717 -28Q717 -57 699 -80H701Q705 -80 709 -76Q713 -73 717 -72Q710 -87 687 -108L657 -17V-10Q657 3 652 25Q645 56 645 71Q646 77 646 83Q615 90 584 97Q541 70 487 53Q485 49 518 52Q548 56 544 53Q526 38 482 25Q486 23 491 23Q508 26 524 29Q516 17 470 12Q438 9 427 4Q441 0 478 0Q524 0 540 -9Q590 -125 627 -260Q602 -249 580 -236Q544 -246 524 -263Q523 -263 516 -264Q508 -265 504 -271Q496 -288 501 -332Q498 -351 511 -368Q573 -459 592 -469Q585 -447 565 -408L675 -455V-461Q675 -499 695 -601Q702 -635 672 -663Q674 -669 675 -675Q669 -678 664 -678Q651 -677 641 -665Q631 -653 624 -648Q636 -716 711 -774Q743 -798 764 -798Q771 -798 775 -797Q782 -788 784 -780L783 -777ZM334 -160Q348 -162 356 -162Q379 -162 396 -155Q401 -156 406 -157Q425 -150 443 -143Q462 -155 481 -167Q481 -162 474 -155Q464 -145 464 -138Q465 -132 468 -130Q470 -128 477 -128H482Q493 -129 511 -143Q531 -159 543 -159H547Q544 -156 519 -141Q501 -130 501 -120Q501 -117 502 -114Q504 -102 518 -94Q527 -95 535 -96Q529 -93 522 -90Q514 -87 511 -81Q518 -70 518 -59Q518 -48 510 -35Q493 -23 476 -11Q465 -21 437 -26Q417 -30 399 -45Q378 -62 370 -85L354 -95Q338 -99 324 -113Q316 -80 294 -27Q273 1 237 13H235Q227 13 214 4Q200 -6 193 -6Q189 -5 176 -5Q178 -12 182 -12Q182 -17 175 -22Q169 -27 169 -33Q123 -52 82 -63Q91 -64 111 -60Q131 -56 140 -55H149Q86 -74 28 -97Q70 -90 107 -80Q144 -72 157 -72Q122 -93 9 -132Q126 -110 185 -83Q233 -96 252 -124Q281 -191 274 -240Q275 -241 275 -249Q275 -253 272 -259Q261 -256 254 -248Q250 -223 250 -191Q256 -166 246 -146Q243 -140 218 -129Q208 -132 194 -141Q178 -151 169 -154Q151 -183 133 -213Q140 -222 144 -231L154 -249Q146 -252 146 -258Q145 -264 145 -267Q135 -318 103 -361Q95 -372 86 -383Q86 -385 85 -388Q88 -404 103 -418Q91 -436 91 -442Q92 -444 92 -447Q98 -442 106 -435Q114 -427 122 -426Q129 -426 135 -435Q148 -435 178 -428Q199 -423 209 -423Q213 -423 216 -424L247 -435Q275 -466 360 -489Q355 -493 340 -496Q323 -500 317 -507Q232 -494 220 -455Q215 -454 205 -454Q157 -456 136 -484Q115 -512 100 -543V-545Q100 -555 95 -571Q90 -587 90 -595Q90 -642 107 -658V-641Q107 -631 110 -629Q117 -632 125 -649Q126 -647 127 -645Q125 -636 123 -627Q131 -630 210 -670Q268 -698 298 -698H304L355 -732Q367 -755 419 -755Q459 -755 474 -740Q478 -742 482 -742H485Q484 -741 484 -736Q484 -731 485 -729L487 -727Q491 -728 495 -730L496 -729Q494 -719 492 -710Q492 -705 494 -703Q502 -704 514 -708Q529 -713 539 -713Q532 -707 524 -703Q515 -699 511 -691Q516 -652 524 -614Q507 -614 496 -601Q493 -602 489 -602Q479 -599 468 -596Q466 -600 466 -603Q466 -607 469 -616L446 -578Q446 -570 439 -557Q429 -538 429 -528Q458 -530 485 -526Q493 -531 502 -538Q510 -545 524 -547Q509 -536 509 -525Q509 -521 512 -515H513Q517 -517 520 -519L521 -518Q518 -506 518 -504Q518 -496 525 -492Q535 -497 548 -497V-496Q548 -493 540 -488Q531 -482 531 -477Q531 -474 533 -472L535 -471Q539 -472 543 -474H545Q536 -466 536 -452Q536 -436 539 -434Q533 -413 517 -401Q501 -389 494 -367L483 -349Q476 -320 471 -302Q465 -284 464 -253Q466 -228 468 -203Q468 -187 461 -173Q455 -170 449 -170Q440 -171 430 -172Q426 -172 424 -171Q384 -174 370 -208Q373 -229 376 -251Q377 -299 377 -348Q379 -363 381 -379Q381 -386 379 -391Q349 -379 312 -360Q274 -341 265 -311Q259 -287 256 -262Q262 -271 268 -280Q273 -298 281 -311Q292 -322 308 -324Q325 -329 344 -324Q353 -321 363 -309Q365 -306 367 -299Q369 -290 374 -286Q367 -287 359 -289Q354 -289 351 -285Q351 -284 355 -266V-263Q355 -258 350 -245Q345 -232 345 -223Q344 -216 334 -160Z"/>
</svg>