<svg xmlns="http://www.w3.org/2000/svg" viewBox="0 -800 1024 1024">
	<path fill="#000000" d="M731 -137Q724 -135 703 -132Q679 -129 668 -124Q639 -113 639 -97Q639 -92 640 -90Q651 -100 688 -105Q719 -109 727 -115V-113Q726 -110 725 -108Q725 -106 729 -106Q730 -121 731 -137ZM739 -202Q739 -210 736 -218Q726 -209 689 -201Q661 -195 653 -191Q633 -181 633 -167Q634 -164 634 -162Q650 -174 676 -178Q701 -181 724 -186Q729 -174 736 -164V-167Q738 -184 739 -202ZM648 -257Q641 -280 631 -289Q640 -293 640 -310Q640 -316 638 -326Q621 -316 604 -296Q595 -285 577 -258Q579 -259 583 -259Q605 -254 627 -250Q638 -250 648 -257ZM725 -323Q727 -309 727 -303Q727 -297 725 -285Q753 -306 777 -311Q766 -323 753 -341Q735 -366 727 -374Q725 -371 725 -362V-346Q725 -338 724 -335ZM804 66H786Q762 66 737 65Q690 65 663 74L628 75Q604 82 589 98Q573 114 558 132Q542 119 523 107Q505 95 503 71Q503 61 505 55Q498 42 498 28Q498 5 520 -13Q537 -27 562 -33Q551 -26 549 -15Q554 -9 558 -9Q564 -9 576 -16Q620 -23 664 -30Q727 -33 798 -34Q819 -35 840 -36Q845 -60 854 -79Q855 -76 855 -69Q855 -58 854 -48Q854 -38 858 -33H872Q869 -28 864 -24Q866 -17 875 -17Q881 -17 887 -18Q891 -18 894 -17Q886 -13 883 0Q888 5 894 7Q891 12 891 19Q891 29 894 36Q889 39 889 46V56Q881 77 873 97Q847 86 822 74ZM467 -212Q545 -281 634 -398Q600 -394 568 -365Q555 -353 520 -311H517Q511 -312 506 -320Q502 -328 497 -337Q484 -351 477 -372V-380Q478 -384 478 -389L477 -392Q474 -405 466 -420Q458 -435 457 -454Q457 -460 459 -472Q468 -486 477 -501Q481 -513 484 -525Q490 -535 497 -535Q505 -535 518 -540Q523 -543 532 -554Q544 -569 553 -570Q551 -565 545 -558Q539 -550 538 -541Q538 -538 540 -534Q542 -535 545 -541Q548 -548 553 -548Q551 -542 548 -536L549 -532H551Q576 -534 607 -548Q628 -558 643 -559Q645 -560 647 -564Q649 -568 652 -568L656 -567Q657 -571 657 -578Q657 -596 641 -629Q623 -666 623 -687V-692Q629 -721 651 -745V-758Q664 -776 697 -776Q725 -776 732 -761Q737 -753 738 -737Q739 -719 744 -712L746 -699Q750 -698 751 -688Q752 -677 757 -676Q756 -673 756 -667Q758 -656 759 -646V-644Q759 -636 751 -622Q743 -607 743 -598Q743 -595 744 -592Q748 -591 754 -591Q762 -591 781 -603Q783 -602 788 -602Q798 -602 811 -610Q822 -617 828 -618Q825 -606 825 -605Q830 -605 838 -609Q849 -615 856 -615H863Q857 -610 851 -605Q844 -600 844 -588V-586Q847 -581 852 -581Q862 -584 871 -588Q868 -582 863 -578Q859 -574 858 -567Q860 -561 866 -561L869 -562Q862 -554 858 -528Q854 -506 849 -497Q852 -491 854 -485Q846 -471 844 -461Q839 -465 831 -465Q818 -463 804 -462Q798 -462 795 -463L782 -453Q770 -451 759 -450Q748 -449 742 -442Q753 -419 789 -386Q823 -355 835 -332L844 -321Q867 -301 890 -282Q893 -287 896 -292Q898 -284 903 -280Q914 -285 914 -319V-338Q914 -358 919 -368Q920 -366 920 -362Q920 -354 919 -347Q922 -322 924 -298V-295Q927 -307 927 -324Q927 -346 926 -369Q926 -393 932 -403Q934 -351 936 -299V-298Q936 -281 935 -264Q935 -251 939 -244Q943 -265 947 -286Q952 -255 956 -224Q961 -193 972 -171Q957 -140 953 -117Q947 -116 940 -116Q911 -117 893 -133Q876 -149 865 -173Q847 -217 822 -250Q819 -248 819 -245Q823 -236 826 -231Q822 -229 822 -226Q824 -218 825 -210Q821 -202 817 -191Q805 -117 790 -79Q778 -50 756 -53L721 -55Q686 -55 651 -45Q644 -43 633 -36Q622 -29 612 -30Q609 -44 596 -58Q584 -73 575 -86L571 -108Q563 -108 552 -123Q543 -136 538 -150V-155Q543 -178 548 -202V-205Q497 -154 469 -46H466Q451 -43 442 -32Q413 -67 412 -99V-105Q413 -127 414 -149Q414 -154 414 -160Q413 -160 411 -162Q407 -161 407 -154V-145Q399 -149 398 -157Q396 -166 392 -172Q382 -171 360 -162Q339 -154 326 -153L280 -133Q263 -120 216 -99Q166 -76 145 -58Q142 -40 127 -22Q120 -19 113 -19Q100 -20 89 -27Q77 -34 65 -39Q57 -53 46 -90Q35 -125 26 -142Q27 -147 33 -153Q40 -160 40 -166Q60 -179 72 -200Q84 -220 97 -241L118 -311Q118 -315 118 -319Q118 -328 117 -332Q115 -346 109 -355Q103 -363 98 -372Q111 -365 120 -361H121Q125 -362 125 -364Q123 -368 120 -372L121 -373Q133 -371 138 -371Q154 -372 169 -373Q189 -373 198 -363Q201 -353 211 -336Q223 -315 226 -301Q220 -267 207 -237H210Q214 -237 222 -242Q232 -248 239 -248Q242 -247 244 -247Q246 -259 246 -265Q244 -291 242 -317Q242 -330 244 -335Q238 -394 231 -450Q223 -501 185 -520Q181 -528 181 -537Q181 -548 192 -570Q201 -588 201 -598V-599Q201 -604 194 -612Q188 -619 187 -626Q193 -626 201 -619Q207 -613 214 -613Q212 -623 185 -652Q196 -651 209 -638Q219 -629 228 -626Q229 -628 229 -631Q229 -635 224 -641Q220 -647 219 -651Q226 -649 234 -645Q246 -639 255 -638Q274 -641 293 -645Q299 -645 302 -644Q311 -642 343 -607Q374 -572 374 -543Q374 -519 345 -511L339 -482Q342 -465 342 -448Q338 -390 334 -332Q334 -305 337 -291Q350 -298 354 -314Q358 -330 358 -349Q355 -392 367 -419Q369 -399 373 -392Q376 -394 375 -397Q375 -401 377 -401H379Q382 -391 385 -389H388Q411 -387 425 -368Q440 -348 453 -332Q475 -297 472 -245Q469 -235 467 -212Z"/>
</svg>