<svg xmlns="http://www.w3.org/2000/svg" viewBox="0 -800 1024 1024">
	<path fill="#000000" d="M649 -323Q640 -325 637 -333Q634 -341 631 -348Q614 -380 597 -396Q598 -409 603 -421Q663 -452 678 -504Q681 -502 681 -490Q681 -473 689 -473H692Q698 -475 703 -477Q716 -463 727 -449Q739 -434 758 -427Q762 -409 776 -393Q773 -385 773 -375Q773 -368 774 -365Q763 -351 754 -301Q747 -262 745 -228Q744 -218 744 -197Q745 -166 745 -135Q720 -133 697 -123Q693 -115 692 -105Q684 -108 684 -117Q672 -131 666 -131H665Q663 -134 662 -137Q661 -141 656 -141H653Q651 -183 649 -226ZM217 -46Q213 -44 210 -44Q201 -45 191 -47H189Q187 -53 185 -60Q187 -61 190 -61Q206 -57 217 -46ZM315 -163Q311 -144 308 -116Q303 -72 299 -57Q295 -57 291 -58Q286 -58 283 -54Q274 -56 264 -63Q261 -61 261 -58Q249 -65 230 -69Q228 -83 224 -95Q221 -108 208 -109H207Q211 -116 221 -117Q220 -147 217 -159Q213 -176 200 -188Q201 -208 209 -227Q210 -229 224 -260Q244 -262 256 -270Q267 -278 278 -288Q281 -287 281 -284Q281 -280 280 -276Q280 -272 283 -271H284Q287 -271 287 -275Q287 -280 289 -280H290Q300 -262 312 -255Q325 -248 339 -236Q336 -227 333 -218V-216Q324 -215 322 -197Q320 -181 314 -179ZM598 -670Q594 -662 574 -656L573 -660Q573 -666 578 -670Q583 -674 588 -674Q595 -674 598 -670ZM946 -657L951 -670Q950 -665 946 -657ZM935 -629L926 -605V-600Q922 -574 917 -548V-520Q917 -502 911 -462Q906 -429 905 -409Q904 -325 900 -242L899 -116Q907 -113 907 -106Q905 -97 903 -89Q906 -78 909 -68Q912 -41 914 -14Q925 28 929 59V64Q928 74 918 90Q908 105 908 116V120Q904 121 898 125Q887 132 882 132Q875 129 868 126H864Q852 128 839 130H837Q830 129 819 121Q806 111 799 111Q791 91 768 78Q764 76 723 58Q724 54 729 54Q737 58 745 61Q748 62 772 68Q756 51 731 38Q705 25 684 11H686Q705 13 726 23Q754 34 757 34Q760 34 764 32Q760 23 751 17Q742 12 733 8Q681 -20 628 -49Q657 -43 705 -24Q749 -6 769 -1Q767 -8 756 -12Q744 -16 742 -22Q757 -20 772 -19Q780 -19 785 -20Q797 -74 797 -135Q797 -197 799 -263Q801 -305 803 -347Q808 -489 816 -629Q809 -639 795 -639Q786 -639 781 -638L779 -641Q780 -644 781 -647Q781 -650 778 -650Q765 -649 753 -628Q744 -614 738 -611V-614Q738 -623 749 -638Q760 -653 760 -664Q757 -677 754 -691V-695Q755 -699 772 -724Q781 -738 789 -749Q797 -761 809 -771Q817 -775 825 -779Q832 -786 838 -793Q845 -797 863 -798Q882 -800 890 -803Q911 -802 924 -793Q937 -784 950 -775Q960 -734 965 -688Q965 -666 957 -653Q953 -646 948 -639Q944 -632 935 -629ZM571 -370Q575 -344 577 -316Q579 -288 600 -278Q605 -259 618 -254Q617 -252 617 -248Q620 -238 627 -230Q628 -228 628 -224Q627 -215 626 -207Q626 -201 629 -197Q618 -186 618 -174Q618 -171 620 -165Q612 -162 609 -156Q606 -149 603 -141Q591 -139 586 -139Q567 -139 545 -150Q538 -154 510 -170Q499 -174 488 -179Q479 -188 453 -208Q450 -187 450 -167Q450 -142 453 -114L464 -47Q467 -26 470 -6Q472 14 481 28Q469 38 466 57Q463 76 458 92Q456 93 451 93Q442 92 432 91Q425 91 422 95Q416 85 404 82Q393 78 381 71Q371 60 360 49Q354 47 348 46Q342 45 339 38H348Q353 38 354 37Q351 27 341 26Q331 24 321 21Q299 12 285 8Q289 8 293 7Q318 10 342 16Q336 13 262 -15Q265 -16 272 -16Q283 -16 308 -7Q331 1 343 1H346Q327 -6 293 -16Q248 -29 225 -40Q244 -39 276 -30Q312 -20 328 -20Q350 -20 367 -29Q370 -39 370 -63V-78Q374 -130 377 -183Q377 -199 376 -207Q377 -225 377 -243Q377 -252 375 -266Q363 -278 352 -280Q343 -292 323 -302Q314 -307 286 -319Q257 -301 216 -260Q179 -223 158 -194Q166 -193 137 -182Q78 -159 83 -154Q63 -164 49 -164Q52 -168 52 -173Q50 -179 44 -189Q49 -197 49 -203Q49 -210 42 -222Q32 -239 31 -241H36Q52 -241 52 -262Q52 -258 57 -261Q73 -272 77 -270Q85 -271 98 -277Q113 -284 118 -284L183 -328Q187 -337 202 -344Q222 -354 226 -357Q216 -367 216 -376Q216 -387 228 -396Q240 -405 255 -405Q268 -405 277 -400Q308 -410 337 -447H334Q317 -446 303 -442Q289 -437 278 -435L262 -432Q249 -426 236 -416Q223 -406 207 -405Q198 -406 191 -412Q185 -419 177 -423Q161 -430 148 -435Q135 -440 133 -462Q135 -473 136 -485Q136 -497 130 -514Q125 -528 125 -535Q125 -541 130 -551Q146 -568 168 -581Q194 -590 220 -594Q216 -593 216 -588Q216 -576 228 -575H232Q243 -575 261 -583Q279 -591 292 -591H295V-596Q295 -609 291 -616Q287 -624 285 -632L280 -646Q271 -647 267 -654Q263 -660 258 -666Q249 -673 240 -680Q244 -688 244 -696Q244 -705 241 -713Q249 -728 284 -742Q298 -748 314 -759Q330 -770 350 -771H355Q369 -770 385 -754Q399 -739 415 -717Q440 -689 440 -674V-673Q440 -664 434 -659Q428 -654 420 -650Q402 -645 399 -628Q399 -620 401 -615Q419 -621 470 -630Q537 -642 562 -653Q557 -643 551 -634Q555 -631 558 -625Q577 -628 595 -632Q592 -628 583 -625Q571 -621 570 -613Q573 -612 575 -612Q580 -612 585 -613Q589 -613 591 -612Q565 -604 562 -577Q564 -572 568 -572Q575 -573 581 -575H585Q569 -571 569 -547Q569 -540 571 -534Q553 -520 503 -509Q449 -498 432 -482Q434 -477 442 -471Q449 -465 451 -462Q449 -454 449 -450Q449 -447 451 -435Q433 -430 433 -411Q399 -401 358 -369Q362 -367 377 -362Q393 -375 405 -377Q422 -374 433 -363Q443 -353 453 -341Q463 -331 473 -321Q485 -315 502 -303Q506 -303 510 -304Q511 -304 512 -304Q512 -303 510 -301Q510 -300 512 -300Q519 -303 521 -310Q523 -318 527 -324Q529 -321 531 -312Q533 -299 538 -299Q543 -299 543 -322Q542 -345 541 -368V-382Q541 -411 547 -421Q550 -387 553 -352Q556 -317 565 -290Q570 -292 570 -299Q569 -306 568 -313Q567 -334 567 -375Q566 -376 566 -380Q566 -393 575 -393H576Q577 -391 577 -388Q576 -378 571 -370Z"/>
</svg>