<svg xmlns="http://www.w3.org/2000/svg" viewBox="0 -800 1024 1024">
	<path fill="#000000" d="M687 -488H695Q695 -491 690 -494V-493Q689 -490 687 -488ZM277 -70H275Q259 -70 253 -86Q256 -89 258 -89Q262 -89 269 -79Q274 -71 277 -70ZM954 -668Q954 -663 947 -654Q944 -650 942 -644Q937 -647 937 -655Q938 -668 948 -670Q950 -670 954 -668ZM542 45V49Q520 62 517 91Q501 94 490 103Q479 111 468 120Q447 112 426 105Q405 98 394 82Q380 32 349 0Q318 -32 284 -61Q302 -56 332 -33Q358 -13 372 -7Q352 -30 305 -70Q253 -114 234 -136Q258 -123 301 -91Q355 -52 385 -37Q383 -44 371 -52Q359 -60 357 -68Q380 -63 416 -52Q445 -77 463 -112Q481 -147 498 -184Q411 -180 366 -113Q353 -122 341 -122Q335 -122 330 -119Q325 -126 313 -134Q300 -143 296 -149Q291 -156 289 -171Q287 -188 283 -194Q319 -234 323 -239Q345 -267 354 -293Q327 -287 251 -257Q241 -260 227 -273Q218 -281 212 -285Q204 -297 204 -314Q204 -316 210 -358Q206 -357 195 -357H173Q143 -357 136 -344Q135 -380 87 -400Q86 -411 77 -428Q68 -445 68 -453Q68 -461 74 -470Q66 -483 45 -506Q23 -529 15 -544Q27 -544 36 -529Q50 -522 60 -512Q70 -502 81 -493Q79 -498 72 -506Q60 -519 58 -526Q68 -524 80 -516Q93 -508 99 -506Q157 -536 202 -579Q247 -622 293 -664V-666Q293 -674 299 -678Q304 -682 308 -688H311Q333 -691 346 -701Q352 -698 357 -698Q373 -701 391 -709Q389 -703 387 -697Q387 -694 389 -692Q391 -691 394 -691Q399 -691 407 -699Q417 -708 425 -709Q415 -698 413 -679V-676Q414 -672 421 -670Q419 -664 419 -662Q419 -657 422 -653Q417 -603 386 -566Q371 -546 361 -527Q353 -515 326 -489Q301 -465 290 -448Q283 -447 277 -439Q271 -431 271 -422Q271 -413 280 -410H283Q286 -410 314 -417Q421 -439 524 -470Q590 -484 634 -502Q638 -522 641 -530Q646 -527 649 -514Q653 -500 660 -497Q671 -499 681 -502Q635 -550 588 -599Q573 -616 557 -634Q504 -679 486 -700Q470 -714 454 -728Q456 -734 456 -735Q455 -742 444 -746Q469 -788 505 -788Q517 -788 528 -784Q550 -775 570 -757Q590 -739 608 -722Q733 -610 852 -541Q870 -552 888 -590Q902 -619 911 -629Q908 -614 895 -582Q882 -550 878 -527Q890 -540 907 -582Q923 -620 934 -635Q932 -616 917 -580Q901 -542 899 -517Q906 -521 912 -538Q919 -558 930 -562Q915 -527 911 -492Q911 -485 912 -481Q917 -468 921 -455V-452Q921 -446 920 -440Q923 -426 925 -412Q924 -373 882 -343Q880 -337 878 -331Q874 -331 872 -338Q860 -340 842 -350Q827 -359 817 -361Q809 -380 776 -391Q766 -416 745 -440Q742 -444 705 -479Q703 -471 703 -464Q703 -458 705 -452Q706 -450 709 -450Q713 -451 717 -452Q713 -444 708 -438Q703 -431 703 -420V-415L705 -414Q709 -415 712 -416L714 -415Q713 -403 712 -392Q712 -388 714 -382Q694 -368 684 -346Q674 -347 653 -347Q585 -347 517 -332Q481 -324 464 -307Q446 -289 441 -251Q443 -252 525 -282Q543 -288 578 -288Q586 -287 594 -287Q608 -282 621 -278H622Q628 -279 637 -291Q645 -302 651 -302H652Q638 -274 638 -266Q638 -262 640 -256L642 -255Q644 -255 648 -260Q651 -264 652 -264L653 -263Q653 -247 652 -232Q652 -222 653 -216Q658 -220 663 -224L665 -223Q662 -217 662 -204V-199Q662 -189 660 -184Q656 -172 634 -153Q620 -141 613 -131Q598 -111 573 -62Q546 -20 542 45Z"/>
</svg>