<svg xmlns="http://www.w3.org/2000/svg" viewBox="0 -800 1024 1024">
	<path fill="#000000" d="M916 -557H918V-555Q918 -548 908 -536Q905 -540 905 -545Q906 -555 916 -557ZM780 -191V-220Q744 -204 741 -202Q722 -190 714 -165Q726 -167 745 -178Q766 -190 780 -191ZM773 -104V-110Q754 -105 734 -99Q715 -93 713 -68V-61Q717 -60 721 -60Q745 -62 768 -71Q773 -96 773 -104ZM729 -274V-273Q743 -278 765 -293Q784 -306 793 -310Q797 -340 800 -370Q787 -367 773 -349Q757 -329 748 -324Q746 -314 738 -300Q729 -284 729 -274ZM70 -217V-212Q69 -199 68 -186Q54 -189 54 -210V-217Q60 -221 62 -221Q66 -221 70 -217ZM434 -333L457 -343Q458 -351 470 -351Q475 -351 476 -350Q482 -362 505 -366V-369Q504 -379 502 -390Q504 -405 514 -416Q523 -428 528 -440Q544 -450 582 -456Q581 -451 579 -447Q585 -440 592 -425Q601 -406 605 -401Q621 -405 636 -414Q633 -408 633 -402Q633 -384 644 -373Q651 -390 662 -392Q673 -395 691 -397Q706 -400 720 -413Q735 -427 749 -439Q765 -451 780 -461Q795 -471 805 -483Q811 -493 816 -503Q833 -526 854 -526Q872 -526 888 -510Q896 -523 907 -531V-528Q906 -515 901 -506Q906 -508 914 -521Q924 -537 932 -540Q931 -532 923 -519Q913 -502 913 -491Q913 -485 916 -476Q919 -476 922 -482Q925 -487 928 -487H931Q930 -482 930 -473Q930 -448 946 -420Q944 -409 944 -392Q944 -369 940 -360Q936 -349 922 -338Q909 -328 905 -321Q894 -302 888 -281L881 -237Q871 -179 860 25V33Q861 60 862 86Q862 94 861 101Q852 122 836 131H833Q824 131 813 115Q801 98 795 95Q786 55 775 36Q758 31 745 31Q735 31 729 33Q725 35 714 50Q700 68 693 70Q689 65 680 59Q668 50 663 42Q658 20 652 -2Q647 -10 641 -19Q649 -45 649 -47V-50Q647 -77 644 -105Q644 -122 650 -128L647 -162Q641 -176 637 -215Q632 -262 622 -277Q611 -272 600 -265Q590 -258 589 -238V-228Q593 -223 600 -223Q604 -223 606 -224L608 -222V-216L610 -214Q614 -215 618 -224Q622 -233 627 -234L628 -231Q625 -220 621 -210Q625 -198 636 -187Q630 -151 630 -89Q625 -92 621 -103Q617 -99 612 -99Q605 -100 597 -102Q592 -102 589 -99Q588 -91 588 -77Q592 -28 595 21Q595 29 594 36Q589 42 585 58Q579 80 574 84Q567 88 557 88Q538 88 538 68L529 60Q518 59 514 36Q510 11 502 8Q505 4 505 -1Q505 -12 497 -16Q499 -22 513 -34Q518 -52 520 -103Q503 -90 483 -62Q476 -51 448 -9Q437 8 423 32Q414 48 406 62Q398 76 395 98Q389 105 378 105Q357 105 347 86Q345 78 343 70Q340 62 329 49Q317 34 316 23Q321 23 325 27Q325 8 308 -17Q295 -36 292 -50H293Q300 -46 308 -34Q322 -18 327 -13Q321 -31 298 -59Q275 -87 268 -107Q260 -94 255 -88Q218 -33 204 -7Q177 43 171 89Q167 90 161 90Q147 90 130 73Q110 53 95 53Q84 35 64 26Q58 11 43 -10Q58 -28 58 -88V-109Q58 -148 64 -168Q66 -136 68 -103Q69 -70 83 -49Q86 -53 86 -62Q84 -81 81 -101Q81 -113 88 -120V-114Q88 -94 104 -72Q164 -144 168 -148L167 -144L170 -142H172L237 -232Q252 -267 283 -315Q295 -329 299 -344Q299 -352 285 -355Q289 -364 295 -372Q287 -379 265 -385Q239 -392 231 -405Q225 -414 225 -424Q225 -431 231 -450Q237 -469 237 -481V-483Q237 -491 231 -503Q224 -517 224 -524V-530Q224 -551 244 -588Q261 -619 263 -639Q268 -635 273 -625Q284 -625 302 -619Q551 -694 687 -731Q718 -740 750 -751Q783 -761 821 -762H825Q813 -752 795 -748Q777 -745 775 -724V-722Q779 -718 786 -718Q791 -718 803 -722Q818 -727 827 -727Q834 -727 837 -726Q822 -719 806 -712Q791 -705 781 -693Q785 -685 798 -685Q813 -686 827 -688H830Q821 -682 806 -676Q792 -670 790 -658V-656Q792 -643 809 -640Q811 -640 815 -642Q815 -636 810 -625Q806 -616 806 -610Q810 -598 815 -587V-580Q815 -559 794 -549Q793 -549 751 -537L705 -530Q705 -523 698 -521Q697 -521 687 -519Q532 -478 396 -412Q399 -403 418 -398Q431 -394 436 -390Q446 -380 452 -370Q445 -351 434 -333ZM316 -168Q293 -137 269 -107Q278 -103 306 -68Q331 -38 348 -38Q354 -38 361 -42Q373 -48 404 -79Q486 -161 514 -217Q463 -193 414 -155Q402 -142 400 -140Q393 -127 386 -111Q379 -95 365 -94Q362 -94 359 -95Q346 -102 337 -125Q327 -149 318 -165Z"/>
</svg>