<svg xmlns="http://www.w3.org/2000/svg" viewBox="0 -800 1024 1024">
	<path fill="#000000" d="M345 -12Q345 -4 341 16Q323 30 317 36H307Q282 36 268 22Q262 23 256 24Q252 24 249 22Q244 24 239 31Q235 36 232 38Q233 34 233 29Q233 11 211 11Q209 11 181 15Q181 5 198 -1Q194 -5 190 -9Q185 -13 185 -21Q119 -2 90 19Q94 4 114 -8Q135 -21 152 -31Q168 -42 168 -54Q168 -62 155 -66Q157 -72 158 -79Q152 -93 132 -93H127Q132 -98 143 -98Q154 -98 163 -100Q168 -104 169 -112Q170 -121 172 -128Q181 -129 199 -137Q227 -149 245 -149Q250 -149 264 -147Q269 -138 273 -129Q345 -74 345 -12ZM123 -291Q121 -281 115 -273H106Q106 -289 123 -291ZM841 -282Q841 -278 834 -274Q826 -270 826 -263Q824 -266 824 -273Q824 -288 834 -288Q835 -288 839 -286Q839 -282 841 -282ZM889 -89Q899 -57 883 -34V-31Q876 -30 872 -25Q868 -21 865 -16Q867 -5 869 5Q869 10 868 12Q863 -4 850 -4Q839 -4 835 7Q827 5 816 -1Q802 -9 795 -9H791Q772 -32 752 -33V-47Q714 -91 687 -116Q681 -122 672 -126Q664 -131 660 -139Q650 -158 638 -180Q625 -202 624 -226Q625 -230 625 -235Q629 -237 634 -246Q639 -255 644 -257Q654 -262 663 -262Q694 -257 720 -245Q729 -248 738 -262Q747 -278 756 -280V-278Q754 -266 751 -254Q751 -249 755 -246Q761 -248 771 -260Q777 -267 783 -271Q774 -244 774 -242Q774 -233 783 -229Q799 -243 823 -252Q817 -246 803 -225Q817 -232 843 -258Q876 -291 899 -300V-299Q897 -288 881 -279Q858 -259 847 -246Q826 -222 826 -205Q826 -188 844 -177Q855 -184 871 -188Q867 -176 856 -168Q859 -140 872 -129Q891 -135 910 -144Q930 -153 952 -157Q948 -149 920 -139Q884 -126 884 -112V-111Q885 -100 907 -100H914Q910 -94 903 -93Q895 -92 889 -89ZM564 -104Q565 -100 567 -90Q570 -70 573 -51Q585 -15 589 19V22Q589 37 571 68Q558 90 551 99Q539 113 523 118Q507 112 491 106Q491 101 484 85L480 84Q476 85 472 85H469Q456 72 447 59Q437 45 428 10Q421 -18 416 -28Q412 -37 405 -45Q393 -59 392 -67Q409 -57 429 -51Q442 -59 446 -81Q454 -129 454 -201Q454 -280 444 -355Q381 -321 324 -261Q321 -261 318 -262Q309 -262 299 -254Q288 -254 277 -264Q267 -274 258 -274Q258 -281 253 -288H251Q246 -288 236 -293Q228 -297 222 -297H219Q210 -291 204 -288H203Q204 -297 212 -308Q219 -317 220 -321Q219 -329 213 -333L209 -334Q204 -330 195 -327H193Q195 -333 202 -341Q208 -347 210 -352Q188 -348 163 -324Q144 -305 132 -300Q138 -319 171 -346Q193 -364 201 -375Q179 -364 160 -345Q140 -327 120 -309Q112 -304 104 -300Q98 -294 94 -287Q90 -280 81 -279V-280Q84 -297 102 -314Q117 -333 144 -360Q180 -395 190 -409Q204 -431 217 -453Q227 -470 228 -471Q236 -482 245 -482Q246 -482 252 -480L288 -546Q287 -549 287 -555Q287 -570 310 -604Q333 -638 333 -654Q328 -672 322 -691Q322 -694 323 -696Q327 -702 335 -706Q342 -709 348 -713Q355 -718 363 -729Q373 -743 379 -747Q406 -759 448 -762H453Q490 -755 501 -719Q512 -684 532 -650Q526 -636 502 -621Q485 -610 478 -602Q471 -590 464 -579Q435 -544 419 -512Q472 -526 512 -543Q562 -561 586 -574Q625 -594 645 -619Q652 -614 660 -611Q675 -618 690 -623Q699 -628 711 -643Q721 -656 729 -661V-659Q730 -653 726 -643Q722 -633 723 -630V-628L725 -627Q727 -627 729 -631Q732 -635 735 -636H737L738 -634Q738 -632 733 -619Q749 -609 762 -590Q776 -567 805 -569Q809 -570 813 -572Q809 -567 803 -563Q798 -560 798 -552V-551H802Q807 -552 811 -553L814 -554Q807 -546 809 -528Q817 -507 824 -486Q825 -480 825 -474Q824 -464 816 -448Q811 -438 809 -431Q804 -434 791 -433Q771 -432 769 -440L759 -422Q754 -414 733 -397Q711 -379 704 -364Q699 -362 694 -360Q692 -360 689 -361Q686 -364 686 -365Q686 -369 689 -371Q683 -377 667 -374Q652 -371 645 -378Q648 -389 654 -399H652Q630 -390 611 -374Q613 -387 634 -410Q656 -435 660 -450Q625 -427 574 -401Q587 -373 587 -351Q587 -344 586 -340Q586 -337 581 -331Q577 -326 576 -323Q576 -309 568 -303Q568 -283 562 -243Q562 -218 555 -199Q555 -189 557 -165Q562 -150 562 -146L561 -142H560Q562 -123 564 -104Z"/>
</svg>