<svg xmlns="http://www.w3.org/2000/svg" viewBox="0 -800 1024 1024">
	<path fill="#000000" d="M791 -722Q790 -719 784 -716Q777 -713 776 -708Q773 -711 773 -715Q774 -724 784 -726Q788 -726 791 -722ZM378 -65L375 -64Q367 -68 358 -73Q358 -84 363 -84Q373 -79 378 -65ZM555 105H553Q545 104 536 103H532Q527 105 525 110Q523 115 520 117Q519 105 510 97Q508 96 491 85Q482 57 462 38Q442 20 423 1Q437 3 445 9Q452 15 461 23Q447 -3 422 -19Q398 -36 383 -58Q396 -53 415 -39Q431 -27 440 -23Q431 -35 404 -59Q368 -91 355 -112Q377 -97 402 -76Q421 -61 427 -57Q443 -47 457 -47Q461 -47 469 -49Q485 -95 489 -149Q493 -203 494 -247Q441 -240 321 -202Q283 -192 246 -175Q208 -157 179 -133Q171 -124 164 -111Q156 -98 143 -95Q140 -94 136 -94Q121 -94 111 -98Q101 -102 92 -110Q84 -119 77 -125V-133L78 -136Q74 -140 62 -150Q45 -163 40 -172Q33 -183 33 -196Q33 -217 58 -251Q56 -267 53 -284Q62 -290 73 -302Q86 -316 92 -320Q105 -326 117 -332Q134 -344 148 -360Q162 -375 182 -379Q173 -367 161 -359Q149 -352 146 -334H147Q157 -339 167 -344Q166 -339 164 -334Q169 -332 170 -329Q190 -330 225 -338Q264 -347 282 -347Q288 -346 293 -346Q296 -350 304 -350H323Q344 -356 365 -362Q369 -362 373 -360Q434 -373 494 -386Q498 -391 498 -400Q495 -422 488 -442Q479 -441 463 -431Q452 -424 444 -422Q432 -422 414 -431Q408 -438 402 -445Q389 -464 381 -488Q348 -464 326 -428Q304 -391 280 -359Q277 -362 266 -365Q256 -367 252 -374L249 -375Q245 -373 241 -372L238 -373Q239 -376 239 -382Q237 -406 213 -413Q201 -452 173 -469H158Q153 -469 152 -470Q157 -475 166 -480Q179 -487 182 -492Q179 -503 170 -506Q149 -500 121 -497H117Q128 -507 143 -512Q159 -517 172 -524Q166 -526 161 -526Q148 -526 114 -514Q77 -500 53 -497Q76 -511 101 -520Q126 -530 151 -541Q194 -565 228 -602Q261 -639 296 -676Q347 -729 347 -767Q347 -778 342 -793H344Q351 -790 358 -786Q363 -787 366 -794Q368 -799 370 -800Q382 -796 401 -794Q427 -792 438 -783Q441 -778 443 -774Q448 -772 452 -770V-769L451 -765L452 -764Q453 -763 457 -763L461 -762V-761Q460 -758 459 -756V-755Q468 -752 476 -748Q483 -710 485 -677Q485 -652 474 -633Q506 -647 573 -663Q636 -678 659 -686Q670 -690 685 -700Q706 -714 718 -716L717 -712Q718 -705 724 -702Q730 -699 736 -696Q750 -703 759 -704V-702Q759 -700 755 -696Q749 -690 749 -685Q754 -680 761 -680Q767 -680 782 -688Q799 -697 808 -697Q813 -697 816 -696Q805 -687 790 -681Q772 -674 771 -663Q771 -661 773 -655H775Q780 -658 790 -661H794Q786 -650 783 -633Q790 -617 797 -602Q796 -599 794 -596V-594Q796 -580 798 -567V-563Q797 -555 788 -547Q777 -537 776 -524Q774 -525 770 -525Q768 -525 755 -520Q751 -520 743 -524Q696 -520 632 -503Q604 -495 594 -485Q597 -475 610 -475H613Q613 -472 612 -469Q615 -457 623 -451Q613 -438 613 -418V-410Q679 -419 753 -426Q828 -434 879 -457Q882 -456 883 -452Q884 -448 886 -448H890Q895 -449 899 -451V-459Q899 -482 906 -495V-484Q906 -462 909 -454Q914 -440 929 -439H932Q946 -441 959 -444Q964 -444 967 -443Q964 -436 947 -426Q953 -411 964 -410L966 -409Q962 -405 958 -399V-398Q962 -394 962 -385Q962 -369 953 -365Q958 -355 962 -345V-344Q958 -336 953 -329Q953 -323 952 -317Q952 -311 944 -311V-309Q945 -303 946 -298Q929 -298 924 -284Q840 -286 755 -289Q653 -289 598 -269Q599 -264 599 -260Q596 -235 592 -211V-203Q595 -158 597 -113Q597 -66 604 -26Q611 -4 613 14V16Q605 33 597 50Q581 101 555 105Z"/>
</svg>