<svg xmlns="http://www.w3.org/2000/svg" viewBox="0 -800 1024 1024">
	<path fill="#000000" d="M837 -154Q834 -131 823 -122Q821 -130 821 -136Q821 -155 831 -155Q835 -155 837 -154ZM528 23H525Q519 21 510 13Q495 -1 485 -2Q469 -33 447 -62Q425 -91 404 -121Q396 -135 387 -148Q377 -162 360 -166Q334 -190 327 -214Q318 -245 318 -259Q318 -282 337 -298Q345 -301 352 -305Q368 -318 378 -337Q388 -357 399 -377Q418 -401 434 -429Q441 -444 448 -460Q451 -466 461 -480Q474 -498 478 -509Q485 -530 491 -551Q500 -568 516 -590Q524 -585 528 -578Q537 -588 546 -588Q570 -588 595 -538Q613 -500 613 -456Q613 -437 610 -419Q520 -356 460 -254Q497 -213 539 -178Q545 -184 555 -187H557Q558 -156 586 -76V-75Q586 -71 582 -69Q578 -67 578 -64Q581 -53 581 -45Q580 -29 574 -14Q568 1 564 16Q561 15 557 15Q540 19 528 23ZM540 -253V-258Q542 -286 560 -308Q579 -331 596 -349Q606 -361 631 -400Q647 -429 654 -463Q661 -482 671 -501Q681 -520 685 -544Q690 -566 690 -574V-577Q686 -595 669 -601Q651 -607 635 -616Q657 -619 679 -623L680 -624Q675 -628 669 -632L670 -633Q687 -634 723 -642Q761 -650 789 -650H798Q804 -641 817 -636V-632Q817 -618 831 -596Q844 -575 846 -561Q847 -536 848 -511Q849 -506 849 -496Q849 -481 842 -466Q818 -454 796 -439Q761 -396 734 -347Q706 -297 679 -247Q713 -196 752 -167L751 -163Q752 -155 758 -149Q764 -143 770 -137Q771 -136 775 -128Q778 -123 783 -122Q794 -132 798 -148Q803 -164 808 -178Q809 -174 809 -165Q807 -140 804 -115Q804 -100 813 -94Q815 -96 815 -103Q815 -113 820 -113Q820 -94 832 -52Q842 -17 842 1Q842 28 822 47Q822 51 821 54Q822 58 822 61Q804 66 786 71Q748 54 720 28Q692 1 670 -31Q628 -101 587 -175L584 -176Q581 -174 577 -173Q568 -192 558 -212Q546 -230 540 -253ZM411 -89V-77Q411 -71 410 -68Q438 -51 438 0Q438 24 431 54Q387 60 376 71Q366 63 347 56Q320 46 312 35Q296 8 280 -19Q220 -95 189 -128H187Q178 -128 162 -138Q153 -144 145 -146Q130 -175 121 -179Q115 -236 95 -254Q102 -269 108 -286Q114 -302 126 -316Q132 -322 148 -332Q163 -341 168 -347Q180 -372 192 -397Q214 -423 236 -455L268 -520Q296 -573 296 -587Q296 -607 262 -656Q254 -668 239 -684Q221 -703 216 -712Q226 -711 240 -700Q252 -691 260 -691L261 -695Q261 -699 256 -705Q250 -712 250 -715Q260 -710 272 -710Q291 -710 322 -732Q354 -755 376 -755H377Q414 -749 435 -719Q462 -678 474 -623Q482 -591 482 -585Q482 -578 477 -561Q458 -553 447 -532Q436 -511 423 -490Q403 -462 383 -434Q364 -404 345 -374Q338 -363 319 -343Q297 -320 289 -302L288 -298Q289 -294 289 -290Q276 -282 268 -266Q263 -256 256 -235Q267 -217 296 -186Q330 -148 343 -125Q358 -117 369 -107Q371 -99 373 -92Q385 -85 397 -79Q401 -79 404 -84Q407 -89 410 -89Z"/>
</svg>