<svg xmlns="http://www.w3.org/2000/svg" viewBox="0 -800 1024 1024">
	<path fill="#000000" d="M322 -295Q321 -307 320 -320Q320 -326 322 -329Q309 -321 298 -299Q279 -261 279 -260Q269 -244 260 -229Q250 -214 248 -197Q256 -189 285 -185Q286 -191 304 -239Q318 -266 322 -295ZM639 -56L619 -72Q596 -48 583 -16Q591 -6 600 0Q632 -28 639 -56ZM696 -158V-159H690Q673 -159 662 -153Q649 -146 649 -135Q649 -119 675 -118Q678 -125 686 -137Q696 -152 696 -158ZM698 -430Q683 -438 661 -440Q659 -450 649 -460Q639 -469 637 -476Q636 -478 636 -484V-502Q630 -512 627 -524V-526L598 -518Q596 -525 594 -531Q591 -537 583 -537H581Q581 -534 580 -531Q586 -500 606 -497Q606 -494 605 -491Q605 -482 613 -462Q621 -443 622 -434Q619 -424 615 -415Q615 -411 616 -410Q672 -428 698 -430ZM885 -141Q885 -126 876 -121Q875 -131 873 -141V-147Q878 -148 882 -150Q885 -145 885 -141ZM861 -201Q861 -197 855 -182Q848 -192 848 -202Q848 -209 855 -209H858Q861 -204 861 -201ZM845 -268Q838 -253 832 -249Q828 -246 825 -251Q823 -256 821 -262Q821 -258 820 -255Q817 -257 813 -257Q807 -257 799 -249Q799 -244 781 -246Q761 -248 761 -246Q758 -248 743 -235Q727 -222 724 -223Q706 -219 688 -215Q684 -205 679 -196Q704 -204 721 -207Q740 -210 752 -207Q788 -166 788 -127Q788 -122 786 -112Q756 -112 743 -80Q761 -62 783 -47Q804 -33 825 -17Q827 -19 830 -19Q836 -17 842 -15L846 -16Q851 -22 851 -35Q851 -48 850 -61Q850 -68 851 -72Q853 -67 855 -50Q857 -29 863 -22V-30Q863 -44 857 -80Q851 -116 851 -135Q851 -153 855 -166Q863 -105 878 -28Q879 -33 879 -43Q878 -73 876 -103V-110Q885 -94 889 -50Q893 -7 899 7Q900 5 900 -2V-22Q917 25 920 80Q914 93 911 106Q893 120 875 134Q865 132 854 129L814 89Q801 76 798 72Q790 61 790 51V49L770 41Q759 37 740 19Q716 -4 700 -8Q676 21 661 58Q647 92 616 106Q593 85 591 43Q591 30 595 19Q592 6 580 0Q559 14 557 54Q551 60 545 63Q536 56 525 56Q520 56 518 57Q513 35 498 28V25Q498 11 485 4Q477 5 468 5Q453 5 447 -2Q466 -6 479 -11Q475 -21 449 -21Q438 -20 427 -20Q424 -15 420 -10Q416 -12 393 -15Q357 -19 353 -26L327 -42Q326 -39 318 -39Q314 -39 310 -41Q298 -29 292 -10Q286 10 278 27Q269 54 243 56H242Q233 50 228 39Q223 28 208 27H207Q207 24 211 22Q215 20 215 17Q212 -3 196 -11Q180 -18 171 -33Q187 -30 202 -27Q190 -38 163 -55Q132 -74 122 -83Q134 -80 160 -67Q193 -50 207 -50Q226 -50 236 -67Q231 -73 222 -73Q210 -71 198 -70H196Q180 -70 168 -80Q155 -91 155 -107V-110Q155 -115 158 -124V-128Q157 -150 155 -172Q155 -193 168 -205Q173 -209 180 -212Q186 -215 192 -223Q203 -250 214 -277Q192 -271 161 -235Q139 -210 127 -203Q117 -198 110 -198Q89 -198 69 -225Q53 -246 45 -271Q43 -281 43 -292Q44 -302 44 -312Q49 -328 56 -353Q57 -370 57 -385Q57 -401 63 -410Q67 -415 80 -423Q92 -430 97 -435Q108 -446 116 -458Q124 -471 137 -476L138 -474Q138 -472 133 -468Q126 -463 125 -460Q121 -453 121 -443Q122 -438 122 -434Q115 -427 112 -414Q139 -421 155 -422V-427Q198 -438 235 -452V-457Q235 -467 225 -486Q218 -499 217 -507V-509Q217 -522 233 -551Q250 -582 263 -582H264Q270 -579 275 -576Q281 -577 289 -589Q295 -598 297 -599Q296 -596 296 -590Q297 -574 310 -562Q323 -551 333 -541Q334 -512 343 -479Q357 -479 369 -491Q389 -491 406 -506Q411 -494 412 -493Q415 -492 432 -502Q431 -487 428 -470Q439 -435 433 -405Q432 -390 430 -375Q421 -372 412 -369Q415 -364 420 -361Q430 -365 444 -383V-386Q443 -392 442 -398L444 -399Q448 -396 452 -394H453Q458 -402 459 -413Q460 -423 462 -433Q469 -418 476 -403Q480 -404 484 -411Q487 -418 491 -418Q489 -408 489 -405Q490 -392 499 -383Q507 -375 515 -368Q540 -376 564 -385Q555 -398 532 -408Q511 -418 503 -428Q497 -440 493 -454Q490 -468 474 -471Q479 -486 490 -493V-495Q487 -504 483 -514L484 -517Q489 -517 496 -512Q503 -519 512 -524Q520 -530 524 -542Q537 -535 550 -535Q563 -535 576 -544Q574 -568 556 -571Q558 -577 566 -585Q573 -592 575 -596H570Q560 -596 545 -587Q536 -582 529 -581V-584Q531 -589 533 -595Q532 -596 530 -598H528Q518 -593 507 -589Q525 -626 550 -646Q575 -667 603 -680Q650 -699 690 -735Q688 -739 688 -752Q687 -755 685 -755Q682 -755 681 -757V-758Q681 -782 719 -782Q730 -781 741 -781Q749 -781 753 -782V-779Q754 -765 768 -760Q773 -728 798 -721Q810 -685 815 -677Q812 -672 812 -666V-655Q809 -634 793 -620Q781 -610 758 -601Q726 -590 718 -587Q696 -578 685 -565L708 -544Q720 -550 728 -557L730 -556Q727 -551 724 -547Q725 -526 725 -506Q725 -474 717 -446H715Q705 -446 699 -433H704Q730 -437 755 -441Q764 -441 768 -439L787 -448H796Q792 -473 767 -475H762Q765 -482 770 -487Q762 -487 748 -476Q737 -468 731 -466Q733 -484 744 -496Q754 -508 765 -520Q785 -545 801 -574Q799 -581 787 -581H770Q787 -592 813 -603Q849 -617 858 -617H862Q879 -612 887 -585Q895 -556 903 -537Q903 -536 909 -536Q915 -535 915 -532Q903 -527 900 -511Q898 -496 896 -479Q882 -481 876 -481Q846 -481 818 -451Q821 -453 829 -453Q834 -453 856 -448L864 -449Q868 -448 871 -448Q889 -448 913 -467Q932 -482 945 -485L946 -483Q946 -481 941 -476Q935 -470 935 -466L936 -463L939 -462Q943 -464 946 -466H948Q946 -460 946 -452Q946 -436 956 -436Q951 -428 948 -421Q952 -411 960 -400Q962 -390 963 -380Q963 -370 970 -367Q963 -356 961 -345Q961 -342 962 -340Q956 -336 942 -330Q925 -323 918 -314Q914 -314 913 -316Q861 -289 845 -268ZM790 -333Q815 -366 818 -370Q809 -376 795 -376Q794 -376 770 -373Q758 -374 731 -369L732 -365Q732 -354 737 -339Q731 -327 722 -318Q741 -326 760 -334H770Q784 -334 790 -333ZM640 -346Q583 -343 555 -304Q555 -299 557 -291L558 -287Q559 -279 560 -272Q623 -282 640 -288Q641 -304 642 -320Q642 -330 639 -342ZM615 -185L588 -186Q572 -185 542 -177Q532 -188 524 -202H523Q499 -208 496 -208Q491 -208 485 -205Q483 -204 483 -198Q482 -191 479 -190Q480 -193 480 -197Q477 -219 464 -220Q452 -220 452 -201V-200Q450 -203 449 -214Q447 -227 443 -230Q427 -220 418 -190V-194Q418 -212 432 -238Q419 -258 406 -278Q406 -274 406 -271Q406 -242 393 -220Q391 -220 378 -215Q360 -175 357 -155H359Q365 -154 371 -154H373Q377 -145 395 -127Q418 -137 422 -140Q423 -142 424 -144Q432 -130 440 -116Q448 -103 448 -96Q447 -58 432 -29Q460 -35 486 -49Q534 -85 576 -127L585 -140V-143Q585 -150 591 -152Q598 -153 615 -185ZM406 -367Q387 -361 371 -358Q390 -342 400 -310Q401 -315 402 -320Q409 -334 414 -349V-350Q414 -357 406 -367Z"/>
</svg>