<svg xmlns="http://www.w3.org/2000/svg" viewBox="0 -800 1024 1024">
	<path fill="#000000" d="M933 -735H924V-739Q924 -754 936 -754Q940 -754 942 -753V-752Q942 -748 938 -744Q933 -740 933 -736ZM924 -207H927Q929 -203 929 -200Q929 -193 918 -182Q915 -187 915 -204Q920 -207 924 -207ZM323 -216Q363 -285 370 -298Q395 -346 409 -389L407 -390Q385 -383 366 -369Q348 -320 304 -220Q315 -220 323 -216ZM949 44V60Q947 65 940 71Q935 75 933 79Q910 84 905 86Q854 70 822 35Q790 0 765 -43Q733 -101 687 -146Q664 -118 638 -42Q634 -39 627 -39Q613 -40 598 -41H591Q587 -52 570 -52Q556 -52 551 -44V-47Q554 -56 557 -66Q557 -70 554 -75Q550 -78 546 -81Q534 -112 534 -137V-140Q537 -148 540 -156Q541 -160 541 -167Q538 -189 535 -211Q535 -218 536 -222Q542 -220 545 -205Q548 -192 554 -189Q562 -196 581 -220Q593 -236 604 -246Q600 -258 584 -274Q565 -293 563 -310Q545 -337 545 -357Q545 -364 548 -372Q568 -393 599 -396H601Q610 -395 617 -388Q625 -381 632 -375Q650 -362 653 -358Q692 -426 723 -501Q666 -475 644 -429Q632 -425 625 -425Q590 -426 578 -453Q565 -460 551 -465Q538 -471 533 -486Q532 -489 532 -495Q532 -501 534 -519Q533 -537 531 -555V-559Q532 -584 550 -608Q557 -617 582 -642L583 -640Q582 -635 580 -631L582 -628Q585 -627 592 -627Q612 -627 644 -644Q671 -658 686 -661Q702 -672 734 -690Q774 -712 789 -724Q809 -726 828 -729H834Q838 -733 845 -748Q850 -760 856 -766L857 -762Q854 -750 850 -738Q851 -719 871 -719Q892 -719 915 -733V-732Q914 -728 907 -721Q900 -714 899 -705L902 -704Q904 -704 907 -707Q912 -712 915 -712H917Q910 -687 910 -676Q910 -671 912 -663L914 -662Q920 -666 925 -671H926Q924 -661 924 -657Q924 -645 933 -622Q942 -599 942 -586V-580Q941 -574 937 -565Q930 -549 930 -540V-536Q904 -529 890 -510L891 -509Q894 -509 896 -510Q899 -510 899 -507Q894 -498 882 -496Q856 -480 838 -449Q820 -418 805 -390Q762 -322 743 -269Q798 -199 871 -143Q882 -147 883 -175Q884 -195 888 -201Q892 -189 892 -167V-151Q892 -125 896 -116Q902 -130 902 -157Q900 -198 898 -239Q898 -258 900 -267Q902 -277 908 -279Q909 -269 909 -248Q909 -216 908 -184Q908 -128 917 -96Q918 -103 918 -119V-165Q924 -153 929 -117Q936 -69 951 -54V-44Q951 -8 963 7Q955 23 949 44ZM515 -88V-87Q514 -71 502 -61Q490 -50 478 -41Q448 -45 427 -58Q406 -71 381 -84Q337 -33 322 30Q313 32 309 37Q304 42 299 48Q292 44 279 44Q268 44 263 42Q258 41 251 34Q241 25 236 25Q234 25 230 27Q228 14 226 9Q223 1 215 0Q208 -28 185 -35Q161 -43 145 -59Q148 -60 154 -60Q163 -60 177 -55Q197 -48 206 -48Q189 -66 160 -75Q131 -85 105 -93Q80 -100 75 -111H78Q97 -111 144 -96Q176 -81 207 -77H209Q222 -78 235 -90Q242 -97 255 -114H250Q239 -112 227 -111H225Q193 -117 178 -156Q172 -166 166 -177V-179Q168 -189 170 -200V-203L192 -229H194Q206 -230 210 -238Q215 -246 222 -251Q223 -261 233 -282Q243 -303 243 -318V-320Q225 -319 200 -288Q175 -258 160 -257H158Q143 -258 131 -270Q119 -282 107 -291Q89 -300 66 -308Q42 -316 36 -339V-344Q40 -367 43 -390Q43 -396 42 -399Q38 -407 28 -417Q33 -454 52 -478Q71 -503 90 -525Q96 -533 101 -541Q106 -549 114 -554V-550Q114 -545 109 -536Q103 -525 103 -516Q104 -513 104 -510Q107 -510 110 -505Q115 -506 120 -515Q125 -525 132 -526H133L134 -525Q133 -521 131 -518Q131 -516 133 -514Q171 -518 200 -531Q228 -544 260 -554Q245 -575 245 -588Q245 -597 249 -605Q256 -610 262 -615Q275 -637 289 -657Q318 -689 365 -689Q371 -689 381 -687Q402 -653 419 -615Q443 -626 465 -639Q487 -653 515 -658Q507 -653 497 -645Q487 -637 486 -627Q486 -621 492 -614Q501 -619 510 -625Q500 -611 500 -600Q500 -593 504 -586L506 -585Q510 -588 513 -592L515 -591Q511 -583 511 -573Q515 -548 518 -524V-520Q515 -511 511 -502V-496Q511 -485 517 -467Q513 -458 506 -449Q500 -441 499 -429V-424L486 -417Q489 -404 493 -393Q497 -381 510 -378V-374Q513 -352 515 -330Q515 -320 508 -307Q486 -298 447 -249Q438 -237 427 -203Q435 -198 444 -198Q465 -198 474 -237Q473 -213 472 -189H473Q476 -190 478 -192H480Q484 -178 493 -162Q497 -144 501 -126Q511 -106 515 -88Z"/>
</svg>