<svg xmlns="http://www.w3.org/2000/svg" viewBox="0 -800 1024 1024">
	<path fill="#000000" d="M540 -166Q531 -178 522 -178Q517 -178 517 -169Q532 -164 533 -164Q534 -164 540 -166ZM824 -293H820Q822 -307 842 -312Q844 -309 845 -306Q844 -300 838 -296Q831 -293 824 -293ZM566 -79Q550 -105 533 -132Q534 -134 534 -138Q534 -152 514 -158Q497 -120 485 -76Q497 -71 507 -71Q537 -75 566 -79ZM713 -424V-439Q717 -446 720 -453V-455Q717 -466 713 -478V-480Q717 -497 721 -503V-504Q629 -493 517 -432Q516 -428 515 -425Q516 -408 530 -397Q544 -387 556 -378Q557 -366 565 -354Q573 -343 578 -331Q577 -328 575 -325Q578 -314 581 -303Q574 -284 564 -268Q554 -252 552 -229Q540 -220 532 -190Q535 -189 543 -189Q566 -189 588 -211Q591 -213 621 -252Q588 -298 588 -340V-344Q597 -344 599 -348V-349Q591 -360 587 -372Q587 -376 591 -379Q598 -373 617 -373Q636 -374 655 -375Q674 -375 689 -367Q691 -376 699 -389Q712 -412 713 -424ZM870 -412Q876 -410 876 -397Q876 -384 873 -378Q873 -375 867 -374Q863 -374 862 -372Q852 -356 849 -353Q840 -343 827 -343Q823 -343 819 -344Q817 -340 810 -338Q802 -336 801 -334Q795 -331 795 -325V-322Q772 -316 764 -296Q769 -287 780 -283Q792 -288 809 -290H813Q812 -285 803 -280Q794 -275 794 -268Q794 -256 809 -256Q817 -256 837 -261Q861 -267 871 -267Q875 -267 883 -265Q882 -259 871 -259H865Q820 -251 810 -230Q812 -215 846 -215Q842 -208 823 -198V-192Q823 -180 813 -163Q804 -148 804 -138Q804 -135 806 -127Q799 -137 780 -137Q767 -136 753 -136Q733 -136 723 -148Q714 -146 704 -145V-150Q701 -173 685 -186Q665 -164 648 -141Q630 -119 625 -85Q708 -88 798 -97Q830 -102 834 -126V-142Q834 -152 845 -154Q843 -148 843 -137Q843 -116 856 -109H857Q863 -109 866 -115Q868 -119 870 -120Q886 -88 921 -85Q927 -85 930 -86Q924 -79 921 -67Q921 -60 932 -60H934Q932 -55 928 -51Q935 -33 943 -14Q950 4 951 29Q945 36 942 44Q942 46 944 50Q927 70 891 71Q874 71 862 65Q855 69 849 69Q836 67 819 59Q801 54 801 49L774 47Q759 51 736 51Q694 50 652 48Q636 48 627 49Q615 52 602 54Q595 54 591 50L549 59Q514 64 480 79Q446 95 417 105Q378 88 357 9Q350 -8 350 -10V-25Q350 -33 343 -37Q353 -43 364 -62Q375 -81 384 -86Q401 -146 410 -193Q409 -200 409 -214Q409 -235 418 -241V-271Q409 -280 407 -312Q404 -346 394 -355Q399 -363 399 -370Q399 -384 386 -394Q388 -396 390 -396Q396 -394 401 -393Q405 -395 414 -404Q425 -415 436 -418Q415 -423 396 -436Q389 -444 388 -455Q386 -466 382 -479Q379 -487 373 -497Q363 -513 363 -523Q363 -537 364 -541Q371 -549 371 -564Q370 -579 369 -595Q369 -609 372 -616Q380 -630 403 -639Q427 -648 442 -658Q450 -665 456 -674Q461 -682 472 -685Q473 -679 481 -669Q509 -676 536 -687Q562 -698 594 -699H600L698 -727Q700 -740 717 -743Q734 -746 749 -749Q762 -751 774 -753Q784 -753 791 -749L813 -742Q816 -740 820 -740Q833 -744 845 -748Q847 -748 853 -745Q846 -739 837 -735Q828 -731 824 -723L831 -708Q840 -710 849 -712Q848 -706 840 -698Q830 -688 830 -682Q830 -677 834 -672Q837 -671 839 -671Q844 -672 849 -673H852Q839 -654 837 -651Q839 -643 839 -639Q839 -628 827 -600Q815 -572 815 -556Q815 -549 816 -545Q821 -535 833 -528Q843 -529 853 -531H856Q853 -526 853 -522Q854 -504 876 -502Q873 -495 873 -479V-457Q873 -437 870 -430ZM333 -251Q331 -255 331 -257Q333 -269 344 -270L347 -269L348 -265Q347 -253 333 -251ZM72 -569V-574Q81 -581 90 -581L94 -580Q92 -558 78 -558Q76 -558 73 -559Q72 -562 72 -569ZM266 -305V-301Q254 -291 242 -282Q233 -282 216 -274Q198 -266 185 -266H183Q172 -269 161 -273H158Q150 -271 144 -262Q135 -247 133 -245L131 -247L130 -250Q136 -264 141 -278Q134 -297 114 -301Q108 -301 102 -295Q101 -296 101 -300Q103 -308 105 -317Q95 -332 83 -340Q71 -349 70 -367Q70 -370 72 -382Q81 -412 113 -424Q143 -431 170 -431Q177 -430 183 -430Q189 -427 191 -427Q198 -428 205 -430Q215 -428 226 -418Q235 -409 241 -407L242 -404Q241 -402 239 -401Q242 -398 247 -398H250V-382L252 -381Q256 -385 265 -389H268V-388Q264 -382 260 -376V-373Q260 -367 265 -354Q271 -338 271 -328Q269 -316 266 -305ZM347 -551Q349 -529 349 -506Q319 -471 269 -471Q262 -471 248 -473Q221 -495 204 -495Q190 -495 185 -479V-485Q186 -494 186 -503Q186 -517 177 -521Q171 -523 168 -523Q152 -521 136 -507Q121 -492 112 -485L111 -489Q112 -496 118 -503Q124 -510 130 -517Q145 -536 149 -554Q141 -564 125 -566Q130 -574 130 -581Q130 -587 125 -595Q115 -595 97 -586V-589Q97 -594 106 -602Q118 -612 118 -620V-622Q118 -641 89 -641Q66 -639 42 -637Q50 -644 75 -651Q102 -659 110 -668V-701Q125 -704 149 -716Q146 -737 143 -759V-763Q149 -748 157 -734Q164 -720 179 -719H180Q187 -719 195 -727Q203 -735 211 -737Q209 -733 209 -725Q209 -698 257 -691Q261 -692 264 -698Q268 -706 275 -706H276Q274 -698 274 -695Q274 -675 303 -664Q330 -626 347 -551ZM199 -128Q218 -163 244 -195Q269 -227 294 -257Q306 -273 317 -290Q328 -306 346 -314V-313Q345 -303 334 -291Q324 -279 316 -268Q292 -240 292 -217V-215Q298 -216 308 -229Q319 -244 328 -244H330Q298 -201 298 -172Q298 -161 301 -149Q306 -150 309 -155Q313 -161 317 -161H318Q318 -158 317 -155Q317 -150 322 -140Q311 -132 311 -119Q312 -115 312 -112Q304 -103 292 -82Q284 -65 282 -64Q255 -39 234 -1Q223 18 198 74V86Q190 93 187 103L188 106Q175 114 162 114Q132 114 108 85Q104 76 100 66Q83 46 80 30Q80 25 85 13Q78 -6 78 -26Q79 -30 79 -35Q80 -48 88 -59Q95 -70 102 -83Q107 -97 111 -111Q114 -124 125 -127L126 -125Q123 -113 120 -101Q120 -97 121 -95H122Q133 -97 143 -99Q149 -99 153 -94Q158 -95 163 -100Q169 -105 174 -106V-101Z"/>
</svg>