<svg xmlns="http://www.w3.org/2000/svg" viewBox="0 -800 1024 1024">
	<path fill="#000000" d="M175 -14V-8Q173 -7 165 -7H146Q145 -9 145 -12Q145 -18 155 -18Q165 -18 175 -14ZM436 -203Q449 -166 458 -131Q511 -190 548 -260Q572 -302 584 -335Q603 -373 608 -419Q590 -416 580 -397Q566 -370 558 -363Q540 -364 526 -381Q513 -396 507 -421Q485 -435 485 -483Q485 -532 505 -550Q504 -556 504 -567Q504 -639 567 -676Q567 -669 561 -659Q553 -646 553 -639H554Q555 -639 557 -645Q559 -651 563 -651H565L566 -648Q566 -643 565 -639Q565 -631 568 -627Q580 -627 600 -637Q619 -646 631 -646Q636 -646 644 -644L699 -670Q711 -692 757 -711Q803 -730 824 -730Q838 -730 850 -726Q862 -732 867 -737L868 -735Q866 -728 863 -721L864 -717Q870 -721 877 -728Q884 -736 896 -737H898Q876 -724 873 -697V-692Q877 -694 891 -711Q884 -686 884 -671Q884 -659 888 -654H890Q892 -657 894 -660H895Q883 -565 880 -547Q852 -541 834 -512Q831 -508 806 -453Q790 -419 778 -374L800 -380Q820 -384 839 -388Q864 -392 885 -397Q907 -401 919 -416L921 -413Q920 -409 919 -406Q924 -410 928 -415Q931 -421 940 -422L941 -420Q940 -417 934 -411Q928 -406 927 -399Q927 -396 928 -394L931 -392Q933 -392 936 -396Q940 -401 942 -401H943V-395Q943 -384 942 -373V-367Q947 -353 951 -340V-288Q951 -270 946 -243Q926 -240 922 -226V-225L925 -222V-220Q905 -211 897 -188Q889 -165 877 -146L854 -99Q838 -49 818 -3Q798 43 790 100Q787 101 766 114Q744 100 727 77Q729 71 729 67Q728 54 722 44Q715 33 711 23Q706 23 704 26L703 23Q706 16 713 8Q707 1 707 -9Q708 -17 708 -26Q707 -44 684 -70Q668 -89 664 -100Q685 -85 705 -70Q698 -87 669 -120Q645 -148 635 -166Q651 -160 672 -133Q697 -101 716 -95Q715 -100 706 -111Q694 -125 693 -136Q700 -133 713 -121Q723 -112 730 -108Q765 -139 784 -188Q803 -238 832 -278Q827 -278 822 -279Q778 -276 754 -243Q747 -248 736 -253Q720 -260 714 -269Q708 -281 708 -306V-335Q706 -342 704 -350V-353Q704 -369 716 -395Q741 -457 760 -516Q737 -511 713 -495Q703 -488 673 -463Q682 -453 690 -444Q689 -441 689 -436Q695 -408 701 -381Q697 -369 680 -350Q669 -338 664 -329Q654 -310 642 -268Q630 -238 618 -208Q610 -185 569 -89L542 -25Q534 2 527 29Q520 57 507 77H501Q485 77 472 56Q463 42 455 38Q457 32 459 26Q447 6 440 -30Q436 -49 430 -97Q433 -95 437 -89Q442 -82 447 -80Q440 -140 433 -201Q406 -181 388 -158Q386 -142 386 -134Q389 -97 392 -61V-56Q391 -39 390 -23Q391 -18 391 -13Q393 2 399 25Q406 50 406 59Q406 76 394 89Q388 85 386 85L382 86Q376 87 368 94Q357 103 350 103H346Q330 101 300 68Q293 61 284 45Q271 22 261 20H253V19Q252 18 259 18H270Q255 6 233 2Q210 -2 190 -9Q198 -7 214 -7Q285 -7 294 -100Q268 -93 249 -40Q245 -39 238 -39Q222 -39 209 -51Q200 -59 189 -76Q175 -92 169 -105Q169 -108 168 -111Q170 -125 172 -140Q175 -167 176 -172Q184 -192 203 -207Q224 -222 235 -235Q232 -223 228 -211Q241 -216 267 -232Q296 -250 311 -256Q313 -282 315 -309Q313 -310 311 -312V-313Q272 -302 233 -276Q208 -259 167 -224Q139 -198 117 -198Q100 -198 87 -214Q70 -239 52 -264Q25 -299 25 -322V-329Q25 -343 31 -365Q36 -384 37 -396Q39 -425 51 -444Q58 -455 81 -478Q107 -504 113 -509Q130 -524 151 -532V-531Q151 -529 145 -524Q136 -517 134 -514Q116 -492 116 -475Q117 -471 117 -468Q119 -470 128 -484Q134 -494 143 -496V-479H148Q170 -482 191 -496Q208 -507 225 -511Q233 -511 237 -505L265 -532Q282 -548 321 -559Q321 -610 291 -666V-668Q292 -672 293 -676Q288 -685 282 -694Q301 -708 320 -723Q346 -742 367 -742Q386 -742 402 -727Q406 -724 428 -689Q434 -679 441 -669Q447 -659 447 -646V-644Q447 -635 441 -617Q435 -599 435 -588V-586Q440 -586 454 -593Q468 -600 475 -600Q473 -595 462 -587Q448 -576 448 -566Q448 -564 450 -556L453 -555Q459 -557 464 -560H466Q459 -556 459 -541Q459 -524 465 -517L467 -516Q471 -518 475 -521L478 -520Q476 -506 473 -493V-491Q477 -462 480 -433V-428Q477 -406 453 -390Q434 -380 413 -373Q393 -366 388 -344V-339Q390 -320 392 -301Q408 -308 446 -332Q474 -349 491 -358Q486 -349 471 -337Q449 -320 446 -304Q454 -305 463 -311Q472 -318 479 -318Q473 -311 465 -303Q457 -294 456 -284Q456 -277 458 -274L461 -272Q465 -274 469 -277Q472 -271 472 -270Q470 -240 463 -225Q462 -218 456 -215Q450 -213 445 -210Q441 -206 436 -203Z"/>
</svg>