<svg xmlns="http://www.w3.org/2000/svg" viewBox="0 -800 1024 1024">
	<path fill="#000000" d="M915 -496V-499Q915 -514 928 -514Q932 -514 934 -513Q933 -505 927 -502Q921 -499 915 -496ZM84 -411H77Q72 -411 71 -412V-415Q71 -424 78 -427Q84 -429 90 -431L92 -429Q88 -420 84 -411ZM653 -77V-81H651Q632 -80 622 -72Q611 -64 600 -55V-39Q600 -34 601 -32Q624 -36 647 -40Q652 -57 653 -77ZM657 -150H659Q668 -171 671 -196H670Q659 -196 638 -184Q616 -171 614 -163L613 -159Q613 -151 619 -141H622Q628 -142 636 -145Q644 -149 657 -150ZM668 -453V-447Q687 -449 696 -461Q704 -473 714 -484Q742 -509 758 -532Q714 -521 676 -505V-503Q672 -478 668 -453ZM151 -327V-331Q152 -339 152 -348V-351Q151 -355 145 -362Q139 -369 139 -374Q150 -374 155 -367Q158 -368 158 -374Q172 -378 183 -384Q194 -389 208 -390Q217 -390 222 -388Q239 -382 253 -365Q257 -358 261 -351Q271 -345 278 -337Q284 -326 284 -301Q282 -277 267 -256Q257 -251 247 -251Q224 -251 199 -270Q193 -270 183 -262Q178 -258 175 -258Q177 -268 184 -276Q179 -282 163 -288Q157 -307 151 -327ZM101 38H100Q73 38 55 20Q38 3 38 -21Q38 -45 58 -64V-70Q59 -85 66 -96Q73 -106 80 -117Q85 -126 89 -136Q92 -145 101 -150Q98 -134 95 -118Q95 -106 102 -103Q151 -129 206 -170Q216 -178 302 -246L304 -243Q293 -230 280 -219Q266 -209 261 -190Q270 -191 279 -202Q287 -213 295 -214V-213Q295 -209 287 -201Q274 -189 274 -178Q274 -172 275 -169L277 -168Q281 -170 285 -173L286 -172Q284 -163 278 -155Q283 -141 288 -126Q293 -111 308 -106Q298 -95 284 -88Q270 -81 264 -76Q225 -46 216 -22Q210 1 206 20Q202 39 188 51Q173 63 149 63Q114 63 101 38ZM312 -439V-437Q308 -437 304 -441Q300 -445 298 -445Q289 -435 269 -435Q245 -437 221 -439Q200 -439 193 -427L192 -431Q192 -438 204 -443Q200 -451 184 -462Q175 -469 170 -474Q145 -473 132 -459Q118 -445 101 -436Q105 -449 130 -466Q148 -478 154 -486Q149 -491 144 -491Q128 -486 114 -480Q117 -490 124 -495Q131 -499 137 -505V-507Q137 -514 130 -523Q125 -530 123 -534Q97 -530 77 -521Q57 -512 36 -503Q43 -514 74 -529Q105 -544 114 -556V-558Q114 -581 93 -581Q88 -581 78 -577Q87 -590 98 -601Q94 -618 83 -628Q71 -637 61 -647Q63 -648 67 -648Q73 -648 82 -643Q91 -638 95 -638H96Q101 -639 108 -646Q119 -657 125 -658Q129 -659 137 -659Q149 -658 161 -658Q164 -659 166 -666Q168 -672 173 -672L176 -671Q174 -667 172 -663L173 -661Q183 -645 193 -643Q199 -661 199 -673H204Q206 -662 207 -652Q207 -641 215 -632Q221 -626 236 -623Q253 -620 259 -615Q265 -610 271 -601Q278 -591 286 -589Q291 -589 295 -596Q299 -602 304 -603Q305 -601 305 -598Q303 -588 301 -579V-577Q301 -571 313 -553Q328 -531 330 -517Q333 -512 336 -508L337 -505Q335 -496 333 -487Q332 -479 327 -465Q316 -460 308 -453V-451Q310 -445 312 -439ZM761 77V84Q758 92 749 103Q743 114 736 124Q722 126 721 131Q690 129 665 105Q659 101 653 97Q649 92 645 77Q641 61 637 59H636Q628 61 619 62Q604 65 586 81H583Q555 79 543 61Q530 43 514 29Q519 19 519 11Q519 5 518 2Q510 -78 494 -101Q493 -103 487 -108Q481 -113 481 -118Q446 -96 422 -58Q414 -43 406 -25Q398 -8 382 -6Q374 -6 363 -12Q353 -7 348 0Q345 -1 345 -4Q348 -10 351 -16Q348 -23 341 -30Q333 -37 332 -40V-44Q332 -52 325 -60Q318 -68 317 -73V-75Q317 -82 325 -101Q332 -118 333 -129V-131Q331 -143 328 -156Q329 -159 329 -163Q333 -162 335 -156Q337 -149 340 -148V-150Q340 -163 333 -185Q327 -204 327 -214V-220Q335 -210 344 -185Q353 -159 361 -150Q478 -249 517 -286Q467 -269 452 -259Q438 -249 422 -236Q406 -224 389 -223Q376 -223 364 -236Q355 -250 352 -273Q325 -285 323 -319Q323 -334 332 -348Q342 -357 352 -367Q357 -375 360 -383Q364 -391 370 -397Q381 -401 391 -405Q405 -416 420 -420L421 -418Q421 -416 416 -411Q408 -403 408 -399Q412 -398 420 -398Q454 -402 488 -406H491Q507 -413 541 -419Q575 -425 588 -430Q588 -461 586 -475Q544 -474 493 -437Q443 -445 429 -478Q413 -479 405 -490Q397 -501 397 -516Q397 -539 411 -553V-556Q411 -568 405 -582Q400 -595 399 -600Q404 -600 408 -594Q412 -589 416 -589Q416 -601 404 -611Q395 -619 393 -625Q402 -625 410 -616Q418 -607 425 -607L427 -609Q425 -613 422 -617L423 -619Q451 -614 472 -614Q523 -614 574 -631Q574 -638 573 -646Q574 -654 574 -663Q574 -682 570 -694Q564 -705 555 -714Q549 -725 545 -733Q542 -742 529 -742H527Q529 -748 542 -753Q558 -759 558 -770Q574 -776 602 -795Q625 -811 640 -817Q664 -812 677 -795Q690 -778 708 -767Q712 -759 712 -736Q712 -718 714 -710Q697 -701 693 -666Q711 -668 745 -681Q768 -690 783 -693Q780 -684 780 -682Q780 -676 785 -673Q791 -673 797 -678Q804 -684 811 -684H813Q809 -677 804 -672Q799 -667 798 -658L800 -656Q805 -658 809 -660Q811 -660 813 -658Q806 -651 806 -641Q806 -623 819 -610Q815 -602 810 -595Q822 -607 836 -620Q850 -634 851 -653Q851 -658 850 -661Q842 -665 831 -667Q836 -674 846 -677Q855 -681 866 -685Q887 -698 903 -703Q915 -703 928 -686Q940 -671 942 -655Q951 -650 962 -649Q961 -646 961 -641Q961 -632 969 -618Q976 -606 976 -599V-598Q976 -593 970 -586Q963 -578 963 -572Q963 -571 965 -565Q957 -557 950 -547Q945 -549 933 -549Q888 -549 822 -477Q830 -474 838 -474Q852 -474 880 -484Q900 -491 908 -492Q904 -487 899 -485Q894 -483 893 -475Q899 -468 910 -468Q921 -468 932 -469H939Q918 -461 918 -453Q918 -449 921 -445Q928 -447 935 -450H936Q933 -442 933 -435Q937 -409 940 -383Q940 -372 936 -365Q924 -364 918 -357Q912 -350 906 -342Q873 -345 841 -345Q764 -345 681 -328Q645 -317 623 -288Q596 -264 589 -250Q635 -268 649 -276Q681 -294 697 -318Q699 -318 703 -316Q707 -327 723 -327Q729 -327 732 -325H733Q736 -327 738 -330H739Q750 -327 768 -313Q786 -299 798 -299Q806 -299 813 -302Q810 -297 807 -293L809 -290Q813 -291 821 -296Q831 -302 839 -302H841Q835 -297 829 -290Q823 -284 823 -272V-268L825 -267Q827 -269 832 -272L835 -271Q833 -267 833 -265Q833 -261 837 -253Q842 -243 842 -238V-237Q840 -227 838 -217Q840 -210 841 -203V-202Q838 -193 826 -189Q815 -184 804 -177Q787 -163 773 -87Q761 -21 759 35V40Q760 59 761 77Z"/>
</svg>