<svg xmlns="http://www.w3.org/2000/svg" viewBox="0 -800 1024 1024">
	<path fill="#000000" d="M693 -130Q689 -131 680 -131Q627 -131 615 -87Q652 -94 689 -102Q690 -110 693 -130ZM784 -600Q730 -591 696 -580Q652 -565 627 -542Q629 -536 631 -525Q633 -515 641 -512H643Q645 -512 675 -522Q693 -526 710 -531Q738 -540 756 -559Q771 -574 784 -600ZM637 24Q618 24 618 9L622 8Q633 8 637 24ZM758 -466L756 -464Q769 -448 785 -435Q772 -417 769 -394Q769 -387 770 -383L773 -382Q777 -383 780 -384H782Q784 -393 794 -405Q806 -420 807 -431Q807 -432 803 -432H798L796 -433Q798 -436 828 -445Q851 -452 854 -455V-456Q868 -456 889 -441Q899 -433 905 -423Q911 -412 915 -405V-401Q915 -393 928 -384Q942 -375 943 -367Q929 -369 914 -382Q902 -392 895 -395V-393Q895 -386 864 -383Q841 -381 841 -376Q858 -360 886 -351Q894 -353 901 -355H903L905 -354Q904 -351 903 -348L905 -346Q916 -348 926 -351V-348Q925 -344 923 -340V-339Q925 -333 931 -333Q937 -332 943 -330V-327Q943 -320 946 -318Q949 -317 952 -312Q950 -305 948 -298Q948 -296 951 -292Q936 -284 924 -276Q912 -269 891 -268Q848 -271 822 -297Q795 -324 778 -339L777 -337Q779 -332 780 -327Q780 -325 778 -323H777Q771 -323 770 -327Q769 -331 767 -335Q757 -331 757 -310Q758 -296 758 -283Q758 -270 756 -265Q743 -266 732 -267Q721 -268 714 -275V-280Q714 -285 711 -287Q707 -290 697 -291Q697 -296 710 -296Q713 -308 715 -320Q692 -311 671 -296Q647 -278 639 -259Q618 -256 614 -256Q608 -256 605 -257Q598 -261 591 -266Q582 -270 574 -273Q566 -276 565 -282V-284Q565 -290 572 -297Q578 -303 578 -307L577 -311Q596 -332 601 -336L616 -372Q617 -377 623 -384Q630 -393 630 -397Q641 -404 650 -413Q661 -411 677 -409Q693 -406 708 -394Q703 -425 696 -439Q696 -441 698 -444Q687 -440 669 -431Q648 -427 620 -406Q595 -387 591 -377Q553 -316 533 -237Q512 -159 492 -80Q502 -72 513 -72Q522 -72 528 -78Q533 -74 541 -74Q555 -76 569 -78V-79Q564 -87 555 -96Q556 -99 556 -103Q556 -113 551 -120Q550 -122 539 -131H554Q552 -145 532 -153Q545 -151 558 -149Q568 -149 575 -159L584 -170Q588 -178 594 -198Q600 -222 607 -231Q619 -233 628 -239Q633 -234 641 -234Q644 -217 652 -206Q666 -209 686 -208V-211Q686 -227 677 -234Q687 -247 697 -252Q709 -258 729 -258Q738 -258 743 -257Q758 -245 769 -229Q782 -230 791 -236Q800 -241 810 -246Q819 -239 827 -239Q835 -239 840 -243Q838 -235 838 -231V-228H840Q849 -230 857 -232H859Q854 -229 849 -225Q844 -222 843 -215Q843 -208 856 -208L857 -206Q853 -201 846 -189Q846 -186 845 -184Q846 -176 847 -168V-165Q836 -161 807 -157Q773 -152 760 -145Q757 -134 757 -120Q757 -114 758 -111Q877 -134 930 -138Q925 -136 921 -131Q925 -126 933 -126Q943 -126 953 -129Q938 -123 937 -112Q937 -104 949 -104H951Q946 -96 946 -86Q946 -76 951 -72Q945 -66 939 -46Q933 -28 927 -21Q875 -28 865 -33L852 -38Q846 -31 829 -31Q815 -31 801 -32H797Q791 -32 758 -26Q760 1 761 28L764 39Q765 47 765 54Q765 93 745 104Q694 86 672 50H673L677 51Q667 37 643 24H646Q661 29 675 33H677V32Q677 28 669 22Q659 15 658 10Q679 16 680 16H683Q690 6 690 -14Q684 -15 672 -15Q602 -14 555 22Q545 36 534 40H532Q523 40 517 26Q512 14 511 3Q492 -5 490 -33Q490 -39 493 -47Q490 -51 486 -55L487 -56H495Q500 -56 501 -57L502 -59Q499 -66 489 -71Q475 -36 469 6Q463 4 460 4Q451 4 439 16Q429 26 424 27H422Q416 27 407 21Q396 14 390 13Q366 -20 362 -66Q363 -72 363 -78Q370 -104 373 -128V-131Q373 -138 372 -145Q372 -149 375 -154Q380 -137 384 -120Q389 -125 389 -138Q389 -151 388 -164V-171Q393 -166 397 -138Q401 -147 401 -160Q401 -170 397 -186Q397 -192 398 -194Q395 -194 392 -194Q376 -195 363 -203Q350 -212 339 -220Q336 -200 336 -178Q336 -173 339 -110L346 -35Q353 -31 353 -7Q353 10 355 15Q355 17 361 28V32Q361 75 333 91H311Q274 65 258 34Q253 30 246 29Q248 21 248 16Q248 -2 232 -2H231Q257 -46 265 -190Q230 -164 201 -123Q172 -87 139 -52Q135 -48 131 -34Q125 -14 117 -8Q109 -10 89 -10Q77 -19 58 -58Q55 -64 55 -73Q57 -96 59 -120V-127Q59 -130 64 -130Q56 -167 49 -205Q55 -199 62 -179Q71 -154 83 -148Q101 -155 136 -183Q171 -208 199 -236Q218 -255 239 -274Q260 -293 268 -321Q251 -321 241 -313Q230 -305 217 -296Q194 -284 179 -272Q177 -269 162 -245Q152 -229 143 -227Q140 -226 134 -226Q113 -228 99 -245Q84 -263 73 -277Q65 -285 55 -292Q46 -298 43 -310Q42 -316 42 -326Q42 -347 59 -388Q56 -397 56 -407Q56 -426 77 -460Q93 -486 101 -495Q116 -512 133 -517Q126 -505 115 -495Q103 -485 102 -467V-463Q106 -464 112 -473Q121 -487 131 -487H132Q127 -478 125 -470Q125 -467 126 -465H127Q140 -467 153 -469Q160 -469 166 -466L193 -476Q194 -488 205 -492Q215 -496 225 -499Q244 -506 262 -514Q263 -517 263 -524Q262 -539 260 -555Q260 -561 261 -563Q243 -588 243 -620Q243 -648 258 -680Q265 -694 287 -710Q309 -726 324 -729Q334 -731 337 -731Q353 -730 361 -718Q368 -706 378 -689Q393 -665 394 -664Q401 -650 401 -635V-633Q397 -605 388 -579H389Q401 -582 412 -586H414L416 -583Q416 -580 411 -576Q405 -571 405 -568L406 -565L408 -564Q413 -567 417 -570L420 -569Q413 -550 422 -531Q436 -505 439 -468Q442 -437 437 -420Q429 -410 384 -384Q355 -367 348 -361Q347 -350 345 -340Q346 -337 346 -334Q361 -323 378 -315Q389 -320 395 -331Q401 -343 409 -352V-349Q409 -343 404 -331Q397 -314 397 -307Q397 -297 406 -292Q417 -299 428 -301H431Q431 -296 425 -292Q420 -289 419 -286Q419 -275 420 -266Q420 -257 428 -252V-250Q428 -237 421 -219Q415 -203 415 -195Q415 -192 417 -184Q412 -191 406 -196L404 -195Q407 -176 415 -159Q422 -164 428 -180Q435 -198 442 -203L444 -220Q443 -221 443 -228Q445 -243 450 -257Q463 -296 494 -363Q535 -451 548 -499Q519 -490 514 -474Q506 -481 495 -488Q483 -495 477 -507Q472 -526 467 -546Q461 -562 455 -577Q449 -593 448 -611V-614Q448 -629 461 -653Q470 -671 477 -687Q484 -703 502 -709Q509 -705 517 -705Q527 -705 542 -714Q555 -721 561 -723Q556 -716 552 -707Q552 -706 554 -702L557 -701Q559 -701 561 -704Q564 -708 567 -708Q570 -703 573 -699Q589 -704 606 -707Q612 -707 615 -706L636 -711Q637 -719 643 -720Q650 -720 656 -722Q687 -731 717 -740Q742 -747 766 -755Q790 -762 813 -763Q825 -779 850 -779Q868 -779 875 -768Q885 -771 895 -775Q895 -770 894 -766L895 -762Q902 -765 910 -772Q920 -781 926 -783Q925 -775 914 -763Q903 -751 903 -742V-740Q908 -740 912 -745Q916 -750 919 -750H920V-749Q917 -739 914 -729Q914 -724 918 -720Q924 -721 930 -723Q925 -718 925 -707Q925 -691 935 -684Q935 -630 927 -605Q916 -569 883 -564L870 -546Q867 -521 847 -501Q794 -472 770 -468Q768 -468 758 -466Z"/>
</svg>