<svg xmlns="http://www.w3.org/2000/svg" viewBox="0 -800 1024 1024">
	<path fill="#000000" d="M848 -675Q846 -679 846 -681Q849 -692 857 -693Q858 -691 858 -688Q858 -680 848 -675ZM96 -47H92Q84 -47 76 -53Q77 -58 84 -58Q96 -58 96 -48ZM941 -269V-272Q943 -282 944 -293H956L957 -289Q953 -275 941 -269ZM712 -368V-370H709Q674 -359 638 -348Q608 -336 604 -334Q582 -323 582 -312Q582 -307 589 -301Q592 -301 639 -317Q671 -322 691 -334Q696 -342 701 -351Q710 -358 712 -368ZM506 -178H507Q505 -170 505 -167Q505 -155 524 -136Q546 -114 546 -96Q546 -92 544 -84Q541 -76 537 -68Q522 -47 490 -42Q478 -42 470 -49Q453 -43 436 -38Q439 -46 442 -55Q432 -65 416 -65Q389 -65 353 -34Q356 -45 376 -61Q403 -83 403 -103Q403 -110 400 -121Q398 -125 389 -130Q381 -135 379 -140H384Q398 -140 409 -148Q414 -151 426 -166Q426 -176 423 -184L425 -185Q427 -185 430 -180Q433 -176 435 -175Q462 -178 465 -178Q482 -178 490 -169Q494 -170 497 -173Q502 -178 506 -178ZM916 -15H910Q900 -15 878 -25Q857 -35 845 -35Q836 -35 829 -31V-38Q829 -42 827 -46Q824 -44 816 -36Q806 -26 796 -23Q797 -30 805 -41Q810 -48 812 -53Q811 -54 799 -59Q782 -79 761 -96Q740 -114 738 -146V-151Q736 -158 734 -165L735 -169Q751 -177 775 -177Q804 -175 832 -174Q843 -174 848 -175Q851 -175 854 -180Q857 -185 862 -185H863L866 -183Q866 -182 863 -180Q859 -178 859 -175L860 -172Q860 -170 864 -170H870L873 -169Q882 -175 892 -201Q898 -215 904 -224Q905 -221 905 -216Q905 -209 898 -192Q892 -177 892 -169Q892 -161 898 -154Q912 -168 923 -209Q932 -242 938 -253L941 -251Q928 -201 923 -148Q924 -141 924 -134Q930 -142 939 -160Q936 -138 932 -116Q932 -108 933 -104L935 -103Q941 -106 946 -110L950 -109Q944 -100 944 -84Q944 -66 951 -50Q944 -40 936 -29Q928 -19 916 -15ZM895 -590L896 -589Q900 -590 903 -592L906 -590Q896 -571 887 -549Q878 -528 856 -518Q828 -509 790 -502Q738 -484 675 -466Q619 -457 582 -434Q574 -426 562 -418Q551 -409 535 -408H532Q516 -410 506 -431Q480 -437 473 -465V-469Q475 -481 476 -494V-497Q475 -503 471 -512Q466 -522 466 -528L467 -532Q468 -538 475 -545Q480 -550 481 -552V-555Q480 -562 479 -569V-571H488Q479 -592 470 -613Q476 -612 486 -603Q497 -593 503 -593Q508 -593 513 -598Q527 -591 544 -591Q579 -595 614 -600Q609 -619 605 -647Q600 -676 583 -682Q581 -682 578 -683Q569 -683 555 -669Q543 -657 534 -655Q548 -680 568 -700Q568 -714 575 -722Q581 -730 590 -741Q595 -749 600 -757Q626 -791 665 -791H675Q676 -792 680 -792Q711 -785 735 -764Q755 -742 760 -707V-704Q759 -696 748 -681Q734 -663 734 -650Q734 -644 737 -635Q771 -637 839 -670L841 -669Q840 -666 839 -663L841 -661Q846 -659 855 -659Q867 -659 886 -668Q906 -678 919 -678Q912 -671 898 -664Q879 -654 873 -646Q877 -644 878 -644Q887 -647 896 -650H900Q891 -643 891 -631Q891 -625 895 -621Q907 -626 922 -628Q915 -618 906 -612Q897 -605 895 -590ZM555 30H564Q572 30 576 26Q573 19 561 15Q556 13 540 10Q510 4 494 4Q507 -2 535 -4Q563 -6 574 -13Q597 -28 600 -164Q600 -175 592 -226Q578 -225 570 -218Q562 -211 552 -207Q527 -217 504 -223Q502 -246 488 -259Q474 -272 458 -283Q429 -298 426 -335Q427 -340 427 -345Q428 -346 435 -351Q431 -368 427 -385H430Q435 -385 438 -380Q440 -377 442 -376Q460 -397 491 -397Q509 -397 524 -388Q651 -424 772 -461L775 -463Q793 -474 809 -489Q826 -504 847 -506Q857 -506 866 -502Q874 -498 882 -486Q890 -486 906 -494Q919 -500 928 -502Q913 -492 913 -468Q913 -455 919 -446L923 -445Q930 -446 937 -448H939Q921 -424 921 -419Q921 -412 932 -412H934Q912 -373 907 -352Q863 -346 833 -317Q808 -293 790 -250Q781 -247 771 -238Q759 -227 750 -226H748Q737 -226 721 -239Q706 -251 695 -251Q690 -251 688 -250Q691 -235 697 -221Q678 -183 678 -118Q678 -73 689 -34Q702 7 702 21Q702 40 691 59Q683 74 674 88Q664 105 647 108Q644 109 640 109Q624 109 611 90Q597 68 583 65Q583 62 586 62Q589 62 589 59Q583 48 570 43Q557 38 544 34Q548 30 555 30ZM282 103H279Q263 103 242 87Q232 80 220 61Q217 51 213 41Q206 34 191 27Q172 19 167 10Q182 13 197 16Q205 16 210 11Q185 -2 158 -13Q132 -25 109 -40Q125 -37 149 -28Q186 -14 207 -12Q198 -22 176 -30Q154 -38 146 -46H149Q159 -46 179 -38Q199 -30 211 -30Q216 -30 219 -31Q223 -55 225 -140Q207 -135 192 -121Q184 -106 178 -89Q172 -73 152 -70H150Q138 -72 121 -79Q117 -90 112 -101Q84 -112 82 -145Q82 -160 91 -173Q86 -186 86 -196Q86 -218 105 -239Q117 -252 140 -269L141 -266Q139 -258 136 -250V-247Q141 -244 146 -244Q153 -244 176 -257Q202 -273 229 -286V-292Q231 -319 232 -347Q232 -357 231 -362Q218 -358 190 -339Q151 -312 129 -312Q108 -312 90 -329L87 -342Q67 -343 54 -361Q42 -378 42 -401Q42 -416 46 -428Q38 -444 38 -459Q39 -477 50 -491Q61 -505 75 -520Q83 -530 91 -540Q99 -550 114 -553V-552Q114 -550 109 -544Q100 -534 100 -526V-523L102 -522Q108 -527 114 -532L115 -530Q115 -527 114 -525V-523Q125 -514 139 -514Q163 -515 189 -527Q215 -538 232 -543Q232 -579 202 -597Q202 -607 195 -616Q193 -620 193 -628Q193 -639 204 -656Q212 -668 213 -675V-676Q213 -683 207 -696Q201 -709 201 -717V-721Q207 -720 216 -710Q225 -700 231 -700Q235 -700 239 -703L240 -704Q237 -706 234 -712L235 -715Q246 -708 258 -706Q270 -705 287 -704Q313 -699 327 -681Q341 -664 358 -647Q352 -621 350 -590Q363 -592 394 -605Q423 -618 438 -621Q437 -616 431 -611Q425 -606 424 -603Q427 -597 432 -597Q440 -598 448 -600H450Q443 -588 443 -578Q443 -571 445 -568Q448 -568 449 -571Q451 -575 454 -575L457 -574L458 -571Q455 -560 448 -549Q448 -545 451 -544Q453 -543 454 -541Q447 -516 448 -487Q439 -479 436 -463Q434 -450 427 -443Q416 -435 394 -433Q374 -426 359 -418Q331 -407 325 -395Q322 -389 322 -374V-357Q322 -345 321 -339Q345 -349 367 -362Q388 -376 411 -388Q408 -382 399 -372Q384 -357 384 -345Q385 -342 385 -339Q388 -340 391 -344Q396 -351 402 -351H403L404 -349Q399 -339 391 -328V-305L394 -303Q398 -305 402 -307L405 -305Q393 -281 393 -261Q393 -252 394 -248Q357 -223 316 -199V-163Q316 -61 324 -7Q328 15 332 37Q332 49 325 64Q307 90 282 103Z"/>
</svg>