<svg xmlns="http://www.w3.org/2000/svg" viewBox="0 -800 1024 1024">
	<path fill="#000000" d="M860 -314V-312Q860 -300 842 -300H839V-304Q842 -322 853 -323Q860 -323 860 -314ZM925 -140V-138Q923 -122 911 -111Q898 -99 881 -99H876Q861 -103 842 -114Q814 -126 797 -126Q787 -126 782 -125V-126Q785 -133 789 -138Q782 -152 760 -176Q739 -199 731 -215Q746 -227 746 -248Q746 -259 741 -267H747Q765 -267 791 -281Q798 -275 807 -270Q813 -273 833 -288Q837 -285 837 -279Q837 -276 836 -273Q852 -273 872 -289Q886 -300 897 -303Q895 -297 883 -287Q869 -275 869 -265V-261Q872 -254 878 -251Q884 -249 890 -244Q895 -246 900 -252Q906 -260 910 -261Q902 -245 902 -237Q902 -228 910 -218H911Q915 -219 918 -221H919Q917 -215 917 -204Q919 -183 921 -163Q923 -151 925 -140ZM302 -34Q323 -19 331 17V20Q329 39 326 57Q311 64 309 75Q297 80 280 80Q258 80 229 69Q212 58 199 54H198Q193 54 185 60Q178 65 173 66V64Q173 61 177 55Q180 50 181 45Q169 32 152 32Q126 32 102 52V51Q102 46 128 23Q116 -1 110 -8Q98 -23 78 -24Q79 -25 95 -36Q95 -40 94 -45Q95 -58 96 -71Q89 -78 72 -84Q73 -88 81 -88Q86 -87 91 -87Q94 -87 96 -88Q99 -97 99 -105Q99 -116 90 -139Q82 -159 81 -174Q87 -169 94 -153Q103 -133 112 -129Q117 -133 117 -141V-156Q121 -155 124 -150Q128 -145 131 -144H134Q139 -144 163 -137Q174 -142 179 -153Q184 -164 189 -174Q191 -153 206 -140Q207 -139 237 -120Q238 -120 240 -124Q242 -128 246 -128H247Q247 -120 246 -113V-109Q248 -97 267 -81Q287 -64 288 -50ZM424 -421Q417 -435 417 -446L413 -447Q403 -445 390 -438Q375 -434 360 -431Q345 -429 344 -418Q344 -413 349 -405Q364 -407 380 -412Q409 -420 424 -421ZM652 -473H636Q568 -473 543 -462Q550 -450 556 -446Q552 -443 550 -438Q591 -440 631 -443Q642 -458 652 -473ZM415 -213H413Q405 -211 397 -210Q393 -210 390 -213Q390 -221 399 -221Q413 -221 415 -213ZM805 -633Q803 -621 797 -613H788V-617Q788 -623 792 -629Q796 -634 801 -634ZM641 -159Q671 -129 709 -96Q703 -108 685 -128Q678 -134 670 -140Q661 -146 657 -157Q677 -149 691 -134Q704 -119 718 -106Q740 -88 792 -72V-70Q794 -66 795 -63Q817 -59 827 -42Q837 -26 850 -12Q844 9 833 24Q822 40 811 57H807Q784 57 740 66Q706 73 688 73H685Q665 73 656 63L624 66Q619 70 612 70Q595 66 577 61Q539 56 506 43Q468 28 448 7L426 -11Q402 -16 391 -35Q379 -54 364 -68Q355 -99 346 -131V-132Q346 -135 349 -135Q352 -136 354 -137Q354 -147 353 -157Q353 -170 358 -175Q361 -171 363 -165Q364 -160 370 -159Q372 -161 372 -163V-167Q372 -172 374 -172Q397 -137 438 -117Q440 -115 440 -108Q448 -107 456 -96Q464 -86 474 -86H475Q480 -82 482 -77Q498 -76 509 -65L512 -64Q515 -65 517 -66H518Q560 -52 599 -52Q627 -52 659 -60Q665 -69 681 -74Q680 -85 674 -90Q668 -96 663 -103Q675 -101 681 -95Q688 -89 696 -83Q681 -104 663 -123Q645 -141 628 -160Q592 -165 561 -183Q561 -179 561 -175Q561 -169 564 -162Q572 -160 576 -160Q580 -160 583 -163Q586 -153 595 -138Q609 -115 609 -103Q609 -92 604 -85Q566 -74 553 -74Q532 -74 524 -88H511Q491 -116 470 -125V-128Q470 -136 462 -146Q457 -152 457 -154Q464 -154 470 -156Q483 -180 516 -182Q530 -182 539 -177Q547 -181 554 -185Q550 -187 544 -189Q542 -190 535 -190Q528 -190 524 -189Q513 -202 468 -205Q435 -207 422 -213H446Q478 -212 510 -212Q526 -212 541 -213Q531 -218 502 -219Q469 -220 459 -228Q470 -227 495 -227Q530 -227 545 -228Q536 -233 521 -234Q506 -235 492 -237Q501 -243 522 -245Q550 -248 557 -260Q560 -264 565 -288Q550 -288 522 -284Q523 -280 523 -277Q506 -260 499 -245Q476 -245 473 -239Q470 -245 457 -254Q445 -262 440 -268Q439 -269 437 -271Q372 -265 349 -255Q360 -225 364 -199V-197Q363 -188 352 -174Q343 -163 341 -155Q335 -157 329 -159Q323 -157 317 -154Q311 -151 311 -144L312 -140Q307 -151 291 -160Q278 -167 273 -173Q265 -188 259 -203Q252 -213 240 -214Q227 -216 212 -217Q222 -224 247 -228Q250 -237 250 -244Q250 -254 244 -264Q238 -274 238 -284Q238 -289 240 -297L216 -353Q212 -353 205 -358Q197 -364 193 -364H190Q185 -378 159 -387Q158 -392 153 -403Q146 -419 146 -429V-431Q146 -440 153 -456Q159 -470 160 -479Q184 -486 184 -507Q184 -513 183 -515L185 -516Q187 -516 190 -509Q193 -501 198 -501L202 -502Q203 -504 203 -507Q203 -513 197 -528Q191 -542 191 -550Q191 -555 192 -557Q206 -536 224 -519Q225 -523 225 -529Q225 -540 214 -562Q206 -577 205 -586L207 -587Q214 -584 220 -577Q229 -566 239 -553Q250 -541 266 -535H267Q270 -535 270 -538Q271 -541 275 -541Q287 -540 295 -533Q302 -525 308 -516Q317 -496 338 -493H340Q354 -496 368 -500Q393 -505 458 -516Q458 -521 451 -525Q445 -528 437 -528Q433 -528 431 -527L429 -529Q429 -530 433 -538Q428 -542 422 -542Q413 -541 405 -535Q397 -529 390 -525V-526Q390 -531 403 -544Q413 -554 415 -557Q405 -564 403 -578Q400 -592 396 -606Q405 -608 417 -616Q434 -628 445 -628Q453 -626 461 -625Q493 -622 498 -621L505 -630Q504 -632 504 -635Q504 -643 514 -654Q524 -666 526 -672Q456 -661 372 -620Q361 -613 350 -604Q340 -595 323 -594Q301 -595 290 -608Q279 -622 269 -637Q265 -642 255 -643Q246 -643 246 -651Q246 -661 254 -669Q252 -674 244 -682Q236 -689 234 -695H237Q241 -695 247 -690Q251 -686 257 -686H258Q254 -696 239 -707Q221 -721 218 -734Q225 -733 235 -722Q247 -709 257 -709H260V-710Q260 -713 255 -718Q248 -724 248 -728Q256 -723 265 -723Q276 -724 285 -730Q294 -736 303 -742Q317 -737 341 -737Q358 -737 374 -738Q394 -738 405 -734L451 -743Q454 -751 462 -752Q471 -752 482 -754Q499 -759 516 -764Q533 -767 578 -771Q618 -774 639 -779Q650 -783 661 -789Q673 -795 689 -796H693Q703 -796 719 -785Q730 -777 737 -776Q746 -779 758 -787Q773 -798 782 -799Q777 -791 766 -781Q755 -772 754 -758Q754 -753 755 -751Q768 -760 776 -770Q777 -768 777 -764Q777 -758 773 -754Q769 -750 769 -746Q769 -740 772 -736H773Q777 -738 780 -740H781Q774 -731 772 -729Q771 -727 771 -718V-714Q771 -698 769 -692Q764 -674 747 -670Q730 -666 711 -663Q692 -658 675 -647Q659 -636 642 -625Q609 -605 586 -577Q588 -570 594 -569Q599 -567 606 -567Q598 -562 598 -545Q598 -539 600 -531Q618 -532 645 -537Q680 -544 695 -544H710Q717 -546 730 -560Q746 -577 758 -577Q761 -577 767 -575Q770 -582 774 -589Q778 -596 785 -599Q783 -589 780 -580Q780 -577 781 -575Q803 -565 821 -565Q828 -565 831 -566Q843 -568 860 -585Q877 -601 889 -603Q886 -595 871 -580Q850 -559 850 -546Q850 -539 854 -532Q861 -534 877 -546Q886 -553 895 -557V-556Q894 -545 882 -538Q870 -531 868 -515V-513H869Q874 -513 880 -520Q887 -527 890 -527Q892 -527 896 -525Q880 -517 872 -476Q866 -447 859 -437Q833 -436 818 -428Q803 -420 785 -408L738 -332Q715 -295 691 -258Q691 -248 690 -239Q690 -224 698 -216Q688 -206 679 -180Q673 -163 652 -159ZM574 -351Q576 -365 578 -379Q574 -380 562 -380Q543 -380 525 -376Q523 -374 523 -343Q548 -351 569 -352Q572 -352 574 -351ZM427 -331Q427 -347 427 -363Q407 -360 389 -359Q371 -357 365 -342Q363 -333 361 -325Q376 -327 408 -329Q416 -330 427 -331Z"/>
</svg>