<svg xmlns="http://www.w3.org/2000/svg" viewBox="0 -800 1024 1024">
	<path fill="#000000" d="M488 -632V-634Q489 -647 499 -648Q502 -648 506 -646Q503 -632 488 -632ZM204 3Q202 7 193 7Q182 7 180 1Q182 -5 188 -5Q200 -5 204 3ZM913 -169Q911 -177 911 -182Q912 -187 912 -192Q916 -197 919 -197Q923 -197 923 -188Q923 -170 913 -169ZM701 -238V-241Q688 -235 674 -229Q660 -223 653 -210Q660 -210 666 -204Q671 -199 676 -198Q682 -208 691 -218Q700 -228 701 -238ZM635 -338Q635 -343 634 -348Q636 -367 637 -386Q637 -401 632 -410Q587 -358 578 -324Q582 -329 592 -335Q594 -334 597 -330Q600 -326 603 -326Q630 -337 635 -338ZM780 -379Q780 -388 768 -388Q762 -388 760 -387Q763 -397 766 -407Q764 -407 761 -408Q753 -408 744 -395Q736 -383 728 -381Q739 -408 755 -436Q770 -464 778 -497Q747 -489 724 -473Q711 -428 711 -385Q711 -375 713 -359Q728 -361 748 -369Q769 -378 780 -379ZM207 -72H206Q191 -73 181 -85Q170 -97 159 -106Q155 -108 150 -108H147Q139 -117 131 -126Q129 -134 129 -137Q129 -145 140 -174Q143 -182 144 -196Q146 -219 152 -227Q160 -238 183 -255Q186 -255 186 -250Q186 -246 190 -244Q231 -267 284 -293Q287 -309 287 -327Q287 -335 285 -351Q186 -309 149 -255Q110 -264 109 -264Q88 -270 78 -284Q71 -298 64 -312Q61 -316 43 -329Q28 -340 26 -350Q25 -354 25 -362Q25 -393 38 -416Q43 -421 47 -426Q51 -434 51 -445Q51 -456 50 -468V-473Q105 -531 117 -542Q108 -524 108 -518Q108 -512 112 -508Q174 -511 253 -546H262Q268 -546 269 -545Q267 -559 253 -566Q237 -574 235 -585Q234 -588 234 -594Q234 -621 269 -661Q294 -690 321 -690Q337 -690 346 -678Q352 -668 358 -658Q378 -635 397 -607V-600Q397 -595 399 -591Q417 -595 441 -610Q465 -625 478 -629V-628Q475 -618 461 -609Q455 -605 448 -600Q441 -595 439 -588L442 -587Q446 -587 452 -592Q459 -598 465 -598H466Q455 -586 451 -568Q451 -564 454 -558L458 -557Q463 -559 468 -561H469L470 -560Q466 -554 461 -540Q461 -535 464 -532L465 -531Q468 -532 470 -533L473 -532Q466 -522 462 -494Q459 -468 454 -460Q454 -459 457 -450Q456 -445 451 -442Q446 -440 444 -435L445 -434H447L449 -433L448 -431Q427 -418 399 -410Q375 -400 355 -382Q353 -363 350 -345Q350 -337 352 -333Q384 -345 439 -379Q432 -369 422 -357Q412 -345 408 -329L412 -328Q415 -328 419 -333Q423 -338 427 -338Q416 -325 416 -306Q416 -284 430 -275Q430 -271 429 -268Q432 -250 438 -237Q423 -224 394 -207Q364 -190 355 -182Q361 -80 373 37Q354 60 334 82Q300 75 287 61Q270 41 253 24Q236 7 211 3Q213 2 217 2Q227 3 236 4Q240 4 242 3Q226 -12 195 -15Q163 -19 135 -23Q148 -30 167 -30Q190 -28 213 -27Q232 -27 245 -34L246 -37Q246 -38 242 -41Q238 -44 238 -47Q266 -75 269 -129Q260 -125 244 -103Q223 -73 207 -72ZM915 -90V-118Q915 -142 918 -152Q923 -85 928 -57Q936 -8 954 22Q950 49 932 62Q915 74 901 89Q877 78 868 78Q863 79 857 80L854 79Q849 78 820 54Q804 37 787 12Q756 -23 713 -57Q681 -89 674 -89Q669 -89 652 -67Q640 -50 633 -39Q626 -26 619 -2Q612 24 606 33Q604 32 601 32Q593 35 587 40Q550 22 538 -30Q535 -42 532 -55Q532 -62 538 -68Q536 -73 529 -80Q521 -88 519 -95Q538 -89 557 -84H559Q578 -87 593 -104Q607 -121 621 -131Q613 -142 601 -151Q589 -161 586 -178Q559 -183 556 -185Q551 -199 540 -209Q511 -149 503 -66Q502 -47 500 -28Q499 -9 488 4Q482 4 477 8Q472 12 470 13Q445 6 429 -9Q413 -25 397 -42Q400 -51 400 -59Q397 -83 393 -107V-109Q396 -119 399 -129Q399 -135 393 -149Q387 -163 387 -171Q388 -174 388 -177H390Q396 -177 401 -161Q407 -144 411 -144Q419 -144 441 -194Q481 -281 488 -381H492Q493 -389 493 -397Q493 -415 484 -423Q485 -430 485 -438Q485 -453 484 -469Q484 -491 492 -504Q498 -510 504 -516Q507 -523 510 -531Q526 -550 542 -550Q567 -550 589 -517Q597 -523 633 -542Q635 -564 635 -576Q635 -594 634 -612Q634 -624 636 -646Q608 -676 597 -693H595Q591 -693 588 -689Q585 -685 583 -685L581 -686Q582 -694 591 -710Q601 -729 603 -739Q615 -743 628 -762Q645 -786 653 -792Q670 -802 688 -802Q709 -802 719 -787Q720 -771 738 -752Q751 -739 753 -729V-714Q756 -703 759 -693Q759 -686 751 -671Q746 -662 744 -655Q737 -633 735 -588Q764 -600 792 -624Q819 -647 858 -650Q875 -650 889 -645Q897 -648 908 -660Q921 -673 931 -676Q926 -667 919 -656Q912 -645 911 -634Q911 -622 922 -617Q926 -622 932 -624H935Q933 -618 930 -612V-609H931Q938 -609 944 -614Q949 -619 956 -623Q949 -610 945 -592Q945 -582 959 -579Q958 -573 958 -560Q959 -544 959 -528Q959 -495 947 -483Q905 -476 875 -443Q864 -431 829 -378Q839 -364 845 -364Q846 -364 852 -366Q849 -358 845 -350L848 -349Q850 -349 853 -353Q857 -359 862 -359H864Q857 -345 851 -324Q856 -316 856 -303Q856 -293 854 -288Q845 -277 836 -267H830Q815 -267 803 -257Q782 -238 764 -211Q747 -183 731 -162Q752 -140 781 -128Q801 -116 819 -105Q838 -93 861 -86Q874 -91 874 -124V-127Q874 -152 880 -158Q883 -151 883 -127Q883 -99 889 -90Q894 -99 894 -113Q893 -132 891 -152Q895 -185 898 -218Q907 -215 907 -203Q907 -200 904 -182V-165Q904 -127 913 -62Q915 -70 915 -90Z"/>
</svg>