<svg xmlns="http://www.w3.org/2000/svg" viewBox="0 -800 1024 1024">
	<path fill="#000000" d="M835 -477V-474Q835 -467 831 -464Q826 -461 823 -457Q822 -459 822 -463Q822 -477 833 -477ZM932 -250Q930 -240 929 -230Q928 -220 920 -217Q918 -227 918 -234Q918 -251 927 -251Q930 -251 932 -250ZM542 -391V-397Q542 -403 540 -405Q510 -400 480 -392Q449 -385 440 -362Q492 -373 543 -385Q542 -386 542 -391ZM443 -27V-17Q385 5 351 53Q312 48 287 30Q278 24 278 12Q278 0 289 -13Q287 -17 287 -24Q288 -39 304 -48Q319 -57 332 -67V-63Q332 -57 336 -51Q359 -53 395 -74Q431 -96 452 -97Q445 -92 439 -87Q432 -82 431 -71V-69H432Q435 -69 446 -77L447 -75Q442 -66 437 -57Q437 -56 439 -52L440 -51Q445 -53 449 -55L452 -54Q443 -48 443 -27ZM767 19V23Q749 38 717 42Q691 23 658 6Q641 -2 625 -9Q609 -16 597 -30Q579 -54 561 -79Q569 -88 590 -88Q617 -86 643 -85Q673 -85 684 -102Q684 -96 683 -90Q683 -86 684 -85Q693 -94 700 -104Q708 -114 718 -121V-119Q718 -115 714 -107Q707 -93 707 -85V-80Q710 -74 714 -74Q721 -74 727 -97Q733 -96 733 -90Q733 -85 732 -81V-79Q737 -55 752 -51Q764 -33 769 -10Q766 -4 766 2Q767 11 767 19ZM958 -34V-30Q957 8 921 38Q916 39 910 39Q880 39 849 21Q831 10 800 -16Q785 -57 762 -92Q740 -126 718 -163L717 -160V-152Q658 -135 610 -97Q600 -99 587 -113Q572 -128 562 -128Q554 -128 546 -124V-120Q544 -91 542 -62V-54Q545 -38 548 -22Q559 22 563 60V68Q559 104 504 121Q490 102 473 86Q456 69 447 44Q443 40 436 38Q452 20 455 2Q460 -24 464 -51Q466 -65 466 -75Q466 -90 464 -112Q464 -162 459 -184Q457 -197 454 -211Q454 -216 455 -218Q459 -232 483 -240Q493 -242 501 -242Q523 -242 531 -234Q536 -226 540 -210Q556 -179 560 -158V-155Q559 -151 556 -148Q551 -143 551 -138Q556 -139 563 -148Q569 -158 578 -168Q587 -177 598 -186Q609 -195 610 -208Q610 -211 609 -214Q607 -220 599 -223Q590 -226 587 -231Q616 -232 650 -247Q641 -264 628 -277Q495 -252 439 -240Q408 -232 376 -224Q372 -224 368 -225L364 -224Q355 -216 349 -203Q354 -206 365 -206Q375 -205 385 -205Q391 -200 396 -194Q401 -188 410 -187Q419 -190 428 -194Q431 -194 433 -193Q426 -185 426 -175Q426 -157 446 -142Q444 -114 436 -99Q420 -95 407 -95Q400 -95 388 -97Q381 -105 369 -109Q366 -109 364 -108Q356 -123 341 -127Q343 -133 343 -134Q342 -142 336 -149Q330 -157 326 -165Q290 -128 269 -77Q249 -25 224 23Q208 33 188 33Q164 33 146 20Q126 6 122 -16Q119 -22 111 -22Q107 -38 97 -47Q87 -56 77 -67L80 -68Q91 -64 101 -58Q105 -61 108 -64Q101 -85 70 -109Q46 -127 39 -139L42 -140Q51 -137 62 -129Q120 -98 138 -91Q162 -105 178 -129Q193 -153 212 -174Q196 -166 183 -157Q161 -160 153 -171Q145 -183 129 -201Q120 -209 111 -216Q103 -222 101 -235V-241Q101 -264 122 -274V-290Q142 -316 173 -330Q204 -344 234 -359L235 -358Q231 -348 216 -343Q213 -339 208 -335Q204 -331 203 -324H211Q231 -324 278 -334Q309 -341 323 -342Q337 -352 345 -369Q319 -395 317 -411V-415Q317 -426 329 -441Q342 -456 342 -466Q351 -476 365 -479Q378 -482 393 -487Q398 -495 403 -503Q401 -504 397 -504Q389 -502 381 -500Q341 -481 319 -472Q311 -468 295 -458Q271 -442 261 -441H257Q246 -442 235 -444H231Q215 -464 196 -490Q177 -516 175 -548Q175 -568 186 -586Q182 -595 182 -605Q182 -630 222 -654Q225 -654 227 -650Q229 -646 230 -646Q238 -645 252 -645Q290 -646 323 -655Q356 -664 393 -672Q394 -672 403 -669Q407 -675 421 -675H428Q435 -686 435 -701Q435 -713 434 -726Q434 -739 439 -748Q441 -751 456 -763Q480 -786 504 -787Q515 -787 528 -783Q557 -777 573 -760Q581 -730 594 -709Q647 -715 681 -733Q700 -734 718 -743Q737 -752 752 -758Q752 -746 758 -738Q774 -741 793 -750Q817 -761 829 -763Q816 -753 802 -745Q788 -737 781 -723L785 -722Q797 -726 811 -733V-732Q811 -726 802 -720Q789 -711 789 -701Q789 -697 790 -694L792 -693Q797 -697 803 -701L807 -700V-699Q803 -687 798 -670Q798 -663 807 -660Q798 -652 793 -645Q794 -641 794 -634Q794 -618 784 -601Q729 -593 576 -556Q542 -551 514 -540Q509 -537 506 -525Q504 -516 501 -513Q532 -522 562 -530Q591 -538 616 -554H617Q620 -554 622 -544Q630 -545 638 -547L639 -545Q639 -542 638 -540Q654 -546 675 -549H680Q673 -543 664 -538Q654 -533 653 -524V-522Q654 -515 660 -515Q672 -517 683 -520H684Q678 -511 671 -502Q673 -485 680 -478Q678 -473 675 -460Q672 -443 667 -437Q665 -436 662 -436Q656 -436 655 -428Q617 -426 610 -421Q620 -409 631 -400Q713 -417 726 -420Q781 -433 812 -449Q804 -444 804 -432Q804 -426 808 -422Q822 -427 837 -430Q836 -426 831 -423Q826 -420 825 -418Q827 -407 832 -403Q836 -404 852 -408L854 -406Q854 -405 850 -397L854 -396Q866 -398 878 -400H883Q872 -395 864 -391Q855 -386 855 -376Q855 -371 861 -362Q869 -350 869 -342Q869 -339 867 -333Q856 -329 847 -309Q838 -288 828 -286Q820 -284 815 -284Q785 -289 754 -294Q745 -294 733 -289Q798 -207 874 -169Q887 -186 887 -231V-238Q895 -234 895 -221Q894 -209 893 -198Q893 -174 896 -166Q900 -187 900 -217Q900 -245 899 -273Q899 -280 898 -288Q898 -300 905 -304Q909 -246 912 -188V-181Q911 -163 909 -146Q909 -132 914 -126Q915 -170 920 -210Q931 -183 929 -146Q931 -124 944 -88Q958 -51 958 -34Z"/>
</svg>