<svg xmlns="http://www.w3.org/2000/svg" viewBox="0 -800 1024 1024">
	<path fill="#000000" d="M145 1Q141 2 137 2Q120 2 120 -7Q120 -10 121 -12Q142 -8 145 1ZM674 -280V-294Q669 -291 663 -288Q657 -306 648 -309Q646 -310 641 -310Q631 -309 620 -308Q612 -308 608 -315H621Q636 -315 641 -320Q629 -344 613 -363Q600 -331 595 -289Q588 -296 578 -298Q569 -300 563 -303Q565 -288 567 -274V-271Q651 -280 662 -280ZM598 -496H597L593 -494L592 -496L591 -499Q593 -503 595 -508L594 -510Q573 -481 548 -450Q540 -444 539 -441Q532 -432 532 -416Q535 -389 544 -369Q551 -341 556 -332Q556 -361 565 -370Q554 -394 550 -422Q550 -432 554 -441Q567 -454 582 -461Q596 -468 598 -496ZM706 -612V-619Q681 -609 669 -595Q655 -580 641 -567Q626 -554 618 -535Q623 -538 626 -538Q632 -538 639 -524Q644 -512 648 -511H651Q658 -512 662 -518Q665 -524 671 -528Q677 -532 689 -526Q686 -508 683 -490Q682 -484 681 -479V-475Q685 -471 685 -462Q685 -451 689 -448H688Q683 -447 682 -441Q680 -435 678 -430Q671 -428 655 -412Q662 -398 685 -379Q687 -389 687 -393Q687 -399 686 -406Q687 -409 687 -412Q688 -418 692 -430Q693 -436 693 -449V-467Q695 -511 700 -550Q703 -581 706 -612ZM526 -47Q535 -45 538 -26Q542 3 543 5Q536 33 528 48Q526 48 523 47Q511 47 506 57H498Q466 57 444 32Q438 36 432 40L429 39V38Q431 31 435 26Q424 7 414 7Q410 7 405 10L404 8Q407 0 410 -9V-10Q406 -19 401 -28Q396 -29 386 -29Q369 -29 358 -19Q354 -15 351 -10Q347 -5 340 -5H338Q345 -18 367 -36Q381 -48 389 -58Q390 -62 390 -70Q387 -98 377 -118L380 -119Q384 -119 388 -113Q394 -105 398 -105H399Q402 -109 402 -114Q399 -129 396 -144V-148Q402 -134 414 -134Q422 -134 440 -142Q444 -166 447 -190L449 -188Q449 -137 475 -125Q482 -130 489 -147Q495 -161 498 -165Q495 -135 495 -131Q495 -115 498 -109Q503 -104 507 -100V-97L508 -93Q516 -83 519 -68V-61ZM662 35Q654 32 646 29H644Q599 -3 568 -49V-51Q565 -71 558 -88V-97Q557 -114 555 -132Q555 -139 558 -145Q559 -143 560 -137Q561 -128 564 -127L565 -129L564 -133V-134Q569 -131 574 -129Q576 -129 579 -131Q602 -117 620 -97Q628 -89 636 -81Q656 -71 676 -61Q678 -62 683 -62Q705 -57 731 -52Q739 -52 757 -59Q769 -64 778 -65Q791 -76 793 -76Q794 -78 794 -81Q794 -88 788 -99Q784 -106 784 -112V-115Q789 -112 795 -102Q801 -92 805 -90Q800 -107 788 -124Q783 -130 777 -137Q771 -143 770 -154Q782 -148 799 -125Q812 -107 821 -100Q812 -120 775 -166L777 -168Q788 -164 797 -153Q805 -142 814 -130Q833 -111 852 -93Q860 -81 868 -70Q872 -65 879 -60Q890 -52 893 -47Q896 -40 899 -33Q901 -27 907 -24Q902 -17 902 -3V1Q896 9 896 18Q897 21 897 24Q888 34 875 36Q862 37 850 41Q797 60 763 60Q752 60 745 59Q719 57 710 47ZM730 -101V-94Q725 -81 717 -71H714Q708 -72 701 -73Q698 -73 696 -71Q689 -80 681 -89Q673 -97 668 -111H659V-113Q662 -121 664 -130Q660 -144 651 -144Q648 -144 646 -143Q648 -150 658 -150H664Q673 -162 674 -178Q680 -171 688 -171Q695 -171 702 -172H706Q718 -158 726 -151Q730 -121 730 -101ZM970 -223Q970 -218 965 -215Q961 -213 960 -209Q961 -205 961 -191Q961 -167 954 -165Q955 -161 956 -157L955 -154H952Q943 -153 938 -148Q933 -142 928 -137Q930 -126 931 -115Q926 -122 921 -133Q918 -132 914 -132Q901 -132 895 -140Q894 -140 894 -136Q881 -145 868 -154Q857 -149 849 -142Q851 -152 853 -163Q839 -184 820 -202Q802 -220 799 -254Q796 -263 787 -271Q785 -273 771 -283Q772 -284 776 -284Q792 -279 810 -274Q809 -279 803 -282Q798 -285 797 -288Q805 -286 807 -286Q820 -287 833 -289Q849 -286 865 -284Q869 -284 870 -285Q875 -286 880 -292Q886 -299 889 -299L893 -298Q890 -292 887 -286Q898 -272 910 -268H911Q919 -270 929 -291Q938 -310 945 -312Q932 -283 932 -266Q932 -253 938 -246Q943 -248 947 -251Q947 -246 946 -241Q946 -221 956 -220Q966 -225 967 -225ZM959 -332Q953 -324 947 -317Q946 -319 946 -323Q948 -339 954 -340Q958 -340 959 -332ZM380 -577H379Q379 -580 378 -583Q379 -580 380 -577ZM380 -577Q384 -575 387 -566Q391 -555 396 -553Q396 -560 389 -575Q381 -592 381 -603V-607Q388 -598 392 -585Q396 -572 407 -568Q402 -577 397 -595Q402 -593 409 -582Q414 -573 418 -571Q426 -575 428 -579Q439 -568 447 -568Q451 -568 455 -573Q468 -565 478 -551Q498 -567 532 -602Q568 -639 586 -654Q610 -673 636 -689Q661 -705 683 -728Q688 -749 705 -757Q721 -766 734 -777Q736 -779 744 -792Q750 -802 757 -802H758Q767 -799 776 -786Q784 -773 791 -764Q795 -766 799 -768H801V-767Q799 -762 797 -757Q802 -758 810 -765Q821 -774 825 -775V-774Q825 -770 816 -761Q802 -748 802 -736Q802 -733 803 -731Q812 -736 820 -746V-744Q820 -740 815 -734Q809 -727 809 -720Q817 -703 831 -689Q847 -672 861 -671Q848 -665 848 -638Q848 -630 849 -626L850 -623Q853 -624 855 -625L857 -623Q854 -612 847 -611Q839 -609 834 -605Q822 -593 819 -560H817Q814 -561 811 -563Q795 -540 786 -456Q779 -396 771 -371L766 -342Q766 -316 760 -272Q753 -220 753 -192V-176Q730 -182 707 -189Q706 -189 702 -187Q699 -195 698 -197Q698 -189 692 -189Q689 -189 687 -191Q686 -199 685 -208Q681 -205 677 -205Q672 -205 672 -215V-217Q576 -215 545 -197Q531 -188 530 -173Q527 -179 522 -180Q520 -179 518 -178Q507 -194 494 -208Q482 -223 481 -254Q478 -270 469 -283Q459 -296 452 -311Q441 -320 433 -330L430 -331Q428 -331 426 -330Q420 -345 399 -353Q398 -359 394 -365Q389 -372 388 -377Q378 -390 376 -419Q370 -411 367 -409Q359 -401 338 -389Q318 -377 311 -371Q305 -364 305 -342V-311Q313 -314 338 -331Q345 -337 353 -343Q360 -349 370 -350Q369 -344 359 -336Q344 -324 344 -312V-311H345Q346 -311 350 -316Q355 -323 360 -323L363 -322Q362 -318 357 -313Q349 -304 349 -298Q349 -295 350 -293H351Q353 -296 362 -299L365 -298Q353 -278 353 -265Q353 -259 356 -256Q352 -238 352 -229Q352 -221 353 -217Q321 -202 305 -182Q305 -177 304 -172Q309 -134 314 -100Q314 -88 312 -82L318 -52Q324 -48 324 -33V-23Q327 0 333 17V19Q333 44 315 56Q303 64 276 70Q273 71 271 75Q269 79 267 79Q267 78 264 69Q254 60 243 52Q231 43 224 31Q168 6 151 2Q155 -2 163 -2Q177 0 191 2Q170 -8 141 -17Q127 -21 113 -24Q100 -27 91 -38Q103 -37 133 -30Q169 -22 194 -22H203Q202 -27 192 -28Q182 -29 181 -34H184Q237 -34 237 -130Q227 -125 213 -99Q199 -73 185 -68Q150 -73 141 -92Q102 -97 102 -133Q102 -141 105 -152Q109 -157 115 -160Q113 -166 113 -176Q113 -204 145 -224Q149 -219 153 -214Q171 -221 202 -243Q232 -265 252 -272V-335Q236 -331 227 -324Q216 -315 208 -311Q189 -300 174 -281Q159 -261 136 -257Q131 -256 126 -256Q105 -256 95 -266Q92 -268 88 -277Q81 -291 77 -294Q60 -305 47 -315Q33 -324 32 -348V-354Q37 -374 48 -398Q44 -409 44 -419Q45 -437 56 -449Q66 -461 77 -474Q83 -483 87 -493Q91 -504 100 -510L102 -507Q100 -499 97 -492L98 -488Q98 -487 102 -485Q105 -483 106 -480Q109 -486 110 -494Q118 -482 133 -482Q153 -485 172 -488L187 -493Q189 -499 190 -505Q207 -509 222 -523Q237 -537 250 -541Q252 -551 252 -555Q250 -581 247 -607Q248 -611 249 -616Q246 -624 237 -638Q225 -656 225 -666Q225 -672 228 -680Q225 -688 221 -695Q232 -702 250 -723Q264 -739 273 -746H275Q282 -744 287 -739Q295 -742 303 -746Q316 -740 323 -728Q331 -716 339 -703Q357 -684 365 -657Q366 -653 366 -646Q365 -624 355 -599Q344 -575 336 -556L339 -555Q348 -559 357 -563L358 -561Q355 -555 352 -550Q352 -549 354 -545L356 -543Q360 -544 364 -546L366 -545Q365 -543 365 -538Q365 -529 375 -513L377 -516V-526Q382 -534 386 -542V-545Q383 -561 380 -577Z"/>
</svg>