<svg xmlns="http://www.w3.org/2000/svg" viewBox="0 -800 1024 1024">
	<path fill="#000000" d="M295 43V35Q301 33 304 33Q316 33 317 41Q309 43 301 44Q297 44 295 43ZM598 -415H600Q599 -417 599 -422Q600 -429 600 -437Q600 -441 599 -442Q594 -439 588 -436Q590 -424 592 -413Q595 -414 598 -415ZM888 -16V-13Q885 -12 876 -12H862Q867 -25 885 -25Q888 -20 888 -16ZM80 -450H81Q76 -433 67 -423Q61 -426 61 -432Q64 -447 80 -450ZM668 -467V-468Q659 -464 649 -460Q651 -460 651 -451V-442Q651 -433 653 -433Q661 -450 668 -467ZM611 -491Q591 -487 579 -473Q584 -468 584 -459Q590 -465 599 -473Q609 -482 611 -491ZM687 -523Q676 -519 664 -516Q667 -512 669 -499Q671 -486 675 -481Q685 -497 687 -523ZM739 -537Q742 -536 744 -536Q746 -536 746 -540Q742 -543 736 -543Q721 -543 709 -531Q719 -526 724 -516Q729 -505 735 -495Q737 -516 739 -537ZM699 -238V-242Q700 -249 700 -256Q700 -259 699 -261Q697 -258 690 -256Q680 -268 661 -271Q663 -274 664 -278V-280Q653 -300 649 -300Q648 -300 648 -295Q650 -263 652 -232Q676 -235 699 -238ZM595 -226H600Q600 -258 597 -276Q586 -265 576 -253Q573 -271 563 -279Q557 -272 550 -252Q540 -221 524 -216Q579 -226 595 -226ZM675 -363Q690 -354 709 -328Q725 -406 732 -486Q730 -477 724 -469Q708 -465 683 -434Q695 -438 700 -438Q708 -438 712 -432Q711 -430 711 -426Q713 -417 714 -409Q714 -404 711 -400Q714 -395 714 -393Q714 -388 707 -384Q697 -378 696 -371Q682 -369 675 -363ZM264 -270Q259 -247 236 -242Q213 -237 193 -229Q188 -234 178 -234Q166 -234 161 -229Q164 -237 166 -246Q161 -250 154 -250Q133 -250 117 -219Q118 -233 127 -245Q136 -256 142 -268Q132 -282 122 -297Q112 -311 111 -330Q112 -350 138 -372Q156 -387 160 -396Q163 -396 163 -391Q163 -386 162 -382L163 -379Q191 -371 207 -369Q236 -337 243 -326Q260 -301 264 -270ZM852 75H849Q839 90 826 99Q812 107 789 107Q783 107 763 105Q741 91 724 60Q709 41 699 23Q697 17 697 6V0Q697 -8 696 -12Q695 -20 687 -44Q679 -67 678 -82Q688 -87 695 -87Q709 -86 722 -78Q735 -70 748 -64Q779 -83 780 -83Q772 -78 772 -68Q772 -52 788 -49Q818 -62 847 -76Q845 -71 835 -62Q823 -52 820 -46V-39Q820 -20 828 -13H855Q841 -9 841 9Q841 12 843 18Q846 26 858 26H866Q877 26 882 30Q879 29 874 29Q864 29 856 38Q848 47 848 56Q848 68 859 72Q858 75 852 75ZM125 -480H119Q107 -480 101 -474Q95 -468 89 -462Q90 -468 96 -478Q105 -494 105 -504Q105 -511 98 -522Q91 -533 90 -537Q89 -540 89 -547Q90 -555 90 -564Q90 -567 89 -571Q85 -586 78 -597Q87 -594 96 -591H99Q109 -603 109 -617Q109 -626 105 -631L107 -633Q109 -633 114 -626Q119 -619 122 -618Q138 -623 141 -648Q144 -645 146 -634Q148 -624 151 -621Q197 -606 228 -600Q233 -608 238 -616Q243 -624 255 -625Q242 -611 242 -597Q243 -584 250 -571Q258 -558 267 -544Q277 -519 280 -489Q282 -481 284 -474Q284 -438 237 -409Q223 -417 213 -417Q200 -417 196 -405Q195 -425 178 -441Q163 -456 145 -456Q131 -456 122 -444Q126 -456 130 -469Q130 -475 125 -480ZM283 -111V-108Q280 -101 267 -95Q235 -64 207 -25Q193 -7 181 15Q173 33 167 49Q159 68 138 77Q117 69 97 60Q76 52 63 37Q65 29 65 25Q65 16 58 -1Q52 -16 52 -26Q52 -46 77 -91Q91 -118 111 -145Q104 -132 99 -111Q99 -105 104 -98Q146 -132 186 -167Q226 -202 271 -233L272 -231Q270 -230 267 -229Q248 -212 248 -192Q248 -185 250 -181H254Q261 -181 265 -185Q269 -189 272 -193L273 -191Q269 -185 264 -174Q274 -156 274 -144L275 -142Q278 -143 280 -144H281Q277 -141 277 -136Q280 -123 283 -111ZM957 -195V-192Q957 -186 952 -184Q946 -181 945 -180Q944 -177 944 -171Q944 -157 957 -144Q956 -129 938 -118Q924 -109 921 -102Q859 -115 787 -115Q761 -115 748 -114Q712 -110 680 -103H662Q650 -100 617 -67Q590 -37 569 2Q537 53 535 84Q526 87 521 94Q484 80 475 66Q470 66 470 69Q465 43 431 43Q420 43 396 45Q400 39 427 37Q444 34 461 34L462 33Q459 30 453 26H445Q422 26 326 37Q345 27 391 19Q453 8 475 -10Q486 -19 508 -46Q520 -61 533 -73Q526 -73 519 -74Q457 -74 422 -43Q416 -37 411 -28Q405 -20 397 -18H394Q381 -21 361 -31Q347 -34 333 -38Q319 -42 314 -52Q317 -59 317 -67Q317 -80 305 -98Q296 -112 295 -118V-120Q295 -121 298 -130Q300 -145 302 -159Q303 -174 311 -186Q316 -192 343 -211Q356 -222 367 -232Q378 -242 397 -244Q379 -229 376 -225Q365 -212 364 -196Q369 -198 373 -204Q379 -213 386 -213H387V-198Q454 -203 519 -214Q515 -221 508 -221Q503 -221 495 -217Q494 -219 490 -225Q487 -230 484 -230L480 -229Q454 -263 437 -276Q432 -305 430 -332Q428 -360 415 -379Q405 -390 390 -395Q375 -399 357 -405Q358 -411 358 -421Q358 -429 357 -434Q355 -442 346 -458Q339 -471 338 -477V-483Q338 -500 357 -529Q376 -558 376 -575Q376 -582 375 -585L377 -586Q382 -581 387 -573Q388 -575 388 -578Q383 -595 378 -617V-619Q384 -614 392 -597Q399 -583 404 -577Q406 -581 406 -582Q404 -591 402 -600V-603Q412 -591 421 -579Q427 -579 432 -580Q455 -580 472 -566Q484 -557 498 -534V-529Q498 -517 504 -509Q510 -502 516 -495Q516 -477 523 -443Q530 -409 530 -390V-367Q541 -331 551 -295Q566 -314 577 -334Q565 -339 557 -343Q549 -347 542 -368Q541 -370 541 -376Q541 -392 563 -400Q556 -413 544 -428Q531 -442 530 -460Q530 -470 536 -482Q542 -484 547 -486H550Q548 -492 541 -499Q536 -504 533 -509Q531 -512 518 -544Q510 -564 495 -569Q525 -582 539 -594Q560 -611 570 -637Q583 -672 584 -679V-682Q584 -692 575 -709Q568 -722 567 -730Q566 -732 561 -732H555Q565 -751 601 -777Q625 -794 634 -804H636Q643 -803 649 -802H652Q677 -758 703 -742Q702 -739 702 -735Q702 -718 714 -708Q709 -700 709 -690V-685Q702 -677 699 -664V-660Q719 -668 737 -679Q756 -691 778 -692Q783 -691 787 -691Q799 -685 814 -681Q826 -684 838 -688H840Q825 -680 825 -663Q826 -660 826 -658Q828 -656 830 -656Q835 -658 839 -661L840 -660V-651Q840 -636 844 -631Q853 -640 862 -650Q871 -659 884 -664L864 -640Q854 -625 854 -619Q854 -615 856 -613H857Q859 -613 863 -618Q868 -625 874 -625H876Q875 -620 869 -612Q865 -607 864 -603V-599Q864 -589 872 -568Q881 -545 881 -534Q877 -517 873 -500V-496Q828 -473 813 -409Q796 -329 788 -250Q831 -251 852 -257Q886 -267 891 -292Q894 -279 898 -266Q901 -253 914 -249Q926 -251 937 -253Q942 -253 948 -250Q941 -246 935 -243Q928 -240 927 -230V-229L930 -228Q936 -229 941 -230H942Q930 -225 930 -212Q931 -196 949 -194Q954 -194 957 -195Z"/>
</svg>