<svg xmlns="http://www.w3.org/2000/svg" viewBox="0 -800 1024 1024">
	<path fill="#000000" d="M329 -70Q346 -6 346 31Q346 48 343 63Q315 81 300 81Q285 81 274 71Q257 59 251 50Q247 43 244 24Q241 3 233 -3Q235 -9 235 -11Q235 -23 227 -31Q230 -40 236 -48Q245 -108 249 -169Q249 -182 248 -189Q230 -163 202 -108Q171 -47 153 -22Q152 -12 150 -2V2Q132 9 117 12Q114 12 111 11Q100 8 95 -3Q89 -14 84 -27Q77 -48 60 -54Q68 -59 68 -69Q68 -80 49 -107Q36 -125 34 -133H35Q41 -133 50 -125Q61 -115 68 -115Q80 -115 117 -156Q197 -241 227 -285Q203 -280 181 -262Q174 -257 163 -241Q147 -218 138 -216Q135 -215 129 -215Q111 -215 95 -233Q87 -242 75 -264Q63 -282 49 -303Q35 -325 34 -352Q34 -367 40 -384Q46 -396 51 -405Q56 -413 58 -430Q60 -456 89 -483Q119 -511 138 -514Q137 -509 129 -502Q120 -494 120 -486V-483L122 -482Q124 -482 127 -487Q130 -493 135 -493H136Q137 -492 138 -488Q139 -482 142 -481Q148 -482 163 -488Q180 -495 189 -495Q192 -495 200 -493L217 -501Q217 -512 237 -512Q241 -521 241 -533Q241 -553 222 -591Q226 -612 230 -634Q267 -685 300 -685Q307 -685 310 -684Q327 -681 339 -664Q360 -621 367 -591Q368 -587 368 -580Q368 -573 366 -555Q377 -555 405 -567Q433 -579 445 -579Q451 -579 454 -578Q447 -573 439 -567Q430 -561 429 -549Q431 -547 433 -547Q437 -548 440 -549L442 -547Q433 -538 427 -524Q427 -520 435 -517Q424 -506 427 -478Q429 -457 435 -444Q429 -411 428 -388Q421 -380 384 -366Q340 -349 335 -339Q350 -328 398 -316Q401 -316 404 -320Q409 -325 414 -325H417V-322Q416 -317 414 -312Q414 -310 416 -308Q419 -308 424 -313Q434 -322 441 -322H442Q426 -301 426 -291Q426 -289 428 -281Q432 -280 437 -279Q443 -279 445 -275Q431 -269 429 -233Q417 -228 414 -214Q397 -208 381 -207Q359 -208 326 -224Q326 -201 328 -182Q330 -151 332 -120Q332 -109 331 -104ZM606 -78Q590 -78 573 -75Q549 -72 532 -67L518 -62Q512 -47 496 -40Q475 -31 469 -23Q465 -18 462 -9Q458 -1 452 1H450Q444 2 421 -14Q406 -25 379 -23Q370 -31 365 -54Q363 -68 366 -70Q370 -73 373 -81Q370 -91 369 -94Q367 -107 369 -112Q375 -118 386 -124Q401 -133 407 -141Q442 -188 460 -199Q424 -157 417 -133Q425 -125 437 -127Q456 -132 474 -141Q526 -158 596 -170Q613 -173 630 -176Q639 -178 651 -186Q663 -195 670 -196Q672 -210 674 -224Q679 -211 683 -198Q687 -192 694 -192Q704 -195 714 -199H715Q708 -194 710 -182Q710 -177 718 -172Q726 -174 733 -177L735 -178Q732 -167 728 -157Q730 -150 740 -148Q735 -129 739 -120Q738 -114 735 -113Q737 -106 731 -96V-94Q728 -90 725 -89Q721 -88 720 -81Q706 -86 689 -84Q673 -82 652 -78Q648 -78 638 -74Q630 -79 618 -80ZM808 -396Q812 -398 813 -399Q837 -417 874 -417Q888 -417 900 -411Q935 -444 947 -450Q945 -443 936 -430Q923 -411 923 -401Q923 -397 924 -395H925Q931 -399 934 -403L936 -401Q928 -393 928 -385Q931 -364 955 -357Q954 -337 953 -318Q953 -290 964 -273Q926 -252 899 -208Q872 -164 865 -115L852 -23Q851 -19 849 -16Q849 -14 854 -11Q842 2 838 29Q836 40 834 79Q819 91 802 99Q786 108 782 128Q773 124 753 123Q727 122 718 116Q708 110 700 90Q693 73 687 67Q689 58 694 52Q690 43 668 32Q646 21 630 12Q658 18 685 23H687Q695 23 696 20Q686 1 613 -16Q639 -18 659 -13Q692 -8 695 -8H698Q694 -17 655 -25Q636 -29 602 -34Q625 -41 653 -36Q698 -27 700 -26Q719 -33 734 -69Q749 -105 762 -152Q785 -241 814 -288Q644 -239 533 -178Q521 -170 503 -179Q481 -205 477 -227V-229Q476 -238 478 -269V-292Q476 -307 483 -333L478 -365Q478 -368 477 -371Q478 -382 485 -390Q491 -397 495 -400Q517 -416 523 -416Q532 -417 536 -419Q540 -421 552 -418L553 -419Q561 -420 570 -414Q577 -409 581 -409Q588 -414 594 -420Q590 -411 591 -403Q593 -397 602 -391Q613 -384 614 -373Q610 -359 596 -348Q585 -339 581 -330Q576 -319 571 -308Q601 -315 675 -341Q682 -382 687 -401Q693 -495 702 -513Q656 -500 617 -480Q588 -469 543 -433Q514 -436 503 -460Q495 -470 471 -484Q452 -495 450 -509V-515Q450 -526 457 -546Q463 -563 463 -572Q461 -586 459 -601Q459 -607 460 -610Q464 -624 480 -641Q488 -649 509 -667Q533 -687 577 -702V-701Q577 -697 562 -686Q545 -674 544 -668Q539 -661 543 -655Q579 -667 586 -667Q595 -665 599 -661L650 -677Q661 -692 677 -697Q693 -702 714 -707Q730 -738 804 -755Q834 -762 853 -742Q857 -748 862 -749L866 -750L868 -748Q868 -742 867 -736Q867 -734 869 -732Q878 -735 888 -748Q900 -764 911 -767Q910 -760 901 -747Q888 -730 892 -718L893 -713Q897 -715 902 -721Q908 -728 913 -730Q904 -706 908 -692Q910 -682 920 -676Q929 -634 928 -626Q912 -621 900 -607L825 -459Q826 -448 808 -396Z"/>
</svg>