<svg xmlns="http://www.w3.org/2000/svg" viewBox="0 -800 1024 1024">
	<path fill="#000000" d="M448 -246Q449 -252 449 -259V-261Q446 -310 443 -359Q443 -368 438 -393Q433 -407 427 -422V-424Q431 -441 434 -459Q434 -463 432 -469H435Q442 -466 448 -463Q452 -464 460 -471Q469 -479 479 -479Q472 -488 461 -489Q458 -500 448 -506Q438 -511 430 -517Q430 -526 429 -540Q430 -589 439 -636Q455 -669 473 -683Q484 -694 493 -707Q502 -720 516 -723Q514 -717 506 -707Q494 -692 494 -682Q495 -679 495 -676Q498 -675 504 -675Q513 -675 526 -682Q540 -689 547 -689Q549 -689 557 -687L604 -707Q632 -729 674 -744Q715 -759 752 -777Q792 -798 816 -795Q835 -793 856 -771Q862 -775 872 -777H875Q873 -767 873 -764Q873 -756 878 -752Q889 -755 908 -767Q927 -779 936 -781Q927 -771 914 -761Q901 -751 900 -736Q900 -729 904 -721Q909 -721 916 -726Q922 -730 925 -730Q928 -730 930 -729Q917 -719 915 -695Q915 -682 924 -676Q928 -665 928 -654Q925 -624 908 -600Q894 -599 880 -584Q870 -574 862 -570V-574L850 -555Q830 -509 809 -463Q803 -452 797 -442Q791 -432 790 -419Q791 -413 791 -407V-405Q790 -401 785 -396Q778 -389 778 -384V-381Q773 -380 766 -374Q762 -370 758 -368Q753 -373 742 -373Q734 -373 730 -372Q725 -374 720 -380Q712 -389 705 -389Q702 -388 699 -388Q695 -389 693 -393Q691 -396 689 -399Q680 -399 662 -391Q666 -379 673 -359Q679 -339 689 -334H692Q713 -339 739 -351Q840 -387 877 -416H878Q882 -416 885 -413Q888 -410 890 -410Q900 -415 912 -417Q909 -409 905 -402Q910 -398 917 -398Q925 -398 939 -404Q952 -410 957 -410Q953 -404 941 -396Q929 -388 927 -376Q927 -369 933 -362H935Q943 -363 950 -364L954 -363Q954 -359 948 -355Q944 -352 943 -348Q943 -336 946 -327Q943 -320 934 -313Q920 -302 918 -293H911Q882 -289 853 -286Q850 -286 846 -287L807 -282Q799 -272 770 -266Q742 -261 734 -253Q764 -188 823 -121Q851 -90 863 -90H865Q877 -92 882 -116Q885 -133 890 -138V-131Q890 -115 889 -100Q889 -88 892 -81Q899 -94 908 -129Q917 -165 926 -180Q914 -123 911 -64V-58Q917 -64 919 -83Q921 -102 926 -108Q930 -103 930 -94Q930 -83 929 -73V-70Q930 -51 937 -33Q944 -15 949 0Q946 5 946 15Q948 31 949 47V52Q942 92 897 85Q861 80 816 49Q809 35 793 14Q769 -19 763 -36L746 -63Q717 -89 679 -162Q654 -209 638 -231Q558 -221 541 -177Q531 -177 526 -169Q526 -168 520 -153Q540 -159 557 -175Q566 -182 576 -189Q586 -197 596 -199Q600 -200 608 -200H613Q627 -200 636 -207L637 -205Q636 -202 631 -197Q626 -193 625 -186V-183L626 -182Q630 -184 633 -187L636 -186L637 -184Q637 -182 634 -178Q628 -170 628 -165V-164Q630 -161 636 -161Q636 -158 633 -157Q630 -156 630 -153V-152Q634 -148 634 -142Q634 -137 633 -132Q633 -125 637 -120Q619 -102 582 -70Q532 -27 510 -3V-1Q509 4 507 9Q495 19 482 29Q455 20 443 20Q435 11 424 -13Q413 -36 405 -46V-52Q405 -80 396 -98L400 -100Q406 -97 411 -92Q407 -122 402 -152Q408 -149 415 -135Q423 -117 434 -117L438 -118V-121Q440 -131 442 -141Q443 -145 443 -156Q446 -201 448 -246ZM179 -489Q194 -507 219 -515Q244 -524 268 -532Q271 -561 273 -590Q273 -606 271 -613Q269 -622 259 -634Q248 -647 246 -652Q248 -681 255 -693Q276 -721 316 -726Q330 -726 338 -719Q346 -713 367 -677Q384 -652 393 -634Q395 -624 395 -621Q393 -601 390 -582Q390 -575 391 -572Q397 -573 405 -580Q413 -587 421 -587Q425 -587 428 -586Q407 -573 407 -550V-547H409Q416 -549 422 -552L426 -551Q426 -548 420 -543Q414 -537 413 -530Q416 -518 426 -508Q417 -501 413 -484Q407 -457 406 -455Q398 -439 394 -416Q396 -408 397 -400Q370 -398 352 -383Q333 -366 333 -340Q333 -329 338 -311Q408 -352 439 -359Q424 -349 420 -332Q422 -329 423 -329Q429 -331 434 -333H436Q436 -327 429 -319Q422 -310 422 -304Q423 -301 423 -299L425 -296Q428 -298 430 -300L431 -299Q423 -277 420 -253V-249Q380 -232 369 -227Q334 -210 327 -196Q329 -149 333 -109H331Q327 -109 323 -107L328 -77Q337 -77 339 -65Q339 -63 341 -44Q345 -12 345 4Q345 22 342 40Q321 40 318 51H315Q310 51 304 50Q301 50 301 56V58Q301 63 298 64Q295 61 295 57Q295 52 293 50Q266 49 256 31Q245 11 240 -14Q235 -48 213 -65Q223 -72 234 -76Q239 -103 241 -131V-136Q222 -130 211 -109Q200 -89 188 -71H186Q172 -72 162 -81Q153 -91 141 -98Q134 -101 127 -103Q119 -105 116 -113Q118 -148 125 -154Q122 -167 122 -177Q123 -206 142 -215Q163 -224 191 -236Q210 -246 224 -255Q238 -265 258 -269V-279Q258 -305 265 -335Q231 -332 207 -317Q183 -302 158 -288Q151 -279 144 -267Q138 -254 126 -251H122Q115 -251 105 -258Q95 -265 92 -266Q87 -281 66 -303Q49 -321 43 -334Q48 -346 48 -368Q46 -406 43 -444Q43 -472 53 -490Q70 -492 94 -513Q120 -536 141 -538Q129 -526 116 -513Q102 -501 99 -482Q107 -483 114 -492Q121 -501 128 -502ZM920 -425H918Q917 -427 917 -430Q918 -443 930 -444Q935 -444 937 -442Q933 -436 930 -431Q926 -425 920 -425ZM945 -230Q944 -224 935 -214Q928 -206 926 -199Q925 -201 925 -207Q926 -230 938 -235Q942 -235 945 -230ZM598 -312Q591 -337 575 -356Q563 -353 552 -344Q539 -333 539 -319Q539 -309 541 -304Q567 -306 598 -312ZM621 -463H635Q666 -471 685 -509Q695 -529 707 -579Q685 -568 630 -537Q611 -527 588 -518Q565 -509 553 -497Q545 -488 539 -480Q533 -471 522 -468Q527 -465 533 -455Q540 -443 545 -441Q566 -448 590 -454Q606 -458 621 -463Z"/>
</svg>