<svg xmlns="http://www.w3.org/2000/svg" viewBox="0 -800 1024 1024">
	<path fill="#000000" d="M107 -19H96Q83 -19 83 -27V-28Q86 -32 90 -32Q102 -28 107 -19ZM368 -39Q368 -36 367 -34Q372 -17 377 -1Q379 9 379 30Q379 42 377 48Q375 53 368 58Q362 62 359 64Q349 80 335 94Q332 94 321 83Q292 73 290 71Q276 60 265 43Q253 27 228 25H224Q224 22 228 21Q231 21 236 20Q212 9 184 5Q212 3 239 1Q222 -7 183 -10Q142 -13 126 -22Q155 -21 184 -20Q237 -20 259 -40Q270 -71 275 -108Q252 -97 244 -86Q232 -71 222 -58Q211 -45 188 -44H182Q174 -48 171 -56Q168 -63 162 -74Q157 -84 141 -98Q128 -110 126 -117Q125 -120 125 -126Q125 -134 134 -167Q138 -182 153 -206Q183 -215 223 -236Q259 -255 278 -262Q277 -268 277 -279Q277 -281 280 -326Q245 -321 209 -291Q206 -288 188 -265Q175 -248 164 -246H160Q144 -247 131 -257Q118 -267 106 -278Q89 -290 69 -299Q49 -309 44 -330V-336Q48 -355 51 -374Q44 -387 44 -398Q44 -421 69 -444Q91 -467 117 -494Q143 -520 170 -530Q161 -522 151 -512Q142 -501 141 -486V-481H142Q147 -481 153 -489Q159 -497 164 -498Q162 -486 162 -485Q162 -481 164 -478Q193 -493 229 -503L257 -508Q258 -515 265 -515Q272 -515 277 -518Q284 -532 284 -554Q282 -588 279 -623Q279 -638 283 -649Q276 -662 276 -678Q276 -704 294 -725Q311 -745 333 -745Q342 -745 347 -742Q408 -704 421 -655V-647Q421 -609 392 -563Q419 -575 453 -587Q445 -581 439 -571Q432 -559 437 -551H438Q447 -554 455 -558L459 -557Q453 -548 446 -541Q439 -534 438 -520V-516L441 -514Q445 -514 447 -515Q442 -504 437 -494V-490Q442 -464 447 -442V-440Q447 -428 433 -411Q421 -397 420 -387Q384 -387 358 -364Q356 -336 353 -308Q361 -309 400 -331Q451 -360 461 -360Q460 -355 452 -349Q439 -339 437 -330Q438 -328 441 -328Q447 -329 452 -330H455V-329Q454 -326 450 -319Q445 -312 444 -304Q444 -301 445 -299Q446 -295 450 -295Q454 -295 458 -296Q454 -291 454 -283Q459 -262 463 -242Q446 -221 443 -208Q397 -188 358 -160V-144Q360 -106 361 -68L358 -67ZM580 -66H585Q592 -66 600 -60Q599 -50 586 -50Q579 -50 576 -55Q578 -60 580 -66ZM627 -570H632Q643 -568 653 -564Q657 -570 669 -580Q680 -591 681 -597L680 -599Q669 -594 651 -587Q632 -581 627 -570ZM768 -265V-307H764Q757 -307 739 -300Q724 -294 717 -294H713Q703 -281 702 -261V-258Q721 -271 742 -271Q756 -271 768 -265ZM649 -331Q649 -353 644 -359Q627 -347 603 -332Q579 -318 577 -297Q591 -307 612 -315Q634 -324 649 -331ZM644 -232V-256H642Q637 -256 625 -246Q614 -237 610 -236H607Q599 -236 585 -246Q575 -253 568 -255Q568 -248 567 -242Q567 -235 570 -232Q563 -231 563 -221Q564 -208 564 -195Q621 -223 644 -232ZM770 -362V-366Q773 -390 776 -415Q776 -423 774 -426Q755 -414 704 -391Q704 -388 711 -358Q720 -359 735 -370Q746 -379 752 -380V-377Q752 -364 770 -362ZM484 -226Q479 -227 479 -233Q479 -242 482 -245Q485 -268 480 -283Q475 -299 472 -316Q464 -373 470 -400Q470 -403 466 -410Q462 -417 463 -421Q465 -425 473 -434Q483 -445 484 -451Q488 -464 507 -477Q526 -490 536 -501Q538 -497 538 -487Q538 -475 541 -472Q544 -473 544 -478Q549 -472 553 -465Q557 -459 568 -458Q569 -451 579 -444Q587 -439 589 -434Q607 -440 631 -457Q619 -471 607 -486H604Q597 -485 589 -484H586Q587 -489 595 -494Q602 -498 604 -503Q602 -516 580 -516V-517Q580 -523 592 -525Q588 -536 584 -547L572 -542Q570 -541 567 -537Q563 -531 558 -531Q535 -540 514 -541Q492 -542 476 -562Q474 -568 471 -574Q469 -578 460 -589Q450 -600 449 -608V-612Q449 -627 455 -638Q461 -649 467 -661V-662Q466 -666 464 -671Q479 -690 487 -716Q492 -716 496 -710Q500 -704 504 -704H506Q518 -707 529 -719Q534 -722 570 -734Q593 -743 601 -743Q606 -743 609 -741L659 -763Q660 -774 667 -779Q674 -784 681 -790Q705 -811 712 -809Q719 -807 749 -793Q769 -785 789 -778Q798 -783 807 -790Q816 -797 828 -800Q827 -793 818 -787Q808 -780 807 -772L810 -770Q813 -771 816 -773H817Q816 -767 812 -763Q809 -760 808 -757V-754Q808 -735 835 -735Q848 -735 855 -736Q853 -731 844 -728Q834 -725 833 -721Q836 -718 840 -718Q842 -718 852 -720L853 -717Q850 -712 846 -708Q843 -696 843 -686Q846 -659 848 -633Q848 -623 847 -618Q820 -618 786 -614L768 -594Q760 -579 734 -553Q710 -530 704 -519Q711 -506 723 -496Q765 -517 780 -548Q807 -550 834 -552Q844 -544 852 -544Q866 -545 879 -558Q892 -571 905 -578Q902 -572 892 -559Q879 -542 876 -530Q878 -527 880 -524V-523Q884 -523 888 -531Q892 -538 899 -538H901Q892 -526 887 -506Q887 -494 903 -494Q908 -494 912 -495Q912 -491 905 -489Q900 -488 899 -485Q900 -471 914 -456Q924 -445 927 -439V-427Q926 -409 924 -391Q915 -391 905 -376Q897 -363 890 -363Q885 -345 879 -328Q869 -275 869 -182Q869 -135 873 -49Q875 -17 879 12Q884 39 888 66Q888 83 876 95Q870 101 851 105Q829 109 824 119Q823 103 812 98Q800 93 787 89Q767 48 740 29Q742 23 742 20Q742 4 707 -5Q663 -16 658 -20Q662 -21 670 -21Q697 -21 729 -16Q715 -29 682 -31Q648 -33 629 -37Q641 -40 659 -40Q701 -40 723 -35Q705 -49 667 -49Q629 -50 600 -52Q618 -61 654 -61H673Q730 -61 744 -66Q760 -89 759 -122Q759 -154 765 -187H762L759 -188Q759 -190 761 -192Q751 -191 729 -180Q715 -173 707 -171Q703 -160 703 -148Q703 -138 708 -124Q712 -113 712 -102Q712 -91 710 -85Q708 -86 705 -86Q703 -86 695 -78Q688 -81 673 -82Q656 -83 646 -89Q643 -98 639 -101Q638 -102 626 -107Q633 -119 633 -126Q633 -132 631 -135Q621 -131 611 -127Q589 -127 564 -152Q563 -145 563 -132Q567 -75 577 -21Q569 -4 560 13Q556 12 549 12Q532 12 523 18Q511 11 496 -6Q481 -24 473 -29Q462 -92 433 -108Q441 -116 449 -123Q455 -138 460 -154Q462 -162 463 -171Q465 -180 473 -181Z"/>
</svg>