<svg xmlns="http://www.w3.org/2000/svg" viewBox="0 -800 1024 1024">
	<path fill="#000000" d="M573 -786Q573 -773 557 -771Q559 -785 569 -787ZM861 -269Q852 -249 846 -244Q844 -252 844 -257Q844 -275 852 -275Q857 -275 861 -269ZM598 -671H597Q586 -671 578 -664Q570 -657 570 -649Q570 -641 579 -635Q575 -626 570 -619Q564 -611 564 -599Q554 -597 548 -590Q541 -584 534 -578Q519 -580 503 -582Q489 -582 481 -573Q470 -586 458 -599H457Q455 -599 452 -596Q448 -592 443 -591V-593Q445 -599 447 -605Q441 -611 434 -611Q424 -611 400 -593Q401 -600 414 -612Q425 -622 428 -627Q424 -653 412 -659Q416 -663 416 -668Q413 -680 409 -693V-694Q409 -700 417 -716Q425 -732 425 -742Q425 -752 419 -759H421Q424 -758 427 -757H428Q438 -765 447 -776Q456 -786 470 -787Q480 -787 489 -783Q493 -772 501 -766Q510 -759 519 -752H521Q525 -752 532 -757Q541 -763 546 -763Q550 -763 552 -762Q539 -752 539 -736Q539 -720 551 -711Q580 -721 607 -725Q603 -718 586 -713Q565 -707 563 -696L566 -694H570Q568 -691 568 -685Q568 -676 572 -672Q581 -674 590 -676Q596 -676 598 -671ZM911 -449Q890 -446 887 -426Q877 -430 873 -430Q869 -430 866 -429Q826 -413 793 -376Q760 -338 731 -310Q719 -335 697 -338Q685 -338 678 -326Q678 -334 682 -338Q686 -342 690 -346Q686 -349 682 -349Q675 -349 664 -336Q653 -323 646 -322Q659 -354 679 -380Q699 -406 717 -434Q706 -427 688 -402Q674 -383 668 -377Q668 -396 684 -406Q706 -448 740 -501Q757 -526 757 -533Q756 -546 746 -554Q735 -562 723 -569Q758 -573 790 -584Q803 -589 844 -608Q845 -608 861 -605Q864 -589 876 -576Q889 -564 900 -554Q901 -498 911 -449ZM296 23H295Q288 26 281 28H278L277 24Q279 18 280 12V9Q277 9 274 8Q258 9 246 18Q235 27 224 35Q198 52 172 69V68Q172 64 184 52Q226 15 236 3Q260 -27 276 -64Q292 -100 311 -134Q279 -121 252 -97Q223 -76 200 -53Q190 -41 179 -26Q168 -11 151 -9Q145 -9 135 -14Q118 -23 107 -43Q96 -63 84 -79Q77 -85 70 -91Q66 -99 66 -108Q70 -129 75 -148Q71 -160 67 -175Q67 -181 68 -184Q74 -195 86 -203Q93 -214 98 -225Q103 -237 114 -239Q100 -215 98 -197Q112 -214 123 -238Q139 -265 162 -280Q155 -266 145 -250Q134 -234 132 -211Q138 -208 144 -208Q159 -208 201 -233Q285 -281 302 -293Q330 -316 367 -320Q371 -322 375 -325Q395 -324 403 -313Q411 -301 422 -288Q433 -278 443 -271Q454 -265 458 -251Q455 -234 452 -218Q453 -208 454 -199Q454 -192 450 -185Q445 -176 436 -163Q422 -144 418 -134Q394 -80 370 -16Q366 0 363 17Q361 33 349 46Q336 46 320 35Q306 25 296 23ZM893 78H890Q865 82 840 86H834Q820 84 787 66Q775 57 755 34Q741 17 733 11Q676 -80 613 -196Q608 -201 600 -216Q590 -234 582 -241Q570 -200 570 -149Q570 -95 582 -37Q592 -4 598 25Q599 31 599 45Q599 59 598 63Q596 70 583 81Q568 93 568 104Q569 107 569 109Q561 117 551 117Q544 117 529 109Q512 100 502 99Q499 90 495 83Q491 75 480 75Q481 73 481 70Q481 66 471 49Q472 45 472 40Q472 26 465 17Q459 9 452 0Q454 0 463 3Q460 -6 452 -11Q445 -17 438 -23Q441 -27 445 -27Q459 -23 469 -17Q480 -35 480 -83Q480 -127 479 -171Q479 -237 489 -280Q470 -287 455 -288Q429 -317 401 -338Q395 -360 378 -369V-371Q378 -377 373 -383Q367 -389 367 -394Q354 -399 341 -404Q350 -406 358 -409Q354 -417 333 -421Q316 -424 311 -429Q312 -434 321 -434H339Q318 -450 289 -453Q286 -453 283 -454H279Q267 -454 266 -461Q276 -463 281 -463Q301 -461 320 -459H323Q355 -461 406 -488Q480 -521 533 -555Q543 -562 552 -570Q561 -577 572 -578H573Q580 -577 589 -569Q598 -560 604 -558Q610 -560 621 -568Q631 -576 640 -578Q638 -573 632 -566Q622 -555 622 -548V-545L624 -544Q627 -544 631 -550Q636 -558 640 -558H641V-554Q638 -543 632 -534Q634 -527 647 -527Q653 -527 659 -528Q649 -519 649 -505Q649 -490 659 -466Q652 -450 652 -442Q652 -437 653 -434Q633 -415 619 -372Q607 -338 607 -328V-326Q614 -312 629 -296Q718 -188 811 -104Q814 -112 817 -132Q821 -157 826 -166Q829 -160 829 -151Q828 -137 827 -124Q827 -109 834 -103Q836 -147 837 -191Q839 -226 847 -232Q850 -218 850 -201Q849 -175 848 -149Q848 -128 852 -113Q855 -126 857 -151Q860 -185 864 -197Q870 -196 870 -190Q869 -184 868 -178V-171Q869 -156 869 -142Q868 -120 867 -99Q867 -70 884 -65Q889 -67 889 -80Q889 -94 896 -95Q899 -84 899 -75Q899 -64 898 -54Q898 -48 900 -38Q908 -27 912 -16V-13Q912 -6 911 0V3Q916 15 921 27V28Q920 36 908 52Q894 70 893 78Z"/>
</svg>