<svg xmlns="http://www.w3.org/2000/svg" viewBox="0 -800 1024 1024">
	<path fill="#000000" d="M109 -42V-40Q104 -39 98 -39Q92 -39 84 -41Q83 -43 83 -46Q83 -54 92 -54Q98 -54 103 -51Q109 -47 109 -42ZM908 22V25Q907 30 905 34Q895 34 894 25Q897 20 900 20Q904 20 908 22ZM950 -30V-26Q944 -27 939 -29Q933 -30 933 -38H934Q941 -40 948 -43Q950 -37 950 -30ZM719 -633Q682 -633 655 -610Q657 -607 663 -606Q673 -604 675 -598Q678 -601 679 -601Q684 -599 688 -597Q693 -604 702 -613Q714 -625 719 -633ZM827 -226Q831 -231 840 -231Q848 -230 855 -230H858Q830 -252 801 -271Q786 -282 781 -282Q774 -282 765 -273Q760 -268 748 -247Q738 -228 731 -225L727 -224Q720 -225 716 -232Q711 -239 706 -244Q706 -230 705 -222Q711 -219 719 -219Q734 -220 748 -221Q760 -221 766 -216ZM579 -21V-19Q578 -10 576 -1V5Q592 22 592 72Q586 75 578 80Q570 86 568 93L564 92Q558 92 556 97Q537 95 516 73Q499 55 487 51Q491 46 495 41Q494 33 485 33H477Q470 33 469 29Q481 29 493 11Q493 7 489 4Q485 0 485 -4Q512 -14 539 -24Q542 -36 542 -37Q546 -37 547 -31Q548 -26 549 -21Q561 -14 568 -7Q573 -14 579 -21ZM752 19Q747 18 744 11Q741 3 738 -6Q729 -31 729 -50Q729 -58 746 -72Q752 -78 762 -78Q771 -78 795 -69Q798 -63 807 -56Q813 -51 816 -47H817Q820 -48 823 -50H824V-45Q824 -44 827 -35Q830 -37 834 -43Q839 -51 844 -52Q841 -39 837 -26H839Q845 -26 854 -39Q863 -53 869 -53Q873 -53 874 -52Q857 -35 848 -13Q852 -5 860 -5Q876 -9 892 -19Q914 -30 929 -31Q911 -21 894 -13Q877 -6 865 16Q866 23 872 29Q879 27 886 25L890 26Q885 30 879 34Q874 37 873 50Q874 53 874 56Q875 60 882 61Q888 62 889 65Q889 69 887 69Q884 69 880 68L876 69Q872 77 870 90Q847 106 837 106Q811 99 787 85Q782 76 777 66Q768 58 764 46Q764 41 766 38ZM592 -348Q589 -342 580 -333Q570 -323 568 -315H578Q578 -311 577 -307L578 -304Q581 -304 585 -311Q589 -318 595 -318H596Q595 -315 591 -310Q586 -303 585 -295Q587 -290 592 -290H597Q600 -290 601 -288Q599 -281 596 -274Q600 -255 614 -249Q602 -241 597 -235Q589 -225 589 -209V-207Q585 -210 581 -214H572Q550 -214 534 -222Q528 -225 521 -232Q511 -242 506 -242Q502 -242 498 -238Q477 -217 472 -179Q480 -183 487 -183Q497 -183 498 -175L528 -184Q544 -195 582 -202Q621 -209 638 -217Q637 -227 629 -252Q620 -281 620 -297Q620 -312 627 -325Q626 -330 624 -335L625 -337Q627 -336 632 -336Q654 -339 675 -343Q682 -343 686 -340Q695 -335 698 -323Q702 -311 705 -298Q708 -311 709 -326Q710 -341 721 -342H722Q719 -327 719 -325L720 -321Q741 -323 748 -339Q746 -347 746 -352Q747 -360 747 -368H749Q753 -371 756 -374Q758 -375 763 -375Q764 -375 781 -370Q792 -379 794 -390Q744 -380 722 -363Q717 -360 711 -354Q702 -345 699 -345Q692 -350 684 -355Q674 -360 665 -367Q656 -373 655 -386V-391Q646 -394 646 -415Q646 -421 647 -424Q647 -427 644 -428Q641 -430 641 -433Q644 -434 652 -446Q659 -456 666 -456Q667 -456 673 -454Q679 -462 689 -465Q699 -468 706 -472Q699 -474 694 -480Q691 -482 684 -482Q675 -481 667 -472Q659 -464 650 -454Q635 -444 628 -426V-423Q631 -404 634 -386V-381Q630 -376 626 -366V-365H621Q615 -365 603 -358ZM434 -460Q437 -474 440 -488Q442 -463 447 -452Q482 -462 515 -475Q533 -485 551 -489Q560 -489 566 -483L567 -487Q566 -491 564 -496Q570 -496 571 -502Q569 -505 564 -508Q557 -512 556 -517Q543 -517 543 -526Q559 -524 587 -514Q614 -541 630 -552Q624 -574 617 -576V-580Q617 -585 618 -588Q611 -585 603 -582Q597 -578 586 -561Q571 -538 560 -538H558Q551 -538 544 -547Q536 -557 533 -568Q520 -577 515 -582Q505 -592 502 -606Q501 -619 500 -633Q497 -651 489 -662Q481 -673 474 -684Q471 -685 468 -686Q465 -687 465 -692V-693H466Q471 -693 481 -684Q489 -677 495 -675Q493 -684 481 -697Q467 -713 465 -723Q470 -721 479 -711Q491 -698 497 -698Q501 -698 502 -699Q501 -707 493 -711Q484 -716 483 -723Q490 -719 496 -719Q505 -719 520 -736Q530 -748 537 -751Q542 -746 552 -746Q569 -748 585 -751Q598 -751 605 -739L641 -747Q642 -755 652 -757Q682 -762 711 -767Q725 -772 739 -778Q760 -784 772 -798H792Q806 -798 810 -789Q815 -794 818 -794Q820 -794 823 -790Q832 -799 841 -808L842 -806Q838 -793 830 -780Q833 -776 835 -772Q840 -777 844 -782L846 -781V-780Q844 -770 842 -761V-757L844 -755Q848 -757 851 -760H852Q851 -753 851 -738Q851 -723 855 -715Q849 -705 849 -688Q849 -684 851 -676Q851 -673 849 -672Q846 -671 846 -669V-661Q843 -643 839 -625V-621Q773 -591 739 -550Q741 -544 747 -543H749V-539Q749 -533 753 -533L756 -534Q752 -522 749 -519V-518Q752 -513 754 -508Q747 -498 744 -483Q760 -490 780 -492Q798 -498 803 -500Q821 -508 837 -516Q860 -534 875 -534Q877 -534 887 -532Q891 -538 896 -543Q901 -549 908 -550Q901 -546 898 -534V-531L901 -530Q905 -532 908 -535Q908 -495 914 -484Q914 -477 913 -470Q916 -445 919 -421Q919 -416 917 -408Q910 -394 899 -390Q887 -386 875 -382Q859 -376 835 -345Q849 -329 867 -325Q886 -322 907 -316Q912 -338 916 -361Q918 -356 918 -340Q918 -321 921 -316Q923 -317 923 -322Q922 -331 921 -341Q921 -350 925 -351Q925 -319 932 -299Q954 -282 954 -234Q954 -213 948 -195Q941 -188 931 -188Q921 -188 916 -192V-190Q918 -185 919 -181Q930 -181 934 -178Q927 -177 927 -164Q927 -154 933 -154Q927 -146 925 -117Q922 -83 914 -76Q907 -78 890 -78Q870 -77 849 -77Q837 -77 831 -78Q810 -81 788 -85Q764 -87 751 -87Q715 -87 697 -76Q697 -63 694 -54L693 -32Q702 -18 702 25Q702 55 701 85V90Q692 97 684 108Q665 107 647 91Q629 75 625 53Q622 15 618 -15Q624 -43 629 -71Q614 -73 597 -70Q586 -70 581 -69Q535 -64 466 -18Q445 0 420 4Q408 4 398 -9Q394 -18 389 -28Q381 -38 372 -46Q363 -54 362 -73Q362 -77 364 -91Q368 -102 375 -112V-118Q376 -139 383 -150Q391 -161 398 -172Q403 -160 416 -160Q417 -160 444 -166Q438 -178 431 -193Q424 -208 411 -211Q411 -215 415 -215Q419 -215 420 -217V-222Q420 -238 411 -257Q404 -273 402 -282Q408 -278 419 -262Q416 -275 397 -322Q413 -311 419 -296Q425 -281 434 -264Q454 -274 466 -286Q462 -296 457 -304Q460 -316 462 -328Q468 -334 474 -340H476Q488 -341 499 -343Q503 -343 505 -342Q507 -344 523 -365Q510 -361 488 -352Q460 -340 456 -335Q442 -346 435 -362Q429 -378 423 -394Q425 -400 425 -413V-431Q429 -437 433 -454Q422 -442 416 -426Q394 -418 377 -410Q359 -401 358 -374Q358 -348 360 -341Q369 -343 383 -355Q398 -367 407 -368Q406 -362 392 -350Q379 -339 379 -331H380Q382 -331 385 -337Q389 -344 393 -344H395Q394 -331 393 -319Q393 -313 394 -309V-308L398 -309H400Q401 -306 401 -299Q398 -280 394 -261Q394 -255 395 -251Q347 -235 347 -194Q347 -182 351 -170Q347 -159 347 -110V-89L344 -65Q350 -59 353 -40Q356 -21 360 -16Q357 2 357 3V7Q348 13 337 31Q324 53 314 58Q310 59 306 59Q286 58 276 46Q266 34 252 26L251 25L252 24H255L256 23V22Q243 7 218 2Q193 -2 170 -8Q173 -13 183 -13Q201 -10 218 -8Q228 -6 234 -6Q238 -6 241 -7Q224 -17 176 -26Q131 -34 116 -40Q121 -41 131 -41Q143 -41 171 -35Q195 -30 210 -30Q221 -30 231 -33V-34Q231 -38 225 -39Q219 -40 218 -44H236Q245 -59 247 -89Q250 -119 252 -140Q236 -137 228 -123Q219 -108 207 -96Q200 -91 195 -91Q178 -96 160 -102Q157 -103 151 -103Q143 -102 135 -102Q124 -102 118 -107Q108 -114 108 -136Q108 -157 118 -170Q115 -179 115 -186Q117 -207 133 -222Q148 -236 159 -252L160 -248Q159 -240 157 -233V-231Q177 -240 219 -264Q256 -286 276 -294Q278 -328 279 -363Q275 -365 273 -365Q264 -362 255 -357Q236 -350 221 -345Q205 -339 191 -324Q182 -313 174 -301Q167 -289 151 -287H148Q130 -287 114 -300Q100 -311 89 -329Q48 -341 37 -359V-364Q37 -404 62 -443Q59 -452 59 -459Q60 -476 71 -486Q81 -496 92 -506Q97 -512 100 -516Q103 -520 111 -520H112L115 -518Q115 -515 114 -513L115 -511Q124 -502 142 -502Q160 -502 174 -499L187 -501L189 -507Q203 -515 205 -515Q208 -515 210 -514Q219 -521 233 -521H238Q242 -530 262 -535Q276 -539 280 -542V-550Q277 -584 274 -619Q269 -627 261 -635Q254 -642 253 -651V-652Q258 -681 286 -708Q313 -729 349 -729Q362 -729 375 -726Q382 -706 390 -685Q397 -664 398 -639V-633Q398 -622 387 -606Q375 -589 374 -576Q403 -583 427 -593L430 -592Q429 -589 427 -586V-584Q435 -588 442 -593Q449 -598 460 -599H464Q459 -594 450 -586Q441 -578 440 -569Q440 -563 449 -557Q426 -539 426 -523Q426 -505 436 -492Q430 -489 430 -481Q432 -470 434 -460Z"/>
</svg>