<svg xmlns="http://www.w3.org/2000/svg" viewBox="0 -800 1024 1024">
	<path fill="#000000" d="M846 -389V-392Q846 -404 857 -404Q861 -404 864 -401Q864 -391 846 -389ZM929 -225Q925 -201 917 -195Q915 -203 915 -209Q915 -226 924 -226Q927 -226 929 -225ZM510 -120H513Q525 -120 535 -109Q543 -101 548 -99Q543 -122 532 -140Q514 -133 510 -120ZM606 -344Q603 -348 603 -352Q604 -355 604 -359L603 -363Q586 -360 569 -359Q552 -359 544 -352Q548 -337 565 -337Q586 -340 606 -344ZM609 -243V-275Q591 -274 572 -267Q568 -252 564 -237H573Q593 -237 609 -243ZM643 -470Q606 -466 592 -461Q569 -453 561 -432Q622 -445 639 -452Q641 -461 643 -470ZM615 -66H627Q630 -77 641 -94Q653 -114 656 -126Q656 -128 649 -129Q645 -129 643 -131Q645 -134 653 -138Q660 -141 662 -146Q649 -159 645 -167H641Q640 -167 619 -164Q619 -152 624 -146Q628 -139 631 -132Q614 -96 614 -80Q614 -71 615 -66ZM255 -191V-196Q257 -225 259 -255Q259 -263 258 -267Q254 -262 242 -258Q229 -253 224 -246Q218 -235 218 -220Q219 -204 220 -188Q220 -182 219 -177ZM270 -363Q272 -387 272 -404Q272 -422 270 -446Q222 -411 221 -339Q238 -346 270 -363ZM683 -612Q648 -604 616 -581Q581 -556 566 -525Q585 -529 617 -542Q649 -555 668 -559Q677 -585 683 -612ZM395 -281V-284Q393 -290 386 -300Q377 -312 375 -323Q380 -322 387 -316Q394 -310 401 -309V-310Q399 -314 396 -318L398 -321H400Q407 -319 413 -317Q422 -327 438 -327Q450 -327 457 -326Q458 -338 465 -346Q472 -353 480 -360Q469 -388 451 -404Q453 -410 455 -417Q446 -442 437 -467Q429 -492 412 -509Q350 -446 350 -272Q350 -239 354 -179Q358 -201 376 -211Q395 -221 412 -228Q408 -220 408 -215Q408 -210 412 -207Q451 -217 489 -227Q488 -239 481 -239Q471 -235 459 -228Q451 -226 446 -226Q406 -231 395 -263Q394 -265 394 -269Q395 -275 395 -281ZM884 28H878Q830 -30 776 -59Q768 -75 751 -81Q747 -77 745 -68Q733 -68 720 -69Q699 -69 693 -59Q711 -50 733 -50Q749 -50 761 -54H762L764 -52Q763 -48 762 -44L763 -42Q774 -45 785 -48H787V-46Q785 -40 782 -35Q786 -24 804 -21Q813 19 813 33V40Q795 50 781 60Q767 69 747 70H745Q707 65 678 37Q648 8 616 -9V-2Q616 8 621 30Q626 52 626 67Q626 73 625 79Q608 96 591 113Q575 112 565 104Q555 97 544 92Q542 53 528 53H525Q528 48 535 40Q541 33 542 21V16Q523 23 490 50Q488 68 466 84Q442 83 429 73Q416 63 401 55Q400 52 400 48Q400 40 407 31Q413 23 413 17Q413 14 412 12Q417 5 429 -7Q442 -18 446 -26Q450 -26 454 -17Q481 -26 508 -35Q497 -41 486 -48Q475 -55 469 -68Q451 -57 437 -31Q422 -5 397 -2Q394 -2 390 -3Q385 -4 380 -9Q373 -15 368 -15Q364 -15 362 -14Q362 -19 369 -26Q368 -33 363 -42Q357 -52 357 -57V-60Q360 -66 371 -73Q382 -80 390 -85L422 -111Q414 -107 406 -107Q394 -107 377 -121Q364 -132 357 -134Q355 -126 355 -123Q359 -105 363 -87V-85Q362 -71 353 -59Q342 -45 330 -44H328Q312 -44 293 -64Q274 -85 267 -85H266Q235 -76 218 -54Q216 -50 213 -30Q203 -20 190 -20Q174 -20 158 -37Q142 -54 141 -72Q135 -80 129 -80H126Q134 -91 134 -102Q130 -129 117 -159Q108 -212 89 -263Q77 -287 61 -303Q44 -318 30 -335Q33 -344 33 -352Q33 -360 32 -369Q33 -373 33 -377Q34 -385 42 -402Q51 -420 51 -431V-434Q51 -445 44 -464Q35 -488 35 -500Q35 -510 37 -516Q43 -515 43 -505V-498Q44 -493 51 -480Q55 -472 59 -464Q63 -457 72 -456H73Q70 -466 61 -476Q53 -487 52 -503Q64 -499 68 -486Q72 -473 87 -471H89V-472Q89 -475 83 -483Q77 -491 77 -495V-497H79Q83 -497 88 -490Q92 -485 96 -483H101Q122 -487 143 -491H147Q154 -490 164 -483Q174 -476 182 -476H184Q209 -501 239 -524Q251 -535 286 -579Q294 -589 312 -598Q331 -608 338 -614Q347 -607 363 -605Q369 -588 378 -582Q381 -585 381 -591Q380 -598 379 -606Q381 -623 401 -643Q425 -667 425 -690Q425 -697 424 -701Q430 -700 430 -692Q429 -685 431 -680Q437 -681 440 -685Q443 -689 446 -693Q449 -690 458 -687Q466 -685 471 -681Q474 -679 482 -671Q489 -664 495 -662H496Q506 -662 564 -693Q660 -745 698 -768Q712 -777 731 -790Q749 -802 765 -803H766Q774 -802 790 -791Q800 -779 815 -770Q823 -774 832 -777H834Q833 -769 831 -762Q837 -763 849 -774Q861 -786 871 -788V-787Q870 -782 861 -773Q852 -763 851 -751Q851 -748 852 -746Q855 -748 860 -754Q866 -762 872 -764Q870 -756 870 -752Q871 -736 879 -724Q888 -711 896 -701Q896 -696 895 -691Q899 -662 903 -641Q903 -626 893 -615H890Q882 -613 874 -611H872Q867 -611 862 -612H861Q846 -604 837 -580Q828 -555 821 -531Q812 -507 801 -484Q790 -462 788 -441V-420Q788 -407 784 -398Q772 -390 755 -386Q751 -386 749 -387V-386Q752 -379 755 -372V-371Q772 -373 796 -389V-386Q796 -379 799 -375Q813 -382 832 -384H835Q833 -380 823 -375Q809 -367 807 -358L811 -357Q817 -361 827 -365H828Q826 -359 822 -355Q819 -352 816 -348Q819 -340 821 -333Q812 -321 807 -309Q793 -302 778 -296H768Q698 -296 686 -255H691Q712 -255 755 -267Q794 -278 818 -278H821Q826 -285 837 -287Q838 -286 843 -276Q857 -282 865 -284Q865 -280 861 -277Q856 -273 856 -269L859 -268Q866 -271 873 -274Q875 -274 877 -272Q877 -269 871 -265Q865 -261 864 -257V-255Q868 -243 872 -231V-229Q871 -219 869 -210Q871 -201 872 -192L871 -188Q868 -183 858 -178Q848 -173 844 -167Q809 -174 774 -177Q767 -176 760 -176Q774 -164 809 -145Q844 -127 858 -113Q861 -115 869 -115Q877 -115 880 -116Q881 -126 882 -137Q883 -148 889 -154Q892 -153 892 -145Q892 -136 891 -128Q891 -120 896 -119Q901 -129 901 -151V-187Q901 -208 900 -230Q900 -242 901 -248Q907 -246 907 -239Q908 -232 908 -227Q910 -198 911 -161Q911 -125 919 -101Q921 -115 921 -125Q920 -149 919 -174Q919 -184 920 -189Q927 -185 927 -175Q927 -168 926 -162Q928 -138 930 -114Q933 -93 955 -54Q963 -38 963 -20Q963 -5 961 3Q944 26 926 34Q900 28 884 28Z"/>
</svg>