<svg xmlns="http://www.w3.org/2000/svg" viewBox="0 -800 1024 1024">
	<path fill="#000000" d="M655 -155Q649 -156 641 -156Q618 -156 600 -138Q591 -129 574 -103Q594 -96 613 -89Q625 -103 637 -118Q649 -133 655 -155ZM210 14Q198 35 186 56Q175 77 152 86Q136 81 120 76Q112 64 103 51Q78 41 68 35Q51 24 51 6V4Q52 -13 61 -26Q70 -39 79 -52Q78 -57 78 -65Q78 -88 100 -123Q114 -145 118 -159Q119 -149 121 -135Q123 -122 131 -115Q161 -124 222 -151Q295 -183 329 -192H330L332 -191Q330 -188 328 -186Q330 -182 335 -180Q343 -176 344 -172Q342 -165 333 -158Q322 -149 321 -139L323 -137Q328 -140 333 -143Q336 -143 338 -141Q338 -137 333 -134Q328 -131 328 -127Q328 -123 335 -117Q339 -113 341 -109Q341 -90 347 -83Q289 -58 227 -7ZM306 -318Q303 -310 303 -301Q304 -287 304 -274V-267Q300 -240 279 -229Q259 -219 236 -204Q190 -211 185 -246Q179 -259 163 -259Q156 -259 150 -256Q157 -266 157 -281Q156 -301 147 -322Q137 -344 129 -361Q144 -356 152 -356Q164 -356 176 -364Q174 -371 171 -379L185 -375Q190 -379 198 -379Q210 -377 221 -375Q227 -377 232 -379Q236 -377 237 -377Q242 -378 246 -379H248Q270 -374 281 -353Q292 -332 306 -318ZM47 -490V-484Q36 -480 25 -476Q24 -477 24 -482Q24 -490 27 -493Q31 -491 38 -491Q44 -491 46 -493ZM929 -92V-88Q928 -77 920 -74Q912 -71 907 -65Q905 -71 905 -73Q906 -89 925 -92ZM864 -536Q862 -528 859 -520Q851 -530 851 -540Q857 -541 863 -542Q864 -540 864 -536ZM603 -321Q610 -323 628 -318Q652 -311 660 -294Q665 -290 665 -283Q665 -276 664 -270V-267Q666 -266 673 -266Q693 -269 713 -272Q721 -272 725 -269L754 -270Q759 -281 799 -284Q839 -288 854 -289Q892 -257 899 -239Q909 -216 895 -182Q891 -179 883 -170Q874 -159 868 -157Q862 -154 846 -154H842Q838 -155 832 -161Q829 -165 826 -166Q814 -170 807 -170Q800 -170 772 -163Q777 -148 782 -134Q770 -132 768 -120Q765 -109 762 -97Q723 -92 701 -55Q712 -45 748 -36Q775 -26 804 -23H806Q816 -24 830 -37Q842 -48 852 -50V-49Q849 -40 846 -32V-29Q855 -30 869 -44Q883 -58 895 -61V-59Q895 -51 879 -38Q866 -27 862 -21Q857 -15 857 -4V4Q863 4 868 -4Q872 -11 876 -11L880 -10V-8Q880 -2 874 6Q867 16 866 23V25Q869 40 872 55Q872 58 871 60Q870 65 865 69Q860 73 857 77Q852 89 850 101Q848 114 839 119Q833 120 821 120Q763 120 744 79L723 64Q681 48 645 29Q588 65 557 128Q552 132 545 132Q538 132 528 126Q516 119 510 119Q506 119 500 121V120Q499 100 484 86Q469 72 456 56H458Q462 56 471 61Q480 66 487 66H489L490 64Q490 61 485 58Q480 55 480 53Q422 39 382 8Q383 7 387 7Q397 11 407 14Q421 20 444 30Q466 39 487 40H492Q504 39 519 23Q533 8 544 5Q538 2 531 2Q512 6 493 10H490Q483 9 468 -7Q452 -24 450 -34Q449 -38 449 -49Q449 -62 454 -95Q488 -105 499 -128Q465 -120 419 -92Q411 -95 401 -98Q391 -101 385 -110Q371 -134 356 -158Q363 -206 367 -218Q372 -222 378 -230Q387 -242 393 -245Q391 -252 413 -255Q437 -258 459 -263Q462 -264 470 -273Q479 -283 486 -283L490 -282Q490 -277 484 -270Q479 -264 479 -259Q479 -256 480 -254Q523 -256 552 -260Q551 -264 551 -272Q551 -287 557 -299Q555 -304 552 -310V-311Q555 -310 558 -310Q567 -310 580 -317Q591 -323 597 -323Q599 -323 603 -321ZM460 -614Q462 -618 472 -628Q464 -673 452 -709Q465 -709 482 -717Q499 -725 511 -725Q518 -725 522 -724Q534 -705 549 -683Q563 -661 564 -636V-631Q564 -630 568 -630H578L579 -628Q578 -623 576 -619V-618Q576 -614 580 -614Q583 -614 584 -612Q588 -583 591 -555Q591 -549 589 -535Q576 -535 574 -519V-517Q554 -510 533 -504V-500Q533 -483 557 -463Q581 -443 581 -427V-424Q591 -447 597 -474Q601 -470 601 -465Q599 -453 597 -442Q597 -438 598 -436Q626 -451 653 -499Q630 -505 607 -546Q601 -557 595 -568V-571Q597 -583 598 -595Q598 -607 597 -619Q597 -642 613 -648H626Q668 -648 676 -667Q672 -673 671 -694Q669 -722 659 -723H658Q652 -723 648 -716Q645 -711 642 -711H640V-716Q640 -725 649 -730Q647 -734 647 -736Q647 -737 652 -750Q669 -759 681 -776Q694 -792 713 -794Q720 -794 723 -793Q740 -787 750 -770Q759 -752 776 -741Q782 -735 782 -727Q778 -709 774 -692Q774 -686 775 -683Q799 -690 823 -697Q817 -693 810 -690Q803 -686 802 -680Q802 -676 805 -672Q821 -676 830 -680V-679Q830 -676 824 -673Q814 -668 813 -661Q813 -643 830 -643Q825 -636 825 -628Q825 -617 834 -614Q829 -605 821 -600Q823 -597 827 -596Q831 -595 831 -590V-589Q824 -586 816 -576Q809 -567 807 -565Q801 -561 781 -556Q759 -550 749 -542Q751 -514 769 -501Q787 -489 802 -473H805Q811 -473 818 -468Q824 -464 831 -463Q833 -466 833 -475V-492Q836 -489 838 -476Q840 -464 843 -460Q844 -464 844 -475Q842 -510 839 -545Q846 -532 850 -497Q853 -469 856 -459Q857 -464 857 -477V-513Q865 -485 867 -460Q873 -437 887 -416Q900 -394 911 -372V-327Q901 -326 895 -321Q893 -319 886 -310H884Q851 -310 829 -327Q815 -338 795 -366L783 -391Q771 -391 758 -408Q748 -421 742 -424Q740 -419 740 -409Q743 -388 746 -367Q746 -356 740 -349Q747 -355 769 -355L770 -353Q770 -350 754 -338Q760 -328 760 -325H772L773 -323Q773 -319 767 -313Q739 -309 731 -304Q723 -300 698 -309L661 -326Q655 -326 649 -327V-328Q649 -334 659 -335Q668 -336 669 -338Q667 -357 658 -375Q664 -389 666 -408Q666 -417 663 -421Q636 -390 636 -362Q636 -354 637 -349Q627 -341 613 -341Q592 -341 581 -355Q577 -377 575 -402Q561 -391 536 -391Q535 -387 535 -379Q537 -353 539 -328Q532 -311 495 -310Q474 -310 472 -333Q472 -350 458 -351Q466 -364 466 -374Q466 -377 464 -385Q457 -378 445 -356Q436 -340 429 -331Q426 -331 422 -332Q408 -329 394 -327Q394 -352 374 -355Q374 -361 373 -367Q373 -384 381 -406Q389 -404 393 -399Q411 -416 428 -431Q446 -447 457 -468Q451 -467 441 -458Q430 -448 424 -447H421Q411 -447 387 -460Q364 -473 358 -480Q351 -488 351 -507Q351 -525 345 -531Q346 -534 346 -537Q346 -551 327 -568Q312 -582 310 -591Q317 -591 337 -582Q367 -591 397 -600Q427 -607 433 -607H436Q448 -610 460 -614ZM253 -433Q242 -433 230 -438V-437Q204 -444 191 -451Q184 -447 176 -443Q179 -448 181 -454Q172 -464 164 -464Q150 -463 138 -450Q126 -437 118 -428Q120 -437 127 -449Q136 -463 136 -472V-474Q136 -503 100 -503Q76 -503 56 -493Q76 -515 91 -535Q85 -548 76 -557H86Q88 -572 102 -590Q95 -602 89 -619H92Q99 -618 103 -613Q107 -608 112 -604Q134 -620 147 -625Q142 -644 138 -664Q144 -668 149 -673Q152 -642 168 -625Q176 -627 182 -630Q189 -632 190 -641Q196 -635 201 -627Q206 -620 216 -617Q226 -615 231 -615H241Q253 -615 259 -613Q261 -613 263 -618Q266 -623 270 -623Q269 -620 267 -617Q272 -607 287 -593Q302 -579 307 -569Q312 -561 315 -545Q320 -522 326 -514Q321 -504 318 -476Q315 -442 304 -431H253Z"/>
</svg>