<svg xmlns="http://www.w3.org/2000/svg" viewBox="0 -800 1024 1024">
	<path fill="#000000" d="M177 31H161Q154 31 152 30V24H162Q176 24 177 31ZM920 -597Q915 -588 897 -584Q896 -586 896 -589Q896 -595 900 -598Q904 -601 910 -601Q916 -601 920 -597ZM880 -143Q870 -137 857 -134Q855 -138 855 -140Q857 -150 869 -151Q878 -151 880 -143ZM658 -311V-323Q658 -357 663 -395Q659 -395 655 -396Q628 -394 624 -368Q619 -333 618 -302Q634 -309 658 -311ZM460 -284V-281Q471 -276 482 -272Q506 -284 544 -290Q540 -315 528 -332Q515 -325 496 -325Q467 -325 447 -338Q424 -353 424 -378Q424 -383 426 -393H421Q379 -380 353 -358Q350 -331 346 -305Q346 -291 353 -284Q391 -324 430 -332Q423 -325 415 -318Q407 -311 406 -301V-300Q411 -309 418 -309Q422 -309 423 -306Q415 -302 414 -292Q413 -282 412 -272L414 -271Q419 -274 423 -277Q425 -277 427 -275V-273Q425 -268 423 -264L424 -262Q434 -272 444 -283Q454 -293 466 -302Q460 -294 460 -284ZM615 -70V-69Q615 -67 609 -65Q609 -49 615 -22Q621 5 621 16Q621 29 617 40Q599 42 592 42Q562 42 536 25Q521 13 510 11Q502 11 494 18V17Q494 11 499 10Q504 8 507 6Q494 -10 493 -11Q484 -21 473 -23Q480 -32 489 -38Q487 -52 485 -67V-71Q486 -77 496 -86Q506 -95 506 -102V-104Q520 -106 528 -106Q570 -106 577 -80Q594 -92 615 -101V-100Q615 -98 608 -90Q598 -79 598 -72Q598 -68 601 -64Q609 -66 615 -70ZM898 -30V-27Q900 -14 911 -10Q922 -6 935 -2Q933 2 925 4Q916 7 914 9Q909 74 867 87Q860 83 843 78Q823 72 814 65Q800 51 788 34Q776 17 751 15H747Q751 11 754 7Q743 -15 721 -26Q709 -45 696 -67Q683 -89 682 -117Q682 -127 685 -139Q694 -137 700 -133Q704 -137 707 -142Q727 -141 753 -129Q776 -118 789 -118Q798 -118 802 -119L803 -115Q803 -111 802 -108Q802 -105 804 -104Q823 -118 845 -128Q846 -127 840 -119Q834 -111 833 -102L834 -98Q839 -93 843 -89Q873 -101 898 -115Q923 -129 956 -134Q932 -126 904 -111Q875 -97 872 -71V-67Q873 -58 883 -51Q913 -58 943 -65Q917 -56 913 -53Q898 -44 898 -30ZM954 -281H957Q953 -272 950 -255Q950 -247 954 -243Q935 -230 935 -203Q918 -202 916 -180Q894 -185 861 -185Q835 -184 808 -184Q792 -184 784 -185Q768 -188 751 -191H741Q690 -188 642 -180Q550 -167 495 -116Q469 -123 440 -132Q411 -141 408 -171Q408 -180 411 -191Q388 -186 370 -171Q349 -157 343 -133Q343 -121 342 -109Q343 -95 343 -82Q344 -61 355 -22Q365 13 365 26V30Q362 54 342 69Q323 83 307 95Q299 91 294 84Q289 77 278 76Q269 50 244 42Q218 33 191 27H211Q234 27 243 30Q223 20 172 11Q126 3 108 -5H111Q128 -5 171 3Q209 10 230 10Q236 10 242 9Q241 2 236 -2Q247 -16 250 -39Q253 -62 256 -85Q226 -70 221 -48Q219 -46 214 -43Q208 -40 206 -36Q176 -42 171 -50H167Q137 -50 122 -73Q122 -118 135 -131Q132 -140 132 -149Q137 -191 176 -203Q175 -195 173 -188Q196 -195 221 -212Q258 -233 272 -239Q273 -246 273 -261Q272 -287 270 -314Q222 -300 209 -294Q178 -279 171 -251Q164 -251 150 -246Q138 -242 131 -242Q128 -242 125 -243Q114 -245 100 -263Q91 -275 85 -278Q71 -285 57 -290Q44 -295 41 -317V-321Q45 -343 50 -363Q51 -366 51 -373Q50 -387 49 -401Q49 -405 51 -415Q60 -438 79 -452Q97 -466 115 -479Q104 -462 104 -457Q104 -453 106 -450H108Q118 -453 125 -464Q131 -453 145 -453Q180 -459 209 -473Q238 -482 275 -490Q278 -502 281 -504Q277 -517 276 -547Q276 -573 270 -588Q267 -596 258 -606Q244 -623 244 -632V-636Q250 -646 254 -663Q254 -665 253 -668Q283 -690 286 -692Q308 -706 325 -706Q339 -706 350 -698Q359 -692 365 -680Q371 -669 377 -657Q395 -635 399 -614V-613Q398 -603 392 -593Q385 -582 381 -573Q376 -555 371 -525Q379 -528 394 -536Q416 -548 430 -550Q429 -546 424 -540Q417 -532 417 -525Q419 -522 421 -522Q426 -523 430 -524Q427 -519 427 -515Q430 -502 432 -490V-488Q446 -484 450 -484Q459 -484 473 -491Q469 -502 469 -513Q471 -545 496 -566Q521 -588 543 -607Q542 -604 542 -598Q542 -589 547 -579Q568 -575 583 -560Q598 -544 615 -532Q646 -541 676 -550Q681 -582 681 -607Q681 -679 644 -701H627Q640 -721 676 -746Q689 -757 702 -769Q715 -780 728 -786Q736 -789 742 -789Q767 -786 785 -765Q803 -743 822 -732H836Q835 -730 835 -726Q835 -718 839 -714Q845 -715 851 -717L854 -716Q843 -699 843 -680V-674Q848 -665 852 -656Q845 -648 843 -633V-628Q829 -620 815 -612Q802 -603 796 -587Q799 -583 803 -583Q813 -586 831 -590H836Q833 -587 833 -583Q833 -574 840 -569Q864 -575 886 -584Q878 -578 869 -573Q859 -569 857 -557Q862 -548 869 -548Q870 -548 880 -550Q870 -542 870 -530Q870 -515 882 -509Q870 -501 870 -487Q870 -482 873 -478Q855 -468 851 -444Q798 -443 760 -427Q740 -367 740 -320V-315Q776 -324 815 -327Q855 -331 883 -349Q899 -341 902 -341H907Q910 -344 913 -352Q918 -363 922 -366Q915 -354 915 -334Q915 -321 919 -314H937V-313L935 -311H932L929 -309Q930 -302 938 -302Q949 -303 960 -305Q966 -305 969 -302Q961 -299 953 -297Q944 -295 943 -285V-283Q943 -280 946 -280Q950 -280 954 -281Z"/>
</svg>