<svg xmlns="http://www.w3.org/2000/svg" viewBox="0 -800 1024 1024">
	<path fill="#000000" d="M476 -277Q472 -278 472 -284Q472 -295 481 -300Q486 -298 486 -293Q486 -281 476 -277ZM941 -129Q933 -126 924 -123L921 -124Q921 -135 936 -141Q941 -137 941 -129ZM627 -292V-291Q679 -297 700 -305Q700 -310 699 -314Q699 -319 695 -320Q692 -317 682 -317Q674 -317 665 -318Q661 -317 657 -317Q650 -311 639 -306Q628 -302 627 -292ZM689 -221V-226Q650 -226 623 -214Q618 -206 618 -196L686 -204Q688 -212 689 -221ZM703 -391V-412Q703 -423 698 -426Q683 -417 664 -411Q644 -405 641 -383Q644 -382 650 -382Q677 -386 703 -391ZM859 89H857Q844 89 825 79Q805 68 795 68Q789 59 782 51Q775 42 764 39Q749 10 727 -10Q715 -40 711 -74Q711 -81 712 -85Q736 -96 741 -96Q731 -107 711 -107Q699 -107 679 -103Q656 -99 634 -94Q612 -89 600 -73L618 -57Q622 -60 626 -64Q629 -69 636 -69H638Q634 -57 634 -49Q634 -40 638 -35H640Q645 -35 647 -37Q644 -31 644 -26Q644 -18 650 -4Q656 10 656 17V21Q647 50 626 57Q616 57 592 47Q564 36 555 34Q554 25 548 11Q544 3 543 -3Q534 -4 524 -6Q525 -9 532 -10Q537 -11 538 -12Q541 -26 543 -40Q537 -38 534 -38Q522 -38 507 -52Q502 -56 485 -75Q486 -83 486 -97Q486 -122 476 -141Q457 -133 437 -129Q430 -129 424 -132Q424 -123 423 -115Q423 -81 439 -3Q430 11 404 66Q402 65 399 65Q390 69 386 72H385Q381 72 372 64Q361 54 352 54Q348 12 310 11H308L306 9Q311 8 315 6Q330 -5 330 -37Q328 -62 326 -88Q288 -65 256 -21Q239 2 204 65Q188 57 171 57Q158 57 150 63Q153 59 153 54Q153 48 148 41H144Q136 41 130 44Q124 15 115 -6Q112 -10 99 -19Q84 -29 82 -38Q84 -39 87 -39Q91 -39 103 -34Q108 -41 112 -49Q104 -61 77 -76Q50 -91 41 -106Q56 -102 88 -86Q124 -68 149 -63Q247 -137 315 -225H316Q319 -225 322 -230Q326 -236 330 -236H331L335 -261Q346 -271 346 -273Q291 -259 239 -240Q185 -220 158 -170Q151 -167 143 -167Q119 -167 97 -184Q74 -202 70 -223Q69 -227 69 -235V-245Q69 -255 67 -259Q65 -266 59 -276Q50 -291 50 -302Q50 -306 52 -316Q60 -329 67 -342Q71 -355 75 -369Q83 -383 98 -392Q114 -400 127 -409Q141 -421 152 -433Q163 -445 177 -449Q175 -440 160 -428Q150 -420 146 -414Q144 -411 139 -394H141Q146 -394 153 -403Q161 -413 165 -414V-410Q165 -403 162 -399Q166 -394 175 -394Q199 -397 222 -406Q253 -414 365 -448V-450Q364 -471 356 -489Q347 -506 340 -523Q337 -534 334 -545Q331 -556 320 -562Q337 -562 361 -580Q390 -601 412 -601H415Q439 -599 454 -584Q459 -567 469 -556Q469 -553 468 -550Q473 -522 490 -496Q485 -483 485 -466V-458Q473 -455 473 -438Q473 -426 487 -426H490Q489 -423 489 -418Q493 -394 499 -364Q494 -343 479 -333Q461 -323 444 -313Q436 -295 436 -273Q436 -257 441 -247Q443 -246 446 -246Q452 -246 459 -256Q466 -266 472 -267Q468 -254 464 -241Q475 -242 494 -254Q507 -262 515 -265Q479 -241 479 -224Q479 -216 487 -208Q494 -209 501 -211Q500 -209 495 -203Q488 -195 488 -189Q488 -187 490 -181Q496 -188 505 -188Q526 -184 546 -181Q549 -181 552 -182Q558 -187 558 -201Q557 -216 556 -231Q558 -238 559 -245Q557 -291 555 -337Q555 -351 556 -357Q553 -363 538 -369Q527 -387 515 -405V-418Q498 -448 497 -497V-505Q499 -526 514 -536Q520 -540 550 -549Q550 -575 549 -600Q547 -624 534 -644L537 -645Q543 -645 552 -628Q558 -616 562 -613Q565 -613 565 -618V-625Q576 -617 586 -607Q590 -609 599 -609Q626 -609 642 -570Q646 -568 654 -568Q679 -572 703 -580V-634Q703 -679 697 -702Q689 -712 677 -713Q664 -714 650 -715Q665 -724 679 -733Q696 -750 713 -775Q730 -800 754 -802H755Q780 -801 812 -745Q820 -731 832 -722Q830 -717 830 -708V-688Q828 -680 818 -669Q811 -661 809 -656Q805 -648 805 -635Q805 -633 808 -606Q826 -607 838 -618Q850 -628 863 -639L864 -636Q864 -632 856 -623Q846 -612 846 -605Q846 -601 847 -599H849Q851 -599 854 -602Q859 -606 862 -606H864Q864 -602 859 -595Q854 -588 854 -583Q854 -579 855 -577L857 -576Q865 -579 873 -582L877 -581V-580Q877 -577 870 -571Q864 -566 863 -562Q861 -543 851 -514Q841 -488 839 -469Q820 -462 805 -459Q789 -455 777 -445Q770 -415 770 -346V-320Q770 -299 769 -279Q767 -257 767 -250Q767 -238 772 -229L773 -228L771 -226H770L768 -225H777Q806 -227 835 -229Q841 -236 846 -250Q851 -266 855 -270Q855 -255 864 -244Q897 -250 907 -252Q898 -247 898 -235Q898 -226 906 -225Q904 -220 902 -215Q902 -211 907 -211Q889 -190 886 -186V-180Q887 -170 888 -160V-157Q885 -142 872 -136Q860 -131 842 -130Q803 -131 775 -121Q766 -106 747 -101Q793 -92 805 -84Q813 -86 823 -96Q831 -104 835 -106V-105Q835 -101 830 -94Q823 -85 823 -80Q823 -75 826 -72Q849 -79 894 -110Q907 -120 913 -120H916Q904 -102 884 -91Q860 -79 857 -52V-48Q869 -49 882 -55Q899 -62 907 -63Q904 -58 895 -52Q882 -43 882 -36V-34Q883 -21 904 -21Q926 -22 948 -24H953Q936 -19 920 -13Q904 -7 900 11Q902 16 909 16Q916 15 922 17Q914 22 906 26Q904 39 902 52Q903 56 903 59Q890 75 884 80Q873 89 859 89Z"/>
</svg>