<svg xmlns="http://www.w3.org/2000/svg" viewBox="0 -800 1024 1024">
	<path fill="#000000" d="M916 -699Q916 -720 929 -721Q932 -718 932 -714Q931 -700 916 -699ZM146 -17V-19Q146 -28 158 -28Q172 -28 177 -21Q176 -15 165 -15Q154 -15 146 -17ZM757 -385H751L747 -386Q768 -396 770 -422Q770 -427 768 -433Q765 -431 735 -417Q726 -412 708 -400Q681 -385 655 -368Q630 -351 625 -317Q623 -295 623 -248Q623 -204 625 -130Q633 -132 661 -134Q704 -136 714 -143Q723 -149 725 -162Q727 -176 729 -191Q737 -238 738 -247Q745 -281 753 -313Q755 -335 762 -382Q762 -385 757 -385ZM393 -44V-40Q393 -14 399 8Q407 33 408 51Q408 64 400 76Q394 73 389 73Q379 74 371 80Q363 87 356 93Q328 85 306 60Q302 55 271 11Q269 9 262 9Q256 9 253 8Q255 5 260 5Q267 5 270 8Q259 -7 237 -10Q215 -13 191 -18Q195 -19 203 -19Q222 -17 240 -16Q244 -16 248 -17Q273 -21 285 -52Q290 -64 298 -112Q273 -104 252 -50H245Q225 -50 214 -59Q209 -63 194 -84Q185 -94 178 -104Q171 -114 171 -129V-134Q173 -166 178 -184Q189 -201 206 -216Q221 -234 235 -247Q232 -236 229 -225Q229 -221 230 -219Q240 -223 263 -240Q294 -263 313 -266Q315 -288 316 -310Q316 -320 315 -325Q245 -305 185 -247Q162 -225 156 -221Q138 -209 115 -209H109Q95 -218 87 -232Q78 -247 66 -263Q50 -280 38 -296Q25 -312 24 -339V-341Q25 -354 32 -374Q38 -391 39 -397Q41 -415 44 -430Q46 -446 54 -458Q79 -493 150 -542L151 -540Q147 -535 143 -530Q133 -519 128 -512Q119 -500 119 -489Q119 -484 120 -482Q127 -484 133 -493Q139 -503 144 -511Q146 -505 146 -497Q146 -489 152 -488Q233 -531 322 -569V-578Q322 -624 295 -676V-685Q295 -690 297 -690Q296 -693 291 -697Q286 -702 285 -706Q304 -722 326 -738Q348 -754 371 -755Q393 -755 409 -736Q410 -735 428 -699Q443 -678 449 -658V-654Q449 -646 443 -626Q438 -608 437 -596H438Q442 -596 455 -604Q468 -612 474 -612Q478 -612 480 -610Q470 -603 461 -596Q452 -589 451 -573V-568Q455 -566 456 -566Q463 -568 470 -571Q465 -566 465 -554Q465 -539 470 -529L472 -528Q477 -530 481 -532H482Q479 -521 479 -510Q484 -477 488 -445V-439Q485 -421 471 -412Q457 -403 446 -391H443Q419 -391 404 -377Q389 -363 389 -342Q389 -329 397 -313Q443 -339 489 -365Q476 -354 462 -344Q447 -334 443 -313H445Q450 -313 458 -318Q469 -325 476 -325H479Q466 -315 461 -309Q452 -298 451 -284Q454 -279 457 -279Q462 -280 467 -282Q459 -271 459 -252Q459 -243 461 -227Q424 -211 390 -170V-136Q390 -107 393 -94Q395 -84 397 -75Q395 -59 393 -44ZM701 -21H697Q637 -21 607 19Q591 17 581 7Q572 -2 560 -9V-11Q560 -22 552 -41Q545 -58 544 -65V-68Q548 -87 551 -106Q552 -111 552 -116Q552 -122 547 -172Q540 -251 538 -268Q531 -327 519 -351Q511 -368 492 -377Q488 -386 488 -396Q488 -403 497 -439Q501 -472 516 -494Q526 -499 532 -508V-512Q528 -528 524 -545V-549Q530 -547 535 -536Q539 -526 544 -524Q552 -527 556 -533Q553 -547 545 -566Q532 -595 532 -615V-618Q555 -569 581 -544Q586 -546 590 -548L594 -547Q607 -529 622 -518Q675 -539 714 -561Q768 -591 773 -594Q803 -614 813 -640H815Q828 -643 840 -649H842Q856 -646 870 -644H872Q888 -647 895 -661Q903 -675 914 -684H915Q917 -684 917 -680Q896 -654 896 -632Q896 -619 904 -611Q909 -615 914 -621Q919 -628 926 -629H929Q925 -612 920 -596Q920 -588 926 -583H927Q934 -586 940 -589H942Q953 -547 953 -513Q953 -482 944 -458H939Q934 -458 932 -457Q909 -412 895 -359Q881 -307 868 -250Q854 -199 842 -140Q828 -63 828 -35Q828 -17 831 -2Q824 5 821 32Q819 53 815 60Q793 69 770 69Q762 69 759 68Q753 67 741 55Q728 43 719 43Q711 25 695 11Q698 -5 701 -21Z"/>
</svg>