<svg xmlns="http://www.w3.org/2000/svg" viewBox="0 -800 1024 1024">
	<path fill="#000000" d="M902 -768Q893 -756 878 -753Q884 -769 897 -769Q900 -769 902 -768ZM88 -473Q76 -452 66 -450Q64 -452 64 -457Q67 -472 88 -473ZM521 -309H520Q504 -299 496 -285Q511 -289 526 -293Q523 -294 523 -302Q523 -309 521 -309ZM673 -340V-338Q685 -341 691 -349Q697 -358 703 -365Q673 -363 673 -340ZM593 -339V-335Q594 -328 595 -322Q595 -319 594 -317Q596 -315 598 -315Q603 -316 608 -317Q610 -327 610 -331Q610 -344 603 -344Q600 -344 593 -339ZM484 -360H487Q502 -363 516 -366Q516 -381 511 -386Q499 -385 494 -377Q489 -369 484 -360ZM590 -393L618 -404Q620 -412 620 -421Q620 -430 618 -440H615Q604 -440 596 -429Q588 -418 588 -405Q588 -401 590 -393ZM621 -507H623Q630 -523 630 -537Q630 -545 629 -549Q605 -549 596 -536V-504L600 -503Q611 -505 621 -507ZM641 -65H637Q602 -58 576 -48Q563 -44 549 -38Q534 -32 533 -18V-14Q574 -19 614 -25Q626 -26 634 -40Q640 -50 641 -65ZM668 -173Q648 -171 631 -160Q613 -149 594 -141Q571 -133 562 -128Q546 -119 541 -105Q558 -108 591 -119Q637 -134 662 -137Q666 -152 669 -167Q669 -171 668 -173ZM733 -429H736Q733 -425 729 -421Q724 -418 723 -411Q725 -408 726 -405Q728 -402 732 -402Q738 -420 755 -445Q771 -468 775 -477Q720 -473 696 -459Q694 -454 692 -428Q698 -430 699 -430Q708 -428 715 -423Q727 -429 733 -429ZM188 -291V-292Q188 -295 191 -297Q194 -299 194 -302Q190 -306 184 -306Q174 -305 165 -300Q156 -294 151 -293Q152 -303 161 -310Q173 -319 175 -323Q175 -330 167 -337Q160 -343 159 -348Q158 -350 158 -354Q159 -360 159 -367V-371Q158 -376 150 -383Q142 -390 141 -396Q151 -391 159 -391Q167 -391 172 -395L173 -397Q171 -399 168 -404L169 -407Q179 -407 185 -404Q204 -407 218 -414Q224 -412 231 -409Q244 -403 251 -402Q269 -378 299 -363Q300 -354 307 -337Q315 -318 315 -306Q315 -302 314 -299Q313 -293 305 -284Q298 -276 296 -269Q294 -270 290 -270Q285 -270 264 -261Q245 -266 232 -276Q218 -285 203 -294Q196 -292 188 -291ZM275 -474H263Q253 -475 237 -480Q220 -486 213 -486Q208 -486 205 -485Q199 -483 192 -475Q185 -467 179 -467Q193 -484 196 -499Q196 -510 181 -518Q156 -510 134 -497Q111 -484 92 -474Q102 -488 135 -511Q157 -527 169 -539Q165 -553 153 -553Q145 -553 116 -540Q119 -548 136 -556Q150 -563 154 -570Q151 -587 144 -599Q139 -600 130 -600Q106 -598 81 -596Q71 -596 67 -597Q74 -603 115 -614Q146 -622 148 -643V-647Q148 -662 144 -680Q142 -687 135 -696Q127 -705 126 -709Q135 -707 144 -698Q154 -689 160 -687Q163 -689 166 -692Q164 -700 161 -708L162 -712Q167 -706 173 -701Q179 -695 188 -695Q193 -695 196 -696Q224 -684 244 -684H248Q252 -678 264 -671Q279 -662 283 -654Q288 -658 290 -665Q291 -673 300 -674H301Q299 -662 299 -655Q299 -640 311 -632Q314 -632 315 -636Q317 -640 319 -640H320Q322 -625 324 -619Q327 -609 335 -606Q352 -563 352 -536Q352 -530 351 -524Q327 -492 322 -488Q305 -474 275 -474ZM374 -225H378L379 -224Q378 -222 374 -218Q369 -215 368 -208L369 -204Q371 -201 372 -201Q376 -202 379 -204Q368 -179 368 -149Q368 -132 373 -114Q340 -90 303 -61Q266 -32 236 0Q223 21 215 46Q201 68 176 68Q169 68 165 66Q155 62 141 46Q124 27 113 22Q97 21 83 9Q78 -17 76 -22Q85 -44 96 -62Q92 -71 92 -82Q93 -101 103 -116Q113 -130 123 -144Q135 -164 139 -169Q148 -181 157 -183Q152 -173 145 -161Q138 -150 137 -137Q137 -131 140 -125Q202 -153 260 -186Q317 -218 376 -249V-248Q376 -245 367 -236Q355 -224 355 -216V-213Q360 -214 364 -219Q369 -225 374 -225ZM841 -143H838Q832 -142 826 -142L823 -143Q780 -113 770 -53Q740 -20 733 72Q731 76 724 82Q716 89 714 95Q692 88 671 85Q651 82 638 67Q634 61 630 48Q626 32 620 25Q566 35 517 72Q502 69 490 62Q479 55 467 47Q457 11 449 -25Q441 -61 425 -91Q420 -99 408 -116Q395 -133 393 -143V-144Q393 -151 402 -164Q411 -177 411 -185V-187Q408 -193 405 -207Q416 -203 422 -195Q425 -198 429 -199Q432 -201 433 -206Q441 -200 449 -194Q457 -197 464 -200Q478 -197 491 -197Q520 -198 547 -206Q574 -214 600 -222Q646 -235 692 -249Q693 -251 693 -254Q690 -263 687 -273Q617 -271 559 -250Q527 -239 455 -201Q421 -229 403 -271Q385 -313 355 -342Q354 -346 352 -351Q324 -364 320 -377Q318 -383 318 -387Q318 -405 347 -435Q366 -455 369 -464Q368 -469 367 -474Q367 -477 369 -479Q374 -479 375 -475Q377 -471 378 -467Q395 -466 433 -455Q443 -458 464 -462Q491 -467 504 -473Q503 -488 501 -504Q486 -498 472 -490Q458 -483 439 -482H437Q434 -483 433 -486L434 -488H433Q421 -489 414 -497Q407 -506 399 -516Q390 -525 381 -531Q373 -537 370 -546Q369 -549 369 -554Q369 -566 382 -588Q380 -598 380 -603Q380 -618 391 -630Q397 -636 415 -648Q428 -660 438 -663V-660Q436 -655 434 -650Q439 -649 443 -649Q457 -650 470 -651H473Q479 -657 484 -663Q483 -666 483 -671Q483 -701 534 -701Q553 -701 569 -698Q577 -684 584 -680Q613 -689 644 -693Q642 -709 635 -717Q627 -726 614 -726Q616 -731 624 -734Q632 -737 634 -740Q630 -744 628 -752Q659 -765 703 -803Q714 -797 732 -782Q756 -762 772 -756Q772 -753 771 -751Q773 -741 775 -732Q798 -740 820 -749Q820 -738 825 -731Q833 -733 843 -738Q858 -746 866 -746H871Q854 -735 844 -717Q846 -714 847 -712H849Q858 -716 867 -720H868L869 -719Q868 -716 864 -710Q859 -704 858 -697V-696Q860 -689 868 -689H877Q874 -678 870 -668Q872 -660 872 -656Q871 -640 864 -626Q856 -613 849 -602Q837 -599 819 -596Q800 -594 788 -585Q785 -586 779 -586Q757 -583 736 -576Q722 -558 718 -540Q751 -541 782 -556Q812 -570 840 -581Q845 -577 856 -573Q871 -567 877 -560Q888 -567 901 -570H905L906 -568Q906 -566 903 -564Q897 -560 897 -557Q904 -558 912 -565Q923 -574 932 -574Q930 -569 924 -563Q915 -553 914 -546Q915 -545 915 -540H918Q924 -540 928 -546Q932 -551 935 -552L936 -548Q936 -545 930 -533Q933 -523 947 -508Q963 -491 964 -476Q962 -469 960 -462Q961 -444 955 -423Q939 -421 936 -414Q912 -410 897 -393Q882 -376 865 -357Q839 -330 819 -308Q792 -277 792 -255H794Q800 -255 807 -246Q811 -241 815 -240H816Q820 -240 825 -245Q831 -251 837 -252L839 -250Q835 -247 831 -238V-236Q831 -234 833 -234Q836 -234 837 -230V-227Q838 -212 850 -206Q854 -186 858 -173V-171Q857 -165 850 -159Q841 -151 841 -145Z"/>
</svg>