<svg xmlns="http://www.w3.org/2000/svg" viewBox="0 -800 1024 1024">
	<path fill="#000000" d="M918 -512H916Q908 -510 900 -509H896Q900 -512 903 -517Q907 -522 912 -523L916 -522Q916 -518 918 -512ZM23 -137V-139Q25 -144 26 -149Q32 -147 36 -142Q39 -137 43 -134Q42 -129 38 -129Q31 -133 23 -137ZM743 -214H746Q747 -230 748 -246Q748 -252 746 -260Q711 -249 669 -224V-206Q669 -198 673 -194H675Q690 -194 710 -204Q730 -214 743 -214ZM756 -324Q759 -351 759 -358Q759 -370 755 -377Q745 -375 723 -362Q710 -355 697 -349Q690 -342 682 -335Q658 -324 657 -311Q657 -303 663 -293Q686 -301 707 -311Q728 -320 756 -324ZM862 -708H866Q856 -698 851 -677Q851 -674 853 -668Q856 -660 863 -659Q862 -657 862 -651Q862 -635 872 -623Q866 -607 866 -601Q866 -596 869 -590Q858 -581 846 -574Q833 -566 829 -550Q804 -540 779 -530Q769 -528 758 -527Q735 -516 712 -506Q660 -491 620 -464Q582 -492 550 -507Q548 -513 548 -515Q551 -526 553 -538V-540Q553 -548 541 -563Q531 -575 530 -582Q530 -585 529 -589Q529 -598 533 -610Q538 -626 539 -635Q546 -640 553 -645H554Q558 -643 562 -642L586 -654Q742 -719 764 -726Q771 -724 777 -723Q780 -723 780 -726Q780 -729 783 -729Q793 -730 806 -736Q820 -743 830 -743H832L833 -740Q830 -733 826 -727V-726Q829 -724 835 -724Q840 -724 850 -730Q862 -737 872 -737H875Q872 -730 858 -723Q841 -715 841 -702V-701H843Q853 -704 862 -708ZM944 -104V-102Q945 -100 948 -100Q952 -100 956 -101Q959 -101 961 -99Q959 -94 959 -86Q959 -76 966 -56Q972 -39 973 -30Q973 -26 969 -26Q965 -25 964 -21Q965 -18 965 -13Q965 -5 959 5Q954 13 954 17Q954 18 956 24Q952 28 942 28Q905 23 868 18Q840 17 812 15Q808 15 803 14Q772 17 738 24H712Q689 29 665 33Q656 32 647 31Q586 36 547 70Q540 66 530 65Q528 56 513 44Q504 37 500 30Q489 11 488 2Q491 -9 494 -21Q490 -33 485 -45Q485 -54 493 -70Q502 -88 502 -97Q502 -100 500 -108Q508 -100 516 -89Q524 -79 540 -77Q546 -77 576 -84Q671 -94 765 -104Q755 -111 733 -123V-143Q718 -143 697 -135Q681 -129 676 -129H675Q670 -127 664 -118Q658 -110 653 -108Q645 -106 630 -106Q619 -106 616 -107Q606 -109 592 -123Q576 -139 566 -139H565Q558 -181 551 -218Q543 -255 520 -283Q515 -289 508 -295Q500 -301 499 -308Q498 -313 498 -323Q498 -353 522 -399Q543 -439 546 -464Q552 -463 553 -450Q554 -440 556 -438Q565 -429 590 -427Q616 -425 623 -416Q696 -454 756 -476Q757 -478 764 -494Q782 -499 800 -503Q817 -508 827 -522Q831 -529 833 -536Q834 -544 844 -545Q842 -532 839 -519V-513Q851 -505 862 -495Q875 -500 887 -506L888 -503Q888 -500 883 -496Q877 -491 877 -488L878 -484L881 -483Q889 -486 897 -490Q900 -490 901 -487Q888 -479 888 -468Q888 -459 901 -459Q899 -453 899 -449Q899 -432 912 -423Q908 -409 908 -378V-364Q908 -349 907 -341Q883 -341 865 -321Q832 -199 832 -126V-120Q831 -118 829 -116Q826 -114 826 -111Q844 -118 867 -125Q892 -133 897 -158Q898 -117 932 -117Q941 -117 953 -120L954 -118Q954 -116 950 -113Q944 -109 944 -104ZM457 14V18Q453 29 444 37Q435 44 428 53Q418 56 410 56Q386 54 376 38Q366 21 352 7Q353 5 353 1Q351 -8 349 -17Q349 -21 354 -24Q348 -41 333 -47Q348 -65 349 -98Q350 -132 354 -162Q328 -146 321 -119Q302 -110 291 -89Q281 -67 268 -48Q257 -35 246 -21Q236 -8 232 9Q226 14 219 31Q213 44 208 51Q202 49 198 49Q188 51 178 52Q175 52 173 51Q168 50 160 43Q149 33 141 33H139Q140 30 140 25Q140 12 128 9V3Q125 -15 122 -34Q122 -38 124 -42Q119 -53 102 -68Q85 -83 80 -93Q101 -83 121 -71Q113 -81 85 -100Q61 -116 50 -128Q68 -123 96 -104Q124 -86 143 -80Q134 -88 115 -101Q93 -116 84 -125Q88 -127 91 -127Q106 -124 118 -113Q149 -96 157 -96H158Q181 -96 231 -146Q271 -187 287 -212Q307 -234 326 -257Q345 -280 354 -314Q350 -318 343 -318Q328 -318 320 -306Q317 -307 313 -307L309 -306Q251 -274 213 -248Q192 -233 192 -210V-208Q172 -191 138 -191Q92 -191 86 -225Q82 -229 72 -232Q59 -236 55 -242Q50 -250 50 -261Q50 -278 60 -293Q47 -308 47 -333Q47 -346 49 -353Q55 -377 70 -396Q85 -414 103 -434Q120 -455 136 -474Q153 -493 175 -495Q172 -488 152 -471Q135 -457 135 -446Q135 -439 139 -434Q178 -441 244 -472Q303 -499 337 -507Q357 -521 371 -521Q369 -565 368 -610Q367 -655 343 -677Q345 -689 351 -699Q365 -705 386 -724Q407 -743 420 -749Q445 -740 457 -717Q469 -694 488 -677Q487 -674 487 -669Q487 -656 496 -636Q469 -613 469 -571Q469 -555 473 -543Q493 -549 511 -556Q508 -550 498 -541Q486 -530 484 -521L487 -520Q491 -523 499 -527H502Q496 -516 493 -505V-503Q499 -490 505 -484Q505 -479 499 -475Q493 -471 493 -468V-467L495 -466Q498 -466 501 -467H503Q494 -458 494 -434Q494 -405 509 -399Q508 -396 508 -388V-375Q496 -370 496 -360V-357Q468 -351 443 -343Q438 -334 438 -325Q439 -312 447 -304Q455 -295 463 -288Q468 -290 472 -298Q478 -308 485 -308Q478 -300 478 -291Q478 -280 488 -272Q497 -265 510 -265Q514 -265 520 -267Q518 -264 511 -259Q504 -254 503 -248V-247Q503 -242 508 -235Q513 -228 514 -224H533Q513 -219 513 -202Q513 -195 518 -185Q508 -179 500 -170V-167Q502 -157 503 -148V-145Q495 -152 491 -165Q479 -163 473 -163Q450 -163 441 -176Q438 -155 438 -136Q442 -60 460 1Q457 9 457 14Z"/>
</svg>