<svg xmlns="http://www.w3.org/2000/svg" viewBox="0 -800 1024 1024">
	<path fill="#000000" d="M619 -176V-184Q600 -185 588 -190Q591 -182 600 -180Q609 -178 619 -176ZM862 -466V-470Q862 -476 865 -480Q869 -485 874 -485L878 -484Q874 -466 862 -466ZM500 -500H499Q466 -493 435 -484Q420 -479 405 -474Q390 -469 383 -456Q388 -450 397 -450Q420 -455 443 -460Q448 -460 450 -459Q475 -470 505 -476Q506 -491 500 -500ZM549 -569H552Q571 -602 592 -633L593 -634L591 -635Q590 -631 582 -630Q573 -629 573 -623Q546 -619 522 -610Q498 -601 475 -594Q407 -577 362 -536H372Q407 -536 451 -550Q456 -552 529 -579Q531 -570 549 -569ZM591 -196H599Q623 -197 644 -202Q653 -220 680 -260Q705 -297 717 -322Q691 -317 622 -294Q619 -285 602 -279Q585 -272 582 -263Q591 -244 591 -214ZM719 -47H716Q707 -47 696 -56Q686 -64 679 -64H674Q667 -77 653 -82Q651 -91 644 -98Q640 -102 630 -109Q628 -128 615 -139Q602 -150 595 -162L598 -163Q601 -163 606 -158Q612 -153 616 -152Q609 -167 591 -174Q583 -147 583 -113Q587 -97 591 -82V-78Q590 -60 588 -42V-38Q590 -24 591 -11V-8Q591 7 596 29Q601 51 601 59Q601 74 595 85Q585 104 579 109Q571 116 559 116Q545 116 520 100Q516 93 508 84Q496 71 493 61Q488 43 485 24Q481 6 471 -7Q475 -9 478 -11Q476 -18 470 -21Q465 -24 459 -27Q460 -31 464 -31Q472 -28 480 -26H481Q500 -38 507 -88Q508 -95 514 -176Q517 -221 520 -236Q499 -246 497 -248Q496 -252 494 -257V-259Q476 -264 475 -281Q473 -298 469 -315Q466 -324 456 -333Q446 -342 444 -349Q465 -343 485 -337Q549 -352 625 -380Q643 -388 684 -400Q734 -415 755 -424Q769 -435 786 -444Q810 -446 820 -452Q830 -458 839 -479Q847 -497 854 -501H857Q855 -493 849 -480Q839 -459 839 -450Q839 -443 841 -440H842Q845 -440 849 -447Q855 -457 860 -458Q861 -456 861 -453Q857 -440 853 -427Q860 -419 867 -410Q874 -402 884 -397H886Q889 -397 893 -400Q898 -404 902 -404Q899 -395 896 -387L897 -384L899 -382Q903 -382 906 -383H907Q913 -335 913 -320Q913 -292 903 -268H888Q855 -256 837 -229Q819 -202 801 -174Q783 -147 764 -120Q745 -93 731 -64Q727 -59 719 -58ZM296 -1L287 22Q263 21 238 20Q232 7 220 -1Q207 -8 195 -17V-21Q195 -35 183 -52Q175 -63 173 -73Q193 -89 204 -113Q213 -114 222 -116Q205 -150 176 -162Q131 -224 131 -267Q131 -285 138 -302Q136 -311 128 -327Q117 -348 117 -363Q117 -369 118 -372Q121 -369 136 -338Q148 -318 164 -317Q155 -333 151 -358V-363Q157 -360 164 -344Q172 -326 182 -326H185L187 -329Q186 -333 184 -337L186 -340Q208 -310 247 -308Q258 -308 266 -312Q288 -324 308 -340Q316 -345 341 -374Q323 -393 299 -406V-408Q301 -411 302 -415Q284 -459 232 -482Q217 -488 203 -493Q189 -498 179 -509L176 -518Q135 -564 129 -602Q128 -611 120 -632Q112 -653 112 -665Q112 -677 121 -689Q140 -695 144 -698Q155 -705 155 -719Q155 -723 154 -726H156Q162 -726 167 -720Q172 -714 176 -714V-715Q176 -718 169 -725Q161 -733 161 -739Q161 -740 163 -744Q176 -729 191 -716L192 -718Q190 -722 187 -726L189 -729Q200 -721 209 -721Q217 -721 225 -722H231Q254 -713 275 -698Q281 -694 289 -685Q299 -674 305 -672H310Q338 -677 365 -689Q385 -695 404 -701H406Q412 -700 418 -700L422 -701Q441 -710 468 -714H474L475 -716V-719Q496 -720 541 -736Q572 -747 591 -751Q627 -758 663 -767Q699 -776 717 -804Q732 -810 747 -810Q771 -810 795 -794Q816 -780 830 -760Q835 -761 840 -763H842L843 -760Q841 -754 838 -748V-746Q840 -733 863 -733Q874 -733 878 -734Q877 -728 868 -724Q862 -721 860 -719Q861 -713 865 -707Q882 -715 902 -722Q899 -714 889 -704Q876 -692 874 -683Q874 -680 877 -680Q880 -679 880 -676V-675Q864 -663 859 -632H856Q833 -629 818 -617L817 -615Q817 -614 818 -614Q820 -614 820 -612V-611Q787 -598 758 -567Q730 -541 705 -515Q681 -485 661 -453Q640 -421 619 -389Q616 -391 611 -391Q600 -388 589 -386Q579 -389 568 -392Q562 -392 558 -384Q557 -391 555 -398Q553 -405 547 -405Q544 -405 542 -404Q539 -412 536 -421Q484 -419 401 -392Q394 -386 389 -375Q392 -369 406 -365Q417 -344 429 -325Q441 -307 442 -277V-269Q433 -260 426 -246Q406 -242 385 -239H380Q373 -240 360 -240Q336 -240 323 -227Q321 -217 321 -213Q325 -185 335 -161Q340 -162 345 -164H348Q364 -176 389 -181Q443 -219 502 -223Q495 -216 477 -209Q452 -200 447 -190L450 -189Q453 -189 458 -193Q464 -198 469 -198Q472 -197 474 -197Q472 -190 462 -182Q454 -176 451 -171H452Q458 -172 463 -174Q467 -174 468 -170Q467 -166 461 -163Q455 -160 454 -157Q464 -106 465 -98Q424 -79 378 -61Q332 -43 306 -5Q298 -2 296 -1Z"/>
</svg>