<svg xmlns="http://www.w3.org/2000/svg" viewBox="0 -800 1024 1024">
	<path fill="#000000" d="M319 -268Q324 -284 326 -286Q329 -284 338 -284Q332 -274 326 -264Q323 -266 319 -268ZM64 -574H61Q61 -580 59 -588Q73 -595 75 -595Q78 -595 80 -594L82 -591Q79 -585 76 -579Q73 -574 64 -574ZM603 -487H607Q610 -491 610 -496Q606 -510 594 -520Q594 -522 599 -526Q604 -530 604 -533L603 -535Q588 -532 571 -530Q555 -528 551 -519V-516Q551 -508 566 -495Q576 -486 579 -480Q589 -485 603 -487ZM622 -333V-359Q614 -361 611 -361Q597 -360 588 -352Q578 -344 567 -339Q559 -352 546 -361Q534 -370 522 -379Q503 -352 492 -316Q496 -318 501 -318Q507 -318 513 -315Q579 -331 622 -333ZM149 -289H147Q139 -288 131 -276Q124 -265 117 -262Q118 -272 129 -292Q120 -313 99 -316Q92 -316 88 -312Q92 -319 92 -326Q91 -338 80 -345Q70 -352 64 -359Q57 -369 57 -382Q57 -403 68 -418Q85 -437 123 -440Q143 -442 162 -445Q171 -445 178 -442H180Q186 -443 191 -445Q215 -438 228 -414H231Q234 -414 237 -415V-413Q236 -407 235 -402Q235 -399 237 -397Q246 -400 254 -404L258 -403Q249 -398 249 -386Q253 -361 257 -336Q257 -325 251 -315Q247 -309 242 -306Q233 -300 230 -296Q217 -295 202 -288Q185 -280 175 -280Q162 -285 149 -289ZM284 -488H237Q228 -495 219 -502H210Q204 -507 200 -511Q198 -511 195 -512Q187 -512 182 -507Q178 -502 171 -496Q175 -508 175 -515Q175 -536 160 -538H155Q141 -538 124 -521Q105 -502 96 -500Q96 -511 116 -531Q137 -553 137 -565L136 -569Q133 -578 118 -578H111Q118 -588 118 -596Q118 -611 103 -611Q92 -611 83 -603Q86 -611 95 -620Q103 -628 105 -631Q104 -656 75 -656Q52 -653 28 -650Q36 -657 62 -665Q89 -674 98 -684V-698Q98 -711 96 -716Q106 -717 119 -723Q131 -729 136 -730Q133 -750 130 -770V-775H135Q136 -759 145 -746Q154 -733 166 -733H169Q175 -733 183 -742Q190 -750 198 -751Q197 -747 197 -741Q197 -722 213 -714Q217 -712 246 -704Q250 -708 252 -713Q254 -719 261 -719H264V-715Q264 -709 262 -701Q266 -695 271 -689Q277 -683 286 -682Q310 -660 322 -609Q333 -581 338 -538Q338 -523 333 -516Q327 -507 306 -499Q290 -493 284 -488ZM907 40H896Q888 40 884 39Q880 38 869 32Q858 26 849 24Q845 23 836 23H809Q710 15 613 10Q599 10 575 12Q546 15 522 39Q519 47 516 54H510Q479 54 452 39Q449 32 449 23Q449 16 446 11Q443 5 432 0Q417 -7 416 -18V-19Q417 -30 428 -46Q439 -61 445 -70Q459 -101 480 -118L481 -114Q481 -111 476 -105Q471 -99 471 -94Q471 -90 472 -88Q476 -74 496 -74Q517 -77 538 -80Q575 -81 582 -82Q610 -84 619 -90V-96Q619 -108 618 -120H613Q601 -120 583 -112Q563 -103 551 -103Q540 -112 533 -112Q520 -147 504 -160Q505 -165 513 -168Q511 -174 502 -179Q494 -184 492 -187Q501 -188 518 -202Q530 -212 539 -215Q567 -219 606 -224V-226Q606 -232 605 -239Q605 -245 607 -247Q597 -249 591 -249Q548 -247 528 -220H527Q525 -221 522 -222L520 -221Q517 -219 513 -210Q493 -218 472 -227V-231Q471 -240 466 -247Q454 -242 454 -227Q454 -223 455 -221Q445 -206 435 -166Q426 -131 418 -117V-114Q419 -111 419 -108Q403 -80 401 -45Q396 -30 389 -16Q382 -1 381 16Q382 20 382 24Q377 24 365 32Q354 39 346 39Q344 39 341 38Q335 37 331 31Q328 26 322 20Q314 14 306 9Q299 4 298 -7Q295 -9 292 -11Q289 -11 287 -10Q287 -42 277 -51Q279 -59 279 -63Q279 -75 272 -85Q230 -44 200 21Q192 44 183 72Q174 100 148 103Q138 103 118 91Q96 78 90 66Q89 64 89 58Q89 53 88 51Q83 43 75 35Q67 26 66 15Q66 8 71 0Q64 -33 64 -40Q65 -44 65 -49Q67 -62 74 -74Q82 -85 88 -99Q92 -113 97 -126Q101 -139 114 -141Q107 -127 107 -117Q107 -112 108 -109H112Q122 -110 132 -111Q139 -111 142 -108Q208 -183 239 -220Q261 -249 284 -279Q306 -310 338 -330Q323 -305 303 -285Q282 -264 280 -231Q287 -233 298 -246Q309 -258 317 -258Q316 -248 303 -234Q289 -219 287 -205Q287 -196 286 -187Q286 -175 289 -163Q292 -163 295 -170Q298 -176 301 -176L304 -175Q307 -173 307 -165Q307 -158 310 -155Q304 -144 300 -134Q300 -130 301 -127Q287 -118 281 -94Q281 -88 286 -88Q291 -87 306 -112Q319 -133 323 -142Q358 -211 384 -290Q411 -359 425 -400Q434 -427 434 -435V-442Q432 -449 430 -457V-459Q430 -464 438 -473Q443 -479 443 -483V-484Q420 -499 404 -512Q388 -524 387 -550V-554Q390 -565 393 -577Q393 -583 387 -598Q380 -615 379 -622V-632Q378 -635 373 -641Q367 -648 367 -654Q379 -650 387 -643Q384 -656 366 -673Q349 -689 347 -700Q354 -699 367 -687Q379 -676 387 -673Q385 -679 375 -689Q369 -695 366 -700H367Q376 -700 394 -689Q407 -681 416 -679Q430 -689 448 -689Q468 -689 487 -681Q556 -692 625 -703Q628 -707 633 -709Q636 -708 638 -708Q642 -708 646 -709Q647 -709 653 -707Q655 -710 662 -715H674Q680 -715 681 -712Q701 -721 743 -729Q797 -739 815 -751H818Q833 -751 855 -764H856Q858 -762 859 -760Q866 -765 873 -767Q876 -767 878 -766L877 -762Q877 -753 884 -744Q889 -742 897 -742Q910 -745 943 -750Q935 -742 922 -734Q908 -727 907 -716Q907 -710 909 -707Q916 -709 923 -711Q926 -711 930 -709Q929 -707 922 -703Q913 -698 912 -691Q913 -688 918 -688H923L927 -687L928 -685Q923 -677 917 -670Q918 -654 918 -638Q918 -601 905 -588Q853 -588 794 -569H793Q791 -569 791 -571Q791 -574 788 -574Q756 -566 723 -559Q724 -555 728 -550Q732 -546 732 -543Q725 -530 724 -525H730Q754 -525 773 -540Q779 -538 783 -534Q786 -529 790 -525Q798 -531 809 -534H813V-533Q813 -531 807 -526Q800 -521 800 -516Q804 -506 813 -506Q830 -511 847 -516H850Q841 -510 833 -503Q824 -497 819 -487Q824 -488 829 -490Q831 -490 835 -488Q826 -478 822 -463Q822 -457 828 -453Q826 -450 826 -444Q829 -433 832 -422H830Q817 -422 790 -408Q767 -396 754 -394Q749 -393 738 -393Q718 -393 708 -388Q701 -386 701 -366V-345Q717 -351 757 -356Q816 -363 834 -376Q843 -383 846 -394Q854 -376 861 -367Q871 -355 887 -355H892Q884 -345 880 -335V-334Q880 -325 892 -322Q886 -316 884 -306V-305Q884 -301 888 -301Q892 -301 895 -299Q893 -296 886 -295Q880 -294 878 -292Q875 -282 856 -278Q842 -275 837 -271Q821 -277 796 -277Q745 -277 689 -259Q689 -257 694 -257Q698 -257 699 -255V-251Q699 -245 698 -240L701 -238Q715 -246 743 -250H748Q754 -258 755 -265Q765 -250 775 -235Q785 -239 796 -241Q801 -241 804 -240Q801 -237 794 -235Q786 -233 784 -226Q787 -216 800 -215Q797 -211 792 -208Q787 -204 787 -199Q787 -196 790 -192Q797 -190 804 -189Q792 -186 787 -175V-172Q788 -166 788 -160Q777 -148 736 -144Q703 -141 689 -132Q683 -110 683 -95V-88H695Q705 -88 708 -85Q725 -91 753 -91Q778 -90 802 -90Q839 -90 856 -102Q869 -112 875 -124Q882 -136 890 -151Q891 -148 891 -145Q888 -127 885 -109Q886 -106 886 -103Q890 -97 903 -97Q922 -98 940 -100Q952 -100 958 -94Q951 -92 941 -92Q932 -92 929 -86Q934 -83 940 -83Q948 -83 956 -84Q963 -84 967 -80Q964 -77 953 -76Q943 -75 940 -72Q942 -63 950 -63H952Q942 -56 942 -44Q946 -24 949 -4V-1Q937 29 920 42Q916 40 907 40Z"/>
</svg>