<svg xmlns="http://www.w3.org/2000/svg" viewBox="0 -800 1024 1024">
	<path fill="#000000" d="M101 -43V-45Q112 -41 122 -37Q119 -32 111 -32Q103 -32 100 -39ZM926 -496H929Q928 -482 910 -475Q910 -496 926 -496ZM618 -220V-211Q618 -207 619 -205Q659 -216 698 -228Q704 -228 712 -229Q719 -230 720 -237L719 -241Q657 -241 618 -220ZM606 -141V-136Q671 -149 713 -156Q717 -168 717 -171L716 -174Q654 -170 607 -150Q606 -147 606 -141ZM707 -316V-321Q635 -307 606 -294Q612 -280 622 -274Q667 -287 711 -301Q707 -309 707 -316ZM735 -619V-622H732Q692 -608 653 -596Q613 -583 590 -553Q590 -529 591 -519Q611 -525 631 -532Q647 -535 666 -537Q685 -539 698 -547Q709 -561 717 -585Q731 -603 735 -619ZM321 38V41Q310 44 303 50Q296 57 289 63Q283 58 272 53Q256 46 251 39Q248 31 245 23Q240 14 231 11Q222 7 212 2Q214 0 221 0H234Q233 -9 226 -10Q219 -11 212 -12Q193 -16 174 -21Q154 -27 141 -40Q180 -31 221 -28H229Q224 -39 212 -41Q199 -44 186 -46Q192 -51 201 -51Q209 -50 216 -50Q223 -50 226 -52Q240 -61 240 -84Q241 -106 242 -127Q231 -126 222 -116Q215 -109 206 -94Q187 -63 169 -61H164Q150 -61 131 -80Q116 -95 104 -99Q99 -111 99 -125Q99 -137 103 -144Q103 -146 97 -160V-166Q98 -188 110 -200Q122 -211 135 -226Q141 -236 147 -245Q153 -255 164 -256H165Q164 -250 160 -243Q155 -235 155 -231L156 -228Q173 -234 197 -253Q219 -267 241 -282Q262 -298 264 -329Q264 -341 262 -348Q227 -336 196 -324Q165 -311 146 -283Q121 -278 115 -278Q99 -278 88 -286Q80 -296 70 -315Q65 -322 48 -332Q34 -340 32 -343Q26 -353 26 -366Q26 -393 44 -418Q41 -425 39 -433V-439Q40 -456 49 -469Q59 -482 70 -495Q80 -510 89 -526Q97 -542 113 -546Q108 -537 101 -523Q94 -510 93 -495Q93 -484 98 -478Q103 -481 107 -493Q111 -506 118 -508Q120 -506 120 -503Q118 -493 116 -484Q144 -490 171 -496Q194 -506 217 -517L265 -534Q263 -555 250 -565Q238 -575 226 -585Q230 -609 233 -633Q233 -640 230 -649Q232 -648 235 -648Q240 -648 243 -653Q245 -658 248 -661Q246 -666 236 -669Q226 -671 224 -675Q229 -680 240 -680H250Q257 -680 261 -681Q268 -684 276 -689Q284 -693 297 -694H303Q323 -686 344 -669Q362 -660 376 -652Q389 -645 393 -627Q394 -624 394 -618Q390 -598 386 -579Q395 -579 403 -583Q414 -588 419 -588V-586Q418 -583 416 -580V-579Q417 -575 422 -575Q427 -575 431 -576Q437 -559 448 -546Q452 -548 455 -548Q458 -548 460 -546Q457 -538 454 -530V-528Q456 -525 458 -525Q464 -526 469 -528Q472 -528 473 -525Q459 -518 459 -506Q459 -498 467 -492Q455 -484 449 -462Q444 -445 439 -439Q436 -436 411 -426Q374 -411 348 -394Q346 -373 343 -352Q343 -342 345 -337Q374 -357 402 -381V-380Q402 -371 389 -360Q377 -350 375 -342Q379 -340 380 -340Q384 -340 391 -346Q397 -351 399 -352L400 -348Q396 -339 392 -330Q400 -321 403 -291Q405 -273 409 -265Q401 -259 398 -250Q398 -246 400 -243Q388 -241 380 -233Q373 -226 365 -220Q356 -215 346 -210Q337 -206 333 -195Q333 -187 332 -180Q333 -171 333 -163V-155Q332 -130 331 -105Q332 -96 332 -88Q337 -55 342 -23V-21Q341 -12 331 7Q321 26 321 38ZM818 59V63Q807 71 790 89Q767 113 753 121Q737 112 720 103Q719 93 710 87Q706 84 692 80Q684 59 668 46Q653 33 637 20H639Q648 20 660 28Q671 35 681 35Q672 18 641 -2Q609 -23 598 -37Q638 -17 680 2Q677 -13 665 -18Q654 -23 643 -30Q668 -24 695 -19Q703 -27 705 -41Q707 -55 710 -69Q693 -65 668 -64Q642 -63 630 -51H627Q623 -51 619 -52Q613 -50 610 -46H598Q581 -37 552 -29Q508 -17 494 -3H490Q480 0 470 2Q464 5 458 13Q451 23 445 26Q436 31 420 31Q403 31 391 24Q378 16 378 2Q354 -6 353 -36Q353 -51 362 -60Q359 -67 359 -72Q360 -84 368 -93Q376 -103 383 -114Q390 -126 397 -139Q404 -153 415 -154Q405 -135 402 -114V-109Q413 -105 427 -105Q468 -109 510 -117Q508 -151 506 -183Q504 -215 494 -240Q480 -232 462 -232Q434 -232 433 -255Q410 -272 410 -291Q410 -298 413 -307Q408 -319 408 -325Q409 -339 419 -350Q429 -361 437 -373Q443 -384 447 -394Q451 -404 460 -406Q456 -394 453 -380Q454 -376 454 -373Q468 -371 473 -371Q479 -371 485 -372Q504 -376 522 -381Q621 -398 719 -415Q729 -425 745 -427Q737 -434 729 -441Q692 -438 660 -435Q629 -431 603 -420Q595 -407 580 -402Q565 -397 553 -390Q536 -397 514 -430Q511 -462 488 -525Q472 -569 440 -579Q436 -587 436 -595Q436 -607 448 -630Q458 -648 458 -658Q464 -656 466 -656Q476 -656 476 -675V-684L479 -685Q487 -681 494 -677L497 -678V-680Q497 -685 490 -695Q483 -705 483 -710V-712H485Q494 -708 502 -696Q515 -684 536 -681Q544 -672 551 -663Q559 -668 606 -681Q617 -686 627 -692Q658 -702 689 -712Q719 -723 748 -735Q783 -744 806 -762Q813 -769 820 -778Q828 -787 840 -790Q846 -791 857 -791Q869 -791 901 -786Q906 -787 915 -793Q927 -801 937 -801H939Q933 -796 926 -789Q919 -782 918 -773Q918 -768 922 -763Q925 -764 931 -770Q938 -777 942 -777H945L946 -773Q946 -769 941 -761Q936 -753 936 -748Q936 -744 937 -742H938Q940 -745 946 -748L949 -747V-744Q947 -738 945 -732V-727Q945 -720 951 -708Q956 -698 957 -692V-689Q957 -677 945 -658Q936 -643 934 -634Q907 -625 890 -599Q874 -573 856 -546Q844 -531 837 -517Q833 -495 828 -471Q826 -465 818 -457Q808 -446 807 -439Q864 -441 902 -469L904 -466Q902 -461 899 -456Q900 -452 905 -448Q908 -445 910 -442Q917 -448 929 -449Q942 -449 954 -451Q948 -446 940 -442Q933 -439 932 -428V-427Q935 -422 946 -421Q954 -420 957 -418Q944 -407 944 -400Q944 -395 945 -393L946 -392Q947 -394 952 -397L954 -396Q954 -392 949 -384Q945 -377 945 -371V-367Q937 -358 930 -349Q922 -340 908 -337Q904 -336 895 -336Q880 -336 864 -337Q847 -337 839 -334V-333Q839 -329 843 -325Q847 -321 848 -318Q849 -315 849 -309Q848 -289 837 -276Q825 -264 819 -250Q814 -239 814 -217Q813 -191 810 -180Q813 -180 911 -205H913Q916 -203 919 -199L937 -207V-205Q934 -199 931 -193Q942 -193 952 -194Q958 -194 966 -192Q942 -185 942 -175Q942 -174 944 -168L947 -167Q952 -168 957 -169L961 -168Q953 -160 946 -132Q937 -98 923 -91Q908 -84 869 -84Q825 -83 812 -76Q810 -66 810 -45Q814 7 818 59Z"/>
</svg>