<svg xmlns="http://www.w3.org/2000/svg" viewBox="0 -800 1024 1024">
	<path fill="#000000" d="M929 -757Q924 -743 911 -742Q912 -757 929 -757ZM85 -481V-483Q87 -500 101 -501H103Q98 -480 89 -480ZM269 -300V-294Q250 -264 224 -264H222Q209 -265 189 -279Q173 -290 166 -292Q161 -291 155 -284Q148 -276 144 -276H142V-278Q142 -285 148 -289Q153 -293 154 -297V-299Q154 -307 145 -314Q136 -321 125 -321Q118 -321 112 -318V-320Q114 -329 123 -333Q120 -341 113 -348Q120 -355 120 -365Q118 -379 116 -394H117Q122 -391 126 -388Q149 -421 184 -421Q190 -420 195 -420Q217 -394 242 -370Q267 -347 269 -300ZM585 -603H579Q572 -603 572 -598V-597Q568 -599 567 -601Q541 -595 498 -575Q440 -549 403 -544Q405 -553 412 -553H415Q413 -569 410 -573Q405 -576 399 -579Q396 -585 393 -591Q389 -594 384 -594Q378 -594 372 -591L371 -593Q371 -594 374 -595Q377 -596 377 -599V-600Q375 -613 361 -613Q356 -613 350 -609V-611Q351 -616 357 -619Q364 -623 368 -627Q367 -628 363 -628Q349 -624 334 -621Q354 -635 422 -675Q478 -708 507 -733Q506 -740 502 -750Q510 -769 534 -769H541Q555 -756 569 -744Q583 -733 587 -711L589 -710Q592 -711 594 -712H596Q590 -704 590 -690Q590 -682 594 -678Q591 -645 585 -603ZM184 26V33Q180 42 177 52Q177 55 178 57Q171 58 163 63Q154 69 148 69Q143 69 139 67Q132 65 123 54Q116 46 113 44Q93 33 76 25Q59 17 58 -12Q61 -24 63 -37Q59 -47 54 -58V-62Q54 -81 71 -118Q84 -155 129 -196Q130 -194 130 -191Q125 -174 120 -157Q120 -151 123 -147Q166 -168 199 -198Q232 -229 266 -258L268 -255H267Q265 -250 258 -241Q249 -229 248 -218L250 -217Q253 -217 256 -222Q261 -229 265 -229H267Q260 -214 257 -197Q257 -192 258 -189L260 -188Q264 -190 267 -192H269Q264 -177 264 -169Q264 -156 274 -150Q268 -144 268 -130Q268 -125 270 -117Q247 -101 222 -68Q212 -57 199 -42Q186 -27 183 -9V-2Q184 12 184 26ZM301 -471L274 -447H265Q242 -448 228 -458Q214 -468 201 -478Q188 -474 177 -468V-471Q179 -481 186 -488Q179 -501 167 -509Q154 -517 144 -526Q134 -525 122 -517Q114 -512 109 -510Q110 -520 116 -529Q118 -531 128 -543Q124 -553 119 -564Q99 -563 84 -555Q70 -547 55 -540Q58 -549 67 -554Q75 -559 83 -564Q96 -576 109 -588Q105 -598 100 -609H98Q94 -608 90 -607Q88 -607 86 -609Q88 -614 96 -619Q105 -624 107 -628V-629Q106 -645 94 -649Q81 -653 69 -658Q70 -663 76 -663Q77 -663 92 -658Q134 -678 144 -718Q150 -713 154 -702H157Q181 -702 202 -679Q206 -681 210 -688Q215 -697 219 -697Q218 -694 218 -688Q218 -669 229 -657Q240 -645 256 -645H261Q264 -626 276 -614Q289 -602 299 -588Q310 -568 313 -546Q315 -524 317 -504Q315 -499 310 -491Q302 -479 301 -471ZM413 33H408Q399 14 385 -2Q389 -9 389 -15Q388 -26 379 -34Q371 -41 363 -48L365 -51Q369 -48 373 -46H374Q391 -56 398 -77Q404 -98 410 -120Q399 -119 382 -103Q363 -85 351 -85Q340 -89 319 -99Q301 -104 299 -105Q289 -109 286 -117Q283 -126 283 -138Q283 -164 295 -181Q294 -196 292 -211Q292 -229 302 -240Q325 -266 374 -289V-288Q374 -283 366 -276Q357 -269 356 -265Q356 -259 366 -259H374Q391 -261 408 -271Q425 -281 439 -288V-291Q440 -297 440 -303V-306Q433 -309 427 -309Q415 -309 397 -301Q381 -294 375 -294H374Q358 -295 348 -307Q337 -319 326 -331Q328 -347 328 -354Q328 -365 326 -385V-387Q327 -411 342 -427Q356 -443 366 -462Q370 -460 374 -454Q378 -448 381 -447H387Q405 -447 434 -465Q430 -477 425 -488Q419 -500 410 -507Q424 -517 439 -532Q453 -548 474 -552Q484 -554 492 -554Q503 -554 510 -550Q520 -546 527 -530Q534 -514 543 -508Q568 -518 593 -529Q587 -521 587 -513Q589 -490 615 -488Q614 -486 608 -485Q600 -483 599 -478Q599 -466 611 -448Q598 -434 594 -417Q595 -411 595 -405Q595 -401 594 -399Q591 -388 578 -382Q574 -380 564 -380Q551 -379 545 -376Q534 -369 533 -354Q532 -340 529 -325Q542 -331 561 -345Q579 -358 588 -363V-361Q588 -356 587 -351V-348Q594 -349 602 -357Q612 -366 621 -367Q608 -350 604 -328Q604 -322 605 -319L607 -317Q610 -318 613 -319L616 -318Q611 -306 605 -293Q599 -280 598 -264Q598 -253 600 -247Q589 -245 584 -234Q580 -223 573 -213Q559 -199 542 -190Q525 -182 508 -171Q498 -131 495 -83Q492 -35 487 11Q474 21 462 32Q450 42 446 61Q440 35 413 33ZM785 89H782Q761 92 739 95Q734 95 731 94Q714 85 704 63Q700 55 697 37Q692 12 684 4Q699 -83 699 -110Q699 -118 698 -127Q667 -122 647 -108Q627 -93 605 -78Q591 -83 578 -101Q567 -116 561 -120Q558 -129 558 -136Q559 -151 565 -164Q572 -176 578 -189Q583 -202 589 -214Q595 -226 609 -229L612 -227Q609 -226 606 -218V-216Q606 -212 613 -210Q617 -209 618 -207Q655 -227 707 -238V-253L703 -254Q694 -251 685 -249H684Q673 -250 662 -264Q648 -282 643 -284Q644 -291 649 -297Q649 -301 646 -303Q643 -304 640 -306Q649 -320 671 -331Q677 -334 710 -348V-373Q703 -373 693 -368Q685 -364 680 -364H677Q663 -365 655 -388Q644 -419 640 -424Q642 -428 643 -433Q642 -435 637 -438Q632 -441 631 -445Q659 -474 707 -493Q700 -514 696 -517Q683 -513 683 -502H678Q669 -501 660 -501Q655 -501 653 -502Q647 -504 631 -521Q614 -540 611 -550V-555Q613 -572 615 -589V-592Q612 -613 608 -635Q608 -642 609 -646Q611 -652 618 -659Q626 -666 627 -669Q640 -672 653 -671Q666 -670 670 -679L672 -678L676 -679L680 -678Q689 -690 701 -690Q729 -699 787 -727Q847 -756 873 -765Q872 -761 871 -757Q891 -765 905 -775L908 -774L907 -772H906Q897 -770 891 -760Q884 -751 882 -740Q882 -731 889 -730H890Q892 -730 894 -734Q898 -741 903 -741H904Q896 -725 896 -715Q896 -708 899 -702L901 -701Q903 -701 906 -704Q910 -709 913 -709Q903 -687 903 -661Q903 -648 905 -642Q884 -617 883 -589Q875 -591 868 -591Q846 -591 826 -582Q805 -574 804 -559Q804 -554 809 -546Q815 -548 822 -554Q830 -561 835 -562Q833 -556 833 -554Q833 -548 841 -540Q852 -545 862 -550Q859 -542 856 -534Q856 -529 858 -526L861 -525Q865 -527 869 -530L870 -529Q866 -521 866 -510Q866 -505 868 -495Q865 -488 852 -444Q835 -439 819 -432Q802 -425 801 -405Q801 -397 802 -393Q816 -399 829 -406Q829 -404 834 -397Q842 -401 850 -406Q848 -400 846 -395V-393L848 -392Q855 -394 861 -397L865 -396Q863 -390 861 -385Q869 -377 869 -362Q868 -345 867 -328V-324Q848 -321 816 -298Q807 -292 800 -287Q793 -281 793 -272Q793 -266 797 -259Q872 -268 899 -297Q903 -293 904 -285Q918 -292 929 -303Q926 -291 923 -280Q923 -271 930 -267Q935 -272 945 -272Q950 -271 955 -271Q955 -268 950 -266Q946 -264 945 -262Q966 -233 966 -190Q966 -156 947 -141Q899 -154 853 -154Q819 -154 796 -146Q793 -120 793 -92Q793 -28 806 14Q803 21 798 55Q794 80 785 89Z"/>
</svg>