<svg xmlns="http://www.w3.org/2000/svg" viewBox="0 -800 1024 1024">
	<path fill="#000000" d="M918 -187V-196Q918 -208 921 -211H922Q925 -210 927 -210Q927 -192 918 -187ZM944 -617H948Q946 -607 930 -603Q928 -607 928 -608Q928 -617 944 -617ZM604 -627Q597 -622 589 -619Q587 -619 583 -621Q583 -626 588 -630Q593 -634 597 -634Q603 -634 604 -627ZM419 -123V-127Q419 -134 420 -136Q368 -128 361 -103Q367 -105 419 -123ZM401 -413H399Q386 -412 378 -407Q370 -401 361 -397V-395Q360 -384 358 -373Q358 -370 360 -364Q377 -370 397 -373Q399 -393 401 -413ZM422 -186H425Q427 -196 427 -208Q427 -213 425 -221Q405 -209 383 -201Q361 -193 358 -165Q375 -170 388 -178Q401 -185 422 -186ZM935 -542H937Q942 -542 946 -543Q943 -538 943 -533Q944 -525 945 -517Q945 -510 939 -507Q942 -500 945 -494Q931 -486 931 -474Q931 -472 933 -468Q927 -465 922 -463Q916 -460 914 -454Q919 -454 919 -447Q919 -444 918 -441Q862 -422 797 -405Q733 -387 690 -353Q686 -352 681 -352Q655 -352 640 -371Q633 -380 619 -414Q606 -438 603 -464V-469Q606 -480 611 -489Q616 -515 620 -542Q629 -574 638 -606Q639 -635 646 -661Q640 -670 620 -695Q623 -700 623 -708Q623 -714 622 -717Q625 -729 636 -737Q648 -746 658 -755Q666 -764 675 -773Q684 -782 698 -783Q705 -783 712 -780Q716 -778 738 -761Q755 -752 762 -743Q786 -716 786 -671Q786 -656 783 -643Q780 -629 764 -602Q742 -565 742 -540H744Q760 -540 788 -552Q813 -563 825 -564Q843 -572 862 -579Q881 -587 894 -600V-599Q893 -593 892 -588L893 -585Q910 -591 926 -597Q925 -595 918 -591Q909 -586 909 -578V-577Q914 -574 918 -574Q932 -577 945 -581Q947 -581 953 -579Q932 -575 929 -555Q929 -548 935 -542ZM921 101H915Q904 101 871 94Q843 89 831 80Q814 44 785 11Q757 -21 732 -52Q722 -70 708 -84Q682 -59 656 -35Q630 -10 611 23H603Q575 23 557 -4L548 -1Q543 -37 523 -78Q533 -79 538 -89Q542 -97 542 -106Q542 -118 529 -142Q518 -162 517 -171H518Q523 -170 527 -162Q532 -154 536 -147Q552 -123 558 -120Q577 -127 599 -143Q611 -152 634 -172Q630 -183 619 -189Q608 -196 600 -204Q594 -214 590 -225Q587 -236 576 -243Q577 -245 577 -250Q572 -268 566 -287Q568 -286 571 -286Q576 -286 578 -291Q580 -295 583 -298Q595 -303 604 -303Q624 -303 659 -276Q679 -258 699 -241Q720 -264 736 -294Q736 -304 730 -318Q724 -332 724 -340V-344Q727 -373 770 -373Q811 -372 828 -348Q837 -352 841 -353Q844 -351 844 -349Q844 -346 843 -344Q843 -340 846 -339Q861 -348 878 -357V-356Q878 -351 867 -341Q852 -327 852 -318Q852 -312 857 -307V-283Q857 -272 860 -267Q804 -211 774 -168Q798 -143 821 -116Q843 -89 874 -76Q881 -84 885 -109Q888 -124 891 -132Q895 -109 896 -76Q903 -78 903 -88Q903 -95 902 -102Q901 -143 900 -185Q900 -199 902 -225Q908 -196 912 -130Q915 -79 918 -60Q923 -64 923 -73Q923 -80 921 -90Q919 -116 919 -133Q919 -156 924 -169Q929 -135 930 -97Q931 -58 953 -42Q960 -9 973 17Q965 75 950 91L946 90Q940 90 933 95Q925 101 921 101ZM487 -48V-39Q490 -11 497 15Q498 20 498 24Q498 35 493 56Q489 73 489 83Q489 90 490 94Q484 97 480 105Q476 113 471 116Q423 114 406 79Q390 45 376 8Q372 7 368 7Q363 6 363 2Q363 -1 367 -1Q369 -1 378 2Q374 -6 366 -7Q358 -9 352 -13Q387 -19 397 -25Q403 -44 408 -63Q377 -57 365 -51Q343 -39 343 -13V-7Q326 6 309 32L308 29V26Q305 21 286 11Q272 3 271 -10Q270 -13 267 -14Q263 -15 262 -16Q268 -28 274 -40V-44Q273 -88 259 -119Q246 -150 231 -181Q237 -190 246 -196V-201Q248 -214 255 -221Q288 -232 302 -232H308Q324 -232 366 -253Q385 -262 425 -276Q423 -282 423 -288Q423 -294 425 -298Q398 -294 333 -267Q278 -244 259 -235Q216 -215 193 -195Q173 -174 155 -145Q145 -133 111 -123Q102 -128 91 -132Q81 -136 72 -145V-149Q72 -156 71 -163V-166Q60 -178 48 -188Q36 -198 35 -216Q35 -225 37 -231Q43 -243 55 -259Q64 -273 72 -288Q80 -298 91 -307Q102 -315 111 -324Q136 -349 154 -356Q151 -348 138 -338Q122 -326 122 -313V-310L124 -309Q126 -309 129 -313Q133 -318 137 -318Q136 -316 136 -313Q136 -304 145 -300Q170 -311 180 -311Q184 -310 187 -310Q230 -330 292 -342Q292 -355 286 -373Q271 -371 251 -352Q230 -332 214 -332Q211 -332 203 -334Q188 -344 172 -354Q170 -361 163 -369Q154 -379 154 -388V-393Q145 -404 137 -415Q130 -427 129 -442V-448Q134 -459 139 -471Q138 -478 137 -485V-488Q137 -509 150 -529Q164 -551 182 -555Q196 -556 210 -560V-593Q210 -613 217 -620Q215 -635 210 -648Q217 -648 221 -643Q224 -639 229 -636V-638Q229 -645 220 -654Q210 -665 209 -672H211Q219 -668 228 -657Q242 -643 249 -642Q249 -649 241 -655Q232 -661 232 -668Q252 -656 271 -645Q283 -649 293 -649H299Q303 -648 308 -642Q314 -635 319 -635Q322 -635 324 -636Q329 -630 337 -610Q345 -590 354 -582Q363 -585 417 -598Q417 -605 423 -674V-677Q422 -696 416 -711Q409 -727 405 -743Q397 -752 387 -761Q377 -771 375 -783Q382 -780 388 -774Q395 -769 404 -768Q408 -768 410 -769L411 -772Q408 -778 404 -784Q407 -783 413 -783Q425 -783 448 -795Q469 -806 481 -806H486Q490 -805 495 -801Q500 -796 505 -796Q509 -796 511 -797Q535 -748 561 -702V-695Q561 -675 544 -651Q532 -634 530 -623Q532 -620 533 -620Q540 -622 546 -624V-618Q546 -607 552 -605Q570 -609 577 -614Q570 -606 565 -591Q565 -587 570 -582Q573 -583 576 -587Q580 -592 584 -592L588 -591Q583 -585 583 -573Q583 -551 597 -537Q597 -534 591 -532Q594 -530 597 -526Q588 -521 588 -513Q588 -505 603 -488Q592 -479 588 -468Q492 -442 484 -441Q478 -417 471 -394Q500 -401 528 -408Q557 -415 576 -432Q576 -429 575 -427Q575 -412 602 -412Q610 -412 614 -413Q613 -410 606 -408Q599 -406 598 -402Q607 -381 607 -373Q607 -364 600 -360Q602 -352 604 -344H592L591 -341Q592 -338 592 -335V-333Q569 -332 500 -318Q508 -314 515 -299Q520 -287 523 -284Q528 -288 532 -294Q537 -299 546 -300H548Q547 -294 539 -288Q531 -281 530 -274Q538 -261 542 -248Q542 -247 540 -243Q546 -238 547 -226Q548 -215 548 -204Q534 -183 506 -180Q487 -118 487 -48Z"/>
</svg>