<svg xmlns="http://www.w3.org/2000/svg" viewBox="0 -800 1024 1024">
	<path fill="#000000" d="M906 -378H910Q908 -364 904 -356Q898 -358 898 -377Q901 -378 906 -378ZM315 7Q314 13 307 13Q294 10 290 0Q294 -2 296 -2Q307 1 315 7ZM931 -261V-266Q931 -285 940 -285Q942 -285 946 -283Q943 -277 942 -270Q940 -262 931 -261ZM255 -623V-622Q247 -621 239 -621Q235 -621 229 -623Q230 -633 243 -633Q255 -633 255 -623ZM562 -453H558Q546 -451 536 -446Q516 -445 503 -438Q495 -430 491 -419Q487 -408 482 -393Q522 -399 561 -405Q556 -420 556 -433Q556 -446 562 -453ZM924 -70H921Q910 -70 892 -60Q858 -70 848 -74Q824 -84 812 -98H811Q809 -96 806 -95H805Q797 -104 740 -176Q714 -209 687 -243Q665 -263 642 -289Q635 -301 624 -318Q614 -336 600 -338Q597 -338 592 -335Q595 -326 604 -323Q613 -319 622 -315Q621 -313 621 -309Q622 -301 623 -294V-292Q620 -280 609 -276Q598 -271 589 -263H592Q603 -263 625 -269Q644 -274 653 -275V-273Q653 -264 660 -260Q666 -256 673 -251V-249Q673 -245 672 -241V-239Q680 -231 688 -223Q687 -210 685 -198H683Q674 -195 666 -188Q664 -189 660 -189Q649 -185 637 -182L633 -183Q633 -182 636 -167Q648 -168 672 -174Q698 -181 709 -181Q725 -181 738 -171Q737 -168 737 -162Q737 -145 753 -142V-119Q734 -119 734 -108Q734 -107 736 -101Q719 -103 713 -93H702Q670 -93 635 -80Q624 -25 600 18Q577 61 553 104Q549 104 544 103Q536 103 526 108Q518 117 509 121H508Q504 121 500 116Q496 111 491 107Q482 104 472 101L471 99Q472 96 472 92V90Q469 87 456 87Q456 84 459 84Q462 83 462 81Q451 65 431 61Q412 56 394 52Q350 38 324 18Q354 27 386 39Q417 52 454 53H457Q445 43 409 35Q374 27 363 18H367Q381 18 405 26Q429 34 441 34H443Q471 32 488 13Q504 -6 521 -23V-26Q523 -41 529 -51Q526 -52 520 -52Q513 -52 470 -42Q428 -31 407 -3Q372 -9 364 -13Q359 -27 348 -34Q338 -42 329 -51V-54Q333 -68 340 -83V-85Q340 -95 339 -106Q339 -121 357 -122Q367 -118 377 -114H381Q400 -116 422 -123Q492 -134 555 -149Q555 -163 552 -165Q515 -162 475 -149Q447 -136 425 -132H422Q417 -134 405 -146Q397 -150 390 -153Q383 -155 382 -166V-170Q383 -176 387 -180Q392 -184 397 -191V-199Q397 -227 417 -231Q426 -229 434 -227Q478 -233 518 -248Q517 -252 513 -252Q502 -248 490 -245H487Q482 -246 479 -251Q476 -256 473 -258Q461 -255 449 -252L448 -255Q448 -258 456 -262Q462 -265 463 -267Q461 -267 458 -268Q448 -267 440 -261Q432 -255 425 -251V-253Q425 -258 430 -261Q435 -264 440 -267Q478 -298 503 -308H499Q482 -307 467 -300Q451 -293 437 -287Q407 -247 381 -202Q355 -158 329 -113Q328 -105 326 -98Q312 -91 311 -76Q294 -73 277 -70V-72Q276 -77 274 -82Q246 -101 201 -101H185Q190 -106 205 -108Q224 -111 228 -116Q216 -122 197 -122Q182 -122 149 -115Q116 -108 100 -108Q94 -108 84 -110Q129 -122 173 -137Q191 -143 208 -147Q224 -152 238 -165Q244 -172 249 -180Q268 -198 291 -213Q313 -229 326 -254Q298 -253 268 -242Q236 -234 211 -217Q200 -206 192 -195Q183 -185 169 -183Q152 -183 139 -179Q105 -187 98 -200Q98 -204 97 -209Q97 -212 99 -214Q73 -227 65 -233Q49 -246 49 -265Q49 -271 52 -280Q63 -316 81 -324Q91 -342 106 -355Q108 -359 110 -363Q111 -368 117 -368H120Q117 -362 117 -355Q117 -331 140 -329H143Q159 -332 175 -335Q347 -361 411 -378Q420 -396 429 -414Q384 -412 331 -371Q321 -369 317 -369Q293 -372 271 -378Q262 -388 249 -393V-404Q248 -439 234 -460Q220 -480 205 -501Q210 -501 219 -495Q227 -490 232 -490Q236 -490 240 -494Q236 -500 228 -503Q228 -507 230 -507Q235 -505 240 -504L255 -524Q258 -523 263 -523Q275 -525 286 -527H288Q294 -524 300 -522Q311 -525 321 -530H323Q334 -528 344 -527Q351 -527 355 -531Q335 -551 322 -551Q317 -551 314 -550V-553Q314 -561 308 -564Q302 -567 297 -572Q272 -568 262 -560Q264 -567 274 -573Q283 -578 290 -584Q279 -597 279 -606V-608Q274 -613 266 -617Q279 -630 281 -633Q287 -642 287 -654Q284 -667 280 -680Q280 -684 281 -686Q285 -680 289 -674Q293 -669 300 -666Q303 -667 303 -670Q303 -673 302 -676L303 -678L306 -679Q313 -675 318 -669Q326 -672 329 -679Q331 -686 336 -692Q343 -676 386 -674Q390 -676 392 -683Q394 -692 400 -692H401L403 -689Q401 -682 398 -675L399 -671Q405 -666 419 -663Q435 -659 441 -651Q455 -632 467 -604Q478 -577 487 -554Q501 -589 501 -606Q501 -625 490 -636Q493 -641 496 -647Q496 -650 490 -650H487Q483 -650 482 -651Q484 -662 494 -673Q504 -684 506 -691Q515 -692 528 -700Q539 -706 547 -708Q562 -695 579 -684Q596 -673 600 -653Q598 -640 589 -625Q578 -606 577 -591Q580 -596 583 -601Q585 -607 592 -608Q623 -668 659 -729Q670 -748 670 -761Q670 -772 665 -785Q674 -782 682 -782Q697 -782 721 -798Q738 -809 749 -813Q763 -819 776 -819Q799 -819 811 -803Q818 -788 820 -763Q822 -754 830 -736Q839 -716 842 -702Q839 -697 838 -684Q836 -667 829 -660Q819 -662 814 -662Q783 -660 759 -638Q736 -615 715 -594Q733 -600 750 -606H751Q754 -606 755 -602Q755 -599 758 -599Q772 -602 786 -605Q789 -605 795 -603Q793 -600 786 -597Q777 -593 776 -587Q776 -580 782 -580Q790 -581 797 -582H800Q789 -573 786 -554Q786 -551 791 -548Q795 -546 795 -542Q784 -534 774 -525Q764 -517 763 -498Q763 -491 764 -488Q741 -482 688 -477Q626 -471 598 -461Q620 -443 644 -427Q698 -437 752 -447Q752 -450 749 -450Q747 -449 744 -449L743 -451V-452Q757 -457 784 -459Q813 -462 830 -468H831L833 -467Q832 -464 831 -461L833 -458H836Q842 -461 853 -465H856L857 -463Q854 -458 851 -453Q863 -436 875 -419Q872 -410 867 -402Q862 -395 861 -382Q862 -378 862 -374Q845 -374 830 -361Q826 -367 820 -367Q807 -364 794 -361Q786 -363 777 -366H770Q754 -366 721 -355Q799 -279 824 -252Q830 -250 835 -249Q851 -229 875 -215Q879 -218 880 -236Q881 -253 886 -254Q890 -250 890 -241Q890 -233 889 -226Q889 -221 891 -215Q898 -232 898 -272V-298Q898 -329 901 -342Q906 -329 906 -306Q905 -277 904 -249Q904 -229 906 -220Q911 -230 912 -264Q913 -300 921 -312V-304Q923 -258 925 -213Q925 -197 924 -189Q929 -217 933 -245Q935 -220 936 -190Q936 -160 950 -143Q949 -98 924 -70Z"/>
</svg>