<svg xmlns="http://www.w3.org/2000/svg" viewBox="0 -800 1024 1024">
	<path fill="#000000" d="M51 -313Q49 -304 43 -301Q37 -297 31 -293Q28 -294 28 -299Q28 -304 30 -310Q38 -314 44 -314Q49 -314 51 -313ZM905 -690Q900 -683 880 -674Q879 -676 879 -681Q881 -696 893 -696Q901 -696 905 -690ZM313 -340Q251 -338 204 -256Q211 -253 243 -228Q280 -282 313 -340ZM684 -33Q702 -64 720 -96Q606 -91 554 -44Q559 -32 570 -17Q609 -34 660 -34Q676 -34 684 -33ZM686 -381V-386Q671 -385 663 -377Q655 -368 647 -365V-366Q648 -377 655 -384Q662 -391 667 -400Q669 -410 671 -420Q675 -427 679 -434L678 -437Q619 -434 560 -388Q564 -378 577 -366Q587 -357 591 -351Q593 -311 602 -277Q642 -281 662 -285Q686 -341 686 -381ZM295 -123V-116Q288 -116 277 -109Q265 -102 254 -102H252Q172 6 135 99Q114 85 91 73Q87 64 83 54Q79 44 73 42Q74 38 74 33Q74 22 67 3Q61 -12 61 -21Q65 -38 71 -55Q70 -65 69 -76Q69 -83 71 -86Q78 -74 79 -58Q84 -60 84 -67Q82 -78 79 -90Q69 -140 60 -219Q77 -156 93 -93V-97Q93 -117 85 -143Q93 -135 100 -114Q108 -90 116 -83Q127 -89 146 -110Q164 -130 178 -137Q166 -154 153 -170Q140 -185 139 -213V-222L168 -240Q167 -246 159 -246Q155 -246 153 -245Q148 -248 140 -257Q129 -269 119 -271Q115 -297 107 -303Q92 -301 91 -300Q92 -305 100 -311Q107 -316 108 -322Q104 -326 97 -326Q78 -322 58 -316Q75 -334 114 -361Q161 -394 178 -415Q157 -416 144 -428Q132 -439 124 -456Q110 -492 89 -517Q88 -521 88 -530Q92 -558 96 -586V-590Q95 -597 88 -606Q79 -617 79 -624Q85 -621 90 -616Q95 -612 104 -611Q101 -625 92 -633Q84 -640 77 -649Q79 -650 82 -650Q86 -650 94 -643Q99 -638 103 -638Q106 -638 110 -641Q109 -643 99 -656L103 -657Q104 -657 116 -653Q134 -664 148 -679Q165 -676 182 -671Q204 -681 255 -694Q316 -709 345 -725Q351 -728 381 -739Q400 -749 414 -751Q420 -751 425 -746Q436 -751 446 -756Q444 -752 444 -750Q444 -745 449 -743Q457 -752 470 -756Q471 -756 477 -754Q452 -740 452 -725Q452 -719 455 -713L458 -712Q463 -713 467 -714Q454 -707 454 -684Q454 -667 465 -662Q458 -636 455 -608Q455 -598 456 -593Q455 -589 449 -585Q442 -581 442 -577Q442 -574 443 -572Q385 -550 319 -509Q320 -505 320 -498Q316 -476 310 -451Q320 -452 338 -463Q363 -478 383 -478H390Q394 -483 398 -494Q404 -513 412 -517Q414 -513 414 -511Q412 -497 409 -483V-479L411 -478Q413 -481 415 -484H416Q417 -470 417 -454Q417 -439 424 -428Q417 -412 417 -408Q418 -404 418 -401Q419 -396 427 -384Q436 -371 436 -364V-362Q435 -356 390 -319Q368 -295 353 -269Q316 -212 287 -159Q295 -143 295 -123ZM890 -39H882Q857 -39 835 -22Q825 -14 800 13Q758 59 752 93Q739 98 725 102L721 101Q719 103 712 114Q709 113 704 102Q686 102 671 87Q664 80 650 58Q632 56 621 56Q560 56 560 97V98Q513 95 498 61Q490 59 484 54V53L486 51H493Q484 18 453 -1Q445 -6 436 -9Q428 -13 422 -21Q419 -28 418 -35Q416 -42 410 -47V-57Q410 -98 443 -115Q424 -116 407 -125Q383 -145 370 -168V-170Q372 -174 373 -179Q381 -235 385 -245Q392 -246 401 -255Q411 -264 419 -265H421Q426 -265 440 -259Q454 -253 462 -253H464Q468 -255 472 -257Q475 -257 478 -258Q483 -257 487 -257Q492 -257 498 -260Q487 -284 460 -287H458V-288Q458 -291 461 -292Q464 -292 467 -293Q465 -304 462 -308Q455 -312 439 -313Q424 -314 419 -316Q443 -323 467 -331Q468 -334 468 -339Q467 -351 459 -358Q452 -365 447 -374Q455 -373 468 -366Q475 -362 481 -360Q486 -361 490 -366Q495 -372 499 -372Q496 -380 482 -387Q469 -394 465 -401Q460 -414 456 -429Q452 -444 441 -454Q450 -514 460 -539Q477 -580 511 -592Q510 -582 508 -573Q514 -572 526 -572Q552 -572 597 -587Q597 -589 587 -616L586 -620L587 -623Q579 -636 569 -645Q560 -655 558 -671V-675Q559 -691 566 -702Q572 -713 579 -725Q587 -740 594 -756Q617 -785 655 -785Q682 -785 696 -768Q727 -728 729 -705Q730 -701 730 -695Q726 -662 718 -630Q732 -633 755 -642Q779 -651 794 -653L797 -652Q794 -651 791 -646V-644Q801 -645 822 -656Q848 -669 867 -670Q853 -664 836 -656Q819 -647 817 -632Q817 -625 823 -616Q841 -620 858 -624Q839 -616 837 -595Q837 -587 843 -581Q844 -581 856 -586L857 -584Q854 -577 847 -572Q844 -566 844 -558Q845 -550 845 -542Q845 -535 844 -532Q843 -527 835 -516Q827 -506 827 -498L828 -494Q818 -494 808 -491Q794 -487 793 -479Q795 -470 811 -464Q813 -464 817 -466V-460H818Q822 -463 832 -467L835 -466Q824 -456 824 -435Q824 -409 837 -375Q797 -358 772 -300H780Q833 -300 856 -316Q864 -316 865 -313Q890 -322 915 -332H917L918 -329V-325Q925 -329 931 -335Q937 -341 948 -343Q946 -339 940 -331Q933 -323 933 -316V-314Q936 -302 953 -302Q963 -302 969 -305L971 -304Q969 -300 966 -297V-296Q974 -265 977 -232Q977 -210 963 -197Q961 -198 956 -198Q949 -198 933 -190Q917 -199 894 -202H893Q890 -202 890 -206Q824 -214 754 -214Q533 -214 468 -130Q473 -125 479 -125Q491 -128 499 -136Q518 -143 548 -149Q630 -164 708 -181H709Q712 -179 715 -178Q774 -202 814 -202Q824 -202 839 -188Q850 -178 855 -176L857 -175Q862 -177 866 -179H868L870 -176Q869 -172 867 -168L868 -165Q875 -168 884 -174Q893 -180 905 -181Q903 -176 894 -169Q883 -160 881 -152Q883 -149 884 -149Q885 -149 894 -158Q892 -150 892 -147Q892 -136 900 -116Q912 -87 912 -70Q912 -61 911 -56Q907 -53 890 -39Z"/>
</svg>