<svg xmlns="http://www.w3.org/2000/svg" viewBox="0 -800 1024 1024">
	<path fill="#000000" d="M876 -360V-353Q876 -339 868 -338Q865 -341 865 -346Q865 -352 868 -360ZM105 -492Q102 -475 92 -471Q86 -474 86 -480Q87 -493 99 -495Q102 -495 105 -492ZM628 -404H634Q652 -410 662 -436Q672 -462 678 -482Q704 -555 709 -573Q666 -569 638 -555Q638 -545 643 -529Q648 -513 648 -506Q648 -501 647 -499Q639 -485 622 -471Q608 -458 596 -447Q583 -435 575 -420Q599 -408 628 -404ZM661 -89H675Q685 -104 695 -120Q704 -137 717 -149Q707 -152 696 -152Q662 -148 638 -140H609Q571 -133 533 -126Q528 -122 516 -118Q499 -112 495 -105Q495 -94 502 -71Q540 -76 577 -82Q615 -88 661 -89ZM259 -266H255Q219 -266 192 -289Q185 -286 178 -284L177 -286Q179 -291 181 -297Q181 -298 179 -302Q170 -302 162 -293Q154 -285 148 -284Q163 -303 166 -312Q134 -346 107 -386L110 -385Q115 -388 120 -391L124 -390Q125 -399 129 -405Q133 -411 136 -417Q142 -417 148 -419Q163 -434 185 -434Q199 -434 209 -427Q223 -410 237 -393Q263 -370 273 -355Q288 -333 288 -306Q288 -300 286 -282Q282 -279 275 -276Q262 -270 259 -266ZM282 -465H278Q260 -467 229 -485Q201 -502 184 -504Q175 -499 165 -495Q169 -505 173 -515Q173 -519 169 -521Q165 -523 165 -525Q153 -523 134 -510Q120 -500 111 -498Q113 -508 131 -523Q146 -535 150 -543Q149 -549 141 -555Q134 -560 133 -565L131 -566Q128 -565 124 -564H123Q125 -570 126 -577Q126 -580 124 -582Q121 -582 118 -583Q110 -583 95 -576Q82 -570 77 -570H76Q80 -576 95 -586Q107 -594 113 -602Q107 -634 101 -666H102Q106 -666 111 -672Q114 -675 117 -677Q117 -685 108 -692Q99 -699 98 -708Q106 -704 115 -704Q126 -704 147 -711Q169 -718 179 -718H182Q193 -717 219 -700Q228 -705 232 -716Q236 -726 242 -735Q244 -733 244 -726Q243 -712 241 -699Q241 -691 245 -687Q256 -680 266 -674Q268 -675 280 -684V-677Q280 -640 305 -636Q328 -599 343 -554V-551Q343 -519 327 -493Q310 -465 282 -465ZM305 -254H308Q307 -247 295 -238Q282 -228 282 -219Q282 -215 283 -212L287 -211Q293 -214 302 -218Q296 -205 293 -190Q293 -188 295 -180L297 -179Q300 -179 302 -180L304 -179Q300 -174 300 -163Q300 -153 304 -141Q299 -133 299 -120Q299 -106 305 -102Q276 -79 246 -57Q216 -35 192 -6Q180 49 141 49Q134 49 130 48Q123 47 109 36Q100 29 93 25Q91 24 73 17Q61 12 56 7Q44 -6 44 -29Q44 -59 62 -90Q61 -95 61 -105Q61 -128 74 -147Q79 -154 102 -177Q111 -190 124 -194Q116 -182 113 -167Q113 -159 123 -156Q124 -155 128 -155Q151 -161 176 -179Q273 -230 305 -254ZM908 -258H909Q913 -258 922 -266Q932 -275 938 -275Q941 -275 945 -273Q938 -266 929 -258Q919 -250 918 -238Q918 -233 921 -227Q926 -224 932 -224Q931 -220 931 -213Q936 -175 940 -138Q940 -117 929 -102Q885 -98 844 -63Q817 -39 790 6Q780 23 748 84Q745 83 740 83Q737 83 729 86Q725 81 716 80Q707 79 702 78Q697 70 688 64Q680 58 674 52Q668 38 658 31Q653 29 639 29Q621 29 614 30Q567 33 507 59Q503 65 499 70Q494 71 489 71Q457 69 438 49Q418 28 401 7Q403 3 404 -2V-3Q388 -44 364 -78Q340 -111 317 -146Q318 -150 318 -159Q317 -178 315 -198Q316 -202 316 -207Q318 -217 331 -228Q343 -239 345 -249Q354 -246 362 -246Q384 -248 406 -251H412Q417 -248 423 -241Q433 -230 440 -227Q512 -235 540 -240Q553 -244 566 -248Q625 -253 686 -264Q684 -270 670 -281Q661 -288 656 -294Q649 -306 640 -315Q634 -318 628 -319Q621 -321 617 -327Q619 -330 621 -330Q626 -329 630 -329L634 -330Q629 -347 613 -355Q598 -362 584 -372Q587 -373 592 -373Q610 -369 627 -366Q632 -366 635 -368Q633 -377 625 -383Q623 -384 607 -393Q589 -406 571 -410H569Q561 -407 552 -395Q543 -382 537 -374Q474 -294 458 -246H454Q446 -243 437 -240Q430 -246 413 -253Q392 -262 385 -270Q377 -280 367 -307Q359 -330 351 -341V-343Q353 -349 358 -354Q354 -370 340 -397Q327 -424 322 -440Q331 -436 345 -412Q358 -389 369 -383Q435 -412 491 -478Q485 -474 476 -474Q464 -475 455 -482Q445 -490 434 -498Q423 -504 412 -509Q401 -513 395 -522Q385 -535 385 -562Q385 -569 387 -579Q389 -584 398 -596Q408 -609 410 -617V-634Q413 -654 426 -662Q439 -670 455 -678Q466 -685 477 -695Q487 -704 502 -709V-708Q502 -705 495 -698Q484 -687 483 -681Q486 -674 497 -674Q512 -674 514 -683Q519 -680 521 -680Q526 -681 530 -682L534 -681Q547 -693 575 -698Q601 -703 613 -711H615Q619 -709 622 -708Q657 -717 695 -727Q734 -738 766 -753Q795 -770 805 -770Q811 -770 814 -769Q816 -768 831 -753Q849 -761 852 -761Q845 -755 845 -746Q845 -733 856 -718Q867 -727 884 -731Q865 -712 865 -699Q865 -687 878 -677Q886 -679 893 -682L897 -681L900 -680Q899 -677 897 -674Q903 -674 912 -682Q922 -691 927 -692V-690Q927 -685 917 -672Q906 -658 906 -649Q906 -644 915 -633Q919 -633 921 -639Q924 -646 929 -646H932V-645Q932 -641 928 -634Q923 -625 923 -620V-618Q926 -606 929 -595V-593Q926 -576 923 -559Q923 -552 927 -545Q917 -535 894 -527Q876 -520 869 -515Q853 -503 838 -477Q826 -455 818 -427Q811 -399 801 -372Q790 -346 779 -321Q768 -284 757 -273Q790 -276 822 -279H823Q825 -279 825 -282Q825 -285 828 -285H830Q836 -285 841 -286L843 -285Q850 -295 854 -309Q858 -324 868 -327Q864 -310 860 -293Q860 -289 861 -287Q863 -279 878 -273Q889 -268 893 -264Q902 -266 911 -269Q910 -264 908 -260Z"/>
</svg>