<svg xmlns="http://www.w3.org/2000/svg" viewBox="0 -800 1024 1024">
	<path fill="#000000" d="M736 -193Q697 -179 664 -150Q679 -137 692 -117Q699 -118 704 -127Q709 -135 714 -143Q720 -147 725 -152Q734 -171 736 -193ZM361 -18Q367 -16 367 -9V4Q371 25 374 46V51Q374 57 366 66Q359 73 359 78Q344 79 319 90Q305 82 286 53Q267 25 252 16Q250 3 244 -8Q260 -36 265 -77Q269 -119 275 -159Q241 -120 207 -76Q173 -31 156 30Q152 31 147 31Q133 31 118 18Q106 8 99 8Q97 9 94 9L93 6Q94 3 95 -1V-3Q82 -11 82 -31Q83 -43 84 -56Q84 -60 83 -65Q81 -72 74 -79Q66 -86 66 -93Q74 -91 81 -89Q85 -89 87 -91Q86 -110 68 -129Q54 -144 51 -155Q66 -146 80 -135Q93 -124 112 -123H116Q135 -123 157 -142Q166 -150 189 -177Q216 -207 242 -237Q268 -267 286 -305Q211 -272 180 -234Q158 -207 142 -207Q129 -207 115 -218Q96 -234 87 -264Q51 -264 51 -316Q51 -342 59 -363Q56 -375 56 -386Q56 -413 75 -436Q83 -446 112 -470Q148 -499 162 -507Q159 -496 145 -485Q128 -471 128 -456Q136 -461 141 -468Q146 -476 159 -477L195 -467Q196 -473 205 -476Q208 -477 218 -480Q256 -502 295 -507Q300 -520 300 -540Q300 -576 283 -581Q282 -593 274 -608Q265 -623 264 -632V-638Q264 -663 285 -686Q305 -708 325 -711Q329 -712 337 -712Q353 -712 361 -705Q371 -696 376 -681Q381 -667 387 -650Q399 -619 400 -612V-606Q397 -577 391 -549L395 -550Q402 -550 414 -545Q423 -553 434 -559Q435 -557 435 -554Q432 -544 428 -534Q428 -531 431 -527L433 -526Q437 -528 440 -530Q442 -529 444 -528Q435 -514 435 -500Q435 -491 441 -485L442 -484Q445 -486 448 -489L449 -488Q444 -473 444 -461Q444 -457 446 -447Q441 -437 435 -410Q427 -372 414 -362Q384 -359 368 -338Q371 -328 382 -316Q392 -304 398 -297Q416 -320 421 -324Q422 -322 422 -319Q420 -308 418 -297Q418 -293 419 -291H420Q424 -294 427 -297H428Q435 -279 441 -261Q449 -232 449 -189V-178Q445 -180 443 -180Q429 -179 425 -160Q415 -172 397 -181Q380 -189 365 -197Q362 -94 361 -72ZM712 78Q709 89 694 89H685Q677 90 661 90Q625 90 608 78H606Q604 79 601 79Q588 70 575 58Q570 39 565 20V6Q565 -17 582 -56Q592 -80 595 -94Q600 -98 608 -116V-132Q608 -134 616 -144Q605 -156 595 -170Q584 -185 583 -207Q583 -217 586 -229Q595 -260 612 -269L616 -270Q629 -266 641 -262Q644 -261 652 -261Q682 -263 705 -269L730 -272Q732 -288 744 -297Q756 -305 767 -313Q772 -337 796 -337Q811 -337 820 -328Q826 -331 831 -334V-332Q830 -328 829 -325L831 -322L835 -321Q842 -321 851 -332Q858 -341 864 -343Q864 -338 858 -331Q849 -320 849 -310H850Q852 -310 855 -315Q859 -322 864 -322Q861 -314 861 -308Q862 -288 878 -283Q878 -276 885 -263Q892 -250 892 -242V-241Q892 -230 886 -223Q881 -216 875 -209Q859 -209 847 -197Q837 -187 829 -170Q813 -138 801 -104Q796 -85 790 -67Q788 -62 781 -56Q772 -48 770 -40H764Q754 -40 739 -47Q725 -54 715 -55Q704 -84 692 -91Q692 -95 696 -95Q700 -94 703 -94Q700 -98 687 -102Q654 -62 652 -10Q665 -3 689 -3Q702 -3 714 -4Q721 -4 735 -2H740Q750 -2 780 -8Q794 -9 806 -9Q819 -10 828 -18Q842 -35 845 -66Q847 -63 849 -46Q851 -28 856 -24Q857 -49 857 -74Q857 -104 856 -134Q862 -120 864 -76Q866 -38 871 -22Q876 -32 876 -51Q876 -65 875 -80Q875 -89 876 -94Q880 -85 884 -65Q889 -38 894 -30Q911 -23 922 -5Q933 14 947 28Q939 36 939 48Q939 53 940 56Q935 59 926 73Q914 93 904 95H899Q885 93 871 90H854Q825 91 795 91Q763 91 745 86ZM537 -57V-56Q532 -40 526 -24Q522 -2 517 19Q507 22 497 31Q488 39 477 42Q472 55 466 72Q459 90 445 93H444Q425 88 411 69Q404 59 396 35Q389 12 383 6V-9Q388 -26 415 -80Q425 -98 431 -96Q442 -105 442 -122Q442 -127 440 -135Q451 -134 452 -122Q453 -110 453 -98Q483 -200 500 -386Q501 -395 497 -415Q494 -424 479 -442Q454 -472 454 -490V-498Q454 -527 460 -537Q463 -544 481 -546Q490 -554 501 -561Q511 -568 517 -577L520 -578L523 -576Q526 -583 533 -585L561 -606L560 -610Q564 -626 573 -637Q585 -660 589 -666Q594 -674 602 -679Q610 -685 612 -696Q610 -700 603 -706Q597 -711 595 -715Q609 -717 634 -733Q668 -754 686 -754Q695 -754 704 -751Q715 -747 731 -729Q748 -710 756 -706V-704Q758 -697 760 -691Q777 -683 794 -675Q789 -667 789 -650V-631Q788 -614 782 -602Q775 -590 771 -577Q650 -560 590 -484Q590 -473 591 -464Q593 -455 603 -454H605Q611 -454 617 -458Q623 -462 627 -462H629L696 -476Q706 -491 746 -500Q775 -506 786 -513Q789 -512 792 -512Q798 -513 804 -515Q808 -515 810 -514Q822 -526 827 -542Q830 -531 832 -522Q833 -513 839 -511H841Q846 -512 857 -516Q867 -521 879 -522Q883 -522 889 -520Q881 -516 872 -514Q862 -511 861 -500Q862 -496 868 -496Q877 -497 886 -498H888Q880 -495 875 -491Q877 -477 879 -471Q882 -462 889 -462H891Q885 -456 885 -441Q885 -428 890 -411Q884 -404 877 -398Q871 -391 870 -379Q869 -380 864 -380Q845 -376 832 -371Q828 -373 824 -375Q791 -371 755 -359Q665 -344 602 -294L584 -299Q577 -289 573 -265Q570 -241 568 -226Q578 -156 547 -75ZM889 -356Q883 -353 869 -349Q872 -360 882 -362Q888 -362 889 -356Z"/>
</svg>