<svg xmlns="http://www.w3.org/2000/svg" viewBox="0 -800 1024 1024">
	<path fill="#000000" d="M835 -527V-532Q835 -546 845 -546Q847 -542 848 -538Q843 -530 835 -527ZM522 -214V-211Q520 -202 518 -193Q511 -196 511 -208Q511 -213 512 -216Q520 -216 522 -214ZM590 -298Q585 -296 573 -287Q559 -276 549 -276Q542 -276 531 -282Q515 -293 502 -334Q490 -373 490 -406Q490 -416 491 -420Q537 -455 549 -472Q550 -462 559 -455Q561 -456 565 -456Q580 -455 584 -435Q588 -402 592 -376L594 -375Q598 -376 602 -378L605 -377Q605 -363 597 -342Q589 -320 589 -308Q589 -302 590 -298ZM937 -279V-276Q934 -277 930 -277Q925 -276 918 -271Q892 -276 864 -299Q856 -306 820 -343Q779 -385 771 -397Q749 -429 749 -472V-477Q754 -487 764 -491Q772 -494 790 -494Q794 -495 798 -501Q802 -506 805 -508Q812 -503 817 -496Q826 -507 838 -517Q833 -511 833 -501Q833 -491 839 -482Q845 -473 854 -472Q865 -479 881 -498Q902 -523 918 -529Q910 -518 895 -498Q880 -479 878 -460Q878 -442 898 -434Q901 -434 904 -438Q907 -442 911 -442H912L914 -441Q913 -436 911 -431L912 -427Q916 -420 923 -420Q941 -425 959 -431Q952 -425 943 -415Q934 -405 933 -394Q933 -384 944 -379H947Q948 -379 960 -382Q959 -378 951 -373Q946 -370 944 -367Q941 -337 941 -335Q941 -318 948 -310Q940 -297 937 -279ZM848 -175V-173Q845 -173 841 -174Q834 -174 830 -170Q827 -170 826 -165Q825 -161 824 -160Q773 -134 744 -107Q720 -83 701 -55Q682 -28 662 -1Q640 25 615 47Q590 69 576 99Q572 98 565 98Q549 98 535 106Q524 76 513 46Q508 30 492 4Q488 2 483 0H481Q492 -21 494 -50Q495 -80 501 -107Q503 -94 510 -81Q514 -97 514 -122V-141Q514 -172 518 -184Q523 -172 525 -144Q528 -108 535 -97Q536 -105 536 -121Q535 -154 534 -187Q534 -211 538 -230Q543 -166 553 -109Q558 -122 559 -139Q562 -130 566 -122Q569 -113 577 -109Q612 -127 648 -156Q662 -167 709 -211Q706 -214 701 -214Q689 -211 677 -208Q659 -221 642 -236V-241Q642 -263 627 -267Q632 -272 632 -276Q632 -283 623 -291Q614 -300 606 -301Q639 -326 641 -367Q642 -374 642 -381Q641 -402 640 -423Q641 -431 641 -440Q646 -510 646 -511Q646 -527 645 -535Q638 -646 612 -673Q604 -681 581 -688Q582 -699 590 -706Q593 -708 606 -715Q605 -717 604 -719Q603 -722 600 -722H598Q614 -738 631 -763Q648 -788 672 -791H673Q686 -790 701 -773Q706 -768 722 -744Q727 -738 768 -691Q768 -688 767 -686Q771 -669 775 -652Q723 -592 723 -427Q723 -405 725 -359Q727 -339 731 -320Q738 -303 741 -286Q741 -279 734 -265Q728 -253 728 -246Q728 -244 730 -238Q756 -257 765 -301Q779 -322 810 -322Q838 -322 849 -302V-300Q849 -285 858 -259Q866 -236 866 -224V-219Q866 -211 857 -198Q848 -184 848 -175ZM353 19H349Q321 19 305 -28Q300 -32 294 -35Q279 -78 279 -109Q279 -117 281 -133Q282 -144 292 -162Q305 -186 305 -200Q305 -204 303 -214Q219 -159 161 -22Q155 -20 152 -20Q144 -20 133 -28Q121 -37 111 -37H108Q104 -45 101 -54Q98 -64 88 -67V-74Q88 -94 80 -112Q75 -122 63 -142Q70 -140 78 -132Q86 -123 93 -122Q88 -131 73 -146Q54 -166 48 -176Q80 -160 111 -142Q151 -170 220 -241Q234 -254 248 -266Q262 -278 273 -296Q182 -279 131 -233Q103 -241 83 -258Q63 -275 41 -290Q39 -294 39 -301Q39 -308 45 -324Q50 -337 50 -344V-346Q49 -356 44 -362Q39 -368 37 -374Q36 -378 36 -386Q36 -413 63 -436Q72 -444 106 -468Q123 -481 137 -492Q150 -503 173 -505Q160 -493 146 -484Q131 -475 128 -454Q130 -451 131 -449Q159 -453 227 -470Q278 -483 302 -487Q301 -498 290 -514Q279 -529 279 -538V-539Q279 -549 291 -569Q300 -583 302 -592Q301 -598 291 -612H292Q304 -607 316 -598Q321 -599 321 -603Q320 -608 318 -613Q330 -615 335 -615Q381 -615 406 -568Q411 -566 416 -565H418V-557Q418 -533 429 -527Q427 -520 424 -514Q453 -517 482 -521Q471 -515 471 -507Q471 -500 481 -483Q492 -466 492 -458Q490 -448 488 -439Q488 -436 489 -434Q478 -415 478 -409V-407Q481 -398 483 -389L482 -385L485 -383H489V-381Q488 -377 487 -373V-370Q431 -358 391 -339Q387 -320 383 -301Q383 -290 391 -285H392Q396 -285 403 -293Q410 -301 414 -302Q413 -289 411 -276Q419 -277 431 -288Q448 -303 460 -304Q451 -297 440 -287Q428 -276 427 -264Q427 -257 433 -250Q444 -256 458 -259Q460 -259 466 -257Q457 -252 448 -247Q439 -243 436 -232V-227Q437 -215 438 -204V-199Q430 -183 414 -173H413Q409 -174 405 -176H403Q399 -174 394 -172Q389 -173 383 -175Q381 -175 379 -173Q373 -159 373 -141Q373 -126 380 -86Q386 -52 386 -33Q386 -23 385 -19Q379 13 353 19Z"/>
</svg>