<svg xmlns="http://www.w3.org/2000/svg" viewBox="0 -800 1024 1024">
	<path fill="#000000" d="M510 -600H508Q510 -615 526 -615Q520 -600 510 -600ZM881 -564H880Q877 -564 876 -566Q875 -568 872 -570Q874 -574 877 -579Q879 -585 884 -586L888 -585Q885 -574 881 -564ZM145 -9V-11Q146 -13 146 -16V-18H150Q163 -18 166 -9L164 -6L160 -5Q153 -7 145 -9ZM625 -278Q623 -281 623 -288Q625 -299 626 -311Q626 -316 623 -321Q602 -311 594 -304Q581 -292 581 -274Q581 -266 582 -261Q605 -267 625 -278ZM723 -138L744 -221H740Q731 -218 721 -216H718Q705 -206 705 -170Q705 -153 706 -146Q715 -139 723 -138ZM622 -126V-134Q623 -149 623 -164Q623 -173 622 -177Q619 -176 616 -176Q605 -177 597 -183Q590 -190 583 -197V-179Q583 -156 589 -149Q587 -146 587 -141Q589 -131 591 -122Q595 -121 598 -121Q602 -121 622 -126ZM727 -316H730L729 -313L730 -309Q742 -311 762 -327Q765 -325 767 -321Q761 -317 754 -312Q748 -307 747 -297L748 -296Q753 -298 757 -301L759 -300Q753 -288 753 -282Q753 -274 759 -273Q769 -333 782 -388Q738 -376 717 -357Q715 -340 713 -324Q713 -315 717 -310Q723 -316 727 -316ZM737 48H736Q734 48 731 52Q727 57 725 57H724Q725 53 725 47Q724 35 720 26Q715 17 712 9Q708 -15 697 -36Q671 -32 643 -27Q614 -22 604 -3Q604 13 597 28Q585 31 577 31Q556 30 544 17Q532 4 524 -15Q511 -51 488 -71Q494 -84 494 -101Q490 -144 479 -189Q471 -230 456 -263Q448 -280 438 -296Q428 -313 425 -327Q424 -332 424 -342Q424 -374 446 -404Q400 -396 374 -372V-365Q374 -357 371 -327Q381 -328 393 -337Q403 -345 410 -347L411 -345Q411 -343 406 -337Q400 -330 400 -325V-324L403 -322Q410 -325 416 -329Q415 -319 413 -309L416 -307H422Q418 -302 418 -296Q421 -283 426 -273V-271Q425 -261 424 -251Q424 -244 426 -241Q385 -212 366 -189Q365 -175 365 -146Q365 -54 386 15Q379 30 371 43Q362 56 360 76Q354 79 347 79Q334 78 320 76H315Q309 72 304 67Q299 61 290 61Q251 22 208 7Q200 5 191 3Q182 1 178 -8Q214 5 252 9Q234 -3 187 -21Q145 -37 129 -47H133Q159 -46 186 -34Q212 -22 240 -12Q239 -22 224 -27Q202 -34 198 -38Q201 -39 206 -39Q219 -38 231 -37Q243 -37 252 -41Q263 -67 267 -113H264Q254 -113 243 -89Q232 -66 219 -66Q216 -66 210 -68Q193 -78 178 -92Q171 -97 162 -104Q153 -110 149 -119Q147 -125 147 -130Q147 -154 164 -169Q166 -215 194 -235V-234Q192 -227 189 -220Q190 -218 191 -216Q205 -222 229 -237Q262 -258 279 -264V-324H276Q267 -324 261 -319Q254 -314 246 -310Q235 -305 222 -301Q209 -297 198 -287Q196 -285 175 -254Q161 -234 145 -232Q142 -231 137 -231Q119 -231 102 -243Q95 -248 88 -263Q84 -272 80 -276Q64 -289 49 -294Q33 -300 29 -318V-325Q34 -355 40 -385Q39 -395 37 -405V-408Q39 -432 54 -444Q69 -456 84 -468Q99 -482 116 -499Q133 -516 155 -525Q146 -513 134 -501Q121 -490 120 -470Q121 -466 121 -463Q156 -472 211 -493Q257 -511 278 -517Q280 -524 280 -536Q280 -555 263 -586Q249 -612 247 -629V-634Q247 -658 265 -683Q275 -696 292 -709Q311 -724 324 -726Q329 -726 333 -727Q346 -727 361 -717Q365 -703 385 -676Q414 -637 414 -610Q414 -605 413 -601Q412 -593 406 -582Q398 -568 397 -560Q421 -567 441 -589L443 -587Q440 -583 437 -574L438 -570Q450 -570 470 -582Q490 -594 502 -595Q491 -583 475 -572Q460 -562 457 -545Q465 -545 478 -551Q491 -557 497 -557H499Q490 -548 478 -541Q466 -535 465 -517L469 -516Q476 -519 482 -523H485V-521Q485 -518 479 -509Q471 -497 471 -490Q471 -485 473 -483L475 -482Q478 -482 480 -483L482 -482Q474 -473 469 -451Q464 -429 457 -420Q461 -422 464 -424L466 -422Q479 -441 504 -441H508Q518 -439 533 -418Q544 -402 552 -398Q618 -415 623 -436Q624 -440 624 -448Q622 -476 619 -504Q615 -572 607 -607Q595 -659 567 -678Q574 -680 578 -685Q582 -690 585 -695V-697Q584 -703 582 -710V-712Q611 -724 632 -743Q653 -763 676 -781Q692 -777 708 -771Q720 -749 739 -724Q757 -699 759 -671Q759 -662 758 -658Q756 -650 745 -626Q737 -609 733 -594Q721 -539 721 -484V-467Q735 -475 771 -487Q804 -498 820 -507Q829 -513 837 -519Q844 -525 857 -526H859Q868 -537 874 -552Q881 -546 881 -535Q888 -529 897 -528Q901 -530 908 -537Q917 -546 924 -548L926 -547Q923 -541 920 -535L921 -532Q928 -536 935 -546Q943 -557 953 -558H956Q954 -551 944 -542Q931 -530 931 -520Q931 -517 933 -511Q937 -513 941 -516H943V-500Q945 -493 956 -482Q966 -473 968 -467Q972 -458 973 -439Q975 -414 982 -404Q971 -393 968 -373Q952 -368 943 -353Q948 -351 952 -350Q908 -314 890 -244Q840 -52 827 25Q821 22 817 22Q807 22 795 41Q784 59 776 61Q765 58 750 57Q744 53 737 48Z"/>
</svg>