<svg xmlns="http://www.w3.org/2000/svg" viewBox="0 -800 1024 1024">
	<path fill="#000000" d="M930 -428H934Q934 -414 915 -410Q919 -428 930 -428ZM435 -575V-572Q433 -556 414 -556Q418 -576 430 -576Q433 -576 435 -575ZM940 -218Q936 -202 922 -188Q923 -206 924 -209Q926 -219 935 -219Q938 -218 940 -218ZM577 -298V-290Q600 -290 625 -299Q617 -323 604 -341Q577 -338 577 -298ZM565 -453L579 -428Q608 -436 637 -443Q665 -449 685 -467Q694 -476 714 -516Q723 -541 723 -554Q723 -560 722 -563Q610 -511 565 -453ZM438 -96V-92Q438 -69 422 -50Q405 -31 382 -27Q353 -23 320 -23Q287 -23 260 -13Q253 -21 238 -21Q212 -17 185 -13H182Q142 -13 114 -36Q96 -50 69 -89Q71 -99 74 -102Q67 -129 67 -161Q71 -229 80 -293Q64 -296 61 -307Q57 -317 54 -327Q49 -336 42 -343Q34 -351 32 -363V-366Q34 -378 35 -390Q35 -415 38 -434Q42 -438 44 -446Q43 -455 38 -461Q32 -467 29 -473Q57 -469 80 -459Q120 -471 185 -487Q178 -550 167 -588Q150 -585 142 -572Q135 -559 128 -544Q129 -553 139 -574Q145 -587 148 -596Q140 -595 130 -570Q129 -573 129 -579Q129 -591 139 -611Q147 -628 149 -636Q151 -648 152 -660Q156 -672 170 -685Q181 -696 185 -702Q191 -712 196 -722Q206 -732 231 -732Q254 -732 266 -723Q277 -714 281 -698Q286 -681 291 -665Q302 -645 309 -623Q279 -565 279 -532Q279 -525 281 -513Q338 -529 405 -554L406 -552Q402 -547 398 -540L399 -536L401 -535Q402 -535 406 -539Q411 -544 416 -544Q405 -537 405 -525Q405 -519 407 -516Q424 -519 441 -522Q446 -522 449 -521Q445 -516 434 -513Q420 -509 417 -503V-502Q417 -497 423 -493Q427 -490 428 -487H426Q418 -487 418 -480L419 -476Q429 -470 438 -465Q421 -457 421 -440Q421 -432 426 -426Q419 -424 417 -415Q417 -414 414 -396Q373 -384 299 -369Q207 -350 170 -338Q186 -325 186 -300Q186 -280 172 -237Q161 -204 160 -191V-184Q160 -145 201 -142H211Q268 -142 339 -155Q348 -168 354 -205Q358 -233 362 -243Q364 -233 364 -227Q362 -204 360 -181Q360 -170 362 -165Q366 -184 368 -229Q370 -288 379 -309V-290Q379 -252 378 -214Q378 -186 380 -173Q388 -187 390 -229Q391 -257 395 -271Q402 -254 405 -218Q407 -191 411 -177Q414 -163 424 -140Q437 -110 438 -96ZM946 9V14Q945 30 943 45Q943 52 946 61Q935 88 906 102Q861 92 833 65Q804 39 780 4Q745 -44 718 -102Q690 -161 666 -215Q593 -208 577 -159L573 -160Q565 -158 564 -145Q564 -141 565 -139Q622 -175 630 -182Q636 -179 642 -179Q651 -179 670 -191V-190Q670 -187 665 -182Q658 -174 658 -171L659 -168H660Q664 -170 667 -173L670 -171Q666 -163 661 -155V-152Q661 -149 664 -148Q667 -147 669 -146L661 -137Q661 -133 665 -131Q669 -129 669 -128Q666 -122 666 -117Q668 -107 669 -98Q667 -96 649 -84Q637 -76 635 -65H634Q624 -65 601 -45Q592 -37 578 -21Q561 -1 553 4Q550 17 546 30H542Q537 30 528 37Q511 34 493 31Q489 24 484 18Q479 12 479 1V-1Q464 -15 460 -37Q456 -59 451 -86Q454 -86 457 -82Q459 -79 462 -79H463Q459 -108 454 -137Q462 -130 467 -117Q474 -108 481 -99Q488 -99 490 -125Q498 -199 498 -240Q498 -279 493 -305Q495 -311 497 -315Q495 -323 491 -352Q486 -389 478 -406Q484 -448 484 -450V-455Q491 -452 496 -447Q502 -452 507 -458Q511 -464 521 -465H524Q519 -474 508 -478Q502 -486 500 -492Q482 -497 481 -521Q476 -532 470 -544Q465 -562 465 -575Q465 -622 514 -662Q524 -670 536 -685Q549 -702 561 -707Q555 -696 548 -688Q541 -679 540 -665V-659Q559 -660 575 -669Q592 -678 610 -688Q675 -720 749 -749Q782 -766 815 -783Q817 -784 820 -784Q837 -780 851 -771Q854 -760 862 -752Q869 -754 876 -757Q874 -753 874 -747Q874 -739 879 -731Q891 -739 904 -747Q916 -756 934 -760Q925 -752 914 -742Q902 -731 901 -718Q901 -710 906 -704Q914 -709 922 -711Q925 -711 927 -710Q914 -701 914 -686Q914 -677 919 -661Q925 -641 925 -633V-630Q924 -619 918 -607Q910 -593 910 -585Q879 -575 858 -541Q857 -540 826 -473Q809 -436 804 -410Q795 -369 774 -353Q770 -359 757 -359Q752 -359 746 -357Q742 -362 738 -367Q733 -373 724 -373Q721 -372 718 -372Q715 -372 711 -379Q709 -383 706 -384Q695 -380 684 -377Q691 -344 705 -318Q750 -336 797 -353Q844 -371 878 -401Q880 -401 893 -393Q905 -399 912 -401Q906 -393 906 -387Q911 -382 917 -382Q933 -387 952 -392Q941 -391 933 -380Q926 -371 926 -360Q926 -346 940 -346Q946 -346 949 -347V-346Q949 -344 945 -340Q939 -333 938 -327Q941 -318 944 -309Q922 -296 916 -277Q835 -273 747 -239Q770 -182 830 -111Q838 -101 848 -89Q857 -77 871 -76H873Q879 -87 882 -99Q886 -112 894 -120Q890 -104 890 -91Q890 -77 895 -62Q901 -74 906 -107Q912 -148 924 -161Q912 -107 910 -44Q916 -58 922 -92Q927 -65 932 -39Q939 -15 946 9Z"/>
</svg>