<svg xmlns="http://www.w3.org/2000/svg" viewBox="0 -800 1024 1024">
	<path fill="#000000" d="M560 -54H556Q546 -55 539 -60V-62Q541 -66 542 -71Q547 -69 553 -67Q559 -65 560 -57ZM902 -505V-502Q903 -498 903 -495Q888 -490 882 -490Q886 -506 897 -506Q900 -505 902 -505ZM732 -321H729Q709 -321 690 -311Q669 -300 669 -284V-281Q669 -277 673 -271Q678 -264 678 -258Q714 -292 732 -321ZM785 -531Q785 -534 782 -536Q741 -526 729 -519Q705 -505 702 -477Q702 -470 701 -464Q701 -448 706 -441Q713 -443 726 -461Q742 -481 785 -531ZM424 -225H410Q409 -219 409 -206Q409 -184 418 -135Q427 -86 427 -62Q427 -51 426 -46Q425 -39 418 -28Q407 -11 407 0Q372 2 358 17Q341 -1 321 -21Q300 -42 298 -70Q298 -79 301 -88Q308 -108 319 -132Q330 -155 331 -182Q331 -187 330 -193Q312 -189 302 -176Q292 -164 281 -151Q268 -140 255 -129Q232 -106 203 -68Q184 -45 177 -34Q164 -13 161 5H157Q150 7 143 9Q107 -8 99 -30Q101 -41 104 -45Q86 -98 62 -137Q75 -128 85 -117Q95 -105 107 -94Q102 -112 70 -140Q43 -163 37 -177Q54 -170 79 -147Q107 -122 127 -115Q258 -213 321 -292Q257 -281 197 -234Q190 -227 183 -219Q176 -210 169 -207Q166 -206 160 -206Q141 -206 121 -219Q101 -232 99 -247Q76 -254 76 -276Q76 -283 81 -295Q73 -312 64 -330Q54 -348 53 -367Q53 -386 68 -402Q74 -409 96 -424Q111 -434 120 -442Q147 -469 173 -474H176Q168 -466 154 -456Q140 -446 139 -434Q139 -427 147 -420Q249 -456 361 -490Q359 -501 354 -517Q344 -547 344 -559Q344 -569 348 -577Q353 -588 375 -598Q393 -607 400 -615Q430 -594 453 -567Q454 -563 454 -559Q454 -548 448 -531Q443 -517 443 -508Q443 -502 444 -498Q455 -500 468 -507V-506Q468 -504 464 -499Q457 -490 457 -484Q457 -481 459 -477L461 -476Q464 -476 467 -477H469Q466 -464 463 -452Q463 -444 469 -441Q459 -433 459 -419Q460 -404 461 -390V-384Q457 -356 413 -330V-324Q413 -314 417 -313L420 -312Q425 -315 429 -319L432 -318Q435 -316 435 -315Q432 -309 429 -304V-303Q440 -304 448 -316Q457 -330 468 -330Q463 -322 458 -315Q452 -309 452 -298V-294Q453 -292 457 -292H468Q458 -279 456 -259Q454 -239 450 -222Q443 -225 424 -225ZM755 86H750Q730 87 720 95Q709 104 699 113Q693 110 685 103Q672 91 662 89Q655 49 634 35Q646 38 658 41Q650 31 629 16Q603 -3 594 -16Q607 -8 622 3Q637 13 656 18Q627 -7 570 -48Q586 -43 614 -26Q648 -5 668 0Q721 -55 761 -123Q757 -127 750 -127Q736 -125 723 -120Q668 -106 625 -69Q616 -78 606 -88Q597 -98 596 -111Q596 -116 597 -118Q595 -126 588 -126Q611 -163 616 -200Q587 -171 562 -133Q537 -95 499 -71Q476 -75 467 -95Q457 -116 450 -137V-138L453 -140H456V-146Q456 -147 450 -201Q460 -192 469 -181Q488 -192 504 -207Q521 -223 539 -240Q553 -250 561 -259Q560 -264 553 -270Q545 -276 543 -279V-289Q539 -302 534 -316Q533 -320 533 -327Q537 -358 540 -389V-393Q555 -407 579 -411Q603 -415 625 -423V-468H623Q607 -466 595 -454Q586 -449 576 -445Q571 -443 562 -435Q550 -425 542 -423Q521 -433 506 -453Q498 -460 488 -468Q477 -475 474 -486Q474 -489 473 -492Q477 -507 480 -523Q476 -536 472 -549Q474 -554 475 -559Q474 -563 472 -567Q475 -602 500 -617V-614Q500 -611 499 -608L500 -606H505Q521 -606 563 -621Q608 -641 614 -643Q612 -660 599 -685Q584 -714 584 -735Q602 -750 622 -769Q641 -787 668 -789Q680 -789 693 -783Q699 -769 721 -742Q747 -710 754 -684Q780 -699 808 -700Q792 -687 792 -680Q792 -678 794 -674L797 -672Q802 -673 806 -674H808Q806 -665 804 -657L805 -654Q811 -648 813 -648Q816 -648 819 -651Q819 -646 818 -642Q818 -631 828 -594Q832 -597 844 -624Q839 -634 834 -645H837Q845 -645 867 -661Q892 -679 904 -679Q907 -678 909 -678Q914 -676 920 -667Q926 -658 930 -652L951 -625Q948 -619 948 -612Q948 -595 959 -592Q953 -586 953 -579Q953 -577 955 -571Q933 -565 929 -543Q860 -543 816 -470H821Q831 -470 849 -477Q867 -484 878 -485Q873 -481 867 -476Q862 -471 861 -464Q861 -459 862 -457Q870 -457 878 -461Q886 -465 890 -465Q887 -461 882 -458Q877 -454 876 -448Q880 -442 888 -442H893Q891 -438 891 -436Q891 -431 897 -422Q903 -413 903 -408V-407Q902 -399 892 -388Q878 -374 878 -363V-358Q843 -357 779 -335Q788 -323 801 -318Q800 -316 800 -312Q800 -305 813 -295Q804 -267 800 -240V-238H795Q767 -238 727 -223Q696 -210 686 -203Q666 -189 661 -168Q721 -182 745 -189Q790 -203 820 -222Q821 -211 828 -204Q830 -202 843 -195Q851 -198 859 -201L860 -198Q857 -193 854 -189L855 -186Q862 -191 866 -198Q870 -205 881 -206H882L883 -204Q883 -201 877 -197Q871 -193 869 -189Q865 -181 865 -172Q865 -154 882 -146Q885 -137 885 -130Q885 -120 881 -106Q876 -88 876 -80V-74Q830 -56 799 -10Q777 23 755 86Z"/>
</svg>