<svg xmlns="http://www.w3.org/2000/svg" viewBox="0 -800 1024 1024">
	<path fill="#000000" d="M522 -305V-302Q515 -304 507 -306Q507 -317 514 -317H518Q522 -311 522 -305ZM973 -406H968Q962 -410 962 -414Q962 -420 973 -420Q983 -420 986 -412Q984 -406 973 -406ZM604 -302H608Q612 -293 615 -285L617 -284Q621 -285 624 -286L627 -285Q622 -262 622 -261Q622 -253 626 -248Q617 -227 590 -227Q569 -227 556 -240Q553 -241 548 -241Q532 -237 524 -234Q521 -234 518 -237Q520 -245 533 -249Q543 -252 544 -257Q541 -263 538 -270Q538 -274 543 -277Q542 -282 534 -290Q528 -296 528 -299Q531 -298 537 -298Q558 -302 572 -306Q582 -306 592 -297Q598 -299 604 -302ZM306 -134V-135Q310 -149 314 -158L313 -161Q294 -157 286 -133L289 -132Q296 -133 302 -134ZM326 -219H330Q332 -223 333 -228Q330 -229 322 -229Q308 -229 297 -222Q286 -215 286 -205Q296 -208 305 -213Q314 -218 326 -219ZM350 -303V-306Q351 -313 351 -320Q351 -324 349 -324Q284 -309 279 -281Q290 -288 317 -294Q342 -299 350 -303ZM669 114H664Q650 117 639 122Q632 119 620 108Q613 101 608 98Q594 64 583 28V23Q583 12 591 -3Q600 -20 601 -30Q603 -37 603 -49Q603 -62 604 -70Q600 -69 587 -62Q571 -53 560 -53H557Q548 -54 541 -62Q534 -70 525 -78Q501 -94 482 -105Q480 -111 480 -114Q480 -121 486 -131Q479 -144 479 -161Q479 -182 490 -200Q501 -218 518 -222Q522 -220 525 -214Q529 -207 534 -205H540Q552 -205 583 -213Q615 -221 626 -221H629Q638 -244 638 -288Q638 -335 629 -378Q621 -383 612 -389Q615 -397 628 -406Q642 -415 646 -422Q651 -430 656 -439Q661 -448 672 -449Q676 -449 702 -428Q724 -410 729 -409Q691 -487 643 -560Q630 -534 617 -509Q599 -486 587 -461Q578 -432 554 -398Q559 -395 563 -395Q574 -399 584 -403V-400Q585 -386 594 -380Q603 -374 611 -368Q613 -358 613 -354Q608 -318 578 -318Q559 -318 550 -332Q546 -330 541 -329H540Q543 -334 546 -340Q541 -348 533 -348Q517 -345 503 -337Q509 -348 530 -362Q529 -373 516 -386Q519 -385 522 -385Q531 -387 540 -390Q510 -395 495 -411Q480 -427 464 -446Q464 -479 451 -498Q432 -498 430 -509L433 -510Q439 -509 444 -508L448 -509Q444 -521 427 -521H423V-518Q423 -503 438 -494Q440 -483 441 -473Q441 -470 439 -464Q426 -453 409 -449Q392 -444 376 -439Q347 -433 340 -401Q349 -407 357 -415Q366 -422 380 -426H384Q394 -425 404 -425Q411 -425 414 -426Q424 -429 436 -446Q445 -458 450 -461Q439 -432 439 -425Q439 -412 450 -407V-403Q450 -382 463 -372H465Q467 -372 470 -376Q474 -381 480 -381H483Q473 -371 473 -357Q473 -347 482 -341Q479 -335 479 -328Q481 -313 483 -299Q483 -296 482 -293Q479 -283 472 -278Q465 -273 460 -268H448Q425 -252 412 -222Q400 -193 384 -168Q376 -166 368 -164V-161Q370 -156 371 -152Q416 -168 462 -171Q463 -160 468 -154Q473 -147 477 -139V-138Q477 -135 474 -135Q470 -135 470 -132V-131Q472 -121 474 -111Q474 -105 467 -99Q472 -86 472 -80Q472 -68 462 -62Q451 -57 437 -54Q405 -52 387 -38Q391 3 395 43Q376 64 364 89Q361 89 358 88Q353 88 341 95Q335 89 322 84Q310 80 306 76Q303 73 298 61Q292 46 284 43V41Q286 34 288 27Q286 20 271 20Q264 21 257 21Q250 21 245 18Q249 13 268 11Q281 10 286 7V-24H282Q266 -23 252 -16Q238 -9 226 -4Q205 3 185 8Q165 13 150 25Q138 37 130 57Q117 63 101 63Q67 63 60 39Q42 38 32 25Q23 13 23 -4Q24 -34 50 -48Q50 -74 64 -89Q75 -101 99 -110Q115 -117 132 -130Q149 -144 170 -145Q176 -145 179 -144Q174 -138 165 -133Q150 -124 147 -117Q153 -118 163 -123Q175 -129 179 -129L182 -128Q180 -122 173 -117Q164 -111 164 -105Q206 -115 254 -123Q247 -130 233 -130Q225 -130 220 -129Q213 -142 206 -156Q198 -164 182 -176Q169 -191 159 -207Q148 -223 131 -224Q124 -224 112 -219Q111 -224 111 -232Q111 -246 119 -266Q127 -285 128 -293Q132 -326 137 -332Q147 -344 159 -350H163Q170 -350 182 -343Q196 -335 203 -335H205Q220 -335 246 -350Q270 -364 284 -366Q283 -377 281 -389Q254 -383 227 -379Q213 -379 202 -384Q192 -391 182 -398Q166 -404 150 -406Q117 -419 115 -457Q115 -472 122 -486Q121 -496 110 -509Q100 -521 100 -528Q107 -526 116 -518Q128 -507 134 -507Q133 -516 120 -530Q105 -546 103 -558Q113 -555 128 -540Q142 -525 155 -522L156 -526Q156 -530 150 -535Q144 -540 144 -545H147Q158 -542 167 -536Q173 -536 180 -548Q186 -558 192 -560H195Q210 -555 224 -551H226Q237 -551 251 -561Q264 -570 272 -572V-576Q272 -602 257 -630H255Q246 -630 240 -615Q236 -606 233 -605Q230 -606 230 -610Q230 -612 233 -621Q245 -667 248 -677Q259 -711 272 -728Q290 -724 318 -722Q360 -718 377 -713Q390 -688 401 -641Q391 -627 379 -615Q368 -602 365 -581Q410 -587 430 -597Q417 -588 417 -573Q417 -565 424 -561Q414 -551 414 -535Q414 -529 415 -527Q457 -534 476 -558Q510 -600 547 -656Q564 -682 581 -707Q598 -732 624 -748Q631 -763 636 -771Q644 -783 655 -786Q646 -767 642 -747V-743Q644 -744 648 -752Q651 -758 657 -758H660Q659 -751 657 -745Q662 -735 676 -728Q681 -690 689 -673Q685 -666 685 -659Q686 -641 701 -638Q710 -619 729 -594Q740 -582 750 -570Q761 -561 772 -547Q790 -520 813 -495Q836 -471 858 -446Q874 -439 891 -429Q906 -424 924 -421Q941 -419 954 -410Q944 -408 937 -408Q927 -408 916 -409Q895 -409 888 -401Q890 -395 900 -395Q913 -396 925 -398Q932 -398 935 -392Q895 -390 886 -378Q888 -377 891 -377Q900 -378 908 -379Q911 -379 913 -378Q906 -374 897 -370Q888 -366 887 -357Q887 -352 891 -347Q878 -345 870 -336Q863 -328 857 -317Q848 -297 825 -294Q822 -294 812 -296Q803 -305 801 -308Q794 -310 785 -317Q776 -324 771 -326Q765 -336 756 -359Q744 -389 735 -401Q733 -398 733 -390Q733 -380 737 -372Q711 -350 711 -281Q711 -262 715 -234Q765 -241 845 -275V-273Q845 -271 841 -267Q834 -261 834 -256V-255Q842 -250 854 -250Q875 -252 895 -254Q899 -254 907 -252Q898 -246 888 -242Q877 -238 876 -223V-222L880 -221Q888 -223 896 -225L900 -224Q887 -217 883 -203Q883 -195 897 -195Q889 -181 883 -162Q883 -141 879 -125Q875 -118 865 -112Q856 -106 852 -102Q827 -109 783 -109Q730 -109 704 -96Q702 -86 702 -61Q702 -15 709 13Q718 36 720 58Q720 66 719 70Q693 91 669 114Z"/>
</svg>