<svg xmlns="http://www.w3.org/2000/svg" viewBox="0 -800 1024 1024">
	<path fill="#000000" d="M87 -79V-80H92Q108 -80 109 -71Q100 -71 94 -72Q87 -72 87 -79ZM873 -282V-289Q881 -287 884 -287Q884 -270 872 -266Q873 -271 873 -282ZM513 -383L522 -434Q486 -434 467 -418Q466 -403 464 -388Q464 -380 466 -376Q473 -376 513 -383ZM611 -38H610Q607 -39 604 -41L602 -38Q589 -48 571 -58Q554 -69 550 -88Q550 -93 549 -99Q551 -127 558 -156L560 -157Q562 -157 565 -154Q567 -160 568 -166Q573 -162 578 -155Q582 -149 589 -148Q592 -148 596 -151Q598 -131 609 -131Q611 -131 617 -133V-131Q617 -118 623 -98Q630 -74 630 -62Q630 -52 629 -47Q612 -47 611 -38ZM454 62V52Q454 40 451 37L448 36Q443 38 438 40H435V39Q435 34 440 31Q445 28 445 25Q443 20 438 20Q435 20 431 22Q453 -3 453 -82Q453 -122 452 -162Q452 -178 454 -206Q456 -216 458 -227V-230Q456 -237 453 -244L454 -247Q458 -245 463 -240Q468 -234 472 -233Q474 -234 474 -237Q474 -240 473 -244V-245Q494 -238 511 -226Q527 -214 543 -202Q539 -150 539 -112Q539 -22 556 25Q539 64 519 99Q495 97 481 85Q468 73 454 62ZM928 -42V-40Q919 0 878 8Q874 7 865 1Q854 -6 847 -6Q844 -5 841 -5Q824 -39 798 -65Q773 -90 750 -119Q749 -117 749 -114Q749 -111 756 -90L741 -52Q726 -53 710 -55Q700 -66 678 -66Q664 -66 657 -65Q660 -74 671 -74L675 -73Q674 -81 661 -81Q656 -80 651 -80L650 -82Q654 -88 658 -95Q652 -124 634 -144Q616 -164 598 -184Q643 -187 651 -187Q687 -187 700 -175Q687 -202 662 -230Q658 -234 614 -280Q609 -280 604 -281Q566 -277 536 -269Q509 -267 480 -265Q451 -262 434 -247Q431 -241 428 -235Q402 -222 385 -201Q369 -179 354 -156Q358 -156 370 -162Q383 -168 390 -169Q395 -166 399 -164H401Q408 -165 415 -167H416Q428 -163 432 -151Q435 -139 439 -124Q414 -76 401 -16Q398 -16 396 -15Q393 -14 393 -9V-7H389Q374 -5 358 -4Q352 -4 349 -5Q344 -13 339 -19Q333 -26 331 -37H323L321 -38V-40Q321 -44 325 -47Q328 -49 328 -52Q327 -61 316 -65Q325 -74 327 -88Q328 -103 328 -118Q309 -104 295 -83Q281 -62 266 -43Q249 -24 232 -5Q216 14 204 35H202Q185 35 180 16H178Q174 18 170 20L168 19L167 15Q167 10 171 4Q163 -6 157 -18Q150 -29 137 -34Q139 -38 139 -43Q139 -51 126 -58Q117 -63 115 -67H120Q130 -66 140 -65H143Q140 -76 126 -83Q125 -84 93 -95Q55 -110 16 -125H22Q39 -124 57 -118Q75 -111 94 -107Q113 -104 131 -101Q157 -94 162 -94H164Q176 -95 188 -105Q199 -114 210 -122Q259 -156 276 -169Q311 -197 333 -223Q281 -216 238 -181Q225 -170 212 -156Q199 -142 186 -139H179Q155 -141 143 -159Q131 -178 115 -193Q114 -198 114 -206Q114 -217 119 -238Q123 -255 123 -268Q123 -273 121 -287Q139 -309 157 -329Q176 -349 205 -359Q203 -354 198 -349Q189 -340 189 -334Q189 -330 190 -328Q198 -326 202 -326Q222 -329 244 -335Q262 -338 279 -341Q302 -347 361 -355Q360 -370 348 -386Q322 -374 299 -374Q263 -374 253 -403Q216 -414 216 -442Q218 -450 220 -458V-460Q219 -473 201 -498Q189 -514 186 -523Q198 -517 210 -512Q208 -514 198 -524Q186 -535 184 -542Q200 -535 213 -532L217 -533Q226 -542 236 -551Q247 -559 262 -560Q268 -560 272 -559Q276 -570 293 -590Q314 -614 316 -629V-631Q315 -637 314 -644Q314 -647 316 -649Q320 -644 324 -636Q327 -628 336 -626H337Q351 -629 364 -636Q369 -636 374 -637Q404 -635 419 -617Q433 -599 453 -583Q468 -589 479 -589H487Q509 -598 516 -599H527Q545 -607 545 -638Q543 -669 540 -701V-704Q520 -703 507 -694Q495 -686 481 -679Q500 -702 536 -724Q536 -727 532 -730Q527 -734 527 -738V-739Q536 -751 549 -758Q562 -765 575 -773Q585 -780 596 -789Q607 -797 622 -798Q628 -798 631 -797Q654 -773 676 -747Q698 -721 700 -681Q700 -675 699 -670Q680 -661 675 -657Q663 -647 661 -632Q680 -634 724 -644Q726 -647 727 -651Q728 -657 734 -658H735Q735 -644 738 -632Q744 -625 763 -625H778Q773 -620 764 -617Q755 -615 754 -606Q755 -603 755 -601L757 -599Q760 -600 762 -601L765 -599Q754 -591 749 -579Q749 -573 759 -572Q756 -557 756 -554Q756 -543 762 -539Q756 -513 752 -485Q735 -477 684 -469Q642 -463 622 -455Q607 -433 604 -400Q606 -395 610 -394Q824 -435 836 -437V-436Q836 -432 829 -428Q823 -424 822 -419Q822 -410 833 -408Q837 -407 858 -407Q855 -402 849 -401Q842 -400 836 -397V-392Q836 -380 843 -380Q847 -380 849 -382Q847 -378 840 -373Q834 -368 832 -364V-351Q832 -344 833 -341Q814 -338 811 -314Q752 -310 702 -299Q721 -271 757 -241Q773 -227 822 -191Q824 -198 826 -206L829 -207Q833 -204 833 -199Q839 -212 839 -236Q839 -255 838 -275Q838 -294 841 -302Q847 -245 852 -188Q854 -200 854 -211Q854 -239 848 -271Q851 -274 851 -281Q850 -295 848 -310Q848 -319 852 -323Q858 -321 858 -306Q858 -297 857 -289Q857 -224 864 -194Q867 -202 867 -225V-230Q867 -253 872 -263Q878 -233 877 -197Q877 -161 894 -142Q898 -144 899 -154Q901 -165 905 -166Q907 -152 907 -146V-138Q907 -121 911 -112Q915 -108 919 -104Q927 -91 927 -68Q927 -59 926 -55Q927 -48 928 -42Z"/>
</svg>