<svg xmlns="http://www.w3.org/2000/svg" viewBox="0 -800 1024 1024">
	<path fill="#000000" d="M859 -449V-452Q859 -461 865 -469Q872 -468 878 -467Q868 -451 859 -449ZM610 -161V-171Q595 -173 580 -176H576Q582 -169 591 -167Q601 -164 610 -161ZM326 30H319Q303 30 298 22Q301 16 306 16Q315 16 326 30ZM492 -470V-474Q493 -480 493 -487Q493 -494 489 -495Q454 -488 420 -482Q385 -476 371 -449Q375 -447 375 -443Q471 -462 492 -470ZM581 -625V-627L578 -628Q569 -628 560 -616H555Q536 -616 498 -602Q457 -589 415 -575Q373 -561 351 -532Q356 -531 366 -531Q383 -531 418 -542Q484 -564 517 -573Q519 -567 526 -565Q533 -563 541 -561Q547 -583 572 -613Q581 -622 581 -625ZM578 -186H585Q589 -186 634 -189Q671 -248 708 -308Q662 -300 653 -298Q625 -291 609 -274Q597 -270 586 -267Q575 -264 572 -254Q572 -251 571 -249Q574 -233 581 -215Q577 -212 577 -206Q578 -197 578 -189ZM551 127H548Q526 127 496 95Q482 81 475 47Q469 20 461 9Q463 4 467 2Q466 -2 459 -7Q453 -12 451 -17H453Q462 -14 470 -11Q488 -42 496 -112Q508 -213 510 -225Q503 -230 494 -234Q485 -238 483 -249Q460 -257 460 -300V-308Q458 -313 448 -323Q437 -335 436 -341Q441 -341 454 -334Q466 -328 474 -327Q490 -331 511 -340Q583 -360 615 -371Q648 -383 681 -395Q699 -400 717 -404Q734 -408 751 -416Q782 -430 813 -444Q821 -449 832 -470Q839 -482 844 -487Q847 -485 849 -484Q832 -447 832 -435Q832 -427 834 -423Q838 -424 844 -433Q849 -440 852 -440Q847 -430 847 -421Q847 -405 857 -394Q867 -383 881 -383Q885 -383 895 -387Q892 -378 889 -369L890 -366L892 -365Q896 -365 899 -366L902 -365V-356Q902 -327 911 -309V-308Q908 -301 905 -294Q905 -290 908 -287Q896 -265 896 -252V-249Q892 -249 888 -250Q851 -247 829 -215Q807 -182 787 -152Q738 -85 723 -51Q717 -46 711 -42V-33Q708 -32 705 -32Q695 -32 685 -41Q675 -50 667 -50H664Q660 -57 646 -69Q630 -84 624 -95Q618 -107 612 -120Q606 -127 599 -133Q592 -139 587 -148Q597 -144 607 -140Q607 -146 597 -153Q588 -160 578 -161Q572 -144 572 -125Q572 -122 578 -65Q579 -59 579 -45Q579 -21 578 3Q578 46 593 64Q587 81 578 102Q569 122 551 127ZM448 -19V-5Q452 17 456 39Q456 42 455 45Q453 53 438 63Q426 71 425 75Q403 72 375 51Q355 35 342 31Q347 28 353 28Q348 24 329 16Q337 18 339 18Q356 17 360 -2Q365 -31 372 -54Q305 -36 294 2Q288 4 282 6Q278 13 274 27Q268 27 262 26Q254 27 245 27Q233 27 224 24Q218 22 208 9Q195 -7 184 -8Q185 -10 185 -15Q185 -25 173 -42Q162 -57 162 -66V-67Q162 -76 178 -93Q194 -110 208 -110Q204 -130 187 -143Q169 -156 156 -167Q123 -200 115 -260V-272Q115 -291 122 -299Q108 -336 106 -372Q115 -357 122 -340Q129 -322 148 -317Q148 -323 143 -335Q136 -352 136 -359V-363Q143 -362 145 -355Q147 -347 150 -340Q157 -329 166 -321Q172 -323 172 -329V-335Q184 -324 196 -315Q207 -306 227 -305Q232 -305 237 -306Q261 -309 287 -331Q325 -364 329 -366Q325 -377 305 -390Q292 -398 286 -406Q288 -408 288 -410Q288 -425 267 -446Q243 -472 223 -481Q204 -489 186 -497Q169 -505 157 -521Q149 -534 141 -547Q115 -585 109 -626Q108 -634 104 -646Q98 -664 98 -678V-682Q107 -699 123 -699H128Q143 -714 143 -722Q143 -727 142 -730Q146 -729 151 -723Q157 -717 162 -716Q162 -719 155 -729Q148 -738 147 -745Q152 -742 160 -732Q172 -719 178 -717L179 -720Q176 -723 173 -727L175 -730H177Q181 -730 189 -726Q199 -721 204 -721Q210 -721 214 -724Q252 -708 292 -668Q318 -679 347 -683Q376 -688 409 -696Q429 -703 448 -710Q481 -717 651 -762Q674 -767 684 -774Q693 -782 705 -793Q717 -804 735 -805H738Q781 -801 825 -748Q828 -751 837 -751Q830 -745 830 -738Q830 -730 839 -724Q848 -719 860 -719Q867 -719 870 -720Q868 -715 860 -712Q854 -710 852 -707Q854 -699 858 -695Q877 -702 895 -710Q894 -700 880 -686Q869 -675 869 -669Q869 -665 871 -662Q860 -657 857 -644Q854 -632 849 -619Q811 -619 810 -598Q746 -569 694 -505Q666 -471 610 -380Q605 -381 597 -381Q588 -380 578 -380Q567 -380 560 -386H559Q554 -385 554 -381Q553 -376 548 -375Q545 -377 545 -387V-394Q532 -402 520 -415Q464 -410 438 -404Q396 -394 377 -372Q381 -362 394 -357Q404 -333 418 -313Q432 -293 433 -260Q418 -259 413 -240Q410 -240 406 -241Q391 -241 383 -231Q362 -234 340 -237Q315 -237 309 -219Q307 -211 307 -207Q308 -193 314 -179Q321 -165 325 -153H327Q332 -153 336 -162Q345 -164 354 -166Q357 -165 359 -165Q351 -176 351 -187Q352 -208 377 -219Q401 -231 430 -231Q448 -231 460 -227Q461 -219 472 -205Q487 -187 487 -179V-177Q487 -169 469 -142Q459 -122 455 -102Q448 -44 448 -19Z"/>
</svg>