<svg xmlns="http://www.w3.org/2000/svg" viewBox="0 -800 1024 1024">
	<path fill="#000000" d="M482 -312H479L478 -308Q478 -303 480 -303L482 -304L480 -306Q481 -309 482 -312ZM882 -516Q881 -507 871 -504Q866 -502 854 -501Q860 -515 873 -518Q874 -518 882 -516ZM937 -183Q934 -173 929 -160Q922 -163 922 -174Q922 -189 929 -189Q933 -189 937 -183ZM454 -330V-327Q454 -323 453 -320L454 -318Q457 -316 462 -316Q466 -316 474 -323Q479 -327 483 -329Q481 -343 481 -349Q481 -402 530 -423Q525 -414 521 -405L522 -401Q564 -413 606 -429Q604 -442 593 -474Q586 -473 564 -461Q541 -448 529 -448H528Q514 -449 497 -466Q478 -485 478 -503V-505Q456 -505 456 -494Q456 -491 457 -489H466Q474 -489 475 -486Q460 -480 460 -463V-459Q468 -459 472 -456Q453 -454 453 -439V-435Q456 -429 469 -416Q459 -409 459 -399V-396Q462 -393 467 -390Q476 -385 478 -381Q442 -378 417 -365Q393 -351 368 -338Q372 -334 374 -326Q377 -315 382 -312Q389 -328 413 -328Q424 -328 442 -322Q445 -322 449 -327Q452 -331 453 -331ZM697 -96V-94Q693 -71 689 -49Q688 -43 688 -32Q690 -2 691 27Q684 38 675 46Q666 55 663 69Q660 70 654 70Q643 68 636 57Q627 49 619 43Q610 36 605 26Q609 17 613 -4Q619 -33 626 -43Q622 -71 617 -100Q617 -103 614 -104Q612 -105 611 -106Q612 -122 629 -133Q644 -143 661 -143Q670 -143 676 -140V-137Q676 -127 686 -115Q696 -103 697 -96ZM983 51V52Q983 71 954 93Q927 114 906 116Q888 113 869 110Q853 111 837 112H832Q786 110 756 99Q718 85 712 57Q712 55 711 52Q713 44 715 36V34Q714 26 713 18Q714 3 723 -33Q731 -65 731 -77V-81Q730 -97 723 -109Q716 -121 709 -135Q711 -143 713 -151V-155Q713 -159 706 -159Q722 -170 737 -181Q660 -180 584 -125Q586 -118 597 -104Q611 -86 611 -74Q607 -61 603 -49Q603 -48 605 -42Q564 28 531 103H529Q519 103 507 97Q497 92 491 91Q488 83 485 74L482 72Q479 73 476 74Q472 60 460 46Q457 42 439 23H450Q478 -5 500 -40Q509 -59 515 -80Q521 -101 535 -117Q511 -138 507 -179Q507 -198 519 -207Q521 -209 534 -213Q554 -226 578 -262Q569 -261 556 -253Q541 -243 532 -243H531Q516 -244 500 -259Q483 -275 482 -294Q475 -287 475 -272Q480 -236 484 -200Q484 -191 483 -187Q482 -183 471 -175Q462 -169 459 -165Q431 -131 412 -49Q389 53 376 81Q346 80 325 64Q303 47 303 20V17Q306 5 308 -8Q308 -18 299 -24Q309 -31 309 -40Q308 -53 296 -65Q283 -77 276 -87Q290 -83 299 -75Q308 -67 319 -61Q336 -69 345 -98Q358 -139 361 -144Q353 -154 344 -165Q342 -167 337 -175Q332 -183 328 -184Q317 -177 302 -160Q277 -131 241 -65Q221 -28 201 4Q181 37 168 70Q159 67 150 67Q138 67 130 75Q132 67 134 58Q128 50 118 50Q115 50 109 52Q107 48 107 43Q107 40 109 38Q101 27 97 12Q93 -4 78 -9Q77 -12 87 -22Q96 -32 96 -34Q95 -43 67 -56Q42 -68 40 -75Q69 -67 93 -55Q61 -86 14 -96Q66 -94 117 -75Q169 -110 214 -166Q252 -212 290 -279Q262 -274 226 -252Q214 -244 206 -233Q198 -223 188 -212Q171 -200 152 -189Q147 -185 139 -173Q129 -158 120 -153Q110 -165 76 -178Q46 -189 35 -201V-211Q35 -235 41 -253Q35 -264 28 -275V-277Q28 -303 42 -331Q45 -338 70 -376Q90 -408 96 -415Q113 -435 134 -439Q107 -427 102 -395Q102 -387 106 -379Q141 -380 211 -411Q277 -442 309 -448V-454Q309 -518 278 -554Q279 -556 279 -561Q279 -570 268 -584Q258 -597 258 -605Q258 -612 264 -621Q270 -630 285 -639Q299 -647 308 -655Q318 -664 330 -674Q342 -683 353 -684H356Q368 -681 381 -664Q395 -647 402 -637Q429 -600 429 -577V-571Q428 -565 422 -555Q414 -542 414 -533Q415 -530 415 -527H414Q388 -527 388 -496Q388 -489 390 -479Q430 -499 478 -508Q474 -535 466 -542Q491 -591 515 -720Q513 -721 510 -721Q495 -717 485 -708Q497 -735 508 -765Q519 -796 550 -807Q559 -810 578 -810Q588 -810 590 -809Q599 -805 613 -790Q628 -776 635 -768Q655 -746 655 -715V-708Q654 -690 634 -666Q612 -639 612 -618Q640 -630 687 -646Q766 -673 798 -690Q797 -686 793 -682Q788 -677 788 -674L789 -671H792Q798 -671 807 -675Q821 -681 828 -681H831Q822 -678 818 -670Q815 -662 812 -654L815 -653Q820 -656 828 -659L832 -658Q826 -650 826 -637Q826 -621 833 -611Q832 -608 832 -601Q836 -576 839 -552Q805 -547 722 -520Q715 -508 703 -459Q725 -462 773 -477Q817 -490 842 -495Q828 -487 811 -481Q794 -475 786 -461L790 -453Q798 -453 808 -460Q816 -466 821 -466Q825 -466 827 -465Q820 -460 814 -457Q807 -455 806 -447V-444Q807 -435 814 -435Q821 -436 828 -437Q831 -437 835 -435Q817 -429 815 -410Q815 -398 827 -394Q804 -354 784 -312Q768 -316 748 -316Q696 -316 663 -291Q667 -282 667 -273Q664 -250 651 -231Q676 -242 691 -244Q689 -252 689 -256Q689 -269 697 -281Q716 -289 731 -289Q749 -289 781 -276Q788 -279 794 -286Q801 -295 805 -297Q802 -292 796 -285Q791 -279 790 -270Q795 -261 805 -261Q821 -264 837 -267Q843 -267 845 -266H844Q836 -266 828 -258Q820 -250 820 -244Q820 -235 835 -235H840Q828 -231 828 -215Q828 -209 833 -189Q817 -174 796 -160Q797 -153 806 -145Q813 -139 814 -135Q815 -132 815 -129Q810 -101 796 -71Q782 -24 781 -5Q796 4 817 6Q831 1 848 -1Q864 -4 876 -12Q892 -26 896 -46Q901 -66 910 -91Q912 -81 912 -74Q911 -52 909 -30Q909 -21 910 -17Q915 -32 917 -70Q920 -123 931 -138Q929 -100 926 -63Q926 -30 937 -14Q939 -22 940 -31Q940 -41 945 -46Q942 -37 942 -28Q942 -7 965 19Q983 40 983 51Z"/>
</svg>