<svg xmlns="http://www.w3.org/2000/svg" viewBox="0 -800 1024 1024">
	<path fill="#000000" d="M890 -534Q884 -536 884 -547Q884 -556 887 -561Q895 -561 895 -545Q895 -536 890 -534ZM573 -468H580Q606 -469 625 -475Q644 -482 664 -489Q637 -523 618 -535Q585 -514 573 -468ZM272 -150Q282 -182 282 -216Q282 -227 280 -247L277 -249Q244 -240 225 -217Q225 -207 224 -197Q224 -161 233 -137Q239 -143 250 -145Q261 -147 272 -150ZM282 -351Q281 -358 281 -374Q282 -394 282 -415Q282 -444 277 -462Q249 -451 234 -415Q221 -384 221 -343Q222 -334 222 -325Q236 -333 248 -342Q261 -350 282 -351ZM727 -109Q720 -112 712 -112Q705 -112 693 -108Q688 -95 687 -94Q685 -103 683 -103Q647 -98 611 -75Q593 -64 593 -46Q593 -35 600 -16Q649 -29 698 -42Q718 -86 727 -109ZM852 -31V-25Q842 -28 830 -28Q811 -28 800 -20Q787 -11 787 6Q771 21 753 51Q743 67 726 101Q723 95 715 93Q712 93 710 94L709 90Q710 87 711 84L710 83H705Q696 84 687 84Q686 73 678 68Q669 63 662 57V55Q664 51 665 47Q619 48 605 86H602Q595 86 591 92Q587 98 587 106V109Q561 105 549 86Q537 68 528 47Q517 20 490 14Q483 1 476 -13Q471 -15 465 -18Q443 -43 442 -78Q444 -99 445 -120V-129Q442 -147 438 -165Q438 -171 439 -174Q447 -151 458 -129L459 -133Q459 -143 455 -153L457 -154Q459 -154 461 -147Q464 -138 468 -138Q471 -139 471 -142Q468 -147 465 -153L468 -154Q471 -154 476 -151Q482 -147 487 -147Q493 -147 503 -151Q515 -156 521 -156H526Q532 -155 539 -147Q545 -141 552 -138Q564 -146 597 -159Q595 -167 582 -173Q573 -177 570 -181H572Q608 -183 623 -206Q639 -232 653 -259Q616 -251 584 -231Q559 -215 529 -186Q489 -189 483 -219Q482 -222 482 -229Q482 -239 487 -259Q493 -283 493 -296Q493 -305 492 -309Q497 -318 517 -333Q522 -331 523 -327Q643 -359 730 -385Q736 -392 739 -401Q740 -393 740 -385Q741 -378 749 -375H751Q757 -376 763 -378Q760 -370 760 -363Q760 -353 769 -352Q774 -315 778 -278Q778 -265 775 -253Q738 -240 724 -231Q699 -215 690 -186Q697 -186 718 -194Q742 -203 756 -203Q770 -203 781 -195Q787 -201 792 -210Q798 -219 807 -224Q800 -219 800 -204Q800 -196 802 -184Q811 -179 819 -172Q826 -176 834 -178H837L838 -176Q833 -171 828 -163L829 -159L832 -157Q837 -157 840 -160Q837 -151 837 -143Q837 -128 849 -127Q846 -122 843 -117Q845 -108 859 -82V-76Q856 -53 852 -31ZM972 -333V-328Q975 -309 983 -297Q970 -277 957 -240Q928 -237 923 -235Q904 -245 887 -255Q879 -266 871 -278Q858 -292 844 -304Q836 -319 828 -335Q819 -342 809 -349Q792 -367 777 -386Q761 -406 741 -421Q727 -404 724 -402H725Q727 -403 729 -404L730 -402Q710 -395 676 -392Q645 -390 633 -387Q611 -381 593 -370Q576 -358 560 -348Q547 -349 534 -364Q525 -374 517 -378Q509 -373 506 -364Q503 -356 499 -345Q496 -341 492 -338V-337Q492 -334 493 -331Q488 -326 483 -321Q475 -306 468 -291Q461 -276 446 -267Q445 -279 430 -279Q424 -279 421 -278Q412 -287 403 -296Q395 -305 379 -306Q384 -318 391 -325Q387 -330 375 -338Q369 -260 366 -175Q366 -129 372 -100Q380 -75 384 -48Q384 -38 382 -33Q380 -30 376 -27Q369 -22 368 -16Q359 -12 348 -12Q338 -12 318 -20Q303 -26 292 -27Q289 -36 278 -46Q269 -54 266 -60Q251 -57 233 -43Q234 -41 234 -37Q233 -30 228 -25Q223 -21 219 -15Q216 -16 209 -16Q197 -16 197 -7V-6Q191 -7 188 -11Q184 -15 180 -18H179Q154 -18 136 -41Q121 -61 113 -93Q123 -119 123 -151Q122 -192 111 -233Q100 -274 91 -310Q87 -328 65 -355Q42 -384 40 -405V-412Q40 -439 51 -470Q43 -484 43 -495V-498H44Q48 -497 53 -491Q57 -484 61 -480Q62 -483 62 -489Q62 -497 53 -512Q43 -528 43 -541V-542Q51 -533 58 -524Q65 -515 77 -510Q81 -514 81 -518Q76 -534 64 -549Q50 -576 45 -592Q63 -574 79 -554Q95 -535 116 -519Q123 -522 129 -525Q141 -518 153 -511Q175 -535 209 -557Q242 -578 272 -601Q287 -615 298 -633Q310 -651 333 -653Q336 -653 348 -651Q351 -653 354 -662Q358 -674 366 -675Q367 -674 367 -670Q367 -663 366 -656Q366 -645 373 -642Q377 -642 378 -646Q379 -650 384 -651Q394 -620 419 -600Q444 -580 447 -547Q447 -536 445 -529Q417 -511 401 -468Q390 -439 381 -382Q394 -389 403 -402Q411 -416 422 -430Q431 -437 440 -445Q447 -453 462 -483Q475 -500 487 -517Q499 -540 510 -564Q523 -588 531 -609Q538 -618 541 -627Q542 -630 542 -634Q537 -661 519 -680Q524 -685 524 -691Q522 -700 519 -709Q535 -720 578 -759Q598 -775 615 -775H618Q641 -771 662 -755Q684 -738 702 -727Q703 -711 710 -702Q717 -692 724 -683V-645Q702 -637 687 -614Q695 -605 702 -596Q710 -587 723 -583Q725 -574 731 -570Q738 -565 745 -561Q761 -543 782 -529Q803 -515 823 -499Q847 -475 852 -471Q868 -455 880 -455Q884 -455 886 -456Q886 -458 889 -526Q898 -519 898 -490Q898 -461 906 -454Q907 -463 907 -482Q907 -510 906 -538Q906 -570 911 -591Q917 -570 918 -514Q920 -451 929 -427Q931 -430 931 -439Q931 -453 930 -467Q930 -482 936 -487Q942 -482 942 -471V-459Q947 -409 951 -390Q958 -352 972 -333Z"/>
</svg>