<svg xmlns="http://www.w3.org/2000/svg" viewBox="0 -800 1024 1024">
	<path fill="#000000" d="M678 -285H676Q664 -284 655 -278Q647 -271 638 -265Q627 -260 615 -254Q602 -249 595 -238Q603 -236 606 -236Q628 -239 644 -252Q654 -257 664 -264Q675 -272 678 -285ZM721 -493L717 -497Q716 -493 713 -493H712Q704 -501 698 -501H694Q626 -490 576 -459H585Q600 -459 637 -469Q672 -480 696 -483Q711 -483 721 -493ZM591 -564Q586 -578 581 -581Q576 -575 569 -570Q562 -565 561 -558Q561 -554 564 -550Q587 -563 591 -564ZM653 -640H649Q628 -640 628 -610Q628 -590 637 -578Q648 -587 648 -606Q649 -625 653 -640ZM727 -672Q727 -679 726 -682Q720 -679 713 -677Q707 -675 706 -667Q706 -663 712 -662Q717 -661 717 -658Q711 -643 703 -630Q695 -617 694 -601V-597Q702 -600 714 -600Q714 -609 721 -635Q727 -659 727 -672ZM927 -180L924 -154Q917 -157 917 -169Q917 -178 920 -183Q924 -181 927 -180ZM635 -371V-370Q626 -359 610 -359Q605 -359 603 -360V-362L585 -357Q579 -348 550 -335Q525 -324 523 -304Q552 -311 579 -327Q604 -337 697 -366Q710 -370 726 -379Q762 -398 785 -399Q790 -393 801 -393Q810 -393 816 -396Q813 -393 813 -387Q813 -378 820 -376Q832 -382 847 -385Q844 -380 839 -376Q835 -372 834 -364V-363Q834 -360 838 -360H844V-359Q844 -356 840 -353Q837 -351 837 -349Q850 -331 850 -298Q850 -272 840 -259Q790 -246 767 -234Q730 -214 720 -181Q700 -192 679 -204Q673 -197 670 -184Q666 -168 662 -163Q654 -158 647 -151Q648 -147 654 -147Q660 -147 664 -145V-142Q663 -135 662 -129Q664 -124 677 -124H681Q688 -124 691 -123Q735 -175 761 -198V-201Q759 -207 757 -213Q767 -220 778 -220Q791 -219 804 -218Q816 -218 825 -223Q826 -214 839 -201Q852 -188 853 -181Q854 -178 854 -172Q854 -158 847 -149Q841 -141 834 -130Q830 -131 822 -131Q790 -131 768 -105Q777 -104 801 -97Q837 -86 854 -86Q871 -86 882 -93V-101Q882 -106 886 -106H887L893 -81Q896 -87 896 -98Q895 -118 893 -139V-148Q901 -141 902 -113Q902 -94 906 -84Q909 -96 909 -111Q907 -145 904 -179Q904 -196 908 -208Q913 -190 915 -145Q917 -102 921 -84Q923 -89 923 -100Q922 -117 921 -135Q921 -142 923 -148Q931 -138 933 -111Q935 -84 939 -61Q941 -55 949 -46Q957 -37 958 -33Q960 -21 961 -9Q964 -1 967 6Q967 17 953 30Q940 42 938 53Q926 51 925 51Q921 51 915 54Q899 45 882 45Q873 37 850 25Q822 11 813 2Q800 -2 790 -17L777 -23Q768 -25 738 -38Q705 -53 692 -53Q683 -53 678 -51Q677 -47 677 -38Q678 -23 678 -8Q709 -22 744 -32Q740 -22 736 -12Q733 -9 733 -3L734 -2Q735 -2 741 -6L742 -5Q740 3 737 10Q736 13 743 22Q739 31 737 41Q705 62 680 76Q659 89 646 94Q640 90 625 87Q613 85 606 80Q591 70 580 32Q568 -9 557 -19Q571 -23 584 -28Q590 -68 590 -102Q570 -86 546 -61Q522 -36 512 -27Q464 12 430 44Q418 42 411 42Q403 42 400 44Q370 21 364 -27Q364 -29 369 -29Q376 -29 376 -31Q376 -36 373 -41Q370 -46 356 -52Q358 -55 361 -55Q366 -54 371 -54Q375 -54 376 -56Q368 -69 331 -73V-60Q339 -59 339 -50Q339 -41 338 -33Q344 -6 348 21V26Q341 57 321 76Q308 90 305 93Q295 102 286 102Q284 102 281 101Q273 98 266 89Q260 79 254 71Q245 67 235 63Q229 45 201 34Q168 21 161 12Q179 16 232 34Q221 23 205 17Q188 11 172 6Q156 1 140 -3Q125 -7 116 -18Q144 -9 171 -2Q197 6 231 6Q205 -3 179 -12H187Q206 -11 224 -10Q242 -10 251 -19Q256 -48 256 -93Q256 -111 254 -147Q237 -145 227 -126Q214 -100 208 -96Q181 -98 175 -112Q158 -113 147 -128Q136 -143 136 -163Q136 -177 142 -189Q134 -204 134 -217Q135 -238 148 -255Q161 -272 169 -291Q178 -300 186 -304Q182 -291 177 -279Q177 -276 178 -274Q224 -285 269 -322V-331Q270 -352 270 -373V-382Q255 -378 226 -363Q195 -347 181 -342Q171 -338 157 -321Q139 -298 125 -298H123Q98 -302 88 -331Q51 -345 48 -390Q48 -401 53 -418Q58 -426 62 -435V-436Q61 -449 59 -463V-466Q63 -476 69 -483Q66 -490 61 -495Q56 -501 55 -510Q61 -510 67 -504Q72 -499 77 -499H80V-501Q80 -512 66 -526Q55 -537 53 -546Q64 -543 73 -534Q92 -518 108 -515H111Q133 -518 154 -522Q163 -522 167 -520L199 -534Q207 -547 225 -551Q243 -555 258 -562Q260 -568 260 -571Q260 -581 243 -598H240Q230 -598 216 -592Q218 -603 229 -614Q240 -624 251 -637Q260 -650 267 -666Q274 -682 292 -684Q299 -684 304 -682Q314 -684 319 -684Q339 -684 353 -671Q367 -658 367 -637Q367 -626 363 -615Q380 -616 391 -622Q401 -627 412 -632Q408 -652 405 -661Q403 -669 395 -682Q387 -695 385 -702Q392 -701 399 -691Q406 -682 413 -681L414 -683Q412 -688 409 -693L411 -696Q421 -693 425 -685Q455 -691 468 -691Q488 -691 501 -682Q504 -680 515 -669Q520 -670 533 -680Q546 -691 554 -697Q573 -710 595 -721Q637 -746 682 -766Q710 -777 724 -785Q738 -793 748 -799Q758 -805 776 -805Q783 -806 790 -808H791Q799 -807 808 -796Q815 -788 819 -785Q840 -792 860 -799Q857 -794 850 -788Q840 -780 838 -774H839Q841 -777 851 -780L855 -779Q852 -770 848 -762Q848 -761 850 -757L852 -756Q857 -759 862 -762L865 -760L866 -759Q866 -757 862 -752Q855 -744 855 -738V-736Q863 -696 863 -686Q863 -679 862 -675Q830 -655 806 -624L786 -586Q787 -583 787 -577Q787 -565 778 -542Q769 -518 768 -502Q811 -506 843 -523Q845 -526 845 -530Q844 -535 849 -535H850Q851 -533 851 -530V-523Q851 -518 853 -515Q857 -513 863 -513Q875 -514 886 -515H891V-513Q891 -508 886 -505Q881 -502 881 -498Q885 -490 885 -480V-467Q885 -457 887 -451Q878 -444 873 -432Q869 -420 865 -408Q857 -407 849 -407Q828 -408 806 -409Q799 -408 791 -408Q775 -406 740 -395Q700 -382 678 -382H673ZM414 -622Q401 -611 401 -597V-592L404 -591Q411 -594 422 -598Q412 -588 412 -558Q412 -547 412 -536Q410 -528 408 -521Q411 -510 411 -501Q411 -480 406 -460Q388 -452 380 -444Q372 -436 359 -424Q354 -411 354 -390Q355 -379 355 -369Q379 -377 403 -386Q401 -382 400 -375Q411 -346 411 -345Q411 -337 419 -333Q410 -317 405 -293Q405 -279 414 -274Q397 -255 397 -235V-229Q383 -226 366 -222Q348 -219 340 -210Q332 -198 332 -175Q334 -150 335 -126Q335 -109 331 -98V-76Q335 -78 343 -78Q364 -75 384 -73H386Q394 -75 401 -78Q402 -78 406 -76Q416 -83 429 -88Q444 -97 458 -108Q472 -119 489 -120Q493 -119 496 -119L521 -141V-145Q521 -155 532 -161Q541 -166 543 -170Q533 -178 509 -186Q503 -200 478 -207Q455 -213 449 -223Q442 -237 438 -249Q434 -262 417 -264Q419 -270 427 -270Q431 -269 435 -269Q439 -269 440 -270Q446 -272 452 -279Q461 -289 467 -289H468Q459 -303 448 -318Q437 -334 436 -353Q436 -361 441 -374Q437 -382 437 -393Q439 -425 461 -440Q464 -439 467 -432Q470 -426 473 -424Q530 -442 536 -445Q529 -446 520 -456Q512 -465 505 -465Q503 -475 501 -480Q496 -489 483 -503Q466 -522 462 -532Q461 -535 461 -541Q462 -549 462 -557Q462 -562 461 -564Q458 -577 443 -589Q425 -603 419 -612Q417 -617 414 -622Z"/>
</svg>