<svg xmlns="http://www.w3.org/2000/svg" viewBox="0 -800 1024 1024">
	<path fill="#000000" d="M482 -306Q480 -301 479 -295Q478 -289 472 -287Q471 -289 471 -293Q473 -300 478 -308Q480 -307 482 -306ZM890 -438Q892 -442 895 -448Q897 -453 902 -454L906 -453Q904 -437 895 -437Q892 -437 890 -438ZM921 -179H912Q912 -186 911 -194Q911 -209 919 -209Q922 -209 924 -208Q924 -191 921 -179ZM922 -259H919Q908 -259 898 -249Q888 -239 879 -239Q877 -235 878 -229Q878 -224 873 -223Q867 -224 865 -230Q864 -236 862 -242Q843 -245 821 -263Q813 -270 786 -295Q765 -313 749 -337Q745 -347 740 -358Q725 -383 725 -394Q725 -402 727 -406Q735 -423 758 -427Q762 -428 768 -428Q781 -428 800 -422Q816 -417 822 -417Q833 -417 841 -425Q841 -422 840 -420Q840 -412 845 -409Q849 -406 854 -403Q860 -409 866 -415Q871 -422 882 -424Q881 -420 875 -413Q868 -405 868 -401Q868 -397 872 -394Q885 -403 897 -413Q909 -424 925 -430L928 -429L927 -427Q917 -416 902 -406Q887 -396 886 -380Q886 -375 887 -372Q920 -376 968 -392Q961 -382 944 -378Q917 -367 904 -353Q911 -332 928 -332V-331Q928 -327 924 -325Q920 -322 919 -320Q915 -302 915 -287Q915 -269 922 -259ZM934 120H925Q912 120 898 119Q891 119 888 120Q864 98 833 83Q804 41 770 4Q736 -33 700 -70Q687 -72 685 -79Q656 -53 627 -28Q598 -3 583 37Q574 39 565 41H561Q556 31 534 31Q519 31 508 34Q505 22 497 15Q489 7 482 -1Q483 -8 483 -21Q483 -44 475 -56Q490 -80 490 -98V-101Q492 -98 494 -96Q500 -102 500 -117Q498 -139 496 -161V-164Q509 -121 520 -99Q544 -117 592 -149Q579 -161 572 -178Q564 -196 558 -214Q560 -213 564 -213Q568 -213 571 -218Q574 -223 576 -224Q605 -222 620 -219Q642 -214 651 -203Q663 -209 670 -219Q677 -230 684 -240Q680 -258 676 -275V-280Q682 -287 687 -299Q715 -313 735 -313Q744 -313 749 -312Q775 -303 785 -267Q795 -230 804 -200Q784 -193 770 -176Q759 -163 749 -140Q773 -116 803 -96Q833 -76 863 -56Q865 -57 876 -71Q879 -70 880 -64Q881 -57 885 -56Q896 -61 899 -90Q902 -112 906 -119Q910 -108 910 -83Q910 -47 918 -38Q919 -44 919 -51Q916 -93 913 -136Q913 -152 916 -164Q922 -164 922 -157Q922 -153 921 -149V-148L934 -29Q939 -33 939 -41Q938 -53 936 -65Q934 -93 934 -112Q940 -98 944 -60Q949 -16 959 -1V4Q963 30 966 56Q966 61 965 65Q961 103 934 120ZM872 -513V-510L874 -507Q877 -507 881 -509Q871 -499 871 -479Q871 -469 875 -462Q848 -452 786 -438Q746 -429 722 -422Q634 -397 585 -365Q586 -357 594 -353Q601 -350 608 -347Q614 -342 619 -338H620Q624 -338 631 -345Q640 -354 647 -354L651 -353Q633 -339 633 -320L635 -319Q639 -319 642 -320H644Q640 -295 639 -269Q638 -244 617 -237Q615 -236 610 -236Q600 -237 590 -239Q586 -239 583 -236Q557 -249 549 -250Q542 -264 524 -274Q523 -287 514 -308Q506 -326 505 -340L509 -339Q512 -339 515 -344V-346Q513 -356 511 -366V-368Q518 -363 526 -363Q532 -363 561 -371Q529 -399 520 -415V-420Q520 -438 503 -447V-450Q503 -455 498 -466Q494 -475 494 -481Q494 -497 509 -520Q523 -541 535 -551V-549Q534 -545 532 -542Q538 -541 550 -541Q574 -542 596 -550Q618 -558 642 -565Q640 -604 637 -644Q635 -682 605 -692V-694Q606 -699 607 -705V-707Q603 -711 597 -711Q585 -708 572 -705H571Q593 -738 618 -770Q642 -801 679 -819Q691 -818 697 -809Q703 -800 711 -794Q721 -790 731 -786Q741 -780 751 -759Q762 -736 773 -731Q774 -727 774 -719Q774 -700 758 -672Q742 -644 742 -622Q742 -609 744 -602Q754 -603 773 -612Q799 -624 813 -624Q821 -624 833 -619Q856 -626 862 -626H866Q866 -624 863 -622Q859 -619 859 -616V-615Q861 -611 863 -608Q880 -615 893 -619H897Q895 -615 885 -609Q872 -602 872 -594V-591Q873 -584 879 -584Q886 -584 893 -585Q886 -576 886 -559Q886 -547 890 -539Q882 -534 878 -529Q872 -522 872 -513ZM402 -62V-34Q405 -22 407 -11Q406 8 398 23Q389 38 383 52Q379 53 371 53Q335 51 320 22Q304 -9 284 -34V-35L285 -36Q288 -35 291 -35Q294 -35 294 -38Q293 -41 286 -41Q279 -41 278 -43Q297 -57 300 -88Q303 -120 305 -152Q294 -146 284 -139Q274 -132 272 -118Q235 -83 199 -47Q164 -12 145 41Q137 45 128 45Q115 44 103 37Q92 30 81 23V20Q82 14 82 8Q72 -2 69 -36Q67 -64 62 -73H65Q70 -73 72 -77Q72 -89 60 -104Q49 -117 49 -127Q50 -130 50 -133Q61 -121 71 -109Q80 -98 94 -89Q131 -103 159 -128Q186 -153 211 -179Q238 -205 265 -231Q291 -257 309 -290Q285 -281 254 -269Q222 -257 195 -236Q177 -220 162 -204Q146 -187 127 -186Q124 -186 120 -187Q109 -191 106 -206Q86 -213 66 -221Q56 -234 52 -262Q51 -272 39 -297Q26 -325 26 -337Q27 -355 42 -378Q62 -407 65 -415Q81 -418 114 -438Q136 -452 160 -464V-463Q156 -458 152 -453Q144 -447 134 -439Q124 -432 123 -419V-416Q128 -416 136 -425Q146 -437 156 -437H158V-436Q158 -432 152 -428Q145 -423 145 -419Q147 -416 153 -416Q156 -416 168 -419Q245 -436 336 -472V-477Q335 -505 325 -524Q314 -543 306 -562Q301 -577 301 -590Q301 -607 309 -619Q330 -643 374 -645Q386 -645 395 -642Q406 -638 417 -617Q434 -574 445 -530V-528Q440 -513 434 -498V-497Q435 -493 439 -493Q452 -498 472 -503H476Q463 -494 463 -484Q463 -480 466 -476Q468 -474 470 -474Q474 -475 478 -476H479Q478 -473 478 -464Q478 -452 487 -452H490Q485 -442 485 -427Q485 -406 494 -400Q486 -395 485 -371Q484 -344 479 -337Q474 -338 465 -338Q435 -338 407 -318Q404 -307 404 -299Q404 -279 417 -269Q429 -278 432 -280Q433 -264 448 -259Q453 -264 457 -271Q461 -277 472 -278Q471 -273 466 -266Q460 -258 460 -252V-250L463 -249Q467 -249 473 -255Q480 -262 486 -262H487Q479 -254 479 -237Q479 -216 494 -216Q497 -216 499 -217Q494 -214 494 -207Q497 -195 499 -184Q494 -174 477 -161Q456 -145 453 -131Q427 -156 401 -160Q399 -140 399 -126Q401 -94 402 -62Z"/>
</svg>