<svg xmlns="http://www.w3.org/2000/svg" viewBox="0 -800 1024 1024">
	<path fill="#000000" d="M889 -480H879Q879 -484 878 -488Q878 -502 891 -502H893Q891 -491 889 -480ZM88 -487Q90 -500 104 -500Q108 -500 112 -497Q111 -492 106 -488Q100 -483 100 -480Q91 -482 88 -487ZM716 -190Q726 -195 727 -209Q729 -223 732 -236Q730 -237 728 -238Q726 -232 723 -226Q683 -217 647 -207Q611 -197 591 -166Q654 -179 707 -202Q709 -199 710 -195Q712 -191 716 -190ZM698 -601Q669 -595 652 -577Q636 -558 621 -538Q625 -537 627 -533Q609 -531 609 -515Q648 -523 690 -536Q694 -568 698 -601ZM717 -283V-280Q717 -271 723 -267Q729 -264 735 -259Q736 -267 744 -325H741Q710 -316 675 -306Q640 -296 609 -279Q581 -264 581 -248V-247Q620 -265 695 -286V-283Q695 -280 698 -277H699Q703 -277 706 -280Q710 -284 713 -284ZM255 -376H263Q311 -376 338 -349Q341 -335 354 -325Q355 -315 362 -295Q370 -272 370 -260Q370 -249 366 -241Q366 -239 368 -239Q371 -239 371 -236Q361 -228 354 -214Q351 -215 347 -215Q324 -211 308 -198Q286 -205 263 -216Q252 -232 241 -249Q230 -266 211 -274Q213 -277 213 -284Q211 -302 195 -303Q193 -303 187 -301Q199 -314 202 -337Q205 -356 225 -358H227Q223 -369 218 -380Q224 -373 232 -373Q244 -374 255 -376ZM372 -517H377Q383 -517 384 -515Q371 -507 363 -488Q358 -475 353 -449Q332 -428 298 -428Q236 -433 199 -472Q194 -479 189 -485Q185 -492 178 -492Q171 -492 165 -487Q166 -495 175 -505Q181 -512 183 -518Q181 -521 178 -524Q144 -521 121 -508Q124 -515 143 -533Q156 -546 163 -556Q157 -572 151 -589Q133 -595 124 -596Q132 -603 147 -606V-614Q147 -650 134 -658L136 -659Q144 -656 151 -650Q157 -656 169 -656Q179 -655 189 -655Q192 -659 193 -674Q194 -691 199 -695Q200 -669 214 -656Q228 -642 243 -632Q257 -648 267 -665L268 -662Q265 -649 262 -637Q262 -635 264 -629Q278 -613 304 -613Q319 -639 332 -649Q318 -626 318 -613Q318 -606 323 -599Q326 -602 327 -606Q329 -610 334 -610H335V-607Q335 -599 332 -595Q343 -583 356 -550Q365 -528 372 -517ZM283 -22V-21Q283 -18 286 -17Q289 -16 289 -14L288 -12Q270 -4 252 3Q234 9 224 23Q220 28 217 40Q213 56 205 62Q196 65 185 65Q143 64 115 41Q89 7 88 -53V-64Q90 -84 101 -95Q112 -107 124 -118Q130 -126 135 -136Q141 -147 151 -150Q141 -142 141 -120Q141 -113 143 -107Q269 -152 396 -207Q399 -204 402 -202Q384 -191 363 -183Q341 -175 332 -155L336 -154Q341 -154 350 -161Q364 -171 374 -171Q377 -170 380 -170Q360 -161 355 -157Q343 -148 338 -135Q341 -131 343 -128V-127Q354 -130 365 -133Q355 -127 346 -118Q351 -95 374 -85Q306 -50 283 -22ZM797 106H795Q760 105 740 89Q721 73 701 56Q693 27 676 15V14Q678 11 679 8Q672 3 652 -4Q636 -9 631 -13Q652 -11 673 -9Q679 -9 682 -10Q670 -23 650 -28Q631 -33 614 -41H617Q627 -41 645 -37Q668 -32 680 -32H683Q672 -40 642 -46Q611 -53 600 -60H608Q638 -55 668 -51H673Q700 -54 705 -77Q711 -100 717 -126Q640 -120 587 -91Q588 -84 588 -71Q587 -42 578 -23Q569 -4 559 14Q539 9 538 9Q530 9 525 17Q499 -6 463 -22Q461 -52 442 -52Q447 -56 457 -57Q464 -79 464 -106Q464 -145 449 -199Q437 -246 425 -261Q415 -271 402 -281Q389 -292 383 -305Q376 -322 376 -343Q376 -364 384 -383Q376 -398 372 -417Q372 -422 375 -428Q381 -421 386 -413Q391 -405 399 -400Q401 -404 401 -405Q399 -412 396 -420H397Q403 -420 413 -412Q423 -404 431 -403H434Q447 -404 460 -406H463Q490 -403 520 -389Q543 -379 563 -358Q565 -357 569 -357Q580 -360 590 -367Q617 -374 643 -382Q667 -394 695 -397H698Q690 -403 679 -408Q669 -413 665 -425Q659 -425 652 -426Q629 -426 605 -416Q593 -411 566 -397Q547 -405 543 -405Q541 -405 535 -403Q515 -411 505 -430Q494 -450 481 -471Q470 -486 456 -501Q442 -516 441 -536Q441 -546 445 -555Q437 -568 437 -579Q437 -603 469 -635Q481 -635 486 -632Q511 -641 535 -644Q555 -651 573 -663Q590 -675 608 -685Q646 -706 679 -728Q679 -729 674 -731Q671 -732 671 -736L672 -739Q675 -738 677 -737Q696 -763 714 -774Q736 -787 771 -787H779Q797 -777 814 -766Q822 -770 829 -773H831L832 -771Q830 -767 828 -763Q828 -760 831 -759H832Q838 -759 849 -768Q862 -779 870 -779Q875 -779 877 -778Q875 -771 862 -765Q852 -761 849 -756Q847 -750 844 -745Q848 -738 859 -738Q864 -738 868 -739H869Q872 -739 872 -735Q871 -732 873 -731Q877 -734 889 -738Q893 -738 895 -737V-736Q890 -730 885 -715Q885 -708 893 -704Q900 -708 907 -712Q903 -700 903 -675V-644Q903 -618 896 -602Q884 -604 878 -604Q844 -604 823 -572Q814 -558 793 -505Q783 -482 774 -461Q764 -440 763 -422V-420Q767 -420 767 -418Q775 -423 779 -433H782Q789 -433 804 -440Q825 -450 837 -451Q846 -450 854 -449H856Q863 -452 868 -458Q872 -464 876 -468L877 -465Q877 -462 876 -459Q876 -455 879 -452Q900 -465 923 -475Q911 -468 911 -449Q911 -445 913 -437Q920 -433 926 -430Q923 -418 923 -408Q923 -384 941 -364V-343Q941 -332 945 -328Q941 -315 936 -302Q917 -296 914 -285Q904 -287 895 -287Q881 -287 876 -283Q835 -226 831 -72Q830 -66 830 -54V-46Q837 -28 843 -10V-8Q841 5 838 17Q841 27 844 37V39Q843 57 833 71Q823 84 817 96Q814 96 811 95Q800 95 797 106Z"/>
</svg>