<svg xmlns="http://www.w3.org/2000/svg" viewBox="0 -800 1024 1024">
	<path fill="#000000" d="M22 -193H24Q28 -192 31 -191Q32 -181 33 -172Q33 -168 32 -165Q24 -169 22 -193ZM681 -338V-340Q676 -337 668 -333Q660 -330 659 -324Q659 -321 662 -318Q662 -324 670 -324Q673 -323 676 -323Q679 -330 681 -338ZM918 -728H921Q924 -723 926 -719Q921 -715 905 -708Q904 -710 904 -713Q904 -718 908 -723Q912 -728 918 -728ZM631 -272H629Q620 -278 610 -296Q608 -294 608 -292Q611 -286 613 -281Q612 -278 612 -274Q612 -264 623 -264Q653 -270 679 -277Q672 -282 668 -282Q664 -282 652 -277Q640 -272 631 -272ZM725 -289H727Q740 -319 753 -350L751 -353H750Q717 -324 717 -287Q723 -289 725 -289ZM743 -406H744Q749 -408 753 -411L755 -410Q754 -407 754 -401Q757 -386 762 -372Q784 -426 785 -430Q755 -430 733 -416Q734 -413 738 -411Q743 -408 743 -406ZM617 -85Q617 -74 620 -71Q655 -78 690 -85Q695 -95 700 -105L699 -107Q650 -102 617 -85ZM737 -234Q731 -240 725 -240Q722 -240 717 -237Q636 -229 579 -191Q610 -194 672 -215Q713 -229 737 -234ZM622 -366H624Q631 -364 637 -362Q644 -374 673 -386Q702 -398 706 -410Q673 -400 643 -390Q613 -379 592 -355Q596 -339 605 -328Q605 -354 622 -366ZM739 -185Q703 -179 660 -164Q647 -161 631 -156Q611 -151 609 -139Q609 -136 610 -134Q620 -136 655 -145Q701 -157 729 -160Q733 -173 739 -185ZM708 -14Q700 -28 691 -43Q663 -39 640 -32Q621 -28 608 -24Q595 -20 588 -7Q581 -4 573 -2Q638 -13 708 -14ZM872 -663H875Q881 -663 888 -669Q893 -673 897 -674Q889 -663 886 -648Q887 -645 887 -642Q887 -638 892 -638Q899 -638 900 -641Q895 -619 890 -592Q885 -565 873 -547Q837 -543 759 -515Q693 -487 620 -461Q591 -452 580 -446Q563 -431 548 -424Q545 -423 539 -423Q517 -425 506 -445Q495 -464 479 -473Q475 -484 475 -495Q480 -526 484 -558V-565Q512 -595 543 -611Q543 -607 542 -604Q542 -600 545 -594Q556 -598 587 -604Q624 -611 638 -617V-629Q638 -675 622 -691V-693Q622 -707 616 -713Q610 -720 604 -726Q593 -727 582 -729Q607 -746 626 -769Q647 -796 675 -816Q680 -811 693 -807Q705 -803 709 -800Q714 -793 718 -786Q723 -780 740 -768Q766 -750 767 -740V-739Q767 -730 756 -714Q749 -704 747 -698Q737 -677 737 -648Q753 -651 793 -670Q825 -685 844 -691V-682Q852 -684 867 -693Q884 -704 895 -704H897Q895 -699 884 -691Q870 -680 870 -672Q870 -666 872 -663ZM928 94H926Q903 89 879 83Q844 77 737 71Q723 71 709 70Q676 70 622 74Q551 79 512 114H508Q480 112 466 96Q452 79 434 67Q432 59 432 56Q432 46 442 35Q453 23 453 13Q476 -9 505 -23Q500 -17 495 -12Q490 -6 490 3V5Q495 7 506 7Q537 3 568 -1H571Q570 -2 566 -2H552Q525 -24 514 -62Q504 -100 484 -128V-135Q484 -160 491 -190Q496 -185 497 -178Q517 -190 540 -200Q526 -246 497 -281Q475 -285 463 -307Q453 -328 443 -350Q416 -345 394 -334V-331Q393 -324 392 -318V-315Q414 -307 428 -293Q432 -295 437 -301Q444 -308 450 -309Q447 -295 441 -284Q443 -281 449 -277Q459 -279 475 -289Q475 -286 468 -280Q459 -272 458 -266Q462 -257 465 -254Q469 -249 475 -249Q476 -249 482 -251Q477 -241 477 -232Q477 -223 484 -221Q477 -216 471 -195Q465 -174 455 -168Q455 -154 452 -151Q447 -152 448 -157Q448 -163 446 -167Q418 -170 391 -176Q389 -162 389 -154Q394 -102 401 -56Q402 -45 402 -34Q402 -20 401 -7Q401 28 407 47Q401 61 396 75Q391 89 381 97Q373 96 364 94Q358 97 354 110Q349 89 320 80V73Q305 66 290 39Q276 13 265 7Q278 -27 289 -92Q295 -128 302 -182Q248 -137 209 -79Q169 -20 130 38Q102 37 81 16Q76 18 70 20H69L68 17Q71 13 74 8V4Q74 -6 61 -26Q51 -41 50 -49V-51Q53 -63 55 -76Q55 -91 45 -119Q36 -144 35 -158Q42 -152 49 -131Q56 -110 65 -103Q61 -115 49 -146Q33 -186 28 -211Q41 -189 52 -164Q62 -138 80 -121Q80 -127 75 -137Q68 -153 68 -163V-165Q79 -138 98 -119Q185 -160 278 -266Q296 -285 299 -299H295Q279 -298 263 -291Q246 -283 229 -275Q210 -267 189 -260Q167 -252 154 -240Q147 -231 142 -222Q137 -213 124 -209Q120 -208 114 -208Q85 -208 65 -248Q46 -249 34 -267Q23 -283 23 -304Q23 -327 35 -344V-345Q33 -350 31 -355V-357Q33 -398 60 -417Q87 -436 118 -452Q137 -463 153 -475Q170 -486 187 -487Q181 -478 163 -465Q140 -449 134 -435Q140 -435 152 -445Q165 -456 176 -456Q172 -450 170 -441Q202 -450 238 -461Q273 -472 302 -487Q299 -511 295 -536V-539Q278 -564 278 -591Q278 -603 280 -610Q293 -623 299 -625Q315 -652 353 -652Q373 -652 389 -642Q397 -634 399 -625Q401 -616 404 -606Q409 -595 417 -580Q425 -564 426 -545Q422 -540 420 -533Q421 -529 428 -524Q441 -529 458 -539V-538Q458 -536 454 -531Q449 -525 449 -521Q449 -518 450 -516L452 -514Q457 -515 461 -517Q463 -517 465 -515Q463 -507 463 -504Q463 -494 475 -475Q469 -459 469 -435V-398Q478 -402 491 -410Q503 -418 518 -419H521Q526 -417 530 -416Q535 -415 543 -415Q558 -415 571 -422Q584 -429 601 -437Q622 -443 643 -449Q683 -463 723 -478Q753 -488 780 -496Q807 -504 828 -522Q841 -527 852 -527Q865 -527 875 -518Q895 -527 897 -527Q894 -520 891 -513V-512Q897 -515 906 -528Q914 -540 921 -544Q920 -536 915 -526Q908 -512 908 -506Q908 -500 909 -497L912 -496Q914 -496 916 -499Q920 -504 923 -504H926Q925 -500 925 -493Q925 -484 931 -464Q936 -448 936 -437Q936 -425 931 -415H923Q918 -410 918 -403V-400Q892 -397 879 -379Q866 -362 854 -341Q854 -340 851 -337Q838 -322 826 -305Q815 -289 813 -268Q838 -257 850 -245Q856 -249 863 -251H865L867 -249Q865 -243 862 -238V-237Q869 -240 877 -253Q885 -264 893 -266Q889 -258 883 -247Q877 -237 876 -221L878 -220Q884 -223 890 -227H891Q891 -222 890 -217Q893 -195 895 -173Q895 -159 890 -149Q820 -127 794 -29Q806 -24 818 -24Q857 -29 894 -37Q903 -50 908 -70Q912 -67 912 -64Q911 -55 909 -46V-43L910 -42Q912 -46 914 -50Q917 -49 921 -43Q926 -36 933 -36Q937 -36 940 -37Q942 -35 942 -32V-29Q942 -22 946 -20H970Q959 -9 959 -5Q959 -2 962 2L963 3Q967 2 971 1H973Q967 9 967 24Q967 34 968 40Q967 45 963 45Q959 46 958 49Q957 51 957 55Q957 60 959 70Q946 94 928 94Z"/>
</svg>