<svg xmlns="http://www.w3.org/2000/svg" viewBox="0 -800 1024 1024">
	<path fill="#000000" d="M554 -394L550 -376Q549 -377 547 -379Q544 -377 540 -375Q540 -386 541 -390Q543 -396 547 -402L553 -400L555 -401Q555 -397 554 -394ZM530 -651H535Q532 -646 528 -641Q525 -636 517 -634V-637Q517 -651 530 -651ZM553 -130Q553 -127 552 -124Q551 -118 550 -112Q540 -109 537 -98L535 -99Q525 -98 514 -97H511Q500 -100 484 -114Q473 -124 467 -126H465Q463 -137 452 -157Q436 -185 440 -202L429 -217Q416 -227 411 -242Q398 -266 362 -328Q349 -326 336 -324Q310 -316 284 -309Q262 -304 239 -299Q235 -294 230 -290V-284Q231 -281 232 -278Q219 -274 216 -262Q264 -280 318 -317L322 -318Q337 -313 351 -308H352Q369 -282 369 -251Q369 -225 351 -215Q353 -210 362 -207Q370 -205 373 -202Q377 -192 381 -183Q392 -165 392 -159Q392 -154 387 -142Q357 -126 322 -117Q287 -109 269 -80Q265 -84 257 -84Q251 -83 244 -83Q240 -83 238 -84Q225 -87 213 -110Q205 -125 198 -131H207Q204 -140 186 -142Q166 -145 164 -153Q165 -155 173 -155H188Q230 -156 265 -173Q299 -189 330 -206Q267 -202 246 -179Q208 -183 191 -225L187 -224Q183 -210 178 -197Q175 -189 160 -169Q152 -91 155 -71Q159 -78 166 -113Q168 -96 166 -77Q164 -58 175 -47Q204 -54 232 -61Q280 -79 328 -98L352 -105Q361 -110 370 -116Q376 -116 382 -116Q399 -119 409 -129Q420 -140 424 -161L425 -167Q428 -164 428 -154Q428 -144 432 -141Q448 -137 455 -120Q461 -105 458 -87Q455 -74 448 -67Q427 -48 411 -43Q386 -37 343 -13Q314 3 296 9L233 41Q227 50 211 60Q194 70 189 80Q187 80 184 79Q177 78 174 87V90Q172 88 170 88Q164 87 158 93Q129 74 117 52L114 50Q109 50 103 50H101Q102 44 107 43Q112 42 116 40Q108 26 112 0Q121 -32 130 -65L131 -73Q133 -60 132 -47Q138 -51 138 -57Q139 -70 139 -84Q140 -90 141 -96Q146 -114 150 -133Q151 -139 151 -146Q152 -150 152 -158Q148 -151 143 -144Q137 -123 127 -100Q123 -91 118 -78Q112 -66 105 -63H103Q96 -62 87 -71Q78 -80 73 -79Q70 -79 68 -78V-81Q67 -87 70 -93Q62 -104 53 -116Q58 -125 55 -138Q53 -151 53 -165Q57 -180 61 -195Q61 -220 61 -246Q65 -243 67 -234Q68 -219 69 -204Q71 -195 75 -192Q116 -229 131 -259Q133 -260 140 -271H139Q126 -271 117 -274Q102 -274 92 -294Q77 -324 75 -326Q74 -327 82 -352Q90 -377 88 -381Q95 -382 104 -388Q116 -396 127 -397Q159 -398 191 -400Q211 -402 221 -404Q236 -433 239 -449Q204 -441 196 -434H194Q184 -430 173 -426H171Q138 -426 117 -445Q110 -463 104 -477Q97 -492 96 -509Q96 -527 102 -535Q94 -551 92 -553Q114 -562 114 -571Q114 -580 129 -599Q140 -611 151 -622Q161 -633 175 -637L202 -668Q200 -670 200 -673Q203 -681 209 -690Q205 -697 205 -703Q208 -719 211 -735Q211 -744 208 -748Q225 -756 253 -763Q287 -771 301 -780L303 -781Q319 -777 332 -765Q338 -758 353 -723Q369 -688 369 -675Q369 -665 363 -656V-654Q364 -648 365 -643Q354 -630 354 -622V-618Q352 -614 343 -608Q335 -602 333 -596Q323 -598 315 -598Q280 -598 268 -577Q245 -575 225 -549Q296 -561 363 -570Q362 -574 362 -580Q362 -591 368 -605Q374 -619 374 -627V-633L376 -634Q381 -630 388 -627H389Q403 -632 416 -634H421Q424 -636 425 -644Q426 -654 433 -654H434Q433 -651 433 -645Q434 -633 441 -625Q448 -618 455 -612Q466 -615 474 -619Q467 -614 467 -605Q467 -600 471 -596Q490 -611 507 -627V-626Q504 -617 493 -607Q487 -590 480 -574Q481 -569 488 -569Q495 -569 499 -573L500 -571Q498 -566 496 -561Q507 -552 513 -552H518Q509 -546 509 -529Q512 -504 517 -487L514 -486Q508 -488 502 -490Q498 -488 493 -480Q490 -475 487 -472Q490 -465 493 -458Q489 -462 482 -462Q440 -456 413 -477L397 -475Q387 -474 337 -464Q339 -456 339 -453Q335 -441 330 -430Q341 -432 352 -435Q373 -443 388 -443Q399 -443 404 -438L429 -446Q444 -455 463 -451Q474 -448 493 -438Q507 -444 514 -444H519Q517 -440 509 -436Q500 -432 498 -428Q500 -419 501 -410Q502 -409 506 -409H516Q505 -390 496 -369Q486 -348 463 -341Q456 -339 449 -338Q457 -329 471 -311Q475 -304 480 -296Q484 -289 493 -286L496 -285Q500 -288 505 -300Q511 -314 516 -316Q515 -315 512 -309Q510 -298 516 -292Q522 -298 525 -313Q528 -326 530 -340Q534 -357 541 -363Q543 -351 538 -329L531 -300Q528 -289 528 -281Q534 -285 535 -289Q539 -304 543 -318Q546 -331 554 -338Q553 -321 545 -287Q551 -293 561 -301V-300Q561 -296 554 -288Q547 -280 547 -275Q547 -274 549 -268Q560 -271 570 -275Q575 -275 580 -270L591 -275Q592 -283 605 -283Q610 -282 615 -282L619 -283Q625 -309 631 -336Q625 -335 617 -328Q610 -322 604 -321H603Q576 -323 573 -359V-363Q556 -371 556 -400Q556 -424 570 -432Q569 -435 569 -440Q569 -461 593 -468Q602 -471 634 -472V-475Q634 -481 630 -483Q625 -485 622 -487Q616 -481 609 -481Q603 -481 597 -482Q591 -482 588 -480Q590 -486 590 -487Q590 -495 582 -501Q574 -507 564 -507Q555 -507 549 -501V-502Q549 -508 554 -514Q559 -519 559 -522Q553 -525 547 -525Q539 -525 519 -511Q536 -537 548 -540Q551 -567 551 -569Q551 -585 544 -591Q579 -643 644 -684L665 -703Q665 -713 681 -726Q696 -739 696 -748V-749Q695 -756 685 -757Q677 -758 674 -762Q710 -780 760 -780Q801 -780 818 -763Q826 -714 844 -686Q836 -661 829 -635Q822 -609 807 -591Q802 -593 797 -595Q769 -588 743 -579Q716 -570 702 -549Q703 -545 712 -545H723Q727 -531 727 -527L781 -533L782 -531Q782 -528 781 -525L783 -522Q791 -524 801 -529Q810 -534 823 -535Q822 -531 812 -524Q795 -512 795 -502V-499Q797 -498 800 -498Q806 -498 814 -503Q824 -509 828 -509Q831 -508 833 -508Q828 -501 818 -491Q807 -482 806 -469V-465Q808 -457 815 -450Q821 -453 824 -453Q826 -453 830 -451Q811 -441 801 -422Q791 -403 783 -382Q742 -380 723 -370Q698 -356 698 -323Q698 -314 699 -309Q720 -314 740 -319Q767 -325 770 -325Q778 -325 783 -321L794 -330Q838 -353 857 -357V-352Q857 -339 869 -325Q891 -331 915 -333Q904 -328 893 -322Q882 -317 880 -303Q882 -301 900 -298Q892 -295 886 -286V-281Q887 -276 887 -271Q879 -264 873 -244Q867 -225 862 -219Q826 -218 752 -198Q704 -188 666 -171Q647 -155 645 -119Q645 -104 651 -97Q662 -81 726 -81Q737 -81 785 -84Q836 -84 866 -90Q874 -94 878 -105Q882 -101 886 -97Q898 -114 905 -166Q910 -202 915 -217Q917 -205 917 -199Q915 -174 913 -150Q913 -132 921 -121Q924 -158 926 -195Q928 -233 938 -261Q937 -213 935 -165Q935 -130 939 -109Q941 -125 942 -142Q943 -159 948 -171Q950 -163 950 -159Q950 -152 948 -132V-130Q948 -109 963 -65Q976 -27 976 -10Q976 0 975 2Q973 11 955 24Q942 33 938 39Q918 42 897 45Q891 45 883 42L869 47Q781 53 764 53Q730 53 699 48L686 47Q683 48 676 48Q628 48 599 21Q569 -7 569 -53Q570 -59 570 -66Q571 -78 576 -100Q583 -130 583 -146V-150Q566 -143 556 -129Z"/>
</svg>