<svg xmlns="http://www.w3.org/2000/svg" viewBox="0 -800 1024 1024">
	<path fill="#000000" d="M861 -194L857 -204Q851 -222 864 -227L865 -228Q869 -207 861 -194ZM138 -421H135Q137 -434 149 -436L153 -435Q153 -421 138 -421ZM304 -311V-302Q304 -284 311 -278Q310 -274 310 -267Q313 -251 315 -235Q315 -227 308 -217Q295 -202 274 -202Q241 -202 215 -228H213Q208 -227 202 -226H200Q186 -254 163 -256V-258Q165 -265 169 -271Q163 -279 158 -281H156Q149 -279 141 -277H139Q140 -283 148 -287Q154 -290 155 -293Q150 -313 145 -334V-338Q146 -344 153 -352Q160 -360 160 -364Q160 -366 158 -370L161 -371Q168 -368 174 -366H176Q179 -367 179 -373V-377Q191 -377 240 -368Q256 -354 270 -337Q284 -321 304 -311ZM321 -514Q326 -514 330 -502Q335 -489 342 -487Q330 -451 330 -436Q330 -420 336 -412H335Q329 -412 324 -417Q319 -422 316 -422H315Q303 -420 298 -403Q291 -400 283 -400Q270 -400 244 -414Q224 -425 213 -425Q207 -425 201 -422V-425Q203 -432 204 -439Q193 -449 173 -452Q169 -451 165 -446Q160 -441 155 -440Q158 -449 161 -459V-461H155Q126 -459 105 -441Q83 -423 65 -406Q69 -422 93 -447Q118 -473 123 -493Q118 -497 115 -510Q112 -524 107 -527Q103 -530 96 -530Q80 -526 63 -523Q65 -533 75 -536Q85 -539 93 -544Q93 -548 87 -550Q80 -552 80 -556Q97 -560 98 -577Q98 -593 83 -593Q84 -596 90 -597Q95 -598 96 -599Q102 -625 102 -632Q102 -639 99 -653Q108 -649 116 -642Q123 -636 136 -635H138Q141 -637 143 -646Q145 -654 148 -656Q154 -647 157 -632H162Q178 -630 191 -625Q194 -628 196 -632Q201 -631 205 -624Q209 -618 213 -617Q220 -618 225 -631Q229 -642 234 -644Q232 -636 232 -634Q232 -620 244 -611Q255 -603 270 -603Q279 -603 286 -607Q288 -605 295 -589Q300 -578 308 -578H311Q309 -572 309 -569Q313 -554 316 -540Q316 -535 314 -532ZM337 -64Q377 -60 391 -60Q413 -60 427 -65Q442 -71 457 -87Q472 -104 484 -116L539 -168Q515 -210 506 -222Q507 -225 507 -232Q503 -252 498 -273Q498 -280 500 -284Q503 -283 505 -276Q507 -270 510 -269Q522 -273 540 -273Q581 -273 599 -251Q651 -312 699 -380Q567 -327 447 -264Q423 -272 412 -284Q407 -290 402 -308Q398 -323 392 -329Q381 -336 371 -347Q367 -354 367 -366Q367 -379 371 -399Q380 -417 388 -437V-442Q388 -451 387 -460Q387 -465 388 -467Q389 -472 394 -479Q401 -488 401 -494V-498Q428 -514 447 -540Q451 -539 453 -525Q461 -521 471 -521Q486 -521 546 -544Q611 -569 628 -569H636L676 -577Q685 -582 694 -587V-588Q695 -596 701 -598Q707 -601 713 -605Q717 -604 721 -604Q736 -604 758 -617Q777 -628 789 -630Q804 -650 818 -674Q819 -672 819 -669Q815 -654 811 -639V-635Q816 -625 837 -612Q851 -603 857 -596Q867 -602 876 -602H879Q873 -599 873 -587Q873 -581 874 -579Q881 -580 887 -587Q897 -597 907 -597H910Q906 -591 900 -580Q893 -569 892 -555Q892 -543 899 -536H901Q904 -536 908 -540Q911 -543 912 -543L914 -542Q909 -534 909 -524Q909 -514 920 -497Q934 -475 934 -460V-459Q930 -444 926 -429L920 -384Q904 -381 840 -359L785 -314V-311Q784 -303 778 -298Q771 -293 766 -288Q752 -268 737 -248Q729 -241 720 -234Q703 -214 688 -191Q699 -173 738 -134Q774 -101 811 -87Q816 -90 818 -105Q819 -118 823 -122Q828 -116 828 -96Q828 -77 834 -71Q844 -111 844 -170Q844 -205 843 -240Q849 -233 850 -220Q851 -207 851 -197Q852 -162 852 -122Q851 -83 859 -48Q862 -59 862 -83Q861 -122 859 -161Q859 -180 860 -189Q864 -172 870 -123Q876 -71 884 -45Q887 -48 887 -56Q887 -66 886 -77V-80Q892 -69 892 -56V-46Q892 -37 893 -32Q896 -22 907 -2Q922 24 922 41Q922 56 914 71Q895 76 886 90Q877 105 860 113Q829 109 826 108Q807 103 799 93H797Q783 93 773 85Q768 81 756 67Q742 48 742 41V39L717 13Q688 -9 665 -35Q641 -62 616 -87Q596 -72 582 -51Q567 -31 552 -12Q521 30 490 71V84Q487 85 479 85Q446 82 433 57Q432 48 430 39Q422 26 411 12Q407 0 406 -11Q404 -23 395 -29Q381 -30 375 -36Q377 -39 383 -39Q391 -38 399 -37Q402 -37 405 -38Q395 -46 366 -51Q341 -55 331 -62Q292 -51 240 -31Q195 -11 173 32Q166 50 157 67Q148 84 127 85Q119 85 110 82Q84 71 73 44Q63 20 42 4Q39 -6 39 -15Q39 -35 50 -55Q46 -63 46 -71Q47 -89 63 -102Q78 -116 92 -130Q96 -136 98 -141Q100 -146 107 -148Q109 -147 109 -143Q108 -134 106 -125Q106 -123 108 -119Q114 -119 125 -124Q137 -129 143 -129Q146 -129 152 -127L187 -131Q190 -145 204 -150Q218 -155 231 -159Q258 -167 284 -175Q309 -186 334 -199Q359 -213 387 -218Q382 -210 361 -200Q335 -188 329 -176Q347 -181 349 -181H352Q348 -170 338 -166Q326 -162 324 -146V-143Q326 -141 329 -141Q332 -141 335 -142Q338 -142 340 -140Q326 -128 324 -122Q326 -117 327 -116Q330 -113 334 -113Q328 -107 328 -101Q328 -97 333 -87Q338 -77 338 -69Q338 -66 337 -64Z"/>
</svg>