<svg xmlns="http://www.w3.org/2000/svg" viewBox="0 -800 1024 1024">
	<path fill="#000000" d="M925 -518V-516Q922 -504 914 -493Q908 -494 908 -501Q908 -507 912 -512Q916 -518 922 -518ZM509 -87H506Q489 -88 488 -103Q488 -107 489 -109Q498 -109 503 -102Q506 -97 509 -87ZM738 -231V-223Q768 -233 784 -270Q785 -272 805 -341H801Q781 -339 739 -317Q736 -302 736 -286Q737 -258 738 -231ZM380 43H379Q375 43 373 40Q371 37 369 37Q365 41 363 51Q358 34 334 19Q306 2 300 -9V-12Q300 -22 292 -29Q281 -39 280 -41Q301 -51 304 -81Q306 -112 307 -137Q265 -110 226 -52Q208 -28 188 -4Q169 19 156 47Q131 37 119 35Q114 25 98 11H96Q92 11 88 13Q89 10 89 5Q89 -6 73 -20Q61 -31 61 -38Q62 -46 67 -50Q73 -55 78 -61Q71 -94 57 -124Q69 -112 77 -97Q86 -82 106 -79Q105 -84 97 -95Q90 -104 88 -110Q98 -109 108 -98Q116 -89 122 -87Q137 -94 162 -119Q182 -134 202 -150Q203 -151 248 -202Q263 -219 276 -236Q289 -253 307 -265Q308 -271 312 -283Q267 -275 225 -258Q183 -241 143 -229Q134 -224 122 -207Q113 -194 104 -188Q95 -193 75 -198Q43 -205 36 -216Q31 -223 31 -237Q31 -260 42 -280Q41 -286 39 -291Q38 -297 33 -299V-301Q33 -315 46 -338Q55 -354 57 -362Q60 -378 67 -391Q68 -392 89 -404Q97 -410 104 -417Q111 -423 121 -424Q120 -419 112 -413Q98 -402 98 -391V-386H100Q107 -386 115 -393Q122 -399 125 -400L128 -399Q126 -395 123 -391L124 -388Q129 -386 140 -386Q165 -386 224 -412Q286 -439 307 -445Q303 -477 301 -482Q293 -499 289 -515Q291 -526 300 -534Q310 -542 316 -550Q324 -563 331 -576Q338 -589 350 -596Q378 -579 390 -560L409 -557Q417 -541 427 -528Q438 -515 439 -491H437Q419 -491 419 -466Q420 -462 420 -458Q424 -459 430 -464Q436 -469 442 -469H444V-455Q446 -449 453 -436Q463 -418 465 -404Q467 -399 471 -398Q470 -392 462 -389L461 -388Q461 -384 464 -384Q468 -383 468 -380V-379Q459 -373 452 -365V-364Q452 -361 455 -360Q458 -360 458 -357V-355Q451 -352 446 -346Q447 -342 454 -342H458Q461 -342 465 -340Q458 -333 434 -328Q409 -322 402 -313Q406 -309 412 -298Q419 -283 427 -280Q433 -281 441 -292Q449 -302 457 -304Q456 -298 450 -290Q442 -278 442 -271Q442 -268 444 -262Q448 -258 452 -258Q455 -258 458 -259Q451 -255 451 -243Q451 -225 463 -220Q461 -215 461 -205Q461 -188 468 -181H465Q461 -181 456 -182L452 -181Q448 -179 447 -168Q446 -160 445 -157L443 -156Q440 -156 436 -163Q431 -171 429 -172Q426 -171 422 -171Q416 -171 400 -178Q406 -98 409 -24Q409 -1 408 10Q390 25 380 43ZM714 113H711Q704 113 696 112Q691 112 686 115Q664 102 649 83Q633 63 615 47Q604 38 593 30Q582 22 578 8Q594 16 609 23Q603 10 579 -7Q554 -25 548 -41Q572 -25 595 -9Q589 -20 578 -29Q566 -37 554 -47Q541 -56 530 -64Q519 -73 515 -85Q529 -85 548 -72Q570 -53 595 -34Q613 -23 624 -23Q637 -23 645 -38Q652 -51 654 -107Q659 -184 664 -262V-269Q632 -260 611 -236Q624 -217 624 -179Q624 -154 617 -137H612Q599 -137 593 -131Q578 -131 553 -147Q528 -163 512 -163L511 -166Q514 -172 516 -178Q503 -208 485 -227Q479 -254 473 -263Q478 -301 482 -340H483Q488 -340 492 -334Q494 -330 497 -329H507Q529 -329 536 -323Q554 -337 594 -353Q643 -372 657 -379Q656 -388 649 -395Q653 -405 657 -415Q623 -412 589 -388Q569 -372 557 -352Q553 -351 545 -351Q497 -355 488 -400V-418Q487 -424 478 -434Q465 -450 463 -460V-464Q463 -482 474 -499Q472 -505 472 -509Q475 -531 489 -547Q492 -554 495 -560Q497 -566 503 -567Q504 -565 504 -562Q502 -552 500 -542Q531 -543 563 -558Q595 -573 626 -586Q617 -650 600 -680Q590 -679 578 -669Q571 -663 565 -661Q567 -673 574 -679Q582 -686 589 -692Q589 -712 578 -713Q587 -722 597 -748Q604 -768 612 -780Q629 -809 642 -809H646Q664 -809 680 -797Q682 -795 706 -773Q720 -760 734 -748Q758 -728 759 -721V-718Q759 -706 746 -683Q734 -661 732 -653V-636Q732 -625 731 -616Q806 -647 824 -658Q823 -654 818 -649Q811 -642 811 -637Q811 -633 812 -631L815 -630Q821 -633 832 -637L836 -636V-634Q836 -630 830 -626Q825 -622 824 -620H828Q843 -622 857 -625Q864 -625 867 -623Q861 -618 854 -614Q847 -609 846 -602Q846 -596 857 -583Q869 -568 871 -560Q876 -562 880 -565L883 -563L884 -561Q881 -554 877 -548Q875 -538 875 -530Q876 -520 876 -510Q876 -493 871 -484Q857 -484 854 -476Q848 -477 836 -477Q791 -477 741 -451Q742 -444 749 -438Q750 -437 760 -430Q758 -424 756 -418V-416Q819 -431 860 -460Q872 -456 883 -452Q888 -460 893 -469Q897 -477 907 -481Q900 -465 896 -446Q896 -444 898 -436Q903 -436 906 -445Q909 -455 916 -455Q914 -447 914 -439V-421Q921 -415 928 -407Q940 -392 947 -388Q944 -377 944 -372Q946 -357 956 -334Q963 -323 966 -314L965 -310Q962 -302 952 -296Q942 -291 934 -286Q919 -274 906 -242Q898 -221 888 -184Q876 -141 873 -119Q867 -118 861 -118H858Q849 -133 824 -133Q819 -147 800 -165Q782 -182 777 -194L748 -203Q750 -205 757 -205H772Q770 -217 746 -217H738Q734 -192 734 -159Q734 -66 766 10Q765 20 755 41Q746 60 744 69Q743 73 743 80Q743 87 742 90Q732 105 714 113Z"/>
</svg>