<svg xmlns="http://www.w3.org/2000/svg" viewBox="0 -800 1024 1024">
	<path fill="#000000" d="M174 -6Q166 -5 158 -4Q149 -4 148 -11Q155 -11 162 -12Q172 -12 174 -6ZM193 -496Q194 -505 203 -507Q213 -509 221 -512Q245 -525 280 -533Q285 -542 285 -554Q285 -586 253 -608Q257 -645 264 -655Q262 -662 257 -667Q252 -671 248 -677Q251 -678 255 -678Q266 -675 276 -673Q282 -675 282 -679Q281 -683 279 -688V-689Q289 -694 308 -709Q321 -720 330 -725Q354 -719 378 -713Q383 -701 397 -679Q416 -648 422 -631Q418 -601 408 -577H409Q416 -577 434 -587Q454 -598 464 -598Q462 -594 457 -588Q450 -580 450 -573V-571L452 -570Q456 -570 459 -571H461Q459 -561 459 -553Q459 -530 470 -525Q470 -498 469 -474Q467 -451 455 -437V-434Q456 -426 457 -419V-417Q398 -399 374 -376Q373 -359 372 -343Q372 -333 375 -324Q414 -347 460 -359Q454 -353 451 -341Q454 -335 460 -335Q464 -335 466 -336Q452 -310 452 -291Q452 -279 457 -272Q453 -267 453 -259Q455 -246 457 -233Q419 -224 386 -207Q376 -194 376 -172Q375 -151 374 -129V-113Q389 -47 389 -11Q389 36 369 63Q362 63 353 67Q346 70 341 70Q334 70 320 63Q306 56 297 56H295Q290 24 253 10Q245 7 186 -6Q193 -8 206 -8Q229 -5 251 -3Q233 -11 183 -17Q131 -24 110 -34H117Q137 -34 175 -28Q213 -22 230 -22Q240 -22 245 -23Q233 -35 208 -37Q230 -44 254 -47Q269 -66 275 -117Q232 -104 214 -60Q203 -58 191 -57Q185 -57 177 -60Q163 -70 148 -81Q127 -93 117 -101Q113 -108 113 -118Q113 -136 125 -148Q124 -153 124 -163Q125 -185 135 -197Q145 -208 158 -221Q168 -233 177 -240Q178 -239 178 -235Q177 -228 176 -221Q176 -217 177 -215Q190 -221 199 -231H208Q222 -245 243 -253Q263 -261 282 -272V-344Q266 -342 236 -324Q227 -319 215 -315Q202 -311 193 -303Q176 -286 162 -268Q147 -250 121 -249H113Q100 -253 88 -269Q77 -285 68 -295Q64 -299 48 -307Q31 -316 24 -325Q20 -334 20 -343Q20 -355 32 -379Q43 -401 43 -413V-416Q43 -428 42 -440Q42 -457 49 -465Q59 -472 68 -480Q81 -493 97 -509Q113 -526 136 -530Q128 -517 117 -508Q106 -498 104 -480H105Q109 -480 114 -487Q121 -497 128 -497V-483Q131 -482 133 -482Q144 -484 155 -487Q161 -487 164 -483ZM721 -290Q698 -277 675 -264Q684 -245 698 -239Q713 -266 721 -290ZM784 -21Q773 -23 760 -39Q748 -54 742 -57Q741 -61 739 -65Q729 -69 720 -86Q705 -69 688 -22Q675 14 667 28Q665 40 665 41V44Q653 49 645 49Q619 49 603 16Q592 -8 585 -50V-51Q585 -54 588 -54Q590 -54 592 -56Q590 -69 584 -89Q575 -117 575 -130Q586 -123 589 -108Q593 -94 606 -87Q624 -105 656 -156Q649 -171 625 -190Q606 -205 600 -213Q589 -205 584 -191Q579 -178 574 -163Q550 -113 530 -53Q527 -37 524 -20Q521 -4 512 6Q499 19 484 19Q463 15 441 1Q431 -9 425 -24V-27Q428 -33 431 -39V-43Q427 -64 413 -83Q413 -86 417 -88Q422 -90 422 -93Q421 -103 407 -111Q392 -119 389 -125H394Q413 -121 431 -117H433Q449 -117 459 -128Q468 -138 476 -152Q488 -181 511 -195L528 -229V-232Q531 -255 552 -302Q574 -349 584 -371Q574 -367 545 -343Q507 -312 501 -317Q492 -329 483 -341Q469 -355 467 -358Q462 -365 461 -381Q459 -415 465 -431Q476 -464 477 -466Q508 -547 508 -570Q508 -586 500 -599Q529 -636 563 -627Q573 -625 581 -611Q586 -611 591 -615Q594 -618 598 -618H599Q593 -612 593 -602Q597 -579 601 -556V-554Q589 -553 577 -527Q567 -506 563 -486Q641 -521 645 -522Q654 -559 660 -600Q648 -618 635 -633Q636 -635 636 -638Q636 -644 630 -653Q625 -660 625 -663V-664Q626 -680 640 -693Q653 -706 666 -721Q675 -733 685 -747Q696 -761 715 -762H716Q729 -762 741 -751Q754 -739 756 -724L765 -713Q779 -704 787 -684Q794 -664 802 -646Q795 -637 791 -611Q781 -600 770 -589Q759 -578 750 -563Q824 -590 892 -620Q891 -615 890 -610V-608Q919 -622 926 -627Q921 -621 913 -612Q904 -604 902 -591Q904 -589 907 -589Q915 -592 922 -595H923L924 -594Q921 -592 915 -583Q914 -581 914 -576Q914 -563 920 -557Q927 -561 930 -565L931 -563Q924 -540 924 -530Q924 -514 934 -505Q926 -485 926 -468V-462Q910 -461 899 -452Q894 -448 881 -433Q875 -436 868 -436Q850 -433 832 -430H829L790 -426Q755 -403 693 -377Q677 -367 657 -344Q740 -366 807 -407H830Q841 -407 846 -405Q851 -410 858 -412H860Q859 -406 857 -400L858 -397Q867 -401 878 -414Q889 -428 897 -432Q897 -424 887 -412Q875 -398 875 -388H877Q879 -388 882 -393Q885 -399 889 -399H891Q884 -385 884 -369Q884 -357 889 -354Q894 -352 905 -349Q900 -337 901 -315Q881 -305 863 -296Q845 -287 829 -273Q787 -234 765 -176Q815 -110 875 -87Q881 -91 881 -112Q881 -131 887 -132Q891 -103 895 -75Q904 -120 903 -178Q903 -203 909 -212Q913 -193 913 -167Q912 -130 911 -94Q911 -74 912 -65Q917 -75 917 -98Q917 -114 916 -130Q916 -144 917 -147Q917 -159 921 -159H922Q926 -158 926 -156Q925 -151 923 -147Q926 -117 929 -87Q931 -58 933 -54Q950 -24 958 6Q950 88 900 88H891Q884 87 875 81Q863 73 856 73H855Q848 59 830 41Q806 17 800 0ZM935 -195Q932 -179 923 -168Q919 -172 919 -179Q919 -196 930 -196Q933 -196 935 -195ZM970 -690Q974 -690 978 -687V-685Q978 -670 971 -663Q964 -656 956 -651H949Q939 -651 923 -658Q909 -664 900 -664Q894 -664 891 -663Q885 -678 868 -678Q855 -678 846 -665L858 -687Q857 -695 848 -702Q840 -700 802 -685Q805 -696 822 -705Q836 -712 840 -719Q840 -726 833 -735Q829 -740 828 -745H816Q830 -748 830 -772Q830 -784 829 -796Q837 -792 853 -792Q886 -792 895 -802V-798Q895 -794 898 -791Q905 -793 908 -798Q911 -804 914 -808L916 -806Q915 -801 913 -796L914 -793Q918 -782 928 -782Q933 -782 938 -787Q957 -765 972 -738Q981 -741 983 -741Q984 -741 988 -739Z"/>
</svg>