<svg xmlns="http://www.w3.org/2000/svg" viewBox="0 -800 1024 1024">
	<path fill="#000000" d="M945 -142Q943 -132 940 -122Q932 -123 932 -139Q932 -145 934 -151H937Q941 -151 944 -148Q945 -146 945 -142ZM934 -681Q922 -678 912 -669Q907 -664 898 -651Q902 -629 913 -612H917Q924 -612 927 -610Q912 -601 908 -570Q903 -547 903 -540Q903 -524 913 -513Q905 -515 895 -527Q888 -536 882 -539Q870 -535 870 -525Q870 -522 871 -520Q861 -522 851 -525Q846 -525 844 -523Q831 -529 819 -536Q808 -544 787 -545Q790 -550 792 -551Q780 -574 764 -597Q748 -620 746 -648Q746 -664 751 -674V-675Q750 -678 749 -682L750 -684H752Q756 -683 760 -683H762Q777 -702 777 -716Q777 -719 775 -725Q782 -723 792 -715Q799 -717 806 -732Q813 -746 821 -750Q818 -739 818 -729Q818 -712 830 -704Q848 -719 866 -734Q884 -749 911 -754Q886 -738 878 -730Q861 -713 856 -692Q858 -684 882 -684Q877 -677 871 -674Q875 -669 878 -665Q907 -679 934 -681ZM835 -771V-769Q833 -764 830 -760Q828 -762 824 -762Q820 -762 820 -760Q819 -761 819 -765Q819 -776 827 -776Q831 -776 834 -774ZM966 -686Q960 -680 950 -680Q945 -680 943 -683Q943 -690 956 -690Q964 -690 966 -686ZM607 -241Q609 -231 609 -227Q609 -206 594 -194Q558 -185 547 -185Q521 -185 505 -204Q479 -239 468 -278L456 -299Q447 -308 439 -322Q428 -311 428 -300Q429 -296 429 -293Q407 -283 399 -260Q391 -236 382 -215L377 -177Q378 -162 379 -147Q379 -139 378 -136Q375 -119 348 -95Q333 -83 323 -83Q315 -84 305 -97Q295 -109 294 -120V-134Q292 -141 284 -148Q275 -156 274 -163Q281 -160 288 -157Q289 -157 293 -159V-160Q293 -166 280 -171Q266 -176 265 -183Q278 -178 293 -176H295Q313 -218 323 -270Q309 -265 295 -260Q286 -254 274 -245Q263 -237 250 -236Q245 -236 242 -237Q238 -238 225 -254Q210 -272 210 -281V-282Q212 -288 214 -294Q212 -299 209 -304Q197 -298 197 -296Q198 -293 197 -286Q178 -274 175 -233Q183 -246 191 -248Q195 -249 211 -249Q220 -249 223 -248Q230 -246 243 -229Q255 -213 258 -204Q259 -202 259 -195Q259 -184 243 -158Q228 -133 226 -120Q224 -104 224 -95Q224 -75 232 -68Q256 -65 284 -65Q340 -65 438 -79Q445 -90 452 -108Q455 -106 456 -100Q457 -93 460 -92Q469 -144 478 -197Q482 -192 482 -179Q481 -157 479 -136Q479 -129 481 -123Q487 -134 487 -167Q487 -197 493 -208Q495 -193 497 -161Q499 -119 503 -103Q504 -108 507 -148Q513 -141 513 -129Q513 -118 514 -106Q517 -94 523 -82Q535 -71 542 -61Q550 -45 550 -14Q550 -7 536 31H532Q528 31 515 37Q506 41 499 42Q493 43 476 43H435Q422 43 314 46L268 42Q252 46 231 46Q187 46 166 21Q139 -1 139 -27V-34Q142 -66 156 -97Q172 -148 172 -164V-167Q168 -184 164 -202V-208Q166 -217 170 -223Q149 -215 146 -215H144Q133 -217 128 -226Q123 -234 120 -239Q113 -237 111 -226Q102 -227 90 -237Q86 -263 81 -289Q75 -293 76 -309Q77 -325 84 -329V-333Q84 -336 79 -342Q74 -348 74 -353V-354Q75 -355 79 -355Q87 -350 94 -346Q113 -354 126 -381Q143 -416 150 -424V-425L148 -429L150 -431Q156 -441 166 -469Q179 -506 192 -517L209 -556Q210 -569 218 -596Q229 -632 229 -648Q229 -672 217 -685Q219 -690 219 -701Q219 -715 210 -721Q222 -728 236 -734Q250 -741 257 -756Q269 -757 298 -772Q306 -766 315 -761Q324 -755 339 -754Q339 -750 338 -746Q338 -726 354 -716Q360 -717 364 -721Q367 -726 373 -727Q373 -722 367 -713Q361 -703 361 -695V-690Q361 -680 367 -661Q373 -643 373 -636Q365 -620 356 -604Q374 -565 432 -488Q451 -462 473 -435Q484 -422 495 -408Q506 -394 521 -387Q530 -392 532 -417Q534 -442 542 -446Q543 -442 543 -432Q543 -419 542 -406Q542 -396 545 -389Q551 -410 551 -437Q550 -471 549 -506Q549 -524 550 -532V-536Q550 -545 555 -546Q560 -543 560 -540Q559 -534 558 -528V-514Q558 -466 561 -420Q561 -413 562 -410Q567 -427 581 -433Q596 -439 617 -448Q615 -464 595 -504Q571 -551 570 -574Q570 -585 569 -596Q564 -632 559 -669Q554 -682 549 -697Q545 -710 533 -711Q525 -711 518 -707Q517 -709 517 -712Q518 -721 527 -725Q535 -729 542 -733Q536 -742 533 -742H531Q548 -759 562 -783Q575 -807 601 -809H602Q624 -809 655 -775Q671 -761 682 -742Q696 -718 696 -698Q696 -692 695 -687Q694 -679 685 -660Q676 -640 673 -628Q669 -610 679 -566Q688 -526 687 -507Q690 -496 693 -486Q693 -474 698 -469Q718 -477 742 -490Q784 -513 807 -519Q816 -512 819 -512Q822 -512 825 -514Q832 -504 843 -498Q854 -503 867 -505Q872 -505 878 -502Q872 -500 867 -498Q861 -496 859 -489Q861 -484 863 -479V-478Q869 -481 876 -481H879Q870 -472 870 -461Q870 -452 876 -448Q874 -444 871 -440Q868 -431 868 -416Q873 -401 878 -390Q872 -374 853 -363Q837 -355 814 -351Q791 -346 769 -340Q730 -332 727 -298Q727 -287 733 -274Q737 -280 743 -286Q749 -293 750 -301Q750 -303 747 -308Q753 -313 766 -313Q774 -313 779 -315Q786 -316 794 -321Q804 -327 809 -327H810Q820 -323 829 -319Q832 -319 836 -321Q834 -315 834 -310Q834 -298 846 -287Q857 -277 871 -275Q870 -270 870 -263Q870 -248 879 -234Q866 -193 865 -190Q863 -191 860 -191Q852 -189 844 -187H843L816 -174Q813 -169 802 -161Q788 -151 784 -141Q820 -66 869 -25Q881 -38 888 -72Q891 -70 893 -62Q895 -54 899 -53Q900 -62 900 -72Q897 -126 893 -181Q893 -199 896 -217Q906 -117 915 -70Q917 -77 917 -96V-129Q917 -151 922 -166Q925 -129 927 -91Q929 -52 935 -19Q937 -33 937 -42Q937 -62 936 -83Q936 -97 937 -104Q946 -76 946 -43Q949 -13 961 19Q963 29 972 46Q982 66 982 74V77Q980 102 958 112Q935 122 913 134Q892 121 862 117Q848 102 834 86Q827 80 820 73Q812 66 811 58L812 54L785 20Q771 13 751 -18Q736 -40 727 -66Q677 -40 653 15Q635 -1 613 -5Q601 -5 591 5Q597 -4 603 -13Q601 -19 596 -26Q588 -37 588 -46V-51Q584 -57 569 -61Q570 -68 579 -82L575 -83Q563 -79 549 -73L671 -196Q665 -249 657 -272Q636 -246 607 -241ZM396 -393Q372 -443 340 -480Q339 -489 333 -496Q327 -502 323 -509Q319 -515 316 -520Q313 -525 307 -525Q296 -525 289 -509Q262 -449 238 -400V-389Q231 -384 229 -375Q234 -375 236 -343Q254 -346 263 -357L260 -358H259Q254 -358 253 -359V-361Q254 -365 269 -364Q283 -363 293 -363Q322 -368 332 -370Q376 -391 396 -393Z"/>
</svg>