<svg xmlns="http://www.w3.org/2000/svg" viewBox="0 -800 1024 1024">
	<path fill="#000000" d="M486 -250L487 -251Q492 -205 483 -148Q480 -133 472 -116Q462 -101 447 -101Q429 -133 419 -168Q411 -172 399 -186Q402 -187 416 -179Q418 -185 414 -198L413 -200Q403 -213 394 -210L395 -211Q397 -216 407 -216Q413 -216 416 -218Q421 -226 410 -239Q407 -241 403 -244Q407 -247 413 -246Q422 -245 425 -249Q427 -268 429 -287Q434 -270 444 -254Q448 -254 448 -256Q452 -264 452 -275Q452 -289 455 -295Q457 -286 458 -271Q459 -256 463 -250Q467 -254 476 -281Q476 -247 475 -240Q481 -237 486 -250ZM43 -524Q36 -519 28 -514Q25 -515 25 -521Q25 -527 27 -529Q38 -527 43 -524ZM940 -106Q940 -113 939 -121Q939 -130 948 -130Q949 -128 949 -124Q949 -111 940 -106ZM123 -377V-378Q121 -384 118 -391L119 -394Q128 -393 136 -388Q178 -395 191 -395Q200 -395 203 -394Q226 -389 236 -367Q245 -346 261 -328Q259 -318 259 -313Q261 -294 262 -276Q262 -269 261 -265Q251 -246 233 -232Q227 -227 211 -223Q191 -217 185 -211Q162 -216 151 -223Q136 -234 135 -254Q131 -255 123 -262Q114 -269 108 -269Q101 -269 95 -264Q101 -273 107 -283Q103 -311 93 -333Q83 -356 73 -377Q83 -370 94 -370Q106 -370 123 -377ZM252 -587Q268 -574 269 -548V-544Q269 -505 253 -469H241Q184 -469 160 -488Q153 -486 151 -484L150 -488V-493Q150 -497 147 -499Q131 -499 120 -489Q112 -482 104 -467V-468Q104 -475 111 -491Q117 -505 117 -513Q117 -519 114 -527Q105 -536 88 -536Q71 -536 51 -527Q57 -537 66 -547Q74 -557 78 -569Q78 -574 73 -579Q69 -583 68 -586L72 -585L75 -586V-590Q75 -597 81 -607Q86 -615 86 -620Q86 -624 82 -630Q78 -636 78 -642V-644Q87 -638 96 -632Q111 -640 125 -649Q120 -684 120 -692Q130 -667 142 -647Q155 -652 162 -662Q163 -652 175 -645Q186 -639 200 -639Q217 -639 225 -646Q224 -644 224 -641Q224 -636 233 -628Q246 -617 246 -607V-604ZM169 23Q158 42 149 69Q140 94 119 99H115Q89 99 70 61Q50 60 39 46Q29 34 29 16Q29 -19 54 -41Q52 -55 52 -61Q53 -89 65 -112Q76 -134 87 -155L86 -144Q86 -120 100 -112Q138 -128 198 -163Q256 -197 288 -211L291 -209Q290 -206 288 -203V-202Q290 -198 298 -193Q306 -188 308 -182Q290 -171 274 -163Q259 -156 251 -133L252 -132Q254 -135 261 -138L264 -137L265 -134Q262 -128 256 -122V-120Q256 -113 261 -109Q265 -105 270 -101Q269 -98 269 -93Q271 -81 273 -70Q221 -56 175 17ZM834 47Q813 17 794 -20Q770 11 749 64Q740 66 730 68Q725 68 718 64Q711 71 708 71H707Q707 69 711 62Q703 49 691 38Q679 28 678 11V10Q680 5 681 0V-2Q679 -15 676 -28Q676 -33 677 -35Q688 -47 688 -70Q688 -87 681 -122Q686 -115 692 -96Q697 -79 701 -73Q709 -80 720 -96Q731 -112 737 -118Q723 -136 711 -153Q699 -171 698 -201V-211Q702 -227 722 -227Q727 -227 730 -226Q746 -212 766 -185Q784 -216 799 -250Q798 -255 798 -263Q798 -285 814 -297Q829 -310 853 -311Q870 -295 879 -271Q888 -247 899 -226Q893 -207 887 -188Q866 -180 852 -157Q844 -143 832 -110Q843 -84 862 -65Q881 -47 900 -29Q903 -35 904 -55Q906 -80 912 -86V-60Q912 -49 914 -35Q918 -38 918 -43Q918 -49 917 -55Q919 -139 927 -161Q929 -142 929 -101Q929 -60 930 -40Q934 -48 936 -72Q938 -89 940 -98Q943 -82 946 -44Q949 -2 955 20Q967 48 972 69Q971 80 957 93Q944 105 943 114Q940 115 933 115H920Q908 115 903 121Q885 110 867 98Q848 86 840 64ZM732 -563Q725 -567 725 -581Q726 -595 727 -610Q727 -617 726 -620Q710 -618 704 -593Q703 -598 703 -609Q703 -646 718 -681Q735 -721 758 -725Q761 -726 766 -726Q785 -724 796 -710Q808 -695 822 -685Q823 -669 837 -655Q831 -614 805 -536Q783 -471 776 -430Q863 -473 902 -524Q905 -522 905 -520Q904 -516 903 -512Q903 -510 905 -508Q910 -511 917 -521Q925 -533 929 -533Q925 -515 920 -498Q921 -495 921 -493Q928 -494 934 -501Q939 -508 943 -509V-506Q943 -499 942 -492V-488Q950 -478 950 -452V-431Q950 -413 954 -402Q938 -389 938 -383Q938 -378 942 -374Q926 -369 892 -350Q856 -330 835 -325L816 -311Q794 -296 773 -281Q752 -265 737 -242Q679 -277 660 -356Q635 -467 673 -544Q674 -541 674 -536V-495Q674 -486 677 -482Q680 -503 685 -526Q689 -548 698 -565Q690 -506 689 -481Q693 -481 694 -488Q695 -495 698 -496Q698 -481 697 -466Q697 -451 699 -427Q707 -457 714 -487Q718 -517 729 -545ZM578 -277Q586 -261 593 -246Q599 -202 588 -191H581Q581 -178 573 -172Q552 -145 545 -116Q543 -114 539 -100Q536 -90 533 -80Q565 -96 580 -111Q585 -116 584 -142Q583 -162 587 -168Q590 -156 590 -155L592 -144Q596 -129 600 -127Q605 -128 609 -136L610 -134Q610 -128 609 -123Q614 -116 622 -104Q629 -91 636 -91Q641 -93 644 -97L646 -95Q644 -91 641 -80L642 -77H644Q646 -77 649 -84L650 -82Q648 -73 646 -65V-63Q648 -55 654 -44Q662 -30 663 -24L664 -23Q665 -15 662 -5Q659 4 660 10Q661 14 662 17Q659 24 653 24Q634 25 614 22L603 24Q598 26 594 23L557 29Q520 43 483 52Q426 72 422 73Q422 77 419 77Q416 78 414 80Q376 108 360 146Q344 141 330 128Q317 116 303 103Q301 97 301 94Q298 56 302 22Q303 4 304 -1Q306 -12 314 -18Q319 -20 323 -23Q326 -25 333 -37Q339 -47 344 -49Q345 -44 340 -37Q334 -29 335 -23V-18Q337 -11 349 -13Q355 -14 358 -19Q364 -13 371 -15Q388 -22 404 -29L426 -34Q458 -42 486 -56Q493 -98 499 -141Q507 -201 504 -233L503 -237Q502 -241 495 -255Q507 -269 519 -289Q522 -295 525 -301L526 -302Q535 -307 554 -296Q558 -301 561 -307Q562 -301 560 -298Q564 -288 570 -284Q572 -286 573 -288Q560 -328 535 -379Q531 -379 528 -374Q526 -369 524 -364Q525 -360 525 -356V-354Q478 -341 450 -309Q440 -301 429 -290Q416 -274 408 -272Q400 -271 385 -270Q380 -272 372 -281Q365 -294 362 -306Q356 -284 354 -273L355 -272Q357 -272 359 -269Q360 -266 363 -267Q355 -245 318 -233Q326 -219 328 -217Q361 -220 381 -198Q384 -200 386 -203Q387 -195 387 -188Q390 -177 393 -167L395 -165L398 -166V-159Q401 -140 406 -113Q410 -66 391 -52Q384 -49 368 -59Q351 -69 349 -78L341 -88Q327 -98 322 -137Q319 -159 316 -181L315 -188Q318 -197 321 -206Q319 -214 315 -232Q311 -230 306 -229Q293 -265 289 -271Q285 -319 278 -365Q283 -352 288 -340Q297 -360 309 -406Q323 -460 333 -478L337 -499Q339 -516 345 -541Q346 -547 357 -600Q363 -630 368 -661Q376 -697 368 -702Q367 -715 359 -733Q368 -763 393 -782Q418 -801 446 -801H452Q469 -780 482 -755Q489 -733 493 -702V-695Q493 -680 480 -663Q470 -651 468 -640Q468 -634 475 -631Q502 -579 519 -562Q523 -553 532 -539Q546 -519 547 -504L561 -492H562Q568 -492 575 -477Q583 -462 590 -460Q592 -469 593 -496Q594 -531 599 -543Q600 -535 600 -516Q600 -477 605 -465V-493Q605 -534 604 -576Q604 -603 605 -615Q612 -523 618 -432Q621 -438 621 -448Q621 -456 620 -465Q619 -488 618 -511Q618 -525 620 -531Q624 -495 626 -457Q628 -420 635 -390Q641 -369 647 -348Q648 -345 648 -338Q646 -315 643 -293V-288Q633 -276 628 -256L624 -258Q622 -258 622 -257Q622 -254 618 -253H617Q612 -253 597 -265Q585 -275 578 -277ZM487 -461Q468 -497 432 -547Q413 -482 393 -418Q412 -431 425 -434Q431 -434 433 -432L443 -436Q454 -451 487 -461Z"/>
</svg>