<svg xmlns="http://www.w3.org/2000/svg" viewBox="0 -800 1024 1024">
	<path fill="#000000" d="M892 -547L876 -538Q874 -542 874 -545Q875 -555 887 -557L891 -556V-554Q892 -550 892 -547ZM885 -170Q880 -177 880 -189Q880 -193 882 -199Q891 -199 891 -186Q891 -174 885 -170ZM620 -288V-286Q645 -295 668 -299Q691 -302 706 -319Q709 -322 709 -325L707 -327Q681 -320 654 -314Q635 -307 632 -305Q620 -298 620 -288ZM750 -423V-424H747Q675 -405 636 -387Q628 -384 619 -379Q610 -374 607 -365Q611 -364 614 -364Q635 -367 657 -377Q690 -391 725 -394Q730 -393 735 -393Q735 -401 744 -412Q750 -419 750 -423ZM591 106H589Q569 106 567 83L565 81Q563 82 560 82L558 80Q551 51 543 22Q542 17 542 9Q542 -12 552 -47Q560 -74 561 -84Q503 -25 493 37H489Q481 39 472 40H470Q441 11 441 -15Q441 -21 442 -25Q434 -42 414 -46Q428 -47 439 -50Q428 -62 406 -64Q385 -66 364 -69Q392 -77 414 -82Q437 -87 456 -97Q492 -120 521 -154Q531 -163 541 -174Q552 -184 558 -198Q552 -208 543 -208Q540 -222 534 -230Q528 -239 522 -250Q507 -249 491 -239Q483 -234 463 -217Q451 -205 438 -203Q432 -203 425 -207Q422 -197 417 -184Q386 -175 385 -145Q366 -169 343 -175Q338 -166 338 -149Q339 -133 339 -118V-84Q339 -37 346 -15Q329 37 323 47Q319 48 312 48Q279 45 267 16Q254 -15 238 -41H249V-42Q249 -46 242 -46H240Q236 -46 235 -47Q258 -90 258 -157V-169Q249 -163 241 -158Q232 -152 229 -142V-141Q230 -137 230 -133L229 -130Q225 -122 214 -112Q204 -102 196 -94Q135 -22 118 40Q112 43 107 43Q85 38 69 23V19Q69 9 61 -11Q54 -28 54 -40V-42Q56 -53 57 -64Q57 -73 50 -78V-79Q50 -81 54 -82Q58 -83 59 -85Q59 -97 48 -115Q39 -129 39 -139Q40 -142 40 -145Q47 -133 55 -122Q63 -110 75 -103Q104 -115 133 -145Q141 -153 179 -199Q232 -261 263 -316Q241 -306 220 -298Q200 -290 182 -277Q169 -267 150 -244Q122 -210 102 -201Q86 -209 85 -224Q81 -230 67 -235Q54 -240 50 -244Q42 -253 41 -266Q40 -279 38 -295Q34 -310 27 -327Q20 -344 19 -361V-365Q22 -387 33 -409Q44 -432 52 -450Q70 -456 99 -478Q121 -495 136 -502Q123 -490 108 -475Q99 -464 99 -457Q99 -453 102 -450Q107 -451 113 -459Q121 -469 128 -469Q131 -469 133 -468Q119 -460 119 -456L120 -453Q154 -456 202 -475Q227 -485 282 -510Q278 -553 264 -597Q256 -616 253 -637Q255 -689 318 -694Q324 -693 330 -693Q354 -674 359 -637Q365 -599 376 -568Q370 -552 367 -538Q367 -534 368 -532Q375 -532 383 -537Q393 -543 399 -543H401L402 -541Q399 -531 392 -522Q396 -510 402 -510H405V-504Q405 -489 415 -489H417Q411 -477 411 -464Q411 -445 422 -431Q413 -423 410 -394Q408 -374 405 -367L404 -364Q401 -366 398 -368L396 -367H392Q371 -367 357 -354Q343 -341 343 -322Q343 -308 352 -293H353Q356 -293 359 -297Q362 -300 363 -300L364 -299V-298Q364 -291 371 -287Q379 -283 380 -280Q383 -285 388 -311Q431 -346 453 -352Q444 -340 438 -327Q443 -319 453 -319Q475 -323 491 -331Q476 -363 463 -427L465 -428Q467 -428 472 -421Q480 -410 485 -409Q494 -425 514 -440Q501 -460 488 -480Q473 -501 467 -523V-526Q470 -539 473 -553V-555Q473 -565 468 -581Q463 -595 463 -604L465 -605Q468 -604 470 -604Q472 -604 473 -607V-608Q473 -614 467 -621Q461 -627 461 -634Q470 -628 479 -622Q485 -625 485 -631Q485 -635 482 -640L496 -636Q505 -642 517 -642Q541 -639 564 -636H567Q600 -640 633 -645H639Q641 -655 641 -659Q641 -667 638 -676Q633 -684 627 -693V-696Q628 -702 628 -708L627 -712Q624 -723 614 -726Q605 -728 595 -730Q597 -736 602 -738Q607 -740 612 -742Q612 -745 609 -745Q605 -745 605 -748V-750Q605 -755 609 -757Q613 -759 617 -761Q647 -795 666 -808Q731 -789 735 -718Q735 -710 734 -705Q720 -691 718 -670V-667Q791 -684 867 -706Q865 -703 860 -700Q852 -696 852 -692L853 -688Q867 -693 881 -699Q864 -691 860 -672Q860 -662 873 -661Q857 -647 857 -630Q857 -622 859 -618L861 -616Q863 -617 865 -619H867Q862 -613 861 -594Q860 -572 851 -562Q833 -544 797 -539Q761 -534 732 -526Q682 -511 638 -497Q595 -483 562 -454H566Q569 -454 591 -450Q610 -451 652 -475Q692 -498 713 -502Q730 -503 744 -507Q750 -509 761 -517Q777 -528 785 -528H786Q791 -528 804 -522Q815 -517 821 -517H824Q829 -521 835 -523H836V-519Q836 -514 835 -510L836 -507Q843 -508 852 -519Q861 -530 869 -532Q867 -526 861 -516Q852 -501 852 -492Q852 -486 853 -483L855 -482Q856 -482 858 -486Q860 -490 863 -490L867 -489Q861 -484 861 -472Q861 -460 867 -453V-442Q867 -421 873 -411Q888 -413 909 -423Q929 -432 937 -434Q935 -428 932 -423Q932 -420 934 -418L938 -417H950Q949 -415 949 -410Q949 -397 967 -351Q962 -336 950 -308Q949 -311 946 -311Q942 -309 937 -308Q927 -309 897 -318Q858 -330 838 -330Q822 -330 808 -322Q795 -313 790 -297Q786 -280 780 -261Q786 -255 793 -253Q802 -259 813 -261H815L816 -258Q815 -254 814 -251V-250Q821 -263 836 -267Q825 -253 825 -242Q825 -233 836 -232Q834 -205 834 -181Q834 -156 823 -136Q807 -140 794 -140Q775 -140 771 -129Q792 -103 814 -78Q836 -53 863 -35Q870 -49 876 -79Q881 -52 886 -25Q887 -32 887 -47Q885 -87 882 -128Q882 -143 885 -158Q888 -145 904 -20Q907 -30 907 -42Q906 -65 904 -89Q904 -96 906 -106Q909 -73 929 -11Q945 41 950 74Q939 77 924 97Q907 120 892 121Q876 118 854 105Q833 91 803 50Q779 17 768 5Q743 -22 720 -47Q697 -72 684 -97Q670 -123 670 -151Q670 -156 672 -164Q671 -171 669 -178Q678 -181 692 -181Q714 -181 718 -169Q723 -176 737 -201Q736 -204 724 -204Q721 -212 711 -221Q699 -231 697 -238Q694 -239 688 -239Q664 -239 664 -212Q664 -207 666 -199Q662 -188 636 -171Q614 -156 612 -142Q612 -137 616 -130Q621 -121 621 -116V-114Q620 -107 618 -101Q618 -100 620 -94Q626 -96 640 -108Q655 -121 666 -125L645 -97L647 -96Q651 -100 656 -104L659 -103Q656 -93 653 -84L655 -81L659 -83L660 -82Q658 -75 656 -69Q662 -57 669 -49Q661 -25 658 2Q658 8 659 11Q646 18 638 38Q630 57 622 77Q612 103 591 106Z"/>
</svg>