<svg xmlns="http://www.w3.org/2000/svg" viewBox="0 -800 1024 1024">
	<path fill="#000000" d="M607 -414Q620 -403 634 -389Q648 -375 658 -377Q664 -379 674 -383Q718 -402 752 -412Q759 -426 770 -426Q782 -425 793 -416Q804 -408 812 -401Q826 -417 845 -427Q844 -422 836 -412Q825 -398 825 -391Q825 -385 832 -379Q842 -383 853 -385H856Q856 -383 852 -380Q848 -377 848 -373Q848 -368 854 -364Q859 -360 860 -357Q858 -351 858 -347Q858 -336 869 -314Q881 -290 881 -278Q881 -271 880 -268Q879 -264 871 -257Q864 -250 863 -242H859Q851 -242 846 -237Q843 -234 838 -226Q843 -224 848 -223Q827 -211 822 -187Q816 -163 810 -130Q803 -100 795 -70Q792 -37 789 -4Q784 33 781 45Q773 77 760 80Q757 81 754 81Q742 81 722 71Q706 63 700 62V60Q701 57 702 54V53Q676 43 671 18Q671 13 672 11Q672 3 659 1Q648 -1 647 -6Q663 -6 668 -15Q665 -24 657 -28Q648 -32 640 -35Q642 -36 646 -36Q656 -35 666 -34H668Q664 -46 634 -50Q612 -53 607 -58Q611 -62 617 -62Q632 -59 647 -57Q652 -57 654 -58Q645 -64 623 -68Q601 -72 594 -76Q598 -81 605 -81Q606 -81 624 -78Q649 -73 654 -73H657Q692 -78 704 -114Q717 -149 724 -187Q734 -224 740 -277Q712 -270 686 -259Q683 -251 683 -246Q684 -236 685 -227Q685 -222 684 -220Q682 -213 674 -202Q665 -191 663 -184Q645 -177 634 -161Q623 -145 610 -133Q598 -117 576 -79Q552 -39 538 -19Q512 14 506 69Q494 74 486 74Q462 72 449 48Q436 22 422 2Q419 1 414 1Q410 1 407 0V-4Q407 -10 413 -12Q418 -13 422 -16Q425 -26 425 -35Q424 -53 415 -66Q405 -80 398 -95Q403 -95 411 -86Q419 -77 424 -76Q419 -90 403 -113Q380 -145 379 -167Q397 -145 414 -123Q431 -101 455 -85Q470 -95 490 -115Q508 -133 514 -138Q477 -160 447 -190Q450 -197 450 -203Q450 -213 440 -230Q432 -244 431 -250V-253Q435 -271 441 -289Q441 -298 436 -310Q431 -322 431 -329Q431 -335 432 -338Q440 -337 442 -328Q443 -320 446 -313L447 -316V-323Q447 -327 449 -328Q464 -314 485 -314Q505 -314 553 -337Q560 -340 565 -357Q553 -358 540 -360Q536 -360 530 -358L529 -356Q530 -352 530 -349L529 -347Q516 -356 512 -373Q486 -429 446 -454Q443 -469 429 -492Q415 -515 413 -526Q413 -528 412 -531Q412 -537 417 -544Q422 -551 422 -554L423 -558Q423 -563 422 -569Q422 -575 425 -578Q430 -578 433 -572Q436 -564 438 -563Q446 -572 456 -575Q452 -601 447 -607Q451 -615 461 -620Q464 -644 487 -647Q505 -660 515 -661Q522 -670 545 -681Q563 -690 571 -697H577L579 -695Q590 -707 617 -722Q647 -738 656 -749H658Q664 -750 669 -751H671Q686 -768 706 -782Q712 -784 715 -784Q729 -784 743 -764Q755 -769 770 -773Q757 -764 757 -751Q757 -742 768 -739Q791 -749 815 -758Q813 -751 801 -744Q786 -736 786 -724V-719H787Q795 -721 803 -724H806L807 -722Q804 -716 800 -710V-709Q800 -702 812 -683Q818 -673 820 -667H821Q824 -669 827 -671H829Q827 -659 827 -653Q827 -647 828 -644Q830 -637 841 -624Q855 -607 857 -595Q858 -591 858 -588Q857 -578 856 -569Q857 -564 857 -560Q853 -552 851 -539Q796 -534 769 -494Q742 -452 721 -406Q717 -408 711 -408Q708 -408 702 -406Q688 -411 679 -419Q670 -427 660 -436Q624 -425 607 -414ZM341 91H339Q333 91 324 86Q313 80 305 80Q301 72 287 56Q272 39 268 31Q261 6 252 -21Q248 -27 243 -28V-29Q245 -32 247 -36V-37Q243 -48 232 -49Q222 -50 213 -53Q216 -60 223 -60Q230 -59 237 -61Q246 -64 256 -78V-84Q258 -110 259 -136V-141Q243 -137 232 -125Q221 -114 210 -103Q203 -98 196 -94Q188 -81 176 -67Q159 -54 156 -49Q151 -40 149 -29Q146 -19 136 -13Q129 -17 108 -22Q83 -28 74 -37Q69 -42 64 -54Q58 -68 53 -73L52 -75Q54 -78 56 -81V-84Q56 -94 50 -107Q43 -122 43 -131V-136Q45 -150 65 -181Q71 -192 78 -202Q85 -213 95 -217Q89 -204 85 -189Q85 -182 92 -178Q142 -203 191 -238Q227 -258 256 -277Q271 -288 271 -316Q271 -326 270 -331Q246 -323 226 -301Q217 -291 194 -259Q189 -255 184 -255Q174 -259 163 -268Q151 -269 139 -271Q123 -276 112 -283Q95 -294 93 -305Q91 -313 91 -316Q91 -324 97 -342Q102 -357 102 -366Q102 -375 98 -383Q96 -388 84 -395Q72 -403 70 -410H71Q81 -407 90 -404Q94 -404 96 -406Q85 -416 71 -423Q57 -430 50 -445Q71 -433 96 -429H101Q99 -437 86 -441Q74 -445 73 -452Q75 -453 78 -453Q88 -450 98 -448Q119 -475 124 -490Q166 -493 193 -511Q220 -529 253 -541Q263 -551 271 -553Q272 -561 272 -569Q272 -611 246 -674Q245 -684 243 -694Q241 -699 236 -704Q228 -712 228 -718V-719Q230 -731 245 -742Q260 -753 270 -761Q277 -770 285 -779Q294 -788 309 -790H313Q356 -790 385 -724Q395 -709 400 -695V-691Q399 -679 397 -667Q397 -659 401 -652Q388 -639 375 -624Q362 -610 361 -589Q361 -585 363 -575Q368 -567 373 -559Q374 -557 374 -553Q374 -550 375 -548Q386 -531 394 -514Q390 -509 390 -503Q391 -495 395 -489Q400 -483 403 -476V-475Q402 -472 400 -469Q402 -466 404 -463Q405 -457 405 -451Q406 -445 412 -442H410Q398 -442 398 -429Q398 -419 403 -412Q403 -409 397 -409Q393 -409 392 -410V-409Q393 -406 394 -404V-403H385L383 -402Q383 -400 387 -400H388Q376 -393 366 -391Q355 -384 355 -365V-355Q355 -345 354 -340Q362 -343 378 -353Q400 -367 413 -367Q412 -360 400 -351Q387 -342 385 -335Q396 -342 407 -345L410 -344Q409 -338 401 -332Q391 -324 391 -315V-314L393 -312Q398 -314 403 -316Q400 -310 400 -302Q401 -289 402 -277Q402 -271 401 -268Q409 -264 416 -260Q419 -260 422 -262Q415 -256 412 -247Q412 -243 413 -241Q401 -236 391 -230Q380 -225 376 -211H374Q368 -211 364 -206Q361 -202 357 -197Q357 -40 372 34Q374 41 376 48V50Q372 86 341 91ZM686 -581V-585Q684 -583 684 -581Q672 -579 625 -550Q606 -539 587 -528Q567 -516 566 -494Q566 -490 568 -482Q586 -487 614 -502Q648 -520 669 -524Q681 -552 686 -581ZM441 -385Q433 -373 421 -373L420 -375Q422 -386 435 -388Q438 -388 441 -385ZM632 -35L612 -38Q613 -45 620 -45Q630 -45 632 -35Z"/>
</svg>