<svg xmlns="http://www.w3.org/2000/svg" viewBox="0 -800 1024 1024">
	<path fill="#000000" d="M373 -256H374Q372 -262 370 -262H369Q363 -258 359 -255Q361 -253 363 -253Q368 -254 373 -256ZM392 -514V-511Q402 -521 408 -532Q393 -527 392 -514ZM920 -159V-155Q916 -159 916 -168Q917 -175 917 -183H919Q925 -183 928 -178Q922 -171 920 -159ZM121 5V-7H135Q147 -7 150 -3Q137 4 121 5ZM801 -331Q797 -331 793 -332Q771 -332 759 -307Q761 -306 769 -292Q777 -296 787 -313Q795 -326 801 -331ZM384 -214V-217Q381 -237 371 -252Q360 -244 360 -228Q360 -209 371 -193Q371 -197 378 -203Q383 -208 384 -214ZM677 -270H676Q671 -267 666 -265H665Q641 -294 641 -310Q641 -313 643 -321Q638 -326 636 -336Q643 -341 658 -358Q672 -373 681 -379V-388Q687 -394 696 -397V-400Q700 -413 703 -418L701 -421Q632 -408 580 -380Q553 -364 524 -348Q495 -332 468 -331Q449 -332 426 -353Q408 -370 397 -374L396 -372Q398 -367 400 -363L399 -362Q360 -357 342 -339Q340 -317 337 -296Q337 -281 344 -274Q353 -277 362 -280Q354 -297 350 -312V-313Q361 -311 364 -302Q367 -292 374 -285L386 -289Q385 -279 380 -273Q400 -244 409 -235Q449 -258 485 -291Q520 -324 557 -354Q560 -351 563 -349Q566 -354 573 -354Q588 -351 602 -348H603Q618 -332 623 -309Q628 -285 636 -261Q634 -253 632 -246Q632 -242 633 -241Q641 -243 643 -243Q659 -242 671 -231Q684 -221 696 -213Q697 -217 703 -219Q709 -221 710 -223Q687 -240 677 -270ZM942 99H936Q924 100 917 106Q911 113 904 119Q874 111 843 103Q783 12 719 -75Q696 -66 679 -29Q677 -30 674 -30Q668 -29 661 -28H657Q651 -29 642 -37Q634 -44 630 -44H627Q621 -44 613 -37Q605 -30 598 -28Q599 -35 609 -45Q618 -54 619 -61V-65Q619 -71 613 -80Q607 -90 606 -98Q586 -101 566 -104Q584 -115 604 -118Q596 -125 582 -125Q555 -121 528 -117Q543 -127 575 -136Q625 -150 642 -170Q633 -180 626 -190Q618 -201 618 -219Q547 -186 519 -136Q522 -130 524 -124Q524 -120 519 -120Q523 -110 530 -101V-91Q530 -61 529 -31Q529 6 536 26Q521 45 520 74Q511 78 498 78Q462 78 434 46Q427 39 424 17Q423 12 416 -9Q406 -39 405 -54Q407 -54 416 -51Q441 -78 441 -102Q441 -123 414 -124V-133Q406 -134 392 -145Q378 -156 368 -158L374 -178H371Q336 -178 336 -124V-114Q340 20 360 69Q355 77 342 90Q328 92 323 92Q303 92 289 81Q272 67 259 46Q255 36 251 26Q240 11 220 11Q214 11 211 12V11Q211 6 220 6H235Q227 -8 202 -8Q186 -7 170 -6Q165 -6 160 -7Q184 -19 212 -27Q241 -35 244 -65Q244 -72 243 -76Q238 -67 235 -58Q231 -58 227 -59Q208 -56 189 -54Q170 -54 160 -69Q155 -83 150 -98Q147 -105 140 -113Q130 -125 130 -133Q130 -136 132 -144Q137 -160 162 -182Q185 -203 190 -216L192 -218Q198 -213 203 -208Q244 -234 249 -239Q271 -260 271 -295V-302Q219 -286 200 -274Q163 -252 156 -214Q146 -210 131 -197Q112 -181 101 -181Q96 -181 88 -184Q73 -190 56 -217Q40 -243 38 -262Q43 -281 47 -301V-302Q47 -310 39 -327Q34 -337 33 -345Q32 -349 32 -357Q34 -398 60 -425Q86 -453 110 -471Q117 -478 124 -485Q132 -492 143 -493H146Q133 -480 120 -468Q107 -455 106 -431Q109 -434 117 -447Q123 -457 132 -459Q128 -447 128 -442Q128 -437 129 -434Q165 -451 199 -469Q233 -488 276 -499V-519Q276 -612 238 -641Q242 -672 262 -689Q281 -706 301 -721Q340 -718 359 -700Q395 -666 406 -622Q370 -582 370 -535Q371 -529 371 -523Q377 -524 385 -530Q396 -538 407 -538H411Q420 -548 427 -562Q433 -577 448 -581Q446 -567 443 -554Q443 -552 445 -546Q472 -553 531 -580Q577 -601 607 -610Q607 -655 598 -678Q585 -710 551 -710H548V-712Q550 -718 557 -723Q570 -735 594 -763Q612 -782 619 -788Q636 -802 652 -802H658Q670 -800 680 -791Q690 -782 699 -775Q724 -755 744 -750V-744Q744 -735 748 -723Q721 -698 721 -662Q721 -655 723 -643Q734 -645 760 -659Q785 -672 797 -676V-674Q795 -666 793 -658Q798 -655 802 -655Q806 -655 817 -663Q829 -672 837 -672Q822 -660 818 -641Q821 -638 824 -638Q832 -641 840 -644H843Q832 -640 832 -620Q832 -596 842 -588H844Q850 -590 856 -592H858Q851 -574 848 -572Q852 -560 858 -550Q864 -539 865 -527V-523Q865 -517 858 -507Q851 -496 851 -488V-486H844Q837 -486 836 -489Q831 -476 831 -465V-460Q781 -453 756 -439Q756 -433 761 -432Q766 -430 770 -428Q778 -421 790 -390Q817 -404 849 -414H861Q866 -414 868 -415Q872 -417 879 -427Q888 -440 896 -440H899Q887 -425 887 -413Q887 -404 892 -399Q893 -400 894 -404Q895 -409 897 -409H899Q903 -406 903 -405Q901 -399 898 -394Q899 -391 899 -388V-385Q923 -357 927 -310Q927 -284 910 -273H907Q870 -271 852 -246Q833 -220 813 -195Q787 -169 768 -136Q784 -110 807 -89Q830 -69 854 -49Q863 -52 866 -72Q868 -89 874 -94Q876 -90 876 -78Q876 -58 881 -54Q887 -96 887 -144Q887 -192 904 -223V-209Q901 -150 898 -91Q898 -70 901 -52Q903 -41 910 -34Q916 -48 916 -59V-63Q913 -89 910 -116Q910 -130 916 -136Q918 -107 921 -75Q923 -44 931 -20Q933 -22 933 -25Q933 -29 932 -34Q932 -36 934 -38Q944 -37 944 -27Q943 -17 941 -7V-1Q941 21 958 49Q952 76 942 99Z"/>
</svg>