<svg xmlns="http://www.w3.org/2000/svg" viewBox="0 -800 1024 1024">
	<path fill="#000000" d="M909 -196V-199H918Q920 -196 920 -191Q918 -181 915 -171Q908 -172 908 -181Q909 -188 909 -196ZM87 -429Q88 -436 93 -439Q98 -443 103 -446Q107 -443 107 -439Q105 -427 92 -424Q90 -429 87 -429ZM577 -500V-498Q580 -486 583 -475Q584 -454 591 -444Q589 -434 589 -433Q589 -427 592 -421Q586 -416 583 -404Q581 -395 579 -392Q571 -384 561 -375Q552 -367 550 -352Q569 -339 586 -325Q604 -311 625 -299Q637 -321 648 -343Q636 -347 629 -347Q599 -387 599 -424Q599 -429 601 -441Q608 -455 620 -469Q626 -486 631 -504Q641 -520 645 -535Q629 -529 606 -520Q582 -511 577 -500ZM223 -271H219Q210 -271 195 -261Q185 -254 179 -253Q180 -260 190 -268Q198 -275 200 -280Q195 -289 172 -295Q155 -299 149 -305Q153 -323 153 -344Q152 -365 166 -375Q160 -388 157 -398Q160 -397 165 -397Q173 -397 185 -403Q199 -410 209 -410H216Q235 -394 258 -382Q265 -386 277 -389H281L282 -386Q278 -379 274 -372Q275 -366 281 -363L283 -362Q288 -364 293 -367L296 -366Q292 -358 292 -349Q293 -336 300 -324Q308 -313 314 -303Q307 -290 299 -278Q280 -278 275 -262Q265 -259 255 -257Q248 -257 236 -265Q228 -271 223 -271ZM164 82H162Q150 81 142 73Q133 65 124 58Q116 53 107 49Q99 45 93 37Q95 27 95 22Q95 -1 77 -26Q76 -32 76 -43Q76 -79 99 -139Q104 -138 105 -126Q106 -114 112 -113Q153 -131 225 -179Q312 -237 365 -256Q345 -238 324 -221Q308 -212 291 -205Q273 -197 267 -178L265 -174Q298 -194 315 -196Q310 -188 300 -182Q290 -176 281 -170Q259 -154 252 -136Q256 -134 258 -134Q262 -134 271 -142Q277 -148 281 -148H282L283 -146Q279 -139 271 -131Q267 -121 267 -95Q283 -91 297 -86Q293 -81 287 -77Q282 -73 281 -64V-59Q263 -46 242 -27Q220 -9 213 19Q210 33 208 44Q207 55 200 62Q184 78 164 82ZM324 -513V-507Q322 -482 304 -468Q288 -456 264 -456Q229 -456 201 -478Q183 -473 170 -463L169 -466Q169 -470 178 -477Q185 -482 187 -487Q181 -493 174 -493Q161 -493 137 -472Q117 -455 111 -454Q116 -466 135 -482Q149 -493 154 -501Q133 -515 112 -529Q95 -524 92 -524Q92 -530 96 -532Q99 -534 103 -536Q96 -550 77 -557Q86 -572 86 -595Q86 -622 72 -633Q85 -637 92 -648Q98 -659 106 -668Q103 -679 100 -690Q109 -674 140 -674H149Q152 -678 152 -684Q151 -693 150 -703Q150 -706 151 -708Q155 -689 172 -671Q190 -652 209 -652Q222 -652 232 -661Q242 -643 264 -635Q272 -637 277 -641Q280 -628 293 -605Q303 -587 308 -573Q321 -545 324 -513ZM898 -147V-139Q898 -94 904 -70Q908 -94 908 -112Q908 -118 907 -125Q906 -135 905 -145Q905 -155 913 -155Q913 -93 916 -68Q918 -55 931 -29Q946 0 946 20Q946 30 943 42Q922 60 910 85Q907 86 903 86Q884 84 863 77Q835 75 810 70Q799 65 787 51Q776 36 767 25Q703 -41 639 -108Q617 -89 611 -56Q594 -40 585 -17Q576 6 567 28Q554 27 540 25Q521 25 517 39Q513 37 505 27Q499 19 490 19H488Q484 14 483 0Q482 -13 478 -19Q480 -29 481 -40Q481 -54 474 -61Q476 -69 476 -88V-114Q476 -134 478 -142Q484 -136 486 -115Q488 -90 497 -85Q525 -113 555 -173Q568 -196 568 -205V-206Q568 -219 547 -237Q537 -246 527 -254Q518 -261 512 -271Q493 -244 468 -146Q466 -139 454 -69Q446 -24 434 -7Q422 9 404 16H403Q397 16 390 9Q382 1 376 1H375Q370 1 366 5Q361 10 356 10H355V8Q355 6 360 -4Q352 -9 343 -26Q332 -45 323 -50Q328 -59 328 -68Q328 -83 315 -94Q304 -104 286 -109H295Q336 -112 353 -148Q370 -186 382 -223Q403 -267 422 -314Q442 -373 453 -412H436Q430 -412 426 -413Q410 -417 393 -437Q376 -456 373 -472V-494Q372 -502 364 -519Q358 -533 357 -541V-550Q357 -585 390 -625L388 -616Q388 -612 389 -610Q396 -606 405 -606Q418 -606 444 -618Q473 -632 487 -633Q503 -648 552 -662Q558 -666 558 -670L562 -669Q568 -669 576 -675Q587 -683 594 -683H597Q611 -692 638 -701Q656 -707 668 -713Q679 -718 696 -735Q720 -759 739 -760Q747 -766 752 -777Q759 -770 771 -770Q779 -770 786 -774Q796 -757 820 -757Q847 -760 871 -767Q868 -762 856 -755Q843 -748 839 -742Q832 -731 832 -721Q833 -717 833 -714L836 -713Q842 -715 848 -718Q840 -707 840 -689Q840 -682 841 -679Q844 -679 845 -682Q846 -686 848 -686H850V-684Q849 -678 847 -673V-671Q857 -657 857 -638Q857 -616 847 -596Q845 -597 842 -597Q836 -597 825 -589Q815 -582 808 -582H807Q779 -559 767 -546Q746 -524 737 -498Q740 -497 747 -497Q765 -499 782 -502Q790 -502 795 -498Q823 -518 827 -523V-500Q830 -495 835 -495Q845 -497 854 -500H856V-498Q856 -495 850 -487Q842 -477 842 -471Q842 -465 845 -461L847 -460Q850 -460 854 -464L855 -461Q850 -452 845 -444V-441Q847 -429 848 -418V-415Q848 -406 840 -391Q833 -377 833 -369V-365Q827 -366 820 -368Q813 -360 790 -348Q776 -341 768 -335Q743 -315 727 -285Q711 -255 694 -225Q742 -172 839 -107Q842 -112 842 -126Q842 -141 845 -145Q847 -143 849 -134Q850 -126 854 -124Q858 -126 858 -136Q858 -144 860 -146Q857 -164 857 -185Q857 -233 871 -297Q873 -250 874 -202Q875 -154 885 -113Q890 -148 890 -190Q889 -196 888 -202Q888 -209 894 -209Q898 -191 898 -147Z"/>
</svg>