<svg xmlns="http://www.w3.org/2000/svg" viewBox="0 -800 1024 1024">
	<path fill="#000000" d="M857 -700V-702Q859 -714 869 -715Q872 -715 875 -712Q865 -704 857 -700ZM932 -562V-553Q924 -551 915 -549V-551Q915 -562 927 -562ZM563 7H558Q550 8 542 8Q539 5 539 -1V-4Q542 -4 545 -5Q563 -5 563 5ZM711 -383H712Q717 -384 722 -386L724 -385Q710 -371 710 -365Q710 -361 714 -357Q707 -353 703 -343Q701 -337 697 -333Q686 -323 666 -317Q646 -312 628 -308Q614 -304 600 -299Q586 -294 585 -279V-277Q601 -278 638 -290Q674 -301 696 -304Q728 -358 756 -417Q635 -408 582 -380Q568 -372 568 -363Q568 -357 573 -355Q593 -369 625 -376Q644 -381 661 -389Q679 -396 705 -397Q710 -391 711 -383ZM333 -226V-207Q332 -163 331 -120Q331 -107 333 -81Q338 -88 341 -108Q344 -125 349 -133Q354 -140 370 -150Q384 -158 387 -161Q415 -181 431 -184Q425 -178 417 -173Q410 -167 408 -156Q415 -148 426 -148Q449 -151 471 -155Q477 -155 480 -154Q511 -166 553 -169Q596 -173 626 -178Q624 -196 620 -214Q583 -210 570 -175Q562 -175 553 -181Q545 -187 539 -187Q523 -204 500 -243Q476 -285 459 -301Q435 -322 432 -326Q418 -342 416 -361L414 -364Q410 -356 404 -349Q398 -342 397 -333Q398 -330 398 -328L401 -326Q404 -328 406 -331L408 -330Q401 -312 399 -287Q398 -261 393 -240Q388 -216 367 -214Q360 -214 348 -219Q342 -223 335 -227ZM693 94H691Q682 94 676 99Q675 100 667 109Q639 103 629 90Q625 84 621 70Q617 55 613 50Q608 43 596 38Q583 32 579 26Q594 26 610 31Q605 23 586 16Q571 10 566 5H569Q584 9 599 13Q593 3 566 -7Q540 -17 533 -26Q535 -27 539 -27Q548 -27 566 -16Q587 -3 597 -3Q602 -3 605 -4Q620 -11 621 -37Q621 -63 625 -84Q543 -80 492 -59Q429 -33 407 22Q404 23 401 23Q389 22 382 15Q375 7 369 1Q363 -4 352 -8Q336 -14 330 -21Q328 -3 328 7Q328 8 331 56Q310 60 290 88H289Q286 86 284 83Q282 84 275 93Q263 84 258 65Q252 46 246 28Q241 18 235 7Q236 -1 237 -10V-13Q237 -24 227 -47Q220 -64 220 -72V-73Q227 -87 234 -101Q240 -124 240 -166V-188Q160 -77 133 17Q129 19 124 19Q117 19 108 9Q100 -1 93 -2H91Q89 -2 88 0Q88 2 87 4L86 1Q88 -4 90 -10Q88 -22 75 -40Q60 -60 60 -71V-73Q63 -85 65 -97Q64 -111 50 -137Q40 -155 37 -167Q58 -147 72 -124Q103 -147 128 -180Q153 -212 179 -244Q237 -312 247 -340Q250 -353 252 -367Q207 -348 184 -328Q150 -300 142 -259Q135 -256 127 -256Q119 -256 101 -262Q96 -290 77 -303Q56 -316 37 -331V-335Q39 -354 41 -373V-376Q41 -391 35 -413Q28 -439 28 -452V-460Q29 -474 40 -489Q43 -493 62 -516Q76 -535 88 -554Q100 -573 121 -583V-582Q121 -577 113 -569Q104 -559 102 -556Q95 -544 95 -532Q95 -526 98 -520Q101 -528 104 -535Q107 -542 116 -544Q114 -528 114 -526Q114 -522 117 -516Q150 -526 202 -554Q246 -578 265 -585Q258 -631 257 -637Q251 -666 241 -681L243 -683Q251 -679 259 -675Q264 -681 268 -687Q322 -680 352 -670Q353 -662 358 -652Q366 -634 366 -622V-619L367 -617L371 -618L372 -617V-611Q373 -601 373 -592Q376 -586 388 -580Q402 -573 404 -562V-558Q401 -542 398 -526V-520Q402 -495 405 -471V-468Q343 -443 343 -397Q343 -392 345 -380Q349 -374 361 -371Q365 -371 365 -375Q365 -379 367 -382Q369 -380 369 -373Q369 -365 373 -365H376Q378 -366 383 -380Q387 -390 396 -390Q388 -376 385 -355Q385 -346 392 -340Q397 -348 401 -357Q405 -366 416 -368Q412 -381 412 -399Q413 -420 413 -441Q413 -461 407 -472H408Q412 -472 417 -463Q421 -455 423 -454V-459Q419 -488 414 -517Q428 -479 435 -471L436 -475Q433 -483 429 -498V-502Q434 -499 439 -491Q445 -482 449 -480Q468 -488 485 -492H489Q508 -491 522 -476Q536 -461 548 -451Q583 -467 620 -478Q614 -526 615 -576Q615 -626 598 -664Q583 -687 579 -711Q579 -722 588 -733V-737Q588 -764 610 -786Q632 -808 662 -808Q672 -808 682 -805Q687 -788 705 -754Q722 -723 728 -700Q719 -681 715 -662V-660Q786 -677 825 -703L827 -700Q825 -694 822 -688H823Q827 -688 835 -693Q844 -699 851 -699Q836 -690 834 -672Q834 -665 840 -665Q843 -665 851 -670V-668Q851 -665 846 -660Q840 -654 840 -652Q842 -645 842 -638Q842 -630 850 -627Q842 -620 841 -608Q840 -595 838 -583Q837 -579 831 -573Q825 -567 825 -562V-559H816Q741 -559 693 -519Q691 -510 691 -490Q767 -503 805 -516Q822 -523 838 -526Q849 -526 853 -512Q866 -519 879 -523Q878 -520 874 -515Q869 -509 869 -504L870 -500Q877 -509 888 -522Q898 -536 909 -537Q908 -531 899 -520Q885 -503 885 -489V-487Q887 -487 893 -494Q899 -502 905 -503Q895 -485 895 -469Q895 -459 900 -454Q903 -455 905 -460V-454Q905 -430 920 -408Q916 -402 916 -383V-373Q916 -365 914 -355Q897 -349 881 -343Q864 -337 859 -319Q828 -300 810 -268Q792 -236 776 -201Q772 -200 766 -200Q746 -200 722 -219Q702 -235 687 -235Q693 -209 700 -187Q797 -195 894 -204Q899 -208 903 -222Q905 -221 905 -215Q905 -209 906 -207Q921 -210 935 -214V-213Q935 -208 927 -202Q921 -197 921 -195V-194Q922 -190 925 -190Q936 -193 946 -197L950 -196L952 -194Q949 -186 946 -178V-175Q946 -171 949 -171H951L953 -170Q951 -163 951 -151Q953 -131 954 -112Q954 -105 953 -101Q948 -82 934 -65Q862 -95 757 -95Q720 -95 691 -91Q693 -54 694 -17Q695 20 705 48Q704 62 702 76Q695 80 692 89Q693 92 693 94Z"/>
</svg>