<svg xmlns="http://www.w3.org/2000/svg" viewBox="0 -800 1024 1024">
	<path fill="#000000" d="M145 -12V-11Q139 -10 133 -10Q127 -10 121 -11V-22Q125 -23 133 -23Q145 -23 145 -12ZM183 -548Q189 -563 206 -567Q223 -571 238 -577Q239 -581 239 -589Q239 -604 230 -635Q221 -666 221 -681V-684Q221 -705 239 -732Q256 -757 272 -763Q277 -765 286 -765Q305 -765 314 -756Q336 -733 352 -702Q357 -689 357 -674Q357 -659 349 -625Q357 -627 374 -637Q398 -651 412 -653Q410 -648 403 -639Q393 -627 393 -620V-619H395Q397 -619 400 -623Q404 -628 408 -628H410Q402 -619 402 -606Q402 -588 412 -556Q400 -556 393 -541Q386 -527 386 -508Q386 -492 390 -483Q382 -442 378 -443Q351 -440 333 -420Q315 -400 315 -373Q315 -355 320 -343Q336 -354 416 -415Q418 -413 416 -410Q405 -396 398 -382Q398 -376 403 -372H405Q412 -375 415 -378L416 -377Q409 -371 409 -356Q409 -349 410 -345H419Q406 -337 406 -306Q406 -287 412 -280Q407 -270 380 -245Q359 -225 341 -211Q334 -206 325 -200Q316 -194 314 -184Q316 -176 317 -169Q318 -162 318 -148Q318 -127 316 -103L325 -71Q326 -55 333 -29Q350 22 346 24Q337 29 320 48Q303 68 292 73Q272 64 242 38Q213 13 194 4Q174 1 152 -10Q155 -11 163 -11Q185 -10 206 -9L221 -10Q151 -31 78 -45Q89 -48 101 -48Q119 -48 152 -41Q180 -35 190 -35Q201 -35 207 -38Q203 -39 194 -40Q184 -40 183 -48Q197 -50 207 -56Q217 -62 228 -68V-74Q230 -89 231 -105Q231 -108 229 -116Q210 -111 197 -77Q186 -73 177 -73Q159 -73 134 -92Q116 -106 107 -109Q99 -136 99 -161Q99 -223 135 -246Q133 -238 133 -234Q133 -230 135 -228Q170 -248 240 -295V-364Q204 -352 159 -314Q137 -298 127 -298Q118 -298 110 -302Q95 -309 77 -344Q58 -380 41 -388V-430Q43 -443 53 -466Q61 -484 62 -492Q63 -494 63 -500Q63 -507 62 -515Q67 -539 98 -559Q107 -539 114 -537Q130 -543 145 -546Q150 -546 154 -543ZM613 -354Q613 -360 611 -362Q589 -349 577 -349Q565 -349 559 -360Q550 -357 550 -342Q550 -330 553 -309Q562 -312 579 -315Q604 -319 612 -324V-329Q613 -341 613 -354ZM608 -456Q605 -465 605 -474Q605 -476 608 -479H606Q575 -472 558 -435H559Q584 -442 608 -456ZM758 -422Q758 -428 756 -440Q750 -427 737 -420Q725 -413 712 -406Q684 -397 681 -363V-349Q690 -351 705 -359Q725 -370 733 -370Q741 -370 750 -364Q756 -392 758 -422ZM757 -473V-574Q733 -570 708 -549Q686 -530 668 -525Q665 -521 658 -517Q650 -513 648 -507Q654 -502 659 -491Q663 -483 667 -479Q669 -480 673 -484Q678 -489 682 -489Q685 -487 687 -485Q691 -497 702 -502Q713 -507 723 -512Q725 -504 726 -497L744 -501Q747 -493 749 -485Q751 -477 757 -473ZM637 -38Q626 -41 614 -44Q613 -50 611 -56Q629 -51 637 -38ZM719 -689Q730 -709 774 -742Q814 -766 856 -788Q858 -788 858 -783V-775H859Q872 -775 882 -787Q892 -799 901 -799Q887 -779 887 -771Q887 -766 889 -762Q891 -761 894 -761Q899 -761 905 -768Q912 -775 916 -775H917Q915 -769 915 -765Q915 -752 929 -736H930Q934 -739 937 -742L938 -741V-736Q939 -721 949 -713Q959 -704 970 -698Q976 -671 964 -636Q931 -633 922 -612Q921 -603 919 -595Q904 -563 889 -538L882 -508Q887 -504 887 -494Q887 -483 886 -473Q884 -437 884 -412Q884 -380 889 -365Q885 -342 885 -311Q886 -270 887 -230Q887 -197 883 -170L879 -153Q885 -152 885 -145V-135Q894 -72 917 -15Q910 5 911 26Q905 48 883 65Q862 83 847 96Q777 87 713 10Q696 1 678 -9Q661 -19 649 -34Q659 -33 678 -24Q697 -15 712 -14Q700 -23 659 -47Q615 -73 593 -92Q613 -86 650 -67Q691 -46 713 -43Q707 -56 679 -68Q656 -78 649 -88L684 -76Q714 -67 718 -67H720Q732 -69 736 -81Q741 -92 748 -102Q743 -114 743 -136Q745 -167 746 -198Q746 -212 745 -218Q749 -235 753 -252Q753 -262 747 -270H740Q725 -268 709 -267H706Q702 -266 698 -266Q690 -260 682 -254Q680 -248 680 -210Q684 -183 687 -156V-152Q687 -131 672 -111Q657 -91 639 -92Q628 -92 622 -114Q615 -137 603 -138Q603 -147 610 -147Q609 -152 603 -153Q593 -155 592 -156Q593 -162 604 -164Q613 -166 615 -168Q616 -182 618 -208Q620 -233 606 -239Q573 -233 562 -217L545 -216Q543 -195 547 -181Q551 -157 552 -142Q554 -128 566 -113Q564 -109 564 -106Q567 -97 569 -88Q550 -76 527 -57Q503 -38 481 -36H480Q475 -36 469 -40Q462 -45 457 -45Q451 -45 445 -39V-41Q445 -50 454 -55Q419 -100 398 -166Q411 -169 423 -176Q430 -207 430 -265Q430 -292 429 -319Q429 -383 436 -415Q433 -419 433 -424V-429Q433 -434 429 -437Q433 -445 433 -453Q430 -472 426 -491L419 -579Q416 -599 412 -619Q421 -611 430 -604V-607Q430 -616 424 -628H427Q435 -628 447 -623Q470 -615 493 -606Q516 -597 528 -582Q590 -628 661 -669Q679 -684 700 -688Q704 -687 707 -687Z"/>
</svg>