<svg xmlns="http://www.w3.org/2000/svg" viewBox="0 -800 1024 1024">
	<path fill="#000000" d="M970 -107V-97Q964 -100 946 -100Q948 -110 961 -110Q966 -110 970 -107ZM615 46V50Q605 50 594 59Q584 67 579 67Q572 67 560 57Q548 48 540 46Q535 48 527 58L525 55Q527 51 528 47V46Q524 37 514 37Q491 40 479 55V54Q479 50 496 38Q513 26 513 21Q513 15 497 14Q507 7 517 -1Q514 -7 511 -14V-16Q522 -23 529 -38Q536 -54 550 -56Q554 -56 556 -55Q562 -64 571 -64H574Q598 -61 607 -31Q617 3 623 31Q616 33 615 46ZM758 -445V-443Q758 -424 780 -408Q772 -374 764 -340Q724 -336 696 -318Q669 -300 636 -285Q604 -302 598 -344Q598 -356 604 -367Q604 -398 615 -406Q626 -411 639 -412Q655 -417 685 -434Q718 -453 734 -456Q736 -456 744 -462H752Q750 -455 747 -449Q748 -447 749 -445L751 -443Q754 -444 756 -445ZM901 -115V-113Q901 -108 896 -99Q890 -88 890 -82Q890 -76 892 -73Q904 -76 918 -85Q936 -96 943 -98Q929 -92 917 -80Q903 -66 903 -52Q903 -41 913 -31Q917 -32 928 -32Q922 -30 916 -28Q908 -22 907 -12Q906 -2 903 8Q899 17 892 26Q885 35 884 47Q885 50 885 53Q880 43 856 32Q840 24 832 17Q812 -4 796 -35Q777 -61 768 -92Q768 -96 767 -100Q769 -118 771 -136Q771 -144 768 -153Q775 -157 783 -157Q799 -155 815 -153H820Q828 -155 833 -167Q837 -176 841 -179V-158Q841 -137 851 -130Q854 -130 857 -134Q860 -138 864 -138H865V-122Q888 -145 915 -166Q908 -154 895 -140Q882 -127 881 -108V-103Q884 -104 889 -109Q893 -114 900 -115ZM744 70V72L740 71H738V75Q738 83 728 90Q719 96 718 102Q710 98 695 98Q684 98 679 99Q672 91 663 81Q654 72 650 59Q647 38 647 18Q648 -2 635 -15Q658 -38 658 -106Q658 -130 657 -154Q614 -147 578 -120Q552 -100 521 -62H516Q503 -63 494 -70Q486 -78 475 -84Q458 -92 446 -97Q434 -102 431 -115Q430 -117 430 -124Q430 -136 432 -148Q437 -169 447 -185Q444 -195 444 -204Q444 -231 469 -252Q484 -265 517 -279V-278Q517 -276 511 -268Q502 -256 502 -249Q502 -246 503 -244Q506 -239 512 -235Q518 -238 530 -240Q548 -243 553 -248Q555 -247 560 -247Q574 -250 588 -254Q592 -254 594 -253Q604 -258 605 -264H606Q609 -262 611 -260H612Q644 -272 833 -337L862 -358Q864 -354 866 -342Q870 -342 872 -340Q880 -342 888 -346Q903 -354 914 -354H916Q909 -351 901 -346Q893 -341 892 -332Q892 -331 894 -325L896 -324Q900 -324 904 -328L906 -325Q905 -323 902 -319Q898 -316 897 -311Q897 -300 907 -300Q911 -300 913 -301Q909 -296 909 -288Q911 -277 912 -267Q910 -251 901 -238Q892 -225 886 -211L866 -223Q803 -220 744 -191V-181Q741 -132 734 -79V-75Q734 -62 740 -33Q745 -9 746 7V11Q745 34 743 56Q743 65 744 70ZM908 -434V-432L907 -430Q867 -415 851 -388H849Q846 -388 842 -394Q837 -389 832 -385L830 -386Q803 -422 791 -431H790Q787 -431 786 -428Q784 -424 783 -423Q781 -425 781 -427Q784 -433 786 -439Q783 -442 781 -442Q774 -439 767 -436H765Q767 -450 781 -473Q792 -490 795 -503Q670 -473 577 -399Q572 -391 572 -381Q574 -364 575 -348Q575 -340 574 -336Q573 -333 568 -325Q561 -315 561 -307Q561 -301 564 -295Q553 -308 533 -311Q512 -315 493 -319Q486 -329 478 -340H476Q467 -336 463 -332L462 -334Q464 -335 469 -348Q462 -354 455 -365Q448 -375 439 -377H437Q432 -377 424 -371Q417 -366 413 -364Q423 -377 433 -391Q424 -410 404 -446Q394 -440 394 -429Q394 -424 397 -420Q390 -416 390 -407Q390 -398 399 -377H392Q396 -375 400 -369Q404 -362 408 -361Q401 -354 401 -344Q401 -337 402 -333Q385 -332 352 -324Q329 -318 327 -299Q328 -290 336 -284Q337 -283 353 -276Q360 -278 364 -288Q366 -286 366 -283Q366 -279 365 -275Q365 -272 367 -270Q375 -274 390 -288Q399 -296 407 -302Q389 -277 389 -263Q389 -250 402 -245Q414 -250 427 -254Q432 -254 435 -250Q410 -247 410 -219Q410 -208 414 -197Q425 -189 435 -178H430Q423 -178 416 -179Q412 -179 411 -178Q407 -174 407 -163V-157Q382 -152 380 -127Q373 -132 373 -143Q373 -146 374 -148Q365 -157 356 -166Q346 -174 329 -175H327Q325 -163 325 -156Q328 -126 333 -95Q334 -86 334 -68V-54Q334 -11 344 7Q329 25 315 59Q280 59 275 29L273 26L269 27L266 26Q266 19 262 13Q258 7 258 2Q258 -2 259 -4Q254 -16 238 -19Q254 -44 254 -110Q215 -62 200 -39Q171 6 161 51Q155 49 144 41Q129 30 118 28H103Q97 26 89 15Q84 8 79 5Q81 -3 81 -6Q81 -14 75 -27Q71 -36 71 -41Q71 -45 72 -47Q68 -56 62 -62L64 -65Q66 -62 72 -59H73Q72 -68 62 -78Q53 -87 53 -92Q60 -92 66 -85Q71 -79 76 -79Q67 -95 54 -108Q41 -121 29 -135Q42 -134 65 -111Q81 -96 88 -92Q98 -87 102 -87Q110 -87 115 -94Q120 -101 126 -110Q160 -148 199 -188Q238 -228 257 -276Q205 -262 176 -241Q165 -233 149 -214Q129 -191 115 -182Q100 -192 66 -210Q61 -237 55 -262Q48 -288 28 -299Q35 -314 49 -341Q72 -383 79 -405Q88 -439 108 -453Q106 -435 104 -418Q104 -412 105 -409L107 -408Q108 -408 109 -411Q110 -414 113 -414H114Q119 -413 130 -413Q159 -413 214 -436Q248 -453 284 -468Q283 -510 281 -551Q279 -593 259 -616Q260 -623 263 -628Q261 -631 250 -642Q261 -666 279 -684Q293 -698 298 -702Q312 -713 323 -713Q325 -713 331 -711Q336 -709 344 -698Q351 -689 356 -685Q362 -683 367 -681Q385 -660 385 -616Q385 -608 383 -598Q380 -590 376 -583Q369 -566 365 -500Q367 -499 371 -499Q377 -499 382 -500Q385 -502 387 -512Q390 -524 395 -526Q397 -520 397 -517Q397 -509 396 -501Q396 -491 401 -486Q405 -498 409 -510Q412 -522 422 -528Q420 -547 417 -555L419 -556Q426 -550 432 -544Q435 -548 440 -548Q450 -546 460 -544Q465 -552 467 -578Q468 -600 473 -609Q475 -587 477 -565Q478 -543 491 -532Q494 -541 497 -550Q499 -548 499 -541V-526Q502 -520 516 -511Q526 -505 530 -499Q533 -500 535 -504Q538 -509 540 -509Q560 -514 595 -532Q632 -552 657 -556Q656 -614 649 -641Q639 -681 610 -693Q617 -699 618 -716Q619 -730 621 -735Q623 -741 643 -762Q664 -785 672 -789Q679 -793 688 -793Q712 -793 735 -763Q756 -736 759 -709Q760 -704 760 -700Q760 -682 748 -654Q736 -626 736 -613Q736 -604 741 -592Q786 -609 833 -619Q838 -634 853 -634Q876 -629 897 -618Q903 -622 912 -624V-620Q913 -613 919 -610Q927 -614 932 -620Q937 -626 948 -627H950Q938 -613 934 -592Q934 -586 937 -580H938Q941 -580 945 -586Q947 -589 949 -589H950Q949 -585 949 -576Q949 -562 958 -537Q967 -512 967 -498V-496Q964 -483 961 -470Q961 -466 962 -463Q951 -452 947 -434Q933 -438 922 -438Q912 -438 909 -436Z"/>
</svg>