<svg xmlns="http://www.w3.org/2000/svg" viewBox="0 -800 1024 1024">
	<path fill="#000000" d="M888 -410H891Q897 -410 897 -404Q893 -394 885 -389Q883 -391 883 -394Q886 -402 888 -410ZM373 -53Q363 -56 352 -60Q352 -70 358 -70Q370 -67 373 -53ZM169 -578Q171 -591 187 -591Q194 -591 198 -588L196 -585L197 -584Q182 -575 176 -575Q172 -575 169 -578ZM941 -318H943Q938 -308 933 -299Q940 -289 948 -279Q956 -270 957 -253Q957 -249 956 -245Q942 -238 934 -198Q920 -196 906 -194Q899 -194 894 -198Q893 -196 891 -194Q823 -199 741 -199Q711 -199 669 -197Q653 -150 641 -100Q628 -50 604 -8Q584 19 564 45Q550 63 537 78Q525 93 521 117Q516 112 509 112Q498 113 487 114H481Q471 102 463 89Q460 89 458 92Q455 96 451 96H450Q452 89 454 82Q415 15 403 1L405 0Q416 7 426 13Q424 2 404 -14Q382 -32 379 -48Q389 -47 403 -31Q418 -13 429 -11Q423 -28 397 -53Q368 -82 361 -102H362Q371 -99 379 -89Q434 -40 438 -36Q441 -36 441 -41V-43Q441 -47 443 -47H445Q449 -46 453 -42Q490 -64 519 -103Q541 -133 565 -186Q551 -188 544 -188Q518 -187 493 -181Q468 -175 443 -171Q364 -157 332 -138Q325 -138 323 -140Q261 -118 249 -112Q209 -93 189 -66Q183 -65 177 -65Q140 -65 121 -96Q67 -107 64 -128Q61 -161 61 -172Q61 -180 62 -183Q63 -186 74 -198Q88 -213 93 -225Q103 -247 108 -255Q118 -272 132 -276Q148 -279 163 -280Q186 -288 205 -300Q224 -313 251 -314H255Q244 -306 231 -298Q218 -291 211 -278Q220 -272 238 -272Q252 -272 259 -276H262Q300 -280 337 -284Q345 -284 348 -283Q354 -290 365 -290Q375 -290 389 -291Q420 -295 450 -300Q474 -301 549 -308Q548 -317 533 -342Q516 -341 488 -326Q466 -314 453 -312H448Q432 -312 407 -330Q402 -339 392 -347Q381 -352 371 -354Q360 -357 355 -371V-376Q355 -399 343 -399H342Q339 -400 339 -402Q339 -403 342 -406Q346 -410 346 -413V-415Q326 -418 311 -428Q314 -427 321 -427Q354 -427 367 -450Q419 -464 471 -479Q467 -495 466 -504Q449 -499 411 -485Q381 -475 370 -475Q360 -475 352 -479Q362 -486 374 -490Q368 -523 348 -523Q342 -523 339 -522V-525Q339 -545 307 -545Q296 -545 287 -542L286 -544Q286 -546 291 -549Q297 -552 297 -554Q296 -574 267 -574Q254 -574 238 -570Q244 -581 258 -584Q271 -588 284 -593Q277 -596 268 -596Q242 -591 215 -587Q210 -587 207 -588Q298 -620 390 -655Q482 -691 561 -743Q562 -746 562 -752Q562 -761 556 -777Q582 -803 620 -803H628Q643 -801 671 -778Q696 -757 711 -755Q723 -739 733 -714Q742 -717 750 -720Q736 -703 736 -687Q736 -676 747 -672Q740 -664 740 -642Q740 -629 743 -623Q736 -589 722 -559Q705 -559 700 -553Q692 -554 673 -554Q594 -554 542 -531Q545 -527 553 -523Q560 -520 564 -516Q567 -511 570 -506Q572 -504 579 -504Q591 -504 636 -516Q674 -526 697 -534L699 -533Q696 -529 693 -525V-524Q696 -519 698 -519Q703 -520 708 -522L712 -521Q709 -513 705 -506Q708 -498 711 -491Q723 -494 756 -501Q753 -494 736 -488Q715 -481 715 -466V-465L717 -464Q722 -467 731 -470H733Q733 -466 727 -462Q723 -459 721 -456Q715 -445 713 -428Q711 -411 708 -395Q698 -387 691 -378H684Q658 -378 636 -368Q638 -352 651 -321Q684 -327 749 -330Q830 -333 863 -342Q872 -365 884 -375Q884 -369 880 -355Q886 -341 915 -341Q926 -341 931 -342Q931 -339 926 -336Q922 -334 922 -332Q932 -318 941 -318Z"/>
</svg>