<svg xmlns="http://www.w3.org/2000/svg" viewBox="0 -800 1024 1024">
	<path fill="#000000" d="M95 -24Q90 -19 81 -19Q76 -19 73 -22Q77 -32 87 -32Q93 -32 95 -24ZM960 -539V-537Q955 -544 955 -557Q955 -574 964 -574Q968 -574 972 -571Q971 -567 966 -558Q960 -548 960 -539ZM295 63V66Q283 68 276 76Q269 83 261 89Q244 87 223 67Q208 53 196 48V47Q194 22 175 16Q155 10 138 2H145Q166 5 187 8H193Q185 1 173 -1Q162 -3 150 -6Q118 -14 106 -19Q109 -20 116 -20Q148 -16 180 -13H184Q184 -20 172 -24Q163 -27 163 -30Q166 -33 170 -33Q176 -31 182 -30H184Q209 -33 214 -59Q221 -99 220 -144Q203 -139 189 -126Q181 -110 175 -94Q170 -79 151 -78H145Q138 -81 131 -84Q128 -83 122 -83Q106 -83 95 -93Q83 -104 83 -118Q83 -122 85 -130Q72 -145 72 -174Q72 -182 73 -186Q77 -212 95 -224Q112 -236 125 -253Q130 -261 132 -269Q135 -278 144 -280V-279Q141 -269 138 -260Q138 -256 141 -252Q162 -257 192 -276Q217 -292 230 -297Q230 -298 233 -353Q200 -346 180 -339Q170 -335 156 -321Q144 -309 135 -307Q132 -306 127 -306Q112 -307 103 -317Q93 -327 86 -337H83Q61 -337 48 -357Q36 -375 36 -403Q36 -424 45 -444Q40 -459 40 -468Q40 -486 55 -503Q61 -509 85 -529Q98 -541 108 -551Q118 -562 135 -568L136 -565Q136 -563 129 -558Q123 -554 121 -551Q113 -541 113 -528Q113 -519 119 -514Q146 -522 175 -535Q207 -543 231 -555V-558Q231 -569 222 -586Q215 -599 215 -603V-604Q218 -613 220 -623Q215 -636 209 -649Q224 -644 229 -644Q234 -644 236 -646Q235 -655 223 -665Q213 -673 211 -680Q222 -680 237 -668Q250 -658 260 -658H263Q262 -662 253 -670Q245 -677 243 -680Q251 -679 261 -674Q276 -666 285 -666Q295 -667 305 -669H307Q320 -666 333 -647Q343 -632 348 -629Q346 -618 344 -607Q344 -602 345 -600Q367 -604 413 -626L414 -623Q412 -618 409 -613V-612Q412 -607 428 -600Q444 -609 466 -612Q463 -606 450 -597Q432 -584 432 -576Q432 -569 437 -563Q448 -571 458 -579Q448 -551 448 -539Q448 -523 458 -516Q453 -493 448 -470Q443 -447 430 -433Q427 -434 424 -435H422Q405 -425 372 -414Q328 -400 313 -388Q311 -371 308 -355Q308 -349 309 -347Q318 -349 336 -361Q353 -373 363 -376Q362 -371 353 -362Q343 -352 343 -346Q343 -341 347 -337Q349 -338 351 -342Q354 -348 358 -348H360Q356 -339 354 -327V-322L357 -321Q361 -323 364 -325H365Q361 -313 361 -294Q362 -272 363 -250Q363 -240 362 -235Q317 -211 307 -193Q300 -179 300 -155Q300 -151 303 -109Q307 -12 313 12Q295 40 295 63ZM952 -169H948Q936 -169 929 -159Q886 -162 870 -192Q854 -221 835 -249Q806 -241 790 -209Q785 -200 767 -142Q755 -105 740 -29Q725 47 716 77Q705 80 690 91Q668 107 649 108Q639 91 622 80Q605 68 588 57Q592 50 592 43Q592 23 565 12Q567 9 569 9Q576 11 583 12H584Q578 0 552 -14Q527 -28 520 -36H522Q538 -36 560 -22Q578 -11 591 -9Q583 -18 572 -23Q560 -28 550 -34Q553 -36 560 -36Q568 -36 583 -29Q596 -23 603 -22Q611 -27 613 -28Q656 -120 686 -231Q682 -231 678 -232Q658 -232 637 -217Q639 -210 640 -204Q632 -192 628 -177Q620 -163 604 -150Q589 -136 576 -123Q556 -96 535 -70Q525 -57 508 -29Q487 6 473 20Q464 37 463 41Q452 52 440 52Q429 52 403 38Q400 38 396 42Q393 45 389 45Q390 42 390 34Q390 4 368 3V-2Q368 -12 358 -21Q350 -28 348 -34H352Q354 -34 366 -28Q363 -38 347 -51Q331 -64 329 -73H330Q340 -73 351 -63Q363 -52 372 -52H374Q395 -52 425 -77Q435 -86 463 -115Q486 -137 506 -155Q526 -172 541 -192Q525 -188 505 -166Q503 -165 500 -165Q489 -168 477 -172Q466 -168 455 -165H454Q449 -165 436 -171Q421 -178 410 -178Q402 -178 395 -174V-176Q395 -186 389 -190Q383 -194 377 -198Q371 -210 371 -235V-263Q371 -278 368 -290Q375 -303 377 -344Q379 -376 384 -391Q387 -386 387 -369Q387 -349 392 -342Q428 -381 454 -453Q472 -502 493 -592Q514 -602 532 -617Q549 -633 565 -645Q566 -632 572 -626H573Q576 -626 577 -631Q578 -636 581 -636Q588 -624 594 -609Q600 -594 612 -593L616 -594Q618 -586 626 -573Q637 -555 639 -545Q640 -538 640 -531Q640 -501 631 -483Q625 -476 616 -471Q593 -445 582 -405Q571 -366 557 -334Q628 -355 695 -388Q697 -395 698 -403V-405Q721 -412 748 -417Q724 -470 696 -519V-528Q647 -625 596 -678Q592 -682 585 -684Q577 -713 560 -718Q570 -727 570 -731Q570 -737 550 -737H542Q545 -744 550 -745Q555 -746 562 -749Q583 -763 605 -785Q626 -807 650 -809Q668 -809 686 -790Q698 -761 708 -731Q718 -700 737 -678L736 -674Q736 -671 737 -669Q833 -511 883 -433H884Q891 -430 897 -428L901 -429Q913 -441 922 -478Q929 -508 936 -519V-517Q936 -501 929 -471Q922 -440 922 -426Q922 -415 923 -410Q933 -428 943 -473Q951 -510 958 -526V-519Q958 -501 953 -469Q947 -431 947 -414Q947 -406 949 -390Q955 -394 959 -414Q962 -429 966 -435Q969 -424 969 -413Q968 -390 966 -367Q969 -331 975 -297Q976 -286 976 -275Q976 -214 952 -169Z"/>
</svg>