<svg xmlns="http://www.w3.org/2000/svg" viewBox="0 -800 1024 1024">
	<path fill="#000000" d="M441 38Q437 42 431 42Q424 42 412 35Q415 29 424 29Q438 29 441 38ZM831 -757V-743Q828 -742 815 -735Q813 -741 813 -743Q813 -758 826 -758Q829 -757 831 -757ZM563 -522Q519 -516 477 -507Q435 -499 415 -473Q422 -469 433 -469Q460 -472 486 -476Q517 -479 547 -482Q555 -502 563 -522ZM405 -563V-562Q481 -576 551 -603L550 -599Q550 -595 557 -588Q566 -590 575 -592Q572 -587 572 -584Q572 -577 583 -568Q598 -617 621 -658Q555 -653 497 -627Q448 -607 420 -582Q405 -569 405 -563ZM849 -157V-156Q852 -151 854 -147Q836 -140 809 -140Q778 -141 746 -142Q728 -142 720 -141Q670 -138 653 -135Q615 -129 594 -117V-52Q600 -23 606 6V10Q603 43 597 80Q589 84 577 96Q563 110 553 112H548Q531 111 515 99Q499 87 485 80Q482 64 469 53Q465 50 444 36Q453 35 462 33Q438 20 415 14Q392 8 365 -2H371Q386 -2 418 6Q438 11 448 12Q439 3 414 -6Q395 -13 387 -18H389Q420 -13 446 -8Q451 -8 453 -9Q473 -17 476 -45Q480 -74 486 -97Q404 -84 362 -68Q344 -59 326 -51Q305 -45 283 -39Q259 -26 237 -7Q214 13 190 15Q184 15 181 14Q173 11 163 2Q153 -7 140 -8H138Q132 -37 120 -52Q113 -60 104 -69Q95 -78 93 -87V-91Q93 -107 109 -126Q122 -139 140 -150Q159 -162 177 -175Q224 -209 254 -217Q235 -204 213 -190Q192 -177 190 -154V-148Q202 -156 215 -171Q228 -185 244 -189Q242 -184 233 -174Q222 -163 222 -154Q222 -150 223 -148Q331 -175 365 -186H372L375 -184Q379 -188 384 -190H385Q392 -190 398 -191Q401 -191 405 -189Q415 -196 450 -199Q489 -202 500 -213Q498 -217 498 -219Q499 -224 500 -229Q500 -232 498 -234Q472 -233 461 -212Q415 -217 396 -243V-248Q396 -265 374 -284Q359 -297 355 -306Q360 -304 365 -303L368 -304Q368 -313 356 -320Q351 -323 334 -329Q366 -334 403 -352Q443 -364 486 -374Q529 -383 560 -399Q555 -419 531 -419Q513 -419 506 -408Q472 -406 441 -402Q416 -398 412 -373Q402 -370 394 -370Q375 -370 349 -391Q330 -407 316 -410Q317 -412 317 -417V-419Q317 -428 322 -429Q315 -439 305 -464Q298 -483 291 -493Q283 -506 254 -524Q233 -537 223 -548Q223 -563 212 -576Q213 -587 213 -599Q213 -643 200 -669Q203 -667 208 -659Q213 -651 218 -649V-651Q218 -658 211 -670Q203 -684 203 -694V-697Q226 -671 232 -668V-670Q232 -673 231 -677Q231 -679 233 -681Q243 -676 245 -674Q261 -697 290 -697Q338 -694 361 -658Q538 -727 659 -763Q662 -770 665 -777Q676 -783 689 -783Q716 -783 730 -766L748 -771L750 -769Q749 -765 747 -761Q747 -758 750 -757Q772 -765 793 -777Q775 -766 771 -741Q771 -732 778 -726Q788 -728 798 -731H800L801 -729Q798 -720 795 -712Q795 -710 797 -706Q809 -698 816 -678Q820 -665 824 -639Q816 -627 809 -608H807Q767 -608 736 -575Q721 -559 688 -505Q682 -496 665 -454Q651 -430 640 -405Q643 -399 649 -399Q657 -400 664 -401Q663 -395 661 -390L662 -387L665 -386Q669 -388 673 -391Q669 -383 669 -374Q669 -341 685 -330Q682 -328 682 -320V-309Q690 -306 701 -306Q658 -295 569 -258Q572 -243 593 -226Q667 -237 741 -249Q769 -250 793 -256Q798 -259 804 -271Q811 -285 818 -288Q821 -285 821 -281Q820 -274 819 -268V-267Q823 -253 844 -253Q859 -254 874 -255L876 -253Q876 -251 872 -249Q864 -244 864 -241V-240L867 -238H872L876 -237Q871 -231 871 -221Q873 -206 875 -191Q875 -186 873 -180Q856 -173 849 -157Z"/>
</svg>