<svg xmlns="http://www.w3.org/2000/svg" viewBox="0 -800 1024 1024">
	<path fill="#000000" d="M166 -24H163Q159 -24 144 -30Q144 -37 154 -37Q166 -37 166 -27ZM970 -414Q965 -408 950 -398Q949 -400 949 -404Q951 -417 961 -418Q966 -418 970 -414ZM505 -487V-485Q527 -487 561 -498Q599 -510 619 -512Q619 -521 612 -521Q604 -521 592 -512Q573 -526 552 -526Q546 -526 543 -525Q547 -532 551 -539Q532 -556 518 -556Q512 -556 509 -555V-557L510 -561Q510 -562 508 -566Q504 -571 497 -571Q491 -570 484 -569Q493 -578 501 -587Q493 -592 486 -592Q472 -590 464 -581Q454 -572 452 -556V-552Q455 -548 458 -548H462Q465 -548 467 -546Q463 -532 463 -521Q463 -496 474 -485Q460 -475 460 -462Q460 -458 462 -452L484 -486Q484 -481 487 -480Q491 -486 496 -492Q500 -498 507 -498H511Q507 -493 505 -487ZM754 -206V-198Q754 -194 755 -192Q767 -193 789 -199Q813 -206 826 -207Q832 -223 837 -239Q806 -234 789 -221Q757 -229 745 -258H723Q725 -260 727 -263L724 -264Q721 -267 716 -267Q711 -267 705 -263L708 -56Q747 -60 785 -65Q785 -78 794 -110Q775 -107 760 -99Q753 -101 745 -113Q722 -141 720 -153Q720 -156 719 -160Q720 -177 732 -187Q744 -198 754 -206ZM625 -107V-81Q579 -78 561 -53Q566 -43 573 -36Q606 -41 638 -47Q635 -104 634 -213Q633 -332 629 -396Q615 -394 602 -394Q590 -394 582 -383Q603 -362 612 -346Q625 -323 625 -293V-290Q605 -262 579 -241Q553 -219 526 -198Q532 -192 535 -171Q537 -152 542 -146Q558 -149 576 -160Q593 -170 607 -177Q602 -170 600 -163L601 -159Q607 -157 609 -157Q617 -158 624 -159H626Q621 -158 621 -152Q622 -145 622 -138L624 -137Q627 -137 629 -138Q631 -138 632 -135Q628 -134 628 -130Q630 -124 631 -118V-117Q628 -112 625 -107ZM514 -306V-309Q516 -324 523 -335Q518 -342 518 -346Q518 -349 520 -351Q505 -354 493 -364Q482 -374 472 -383Q460 -391 447 -399Q444 -403 444 -406Q445 -411 446 -417Q446 -421 444 -423Q437 -414 437 -402V-399Q348 -394 348 -348Q348 -335 355 -321Q376 -342 384 -344Q372 -335 368 -320Q368 -317 369 -315Q372 -315 375 -320Q378 -324 382 -324Q382 -317 381 -311Q381 -298 388 -291Q391 -303 400 -303Q397 -294 394 -285Q394 -281 397 -278Q414 -328 435 -335Q417 -310 417 -294Q417 -285 422 -281V-286Q422 -300 435 -305Q430 -295 430 -289Q430 -287 432 -281Q446 -275 464 -275H472Q483 -282 491 -292Q500 -302 514 -306ZM982 -245V-240Q979 -241 975 -241Q959 -241 953 -224L956 -222H961Q930 -197 912 -157Q895 -117 883 -72Q866 15 831 84Q809 90 792 99Q781 86 766 78Q759 78 755 86Q753 67 733 49Q736 41 738 33Q738 31 736 27Q718 25 705 25Q661 25 610 36Q574 49 549 55H544Q521 55 503 37Q495 28 477 1Q477 -3 481 -11Q473 -21 464 -21Q465 -26 477 -33Q470 -63 453 -83Q437 -104 420 -125Q374 -126 351 -163Q348 -145 348 -128Q352 -70 364 -21Q356 59 298 76Q283 65 271 49Q259 33 246 19Q228 1 179 -21Q198 -21 244 -9Q231 -30 206 -36Q180 -43 152 -51H151Q153 -52 158 -52Q191 -48 224 -45H233V-46Q233 -53 216 -53H213Q225 -58 236 -63Q247 -67 252 -80Q254 -98 256 -116Q259 -126 262 -137Q262 -141 259 -144Q217 -127 193 -80H187Q171 -80 145 -86Q139 -108 122 -125Q103 -142 101 -165Q101 -174 105 -183Q112 -194 128 -209Q138 -220 145 -230Q152 -240 163 -246V-243Q160 -230 157 -218Q181 -234 264 -273Q265 -290 265 -308Q265 -320 264 -326Q210 -312 167 -287Q162 -285 146 -269Q133 -257 123 -255Q119 -254 115 -254Q72 -258 61 -305Q22 -330 22 -365Q22 -371 24 -383Q25 -388 37 -405Q35 -417 35 -423Q35 -454 59 -478Q64 -483 105 -513Q101 -507 93 -497Q85 -487 84 -474Q84 -471 86 -465Q113 -472 140 -482Q167 -492 194 -495Q214 -516 259 -521V-530Q259 -550 247 -579Q236 -606 236 -622V-624Q242 -636 247 -648Q242 -668 225 -672Q231 -673 242 -673H256Q278 -673 289 -681Q289 -684 285 -687Q281 -689 281 -693V-695H283Q312 -691 337 -680Q343 -666 356 -655Q365 -647 382 -638Q370 -600 370 -584Q370 -578 372 -566Q403 -584 425 -594Q425 -581 438 -575Q442 -575 449 -581Q455 -586 459 -586Q462 -586 464 -585Q491 -611 561 -661Q628 -709 661 -741Q660 -744 660 -749Q660 -769 678 -785Q696 -801 717 -801Q730 -801 740 -794Q750 -782 760 -770Q777 -755 794 -741Q818 -708 828 -662Q836 -634 836 -628Q836 -624 834 -614Q820 -606 799 -604Q779 -603 758 -601Q720 -601 708 -576Q712 -573 718 -562Q725 -550 732 -546Q809 -553 890 -597L891 -594Q889 -586 887 -578L888 -576Q907 -584 926 -599Q925 -594 919 -586Q908 -571 908 -563Q909 -560 909 -558L912 -557Q921 -561 930 -566Q921 -559 921 -547V-542L922 -541Q923 -541 927 -545Q925 -533 925 -521Q925 -507 930 -501Q925 -492 923 -481V-477Q863 -472 770 -443Q745 -437 728 -427Q710 -418 706 -390Q704 -372 704 -328Q704 -293 705 -281Q750 -312 798 -341Q846 -369 909 -375H910Q916 -373 918 -369Q928 -385 945 -392V-391Q945 -388 940 -383Q930 -372 930 -366Q930 -363 932 -359Q933 -370 949 -375Q949 -366 948 -357Q948 -337 958 -337Q962 -337 964 -338Q964 -334 961 -331Q958 -328 958 -326Q961 -318 961 -317Q961 -314 959 -311Q966 -295 974 -281Q981 -267 982 -245Z"/>
</svg>