<svg xmlns="http://www.w3.org/2000/svg" viewBox="0 -800 1024 1024">
	<path fill="#000000" d="M89 -512Q86 -494 73 -490Q71 -494 71 -497Q71 -507 89 -512ZM350 -307V-305Q350 -293 336 -280Q324 -269 321 -258Q301 -251 280 -245Q266 -251 255 -251Q252 -251 244 -249L243 -253Q243 -256 248 -261Q241 -266 237 -266Q230 -266 219 -259Q208 -252 202 -251Q210 -263 220 -272Q189 -299 175 -316Q153 -343 144 -374H146Q149 -374 154 -370Q160 -365 164 -365L166 -368Q164 -373 161 -378L162 -380Q203 -394 249 -398Q263 -398 279 -395Q281 -396 283 -401Q286 -409 291 -409Q295 -409 297 -408Q295 -402 295 -398Q296 -385 308 -377Q319 -368 327 -359Q339 -362 343 -362V-361Q340 -354 336 -347Q336 -341 343 -328Q350 -315 350 -307ZM279 -458Q264 -464 247 -475Q229 -486 212 -487Q201 -487 193 -480Q198 -488 198 -494Q197 -503 189 -509Q181 -516 174 -522H173Q170 -522 165 -516Q162 -512 159 -512L156 -513Q164 -529 164 -534Q164 -541 156 -545Q150 -547 147 -547Q133 -546 120 -536Q108 -525 101 -519Q103 -529 121 -543Q139 -556 143 -567Q143 -569 137 -569H130Q132 -572 132 -579Q132 -595 110 -608V-609Q110 -612 116 -614Q122 -615 122 -620Q119 -628 99 -632Q85 -635 80 -639Q86 -642 93 -642Q106 -641 118 -640Q128 -640 133 -644Q138 -665 161 -665Q172 -670 172 -689Q172 -697 171 -702Q176 -697 181 -686Q187 -672 192 -668H202Q224 -668 241 -662Q243 -663 243 -668Q243 -674 247 -675H248Q251 -675 251 -670V-662Q251 -660 256 -659Q260 -658 261 -656Q267 -659 269 -674Q271 -691 277 -694Q279 -688 280 -675Q281 -659 285 -653Q292 -643 307 -642Q321 -641 336 -638Q345 -635 350 -625Q354 -616 362 -606Q371 -596 380 -587Q389 -578 392 -561H394Q398 -561 402 -562H404Q400 -550 400 -534V-513Q400 -488 392 -474L396 -455Q390 -455 388 -459Q386 -463 383 -467Q344 -441 328 -441Q314 -441 306 -453ZM274 -14Q272 -7 263 4Q253 17 251 25Q248 47 244 68Q216 83 198 83Q190 83 186 82Q177 80 161 67Q148 56 141 53Q117 45 104 34Q98 26 98 10Q98 7 104 -32Q94 -64 94 -72Q94 -83 98 -92Q112 -110 134 -134Q164 -173 168 -179V-175Q168 -168 164 -156Q159 -141 159 -133Q159 -125 161 -120Q164 -120 165 -117Q213 -131 280 -167Q293 -174 324 -195Q360 -220 381 -228L385 -229Q388 -229 392 -227Q381 -216 370 -207Q359 -198 354 -182Q356 -181 359 -181Q367 -182 369 -189Q372 -197 380 -198H381V-197Q381 -193 376 -186Q367 -173 367 -165Q367 -158 371 -153L373 -152Q375 -152 379 -156Q384 -162 388 -162H389Q378 -140 378 -115Q378 -103 381 -96Q362 -80 343 -65Q325 -45 304 -36ZM670 -697Q716 -722 783 -731Q779 -727 768 -722Q752 -715 752 -708V-707Q754 -704 756 -704Q762 -707 768 -710Q763 -695 763 -689Q763 -681 771 -678Q767 -673 767 -663Q767 -655 772 -648Q777 -641 785 -641H789V-635Q789 -620 795 -613Q790 -610 790 -603Q791 -594 791 -586Q791 -581 790 -578Q768 -569 764 -552H752Q701 -552 633 -530Q618 -525 588 -504Q554 -480 538 -480Q523 -480 512 -495Q507 -501 496 -521Q479 -542 479 -544Q480 -554 481 -564V-567Q478 -575 470 -579Q462 -582 455 -588Q454 -593 454 -602Q454 -636 481 -673V-669Q483 -662 485 -656Q517 -657 576 -675Q610 -685 629 -688ZM691 56Q678 61 657 63Q640 66 623 69H620Q607 68 598 59Q588 50 580 44V40Q580 35 583 35H584Q580 27 574 17Q568 8 567 -4Q570 -12 573 -21Q574 -23 574 -27Q574 -33 573 -40V-44Q580 -64 592 -85Q596 -97 605 -132Q619 -178 623 -224V-231Q621 -241 619 -252V-255Q620 -265 632 -271Q641 -276 654 -276H660Q674 -274 686 -261Q699 -247 702 -231V-228Q702 -219 701 -211Q701 -205 705 -198Q703 -184 693 -156Q681 -123 681 -101V-91Q693 -82 716 -82Q752 -84 787 -86Q801 -86 808 -85Q812 -92 812 -102Q823 -95 829 -95Q834 -95 838 -96Q844 -113 845 -162Q845 -206 851 -225Q854 -213 855 -178Q856 -137 863 -122Q861 -178 861 -223Q861 -241 860 -259Q860 -287 866 -295Q873 -204 879 -113Q883 -116 883 -120Q882 -126 881 -133Q881 -141 880 -150Q881 -181 882 -213V-223Q886 -195 887 -165Q887 -135 897 -113Q901 -116 903 -125Q905 -134 907 -136Q910 -123 913 -110Q916 -98 928 -94Q929 -80 941 -57Q954 -34 955 -21V-12Q954 14 944 35Q934 57 923 75Q821 55 756 55Q744 56 732 56ZM699 -444Q722 -464 767 -478Q773 -492 774 -503Q778 -490 795 -490Q802 -490 808 -491Q814 -491 817 -490H816Q803 -490 803 -476Q803 -465 808 -455H836Q824 -450 819 -446Q810 -440 810 -432Q810 -426 812 -423H814Q819 -424 824 -426Q818 -414 812 -403Q815 -397 817 -392Q792 -370 792 -314Q648 -291 571 -246Q576 -220 598 -214Q596 -206 596 -204Q596 -191 605 -182Q595 -142 551 -89Q519 -50 508 -28L488 -4Q486 7 475 28Q459 58 458 79Q424 94 413 103Q397 98 389 85Q386 88 381 88H378V84Q378 72 369 63Q361 55 348 55Q345 56 342 56Q343 55 343 51V45Q341 43 331 39Q321 35 318 29Q320 28 324 28Q333 29 342 30Q344 23 346 16Q336 2 287 2Q299 -10 318 -10Q338 -10 354 -13Q392 -23 447 -91Q470 -121 515 -195Q513 -197 513 -201V-208L512 -211Q505 -210 502 -203Q502 -202 499 -189Q493 -191 492 -191Q480 -191 475 -179Q457 -187 451 -210Q444 -232 438 -258Q433 -272 428 -281Q422 -290 422 -306V-312Q426 -352 445 -386Q450 -385 457 -378Q466 -369 472 -369H473Q489 -373 508 -384Q554 -402 590 -412Q601 -417 614 -419Q622 -419 626 -411Z"/>
</svg>