<svg xmlns="http://www.w3.org/2000/svg" viewBox="0 -800 1024 1024">
	<path fill="#000000" d="M641 2V-1Q641 -6 635 -10Q635 2 641 2ZM622 -6Q624 -16 624 -21Q624 -28 619 -31Q619 -23 618 -15Q618 -9 622 -6ZM383 -632Q373 -625 363 -618Q362 -620 362 -623Q362 -628 367 -632Q371 -635 376 -635Q380 -635 383 -632ZM903 -592Q899 -579 891 -567Q887 -573 887 -579Q887 -593 897 -593Q901 -593 903 -592ZM955 -110H958Q957 -93 944 -85Q943 -88 943 -94Q943 -110 955 -110ZM662 41V36Q664 7 672 -16Q657 -11 647 -4Q655 19 662 41ZM554 -619L551 -635Q530 -630 515 -621Q495 -632 484 -632L485 -630Q486 -627 479 -623Q472 -621 471 -616L472 -612Q483 -609 495 -609Q522 -609 554 -619ZM473 11H482Q547 11 589 -9Q595 -5 599 -4Q614 -28 616 -78Q611 -74 608 -60Q605 -48 602 -44Q585 -38 542 -35Q495 -32 478 -24Q475 -18 473 11ZM398 -376H393Q383 -376 377 -381Q371 -386 366 -390Q357 -394 348 -396Q339 -398 334 -405Q323 -383 323 -354Q323 -342 324 -336Q314 -334 296 -321Q293 -312 293 -303Q293 -285 302 -270Q311 -255 321 -255Q328 -255 334 -262Q333 -258 333 -252Q333 -239 343 -223Q355 -237 355 -249Q355 -255 351 -259Q386 -288 426 -315Q429 -324 443 -335Q454 -344 458 -351Q457 -355 450 -357Q444 -359 443 -361Q481 -373 523 -377Q529 -376 534 -376Q529 -382 529 -393Q531 -411 533 -430Q471 -427 428 -396Q412 -381 398 -376ZM703 -97V-99Q705 -108 707 -118L706 -122Q700 -114 686 -114Q663 -114 663 -134V-136Q653 -140 653 -160V-168Q655 -174 663 -176V-181Q663 -197 688 -198Q706 -199 709 -204Q703 -206 700 -206Q690 -205 679 -204H675L676 -208Q676 -217 662 -217Q655 -217 650 -214Q653 -219 656 -225Q653 -229 648 -229Q632 -224 623 -220Q630 -227 640 -232Q649 -237 650 -251V-253Q634 -258 617 -264Q665 -291 676 -298Q708 -318 729 -339Q692 -335 655 -331Q643 -331 631 -334Q626 -330 619 -330Q604 -332 589 -335Q585 -335 583 -334Q577 -337 570 -340Q574 -329 574 -313Q574 -275 552 -268H540Q488 -262 476 -242Q478 -241 482 -241H490Q492 -238 492 -232Q492 -228 490 -220Q514 -225 532 -230Q538 -230 540 -229Q550 -239 559 -239Q562 -239 564 -238Q549 -232 548 -217V-214Q559 -216 570 -219Q573 -219 579 -217Q571 -214 563 -211Q555 -208 554 -197V-196Q559 -191 585 -185Q563 -180 537 -150H532Q491 -149 482 -112Q511 -114 591 -138V-136Q591 -121 610 -121Q622 -121 634 -122H639Q628 -119 624 -117Q617 -113 616 -106Q622 -103 627 -100Q619 -97 619 -94L620 -90Q629 -98 637 -109Q643 -107 644 -107Q647 -107 650 -108L654 -107Q651 -99 647 -91Q658 -92 677 -92Q695 -93 703 -97ZM968 57V65Q955 74 946 87Q896 92 849 92Q821 92 808 91H786Q732 91 711 86Q675 77 663 48L662 50Q664 55 666 60V62Q651 72 638 84Q634 82 633 82Q628 85 622 87H614Q552 91 489 94Q384 94 382 36Q386 14 389 -9H388Q383 -9 370 -1Q354 -5 345 -14Q335 -24 324 -33Q329 -60 334 -88Q343 -92 350 -97Q357 -103 367 -104Q364 -97 361 -90H370Q391 -90 417 -96Q422 -107 423 -118Q402 -111 398 -111Q388 -111 382 -118Q381 -124 373 -135Q363 -149 363 -156Q363 -164 374 -172Q377 -180 379 -189Q386 -195 398 -196Q411 -196 423 -198Q421 -203 413 -203Q403 -201 392 -199H391Q390 -213 371 -213Q366 -213 358 -211Q362 -216 366 -220H363Q350 -220 345 -208Q348 -195 350 -182Q350 -175 348 -172Q349 -168 355 -164Q361 -161 361 -157Q326 -150 321 -104Q318 -107 318 -112Q319 -115 319 -119Q319 -121 318 -124Q311 -131 297 -136Q295 -126 295 -103Q298 -47 300 9Q300 73 272 94Q244 89 227 66Q219 55 201 17V14Q203 9 205 3V2Q203 -3 195 -3Q191 -3 187 -1Q219 -52 220 -130Q205 -121 193 -104Q180 -88 166 -70Q146 -49 128 -28Q109 -7 105 28H101Q83 28 74 17Q65 7 62 -8Q58 -45 46 -73Q48 -81 48 -84Q48 -95 38 -117Q31 -133 29 -141Q35 -139 44 -127Q56 -111 66 -109Q92 -119 118 -141Q133 -153 161 -184Q199 -225 202 -229Q223 -257 228 -288Q149 -264 96 -202H94Q80 -203 74 -212Q67 -221 60 -232Q52 -242 40 -251Q29 -261 26 -270V-274Q29 -293 32 -313V-316Q29 -329 25 -343Q24 -349 24 -359Q25 -393 42 -416Q58 -438 77 -462Q83 -472 90 -482Q97 -491 112 -492Q104 -479 96 -469Q87 -459 86 -440V-438Q89 -439 96 -449Q103 -459 108 -462Q103 -449 103 -442Q103 -439 105 -433Q162 -462 231 -477V-489Q231 -538 228 -560Q223 -595 208 -613Q203 -614 197 -616H195Q196 -620 200 -624Q204 -628 205 -630V-632Q205 -635 204 -639V-641Q218 -661 232 -681Q247 -700 266 -715Q282 -708 293 -686Q297 -678 309 -646Q318 -626 318 -618V-615Q318 -605 309 -580Q298 -550 298 -532Q298 -521 303 -506Q329 -517 354 -528V-527Q354 -521 349 -521Q344 -521 340 -519Q334 -514 327 -509Q321 -503 320 -493Q321 -489 325 -489Q332 -490 339 -492L340 -491Q339 -488 335 -483Q330 -477 329 -470Q329 -467 330 -465Q342 -471 360 -487Q386 -510 398 -516L399 -515Q399 -513 394 -507Q385 -497 385 -492Q390 -486 396 -486Q410 -489 423 -492Q429 -491 434 -490Q441 -492 447 -495L482 -502Q500 -504 518 -506Q533 -512 541 -512Q546 -512 548 -511Q552 -527 552 -535V-540Q536 -538 503 -523Q470 -508 453 -508Q445 -508 437 -511Q432 -521 423 -529Q409 -533 404 -537Q400 -542 400 -549Q404 -563 407 -578Q407 -580 405 -586Q415 -599 447 -613Q472 -624 482 -633Q473 -640 458 -640Q448 -640 444 -636L452 -651H449Q434 -647 422 -638V-639Q422 -643 432 -650Q441 -656 443 -660Q440 -661 434 -661Q406 -656 386 -636L385 -638Q385 -641 393 -648Q400 -654 401 -658Q424 -680 488 -721Q536 -752 562 -774Q560 -775 556 -775Q553 -775 543 -773Q560 -786 578 -798Q596 -809 622 -811H624Q646 -808 667 -805Q675 -805 682 -808Q710 -798 718 -793Q736 -782 741 -764Q738 -760 734 -756Q725 -749 724 -745Q726 -739 727 -733Q721 -727 712 -708Q704 -692 696 -685Q683 -677 660 -676Q633 -669 607 -657Q618 -652 621 -649Q628 -643 628 -634V-632Q649 -634 677 -651Q702 -666 718 -669Q721 -670 723 -678Q725 -686 730 -687L729 -683Q732 -675 740 -672Q750 -678 759 -684V-683Q759 -679 755 -676Q750 -672 750 -667V-666H752Q754 -666 760 -670Q768 -675 774 -675H777Q764 -669 764 -658Q764 -645 782 -638Q787 -628 787 -619Q784 -595 776 -572Q688 -572 643 -552Q643 -546 642 -540Q642 -536 644 -534Q671 -535 716 -543Q763 -552 782 -553Q786 -543 794 -543Q801 -543 817 -551Q834 -559 840 -559H842Q832 -554 822 -547Q811 -541 810 -526H811Q816 -529 820 -532Q823 -533 837 -533H839Q838 -532 835 -532Q817 -527 817 -516Q817 -514 819 -510L822 -508Q827 -509 831 -511H833Q820 -499 810 -465Q661 -455 640 -453Q636 -447 634 -429H639Q705 -433 776 -447Q825 -453 835 -460Q850 -471 856 -487Q862 -503 869 -523Q873 -505 873 -484Q876 -495 879 -518Q882 -549 887 -559Q889 -516 890 -474Q893 -476 894 -487Q895 -499 900 -501Q902 -476 913 -460Q925 -444 937 -427Q937 -395 928 -373Q913 -369 903 -354Q895 -356 892 -356Q876 -352 859 -349Q861 -343 867 -335Q874 -327 875 -321V-316Q875 -293 847 -265Q843 -266 834 -266Q799 -266 765 -244Q766 -242 771 -242H782Q783 -238 783 -228V-222Q807 -225 823 -234H824L825 -233Q825 -230 824 -228L826 -225Q837 -233 851 -236Q854 -235 857 -235Q851 -232 844 -228Q836 -224 833 -216Q835 -215 838 -215Q848 -216 858 -218Q863 -218 865 -217Q842 -212 842 -197Q842 -193 845 -187L848 -186Q853 -187 857 -189L860 -187Q832 -176 829 -139Q813 -141 802 -141Q769 -141 769 -118Q769 -113 770 -110Q832 -117 881 -135Q881 -126 891 -116Q909 -117 927 -119Q903 -113 899 -100Q901 -98 903 -98Q906 -98 908 -99Q910 -99 912 -97Q904 -92 901 -67Q897 -36 882 -33H875Q838 -35 800 -37Q781 -37 773 -33Q763 -29 763 -20Q763 -12 772 -4Q780 3 789 5Q795 6 808 6Q837 5 865 3Q873 3 887 5Q893 2 899 -1Q900 -1 903 2Q911 -3 915 -25Q919 -48 928 -53Q926 -33 926 -26Q926 -18 927 -13Q932 -21 934 -44Q936 -72 944 -79V-69Q944 -47 943 -25Q943 -12 944 -6Q949 -18 953 -31Q951 -23 951 -18Q951 -7 959 15Q968 40 968 57Z"/>
</svg>