<svg xmlns="http://www.w3.org/2000/svg" viewBox="0 -800 1024 1024">
	<path fill="#000000" d="M882 -659Q875 -653 864 -651Q863 -651 857 -653Q861 -664 874 -666Q881 -666 882 -659ZM958 -280H962Q955 -260 940 -252Q942 -261 945 -270Q947 -279 958 -280ZM937 -57V-47Q937 -15 922 12Q894 16 865 19Q858 19 855 18Q847 16 837 9Q823 -1 815 -1H811Q808 -14 796 -24Q791 -28 772 -38Q763 -64 745 -82Q727 -100 710 -117Q708 -126 703 -130Q698 -134 692 -139V-141Q692 -146 687 -149Q682 -152 678 -156Q644 -194 611 -240H609Q605 -240 603 -243Q601 -246 599 -246Q592 -262 578 -271Q576 -279 566 -288Q559 -294 556 -299Q555 -291 555 -277Q557 -246 559 -215Q559 -208 557 -194Q559 -188 563 -188Q558 -181 558 -173Q558 -165 563 -158H557V-157Q557 -155 560 -153Q563 -151 563 -149V-148Q560 -130 560 -111Q560 -54 578 -21Q574 -11 572 13Q570 36 566 46Q546 85 525 105Q516 111 508 111Q498 111 483 102Q482 99 480 96Q469 92 457 77Q452 71 438 52V49Q438 46 444 40Q433 23 402 7Q408 5 411 5Q418 5 427 8Q420 -2 384 -10Q357 -14 336 -29Q381 -24 390 -24Q432 -24 447 -47Q450 -71 450 -97Q450 -120 449 -144Q449 -192 456 -215Q453 -219 453 -224Q455 -235 457 -247Q457 -249 456 -252Q446 -246 428 -230Q413 -217 405 -211Q393 -188 371 -170Q350 -152 331 -131Q312 -110 292 -89Q289 -81 286 -74Q266 -51 244 -32Q232 -10 220 12Q216 10 214 10Q206 10 198 18Q184 9 164 5Q157 10 148 12H146Q149 3 155 -4Q148 -31 124 -41V-44Q124 -68 103 -96Q87 -117 85 -130Q98 -128 103 -119Q108 -110 118 -105Q112 -115 91 -144Q70 -173 59 -194Q70 -191 76 -182Q82 -173 88 -164Q113 -139 124 -126Q132 -125 143 -120Q156 -125 176 -142Q200 -162 218 -167Q220 -169 220 -176Q272 -217 323 -259Q374 -301 415 -353Q410 -351 393 -349Q372 -347 365 -341Q334 -338 272 -314Q246 -292 230 -283H228Q201 -283 185 -302Q178 -311 162 -343Q146 -350 133 -363V-374Q133 -413 155 -428V-438Q155 -444 152 -444Q154 -475 173 -491Q191 -507 208 -525Q224 -537 239 -551Q253 -565 275 -572Q275 -563 263 -559Q262 -558 235 -528Q234 -516 229 -507Q231 -502 235 -498Q291 -501 351 -516Q386 -525 453 -548Q450 -613 418 -632Q419 -635 419 -639Q419 -654 402 -669Q409 -679 409 -688Q409 -700 388 -714Q370 -726 367 -734Q400 -725 407 -725Q423 -725 430 -737Q429 -743 421 -747Q414 -751 412 -754Q434 -754 452 -766Q464 -774 480 -792Q528 -790 556 -768Q583 -746 611 -725Q610 -719 610 -709Q611 -692 611 -676V-666Q594 -655 585 -630Q581 -620 572 -579H576Q583 -579 604 -587Q638 -595 672 -602Q696 -610 719 -620Q731 -621 747 -631Q764 -641 775 -642Q765 -630 763 -619Q771 -617 775 -617Q788 -617 815 -631Q839 -644 851 -644Q846 -636 837 -632Q828 -628 819 -623Q811 -615 802 -608V-606Q801 -598 799 -591Q799 -587 802 -584Q821 -592 842 -595Q845 -594 848 -594Q845 -588 828 -580Q806 -570 805 -557Q808 -548 814 -537H836Q834 -533 824 -530Q811 -526 811 -517V-516Q819 -520 822 -520Q825 -520 827 -518Q826 -514 819 -512Q812 -510 811 -507V-490Q811 -480 814 -476Q805 -454 778 -450Q750 -446 722 -443Q624 -424 590 -406Q591 -402 596 -398Q602 -393 602 -388V-387H604L605 -386Q608 -385 611 -384Q647 -350 676 -314Q686 -311 697 -298Q707 -285 716 -283Q731 -258 752 -239Q774 -220 793 -200H799Q809 -186 824 -177Q840 -169 855 -161Q865 -170 875 -179Q884 -191 892 -204Q899 -217 913 -225Q908 -213 900 -200Q885 -176 882 -161Q908 -199 928 -243H937Q927 -215 915 -189Q903 -163 898 -130Q927 -190 928 -194H937Q930 -173 922 -146Q920 -128 920 -119Q920 -82 937 -57Z"/>
</svg>