<svg xmlns="http://www.w3.org/2000/svg" viewBox="0 -800 1024 1024">
	<path fill="#000000" d="M87 -67H84V-84Q104 -72 105 -62Q96 -64 87 -67ZM876 -480Q872 -479 866 -473Q859 -466 851 -465Q855 -483 868 -487Q873 -487 876 -480ZM456 -312H459Q463 -335 463 -356Q461 -357 458 -357Q449 -355 439 -354H437Q439 -350 439 -340V-327Q439 -316 443 -311H446Q451 -311 456 -312ZM361 -294Q360 -309 355 -321Q353 -322 349 -322Q334 -322 319 -305Q325 -297 327 -287Q352 -289 361 -294ZM533 -155Q505 -150 477 -145Q448 -140 429 -128Q444 -128 484 -119Q496 -128 510 -137Q525 -145 533 -155ZM560 -326V-323Q585 -324 599 -343Q600 -344 619 -381Q569 -381 554 -369Q558 -365 570 -359Q562 -344 560 -326ZM503 -509H508Q510 -519 512 -530Q512 -534 509 -537Q455 -532 379 -494Q379 -478 386 -473Q395 -479 404 -486Q418 -488 432 -491Q442 -493 460 -499Q489 -509 503 -509ZM569 -651H564Q482 -633 411 -585Q393 -576 375 -567Q362 -557 362 -551L363 -549Q375 -556 411 -565Q453 -576 468 -585Q484 -588 499 -598Q514 -608 530 -616V-615Q530 -607 536 -605Q541 -603 546 -600Q550 -612 569 -651ZM759 142H756Q744 142 726 132Q704 120 691 120Q662 93 654 86Q633 69 608 61Q587 36 557 19Q526 2 497 -17Q480 -2 431 21Q403 35 357 74Q318 107 296 120Q283 115 262 110Q255 110 250 114L249 112Q251 109 253 105Q242 98 234 73Q228 55 222 46Q210 29 177 7Q179 6 183 6Q196 10 207 18Q206 9 200 3Q193 -2 186 -6Q167 -18 147 -31Q128 -44 114 -62Q119 -59 173 -27Q199 -8 230 -4Q237 -4 240 -5L242 -7Q240 -11 238 -15Q310 -22 399 -81Q396 -83 389 -90Q382 -98 375 -101Q373 -107 373 -111Q373 -114 375 -116Q356 -115 321 -96Q289 -78 274 -78Q257 -78 240 -96Q226 -96 217 -108Q209 -119 209 -134Q209 -154 225 -161V-170L226 -173Q230 -181 245 -188Q263 -197 266 -206Q269 -202 269 -194Q285 -190 308 -190Q338 -190 383 -199Q440 -210 497 -222Q573 -238 598 -252Q587 -259 560 -259Q549 -258 537 -258Q372 -252 334 -206H331Q318 -206 309 -192Q294 -198 281 -206Q269 -214 250 -216Q251 -221 251 -226L250 -230Q233 -249 185 -267Q170 -277 162 -292Q154 -308 146 -323L148 -324Q153 -322 157 -320Q161 -325 161 -330Q157 -345 146 -356Q158 -351 165 -351Q181 -351 200 -374Q219 -397 235 -398H237Q246 -398 256 -392Q267 -385 274 -384Q277 -383 283 -383Q289 -383 340 -392Q440 -413 539 -435Q528 -449 518 -456Q450 -451 401 -426Q390 -416 379 -407Q365 -400 350 -400Q322 -400 287 -425Q284 -440 274 -453Q263 -465 253 -478Q241 -494 228 -509Q214 -524 194 -531Q193 -536 186 -541Q178 -547 177 -553Q176 -556 176 -564Q178 -585 179 -607Q179 -619 177 -624Q193 -635 193 -653Q193 -659 192 -663Q190 -667 181 -672Q169 -678 169 -688Q171 -689 174 -689Q180 -689 189 -683Q198 -677 202 -677L206 -678Q202 -691 181 -704Q161 -716 157 -728Q175 -719 190 -710Q205 -701 223 -695Q226 -695 226 -698Q226 -700 228 -701Q225 -707 215 -715Q202 -725 200 -735L203 -736Q210 -735 216 -730Q221 -725 228 -722Q257 -710 269 -710H274Q285 -713 296 -716H298Q309 -714 321 -688Q330 -670 336 -666Q420 -698 478 -717Q515 -730 551 -744Q610 -765 620 -771Q634 -780 644 -787Q653 -794 667 -794H672Q678 -793 690 -788Q703 -782 708 -782H709Q719 -785 729 -788H731L732 -785Q732 -784 728 -782Q724 -780 724 -778V-777Q726 -759 739 -748Q766 -761 771 -765Q784 -776 797 -780Q800 -780 802 -779Q791 -767 776 -757Q761 -747 759 -727V-722L761 -721Q768 -725 775 -730L779 -729V-728Q779 -722 770 -712Q760 -701 760 -692Q760 -688 761 -685L762 -684Q765 -687 768 -690L771 -688Q759 -664 759 -629Q749 -626 740 -623Q730 -619 728 -608Q690 -593 666 -547Q658 -532 631 -458Q649 -460 677 -475Q709 -492 726 -492Q733 -492 736 -491Q741 -490 748 -485Q758 -478 763 -478H764Q774 -478 788 -491Q801 -504 810 -504Q792 -490 787 -464Q787 -452 801 -446Q821 -453 845 -458Q839 -452 830 -448Q821 -443 820 -434Q820 -432 822 -426L824 -425Q830 -427 835 -429H837Q835 -423 830 -415Q824 -405 823 -396V-394Q826 -382 829 -370V-368Q825 -358 820 -348V-347Q813 -342 800 -342Q793 -342 790 -341Q766 -333 749 -314Q733 -294 714 -278Q708 -273 697 -267Q681 -258 675 -251L694 -228Q700 -229 706 -231H708Q706 -224 703 -218Q703 -217 705 -213Q707 -212 710 -212Q721 -215 732 -218H733Q732 -212 724 -206Q716 -200 714 -195Q713 -192 713 -186Q713 -168 722 -158Q713 -143 708 -125Q692 -131 677 -131Q657 -131 635 -118Q623 -111 599 -92Q589 -85 579 -78Q581 -74 595 -67Q609 -61 617 -56Q635 -43 654 -33Q671 -29 687 -26Q714 -18 719 -18Q725 -18 727 -20Q732 -23 733 -32Q735 -43 743 -45Q745 -45 745 -36Q745 -23 749 -21Q756 -37 757 -80Q758 -117 762 -130Q766 -78 768 -15Q771 -53 782 -84Q784 -35 788 -16Q795 22 814 36Q815 53 826 71Q810 113 798 123Q780 138 759 142Z"/>
</svg>