<svg xmlns="http://www.w3.org/2000/svg" viewBox="0 -800 1024 1024">
	<path fill="#000000" d="M648 -316H651Q654 -323 657 -330L656 -333Q649 -330 642 -327Q635 -323 635 -316L636 -312Q642 -314 648 -316ZM957 -46Q954 -40 945 -39Q936 -38 927 -37Q932 -49 946 -51Q952 -51 957 -46ZM903 -708Q891 -703 879 -699Q877 -703 877 -706Q877 -711 882 -715Q886 -718 891 -718Q903 -718 903 -708ZM656 -270Q650 -277 642 -277Q624 -273 608 -267Q599 -270 594 -278Q589 -286 583 -294L582 -290Q584 -281 585 -273Q585 -267 583 -264Q590 -257 602 -257Q631 -262 656 -270ZM697 -284H703Q722 -326 728 -348Q693 -329 693 -294Q693 -286 694 -282ZM761 -423H757Q740 -423 726 -419Q709 -414 709 -407Q709 -399 723 -399Q727 -399 728 -400Q728 -378 740 -366Q749 -395 761 -423ZM678 -102Q613 -100 591 -75Q595 -68 603 -68Q615 -71 627 -74Q645 -76 663 -78Q671 -90 678 -102ZM682 -402Q624 -385 618 -383Q585 -370 568 -350Q574 -334 579 -319Q581 -353 597 -361Q601 -358 611 -356Q619 -367 648 -379Q676 -391 682 -402ZM715 -231Q706 -231 696 -232Q606 -232 552 -184Q555 -183 558 -183Q574 -186 591 -193Q653 -212 715 -231ZM697 -155H704Q709 -166 714 -177L713 -180Q628 -169 582 -135Q583 -135 583 -130Q604 -130 638 -142Q675 -155 697 -155ZM663 -39H658Q609 -35 574 -20Q571 -18 567 -11Q562 -3 559 -2Q622 -5 685 -9Q681 -16 677 -25Q673 -35 663 -39ZM847 -537H843Q836 -536 829 -535Q827 -535 823 -537Q786 -530 747 -514Q708 -499 666 -483Q608 -466 549 -438Q528 -422 510 -419Q502 -419 493 -425Q480 -435 469 -450Q458 -465 448 -476Q452 -520 460 -558Q496 -592 518 -600Q516 -594 516 -593Q516 -590 519 -586Q567 -597 615 -608Q610 -662 604 -678Q592 -713 562 -718Q579 -739 601 -761Q626 -789 648 -806Q676 -794 700 -773Q716 -759 741 -729Q733 -710 723 -693Q713 -676 712 -653Q712 -644 713 -639Q727 -642 763 -659Q798 -675 820 -681Q821 -679 821 -672Q833 -677 844 -684Q855 -691 869 -692H874Q864 -686 854 -680Q845 -674 844 -660V-658Q848 -653 852 -653Q863 -656 872 -663Q860 -651 860 -633Q865 -627 869 -627Q873 -627 876 -629Q872 -619 864 -587Q856 -552 847 -537ZM944 42H943Q938 42 937 45Q935 48 933 51Q934 54 934 60Q931 76 922 88Q910 90 903 90Q856 87 808 80Q696 73 654 73Q533 73 488 113Q486 114 481 114Q464 113 450 101Q436 88 426 78Q420 74 414 69Q407 65 405 58V55Q406 44 414 38Q422 32 429 26Q432 6 447 -1Q462 -9 476 -18V-17Q476 -12 470 -7Q463 -2 462 5V8Q469 12 476 12Q482 12 498 7Q514 2 525 2Q529 3 533 3Q506 -9 487 -64Q478 -86 469 -105Q460 -124 459 -145Q459 -163 469 -183Q469 -177 475 -172Q484 -178 493 -186Q502 -193 517 -195Q511 -203 500 -228Q483 -268 469 -279Q456 -290 445 -298Q434 -307 426 -322Q419 -338 419 -354Q419 -362 422 -370Q425 -378 436 -387Q407 -381 376 -368Q345 -355 342 -317Q342 -309 343 -304Q350 -306 366 -317Q387 -332 401 -333Q393 -321 383 -311Q372 -302 371 -283V-281L373 -280Q374 -280 377 -284Q380 -288 383 -288H386L388 -285Q385 -279 382 -273V-271Q386 -254 389 -237Q382 -221 382 -212Q382 -206 383 -203Q360 -189 352 -181Q337 -166 336 -147V-145Q338 -135 340 -126Q340 -108 339 -90V-80Q340 -56 347 -28Q355 0 359 21V24Q359 58 330 77H327Q308 77 292 68Q282 63 268 49Q238 20 214 18Q216 15 220 15Q228 17 235 19Q239 19 240 15Q223 5 196 3Q169 2 145 -2Q156 -7 200 -8Q234 -9 244 -25Q250 -33 250 -55V-72Q250 -85 253 -99Q231 -92 224 -70Q216 -43 198 -27Q171 -35 140 -36Q118 -39 115 -60V-63Q118 -80 121 -97Q112 -109 112 -120Q113 -134 122 -147Q131 -159 140 -172Q146 -183 152 -192Q157 -202 164 -203L163 -199Q163 -197 168 -190Q229 -220 263 -244Q266 -257 266 -271Q266 -286 263 -303Q190 -276 157 -234Q145 -232 139 -232Q127 -232 105 -238Q87 -265 85 -268Q72 -283 55 -287Q45 -298 45 -318Q47 -357 69 -378Q65 -383 65 -392Q67 -405 69 -418V-420Q69 -427 62 -438Q55 -450 55 -457V-459Q59 -458 64 -450Q68 -444 72 -442Q63 -464 53 -486H54Q58 -486 71 -473Q78 -460 88 -454L89 -457Q89 -460 85 -464Q80 -469 80 -473V-474Q89 -471 121 -466Q141 -463 161 -460H164Q187 -461 219 -476Q260 -495 269 -498V-503Q266 -527 262 -552Q264 -558 266 -564Q262 -582 257 -600V-603Q257 -634 278 -658Q300 -683 329 -683Q343 -683 353 -678L359 -660Q404 -630 404 -593V-591Q398 -573 394 -554Q394 -549 395 -546Q405 -546 421 -557Q437 -568 449 -568H451Q446 -561 439 -556Q432 -552 431 -541V-536L435 -535Q441 -537 447 -539Q442 -526 442 -519Q442 -511 448 -511H450Q444 -505 444 -491Q444 -477 451 -468Q441 -434 436 -402Q436 -397 438 -389Q461 -408 478 -411Q481 -412 486 -412Q504 -409 522 -407H527Q542 -411 562 -422Q613 -445 743 -482Q755 -486 780 -501Q793 -509 804 -514Q815 -518 824 -518Q835 -518 848 -510Q859 -513 870 -517Q869 -511 867 -505Q876 -510 883 -518Q889 -526 895 -533Q894 -528 890 -520Q882 -506 882 -499Q882 -493 885 -489L887 -488Q889 -488 892 -492Q895 -496 899 -496H901V-489Q901 -478 907 -459Q913 -440 913 -430Q913 -419 909 -410Q905 -408 900 -406Q895 -404 894 -396Q894 -393 895 -391H888Q861 -390 849 -371Q836 -352 821 -330Q792 -297 787 -262Q810 -255 826 -240Q831 -244 837 -246H839L841 -244Q839 -239 836 -234Q845 -235 852 -243Q859 -252 866 -258Q866 -257 858 -244Q852 -234 852 -225Q852 -222 854 -216Q859 -219 864 -222L867 -221Q865 -213 865 -208Q868 -187 871 -166Q871 -155 865 -143Q797 -125 770 -25Q777 -19 792 -19Q804 -19 832 -26Q858 -33 870 -33Q877 -48 883 -63Q886 -61 886 -58Q884 -50 882 -42Q882 -39 885 -36Q886 -36 887 -41Q887 -45 890 -45H891Q895 -44 899 -38Q904 -32 910 -32Q913 -32 916 -33Q915 -31 915 -28Q917 -21 919 -15Q929 -16 939 -18Q942 -17 944 -17Q944 -13 939 -11Q934 -9 934 -6Q936 0 937 6L940 8Q945 7 949 6Q941 10 941 21Q941 24 944 42Z"/>
</svg>