<svg xmlns="http://www.w3.org/2000/svg" viewBox="0 -800 1024 1024">
	<path fill="#000000" d="M513 -353Q514 -369 530 -376Q545 -383 557 -389Q580 -402 602 -416Q603 -429 604 -442Q604 -446 602 -454Q593 -454 581 -438Q570 -424 560 -422H556Q553 -422 521 -430Q512 -439 498 -446Q483 -453 469 -460Q451 -469 448 -485V-487Q449 -496 450 -506V-508Q449 -510 444 -517Q437 -526 436 -533Q435 -537 435 -545Q435 -567 444 -587Q454 -609 466 -612H468Q477 -610 485 -608H487L521 -612Q530 -631 551 -638Q572 -645 593 -656Q586 -722 557 -741Q559 -752 568 -758Q577 -763 589 -769Q601 -777 613 -790Q625 -804 641 -805H642Q646 -805 653 -800Q660 -795 666 -794Q680 -748 718 -730Q706 -715 703 -691Q731 -701 761 -716Q756 -709 747 -701Q739 -693 738 -681Q738 -674 742 -667Q746 -662 755 -661Q746 -652 746 -638Q746 -616 762 -605Q761 -601 761 -592Q761 -569 771 -554Q763 -542 750 -534Q736 -526 722 -518Q692 -505 689 -476Q689 -466 691 -460Q704 -467 723 -472Q728 -472 734 -469L755 -486Q755 -490 767 -502Q775 -510 783 -517Q791 -523 805 -526Q813 -523 817 -523Q821 -523 831 -526Q829 -520 829 -516Q829 -512 831 -508Q834 -503 844 -498Q854 -493 858 -487Q863 -478 866 -469Q870 -460 878 -458H880Q888 -458 903 -469Q919 -481 927 -481Q932 -481 936 -478Q932 -473 918 -464Q897 -451 897 -439V-436L899 -435Q904 -438 909 -441L912 -439L913 -437Q912 -430 910 -424V-421Q913 -412 920 -409Q928 -406 936 -403Q935 -401 935 -396Q937 -387 938 -378V-376Q938 -367 931 -353Q922 -335 922 -325V-320Q915 -318 891 -316Q874 -297 868 -266Q862 -234 858 -202L848 -131Q849 -124 849 -109Q849 -78 848 -47V-29Q852 -5 855 19Q856 30 850 54Q844 79 844 86V88Q845 93 845 97Q841 108 820 124Q797 141 781 141H777Q758 138 734 112Q719 96 709 91V90Q709 88 712 86Q715 84 716 82Q694 68 675 68H672Q678 62 690 62Q702 63 712 61Q701 53 667 50Q643 48 632 44Q639 36 673 36Q697 36 704 32Q698 31 686 31Q643 34 600 36Q575 36 560 31Q567 25 582 25Q596 26 610 26H617Q699 26 719 -2Q732 -26 734 -68Q735 -110 737 -147Q751 -255 756 -367Q737 -361 719 -348Q700 -335 682 -323V-277Q691 -279 704 -289Q721 -303 731 -304V-303Q730 -299 724 -293Q717 -286 716 -277L717 -276Q720 -279 727 -282L730 -281L731 -279Q728 -274 725 -269V-266Q732 -263 733 -245Q734 -230 737 -226Q733 -224 723 -214Q714 -204 706 -200Q696 -199 688 -196Q682 -191 682 -181Q682 -178 684 -166V-163Q702 -171 722 -178Q717 -170 717 -155Q717 -137 725 -128Q722 -122 722 -117Q724 -104 725 -92Q711 -90 682 -73V-50Q682 -26 687 -14Q684 -7 675 2Q667 10 665 13Q661 12 655 12Q648 12 641 17Q624 14 616 3Q608 -9 599 -20Q606 -30 608 -52H607Q602 -52 600 -45Q598 -39 596 -38Q582 -40 569 -59Q557 -76 546 -80V-85Q548 -106 568 -113Q589 -120 607 -127V-133Q608 -145 608 -158Q601 -156 586 -144Q574 -134 567 -131Q553 -136 539 -139Q538 -131 538 -115Q538 -61 552 -22Q548 4 542 26Q537 49 518 58Q475 45 447 14Q445 -10 438 -25Q430 -44 414 -49Q421 -66 421 -88Q421 -109 411 -153Q402 -193 402 -212L375 -236Q366 -238 357 -247Q341 -254 336 -266Q336 -269 335 -273Q335 -281 340 -295Q346 -312 346 -320V-322Q363 -338 381 -352Q400 -367 407 -391H409Q412 -391 412 -388Q412 -384 411 -380Q449 -360 483 -339ZM251 -193V-206Q213 -193 206 -176Q203 -168 203 -160Q203 -143 211 -121Q219 -123 233 -130Q242 -135 249 -137Q251 -175 251 -193ZM268 -394Q268 -401 266 -415Q253 -401 232 -379Q211 -356 205 -337V-335Q207 -328 208 -322Q206 -308 204 -295Q204 -291 206 -285Q214 -285 229 -296Q245 -307 255 -307H260Q264 -350 268 -394ZM601 -244V-275Q563 -251 556 -245Q533 -225 527 -199Q541 -207 601 -244ZM325 -245Q330 -216 334 -137Q339 -55 346 -15Q340 -11 340 2V8Q328 13 320 13Q300 11 279 1Q261 -31 254 -49Q230 -46 211 -30Q208 -28 180 2Q163 1 155 -8Q147 -18 135 -25Q136 -28 136 -31Q135 -47 123 -49Q118 -49 116 -47Q124 -62 124 -86Q120 -138 114 -188L111 -231Q105 -232 99 -234Q100 -237 100 -241Q100 -246 98 -250Q86 -270 74 -285Q62 -300 55 -326Q51 -340 46 -355V-356Q46 -362 54 -375Q61 -386 61 -394V-396Q61 -406 51 -425Q41 -444 41 -457Q41 -464 42 -467Q48 -455 53 -441Q59 -428 72 -423Q64 -441 58 -461Q69 -448 83 -436Q76 -455 75 -458H76Q80 -458 87 -450Q94 -443 98 -441Q106 -455 129 -455Q158 -455 174 -439Q184 -453 212 -480Q245 -511 257 -532Q282 -573 288 -580Q308 -603 337 -607Q342 -614 345 -623Q349 -632 357 -636Q355 -622 352 -609Q352 -600 357 -595H358Q361 -595 361 -598Q361 -601 364 -601H366Q364 -598 364 -592Q364 -584 369 -576Q382 -584 392 -594Q402 -604 418 -607Q407 -595 396 -582Q385 -569 379 -551Q380 -546 387 -544Q391 -544 400 -549Q415 -557 423 -557Q427 -557 433 -555Q431 -550 419 -544Q406 -537 405 -527Q403 -501 398 -472Q388 -415 373 -406H369Q360 -404 356 -391Q352 -380 347 -383Q340 -376 338 -346Q336 -315 326 -307ZM940 -709Q939 -701 924 -692Q907 -682 904 -673Q907 -663 915 -659Q924 -662 931 -662Q936 -662 938 -661Q935 -658 928 -656Q918 -653 916 -649Q924 -631 924 -612Q924 -596 918 -583Q921 -574 924 -565Q920 -568 915 -568Q911 -568 903 -563Q892 -556 884 -556H881Q877 -552 876 -541Q875 -532 872 -527Q867 -531 865 -544Q862 -559 854 -563Q845 -566 835 -569Q832 -575 825 -583Q816 -589 807 -594Q798 -598 792 -607V-616Q766 -654 764 -695Q767 -698 767 -712Q776 -722 787 -727V-755Q794 -752 802 -742Q809 -733 816 -733H820Q824 -734 829 -742Q834 -751 842 -751L846 -750Q844 -742 844 -739Q845 -719 863 -718H864Q873 -718 887 -732Q902 -746 909 -746Q913 -746 915 -745Q908 -735 895 -725Q882 -714 881 -703Q881 -695 891 -688Q916 -698 940 -709ZM972 -659V-658Q968 -657 961 -657Q951 -657 946 -661Q946 -670 958 -670Q972 -670 972 -659ZM937 -760Q929 -753 918 -751H916Q917 -761 927 -769Q933 -769 937 -760Z"/>
</svg>