<svg xmlns="http://www.w3.org/2000/svg" viewBox="0 -800 1024 1024">
	<path fill="#000000" d="M947 -138Q944 -125 935 -119Q933 -125 933 -129Q933 -140 941 -140Q945 -140 947 -138ZM896 -612V-617Q896 -634 914 -634H917Q910 -621 896 -612ZM914 -211H922Q924 -203 924 -200Q924 -189 917 -185Q912 -188 912 -198Q912 -203 914 -211ZM363 -142Q352 -146 319 -164Q318 -156 318 -142Q320 -115 321 -88Q359 -99 363 -142ZM214 -215V-209Q225 -201 262 -199Q267 -231 267 -267Q267 -288 264 -302Q214 -273 214 -215ZM387 -229Q391 -268 395 -307Q395 -322 393 -330Q383 -332 377 -332Q345 -328 315 -320Q336 -295 336 -270Q336 -259 334 -253Q343 -253 357 -259Q358 -248 373 -241Q385 -235 387 -229ZM150 -394H143Q139 -383 116 -383H104Q87 -383 80 -377Q64 -390 53 -416Q62 -441 62 -458Q62 -468 60 -472Q58 -478 51 -483Q45 -487 44 -491H45Q69 -491 96 -519Q118 -542 134 -547Q143 -546 156 -546Q157 -546 199 -548Q198 -543 194 -540Q190 -538 189 -536L190 -534H191Q206 -539 220 -544Q219 -539 212 -535Q205 -531 203 -527V-524Q202 -497 193 -478Q184 -460 175 -439Q167 -414 150 -394ZM925 -497V-486Q925 -482 929 -481Q916 -471 916 -454Q916 -448 917 -445L913 -446Q908 -445 905 -440Q902 -435 898 -431Q854 -426 814 -414Q774 -401 741 -389Q685 -372 668 -362Q659 -357 640 -341Q623 -326 610 -320Q584 -327 558 -358Q531 -390 531 -420Q531 -427 532 -431Q533 -436 540 -449Q549 -466 550 -477Q544 -479 541 -479Q529 -479 522 -465Q519 -459 514 -439Q506 -443 500 -451Q493 -454 478 -457Q458 -461 449 -468Q435 -482 433 -485Q406 -524 368 -562Q370 -563 372 -564Q374 -565 374 -568Q371 -574 371 -581Q371 -604 400 -623H406Q432 -623 464 -601Q469 -602 475 -608Q482 -615 489 -616Q491 -597 498 -587H512Q510 -583 510 -581Q510 -580 516 -568Q567 -586 574 -589Q573 -580 553 -570Q530 -559 530 -547Q530 -539 535 -532Q541 -531 549 -531Q557 -531 560 -527Q553 -525 546 -522Q540 -520 538 -512V-507Q538 -490 551 -487Q571 -515 576 -557Q582 -600 592 -638Q586 -652 586 -670Q566 -662 550 -649Q563 -666 575 -683L572 -684L568 -683Q567 -683 565 -686Q569 -703 582 -716Q595 -729 609 -741Q621 -755 633 -767Q645 -779 667 -780Q671 -780 685 -778Q692 -768 712 -753Q741 -731 748 -713Q744 -668 723 -636Q701 -604 686 -566Q680 -549 674 -536Q667 -523 667 -502Q693 -516 785 -547Q861 -573 893 -601Q886 -580 886 -576Q886 -566 893 -563Q912 -577 942 -583Q933 -578 923 -568Q911 -556 911 -549Q911 -543 922 -543H928Q927 -538 923 -532Q916 -521 916 -514Q921 -505 925 -497ZM905 121H902Q879 121 837 84Q807 57 755 -10Q711 -66 689 -88Q674 -84 664 -70Q654 -57 642 -44Q628 -30 613 -16Q599 -2 596 23Q587 27 576 27Q558 27 542 13Q534 18 526 22V21Q526 15 531 12Q536 9 536 5Q530 -8 519 -8Q518 -17 514 -28Q509 -40 509 -48V-53Q503 -59 496 -63Q489 -68 486 -77H501Q498 -85 492 -89Q486 -93 480 -97Q475 -75 475 -55Q475 -36 480 -16Q467 -6 467 13Q467 21 470 28Q447 35 433 51Q418 66 403 82Q380 70 360 62Q356 48 329 -13V-16Q331 -20 335 -25Q329 -34 319 -38H317Q310 -36 303 -34Q286 -36 276 -51Q266 -67 253 -77V-78L255 -80H261Q262 -87 262 -95Q262 -104 261 -110Q253 -106 243 -106Q224 -106 206 -124V-119Q206 -100 214 -65Q221 -34 221 -19Q221 0 211 17Q203 12 196 12Q183 12 169 28Q158 21 143 17Q126 7 123 -12Q121 -32 118 -49Q105 -98 80 -143Q56 -183 32 -224Q28 -260 23 -296V-299Q24 -320 38 -339Q45 -349 67 -367Q96 -361 125 -355Q135 -347 144 -344H147Q162 -344 199 -365Q240 -387 248 -389Q251 -476 251 -481Q251 -580 214 -609Q213 -613 213 -621Q217 -648 221 -676Q221 -683 220 -686Q219 -691 209 -691Q205 -690 200 -690L197 -691Q204 -701 215 -705Q226 -709 238 -715Q254 -726 266 -739Q278 -752 295 -753Q300 -753 303 -752Q338 -728 356 -707Q383 -675 383 -643V-637Q381 -622 372 -608Q362 -593 354 -577Q340 -547 340 -486Q341 -453 341 -421Q391 -433 423 -452Q473 -452 500 -431H510Q507 -426 507 -421V-418Q516 -398 525 -380Q533 -362 534 -339Q534 -331 533 -326Q532 -318 520 -303Q511 -291 507 -281Q501 -261 499 -238Q497 -215 494 -191Q489 -153 480 -104Q492 -96 506 -96Q538 -99 565 -128Q592 -156 612 -172Q606 -181 587 -200Q560 -226 554 -241Q548 -253 548 -262Q552 -270 556 -278V-280Q554 -288 551 -297V-299Q559 -297 560 -297Q568 -298 576 -299H578Q607 -296 649 -256Q660 -247 670 -239Q678 -246 685 -260Q700 -279 711 -299Q705 -309 698 -320Q712 -371 766 -373H776Q793 -367 810 -359Q814 -360 818 -361Q820 -360 821 -356Q828 -358 834 -361Q835 -361 839 -359L840 -357Q834 -349 828 -342L846 -289Q845 -281 837 -280Q839 -276 839 -273Q836 -260 832 -247Q833 -244 833 -241Q809 -237 787 -215Q768 -195 756 -167Q793 -123 812 -104Q847 -70 881 -53Q884 -58 887 -74Q891 -96 899 -100V-84Q899 -71 907 -69Q910 -95 910 -125Q910 -154 919 -175V-166Q919 -131 918 -96Q918 -61 923 -41Q924 -69 932 -107Q938 -73 942 -37Q948 -16 954 5Q951 25 964 37Q951 82 945 93Q930 121 905 121Z"/>
</svg>