<svg xmlns="http://www.w3.org/2000/svg" viewBox="0 -800 1024 1024">
	<path fill="#000000" d="M800 -579V-580Q800 -584 804 -588Q809 -593 813 -593Q817 -593 819 -591Q817 -581 800 -579ZM694 -456H691Q690 -463 681 -477Q671 -492 669 -500Q633 -461 619 -425Q662 -437 706 -451Q701 -456 694 -456ZM679 -112V-117H675Q650 -118 638 -131Q625 -144 614 -158Q621 -162 621 -171Q619 -180 617 -190Q621 -189 628 -189Q654 -193 679 -198V-216H675Q652 -216 637 -230Q622 -244 622 -264Q622 -272 625 -280Q631 -283 675 -293V-296Q675 -306 669 -316H664Q648 -316 638 -310Q627 -305 616 -301Q613 -272 600 -203Q586 -131 583 -96Q636 -98 678 -105Q679 -107 679 -112ZM966 -66H968Q960 -62 960 -52Q962 -38 964 -24Q964 -18 962 -16Q962 -11 968 -3Q972 3 973 8Q970 18 967 27Q967 31 968 33Q955 42 938 42Q925 42 891 34Q864 28 845 26Q779 20 738 20Q714 20 702 21Q655 24 615 36Q564 51 555 77Q525 82 522 82Q508 82 500 72Q482 24 479 18Q468 7 464 -11Q464 -13 466 -21Q461 -28 461 -38Q461 -61 482 -72Q484 -80 485 -88Q504 -103 508 -181Q511 -218 514 -255Q514 -274 500 -286H499Q495 -284 491 -283Q486 -299 469 -309Q459 -315 435 -322V-325Q436 -332 437 -339Q435 -345 426 -345Q415 -343 404 -342H402Q453 -382 475 -418H474Q468 -418 461 -412Q454 -406 453 -399Q397 -394 363 -372Q361 -350 361 -336Q361 -312 364 -296Q398 -309 428 -327Q427 -322 418 -315Q404 -304 404 -293V-292Q406 -292 411 -296Q417 -301 421 -301L425 -300Q418 -288 418 -277Q418 -265 428 -259Q419 -248 419 -218V-187Q387 -176 363 -160Q361 -132 361 -119Q361 -51 385 12Q373 37 360 62Q348 86 323 98V109Q315 108 315 94Q304 87 295 79Q286 70 272 66Q273 61 273 51Q273 15 249 8V7Q251 4 253 0V-1Q249 -7 231 -12Q219 -15 214 -19Q218 -22 230 -22H253Q273 -42 273 -92Q273 -103 272 -108Q260 -100 249 -95Q238 -90 228 -76Q225 -72 214 -43Q206 -21 193 -19H190Q181 -20 171 -22Q166 -22 164 -21Q142 -29 136 -52Q112 -65 109 -95Q109 -109 117 -118Q109 -131 109 -146Q109 -165 122 -184Q133 -200 149 -211H151Q157 -209 161 -205Q265 -255 280 -261Q283 -276 283 -295Q283 -308 282 -322Q283 -331 283 -340Q214 -319 175 -274Q168 -264 161 -255Q148 -243 123 -243Q97 -243 83 -255Q77 -262 71 -270Q58 -279 44 -285Q30 -292 25 -310Q23 -322 23 -329Q23 -359 37 -385Q33 -400 33 -416Q33 -473 104 -519Q116 -527 127 -537Q138 -546 151 -547Q149 -538 136 -528Q123 -518 121 -507H122Q128 -507 137 -515Q145 -522 149 -523L150 -519Q147 -512 143 -507Q145 -506 150 -506Q162 -508 173 -510Q216 -516 246 -532Q257 -532 273 -537Q286 -541 294 -541Q297 -554 297 -577Q297 -641 278 -657Q271 -660 263 -663Q267 -670 267 -675Q267 -691 238 -693Q242 -699 251 -701Q259 -703 266 -706Q264 -710 262 -715V-717Q278 -718 309 -745Q329 -763 340 -767Q342 -768 348 -768Q359 -767 371 -759Q382 -751 391 -744Q400 -746 408 -748H413Q413 -703 434 -697Q432 -689 432 -687Q435 -670 440 -658Q438 -645 432 -637Q431 -635 431 -631Q432 -627 432 -623Q432 -620 431 -618Q425 -607 416 -598Q406 -590 405 -572V-566Q438 -574 470 -585L471 -582Q471 -577 470 -573V-571Q481 -573 492 -578Q507 -585 515 -586Q512 -582 496 -571Q483 -562 483 -553Q483 -548 484 -546H486Q491 -548 496 -551Q498 -550 500 -549Q496 -544 490 -535Q483 -526 482 -515Q482 -509 485 -505Q479 -500 479 -484Q479 -470 484 -462Q475 -457 475 -441Q475 -433 478 -427Q507 -470 553 -566Q588 -640 607 -672V-676Q607 -688 613 -691Q608 -706 602 -721Q607 -746 626 -764Q633 -771 665 -792Q679 -794 683 -794Q702 -794 727 -778H732Q745 -777 758 -776Q776 -762 777 -741Q787 -725 801 -705Q814 -685 815 -663Q815 -657 814 -654Q807 -642 804 -627Q805 -624 805 -622Q777 -614 756 -595Q740 -585 726 -576Q712 -567 708 -546Q712 -548 719 -548Q726 -548 730 -546H731Q736 -546 739 -551Q742 -556 745 -556L749 -555L750 -553Q749 -548 747 -544L749 -541Q760 -549 770 -559Q780 -569 795 -573Q793 -565 781 -554Q768 -542 768 -534Q768 -529 771 -523Q781 -527 790 -531H792Q792 -525 786 -520Q780 -515 779 -511Q780 -505 789 -496Q783 -484 782 -478Q799 -479 830 -489Q856 -497 866 -499L867 -496Q866 -492 865 -488Q865 -484 868 -483Q877 -486 885 -491Q893 -496 905 -497Q897 -489 886 -483Q876 -478 875 -463L879 -462Q885 -465 891 -468Q892 -468 896 -466Q895 -463 891 -461Q887 -460 887 -457Q900 -435 906 -402Q901 -392 894 -384Q886 -377 884 -364Q869 -364 856 -351H849Q837 -351 794 -342Q773 -338 771 -337Q759 -333 759 -324V-321Q770 -318 780 -318Q796 -318 824 -325Q823 -320 818 -317Q812 -315 811 -310Q812 -302 821 -302Q824 -302 830 -304V-302Q828 -297 826 -293Q829 -287 829 -282Q826 -268 823 -254V-252Q811 -250 811 -244V-243Q796 -241 774 -240Q756 -238 755 -223V-221L758 -219Q760 -219 762 -223Q764 -227 766 -227H767Q785 -225 797 -225Q808 -225 814 -227Q815 -220 819 -214Q827 -215 835 -216H838V-215Q837 -212 835 -210H837Q844 -211 850 -212Q852 -212 856 -210Q854 -205 847 -201Q840 -197 838 -193Q840 -188 840 -179Q840 -169 835 -154H833Q822 -154 822 -144Q806 -146 798 -146Q767 -146 753 -136Q753 -124 759 -108H785Q863 -108 893 -124Q897 -152 906 -174Q908 -164 908 -157Q908 -147 907 -138Q907 -131 909 -121Q911 -122 912 -130Q913 -137 915 -139Q925 -93 954 -93Q962 -93 971 -96Q970 -93 963 -87Q955 -80 955 -72Q956 -69 956 -66L959 -64Q963 -65 966 -66Z"/>
</svg>