<svg xmlns="http://www.w3.org/2000/svg" viewBox="0 -800 1024 1024">
	<path fill="#000000" d="M481 -333Q478 -323 467 -320Q464 -323 464 -325Q468 -334 475 -341Q480 -337 481 -333ZM942 -116Q936 -108 920 -105Q920 -123 938 -123Q940 -119 942 -116ZM680 -497Q678 -507 670 -509Q661 -512 655 -516Q655 -529 646 -536Q632 -526 623 -510Q615 -494 606 -479Q622 -479 646 -488Q668 -496 680 -497ZM581 -206H584Q606 -209 628 -212Q635 -212 643 -213Q650 -214 651 -223Q643 -221 639 -221Q621 -221 608 -236Q595 -250 593 -272Q613 -282 653 -282V-295Q648 -295 641 -291Q634 -287 628 -287Q614 -300 600 -317Q603 -321 603 -327Q602 -335 601 -343Q601 -345 603 -351Q626 -354 648 -360Q645 -372 645 -383H643Q595 -383 584 -316Q580 -292 580 -257Q581 -231 581 -206ZM646 -56V-54Q646 -44 661 -27Q676 -9 677 4Q677 37 645 52Q602 43 588 24Q574 5 574 -18Q574 -56 610 -68L631 -60Q635 -60 639 -65Q643 -70 647 -70L651 -69L652 -67Q649 -61 646 -56ZM770 -54H772Q773 -47 781 -30Q792 -5 792 8Q792 13 791 16Q789 27 773 37Q761 45 757 50Q721 35 710 22Q692 3 687 -29Q685 -35 685 -44Q685 -57 701 -68Q700 -73 699 -79Q699 -82 701 -83L703 -84L704 -83Q709 -81 720 -81Q732 -81 737 -78Q741 -76 752 -64Q761 -54 770 -54ZM498 64H489Q482 60 474 55H463Q460 54 455 48Q449 41 444 41H442Q440 24 434 16H429Q424 16 417 20Q411 24 405 24H403Q407 15 414 9Q422 3 428 -3Q427 -6 427 -11Q428 -20 432 -26Q437 -33 440 -39Q439 -43 433 -54Q427 -64 427 -71V-75Q435 -64 448 -56L449 -59V-69H450Q460 -64 470 -59H474Q484 -60 494 -61Q498 -61 502 -59Q513 -49 523 -39Q566 1 566 29Q566 40 560 50Q557 55 547 61Q536 68 531 75Q525 78 521 78Q509 75 498 64ZM948 -2V0Q948 9 962 12Q973 14 976 19Q967 22 958 25Q949 33 950 43Q950 53 948 66Q938 85 921 98Q912 105 896 105Q892 105 890 104Q880 94 870 84Q864 82 858 79Q843 56 829 27Q814 -5 800 -25V-28Q799 -44 798 -61Q798 -79 813 -83Q812 -89 810 -96Q810 -100 812 -102Q817 -97 835 -94Q856 -90 861 -82Q866 -80 875 -80Q887 -80 905 -88Q904 -83 898 -76Q894 -72 893 -69Q897 -61 904 -54Q913 -56 934 -69Q952 -80 963 -82Q930 -52 930 -36Q930 -26 939 -17Q944 -18 950 -22Q957 -27 961 -27Q963 -27 967 -25V-24Q967 -19 958 -12Q950 -6 948 -2ZM357 92H356Q353 92 353 87V81Q343 72 335 70Q326 68 316 64Q312 48 298 24Q279 -8 279 -29V-33Q282 -45 284 -57Q284 -65 277 -69Q294 -89 298 -160Q274 -147 251 -122Q247 -117 213 -77Q182 -42 174 -32Q153 -5 144 21Q137 18 129 18Q114 18 106 31Q104 29 104 26Q104 17 110 15Q95 2 79 -11Q76 -17 76 -23Q77 -30 77 -38V-44Q70 -60 61 -74V-76Q64 -90 67 -104Q66 -116 54 -136Q39 -161 39 -178V-180Q52 -163 61 -144Q82 -117 86 -111Q80 -128 70 -147Q74 -147 84 -137Q94 -127 101 -125Q227 -199 311 -308H309Q299 -308 286 -303Q273 -298 268 -298Q264 -298 261 -299L259 -297V-294L257 -292Q223 -284 195 -267Q182 -257 170 -244Q157 -230 144 -229H143Q136 -229 126 -236Q117 -242 113 -243Q106 -260 93 -269Q79 -279 64 -287Q36 -299 30 -333V-336Q30 -348 43 -373Q54 -393 55 -405V-422Q61 -444 85 -464Q119 -491 135 -492Q135 -489 129 -484Q120 -476 119 -470Q122 -465 126 -464Q130 -467 144 -467Q159 -466 173 -466Q179 -466 189 -468Q196 -472 203 -476H204Q208 -475 212 -474Q221 -478 230 -482Q235 -481 240 -481Q243 -481 245 -482Q252 -487 258 -492H271Q297 -498 322 -505Q323 -515 323 -534Q323 -621 288 -660Q299 -683 316 -700Q334 -717 353 -734Q367 -732 383 -718Q387 -715 410 -693Q418 -685 427 -669Q439 -648 439 -636Q435 -625 427 -609Q418 -582 418 -557Q418 -542 421 -527Q431 -528 445 -535Q458 -542 464 -543Q462 -540 454 -535Q442 -528 442 -521Q442 -518 443 -516L446 -515Q448 -515 451 -519Q455 -525 459 -525L463 -524Q459 -513 455 -502Q455 -495 466 -492Q463 -486 463 -472Q464 -455 465 -439Q465 -418 452 -408Q455 -403 455 -398Q455 -388 454 -379V-374Q404 -357 399 -356Q388 -347 388 -325Q388 -310 393 -301Q399 -290 409 -290H410Q416 -291 420 -297Q424 -304 430 -305Q429 -298 428 -291Q428 -287 431 -284Q437 -286 444 -299Q451 -311 460 -312L461 -308Q461 -304 455 -297Q449 -290 448 -285Q447 -282 447 -275Q447 -266 455 -248L457 -247Q463 -249 469 -252H470Q467 -245 463 -239Q466 -230 466 -222Q463 -198 454 -179V-177Q457 -170 460 -164Q450 -166 448 -170Q437 -168 437 -146V-138Q429 -145 427 -157H424Q405 -159 388 -165Q387 -158 387 -144Q387 -120 392 -78Q398 -28 398 -10Q398 0 396 18Q393 39 382 52Q371 65 359 78Q358 84 357 89ZM911 -162V-149Q900 -144 898 -125Q880 -118 861 -116Q824 -127 772 -127Q723 -127 653 -116Q633 -113 615 -111Q597 -108 587 -98Q583 -93 580 -81Q576 -66 569 -62Q561 -60 548 -60Q529 -60 518 -72Q512 -78 498 -107Q493 -115 488 -121Q483 -128 483 -139V-144Q489 -150 490 -169Q491 -187 493 -194Q501 -229 501 -252V-256Q504 -306 507 -356Q507 -403 486 -423Q488 -427 488 -429Q485 -442 473 -452Q475 -456 475 -466V-484Q475 -493 477 -497Q493 -528 508 -560Q515 -577 522 -594Q523 -595 535 -626Q538 -633 547 -646Q558 -662 560 -672V-686Q567 -721 606 -783Q643 -805 677 -809Q692 -809 707 -800Q721 -785 734 -771Q761 -748 767 -734Q773 -712 778 -690Q771 -682 771 -662Q771 -641 764 -633Q755 -628 739 -624Q724 -614 719 -596Q721 -594 724 -594Q730 -595 735 -596H737Q735 -590 732 -584Q739 -585 749 -596Q756 -604 760 -604L763 -603V-601Q759 -595 749 -585Q742 -573 742 -561V-557L746 -556Q751 -557 756 -558H757Q746 -549 746 -533Q746 -530 748 -522Q756 -525 769 -534Q787 -547 796 -548Q806 -545 815 -542Q821 -545 827 -548Q828 -548 832 -546L835 -545L834 -541V-539Q848 -545 864 -548H867L868 -546Q868 -544 862 -539Q854 -532 853 -528Q853 -515 878 -513Q872 -509 872 -498Q872 -491 873 -488Q860 -470 856 -453Q858 -444 859 -436V-432Q856 -421 834 -417Q779 -413 732 -398V-396Q733 -392 733 -388L732 -384Q743 -390 757 -392H760L761 -390Q761 -387 760 -384V-383H763Q768 -383 774 -387Q780 -391 783 -391Q786 -391 788 -390Q787 -386 782 -381Q779 -378 778 -374V-371Q782 -358 785 -346L784 -342Q781 -331 755 -324Q724 -315 719 -312V-300H721Q733 -300 753 -307Q774 -314 784 -315Q786 -315 790 -306Q795 -311 803 -311H806Q803 -306 803 -302Q807 -287 810 -273Q792 -259 785 -243Q779 -244 768 -244Q756 -244 713 -239Q713 -236 712 -233Q713 -229 713 -226Q731 -230 765 -232Q794 -233 809 -236Q818 -237 834 -248Q849 -258 856 -260V-257Q856 -247 862 -244Q868 -240 874 -236Q882 -238 890 -240H892Q890 -229 887 -226Q891 -219 905 -213Q904 -210 904 -205Q908 -189 914 -174Q911 -170 911 -162Z"/>
</svg>