<svg xmlns="http://www.w3.org/2000/svg" viewBox="0 -800 1024 1024">
	<path fill="#000000" d="M895 -253H898Q898 -235 895 -229Q889 -236 886 -247Q892 -253 895 -253ZM648 -492V-494Q650 -504 662 -506Q668 -506 671 -502Q661 -493 648 -492ZM961 -525H962Q959 -513 956 -502Q964 -491 964 -475Q964 -446 938 -394Q926 -397 914 -397Q889 -397 866 -380Q858 -374 830 -346Q827 -359 823 -365Q817 -373 806 -373V-376Q806 -382 801 -384Q796 -386 791 -388H790Q787 -388 783 -382Q790 -402 806 -424Q786 -418 776 -401Q766 -385 753 -373Q766 -399 795 -445Q825 -492 837 -516Q834 -520 834 -525Q839 -539 843 -553V-555Q843 -558 842 -561V-562Q849 -584 883 -584Q901 -584 914 -575Q922 -570 932 -554Q940 -542 945 -537H954V-522L955 -520Q958 -522 961 -525ZM581 -588H578Q533 -588 502 -565Q483 -551 455 -513Q452 -515 436 -517L443 -531Q423 -560 402 -572V-577Q402 -590 395 -594Q396 -599 403 -612L399 -624Q373 -621 365 -609V-611Q366 -617 372 -621Q379 -626 383 -630Q377 -639 369 -639Q360 -638 350 -632Q340 -626 334 -622Q348 -642 390 -671Q433 -700 448 -720Q458 -734 470 -749Q482 -764 501 -772Q523 -762 548 -735Q551 -736 557 -736H562Q558 -733 558 -731Q558 -724 578 -717Q578 -704 590 -688Q602 -672 602 -663V-661Q602 -649 591 -622Q583 -601 581 -588ZM899 77H894Q864 77 846 53Q843 49 821 5Q744 -141 713 -204Q700 -181 700 -171Q700 -166 701 -163Q694 -156 689 -147V-145Q691 -139 692 -133Q666 -107 661 -35Q647 -35 637 -27Q631 -22 622 -9V-10Q622 -16 616 -22Q609 -28 609 -34Q586 -39 577 -59Q568 -79 554 -94Q560 -93 565 -92Q570 -92 572 -98Q562 -121 538 -122Q539 -129 551 -129Q563 -129 571 -125Q592 -151 610 -181Q632 -206 645 -241Q607 -260 572 -295Q553 -316 553 -350Q554 -357 554 -365Q527 -359 527 -320Q527 -287 545 -274H547Q556 -276 565 -279V-277Q564 -272 563 -267Q573 -262 580 -262Q586 -262 589 -264Q586 -256 583 -248Q588 -238 593 -238H596Q596 -234 593 -231Q589 -228 589 -225V-223Q591 -213 593 -203V-201Q592 -194 585 -187Q580 -182 578 -178Q572 -180 571 -180Q567 -180 559 -175Q556 -180 541 -180Q531 -180 528 -182Q527 -177 527 -167Q530 -122 538 -75Q547 -3 554 17Q548 23 542 34Q537 46 523 50H521Q500 49 480 26Q465 4 464 -6L463 -9Q464 -15 465 -22Q461 -36 458 -57Q458 -67 465 -73Q460 -83 460 -98Q464 -131 470 -164Q456 -144 448 -117Q441 -90 431 -65Q429 -67 422 -67Q405 -67 403 -53Q383 -60 372 -75Q360 -90 352 -108Q338 -145 313 -170H321Q350 -170 373 -186Q386 -195 411 -222Q443 -260 460 -304Q446 -300 439 -284Q431 -267 415 -265H414Q399 -266 380 -302Q366 -326 360 -351Q350 -350 350 -336Q351 -332 354 -332Q357 -332 360 -333Q355 -320 352 -284Q348 -238 338 -223Q332 -221 328 -221Q317 -222 308 -227Q300 -233 294 -235Q289 -189 289 -119Q290 -39 291 41Q277 45 270 55Q263 64 255 74Q252 74 248 73Q244 73 241 77Q226 49 226 32Q221 22 215 13Q208 4 206 -9Q207 -19 208 -29Q208 -36 202 -52Q196 -69 196 -79V-84Q199 -97 206 -112Q212 -131 212 -169V-194Q161 -101 121 4H117Q112 4 109 8Q92 0 77 -12H76Q73 -12 72 -10Q71 -8 70 -6L69 -10Q69 -15 71 -21Q50 -58 50 -83Q50 -95 54 -104Q53 -114 46 -135Q39 -158 38 -175Q54 -153 67 -147Q152 -239 227 -358H225Q199 -358 168 -331Q145 -311 124 -264Q116 -262 112 -262Q106 -262 91 -265Q88 -295 70 -309Q51 -323 33 -339Q39 -354 39 -369Q39 -385 32 -413Q25 -441 25 -454Q25 -470 32 -483Q33 -485 63 -525Q75 -544 83 -557Q90 -571 106 -580V-578Q106 -576 100 -569Q92 -560 89 -553Q85 -541 85 -533Q85 -524 89 -519Q91 -528 93 -536Q95 -544 103 -546V-526Q103 -519 104 -517Q139 -530 169 -549Q199 -568 230 -586Q226 -611 224 -637Q221 -663 208 -678L210 -679Q218 -675 226 -672Q229 -678 232 -684Q244 -686 250 -686Q280 -686 312 -664Q317 -641 322 -619L327 -612Q328 -610 328 -607Q328 -601 327 -595V-592Q330 -584 338 -580Q345 -577 351 -572Q355 -562 355 -538Q355 -518 354 -498Q354 -482 357 -466Q340 -463 321 -442Q302 -421 302 -401Q302 -384 318 -374Q320 -374 321 -379Q321 -383 324 -383H325V-380Q325 -374 329 -368Q335 -369 338 -379Q342 -390 347 -391V-390Q344 -374 341 -358Q341 -349 345 -345Q356 -358 360 -371Q361 -374 361 -378Q359 -390 357 -402Q357 -405 359 -411Q368 -431 389 -433Q410 -436 431 -440Q452 -448 477 -462V-466Q481 -503 486 -531Q489 -542 502 -542Q513 -542 533 -532Q536 -507 551 -499Q597 -515 619 -525L620 -523Q620 -522 617 -519Q613 -516 613 -512V-511Q635 -518 646 -525V-524Q646 -518 636 -512Q622 -503 622 -493V-492Q624 -489 627 -489Q633 -490 639 -492H640Q629 -485 629 -470Q629 -457 640 -430H639Q628 -430 619 -421Q610 -412 610 -403Q610 -388 630 -387Q633 -388 634 -394Q636 -401 640 -402Q643 -401 643 -399Q642 -394 641 -390L642 -387Q654 -350 671 -339Q676 -384 680 -430Q688 -464 691 -495V-502Q691 -564 667 -615Q651 -611 642 -597V-601Q642 -609 651 -622Q658 -632 660 -637Q658 -642 653 -642Q646 -642 639 -635Q650 -666 674 -679Q688 -698 701 -721Q718 -745 721 -748Q736 -764 750 -764H751Q767 -758 780 -744Q801 -718 806 -676Q811 -634 816 -591Q798 -583 790 -561Q787 -554 778 -513Q758 -446 747 -379V-369Q750 -327 772 -295Q795 -253 824 -214Q853 -174 878 -139Q884 -148 887 -175Q891 -204 898 -213Q899 -206 899 -199Q899 -185 898 -172Q898 -152 902 -139Q907 -162 907 -184Q906 -220 904 -257Q904 -282 908 -298Q912 -219 916 -140V-130Q919 -146 919 -166Q919 -193 918 -220Q918 -257 926 -273V-263Q926 -229 925 -195Q925 -140 934 -112Q938 -129 939 -142Q956 -49 969 -16Q963 0 958 18Q953 35 942 47Q944 58 945 68Q933 67 921 66Q901 66 899 77Z"/>
</svg>