<svg xmlns="http://www.w3.org/2000/svg" viewBox="0 -800 1024 1024">
	<path fill="#000000" d="M631 -127Q618 -127 594 -144Q592 -173 568 -173H566Q568 -179 577 -179Q580 -179 582 -178Q587 -206 611 -224Q622 -232 661 -250Q657 -250 653 -251Q635 -250 620 -243Q605 -235 590 -230Q557 -159 524 -89Q491 -19 464 56Q456 58 451 58Q441 58 435 55Q426 38 413 23Q409 5 407 -16Q404 -37 394 -50L409 -43Q396 -95 391 -154Q396 -135 405 -100Q415 -66 425 -53Q469 -117 502 -178Q494 -178 485 -171Q475 -164 466 -164H464Q459 -169 456 -176Q453 -183 445 -185Q435 -188 422 -200Q422 -202 425 -203Q417 -216 417 -230Q417 -240 426 -262Q435 -284 435 -298Q455 -311 472 -329Q489 -347 505 -361Q501 -354 496 -346Q491 -339 490 -329Q490 -323 493 -319Q497 -319 497 -316Q530 -320 556 -328Q562 -337 568 -358Q557 -377 542 -394Q551 -400 555 -431Q559 -459 573 -463Q576 -460 580 -460Q589 -462 597 -464H599Q605 -477 607 -491Q579 -485 560 -467Q541 -449 522 -433Q516 -437 511 -437Q486 -455 478 -478Q471 -502 457 -520V-530Q457 -542 461 -542L463 -541Q461 -553 461 -558Q464 -578 466 -598Q479 -606 489 -619Q498 -633 509 -644Q511 -642 511 -640Q511 -636 510 -633Q510 -631 512 -629H530Q539 -629 542 -627L571 -620Q577 -637 609 -640Q621 -645 632 -650Q635 -657 635 -668Q635 -694 621 -703Q623 -729 635 -747Q647 -765 660 -782Q668 -786 678 -786Q701 -786 715 -763Q728 -742 728 -712Q728 -698 723 -681Q745 -682 765 -692L781 -690Q784 -701 798 -710Q810 -718 826 -722H828Q832 -719 835 -716Q852 -726 869 -736V-733Q869 -727 859 -720Q848 -712 848 -706V-704L851 -703Q860 -708 866 -713H867Q864 -703 861 -693Q861 -688 862 -686L864 -683Q867 -683 870 -684L871 -683V-679Q873 -656 875 -634V-627Q872 -615 869 -603Q869 -600 871 -596Q773 -560 674 -515Q666 -501 665 -491H666Q671 -491 682 -498Q694 -506 702 -506Q706 -506 708 -505L719 -511Q725 -526 743 -529Q761 -533 774 -536Q774 -523 784 -515H785Q791 -517 796 -520L799 -518V-517Q798 -513 796 -509V-506Q798 -498 804 -494Q799 -457 793 -420H783Q746 -420 712 -403Q671 -388 663 -384Q638 -370 634 -344Q709 -365 784 -386Q794 -392 814 -401Q843 -414 854 -423H855Q857 -423 857 -419H858Q860 -419 863 -423Q867 -428 870 -428L872 -427Q870 -423 870 -420Q870 -415 880 -403Q890 -407 900 -411Q903 -411 905 -410Q895 -404 887 -395Q890 -389 893 -383Q897 -383 905 -385Q898 -379 895 -368Q895 -364 896 -362Q896 -361 900 -358Q898 -352 896 -347Q895 -328 893 -310H891Q885 -311 885 -305Q886 -301 886 -298Q886 -295 884 -293Q870 -294 856 -295Q846 -295 837 -292Q852 -261 868 -232Q883 -202 906 -179Q914 -185 916 -202Q921 -191 924 -181L935 -265Q941 -224 940 -176Q950 -197 952 -224Q960 -156 968 -89Q969 -84 969 -75Q968 -47 958 -29Q948 -11 939 10Q930 1 911 -10Q883 -26 875 -40Q851 -83 849 -110Q833 -138 816 -167Q790 -224 764 -281Q736 -281 718 -269Q724 -258 733 -243Q741 -229 742 -212Q742 -205 741 -202Q737 -190 706 -176L699 -173Q696 -165 689 -160Q683 -155 677 -149Q682 -142 684 -130Q701 -136 722 -150Q732 -163 734 -164Q745 -168 755 -173Q758 -174 763 -180Q769 -187 775 -187H776Q776 -173 784 -169H787Q793 -171 799 -173V-171Q798 -165 797 -159V-157Q799 -155 803 -155Q805 -155 813 -157Q809 -152 807 -144Q807 -142 811 -140Q816 -138 816 -134V-130Q813 -106 809 -82Q780 -80 765 -64Q761 -67 755 -67Q742 -63 729 -59Q744 -40 767 -31Q776 -36 787 -40Q784 -29 780 -19Q780 -15 783 -12Q805 -27 832 -38Q829 -31 817 -22Q796 -6 794 7Q796 12 806 20Q818 20 837 13Q859 6 874 5Q872 6 839 19Q818 27 813 40Q814 44 817 44Q823 43 829 41Q832 41 834 46H829Q822 46 819 47Q811 50 811 68V72Q811 79 810 83Q808 99 799 111Q797 113 780 132Q768 121 748 118Q739 103 729 88Q718 69 718 63Q718 57 723 52L709 35Q698 32 691 7Q686 -11 680 -17Q669 -2 660 38Q650 83 637 97Q614 91 602 74Q589 52 557 47Q563 40 580 34Q592 30 597 26Q608 19 612 8Q617 -2 624 -14H621Q606 -13 596 -1Q587 11 580 23Q568 22 556 20Q548 7 534 -7Q520 -21 518 -37Q518 -50 529 -62Q528 -66 528 -72Q530 -97 551 -107Q572 -117 590 -128Q590 -126 583 -121Q571 -113 571 -104V-101Q577 -98 584 -98Q599 -100 613 -103Q626 -104 639 -106Q634 -121 631 -127ZM152 -488Q174 -490 196 -492Q235 -510 281 -523Q284 -535 284 -559V-605Q270 -623 256 -641V-648Q256 -678 281 -697Q295 -708 327 -719H329Q341 -719 355 -711Q366 -703 374 -689Q383 -675 392 -662Q420 -628 420 -604V-602Q415 -588 411 -572Q411 -567 412 -564H417Q425 -564 434 -570Q443 -576 450 -576H453Q433 -560 433 -543V-538H435Q437 -538 440 -541Q445 -546 448 -546Q451 -546 453 -545Q439 -534 439 -518Q439 -506 450 -497Q438 -489 437 -474Q435 -460 432 -446Q429 -439 424 -429Q419 -420 418 -408Q418 -401 423 -391Q386 -381 378 -378Q353 -368 350 -350Q349 -346 349 -339Q349 -324 355 -302Q399 -329 441 -343Q438 -337 425 -329Q413 -321 410 -313Q412 -310 414 -310Q421 -312 427 -314L431 -313Q430 -307 421 -298Q413 -290 413 -284V-281Q415 -278 416 -278Q420 -280 424 -282L425 -281Q424 -275 416 -262Q408 -249 408 -239Q408 -234 409 -231Q392 -222 374 -215Q355 -207 345 -190V-166Q345 -124 350 -100L346 -99L350 -68Q356 -67 356 -55V-50Q361 -5 361 8Q361 27 356 49H352Q346 49 339 55Q333 60 329 60Q327 60 321 58Q317 59 315 65Q312 72 311 74Q309 74 309 70V60Q283 58 270 43Q258 27 252 5Q243 -33 223 -58Q232 -61 241 -65Q250 -112 250 -127Q227 -120 216 -99Q205 -79 192 -59Q178 -62 154 -79Q133 -94 117 -98Q113 -108 113 -119Q113 -141 124 -147Q124 -164 123 -181V-190Q132 -204 158 -214Q198 -229 203 -231Q235 -253 269 -260Q269 -301 277 -325Q197 -312 160 -278Q151 -268 144 -257Q137 -245 126 -242H121Q108 -242 95 -255Q93 -257 77 -278Q66 -289 55 -299Q43 -309 37 -320Q37 -323 36 -327Q40 -348 43 -369V-374Q38 -390 32 -407Q31 -413 31 -426Q31 -464 46 -478Q52 -484 65 -489Q80 -495 84 -498Q97 -509 109 -518Q121 -526 141 -527Q128 -516 114 -504Q101 -493 94 -473H96Q102 -473 111 -482Q120 -492 128 -492Q140 -490 152 -488ZM958 -238Q953 -243 953 -253Q953 -263 959 -268Q965 -265 965 -258Q965 -247 958 -238Z"/>
</svg>