<svg xmlns="http://www.w3.org/2000/svg" viewBox="0 -800 1024 1024">
	<path fill="#000000" d="M113 -476V-478Q114 -492 126 -493Q128 -493 132 -491Q128 -484 125 -481Q120 -476 113 -476ZM860 -110V-115Q860 -138 868 -138Q870 -138 874 -136Q874 -119 860 -110ZM196 -275H193Q182 -275 171 -262Q160 -250 151 -247Q154 -261 163 -268Q171 -276 178 -287Q175 -294 162 -306Q146 -320 145 -332V-334Q147 -342 149 -350Q149 -358 141 -373Q132 -390 132 -400Q142 -393 152 -386Q161 -389 167 -395Q173 -401 179 -406H188Q206 -406 224 -407H231Q238 -404 247 -394Q261 -378 273 -378Q277 -378 280 -379Q286 -363 294 -343Q301 -323 302 -300Q302 -283 295 -268Q265 -252 249 -252Q245 -252 235 -254Q229 -256 218 -264Q204 -275 196 -275ZM253 -500H244Q239 -499 232 -494Q226 -489 221 -488V-492Q221 -500 216 -505Q199 -505 169 -520Q164 -518 156 -512Q145 -503 138 -503H136Q147 -515 157 -527Q153 -553 126 -553Q121 -553 113 -551Q113 -557 118 -560Q122 -564 125 -567Q119 -592 113 -599H105Q103 -599 99 -601Q102 -607 119 -613Q112 -634 95 -644Q77 -653 64 -667H67Q77 -667 94 -658Q109 -650 116 -650H117Q138 -654 157 -668Q157 -672 152 -690Q157 -688 163 -682Q169 -675 173 -674Q184 -680 197 -683Q202 -694 206 -730Q210 -719 211 -705Q212 -691 222 -683H226Q234 -682 242 -682H246Q259 -668 298 -662Q316 -635 337 -609Q358 -583 360 -548Q360 -529 346 -513Q332 -497 314 -495Q311 -494 305 -494Q279 -497 253 -500ZM894 -605H893Q868 -602 851 -587Q835 -572 820 -557Q806 -543 771 -515Q741 -538 723 -538Q714 -538 706 -533Q706 -540 714 -552Q709 -561 700 -561Q693 -561 681 -552Q677 -549 667 -541Q676 -562 691 -578Q705 -595 718 -613Q735 -647 757 -679Q746 -713 738 -724Q780 -754 822 -785Q825 -785 828 -786Q841 -786 860 -771Q876 -759 887 -758H888Q897 -758 909 -767Q921 -776 930 -777Q915 -764 915 -748Q915 -739 924 -733H926Q931 -735 935 -737L938 -736Q937 -733 937 -726Q937 -706 952 -689Q949 -654 936 -636Q928 -627 917 -620Q907 -614 903 -599Q900 -599 898 -602Q896 -605 894 -605ZM369 -129V-98Q306 -73 258 -31Q231 -6 221 9Q204 35 203 68Q188 75 173 81Q150 77 135 65Q119 53 105 40Q101 41 96 41Q79 41 69 28Q61 17 61 0Q61 -24 74 -40Q71 -53 71 -64Q72 -91 85 -111Q98 -131 111 -149Q110 -136 108 -124Q108 -113 113 -109H119Q135 -110 147 -116Q158 -123 169 -130Q268 -183 363 -239L365 -238Q365 -237 357 -233Q352 -225 345 -216Q337 -208 336 -199Q336 -194 339 -190Q343 -190 349 -196Q353 -200 355 -200H357Q348 -187 348 -174Q348 -159 360 -149Q369 -152 377 -155H379Q369 -148 369 -129ZM921 58V73Q921 81 923 83Q911 93 900 104Q888 115 871 120Q831 114 821 111Q796 104 782 90Q754 58 726 26Q651 -51 594 -82Q577 -64 570 -37Q562 -11 554 15Q543 55 502 65Q493 58 475 48Q451 35 443 26Q441 6 432 -5Q422 -18 406 -18Q396 -18 387 -14Q392 -22 401 -27Q410 -31 417 -37Q405 -39 398 -39Q383 -39 353 -31Q323 -23 303 -23H298Q331 -36 376 -48Q420 -61 452 -83L501 -136Q492 -136 489 -131Q480 -141 446 -148Q406 -156 400 -175Q399 -178 399 -184V-200Q393 -211 388 -224Q387 -229 387 -238Q387 -263 397 -295Q399 -280 399 -278Q401 -268 406 -265Q410 -265 410 -272Q410 -279 411 -280Q421 -274 435 -274Q449 -274 462 -275H468Q508 -237 530 -221Q530 -207 542 -197Q543 -207 553 -230Q563 -254 563 -268V-272Q563 -277 557 -287Q552 -296 552 -301V-302Q562 -327 588 -341Q598 -346 616 -346Q631 -346 643 -343Q649 -339 659 -317Q667 -299 679 -298Q676 -283 676 -280Q676 -274 679 -272Q666 -261 664 -242Q655 -232 652 -220V-217Q692 -248 727 -280Q726 -287 724 -295L754 -305Q711 -339 667 -373Q626 -409 585 -446Q549 -378 521 -293L517 -295Q516 -293 514 -292H506Q485 -293 471 -301Q457 -310 443 -319Q435 -360 393 -364Q396 -367 401 -367Q407 -366 413 -366Q418 -366 420 -368Q416 -383 402 -385Q360 -392 317 -400Q325 -403 332 -403Q352 -400 372 -398Q455 -400 478 -457Q442 -480 403 -502Q405 -516 405 -524Q405 -548 394 -560Q403 -570 403 -592Q402 -612 400 -633Q400 -655 409 -665V-655Q409 -622 428 -607V-611Q428 -618 427 -626Q427 -630 428 -632Q432 -626 435 -619Q438 -612 446 -610Q459 -615 467 -615Q472 -615 474 -614Q497 -595 518 -574Q518 -550 523 -541Q531 -567 543 -598Q556 -629 557 -660Q557 -690 538 -710Q547 -728 577 -745Q606 -761 614 -773Q623 -776 631 -776Q648 -775 658 -765Q669 -754 682 -746Q698 -704 698 -671Q698 -655 696 -647Q668 -632 655 -601Q643 -570 628 -541Q658 -514 706 -489Q727 -475 746 -460Q765 -445 786 -439Q789 -438 793 -438Q816 -438 825 -485Q828 -482 828 -471Q829 -460 831 -457Q835 -466 838 -483Q843 -511 849 -518Q852 -515 852 -511Q849 -496 846 -481Q844 -465 844 -453Q844 -432 849 -423Q850 -425 850 -430V-440Q850 -449 856 -449Q855 -444 855 -435Q855 -391 881 -383Q885 -369 885 -356Q893 -342 894 -330V-326Q893 -318 886 -310Q877 -299 877 -292V-290Q863 -282 852 -271Q856 -260 865 -256Q865 -248 864 -241Q864 -234 868 -229Q862 -216 856 -203Q844 -199 815 -194Q788 -190 774 -184Q763 -180 741 -166Q720 -153 708 -149Q702 -152 698 -159Q695 -165 691 -170H687Q677 -170 659 -178Q647 -183 638 -184Q627 -173 627 -165Q627 -162 628 -160Q629 -156 636 -152Q644 -147 644 -142V-139Q697 -107 755 -64Q781 -46 797 -46Q809 -46 819 -55Q820 -69 826 -88Q828 -84 828 -80Q828 -74 827 -68Q827 -61 831 -58Q835 -70 836 -99Q837 -137 844 -148Q849 -140 849 -127Q849 -116 847 -98Q846 -84 846 -56Q846 -37 847 -28Q852 -35 852 -61Q852 -92 862 -98V-88Q864 -38 883 -6Q903 25 921 58Z"/>
</svg>