<svg xmlns="http://www.w3.org/2000/svg" viewBox="0 -800 1024 1024">
	<path fill="#000000" d="M830 -775Q830 -768 825 -764Q823 -762 814 -759Q812 -763 812 -765Q813 -777 823 -778Q827 -778 830 -775ZM900 -167V-174Q912 -177 913 -177Q912 -161 907 -147Q900 -150 900 -167ZM820 -574H791Q768 -574 756 -586Q747 -580 738 -574Q736 -576 736 -578Q741 -590 746 -594Q739 -606 724 -627Q717 -639 710 -651Q703 -663 702 -680V-683Q704 -694 706 -706Q702 -724 697 -742H700Q706 -742 709 -737Q713 -730 715 -729Q727 -731 734 -748Q740 -746 742 -746Q760 -748 765 -766Q777 -743 789 -735Q794 -736 799 -743Q805 -752 813 -752H814V-750Q814 -744 811 -740Q808 -737 805 -732Q805 -717 814 -711Q827 -717 839 -725Q852 -733 866 -735Q862 -726 848 -717Q834 -708 830 -700Q831 -675 845 -654H848Q868 -656 888 -659Q891 -659 897 -657Q891 -651 878 -652Q849 -647 841 -628V-624Q841 -612 830 -598Q821 -586 820 -574ZM913 110H911Q903 107 894 104Q889 104 885 107Q819 72 779 11Q735 -58 694 -130Q641 -79 627 -62Q593 -20 582 29Q571 36 559 36Q523 36 497 -27Q493 -36 492 -51Q490 -73 484 -81Q480 -86 469 -91Q457 -96 455 -105Q462 -104 470 -99Q479 -93 485 -93Q481 -101 460 -114Q438 -128 432 -138Q446 -137 468 -126Q490 -115 503 -115Q511 -115 520 -118Q532 -121 564 -151Q586 -169 608 -187Q631 -206 648 -226Q644 -238 617 -310Q590 -301 573 -280Q557 -259 540 -241Q532 -233 527 -232Q519 -230 516 -230Q499 -232 488 -247Q477 -263 463 -274Q455 -279 446 -282Q438 -286 432 -294Q431 -299 429 -305V-307Q423 -305 422 -299Q420 -294 417 -289Q419 -286 420 -286Q425 -288 430 -291Q432 -291 434 -289Q433 -281 425 -273Q417 -265 417 -257V-255Q419 -252 421 -252Q426 -254 430 -256H431Q418 -237 414 -211V-205Q395 -197 374 -190Q353 -183 348 -165Q347 -162 347 -155Q347 -153 351 -117Q353 -81 357 -49Q361 -17 364 15Q360 41 355 67V72Q353 71 350 71Q340 71 336 84Q332 81 327 81Q320 81 309 92V88Q309 83 308 81Q304 76 293 70Q286 66 281 62Q267 49 255 13Q245 -18 237 -28Q230 -31 223 -34Q226 -38 238 -40Q254 -72 255 -103Q232 -98 219 -78Q206 -57 194 -39Q176 -41 164 -49Q152 -57 139 -64Q117 -74 112 -82Q113 -95 115 -106Q116 -117 127 -121Q122 -138 122 -147Q122 -166 138 -178Q148 -185 175 -196Q201 -208 224 -219Q246 -230 277 -237Q278 -258 282 -300Q237 -299 185 -267Q171 -256 157 -239Q143 -223 127 -221Q115 -221 102 -235Q99 -242 95 -249Q82 -263 65 -275Q48 -286 44 -301V-305Q48 -324 52 -344V-347Q52 -356 44 -372Q34 -393 34 -406V-412Q36 -444 50 -456Q63 -462 78 -466Q96 -476 112 -488Q127 -499 152 -505Q129 -489 123 -483Q109 -469 104 -451Q111 -452 119 -460Q129 -470 139 -471L140 -468Q138 -463 135 -458L136 -454Q156 -456 193 -469Q230 -481 250 -483Q270 -496 284 -498Q286 -506 286 -523Q285 -549 284 -576V-582Q277 -593 268 -602Q259 -612 258 -627Q258 -631 260 -639Q265 -660 287 -675Q308 -690 333 -690Q358 -690 374 -670Q411 -622 423 -577Q417 -565 417 -550Q417 -545 419 -537Q431 -541 442 -546Q452 -551 469 -552H472Q462 -544 449 -538Q435 -532 434 -519Q434 -515 435 -513L437 -512Q439 -512 442 -516Q446 -522 450 -522H453Q444 -506 444 -495Q444 -482 453 -474Q434 -453 434 -417Q422 -408 422 -389Q422 -381 426 -369Q351 -358 351 -304Q351 -297 355 -277L428 -313V-322Q428 -348 441 -364Q439 -370 439 -381Q439 -397 449 -411Q453 -417 470 -435Q472 -437 482 -452Q489 -463 497 -465Q494 -454 490 -443Q490 -439 493 -435Q542 -435 579 -456Q570 -494 565 -540Q556 -599 549 -615Q533 -652 496 -655Q496 -657 495 -660Q495 -666 499 -675Q504 -686 504 -692Q504 -697 503 -700Q512 -708 540 -751Q561 -784 583 -784H589Q596 -782 604 -775H609Q614 -775 614 -774Q621 -767 627 -758Q633 -749 644 -747Q646 -735 652 -726Q657 -717 662 -708Q662 -705 661 -702Q661 -694 668 -679Q675 -665 675 -658V-656Q671 -631 663 -600Q655 -544 655 -517Q655 -507 657 -487Q687 -497 717 -508Q737 -518 756 -529Q760 -531 767 -531Q774 -531 777 -532Q781 -537 790 -539Q793 -539 795 -538Q806 -550 835 -559Q856 -565 865 -571Q874 -577 881 -584Q888 -591 899 -592Q898 -586 889 -577Q879 -566 879 -559Q879 -555 884 -547L909 -562Q908 -557 904 -549Q897 -537 897 -530Q897 -528 899 -520L901 -519Q906 -522 910 -526Q912 -526 913 -523Q900 -494 896 -457Q896 -447 897 -442Q889 -440 883 -430Q881 -427 873 -412Q826 -405 773 -383Q754 -375 685 -343Q695 -295 706 -276Q713 -282 720 -289Q723 -298 724 -315Q726 -331 734 -342Q757 -363 788 -375H794Q810 -375 817 -372Q823 -368 828 -362Q833 -356 843 -355H845Q845 -344 844 -333V-327L846 -326Q848 -326 850 -329Q853 -333 855 -333H856Q854 -319 854 -313Q855 -295 856 -278Q856 -266 853 -256Q839 -249 836 -235H833Q814 -235 808 -223Q805 -224 800 -224Q777 -224 750 -192Q769 -152 793 -117Q816 -81 853 -60Q859 -63 862 -78Q865 -95 872 -99Q875 -96 875 -84V-70Q875 -58 878 -55Q885 -65 885 -88Q885 -99 884 -111Q882 -141 879 -171Q879 -191 884 -202Q887 -182 891 -122Q895 -65 900 -34Q902 -83 904 -132Q909 -77 919 -28L921 -27Q924 -29 926 -32L928 -31Q929 -19 943 11Q958 44 958 61Q958 74 950 85Q943 91 930 97Q922 106 913 110Z"/>
</svg>