<svg xmlns="http://www.w3.org/2000/svg" viewBox="0 -800 1024 1024">
	<path fill="#000000" d="M371 -399Q370 -387 362 -385Q361 -388 361 -394V-403Q366 -403 367 -406Q371 -405 371 -399ZM263 -377Q249 -378 230 -393Q230 -407 225 -416Q219 -401 213 -386Q235 -375 256 -365Q260 -369 263 -377ZM448 -459Q420 -459 390 -437Q372 -441 362 -450Q351 -461 348 -480Q350 -460 352 -441Q352 -429 346 -420Q323 -412 312 -396Q306 -388 292 -355L314 -345Q322 -350 333 -355Q333 -376 338 -381Q338 -367 342 -358Q343 -365 343 -372Q343 -378 342 -385Q342 -408 349 -415Q349 -378 351 -360Q356 -370 361 -381Q361 -374 360 -368Q360 -356 368 -352Q392 -374 412 -402Q414 -405 448 -459ZM348 -497Q348 -499 346 -501Q341 -499 341 -494Q341 -490 345 -489Q348 -492 348 -497ZM391 -614Q311 -603 283 -581Q287 -566 291 -551Q254 -514 250 -465Q285 -483 302 -512Q311 -511 322 -506Q332 -501 337 -501Q342 -501 348 -504Q355 -535 368 -562Q381 -589 391 -614ZM519 -309V-308Q511 -302 502 -297Q504 -315 516 -315V-314Q518 -311 519 -309ZM937 -134Q933 -118 925 -115Q926 -118 926 -122V-132Q926 -137 928 -139Q930 -139 937 -134ZM733 -17Q716 -30 699 -69Q672 -59 665 -14H664Q656 -14 653 5Q636 5 614 0Q587 -5 584 -36Q572 -36 568 -32V-34Q568 -36 573 -40Q579 -45 580 -51V-52Q579 -68 559 -69Q566 -74 580 -77Q578 -87 575 -97L576 -117Q632 -158 657 -193Q650 -219 643 -246Q637 -270 614 -274Q609 -278 591 -270Q573 -262 570 -269Q561 -271 547 -307Q538 -331 533 -335V-338Q531 -361 529 -384V-389Q542 -419 566 -432Q572 -429 577 -426H578Q600 -434 622 -443Q620 -473 611 -505Q602 -535 600 -562Q599 -592 570 -622Q549 -650 548 -671Q547 -688 562 -712Q578 -727 585 -748Q592 -772 617 -775H622Q641 -773 664 -755Q684 -740 699 -720Q715 -703 720 -693Q714 -682 708 -671Q698 -644 698 -589V-553Q696 -549 694 -545Q696 -543 696 -532Q695 -516 694 -500Q694 -484 699 -482H700Q709 -482 724 -502Q736 -509 744 -517Q750 -515 753 -509Q765 -521 774 -521Q777 -521 779 -520L782 -519Q786 -517 789 -515Q793 -509 797 -506Q803 -502 806 -496Q816 -492 813 -473Q818 -467 824 -444Q827 -433 831 -424Q823 -409 822 -389Q815 -383 810 -375Q773 -347 735 -325Q706 -303 706 -281Q706 -269 713 -256Q723 -265 730 -277Q737 -290 745 -301L746 -303Q746 -305 745 -308V-310Q751 -310 764 -315Q775 -319 782 -320Q788 -320 800 -314Q810 -309 817 -309H819V-302Q819 -275 834 -274Q833 -271 833 -265Q836 -244 839 -223Q839 -213 835 -205Q824 -187 801 -178Q788 -171 775 -165Q788 -153 808 -126Q828 -99 841 -87Q844 -81 864 -61Q872 -54 879 -48Q879 -44 881 -43Q883 -43 886 -41Q890 -52 890 -79Q887 -127 884 -176Q884 -191 887 -205Q887 -216 894 -218Q897 -145 900 -73V-60Q900 -45 905 -39Q908 -106 911 -174Q915 -51 923 -19Q926 -37 928 -55Q926 -70 923 -86Q923 -97 930 -101Q931 -3 967 52Q976 64 984 75Q977 87 966 93Q957 101 948 109Q945 109 941 108Q920 108 905 118Q898 108 882 107Q867 105 853 101Q837 96 815 75Q795 56 783 50Q777 43 770 36Q762 30 760 19ZM571 -572Q567 -565 555 -561Q557 -573 565 -573Q569 -573 571 -572ZM929 -599Q916 -593 904 -590Q891 -587 888 -571V-568Q889 -557 890 -547V-545Q886 -528 882 -512Q878 -513 869 -513Q856 -513 853 -505Q815 -517 802 -517Q787 -530 774 -546Q759 -567 748 -602Q745 -609 741 -616Q739 -628 739 -638Q739 -662 745 -674Q746 -678 752 -684Q760 -693 760 -698V-701L763 -702Q767 -702 775 -696Q782 -691 786 -691Q789 -691 793 -694Q815 -678 835 -660Q848 -676 851 -676Q851 -669 850 -663Q850 -656 854 -653Q861 -655 871 -670Q883 -688 894 -690Q894 -681 881 -668Q864 -650 864 -637V-631Q866 -625 873 -621Q885 -628 896 -638Q906 -649 923 -652Q891 -627 885 -599Q890 -596 894 -596Q908 -598 921 -600Q926 -600 929 -599ZM868 -700Q865 -688 851 -685V-693Q851 -698 853 -700Q857 -702 862 -702Q866 -702 868 -700ZM942 -659V-653Q941 -652 937 -652Q931 -652 928 -656V-658Q928 -665 937 -669Q942 -669 942 -659ZM478 -96Q525 -109 535 -119Q538 -123 541 -129Q544 -135 550 -136Q551 -134 551 -131Q546 -120 540 -110V-103Q538 -84 553 -49Q546 -28 538 -8Q532 -9 525 -10Q486 -12 451 1Q415 13 379 23Q284 53 188 83Q176 94 162 102Q149 110 142 125Q139 126 132 126Q124 125 111 109Q98 93 89 92Q85 91 79 92Q71 87 71 75Q74 61 76 47Q75 33 74 18V16Q86 -3 104 -16L105 -15Q109 -15 111 -10Q113 -6 114 -5Q129 -8 144 -11Q133 -33 107 -95Q105 -101 106 -107Q106 -114 99 -116Q98 -114 98 -111Q101 -99 103 -87Q103 -84 101 -80Q85 -91 82 -113Q79 -134 79 -140Q79 -147 80 -150Q84 -162 93 -168Q102 -174 109 -179Q125 -167 135 -163Q189 -185 252 -217Q315 -248 376 -263Q373 -272 363 -276H362Q352 -258 338 -258Q331 -258 325 -261Q278 -281 261 -281Q254 -281 247 -273Q235 -252 225 -233H221Q205 -236 194 -245Q195 -248 195 -252Q195 -258 190 -269Q184 -283 184 -292Q184 -295 186 -305Q188 -304 190 -301Q192 -297 195 -297Q209 -312 223 -327Q213 -341 198 -348Q189 -337 184 -321Q179 -305 172 -287Q168 -277 162 -255Q156 -233 151 -225Q145 -215 137 -215Q119 -220 103 -236V-240Q103 -256 93 -263Q89 -262 78 -275Q67 -290 65 -288Q65 -314 73 -333Q80 -352 89 -347Q98 -352 111 -366Q129 -387 143 -390L149 -413Q180 -473 210 -536Q197 -534 189 -520Q181 -506 173 -494Q130 -509 126 -546Q103 -554 103 -591Q103 -623 123 -632Q122 -636 122 -643Q122 -671 141 -690Q151 -700 180 -717Q177 -711 172 -707Q167 -703 167 -695L169 -694Q175 -698 181 -702Q178 -700 178 -696Q178 -690 181 -686H186Q212 -689 238 -692Q257 -695 287 -705Q314 -714 325 -716Q438 -748 490 -727Q491 -727 495 -731Q501 -737 505 -737H506Q498 -727 498 -716Q498 -708 502 -704L504 -703Q506 -704 507 -706L508 -705Q508 -663 498 -635L497 -632Q474 -609 452 -584Q431 -560 419 -525Q496 -531 531 -546Q531 -542 530 -539Q532 -540 536 -545Q541 -551 547 -551H549Q541 -546 538 -536Q538 -533 539 -531L540 -530Q545 -533 549 -537L550 -536Q549 -532 549 -526Q549 -509 564 -500Q561 -490 557 -480Q563 -471 563 -464Q561 -449 552 -435H550Q535 -434 533 -424Q533 -422 535 -420H531Q523 -420 517 -408Q509 -394 506 -392L505 -375Q498 -354 481 -338Q464 -321 457 -300Q464 -303 479 -300Q492 -297 500 -301Q495 -294 487 -288Q479 -283 478 -272Q478 -269 480 -263Q483 -265 486 -268Q490 -273 494 -273L498 -272V-271Q495 -265 492 -260Q492 -257 491 -255Q491 -250 498 -238Q501 -245 509 -247H511Q500 -234 500 -218Q504 -177 531 -164Q520 -156 520 -140Q520 -135 522 -127Q499 -121 497 -115Q488 -105 478 -96ZM358 -65Q382 -154 384 -161Q381 -162 372 -162Q354 -162 350 -153Q354 -146 357 -139V-137Q345 -124 339 -60Q349 -62 358 -65ZM303 -52Q302 -74 301 -97Q298 -121 295 -145Q288 -145 274 -136Q281 -96 281 -88Q284 -68 286 -48Q295 -50 303 -52ZM237 -37Q226 -79 226 -96Q226 -106 226 -116H224Q203 -116 203 -92Q203 -74 222 -33Q230 -35 237 -37Z"/>
</svg>