<svg xmlns="http://www.w3.org/2000/svg" viewBox="0 -800 1024 1024">
	<path fill="#000000" d="M872 -187V-183Q817 -161 799 -120Q808 -116 826 -100Q835 -113 865 -117Q858 -106 851 -96Q864 -83 879 -73Q905 -84 930 -96Q907 -78 889 -55Q893 -41 906 -41Q918 -43 930 -45Q928 -39 921 -33Q911 -25 911 -18Q911 -16 913 -10Q943 -7 977 -7Q968 -3 949 0Q920 4 913 14Q916 25 916 34Q916 78 866 103Q827 90 804 62Q780 34 759 3Q585 14 481 81Q463 76 445 71Q444 56 424 38Q405 21 405 7V6Q413 -20 431 -40Q454 -67 500 -67Q491 -62 485 -54Q501 -39 537 -39Q564 -39 600 -49V-97Q582 -93 575 -90Q562 -85 559 -75Q555 -77 554 -77Q549 -74 544 -72Q540 -72 533 -77Q527 -82 522 -82Q519 -82 517 -81Q504 -94 493 -111Q482 -127 470 -144Q459 -154 453 -163Q450 -172 450 -183Q450 -205 463 -226Q475 -246 490 -249Q494 -250 503 -250Q531 -247 558 -244H561Q568 -244 605 -255Q606 -257 606 -260Q606 -265 600 -277Q594 -288 594 -295V-297Q595 -309 602 -318Q610 -327 616 -337Q628 -339 632 -339Q656 -339 672 -317Q674 -315 693 -276Q746 -287 770 -304Q762 -318 750 -318Q731 -333 711 -348Q692 -364 666 -373Q658 -384 647 -388Q636 -393 624 -399Q559 -353 536 -284Q524 -279 507 -279Q467 -279 453 -316Q451 -324 451 -331Q452 -344 452 -357Q452 -375 445 -382Q451 -380 457 -378V-382Q457 -398 435 -427Q434 -425 434 -415Q434 -406 432 -403Q427 -398 395 -380Q371 -366 364 -350Q365 -347 365 -341Q362 -318 359 -295Q359 -290 361 -282Q386 -297 413 -310Q412 -306 406 -301Q394 -291 394 -284Q394 -281 395 -279H396Q402 -281 407 -284Q409 -284 411 -282Q407 -271 402 -261Q402 -256 410 -256Q408 -250 408 -245Q408 -220 422 -208Q411 -197 411 -189Q411 -186 413 -180Q382 -173 361 -150Q363 -113 363 -69Q363 -25 368 11Q372 27 376 42V44Q376 71 356 86Q340 98 308 104Q296 91 282 76Q267 62 266 41Q266 36 267 33Q257 8 240 8H238Q266 -7 269 -49Q277 -73 282 -98V-103Q248 -87 217 -33H207Q165 -33 136 -51Q134 -59 134 -62Q137 -78 140 -94Q134 -104 134 -116Q135 -135 144 -154Q153 -173 158 -189Q161 -187 164 -181Q167 -175 170 -174Q244 -205 293 -241Q293 -276 288 -318Q213 -281 173 -253Q161 -242 150 -225Q139 -208 124 -205Q95 -212 72 -232Q64 -248 55 -265Q45 -277 36 -286Q26 -295 25 -316V-318Q26 -333 38 -372Q47 -402 49 -418Q67 -431 94 -462Q131 -503 154 -517Q149 -509 138 -496Q127 -483 126 -468Q126 -463 127 -460Q131 -461 136 -469Q140 -476 145 -477V-475Q145 -470 144 -466Q144 -463 146 -462Q173 -473 200 -481Q227 -489 249 -504H252Q258 -505 263 -507Q265 -507 267 -505Q268 -509 281 -513V-521Q281 -543 274 -582Q268 -615 268 -637Q268 -651 269 -658Q303 -721 351 -721Q361 -721 371 -718Q405 -660 407 -657Q423 -638 428 -609V-606Q425 -579 408 -553Q429 -564 434 -564V-563Q430 -555 426 -542Q426 -539 428 -535L431 -534Q436 -534 440 -535H443Q435 -527 435 -509Q435 -498 438 -488Q440 -486 442 -486Q445 -486 447 -487L448 -486Q443 -479 443 -460V-457Q443 -437 437 -432Q464 -413 491 -394Q512 -405 521 -415Q531 -425 548 -440Q546 -447 521 -461Q493 -476 493 -483Q493 -485 512 -496Q525 -503 527 -506Q553 -511 578 -516Q603 -516 617 -508Q619 -508 621 -512Q623 -516 626 -516Q619 -523 612 -531Q605 -540 604 -553Q604 -559 605 -562Q581 -555 530 -526Q504 -537 491 -545Q468 -559 466 -576V-579Q471 -598 475 -618Q471 -633 466 -648Q466 -677 509 -712Q527 -726 543 -733Q531 -721 531 -711Q531 -704 538 -697Q579 -704 613 -718Q648 -733 685 -745Q702 -748 718 -751Q725 -754 738 -769Q756 -789 770 -790H771Q776 -789 780 -788Q783 -788 785 -789Q792 -786 801 -776Q815 -760 826 -760Q831 -760 833 -761V-751Q841 -753 852 -766Q861 -777 872 -778Q863 -757 853 -738Q851 -735 848 -732L850 -729H852Q854 -729 857 -734Q862 -741 866 -741Q864 -736 864 -725Q864 -709 874 -680Q883 -654 884 -643Q872 -631 872 -613Q758 -579 688 -477Q719 -444 812 -418Q847 -408 855 -408Q876 -408 879 -430Q881 -421 882 -410Q883 -400 893 -399H895Q896 -459 904 -508Q906 -500 906 -477V-447Q906 -421 910 -408Q916 -409 916 -421Q916 -431 919 -432Q919 -426 918 -421Q919 -386 934 -357Q949 -328 962 -301Q968 -287 968 -267Q968 -259 967 -255Q961 -239 945 -232Q930 -225 913 -218Q910 -220 899 -221Q886 -222 882 -229Q872 -196 872 -187ZM709 -165Q718 -187 727 -210Q732 -217 732 -221L731 -223Q683 -215 669 -196Q668 -174 675 -162Q692 -163 709 -165ZM694 -115H689Q676 -115 662 -109Q660 -97 660 -87Q660 -61 669 -52Q699 -58 728 -64Q717 -71 705 -80Q694 -89 693 -105Q693 -111 694 -115ZM699 -604Q648 -589 635 -577Q640 -574 644 -574Q650 -574 654 -576Q654 -568 656 -558Q663 -563 675 -578Q685 -591 690 -595Q697 -598 700 -602ZM608 -153V-156Q607 -163 606 -171Q607 -174 607 -177H604Q582 -177 582 -154Q582 -148 583 -145ZM962 -117Q960 -109 954 -105Q948 -102 943 -97L942 -101Q942 -107 946 -113Q950 -119 956 -119Q958 -119 962 -117ZM919 -444V-453Q919 -467 927 -467L931 -466V-462Q931 -455 927 -451Q923 -447 919 -444Z"/>
</svg>