<svg xmlns="http://www.w3.org/2000/svg" viewBox="0 -800 1024 1024">
	<path fill="#000000" d="M874 -742H872Q869 -743 866 -745V-747Q866 -756 877 -756Q879 -756 883 -754Q879 -748 874 -742ZM873 -227V-225Q873 -218 867 -208Q861 -199 861 -193Q856 -200 856 -213Q856 -229 866 -229Q867 -229 873 -227ZM533 -430Q457 -415 360 -362Q363 -354 366 -346Q400 -357 433 -369Q467 -381 501 -383Q517 -409 533 -430ZM555 -518H559Q556 -514 553 -511Q549 -507 548 -501Q552 -499 553 -499Q560 -501 566 -503Q560 -500 559 -489Q559 -483 565 -482Q577 -513 603 -569Q612 -587 612 -592V-595Q573 -587 539 -570Q505 -553 470 -535Q443 -523 403 -496Q376 -480 370 -476Q353 -464 343 -452Q393 -461 436 -482Q483 -496 521 -523Q523 -514 529 -509Q541 -515 555 -518ZM408 -45V-42Q409 -36 409 -30Q329 -12 257 36Q241 48 232 90Q204 94 186 94Q126 94 126 55Q118 48 110 44Q101 40 98 31Q97 29 97 24Q102 7 106 -10V-11Q105 -23 85 -40Q66 -56 64 -65L66 -66Q75 -62 83 -53Q98 -43 109 -41L110 -44Q110 -49 103 -54Q98 -58 98 -59V-60H100Q110 -57 121 -51H125Q140 -52 155 -53H159Q168 -50 177 -48Q194 -48 220 -60Q240 -69 247 -70Q244 -110 236 -145Q228 -183 186 -186Q187 -191 196 -194Q203 -197 205 -199V-218Q232 -230 253 -248H256Q281 -248 300 -238Q313 -231 331 -215Q361 -232 399 -236V-232Q399 -223 405 -220Q411 -220 420 -225Q429 -230 437 -230H441Q440 -227 433 -225Q426 -222 426 -217V-213Q427 -209 433 -209Q426 -202 426 -193Q426 -183 435 -179Q433 -170 431 -162Q431 -157 435 -154Q424 -143 424 -136Q402 -126 377 -121Q353 -116 341 -92Q362 -98 386 -106Q411 -113 439 -114H443Q437 -111 431 -108Q424 -105 421 -99Q430 -102 432 -102L436 -101Q434 -96 426 -91Q417 -86 417 -79L420 -77H427Q422 -72 418 -61Q414 -49 408 -45ZM925 -47V-36Q925 -17 929 -11Q924 3 916 16Q909 29 908 49Q891 60 876 81Q846 61 783 50Q746 43 668 36Q653 36 637 35Q620 36 603 36Q582 40 560 44Q534 46 516 61Q507 53 489 45Q467 35 460 27Q449 10 443 -13Q445 -20 446 -27V-29Q444 -35 442 -42Q444 -59 451 -80Q454 -101 457 -122Q467 -182 467 -207Q467 -250 445 -278Q451 -277 467 -268Q468 -268 471 -275Q476 -273 484 -273Q501 -275 517 -278Q528 -278 536 -272Q557 -243 574 -209Q587 -224 603 -239Q619 -253 621 -275Q629 -277 634 -285Q637 -290 640 -292Q648 -298 663 -298Q682 -296 700 -295Q711 -295 719 -299Q721 -295 721 -292V-286Q721 -281 723 -280L725 -279Q731 -281 737 -284L741 -283L742 -281Q740 -275 738 -269Q748 -278 762 -280V-278Q762 -274 756 -268Q749 -261 748 -257Q747 -254 747 -247Q751 -221 757 -197Q744 -176 731 -155H726Q627 -155 548 -102V-99Q548 -93 544 -90Q541 -87 538 -83Q546 -81 549 -81Q568 -83 586 -86Q648 -87 710 -89H753Q790 -89 805 -105L812 -140Q817 -137 817 -125Q817 -121 816 -118Q816 -113 818 -107Q822 -123 822 -146Q819 -202 815 -258Q815 -275 816 -283Q822 -278 822 -262V-230Q829 -169 836 -108Q840 -116 840 -128Q837 -156 833 -185Q832 -192 832 -208Q832 -228 837 -239Q846 -234 846 -202Q847 -176 849 -148Q851 -121 860 -101Q861 -105 861 -115Q860 -136 859 -158Q859 -176 864 -185Q866 -161 869 -134Q871 -107 883 -88Q889 -81 894 -76Q900 -71 902 -63Q920 -55 925 -47ZM581 -263V-265Q573 -263 565 -261Q563 -261 560 -262Q553 -269 535 -278Q508 -292 500 -305Q448 -300 421 -281Q418 -281 414 -282Q406 -282 396 -277Q386 -272 380 -271Q369 -258 357 -246Q328 -248 301 -261Q282 -270 257 -289Q242 -351 206 -382Q197 -390 175 -402Q144 -420 132 -434Q119 -453 112 -476Q106 -489 98 -503Q90 -518 89 -533V-537Q89 -548 97 -572Q105 -596 105 -610Q105 -613 104 -617Q100 -627 97 -640V-644Q102 -643 106 -637Q111 -629 116 -629Q116 -638 105 -655Q97 -667 95 -676H96Q100 -676 115 -661Q125 -648 137 -641L138 -644Q138 -649 130 -656Q123 -663 123 -666Q123 -668 125 -670H126Q129 -670 135 -664Q146 -654 153 -653H157Q179 -657 200 -661Q219 -663 238 -665Q242 -664 245 -664Q262 -659 272 -640Q282 -619 294 -607Q338 -636 378 -646Q386 -649 390 -655Q483 -688 560 -730Q629 -752 655 -768Q692 -793 734 -793H748Q756 -791 760 -778Q774 -775 783 -766Q791 -769 799 -772Q802 -770 802 -769Q798 -763 793 -758V-757Q797 -757 807 -764Q820 -772 828 -773V-772Q828 -767 817 -757Q807 -748 805 -742Q807 -736 815 -736Q818 -736 827 -739Q830 -737 830 -733Q830 -728 828 -722Q835 -722 844 -730Q852 -737 860 -737Q840 -719 840 -698Q840 -684 852 -677Q849 -660 845 -643Q845 -635 849 -631Q844 -630 844 -625Q845 -619 845 -614Q829 -612 827 -596H825Q780 -596 739 -533Q677 -438 614 -260Q608 -262 602 -262Q589 -262 586 -255Q581 -262 581 -263Z"/>
</svg>