<svg xmlns="http://www.w3.org/2000/svg" viewBox="0 -800 1024 1024">
	<path fill="#000000" d="M68 -313H69Q70 -308 70 -293Q62 -295 61 -306Q61 -313 68 -313ZM891 -314H893Q890 -303 887 -292Q881 -292 881 -301Q881 -314 891 -314ZM727 -136H730Q737 -135 739 -130Q742 -125 745 -121L741 -120Q729 -121 727 -136ZM700 -427V-431Q701 -439 702 -447Q702 -450 700 -454Q669 -439 658 -432Q637 -418 625 -401Q663 -414 700 -427ZM687 -329L693 -362Q670 -359 641 -338H637Q625 -336 618 -329L619 -325Q618 -319 617 -314L618 -310Q653 -319 687 -329ZM709 -524Q715 -561 720 -599Q653 -567 640 -488Q674 -507 709 -524ZM634 -151V-142Q641 -143 648 -151Q656 -160 662 -161Q658 -152 651 -144Q645 -137 644 -127Q644 -121 647 -115L649 -114Q652 -115 654 -116L656 -115Q653 -93 649 -72Q645 -51 632 -40Q629 -41 622 -41Q612 -40 601 -40Q583 -40 578 -52Q558 -58 549 -75Q540 -94 532 -115Q533 -118 533 -123Q533 -130 527 -143Q520 -158 520 -168V-170Q523 -169 526 -163Q531 -155 535 -154L537 -157Q537 -160 536 -163Q536 -165 538 -167H540Q543 -166 546 -166H548Q557 -170 568 -170Q584 -169 596 -161Q608 -153 618 -145Q626 -148 634 -151ZM878 -264V-263Q881 -257 895 -254Q909 -250 912 -244Q931 -252 949 -260Q948 -254 941 -248Q933 -241 933 -235Q936 -220 947 -209Q952 -213 959 -215Q954 -207 954 -196Q954 -177 962 -167Q968 -169 973 -171L976 -170Q961 -159 960 -141Q958 -123 952 -107Q939 -81 897 -82Q875 -97 852 -110Q851 -126 844 -137Q836 -147 829 -161Q822 -175 817 -188Q812 -201 803 -211V-218Q803 -241 824 -250Q830 -253 866 -260L880 -283Q883 -281 883 -279Q881 -271 878 -264ZM360 65H352Q340 65 328 64H323Q301 36 261 36Q254 36 240 38Q240 34 245 31Q250 28 250 25Q241 8 219 8Q184 13 156 23Q169 15 184 8Q199 1 209 -11Q206 -15 200 -15Q192 -14 183 -13H181Q189 -20 200 -26Q212 -33 213 -46Q213 -54 211 -58Q213 -60 225 -70Q226 -73 226 -76Q226 -85 220 -91Q215 -97 211 -103L215 -104Q224 -101 233 -98H234Q244 -98 257 -113Q270 -129 279 -130V-132Q282 -142 284 -152Q287 -151 288 -144Q289 -138 292 -136Q317 -136 335 -114Q338 -111 363 -70Q372 -70 376 -73Q374 -63 374 -57Q374 -40 389 -12Q401 10 403 22Q385 47 360 65ZM727 -86H729Q736 -84 743 -73Q751 -62 763 -59Q728 -104 690 -149Q708 -139 739 -109Q768 -81 782 -71Q779 -79 765 -94Q752 -108 748 -115Q761 -109 784 -90Q816 -63 841 -58Q849 -49 877 -34Q877 -17 890 7L887 9Q889 13 891 17Q891 18 886 20Q888 23 893 23Q888 31 888 32Q888 34 893 37Q891 41 884 48Q875 57 875 67Q836 79 784 87Q731 94 677 102Q662 105 646 105Q562 105 477 51Q423 -12 423 -66Q423 -86 432 -107V-109Q432 -113 431 -118Q431 -121 434 -124Q438 -124 439 -120Q440 -115 441 -115Q446 -120 453 -120Q462 -119 469 -109Q476 -99 483 -88Q487 -82 497 -72Q511 -58 512 -52Q570 -23 651 -23Q695 -23 742 -34Q748 -40 748 -47Q747 -58 740 -68Q732 -78 727 -86ZM788 -287V-279Q790 -247 792 -215Q779 -192 754 -192Q730 -192 709 -210Q687 -229 686 -254Q617 -249 590 -208H587Q583 -208 570 -203Q543 -215 530 -260Q542 -281 542 -302Q542 -304 542 -307Q541 -309 541 -313Q539 -363 535 -422Q532 -481 511 -509Q506 -508 505 -502Q504 -497 502 -493Q479 -487 474 -478Q446 -474 437 -461Q459 -459 465 -448Q471 -452 475 -452H477L479 -450Q477 -445 475 -440L476 -437Q483 -438 490 -446Q496 -454 501 -455Q496 -437 496 -430Q496 -422 499 -418Q503 -416 506 -416H514V-409Q516 -386 518 -364Q518 -352 514 -343Q500 -338 486 -334Q482 -325 479 -317Q475 -340 438 -340Q438 -333 437 -327Q437 -311 443 -281Q449 -254 449 -239Q441 -225 441 -211V-206Q435 -198 427 -193Q419 -187 418 -174V-169Q412 -170 408 -176Q405 -181 403 -182H398Q379 -182 365 -193Q358 -199 342 -220Q322 -242 319 -268Q337 -288 341 -319Q292 -281 222 -194Q204 -173 194 -148Q178 -139 170 -101H168Q164 -101 160 -95Q156 -89 154 -88Q143 -87 135 -83Q120 -90 116 -91Q98 -113 94 -143Q90 -172 84 -205L85 -207Q89 -203 92 -200H93V-205Q93 -221 83 -248Q74 -273 74 -281V-284Q80 -282 81 -276Q82 -271 84 -266Q88 -254 114 -214Q146 -227 180 -254Q192 -264 236 -304Q276 -341 289 -355Q317 -386 330 -418Q298 -408 267 -389Q250 -380 240 -367Q229 -355 216 -344Q206 -337 195 -337Q174 -340 150 -353Q141 -357 124 -363Q100 -371 93 -376Q88 -380 83 -386Q79 -392 70 -394V-397Q69 -406 67 -416Q68 -426 75 -439Q82 -452 83 -457V-459Q79 -473 74 -488Q75 -508 89 -520Q102 -533 114 -545H115Q120 -543 125 -541Q144 -554 160 -569Q176 -585 199 -593L200 -590Q200 -585 185 -575Q177 -568 169 -560Q161 -551 160 -539V-536Q167 -538 174 -546Q182 -555 188 -556Q185 -548 182 -541Q184 -540 188 -540Q201 -542 216 -548Q272 -570 328 -593Q327 -609 325 -626Q322 -638 307 -656Q295 -669 295 -677V-679Q299 -691 302 -703Q302 -705 301 -708Q321 -718 341 -734Q361 -749 388 -751H393Q399 -748 405 -746Q408 -745 411 -745Q418 -745 424 -746Q433 -746 440 -742Q442 -730 456 -712Q471 -691 473 -677V-673Q472 -661 470 -649Q470 -644 471 -641Q480 -648 496 -652H501Q493 -643 490 -630V-626Q492 -624 494 -624Q499 -626 504 -628H506L507 -626Q506 -620 505 -614Q505 -605 514 -584Q509 -571 509 -569Q533 -604 536 -607V-616Q536 -627 542 -628Q546 -618 550 -608Q571 -610 590 -614Q599 -618 615 -632Q669 -675 723 -719V-726Q723 -730 724 -731Q725 -735 731 -743Q737 -751 738 -757Q747 -762 759 -778Q776 -802 797 -802H803Q831 -800 847 -780Q855 -785 864 -787H866V-786Q864 -780 861 -775L862 -773L866 -772Q870 -772 878 -779Q891 -791 900 -791H902Q901 -786 894 -779Q881 -766 881 -756Q881 -754 883 -746H885Q891 -747 895 -751Q898 -756 901 -757H902Q897 -749 897 -742Q897 -736 903 -720Q910 -701 910 -688Q910 -684 909 -680Q901 -671 899 -657V-653Q867 -641 850 -605Q836 -575 831 -526Q792 -423 788 -287Z"/>
</svg>