<svg xmlns="http://www.w3.org/2000/svg" viewBox="0 -800 1024 1024">
	<path fill="#000000" d="M508 9H505Q496 11 487 12Q484 9 484 4V1Q487 -1 493 -1Q507 -1 508 9ZM890 -634Q881 -622 869 -612Q867 -616 867 -620Q867 -626 871 -631Q875 -636 882 -636Q887 -636 890 -634ZM305 -193V-229Q285 -222 266 -214Q247 -205 243 -183V-178Q245 -159 247 -141V-134Q250 -136 275 -146Q293 -153 299 -163Q305 -173 305 -193ZM317 -412V-438Q276 -407 265 -396Q237 -367 237 -336Q237 -320 243 -304Q258 -317 274 -329Q290 -341 312 -345Q317 -369 317 -412ZM646 -129V-127Q585 -120 564 -94Q560 -97 554 -97Q547 -97 535 -90Q527 -94 517 -102Q501 -115 491 -118Q489 -139 473 -139Q471 -138 468 -138Q479 -148 493 -153V-156Q494 -160 494 -165Q505 -174 522 -177Q538 -180 561 -187Q577 -194 592 -202Q606 -211 619 -212Q631 -212 640 -203Q647 -208 656 -210H659Q657 -203 655 -197V-195Q659 -185 663 -175V-174Q663 -167 655 -154Q646 -139 646 -129ZM635 -237V-235Q545 -214 509 -183Q497 -189 496 -189Q494 -189 490 -187Q469 -217 446 -223V-224Q446 -229 450 -230Q454 -231 459 -231Q455 -236 444 -236Q435 -235 426 -235Q459 -257 480 -288Q502 -298 539 -306L579 -318Q597 -323 608 -323Q624 -323 634 -313Q636 -318 644 -318Q646 -318 652 -316V-272Q645 -268 640 -262Q642 -256 642 -255Q639 -246 635 -237ZM302 -47V-49Q262 -43 252 -30Q249 -26 246 -13Q244 -2 240 3Q230 12 219 20Q213 19 173 14Q156 -10 148 -40Q145 -43 135 -45Q139 -55 142 -81Q145 -105 148 -114Q136 -214 128 -245Q111 -313 75 -341Q69 -363 69 -385Q69 -428 89 -454Q88 -459 82 -467Q75 -476 75 -486H76Q80 -486 91 -475Q101 -465 104 -463V-465Q104 -484 86 -510Q71 -532 68 -545H70Q74 -545 77 -540Q79 -535 83 -531Q91 -523 99 -516Q106 -509 113 -501Q120 -493 129 -492Q133 -492 135 -493V-496Q135 -502 127 -509Q116 -518 116 -526V-529Q131 -521 146 -511Q162 -501 179 -498Q186 -484 193 -471Q270 -524 306 -568Q318 -586 330 -606Q341 -628 372 -630H378Q381 -632 382 -637Q384 -644 387 -645Q397 -627 401 -625Q411 -632 426 -654Q420 -642 420 -623Q420 -610 426 -609H427Q429 -609 432 -616Q436 -625 441 -625Q439 -617 439 -613Q439 -599 455 -578Q470 -558 470 -545V-543Q466 -520 453 -492Q446 -467 435 -439Q409 -370 401 -315Q394 -283 390 -249Q388 -207 388 -180Q388 -121 395 -85Q403 -56 403 -55Q395 -32 376 -13Q368 -5 355 0Q354 1 353 5Q352 11 348 11Q346 -3 325 -15Q302 -28 302 -47ZM749 80V83Q716 86 708 116Q662 106 650 103Q624 62 609 47L608 45Q609 42 612 41Q598 30 560 21Q533 15 523 8Q546 12 598 17Q578 7 535 -1Q482 -11 464 -22Q486 -21 538 -10Q571 -3 594 0Q559 -21 516 -29Q474 -38 434 -48Q440 -49 452 -49Q477 -49 521 -37Q565 -25 589 -25Q605 -25 620 -36Q652 -67 671 -115Q701 -181 723 -263Q745 -345 764 -418Q759 -420 748 -420Q738 -420 699 -407Q670 -399 640 -391Q610 -383 583 -366Q573 -358 559 -346Q546 -335 535 -333H534Q516 -333 497 -352Q476 -375 461 -397L464 -407Q459 -417 459 -430Q459 -442 469 -465Q480 -490 480 -506V-508Q483 -513 490 -516Q488 -522 488 -523Q491 -537 497 -546Q499 -559 500 -579Q500 -599 508 -609Q506 -630 500 -645Q477 -641 465 -615Q468 -638 491 -681Q509 -714 514 -735Q532 -748 546 -764Q561 -780 586 -781H594Q629 -774 645 -743Q661 -712 675 -681Q673 -665 670 -649Q670 -640 674 -633Q646 -613 631 -574Q624 -550 614 -529Q607 -521 601 -515Q594 -509 593 -499Q594 -496 594 -493Q647 -504 708 -522Q738 -531 763 -542Q789 -553 820 -555Q829 -568 837 -580Q846 -593 860 -600Q858 -594 852 -584Q846 -575 845 -563Q845 -559 847 -553Q848 -551 851 -551Q853 -551 857 -556Q862 -563 865 -564V-562Q864 -557 862 -552V-550Q870 -541 885 -534Q901 -540 917 -546Q916 -543 912 -538Q907 -532 907 -527Q908 -524 908 -522Q917 -528 925 -536Q933 -543 946 -546Q945 -541 937 -532Q926 -519 924 -511Q928 -501 936 -501Q939 -501 942 -502Q936 -497 936 -490Q937 -483 937 -476V-473Q936 -466 934 -460Q935 -451 945 -437Q954 -424 955 -418Q955 -410 950 -398Q946 -388 945 -384Q913 -380 893 -344Q885 -329 866 -275Q838 -184 809 -94Q788 -42 785 18V32Q775 42 763 51Q750 60 749 80Z"/>
</svg>