<svg xmlns="http://www.w3.org/2000/svg" viewBox="0 -800 1024 1024">
	<path fill="#000000" d="M63 -111Q53 -111 51 -126Q63 -124 63 -111ZM919 -689H924Q920 -675 908 -675Q907 -675 903 -677Q906 -689 919 -689ZM937 -138V-144Q937 -168 950 -170Q951 -167 951 -162Q951 -143 937 -138ZM730 -267Q654 -250 633 -213Q642 -212 669 -197Q679 -211 701 -234Q722 -255 730 -267ZM414 72H413Q409 72 409 66Q409 61 408 60Q391 53 376 45Q361 36 359 16Q350 7 346 -2Q345 -3 341 -3H334Q342 -11 344 -20Q344 -23 341 -28Q341 -30 337 -30H329Q355 -52 359 -93Q362 -135 367 -177Q328 -162 302 -133Q275 -103 248 -74Q193 -19 152 51Q145 54 138 54Q118 54 97 31Q86 35 84 38V36Q88 26 94 18Q91 3 88 -13Q85 -29 75 -38Q80 -42 80 -49Q80 -57 85 -60Q85 -70 77 -82Q70 -93 69 -102H71Q74 -102 79 -94Q88 -81 94 -80Q89 -99 78 -114Q67 -129 56 -144Q48 -155 48 -161Q48 -165 50 -167Q68 -147 84 -125Q99 -103 123 -89Q158 -106 196 -136Q209 -147 260 -191Q286 -213 321 -249Q365 -293 377 -312Q340 -310 282 -275Q251 -259 223 -241Q195 -223 185 -186Q176 -183 165 -177Q146 -166 136 -166Q126 -166 117 -171Q111 -175 105 -181Q99 -187 90 -188Q79 -212 79 -216Q54 -240 49 -247Q37 -264 37 -288Q37 -299 38 -305Q43 -322 47 -339V-341Q45 -354 43 -368V-372Q44 -385 55 -397Q57 -399 75 -416Q87 -433 102 -444Q145 -470 180 -488Q176 -481 165 -470Q149 -455 146 -443Q148 -442 151 -442Q157 -442 166 -449Q172 -454 176 -455V-453Q176 -445 183 -440Q222 -443 285 -468Q343 -490 373 -496Q376 -503 376 -511Q376 -522 365 -544Q352 -570 352 -588V-593Q355 -596 360 -605Q367 -618 374 -623Q386 -631 401 -633Q416 -636 430 -638Q436 -637 442 -632Q448 -627 451 -626Q462 -599 475 -574Q488 -549 494 -518H496Q500 -519 504 -521H505Q498 -511 495 -500Q495 -496 496 -493Q496 -490 500 -490H502Q506 -490 506 -488Q501 -474 501 -453Q502 -437 502 -421Q502 -393 488 -383Q488 -376 491 -375Q467 -359 459 -355Q454 -338 454 -325Q454 -291 479 -287Q484 -288 486 -298Q488 -309 494 -309Q493 -297 491 -286Q491 -284 493 -278Q498 -272 505 -267Q510 -259 513 -248Q516 -238 525 -236Q526 -230 526 -219Q526 -206 525 -193Q525 -187 527 -171Q521 -173 518 -173Q503 -173 500 -156Q499 -157 499 -161Q499 -165 497 -165Q474 -168 456 -177Q450 -169 450 -151Q451 -141 451 -132Q451 -124 450 -120V-104Q456 -44 465 10Q444 55 416 61Q414 67 414 69ZM967 34V55Q969 64 971 72Q968 96 946 102Q923 109 904 120Q850 108 830 90Q801 62 770 27Q743 -1 718 -30Q692 -59 662 -83Q609 -30 586 4Q580 15 573 32Q565 50 553 54H551Q529 50 514 31Q502 7 497 -20V-24Q497 -37 503 -51Q502 -62 500 -74Q501 -76 504 -76Q508 -76 511 -75Q512 -79 512 -85Q512 -95 506 -108Q499 -123 499 -132Q510 -123 517 -109Q524 -95 541 -93Q558 -95 577 -112Q596 -129 609 -138Q603 -147 597 -156Q591 -165 591 -179V-182Q573 -188 559 -193Q544 -199 536 -213Q533 -223 530 -233Q520 -248 511 -264Q513 -267 513 -273Q511 -287 508 -302Q508 -307 511 -312Q505 -324 500 -336H503Q510 -333 516 -330Q523 -336 535 -336H553Q562 -340 571 -345L657 -377Q658 -387 658 -398Q658 -405 656 -413Q645 -412 627 -394Q609 -376 598 -374Q595 -373 589 -373Q560 -375 547 -402Q537 -413 526 -421Q516 -430 514 -446V-450Q517 -469 525 -493Q526 -496 526 -503Q525 -521 523 -539Q523 -549 527 -556Q544 -584 579 -619Q571 -598 571 -591Q571 -582 577 -578Q593 -579 618 -588Q642 -597 653 -597Q657 -613 657 -633Q656 -699 618 -728Q623 -738 623 -741Q623 -744 621 -748Q642 -760 660 -785Q678 -811 710 -814H712Q723 -814 737 -800Q743 -801 749 -802Q771 -789 779 -783Q794 -771 801 -754Q812 -734 812 -718V-716Q812 -711 804 -703Q799 -697 796 -692Q791 -683 787 -650Q814 -653 847 -663H848L849 -662Q848 -658 847 -654V-653Q865 -663 891 -669V-667Q891 -663 881 -658Q871 -653 869 -650Q862 -641 862 -631Q863 -627 863 -623L866 -622Q873 -624 879 -629V-628Q876 -619 873 -610Q873 -603 885 -603Q880 -595 877 -588Q877 -585 876 -583Q880 -567 886 -553V-549Q883 -526 871 -506Q860 -500 824 -491Q777 -479 759 -465Q750 -436 750 -407Q759 -409 778 -418Q800 -429 814 -429Q823 -429 836 -424Q842 -430 852 -445Q863 -462 871 -468V-466Q870 -457 865 -448Q860 -440 856 -431Q860 -416 880 -410Q883 -411 885 -415Q888 -420 892 -420L895 -419Q893 -408 888 -401Q892 -392 897 -384Q903 -388 910 -390H912Q903 -380 903 -365Q903 -354 909 -332Q916 -307 916 -295Q916 -282 910 -270Q896 -259 882 -259Q878 -259 862 -261H855Q842 -261 832 -254Q830 -253 812 -237Q765 -198 727 -152Q762 -119 799 -89Q837 -59 889 -44Q894 -53 895 -80Q896 -112 903 -120Q907 -96 909 -41Q915 -54 915 -84Q914 -122 912 -161V-175Q912 -187 919 -189Q923 -144 927 -99V-96Q925 -70 922 -45Q922 -31 927 -21Q935 -32 935 -51Q933 -75 931 -99Q931 -119 939 -128Q942 -111 942 -95Q942 -77 941 -59Q941 -51 943 -33Q945 -21 955 -1Q965 21 967 34Z"/>
</svg>