<svg xmlns="http://www.w3.org/2000/svg" viewBox="0 -800 1024 1024">
	<path fill="#000000" d="M66 -511H62V-514Q64 -528 77 -529Q82 -529 84 -528Q81 -522 78 -516Q75 -511 66 -511ZM433 -86Q423 -84 421 -84Q412 -84 401 -94Q404 -101 411 -101Q426 -98 433 -86ZM256 -264H254Q251 -263 248 -262H246Q239 -278 220 -278Q204 -278 173 -265Q177 -273 184 -277Q191 -282 198 -287Q195 -296 185 -296Q180 -295 174 -295V-296Q174 -300 177 -302Q180 -304 180 -306Q172 -311 171 -330Q170 -342 167 -348Q163 -356 150 -360Q138 -364 133 -369Q135 -371 139 -371Q145 -370 150 -370H152Q169 -373 185 -400Q202 -404 229 -405Q253 -406 266 -408Q280 -391 303 -375Q325 -358 335 -333Q339 -315 343 -298Q350 -283 352 -269Q352 -263 349 -259Q325 -258 314 -243Q269 -245 256 -264ZM377 -208V-207Q357 -201 341 -178L344 -177Q349 -177 358 -183Q367 -189 371 -189Q372 -189 376 -187Q364 -178 360 -175Q351 -167 351 -157Q352 -154 352 -152L354 -151Q359 -153 364 -156Q367 -156 368 -153L369 -152Q369 -151 365 -148Q359 -143 359 -139Q361 -131 361 -130Q361 -126 352 -115Q356 -110 356 -106Q356 -101 355 -96Q355 -93 358 -87Q258 -49 208 2Q206 22 193 34Q180 46 160 46Q154 46 140 42Q137 32 124 26Q123 25 99 18Q86 -2 84 -5Q86 -21 87 -38V-43Q86 -51 81 -64Q75 -78 75 -84V-87Q75 -108 105 -129Q118 -138 133 -158Q151 -181 161 -187V-184Q161 -180 155 -172Q145 -159 145 -149V-143Q147 -141 149 -139Q190 -155 262 -176Q342 -199 377 -214L379 -213Q378 -210 377 -208ZM344 -468V-463Q334 -459 326 -453Q322 -452 318 -452Q301 -452 273 -465Q243 -479 225 -479Q218 -479 202 -475Q197 -495 177 -495Q166 -495 143 -486Q147 -494 158 -504Q154 -509 149 -523Q144 -538 137 -543Q132 -548 123 -548Q106 -545 88 -535Q94 -549 124 -568Q121 -590 108 -598Q96 -594 83 -591H81Q91 -607 109 -616Q110 -620 110 -625Q110 -639 97 -654Q100 -672 120 -688Q118 -699 115 -711Q120 -709 125 -703Q132 -694 133 -693Q140 -697 149 -697Q156 -697 172 -691Q185 -686 194 -685Q196 -686 197 -692Q199 -700 204 -700V-684Q214 -679 223 -679Q227 -679 235 -681Q240 -688 245 -696Q249 -704 260 -705Q254 -695 248 -669Q250 -665 262 -660Q266 -665 269 -670L272 -669Q275 -669 275 -666Q274 -661 273 -656V-654Q298 -628 320 -603Q341 -579 353 -538Q354 -534 354 -527Q354 -520 349 -501Q344 -482 344 -468ZM731 -15V-10Q731 40 703 89L699 88Q694 88 687 95Q682 99 678 101Q657 96 615 88Q609 80 573 29Q582 28 591 26V19Q591 15 592 14Q577 0 555 -8Q533 -15 513 -25H516Q528 -25 550 -20Q576 -14 589 -14Q572 -28 534 -36Q485 -46 471 -52H481Q498 -52 529 -45Q560 -38 576 -38Q585 -38 589 -39Q578 -48 560 -51Q542 -53 522 -57Q502 -63 482 -69Q470 -71 459 -73Q448 -75 441 -83Q445 -84 453 -84Q470 -84 503 -74Q543 -62 560 -62Q579 -62 592 -70Q602 -132 608 -270Q605 -271 600 -271Q587 -270 575 -265Q563 -260 552 -256Q537 -255 524 -249Q516 -243 505 -227Q493 -209 484 -204Q463 -205 451 -214Q439 -223 426 -234Q413 -242 399 -249Q384 -257 380 -273V-278Q380 -288 388 -304Q394 -316 395 -321V-327Q392 -348 389 -370V-376Q393 -397 423 -406Q443 -426 469 -444Q492 -463 508 -466Q506 -459 493 -448Q477 -434 477 -421Q478 -418 478 -415Q547 -435 617 -450Q618 -455 618 -461Q615 -491 609 -520H605Q593 -520 574 -506Q560 -495 552 -494H550Q530 -497 511 -504Q503 -522 489 -535Q475 -548 462 -564Q463 -568 463 -572Q463 -584 454 -592Q448 -598 436 -603Q440 -605 441 -605Q447 -604 453 -603L457 -604Q455 -616 438 -626Q426 -634 422 -640H426Q437 -637 448 -634H451Q448 -642 426 -652Q410 -660 403 -666Q406 -668 412 -668Q423 -667 434 -666H438Q444 -666 458 -674Q474 -683 484 -685Q497 -688 509 -691L559 -706Q576 -713 592 -720H604Q616 -723 635 -733Q661 -747 674 -747Q680 -755 687 -760L691 -759Q697 -759 708 -767Q716 -773 719 -774Q721 -775 725 -775Q731 -774 736 -774Q740 -774 742 -775Q748 -777 754 -785Q758 -790 762 -792L765 -790Q763 -785 761 -780L762 -777Q766 -763 784 -763Q811 -767 829 -772V-771Q829 -766 820 -760Q810 -753 810 -747Q810 -743 811 -741L813 -738Q819 -741 824 -744H827Q818 -721 818 -711Q818 -697 831 -697H835Q831 -687 825 -678Q819 -669 818 -656V-652Q819 -639 819 -627Q819 -612 815 -603Q785 -595 752 -585Q719 -576 691 -559Q700 -546 712 -512Q721 -486 728 -474Q740 -476 751 -476Q758 -475 765 -475Q778 -485 813 -491Q845 -497 857 -507Q861 -511 867 -524Q872 -535 882 -538Q878 -531 878 -524Q878 -504 910 -504Q920 -504 925 -505Q924 -503 913 -496Q906 -491 906 -483V-480L909 -479Q914 -481 918 -483Q920 -483 922 -481Q914 -465 914 -462Q914 -454 925 -453Q916 -443 916 -424Q916 -406 922 -391Q924 -389 934 -389Q948 -388 950 -382Q927 -382 916 -367V-364Q917 -357 918 -351Q908 -343 897 -336H882Q803 -336 707 -304Q705 -240 705 -202Q705 -73 731 -15Z"/>
</svg>