<svg xmlns="http://www.w3.org/2000/svg" viewBox="0 -800 1024 1024">
	<path fill="#000000" d="M98 -86V-64Q88 -64 88 -77V-81Q96 -86 98 -86ZM892 -165Q891 -158 884 -148Q879 -141 877 -136Q874 -140 874 -149Q874 -166 886 -166Q890 -166 892 -165ZM474 -492V-491Q500 -497 531 -499Q558 -502 563 -521Q558 -522 547 -522Q504 -522 469 -501Q472 -496 474 -492ZM612 -637V-639Q558 -630 515 -611Q492 -603 477 -596Q455 -585 448 -570Q453 -566 460 -566Q479 -569 498 -578Q525 -586 551 -595Q569 -585 587 -575Q593 -578 594 -585Q595 -592 596 -599Q607 -622 612 -637ZM923 74V76Q921 90 910 100Q898 110 889 120Q883 118 880 118Q874 118 860 123Q849 127 842 127Q819 125 765 86Q726 63 692 42Q659 16 629 -13Q599 -43 560 -61Q551 -53 541 -33Q532 -14 526 -7Q518 0 510 7Q502 17 494 33Q483 55 476 62Q461 72 445 82Q435 72 421 72Q409 72 402 82L401 80Q405 75 408 70Q405 65 386 43Q386 25 374 15Q377 10 380 4Q368 -20 347 -34Q326 -49 309 -67Q333 -53 359 -45Q363 -44 370 -44Q385 -44 399 -57Q405 -63 424 -87Q464 -139 486 -180Q493 -191 502 -205Q510 -219 511 -233Q511 -243 503 -251Q493 -241 471 -230Q451 -220 446 -216Q421 -194 396 -167Q388 -159 376 -143Q360 -121 351 -114Q338 -106 325 -98Q291 -67 256 -19Q250 -11 196 71Q198 74 198 78Q195 86 192 94V96H191Q187 96 184 92Q181 87 178 87Q173 88 171 97Q170 104 168 105Q161 100 146 98Q126 95 119 90Q108 82 102 68Q96 55 88 40Q86 24 86 15Q86 -5 97 -56Q104 -51 106 -41Q115 -68 119 -132Q122 -182 125 -199Q132 -138 138 -77Q143 -90 147 -104Q148 -103 156 -79Q218 -101 261 -142Q304 -185 354 -221Q334 -229 322 -245V-246Q321 -250 320 -255L322 -258Q319 -264 305 -276Q288 -290 285 -300Q283 -305 283 -313Q283 -340 318 -354Q318 -357 317 -360Q317 -371 327 -380Q337 -388 348 -389H349Q356 -389 367 -383Q379 -377 384 -377H387Q389 -377 440 -386Q564 -406 599 -413Q582 -434 554 -444Q537 -436 493 -425Q443 -413 426 -401Q403 -409 390 -434H378Q374 -455 364 -470Q353 -485 343 -500L340 -501Q338 -500 335 -500H333Q323 -516 303 -521Q282 -526 261 -532V-539Q253 -539 251 -541Q246 -547 232 -570Q216 -594 210 -607Q197 -633 197 -655Q197 -659 199 -671Q201 -680 213 -694Q226 -709 227 -717V-723Q224 -744 220 -765Q220 -771 221 -774Q228 -770 229 -761Q230 -751 232 -743Q237 -726 244 -714Q246 -717 246 -723Q244 -738 241 -753V-755Q247 -751 252 -736Q258 -717 266 -714Q267 -716 267 -719Q265 -727 262 -735Q262 -738 263 -740Q280 -720 315 -706Q334 -698 380 -685Q411 -704 450 -716Q490 -728 532 -740Q584 -757 612 -764Q629 -768 655 -780Q690 -796 710 -799Q714 -799 717 -800H719Q731 -798 752 -772Q768 -753 774 -749Q776 -751 780 -751Q785 -751 785 -749L787 -747Q785 -742 783 -738Q783 -735 785 -734Q803 -742 822 -746Q827 -746 830 -745Q821 -738 810 -731Q799 -725 798 -714Q798 -709 799 -707Q808 -711 825 -713Q816 -705 816 -688Q816 -667 827 -645Q818 -631 818 -599H806Q750 -599 745 -563Q743 -566 741 -570Q711 -551 689 -509Q679 -490 657 -429Q699 -439 735 -444Q734 -441 734 -437Q734 -433 738 -425Q765 -430 791 -435Q784 -429 776 -423Q768 -418 767 -406Q767 -401 768 -398Q778 -400 788 -403Q776 -391 776 -379Q776 -371 787 -368Q771 -335 760 -299Q738 -301 728 -301Q694 -301 604 -284Q605 -282 609 -280Q613 -278 613 -275V-272Q613 -261 626 -246Q640 -230 640 -218V-216Q640 -199 624 -177Q601 -146 599 -142Q644 -101 751 -61Q794 -44 815 -44H818Q825 -67 831 -90Q834 -85 834 -70V-54Q834 -38 839 -33Q845 -116 857 -194Q857 -191 860 -59Q864 -74 865 -92Q866 -111 876 -120Q874 -84 874 -73Q874 -65 876 -45Q878 -31 895 -6Q907 12 911 24Q914 37 917 49Q920 62 923 74Z"/>
</svg>