<svg xmlns="http://www.w3.org/2000/svg" viewBox="0 -800 1024 1024">
	<path fill="#000000" d="M777 -654H781Q777 -645 776 -643Q772 -639 764 -639Q764 -654 777 -654ZM876 -171V-174Q876 -181 881 -189Q886 -196 891 -196Q895 -196 899 -191Q891 -178 876 -171ZM805 -532H808Q806 -527 798 -520Q789 -512 785 -506Q779 -493 773 -478Q767 -463 755 -456Q751 -454 711 -452Q659 -448 613 -437Q566 -425 517 -414Q459 -400 409 -384Q356 -367 337 -359Q329 -356 316 -343Q297 -324 284 -324H279Q264 -332 249 -340Q232 -346 221 -356Q212 -365 212 -383Q212 -393 216 -407Q213 -417 207 -423Q209 -444 218 -466Q221 -471 232 -477Q243 -483 248 -489Q267 -515 280 -552Q288 -567 297 -583Q306 -600 307 -615Q307 -627 297 -636H291Q268 -634 252 -624Q273 -648 292 -679Q297 -695 304 -710Q315 -721 329 -730Q335 -736 343 -747Q353 -761 359 -764Q372 -766 384 -768Q413 -777 439 -782Q452 -782 461 -774Q472 -761 476 -737Q482 -727 491 -714Q501 -702 502 -682Q502 -677 501 -673Q498 -657 484 -643Q470 -628 461 -615Q429 -561 413 -536H417Q418 -536 433 -541H438Q478 -546 525 -561Q641 -589 680 -602Q702 -610 717 -618Q733 -627 745 -631L748 -630L750 -627Q750 -625 746 -620Q741 -614 741 -609V-608Q743 -593 769 -593Q778 -593 796 -603Q815 -613 824 -613Q829 -613 835 -610Q831 -603 808 -595Q779 -585 779 -574V-570Q782 -562 788 -562Q806 -568 824 -574Q828 -574 829 -573Q818 -563 805 -554Q793 -546 788 -528L791 -526Q795 -529 805 -532ZM817 -45H819Q823 -45 832 -51Q831 -46 827 -36Q819 -19 819 -10Q819 0 824 7Q816 38 813 74Q810 110 785 125Q744 121 719 102Q706 91 692 79Q671 60 650 37Q620 10 590 -18Q577 -28 564 -38Q554 -49 545 -60Q536 -71 522 -75Q514 -88 501 -96Q488 -104 476 -113Q406 -59 370 -23Q315 32 288 90Q280 94 271 94Q262 94 253 93Q244 93 240 95L239 92Q239 89 242 86Q233 80 211 76Q191 73 183 65V61Q182 48 176 35Q170 22 166 10Q162 -7 162 -22Q162 -38 153 -51H156Q161 -51 166 -41Q171 -30 177 -29Q171 -49 154 -81Q132 -121 127 -140Q141 -125 157 -97Q179 -59 193 -47Q192 -61 180 -78Q170 -92 168 -101H170Q179 -98 186 -84Q198 -68 205 -62Q224 -66 237 -78Q250 -90 263 -102Q286 -118 308 -134Q323 -149 339 -164Q354 -180 374 -191Q356 -203 349 -227Q341 -251 332 -274Q335 -279 341 -286Q351 -297 353 -305Q386 -304 407 -291Q428 -278 452 -268Q468 -290 484 -312Q484 -352 466 -365Q482 -365 498 -369L499 -372Q499 -375 496 -377Q503 -377 516 -385Q525 -391 531 -392Q551 -396 560 -396Q590 -396 610 -381Q631 -365 631 -337Q631 -332 630 -327Q637 -320 637 -306Q636 -290 635 -275Q635 -267 636 -263Q624 -251 597 -233Q562 -210 550 -194Q565 -181 569 -171Q613 -140 653 -107Q661 -107 673 -97Q682 -89 687 -87Q696 -85 704 -83Q711 -78 718 -73Q725 -67 735 -67H739Q746 -68 758 -77Q766 -83 771 -83H772V-80Q772 -77 768 -71Q763 -63 763 -57Q776 -63 784 -77Q811 -110 841 -144V-142Q841 -131 834 -123Q828 -116 821 -108Q797 -78 791 -48Q807 -63 832 -104Q857 -145 873 -161Q867 -145 847 -113Q821 -72 817 -45Z"/>
</svg>