<svg xmlns="http://www.w3.org/2000/svg" viewBox="0 -800 1024 1024">
	<path fill="#000000" d="M96 -478Q94 -474 77 -462Q77 -464 76 -467Q76 -481 87 -481Q92 -481 96 -478ZM80 -553V-551Q72 -549 63 -547H61Q59 -551 56 -556V-559Q62 -561 69 -561Q80 -561 80 -553ZM921 -151V-154Q921 -175 934 -175Q938 -175 942 -172Q939 -156 921 -151ZM718 -517V-554H717Q704 -554 695 -544Q687 -535 687 -522Q687 -513 689 -508Q704 -512 718 -517ZM561 -375L640 -390Q630 -397 620 -403Q609 -409 604 -423Q600 -434 600 -448Q603 -480 606 -512Q606 -517 605 -523Q596 -526 590 -526Q567 -524 563 -502Q560 -478 560 -443Q561 -409 561 -375ZM401 6H419Q427 -12 439 -34Q450 -56 471 -58Q475 -57 478 -57Q489 -55 502 -36Q512 -21 518 -18Q532 -27 545 -37Q536 -21 535 6Q534 33 530 56Q520 69 511 81Q502 93 487 100Q470 91 455 81Q451 82 435 89Q439 83 441 71Q441 67 440 64Q416 70 401 84Q408 69 425 56Q423 47 420 38Q420 36 422 32Q412 19 401 6ZM215 -229H213Q204 -242 192 -253Q190 -254 186 -254Q170 -250 163 -246V-247Q166 -256 173 -261Q168 -274 161 -286Q155 -298 154 -312Q154 -319 157 -328Q157 -332 153 -335Q150 -337 150 -340Q162 -344 173 -349Q170 -364 166 -379V-382Q175 -367 177 -365Q184 -357 195 -357H196Q210 -359 224 -362Q227 -361 230 -361Q236 -359 242 -352Q251 -363 260 -363H265Q263 -357 252 -340Q274 -307 277 -301Q289 -277 289 -254Q289 -241 287 -235Q266 -224 262 -213L258 -212Q251 -214 244 -217Q242 -217 240 -214Q235 -220 230 -224Q225 -229 215 -229ZM864 84H858Q849 84 844 88Q824 75 804 61Q783 47 754 42L753 40Q755 37 757 33Q727 -12 718 -82L726 -78Q729 -96 746 -106H748Q766 -110 783 -114H785Q786 -114 810 -105H811Q815 -107 818 -109H820Q822 -95 832 -82Q836 -78 839 -78Q842 -78 849 -83Q858 -89 864 -91L865 -87Q865 -83 860 -75Q854 -66 854 -61Q854 -60 856 -54Q867 -66 889 -101Q900 -118 911 -133Q901 -110 886 -83Q872 -56 870 -29V-27Q880 -42 890 -58H891Q895 -56 899 -54Q883 -33 878 -7Q878 -2 879 1Q883 1 884 -4Q886 -9 888 -9H891Q875 34 864 84ZM298 -460H297Q287 -460 274 -446Q265 -436 259 -435H256Q252 -436 247 -437Q245 -436 243 -435Q231 -444 195 -458Q147 -477 132 -498H128Q116 -498 108 -490V-492Q112 -503 122 -513Q115 -527 103 -527Q95 -527 75 -517Q56 -507 48 -507Q56 -517 81 -527Q100 -535 107 -540Q105 -552 102 -556H90Q94 -563 94 -570Q93 -584 81 -592Q69 -601 59 -609Q73 -604 87 -600Q105 -613 126 -625Q122 -631 122 -638V-640Q129 -633 135 -624Q139 -626 141 -626Q149 -625 156 -624H159Q163 -631 181 -672V-668Q182 -666 182 -662Q182 -645 178 -627Q182 -619 189 -614Q196 -609 203 -603Q209 -604 217 -612Q224 -619 231 -620Q223 -613 223 -606Q223 -596 235 -589Q247 -582 258 -582Q263 -582 265 -583V-573Q275 -556 286 -537Q296 -518 297 -494Q297 -488 295 -478Q297 -469 298 -460ZM201 72H197Q170 68 148 54Q137 51 122 47Q108 42 101 33Q98 29 98 20V3Q97 -3 90 -22Q83 -40 83 -49V-51Q88 -84 113 -120Q132 -155 154 -178Q170 -194 182 -196Q171 -180 156 -165Q142 -150 139 -127Q143 -128 148 -138Q157 -155 166 -156V-155Q162 -147 158 -132Q158 -128 159 -127H163Q185 -130 206 -143Q274 -179 351 -193Q334 -187 331 -172Q331 -164 342 -160Q342 -156 341 -153Q341 -143 350 -129Q360 -114 360 -102Q372 -105 384 -108Q384 -103 378 -103Q372 -104 367 -102Q353 -94 353 -81Q353 -77 354 -75Q267 -50 228 20Q231 22 231 32Q231 41 234 44Q226 51 219 61Q212 70 201 72ZM694 67V72Q691 85 683 93Q674 101 665 109Q656 104 635 100Q614 96 605 89Q592 78 586 61Q581 44 572 27L576 11Q571 2 561 -2Q567 -8 581 -13Q586 -69 591 -126Q580 -130 568 -130Q549 -129 531 -120Q513 -111 492 -100Q465 -90 446 -74Q430 -82 414 -89Q398 -97 388 -111Q388 -115 387 -120Q390 -148 398 -172Q398 -180 397 -188Q397 -193 398 -195Q400 -210 417 -232Q432 -251 435 -264Q437 -248 438 -232Q447 -226 461 -226Q474 -226 518 -237Q551 -244 584 -252Q581 -270 572 -285Q558 -285 543 -265Q531 -250 523 -246Q508 -252 495 -262Q485 -267 468 -271Q452 -276 447 -286Q443 -299 443 -320Q443 -338 449 -381Q455 -424 455 -446Q455 -479 444 -502H439Q429 -502 415 -489Q403 -478 395 -477H391Q377 -477 355 -492Q337 -505 327 -507Q326 -519 326 -546Q326 -639 376 -649Q373 -644 373 -636Q373 -624 378 -616Q396 -621 434 -627Q437 -631 437 -638Q436 -649 434 -661V-664L435 -667Q439 -664 443 -661Q446 -664 449 -670Q454 -679 458 -681H465Q484 -681 502 -676V-679Q502 -683 499 -686Q495 -690 495 -691V-692Q498 -693 504 -693Q525 -692 539 -679Q552 -666 564 -654Q563 -651 561 -649V-648Q568 -650 577 -655Q586 -659 599 -660H601Q597 -673 591 -684Q595 -706 616 -723Q636 -739 656 -739Q691 -739 691 -692V-684Q705 -692 708 -695Q704 -700 704 -709Q704 -730 724 -752Q745 -775 764 -775Q776 -775 783 -765H784Q787 -767 790 -769L791 -768V-766Q791 -753 802 -737Q809 -726 811 -718L844 -736Q849 -733 853 -733Q862 -733 872 -741Q868 -729 868 -724Q868 -716 872 -712H905Q891 -706 891 -689Q891 -674 900 -658H911Q896 -655 896 -639Q896 -634 899 -628Q902 -630 903 -635Q901 -620 892 -608Q883 -596 875 -585Q832 -584 826 -583Q802 -580 789 -567V-532Q789 -511 795 -504Q789 -446 772 -429H758Q728 -429 712 -425Q690 -419 684 -403Q689 -402 693 -402Q728 -406 760 -417Q764 -417 764 -410V-405H765Q769 -405 772 -410Q775 -415 778 -415H780Q778 -405 776 -396V-394Q791 -403 808 -421Q807 -416 798 -402Q787 -384 786 -376Q787 -372 791 -372Q795 -372 796 -374Q791 -358 790 -337Q789 -315 775 -303Q738 -311 726 -311Q706 -311 696 -300Q707 -288 709 -274Q709 -271 708 -268H711Q715 -268 717 -271Q718 -274 720 -276Q738 -281 757 -283Q764 -283 767 -282Q785 -295 813 -295V-293Q813 -286 823 -274Q837 -283 850 -283Q857 -283 861 -280Q840 -273 836 -253Q836 -241 852 -240Q841 -218 841 -206Q841 -198 846 -190Q840 -164 825 -148Q774 -154 758 -154Q711 -154 694 -138Q691 -102 691 -54Q691 -4 697 21Q692 29 692 39Q693 53 694 67Z"/>
</svg>