<svg xmlns="http://www.w3.org/2000/svg" viewBox="0 -800 1024 1024">
	<path fill="#000000" d="M366 -30Q376 -24 376 -10Q375 4 374 17V20Q366 28 357 47Q347 69 340 75Q301 74 273 21Q271 11 268 0Q260 -15 255 -27H256Q260 -26 264 -26L265 -27V-28Q265 -38 251 -45Q242 -50 239 -54H243Q264 -55 270 -72Q279 -132 288 -192Q261 -172 240 -145Q219 -119 198 -93Q155 -41 139 11H133Q119 11 104 -1Q91 -12 80 -12Q82 -16 82 -24Q82 -36 69 -54Q57 -71 57 -79Q57 -86 63 -94Q59 -110 45 -131Q34 -148 31 -154Q40 -154 53 -138Q65 -123 77 -123H78Q95 -124 114 -138Q132 -151 146 -163Q171 -183 208 -221Q237 -250 252 -264Q275 -286 280 -292Q294 -309 294 -327Q238 -308 199 -276Q188 -266 179 -256Q170 -245 155 -240Q123 -244 103 -264Q96 -276 89 -289Q76 -296 62 -303Q51 -311 46 -320Q40 -330 34 -341Q37 -365 40 -390Q48 -403 55 -416Q58 -436 63 -454Q72 -468 88 -479Q105 -490 117 -501Q144 -530 173 -545L174 -543Q174 -541 164 -531Q129 -491 124 -483Q129 -484 137 -494Q148 -508 157 -508Q154 -500 151 -492Q155 -483 163 -483Q177 -485 190 -488Q197 -488 202 -482L218 -495Q219 -509 250 -519Q271 -526 291 -533Q294 -551 294 -565Q294 -601 268 -655Q272 -683 286 -709Q298 -732 310 -756Q321 -772 336 -772Q341 -772 344 -771Q366 -764 403 -721Q436 -681 436 -653V-648Q435 -642 428 -630Q418 -613 418 -604Q418 -597 421 -591Q431 -592 450 -603Q466 -613 472 -613Q472 -608 464 -603Q459 -600 458 -598Q457 -596 457 -592Q458 -585 458 -578H460Q462 -578 477 -587Q472 -578 468 -559Q468 -554 471 -548Q472 -549 473 -553Q474 -556 477 -556H480Q478 -548 478 -530Q480 -497 482 -464Q482 -422 458 -401Q431 -398 409 -388Q386 -379 365 -369Q363 -364 363 -350V-324Q373 -315 391 -313Q397 -316 402 -325Q409 -338 418 -339Q410 -324 406 -304Q406 -295 414 -291Q427 -298 438 -307Q449 -316 468 -318Q458 -307 442 -299Q426 -290 424 -275Q424 -270 427 -264Q435 -269 445 -271Q449 -271 451 -270Q440 -263 434 -250Q437 -243 440 -237V-234Q437 -221 434 -209Q438 -199 442 -189V-186Q436 -190 430 -195Q417 -173 393 -173Q379 -173 368 -180Q365 -169 365 -158Q369 -122 373 -86Q373 -80 371 -68ZM438 -358V-356Q434 -346 422 -343H420V-345Q423 -360 435 -364Q438 -364 438 -358ZM644 -278Q652 -260 652 -248Q652 -243 651 -239Q636 -216 620 -193Q659 -208 695 -215Q702 -238 702 -257Q702 -266 701 -271Q705 -269 712 -263Q722 -254 729 -254Q731 -254 737 -256Q745 -268 759 -278Q750 -264 750 -252Q750 -244 755 -240Q769 -243 783 -247H784Q773 -242 773 -227Q773 -213 784 -210Q810 -315 826 -392L822 -394Q730 -356 657 -295Q655 -289 644 -278ZM550 -233Q546 -232 541 -232Q535 -232 517 -237Q508 -266 494 -286Q485 -286 478 -270Q480 -288 476 -326Q472 -371 476 -393Q510 -457 547 -510L555 -532Q552 -537 553 -542V-544Q555 -552 553 -555Q557 -563 559 -573Q564 -603 559 -635Q554 -673 537 -674Q532 -670 519 -667Q531 -684 548 -695Q564 -707 580 -721Q607 -751 635 -780H638Q664 -779 679 -764Q694 -750 707 -735Q724 -731 732 -718Q740 -705 749 -692Q746 -687 746 -673V-647Q678 -560 651 -449Q659 -452 666 -457Q673 -462 685 -463H691L722 -466Q723 -483 738 -492Q753 -501 767 -509Q782 -516 796 -524Q817 -540 844 -552Q846 -562 848 -572Q856 -566 864 -561Q869 -564 873 -567H875Q876 -555 885 -546Q893 -538 904 -538H906Q916 -539 928 -558Q941 -578 952 -578Q948 -569 942 -561Q937 -553 936 -540V-533Q939 -537 941 -543Q942 -548 948 -549H949Q944 -533 942 -518Q942 -512 943 -509H944Q948 -509 949 -513V-509Q949 -480 966 -466Q972 -475 977 -475Q979 -474 981 -473Q972 -464 972 -441Q972 -425 978 -416Q973 -403 972 -385Q955 -382 947 -371Q938 -359 934 -344Q927 -310 913 -285L898 -218Q897 -183 888 -149Q879 -116 870 -83Q868 -73 866 -61Q864 -50 856 -43L857 -32V-26Q857 -19 866 -3Q853 33 851 48Q845 50 839 52Q817 86 810 95Q793 115 771 126Q760 116 739 114H736Q735 103 720 89Q709 78 706 71Q704 54 692 43Q659 29 656 19Q671 24 688 26H692Q675 2 617 -17H626Q656 -17 687 1Q673 -12 633 -26Q599 -38 585 -49Q601 -49 644 -36Q686 -22 695 -22Q711 -22 721 -35Q730 -49 736 -69Q742 -89 748 -105Q741 -113 732 -120Q723 -126 721 -140Q679 -128 623 -111Q568 -93 543 -64Q526 -81 512 -81Q506 -102 503 -108Q497 -119 484 -124L483 -127Q486 -133 488 -139V-140Q484 -149 475 -149Q520 -180 550 -233Z"/>
</svg>