<svg xmlns="http://www.w3.org/2000/svg" viewBox="0 -800 1024 1024">
	<path fill="#000000" d="M325 -262Q317 -253 309 -245Q307 -249 307 -251Q309 -263 319 -264Q323 -264 325 -262ZM941 -770Q935 -760 919 -754L918 -758Q918 -764 924 -769Q930 -774 935 -774Q940 -774 941 -770ZM51 -439H50V-441Q50 -460 69 -460H74Q69 -458 65 -448Q61 -439 58 -437Q55 -438 51 -439ZM651 -445Q647 -443 646 -443Q641 -445 636 -448Q563 -428 536 -403Q524 -395 520 -381Q520 -377 523 -374Q577 -391 628 -400Q640 -422 651 -445ZM535 -97V-95Q536 -90 537 -85Q537 -83 535 -81Q541 -80 553 -80Q566 -80 571 -81Q569 -95 569 -103Q572 -139 575 -175V-179Q571 -235 554 -286V-287H553Q540 -282 526 -276Q513 -271 507 -259Q547 -229 559 -160Q553 -149 553 -133Q543 -116 535 -97ZM673 -529H682Q692 -557 702 -586Q649 -565 595 -544Q585 -540 547 -520Q538 -516 526 -509Q514 -502 513 -491Q513 -489 515 -483Q529 -485 584 -506Q626 -525 673 -529ZM436 -104V-98Q423 -85 404 -85Q380 -85 356 -100Q353 -110 332 -131Q305 -158 305 -173Q305 -185 318 -198Q316 -207 313 -216Q317 -215 321 -211Q326 -206 331 -206Q335 -206 337 -207Q343 -212 348 -227Q354 -244 360 -248Q363 -246 363 -240Q363 -236 359 -220Q364 -212 372 -210Q377 -215 380 -223Q383 -231 392 -232Q387 -224 387 -212Q387 -196 399 -189Q405 -192 410 -195H412V-194Q410 -189 408 -185Q423 -160 437 -135Q435 -132 435 -125Q436 -114 436 -104ZM232 -248H231Q228 -247 224 -247H223Q215 -250 201 -260Q186 -270 175 -271H174Q168 -271 161 -263Q154 -256 147 -255Q153 -267 162 -279Q157 -290 148 -296Q140 -302 131 -308Q123 -325 115 -340Q108 -355 107 -374Q112 -377 122 -390Q134 -405 144 -409H149Q167 -411 184 -414Q193 -414 199 -409H200Q205 -411 209 -414Q222 -375 258 -368V-359Q267 -365 276 -368H279Q270 -359 270 -351Q272 -341 273 -331V-311Q278 -299 282 -286Q277 -269 268 -255Q259 -246 245 -244Q239 -246 232 -248ZM270 -189H271Q278 -192 285 -196Q282 -187 276 -179Q281 -164 285 -151Q285 -146 283 -142Q289 -136 294 -130Q287 -122 287 -107Q287 -95 291 -73Q242 -46 215 -18Q179 19 171 69Q151 74 142 74Q123 74 115 63Q107 59 86 57Q68 55 61 50Q45 34 35 11Q34 5 34 -8Q34 -20 35 -26Q40 -40 45 -55V-58Q45 -64 44 -70V-73Q46 -89 56 -99Q67 -108 76 -117Q97 -148 107 -152Q102 -142 102 -134Q102 -119 115 -115Q169 -137 213 -173Q258 -208 301 -238L302 -235Q302 -230 293 -224Q280 -216 279 -214Q269 -204 269 -194Q270 -191 270 -189ZM953 -39V-33Q953 -29 959 -13Q957 -3 955 6Q956 9 956 12Q939 20 933 36Q926 53 916 66Q896 55 863 52Q806 44 748 35Q702 32 656 32Q562 32 495 47L415 68Q396 74 382 83Q368 92 353 100Q337 97 321 92Q305 87 297 75Q293 59 286 43Q284 39 276 32Q266 23 265 17Q262 8 262 0Q262 -19 282 -41Q293 -53 317 -66Q327 -71 356 -86L357 -84Q353 -76 348 -69Q355 -62 365 -62Q384 -65 402 -69Q407 -70 418 -70H441Q457 -70 465 -73Q468 -70 473 -70Q480 -70 483 -73Q478 -91 473 -111Q469 -130 460 -145V-149Q460 -157 459 -165Q459 -169 460 -170Q448 -184 442 -203Q437 -222 430 -235L432 -236Q435 -236 439 -232Q446 -248 468 -253Q453 -270 437 -279Q404 -329 400 -367Q387 -440 335 -474Q331 -458 319 -443Q305 -425 291 -425H289Q283 -428 276 -431Q263 -435 248 -440Q232 -446 224 -455H214Q201 -479 187 -480H184Q173 -476 162 -473L158 -474Q159 -478 164 -482Q172 -488 172 -493Q164 -509 149 -509Q134 -508 119 -498Q104 -488 92 -480V-481Q97 -491 113 -503Q127 -515 140 -527Q126 -555 97 -559V-560Q97 -566 105 -569Q112 -571 113 -575Q107 -588 95 -588Q78 -588 50 -566Q53 -579 73 -591Q98 -606 103 -612Q98 -618 87 -618H67Q72 -624 88 -629Q108 -635 110 -646V-649Q109 -659 102 -667Q94 -675 89 -684Q96 -684 107 -676Q119 -667 126 -666Q128 -670 128 -674V-679Q128 -689 132 -690Q136 -685 138 -680Q141 -675 146 -672Q177 -668 187 -661Q197 -661 201 -673Q206 -686 212 -687Q214 -683 214 -681Q213 -674 211 -668V-666Q214 -653 228 -652Q242 -652 258 -649Q265 -635 297 -608Q324 -585 327 -562Q337 -580 340 -596Q343 -613 360 -622Q362 -635 363 -649Q368 -648 370 -642Q372 -634 377 -634L381 -635V-639Q380 -652 378 -665Q378 -673 381 -676Q387 -669 391 -658Q395 -648 405 -644Q415 -646 419 -646Q437 -646 448 -638Q471 -648 490 -651Q494 -650 497 -650Q499 -654 501 -658Q512 -658 530 -666Q546 -673 554 -673H556Q579 -684 607 -692Q635 -699 667 -710Q688 -718 708 -727Q737 -732 754 -741Q768 -751 781 -764Q795 -777 814 -778H819Q829 -776 839 -765Q852 -751 857 -748Q860 -747 866 -746Q875 -745 878 -741Q896 -748 916 -753Q899 -743 892 -721Q892 -713 904 -713H905Q905 -710 904 -707Q904 -700 910 -691Q915 -684 916 -678Q921 -681 929 -681Q927 -673 927 -672Q927 -669 928 -667Q937 -673 957 -678Q957 -675 949 -668Q938 -659 938 -649Q939 -646 939 -644Q939 -641 948 -641V-639Q948 -629 943 -614Q938 -599 938 -591Q938 -587 939 -584Q925 -583 920 -565Q877 -562 844 -521Q828 -501 797 -443Q761 -361 736 -282H735Q732 -282 729 -290Q724 -285 715 -285Q699 -285 683 -293Q684 -282 695 -258Q707 -232 707 -217V-214Q706 -205 694 -185Q660 -126 657 -88L661 -87Q670 -87 676 -89Q675 -93 671 -96Q667 -99 667 -103Q715 -144 762 -204Q784 -231 784 -243V-245Q783 -250 778 -253Q774 -256 772 -258Q766 -269 760 -280H763Q769 -279 775 -279Q779 -279 781 -280L782 -282Q780 -286 778 -291V-292Q782 -290 791 -290Q805 -290 828 -304Q848 -316 857 -316H860Q869 -315 879 -301Q887 -289 893 -286Q898 -286 903 -290Q907 -293 911 -293L914 -292Q913 -288 911 -285V-283Q919 -295 938 -301Q920 -283 920 -268Q920 -258 931 -255Q928 -250 928 -247Q932 -235 939 -223Q938 -218 937 -213L938 -210V-209Q941 -199 945 -193V-188Q945 -181 938 -158Q917 -158 904 -147Q865 -144 837 -128Q808 -111 780 -92Q814 -86 836 -86Q877 -86 893 -103Q901 -100 914 -75H917Q928 -73 939 -72Q944 -72 947 -73L948 -71Q944 -67 939 -64Q941 -55 945 -47L947 -46Q950 -47 953 -48L956 -47L958 -46Q956 -42 953 -39Z"/>
</svg>