<svg xmlns="http://www.w3.org/2000/svg" viewBox="0 -800 1024 1024">
	<path fill="#000000" d="M909 -540H912Q912 -524 899 -522Q898 -524 898 -528Q898 -540 909 -540ZM571 -57V-62Q571 -68 573 -69Q588 -66 591 -51L587 -50Q585 -50 571 -57ZM743 -514Q708 -502 699 -497Q675 -483 675 -456Q676 -451 676 -447Q702 -453 716 -473Q729 -492 744 -511ZM734 -328Q750 -333 753 -340Q731 -338 710 -329Q690 -321 672 -316Q665 -315 658 -314Q650 -313 648 -304Q666 -301 675 -287Q683 -274 694 -265Q705 -280 718 -292Q731 -304 734 -328ZM320 68H316Q308 68 298 59Q288 50 279 49Q274 37 269 27Q263 17 249 14Q262 8 262 -3Q258 -27 237 -36L239 -39Q243 -38 246 -37H247Q209 -53 168 -61Q172 -62 179 -62Q206 -59 232 -57Q251 -57 260 -67Q266 -85 273 -144Q262 -142 256 -134Q249 -127 244 -118Q236 -98 213 -95Q206 -95 202 -96Q188 -102 170 -115Q147 -122 139 -136Q140 -145 146 -160Q153 -179 153 -188Q153 -199 145 -210H150Q154 -210 155 -211Q185 -233 220 -249Q255 -265 290 -282Q291 -308 297 -354Q269 -339 241 -325Q213 -314 186 -295Q173 -283 163 -268Q153 -253 134 -247Q117 -254 100 -262Q90 -275 79 -288Q66 -298 50 -308Q33 -318 29 -337V-342Q29 -352 39 -377Q47 -397 49 -408Q53 -448 72 -474Q94 -498 114 -511Q110 -498 106 -486Q106 -480 112 -477Q115 -478 118 -486Q121 -494 125 -494L128 -493L130 -492Q128 -487 126 -482Q126 -478 130 -477Q174 -492 221 -511Q268 -529 318 -543Q320 -575 320 -594Q296 -616 296 -644V-653Q322 -691 370 -691Q382 -691 395 -688Q408 -661 422 -635Q437 -610 438 -576V-571H440Q445 -571 454 -576Q461 -580 467 -580Q469 -580 475 -578Q464 -567 464 -556Q464 -549 472 -549Q476 -549 478 -550Q471 -543 471 -529Q471 -503 485 -493Q478 -483 477 -467Q477 -450 475 -434Q470 -430 465 -427Q459 -425 459 -418V-417Q436 -412 411 -405Q387 -399 368 -384V-377Q366 -353 363 -330Q363 -323 364 -319Q373 -321 389 -329Q408 -338 420 -340Q405 -330 394 -313Q396 -310 398 -310Q405 -312 411 -315H414Q414 -313 409 -308Q404 -302 404 -296Q404 -292 405 -289L407 -288Q410 -288 412 -289H414Q414 -284 409 -272Q405 -263 405 -257V-255Q405 -251 411 -245Q416 -240 416 -235V-234Q403 -222 386 -213Q370 -204 355 -195Q354 -188 354 -173Q354 -146 362 -89Q367 -57 368 -36Q370 -13 372 10Q372 18 371 21Q370 26 360 35Q349 45 348 46Q336 59 320 68ZM894 -75H885Q841 -73 816 -36Q790 0 770 44Q747 95 712 116Q706 118 702 118Q676 118 650 101Q638 91 631 78Q623 65 605 62Q602 51 597 45V44Q597 41 601 39Q604 38 604 35Q595 13 561 -15Q536 -36 527 -49Q552 -34 598 2Q587 -11 557 -38Q526 -65 512 -84Q527 -77 560 -50Q594 -23 616 -12V-13Q616 -20 606 -27Q594 -36 594 -43Q605 -41 618 -29Q632 -17 642 -15Q681 -31 702 -66Q722 -100 744 -133Q739 -134 730 -134Q703 -134 673 -117Q661 -110 627 -86Q615 -91 602 -96Q601 -105 591 -119Q583 -129 582 -133Q581 -136 581 -142V-144Q581 -154 576 -159Q609 -205 609 -239Q609 -248 608 -253Q585 -235 566 -211Q546 -187 526 -163Q509 -136 491 -109Q478 -95 463 -75Q456 -62 449 -51Q443 -41 431 -34Q390 -43 380 -63V-72Q380 -81 374 -81H373Q373 -104 385 -162L386 -164Q389 -161 392 -159Q397 -167 400 -185Q402 -202 405 -207Q409 -199 409 -189Q410 -180 419 -174Q434 -180 437 -180Q449 -193 463 -205Q476 -217 485 -234Q480 -238 469 -241Q453 -246 448 -253Q445 -261 442 -270Q439 -273 435 -276Q426 -306 423 -340Q422 -348 420 -357Q422 -367 430 -373Q438 -379 442 -385Q493 -393 533 -405Q572 -418 616 -430Q614 -433 614 -441V-456Q592 -447 576 -434Q541 -440 525 -464Q509 -489 493 -512Q495 -534 497 -557Q497 -580 485 -589H496Q503 -597 526 -603Q546 -608 567 -617Q588 -626 614 -627V-630Q616 -648 618 -667Q618 -673 617 -676Q612 -684 607 -693Q606 -698 605 -703Q598 -712 590 -721Q583 -730 582 -744Q584 -764 601 -779Q631 -817 660 -817Q672 -817 684 -808Q691 -801 698 -785Q704 -770 709 -759Q727 -727 727 -704Q727 -687 719 -672H724Q741 -673 756 -679Q770 -685 785 -690Q783 -684 776 -678Q768 -671 767 -666Q769 -663 772 -663Q781 -665 789 -667Q785 -659 785 -649Q785 -630 798 -621V-604Q817 -621 827 -643Q829 -651 829 -654Q827 -668 825 -682Q825 -687 826 -690Q828 -699 848 -709Q866 -718 879 -719H882Q891 -719 911 -711Q931 -703 945 -703H953V-700Q952 -697 950 -694V-693Q954 -687 960 -687H967Q961 -679 961 -673Q964 -658 967 -644V-642Q966 -627 959 -614Q952 -602 947 -589Q902 -580 864 -547Q850 -535 804 -483Q825 -490 848 -493Q859 -500 869 -507Q879 -514 893 -517Q890 -506 887 -496Q887 -491 890 -487H892Q898 -487 911 -492Q921 -496 928 -496Q933 -496 936 -495Q925 -488 915 -483Q905 -478 904 -462V-460H905Q910 -462 915 -465H916V-463Q916 -460 910 -450Q903 -438 903 -432Q903 -424 916 -420Q913 -417 913 -410Q914 -400 915 -391V-388Q911 -375 894 -372Q877 -370 860 -367Q815 -355 800 -346Q805 -345 813 -339Q822 -332 829 -332Q833 -332 836 -333Q844 -293 844 -286Q844 -263 830 -255H824Q800 -254 780 -246Q760 -238 741 -229Q723 -222 705 -214Q687 -207 681 -190Q713 -195 758 -207Q769 -211 781 -216Q792 -221 804 -222H807Q820 -221 829 -213Q838 -205 847 -196Q860 -202 875 -207Q872 -199 869 -192Q869 -190 872 -187H876Q881 -187 893 -193Q904 -198 912 -199Q906 -189 897 -182Q889 -175 887 -162L889 -160Q894 -163 899 -166L901 -165Q903 -163 903 -160Q901 -152 899 -145V-144Q899 -139 905 -125Q910 -113 910 -106L901 -79Q898 -79 894 -75Z"/>
</svg>