<svg xmlns="http://www.w3.org/2000/svg" viewBox="0 -800 1024 1024">
	<path fill="#000000" d="M908 -676V-674Q908 -662 891 -658Q895 -676 906 -676ZM342 64H329Q334 58 338 53Q342 47 349 44Q350 46 350 49Q347 54 342 64ZM78 -255H80Q83 -250 83 -243Q83 -228 74 -225Q70 -241 70 -244Q70 -255 78 -255ZM647 -489Q585 -482 535 -467Q484 -452 435 -438Q443 -437 447 -431Q450 -426 453 -416Q518 -436 631 -460Q639 -474 647 -489ZM784 -749H794Q776 -738 777 -718Q778 -696 768 -678Q761 -671 751 -665Q742 -659 740 -645Q635 -644 527 -617Q490 -612 456 -603Q444 -599 422 -585Q396 -569 381 -565Q364 -570 351 -573Q339 -576 330 -586Q323 -599 315 -612Q305 -623 297 -633Q289 -642 288 -657Q288 -667 292 -678Q293 -681 299 -688Q307 -698 308 -703V-705Q308 -712 297 -723Q289 -731 289 -735V-736Q303 -729 317 -723Q317 -732 302 -744Q287 -756 284 -766Q293 -765 306 -754Q319 -743 327 -743Q331 -743 334 -744Q333 -750 323 -757Q315 -763 315 -766Q330 -759 347 -759Q370 -759 402 -778Q423 -758 459 -758Q501 -762 542 -766Q550 -774 567 -774H578Q587 -774 591 -775Q607 -781 623 -785Q629 -785 632 -783Q681 -796 699 -796H703Q707 -798 711 -801Q715 -800 723 -800Q732 -800 747 -805Q751 -804 751 -800Q751 -797 750 -795H753Q774 -798 794 -802Q786 -795 776 -788Q766 -782 765 -770V-768H769Q773 -768 781 -772Q791 -777 797 -777Q795 -772 786 -766Q776 -759 774 -752Q776 -749 784 -749ZM827 -38H820Q709 -32 659 -11Q662 29 664 68Q664 101 650 118Q626 131 612 131Q599 131 585 121Q571 111 552 79Q546 69 540 58Q539 55 539 50Q540 43 540 36Q540 25 530 22Q545 -17 552 -85Q556 -120 560 -207Q562 -227 564 -247V-251Q564 -287 540 -342Q543 -353 548 -361H542Q523 -361 494 -350Q473 -342 458 -341Q444 -331 426 -324Q409 -317 400 -301Q403 -300 410 -300Q426 -300 453 -318Q470 -330 481 -333Q502 -330 520 -324V-323Q520 -312 537 -290Q550 -274 551 -267V-263Q551 -253 543 -228Q535 -202 533 -189V-165Q530 -151 526 -137Q524 -113 524 -101Q525 -68 526 -36Q526 -25 524 -5Q521 8 504 16Q487 24 479 30Q457 14 443 14Q435 14 425 19L424 17Q431 11 438 4H434Q411 5 395 17Q378 28 361 41Q371 21 392 6Q413 -9 426 -33Q400 -32 373 -21Q351 -7 332 7Q325 11 319 11Q308 10 301 0Q293 -10 286 -19Q281 -23 271 -29Q261 -35 259 -42V-45Q259 -55 273 -71Q290 -91 290 -102V-105Q298 -111 305 -118Q312 -125 323 -128Q325 -126 325 -124Q325 -121 324 -119L326 -116Q329 -115 337 -115Q343 -115 388 -123Q406 -126 419 -131Q426 -132 433 -134Q441 -137 443 -144Q439 -147 432 -147Q423 -147 410 -138Q407 -134 404 -131Q392 -126 384 -126Q364 -126 339 -153V-155Q341 -158 343 -162Q342 -165 327 -171Q330 -176 333 -176Q338 -175 342 -175H345Q357 -184 367 -191Q369 -192 374 -192Q382 -191 389 -191H392Q439 -196 452 -215Q446 -217 443 -217Q430 -216 417 -209Q404 -202 392 -197Q369 -203 364 -205Q348 -212 343 -226Q255 -129 176 53Q165 57 155 57Q133 56 116 42Q99 29 84 18Q85 12 85 1Q85 -41 62 -69Q78 -93 78 -146Q78 -168 77 -190Q78 -201 78 -212Q87 -200 88 -159Q89 -121 96 -109Q100 -113 100 -122Q98 -141 96 -161Q96 -169 99 -177Q105 -174 106 -167Q108 -159 110 -153Q114 -132 119 -126Q182 -156 247 -240Q268 -263 287 -289Q300 -309 312 -330Q325 -351 343 -367V-373Q343 -388 337 -408Q320 -406 309 -401Q303 -398 293 -387Q279 -371 271 -370Q256 -370 229 -385Q221 -393 212 -402Q201 -407 190 -413Q173 -427 173 -447Q173 -476 200 -501Q201 -533 221 -542Q241 -552 262 -559Q279 -570 298 -574H302Q302 -568 292 -562Q283 -557 283 -551V-548Q284 -541 300 -541Q307 -541 314 -542Q346 -548 355 -549Q373 -550 392 -550Q412 -551 417 -558Q420 -556 423 -555Q443 -559 502 -567Q563 -575 598 -583Q625 -589 651 -595Q694 -599 724 -607Q752 -623 788 -628Q804 -628 817 -620Q843 -639 847 -640Q840 -630 835 -615Q842 -618 854 -631Q872 -652 887 -654Q883 -646 871 -635Q853 -618 850 -603H851Q856 -603 859 -609Q862 -615 866 -615H869Q868 -611 868 -604Q868 -595 873 -582Q878 -570 879 -562Q884 -547 888 -532Q888 -521 874 -506Q862 -492 859 -480Q805 -478 777 -450Q749 -421 724 -387Q721 -391 717 -391Q710 -388 703 -386Q698 -386 696 -388Q690 -380 679 -379Q669 -378 659 -378V-377Q664 -362 669 -348Q729 -354 777 -385H779Q781 -381 782 -378L825 -402V-400Q825 -397 817 -389Q805 -377 805 -370Q805 -365 810 -360Q814 -360 819 -365Q823 -369 827 -369H829Q824 -360 820 -341V-339L823 -338Q827 -340 831 -343L833 -341Q822 -308 811 -276H807Q791 -274 783 -264Q715 -252 656 -231V-213Q677 -215 710 -228Q736 -238 753 -241Q761 -229 767 -226Q780 -231 792 -237L793 -236Q793 -234 786 -226Q777 -215 777 -210Q777 -204 791 -204Q780 -191 780 -175V-169Q744 -164 714 -155Q684 -145 654 -138V-119Q664 -117 668 -117Q692 -119 712 -125Q767 -134 797 -142Q840 -153 865 -171V-178Q865 -182 866 -183Q872 -177 874 -169Q882 -171 895 -179Q910 -188 918 -188Q917 -181 910 -171Q904 -163 903 -157Q905 -154 908 -154Q917 -157 925 -160L926 -159Q925 -151 923 -144Q923 -138 927 -135Q933 -138 939 -141L943 -140Q940 -131 940 -122Q941 -104 942 -87Q942 -73 940 -65Q928 -62 927 -51Q909 -45 893 -38Q879 -36 872 -36Q850 -37 827 -38Z"/>
</svg>