<svg xmlns="http://www.w3.org/2000/svg" viewBox="0 -800 1024 1024">
	<path fill="#000000" d="M691 -48V-46Q672 -50 672 -57Q672 -63 677 -63Q689 -61 691 -48ZM668 -425Q676 -431 678 -433Q699 -447 719 -462Q722 -477 724 -493Q727 -490 730 -479Q733 -468 737 -465Q740 -466 740 -468Q739 -471 738 -474L740 -477H741Q747 -477 749 -472Q750 -467 753 -463Q765 -456 771 -446Q777 -435 786 -419Q805 -387 805 -377V-376Q797 -356 789 -337Q777 -282 777 -264V-259Q779 -246 781 -234V-232Q780 -226 775 -216Q768 -204 768 -198L727 -186Q724 -185 723 -177Q722 -171 719 -169Q690 -227 690 -288V-300L687 -327Q678 -330 677 -339Q675 -348 672 -358Q669 -364 663 -370L656 -297Q654 -278 654 -241V-229Q654 -219 661 -205Q666 -195 667 -189Q667 -184 661 -174Q656 -166 656 -160V-159H653Q643 -159 633 -147Q630 -146 625 -146Q616 -146 609 -165Q604 -180 598 -183Q586 -215 583 -240Q586 -249 588 -259Q592 -287 595 -333Q600 -406 599 -439Q600 -456 600 -474Q600 -484 598 -498Q579 -482 537 -458Q491 -432 485 -401Q484 -368 482 -335Q489 -345 495 -356Q499 -377 506 -393Q521 -415 544 -419Q569 -423 584 -402Q587 -397 589 -384Q592 -376 587 -366Q579 -352 577 -348Q577 -342 571 -327Q564 -311 565 -301Q557 -161 511 -12Q495 34 479 36H477Q471 36 469 33Q467 29 466 25Q465 16 456 15Q449 15 442 22Q444 17 444 8Q444 -4 438 -5Q432 -7 421 -9Q426 -13 430 -18Q397 -32 378 -53Q402 -46 425 -40Q422 -43 404 -53Q386 -64 375 -79Q380 -78 396 -70Q415 -61 426 -59Q421 -73 398 -86Q377 -98 358 -100Q357 -103 355 -107Q371 -105 387 -103Q470 -71 488 -133Q507 -230 509 -258Q509 -286 514 -294Q511 -299 510 -306Q510 -313 502 -314V-320Q502 -323 499 -332Q488 -327 481 -319Q480 -313 480 -301Q481 -266 482 -232V-228Q482 -175 472 -151Q462 -148 452 -148Q434 -147 407 -193Q410 -203 410 -214Q410 -225 404 -253Q399 -276 399 -290Q399 -301 401 -307V-328Q393 -328 391 -338Q389 -349 386 -360Q383 -369 373 -383Q380 -355 386 -328Q381 -305 377 -298Q370 -287 356 -288Q353 -280 350 -273Q345 -283 340 -294Q322 -296 320 -308Q317 -322 307 -333Q295 -308 299 -273V-205Q300 -170 301 -135Q303 -127 303 -122Q303 -117 299 -113L307 -94Q311 -91 311 -86Q309 -76 307 -66V-63Q307 -41 326 21Q322 32 314 46Q303 65 300 75Q294 72 288 69H287Q282 71 278 75Q275 63 258 63H251Q232 45 206 -6Q185 -47 170 -65Q177 -63 187 -54Q194 -47 199 -45Q217 -99 222 -160Q222 -179 218 -195Q213 -196 203 -196Q185 -195 166 -194Q148 -194 137 -201Q130 -192 119 -188Q125 -198 126 -206Q102 -240 85 -240Q79 -240 75 -234Q70 -227 64 -226L63 -229Q67 -240 75 -251Q72 -258 66 -263Q34 -263 19 -234Q20 -249 34 -272Q48 -295 51 -308Q48 -317 36 -315Q38 -324 51 -342Q49 -351 39 -365Q29 -379 29 -385V-387Q35 -377 51 -368Q60 -373 68 -376Q71 -376 73 -375Q82 -384 90 -384H94Q97 -403 97 -427Q109 -391 125 -383Q127 -388 127 -396Q127 -404 134 -405Q138 -390 141 -375Q147 -377 150 -377Q164 -374 174 -368Q178 -357 186 -348Q195 -339 202 -330Q207 -323 212 -312Q220 -293 227 -288Q238 -389 247 -506Q248 -516 248 -526Q248 -577 220 -578Q206 -594 206 -613Q206 -643 232 -669Q259 -696 293 -696H296Q321 -680 334 -666Q352 -647 358 -622L360 -609Q367 -609 371 -600Q374 -593 374 -582V-579Q374 -565 349 -523Q320 -475 320 -453Q320 -444 323 -435Q326 -438 330 -438Q335 -438 340 -432Q346 -425 350 -424Q352 -425 357 -432Q363 -451 372 -460Q381 -469 392 -482Q409 -497 430 -508Q437 -512 443 -519Q450 -525 458 -526Q462 -526 464 -525L487 -543V-547Q488 -557 494 -562Q501 -566 507 -571Q536 -591 562 -614Q566 -639 586 -660Q605 -682 633 -683Q647 -683 661 -676Q667 -678 673 -681Q675 -681 676 -674Q676 -668 679 -667Q685 -669 692 -680Q699 -691 706 -693L707 -689Q707 -684 701 -676Q694 -667 694 -662Q694 -659 695 -657L698 -655Q702 -658 706 -661L707 -660Q706 -658 706 -654Q706 -641 719 -630V-621Q719 -612 724 -606Q721 -592 708 -568Q697 -549 694 -541Q677 -503 668 -425ZM653 -110Q653 -105 653 -101Q654 -84 655 -68Q655 -48 646 -35H640Q626 -35 624 -29Q617 -30 609 -32Q605 -32 603 -31Q595 -41 582 -54Q570 -67 555 -70Q558 -77 558 -86Q556 -108 553 -130V-133Q563 -135 568 -135Q600 -135 636 -104Q641 -106 648 -113Q643 -120 643 -123H645Q654 -123 673 -106Q693 -89 710 -73Q727 -58 751 -45Q749 -56 740 -64Q731 -72 721 -79Q711 -85 701 -93Q691 -100 687 -111Q706 -102 730 -88Q742 -82 749 -76Q755 -70 767 -70Q770 -70 778 -72Q816 -194 816 -523V-594Q816 -639 808 -658Q795 -689 760 -689H751Q762 -697 778 -700Q775 -701 771 -703Q794 -711 823 -737Q831 -744 870 -783Q872 -785 879 -785Q905 -781 919 -772Q927 -761 935 -750Q938 -748 940 -744Q946 -742 951 -741Q964 -722 964 -721Q965 -719 965 -714Q965 -701 963 -687Q966 -681 966 -676Q963 -657 948 -651Q898 -541 898 -373V-355H897Q897 -295 896 -235Q896 -228 895 -222Q895 -109 922 -18Q915 -7 915 9Q916 24 917 38Q917 43 916 47Q911 72 891 84Q870 97 854 109Q849 101 833 101Q826 101 822 100Q813 97 799 83Q789 72 781 69Q777 49 766 33Q759 23 742 9Q706 -21 697 -46Q727 -29 756 -12Q743 -26 718 -46Q685 -72 670 -90Q658 -105 657 -106Q655 -108 653 -110Z"/>
</svg>