<svg xmlns="http://www.w3.org/2000/svg" viewBox="0 -800 1024 1024">
	<path fill="#000000" d="M111 -19V-16Q98 -16 90 -23Q93 -29 95 -32Q97 -30 105 -27Q111 -25 111 -19ZM345 -41Q353 -29 361 27V33Q361 55 344 73Q327 91 302 91Q297 91 293 102Q284 89 277 74Q269 59 252 53Q243 32 231 19Q212 8 182 4Q162 -3 141 -11Q139 -11 136 -12Q133 -11 130 -11Q123 -11 119 -17Q125 -19 136 -19Q148 -19 175 -12Q202 -5 217 -5Q221 -5 233 -7Q227 -14 207 -18Q188 -21 182 -26Q190 -28 196 -28Q206 -27 216 -27Q225 -27 231 -30Q245 -40 249 -68Q252 -96 255 -119Q236 -107 232 -104Q219 -93 218 -80V-79Q219 -74 219 -69V-68Q218 -63 204 -52Q174 -55 158 -71Q142 -87 127 -105Q125 -113 125 -115Q129 -136 136 -154V-158Q136 -168 135 -178Q135 -184 136 -187Q140 -195 147 -199Q153 -204 157 -212H159Q163 -210 167 -209H168Q190 -227 217 -239Q243 -251 269 -263Q270 -284 270 -305Q270 -317 268 -335Q191 -294 129 -233Q116 -234 106 -240Q95 -247 84 -254Q70 -261 55 -268Q41 -276 37 -293V-299Q39 -314 40 -329V-334Q39 -342 33 -352Q24 -368 24 -377V-388Q24 -431 50 -468Q64 -488 104 -526L105 -523Q105 -518 104 -513Q104 -507 107 -504L111 -503Q116 -503 125 -509Q134 -515 141 -515Q146 -515 148 -514L149 -511L190 -523Q196 -534 207 -538Q219 -543 230 -548L265 -570Q254 -582 254 -599Q254 -621 271 -644Q287 -666 305 -673Q308 -674 315 -674Q341 -674 351 -664Q361 -654 369 -619Q375 -595 379 -587Q392 -592 413 -604Q435 -616 450 -618H452V-617Q452 -614 445 -609Q433 -600 433 -591V-589Q433 -576 448 -575Q445 -569 445 -562Q445 -550 457 -519Q452 -511 452 -496Q453 -486 453 -476Q453 -469 452 -465Q450 -460 445 -451Q441 -442 440 -430Q440 -422 442 -417Q424 -409 395 -398Q366 -387 350 -377Q344 -329 344 -328Q344 -318 345 -313Q372 -332 412 -350Q400 -339 395 -322L398 -321Q404 -321 410 -324Q413 -325 415 -324Q414 -320 409 -316Q399 -309 398 -297V-296L401 -294H405L408 -292V-291Q403 -284 398 -277Q398 -272 403 -267Q397 -261 389 -245Q381 -228 387 -226Q390 -228 392 -231Q395 -234 401 -234Q397 -230 393 -226V-224Q393 -223 372 -205Q352 -198 345 -182Q340 -172 340 -156Q343 -126 345 -97Q345 -86 342 -74ZM725 -258Q728 -241 727 -209Q726 -172 720 -156Q712 -136 703 -124Q688 -109 665 -109Q654 -124 640 -142Q626 -159 622 -176Q608 -180 591 -194Q596 -196 617 -187Q621 -188 618 -195Q614 -205 614 -206L612 -208Q597 -221 584 -218V-219Q587 -224 603 -224Q613 -224 617 -226Q624 -235 607 -247Q602 -250 597 -252Q602 -255 612 -254Q626 -253 631 -257Q634 -276 637 -295Q639 -287 661 -262Q666 -262 667 -264Q672 -271 671 -283Q670 -296 676 -303L677 -305Q679 -302 681 -286Q684 -262 689 -258Q692 -257 697 -268Q702 -279 709 -289Q713 -269 707 -248Q716 -245 725 -258ZM935 -576V-572Q934 -558 932 -545Q924 -547 924 -565Q924 -576 932 -576ZM866 -284Q877 -269 888 -254Q892 -239 891 -224Q890 -205 881 -199H870Q872 -192 867 -188Q862 -184 858 -180Q826 -153 815 -124Q811 -121 807 -110Q838 -118 857 -127Q867 -132 870 -157Q872 -178 879 -183Q882 -177 882 -170L883 -159Q883 -143 890 -140Q893 -140 906 -148L908 -146Q908 -144 904 -136Q905 -135 919 -115Q929 -100 937 -100Q944 -100 952 -105L954 -103Q949 -98 944 -89L945 -86L947 -85Q951 -85 957 -91V-89Q957 -86 953 -82Q948 -77 948 -73V-71Q948 -64 957 -50Q965 -37 966 -29V-28Q966 -19 960 -11Q954 -3 954 3Q954 8 956 11Q948 17 940 17Q912 15 880 9H863Q855 11 850 7L792 9Q731 19 648 22L618 24L578 32Q578 37 573 38Q568 38 564 39Q501 62 469 98Q445 90 427 76Q410 61 391 47Q389 39 389 37Q388 24 406 -33Q413 -55 414 -57Q419 -67 432 -72Q440 -73 448 -75Q455 -78 466 -87Q478 -97 485 -98Q485 -93 476 -86Q466 -78 466 -73V-71Q468 -62 486 -62Q495 -62 500 -67Q507 -60 519 -61Q530 -61 548 -66Q518 -76 514 -86L502 -96Q482 -105 472 -145Q468 -167 463 -189L461 -196Q466 -205 471 -214Q465 -226 462 -239Q459 -238 455 -237Q436 -268 427 -278Q422 -327 413 -373Q417 -363 425 -348Q440 -368 459 -415Q480 -468 497 -486L502 -507Q504 -524 514 -549Q524 -578 534 -608Q545 -638 555 -669Q570 -702 555 -710Q553 -721 540 -741Q572 -809 651 -809H660Q677 -799 687 -787Q697 -776 709 -763Q711 -754 716 -743Q726 -722 726 -710V-703Q726 -687 706 -671Q691 -658 687 -648Q687 -643 697 -639Q744 -585 768 -570Q773 -562 790 -547Q811 -528 814 -512L836 -500H838Q848 -500 860 -485Q872 -469 883 -468Q887 -479 889 -506Q891 -540 898 -551Q899 -543 899 -524Q899 -485 907 -473Q908 -482 908 -501Q907 -542 906 -584Q906 -611 908 -623Q913 -594 918 -531Q922 -469 928 -440Q933 -445 933 -456Q933 -464 932 -473Q930 -496 928 -519Q928 -530 931 -539Q938 -503 941 -465Q945 -428 956 -398Q966 -379 973 -356Q974 -353 974 -346Q972 -323 969 -301V-296Q954 -285 944 -264Q942 -266 938 -266Q936 -266 934 -263Q933 -261 929 -261H927Q917 -261 895 -272Q874 -282 866 -284ZM857 -295Q837 -330 795 -387Q788 -387 784 -382Q780 -377 776 -372Q778 -368 779 -364V-362Q702 -349 658 -317Q640 -309 624 -298Q604 -282 590 -280Q576 -279 553 -278Q545 -280 532 -289Q523 -299 515 -314Q509 -297 503 -281L505 -280Q507 -281 510 -278Q514 -274 517 -275Q503 -250 467 -240Q473 -236 481 -225Q532 -228 564 -206Q568 -208 571 -211Q571 -206 573 -196Q577 -182 582 -175L585 -173L589 -174Q589 -169 590 -167Q596 -144 601 -121Q607 -94 593 -71L606 -72Q657 -75 703 -85Q721 -89 731 -91Q738 -120 744 -149Q757 -211 752 -241L751 -245Q750 -249 739 -263Q756 -277 775 -297Q780 -303 785 -309L786 -310Q802 -315 829 -304Q833 -306 835 -310Q837 -314 840 -315Q840 -309 838 -306Q844 -296 854 -292Q856 -293 857 -295ZM717 -469Q690 -500 629 -555Q624 -543 565 -426Q600 -439 617 -442Q628 -442 630 -440L647 -444Q664 -459 717 -469Z"/>
</svg>