<svg xmlns="http://www.w3.org/2000/svg" viewBox="0 -800 1024 1024">
	<path fill="#000000" d="M857 -278H865Q866 -276 866 -272Q863 -263 859 -254Q855 -255 855 -263Q855 -270 857 -278ZM791 -512V-515Q796 -520 803 -520Q810 -520 811 -513Q803 -510 791 -498L790 -502Q791 -507 791 -512ZM269 -10H271Q285 -11 294 -19Q303 -27 312 -35Q299 -38 293 -47Q287 -56 281 -65Q270 -27 269 -10ZM434 31H454Q455 17 455 -12Q455 -100 434 -200H429Q414 -191 411 -180Q372 -155 368 -132L370 -131H375L377 -129Q376 -129 376 -125Q376 -121 377 -120Q391 -124 405 -131Q418 -138 433 -139Q420 -135 417 -122L420 -120Q424 -121 428 -123L429 -122Q425 -117 423 -110Q430 -101 436 -101Q422 -95 422 -79Q422 -74 423 -71Q400 -67 395 -66Q381 -62 377 -53Q390 -45 411 -45L409 -43L410 -39Q419 -40 431 -51Q440 -60 445 -60Q444 -57 437 -50Q427 -40 427 -35Q427 -32 430 -29Q438 -34 445 -35Q437 -27 437 -22V-20L441 -19Q446 -20 450 -21H451Q448 -16 445 -10V-7L446 -6L450 -7L452 -5Q452 16 443 25Q434 28 425 28Q406 28 386 9Q357 -18 352 -21Q326 3 319 30L313 33Q310 33 308 30Q306 27 304 27H303Q297 30 291 33Q290 10 266 1Q264 9 264 14Q264 25 269 45Q339 31 434 31ZM538 -477V-473Q467 -457 434 -432Q420 -419 410 -413H408Q377 -419 356 -438Q347 -447 347 -453Q348 -458 353 -463Q358 -468 359 -470Q363 -476 364 -492Q365 -505 369 -512Q395 -525 424 -535Q453 -545 473 -564Q480 -568 487 -568Q501 -566 514 -564Q521 -564 534 -571Q546 -577 555 -578Q553 -574 545 -570Q535 -565 535 -557Q536 -553 539 -553Q545 -554 550 -555H552Q545 -551 545 -541Q545 -537 547 -531H548Q554 -533 559 -536Q555 -521 547 -512Q547 -507 550 -506Q547 -503 542 -500Q537 -498 535 -492Q537 -484 538 -477ZM590 -729V-732Q589 -737 587 -743Q587 -744 589 -748Q610 -729 618 -726Q667 -744 692 -749Q681 -743 668 -738Q655 -733 649 -720Q651 -718 657 -718Q675 -721 689 -728Q687 -724 681 -720Q674 -715 672 -707Q677 -696 682 -685Q679 -679 675 -674Q678 -671 682 -668Q686 -666 686 -660Q679 -652 671 -645Q662 -638 658 -627Q543 -614 434 -575Q409 -567 385 -558Q361 -550 341 -534Q324 -519 302 -499Q281 -480 260 -475H256Q230 -479 204 -484H202Q187 -510 161 -510H156Q158 -520 159 -531V-534Q157 -540 146 -540Q139 -539 131 -539Q210 -584 238 -636Q254 -673 254 -683V-686Q250 -714 213 -726Q233 -745 252 -767Q277 -774 302 -782Q327 -790 355 -791Q374 -791 395 -785Q411 -767 428 -746Q446 -725 447 -697Q447 -685 443 -674Q463 -680 505 -699Q556 -722 590 -729ZM549 97V110Q546 113 534 114Q523 115 520 117Q510 108 497 106Q483 104 470 101Q466 78 427 78Q423 78 381 81Q349 83 325 90Q297 103 278 110Q274 111 270 111Q253 109 236 107Q191 103 161 59Q153 38 148 9Q158 5 166 -16Q172 -31 177 -36Q175 -40 175 -43Q178 -51 180 -60Q161 -71 145 -86Q140 -108 140 -110Q140 -119 145 -125Q132 -156 130 -171Q138 -156 150 -145L151 -147Q148 -151 144 -159L145 -162Q149 -161 153 -156Q156 -151 159 -150V-151Q158 -154 156 -158V-159L158 -160Q159 -160 169 -153Q186 -170 220 -170Q266 -169 287 -142Q287 -127 293 -117Q289 -113 289 -104Q290 -99 290 -95Q304 -96 318 -98Q336 -102 336 -110L335 -113L333 -114Q332 -114 329 -110Q327 -107 325 -107H324Q327 -113 329 -120Q309 -140 291 -149Q288 -152 286 -157Q284 -162 278 -162Q290 -185 309 -205Q329 -226 349 -245Q377 -272 402 -285Q435 -302 476 -302H479Q486 -298 497 -287Q513 -293 519 -297L520 -295Q515 -289 510 -284L512 -282Q516 -283 520 -285H522Q519 -280 516 -275Q521 -272 526 -272Q541 -276 556 -280Q549 -276 542 -272Q535 -268 534 -258L537 -257Q542 -258 547 -260Q540 -256 540 -243Q540 -241 543 -214Q542 -210 537 -207Q533 -205 532 -203V-201Q531 -186 530 -172Q530 -158 538 -155Q535 -152 531 -149Q532 -101 540 -23Q549 60 549 97ZM845 -45V-49Q848 -70 851 -92Q852 -101 852 -110Q850 -156 848 -203Q848 -220 849 -228Q849 -241 857 -246Q863 -220 863 -172V-131Q863 -83 867 -63Q870 -80 870 -127Q870 -179 876 -201V-137Q876 -104 880 -87Q882 -99 883 -122Q884 -155 888 -167Q893 -158 893 -146Q892 -133 891 -121V-117Q894 -95 900 -73Q906 -54 917 -36Q920 -25 922 -15Q927 -3 932 9Q933 13 933 17Q932 30 931 43Q931 58 938 67Q873 100 849 105Q846 106 843 107Q834 108 814 108Q777 108 711 102Q644 97 608 72Q567 43 562 -15Q561 -26 561 -48Q561 -100 582 -198Q597 -267 600 -306Q613 -332 618 -371Q557 -365 501 -341Q445 -316 392 -293Q336 -270 291 -270Q269 -270 257 -272Q240 -274 226 -277Q212 -279 201 -290Q199 -308 199 -314Q199 -363 243 -390Q275 -410 326 -432Q310 -423 310 -405Q310 -386 332 -383H334Q338 -383 381 -393Q496 -422 596 -468Q634 -485 651 -498Q678 -518 686 -544Q687 -546 688 -548H692Q691 -544 691 -537Q691 -522 700 -513Q704 -518 708 -524L711 -522Q715 -521 715 -514Q715 -507 714 -500V-498Q728 -484 744 -473Q751 -476 761 -484Q774 -495 784 -497Q781 -490 772 -482Q763 -474 762 -467V-462Q762 -453 769 -435Q775 -419 776 -410Q775 -399 773 -388Q773 -382 775 -378Q735 -373 712 -335Q694 -305 683 -248Q663 -144 661 -117Q660 -107 660 -88Q660 -47 670 -35Q687 -13 728 -13Q752 -13 809 -26Q819 -33 827 -60Q833 -82 840 -90Q843 -87 843 -81Q842 -70 841 -59Q841 -50 845 -45Z"/>
</svg>