<svg xmlns="http://www.w3.org/2000/svg" viewBox="0 -800 1024 1024">
	<path fill="#000000" d="M145 -143H140L138 -142V-141Q135 -141 135 -144Q135 -148 132 -148Q135 -156 138 -165H139Q142 -164 145 -163ZM862 -417H861Q853 -420 852 -433Q852 -444 860 -444H861Q864 -441 864 -436Q863 -427 862 -419ZM383 -363H376Q370 -367 364 -375H362Q358 -375 353 -380Q348 -385 347 -385L345 -384Q330 -304 330 -279Q330 -262 333 -244Q378 -284 422 -370Q405 -363 383 -363ZM678 -117Q672 -120 668 -125Q681 -131 689 -165Q638 -162 585 -123Q587 -81 597 -59Q627 -76 671 -88Q675 -100 678 -117ZM952 -181H948Q938 -181 933 -176Q929 -171 924 -166Q908 -172 891 -178Q873 -185 861 -197Q847 -218 832 -240Q820 -256 803 -282Q785 -307 738 -368Q703 -413 680 -445Q644 -492 634 -508Q631 -514 628 -519Q625 -525 618 -526Q584 -483 552 -402Q622 -411 655 -453V-449Q655 -442 659 -436H675Q679 -426 705 -399Q728 -375 729 -355V-350Q729 -335 722 -323Q714 -310 701 -307Q703 -302 704 -297Q624 -279 578 -247Q556 -257 528 -283Q530 -291 530 -294Q526 -315 522 -336V-341Q507 -324 485 -283Q464 -244 451 -228Q447 -215 442 -203H446Q457 -203 465 -208Q474 -214 475 -225Q481 -221 486 -212Q492 -214 495 -214H499Q502 -209 515 -208Q530 -206 533 -200Q560 -202 590 -216Q619 -230 646 -240Q664 -243 681 -247Q690 -250 704 -263Q725 -282 742 -282Q750 -282 760 -279Q764 -285 768 -292Q772 -299 776 -300V-285Q787 -268 796 -250Q805 -232 819 -219H822Q827 -219 832 -220H835V-219Q835 -217 832 -215Q829 -213 829 -209Q843 -186 843 -138Q830 -134 817 -115Q788 -103 777 -68Q766 -33 755 3Q748 22 741 50Q732 88 726 100Q722 100 722 95L723 92Q721 93 718 93Q705 93 698 75Q695 75 695 78Q694 81 692 82Q680 77 679 77Q672 73 672 66V63H671L669 65Q670 69 670 73L668 75Q659 65 649 63H646Q640 51 640 40Q640 33 644 26Q596 34 573 61H549Q535 61 526 54Q517 28 492 15Q492 11 496 7Q499 4 499 0Q490 -46 461 -72Q431 -98 410 -132Q419 -151 424 -175Q414 -181 404 -187Q394 -184 390 -175Q385 -166 381 -157Q378 -160 378 -168Q382 -182 385 -197Q377 -203 369 -209Q360 -215 346 -216H341Q349 -219 356 -223Q354 -229 346 -229Q339 -229 333 -231Q328 -207 328 -173Q328 -155 330 -111Q332 -75 339 -50Q352 -22 356 11V16Q349 42 332 60Q330 59 326 59Q320 60 317 65Q314 70 310 73Q304 64 290 61Q273 57 268 53Q258 45 250 20Q244 1 240 -6Q231 -15 222 -16V-17L224 -19Q228 -18 231 -17L234 -19V-21Q233 -30 221 -33Q209 -35 198 -36Q209 -40 227 -42Q245 -74 246 -122Q248 -169 249 -217Q215 -214 195 -187Q194 -197 187 -204Q181 -206 178 -206Q160 -204 150 -189Q149 -178 144 -172Q141 -191 138 -209Q135 -227 120 -232Q117 -233 113 -233Q97 -233 76 -208Q54 -181 43 -178Q49 -195 66 -218Q85 -244 90 -259Q85 -278 63 -278Q42 -278 25 -263Q25 -271 44 -286Q68 -306 68 -320Q68 -325 67 -327Q65 -332 61 -334Q56 -336 51 -339Q58 -347 65 -354Q72 -362 73 -375V-376Q73 -378 69 -379Q65 -379 65 -382Q73 -384 79 -396Q86 -409 93 -411V-413Q93 -419 88 -432Q84 -442 84 -449Q84 -454 85 -456Q93 -451 95 -442Q98 -433 102 -426Q114 -407 143 -407H153Q162 -419 168 -435Q171 -432 171 -428Q170 -421 169 -414V-413Q172 -401 181 -394Q190 -387 197 -379Q199 -379 202 -383Q205 -387 209 -387Q211 -364 226 -353Q241 -342 251 -325Q257 -419 262 -521Q262 -536 260 -564Q258 -598 242 -617H241Q237 -617 231 -611Q227 -607 225 -607H224Q224 -619 232 -640Q238 -657 239 -669Q261 -699 309 -702Q345 -702 357 -672Q359 -670 366 -670V-667Q366 -643 384 -625Q383 -621 383 -614Q386 -592 388 -571Q388 -566 387 -562Q386 -549 374 -527Q364 -509 364 -499Q365 -490 374 -481Q384 -471 392 -471H393Q403 -473 407 -483Q411 -493 425 -495Q415 -480 410 -463Q410 -458 415 -453Q421 -455 427 -458L431 -457Q429 -444 427 -431Q427 -418 436 -413Q429 -406 429 -396Q429 -386 433 -381Q481 -479 516 -571Q536 -620 539 -639V-645Q539 -682 499 -705Q533 -707 561 -731Q589 -754 618 -769H619Q626 -769 652 -739Q675 -713 696 -696V-693Q695 -679 694 -666Q694 -657 699 -652Q696 -644 688 -634Q680 -624 679 -611Q680 -608 680 -606Q684 -586 719 -538Q808 -427 850 -378L862 -364Q869 -365 869 -374Q867 -389 864 -404L865 -408Q871 -403 874 -395Q877 -386 880 -379Q881 -384 881 -389Q878 -427 865 -459Q850 -510 850 -528V-532Q866 -499 876 -461Q887 -422 898 -385Q898 -402 889 -439Q881 -473 880 -495Q892 -471 893 -448Q906 -400 924 -351Q928 -340 946 -318Q970 -288 970 -267Q967 -245 963 -223Q961 -211 952 -181Z"/>
</svg>