<svg xmlns="http://www.w3.org/2000/svg" viewBox="0 -800 1024 1024">
	<path fill="#000000" d="M854 -315V-313Q852 -304 844 -300L843 -303Q843 -306 846 -315ZM382 -556V-560Q391 -567 397 -567Q403 -567 404 -561Q400 -550 385 -548Q382 -551 382 -556ZM724 -128V-131Q740 -140 745 -153Q743 -154 740 -155Q659 -137 592 -96Q589 -94 585 -93L582 -94Q580 -89 574 -84Q567 -78 566 -72Q573 -62 589 -62Q595 -62 600 -63Q626 -68 651 -74Q685 -77 703 -84Q712 -91 718 -103Q723 -115 728 -123Q724 -125 724 -128ZM361 -11V-6Q361 11 346 36Q334 55 332 66Q308 65 283 63Q263 37 246 10Q244 9 241 9Q232 11 223 13Q218 13 215 9Q221 9 246 0V-4Q248 -20 250 -37Q241 -35 237 -28Q233 -21 230 -14Q227 -12 221 -12Q209 -15 197 -18Q158 -24 153 -65Q153 -68 152 -71Q153 -79 154 -88Q154 -91 153 -94Q152 -99 147 -107Q141 -117 141 -122V-124Q142 -130 143 -136L142 -140Q141 -144 134 -149Q127 -154 126 -158Q134 -154 144 -154Q160 -155 174 -165Q188 -175 201 -186Q217 -197 259 -213Q261 -238 263 -263Q263 -268 262 -273Q192 -262 163 -201Q105 -206 99 -243Q85 -253 75 -289Q65 -324 53 -336Q45 -343 37 -348Q28 -353 27 -360V-361Q31 -377 40 -393Q45 -409 49 -426Q57 -445 71 -460Q85 -475 98 -488Q88 -472 84 -452Q84 -444 90 -439Q125 -446 190 -471Q236 -488 266 -497Q269 -509 269 -521Q269 -555 247 -567V-570Q247 -574 250 -579Q249 -583 245 -586Q239 -591 239 -595Q243 -606 254 -620Q263 -632 266 -637Q281 -646 292 -660Q303 -673 326 -676Q338 -658 348 -637Q351 -633 362 -624Q377 -612 379 -603V-600Q379 -593 375 -581Q370 -566 370 -557Q370 -550 373 -541Q378 -535 385 -535Q391 -535 404 -543Q415 -550 421 -550Q425 -550 427 -549Q419 -539 419 -527Q419 -524 421 -514Q422 -510 429 -510H432Q430 -508 428 -505V-499Q432 -473 443 -462V-458Q443 -448 451 -448V-438Q457 -433 462 -429Q456 -423 453 -414Q456 -412 459 -410Q455 -406 450 -405Q451 -399 455 -396L457 -397L458 -396L457 -394Q457 -391 456 -389Q456 -387 459 -384H457Q452 -382 448 -378Q449 -370 449 -362Q449 -359 445 -348Q418 -346 392 -332Q366 -319 342 -307Q339 -280 339 -279Q339 -273 341 -263Q353 -267 396 -292Q432 -313 460 -313H462Q443 -304 423 -295Q404 -287 392 -270Q397 -271 407 -276Q424 -284 434 -285Q430 -278 408 -263Q387 -249 385 -238H387Q394 -241 400 -245L404 -244V-242Q404 -239 399 -233Q393 -226 392 -222Q394 -216 401 -216H404Q400 -208 394 -199Q388 -190 387 -180Q387 -177 389 -171Q388 -170 346 -134Q354 -72 361 -11ZM919 -156V-153Q919 -145 928 -129Q924 -119 910 -99Q896 -79 891 -65Q887 -66 879 -66Q807 -66 783 42Q771 44 764 44Q739 44 715 27Q650 34 617 51Q615 66 613 81Q608 83 602 86Q597 89 596 94L597 98Q586 97 568 92Q552 87 543 87Q539 82 534 70Q514 58 501 39Q488 20 477 -1Q459 -40 419 -57Q395 -87 382 -135Q393 -154 412 -165Q431 -176 448 -189Q450 -193 451 -201Q452 -211 456 -213Q460 -200 465 -186Q470 -169 488 -168Q492 -168 495 -169Q506 -174 517 -180Q534 -189 551 -198Q584 -210 588 -213Q596 -224 597 -241Q598 -258 601 -272Q580 -257 578 -255Q564 -244 558 -234Q539 -235 514 -241Q509 -248 507 -256V-258Q490 -260 480 -276Q471 -290 471 -310Q471 -336 486 -353Q474 -366 474 -381Q474 -400 499 -436Q506 -446 511 -455Q517 -464 524 -466Q526 -464 526 -461Q524 -453 521 -445Q571 -452 603 -477Q595 -493 592 -513Q590 -514 587 -514Q579 -511 573 -508H570Q568 -529 560 -540H558Q554 -539 549 -538L555 -548Q552 -552 548 -557Q529 -548 507 -540V-541Q508 -554 518 -559Q528 -564 536 -571Q531 -575 524 -575Q517 -575 500 -566Q483 -557 475 -557H471Q478 -570 491 -576Q504 -581 517 -589Q513 -590 507 -590Q485 -589 468 -579Q451 -570 435 -560V-563Q437 -576 452 -582Q467 -588 477 -595H472Q459 -595 437 -582Q419 -571 409 -571Q422 -589 462 -614Q508 -643 522 -663Q604 -722 634 -751V-753Q634 -758 638 -764Q643 -771 643 -777Q652 -783 658 -789Q664 -796 673 -796H675Q681 -795 692 -787Q708 -775 717 -775Q724 -775 728 -777Q740 -766 751 -731Q763 -693 778 -682Q773 -676 773 -664Q774 -648 775 -632Q775 -622 773 -618Q748 -612 748 -593V-591H744Q707 -591 677 -563Q683 -542 706 -508Q738 -521 768 -536Q799 -550 819 -574L820 -570Q817 -560 813 -551Q818 -541 838 -541Q854 -541 870 -542Q877 -542 880 -541Q873 -536 863 -531Q852 -525 851 -516Q851 -511 854 -507Q866 -510 877 -513Q873 -508 867 -505Q860 -502 859 -494Q859 -488 863 -487Q866 -486 869 -486Q855 -465 855 -431Q855 -425 857 -413Q850 -411 850 -402Q851 -393 851 -384V-379Q846 -380 840 -382V-379Q840 -374 835 -368Q829 -361 829 -354V-353H820Q745 -353 692 -313L683 -249Q708 -256 734 -263Q760 -270 779 -282H796Q803 -295 811 -300L812 -297Q809 -289 806 -282Q806 -278 808 -276Q820 -277 825 -283Q831 -290 838 -294V-292Q838 -290 834 -284Q829 -277 829 -271V-267Q836 -262 843 -258Q851 -261 864 -270Q881 -282 894 -284Q887 -275 877 -270Q866 -265 865 -250Q869 -251 873 -252Q875 -252 877 -250Q875 -246 875 -242Q875 -229 885 -213Q895 -197 903 -197L905 -198Q904 -194 904 -184Q904 -173 903 -166Q911 -158 919 -156Z"/>
</svg>