<svg xmlns="http://www.w3.org/2000/svg" viewBox="0 -800 1024 1024">
	<path fill="#000000" d="M800 -482H806Q802 -477 798 -473Q794 -468 787 -467Q787 -469 786 -472Q786 -482 800 -482ZM693 -122H691Q678 -123 675 -140V-143H677Q686 -142 687 -135Q689 -128 693 -122ZM95 -20V-21Q95 -32 104 -32Q109 -32 125 -24Q115 -19 104 -17Q100 -17 95 -20ZM556 -242Q490 -228 468 -212Q473 -206 477 -200Q492 -201 510 -207Q530 -214 541 -214Q541 -222 548 -229Q555 -236 556 -242ZM770 -105V-106Q770 -109 777 -112Q784 -115 785 -116Q779 -118 764 -118Q753 -118 729 -114Q731 -118 751 -124Q769 -129 770 -137V-138Q769 -142 761 -147Q753 -153 746 -159Q735 -168 724 -178Q713 -188 696 -189Q688 -189 684 -188Q693 -197 706 -202Q719 -207 734 -215Q746 -225 758 -236Q772 -242 787 -242Q813 -242 847 -223Q855 -228 865 -231Q864 -223 862 -215Q870 -213 873 -213Q879 -213 884 -214Q887 -192 914 -179Q912 -171 912 -167Q916 -145 923 -125Q906 -90 874 -90Q861 -90 832 -99Q804 -108 789 -108Q779 -108 770 -105ZM366 95H364Q356 95 328 90Q314 88 293 77Q268 64 257 64H255Q245 64 232 74Q220 83 212 84Q214 76 228 67Q236 62 240 56Q233 38 211 38Q202 38 192 43V41Q192 35 201 28Q206 24 206 22Q206 20 202 16Q184 19 158 36Q130 54 110 56Q122 46 148 31Q178 14 189 3Q188 -16 175 -23H170Q157 -22 144 -21Q134 -21 130 -26H136Q157 -29 177 -35Q177 -38 176 -41Q176 -59 203 -74Q199 -82 199 -89V-92L201 -93Q207 -89 213 -85Q220 -96 240 -96H251Q259 -102 260 -113Q261 -124 265 -134Q267 -123 270 -110Q273 -96 282 -93Q285 -96 286 -100Q287 -105 292 -105Q312 -80 326 -69Q330 -69 334 -75Q337 -80 342 -80H345Q341 -72 341 -65Q341 -56 347 -49Q353 -42 359 -33Q366 -21 371 -10Q376 1 385 9V12Q385 21 391 35Q396 47 397 56Q396 57 384 80Q377 93 366 95ZM852 46V51Q852 55 857 58Q861 60 861 64Q843 82 840 90Q817 105 794 120Q751 126 706 126Q639 126 582 110Q522 93 469 50Q408 0 398 -57V-85Q403 -77 407 -69Q409 -75 416 -75H420Q425 -75 427 -76Q435 -80 442 -85Q454 -83 466 -69Q478 -54 486 -45Q492 -44 493 -41V-39Q500 -37 507 -35Q535 -4 618 13Q639 9 658 9H675Q678 1 692 1Q698 1 701 4Q722 -2 722 -19Q722 -30 716 -45Q723 -44 727 -34Q731 -24 738 -23Q734 -41 717 -69Q703 -93 698 -108Q710 -100 726 -73Q743 -44 757 -35Q756 -46 741 -62Q725 -79 723 -93Q744 -82 756 -63Q768 -45 784 -30Q800 -26 821 -7Q832 -6 836 1Q840 8 847 12Q847 28 856 34Q854 40 852 46ZM858 -680H860Q867 -681 874 -683Q862 -669 862 -656Q862 -647 871 -641Q866 -635 866 -627Q868 -617 869 -607Q869 -604 868 -602Q865 -585 841 -574Q823 -566 799 -564Q739 -557 689 -539Q638 -520 622 -468Q620 -469 617 -469Q614 -469 611 -464Q608 -459 604 -458Q596 -461 590 -465Q586 -462 578 -462Q573 -462 567 -463Q552 -463 550 -452Q546 -453 546 -460Q546 -465 548 -471Q539 -471 534 -461Q531 -455 528 -441Q522 -442 522 -449Q523 -452 523 -456Q524 -465 532 -481Q542 -500 542 -508V-510Q537 -525 525 -542Q521 -547 516 -551Q512 -554 510 -560Q512 -574 512 -579Q510 -604 508 -629Q512 -637 525 -649Q538 -661 542 -669Q560 -660 578 -660Q597 -660 610 -669Q610 -680 616 -702Q621 -720 621 -731V-735H618Q605 -735 582 -726Q582 -733 599 -742Q616 -751 616 -760V-761Q636 -770 669 -790Q703 -810 719 -818H723Q732 -805 758 -788Q787 -769 796 -752Q791 -741 789 -728Q787 -715 779 -708Q784 -705 789 -705Q809 -710 825 -720Q825 -711 838 -702Q875 -713 881 -713Q869 -700 856 -688Q857 -684 858 -681ZM374 -424H372Q365 -424 351 -429Q340 -433 333 -433Q330 -433 322 -431Q324 -439 328 -446Q321 -457 317 -471Q275 -458 258 -450Q255 -451 250 -451Q232 -451 212 -430Q196 -413 186 -411H184Q169 -412 153 -414Q145 -414 141 -413Q134 -419 128 -433Q121 -449 113 -453Q106 -454 98 -456Q75 -470 73 -505Q73 -518 79 -530Q81 -534 88 -541Q97 -550 98 -557V-563Q98 -571 97 -579Q97 -584 100 -590Q103 -596 132 -606Q145 -612 154 -618Q163 -625 177 -628Q176 -625 170 -621Q163 -616 163 -609Q166 -606 172 -606Q182 -607 192 -608H194Q207 -606 220 -605H225Q233 -606 254 -611Q252 -631 250 -651Q250 -675 271 -680Q272 -683 273 -687V-689Q297 -710 334 -710Q353 -710 368 -704Q367 -701 366 -699Q381 -694 395 -669Q409 -644 424 -639Q448 -646 471 -653Q471 -650 466 -646Q462 -643 461 -639Q464 -635 467 -635Q474 -636 481 -638Q482 -627 493 -613Q507 -597 507 -585Q486 -573 486 -548V-542Q478 -542 475 -531Q471 -519 465 -519Q467 -516 470 -516Q461 -509 443 -507Q429 -505 422 -500Q413 -493 410 -467Q408 -447 404 -438Q387 -433 374 -424ZM675 -38V-37Q676 -33 677 -30Q662 -25 649 -25Q641 -25 636 -26Q623 -31 610 -36Q606 -37 598 -37H588Q582 -37 579 -38Q564 -41 542 -65Q521 -87 502 -88Q516 -96 535 -98Q535 -102 530 -103Q526 -103 523 -105Q527 -111 543 -117Q556 -122 560 -126V-128Q559 -130 558 -133L559 -135L556 -136Q553 -135 549 -134H548Q545 -141 541 -148Q538 -144 535 -144Q532 -144 523 -151Q471 -150 445 -107Q436 -103 425 -103Q402 -103 375 -128L371 -129Q367 -127 363 -126Q364 -129 364 -136Q363 -153 353 -162Q342 -171 330 -179Q313 -189 311 -214Q287 -197 262 -180Q251 -169 240 -158Q231 -152 222 -146Q209 -135 190 -113Q165 -84 151 -74H148Q99 -74 91 -123Q85 -126 78 -129H76Q82 -137 88 -158Q95 -182 101 -189Q98 -221 95 -254Q95 -277 103 -289Q104 -252 105 -246Q108 -223 117 -212Q114 -227 114 -235Q114 -245 119 -248Q123 -243 127 -228Q131 -214 135 -209Q163 -212 193 -234Q230 -261 243 -266H237Q223 -266 209 -289Q198 -308 189 -312V-320Q189 -349 215 -363Q216 -382 230 -389Q243 -396 254 -405Q256 -397 262 -392Q315 -398 413 -415Q419 -418 424 -422L427 -421Q433 -430 438 -440Q442 -450 451 -456V-462Q451 -470 452 -474Q464 -478 475 -482H478Q496 -482 506 -465Q508 -462 520 -431Q554 -432 583 -440Q613 -448 640 -453H641Q643 -453 646 -452Q659 -457 672 -462Q693 -467 710 -470Q727 -473 739 -488L741 -484Q741 -481 737 -476Q731 -469 731 -465Q732 -454 743 -454Q761 -457 779 -461Q778 -455 768 -449Q758 -444 758 -438Q758 -436 760 -432L761 -431Q766 -432 770 -434H772Q764 -418 764 -408Q764 -405 766 -393Q755 -380 754 -366Q749 -365 744 -364Q738 -362 738 -356Q727 -357 707 -357Q659 -356 616 -347Q573 -338 531 -329Q454 -317 394 -287Q411 -282 424 -282Q446 -283 467 -289Q488 -296 510 -300Q548 -305 585 -311Q596 -341 636 -341Q675 -341 689 -315Q692 -316 698 -322Q705 -329 713 -329V-327Q706 -313 698 -300L700 -298Q704 -299 708 -301L710 -300Q709 -297 709 -292Q709 -283 715 -269Q720 -257 720 -251V-248Q718 -229 707 -218Q700 -212 677 -206Q653 -200 643 -192Q629 -181 615 -148Q638 -136 664 -119Q689 -102 696 -69Q691 -61 688 -52Q685 -44 675 -38Z"/>
</svg>