<svg xmlns="http://www.w3.org/2000/svg" viewBox="0 -800 1024 1024">
	<path fill="#000000" d="M791 -130V-133Q793 -136 796 -136H804Q799 -122 794 -108Q793 -119 791 -130ZM114 -104H117Q129 -101 136 -93Q133 -90 127 -90Q113 -90 113 -100ZM759 -752V-753L758 -757Q760 -766 771 -766Q773 -766 779 -764Q779 -757 775 -754Q772 -751 765 -751Q761 -751 759 -752ZM772 -234H774Q778 -230 778 -225Q775 -214 771 -203Q763 -203 763 -220Q763 -234 772 -234ZM435 -280V-284Q437 -296 439 -309Q424 -307 414 -298Q404 -289 393 -281Q393 -278 392 -276Q392 -269 398 -263Q420 -268 435 -280ZM592 -355H587Q573 -355 535 -340Q526 -317 526 -309V-303Q545 -308 565 -308Q567 -319 580 -335Q588 -345 592 -355ZM469 -414V-416Q419 -401 405 -389Q391 -384 377 -379Q363 -375 358 -361Q375 -363 416 -377Q444 -387 463 -391Q469 -409 469 -414ZM556 -423V-418Q597 -434 622 -434Q628 -434 642 -432Q648 -440 653 -453Q658 -460 663 -468L662 -470Q613 -458 564 -446Q558 -437 556 -423ZM836 58V63Q836 75 823 95Q814 109 811 118Q779 120 764 120Q731 120 715 109H714Q712 109 710 112Q708 115 706 115H705Q605 34 438 -65Q435 -59 432 -54Q432 -53 434 -49Q417 -38 397 -1Q380 29 368 41Q364 70 352 77Q339 69 318 69Q307 69 300 70Q293 63 285 56Q276 50 272 38Q270 30 270 21Q271 11 260 10Q271 0 271 -9Q270 -19 256 -26Q241 -32 222 -37Q215 -39 195 -46Q172 -51 171 -58Q174 -59 181 -59Q193 -59 221 -50Q249 -41 264 -41H269Q250 -52 208 -64Q163 -77 146 -87Q159 -84 174 -85Q197 -82 232 -74Q267 -67 296 -65Q325 -65 352 -96Q357 -100 361 -104Q361 -107 340 -124Q320 -140 315 -143Q306 -144 299 -149Q301 -152 303 -152Q308 -151 313 -151L317 -152L318 -154Q316 -157 314 -160V-161Q334 -161 353 -162Q382 -162 396 -154Q402 -174 407 -179L403 -180Q390 -180 386 -173Q370 -184 350 -184H343Q312 -221 300 -234Q275 -259 249 -275Q223 -276 203 -286Q188 -293 168 -309Q156 -336 145 -337Q138 -345 132 -366Q127 -384 125 -388V-393Q125 -404 139 -424Q146 -426 152 -428Q157 -441 161 -453Q158 -462 155 -472Q155 -476 160 -479Q161 -472 168 -464Q175 -456 181 -456Q189 -456 193 -467Q187 -480 181 -494Q175 -508 174 -524V-528Q185 -514 194 -498Q203 -482 217 -472Q241 -474 251 -474Q286 -474 297 -453Q309 -456 321 -459Q326 -459 328 -458Q361 -475 399 -488Q436 -501 473 -515Q472 -529 465 -538Q459 -547 451 -556Q428 -549 404 -542Q394 -539 374 -527Q350 -513 337 -512H329Q288 -512 288 -545Q264 -556 255 -563Q238 -576 237 -594V-597Q237 -604 243 -622Q241 -629 230 -636Q220 -642 220 -647L224 -648Q227 -648 231 -645Q237 -641 241 -641H244V-642Q244 -649 229 -654Q215 -659 213 -665L217 -666Q230 -663 242 -661Q244 -661 250 -663Q249 -669 240 -671Q232 -673 231 -674Q235 -678 245 -681Q256 -684 261 -688Q274 -701 285 -708Q294 -705 302 -702Q306 -701 309 -701Q328 -702 351 -710Q374 -719 393 -726Q465 -751 565 -779Q578 -782 608 -794Q629 -807 647 -812H650Q662 -810 673 -809Q685 -812 696 -815Q699 -815 703 -813L705 -812Q702 -811 699 -805V-804Q702 -802 709 -802Q727 -805 745 -809H750Q747 -805 739 -803Q729 -800 727 -798V-783H730Q753 -787 775 -792H780Q765 -784 746 -776Q728 -767 726 -750Q726 -745 727 -743H729Q739 -746 749 -750L752 -749Q734 -734 734 -728Q734 -723 743 -719Q740 -716 740 -711Q741 -704 742 -697Q742 -693 737 -691Q751 -677 753 -671Q750 -669 746 -668Q749 -663 749 -662Q748 -657 746 -652Q747 -649 747 -647Q746 -650 744 -650Q741 -645 740 -635Q685 -627 582 -600Q592 -595 592 -583Q590 -567 588 -552V-550Q616 -559 656 -570Q676 -573 692 -581Q707 -590 721 -597Q727 -599 732 -599Q747 -599 766 -592Q785 -585 788 -576Q791 -580 799 -582H802L803 -580Q802 -575 800 -570Q800 -567 804 -566L807 -565Q810 -565 815 -571Q821 -579 827 -579H829Q825 -568 820 -558Q820 -554 824 -551Q833 -554 846 -564Q863 -577 875 -579Q873 -574 861 -564Q844 -550 842 -538Q845 -529 851 -524Q854 -527 855 -531Q856 -536 861 -536H862Q861 -520 860 -504Q860 -483 867 -473Q856 -452 847 -431Q778 -413 722 -334Q671 -263 653 -182H642Q639 -177 639 -168Q635 -168 634 -176Q633 -183 630 -184Q621 -183 618 -176Q614 -168 611 -161Q608 -160 603 -160Q592 -160 582 -170Q571 -181 562 -181Q560 -188 552 -196Q542 -207 540 -215Q517 -214 504 -205Q493 -197 484 -178Q473 -158 473 -145V-143Q476 -130 518 -116Q545 -107 597 -82Q648 -58 672 -50Q675 -51 682 -51Q696 -51 718 -40Q723 -41 727 -48Q732 -55 738 -56Q738 -45 743 -44Q754 -64 756 -96Q759 -128 761 -157V-173Q761 -189 770 -191V-136Q770 -63 773 -29Q778 -43 778 -67Q777 -95 776 -124Q776 -142 779 -157Q785 -139 785 -94V-88Q785 -41 792 -24Q795 -30 795 -37Q793 -54 790 -72Q790 -81 795 -86Q803 -71 803 -57Q803 -44 804 -29Q807 -5 817 17Q830 39 836 58Z"/>
</svg>