<svg xmlns="http://www.w3.org/2000/svg" viewBox="0 -800 1024 1024">
	<path fill="#000000" d="M852 -198H854Q855 -198 864 -195Q863 -190 859 -185Q854 -179 854 -175Q850 -176 850 -183Q850 -190 852 -198ZM845 -731V-732Q847 -744 856 -744Q862 -744 864 -736Q863 -730 850 -730Q846 -730 845 -731ZM742 -730H741Q737 -730 733 -724Q730 -719 725 -719Q722 -723 722 -728Q724 -739 733 -740Q741 -740 742 -730ZM114 -520H111Q113 -536 129 -538Q134 -538 138 -535Q126 -520 114 -520ZM843 -313Q844 -310 844 -306Q844 -300 839 -292Q834 -284 833 -279Q826 -282 826 -297Q826 -315 836 -315Q840 -315 843 -313ZM805 -531V-523Q800 -530 787 -530Q777 -530 772 -524Q770 -526 759 -528Q748 -530 745 -535Q743 -534 739 -534Q730 -536 720 -538H718Q697 -557 686 -570Q669 -590 662 -610Q647 -617 647 -637Q647 -665 668 -675V-678Q669 -687 670 -697V-701Q678 -690 692 -690Q712 -690 718 -710Q722 -706 725 -695Q729 -680 735 -678Q738 -681 747 -692Q758 -706 768 -710Q754 -693 749 -670Q749 -668 751 -662Q796 -694 842 -724L844 -723L842 -720L843 -719Q824 -703 805 -686Q786 -668 777 -641Q778 -637 785 -633Q791 -630 793 -627Q816 -639 842 -647Q837 -642 825 -635Q807 -625 802 -616V-611Q802 -590 826 -583Q805 -577 805 -531ZM867 -16V-21Q867 -32 871 -33Q875 -16 879 0Q882 17 895 24Q894 26 894 29Q894 33 900 42Q896 47 896 53Q900 67 903 80Q896 89 887 98Q879 107 877 124Q862 121 858 121Q844 121 840 130Q829 124 807 115Q779 104 766 94Q661 14 623 -88Q614 -82 600 -66Q588 -52 580 -46Q573 -67 550 -67Q533 -67 528 -55V-57Q530 -68 538 -75Q536 -76 533 -76Q528 -75 522 -75V-77Q522 -85 508 -94Q493 -103 493 -112Q493 -116 494 -118Q478 -126 469 -126Q470 -131 482 -132Q491 -133 494 -136Q490 -143 476 -143Q463 -142 449 -141Q445 -141 441 -142Q446 -145 464 -149Q486 -153 494 -158Q519 -171 537 -192Q556 -212 571 -232Q556 -278 547 -331H544Q536 -329 528 -328L527 -326L529 -323V-322H527Q507 -321 486 -313Q466 -304 448 -296Q434 -291 420 -284Q407 -278 406 -260V-255Q430 -265 453 -275Q475 -286 506 -290Q501 -283 485 -276Q464 -267 461 -256L465 -255Q477 -260 492 -265Q495 -265 497 -264Q486 -254 473 -247Q459 -240 454 -224V-223Q454 -219 460 -214Q464 -211 464 -209Q464 -206 461 -205H463Q468 -206 473 -207Q468 -200 464 -190Q464 -187 467 -184Q448 -173 428 -165Q408 -156 393 -141Q391 -125 391 -116Q391 -96 400 -49Q408 -7 408 17Q408 41 403 57Q376 65 367 74Q365 85 362 89Q344 65 316 60Q310 37 286 33Q262 29 236 27Q259 20 288 20Q267 11 229 11Q203 11 161 15Q176 7 218 5Q273 2 290 -12V-15Q293 -37 295 -59Q295 -68 294 -72Q286 -66 279 -58Q272 -51 261 -50Q255 -50 247 -54Q241 -57 226 -72Q209 -89 208 -99Q208 -103 207 -107Q209 -120 210 -133Q210 -144 205 -150Q210 -164 225 -170Q240 -176 257 -184Q280 -194 298 -203Q318 -212 319 -244Q272 -236 220 -196Q205 -181 193 -162Q180 -142 156 -139H154Q133 -142 112 -153L115 -154Q117 -154 125 -150Q121 -158 112 -161Q103 -163 96 -167Q79 -179 70 -193Q67 -199 67 -210Q67 -231 72 -246Q73 -251 79 -257Q86 -265 88 -268Q94 -285 97 -308Q100 -331 112 -342Q125 -345 137 -349Q150 -356 170 -381Q188 -403 205 -408Q203 -401 194 -391Q181 -376 181 -369Q181 -363 186 -358Q205 -365 211 -365H214Q257 -388 353 -415Q362 -425 364 -442Q366 -459 370 -474Q352 -472 347 -463Q345 -464 342 -464Q336 -464 328 -459Q317 -452 310 -452Q312 -459 313 -466H312Q311 -464 309 -462H307Q304 -471 292 -471Q279 -468 266 -465V-466Q266 -472 273 -476Q282 -481 284 -483Q272 -521 252 -521Q243 -521 235 -514Q235 -522 241 -524Q246 -527 251 -531V-534Q248 -540 245 -546Q234 -545 219 -536Q204 -527 193 -526Q200 -537 225 -549Q243 -558 251 -565H248Q222 -564 200 -554Q177 -543 155 -535V-537Q156 -550 163 -551Q171 -553 179 -555Q229 -579 282 -610Q310 -623 334 -640Q348 -652 364 -664Q379 -676 402 -678H412Q435 -678 460 -667Q464 -650 476 -621Q490 -586 494 -568Q491 -513 455 -502H452Q432 -501 414 -494Q396 -487 379 -480H399Q422 -480 429 -477Q437 -461 444 -446Q487 -458 529 -471Q521 -554 512 -638Q511 -676 504 -701Q493 -741 471 -741Q464 -741 457 -737V-741Q458 -752 466 -758Q474 -765 481 -772Q492 -785 504 -800Q516 -815 534 -816Q538 -816 546 -814Q556 -808 571 -794Q592 -780 597 -775Q605 -766 614 -748Q623 -728 632 -721Q617 -635 613 -532Q613 -511 614 -500H619Q630 -500 646 -509Q666 -520 678 -520H683Q689 -525 691 -534Q696 -530 698 -518Q710 -517 717 -510Q724 -503 732 -497H736Q746 -498 756 -499Q761 -499 765 -496Q746 -488 738 -472V-470Q740 -464 744 -460Q740 -456 740 -450Q741 -441 742 -433Q742 -425 738 -420V-419Q738 -414 746 -413Q753 -412 754 -409Q753 -401 749 -401Q745 -400 740 -397V-395Q741 -392 742 -389V-387Q686 -370 630 -354Q632 -340 633 -327V-322Q638 -322 641 -326Q643 -330 647 -334Q655 -339 675 -343Q688 -345 695 -348Q703 -344 717 -331Q729 -320 738 -315Q745 -317 751 -319H753L754 -315Q753 -310 751 -305Q754 -306 759 -312Q765 -319 772 -319H774V-317Q774 -312 767 -305Q761 -299 760 -296Q762 -268 764 -240Q764 -220 760 -207Q754 -207 747 -208Q742 -208 740 -207Q736 -206 731 -200Q727 -195 722 -192Q716 -189 709 -186Q687 -168 685 -158V-156Q691 -135 706 -114Q728 -70 742 -57Q752 -57 762 -48Q769 -42 775 -40Q787 -43 792 -54Q797 -65 799 -79Q800 -109 812 -127Q813 -123 813 -115Q812 -96 811 -78Q811 -61 817 -54V-64Q817 -80 823 -115Q829 -147 829 -164V-167Q825 -203 821 -240Q821 -246 823 -258Q823 -267 830 -267Q833 -264 833 -261Q832 -253 830 -246Q833 -224 836 -202Q837 -191 837 -180Q837 -151 836 -123Q836 -87 842 -67Q840 -64 840 -57Q840 -44 846 -36Q848 -49 848 -79V-121Q848 -158 851 -174Q855 -133 856 -89Q857 -45 865 -7Q867 -11 867 -16Z"/>
</svg>