<svg xmlns="http://www.w3.org/2000/svg" viewBox="0 -800 1024 1024">
	<path fill="#000000" d="M301 -309Q301 -314 300 -316Q270 -310 256 -303Q230 -290 230 -268Q230 -264 232 -256Q265 -274 300 -288V-293Q301 -301 301 -309ZM306 -427Q304 -435 304 -454Q305 -478 305 -502Q305 -523 301 -538Q287 -511 281 -481Q275 -467 267 -452Q260 -436 259 -417Q260 -412 260 -408Q266 -410 279 -417Q295 -426 306 -427ZM607 -263Q607 -266 605 -270Q589 -262 569 -252Q550 -242 548 -224Q549 -220 549 -217Q554 -210 558 -198Q575 -201 592 -204H599Q602 -222 605 -240Q605 -246 602 -251Q607 -253 607 -263ZM378 -298Q378 -297 384 -120L380 -94Q386 -87 390 -69Q395 -48 399 -43Q396 -32 396 -17Q396 14 408 26Q398 29 398 42Q399 51 399 60Q399 66 398 69Q377 81 355 83Q347 83 338 80Q333 68 312 58Q295 50 289 41Q284 26 278 11Q269 -7 241 -37H243Q256 -35 265 -30V-32Q264 -50 251 -56Q238 -63 224 -70Q245 -70 269 -67Q284 -86 287 -119Q289 -151 295 -180Q269 -179 248 -169Q236 -163 212 -145Q205 -127 202 -85Q198 -29 185 -13Q167 -10 162 -7Q152 -1 152 12V14Q144 9 141 -1Q102 -4 81 -28Q61 -51 60 -90Q56 -125 48 -171Q47 -191 47 -240Q52 -208 56 -195Q63 -171 75 -160Q101 -197 116 -246Q130 -295 150 -340L152 -373Q156 -407 159 -441Q159 -456 152 -469Q148 -475 133 -486Q118 -497 116 -504V-507Q119 -517 121 -528Q121 -543 107 -556Q90 -572 87 -579Q99 -578 107 -571Q115 -565 124 -559Q126 -563 126 -564Q126 -567 120 -571Q113 -576 112 -580Q124 -578 135 -576Q140 -576 146 -579Q146 -582 139 -582Q134 -582 134 -585V-586Q138 -588 142 -588Q147 -588 156 -585Q178 -603 208 -603Q225 -603 236 -595Q259 -626 297 -696V-697Q297 -700 300 -700H303Q304 -719 318 -730Q330 -739 350 -739Q369 -739 386 -729H399Q397 -719 397 -716Q397 -707 402 -702Q402 -701 411 -701.5Q420 -702 420 -696Q420 -692 421 -690L422 -688Q425 -690 428 -693H429Q425 -688 425 -680Q429 -662 432 -645Q406 -624 395 -587Q384 -550 382 -505Q381 -410 372 -324ZM587 -49V-47Q581 -49 572 -49Q564 -50 559 -55Q559 -63 568 -63Q575 -63 581 -59Q587 -55 587 -49ZM536 -308Q538 -324 554 -332Q570 -341 591 -351Q621 -367 622 -368Q640 -377 652 -377Q665 -377 680 -368Q683 -372 684 -375L688 -374Q691 -374 691 -371Q691 -368 690 -365L691 -362Q696 -363 703 -369Q710 -375 717 -376Q706 -367 703 -356Q703 -352 706 -348L707 -347Q711 -349 714 -351H716V-346Q721 -313 725 -281Q725 -263 716 -250Q704 -238 691 -227Q680 -215 669 -194Q658 -175 652 -147Q644 -138 638 -113Q631 -85 623 -77Q609 -75 608 -66Q603 -70 602 -77Q569 -79 558 -104Q550 -103 544 -98Q541 -95 536 -88Q535 -91 531 -91Q526 -89 520 -88Q506 -89 485 -106Q470 -119 460 -122Q452 -153 431 -191Q410 -228 403 -256Q403 -261 403 -267Q420 -282 420 -306Q458 -304 496 -302H504ZM867 -225Q860 -157 816 -27L806 -5Q807 -3 807 2Q803 15 799 28V31Q800 38 800 45V48Q795 68 775 85Q755 101 740 113Q726 115 724 123Q719 118 715 118Q710 118 708 120Q699 115 681 110Q672 113 662 116Q663 110 664 104V102Q663 99 658 96Q653 94 652 91V89Q648 76 637 64Q635 57 633 49Q631 46 626 43Q620 40 619 36Q620 32 629 32Q635 32 637 31Q637 18 626 12Q619 8 602 5Q586 -8 541 -19Q507 -27 496 -33Q501 -34 512 -34Q530 -34 565 -24Q593 -16 613 -14Q517 -45 475 -62Q506 -61 569 -42Q609 -30 629 -27Q627 -31 614 -36Q596 -42 593 -49Q616 -45 639 -41H644Q667 -48 684 -71Q702 -106 716 -153Q752 -254 773 -372Q780 -397 783 -420Q783 -427 782 -431Q645 -408 543 -362Q531 -354 523 -341Q511 -338 500 -338Q468 -338 454 -365Q453 -371 451 -378Q441 -388 433 -400Q431 -430 422 -449Q438 -461 459 -509Q464 -522 469 -535Q474 -548 487 -555L498 -589Q488 -594 488 -611Q489 -624 489 -637Q489 -653 480 -658H479Q472 -655 465 -653Q462 -654 459 -655L458 -658Q458 -661 466 -666Q472 -670 474 -673Q470 -674 465 -674Q451 -672 437 -670V-673Q438 -683 446 -684Q453 -686 460 -689Q476 -696 488 -710Q500 -723 513 -734Q530 -738 545 -751Q554 -758 568 -776Q577 -780 619 -782Q627 -778 647 -755Q663 -736 679 -736Q685 -736 687 -737Q697 -703 697 -684V-676Q692 -661 681 -642Q674 -624 667 -607Q657 -591 644 -575Q634 -553 629 -536Q628 -534 622 -529Q615 -523 615 -520L616 -517Q618 -514 624 -514Q627 -514 648 -520Q718 -541 775 -547Q783 -561 812 -572Q840 -583 851 -595Q860 -606 866 -616Q872 -625 887 -632V-631Q887 -627 877 -610Q864 -588 864 -577Q864 -568 871 -563Q875 -565 883 -573Q893 -584 904 -586Q892 -569 892 -558Q892 -548 904 -544Q909 -545 916 -549Q927 -555 936 -555Q927 -544 918 -533Q919 -527 929 -519Q937 -512 939 -506Q941 -494 942 -483Q943 -472 955 -466Q943 -409 939 -400Q920 -395 910 -379Q900 -364 895 -343Q887 -300 872 -266Z"/>
</svg>