<svg xmlns="http://www.w3.org/2000/svg" viewBox="0 -800 1024 1024">
	<path fill="#000000" d="M652 25Q651 30 639 30Q626 30 622 23Q626 19 633 19Q644 19 652 25ZM559 -244L583 -251Q579 -296 574 -341H570Q557 -339 544 -338Q537 -338 529 -341Q562 -308 571 -283Q570 -269 559 -244ZM663 -407Q646 -399 627 -391Q609 -384 598 -368Q601 -369 607 -369Q623 -368 632 -357Q641 -346 649 -335Q664 -372 664 -392Q664 -402 663 -407ZM763 -163V-162Q761 -151 758 -140Q758 -134 762 -131Q803 -263 818 -455Q810 -457 807 -457Q787 -454 771 -448Q764 -447 754 -445Q744 -443 742 -437L748 -428Q756 -406 778 -398Q784 -376 784 -358Q784 -330 772 -317H768Q749 -318 730 -320Q722 -320 719 -319Q704 -313 693 -297Q682 -281 673 -271Q686 -275 699 -280Q712 -285 720 -296Q722 -287 725 -283Q742 -286 762 -286H769Q763 -283 758 -280Q753 -277 753 -269Q754 -267 757 -267Q761 -267 765 -268Q767 -268 769 -266Q755 -262 750 -245Q751 -243 754 -243H756L757 -242Q750 -235 745 -229Q745 -225 751 -221Q755 -218 756 -214Q745 -210 725 -206Q693 -200 683 -193Q700 -180 714 -180Q721 -180 728 -184Q730 -172 732 -172Q742 -178 752 -186Q762 -194 772 -196Q753 -179 753 -162Q753 -156 756 -152Q756 -163 763 -163ZM674 22H689Q697 22 701 19Q692 5 658 2Q610 -2 602 -4Q611 -9 626 -9Q649 -7 671 -6Q681 -6 685 -7Q664 -12 611 -15Q575 -17 556 -20Q585 -23 616 -23Q653 -22 689 -22H707Q714 -34 720 -46Q686 -67 648 -109Q645 -103 645 -97Q649 -80 652 -64Q639 -46 636 -31Q632 -30 627 -30Q613 -30 583 -40Q582 -57 565 -62Q576 -70 576 -94Q576 -100 575 -107Q545 -89 520 -53Q507 -34 479 16H475Q454 15 453 -1Q453 -6 454 -8Q452 -11 443 -15Q434 -19 431 -24V-27Q431 -36 440 -50Q435 -66 412 -86Q396 -100 392 -107Q405 -107 424 -90Q438 -77 448 -74Q478 -85 500 -103Q522 -122 542 -142Q527 -140 504 -123Q481 -105 467 -105Q461 -105 449 -110Q450 -112 450 -116Q450 -124 439 -134Q432 -141 430 -145Q432 -162 434 -179V-182Q433 -191 431 -200Q433 -211 440 -218Q448 -225 455 -232Q468 -227 478 -227Q501 -229 525 -238Q504 -254 467 -266Q468 -269 471 -270Q476 -271 476 -274Q473 -292 456 -292Q455 -292 437 -289Q439 -294 449 -297Q456 -299 458 -301V-304Q458 -324 445 -324Q436 -324 425 -313Q414 -302 414 -290V-289Q415 -286 421 -286H424Q429 -286 431 -284Q430 -281 424 -278Q417 -275 417 -269V-268Q417 -265 422 -263Q427 -262 427 -259Q423 -252 423 -241Q425 -224 427 -208Q414 -200 400 -193Q385 -187 375 -176Q373 -154 373 -145Q377 -85 389 -34Q398 3 400 29Q400 35 399 38Q394 54 379 64Q365 73 353 84Q330 75 320 70Q302 61 297 50Q292 38 286 26Q283 14 282 3Q281 -7 267 -10Q269 -12 282 -20Q278 -30 260 -30H254Q245 -30 241 -31Q264 -38 271 -42Q285 -51 289 -68Q291 -100 297 -133Q262 -119 236 -97Q209 -75 181 -53Q163 -4 138 17Q134 14 126 14H118Q113 14 110 13Q100 9 97 1Q93 -7 86 -20Q84 -24 75 -31Q60 -43 59 -49Q57 -57 57 -61Q59 -75 60 -89Q60 -95 59 -97Q53 -114 48 -136Q48 -146 54 -155Q63 -165 74 -173Q82 -183 89 -192Q96 -202 106 -205Q102 -195 102 -187Q103 -184 103 -182Q144 -186 214 -220Q293 -262 316 -272V-278Q319 -308 321 -338Q294 -336 272 -322Q250 -308 229 -295Q204 -281 181 -267Q158 -253 144 -230Q140 -229 132 -229Q109 -229 93 -246Q88 -251 69 -281Q60 -293 51 -305Q51 -308 50 -311Q53 -326 55 -341Q55 -344 54 -347Q53 -353 45 -364Q37 -374 36 -380Q35 -384 35 -390Q37 -405 38 -421V-427Q47 -439 76 -456Q102 -471 112 -484Q112 -478 111 -473Q111 -465 116 -461Q122 -462 128 -468Q132 -471 135 -473Q142 -470 149 -467H152Q203 -468 247 -484Q291 -500 333 -515Q333 -547 325 -581Q323 -594 321 -607Q313 -616 309 -626H321Q346 -654 383 -654Q396 -654 403 -652Q418 -648 423 -638Q427 -629 433 -613Q454 -571 460 -532H462Q474 -535 486 -538H489Q487 -534 477 -527Q467 -520 467 -515Q467 -512 471 -508L472 -507Q476 -509 479 -511Q481 -511 483 -509Q479 -493 480 -474Q481 -455 466 -446V-445L468 -442H471L474 -440Q468 -432 461 -424Q455 -416 454 -405Q454 -401 455 -398Q448 -395 446 -386Q417 -378 393 -367Q385 -327 385 -320Q385 -311 386 -307Q411 -317 436 -328L437 -329L435 -332L436 -334Q441 -332 448 -332Q460 -332 467 -341L468 -344Q466 -349 464 -354V-356Q481 -344 498 -344Q506 -344 516 -347Q503 -359 496 -387Q490 -410 489 -437Q495 -446 499 -468Q503 -487 506 -494Q505 -498 505 -505Q505 -518 512 -540Q518 -559 519 -566V-590Q525 -621 528 -656Q528 -668 525 -677Q512 -674 503 -665Q495 -657 486 -649V-651Q486 -658 497 -673Q507 -692 517 -713Q528 -735 542 -751Q553 -760 563 -770Q572 -780 581 -788Q590 -796 607 -797Q611 -796 615 -796Q644 -790 661 -767Q679 -744 702 -727V-696Q702 -685 704 -667Q672 -631 660 -593Q653 -571 645 -549Q636 -528 633 -506Q686 -527 738 -546Q790 -564 833 -596Q837 -594 844 -594Q855 -594 874 -609Q892 -623 901 -625V-623Q901 -620 895 -616Q888 -611 887 -608Q883 -601 883 -590Q883 -578 890 -572Q894 -573 900 -578Q906 -583 912 -583H914Q909 -573 907 -562V-560Q908 -547 927 -547H941Q941 -543 937 -541Q932 -538 932 -535Q935 -520 947 -508Q951 -504 970 -491Q966 -476 965 -448Q963 -415 961 -404Q939 -400 928 -363Q926 -356 916 -296Q909 -237 901 -190Q870 -74 861 37Q834 62 827 80Q795 90 765 102Q748 90 730 79Q712 67 710 38Q687 32 660 28Q661 22 674 22Z"/>
</svg>