<svg xmlns="http://www.w3.org/2000/svg" viewBox="0 -800 1024 1024">
	<path fill="#000000" d="M933 -791Q930 -785 923 -784Q916 -783 910 -781Q913 -793 925 -795Q930 -795 933 -791ZM66 -489H55V-493Q55 -504 72 -504V-502Q69 -495 66 -489ZM540 51Q534 54 529 54Q525 54 513 48Q514 43 524 43Q538 43 540 51ZM582 -321V-331Q582 -337 580 -338H577Q564 -338 555 -334Q545 -330 545 -322Q545 -317 547 -314Q552 -316 582 -321ZM574 -398V-401Q573 -407 572 -413Q573 -415 573 -418H571Q549 -418 531 -390Q536 -387 541 -387Q558 -391 574 -398ZM645 -336H650Q657 -336 671 -338Q672 -354 683 -368Q679 -369 673 -369Q645 -369 645 -336ZM650 -424V-421Q664 -423 673 -430Q682 -437 692 -443Q695 -436 699 -435Q704 -434 712 -433Q720 -455 733 -479Q681 -477 653 -455V-451Q652 -437 650 -424ZM253 -255H250Q239 -256 219 -266Q199 -276 190 -276Q183 -276 176 -272L175 -275Q175 -283 189 -291Q176 -323 170 -380Q188 -375 190 -375Q198 -375 202 -380Q194 -385 191 -395H194Q201 -395 219 -387Q234 -380 244 -380Q247 -380 250 -381Q257 -374 278 -372Q282 -372 284 -376Q287 -381 290 -381L292 -380Q290 -376 288 -372Q295 -349 303 -329Q312 -309 314 -282Q301 -272 288 -264Q275 -256 253 -255ZM883 -629V-619Q875 -627 873 -640Q855 -644 837 -648Q832 -648 829 -647Q818 -665 767 -725Q767 -747 778 -760Q799 -783 822 -783Q826 -783 838 -781Q846 -787 851 -797Q852 -784 858 -776Q864 -768 869 -760Q879 -764 886 -770Q893 -776 906 -777Q883 -767 883 -753Q883 -747 889 -741Q897 -743 904 -746H906V-744Q906 -742 901 -738Q896 -733 895 -729Q900 -717 904 -705Q909 -702 924 -702H936Q947 -702 954 -699Q937 -696 921 -693Q904 -689 903 -669V-663Q883 -659 883 -629ZM167 -465V-468Q167 -475 171 -481Q165 -502 146 -502Q139 -502 127 -495Q132 -502 141 -508Q153 -516 156 -521Q154 -532 148 -540H126Q113 -538 99 -527Q84 -514 78 -513Q83 -531 109 -553Q126 -568 133 -578Q127 -600 101 -600H96Q99 -607 110 -619Q128 -638 129 -650Q126 -665 123 -680Q132 -692 145 -692Q150 -692 153 -691Q158 -697 159 -703L202 -680Q214 -683 216 -699Q220 -678 227 -666Q235 -651 249 -651H253Q258 -660 260 -672Q262 -684 273 -687Q265 -663 265 -657Q265 -651 266 -648Q279 -638 294 -631Q297 -631 299 -635Q301 -639 304 -639H306L307 -636Q306 -631 305 -627Q320 -567 331 -504Q322 -487 320 -446Q296 -444 287 -444Q234 -444 182 -473Q179 -473 175 -468Q172 -464 170 -464ZM343 -230V-229Q343 -226 336 -219Q324 -206 324 -198Q324 -195 331 -183Q331 -177 330 -171Q330 -136 341 -123Q267 -88 241 -47Q233 -33 233 -21Q233 -18 235 -10Q218 7 213 11Q199 22 185 25Q171 27 161 27Q135 27 123 19Q118 13 114 3Q105 -3 96 -9Q78 -23 75 -39Q74 -43 74 -51Q75 -67 75 -83V-89Q71 -106 66 -123V-126Q68 -136 78 -150Q83 -161 86 -170Q89 -179 97 -185Q100 -208 115 -217V-189Q115 -171 124 -165Q173 -178 255 -216Q325 -249 362 -260Q339 -247 336 -244Q322 -233 321 -217Q323 -217 328 -222Q336 -229 343 -230ZM746 124H743Q738 124 726 131Q716 137 710 137Q696 136 679 122Q661 108 648 98Q611 72 552 51H557Q591 56 625 60H627Q612 53 573 45Q529 36 512 28Q530 28 567 35Q604 42 627 42Q608 34 591 24H594Q608 25 621 26Q634 26 641 21Q659 -3 659 -71V-96Q597 -93 567 -84Q572 -73 599 -71V-69Q599 -58 606 -46Q612 -35 612 -29Q608 -5 591 6Q587 8 578 8Q552 5 525 2Q520 3 515 3H513Q510 5 506 7L505 8L503 6V5L502 3Q490 5 475 18Q461 30 451 33Q456 19 474 2Q489 -12 494 -21Q490 -26 484 -26Q482 -26 462 -18V-20Q463 -25 472 -32Q482 -39 488 -44L485 -53H479Q465 -53 446 -36Q429 -20 417 -20H415Q397 -20 375 -40Q352 -61 352 -81Q352 -95 365 -105Q360 -113 360 -120Q360 -138 389 -154Q396 -158 435 -173Q425 -165 420 -153L423 -147Q428 -146 432 -146Q467 -151 503 -162Q541 -167 578 -170Q614 -174 647 -185V-188Q647 -198 655 -204Q663 -210 675 -211V-217Q674 -241 672 -266V-272Q670 -277 660 -277Q653 -277 651 -275Q645 -259 642 -239Q640 -215 621 -210H616Q590 -210 588 -257Q568 -253 552 -246Q550 -225 548 -201Q546 -180 523 -178Q517 -178 513 -179Q490 -185 478 -204Q471 -216 467 -243Q462 -272 457 -282Q456 -284 433 -312Q421 -332 411 -342Q393 -356 380 -366Q367 -376 364 -399V-404Q366 -420 367 -437Q366 -449 357 -471Q350 -487 350 -495Q354 -492 359 -482Q363 -472 367 -470Q370 -470 370 -476V-481H371Q374 -478 377 -476Q391 -487 417 -487Q455 -487 472 -468V-466Q470 -462 468 -459Q494 -473 567 -495V-522Q537 -516 519 -498Q482 -500 472 -509Q461 -522 453 -539Q449 -545 440 -552Q431 -559 427 -565Q427 -610 462 -666Q472 -656 492 -656Q520 -656 541 -671V-690Q564 -721 610 -726Q635 -726 645 -706Q671 -716 694 -723Q705 -730 716 -738Q727 -747 744 -749L745 -748Q741 -745 737 -736V-734Q740 -731 743 -731Q749 -734 755 -737Q749 -731 749 -725Q749 -719 761 -707Q772 -697 774 -690Q778 -681 778 -663Q778 -648 777 -633Q777 -621 780 -608Q708 -595 660 -558V-554Q658 -543 656 -533Q662 -531 665 -531Q682 -534 697 -542Q716 -547 734 -553Q750 -558 775 -578Q792 -592 801 -596Q813 -600 823 -600H827Q831 -599 842 -593Q852 -587 859 -587Q863 -587 869 -590Q870 -589 870 -585V-582Q886 -598 904 -606Q903 -602 894 -593Q885 -584 885 -574V-571H886Q892 -576 904 -584Q900 -576 900 -568Q901 -555 910 -545Q919 -535 927 -527Q925 -521 925 -518Q928 -505 933 -493Q925 -482 922 -464V-462Q888 -450 858 -413Q834 -383 817 -341Q794 -278 784 -201Q800 -202 832 -214Q861 -225 879 -227Q877 -222 875 -217Q881 -218 896 -225Q913 -233 928 -233Q922 -227 915 -222Q909 -216 907 -206L911 -205Q920 -207 928 -210Q921 -205 918 -198Q924 -188 932 -188H936Q933 -182 933 -176Q933 -169 936 -162Q924 -139 921 -123Q912 -118 906 -111Q878 -118 835 -118Q776 -118 747 -104Q746 -69 744 -34V-21Q745 -6 755 25Q764 52 764 67V69Q763 79 756 94Q746 113 746 124Z"/>
</svg>