<svg xmlns="http://www.w3.org/2000/svg" viewBox="0 -800 1024 1024">
	<path fill="#000000" d="M661 -34V-33Q639 -37 637 -47Q639 -48 645 -48Q661 -48 661 -34ZM144 -689Q135 -690 135 -700Q135 -703 137 -711Q138 -713 138 -716L142 -717Q147 -717 147 -709Q147 -704 144 -689ZM472 -258V-263Q472 -272 468 -273Q440 -265 435 -262Q419 -254 413 -240Q425 -241 447 -250Q462 -256 472 -258ZM535 -189Q513 -195 501 -207Q484 -205 472 -198Q482 -184 492 -177Q510 -180 535 -189ZM489 -333Q495 -364 495 -369Q466 -362 448 -344Q434 -335 425 -330Q415 -325 412 -311Q422 -314 437 -322Q460 -335 474 -335Q479 -335 489 -333ZM797 -318Q800 -342 800 -350Q800 -367 796 -374Q742 -356 719 -327Q721 -313 723 -299Q733 -300 751 -310Q770 -320 783 -320Q792 -320 797 -318ZM739 -455V-446Q748 -448 763 -458Q782 -471 796 -471Q803 -471 806 -470Q816 -540 816 -562V-574Q787 -551 766 -516Q754 -500 747 -487Q739 -474 739 -455ZM268 -284V-282Q257 -281 249 -267Q221 -260 204 -260Q198 -260 192 -261Q183 -263 170 -269Q152 -278 143 -278Q139 -278 133 -276L132 -279Q135 -284 141 -288Q133 -303 124 -316Q115 -330 101 -338Q105 -343 110 -347V-351Q110 -360 105 -368Q101 -375 100 -378H102Q108 -376 114 -374Q128 -390 157 -390H163Q177 -386 190 -383Q195 -382 204 -382H218Q233 -382 240 -375Q247 -360 257 -346Q267 -332 268 -314Q268 -306 265 -297Q267 -290 268 -284ZM244 -446H242Q223 -451 197 -456Q193 -455 189 -455H187Q181 -458 175 -461Q174 -458 172 -456Q158 -459 144 -462Q139 -462 136 -461V-463Q137 -468 138 -473Q129 -479 120 -486Q102 -478 79 -449H77Q74 -448 70 -447Q79 -463 92 -479Q106 -495 107 -511Q107 -524 94 -537H89Q81 -536 73 -536Q74 -543 80 -547Q85 -550 89 -555Q86 -565 79 -570H77Q63 -570 47 -562Q32 -554 23 -554Q35 -567 50 -576Q65 -585 80 -594Q79 -604 68 -611Q84 -617 84 -630Q84 -640 73 -657Q79 -656 86 -649Q90 -645 94 -643Q102 -651 117 -651Q125 -651 129 -650Q138 -662 139 -681Q143 -671 146 -660Q149 -648 162 -645H163Q166 -645 168 -649Q170 -653 173 -653H174Q177 -644 180 -636Q190 -628 199 -620Q205 -625 211 -639Q220 -659 230 -662Q229 -656 221 -642Q212 -626 212 -617Q212 -612 213 -609Q217 -599 228 -596Q239 -593 249 -588Q254 -585 270 -555Q279 -542 288 -530Q291 -513 295 -491Q287 -481 287 -469Q288 -465 288 -461Q281 -459 270 -454Q253 -446 244 -446ZM845 92H843Q828 91 809 72Q798 59 789 46Q780 32 759 31H757Q760 30 765 30Q769 30 770 25Q766 10 755 3Q743 -5 728 -10Q697 -17 674 -33H677Q692 -33 713 -27Q737 -20 751 -20H754Q735 -31 688 -47Q638 -64 618 -77Q640 -74 684 -61Q727 -48 751 -44Q750 -49 736 -53Q719 -58 717 -63Q738 -60 759 -58Q772 -58 781 -62Q791 -109 791 -228Q750 -223 723 -195Q730 -165 730 -137Q730 -83 694 -83Q686 -83 677 -86Q671 -84 671 -77V-74Q664 -79 659 -85Q653 -91 644 -93Q644 -106 634 -120Q638 -214 638 -248Q638 -318 628 -374Q615 -369 610 -350Q568 -326 568 -231Q568 -211 569 -201Q586 -204 596 -225Q598 -211 603 -198Q612 -199 620 -201H624Q618 -195 615 -188Q616 -186 617 -183Q618 -180 621 -180H624Q622 -177 622 -169Q624 -154 626 -140Q626 -137 625 -135Q609 -133 609 -116V-113Q526 -103 499 -87Q498 -84 498 -78Q500 -57 502 -36V-32Q501 -28 499 -24Q502 -10 504 3Q499 37 472 45H468Q459 45 450 37Q442 30 437 30H436Q423 2 406 -20Q412 -40 418 -60Q391 -53 383 -50Q364 -43 353 -32Q348 -23 342 -14Q329 -6 314 -5Q307 -6 301 -13Q295 -20 288 -27Q273 -32 260 -44Q257 -50 257 -58Q261 -80 267 -104Q262 -104 252 -94Q244 -86 237 -84L236 -82L238 -79L237 -77Q213 -64 191 -41Q187 -37 153 4Q150 39 127 43H124Q110 40 92 30Q67 22 37 16Q32 10 27 3Q27 -1 26 -6Q26 -17 32 -36Q36 -49 36 -56Q36 -68 29 -75Q36 -93 47 -108Q58 -123 67 -138Q74 -154 82 -172Q90 -189 107 -197Q87 -170 87 -150Q87 -141 88 -137Q133 -150 204 -197Q268 -239 304 -251Q303 -246 290 -235Q277 -224 277 -212H279Q283 -212 289 -219Q293 -223 296 -225Q296 -220 290 -211Q282 -199 282 -190V-186Q284 -183 285 -183Q288 -186 291 -189L293 -188Q292 -185 292 -180Q294 -166 296 -152V-147Q289 -143 286 -135Q293 -134 300 -134Q332 -135 364 -144Q395 -154 427 -161V-164Q429 -173 430 -183Q428 -183 425 -184Q410 -182 399 -170Q388 -157 372 -155Q351 -161 338 -183Q335 -189 334 -203Q333 -216 330 -222Q326 -228 322 -234Q318 -250 313 -267Q308 -278 294 -289Q282 -298 279 -306Q273 -319 273 -338Q273 -382 296 -389Q295 -398 293 -407Q293 -411 296 -414Q300 -412 301 -404Q303 -394 307 -393Q312 -395 312 -400L311 -404Q337 -401 368 -378Q402 -388 442 -408Q441 -424 439 -441V-446Q421 -442 410 -431Q399 -419 388 -408Q360 -413 339 -426Q334 -435 328 -444Q318 -453 311 -459Q303 -466 303 -481Q303 -490 304 -496Q309 -508 313 -521Q312 -529 310 -537Q311 -559 325 -573Q339 -588 353 -600V-592Q353 -588 354 -587Q359 -586 363 -586Q384 -586 430 -611Q427 -626 427 -636V-648Q427 -661 425 -668Q422 -679 416 -691Q407 -708 407 -717Q407 -728 413 -738Q422 -754 439 -768Q458 -783 477 -783Q490 -783 501 -775Q514 -759 528 -735Q533 -729 538 -725Q543 -720 545 -711V-704Q544 -686 542 -668Q542 -657 545 -651Q557 -653 575 -664Q596 -676 612 -678Q602 -669 590 -662Q578 -655 573 -640H575Q580 -640 587 -646Q595 -653 599 -653Q598 -648 589 -639Q581 -631 581 -626Q581 -622 584 -618L585 -617Q587 -619 594 -622L597 -621Q590 -598 590 -585Q590 -574 594 -567Q592 -559 585 -549Q575 -535 575 -523V-519Q565 -512 542 -504Q512 -494 502 -483Q500 -464 492 -433Q497 -435 505 -447Q512 -457 516 -461Q540 -483 562 -483Q574 -483 581 -476Q582 -497 590 -515Q596 -527 609 -545Q611 -564 620 -576Q629 -589 636 -603Q644 -597 664 -592Q689 -586 696 -579Q778 -655 819 -705Q830 -742 872 -774Q879 -774 885 -775Q900 -775 935 -764V-760Q935 -748 942 -748Q948 -748 955 -755Q954 -746 952 -738Q952 -735 954 -729Q958 -723 963 -719Q964 -718 964 -712V-705Q969 -693 973 -681V-678Q971 -660 969 -643V-639Q962 -636 953 -632Q944 -628 939 -620Q936 -612 935 -605Q929 -599 924 -590Q914 -531 906 -452Q902 -346 899 -305Q901 -298 902 -291Q897 -276 897 -257Q897 -242 902 -230Q900 -202 900 -184Q900 -105 917 -60Q926 -39 926 -38Q927 -31 927 -19Q927 14 909 45Q904 54 875 92Q869 89 864 89Q855 91 845 92Z"/>
</svg>