<svg xmlns="http://www.w3.org/2000/svg" viewBox="0 -800 1024 1024">
	<path fill="#000000" d="M203 6V5Q221 9 224 16Q222 17 219 17Q211 15 202 13L201 11Q202 9 203 6ZM932 -419H930Q927 -419 923 -425V-427Q923 -432 930 -441H932Q935 -439 937 -438Q935 -428 932 -419ZM648 -375Q629 -371 612 -363Q591 -353 587 -341Q595 -343 614 -344Q636 -345 645 -349Q641 -354 641 -362Q641 -371 648 -375ZM669 -223V-230Q636 -226 603 -212Q553 -195 525 -164Q547 -172 574 -176H579Q584 -175 595 -175Q630 -175 671 -188Q670 -205 669 -223ZM634 -50H636Q675 -56 713 -62Q719 -80 730 -92Q741 -105 752 -118Q679 -111 628 -89Q631 -69 634 -50ZM642 -516V-513Q644 -494 661 -487Q672 -494 681 -497Q687 -518 706 -555Q720 -583 725 -596Q699 -587 672 -579Q656 -573 643 -562Q626 -549 624 -536Q632 -526 642 -516ZM778 90H775Q764 87 751 73Q738 59 730 59Q723 59 714 67Q716 56 723 52Q714 39 707 25Q688 29 669 30Q650 31 640 43Q635 59 630 74Q620 76 615 76Q600 76 584 67Q581 65 561 52Q565 38 566 36Q554 6 543 -25Q531 -56 505 -73Q498 -50 488 -28Q479 -7 455 1Q426 -10 409 -29Q405 -35 402 -48Q398 -67 390 -73V-80Q390 -103 366 -110Q374 -113 386 -113Q375 -123 362 -127Q361 -121 361 -107Q361 -87 372 -10Q376 12 376 28Q376 71 350 76Q347 77 344 77Q330 76 318 69Q305 61 296 56Q288 53 280 49Q271 38 261 26Q253 22 246 22Q239 22 234 14Q236 13 239 13Q244 14 248 14H251Q233 4 196 -7Q160 -17 147 -23Q161 -23 195 -15Q231 -7 249 -7H252Q249 -14 240 -14Q231 -15 222 -16Q208 -21 193 -26Q198 -30 208 -30Q227 -27 246 -25Q250 -25 258 -27Q267 -45 270 -70Q272 -95 276 -118Q254 -110 245 -99Q242 -95 238 -84Q233 -71 227 -67Q219 -62 207 -62Q176 -63 162 -80H156Q134 -80 119 -97Q105 -113 105 -134Q105 -155 120 -170Q118 -182 118 -189Q118 -202 123 -208Q140 -229 151 -239Q155 -236 159 -233H160Q167 -233 209 -245Q262 -258 291 -272V-280Q292 -304 293 -329Q293 -337 291 -349Q255 -343 219 -326Q195 -315 175 -303Q169 -298 162 -284Q151 -262 141 -260Q137 -259 133 -259Q108 -259 97 -266Q94 -268 88 -277Q80 -289 74 -294Q57 -306 42 -317Q27 -328 23 -350Q21 -360 21 -380Q22 -454 55 -485Q66 -493 82 -501Q104 -512 112 -518Q124 -528 136 -539Q147 -550 163 -554V-553Q163 -550 151 -540Q142 -533 138 -527Q134 -517 130 -507H131Q136 -507 143 -514Q150 -521 156 -522L157 -519Q154 -513 150 -503V-501Q168 -499 177 -499Q221 -499 289 -518Q296 -542 296 -567Q296 -593 289 -611Q284 -622 274 -631Q265 -640 264 -656V-659Q266 -688 290 -709Q313 -730 342 -730Q366 -730 386 -714Q392 -701 397 -689Q403 -683 409 -677Q416 -666 421 -647Q424 -641 427 -635V-633Q427 -626 423 -615Q418 -601 418 -592V-588Q403 -575 403 -558Q404 -554 404 -550Q424 -550 438 -556Q452 -563 467 -569Q469 -568 469 -562Q469 -556 474 -554L476 -553Q481 -554 485 -556Q488 -556 489 -554Q487 -546 487 -544Q487 -529 501 -527Q493 -522 493 -513Q492 -504 490 -495Q488 -489 481 -483Q474 -478 472 -473L475 -472Q482 -476 488 -480Q490 -479 492 -478Q490 -472 483 -466Q473 -457 472 -449L475 -447Q478 -447 481 -448L484 -446Q466 -428 466 -412Q466 -409 468 -403Q423 -387 375 -375Q363 -356 363 -302Q389 -306 412 -318Q434 -329 458 -338Q453 -329 437 -321Q419 -312 415 -302L419 -301Q428 -303 437 -306H439Q439 -304 434 -298Q426 -288 426 -282Q426 -276 430 -272L432 -271H440Q434 -232 428 -193Q398 -185 390 -173Q359 -168 359 -142V-140Q374 -134 386 -134Q418 -137 435 -168Q452 -199 468 -225Q470 -239 470 -245Q470 -266 461 -281Q462 -301 473 -311Q484 -321 495 -331Q499 -329 504 -329H507Q527 -399 531 -415Q542 -464 542 -507L544 -510Q507 -517 507 -548Q485 -568 483 -592V-595Q483 -600 488 -613Q494 -628 494 -639Q494 -646 493 -650Q502 -665 517 -674Q532 -683 548 -691Q552 -687 556 -683Q587 -684 621 -695Q640 -701 677 -716Q703 -719 761 -743Q816 -766 846 -766Q860 -766 877 -761Q883 -765 896 -768Q899 -768 899 -764Q899 -760 898 -757Q904 -758 911 -766Q919 -774 926 -776Q919 -759 914 -739Q914 -730 923 -725Q927 -732 936 -734H939Q936 -726 936 -720Q936 -707 955 -683Q947 -650 940 -613Q898 -605 877 -560Q821 -485 806 -407Q778 -389 769 -385Q749 -396 719 -400Q727 -390 736 -383Q746 -375 748 -360Q765 -368 804 -370Q839 -372 853 -377Q861 -381 868 -386Q891 -390 910 -400Q913 -403 915 -407Q918 -412 923 -412H924Q927 -409 927 -402V-395Q927 -384 933 -383Q941 -385 948 -388Q950 -388 952 -386L954 -384Q952 -379 950 -374Q950 -371 951 -369V-368Q951 -365 955 -364Q960 -362 961 -362Q956 -357 956 -348Q959 -329 967 -314Q954 -283 946 -272Q920 -267 917 -265Q909 -268 881 -268Q848 -268 813 -265Q760 -263 748 -254Q738 -245 736 -232Q735 -218 733 -202Q740 -202 759 -207Q790 -215 809 -215Q826 -236 860 -238Q878 -238 887 -230H888Q895 -233 901 -236H902Q903 -234 903 -231Q903 -227 902 -224Q902 -219 907 -215Q917 -224 927 -231L928 -227Q926 -220 923 -214H924Q928 -214 936 -221Q947 -231 955 -231Q953 -226 947 -216Q939 -203 939 -195V-191Q943 -184 949 -179Q960 -161 960 -142Q957 -128 953 -114Q954 -111 954 -108Q934 -103 930 -86H924Q900 -86 879 -60Q869 -48 850 -13L829 28Q820 49 816 65Q811 82 796 91Q793 89 788 89Q783 90 778 90Z"/>
</svg>