<svg xmlns="http://www.w3.org/2000/svg" viewBox="0 -800 1024 1024">
	<path fill="#000000" d="M741 -41Q749 -44 750 -47Q747 -46 744 -45Q741 -44 741 -41ZM45 -516H47Q41 -505 38 -491Q33 -494 33 -502Q33 -508 36 -512Q39 -516 45 -516ZM565 39Q563 35 563 33Q563 28 580 22L581 26Q581 37 565 39ZM907 -607V-612H910Q918 -609 918 -599Q918 -593 914 -587Q907 -593 907 -607ZM504 -176Q501 -178 496 -179Q492 -180 491 -185Q487 -183 483 -182Q481 -188 479 -195Q475 -193 473 -193Q466 -194 459 -195Q454 -195 451 -191Q456 -188 463 -180Q472 -170 479 -167Q492 -171 504 -176ZM668 -218Q627 -169 612 -131Q655 -170 668 -218ZM454 -237Q459 -254 464 -272Q458 -274 455 -274Q442 -274 431 -264Q420 -254 420 -242Q420 -232 430 -225Q441 -232 454 -237ZM479 -373V-377Q447 -358 431 -345Q420 -337 408 -327Q395 -316 394 -303Q394 -297 397 -291Q415 -304 432 -317Q450 -330 476 -335Q478 -354 479 -373ZM766 -150V-151Q768 -155 770 -160V-161Q761 -157 752 -153H751Q753 -156 760 -160Q769 -165 769 -169V-170Q754 -159 739 -155Q804 -194 836 -269Q810 -255 804 -245Q799 -236 795 -221Q791 -206 782 -204Q773 -209 760 -225Q759 -226 756 -231Q753 -238 748 -239Q736 -203 736 -137Q736 -128 739 -50Q803 -93 831 -159Q808 -140 785 -134Q782 -135 778 -143Q774 -151 770 -151ZM211 -365V-359Q210 -341 197 -328Q184 -315 175 -299Q170 -301 161 -301Q139 -301 125 -287Q125 -301 116 -301Q97 -295 86 -285Q86 -290 97 -314Q82 -332 65 -352Q48 -372 46 -399Q46 -407 47 -411Q44 -419 41 -428L42 -431Q52 -429 59 -425Q74 -438 97 -440Q99 -442 101 -444Q109 -446 112 -446Q134 -444 148 -428Q162 -411 175 -404Q191 -414 202 -416Q200 -405 197 -394V-392Q198 -386 205 -376Q210 -369 211 -365ZM54 24V21Q54 7 42 -16Q29 -40 29 -53Q29 -76 48 -126Q67 -174 80 -186Q74 -172 74 -148Q74 -134 77 -128Q91 -134 107 -150Q146 -191 177 -240Q208 -289 240 -336V-334Q240 -327 234 -312Q227 -294 227 -286Q227 -282 229 -276Q232 -287 242 -290Q242 -283 233 -268Q224 -252 224 -246V-242H225Q227 -242 231 -246Q236 -252 239 -252Q229 -239 229 -200Q230 -196 232 -196Q236 -196 239 -197Q233 -189 233 -181Q234 -173 232 -164Q225 -144 214 -125Q199 -92 197 -86Q177 -47 172 -6Q172 4 175 13Q170 27 165 48Q148 55 131 55Q104 55 98 37Q76 37 54 24ZM763 -353V-338Q777 -360 816 -392Q851 -421 865 -440Q803 -522 762 -573Q722 -520 698 -447Q694 -436 688 -424Q679 -407 674 -407Q666 -413 657 -420Q643 -433 632 -446Q621 -459 606 -465V-467Q607 -469 607 -472L606 -473Q598 -469 588 -469L584 -470Q585 -472 592 -474Q599 -476 600 -480H594Q573 -478 557 -471Q559 -464 563 -461V-463Q563 -467 568 -467H574Q569 -457 569 -454V-452Q570 -449 574 -449Q577 -449 578 -447Q574 -445 574 -436V-425Q580 -421 582 -400Q583 -386 587 -380Q525 -303 519 -188Q511 -187 507 -176Q522 -178 532 -193Q547 -216 550 -218Q548 -212 548 -206Q548 -197 553 -192Q561 -225 571 -257Q581 -289 600 -314Q587 -294 587 -269V-260Q592 -264 596 -277Q600 -290 604 -294Q603 -282 601 -270Q613 -281 628 -301Q649 -330 653 -334Q685 -371 731 -372V-370Q731 -366 735 -361Q739 -356 739 -350H741Q744 -352 746 -354H747Q744 -346 744 -335Q744 -325 748 -309Q753 -334 763 -353ZM917 17V22Q914 72 871 82Q867 80 864 76Q862 72 859 72Q856 72 854 73Q851 60 843 53Q835 45 828 36Q830 30 830 27Q829 18 823 14Q816 10 810 6Q812 4 814 4Q815 4 824 7Q827 1 828 1Q828 -6 816 -8Q806 -10 804 -14H805Q824 -15 831 -29Q837 -44 843 -59Q831 -48 820 -36Q808 -25 785 -24Q778 -29 770 -36H766Q758 -36 750 -33Q750 -37 755 -39Q759 -41 760 -44H757Q745 -42 738 -35L740 -32L742 -33L744 -32Q737 -26 737 -15Q739 -2 740 11Q740 22 735 28Q724 26 713 20Q700 13 695 12Q693 0 691 -4Q687 -12 679 -12H677V-14Q679 -25 681 -37V-41Q668 -19 640 42H635Q628 42 621 41Q618 41 616 42Q616 36 608 28Q603 22 601 16H600Q596 18 591 20L588 19Q588 15 592 14Q597 13 598 8V7Q584 13 569 18Q572 12 583 5Q591 0 594 -5Q575 0 559 15Q568 -1 601 -27Q625 -46 636 -59Q666 -96 684 -156Q671 -144 663 -125Q655 -106 648 -86Q646 -85 642 -85H632Q629 -85 627 -84Q626 -90 621 -96Q615 -103 615 -107L607 -101L606 -103Q609 -108 612 -113H610Q604 -113 602 -105Q600 -99 598 -98L600 -102Q600 -104 596 -106Q592 -108 592 -109L593 -111L591 -112Q589 -112 581 -108L580 -109Q583 -111 586 -116V-117H584Q580 -117 575 -109Q570 -102 566 -101Q559 -114 551 -128Q549 -124 548 -118Q548 -112 542 -111H541V-109Q542 -104 542 -100V-98Q527 -90 513 -82Q499 -75 491 -62Q491 -53 490 -44Q490 -25 494 -12Q488 -6 488 10V23Q488 36 486 42Q476 51 457 51Q438 51 433 39Q427 42 421 45L425 31Q424 26 414 18Q404 10 403 3Q403 1 402 -2Q405 -16 407 -30Q407 -35 406 -38Q374 -24 342 -10Q305 5 298 51H289Q257 49 248 24Q239 -1 230 -26V-33Q231 -53 232 -74V-81Q249 -103 266 -125Q283 -147 308 -161Q296 -149 296 -130Q296 -121 300 -114Q403 -141 412 -143V-148Q412 -157 411 -167Q403 -163 396 -163Q395 -163 383 -165H371Q354 -171 344 -189Q335 -206 322 -223Q309 -238 295 -243Q281 -249 267 -258Q266 -286 264 -315Q264 -354 279 -374V-376Q278 -381 277 -386Q277 -388 279 -390Q289 -383 298 -374Q312 -374 326 -375Q344 -375 353 -368Q412 -403 428 -416Q427 -445 422 -476Q364 -455 342 -398Q319 -399 302 -411Q285 -423 282 -443V-447Q284 -460 285 -473V-476Q283 -489 265 -509Q254 -521 252 -528H254Q262 -525 270 -522Q269 -526 246 -540V-538Q246 -530 239 -511Q231 -489 231 -476Q231 -468 232 -464Q228 -467 224 -471Q216 -471 208 -467H204Q184 -469 168 -483Q151 -497 137 -503Q135 -503 132 -504Q124 -504 120 -496Q114 -485 112 -483Q113 -486 113 -493Q113 -511 106 -526Q98 -543 86 -545H82Q62 -543 53 -521V-525Q54 -536 60 -546Q67 -555 73 -564Q70 -593 44 -593Q59 -605 59 -629Q58 -662 35 -678H37Q42 -678 48 -672Q55 -666 59 -666Q66 -666 77 -676Q92 -689 101 -689H104Q105 -693 105 -697Q103 -715 101 -733Q101 -738 103 -746Q116 -710 129 -674Q147 -664 163 -661Q166 -661 168 -662Q173 -663 180 -671Q189 -681 196 -681H199Q194 -669 194 -662Q195 -646 205 -632Q215 -618 223 -603Q234 -573 245 -543Q259 -541 273 -539Q278 -541 280 -546Q283 -550 290 -551H294Q297 -560 300 -569Q303 -571 309 -571Q319 -570 328 -569H330Q343 -570 371 -587Q402 -606 421 -608Q415 -643 403 -672Q388 -669 381 -659Q382 -665 390 -675Q398 -686 400 -694Q399 -701 398 -708Q399 -710 399 -713Q402 -722 413 -730Q423 -739 431 -744Q440 -752 449 -762Q459 -772 467 -774H468Q486 -771 498 -746Q510 -721 522 -708Q510 -686 507 -658Q507 -651 508 -648Q530 -655 551 -662Q543 -658 543 -650Q545 -634 567 -632H572Q548 -621 547 -593Q547 -587 551 -575Q542 -572 540 -561Q538 -549 536 -539Q520 -531 492 -515Q490 -495 488 -475Q489 -471 489 -467Q495 -472 503 -478Q510 -484 519 -485Q522 -485 528 -483Q534 -485 539 -488Q548 -485 556 -479Q593 -502 627 -555Q650 -591 680 -657Q689 -671 691 -684Q691 -688 690 -690Q688 -699 661 -708Q669 -718 680 -723V-725Q679 -728 678 -731Q703 -765 738 -765Q756 -765 772 -753Q805 -722 813 -675V-672Q813 -667 806 -658Q800 -650 800 -645Q800 -639 816 -618Q829 -601 837 -593L902 -527Q904 -529 904 -533Q904 -536 903 -540Q903 -544 905 -546Q908 -545 910 -533Q912 -535 912 -542Q912 -552 911 -563Q911 -571 913 -575Q917 -546 923 -521Q928 -528 928 -551Q940 -498 947 -483Q949 -487 951 -491Q961 -458 961 -433Q961 -393 937 -393H936Q929 -393 926 -397Q924 -400 919 -404Q913 -402 913 -391V-386L915 -383L919 -384H922V-379Q922 -367 932 -351Q941 -337 941 -329Q936 -317 933 -304Q933 -299 934 -296Q917 -267 917 -198Q918 -177 918 -156Q918 -139 917 -123L914 -36V-30Q916 -6 917 17Z"/>
</svg>