<svg xmlns="http://www.w3.org/2000/svg" viewBox="0 -800 1024 1024">
	<path fill="#000000" d="M910 -711H906V-712Q906 -723 916 -723Q921 -723 924 -720Q921 -711 910 -711ZM869 -168V-170Q873 -171 877 -172Q879 -172 881 -170Q879 -156 872 -146Q868 -149 868 -155Q869 -161 869 -168ZM91 -85Q89 -80 80 -80Q69 -80 66 -85Q66 -94 75 -94Q86 -94 91 -85ZM851 -291Q849 -272 838 -265Q837 -268 837 -276Q837 -293 845 -293Q847 -293 851 -291ZM797 -590H795Q792 -590 790 -586Q788 -583 786 -583H785Q780 -591 774 -599Q768 -600 754 -611Q741 -622 733 -622Q725 -622 718 -614Q721 -623 723 -633Q723 -636 722 -638Q721 -641 715 -646Q708 -651 705 -655Q681 -682 679 -705Q679 -709 678 -713Q679 -729 691 -749Q700 -754 708 -759V-779Q713 -777 717 -771Q721 -765 724 -764Q733 -767 738 -773Q742 -779 747 -785Q751 -753 767 -752H768Q779 -753 788 -766Q797 -779 805 -786Q799 -773 795 -756Q795 -749 802 -743Q830 -747 848 -763Q867 -779 887 -789Q884 -781 857 -762Q832 -744 832 -728V-725Q833 -715 841 -708Q849 -702 856 -695Q861 -696 873 -704Q886 -712 897 -713Q895 -709 887 -703Q877 -696 875 -689V-684Q875 -653 896 -648Q878 -639 878 -598Q878 -584 879 -578Q874 -578 871 -583Q868 -588 865 -589Q848 -582 830 -582Q810 -582 797 -590ZM857 -28V-39Q857 -81 866 -133Q871 -123 871 -101Q870 -77 869 -54Q869 -33 876 -23Q874 -11 874 -7Q874 19 891 53Q873 99 844 112Q836 108 824 108Q816 109 807 109Q799 109 795 108Q786 103 777 97Q754 90 738 82Q721 63 708 37Q687 5 626 -101Q598 -152 576 -203Q553 -253 523 -291Q496 -227 458 -159Q419 -91 385 -25Q373 3 359 38Q345 73 315 80H311Q300 79 289 77Q281 77 276 83Q271 69 249 52Q229 37 223 25V23Q223 21 228 13Q212 3 192 -1Q197 -4 213 -5Q225 -6 228 -13V-15Q225 -30 214 -38Q202 -45 181 -47Q159 -48 139 -50Q109 -54 66 -64Q80 -67 94 -67Q142 -62 190 -58Q207 -58 219 -62Q208 -70 165 -71Q125 -72 108 -79Q122 -82 135 -82Q161 -80 187 -79Q217 -79 234 -89Q250 -98 265 -112Q279 -126 293 -139Q300 -145 312 -160Q328 -180 342 -188Q348 -203 366 -228Q385 -256 392 -274Q365 -265 340 -254Q315 -243 305 -218Q296 -217 283 -208Q269 -199 259 -199H256Q251 -200 243 -207Q238 -212 234 -214Q227 -217 219 -221Q209 -231 199 -241Q188 -248 179 -254Q170 -261 167 -277Q167 -281 166 -285Q170 -305 173 -325V-331Q170 -353 167 -376Q167 -388 174 -398Q184 -410 200 -418Q216 -425 229 -432Q247 -445 263 -461Q279 -477 299 -481Q291 -471 282 -461Q273 -452 272 -434Q277 -430 284 -430Q299 -433 314 -437Q389 -451 460 -470Q472 -501 472 -538Q472 -582 455 -616Q437 -652 405 -662Q422 -665 431 -679V-681Q430 -688 428 -695L429 -698Q463 -717 497 -737Q506 -744 516 -753Q525 -762 540 -763Q545 -763 547 -762Q574 -745 595 -717Q598 -714 605 -703Q612 -691 620 -686L619 -682Q621 -677 623 -673Q594 -615 589 -514Q629 -525 675 -537Q720 -549 755 -570V-568Q755 -541 787 -541Q791 -541 836 -547Q804 -534 804 -514Q804 -507 808 -500Q817 -502 826 -505Q828 -505 832 -503Q822 -498 814 -491Q805 -484 804 -470Q805 -466 808 -466Q813 -468 818 -470L821 -469Q819 -465 812 -460Q805 -455 804 -449V-447Q807 -433 810 -420Q810 -413 808 -410Q794 -402 778 -400Q761 -399 744 -397Q682 -390 594 -357Q640 -279 670 -248Q687 -208 741 -152Q780 -111 795 -88Q804 -91 807 -111Q809 -127 813 -131Q819 -130 819 -120Q819 -113 818 -107Q818 -102 820 -98Q827 -132 827 -173Q828 -179 828 -192V-214Q828 -241 835 -254Q837 -237 837 -199Q837 -145 836 -91V-65Q845 -78 845 -104Q845 -120 844 -136V-170Q844 -192 850 -200Q854 -179 856 -146V-134Q855 -98 853 -62Q853 -41 857 -28Z"/>
</svg>