<svg xmlns="http://www.w3.org/2000/svg" viewBox="0 -800 1024 1024">
	<path fill="#000000" d="M747 -504L746 -507Q732 -501 710 -483Q692 -468 680 -461Q666 -453 655 -432Q645 -413 635 -405Q610 -384 600 -359Q594 -357 585 -342Q585 -313 596 -308H599Q606 -308 622 -315Q636 -320 660 -333Q685 -346 705 -351Q712 -371 720 -414Q726 -449 732 -468L733 -469Q731 -472 729 -475L730 -477Q734 -483 740 -490Q746 -496 747 -504ZM408 -68Q400 -65 392 -62Q391 -64 391 -67Q391 -73 397 -73Q406 -73 408 -68ZM787 16Q775 15 766 3Q758 -10 750 -26Q740 -40 730 -52Q719 -64 714 -80Q712 -86 712 -100V-105Q712 -116 711 -121Q705 -142 698 -164Q700 -163 714 -152V-154Q714 -158 713 -162V-164Q744 -161 772 -152Q799 -143 822 -137Q839 -158 855 -179L858 -177Q841 -155 841 -133Q841 -118 853 -111Q857 -112 862 -120Q865 -125 867 -125H868Q865 -111 861 -98Q861 -91 866 -87Q889 -96 909 -109Q929 -122 950 -134Q940 -116 910 -97Q884 -80 875 -68Q879 -48 894 -48Q908 -50 922 -53H924Q905 -42 888 -29Q899 -7 924 -5Q948 -2 965 10Q948 9 931 8Q915 8 905 14Q905 37 909 48Q901 60 901 73V78Q895 86 890 96Q888 94 885 94Q877 98 869 104H866Q862 104 853 98Q843 91 835 91H832Q811 68 798 34ZM881 -209Q870 -194 869 -187L866 -186Q864 -186 862 -188Q864 -213 874 -213Q877 -213 881 -209ZM924 -728Q917 -716 900 -711L898 -714Q906 -726 920 -730Q922 -729 924 -728ZM408 -576Q414 -572 421 -561Q429 -549 433 -546V-548Q430 -557 427 -566Q439 -556 454 -552Q462 -552 465 -566Q479 -567 493 -569Q503 -569 512 -564Q523 -541 535 -531Q548 -518 550 -515Q554 -504 556 -503Q556 -504 560 -504L563 -503Q575 -512 589 -527Q599 -536 619 -546Q632 -553 646 -568Q657 -580 663 -584Q666 -586 689 -592L756 -633Q757 -643 763 -644Q769 -645 773 -647Q784 -655 794 -664Q805 -670 815 -678Q822 -688 830 -700Q838 -713 848 -714Q853 -714 858 -710Q861 -712 864 -714Q867 -713 872 -706Q876 -700 880 -698Q883 -698 886 -702Q889 -707 892 -707H893L894 -705Q891 -696 887 -688Q887 -687 889 -683Q897 -683 913 -695Q927 -705 936 -707Q933 -699 924 -689Q912 -677 910 -664H912Q915 -664 920 -670Q926 -677 930 -677Q925 -669 925 -656Q925 -651 927 -641L929 -640Q932 -640 935 -641H936V-636Q936 -622 946 -600Q944 -588 944 -578Q945 -564 945 -550Q945 -529 940 -519Q938 -520 934 -520Q921 -519 913 -507Q904 -496 895 -488Q899 -486 903 -485Q892 -478 883 -467Q874 -456 864 -446L857 -392Q842 -347 826 -304Q810 -260 800 -207Q795 -203 790 -199Q784 -196 782 -185L778 -186Q766 -186 756 -170Q755 -177 752 -182Q734 -188 729 -192Q718 -200 712 -218Q676 -212 642 -204Q607 -197 588 -167Q591 -163 597 -163Q602 -163 607 -164Q606 -158 604 -152Q608 -153 612 -160Q616 -167 621 -167H622Q611 -148 607 -123Q607 -115 612 -105Q613 -100 613 -90Q612 -58 595 -47Q578 -36 561 -18Q550 -5 536 20Q526 38 523 42Q511 57 502 64H500Q494 64 479 50Q469 41 464 39Q459 -1 437 -6Q443 -10 449 -29Q447 -45 434 -55Q431 -57 412 -66Q416 -70 423 -70H436Q443 -70 448 -74Q443 -84 422 -84Q398 -82 374 -80Q369 -80 364 -81Q387 -96 416 -96H423Q436 -95 449 -95H456Q473 -101 489 -111Q503 -122 515 -125Q518 -125 521 -122L528 -131Q529 -140 539 -147Q549 -154 550 -161Q539 -182 519 -197Q518 -216 508 -242Q497 -271 497 -288Q498 -292 498 -296L487 -336Q478 -339 469 -358Q463 -370 458 -375Q446 -384 431 -392V-393Q431 -401 424 -412Q419 -421 418 -428V-430Q420 -438 422 -447Q423 -452 423 -460V-473Q423 -485 425 -489Q424 -499 417 -512Q409 -526 409 -534H411Q416 -534 422 -523Q427 -513 429 -512V-517Q428 -533 421 -543Q414 -553 409 -564Q406 -567 403 -571Q385 -555 382 -551Q363 -543 351 -535Q342 -538 338 -538Q333 -538 327 -531Q328 -524 336 -514Q344 -504 345 -498V-494Q343 -481 341 -469Q341 -463 344 -457L418 -485Q415 -479 406 -472Q398 -465 397 -455Q397 -450 398 -448L399 -447Q404 -449 408 -452L409 -451Q400 -442 400 -426Q401 -419 401 -413Q400 -391 393 -371Q385 -350 379 -331Q332 -329 332 -304Q332 -298 335 -291Q338 -284 371 -276Q396 -270 401 -265Q410 -270 415 -282Q417 -272 417 -259Q417 -247 422 -240Q431 -245 438 -246L439 -245Q434 -238 429 -231Q437 -215 437 -195Q438 -176 441 -159L425 -163L426 -156H420Q410 -156 410 -134Q405 -135 403 -145Q401 -153 398 -155Q396 -154 393 -154Q381 -154 336 -169Q332 -145 332 -113Q333 -80 333 -48V-27L336 -15Q340 -3 340 11Q340 26 332 55Q325 80 324 96Q313 99 292 109Q273 99 256 60Q242 28 230 17Q237 17 240 12Q236 6 222 6H210Q225 -6 238 -14Q251 -23 255 -42V-47Q254 -61 253 -76Q253 -91 261 -99V-107Q262 -126 263 -145Q263 -157 261 -162Q217 -126 185 -72Q153 -19 120 30Q110 28 107 28Q99 28 85 36Q88 32 88 27Q88 12 67 -9Q72 -29 72 -48Q72 -67 65 -81Q74 -89 74 -105Q72 -128 70 -152Q70 -155 76 -159Q81 -162 81 -164Q84 -155 83 -138Q82 -113 89 -106Q98 -109 108 -119Q119 -130 127 -133Q159 -168 193 -202Q227 -237 253 -278Q250 -279 244 -279Q217 -275 189 -256Q161 -243 141 -225Q133 -217 124 -205Q115 -193 103 -192L99 -193Q91 -196 87 -203Q83 -209 78 -216Q71 -223 64 -228Q57 -234 54 -243Q52 -253 52 -261Q52 -282 59 -300Q57 -308 57 -322Q57 -356 81 -388Q94 -406 128 -435Q126 -426 118 -414Q106 -396 106 -386Q106 -379 109 -372Q115 -369 121 -369Q127 -369 142 -375Q157 -381 165 -381H168L182 -387Q187 -396 219 -406Q258 -418 261 -433V-436Q261 -443 253 -454Q246 -464 245 -473Q210 -460 198 -445L194 -446Q188 -446 184 -438V-443Q184 -461 162 -468Q158 -468 155 -464Q152 -460 150 -460Q153 -469 156 -478Q153 -486 146 -486Q132 -482 124 -468V-469Q128 -484 141 -496Q138 -509 129 -509Q117 -509 101 -496Q104 -504 114 -515Q123 -525 126 -531H123Q107 -530 95 -520Q83 -511 71 -504Q75 -517 85 -524Q95 -532 105 -539Q134 -565 160 -592Q187 -620 219 -636L234 -639V-642Q234 -657 250 -675Q266 -693 266 -706Q266 -710 264 -718H265Q270 -716 275 -714L277 -715Q283 -719 283 -724V-727Q300 -732 319 -732Q339 -732 359 -728Q383 -723 389 -715Q397 -704 399 -685Q401 -636 418 -591Q417 -585 408 -576Z"/>
</svg>