<svg xmlns="http://www.w3.org/2000/svg" viewBox="0 -800 1024 1024">
	<path fill="#000000" d="M262 -259H258Q248 -259 244 -244H239Q211 -244 199 -259Q194 -257 189 -255Q184 -254 182 -248L180 -251Q181 -255 182 -259V-260Q178 -269 165 -269Q159 -269 157 -268V-270Q157 -284 140 -302Q125 -317 123 -326H118Q107 -325 96 -325H91Q104 -337 117 -343Q114 -352 114 -358Q114 -383 150 -397V-400Q149 -407 148 -415Q151 -414 153 -408Q154 -403 156 -401Q168 -399 175 -399Q196 -399 200 -409Q224 -381 248 -353Q272 -324 276 -275H273Q261 -275 261 -264Q262 -261 262 -259ZM291 -100Q283 -92 257 -75Q221 -51 210 -34L195 -28V-25Q193 -14 191 -3Q191 2 192 4H186V8Q186 15 189 22Q177 24 167 41Q159 54 153 56Q151 57 148 57Q137 57 116 44Q111 40 103 28Q95 15 88 10Q81 4 66 1Q51 -2 45 -9Q43 -37 34 -47Q33 -52 33 -61Q33 -76 45 -102Q53 -118 55 -130Q57 -142 58 -154Q59 -167 73 -169Q73 -156 74 -144Q74 -132 81 -127Q130 -155 183 -183Q236 -212 296 -229Q287 -221 279 -215Q270 -209 266 -199Q274 -204 282 -209Q291 -207 293 -202Q284 -202 278 -196Q272 -190 272 -181Q273 -178 273 -176H274Q283 -179 288 -182H291Q289 -179 285 -177Q277 -173 276 -170Q284 -159 287 -142Q293 -147 307 -151Q312 -151 316 -147Q308 -142 300 -139Q291 -137 290 -127V-125L292 -124H296Q292 -122 291 -118Q290 -114 290 -113ZM927 -627Q926 -614 917 -605Q916 -608 916 -615Q916 -629 923 -629Q925 -628 927 -627ZM549 -65Q545 -96 543 -98Q530 -94 528 -83Q525 -73 525 -64Q529 -62 536 -62Q537 -62 549 -65ZM620 -80H627Q625 -99 622 -118Q611 -116 599 -114Q602 -105 607 -93Q611 -81 620 -80ZM684 -113V-109H687Q701 -109 708 -114Q717 -134 719 -141Q716 -142 710 -142Q694 -142 688 -136Q690 -134 690 -130Q687 -124 684 -113ZM482 -261Q485 -279 488 -297Q459 -285 459 -267Q459 -260 462 -255Q472 -258 482 -261ZM615 -277H618L627 -321H622Q610 -321 602 -313Q594 -305 594 -293Q594 -286 599 -274Q607 -275 615 -277ZM789 -362H788Q775 -362 767 -355Q757 -346 757 -330Q757 -326 759 -316Q771 -317 782 -319Q789 -349 789 -362ZM462 -376V-379Q465 -388 467 -397L466 -400Q462 -398 455 -385Q446 -369 438 -365Q429 -354 425 -342Q430 -342 435 -336Q439 -331 442 -330Q465 -340 485 -357Q479 -361 471 -364Q464 -367 462 -376ZM568 -196L631 -214Q630 -220 623 -226Q618 -231 616 -234Q591 -231 574 -219Q563 -232 551 -275Q543 -303 538 -313Q528 -268 525 -215V-210Q516 -210 508 -196Q507 -200 506 -205Q498 -207 494 -207Q473 -207 468 -192Q473 -192 482 -186Q491 -180 498 -180H504Q536 -183 568 -196ZM626 -509H628Q643 -520 664 -524Q684 -528 705 -531Q681 -567 646 -601Q635 -615 622 -621Q593 -602 563 -558Q537 -519 518 -474Q535 -485 577 -497Q606 -506 619 -511H620Q623 -510 626 -509ZM680 -424Q649 -420 624 -402Q586 -385 552 -360Q560 -359 567 -359Q576 -359 583 -362Q636 -387 656 -387Q680 -387 691 -368Q697 -346 703 -325Q696 -311 690 -294Q684 -277 673 -273L668 -259Q670 -257 670 -252Q668 -239 666 -226V-223Q684 -226 718 -243Q756 -262 781 -262Q777 -275 766 -275Q744 -270 727 -262Q718 -283 719 -306Q717 -315 708 -332Q698 -351 697 -365Q698 -375 698 -386V-390Q698 -394 693 -399Q688 -405 688 -409Q709 -404 730 -399H732Q746 -404 762 -414Q782 -420 802 -426Q778 -447 753 -468Q750 -461 737 -456Q723 -451 721 -440Q705 -431 695 -431H693ZM300 -472Q311 -468 311 -464Q311 -446 310 -429Q310 -403 319 -391Q338 -404 358 -435Q371 -455 384 -469L400 -478Q402 -494 412 -507Q421 -520 430 -532Q456 -569 470 -576L486 -600Q491 -618 510 -637Q526 -653 533 -665Q547 -689 556 -707Q569 -729 572 -753Q572 -768 558 -776Q578 -806 600 -816Q618 -823 634 -823Q654 -823 664 -814Q677 -803 691 -760Q697 -738 699 -696Q691 -689 691 -681Q691 -670 709 -650Q722 -635 750 -619Q774 -605 782 -598Q793 -588 823 -555Q844 -532 863 -522Q873 -528 876 -558Q878 -582 883 -590Q886 -581 886 -558Q886 -528 892 -521Q896 -541 896 -573V-611Q896 -636 902 -655Q905 -614 905 -574Q905 -535 912 -499Q916 -506 916 -525V-556Q916 -581 924 -590Q924 -481 967 -408Q961 -401 955 -395Q955 -383 958 -376Q946 -363 944 -324Q940 -327 935 -327Q929 -327 921 -322Q913 -317 909 -317H908Q900 -317 872 -339L859 -360Q857 -338 847 -337L846 -327Q830 -291 819 -249Q824 -241 841 -229Q859 -216 864 -208Q880 -184 880 -171Q880 -168 879 -165Q878 -159 857 -132Q845 -117 833 -102Q820 -79 815 -52Q810 -24 803 -1L804 28Q800 58 789 77Q777 97 766 118Q764 117 760 117Q757 117 755 118Q751 120 747 122Q746 123 745 123Q738 115 717 107Q702 101 696 97Q686 88 677 77Q668 66 654 62L657 60H664L668 59Q666 52 653 48Q641 45 638 40Q659 38 679 35Q695 1 696 -49Q690 -51 687 -51Q674 -52 674 -27Q675 -13 675 0V7Q664 22 647 31Q633 23 621 14Q625 -6 628 -27Q628 -31 626 -35Q624 -39 620 -38Q610 -37 610 -21Q610 -16 613 8Q605 18 596 28H594Q581 27 570 22Q559 17 548 13V12Q550 1 552 -10Q552 -16 551 -19Q547 -21 546 -21Q545 -21 530 -16Q528 -7 531 3Q531 12 537 31Q543 50 543 61Q543 68 540 75Q527 106 508 118H505Q480 113 463 96Q448 80 440 75Q427 67 408 67Q415 60 422 59Q431 53 431 39Q429 21 426 2L422 -29Q418 -29 405 -45Q385 -63 383 -79Q383 -87 382 -96Q382 -124 396 -152Q409 -178 425 -189Q424 -194 418 -200Q409 -209 409 -215Q409 -218 411 -222L412 -233Q408 -246 403 -257Q398 -269 387 -273Q378 -261 368 -236Q357 -210 345 -196Q328 -202 318 -216Q307 -231 296 -243V-246Q296 -251 299 -256Q286 -281 286 -313V-320Q285 -333 284 -346V-349Q290 -362 296 -375Q298 -383 301 -428Q299 -448 293 -463Q289 -461 286 -461Q287 -459 287 -452V-442H286Q282 -443 278 -445H277Q266 -437 252 -436H249L248 -437Q238 -439 215 -454Q194 -470 168 -475Q155 -475 147 -463V-466Q149 -472 153 -478Q146 -503 123 -503Q100 -503 62 -476Q69 -489 91 -506Q113 -523 120 -535Q119 -552 95 -552Q88 -552 84 -551Q100 -563 110 -567V-583H86Q89 -586 104 -599Q97 -624 83 -624Q76 -624 58 -617Q62 -626 78 -635Q96 -645 96 -656V-657Q94 -669 91 -681Q91 -686 92 -689Q95 -676 109 -676Q123 -676 127 -688Q143 -686 159 -684Q174 -682 181 -670Q189 -674 197 -679Q197 -675 192 -665Q194 -662 209 -652Q215 -654 230 -665V-664Q227 -656 223 -648Q223 -645 224 -643Q227 -638 240 -631Q251 -625 255 -620Q260 -623 264 -626H265Q266 -615 279 -603Q290 -593 290 -585V-584L302 -572Q302 -568 301 -564Q301 -545 310 -538V-537Q310 -535 308 -535Q305 -535 305 -532Q307 -524 307 -520Q304 -498 300 -476Z"/>
</svg>