<svg xmlns="http://www.w3.org/2000/svg" viewBox="0 -800 1024 1024">
	<path fill="#000000" d="M551 -184Q514 -162 502 -142Q505 -141 510 -141Q526 -143 536 -158Q545 -174 551 -184ZM751 -141V-178H749Q732 -178 720 -163Q711 -151 708 -133Q730 -137 751 -141ZM278 -67H280Q287 -114 294 -162Q262 -133 258 -128Q239 -105 239 -79Q239 -66 243 -54Q266 -67 278 -67ZM828 -646Q817 -634 805 -623H808Q822 -623 846 -630Q870 -637 879 -637H883V-636Q883 -631 877 -630Q871 -628 867 -628Q849 -621 849 -609Q849 -598 863 -591Q878 -598 895 -601Q899 -601 902 -600Q890 -591 875 -585Q860 -580 859 -558V-553Q861 -551 863 -551Q868 -552 872 -554Q875 -554 877 -553Q856 -535 850 -504Q837 -496 827 -486Q797 -488 780 -488Q757 -488 742 -484Q744 -477 758 -467Q775 -455 778 -444L805 -423Q820 -415 844 -396Q875 -373 892 -364Q906 -375 918 -411Q928 -440 935 -449Q935 -431 925 -403Q914 -373 914 -357Q926 -368 937 -415Q948 -464 960 -474Q952 -443 943 -411Q934 -379 933 -345Q940 -352 947 -372Q953 -388 956 -393Q957 -390 957 -385Q953 -357 948 -330V-326Q949 -316 956 -296Q967 -265 967 -250V-248Q967 -224 950 -209Q935 -196 911 -194Q893 -201 873 -223Q846 -253 841 -257Q842 -254 842 -249Q842 -230 828 -195H824Q817 -195 813 -197Q797 -189 797 -155V-144Q808 -146 837 -156Q870 -168 889 -171Q889 -158 905 -158Q916 -158 926 -159Q934 -159 938 -156Q932 -152 923 -148Q915 -145 914 -137Q914 -132 916 -129H919Q926 -131 932 -133Q934 -133 936 -131Q923 -122 922 -102Q921 -82 919 -60Q904 -54 894 -44Q873 -49 843 -49Q820 -48 797 -48Q792 -37 792 -21Q792 -15 800 36Q807 73 807 87V90Q806 102 789 117Q771 133 756 133Q747 133 742 128Q736 121 731 110Q721 99 709 88Q697 77 692 66Q696 64 697 64Q705 67 713 70L716 69Q714 60 707 60Q699 60 692 59Q671 51 653 41Q659 38 665 38Q686 43 706 47Q678 32 664 32Q672 29 677 29Q692 32 707 34Q710 34 712 33Q729 26 732 4Q734 -19 739 -42Q732 -45 725 -45Q704 -42 682 -39H678L661 -36Q653 -26 642 -19Q635 -11 629 -2Q623 6 612 7Q608 7 600 4Q579 -11 561 -33Q559 -41 559 -44Q559 -60 572 -75Q571 -78 571 -85Q571 -94 575 -106Q587 -110 601 -125Q616 -141 626 -145Q626 -132 617 -117Q617 -111 623 -110Q641 -113 658 -119V-122Q661 -135 663 -148Q663 -151 662 -154Q661 -158 656 -164Q650 -171 650 -176V-179Q617 -161 581 -135Q561 -118 550 -99Q550 -93 557 -89Q562 -86 564 -82Q560 -84 559 -84Q556 -82 553 -81Q552 -71 544 -55Q536 -39 536 -30Q537 -24 537 -19Q531 -28 526 -41Q524 -40 520 -40Q510 -42 499 -45H498Q492 -43 489 -36Q486 -29 482 -22Q470 -6 456 14Q442 33 439 56Q434 56 424 62Q409 70 402 70Q393 70 386 62Q380 54 379 40Q378 26 376 10Q373 -11 370 -33Q370 -41 373 -47Q377 -47 381 -38Q374 -64 367 -90Q374 -84 383 -65Q393 -44 401 -38Q424 -44 439 -58Q454 -73 470 -88Q468 -89 468 -96Q468 -104 465 -105Q449 -97 437 -82Q434 -83 431 -84H430Q427 -85 426 -90Q425 -96 423 -97Q418 -99 406 -99Q398 -133 386 -159Q398 -163 402 -163H404Q443 -191 445 -192Q453 -202 459 -202Q463 -202 465 -201L484 -220V-222Q484 -234 500 -242Q501 -264 519 -274Q535 -282 551 -291Q550 -289 550 -284Q550 -273 561 -266Q566 -267 572 -275Q578 -282 583 -283Q586 -284 591 -284Q603 -284 617 -270Q624 -263 637 -246Q649 -266 674 -271Q698 -277 723 -283Q724 -285 724 -289Q722 -300 715 -309Q718 -316 720 -323L719 -327H721Q727 -327 737 -332Q748 -338 753 -338Q760 -338 764 -335Q724 -380 674 -417Q672 -412 672 -400V-346Q679 -332 682 -315Q669 -295 651 -276Q644 -267 633 -267H631Q627 -268 623 -276Q617 -287 609 -287L605 -286Q604 -289 603 -293V-295Q594 -298 584 -301Q599 -323 599 -354Q599 -366 598 -372Q576 -357 557 -334Q538 -312 517 -288Q487 -258 455 -223Q444 -208 436 -201H434Q424 -204 417 -213Q409 -200 398 -188Q387 -176 385 -157L376 -148Q365 -111 345 13Q333 15 327 15Q317 16 300 17Q284 18 277 11Q256 20 240 33Q240 39 239 44V47Q230 53 222 53Q207 53 197 34Q188 17 186 -4L177 -22Q155 -49 144 -66Q134 -53 121 -20Q108 14 98 26Q93 23 89 19Q85 15 77 15H74Q72 3 65 -15Q54 -42 54 -54Q54 -65 58 -73Q58 -108 57 -144Q57 -213 71 -241Q71 -166 80 -138Q82 -146 82 -151Q81 -165 80 -180Q80 -189 83 -195Q89 -171 94 -148Q105 -160 113 -175Q121 -190 138 -196L144 -216Q154 -250 181 -294Q216 -350 224 -367Q200 -361 182 -341Q169 -327 157 -300Q140 -302 123 -314Q106 -326 101 -343Q99 -359 97 -376Q91 -388 85 -400V-406Q86 -419 86 -432Q89 -458 91 -484Q93 -506 106 -522Q108 -525 135 -549Q139 -553 156 -574Q167 -588 177 -591Q160 -568 160 -556Q160 -546 169 -541Q217 -560 267 -577L283 -582Q286 -591 310 -600Q330 -608 336 -615Q339 -616 343 -616Q350 -615 357 -615Q360 -628 401 -635Q403 -618 414 -618Q417 -618 419 -619Q417 -611 417 -606Q417 -586 431 -583Q416 -576 416 -551Q416 -540 420 -532Q415 -505 400 -468Q385 -462 367 -457Q349 -453 343 -438Q342 -436 342 -432Q343 -426 343 -420Q343 -414 342 -412Q339 -405 323 -387Q309 -372 307 -369Q286 -341 276 -324Q265 -297 253 -270Q247 -258 241 -250Q235 -242 235 -229V-224Q268 -253 315 -282V-285Q315 -301 345 -320Q365 -333 368 -341Q371 -331 374 -322Q377 -322 378 -325Q379 -329 381 -329H382V-326Q383 -315 388 -306Q394 -298 398 -289Q400 -285 401 -281Q412 -286 414 -288Q456 -320 463 -327Q479 -340 501 -364Q541 -408 550 -427H547Q538 -427 524 -407Q510 -387 497 -387H495Q474 -388 463 -414Q446 -414 434 -430Q422 -446 422 -465Q422 -482 433 -493Q434 -506 434 -536H443Q441 -551 433 -559Q459 -553 470 -553Q489 -553 502 -561Q495 -574 479 -584V-590Q479 -610 457 -619L470 -640V-641Q468 -646 465 -652V-653Q488 -661 488 -692Q488 -697 487 -702Q494 -694 497 -682Q499 -685 509 -685Q523 -686 523 -694Q531 -689 544 -671Q555 -656 564 -650V-626Q564 -585 579 -577Q587 -582 598 -584Q599 -596 599 -609Q599 -656 579 -666Q583 -686 587 -706Q587 -712 584 -717Q586 -719 589 -719Q593 -718 596 -718Q600 -718 600 -720V-723Q599 -729 597 -735L598 -738Q608 -736 615 -732Q619 -733 625 -738Q629 -742 633 -743Q636 -744 643 -744Q666 -742 677 -719Q688 -695 703 -678Q691 -656 691 -627Q691 -613 695 -605Q705 -606 715 -608Q723 -630 734 -656Q744 -681 745 -710Q745 -723 742 -737Q736 -739 734 -739Q725 -736 715 -734Q729 -762 758 -791Q763 -789 775 -789Q792 -790 808 -791H813Q829 -791 840 -779Q851 -767 851 -749V-740Q855 -729 860 -718Q865 -707 866 -695Q866 -692 864 -684Q859 -668 828 -646Z"/>
</svg>