<svg xmlns="http://www.w3.org/2000/svg" viewBox="0 -800 1024 1024">
	<path fill="#000000" d="M570 -169Q615 -184 739 -205Q765 -207 785 -213Q795 -219 803 -227Q826 -235 853 -238H854Q856 -238 856 -236Q856 -233 859 -233Q869 -239 887 -253Q887 -248 880 -240Q870 -229 870 -222V-221H874Q893 -224 912 -228Q905 -223 897 -221Q888 -218 886 -209Q887 -202 893 -202Q897 -202 901 -205Q897 -196 892 -188V-184Q894 -172 896 -161V-159Q896 -152 889 -140Q882 -128 882 -120Q883 -117 883 -115H882Q879 -116 876 -117L874 -116Q869 -113 869 -108Q869 -105 870 -103Q840 -122 772 -122Q716 -122 666 -110V-108Q668 -102 669 -96Q661 -81 661 -50V-26Q661 -12 660 -5L656 -4L662 22Q673 32 673 51Q672 67 671 83Q671 91 672 94Q658 111 644 125Q630 122 589 103Q576 81 570 50Q564 19 557 -11L559 -12Q564 -8 573 -4Q576 -4 578 -5Q586 -24 588 -50Q589 -77 589 -101Q523 -93 495 -65Q513 -56 527 -38Q543 -17 543 2Q543 23 525 37H519Q512 37 498 45Q478 35 464 35Q454 35 445 40Q447 28 460 28Q460 17 444 6Q432 -2 430 -8Q433 -14 435 -20Q435 -23 430 -26Q444 -36 458 -47Q457 -51 441 -48Q429 -46 426 -47Q423 -52 421 -65Q419 -75 414 -82Q418 -109 418 -129Q417 -148 433 -161Q442 -167 450 -171Q458 -174 465 -184Q468 -185 474 -185H485Q479 -175 473 -166Q486 -158 500 -158Q505 -158 544 -161ZM559 -376Q556 -387 550 -397Q547 -397 544 -398Q530 -398 530 -385Q530 -378 534 -373Q547 -374 559 -376ZM657 -430V-436Q639 -433 635 -431Q633 -419 631 -408Q631 -398 637 -394Q655 -398 656 -398V-404Q657 -417 657 -430ZM750 -458H746Q733 -458 725 -448Q718 -439 718 -427Q718 -417 722 -410Q732 -419 738 -432Q744 -446 750 -458ZM666 -537Q666 -549 660 -571Q622 -564 610 -552Q627 -515 629 -512Q644 -513 659 -515H662Q666 -529 666 -537ZM231 9Q226 16 209 28Q199 35 193 41Q185 54 176 69Q167 84 149 85Q143 85 139 84Q124 74 114 57Q101 55 90 55Q79 54 71 46Q61 31 61 12Q61 -10 71 -22Q61 -36 61 -61Q61 -76 65 -85Q69 -95 79 -105Q88 -116 97 -126Q105 -136 113 -147Q120 -157 130 -159Q126 -149 120 -141Q115 -132 114 -121Q114 -116 117 -110Q122 -104 131 -104Q136 -104 145 -107Q175 -114 179 -116Q212 -128 250 -147Q376 -207 411 -213Q408 -202 404 -191Q406 -188 407 -188Q410 -191 415 -194Q417 -194 418 -191L419 -188Q419 -186 413 -174Q417 -168 422 -165Q408 -133 408 -113L411 -112Q415 -112 416 -111Q401 -87 401 -71V-68Q355 -56 322 -38Q290 -20 253 3ZM233 -591Q239 -611 256 -629Q275 -649 281 -663Q279 -671 275 -672Q286 -676 299 -685Q316 -697 330 -697Q343 -697 353 -691Q377 -676 384 -666Q389 -658 396 -620Q405 -589 407 -568Q402 -555 399 -540V-536Q354 -527 306 -494Q299 -488 272 -482Q249 -477 241 -459Q245 -457 255 -457Q275 -457 314 -470Q312 -463 309 -456Q310 -446 321 -432Q331 -419 331 -407V-406Q329 -393 319 -383Q309 -373 296 -363Q266 -345 255 -320Q285 -338 308 -346Q322 -367 345 -371Q354 -368 367 -368Q371 -368 375 -371L379 -365Q382 -360 403 -337Q406 -328 412 -299Q417 -284 417 -274V-272Q411 -267 404 -255Q398 -243 395 -240Q389 -243 378 -225Q368 -209 364 -209Q354 -209 334 -220Q305 -236 291 -233Q286 -231 281 -230Q272 -216 235 -197Q202 -180 195 -155Q166 -153 161 -151Q149 -163 136 -187Q123 -212 111 -220Q128 -259 153 -287Q177 -316 200 -349Q138 -333 129 -291H124Q99 -291 86 -305Q81 -311 62 -344Q44 -375 42 -383Q37 -398 37 -419Q38 -422 38 -426Q41 -436 52 -446Q64 -457 72 -465Q106 -505 150 -531Q160 -543 172 -545H174ZM926 -84Q923 -81 890 -62Q866 -48 866 -34Q866 -27 870 -20Q883 -23 896 -26Q902 -26 906 -23H904Q891 -23 883 -13Q876 -4 876 8Q876 31 896 32Q894 33 888 33Q882 33 875 32Q862 32 858 40V46Q859 63 867 72Q876 81 881 91Q861 75 860 74Q846 64 834 64Q822 64 813 74Q804 62 778 47Q747 29 739 14Q733 12 727 10Q723 -1 711 -18Q698 -37 698 -51V-55Q701 -74 718 -87Q724 -90 730 -90Q745 -88 759 -87Q769 -89 779 -92Q782 -92 788 -90Q791 -87 794 -84Q809 -85 820 -77Q825 -78 831 -85Q837 -91 842 -92Q841 -80 840 -69Q840 -60 845 -56Q866 -62 887 -75Q899 -85 914 -89Q921 -89 926 -84ZM890 -417Q871 -386 850 -357Q829 -328 820 -287Q819 -285 816 -285H810Q806 -281 806 -269Q781 -270 764 -284Q747 -293 734 -313Q730 -320 725 -328Q721 -336 715 -337H710Q699 -334 687 -332H662Q626 -329 591 -317Q552 -304 538 -287Q555 -290 595 -302Q653 -319 679 -323Q681 -322 685 -317Q690 -311 693 -311Q695 -311 698 -314L700 -311V-307Q709 -310 718 -313H721L722 -311Q721 -308 717 -304Q712 -300 711 -293Q711 -284 721 -276Q732 -277 742 -279Q728 -271 719 -256Q717 -253 704 -224Q632 -220 561 -178Q542 -183 527 -192Q508 -204 506 -219V-224Q506 -238 518 -269Q515 -272 512 -272Q506 -269 499 -266Q468 -277 461 -287L463 -290L452 -297Q446 -309 421 -329Q395 -349 389 -361Q375 -391 392 -452Q404 -492 439 -505Q450 -503 454 -495Q458 -488 469 -476V-474Q469 -469 469 -464Q528 -477 549 -486V-492Q549 -500 547 -512Q533 -501 520 -501Q507 -501 482 -515Q461 -525 452 -536Q445 -547 444 -558Q444 -570 442 -581Q436 -595 432 -610V-617Q433 -655 444 -679Q453 -692 465 -700Q478 -707 490 -715Q489 -713 489 -709Q489 -707 493 -699L620 -733Q633 -737 646 -741Q651 -741 655 -737L722 -768Q744 -779 783 -779H793Q797 -776 798 -770Q816 -778 830 -781Q828 -776 820 -770Q810 -762 808 -755L810 -754Q816 -758 825 -762H827Q824 -757 824 -749Q824 -739 827 -733H829Q833 -735 837 -737L838 -736Q833 -727 833 -709Q834 -694 834 -680Q834 -670 833 -665Q832 -655 823 -640Q815 -627 814 -620Q809 -618 803 -617L802 -615Q803 -612 804 -610V-608Q760 -608 750 -596Q754 -594 758 -586Q761 -580 764 -577Q761 -565 758 -554Q776 -555 806 -575Q835 -595 856 -595Q869 -595 884 -589L906 -596Q906 -593 903 -591Q900 -589 900 -586Q908 -588 915 -602Q924 -620 936 -621Q921 -600 920 -583L922 -581Q926 -584 929 -587L930 -586V-581Q930 -560 941 -560H945Q943 -556 943 -554Q943 -547 960 -536Q952 -477 950 -471Q939 -438 907 -436Z"/>
</svg>