<svg xmlns="http://www.w3.org/2000/svg" viewBox="0 -800 1024 1024">
	<path fill="#000000" d="M706 -50V-52Q683 -47 662 -40Q641 -33 633 -11Q641 -6 653 -6Q674 -6 690 -20Q706 -34 706 -50ZM789 3V6Q789 13 784 18Q779 22 774 26Q760 42 741 80Q728 107 721 117Q717 113 712 108H711Q706 110 700 112L698 111Q696 103 683 98Q670 93 669 86H668Q664 88 660 89Q656 79 653 75Q631 77 614 98Q608 97 601 95Q594 93 587 84Q582 71 577 58Q562 45 537 33Q499 7 491 0Q465 -24 462 -51Q463 -60 464 -69Q464 -72 462 -76L465 -78H466Q471 -78 471 -82Q468 -91 465 -100L478 -89Q486 -95 494 -99Q497 -99 498 -96Q506 -106 517 -106Q530 -104 543 -103H545Q562 -104 581 -112Q601 -120 621 -127Q683 -147 697 -149Q716 -152 734 -156Q751 -164 766 -176Q781 -189 801 -190Q808 -190 817 -187Q820 -174 828 -166Q837 -159 845 -151Q851 -153 856 -156Q858 -155 860 -154L862 -153Q860 -148 858 -144V-142Q874 -155 895 -163Q890 -157 882 -147Q873 -137 872 -125V-120Q875 -120 878 -125Q882 -132 888 -132H891Q887 -125 887 -118Q888 -112 888 -106Q888 -100 885 -96Q885 -82 892 -74Q887 -69 884 -52Q881 -39 878 -34Q853 -33 835 -26Q816 -20 810 0ZM903 -570Q902 -561 896 -558Q892 -556 883 -556H879Q885 -571 897 -571Q900 -570 903 -570ZM769 -639Q766 -624 758 -604Q747 -575 744 -544Q744 -535 747 -526Q780 -541 816 -552Q815 -545 813 -538Q813 -532 817 -529L872 -550Q867 -543 855 -535Q842 -527 841 -517L842 -513H843Q851 -516 858 -519Q859 -519 863 -517Q861 -512 854 -507Q847 -502 845 -499Q846 -494 850 -494Q854 -494 857 -495H858Q855 -489 855 -474Q855 -460 858 -442Q856 -437 854 -432Q854 -430 857 -424Q839 -418 832 -413Q820 -405 819 -391Q815 -392 807 -392Q795 -391 783 -391L771 -388Q715 -379 715 -334Q715 -324 718 -312Q723 -311 734 -311Q751 -311 789 -321Q817 -328 836 -330Q846 -341 857 -350Q868 -343 879 -336Q895 -345 902 -345Q906 -345 909 -344Q908 -338 906 -333Q917 -336 928 -339Q933 -339 938 -334Q936 -331 930 -328Q922 -324 920 -321Q920 -308 934 -308Q945 -309 956 -311L960 -310Q960 -304 955 -303Q950 -301 946 -298Q939 -290 939 -273Q939 -255 949 -228Q945 -226 942 -216Q939 -208 934 -205Q930 -201 918 -201H916Q903 -201 897 -196Q895 -198 890 -198Q886 -198 885 -201Q749 -191 653 -169Q647 -167 640 -165Q635 -165 633 -171L605 -162Q600 -156 583 -149Q552 -130 521 -111Q520 -109 518 -108H515Q512 -108 512 -111V-112Q509 -110 505 -108H503Q489 -119 476 -128Q463 -138 460 -159V-198Q459 -212 457 -227V-231Q462 -257 486 -272Q509 -287 522 -300V-298Q519 -286 513 -275Q518 -269 524 -269Q535 -270 546 -272Q550 -272 552 -271Q576 -284 609 -291Q643 -298 666 -304V-350Q640 -349 616 -336Q592 -323 570 -313Q506 -338 501 -424Q501 -434 502 -439Q512 -480 522 -522Q522 -528 523 -536Q524 -544 532 -545L528 -565Q522 -573 519 -582L520 -585Q500 -625 479 -666Q490 -664 496 -657Q502 -651 509 -646L510 -647Q508 -650 506 -654Q506 -655 509 -657Q521 -652 527 -646Q553 -661 571 -661Q577 -661 580 -660Q592 -657 613 -636Q632 -617 641 -600Q648 -588 648 -574Q648 -569 642 -561Q636 -552 636 -546Q636 -543 639 -537Q625 -523 614 -499Q618 -494 625 -494Q643 -497 660 -501H661Q667 -514 667 -531Q667 -544 661 -578Q656 -606 656 -622V-631Q656 -639 660 -642Q653 -649 642 -672Q632 -693 621 -699V-701Q622 -707 623 -713V-715Q649 -739 660 -747Q683 -764 706 -768Q710 -752 733 -736Q751 -724 756 -715Q764 -712 772 -709Q774 -696 776 -681Q777 -667 783 -657Q775 -649 775 -634V-630Q772 -633 769 -639ZM461 -384Q466 -375 477 -371Q479 -370 481 -369Q487 -360 423 -342Q401 -333 384 -321Q383 -305 381 -290Q381 -286 383 -278Q394 -282 412 -292Q442 -309 459 -312Q450 -301 439 -294Q428 -287 427 -269V-266H430Q434 -266 441 -272Q449 -279 456 -279Q454 -274 447 -265Q439 -256 438 -247Q438 -241 449 -241Q434 -218 430 -181Q403 -168 378 -150Q377 -138 377 -116Q377 -53 396 -6Q393 34 376 56Q367 63 357 70Q347 76 346 90V93Q340 93 338 80Q319 73 308 57Q297 41 284 29Q286 19 286 16Q286 -1 273 -12Q261 -21 242 -24Q249 -29 262 -29Q276 -30 282 -34Q292 -44 293 -65Q294 -87 298 -105Q286 -102 261 -87Q248 -73 230 -69H227L199 -43Q196 -40 177 -5Q163 21 147 21Q122 18 108 -5H103Q82 -5 69 -20Q57 -34 57 -55Q57 -80 74 -102Q71 -111 71 -118Q73 -139 90 -154Q106 -169 120 -181V-178Q117 -170 114 -162V-160Q147 -163 177 -181Q209 -192 241 -203Q251 -207 278 -223Q299 -235 314 -241Q316 -261 317 -281V-286Q289 -279 264 -263Q238 -247 214 -231Q202 -223 187 -212Q172 -202 155 -201H150Q135 -207 119 -220Q115 -227 111 -234Q107 -238 102 -243Q90 -262 85 -287Q80 -312 72 -333Q91 -360 106 -378Q114 -407 118 -417Q126 -437 141 -444L150 -477Q144 -479 144 -486Q146 -495 147 -504Q146 -519 134 -530Q127 -536 108 -546Q109 -549 113 -549H119Q118 -556 107 -560Q97 -564 96 -570Q99 -569 105 -569Q119 -569 133 -580Q137 -583 157 -603Q169 -616 183 -630Q198 -645 214 -646Q223 -646 233 -639Q246 -622 258 -606Q284 -578 292 -534Q268 -473 263 -445Q275 -447 299 -459Q316 -468 326 -471Q321 -508 321 -546Q320 -584 297 -600Q323 -677 386 -677Q432 -645 438 -577V-571Q438 -560 427 -544Q416 -527 416 -517V-514Q435 -519 463 -539V-538Q463 -535 457 -529Q449 -521 449 -513V-510L453 -509Q460 -513 467 -517L471 -516V-515Q469 -506 466 -497Q466 -492 468 -490L470 -489Q471 -491 477 -494L480 -493Q478 -490 478 -485Q483 -468 487 -451V-428Q487 -415 493 -408Q486 -394 486 -393Q486 -387 476 -384Q467 -381 461 -384Z"/>
</svg>