<svg xmlns="http://www.w3.org/2000/svg" viewBox="0 -800 1024 1024">
	<path fill="#000000" d="M448 -95H453Q463 -95 468 -88Q471 -83 473 -71Q465 -75 457 -79Q449 -83 448 -95ZM605 -161Q603 -165 603 -169Q604 -175 604 -182Q604 -188 599 -191Q590 -188 575 -182Q561 -177 559 -168Q559 -149 560 -147Q583 -154 605 -161ZM560 -221H564Q585 -227 606 -233Q608 -246 610 -260Q610 -264 608 -270Q595 -269 576 -257Q557 -244 557 -234Q557 -227 560 -221ZM478 -177Q456 -200 456 -247Q456 -273 462 -297Q499 -298 543 -317Q580 -333 609 -357Q615 -362 622 -371Q633 -385 639 -388Q651 -394 661 -394Q691 -394 715 -354Q723 -357 730 -361L734 -360Q733 -357 728 -353Q723 -349 723 -344Q723 -341 724 -339L726 -338H732Q703 -291 698 -280Q678 -240 678 -208Q678 -194 683 -176Q681 -173 679 -170V-169Q684 -157 684 -139Q684 -132 682 -124Q684 -114 686 -112Q677 -102 669 -90Q660 -79 647 -78H646Q636 -78 622 -94Q612 -106 606 -109H599Q584 -109 565 -100Q545 -91 542 -80Q538 -83 533 -83Q528 -82 523 -82Q520 -82 518 -83Q503 -87 492 -112Q481 -136 481 -162ZM427 -499Q427 -502 426 -505Q429 -518 432 -532Q446 -578 454 -633Q444 -631 435 -612Q423 -587 420 -583Q421 -603 427 -618Q434 -634 439 -645H438Q432 -645 428 -638Q424 -631 423 -623Q423 -682 441 -705Q444 -709 474 -734Q503 -756 519 -756Q525 -756 528 -755Q544 -746 558 -730Q576 -717 588 -705Q604 -685 610 -658Q616 -630 621 -602Q596 -589 581 -559Q570 -536 562 -495Q581 -504 655 -524Q707 -538 727 -546Q754 -558 779 -575Q804 -592 838 -594Q848 -594 854 -593Q866 -607 878 -621Q891 -635 911 -640V-638Q908 -628 895 -617Q882 -600 882 -591Q883 -588 883 -586Q890 -590 899 -598Q907 -606 920 -608Q915 -599 908 -590Q901 -581 900 -569Q901 -566 901 -563Q906 -564 916 -571Q926 -578 931 -578Q936 -578 940 -574Q921 -571 921 -548Q921 -526 934 -515Q943 -516 951 -518Q950 -514 950 -507Q951 -492 958 -482Q965 -471 972 -461Q962 -453 962 -431Q963 -423 963 -416Q921 -404 895 -348Q877 -309 863 -236Q859 -206 853 -177Q848 -148 831 -127L818 -53Q822 -44 822 -29Q822 -17 815 23Q809 61 802 98Q797 101 792 105Q787 108 787 117V120Q784 118 779 118Q772 119 767 125Q762 131 756 135Q742 120 695 108Q678 74 641 59Q604 44 577 17Q602 28 642 41Q629 21 582 3Q531 -16 518 -32Q584 -11 643 10Q624 -5 570 -26Q507 -50 485 -71Q526 -58 564 -43Q603 -28 652 -20Q688 -52 703 -113Q718 -174 732 -230Q759 -318 778 -437Q728 -430 666 -408Q634 -398 583 -381Q533 -364 512 -344Q500 -330 493 -324Q481 -314 468 -313H467Q436 -313 412 -341Q379 -384 379 -403V-404Q380 -419 391 -433Q402 -448 409 -460Q411 -463 413 -468Q414 -473 420 -473ZM223 21Q216 31 206 38Q196 45 186 53Q179 66 171 80Q161 97 143 98Q137 98 134 97Q126 93 120 85Q114 77 108 70Q95 69 85 68Q74 67 66 58Q57 44 57 24Q57 4 66 -10Q57 -23 57 -48Q57 -62 61 -73Q71 -92 92 -113Q100 -123 108 -134Q115 -144 124 -146Q122 -139 117 -131Q108 -116 108 -109Q108 -103 111 -97Q117 -91 125 -91Q132 -92 139 -94Q156 -99 173 -104Q194 -111 242 -135Q260 -142 309 -159Q358 -177 373 -186Q397 -194 427 -205Q424 -194 420 -183Q422 -180 423 -180Q427 -182 431 -185L434 -183L435 -180Q435 -177 429 -165Q433 -159 438 -156Q424 -126 424 -104L427 -103Q431 -103 432 -102Q419 -89 417 -62V-59Q339 -40 245 16ZM316 -201Q263 -196 250 -191Q231 -181 213 -170Q194 -159 186 -135Q155 -132 153 -132Q140 -139 127 -167Q115 -192 104 -200Q121 -239 145 -268Q169 -296 191 -329Q131 -315 121 -271H116Q92 -271 79 -286Q73 -293 56 -325Q39 -352 36 -363Q31 -378 31 -399Q32 -402 32 -406Q35 -417 46 -427Q58 -437 66 -445Q91 -473 113 -488Q136 -504 166 -525Q176 -536 187 -538H189L227 -569Q232 -589 254 -612Q278 -637 284 -651Q282 -659 277 -660Q289 -664 301 -673Q317 -685 332 -685Q343 -685 354 -679Q379 -661 384 -654Q389 -646 396 -608Q401 -582 406 -556Q403 -542 399 -528V-524Q368 -517 349 -503Q330 -489 305 -470Q293 -462 262 -459Q239 -457 231 -439Q235 -437 245 -437Q269 -437 302 -451Q300 -443 298 -436Q299 -426 309 -412Q319 -398 319 -388V-387Q313 -363 285 -344Q256 -325 245 -300Q271 -316 296 -325Q312 -346 331 -348Q331 -364 336 -366Q340 -365 341 -356Q342 -348 343 -347Q349 -345 353 -345Q357 -345 361 -348L365 -342Q368 -337 389 -314Q391 -305 398 -276Q402 -261 402 -251V-249Q398 -246 390 -231Q386 -223 381 -217Q375 -220 364 -201Q354 -184 350 -184Q342 -184 316 -201Z"/>
</svg>