<svg xmlns="http://www.w3.org/2000/svg" viewBox="0 -800 1024 1024">
	<path fill="#000000" d="M871 -443H880V-439Q880 -424 870 -424Q868 -428 868 -431Q868 -434 871 -443ZM649 -25H654Q696 -93 740 -156Q754 -176 768 -196Q779 -211 791 -228Q804 -244 808 -266Q802 -268 793 -268Q787 -268 781 -266V-264Q784 -248 787 -232Q722 -197 619 -35Q630 -27 649 -25ZM266 -216Q266 -228 264 -232Q255 -225 246 -216Q237 -208 236 -194Q236 -188 237 -184Q251 -189 264 -195Q266 -207 266 -216ZM339 -262Q339 -266 338 -267Q323 -260 322 -242Q322 -233 326 -228Q330 -232 338 -234V-240Q339 -251 339 -262ZM272 -330Q269 -346 266 -363Q239 -336 235 -313Q262 -326 272 -330ZM358 -427Q358 -441 355 -453Q335 -443 332 -416Q329 -390 327 -363H328Q334 -367 340 -371L341 -370Q340 -368 340 -365Q343 -353 351 -351L352 -352Q355 -389 358 -427ZM486 -485Q476 -472 470 -457Q452 -448 442 -426Q436 -413 429 -381L422 -331Q425 -325 425 -317Q425 -316 419 -283Q414 -256 408 -190Q408 -185 407 -181Q411 -154 414 -127Q414 -123 413 -120Q406 -108 402 -98V-97Q382 -94 377 -74Q339 -81 327 -120Q322 -109 322 -89Q323 -63 324 -37Q324 -17 321 -9L320 17Q325 20 325 27Q325 33 324 39Q331 66 338 93L321 121Q319 120 316 120Q308 123 299 128H296Q281 127 269 117Q257 107 248 99Q243 80 238 61Q237 56 237 46Q237 27 248 -11Q259 -48 259 -69Q259 -84 257 -91Q239 -89 231 -75Q223 -61 211 -51Q195 -58 179 -64Q163 -71 155 -87Q152 -88 147 -88H143Q145 -96 145 -99Q145 -110 136 -127Q126 -146 126 -155Q126 -158 128 -166L123 -196Q110 -201 105 -214Q101 -227 96 -238Q79 -273 49 -283Q36 -300 36 -326Q36 -364 58 -406Q54 -423 49 -442Q44 -461 43 -479Q43 -488 44 -493Q50 -491 50 -485Q51 -479 52 -474Q60 -438 76 -423Q68 -448 64 -474Q71 -473 73 -466Q75 -458 78 -451Q82 -444 85 -441Q90 -436 97 -436H99V-438Q94 -451 89 -465L90 -469Q98 -468 105 -458Q111 -449 117 -447Q128 -452 142 -452Q165 -451 182 -436Q198 -421 213 -408Q224 -423 240 -434Q255 -445 269 -457Q266 -476 265 -510Q263 -549 259 -570Q255 -584 247 -600Q238 -615 237 -637Q237 -645 238 -649Q275 -695 296 -706Q310 -714 322 -714Q329 -714 333 -712Q336 -705 353 -684Q366 -668 368 -651Q367 -645 362 -640Q362 -623 353 -593Q344 -562 344 -543Q344 -537 346 -523Q352 -530 362 -547Q373 -566 380 -573Q396 -577 408 -585Q417 -583 423 -579Q434 -583 444 -588Q442 -584 442 -580Q442 -574 446 -568Q450 -563 455 -563Q458 -563 460 -564Q462 -587 479 -601Q482 -613 485 -625Q485 -697 552 -734Q552 -727 545 -717Q537 -705 537 -697H538Q540 -698 542 -703Q543 -708 548 -709H550L551 -706Q551 -701 550 -697Q550 -689 553 -685Q566 -685 588 -696Q618 -710 632 -707L672 -729Q692 -747 735 -758Q771 -767 803 -767Q818 -767 831 -763Q845 -770 849 -774L850 -772Q848 -765 845 -758L846 -754Q852 -758 860 -765Q867 -773 880 -774H882Q859 -761 856 -734V-729Q862 -733 875 -748Q867 -720 867 -708Q867 -696 872 -691H874Q876 -694 878 -697H879Q878 -668 888 -636Q899 -602 883 -574Q880 -562 859 -542Q839 -523 815 -509Q780 -460 699 -401Q617 -340 584 -308Q622 -314 692 -334Q749 -351 774 -355Q789 -358 803 -364Q818 -369 838 -370H840Q852 -391 864 -412Q865 -410 865 -407Q862 -392 858 -378Q858 -375 859 -373Q860 -368 870 -363Q877 -360 880 -356Q883 -356 887 -360Q890 -363 893 -363L897 -362L900 -360Q899 -357 898 -354V-353Q906 -354 915 -360Q926 -367 931 -367H933Q917 -358 917 -334Q917 -321 922 -313Q928 -303 938 -302Q945 -260 963 -248Q957 -241 952 -224Q947 -208 942 -202Q934 -196 926 -191Q921 -185 917 -178Q914 -171 906 -170H904L851 -86Q841 -61 821 -43Q808 -20 794 2Q783 14 777 23Q776 26 776 34Q776 43 774 49Q770 59 762 69Q753 79 752 92V95Q735 101 723 111Q711 120 697 129Q691 126 685 123Q669 123 659 113Q652 106 644 91Q635 71 625 50Q615 29 600 13Q602 11 604 11Q612 14 620 17L623 16V15Q623 5 612 -3Q604 -9 604 -13V-14H606Q612 -14 619 -9Q625 -5 630 -5V-8Q630 -15 614 -26Q599 -16 590 2Q581 20 570 37Q565 43 560 50Q554 56 554 65Q554 70 555 73Q542 75 538 88Q535 100 533 113Q521 116 496 126Q481 120 470 88Q458 56 443 50Q446 46 451 44Q449 32 432 23Q415 14 413 4Q438 19 464 23Q475 23 485 17Q507 -1 529 -29Q602 -115 668 -208Q693 -242 704 -251H699Q669 -251 657 -235L656 -231Q657 -226 658 -222V-220Q652 -214 652 -203Q644 -202 641 -196Q638 -190 635 -185Q621 -177 600 -151Q580 -126 565 -118L543 -97Q541 -89 518 -65Q496 -41 493 -31Q489 -33 487 -33Q479 -30 471 -28Q463 -31 454 -41Q446 -50 442 -52Q443 -55 443 -61Q441 -75 439 -89Q439 -96 440 -100Q439 -102 433 -105Q426 -109 425 -114Q427 -118 449 -120Q476 -137 514 -172Q555 -210 569 -233Q543 -234 519 -215Q505 -223 488 -228Q471 -232 467 -244Q459 -279 460 -290Q458 -297 456 -305V-308Q456 -319 463 -329Q470 -339 479 -340Q544 -375 621 -448Q697 -522 714 -553Q686 -547 662 -528Q637 -509 617 -492Q578 -477 542 -436Q503 -442 486 -485Z"/>
</svg>