<svg xmlns="http://www.w3.org/2000/svg" viewBox="0 -800 1024 1024">
	<path fill="#000000" d="M443 -81Q443 -114 440 -128Q427 -128 418 -117V-114Q422 -88 425 -63L428 -62Q433 -63 438 -64H442Q443 -72 443 -81ZM514 -70L519 -141Q519 -149 511 -149Q504 -149 494 -144Q502 -110 502 -72Q507 -71 511 -70ZM611 -157Q605 -160 597 -160Q580 -160 569 -151Q575 -142 575 -135Q575 -128 567 -110Q557 -86 556 -75Q568 -73 575 -73Q581 -73 589 -75Q608 -138 611 -157ZM840 -392Q840 -383 834 -367Q825 -367 825 -382Q825 -396 833 -396Q836 -396 840 -392ZM748 -179Q749 -174 749 -165V-157Q736 -141 719 -123Q701 -104 694 -80Q700 -79 712 -79Q767 -79 791 -103V-101Q792 -95 792 -90V-88Q800 -91 808 -94Q807 -90 807 -85Q807 -68 822 -68Q829 -68 843 -72Q841 -68 838 -65Q832 -60 832 -55Q833 -54 837 -54Q841 -54 841 -52Q838 -47 838 -41Q841 -16 843 9V11Q841 23 839 35Q839 40 841 42Q821 59 807 81Q758 66 736 53L725 51H721Q707 51 670 45Q640 40 618 39Q558 35 527 35Q455 35 404 47Q404 45 398 42Q400 40 401 38L354 50Q351 61 341 63Q330 65 321 67Q264 90 238 129Q221 128 202 108Q186 91 176 88Q174 81 174 63Q174 47 178 38Q178 19 177 0Q179 -26 202 -36Q225 -47 242 -60Q236 -47 229 -34L231 -31Q264 -34 299 -41Q279 -80 267 -135Q270 -168 286 -197Q276 -190 275 -188Q270 -181 266 -172Q261 -163 251 -160Q248 -159 245 -159Q231 -159 205 -170Q177 -182 174 -191H173Q160 -191 152 -204Q145 -216 145 -232Q145 -247 152 -259Q151 -265 149 -271V-276Q149 -290 159 -300Q161 -302 179 -316Q183 -319 193 -333Q203 -348 213 -351Q207 -340 203 -325Q203 -320 206 -316Q230 -321 323 -359Q286 -391 276 -420Q263 -422 254 -429Q245 -435 233 -441Q219 -445 205 -449Q190 -452 189 -464V-466Q189 -475 203 -488Q213 -497 215 -503Q219 -515 220 -516Q224 -521 236 -524Q256 -529 276 -534Q292 -542 313 -546Q304 -541 295 -536Q286 -531 282 -522Q287 -520 291 -518Q314 -521 337 -524Q346 -524 352 -521L364 -523Q435 -534 505 -546L504 -550Q504 -554 510 -560Q463 -554 428 -544Q406 -553 381 -561L379 -563L380 -566L379 -567Q370 -568 360 -570Q402 -584 444 -597Q486 -611 538 -616Q547 -628 552 -643Q528 -641 487 -629Q449 -620 415 -609Q394 -595 369 -584H364Q336 -587 319 -599Q309 -603 300 -607Q291 -611 288 -616L287 -619Q290 -629 292 -639V-640Q289 -650 283 -658Q281 -668 279 -674Q277 -681 267 -687L271 -688Q280 -685 288 -682Q288 -687 274 -695Q263 -701 261 -705Q268 -704 281 -698Q296 -691 306 -691V-692Q306 -694 296 -697Q285 -701 285 -703L289 -704Q303 -701 316 -698H317Q322 -701 329 -701Q340 -700 351 -699Q374 -701 397 -704H406L458 -713Q458 -714 468 -719Q496 -731 535 -733Q537 -734 570 -744Q604 -751 616 -755Q625 -758 640 -758Q655 -758 662 -757Q665 -754 687 -744Q699 -748 706 -749Q704 -745 702 -742Q720 -749 746 -753Q738 -748 728 -745Q718 -742 717 -734L719 -733Q726 -735 733 -737H734Q729 -730 729 -726Q729 -720 737 -707Q745 -694 745 -687Q745 -683 744 -682Q741 -676 732 -672Q722 -667 715 -663Q695 -649 671 -618Q661 -605 652 -592Q643 -579 641 -564Q656 -569 703 -579Q746 -588 788 -597Q792 -597 781 -586Q764 -581 750 -573Q755 -570 756 -570Q768 -572 780 -574Q781 -574 781 -573Q779 -571 776 -569Q767 -565 758 -562Q763 -554 767 -547Q767 -540 759 -528Q753 -519 752 -513H750Q717 -509 689 -502Q666 -499 617 -494Q568 -489 548 -481Q549 -477 555 -471Q562 -463 562 -458V-457Q562 -453 553 -445Q546 -439 544 -435V-434Q545 -431 545 -428V-427Q542 -421 538 -415L539 -413Q540 -411 544 -411H563Q566 -418 582 -433Q602 -452 602 -462Q602 -464 600 -470Q618 -489 662 -491Q683 -491 694 -481H695Q698 -481 707 -473Q714 -466 719 -466H722Q724 -462 727 -459Q732 -455 729 -446Q726 -436 731 -433Q723 -423 723 -418V-417Q649 -410 626 -388Q683 -341 773 -328Q778 -338 778 -355Q776 -386 773 -418Q773 -429 776 -440Q782 -426 787 -383Q792 -333 805 -317Q806 -322 806 -333Q802 -378 797 -424Q796 -435 795 -447Q795 -456 800 -460Q808 -441 813 -391Q819 -330 832 -310Q833 -313 833 -319Q832 -332 831 -346Q831 -353 832 -356Q844 -344 847 -313Q851 -294 864 -279Q877 -264 889 -251Q883 -243 883 -227Q883 -213 886 -204Q883 -194 880 -185V-181Q850 -177 832 -166Q786 -164 753 -176Q751 -177 748 -179ZM641 -256L636 -260Q606 -279 575 -319Q553 -347 533 -365Q533 -320 532 -308L530 -298Q535 -296 539 -275Q542 -258 542 -250Q542 -240 533 -233Q545 -231 550 -227H569Q564 -230 567 -233Q573 -240 596 -245Q620 -250 641 -256ZM485 -227Q460 -232 456 -248Q441 -258 440 -273Q438 -275 429 -275H417Q431 -278 444 -302Q456 -324 456 -336V-337Q449 -335 434 -323Q418 -310 411 -307Q403 -303 394 -299Q368 -288 339 -264Q310 -240 291 -227Q285 -224 280 -221Q275 -219 275 -213V-209Q281 -207 282 -207Q291 -211 299 -215Q301 -216 302 -218Q322 -236 324 -236Q327 -237 332 -237Q356 -232 372 -214Q377 -213 385 -213Q422 -218 459 -223Q463 -223 485 -227ZM415 -396Q437 -404 440 -405Q451 -409 462 -413Q461 -428 459 -442Q457 -457 446 -467Q411 -464 368 -453Q342 -446 334 -442Q339 -443 350 -443Q363 -443 371 -441Q372 -442 374 -446Q376 -451 380 -451L384 -450Q383 -448 383 -443Q384 -434 392 -428Q400 -422 406 -415Q412 -417 417 -417Q415 -412 412 -407Q412 -400 415 -396Z"/>
</svg>