<svg xmlns="http://www.w3.org/2000/svg" viewBox="0 -800 1024 1024">
	<path fill="#000000" d="M468 -268H467Q467 -289 478 -289H479Q478 -282 477 -275Q476 -268 468 -268ZM855 -518V-515Q855 -507 850 -503Q845 -499 841 -496Q840 -498 840 -503Q840 -518 853 -518ZM186 -598H188Q184 -592 181 -585Q178 -578 170 -577Q169 -579 169 -583Q170 -596 186 -598ZM951 -107V-94Q958 -80 965 -66Q972 -52 973 -36Q973 -32 971 -22Q968 -14 961 -6Q954 2 953 15Q942 26 940 38Q933 41 927 41Q918 41 892 29Q839 10 765 6Q754 5 733 5Q689 5 627 15Q611 18 586 31Q567 46 548 49Q539 49 531 44Q521 33 507 15Q496 5 488 -3Q480 -12 480 -28Q480 -36 481 -40Q482 -49 491 -63Q499 -75 500 -81V-94Q503 -109 513 -120Q523 -131 531 -139Q545 -153 571 -175V-174Q571 -167 562 -156Q552 -143 552 -133V-132Q558 -129 564 -129Q586 -132 607 -136Q611 -135 615 -135Q617 -145 617 -169V-193Q617 -213 618 -222Q575 -233 564 -242Q555 -261 535 -276Q527 -297 517 -314Q507 -331 506 -358Q489 -358 484 -361Q479 -361 477 -357Q475 -353 473 -349Q426 -333 367 -255Q383 -251 398 -247Q402 -248 406 -249Q419 -242 428 -239H430Q437 -240 445 -250Q451 -258 457 -261V-258Q457 -253 453 -246Q448 -237 448 -233V-231Q449 -222 456 -216Q463 -211 469 -205Q483 -209 500 -224Q518 -241 531 -244Q527 -235 508 -218Q492 -203 490 -187L493 -186Q499 -189 505 -192H506Q506 -189 501 -183Q493 -174 493 -167Q493 -165 495 -159L498 -158Q504 -161 510 -164L513 -162Q512 -156 504 -150Q497 -145 495 -139V-135Q496 -124 497 -114V-111Q492 -98 488 -85V-84Q481 -81 475 -76Q468 -71 458 -71Q455 -71 451 -72Q440 -76 429 -84Q412 -93 396 -100Q380 -108 373 -117Q369 -101 369 -86Q369 -66 376 -58Q375 -53 375 -42Q377 -13 378 16Q378 62 353 77Q345 75 341 75Q331 75 321 83Q318 73 311 69Q304 64 296 59Q282 43 273 18Q268 10 263 2Q261 -2 261 -12V-18Q261 -35 254 -42V-50Q254 -72 264 -105Q273 -133 273 -147Q248 -127 226 -101Q176 -46 160 -25Q124 21 105 63Q103 64 97 64Q69 63 51 38L47 37Q41 39 34 41Q40 31 40 18Q40 8 36 -12Q31 -37 31 -49V-54Q33 -62 34 -71Q34 -73 32 -81Q40 -92 48 -104V-108Q45 -135 41 -163V-170Q46 -163 48 -153Q51 -143 60 -139Q56 -161 42 -200Q26 -242 23 -270Q37 -237 50 -203Q63 -170 85 -145Q112 -155 148 -185Q188 -218 208 -228Q231 -255 275 -298Q330 -352 352 -379L353 -381V-382Q293 -349 233 -316Q220 -308 204 -286Q187 -264 176 -256H167Q121 -256 102 -297Q98 -296 91 -296Q71 -296 60 -314Q49 -331 49 -356Q49 -362 51 -376Q59 -393 66 -411V-418Q66 -429 65 -440Q65 -445 67 -449Q82 -470 102 -489Q111 -501 121 -511Q130 -522 143 -523Q142 -517 134 -510Q124 -500 124 -490H126Q165 -492 195 -508Q224 -524 256 -534Q264 -543 291 -552Q310 -558 318 -564Q306 -570 290 -583Q274 -596 258 -598Q247 -598 239 -586Q237 -590 237 -593Q240 -604 245 -612Q241 -626 229 -626Q208 -621 189 -607Q192 -616 205 -628Q217 -639 220 -647Q215 -660 193 -660Q166 -656 138 -653Q147 -661 172 -667Q200 -674 208 -682Q205 -686 205 -698V-709Q205 -712 199 -713Q192 -714 192 -718Q196 -721 205 -722Q218 -724 219 -730Q216 -738 206 -748Q194 -760 191 -765Q196 -765 208 -758Q220 -751 227 -750Q263 -769 281 -769Q287 -769 290 -768Q294 -770 295 -781Q296 -792 299 -795Q302 -782 310 -772Q319 -760 329 -760Q337 -760 344 -766Q359 -729 378 -696Q398 -663 406 -619V-618Q404 -612 401 -607L402 -603Q408 -601 412 -601Q426 -601 450 -622Q451 -609 476 -607V-605Q476 -596 482 -591Q487 -587 491 -581Q497 -584 511 -598Q523 -610 533 -610H534Q527 -600 514 -589Q501 -578 500 -561Q501 -558 501 -555L503 -554Q509 -557 514 -560L518 -559Q512 -553 512 -543Q512 -524 525 -518Q524 -515 524 -502Q534 -482 536 -455Q537 -429 541 -406H544Q554 -407 564 -408Q570 -408 574 -405Q581 -411 603 -416Q617 -419 624 -423Q622 -427 622 -434Q623 -445 624 -456V-459Q622 -465 620 -472Q622 -476 623 -481Q622 -487 620 -493Q622 -503 623 -513V-515Q620 -523 617 -532Q617 -535 616 -539Q616 -546 621 -549Q617 -561 605 -612Q602 -618 598 -625Q599 -630 600 -635V-637Q597 -645 593 -653V-657Q597 -692 614 -719Q644 -755 686 -760Q692 -760 694 -759Q700 -758 716 -738Q727 -726 738 -715Q741 -706 744 -697Q752 -684 762 -668Q772 -653 775 -634V-628Q775 -618 774 -609Q774 -603 777 -597Q772 -594 772 -588V-575Q747 -540 741 -457Q762 -461 768 -471Q770 -470 773 -470Q782 -472 791 -475Q794 -475 796 -474Q802 -476 812 -484Q823 -493 829 -493H830Q823 -479 823 -473Q823 -464 832 -463Q840 -467 846 -472Q852 -477 863 -478H867Q867 -474 858 -467Q845 -456 845 -447Q845 -445 847 -439H850Q855 -441 860 -444L863 -443Q860 -437 860 -431Q861 -420 867 -410Q874 -400 879 -388Q880 -375 886 -366Q880 -354 878 -338Q875 -323 864 -315Q846 -307 797 -296Q752 -286 733 -277Q723 -272 723 -255Q724 -244 724 -233V-229Q717 -205 712 -170Q712 -158 716 -150Q781 -148 854 -157Q871 -161 880 -170Q889 -180 900 -189Q897 -181 897 -174Q897 -162 903 -156H907Q915 -156 927 -161Q939 -166 947 -166H953Q943 -160 932 -155Q921 -151 918 -138Q919 -133 930 -133H939Q945 -133 947 -132Q937 -131 937 -119Q937 -107 949 -107Z"/>
</svg>