<svg xmlns="http://www.w3.org/2000/svg" viewBox="0 -800 1024 1024">
	<path fill="#000000" d="M942 -581V-572Q933 -569 916 -567L915 -571Q917 -582 934 -583Q938 -583 942 -581ZM677 -23H686Q698 -65 721 -99Q719 -99 716 -100Q711 -100 709 -96Q708 -92 708 -89Q680 -88 651 -72Q619 -54 619 -32Q619 -23 625 -14Q646 -23 677 -23ZM708 -218Q702 -212 696 -212Q689 -213 682 -211Q659 -206 640 -195Q621 -184 604 -174Q577 -183 559 -196Q535 -214 535 -233Q535 -247 546 -259Q543 -268 543 -275Q543 -293 562 -303Q577 -311 599 -312Q600 -325 601 -338H599Q594 -338 594 -333V-329Q582 -329 546 -316Q512 -304 503 -304H499Q476 -308 461 -326Q445 -344 429 -356Q429 -360 428 -364Q431 -382 434 -400Q434 -404 433 -409Q432 -416 426 -427Q416 -446 416 -456Q416 -464 418 -469Q429 -489 452 -500Q460 -503 468 -503Q490 -503 491 -490L534 -499Q534 -511 551 -511H554Q571 -524 593 -528H599Q595 -558 591 -594Q587 -628 565 -636Q562 -636 558 -637Q536 -636 525 -619Q527 -632 535 -644Q543 -655 552 -670Q568 -698 595 -725Q610 -778 669 -776Q690 -776 702 -774Q717 -761 741 -725Q767 -690 767 -664V-662Q767 -645 743 -611Q718 -576 718 -557Q718 -548 721 -541Q735 -544 748 -548L763 -558Q770 -567 792 -573Q808 -578 816 -584Q823 -590 829 -598Q835 -605 844 -610Q834 -590 834 -586Q834 -579 841 -575Q850 -577 858 -580Q861 -580 863 -579V-578Q860 -575 857 -567L858 -563Q861 -556 868 -556Q885 -560 902 -564Q897 -559 888 -553Q880 -548 879 -540L880 -536L882 -535Q889 -536 896 -538H899Q899 -535 895 -534Q892 -533 891 -531Q889 -529 889 -524Q892 -513 899 -503Q903 -491 904 -479Q905 -467 912 -458Q891 -444 883 -410Q797 -404 705 -369Q699 -358 696 -344Q696 -340 698 -334Q730 -343 745 -353L746 -351Q741 -344 735 -338Q737 -332 744 -329Q767 -336 796 -338H800Q785 -329 773 -325Q774 -323 778 -323H790Q790 -319 784 -315Q780 -312 779 -308Q783 -301 790 -297Q778 -290 778 -274Q778 -260 787 -252H784Q775 -252 772 -244Q772 -243 769 -227Q762 -225 754 -224V-227Q753 -233 745 -234ZM290 -148Q286 -139 279 -136Q271 -132 264 -128Q253 -120 242 -100Q229 -77 219 -70Q200 -76 186 -97Q181 -105 164 -137Q171 -144 171 -157V-163Q171 -170 172 -174Q175 -184 185 -193Q195 -202 202 -211Q213 -234 226 -252Q207 -251 175 -235Q158 -228 143 -221Q127 -215 119 -200Q69 -212 61 -298Q61 -304 60 -311Q60 -330 68 -342Q69 -344 90 -367Q117 -396 118 -398Q138 -423 154 -444Q171 -464 196 -479L235 -526V-528Q238 -542 252 -556Q282 -597 293 -616Q309 -640 309 -649Q309 -658 299 -661Q316 -672 333 -682Q351 -693 368 -694Q383 -694 397 -683Q401 -680 415 -651Q447 -587 451 -536Q420 -519 389 -502Q373 -492 362 -477Q351 -463 338 -448Q321 -432 303 -416Q286 -399 276 -378H278Q301 -385 322 -396H328Q340 -396 356 -390Q364 -382 365 -352Q366 -325 371 -318Q363 -302 330 -272Q295 -241 288 -226Q291 -225 293 -225Q305 -228 324 -241Q341 -252 360 -259Q377 -264 395 -264L398 -263Q396 -260 394 -257V-256Q397 -255 401 -255Q404 -255 410 -257Q411 -256 412 -253Q412 -250 415 -250H418Q419 -250 440 -256Q424 -244 425 -235Q426 -229 442 -229H443V-227Q443 -215 432 -206Q421 -197 418 -189Q420 -182 421 -175Q397 -174 388 -171Q379 -168 362 -162Q355 -165 348 -165Q320 -160 299 -146ZM252 63Q242 81 227 88Q182 100 145 64Q124 -9 164 -58Q165 -46 171 -41Q176 -37 182 -39Q213 -52 249 -72Q287 -87 315 -103Q349 -113 397 -139Q427 -155 443 -161Q443 -157 439 -155Q434 -152 431 -149Q420 -138 419 -126Q420 -124 427 -124Q422 -120 420 -110Q421 -109 429 -84L436 -58Q404 -23 363 -3Q321 17 284 43Q278 50 268 55Q264 55 262 54ZM926 -82Q925 -78 924 -75Q915 -58 880 -36Q838 -8 816 17Q785 51 775 93Q770 95 761 95Q742 93 723 90Q719 91 714 97Q709 102 705 104Q707 98 709 91Q703 88 694 76Q683 61 672 61H669V59Q669 56 664 48Q661 47 655 47Q643 47 630 64Q620 77 612 82Q598 88 583 96Q574 94 558 82Q540 69 524 68Q529 60 534 52Q524 38 524 34L506 5Q499 5 494 -2Q489 -9 482 -17Q466 -35 454 -59Q439 -89 439 -116Q439 -126 440 -131Q446 -152 475 -156Q479 -165 479 -180Q479 -190 478 -193Q486 -174 524 -164Q549 -157 556 -150Q558 -151 561 -151Q566 -151 571 -146Q582 -153 604 -156Q624 -159 631 -162Q653 -170 675 -179Q701 -187 727 -192Q754 -198 776 -209Q782 -212 793 -222Q803 -231 810 -234Q832 -234 840 -240Q861 -210 896 -202Q913 -210 929 -212H933Q929 -207 919 -203Q908 -199 907 -189Q907 -185 908 -183H910Q914 -183 919 -187Q925 -192 929 -192Q933 -192 935 -191Q927 -180 918 -170Q923 -159 927 -144Q930 -130 941 -122V-118Q941 -104 926 -82Z"/>
</svg>