<svg xmlns="http://www.w3.org/2000/svg" viewBox="0 -800 1024 1024">
	<path fill="#000000" d="M370 -481Q362 -496 362 -529Q346 -528 328 -518Q313 -510 305 -508Q303 -481 314 -470Q342 -475 370 -481ZM454 -364Q462 -373 474 -374Q485 -375 497 -376Q570 -388 636 -401Q624 -442 570 -442Q558 -442 551 -441Q538 -437 524 -433Q518 -434 512 -435Q449 -435 406 -415Q382 -403 361 -393Q341 -384 315 -384Q303 -384 297 -386Q303 -373 297 -361Q312 -358 326 -355Q346 -358 366 -361Q376 -361 382 -355ZM486 -569Q479 -579 481 -586Q452 -584 439 -569Q446 -533 453 -498Q459 -501 478 -499Q486 -524 486 -569ZM690 -652Q666 -649 606 -629Q609 -628 610 -615Q611 -597 617 -595Q610 -591 611 -583Q613 -575 614 -569Q602 -565 591 -548Q581 -532 579 -519Q582 -518 585 -518Q597 -519 608 -520Q618 -520 625 -516Q655 -568 677 -621Q684 -636 690 -652ZM584 -280Q586 -247 581 -209Q657 -209 705 -233Q732 -212 754 -210Q747 -206 747 -198Q747 -188 754 -179Q736 -156 736 -131Q718 -131 700 -132Q647 -141 573 -133Q573 -99 569 -57Q570 -53 571 -51Q571 -50 577 -50Q588 -50 598 -51H681Q691 -53 701 -56H706Q726 -54 745 -53H750Q796 -56 842 -67Q845 -75 847 -83Q849 -92 857 -96V-85Q857 -63 864 -57H889Q886 -52 886 -47Q886 -42 890 -38Q901 -40 911 -42Q914 -42 917 -41L918 -38Q917 -33 916 -29Q927 -15 929 19Q929 28 928 32Q925 40 905 51Q887 61 886 68Q783 44 658 44Q604 44 560 46Q531 49 502 51Q487 51 480 49L387 55Q384 63 365 63H346Q317 65 276 77Q231 90 220 102H214Q166 102 144 76Q127 75 111 61Q110 57 110 49Q110 34 123 12L124 8Q123 4 122 0Q122 -19 139 -31Q147 -37 178 -50Q187 -54 195 -59Q202 -64 215 -64H218V-62Q218 -59 214 -58Q210 -56 209 -53Q222 -48 248 -48H310V-49Q310 -59 293 -95Q279 -124 279 -133V-134Q279 -141 289 -156Q297 -168 298 -171Q297 -178 284 -184Q274 -189 271 -192Q274 -193 278 -193Q288 -189 305 -186H307Q311 -186 322 -190Q336 -195 346 -195H349Q352 -195 355 -192Q359 -188 365 -186Q375 -184 382 -183Q389 -182 391 -174Q397 -175 402 -177Q418 -162 418 -133V-131Q412 -93 406 -56Q406 -51 407 -48Q413 -46 417 -46Q440 -47 463 -49Q467 -49 473 -47Q475 -164 455 -261Q373 -245 326 -231Q296 -217 264 -213Q257 -213 249 -216Q235 -216 223 -222Q215 -230 201 -235Q187 -240 185 -247Q183 -257 183 -260Q183 -274 190 -281Q196 -289 203 -297Q201 -311 201 -313Q208 -360 284 -388Q269 -397 244 -397Q235 -397 221 -395Q222 -398 222 -403Q222 -419 202 -441Q186 -458 183 -468L174 -483Q162 -486 148 -502Q128 -517 123 -522Q111 -536 111 -556V-561Q111 -581 123 -607Q117 -629 111 -652Q117 -646 133 -624Q135 -626 135 -630Q132 -642 126 -650L129 -651Q132 -651 137 -646Q143 -640 147 -640Q150 -640 154 -643L155 -646Q155 -648 152 -651Q147 -655 147 -658Q157 -655 166 -653Q189 -670 206 -670Q211 -669 215 -669Q235 -666 247 -652Q260 -639 271 -629Q294 -629 335 -640Q365 -648 379 -650L403 -656Q421 -670 443 -677Q464 -684 486 -690Q617 -731 763 -764Q773 -790 801 -790Q847 -785 871 -754L884 -757Q880 -747 884 -738Q890 -740 893 -744Q896 -749 900 -753Q898 -742 895 -732Q895 -725 898 -724Q904 -725 909 -726Q924 -681 924 -662Q924 -651 916 -640Q895 -632 876 -619Q877 -618 881 -618Q885 -618 885 -616Q874 -610 862 -604Q853 -594 841 -589L829 -578Q815 -560 801 -543Q781 -514 760 -479Q739 -444 716 -417Q746 -422 768 -430Q759 -421 760 -412Q801 -430 818 -432Q808 -422 797 -414Q786 -406 780 -392Q788 -393 796 -398Q807 -405 815 -405Q815 -403 808 -395Q797 -383 797 -374Q797 -360 806 -357Q814 -357 819 -348Q792 -331 787 -300Q776 -292 756 -292Q737 -292 673 -297Q611 -289 586 -280Z"/>
</svg>