<svg xmlns="http://www.w3.org/2000/svg" viewBox="0 -800 1024 1024">
	<path fill="#000000" d="M705 -6H712Q715 -1 717 3V4Q710 3 703 1Q704 -2 705 -6ZM338 -31V-29Q329 -29 325 -38L329 -43Q337 -38 338 -31ZM513 -196Q514 -208 515 -221Q515 -226 513 -234L511 -236Q483 -229 462 -213Q453 -207 444 -202Q441 -196 441 -192Q441 -181 462 -172Q485 -185 513 -196ZM770 -139V-138Q772 -134 774 -130Q769 -109 766 -86Q753 -82 740 -78Q732 -78 727 -82Q725 -82 724 -76Q723 -71 721 -70Q716 -101 707 -126Q708 -131 708 -136Q711 -181 704 -224Q697 -254 697 -255Q697 -262 699 -266Q714 -275 721 -288Q728 -302 736 -320L737 -316V-309Q737 -300 741 -299H742L743 -301Q743 -303 742 -306L744 -309Q751 -304 753 -297Q764 -282 775 -266Q786 -249 787 -229V-228Q787 -201 783 -184Q777 -161 770 -139ZM915 -474Q926 -467 927 -454Q903 -426 893 -360Q889 -334 883 -240Q880 -209 877 -178V-168Q879 -160 879 -153Q879 -144 875 -137L876 -73Q881 -59 887 -26Q895 19 904 35Q903 38 903 45Q903 51 906 54Q898 63 889 72Q880 81 874 93H869Q863 93 858 102Q853 110 850 111Q821 108 787 77Q747 41 733 34Q742 35 756 42Q771 50 776 51Q770 42 749 29Q727 15 721 5Q761 25 776 31Q764 17 727 -2Q700 -16 687 -27Q722 -14 756 -2Q770 5 778 5H780Q795 0 798 -70Q805 -195 806 -236Q814 -320 817 -390V-403Q817 -455 803 -461Q800 -462 793 -462Q782 -461 774 -455Q765 -449 758 -447Q760 -456 778 -468Q790 -476 794 -482L790 -483H784Q800 -500 813 -517Q826 -534 857 -549Q866 -546 875 -544Q879 -532 896 -513Q912 -496 915 -483ZM828 -712V-714Q828 -726 842 -726Q848 -726 850 -724Q848 -716 828 -712ZM43 -244H47L46 -241Q48 -234 49 -228Q49 -226 47 -222Q43 -222 39 -227Q35 -232 35 -237Q35 -244 43 -244ZM582 -270H581Q571 -265 560 -259V-255Q559 -240 557 -225Q557 -218 559 -215Q569 -225 582 -270ZM565 -539Q586 -518 594 -496Q615 -508 629 -511Q629 -508 628 -505L629 -502Q633 -503 642 -509Q654 -517 662 -518Q658 -513 652 -506Q646 -499 643 -491Q645 -484 648 -482Q656 -485 663 -488H664V-485H666Q663 -483 660 -482Q656 -474 656 -468Q656 -463 659 -460L660 -459Q663 -460 666 -462Q660 -457 660 -449Q662 -434 664 -420Q664 -417 663 -414Q659 -402 648 -397Q637 -391 625 -386L605 -377Q600 -372 584 -367Q572 -363 566 -359V-357Q566 -351 565 -346V-344Q567 -342 569 -340Q581 -343 601 -358Q629 -378 646 -378Q650 -376 654 -375L655 -374Q657 -374 660 -378Q662 -382 664 -382Q667 -382 667 -379Q667 -377 669 -376Q675 -395 691 -400Q687 -392 682 -385Q676 -378 676 -366V-361Q680 -364 684 -367H685Q687 -347 696 -333Q705 -320 711 -304Q706 -300 704 -298V-293Q704 -287 705 -284Q688 -281 678 -268Q668 -255 663 -237Q653 -198 640 -166Q634 -153 637 -139V-135Q631 -134 626 -134Q621 -134 619 -129Q614 -131 608 -133Q607 -133 603 -131Q598 -139 590 -142L586 -141Q585 -147 581 -148Q574 -149 573 -157V-158Q567 -160 565 -160Q555 -160 555 -142Q556 -136 556 -130Q593 -117 630 -104Q637 -113 647 -116H649Q642 -115 642 -101Q642 -96 643 -94Q646 -92 648 -90Q665 -102 683 -102H690Q684 -99 672 -94Q660 -89 657 -80Q655 -76 655 -71Q655 -57 666 -57H668Q660 -54 660 -44Q660 -43 663 -25Q660 -26 657 -28Q650 -16 632 -16Q595 -23 567 -43Q563 -39 562 -25Q561 -14 560 -11L562 5Q575 25 578 47V49Q574 63 570 76V82Q560 83 545 96Q524 89 515 69Q506 49 495 31Q510 -17 511 -61Q450 -27 421 65Q417 64 410 64Q397 64 392 70V69Q393 67 394 65L393 63Q391 55 379 44Q368 35 365 27Q364 24 364 19Q364 13 362 10Q360 2 352 -9Q344 -20 342 -25Q344 -24 350 -18Q357 -11 361 -11H362Q360 -25 340 -45Q328 -58 323 -67Q335 -61 357 -43Q374 -29 384 -23Q405 -35 421 -52Q437 -69 453 -86Q442 -94 427 -102Q411 -109 404 -123H397Q393 -130 391 -141L374 -147Q364 -147 355 -156Q346 -165 338 -165Q330 -179 320 -200Q315 -210 315 -211Q315 -214 314 -217Q316 -231 317 -245V-250Q324 -259 331 -263Q338 -267 339 -279V-294Q345 -285 351 -276Q359 -279 363 -279Q371 -279 380 -272Q391 -264 400 -264H403Q417 -270 431 -277Q470 -293 508 -309L509 -313Q509 -320 506 -325Q479 -319 444 -305Q419 -311 409 -330Q399 -348 386 -367Q388 -372 389 -378Q379 -362 378 -360Q362 -343 349 -319Q336 -294 324 -270Q318 -259 304 -239Q290 -219 288 -209Q271 -193 252 -147Q232 -99 215 -84L194 -49V-48Q194 -30 176 -4Q157 23 157 42V49Q137 56 123 64Q90 58 87 58Q78 58 73 60L72 57Q74 52 76 46Q66 32 43 -17Q45 -20 45 -28Q44 -39 43 -51Q43 -56 44 -59Q45 -69 54 -85Q62 -99 62 -107V-109Q62 -123 54 -149Q45 -178 45 -193Q45 -198 47 -210Q61 -161 77 -113Q96 -123 110 -138Q124 -154 139 -167Q130 -174 122 -184Q114 -193 101 -198Q101 -206 100 -214Q100 -270 130 -275Q133 -275 133 -272V-267Q144 -264 155 -264Q182 -264 237 -288Q225 -302 205 -302Q198 -302 194 -301Q197 -305 197 -310Q197 -323 179 -332Q163 -340 148 -341Q151 -346 166 -347Q179 -348 182 -351V-352Q182 -357 178 -360Q173 -364 173 -367Q177 -367 185 -373Q179 -382 175 -390V-392H176Q183 -390 188 -385Q194 -395 205 -395Q217 -393 229 -392H233Q244 -387 262 -368Q273 -357 283 -350Q317 -415 351 -470Q343 -472 338 -472Q319 -471 304 -461Q289 -451 274 -443Q238 -450 215 -494Q207 -508 200 -521Q193 -534 193 -552Q193 -560 194 -565Q195 -574 206 -587Q218 -602 219 -615Q229 -619 254 -639Q275 -656 293 -656H299Q293 -652 284 -647Q276 -642 275 -635Q275 -630 279 -626Q284 -625 295 -625Q310 -625 339 -631Q364 -636 374 -637Q421 -645 461 -649Q450 -712 401 -727Q408 -731 415 -733Q422 -736 424 -744Q441 -751 460 -763Q478 -775 499 -776H502Q526 -776 526 -759V-758L547 -743Q570 -738 579 -697Q556 -691 553 -669Q553 -664 554 -661Q582 -665 632 -682Q686 -700 713 -703Q730 -704 744 -705Q759 -707 772 -715Q772 -704 783 -704Q797 -706 811 -708Q815 -708 816 -707Q813 -704 808 -701Q804 -699 803 -694Q806 -691 811 -691Q818 -691 822 -694V-693Q820 -688 818 -684V-683Q820 -673 829 -670V-668Q829 -664 828 -660V-658Q840 -646 856 -638Q843 -627 840 -626Q844 -622 844 -620Q841 -616 838 -605V-602Q797 -578 724 -574L631 -554Q623 -552 565 -539ZM508 -525Q500 -523 484 -517Q476 -504 437 -448Q461 -450 485 -453V-456Q483 -472 480 -488Q480 -494 481 -496Q486 -504 497 -513Q503 -519 508 -525Z"/>
</svg>