<svg xmlns="http://www.w3.org/2000/svg" viewBox="0 -800 1024 1024">
	<path fill="#000000" d="M252 -135V-142Q254 -155 255 -169Q232 -164 222 -158Q205 -148 205 -132Q205 -123 207 -118Q228 -128 252 -135ZM256 -259H258Q261 -268 261 -281Q261 -288 259 -300Q242 -298 229 -286Q216 -274 201 -265V-247Q201 -239 203 -235Q215 -242 226 -250Q237 -258 256 -259ZM200 -348V-346Q211 -347 232 -361Q252 -374 267 -377Q269 -405 269 -418Q269 -430 267 -450Q245 -430 223 -408Q202 -386 200 -348ZM92 -274Q86 -304 67 -349Q59 -366 49 -381Q40 -396 39 -418Q39 -427 40 -432Q52 -446 52 -465V-466Q48 -486 43 -502Q43 -505 46 -510Q51 -503 54 -494Q57 -486 65 -483Q71 -490 71 -498Q71 -508 61 -528Q49 -552 49 -563Q50 -566 50 -570H51Q57 -569 59 -563Q60 -557 61 -553Q69 -533 74 -525Q83 -511 98 -509Q101 -511 104 -513Q104 -522 96 -535Q90 -545 90 -551V-555Q96 -553 100 -548Q104 -543 108 -538Q117 -530 126 -523Q129 -524 133 -524Q140 -524 149 -518Q161 -510 168 -510H169Q185 -511 198 -525Q211 -539 222 -550Q248 -568 268 -591Q282 -610 295 -630Q307 -649 334 -651Q342 -651 346 -650Q355 -642 361 -635Q368 -635 374 -646Q380 -656 388 -657Q388 -653 383 -643Q376 -630 376 -623Q376 -617 379 -613Q384 -614 387 -620Q390 -627 394 -627Q393 -617 391 -607V-603Q400 -596 401 -575Q404 -567 406 -559Q402 -530 398 -525Q357 -461 348 -406Q329 -267 324 -245L321 -190Q329 -175 329 -152V-120Q331 -103 341 -76Q352 -46 352 -33Q352 -24 344 -10Q336 4 336 12Q324 13 314 17Q304 20 303 33Q299 21 288 17Q277 13 267 8Q265 0 260 -8Q252 -20 252 -28V-34Q216 -28 199 -15Q189 -6 180 5Q171 16 154 17H149Q144 12 132 5Q117 -4 112 -12Q107 -22 105 -33Q102 -45 92 -52Q104 -68 104 -101Q102 -143 96 -186Q93 -207 93 -210Q93 -220 99 -226ZM841 -713Q834 -703 825 -703Q822 -703 820 -704Q822 -714 834 -716Q838 -716 841 -713ZM965 -433Q964 -423 957 -419Q950 -415 942 -411Q949 -435 958 -435Q959 -435 965 -433ZM588 -60V-77Q588 -97 581 -104Q575 -101 569 -99Q569 -94 568 -90Q571 -58 580 -33Q586 -34 592 -36Q588 -43 588 -60ZM653 -41H654Q655 -48 657 -72Q659 -101 664 -114H658L655 -116L654 -119Q655 -122 656 -126L655 -128Q653 -128 639 -122Q646 -93 646 -39H647Q650 -40 653 -41ZM694 -42H710Q738 -130 744 -144Q738 -146 734 -146Q721 -146 721 -135V-134Q725 -126 730 -119Q703 -103 694 -42ZM664 -185Q643 -174 604 -162Q568 -151 553 -144Q661 -149 744 -188H715Q705 -188 701 -189ZM847 -82Q844 -80 840 -78V-75Q822 -61 812 -41Q815 -37 819 -37Q826 -39 833 -41Q841 -39 848 -38H851Q863 -38 886 -44Q907 -50 916 -50L918 -52Q918 -55 917 -58L919 -60H920Q926 -59 926 -50Q926 -46 925 -43Q926 -40 926 -38Q937 -27 953 -27Q957 -27 960 -28Q957 -23 953 -18Q957 -11 958 8Q959 32 969 40Q963 40 960 44Q958 49 957 54Q955 53 951 53Q946 54 941 54Q938 54 935 53Q939 56 939 59Q936 62 932 73Q912 67 865 63Q831 60 815 57L799 54Q772 58 735 58Q680 57 624 55Q563 55 528 66H513Q456 80 414 119Q393 115 371 110Q361 105 352 85Q346 71 341 66Q342 25 343 20Q346 -5 359 -9Q391 -21 423 -33Q415 -28 415 -22Q415 -18 417 -15Q426 -19 468 -26Q474 -25 480 -25L483 -26V-27Q477 -43 465 -56Q459 -61 446 -67Q432 -73 427 -79Q418 -118 418 -124Q418 -145 435 -150Q423 -157 400 -160Q375 -163 368 -173Q364 -178 364 -184Q366 -195 368 -207Q367 -218 365 -229Q365 -238 373 -243Q379 -247 394 -251Q411 -256 418 -260Q432 -272 445 -285Q462 -297 480 -307Q497 -318 512 -332Q516 -335 521 -339Q526 -343 526 -349L525 -352Q500 -348 477 -335Q454 -322 432 -310Q406 -315 383 -328Q355 -345 355 -363Q355 -378 373 -392Q370 -398 370 -402Q370 -409 377 -419Q386 -432 386 -440V-444H387Q392 -444 393 -439Q394 -434 397 -430Q414 -436 460 -440Q494 -443 515 -448Q524 -450 542 -458Q563 -467 575 -468Q574 -470 574 -476Q575 -487 576 -498Q576 -501 574 -507Q525 -497 498 -470Q459 -476 451 -496Q449 -495 444 -495Q430 -495 421 -508Q412 -521 412 -537Q412 -556 423 -568Q423 -573 415 -578Q410 -582 408 -586Q410 -589 411 -589Q416 -587 421 -586H423V-589Q423 -598 415 -606Q409 -612 408 -617H412Q430 -612 447 -608Q460 -611 473 -615Q478 -615 481 -614L482 -612L491 -615Q515 -634 556 -636Q550 -647 544 -663Q537 -679 525 -690Q513 -688 504 -682Q495 -676 485 -672Q495 -682 513 -706Q525 -726 538 -744Q566 -776 611 -780H618Q655 -780 663 -763L679 -762Q705 -758 724 -723Q714 -697 703 -672Q721 -679 759 -687Q794 -694 815 -702Q814 -699 807 -695Q800 -691 800 -690H805Q815 -690 837 -698Q864 -708 880 -708Q866 -701 851 -695Q835 -690 828 -677Q832 -672 837 -672Q849 -675 860 -678Q856 -673 851 -669Q845 -665 845 -659Q845 -643 864 -641Q868 -641 871 -642Q858 -634 844 -626Q843 -607 835 -594Q827 -582 822 -567Q738 -560 674 -537V-499Q687 -500 713 -509Q748 -521 768 -521Q778 -521 783 -520L815 -533Q821 -544 850 -546Q872 -547 880 -552Q882 -551 884 -546Q886 -541 889 -540Q907 -543 919 -550L920 -548Q920 -546 915 -544Q909 -541 909 -538V-537Q912 -533 918 -533Q935 -536 952 -540H953Q946 -537 932 -531Q919 -525 917 -519Q917 -514 929 -511Q919 -508 919 -493Q919 -485 925 -481Q896 -446 840 -436Q786 -427 730 -416Q674 -406 629 -384H631Q645 -384 654 -373Q655 -362 655 -352Q655 -336 646 -326Q615 -323 588 -309Q568 -298 544 -277Q625 -303 698 -318Q695 -323 688 -330Q681 -337 680 -349Q689 -358 689 -369Q698 -370 711 -376Q727 -383 740 -383H745Q760 -383 788 -373Q813 -364 821 -364H825Q835 -365 849 -378Q859 -387 866 -390Q865 -386 857 -379Q844 -368 844 -362Q844 -357 848 -352Q862 -358 887 -378Q913 -398 931 -405V-403Q928 -396 917 -390Q905 -380 891 -366Q877 -352 876 -333V-330Q885 -333 897 -343Q912 -355 922 -357V-356Q922 -348 904 -335Q897 -330 891 -325Q884 -321 883 -312H885Q891 -316 901 -320Q902 -320 906 -318L907 -317Q907 -315 900 -309Q892 -302 891 -300Q891 -294 890 -289Q890 -271 900 -271Q901 -271 907 -273Q894 -264 886 -222Q878 -223 878 -231Q880 -243 882 -256Q882 -261 879 -266Q870 -264 865 -249Q861 -238 857 -235H852Q835 -235 834 -223Q838 -219 847 -219H861Q872 -219 873 -214Q854 -203 854 -188Q854 -181 860 -174Q866 -175 876 -180Q887 -186 896 -186H898Q888 -181 883 -177Q876 -170 876 -160Q880 -158 882 -158Q889 -158 903 -171Q914 -181 919 -183H921Q931 -184 941 -186H945Q914 -170 908 -166Q887 -152 886 -132Q886 -126 889 -117Q885 -94 847 -82Z"/>
</svg>