<svg xmlns="http://www.w3.org/2000/svg" viewBox="0 -800 1024 1024">
	<path fill="#000000" d="M272 -68Q244 -83 244 -102Q244 -107 245 -110Q242 -113 239 -116Q236 -120 230 -120Q224 -113 221 -106Q221 -103 222 -100Q211 -84 205 -57Q239 -62 272 -68ZM316 -165L313 -166Q300 -157 280 -157Q265 -157 254 -164Q236 -154 234 -125Q238 -124 245 -124Q263 -126 288 -135Q290 -138 291 -142Q296 -144 303 -153Q310 -161 315 -164ZM350 -77Q343 -91 343 -106Q343 -120 345 -129L343 -130Q332 -124 319 -107Q309 -95 304 -90Q304 -81 305 -77Q292 -71 292 -70Q330 -76 350 -77ZM445 -311H446Q441 -322 434 -328H423V-324Q423 -318 422 -312Q422 -308 423 -306Q434 -308 445 -311ZM338 -327Q338 -318 331 -308Q323 -304 307 -302Q299 -305 281 -313Q278 -320 268 -331Q258 -342 256 -350Q256 -352 255 -355Q257 -367 258 -380Q258 -388 256 -393L258 -396Q260 -394 261 -388Q263 -379 268 -377Q273 -383 288 -383Q300 -383 304 -379Q306 -380 309 -386Q310 -374 324 -355Q338 -337 338 -327ZM901 -387Q898 -373 884 -372V-374Q884 -388 894 -388Q898 -387 901 -387ZM894 -733Q892 -729 889 -725Q887 -727 882 -727Q876 -726 869 -725H868Q872 -736 885 -736Q890 -736 894 -733ZM769 -31L774 -6Q781 -3 781 3Q782 9 784 15Q788 23 792 31V57Q794 62 795 67Q794 76 782 97Q770 117 769 124Q753 126 749 126Q720 125 702 108Q683 91 669 74Q670 71 670 68Q669 54 661 44Q653 33 648 26Q653 26 658 31Q646 7 633 -17Q628 -22 622 -25Q616 -29 615 -37V-38Q622 -36 625 -31Q627 -27 630 -22Q639 -18 650 -3Q660 11 667 15Q640 -25 613 -66Q627 -58 646 -32Q665 -7 680 2Q687 -40 695 -82Q702 -124 703 -172Q703 -182 702 -193Q676 -190 661 -179Q653 -170 653 -157V-138Q653 -110 638 -102Q636 -103 632 -103Q623 -101 614 -100H610Q602 -95 596 -85Q591 -87 591 -92Q590 -97 590 -102Q584 -107 575 -111Q567 -115 565 -123L562 -124Q559 -123 555 -123H554V-124Q558 -133 563 -140V-143Q561 -154 559 -165Q551 -223 546 -236Q532 -255 526 -277Q526 -288 543 -292V-306Q553 -326 571 -344Q590 -363 607 -384L636 -424Q643 -433 653 -445Q663 -456 664 -467Q664 -473 658 -479Q686 -509 731 -513Q736 -513 741 -514Q767 -513 779 -500Q790 -487 801 -470Q821 -446 823 -431Q824 -428 824 -423Q824 -413 817 -407Q816 -406 799 -397Q794 -394 774 -380Q764 -373 746 -365Q713 -349 703 -341Q687 -327 687 -321L688 -319Q681 -317 678 -315Q677 -309 665 -300Q652 -290 652 -282Q675 -283 715 -299Q751 -314 770 -314Q774 -313 778 -313L822 -328Q824 -336 833 -338Q842 -341 850 -344Q866 -353 881 -363L882 -362Q880 -357 877 -352V-351Q894 -360 918 -363Q916 -362 902 -353Q893 -347 892 -340Q894 -338 896 -336Q908 -339 919 -342L920 -340Q916 -335 912 -327V-326L915 -324Q920 -326 925 -328H926Q922 -324 922 -320Q926 -308 929 -297Q929 -292 923 -279Q916 -262 916 -254V-251Q902 -241 861 -238Q819 -234 804 -223Q803 -210 790 -192Q777 -174 776 -164Q773 -134 773 -79Q773 -45 772 -27Q770 -29 769 -31ZM692 -668Q702 -671 711 -674Q780 -692 859 -721Q858 -714 857 -707V-703Q862 -698 868 -698Q879 -699 890 -701Q886 -698 881 -696Q875 -694 875 -687V-685Q876 -682 883 -682H898Q893 -678 887 -675V-671Q887 -659 898 -637Q891 -633 883 -630V-621Q870 -606 849 -603Q828 -600 807 -594Q783 -584 764 -566Q748 -556 732 -546Q715 -535 710 -518Q700 -520 695 -520Q666 -520 660 -501L659 -504Q661 -509 663 -515L662 -517H659Q646 -517 637 -496V-500Q637 -517 650 -535Q656 -543 675 -562Q595 -562 581 -525H578Q567 -523 555 -522Q537 -518 516 -533Q502 -542 505 -549Q482 -550 455 -535Q426 -519 418 -497Q417 -494 421 -477Q417 -472 409 -472L405 -473Q419 -467 430 -452Q429 -449 428 -447L430 -445Q437 -436 443 -428Q450 -419 450 -408V-406Q450 -395 438 -376Q424 -354 424 -342Q425 -339 425 -336Q445 -350 458 -379Q478 -410 478 -426Q478 -438 470 -446Q489 -449 508 -461Q517 -470 527 -477Q529 -478 533 -478Q539 -478 550 -472Q559 -467 565 -467H571Q575 -456 581 -455Q587 -455 593 -460Q600 -465 607 -465H609Q607 -461 600 -456Q590 -449 590 -442V-440L593 -438Q597 -440 601 -442Q603 -442 605 -440Q599 -434 599 -426Q600 -419 598 -411Q597 -404 590 -396Q583 -388 582 -384Q547 -382 526 -361Q512 -347 498 -315H500Q503 -316 505 -317H506Q501 -310 498 -302Q498 -301 500 -297L502 -296Q506 -297 510 -298H512Q509 -296 509 -294Q513 -287 517 -280Q518 -278 518 -274V-272Q518 -261 525 -258Q500 -225 481 -225H476L444 -214Q443 -208 428 -206Q413 -204 412 -198Q425 -193 442 -193Q449 -193 452 -194Q457 -203 467 -210Q469 -204 470 -198Q477 -200 485 -208Q496 -218 506 -219Q496 -209 491 -194Q491 -190 495 -186Q507 -190 520 -197V-195Q520 -192 515 -186Q509 -179 509 -176Q509 -174 512 -170Q516 -166 525 -166Q522 -163 519 -160Q527 -139 527 -128V-124Q512 -113 491 -113Q466 -113 407 -140V-134Q407 -117 423 -85Q446 -88 477 -90Q507 -91 533 -98Q538 -108 544 -116Q547 -116 548 -109Q549 -104 551 -102Q567 -96 579 -80Q586 -71 598 -50Q594 -47 593 -37Q592 -27 589 -24Q582 -14 573 -7Q560 3 547 3Q526 3 505 2H497Q439 5 377 16Q353 20 343 20Q333 20 330 19L253 29Q246 36 222 38Q199 40 190 46Q185 49 183 63Q181 75 176 79Q165 87 150 87Q137 86 125 75Q113 63 106 56Q96 44 89 26Q77 2 77 -6V-7Q77 -13 94 -36Q125 -72 140 -130V-135Q140 -144 148 -146L152 -177Q147 -178 147 -185V-192Q137 -251 109 -264Q112 -270 112 -275Q111 -285 109 -296Q109 -305 119 -309Q115 -320 98 -336Q84 -349 80 -358Q103 -346 122 -332V-333Q122 -336 116 -341Q109 -348 108 -352H110Q116 -352 123 -347Q128 -343 130 -343Q133 -343 136 -344V-346Q136 -347 132 -350Q128 -353 128 -356V-357H130Q135 -357 145 -351Q151 -357 156 -359Q161 -361 172 -361Q195 -361 208 -353Q218 -344 228 -336Q236 -332 243 -328Q258 -316 272 -292Q273 -291 285 -260Q333 -272 357 -282Q356 -290 354 -298Q354 -306 358 -310L354 -336Q346 -363 345 -384L343 -385H342L340 -386Q340 -397 329 -408Q320 -417 320 -425Q320 -430 321 -432Q325 -449 341 -461Q354 -471 367 -475H366Q361 -478 353 -491Q346 -502 341 -504Q339 -505 334 -505Q322 -505 304 -495Q287 -488 284 -481V-480Q270 -473 256 -466Q247 -464 240 -454Q233 -444 227 -442Q227 -438 225 -432Q217 -430 203 -430Q170 -431 149 -447Q128 -462 107 -476Q104 -490 90 -501Q93 -513 93 -525Q93 -541 89 -550Q88 -552 81 -554Q74 -556 73 -559L77 -558H83Q102 -570 157 -614L195 -640Q196 -654 216 -668Q239 -684 243 -695Q242 -701 236 -713Q256 -730 293 -730Q324 -730 353 -718Q371 -692 385 -662Q386 -660 386 -655Q386 -646 376 -628Q367 -612 366 -603Q431 -619 495 -640L472 -682Q473 -687 479 -691Q485 -696 490 -700Q499 -709 508 -718Q504 -722 501 -727Q515 -733 540 -754Q557 -769 566 -774Q583 -784 607 -784Q634 -784 644 -770Q649 -763 661 -739Q675 -711 684 -701Q677 -691 665 -679Q649 -663 644 -655Q668 -661 692 -668Z"/>
</svg>