<svg xmlns="http://www.w3.org/2000/svg" viewBox="0 -800 1024 1024">
	<path fill="#000000" d="M245 -28Q217 -7 185 10Q153 27 141 65Q119 67 106 67Q63 67 49 47Q51 43 51 36Q51 26 37 10Q21 -9 21 -22V-27Q22 -37 32 -48Q42 -59 44 -64Q52 -85 59 -103Q65 -122 85 -123Q89 -123 99 -121Q113 -134 126 -148Q138 -162 156 -171Q154 -165 147 -156Q137 -144 137 -134V-132Q140 -130 146 -130Q165 -134 187 -148Q201 -154 216 -158Q231 -163 241 -171Q247 -178 247 -184Q247 -192 233 -203Q223 -211 220 -215Q213 -229 206 -244Q197 -255 186 -260Q174 -265 165 -270Q177 -272 189 -278Q160 -283 128 -284Q133 -290 143 -290Q159 -288 175 -287H179Q197 -287 221 -305Q248 -325 261 -327V-329Q263 -339 264 -349Q264 -353 260 -356Q245 -353 235 -331H224Q200 -331 170 -337Q164 -350 139 -359Q113 -369 106 -379V-386Q106 -404 112 -416Q106 -429 76 -438Q50 -446 42 -457Q65 -454 87 -451Q85 -459 67 -465Q51 -470 51 -477Q66 -477 90 -471Q89 -480 82 -483Q74 -485 67 -487Q70 -491 93 -493Q107 -521 143 -546L183 -543Q186 -553 194 -559Q203 -564 211 -569Q227 -580 242 -591Q252 -602 258 -607Q271 -611 283 -615Q283 -618 282 -621L283 -622H284L286 -620V-617Q288 -623 294 -623Q298 -622 301 -622H303V-628L304 -632Q320 -627 332 -619Q344 -606 352 -601Q354 -601 361 -608Q368 -615 373 -615Q374 -615 378 -613Q377 -605 370 -598Q363 -591 362 -588Q366 -583 378 -583Q377 -580 377 -575Q377 -565 388 -546Q395 -534 397 -525Q394 -519 394 -513Q395 -501 396 -490Q392 -486 392 -478V-473Q392 -467 390 -463Q390 -459 395 -455Q399 -452 400 -448Q400 -445 397 -444Q395 -443 393 -442Q395 -435 397 -433Q363 -424 343 -400Q351 -380 361 -361Q367 -362 376 -371Q385 -380 394 -381V-379Q394 -376 388 -369Q382 -362 381 -356Q392 -344 403 -333V-328Q403 -323 408 -318Q404 -309 403 -291Q402 -276 400 -268H398Q396 -267 393 -267H391Q382 -253 368 -246Q353 -240 340 -232Q338 -226 338 -218Q338 -212 340 -204Q370 -210 399 -223Q432 -234 437 -234Q445 -234 451 -231Q440 -224 427 -220Q413 -217 408 -204Q409 -200 412 -200Q419 -201 425 -203L429 -202V-201Q429 -198 421 -191Q408 -180 408 -172Q408 -167 411 -163H409Q406 -162 402 -161L399 -162Q406 -150 418 -149Q420 -135 426 -121Q417 -119 411 -115Q413 -108 420 -105Q394 -90 365 -82Q340 -68 312 -58ZM908 -683V-675H906Q902 -675 900 -669Q898 -663 894 -663H893V-667Q893 -687 907 -690Q908 -689 908 -683ZM936 -282V-272Q936 -257 929 -254Q923 -255 923 -267Q923 -284 932 -284Q934 -283 936 -282ZM584 -391Q576 -378 560 -371Q540 -364 538 -340Q539 -336 539 -332Q555 -331 561 -320Q568 -309 577 -301Q598 -305 619 -332Q623 -333 630 -333Q645 -332 660 -331Q665 -329 668 -317Q671 -308 674 -305V-307Q674 -321 684 -329Q688 -332 705 -340Q701 -340 699 -346Q698 -351 696 -352H695Q690 -350 685 -348H682Q687 -357 689 -371Q683 -371 678 -363Q673 -355 667 -355Q673 -372 691 -402Q712 -437 717 -457Q694 -446 661 -433Q652 -430 638 -420Q620 -408 610 -406ZM716 86Q714 87 709 87Q703 87 688 82Q655 74 638 57Q618 37 615 2Q613 -16 613 -27V-34Q613 -53 625 -89Q636 -122 636 -136V-140Q633 -151 630 -163V-164Q631 -171 644 -187Q657 -203 664 -205Q666 -206 669 -206Q679 -204 689 -202Q699 -204 708 -206H711Q705 -200 702 -190Q702 -185 707 -179Q712 -174 713 -170V-162Q713 -141 698 -109Q684 -80 684 -58Q684 -53 686 -41Q710 -29 781 -29Q821 -29 852 -42Q890 -58 895 -88Q897 -126 899 -164Q901 -188 907 -193Q911 -192 911 -185Q910 -175 909 -166Q909 -160 911 -158L910 -155L907 -156V-142Q907 -113 913 -67Q924 -93 925 -162Q926 -217 931 -238Q934 -219 934 -178V-137Q934 -95 939 -68Q942 -75 943 -93Q944 -114 948 -121Q950 -89 951 -57Q953 -25 969 -7Q970 9 970 24Q970 56 960 70Q942 94 884 102Q875 99 854 99Q827 100 799 101Q765 101 753 88ZM719 -708Q721 -708 726 -698Q730 -690 733 -687Q727 -677 727 -663V-654Q727 -644 725 -639Q721 -630 713 -622Q702 -596 699 -562Q803 -584 849 -624H861Q877 -640 887 -658Q891 -655 891 -651Q887 -637 881 -624Q889 -613 899 -606Q906 -607 915 -616Q926 -627 936 -628Q932 -615 926 -604Q920 -593 919 -576Q920 -571 920 -566H922Q925 -566 929 -569Q936 -575 942 -575Q945 -575 947 -574Q937 -561 932 -545Q932 -540 936 -537Q927 -518 920 -477Q903 -463 893 -448Q867 -445 850 -424Q844 -417 825 -382Q832 -387 841 -387Q857 -387 863 -376Q869 -378 876 -388Q884 -400 894 -400H895V-399Q895 -394 889 -384Q880 -369 880 -363Q880 -357 886 -351H888Q899 -355 910 -359Q909 -356 903 -350Q892 -339 892 -335Q892 -327 908 -326Q895 -318 895 -295Q895 -287 896 -283Q870 -273 855 -240Q850 -229 834 -178L830 -151Q832 -147 832 -143Q830 -129 828 -115Q828 -109 831 -103Q821 -88 815 -68Q809 -43 785 -40Q781 -40 777 -41Q768 -43 754 -55Q739 -68 738 -76Q729 -81 716 -82Q704 -84 699 -94H702Q708 -94 711 -97Q734 -120 740 -161Q747 -202 754 -241Q752 -242 748 -242Q743 -242 732 -237Q721 -232 714 -232H710Q699 -234 696 -243Q693 -252 689 -263Q687 -247 676 -238Q665 -229 654 -219Q650 -210 645 -202Q630 -187 615 -173Q605 -159 575 -109Q578 -104 580 -100Q586 -99 592 -99Q607 -99 615 -103Q612 -95 603 -91Q595 -88 587 -83Q584 -75 584 -69Q584 -60 590 -44L587 -42Q582 -45 577 -49Q570 -47 567 -42Q563 -37 560 -32Q545 -43 532 -43Q489 4 474 85Q466 89 456 89Q427 87 417 56Q415 48 415 44V32Q412 23 409 13Q413 -3 421 -23Q425 -44 433 -56Q434 -54 434 -50Q433 -40 432 -31V-26Q445 -31 457 -44Q468 -57 480 -67Q469 -75 461 -89Q459 -95 459 -96Q461 -107 465 -113Q465 -117 464 -121V-122Q473 -135 494 -143H499Q517 -141 535 -139Q550 -156 569 -206H568Q562 -205 560 -196V-193Q552 -189 539 -173Q519 -148 504 -148Q498 -151 491 -155H490Q488 -155 486 -151Q480 -158 470 -163Q463 -154 460 -144L461 -140Q449 -135 442 -125Q436 -115 429 -106Q425 -107 425 -114Q427 -125 429 -137Q429 -143 423 -146Q420 -160 443 -197Q471 -243 473 -247Q485 -253 494 -281Q500 -301 507 -308Q484 -313 465 -324Q445 -334 443 -358Q419 -382 405 -388Q416 -410 416 -423Q416 -432 412 -439Q411 -455 432 -473Q443 -482 454 -488L456 -489Q468 -498 477 -502H479Q485 -502 497 -494Q507 -487 512 -487Q522 -492 532 -497Q545 -500 571 -511Q585 -516 589 -521Q594 -526 594 -536Q594 -545 593 -550Q593 -577 590 -606Q588 -636 569 -651Q561 -649 556 -634Q551 -620 544 -618Q545 -638 552 -671Q561 -714 562 -735Q572 -738 586 -758Q603 -782 620 -782Q628 -782 633 -780Q646 -787 658 -787Q677 -787 690 -770Q701 -757 705 -736Z"/>
</svg>