<svg xmlns="http://www.w3.org/2000/svg" viewBox="0 -800 1024 1024">
	<path fill="#000000" d="M64 -131Q62 -129 60 -128Q52 -130 52 -139Q52 -144 54 -145Q57 -143 64 -131ZM956 -651H962Q958 -638 950 -628Q947 -631 947 -637Q947 -646 951 -650Q952 -651 956 -651ZM501 -71H503Q498 -53 494 -51Q487 -52 487 -59Q488 -69 501 -71ZM569 10Q565 8 562 8Q557 9 551 9Q544 9 541 6Q542 -3 549 -3Q562 0 569 10ZM396 -217H393Q378 -216 364 -202Q351 -189 340 -177Q298 -140 267 -104Q271 -103 280 -103Q313 -103 350 -138Q372 -160 380 -172Q395 -194 396 -217ZM886 -267L861 -248Q856 -250 848 -250Q829 -246 809 -243Q801 -189 801 -129Q801 -32 821 24Q819 34 819 38Q819 45 821 49Q814 55 810 73Q807 88 802 93Q790 101 774 105Q764 114 754 121Q718 107 692 67Q692 60 694 58Q679 38 634 26Q580 12 572 6Q618 13 664 19Q633 8 596 -2Q558 -11 524 -29Q550 -26 605 -10Q648 3 669 6Q665 -3 648 -10Q636 -15 632 -19Q636 -20 644 -20Q659 -19 674 -18Q687 -18 694 -23Q701 -54 708 -129Q714 -188 719 -218Q662 -212 617 -185Q627 -177 633 -164Q639 -150 655 -148Q659 -119 673 -99Q665 -85 660 -69Q644 -64 626 -60Q612 -63 597 -67Q589 -67 584 -59Q583 -61 583 -64V-69Q583 -75 578 -76H577Q572 -76 557 -66Q555 -70 555 -71Q555 -74 560 -79Q565 -83 565 -86Q559 -95 548 -95Q536 -95 510 -74Q514 -86 522 -92Q531 -97 538 -105Q535 -109 533 -109Q527 -107 521 -105Q521 -111 529 -116Q535 -120 537 -123Q536 -131 525 -135Q517 -138 515 -142Q517 -145 519 -145Q525 -144 531 -143H533Q536 -149 540 -154Q543 -160 550 -161Q540 -165 526 -177Q511 -190 501 -194Q496 -205 491 -220V-222Q494 -238 497 -254Q496 -266 494 -278V-281Q496 -295 505 -303Q513 -310 521 -318H524Q536 -319 547 -320Q553 -320 557 -317Q589 -329 710 -358Q708 -369 708 -393Q708 -418 704 -432H711Q714 -432 715 -437Q720 -435 732 -435Q752 -436 771 -437H780Q796 -461 811 -485Q764 -479 745 -470L744 -467V-464Q665 -449 606 -407Q610 -396 610 -380Q610 -350 595 -335Q580 -329 568 -329Q552 -329 532 -339Q524 -343 501 -358Q491 -355 480 -353V-355Q482 -365 489 -371Q486 -382 471 -382Q468 -381 464 -381Q469 -389 474 -398Q468 -407 462 -415Q456 -424 456 -439V-441Q439 -437 429 -426Q419 -415 408 -407Q429 -351 444 -330V-321Q454 -297 467 -268Q480 -240 482 -206Q482 -176 464 -138Q448 -104 402 -36Q395 -27 381 -13Q367 0 362 7Q353 20 345 36Q337 52 324 56H322Q290 50 278 25Q273 12 269 -11Q265 -35 262 -44Q265 -51 267 -59V-60Q267 -63 264 -66Q260 -69 260 -73V-74L262 -77Q267 -74 272 -72L275 -74Q274 -85 260 -95Q237 -82 222 -58Q207 -35 191 -13Q178 1 165 15Q151 30 147 55Q137 60 131 60Q105 60 84 19V16Q85 11 85 6Q72 -5 66 -24Q61 -44 54 -63Q61 -63 65 -53Q68 -45 72 -44Q68 -68 47 -106Q29 -139 24 -161Q37 -147 57 -113Q78 -77 93 -62Q93 -73 80 -91Q67 -108 66 -119Q73 -115 84 -97Q99 -73 112 -68Q146 -87 176 -114Q206 -142 235 -170Q276 -210 318 -255Q331 -266 342 -277Q352 -288 359 -305Q348 -330 337 -336Q320 -325 292 -295Q267 -268 251 -257Q250 -252 248 -248Q183 -192 152 -143H145Q130 -143 120 -151Q115 -155 103 -170Q97 -167 90 -164H88Q94 -173 94 -179Q94 -186 88 -193Q82 -200 76 -209Q75 -214 73 -220Q67 -225 59 -228Q54 -232 49 -241Q44 -250 39 -252V-254Q39 -258 38 -262V-264Q33 -270 27 -273Q26 -280 26 -295V-305Q33 -321 39 -353Q48 -396 56 -411Q58 -402 58 -386Q58 -369 66 -362Q125 -403 146 -419Q205 -466 220 -484Q202 -526 192 -537Q194 -538 197 -538Q203 -537 209 -536Q221 -546 230 -560Q241 -566 254 -566Q271 -564 287 -563Q291 -563 294 -564H295Q298 -564 300 -561Q302 -557 304 -557Q321 -578 340 -596Q359 -614 361 -651L364 -652Q370 -652 372 -648Q377 -651 389 -668Q401 -670 409 -670Q448 -670 471 -650Q479 -630 489 -612Q493 -612 500 -618Q505 -622 508 -622L512 -621L513 -619Q508 -611 503 -595Q503 -592 504 -590L506 -588Q509 -589 511 -590L512 -588Q510 -582 510 -571Q510 -562 514 -548Q519 -530 519 -518Q531 -513 538 -513Q552 -516 565 -519Q609 -527 646 -540Q648 -548 648 -563Q648 -567 643 -615Q638 -682 611 -695Q606 -705 601 -716Q580 -714 577 -710V-712Q577 -717 589 -723Q599 -728 602 -732L603 -735Q603 -738 599 -741Q595 -744 595 -748V-749Q632 -782 642 -792H645Q657 -792 673 -803Q686 -812 695 -812Q703 -809 710 -807Q722 -808 734 -809Q744 -809 750 -806Q764 -781 784 -760Q785 -745 802 -726Q804 -721 804 -712Q803 -695 793 -685Q782 -675 775 -663Q767 -640 762 -614Q753 -585 753 -573V-566Q763 -571 787 -575Q802 -577 812 -581Q826 -584 837 -590Q847 -597 857 -605Q867 -610 878 -610Q897 -610 914 -600Q920 -601 930 -611Q939 -620 946 -620H947Q946 -615 937 -608Q927 -600 927 -594L928 -590H929Q937 -590 943 -597Q949 -603 954 -603Q954 -600 949 -591Q943 -580 943 -573Q943 -568 948 -560Q953 -561 957 -566Q963 -572 966 -573Q963 -559 959 -546Q963 -534 971 -521V-518Q971 -510 970 -502Q970 -497 971 -494Q975 -477 979 -461Q979 -453 972 -443Q911 -431 889 -411Q886 -412 881 -412Q868 -411 859 -402Q850 -392 843 -383Q853 -385 863 -387Q859 -382 855 -378Q859 -372 865 -372Q878 -374 891 -377H894Q892 -374 880 -366Q871 -360 869 -352Q871 -348 873 -344Q881 -346 888 -349H891L892 -346Q892 -343 887 -339Q882 -335 882 -332V-329Q886 -315 894 -302H893Q881 -302 881 -284Q881 -274 886 -267Z"/>
</svg>