<svg xmlns="http://www.w3.org/2000/svg" viewBox="0 -800 1024 1024">
	<path fill="#000000" d="M908 -683V-675H906Q902 -675 900 -669Q898 -663 894 -663H893V-667Q893 -687 907 -690Q908 -689 908 -683ZM936 -282V-272Q936 -257 929 -254Q923 -255 923 -267Q923 -284 932 -284Q934 -283 936 -282ZM584 -391Q576 -378 560 -371Q540 -364 538 -340Q539 -336 539 -332Q555 -331 561 -320Q568 -309 577 -301Q598 -305 619 -332Q623 -333 630 -333Q645 -332 660 -331Q665 -329 668 -317Q671 -308 674 -305V-307Q674 -321 684 -329Q688 -332 705 -340Q701 -340 699 -346Q698 -351 696 -352H695Q690 -350 685 -348H682Q687 -357 689 -371Q683 -371 678 -363Q673 -355 667 -355Q673 -372 691 -402Q712 -437 717 -457Q694 -446 661 -433Q652 -430 638 -420Q620 -408 610 -406ZM716 86Q714 87 709 87Q703 87 688 82Q655 74 638 57Q618 37 615 2Q613 -16 613 -27V-34Q613 -53 625 -89Q636 -122 636 -136V-140Q633 -151 630 -163V-164Q631 -171 644 -187Q657 -203 664 -205Q666 -206 669 -206Q679 -204 689 -202Q699 -204 708 -206H711Q705 -200 702 -190Q702 -185 707 -179Q712 -174 713 -170V-162Q713 -141 698 -109Q684 -80 684 -58Q684 -53 686 -41Q710 -29 781 -29Q821 -29 852 -42Q890 -58 895 -88Q897 -126 899 -164Q901 -188 907 -193Q911 -192 911 -185Q910 -175 909 -166Q909 -160 911 -158L910 -155L907 -156V-142Q907 -113 913 -67Q924 -93 925 -162Q926 -217 931 -238Q934 -219 934 -178V-137Q934 -95 939 -68Q942 -75 943 -93Q944 -114 948 -121Q950 -89 951 -57Q953 -25 969 -7Q970 9 970 24Q970 56 960 70Q942 94 884 102Q875 99 854 99Q827 100 799 101Q765 101 753 88ZM254 -174Q254 -198 245 -198Q241 -200 236 -197V-183Q236 -163 239 -156Q245 -154 251 -153Q254 -162 254 -174ZM312 -244Q300 -237 300 -216Q293 -194 289 -176H290Q305 -177 308 -196Q312 -222 312 -244ZM251 -299Q247 -330 241 -336Q229 -334 229 -316Q229 -304 231 -290Q244 -291 251 -299ZM338 -451Q310 -437 282 -397Q295 -381 311 -377Q301 -364 301 -338Q301 -332 303 -322Q316 -335 329 -336Q337 -446 338 -451ZM420 -461Q433 -477 454 -488L456 -489Q468 -498 477 -502H479Q485 -502 497 -494Q507 -487 512 -487Q522 -492 532 -497Q545 -500 571 -511Q585 -516 589 -521Q594 -526 594 -536Q594 -545 593 -550Q593 -577 590 -606Q588 -636 569 -651Q561 -649 556 -634Q551 -620 544 -618Q545 -638 552 -671Q561 -714 562 -735Q572 -738 586 -758Q603 -782 620 -782Q628 -782 633 -780Q646 -787 658 -787Q677 -787 690 -770Q701 -757 705 -736L719 -708Q721 -708 726 -698Q730 -690 733 -687Q727 -677 727 -663V-654Q727 -644 725 -639Q721 -630 713 -622Q702 -596 699 -562Q803 -584 849 -624H861Q877 -640 887 -658Q891 -655 891 -651Q887 -637 881 -624Q889 -613 899 -606Q906 -607 915 -616Q926 -627 936 -628Q932 -615 926 -604Q920 -593 919 -576Q920 -571 920 -566H922Q925 -566 929 -569Q936 -575 942 -575Q945 -575 947 -574Q937 -561 932 -545Q932 -540 936 -537Q927 -518 920 -477Q903 -463 893 -448Q867 -445 850 -424Q844 -417 825 -382Q832 -387 841 -387Q857 -387 863 -376Q869 -378 876 -388Q884 -400 894 -400H895V-399Q895 -394 889 -384Q880 -369 880 -363Q880 -357 886 -351H888Q899 -355 910 -359Q909 -356 903 -350Q892 -339 892 -335Q892 -327 908 -326Q895 -318 895 -295Q895 -287 896 -283Q870 -273 855 -240Q850 -229 834 -178L830 -151Q832 -147 832 -143Q830 -129 828 -115Q828 -109 831 -103Q821 -88 815 -68Q809 -43 785 -40Q781 -40 777 -41Q768 -43 754 -55Q739 -68 738 -76Q729 -81 716 -82Q704 -84 699 -94H702Q708 -94 711 -97Q734 -120 740 -161Q747 -202 754 -241Q752 -242 748 -242Q743 -242 732 -237Q721 -232 714 -232H710Q699 -234 696 -243Q693 -252 689 -263Q687 -247 676 -238Q665 -229 654 -219Q650 -210 645 -202Q630 -187 615 -173Q605 -159 575 -109Q578 -104 580 -100Q586 -99 592 -99Q607 -99 615 -103Q612 -95 603 -91Q595 -88 587 -83Q584 -75 584 -69Q584 -60 590 -44L587 -42Q582 -45 577 -49Q570 -47 567 -42Q563 -37 560 -32Q545 -43 532 -43Q489 4 474 85Q466 89 456 89Q427 87 417 56Q415 48 415 44V32Q412 23 409 13Q413 -3 421 -23Q425 -44 433 -56Q434 -54 434 -50Q433 -40 432 -31V-26Q445 -31 457 -44Q468 -57 480 -67Q469 -75 461 -89Q459 -95 459 -96Q461 -107 465 -113Q465 -117 464 -121V-122Q473 -135 494 -143H499Q517 -141 535 -139Q550 -156 569 -206H568Q562 -205 560 -196V-193Q552 -189 539 -173Q519 -148 504 -148Q498 -151 491 -155H490Q488 -155 486 -151Q480 -158 470 -163Q463 -154 460 -144L461 -140Q449 -135 442 -125Q436 -115 429 -106Q425 -107 425 -114Q427 -125 429 -137Q429 -143 423 -146Q420 -160 443 -197Q471 -243 473 -247Q485 -253 494 -281Q500 -301 507 -308Q484 -313 465 -324Q445 -334 443 -358Q420 -381 407 -387Q404 -351 400 -282L394 -261Q402 -255 402 -235Q402 -224 401 -213V-161Q401 -130 407 -116Q402 -92 388 -72Q372 -50 356 -50Q345 -50 335 -55Q333 -66 320 -78Q306 -90 305 -101Q282 -98 255 -84Q240 -52 238 -48Q226 -28 209 -28Q199 -28 190 -33Q187 -44 177 -50Q167 -56 159 -63Q153 -69 148 -83Q141 -100 134 -106Q144 -119 144 -133Q144 -148 130 -178Q116 -208 116 -223Q117 -226 117 -230L108 -255Q103 -255 97 -263Q91 -271 89 -278Q55 -306 49 -313Q30 -336 30 -369V-373Q41 -407 57 -444Q65 -460 65 -468Q65 -479 49 -501Q61 -499 67 -493Q74 -486 80 -479Q82 -484 91 -489Q83 -504 68 -524Q48 -550 42 -563Q51 -562 58 -554Q65 -546 72 -537Q79 -529 85 -518Q92 -508 99 -507Q103 -507 109 -513Q107 -525 93 -540Q81 -553 80 -560H81Q93 -560 107 -547Q126 -529 131 -526Q137 -533 145 -533Q146 -533 170 -525Q188 -500 201 -470Q218 -478 233 -495Q242 -505 329 -589Q328 -593 328 -601Q329 -633 350 -643Q370 -654 396 -659Q403 -677 416 -690Q417 -688 417 -684Q415 -672 413 -661Q413 -657 414 -656Q416 -656 420 -663Q425 -673 429 -673H431Q432 -671 432 -667Q431 -658 430 -649Q430 -642 435 -640H436Q440 -641 440 -644Q440 -648 445 -649Q444 -646 444 -642Q444 -632 456 -616Q466 -604 467 -598Q468 -595 468 -588Q468 -572 449 -541V-534L450 -531Q430 -501 420 -461ZM414 -434Q411 -414 408 -395Q416 -411 416 -423Q416 -431 414 -434Z"/>
</svg>