<svg xmlns="http://www.w3.org/2000/svg" viewBox="0 -800 1024 1024">
	<path fill="#000000" d="M891 -115H890Q888 -117 886 -119H884V-124Q884 -133 887 -142Q895 -142 895 -133Q893 -124 891 -115ZM268 57V55Q268 46 279 46Q291 46 301 53Q294 64 277 64Q268 64 268 57ZM558 -278V-275Q558 -270 565 -259Q571 -249 572 -241Q576 -241 592 -247Q594 -267 596 -288Q596 -293 595 -299Q561 -293 558 -278ZM700 -363V-365Q664 -362 664 -290Q665 -275 665 -260Q675 -271 685 -313Q687 -321 692 -334Q700 -354 700 -363ZM591 -488L579 -485Q572 -470 570 -429Q589 -436 589 -462Q589 -469 588 -473Q615 -490 633 -490Q642 -490 646 -488Q649 -500 652 -512Q642 -517 631 -541Q622 -560 614 -567Q614 -562 611 -561Q611 -557 616 -552Q620 -547 620 -542V-539Q607 -526 607 -519Q607 -514 610 -510Q608 -511 605 -513H604V-510Q605 -502 594 -501H592L593 -497Q592 -492 591 -488ZM378 -154V-153Q376 -148 373 -147Q373 -144 377 -143Q381 -142 381 -139Q294 -93 213 -35Q191 -22 173 -9Q170 -6 154 20Q143 39 126 41H119Q99 41 75 29Q51 17 49 5V1Q51 -13 53 -27V-31Q49 -40 44 -50V-53Q44 -66 49 -76Q67 -109 86 -143Q88 -149 89 -156Q90 -163 97 -164H99Q97 -156 97 -150Q97 -135 104 -128Q169 -155 228 -188Q230 -197 231 -206Q216 -213 197 -218Q176 -222 174 -242Q175 -245 175 -248Q174 -255 166 -257Q170 -261 172 -266Q171 -274 164 -276Q157 -278 152 -283Q175 -284 188 -311Q191 -310 195 -310Q206 -313 216 -316Q224 -322 224 -335Q224 -345 218 -349Q194 -341 190 -328Q175 -328 172 -325Q144 -331 125 -360Q122 -366 113 -370Q104 -374 101 -378Q93 -387 89 -408Q85 -428 81 -435Q79 -439 72 -443Q65 -447 62 -453H66Q72 -452 77 -451L81 -452Q80 -459 65 -469Q54 -476 50 -481Q52 -482 57 -482Q70 -478 83 -475L86 -479Q86 -485 78 -488Q72 -491 71 -495H73Q82 -496 90 -497H92Q105 -527 126 -544H130Q157 -545 176 -558Q195 -572 213 -588Q239 -609 256 -609H261Q274 -620 277 -620H280Q295 -616 310 -612Q318 -613 331 -621Q340 -627 348 -629Q349 -628 352 -623Q345 -618 336 -613Q327 -608 326 -597Q326 -593 327 -591Q332 -591 334 -593Q336 -596 338 -596Q340 -595 342 -594Q340 -590 340 -579Q345 -572 352 -570Q354 -562 363 -553Q373 -542 375 -533V-532Q377 -529 381 -527Q380 -525 376 -518Q382 -516 382 -509Q382 -505 379 -504Q382 -504 384 -498Q386 -493 390 -492Q386 -491 386 -486Q388 -479 390 -473H386Q387 -470 388 -468V-467Q383 -463 380 -454L381 -450H378Q373 -450 363 -441Q356 -434 351 -432Q334 -429 323 -419Q324 -416 336 -409Q333 -401 333 -390Q333 -378 337 -360Q348 -367 357 -367Q360 -367 366 -365Q363 -357 360 -350Q364 -345 364 -338Q360 -320 354 -302Q359 -292 359 -283Q359 -277 358 -274Q328 -266 326 -235Q327 -231 327 -227Q366 -243 404 -259Q400 -244 385 -240Q371 -236 369 -219V-218Q373 -218 388 -230V-229Q388 -224 379 -216Q369 -207 369 -200Q369 -196 370 -194H371Q377 -197 382 -201L384 -200V-198Q384 -194 377 -188Q371 -183 370 -179Q371 -174 375 -170Q374 -167 372 -167Q369 -167 369 -164V-163Q369 -159 372 -157Q375 -156 378 -154ZM800 114H798Q766 76 726 -7Q681 -102 659 -134Q643 -134 635 -116Q635 -115 625 -78Q618 -57 610 -31Q601 -5 600 23Q602 35 604 47V49Q602 63 587 80Q574 94 573 102Q571 103 566 103Q558 103 547 92Q536 81 530 81Q526 81 519 87Q515 90 511 91V83Q493 55 430 55Q387 57 343 58Q326 58 318 57Q322 46 341 46Q351 47 361 47H364Q415 44 474 31Q467 28 456 28Q447 29 437 29Q430 30 416 30Q406 30 404 28Q407 22 413 22Q418 23 423 23H425Q477 18 490 9Q502 0 509 -15Q516 -29 524 -44Q534 -59 544 -72Q554 -85 558 -100Q518 -95 485 -76Q452 -57 419 -38Q415 -50 400 -66Q378 -89 378 -112V-115Q381 -120 388 -126Q398 -135 401 -143Q403 -151 403 -157Q403 -164 402 -171Q402 -177 404 -185Q408 -197 419 -202Q430 -207 440 -214Q448 -211 455 -203Q458 -206 469 -208Q478 -210 481 -212Q477 -216 467 -223Q452 -233 447 -241Q446 -245 444 -250Q435 -257 426 -265Q421 -272 418 -278Q415 -285 405 -286Q402 -294 391 -307Q375 -326 375 -340V-343Q376 -351 381 -363Q388 -378 388 -386L389 -388Q395 -384 400 -380Q408 -377 426 -377Q448 -377 464 -380Q470 -385 475 -391Q496 -391 509 -401Q508 -409 499 -416Q492 -422 490 -426Q440 -429 416 -482V-501L413 -503H410L407 -504Q405 -525 397 -527V-531Q398 -542 398 -554Q398 -572 390 -576Q399 -595 417 -601Q436 -607 456 -614Q455 -631 449 -650Q441 -666 437 -679V-680Q438 -693 457 -703Q475 -712 497 -712Q503 -711 508 -711Q523 -702 544 -672Q558 -652 567 -644V-640Q568 -629 575 -623Q583 -617 588 -611Q591 -608 598 -594Q606 -579 614 -572V-576Q614 -585 608 -607Q601 -633 601 -643Q601 -658 610 -666Q633 -678 662 -686Q668 -683 674 -681Q671 -702 667 -723Q662 -745 647 -747H646Q640 -747 634 -741Q626 -734 619 -734Q628 -756 664 -775Q679 -783 690 -794Q701 -805 712 -813Q717 -817 725 -817Q740 -816 754 -804Q768 -792 777 -783Q802 -762 825 -755Q826 -753 826 -749Q824 -740 822 -731Q838 -723 843 -723Q846 -707 859 -699Q869 -703 888 -708Q895 -708 899 -702Q881 -700 876 -683L878 -681Q883 -683 887 -685Q889 -685 891 -683V-682Q891 -680 886 -675Q879 -668 878 -663Q881 -655 885 -650Q883 -641 876 -631Q865 -615 865 -603Q866 -599 866 -596Q865 -593 861 -590Q855 -585 855 -582L856 -579Q816 -577 773 -554Q755 -545 747 -526Q740 -507 733 -484Q755 -486 767 -497Q777 -493 782 -493Q796 -493 819 -511Q837 -525 846 -528Q844 -523 834 -513Q824 -504 824 -495Q824 -490 825 -487L828 -486Q830 -486 833 -491Q837 -497 842 -497H844Q842 -484 840 -472V-466L842 -464Q843 -464 843 -466Q844 -469 847 -469Q846 -466 846 -459Q846 -445 860 -418Q876 -387 876 -373V-372Q874 -355 863 -348Q852 -340 841 -328H840Q827 -328 816 -315Q806 -304 797 -302L786 -281Q797 -286 826 -290Q865 -296 879 -305Q883 -308 887 -312Q893 -319 897 -320Q899 -319 899 -313V-303Q903 -298 912 -298Q930 -300 947 -303Q947 -301 943 -298Q940 -296 939 -293Q944 -282 954 -280H958Q952 -272 946 -265Q946 -262 950 -262Q953 -262 953 -259V-257Q944 -256 935 -244Q926 -232 926 -221Q926 -209 936 -203Q932 -195 926 -188Q920 -181 918 -170Q813 -164 717 -147Q768 -78 832 -19Q841 -24 841 -38Q841 -52 843 -64Q851 -61 851 -42V-34Q851 -15 858 -12Q862 -23 862 -39Q862 -50 861 -62Q861 -81 866 -91Q872 -78 874 -45Q876 -21 878 -10Q884 -21 884 -47Q884 -61 883 -76Q883 -100 888 -110Q893 -107 893 -100V-89Q894 -60 895 -29Q896 1 906 23Q908 22 910 15Q913 6 918 6Q927 45 932 53Q928 69 928 75Q928 79 930 85Q910 109 906 124Q879 126 863 133Q832 118 800 114Z"/>
</svg>