<svg xmlns="http://www.w3.org/2000/svg" viewBox="0 -800 1024 1024">
	<path fill="#000000" d="M706 40Q705 48 696 48Q687 48 685 38Q687 37 691 37Q697 37 706 40ZM772 -503V-491Q769 -474 765 -457Q779 -463 792 -470Q792 -476 791 -483Q793 -506 794 -529Q794 -538 793 -541Q792 -534 782 -521Q774 -510 772 -503ZM519 -118Q540 -120 543 -141Q547 -162 549 -179Q518 -174 517 -137Q517 -125 519 -118ZM778 -320Q778 -323 777 -327Q779 -340 780 -354Q780 -359 777 -364Q764 -353 749 -343Q734 -333 733 -312Q733 -306 734 -302Q740 -302 755 -311Q768 -319 778 -320ZM889 -124V-105Q889 -80 892 -67Q906 -18 910 39Q910 86 879 108Q876 107 870 107Q859 108 847 109Q838 109 836 103Q833 103 833 106Q833 109 830 109Q810 102 792 87Q788 79 783 71Q771 58 755 53Q739 49 721 43Q722 38 730 38Q739 39 747 40Q741 39 638 13Q642 9 650 9Q654 9 676 14Q713 22 722 22Q728 22 740 20Q720 12 678 6Q638 0 618 -7Q623 -8 633 -8Q648 -8 684 -1Q714 5 731 5Q736 5 741 4Q762 0 765 -24Q768 -50 769 -76Q776 -131 779 -193Q779 -214 777 -224Q759 -220 744 -210Q725 -197 724 -181V-170Q729 -105 733 -41Q726 -34 721 -22Q712 -18 702 -18Q686 -18 669 -31Q664 -35 644 -55Q644 -70 639 -92Q634 -114 634 -123Q634 -134 639 -147Q620 -137 607 -90Q592 -36 581 -22Q575 -20 564 -20Q534 -20 522 -55Q510 -52 509 -52Q506 -44 506 -37Q474 -29 459 -29Q445 -42 430 -55Q418 -112 392 -134Q385 -153 383 -170Q383 -179 388 -185Q382 -184 380 -180Q378 -176 376 -172Q377 -168 380 -167Q382 -165 383 -164Q378 -153 375 -138Q375 -134 376 -131H377Q381 -132 385 -133Q387 -133 389 -131Q379 -125 379 -116Q379 -103 392 -88Q327 -61 269 -26Q243 -13 221 5Q209 19 199 35Q189 52 170 62Q154 60 131 46Q117 48 109 48Q95 48 84 44Q80 40 76 25Q69 11 62 -1Q54 -13 53 -30Q53 -38 56 -49Q86 -74 115 -100Q124 -109 131 -120Q139 -131 150 -137V-133Q150 -127 143 -119Q134 -108 134 -99V-94Q166 -107 200 -118Q233 -130 257 -152V-155Q257 -161 256 -167V-170Q238 -161 226 -161Q214 -161 205 -169Q202 -171 198 -180Q193 -189 188 -193Q186 -195 179 -196Q171 -198 168 -202Q167 -205 167 -211Q169 -223 170 -235Q170 -244 162 -251Q166 -249 170 -249Q172 -249 174 -251V-252Q174 -257 167 -260Q160 -263 159 -268Q174 -277 202 -289Q238 -304 251 -313Q244 -341 244 -354Q186 -334 165 -316Q155 -306 148 -294Q141 -281 128 -275Q115 -276 102 -277Q89 -278 79 -284Q68 -293 68 -316V-326Q68 -331 66 -343Q64 -350 52 -362Q39 -375 38 -385V-387Q38 -406 48 -439Q63 -476 76 -484Q93 -494 109 -501Q116 -508 123 -514Q129 -521 140 -521L141 -519Q140 -517 136 -514Q132 -511 131 -506L132 -503Q133 -498 145 -498Q165 -501 185 -505Q213 -509 241 -520Q290 -538 340 -554Q357 -563 373 -572Q375 -571 379 -571Q383 -571 391 -576Q398 -580 403 -581H405L406 -579V-575H407Q413 -577 419 -579L423 -578Q417 -566 417 -560V-554L420 -552Q423 -552 426 -553Q429 -553 430 -551Q429 -549 424 -544Q418 -539 417 -533Q418 -529 424 -523Q428 -520 429 -517Q435 -521 443 -523H445L446 -522Q442 -518 438 -505Q438 -500 439 -498Q439 -496 435 -494Q430 -492 429 -488V-480Q429 -470 432 -467L434 -466Q439 -468 444 -471L448 -470V-469Q448 -461 433 -454Q436 -443 436 -432Q409 -423 327 -389Q345 -355 349 -350H352Q357 -350 364 -356Q369 -360 372 -360L376 -359L378 -357Q375 -349 372 -341L373 -337Q374 -332 389 -332Q388 -328 387 -324L388 -320Q397 -314 400 -285Q402 -264 406 -257Q390 -243 367 -232Q344 -222 342 -194Q342 -184 344 -178Q352 -178 364 -185Q376 -192 383 -192Q386 -192 392 -190Q402 -199 410 -209Q418 -220 418 -238Q423 -223 451 -223Q478 -223 484 -212Q491 -214 497 -217Q495 -225 495 -230V-244Q483 -242 476 -242Q459 -242 448 -250Q429 -265 418 -288Q410 -317 409 -347Q407 -356 398 -369Q390 -380 389 -385Q399 -382 409 -379Q440 -397 484 -403Q483 -453 480 -501Q476 -549 442 -566Q444 -569 449 -569Q453 -568 456 -568L459 -569L460 -572Q460 -578 451 -582Q440 -587 438 -590Q472 -611 522 -655Q549 -632 568 -626Q581 -595 596 -572V-569Q599 -547 609 -535Q578 -496 578 -458Q578 -448 579 -443Q629 -453 651 -464V-462Q651 -458 646 -454Q641 -450 641 -446Q641 -443 647 -439H648Q652 -439 655 -443Q659 -447 662 -447L665 -446Q651 -424 651 -411Q651 -404 654 -400V-399Q654 -394 650 -393Q647 -392 644 -389V-387Q644 -379 637 -369Q631 -359 630 -349L632 -348L635 -349L638 -347Q628 -330 623 -314Q615 -302 586 -295Q556 -288 546 -275Q544 -270 544 -258V-245Q553 -253 560 -260Q567 -266 580 -269H585Q595 -268 604 -268H609Q616 -270 624 -281Q631 -291 636 -292Q635 -286 629 -277Q624 -269 623 -262Q626 -259 627 -259Q633 -263 639 -268Q636 -262 636 -255Q636 -236 650 -229Q665 -300 673 -383Q672 -391 671 -400Q672 -403 672 -406Q676 -419 679 -432Q678 -453 676 -475Q673 -523 641 -581Q647 -578 656 -565Q666 -551 676 -547V-548Q676 -551 670 -558Q664 -565 663 -570H666Q677 -569 683 -563Q689 -556 697 -551Q702 -552 706 -554Q716 -585 730 -649Q746 -720 756 -751Q770 -754 779 -761Q789 -769 799 -776H806L809 -774Q811 -777 812 -780H815Q837 -784 858 -788H863Q879 -786 903 -768Q904 -757 915 -745Q923 -736 925 -730L928 -729Q931 -730 934 -731V-716Q939 -717 946 -724Q955 -733 959 -734V-732Q959 -727 952 -717Q944 -705 944 -696H945Q949 -696 950 -701Q951 -706 954 -706L957 -705Q956 -690 955 -675Q955 -659 965 -653Q953 -635 953 -618Q953 -612 954 -608Q903 -607 898 -529V-528Q895 -524 892 -521Q884 -366 884 -344Q884 -310 885 -293Q886 -280 886 -253V-211Q886 -154 889 -124Z"/>
</svg>