<svg xmlns="http://www.w3.org/2000/svg" viewBox="0 -800 1024 1024">
	<path fill="#000000" d="M896 -544V-547Q896 -562 906 -562L910 -561Q908 -545 896 -544ZM511 30V29H515Q533 29 537 41Q530 38 522 39Q512 40 511 30ZM371 -104L370 -108Q371 -112 371 -117Q371 -121 368 -121Q325 -110 310 -85Q340 -96 371 -104ZM380 -396H378Q373 -396 363 -388Q355 -382 350 -381Q353 -371 356 -361Q361 -365 378 -368Q391 -370 396 -373Q393 -376 390 -384Q385 -395 380 -396ZM356 -45V-46Q298 -42 294 -9Q325 -17 356 -29Q354 -31 354 -34Q355 -39 356 -45ZM520 -430Q516 -431 509 -431Q494 -431 470 -421Q482 -404 493 -388Q507 -396 517 -396Q522 -408 522 -419Q522 -427 520 -430ZM398 -177V-178Q401 -186 404 -194L403 -198Q382 -192 355 -182Q328 -172 307 -156Q309 -151 313 -147Q325 -150 347 -161Q376 -176 398 -177ZM672 -400H675Q704 -435 722 -449Q711 -453 695 -453Q672 -451 648 -450Q644 -450 640 -451Q643 -446 643 -442Q643 -437 636 -428Q628 -417 628 -409V-408Q650 -404 672 -400ZM476 -502V-496Q481 -495 486 -495Q508 -498 529 -501Q534 -500 538 -500Q510 -523 500 -537Q482 -561 477 -591Q472 -587 460 -582Q442 -575 440 -568V-566Q440 -561 445 -554Q450 -548 451 -544Q454 -544 455 -548Q456 -552 459 -552H460V-551Q460 -543 467 -530Q476 -514 476 -502ZM637 -331H624Q513 -331 384 -294Q377 -277 372 -274Q391 -277 419 -291Q453 -308 478 -308H483Q498 -300 506 -283Q513 -266 523 -252Q594 -254 643 -277Q632 -294 627 -316Q627 -325 637 -331ZM687 108H685Q681 109 677 109Q654 79 613 70Q572 61 541 41Q583 53 625 65Q618 55 604 49Q590 43 577 38Q541 24 523 15Q549 16 586 30Q621 43 642 45Q636 37 625 34Q614 31 603 27Q607 27 610 26Q629 29 647 31H652Q662 17 660 -10Q665 -38 670 -66Q671 -73 671 -87Q671 -112 670 -137V-153Q647 -150 636 -147Q618 -142 612 -132H610Q593 -132 574 -117Q583 -107 592 -99Q602 -90 616 -88Q623 -76 639 -70Q644 -57 644 -41Q644 -24 637 -7Q619 0 601 2Q594 2 585 -1H583Q581 1 579 3H578Q573 -2 560 -4Q547 -6 544 -7Q540 -8 534 -14Q529 -19 525 -19H522Q506 -19 488 11Q487 9 487 5Q492 -10 502 -26Q500 -28 496 -28Q484 -24 473 -12Q483 -42 483 -46Q483 -64 460 -64Q482 -75 485 -76Q485 -80 479 -81Q473 -82 473 -85V-87H478Q499 -87 505 -103Q494 -133 480 -160Q462 -141 455 -110Q448 -80 439 -52Q428 -54 416 -57Q426 -46 436 -35H439Q440 -35 452 -38V-35Q451 -29 449 -23Q449 -22 451 -18L452 -17Q455 -17 458 -18H460Q458 -1 457 14Q457 29 448 41V46Q449 52 449 58L448 62Q444 62 443 59Q441 56 440 53Q433 57 428 57Q417 54 405 50Q396 48 386 45Q382 40 378 34L376 33Q374 34 371 34V33L372 31Q352 42 327 58Q301 74 283 94Q276 106 269 115Q263 118 250 118Q238 118 230 115Q227 113 220 106Q213 98 208 97Q206 95 206 91Q208 83 209 75Q204 69 199 62L198 58Q199 53 199 48Q199 43 198 41Q197 36 192 30Q184 20 184 15H185Q189 17 193 18H196L198 16Q196 14 194 12L195 11H199Q205 11 214 5Q225 -3 234 -3H236Q244 -33 244 -57Q244 -88 227 -97Q214 -82 190 -82Q166 -82 160 -101Q107 -103 107 -140V-145Q112 -157 116 -169V-184Q117 -200 127 -212Q136 -225 153 -229Q157 -228 161 -228L165 -229Q174 -232 189 -249Q212 -274 231 -274H233Q230 -267 219 -257Q205 -244 202 -233Q226 -236 260 -245Q286 -252 303 -255Q300 -263 290 -267Q281 -271 274 -276Q259 -292 243 -309Q227 -327 199 -328H195Q186 -339 174 -353Q162 -367 161 -383Q161 -395 169 -406Q166 -412 166 -420Q167 -443 182 -446H184Q187 -456 189 -466Q189 -469 186 -474H188Q192 -474 194 -471Q196 -468 198 -468L201 -469Q203 -471 203 -477Q203 -479 195 -503L197 -504Q201 -504 206 -497Q211 -490 215 -490Q228 -498 238 -498Q255 -497 271 -487Q287 -477 298 -469Q335 -472 372 -475Q362 -488 344 -496V-504Q344 -516 345 -522Q335 -520 330 -518Q323 -515 322 -508Q317 -507 309 -507Q286 -507 270 -526Q262 -535 248 -564Q243 -568 237 -572Q240 -585 240 -596Q240 -604 239 -613Q228 -629 206 -630Q214 -634 228 -638Q220 -652 187 -652H178Q181 -658 207 -660Q227 -662 234 -666Q226 -672 207 -672Q183 -670 159 -669Q149 -669 145 -670Q310 -697 486 -754L502 -765H516Q529 -775 545 -782Q564 -788 569 -807Q567 -811 559 -811Q555 -811 554 -810V-811Q554 -816 569 -816H578Q586 -816 588 -817Q607 -825 626 -825Q669 -825 693 -801Q696 -777 708 -754Q728 -727 728 -706Q726 -687 714 -670Q713 -668 707 -666Q700 -663 699 -660H695Q664 -660 646 -650Q641 -651 633 -651Q614 -651 594 -643Q592 -642 560 -627Q565 -624 569 -614Q573 -604 577 -601Q582 -603 589 -610Q596 -617 600 -619Q595 -606 587 -597Q592 -562 592 -552Q592 -530 584 -515Q574 -513 568 -509Q574 -506 585 -506Q606 -506 615 -512Q612 -520 608 -528H606Q601 -526 595 -525H593Q608 -550 628 -570Q648 -590 658 -619V-620Q658 -623 654 -624Q650 -625 649 -627Q664 -643 684 -655Q687 -654 695 -654Q712 -655 729 -656Q748 -656 756 -647Q764 -648 772 -650H775V-647Q789 -655 802 -663Q790 -655 790 -645Q790 -639 799 -624Q808 -608 809 -598V-596Q807 -587 804 -579Q804 -576 806 -572Q797 -563 794 -552V-550Q787 -553 779 -553Q760 -553 743 -531Q753 -536 779 -536H783Q811 -536 824 -543Q837 -535 848 -520H849Q858 -520 871 -531Q880 -539 886 -539L890 -538Q890 -534 883 -528Q871 -518 871 -509H873Q875 -509 879 -513Q883 -518 887 -518H890Q881 -505 877 -487Q877 -478 884 -474Q882 -464 882 -458Q883 -441 884 -425Q884 -405 874 -396Q869 -391 837 -384Q815 -376 798 -374Q795 -374 787 -376Q767 -356 747 -337Q768 -326 775 -304Q788 -307 800 -310Q805 -310 809 -307Q827 -316 843 -327Q851 -313 868 -313Q883 -316 898 -319Q897 -315 888 -310Q880 -306 879 -299Q880 -295 886 -295Q891 -295 895 -296Q899 -296 901 -295Q888 -293 883 -283Q887 -278 898 -277Q896 -235 880 -223Q883 -220 883 -213V-202Q871 -198 865 -189Q812 -189 781 -177Q775 -84 775 -69Q775 -4 793 24Q793 31 790 34Q793 48 793 62Q793 96 775 113Q760 126 734 126Q702 126 687 108Z"/>
</svg>