<svg xmlns="http://www.w3.org/2000/svg" viewBox="0 -800 1024 1024">
	<path fill="#000000" d="M919 -445H922Q922 -434 914 -429Q911 -430 911 -436Q911 -445 919 -445ZM70 -154H67Q57 -154 57 -165L58 -169H59Q65 -169 67 -164Q67 -163 70 -154ZM73 -498Q64 -496 54 -494Q51 -494 48 -495Q45 -498 45 -501Q45 -507 57 -507Q73 -507 73 -498ZM726 -88V-99Q667 -80 637 -51L639 -49Q638 -47 637 -45V-44Q653 -44 679 -56Q706 -69 723 -69Q726 -74 726 -88ZM729 -159Q730 -167 731 -175Q731 -179 729 -183L726 -185Q708 -179 690 -168Q675 -160 659 -150Q643 -140 640 -123Q688 -141 729 -159ZM273 -443V-441Q272 -428 260 -418Q248 -407 236 -407Q228 -407 217 -413Q204 -420 198 -420Q193 -420 187 -417Q177 -434 158 -434Q134 -434 113 -413Q115 -427 124 -433Q134 -439 141 -447Q134 -460 124 -470H122Q114 -467 105 -465H103Q105 -474 112 -477Q120 -481 127 -485Q124 -494 103 -495Q81 -497 77 -504Q83 -504 89 -505Q99 -504 108 -504Q135 -504 138 -520Q137 -526 132 -533Q128 -539 127 -542L128 -543Q130 -543 136 -536Q141 -530 144 -529Q155 -534 165 -539Q163 -548 159 -558Q151 -577 151 -588H156Q165 -567 170 -559Q181 -543 194 -543H195Q199 -543 206 -549Q213 -554 220 -555Q219 -551 217 -548V-546Q223 -541 230 -526Q238 -509 245 -504Q250 -505 255 -511Q261 -519 267 -519V-517Q267 -510 260 -503Q255 -498 254 -493Q268 -470 273 -443ZM504 -173V-168Q501 -158 491 -145Q479 -129 477 -117Q471 -117 471 -126Q460 -127 449 -129Q446 -128 442 -128Q431 -136 418 -141Q415 -127 415 -104Q415 -88 416 -80Q421 -61 427 -44Q428 -40 428 -32Q427 -13 426 6Q426 19 428 25Q426 42 415 51Q405 59 389 59Q373 59 356 50Q352 51 350 57Q340 30 317 3V0Q317 -15 309 -27Q307 -30 292 -45Q294 -50 302 -55Q308 -58 310 -62Q320 -77 323 -120Q325 -148 329 -162V-163Q311 -150 297 -132Q282 -114 264 -94Q238 -63 235 -59Q221 -40 215 -19H213Q209 -19 205 -15Q191 -3 182 9Q174 21 156 25Q153 26 149 26Q128 26 114 10Q101 -4 97 -27Q96 -30 96 -36Q97 -48 98 -60Q98 -66 97 -69Q96 -76 88 -86Q81 -95 80 -102L84 -103Q89 -101 94 -96Q93 -107 82 -121Q71 -135 71 -145V-146Q82 -142 95 -124Q104 -112 112 -106Q150 -115 205 -154Q246 -183 270 -207Q303 -239 322 -275Q275 -260 225 -242Q175 -223 150 -183Q114 -185 99 -191Q76 -201 76 -227V-234Q43 -265 43 -293Q43 -297 45 -309Q53 -323 65 -342Q68 -352 70 -363Q76 -372 89 -377Q102 -383 112 -388Q119 -392 125 -397Q130 -402 138 -402V-396Q138 -392 139 -391Q149 -386 162 -386Q176 -386 201 -394Q232 -404 248 -405Q265 -416 286 -416H292Q311 -426 335 -430Q336 -446 336 -463Q336 -534 304 -546V-548Q301 -564 291 -573Q305 -596 324 -618Q343 -639 378 -641Q387 -641 392 -640Q395 -636 408 -626Q422 -615 427 -608Q432 -596 436 -585Q455 -544 455 -533V-528Q452 -521 446 -514Q439 -489 433 -462Q445 -462 466 -468Q487 -473 501 -474L503 -472Q500 -467 496 -456V-453L500 -452Q507 -454 513 -457L516 -456Q516 -452 510 -447Q501 -439 501 -430Q501 -426 502 -424L503 -423Q507 -426 510 -429L513 -427V-425Q513 -422 508 -417Q503 -411 502 -408L508 -393Q492 -379 492 -353Q492 -343 496 -335Q474 -328 453 -322Q431 -316 415 -304V-301Q414 -287 412 -274Q412 -269 413 -266Q425 -265 437 -255Q440 -255 442 -259Q444 -263 447 -263H448L451 -261Q450 -256 449 -252V-250Q460 -231 474 -231Q478 -231 480 -232Q481 -223 491 -208Q504 -189 504 -173ZM764 128H762Q748 128 726 108Q710 94 702 90Q703 87 703 84Q703 73 687 59Q674 48 671 41Q680 41 690 49Q698 56 704 57Q700 49 682 38Q666 28 661 22Q683 29 708 32Q711 25 712 14Q713 -2 716 -6Q660 8 640 22V26Q637 47 633 67Q614 73 588 75Q581 67 574 58Q567 49 557 44Q554 33 551 22Q548 11 539 7Q556 0 556 -34Q556 -56 550 -78Q527 -97 510 -117Q511 -119 511 -124Q508 -135 504 -147V-149Q507 -181 529 -195Q543 -202 558 -202Q573 -203 590 -204Q608 -206 627 -217Q647 -227 664 -235Q683 -242 701 -250Q711 -254 720 -257Q730 -260 735 -267Q674 -263 566 -223Q559 -219 550 -212Q541 -205 528 -204H525Q504 -207 492 -234Q479 -236 472 -242Q463 -250 463 -263Q463 -269 466 -278Q475 -288 490 -300Q494 -305 500 -315Q509 -330 513 -333Q530 -339 547 -345Q543 -336 532 -322Q541 -319 551 -319Q558 -319 603 -327Q628 -331 642 -332Q651 -333 660 -333Q668 -334 674 -341Q671 -343 662 -343Q650 -342 637 -342Q622 -342 616 -350L610 -367Q594 -374 590 -375Q590 -380 595 -380H600Q604 -380 606 -382Q605 -387 598 -387H589Q583 -387 581 -390Q585 -396 593 -396H609Q616 -398 634 -406Q654 -415 665 -416Q667 -419 667 -426Q667 -434 665 -436Q635 -426 607 -413Q605 -416 597 -416H595Q589 -416 587 -417Q569 -430 559 -456Q548 -467 542 -477Q541 -480 541 -485Q545 -502 548 -519Q548 -523 545 -529Q533 -522 527 -509Q522 -495 514 -483Q508 -485 502 -491Q492 -501 486 -501Q480 -500 475 -494Q471 -489 466 -486V-488Q468 -495 470 -502V-504H467Q461 -503 457 -497Q453 -490 448 -486Q458 -517 467 -549Q480 -588 480 -605Q480 -626 464 -630Q502 -661 539 -692Q566 -686 580 -667Q593 -648 606 -628Q599 -616 597 -601V-598Q594 -595 590 -593Q585 -591 585 -585Q607 -586 622 -593Q637 -600 657 -606Q655 -662 652 -676Q645 -710 625 -723Q627 -727 627 -734Q627 -735 624 -753Q637 -756 663 -780Q684 -800 696 -805Q708 -809 714 -809Q737 -809 763 -789Q772 -782 778 -760Q783 -743 787 -735Q782 -721 782 -709Q775 -700 767 -692Q760 -679 760 -639Q772 -643 825 -666Q823 -661 821 -657V-654Q827 -644 837 -644Q858 -649 881 -657Q878 -653 867 -646Q855 -639 852 -631Q854 -627 855 -623L857 -622Q862 -625 873 -629L877 -628Q875 -625 869 -617Q863 -610 862 -602Q862 -595 870 -592Q861 -584 861 -567Q862 -552 862 -538Q862 -518 849 -513Q853 -503 853 -499V-496Q831 -488 801 -482Q770 -477 748 -463Q748 -457 747 -452V-448H751Q765 -450 779 -457Q782 -457 782 -451Q782 -446 785 -445Q791 -445 801 -449Q811 -453 819 -453L820 -451Q820 -448 816 -445Q810 -440 810 -437V-434Q810 -432 814 -432H815Q819 -432 819 -430Q803 -414 803 -389V-385Q771 -375 742 -361V-348Q782 -357 821 -367Q849 -373 875 -381Q902 -390 910 -416Q911 -398 917 -385Q932 -387 946 -390Q946 -388 941 -386Q936 -384 936 -380V-379Q952 -361 963 -338Q955 -315 951 -289Q932 -288 923 -282Q910 -293 865 -293Q839 -293 821 -288Q824 -271 856 -267Q856 -249 862 -246Q858 -234 858 -224V-218Q812 -190 812 -87Q816 5 827 75Q821 82 805 93Q788 104 784 109Q779 114 775 120Q771 126 764 128Z"/>
</svg>