<svg xmlns="http://www.w3.org/2000/svg" viewBox="0 -800 1024 1024">
	<path fill="#000000" d="M934 -719Q930 -712 921 -709Q919 -710 919 -714Q921 -721 928 -722Q933 -722 934 -719ZM894 -454Q890 -443 886 -433Q882 -436 882 -443Q882 -447 885 -459Q890 -456 894 -454ZM543 -2V-1Q531 -3 528 -5Q522 -9 522 -18H524Q531 -18 537 -14Q543 -10 543 -2ZM426 -79Q408 -77 395 -71Q378 -63 371 -51Q398 -58 425 -66Q426 -70 426 -79ZM426 -138V-145Q427 -156 427 -168Q427 -179 423 -184Q417 -180 413 -172Q410 -165 404 -157Q398 -151 391 -145Q385 -138 384 -131Q384 -126 386 -124Q392 -125 402 -131Q413 -138 422 -138ZM638 -148V-146Q638 -136 629 -113Q618 -86 617 -72Q617 -69 616 -66Q617 -56 618 -47Q618 -44 617 -42Q616 -39 611 -35Q606 -31 606 -27Q599 -27 591 -28Q572 -28 568 -17Q553 -37 537 -57Q535 -78 534 -100Q532 -121 522 -135Q523 -137 523 -142Q521 -153 519 -164V-166Q521 -180 546 -203Q570 -225 571 -244H574Q577 -244 577 -238V-230Q577 -225 579 -223L580 -222Q582 -225 583 -229Q597 -207 616 -191Q635 -176 638 -148ZM662 101H660Q652 82 634 71Q616 60 598 49Q619 52 650 65Q643 56 613 47Q577 37 568 23Q612 28 648 48Q635 39 599 23Q566 9 550 -3Q564 -2 590 7Q625 19 640 19Q654 19 663 14Q674 -141 675 -172V-173L674 -176Q672 -178 672 -180V-191Q672 -229 659 -244Q661 -282 695 -291Q619 -291 503 -259Q507 -249 513 -240Q518 -231 519 -217V-211Q519 -206 511 -193Q500 -175 499 -163Q494 -121 494 -82Q494 -46 497 -12Q503 21 509 53V55Q509 62 501 77Q493 93 493 100Q487 103 479 103Q459 103 445 91Q428 73 416 55Q415 53 415 49Q415 42 416 39Q415 33 404 29Q396 26 394 23H399Q418 22 419 6Q419 3 417 -3Q398 0 381 3Q364 6 359 21Q358 24 358 29Q359 37 359 44Q359 56 352 62H347Q337 62 333 66Q293 59 273 32Q254 8 229 -9Q229 -12 232 -13Q235 -14 237 -15Q234 -23 223 -23Q215 -22 207 -21Q210 -29 222 -36Q230 -41 234 -46Q254 -72 266 -106Q277 -141 290 -175Q298 -180 300 -180Q304 -192 317 -195Q329 -199 342 -204Q350 -194 358 -183Q386 -208 407 -234Q403 -235 394 -235Q372 -234 350 -225Q328 -216 306 -210Q257 -200 240 -192Q207 -177 197 -148L193 -149Q190 -149 184 -144Q179 -140 174 -139H173Q162 -139 143 -154Q126 -167 117 -171Q99 -176 83 -179Q68 -181 61 -196Q60 -201 60 -210Q60 -231 79 -255Q96 -276 97 -295Q153 -323 182 -336Q182 -331 170 -322Q159 -314 157 -306Q162 -301 172 -301Q178 -301 188 -303Q221 -307 352 -330Q352 -336 330 -348V-351Q330 -369 312 -400Q318 -400 325 -393Q330 -388 336 -387L337 -389Q335 -394 333 -400V-402Q342 -399 347 -394Q359 -407 386 -407Q403 -406 420 -406H425Q440 -395 451 -380Q461 -364 472 -348Q489 -351 506 -354Q509 -354 515 -352Q529 -370 546 -408Q543 -411 540 -414H538Q528 -411 518 -409Q520 -418 527 -422Q534 -426 540 -431L541 -434Q540 -437 539 -440V-442Q550 -445 565 -456Q588 -472 607 -472H611Q616 -476 618 -486Q612 -484 606 -483Q587 -494 570 -504Q553 -515 543 -534Q538 -532 538 -526Q538 -520 536 -516Q520 -513 462 -489Q465 -480 469 -472Q473 -464 482 -463Q472 -431 471 -429Q463 -411 450 -405Q445 -408 437 -408H426Q412 -421 391 -423Q387 -425 383 -429Q377 -435 374 -435L370 -434V-436Q370 -439 374 -441Q378 -443 378 -445L377 -448H374Q357 -448 333 -417Q322 -413 309 -413Q265 -416 253 -457Q247 -450 240 -436Q229 -413 219 -408Q211 -383 211 -378L209 -377Q202 -380 195 -384Q187 -380 185 -376Q179 -380 158 -387Q133 -396 123 -406Q118 -405 112 -405H109Q111 -409 111 -415Q111 -426 98 -426Q85 -426 77 -418V-419Q77 -427 86 -435Q93 -441 93 -445V-447H89Q80 -446 73 -441Q66 -435 58 -431L57 -434Q60 -442 65 -447Q87 -466 108 -486Q121 -503 133 -520Q205 -597 252 -682Q248 -699 244 -716Q244 -723 247 -729Q271 -751 309 -760H312Q320 -755 327 -751Q331 -751 335 -752Q346 -752 362 -745Q366 -736 385 -715Q397 -698 404 -682Q413 -676 413 -675Q416 -667 416 -660Q415 -639 399 -624Q383 -610 368 -600Q345 -583 324 -549Q386 -569 519 -621V-618Q520 -608 527 -602Q533 -595 540 -589Q550 -600 570 -647Q587 -676 592 -707Q592 -718 586 -727Q578 -728 569 -729H565Q565 -741 580 -745Q596 -768 616 -784Q637 -800 657 -817Q667 -819 670 -819Q686 -819 708 -801Q724 -788 736 -784Q738 -759 739 -735Q739 -716 731 -703Q710 -695 693 -674Q681 -660 666 -634Q721 -652 775 -665Q830 -678 872 -710Q874 -709 874 -706V-702Q874 -698 878 -697Q886 -697 895 -702Q904 -707 908 -707H910Q908 -701 899 -695Q891 -690 889 -685Q892 -680 894 -675Q906 -676 915 -681L916 -679Q913 -671 909 -663L910 -661L912 -658Q912 -655 915 -655Q920 -656 925 -657Q915 -635 915 -613Q916 -608 916 -603V-601Q914 -593 903 -587Q892 -581 889 -575Q801 -566 731 -540Q735 -533 740 -533Q742 -533 756 -535L757 -533Q753 -525 746 -517Q748 -514 748 -510Q744 -500 740 -484V-480H730Q700 -462 669 -442Q672 -430 688 -426V-416Q688 -406 690 -402Q681 -401 674 -393Q672 -391 665 -379Q723 -384 786 -392Q850 -400 886 -426V-424Q885 -418 884 -412L885 -408Q887 -407 892 -407Q907 -409 921 -412Q920 -408 915 -405Q911 -403 910 -400Q913 -394 918 -391Q929 -396 941 -399H943L945 -397Q945 -395 938 -391Q931 -387 930 -384Q935 -375 947 -375H955Q944 -368 944 -359Q944 -353 949 -339Q955 -323 955 -314Q955 -311 953 -303Q931 -290 925 -276Q842 -300 773 -300H759Q764 -288 774 -277V-268Q778 -260 784 -250Q789 -240 790 -225V-223Q790 -212 780 -188Q768 -158 767 -141Q763 -89 763 -62Q763 8 779 55Q766 77 758 100Q748 101 734 112Q720 123 710 123Q702 123 689 113Q673 101 662 101Z"/>
</svg>