<svg xmlns="http://www.w3.org/2000/svg" viewBox="0 -800 1024 1024">
	<path fill="#000000" d="M934 -231V-226Q934 -218 930 -210Q923 -210 923 -218Q924 -229 932 -232ZM848 -440Q833 -432 829 -432Q829 -440 834 -443Q839 -447 842 -450Q848 -450 848 -440ZM72 -509V-507Q72 -493 55 -485Q55 -506 72 -509ZM546 -129Q541 -172 538 -180Q529 -175 519 -171Q510 -167 506 -156Q516 -152 531 -140Q540 -132 546 -129ZM610 -479L623 -510Q590 -507 575 -501Q553 -492 548 -471H551Q576 -475 601 -480Q607 -480 610 -479ZM647 -156V-157Q657 -163 666 -170Q656 -183 650 -189Q638 -200 626 -200H622Q631 -188 631 -168Q629 -138 623 -110Q633 -120 653 -150Q652 -153 650 -153Q647 -153 647 -156ZM552 -299V-294Q553 -282 554 -270Q573 -270 601 -276Q606 -301 606 -306Q601 -310 589 -310Q565 -310 552 -299ZM623 -413V-415Q623 -426 606 -426Q590 -426 571 -418Q552 -410 551 -402Q555 -394 555 -384Q581 -387 607 -390Q609 -391 609 -394Q609 -397 607 -401Q620 -405 623 -413ZM662 -575Q662 -589 673 -612Q680 -626 681 -633Q591 -608 548 -546Q562 -547 589 -560Q625 -577 645 -577Q650 -577 662 -575ZM271 -318V-317Q264 -288 238 -269Q228 -263 218 -257Q208 -251 201 -242L202 -246Q202 -254 198 -255Q194 -253 191 -253Q178 -255 164 -261Q157 -258 149 -252Q151 -256 151 -258Q150 -264 144 -266Q137 -269 130 -272Q119 -269 109 -251Q108 -253 108 -258Q108 -273 118 -279Q104 -306 99 -315Q80 -346 80 -355Q80 -370 101 -378V-390Q125 -393 148 -401V-423Q153 -413 157 -404Q161 -394 172 -392Q181 -398 188 -405Q192 -394 194 -392H200Q225 -392 249 -364Q271 -338 271 -318ZM305 -618V-609Q305 -587 316 -550Q324 -523 326 -510Q322 -496 319 -483Q316 -470 306 -462Q297 -455 275 -452Q253 -449 244 -444Q238 -445 229 -452Q216 -461 209 -461Q206 -461 200 -459Q194 -470 184 -476Q174 -473 164 -467Q159 -461 154 -453Q150 -445 140 -444Q143 -459 151 -467Q159 -476 167 -485Q167 -503 151 -503Q128 -500 121 -483V-485Q125 -502 137 -515Q134 -536 116 -536Q98 -536 78 -516Q94 -538 109 -564Q105 -583 98 -599H97Q92 -597 87 -596L84 -597Q87 -601 98 -606Q96 -622 86 -629Q77 -636 69 -645Q77 -641 86 -641Q102 -642 116 -651Q131 -660 146 -666Q146 -674 145 -683Q145 -692 148 -695Q156 -659 193 -658Q200 -658 204 -659Q209 -667 212 -676Q216 -685 226 -687V-686Q223 -675 220 -664Q220 -662 222 -656Q227 -650 237 -645Q244 -646 249 -650Q272 -630 305 -618ZM311 -137V-135Q311 -131 297 -104Q284 -76 283 -72Q259 -49 255 -45Q238 -26 229 -6Q220 21 212 48Q205 75 179 81Q174 82 168 82Q128 82 112 60Q109 46 99 21Q90 8 84 -2Q78 -12 78 -28V-36Q79 -48 91 -65Q101 -80 104 -88Q109 -103 112 -117Q114 -132 126 -141Q124 -137 124 -127Q124 -112 132 -102Q183 -153 228 -211Q272 -268 333 -308Q325 -293 310 -277Q294 -261 292 -241Q293 -237 293 -234Q302 -239 314 -254Q326 -268 333 -273Q326 -262 318 -248Q309 -235 308 -219Q308 -214 309 -212Q312 -212 314 -217Q316 -222 318 -222H320L321 -220Q318 -215 314 -210Q311 -196 308 -183L312 -171Q307 -167 307 -160Q309 -148 311 -137ZM915 3H911Q904 3 887 -3Q870 -9 858 -9Q851 -9 848 -8Q825 -42 794 -69Q763 -95 734 -123Q734 -118 732 -108Q710 -106 696 -102Q678 -97 671 -85Q676 -81 686 -81Q706 -83 729 -90Q732 -90 732 -84Q732 -79 734 -78Q755 -85 761 -85H768Q768 -82 762 -81Q757 -80 756 -78Q767 -71 782 -52Q793 -38 798 -33V-26Q795 4 783 25H778Q755 25 736 37Q710 27 638 -18Q635 -7 635 3Q636 22 642 40Q649 57 654 73Q627 79 594 118Q565 111 552 91Q538 70 521 51L517 52Q513 51 508 50Q512 44 529 40V5Q529 -7 530 -12Q495 -1 468 24Q440 49 414 73Q397 64 381 55Q365 46 354 31Q363 12 367 -14Q382 -26 413 -44Q411 -39 408 -34V-33Q479 -57 520 -66Q493 -75 486 -79Q468 -88 462 -102Q431 -84 413 -53H407Q398 -53 389 -50Q375 -56 355 -82Q341 -100 330 -108Q335 -120 351 -127Q353 -128 377 -137Q359 -153 340 -167Q339 -179 334 -195Q327 -216 327 -225V-227Q328 -242 344 -252Q353 -258 376 -266L372 -258Q383 -253 401 -253Q438 -257 475 -261V-263Q475 -270 469 -276Q455 -275 440 -275Q414 -275 401 -284V-285Q401 -298 388 -307Q376 -315 376 -323V-324Q383 -346 398 -365Q410 -379 428 -381H430Q437 -380 443 -379L447 -380Q452 -381 462 -392Q476 -407 486 -407H488Q484 -414 472 -425Q460 -436 456 -443Q449 -464 438 -488Q428 -509 419 -528Q410 -547 382 -548H380Q377 -556 363 -574Q344 -597 342 -611Q341 -616 341 -626Q341 -664 370 -674V-699Q380 -689 384 -689L388 -690Q380 -706 376 -725Q389 -714 401 -704Q403 -704 404 -708Q405 -711 408 -711V-712Q404 -716 400 -725Q409 -723 414 -719Q423 -723 435 -723Q464 -723 508 -696Q574 -723 642 -742Q710 -762 767 -798Q771 -799 779 -799Q799 -798 818 -790Q836 -781 857 -773H858Q865 -776 871 -780L874 -779Q872 -773 869 -768Q882 -781 900 -785V-784Q900 -781 894 -775Q882 -762 882 -756Q882 -751 887 -746Q888 -747 890 -751Q892 -757 896 -757L899 -756Q910 -720 914 -681Q914 -663 909 -651Q848 -631 805 -565Q784 -533 742 -434Q746 -429 751 -426Q756 -423 756 -415V-411Q771 -415 785 -423Q784 -418 782 -414V-413Q791 -414 805 -421Q815 -427 823 -428Q811 -418 811 -408Q811 -401 817 -395Q821 -403 829 -403L833 -402L834 -400Q834 -398 830 -395Q824 -391 824 -387Q825 -383 831 -383H838Q819 -367 819 -338Q814 -337 801 -329Q782 -329 763 -330Q734 -330 720 -324Q701 -316 699 -296H705Q749 -296 829 -315Q836 -304 854 -304Q866 -304 878 -305H882Q873 -301 869 -294Q872 -268 885 -246Q880 -240 880 -231Q881 -223 881 -216Q857 -212 845 -198Q803 -201 802 -201Q790 -201 779 -198Q801 -187 822 -174Q843 -161 868 -153Q872 -162 875 -172Q877 -183 888 -186Q886 -180 886 -174Q886 -163 891 -156Q900 -171 903 -217Q905 -250 909 -263Q911 -206 912 -150Q915 -155 916 -174Q918 -199 925 -200Q927 -100 959 -54H958Q954 -52 949 -50Q946 -46 935 -18Q928 1 915 3Z"/>
</svg>