<svg xmlns="http://www.w3.org/2000/svg" viewBox="0 -800 1024 1024">
	<path fill="#000000" d="M846 -692Q844 -682 827 -676Q828 -692 840 -693Q844 -693 846 -692ZM849 -102Q846 -111 846 -115Q846 -124 852 -126Q857 -123 857 -117Q857 -105 849 -102ZM67 -123Q56 -125 56 -138Q56 -143 58 -145Q69 -143 69 -130Q69 -125 67 -123ZM190 -365H188Q182 -365 177 -370Q173 -374 173 -380Q173 -383 174 -385H176Q188 -385 190 -365ZM600 -242H596Q582 -242 567 -233Q552 -224 541 -224H537Q533 -218 533 -211Q533 -207 535 -205Q563 -210 591 -215Q597 -228 600 -242ZM640 -357Q599 -346 586 -341Q560 -331 547 -314Q539 -312 507 -300Q512 -296 521 -296Q542 -299 562 -309Q604 -321 626 -323Q637 -337 640 -357ZM852 131H850Q836 131 813 120Q791 109 777 108Q738 73 692 36Q672 19 652 4Q633 -12 614 -33Q592 -58 587 -65Q574 -85 574 -106Q574 -115 575 -120Q599 -133 600 -134Q609 -133 629 -124Q647 -116 656 -116Q671 -116 679 -133L676 -134Q672 -132 668 -130H667Q658 -130 643 -141Q631 -150 627 -151Q624 -151 621 -152Q613 -152 580 -140Q561 -132 544 -119H541Q535 -120 528 -121Q526 -120 523 -120Q514 -112 512 -96Q511 -79 509 -63L569 -89L571 -87Q567 -79 562 -71V-70L564 -69Q569 -70 573 -72Q575 -72 577 -70Q574 -66 571 -63Q568 -59 568 -53Q570 -50 571 -50Q575 -52 579 -54H580Q573 -46 573 -34Q573 -23 580 -13Q560 4 538 18Q515 32 509 62Q501 66 493 81Q486 95 479 99Q459 98 447 89Q435 80 427 68Q413 42 388 27Q387 18 386 16Q384 11 378 10Q387 6 387 -2Q387 -6 383 -7Q378 -8 375 -10Q424 -34 436 -98Q454 -181 454 -220Q454 -245 448 -269Q446 -273 442 -276Q436 -282 435 -286Q449 -286 464 -297Q479 -308 489 -308Q487 -312 456 -334Q442 -325 430 -303Q422 -291 413 -279Q405 -267 404 -254Q404 -242 411 -231Q400 -222 382 -209Q354 -189 343 -177Q323 -151 309 -117Q294 -82 280 -48Q234 54 220 82Q187 75 152 72Q140 72 128 75Q118 33 91 4V-3Q91 -13 84 -39Q85 -38 89 -38Q93 -38 94 -39Q92 -51 84 -72Q74 -101 73 -114Q81 -108 89 -86Q96 -65 104 -59Q102 -84 85 -126Q71 -160 69 -180Q104 -129 137 -74Q150 -78 168 -99Q181 -114 191 -120Q189 -131 173 -140Q159 -148 156 -155Q160 -170 160 -186Q160 -209 150 -220Q151 -222 155 -222H162Q169 -222 170 -228Q177 -226 190 -226Q209 -226 227 -232Q245 -239 267 -245Q242 -257 229 -272Q220 -267 209 -265Q214 -271 218 -277Q214 -285 200 -297H197Q191 -295 184 -293L181 -294Q182 -298 188 -305Q194 -312 194 -320Q193 -327 178 -327Q165 -327 162 -331Q164 -334 173 -334H188Q195 -334 197 -335V-337Q196 -347 191 -355Q203 -348 216 -345Q221 -345 224 -346Q225 -348 225 -351Q225 -357 224 -363Q224 -365 226 -369Q232 -360 238 -352H240Q253 -352 266 -341Q269 -338 286 -319Q303 -299 303 -281Q303 -277 301 -263Q294 -258 288 -251Q335 -271 361 -313Q388 -356 418 -397Q382 -386 365 -372Q355 -363 342 -352Q329 -342 313 -341Q300 -341 289 -349Q283 -353 276 -367Q270 -378 264 -383Q249 -389 239 -395Q228 -408 228 -452V-476Q228 -491 227 -498Q234 -507 238 -520Q257 -530 293 -558Q343 -597 377 -608Q364 -598 352 -588Q339 -579 335 -560Q347 -555 356 -555Q366 -555 392 -561Q413 -566 425 -566H429Q446 -572 472 -577Q506 -583 519 -589Q522 -588 525 -588Q534 -588 538 -593Q542 -598 547 -602Q545 -614 545 -626Q544 -639 538 -649Q535 -654 521 -661Q510 -667 506 -671Q501 -677 498 -682Q494 -688 489 -688Q486 -688 483 -686L482 -689Q486 -697 489 -706V-709Q489 -711 485 -711Q482 -710 480 -713Q482 -755 503 -776Q541 -810 587 -815H593Q600 -814 611 -803Q622 -791 632 -790Q633 -783 639 -776Q645 -768 650 -768Q651 -768 655 -770Q655 -761 661 -754Q667 -746 675 -746Q680 -746 683 -749Q679 -741 679 -730Q680 -716 681 -702Q681 -698 680 -694Q678 -682 665 -664Q648 -640 648 -624V-622Q743 -638 824 -671Q821 -665 821 -656Q826 -650 834 -650Q840 -650 852 -654Q867 -659 876 -659H882Q875 -653 866 -648Q857 -644 852 -635Q854 -634 857 -634Q867 -636 876 -638H879Q869 -631 863 -625Q854 -616 854 -607Q854 -603 855 -601Q859 -599 860 -599Q866 -600 871 -602Q869 -595 864 -590Q858 -584 858 -580V-578Q858 -572 863 -562Q868 -552 868 -547Q863 -523 843 -509Q818 -498 778 -495Q718 -482 650 -469Q582 -456 526 -434Q526 -428 519 -412Q556 -424 588 -433Q620 -443 651 -461Q676 -460 700 -459Q724 -458 742 -451Q745 -452 747 -454H748Q753 -436 762 -432Q780 -444 800 -454Q799 -448 788 -440Q778 -433 778 -427V-426Q782 -429 792 -433L796 -432Q787 -414 787 -402Q787 -388 799 -385H801Q807 -386 813 -388Q808 -382 808 -370Q809 -354 810 -339Q810 -330 809 -325Q762 -308 743 -264Q723 -220 707 -171Q735 -190 742 -237Q760 -244 779 -244Q797 -244 806 -234Q830 -246 837 -248V-245Q834 -236 828 -228L830 -227Q832 -228 834 -229L836 -228Q835 -224 835 -213Q837 -187 838 -161Q838 -129 822 -122H816Q782 -122 755 -108Q738 -99 712 -76Q713 -71 718 -71Q724 -71 729 -70Q738 -62 768 -48Q784 -40 798 -31Q812 -22 827 -21Q834 -25 835 -44Q836 -64 842 -68Q845 -63 845 -45Q845 -23 851 -17Q853 -33 853 -42Q853 -55 852 -69Q852 -79 854 -95Q857 -86 859 -62Q862 -30 870 -20Q872 -28 872 -35Q867 -77 861 -120Q861 -136 868 -146Q873 -143 873 -135V-126Q882 -53 897 21Q912 35 917 56V58Q917 77 908 95Q900 111 884 117Q867 123 852 131Z"/>
</svg>