<svg xmlns="http://www.w3.org/2000/svg" viewBox="0 -800 1024 1024">
	<path fill="#000000" d="M116 -345H110L106 -346Q107 -354 114 -360Q120 -365 120 -370Q119 -376 112 -380Q102 -385 100 -392Q103 -391 108 -391H112Q123 -393 141 -406Q164 -422 185 -422H191Q208 -420 231 -401Q254 -382 259 -366Q260 -350 265 -334Q260 -316 260 -314Q260 -309 261 -307Q237 -281 204 -281Q180 -281 161 -296Q155 -300 149 -310Q142 -321 139 -323Q129 -325 125 -325Q118 -325 93 -320Q94 -325 107 -333Q118 -340 121 -343Q120 -345 116 -345ZM284 -500V-496Q274 -493 261 -484Q247 -474 240 -472Q235 -479 212 -479H210Q186 -479 181 -487Q150 -480 144 -475Q138 -468 130 -465H128Q128 -469 136 -479Q147 -493 147 -500V-504Q144 -512 136 -512Q128 -511 119 -510L128 -526Q126 -533 116 -541Q79 -529 57 -510Q59 -525 78 -536Q100 -548 107 -568V-573Q107 -592 94 -598H90Q86 -598 84 -595V-597Q84 -601 90 -607Q100 -616 100 -625V-626Q99 -635 87 -643Q78 -649 75 -655L78 -656Q84 -653 90 -651H91Q103 -658 111 -672Q115 -673 123 -673Q141 -672 158 -672Q170 -672 175 -673Q181 -674 188 -682Q193 -687 198 -688Q214 -674 225 -669Q235 -687 242 -708Q245 -700 245 -692Q244 -680 243 -668Q243 -665 245 -657Q248 -646 261 -639Q265 -637 285 -631Q284 -626 284 -617Q285 -598 291 -583Q297 -568 301 -553Q288 -527 284 -500ZM695 -220H690Q682 -220 682 -214Q692 -216 695 -220ZM293 -372V-353Q285 -358 285 -369V-374H287Q290 -373 293 -372ZM774 -235H777Q772 -222 760 -222V-223Q760 -235 774 -235ZM888 -498H891Q892 -496 892 -491Q889 -479 885 -468Q882 -477 882 -486Q882 -498 888 -498ZM552 -263H553V-269Q553 -281 551 -282Q548 -280 538 -278Q524 -276 522 -270Q525 -258 529 -258Q541 -260 552 -263ZM508 -310H515Q534 -310 550 -318Q550 -323 549 -329Q536 -326 526 -324Q515 -323 508 -310ZM598 -117H596Q587 -117 577 -109Q579 -98 581 -87Q593 -89 596 -90Q598 -106 598 -117ZM605 -291V-276Q628 -277 650 -279Q652 -288 653 -297Q647 -300 638 -300Q621 -300 605 -291ZM600 -200L596 -219H591Q566 -219 549 -207Q552 -199 555 -192Q578 -196 600 -200ZM673 -347V-350Q674 -355 674 -360V-363H664Q628 -360 599 -345Q601 -338 605 -333Q632 -335 640 -349H644Q653 -349 661 -350Q667 -350 673 -347ZM574 -388Q567 -400 559 -411Q562 -416 564 -436L561 -438Q553 -425 534 -409Q510 -388 504 -375Q539 -381 574 -388ZM628 -447Q635 -441 635 -426Q630 -418 627 -409Q627 -406 628 -404Q634 -410 663 -416Q685 -421 691 -436Q677 -448 663 -461Q649 -474 633 -484Q632 -476 632 -468Q633 -461 628 -457ZM803 -671Q810 -678 822 -680Q833 -683 841 -687L843 -684Q842 -680 841 -677Q850 -655 876 -655Q880 -655 884 -656Q882 -651 874 -648Q864 -644 863 -636Q863 -627 869 -627Q870 -627 879 -630Q879 -625 871 -618Q860 -608 860 -600L862 -599Q865 -599 868 -600L870 -599Q863 -593 855 -569Q845 -537 830 -534Q812 -531 794 -531Q782 -531 770 -532Q727 -532 707 -517Q717 -512 721 -499Q727 -499 733 -493Q736 -489 741 -482L743 -481Q746 -481 748 -482Q752 -474 767 -463Q775 -457 780 -451Q794 -439 796 -429L820 -404H821Q826 -404 838 -395Q847 -389 852 -387Q860 -391 868 -396Q870 -416 874 -430Q878 -453 884 -459V-455Q881 -422 877 -389V-382Q885 -404 899 -479Q900 -497 906 -510Q905 -499 900 -459Q894 -415 894 -387V-376Q897 -382 899 -402Q901 -426 906 -432Q907 -428 907 -420Q906 -403 904 -387Q905 -368 918 -333Q933 -292 933 -271Q933 -249 924 -231Q910 -224 896 -224Q880 -224 866 -238Q857 -250 847 -263Q809 -310 789 -327Q785 -326 777 -318Q768 -309 762 -309L758 -310L745 -297Q744 -289 739 -279Q730 -261 730 -249V-247Q716 -246 705 -222Q722 -225 738 -228L740 -226Q739 -222 738 -218Q738 -215 741 -214Q749 -217 756 -220L757 -218Q753 -211 749 -204Q751 -200 760 -200Q768 -200 771 -197Q769 -192 759 -189Q747 -186 747 -176V-175L748 -174Q752 -175 755 -177H756Q751 -172 747 -169Q742 -165 738 -157V-155Q738 -142 733 -135Q729 -128 724 -121Q702 -126 689 -126Q656 -126 651 -102Q664 -106 693 -109Q724 -112 739 -117Q746 -120 752 -124Q754 -125 757 -125Q763 -124 768 -124Q797 -131 822 -140Q821 -137 821 -133L822 -129Q834 -123 851 -123Q862 -123 868 -124Q867 -118 859 -115Q849 -111 849 -102V-100L853 -99Q860 -101 867 -103L870 -102Q869 -96 862 -93Q855 -90 854 -85Q856 -82 857 -82Q860 -82 863 -83L866 -81Q849 -67 849 -46V-36Q838 -31 832 6Q826 13 818 13Q811 13 793 5Q787 2 781 -1Q776 -5 774 -12L741 -13Q733 -6 713 -6Q699 -7 685 -8Q690 -2 703 7Q717 17 723 24Q731 20 738 16L741 17Q740 21 736 26Q732 30 732 33L735 41Q742 39 753 30Q766 19 777 18Q767 27 756 35Q745 42 743 63Q744 67 750 67H757Q744 78 744 88Q744 96 757 99Q752 100 746 101Q744 120 730 131Q718 141 701 141Q690 141 680 136Q660 127 660 110V109L641 96Q636 96 628 83Q619 70 608 53Q597 35 596 13Q596 10 598 0Q592 -1 580 -1Q555 -1 505 12Q527 23 546 54Q550 53 555 46Q561 37 567 36Q566 43 561 52Q554 64 553 72V74Q554 84 555 94V96Q547 107 544 117V119Q526 125 519 125Q509 125 501 118H499Q497 120 494 121H492V116Q492 111 494 110Q487 110 478 118Q472 123 467 124Q476 113 485 101Q479 88 467 81Q464 75 464 61Q463 42 460 38Q469 35 475 27Q480 20 487 13Q471 17 454 21L428 29Q425 36 420 37Q415 39 410 41Q408 42 394 62Q383 77 373 77H372Q365 72 358 67H355Q351 68 346 68L343 67Q336 64 330 54Q324 45 320 38V34Q320 25 319 16Q319 9 322 3Q319 -10 319 -27Q319 -38 322 -46Q329 -53 338 -58Q349 -71 361 -88Q373 -104 384 -112V-110Q384 -106 379 -97Q371 -83 371 -74Q371 -71 373 -63Q408 -67 440 -67Q471 -68 502 -78Q500 -88 497 -99Q494 -99 491 -100Q481 -100 463 -88Q449 -79 445 -79H444Q436 -79 427 -93Q418 -106 412 -109Q411 -112 411 -121Q411 -133 414 -135Q413 -139 413 -147Q414 -170 427 -182Q441 -194 453 -204L444 -184Q447 -181 449 -181Q455 -182 460 -183Q472 -181 477 -181Q484 -181 489 -186Q487 -195 482 -200Q477 -205 472 -210Q462 -251 433 -251Q426 -251 422 -250Q414 -259 408 -272Q382 -254 373 -231Q363 -207 347 -176Q339 -177 327 -182Q316 -187 310 -187Q308 -187 302 -185Q305 -189 307 -193V-194Q304 -215 295 -234Q292 -256 288 -278Q283 -291 279 -311V-315Q282 -312 286 -302Q291 -289 297 -284Q296 -305 284 -339Q272 -372 271 -387Q279 -379 281 -365Q296 -315 310 -297Q310 -308 303 -322Q298 -333 297 -343Q299 -343 308 -330Q312 -323 316 -314Q321 -306 329 -305H330Q340 -305 356 -317Q357 -318 381 -338Q438 -385 443 -390Q471 -416 494 -450Q471 -444 424 -412Q413 -401 408 -397Q401 -388 389 -388Q368 -388 356 -407Q351 -419 345 -432Q339 -441 332 -449Q325 -457 323 -467Q322 -473 322 -483Q322 -499 336 -534Q334 -542 334 -546Q334 -569 347 -580Q377 -606 408 -614L416 -621Q418 -625 422 -628Q419 -645 399 -657Q407 -659 413 -660Q419 -661 419 -671V-675Q418 -681 414 -685Q408 -690 408 -696Q417 -694 422 -687Q427 -688 429 -699Q425 -707 419 -714Q413 -721 411 -732Q414 -731 422 -724Q433 -714 440 -714Q446 -714 452 -721V-740Q456 -738 460 -721Q473 -718 485 -715Q487 -718 488 -723Q489 -728 492 -729Q494 -708 508 -678H510Q515 -680 519 -683V-671Q521 -651 522 -632Q522 -627 520 -617Q523 -611 527 -611Q528 -611 544 -615Q542 -639 533 -656Q536 -672 548 -693Q557 -710 560 -717Q583 -723 590 -735Q596 -734 606 -724Q618 -713 628 -712Q628 -709 627 -706Q629 -685 639 -684Q636 -657 633 -631L637 -630Q645 -631 648 -643Q651 -655 655 -671Q666 -704 666 -712Q666 -723 657 -731Q657 -733 661 -735Q665 -737 665 -741Q663 -753 648 -762Q649 -769 660 -769Q668 -769 671 -772V-773Q670 -775 669 -778V-780Q678 -787 689 -789Q698 -793 706 -800Q714 -807 724 -808Q730 -808 737 -804Q750 -791 760 -765Q767 -754 773 -743Q780 -731 780 -715V-711Q778 -690 763 -678Q740 -661 736 -654H737Q752 -658 767 -663Q771 -663 772 -662Q794 -668 803 -671ZM208 -203Q222 -213 237 -229Q252 -246 268 -255Q271 -253 275 -246Q280 -236 286 -235H288Q284 -229 282 -212V-197L284 -195Q286 -195 288 -199Q291 -204 294 -204L297 -203Q293 -197 291 -186Q291 -171 299 -160Q300 -159 301 -158Q308 -161 307 -156Q299 -147 290 -139Q302 -146 314 -153Q296 -140 297 -138Q288 -124 269 -111Q242 -93 234 -86Q213 -69 210 -48Q206 -41 206 -28L205 -19Q199 6 189 21Q176 41 158 40H156Q131 37 119 9Q76 1 79 -38Q79 -46 81 -51Q81 -53 85 -61Q85 -68 79 -86Q73 -102 74 -110Q76 -126 87 -140Q98 -154 109 -168Q119 -183 126 -197Q134 -212 145 -220V-218Q139 -204 133 -182Q136 -170 138 -158Q138 -155 139 -153Q166 -177 175 -184Q178 -192 186 -195Q195 -197 203 -200Q206 -201 208 -203Z"/>
</svg>