<svg xmlns="http://www.w3.org/2000/svg" viewBox="0 -800 1024 1024">
	<path fill="#000000" d="M682 -409Q669 -417 657 -426Q645 -436 633 -438Q604 -402 579 -363Q608 -370 636 -378Q633 -385 633 -391Q633 -411 664 -411Q672 -411 682 -409ZM673 -596Q655 -585 637 -572Q619 -560 611 -543H614Q622 -544 630 -545Q632 -545 638 -543Q642 -552 656 -569Q670 -586 673 -596ZM515 -10L511 -9Q500 -9 500 -19V-22H503Q509 -22 510 -18Q512 -14 515 -10ZM278 -199Q214 -158 188 -129Q170 -107 167 -107H166Q156 -107 143 -131Q130 -155 120 -158Q124 -165 124 -173Q122 -189 120 -205Q120 -212 123 -220Q128 -231 148 -252Q169 -274 174 -286Q152 -283 128 -271Q116 -265 91 -248Q52 -255 44 -304Q41 -343 41 -355Q41 -369 43 -377Q53 -395 74 -411Q96 -436 119 -463Q141 -490 164 -511L191 -549Q198 -572 210 -588Q223 -605 234 -622V-625Q237 -649 248 -661Q239 -675 232 -691Q246 -685 261 -682Q266 -682 269 -684L270 -687Q268 -692 265 -697L266 -700Q274 -701 292 -708Q308 -714 317 -714Q323 -714 326 -713Q342 -707 351 -690Q360 -673 379 -669Q377 -661 377 -655Q377 -647 380 -643H384Q399 -645 407 -653Q391 -630 391 -612Q391 -600 399 -589Q395 -581 388 -546Q298 -514 251 -439Q264 -448 294 -454Q315 -459 323 -462V-458Q323 -452 326 -446Q331 -447 336 -449H338Q342 -423 358 -391Q349 -376 343 -358Q319 -345 298 -323Q283 -308 263 -280Q297 -300 335 -310Q342 -312 354 -319Q366 -326 376 -328Q376 -322 375 -317Q375 -311 378 -307Q386 -309 391 -313Q393 -313 401 -302Q398 -289 403 -286Q406 -291 408 -291L409 -290Q408 -286 408 -277Q407 -268 411 -261Q413 -257 412 -256Q404 -248 386 -241Q368 -235 349 -226Q332 -224 318 -216Q304 -209 293 -205ZM933 -471Q933 -459 924 -455Q922 -461 922 -469Q922 -480 928 -480H930Q933 -475 933 -471ZM573 -103Q566 -100 557 -97Q549 -95 540 -107Q532 -117 528 -130V-132Q508 -148 511 -188Q512 -192 512 -196Q513 -209 515 -218Q518 -226 513 -235Q514 -237 514 -240Q514 -245 520 -253Q526 -261 526 -264V-266H527Q538 -266 547 -262Q565 -266 580 -255Q593 -249 616 -250Q607 -212 609 -208Q630 -214 638 -214H641V-221Q643 -238 644 -255Q644 -259 642 -267H641Q631 -268 622 -270Q614 -272 608 -265Q585 -265 569 -275Q553 -284 552 -286Q550 -289 549 -299Q548 -312 541 -314Q530 -303 513 -275Q494 -245 481 -232Q468 -219 448 -219Q443 -224 437 -230Q428 -222 419 -214Q411 -206 410 -192Q411 -188 411 -185Q417 -187 426 -196Q435 -205 442 -207Q442 -202 434 -194Q423 -183 423 -176Q423 -174 425 -168L427 -167Q435 -171 442 -175Q436 -164 436 -153Q439 -131 442 -109Q392 -91 356 -61Q319 -31 279 -4L256 17Q229 63 218 74Q201 91 181 91Q177 91 167 89Q121 75 85 67Q79 59 79 47Q81 23 87 -8Q86 -39 93 -62Q101 -77 114 -85Q127 -93 137 -101L138 -97Q135 -86 131 -76Q131 -74 133 -70Q176 -85 254 -132Q331 -180 372 -201Q381 -204 396 -216Q416 -233 432 -236Q426 -244 425 -250Q423 -254 426 -273Q429 -286 431 -299Q435 -315 439 -332Q439 -346 428 -368Q418 -387 417 -396Q424 -393 432 -382Q440 -370 448 -369H452Q471 -371 490 -387Q510 -404 522 -415Q557 -452 579 -480Q579 -488 570 -498Q563 -506 562 -514H559Q521 -514 491 -505Q483 -501 474 -497L473 -501Q475 -508 478 -512Q474 -534 451 -551Q447 -597 428 -608Q448 -623 471 -644Q488 -666 513 -681L559 -723V-726Q559 -735 571 -750Q582 -764 583 -775Q593 -769 606 -764Q618 -760 626 -750Q635 -753 636 -753Q642 -729 656 -718Q676 -727 698 -741Q716 -750 734 -768Q742 -776 762 -776Q781 -776 797 -769Q814 -761 817 -750Q824 -752 831 -754L835 -753L837 -751Q833 -745 829 -739V-738Q831 -737 834 -737Q838 -737 849 -743Q863 -751 873 -751H877Q863 -740 848 -731Q832 -722 830 -700Q834 -701 838 -708Q842 -715 847 -715H848L849 -713Q845 -703 840 -685Q840 -683 842 -677L843 -675Q846 -676 848 -678L850 -677Q842 -663 842 -649Q842 -642 845 -636Q837 -626 833 -612Q830 -610 823 -610Q811 -611 799 -612H796Q771 -608 756 -591Q741 -573 725 -555Q714 -544 703 -534Q693 -523 689 -510Q694 -503 713 -492Q729 -483 733 -471L780 -447Q789 -445 798 -435Q830 -414 832 -412Q852 -394 854 -393Q864 -386 878 -386H885Q895 -404 895 -427V-430Q895 -439 894 -449Q894 -460 900 -462Q903 -452 903 -426V-386Q908 -396 908 -415Q908 -435 907 -455V-465Q907 -491 912 -513Q918 -495 918 -461Q918 -435 917 -410Q917 -392 918 -383Q922 -405 922 -422Q922 -433 921 -438Q928 -435 928 -406V-395Q933 -367 945 -344Q957 -320 965 -297Q963 -293 963 -292Q964 -288 964 -285Q964 -283 962 -279Q967 -262 971 -245V-241Q969 -232 960 -226Q951 -220 944 -214Q915 -214 900 -223Q878 -232 858 -249Q850 -261 841 -274Q811 -304 774 -332Q772 -311 765 -297H755Q705 -297 705 -248Q705 -242 707 -228Q727 -233 751 -239Q776 -246 786 -269Q792 -253 809 -253Q816 -253 824 -258Q827 -257 829 -251Q831 -246 833 -245Q836 -246 841 -246Q850 -246 853 -245Q844 -240 844 -229Q844 -216 857 -216H861Q856 -213 853 -208Q854 -204 854 -197Q853 -180 845 -170Q836 -160 829 -147Q821 -148 803 -148Q762 -148 707 -137Q709 -86 710 -36L719 -10Q733 7 733 32Q730 64 724 99Q711 108 706 122H702Q657 122 629 91Q624 69 608 57Q592 46 577 34Q605 39 609 39H614Q595 26 551 19Q510 13 493 4H499Q514 4 541 11Q576 20 591 20Q597 20 603 19Q598 10 569 6Q536 1 528 -10Q557 -1 581 -1Q595 -1 608 -4Q624 -22 627 -54Q629 -85 632 -117Q626 -116 573 -103Z"/>
</svg>