<svg xmlns="http://www.w3.org/2000/svg" viewBox="0 -800 1024 1024">
	<path fill="#000000" d="M496 -120Q487 -122 487 -133Q487 -135 489 -139Q499 -137 499 -127Q499 -123 496 -120ZM907 -377V-324Q906 -281 904 -239Q905 -228 905 -217Q910 -156 914 -96Q914 -64 917 -34Q922 19 922 23Q922 47 913 68Q878 79 868 79Q863 79 855 77Q804 60 791 -7Q788 -20 784 -34Q788 -50 796 -69Q804 -97 808 -167Q812 -239 816 -311Q822 -379 827 -454Q824 -495 821 -537Q819 -585 810 -610Q798 -643 769 -652Q777 -662 781 -673V-675Q780 -681 778 -687Q783 -694 800 -710Q818 -728 827 -741Q845 -746 858 -759Q907 -757 925 -739Q932 -728 938 -718Q962 -690 964 -687Q976 -669 976 -650Q976 -639 972 -628Q963 -615 951 -603Q924 -565 914 -503Q907 -459 907 -377ZM597 47H596Q575 45 561 26Q546 7 531 -6Q523 -37 513 -66H515Q518 -66 519 -61Q520 -57 523 -57H525Q524 -67 515 -83Q505 -101 505 -112V-115Q512 -111 518 -98Q524 -85 528 -82Q525 -98 513 -120Q501 -143 498 -156Q511 -144 522 -124Q534 -106 550 -91Q564 -105 572 -124Q580 -142 588 -160Q609 -196 618 -239Q578 -234 545 -198Q522 -199 507 -210Q495 -223 495 -252Q495 -268 499 -276Q506 -291 515 -306Q524 -321 526 -333Q525 -337 519 -345Q514 -352 513 -358V-364Q515 -390 541 -399Q566 -408 584 -418Q584 -425 589 -438Q594 -452 594 -462Q588 -459 580 -448Q571 -436 563 -433Q555 -431 552 -431Q535 -431 521 -445Q506 -460 505 -478Q504 -484 495 -490Q485 -497 483 -502Q481 -508 481 -523Q478 -539 474 -555Q477 -571 489 -585Q492 -588 511 -606Q510 -599 508 -592Q522 -593 533 -599Q545 -606 558 -613Q574 -619 590 -625Q605 -637 621 -647Q629 -649 637 -652Q648 -659 656 -666Q664 -673 677 -674Q681 -673 684 -673Q693 -671 703 -663Q716 -653 725 -650Q729 -651 732 -657Q735 -663 740 -663L744 -662Q743 -659 738 -652Q731 -643 731 -638Q731 -634 734 -630L735 -629Q737 -629 741 -633Q744 -614 761 -584Q784 -543 785 -515Q744 -504 719 -467Q699 -437 684 -385Q674 -380 668 -373H666Q651 -371 643 -360Q597 -358 573 -308H575Q595 -308 626 -327Q656 -346 674 -346H676Q700 -341 724 -336H728Q733 -336 743 -344Q752 -351 758 -351H761Q745 -339 744 -325L746 -324Q750 -326 753 -328H755Q756 -293 776 -270Q773 -252 773 -250Q773 -244 776 -241Q759 -224 737 -220Q699 -172 682 -101Q666 -31 642 32Q632 32 617 40Q605 47 597 47ZM430 -25V-36Q430 -43 428 -44Q402 -56 376 -69Q361 -78 331 -100Q322 -92 316 -75Q315 -71 302 -35Q299 -13 295 9Q289 28 277 39Q264 49 254 60Q226 56 210 29Q193 2 174 -19Q175 -22 182 -22H188Q181 -36 167 -42Q154 -49 141 -57Q162 -54 178 -54Q205 -54 222 -70Q253 -100 289 -181Q241 -164 229 -159Q193 -144 180 -126Q173 -110 165 -94Q153 -82 137 -82Q120 -82 87 -107Q57 -130 43 -132Q42 -136 42 -143Q42 -156 50 -177Q58 -198 58 -211Q58 -220 55 -231Q65 -244 82 -253Q99 -262 113 -271Q145 -292 160 -295Q153 -287 143 -281Q133 -274 131 -261Q133 -258 134 -256Q204 -267 290 -298Q311 -304 323 -311Q321 -325 321 -328Q321 -335 322 -340Q291 -325 276 -304H233Q165 -342 144 -391Q138 -388 132 -386V-390Q132 -396 141 -406Q148 -413 150 -418Q155 -430 160 -456Q167 -493 177 -506V-508Q177 -531 193 -578Q207 -618 207 -637Q207 -646 200 -664Q194 -679 194 -689Q194 -691 196 -699Q188 -717 185 -721L188 -722Q194 -722 197 -719Q211 -728 218 -744Q232 -748 252 -764Q283 -788 307 -788Q312 -787 317 -787Q345 -763 359 -747Q367 -739 375 -728Q386 -714 386 -704Q386 -697 385 -693Q387 -663 378 -643Q372 -629 366 -615Q351 -589 341 -559Q332 -527 323 -495Q380 -518 416 -550H417Q420 -550 420 -548Q420 -545 424 -544Q438 -556 455 -562Q454 -558 448 -553Q442 -548 442 -543Q442 -539 443 -537L445 -536Q446 -536 448 -539Q449 -543 453 -543H455V-541Q454 -536 453 -532L454 -529Q483 -512 483 -468Q483 -431 459 -414Q399 -400 359 -367Q374 -365 383 -356Q391 -346 399 -336Q448 -353 501 -367Q499 -363 491 -358Q479 -350 479 -343L480 -339L483 -338Q490 -340 496 -343V-342Q496 -337 490 -329Q481 -317 481 -310L482 -309Q486 -310 490 -312L493 -311Q469 -291 469 -265Q469 -257 470 -253Q449 -246 422 -239Q395 -231 373 -219Q366 -215 360 -204Q370 -195 386 -193Q402 -190 416 -185Q420 -186 431 -193Q443 -200 454 -201Q449 -195 444 -190Q439 -185 437 -176H438Q447 -176 462 -188Q476 -199 487 -201Q485 -196 469 -183Q454 -171 454 -159Q455 -156 455 -154H456Q463 -155 470 -157Q467 -151 467 -146Q471 -128 474 -110V-107Q473 -92 471 -77Q471 -66 478 -58Q469 -62 462 -69Q452 -62 436 -46Q438 -31 430 -25Z"/>
</svg>