<svg xmlns="http://www.w3.org/2000/svg" viewBox="0 -800 1024 1024">
	<path fill="#000000" d="M966 -356Q960 -345 946 -342Q949 -354 957 -362Q963 -360 966 -356ZM49 -519Q53 -534 63 -534Q66 -534 68 -533Q65 -523 61 -513Q52 -513 49 -519ZM797 -606Q795 -611 787 -611Q770 -609 761 -599Q765 -593 779 -591Q788 -598 797 -606ZM756 -528V-525Q756 -516 764 -508Q766 -512 775 -519Q781 -524 784 -528Q781 -531 778 -531Q774 -530 769 -529L766 -530Q777 -536 781 -543Q776 -559 772 -577Q768 -594 756 -599Q747 -595 744 -594Q686 -571 639 -549Q647 -527 660 -524Q660 -525 663 -527L664 -528Q663 -530 662 -533L663 -536Q682 -544 697 -544Q718 -544 756 -528ZM830 -467H824Q824 -472 828 -476Q824 -486 809 -486Q799 -486 791 -480L790 -482Q796 -488 802 -495Q801 -510 783 -510Q772 -510 766 -504Q773 -494 773 -481Q773 -452 748 -444Q745 -443 737 -443H728Q713 -443 707 -435Q691 -444 682 -444Q670 -444 660 -431Q663 -445 672 -456Q668 -457 664 -459L651 -521Q645 -507 645 -505Q607 -471 592 -453Q565 -421 556 -384Q549 -382 542 -382Q534 -382 531 -377Q528 -379 523 -379Q516 -379 504 -372V-374L505 -378V-380Q487 -380 480 -359Q479 -361 479 -364Q482 -374 487 -380Q481 -382 480 -382Q471 -381 465 -370Q459 -359 454 -351Q456 -374 465 -392Q475 -411 483 -429Q498 -470 510 -497Q504 -509 504 -516V-519Q496 -513 488 -511Q486 -511 482 -513Q493 -523 503 -535Q513 -546 531 -549L532 -553Q532 -556 531 -559Q531 -560 533 -564Q529 -571 521 -571Q510 -568 499 -566Q502 -570 510 -575Q517 -579 519 -582Q515 -597 502 -597Q489 -595 476 -593V-595Q476 -598 482 -602Q487 -606 492 -609Q530 -637 574 -663Q619 -690 660 -715Q679 -730 701 -740Q703 -770 714 -781Q749 -788 783 -791Q802 -791 816 -784Q824 -779 835 -765Q848 -748 858 -746V-744Q857 -738 855 -732V-729Q855 -726 858 -726Q860 -725 861 -723H862Q865 -723 867 -727Q869 -731 872 -731Q870 -725 870 -713Q872 -690 874 -668V-663Q872 -650 863 -640Q853 -630 845 -621Q840 -621 835 -622Q832 -622 830 -621Q832 -615 839 -613Q847 -612 853 -611Q855 -613 857 -617Q860 -621 862 -621H865V-605Q873 -603 874 -603Q877 -603 881 -605Q894 -578 911 -550Q927 -521 928 -487Q928 -474 923 -456Q908 -451 898 -444Q886 -446 868 -455Q842 -467 830 -467ZM745 -2H727Q671 -2 657 16Q660 31 663 46V50Q661 58 647 70Q635 80 633 86Q604 81 574 75Q564 31 547 -22Q540 -61 530 -94Q521 -128 482 -134Q475 -153 467 -168Q460 -184 459 -206Q459 -216 460 -222Q468 -248 486 -270Q496 -286 501 -291Q510 -300 522 -302Q524 -312 525 -323Q535 -309 551 -301Q567 -294 582 -285Q623 -326 658 -371Q652 -386 648 -404Q686 -419 723 -426Q737 -420 761 -396Q759 -393 759 -387Q759 -380 766 -369Q771 -361 772 -357V-356Q771 -348 769 -341Q771 -326 773 -311V-309Q772 -301 763 -289Q755 -279 754 -273Q736 -275 729 -275Q695 -275 665 -257Q657 -252 618 -221Q623 -203 627 -186Q653 -194 678 -203Q676 -199 676 -197Q679 -189 684 -182Q680 -174 680 -163Q680 -145 689 -135Q683 -129 678 -117Q657 -111 650 -107Q634 -98 634 -85Q634 -83 636 -75Q698 -87 737 -87Q755 -87 764 -86Q765 -90 782 -132Q776 -134 774 -134Q761 -131 751 -123Q740 -129 728 -135Q715 -140 708 -150Q707 -167 706 -184Q706 -207 720 -213L724 -214Q726 -214 728 -211Q730 -208 731 -207Q762 -220 813 -222Q808 -240 798 -253Q788 -267 779 -279V-280Q779 -283 782 -284Q785 -284 785 -287V-288Q783 -291 776 -293Q780 -304 792 -310Q803 -316 815 -323Q827 -332 839 -342Q850 -351 865 -352Q873 -352 878 -350Q882 -354 889 -354Q897 -354 911 -346Q923 -339 926 -339L927 -337Q925 -333 923 -329V-327Q930 -328 948 -341Q947 -338 938 -329Q929 -320 929 -313V-312Q932 -307 939 -307Q950 -307 957 -314V-313Q957 -311 951 -308Q943 -304 942 -300Q947 -279 954 -260Q960 -241 961 -219Q961 -208 958 -195Q940 -194 925 -177Q919 -171 902 -144Q875 -103 873 -100Q858 -74 853 -44Q845 -18 841 6Q841 12 842 15Q833 25 829 41Q826 56 821 70Q808 76 797 76Q773 76 759 51Q747 30 745 -2ZM294 -16V-21Q294 -29 295 -32Q285 -42 280 -42L277 -41V-42Q278 -45 284 -47Q290 -49 294 -51Q296 -88 297 -126Q297 -164 306 -194Q289 -185 278 -169Q266 -154 255 -138Q235 -113 232 -108Q220 -90 217 -72L214 -73Q212 -72 209 -71H208Q158 -15 141 25Q139 22 136 18Q132 21 127 21Q120 21 115 15Q110 9 106 4Q91 4 91 10Q90 8 90 5Q93 -4 98 -9Q95 -38 85 -56Q87 -57 89 -59H91Q86 -66 86 -72Q86 -74 88 -78Q71 -91 57 -107H60Q73 -104 85 -101Q80 -113 66 -121Q51 -129 39 -137Q41 -138 46 -138Q55 -138 73 -131Q91 -124 98 -123Q190 -195 255 -269Q212 -264 181 -240Q150 -215 113 -200Q92 -208 71 -217Q50 -226 36 -242V-245Q36 -251 32 -257Q32 -262 31 -268Q34 -300 54 -330Q63 -354 73 -372Q84 -382 94 -392Q105 -408 116 -423Q127 -439 144 -447Q130 -424 130 -414Q130 -404 141 -401Q143 -400 148 -400Q157 -400 189 -408Q259 -430 319 -443Q318 -446 318 -453Q318 -467 332 -497Q310 -495 283 -477Q244 -452 239 -449V-452Q239 -457 237 -465Q228 -465 213 -458Q203 -453 196 -452Q207 -463 221 -470L217 -471H206Q210 -480 215 -486Q211 -493 206 -502Q201 -510 191 -511Q187 -511 184 -510Q186 -513 186 -517Q186 -521 183 -527H178Q160 -525 148 -515Q165 -532 180 -542Q179 -558 169 -558Q161 -558 139 -544Q123 -533 118 -533Q125 -541 140 -553Q158 -567 165 -576Q146 -570 118 -555Q91 -540 79 -536Q117 -571 205 -619Q278 -659 307 -681Q306 -687 304 -694V-696Q306 -698 308 -698Q314 -695 319 -693Q330 -706 360 -706Q382 -706 391 -696Q391 -691 396 -671Q411 -666 412 -666Q411 -661 409 -656Q409 -653 410 -651H413Q422 -651 430 -657L431 -656Q427 -651 422 -646V-640Q422 -606 434 -552Q426 -542 419 -531Q412 -520 401 -512Q359 -505 351 -502L354 -500Q359 -501 363 -502H365Q385 -484 396 -458Q399 -460 403 -460Q411 -457 418 -455Q422 -455 425 -458Q431 -452 435 -450Q436 -450 440 -452Q447 -432 448 -425Q428 -408 428 -386Q428 -370 437 -357Q434 -358 431 -359H430Q427 -354 427 -349Q427 -340 431 -332Q416 -329 401 -325Q385 -321 384 -308V-306Q385 -300 395 -293Q405 -286 407 -282Q414 -285 422 -294Q431 -303 436 -306Q425 -278 425 -273Q425 -261 437 -257Q437 -246 439 -242L440 -241Q444 -241 447 -242H448Q444 -234 444 -223Q446 -199 448 -176Q448 -157 439 -147Q433 -152 417 -153Q397 -155 393 -160Q388 -130 388 -83Q390 -30 391 22Q392 32 392 49Q392 66 388 74Q383 84 369 90Q330 67 324 62Q299 42 299 16Q299 8 300 4Q298 -1 293 -7Q286 -14 285 -19H286Q290 -17 293 -16Z"/>
</svg>