<svg xmlns="http://www.w3.org/2000/svg" viewBox="0 -800 1024 1024">
	<path fill="#000000" d="M970 -492Q964 -480 952 -480L948 -481Q949 -485 956 -489Q961 -492 963 -496Q969 -496 970 -492ZM52 -220V-211Q38 -219 38 -232Q38 -236 39 -238H40Q52 -238 52 -220ZM736 -489L730 -435Q739 -444 749 -468Q764 -489 772 -505Q750 -499 736 -489ZM752 -183Q694 -168 694 -144Q694 -137 696 -133Q713 -135 748 -152Q750 -167 752 -183ZM686 -14H687Q707 -14 718 -28Q728 -41 728 -61Q728 -70 727 -74Q709 -71 697 -60Q682 -47 682 -31Q682 -22 686 -14ZM225 -119V-117Q239 -110 252 -110Q276 -112 293 -129Q309 -147 325 -161Q330 -172 345 -188Q363 -207 367 -221Q371 -224 381 -228Q387 -244 399 -260Q410 -276 411 -294Q411 -298 409 -306L399 -303Q332 -262 231 -127Q225 -121 225 -119ZM822 91H821L819 89V88L818 86Q809 91 795 91Q777 91 761 81Q745 71 742 55Q725 53 707 51Q697 51 689 55Q683 57 674 67Q662 80 653 80H652Q636 79 625 59Q615 40 613 18Q606 -35 603 -81Q593 -101 579 -112Q555 -93 544 -62Q532 -31 517 -2Q511 0 501 0Q483 0 469 -17Q464 -24 449 -49Q450 -63 451 -78Q451 -101 440 -108Q424 -94 397 -42Q374 8 359 26Q350 59 323 70Q310 62 296 52Q293 39 279 13Q267 -10 263 -21Q258 -39 255 -45Q249 -57 237 -61Q239 -64 242 -64Q247 -63 252 -63Q256 -63 257 -64V-66Q256 -85 244 -93Q232 -101 218 -108Q191 -78 182 -64Q164 -36 160 -5H158Q154 -5 144 5Q140 6 133 6Q94 6 88 -37Q88 -41 84 -43Q80 -45 79 -46Q81 -64 81 -71Q81 -99 67 -148Q58 -180 55 -202Q67 -194 75 -163Q82 -133 92 -126Q83 -147 79 -176V-184Q88 -170 96 -154Q103 -138 122 -132Q139 -140 163 -164Q182 -183 193 -190Q235 -240 282 -285Q329 -331 365 -387Q352 -408 335 -424Q306 -404 285 -376Q265 -347 243 -319Q234 -309 223 -297Q212 -286 210 -267H209Q205 -264 200 -262Q177 -267 159 -282Q139 -303 128 -319Q116 -321 112 -321Q104 -321 96 -316Q96 -321 100 -326Q104 -330 104 -333Q102 -337 91 -340Q83 -342 80 -345Q69 -338 55 -333Q63 -346 73 -358H71Q58 -358 45 -346Q34 -336 25 -334Q38 -354 57 -370Q104 -415 126 -434Q154 -458 207 -517Q196 -539 191 -565Q191 -578 200 -586Q199 -593 193 -601Q224 -611 255 -614Q272 -614 283 -607Q297 -616 307 -627Q310 -643 330 -664Q354 -690 354 -714V-720Q361 -719 364 -708Q367 -697 373 -696Q378 -697 378 -703Q377 -710 376 -718V-720Q390 -709 409 -706Q415 -706 421 -709Q427 -697 438 -689Q449 -682 461 -676Q461 -661 474 -632Q487 -601 487 -584Q487 -571 481 -556Q469 -542 440 -528Q405 -511 393 -495Q399 -484 430 -434Q447 -409 458 -365Q466 -343 475 -322Q485 -301 487 -270V-268Q485 -228 469 -191Q452 -154 443 -120Q447 -119 450 -119Q467 -119 489 -136Q499 -143 520 -165Q565 -210 575 -222H572Q566 -222 554 -215Q540 -221 525 -228Q522 -240 507 -255Q490 -272 490 -291V-296Q495 -316 499 -337Q504 -355 507 -358Q518 -370 533 -380Q547 -389 557 -396V-395Q554 -388 551 -382Q555 -374 564 -374Q579 -376 593 -382Q617 -387 640 -393Q643 -399 643 -409Q643 -415 638 -450Q585 -437 567 -412Q543 -421 534 -423Q525 -440 511 -453Q497 -466 484 -480Q483 -484 483 -491Q484 -507 490 -519Q497 -531 501 -541Q504 -553 507 -563Q510 -574 522 -579V-581Q521 -587 520 -594H521Q534 -590 546 -586H552Q596 -592 627 -609Q626 -619 616 -639Q609 -653 607 -660Q604 -672 602 -683Q600 -695 591 -703Q592 -708 599 -712Q599 -715 595 -717Q590 -720 590 -724Q615 -738 632 -760Q649 -782 668 -802Q706 -801 732 -773Q743 -762 769 -718Q753 -684 753 -653Q754 -646 754 -639Q771 -657 826 -675Q845 -661 852 -637Q863 -654 864 -660Q864 -663 860 -665Q855 -668 855 -672Q868 -676 891 -688Q913 -700 923 -702L924 -699Q922 -695 920 -691Q928 -691 942 -701Q956 -711 964 -712Q964 -707 954 -701Q940 -692 940 -684Q940 -682 942 -676L945 -675Q949 -675 952 -676H954Q979 -642 981 -568Q972 -567 958 -557Q946 -549 941 -547Q917 -542 901 -534Q882 -521 847 -480Q838 -470 829 -462Q821 -454 816 -441Q848 -446 892 -478V-475Q888 -466 881 -457H882Q887 -457 903 -467Q922 -479 932 -479Q937 -479 939 -478Q937 -474 919 -463Q906 -454 905 -441Q907 -440 910 -440Q915 -440 924 -445Q933 -450 940 -450H942Q937 -443 929 -436Q921 -429 920 -420V-417L921 -414Q922 -413 926 -413Q934 -415 942 -417Q939 -411 931 -403Q922 -395 920 -390Q923 -376 923 -364Q923 -341 909 -331Q896 -328 883 -325Q864 -320 844 -316Q790 -304 776 -296Q773 -297 769 -299Q730 -291 708 -280Q679 -265 670 -240Q705 -250 736 -264H745Q752 -267 760 -276Q767 -284 769 -285Q789 -298 834 -300Q841 -302 847 -304H849Q852 -303 858 -299Q865 -294 871 -294Q875 -294 881 -297V-295L880 -291V-290Q885 -291 890 -297Q897 -305 904 -306Q900 -299 893 -291Q886 -283 884 -273L886 -270Q891 -274 895 -278L896 -277Q894 -269 894 -264Q894 -244 907 -231Q905 -223 905 -218Q905 -216 908 -195Q900 -185 892 -183Q874 -165 868 -127Q861 -99 852 -67Q843 -35 841 -6Q839 36 837 77Q827 82 822 91Z"/>
</svg>