<svg xmlns="http://www.w3.org/2000/svg" viewBox="0 -800 1024 1024">
	<path fill="#000000" d="M106 -452H105Q104 -454 104 -458Q104 -470 119 -470H123Q120 -464 117 -458Q114 -452 106 -452ZM876 -224H884Q886 -221 886 -215Q884 -201 879 -191Q873 -193 873 -201Q875 -212 876 -224ZM647 -323Q651 -367 651 -368Q651 -383 647 -391Q631 -384 631 -361Q631 -334 647 -323ZM738 -392L750 -443Q758 -466 761 -486V-490Q753 -486 741 -479Q729 -473 724 -460Q723 -457 723 -449Q724 -433 725 -417Q725 -410 724 -407Q722 -400 720 -394V-393Q722 -387 723 -381Q721 -370 719 -360Q719 -358 721 -352Q734 -356 735 -368Q737 -380 738 -392ZM395 18V23Q394 32 387 49Q379 68 379 77Q372 72 366 72Q360 72 357 77Q311 57 300 -2Q294 -10 284 -16Q286 -21 292 -25Q298 -29 299 -32Q298 -38 298 -51Q301 -86 306 -118Q213 -48 167 53H164Q154 53 140 45Q129 39 125 39Q118 39 109 49Q114 32 115 17Q112 10 105 9Q98 7 92 5V2Q94 -3 96 -8L95 -11Q94 -14 92 -14Q88 -12 84 -11H83Q89 -18 89 -29Q89 -42 80 -47Q92 -58 92 -75Q92 -87 84 -111Q78 -129 77 -137Q96 -115 115 -93Q168 -128 213 -172Q258 -216 302 -260Q254 -244 187 -203Q174 -195 159 -185Q144 -176 126 -175H121Q101 -177 88 -195Q75 -213 75 -239V-245Q76 -251 77 -257Q75 -264 67 -275Q55 -291 55 -307V-313Q58 -333 73 -348Q88 -362 105 -377Q112 -386 120 -398Q128 -411 147 -412H151Q136 -404 136 -385Q136 -378 139 -372Q185 -374 250 -397Q298 -414 326 -419Q330 -426 330 -434Q330 -447 324 -463Q292 -460 261 -432Q258 -447 242 -447Q228 -447 216 -437Q217 -447 226 -450Q235 -453 243 -458Q228 -477 216 -477Q213 -477 207 -475Q207 -487 204 -490Q192 -484 179 -479Q181 -493 190 -498Q200 -503 210 -507Q207 -513 200 -513Q183 -509 169 -501Q150 -490 130 -479Q143 -495 160 -507Q176 -520 192 -532Q162 -523 135 -504Q108 -485 81 -469Q123 -518 179 -553Q238 -589 283 -639Q283 -649 278 -654Q307 -665 320 -665L321 -667V-673Q340 -675 358 -677Q381 -677 389 -665Q422 -604 431 -544Q427 -537 427 -525V-508Q427 -498 426 -493Q421 -489 413 -489Q402 -490 391 -492Q383 -492 379 -485Q390 -463 404 -441Q418 -443 426 -452Q426 -449 429 -449Q432 -449 434 -450Q434 -448 430 -445Q426 -442 426 -438Q431 -424 434 -419Q429 -411 423 -404Q428 -394 428 -385Q427 -368 425 -351Q425 -344 426 -341Q404 -330 402 -328Q399 -314 399 -304Q399 -273 426 -260Q434 -268 442 -276Q439 -264 439 -260Q439 -239 455 -239H456Q444 -230 444 -202V-193Q432 -190 429 -175H425Q413 -175 404 -168Q399 -174 391 -178Q387 -170 387 -159Q390 -137 392 -116Q394 -92 394 -80Q398 -48 398 -30Q396 -17 394 -4Q395 7 395 18ZM848 -74V-72Q848 -65 851 -64Q854 -92 860 -116Q866 -92 866 -62Q870 -79 870 -106V-127Q870 -161 876 -178Q878 -143 880 -107Q881 -72 890 -44Q892 -58 892 -67Q892 -88 891 -110Q891 -133 894 -142Q898 -102 899 -53Q901 -4 918 28Q899 74 894 94Q884 100 864 100Q860 100 856 99Q843 99 832 102Q808 90 796 65Q785 41 774 10Q736 -93 697 -197Q686 -185 682 -169Q679 -152 675 -137Q655 -74 635 -11Q624 33 613 77H609Q589 75 569 73Q562 73 558 74Q541 40 503 37V36Q503 31 511 31Q519 31 520 28Q512 17 493 17Q474 16 456 14Q462 10 478 10H503Q503 0 490 0Q482 1 473 2Q457 4 441 6Q433 6 429 4Q440 -4 468 -14Q492 -22 503 -30Q520 -42 534 -61Q547 -81 559 -100Q591 -152 608 -176Q570 -167 545 -145Q523 -152 509 -174Q496 -196 494 -224V-226Q495 -243 502 -258Q509 -273 514 -287Q518 -290 527 -290Q539 -289 550 -289H554Q546 -320 514 -346Q506 -339 496 -339Q472 -339 458 -371Q452 -385 446 -400Q442 -409 442 -427Q442 -455 452 -500Q454 -508 462 -522Q474 -543 474 -559Q474 -565 473 -569Q478 -556 482 -544Q483 -547 483 -553Q481 -569 479 -585Q479 -588 481 -596Q484 -582 486 -567Q489 -553 497 -545Q498 -546 498 -550Q496 -561 493 -573Q497 -569 499 -556Q500 -549 503 -544Q506 -538 518 -532Q527 -527 530 -524Q540 -515 550 -494Q558 -477 564 -470Q592 -483 644 -521Q641 -560 639 -600Q636 -639 620 -665Q621 -667 628 -682Q623 -687 616 -687Q602 -687 592 -677Q616 -745 666 -791Q682 -785 697 -779Q715 -737 744 -728Q744 -718 754 -707Q762 -698 764 -692Q734 -663 734 -587V-572Q755 -581 770 -598Q784 -614 797 -632Q800 -632 801 -629Q803 -625 806 -625H807Q819 -627 832 -643Q844 -657 853 -660Q838 -642 838 -625Q838 -618 842 -613H843Q845 -613 850 -619Q857 -627 862 -628Q853 -617 853 -609Q853 -599 864 -588Q869 -583 885 -572Q888 -574 891 -576H893L895 -575Q892 -571 888 -567Q887 -562 887 -552Q887 -537 894 -530Q888 -515 888 -500Q888 -488 893 -473Q873 -466 866 -450Q828 -444 823 -385Q841 -396 865 -400H869Q879 -396 888 -392H889Q897 -392 913 -400Q927 -407 935 -407Q940 -407 946 -404Q936 -399 925 -394Q914 -389 913 -378Q913 -374 916 -368L919 -367Q925 -368 930 -369H933L925 -355Q929 -344 941 -343H943Q920 -327 920 -292Q920 -287 922 -275Q909 -271 909 -261V-259Q789 -249 746 -227Q780 -161 790 -144Q815 -100 842 -68Q844 -69 847 -80Q848 -79 848 -74Z"/>
</svg>