<svg xmlns="http://www.w3.org/2000/svg" viewBox="0 -800 1024 1024">
	<path fill="#000000" d="M926 -267H928Q930 -263 930 -260Q928 -250 925 -241Q917 -245 917 -257Q917 -267 926 -267ZM182 -388Q180 -387 176 -387Q162 -387 158 -396Q159 -406 164 -406Q168 -405 173 -398Q178 -392 182 -388ZM63 -231V-222Q63 -211 60 -208Q51 -208 51 -221Q51 -234 58 -234Q60 -234 63 -231ZM586 -195V-205Q549 -186 506 -138H508Q514 -137 519 -136H521Q528 -152 540 -164Q555 -178 571 -178Q577 -178 584 -175Q586 -180 586 -195ZM574 -478Q513 -471 490 -462Q449 -446 444 -411Q474 -431 508 -446Q541 -461 574 -478ZM646 -73H634Q571 -73 560 -34H564Q580 -34 604 -28Q608 -34 627 -49Q642 -61 646 -73ZM659 -197V-176Q659 -163 658 -157Q705 -157 745 -172Q739 -175 707 -200Q683 -218 663 -223Q659 -212 659 -197ZM435 -331H443Q457 -331 490 -338Q528 -346 550 -346Q549 -356 544 -361L542 -362Q537 -359 531 -357L530 -358Q533 -362 536 -366Q533 -365 530 -365L528 -367Q530 -374 531 -381Q529 -385 518 -388Q506 -391 504 -397Q489 -393 486 -388V-391Q487 -398 492 -401Q497 -403 500 -408H495Q482 -405 468 -402H464Q478 -408 491 -415L489 -417V-419L488 -421H486Q447 -417 421 -390Q409 -377 381 -333Q391 -336 411 -348Q430 -359 440 -362Q430 -355 430 -342Q430 -335 435 -331ZM930 -187H932Q933 -162 943 -146Q952 -130 962 -114Q956 -88 953 -61Q949 -34 934 -16Q931 -15 927 -15Q913 -17 899 -20Q894 -20 892 -19Q832 -91 798 -123Q793 -120 793 -116Q793 -115 795 -109Q780 -94 765 -94H762Q759 -91 756 -88Q764 -56 764 -51Q764 -40 757 -33Q751 -35 739 -35Q708 -35 688 -9Q695 -4 718 -1Q736 2 744 5Q750 3 751 -3Q756 0 756 8Q758 5 759 -6Q760 -20 766 -22Q767 0 774 14Q777 6 778 -3Q789 37 789 50Q789 66 781 78Q776 85 757 96Q741 105 734 114Q707 99 681 83Q656 67 626 57Q593 76 571 114Q559 110 553 110Q547 110 543 114Q543 113 521 95V89Q504 69 475 60Q446 51 417 41Q433 41 464 48Q497 56 513 56Q501 50 488 46Q491 45 499 45H512Q529 45 536 36Q532 34 524 34Q514 35 504 35H500Q480 33 471 14Q468 7 460 -28Q462 -32 467 -33Q471 -34 472 -36Q457 -38 447 -52Q438 -66 429 -79Q359 -14 334 15Q319 21 303 26Q295 9 288 1Q279 -11 265 -16V-18Q265 -22 269 -28Q265 -37 265 -48Q265 -77 287 -97Q286 -103 280 -112Q272 -124 272 -133Q281 -130 290 -116Q301 -100 312 -97Q312 -102 304 -110Q295 -120 294 -127Q308 -114 325 -111H330Q352 -120 373 -136Q445 -176 495 -220Q465 -216 427 -201Q413 -195 398 -189H393Q374 -189 364 -217Q351 -255 344 -261Q271 -160 199 -7Q192 6 184 20Q176 33 175 52Q175 60 176 65Q150 67 138 81Q121 74 103 72Q93 72 87 77Q89 68 93 62Q80 41 70 22Q60 3 59 -27Q60 -33 60 -40Q61 -47 69 -63Q76 -77 78 -88Q79 -93 79 -102Q79 -120 71 -154Q64 -183 63 -198Q78 -145 96 -99Q108 -107 129 -129Q145 -146 155 -154Q146 -162 138 -171Q130 -180 116 -184Q115 -189 115 -201Q115 -260 149 -264V-262Q148 -259 147 -256V-255Q161 -249 175 -249Q207 -249 254 -277Q245 -289 217 -289H211L209 -290Q212 -295 214 -300Q209 -304 204 -309Q199 -314 198 -322Q188 -324 162 -330Q165 -333 180 -334Q192 -335 197 -339Q195 -348 189 -351Q194 -357 199 -363Q191 -368 187 -376L188 -379H190Q194 -378 198 -377L201 -378Q210 -384 219 -384Q237 -381 254 -379Q280 -359 301 -337Q331 -389 355 -406Q346 -409 339 -409Q327 -409 310 -397Q293 -385 280 -385H279Q255 -386 238 -403Q227 -415 214 -442Q208 -453 202 -463Q196 -472 196 -487Q196 -490 198 -502Q200 -510 208 -525Q220 -547 221 -557V-568Q226 -576 237 -586Q249 -595 257 -603Q282 -628 301 -629Q280 -608 280 -598Q280 -590 285 -585Q346 -585 386 -603Q387 -603 396 -600Q407 -608 435 -613Q457 -617 463 -619Q455 -672 449 -688Q435 -722 404 -727Q418 -737 426 -738Q427 -740 427 -747Q438 -751 457 -769Q481 -792 497 -792Q533 -791 559 -757Q582 -727 589 -687Q582 -677 572 -666Q562 -655 561 -642Q561 -638 562 -636Q624 -655 703 -669Q707 -677 723 -677H726Q731 -677 735 -678Q744 -679 758 -688Q772 -696 780 -697Q778 -693 775 -690Q780 -684 796 -678Q806 -683 818 -686L821 -685V-683Q821 -680 818 -677Q813 -672 813 -667Q813 -663 814 -661L817 -660Q823 -661 829 -663H830Q824 -658 824 -650Q824 -637 834 -634V-627Q835 -611 844 -604Q854 -597 863 -589Q853 -576 842 -564Q847 -558 847 -548V-541Q847 -537 848 -534Q781 -524 719 -510Q722 -505 724 -501H726Q737 -503 747 -505Q740 -496 732 -487Q733 -484 737 -483Q740 -483 741 -483Q739 -475 739 -470Q741 -452 743 -434Q743 -417 731 -408H726Q706 -407 694 -400Q681 -394 667 -387Q672 -372 682 -367Q725 -373 768 -379Q810 -386 840 -399V-396Q840 -390 845 -385Q851 -382 861 -382H873Q889 -382 892 -376H886Q869 -376 863 -369Q863 -363 869 -363Q874 -363 878 -364Q867 -359 866 -348Q871 -341 876 -334Q873 -331 873 -324V-310Q863 -303 858 -282Q830 -281 734 -264Q762 -247 800 -228Q856 -200 873 -189Q880 -200 883 -230Q886 -256 889 -264Q891 -252 891 -246Q890 -227 889 -208Q889 -192 894 -183Q897 -214 899 -246Q900 -278 907 -306Q908 -244 913 -189Q915 -215 919 -224Q923 -210 923 -174Q927 -175 927 -181Q927 -187 930 -187Z"/>
</svg>