<svg xmlns="http://www.w3.org/2000/svg" viewBox="0 -800 1024 1024">
	<path fill="#000000" d="M508 12H513Q508 23 498 28Q497 25 497 20Q497 12 508 12ZM918 -725V-724Q918 -715 911 -713Q904 -710 897 -708Q899 -726 912 -726Q916 -726 918 -725ZM644 52V54Q632 50 619 45V37H624Q644 37 644 52ZM816 102L779 128Q773 124 760 121Q744 117 739 113Q731 102 724 87Q712 73 694 68Q676 64 656 55Q660 51 668 51Q688 55 708 58H711Q651 33 590 10H597Q616 10 649 21Q683 33 704 34Q703 21 674 16Q653 12 649 6H652Q672 8 692 10Q706 10 714 1Q724 -10 732 -59Q735 -98 738 -137Q743 -152 743 -155Q743 -158 742 -160Q673 -151 629 -128Q633 -119 644 -117Q654 -114 662 -110Q664 -99 677 -84Q686 -74 689 -68Q685 -58 685 -40Q685 -21 678 -11H675Q660 -11 653 1Q646 1 632 -5Q620 -11 613 -11Q608 -10 602 -9Q597 -11 591 -17Q585 -23 582 -24Q579 -24 576 -25Q563 -25 543 -9Q526 4 517 7Q521 -3 538 -15Q552 -25 557 -33Q554 -38 550 -38Q539 -33 529 -27Q532 -36 547 -48Q557 -56 561 -62Q559 -84 552 -87Q544 -84 534 -78Q524 -73 514 -72Q500 -72 493 -90Q478 -97 463 -106Q448 -114 447 -133Q447 -136 449 -144Q455 -152 461 -160Q465 -167 467 -183Q470 -201 475 -207Q482 -215 501 -225Q516 -233 522 -240Q524 -239 524 -235V-233Q524 -227 527 -225Q592 -230 639 -241Q686 -252 739 -267V-270Q737 -284 732 -297Q711 -294 682 -288Q653 -282 625 -270Q608 -261 595 -251Q582 -241 567 -240Q565 -240 557 -242Q548 -246 535 -257Q523 -262 510 -268Q497 -274 495 -292V-294Q495 -297 501 -311Q490 -330 488 -350Q488 -360 492 -369Q456 -365 399 -333Q397 -317 395 -301Q395 -294 396 -290Q431 -308 474 -324V-323Q474 -319 464 -313Q457 -309 455 -306Q443 -292 443 -282Q443 -277 444 -275Q449 -276 455 -282Q462 -290 470 -290H474Q470 -284 463 -276Q455 -268 454 -261Q454 -255 465 -252Q450 -227 446 -191Q411 -178 391 -160Q389 -138 389 -128Q389 -73 410 -17Q404 4 401 21Q397 37 384 49Q375 55 366 61Q356 66 355 81Q352 80 349 73Q347 68 345 66Q326 62 314 45Q302 28 289 15Q291 8 293 1Q285 -24 245 -39H250Q283 -39 296 -53Q299 -85 305 -114Q203 -74 175 -24Q171 -16 167 -6Q162 4 153 7Q150 8 143 8Q126 8 98 -15Q74 -17 60 -30Q45 -44 45 -66Q45 -74 46 -78Q52 -98 63 -114Q60 -121 60 -129Q62 -151 81 -166Q99 -181 113 -191V-190Q110 -183 107 -176V-174Q113 -172 116 -172Q140 -177 161 -189Q282 -234 325 -254V-261Q327 -278 328 -296V-300Q305 -294 237 -260Q216 -248 195 -233Q175 -218 153 -213H150Q128 -213 107 -245Q98 -257 91 -267Q83 -276 80 -295Q73 -321 63 -345Q90 -377 111 -425Q121 -446 131 -470Q141 -494 142 -515Q142 -547 104 -557Q109 -559 114 -561Q113 -569 100 -573Q89 -576 87 -582Q91 -581 98 -581Q115 -581 131 -593Q133 -595 157 -617Q168 -629 181 -644Q194 -658 212 -659H215Q227 -658 236 -648Q245 -638 256 -624Q267 -615 278 -606Q288 -592 291 -577Q294 -562 299 -546Q279 -500 268 -459Q299 -469 334 -483Q331 -521 329 -559Q327 -597 302 -612Q309 -631 319 -642Q329 -653 344 -666Q368 -690 386 -690Q395 -690 406 -686Q423 -679 437 -643Q449 -621 454 -588Q454 -577 450 -568Q446 -560 440 -552Q434 -545 433 -531V-525Q439 -526 454 -535Q475 -547 483 -548Q482 -544 474 -538Q466 -532 466 -527Q466 -523 467 -521H468Q470 -521 475 -525Q481 -530 486 -530Q488 -530 492 -528Q484 -520 484 -510Q484 -504 487 -501L488 -500Q491 -503 496 -506L499 -505Q499 -499 513 -420Q506 -408 506 -403Q507 -400 507 -398Q512 -398 523 -406Q532 -413 536 -414Q543 -404 563 -404Q589 -404 640 -422Q653 -423 661 -430Q656 -456 655 -480Q624 -474 610 -455Q597 -450 589 -450Q568 -451 555 -465Q542 -479 530 -492Q524 -545 495 -565Q503 -563 511 -561V-563Q511 -572 495 -581Q482 -588 480 -594H481Q494 -591 507 -588Q513 -588 517 -594Q514 -597 500 -601Q486 -605 480 -611Q487 -610 502 -610Q538 -610 549 -627Q583 -629 647 -648V-654Q647 -668 636 -692Q625 -716 625 -728Q625 -734 626 -737Q633 -746 640 -756Q644 -767 647 -778Q662 -800 695 -810Q699 -814 702 -818H708Q741 -818 766 -807Q775 -788 790 -768Q804 -747 806 -723V-720Q806 -713 800 -702Q794 -691 794 -681Q814 -688 834 -695V-693Q833 -688 831 -684Q841 -684 858 -693Q873 -701 883 -701Q887 -701 890 -700Q878 -693 865 -686Q852 -680 847 -666L851 -665Q856 -665 865 -671Q875 -678 880 -678Q866 -662 866 -652Q866 -650 868 -642L870 -641Q874 -644 877 -648Q879 -648 881 -646V-644Q879 -633 876 -622Q876 -616 880 -612Q879 -610 871 -571Q866 -546 852 -542Q830 -537 805 -533Q780 -529 761 -518Q756 -493 753 -467Q753 -456 755 -452Q782 -463 817 -468Q843 -483 867 -483Q877 -488 882 -497Q888 -506 894 -513V-509Q894 -496 901 -489Q907 -483 918 -483Q931 -483 942 -491V-490Q939 -479 936 -469Q936 -462 945 -462H949Q946 -453 946 -446Q946 -435 954 -417Q962 -399 963 -389Q936 -371 929 -347Q923 -345 895 -340Q854 -333 838 -326Q844 -308 855 -297Q893 -312 902 -315V-312Q902 -301 909 -292Q926 -293 939 -297Q933 -287 933 -279Q933 -272 940 -272H942Q938 -267 938 -260Q942 -244 945 -229Q944 -223 939 -216Q933 -208 933 -203V-201L929 -202Q924 -202 924 -197V-194Q922 -195 917 -195H910Q904 -195 902 -197Q891 -190 862 -187Q829 -184 820 -177Q822 -158 823 -139Q823 -127 817 -117Q820 -112 820 -107Q820 -103 819 -101V-99Q819 -95 823 -93Q822 -87 822 -74Q822 -47 834 9Q842 35 846 58Q844 69 835 79Q831 94 816 102Z"/>
</svg>