<svg xmlns="http://www.w3.org/2000/svg" viewBox="0 -800 1024 1024">
	<path fill="#000000" d="M360 -201Q363 -221 365 -241Q365 -251 361 -256Q329 -230 329 -209Q329 -198 336 -190Q337 -198 344 -199Q353 -201 360 -201ZM737 -446Q738 -455 752 -457Q768 -460 772 -463Q756 -472 740 -488L726 -486Q698 -482 656 -469Q663 -440 667 -435Q688 -443 700 -443Q710 -443 714 -438ZM629 61Q626 70 613 84Q601 96 598 108L594 107Q587 107 587 117V120L584 119Q579 119 575 126Q550 115 533 93L531 92Q527 93 522 94H520Q520 88 524 87Q528 85 531 82Q522 69 522 43Q524 10 526 -24V-32Q529 -19 531 -7Q534 -11 534 -18Q533 -31 531 -44Q531 -50 530 -57Q531 -76 532 -95Q532 -101 531 -108Q530 -120 528 -133Q528 -141 533 -144Q537 -89 546 -35Q548 -56 549 -78Q553 -62 555 -43Q556 -24 567 -15Q590 -27 612 -39Q650 -66 687 -93L706 -104Q713 -111 720 -119Q725 -120 729 -121Q775 -140 775 -177V-183Q777 -181 779 -171Q781 -160 785 -158Q798 -157 807 -141Q815 -127 815 -110Q815 -97 810 -89Q796 -74 781 -68Q760 -57 726 -25Q688 11 677 18ZM741 -159Q741 -151 737 -142Q711 -126 681 -117Q652 -109 636 -80Q633 -84 626 -84Q621 -83 615 -83Q611 -83 610 -84Q599 -87 588 -110Q581 -126 575 -131H583Q581 -140 565 -142Q548 -145 546 -153Q547 -155 554 -155H567Q603 -156 632 -173Q661 -189 688 -206Q635 -202 616 -179Q584 -183 569 -225Q562 -223 554 -221Q562 -229 571 -236Q566 -243 562 -251Q616 -266 678 -317L681 -318Q694 -313 706 -308H707Q722 -282 722 -251Q722 -225 706 -215Q708 -210 716 -207Q723 -205 725 -202Q729 -192 732 -183Q741 -165 741 -159ZM868 -662H872Q868 -655 866 -652Q862 -646 857 -645V-648Q857 -662 868 -662ZM440 -252Q440 -240 439 -229Q439 -219 442 -216Q480 -245 498 -274Q483 -276 477 -293Q470 -312 462 -326Q460 -327 468 -352Q475 -377 473 -381Q479 -382 487 -393Q497 -406 506 -407Q539 -407 575 -412Q591 -416 595 -420Q599 -424 603 -441Q586 -448 587 -450Q586 -451 582 -445H581Q571 -442 563 -437H561Q532 -437 515 -456Q501 -489 497 -520Q497 -538 502 -546Q498 -555 493 -564Q510 -571 513 -585Q516 -599 525 -610Q534 -622 543 -633Q552 -644 564 -648L587 -679Q586 -681 586 -684Q590 -692 593 -701Q590 -708 590 -714Q593 -730 595 -746Q595 -755 592 -759Q607 -767 631 -774Q660 -782 672 -791L674 -792Q688 -788 698 -776Q703 -769 716 -734Q730 -698 730 -686Q730 -677 725 -667V-665Q726 -659 727 -654Q717 -642 717 -633V-629Q715 -625 709 -620Q701 -613 699 -607Q691 -609 684 -609Q655 -609 644 -588Q625 -586 607 -560Q668 -572 725 -581Q724 -585 724 -591Q724 -602 729 -616Q734 -630 734 -638V-644L736 -645Q738 -645 740 -642Q743 -638 746 -638H747Q759 -643 770 -645H775Q777 -646 778 -655Q779 -665 785 -665H786Q785 -662 785 -656Q785 -644 792 -636Q798 -629 804 -623Q813 -626 820 -630Q814 -625 814 -616Q814 -611 817 -607Q825 -612 835 -624Q845 -635 848 -638V-637Q845 -628 836 -618Q832 -607 825 -585Q826 -580 832 -580Q838 -580 841 -584L842 -582Q841 -577 839 -572Q848 -563 853 -563H858Q850 -556 850 -540Q850 -533 857 -498L854 -497Q849 -499 844 -501Q837 -494 831 -483Q834 -476 836 -469Q833 -473 827 -473Q816 -471 804 -464Q804 -446 819 -438Q831 -444 837 -444H841Q840 -440 832 -436Q826 -432 823 -428Q825 -419 826 -410L830 -409H839Q829 -388 819 -365Q810 -342 782 -340H777Q803 -302 840 -271Q845 -265 851 -259Q856 -253 864 -252H867Q870 -256 871 -269Q873 -284 877 -287Q875 -281 875 -279Q875 -270 882 -263Q885 -269 885 -286Q885 -299 884 -313Q884 -330 888 -338Q893 -329 893 -304V-275Q893 -254 896 -246Q899 -256 899 -278Q899 -309 905 -317Q908 -299 908 -269Q909 -229 912 -215Q916 -219 917 -234Q918 -248 921 -252Q923 -238 923 -236Q923 -230 922 -225Q922 -218 925 -209Q928 -200 937 -187Q948 -172 949 -164V-158Q947 -133 945 -108Q946 -102 946 -96Q938 -92 938 -80H936Q926 -77 919 -73H917Q907 -73 891 -83Q880 -90 874 -90H872Q869 -100 855 -117Q837 -140 836 -158L811 -186Q804 -188 800 -194Q795 -200 791 -206Q744 -265 697 -325H694Q667 -321 640 -309Q625 -305 610 -302Q596 -299 586 -290Q586 -287 585 -284Q586 -281 586 -278Q572 -275 569 -259Q566 -257 563 -255H561Q554 -245 544 -236Q537 -221 530 -206Q512 -182 493 -158Q484 -137 474 -117Q470 -109 464 -97Q457 -86 451 -84H449Q443 -84 436 -95Q430 -105 426 -105Q423 -105 421 -104V-107Q421 -111 425 -119Q419 -130 414 -144Q418 -150 418 -170Q418 -185 420 -193Q425 -207 430 -221Q432 -233 433 -245Q419 -228 409 -185Q394 -121 393 -118Q372 -116 355 -93Q332 -61 325 -56H324Q309 -60 293 -65Q286 -65 281 -60Q278 -74 276 -78Q272 -87 265 -89H264Q258 -87 251 -85Q248 -85 245 -89V-90Q245 -93 248 -94Q252 -95 252 -97Q252 -102 246 -107Q241 -111 240 -115Q243 -119 245 -124L224 -143Q215 -150 197 -181Q183 -169 174 -152Q165 -134 156 -115Q145 -96 133 -77Q121 -57 120 -28V-23Q117 -19 114 -17Q110 -14 110 -8L111 -4Q105 -9 101 -18Q96 -28 90 -32Q83 -37 67 -40Q45 -44 40 -53Q32 -69 32 -97V-110Q32 -145 44 -193Q49 -215 65 -265Q66 -262 66 -254Q64 -230 62 -206Q62 -188 71 -182Q74 -186 75 -203Q76 -222 80 -226Q78 -218 78 -215Q78 -201 87 -195Q119 -223 145 -258Q171 -293 198 -327Q189 -323 180 -320Q162 -335 144 -348Q125 -361 124 -387V-394Q127 -404 129 -415Q127 -440 117 -466Q114 -474 103 -484Q92 -494 90 -502Q95 -501 103 -494Q111 -487 117 -487Q120 -487 122 -488Q118 -494 107 -504Q88 -521 84 -531Q91 -529 101 -521Q116 -510 127 -509Q126 -516 116 -522Q106 -528 106 -537L109 -538Q119 -535 127 -529Q129 -551 145 -551Q159 -549 173 -547Q182 -548 220 -565Q259 -583 270 -585L297 -594Q297 -606 318 -615Q327 -620 347 -635Q360 -643 375 -650Q389 -656 397 -666Q400 -660 402 -652Q404 -643 409 -641Q411 -641 415 -646Q422 -654 427 -654Q431 -654 433 -652Q425 -650 425 -636Q425 -625 431 -622H432Q436 -624 440 -626Q438 -621 438 -613Q438 -604 445 -589Q452 -574 452 -563Q452 -557 451 -553V-552Q451 -549 448 -547Q446 -545 445 -543Q447 -538 447 -529Q446 -516 440 -505Q434 -495 429 -485Q417 -483 397 -470Q386 -463 376 -459Q380 -445 380 -440Q379 -419 360 -407Q342 -395 325 -382Q318 -376 301 -359Q292 -350 285 -342Q278 -333 277 -317Q257 -303 252 -283Q253 -280 254 -277V-276H258Q265 -277 271 -283Q277 -290 281 -295Q313 -329 353 -358Q354 -375 367 -384Q373 -388 395 -396Q401 -404 405 -416V-413Q405 -397 422 -394Q427 -396 433 -403Q439 -411 443 -412Q436 -402 434 -386V-384L436 -381Q439 -383 442 -386L443 -385V-383Q442 -375 441 -367V-365Q446 -358 451 -352Q455 -338 459 -324Q463 -302 463 -298Q463 -286 451 -259Q443 -255 440 -252Z"/>
</svg>