<svg xmlns="http://www.w3.org/2000/svg" viewBox="0 -800 1024 1024">
	<path fill="#000000" d="M554 6H551Q503 13 493 16Q473 21 467 23Q454 28 453 36H457Q505 34 542 25Q549 11 554 6ZM585 -61Q535 -60 450 -31Q449 -26 447 -22Q447 -19 449 -17Q504 -27 558 -37Q564 -29 572 -27Q582 -47 585 -61ZM494 -180Q493 -192 486 -200Q449 -195 420 -198Q402 -210 400 -236Q440 -235 480 -235Q474 -252 468 -269Q396 -263 380 -246Q391 -199 425 -168Q474 -178 494 -180ZM690 -308Q607 -305 553 -288Q558 -273 558 -257Q600 -264 643 -297Q640 -289 645 -283Q658 -286 661 -283Q659 -280 664 -270Q668 -257 659 -252Q641 -245 639 -244Q598 -221 561 -216Q561 -196 562 -194Q585 -192 607 -191Q641 -217 658 -240Q678 -267 690 -308ZM398 -514H400Q394 -539 388 -564Q375 -560 362 -557Q360 -551 360 -547Q358 -529 368 -506Q384 -512 398 -514ZM508 -583Q510 -598 502 -607Q492 -601 464 -595Q472 -559 479 -523Q487 -525 494 -527V-531Q501 -557 508 -583ZM681 -654L676 -655Q654 -657 640 -651Q625 -646 609 -639Q587 -635 582 -630Q590 -626 592 -626Q605 -628 613 -631L615 -629Q606 -621 602 -608Q601 -605 603 -598Q606 -599 610 -599L611 -596Q608 -594 606 -587Q606 -581 607 -578Q572 -577 555 -537Q565 -537 570 -536Q582 -534 588 -531V-533Q589 -535 590 -537V-539Q599 -542 619 -565Q635 -582 655 -615Q671 -642 681 -654ZM877 -420Q877 -408 861 -408Q861 -419 872 -421Q875 -421 877 -420ZM899 -722V-721Q898 -714 894 -714Q886 -713 879 -712Q889 -724 894 -723Q897 -723 899 -722ZM651 -491Q674 -488 696 -486Q698 -475 722 -468Q747 -461 749 -449Q749 -436 740 -427Q734 -421 732 -415Q692 -412 662 -377Q693 -380 700 -383Q716 -391 732 -394Q738 -395 749 -395Q780 -395 794 -380Q805 -384 815 -389L817 -386Q814 -381 811 -377L812 -375Q821 -377 834 -387Q848 -397 855 -400Q854 -396 844 -386Q833 -376 833 -370Q833 -365 840 -361Q848 -365 858 -369Q851 -360 851 -353Q851 -338 872 -337L875 -336Q873 -334 871 -332V-331Q881 -322 881 -298Q882 -275 883 -260H881Q870 -258 863 -252H859Q843 -251 833 -246Q822 -241 809 -238L780 -219Q757 -198 733 -177Q709 -156 694 -129Q699 -124 721 -114Q730 -118 742 -120H744Q740 -115 738 -109Q745 -110 755 -118Q766 -127 773 -129Q771 -125 763 -116Q750 -103 750 -95Q750 -89 754 -84H766Q768 -65 769 -47V-42Q751 -36 735 -33Q730 -31 722 -23Q713 -14 705 -12L687 16Q676 31 659 71Q645 102 637 116Q583 114 567 96Q558 98 555 100L553 97Q554 93 555 89L552 88H547V80Q500 80 474 90Q465 95 457 101Q448 107 438 108H434Q420 108 404 97Q386 84 369 84V83Q372 80 375 77Q358 -5 304 -17Q289 -30 289 -46V-52Q291 -58 293 -64Q292 -72 281 -83Q269 -95 269 -101L270 -105Q276 -102 283 -95Q292 -86 299 -84Q296 -90 292 -96V-97Q303 -95 313 -89Q320 -93 326 -95H339Q346 -95 349 -97Q357 -94 366 -94Q372 -94 375 -95Q383 -91 390 -88Q413 -91 436 -95Q443 -95 449 -92L489 -95Q512 -106 548 -111Q584 -116 622 -122Q606 -131 606 -141Q583 -141 492 -129Q455 -124 448 -122Q428 -117 422 -106Q397 -103 372 -101H361Q356 -103 351 -106Q310 -112 286 -129Q283 -140 269 -150Q255 -159 252 -168Q244 -180 235 -193Q205 -201 179 -206Q151 -211 149 -238Q149 -246 152 -255Q159 -279 193 -325Q191 -332 188 -339Q188 -343 191 -345Q196 -342 200 -337Q204 -332 215 -331L217 -333Q214 -336 211 -340L213 -342Q227 -337 241 -334Q244 -334 250 -341Q274 -345 284 -345Q332 -345 351 -321Q383 -325 399 -328Q385 -330 381 -332Q365 -343 349 -354Q339 -353 333 -359Q329 -362 325 -373Q324 -381 323 -389Q322 -392 317 -395Q311 -399 311 -404Q313 -405 325 -405Q331 -418 361 -424Q389 -430 397 -440Q402 -439 402 -431V-425Q409 -419 425 -420Q442 -420 453 -421V-420Q455 -399 473 -400Q491 -400 507 -402Q502 -398 481 -393Q457 -388 457 -380Q457 -375 459 -373Q461 -370 470 -369Q481 -368 485 -364Q485 -361 464 -345Q461 -343 457 -340Q511 -352 544 -356Q543 -368 518 -368Q508 -368 500 -366Q502 -372 522 -377Q541 -382 547 -384Q564 -388 575 -400Q579 -404 588 -404Q597 -404 597 -412Q597 -417 592 -420Q577 -415 570 -409Q568 -413 569 -421Q570 -431 564 -435Q564 -438 568 -439Q571 -440 573 -441Q572 -447 565 -449Q558 -451 553 -454Q581 -461 615 -477Q586 -472 553 -470Q541 -481 519 -484Q488 -487 436 -473Q427 -471 418 -470Q409 -468 407 -459Q367 -427 366 -432Q348 -433 321 -415Q297 -422 280 -443Q276 -449 254 -484Q245 -491 239 -504L234 -512Q189 -542 175 -557Q144 -590 148 -628Q151 -641 151 -642Q158 -663 181 -671Q180 -688 180 -725Q183 -722 185 -709Q188 -695 193 -691Q194 -713 195 -736V-741Q198 -737 200 -724Q202 -707 209 -704L210 -708Q210 -713 210 -719L211 -722H215Q223 -719 231 -712Q236 -712 246 -718Q253 -722 256 -722H259Q269 -719 278 -716Q288 -716 298 -716H301Q311 -712 321 -696Q327 -681 335 -673Q342 -673 364 -684Q380 -687 392 -692Q395 -692 395 -689Q401 -699 411 -698Q422 -698 431 -699Q448 -705 465 -711Q513 -732 571 -739L631 -753Q634 -766 646 -766Q657 -767 669 -768Q688 -772 706 -778Q723 -783 749 -781L788 -773Q800 -768 812 -751Q823 -736 831 -732H833Q839 -734 842 -737L844 -735V-734Q841 -726 838 -719Q837 -715 843 -709H845Q851 -712 867 -712Q872 -712 874 -710Q871 -707 868 -705Q864 -704 863 -698Q878 -697 911 -706Q904 -698 891 -693Q877 -688 873 -671L872 -666Q878 -666 881 -669Q883 -673 889 -673H893Q882 -663 878 -640Q876 -623 886 -615L885 -608Q883 -595 873 -579Q866 -569 864 -562Q842 -558 818 -557Q823 -569 834 -572Q845 -575 853 -581Q850 -590 843 -590Q828 -590 816 -585Q800 -583 783 -581Q760 -573 741 -557Q701 -522 651 -491Z"/>
</svg>