<svg xmlns="http://www.w3.org/2000/svg" viewBox="0 -800 1024 1024">
	<path fill="#000000" d="M849 -101H851Q852 -101 858 -98Q858 -91 852 -83Q847 -83 847 -88Q848 -94 849 -101ZM758 -442Q764 -460 782 -461Q783 -471 816 -471H820Q825 -470 829 -469H831Q837 -473 843 -477L845 -475Q843 -470 841 -465Q859 -456 873 -443Q877 -445 881 -448Q888 -454 894 -455Q894 -451 888 -446Q884 -442 884 -439L885 -436Q890 -436 898 -443Q908 -451 916 -452Q915 -447 910 -443Q903 -437 903 -431V-428Q904 -425 908 -424Q911 -424 912 -422Q915 -410 915 -409Q917 -406 925 -406Q924 -404 924 -400Q929 -390 934 -381V-378Q931 -361 928 -344H923Q905 -343 896 -333Q888 -324 876 -317V-319L861 -289Q843 -253 843 -232Q843 -225 847 -211Q843 -206 843 -183Q826 -172 822 -162H819Q813 -162 804 -157Q795 -152 790 -152H784Q781 -149 777 -147H775L773 -150V-158Q768 -162 756 -168V-169Q756 -178 749 -185Q744 -189 735 -194Q737 -197 739 -199Q738 -203 733 -208Q739 -213 739 -221Q739 -237 720 -245Q712 -239 704 -219Q700 -209 695 -198Q689 -186 680 -183Q679 -182 675 -182Q658 -182 644 -196Q641 -205 637 -214Q632 -221 627 -229H635Q632 -244 620 -263Q610 -280 607 -289Q612 -285 621 -272Q630 -259 638 -253Q640 -256 641 -259Q648 -258 650 -254Q656 -257 665 -268Q673 -278 680 -281V-283Q683 -293 691 -299Q682 -305 668 -309Q666 -319 653 -328Q641 -336 640 -344V-345Q641 -350 642 -356V-357Q636 -370 631 -390Q632 -394 632 -399H635Q641 -400 647 -402H650Q695 -433 726 -433H732ZM122 -389V-386Q104 -388 104 -399V-401L107 -402Q111 -401 115 -401H118Q122 -395 122 -389ZM860 -662H858L857 -666Q859 -679 872 -680Q881 -680 881 -670Q872 -664 860 -662ZM153 -264V-265Q155 -268 157 -272Q153 -287 131 -290V-303Q123 -310 109 -310Q101 -310 97 -309Q100 -315 114 -319Q128 -323 131 -329Q128 -336 125 -343H138Q141 -347 141 -353Q137 -371 125 -384Q138 -374 151 -365Q160 -367 165 -374H167Q196 -374 216 -357Q222 -352 246 -323Q245 -320 245 -314Q247 -297 249 -281Q226 -273 226 -257Q223 -260 220 -260Q213 -257 205 -255Q198 -255 184 -260Q170 -265 161 -265Q156 -265 153 -264ZM753 -329Q756 -318 759 -307L758 -303Q757 -298 747 -289Q738 -281 737 -279Q729 -264 720 -249Q726 -247 738 -247Q753 -247 765 -253Q769 -269 787 -313Q797 -339 797 -352V-355L795 -356Q776 -346 760 -335Q758 -334 758 -331Q758 -328 755 -328ZM606 -718Q615 -710 615 -695V-693Q614 -684 599 -666Q576 -639 576 -619Q576 -613 577 -610Q577 -607 580 -607Q582 -606 583 -604Q632 -617 682 -627Q733 -637 769 -657Q778 -644 793 -644Q803 -644 825 -652Q843 -659 851 -660Q841 -654 830 -647Q819 -641 815 -629Q819 -621 829 -621Q846 -623 862 -626H867Q854 -620 851 -618Q842 -612 839 -604Q844 -590 854 -590Q858 -590 861 -591Q855 -585 852 -575Q852 -574 852 -573Q853 -572 863 -575H864Q857 -571 850 -566Q842 -561 839 -553Q837 -539 834 -525Q831 -519 827 -516Q823 -512 823 -504Q824 -501 824 -498Q766 -502 733 -502Q669 -502 630 -490Q609 -482 583 -472Q589 -466 595 -460Q596 -451 602 -437Q596 -431 589 -428V-425Q589 -420 587 -412L590 -411Q605 -415 619 -420H620Q619 -417 613 -413Q605 -407 605 -403Q605 -399 607 -397L608 -396Q611 -397 614 -399Q614 -396 608 -390Q612 -372 615 -361Q615 -356 611 -351Q615 -348 617 -344H614Q609 -344 608 -343Q610 -341 610 -338Q606 -328 602 -319Q591 -316 581 -314Q570 -312 566 -305Q567 -301 581 -294Q585 -295 591 -299V-295Q591 -275 595 -267Q584 -266 578 -257H577Q570 -257 563 -248Q557 -240 556 -232H557Q566 -232 582 -239Q600 -247 611 -247H616Q612 -243 607 -239L608 -237H612Q608 -233 608 -228Q608 -224 614 -216Q620 -208 621 -204V-203Q621 -201 618 -201Q614 -202 614 -199Q622 -194 637 -190H640Q641 -188 662 -178V-177Q662 -174 661 -172L662 -171Q664 -170 667 -170Q670 -170 674 -173Q706 -178 738 -183Q735 -180 732 -176Q733 -172 738 -172H744Q744 -169 743 -166Q743 -155 757 -149Q754 -144 754 -140Q757 -129 759 -119Q759 -114 752 -109Q747 -105 747 -102L748 -99H747Q739 -97 733 -93H717Q687 -93 678 -86Q692 -74 704 -67V-64Q721 -56 746 -36Q777 -11 797 -4Q801 -6 801 -12V-31Q804 -30 806 -20Q807 -11 811 -10Q814 -17 814 -34Q815 -37 815 -44Q818 -60 820 -77V-78Q819 -83 818 -89Q818 -92 822 -95Q824 -86 824 -65V-44Q824 -26 825 -18V-16Q825 -11 824 -6Q824 0 828 0V-8Q831 -48 834 -89Q833 -97 832 -105Q832 -114 838 -119Q841 -61 843 -4Q844 -12 844 -20V-31Q844 -64 849 -75Q851 -63 853 -36Q855 1 861 15L863 16L867 15L870 16Q871 35 885 49Q882 51 882 57Q883 65 884 73V75Q884 82 877 92Q871 101 870 105Q868 104 865 104Q857 104 843 110Q831 115 826 115H824Q813 112 801 109H796Q793 108 786 103Q780 98 774 98L771 99Q748 84 736 66Q726 55 722 45L679 0Q663 -7 645 -30Q628 -52 617 -58Q610 -57 607 -51Q603 -45 600 -40Q588 -22 569 -2Q555 17 541 36Q536 39 531 42Q525 48 520 62Q516 75 512 80Q502 92 489 101Q479 105 469 109Q468 110 465 114Q462 118 458 118L456 115L457 111L456 109Q453 104 437 100Q424 97 420 93Q416 89 415 81Q414 73 406 68Q408 64 408 63Q408 61 400 48Q402 47 409 45Q418 43 420 39Q418 25 406 16Q394 7 385 -2Q371 -18 364 -21H366Q374 -21 394 -6Q407 3 420 12Q420 5 405 -8Q390 -21 373 -33Q356 -46 343 -61H345Q359 -58 369 -46Q386 -33 405 -19Q423 -5 449 0Q503 -26 526 -48Q520 -46 517 -46Q494 -46 482 -69V-71Q484 -78 485 -85V-87Q485 -92 477 -101Q470 -110 470 -115Q474 -128 487 -137Q502 -142 518 -147Q523 -144 527 -144Q541 -146 554 -149H557Q581 -155 592 -157Q592 -160 590 -166Q589 -170 579 -178Q592 -191 611 -196Q598 -196 583 -190Q571 -186 557 -184L551 -168Q549 -162 533 -156Q518 -150 515 -153Q509 -159 504 -173Q501 -182 497 -180Q483 -172 468 -165Q429 -147 421 -137Q415 -127 415 -116Q414 -109 403 -102Q391 -95 380 -100Q362 -106 362 -108L357 -121Q358 -126 358 -132V-135Q355 -146 352 -157Q352 -163 357 -168Q355 -175 346 -183Q338 -190 336 -196H337Q348 -191 359 -187L360 -188Q359 -190 358 -192V-193Q361 -192 366 -192Q371 -192 391 -202Q400 -198 415 -198Q435 -199 454 -205Q472 -211 490 -215Q489 -217 487 -228Q482 -226 477 -224H472Q440 -224 440 -237Q440 -245 448 -250Q447 -253 447 -257Q448 -269 461 -272Q475 -275 492 -277Q493 -279 493 -283Q493 -289 491 -289Q465 -281 455 -278Q444 -275 426 -259Q425 -255 424 -251V-250Q413 -244 393 -242Q387 -243 380 -249Q374 -255 370 -256Q357 -257 350 -263L349 -265Q320 -216 307 -176Q292 -138 270 -99Q254 -72 229 -47L212 -7Q212 7 206 16Q200 25 195 36Q178 78 157 101Q148 99 135 92Q116 82 103 81Q98 70 93 60Q87 51 77 45Q79 25 85 21Q76 4 76 -26Q77 -48 77 -71V-83Q77 -93 83 -95Q85 -84 86 -68Q87 -53 95 -45Q119 -67 138 -94Q157 -121 177 -146Q146 -141 130 -108Q128 -107 125 -107Q116 -108 107 -114Q98 -121 89 -125Q79 -129 70 -133Q61 -137 57 -146Q64 -208 118 -242L113 -233Q113 -228 116 -222Q162 -233 206 -247Q249 -261 280 -293Q298 -316 313 -347Q324 -368 335 -388Q347 -408 363 -423Q345 -422 328 -417Q317 -413 299 -399Q275 -380 258 -380Q242 -381 234 -393Q225 -405 215 -416Q212 -419 186 -435Q168 -446 163 -459Q174 -495 208 -516Q211 -547 234 -565Q251 -578 286 -588Q281 -584 274 -578Q267 -573 266 -566Q266 -561 270 -557Q311 -561 351 -566L353 -567Q362 -571 427 -575Q442 -581 460 -584Q455 -635 450 -653Q439 -690 412 -696Q416 -700 421 -717Q428 -740 436 -745Q440 -748 451 -752Q468 -759 476 -764Q499 -780 502 -782Q517 -791 530 -791Q546 -791 562 -776Q562 -766 571 -755Q603 -731 606 -718ZM459 -443Q450 -439 442 -431Q426 -408 412 -370Q417 -370 423 -368L434 -378Q434 -383 450 -386Q464 -389 467 -392Q475 -392 482 -395Q486 -397 496 -398V-403Q496 -416 490 -424Q485 -433 481 -442H477Q470 -441 463 -441H459Z"/>
</svg>