<svg xmlns="http://www.w3.org/2000/svg" viewBox="0 -800 1024 1024">
	<path fill="#000000" d="M745 -66H742Q730 -66 730 -75Q730 -77 732 -81H734Q739 -81 742 -76Q743 -74 745 -66ZM55 -292V-287Q45 -292 45 -303V-306Q47 -308 57 -308Q55 -296 55 -292ZM553 -317V-348H552Q528 -348 528 -313Q529 -307 529 -302Q531 -302 540 -309Q548 -315 553 -317ZM541 -422Q553 -429 557 -458Q558 -468 560 -500Q536 -458 536 -440Q536 -432 541 -422ZM803 -336Q804 -348 805 -361Q805 -370 801 -374Q773 -363 747 -350Q745 -340 745 -332Q745 -318 748 -312Q756 -317 776 -324Q795 -330 803 -336ZM297 -158Q303 -206 312 -245Q295 -236 276 -223Q256 -211 253 -191Q254 -180 260 -170Q266 -160 271 -150Q294 -158 297 -158ZM811 -455H812Q810 -467 810 -475Q812 -498 813 -522Q813 -530 812 -534Q782 -516 775 -503Q771 -489 766 -476Q753 -461 749 -441Q749 -437 751 -431Q761 -432 777 -442Q799 -455 811 -455ZM335 -63H330Q324 -63 323 -65Q319 -64 319 -61Q318 -57 314 -56H313Q315 -62 316 -68Q306 -70 300 -81Q283 -81 276 -66Q274 -62 268 -36Q263 -31 255 -31Q239 -34 223 -40Q213 -99 159 -141Q124 -88 98 -21H95Q85 -21 74 -34Q65 -44 60 -44Q56 -44 54 -42Q47 -73 32 -96Q31 -100 31 -107Q31 -118 37 -139Q42 -157 42 -169Q42 -177 41 -182Q47 -179 52 -176Q53 -181 53 -192Q51 -221 49 -251Q49 -263 52 -275Q55 -231 66 -194Q67 -196 67 -202Q66 -218 64 -235Q64 -243 67 -249Q73 -222 82 -198Q152 -275 218 -353Q180 -339 155 -312Q126 -318 116 -363Q103 -364 97 -375Q93 -382 90 -399Q84 -437 73 -444V-455Q73 -475 80 -490Q84 -499 98 -519Q142 -578 188 -596Q181 -587 172 -580Q163 -572 162 -560V-557L165 -555Q166 -555 173 -562Q174 -556 177 -552Q207 -562 251 -586Q310 -618 344 -626Q350 -638 363 -638Q370 -638 372 -633Q381 -636 391 -636V-632Q391 -631 393 -623Q396 -623 411 -628V-627Q410 -623 406 -617Q401 -610 400 -601V-600Q401 -597 403 -597Q407 -598 411 -599Q405 -584 397 -570Q400 -566 401 -562Q402 -557 408 -557H411Q408 -545 408 -531Q408 -507 417 -480H416Q414 -481 411 -483Q412 -479 412 -473Q409 -462 406 -452Q402 -451 354 -437Q348 -424 341 -414Q309 -396 282 -358Q277 -351 238 -285Q266 -299 294 -312Q322 -325 341 -347H343Q347 -348 351 -349L354 -347Q361 -354 369 -372Q371 -370 371 -366Q370 -359 369 -352V-350Q370 -346 375 -345Q379 -345 383 -344Q396 -334 409 -301Q419 -275 427 -266Q427 -260 426 -255Q426 -246 432 -242Q426 -222 424 -212Q382 -200 360 -158Q343 -124 335 -63ZM748 -60H750Q760 -56 769 -47Q754 -73 732 -103Q742 -102 757 -86Q770 -72 777 -69Q773 -83 755 -99Q742 -110 738 -117H739Q747 -117 761 -105Q774 -94 781 -94H783Q800 -116 800 -181V-209Q800 -236 801 -248H797Q768 -248 747 -231Q742 -188 737 -146Q728 -101 702 -87Q650 -115 640 -179Q638 -183 633 -183H630Q648 -225 652 -279Q656 -334 658 -389Q651 -403 651 -420Q651 -430 655 -435L639 -471Q629 -446 628 -415Q627 -384 625 -353Q618 -279 615 -200Q616 -186 616 -172Q618 -116 633 10Q621 23 608 33Q600 31 591 29Q588 29 586 30Q571 14 555 1Q538 -13 535 -37V-39Q536 -47 537 -55L536 -59Q535 -66 523 -75Q514 -81 512 -86Q515 -89 517 -89Q526 -86 535 -83H538Q547 -116 547 -184V-224Q532 -219 529 -217Q519 -212 516 -204Q514 -198 514 -193Q518 -166 521 -139V-134Q520 -114 509 -100Q501 -91 482 -78Q456 -102 442 -108Q440 -123 434 -135Q426 -150 416 -150Q410 -150 402 -144Q415 -166 432 -182Q448 -276 448 -346Q448 -377 445 -407Q431 -429 431 -450Q431 -465 440 -474H445Q457 -472 469 -471Q474 -471 480 -474Q504 -530 551 -608Q552 -610 552 -614Q551 -625 549 -637Q549 -642 550 -644Q560 -656 569 -669Q577 -685 587 -697Q597 -704 608 -704Q638 -701 645 -677Q648 -677 649 -681Q650 -686 654 -686Q653 -674 651 -662L654 -660Q658 -661 662 -662H664Q661 -656 661 -650Q666 -627 671 -603V-600Q669 -589 656 -572Q638 -549 638 -533Q638 -529 640 -521Q655 -558 684 -588Q713 -618 744 -647Q789 -690 812 -716Q825 -733 837 -751Q857 -771 864 -771H866Q871 -771 881 -765Q889 -760 894 -760Q898 -760 901 -764H904L902 -761V-760Q906 -760 914 -770Q920 -777 922 -779L924 -777Q919 -770 913 -764Q912 -753 911 -743Q911 -737 913 -735Q915 -738 920 -754Q922 -699 944 -688Q942 -676 942 -670Q942 -653 950 -645Q942 -645 942 -635V-619Q939 -610 932 -604Q925 -598 919 -591Q889 -543 889 -384Q890 -346 890 -309V-290Q887 -243 887 -196Q887 -88 905 -6Q890 -3 889 6Q884 57 851 83Q826 71 806 54Q798 30 784 13Q784 9 788 1Q768 -29 748 -60Z"/>
</svg>