<svg xmlns="http://www.w3.org/2000/svg" viewBox="0 -800 1024 1024">
	<path fill="#000000" d="M42 -424H41Q37 -425 33 -427V-437Q39 -438 55 -438ZM969 -159Q968 -149 960 -147Q952 -144 945 -142Q944 -144 944 -148Q944 -161 959 -161Q963 -161 969 -159ZM436 -481V-483Q436 -490 444 -495Q451 -500 452 -503Q448 -507 436 -515Q426 -503 416 -498Q418 -506 418 -512Q416 -514 411 -514Q399 -514 399 -499Q399 -494 400 -491L390 -488Q381 -464 377 -434Q377 -429 379 -419Q405 -432 439 -437Q428 -459 428 -477V-481ZM754 -410H755Q765 -431 787 -467H783Q746 -466 718 -456Q689 -445 656 -434Q628 -424 600 -415Q563 -402 563 -384Q564 -381 564 -378Q567 -382 574 -382Q582 -381 590 -381H593Q602 -384 610 -387Q646 -396 665 -403Q699 -418 719 -422Q727 -422 738 -416Q749 -410 754 -410ZM254 -416L239 -387Q230 -387 220 -388Q212 -388 207 -383Q193 -389 178 -394Q163 -398 153 -407H152Q150 -407 146 -402Q144 -399 142 -399L141 -400Q141 -404 145 -410Q121 -429 107 -432Q109 -437 111 -443Q108 -451 99 -451Q82 -447 64 -443Q81 -458 104 -468Q101 -476 94 -479Q86 -482 80 -487Q82 -488 87 -488H102Q107 -496 107 -501Q107 -510 95 -526Q84 -540 83 -548Q89 -544 100 -532Q111 -519 119 -515Q130 -519 130 -531Q130 -540 125 -548Q148 -539 154 -539Q159 -543 164 -557Q168 -569 172 -573Q174 -572 174 -567V-553Q176 -542 195 -528Q209 -517 212 -512L214 -511Q218 -513 221 -515Q223 -514 225 -513Q224 -508 222 -503Q232 -482 241 -462Q251 -443 254 -416ZM928 -24H924Q913 -20 913 4Q913 29 920 39Q914 36 908 33Q882 46 856 59Q844 43 823 29Q802 16 785 1Q759 -23 753 -31Q735 -53 735 -73Q735 -79 736 -82Q748 -95 752 -114Q764 -122 775 -125H780Q790 -125 808 -119Q823 -114 828 -114H829Q841 -117 845 -128Q850 -141 858 -151V-150Q856 -134 853 -119Q853 -111 855 -107L858 -106Q861 -106 864 -111Q869 -118 874 -118H877Q875 -112 873 -106L874 -102Q906 -125 929 -137Q928 -133 919 -128Q910 -123 908 -121Q892 -105 892 -85Q892 -71 902 -64Q910 -69 920 -71Q924 -71 926 -70Q916 -66 912 -59Q911 -56 911 -51Q912 -37 927 -34Q950 -30 966 -23Q960 -20 954 -20Q941 -22 928 -24ZM878 -275H899Q889 -269 889 -251Q889 -244 890 -240L892 -239Q895 -241 897 -243L899 -242Q892 -230 885 -219Q877 -208 875 -191Q800 -184 791 -183Q745 -176 721 -161Q713 -124 710 -77Q711 -68 711 -59Q718 -8 722 33Q722 68 699 87Q695 88 690 88Q679 88 661 82Q652 68 642 54Q632 39 628 20Q626 5 623 -7Q620 -20 602 -23Q631 -41 631 -112V-134Q591 -124 571 -114Q538 -98 525 -74Q536 -63 546 -53Q555 -57 564 -61Q556 -54 556 -41Q560 -15 564 10V14Q558 22 550 28Q542 34 540 47Q521 47 498 29Q476 12 459 12Q452 12 449 13V10Q449 7 452 5Q455 3 456 2Q451 -8 439 -8Q420 -3 401 1Q406 -5 423 -10Q438 -14 443 -19Q442 -29 437 -41Q430 -60 430 -71H431Q438 -69 442 -64Q447 -68 462 -70Q482 -73 486 -80Q481 -92 466 -108Q452 -123 448 -131Q447 -134 447 -139Q447 -146 452 -157Q456 -166 456 -171V-174Q456 -183 455 -192Q455 -199 459 -206Q465 -215 477 -221Q488 -227 498 -233Q518 -250 540 -254Q531 -245 528 -233Q528 -227 532 -223Q697 -265 757 -289Q793 -301 828 -314Q832 -309 844 -303Q853 -299 856 -296Q868 -299 880 -303L881 -301Q876 -294 871 -287Q877 -279 878 -275ZM946 -482V-478Q901 -470 870 -434Q850 -411 825 -359Q802 -384 784 -384Q776 -384 767 -378Q773 -387 775 -398V-400L772 -401Q765 -401 757 -390Q762 -379 762 -360Q762 -355 761 -350Q761 -343 763 -331Q759 -325 753 -320Q748 -315 746 -306Q723 -305 702 -297Q696 -295 662 -277Q631 -257 605 -254Q589 -254 576 -266Q563 -281 552 -299Q558 -320 560 -342Q560 -346 558 -356Q559 -360 562 -361Q565 -361 565 -364L564 -368Q558 -363 548 -340Q538 -318 528 -312Q508 -318 497 -318H493Q485 -327 477 -347Q478 -341 478 -335Q478 -318 474 -306Q440 -303 390 -281Q368 -271 367 -269Q366 -263 401 -243Q406 -244 413 -251Q419 -257 423 -257H424Q421 -250 418 -244Q418 -240 421 -239Q426 -242 432 -253Q439 -265 446 -268Q441 -245 436 -223L438 -222Q440 -222 441 -224Q442 -227 446 -227H448Q445 -213 445 -202Q445 -189 446 -180Q448 -171 450 -163V-162Q449 -152 439 -144Q428 -136 428 -128L426 -127Q421 -131 416 -136Q398 -142 378 -143Q373 -130 373 -113Q373 -101 379 -70Q384 -44 384 -29V-20Q379 -5 373 10Q374 15 374 20Q374 24 373 25Q372 29 364 36Q355 44 353 53Q291 48 274 -11Q265 -39 263 -49V-55Q263 -69 272 -96Q281 -123 281 -135V-137Q198 -78 145 34H138Q119 34 109 24Q99 15 92 2Q83 -22 62 -35Q65 -40 71 -39Q78 -39 83 -41Q65 -58 33 -62Q110 -88 163 -136Q217 -184 265 -237Q231 -228 196 -205Q175 -191 139 -162Q121 -166 106 -169Q91 -172 82 -183Q80 -190 77 -197Q73 -206 56 -219Q41 -230 36 -240V-244Q37 -249 37 -254Q37 -257 34 -259Q46 -284 52 -312Q59 -341 79 -358Q97 -369 123 -377Q126 -377 127 -373Q127 -370 128 -368Q139 -362 156 -362Q172 -362 227 -378Q264 -389 301 -400Q297 -435 294 -466Q291 -496 275 -518Q267 -527 259 -533Q250 -539 248 -548V-551Q248 -575 275 -599Q302 -623 329 -623Q343 -623 354 -615Q363 -609 381 -575Q393 -554 396 -522Q413 -555 436 -622Q432 -639 427 -656Q434 -663 451 -674Q471 -688 480 -697Q484 -698 490 -698Q509 -697 520 -686Q530 -675 540 -659Q556 -645 558 -627V-625Q556 -609 544 -594Q531 -579 520 -567Q481 -519 478 -513Q487 -513 495 -514Q505 -514 511 -509Q530 -518 604 -536Q602 -571 599 -605Q595 -640 579 -663Q575 -668 566 -675Q555 -684 551 -692Q569 -699 579 -710L582 -722Q599 -740 618 -758Q637 -778 671 -780Q681 -780 686 -779Q691 -767 710 -744Q736 -714 736 -692V-689Q735 -675 727 -661Q718 -646 711 -632Q698 -599 698 -572V-566Q732 -579 766 -593Q828 -611 837 -615Q853 -627 878 -631Q886 -631 893 -628Q904 -633 914 -638H915L917 -636Q917 -634 915 -632L917 -631Q925 -636 933 -641Q923 -629 923 -610Q923 -592 933 -585Q936 -588 939 -592Q941 -597 947 -597Q950 -596 952 -596Q949 -585 949 -576Q952 -548 955 -521V-516Q949 -499 946 -482Z"/>
</svg>