<svg xmlns="http://www.w3.org/2000/svg" viewBox="0 -800 1024 1024">
	<path fill="#000000" d="M355 -626H349Q343 -626 342 -624Q346 -633 361 -637Q363 -634 364 -632Q364 -626 355 -626ZM949 -201Q945 -190 940 -180Q935 -182 935 -191Q935 -204 943 -204Q946 -204 949 -201ZM885 -697V-696Q879 -693 873 -693Q867 -693 864 -696Q867 -705 878 -706Q885 -706 885 -697ZM764 -376Q790 -381 794 -385Q802 -392 804 -418Q807 -416 809 -409Q811 -403 813 -401Q820 -411 820 -425Q818 -444 816 -464Q811 -484 810 -510Q824 -483 825 -461Q827 -439 834 -410Q836 -419 836 -441Q836 -446 833 -503Q832 -512 831 -522Q831 -530 836 -534Q841 -514 844 -468Q847 -418 853 -398Q856 -405 856 -414Q853 -437 850 -461Q850 -469 853 -477Q860 -460 863 -430Q866 -401 872 -390Q878 -378 898 -365Q919 -351 926 -338Q925 -334 925 -326Q925 -311 921 -309Q917 -307 917 -300Q918 -295 918 -290Q897 -282 875 -274Q872 -273 867 -273Q855 -275 842 -282Q804 -300 773 -300Q758 -300 751 -299Q757 -272 762 -245Q762 -239 763 -234Q838 -248 844 -246Q864 -250 885 -258Q889 -250 893 -250Q896 -250 900 -254Q904 -258 913 -259L916 -258Q918 -257 915 -253Q908 -246 906 -236Q906 -233 908 -229Q915 -233 922 -238V-237Q919 -233 914 -222V-219Q914 -211 919 -201Q913 -165 912 -161Q906 -140 891 -140H889Q860 -140 851 -144L837 -143Q830 -142 823 -141L769 -134Q760 -133 760 -131Q759 -130 758 -123V-107Q758 -69 764 -51Q806 -46 846 -36Q873 -41 890 -66Q896 -75 914 -117V-106Q912 -81 910 -57Q911 -53 911 -49Q916 -67 921 -98Q929 -148 937 -168V-158Q932 -97 927 -37Q935 -90 948 -139Q949 -132 949 -125Q947 -86 944 -47Q944 -32 945 -25Q947 -11 954 12Q963 41 963 54V56Q963 78 933 108H930Q911 107 895 99Q880 91 865 83Q849 76 835 72Q821 67 809 58L791 56Q754 49 713 43Q672 37 637 23L580 14Q565 20 553 20Q536 19 518 18H510Q495 18 452 34Q409 50 390 50Q388 50 383 49L348 6L408 -54Q428 -58 445 -65Q483 -80 485 -100Q443 -132 422 -273Q386 -277 363 -315Q358 -325 366 -344Q379 -374 425 -382Q466 -414 480 -414Q493 -414 503 -404Q522 -385 522 -361V-356Q520 -346 508 -328Q492 -304 492 -290Q493 -285 493 -281Q495 -224 497 -168Q504 -150 516 -136Q529 -122 540 -105Q545 -88 540 -80Q536 -72 528 -58Q544 -57 577 -57Q677 -57 691 -55Q690 -61 690 -71Q690 -79 695 -93Q699 -104 699 -110Q696 -116 692 -123Q689 -124 673 -124Q655 -124 628 -111Q605 -100 592 -88Q585 -88 575 -95Q559 -112 550 -131Q537 -157 545 -173Q551 -186 582 -224V-221Q580 -211 577 -201Q580 -198 584 -198Q589 -198 682 -218Q682 -222 682 -226Q682 -235 685 -274L686 -285L671 -277Q671 -268 657 -268H652Q609 -263 594 -255Q584 -247 576 -244H573Q562 -245 555 -254Q547 -264 538 -271Q538 -288 526 -306Q521 -314 521 -317Q525 -320 533 -330Q541 -340 548 -344Q564 -364 581 -432Q561 -435 554 -466Q541 -468 532 -485Q524 -500 524 -520Q524 -531 535 -545Q532 -552 532 -567Q531 -586 525 -595L529 -596Q534 -594 539 -593L543 -594Q537 -613 530 -632Q539 -629 544 -621Q548 -614 554 -607Q566 -609 572 -609Q580 -609 583 -607L593 -611Q595 -619 610 -627Q613 -651 615 -699Q615 -719 616 -738Q617 -756 629 -772Q659 -792 680 -792Q693 -792 700 -788Q705 -785 713 -774Q722 -761 728 -759Q735 -763 742 -768Q741 -758 739 -749Q739 -738 749 -738Q745 -731 745 -721Q745 -717 747 -705Q741 -696 738 -686Q738 -683 739 -681Q732 -674 725 -662Q736 -664 747 -666Q755 -666 772 -676Q789 -686 797 -687Q799 -684 799 -676Q805 -677 821 -684Q836 -691 847 -691Q850 -690 853 -690Q850 -686 837 -678Q821 -668 817 -657L819 -656Q826 -659 833 -662H834L835 -660Q829 -652 823 -645Q822 -643 822 -639Q823 -628 832 -628Q840 -628 850 -629Q834 -624 833 -606Q833 -603 835 -597L836 -596Q839 -596 841 -597H843Q834 -587 827 -557Q820 -528 813 -519Q793 -518 767 -510Q741 -502 738 -501Q721 -493 722 -479L658 -458Q637 -357 633 -344Q645 -344 667 -350Q666 -354 665 -359Q658 -389 658 -398V-401Q659 -426 674 -435Q689 -445 700 -457Q708 -448 731 -439Q757 -428 766 -418Q771 -410 768 -399Q766 -388 764 -376ZM356 -506Q356 -502 355 -499Q359 -492 362 -485Q360 -484 360 -481Q362 -473 363 -465L362 -461Q352 -445 335 -436Q318 -427 300 -416Q308 -412 312 -405Q310 -395 310 -389Q310 -376 316 -358Q334 -363 343 -363Q348 -363 352 -360Q348 -352 348 -347Q348 -340 352 -336Q341 -323 341 -303Q341 -291 348 -287Q346 -278 332 -265Q314 -248 314 -236Q314 -230 317 -223Q357 -243 408 -258Q398 -248 383 -243Q368 -237 366 -220V-215Q377 -221 389 -229Q388 -224 379 -216Q366 -203 366 -196V-193H367Q371 -196 378 -200L382 -199Q381 -195 375 -191Q368 -187 367 -183Q369 -175 370 -168Q370 -166 366 -162Q372 -157 372 -153V-149Q372 -143 377 -139Q337 -125 296 -98Q293 -96 232 -51L218 -43Q211 -33 202 -28Q192 -23 179 -13Q166 1 157 19Q148 37 130 42Q126 43 121 43Q102 42 86 33Q71 24 57 14Q56 11 56 6Q58 -8 60 -23V-25Q57 -36 54 -48V-53Q54 -68 72 -109Q87 -134 101 -159Q102 -137 108 -123Q170 -153 227 -184Q229 -193 230 -202Q227 -206 216 -208Q200 -211 200 -220L194 -218Q179 -225 175 -234Q176 -236 176 -240Q176 -248 171 -253Q173 -256 173 -262Q173 -276 156 -278Q166 -281 183 -296Q198 -309 213 -310Q223 -325 224 -328Q224 -343 215 -357Q197 -346 191 -324Q187 -326 181 -326Q176 -326 173 -322Q148 -330 124 -361Q120 -366 111 -374Q101 -383 98 -388Q95 -394 94 -407Q93 -421 89 -427Q86 -434 80 -439Q72 -445 71 -448Q73 -451 75 -451Q80 -449 85 -447Q88 -447 88 -450Q83 -460 74 -466Q65 -472 56 -479H62Q76 -477 88 -469Q90 -474 92 -479Q87 -485 78 -488Q83 -491 97 -491Q106 -518 131 -538Q134 -537 137 -537Q147 -537 160 -546Q170 -553 176 -553H178L191 -567Q192 -583 206 -590Q220 -598 234 -605H237Q240 -604 243 -604Q248 -613 261 -613Q272 -613 284 -607Q301 -614 320 -619Q326 -619 330 -614Q321 -614 313 -608Q305 -602 305 -594Q305 -588 308 -584H309Q311 -586 316 -589H318V-578Q318 -573 319 -571Q350 -549 356 -510Q365 -515 374 -521L372 -523Q366 -522 360 -521V-523Q362 -529 369 -529Q366 -534 364 -549Q361 -568 354 -577Q356 -580 363 -578Q363 -585 365 -588Q370 -602 384 -606L385 -617L386 -618Q387 -618 391 -609Q404 -606 417 -604L419 -603Q426 -608 433 -614Q433 -608 432 -603Q441 -596 449 -589Q459 -601 470 -602Q465 -597 464 -591Q461 -583 461 -577Q487 -551 490 -546Q503 -531 504 -502Q504 -487 502 -477V-469Q498 -461 493 -454L484 -447Q485 -449 485 -455H484Q481 -452 480 -448Q478 -449 467 -449L453 -450Q449 -449 443 -451Q434 -454 420 -467Q406 -480 399 -482Q391 -485 382 -481Q385 -487 391 -491Q391 -501 379 -505Q367 -510 356 -506Z"/>
</svg>