<svg xmlns="http://www.w3.org/2000/svg" viewBox="0 -800 1024 1024">
	<path fill="#000000" d="M929 -453H928Q926 -452 923 -451L921 -452Q920 -454 920 -460Q920 -471 929 -471H932Q931 -462 929 -453ZM768 -162H771Q775 -180 778 -199Q778 -203 776 -207H773V-204Q773 -202 771 -196Q709 -180 663 -156Q660 -147 656 -139Q662 -137 667 -135Q718 -149 758 -168Q761 -163 768 -162ZM761 -507V-517Q763 -547 768 -574Q700 -546 673 -510Q676 -504 676 -499V-490Q676 -485 677 -483Q703 -494 761 -507ZM766 -252H770Q769 -250 769 -247Q769 -241 776 -233Q782 -226 783 -223Q786 -260 793 -291Q759 -284 717 -273Q676 -261 656 -238Q650 -232 650 -220V-216Q690 -238 746 -254Q750 -251 753 -248H755Q759 -252 766 -252ZM547 -430Q542 -430 540 -434Q539 -438 536 -442Q525 -456 513 -470Q501 -484 500 -502Q500 -511 506 -525Q500 -538 500 -550Q500 -580 527 -607Q530 -606 537 -606Q559 -606 589 -622Q593 -624 634 -650Q646 -657 699 -675Q747 -691 758 -702Q757 -705 754 -705L755 -706L756 -709L759 -708H760Q763 -730 783 -745Q801 -759 824 -759Q850 -759 865 -738Q869 -738 872 -741Q875 -744 877 -744H880Q880 -741 877 -739Q875 -737 874 -735Q878 -731 883 -731Q889 -731 899 -741Q909 -751 916 -751H920Q915 -743 906 -737Q897 -731 896 -716Q897 -713 906 -712Q914 -712 914 -708L913 -705H915Q920 -708 930 -711Q932 -711 936 -709Q926 -702 926 -690Q926 -682 932 -676Q941 -681 950 -687H951Q950 -681 942 -663Q949 -644 949 -627Q949 -594 932 -574Q901 -571 878 -543Q856 -513 845 -472Q834 -431 824 -390L826 -389Q830 -389 832 -394Q834 -399 837 -403H838Q846 -403 860 -410Q877 -419 887 -419Q891 -419 899 -417Q905 -421 910 -427Q914 -434 920 -438Q919 -431 917 -425L918 -421Q928 -423 937 -433Q945 -442 952 -450Q952 -445 948 -438Q941 -426 941 -418Q942 -414 942 -411Q944 -404 957 -402Q954 -386 951 -370Q952 -367 952 -364Q953 -359 960 -349Q967 -339 969 -333Q972 -321 972 -310Q972 -283 946 -255Q938 -259 930 -259Q923 -259 920 -255Q897 -214 891 -156Q884 -97 877 -40L875 -10Q887 -2 887 23V44Q890 58 892 71Q890 89 881 103Q872 116 867 128Q863 128 859 129Q855 130 855 136V139Q830 137 802 124Q773 111 761 95Q755 81 749 66Q740 55 737 43V42Q719 29 700 16Q716 19 731 21Q737 21 741 19Q730 8 714 3Q698 -2 685 -7H690Q694 -7 738 0Q730 -7 705 -14Q679 -21 670 -30H676Q703 -25 729 -21Q737 -21 740 -22Q758 -29 760 -52Q762 -74 768 -94Q695 -89 654 -60Q655 -52 655 -38Q654 -9 636 12Q619 33 603 48Q600 45 594 45Q586 45 581 48Q568 45 554 29Q539 13 528 9Q529 7 529 2Q529 -19 512 -22Q514 -25 523 -27Q526 -33 531 -81V-87Q530 -104 528 -121Q528 -132 534 -138L528 -175Q516 -181 513 -194Q511 -206 507 -219Q503 -227 487 -244Q464 -268 461 -288Q458 -315 458 -322V-328Q462 -340 466 -352Q466 -356 479 -366Q497 -375 516 -373Q583 -379 608 -331H617Q623 -331 624 -330Q628 -335 677 -340Q710 -343 717 -346Q731 -352 742 -360Q753 -367 769 -369Q748 -387 743 -394H734Q711 -394 666 -385Q618 -376 606 -367Q579 -374 570 -380Q553 -391 552 -412ZM136 -107Q128 -93 128 -84Q128 -79 131 -73Q136 -67 144 -67Q149 -67 158 -70Q175 -74 191 -79Q241 -96 287 -115Q338 -132 382 -154Q391 -155 405 -162Q425 -172 434 -173Q431 -162 427 -151Q429 -148 430 -148Q434 -150 438 -153L440 -151L441 -148Q441 -144 436 -134Q439 -127 444 -124Q439 -114 435 -110Q431 -107 431 -93L434 -92Q438 -92 439 -91Q426 -76 424 -50V-47Q364 -27 293 5L267 16Q262 23 231 40Q209 52 203 58Q196 71 187 86Q179 101 162 102Q156 102 153 101Q138 91 128 74Q116 72 105 72Q95 71 87 63Q71 38 87 15Q78 0 78 -24Q78 -39 82 -48Q93 -68 113 -89Q123 -102 132 -115Q129 -120 127 -127Q127 -129 123 -129L119 -130V-131Q116 -140 116 -152V-168Q116 -183 113 -188Q108 -196 95 -196H90Q91 -203 100 -203L104 -202Q107 -202 110 -203Q152 -227 207 -280Q156 -265 150 -262Q122 -249 113 -223Q95 -220 93 -220Q81 -220 70 -227Q66 -235 61 -244Q52 -251 47 -268Q43 -280 39 -287V-305Q35 -321 31 -338V-340Q33 -353 61 -377Q87 -401 99 -406L107 -415Q113 -433 129 -448Q145 -462 161 -475Q169 -483 177 -492Q185 -502 198 -503Q201 -502 203 -502L218 -518Q219 -536 230 -544Q241 -552 248 -562Q250 -567 251 -572Q252 -577 257 -581Q250 -610 248 -613Q245 -617 238 -622Q229 -628 227 -634L231 -635Q246 -632 260 -629Q263 -633 265 -638Q265 -641 261 -643Q257 -645 257 -649Q261 -653 267 -653Q274 -652 281 -652H283Q292 -652 312 -663Q328 -672 338 -673Q342 -673 346 -674Q368 -674 389 -656Q400 -647 421 -620Q433 -615 448 -585Q462 -556 462 -539V-538Q458 -517 436 -504Q415 -491 397 -479Q360 -454 333 -427Q301 -418 286 -391Q305 -395 326 -397Q347 -400 361 -410L362 -406Q360 -400 358 -395Q359 -390 366 -385Q370 -382 372 -379Q372 -365 382 -337Q375 -331 375 -323Q375 -319 376 -316Q363 -303 337 -286Q305 -265 294 -253Q336 -265 370 -280Q384 -288 386 -297Q387 -307 395 -321Q398 -321 401 -315Q403 -310 407 -309Q410 -309 414 -315Q418 -320 422 -321Q426 -318 431 -309Q437 -297 443 -294Q449 -296 454 -298L458 -297Q458 -290 454 -287Q450 -284 446 -279Q447 -269 458 -262Q459 -252 459 -243Q453 -217 446 -195Q432 -184 399 -188Q381 -183 348 -170Q316 -157 289 -152L266 -149V-147Q266 -144 263 -143Q260 -141 260 -139V-137Q195 -119 183 -88H178Q149 -88 136 -107Z"/>
</svg>