<svg xmlns="http://www.w3.org/2000/svg" viewBox="0 -800 1024 1024">
	<path fill="#000000" d="M515 34V28Q519 26 522 26Q529 26 540 34Q539 38 533 38Q524 36 515 34ZM189 -296Q183 -282 174 -282Q171 -282 168 -283Q168 -288 170 -296Q177 -296 183 -297Q187 -297 189 -296ZM695 -158H693Q690 -157 687 -156H685Q680 -163 671 -167H670Q668 -164 665 -161L664 -162Q666 -167 667 -173Q664 -173 660 -174H658Q658 -161 657 -149Q657 -140 658 -137Q682 -142 737 -145Q783 -148 811 -152Q791 -160 759 -182Q736 -198 723 -205Q702 -181 695 -158ZM796 -353V-329Q776 -317 751 -315Q725 -314 698 -311Q666 -304 633 -297Q609 -290 587 -281Q559 -275 531 -270Q502 -258 484 -255Q472 -255 458 -269Q450 -276 443 -283Q436 -290 435 -302V-306Q436 -314 442 -320Q448 -326 454 -335Q456 -342 457 -349Q463 -358 485 -366Q500 -371 506 -377L508 -374Q507 -370 506 -367L507 -365Q650 -375 781 -415L783 -413Q783 -411 780 -407Q774 -400 774 -396L775 -393Q777 -392 783 -392Q793 -392 803 -393H808Q803 -390 795 -389Q787 -388 786 -380V-378Q787 -376 790 -376Q797 -376 803 -377H806Q796 -373 796 -353ZM910 -136V-135Q914 -133 918 -131Q919 -125 919 -120Q919 -81 897 -48Q824 -49 751 -51Q694 -51 660 -45Q657 -34 657 -26Q657 -10 666 17Q675 44 676 56Q669 61 666 74Q664 83 661 87Q655 94 638 99Q619 105 614 114Q607 111 598 101Q589 92 584 89Q584 72 566 57Q553 46 549 37Q565 42 570 45Q554 17 522 6Q525 6 528 5Q550 9 568 27Q565 16 556 12Q547 8 538 4Q524 -7 504 -15H508Q517 -15 537 -8Q557 -1 571 -1H573Q579 -6 581 -41Q567 -43 561 -43Q525 -43 460 -20Q418 -5 406 0Q379 12 365 28Q320 24 320 -13V-15Q311 -24 293 -36V-39Q293 -76 314 -97Q331 -114 365 -122Q364 -117 358 -112Q353 -108 352 -104Q359 -97 370 -97Q395 -101 419 -105H426Q421 -115 403 -130Q383 -147 377 -162Q378 -162 387 -159Q387 -163 390 -165Q384 -177 374 -184Q364 -192 355 -200L248 -15Q234 7 223 27Q212 48 208 76Q196 78 189 78H182Q156 78 150 90L149 88V82Q102 45 78 -45H81Q86 -45 91 -37Q97 -29 100 -29H102Q89 -51 73 -78Q57 -104 48 -135Q97 -66 119 -44Q171 -70 210 -129Q177 -124 167 -102Q159 -100 156 -100Q143 -100 138 -110Q132 -119 130 -132Q127 -161 113 -176Q121 -217 139 -231Q145 -231 154 -225Q165 -218 171 -218H175Q193 -219 212 -228Q231 -237 249 -245Q300 -266 312 -284Q309 -288 304 -288Q295 -288 293 -280Q289 -282 280 -282Q272 -282 260 -278Q250 -290 236 -290Q229 -290 225 -283Q221 -302 213 -305Q204 -302 195 -299Q198 -306 208 -318Q204 -330 189 -330Q163 -325 137 -321Q143 -332 164 -338Q193 -346 198 -349Q197 -357 187 -361Q180 -364 177 -368Q205 -370 214 -389Q206 -406 195 -422H196Q205 -415 213 -409Q227 -395 232 -393Q252 -404 257 -412Q266 -398 268 -396Q275 -389 288 -389H290Q295 -368 309 -356Q322 -344 324 -320Q324 -311 323 -306Q336 -324 356 -365Q375 -405 387 -422Q361 -414 355 -406Q353 -407 349 -407Q337 -403 324 -400Q322 -400 316 -402Q304 -408 292 -434Q281 -458 281 -471Q281 -479 288 -495Q293 -508 294 -515V-522Q294 -534 293 -546Q293 -556 297 -563Q315 -582 338 -599Q364 -625 383 -625Q386 -624 389 -624Q378 -618 367 -610Q355 -601 354 -590Q354 -584 356 -581Q361 -583 371 -592Q381 -601 387 -602Q384 -596 384 -587V-582Q449 -601 513 -610Q512 -663 479 -686Q481 -696 481 -700Q481 -709 476 -713Q466 -713 463 -711Q469 -728 485 -744Q490 -749 516 -770Q545 -791 563 -791H568Q596 -785 614 -757Q631 -729 647 -710Q628 -673 614 -633Q728 -643 778 -686V-676Q778 -662 781 -659Q790 -656 802 -648Q807 -651 820 -651Q833 -650 846 -650Q836 -646 823 -643Q809 -639 808 -627Q809 -624 809 -622L812 -621Q818 -622 824 -624Q825 -624 829 -622Q810 -611 805 -599Q809 -588 816 -588H818Q794 -550 794 -516Q770 -507 715 -500Q665 -494 639 -485Q650 -479 659 -470Q669 -461 683 -460Q689 -460 692 -461Q683 -454 674 -447Q677 -434 680 -421V-418Q679 -409 665 -398Q651 -388 638 -387Q626 -388 618 -394Q610 -400 603 -406H591Q587 -415 577 -415Q572 -415 553 -407Q563 -416 574 -423Q570 -434 554 -434Q537 -432 519 -431H516Q536 -444 558 -453V-454Q559 -458 553 -458H552Q547 -458 547 -460V-461Q563 -464 574 -471H564Q540 -471 485 -452Q484 -451 484 -447Q486 -436 487 -425V-423Q486 -421 469 -398Q445 -368 409 -297Q379 -238 361 -212Q369 -199 398 -186Q466 -213 494 -240Q509 -254 511 -255Q524 -264 538 -264Q545 -264 549 -263Q573 -249 580 -222Q574 -212 570 -201Q576 -198 581 -198Q583 -198 591 -200Q590 -197 590 -192Q592 -180 593 -168V-165Q591 -161 576 -154Q564 -148 564 -137Q559 -146 538 -152Q522 -156 516 -161Q481 -154 466 -117Q532 -124 597 -132Q598 -147 598 -162Q598 -205 594 -255Q606 -268 629 -268Q656 -268 668 -254L667 -250Q671 -237 675 -228Q675 -224 672 -220Q695 -245 695 -270Q695 -280 691 -287Q698 -298 715 -300Q732 -303 749 -305Q768 -290 780 -252Q774 -248 769 -248Q764 -248 762 -240Q768 -232 779 -228Q790 -224 800 -219Q808 -222 819 -233Q831 -245 840 -248Q833 -234 826 -221Q828 -221 833 -228Q840 -238 846 -239Q840 -229 837 -218Q837 -214 838 -212Q840 -216 844 -218H845Q843 -212 843 -210Q844 -201 851 -196Q858 -192 862 -186Q860 -167 854 -156Q870 -159 885 -162Q884 -159 882 -156Q882 -155 885 -152L909 -158Q902 -151 902 -147Q902 -144 903 -142L904 -141Q908 -143 912 -146L913 -145V-143Q912 -139 910 -136Z"/>
</svg>