<svg xmlns="http://www.w3.org/2000/svg" viewBox="0 -800 1024 1024">
	<path fill="#000000" d="M891 -278H890L888 -277Q881 -278 881 -286Q881 -294 885 -302Q892 -302 892 -294Q892 -287 891 -280ZM56 -297H54Q41 -297 41 -313Q47 -317 53 -317H56ZM419 -262V-264Q415 -284 404 -302H400Q393 -302 390 -297Q386 -293 380 -289Q374 -286 367 -284Q364 -282 357 -272Q350 -263 344 -259Q309 -238 300 -231Q252 -195 226 -157Q247 -144 267 -131Q338 -181 405 -236Q405 -241 412 -249Q418 -256 419 -262ZM944 -206V-205Q944 -202 939 -200Q933 -198 933 -194Q933 -187 950 -187Q950 -183 947 -180Q943 -176 943 -173Q943 -166 958 -166Q955 -154 955 -144Q955 -131 962 -107Q955 -84 950 -59Q944 -56 933 -56Q918 -55 913 -52Q843 -71 778 -71Q733 -71 706 -62Q697 -62 687 -63Q647 -63 609 -54Q567 -44 547 -27Q538 -19 529 -11Q520 -2 506 -1Q492 -1 478 -18Q464 -35 464 -53Q464 -67 472 -76V-77Q470 -82 467 -88Q476 -148 514 -176Q518 -178 521 -178Q534 -174 546 -170Q550 -169 554 -169Q565 -169 591 -177Q614 -184 626 -184Q628 -188 628 -197Q628 -205 627 -209Q625 -208 619 -208H616Q609 -208 607 -205Q568 -219 567 -254Q556 -259 553 -271Q549 -282 544 -297Q542 -301 536 -309Q529 -318 529 -325Q544 -318 546 -317Q543 -333 533 -341Q524 -350 517 -361H518Q524 -361 533 -355Q542 -349 547 -349Q559 -352 570 -356Q626 -371 638 -377Q638 -406 633 -433Q624 -432 607 -419Q585 -402 574 -401H570Q553 -401 539 -413Q525 -425 524 -443Q492 -467 492 -494Q492 -501 493 -505Q496 -513 499 -521V-524Q497 -546 494 -568Q498 -590 505 -607H506Q511 -604 517 -601Q531 -608 533 -608Q537 -608 538 -607Q547 -618 563 -618Q568 -618 571 -617Q595 -632 651 -646Q707 -660 728 -673H731Q736 -673 741 -674H743Q766 -693 774 -724Q776 -721 778 -714Q781 -702 785 -700H789Q819 -703 842 -713Q841 -708 836 -703Q831 -698 830 -695Q833 -692 839 -692Q851 -694 863 -697L864 -695Q863 -691 857 -687Q850 -682 847 -679Q848 -666 853 -656Q860 -657 873 -665Q884 -672 894 -673Q887 -667 874 -655Q861 -643 860 -632Q860 -624 875 -620Q867 -613 864 -589Q862 -572 857 -563Q863 -559 863 -553Q861 -540 858 -528L859 -524Q782 -504 707 -473Q717 -463 730 -440Q744 -414 753 -406Q762 -407 778 -414Q797 -422 806 -422Q794 -410 794 -400Q794 -392 803 -388Q813 -390 823 -392H826Q822 -388 817 -385Q812 -381 812 -375Q812 -371 815 -367L818 -366Q822 -366 826 -367L829 -366Q824 -360 824 -351Q824 -348 826 -338Q822 -330 819 -325Q816 -320 808 -317Q804 -311 799 -284Q770 -281 741 -271Q711 -261 709 -229V-223Q700 -212 700 -202Q700 -200 702 -194Q794 -201 881 -212Q888 -219 888 -234Q887 -247 886 -260Q886 -270 890 -275Q895 -265 899 -245Q905 -214 912 -206Q918 -205 928 -205Q938 -205 944 -206ZM343 5V7Q331 9 324 16Q305 2 284 -10Q281 -21 278 -32Q271 -38 259 -53Q244 -73 232 -79Q234 -81 238 -81Q244 -81 246 -79Q250 -86 250 -93Q249 -104 241 -113Q233 -121 226 -128H228Q239 -125 253 -119Q251 -129 240 -136Q230 -143 220 -149Q174 -127 148 -71Q133 -65 121 -47Q114 -36 102 -14L98 -15Q92 -15 89 -10Q85 -5 82 -2Q76 -3 69 -9Q59 -18 50 -18Q30 -45 26 -78V-83Q27 -97 36 -128Q47 -167 47 -192Q47 -203 46 -209Q52 -200 56 -185V-188Q52 -228 47 -268Q47 -274 49 -286Q61 -265 62 -236Q67 -191 69 -182Q71 -188 71 -193Q67 -218 63 -244Q63 -250 64 -253Q74 -236 76 -214Q83 -191 88 -176Q103 -173 117 -170Q231 -250 327 -340Q350 -363 350 -370V-372Q349 -384 337 -392Q325 -399 317 -406Q250 -355 225 -317H223Q215 -317 213 -311Q210 -306 204 -298Q194 -289 183 -281Q179 -274 178 -270Q176 -265 170 -265Q165 -265 158 -274Q154 -268 149 -262Q141 -273 134 -285Q126 -297 112 -305Q110 -309 110 -312Q111 -316 111 -321Q111 -324 109 -328Q107 -330 105 -330Q101 -329 96 -329H93Q93 -340 83 -348Q71 -358 69 -364Q69 -391 81 -433Q91 -440 102 -463Q109 -478 115 -485Q116 -482 116 -480Q111 -461 106 -442Q129 -447 152 -466Q180 -491 208 -517Q214 -521 221 -526Q227 -530 229 -539V-543Q227 -554 225 -566V-568Q228 -602 273 -602Q277 -598 284 -597Q292 -596 296 -593Q309 -603 322 -614Q335 -625 341 -643Q340 -648 336 -653Q331 -658 331 -663V-665Q339 -665 347 -659Q356 -665 365 -672Q374 -678 386 -679Q394 -679 398 -677Q403 -674 407 -668Q411 -662 419 -661L423 -662V-660L424 -656Q438 -651 453 -639Q473 -623 475 -607Q482 -577 486 -540Q486 -526 482 -517Q480 -512 472 -502Q462 -490 461 -482Q453 -484 448 -484Q425 -484 405 -464Q414 -449 416 -446Q423 -436 433 -433Q441 -412 450 -392L451 -390L455 -391L456 -390V-389Q463 -373 475 -353Q487 -335 500 -309Q513 -284 514 -257V-253Q512 -240 510 -227Q510 -219 514 -214Q493 -143 444 -97Q395 -51 346 -5Q345 0 343 5Z"/>
</svg>