<svg xmlns="http://www.w3.org/2000/svg" viewBox="0 -800 1024 1024">
	<path fill="#000000" d="M383 -27Q381 -26 375 -26Q358 -26 358 -35Q358 -39 360 -41Q367 -40 372 -34Q377 -27 383 -27ZM926 -410H930Q929 -403 917 -401Q905 -398 898 -395Q905 -409 926 -410ZM74 -269H76V-266Q77 -258 78 -251Q78 -248 77 -246Q66 -249 66 -261V-264Q69 -267 74 -269ZM818 -716V-725Q827 -731 833 -731Q837 -731 840 -728Q835 -718 818 -716ZM841 -526Q844 -520 839 -513L834 -489Q800 -485 800 -470V-467Q803 -463 813 -463H827Q836 -463 839 -461Q837 -457 828 -454Q818 -450 816 -445L817 -444Q822 -445 827 -447Q830 -447 831 -445Q820 -441 820 -432Q820 -426 831 -426Q824 -423 821 -413Q820 -409 811 -403Q803 -397 803 -393V-391Q776 -390 756 -385Q735 -379 717 -376Q699 -366 690 -343Q763 -355 776 -358Q829 -370 848 -386Q869 -388 890 -391Q889 -385 887 -380Q887 -377 889 -375Q894 -369 899 -369Q915 -374 933 -379H934Q914 -372 914 -353Q915 -350 915 -347L916 -346Q919 -347 921 -349H922Q919 -341 919 -321V-305Q919 -281 912 -273Q904 -266 890 -265Q876 -264 863 -262Q823 -252 794 -208Q800 -204 806 -201Q810 -204 814 -208Q819 -213 828 -213Q819 -202 813 -186Q813 -178 822 -177Q808 -166 801 -135Q799 -128 788 -121Q777 -115 770 -108Q764 -101 757 -85Q752 -73 747 -66Q734 -21 725 -5V-4Q715 24 711 54Q710 62 702 75Q693 89 693 100Q682 101 661 109Q645 115 637 117Q600 81 568 41Q578 48 591 51Q586 46 568 37Q550 28 544 23Q563 29 582 35Q556 21 529 6H531Q541 6 559 13Q580 21 591 21H598Q615 16 641 -31Q664 -79 679 -128Q670 -127 652 -127Q625 -117 605 -98Q595 -88 570 -57Q557 -42 543 -27Q530 -11 524 6L503 32Q502 43 491 54Q480 65 474 74H471Q465 74 458 73H455Q432 61 413 19Q400 -10 392 -18Q412 -12 419 -7Q414 -14 397 -27Q373 -45 367 -59Q387 -48 403 -34Q419 -20 447 -15Q476 -31 496 -54Q516 -78 536 -102Q533 -103 528 -103Q519 -102 513 -97Q506 -91 500 -87Q485 -88 478 -102Q469 -120 462 -123V-132Q462 -153 472 -159Q471 -162 471 -166Q472 -185 491 -192Q509 -200 528 -207L576 -216Q580 -235 589 -249Q599 -250 603 -256Q607 -262 613 -268Q630 -266 647 -264H650Q651 -261 659 -214Q671 -214 684 -224Q699 -235 713 -235Q717 -234 720 -234Q740 -260 760 -287Q751 -288 734 -288Q673 -288 588 -264Q518 -242 494 -230Q481 -222 477 -211Q473 -199 468 -185Q458 -168 441 -154Q423 -156 404 -159Q395 -159 391 -156V-161Q390 -173 379 -174Q364 -174 364 -159V-156Q359 -158 359 -162Q359 -164 366 -175Q349 -186 345 -190Q331 -205 326 -236Q326 -256 327 -265Q302 -219 277 -174Q251 -126 239 -93Q236 -87 233 -79Q231 -71 224 -68L200 -29Q187 -5 187 14Q187 22 188 27Q158 36 152 46Q134 42 116 38Q108 38 104 40V38Q106 32 108 26Q97 6 86 -11Q74 -29 73 -57Q73 -67 74 -72Q75 -82 83 -98Q91 -114 92 -122Q93 -126 93 -133Q93 -147 84 -173Q76 -196 76 -209Q76 -221 80 -230Q91 -173 111 -134Q123 -141 145 -165Q158 -179 169 -188Q161 -192 155 -197Q154 -201 152 -206Q145 -211 137 -215Q130 -218 129 -231V-234Q129 -253 136 -272Q144 -294 157 -294H159L161 -292V-287Q174 -282 185 -282Q203 -282 225 -292Q229 -294 262 -311Q245 -316 227 -319Q222 -319 220 -318Q220 -324 224 -332Q220 -337 215 -341Q210 -345 208 -353Q192 -356 176 -359Q181 -362 190 -363Q201 -364 206 -372Q206 -379 199 -384Q207 -388 207 -392Q203 -401 199 -411Q203 -410 211 -404Q220 -410 229 -416Q233 -414 242 -414Q249 -414 252 -408Q254 -409 258 -409Q274 -408 286 -393Q298 -379 310 -366Q335 -408 359 -451Q352 -454 345 -454Q332 -453 323 -446Q313 -439 303 -433H296Q291 -433 291 -427Q269 -432 249 -445Q234 -458 224 -474Q213 -489 208 -502Q207 -507 207 -516Q207 -532 218 -556Q230 -581 230 -597Q235 -600 267 -632Q289 -653 311 -659Q291 -636 291 -625Q291 -617 298 -611H301Q326 -615 350 -619Q356 -619 359 -618Q379 -629 394 -629Q400 -629 403 -628Q412 -632 464 -644Q458 -732 411 -752Q427 -772 448 -787Q468 -803 488 -818Q526 -818 526 -802V-800L535 -789H538Q548 -786 557 -783Q556 -780 556 -775Q556 -754 578 -749Q573 -744 573 -738Q575 -727 576 -717V-713Q574 -706 565 -696Q553 -683 553 -675Q553 -671 556 -665Q635 -682 692 -693Q700 -700 726 -705Q755 -711 763 -722Q767 -706 782 -706Q789 -706 810 -713Q803 -701 797 -690Q799 -687 801 -684Q810 -686 818 -689Q814 -682 810 -675Q813 -665 824 -663Q821 -657 821 -651Q822 -638 831 -630Q840 -621 849 -614Q841 -611 838 -608Q835 -605 835 -597Q835 -586 837 -576Q812 -571 786 -567L788 -565Q803 -560 832 -536Q835 -535 842 -528ZM666 -546Q635 -540 523 -511L521 -510Q537 -506 548 -506H560Q570 -493 573 -478Q573 -472 569 -468H573Q596 -468 629 -479Q663 -490 682 -491Q690 -506 693 -525Q693 -533 686 -539Q684 -540 681 -540Q670 -536 658 -532Q659 -537 666 -546ZM630 -332Q640 -350 643 -361Q640 -362 635 -362Q602 -362 594 -350Q596 -338 596 -332Q596 -328 596 -324Q613 -328 630 -332ZM518 -303Q507 -311 497 -325Q488 -325 474 -320Q463 -316 459 -316Q454 -316 447 -321Q441 -328 434 -339Q423 -352 418 -363V-365Q418 -373 414 -374Q408 -376 404 -380Q401 -383 401 -393Q378 -351 354 -311Q366 -318 370 -317Q375 -318 376 -326Q385 -312 404 -308Q407 -308 409 -309Q414 -300 425 -296Q437 -293 447 -289Q459 -289 477 -295Q501 -303 513 -303Q516 -303 518 -303ZM435 -444Q424 -429 411 -409Q422 -419 446 -422Q445 -430 435 -444Z"/>
</svg>