<svg xmlns="http://www.w3.org/2000/svg" viewBox="0 -800 1024 1024">
	<path fill="#000000" d="M525 -128L524 -130Q512 -127 501 -125Q490 -123 484 -116Q497 -114 509 -112Q520 -120 525 -128ZM697 -226Q678 -230 654 -230Q613 -230 567 -219V-217Q568 -211 568 -205Q568 -198 565 -194Q545 -189 533 -176Q579 -182 620 -209V-208Q618 -201 616 -194L617 -191H619Q625 -191 630 -192L633 -191L632 -190H630L628 -189L629 -187Q649 -167 649 -156Q649 -147 636 -137Q561 -80 485 -23Q515 -27 544 -32Q578 -51 611 -71Q631 -86 662 -140Q681 -171 685 -180Q697 -205 697 -226ZM416 -453Q389 -449 385 -448Q368 -442 354 -431Q338 -419 338 -407Q338 -399 344 -394Q338 -383 332 -372Q336 -371 344 -367Q377 -395 416 -453ZM117 -616Q108 -619 106 -632Q106 -640 115 -640V-633Q115 -626 117 -616ZM821 -372H826Q821 -355 810 -349V-356Q810 -372 821 -372ZM624 -464Q651 -437 676 -420Q679 -408 675 -402Q678 -398 682 -384Q668 -372 658 -357Q642 -351 625 -348Q620 -348 615 -348Q605 -374 590 -393Q574 -411 561 -433L548 -437Q540 -450 520 -472Q521 -476 521 -481Q521 -486 526 -491Q523 -491 520 -491Q504 -491 493 -482Q495 -479 495 -473Q493 -460 490 -447Q490 -444 492 -438Q477 -418 468 -400L456 -394Q446 -371 433 -350Q420 -330 413 -303Q408 -302 403 -302Q393 -302 369 -306Q358 -320 342 -330Q344 -344 347 -349Q334 -362 332 -363Q307 -333 285 -310Q258 -308 245 -298Q242 -299 239 -301Q222 -280 210 -256Q215 -258 224 -269Q235 -282 243 -282H245Q245 -275 238 -270Q233 -266 232 -262Q236 -253 252 -253H259Q274 -244 290 -230Q295 -228 300 -227Q306 -222 311 -215Q317 -209 328 -208Q343 -209 359 -217Q375 -225 389 -232Q396 -234 403 -237Q401 -243 399 -259Q402 -256 407 -238L411 -239Q409 -247 407 -253Q411 -246 415 -240Q421 -241 426 -243Q432 -252 433 -254Q439 -263 444 -273Q446 -281 450 -283L446 -297Q445 -305 454 -320Q460 -329 461 -335Q461 -350 465 -366Q474 -372 482 -379Q490 -387 502 -389Q509 -389 513 -388Q517 -381 531 -371Q542 -363 546 -358Q547 -345 562 -332Q564 -318 567 -316Q566 -310 565 -305V-301Q550 -283 532 -271Q557 -276 581 -282Q630 -292 722 -298Q728 -297 734 -297Q738 -297 740 -298Q758 -305 774 -319Q790 -329 805 -340V-339Q803 -331 801 -323Q801 -317 808 -316Q815 -317 825 -326Q834 -334 842 -335Q839 -329 834 -326Q829 -322 828 -314Q828 -310 829 -308Q835 -305 841 -305Q850 -305 867 -315Q889 -328 903 -328Q892 -318 878 -310Q864 -303 863 -287V-285H865Q873 -288 880 -291L883 -290V-289Q883 -286 878 -283Q873 -280 873 -276V-274Q895 -245 912 -202Q908 -198 908 -190Q909 -186 909 -182Q899 -166 868 -154Q838 -143 829 -130Q821 -117 817 -105Q813 -92 796 -88L784 -68Q781 -37 762 -14Q744 10 725 31Q702 62 650 114Q649 109 645 109Q641 109 636 117Q628 109 617 109H614Q606 97 592 92Q573 87 570 66V65Q554 61 533 61Q492 63 454 68Q424 70 415 76Q410 79 402 88Q390 102 383 103Q381 104 378 104Q368 104 353 95Q338 86 330 86Q329 75 320 71Q311 66 303 61Q297 52 294 43Q291 33 281 28Q271 12 269 -11V-14L266 -32Q257 -37 246 -54Q233 -73 222 -78Q217 -77 209 -77Q175 -79 159 -103Q143 -128 127 -152Q134 -204 161 -241Q165 -246 185 -254Q197 -267 209 -280Q221 -294 236 -303Q225 -310 212 -317Q198 -325 186 -326Q173 -326 166 -315Q168 -321 168 -323Q168 -337 150 -351Q132 -345 117 -333Q103 -322 89 -312Q97 -327 110 -339Q122 -352 133 -364Q122 -392 98 -394Q85 -416 71 -435Q53 -433 42 -424V-426Q43 -439 52 -443Q61 -448 70 -453Q70 -468 61 -477Q56 -482 42 -490H44Q49 -489 54 -488L58 -489Q65 -499 68 -512Q72 -525 83 -531Q81 -543 79 -556Q91 -552 100 -545Q109 -551 121 -554H123V-560Q123 -565 117 -601Q122 -595 127 -585Q135 -568 142 -564Q146 -565 151 -570Q158 -576 164 -576H169Q173 -577 179 -583Q186 -589 191 -591L192 -589Q189 -584 185 -579Q196 -558 216 -547Q236 -537 253 -522Q283 -533 312 -534Q316 -535 351 -545Q359 -549 366 -554Q406 -573 445 -580Q438 -619 424 -649V-651Q426 -654 428 -657Q411 -688 378 -691Q387 -697 407 -705V-706Q407 -708 404 -710Q401 -712 401 -715Q441 -740 484 -771H502Q514 -771 519 -769Q524 -760 535 -749Q550 -734 554 -723L573 -700Q582 -686 582 -672Q581 -656 575 -641Q568 -626 561 -611Q643 -633 727 -651Q747 -654 767 -658Q793 -668 819 -679Q844 -691 872 -694Q877 -687 881 -680H882Q885 -680 889 -685Q892 -689 894 -689L896 -688Q900 -688 900 -686Q898 -681 896 -677Q901 -679 910 -686Q921 -695 929 -695H930Q925 -686 917 -681Q909 -675 908 -661V-658Q915 -659 927 -679Q927 -675 923 -664Q918 -650 918 -641V-637Q921 -623 933 -616Q930 -611 930 -606Q932 -594 934 -582V-580Q927 -555 912 -537H908Q891 -533 873 -530Q868 -530 866 -531L852 -520Q807 -493 788 -476Q756 -449 742 -415Q727 -419 705 -435Q680 -453 660 -456Q661 -460 661 -465Q661 -478 653 -479Q646 -478 637 -471Q630 -466 624 -464ZM623 -465Q643 -492 650 -501Q667 -521 684 -531H675Q620 -531 591 -510Q592 -507 579 -504Q583 -503 593 -497Q613 -475 623 -465ZM433 -170L434 -174Q432 -177 427 -179Q373 -160 349 -140Q358 -105 367 -69Q376 -34 392 -5Q410 -5 414 -11Q397 -34 377 -52Q385 -51 392 -51Q397 -51 401 -53Q398 -57 385 -61Q372 -65 368 -70Q375 -69 388 -69Q428 -69 454 -86Q447 -90 444 -99L445 -103Q430 -99 413 -99Q387 -99 373 -113Q375 -123 375 -125Q375 -130 373 -140H374Q389 -145 403 -150Q407 -150 411 -146L419 -155Q419 -165 433 -170Z"/>
</svg>