<svg xmlns="http://www.w3.org/2000/svg" viewBox="0 -800 1024 1024">
	<path fill="#000000" d="M714 -190L717 -187Q721 -180 716 -177Q712 -175 706 -170Q701 -181 714 -190ZM822 -150H824Q825 -148 825 -142Q823 -130 821 -119Q813 -123 813 -137Q813 -150 822 -150ZM704 -148V-144Q708 -132 725 -132Q747 -135 768 -138Q762 -132 754 -126Q746 -119 745 -111Q745 -97 756 -89Q761 -92 769 -92Q775 -92 777 -91Q768 -88 762 -77Q763 -69 763 -59Q763 -50 771 -49Q760 -45 754 -37Q748 -29 741 -21Q734 -24 722 -24Q711 -24 703 -21Q694 -28 684 -35Q675 -43 662 -44Q655 -44 651 -42Q653 -46 655 -50Q646 -66 637 -83Q629 -100 628 -121Q628 -136 633 -150L647 -143Q653 -150 666 -150Q671 -150 689 -147Q694 -150 704 -167Q706 -165 706 -162Q705 -155 704 -148ZM174 -281V-279Q173 -268 161 -266Q158 -266 156 -267V-270Q156 -282 168 -282Q173 -282 174 -281ZM301 -255H299Q292 -255 278 -263Q259 -274 249 -274Q243 -274 240 -273V-280Q240 -303 225 -309Q203 -304 197 -300Q190 -291 182 -288H180L179 -290Q179 -297 191 -307Q204 -318 205 -327Q204 -332 198 -332Q192 -331 185 -330V-332Q186 -342 192 -347L181 -357H175Q146 -357 119 -345Q109 -338 98 -336L94 -337Q111 -349 142 -369Q155 -376 169 -386Q184 -397 185 -410V-412Q185 -420 174 -426Q164 -431 162 -435Q164 -437 170 -437Q182 -434 193 -432H194Q205 -433 219 -450Q230 -463 237 -466Q246 -452 260 -450Q274 -448 287 -443Q292 -440 300 -428Q308 -416 313 -412Q318 -408 330 -407Q339 -406 346 -402Q355 -355 355 -325Q355 -306 352 -285Q348 -280 343 -272Q338 -264 332 -262Q308 -255 301 -255ZM725 -248Q691 -267 681 -277Q672 -283 656 -318Q650 -329 633 -348Q618 -364 613 -372Q596 -404 579 -437V-438Q579 -442 582 -443Q584 -445 584 -448Q582 -453 571 -458Q565 -461 562 -465L569 -467Q613 -470 653 -460Q659 -463 665 -466Q669 -457 679 -456Q688 -455 698 -455Q713 -474 724 -479V-477Q724 -475 722 -471Q717 -463 718 -456L719 -453H721Q725 -457 728 -461H730L733 -460Q732 -456 731 -452L732 -450Q745 -459 768 -488Q791 -518 808 -529V-527Q809 -523 798 -510Q774 -476 774 -475Q759 -449 762 -429L763 -423Q770 -407 786 -410Q809 -418 827 -433Q822 -421 814 -411Q806 -402 807 -388V-385Q812 -366 834 -372Q844 -374 868 -380L878 -381Q873 -374 860 -366Q843 -355 839 -348Q837 -339 839 -326L841 -314Q843 -306 843 -301Q843 -290 829 -278Q819 -270 817 -264Q812 -253 815 -240L818 -221Q811 -220 806 -230Q801 -240 795 -240H792Q788 -238 776 -227Q763 -229 750 -232Q746 -230 745 -230Q727 -240 725 -248ZM572 -582Q567 -569 562 -560Q556 -551 560 -535Q547 -525 545 -481Q543 -447 538 -436L537 -393Q544 -390 546 -370Q547 -355 551 -350Q546 -336 546 -311Q547 -298 547 -286Q547 -277 546 -269Q544 -259 542 -253Q570 -257 583 -257Q586 -258 592 -258Q606 -258 627 -243V-237Q627 -219 641 -207Q637 -199 626 -187Q611 -171 608 -157Q605 -157 602 -158Q590 -157 578 -156Q566 -156 565 -164L556 -161Q554 -154 540 -152Q528 -150 527 -146Q527 -134 539 -134H541Q540 -129 538 -124V-122H542Q548 -122 559 -127Q570 -132 578 -132Q583 -132 586 -131Q585 -126 583 -121V-119Q587 -117 590 -117Q601 -119 611 -122L615 -121Q614 -118 609 -117Q602 -116 602 -113Q603 -101 614 -101Q612 -93 612 -88Q614 -77 615 -67Q606 -55 595 -45Q559 -44 530 -41Q504 -39 502 -10Q502 -3 503 1Q538 -4 592 -4Q628 -3 664 -3Q753 -3 796 -21Q798 -60 802 -97Q806 -88 809 -69Q813 -46 817 -39Q820 -48 820 -63Q820 -79 819 -95Q819 -105 821 -115Q825 -100 828 -69Q831 -33 836 -19Q837 -22 837 -31V-56Q844 -33 851 -11Q858 11 877 20Q874 22 874 25Q879 37 888 45Q880 51 870 70Q860 88 852 94Q834 106 805 106Q781 100 756 94L703 84H679Q612 74 537 74Q462 74 370 84H356Q350 88 332 94Q314 100 304 106Q269 130 250 130Q237 130 226 125Q214 116 201 107Q188 102 177 98Q167 93 166 80Q167 77 167 74Q170 66 176 57Q173 50 173 42Q173 23 205 12Q221 4 238 -6Q255 -17 267 -19Q245 -3 245 6Q245 13 251 17Q287 11 438 2Q439 1 439 -3V-18H435Q430 -18 419 -12Q409 -7 402 -7Q388 -13 376 -22Q366 -25 358 -27Q348 -29 347 -40Q350 -47 353 -55Q353 -57 350 -62Q361 -86 373 -95Q378 -90 388 -90Q408 -93 428 -97H429V-118Q423 -121 418 -121Q411 -121 398 -111Q385 -101 377 -101H374Q357 -102 344 -115Q331 -128 318 -140Q318 -145 317 -150Q321 -171 325 -193Q325 -199 324 -203Q339 -226 356 -233L358 -230Q356 -225 353 -220Q357 -216 364 -216Q379 -218 394 -220H396V-221Q407 -232 451 -231Q460 -233 468 -235Q461 -246 452 -257Q443 -268 439 -285Q438 -289 438 -298V-310Q438 -326 430 -333Q421 -337 411 -339Q411 -345 422 -345H427Q426 -358 377 -378Q385 -380 408 -376Q434 -371 441 -373Q457 -409 457 -476V-489Q457 -519 448 -529Q348 -500 296 -481Q291 -478 285 -476H275Q239 -478 225 -503Q211 -529 197 -554Q208 -586 221 -619Q222 -633 230 -644Q231 -650 237 -677L236 -680Q236 -696 230 -703Q225 -709 209 -714Q218 -718 227 -722Q231 -749 252 -761Q273 -773 295 -784Q310 -785 325 -787Q341 -787 348 -782Q358 -771 366 -756Q377 -745 387 -734Q397 -720 400 -712Q404 -702 404 -688Q404 -672 397 -662Q390 -653 372 -640Q357 -630 352 -623Q448 -651 537 -666Q626 -682 654 -689Q689 -700 695 -704Q716 -717 733 -736Q753 -752 777 -752Q788 -752 800 -747Q810 -754 818 -763Q826 -772 839 -776V-774Q839 -769 831 -760Q818 -745 818 -736V-735H819Q821 -735 824 -739Q829 -745 833 -745L837 -744Q828 -730 825 -711Q825 -705 826 -702L827 -700Q830 -702 832 -705L834 -702Q832 -696 832 -686Q832 -673 841 -642Q838 -611 814 -599Q790 -587 765 -574Q711 -541 674 -489Q671 -492 666 -492Q660 -492 655 -489Q650 -497 644 -506Q638 -514 627 -515H623Q624 -527 629 -534Q635 -540 640 -548Q630 -545 625 -538Q619 -532 612 -526Q619 -547 647 -577Q665 -597 673 -610Q629 -606 572 -582Z"/>
</svg>