<svg xmlns="http://www.w3.org/2000/svg" viewBox="0 -800 1024 1024">
	<path fill="#000000" d="M791 -591V-587Q791 -581 797 -581Q804 -585 808 -591L807 -593Q801 -591 795 -590ZM933 -138Q928 -123 921 -119Q919 -125 919 -129Q919 -141 926 -141Q929 -141 933 -138ZM887 -689Q884 -686 877 -686Q869 -686 860 -687Q862 -697 877 -697Q887 -697 887 -689ZM684 -333V-330Q685 -325 685 -321Q694 -322 702 -324Q703 -327 703 -332Q703 -337 699 -337Q692 -335 684 -333ZM619 -434H613Q597 -434 574 -415Q585 -419 600 -420Q615 -420 619 -434ZM743 -581Q727 -577 710 -572Q690 -568 688 -545Q720 -552 743 -581ZM613 -536V-537Q608 -538 599 -538Q562 -538 535 -513Q540 -511 549 -511Q562 -511 586 -519Q607 -526 614 -527L615 -530Q614 -533 613 -536ZM732 -468H728Q702 -466 681 -456Q679 -450 679 -446Q679 -440 681 -434Q701 -437 720 -441Q730 -457 732 -468ZM201 -125V-119Q224 -125 247 -132Q246 -134 246 -138Q248 -151 250 -164Q250 -169 249 -171Q227 -166 216 -157Q201 -145 201 -125ZM255 -260V-266Q256 -278 256 -291V-297Q198 -280 198 -250Q198 -242 201 -235Q228 -254 255 -260ZM614 -131H616Q617 -152 617 -193V-220Q614 -221 610 -221Q601 -221 592 -215Q584 -210 581 -210Q578 -210 573 -213Q573 -204 583 -194Q595 -183 597 -177Q599 -173 599 -163V-153Q599 -139 603 -132H606Q610 -131 614 -131ZM259 -392V-448Q259 -467 258 -476Q213 -441 207 -367Q215 -369 228 -378Q248 -391 259 -392ZM961 44V52Q959 83 938 94Q917 105 896 119Q859 116 835 98Q810 80 786 62Q739 32 626 -30Q602 -46 576 -57Q570 -53 567 -53Q563 -53 560 -57Q548 -43 525 -9Q495 35 477 54L473 53Q464 54 455 62Q446 70 440 74H438Q432 74 422 64Q407 48 395 48H390Q395 41 400 33Q397 22 391 7V5Q393 -6 394 -17V-21Q392 -34 366 -40Q368 -43 371 -43Q377 -42 382 -42H385Q379 -51 358 -63Q362 -54 362 -44Q360 -28 358 -13Q345 -11 337 -3Q329 5 319 11H313Q284 11 269 -10Q258 -25 252 -57Q223 -55 209 -39Q195 -22 181 -6H179Q173 -6 164 3H160Q146 0 132 -6Q125 -13 119 -30Q111 -54 101 -59Q107 -69 107 -88Q107 -102 106 -116Q106 -124 108 -132Q102 -160 98 -222Q93 -302 84 -332Q80 -346 65 -369Q45 -400 45 -424Q45 -433 46 -438Q48 -447 65 -496Q55 -533 55 -547Q55 -553 57 -563Q62 -547 66 -530Q69 -514 78 -503V-505Q74 -520 70 -536Q70 -539 72 -543Q78 -540 83 -526Q88 -513 92 -510Q93 -512 93 -515Q91 -524 89 -533H91Q95 -533 102 -524Q107 -517 111 -515Q126 -517 141 -520Q144 -520 152 -518Q159 -512 166 -507Q174 -509 190 -525Q206 -541 212 -547Q235 -566 258 -585Q256 -593 256 -595Q256 -604 265 -617Q275 -631 275 -641Q287 -642 293 -657Q311 -665 331 -665Q353 -665 363 -656Q371 -658 385 -671Q396 -681 406 -685Q404 -676 394 -665Q382 -652 382 -640V-638H384Q386 -638 390 -643Q396 -651 403 -651Q399 -638 395 -618Q396 -614 396 -611Q401 -601 407 -593Q410 -584 410 -571Q410 -540 393 -539Q358 -494 354 -429V-378Q345 -289 341 -189Q341 -120 358 -69H362Q379 -66 396 -63H400Q414 -65 430 -87Q434 -92 452 -122Q462 -139 472 -157Q482 -174 493 -188Q503 -203 508 -223L514 -216Q524 -224 536 -229V-233Q538 -257 543 -279Q561 -291 578 -306V-305Q577 -300 575 -296Q575 -292 578 -291Q586 -295 616 -301V-318Q582 -315 550 -302Q518 -289 489 -276Q459 -260 449 -260H447Q433 -260 410 -275Q389 -289 379 -301V-303Q381 -316 385 -324Q386 -331 386 -343V-361Q386 -381 393 -389Q404 -401 422 -410Q439 -420 456 -429Q456 -426 448 -419Q437 -410 437 -400V-398Q447 -393 462 -393Q472 -393 515 -401Q504 -423 486 -438Q487 -441 487 -446Q487 -454 478 -465Q470 -474 468 -480Q474 -478 480 -472Q486 -466 490 -465Q487 -473 462 -493L465 -495Q469 -493 472 -492Q459 -509 443 -524Q428 -539 419 -561L421 -562Q423 -562 427 -557Q433 -550 437 -549Q440 -551 443 -553Q439 -566 423 -582L426 -583Q435 -578 446 -573Q443 -583 432 -596Q422 -608 419 -616H420Q424 -616 434 -608Q448 -596 454 -596Q457 -596 459 -597Q458 -603 453 -609Q447 -616 446 -621Q459 -614 472 -608Q476 -610 486 -612Q500 -606 516 -606Q539 -607 563 -615Q587 -622 608 -627Q604 -658 585 -663Q580 -688 578 -693Q571 -709 558 -709Q552 -709 549 -708Q552 -716 560 -717Q568 -718 575 -722L576 -723Q575 -726 573 -730V-731Q590 -734 617 -757Q642 -778 657 -778Q670 -778 684 -767Q712 -739 733 -707Q723 -684 715 -660Q777 -671 826 -701Q818 -688 818 -678Q818 -675 820 -671Q837 -676 848 -684Q847 -681 840 -673Q829 -661 829 -653Q829 -647 835 -641Q845 -644 854 -648Q849 -639 843 -632Q838 -625 837 -613Q837 -606 838 -602Q829 -597 820 -593Q811 -588 810 -576H812Q816 -576 821 -580Q826 -584 832 -584H835Q834 -580 829 -576Q824 -572 823 -570L825 -569Q829 -570 833 -572H834Q830 -567 830 -561Q830 -553 840 -540Q847 -531 848 -528Q846 -524 846 -518Q847 -514 847 -510Q844 -502 833 -488Q820 -471 817 -459Q840 -460 859 -472Q878 -484 897 -493L899 -490Q897 -482 894 -475V-474H896Q905 -474 920 -481Q936 -488 944 -489Q941 -485 931 -480Q920 -475 917 -468Q919 -462 927 -462H939Q939 -459 934 -454Q930 -450 929 -446V-445Q933 -433 938 -421Q936 -411 933 -401Q931 -395 926 -387Q917 -373 917 -365V-363Q906 -359 889 -359Q859 -360 829 -362Q805 -362 792 -355Q787 -346 773 -300Q763 -267 759 -260Q749 -241 729 -241H726V-243L727 -247L726 -249H722Q708 -247 693 -246H690Q689 -244 689 -236Q689 -228 690 -226Q746 -237 798 -261Q795 -253 791 -246Q794 -241 799 -241Q810 -244 821 -248Q823 -248 829 -246Q829 -243 822 -241Q816 -240 816 -236V-233L817 -231L821 -232L823 -231Q816 -223 816 -208Q817 -197 817 -186V-183Q816 -178 810 -170Q803 -161 803 -155V-153L789 -157Q763 -153 735 -150Q706 -147 688 -134Q685 -128 685 -122Q687 -105 705 -97Q723 -89 739 -84Q784 -65 794 -56Q824 -42 844 -42Q856 -42 865 -48Q865 -57 869 -69L871 -66V-61L872 -59Q879 -85 883 -141Q887 -194 891 -213Q894 -188 894 -145Q894 -80 900 -57Q902 -68 902 -91V-113Q902 -147 908 -163Q910 -147 910 -137Q910 -119 909 -101Q909 -76 914 -62Q916 -85 918 -108Q927 -93 927 -73Q930 -59 943 -23Q959 20 961 44Z"/>
</svg>