<svg xmlns="http://www.w3.org/2000/svg" viewBox="0 -800 1024 1024">
	<path fill="#000000" d="M616 -246Q609 -249 590 -249Q580 -249 575 -239Q571 -231 571 -220V-217Q588 -221 614 -223Q616 -230 616 -246ZM722 -263Q716 -265 698 -265Q691 -265 686 -259Q682 -254 682 -247Q682 -239 686 -234H688Q700 -235 712 -236Q715 -242 722 -263ZM616 -352Q613 -367 614 -384Q614 -401 606 -412Q544 -404 533 -395Q544 -371 550 -363Q563 -346 580 -346Q604 -346 616 -352ZM601 -535Q601 -557 595 -557H576Q564 -552 541 -545Q517 -538 496 -522H535Q567 -526 601 -535ZM756 -385Q755 -403 742 -419Q747 -427 751 -435Q706 -435 696 -424V-419Q692 -397 688 -376Q688 -371 690 -363Q725 -363 755 -371Q756 -376 756 -385ZM233 7Q226 18 216 25Q207 31 198 39Q191 52 182 68Q174 83 157 84Q152 84 149 83Q142 79 136 71Q130 63 125 56Q113 55 103 54Q93 53 85 44Q76 30 76 10Q76 -10 85 -24Q76 -37 76 -62Q76 -76 80 -87Q84 -97 93 -107Q102 -117 110 -127Q117 -137 124 -148Q131 -158 140 -160Q129 -142 125 -123Q125 -119 127 -111Q133 -105 141 -105Q148 -106 154 -108Q170 -113 185 -118Q211 -127 250 -149Q297 -166 337 -187Q343 -188 360 -196Q377 -204 388 -206Q385 -195 381 -184Q383 -181 384 -181Q388 -183 392 -186L394 -184L395 -181Q395 -177 390 -167Q393 -160 398 -157Q385 -124 385 -106L388 -105L392 -104Q381 -89 378 -63V-60Q311 -38 253 2ZM405 -576Q405 -573 405 -570Q402 -556 398 -542V-538Q369 -531 351 -517Q334 -503 310 -484Q298 -476 269 -473Q248 -471 240 -453Q244 -451 254 -451Q277 -451 307 -465Q305 -457 303 -450Q304 -439 313 -426Q323 -412 323 -402V-401Q322 -384 290 -358Q258 -332 254 -314Q276 -329 301 -339Q316 -358 341 -361Q349 -359 355 -359Q359 -359 363 -362L366 -356Q377 -342 388 -328Q389 -326 391 -318Q404 -329 425 -342L446 -369Q446 -377 466 -389Q484 -400 500 -404Q497 -406 476 -408Q452 -410 449 -413Q451 -418 450 -420Q446 -430 431 -438Q416 -447 406 -454L397 -465Q389 -476 381 -487L366 -500Q371 -501 372 -503Q371 -505 369 -506Q369 -507 374 -507L442 -509Q460 -517 476 -521Q472 -529 460 -539Q445 -551 433 -551H431Q421 -548 411 -545H407Q408 -549 416 -554Q422 -558 424 -563Q418 -574 405 -576ZM397 -615Q418 -631 439 -648Q461 -662 483 -676Q490 -682 500 -689Q509 -695 521 -696Q526 -696 528 -695L594 -717Q595 -725 602 -734Q610 -744 620 -746V-748Q620 -756 626 -765Q632 -774 632 -780Q644 -781 673 -790Q703 -799 722 -799Q743 -798 759 -784Q781 -764 791 -760Q804 -763 805 -764Q807 -763 812 -752Q832 -761 840 -761H846Q842 -755 836 -752Q831 -748 829 -740Q836 -724 848 -711Q846 -705 846 -693Q847 -680 847 -667Q847 -663 845 -653Q843 -646 831 -636Q824 -630 821 -625Q815 -626 805 -626Q776 -625 748 -614Q721 -603 699 -593Q704 -590 706 -578Q708 -568 709 -566H710Q725 -568 739 -571Q744 -571 749 -567L777 -571Q778 -582 794 -587Q809 -592 822 -596Q825 -580 838 -573Q857 -579 878 -582Q884 -582 887 -581Q879 -576 868 -572Q857 -568 854 -557Q855 -553 860 -553Q867 -553 874 -554L878 -553Q877 -548 871 -543Q865 -539 864 -536Q867 -530 877 -528Q871 -522 871 -510Q871 -508 874 -490Q868 -481 865 -467Q861 -452 849 -451L845 -452Q846 -440 860 -434Q878 -444 886 -444Q892 -444 895 -443Q886 -431 877 -419Q878 -411 887 -406Q881 -401 878 -393Q885 -393 892 -394Q912 -393 932 -393Q946 -393 958 -396L959 -394Q958 -393 955 -392Q951 -391 950 -387V-385Q950 -377 963 -377H970V-376Q968 -370 965 -368Q967 -363 967 -353Q967 -341 961 -315Q955 -291 955 -280H950Q933 -276 915 -273Q907 -273 903 -280L868 -281Q867 -274 854 -274Q846 -274 837 -275Q830 -275 828 -274Q814 -263 802 -230Q860 -233 862 -233Q867 -233 872 -234Q876 -234 878 -232Q875 -227 875 -222Q875 -208 892 -208H895Q883 -193 883 -163Q883 -149 886 -139Q876 -136 864 -136Q852 -135 851 -124V-123Q842 -119 824 -119Q769 -118 714 -117Q695 -117 681 -111Q674 -104 674 -89Q674 -83 676 -80Q681 -79 678 -78Q677 -78 682 -78Q754 -81 774 -83Q788 -85 802 -91Q804 -104 821 -112L819 -103Q816 -94 821 -85Q835 -88 848 -92Q850 -92 856 -90Q846 -77 837 -63Q838 -59 841 -59Q849 -60 856 -62H858Q854 -54 854 -43Q854 -17 875 -8Q869 34 863 45Q854 52 844 58Q840 59 835 59Q823 58 811 57Q808 57 806 58Q802 56 798 50Q795 45 786 42Q777 40 768 38Q759 36 754 28L748 25Q742 31 733 31Q723 28 713 25H704Q685 27 665 28Q645 31 625 34Q616 34 612 30L573 39Q569 42 567 49Q528 60 501 79Q472 77 461 62Q450 47 431 36Q427 27 427 14Q427 -10 445 -22Q442 -29 442 -36Q442 -53 465 -65Q483 -77 494 -81H497L499 -79Q499 -76 493 -74Q488 -72 488 -70L490 -67Q496 -65 523 -65Q536 -65 555 -69Q578 -74 595 -74H601Q608 -78 608 -91Q608 -95 606 -101Q576 -99 530 -92Q473 -84 461 -77Q450 -80 441 -91Q432 -103 422 -112Q411 -120 407 -124Q400 -131 400 -139Q400 -148 405 -157Q401 -164 401 -172Q401 -195 439 -197L508 -199Q506 -203 503 -223Q485 -221 437 -204Q401 -216 388 -243Q384 -235 381 -231Q376 -234 363 -223Q354 -215 349 -215Q341 -215 326 -220Q303 -228 290 -225L279 -226Q262 -204 236 -192Q209 -180 198 -149Q168 -146 167 -146Q155 -159 144 -181Q131 -206 121 -214Q136 -253 159 -282Q181 -310 203 -343Q147 -329 137 -285H132Q109 -285 97 -300Q93 -304 75 -339Q58 -370 57 -377Q52 -392 52 -413Q53 -416 53 -420Q56 -431 66 -441Q77 -451 85 -459Q108 -487 129 -503Q151 -518 179 -539Q188 -550 199 -552H201L236 -583Q242 -604 265 -630Q284 -651 290 -665Q288 -673 283 -674Q292 -677 306 -688Q320 -699 335 -699Q346 -699 356 -693Q379 -677 384 -668Q392 -649 395 -622Q396 -618 397 -615Z"/>
</svg>