<svg xmlns="http://www.w3.org/2000/svg" viewBox="0 -800 1024 1024">
	<path fill="#000000" d="M169 -109Q196 -132 223 -171Q236 -185 251 -205Q267 -225 268 -248Q268 -254 265 -262Q244 -250 229 -230Q215 -211 199 -189Q183 -171 171 -158Q158 -144 154 -121Q162 -111 169 -109ZM672 -442Q671 -453 655 -467Q654 -465 654 -461Q655 -453 661 -449Q668 -445 672 -442ZM918 -402V-392Q909 -390 900 -389H897Q897 -403 911 -403Q916 -403 918 -402ZM474 -263L501 -260H503Q510 -263 517 -266Q514 -286 507 -290Q502 -286 489 -279Q476 -272 474 -263ZM575 -237V-239H572Q552 -239 552 -228Q552 -214 556 -210Q565 -215 573 -220L575 -219Q573 -223 573 -225Q574 -231 575 -237ZM518 -195Q516 -201 517 -208Q517 -214 511 -217Q504 -213 488 -206Q472 -200 470 -192Q470 -187 472 -184Q479 -185 518 -195ZM781 -215Q781 -218 780 -221Q781 -228 781 -235Q781 -242 778 -245Q768 -240 758 -236Q756 -224 756 -217Q756 -210 758 -207Q770 -211 781 -215ZM563 -279H565Q570 -280 575 -282Q571 -321 567 -333Q555 -328 546 -320Q557 -318 563 -311Q558 -307 558 -297Q558 -286 563 -279ZM824 -621H822Q809 -616 808 -604Q807 -592 806 -580Q800 -553 784 -528Q767 -504 761 -477Q781 -477 788 -482Q809 -499 813 -544Q817 -591 825 -620ZM90 -268Q85 -261 82 -254Q78 -247 70 -245Q69 -247 69 -251Q70 -267 84 -269Q88 -269 90 -268ZM472 -606Q476 -616 490 -631Q498 -640 502 -646Q500 -656 498 -666V-669H500Q504 -669 506 -662Q508 -656 511 -656L513 -659Q512 -663 510 -667V-669Q520 -662 530 -655Q533 -658 538 -658Q548 -655 558 -650Q560 -634 570 -598Q580 -563 582 -540Q594 -545 609 -545Q637 -545 643 -529Q644 -527 644 -523Q644 -514 643 -506V-503Q650 -485 656 -468Q669 -460 681 -452Q693 -466 704 -480Q678 -495 667 -507Q650 -526 650 -552V-558Q648 -565 641 -577Q632 -592 632 -602Q631 -615 646 -640Q658 -660 660 -671Q663 -661 668 -655Q676 -665 701 -679Q718 -688 727 -696H737Q743 -707 755 -712Q767 -717 779 -722L795 -721Q796 -731 813 -737V-739Q815 -747 819 -753Q834 -759 855 -759Q882 -759 892 -746Q901 -753 915 -756Q910 -747 905 -738Q907 -730 912 -726Q917 -723 920 -718Q925 -720 931 -725Q941 -733 945 -733V-732Q945 -731 939 -722Q932 -711 932 -706Q932 -701 937 -696Q949 -702 961 -709Q945 -693 943 -686Q943 -683 951 -683Q946 -675 946 -667Q946 -652 957 -644Q951 -637 951 -613V-598Q951 -583 949 -577H945Q932 -577 925 -567Q922 -563 915 -545V-537Q894 -485 884 -401Q878 -403 877 -403Q864 -403 853 -382L841 -385V-384Q841 -379 850 -376Q856 -374 858 -371Q868 -381 884 -383H889Q889 -378 884 -374Q880 -371 880 -367V-366Q882 -363 883 -360H884Q893 -363 901 -366L905 -365Q899 -354 889 -347Q895 -343 898 -329Q901 -315 905 -311Q905 -308 900 -304Q895 -300 895 -295L896 -291Q869 -289 853 -275Q837 -261 837 -235Q837 -226 838 -222H839Q848 -222 862 -229Q879 -237 885 -237H886L897 -236V-239Q898 -245 905 -248Q913 -250 918 -253Q929 -264 940 -275Q938 -269 938 -267Q938 -254 948 -251Q961 -252 973 -254H978Q967 -251 964 -241L965 -239Q968 -240 971 -241H972Q960 -231 960 -212Q960 -192 973 -185Q951 -170 951 -154Q951 -149 952 -146Q944 -143 939 -137Q931 -138 916 -138Q865 -138 846 -115V-108Q848 -75 849 -42Q849 -33 847 -15L850 16V19Q854 46 858 72Q858 77 856 85Q851 98 835 101Q818 104 801 108Q791 102 781 82Q771 63 763 57Q765 56 765 51Q765 46 766 45Q757 31 757 6Q757 -12 766 -53Q772 -79 773 -92H770Q737 -90 721 -67Q704 -44 690 -21Q682 -23 674 -26Q671 -26 669 -24Q667 -31 656 -47Q641 -69 641 -84V-90Q645 -98 649 -107Q649 -114 642 -127Q635 -139 635 -144Q635 -169 672 -188Q672 -184 671 -181L670 -177Q670 -175 672 -171Q690 -177 707 -184Q700 -201 689 -213Q687 -229 674 -254Q661 -280 659 -296Q658 -303 658 -317V-333Q658 -356 652 -368Q660 -360 662 -354L663 -356V-357L665 -359H671Q687 -358 696 -351Q706 -344 714 -336Q747 -343 779 -350Q782 -356 782 -362Q782 -378 770 -386Q771 -401 779 -412Q788 -424 800 -424Q807 -424 814 -420Q812 -436 800 -448Q786 -462 768 -462Q762 -462 758 -461Q734 -423 730 -363Q723 -358 715 -358Q698 -358 686 -391Q683 -392 678 -392H674Q676 -396 676 -403Q672 -426 656 -440Q651 -437 649 -431Q647 -425 644 -419Q638 -421 635 -421Q628 -421 609 -407Q639 -406 644 -368V-367Q643 -360 641 -353Q641 -346 647 -329Q652 -315 652 -307V-303Q651 -296 643 -283Q630 -263 629 -253Q627 -231 627 -220Q629 -180 631 -141Q632 -134 632 -128Q632 -122 628 -118L637 -59V-55Q641 -22 645 10Q645 15 644 19Q642 33 627 61Q616 81 613 91Q595 83 584 69Q573 54 560 43Q564 40 567 36Q562 24 562 17Q562 13 563 11Q557 0 547 -5Q536 -10 527 -17H531Q532 -17 549 -12Q546 -20 529 -27Q515 -33 511 -40H515Q521 -40 531 -35Q542 -29 548 -29Q531 -37 516 -47Q500 -57 477 -60Q475 -66 475 -68V-71L478 -72Q483 -72 489 -66Q496 -60 498 -59Q522 -51 548 -49Q553 -50 562 -58Q567 -63 572 -65Q572 -90 576 -120Q573 -121 552 -121Q547 -103 545 -87Q542 -67 537 -63Q531 -60 523 -60Q511 -79 511 -82Q513 -111 509 -109Q495 -100 489 -85L458 -82Q447 -63 439 -6Q433 35 427 54Q415 56 408 56Q402 56 399 55Q366 17 363 -50Q363 -59 365 -75Q364 -78 358 -84Q351 -90 351 -95L352 -98H354Q360 -95 365 -92Q379 -100 383 -116Q387 -132 392 -146L394 -168L388 -178Q388 -190 395 -223Q403 -260 403 -279V-286Q403 -298 409 -315Q416 -334 414 -345Q416 -344 423 -350Q429 -355 431 -354Q433 -355 433 -358L434 -362L443 -357Q445 -361 443 -362Q443 -363 446 -363Q456 -363 473 -359Q491 -355 493 -350Q501 -357 514 -359Q514 -371 510 -376L508 -377Q504 -373 500 -370L499 -371Q503 -390 517 -412Q519 -415 540 -446Q537 -447 532 -447Q521 -447 507 -440Q504 -440 501 -444Q499 -447 496 -448Q469 -440 454 -420Q439 -401 424 -377Q415 -364 406 -342L387 -323Q337 -321 325 -364Q331 -411 332 -410Q330 -420 330 -428Q323 -429 323 -459Q323 -470 324 -473Q324 -475 328 -483Q284 -455 267 -422Q295 -387 310 -340Q326 -294 341 -247Q335 -210 331 -172Q327 -133 301 -116L295 -104Q286 -86 269 -69Q243 -35 195 48Q191 47 186 42Q180 35 173 35H172Q174 33 175 30V29Q157 0 151 -72Q154 -78 157 -84V-88Q155 -101 153 -115Q108 -75 95 -37Q95 -25 89 -17Q85 -17 80 -18Q71 -18 67 -12Q38 -35 38 -93Q38 -103 40 -125Q74 -177 110 -262Q111 -256 111 -251Q109 -223 106 -195V-191Q109 -192 109 -199V-204Q109 -212 112 -213L143 -267Q143 -279 165 -307Q192 -346 196 -357Q177 -353 156 -319Q145 -302 126 -266Q121 -268 116 -278Q113 -285 109 -288H106Q103 -288 100 -283Q98 -279 96 -279H95V-282Q95 -286 99 -291Q103 -296 103 -302H102Q92 -301 84 -294Q76 -286 67 -281Q69 -286 80 -304Q73 -302 61 -289Q51 -278 46 -275Q63 -323 92 -371Q102 -388 150 -455Q141 -465 126 -481Q112 -496 110 -511Q110 -520 111 -524Q118 -548 141 -546Q172 -541 181 -536Q194 -542 194 -562Q194 -581 183 -598Q202 -627 228 -653Q253 -676 278 -676Q285 -676 288 -675Q300 -671 310 -646Q314 -636 322 -605Q329 -584 338 -563Q347 -542 348 -524Q345 -515 342 -507Q344 -509 345 -511Q365 -543 384 -552Q428 -586 472 -606Z"/>
</svg>