<svg xmlns="http://www.w3.org/2000/svg" viewBox="0 -800 1024 1024">
	<path fill="#000000" d="M339 -218Q338 -217 302 -195Q275 -179 273 -167V-165Q275 -156 276 -148Q279 -110 288 -97Q293 -98 302 -105Q311 -112 319 -113Q331 -168 339 -218ZM576 -246H564Q561 -220 565 -216Q574 -242 576 -246ZM678 -205V-208Q644 -208 638 -184Q644 -179 649 -175Q654 -177 675 -186V-188Q677 -196 678 -205ZM630 -353Q630 -358 628 -360Q606 -348 595 -348Q584 -348 578 -358Q569 -357 569 -341Q569 -337 572 -316Q581 -320 597 -322Q622 -326 629 -331V-335Q630 -344 630 -353ZM705 -297Q701 -290 690 -288Q681 -287 677 -283Q649 -268 623 -268Q590 -262 581 -247Q584 -248 591 -248Q615 -245 625 -237Q627 -239 645 -244Q663 -249 665 -252Q682 -262 700 -273Q718 -284 743 -288V-286Q742 -283 741 -280L742 -277Q754 -262 761 -262H763Q765 -271 766 -281Q766 -290 760 -298H753Q736 -296 718 -295H715ZM625 -432Q624 -436 622 -440Q622 -442 625 -445H623Q612 -445 606 -437Q605 -436 597 -421H598Q603 -421 625 -432ZM771 -419Q771 -424 769 -436Q765 -426 751 -417Q743 -412 727 -404Q696 -389 696 -361V-355Q703 -356 719 -365Q737 -375 747 -375Q754 -375 763 -369Q769 -393 771 -419ZM770 -448V-543Q744 -541 713 -516Q689 -497 672 -492Q661 -481 652 -468Q659 -466 683 -454Q689 -459 697 -461Q700 -461 702 -460Q706 -471 716 -476Q727 -481 737 -486Q739 -478 740 -471L757 -475Q760 -468 762 -460Q764 -452 770 -448ZM52 -211Q52 -207 51 -205Q42 -207 42 -217Q42 -220 44 -224L48 -223H49Q51 -217 52 -211ZM653 -19Q642 -22 631 -25Q630 -30 628 -36Q646 -32 653 -19ZM473 -223Q457 -199 445 -196L427 -158V-155Q427 -145 421 -129Q415 -107 413 -95Q409 -77 402 -60Q396 -44 395 -25Q395 -15 396 -10Q395 -8 392 -8Q388 -7 388 -3Q388 0 389 2Q386 3 382 3Q364 -1 348 -5Q344 -5 342 -4Q341 -12 331 -18Q322 -23 320 -28Q303 -14 299 -11Q287 0 283 11Q271 13 267 17Q252 9 226 -7Q212 -22 196 -63Q184 -94 175 -107Q153 -72 151 -69Q139 -46 137 -22Q127 -15 124 -1Q118 1 106 8Q94 7 87 1Q79 -5 70 -9Q70 -29 62 -45Q59 -50 44 -72Q42 -77 42 -85Q42 -95 48 -109Q54 -123 54 -129V-132Q54 -144 44 -168Q33 -194 33 -206Q33 -210 35 -218Q44 -197 52 -177Q60 -156 74 -139Q72 -150 62 -168Q53 -184 51 -196Q58 -191 69 -175Q79 -161 86 -155Q121 -187 176 -266Q219 -327 242 -353Q195 -337 183 -307Q174 -304 165 -304Q143 -305 130 -322Q116 -339 103 -355Q90 -364 85 -371Q83 -375 83 -384Q83 -391 88 -407Q93 -423 93 -432Q93 -435 92 -439Q89 -446 85 -454Q84 -458 84 -465Q86 -489 104 -502Q123 -515 137 -526Q148 -538 157 -550Q166 -561 180 -562Q174 -552 167 -544Q160 -536 157 -523Q163 -520 169 -520Q188 -525 206 -530H209L214 -531Q219 -538 223 -540H225Q232 -540 247 -545Q259 -549 267 -549H271Q282 -560 300 -560H301Q319 -567 337 -575Q339 -579 339 -580V-581Q399 -600 408 -601Q415 -604 421 -609Q426 -614 437 -615Q441 -593 450 -584Q448 -576 446 -569Q436 -555 436 -519Q436 -503 438 -483Q427 -472 424 -459Q424 -454 425 -452Q406 -435 384 -424V-421Q386 -409 387 -397V-394Q285 -320 257 -251Q290 -273 333 -295Q343 -300 365 -318Q390 -337 405 -343Q413 -346 420 -346Q436 -346 443 -337Q443 -339 472 -307Q472 -344 478 -379Q475 -383 475 -388V-392Q475 -397 472 -400Q475 -409 475 -416Q472 -434 469 -453L462 -538Q458 -557 453 -577Q469 -564 472 -562V-565Q472 -574 466 -586H469Q470 -586 486 -579Q502 -572 520 -563Q537 -555 548 -541Q579 -566 677 -625Q694 -640 715 -644Q718 -643 721 -643L733 -655Q745 -675 786 -706Q835 -741 850 -751Q852 -751 852 -746V-738H853Q865 -738 875 -750Q885 -762 894 -762Q880 -742 880 -734Q880 -730 882 -726Q884 -725 887 -725Q891 -725 898 -732Q904 -738 908 -738H909Q907 -732 907 -729Q907 -716 921 -700H922Q926 -703 929 -706L930 -705V-700Q930 -688 941 -678Q947 -673 961 -664Q955 -605 955 -603Q923 -600 914 -580Q913 -572 911 -564Q897 -533 882 -508L875 -479Q880 -475 880 -466Q880 -455 879 -445Q877 -411 877 -386Q877 -355 882 -340Q878 -319 878 -288Q879 -248 880 -209Q880 -176 876 -151L872 -135Q878 -134 878 -127V-117Q887 -56 909 -1Q902 19 903 39Q897 60 877 77Q856 94 841 107Q804 102 774 76Q761 65 727 24Q711 15 694 5Q677 -4 665 -19Q676 -18 693 -10Q713 -1 726 0Q711 -11 675 -32Q631 -58 611 -75Q629 -70 666 -51Q705 -31 727 -28Q721 -41 698 -51Q671 -62 665 -71L699 -60Q729 -51 732 -51H734Q746 -53 750 -64Q754 -75 761 -85Q756 -97 756 -118Q758 -148 759 -178Q759 -192 758 -198Q741 -194 730 -159Q718 -121 703 -114Q688 -122 667 -125Q663 -124 659 -124Q655 -122 655 -119V-117Q653 -119 650 -119Q644 -117 637 -115Q609 -124 596 -147Q582 -171 566 -192Q570 -167 571 -139Q573 -112 585 -96Q583 -92 583 -89Q585 -80 587 -71Q577 -66 563 -47Q544 -21 528 -21H527Q513 -25 499 -30Q493 -30 487 -24V-26Q488 -33 498 -36Q462 -82 441 -147Q454 -150 466 -157Q471 -177 473 -223Z"/>
</svg>