<svg xmlns="http://www.w3.org/2000/svg" viewBox="0 -800 1024 1024">
	<path fill="#000000" d="M687 -653Q546 -642 439 -587Q444 -576 448 -554Q478 -565 522 -576Q584 -590 645 -596Q675 -628 687 -653ZM854 26Q852 42 835 57Q817 72 807 81Q803 80 797 80Q788 81 778 81H773Q761 79 753 70Q746 61 738 52Q731 45 711 35Q693 26 686 18Q702 21 717 23Q686 10 654 -3H658Q676 -3 689 3Q702 9 717 15Q713 5 703 -4Q709 -2 721 -2Q756 -2 756 -22V-29Q720 -29 703 -20Q695 -15 687 -11H685Q671 -12 662 -23Q653 -35 643 -45Q644 -66 650 -72Q657 -79 681 -82Q697 -80 709 -75Q719 -74 732 -78Q750 -83 759 -81V-95Q741 -92 722 -90Q718 -90 708 -92Q701 -94 693 -100Q679 -109 670 -110Q678 -122 689 -126Q714 -134 747 -136Q758 -136 762 -135Q763 -140 762 -146Q750 -146 729 -141Q712 -137 700 -137Q675 -137 654 -154V-157Q652 -166 650 -176Q658 -189 675 -189Q691 -189 714 -191Q703 -194 691 -202Q676 -212 657 -214Q644 -230 662 -254Q668 -252 672 -252Q683 -252 690 -258Q696 -265 701 -271Q702 -265 702 -260V-257Q715 -251 722 -251Q729 -251 738 -254Q737 -247 735 -241Q744 -235 751 -228Q758 -221 761 -211L754 -199H775V-202Q775 -216 790 -235Q804 -253 818 -260V-259Q834 -268 850 -278Q852 -287 867 -289Q881 -291 889 -285Q936 -287 940 -260Q908 -251 872 -217Q880 -221 890 -221Q896 -220 902 -220Q906 -220 918 -222Q917 -220 915 -218V-217L917 -216Q928 -218 939 -221Q942 -221 946 -219Q939 -217 933 -215Q928 -212 926 -205Q930 -203 932 -203Q939 -204 946 -206Q945 -203 941 -201Q936 -198 936 -196V-190Q936 -177 926 -172Q915 -167 898 -166Q864 -168 842 -157Q842 -151 842 -145Q858 -154 867 -154Q887 -154 909 -149Q907 -146 905 -143Q907 -142 910 -142H914Q918 -142 918 -140Q909 -139 908 -133Q907 -126 904 -120Q869 -113 833 -107V-94Q836 -93 842 -93Q853 -93 870 -100Q885 -106 895 -106Q908 -106 915 -100H929Q927 -96 925 -92Q928 -86 934 -82Q936 -75 928 -57L914 -52Q897 -52 880 -52Q873 -52 838 -45Q838 -42 837 -39Q840 -29 842 -19Q842 -16 838 -10ZM734 -532Q750 -534 760 -534H771Q792 -532 802 -525Q801 -523 801 -520Q801 -510 818 -506Q815 -496 811 -486Q776 -481 751 -464Q781 -471 806 -471H808Q806 -469 804 -467H811Q832 -469 852 -472Q845 -469 834 -467Q824 -465 821 -459Q831 -460 841 -461Q833 -457 825 -453H838L842 -452Q835 -449 828 -446V-445L831 -443Q820 -436 812 -427Q788 -425 771 -423Q775 -430 799 -430Q794 -433 777 -433H766Q722 -433 699 -423Q702 -414 700 -407Q741 -414 779 -415Q781 -412 779 -407Q787 -410 794 -414Q788 -408 785 -402Q800 -403 814 -405Q795 -397 791 -394Q795 -392 799 -391Q782 -388 771 -379Q726 -379 695 -374Q697 -367 695 -359Q733 -364 770 -367H778L811 -371Q823 -378 848 -378Q854 -377 859 -377Q882 -386 895 -387Q894 -385 887 -381Q876 -375 876 -371Q876 -370 878 -366Q889 -368 892 -371Q889 -366 886 -361Q886 -358 888 -357Q892 -357 895 -358Q901 -358 902 -355H900Q889 -355 889 -347Q889 -341 896 -340Q883 -328 869 -316Q852 -320 829 -320Q813 -320 752 -313Q732 -311 701 -302Q705 -288 701 -281Q698 -275 671 -262Q660 -255 651 -252Q654 -258 656 -265Q647 -260 639 -254Q631 -255 627 -261Q624 -267 619 -276Q615 -288 617 -297Q595 -294 576 -287Q561 -283 542 -280Q529 -278 510 -266Q496 -258 485 -255H478Q474 -255 451 -262Q430 -266 417 -274Q413 -278 413 -281Q413 -286 421 -297Q416 -305 416 -313Q416 -316 418 -322Q427 -329 451 -330Q470 -331 477 -333Q484 -332 502 -334Q493 -339 483 -351Q488 -357 492 -363Q492 -368 500 -369L498 -373Q498 -383 514 -385Q523 -384 532 -383Q561 -383 612 -397Q606 -403 610 -409H604Q595 -409 567 -404Q542 -395 520 -393H518Q496 -393 496 -403Q473 -412 469 -415L468 -419Q468 -428 480 -430V-433Q481 -442 494 -447Q506 -451 518 -455V-454Q518 -451 517 -449L519 -446Q547 -447 574 -449Q561 -454 543 -455Q541 -463 532 -463H528Q530 -464 531 -466Q525 -470 519 -474L495 -471Q514 -480 518 -484Q511 -495 498 -501Q490 -497 482 -494Q458 -481 433 -469Q417 -451 387 -352Q365 -279 356 -265Q340 -232 336 -224Q338 -225 344 -225Q348 -225 348 -223Q357 -226 364 -226Q378 -225 389 -219Q400 -213 409 -208Q420 -215 431 -222Q421 -210 421 -205Q421 -202 426 -195Q430 -193 434 -191Q438 -188 443 -179Q447 -171 452 -168Q448 -161 444 -155Q452 -155 460 -156Q463 -160 480 -183Q488 -192 495 -201Q503 -210 517 -215L518 -223Q522 -233 526 -244Q526 -249 518 -250Q516 -251 513 -251Q501 -249 489 -247Q507 -257 537 -266Q551 -271 553 -273Q555 -275 572 -275Q584 -275 597 -271Q619 -251 644 -244Q642 -241 642 -236Q646 -222 649 -208Q619 -203 603 -196Q593 -191 574 -176H578Q584 -176 590 -172Q607 -175 624 -178Q609 -169 606 -165Q605 -162 615 -160Q615 -162 623 -162L624 -159Q619 -158 616 -155Q616 -150 626 -150Q622 -145 618 -140Q621 -138 621 -132Q621 -126 618 -122Q612 -119 605 -118Q599 -116 598 -112Q594 -113 583 -113Q550 -113 550 -100V-98Q557 -97 563 -97Q567 -97 577 -99Q591 -93 609 -93Q616 -92 617 -90Q618 -89 616 -85Q615 -80 613 -76Q610 -64 605 -57Q559 -57 513 -46Q509 -41 509 -29V-26Q551 -32 559 -33Q559 -36 559 -39Q577 -44 599 -44Q604 -39 609 -36Q615 -32 619 -25Q622 -18 625 -11V-10Q622 0 605 1Q588 2 572 6H561Q556 8 501 15Q493 25 491 37Q488 50 485 62L482 72Q485 77 485 80Q482 93 474 104Q466 104 448 108Q424 103 400 97Q399 92 386 85Q385 74 374 66Q366 60 349 54H351Q362 56 372 58Q352 47 324 36Q354 44 383 51Q392 45 401 39Q411 33 416 24Q388 31 364 41Q307 27 307 11Q307 5 317 -1Q315 -4 315 -8Q315 -18 329 -25Q334 -28 356 -34V-33Q354 -31 351 -26Q359 -18 374 -16H379Q414 -19 448 -23Q453 -27 454 -32Q433 -32 418 -25Q395 -32 372 -39Q365 -56 349 -58Q353 -62 356 -62L339 -70H344Q350 -70 358 -68Q402 -81 463 -85Q465 -88 462 -91Q434 -86 406 -82Q400 -81 392 -84L382 -88Q365 -96 351 -109V-126Q351 -134 349 -138Q366 -147 397 -147Q379 -153 361 -160Q351 -166 342 -171Q334 -177 318 -180Q315 -178 312 -177Q215 21 192 95Q176 99 168 99Q129 99 104 67Q88 46 87 32V27Q90 4 93 -20V-26Q91 -36 89 -47Q94 -68 99 -89V-93Q94 -140 89 -185V-196Q95 -184 100 -146Q105 -103 116 -88Q117 -90 117 -95Q115 -108 113 -121Q113 -127 116 -130Q120 -128 127 -115Q133 -104 140 -102Q147 -107 160 -123Q178 -145 194 -151L227 -228Q314 -419 356 -558Q331 -555 310 -539Q287 -522 280 -499Q271 -495 259 -495Q244 -495 218 -507Q176 -550 195 -606Q193 -612 193 -624Q193 -641 202 -649Q200 -654 195 -660Q188 -668 187 -676Q194 -676 201 -667Q207 -660 211 -660L215 -661Q213 -667 202 -679Q189 -693 186 -703Q200 -699 208 -689Q217 -680 227 -672Q232 -675 232 -679Q232 -682 225 -690Q218 -698 217 -703Q229 -692 272 -687Q311 -682 325 -672Q347 -679 367 -686Q386 -693 414 -694H421L526 -721Q544 -739 609 -751Q690 -766 696 -767Q717 -773 738 -780Q758 -787 778 -788Q801 -788 819 -773Q833 -779 842 -779Q828 -770 828 -766Q828 -761 837 -751Q852 -762 862 -767Q879 -775 898 -775H901Q888 -766 873 -759Q858 -751 852 -734Q834 -684 812 -658Q800 -653 786 -634Q780 -627 764 -602Q757 -592 750 -585Q743 -579 742 -569Q742 -563 747 -555Q746 -542 734 -532ZM710 -527Q685 -532 647 -532Q639 -531 631 -531Q573 -526 539 -517Q519 -512 501 -503Q508 -501 520 -495Q529 -498 535 -504Q532 -507 528 -510Q535 -508 541 -507Q548 -509 554 -512Q569 -514 570 -516Q592 -507 613 -498Q619 -499 624 -501L671 -510Q675 -515 704 -525Q707 -526 710 -527ZM542 -337Q579 -343 616 -349V-364Q577 -354 565 -350Q559 -348 542 -337ZM318 -188Q315 -183 312 -178Q318 -181 318 -186Z"/>
</svg>