<svg xmlns="http://www.w3.org/2000/svg" viewBox="0 -800 1024 1024">
	<path fill="#000000" d="M57 -140Q52 -145 52 -153Q52 -158 54 -164Q62 -160 63 -148Q63 -141 57 -140ZM873 -443V-447Q873 -461 888 -461H890Q886 -443 873 -443ZM148 -613V-617Q154 -623 173 -627Q165 -613 155 -602Q148 -605 148 -613ZM951 31V34Q906 20 820 12Q774 5 709 2Q681 2 661 6Q647 8 617 16Q581 25 570 34Q561 43 553 53Q544 63 529 64Q510 64 496 48Q489 36 484 19Q481 13 472 4Q463 -6 462 -10V-11Q462 -16 470 -26Q480 -38 481 -47Q482 -60 482 -71Q483 -83 493 -90Q502 -90 513 -95Q524 -100 529 -100Q535 -100 538 -99Q531 -141 524 -183Q519 -197 507 -212Q501 -227 495 -242Q482 -257 477 -274Q476 -288 474 -302Q472 -306 466 -312Q458 -319 458 -327V-328H459Q462 -328 466 -324Q470 -320 475 -320L476 -321Q475 -325 473 -329L475 -332L478 -333Q484 -330 489 -328Q500 -339 514 -347H515Q520 -346 525 -346H527Q549 -349 570 -353Q583 -353 590 -347Q602 -338 606 -322Q610 -306 617 -288Q618 -283 625 -273Q636 -256 637 -249Q638 -245 638 -241Q638 -229 632 -208Q626 -187 626 -177Q626 -168 629 -161Q624 -152 624 -134Q625 -123 625 -113L628 -112Q638 -114 647 -117Q650 -117 652 -116Q661 -129 661 -159Q661 -180 660 -202Q660 -229 664 -240Q655 -304 655 -384Q655 -464 631 -516Q629 -520 619 -535Q604 -556 604 -576Q604 -592 617 -602Q616 -607 614 -613Q623 -617 634 -634Q643 -648 650 -652Q667 -658 684 -664Q700 -676 717 -683Q723 -681 726 -676Q731 -683 735 -683Q746 -673 758 -648Q770 -622 778 -614Q782 -592 785 -570Q790 -554 794 -538Q789 -507 772 -473Q762 -446 762 -422Q762 -408 764 -400Q815 -417 865 -434V-432Q863 -425 861 -419Q872 -421 890 -427Q910 -434 923 -435Q918 -427 902 -421Q880 -413 878 -400L881 -399Q891 -402 900 -406V-405Q900 -403 894 -396Q887 -387 887 -382Q887 -377 893 -371Q898 -372 903 -374H905Q891 -355 891 -343Q893 -340 895 -340L899 -341Q902 -341 903 -338Q896 -329 889 -301Q881 -268 867 -259Q854 -251 837 -247Q819 -244 803 -239Q761 -221 748 -202H738Q730 -188 730 -152V-120H736Q750 -120 819 -128Q826 -128 832 -129Q857 -127 881 -126Q894 -126 899 -128Q912 -132 924 -164Q926 -154 926 -143Q926 -131 933 -126L936 -125Q944 -127 952 -130Q954 -130 958 -128Q957 -126 951 -123Q943 -119 942 -114Q945 -109 948 -105H950Q955 -106 960 -107L962 -105Q959 -101 955 -94V-93Q956 -90 962 -90H967Q967 -84 963 -74Q974 -40 979 -4Q977 -5 974 -7H973V-4Q974 2 974 7V10Q969 13 965 18Q961 23 954 24Q951 26 951 31ZM465 -84H462Q457 -82 454 -74Q452 -68 449 -65Q449 -75 447 -79Q419 -105 394 -105Q390 -104 385 -104V-83Q385 -42 396 -24Q387 12 381 51Q376 54 332 75Q330 79 330 92Q324 80 320 66L319 64Q316 65 313 66H311Q304 57 297 34Q292 19 287 10Q279 2 274 -7Q271 -16 271 -26Q271 -36 264 -44Q280 -61 287 -92Q291 -108 295 -156Q256 -125 222 -83Q188 -41 152 -2Q151 3 149 7Q133 16 114 48Q100 72 90 81Q51 63 51 31V27Q47 18 40 15V1Q40 -2 37 -3Q35 -4 33 -5Q31 -19 31 -26V-32Q34 -37 42 -45Q46 -64 46 -81Q46 -100 42 -119Q39 -144 36 -169Q36 -180 37 -186Q41 -174 46 -144Q53 -103 61 -87Q64 -91 64 -95Q62 -106 59 -118Q59 -121 61 -125Q66 -121 69 -110Q73 -97 78 -95Q121 -116 155 -149Q188 -182 221 -214Q274 -266 348 -347Q346 -347 343 -348Q332 -348 328 -338Q310 -334 295 -325Q280 -315 264 -306Q213 -277 196 -246Q180 -241 171 -230Q161 -218 149 -208Q116 -216 111 -219L92 -246Q85 -260 80 -280Q72 -299 56 -312Q41 -326 39 -350V-356Q42 -372 51 -394Q43 -412 43 -428Q43 -456 59 -469Q72 -479 89 -487Q106 -495 122 -504Q140 -518 154 -521H155Q139 -510 139 -493Q139 -479 155 -475Q196 -483 251 -510Q298 -533 323 -541Q322 -549 313 -551Q305 -554 296 -560Q291 -564 287 -571Q283 -577 277 -578Q268 -578 261 -567Q254 -556 246 -554Q248 -562 258 -574Q264 -581 267 -587Q266 -603 250 -603Q241 -603 236 -598Q236 -605 242 -611Q247 -616 247 -620V-623Q247 -639 230 -639Q212 -639 181 -622Q182 -633 191 -637Q201 -640 209 -644Q228 -653 237 -664Q236 -669 229 -669H223Q219 -669 218 -670Q218 -674 228 -682Q241 -693 241 -699Q241 -704 237 -708Q250 -712 250 -724Q250 -731 244 -748Q239 -762 239 -768V-771Q244 -769 249 -758Q255 -745 264 -742Q266 -741 271 -741Q285 -743 299 -745H301Q308 -744 317 -740Q330 -734 334 -734H335Q343 -738 350 -742H351Q348 -739 348 -735Q354 -711 367 -705Q371 -706 374 -712Q377 -719 381 -719L384 -718Q379 -709 379 -697Q379 -680 393 -656L394 -655Q398 -659 402 -663L403 -662Q398 -653 398 -640Q403 -607 407 -575V-573Q422 -573 439 -588Q456 -603 469 -603Q474 -603 477 -602Q498 -621 515 -638Q506 -617 502 -597Q502 -586 510 -579Q516 -581 517 -581Q523 -581 529 -575Q540 -583 551 -592Q549 -586 549 -584Q550 -575 551 -567Q551 -560 549 -557Q552 -549 558 -545H559Q565 -547 571 -550H572Q567 -530 567 -513Q571 -465 575 -418V-406Q562 -393 543 -389Q538 -389 530 -392Q482 -369 449 -331Q416 -293 382 -254Q405 -241 418 -241Q426 -241 431 -245V-239Q431 -235 432 -234Q444 -231 455 -228Q456 -231 461 -236Q467 -243 468 -249Q470 -247 470 -243Q469 -235 468 -227V-225Q475 -205 487 -194Q493 -197 499 -201Q500 -201 504 -199Q494 -189 494 -176Q494 -168 500 -150Q505 -135 505 -126Q505 -120 504 -117Q489 -86 483 -84Q481 -83 478 -83Q472 -83 465 -84Z"/>
</svg>