<svg xmlns="http://www.w3.org/2000/svg" viewBox="0 -800 1024 1024">
	<path fill="#000000" d="M80 -668Q73 -669 62 -683Q63 -687 69 -687Q75 -687 77 -685Q77 -684 80 -668ZM505 28V26Q506 24 506 21V19H516Q529 19 530 26Q525 30 516 30Q509 30 505 28ZM255 -341Q256 -345 256 -349Q256 -356 252 -357Q246 -353 231 -346Q214 -338 207 -332Q231 -336 255 -341ZM653 -434V-437L649 -438Q635 -434 620 -426V-410Q620 -391 625 -385Q636 -388 646 -392Q650 -413 653 -434ZM666 -517V-519Q669 -535 672 -552Q672 -558 669 -563Q655 -551 640 -539Q625 -527 623 -503Q655 -507 666 -517ZM539 -106V-110Q539 -120 548 -142Q556 -161 556 -171Q556 -176 555 -178Q540 -173 524 -169Q535 -162 543 -150Q536 -138 533 -115Q531 -96 527 -86Q590 -90 623 -104Q593 -118 591 -119Q582 -116 578 -108Q574 -100 570 -92Q568 -91 565 -91Q559 -93 552 -98Q548 -94 543 -93L544 -96Q542 -101 539 -106ZM675 -133V-130Q675 -125 680 -122Q685 -119 685 -116Q683 -104 683 -97Q683 -82 691 -77Q742 -146 786 -222Q775 -223 754 -223Q673 -223 628 -194Q632 -187 638 -181Q643 -175 644 -166Q644 -164 642 -156H640Q636 -154 631 -152Q633 -146 638 -143Q644 -140 648 -137Q666 -155 672 -158Q666 -147 660 -137Q663 -139 666 -143Q671 -150 675 -150Q672 -141 668 -133L670 -132Q672 -133 674 -134ZM411 -274H407Q378 -274 320 -254Q312 -239 309 -215V-212Q346 -223 372 -230Q371 -234 369 -239L370 -242Q391 -249 416 -253Q420 -242 437 -227Q443 -236 449 -245Q454 -255 466 -257L465 -261Q465 -265 470 -269Q473 -272 474 -275Q477 -285 478 -302Q479 -323 484 -329Q491 -337 504 -337Q525 -334 545 -332Q558 -302 577 -275Q588 -281 628 -287Q657 -292 666 -294Q665 -297 662 -297Q659 -296 655 -295L653 -296Q650 -303 647 -310Q630 -309 620 -302Q609 -295 598 -288Q577 -292 567 -308Q557 -326 546 -343Q549 -352 549 -361Q549 -377 533 -420Q521 -454 506 -469Q484 -488 465 -508Q449 -530 449 -565Q449 -587 455 -605Q435 -592 416 -578Q397 -564 389 -539Q391 -540 394 -540Q403 -538 406 -532Q437 -544 446 -545Q443 -540 435 -532Q426 -523 423 -517Q428 -512 432 -508Q437 -511 442 -514Q444 -514 446 -512Q440 -504 437 -495Q440 -492 442 -487Q443 -482 449 -481Q443 -474 438 -460Q443 -454 443 -446Q440 -432 437 -419H435Q422 -419 413 -401Q409 -403 400 -403Q387 -403 361 -391Q360 -381 358 -371H363Q371 -370 379 -370Q384 -370 391 -374Q394 -361 406 -361Q422 -365 437 -369V-368Q437 -365 431 -361Q424 -356 424 -352Q424 -349 426 -347L428 -346Q431 -347 433 -348L435 -346Q431 -339 430 -315Q429 -290 423 -281Q414 -279 411 -274ZM768 83H765Q758 83 740 90Q726 96 718 97Q704 99 691 100Q678 101 671 111Q651 99 630 94H626Q625 83 616 76Q610 72 597 67V66Q597 61 601 60Q604 59 607 58Q589 36 541 28Q549 25 557 25Q577 27 597 29H600Q588 20 549 15Q513 10 500 2Q513 2 595 13Q581 4 562 1Q542 -3 523 -7Q531 -10 538 -10Q562 -6 585 -2Q603 -3 617 -13Q625 -19 640 -37Q634 -34 628 -34Q615 -36 602 -38H600Q589 -36 577 -34Q562 -32 523 -23Q511 -20 494 -10Q480 -2 478 -2Q451 -9 434 -27Q423 -38 423 -57V-59Q424 -70 441 -85Q455 -97 458 -104Q459 -106 459 -110V-117Q459 -122 462 -125Q460 -132 449 -141Q440 -149 437 -156Q409 -154 361 -138Q313 -122 291 -122Q277 -94 271 -15Q266 50 258 76Q244 80 229 83H226Q213 82 199 69Q187 58 178 42Q168 30 161 11V2Q161 -2 160 -4Q156 -14 142 -24Q127 -35 124 -41Q140 -32 148 -31Q144 -38 123 -51Q100 -65 93 -77Q101 -73 163 -43Q187 -68 206 -103Q184 -98 170 -86Q156 -74 142 -64Q117 -73 95 -90Q68 -111 68 -131Q68 -144 83 -159Q81 -171 81 -174Q81 -211 130 -231Q127 -222 127 -216Q127 -191 162 -191Q183 -191 237 -206Q242 -215 246 -225Q243 -226 238 -226Q225 -226 206 -209Q177 -226 148 -244Q143 -271 121 -284Q126 -287 129 -291Q126 -298 119 -302Q113 -305 108 -310Q109 -311 113 -311Q123 -309 132 -307Q151 -323 197 -331Q196 -334 188 -334Q184 -334 184 -332V-331Q182 -332 175 -337Q167 -343 160 -343Q146 -362 133 -382Q121 -403 120 -436Q120 -450 121 -457Q133 -479 179 -479Q157 -488 119 -526Q112 -533 105 -541Q98 -548 89 -549Q82 -549 77 -545V-547Q77 -548 87 -561Q84 -577 74 -589Q68 -586 61 -584Q63 -589 69 -592Q75 -595 81 -599Q95 -612 95 -630Q95 -643 87 -659L89 -660Q94 -655 104 -649H110Q125 -650 140 -652Q158 -650 170 -635Q182 -620 194 -610Q205 -634 219 -641Q209 -624 209 -605Q209 -597 210 -593Q216 -582 226 -569Q238 -540 238 -521Q238 -506 234 -494Q243 -496 251 -498H253Q274 -546 296 -592Q317 -637 333 -690Q330 -703 315 -703Q308 -703 294 -699V-701Q296 -706 303 -710Q326 -726 348 -742Q364 -755 381 -768Q399 -782 418 -783Q433 -783 447 -773Q455 -767 466 -749Q477 -730 485 -724Q496 -717 506 -710Q503 -693 503 -652Q510 -648 534 -646Q562 -644 568 -635Q618 -673 669 -710Q681 -717 693 -725Q699 -731 707 -748Q717 -770 726 -777Q738 -786 760 -786Q770 -786 788 -784Q794 -767 820 -743Q838 -756 842 -762V-760Q839 -750 835 -741Q835 -737 838 -734L840 -733Q844 -735 848 -738L851 -737Q847 -729 847 -722Q847 -706 859 -705Q851 -695 850 -677Q848 -660 847 -643Q819 -629 814 -592Q804 -591 792 -583Q772 -567 764 -534Q756 -500 753 -459Q750 -368 735 -302H738Q751 -302 772 -313Q795 -325 807 -325H809Q819 -324 834 -315Q847 -306 857 -305Q873 -313 880 -319L881 -316Q879 -311 876 -307L877 -304Q885 -309 895 -318Q905 -327 918 -331V-330Q918 -327 907 -314Q896 -300 896 -291V-287Q899 -279 907 -272Q910 -273 914 -280Q918 -288 924 -288V-283Q926 -269 931 -259Q935 -259 938 -260L942 -259Q937 -253 937 -244Q937 -235 947 -219Q955 -207 956 -200V-196Q954 -180 952 -165Q952 -159 953 -155Q920 -137 903 -122Q882 -102 866 -76Q837 -43 806 -8Q775 28 768 83Z"/>
</svg>