<svg xmlns="http://www.w3.org/2000/svg" viewBox="0 -800 1024 1024">
	<path fill="#000000" d="M456 -62H455Q450 -65 444 -68Q446 -71 447 -75Q455 -71 456 -64ZM73 -465H69Q73 -480 85 -480Q89 -480 91 -479Q89 -465 73 -465ZM718 -425V-428Q720 -437 722 -447Q694 -443 666 -439Q635 -435 627 -407H630Q643 -407 672 -416Q699 -424 718 -425ZM756 -303V-319Q756 -331 753 -335Q759 -337 767 -345Q758 -348 748 -348Q741 -347 733 -347Q727 -348 718 -355Q708 -363 702 -363Q699 -363 697 -362Q702 -356 702 -344Q698 -315 694 -287Q694 -278 695 -273Q702 -275 736 -294Q735 -299 733 -304L734 -306Q745 -304 756 -303ZM752 -505H753Q762 -531 773 -554H767Q745 -553 728 -547Q710 -540 687 -534Q654 -528 644 -523Q624 -514 624 -494V-489Q686 -501 741 -525Q739 -521 739 -520Q743 -506 752 -505ZM547 -228Q529 -230 510 -233Q501 -233 496 -231Q493 -242 474 -252Q458 -260 454 -267Q454 -287 460 -299Q466 -311 472 -327Q479 -325 481 -323Q484 -327 487 -332Q492 -333 500 -333Q541 -333 567 -298Q572 -299 580 -305Q589 -311 597 -312Q580 -298 574 -254Q561 -244 547 -228ZM651 -62H647Q638 -62 626 -68Q614 -74 603 -74H597Q605 -85 605 -92Q605 -99 598 -100Q592 -100 586 -95Q580 -90 577 -90H574Q576 -97 589 -105Q605 -115 605 -128Q646 -143 687 -166Q700 -176 714 -187Q728 -199 746 -200Q755 -200 768 -195Q773 -196 778 -198H780L782 -195Q781 -192 779 -190L780 -188Q791 -188 798 -192Q792 -181 787 -162Q788 -155 788 -149Q788 -143 785 -137Q748 -123 709 -99Q694 -90 678 -82Q662 -74 651 -62ZM484 55V54Q487 51 490 47V45Q479 21 462 2Q445 -17 429 -37Q411 -54 405 -77Q415 -67 440 -38Q469 -4 488 12Q473 -10 455 -30Q437 -49 426 -75Q438 -65 460 -38Q486 -6 503 6Q498 -5 481 -22Q462 -41 457 -56Q479 -45 497 -28Q514 -11 545 -9H550Q576 -11 617 -31Q670 -52 725 -78Q780 -104 809 -146Q817 -143 823 -143Q830 -143 837 -144Q842 -144 844 -143Q848 -142 852 -136Q856 -131 859 -129Q865 -126 872 -124Q879 -123 882 -117Q880 -105 880 -97Q881 -85 881 -73Q881 -66 880 -60Q875 -38 852 -36Q822 -35 795 -28Q785 -20 774 -12Q762 -7 749 -2Q702 23 653 57Q610 81 607 84Q596 93 582 104Q568 115 552 116Q545 116 541 114Q518 98 509 86L508 84L509 80L508 78Q493 59 484 55ZM429 -158H427Q422 -158 418 -151Q415 -145 411 -143Q408 -145 407 -152Q406 -160 404 -162H400Q389 -162 384 -168Q379 -174 373 -179V-164Q373 -83 386 -3Q357 40 327 66Q321 63 316 63Q312 64 308 64Q295 56 283 30Q271 5 263 -2L262 -5Q263 -8 263 -11Q259 -16 243 -18Q228 -20 223 -24Q240 -27 257 -31Q257 -36 248 -36H246Q241 -36 240 -37Q262 -46 272 -55Q287 -69 290 -92V-106Q290 -129 289 -153Q289 -163 291 -179Q252 -151 205 -89Q176 -53 166 -39Q145 -8 137 19Q135 18 131 18Q124 18 116 24Q112 27 110 27H109L108 24Q110 21 111 18Q103 10 91 6Q78 2 68 -3Q66 -13 59 -28Q49 -49 49 -64V-66Q49 -69 54 -70Q58 -71 58 -74Q57 -78 53 -83Q49 -87 49 -90L52 -91Q57 -87 66 -83Q69 -87 69 -91Q69 -99 59 -111Q49 -123 49 -129V-132Q56 -128 67 -114Q80 -97 93 -93Q224 -200 287 -285Q245 -281 208 -260Q196 -255 174 -239Q151 -223 140 -219Q134 -217 125 -217Q108 -218 98 -228Q88 -239 75 -249Q65 -254 56 -256Q47 -259 41 -266Q38 -275 38 -283Q42 -308 46 -334Q46 -339 44 -347Q39 -354 34 -366Q41 -363 47 -361Q51 -361 52 -366Q50 -372 40 -379Q30 -387 28 -395Q48 -392 67 -390Q81 -390 88 -398Q105 -395 121 -395Q157 -396 192 -406Q226 -417 262 -426V-430Q260 -441 258 -453Q258 -457 259 -459Q253 -454 246 -452Q238 -462 221 -462Q210 -462 204 -456L203 -460Q206 -465 208 -470Q202 -479 186 -479Q169 -479 151 -470Q152 -477 160 -485Q167 -491 168 -495Q166 -497 162 -497Q155 -494 148 -491L146 -493Q147 -494 151 -497Q154 -500 155 -505V-507Q153 -508 148 -508Q130 -503 114 -494Q112 -493 110 -490Q106 -484 101 -484L97 -485Q130 -525 170 -558Q209 -590 251 -623Q269 -637 287 -650Q304 -662 314 -681Q313 -686 302 -689Q293 -691 293 -698Q310 -704 330 -706Q352 -713 373 -719Q397 -715 420 -705Q426 -693 433 -681Q442 -676 450 -671Q459 -661 459 -636V-595Q459 -564 441 -554H437Q413 -552 394 -536Q374 -519 353 -508Q361 -502 374 -502Q378 -488 386 -477V-476Q384 -470 382 -465V-462Q451 -486 462 -491Q465 -481 477 -477Q481 -476 500 -473Q494 -465 494 -456Q494 -445 505 -444Q501 -440 501 -428Q501 -411 511 -410Q500 -400 496 -384Q492 -368 487 -351Q459 -347 437 -337Q414 -328 389 -321Q387 -308 385 -296Q407 -285 430 -269Q435 -269 438 -275Q441 -281 445 -281H448Q444 -276 444 -268Q444 -255 456 -241Q453 -233 453 -224Q453 -204 465 -200Q444 -185 444 -151Q444 -141 445 -135Q440 -142 438 -149Q436 -157 429 -158ZM910 -198V-195Q905 -201 902 -208Q899 -216 892 -219Q878 -221 875 -221Q851 -220 844 -194Q843 -196 843 -199Q843 -200 850 -225Q834 -236 817 -248Q813 -246 810 -238Q807 -230 802 -227Q788 -222 765 -219Q746 -211 727 -204Q718 -202 709 -188Q661 -174 592 -134Q576 -119 559 -111H555Q539 -115 522 -120Q515 -143 505 -143L504 -146Q507 -150 509 -155V-156Q509 -162 502 -167Q497 -171 496 -174Q496 -177 500 -178Q503 -178 506 -179Q495 -192 485 -207Q498 -200 512 -200Q543 -203 576 -219Q615 -236 627 -249Q626 -258 626 -279V-304Q626 -328 624 -339Q618 -337 611 -331Q603 -323 597 -323H593Q576 -324 562 -337Q548 -350 538 -359Q541 -366 544 -373Q533 -411 520 -447Q507 -484 475 -501Q475 -508 468 -520Q463 -530 462 -537V-539Q463 -555 472 -567Q481 -580 487 -593Q494 -593 496 -591Q505 -602 509 -618Q517 -612 530 -611Q542 -609 553 -606Q566 -619 581 -642Q600 -671 600 -688Q600 -709 573 -710Q575 -713 584 -717Q593 -721 595 -726Q591 -732 583 -732Q569 -730 554 -728H549Q557 -737 579 -751Q604 -767 614 -777Q626 -790 640 -803Q654 -816 679 -817Q685 -817 697 -815Q708 -813 735 -786Q761 -760 767 -746Q768 -744 768 -733V-719Q761 -704 753 -689Q729 -686 704 -657Q688 -637 685 -621L687 -620Q693 -623 698 -626Q753 -637 776 -645Q811 -656 819 -659Q843 -668 854 -681Q864 -679 882 -679Q911 -679 928 -695Q923 -683 919 -665Q919 -655 930 -653Q938 -655 945 -657H949Q943 -648 943 -638Q943 -621 955 -615Q963 -620 972 -623H975Q957 -605 957 -595Q957 -589 961 -585Q955 -580 952 -564Q949 -550 946 -546Q922 -542 901 -525Q905 -523 909 -521Q879 -508 859 -466Q842 -430 836 -378Q825 -369 820 -367Q834 -366 844 -359Q854 -352 866 -348Q874 -355 883 -357Q881 -353 881 -351Q881 -344 898 -339Q908 -342 920 -358Q931 -373 943 -377Q935 -365 927 -353Q918 -341 917 -326Q917 -317 919 -312Q922 -313 929 -319Q937 -326 944 -326H946L947 -324Q947 -319 938 -309Q928 -298 927 -294Q931 -278 931 -269V-264Q932 -261 935 -262Q939 -263 940 -257Q934 -256 922 -242Q910 -228 909 -219L908 -215Q909 -206 910 -198Z"/>
</svg>