<svg xmlns="http://www.w3.org/2000/svg" viewBox="0 -800 1024 1024">
	<path fill="#000000" d="M536 42Q532 48 522 48Q514 48 511 43Q511 36 519 36Q527 36 536 42ZM881 -650V-652Q883 -662 897 -663Q903 -663 906 -659Q905 -649 890 -649Q886 -649 881 -650ZM652 -486H648Q643 -486 630 -480Q619 -475 611 -475Q603 -475 598 -479Q594 -468 584 -449Q570 -424 568 -410Q576 -416 606 -422Q649 -430 659 -443Q655 -447 651 -447Q646 -447 636 -440Q626 -433 621 -433Q616 -433 614 -435Q625 -445 652 -486ZM475 -203V-200Q547 -210 582 -213Q578 -240 567 -260Q498 -246 458 -230Q475 -219 475 -203ZM860 -144V-140Q853 -134 842 -130Q788 -134 755 -134Q715 -134 688 -130Q683 -105 683 -76Q683 -21 696 8Q693 51 685 88Q672 96 640 123Q619 119 604 109Q590 98 576 87V84Q575 67 563 60Q552 52 543 42L546 43Q549 42 551 41L554 42Q544 34 515 24Q489 15 478 7Q481 6 487 6Q512 10 540 17Q532 7 496 -9Q500 -10 508 -10Q526 -8 543 -6Q546 -6 549 -7Q571 -13 571 -61Q571 -83 570 -106V-111Q568 -111 487 -92Q480 -75 475 -32Q468 24 455 42Q430 46 404 49Q385 39 376 33Q362 23 357 10H356L354 12V14Q344 4 344 -14Q344 -37 355 -55Q310 -44 256 -14Q218 8 203 8H200Q194 7 183 -2Q170 -12 159 -12H154Q148 -30 137 -48Q135 -53 127 -62Q117 -75 116 -81Q115 -84 115 -90Q117 -118 139 -137Q161 -157 178 -170Q201 -190 211 -196Q231 -208 253 -211Q239 -198 223 -187Q207 -176 204 -150Q217 -159 228 -172Q239 -185 256 -186Q254 -181 247 -175Q236 -165 236 -158Q236 -153 237 -150Q253 -154 295 -160Q344 -167 373 -176L379 -208Q376 -208 373 -209Q351 -208 346 -188Q300 -195 280 -219V-227Q280 -233 283 -234Q277 -248 258 -266Q243 -280 238 -288H240Q245 -287 249 -286Q251 -286 253 -288Q252 -295 235 -304Q223 -310 219 -315Q222 -314 229 -314Q261 -318 293 -336Q331 -351 373 -358Q416 -365 453 -375Q450 -378 446 -378Q439 -378 431 -372Q413 -375 394 -379Q386 -379 378 -375V-377Q378 -380 382 -383Q385 -386 385 -389V-390Q383 -396 374 -396H369L368 -400Q368 -405 375 -410Q371 -418 366 -423Q327 -417 327 -375Q328 -369 328 -363Q316 -352 298 -352Q264 -357 231 -372Q227 -372 224 -368Q222 -365 219 -365Q217 -371 217 -378Q217 -386 213 -389Q211 -390 208 -390Q197 -390 191 -377Q192 -380 192 -383Q192 -395 183 -410Q180 -414 164 -437Q149 -456 133 -476Q86 -536 86 -572V-575Q88 -581 90 -588V-590Q89 -600 87 -610Q87 -613 89 -619Q90 -618 93 -614Q95 -611 98 -611Q101 -612 104 -618Q106 -622 108 -624H111Q152 -624 181 -590Q198 -583 221 -566Q245 -548 256 -543Q315 -567 377 -594Q439 -621 508 -641Q493 -621 491 -615Q493 -613 494 -611V-609L497 -608Q501 -608 505 -609H508Q505 -606 505 -601Q505 -597 508 -582Q502 -576 502 -564Q506 -542 509 -521Q509 -512 505 -507Q509 -501 512 -500Q511 -498 506 -496Q500 -493 499 -489L500 -488Q503 -488 506 -489L508 -487V-486Q494 -486 491 -473Q476 -471 464 -470Q452 -468 449 -458V-457Q449 -453 456 -442Q464 -429 465 -420Q462 -414 459 -408V-391Q459 -384 455 -377Q505 -391 555 -405Q545 -417 530 -417Q519 -417 499 -408V-410Q499 -414 503 -417Q506 -419 506 -423V-426L503 -427Q497 -427 487 -417Q480 -410 476 -410V-412Q479 -425 490 -437Q523 -492 551 -602Q564 -651 564 -672Q564 -692 554 -701Q533 -701 509 -681Q513 -701 530 -719Q541 -731 565 -749Q578 -761 591 -774Q604 -788 625 -789Q633 -789 637 -788Q649 -785 678 -756Q707 -725 711 -716Q718 -688 718 -683V-680Q717 -674 702 -663Q678 -645 678 -628V-625Q753 -628 804 -665Q815 -652 838 -642Q850 -649 860 -649Q866 -649 869 -648Q867 -645 861 -641Q852 -635 852 -630Q852 -627 853 -625L855 -622Q857 -624 863 -627H865L867 -625Q862 -618 857 -611Q863 -597 863 -585Q863 -565 841 -530Q838 -530 835 -531Q822 -531 822 -523V-521Q776 -524 755 -509Q755 -503 760 -499Q765 -495 765 -492Q761 -487 761 -473Q720 -471 696 -435Q707 -439 711 -440Q711 -436 710 -433Q710 -426 714 -425Q717 -424 720 -424Q728 -425 736 -426Q732 -420 732 -413V-410L735 -409Q738 -409 745 -416Q741 -408 741 -395Q741 -363 756 -351V-347Q756 -339 755 -331V-327Q764 -325 773 -323Q703 -308 649 -287Q668 -263 678 -231Q709 -235 739 -240Q772 -242 798 -248Q807 -252 814 -266Q821 -281 829 -284Q830 -281 830 -276Q830 -269 829 -262Q829 -258 831 -255Q836 -248 849 -248Q867 -249 885 -251H888Q876 -246 872 -233Q873 -230 879 -230H884Q880 -221 880 -205Q880 -193 882 -171Q860 -162 860 -144Z"/>
</svg>