<svg xmlns="http://www.w3.org/2000/svg" viewBox="0 -800 1024 1024">
	<path fill="#000000" d="M324 -187Q296 -176 274 -144Q282 -138 282 -121Q282 -114 281 -107Q281 -95 285 -88Q300 -94 315 -100Q317 -112 318 -135Q319 -170 324 -187ZM656 -118Q635 -110 624 -93Q614 -76 601 -58Q574 -26 570 -6Q628 -74 656 -118ZM692 -94H689Q662 -86 640 -46Q630 -28 630 -23Q630 -16 637 -13Q665 -36 673 -46Q691 -68 692 -94ZM625 -160Q603 -155 589 -132Q577 -114 573 -89Q586 -107 600 -123Q614 -139 625 -160ZM73 -274Q73 -267 71 -259Q61 -259 61 -272Q61 -279 64 -284L66 -283H69L71 -282Q73 -280 73 -274ZM720 -374Q719 -369 711 -364Q704 -359 702 -353Q704 -351 705 -349L708 -348Q714 -349 719 -350Q715 -344 710 -326Q706 -312 702 -305Q665 -305 649 -302Q629 -298 616 -288Q603 -278 590 -273Q566 -288 565 -323Q565 -352 584 -367Q589 -364 593 -362Q633 -385 690 -389Q691 -388 692 -381Q693 -375 699 -373Q711 -376 713 -376Q716 -376 720 -374ZM933 -158Q933 -149 929 -145Q924 -140 921 -133Q918 -136 918 -143Q918 -148 921 -154Q924 -160 928 -160Q929 -160 933 -158ZM946 -716V-709Q929 -709 923 -707Q925 -723 938 -723Q939 -723 945 -721Q946 -720 946 -716ZM611 -462Q657 -473 689 -478Q703 -532 718 -546Q689 -543 661 -538Q621 -530 615 -521Q615 -483 611 -462ZM602 -459Q584 -461 567 -474Q557 -482 542 -499Q526 -496 518 -486Q510 -477 501 -468Q468 -472 464 -499Q463 -501 463 -504Q464 -509 464 -514V-517Q460 -525 453 -537Q445 -550 444 -565Q444 -576 451 -586Q444 -606 443 -613Q446 -609 448 -605Q450 -600 455 -600V-605Q455 -615 449 -629Q444 -642 443 -647Q448 -641 453 -633Q457 -626 466 -623Q473 -630 487 -629Q500 -628 508 -631Q507 -635 507 -641Q507 -659 526 -672Q545 -685 547 -699Q565 -689 576 -687Q587 -665 597 -643Q631 -655 651 -658Q672 -661 724 -661Q730 -661 746 -665Q750 -682 753 -699Q753 -705 752 -707Q739 -705 728 -698Q743 -722 756 -748Q770 -773 794 -787Q821 -778 834 -747Q842 -728 850 -683Q882 -688 917 -706Q911 -700 905 -695Q899 -689 898 -678Q901 -675 905 -675Q918 -678 927 -688Q926 -683 919 -677Q908 -667 908 -658V-655Q913 -649 921 -649L927 -650Q915 -645 915 -615Q915 -599 918 -590Q904 -570 892 -548Q880 -556 860 -556Q853 -556 835 -554L823 -556Q821 -554 783 -533Q759 -519 754 -500Q801 -503 831 -515Q855 -530 874 -537Q882 -537 892 -529Q901 -522 905 -522Q909 -522 911 -523Q912 -519 913 -509Q914 -498 920 -493L946 -511Q945 -504 936 -493Q925 -479 925 -468Q925 -465 927 -457Q932 -458 936 -463Q941 -469 946 -469V-466Q946 -459 938 -450Q931 -442 930 -437V-433Q932 -422 933 -411Q933 -407 932 -405Q930 -394 918 -386Q915 -384 895 -374L878 -365Q856 -343 834 -322Q816 -297 797 -273L796 -276Q794 -273 792 -273H791V-275Q793 -281 794 -287Q788 -289 785 -289Q781 -289 779 -287Q773 -305 766 -322H755Q754 -330 752 -339Q748 -339 744 -333Q741 -329 740 -329H739Q748 -373 775 -413Q773 -418 768 -418Q763 -417 758 -416Q621 -409 514 -337Q520 -322 520 -306Q520 -284 511 -265Q517 -270 523 -280Q529 -290 541 -293Q536 -288 530 -268Q534 -261 551 -261Q565 -262 579 -263H607Q622 -274 640 -278Q658 -283 677 -290Q736 -316 748 -319Q747 -317 747 -313Q747 -308 751 -303Q755 -298 760 -298H761V-295Q761 -287 770 -280Q777 -275 779 -269L776 -270Q775 -270 770 -265V-259Q769 -245 763 -234Q756 -223 749 -212Q733 -221 714 -221Q695 -221 684 -214Q688 -202 697 -192Q707 -182 716 -172Q720 -163 725 -158Q730 -162 737 -173Q750 -187 768 -207Q786 -226 794 -247V-250Q794 -255 793 -261V-263Q836 -266 837 -266Q844 -250 859 -233Q867 -238 877 -242Q860 -222 860 -208Q860 -199 865 -194Q870 -195 875 -197Q870 -179 867 -153Q863 -126 852 -110Q843 -116 831 -116Q801 -113 787 -94Q790 -86 804 -74Q820 -60 823 -47L831 -43Q845 -37 859 -32Q880 -72 892 -101Q892 -92 885 -72Q877 -50 877 -37Q896 -98 914 -127Q912 -107 900 -66Q889 -28 886 -8Q891 -15 907 -47V-44Q907 -31 902 -9Q895 22 895 37V43Q896 65 897 86Q897 99 895 105Q887 117 883 130V131H881Q877 132 873 132L869 131Q858 128 845 112Q831 96 823 85Q780 34 736 -17Q711 15 704 43L692 52Q680 78 669 103Q649 103 647 111Q625 97 625 65Q624 32 615 7Q600 15 594 32Q587 49 582 67Q564 61 564 41Q563 21 557 5Q521 39 507 88Q501 86 497 86Q486 88 474 89H471Q448 50 448 28Q448 19 451 10Q438 -17 424 -65Q441 -35 452 -26Q443 -50 432 -73Q422 -97 415 -129Q452 -59 483 -35Q503 -46 527 -56Q550 -65 564 -83H562Q552 -83 547 -90Q544 -95 540 -107Q533 -132 519 -133Q541 -150 551 -166Q536 -155 526 -155Q520 -155 514 -158Q514 -167 500 -180Q490 -189 489 -197V-198Q494 -212 498 -227Q497 -234 495 -242Q495 -245 496 -247Q493 -246 490 -246Q483 -246 470 -259Q461 -268 457 -268Q449 -268 445 -252Q443 -257 441 -267Q439 -276 433 -279Q423 -274 419 -266Q414 -259 407 -252Q421 -213 423 -200Q412 -164 401 -128Q397 -113 387 -107L384 -91Q386 -83 386 -78Q386 -60 380 -24Q376 18 371 59Q362 63 353 63Q330 63 303 32V4Q284 8 275 22Q266 36 258 50Q233 33 232 32Q218 19 216 3Q210 -37 205 -50Q196 -72 173 -85V-87Q171 -94 169 -101V-103Q162 -97 154 -79Q145 -58 135 -53L133 -37Q132 -28 127 -12Q119 16 118 30Q114 32 107 32Q86 30 73 8Q61 -15 52 -31Q55 -49 55 -68Q54 -100 53 -132V-145Q56 -142 58 -125Q66 -183 70 -245Q75 -230 77 -189Q78 -157 81 -147Q116 -182 142 -226Q168 -270 195 -314Q192 -313 187 -313Q180 -313 155 -318Q151 -327 146 -336Q142 -344 128 -361Q108 -385 106 -398V-401Q109 -415 111 -429Q110 -438 108 -447Q113 -465 118 -484Q119 -487 119 -491Q118 -500 117 -510Q118 -513 118 -516Q123 -534 141 -547Q158 -561 172 -573Q180 -582 188 -590Q196 -599 206 -600Q188 -582 188 -567Q188 -558 201 -558Q211 -558 246 -578Q254 -583 261 -588Q268 -594 280 -594H285L300 -597Q310 -619 332 -628Q355 -637 376 -647Q381 -646 385 -638Q388 -631 392 -631Q395 -631 403 -637Q416 -647 425 -647H429Q417 -638 413 -621Q413 -619 415 -613H416Q423 -616 429 -619Q422 -611 422 -597Q427 -561 437 -530Q425 -523 425 -498V-487Q431 -459 440 -451Q443 -457 446 -464Q450 -439 471 -424Q474 -426 481 -426H486Q495 -426 496 -431Q500 -429 504 -427Q552 -446 602 -459ZM405 -259Q410 -276 419 -288Q417 -298 410 -302Q404 -305 400 -311Q397 -314 394 -318Q394 -315 394 -312Q394 -290 405 -259ZM390 -325Q382 -341 370 -342V-344Q372 -348 373 -352V-354Q368 -364 368 -384Q368 -406 381 -418V-430Q381 -433 387 -437Q390 -439 391 -442V-443Q391 -446 389 -450Q348 -431 315 -390Q299 -364 284 -332Q270 -311 256 -289Q241 -268 235 -243Q248 -245 285 -269Q323 -293 344 -301Q347 -304 360 -328Q362 -326 362 -320Q362 -312 360 -308Q365 -309 369 -311Q371 -327 382 -334Q381 -331 381 -322Q381 -316 382 -313Q388 -315 390 -325Z"/>
</svg>