<svg xmlns="http://www.w3.org/2000/svg" viewBox="0 -800 1024 1024">
	<path fill="#000000" d="M710 -149Q695 -163 674 -163Q645 -163 579 -141Q581 -140 581 -133Q595 -137 602 -137Q656 -143 710 -149ZM679 -218Q677 -220 677 -226Q678 -232 678 -238L677 -242Q655 -233 623 -224Q609 -219 595 -213Q581 -207 577 -194Q628 -204 679 -218ZM719 -401L718 -402H716Q680 -390 639 -369Q621 -361 604 -353Q588 -344 587 -326Q627 -339 633 -342Q643 -347 657 -356Q670 -365 679 -366L682 -365Q686 -370 695 -373Q696 -373 700 -371Q694 -361 691 -349L692 -348Q695 -349 698 -350L700 -347V-346Q701 -321 685 -308Q675 -300 650 -293Q622 -287 611 -282Q590 -273 584 -257Q600 -259 626 -273Q652 -287 667 -287Q679 -287 692 -280Q698 -298 707 -347Q713 -380 719 -401ZM261 5Q254 16 243 23Q232 29 223 37Q216 50 207 64Q198 81 179 82Q174 82 170 81Q162 77 156 69Q150 61 144 54Q131 53 120 52Q109 51 101 42Q91 29 91 8Q91 -13 101 -26Q91 -39 91 -64Q91 -73 95 -89Q107 -108 128 -129Q135 -139 143 -150Q151 -160 160 -162Q156 -152 150 -144Q145 -135 144 -125Q144 -119 147 -113Q153 -107 161 -107Q168 -108 175 -110Q193 -115 210 -120Q234 -128 280 -151Q333 -168 380 -190Q389 -191 404 -198Q425 -208 435 -209Q431 -198 427 -187Q429 -184 430 -184Q435 -186 439 -189L442 -187L443 -184Q443 -182 437 -170Q441 -163 445 -160Q443 -154 429 -146Q411 -135 411 -123L413 -122Q417 -122 418 -121Q413 -114 408 -107Q403 -101 403 -87V-84Q361 -69 338 -49Q315 -29 279 -6ZM783 -53Q779 -43 759 -43Q752 -43 744 -44Q737 -44 729 -42Q747 -31 773 -31Q789 -31 804 -36Q800 -31 800 -21Q800 -5 812 -2Q821 -3 836 -9Q857 -17 869 -17Q875 -17 879 -16Q865 -8 849 -3Q832 1 825 15Q826 21 833 21Q841 20 846 22Q845 25 840 28Q837 30 836 34V36Q836 49 875 49Q906 49 911 56Q883 57 852 60Q831 64 830 80Q830 88 836 98Q833 97 828 97Q808 97 792 117Q761 107 729 96Q705 73 688 46Q680 33 670 19Q660 4 659 -11Q659 -25 671 -36H661Q656 -36 652 -38L639 -44Q639 -30 609 -30Q586 -28 563 -26Q570 -9 590 4H592Q598 2 604 0H606V3Q609 28 621 46Q613 93 574 93H566Q538 89 515 58Q494 60 473 61Q474 55 485 51Q495 48 497 43V42Q497 40 494 40Q491 40 491 37V36Q494 25 494 10Q495 -4 503 -11H498Q493 -11 482 -3Q471 5 468 5H466Q451 5 436 -17Q417 -18 403 -23Q393 -32 393 -47Q395 -74 413 -87Q414 -97 418 -111Q421 -115 422 -114Q432 -117 449 -128Q471 -142 486 -145Q482 -140 477 -137Q471 -135 470 -127V-126Q474 -122 485 -122Q505 -122 510 -124Q506 -127 501 -139Q495 -153 488 -158Q493 -164 493 -173Q488 -195 483 -217Q483 -222 486 -228L476 -243Q459 -257 449 -281Q434 -308 434 -332Q433 -340 432 -349Q443 -372 454 -386Q484 -418 505 -418Q518 -418 529 -407Q543 -411 563 -421Q590 -434 605 -438L599 -464Q574 -456 540 -431Q538 -432 533 -432Q524 -432 516 -424Q506 -431 495 -437Q485 -443 483 -458H482Q444 -458 444 -507Q444 -531 454 -551Q450 -561 450 -569Q450 -591 462 -603Q477 -614 495 -626Q502 -634 509 -642Q516 -649 525 -650H529Q524 -643 519 -636Q514 -630 513 -619Q517 -618 524 -618Q560 -618 596 -641Q589 -667 587 -701Q580 -718 576 -735Q576 -741 577 -744Q583 -766 604 -785Q625 -805 647 -805Q651 -804 654 -804Q661 -801 668 -798H670Q692 -772 717 -746Q718 -735 732 -708V-706Q730 -699 728 -692L729 -689Q739 -690 757 -700Q777 -711 790 -713Q791 -713 806 -722Q810 -722 811 -719Q812 -716 813 -713Q824 -718 834 -725Q845 -733 855 -734Q851 -728 845 -722Q839 -715 838 -708Q838 -705 840 -701Q849 -702 866 -710Q881 -718 887 -719Q884 -711 872 -701Q857 -690 857 -682H859Q871 -686 882 -691Q868 -682 868 -662Q868 -654 873 -644Q876 -641 882 -641H885V-639Q882 -633 874 -625Q869 -617 863 -593Q856 -566 848 -557H839Q807 -555 783 -545L759 -540Q738 -528 717 -518Q692 -508 690 -475V-468Q716 -482 747 -495Q762 -518 800 -520Q819 -520 830 -510Q834 -511 840 -515Q848 -520 854 -521V-520Q852 -514 849 -509Q859 -511 870 -522Q882 -534 891 -534H895Q893 -529 882 -521Q868 -511 868 -501V-497H869Q871 -497 874 -502Q878 -509 883 -509H886Q883 -498 883 -488Q883 -473 896 -431Q888 -411 879 -392H874Q862 -392 850 -376Q840 -363 833 -360L809 -291Q789 -211 789 -173V-162Q829 -166 868 -173Q874 -179 879 -186Q883 -194 892 -197V-194Q892 -179 908 -179Q921 -179 929 -183Q931 -176 931 -169Q931 -163 938 -159Q941 -162 950 -162H957Q949 -156 946 -146Q946 -144 948 -140L951 -138Q955 -139 958 -140H960L961 -138Q959 -134 957 -130V-128Q963 -113 963 -98Q963 -68 945 -41Q928 -34 904 -34Q878 -34 827 -45ZM319 -224Q311 -224 307 -225Q299 -213 286 -206Q274 -199 262 -192Q235 -182 224 -151Q192 -149 189 -148Q178 -159 165 -184Q153 -207 140 -216Q157 -255 181 -284Q205 -312 228 -345Q167 -331 157 -287H152Q128 -287 114 -302Q109 -308 90 -341Q73 -368 70 -379Q65 -394 65 -415Q66 -418 66 -422Q69 -433 81 -443Q92 -453 101 -461Q126 -489 149 -505Q172 -520 203 -541Q213 -552 225 -554H226L261 -585Q267 -606 292 -632Q312 -653 319 -667Q317 -675 312 -676Q322 -679 337 -690Q352 -701 368 -701Q380 -701 391 -695Q416 -677 421 -670Q430 -651 434 -624Q439 -598 444 -572Q439 -559 436 -544V-540Q405 -533 388 -519Q371 -505 345 -486Q333 -478 301 -475Q277 -473 269 -455Q273 -453 284 -453Q309 -453 342 -467Q340 -459 337 -452Q338 -442 349 -428Q359 -415 359 -404V-403Q357 -385 324 -360Q288 -333 284 -316Q304 -329 331 -338Q347 -357 373 -360Q381 -358 383 -358Q388 -358 392 -361L396 -355Q399 -350 420 -327Q423 -318 429 -289Q434 -274 434 -264V-262Q428 -257 421 -245Q415 -233 412 -230Q406 -233 399 -216Q391 -197 387 -197Q378 -197 359 -210Q334 -227 319 -224Z"/>
</svg>