<svg xmlns="http://www.w3.org/2000/svg" viewBox="0 -800 1024 1024">
	<path fill="#000000" d="M561 -123Q550 -141 544 -157Q525 -143 525 -118V-112Q538 -117 550 -117H556Q559 -120 561 -123ZM695 -215Q681 -217 670 -217Q640 -217 629 -205H622Q591 -205 551 -187Q552 -180 552 -173V-169Q563 -176 576 -176Q595 -175 613 -165Q632 -155 650 -149Q663 -165 677 -179Q692 -194 695 -215ZM583 -419V-430Q583 -437 582 -439Q581 -440 577 -440Q571 -439 565 -439H562Q558 -435 558 -424V-418Q563 -415 568 -412Q576 -415 583 -419ZM638 -460V-463Q636 -465 630 -465Q623 -465 616 -456Q610 -448 610 -439Q610 -430 616 -424Q620 -427 625 -427H633Q636 -443 638 -460ZM582 -541Q570 -541 560 -532Q550 -523 550 -509Q550 -502 551 -499Q563 -502 575 -505V-514Q575 -534 582 -541ZM681 -603Q653 -602 639 -598Q620 -592 615 -577Q624 -568 631 -548Q624 -544 624 -530Q624 -522 626 -519Q654 -526 663 -551Q673 -577 681 -603ZM196 -277Q191 -258 185 -238Q180 -218 168 -205H164Q160 -205 159 -203Q155 -201 153 -189H148Q128 -191 113 -200Q106 -196 98 -192Q100 -200 100 -209Q100 -216 98 -219Q83 -240 63 -258Q43 -277 41 -315Q41 -345 53 -360Q50 -372 47 -384L49 -385Q54 -382 59 -380Q63 -387 63 -396Q60 -415 57 -435Q65 -427 70 -414Q81 -425 86 -450Q87 -457 91 -498Q94 -492 96 -471Q98 -450 103 -441Q107 -442 108 -446Q110 -452 112 -452Q114 -426 130 -414Q145 -401 159 -387Q164 -388 169 -396L171 -393Q170 -388 168 -384Q174 -387 178 -399Q184 -415 194 -415H195Q191 -404 185 -392Q179 -380 178 -367Q178 -358 180 -354L182 -353Q183 -353 184 -356Q185 -360 188 -360H189Q187 -353 187 -339Q189 -306 196 -277ZM60 -458V-455L58 -454Q48 -457 47 -471Q47 -480 55 -480H56Q58 -469 60 -458ZM929 -173Q929 -168 925 -164Q921 -159 921 -156V-154Q913 -154 913 -167Q913 -179 922 -179Q926 -179 928 -178Q929 -175 929 -173ZM886 -246Q885 -241 880 -235Q875 -230 875 -226Q873 -230 873 -236Q873 -247 881 -247Q883 -247 886 -246ZM622 -54Q608 -43 596 -36Q597 -36 599 -34Q578 -28 529 2Q516 9 498 35Q481 60 466 65Q460 67 457 67Q443 67 426 52Q411 38 405 24L392 17Q388 -1 383 -19Q385 -29 386 -39Q384 -56 369 -70Q372 -55 372 -40Q372 -17 366 -2Q361 9 353 18H351Q344 18 328 10Q316 8 309 -3Q297 -14 291 -22Q276 -38 266 -59Q256 -79 244 -97Q223 -73 216 -32Q210 8 206 48Q205 60 192 80Q182 96 180 107Q179 99 175 93Q150 90 142 68Q134 50 116 42H115Q111 44 107 46L106 45Q105 43 105 40Q105 35 113 31Q119 28 121 25Q115 11 79 6Q49 2 41 -6Q44 -7 50 -7Q67 -3 83 0H85Q115 0 135 -34Q144 -50 162 -102Q169 -123 175 -145Q180 -163 184 -178Q189 -193 202 -200L209 -245Q217 -324 230 -415Q235 -452 235 -458V-462Q233 -472 220 -489Q208 -504 206 -509Q189 -551 187 -564Q187 -569 186 -574Q186 -596 199 -624Q210 -645 225 -662Q241 -680 256 -699Q259 -699 262 -700Q274 -700 281 -690Q283 -688 292 -669Q303 -646 315 -600Q320 -581 320 -556Q320 -535 306 -453Q286 -343 280 -297V-295Q302 -343 321 -402Q316 -417 316 -452Q323 -454 330 -456Q328 -462 328 -466Q332 -490 353 -492H355Q358 -492 365 -480Q371 -471 374 -470H375Q377 -470 379 -474Q381 -478 382 -478L384 -477V-473Q385 -458 397 -450Q408 -443 415 -435Q414 -431 414 -425Q417 -407 420 -389Q420 -381 414 -367Q407 -349 407 -340Q402 -332 402 -323Q389 -313 378 -309L370 -300L371 -297Q370 -292 365 -288Q359 -285 355 -283Q346 -275 335 -252Q325 -232 319 -225Q315 -226 312 -232Q309 -238 306 -239H304Q300 -239 296 -233Q293 -229 291 -229H289L341 -162Q345 -159 345 -154Q344 -146 343 -138Q343 -130 350 -129Q353 -132 353 -142Q352 -154 351 -167Q351 -175 356 -179Q355 -172 355 -160Q358 -114 369 -73Q391 -67 393 -66L395 -68Q395 -70 392 -73H395Q419 -76 442 -86Q442 -123 463 -165Q458 -169 456 -178V-180Q450 -186 435 -192Q416 -199 411 -206Q397 -227 398 -254Q398 -281 398 -309Q401 -308 403 -304Q406 -299 409 -298H427Q470 -298 543 -311Q595 -320 622 -322L638 -325Q644 -330 655 -329Q666 -329 675 -331Q671 -336 661 -338Q652 -339 649 -347Q619 -343 590 -338Q561 -333 548 -313H494Q494 -314 472 -349V-351Q474 -355 476 -360Q458 -407 445 -447Q437 -478 427 -506Q418 -535 396 -553V-561Q396 -571 399 -573Q393 -583 393 -594Q393 -605 398 -622Q404 -643 404 -652Q404 -664 401 -670H402Q412 -666 419 -655L440 -667Q485 -665 503 -646V-644Q524 -653 544 -662Q556 -668 568 -674Q582 -684 589 -688Q600 -695 624 -705Q655 -718 666 -727Q675 -736 684 -745Q692 -755 703 -761Q717 -767 730 -767Q760 -764 793 -741Q811 -748 828 -755Q824 -746 819 -738Q826 -740 835 -747Q844 -753 857 -755Q835 -731 835 -717V-714L838 -712Q839 -712 842 -716Q845 -720 848 -720Q850 -719 852 -718V-716Q852 -713 848 -711Q843 -708 842 -705Q842 -702 841 -699Q841 -686 854 -660Q848 -654 848 -642Q849 -632 849 -622Q835 -611 829 -594Q827 -595 823 -595Q815 -595 805 -588Q796 -582 792 -582H789L782 -571Q727 -482 720 -343L723 -342Q729 -344 735 -349Q750 -353 767 -356Q784 -358 796 -366L798 -364Q796 -359 793 -355L794 -352Q814 -362 851 -366Q830 -357 826 -355Q814 -348 810 -336Q813 -333 815 -330Q824 -332 832 -335Q836 -335 839 -331Q824 -331 824 -317Q824 -302 841 -300Q838 -292 833 -284Q828 -276 827 -264Q828 -260 828 -256H825Q816 -255 813 -249Q810 -243 806 -237Q786 -237 775 -231Q775 -216 783 -206Q784 -204 800 -190V-185Q803 -164 815 -152Q804 -151 797 -142Q793 -136 787 -121H782Q747 -121 719 -108Q747 -85 785 -68Q822 -52 859 -37Q867 -44 867 -71Q867 -96 875 -103Q877 -56 882 -48V-59Q878 -124 874 -189Q874 -200 876 -218Q881 -193 886 -136Q890 -80 896 -55Q898 -66 898 -88Q898 -106 892 -208Q899 -186 903 -123Q906 -74 912 -49Q914 -63 914 -72Q914 -91 913 -111Q913 -133 918 -143Q919 -89 935 -36Q946 -1 971 52Q964 57 951 73Q942 84 935 90L934 93Q935 97 936 100H934Q924 100 919 106Q915 111 909 117H906Q890 114 876 107H863Q856 107 854 106Q843 100 835 89Q816 71 763 39Q720 13 700 -4L684 -19Q676 -21 647 -37Q635 -45 622 -54Z"/>
</svg>