<svg xmlns="http://www.w3.org/2000/svg" viewBox="0 -800 1024 1024">
	<path fill="#000000" d="M893 -732H892Q886 -732 886 -744Q891 -747 896 -751L898 -750V-747Q898 -737 893 -732ZM907 -198L915 -195Q913 -177 909 -171Q903 -174 903 -184Q903 -192 907 -198ZM638 -459V-460Q578 -447 547 -412H528Q521 -412 520 -414Q521 -410 521 -402V-395Q521 -390 522 -387Q569 -405 618 -418Q624 -420 633 -441Q638 -451 638 -459ZM682 -587V-589Q642 -575 597 -555Q551 -536 526 -498Q549 -504 591 -522Q640 -542 670 -549Q678 -569 682 -587ZM727 13Q720 14 720 18Q715 27 708 27Q695 41 673 53Q645 49 630 29Q630 14 615 -3Q616 -5 616 -9Q613 -25 609 -41V-43Q611 -54 618 -63Q630 -99 630 -144V-150Q627 -173 623 -196V-200Q624 -209 624 -218V-222Q624 -234 617 -252Q611 -267 610 -273Q610 -299 605 -325Q612 -320 616 -312Q619 -316 623 -316Q639 -312 654 -309Q660 -309 663 -310Q685 -288 695 -259Q750 -279 764 -345H767Q788 -347 808 -354Q809 -353 810 -348Q811 -342 814 -340Q825 -344 835 -349L838 -348L839 -346Q835 -338 826 -328Q828 -323 834 -322Q840 -321 844 -319Q852 -314 852 -303Q849 -286 846 -270V-267Q847 -261 847 -255Q846 -235 839 -220Q833 -204 829 -193Q772 -189 731 -176Q691 -163 689 -98V-95H700Q716 -95 743 -100Q776 -106 797 -106H818Q834 -106 841 -105Q851 -125 857 -151Q858 -154 858 -161V-174Q858 -187 863 -193Q863 -162 868 -129Q870 -139 870 -163Q869 -197 868 -232Q868 -253 871 -270Q874 -252 876 -211Q878 -163 883 -144Q886 -166 886 -197Q885 -244 883 -292Q881 -306 881 -313Q881 -324 888 -330Q888 -218 907 -120Q908 -124 908 -134V-145Q908 -154 909 -157Q912 -130 926 -103Q936 -84 955 -61Q955 -45 963 -34V-19Q963 -6 967 -1Q963 7 951 20Q937 35 933 45Q875 18 758 15ZM370 -528Q348 -507 325 -490Q298 -467 279 -442Q253 -433 241 -406Q257 -410 277 -416Q298 -423 310 -433V-429Q309 -423 307 -418Q312 -408 319 -402Q319 -388 327 -360Q321 -354 321 -346Q321 -342 322 -339Q312 -327 286 -305Q257 -280 247 -268Q281 -280 309 -295Q320 -303 322 -312Q324 -322 330 -336Q333 -335 334 -331Q336 -325 339 -324Q342 -324 345 -330Q348 -335 351 -336Q355 -333 360 -322Q364 -312 368 -309Q374 -311 380 -313L383 -312Q383 -304 378 -301Q374 -299 371 -294Q372 -284 381 -277Q381 -267 381 -258Q378 -237 371 -210Q360 -199 333 -203Q317 -198 293 -186Q271 -175 256 -171Q242 -161 220 -152Q167 -134 157 -103H152Q129 -103 119 -122Q112 -110 112 -99Q112 -96 114 -88Q119 -82 125 -82Q130 -82 136 -85Q150 -89 163 -94Q203 -112 242 -130Q254 -136 281 -148Q309 -161 319 -169Q325 -170 337 -177Q353 -187 361 -188Q358 -177 355 -166Q357 -163 358 -163Q361 -165 364 -168L366 -166L367 -163Q365 -156 363 -149Q366 -144 369 -139Q365 -129 362 -125Q359 -122 359 -108L361 -107L365 -106Q355 -91 353 -65V-62Q340 -56 326 -51Q331 -48 336 -45Q343 -51 349 -57H391Q407 -57 423 -61Q424 -65 424 -69Q424 -80 423 -92Q423 -111 431 -114L432 -139Q427 -140 427 -151V-165Q427 -225 400 -249Q400 -252 399 -256Q401 -276 415 -285V-291Q415 -299 413 -315Q418 -313 421 -304Q423 -297 426 -295Q430 -293 432 -293Q443 -295 454 -297H457Q468 -296 476 -277Q481 -265 486 -261Q513 -267 535 -279Q557 -291 578 -304Q568 -292 565 -278V-277L568 -276Q572 -279 578 -282H579Q579 -277 578 -272Q578 -255 591 -255Q592 -244 597 -228Q603 -211 603 -203V-199Q597 -189 593 -178Q593 -175 597 -171Q595 -168 588 -168Q560 -153 534 -133Q518 -124 503 -116Q488 -109 481 -90Q540 -115 599 -141Q593 -135 587 -131Q581 -127 579 -118H580Q585 -120 589 -122L591 -121L592 -119Q592 -116 587 -111Q578 -101 578 -96Q578 -94 580 -88H581Q583 -88 585 -91Q588 -95 590 -95H591Q588 -79 584 -63Q585 -59 585 -55Q504 -14 483 0Q429 34 400 75Q396 76 391 76Q365 74 355 56Q344 36 329 21Q329 18 328 15Q332 -4 335 -23Q335 -26 334 -29Q334 -33 328 -39Q324 -43 324 -48V-50Q281 -30 246 -10L225 1Q221 10 196 26Q176 39 173 43Q168 55 161 70Q154 85 139 87Q135 87 132 86Q121 76 112 59Q102 57 94 57Q85 56 79 48Q66 23 79 0Q71 -16 71 -39Q71 -52 74 -63Q83 -83 100 -104Q108 -117 115 -130Q113 -136 111 -142L108 -144L104 -145V-146Q102 -158 102 -167V-183Q102 -199 100 -203Q96 -211 85 -211H81Q82 -218 89 -218L93 -217L97 -218Q132 -242 176 -295Q134 -279 130 -277Q107 -264 100 -238Q85 -235 84 -235Q73 -235 65 -242Q61 -250 57 -259Q50 -266 46 -283Q43 -295 39 -302V-320Q36 -336 33 -353V-355Q35 -366 57 -392Q79 -416 88 -421L95 -430Q100 -448 113 -463Q125 -477 138 -490Q145 -498 152 -507Q159 -517 169 -518L173 -517L186 -533Q187 -551 195 -559Q204 -567 210 -577Q211 -588 217 -596Q215 -613 210 -628Q208 -632 202 -637Q195 -643 193 -649L196 -650Q208 -647 220 -644Q223 -652 224 -653Q224 -656 220 -658Q217 -660 217 -664Q221 -668 225 -668Q231 -667 237 -667H238Q246 -667 259 -676Q269 -683 277 -684Q280 -684 283 -685Q301 -685 318 -667Q328 -656 344 -631Q353 -627 366 -599Q376 -614 393 -625Q410 -636 412 -662V-663Q414 -660 415 -652Q416 -642 420 -639Q444 -639 452 -636Q458 -634 475 -621Q517 -640 559 -660Q568 -665 577 -671Q585 -676 597 -677Q602 -677 604 -676L673 -703Q674 -717 688 -722Q712 -731 713 -732Q721 -738 729 -756Q737 -776 744 -781Q755 -788 766 -788Q782 -787 797 -776Q812 -765 825 -754Q833 -758 842 -760H846L848 -759Q846 -753 843 -747V-745H844Q848 -745 853 -751Q861 -760 867 -760H871Q861 -744 851 -729Q857 -717 862 -706Q866 -708 871 -715Q877 -724 884 -724V-723Q884 -717 879 -709Q874 -700 874 -696V-693Q876 -686 881 -682Q886 -679 891 -673Q888 -637 885 -601Q846 -589 812 -546L791 -506Q785 -477 765 -432Q737 -368 733 -327Q721 -325 721 -316Q719 -318 716 -318Q707 -315 701 -310Q696 -312 691 -314Q687 -314 686 -309Q685 -309 673 -318H669Q654 -319 645 -327Q635 -335 626 -342Q575 -338 535 -316Q530 -306 526 -294Q520 -291 512 -291Q500 -292 487 -294Q452 -342 435 -394Q424 -443 400 -477Q397 -480 391 -485Q382 -492 380 -496Q377 -506 376 -517Q375 -520 370 -528Z"/>
</svg>