<svg xmlns="http://www.w3.org/2000/svg" viewBox="0 -800 1024 1024">
	<path fill="#000000" d="M373 -381H376Q370 -366 361 -366Q363 -381 373 -381ZM665 15H658Q640 15 638 3L642 2Q654 2 665 15ZM920 -743Q912 -733 902 -727Q899 -730 899 -733Q899 -737 904 -742Q908 -746 913 -746Q917 -746 920 -743ZM684 -379Q654 -385 644 -385Q619 -385 610 -363Q642 -372 684 -379ZM646 -103V-105Q645 -112 644 -120Q644 -122 646 -126H640Q606 -125 601 -93H603Q625 -98 646 -103ZM971 -173V-168Q970 -160 958 -150Q944 -139 944 -129Q914 -96 891 2Q873 75 859 103Q848 105 831 114Q808 126 795 126Q789 126 785 125Q775 123 760 110Q744 96 734 94Q733 91 727 74Q721 66 717 66Q712 41 675 23Q677 22 682 22Q697 25 712 27Q697 9 643 -12Q637 -15 630 -18Q623 -21 620 -27Q629 -27 665 -12Q708 5 724 6Q724 0 710 -5Q696 -10 694 -16Q702 -13 708 -13Q729 -13 742 -31Q757 -54 768 -89Q779 -125 789 -149Q781 -151 775 -151Q736 -146 714 -138Q718 -135 721 -130Q725 -126 731 -126Q735 -126 737 -127V-126Q736 -120 735 -115Q735 -113 737 -111H738Q744 -111 753 -120Q762 -129 766 -129H768Q767 -125 759 -116Q748 -103 748 -97Q748 -89 760 -85Q747 -78 747 -68Q747 -63 748 -60Q739 -48 733 -33Q713 -37 701 -37Q676 -37 668 -24V-25Q668 -28 676 -36Q682 -41 684 -46Q682 -52 679 -58Q674 -58 669 -59Q629 -59 594 -31Q587 -23 579 -13Q571 -3 563 -1H561Q532 -3 509 -16Q504 -21 504 -30Q508 -50 511 -70V-74H512L514 -77Q517 -78 523 -78H527Q533 -89 539 -100Q537 -101 532 -101Q516 -101 503 -88Q491 -76 489 -61V-59Q492 -40 494 -21V-18Q493 0 491 17Q491 28 494 33Q481 77 456 77H455Q447 74 435 64Q430 63 425 61Q413 46 407 30Q405 29 400 29Q392 30 384 30H379Q385 24 393 20Q401 16 404 8Q400 -18 397 -46Q394 -73 379 -90Q367 -84 346 -78Q322 -72 313 -67Q284 -53 255 -39Q215 -25 177 -8Q138 9 117 44Q107 47 97 47Q68 47 50 29Q49 17 35 4Q19 -11 19 -27V-31Q20 -43 34 -61Q31 -70 31 -78Q32 -95 46 -105Q60 -114 74 -126Q83 -135 90 -144Q96 -153 105 -154L106 -151Q106 -147 99 -139Q89 -128 89 -121V-117Q94 -112 101 -112Q106 -112 124 -118Q212 -150 221 -153Q218 -166 218 -181V-192L214 -193Q207 -193 192 -180Q179 -169 172 -168H168Q157 -168 149 -174Q140 -181 139 -193Q117 -204 113 -232Q113 -244 122 -252Q120 -256 120 -262Q121 -272 127 -278Q133 -285 139 -292Q140 -294 142 -300Q143 -305 148 -306Q150 -305 151 -301Q152 -295 154 -294Q176 -297 206 -312Q205 -320 199 -334Q193 -349 192 -361Q160 -352 149 -345Q142 -340 135 -333Q128 -325 120 -324H116Q100 -324 85 -337Q68 -351 68 -369V-372Q52 -388 45 -398Q33 -415 33 -433Q33 -441 34 -445Q40 -453 46 -462Q48 -467 49 -480Q50 -494 54 -502Q64 -520 74 -538Q81 -555 85 -569Q90 -582 101 -589Q94 -557 94 -546Q94 -524 107 -520Q108 -524 109 -535Q110 -551 114 -555Q117 -552 120 -542Q124 -529 129 -526Q151 -528 171 -536Q191 -544 210 -551Q250 -562 281 -583Q289 -592 296 -601Q301 -604 314 -607Q327 -610 333 -614Q350 -604 355 -603Q365 -607 374 -614Q383 -620 397 -621Q394 -615 382 -608Q367 -599 367 -590V-586H369Q373 -586 380 -591Q388 -597 391 -597H393Q385 -583 381 -567Q381 -563 382 -561L384 -558Q389 -559 393 -561Q395 -561 397 -559Q392 -551 392 -542Q392 -537 400 -510V-513Q403 -532 407 -546V-550Q407 -559 406 -569Q406 -574 407 -577Q409 -584 423 -598Q452 -621 481 -645Q483 -643 483 -640Q483 -638 479 -632Q474 -625 474 -619V-618Q482 -610 497 -610Q511 -610 539 -620Q564 -629 572 -630V-632Q572 -647 554 -669Q538 -688 537 -699Q537 -702 536 -706Q536 -718 546 -738Q555 -756 557 -766Q580 -774 585 -781Q584 -792 564 -797Q550 -800 546 -805Q629 -803 671 -777Q714 -748 714 -710V-706Q707 -695 698 -686Q689 -677 687 -661Q749 -676 791 -703Q798 -699 808 -699Q818 -699 834 -703H835L836 -702Q836 -699 835 -696V-694Q842 -697 856 -707Q876 -721 887 -723V-721Q887 -716 880 -712Q873 -708 866 -702Q858 -688 858 -678Q858 -669 862 -664Q867 -666 879 -674Q891 -682 899 -683Q898 -678 887 -668Q874 -656 874 -649Q874 -643 882 -636Q894 -639 900 -643Q899 -635 894 -628V-622Q895 -610 895 -599Q895 -594 894 -591Q893 -586 887 -577Q877 -561 877 -552Q877 -546 878 -543Q866 -539 854 -535Q849 -537 843 -540H841Q834 -539 826 -538Q820 -539 807 -539Q752 -539 723 -523Q724 -515 730 -502Q737 -488 737 -480Q735 -466 723 -456Q712 -447 703 -436V-430Q703 -418 709 -412Q714 -405 720 -399L716 -398Q711 -399 705 -400H702Q696 -397 693 -391Q690 -385 687 -379Q716 -381 734 -388Q751 -401 755 -426Q760 -450 768 -471Q768 -479 749 -479Q797 -530 836 -530Q855 -530 870 -516Q873 -517 879 -517Q890 -517 894 -511V-506Q894 -480 920 -462Q918 -458 918 -451Q920 -439 921 -427Q919 -399 898 -385Q877 -372 857 -358Q851 -344 841 -334Q832 -323 831 -304Q809 -276 807 -252Q788 -242 769 -242Q757 -242 739 -247Q721 -265 709 -272Q706 -290 706 -292V-297Q699 -298 686 -298Q616 -298 542 -259Q536 -249 533 -235Q515 -230 504 -230Q497 -230 483 -232Q473 -236 461 -251Q449 -266 440 -270Q443 -280 443 -289Q443 -310 418 -335Q392 -361 392 -385Q392 -392 393 -396Q430 -441 477 -441Q505 -423 530 -376Q539 -388 553 -396Q566 -404 579 -413Q571 -433 561 -450Q561 -453 564 -454Q568 -456 569 -457Q567 -464 564 -471V-473Q568 -472 572 -472Q583 -472 601 -483Q613 -478 624 -478Q641 -478 641 -489Q641 -495 637 -502Q613 -498 589 -495Q565 -493 542 -482Q521 -471 503 -458Q484 -446 466 -444H465Q443 -445 433 -461Q421 -480 404 -498Q397 -460 388 -445Q373 -423 340 -416Q322 -415 304 -405V-401Q303 -380 301 -360Q301 -350 302 -344H305Q312 -344 331 -354Q346 -362 354 -363Q352 -356 344 -351Q335 -345 334 -339Q346 -343 357 -347Q353 -337 348 -327Q350 -324 352 -324Q358 -326 364 -329L368 -327Q365 -321 358 -315Q361 -307 369 -304Q361 -292 357 -270Q353 -248 345 -240Q338 -233 323 -229H310Q305 -229 302 -228Q289 -221 289 -195Q289 -185 290 -180Q296 -181 310 -189Q323 -197 330 -199Q332 -215 336 -220Q338 -207 342 -199Q345 -195 353 -194Q365 -192 367 -186Q386 -209 393 -262Q398 -261 398 -251Q398 -243 397 -236Q397 -225 403 -223Q408 -226 409 -233Q409 -240 411 -246Q418 -234 433 -231Q448 -228 462 -222Q468 -206 474 -190H476Q479 -190 480 -187Q495 -191 516 -192Q546 -194 561 -199V-203Q560 -215 555 -221Q550 -228 546 -237Q565 -260 570 -265Q587 -281 604 -281Q613 -281 620 -278Q629 -272 638 -255Q645 -246 653 -238Q660 -230 661 -216Q720 -226 773 -236Q826 -245 854 -282H864Q881 -282 890 -278Q898 -282 910 -298Q925 -317 936 -319Q932 -310 925 -297Q917 -284 916 -271Q916 -260 924 -253Q930 -254 935 -265Q939 -274 947 -275Q941 -259 941 -248V-243L943 -242Q945 -242 947 -245Q951 -250 954 -250L958 -249Q953 -241 953 -216Q967 -197 971 -173Z"/>
</svg>