<svg xmlns="http://www.w3.org/2000/svg" viewBox="0 -800 1024 1024">
	<path fill="#000000" d="M265 -199Q242 -194 232 -188Q215 -178 215 -162Q215 -153 217 -148Q238 -158 262 -165V-172Q264 -185 265 -199ZM271 -311Q271 -318 269 -330Q252 -328 239 -316Q226 -304 211 -295V-277Q211 -269 213 -265Q225 -272 236 -280Q247 -288 266 -289H268Q271 -298 271 -311ZM279 -448Q279 -460 277 -480Q255 -460 233 -438Q212 -416 210 -378V-376Q221 -377 242 -391Q262 -404 277 -407Q279 -435 279 -448ZM344 -220Q350 -209 352 -182L354 -150Q356 -137 364 -107Q372 -78 372 -63Q372 -54 364 -40Q356 -26 356 -18Q343 -17 329 -13Q315 -10 313 3Q309 -9 298 -13Q287 -17 277 -22Q275 -30 270 -38Q262 -50 262 -58V-64Q226 -58 209 -45Q199 -36 190 -25Q181 -14 164 -13H159Q154 -18 142 -25Q127 -34 122 -42Q117 -52 115 -63Q112 -75 102 -82Q114 -98 114 -131Q112 -173 106 -216Q103 -237 103 -240Q103 -250 109 -256L102 -304Q96 -334 77 -379Q69 -396 59 -411Q50 -426 49 -448Q49 -457 50 -462Q62 -476 62 -495V-496Q58 -516 53 -532Q53 -535 56 -540Q61 -533 64 -524Q67 -516 75 -513Q81 -520 81 -528Q81 -538 71 -558Q59 -582 59 -593Q60 -596 60 -600H61Q67 -599 69 -593Q70 -587 71 -583Q79 -563 84 -555Q93 -541 108 -539Q111 -541 114 -543Q114 -552 106 -565Q100 -575 100 -581V-585Q106 -583 110 -578Q114 -573 118 -568Q127 -560 136 -553Q139 -554 143 -554Q150 -554 159 -548Q171 -540 178 -540H179Q195 -541 208 -555Q221 -569 232 -580Q258 -598 278 -621Q292 -640 305 -660Q317 -679 344 -681Q352 -681 356 -680Q365 -672 371 -665Q378 -665 384 -676Q390 -686 398 -687Q398 -683 393 -673Q386 -660 386 -653Q386 -647 389 -643Q394 -644 397 -650Q400 -657 404 -657Q403 -647 401 -637V-633Q410 -626 411 -605Q414 -597 416 -589Q414 -576 398 -555Q372 -506 366 -436Q361 -393 358 -354Q355 -316 347 -275ZM691 -23Q699 -15 700 2Q700 18 704 30Q696 48 696 61Q696 68 697 72Q689 78 678 92Q667 107 664 109Q655 117 641 117Q623 117 608 105Q604 101 599 89Q592 71 583 69V66Q583 60 578 51Q574 44 574 41Q574 38 577 35Q557 23 538 23Q530 23 527 24Q530 14 550 14Q560 15 569 15Q576 15 577 14Q577 10 572 10Q570 11 567 11Q564 11 562 9Q570 1 579 -5Q588 -11 594 -22Q604 -41 604 -96V-103Q604 -126 605 -136Q574 -124 528 -69Q497 -35 486 -19Q469 10 452 23Q441 34 431 38H428Q420 38 415 32Q410 26 406 19Q400 -3 380 -7Q382 -13 382 -15Q380 -27 377 -40Q381 -43 385 -46V-49Q385 -62 377 -76L379 -79Q384 -75 388 -72V-74Q388 -86 379 -104Q374 -115 372 -124Q377 -122 385 -110Q395 -94 404 -92Q459 -122 508 -163Q558 -203 606 -242Q584 -237 562 -227Q551 -219 540 -210Q530 -201 517 -200Q513 -200 507 -202Q500 -206 494 -216Q488 -225 484 -230Q472 -237 458 -245Q445 -253 444 -274Q444 -278 446 -290L460 -313V-321Q462 -357 486 -373Q510 -389 535 -402L555 -377Q555 -387 569 -390Q581 -393 583 -397H587Q595 -397 608 -405V-428Q608 -445 606 -452Q577 -444 547 -430Q532 -420 513 -407Q494 -393 475 -392Q459 -392 449 -406Q444 -413 440 -424Q436 -435 431 -440Q425 -445 412 -448Q396 -457 396 -483Q396 -495 401 -512Q410 -526 419 -540Q423 -558 423 -573Q423 -588 438 -593Q426 -608 418 -628Q430 -626 440 -620Q449 -614 459 -609Q462 -611 469 -611Q481 -609 493 -607Q509 -608 538 -618Q566 -628 580 -629Q577 -664 555 -674Q556 -677 560 -679Q565 -682 565 -687V-688Q563 -690 563 -692Q560 -696 556 -696Q549 -695 541 -694H538Q544 -705 554 -712Q563 -719 572 -727Q587 -746 603 -768Q619 -792 647 -794Q663 -794 686 -769Q706 -747 720 -743Q725 -737 725 -727Q725 -721 721 -708Q716 -691 716 -681V-674Q755 -680 788 -691Q820 -702 852 -712L854 -711V-704H855Q863 -702 871 -701H873Q881 -701 894 -708Q907 -715 912 -715H915Q908 -706 898 -700Q888 -694 887 -677V-674Q892 -669 901 -669Q912 -670 923 -671Q927 -671 929 -670Q926 -667 909 -659Q895 -653 895 -642Q895 -638 896 -635L899 -634Q903 -637 907 -640L910 -638L911 -635Q906 -623 896 -609Q898 -597 898 -593Q898 -574 881 -553Q869 -537 865 -527Q863 -532 855 -532Q840 -531 835 -515Q833 -520 823 -520Q808 -517 793 -515L762 -511Q760 -509 760 -505Q728 -497 700 -484Q695 -461 695 -437Q722 -444 747 -453Q772 -461 804 -466Q807 -451 821 -448Q835 -457 851 -458Q843 -451 833 -446Q823 -440 818 -428Q828 -415 843 -412Q852 -415 860 -418Q864 -418 865 -411Q834 -402 834 -380Q834 -375 835 -373L838 -372Q842 -372 845 -373Q847 -373 849 -371Q845 -355 830 -331Q818 -312 814 -301Q793 -296 768 -294Q742 -292 722 -282Q706 -274 706 -271Q706 -268 731 -249Q779 -213 801 -180L835 -145Q850 -144 860 -136Q869 -128 878 -120Q890 -130 895 -170Q899 -204 907 -214V-208Q904 -176 901 -144Q901 -139 903 -127Q909 -143 915 -185Q921 -228 929 -247V-243Q926 -196 923 -149V-139Q927 -144 929 -158Q931 -175 935 -178Q937 -170 937 -165Q935 -139 933 -114Q933 -98 946 -66Q960 -31 960 -9V-1Q957 22 947 38Q934 59 915 59H913Q908 58 902 55Q894 50 888 50Q817 -18 712 -145Q702 -154 692 -163Q688 -159 688 -148Q688 -136 692 -132Q689 -123 689 -112Q690 -96 690 -81Q690 -71 689 -67ZM944 -292Q940 -278 935 -265V-261Q932 -265 932 -279Q932 -287 934 -295H937Q941 -293 944 -292ZM875 -471Q872 -460 862 -460H857Q859 -472 869 -473Q871 -473 875 -471Z"/>
</svg>