<svg xmlns="http://www.w3.org/2000/svg" viewBox="0 -800 1024 1024">
	<path fill="#000000" d="M416 61Q415 65 408 65Q400 65 392 60Q393 52 402 52Q414 52 416 61ZM802 -474Q799 -471 792 -471Q786 -471 776 -473Q781 -485 797 -485Q801 -479 802 -474ZM334 -525H341Q352 -525 381 -533Q378 -539 372 -558Q357 -557 346 -548Q334 -538 334 -525ZM495 -554V-569Q495 -588 490 -599Q455 -593 446 -585Q454 -559 461 -548Q480 -549 495 -554ZM621 -567Q631 -598 665 -636Q609 -636 590 -620Q595 -617 599 -614Q593 -583 579 -566Q594 -568 608 -570Q615 -570 621 -567ZM466 -162V-160Q469 -156 472 -153Q510 -157 541 -165Q543 -171 550 -181Q560 -195 560 -201Q560 -204 559 -206Q498 -195 454 -182Q456 -173 463 -173Q466 -173 472 -175Q468 -169 466 -162ZM746 -28H745Q734 -32 722 -36Q690 -37 657 -39H642Q602 -39 563 -27Q563 -7 568 15Q575 33 578 50V51Q578 67 558 91Q544 108 540 119Q534 122 527 122Q520 122 507 117Q494 112 488 112H487Q458 68 425 60Q450 60 461 61Q440 50 386 33Q425 38 466 47Q457 39 444 37Q430 35 418 32Q426 30 444 30H453Q465 30 470 29Q482 12 482 -2Q482 -8 480 -11Q404 -1 347 41Q324 38 302 26Q276 12 276 -4Q276 -14 289 -24Q290 -44 304 -57Q313 -66 334 -74Q334 -70 328 -66Q324 -63 323 -59H336Q369 -59 421 -71Q471 -82 493 -84Q495 -90 496 -96H487Q473 -96 451 -90Q433 -82 415 -75H411Q394 -78 376 -81Q371 -81 368 -80Q353 -93 353 -106V-108Q351 -110 343 -113Q334 -116 332 -120Q343 -121 356 -131Q369 -141 377 -141H378Q377 -147 372 -153Q367 -159 366 -163Q322 -155 274 -134Q247 -122 193 -93Q178 -95 165 -98Q151 -102 147 -116H142Q125 -116 113 -126Q113 -151 119 -156Q107 -161 107 -187Q107 -198 109 -212Q158 -253 202 -269Q202 -265 193 -259Q183 -252 181 -246Q184 -237 196 -237Q201 -237 205 -238Q272 -245 341 -261Q410 -272 479 -284Q482 -288 482 -292Q478 -303 473 -314Q433 -306 398 -298Q362 -291 334 -273Q314 -274 282 -286Q271 -313 249 -330Q249 -333 255 -347Q253 -352 248 -358Q241 -366 240 -371L244 -372Q251 -369 258 -366Q255 -373 233 -380Q236 -384 240 -384Q249 -382 257 -380H258Q252 -388 241 -391Q230 -395 218 -398Q222 -403 229 -403Q238 -402 246 -401H248Q255 -401 269 -407Q286 -413 295 -414Q335 -418 375 -418Q416 -419 455 -427V-431Q455 -442 449 -448Q444 -454 440 -461Q455 -479 469 -497Q416 -488 383 -477Q334 -461 313 -435Q310 -436 302 -436H287Q279 -436 276 -437Q267 -439 254 -450Q241 -462 231 -470Q214 -484 183 -500Q147 -517 130 -551Q133 -567 135 -584V-587Q133 -596 131 -605Q135 -617 138 -630V-632Q138 -640 131 -656Q124 -672 124 -682Q132 -660 151 -647V-649Q148 -661 141 -674Q145 -673 151 -668Q158 -662 162 -662H165L166 -665Q166 -668 162 -670Q157 -673 157 -676V-678Q166 -673 177 -673Q188 -673 207 -680Q226 -687 235 -687Q239 -686 242 -686Q255 -685 271 -664Q286 -645 300 -641Q307 -640 314 -640Q326 -640 356 -644Q393 -694 430 -744Q426 -752 423 -756Q418 -762 410 -762H406Q441 -779 475 -797Q486 -793 496 -789Q500 -790 504 -795Q508 -800 513 -800H516Q526 -782 556 -765Q557 -761 557 -753Q555 -722 536 -708Q517 -695 502 -677Q571 -687 643 -708Q714 -724 717 -725Q751 -737 784 -741Q807 -741 819 -725Q824 -727 840 -732V-731Q838 -726 836 -721V-720Q845 -727 853 -735Q860 -743 874 -746Q850 -730 850 -718V-714H852Q855 -714 858 -718Q862 -723 865 -723Q859 -702 859 -700Q859 -692 867 -688H868Q871 -690 871 -696Q873 -681 874 -665Q875 -649 882 -639Q880 -633 873 -624Q863 -610 861 -600Q766 -585 704 -477Q676 -473 663 -473Q629 -473 619 -495Q603 -501 582 -501Q560 -501 540 -503Q552 -494 561 -480Q569 -467 576 -453Q627 -460 674 -471Q681 -467 687 -467Q695 -467 708 -476V-474Q708 -472 713 -467H716Q734 -469 752 -471Q759 -471 763 -470Q753 -466 742 -463Q730 -460 729 -447V-443H731Q737 -444 742 -445Q743 -445 747 -443Q741 -440 735 -436Q728 -432 728 -423V-420L730 -418Q733 -418 736 -419Q739 -419 740 -417Q732 -411 726 -404Q730 -395 730 -384Q730 -368 711 -355Q630 -353 573 -330Q566 -316 566 -304Q566 -297 568 -294Q575 -296 580 -301Q584 -306 588 -311Q586 -317 584 -324Q592 -322 600 -320Q604 -320 608 -323L610 -324Q608 -326 606 -329V-330Q611 -327 616 -327Q628 -330 640 -333Q644 -334 650 -334Q666 -334 705 -317Q767 -328 804 -328Q814 -328 834 -326Q848 -332 865 -336Q867 -322 881 -320Q895 -318 910 -317Q906 -310 901 -304Q901 -303 910 -301Q906 -296 902 -292Q908 -282 914 -273Q899 -243 883 -213Q859 -215 824 -221Q766 -231 736 -231H731Q727 -231 727 -224Q727 -220 726 -219Q686 -210 639 -178Q663 -168 686 -159Q680 -151 680 -141V-138Q655 -121 618 -114Q567 -110 550 -105Q556 -97 562 -90Q577 -94 616 -95Q648 -96 667 -100Q686 -105 705 -108Q714 -108 719 -105Q733 -109 746 -114L748 -112Q747 -109 746 -107V-105Q751 -100 759 -100Q769 -101 778 -102Q782 -102 788 -100Q767 -96 761 -85Q766 -83 780 -83Q769 -80 769 -70Q769 -63 779 -63H782Q767 -28 746 -28Z"/>
</svg>