<svg xmlns="http://www.w3.org/2000/svg" viewBox="0 -800 1024 1024">
	<path fill="#000000" d="M278 -64Q276 -110 270 -152Q258 -138 258 -98Q259 -75 260 -52Q271 -56 278 -64ZM600 -32Q600 -39 596 -42Q588 -41 582 -36Q576 -31 576 -24Q576 -19 581 -14H596Q600 -26 600 -32ZM600 -114Q600 -121 599 -125Q585 -125 575 -118Q565 -111 565 -100Q565 -95 568 -89Q584 -95 599 -102Q600 -107 600 -114ZM682 -56Q672 -60 668 -60Q663 -60 645 -53Q644 -44 642 -36Q642 -32 644 -26Q647 -25 652 -25Q661 -25 669 -26Q681 -47 682 -56ZM723 -158Q681 -156 654 -140Q656 -137 656 -131V-121Q656 -116 657 -114Q680 -124 712 -126Q722 -155 723 -158ZM586 -256V-255Q584 -245 567 -239Q550 -233 547 -225L546 -229Q547 -232 547 -235Q547 -237 544 -239Q531 -238 523 -221V-224Q523 -228 528 -235Q532 -241 532 -245V-246Q532 -251 524 -258Q514 -267 513 -272Q512 -275 512 -281Q513 -291 513 -301V-308Q520 -314 526 -319Q531 -325 539 -325Q542 -324 544 -324Q550 -323 558 -313Q566 -303 571 -302Q578 -310 584 -318Q582 -299 579 -280Q583 -268 586 -256ZM756 -324H758Q745 -320 745 -301Q745 -291 750 -279Q742 -268 737 -257H734Q724 -260 713 -263Q702 -257 700 -257Q702 -258 702 -263Q702 -268 703 -269Q681 -279 678 -308Q678 -333 707 -333Q712 -332 717 -332Q724 -326 736 -324H738Q738 -319 740 -317Q748 -321 756 -324ZM863 -733Q861 -728 851 -725Q843 -723 842 -721Q840 -725 840 -726Q840 -736 854 -736Q860 -736 863 -733ZM840 -120Q836 -104 821 -88Q807 -71 793 -56Q772 -17 758 30Q744 77 713 107Q692 104 680 86Q671 74 663 48Q644 45 629 45Q606 45 590 57Q581 65 573 76Q565 86 556 87Q545 87 533 67Q524 52 519 49V47Q519 32 510 12Q502 -5 501 -17L494 -35Q482 -54 468 -67Q455 -80 454 -108Q454 -118 461 -141Q467 -159 467 -167Q463 -186 458 -206V-209Q462 -206 468 -195Q476 -181 484 -177Q487 -179 487 -183Q486 -192 484 -201V-203H485Q487 -203 490 -199Q494 -193 497 -192Q506 -198 525 -204Q536 -197 547 -191Q609 -210 670 -230Q726 -245 734 -248Q766 -260 784 -284Q787 -275 795 -272Q803 -268 809 -263Q827 -276 845 -290Q830 -269 830 -249Q830 -235 839 -228Q842 -230 845 -233Q850 -238 854 -239Q847 -232 847 -214V-203L849 -202Q852 -203 855 -204H856Q855 -200 855 -193Q857 -175 859 -157V-152Q859 -135 840 -120ZM384 -271V-269Q388 -254 391 -239V-238Q391 -232 386 -218Q380 -202 380 -192Q380 -185 381 -181Q376 -176 369 -176L379 -156Q360 -127 357 -83Q353 -38 350 8L348 7Q341 9 334 11H331Q325 15 325 20V23Q320 17 320 8Q318 8 298 2Q268 14 260 72Q216 57 206 -6L202 -29Q189 -59 181 -95Q169 -83 160 -65Q152 -46 143 -27Q138 -15 117 55Q112 53 110 47Q108 42 106 36H103Q98 37 92 37Q73 13 64 8Q49 -36 49 -108Q49 -188 64 -255Q64 -197 69 -161Q70 -164 70 -173V-193Q70 -206 73 -210Q74 -176 81 -149Q85 -152 85 -155Q83 -163 81 -172Q82 -174 82 -177Q86 -175 88 -167Q89 -161 91 -159Q94 -162 102 -174Q111 -188 119 -193L125 -205Q136 -237 153 -264L150 -265Q147 -264 144 -263L141 -264Q124 -279 108 -297Q92 -315 91 -342V-345Q94 -366 97 -388Q93 -404 88 -420Q87 -425 87 -436Q87 -468 101 -509Q103 -516 125 -570Q121 -536 117 -503Q117 -490 119 -484Q123 -489 125 -503Q128 -522 134 -526Q131 -521 131 -515Q131 -505 135 -497Q147 -502 168 -516Q197 -536 217 -540L242 -560Q256 -592 293 -612Q329 -632 352 -656Q356 -655 359 -648Q361 -643 364 -641Q367 -645 370 -650Q373 -655 380 -655H382Q373 -641 373 -633Q373 -625 380 -621Q399 -625 405 -632V-631Q405 -627 400 -621Q393 -612 392 -606Q392 -601 391 -596Q391 -577 399 -564Q401 -564 402 -568Q403 -572 406 -572H407Q404 -545 404 -543Q404 -529 411 -521Q407 -512 407 -496Q407 -479 412 -464Q403 -456 367 -439Q320 -417 311 -406Q302 -387 292 -369Q278 -353 269 -337Q264 -327 259 -305Q253 -278 246 -267Q248 -266 251 -266Q259 -267 265 -275Q270 -284 275 -293Q291 -317 297 -323Q314 -342 332 -342H337Q355 -338 362 -317Q369 -296 378 -279L379 -278Q389 -295 390 -300Q384 -305 370 -330L366 -336Q360 -348 360 -362Q360 -373 364 -387Q378 -412 416 -430Q453 -447 488 -447H490L506 -459Q550 -483 599 -503Q599 -519 596 -524H591Q581 -524 547 -506Q518 -491 512 -491H509Q494 -491 475 -518V-525Q475 -529 476 -530Q452 -554 452 -585Q452 -589 454 -599Q444 -619 430 -636H432Q436 -636 444 -628Q452 -620 457 -620Q460 -620 462 -621Q459 -631 442 -646Q421 -664 418 -679Q439 -664 460 -650Q466 -652 467 -656V-659Q467 -665 460 -672Q455 -677 455 -679L456 -681Q461 -678 468 -678Q472 -678 475 -679Q485 -699 500 -711Q509 -707 544 -712Q573 -716 583 -714L637 -723Q645 -733 659 -736Q674 -739 687 -744Q737 -763 754 -763H757Q766 -767 774 -772L775 -769V-762Q784 -754 797 -754Q819 -756 840 -765Q830 -756 816 -748Q802 -740 801 -726Q801 -723 803 -717Q814 -720 824 -723Q827 -723 831 -721Q811 -714 809 -689Q810 -685 810 -682L812 -680Q815 -680 817 -681H818Q807 -659 807 -648Q807 -642 810 -636Q803 -625 794 -615Q786 -604 784 -588Q705 -590 686 -561Q693 -547 693 -539Q693 -534 692 -531Q713 -540 754 -549Q814 -562 836 -576Q859 -592 880 -606Q882 -602 892 -596Q906 -588 909 -581Q916 -583 923 -590Q931 -598 935 -599Q924 -577 924 -570Q924 -565 925 -563L926 -562Q930 -565 934 -573V-571Q932 -560 930 -550Q930 -547 932 -543L933 -541Q936 -541 938 -542L940 -540Q936 -533 936 -524Q936 -517 943 -498Q950 -479 950 -467Q950 -463 948 -455Q937 -423 903 -408L886 -389Q872 -372 854 -359Q836 -347 827 -324Q816 -332 804 -336Q797 -336 794 -327L792 -330Q795 -335 797 -341Q797 -347 787 -347Q775 -347 775 -339Q771 -357 760 -357L756 -356Q759 -362 759 -366Q758 -373 757 -381Q757 -385 758 -387Q756 -388 752 -388Q741 -388 737 -369Q733 -346 728 -341Q705 -342 692 -360Q691 -360 688 -354L687 -357Q687 -363 689 -365Q675 -379 675 -404Q675 -426 689 -434Q694 -438 701 -438Q716 -436 724 -420Q733 -404 740 -393Q756 -428 774 -459Q767 -463 758 -463Q748 -463 722 -456Q690 -449 676 -437Q672 -422 672 -385V-365Q672 -351 670 -329V-309Q672 -297 672 -292Q671 -270 661 -255Q650 -241 639 -228Q622 -232 617 -248Q612 -264 597 -270Q606 -292 606 -331Q604 -369 602 -408Q591 -405 579 -393Q579 -387 584 -377H585Q588 -377 590 -380Q592 -384 593 -384L594 -383Q586 -353 576 -327Q570 -324 565 -324Q556 -324 539 -337Q525 -348 516 -348H513Q502 -345 498 -326V-324Q501 -313 503 -303Q503 -275 498 -258Q492 -239 478 -225H475Q466 -225 444 -236Q441 -234 441 -229V-227Q441 -222 440 -221Q434 -244 422 -251Q418 -251 414 -243Q411 -237 406 -236Q412 -243 412 -256Q412 -274 398 -276H395Q389 -276 384 -271Z"/>
</svg>