<svg xmlns="http://www.w3.org/2000/svg" viewBox="0 -800 1024 1024">
	<path fill="#000000" d="M878 -605V-604Q877 -595 871 -592Q864 -590 859 -585L858 -589Q860 -603 876 -605ZM329 30Q322 36 310 36Q300 36 295 30Q296 23 304 23Q317 27 329 30ZM825 -222H821Q783 -225 745 -229H736Q689 -222 641 -215Q635 -194 625 -172Q622 -158 622 -142Q624 -109 625 -77Q625 -58 624 -39V-30Q625 -17 632 5Q640 30 640 40Q640 47 637 54Q618 87 589 119Q580 127 570 127Q549 123 526 101Q501 79 471 64Q438 54 390 49Q402 46 415 46Q444 48 472 49Q483 49 488 48Q481 41 464 41H455L345 32Q369 28 422 27Q470 26 491 23Q485 17 472 17Q452 19 432 20H424Q438 12 466 1Q496 -11 508 -18Q513 -75 513 -120Q513 -160 509 -189Q463 -185 444 -168Q416 -168 397 -146Q378 -143 359 -141H356Q357 -136 357 -123V-93Q357 -65 364 -53Q358 -43 351 -34Q345 -26 342 -12Q330 -10 323 -3Q316 3 307 9Q273 -7 252 -7Q238 -7 228 0L226 -2Q226 -4 230 -7Q238 -13 238 -16Q238 -18 235 -20Q217 -18 204 -6Q191 7 175 15Q178 3 196 -12Q213 -26 217 -40Q209 -40 185 -24Q194 -42 204 -59Q214 -75 215 -100Q216 -120 217 -140Q218 -147 218 -160Q214 -231 202 -308Q193 -365 176 -417Q171 -440 167 -455Q163 -470 143 -474Q146 -490 146 -507Q146 -533 153 -546Q158 -555 176 -568Q193 -580 194 -588V-591Q194 -597 188 -606Q181 -617 181 -625Q188 -621 197 -610Q205 -600 211 -596Q215 -600 215 -605Q215 -614 203 -628Q188 -652 187 -662Q196 -658 210 -643Q224 -628 234 -623Q237 -627 237 -634Q237 -648 214 -679Q196 -704 194 -714H195Q205 -710 212 -699Q238 -667 270 -642Q273 -643 278 -643Q299 -639 320 -632Q350 -588 375 -564Q365 -539 365 -507Q365 -499 367 -483Q372 -483 383 -489Q392 -494 397 -495Q407 -493 416 -491Q433 -491 466 -501Q493 -509 508 -510Q510 -518 510 -521Q508 -538 503 -554Q500 -578 498 -600Q495 -623 483 -641Q480 -645 473 -651Q463 -659 461 -663Q457 -676 455 -695Q453 -704 450 -713Q451 -719 457 -726Q464 -734 465 -740Q462 -746 453 -753Q441 -762 438 -770Q452 -769 462 -763Q471 -757 480 -755Q490 -761 499 -768Q498 -773 491 -777Q484 -781 483 -785Q500 -786 536 -802Q557 -811 572 -815Q582 -817 586 -817Q600 -817 619 -805Q640 -791 656 -791Q667 -747 686 -714Q635 -670 631 -534Q672 -543 712 -552Q732 -558 753 -565Q774 -573 801 -576H825Q843 -576 850 -581V-580Q850 -577 844 -571Q838 -565 837 -561Q840 -560 843 -560Q854 -560 870 -565Q890 -571 896 -571Q903 -571 906 -570Q895 -563 881 -558Q866 -553 865 -541V-539Q869 -537 871 -537Q882 -540 893 -543Q888 -536 881 -531Q873 -527 871 -516Q874 -508 879 -508Q880 -508 886 -510Q878 -499 875 -479V-474Q864 -459 851 -442Q839 -426 818 -422Q814 -421 809 -421Q793 -422 776 -423H770Q761 -423 690 -410Q629 -400 559 -388Q490 -377 431 -353Q413 -345 398 -337Q383 -330 365 -329Q357 -329 353 -330V-324Q354 -313 354 -303Q354 -295 351 -288H354Q363 -289 372 -290Q377 -290 381 -287Q386 -290 391 -294H401Q438 -294 461 -304H466Q483 -304 514 -311Q545 -318 557 -318H564Q648 -338 683 -344Q686 -345 692 -345H709Q729 -351 751 -360Q772 -370 795 -371H797Q807 -360 823 -360Q845 -363 866 -367Q864 -361 857 -355Q849 -349 848 -344Q854 -333 871 -333Q889 -335 906 -337Q909 -336 912 -336Q908 -332 895 -327Q878 -320 874 -312Q876 -306 885 -306Q889 -306 895 -308Q893 -303 886 -297Q879 -291 877 -287Q878 -282 878 -274Q878 -247 862 -231L858 -232Q842 -228 825 -222Z"/>
</svg>