<svg xmlns="http://www.w3.org/2000/svg" viewBox="0 -800 1024 1024">
	<path fill="#000000" d="M415 -560Q390 -476 390 -311Q390 -244 393 -181Q397 -101 402 -65Q412 -24 415 19Q414 44 405 67Q394 94 378 102Q361 106 347 111Q337 104 322 80Q302 49 283 42Q285 41 290 41H304Q310 41 312 40Q307 33 290 30Q273 27 269 23H307Q288 15 262 13Q267 8 283 3Q300 -2 304 -9Q308 -44 308 -88V-149Q308 -183 309 -200Q304 -204 286 -204Q251 -204 235 -193Q230 -168 230 -151Q230 -138 233 -125Q226 -90 226 -38Q227 6 227 49V72Q221 84 210 90Q199 96 188 102Q161 94 150 68Q139 41 121 20Q127 22 129 22Q131 22 135 20L137 17Q135 14 132 10L134 8Q157 -65 157 -111Q157 -133 153 -150H151Q138 -146 125 -137Q120 -136 115 -135Q107 -129 100 -122Q93 -115 81 -114Q73 -114 64 -118Q30 -165 30 -207Q30 -222 32 -230Q36 -249 63 -281Q69 -270 75 -259H83Q87 -259 88 -257Q97 -265 109 -266Q120 -267 132 -269Q146 -275 159 -284Q175 -288 179 -288Q189 -290 195 -290Q207 -290 217 -285L236 -296Q249 -307 269 -312Q289 -317 307 -323Q309 -330 309 -345V-361Q309 -374 310 -379Q307 -380 300 -380Q268 -380 230 -357Q220 -350 210 -337Q199 -324 188 -323Q160 -322 135 -344Q109 -366 109 -395V-401Q110 -408 118 -427Q127 -447 128 -460Q130 -465 130 -484V-500Q130 -521 134 -532L129 -556Q122 -556 112 -575Q92 -610 92 -634Q92 -649 99 -659Q92 -670 87 -683L89 -684Q94 -684 104 -674Q110 -678 115 -683Q112 -691 109 -699Q117 -710 147 -718Q175 -728 188 -728Q195 -728 199 -727Q242 -710 266 -674Q272 -662 272 -644Q272 -625 263 -609Q241 -564 234 -547Q220 -511 220 -480V-477Q235 -479 260 -494Q288 -511 304 -513Q307 -576 307 -580Q307 -627 298 -655H297Q291 -652 284 -649L282 -650Q292 -677 302 -704Q312 -731 340 -733H345Q369 -733 394 -717Q416 -703 430 -683Q444 -662 445 -653V-648Q444 -628 434 -611Q424 -595 418 -578ZM698 -716Q699 -728 708 -732Q716 -736 724 -742Q731 -760 763 -775Q788 -787 797 -799H801Q810 -799 825 -794Q837 -790 845 -790H850Q861 -791 871 -793Q875 -793 879 -791Q899 -779 903 -748V-746Q900 -725 896 -704Q896 -663 886 -641Q880 -633 862 -627Q847 -622 843 -618Q826 -599 811 -578H815Q841 -582 875 -593Q874 -590 869 -586Q863 -582 863 -576V-572H865Q874 -572 888 -581Q905 -591 916 -592Q913 -588 900 -579Q890 -572 890 -561V-560H892Q902 -562 912 -565Q916 -565 920 -561Q917 -557 905 -552Q887 -545 887 -535Q887 -532 888 -530H889Q895 -532 900 -535Q903 -535 905 -533Q904 -529 899 -526Q894 -522 893 -518Q892 -515 892 -510Q894 -494 896 -478V-473Q888 -455 865 -446Q845 -438 819 -438Q807 -438 802 -439L761 -431Q758 -427 746 -427H742Q737 -427 735 -426Q721 -421 707 -416Q707 -409 712 -406Q716 -403 719 -400Q718 -393 716 -387V-385Q749 -394 751 -395Q755 -391 761 -391Q768 -391 782 -398Q794 -404 798 -404H799Q794 -400 787 -394Q781 -388 780 -381Q780 -376 782 -374Q793 -376 803 -379H807Q801 -373 794 -366Q787 -359 786 -347Q786 -345 788 -337L791 -335Q795 -336 799 -337H800Q798 -332 790 -327Q781 -321 779 -317V-313Q779 -300 774 -290Q713 -280 695 -265Q695 -258 694 -251Q694 -245 697 -239Q724 -243 750 -247Q759 -247 766 -244L830 -248Q832 -256 842 -260Q846 -261 864 -264Q896 -269 902 -281L903 -278Q903 -273 902 -268V-265Q934 -267 966 -270Q976 -270 981 -269Q970 -264 952 -261Q933 -259 928 -242Q934 -240 935 -240Q948 -244 961 -248H963Q957 -242 949 -235Q941 -227 940 -217Q940 -212 943 -206H945Q951 -207 956 -209H958Q953 -206 953 -201Q953 -196 951 -191Q948 -190 943 -185L942 -181Q942 -178 941 -176Q935 -169 928 -163Q923 -155 920 -148Q916 -141 907 -139H905Q890 -144 874 -149Q846 -155 820 -155Q802 -155 792 -154Q768 -150 743 -146H725Q703 -146 697 -137Q695 -129 695 -123Q697 -101 698 -79Q698 -62 692 -52L698 -11Q704 8 706 29Q710 47 714 65Q714 75 707 83Q700 90 692 97Q681 112 670 126Q664 130 658 132Q652 134 650 141Q643 138 632 128Q617 114 606 112Q601 104 596 96Q592 87 583 86Q580 66 564 55Q554 48 530 40Q532 37 537 37Q546 39 555 40Q578 45 580 45Q584 45 586 44Q573 36 539 29Q499 20 485 13Q491 12 500 12Q512 12 542 18Q564 22 581 23Q567 11 526 4Q484 -4 470 -14Q482 -13 512 -5Q545 4 562 4H569Q587 2 596 -12Q605 -25 607 -45Q610 -88 611 -131Q602 -134 592 -134Q577 -133 565 -128Q552 -122 538 -118Q508 -110 504 -106Q497 -101 489 -89Q477 -72 472 -71Q469 -70 466 -70Q449 -70 434 -97H433Q419 -97 412 -108Q406 -117 406 -132Q406 -150 416 -163Q414 -166 414 -175V-184Q425 -200 440 -213Q452 -229 467 -239Q467 -234 461 -227Q456 -221 456 -214V-210Q462 -207 468 -207Q482 -209 496 -211Q498 -211 506 -209L538 -205Q540 -216 548 -217Q558 -219 570 -219Q590 -223 610 -227H615V-234Q615 -245 612 -253Q609 -254 605 -254Q594 -254 576 -243Q559 -233 552 -233Q547 -233 542 -236Q538 -239 534 -246Q528 -256 523 -260Q518 -265 512 -268Q507 -272 506 -283V-287Q510 -297 514 -307Q515 -309 515 -315V-320Q517 -324 526 -330Q534 -335 536 -340Q542 -337 548 -337Q572 -342 595 -350Q597 -358 597 -364Q597 -372 595 -382Q570 -376 548 -370Q526 -364 518 -337Q514 -336 509 -336Q479 -336 458 -364V-370L459 -373Q457 -378 445 -386Q429 -397 426 -406Q420 -416 420 -431Q420 -456 437 -461Q437 -468 436 -475Q437 -494 448 -502Q460 -511 472 -521Q481 -531 487 -542Q493 -552 503 -554Q495 -539 491 -525V-520Q498 -518 510 -518Q540 -522 569 -526Q565 -532 552 -540Q543 -545 539 -549Q527 -563 514 -574H512Q508 -572 503 -570L500 -572Q500 -580 503 -586Q500 -594 485 -601Q474 -606 470 -611Q482 -616 493 -621Q496 -641 498 -662Q498 -675 491 -686Q497 -686 504 -679Q511 -672 516 -672Q519 -672 522 -673L523 -677Q523 -682 522 -688V-690Q532 -690 547 -697Q562 -704 570 -704H572Q589 -704 602 -688Q606 -683 622 -655L624 -654Q627 -654 629 -655H631V-648Q631 -637 635 -633Q642 -635 649 -642Q658 -651 663 -652Z"/>
</svg>