<svg xmlns="http://www.w3.org/2000/svg" viewBox="0 -800 1024 1024">
	<path fill="#000000" d="M728 -57Q734 -50 739 -8Q744 31 749 41Q739 60 732 84Q725 110 702 112H699Q686 110 661 93Q635 76 629 65Q624 42 618 19Q608 2 603 -10L605 -14Q610 -10 614 -7H615Q613 -21 600 -37Q587 -52 585 -64Q604 -54 622 -44Q635 -71 637 -99Q639 -127 641 -161Q646 -270 648 -283Q623 -276 590 -269Q558 -263 542 -254Q511 -231 492 -231Q477 -231 464 -245Q432 -290 429 -367V-375Q429 -393 441 -415Q448 -428 461 -445Q459 -439 459 -435Q459 -425 464 -417Q483 -421 512 -422L514 -420L597 -434Q597 -447 625 -452Q645 -456 650 -461Q644 -486 625 -495V-515H621Q602 -511 583 -506Q592 -517 604 -519Q592 -539 571 -540Q563 -540 556 -535V-536Q556 -541 561 -544Q565 -546 565 -549Q562 -552 558 -552Q554 -552 544 -547L543 -549Q543 -551 550 -556Q555 -560 556 -562Q553 -574 533 -584Q534 -605 548 -616Q562 -627 576 -638Q585 -647 595 -656Q604 -665 617 -666L651 -697V-698Q651 -706 656 -712Q662 -719 669 -719H672V-720Q668 -725 663 -738Q711 -765 755 -770H760Q784 -768 796 -747Q809 -724 826 -710Q826 -704 824 -702Q848 -649 848 -622Q848 -605 841 -591Q831 -584 822 -576Q814 -568 797 -567H791Q765 -558 738 -549Q742 -538 751 -532Q760 -527 767 -519Q766 -514 766 -506Q766 -494 773 -487Q787 -489 798 -489H806Q807 -486 808 -483L843 -503Q879 -513 905 -535Q899 -525 898 -514V-509Q901 -506 906 -506Q910 -506 918 -510L919 -506Q917 -496 914 -486L915 -483Q917 -481 919 -481H924L925 -479Q923 -475 920 -472Q928 -470 933 -464Q934 -471 943 -471Q951 -471 954 -465Q949 -459 949 -451Q953 -434 956 -418Q956 -413 955 -411Q958 -404 964 -403Q941 -370 912 -345Q903 -346 885 -346Q803 -346 749 -321Q748 -307 743 -268Q737 -224 737 -197Q737 -179 738 -169Q736 -169 733 -170L730 -168V-166ZM236 21Q229 32 218 39Q207 45 198 53Q191 66 182 80Q173 97 154 98Q149 98 145 97Q137 93 131 85Q125 77 119 70Q106 69 95 68Q84 67 76 58Q66 45 66 24Q66 3 76 -10Q66 -23 66 -48Q66 -57 70 -73Q82 -92 103 -113Q110 -123 118 -134Q126 -144 135 -146Q131 -136 125 -128Q120 -119 119 -109Q119 -103 122 -97Q128 -91 136 -91Q143 -92 150 -94Q168 -99 185 -104Q209 -112 255 -135Q274 -142 325 -161Q377 -181 392 -190Q401 -191 429 -202Q457 -213 467 -215Q466 -211 454 -202Q441 -192 440 -187Q442 -184 443 -184Q447 -186 451 -189L454 -187L455 -184Q453 -177 450 -170Q451 -167 460 -167Q467 -167 468 -165Q453 -133 453 -115L456 -114Q460 -114 461 -113Q455 -105 446 -93Q438 -81 437 -67V-63Q366 -46 258 16ZM312 -210Q289 -201 266 -193Q246 -182 227 -171Q207 -159 199 -135Q167 -133 164 -132Q151 -139 138 -167Q126 -192 115 -200Q132 -239 156 -268Q180 -296 203 -329Q142 -315 132 -271H127Q103 -271 89 -286Q84 -292 65 -325Q48 -352 45 -363Q40 -378 40 -399Q41 -402 41 -406Q44 -417 56 -427Q67 -437 76 -445Q101 -473 124 -488Q147 -504 178 -525Q188 -536 200 -538H201L240 -569Q246 -590 271 -616Q291 -637 298 -651Q296 -659 291 -660Q301 -663 316 -674Q331 -685 347 -685Q359 -685 370 -679Q395 -661 400 -654Q409 -635 413 -608Q418 -582 423 -556Q418 -543 415 -528V-524Q384 -517 365 -503Q346 -489 320 -470Q308 -462 276 -459Q252 -457 244 -439Q248 -437 259 -437Q284 -437 317 -451Q315 -443 312 -436Q313 -426 324 -412Q334 -399 334 -388V-387Q332 -369 299 -344Q263 -317 259 -300Q285 -316 310 -325Q328 -346 346 -348Q346 -364 351 -366Q355 -365 356 -356Q357 -348 358 -347Q366 -345 368 -345Q373 -345 377 -348L381 -342Q384 -337 405 -314Q408 -305 414 -276Q419 -261 419 -251V-249Q413 -244 406 -232Q400 -220 397 -217Q391 -220 381 -203Q370 -184 366 -184Q356 -184 338 -196Q320 -208 312 -210Z"/>
</svg>