<svg xmlns="http://www.w3.org/2000/svg" viewBox="0 -800 1024 1024">
	<path fill="#000000" d="M869 -144H872Q870 -131 865 -123Q862 -125 860 -143Q865 -143 869 -144ZM945 -736V-738Q947 -750 958 -752Q964 -752 965 -745Q962 -738 945 -736ZM794 -444V-446Q799 -470 803 -494Q803 -499 802 -502Q786 -501 772 -489Q758 -477 758 -464Q758 -451 773 -442Q776 -446 781 -446Q784 -446 794 -444ZM578 -442V-441Q578 -424 599 -411Q602 -417 606 -417Q612 -415 617 -414Q620 -443 623 -473Q605 -467 595 -462Q579 -453 578 -442ZM579 -168V-165Q579 -159 585 -144Q591 -129 591 -121Q591 -108 585 -94Q581 -80 569 -60Q554 -33 551 -19Q598 -32 619 -33Q627 -32 634 -31Q642 -31 644 -36Q597 -38 593 -68Q600 -84 614 -93Q628 -101 643 -109Q642 -122 628 -122Q625 -122 617 -120Q610 -126 603 -133Q597 -141 594 -153Q611 -172 613 -173Q625 -182 641 -183Q642 -188 642 -193Q642 -197 640 -199Q619 -196 603 -189Q581 -180 579 -168ZM937 -735V-734Q933 -727 929 -720Q929 -718 932 -715L933 -714Q936 -716 939 -719L940 -718Q939 -715 939 -710Q939 -702 946 -688Q951 -679 952 -673Q949 -667 946 -661L947 -657Q938 -656 928 -649Q916 -641 905 -640Q893 -639 847 -630Q806 -621 794 -611Q790 -608 770 -579Q756 -560 742 -559H740Q722 -562 709 -576Q694 -576 680 -573Q683 -576 705 -583Q709 -595 722 -611Q733 -624 736 -630Q730 -643 722 -653Q715 -664 714 -681Q729 -697 766 -702Q773 -722 778 -746Q778 -756 768 -756H763Q772 -768 782 -778Q794 -779 810 -785Q829 -792 838 -792Q846 -792 855 -789Q859 -780 868 -767Q878 -753 881 -747Q879 -741 870 -734Q862 -726 859 -721Q891 -726 915 -738L914 -736Q914 -735 917 -729Q922 -732 937 -735ZM930 -504H932Q922 -497 911 -495Q912 -478 917 -462Q882 -459 867 -428Q860 -414 850 -363Q824 -373 820 -388Q813 -389 799 -389Q770 -389 770 -371V-367Q764 -370 759 -370Q754 -369 748 -369H745Q724 -371 709 -389Q699 -400 687 -426Q639 -424 626 -324Q607 -328 605 -342Q594 -353 573 -353Q560 -353 552 -347Q543 -341 543 -328V-327Q492 -334 471 -372Q450 -409 432 -450V-459Q432 -475 431 -491Q431 -501 432 -505Q436 -504 439 -504Q452 -505 465 -507Q476 -504 487 -501H489Q492 -501 515 -514Q554 -536 593 -556Q573 -572 552 -586Q534 -585 516 -575Q513 -573 487 -555Q458 -534 455 -534H450Q434 -534 414 -555Q396 -574 385 -577V-585Q385 -606 398 -618Q398 -622 397 -626Q397 -643 411 -652Q416 -655 440 -664V-663Q440 -661 438 -660Q435 -659 435 -655Q441 -653 445 -653Q454 -653 473 -659Q493 -666 502 -666Q505 -678 520 -691Q519 -698 517 -706V-708Q522 -707 525 -703Q529 -697 531 -696Q533 -698 533 -701Q530 -710 527 -720Q533 -720 536 -713Q540 -705 542 -703Q545 -704 545 -706Q544 -710 542 -714V-715Q547 -710 553 -710Q563 -712 573 -714H576Q585 -712 597 -700Q610 -687 617 -686Q654 -694 691 -703V-702Q689 -699 687 -696Q689 -694 691 -694Q696 -695 700 -696Q706 -687 711 -679Q704 -657 702 -630Q668 -628 623 -604V-601Q623 -594 622 -588Q622 -582 626 -579L611 -559Q612 -555 616 -555Q621 -558 626 -561V-552Q637 -550 644 -546Q661 -564 684 -567Q678 -562 670 -557Q663 -553 661 -543Q674 -541 688 -541Q703 -541 711 -535Q726 -541 757 -561Q799 -588 829 -594Q836 -592 838 -589Q842 -589 845 -593Q848 -597 851 -597H852V-595Q853 -589 858 -588Q864 -587 869 -585Q874 -599 909 -603Q897 -597 894 -594Q886 -588 886 -581Q887 -578 887 -576L890 -575Q895 -577 900 -579H902Q898 -573 894 -568Q897 -546 903 -527Q909 -506 930 -504ZM846 -77V-71Q849 -76 852 -90Q856 -108 862 -114Q861 -109 861 -97Q861 -74 870 -61Q875 -60 883 -60Q899 -62 915 -64Q907 -62 907 -52Q907 -43 914 -43Q916 -43 920 -45Q917 -39 917 -33Q917 -27 924 -11Q930 3 930 11Q930 19 924 24Q929 33 933 41Q917 47 900 72Q815 52 733 52Q710 52 699 53Q609 58 586 64Q531 77 514 116H512Q480 114 466 94Q451 72 432 54Q448 22 450 11Q484 -20 490 -72Q476 -79 457 -101Q439 -122 426 -129Q426 -133 425 -137V-140Q417 -129 417 -114Q422 -82 426 -51Q426 -38 422 -30Q406 -26 394 -15L390 -14Q385 -15 380 -16H378Q375 -13 375 -10Q375 -5 378 1Q365 -9 359 -22Q353 -35 332 -36H326Q294 -27 268 -8Q226 13 200 30Q185 42 170 54Q158 64 148 71Q138 79 135 94Q114 91 106 75Q99 59 90 42Q93 36 95 30Q91 23 91 12Q92 3 92 -6Q92 -29 75 -30Q131 -109 163 -140Q167 -138 181 -138Q183 -126 195 -109Q204 -96 207 -88Q214 -95 239 -106Q236 -128 236 -177Q199 -174 160 -152Q137 -139 95 -106Q74 -107 55 -123Q37 -138 33 -156Q32 -158 32 -162Q33 -168 33 -174Q31 -181 28 -189Q27 -194 27 -202Q27 -234 52 -263Q65 -278 98 -303Q96 -295 89 -286Q82 -277 80 -273Q83 -263 96 -263Q97 -263 130 -269Q186 -282 241 -295Q237 -314 230 -330H227Q210 -330 199 -347Q184 -371 181 -373Q173 -361 157 -309Q154 -311 149 -311Q141 -308 133 -306V-309Q133 -317 138 -322Q134 -333 124 -339Q114 -344 104 -350Q98 -349 98 -338Q95 -341 95 -347Q95 -352 98 -364H96Q87 -363 83 -351Q78 -340 72 -331Q79 -362 89 -379Q73 -372 64 -353Q55 -334 45 -318Q42 -321 42 -326Q47 -340 51 -355Q86 -444 120 -541Q137 -579 142 -618Q142 -634 133 -648H142Q159 -673 186 -673Q191 -672 195 -672Q199 -679 208 -679Q224 -679 241 -664Q257 -652 263 -634Q268 -616 275 -594Q280 -581 284 -568V-567Q282 -558 271 -545Q259 -533 253 -526Q231 -501 227 -485Q278 -500 301 -511Q342 -530 364 -555Q365 -541 369 -532Q394 -538 416 -549V-548Q416 -541 404 -534Q391 -526 391 -519Q393 -518 396 -518Q405 -521 414 -524Q417 -524 419 -523Q413 -517 406 -512Q398 -506 397 -495Q399 -492 401 -492Q405 -492 409 -493H413Q413 -492 407 -491Q401 -490 400 -485V-482Q401 -475 402 -469Q402 -467 400 -463Q405 -451 413 -451Q401 -445 399 -421Q397 -401 391 -394Q387 -390 379 -388Q367 -386 364 -378Q338 -372 317 -361Q323 -353 331 -347Q339 -342 342 -331Q397 -344 443 -367V-366Q443 -361 435 -351Q427 -341 426 -333L429 -332Q438 -335 449 -342Q442 -326 442 -323Q442 -321 444 -315Q426 -306 424 -289Q424 -277 437 -273Q427 -261 419 -258Q419 -254 426 -252Q420 -249 413 -246V-245Q416 -241 418 -238L417 -237Q396 -229 374 -222Q352 -215 334 -203Q316 -172 316 -141V-132H318Q329 -135 339 -138Q339 -167 348 -184Q355 -185 369 -189Q372 -187 375 -185Q378 -182 379 -178Q387 -188 400 -192Q394 -178 394 -168L396 -167Q400 -169 403 -171V-156Q403 -146 406 -144H407Q410 -145 413 -146Q416 -146 417 -143Q420 -144 420 -148Q415 -158 410 -169Q409 -178 408 -186Q408 -197 397 -198H393Q406 -214 438 -237Q466 -257 477 -267Q509 -302 542 -322Q553 -324 563 -327Q569 -332 579 -334H581Q591 -333 606 -315Q621 -297 632 -295H634Q643 -296 652 -298H655Q655 -304 654 -310Q658 -369 703 -375H706Q747 -375 763 -334Q794 -344 825 -355V-354Q826 -342 836 -340Q846 -337 859 -336Q857 -328 857 -322Q871 -323 885 -325Q868 -314 868 -300Q868 -294 873 -289Q863 -284 862 -274Q861 -264 857 -256Q853 -251 842 -247Q831 -243 826 -238Q814 -243 793 -243Q760 -243 726 -231Q728 -220 738 -220Q753 -223 767 -226L770 -225Q768 -221 766 -218V-217Q772 -218 779 -223Q789 -230 795 -230Q800 -230 802 -229Q790 -221 780 -207Q783 -196 794 -193Q787 -187 783 -169Q781 -169 778 -170Q771 -170 758 -163Q743 -155 734 -154Q731 -151 731 -146Q731 -141 734 -137Q757 -144 786 -156Q791 -155 793 -150Q794 -146 797 -143Q811 -157 832 -160Q826 -151 821 -146Q816 -141 816 -133V-129Q816 -124 821 -117Q826 -109 826 -103Q826 -99 825 -97Q824 -93 818 -89Q811 -84 811 -76V-74Q805 -75 795 -75Q779 -75 752 -66Q731 -59 715 -57Q714 -50 712 -44V-42Q724 -45 753 -45H767Q802 -45 817 -50Q840 -58 843 -80H844Z"/>
</svg>