<svg xmlns="http://www.w3.org/2000/svg" viewBox="0 -800 1024 1024">
	<path fill="#000000" d="M908 -424Q898 -415 887 -406Q885 -412 885 -413Q887 -426 899 -428Q902 -428 908 -424ZM687 -426H689Q690 -423 690 -420Q689 -412 687 -405L688 -403Q690 -404 692 -406L693 -405Q687 -388 686 -367Q637 -349 603 -322Q587 -329 587 -358Q589 -396 607 -415L609 -414Q607 -410 605 -406L606 -403Q615 -403 636 -412Q671 -426 687 -426ZM692 -466V-464Q694 -459 695 -455Q674 -448 651 -443Q629 -438 615 -423Q612 -423 608 -424H606Q596 -438 596 -462Q596 -479 603 -493Q610 -508 622 -511L624 -509Q621 -508 619 -505Q625 -502 632 -502Q644 -502 664 -512Q684 -522 693 -522Q696 -521 698 -521V-514Q699 -505 699 -496Q699 -475 692 -466ZM596 -13V-12Q600 -11 604 -11Q628 -14 655 -21Q663 -22 720 -31Q741 -139 767 -242Q686 -228 666 -221Q613 -204 597 -170Q646 -195 707 -207Q707 -204 706 -201Q707 -197 707 -194Q721 -184 738 -184H742Q731 -177 726 -167Q729 -165 731 -161Q720 -157 705 -147Q687 -135 671 -133Q658 -132 630 -121Q614 -115 601 -112Q589 -108 588 -95V-94Q593 -93 597 -93Q608 -93 645 -104L708 -119Q711 -114 714 -110Q720 -112 725 -114L728 -113Q723 -108 723 -96Q723 -91 726 -73Q719 -62 708 -55Q679 -50 653 -46Q627 -43 609 -31Q596 -22 596 -13ZM386 -137V-133Q387 -132 403 -125Q384 -103 356 -90Q328 -78 302 -61Q279 -45 255 -27Q230 -10 211 10Q196 31 183 51Q167 70 154 71H153Q138 71 123 48Q112 30 103 28V20Q103 15 101 14Q94 2 86 -8Q79 -17 78 -36Q79 -41 79 -46Q85 -79 109 -109Q118 -125 127 -140Q135 -155 147 -163V-161Q146 -148 140 -137Q134 -125 129 -113Q132 -107 138 -104Q210 -136 252 -153Q253 -157 253 -162Q253 -185 233 -188Q231 -194 228 -200Q220 -205 202 -230Q202 -251 181 -256Q181 -261 186 -261Q190 -261 193 -263Q191 -273 169 -273Q190 -288 210 -303Q230 -318 255 -328Q249 -360 246 -368Q221 -364 203 -350Q185 -336 166 -325Q145 -291 132 -280Q123 -283 112 -286Q101 -289 94 -296Q88 -306 82 -317Q72 -327 67 -336Q62 -354 58 -379Q52 -392 46 -406Q46 -412 57 -451Q75 -499 125 -547Q119 -539 112 -527Q105 -516 104 -502Q104 -494 106 -490Q109 -493 114 -505Q120 -519 127 -523L129 -520Q126 -512 123 -505L124 -502Q127 -497 134 -497Q142 -497 161 -507Q183 -519 186 -520Q227 -538 273 -556Q318 -573 350 -592L352 -590Q350 -587 348 -584Q371 -568 391 -509Q400 -486 400 -481V-478Q400 -473 395 -467Q390 -460 390 -457V-454Q386 -456 385 -456Q375 -456 375 -439V-434Q333 -420 317 -406Q325 -374 345 -355Q359 -367 372 -374Q367 -366 364 -355Q364 -352 366 -348L368 -346Q371 -347 373 -349L374 -348Q372 -343 372 -334Q375 -310 386 -289Q377 -283 377 -273Q377 -262 387 -250Q368 -241 345 -231Q322 -221 320 -195Q320 -186 323 -176Q370 -203 413 -205Q411 -201 402 -199Q389 -196 389 -188V-187L391 -186Q397 -187 402 -188Q406 -188 407 -185Q406 -182 400 -180Q392 -177 391 -172V-170Q391 -165 397 -163Q386 -154 386 -137ZM790 93H788Q773 93 757 77Q750 70 734 50H725Q691 49 656 48Q588 48 570 76H566Q539 74 530 55Q520 34 504 20Q508 13 508 3Q508 -12 497 -40Q488 -64 486 -73Q482 -119 467 -154Q461 -166 443 -183Q423 -202 421 -217Q428 -225 439 -230Q437 -232 435 -234L436 -236Q453 -263 454 -265Q463 -283 463 -305V-308Q469 -296 476 -289Q483 -295 483 -307Q480 -325 477 -343Q480 -340 495 -314Q505 -297 519 -295H521Q530 -296 538 -298Q544 -297 553 -289Q563 -280 569 -279H573Q582 -279 619 -289Q685 -309 751 -329Q740 -337 719 -339Q702 -359 702 -393Q702 -425 728 -505Q750 -555 755 -609Q681 -596 627 -549Q612 -547 594 -547Q577 -547 567 -540Q575 -447 582 -354Q573 -329 531 -322Q519 -338 492 -340Q486 -351 485 -364Q484 -376 483 -391Q478 -435 445 -492Q438 -506 416 -532Q398 -552 391 -566Q381 -587 381 -615Q387 -626 410 -656Q422 -653 431 -647Q445 -657 458 -669Q464 -663 478 -663H494Q509 -663 516 -656Q578 -670 645 -687Q712 -704 763 -738Q776 -748 788 -759Q791 -760 798 -760H816Q833 -764 850 -768Q858 -768 864 -763Q876 -777 889 -788L890 -784Q887 -774 883 -764V-763Q884 -757 891 -751Q899 -744 901 -739Q909 -745 917 -751H918Q915 -730 915 -729Q915 -719 921 -715Q924 -716 926 -720Q928 -724 930 -724Q943 -676 960 -635Q949 -623 942 -606Q926 -605 917 -595Q908 -586 899 -578Q867 -527 849 -480Q826 -420 822 -358Q825 -357 832 -357H855L878 -394V-391Q878 -386 874 -379Q868 -368 868 -363Q868 -361 870 -355Q886 -349 904 -337Q915 -343 932 -343Q943 -343 952 -340Q941 -338 931 -332Q921 -326 921 -319Q921 -310 942 -307Q941 -302 936 -299Q929 -295 929 -291Q932 -280 946 -262Q938 -251 935 -236Q935 -232 936 -229L920 -214Q917 -215 911 -215Q890 -215 874 -197Q831 -139 829 -25Q830 -14 830 -4Q831 15 831 33Q831 63 821 82Q813 82 803 88Q794 93 790 93Z"/>
</svg>