<svg xmlns="http://www.w3.org/2000/svg" viewBox="0 -800 1024 1024">
	<path fill="#000000" d="M946 -525V-512Q932 -508 924 -507Q932 -525 946 -525ZM679 -85H682V-86Q682 -92 688 -95Q693 -98 694 -101Q703 -123 708 -141Q706 -144 703 -148V-150Q704 -156 711 -157Q717 -159 722 -162Q724 -166 724 -170H721Q704 -170 647 -151Q607 -138 596 -131Q572 -116 572 -88Q573 -83 573 -78Q584 -74 597 -74Q611 -74 636 -79Q666 -85 679 -85ZM521 -569Q520 -571 520 -576Q520 -582 527 -602Q533 -620 533 -629Q533 -642 519 -645Q527 -678 553 -700Q578 -721 607 -722Q614 -723 628 -723Q656 -723 670 -710Q681 -700 697 -657Q710 -631 715 -602V-600Q712 -590 697 -575Q683 -561 675 -554Q619 -503 609 -492Q574 -454 560 -413H561Q569 -415 576 -417Q579 -416 581 -416Q592 -424 639 -437Q699 -453 709 -464Q707 -472 707 -474Q707 -480 714 -494Q720 -506 720 -515Q720 -520 715 -530Q726 -522 755 -516Q790 -509 799 -498Q806 -501 820 -514Q838 -530 850 -531Q849 -527 841 -517Q829 -503 829 -493Q829 -490 831 -484Q833 -480 842 -478Q849 -476 851 -474Q884 -488 915 -507Q914 -500 896 -485Q873 -466 873 -455Q873 -449 881 -441Q892 -451 909 -453H912Q905 -448 898 -445Q891 -441 891 -432Q891 -418 907 -418Q932 -422 957 -426Q963 -426 965 -425Q952 -420 938 -415Q923 -411 915 -399V-397Q915 -378 926 -367Q933 -360 952 -353H950Q916 -353 916 -301Q916 -284 917 -276H916Q913 -276 908 -282Q903 -288 900 -289Q897 -290 891 -290Q879 -290 872 -283Q824 -300 802 -305Q798 -301 793 -297Q796 -307 802 -315Q790 -332 771 -353Q755 -353 722 -342L646 -314Q637 -307 624 -305Q565 -287 510 -249Q501 -243 489 -234Q477 -226 467 -225H466Q450 -225 428 -246Q411 -262 404 -265Q401 -281 398 -297Q385 -326 392 -356Q424 -414 458 -473Q474 -497 486 -503Q487 -500 487 -498ZM267 -92V-96Q269 -112 270 -129V-132Q258 -128 242 -123Q226 -118 217 -109V-104Q216 -94 215 -85Q215 -81 216 -80Q231 -81 267 -92ZM276 -222Q275 -224 275 -229Q276 -240 277 -251Q277 -257 275 -259Q256 -252 234 -242Q213 -232 211 -212Q211 -208 213 -198Q268 -218 276 -222ZM279 -353Q277 -365 277 -372Q279 -397 280 -422Q280 -433 279 -438Q229 -400 220 -327Q228 -329 245 -339Q267 -351 279 -353ZM868 -97Q853 -78 835 -65Q814 -32 791 3Q768 38 752 78H746Q733 80 719 81H715Q710 80 703 73Q695 65 688 65L684 66V64Q684 59 688 53Q668 37 665 12Q655 13 644 14Q638 16 631 18Q601 26 576 45Q569 62 555 62Q543 62 513 41Q493 27 484 24Q487 17 487 10Q485 -7 478 -24L475 -42Q471 -51 448 -72Q419 -99 416 -111Q413 -123 413 -136Q413 -153 417 -165Q424 -181 453 -197V-225Q459 -222 469 -214Q478 -222 489 -222Q498 -222 515 -212Q529 -204 536 -204H537Q572 -210 608 -224Q738 -257 755 -261Q803 -273 821 -273Q838 -273 845 -267Q851 -269 857 -271H860Q858 -267 858 -266Q859 -261 864 -257Q870 -254 875 -251Q877 -255 879 -259Q881 -264 887 -264H890V-262Q888 -249 885 -236Q885 -231 888 -228Q892 -229 893 -233Q895 -239 897 -239Q895 -231 895 -227Q895 -213 911 -187Q928 -159 928 -146Q928 -141 927 -138Q922 -126 909 -121Q896 -115 884 -110Q876 -103 868 -97ZM119 -200L115 -246Q106 -255 104 -268Q103 -282 99 -294Q83 -327 60 -350Q56 -361 56 -374Q56 -391 65 -418Q74 -445 74 -457V-459Q70 -482 66 -506Q66 -513 69 -522Q75 -504 77 -487Q81 -467 94 -463Q86 -476 83 -493Q83 -498 86 -504Q90 -500 95 -487Q101 -471 107 -471Q109 -472 109 -475Q107 -482 104 -490L105 -494Q112 -493 117 -486Q124 -477 125 -476Q139 -476 153 -477Q174 -477 182 -468Q259 -527 278 -546V-552Q278 -566 289 -580Q300 -594 300 -606L304 -605Q310 -605 312 -610Q314 -615 316 -618Q332 -626 351 -626Q372 -626 387 -617Q395 -620 405 -629Q417 -641 426 -643V-642Q423 -634 414 -624Q407 -614 405 -598H406Q410 -598 415 -606Q420 -615 424 -615Q421 -596 417 -578Q417 -573 418 -570Q423 -563 427 -557V-541Q431 -525 431 -521Q431 -514 430 -510Q423 -506 415 -502Q394 -481 389 -444Q383 -408 372 -378L365 -290Q370 -287 370 -281Q370 -280 367 -265Q365 -217 365 -194Q365 -69 391 5Q386 9 383 19Q383 22 384 24H375Q373 29 365 34Q355 40 353 45Q335 49 326 49Q319 49 311 46Q300 40 289 26Q276 9 276 -9V-15H271Q250 -15 228 3Q221 9 196 35L193 34Q184 38 177 42Q175 43 172 43Q161 40 145 33Q136 28 130 8Q124 -12 116 -17Q120 -38 120 -66Q118 -122 115 -179Q115 -196 116 -204Q118 -202 119 -200Z"/>
</svg>