<svg xmlns="http://www.w3.org/2000/svg" viewBox="0 -800 1024 1024">
	<path fill="#000000" d="M507 -153Q527 -153 533 -151Q551 -151 556 -144Q563 -141 561 -137Q558 -132 555 -129Q554 -123 547 -118Q546 -117 535 -111Q523 -109 511 -108Q499 -105 486 -103Q469 -103 459 -100Q453 -101 444 -98Q430 -95 369 -88Q362 -85 342 -83Q321 -80 310 -75Q303 -74 296 -74Q289 -69 275 -67Q257 -65 239 -63Q229 -62 222 -56Q211 -61 201 -65Q191 -69 178 -67Q166 -69 154 -71Q155 -78 162 -79Q169 -81 176 -84Q192 -87 207 -91Q238 -97 269 -103Q308 -117 350 -125Q392 -132 433 -141Q451 -144 469 -147Q488 -150 507 -153ZM659 -302Q677 -303 694 -299Q701 -296 709 -297Q733 -293 755 -274Q778 -251 781 -220Q787 -208 783 -187Q791 -180 788 -165Q790 -163 787 -158Q783 -151 788 -148Q788 -136 783 -125Q785 -118 777 -87Q773 -74 770 -62Q766 -62 766 -50Q765 -39 754 -24Q743 -9 742 -1Q739 1 733 8Q727 15 722 17Q720 23 704 35Q704 46 691 52Q674 59 671 65Q667 63 662 68Q658 71 656 71Q656 61 655 50Q649 42 642 33Q633 20 606 12Q603 5 596 2Q594 0 597 -2Q607 -3 619 -6Q630 -9 643 -7Q656 -4 666 -14Q671 -19 679 -35Q689 -59 695 -85Q703 -114 711 -143Q724 -183 718 -231Q707 -251 687 -257Q665 -257 629 -250Q599 -244 586 -243Q580 -237 567 -235Q555 -233 552 -231Q535 -229 501 -221Q485 -216 468 -212Q466 -210 462 -213Q458 -216 456 -213Q453 -205 445 -205Q439 -205 429 -210Q426 -209 420 -212Q414 -215 409 -214Q403 -220 394 -221Q386 -222 378 -224Q374 -225 374 -226Q375 -230 381 -231Q391 -240 416 -245Q433 -248 442 -253Q492 -263 541 -278Q564 -284 586 -290Q604 -293 621 -296Q640 -299 659 -302ZM531 -587Q483 -572 481 -571Q478 -565 473 -565Q465 -567 456 -569Q450 -568 439 -572Q427 -576 422 -575Q417 -568 419 -549Q420 -537 419 -530Q420 -525 416 -513Q413 -503 413 -495Q414 -483 415 -471Q415 -464 412 -460Q409 -455 409 -446Q410 -444 410 -440Q410 -433 410 -427Q412 -425 408 -418Q404 -411 408 -409Q450 -415 480 -424Q491 -427 503 -427Q515 -427 524 -434Q526 -455 531 -473Q536 -489 541 -505Q542 -519 543 -535Q545 -551 541 -565Q541 -570 540 -578Q540 -589 531 -587ZM319 -786H328Q334 -784 348 -785Q360 -786 367 -784Q385 -785 403 -777Q425 -761 430 -743Q436 -734 432 -718Q429 -709 430 -697Q431 -686 431 -675Q426 -662 426 -649Q424 -637 422 -625Q424 -622 421 -612Q418 -602 423 -597Q450 -608 476 -619Q497 -626 522 -628Q540 -633 554 -628Q570 -628 582 -619Q602 -608 602 -573Q610 -551 601 -532Q606 -526 605 -518Q603 -510 602 -503Q605 -492 597 -477Q591 -465 592 -459Q585 -446 589 -425Q587 -420 583 -422Q580 -424 577 -427Q573 -430 570 -423Q566 -411 562 -400Q559 -397 552 -393Q544 -389 542 -385Q538 -397 518 -387Q503 -382 488 -380Q482 -379 473 -379Q457 -380 452 -376Q421 -378 409 -390Q396 -385 398 -365Q401 -359 398 -345Q395 -331 399 -324Q409 -322 432 -329Q448 -334 455 -334Q471 -340 540 -358Q546 -357 557 -359Q571 -362 577 -358Q603 -360 603 -345Q601 -335 589 -332Q585 -325 574 -321Q531 -312 487 -307Q469 -300 447 -300Q442 -301 436 -299Q430 -298 425 -302Q404 -309 398 -303Q399 -295 396 -282Q393 -269 395 -261Q391 -258 387 -250Q382 -241 376 -239Q375 -241 371 -240Q366 -239 364 -243Q360 -247 351 -265Q345 -275 338 -284Q330 -294 329 -306Q334 -329 338 -352Q340 -353 341 -355Q342 -357 339 -359Q340 -384 343 -407Q344 -440 350 -471Q353 -482 355 -494L357 -508Q358 -520 359 -532Q362 -557 364 -566Q366 -591 367 -616Q366 -633 368 -658Q371 -698 368 -715Q367 -733 366 -751Q365 -761 355 -764Q345 -767 339 -771Q329 -771 323 -774Q315 -778 319 -786Z"/>
</svg>