<svg xmlns="http://www.w3.org/2000/svg" viewBox="0 -800 1024 1024">
	<path fill="#000000" d="M248 -354H243Q209 -354 200 -307Q228 -316 240 -318Q248 -329 248 -354ZM340 -280Q331 -283 324 -283Q309 -283 302 -266Q297 -253 295 -226Q295 -222 294 -219Q295 -215 295 -212Q298 -201 301 -201Q306 -202 312 -215Q317 -227 319 -234Q322 -241 330 -255Q338 -269 340 -280ZM416 -625Q415 -622 413 -619V-617Q397 -610 366 -606Q334 -601 319 -586Q321 -584 335 -580Q352 -575 354 -572Q356 -573 368 -576L369 -575Q368 -569 367 -564Q367 -559 370 -556L374 -555Q380 -556 386 -558Q390 -558 391 -554Q387 -551 381 -550Q376 -548 373 -542V-538Q373 -513 386 -504L384 -503Q380 -503 376 -504H373Q344 -483 327 -481H325Q302 -481 261 -496Q218 -512 212 -525Q161 -500 131 -439Q127 -437 121 -437Q111 -437 104 -443Q97 -448 90 -453Q78 -483 63 -483Q60 -483 57 -482Q61 -487 61 -499Q61 -525 44 -533Q74 -548 97 -567Q121 -586 144 -605Q112 -654 105 -677H106Q118 -675 125 -669Q127 -673 129 -677Q141 -677 150 -674Q155 -677 160 -677Q177 -672 193 -668H196Q198 -666 207 -649Q246 -668 283 -692Q282 -700 276 -709Q269 -718 268 -724Q282 -734 298 -746Q315 -758 334 -762Q342 -762 349 -763Q367 -763 384 -756Q403 -748 408 -735Q415 -716 421 -697Q430 -672 430 -655Q430 -647 429 -642H427ZM663 -199Q644 -209 628 -230Q613 -251 601 -267Q573 -215 565 -163Q614 -174 663 -199ZM714 -290V-281Q714 -245 729 -235Q737 -247 739 -264Q741 -281 743 -299Q745 -309 751 -324Q761 -349 761 -359Q761 -369 756 -375Q738 -369 710 -363Q668 -354 653 -348Q637 -344 621 -323Q625 -325 635 -325Q642 -325 659 -320Q672 -316 681 -316Q684 -315 689 -311Q693 -307 698 -309Q694 -306 694 -303V-301Q697 -296 704 -296Q712 -296 714 -290ZM566 -24Q563 -16 554 -11Q550 -8 538 6Q525 21 513 36Q501 51 475 52Q449 51 438 38Q428 24 416 10Q412 5 402 0Q389 -7 386 -11Q378 -22 378 -39Q378 -71 403 -91V-97Q407 -140 431 -163Q432 -167 434 -166Q435 -162 445 -160H446L447 -158Q446 -147 444 -137Q444 -126 453 -123Q464 -126 475 -129Q492 -201 521 -265L530 -318Q529 -325 529 -361Q532 -412 539 -454Q506 -523 499 -564V-570Q502 -589 505 -609Q502 -619 498 -630Q497 -633 497 -641Q497 -657 502 -667Q507 -680 516 -686Q525 -693 536 -702Q544 -710 551 -720Q558 -730 572 -731Q567 -722 564 -711V-707Q568 -705 572 -705Q595 -710 618 -715Q624 -715 627 -714L641 -717Q647 -732 689 -744Q728 -755 736 -768Q764 -769 791 -783Q818 -796 845 -804L847 -801Q847 -798 836 -791Q828 -786 827 -783Q867 -792 917 -799V-798Q916 -794 905 -792Q894 -790 886 -787Q876 -780 865 -778Q854 -777 851 -763Q851 -760 858 -757Q868 -753 866 -752Q868 -742 869 -730Q869 -719 875 -713Q879 -714 883 -717Q890 -722 892 -717L896 -694Q889 -684 884 -662Q878 -636 866 -623Q854 -612 825 -601Q797 -591 773 -582Q714 -553 672 -531Q664 -528 656 -524Q648 -520 643 -511Q642 -479 640 -447Q657 -460 703 -465Q741 -469 758 -477Q761 -487 770 -493Q779 -498 788 -504H797Q822 -504 835 -485Q842 -490 848 -495Q853 -493 853 -491Q851 -486 848 -481Q855 -481 861 -488Q866 -494 869 -495Q865 -486 865 -475Q865 -466 871 -451Q880 -429 880 -415Q850 -363 819 -307Q788 -252 785 -178Q786 -167 786 -157Q794 -65 853 -65H854Q864 -75 868 -118Q870 -145 874 -154Q878 -154 881 -146Q883 -140 883 -136Q882 -128 880 -120Q880 -96 886 -72Q892 -89 892 -121Q891 -160 890 -200Q890 -229 894 -242Q897 -255 904 -256Q910 -242 911 -200Q912 -163 915 -146Q919 -166 927 -185Q929 -156 930 -126Q931 -96 939 -76Q946 -60 956 -60H957Q959 -49 970 -31Q984 -9 986 3Q987 12 987 21Q987 55 982 65Q979 73 962 82Q946 91 943 102Q938 103 932 103Q909 103 875 86Q846 71 831 70Q738 3 726 -115Q710 -110 661 -84Q648 -76 634 -66Q620 -57 605 -53ZM475 -284Q478 -278 478 -269Q478 -253 470 -237Q467 -238 462 -238Q450 -238 439 -229Q434 -224 424 -212Q418 -193 409 -171Q399 -149 396 -121Q370 -119 363 -105V-122Q363 -128 360 -130H358Q355 -129 351 -129H349Q347 -131 333 -138Q323 -143 322 -151H319Q314 -150 309 -150H307Q312 -157 312 -169Q312 -191 298 -192Q296 -162 296 -144Q296 -123 300 -107L303 -90Q308 -78 312 -31Q316 -3 316 18Q314 34 301 43Q289 51 278 62Q254 38 227 24Q224 6 207 -15Q200 -24 187 -31Q175 -38 172 -40Q174 -41 178 -41Q183 -41 207 -32Q202 -44 178 -53Q161 -59 155 -65H161Q181 -61 201 -56Q193 -65 166 -72Q144 -78 134 -84Q140 -86 142 -86Q148 -86 167 -80Q186 -74 196 -74H200Q204 -74 218 -84Q232 -120 239 -198Q241 -217 243 -236Q243 -247 240 -254Q210 -248 205 -229Q210 -219 216 -208Q222 -198 223 -185V-183Q224 -176 224 -170V-169Q223 -161 212 -150Q204 -143 202 -138H198Q179 -140 159 -142Q156 -149 149 -149L145 -148Q144 -155 134 -161Q127 -165 125 -169Q97 -141 91 -92Q77 -96 71 -96Q58 -96 46 -87V-91Q49 -98 52 -105Q48 -111 36 -122Q28 -129 24 -134V-138Q24 -140 24 -143Q25 -144 25 -146Q25 -147 25 -149Q26 -151 27 -154V-155H26Q25 -156 22 -156Q22 -157 21 -157L13 -168Q40 -173 53 -195Q67 -217 79 -238Q78 -251 77 -264Q77 -274 82 -278Q86 -282 96 -285Q110 -289 115 -293Q126 -301 136 -317Q119 -316 112 -295Q103 -292 93 -292Q78 -292 71 -298Q69 -313 61 -322Q53 -331 44 -339Q44 -406 71 -429Q83 -426 92 -426Q109 -427 124 -433Q139 -439 159 -434Q175 -436 190 -438Q197 -479 201 -486Q215 -488 221 -488Q255 -488 259 -461Q275 -465 291 -470Q307 -476 324 -477Q334 -477 344 -474L376 -482Q380 -492 390 -498Q400 -503 409 -509V-515Q409 -528 415 -532V-529Q415 -518 427 -509Q438 -501 450 -501H452Q461 -503 469 -506H472L473 -503Q473 -501 469 -499Q464 -496 464 -494L465 -493V-491Q465 -483 471 -483Q474 -484 477 -485Q468 -465 468 -456Q468 -441 475 -434Q476 -433 476 -428Q476 -414 457 -403Q440 -393 425 -393H421Q389 -393 312 -371V-370Q311 -360 310 -350Q310 -345 312 -342Q327 -346 356 -364Q381 -379 401 -382Q406 -378 423 -370Q428 -366 433 -362Q437 -362 440 -366Q444 -370 446 -370L449 -369V-367Q446 -359 442 -352V-350Q444 -341 450 -331Q458 -337 471 -339H475Q463 -332 463 -318Q463 -307 473 -301Q472 -297 471 -293L473 -290H476Z"/>
</svg>