<svg xmlns="http://www.w3.org/2000/svg" viewBox="0 -800 1024 1024">
	<path fill="#000000" d="M940 -572H930Q932 -579 934 -585Q936 -592 945 -593H948Q944 -582 940 -572ZM52 -537V-539Q62 -545 70 -545Q78 -545 83 -540Q82 -534 71 -531Q62 -528 61 -524Q54 -528 52 -537ZM610 -162V-132Q610 -117 612 -111Q668 -123 719 -138Q729 -133 739 -128Q740 -141 748 -164Q756 -185 756 -195Q756 -201 755 -204Q683 -183 610 -162ZM758 -287H761Q765 -287 766 -286Q764 -281 764 -272Q764 -255 773 -248Q777 -282 797 -337Q811 -375 816 -396Q737 -376 707 -365Q654 -345 618 -315L615 -317Q612 -316 609 -315Q607 -312 604 -309Q606 -301 606 -289Q606 -278 607 -272Q617 -273 626 -275H628Q635 -282 654 -287Q669 -291 674 -294Q682 -300 689 -306Q690 -307 694 -307Q706 -305 717 -303Q724 -307 730 -312Q736 -318 743 -319Q747 -319 749 -318Q741 -310 734 -297H735Q740 -297 745 -301Q750 -305 753 -305H755Q753 -300 750 -295L751 -291Q754 -287 758 -287ZM151 -489H150Q142 -485 137 -482L135 -483V-486Q135 -492 139 -500Q136 -501 129 -501Q115 -501 102 -493Q97 -490 80 -477Q82 -489 101 -505Q113 -515 117 -522Q115 -532 111 -539Q97 -541 92 -543Q93 -548 103 -551Q111 -553 113 -556Q117 -564 117 -572Q116 -584 109 -593Q102 -602 98 -612H99Q105 -612 115 -606Q126 -600 130 -600Q138 -600 142 -608Q140 -619 135 -630Q126 -651 126 -663Q133 -660 139 -644Q147 -623 162 -622Q164 -623 165 -630Q166 -638 169 -639Q177 -620 201 -608Q207 -609 212 -619Q219 -632 228 -632Q221 -614 217 -597Q217 -591 218 -588L219 -587Q223 -589 226 -592L227 -591Q229 -577 238 -554Q251 -524 252 -507Q253 -502 253 -497Q253 -476 242 -467Q233 -460 212 -456Q178 -466 151 -489ZM445 -501V-504Q447 -512 449 -520Q449 -523 446 -525H444Q437 -525 433 -516Q430 -508 427 -507V-511Q427 -526 441 -565Q457 -609 457 -629Q457 -651 443 -665L441 -666Q438 -665 434 -664L431 -665V-666Q432 -680 443 -686Q454 -692 465 -698Q484 -714 502 -732H541Q556 -703 571 -672Q585 -642 586 -603Q586 -585 584 -576Q547 -573 523 -548Q510 -534 489 -494Q476 -503 459 -507Q453 -507 445 -501ZM816 73H815Q809 70 795 66Q793 67 790 67Q785 60 773 54Q759 47 755 40Q747 21 739 1Q717 1 695 0Q629 0 603 24Q588 20 572 15Q561 7 556 -8Q552 -23 547 -38Q542 -64 519 -72Q529 -83 529 -103Q528 -123 522 -145Q515 -167 511 -186Q504 -230 502 -234Q490 -259 471 -287Q451 -315 446 -345Q417 -339 384 -318Q383 -308 382 -299Q382 -293 385 -290Q397 -294 403 -299Q407 -299 410 -295Q414 -291 417 -291H418Q423 -293 429 -302Q436 -313 445 -314V-313Q441 -299 437 -286V-283Q443 -270 457 -269Q461 -269 462 -270V-266Q462 -253 476 -231Q491 -207 492 -188Q490 -172 487 -157Q487 -147 493 -141H492Q489 -141 484 -147Q480 -152 478 -153Q476 -152 474 -146Q472 -139 468 -138H466Q455 -140 444 -143H443Q435 -142 432 -137Q429 -132 424 -126Q425 -129 425 -135Q424 -150 411 -156Q398 -161 384 -165Q379 -157 379 -143Q382 -119 385 -96Q385 -91 384 -86Q384 -70 394 -37Q401 -13 403 0Q396 14 392 24L393 28Q381 33 366 37Q352 41 351 58V59Q348 58 347 50Q346 44 345 42Q331 37 307 7Q299 -1 293 -18Q290 -25 286 -33V-39Q288 -53 289 -67Q289 -76 284 -84Q286 -91 296 -108Q295 -112 295 -119Q300 -146 304 -174V-177Q283 -165 261 -138Q250 -125 225 -90Q207 -66 189 -40Q171 -14 166 21Q163 21 161 17Q159 13 157 13Q147 26 136 26Q122 26 107 9Q95 -5 85 -24Q79 -38 76 -51Q73 -63 58 -66Q60 -71 67 -71Q73 -71 79 -72Q75 -88 58 -96Q40 -104 25 -111Q28 -112 34 -112Q56 -108 78 -105H86Q124 -112 153 -138Q219 -188 258 -234Q271 -248 284 -261Q296 -274 302 -291Q237 -268 163 -213Q158 -210 140 -186Q126 -168 109 -168Q106 -168 96 -170Q82 -173 73 -185Q68 -191 59 -212Q56 -219 46 -227Q34 -236 30 -243Q20 -259 20 -278Q20 -316 49 -347V-381Q63 -391 80 -410Q97 -429 101 -432Q102 -428 102 -420Q103 -413 108 -408H116Q132 -408 163 -418Q188 -426 204 -426Q215 -432 227 -437Q244 -437 259 -443Q274 -449 293 -455Q294 -469 294 -483Q294 -548 283 -608Q280 -611 277 -618Q273 -628 269 -630Q269 -671 275 -684Q293 -695 296 -716Q316 -734 344 -734Q376 -734 384 -707Q421 -672 421 -621Q421 -610 412 -591Q402 -570 401 -558Q400 -553 400 -543Q402 -516 404 -490Q428 -498 439 -503V-494Q439 -489 442 -483L444 -482Q450 -485 455 -489H456Q454 -483 454 -481Q455 -471 463 -462Q470 -454 475 -447Q474 -431 472 -416Q472 -406 477 -402Q492 -410 507 -421Q522 -431 542 -432H548Q557 -444 570 -474Q589 -516 604 -531Q617 -580 638 -611Q640 -621 640 -627Q640 -636 639 -645Q640 -650 640 -656Q642 -669 656 -694Q665 -710 669 -722Q675 -719 681 -719Q689 -722 699 -731Q711 -741 717 -744Q750 -738 752 -738Q761 -732 768 -721Q775 -711 784 -701Q795 -690 809 -679Q823 -668 828 -654Q830 -646 830 -640Q825 -609 820 -579Q803 -572 780 -546Q762 -526 751 -519Q748 -514 744 -509L745 -506Q741 -505 738 -502Q734 -498 730 -498H729Q728 -487 722 -483Q717 -478 713 -473Q819 -498 877 -530H879Q884 -529 888 -528H890Q897 -531 907 -545Q918 -561 930 -563Q929 -554 922 -542Q911 -523 911 -513H913Q917 -513 923 -521Q928 -528 931 -528H933V-527Q930 -516 926 -505Q926 -502 927 -500H928Q933 -504 940 -508L943 -507Q939 -499 939 -490Q939 -476 950 -462Q957 -453 970 -441Q969 -437 969 -430Q972 -410 974 -390Q974 -386 973 -383Q966 -367 962 -353Q962 -348 963 -345Q943 -340 929 -318Q921 -305 908 -273Q861 -145 846 3V37Q846 58 837 67Q835 66 832 66Q824 68 816 73Z"/>
</svg>