<svg xmlns="http://www.w3.org/2000/svg" viewBox="0 -800 1024 1024">
	<path fill="#000000" d="M738 11Q735 12 729 12Q715 12 701 6Q704 -2 711 -2Q719 -2 738 11ZM700 -307Q691 -308 688 -326Q686 -338 682 -343Q682 -350 681 -358Q681 -396 697 -428Q698 -430 730 -481Q732 -481 733 -476Q734 -473 736 -472Q747 -474 747 -493V-512Q768 -486 790 -460Q811 -433 813 -387V-380Q813 -349 803 -282Q792 -209 792 -170V-164Q770 -158 770 -143Q771 -140 771 -137Q768 -147 760 -147Q748 -146 746 -129Q737 -164 714 -170Q712 -181 703 -207Q692 -237 692 -255Q692 -267 696 -278ZM973 -694Q980 -681 986 -669Q969 -639 953 -605Q936 -571 933 -526Q932 -491 931 -456H929Q927 -456 926 -453Q926 -451 923 -451L924 -304Q924 -268 923 -233Q923 -186 931 -157Q926 -153 926 -145Q926 -136 933 -127Q930 -110 930 -95Q930 -79 936 -39Q941 -6 941 13Q941 23 940 28Q936 62 917 85Q898 107 878 126Q856 116 833 105Q830 81 817 72Q813 44 790 34Q767 24 749 11H755Q774 14 792 17Q772 6 724 -14Q691 -28 672 -37Q737 -22 801 -8Q790 -19 774 -25Q757 -31 741 -37H746Q774 -34 801 -31Q816 -31 826 -37Q836 -91 838 -152Q839 -212 841 -277Q844 -323 844 -373V-393Q841 -431 838 -470Q838 -485 841 -497Q835 -508 835 -530Q836 -547 836 -565V-569Q836 -600 827 -620Q816 -645 797 -645Q788 -645 779 -640Q795 -690 831 -725Q871 -765 921 -770H924Q937 -770 945 -761Q951 -755 956 -740Q968 -717 973 -694ZM342 -235Q341 -226 339 -217Q334 -177 334 -174Q333 -160 322 -129Q320 -112 306 -77Q298 -46 280 -7L271 5L272 9Q272 12 267 16Q263 19 262 21Q256 39 249 56Q245 62 236 71Q223 83 221 92Q208 88 194 84Q190 80 185 67Q180 52 172 49Q168 32 168 10Q172 -52 185 -108Q187 -98 187 -86Q187 -74 192 -67Q228 -95 261 -163Q285 -213 285 -246Q285 -264 278 -278Q254 -235 230 -192Q218 -171 178 -111Q168 -96 150 -61Q138 -38 130 -24Q95 32 90 71Q61 61 51 17Q44 -12 44 -64V-77Q48 -69 49 -63Q54 -123 59 -184Q63 -167 63 -122Q63 -90 65 -74Q68 -83 70 -121Q72 -117 73 -101Q74 -81 80 -76Q153 -168 171 -194Q218 -263 243 -331Q238 -343 231 -353Q202 -321 192 -306Q173 -279 165 -247Q160 -248 155 -257Q151 -265 146 -265L142 -264Q133 -281 121 -297V-304Q121 -318 115 -322Q108 -322 101 -313Q97 -308 92 -306Q100 -316 104 -330Q104 -333 100 -335Q96 -338 95 -341Q91 -340 83 -332Q75 -324 71 -324Q71 -330 77 -338Q81 -344 82 -350Q74 -347 58 -328Q46 -313 40 -310Q60 -348 95 -390Q99 -396 105 -403Q111 -409 120 -410L133 -421Q133 -423 132 -426Q133 -440 145 -452Q157 -463 165 -475Q155 -495 155 -521Q155 -574 191 -577Q205 -567 213 -550Q226 -558 233 -573Q240 -588 249 -601Q248 -607 246 -614V-617Q257 -618 269 -629Q278 -637 283 -639Q287 -635 298 -635Q307 -635 311 -633Q320 -628 333 -580Q345 -536 345 -517Q345 -500 339 -485Q325 -471 303 -460Q280 -449 278 -424V-419Q281 -404 293 -388Q306 -372 314 -360Q329 -336 336 -317Q336 -320 336 -323Q336 -352 352 -378Q371 -409 416 -440Q411 -432 402 -416Q392 -401 391 -388Q391 -378 401 -375Q403 -374 406 -374Q417 -377 427 -381Q430 -381 432 -380L441 -383Q450 -396 474 -405Q494 -413 504 -422Q518 -424 532 -427V-432Q532 -439 528 -449Q522 -464 522 -472Q509 -467 494 -460Q479 -453 472 -439Q470 -440 467 -440Q460 -438 455 -433Q458 -439 460 -445Q458 -451 448 -457Q441 -461 439 -465Q433 -462 427 -460H425Q430 -464 430 -472Q430 -480 425 -484H421Q413 -484 407 -478Q404 -475 399 -466V-468Q403 -483 413 -493Q410 -507 400 -507Q388 -507 375 -494Q377 -502 387 -513Q395 -522 397 -526Q377 -524 358 -511Q395 -560 406 -572Q437 -605 469 -619L501 -637Q503 -648 515 -665Q531 -688 531 -702Q531 -705 529 -715H546Q556 -715 560 -718L561 -719Q560 -722 559 -725V-727Q589 -733 603 -733Q628 -733 640 -721Q654 -708 665 -658Q679 -620 683 -588V-586Q683 -564 667 -545Q652 -528 633 -523Q627 -525 622 -525Q605 -525 603 -517Q604 -514 611 -508Q619 -501 621 -493V-489Q619 -476 616 -463V-458Q635 -465 654 -473Q672 -481 698 -482Q692 -474 681 -468Q671 -462 670 -450Q670 -445 671 -442L672 -441Q679 -444 686 -448Q675 -415 675 -393L631 -306Q639 -288 649 -270Q649 -258 656 -242Q658 -243 660 -247Q662 -252 665 -252L668 -251Q663 -245 663 -236Q667 -216 670 -196V-191Q670 -186 670 -182Q669 -179 669 -173Q669 -166 673 -161L671 -160Q664 -163 656 -167Q643 -166 643 -144V-134Q638 -137 637 -144Q636 -152 634 -158Q632 -157 629 -157Q621 -159 613 -167Q609 -154 609 -125Q608 -81 599 -68L610 -22Q614 -6 614 13Q614 44 591 105Q580 112 569 118Q553 115 543 95Q527 64 525 62Q521 33 505 28Q506 26 510 24Q515 21 516 18Q513 16 504 16H496Q490 16 484 14Q529 5 529 -80Q529 -104 525 -140Q492 -107 461 -59Q452 -45 405 33Q397 28 390 28Q377 28 368 39Q370 34 375 30Q371 19 366 9Q361 -2 349 -6Q352 -45 352 -50Q352 -73 344 -85Q355 -92 355 -110Q353 -132 351 -154Q351 -166 353 -171Q364 -120 375 -108Q387 -112 394 -122Q401 -132 414 -137Q445 -173 475 -201Q504 -229 526 -274Q487 -261 477 -257Q452 -246 427 -225Q419 -217 409 -206Q400 -196 387 -195Q381 -195 374 -199Q366 -205 361 -215Q345 -231 342 -235Z"/>
</svg>