<svg xmlns="http://www.w3.org/2000/svg" viewBox="0 -800 1024 1024">
	<path fill="#000000" d="M380 -185Q359 -178 337 -155Q333 -147 328 -140Q322 -135 315 -131Q308 -123 308 -112Q308 -101 316 -81Q327 -85 336 -91Q344 -97 358 -98Q372 -138 380 -185ZM922 -198Q921 -185 912 -175Q907 -177 907 -186Q908 -201 916 -204Q919 -204 922 -198ZM924 -657Q924 -642 911 -642Q910 -644 910 -648Q910 -659 918 -659Q920 -659 924 -657ZM840 -373Q825 -347 790 -343Q754 -314 729 -308Q724 -309 719 -310Q710 -310 706 -308Q709 -315 711 -322L710 -326H706Q696 -326 688 -316Q679 -305 671 -305Q724 -383 765 -465Q726 -453 683 -433Q672 -429 663 -417Q649 -399 650 -374Q654 -367 657 -361Q654 -339 633 -330Q623 -328 619 -328Q611 -328 606 -329Q597 -331 582 -341Q570 -349 565 -350Q563 -351 560 -350Q554 -350 547 -342Q542 -336 538 -334V-337Q537 -341 541 -346Q545 -351 545 -354Q538 -364 527 -364Q505 -362 486 -353Q498 -367 509 -381Q509 -384 504 -387Q496 -385 492 -380L491 -382Q493 -387 494 -392Q493 -400 477 -400Q472 -400 466 -398V-400Q467 -406 473 -408Q472 -416 458 -432Q444 -414 429 -406Q413 -399 389 -387Q340 -359 310 -320Q280 -282 248 -233Q253 -232 254 -228Q260 -235 266 -242Q282 -245 308 -263Q331 -279 347 -281Q365 -295 384 -308Q402 -322 417 -340Q425 -334 430 -334Q438 -334 445 -344Q450 -352 453 -365Q453 -355 454 -341Q456 -327 469 -323Q470 -324 472 -327Q474 -331 478 -331H479Q480 -321 492 -313Q501 -274 516 -244Q516 -243 513 -206Q503 -197 493 -186Q483 -176 470 -170L453 -143Q449 -121 435 -79Q418 -30 415 1L411 0Q407 3 402 5Q402 2 399 2H391Q387 -2 377 -4Q365 -7 362 -9Q354 -3 346 2Q339 7 328 25Q315 46 304 49Q301 50 295 50Q276 50 260 26Q245 4 242 -18L233 -40H232Q223 -41 217 -50Q211 -59 202 -67Q189 -75 178 -83Q167 -92 164 -109Q150 -90 137 -69Q124 -48 123 -15V-12Q115 -11 105 -1Q94 10 82 10H76Q75 6 73 1V-1Q70 0 65 5Q60 10 54 11V8Q57 -1 60 -11V-12Q60 -22 50 -45Q38 -72 38 -90V-96Q40 -116 41 -136H51Q48 -163 39 -191Q36 -203 36 -219Q36 -235 41 -244Q41 -214 60 -165L61 -169Q58 -178 55 -187Q55 -189 57 -193Q62 -189 67 -178Q72 -167 76 -164Q125 -191 161 -233Q196 -275 232 -317Q186 -307 162 -265Q154 -263 150 -263Q132 -265 118 -271Q113 -276 108 -291Q104 -304 99 -310Q91 -317 82 -324Q73 -332 72 -348V-351Q77 -377 81 -404V-408Q80 -433 78 -458Q78 -481 93 -494Q120 -512 147 -530Q151 -534 156 -539Q161 -545 168 -545L170 -542Q169 -539 167 -537V-535Q174 -536 185 -550Q200 -569 213 -570V-569Q211 -561 199 -549Q187 -534 185 -523Q187 -512 197 -512Q207 -512 210 -520Q212 -518 214 -518Q217 -518 217 -515Q223 -519 229 -523H230Q233 -522 236 -521Q244 -525 251 -529Q274 -536 288 -536Q290 -538 291 -542H294Q308 -545 322 -549Q329 -549 334 -545L349 -560Q355 -565 368 -568Q383 -571 389 -577Q392 -576 395 -576Q403 -576 414 -584Q426 -593 436 -594Q439 -592 439 -591Q437 -586 435 -582L436 -580H438Q449 -584 460 -589Q464 -589 466 -588Q465 -585 459 -582Q452 -578 452 -572Q455 -570 460 -570Q465 -570 473 -575Q485 -582 492 -582H494Q483 -577 472 -566Q459 -553 459 -543Q459 -537 466 -531H467Q479 -536 492 -540Q505 -544 507 -559Q515 -545 537 -544Q548 -544 552 -552Q554 -534 565 -526Q576 -517 587 -509Q631 -523 665 -534Q661 -588 659 -623Q656 -658 625 -686Q624 -690 624 -698Q624 -717 633 -727Q641 -738 651 -749Q662 -764 672 -779Q683 -787 699 -787Q723 -784 746 -781Q754 -762 776 -749Q780 -729 781 -725Q785 -712 795 -710Q791 -702 791 -695Q791 -688 795 -680Q787 -675 781 -656Q776 -642 771 -636L766 -629Q765 -615 759 -595Q752 -575 751 -560Q768 -568 786 -573Q809 -580 827 -590Q837 -597 849 -606Q861 -614 879 -615Q883 -621 888 -626Q894 -632 903 -633Q893 -618 889 -604V-601Q892 -593 901 -590Q909 -587 915 -584Q920 -585 926 -591Q935 -599 944 -600Q938 -591 936 -580V-576L938 -575Q946 -578 953 -582L957 -581Q949 -571 949 -558Q949 -540 962 -534Q961 -530 961 -520Q961 -502 968 -495Q967 -490 960 -480Q953 -469 951 -459Q921 -457 893 -428Q864 -399 840 -373ZM648 -84Q645 -68 636 -52Q665 -57 708 -57H750Q827 -57 864 -76Q867 -101 877 -118Q879 -113 879 -100V-96Q879 -80 882 -74Q887 -92 887 -137V-162Q887 -211 895 -233V-224Q898 -160 900 -96V-79Q902 -109 904 -139V-154Q904 -168 913 -169Q915 -162 915 -146Q914 -124 913 -102Q913 -79 922 -69Q927 -63 940 -59Q950 -56 956 -51Q957 -42 962 -36Q968 -31 971 -25Q968 -17 968 -11Q970 3 972 17Q970 36 957 51Q944 65 936 81Q919 80 888 70Q839 55 814 55H805Q790 56 774 56Q753 56 743 46L674 56Q665 67 634 74Q607 80 598 89H592Q581 89 571 94Q553 79 530 55Q506 32 500 3V-4Q504 -32 519 -58Q521 -66 524 -74Q526 -82 534 -83L546 -114Q538 -114 538 -123Q538 -132 544 -136Q543 -138 543 -143Q545 -155 546 -167V-169Q542 -182 533 -198Q532 -203 532 -214V-227Q532 -235 531 -238Q527 -250 522 -262V-265Q525 -264 529 -264Q534 -264 541 -273Q547 -279 560 -288Q580 -302 595 -306Q620 -311 635 -305Q641 -297 647 -290Q657 -274 666 -257Q675 -239 676 -215Q749 -266 821 -318Q825 -320 834 -334Q841 -345 850 -345Q853 -344 855 -344Q855 -339 845 -328Q837 -319 835 -313Q840 -310 847 -294Q857 -272 870 -272Q874 -272 877 -273Q877 -269 873 -261Q882 -267 892 -270H894Q879 -255 875 -227Q871 -199 869 -176Q863 -170 838 -167Q819 -165 791 -153Q783 -149 744 -130Q689 -107 648 -84Z"/>
</svg>