<svg xmlns="http://www.w3.org/2000/svg" viewBox="0 -800 1024 1024">
	<path fill="#000000" d="M943 -491Q940 -490 939 -487Q938 -484 937 -482Q934 -469 926 -466Q924 -471 924 -480Q924 -513 946 -513H949Q952 -508 952 -506Q952 -500 943 -491ZM836 -108V-106Q837 -94 827 -85Q825 -89 825 -92Q823 -102 826 -106H828Q830 -106 833 -108ZM764 -230Q762 -216 759 -203Q759 -195 764 -189Q744 -172 723 -156Q694 -161 647 -161Q628 -161 625 -162Q624 -166 621 -165Q619 -165 610 -163Q642 -123 665 -108Q689 -84 715 -60Q740 -36 773 -19Q782 -23 784 -46Q785 -63 789 -68Q797 -65 797 -47Q797 -31 801 -27Q805 -39 805 -58Q805 -76 804 -95Q804 -119 810 -132Q816 -128 816 -116V-106Q816 -41 824 -9Q826 -19 826 -24Q825 -42 824 -60Q824 -73 827 -78Q834 -43 840 -7Q845 28 864 52Q864 59 863 66Q863 71 865 85Q860 89 849 103Q836 120 824 126Q764 123 735 94Q734 93 724 80Q706 64 692 44L671 15Q657 12 650 1Q643 -9 635 -17Q625 -26 615 -35Q604 -44 598 -56Q582 -64 554 -96Q526 -128 510 -137Q482 -118 462 -92Q441 -66 419 -41Q379 0 368 13Q339 47 327 74Q322 74 314 81Q308 86 303 87H298Q282 86 268 77Q254 68 244 61Q237 64 229 66Q232 60 234 53Q230 42 228 33Q225 23 215 18Q210 16 192 14Q173 12 164 7Q170 7 175 6Q196 8 216 10Q222 10 228 8Q227 -3 199 -8Q142 -17 84 -26Q90 -27 102 -27Q152 -23 201 -20Q220 -20 235 -24Q241 -26 255 -34Q270 -43 282 -43H284L324 -75Q336 -92 352 -104Q369 -117 385 -131Q340 -127 328 -119Q317 -111 288 -87H286Q274 -87 260 -99Q237 -119 235 -120Q232 -122 221 -125Q209 -129 205 -133Q198 -141 198 -152Q198 -176 221 -191V-198Q222 -222 239 -231Q257 -239 280 -247Q301 -262 324 -266H326Q320 -257 314 -248Q315 -241 329 -241Q342 -241 343 -235L351 -236Q358 -245 371 -244Q385 -243 395 -248H397Q402 -246 406 -245Q416 -250 431 -250H436V-252Q440 -268 443 -285V-286Q462 -297 487 -299L486 -300Q479 -302 467 -302Q453 -302 447 -309Q441 -318 434 -328Q432 -331 427 -333Q422 -335 418 -340Q426 -345 427 -355Q428 -363 429 -372Q319 -300 280 -271Q197 -210 145 -149Q138 -152 130 -152Q123 -152 115 -153Q98 -157 94 -166L92 -164Q91 -163 84 -158Q87 -170 87 -171Q87 -182 73 -193Q68 -198 63 -203Q57 -209 56 -215V-218Q56 -223 60 -235Q64 -245 64 -251Q64 -256 59 -264Q66 -277 66 -290Q66 -302 58 -328Q54 -342 52 -348Q49 -366 49 -370Q58 -363 65 -351Q70 -339 76 -326Q88 -294 109 -294H112Q130 -296 164 -316Q186 -328 190 -330Q204 -336 219 -339V-332H223L282 -369Q282 -379 300 -390Q304 -392 308 -394L342 -414Q364 -428 375 -439Q383 -445 397 -457Q385 -455 372 -454Q366 -453 313 -442Q274 -434 262 -426Q253 -421 251 -408Q246 -394 238 -390Q228 -393 220 -396Q214 -399 204 -405Q188 -416 169 -417Q150 -435 148 -437Q138 -449 138 -464Q138 -471 139 -474Q139 -478 143 -484Q147 -488 148 -491Q151 -503 154 -516Q158 -529 165 -534Q177 -541 189 -548Q202 -554 207 -570Q210 -571 214 -575Q217 -577 221 -581Q226 -588 238 -593Q238 -589 234 -579Q230 -572 225 -565Q222 -561 216 -546L221 -551Q229 -561 237 -563Q236 -559 235 -555Q235 -551 234 -548Q261 -552 288 -556Q257 -585 249 -615Q249 -621 252 -627V-631Q254 -634 255 -638Q258 -644 261 -651Q266 -662 290 -667L294 -668Q328 -685 345 -666H352Q361 -666 365 -664Q370 -661 371 -654H369Q366 -654 362 -648L360 -645Q362 -638 363 -631Q365 -620 367 -610Q373 -581 374 -572Q382 -574 404 -578Q416 -580 428 -582Q425 -651 381 -663Q385 -672 385 -680Q385 -694 371 -694H366Q370 -703 373 -706Q384 -718 386 -735V-739Q397 -742 413 -754Q431 -769 450 -785Q469 -800 494 -801H499Q524 -797 545 -760Q547 -758 548 -757Q579 -715 575 -696L574 -693Q578 -653 561 -623Q556 -615 551 -599L574 -602L577 -601Q581 -602 585 -604L594 -695V-697Q594 -705 599 -708Q604 -712 606 -714L623 -731Q640 -755 663 -754Q676 -753 698 -744Q726 -733 734 -720L735 -716Q737 -714 738 -710Q742 -702 737 -694Q742 -691 742 -689V-687Q729 -679 704 -651Q682 -626 668 -607H702Q707 -607 729 -610Q740 -611 760 -611Q781 -613 783 -614Q790 -617 800 -627Q811 -638 821 -639Q819 -631 810 -620Q803 -613 803 -606V-605L804 -602Q807 -590 825 -588Q834 -587 842 -586Q858 -583 862 -582Q855 -577 847 -575Q843 -574 833 -572Q820 -568 815 -559Q819 -561 823 -563Q826 -563 828 -564Q832 -564 834 -559Q830 -553 822 -551Q814 -547 812 -543V-537Q812 -533 814 -525Q817 -514 818 -511Q814 -505 807 -499Q801 -490 799 -485Q788 -483 787 -482Q786 -482 782 -480Q779 -478 776 -476Q770 -478 751 -483Q735 -489 727 -495H698Q687 -489 668 -489H635Q626 -489 617 -489Q627 -482 630 -476Q643 -472 646 -462Q650 -462 654 -458Q659 -455 663 -455Q683 -435 724 -410Q758 -390 791 -370Q802 -361 812 -352Q825 -341 836 -341H837Q848 -341 860 -356Q865 -362 869 -369Q874 -377 883 -385Q882 -377 880 -371Q879 -365 877 -359Q873 -345 872 -336Q877 -340 879 -344Q882 -352 884 -360Q897 -396 900 -406Q912 -436 922 -456Q922 -438 918 -420Q915 -406 911 -392Q901 -356 900 -332Q905 -341 914 -365Q918 -375 922 -385Q929 -400 934 -407V-398Q931 -363 927 -329Q928 -323 928 -318Q934 -290 939 -262Q941 -250 950 -219Q956 -202 956 -199Q960 -185 961 -176Q959 -153 943 -140Q928 -128 907 -128Q903 -131 898 -134Q890 -136 886 -138Q871 -142 866 -150L862 -151Q859 -151 855 -149Q841 -167 816 -188Q788 -210 774 -222Q770 -226 764 -230ZM675 -297H669Q647 -313 633 -327Q610 -350 586 -373Q556 -399 533 -413Q530 -405 530 -400Q530 -393 536 -377Q541 -364 541 -353Q541 -343 533 -322Q531 -316 524 -314Q519 -312 516 -306Q506 -305 502 -299Q538 -295 536 -263Q550 -266 564 -269Q573 -270 582 -271Q595 -271 600 -266L610 -270Q617 -278 628 -279Q638 -281 648 -283Q665 -287 675 -297Z"/>
</svg>