<svg xmlns="http://www.w3.org/2000/svg" viewBox="0 -800 1024 1024">
	<path fill="#000000" d="M306 -455Q315 -468 341 -495Q370 -525 382 -546V-551Q382 -571 398 -579Q410 -585 435 -585H446Q457 -580 465 -556Q472 -533 486 -528Q471 -493 445 -466Q419 -438 393 -411Q339 -353 320 -310V-309Q320 -306 317 -306Q314 -306 314 -304Q308 -294 304 -279Q252 -294 226 -332Q222 -332 217 -333H214Q212 -346 194 -349Q170 -353 166 -357H177Q193 -357 203 -360Q183 -373 160 -378Q136 -383 108 -390Q117 -394 134 -394Q163 -392 191 -391H200Q239 -397 265 -412Q286 -433 306 -455ZM707 -541Q691 -531 687 -535Q677 -537 667 -539Q662 -539 659 -537V-540Q661 -546 662 -552Q657 -562 645 -573Q638 -570 630 -568V-571Q631 -576 637 -579Q637 -582 631 -588Q617 -587 609 -577Q615 -600 633 -617Q652 -634 665 -654Q563 -650 480 -618Q427 -601 404 -592Q366 -577 342 -558Q340 -537 338 -517V-511Q328 -510 312 -497Q299 -486 291 -485H286Q270 -486 256 -494Q241 -502 226 -507Q216 -503 209 -496L208 -499Q208 -505 212 -507Q194 -530 162 -536Q146 -536 139 -520L138 -524Q138 -535 153 -548Q148 -563 136 -570Q133 -571 128 -571Q116 -571 104 -558Q95 -548 87 -548H85Q97 -573 126 -588Q120 -603 120 -607Q120 -609 122 -615Q115 -624 97 -636Q80 -648 74 -655Q80 -654 93 -647Q108 -639 116 -639Q123 -639 128 -643Q127 -645 127 -649Q127 -654 135 -660Q142 -665 142 -669V-670Q142 -674 136 -681Q128 -691 128 -697Q128 -700 129 -702H130Q135 -701 141 -693Q148 -685 153 -680Q159 -683 165 -686Q159 -709 153 -732Q168 -714 179 -690Q187 -692 192 -692H201Q212 -692 215 -697H216Q220 -696 221 -690Q224 -694 226 -698Q227 -702 233 -702H234L237 -701Q235 -696 233 -692L234 -689Q237 -677 253 -664Q267 -653 270 -645Q277 -650 283 -655Q324 -663 365 -672Q395 -676 453 -691Q517 -707 553 -712Q560 -715 606 -725V-726Q613 -726 616 -729L619 -727Q630 -729 650 -733Q687 -743 724 -753Q737 -775 768 -777Q778 -777 786 -772Q790 -772 793 -775Q796 -778 798 -778Q797 -775 797 -771Q797 -763 806 -752Q812 -754 821 -764Q834 -778 846 -778Q844 -773 836 -766Q825 -757 825 -746V-744Q828 -745 833 -751Q838 -756 843 -756Q835 -745 835 -729Q835 -700 860 -697Q853 -689 853 -675Q853 -656 866 -634Q857 -627 848 -597H846Q833 -595 820 -593Q815 -593 812 -595Q760 -577 727 -545Q723 -539 718 -533Q712 -527 705 -526H704Q704 -533 707 -541ZM738 -375Q724 -374 709 -373Q683 -371 645 -371V-370H622V-371H602Q575 -368 572 -367Q581 -364 595 -364Q600 -360 603 -355Q606 -350 613 -350H616Q613 -342 613 -336Q615 -322 617 -308Q617 -305 615 -297Q600 -283 578 -278Q555 -273 538 -267Q538 -261 546 -256Q555 -250 555 -243Q555 -239 554 -237H560Q603 -241 648 -248Q670 -253 705 -253Q708 -257 721 -258Q729 -259 733 -261Q737 -263 740 -268Q744 -275 748 -275Q750 -274 750 -271V-267Q750 -263 753 -261Q756 -260 761 -260Q779 -263 796 -267H798L799 -264Q796 -258 792 -253Q792 -251 794 -249L798 -248Q809 -249 820 -251Q827 -251 830 -249Q824 -245 816 -243Q808 -240 804 -234Q809 -221 838 -221H853Q864 -221 868 -220Q862 -217 850 -215Q831 -213 828 -206Q829 -200 829 -185Q829 -161 824 -147Q810 -145 809 -135H800Q793 -135 792 -132Q752 -145 699 -145Q686 -144 673 -144Q641 -139 609 -135Q601 -137 592 -140H589Q566 -138 550 -131V-118Q555 -81 553 -41Q555 -33 559 -2Q563 35 569 45Q559 65 552 89Q545 115 522 117L504 118Q463 103 434 71Q429 48 423 25Q413 8 408 -5L410 -9Q415 -5 419 -2H420Q418 -15 405 -31Q392 -46 390 -59Q409 -48 427 -38Q444 -45 442 -93Q443 -103 443 -121Q355 -113 264 -75Q253 -71 247 -66Q241 -59 235 -50Q229 -41 218 -40Q185 -41 168 -62Q165 -66 163 -77Q160 -90 156 -96Q151 -102 143 -107Q136 -112 133 -120Q132 -123 132 -128Q132 -143 151 -160Q150 -164 150 -170Q151 -188 167 -193Q184 -197 208 -203Q249 -217 267 -219Q265 -212 255 -208Q244 -203 243 -197Q248 -194 255 -194Q266 -195 277 -196Q282 -196 284 -195Q304 -197 314 -197Q321 -201 333 -201H338Q389 -218 436 -219V-237Q407 -237 399 -232Q391 -242 384 -254Q377 -266 363 -270Q362 -284 348 -299Q339 -309 336 -316Q344 -317 353 -324Q366 -333 376 -333H378Q381 -333 381 -338V-340L382 -344Q401 -345 438 -354Q479 -364 501 -364H507Q498 -377 486 -393Q475 -409 474 -431V-436Q476 -453 490 -495Q507 -545 507 -572V-576Q523 -601 557 -604Q561 -604 571 -602Q576 -603 581 -609Q587 -617 592 -617Q591 -614 591 -608Q592 -593 603 -582Q613 -571 621 -559Q610 -539 595 -516Q581 -493 572 -467Q604 -462 635 -462Q717 -462 775 -483Q777 -489 779 -510Q781 -530 785 -540Q788 -533 790 -517Q793 -496 797 -489V-497Q795 -529 793 -561Q793 -573 794 -580Q798 -569 802 -538Q807 -501 815 -486V-493Q812 -517 808 -541Q808 -546 810 -554Q816 -516 836 -490Q852 -469 884 -448V-439Q882 -419 880 -399Q871 -392 868 -381Q868 -378 869 -376Q861 -377 856 -370Q797 -372 738 -375ZM139 -758Q141 -766 147 -766Q154 -766 156 -758Q154 -748 150 -741Q142 -751 139 -758Z"/>
</svg>