<svg xmlns="http://www.w3.org/2000/svg" viewBox="0 -800 1024 1024">
	<path fill="#000000" d="M514 -102V-105H516Q532 -105 532 -85Q514 -89 514 -102ZM936 -513Q933 -499 924 -492Q922 -495 922 -503Q922 -518 929 -518Q931 -518 936 -513ZM576 -261H582Q586 -261 628 -267Q618 -280 607 -291Q595 -302 591 -320Q575 -315 575 -280Q575 -267 576 -261ZM785 -326V-324Q787 -320 788 -317L792 -318Q797 -318 802 -313Q807 -308 811 -308Q786 -364 774 -378Q770 -367 769 -353Q767 -339 759 -332Q710 -320 684 -298Q668 -284 668 -273V-272Q734 -293 785 -326ZM721 -456Q699 -490 674 -530Q654 -512 644 -483Q634 -454 626 -423Q712 -454 721 -456ZM385 16V18Q384 30 361 50Q355 56 343 64Q326 76 320 84Q301 79 284 47Q271 22 261 15Q265 11 265 8Q265 4 262 -2Q260 -3 255 -3H240Q279 -14 279 -93Q279 -111 277 -143Q262 -136 243 -116Q221 -91 216 -82Q212 -69 207 -57Q200 -51 193 -45Q182 -26 173 -8Q165 2 154 11Q143 20 139 35H113Q79 3 79 -31Q79 -41 81 -47Q76 -58 70 -88Q65 -113 61 -125Q65 -122 71 -109Q79 -93 87 -93Q85 -102 76 -120Q63 -147 61 -163Q79 -123 110 -96Q218 -175 262 -252Q257 -262 257 -269Q257 -288 294 -311Q324 -329 329 -341Q307 -337 285 -325Q262 -313 238 -302Q213 -291 190 -282Q168 -272 154 -257Q146 -247 139 -234Q132 -222 120 -219H116Q95 -219 84 -245Q64 -248 56 -263Q49 -279 49 -303Q53 -306 56 -309Q52 -325 52 -333Q52 -374 96 -411V-410Q93 -407 89 -396Q89 -392 88 -389Q88 -368 111 -368Q124 -368 160 -380Q231 -401 300 -427Q290 -444 282 -444Q279 -444 277 -443V-453Q256 -470 256 -509Q307 -526 324 -561Q288 -559 235 -521Q223 -513 208 -495Q193 -478 187 -473Q177 -464 160 -464Q140 -464 126 -476Q124 -478 116 -497Q107 -510 99 -521Q91 -533 90 -546Q90 -557 95 -566Q102 -572 105 -581Q105 -587 96 -594Q87 -601 86 -608L89 -609Q93 -609 99 -604Q107 -597 112 -597H113Q110 -604 95 -616Q77 -630 74 -642H76Q84 -639 98 -627Q119 -614 125 -614H126Q124 -619 116 -625Q107 -632 105 -639L107 -640Q109 -640 132 -627Q143 -631 157 -645Q160 -645 164 -640Q166 -637 169 -636Q230 -648 297 -680Q319 -691 343 -700Q367 -709 386 -723Q400 -736 410 -743Q422 -747 427 -747Q446 -746 462 -734Q477 -723 491 -714Q492 -699 505 -673Q519 -645 519 -630Q519 -616 509 -600Q491 -589 465 -579Q456 -571 446 -563Q434 -557 422 -549Q411 -541 397 -515Q383 -495 379 -474Q379 -465 384 -459Q388 -464 401 -471Q419 -480 423 -491Q426 -491 427 -486Q428 -482 431 -482Q437 -483 440 -493Q443 -502 446 -504Q443 -495 443 -489Q443 -484 444 -482L445 -481Q448 -482 450 -484L452 -483Q453 -465 459 -436Q466 -404 466 -391Q466 -372 456 -355Q438 -352 426 -336Q413 -321 401 -303Q380 -273 379 -264V-258Q381 -240 382 -223V-219Q379 -187 375 -156V-151Q377 -138 379 -125Q380 -117 380 -99Q380 -66 379 -33V-15Q382 1 385 16ZM942 -222H938Q931 -222 924 -217Q915 -211 909 -211Q905 -211 902 -212Q860 -228 836 -261V-257Q836 -249 843 -232Q849 -219 850 -210Q845 -201 844 -170Q843 -150 841 -140Q807 -134 778 -103Q762 -85 735 -43Q698 13 669 66Q637 74 628 100Q613 88 582 86V84Q582 75 576 70Q570 65 562 65Q560 65 552 67V48Q547 43 543 27Q537 6 527 1L530 0Q532 0 540 4Q542 1 542 -3Q541 -12 533 -20Q525 -27 518 -34Q502 -52 484 -66Q502 -61 519 -48Q535 -36 551 -24Q509 -67 470 -114Q485 -108 511 -79Q542 -45 564 -39Q564 -47 549 -60Q536 -72 533 -82Q549 -70 583 -54Q657 -128 696 -186Q694 -187 691 -187Q682 -186 676 -181Q669 -175 663 -171Q638 -168 606 -142Q579 -121 560 -116Q517 -132 497 -162V-167Q497 -189 508 -200Q504 -207 504 -214Q504 -226 515 -234Q507 -245 487 -258Q468 -270 459 -281Q451 -291 447 -298Q452 -304 456 -311V-312Q454 -317 444 -320Q434 -323 429 -324Q461 -336 486 -368Q497 -382 527 -432Q552 -471 571 -531Q585 -589 606 -645Q597 -659 588 -680Q578 -697 573 -717V-719Q574 -726 592 -738Q635 -776 664 -776Q680 -776 694 -765Q708 -754 725 -720Q744 -683 744 -660V-657Q743 -648 736 -635Q729 -622 729 -614V-609Q731 -601 740 -590Q769 -540 798 -497Q810 -486 822 -476Q828 -464 833 -452Q845 -434 888 -398Q893 -403 893 -421Q901 -412 903 -398Q905 -419 906 -440Q907 -447 907 -461Q907 -485 906 -510Q906 -535 911 -549Q916 -409 919 -384Q924 -393 924 -410Q923 -433 921 -457Q921 -473 927 -482Q931 -445 932 -411Q933 -376 943 -347Q956 -325 962 -308Q960 -298 953 -289Q944 -261 942 -222Z"/>
</svg>