<svg xmlns="http://www.w3.org/2000/svg" viewBox="0 -800 1024 1024">
	<path fill="#000000" d="M164 -353L162 -352Q153 -354 151 -363Q151 -367 153 -368Q158 -367 160 -360Q162 -354 164 -353ZM857 -158H859Q861 -154 861 -152Q860 -143 858 -135Q850 -137 850 -149Q850 -158 857 -158ZM62 -44H59Q46 -44 40 -59Q45 -64 47 -64L51 -63Q52 -58 56 -54Q62 -48 62 -44ZM860 -677H856V-678Q856 -685 861 -689Q866 -693 873 -693Q878 -693 882 -690Q876 -680 860 -677ZM185 -263V-265Q185 -268 189 -271Q192 -274 192 -275L191 -276Q187 -281 177 -281Q165 -280 152 -279H148Q165 -292 185 -300V-301Q185 -304 181 -306Q176 -308 176 -311Q180 -311 184 -315Q184 -324 177 -333Q171 -341 170 -345Q171 -345 187 -335Q191 -336 191 -343Q191 -349 194 -350Q201 -346 210 -346Q226 -348 242 -351H246Q293 -349 305 -272Q301 -267 294 -256Q285 -241 278 -236Q256 -236 231 -248Q223 -254 217 -261Q210 -267 201 -268Q195 -268 185 -263ZM949 -60V-52Q949 -29 940 -19Q943 -2 943 8Q943 15 939 43Q932 50 913 56Q893 63 887 69Q812 50 772 42Q705 29 651 29Q628 29 616 30Q562 33 508 38Q453 44 421 69Q413 76 406 83Q399 91 385 93H377Q357 93 327 80Q302 69 293 69Q291 60 284 46Q274 28 274 18V13Q279 2 287 -10Q290 -15 292 -28Q294 -40 298 -44Q308 -47 317 -51Q324 -55 336 -68Q348 -82 357 -83L358 -80Q358 -78 355 -75Q349 -69 349 -65V-63Q350 -48 388 -48Q401 -48 413 -50Q410 -75 393 -96Q375 -117 364 -137Q360 -145 360 -153Q360 -163 372 -180Q384 -197 385 -210H386Q390 -208 394 -206H395Q398 -212 398 -216Q398 -222 397 -229L400 -230Q406 -230 408 -225Q410 -221 413 -218Q418 -220 423 -223Q432 -229 437 -229Q458 -221 480 -206Q492 -197 508 -174Q519 -159 523 -155Q500 -111 499 -59Q502 -58 510 -58Q534 -61 557 -65V-76Q557 -104 549 -155Q541 -206 541 -229Q542 -237 542 -246Q527 -240 510 -240Q482 -240 478 -260Q448 -266 445 -299Q445 -310 452 -320Q449 -328 446 -336Q427 -315 413 -291Q399 -266 384 -242Q359 -199 355 -192Q344 -165 332 -138Q323 -127 314 -117Q292 -83 250 9Q238 34 225 58Q220 71 217 84Q214 98 203 109H197Q171 108 153 100Q135 91 119 81Q116 67 101 49Q87 33 84 21L86 18Q90 20 94 22H95V17Q95 5 82 -11Q71 -24 71 -36V-38Q76 -36 81 -28Q89 -17 96 -16Q82 -41 62 -66Q55 -72 47 -78Q39 -84 38 -93Q38 -96 39 -98Q60 -81 80 -57Q99 -34 127 -20Q145 -30 171 -61Q191 -84 203 -94Q195 -92 186 -85Q174 -76 167 -76Q164 -76 158 -78Q146 -83 145 -83Q141 -82 136 -82Q98 -82 98 -111V-113Q102 -123 105 -134Q106 -137 106 -140Q105 -148 104 -156Q105 -158 105 -161Q109 -172 120 -177Q131 -181 138 -186Q142 -196 147 -206Q152 -216 163 -219Q161 -206 159 -194Q159 -188 161 -185Q247 -205 281 -227Q298 -240 313 -264Q328 -288 340 -309Q355 -333 381 -381Q350 -380 310 -356Q307 -355 304 -355Q284 -356 275 -372Q266 -387 252 -399Q245 -404 237 -408Q223 -414 219 -419Q205 -436 205 -458Q205 -495 234 -516Q232 -524 232 -528Q232 -546 246 -558Q261 -572 296 -592Q308 -599 348 -621Q347 -616 337 -605Q328 -595 328 -589Q328 -584 335 -577Q415 -593 447 -602Q450 -603 457 -603H477Q490 -607 502 -611H516Q524 -611 528 -615Q523 -681 504 -717Q492 -732 492 -737V-738Q492 -745 508 -761Q539 -785 566 -812Q578 -810 590 -808Q594 -808 602 -810Q609 -797 633 -784Q652 -774 658 -768Q667 -760 668 -748Q670 -736 675 -723Q671 -709 656 -688Q634 -657 634 -631V-629Q656 -633 702 -639Q756 -645 782 -653Q792 -654 808 -660Q832 -671 843 -671H846Q838 -665 831 -659Q824 -654 823 -642V-640H828Q851 -643 873 -646H879Q875 -641 862 -638Q843 -634 841 -624Q844 -617 850 -617Q860 -619 870 -621Q874 -621 876 -620Q874 -617 867 -613Q860 -609 858 -603V-599Q858 -581 881 -567Q874 -560 874 -544V-531Q874 -520 872 -515Q870 -509 859 -499Q848 -489 847 -480Q733 -470 623 -450Q550 -438 526 -429Q497 -419 483 -389Q496 -397 504 -397Q509 -397 514 -392Q559 -401 604 -410Q627 -413 649 -417Q660 -420 670 -426Q680 -431 692 -432L736 -443L737 -441Q737 -440 734 -437Q730 -434 730 -431L731 -428Q760 -435 776 -443Q775 -439 765 -433Q749 -423 749 -415Q749 -411 752 -407H755Q765 -410 775 -413V-412Q775 -409 771 -405Q766 -400 766 -395V-392L768 -390Q772 -391 775 -393H776Q771 -388 771 -381Q776 -367 780 -353V-351Q777 -339 774 -327Q774 -322 775 -320Q756 -305 701 -295Q662 -288 649 -281Q656 -269 662 -257L663 -253Q662 -247 660 -242L662 -239Q702 -247 742 -264H744Q747 -264 749 -257Q756 -257 761 -271Q765 -282 770 -282L773 -281L774 -279Q772 -272 770 -265V-263Q774 -254 783 -251Q794 -254 805 -257L807 -254Q804 -247 801 -240L802 -237L805 -236Q809 -236 812 -237H814Q813 -235 813 -230Q813 -215 823 -207Q822 -204 822 -197Q824 -182 825 -168Q797 -154 792 -137Q772 -139 763 -139Q736 -139 684 -131Q647 -125 641 -122Q631 -114 630 -99Q629 -84 626 -69Q723 -77 820 -85H834Q845 -88 849 -102Q851 -107 853 -129Q857 -125 860 -112Q864 -94 875 -92H877Q885 -95 893 -98Q900 -79 926 -79Q935 -79 939 -80V-79Q937 -74 934 -70V-68Q942 -64 949 -60Z"/>
</svg>