<svg xmlns="http://www.w3.org/2000/svg" viewBox="0 -800 1024 1024">
	<path fill="#000000" d="M390 17Q379 19 368 20Q361 20 355 17Q356 6 367 6Q381 6 390 17ZM409 -307V-311L410 -313H412Q409 -316 409 -326V-343Q409 -353 406 -355Q393 -344 360 -333Q334 -324 325 -319V-317Q322 -311 319 -306V-304Q332 -305 352 -317Q372 -329 383 -329Q388 -329 390 -328Q389 -325 387 -323V-322Q393 -323 399 -325H403Q400 -322 400 -319Q400 -309 409 -307ZM406 -414Q401 -445 393 -463Q351 -442 304 -423Q305 -418 310 -411Q323 -412 343 -424Q363 -435 379 -436Q387 -420 406 -414ZM301 -205V-193Q352 -209 403 -226Q402 -228 402 -231Q404 -240 406 -249Q406 -252 403 -255Q389 -247 355 -232Q318 -216 301 -205ZM614 -221V-219Q616 -216 618 -213L617 -211Q748 -240 773 -246Q754 -260 728 -265Q702 -271 677 -276Q664 -279 632 -295V-292Q632 -280 623 -263Q615 -248 615 -239Q615 -237 617 -229V-228Q616 -224 614 -221ZM584 109H581Q570 106 558 103Q550 93 532 77Q508 56 499 42Q479 39 459 36Q430 31 424 24Q430 24 436 23Q461 25 486 27Q495 27 499 26Q485 23 400 18Q407 9 431 9Q447 10 462 10Q469 10 481 8Q478 6 470 6H454Q447 6 444 5Q448 -2 458 -2Q468 -2 478 -3Q515 -12 524 -49Q525 -53 525 -60Q525 -69 524 -79Q524 -95 530 -102V-107Q534 -160 537 -214Q537 -232 534 -250Q535 -253 535 -258Q533 -271 531 -284Q531 -288 534 -293Q528 -305 528 -315Q528 -326 533 -344Q539 -364 539 -372Q544 -371 548 -363Q551 -357 554 -355Q558 -361 558 -366V-369Q565 -362 583 -362Q591 -362 598 -363Q598 -372 597 -381Q597 -397 600 -406Q626 -427 638 -461Q650 -495 662 -529V-543Q665 -548 668 -553H665Q652 -552 643 -542Q634 -532 623 -525Q624 -522 624 -520Q624 -518 622 -516Q607 -516 602 -507H567Q563 -513 546 -519Q536 -527 535 -540Q533 -552 530 -566Q528 -576 516 -591Q505 -604 504 -612Q503 -616 503 -623Q504 -639 511 -648Q517 -657 524 -667Q520 -676 515 -684Q510 -692 510 -704V-709Q522 -693 549 -678H575Q625 -708 668 -745Q683 -747 699 -767Q715 -786 728 -786H732Q735 -785 738 -785Q745 -785 752 -786Q760 -786 763 -783Q766 -787 771 -789H773Q778 -783 779 -773H781Q789 -771 797 -770H801Q807 -772 812 -782Q818 -793 825 -795Q825 -787 820 -774Q815 -760 815 -752Q815 -747 816 -744Q820 -733 833 -733Q841 -733 849 -734Q854 -734 856 -733Q854 -730 846 -724Q837 -718 835 -711L838 -709H841L844 -708V-692Q844 -673 850 -667Q846 -641 830 -627Q814 -613 803 -594L806 -592H811L813 -591Q801 -573 785 -558Q752 -500 721 -388Q749 -370 782 -355Q789 -347 811 -338Q836 -327 844 -316Q853 -314 865 -307Q877 -300 884 -298Q891 -286 915 -272Q935 -260 943 -250Q943 -239 950 -214Q956 -193 956 -181Q956 -174 955 -171Q951 -154 936 -145Q920 -137 901 -137Q892 -137 888 -138Q847 -140 806 -143Q786 -143 776 -141Q697 -129 623 -111Q620 -84 620 -78Q620 -66 623 -61Q620 -52 620 -34Q624 6 628 46Q628 64 623 75Q602 91 584 109ZM393 -116V-118Q302 -74 210 -31H206Q187 -31 165 -8Q145 13 129 13Q123 13 119 12Q107 7 98 -4Q82 -13 65 -22Q62 -32 62 -47Q62 -59 65 -64Q64 -71 54 -85Q54 -90 53 -96Q53 -114 60 -126Q67 -138 74 -151Q77 -164 80 -178Q83 -181 86 -184Q89 -202 95 -220H107Q103 -198 98 -176Q98 -169 101 -163H100Q98 -163 98 -159V-148Q103 -139 115 -139Q118 -139 126 -141Q162 -150 198 -160Q222 -169 230 -169V-170L233 -172Q229 -194 227 -251Q224 -323 215 -351Q206 -360 197 -369Q187 -363 174 -363Q146 -363 138 -387Q119 -388 107 -401Q96 -413 96 -432Q96 -446 101 -456Q92 -469 92 -485V-489Q77 -500 76 -501Q69 -508 68 -519Q88 -512 96 -504Q99 -505 101 -507Q86 -523 68 -537Q49 -552 43 -574Q56 -569 73 -552Q93 -531 110 -528Q107 -535 94 -544Q79 -554 78 -563H82Q90 -563 103 -556Q114 -550 119 -549Q126 -552 131 -557Q135 -563 139 -568Q179 -574 240 -598Q291 -605 328 -622Q344 -623 367 -632Q390 -641 403 -642Q407 -649 427 -656Q444 -662 450 -669H462V-654Q472 -655 484 -663Q495 -671 502 -672Q490 -654 478 -637Q480 -635 481 -634L483 -633Q488 -636 493 -639Q494 -639 498 -637V-634Q496 -629 493 -624Q501 -603 518 -580Q520 -556 522 -532Q522 -500 490 -489Q490 -477 503 -460Q519 -438 519 -422Q519 -418 518 -415Q517 -405 505 -385Q489 -358 487 -343Q484 -324 484 -276V-191Q484 -128 498 -100Q493 -95 478 -64Q467 -41 449 -37Q447 -37 445 -32Q444 -29 441 -28Q430 -52 409 -52Q404 -61 398 -70Q392 -79 379 -81Q380 -85 386 -95Q393 -106 393 -116Z"/>
</svg>