<svg xmlns="http://www.w3.org/2000/svg" viewBox="0 -800 1024 1024">
	<path fill="#000000" d="M744 -576L740 -575H732Q732 -580 737 -580Q743 -582 744 -576ZM937 -385Q937 -364 927 -360Q923 -365 923 -376Q923 -388 930 -388Q933 -388 937 -385ZM474 -50V-48Q474 -35 496 -35Q494 -43 474 -50ZM755 -263Q753 -271 743 -283Q742 -275 741 -267Q741 -263 743 -259Q749 -261 755 -263ZM349 -190Q341 -192 337 -192Q313 -192 313 -164Q313 -152 320 -136Q329 -145 339 -154Q349 -164 350 -181Q350 -187 349 -190ZM271 -235Q270 -242 270 -256Q271 -289 272 -323Q272 -338 271 -345Q241 -320 240 -276Q240 -245 256 -226Q264 -230 271 -235ZM441 -169Q440 -173 433 -189Q425 -207 425 -217Q425 -228 434 -236Q423 -250 411 -265Q407 -254 402 -226Q396 -191 389 -178Q379 -185 369 -190Q367 -190 364 -187Q371 -176 395 -166Q410 -186 426 -202L427 -198Q427 -193 420 -182Q413 -171 413 -165Q413 -159 419 -153Q429 -162 441 -169ZM323 -260Q334 -263 336 -273Q338 -282 339 -292Q348 -356 357 -421Q356 -422 354 -424Q320 -407 320 -324Q320 -317 323 -260ZM548 -50Q517 -74 511 -81Q491 -102 491 -127Q491 -132 493 -144Q516 -149 570 -181Q567 -212 559 -241Q535 -215 518 -184Q501 -153 468 -139Q459 -149 453 -160Q441 -155 441 -140Q442 -120 459 -116Q468 -119 477 -122Q481 -122 484 -118Q471 -113 461 -98Q465 -80 469 -63Q478 -61 495 -54Q518 -44 531 -44Q541 -44 546 -46Q547 -48 548 -50ZM721 -320H723Q716 -329 705 -350Q690 -379 679 -389Q639 -378 621 -344Q603 -310 585 -276H598Q612 -276 613 -268Q617 -270 620 -270Q624 -270 637 -262Q635 -244 632 -227Q632 -217 635 -211Q653 -223 675 -233Q673 -260 668 -270H666Q662 -270 658 -265Q655 -261 653 -261L651 -262Q657 -280 667 -294Q676 -308 685 -322Q688 -323 694 -323Q708 -321 721 -320ZM434 -370Q435 -368 435 -365Q431 -349 423 -334Q421 -302 413 -274Q420 -270 446 -259Q503 -291 548 -349Q539 -348 527 -343Q515 -337 508 -337V-346Q488 -358 488 -394Q488 -420 499 -460Q491 -470 485 -473Q485 -470 487 -466Q476 -451 464 -436Q458 -422 452 -407Q446 -392 435 -383ZM698 -644Q674 -635 650 -627Q654 -620 657 -613Q652 -610 647 -607V-604Q648 -598 649 -592Q656 -595 663 -602Q669 -608 680 -609Q682 -609 690 -607Q700 -616 706 -630Q701 -637 698 -644ZM858 -582Q868 -582 878 -583Q868 -578 857 -574Q857 -570 857 -567Q857 -562 860 -558Q858 -555 856 -545Q854 -535 850 -531Q849 -529 847 -528H849Q854 -528 858 -529H862Q850 -523 850 -510Q850 -493 865 -489Q861 -482 861 -474Q861 -465 876 -440Q872 -435 865 -435Q856 -435 847 -436Q795 -434 768 -411Q778 -389 794 -371Q810 -354 826 -337Q839 -321 839 -314L838 -310L853 -302Q883 -282 909 -260Q912 -266 912 -272Q911 -284 909 -296Q909 -299 911 -305Q916 -302 918 -284Q920 -269 924 -263Q927 -270 927 -280Q925 -302 922 -325Q922 -346 928 -351Q931 -312 951 -242Q967 -189 971 -154Q966 -149 956 -133H954Q942 -132 932 -124Q922 -116 912 -110Q908 -114 894 -114Q884 -114 878 -116Q844 -127 826 -155Q808 -183 791 -211Q796 -179 800 -148Q793 -138 774 -136V-139Q771 -134 767 -130Q761 -121 754 -114Q748 -108 747 -91V-72Q747 -41 759 15Q771 71 771 95V108Q765 114 758 117Q754 119 752 119Q750 120 745 120Q738 120 735 119Q732 119 726 117Q715 113 703 106Q689 87 681 60Q673 34 665 6Q672 -12 679 -75Q649 -68 644 -64Q633 -56 629 -27Q626 -6 622 2L619 14Q621 22 621 26Q618 49 615 72Q615 79 616 83Q598 86 588 94Q586 90 575 90H568Q567 88 567 80Q553 77 544 69Q534 61 523 54V48Q523 21 508 14Q510 2 514 -7Q505 -15 479 -29Q468 -20 458 -11Q448 -1 446 16Q442 4 430 0Q418 -4 405 -7H404Q401 -7 401 -3Q400 3 397 3L304 -6H302Q274 1 250 14L235 22Q232 28 224 32Q217 36 210 40Q185 58 170 91Q145 84 128 68Q112 51 95 34Q65 29 52 17Q52 14 51 10Q51 1 61 -13Q69 -24 69 -33V-34Q68 -42 56 -53Q42 -66 41 -79H42Q47 -79 71 -52L74 -50Q66 -66 65 -67Q71 -67 83 -57Q95 -47 105 -47Q112 -47 124 -54Q136 -61 142 -61Q146 -61 148 -60Q205 -81 261 -103Q259 -107 259 -110Q261 -121 263 -133Q263 -136 262 -139Q255 -138 248 -132Q241 -126 235 -121H231Q215 -121 200 -137Q186 -152 173 -153L176 -166Q171 -187 160 -203Q156 -209 134 -233Q121 -246 121 -253V-256L108 -263Q86 -277 61 -292Q35 -306 29 -334V-341Q29 -356 38 -382Q47 -408 47 -419Q47 -432 40 -443Q46 -436 51 -427Q55 -419 68 -418Q51 -445 44 -479Q52 -472 62 -456Q75 -436 84 -429Q82 -436 77 -445Q72 -454 71 -466Q77 -462 85 -451Q94 -438 101 -434Q104 -435 110 -435Q132 -434 146 -420Q159 -406 173 -394Q181 -399 193 -401Q198 -405 201 -410Q203 -416 211 -416Q215 -416 217 -415L229 -421Q235 -439 248 -450Q261 -460 275 -470Q265 -577 265 -598H261Q256 -598 253 -592Q250 -587 247 -586V-589Q249 -599 253 -605Q243 -604 237 -595Q235 -593 228 -578Q233 -645 278 -677Q281 -675 286 -675Q293 -675 300 -676H303Q323 -670 338 -646Q353 -623 363 -605Q353 -599 353 -586Q353 -579 358 -578Q358 -570 353 -560Q348 -548 348 -540Q349 -536 349 -533Q356 -547 366 -561Q375 -575 397 -577Q399 -577 429 -572Q433 -572 434 -576Q435 -580 440 -581H443V-578Q442 -571 441 -564Q444 -561 446 -561Q450 -562 453 -564Q456 -549 469 -523Q483 -496 485 -476H488Q497 -474 506 -473Q529 -477 552 -481Q561 -481 565 -476L577 -481Q579 -495 599 -499Q629 -504 632 -506Q635 -513 635 -520Q635 -538 623 -548H621Q613 -545 607 -538Q611 -548 614 -558Q597 -565 580 -586Q568 -584 548 -572H540Q539 -569 532 -564Q524 -558 524 -551V-550H516Q489 -551 475 -567Q461 -583 443 -595V-601Q443 -618 459 -634Q455 -646 455 -650Q455 -666 468 -678Q479 -689 496 -692Q498 -680 499 -679Q502 -674 508 -673H511Q525 -673 525 -700Q525 -720 529 -724Q527 -734 525 -745Q525 -749 526 -751Q532 -750 533 -741Q535 -731 540 -731L542 -734Q541 -738 539 -743L540 -745Q550 -739 557 -730L558 -732V-736Q578 -725 598 -707Q606 -709 609 -709Q611 -709 739 -737Q743 -749 743 -758V-763Q731 -761 727 -753Q723 -745 717 -739Q717 -768 734 -794Q752 -821 777 -821H782Q803 -821 824 -801Q845 -781 843 -763L842 -756Q869 -765 884 -766Q881 -761 867 -757Q850 -752 850 -745V-742H851Q853 -742 856 -745Q860 -749 863 -749Q866 -749 868 -748L870 -746Q870 -745 865 -742Q859 -738 859 -736Q861 -729 869 -729Q875 -729 881 -730Q877 -724 877 -720Q877 -714 884 -713Q872 -701 872 -688Q872 -682 875 -679Q869 -679 865 -670Q862 -663 857 -662Q859 -658 859 -655V-652Q848 -649 836 -647Q831 -647 828 -650L816 -646Q782 -638 759 -623Q764 -621 769 -623Q783 -626 796 -629H798Q829 -634 841 -613Q844 -617 849 -620V-619Q848 -612 846 -605V-604Q850 -589 859 -586ZM764 -552Q770 -560 772 -565Q769 -570 766 -576V-578Q761 -581 754 -580Q759 -584 763 -589Q760 -596 757 -604Q764 -606 765 -613Q762 -618 756 -620Q743 -607 743 -587Q740 -586 736 -586Q729 -586 720 -593Q712 -599 705 -599Q708 -593 719 -584Q732 -573 736 -567Q734 -556 732 -545V-542Q750 -547 764 -552Z"/>
</svg>