<svg xmlns="http://www.w3.org/2000/svg" viewBox="0 -800 1024 1024">
	<path fill="#000000" d="M795 -532Q794 -527 789 -524Q783 -521 779 -518Q777 -522 777 -523Q780 -532 790 -533Q793 -533 795 -532ZM806 -188Q804 -176 801 -164Q797 -170 797 -179Q797 -188 803 -188ZM552 -483Q562 -485 589 -490Q683 -506 719 -518Q721 -512 726 -507Q747 -513 767 -516H768Q762 -511 755 -506Q748 -501 745 -493Q755 -488 774 -488Q792 -489 810 -490Q797 -484 784 -478Q771 -472 764 -460Q768 -458 770 -458Q780 -461 790 -464H793Q787 -458 777 -453Q768 -447 767 -437Q767 -433 768 -431Q769 -427 779 -427H789Q794 -427 796 -426Q792 -422 781 -418Q768 -413 764 -408Q758 -388 750 -382Q739 -376 720 -375Q700 -374 683 -373Q649 -370 580 -352Q528 -338 502 -334Q486 -333 472 -329Q428 -317 414 -314Q416 -293 427 -288Q424 -279 421 -270Q432 -266 443 -266Q469 -269 495 -273H496L534 -287Q537 -296 545 -300Q554 -304 563 -307Q598 -320 633 -334Q662 -350 674 -350Q682 -350 689 -342Q695 -346 700 -350L702 -349Q703 -348 704 -340Q705 -333 711 -332Q716 -334 725 -341Q733 -348 741 -350V-349Q741 -346 735 -343Q731 -341 728 -338Q716 -324 716 -314H717Q727 -314 734 -318Q740 -322 748 -325Q743 -317 736 -310Q729 -303 728 -293Q728 -288 729 -286L731 -285L734 -286L737 -284Q735 -278 735 -269Q735 -262 736 -257Q721 -254 713 -245Q705 -237 697 -228V-219Q685 -210 676 -179Q670 -157 663 -148L659 -133Q654 -95 644 -64Q632 -60 619 -60Q601 -61 587 -70Q573 -79 558 -86Q557 -99 549 -105Q540 -112 533 -119Q543 -117 550 -113Q548 -125 534 -133Q520 -140 512 -148Q518 -148 530 -142Q541 -137 548 -137L552 -138Q564 -148 571 -164Q577 -179 584 -193Q572 -192 561 -186Q549 -180 538 -175Q509 -163 496 -144Q501 -124 505 -119Q502 -113 498 -107Q498 -105 500 -103H498Q494 -101 490 -100Q479 -92 468 -62Q462 -50 462 -37V-33Q469 -17 534 -17H537Q609 -19 746 -40Q748 -42 758 -54H759Q762 -54 763 -51Q763 -49 766 -49Q772 -57 777 -84Q780 -103 785 -113H786Q789 -113 789 -110Q789 -105 788 -101Q788 -90 787 -79Q787 -64 792 -58Q796 -73 797 -109Q798 -144 801 -158Q803 -148 803 -115Q803 -75 809 -58Q812 -60 812 -68V-80Q812 -91 818 -92Q816 -87 816 -77Q816 -68 829 -32Q835 -2 845 28Q840 43 817 64Q811 65 738 68Q720 71 719 71Q712 72 708 70L696 73Q654 78 610 78Q572 78 549 74L522 72Q520 75 507 76Q495 77 492 80Q470 75 447 70Q415 63 410 60Q403 56 393 44Q383 32 375 28Q379 24 379 20Q376 9 372 -3Q374 -8 375 -14V-27Q376 -54 383 -76Q390 -98 396 -121Q394 -128 392 -129Q395 -136 400 -141Q391 -150 382 -160V-162Q382 -170 374 -180Q366 -190 366 -197Q353 -185 344 -169Q334 -153 324 -138Q299 -104 284 -74Q266 -42 252 -14Q237 14 229 54Q221 55 209 61Q199 53 178 53Q173 53 171 54Q166 56 161 58H160L159 55Q161 52 162 49L161 47Q159 40 147 34Q133 27 131 16V14Q132 5 133 -5V-7Q131 -13 129 -20Q132 -27 135 -35V-39Q135 -54 133 -59Q125 -66 121 -77Q121 -79 125 -82Q129 -78 133 -70Q139 -58 145 -54Q143 -64 132 -87Q120 -112 119 -127Q128 -121 131 -111Q135 -102 140 -93Q149 -76 163 -64Q168 -66 177 -76Q187 -87 197 -89L210 -107Q218 -129 232 -148Q246 -167 262 -189Q277 -214 290 -230Q304 -247 305 -249Q314 -262 314 -271Q314 -278 308 -284H306Q297 -284 287 -273Q279 -264 272 -264Q234 -263 222 -295Q221 -298 221 -304Q222 -312 222 -321Q222 -326 221 -328Q218 -345 200 -355Q200 -358 203 -359Q207 -361 208 -362Q205 -372 192 -383Q179 -393 177 -402Q183 -401 191 -395Q202 -388 209 -386Q207 -395 190 -405Q173 -415 169 -424Q175 -423 190 -414Q211 -402 224 -402H226Q227 -405 227 -407Q227 -413 217 -418Q207 -423 206 -428H207Q221 -425 235 -423H239Q244 -425 249 -428Q257 -426 272 -426Q296 -426 332 -435Q368 -444 385 -444L394 -445L464 -459Q488 -470 531 -479Q529 -488 522 -494H520Q513 -493 508 -487Q502 -481 496 -476Q504 -511 521 -541Q488 -542 459 -533Q431 -524 396 -516Q387 -514 378 -513Q376 -501 376 -494Q376 -488 378 -470Q369 -461 368 -453H361Q344 -452 326 -452H317Q308 -455 299 -470Q292 -481 287 -485H282Q269 -483 255 -481Q253 -481 250 -482H246Q234 -472 201 -460Q178 -452 169 -447Q148 -450 123 -475Q105 -492 93 -498Q92 -502 92 -510Q92 -529 105 -564V-566Q106 -591 125 -606Q144 -621 163 -635Q160 -629 160 -626L161 -624Q166 -619 180 -619Q201 -621 221 -623H224Q231 -660 259 -676Q287 -693 311 -713Q315 -702 320 -697H321Q326 -700 328 -704L329 -703Q347 -695 359 -680Q370 -666 384 -653Q403 -655 430 -665Q452 -674 467 -675L563 -704Q573 -734 593 -752Q612 -771 649 -771H659Q668 -766 676 -761Q685 -755 688 -746L699 -734Q700 -719 705 -708Q711 -698 715 -687Q753 -698 831 -718Q832 -704 844 -704Q852 -704 871 -712Q890 -720 897 -720H900Q889 -714 877 -708Q866 -702 859 -690Q862 -687 865 -687Q873 -691 888 -695H891Q886 -691 879 -687Q872 -682 871 -675Q871 -672 874 -668L878 -666Q883 -667 888 -669Q878 -659 873 -626Q867 -590 856 -581Q848 -581 839 -582Q813 -579 787 -577Q780 -577 777 -578H762Q761 -573 756 -573Q754 -573 751 -574L747 -573Q738 -572 691 -555Q649 -543 608 -531Q568 -519 552 -483Z"/>
</svg>