<svg xmlns="http://www.w3.org/2000/svg" viewBox="0 -800 1024 1024">
	<path fill="#000000" d="M626 -95V-91Q621 -63 594 -59Q565 -54 537 -52Q533 -53 528 -55Q508 -46 498 -28Q488 -10 475 3Q475 -11 489 -32Q502 -52 504 -66Q503 -72 495 -77H494Q491 -77 487 -72Q485 -69 483 -69L479 -70Q484 -82 484 -89Q484 -114 456 -144L460 -142Q464 -142 465 -145Q467 -148 470 -151V-152Q468 -156 466 -160L468 -163Q509 -181 558 -191Q575 -176 604 -161Q609 -144 617 -129Q625 -114 626 -95ZM597 -378Q597 -386 604 -389Q605 -390 617 -393Q645 -406 662 -407Q665 -411 665 -417Q658 -443 647 -467V-474Q648 -491 660 -501Q672 -511 681 -518Q688 -526 694 -534Q700 -542 708 -545Q719 -548 734 -548Q777 -548 790 -536Q797 -530 799 -498Q802 -464 810 -458Q821 -463 839 -467Q870 -475 882 -482Q888 -482 888 -477V-475Q893 -477 901 -484Q912 -494 922 -494Q918 -484 911 -477Q904 -470 903 -457V-454H907Q913 -455 915 -459Q918 -464 924 -465Q918 -455 918 -439Q918 -429 925 -429Q928 -429 930 -430Q927 -422 927 -415Q927 -407 931 -404Q925 -393 925 -366Q906 -345 891 -320H881Q822 -320 788 -298Q786 -284 784 -235Q783 -194 779 -174L783 -101Q790 -66 797 -19Q801 -10 804 -2Q801 8 798 17Q798 24 797 30Q798 40 798 50Q798 63 794 71Q790 79 767 94Q760 101 752 108Q744 115 734 116Q731 116 725 114Q720 112 712 101Q705 92 702 89Q689 80 675 70Q657 52 639 34Q620 24 603 12Q609 11 627 11Q635 11 639 10Q620 -3 574 -17Q539 -28 529 -33Q547 -33 578 -26Q616 -18 644 -18Q628 -27 611 -33Q616 -37 625 -37Q634 -36 642 -36Q650 -36 654 -39Q664 -53 666 -72Q667 -91 669 -112Q672 -129 675 -146Q676 -187 679 -227Q681 -241 681 -248Q681 -266 679 -270Q594 -247 559 -226Q542 -213 526 -204Q523 -203 516 -203Q478 -203 460 -237Q435 -244 435 -266Q435 -278 447 -309Q459 -340 460 -354Q474 -365 485 -378Q496 -391 515 -395L516 -393Q513 -388 509 -380V-379Q512 -382 513 -382Q523 -377 533 -372H537Q551 -374 564 -377Q570 -377 573 -375ZM277 50Q263 64 246 74Q236 88 232 91Q223 99 210 99H202Q190 90 181 78Q170 76 162 76Q153 76 146 69Q138 59 138 42Q138 26 146 16Q138 5 138 -4Q138 -15 141 -23Q148 -43 158 -55Q180 -79 190 -80Q183 -69 181 -55Q181 -54 183 -46Q188 -42 195 -42Q197 -42 207 -44Q221 -47 235 -51Q262 -61 293 -75Q340 -97 384 -125Q416 -132 448 -140Q444 -132 442 -123L444 -121Q448 -123 451 -125L453 -123L454 -121Q454 -117 449 -110Q453 -106 456 -102Q447 -90 446 -72L448 -71L452 -70Q439 -50 439 -29V-26Q400 -16 363 5Q327 27 295 45ZM370 -462L371 -460Q377 -453 381 -424Q388 -405 390 -393Q387 -382 384 -372V-368Q350 -364 328 -347Q315 -340 300 -340Q284 -340 275 -323Q278 -321 286 -321Q311 -321 344 -332Q342 -326 340 -320Q346 -296 348 -273Q344 -263 320 -248Q290 -230 286 -215Q330 -240 339 -243Q355 -259 369 -260Q369 -273 373 -275Q376 -274 376 -267Q376 -262 378 -260Q384 -258 387 -258Q388 -258 394 -260L397 -256Q407 -245 416 -234Q419 -227 424 -214Q428 -183 428 -176V-174Q418 -165 410 -152Q405 -154 395 -148Q387 -143 384 -143Q361 -143 329 -137L319 -131Q310 -118 279 -105Q245 -90 237 -77Q223 -76 209 -75Q200 -84 189 -103Q179 -122 169 -128Q195 -191 241 -256Q192 -246 183 -211H179Q157 -211 148 -223Q138 -234 128 -253Q125 -258 118 -259Q113 -260 112 -264Q108 -272 108 -301Q109 -304 109 -307Q111 -315 120 -322Q130 -330 137 -337Q166 -369 171 -373Q190 -390 208 -390H210L248 -411Q253 -427 262 -436Q273 -447 278 -458Q276 -464 272 -465Q288 -470 300 -477Q312 -483 328 -484Q337 -484 346 -479Q351 -476 355 -474Q345 -496 331 -510Q290 -506 269 -497L268 -500L252 -496Q207 -489 157 -449Q131 -455 120 -473Q109 -491 91 -506Q89 -513 89 -526Q89 -542 99 -561Q107 -576 109 -587Q123 -608 156 -608Q171 -611 189 -609Q197 -605 217 -605Q240 -607 274 -615Q273 -618 273 -624Q273 -638 287 -658Q304 -683 304 -700Q307 -696 308 -691Q310 -685 316 -685H318Q319 -688 319 -695V-716Q322 -714 327 -705Q332 -696 337 -694Q340 -695 340 -699Q340 -701 337 -710Q349 -706 356 -700Q366 -702 370 -702Q394 -702 412 -680Q423 -667 436 -637Q480 -642 517 -651Q578 -666 578 -683Q582 -687 583 -689Q564 -709 563 -741Q568 -748 576 -752Q584 -755 592 -761Q603 -774 616 -781Q618 -782 628 -782Q639 -781 649 -781Q668 -777 695 -752Q712 -751 720 -749Q731 -746 738 -738V-734Q736 -722 733 -711Q733 -705 734 -702Q760 -713 785 -724Q809 -736 843 -739V-737Q843 -733 842 -730L843 -728H846Q853 -728 866 -734Q881 -741 890 -741Q896 -741 899 -740Q857 -727 857 -708V-707H858Q869 -710 879 -713Q878 -711 870 -705Q857 -696 857 -688Q857 -683 860 -679Q862 -680 879 -692Q877 -687 868 -679Q858 -670 858 -665V-662Q860 -660 862 -660Q867 -661 871 -663Q863 -660 863 -644Q864 -638 864 -632Q864 -623 861 -616H858Q839 -616 839 -599V-594H836Q814 -592 792 -590Q783 -590 775 -593L766 -590Q761 -584 752 -584Q745 -584 738 -585Q676 -579 654 -562Q644 -554 622 -522Q586 -470 572 -463Q560 -471 539 -471Q523 -470 507 -469L505 -471Q506 -474 507 -477V-478Q506 -479 502 -479Q494 -477 486 -475H484V-476Q484 -482 507 -510Q540 -551 540 -561V-564Q487 -547 454 -539Q455 -535 455 -531Q454 -512 446 -492Q437 -473 431 -457H421Q400 -457 370 -462Z"/>
</svg>