<svg xmlns="http://www.w3.org/2000/svg" viewBox="0 -800 1024 1024">
	<path fill="#000000" d="M790 -25H795Q814 -28 819 -44Q825 -59 830 -78Q835 -76 836 -61Q837 -49 841 -45Q843 -54 843 -78Q843 -97 841 -127Q840 -135 839 -144Q839 -152 844 -156Q853 -98 862 -40Q865 -46 865 -53Q862 -75 859 -97V-126Q865 -114 870 -86Q877 -46 888 -34Q895 -36 895 -37Q916 -18 934 7Q959 42 959 67Q959 85 947 97Q942 102 927 108Q911 115 904 122Q892 120 885 120Q879 120 871 122Q670 57 520 38Q454 28 380 20Q365 19 334 19Q278 19 234 23Q194 27 146 47Q138 45 129 43Q126 43 124 44Q120 33 100 20Q75 4 75 -14V-18Q75 -22 70 -23Q65 -24 65 -27Q82 -36 94 -49Q116 -55 148 -57Q182 -60 211 -71Q241 -82 267 -93Q217 -99 178 -163Q168 -160 155 -149Q134 -132 121 -132Q114 -132 111 -133Q100 -137 76 -152Q55 -165 46 -169Q46 -187 52 -199Q42 -213 42 -226Q42 -257 83 -280H96Q143 -281 175 -296Q206 -311 238 -324Q259 -321 270 -313Q282 -319 293 -325Q290 -314 287 -303V-301L290 -300Q294 -302 297 -304H299Q295 -299 295 -292Q295 -286 304 -276Q311 -268 312 -262Q313 -258 313 -255Q313 -241 296 -212Q281 -188 281 -177Q300 -163 328 -146Q356 -128 359 -98V-93Q360 -87 361 -81Q358 -74 351 -71Q344 -68 337 -63Q487 -49 568 -49H582Q574 -72 543 -78Q506 -85 482 -94Q487 -95 497 -95Q523 -93 548 -92Q561 -92 567 -94Q541 -104 508 -106Q474 -108 443 -112Q463 -117 499 -117H568Q558 -123 543 -124Q528 -126 515 -129Q552 -136 579 -147Q603 -203 605 -310H599Q579 -309 569 -295Q558 -281 554 -260Q547 -215 537 -181Q532 -180 522 -169Q512 -159 505 -157Q492 -154 481 -154Q469 -154 460 -144Q450 -148 443 -155Q435 -162 422 -163Q424 -168 426 -174V-177Q423 -179 418 -179Q404 -174 389 -170L385 -171Q387 -178 398 -183Q408 -188 416 -193Q415 -200 408 -202Q432 -233 437 -265Q434 -265 392 -252Q383 -248 374 -244Q344 -256 324 -283Q323 -286 323 -294Q323 -312 330 -318L323 -339Q337 -381 388 -397L389 -395Q389 -394 385 -391Q379 -386 379 -382V-381Q382 -376 385 -372Q423 -378 460 -384Q462 -389 463 -394Q457 -399 434 -399Q423 -409 416 -426Q400 -427 391 -437Q382 -447 382 -462Q382 -479 392 -493Q387 -503 387 -510Q388 -527 403 -540Q418 -552 431 -562Q432 -560 432 -556Q430 -548 428 -541L431 -539Q438 -541 445 -544H448Q444 -547 431 -570Q421 -586 407 -588Q405 -604 405 -613Q405 -640 417 -645Q416 -651 414 -657Q420 -656 426 -655Q429 -655 432 -658Q426 -679 423 -700V-702Q429 -690 436 -680Q442 -670 454 -666Q472 -677 484 -692Q487 -687 487 -670Q497 -664 506 -664Q514 -664 518 -669Q519 -661 524 -657Q529 -654 533 -649Q532 -646 532 -640Q532 -629 538 -622Q548 -628 558 -631H561L562 -630Q557 -624 552 -618Q548 -610 548 -597Q548 -585 553 -565Q589 -575 595 -576Q672 -689 693 -727Q689 -730 684 -730Q677 -730 665 -720Q657 -713 653 -712Q665 -744 696 -770Q731 -799 767 -799H770Q783 -799 787 -790Q791 -782 795 -771Q798 -764 811 -753Q831 -735 832 -723Q829 -710 826 -697Q824 -683 821 -669Q816 -658 789 -637Q759 -614 753 -597Q770 -598 780 -604L782 -602Q781 -598 779 -595Q786 -591 793 -591Q815 -595 836 -599Q840 -598 844 -598Q831 -593 819 -587Q806 -582 799 -570Q802 -566 807 -566Q817 -567 826 -569L832 -568H829Q822 -568 815 -561Q807 -553 807 -547Q807 -539 820 -538Q813 -532 806 -527Q799 -521 798 -511Q798 -507 799 -504Q791 -504 781 -498Q779 -490 779 -489Q780 -485 780 -481Q753 -479 725 -475V-473Q728 -467 731 -462Q725 -460 725 -450Q725 -448 727 -444Q715 -438 710 -426Q733 -433 832 -447Q843 -435 855 -435Q862 -435 872 -438Q863 -429 863 -419Q863 -412 868 -408Q875 -408 882 -409Q886 -409 888 -408Q887 -405 879 -404Q872 -403 871 -399V-396Q871 -393 876 -390Q880 -388 880 -384Q873 -378 861 -362Q844 -341 833 -333H814Q762 -333 704 -321Q698 -315 698 -298Q700 -280 701 -262Q702 -256 702 -243Q702 -220 701 -197V-186Q708 -135 711 -84Q711 -59 704 -37Q707 -38 714 -38Q727 -38 756 -31Q781 -25 790 -25ZM273 -416H269Q260 -416 230 -421Q213 -423 200 -428Q194 -432 187 -437Q172 -439 165 -449Q154 -445 142 -430Q134 -420 128 -416Q130 -428 140 -445Q148 -458 150 -466Q142 -481 131 -493Q118 -493 101 -487V-488Q102 -493 112 -501Q121 -508 129 -515Q122 -522 122 -533Q123 -540 123 -547Q123 -553 122 -556Q120 -566 99 -575Q81 -583 76 -593Q82 -595 84 -595Q91 -595 102 -588Q115 -580 122 -580H125Q129 -581 136 -588Q141 -593 144 -595Q150 -598 158 -599Q165 -601 168 -607Q170 -610 170 -617Q170 -624 169 -632Q169 -638 170 -640Q178 -621 196 -610Q198 -610 201 -616Q204 -621 208 -622V-619Q209 -608 216 -605Q224 -601 232 -598Q237 -602 245 -620Q255 -641 267 -647Q261 -623 254 -599Q257 -594 263 -594Q273 -596 282 -598Q282 -593 281 -589Q283 -562 297 -545Q312 -529 321 -508Q324 -485 326 -463Q326 -446 315 -436Q296 -424 273 -416ZM610 -405H615Q614 -425 613 -428Q610 -439 602 -439H600V-441Q602 -443 604 -446V-447Q545 -442 514 -423H518Q534 -422 546 -412Q557 -402 567 -399H571Q591 -402 610 -405ZM793 -606V-608Q795 -618 810 -620Q816 -620 820 -616Q812 -606 793 -606ZM404 -111V-113Q404 -121 413 -121Q427 -121 429 -111Q421 -110 412 -109Q408 -109 404 -111ZM122 -406Q114 -397 112 -388Q106 -389 106 -396Q106 -400 109 -403Q113 -407 117 -407Q120 -407 122 -406Z"/>
</svg>