<svg xmlns="http://www.w3.org/2000/svg" viewBox="0 -800 1024 1024">
	<path fill="#000000" d="M724 -186Q722 -181 714 -177Q706 -173 704 -170Q703 -172 703 -175Q703 -180 708 -184Q712 -187 718 -187Q722 -187 724 -186ZM114 -7H109Q92 -7 92 -13L93 -17H99Q112 -17 114 -7ZM534 -319Q512 -311 490 -302Q469 -292 460 -268Q471 -269 490 -278Q507 -286 519 -287Q527 -303 534 -319ZM241 -302Q242 -312 243 -323Q243 -329 240 -334Q224 -325 206 -315Q188 -305 186 -285Q186 -282 188 -274Q215 -296 241 -302ZM511 -157H512Q509 -143 506 -130Q506 -127 508 -121Q515 -135 526 -151Q536 -167 537 -184Q537 -197 527 -208Q524 -209 518 -209Q500 -209 479 -192Q482 -179 486 -166Q491 -153 502 -148Q503 -151 505 -154Q506 -157 511 -157ZM257 -444V-452Q260 -493 263 -535Q261 -536 259 -537Q241 -513 223 -490Q194 -451 194 -428Q194 -419 195 -415Q218 -431 241 -448Q243 -444 251 -444ZM327 -46V-31Q327 -15 332 -13Q330 -23 330 -30Q330 -51 337 -70Q342 -78 362 -94Q368 -99 374 -105Q380 -111 388 -112H389Q383 -99 376 -86Q392 -88 428 -98Q421 -111 407 -133V-138Q407 -146 402 -150Q397 -154 394 -160Q395 -161 399 -161H407Q407 -172 416 -183Q398 -191 383 -208Q371 -255 330 -270Q326 -278 321 -286Q320 -269 320 -234Q322 -138 327 -46ZM933 -712V-708Q933 -698 932 -688Q932 -681 933 -678Q937 -666 947 -654Q957 -641 958 -623Q956 -603 943 -585Q937 -577 898 -560Q877 -549 856 -535Q824 -513 797 -494Q770 -475 749 -447Q745 -451 741 -451Q733 -449 725 -447Q723 -448 723 -452Q723 -455 724 -457Q715 -463 703 -463Q692 -463 687 -457L684 -459Q686 -462 688 -466Q686 -473 676 -483H661Q647 -483 645 -477V-478Q645 -483 654 -498Q664 -514 664 -521Q664 -531 647 -534Q734 -626 755 -651Q774 -668 782 -694Q780 -696 777 -698H775Q765 -694 755 -691H752Q756 -703 768 -711Q779 -719 789 -729Q805 -746 809 -749Q820 -757 835 -757H842Q850 -753 857 -750Q868 -754 882 -754Q927 -754 933 -712ZM975 -210V-208Q975 -189 965 -180Q955 -170 941 -165Q910 -158 885 -139Q874 -125 862 -112Q841 -88 803 -38Q768 8 753 26Q741 39 721 68Q710 83 698 97Q686 91 656 90Q633 90 626 88Q619 74 615 58Q611 41 598 32Q616 16 616 -16Q616 -31 609 -45L612 -46Q615 -46 620 -39Q623 -34 624 -34Q627 -34 654 -57Q672 -70 684 -82Q726 -121 771 -162Q815 -204 844 -252Q838 -254 837 -254Q830 -254 821 -248Q813 -243 810 -243Q807 -243 805 -244Q808 -249 813 -252Q819 -255 824 -259Q838 -274 857 -292Q876 -309 898 -311Q914 -311 930 -295Q933 -296 938 -296Q966 -292 972 -268Q974 -260 974 -257Q973 -243 971 -229Q973 -219 975 -210ZM636 -58H631Q597 -58 577 -41Q573 -43 570 -43H567Q542 -37 470 -3Q439 9 432 18Q425 32 417 46Q411 48 399 48Q370 48 364 29Q362 31 360 31Q356 30 351 29H349Q340 21 332 9Q333 14 333 25Q333 86 297 111Q262 105 260 105Q251 85 223 77Q214 53 193 42Q171 31 148 21H151Q162 21 185 28Q203 34 214 35Q208 24 175 14Q132 1 123 -3H126Q142 -3 175 6Q203 14 217 14Q214 5 195 0Q177 -5 173 -13H175Q191 -9 207 -6Q211 -6 214 -7Q231 -46 232 -100Q234 -154 238 -205Q196 -196 177 -155Q185 -111 185 -88Q185 -37 155 -23Q136 -26 124 -34Q111 -42 97 -49V-51Q97 -63 90 -71Q82 -80 72 -80Q64 -80 58 -75L57 -77Q58 -82 65 -86Q72 -91 76 -94Q76 -106 61 -106Q78 -120 78 -162Q76 -200 73 -238Q63 -337 46 -421Q40 -459 29 -471V-480Q29 -530 61 -547Q58 -565 55 -583V-585H57Q62 -585 63 -581Q64 -577 69 -576H70Q75 -581 75 -587Q71 -604 66 -615Q72 -615 79 -605Q88 -593 94 -592Q95 -595 95 -602Q95 -617 78 -642Q67 -659 65 -667H67Q72 -667 75 -661Q78 -656 81 -652Q114 -610 131 -597H134Q139 -597 143 -598H145Q150 -597 155 -589Q161 -580 162 -580H163Q166 -580 176 -590Q183 -597 188 -600Q212 -618 229 -637Q241 -647 251 -657Q261 -667 266 -681Q268 -697 275 -711Q295 -735 331 -739Q344 -739 352 -732Q361 -736 371 -749Q386 -767 398 -770Q377 -741 377 -728Q377 -721 382 -711Q388 -711 392 -717Q397 -723 401 -724Q403 -722 403 -718Q400 -709 397 -700Q398 -694 406 -685Q415 -675 416 -669H424Q436 -669 456 -673Q452 -687 448 -699Q443 -711 430 -715Q436 -725 438 -736Q438 -738 436 -744Q463 -757 488 -781Q493 -782 502 -782Q527 -781 542 -766Q557 -751 574 -741Q576 -733 576 -731Q576 -729 570 -708Q585 -709 596 -714Q607 -720 620 -724Q628 -719 632 -708Q644 -706 697 -703Q696 -698 690 -697Q684 -697 679 -695Q663 -690 663 -678V-676Q664 -674 668 -674Q677 -676 686 -678H687Q670 -670 667 -655Q667 -646 681 -643Q654 -613 648 -579Q613 -574 577 -568Q545 -563 540 -531Q584 -539 618 -550L619 -548Q619 -546 614 -542Q607 -536 607 -534L608 -532Q610 -528 612 -525Q619 -528 626 -531H629Q625 -513 625 -506Q625 -495 629 -484Q625 -472 617 -462Q609 -453 602 -442Q555 -435 511 -418Q502 -415 481 -401Q461 -388 451 -387H448Q435 -388 425 -397Q414 -406 404 -414V-415Q404 -424 398 -437Q393 -448 393 -453Q393 -458 397 -465Q396 -469 389 -471Q383 -473 382 -475Q438 -499 463 -506V-531Q440 -530 417 -511Q396 -519 380 -532V-536Q380 -545 375 -556Q370 -567 370 -574V-580Q359 -569 355 -550Q352 -530 346 -514Q341 -477 332 -437Q324 -398 323 -353V-348Q326 -359 336 -363Q346 -366 355 -371L356 -375Q356 -379 351 -386Q347 -392 346 -397Q378 -377 417 -364Q443 -374 519 -397Q548 -408 577 -422Q593 -428 609 -436Q626 -443 638 -444Q652 -444 665 -435Q678 -426 682 -412Q692 -410 693 -410Q698 -410 703 -411V-410Q698 -403 692 -388Q692 -380 706 -379Q704 -371 704 -367Q704 -364 707 -346Q761 -382 823 -453V-456Q823 -486 844 -494Q846 -495 852 -495H859Q864 -495 866 -496Q876 -500 886 -505Q891 -505 895 -506Q917 -506 933 -491Q949 -476 949 -455V-453Q947 -444 944 -435V-433Q944 -426 950 -415Q954 -408 955 -403Q956 -399 956 -392Q953 -348 919 -333Q900 -329 880 -325Q817 -306 783 -255H777Q765 -256 753 -257Q744 -257 736 -253Q737 -256 737 -260Q737 -271 730 -277Q723 -283 713 -283Q702 -283 694 -274V-275Q694 -281 700 -293Q704 -301 704 -306Q704 -312 700 -316Q666 -292 658 -285Q635 -266 626 -246Q627 -236 638 -226Q647 -218 648 -210V-205Q648 -190 626 -175Q602 -159 600 -145Q616 -148 640 -156Q678 -169 694 -170Q684 -162 668 -157Q652 -153 648 -138H649Q655 -138 663 -142Q676 -148 683 -148H687Q684 -143 672 -137Q656 -129 656 -118Q658 -115 659 -115Q663 -116 667 -118L669 -117Q665 -109 660 -103Q654 -96 654 -84V-80Q652 -76 646 -71Q638 -64 636 -58Z"/>
</svg>