<svg xmlns="http://www.w3.org/2000/svg" viewBox="0 -800 1024 1024">
	<path fill="#000000" d="M79 -126H78Q70 -126 70 -142V-146H73Q79 -144 79 -132ZM885 -765Q884 -757 877 -753Q873 -751 861 -749Q862 -765 885 -765ZM919 -198Q915 -183 908 -169Q905 -173 905 -182Q905 -199 915 -199ZM495 -416H492Q491 -416 476 -413Q481 -381 486 -375Q497 -379 497 -398Q497 -406 495 -416ZM400 -356Q399 -364 390 -387Q377 -387 361 -375Q367 -356 374 -351Q381 -354 400 -356ZM569 -395V-392Q572 -395 578 -395Q582 -395 584 -393Q587 -403 600 -419Q613 -436 615 -445Q569 -437 565 -435Q566 -428 572 -426Q577 -424 581 -422Q569 -410 569 -395ZM636 -321Q614 -336 584 -336Q567 -336 556 -329Q564 -321 569 -307Q577 -310 601 -313Q625 -316 636 -321ZM877 -291H876Q875 -291 869 -295Q862 -300 856 -300H855Q848 -299 844 -290Q842 -285 839 -272Q832 -273 832 -282Q833 -291 830 -297Q803 -304 778 -333Q766 -352 762 -370V-371Q765 -381 768 -391Q768 -394 766 -398Q774 -399 786 -403Q802 -409 811 -409Q814 -409 824 -407Q833 -403 842 -395Q853 -396 863 -398Q859 -391 854 -384Q855 -379 861 -375Q868 -376 878 -382Q886 -387 891 -387H892V-384Q891 -379 883 -378Q876 -370 876 -355Q876 -345 882 -321Q874 -309 874 -302Q874 -297 877 -291ZM863 127H860Q843 125 792 103Q696 59 626 -1Q599 15 577 35Q550 10 536 10Q527 10 519 17V15Q519 12 524 6Q530 -1 531 -6Q528 -7 523 -7Q511 -6 502 4Q494 13 486 17V16Q486 5 499 -7Q514 -21 515 -33Q514 -41 513 -50V-54Q511 -60 504 -63Q508 -67 527 -82Q546 -97 556 -109Q525 -176 509 -215Q452 -208 420 -198Q425 -194 425 -180Q426 -165 430 -160L412 -130Q419 -134 426 -134Q438 -134 451 -121Q467 -105 474 -102Q482 -104 491 -111Q503 -120 510 -121Q505 -113 500 -106Q494 -98 492 -86Q501 -74 501 -46V-36Q485 -9 453 -9Q409 -9 356 -57Q338 -44 324 -26Q311 -8 296 9Q270 38 266 43Q249 65 247 85Q222 88 201 94Q155 74 137 36Q137 5 124 -9L123 -11Q126 -13 128 -15Q115 -40 102 -63Q88 -86 81 -115Q94 -93 108 -70Q121 -48 140 -31Q137 -43 125 -59Q109 -80 109 -94V-99Q136 -54 156 -42Q193 -55 217 -80Q241 -106 263 -133Q259 -139 252 -139L248 -138Q245 -145 231 -159Q211 -179 211 -194Q211 -202 215 -210Q213 -217 211 -224Q214 -243 227 -255Q247 -268 266 -282V-280Q265 -273 263 -266Q268 -260 276 -260Q280 -260 301 -266Q347 -276 466 -288Q473 -301 477 -315Q441 -314 406 -303Q391 -298 347 -279Q334 -281 312 -291Q296 -299 287 -300L286 -302Q287 -304 288 -306V-307Q280 -323 253 -339Q229 -353 221 -367Q224 -391 226 -415V-419H228Q231 -419 232 -416Q232 -413 235 -413Q245 -417 250 -432Q256 -431 268 -431Q290 -432 307 -438Q323 -444 338 -450V-451Q338 -459 331 -460Q325 -462 318 -464Q320 -466 320 -468Q318 -474 316 -480Q289 -479 256 -462Q236 -450 219 -433Q202 -416 175 -414H173Q144 -415 131 -450Q99 -461 95 -498Q95 -511 103 -522Q99 -538 99 -544Q99 -564 114 -582Q122 -591 144 -608Q160 -622 176 -636Q176 -632 169 -622Q161 -611 161 -603Q161 -599 164 -593Q191 -594 213 -603Q235 -612 263 -620Q263 -623 262 -627Q264 -640 272 -648Q267 -657 262 -664Q256 -672 256 -684Q268 -668 282 -657Q283 -659 283 -663Q283 -672 273 -685Q260 -702 260 -715V-716Q267 -712 278 -696Q291 -677 300 -675V-678Q300 -683 293 -689Q285 -697 284 -703Q289 -703 296 -697Q300 -694 304 -692H306Q310 -692 315 -699Q340 -689 366 -682Q393 -676 402 -651Q456 -669 503 -689Q501 -683 498 -677Q498 -676 500 -672L502 -671Q504 -671 507 -675Q511 -680 516 -680H519L520 -677Q517 -671 514 -666L515 -663L517 -661Q521 -661 524 -662Q542 -624 543 -602V-600Q543 -590 536 -573Q529 -556 529 -546Q458 -534 424 -510Q421 -491 418 -473Q430 -476 556 -507Q556 -539 569 -555Q561 -561 552 -568Q546 -604 540 -640Q541 -648 551 -658Q562 -669 562 -681V-684Q576 -678 590 -678Q605 -678 617 -684Q630 -705 635 -743Q635 -756 626 -758H623Q619 -758 613 -752Q607 -746 602 -746H600Q617 -773 640 -793Q671 -819 701 -819Q720 -819 727 -809Q735 -799 744 -785Q754 -773 764 -761Q774 -749 775 -728V-722Q807 -737 848 -744Q847 -740 843 -736Q839 -732 839 -729V-728Q840 -716 851 -716Q858 -716 875 -723Q894 -731 901 -731Q904 -731 908 -729Q898 -723 887 -715Q877 -708 874 -693Q877 -690 879 -687Q892 -689 900 -695Q898 -690 892 -683Q887 -677 886 -669Q886 -663 892 -659L883 -650Q885 -646 885 -639Q884 -627 875 -619Q866 -612 858 -605Q853 -606 843 -606Q824 -606 766 -594Q714 -584 692 -570Q687 -563 677 -560Q663 -543 648 -527Q677 -530 695 -551Q701 -552 712 -552Q731 -552 763 -539Q769 -540 782 -550Q794 -559 802 -559Q806 -559 808 -558Q791 -545 783 -527Q787 -517 793 -511Q798 -512 805 -518Q811 -524 818 -524H819Q818 -517 812 -510Q806 -503 805 -499Q808 -485 822 -485Q817 -481 817 -475Q819 -464 821 -454V-453Q820 -442 813 -436Q805 -429 798 -422Q754 -419 707 -342H709Q720 -343 731 -344Q743 -344 747 -338Q753 -340 765 -342Q765 -329 784 -307Q802 -285 802 -272V-269Q800 -259 792 -252Q785 -244 778 -237Q772 -239 766 -241Q737 -241 708 -242Q634 -242 587 -226Q602 -175 612 -160Q629 -179 645 -200Q643 -205 636 -205Q630 -205 624 -207Q666 -238 696 -238Q706 -238 716 -235Q726 -227 736 -219Q746 -214 755 -208Q765 -202 768 -190Q769 -188 769 -184Q769 -177 768 -170V-166Q773 -152 777 -137Q777 -135 775 -129Q762 -108 732 -99Q702 -90 689 -69Q709 -49 744 -34Q767 -24 811 -11Q841 -20 850 -52Q859 -85 873 -115Q873 -96 864 -65Q855 -33 854 -18Q863 -38 876 -83Q890 -131 900 -152Q885 -82 868 -11Q878 -21 885 -51Q893 -84 904 -93Q902 -76 897 -58Q888 -23 888 -8Q888 3 889 8Q895 22 901 35V58Q903 66 905 74V78Q905 97 894 111Q882 127 863 127Z"/>
</svg>