<svg xmlns="http://www.w3.org/2000/svg" viewBox="0 -800 1024 1024">
	<path fill="#000000" d="M328 -170Q322 -171 315 -178Q309 -184 302 -184Q285 -184 285 -148Q285 -130 286 -123Q296 -125 301 -127Q307 -154 328 -170ZM233 -251Q233 -263 227 -293Q226 -296 224 -296Q216 -285 216 -265Q216 -243 225 -229Q233 -234 233 -251ZM314 -391Q305 -384 295 -377Q290 -316 287 -253Q289 -254 304 -261Q307 -333 314 -391ZM708 -8Q700 4 692 15Q697 13 703 3Q709 -7 708 -8ZM580 -57H583Q581 -62 579 -67L580 -71Q565 -70 562 -54Q571 -55 580 -57ZM933 -471V-469Q922 -465 920 -460Q917 -463 917 -469Q917 -474 920 -478Q923 -483 928 -483L932 -482L931 -479Q932 -475 933 -471ZM614 52H611Q603 53 594 54Q592 54 586 52Q586 41 596 41Q609 41 614 52ZM628 -64V-66Q628 -77 635 -82Q641 -87 648 -91Q636 -95 630 -95Q623 -95 618 -89L619 -85Q619 -78 618 -71V-67Q621 -65 624 -63ZM579 -123H580V-158Q574 -162 572 -162Q565 -162 565 -150Q565 -140 572 -121Q576 -122 579 -123ZM575 -238V-240Q576 -246 576 -252Q576 -258 572 -258Q549 -249 539 -229Q544 -233 557 -233Q570 -233 575 -238ZM622 -171V-168Q621 -155 620 -143Q620 -136 622 -133Q631 -148 641 -161Q651 -174 657 -192Q654 -192 652 -193Q628 -174 622 -171ZM569 -525V-520Q569 -506 577 -496Q601 -499 603 -500Q596 -517 589 -535Q578 -531 569 -525ZM671 -519V-536Q671 -572 665 -589Q661 -584 652 -581Q641 -577 639 -571V-568Q639 -563 643 -555Q649 -543 649 -537V-535Q648 -527 647 -519Q647 -515 649 -513Q657 -513 671 -519ZM701 -529H720Q756 -584 781 -646Q748 -646 730 -623Q740 -619 742 -614H741Q738 -614 736 -611Q735 -608 733 -606Q734 -597 735 -588V-585Q724 -573 714 -561Q704 -549 701 -529ZM720 -54L710 -45V-38Q710 -21 716 -19Q744 -94 769 -171Q769 -174 766 -174Q710 -147 689 -76Q696 -71 699 -71Q703 -71 710 -81Q717 -92 723 -94Q719 -87 714 -81Q708 -74 707 -65Q707 -61 708 -58Q718 -56 720 -54ZM762 -266V-261L764 -260Q767 -261 769 -263L772 -261Q767 -253 767 -242Q767 -232 780 -198Q787 -211 789 -226Q804 -269 816 -312Q762 -312 712 -303Q652 -292 618 -272Q627 -256 636 -250Q642 -258 649 -258Q652 -258 655 -255Q670 -274 708 -274Q727 -274 742 -270Q747 -272 755 -280Q767 -291 775 -291Q778 -290 780 -290Q776 -285 769 -280Q763 -276 762 -266ZM733 -400H722Q719 -410 707 -423Q697 -434 694 -442Q668 -436 641 -432Q613 -429 594 -416Q604 -406 607 -388Q610 -371 614 -355Q634 -357 686 -368L766 -384Q760 -390 750 -392Q738 -394 733 -400ZM457 -491Q457 -486 457 -482Q454 -458 446 -446Q437 -433 430 -416Q421 -383 411 -351Q398 -308 396 -267Q400 -269 403 -272Q431 -292 459 -313Q502 -357 529 -391Q510 -402 502 -424Q493 -445 480 -465Q473 -475 457 -491ZM397 -570Q375 -603 380 -627Q386 -656 432 -692Q433 -693 441 -704Q447 -712 452 -714L454 -711Q450 -706 446 -695Q448 -678 458 -678Q462 -678 462 -683Q462 -686 459 -692Q469 -690 476 -683Q484 -685 486 -685Q500 -684 508 -674Q516 -663 524 -655Q554 -661 607 -685Q663 -711 695 -717Q704 -720 710 -720Q717 -720 719 -714L762 -729Q767 -744 786 -753Q791 -756 821 -766Q860 -779 880 -779Q892 -779 898 -778Q901 -766 907 -758Q915 -748 924 -748Q931 -748 936 -752V-744Q936 -734 944 -733Q948 -734 951 -741Q955 -749 961 -749H963Q956 -740 956 -730Q956 -718 967 -718H968Q963 -689 961 -658Q958 -627 948 -603Q926 -599 913 -587Q900 -576 885 -566L867 -537Q847 -503 828 -469Q808 -435 799 -391H802Q813 -391 829 -401Q844 -410 851 -412Q869 -413 886 -415Q891 -418 897 -430Q905 -446 916 -448Q911 -436 907 -422Q907 -417 910 -413H911Q918 -414 925 -420Q932 -426 939 -430Q934 -417 931 -393Q931 -382 936 -376H937Q938 -376 941 -380Q945 -385 948 -385H950Q946 -380 946 -371Q946 -354 956 -346Q955 -337 955 -320V-312Q955 -283 950 -270Q916 -252 904 -212Q890 -164 871 -123L858 -102Q860 -92 860 -86Q856 -48 846 -14L845 -2Q840 7 840 19Q841 33 842 46Q842 51 840 61Q835 82 790 112Q778 125 766 129H763Q746 125 729 120Q718 105 707 90Q696 79 663 68Q631 58 622 46Q651 50 679 53Q666 46 630 39Q598 33 584 27Q591 27 598 26Q639 29 677 38V36Q677 30 663 27Q651 24 649 21Q652 20 657 20Q669 21 680 22Q683 22 689 20Q655 4 642 -11Q552 4 500 72Q484 62 456 54Q428 46 425 22Q425 18 426 15Q426 11 433 3Q440 -6 442 -13Q444 -19 446 -30Q448 -45 452 -49Q469 -59 486 -61Q474 -58 473 -48V-46Q474 -37 487 -37Q508 -39 526 -45Q517 -55 504 -64Q491 -73 490 -90Q490 -96 491 -99L483 -109Q480 -108 476 -108Q468 -108 458 -119Q448 -130 441 -130H438Q429 -140 429 -157Q429 -169 438 -201Q450 -209 480 -217Q470 -223 459 -231Q448 -239 446 -256Q440 -262 432 -262Q428 -262 426 -261L425 -264Q425 -267 429 -269Q433 -271 433 -272Q403 -265 395 -262Q395 -251 395 -240Q395 -206 399 -181Q385 -169 372 -161Q373 -155 388 -138H389Q396 -140 398 -143L400 -142V-139Q400 -121 415 -99Q430 -77 430 -62V-61Q424 -45 418 -29Q411 -4 411 11Q411 16 413 26Q402 4 387 4Q374 4 361 17Q364 9 366 0Q359 -11 350 -19Q341 -28 332 -37Q311 -31 281 -9Q248 15 227 21L216 30Q197 51 178 71Q171 80 163 91Q154 102 143 103Q141 103 135 101Q121 94 101 68Q80 40 77 21Q73 -10 67 -26Q79 -61 130 -99Q125 -92 125 -82Q125 -75 129 -72Q159 -78 186 -88Q212 -99 239 -108Q238 -112 238 -119Q238 -126 240 -138Q234 -141 229 -141Q212 -141 200 -103Q172 -103 158 -117Q143 -130 135 -151Q123 -197 107 -239L99 -250Q84 -260 67 -272Q50 -284 46 -308V-314Q46 -341 55 -368Q42 -405 42 -432V-437Q47 -425 52 -413Q57 -400 68 -393Q66 -399 60 -410Q52 -423 51 -433Q53 -432 61 -420Q67 -412 76 -411Q78 -415 78 -416Q75 -421 71 -430V-431L74 -433Q76 -433 80 -428Q85 -421 87 -421Q92 -421 101 -432Q112 -445 119 -446H124Q142 -444 156 -429Q169 -413 184 -403Q189 -406 198 -416Q209 -429 218 -431Q220 -442 224 -445Q219 -474 216 -505Q212 -536 203 -562Q189 -560 177 -540Q169 -527 162 -523Q176 -579 189 -604Q212 -649 248 -649H255Q285 -645 301 -607L316 -600Q325 -600 332 -589Q329 -571 317 -540Q306 -512 304 -500Q320 -512 335 -524Q339 -560 375 -572Q382 -568 388 -565Q393 -566 397 -570Z"/>
</svg>