<svg xmlns="http://www.w3.org/2000/svg" viewBox="0 -800 1024 1024">
	<path fill="#000000" d="M898 -634Q894 -623 881 -623Q878 -623 874 -625Q877 -635 891 -635Q896 -635 898 -634ZM218 -693V-691Q201 -691 198 -700Q199 -705 205 -705Q216 -704 218 -693ZM941 -400H939L935 -399H934Q937 -408 937 -420Q937 -432 948 -433H951V-431Q951 -424 946 -417Q941 -409 941 -403ZM574 -32Q516 -27 488 -19Q469 -14 447 -7Q424 0 422 13Q422 16 424 20Q510 2 556 -6Q560 -13 567 -17Q573 -22 574 -32ZM455 -352V-355Q440 -362 418 -386Q401 -381 365 -355Q340 -337 336 -324H341Q375 -325 403 -330Q430 -336 457 -339Q456 -345 455 -352ZM562 -448V-459Q557 -459 551 -460H548Q517 -454 486 -449Q460 -444 456 -442Q440 -436 440 -426V-424Q451 -427 471 -436Q491 -446 510 -447Q520 -447 528 -442Q535 -438 542 -421Q547 -409 550 -405Q543 -391 543 -372Q543 -363 544 -359Q556 -366 583 -371Q605 -375 610 -377Q598 -405 566 -418Q562 -429 562 -448ZM585 -233H589Q578 -226 569 -217Q571 -211 571 -209Q567 -197 563 -185Q543 -182 499 -168Q459 -155 433 -151L409 -157Q400 -175 384 -179Q387 -193 390 -207V-210Q397 -222 411 -226Q412 -226 439 -229Q456 -230 494 -241Q528 -250 548 -253H553Q551 -247 544 -242Q549 -235 557 -235Q561 -235 563 -236V-230Q574 -231 585 -233ZM583 -121V-118Q566 -115 562 -103H558Q529 -100 497 -94Q481 -92 454 -84Q430 -77 420 -77Q398 -77 383 -100Q387 -116 387 -119Q387 -127 381 -136Q388 -136 390 -135Q406 -146 426 -146Q446 -146 467 -149Q484 -151 514 -161Q547 -172 563 -173Q567 -166 586 -164L588 -163Q584 -159 580 -156V-155Q582 -150 584 -145H613Q604 -140 594 -137Q584 -134 583 -121ZM554 -642V-640Q550 -624 546 -609Q546 -606 547 -604Q531 -600 520 -590Q517 -591 512 -591Q503 -589 494 -587H489Q464 -589 450 -606Q436 -623 421 -637Q417 -649 411 -661Q411 -666 410 -672Q410 -678 415 -706Q427 -708 429 -719Q432 -732 440 -739Q444 -738 445 -732Q446 -726 449 -724Q455 -731 460 -738Q483 -734 506 -730Q514 -717 522 -704Q530 -690 542 -681Q544 -682 549 -686Q554 -691 560 -691H563Q556 -678 551 -664Q553 -653 554 -642ZM725 24V26Q692 28 675 46Q658 64 644 86Q626 119 587 130Q554 106 523 80Q467 83 434 99V102Q434 108 433 114Q424 115 413 125Q402 135 394 135Q389 135 386 134Q376 126 366 118Q359 117 351 115Q345 111 340 106Q334 101 327 100H325Q328 96 331 91Q322 66 304 47Q286 27 263 20Q257 7 257 -4Q257 -15 267 -38Q276 -58 277 -72Q283 -74 289 -76H291Q290 -86 286 -107Q292 -106 301 -99Q311 -92 317 -92H321Q313 -113 298 -136Q313 -129 338 -100H340Q349 -100 360 -94Q371 -88 378 -88H380Q386 -77 392 -66Q414 -66 485 -79Q536 -87 583 -97Q630 -107 655 -136Q657 -138 666 -138Q679 -158 688 -179Q690 -177 690 -172Q688 -158 685 -144V-139L688 -138H690Q699 -139 702 -147Q704 -156 714 -158Q711 -139 710 -135Q714 -131 719 -131Q730 -134 747 -141Q740 -134 740 -127Q741 -118 749 -110Q758 -103 765 -97H766Q772 -99 778 -102Q780 -101 782 -100Q779 -88 771 -82Q773 -74 775 -67Q774 -45 773 -27Q772 -10 759 0Q753 4 743 7Q728 12 723 17Q724 21 725 24ZM917 -270V-261Q926 -264 931 -292Q937 -322 948 -328Q943 -296 939 -259Q939 -238 948 -229Q946 -222 946 -209Q946 -196 953 -168Q959 -144 959 -128Q959 -123 957 -109Q939 -95 915 -95Q877 -95 849 -123Q832 -143 816 -167Q804 -181 778 -205Q728 -256 677 -308Q673 -305 673 -300Q673 -298 676 -283Q659 -282 645 -262Q618 -268 591 -268Q548 -267 508 -257Q468 -247 430 -236Q417 -233 401 -230Q384 -228 371 -221Q359 -212 347 -201Q335 -190 321 -189Q316 -189 313 -190Q305 -196 298 -207Q289 -214 280 -220Q271 -227 267 -236Q269 -243 271 -250Q240 -221 215 -184Q178 -137 138 -44Q134 -45 126 -45Q103 -45 97 -29Q93 -30 93 -34Q94 -39 95 -44V-46Q83 -50 68 -52Q52 -54 48 -67V-70Q51 -85 54 -100Q51 -112 47 -124V-127Q50 -147 53 -167Q54 -175 54 -193Q54 -218 53 -244Q53 -277 60 -289Q60 -258 62 -225Q65 -192 88 -182Q203 -291 294 -397Q261 -387 258 -385Q245 -373 233 -367Q231 -366 228 -366Q213 -369 198 -373Q190 -382 187 -391Q177 -404 164 -412Q151 -421 150 -437Q150 -444 155 -457Q159 -463 162 -469V-471Q161 -482 160 -494V-499Q164 -509 175 -516Q186 -523 196 -528Q231 -545 241 -546Q241 -543 235 -540Q230 -538 230 -534Q233 -527 246 -527Q257 -527 286 -535Q304 -540 310 -540Q296 -551 273 -556V-558Q270 -575 257 -583L232 -577Q232 -584 237 -587Q242 -590 247 -594Q241 -614 216 -614Q188 -614 169 -621Q174 -626 183 -626Q196 -625 209 -624Q218 -624 226 -628Q235 -637 235 -649Q235 -661 224 -687Q236 -680 248 -673Q266 -690 292 -698V-702Q290 -717 288 -732Q292 -731 298 -722Q307 -709 315 -707Q321 -709 323 -709Q334 -705 345 -701Q350 -701 353 -707Q356 -713 360 -713H362Q365 -711 365 -710Q363 -704 360 -699V-698Q373 -678 388 -660Q402 -642 412 -619Q421 -622 427 -628V-625Q427 -620 421 -613Q416 -608 415 -604Q414 -602 414 -598V-586Q405 -569 396 -552Q414 -552 457 -560Q494 -566 516 -568Q530 -570 543 -587Q555 -604 563 -615Q579 -637 589 -649Q602 -663 618 -683Q634 -704 636 -721V-722Q636 -741 619 -756Q606 -768 583 -775Q591 -777 595 -777Q613 -775 631 -773H637L646 -784Q642 -793 622 -793Q660 -810 696 -810Q708 -807 719 -805H722Q736 -806 750 -807Q759 -807 765 -804Q780 -795 790 -776Q800 -757 809 -739Q809 -736 814 -736H818Q812 -726 812 -704Q812 -691 813 -684Q732 -648 705 -604H710Q738 -608 765 -613Q777 -605 793 -605Q807 -605 833 -612Q856 -618 866 -619Q851 -610 833 -604Q816 -597 805 -583Q809 -579 814 -579Q819 -579 827 -583Q839 -589 844 -589H849Q839 -582 828 -577Q817 -572 815 -559H816Q825 -561 833 -564Q837 -564 839 -563Q832 -556 825 -551Q818 -545 816 -535Q815 -531 815 -523Q816 -513 816 -503Q816 -488 806 -481Q801 -477 788 -475Q779 -473 757 -473Q730 -473 703 -474Q671 -474 652 -468Q675 -441 701 -418Q727 -395 753 -370Q768 -354 809 -327Q847 -301 863 -282Q877 -286 888 -311Q898 -332 907 -337Q900 -308 892 -279Q905 -296 918 -341Q928 -374 935 -388Q935 -372 926 -334Q917 -294 917 -270Z"/>
</svg>