<svg xmlns="http://www.w3.org/2000/svg" viewBox="0 -800 1024 1024">
	<path fill="#000000" d="M138 -543V-546Q138 -558 154 -558Q158 -558 160 -557Q151 -544 138 -543ZM235 -694V-698Q235 -704 234 -710L235 -714H237Q244 -712 249 -708Q266 -715 284 -718Q302 -721 311 -735Q317 -733 321 -723Q324 -716 327 -713Q335 -708 342 -704Q354 -691 364 -677Q366 -677 369 -682Q372 -687 377 -687L380 -686Q378 -680 378 -669Q384 -635 405 -616Q414 -587 414 -565Q414 -541 402 -526Q401 -525 383 -512Q373 -502 363 -497Q355 -495 351 -495Q338 -495 312 -516Q292 -533 280 -536Q275 -536 267 -529Q262 -525 259 -525Q258 -527 258 -530Q261 -540 268 -548Q268 -551 265 -551Q262 -551 262 -554Q236 -550 231 -548Q219 -544 202 -531Q187 -519 179 -516Q180 -525 188 -533Q197 -540 206 -548Q237 -573 237 -581Q237 -585 231 -587Q229 -588 224 -588Q211 -588 190 -573Q174 -562 167 -562Q175 -578 195 -585Q214 -592 216 -611Q216 -614 215 -617Q203 -617 194 -620Q204 -628 213 -637Q211 -654 195 -669Q177 -686 173 -697Q188 -684 208 -684Q224 -684 235 -694ZM574 -166Q569 -175 557 -178Q552 -178 552 -169Q560 -166 567 -164Q570 -164 574 -166ZM851 -293H848Q850 -307 869 -312Q871 -308 871 -306Q871 -300 864 -296Q859 -293 851 -293ZM600 -79Q584 -105 567 -132Q569 -134 569 -138Q569 -151 549 -158Q525 -95 521 -76Q533 -71 543 -71Q572 -75 600 -79ZM743 -424V-439Q747 -446 750 -453V-455Q747 -466 743 -478V-480Q747 -497 751 -503V-504Q660 -493 552 -432Q552 -428 551 -425Q552 -408 565 -397Q578 -387 590 -378Q590 -368 601 -350Q609 -336 611 -331Q609 -327 609 -325Q612 -314 615 -303Q608 -284 598 -268Q589 -252 587 -229Q571 -215 566 -190Q570 -189 578 -189Q599 -189 621 -211Q626 -216 653 -252Q621 -299 621 -340V-344Q630 -344 632 -348V-349Q624 -360 620 -372Q620 -376 624 -379Q631 -373 650 -373Q669 -374 687 -375Q706 -375 719 -367Q724 -380 733 -394Q741 -408 743 -424ZM449 -107Q463 -163 468 -193Q467 -200 467 -214Q467 -233 476 -241V-271Q467 -280 465 -313Q463 -346 453 -355Q457 -362 457 -370Q457 -385 445 -394Q447 -396 449 -396Q454 -394 459 -393Q465 -396 473 -404Q484 -415 493 -418Q473 -423 455 -436Q448 -444 447 -455Q445 -466 441 -479Q439 -485 431 -498Q422 -512 422 -523Q422 -537 423 -541Q430 -549 430 -564Q429 -579 428 -595Q428 -605 431 -616Q438 -630 452 -639Q466 -648 479 -658Q487 -665 492 -674Q497 -682 508 -685Q509 -679 517 -669Q544 -676 570 -687Q596 -698 627 -699H633L728 -727Q731 -740 747 -743Q764 -746 778 -749Q791 -751 803 -753Q812 -753 820 -749Q832 -753 843 -757Q848 -756 848 -755Q845 -749 841 -743V-742Q843 -740 848 -740Q860 -744 871 -748Q875 -748 879 -745Q875 -741 864 -735Q854 -729 851 -723L858 -708Q867 -710 876 -712Q875 -706 867 -698Q857 -688 857 -682Q857 -677 861 -672Q863 -671 866 -671Q871 -672 876 -673H878Q871 -662 863 -651Q866 -645 866 -639Q866 -628 854 -600Q842 -572 842 -556Q842 -549 843 -545Q848 -535 860 -528Q870 -529 879 -531H883Q879 -527 879 -522Q880 -504 902 -502Q899 -495 899 -479V-457Q899 -437 896 -430V-412Q902 -410 902 -397Q902 -384 899 -378Q899 -375 893 -374Q889 -374 888 -372Q878 -356 875 -353Q866 -343 854 -343Q850 -343 847 -344Q838 -338 829 -334Q823 -331 823 -325V-322Q805 -320 793 -296Q798 -287 808 -283Q821 -288 836 -290H841Q840 -285 831 -280Q822 -275 822 -268Q822 -256 836 -256Q844 -256 864 -261Q888 -267 897 -267Q902 -267 908 -265Q907 -259 897 -259H892Q848 -251 838 -230Q840 -215 872 -215Q869 -208 850 -198V-192Q850 -179 841 -163Q832 -147 832 -138Q832 -135 834 -127Q825 -137 808 -137Q795 -136 782 -136Q763 -136 753 -148Q744 -146 734 -145V-150Q734 -166 716 -186Q681 -144 679 -141Q661 -115 657 -85Q738 -88 826 -97Q857 -102 861 -126V-142Q861 -152 871 -154Q870 -148 870 -137Q870 -116 883 -109H884Q889 -109 892 -115Q894 -119 896 -120Q911 -88 946 -85Q951 -85 955 -86Q946 -74 946 -67Q946 -60 957 -60H958Q956 -55 952 -51Q959 -33 967 -14Q974 4 975 29Q969 36 966 44Q966 46 968 50Q952 71 916 71Q900 71 888 65Q883 69 876 69Q863 67 847 59Q829 54 829 49L803 47Q787 51 766 51Q725 50 683 48Q668 48 660 49Q648 52 635 54Q628 54 624 50L583 59Q556 62 516 85Q489 100 475 105Q452 95 437 65Q427 45 417 9L416 8Q384 32 362 54Q356 58 352 56L346 65Q337 77 319 86Q303 94 286 87Q257 78 233 73Q231 73 229 70Q227 66 225 66H223Q206 66 192 75V74Q192 67 216 58Q209 44 209 27Q211 -13 222 -24L229 -25Q223 -29 217 -33L218 -34Q225 -34 228 -33Q234 -38 238 -72Q242 -103 246 -113Q246 -137 247 -149Q247 -157 247 -165Q246 -197 243 -236Q241 -275 246 -300Q218 -292 198 -268Q161 -256 141 -222Q129 -219 122 -219Q118 -219 110 -221Q100 -229 88 -254Q79 -273 74 -280Q68 -288 62 -297L61 -301Q63 -307 64 -313V-315Q63 -328 62 -342Q62 -346 63 -349Q58 -358 49 -365Q40 -372 35 -378Q37 -380 41 -380Q53 -375 63 -366Q61 -380 39 -396Q21 -409 16 -419Q29 -418 47 -402Q61 -389 70 -387Q71 -395 57 -404Q44 -412 42 -420Q59 -414 75 -403Q81 -400 84 -400H85Q89 -402 92 -405Q96 -407 108 -407Q116 -406 124 -406Q131 -406 133 -407Q179 -416 203 -423Q207 -421 211 -420H226Q228 -432 241 -432H243Q255 -442 269 -449Q274 -448 279 -448Q283 -448 287 -449Q292 -446 297 -444Q302 -446 313 -454Q323 -462 331 -464V-463Q327 -457 316 -449Q311 -442 311 -433Q311 -429 311 -426Q316 -427 324 -433Q334 -441 340 -442Q324 -429 324 -417Q324 -408 333 -404Q338 -407 344 -410H347L348 -409Q346 -405 343 -402L345 -399L347 -397Q350 -398 353 -399Q348 -394 348 -382Q349 -365 350 -349Q350 -342 348 -339L351 -324Q355 -317 354 -309Q354 -308 348 -281Q343 -276 337 -278Q321 -277 316 -248Q312 -220 314 -180Q322 -93 318 -52Q354 -77 371 -90Q376 -94 373 -103Q373 -104 366 -119Q355 -135 352 -151Q359 -143 368 -131Q376 -120 386 -115Q388 -123 367 -155L390 -131L359 -189L401 -137L393 -159Q400 -150 407 -141Q394 -159 389 -174Q394 -174 398 -168Q403 -160 407 -153Q414 -142 421 -132Q430 -120 437 -115Q443 -111 449 -107Z"/>
</svg>