<svg xmlns="http://www.w3.org/2000/svg" viewBox="0 -800 1024 1024">
	<path fill="#000000" d="M633 -219H637Q635 -240 630 -243Q609 -241 598 -228Q582 -229 572 -236Q563 -244 552 -251Q545 -237 539 -221Q532 -205 531 -187V-185Q540 -208 566 -219V-202Q600 -215 633 -219ZM713 -268V-273H711Q681 -271 680 -244Q680 -241 682 -231Q687 -235 697 -235Q702 -234 707 -234Q710 -251 713 -268ZM715 -374Q715 -386 711 -393L709 -394Q707 -392 704 -391L703 -392Q706 -401 708 -411H705Q684 -411 643 -393Q600 -375 583 -330H585Q593 -332 601 -334Q603 -334 607 -332Q613 -340 615 -349Q615 -353 614 -355Q628 -370 647 -370Q668 -370 678 -355Q696 -359 714 -363Q715 -368 715 -374ZM769 -573Q738 -562 707 -552Q660 -534 657 -516V-515Q659 -509 660 -503Q660 -502 658 -498Q699 -511 743 -522Q759 -549 769 -573ZM924 -145H933Q932 -141 929 -137Q925 -133 925 -128V-126Q921 -127 921 -134Q921 -140 924 -145ZM892 -435Q892 -420 879 -417V-421Q879 -433 892 -435ZM899 -549Q884 -521 876 -514L874 -512Q863 -491 850 -467Q837 -444 831 -415Q829 -416 826 -416Q819 -416 811 -408H809Q804 -408 800 -412Q796 -416 793 -417Q800 -401 800 -398Q800 -392 796 -387Q832 -396 872 -412Q869 -408 863 -402Q857 -396 856 -385Q856 -381 857 -378L860 -377Q862 -377 865 -380Q870 -386 874 -386H875Q867 -377 864 -365Q864 -360 866 -357L869 -356Q874 -357 879 -358Q870 -347 870 -331Q870 -326 872 -318Q866 -314 860 -310Q854 -305 853 -298L854 -294Q814 -291 772 -283Q764 -264 756 -245Q774 -250 795 -252Q802 -252 806 -251L827 -254Q827 -262 843 -266Q862 -271 867 -276Q870 -276 872 -270Q875 -274 877 -278Q879 -283 885 -283H888V-282Q887 -276 885 -270L886 -267L890 -266Q900 -269 909 -272Q910 -272 914 -270Q906 -264 906 -254Q906 -250 907 -248L909 -247Q916 -249 922 -251H925V-249Q920 -241 915 -231Q915 -228 922 -225Q914 -212 914 -205Q914 -203 916 -197Q898 -192 898 -158V-151Q878 -160 859 -160Q849 -160 845 -159Q846 -154 855 -147Q848 -142 848 -123V-116Q818 -114 795 -85Q815 -70 834 -53Q852 -36 882 -31Q889 -56 895 -82Q899 -78 899 -68Q898 -53 896 -39Q896 -28 902 -25Q904 -61 905 -98Q906 -134 916 -163V-147Q915 -106 914 -65Q914 -32 919 -12V-23Q920 -53 921 -84Q921 -102 924 -117Q926 -108 935 -30Q941 23 959 42V48Q962 66 965 84V89Q960 98 948 109Q936 119 928 127Q921 123 904 119Q887 116 879 110Q865 98 852 79Q845 71 837 63Q830 55 828 45L803 26Q772 -4 740 -32Q706 -61 694 -113Q698 -115 702 -123Q708 -134 716 -136H718Q735 -132 750 -120Q752 -132 765 -145Q756 -148 743 -148Q682 -144 645 -120Q646 -117 646 -111Q644 -90 642 -70Q642 -61 645 -54Q658 -60 695 -84Q689 -78 685 -64Q685 -60 688 -56Q693 -65 695 -65L698 -63Q696 -53 693 -44Q693 -38 697 -34Q692 -27 691 -26Q700 -16 689 -1Q693 -1 695 0V9Q635 44 614 99Q606 98 597 97Q592 97 589 101Q575 89 560 59Q550 45 550 39Q551 31 552 22Q552 13 544 6Q555 -3 563 -14Q571 -25 586 -28V-87Q575 -80 563 -80Q530 -80 512 -131Q489 -61 474 4Q470 21 467 34Q464 48 455 56Q451 57 443 57Q433 57 415 48Q396 38 380 41V39Q380 13 374 4Q372 -3 370 -12Q390 -51 420 -73L421 -79H417Q410 -79 394 -72Q377 -64 368 -67L361 -58Q322 -46 312 -31V-19Q312 16 320 51Q306 70 271 103Q269 104 266 104Q258 104 254 97Q250 90 243 83Q237 79 230 74Q225 67 222 59Q219 51 211 49V48Q211 44 221 40Q212 26 193 19Q197 17 199 17Q207 20 215 22Q217 19 221 -4Q187 4 154 29Q150 32 101 74H100Q90 73 85 66Q81 58 76 51Q66 39 56 30Q46 21 45 1V-5Q45 -42 58 -65Q68 -78 83 -87Q90 -94 98 -102Q106 -111 120 -112Q105 -93 102 -83H107Q133 -88 166 -93Q174 -99 187 -101Q226 -114 231 -115Q230 -146 228 -177Q177 -148 142 -133Q135 -127 127 -121H124Q114 -120 105 -126Q96 -132 86 -136Q83 -150 69 -162Q70 -165 68 -172Q67 -179 62 -185Q56 -193 55 -199L54 -200Q57 -203 63 -213Q69 -223 75 -227Q81 -252 100 -338Q77 -343 72 -374Q45 -403 45 -433Q45 -447 53 -461Q50 -467 40 -478Q30 -488 29 -492Q38 -489 44 -485Q51 -480 62 -480H64Q59 -491 41 -505Q28 -515 23 -521Q29 -521 44 -512Q57 -504 64 -504V-506Q64 -510 57 -515Q49 -521 49 -528V-530Q57 -527 65 -525Q80 -544 110 -547Q122 -547 129 -540L143 -546Q151 -588 152 -593Q154 -605 138 -630Q123 -654 125 -663Q127 -679 125 -694Q123 -709 132 -723Q151 -737 170 -743Q196 -758 239 -741Q245 -739 253 -731Q263 -721 269 -720Q275 -724 281 -729Q281 -721 280 -713Q280 -704 290 -705Q287 -698 288 -691Q290 -684 291 -678Q286 -671 284 -662L285 -658Q268 -650 247 -589Q311 -610 357 -617Q363 -612 372 -612Q396 -617 420 -622Q388 -606 380 -594Q383 -591 385 -588L389 -587Q397 -590 405 -594Q401 -588 396 -583Q390 -578 389 -571Q389 -566 391 -563H393Q396 -563 399 -564L402 -563Q396 -545 392 -522Q394 -520 408 -514Q401 -514 391 -506Q380 -497 380 -488Q380 -481 386 -475Q372 -463 328 -445Q276 -424 261 -408Q232 -387 190 -376H188Q159 -261 156 -252Q172 -255 207 -268Q202 -279 196 -290Q194 -286 190 -276Q190 -282 189 -288Q191 -328 208 -355Q226 -387 257 -388H261Q277 -386 292 -371Q307 -356 308 -337L317 -331Q319 -328 321 -320Q334 -330 338 -336Q348 -342 357 -348Q362 -364 360 -370Q359 -370 359 -369Q359 -370 358 -371Q358 -381 375 -359Q373 -377 370 -396Q367 -402 365 -410Q363 -417 367 -421Q374 -407 380 -388Q386 -369 395 -353Q396 -360 395 -367Q389 -385 382 -403Q381 -410 382 -416Q391 -403 399 -376Q406 -349 414 -341Q424 -330 433 -319Q433 -315 435 -309Q440 -295 444 -281Q445 -275 443 -263Q441 -251 443 -240Q445 -236 446 -232Q427 -222 407 -212Q403 -210 400 -210Q399 -210 386 -212Q375 -214 348 -214Q331 -211 305 -203Q309 -170 308 -130Q311 -131 366 -153Q387 -154 429 -182Q429 -173 431 -163L434 -162Q437 -164 440 -166L453 -229Q463 -255 512 -358Q520 -377 516 -395Q511 -414 510 -438Q526 -441 541 -444H543Q546 -468 555 -484Q552 -485 547 -485Q522 -485 508 -465Q504 -458 499 -451Q494 -445 484 -444Q463 -444 455 -480Q439 -485 431 -502Q423 -518 423 -539Q423 -576 441 -594V-603Q441 -633 463 -654Q475 -665 509 -684Q503 -679 496 -673Q490 -667 489 -655V-651Q490 -650 492 -653Q493 -656 497 -657H499Q498 -653 496 -650Q496 -649 498 -645Q512 -646 536 -657Q566 -671 589 -671H594L645 -676Q649 -688 661 -692Q672 -695 682 -700H697Q754 -722 811 -745L813 -746Q816 -744 818 -742Q822 -751 833 -751Q838 -751 842 -748Q849 -750 859 -759Q873 -771 881 -771L885 -770Q894 -763 905 -754Q911 -755 917 -757H919V-756Q918 -752 917 -748L919 -745Q931 -751 943 -757V-756Q943 -753 936 -746Q925 -734 925 -728Q925 -724 928 -720Q930 -720 932 -724Q934 -729 938 -729H940Q938 -717 936 -706Q937 -703 937 -700Q938 -695 945 -686Q954 -674 956 -666Q958 -658 958 -641Q957 -614 956 -587Q934 -585 925 -575V-574Q927 -572 929 -570V-568Q912 -561 899 -549Z"/>
</svg>