<svg xmlns="http://www.w3.org/2000/svg" viewBox="0 -800 1024 1024">
	<path fill="#000000" d="M335 -163Q332 -167 324 -175Q314 -184 311 -192Q304 -174 304 -151Q304 -138 307 -128Q310 -128 313 -129H316Q320 -150 335 -163ZM235 -284Q234 -321 232 -358Q207 -346 205 -322Q208 -315 212 -291Q217 -260 226 -249L228 -250H232Q235 -265 235 -284ZM337 -426Q324 -422 314 -414Q304 -401 304 -316Q304 -284 313 -280Q335 -389 337 -426ZM419 -289Q425 -287 425 -276Q425 -268 420 -243Q419 -236 411 -220Q401 -200 401 -191Q401 -185 406 -176Q412 -165 411 -158H405Q399 -158 398 -156Q407 -145 411 -145Q412 -145 416 -147L418 -146Q416 -141 414 -137Q416 -135 418 -135Q421 -135 427 -141L428 -139Q425 -132 421 -125Q428 -106 440 -106Q446 -106 449 -107Q448 -95 443 -87Q448 -77 452 -68Q447 -63 439 -56Q432 -50 431 -42Q431 -38 433 -28Q422 -13 397 -13Q391 -13 377 -15Q360 -32 352 -37Q289 -20 235 13L236 11Q236 10 230 10L198 30Q187 44 174 57Q161 69 154 89Q135 84 119 79Q103 75 99 54Q84 45 68 35Q67 29 67 18Q67 -6 74 -19Q73 -23 73 -29Q73 -59 106 -85Q122 -98 162 -117Q155 -109 147 -101Q138 -94 134 -82Q138 -81 147 -81Q164 -81 195 -91Q225 -101 239 -102V-113Q239 -133 238 -154Q220 -150 215 -126Q209 -128 204 -128Q198 -127 191 -127Q184 -127 181 -128Q173 -133 163 -144Q153 -150 142 -157Q127 -175 127 -204V-208L121 -228Q105 -235 96 -255Q86 -276 62 -280Q61 -289 51 -303Q41 -316 40 -324V-327Q42 -341 43 -355V-358Q41 -374 38 -391Q41 -405 43 -419V-421Q43 -432 35 -453Q28 -471 28 -481Q28 -488 29 -492Q34 -487 38 -472Q43 -453 51 -450V-452Q51 -456 42 -483H43Q48 -483 51 -477Q55 -470 60 -470H61L62 -473Q60 -478 58 -483Q63 -481 73 -481Q93 -483 113 -486H116Q161 -454 171 -430Q205 -440 232 -474Q232 -528 228 -550Q221 -586 200 -603Q199 -607 199 -614Q199 -644 225 -668Q250 -691 278 -691Q291 -691 301 -685Q304 -675 314 -657Q329 -631 329 -615Q330 -604 322 -582Q315 -561 315 -550Q315 -546 317 -536Q324 -539 334 -552Q341 -561 346 -565Q364 -580 399 -580H407Q414 -584 421 -585Q426 -573 437 -573Q445 -573 452 -579V-574Q452 -558 466 -533Q481 -506 482 -490Q468 -458 453 -427Q434 -367 429 -309ZM804 19Q799 20 789 20Q762 19 734 17H727Q706 18 684 19Q673 19 655 17L612 20Q608 25 599 25H582Q571 27 563 37Q559 42 551 58L547 57Q541 60 534 62Q520 61 509 53Q497 44 488 37Q438 37 438 -2Q438 -10 445 -26Q452 -40 452 -49Q452 -54 451 -56L505 -101Q521 -118 542 -122Q542 -116 533 -108Q521 -97 521 -87Q526 -86 534 -86Q566 -89 598 -92H606Q609 -98 609 -106Q608 -120 607 -134Q607 -139 609 -147Q606 -148 601 -148Q577 -148 560 -131Q538 -143 524 -161Q515 -176 510 -193Q505 -211 490 -219V-220Q490 -223 493 -223Q497 -223 499 -221Q498 -231 487 -236Q500 -240 603 -277Q591 -314 590 -326L519 -303Q510 -307 500 -310Q490 -313 484 -320Q480 -333 476 -346Q471 -356 465 -364Q459 -372 458 -384V-389Q464 -403 469 -418Q470 -423 470 -434V-439Q470 -449 473 -458Q483 -476 496 -483Q501 -483 505 -479Q533 -479 594 -505Q597 -506 622 -521H635L681 -526Q682 -536 704 -546Q730 -557 732 -561Q740 -561 741 -563Q748 -573 758 -574Q768 -576 779 -578Q786 -580 797 -587Q810 -596 816 -596Q814 -586 811 -577Q825 -587 839 -599Q852 -611 871 -618Q863 -604 851 -592Q839 -579 838 -560V-554Q843 -555 853 -563Q864 -571 870 -571Q870 -567 863 -560Q853 -549 853 -539V-535Q855 -532 856 -532Q860 -534 863 -536L867 -535Q862 -528 862 -516Q862 -503 870 -498Q864 -478 864 -463Q844 -447 838 -422Q738 -393 683 -362Q695 -330 715 -319Q753 -324 774 -340Q777 -334 779 -329Q791 -339 805 -343H807Q805 -339 799 -333Q793 -327 792 -320Q792 -315 796 -311H797Q804 -314 808 -317L811 -316V-314Q807 -307 803 -296Q803 -293 804 -291L806 -289Q810 -290 813 -292L816 -290Q812 -281 812 -268Q813 -250 814 -232Q814 -215 807 -206Q763 -195 754 -195Q747 -195 744 -196L719 -188Q715 -185 707 -183Q698 -180 694 -175Q686 -165 686 -134Q686 -112 683 -104H689Q729 -106 779 -113Q827 -115 862 -123Q897 -130 904 -169Q907 -163 907 -154Q907 -142 906 -130Q906 -113 916 -109Q924 -111 931 -114Q934 -114 936 -113L937 -110Q935 -103 932 -96Q934 -88 946 -84Q944 -78 944 -76Q944 -69 950 -59Q955 -50 956 -47V-45Q955 -37 954 -30Q954 -24 959 -20Q955 -1 944 9Q933 19 920 29V35Q920 40 922 42Q872 32 822 22ZM726 -644Q721 -638 705 -626Q703 -614 703 -605Q703 -599 705 -593Q689 -568 672 -544Q668 -546 666 -546Q660 -544 654 -542Q645 -543 630 -551Q614 -560 609 -561H602Q591 -566 577 -577Q554 -595 541 -595Q535 -595 527 -592Q534 -602 534 -625Q534 -641 530 -650Q544 -658 544 -680Q544 -700 534 -715Q541 -715 547 -709Q553 -703 558 -703H559Q561 -704 561 -711Q561 -718 564 -719H566Q572 -716 578 -713Q585 -716 592 -719V-725Q593 -733 593 -741Q593 -744 592 -746H593Q600 -746 602 -735Q604 -724 611 -724Q618 -727 621 -745Q624 -761 629 -765Q631 -760 631 -748V-733Q631 -709 645 -706Q674 -721 705 -734Q698 -722 684 -715Q670 -708 665 -693H667Q671 -693 678 -697Q688 -703 694 -703Q687 -691 680 -680Q690 -661 697 -640Q709 -644 726 -644Z"/>
</svg>