<svg xmlns="http://www.w3.org/2000/svg" viewBox="0 -800 1024 1024">
	<path fill="#000000" d="M870 -754Q877 -764 886 -771Q889 -768 890 -768Q882 -752 875 -752Q874 -752 870 -754ZM912 -540H914Q915 -538 915 -534Q912 -522 909 -511Q904 -516 904 -529Q904 -540 912 -540ZM228 -190V-187Q242 -195 255 -204Q268 -212 286 -218Q289 -230 292 -243Q292 -248 289 -253Q271 -241 250 -228Q230 -216 228 -190ZM687 -115H691Q698 -115 701 -118Q701 -121 696 -122Q691 -124 690 -127Q722 -181 733 -223V-224Q730 -225 726 -227Q733 -232 739 -238Q731 -243 713 -264Q695 -285 689 -290Q674 -299 668 -299H667Q659 -299 647 -287Q656 -285 664 -284Q680 -277 694 -247Q708 -218 708 -196V-191Q707 -186 698 -170Q684 -146 684 -131Q684 -122 687 -115ZM305 -444V-455Q278 -429 261 -393Q243 -356 225 -319Q236 -324 255 -337Q284 -357 302 -362Q305 -440 305 -444ZM587 -74H588Q580 -64 580 -54Q580 -45 591 -21Q556 -9 520 14Q509 25 498 40Q487 55 471 56Q465 56 458 52Q453 46 447 40Q439 34 428 28Q417 21 412 13V7Q412 -20 425 -38Q435 -52 456 -64L459 -63L458 -60V-58Q486 -60 531 -76Q575 -92 599 -93Q585 -84 579 -73L581 -71Q584 -72 587 -74ZM969 -133V-131Q969 -130 966 -124Q970 -114 973 -104Q968 -72 952 -53Q942 -55 937 -55Q930 -54 923 -54Q919 -54 911 -56Q908 -57 891 -71Q877 -83 854 -109Q828 -138 814 -150Q762 -141 748 -112Q771 -99 805 -93H808Q813 -93 822 -99Q832 -106 838 -106H840Q827 -89 827 -81Q827 -73 835 -70L864 -79V-78Q863 -72 857 -67Q851 -62 847 -56Q850 -53 850 -45V-40Q858 -34 888 -33Q916 -33 924 -26Q916 -22 889 -21Q875 -20 864 -18Q854 -14 854 5Q854 10 856 14Q848 14 841 24Q835 32 828 33Q827 35 827 38Q829 48 831 58Q831 65 826 67Q826 53 814 37Q789 35 772 23Q756 10 739 -4Q714 -23 689 -43V-34Q689 8 702 42Q688 64 683 107Q676 109 667 115Q658 122 652 122H650Q633 122 613 96Q597 75 587 52Q588 46 591 40Q586 28 576 26Q565 23 554 17Q578 16 587 3Q595 -9 597 -41Q604 -87 607 -142Q607 -169 602 -187Q595 -194 588 -202Q582 -211 579 -224Q571 -221 556 -202Q546 -189 540 -184Q549 -182 555 -179Q567 -168 580 -156Q593 -144 594 -124V-118Q591 -91 560 -91Q542 -91 525 -100Q517 -96 508 -92L506 -94Q510 -100 517 -107Q503 -121 499 -124Q487 -118 475 -87H473Q465 -87 455 -81Q449 -77 444 -77H442Q425 -78 415 -93Q405 -109 394 -122Q395 -130 395 -139Q395 -169 382 -179Q393 -180 397 -187Q396 -194 390 -195Q382 -197 375 -200Q368 -151 368 -103Q368 -30 381 19Q393 61 393 77Q393 83 391 93Q383 94 374 101Q364 109 358 110Q350 105 337 104Q326 103 322 101Q315 97 311 91Q307 85 302 80Q293 76 284 68Q277 55 274 40Q272 25 258 16Q259 11 260 6Q260 4 258 2Q256 -2 246 -4Q235 -6 233 -11Q252 -11 259 -14Q285 -36 285 -108Q285 -119 284 -131Q254 -120 233 -97V-93Q237 -62 242 -34Q232 -22 222 -11Q206 5 200 7Q198 8 193 8Q174 5 160 -10Q139 -25 126 -43H113Q109 -43 108 -44L107 -46Q111 -47 114 -52Q112 -60 99 -60Q88 -59 77 -59Q111 -70 111 -112Q111 -129 99 -191Q94 -228 88 -268Q82 -308 65 -336Q54 -350 43 -363Q32 -376 30 -389V-392Q36 -436 54 -465Q38 -509 38 -540Q39 -546 39 -552Q45 -552 45 -546Q46 -541 46 -535Q51 -524 56 -513Q60 -501 70 -494Q63 -514 56 -533Q49 -552 48 -578V-582Q56 -565 63 -544Q70 -523 84 -516Q85 -518 85 -521Q85 -526 79 -535Q70 -549 70 -558V-563Q75 -561 82 -549Q93 -532 105 -531Q123 -535 140 -540H142Q160 -539 174 -529Q182 -523 200 -503Q224 -526 271 -583Q284 -597 293 -610Q303 -638 310 -663Q316 -677 330 -689Q345 -702 361 -703H362Q371 -703 388 -696Q403 -690 410 -690Q412 -690 418 -692V-689Q418 -682 417 -676Q417 -668 422 -664Q425 -666 428 -673Q432 -683 439 -684Q436 -670 432 -657Q433 -654 433 -652Q436 -644 441 -640Q452 -623 452 -606Q451 -586 439 -567Q427 -549 415 -528Q398 -477 391 -420Q385 -363 379 -305Q374 -270 371 -234Q371 -227 373 -213Q380 -211 395 -211Q441 -211 492 -256Q535 -296 549 -311Q579 -343 593 -377Q598 -380 602 -388Q607 -398 610 -400Q602 -421 600 -437Q600 -446 604 -455Q568 -424 534 -391Q500 -357 484 -307Q473 -301 466 -294Q458 -288 446 -287Q444 -287 434 -289Q424 -291 421 -291Q417 -291 410 -287Q412 -296 416 -302Q404 -326 404 -350Q404 -370 416 -382Q416 -387 413 -391Q425 -415 436 -457Q440 -453 440 -445Q440 -436 439 -427Q439 -418 443 -414Q480 -427 530 -465Q517 -470 508 -471Q498 -473 490 -481Q485 -486 481 -500Q478 -511 474 -516Q469 -521 462 -525Q450 -532 447 -538Q451 -556 452 -572Q460 -585 471 -598Q474 -613 477 -628Q483 -642 496 -651Q509 -660 520 -669Q525 -652 548 -652Q574 -655 596 -661Q596 -666 587 -675Q580 -683 579 -688Q578 -691 578 -697Q581 -737 599 -760Q627 -785 646 -796Q648 -797 653 -797Q666 -797 675 -790Q705 -764 720 -699Q741 -707 767 -712Q778 -721 793 -726Q808 -730 823 -736Q824 -733 825 -730V-729Q831 -731 840 -737Q854 -746 864 -748Q859 -739 851 -731Q844 -724 843 -712Q843 -706 844 -703H846Q849 -703 854 -709Q860 -716 864 -716L867 -715Q859 -696 859 -688Q859 -680 861 -676L863 -674Q868 -676 872 -679H873L865 -669Q863 -633 838 -574Q792 -569 758 -553Q789 -520 867 -466Q876 -469 877 -480Q878 -491 880 -502Q884 -498 886 -484Q888 -471 891 -468Q893 -476 893 -494Q893 -517 892 -540Q892 -553 893 -560Q900 -554 900 -539Q900 -528 899 -518V-514Q900 -487 914 -443Q915 -446 915 -449Q912 -469 909 -489Q909 -500 915 -505Q921 -440 951 -370Q942 -353 933 -338Q924 -323 906 -316H905Q899 -316 889 -321Q881 -325 878 -325Q875 -325 871 -323Q865 -334 855 -333Q845 -332 835 -336Q823 -344 811 -360Q799 -377 787 -391Q758 -424 736 -443Q718 -458 699 -474Q696 -470 696 -456V-438Q696 -426 692 -421Q721 -396 721 -362Q772 -313 794 -294Q835 -258 873 -235Q889 -241 891 -260Q892 -280 897 -298Q902 -290 902 -265Q902 -242 906 -235Q911 -237 911 -248Q911 -256 910 -264Q910 -271 912 -273Q918 -272 918 -264V-253Q921 -230 943 -195Q965 -159 969 -133Z"/>
</svg>