<svg xmlns="http://www.w3.org/2000/svg" viewBox="0 -800 1024 1024">
	<path fill="#000000" d="M837 -129H846Q847 -127 847 -122Q845 -112 843 -102Q836 -103 836 -116Q837 -122 837 -129ZM195 -258Q194 -260 194 -264Q194 -275 211 -280Q214 -280 214 -277Q211 -261 195 -258ZM613 -127H612Q592 -122 568 -116Q545 -110 530 -96Q566 -92 583 -87Q599 -111 615 -124ZM527 -28Q518 -36 506 -48Q493 -61 492 -74Q492 -83 504 -91Q492 -95 480 -99Q464 -46 463 1Q473 3 477 3Q504 3 527 -28ZM553 -277H549Q521 -274 510 -255V-252Q511 -245 512 -239V-238Q508 -232 503 -226Q501 -218 501 -214Q502 -208 502 -203Q502 -200 500 -192Q510 -190 514 -190Q535 -192 558 -198Q553 -228 553 -277ZM728 -246Q701 -273 680 -273Q672 -273 664 -267L663 -270Q663 -273 669 -277Q673 -279 673 -281L671 -282Q669 -283 666 -283Q662 -283 653 -277Q647 -273 644 -273Q670 -315 694 -336Q694 -340 692 -340Q669 -337 633 -316Q627 -282 627 -252Q627 -232 630 -216Q651 -218 681 -231Q709 -243 728 -246ZM249 -121H248L247 -120Q239 -126 232 -132Q225 -138 212 -139Q206 -139 202 -138L199 -140Q204 -142 208 -147Q202 -150 194 -150Q176 -150 156 -139Q158 -146 169 -154Q177 -160 180 -165Q152 -178 150 -221Q158 -232 172 -235Q186 -238 201 -240Q214 -243 227 -247H229Q244 -241 262 -229Q302 -208 303 -163Q303 -142 293 -123Q287 -125 285 -125Q271 -125 269 -109Q266 -110 251 -123ZM294 -259H289Q281 -259 271 -266Q261 -272 253 -273Q252 -273 250 -268L248 -270Q251 -273 251 -276Q248 -288 232 -289Q224 -289 220 -285Q222 -295 226 -303Q222 -311 216 -311Q209 -311 189 -294Q191 -309 201 -318Q210 -326 220 -334Q215 -346 215 -348Q231 -366 247 -379Q253 -382 264 -382Q284 -382 311 -372Q339 -361 349 -349Q373 -320 373 -285Q373 -249 343 -235Q313 -243 294 -259ZM370 -64H374Q361 -48 328 -22Q293 6 279 24Q258 38 247 62Q235 86 224 109Q217 113 210 113Q200 113 180 103Q166 96 159 95H156Q149 96 141 97Q116 94 116 69Q116 62 119 51Q109 40 109 24Q109 5 128 -35Q142 -65 144 -75Q159 -54 167 -48Q286 -94 352 -144H359Q354 -135 346 -128Q339 -120 338 -106Q347 -111 356 -117L359 -115V-114Q359 -112 353 -105Q343 -94 343 -84V-81L346 -79Q349 -79 352 -80L346 -72L349 -71Q352 -71 358 -75Q365 -80 370 -80Q371 -80 377 -78Q365 -71 364 -67Q364 -64 370 -64ZM829 117H823Q799 114 772 101Q744 88 724 78Q703 68 667 43Q631 18 615 11Q570 54 559 88H555Q545 90 534 91H531Q517 81 501 55Q498 47 494 41Q490 35 480 33Q481 30 487 27Q493 23 494 20Q486 11 465 11Q458 39 432 60Q424 58 419 58Q403 58 398 70Q397 54 378 38Q359 22 359 3V0Q357 -5 349 -5Q345 -5 335 -3V-4Q335 -7 350 -22Q363 -31 371 -40Q382 -57 388 -88Q393 -119 399 -152Q413 -214 415 -247V-266Q415 -278 420 -283Q417 -305 414 -328V-329L413 -331H411L409 -333Q413 -359 413 -370Q413 -395 402 -408Q388 -404 377 -396Q363 -399 347 -417Q330 -436 315 -438H312Q294 -437 274 -423Q254 -408 238 -396Q187 -358 164 -349Q146 -354 138 -370Q130 -385 119 -403Q101 -430 101 -444Q101 -456 108 -471Q103 -481 103 -499Q103 -541 122 -562Q135 -570 153 -579Q161 -583 167 -588Q172 -593 183 -595Q180 -588 177 -581Q177 -576 182 -574Q192 -574 210 -580Q227 -585 237 -585H244Q246 -588 246 -596Q244 -611 242 -627Q254 -654 278 -666Q286 -647 287 -646Q332 -644 349 -618Q403 -640 414 -643Q407 -636 407 -629Q408 -617 422 -605Q435 -594 445 -585Q466 -562 466 -537V-529H460L456 -528Q458 -521 466 -513L451 -483H442Q420 -483 415 -472Q419 -461 419 -449Q419 -425 405 -411Q409 -398 429 -384Q425 -392 421 -400Q435 -393 448 -387Q457 -391 472 -391Q504 -391 515 -375Q534 -381 552 -387Q548 -403 540 -408Q540 -429 555 -448Q543 -452 529 -452Q484 -448 448 -433Q469 -447 493 -463Q516 -479 525 -503Q527 -509 527 -512Q526 -520 520 -525Q513 -529 506 -537Q500 -550 494 -563Q479 -587 465 -597V-599Q468 -603 470 -607Q468 -609 464 -610Q458 -612 457 -615Q516 -635 575 -644Q579 -660 586 -676Q592 -693 593 -710Q593 -721 589 -729H583Q566 -728 555 -720Q545 -712 533 -706Q547 -730 569 -743Q590 -757 617 -775Q652 -801 680 -805Q684 -805 687 -806Q706 -805 718 -792Q730 -778 742 -766Q769 -741 792 -735Q787 -723 784 -710Q781 -697 771 -690Q778 -691 795 -700Q818 -712 833 -713Q824 -704 824 -698Q824 -694 828 -690Q841 -695 855 -698Q846 -692 836 -687V-686Q836 -684 840 -684H849Q846 -675 842 -667Q845 -662 851 -662Q862 -664 872 -666Q868 -661 859 -657Q849 -653 846 -644Q846 -640 851 -640H855Q852 -632 852 -627Q855 -611 860 -594Q851 -589 831 -583Q830 -579 829 -576Q829 -573 833 -572Q802 -567 756 -563Q744 -560 688 -544Q660 -536 651 -533Q634 -526 626 -514Q618 -496 609 -478Q639 -458 649 -420Q664 -426 694 -434Q733 -444 753 -454Q778 -471 802 -477Q823 -475 837 -483Q834 -480 831 -477Q834 -473 837 -469Q857 -479 877 -489Q866 -479 862 -464Q862 -459 863 -457Q866 -458 870 -465Q872 -470 876 -472Q873 -464 873 -455Q874 -422 901 -411Q897 -387 884 -372Q870 -358 852 -349Q815 -334 784 -309Q753 -278 739 -241Q742 -240 744 -240Q755 -242 765 -244Q764 -241 763 -238Q769 -241 776 -248Q784 -254 795 -256Q784 -246 782 -244Q775 -236 774 -226L776 -225Q779 -228 785 -231H787Q787 -221 783 -215Q787 -200 805 -184Q802 -170 799 -157Q762 -136 724 -117Q685 -97 660 -63Q689 -46 742 -24Q759 -13 776 -11Q780 -11 783 -12Q789 -18 791 -37Q793 -60 801 -64Q799 -48 799 -34Q799 -18 804 -11Q810 -24 810 -54V-65Q810 -104 820 -115V-106Q820 -79 819 -53Q819 -19 826 -2Q829 -11 830 -38Q832 -74 840 -86Q845 -35 858 0Q867 17 880 32Q892 47 895 67Q886 89 870 102Q852 117 829 117Z"/>
</svg>