<svg xmlns="http://www.w3.org/2000/svg" viewBox="0 -800 1024 1024">
	<path fill="#000000" d="M431 -225V-222L435 -221Q442 -221 445 -228Q436 -233 434 -233Q431 -230 431 -225ZM887 -384H890Q896 -384 899 -381Q895 -366 886 -365Q886 -371 885 -377Q885 -380 887 -384ZM61 -362V-368Q69 -368 71 -366Q72 -362 72 -358Q72 -348 68 -344Q61 -346 61 -362ZM396 -380V-401H392Q369 -400 367 -384Q367 -378 369 -375Q383 -377 396 -380ZM678 -390Q634 -390 621 -365Q630 -359 637 -359Q650 -360 660 -370Q670 -381 678 -390ZM323 -377H321Q309 -376 301 -370Q292 -363 282 -357Q264 -366 245 -375Q239 -370 234 -364Q229 -359 228 -347H236Q252 -347 289 -357Q311 -363 326 -365Q326 -371 323 -377ZM557 -126V-128Q554 -129 548 -129Q539 -129 523 -123Q509 -118 504 -117Q489 -116 477 -113Q465 -111 460 -98Q486 -102 514 -104Q541 -107 559 -119Q558 -122 557 -126ZM544 -168Q546 -174 546 -177Q545 -186 538 -193Q531 -200 525 -206Q508 -194 501 -188Q488 -176 486 -164Q508 -170 526 -170Q532 -170 544 -168ZM392 -464V-468Q392 -479 384 -482Q395 -491 406 -500Q401 -501 392 -501Q371 -500 354 -491Q338 -483 322 -478Q320 -477 314 -477Q309 -477 307 -476Q294 -470 286 -447H298V-454Q298 -460 300 -462Q305 -471 318 -471Q332 -470 347 -464Q361 -459 366 -458Q378 -461 390 -464ZM419 -600Q359 -594 317 -575Q329 -561 341 -547Q358 -556 403 -564Q404 -576 419 -600ZM363 -277V-274Q367 -259 377 -245Q371 -229 366 -211Q359 -208 353 -208Q340 -210 326 -212Q313 -225 302 -225Q297 -225 294 -224Q298 -232 301 -240Q299 -244 294 -248Q289 -252 288 -254Q288 -257 287 -261Q287 -274 298 -282Q307 -288 321 -288Q344 -288 353 -274H354Q358 -275 362 -277ZM578 -324H581Q578 -328 568 -332Q553 -338 553 -347Q553 -362 572 -365Q559 -374 557 -383Q537 -391 535 -399Q532 -406 532 -435V-443Q535 -460 549 -466Q563 -473 577 -478Q581 -472 588 -470Q609 -476 648 -482Q712 -492 738 -503Q706 -529 706 -562Q706 -569 707 -573Q714 -599 720 -626V-642Q720 -647 722 -657Q704 -628 680 -567Q659 -515 649 -495H645Q638 -495 624 -489Q615 -485 609 -485H606Q595 -487 580 -502Q566 -517 556 -518Q555 -550 535 -573Q563 -579 576 -603Q590 -629 601 -653Q579 -626 550 -606Q518 -585 508 -544Q500 -537 490 -518Q482 -503 477 -497H475Q471 -497 467 -498L464 -497Q469 -495 471 -491Q469 -486 467 -481L468 -478Q494 -486 519 -494Q517 -490 512 -486Q504 -480 504 -476L507 -474Q512 -475 516 -477Q519 -477 520 -475Q515 -473 515 -466Q515 -463 517 -459L519 -458Q522 -458 524 -458L526 -457V-456Q518 -448 518 -437Q518 -434 520 -428Q515 -423 480 -417Q451 -412 451 -392V-390Q487 -397 514 -399Q509 -391 508 -387Q512 -380 526 -378Q524 -374 524 -366V-357Q524 -342 516 -335Q468 -333 448 -320Q456 -314 470 -312H473Q472 -310 470 -308L471 -306Q489 -318 499 -321Q489 -311 479 -300Q492 -272 493 -254Q489 -254 488 -252Q489 -247 489 -242V-239Q469 -231 455 -230V-219H460Q467 -219 476 -214Q483 -219 505 -228Q506 -255 522 -267Q536 -278 565 -278Q561 -286 557 -294Q557 -296 559 -300Q551 -312 539 -318Q541 -317 546 -317Q562 -320 578 -324ZM933 -205V-199Q920 -179 880 -167Q827 -184 777 -216Q727 -248 675 -274Q664 -260 652 -246Q671 -240 689 -233Q707 -225 716 -208Q691 -182 689 -136Q689 -124 692 -114Q686 -110 684 -105Q684 -93 687 -86Q680 -68 680 -47Q680 -21 697 31Q711 74 711 95Q711 100 710 105Q682 109 678 117Q581 96 545 68Q540 69 534 69Q529 69 528 64Q528 59 539 59Q536 52 519 47Q509 44 504 40H536Q526 36 507 33Q487 30 476 25H484Q501 25 518 24H525Q514 20 486 19Q450 18 439 10Q458 11 476 11Q502 11 522 6Q551 -1 553 -31Q553 -35 551 -47Q549 -51 547 -56Q458 -56 428 -27Q413 -9 403 12Q393 33 372 46Q316 45 292 11V-1H290Q287 -1 286 -5Q285 -7 283 -10L280 -11H277Q274 -18 271 -32Q273 -43 280 -53Q277 -61 268 -64Q269 -67 274 -67H282Q276 -81 240 -87Q278 -95 312 -121Q315 -123 369 -173Q401 -202 418 -230L427 -236Q420 -250 404 -264Q388 -278 386 -301Q387 -305 387 -309Q339 -308 279 -277Q251 -263 246 -263Q234 -264 225 -274Q217 -283 206 -291Q206 -304 208 -308Q184 -275 168 -235Q153 -195 136 -156H132Q121 -154 109 -152H107Q93 -153 79 -167Q61 -185 55 -189Q54 -196 54 -209Q54 -229 59 -263Q65 -304 65 -321Q65 -332 64 -337Q70 -328 72 -305Q75 -277 82 -269Q84 -270 86 -272L87 -276Q86 -286 84 -297Q84 -301 86 -305Q92 -295 97 -285Q119 -307 144 -345Q153 -359 184 -410Q242 -504 257 -550Q205 -529 181 -512H179Q164 -512 153 -521Q141 -531 138 -548Q113 -558 113 -582Q113 -589 116 -600Q123 -607 128 -614Q126 -623 124 -633Q126 -642 139 -652Q145 -657 162 -668Q183 -687 209 -689Q201 -686 192 -682Q183 -679 181 -669Q184 -665 186 -665Q196 -670 206 -675V-672Q206 -667 209 -663Q281 -684 377 -698Q381 -707 402 -708Q418 -709 422 -714Q425 -713 429 -713Q436 -713 449 -719Q460 -724 467 -724Q472 -724 474 -723Q491 -740 517 -740Q529 -737 540 -735Q543 -735 547 -737L546 -735Q546 -731 557 -722Q564 -727 571 -730L575 -729L577 -727Q573 -722 569 -714V-713Q571 -710 574 -710Q580 -711 585 -713V-709Q586 -699 592 -691Q598 -683 603 -675Q602 -672 601 -669Q603 -663 604 -657Q619 -685 619 -707Q619 -717 616 -729Q623 -720 630 -711L631 -712Q631 -714 630 -717L631 -719Q636 -715 650 -713Q665 -711 669 -707Q688 -720 699 -734Q707 -743 711 -759Q715 -774 719 -780Q728 -792 751 -792H754Q763 -791 779 -785Q796 -778 803 -778Q812 -778 819 -785V-783Q819 -781 816 -778Q812 -774 812 -769L813 -765Q814 -761 818 -761Q823 -762 827 -764Q823 -750 823 -744Q823 -736 827 -729Q788 -699 787 -632Q787 -615 790 -599Q815 -604 834 -614L843 -662Q847 -643 850 -624Q857 -624 857 -635V-640Q857 -646 858 -648Q861 -634 862 -633Q866 -625 875 -624L876 -625Q875 -628 873 -632L874 -635Q879 -634 881 -629Q883 -625 884 -620Q914 -594 940 -563Q929 -562 929 -550Q929 -548 932 -536Q921 -518 865 -517Q815 -516 803 -504Q805 -497 809 -492Q810 -492 828 -495Q825 -490 822 -484V-481Q823 -477 827 -477H831L833 -476Q827 -468 827 -463Q832 -446 837 -431Q837 -423 831 -414Q824 -404 824 -398Q789 -395 762 -376Q742 -362 720 -334Q770 -310 831 -291Q835 -295 837 -306Q840 -321 847 -323Q849 -316 849 -297Q854 -309 856 -340Q858 -375 864 -386Q866 -366 866 -353Q866 -336 865 -319Q865 -307 867 -287Q872 -297 884 -350Q891 -297 907 -268Q916 -254 924 -240Q932 -226 933 -205Z"/>
</svg>