<svg xmlns="http://www.w3.org/2000/svg" viewBox="0 -800 1024 1024">
	<path fill="#000000" d="M317 -174Q312 -180 304 -188Q297 -195 290 -196Q285 -196 282 -188Q281 -185 281 -178V-160Q281 -151 280 -147Q293 -151 306 -155H308Q312 -172 317 -174ZM224 -292Q224 -318 218 -341Q200 -329 200 -297Q200 -276 207 -259Q208 -259 221 -262Q224 -275 224 -292ZM310 -438Q296 -430 289 -416Q287 -408 287 -404V-390Q278 -336 278 -329Q278 -311 285 -297Q297 -320 303 -363Q304 -372 310 -438ZM910 -572V-573Q919 -582 926 -578Q929 -578 931 -573Q925 -567 909 -567Q910 -569 910 -572ZM592 -196V-204Q592 -212 590 -215Q578 -209 568 -208Q566 -208 558 -210V-202Q558 -191 561 -182Q564 -183 572 -183H576Q590 -183 593 -188Q592 -190 592 -196ZM607 12V13H609Q616 11 622 9Q651 7 677 3Q689 -2 696 -14Q703 -25 709 -35Q672 -29 640 -18Q628 -14 618 -7Q607 1 607 12ZM724 -246Q720 -246 715 -247Q700 -247 664 -235Q658 -226 656 -195V-194Q662 -191 669 -191Q684 -192 698 -194Q700 -202 711 -217Q723 -235 724 -246ZM760 -111H734Q617 -111 550 -87Q557 -70 583 -70Q593 -70 618 -75Q720 -97 744 -100Q752 -106 760 -111ZM478 -499Q500 -510 506 -515Q500 -506 497 -497L498 -493Q501 -490 505 -490Q513 -490 524 -498Q532 -496 535 -496Q554 -500 578 -507Q559 -508 548 -517Q536 -526 524 -534Q525 -536 525 -539Q525 -546 518 -551L515 -552Q511 -551 507 -550L503 -551Q503 -559 507 -562Q511 -566 513 -571Q512 -584 501 -597Q503 -601 503 -607Q500 -617 497 -627Q513 -630 513 -651Q513 -666 507 -681Q513 -678 517 -665Q521 -652 528 -650Q531 -651 534 -658Q537 -664 541 -666Q546 -663 560 -663Q571 -663 577 -660Q583 -663 588 -670Q595 -680 602 -681Q598 -669 594 -650Q594 -642 598 -637Q600 -638 601 -644Q602 -650 605 -650Q609 -645 609 -640V-627Q610 -618 618 -604Q627 -588 627 -579Q627 -538 590 -507Q600 -513 614 -514Q627 -515 636 -518Q649 -547 661 -579Q673 -610 695 -633L712 -672Q710 -676 710 -681Q713 -701 716 -721Q716 -735 707 -741Q734 -752 758 -767Q781 -782 805 -797Q830 -769 855 -744Q881 -719 883 -671Q877 -665 877 -652V-630Q845 -623 819 -600Q803 -587 777 -554Q809 -569 870 -576Q867 -566 860 -558H862Q867 -558 879 -562Q894 -567 904 -567H906Q875 -554 875 -539Q875 -533 879 -528H886L889 -530Q889 -525 881 -512Q870 -494 870 -487Q870 -479 880 -473Q858 -452 848 -433H844Q828 -431 812 -430Q802 -430 798 -435L759 -426Q740 -419 719 -416Q697 -413 685 -401V-400L686 -396H690Q706 -398 722 -404Q728 -401 728 -395Q744 -397 759 -399Q752 -396 745 -392Q737 -389 736 -380Q737 -378 742 -378H753Q740 -372 740 -351V-344Q729 -336 700 -329Q677 -324 670 -320Q671 -317 671 -315Q670 -309 669 -303L670 -300Q687 -301 697 -307Q708 -314 719 -318L744 -309V-306Q744 -300 743 -294Q743 -289 747 -285Q770 -299 783 -303Q787 -304 789 -311Q791 -319 795 -320Q800 -300 805 -298H806Q812 -300 817 -303H818Q820 -302 820 -299V-294Q821 -287 827 -275Q836 -258 836 -251Q831 -241 831 -236Q831 -234 833 -226Q817 -220 803 -217Q788 -214 778 -201Q791 -203 804 -205Q814 -205 815 -198L849 -200Q851 -210 875 -215Q899 -219 922 -223L924 -222Q924 -220 920 -218H925Q941 -220 956 -223Q955 -218 947 -214Q938 -210 938 -205V-203Q939 -196 948 -196Q957 -196 966 -197Q962 -185 962 -182Q962 -179 963 -176Q966 -167 969 -158V-131Q968 -127 962 -120Q954 -110 954 -104V-102Q945 -97 935 -93Q926 -95 912 -101Q896 -108 878 -108Q866 -108 852 -105Q861 -92 872 -72H875Q881 -73 887 -74L890 -73Q887 -69 884 -66V-65Q894 -67 904 -69Q907 -69 909 -68Q889 -59 885 -41Q881 -22 878 1Q828 17 813 24L786 36Q759 58 749 68Q729 88 723 110H713Q693 110 683 103Q674 96 659 87L658 84Q659 81 659 78H653Q628 78 607 97Q595 100 585 100Q545 100 520 52L508 41Q479 30 450 18Q445 8 445 0Q446 -15 454 -29Q462 -43 467 -56H461Q447 -56 425 -67V-26Q418 -23 409 -8Q401 5 393 7Q391 8 386 8Q366 6 355 -19Q343 -44 335 -64H329Q309 -52 288 -40Q278 -36 268 -32Q215 -12 181 17Q148 45 119 92H112Q96 91 88 81Q79 70 71 57Q58 43 47 33Q35 23 34 4V2Q34 -5 42 -19Q48 -29 49 -33Q53 -52 57 -72Q67 -93 107 -115V-114Q106 -111 101 -105Q96 -98 95 -90V-89Q99 -83 103 -78Q134 -88 163 -101Q193 -114 230 -122Q228 -147 225 -159Q215 -155 202 -139Q184 -117 165 -116Q155 -124 144 -132Q132 -141 126 -155Q125 -170 123 -185Q115 -207 111 -227Q110 -233 105 -242Q101 -242 92 -254Q70 -284 51 -297Q41 -315 39 -340Q37 -365 34 -390Q38 -401 42 -404Q29 -453 27 -459H28Q33 -459 38 -448Q44 -435 51 -434Q28 -480 28 -504V-509Q34 -496 38 -483Q43 -469 52 -461V-463Q50 -473 48 -484V-486Q58 -474 68 -462Q73 -464 79 -477Q82 -475 88 -475Q100 -477 112 -480H114Q133 -478 148 -459Q154 -451 168 -425Q198 -449 213 -464Q214 -473 214 -483Q214 -515 203 -545Q198 -555 190 -566Q182 -578 181 -591V-593Q181 -612 209 -648Q229 -675 249 -675Q253 -675 255 -674Q263 -673 285 -645Q301 -624 304 -608Q305 -603 305 -594Q302 -568 299 -542Q325 -574 359 -607Q368 -615 380 -615Q393 -615 410 -604Q412 -605 417 -609Q422 -614 428 -614V-612Q427 -608 425 -604Q436 -614 445 -625Q454 -636 468 -642Q460 -629 450 -617Q440 -606 439 -590V-587Q439 -586 446 -596Q446 -563 455 -555Q458 -558 461 -561L463 -560Q464 -546 471 -524Q477 -505 478 -499ZM428 -417L425 -416L423 -388Q421 -381 419 -374Q421 -369 422 -364Q414 -358 407 -334Q393 -261 381 -184H374Q377 -177 393 -161Q398 -166 414 -172Q431 -179 438 -185L439 -182Q436 -176 432 -170Q435 -165 443 -165Q456 -166 468 -168H472Q470 -175 464 -181Q456 -189 456 -194V-196Q456 -203 465 -218Q476 -237 476 -247Q476 -252 475 -255Q481 -255 492 -251Q508 -245 517 -245H521Q525 -254 528 -266Q537 -269 555 -272Q580 -276 592 -282Q592 -292 590 -294L540 -301Q537 -311 530 -316Q522 -320 516 -326H518Q524 -327 530 -329L529 -332Q531 -337 533 -342Q567 -358 586 -363Q585 -374 578 -374Q571 -371 564 -369Q543 -365 521 -356Q510 -349 498 -342H492Q476 -342 463 -351Q448 -361 448 -376V-378Q429 -386 427 -411Q427 -415 428 -417Z"/>
</svg>