<svg xmlns="http://www.w3.org/2000/svg" viewBox="0 -800 1024 1024">
	<path fill="#000000" d="M614 -303Q613 -303 601 -301Q590 -299 573 -279Q555 -257 556 -240Q564 -234 577 -235Q587 -232 597 -229Q613 -231 613 -235Q614 -269 614 -303ZM269 -43Q265 -40 260 -40Q251 -40 242 -47Q245 -52 252 -52Q265 -52 269 -43ZM335 -305H332Q294 -295 264 -271Q259 -250 251 -233Q273 -241 297 -253Q309 -258 321 -262Q332 -266 338 -275Q343 -282 343 -293Q343 -305 335 -305ZM346 -404Q346 -462 353 -492Q319 -492 301 -466Q285 -443 285 -405Q285 -390 286 -383Q294 -385 309 -393Q329 -404 346 -404ZM698 -8Q709 -22 715 -44Q721 -65 728 -83Q667 -81 604 -34Q604 -15 610 -2Q642 -9 672 -11Q685 -11 698 -8ZM484 -171V-172Q488 -174 489 -174Q498 -171 505 -167Q503 -166 494 -166Q484 -166 484 -171ZM769 -385L790 -421Q779 -421 768 -422Q739 -422 703 -413Q700 -400 697 -387Q722 -392 742 -392Q762 -392 769 -385ZM611 -354Q608 -358 609 -375Q610 -394 605 -399Q554 -398 527 -375Q529 -373 536 -341Q544 -352 564 -352Q580 -352 590 -344Q601 -349 611 -354ZM656 -513Q660 -520 670 -530Q649 -529 631 -523Q611 -516 611 -506Q611 -501 616 -496Q623 -498 630 -500H631ZM703 -242Q705 -271 706 -300Q706 -325 692 -347Q689 -347 679 -337Q673 -329 673 -305Q674 -281 675 -258Q675 -246 674 -241Q677 -239 686 -239Q697 -239 703 -242ZM687 -131Q714 -135 728 -142Q766 -166 787 -188H802Q805 -189 808 -195Q811 -202 817 -202H819L821 -201Q819 -195 816 -189L817 -185Q817 -182 821 -182H829Q842 -145 867 -118Q867 -115 866 -113L867 -110Q875 -104 878 -80Q880 -61 884 -55Q879 -51 870 -48Q861 -44 860 -38Q860 -34 861 -32L829 -13Q832 -11 832 -7Q826 11 810 27Q768 84 759 134H754Q740 134 733 121H732Q719 121 707 110Q695 98 683 98Q683 81 675 76Q665 79 649 79Q629 79 617 86Q610 90 602 107Q593 127 582 128H578Q562 128 545 106Q531 88 521 86Q501 0 447 -54Q462 -74 480 -82Q499 -89 517 -100Q600 -111 613 -114Q603 -122 596 -123Q589 -146 564 -152Q538 -157 511 -166Q539 -163 563 -157Q520 -172 476 -187Q485 -186 508 -182Q544 -174 579 -166Q575 -170 564 -172Q556 -174 551 -176L540 -192Q539 -203 535 -212Q533 -213 528 -208Q522 -203 519 -202Q515 -201 511 -201Q492 -213 483 -230Q474 -247 465 -267Q491 -282 510 -313Q502 -314 489 -315Q477 -315 473 -325L444 -346Q432 -357 419 -369Q417 -311 417 -283Q417 -219 424 -166Q425 -147 426 -140Q425 -138 425 -133Q427 -119 429 -106Q429 -101 424 -96L427 -74Q436 -67 437 -53Q439 -39 441 -26Q445 -15 444 -14Q446 -2 446 4Q444 35 425 52Q407 69 392 89Q387 84 387 76Q366 67 339 35Q314 4 298 -3Q301 -6 303 -6Q310 -2 317 1Q319 1 321 -1Q307 -12 269 -21Q241 -28 230 -33H235Q276 -27 316 -22Q321 -22 325 -23Q305 -37 273 -42Q277 -43 286 -43L305 -41Q318 -39 324 -41Q334 -65 335 -97Q336 -129 337 -161Q282 -156 241 -122Q235 -125 230 -125Q210 -125 197 -77Q186 -41 183 -17Q161 -17 143 7Q143 -12 125 -18Q117 -21 88 -23Q76 -59 61 -86Q61 -90 67 -94Q71 -97 72 -101Q66 -117 42 -134Q23 -148 16 -158L70 -133Q104 -179 127 -249Q143 -297 162 -386L167 -410Q159 -413 156 -424Q154 -435 150 -444Q143 -456 134 -464Q139 -486 141 -510Q144 -534 156 -549Q152 -567 147 -573H149Q152 -573 158 -567Q163 -562 167 -561Q169 -567 169 -569Q169 -577 159 -591Q152 -602 150 -607Q157 -604 167 -593Q179 -580 186 -579Q184 -595 174 -607Q164 -620 156 -633H158Q161 -633 170 -624Q205 -594 215 -584Q218 -584 221 -585Q231 -585 246 -572Q257 -562 264 -561L257 -575Q299 -612 309 -624Q320 -637 332 -660Q348 -690 364 -702Q381 -714 393 -714Q403 -714 415 -710Q420 -715 424 -717L427 -716Q426 -714 426 -708Q426 -694 435 -689Q441 -693 446 -700Q450 -707 459 -708Q451 -703 451 -677L453 -676Q457 -678 461 -681L462 -680Q473 -647 485 -618Q467 -591 457 -572Q452 -559 447 -545Q443 -531 433 -522L430 -512Q428 -482 425 -453L427 -454V-450Q427 -437 438 -432Q441 -432 441 -436Q441 -440 444 -440Q448 -435 464 -433Q476 -431 480 -427L555 -443Q546 -450 536 -456Q526 -463 520 -472Q527 -483 533 -494Q527 -500 510 -504Q509 -514 494 -525Q477 -538 477 -551V-555Q482 -566 493 -578Q498 -598 508 -611Q515 -617 536 -620L537 -619Q535 -616 532 -613V-612Q536 -608 543 -608Q559 -610 574 -613Q579 -613 581 -612Q604 -623 634 -628Q629 -660 623 -673Q613 -696 590 -701Q586 -708 586 -712Q588 -722 599 -735Q602 -741 605 -747Q618 -760 649 -762Q652 -766 655 -771Q660 -772 665 -773H671Q704 -772 720 -755Q737 -738 757 -723L752 -706L736 -701L732 -692Q732 -684 725 -671Q717 -656 717 -648Q751 -656 776 -671Q773 -664 770 -657Q775 -656 778 -653Q809 -668 853 -673Q841 -668 828 -663Q814 -658 813 -647V-644Q828 -650 843 -653Q842 -650 836 -645Q831 -640 830 -634Q830 -631 832 -628Q840 -630 847 -633H850Q838 -625 838 -611Q838 -602 843 -594Q837 -582 815 -574Q784 -562 779 -559Q798 -538 798 -526Q798 -520 797 -517Q774 -512 756 -498Q743 -487 729 -469H731Q768 -470 807 -480Q847 -490 883 -496H891Q903 -496 915 -493Q925 -495 934 -497H938L940 -496Q938 -493 936 -491Q942 -492 948 -497Q955 -503 961 -504V-503Q961 -500 955 -494Q945 -484 945 -478V-476H946Q952 -476 955 -481Q958 -486 963 -486Q960 -478 960 -473Q960 -461 979 -433L966 -393H963Q944 -389 925 -386Q922 -386 918 -388L887 -363Q858 -344 835 -323Q813 -329 806 -329Q797 -324 797 -307V-281L792 -273Q797 -272 803 -253Q807 -239 807 -235Q807 -233 805 -225Q781 -218 771 -196Q767 -195 761 -200Q756 -204 755 -204Q746 -203 734 -200Q721 -197 709 -199Q703 -217 692 -220L693 -222L697 -221L699 -222V-223Q698 -229 691 -230Q684 -231 677 -233Q674 -225 674 -219Q676 -202 677 -186V-180L674 -176Q692 -166 692 -149Q692 -141 687 -131Z"/>
</svg>