<svg xmlns="http://www.w3.org/2000/svg" viewBox="0 -800 1024 1024">
	<path fill="#000000" d="M794 -459Q789 -445 774 -445Q776 -460 788 -460Q792 -460 794 -459ZM120 -33V-36H122Q134 -36 140 -20Q138 -19 134 -19Q122 -19 120 -33ZM833 -232Q839 -236 842 -236Q849 -236 850 -228Q846 -215 841 -203Q833 -206 833 -232ZM449 -41V-62Q449 -107 438 -132Q447 -153 470 -155V-156L469 -158Q477 -161 485 -165Q488 -166 494 -166Q518 -164 530 -146Q541 -128 553 -111Q551 -97 551 -87Q551 -73 556 -66Q539 -46 539 -14Q539 -3 542 9Q529 18 516 31Q503 45 487 46Q476 46 467 38Q449 11 449 -41ZM267 116H265Q245 112 229 108Q223 108 217 111Q220 105 223 99Q208 83 199 60Q196 63 194 63Q193 53 187 47Q185 45 173 38Q175 32 175 31Q175 21 161 9Q148 -2 148 -8L151 -10Q155 -10 164 0Q171 7 173 7H174Q179 5 179 1Q178 -7 170 -18Q163 -28 160 -31Q133 -60 97 -92Q79 -107 68 -123Q93 -110 137 -72Q176 -39 201 -24Q259 -49 340 -112Q364 -131 371 -165Q372 -167 373 -169H379Q380 -166 380 -164Q380 -156 379 -148Q379 -137 382 -134Q384 -135 385 -139Q387 -144 390 -144H392Q392 -140 391 -136Q391 -119 408 -108V-103Q408 -87 416 -69Q404 -48 402 -39Q357 9 311 57Q300 69 299 84Q289 89 282 98Q275 107 267 116ZM392 -387H389Q355 -387 336 -431Q272 -427 226 -390Q216 -381 207 -368Q197 -354 184 -353Q181 -353 179 -354Q166 -363 152 -372Q135 -376 120 -384Q101 -398 101 -418Q101 -430 109 -441Q107 -447 98 -460Q87 -476 87 -487V-489Q88 -500 104 -524Q119 -546 120 -555Q127 -559 134 -573Q142 -591 154 -592Q148 -580 148 -569V-564Q154 -554 185 -554Q212 -555 273 -573Q270 -587 268 -600Q266 -613 255 -621Q250 -623 246 -623Q242 -624 238 -629Q241 -633 245 -633Q256 -630 266 -627H267L268 -629Q265 -639 250 -640Q251 -647 257 -647Q267 -644 276 -642L278 -644Q276 -648 274 -652L275 -654L277 -657Q282 -656 286 -655H287Q295 -661 309 -661Q335 -657 360 -653Q364 -653 368 -654Q391 -642 425 -604Q440 -607 491 -621L492 -617Q492 -615 490 -609Q499 -610 517 -610H530Q525 -602 522 -595L523 -591Q525 -588 527 -588Q532 -588 536 -589H539Q536 -583 532 -580Q543 -570 546 -539Q548 -515 552 -507Q551 -502 543 -496Q536 -491 536 -487Q536 -484 537 -482Q515 -478 492 -476Q468 -474 451 -465Q451 -431 443 -402Q418 -393 392 -387ZM912 116H905Q893 116 888 120Q883 116 873 116H866Q815 86 721 84Q679 88 636 92Q610 92 597 79Q581 56 579 19V16Q585 -14 598 -44Q613 -87 613 -110Q613 -121 610 -135Q605 -143 602 -152V-157Q603 -172 611 -181Q619 -191 626 -200Q620 -200 614 -201Q600 -201 546 -188Q518 -182 490 -177Q474 -170 461 -160Q447 -151 428 -150H426Q396 -180 391 -200Q386 -215 386 -227Q387 -238 401 -248Q413 -256 416 -263Q409 -257 399 -256Q378 -247 359 -232Q339 -217 315 -215Q302 -215 285 -224V-226Q283 -235 281 -245V-247Q271 -249 261 -254Q250 -259 249 -272V-274Q254 -287 258 -301Q259 -325 266 -341Q270 -347 283 -355Q294 -362 296 -367Q310 -359 333 -359Q344 -359 362 -363Q379 -370 386 -372Q438 -381 478 -390Q478 -407 465 -413Q472 -421 472 -433Q472 -437 470 -447Q493 -454 503 -454Q520 -454 527 -442Q529 -442 532 -445Q535 -448 539 -448H542Q541 -445 541 -438Q541 -414 556 -405Q561 -407 562 -411Q562 -417 559 -421Q556 -424 553 -428Q554 -436 564 -455Q575 -478 576 -492Q576 -501 569 -517Q562 -533 561 -538Q555 -564 555 -580Q557 -586 558 -592Q557 -603 550 -611Q544 -620 540 -627H542Q547 -627 555 -621Q562 -616 568 -615H572Q583 -615 602 -622Q623 -630 631 -630Q637 -636 638 -646Q639 -657 641 -669Q646 -681 651 -693V-697Q651 -720 625 -727V-730Q625 -733 628 -734Q631 -735 634 -736Q630 -746 612 -755Q592 -765 588 -772H595Q617 -768 639 -765Q648 -765 653 -767Q678 -779 702 -801Q715 -812 719 -814Q731 -822 743 -822Q750 -822 759 -819Q778 -796 795 -771Q813 -746 819 -711Q815 -694 802 -682Q799 -679 776 -663Q788 -663 813 -672Q841 -682 859 -682L861 -681Q859 -677 857 -673Q857 -671 859 -669H861Q872 -671 883 -674Q886 -674 890 -672Q889 -669 882 -665Q876 -661 875 -657Q877 -651 879 -646L881 -645Q886 -646 890 -648H893Q888 -642 887 -633Q910 -596 910 -579Q910 -568 903 -564Q903 -561 907 -558Q912 -554 912 -550V-549H911Q909 -550 906 -551H905Q881 -527 824 -517Q747 -503 708 -489Q689 -486 675 -479Q645 -458 645 -425Q681 -433 694 -444Q706 -437 714 -437Q720 -437 727 -441Q727 -429 730 -426Q737 -427 747 -432Q762 -439 771 -439Q764 -432 755 -427Q747 -422 746 -410Q748 -407 750 -407Q754 -407 757 -408L761 -407Q754 -402 754 -387Q754 -379 756 -363Q741 -352 727 -339Q720 -340 703 -340Q686 -340 676 -339Q633 -337 594 -330Q549 -322 532 -310Q527 -306 522 -295Q516 -281 509 -278Q593 -291 635 -313Q631 -303 631 -295Q631 -290 632 -287Q634 -286 639 -286Q655 -288 670 -291H672Q665 -286 657 -283Q649 -281 645 -273Q646 -269 648 -269Q653 -271 657 -273L660 -272V-271Q657 -264 653 -258V-253Q655 -237 656 -221V-218Q661 -216 670 -207Q681 -196 690 -196Q693 -196 699 -198V-193Q699 -170 712 -165Q711 -163 711 -160Q713 -151 718 -143Q705 -113 691 -83Q677 -54 662 -26H677Q713 -27 749 -28H758Q766 -27 774 -27Q802 -27 810 -39Q818 -49 819 -76Q820 -104 827 -114Q830 -103 831 -81Q832 -48 839 -40Q843 -55 843 -76Q840 -123 837 -170Q837 -182 838 -188Q846 -176 847 -159Q849 -142 850 -125Q855 -67 860 -48Q863 -52 863 -70V-120Q863 -142 869 -149Q875 -116 875 -78Q876 -41 893 -18Q895 -18 897 -22Q899 -26 903 -26H905Q906 -10 919 14Q932 38 932 50Q932 60 924 73V74Q924 76 930 79Q930 82 927 83Q924 84 924 86V87Q927 91 930 94V95Q921 106 912 116Z"/>
</svg>