<svg xmlns="http://www.w3.org/2000/svg" viewBox="0 -800 1024 1024">
	<path fill="#000000" d="M85 -514V-517Q85 -529 102 -529Q106 -529 108 -528Q99 -515 85 -514ZM188 -665V-669Q187 -675 186 -681Q186 -684 188 -685H190Q197 -683 202 -679Q220 -686 239 -689Q258 -692 268 -706Q276 -703 278 -696Q280 -690 285 -684Q293 -679 301 -675Q314 -662 324 -648Q327 -648 330 -653Q333 -658 338 -658L341 -657Q339 -651 339 -640Q345 -606 368 -587Q377 -558 377 -536Q377 -512 365 -497Q355 -490 345 -483Q334 -473 323 -468Q315 -466 311 -466Q296 -466 269 -487Q247 -504 235 -507Q230 -507 221 -500Q216 -496 213 -496Q212 -498 212 -501Q212 -505 223 -519Q223 -522 220 -522Q216 -522 216 -525Q189 -521 183 -519Q171 -515 153 -502Q138 -491 128 -487Q129 -496 138 -504Q147 -511 157 -519Q162 -523 175 -533Q188 -544 190 -552Q190 -557 183 -558Q181 -559 176 -559Q163 -559 140 -544Q123 -533 115 -533Q119 -541 127 -546Q135 -551 144 -556Q165 -563 167 -582Q167 -585 166 -588Q153 -588 144 -591Q154 -599 164 -608Q162 -625 145 -640Q126 -657 122 -668Q137 -655 159 -655Q175 -655 188 -665ZM909 -508Q907 -487 900 -474Q897 -489 897 -497Q897 -509 905 -509ZM660 -461Q642 -483 625 -505Q609 -528 586 -545Q566 -505 545 -463Q525 -421 515 -375Q533 -387 553 -400Q572 -413 588 -429Q593 -438 602 -446Q628 -456 660 -461ZM468 -266Q462 -265 461 -260Q459 -256 458 -252H456Q450 -249 445 -245Q372 -258 370 -326Q372 -339 374 -352V-357Q372 -364 365 -376Q358 -387 357 -393L361 -394Q369 -390 376 -384Q395 -397 409 -418Q422 -439 436 -458L461 -497Q455 -501 455 -508Q459 -524 467 -537Q491 -594 494 -601Q508 -638 511 -672Q501 -691 501 -710Q507 -765 546 -788Q558 -794 577 -794Q600 -794 609 -785Q614 -778 618 -771Q622 -766 630 -760Q641 -752 642 -750Q657 -727 660 -702V-700Q660 -688 653 -673Q647 -660 647 -652V-648Q647 -639 656 -630Q666 -619 667 -611Q718 -561 761 -503Q761 -501 766 -500Q770 -499 771 -497Q773 -491 775 -486Q775 -483 772 -482L792 -465Q801 -461 815 -447Q833 -428 850 -425Q854 -432 856 -450Q859 -475 864 -482Q865 -475 865 -468Q865 -457 864 -447Q864 -417 870 -404Q880 -421 880 -447Q878 -474 876 -501Q876 -526 886 -542Q885 -534 885 -518Q889 -472 893 -426V-397Q893 -383 899 -375Q902 -383 902 -401Q901 -424 900 -448Q900 -455 902 -467Q909 -458 909 -443Q909 -432 908 -421V-417Q911 -397 926 -357Q945 -307 945 -274Q945 -258 942 -240Q934 -238 920 -230Q901 -219 887 -219Q843 -225 812 -257Q807 -266 802 -275Q799 -280 789 -289Q779 -298 775 -305Q764 -317 751 -341Q741 -361 735 -368Q729 -377 717 -386Q717 -396 708 -401Q711 -392 714 -383Q710 -373 708 -359Q701 -356 695 -347Q691 -340 687 -338Q667 -329 644 -324Q621 -317 604 -301Q588 -285 573 -267H569Q547 -267 511 -284H508Q505 -284 503 -281Q499 -276 496 -276H495L493 -279Q497 -287 500 -296L498 -297Q496 -297 493 -297L491 -298ZM611 -279Q635 -293 661 -300Q689 -314 708 -335L709 -332Q708 -325 707 -319Q707 -315 708 -314L710 -313Q711 -313 714 -317Q718 -322 720 -322L723 -321Q722 -314 720 -307Q724 -280 736 -258Q728 -239 711 -227Q693 -214 676 -203Q659 -192 641 -180Q623 -169 612 -151Q580 -143 567 -137Q553 -139 534 -153Q514 -168 502 -168Q497 -168 493 -167V-170Q495 -174 500 -177Q495 -185 482 -185Q455 -180 441 -174Q443 -183 453 -188Q455 -189 470 -195L503 -213Q535 -238 547 -242Q592 -272 611 -279ZM457 -59Q508 -76 552 -96Q592 -110 628 -126Q642 -135 655 -145Q739 -193 746 -196Q757 -206 786 -250L788 -247Q781 -226 781 -215Q781 -210 782 -208Q786 -209 789 -215Q792 -221 795 -222Q797 -218 797 -213Q797 -205 796 -198Q804 -192 806 -167Q808 -149 812 -141Q777 -81 708 -30Q688 -26 675 -15Q663 -3 647 5L597 50Q594 60 585 68Q576 75 566 83Q557 92 545 101Q534 109 517 112Q509 111 498 100Q490 92 484 92Q480 75 458 68Q455 43 450 34Q442 19 422 18Q430 12 435 11Q431 2 421 -3L420 -1Q422 4 413 8Q408 11 402 14L396 18Q371 36 354 54Q347 57 343 56L337 65Q325 80 308 86Q292 95 273 87Q243 78 217 73Q214 73 213 70Q211 66 209 66H207Q188 66 174 75V74Q174 67 199 58Q192 44 192 27Q192 -11 206 -24L213 -25Q207 -29 200 -33L201 -34Q209 -34 212 -33Q219 -39 223 -76V-77Q221 -98 231 -184Q224 -239 231 -281Q192 -269 162 -211Q150 -208 141 -208Q139 -208 129 -210Q118 -218 106 -243Q97 -261 91 -269Q85 -277 78 -286V-290Q80 -296 81 -302V-304Q80 -317 78 -331Q79 -333 79 -338Q76 -344 61 -356Q54 -362 50 -367Q52 -369 56 -369Q68 -364 80 -355Q77 -369 54 -385Q35 -398 30 -408Q43 -407 62 -391Q77 -378 87 -376Q88 -384 73 -393Q59 -401 57 -409Q75 -403 92 -392Q98 -389 102 -389Q106 -391 110 -394Q115 -396 127 -396Q136 -395 144 -395Q151 -395 154 -396Q182 -400 188 -402Q193 -400 197 -399L210 -401Q212 -413 225 -413H228Q240 -423 255 -430Q261 -429 266 -429Q271 -429 274 -430H275Q280 -427 285 -425Q291 -427 302 -435Q313 -443 321 -445V-444Q321 -440 315 -437Q310 -434 305 -430Q300 -424 299 -414Q299 -410 300 -407Q305 -408 314 -414Q325 -422 331 -423Q314 -411 314 -398Q314 -389 323 -385Q325 -385 328 -388Q331 -391 335 -391H338L339 -390Q337 -386 334 -383L336 -380L338 -378Q341 -379 344 -380Q339 -373 339 -363Q340 -346 341 -330Q341 -323 340 -320L343 -305Q346 -300 346 -290Q343 -276 339 -262Q334 -257 328 -259Q311 -258 306 -232Q302 -207 304 -171Q311 -92 308 -52Q324 -63 342 -75Q350 -81 336 -104Q326 -121 321 -136Q326 -133 335 -121Q350 -103 357 -100Q360 -108 338 -140L361 -117L329 -174L373 -122L365 -145Q370 -138 380 -126Q366 -144 360 -160Q367 -158 371 -154Q376 -146 380 -138Q388 -127 395 -118Q403 -107 412 -101Q435 -85 445 -74Q448 -73 450 -69Q454 -65 457 -59Z"/>
</svg>