<svg xmlns="http://www.w3.org/2000/svg" viewBox="0 -800 1024 1024">
	<path fill="#000000" d="M316 8Q314 12 291 45Q276 65 269 85H261Q231 84 198 71Q173 61 150 45Q150 39 154 36Q147 32 112 7Q82 -13 70 -27Q117 -7 164 13Q171 15 176 11Q201 -9 231 -42Q226 -47 216 -52Q205 -56 194 -61Q166 -75 166 -84Q168 -91 170 -99Q172 -108 169 -114Q201 -124 226 -119Q243 -116 279 -106Q298 -141 314 -157Q304 -159 297 -156Q293 -154 288 -153Q284 -152 280 -151Q270 -153 266 -153H252Q234 -155 228 -163Q224 -168 214 -174Q205 -181 204 -185Q205 -194 206 -203Q205 -207 203 -213Q202 -217 200 -222Q198 -231 208 -241Q216 -240 223 -240Q231 -243 249 -246Q259 -248 283 -252Q332 -263 340 -267Q353 -274 365 -281Q379 -288 395 -288Q406 -288 410 -285Q412 -284 414 -283Q416 -281 419 -281Q422 -281 424 -282L428 -284Q434 -286 441 -286V-280Q441 -276 442 -275Q445 -272 451 -274H457Q460 -274 462 -273Q462 -264 465 -263H466L469 -262Q472 -262 476 -259Q482 -247 487 -241Q494 -232 501 -224Q520 -203 520 -186Q520 -177 514 -167Q505 -162 496 -161Q485 -158 474 -156Q447 -152 436 -145Q410 -113 383 -82Q401 -75 408 -73H416Q420 -82 423 -92Q425 -97 427 -99Q430 -102 439 -102V-98Q443 -89 439 -81Q437 -74 438 -65Q443 -59 447 -53Q455 -47 455 -40Q455 -33 454 -21Q454 -7 438 2Q423 11 400 11H395Q384 11 349 0Q344 -2 326 -7ZM569 -468Q562 -469 549 -469Q511 -469 479 -463Q431 -454 430 -437Q442 -441 502 -445Q554 -448 567 -452Q568 -460 569 -468ZM573 -526Q573 -533 572 -536Q542 -533 494 -529Q445 -525 432 -506H439Q499 -512 573 -526ZM575 -601Q575 -610 572 -618Q562 -614 514 -609Q449 -602 436 -593Q440 -587 443 -582Q506 -594 575 -601ZM810 -743Q810 -732 803 -732Q795 -731 787 -729Q787 -737 796 -742Q804 -746 810 -743ZM765 48L725 37Q705 36 689 26Q675 16 660 5Q657 3 654 1Q652 -1 646 -5Q645 -6 633 -12Q614 9 596 31Q568 62 566 63Q564 62 560 62Q555 64 550 65Q546 68 539 68Q529 68 515 60Q501 50 493 48V45Q493 38 486 33Q484 32 481 29Q484 20 484 12Q484 -12 462 -37Q474 -33 483 -28Q491 -23 498 -19Q509 -22 549 -54Q500 -83 495 -104Q495 -107 496 -109Q496 -111 498 -115Q504 -125 522 -125H528Q555 -119 611 -107Q649 -140 666 -157Q641 -154 641 -141V-138Q616 -130 592 -132Q576 -133 558 -154Q540 -175 540 -192V-217Q540 -227 552 -234Q563 -239 573 -244Q580 -249 582 -252Q584 -254 586 -255Q561 -277 532 -304Q533 -307 539 -305Q546 -304 546 -307Q544 -317 536 -319Q527 -321 520 -323Q507 -328 494 -334Q514 -333 534 -333Q557 -333 563 -347H538Q493 -346 457 -339Q420 -331 378 -324L323 -310Q290 -301 247 -288Q204 -275 178 -258Q141 -264 134 -296Q100 -296 100 -335Q100 -361 119 -365Q117 -373 117 -386Q117 -408 149 -435Q179 -460 201 -460Q181 -453 178 -428Q209 -412 248 -412Q284 -412 342 -421Q334 -490 338 -550Q324 -548 310 -534Q295 -519 280 -519Q263 -519 252 -529Q225 -557 198 -586Q198 -611 211 -634Q181 -650 174 -674Q182 -670 193 -661Q206 -651 215 -648Q214 -658 209 -663Q203 -667 196 -675Q217 -667 225 -674Q225 -675 221 -677Q217 -679 217 -683Q235 -683 252 -692Q266 -700 274 -701H279Q307 -697 335 -693Q363 -696 391 -703Q485 -722 575 -743H613Q625 -770 657 -776Q689 -782 719 -786Q723 -786 723 -784Q723 -782 724 -778Q738 -781 751 -785Q749 -780 742 -775Q734 -770 732 -766Q742 -766 755 -772Q773 -780 784 -780Q780 -774 758 -761Q739 -750 739 -736Q740 -727 749 -727Q757 -728 764 -731Q771 -734 780 -730Q748 -717 750 -700Q752 -690 764 -693Q764 -688 759 -680Q754 -672 754 -665Q756 -658 758 -651V-648Q756 -631 746 -618Q730 -620 718 -620Q705 -620 700 -618Q695 -616 688 -609Q682 -599 679 -567Q676 -532 667 -522L666 -507Q673 -504 673 -484Q673 -469 676 -464Q719 -475 773 -478Q822 -481 845 -510Q850 -518 854 -543Q858 -568 866 -580V-572Q866 -550 865 -529Q865 -507 869 -491Q875 -483 902 -481Q900 -472 898 -464Q898 -456 904 -452Q906 -450 909 -453Q913 -458 919 -455Q880 -361 806 -357V-361L787 -365Q784 -364 777 -364Q752 -364 727 -365Q718 -365 713 -360Q704 -365 687 -365Q674 -364 664 -359Q667 -328 669 -298Q648 -277 632 -250Q635 -252 645 -256Q652 -258 668 -262Q711 -276 714 -278Q728 -278 742 -272Q747 -269 752 -267Q758 -265 763 -263Q768 -263 770 -265L772 -267Q773 -268 777 -268Q781 -268 781 -265Q781 -262 781 -260L782 -257Q788 -258 795 -263Q803 -268 809 -268H812V-266Q812 -264 810 -262Q800 -247 800 -242Q800 -236 805 -232Q810 -234 815 -234Q818 -232 817 -228Q816 -223 814 -219L813 -217V-216Q814 -210 823 -199Q832 -185 832 -179V-175Q829 -162 808 -157Q790 -152 771 -147Q750 -139 698 -86Q712 -82 796 -60Q800 -58 804 -56Q806 -54 810 -52H811L812 -53Q815 -53 817 -54H818Q823 -52 825 -50Q829 -48 833 -48L835 -49L839 -50Q843 -55 845 -72Q849 -103 853 -109L854 -72L860 -71Q860 -82 860 -93Q864 -140 870 -148Q873 -134 873 -104Q872 -82 870 -61Q870 -45 877 -28Q879 -32 879 -42Q879 -50 878 -58Q879 -66 879 -74Q887 -52 905 1Q915 5 919 14Q925 25 929 28Q928 31 928 35Q928 43 933 51Q928 59 923 67Q919 73 917 84L856 93Q848 88 830 82Q821 78 803 72Q778 62 765 48ZM612 -233Q610 -234 607 -235Q603 -239 596 -245Q592 -240 592 -233Q592 -226 597 -221Z"/>
</svg>