<svg xmlns="http://www.w3.org/2000/svg" viewBox="0 -800 1024 1024">
	<path fill="#000000" d="M832 -673H835Q832 -665 828 -657Q826 -658 823 -658Q820 -657 816 -657Q819 -663 821 -668Q824 -673 832 -673ZM608 74Q595 85 565 85Q540 85 529 88Q508 71 477 67H472Q471 56 459 41Q448 27 447 14L444 13Q437 16 430 19H429Q430 0 448 -4Q467 -49 524 -121Q564 -172 581 -200Q554 -181 530 -159H525Q510 -160 500 -166Q490 -172 477 -178Q471 -196 454 -205Q437 -214 435 -235V-240Q435 -279 451 -296Q455 -296 456 -288Q457 -280 462 -280Q471 -282 477 -290Q499 -293 516 -304Q532 -315 552 -328Q563 -334 585 -343Q609 -353 618 -359Q629 -369 641 -377Q645 -379 660 -381Q676 -383 683 -389Q695 -400 703 -418Q707 -416 708 -406Q709 -395 713 -394H714Q721 -396 727 -400V-398Q727 -392 726 -387V-385Q745 -372 767 -363V-361Q767 -357 766 -353Q770 -353 778 -358Q790 -366 798 -366H799Q797 -362 789 -356Q779 -349 777 -343V-342Q777 -338 781 -338Q785 -338 788 -337Q787 -335 784 -333Q780 -331 780 -327V-326Q790 -313 790 -292Q790 -276 789 -260Q789 -244 792 -236L789 -234Q786 -234 780 -240Q747 -235 728 -214Q710 -194 685 -179L652 -143Q645 -122 617 -95Q592 -70 584 -55H604Q635 -55 695 -62Q755 -69 791 -69Q811 -69 822 -68Q828 -74 832 -97Q836 -119 844 -127V-116Q844 -93 851 -83Q859 -102 859 -126Q855 -184 850 -243Q850 -256 851 -262Q858 -239 863 -183Q867 -138 872 -115Q873 -121 873 -133Q872 -164 870 -196Q870 -210 873 -224Q878 -221 878 -214Q878 -208 877 -203Q879 -180 880 -154Q881 -128 886 -109Q889 -121 889 -136Q889 -154 888 -172Q888 -185 889 -190Q895 -178 899 -134Q904 -93 910 -77Q920 -50 943 -38Q946 -22 953 -10Q953 23 945 58Q944 60 936 61Q930 62 929 64L928 67Q930 70 931 72L930 74Q929 76 925 78Q920 80 920 84V86Q909 83 897 80L896 83V86Q867 72 813 72Q784 73 755 73Q718 73 693 67ZM309 -425Q308 -468 306 -511Q306 -529 307 -538Q292 -523 291 -496Q290 -469 288 -442Q277 -434 274 -416Q276 -416 309 -425ZM239 -260V-256Q273 -268 307 -280Q305 -286 305 -290Q306 -299 306 -308Q306 -317 303 -320Q295 -319 283 -311Q270 -302 262 -302Q255 -302 251 -304Q239 -285 239 -260ZM435 -660Q440 -647 440 -636Q440 -632 439 -628Q435 -620 432 -610Q433 -607 433 -605Q417 -603 411 -591Q405 -579 404 -563Q405 -523 393 -494L384 -407Q394 -398 394 -364Q394 -345 393 -338V-337Q396 -334 399 -332V-331Q399 -192 403 -132Q411 -15 437 52Q433 57 431 71Q429 85 427 88H422Q405 88 405 105Q380 86 356 86Q353 75 335 62Q321 52 316 43Q313 33 310 22Q303 11 295 0Q292 -11 289 -22Q282 -34 261 -42Q241 -50 233 -58Q254 -57 270 -50Q286 -44 303 -38Q297 -47 286 -52Q275 -57 265 -62L224 -83H226Q243 -83 264 -74Q285 -65 297 -65H303Q308 -74 308 -97Q307 -131 305 -165Q305 -175 307 -191H303Q292 -191 277 -177Q264 -165 258 -164Q256 -163 253 -163Q238 -166 223 -170Q215 -166 215 -151V-146Q206 -133 192 -75Q181 -29 157 -17Q149 -21 140 -21Q117 -21 107 8Q109 -8 110 -25Q110 -47 91 -50Q86 -65 73 -76V-81Q69 -106 65 -131Q65 -135 67 -143Q65 -153 44 -157Q49 -164 57 -165Q65 -167 71 -170Q84 -178 92 -209Q101 -241 115 -248L129 -302Q126 -311 126 -321Q126 -334 134 -362Q141 -387 142 -401L147 -464Q116 -502 85 -541H92Q106 -541 112 -546Q107 -551 93 -558Q76 -566 71 -574Q97 -570 122 -562Q131 -563 148 -574Q164 -584 175 -586Q194 -585 212 -592Q214 -597 215 -602Q229 -618 246 -636Q263 -655 273 -676Q278 -701 288 -724Q308 -748 357 -752Q382 -752 393 -737Q396 -741 404 -743H407V-728Q411 -730 414 -735Q419 -742 425 -742H427Q417 -728 417 -714Q420 -690 434 -665Q441 -680 464 -729Q474 -752 489 -767Q516 -792 542 -792Q554 -792 570 -789Q581 -784 600 -767Q621 -748 637 -742Q637 -732 649 -708V-707Q647 -703 645 -700V-691Q645 -668 629 -636Q616 -610 614 -593Q640 -597 700 -623Q732 -639 736 -645Q740 -651 742 -658Q743 -665 751 -668Q749 -664 749 -655Q749 -643 756 -636Q803 -653 808 -654V-652Q808 -649 797 -644Q778 -635 777 -626Q780 -621 785 -617Q795 -623 803 -627Q805 -627 809 -625V-624Q808 -619 802 -614Q795 -609 791 -604Q799 -590 810 -590H814Q812 -586 812 -578Q815 -562 818 -546Q818 -536 809 -530Q814 -523 816 -513V-511Q813 -512 810 -513L808 -512V-504Q808 -485 795 -485V-482Q797 -477 798 -472V-470H796Q785 -470 770 -463Q752 -455 741 -455L687 -437Q678 -427 653 -418Q623 -408 617 -394Q570 -377 519 -334Q510 -338 497 -342Q483 -346 474 -353Q467 -363 464 -372Q457 -381 449 -388Q442 -395 439 -404Q436 -413 431 -457V-463Q434 -498 462 -516Q465 -534 470 -552Q474 -569 493 -573L496 -605Q493 -611 493 -616Q496 -632 499 -649V-654Q491 -659 482 -664Q472 -659 461 -655L457 -656V-657Q457 -659 461 -662Q465 -665 465 -669V-670H461Q447 -668 435 -660Z"/>
</svg>