<svg xmlns="http://www.w3.org/2000/svg" viewBox="0 -800 1024 1024">
	<path fill="#000000" d="M371 58Q368 59 364 59Q354 59 346 51Q349 47 356 47Q369 47 371 58ZM803 -484V-481Q803 -476 796 -471Q791 -467 790 -463Q788 -469 788 -472Q788 -486 797 -486Q801 -486 803 -484ZM532 -53V-55Q499 -55 492 -39Q504 -35 516 -31Q518 -36 524 -42Q532 -49 532 -53ZM593 -238H581Q544 -238 544 -223Q544 -218 546 -215Q559 -220 575 -222H578Q586 -230 593 -238ZM433 -486V-483Q453 -488 472 -493Q470 -507 470 -513Q470 -520 472 -526Q464 -526 454 -519Q447 -514 440 -513Q437 -499 433 -486ZM519 -126V-124Q521 -120 522 -117Q550 -119 592 -129Q591 -132 591 -136Q592 -149 601 -153Q611 -157 617 -165Q572 -159 559 -157Q525 -151 509 -141Q511 -138 518 -137Q526 -136 528 -133Q522 -132 519 -126ZM643 -339V-340Q618 -338 594 -336Q569 -335 553 -324Q552 -313 550 -303Q550 -300 552 -294Q563 -296 620 -304Q626 -312 634 -322Q642 -331 643 -339ZM722 93V95Q705 98 699 109Q669 98 624 72Q571 41 544 32Q524 43 514 65Q503 86 494 107H492Q478 109 475 122H472Q461 120 450 118Q447 118 445 119Q437 113 427 107Q417 101 414 89Q409 81 394 71Q382 63 377 58Q394 62 410 66Q404 60 386 52Q361 41 354 33Q386 42 417 51Q383 32 344 21Q407 30 422 30Q448 30 460 21Q456 18 451 18Q439 22 427 26Q406 25 386 -8Q355 -6 333 5Q312 17 292 29Q274 24 258 18Q250 12 240 -10Q228 -36 220 -42Q219 -46 219 -53Q219 -70 231 -85Q238 -94 255 -108Q272 -121 300 -130V-129Q300 -127 296 -123Q292 -119 292 -114V-112Q293 -99 320 -99Q328 -99 349 -102Q391 -105 433 -109Q430 -121 430 -122Q430 -125 431 -127Q424 -124 418 -124Q401 -125 392 -141Q382 -156 374 -169Q374 -173 378 -174Q381 -175 384 -175Q384 -179 379 -181Q374 -183 374 -186Q390 -187 420 -195Q451 -203 472 -204Q474 -209 476 -215H466Q449 -215 413 -207Q301 -182 252 -157Q231 -144 210 -132Q178 -115 163 -115Q154 -119 145 -124Q135 -128 123 -133Q111 -138 104 -147V-154Q104 -168 94 -186Q86 -200 86 -208Q86 -215 92 -226Q106 -246 141 -257Q176 -267 205 -274Q200 -267 186 -261Q170 -250 170 -245Q170 -239 181 -238Q185 -237 194 -237Q227 -240 264 -249Q373 -269 475 -283Q477 -293 478 -304Q451 -301 384 -279Q369 -271 356 -268Q346 -269 328 -281Q308 -295 300 -297Q297 -303 297 -308Q297 -317 306 -333Q304 -337 304 -345Q304 -362 323 -372Q338 -380 360 -382Q458 -391 487 -403Q486 -410 484 -417Q478 -419 474 -419Q465 -419 444 -412Q421 -404 410 -404Q404 -404 401 -405Q384 -414 369 -430Q351 -448 351 -463Q351 -477 373 -477H377Q364 -485 354 -485Q340 -485 314 -473Q281 -458 265 -458Q249 -458 233 -468V-470Q232 -474 231 -479L232 -483Q225 -482 209 -482Q152 -482 152 -526V-534Q154 -537 165 -546Q163 -552 163 -562Q165 -588 186 -600Q207 -613 227 -625L228 -623Q224 -618 219 -610L220 -607H223Q244 -609 264 -612Q254 -638 254 -657Q254 -667 257 -678Q259 -678 261 -673Q263 -667 267 -667V-670Q266 -685 264 -700Q264 -711 269 -715Q274 -712 275 -699Q277 -684 282 -682Q288 -687 288 -701Q326 -663 371 -658Q382 -637 405 -637Q414 -637 422 -641L424 -640Q422 -637 420 -634L421 -632Q438 -618 456 -604Q474 -590 484 -568Q479 -553 479 -547Q479 -541 482 -535Q500 -542 516 -542Q522 -541 528 -541Q537 -528 553 -528Q574 -528 581 -546H576Q569 -546 557 -544Q547 -554 537 -563Q528 -572 513 -575Q518 -585 519 -586Q513 -600 491 -607L493 -609Q498 -608 502 -607Q505 -607 506 -609Q499 -618 488 -622Q476 -627 466 -632Q469 -637 476 -637Q477 -637 492 -634Q520 -646 552 -653Q585 -659 617 -667Q619 -690 620 -713Q618 -718 610 -718Q598 -718 592 -710Q590 -706 590 -695Q582 -700 582 -728Q582 -748 587 -756Q593 -765 610 -770Q626 -776 639 -782Q675 -800 693 -800Q699 -800 702 -799Q754 -781 781 -754Q785 -743 791 -733Q774 -725 758 -716Q741 -707 735 -687Q768 -695 808 -705Q848 -715 895 -716H899Q885 -706 867 -687Q870 -679 870 -665Q870 -652 873 -646H889Q883 -629 883 -595Q849 -589 820 -574Q804 -568 765 -563Q718 -557 699 -547L697 -546Q700 -544 700 -543H698Q669 -535 664 -523Q667 -519 672 -519Q684 -520 695 -522H698Q676 -517 676 -494Q676 -487 679 -478V-477L676 -475H673Q677 -463 682 -453Q652 -448 620 -445Q588 -442 562 -432V-423Q562 -418 560 -417Q582 -418 629 -433Q669 -446 693 -448Q700 -448 706 -449Q733 -449 750 -438Q758 -441 767 -448Q778 -457 784 -459Q772 -444 772 -433Q772 -425 781 -422H783Q787 -422 790 -425Q793 -429 796 -429L799 -428L800 -426Q796 -418 791 -411Q797 -395 802 -379H805Q811 -378 817 -378H820Q822 -364 831 -356Q830 -352 826 -348Q821 -343 821 -337V-334Q811 -334 806 -325Q875 -325 920 -359Q918 -353 916 -347L917 -343Q920 -339 925 -339Q930 -339 935 -340Q939 -340 941 -339L943 -338Q941 -334 938 -331V-330Q942 -323 949 -323Q952 -323 954 -324L957 -322Q954 -316 950 -311V-310Q957 -303 957 -289Q956 -277 954 -265Q939 -261 939 -247Q939 -243 940 -241Q901 -254 829 -254Q804 -254 791 -253Q732 -251 719 -246Q687 -231 684 -193Q673 -192 668 -185Q663 -178 658 -171Q690 -157 699 -144Q703 -145 713 -150Q725 -156 732 -156Q735 -156 741 -154Q746 -167 760 -172Q763 -156 780 -154Q796 -152 814 -151V-150Q814 -147 812 -147Q809 -146 809 -144V-143Q822 -136 840 -135H838Q821 -132 819 -118Q819 -111 828 -108Q823 -103 823 -99Q823 -94 827 -93Q809 -80 791 -67Q776 -73 744 -80Q724 -86 719 -86Q707 -86 702 -69Q659 -58 640 -49Q611 -35 596 -11Q642 1 661 1Q667 1 673 0Q677 -3 681 -14Q686 -28 693 -30Q690 -18 687 -6Q687 -4 689 0Q692 -4 694 -8Q695 -12 701 -12Q698 -6 698 1Q698 14 716 38Q727 52 728 58V62Q725 78 722 93Z"/>
</svg>