<svg xmlns="http://www.w3.org/2000/svg" viewBox="0 -800 1024 1024">
	<path fill="#000000" d="M474 48Q468 50 462 50Q449 50 449 41L450 37Q454 35 461 35Q475 35 475 44ZM557 -194Q555 -241 549 -254Q542 -249 535 -244Q528 -239 527 -230Q527 -227 528 -225Q517 -218 513 -205Q508 -192 502 -182Q530 -188 557 -194ZM558 -113V-129H552Q528 -128 511 -120Q494 -112 474 -105Q465 -89 465 -80Q506 -94 557 -99Q558 -103 558 -113ZM555 -411V-407Q581 -421 618 -425Q628 -466 637 -507Q623 -501 623 -487Q623 -484 624 -482Q601 -468 573 -456Q568 -446 562 -435Q556 -424 555 -411ZM643 -539Q647 -562 653 -584Q658 -605 659 -632Q632 -625 619 -617Q600 -606 594 -588Q591 -590 590 -593Q588 -596 584 -596Q572 -588 558 -582Q544 -577 534 -566Q547 -546 558 -536Q580 -552 632 -567Q630 -561 630 -559Q630 -548 643 -539ZM554 61H549Q532 60 515 58H511Q513 52 526 52H530Q541 52 545 48Q515 42 484 43Q486 34 504 34H522Q531 34 534 33Q525 26 500 26Q489 27 477 27Q451 27 442 18Q478 17 508 16Q538 16 557 1Q557 -15 561 -41Q549 -43 544 -43Q530 -43 503 -36Q476 -29 464 -29H462Q456 -29 449 -30H447Q433 -26 428 -11Q422 5 418 19Q410 19 407 24Q403 28 399 31H395Q380 30 365 28H361Q339 -2 311 -29Q310 -31 310 -38V-42Q299 -52 299 -89Q299 -121 292 -132Q299 -127 308 -127Q318 -127 328 -135Q351 -156 371 -190Q391 -225 408 -249Q409 -259 414 -264Q419 -270 422 -276Q428 -276 428 -271Q428 -268 427 -266Q427 -261 430 -260Q443 -269 458 -269Q468 -269 474 -264Q523 -296 535 -321Q529 -324 522 -324Q503 -321 483 -314Q467 -311 453 -307Q439 -304 436 -289Q424 -288 391 -278Q357 -296 320 -312Q315 -360 267 -363Q254 -360 240 -358Q231 -359 217 -367Q204 -374 199 -375Q180 -403 168 -405Q166 -417 156 -417H154Q155 -421 155 -425Q152 -449 144 -471Q145 -477 145 -483Q145 -494 139 -518Q144 -529 151 -537Q151 -544 144 -559Q138 -573 138 -580Q138 -585 141 -590Q147 -580 152 -569Q157 -558 168 -552Q166 -565 158 -587Q146 -621 145 -641Q155 -622 162 -600Q169 -579 187 -569Q184 -578 178 -590Q167 -611 166 -624Q178 -612 188 -597Q197 -583 215 -576Q230 -587 246 -597Q270 -585 293 -569Q316 -552 340 -548Q347 -542 353 -537Q352 -532 352 -522Q353 -498 364 -479Q375 -461 384 -441Q390 -428 406 -405Q422 -383 427 -371Q459 -385 486 -386Q487 -388 487 -394Q487 -396 484 -417Q470 -416 452 -404Q441 -397 434 -395Q428 -397 421 -407Q414 -417 406 -419Q397 -432 397 -450Q397 -482 418 -500Q420 -498 421 -493Q423 -484 427 -483Q448 -494 464 -498H465V-501Q464 -514 454 -517Q443 -520 433 -522H432L430 -520V-518H429Q426 -518 424 -524Q417 -521 410 -521Q397 -521 380 -540Q361 -561 345 -561H344V-563Q344 -566 347 -567Q349 -567 350 -570Q347 -579 331 -579Q322 -578 313 -578Q313 -586 319 -589Q325 -592 331 -596Q338 -601 350 -619Q357 -630 364 -636Q373 -644 402 -654Q427 -663 433 -666Q462 -681 531 -710Q602 -740 632 -756Q646 -766 662 -783Q678 -800 696 -802Q699 -802 705 -800Q712 -794 718 -789Q727 -786 735 -783Q741 -780 749 -771Q760 -760 767 -758Q774 -762 784 -770Q800 -783 810 -786Q810 -780 798 -768Q784 -754 784 -742Q785 -739 785 -737Q791 -738 798 -743Q807 -750 813 -750Q807 -740 800 -731Q806 -710 813 -704L816 -703Q823 -706 829 -710Q821 -696 820 -694Q827 -690 833 -690Q842 -690 858 -700Q875 -711 884 -711Q884 -703 869 -694Q853 -684 853 -676V-675L855 -674Q860 -676 865 -678H867Q863 -670 859 -662Q860 -655 868 -645Q877 -633 877 -624V-618Q877 -589 844 -533Q809 -530 796 -503Q798 -500 800 -500H803Q773 -484 753 -445Q748 -435 723 -371Q705 -341 704 -340Q695 -322 695 -300V-297Q690 -292 684 -292Q668 -295 656 -303Q665 -288 674 -273Q682 -275 690 -278Q689 -273 684 -270Q677 -266 677 -261Q682 -257 690 -257V-250Q690 -241 693 -240Q672 -236 664 -221Q657 -208 657 -184Q657 -173 659 -147Q670 -64 692 27Q701 74 701 78Q701 89 696 98L692 97Q684 98 680 106Q675 113 670 118Q668 117 664 117Q651 120 637 122Q631 122 625 119Q618 115 609 107Q599 99 587 98Q585 99 582 99Q566 71 554 61Z"/>
</svg>