<svg xmlns="http://www.w3.org/2000/svg" viewBox="0 -800 1024 1024">
	<path fill="#000000" d="M118 -459Q112 -446 99 -446Q97 -446 93 -448Q93 -456 101 -457Q109 -459 118 -459ZM462 -52V-63Q483 -62 488 -37Q475 -44 462 -52ZM583 -316H588Q583 -309 581 -300Q581 -296 582 -293Q588 -294 594 -296Q598 -296 599 -294Q592 -290 592 -284Q596 -269 602 -255Q587 -237 535 -224Q493 -213 478 -202Q470 -196 464 -190Q458 -184 449 -183H447Q436 -185 424 -187H422Q419 -191 416 -196Q414 -201 408 -202Q411 -175 419 -158Q544 -199 566 -210Q568 -210 570 -205Q572 -199 576 -199Q591 -208 597 -208Q600 -208 604 -206Q601 -201 598 -196Q598 -193 601 -192Q608 -199 609 -209Q609 -219 610 -229Q621 -288 631 -348Q629 -349 626 -350Q577 -346 542 -331Q514 -323 485 -316Q463 -304 440 -293Q429 -290 417 -285Q405 -280 404 -268V-264Q430 -268 496 -291Q506 -295 518 -302Q529 -309 540 -310Q548 -307 555 -304H557Q561 -306 567 -311Q573 -315 583 -316ZM170 -474H169Q162 -474 147 -467Q134 -461 127 -461Q122 -461 120 -462Q133 -473 154 -480Q176 -486 178 -505Q178 -508 176 -514Q173 -517 162 -517Q153 -517 151 -519V-520Q151 -524 156 -524Q160 -524 164 -525Q173 -528 181 -532V-534Q180 -537 179 -541V-543Q180 -544 192 -551Q200 -556 203 -561Q198 -573 176 -591Q158 -606 152 -618Q162 -615 184 -598Q202 -584 218 -584Q221 -584 231 -586Q235 -588 236 -596Q237 -605 240 -606H241Q244 -606 245 -600Q246 -595 249 -595H252Q256 -595 260 -597Q264 -601 264 -607Q262 -620 259 -634Q259 -638 260 -640Q267 -629 274 -617Q280 -605 290 -598Q298 -600 302 -600Q306 -584 330 -579Q337 -566 344 -555Q352 -544 369 -543Q367 -539 367 -532Q371 -514 381 -491Q392 -459 395 -453Q376 -432 367 -424Q349 -409 331 -402Q321 -402 299 -409Q279 -415 269 -415Q254 -415 244 -406Q248 -417 254 -425Q242 -442 216 -442Q199 -442 192 -432Q192 -438 198 -443Q202 -447 203 -450Q195 -457 188 -465Q182 -473 170 -474ZM712 -129V-115Q713 -90 713 -65Q713 -47 711 -40Q714 -29 714 -18Q714 -2 713 14Q713 27 714 33Q703 46 670 74Q643 97 629 113Q623 115 621 115Q609 113 598 103Q572 92 555 77Q549 66 543 55Q533 42 511 27Q493 15 487 8Q502 9 513 15Q523 21 536 26Q530 12 501 -5Q476 -20 468 -30Q480 -28 505 -12Q522 -1 533 3Q534 1 534 -2Q534 -12 513 -23Q495 -32 491 -39H493Q501 -39 516 -31Q527 -25 534 -25Q542 -25 549 -31Q565 -43 576 -75Q585 -102 588 -132Q514 -118 481 -103Q469 -96 456 -87Q444 -78 425 -77Q420 -68 420 -55Q425 -22 431 3V8Q430 36 405 49L401 50H395Q390 50 388 51Q384 52 380 58Q377 62 373 64Q372 52 363 47Q354 43 343 39V35Q343 27 339 21Q337 20 332 20Q318 24 304 27L301 26Q303 21 310 14Q320 4 322 -3Q323 -7 323 -11Q322 -31 313 -56Q303 -80 296 -105Q283 -158 279 -166Q266 -197 241 -204Q238 -212 228 -224Q211 -244 210 -259V-264Q211 -285 212 -306V-316Q220 -326 220 -337Q231 -347 244 -356Q257 -365 262 -382Q270 -372 285 -372Q309 -375 333 -378Q349 -378 358 -370Q434 -393 466 -399Q462 -416 452 -428Q457 -450 457 -472Q455 -512 453 -553Q453 -601 449 -621Q446 -639 427 -665Q407 -692 407 -713Q407 -725 411 -736Q414 -740 416 -745V-754Q432 -793 517 -811Q535 -805 552 -799Q555 -786 567 -783Q574 -763 588 -743Q601 -722 602 -691V-687Q601 -669 584 -641Q572 -621 569 -609V-607Q571 -604 572 -601Q555 -562 550 -514Q544 -466 537 -422Q565 -430 592 -438L583 -448H578Q567 -446 555 -444Q572 -465 589 -486Q620 -526 653 -583Q660 -593 669 -608Q678 -623 679 -636Q679 -648 666 -651Q672 -660 689 -666Q712 -675 718 -678Q731 -686 744 -696Q757 -707 770 -709Q791 -706 811 -696Q815 -693 819 -686Q824 -677 828 -675Q839 -667 859 -667H866Q858 -657 858 -639Q858 -624 863 -618Q873 -623 884 -625Q882 -620 875 -610Q866 -598 866 -588Q867 -585 867 -582Q874 -571 877 -555Q877 -552 875 -546Q764 -511 717 -466Q722 -457 746 -447Q753 -443 759 -439Q766 -439 779 -457Q791 -473 798 -475V-473Q798 -465 788 -453Q777 -439 776 -429L778 -428Q780 -428 782 -433Q784 -439 786 -439L789 -438Q790 -435 790 -432Q790 -422 789 -413Q789 -397 801 -396Q801 -374 810 -366Q804 -352 804 -342Q804 -336 805 -333Q775 -323 758 -291Q751 -278 733 -221Q715 -168 712 -129Z"/>
</svg>