<svg xmlns="http://www.w3.org/2000/svg" viewBox="0 -800 1024 1024">
	<path fill="#000000" d="M529 -31H516Q516 -35 515 -39V-42H517Q525 -42 538 -33Q536 -31 529 -31ZM648 -678V-677Q648 -670 633 -661Q632 -664 629 -664Q633 -678 644 -678ZM284 -286V-291Q286 -305 288 -320Q288 -325 287 -327Q276 -322 255 -312Q233 -302 229 -294V-291Q229 -276 241 -264Q251 -270 261 -277Q270 -284 284 -286ZM293 -408V-417Q295 -442 297 -468Q297 -473 296 -479Q288 -471 279 -465Q270 -459 266 -447Q238 -437 229 -379Q258 -394 282 -413Q285 -409 290 -408ZM478 -445Q465 -446 454 -458Q442 -469 432 -480Q427 -485 423 -488Q418 -490 416 -496Q414 -502 414 -505Q416 -517 418 -530Q418 -534 417 -537Q395 -535 387 -519Q382 -508 379 -477Q372 -436 369 -401Q370 -396 370 -391Q378 -394 386 -408Q396 -424 405 -427Q401 -423 401 -418Q401 -415 407 -407Q420 -410 473 -424Q478 -434 478 -445ZM771 -300Q796 -364 806 -519Q761 -508 743 -457Q748 -451 750 -429Q752 -406 758 -397Q746 -333 746 -301Q749 -299 755 -299Q763 -299 771 -300ZM752 26V32Q751 61 740 78Q728 95 718 115Q686 113 670 110Q660 101 652 91Q644 82 627 80Q627 77 632 75Q636 74 636 72Q635 65 630 57Q623 47 623 40V35Q614 23 599 17Q583 12 570 5H575Q595 8 614 11H618Q580 -11 547 -27H552Q562 -27 585 -17Q605 -8 618 -8H621Q605 -19 560 -40Q525 -56 505 -69H508Q535 -66 561 -52Q584 -40 607 -36H612Q631 -39 636 -75Q643 -124 648 -132Q646 -133 642 -133Q628 -133 624 -109Q621 -114 619 -120Q617 -126 611 -129H610Q608 -129 606 -126Q604 -123 602 -123H601Q600 -137 592 -143Q584 -149 577 -157Q552 -157 510 -126Q499 -118 487 -111Q481 -106 470 -88Q460 -72 450 -68Q426 -70 413 -85Q400 -100 386 -114Q389 -121 389 -128Q389 -139 381 -159Q374 -177 373 -187Q391 -190 416 -215Q449 -250 463 -282L465 -286Q453 -274 443 -259Q433 -245 416 -244H414Q383 -245 365 -300Q364 -285 361 -213Q359 -197 359 -186V-180Q362 -173 364 -166V-162Q363 -144 362 -126V-120Q363 -99 370 -62Q378 -17 378 3Q378 21 376 29Q369 29 357 36V35L356 33Q354 36 345 38H341Q338 37 334 32Q326 22 321 20Q306 16 299 5Q284 0 281 0V-1Q280 -13 267 -17Q255 -22 244 -27H266Q261 -38 230 -38Q221 -38 217 -37Q218 -43 231 -43Q243 -42 255 -42Q263 -42 266 -43Q282 -68 282 -143V-149Q282 -189 284 -207Q255 -197 245 -184Q246 -160 253 -128Q262 -88 262 -68Q250 -63 239 -57Q228 -51 213 -51Q208 -50 204 -42Q198 -50 189 -52Q179 -54 171 -58Q166 -62 160 -73Q153 -87 146 -90V-92Q146 -96 149 -99Q153 -102 153 -105Q151 -111 150 -125Q149 -140 146 -146Q146 -208 115 -291Q104 -323 84 -330Q81 -330 77 -326Q74 -323 70 -322Q71 -326 71 -333Q71 -344 66 -357Q60 -365 53 -370Q35 -397 35 -445V-456Q39 -461 43 -466Q43 -469 42 -472Q45 -489 55 -498V-505Q55 -515 50 -570Q57 -565 62 -546Q65 -533 69 -528V-531Q68 -542 67 -553V-556Q72 -553 75 -541Q77 -531 81 -529Q83 -531 83 -533Q82 -537 81 -542H82Q85 -542 89 -537Q93 -532 96 -531H137Q150 -518 162 -518Q166 -518 170 -519L172 -522Q172 -525 171 -528Q208 -556 244 -585Q280 -614 303 -654Q334 -671 349 -671Q360 -671 368 -663L386 -677L387 -674Q385 -668 382 -663V-660Q401 -670 417 -684Q417 -679 408 -671Q396 -660 395 -651Q395 -646 398 -645Q401 -644 404 -642Q401 -633 401 -626Q404 -603 414 -583Q424 -598 443 -606Q461 -613 478 -624Q481 -639 481 -655Q481 -687 465 -706Q456 -713 453 -717Q456 -724 459 -732Q459 -734 456 -736Q496 -764 535 -790Q562 -778 573 -751Q585 -724 596 -697Q576 -671 576 -653V-646Q580 -646 590 -652Q605 -660 616 -660H620Q612 -655 604 -650Q596 -645 595 -633V-631H597Q605 -634 613 -637H615V-636Q615 -634 612 -631Q607 -626 606 -621Q606 -609 617 -608Q612 -600 612 -588Q612 -575 618 -571Q614 -559 614 -549Q614 -543 615 -540Q612 -536 608 -533Q604 -529 604 -523Q604 -519 605 -517Q574 -509 562 -500Q543 -486 543 -459Q544 -454 544 -450Q622 -467 644 -473Q643 -469 636 -466Q629 -462 629 -456V-453Q630 -449 634 -449Q639 -450 643 -451H645Q638 -440 638 -423Q640 -415 644 -415L648 -416Q641 -399 641 -374V-364Q637 -358 631 -354Q626 -350 623 -342Q583 -340 530 -321Q546 -291 546 -264Q546 -238 530 -223Q550 -226 558 -229V-235Q557 -250 555 -265Q555 -271 558 -279Q561 -286 572 -295Q579 -301 582 -306Q592 -297 603 -295H605Q608 -300 611 -304Q614 -309 621 -309H623V-307Q622 -300 620 -294V-291H621Q628 -291 639 -301Q651 -312 659 -313Q654 -302 646 -293Q639 -285 638 -269V-267L641 -266Q646 -269 650 -272Q646 -265 646 -257Q649 -239 657 -222Q661 -229 662 -247Q663 -264 668 -268Q666 -274 666 -284Q669 -307 672 -330Q669 -367 662 -402Q661 -419 659 -437Q659 -457 668 -463Q664 -480 650 -492V-495Q650 -504 641 -508V-512Q641 -523 631 -539Q624 -550 623 -558V-561Q627 -590 642 -609Q652 -619 676 -627Q678 -628 718 -640Q772 -657 792 -670Q797 -674 808 -686Q819 -698 826 -702Q831 -704 841 -705Q852 -706 857 -709Q860 -712 860 -717Q878 -703 897 -691Q903 -693 912 -701Q922 -710 930 -712Q924 -706 919 -700Q913 -694 913 -683Q916 -679 922 -679Q928 -679 936 -681Q935 -673 933 -666V-663Q933 -658 939 -651Q945 -643 947 -639Q949 -635 949 -625V-617Q949 -611 950 -609Q951 -605 957 -601Q962 -597 963 -595Q961 -587 961 -584Q963 -568 965 -553Q965 -542 960 -535Q939 -533 926 -517Q918 -507 907 -482V-481Q909 -478 910 -475V-474Q894 -444 890 -394Q886 -345 882 -297Q882 -292 881 -287Q884 -265 886 -243V-238Q876 -203 851 -187Q847 -187 842 -188Q833 -188 829 -184Q816 -193 795 -196Q778 -225 758 -250Q756 -261 755 -272Q754 -283 746 -288Q742 -276 742 -263Q742 -251 746 -244Q744 -240 741 -236V-235Q738 -168 734 -102Q734 -74 736 -61Q737 -54 746 -38Q753 -25 755 -16V-13Q755 -5 754 2Q754 10 758 14Q755 20 752 26Z"/>
</svg>