<svg xmlns="http://www.w3.org/2000/svg" viewBox="0 -800 1024 1024">
	<path fill="#000000" d="M137 -350H135Q134 -351 134 -355V-361Q145 -365 159 -366Q154 -362 150 -356Q146 -351 137 -350ZM910 -329V-328Q910 -325 902 -316Q896 -309 895 -307Q892 -311 892 -317Q894 -332 904 -334Q908 -334 910 -329ZM509 -210Q508 -218 500 -227Q493 -235 492 -238Q490 -246 488 -255Q444 -249 441 -204Q475 -207 509 -210ZM482 -93Q467 -108 467 -121Q467 -129 471 -137Q435 -134 422 -128Q401 -118 400 -93Q436 -91 444 -91Q452 -91 482 -93ZM584 -84H587Q597 -112 606 -141Q581 -142 555 -143Q539 -143 535 -141Q552 -134 552 -105Q552 -96 548 -84Q552 -86 560 -86Q572 -85 584 -84ZM611 -223H620Q631 -255 639 -294Q615 -292 592 -290Q569 -287 553 -278Q582 -272 589 -247Q589 -249 593 -249Q598 -249 598 -246Q597 -241 591 -233Q584 -223 584 -218Q593 -223 611 -223ZM441 -343H442Q465 -343 554 -368Q627 -389 670 -404Q695 -415 707 -426Q615 -414 489 -379Q468 -371 450 -367Q435 -370 420 -373H418Q408 -373 387 -358Q365 -341 365 -332V-331Q390 -342 420 -346Q431 -344 441 -343ZM807 12H805Q800 14 798 18Q795 66 764 66Q743 65 718 52Q693 40 673 33Q657 45 657 72V81Q645 84 629 101Q607 124 586 124Q575 124 569 122Q553 93 520 73Q500 61 450 42Q480 46 515 54Q513 49 505 44Q497 40 491 36Q528 36 537 15Q481 1 438 1H427Q354 5 310 54Q298 47 285 41Q285 26 267 1Q251 -21 250 -31V-34Q254 -52 257 -70V-74Q267 -78 273 -86Q279 -94 285 -102Q218 -86 171 -59Q145 -44 132 -44Q113 -44 101 -66H99Q87 -66 80 -77Q74 -86 74 -100Q74 -120 85 -129Q85 -139 84 -150Q84 -158 87 -166Q91 -177 102 -183Q107 -186 124 -191Q139 -195 161 -205Q198 -221 212 -222Q208 -216 190 -204Q176 -194 173 -183Q256 -186 331 -197Q347 -220 347 -234Q344 -240 341 -247Q343 -257 344 -267Q343 -275 341 -284Q344 -295 346 -306V-309Q343 -308 338 -308Q327 -308 308 -316Q288 -325 276 -325Q255 -372 225 -372Q217 -372 208 -369Q217 -379 232 -384H228Q215 -384 194 -376Q174 -368 165 -367Q239 -411 282 -447Q301 -460 319 -474Q330 -488 343 -499Q358 -503 372 -508V-511Q371 -516 366 -519Q333 -511 301 -495Q270 -479 238 -464Q208 -449 193 -449Q184 -449 177 -453Q161 -465 148 -487Q136 -510 115 -519Q112 -526 112 -532Q112 -536 121 -565Q125 -581 128 -597Q140 -635 189 -643Q183 -639 180 -633Q192 -621 209 -621Q223 -621 249 -629Q282 -639 297 -639Q296 -642 296 -648Q296 -659 304 -678Q311 -695 311 -703Q311 -709 310 -712H311Q314 -712 318 -704Q321 -698 325 -696Q328 -697 328 -702Q325 -714 321 -727Q321 -732 324 -735Q327 -731 332 -720Q338 -707 343 -702Q346 -703 346 -707Q344 -713 341 -720L343 -721Q346 -716 349 -712Q393 -705 429 -655H432Q443 -655 463 -660Q479 -664 486 -664H491Q514 -670 530 -683Q534 -673 538 -663L540 -662Q544 -662 548 -663H551Q551 -655 558 -645Q565 -634 565 -624L567 -623H571Q569 -615 567 -607Q567 -603 568 -601Q568 -599 564 -598Q560 -597 559 -594Q563 -591 563 -588Q560 -581 556 -574L557 -571Q503 -556 455 -545Q441 -504 423 -492Q429 -469 438 -464Q481 -468 609 -498Q596 -502 582 -502Q573 -502 518 -492Q567 -521 587 -567Q586 -578 580 -599Q572 -628 572 -643Q572 -656 574 -663Q586 -664 593 -675Q612 -676 630 -678H637Q639 -688 649 -703Q658 -716 660 -726Q660 -728 656 -728Q652 -728 651 -729V-736Q651 -740 652 -741Q651 -744 639 -749Q684 -808 741 -808Q751 -808 756 -807Q763 -796 783 -778Q810 -753 818 -733Q812 -732 804 -723Q794 -711 790 -708Q840 -718 876 -718Q875 -713 874 -708V-706Q877 -705 879 -705Q894 -708 909 -712H911Q907 -708 900 -705Q893 -701 892 -695Q892 -690 896 -686H899Q906 -687 913 -689V-687Q913 -685 907 -670Q917 -652 919 -635Q919 -632 917 -620Q902 -614 902 -602V-600Q900 -601 896 -601Q890 -601 885 -597Q879 -592 879 -583Q880 -580 880 -577Q794 -576 752 -567Q689 -553 664 -516Q672 -518 686 -525Q701 -533 712 -534H717Q737 -532 757 -530Q770 -530 780 -537V-536Q778 -533 776 -530L777 -528Q788 -532 798 -538Q807 -544 821 -546Q812 -536 803 -529Q795 -521 794 -509Q794 -504 795 -501Q796 -495 803 -485Q809 -477 809 -473Q806 -455 776 -447Q737 -436 714 -428Q716 -423 739 -421Q763 -419 763 -412V-411L766 -410Q777 -414 787 -418Q790 -418 792 -417Q783 -401 774 -394L778 -378H779Q785 -381 791 -384Q795 -384 796 -381Q781 -373 781 -354Q785 -325 789 -297Q744 -280 734 -235Q742 -233 758 -233Q825 -237 864 -270L866 -269L865 -267Q870 -270 878 -282Q888 -296 894 -300Q882 -285 882 -258V-252Q891 -270 900 -289Q909 -308 925 -319Q902 -273 901 -243Q904 -246 907 -252Q912 -261 916 -263Q910 -230 910 -229Q910 -216 917 -209Q916 -205 916 -196Q918 -171 919 -146Q919 -112 896 -102Q867 -105 820 -116Q753 -132 713 -132Q693 -104 691 -78Q728 -74 765 -71V-62Q785 -64 805 -66Q794 -55 783 -44V-43Q785 -39 787 -36Q802 -40 816 -44Q818 -44 824 -42Q812 -41 803 -31Q794 -21 794 -10Q794 3 807 12Z"/>
</svg>