<svg xmlns="http://www.w3.org/2000/svg" viewBox="0 -800 1024 1024">
	<path fill="#000000" d="M325 -254H327V-264Q327 -268 325 -269Q321 -260 316 -251Q321 -252 325 -254ZM307 -248H303Q292 -248 284 -244Q257 -256 256 -289Q256 -304 263 -317Q260 -320 257 -320Q252 -318 246 -317Q243 -317 241 -320V-318Q245 -294 253 -265V-246Q253 -232 260 -226Q275 -234 307 -248ZM287 -320H290Q296 -318 300 -313Q305 -320 309 -320L310 -318Q309 -313 308 -309Q308 -307 310 -305L312 -304Q315 -304 318 -305L321 -304Q320 -302 320 -298Q323 -284 328 -272Q328 -279 327 -287Q331 -328 334 -369Q334 -374 333 -380Q306 -360 287 -320ZM922 -154V-178H932Q930 -171 930 -163Q930 -155 922 -154ZM583 -483V-479Q586 -461 589 -444Q615 -459 632 -459Q645 -506 657 -532Q636 -527 613 -514Q586 -498 583 -483ZM574 -166V-162Q574 -157 578 -147Q582 -146 590 -146Q602 -146 618 -150Q625 -152 631 -153Q638 -154 638 -162Q629 -159 623 -159Q612 -159 603 -168Q599 -172 590 -189Q573 -220 556 -225H565Q572 -225 574 -228Q572 -232 569 -236V-238Q602 -256 649 -256Q655 -265 655 -269L654 -272Q645 -268 637 -263Q630 -258 618 -258H614Q610 -271 598 -271Q583 -271 563 -255Q577 -280 616 -317Q649 -348 661 -366L660 -369L661 -373Q661 -378 657 -378Q654 -375 648 -375H639Q627 -371 601 -357Q575 -342 569 -334Q558 -318 546 -261Q542 -230 537 -199Q527 -170 522 -141Q533 -144 552 -155Q568 -164 574 -166ZM389 -104Q399 -97 416 -78Q426 -92 429 -108Q432 -124 438 -141Q443 -150 448 -159Q451 -170 455 -181Q459 -193 468 -201Q468 -204 467 -207Q468 -225 483 -231L498 -276Q498 -286 504 -312Q509 -335 509 -349V-358Q509 -363 503 -375Q496 -389 499 -396Q500 -398 500 -402Q505 -407 509 -412Q513 -418 521 -420Q522 -425 522 -434Q520 -471 494 -479Q488 -488 482 -496Q476 -505 474 -517Q448 -554 424 -592H426Q436 -590 442 -585Q441 -594 427 -604Q414 -613 412 -624H415Q426 -621 435 -617Q443 -617 456 -626Q468 -634 475 -634H476Q479 -640 485 -643Q504 -651 536 -671Q584 -701 615 -708L663 -724Q666 -741 692 -746Q704 -765 736 -765Q765 -765 802 -749Q802 -731 820 -717Q828 -719 836 -724Q850 -732 860 -733V-731Q860 -728 851 -722Q842 -716 839 -711Q834 -701 834 -692V-687L837 -686Q844 -689 851 -692Q851 -688 847 -680Q841 -668 841 -660Q841 -655 842 -652H843Q846 -655 852 -658H855Q850 -652 850 -638V-631Q850 -620 848 -615H847L853 -590Q853 -585 846 -576Q839 -567 839 -559Q836 -560 831 -560Q820 -560 811 -545Q811 -541 816 -541Q820 -541 820 -538Q787 -517 773 -476Q760 -435 744 -397H741Q728 -399 715 -401Q712 -401 706 -399V-396Q706 -389 712 -387Q713 -387 724 -385Q734 -380 745 -364Q757 -346 763 -341Q759 -335 757 -313Q755 -286 747 -279Q737 -277 732 -277Q711 -279 689 -282Q684 -282 682 -281Q692 -274 701 -267Q708 -273 721 -273Q748 -271 762 -252V-237Q762 -218 765 -209Q751 -209 751 -201V-198L747 -199Q735 -195 723 -192Q720 -192 718 -193Q704 -179 703 -168H708Q742 -173 776 -178H778Q785 -187 796 -192Q807 -198 817 -204Q817 -218 824 -225Q827 -209 829 -203Q833 -191 839 -187Q846 -192 852 -192H855Q848 -187 848 -177Q848 -166 857 -163V-156Q855 -134 843 -114H839Q777 -109 725 -93Q714 -91 705 -89Q696 -87 689 -78Q686 -75 682 -52Q691 -51 708 -51Q731 -51 774 -56Q817 -61 841 -61H855Q859 -65 862 -76Q866 -90 870 -93Q870 -76 879 -66Q887 -82 887 -116Q887 -143 886 -171Q886 -191 888 -201Q892 -188 895 -148Q898 -108 904 -90Q905 -97 905 -112Q901 -166 897 -220Q897 -238 900 -255Q904 -231 910 -172Q916 -111 922 -81Q923 -87 923 -101V-138Q931 -112 933 -79Q936 -51 959 -43Q959 -31 968 -14Q976 1 976 9Q976 13 975 15Q969 26 957 30Q942 44 929 58Q926 58 923 57Q904 60 889 69Q865 60 835 59Q805 57 777 54Q764 52 760 45L694 47Q688 54 664 54H656Q651 55 645 55Q636 58 634 58H633Q620 55 613 44Q606 33 598 26Q598 3 590 -15Q581 -9 568 -7Q561 -7 557 -9Q542 -15 528 -39Q513 -65 513 -91Q513 -97 515 -107Q506 -79 497 -48Q488 -18 487 13Q488 20 488 26Q485 36 482 45Q472 52 464 52Q454 52 444 38Q434 24 424 24H422Q415 5 400 -3Q402 -19 402 -27Q402 -55 389 -96Q385 -65 384 -62V-28Q392 -16 394 14Q397 45 404 56Q400 75 387 86Q374 96 361 106Q338 102 321 94V92Q317 79 313 71Q313 69 315 65Q312 56 302 52Q292 49 281 46Q286 41 300 41Q292 34 270 34H257Q243 34 241 31Q246 27 261 27H271Q280 27 284 26Q247 23 213 16Q223 12 251 12H265Q314 12 322 -7V-16Q323 -39 324 -62Q311 -66 297 -80Q281 -96 281 -111Q281 -122 291 -131H305Q318 -131 321 -127Q324 -139 324 -158Q283 -141 269 -124Q270 -110 278 -86Q287 -59 287 -46Q287 -38 284 -29Q280 -30 275 -31L272 -29Q268 -27 267 -17Q266 -10 264 -7Q252 -5 246 -5Q237 -5 228 -6Q223 -6 213 -4Q197 -12 191 -31Q186 -49 180 -67Q163 -59 151 -48Q150 -47 127 -23V-20Q127 9 96 18Q81 15 63 -3Q49 -18 37 -22Q38 -25 38 -30Q38 -40 28 -55Q20 -67 19 -74V-79Q19 -101 38 -131Q49 -151 59 -169Q69 -188 86 -198Q75 -176 75 -167Q75 -161 80 -154Q113 -163 139 -175Q137 -187 127 -203Q115 -221 115 -230L86 -257Q73 -261 69 -273Q65 -284 59 -298Q52 -307 44 -318Q36 -329 35 -345V-349Q43 -379 62 -407Q68 -415 78 -422Q88 -428 90 -440V-443Q86 -458 82 -473Q82 -477 84 -481Q89 -472 93 -461Q96 -450 107 -446V-449Q107 -457 100 -475Q93 -493 93 -505Q93 -511 94 -514Q101 -506 108 -487Q115 -468 122 -461Q119 -477 116 -494Q126 -487 133 -472Q141 -457 159 -455H164Q172 -434 181 -433H182Q205 -441 226 -460Q248 -475 257 -476Q254 -488 254 -500Q256 -522 257 -544Q257 -555 254 -566Q249 -574 234 -583Q226 -592 221 -600Q216 -609 204 -611V-617Q204 -625 198 -637H197Q193 -638 188 -639Q186 -639 184 -637Q189 -648 208 -667Q224 -683 229 -691Q275 -713 297 -722Q319 -716 331 -703V-704Q330 -707 329 -710L331 -712H332L335 -710L336 -713Q343 -708 345 -697Q347 -685 351 -673Q357 -660 359 -651Q359 -646 355 -641L357 -629Q372 -618 372 -594Q372 -588 370 -578Q369 -572 362 -560Q354 -547 354 -540V-538Q393 -544 394 -544Q411 -544 423 -535Q426 -536 429 -540Q434 -546 437 -546L440 -545Q435 -530 435 -524V-521L437 -519Q441 -521 444 -524L445 -523Q441 -514 441 -505Q441 -492 449 -472Q457 -452 457 -442V-436Q456 -435 426 -401Q410 -383 404 -350Q401 -333 399 -283Q394 -193 389 -104Z"/>
</svg>