<svg xmlns="http://www.w3.org/2000/svg" viewBox="0 -800 1024 1024">
	<path fill="#000000" d="M514 -20V-22Q516 -23 520 -23Q533 -21 537 -8Q514 -8 514 -20ZM484 -688Q472 -686 461 -680L460 -684Q460 -689 466 -695Q471 -700 477 -700Q480 -700 484 -698L485 -694Q485 -691 484 -688ZM586 -394L604 -431L581 -416Q580 -414 580 -410Q580 -397 586 -394ZM689 -455V-453Q686 -438 682 -424Q693 -427 698 -439Q703 -452 706 -461Q698 -458 689 -455ZM613 -487Q612 -488 612 -496Q612 -505 608 -508Q597 -506 586 -498Q574 -490 574 -481Q574 -476 576 -473Q585 -478 613 -487ZM760 -563Q755 -564 747 -564Q724 -563 708 -553Q692 -542 674 -536Q681 -523 687 -511Q715 -524 740 -526Q746 -539 760 -563ZM225 -214H230Q242 -214 257 -228Q274 -244 287 -244Q290 -244 298 -242Q301 -264 304 -286Q301 -286 298 -287Q283 -285 266 -270Q225 -246 225 -218ZM305 -371Q317 -406 317 -457Q302 -451 294 -436Q285 -422 277 -406Q266 -389 259 -358Q284 -369 305 -371ZM709 -349H712Q717 -347 722 -345Q724 -345 726 -347Q717 -357 704 -357Q677 -352 646 -343Q616 -293 594 -233Q578 -229 575 -217Q617 -226 658 -236Q659 -240 659 -247Q659 -258 653 -280Q648 -298 648 -307Q648 -313 649 -316Q652 -330 672 -340Q690 -349 709 -349ZM381 -138V-140Q381 -146 386 -152Q390 -157 391 -160V-162Q391 -165 390 -169L391 -173Q398 -190 416 -195Q434 -199 457 -199Q503 -196 537 -211Q531 -220 521 -230Q511 -240 510 -251Q510 -253 512 -257Q510 -266 500 -277Q491 -287 489 -295Q497 -290 503 -284Q509 -278 518 -277H521Q535 -280 549 -320Q513 -331 493 -367Q472 -403 449 -433Q418 -466 411 -480L410 -482Q375 -358 375 -230Q375 -183 381 -138ZM958 -208V-205Q952 -194 948 -173Q949 -170 949 -167Q935 -153 908 -153Q905 -153 847 -158Q834 -159 809 -159Q753 -159 727 -142Q726 -130 726 -105Q726 -26 751 11Q743 49 730 78Q711 118 684 118Q673 118 661 109Q648 95 634 80Q614 58 592 34Q570 11 545 -3H547Q560 -3 585 12Q556 -14 518 -41Q536 -40 564 -22Q589 -6 605 -3Q600 -8 581 -20Q562 -32 554 -40Q583 -33 616 -20Q634 -31 640 -68Q643 -86 644 -133Q549 -114 497 -67Q466 -39 456 -37Q453 -36 448 -36Q427 -38 412 -56Q397 -75 384 -89Q387 -60 391 -41Q399 -19 403 3Q402 25 378 49Q359 68 337 80Q335 65 323 59Q312 54 302 47Q297 43 291 35Q282 23 275 20Q280 12 280 4Q279 -16 253 -19Q260 -23 272 -23Q269 -31 248 -34Q233 -36 228 -41H262Q229 -49 201 -61H208Q236 -58 264 -55Q274 -55 283 -58Q293 -79 294 -111Q295 -142 299 -164Q263 -157 224 -124Q221 -124 212 -127Q198 -121 187 -64Q178 -12 173 3Q167 1 163 1Q153 3 142 4Q136 4 132 0Q128 0 123 5Q120 8 116 9Q114 1 106 -11Q96 -26 96 -35V-38Q75 -54 65 -70Q51 -91 49 -121Q48 -134 43 -154Q37 -176 37 -187V-192Q45 -183 52 -175Q64 -199 75 -223Q84 -238 92 -254Q96 -274 99 -295Q105 -307 111 -320Q115 -333 117 -344Q120 -355 130 -361V-364Q130 -375 139 -394Q147 -410 148 -419Q149 -424 149 -434V-444Q149 -468 158 -478Q155 -512 151 -547Q158 -530 164 -512Q168 -515 168 -517Q166 -522 164 -528V-530Q171 -528 175 -523Q179 -518 182 -512Q190 -514 195 -514Q209 -514 227 -503Q240 -519 270 -566Q297 -609 317 -632Q315 -642 315 -645Q315 -666 333 -678Q349 -689 372 -689Q397 -689 413 -677Q416 -680 421 -680H423Q421 -672 421 -668Q421 -663 422 -661Q428 -661 437 -668Q443 -672 449 -674Q434 -653 434 -642Q434 -637 435 -634Q438 -634 440 -638Q442 -642 444 -642L447 -641Q446 -626 444 -611Q444 -602 447 -593Q450 -601 454 -607Q459 -613 459 -623V-625Q469 -618 475 -616Q480 -616 484 -623Q507 -608 529 -593Q566 -649 585 -683Q596 -701 600 -716V-719Q596 -736 592 -754V-758Q598 -755 602 -755Q614 -759 626 -763L634 -775Q649 -781 668 -781Q703 -781 715 -761Q729 -737 736 -705V-704Q730 -680 696 -662Q660 -644 647 -625Q699 -635 767 -658Q785 -663 813 -674Q849 -689 862 -689Q881 -689 896 -674Q911 -678 918 -679V-677Q917 -673 915 -669V-668Q925 -673 934 -679Q944 -685 958 -686Q951 -680 942 -674Q933 -669 932 -659Q932 -655 933 -653Q936 -656 938 -661Q940 -666 946 -667H950Q943 -657 943 -646Q943 -633 954 -612Q965 -591 965 -581Q964 -571 957 -557Q949 -542 947 -533Q943 -535 936 -535Q920 -535 911 -523V-522Q911 -520 917 -518Q868 -491 843 -439Q816 -384 786 -334Q760 -335 733 -337Q737 -315 760 -299Q750 -287 750 -265Q750 -260 752 -250Q789 -257 825 -265Q841 -270 857 -276Q873 -282 890 -283H893Q917 -280 918 -280Q931 -280 939 -286Q936 -278 932 -270H949Q954 -270 956 -271Q956 -268 950 -265Q939 -259 939 -253Q943 -246 952 -246Q955 -246 959 -248Q954 -243 954 -235Q956 -221 958 -208Z"/>
</svg>