<svg xmlns="http://www.w3.org/2000/svg" viewBox="0 -800 1024 1024">
	<path fill="#000000" d="M102 -115Q90 -116 86 -135Q95 -134 97 -127Q98 -120 102 -115ZM866 -505H870Q864 -490 851 -490H850V-491Q851 -503 866 -505ZM544 -46H550Q560 -66 560 -78Q560 -83 559 -85Q510 -74 488 -54V-51Q488 -40 492 -37Q524 -46 544 -46ZM637 -503H636Q624 -500 605 -496Q586 -493 572 -484Q564 -455 559 -424Q572 -429 580 -439Q589 -448 596 -457Q616 -481 628 -493Q634 -496 640 -500Q640 -503 637 -503ZM611 -310Q582 -306 555 -301Q528 -296 514 -282Q499 -266 488 -250Q520 -263 554 -275Q589 -286 611 -310ZM505 -160V-158Q506 -152 507 -146Q507 -143 505 -141Q514 -141 532 -146Q556 -152 569 -153Q577 -180 577 -186Q577 -192 576 -195Q572 -195 567 -196Q550 -195 542 -187Q533 -179 523 -172Q510 -167 505 -160ZM657 84V90Q657 94 655 102Q653 107 642 115Q631 123 630 131Q613 130 596 128Q590 122 584 114Q577 107 568 106H566Q558 79 557 78Q550 63 538 59Q542 50 545 40H536Q508 40 491 54Q484 62 477 71Q471 80 457 81Q451 81 447 80Q430 72 418 59Q406 33 408 -3Q404 -17 400 -32Q395 -61 392 -89Q389 -116 369 -130V-132Q369 -133 372 -139Q278 -78 194 57Q185 72 162 72Q137 72 129 54H126Q123 54 119 58Q115 62 111 62H110Q114 49 120 38Q105 2 95 -12Q97 -22 97 -27Q97 -45 81 -73Q69 -93 66 -104Q79 -101 88 -85Q96 -70 105 -58Q100 -76 75 -114Q58 -140 40 -167Q55 -158 77 -128Q101 -95 117 -85V-87Q117 -90 112 -95Q105 -101 105 -106V-107Q112 -107 122 -97Q131 -88 135 -87H139Q154 -88 170 -99Q186 -111 197 -120Q313 -213 362 -247H357Q300 -247 226 -198Q196 -178 182 -177H178Q164 -177 148 -188Q145 -190 123 -208Q120 -207 116 -207Q101 -210 88 -217Q82 -225 82 -239Q86 -266 92 -288V-290Q91 -298 89 -307Q89 -321 98 -332Q107 -343 122 -345Q124 -346 127 -346Q134 -345 140 -345H143Q156 -349 182 -368Q211 -390 229 -393Q219 -384 209 -376Q199 -368 194 -354Q198 -349 205 -349Q223 -352 240 -355Q246 -355 249 -354Q258 -362 288 -367Q319 -372 331 -381Q363 -383 381 -385Q407 -392 433 -399Q449 -402 460 -405Q472 -408 479 -418V-457Q399 -439 353 -403H350Q341 -401 331 -399Q320 -407 301 -416Q277 -427 268 -436Q257 -447 255 -457V-459Q256 -465 256 -471Q256 -475 255 -477Q254 -484 245 -494Q232 -510 232 -521Q232 -524 234 -532Q251 -551 254 -558Q252 -565 243 -574Q236 -581 234 -587H235Q243 -587 261 -574V-576Q257 -590 242 -600Q225 -613 218 -624Q243 -613 265 -597Q268 -598 273 -603Q268 -606 262 -608Q256 -610 255 -618V-619Q266 -615 276 -612Q289 -625 331 -625Q360 -625 419 -645Q461 -659 480 -661V-671Q480 -703 467 -722Q455 -739 430 -753Q444 -763 455 -775V-777Q454 -780 451 -779Q447 -779 446 -782V-784Q463 -791 479 -802Q484 -800 488 -798Q502 -799 520 -809Q539 -820 550 -820H551Q570 -820 592 -791Q610 -768 622 -763Q626 -747 630 -732Q630 -726 627 -719Q614 -708 614 -698Q614 -693 615 -690H618Q626 -690 634 -696Q640 -695 645 -695Q661 -695 682 -703Q702 -711 712 -712Q709 -708 703 -703Q698 -699 697 -693Q697 -690 698 -688L701 -687Q709 -690 716 -693H718L719 -690Q714 -682 709 -675Q718 -664 722 -647Q726 -630 730 -613Q748 -632 760 -658Q756 -669 753 -684Q753 -687 756 -687Q759 -686 761 -686L763 -687Q758 -698 754 -712Q762 -706 769 -701Q775 -704 780 -704Q792 -701 803 -698Q812 -700 821 -703Q842 -703 856 -688Q864 -680 876 -655Q893 -618 898 -598Q890 -575 885 -569Q876 -559 853 -556Q813 -552 788 -540Q787 -540 756 -517Q727 -495 716 -486Q694 -468 680 -451Q757 -456 796 -477Q798 -490 800 -503Q803 -501 806 -490Q808 -481 812 -478Q824 -481 835 -484H837L838 -482Q836 -477 834 -472Q834 -470 836 -468Q838 -467 841 -467Q849 -467 860 -473Q871 -479 875 -479L879 -478Q878 -473 873 -472Q868 -471 865 -469Q856 -460 847 -451Q848 -445 851 -445Q856 -446 861 -447L865 -446Q863 -438 863 -435Q863 -423 871 -401Q879 -379 880 -371Q874 -365 870 -348Q853 -346 853 -336Q841 -338 815 -338Q771 -337 726 -329Q682 -321 640 -315Q652 -311 664 -308Q676 -304 683 -295H685Q695 -295 707 -285Q712 -287 723 -296Q734 -306 744 -308Q743 -304 734 -295Q719 -280 719 -270Q719 -262 724 -256Q729 -259 734 -265Q742 -274 747 -276Q747 -271 742 -263Q736 -252 736 -244Q736 -241 738 -233Q744 -226 748 -217Q749 -214 749 -209Q747 -196 738 -180H734Q715 -177 708 -164Q708 -161 714 -161Q682 -124 672 -65Q663 -6 656 57Q656 64 661 66Q657 72 657 84Z"/>
</svg>