<svg xmlns="http://www.w3.org/2000/svg" viewBox="0 -800 1024 1024">
	<path fill="#000000" d="M49 -43V-41Q36 -42 33 -43Q25 -45 25 -53Q31 -56 36 -56Q49 -56 49 -43ZM647 -231V-232Q646 -235 640 -235Q629 -233 618 -231L616 -210H619Q629 -210 636 -214Q647 -220 647 -231ZM659 -328Q632 -323 624 -317V-299Q624 -293 623 -291Q640 -294 657 -297V-303Q657 -314 659 -328ZM736 -258Q731 -258 725 -258Q721 -258 713 -253L712 -230Q728 -233 736 -258ZM757 -357Q752 -362 747 -362Q732 -358 719 -349Q717 -334 714 -319Q714 -315 716 -307Q730 -310 743 -313Q757 -354 757 -357ZM662 -438V-441Q647 -437 629 -430V-427Q628 -421 627 -415Q644 -419 660 -423Q661 -430 662 -438ZM521 2Q516 4 510 6Q509 9 509 15V20Q498 25 489 32Q449 24 445 24Q427 24 418 36L427 18Q424 4 409 4Q393 4 388 14Q389 10 397 -1Q406 -13 406 -20Q406 -27 393 -33Q401 -37 406 -51Q407 -53 414 -79Q417 -81 436 -94H441Q448 -94 451 -91Q451 -96 457 -96Q461 -95 464 -95L468 -96Q486 -77 502 -55Q519 -34 521 2ZM834 9Q823 6 810 -4Q777 -57 743 -111Q749 -127 752 -133Q757 -143 766 -145Q768 -146 773 -146Q795 -142 817 -139Q830 -139 835 -147V-144Q835 -139 838 -133Q843 -134 849 -141Q855 -149 860 -150Q857 -132 857 -128Q858 -125 858 -123Q865 -128 879 -141Q898 -160 912 -165Q909 -155 897 -141Q881 -122 879 -108Q883 -102 889 -97Q920 -120 956 -151Q955 -142 937 -124Q912 -98 912 -85Q912 -75 921 -66Q932 -74 948 -76H952Q935 -71 935 -55Q935 -37 956 -36Q943 -30 941 -10Q939 -2 935 7Q929 19 929 26Q929 28 931 36Q927 32 922 32Q910 36 898 42H894Q882 42 864 33Q843 28 840 21ZM981 -85Q977 -80 972 -79Q966 -78 959 -76V-78Q959 -89 972 -89Q978 -89 981 -85ZM934 -190Q932 -181 913 -169V-172Q914 -191 927 -193Q931 -193 934 -190ZM810 -482Q804 -480 801 -480L855 -469L856 -466Q853 -458 850 -450Q850 -448 852 -444Q857 -445 867 -453Q880 -464 891 -465Q883 -456 874 -448Q866 -440 863 -426Q863 -422 866 -422Q869 -421 872 -420Q867 -410 867 -407V-405Q872 -385 872 -369Q872 -355 867 -343Q891 -346 944 -370Q942 -364 940 -358Q944 -349 951 -349H956Q954 -347 954 -345Q957 -339 960 -333Q959 -329 957 -325Q960 -311 962 -297Q962 -288 956 -282H953Q940 -282 935 -270Q933 -273 918 -274Q902 -275 897 -279L879 -275Q866 -274 848 -272Q830 -270 815 -261Q797 -247 793 -222Q789 -197 780 -175Q772 -166 749 -166Q732 -166 725 -162Q717 -157 717 -143Q719 -124 720 -105Q720 -95 718 -90L712 -61Q720 -56 723 -43Q725 -31 727 -18Q733 15 737 80Q733 85 733 97V103Q724 104 717 113Q708 125 706 127Q682 125 670 112Q656 93 635 81V76Q634 56 621 48Q608 40 596 30Q598 29 601 29Q613 32 624 35Q613 27 588 15Q568 6 559 0Q563 0 566 -1Q575 -1 589 5Q604 11 611 12Q602 7 592 4Q582 0 577 -8Q602 -2 631 1Q640 1 645 0Q648 -72 650 -145Q646 -145 641 -146Q618 -146 611 -135Q605 -127 605 -104Q606 -80 607 -57Q607 -49 605 -39Q601 -16 574 -11H570Q533 -20 522 -60V-76Q522 -84 516 -88Q525 -98 528 -112Q524 -118 517 -118Q511 -119 506 -121Q494 -154 494 -165Q494 -170 496 -184Q504 -190 521 -191Q539 -193 549 -196V-214Q515 -209 492 -196Q481 -189 469 -179Q457 -170 445 -169H444Q432 -169 416 -182Q401 -195 399 -205V-207Q400 -215 409 -225Q411 -231 412 -238Q417 -246 431 -257Q445 -268 448 -274Q450 -272 450 -269Q449 -262 447 -256Q465 -259 507 -268Q520 -270 536 -275Q552 -281 553 -300Q525 -287 504 -283Q487 -283 478 -303Q467 -307 459 -312Q456 -322 453 -333Q459 -347 465 -364Q471 -381 488 -383Q492 -383 495 -382Q513 -390 553 -402V-404Q553 -409 552 -415Q552 -418 553 -420H548Q531 -420 507 -408Q483 -396 471 -396H469Q448 -397 436 -414Q425 -430 412 -445Q420 -483 426 -522Q434 -519 442 -516Q461 -517 498 -524Q493 -528 489 -535Q485 -541 479 -542H477V-544Q477 -557 463 -571Q454 -580 451 -588Q458 -596 458 -604Q458 -610 451 -624Q444 -638 444 -646V-649Q450 -648 456 -639Q462 -631 467 -631H468Q472 -634 472 -636Q470 -641 468 -647V-648Q470 -649 473 -649Q480 -647 486 -645Q500 -651 512 -651Q549 -651 578 -602Q582 -602 586 -607Q590 -611 591 -611H592Q590 -601 590 -598Q590 -589 596 -576Q603 -561 603 -551V-548Q612 -550 621 -552Q631 -554 651 -560Q658 -576 658 -578Q675 -617 679 -658Q679 -671 677 -678Q665 -678 648 -668Q637 -661 628 -659Q639 -675 655 -687Q670 -699 672 -722V-726Q697 -732 714 -746Q731 -760 750 -772Q773 -765 800 -763Q813 -725 857 -700Q859 -686 859 -680Q859 -670 853 -666L831 -637Q834 -626 820 -615Q794 -595 785 -583Q826 -596 866 -603Q858 -589 851 -573Q853 -571 857 -571Q868 -576 881 -581Q885 -581 888 -577Q880 -570 870 -565Q861 -561 857 -550L860 -549Q866 -550 872 -552H875Q865 -539 865 -526Q865 -515 875 -508Q837 -486 810 -482ZM300 -375Q302 -415 303 -433Q306 -460 308 -488Q308 -494 306 -502Q288 -491 262 -474Q236 -456 224 -437Q215 -422 204 -406Q193 -389 191 -369Q192 -351 194 -320Q202 -334 209 -348Q213 -370 219 -386Q232 -408 251 -413Q271 -418 286 -399Q289 -395 291 -386L293 -385Q299 -381 300 -375ZM299 -371Q294 -358 282 -340Q282 -335 277 -322Q271 -307 272 -297Q274 -149 260 -30Q262 -27 264 -27L266 -28Q265 -30 264 -32V-33Q279 -33 282 -30Q285 -31 290 -43Q300 -45 304 -45Q321 -44 335 -34Q348 -24 363 -16Q366 -17 369 -21Q373 -27 377 -27L379 -25Q376 -20 373 -15Q380 10 380 28Q380 74 346 74Q337 72 327 69Q320 65 312 60Q304 54 294 53Q294 45 281 34Q270 25 268 18Q266 12 265 -2Q264 -18 259 -25Q252 26 244 61Q231 107 214 111H212Q204 112 201 101Q198 91 191 91Q184 91 177 99Q180 92 178 84Q176 72 158 70Q140 68 127 66Q159 64 163 60Q144 44 90 6Q108 10 124 16Q139 22 157 23Q150 8 115 -11Q84 -28 58 -33Q54 -37 54 -39Q84 -36 93 -33Q138 -18 171 -22Q210 -27 217 -59Q227 -114 229 -221Q229 -282 232 -287Q228 -292 227 -299Q226 -306 218 -307Q219 -309 219 -313Q217 -318 215 -324Q209 -323 203 -316Q198 -311 195 -309Q200 -231 208 -174Q212 -141 212 -93Q204 -87 202 -80Q200 -72 195 -64Q180 -68 172 -67Q163 -75 152 -94Q142 -111 136 -117Q137 -119 143 -133Q131 -180 124 -231Q122 -241 119 -251Q119 -254 121 -258L111 -295Q101 -301 98 -312Q96 -323 92 -333Q85 -341 77 -349Q75 -351 67 -363Q61 -372 53 -375Q39 -404 36 -435Q36 -443 37 -447Q43 -462 49 -477V-482Q49 -496 41 -519Q32 -545 32 -557V-565Q41 -550 46 -532Q52 -514 69 -508Q67 -515 60 -525Q51 -538 50 -549Q54 -548 62 -539Q74 -525 85 -525H86V-527Q86 -530 82 -534Q75 -541 75 -547H78Q84 -547 89 -539Q92 -534 95 -532Q116 -538 143 -541Q155 -541 160 -537Q165 -534 168 -522Q170 -515 173 -510Q199 -525 220 -548Q240 -571 261 -594Q282 -613 284 -616Q296 -630 300 -645Q310 -651 311 -658Q334 -681 363 -681Q369 -681 373 -680Q376 -680 379 -676Q381 -672 383 -672Q387 -673 391 -678Q394 -682 396 -682Q398 -681 400 -680Q395 -672 395 -669Q395 -667 397 -663Q404 -664 410 -674Q416 -684 424 -684H425Q418 -673 416 -659V-657L418 -656Q420 -656 422 -660Q424 -664 426 -664Q426 -660 425 -656Q425 -646 433 -633Q441 -620 441 -608V-601Q439 -591 437 -582V-574Q425 -544 410 -517Q396 -490 389 -454Q388 -449 383 -445Q381 -408 372 -394L364 -345Q370 -337 370 -319Q370 -308 369 -298V-281Q370 -247 370 -213Q370 -198 369 -184Q369 -164 368 -144Q368 -113 376 -97Q376 -91 373 -90Q376 -83 379 -76Q375 -67 373 -57Q370 -59 366 -61L364 -60Q352 -49 336 -47Q332 -47 329 -48Q324 -51 318 -58Q300 -76 297 -80Q287 -94 287 -111Q290 -159 290 -201V-215Q290 -258 299 -371Z"/>
</svg>