<svg xmlns="http://www.w3.org/2000/svg" viewBox="0 -800 1024 1024">
	<path fill="#000000" d="M279 -243Q264 -253 256 -269Q248 -286 241 -302Q232 -297 232 -267Q232 -224 245 -222Q252 -228 259 -234Q261 -235 279 -243ZM321 -288V-299Q325 -360 328 -421Q328 -437 327 -444Q303 -420 291 -402Q274 -376 269 -346H272Q296 -344 304 -325Q312 -305 321 -288ZM778 -372L775 -373Q715 -356 654 -340L646 -299Q703 -310 722 -318Q761 -334 769 -364Q774 -368 778 -372ZM740 -489Q774 -504 811 -508Q823 -508 829 -506Q836 -510 842 -515Q848 -521 858 -521H860Q848 -518 848 -511Q851 -498 871 -496Q874 -496 877 -497Q883 -490 893 -486Q900 -488 909 -496Q919 -504 925 -506Q922 -501 917 -496Q913 -492 912 -485L913 -481Q927 -485 952 -502Q974 -516 981 -520Q969 -504 957 -494Q945 -484 944 -471Q944 -455 966 -448Q964 -444 964 -436Q967 -417 982 -404Q974 -397 974 -378Q974 -371 976 -361Q940 -343 904 -325L882 -314Q879 -306 874 -303Q869 -299 864 -296Q832 -269 801 -221Q781 -221 769 -210H768L766 -213V-219Q760 -218 753 -218Q746 -217 744 -212L736 -218Q677 -203 618 -189Q560 19 509 99H502Q481 98 468 90Q456 81 442 75Q439 23 417 -11Q419 -19 419 -24Q419 -37 409 -64Q401 -84 400 -92Q400 -77 401 -70Q402 -59 402 -49Q402 -34 395 -29L403 4Q413 17 413 44Q412 82 395 99Q392 101 378 104H371Q356 104 344 95Q337 90 324 74Q298 42 275 39Q260 37 250 37Q240 37 229 27Q244 28 258 28Q288 28 303 19Q301 12 286 12H279Q312 2 312 -47V-56Q300 -58 288 -61Q281 -61 276 -57Q276 -66 279 -72Q270 -79 260 -87V-92Q260 -117 283 -117Q304 -117 316 -102Q317 -113 317 -133Q317 -148 316 -156Q257 -132 253 -96V-90Q257 -51 267 -20Q258 -11 252 1Q245 13 233 16H231Q217 16 194 1Q172 -14 167 -26Q148 -15 132 0Q123 8 114 16Q104 24 93 25Q86 25 75 18Q66 7 56 -4Q53 -7 36 -19Q26 -26 24 -36Q24 -39 23 -43Q23 -56 33 -76Q43 -96 43 -107Q43 -114 42 -117Q62 -139 84 -167Q95 -161 107 -161Q119 -161 140 -168Q133 -179 128 -207Q124 -229 121 -236Q113 -249 113 -251Q113 -255 115 -257L107 -267Q94 -272 85 -284Q77 -296 69 -308Q56 -321 51 -338V-342Q56 -363 60 -384V-386Q59 -394 51 -411Q42 -429 42 -439Q42 -442 44 -450Q47 -447 55 -431Q61 -418 72 -417Q74 -419 74 -422Q70 -428 66 -435Q62 -450 57 -465Q55 -472 52 -480Q52 -485 57 -486Q64 -469 70 -453Q78 -434 84 -434L88 -435Q85 -452 76 -471Q81 -470 89 -460Q97 -449 103 -447Q121 -465 156 -465Q191 -465 202 -444Q211 -450 225 -468Q241 -489 253 -495Q246 -578 236 -608Q220 -640 217 -676Q217 -690 221 -703Q226 -705 231 -708H233Q238 -727 261 -741Q284 -755 307 -755Q344 -755 352 -720L355 -714Q374 -709 374 -677Q373 -657 371 -637Q386 -643 408 -647Q415 -647 426 -642Q435 -638 439 -638Q442 -638 444 -639Q443 -634 443 -626Q443 -616 448 -609Q452 -610 454 -618Q457 -626 461 -627Q457 -619 457 -609Q457 -585 483 -552Q484 -546 485 -541Q486 -535 491 -533Q453 -490 433 -442Q409 -387 406 -316L399 -189Q397 -177 397 -152Q397 -138 399 -110Q399 -102 399 -95Q408 -85 417 -73Q426 -60 439 -54Q432 -67 424 -80L427 -81Q431 -81 436 -75Q440 -70 443 -70Q464 -80 477 -123Q491 -170 505 -182L522 -227Q517 -232 517 -239Q517 -249 526 -272Q544 -330 548 -353H546Q516 -353 504 -347Q495 -353 490 -370Q476 -374 473 -382Q471 -387 471 -406Q471 -414 474 -425Q469 -442 469 -453Q472 -481 504 -495Q542 -511 567 -525Q567 -520 542 -502Q516 -483 516 -474Q518 -473 522 -473Q531 -474 540 -476Q552 -481 564 -486Q562 -482 545 -473Q523 -462 522 -454Q536 -453 556 -465Q570 -473 577 -471Q591 -465 602 -468Q609 -473 618 -471Q625 -470 628 -471Q641 -469 657 -470Q644 -541 637 -611Q631 -616 589 -648Q586 -657 586 -664Q586 -685 611 -710Q621 -722 630 -733Q640 -743 650 -744Q653 -743 655 -743Q657 -759 668 -765Q679 -772 689 -780Q701 -783 709 -783Q727 -782 735 -769Q743 -755 753 -735Q761 -722 768 -709Q775 -696 778 -678Q774 -667 764 -653Q758 -644 757 -636Q762 -633 766 -630Q809 -639 899 -696Q895 -688 892 -681Q898 -683 905 -688Q917 -697 923 -697Q928 -697 931 -696Q925 -689 918 -684Q911 -680 908 -670Q913 -660 924 -660Q932 -660 940 -661H943Q933 -641 933 -633Q933 -623 943 -622Q940 -613 937 -604Q938 -602 938 -597Q938 -587 927 -566Q918 -548 916 -540Q893 -540 869 -541H857L828 -544Q826 -535 817 -534Q808 -533 800 -532Q779 -528 769 -519Q749 -504 740 -489Z"/>
</svg>