<svg xmlns="http://www.w3.org/2000/svg" viewBox="0 -800 1024 1024">
	<path fill="#000000" d="M911 -743V-742Q910 -736 905 -735Q899 -733 895 -731Q892 -734 892 -736Q892 -743 911 -743ZM722 -487Q722 -483 716 -480Q711 -478 711 -475Q708 -478 708 -480Q710 -486 717 -488Q720 -487 722 -487ZM425 -513Q428 -513 431 -513Q455 -513 465 -503Q487 -481 493 -466Q500 -449 494 -420Q485 -413 469 -412Q459 -408 452 -399Q444 -390 439 -383Q522 -411 612 -448Q622 -455 631 -462H633Q640 -460 646 -459Q652 -461 657 -464L658 -461Q658 -457 656 -453Q659 -451 661 -449Q685 -463 702 -470Q696 -463 685 -457Q675 -450 674 -441Q679 -436 689 -431H690Q701 -434 712 -437Q709 -433 704 -431Q699 -428 698 -422V-420Q701 -421 703 -423L704 -422Q701 -412 697 -402Q697 -390 701 -376Q705 -362 698 -355Q621 -296 544 -237Q516 -217 470 -229Q450 -251 459 -275L475 -292Q488 -300 502 -316Q516 -333 521 -337Q414 -315 329 -266Q360 -271 401 -277H402Q409 -276 416 -276H418Q426 -255 448 -247Q448 -221 462 -208Q449 -180 433 -157Q376 -139 343 -113Q351 -96 356 -76Q436 -96 459 -117L460 -114Q457 -109 453 -104V-101Q458 -96 463 -96Q476 -98 488 -101Q479 -98 479 -84V-80Q483 -78 485 -78Q490 -79 495 -80Q490 -76 490 -71Q490 -66 494 -59Q485 -58 485 -46Q485 -41 488 -26Q453 -23 428 -11Q404 1 380 13Q383 26 393 33Q457 27 651 -7Q661 -32 671 -58Q668 -59 661 -59Q639 -56 620 -50L607 -51Q605 -46 591 -43Q579 -41 576 -37Q557 -40 545 -52Q541 -56 525 -78V-83Q526 -100 538 -108Q550 -116 562 -124Q566 -124 566 -120Q567 -116 571 -115Q633 -125 696 -136Q703 -144 719 -171Q708 -170 702 -165Q696 -160 690 -155Q687 -156 680 -156Q667 -156 666 -148Q634 -153 604 -179Q585 -176 566 -174Q577 -181 588 -188H585Q543 -188 503 -163Q517 -180 555 -202Q586 -220 653 -248Q721 -276 747 -291H754Q780 -294 805 -297Q812 -294 818 -292Q825 -298 831 -305Q837 -312 846 -316L847 -315Q847 -313 841 -305Q834 -295 834 -291V-289H835Q839 -289 844 -293Q850 -298 853 -298H855Q851 -294 851 -287Q851 -272 863 -263L875 -266Q875 -262 871 -259Q866 -255 866 -252Q867 -249 870 -248L873 -249Q869 -242 869 -234Q869 -226 878 -210Q888 -192 888 -179V-174Q871 -171 864 -169Q850 -165 846 -159L848 -158Q851 -158 853 -158L855 -156V-155Q847 -157 843 -157Q819 -157 811 -141L802 -126Q803 -123 803 -120Q803 -110 787 -78Q777 -55 761 -36L755 -26V-23Q751 -6 740 15Q735 37 728 61Q721 84 705 97Q700 101 685 103Q671 105 665 109Q654 100 642 91Q516 109 368 124Q356 124 331 119Q310 114 303 107Q298 102 294 90Q289 75 277 72Q279 65 280 57V55Q276 50 265 50Q266 47 270 45Q275 43 276 42V38Q275 31 274 23L273 13Q266 11 261 5Q256 -1 252 -7Q242 -19 232 -31Q215 -36 200 -35Q173 -37 151 -55Q128 -74 128 -96V-99Q131 -117 139 -135Q142 -148 145 -158Q147 -167 162 -173Q167 -189 171 -195Q178 -206 190 -209Q187 -198 183 -188Q192 -201 203 -218Q215 -235 235 -242Q229 -233 220 -221Q211 -210 210 -198Q210 -191 212 -188Q216 -191 220 -200Q225 -211 232 -212L233 -211Q230 -204 227 -197Q227 -195 229 -191Q258 -184 286 -178L289 -177Q301 -185 313 -193Q315 -212 296 -215Q280 -217 274 -223Q268 -229 271 -232Q266 -240 256 -244Q283 -248 313 -262H309Q300 -262 295 -259Q285 -283 278 -286Q274 -283 269 -281L267 -282Q270 -286 270 -290Q270 -296 249 -301Q232 -305 222 -305H221Q217 -305 212 -299Q207 -294 202 -293Q204 -298 210 -305Q218 -314 219 -320H216Q208 -320 194 -309Q181 -299 172 -297Q185 -314 219 -345L233 -358Q249 -372 257 -374Q259 -380 260 -382H262Q267 -383 271 -385H273L280 -392Q280 -402 294 -408V-410Q296 -415 302 -418Q305 -424 318 -436Q328 -446 333 -454L332 -455H329L326 -457V-458Q331 -464 338 -469H334Q332 -469 314 -463L313 -465Q313 -469 319 -473Q324 -476 329 -479Q327 -480 322 -480Q318 -480 314 -480Q315 -482 317 -482Q321 -483 322 -488Q322 -494 315 -497Q305 -495 286 -488Q261 -478 248 -479L227 -475Q215 -471 204 -467Q193 -463 190 -450Q150 -455 135 -462Q109 -474 110 -500Q110 -509 113 -518Q111 -523 96 -543Q98 -626 173 -636Q167 -624 159 -616Q163 -612 167 -613Q225 -623 262 -637V-651Q263 -681 279 -698Q277 -704 275 -710L276 -713Q281 -711 284 -704Q288 -696 291 -695L294 -697Q294 -699 290 -701Q310 -700 335 -684Q357 -670 371 -652Q474 -675 595 -699V-706Q597 -716 599 -727Q592 -731 584 -731Q579 -731 549 -725Q558 -738 576 -746Q594 -755 613 -765Q651 -788 689 -800Q692 -801 699 -801Q721 -799 725 -776Q729 -745 734 -720Q738 -718 746 -716Q776 -721 805 -727Q809 -727 815 -725L816 -728V-734Q816 -736 818 -740Q822 -739 825 -733Q828 -726 832 -725H835Q855 -728 875 -732Q880 -732 883 -729Q875 -725 864 -724Q853 -723 849 -715Q851 -709 857 -709Q868 -711 879 -713Q879 -710 873 -707Q864 -702 864 -697Q868 -693 874 -693H877Q877 -677 878 -658Q878 -640 891 -636Q871 -634 868 -605V-602Q837 -596 806 -594Q798 -594 794 -595L772 -590Q764 -584 738 -583Q707 -582 697 -573H696Q676 -570 658 -537Q640 -505 630 -485Q618 -492 602 -492Q585 -492 581 -480Q579 -484 579 -485Q582 -492 584 -500Q565 -495 563 -480V-478Q551 -486 579 -571Q572 -573 509 -557Q447 -542 426 -534Q425 -529 424 -524Q425 -518 425 -513Z"/>
</svg>