<svg xmlns="http://www.w3.org/2000/svg" viewBox="0 -800 1024 1024">
	<path fill="#000000" d="M912 -683Q911 -668 901 -663Q901 -668 900 -673Q900 -683 904 -688Q908 -685 912 -683ZM141 -561H133Q130 -564 130 -568Q131 -578 143 -579Q146 -578 148 -578V-576Q148 -573 144 -570Q140 -567 140 -565ZM912 -242V-240Q910 -227 902 -221Q899 -225 899 -232Q899 -246 906 -246Q909 -246 912 -242ZM557 -197V-195Q555 -184 553 -173Q553 -169 554 -167Q588 -176 603 -185Q626 -199 631 -224Q604 -220 557 -197ZM949 6V8Q947 29 926 47Q903 66 877 66Q873 66 868 65Q858 59 837 59Q836 59 791 62Q722 64 649 64Q576 64 526 76Q520 75 508 68Q494 60 485 60Q481 60 478 61Q456 37 456 -6Q457 -13 457 -20Q462 -34 475 -52Q481 -65 485 -80Q489 -96 498 -105Q498 -108 497 -112Q497 -121 502 -136Q508 -154 508 -165Q508 -172 507 -176Q502 -181 492 -180Q482 -180 474 -182Q463 -193 463 -219Q463 -240 460 -248Q460 -252 463 -254Q466 -255 469 -257Q468 -259 462 -264Q455 -270 454 -277H457Q470 -277 491 -291Q506 -301 513 -303Q531 -304 548 -306Q585 -321 627 -341L668 -357Q682 -363 692 -369Q702 -375 714 -376Q723 -376 732 -372Q744 -412 763 -444Q726 -441 691 -423Q655 -405 621 -389Q582 -372 560 -357Q528 -335 517 -306Q507 -304 505 -304Q488 -306 470 -309H464V-320Q461 -322 456 -322Q450 -322 437 -309V-312Q439 -325 445 -335Q443 -338 440 -341H438Q435 -341 432 -337Q430 -334 428 -334Q430 -339 431 -345L430 -347Q389 -331 362 -294Q336 -258 307 -225Q310 -208 317 -200Q346 -242 365 -294Q386 -309 408 -309H415Q423 -306 430 -284Q436 -264 445 -263Q446 -242 446 -222V-211Q437 -197 416 -187Q392 -175 385 -165Q383 -165 380 -166Q369 -166 369 -156Q369 -151 373 -146Q376 -142 382 -142Q387 -142 391 -145V-137Q394 -137 402 -146Q410 -155 413 -155Q409 -138 407 -119Q410 -116 412 -116Q416 -116 420 -117H422Q417 -111 417 -98Q420 -73 422 -49V-47L421 -46Q419 -47 416 -49Q414 -44 397 -27Q392 -31 384 -31Q373 -31 367 -24V-28Q365 -38 359 -42L356 -43Q353 -41 349 -40L347 -41Q333 -61 316 -79Q315 -70 315 -51Q316 -10 317 30Q317 72 308 99Q303 103 298 107Q284 91 260 87Q228 27 228 -44V-49Q234 -83 239 -117V-125Q212 -106 184 -52Q167 -22 147 5Q127 33 123 76Q117 79 111 79Q90 75 77 64H76Q72 64 72 67L73 71Q71 69 71 67Q74 60 76 53Q65 43 64 27Q63 11 62 -7Q57 -37 57 -43Q57 -54 62 -62Q55 -80 48 -98Q53 -97 58 -90Q63 -84 68 -82V-85Q68 -102 52 -133Q36 -163 34 -182Q46 -180 53 -168Q59 -156 65 -142Q73 -114 96 -111Q107 -111 123 -127Q141 -141 171 -183Q190 -210 204 -225Q226 -250 246 -275Q266 -301 287 -320Q247 -313 204 -281Q185 -267 173 -248Q161 -229 147 -214Q130 -199 115 -199Q103 -199 94 -211Q85 -227 76 -243Q68 -252 57 -262Q45 -271 43 -284Q45 -293 46 -302Q50 -321 50 -346Q50 -362 48 -400Q72 -438 111 -470V-467Q111 -444 132 -444Q149 -445 170 -454Q191 -464 204 -470Q243 -491 276 -503Q272 -512 258 -526Q243 -541 234 -542H232Q222 -542 210 -531Q199 -521 193 -519Q198 -532 212 -538Q216 -553 225 -563Q221 -573 210 -581Q204 -579 201 -576L199 -578Q204 -583 209 -588Q202 -595 195 -595Q189 -595 173 -586Q162 -580 154 -578Q175 -597 200 -614Q202 -622 202 -636Q202 -666 174 -671Q176 -672 180 -672Q182 -672 200 -669Q211 -685 211 -697Q211 -708 203 -722Q208 -721 214 -715Q218 -711 221 -710Q232 -719 243 -728Q254 -738 271 -743Q271 -751 276 -754Q277 -739 288 -735Q299 -730 307 -722Q310 -723 314 -730Q318 -737 321 -737H322Q319 -728 319 -719Q319 -704 330 -679Q341 -655 342 -642Q342 -639 345 -638Q349 -637 350 -636Q341 -631 341 -613Q342 -598 342 -583V-579Q339 -561 335 -543Q335 -535 339 -530Q342 -543 355 -552Q368 -561 382 -561Q405 -561 412 -540H428V-538Q427 -533 425 -528Q431 -531 438 -541Q446 -551 452 -554Q437 -539 437 -515Q437 -510 439 -500L440 -499Q442 -501 447 -504H448Q445 -495 445 -485Q446 -469 447 -454Q447 -443 445 -437Q472 -475 488 -525Q504 -576 520 -629Q532 -651 536 -677Q536 -687 531 -695Q520 -692 509 -679Q500 -668 496 -666V-668Q496 -679 504 -691Q512 -702 519 -714Q532 -740 548 -762Q573 -786 609 -789Q622 -789 631 -783Q633 -782 647 -765Q668 -745 676 -734Q690 -714 693 -691V-688Q692 -673 690 -658V-654Q665 -635 646 -594Q639 -579 618 -519Q666 -536 713 -553Q761 -569 806 -594Q811 -597 820 -612Q831 -630 838 -632Q874 -641 896 -650Q894 -645 891 -641L892 -638Q897 -629 902 -629Q910 -629 926 -653Q939 -672 945 -675Q923 -643 923 -623Q923 -613 927 -605Q932 -608 937 -615Q943 -624 948 -627Q946 -611 943 -595Q943 -588 945 -585Q946 -588 948 -591Q949 -595 953 -595L957 -594Q954 -586 954 -579Q954 -558 967 -547Q968 -542 968 -534Q966 -498 943 -482Q922 -466 908 -444Q907 -442 907 -439Q907 -436 908 -434Q890 -422 876 -396Q876 -395 853 -343Q827 -278 823 -263V-252Q823 -248 822 -246Q819 -240 809 -233Q798 -226 797 -224Q787 -227 777 -230Q772 -230 770 -224Q764 -229 758 -234Q732 -219 711 -159Q693 -108 675 -92Q645 -96 625 -116Q592 -109 578 -98Q558 -83 557 -53Q559 -47 570 -47Q578 -47 586 -48Q593 -48 597 -44Q602 -46 607 -49H608Q610 -47 612 -45H613Q631 -50 661 -50Q684 -49 707 -49Q737 -52 767 -56Q797 -56 821 -57Q845 -59 858 -74Q867 -86 871 -117Q875 -151 884 -162Q883 -134 881 -106Q881 -98 883 -82Q887 -99 890 -133Q894 -183 902 -200V-190Q900 -145 898 -100Q898 -84 899 -77Q903 -104 903 -134Q903 -163 912 -183Q914 -171 914 -162Q913 -132 911 -103Q911 -84 915 -71Q920 -71 921 -79Q922 -86 926 -86V-79Q926 -62 938 -34Q949 -8 949 6Z"/>
</svg>