<svg xmlns="http://www.w3.org/2000/svg" viewBox="0 -800 1024 1024">
	<path fill="#000000" d="M167 -635Q178 -644 212 -648Q238 -651 248 -655Q247 -659 247 -666Q247 -683 262 -704L259 -720H261Q265 -719 269 -719Q269 -713 271 -707Q272 -701 278 -701L279 -702Q278 -705 276 -709V-710Q284 -702 292 -701Q301 -701 311 -698Q318 -695 326 -686Q336 -674 342 -673H345Q359 -675 373 -677Q379 -677 384 -673H391Q397 -686 414 -688Q430 -690 446 -692L547 -711Q565 -732 574 -742Q593 -762 609 -771Q646 -793 671 -792Q683 -792 690 -790Q706 -786 713 -765L717 -750V-754Q728 -750 732 -739Q735 -729 740 -719Q768 -724 796 -726Q799 -733 801 -741Q805 -740 807 -733Q809 -725 813 -724Q840 -726 867 -728Q863 -725 850 -723Q835 -720 830 -716Q833 -712 839 -712Q852 -713 864 -715Q862 -712 854 -709Q847 -706 845 -702Q845 -697 859 -695Q858 -689 857 -683Q857 -678 860 -677H862Q859 -669 859 -663Q859 -648 872 -638Q862 -638 854 -632V-630Q853 -623 851 -616V-614Q805 -598 752 -596Q733 -592 714 -589H698Q691 -590 684 -589Q657 -584 638 -565Q628 -555 605 -522Q585 -526 575 -526Q561 -528 553 -518V-521Q554 -529 559 -535Q555 -537 554 -537Q539 -532 530 -525Q535 -543 546 -557H543Q537 -558 531 -559H528Q522 -563 519 -569Q515 -576 507 -577Q501 -571 466 -564Q422 -555 415 -545Q416 -541 416 -538Q415 -522 397 -509Q382 -499 379 -490Q374 -493 364 -493Q345 -493 330 -480Q323 -506 303 -507Q300 -506 297 -506Q302 -512 308 -515Q302 -518 295 -518Q282 -518 258 -512Q233 -508 208 -501Q183 -494 175 -465Q150 -474 124 -485Q97 -496 96 -524Q96 -528 100 -542Q93 -552 88 -563Q86 -577 86 -582Q87 -616 106 -628Q115 -634 155 -645ZM838 -534H835Q825 -532 814 -530Q814 -535 829 -537Q835 -537 838 -534ZM845 -97Q837 -91 824 -87Q827 -97 838 -99Q843 -99 845 -97ZM954 -260H951Q941 -258 930 -256Q927 -254 923 -258Q927 -266 942 -266Q952 -268 954 -260ZM676 -183Q664 -187 646 -212Q629 -236 625 -254L624 -265Q629 -276 644 -279Q660 -282 674 -286L684 -281Q697 -287 709 -294Q708 -291 707 -289L708 -287Q719 -278 734 -280H751Q766 -282 777 -276Q786 -279 799 -289Q818 -304 838 -305H841Q829 -298 815 -290Q802 -282 801 -270Q801 -267 802 -265Q806 -255 826 -257Q841 -257 850 -261Q843 -257 836 -254Q835 -252 835 -248Q835 -243 843 -237Q873 -250 911 -254Q885 -244 878 -240Q856 -229 857 -219L858 -215Q861 -210 881 -210L888 -211Q867 -206 867 -190Q868 -187 868 -184Q889 -174 924 -163Q921 -162 916 -162Q895 -165 874 -168H871Q860 -167 842 -143Q823 -118 813 -116Q776 -128 762 -129Q733 -147 704 -165ZM713 38Q712 42 704 42Q699 42 693 42Q643 44 630 44Q605 44 579 43Q567 43 559 47L522 48Q451 52 346 67L331 71H330Q315 72 297 83Q281 94 268 94H263Q240 94 228 90Q209 85 190 79Q171 73 169 57Q169 50 171 45Q178 35 185 25Q190 14 195 3Q224 -26 242 -33Q265 -45 286 -52V-51Q285 -48 277 -43Q268 -39 268 -32Q272 -27 286 -27Q296 -27 299 -25Q350 -33 394 -41Q438 -50 504 -54Q527 -54 550 -55L610 -56Q618 -59 627 -59Q639 -59 651 -60Q662 -61 673 -63Q682 -63 685 -59L701 -61Q707 -67 721 -69Q735 -70 748 -71Q755 -79 769 -112L770 -96Q772 -82 777 -76Q794 -79 811 -83Q810 -81 807 -79Q803 -77 803 -75Q805 -71 815 -66Q829 -71 848 -75H851Q829 -64 829 -59Q830 -53 836 -53Q848 -56 850 -56Q854 -56 856 -54L857 -53Q857 -51 851 -46Q846 -42 845 -40Q854 -25 889 -23Q889 -21 885 -21H875Q870 -21 868 -19Q871 -11 872 -4Q873 21 848 63Q813 57 770 53V52Q769 48 768 43V42ZM467 -484Q472 -484 477 -485Q482 -485 483 -484Q520 -494 610 -507Q691 -519 728 -528L732 -527Q728 -524 726 -519L728 -517Q736 -520 742 -524Q747 -529 758 -529H762Q761 -526 755 -523Q748 -520 749 -516Q759 -517 773 -522Q787 -528 795 -528Q801 -528 804 -527Q793 -522 781 -517Q766 -513 765 -506L766 -503Q792 -507 818 -515Q805 -508 791 -502Q786 -499 781 -495Q775 -491 775 -488L776 -485H778Q791 -489 804 -493Q797 -489 788 -480Q778 -470 778 -464Q778 -459 787 -461Q791 -461 795 -461Q791 -459 791 -452Q796 -430 800 -409V-408Q798 -397 758 -392H749Q727 -391 704 -391L692 -390Q642 -389 610 -375V-373Q610 -371 616 -369Q604 -359 605 -345V-343Q529 -339 490 -305H495Q507 -305 522 -298Q536 -291 549 -291Q552 -285 561 -285L564 -286Q562 -283 562 -277Q562 -270 571 -259Q578 -250 578 -246V-244Q577 -231 569 -217Q560 -196 551 -194L563 -167Q564 -152 576 -140Q564 -123 565 -97V-92Q544 -79 517 -69Q492 -72 454 -97Q446 -128 410 -134Q426 -136 441 -138Q442 -151 447 -165Q452 -180 451 -199Q451 -205 450 -211Q449 -225 427 -238Q410 -248 406 -255Q375 -239 362 -230Q339 -214 332 -196Q295 -177 237 -128Q185 -84 152 -66Q135 -68 117 -70Q95 -94 76 -99Q70 -115 68 -143V-180Q72 -178 76 -171Q80 -165 84 -163Q83 -172 75 -191Q65 -215 64 -231V-238Q92 -188 109 -172Q201 -209 269 -253Q337 -298 413 -344Q409 -346 406 -346Q395 -344 388 -339L384 -341Q383 -341 381 -338L374 -337Q355 -336 349 -331Q342 -324 329 -320Q300 -307 270 -295Q258 -291 253 -291Q230 -292 215 -307Q201 -322 188 -333Q166 -349 163 -353Q161 -359 161 -362Q161 -386 179 -419Q181 -431 187 -440Q203 -448 218 -457Q232 -467 247 -472H249V-471Q249 -466 248 -462Q248 -457 253 -455Q259 -459 264 -463L265 -462Q265 -457 268 -454Q276 -453 292 -453Q312 -454 334 -461Q360 -469 376 -470H390Z"/>
</svg>