<svg xmlns="http://www.w3.org/2000/svg" viewBox="0 -800 1024 1024">
	<path fill="#000000" d="M907 -192H909Q907 -173 900 -171Q900 -178 898 -190H900Q904 -191 907 -192ZM861 -439V-459Q867 -463 871 -463H874Q876 -461 876 -457Q874 -443 861 -439ZM756 -291V-292Q716 -286 670 -273Q631 -262 628 -228Q628 -222 629 -219H632Q642 -219 680 -228Q699 -234 718 -240Q725 -244 743 -265Q756 -282 756 -291ZM772 -103H769Q764 -103 755 -110Q744 -118 738 -118H737Q729 -115 721 -112Q722 -114 722 -118V-126Q722 -129 717 -129H713Q713 -134 711 -140Q711 -142 710 -145Q681 -144 653 -142Q628 -140 624 -118Q611 -120 598 -123H595Q586 -132 573 -136Q570 -149 564 -154Q551 -192 537 -226Q530 -226 530 -219Q530 -216 531 -214Q518 -207 509 -195Q479 -193 427 -163Q407 -150 405 -132Q417 -126 435 -126H457Q510 -120 562 -115Q571 -114 579 -114Q599 -111 707 -88Q738 -83 768 -78Q803 -68 834 -65Q847 -65 858 -69Q864 -74 867 -96Q869 -111 873 -118Q875 -95 882 -78Q883 -83 883 -93Q881 -129 878 -166Q878 -186 883 -199Q888 -167 891 -132Q893 -97 901 -67Q903 -75 903 -82Q901 -108 899 -134Q899 -148 903 -156Q911 -99 920 -71Q934 -27 962 -9Q967 8 967 21Q967 60 941 86Q930 86 910 97Q806 32 617 -15Q595 -17 573 -19Q565 -23 556 -28H543Q537 -28 534 -29Q430 -49 371 -52Q345 -54 328 -54Q263 -54 245 -34Q237 -20 229 -7Q214 13 213 17Q207 34 201 51Q193 53 189 53Q172 52 160 42Q147 31 136 21Q131 24 126 26H123V23Q123 3 108 -21Q96 -41 81 -52H83Q88 -52 93 -48Q99 -43 103 -43Q99 -57 70 -71Q46 -83 40 -91Q53 -89 66 -82Q78 -75 90 -70Q106 -63 118 -63H120Q140 -66 157 -84Q175 -103 188 -118Q226 -156 241 -189Q237 -195 236 -201Q244 -203 257 -212Q275 -224 286 -224Q294 -224 302 -220Q325 -185 325 -163Q325 -148 317 -136Q322 -132 333 -132Q337 -132 341 -133Q341 -144 340 -156Q342 -198 343 -240Q343 -252 341 -274Q306 -263 271 -243Q237 -224 204 -205Q178 -195 161 -180Q157 -175 154 -165Q149 -149 142 -145H135Q116 -146 102 -156Q88 -167 76 -178Q71 -183 58 -190Q38 -201 35 -208Q31 -217 31 -231Q31 -263 49 -283Q48 -288 48 -296Q49 -319 65 -331Q82 -343 100 -354Q138 -382 150 -384Q150 -377 138 -368Q123 -356 123 -344V-342Q127 -338 133 -338Q146 -340 161 -349Q203 -363 241 -379Q292 -399 344 -414V-425Q344 -446 341 -466Q279 -441 208 -388Q180 -400 174 -404Q157 -416 155 -437Q133 -456 133 -484Q134 -490 134 -496Q135 -506 142 -521Q149 -536 149 -543Q149 -551 141 -562Q133 -573 133 -581L135 -582Q141 -577 153 -572H156Q153 -582 139 -599Q124 -617 120 -627Q131 -624 144 -608Q158 -591 171 -589Q171 -600 159 -609Q150 -616 148 -621H150Q167 -617 183 -606Q189 -608 194 -610H196Q213 -604 228 -604Q257 -605 285 -617Q313 -628 338 -637Q339 -642 339 -651Q339 -667 329 -695Q322 -714 321 -721Q321 -724 320 -728Q320 -745 336 -762Q360 -787 362 -790Q383 -796 402 -799Q407 -799 410 -798Q421 -790 429 -775Q438 -763 450 -749Q461 -735 463 -719V-717Q460 -701 457 -686Q457 -680 460 -676H461Q470 -676 482 -683Q495 -691 501 -691Q497 -684 491 -678Q485 -672 484 -664Q484 -659 488 -655L492 -654Q498 -657 503 -660Q501 -652 501 -648Q504 -636 506 -624L509 -623Q513 -624 516 -625L518 -624Q517 -610 515 -597Q515 -591 516 -588Q506 -582 506 -559Q506 -540 501 -534Q496 -525 462 -515Q425 -499 423 -498V-495Q420 -471 417 -447V-443Q462 -460 503 -481L506 -479Q505 -475 503 -472V-471Q514 -455 531 -445Q528 -434 528 -422Q528 -388 547 -376Q547 -363 541 -343Q510 -335 479 -327Q448 -319 426 -301Q428 -290 430 -279Q434 -280 450 -288Q470 -298 481 -298Q492 -298 501 -289Q510 -305 523 -315Q537 -326 550 -336Q567 -333 579 -327Q621 -329 654 -339Q688 -349 731 -357Q703 -371 679 -405Q682 -411 685 -418Q683 -433 663 -445Q665 -446 669 -446Q679 -444 688 -443Q728 -533 737 -562H733Q721 -561 712 -554Q704 -546 697 -540Q701 -529 704 -519Q676 -490 655 -442Q641 -410 623 -349Q616 -346 607 -346Q580 -346 559 -376Q564 -386 564 -396Q564 -406 552 -448L555 -449Q559 -449 563 -443Q568 -437 570 -436Q587 -444 596 -463Q596 -467 590 -467Q586 -467 582 -465Q577 -467 566 -477Q553 -489 544 -489Q543 -489 537 -487Q516 -508 514 -530Q515 -533 515 -537Q520 -548 525 -559Q527 -574 527 -584Q528 -595 535 -604Q543 -610 550 -616Q562 -630 571 -644Q580 -658 590 -663Q587 -650 583 -637Q583 -632 586 -628Q616 -636 646 -652Q675 -668 707 -682Q740 -696 758 -710Q773 -722 784 -729Q801 -740 813 -740Q827 -740 839 -727Q845 -729 850 -735Q857 -743 861 -744V-742Q858 -733 855 -724Q862 -726 874 -737Q886 -749 892 -751Q888 -740 881 -732Q874 -723 873 -709Q877 -710 882 -718Q886 -724 888 -724H889Q886 -715 886 -707Q886 -690 898 -675H899Q902 -675 903 -677Q904 -680 905 -680L907 -679Q909 -675 909 -673Q909 -669 906 -660Q922 -634 922 -592Q922 -583 921 -574Q906 -569 901 -569H898Q851 -540 828 -485Q806 -430 787 -371Q790 -370 795 -370Q803 -370 808 -375Q813 -381 821 -387Q833 -391 842 -400Q847 -408 849 -417Q852 -426 861 -429Q855 -415 855 -405Q855 -391 869 -390Q882 -400 894 -411V-408Q894 -406 890 -400Q885 -393 885 -386V-382Q887 -381 889 -385Q893 -390 895 -390Q896 -390 900 -388Q899 -384 899 -377Q899 -352 918 -345Q925 -323 932 -302Q943 -269 943 -262Q943 -257 942 -255Q939 -245 928 -242Q916 -238 907 -235Q887 -223 861 -202Q851 -191 839 -175Q828 -166 823 -159Q822 -152 820 -145Q817 -138 807 -126Q797 -113 793 -105Q791 -106 788 -106Q780 -104 772 -103Z"/>
</svg>