<svg xmlns="http://www.w3.org/2000/svg" viewBox="0 -800 1024 1024">
	<path fill="#000000" d="M979 -625V-622Q979 -614 973 -613Q967 -612 961 -610V-613Q961 -619 966 -622Q970 -625 977 -625ZM635 -26V-29Q652 -26 658 -10Q655 -9 649 -9Q641 -9 637 -11Q636 -18 635 -26ZM283 -140V-145Q283 -153 289 -162Q294 -170 295 -174Q285 -186 277 -199Q268 -185 268 -162Q268 -148 271 -136Q275 -136 283 -140ZM194 -257H195Q205 -257 205 -267Q205 -274 204 -281Q204 -290 203 -299Q204 -320 204 -341Q204 -357 203 -363L201 -365Q198 -360 190 -354Q181 -348 179 -341V-339Q179 -330 184 -303Q193 -266 194 -257ZM296 -431V-432H295Q270 -418 270 -365Q272 -325 274 -286Q281 -291 282 -300Q283 -309 283 -318Q292 -374 296 -431ZM533 -44Q536 -72 545 -94Q553 -117 560 -140Q554 -148 533 -161Q514 -137 502 -106Q490 -75 478 -44Q492 -36 511 -27Q516 -33 520 -38Q524 -43 533 -44ZM726 71V67Q724 54 717 46H719Q723 47 727 47H729Q723 39 705 28Q689 18 683 11Q706 18 724 30Q726 27 727 23Q718 15 696 7Q671 -1 664 -8H668Q694 -4 719 -1Q730 -1 740 -4Q767 -20 784 -52V-57Q784 -67 781 -73Q754 -73 727 -58Q720 -54 708 -43Q695 -31 689 -30Q687 -29 682 -29Q663 -29 659 -62Q642 -74 642 -103Q642 -117 647 -127Q653 -130 658 -133Q657 -137 657 -144Q661 -184 697 -199Q688 -194 688 -179Q688 -171 692 -168Q744 -174 748 -174Q752 -186 763 -207Q778 -236 782 -256Q767 -253 751 -232Q739 -216 729 -211Q707 -220 686 -231Q683 -263 679 -295Q679 -318 689 -335Q691 -335 693 -332Q695 -330 697 -329Q708 -341 739 -351Q764 -359 775 -366Q791 -377 809 -390Q826 -403 846 -404H849Q862 -400 874 -396Q879 -396 882 -398Q884 -395 885 -392Q886 -389 890 -389Q898 -391 902 -397Q906 -403 911 -409V-407Q907 -389 903 -372Q903 -363 910 -345Q917 -327 917 -315Q917 -307 914 -300Q856 -263 834 -203Q880 -210 923 -221Q926 -220 928 -216Q930 -212 932 -211Q943 -213 953 -216Q955 -216 961 -214Q959 -211 948 -202Q939 -195 939 -185V-180Q941 -178 943 -178Q947 -180 951 -183L955 -182Q948 -170 944 -147Q944 -138 946 -134Q925 -115 923 -89Q909 -91 901 -91Q875 -91 861 -80Q861 -42 849 4Q836 54 816 79Q797 103 776 103Q772 103 770 102Q763 100 753 88Q740 72 726 71ZM383 -115H387Q380 -108 380 -96Q380 -84 387 -74Q378 -57 378 -32Q369 -23 355 -23Q324 -27 308 -49Q294 -46 282 -38Q271 -30 256 -22Q205 2 183 17Q145 43 132 77H129Q91 77 78 42Q67 42 59 29Q51 16 51 1Q51 -16 60 -27Q57 -34 57 -41Q57 -54 67 -67Q73 -75 87 -88Q105 -106 110 -110Q123 -120 138 -124Q116 -100 113 -91Q116 -87 124 -87Q130 -87 166 -99Q188 -105 209 -111V-165Q201 -163 185 -136Q180 -137 172 -137H169Q156 -137 147 -142Q137 -154 127 -160Q118 -167 113 -187Q109 -209 93 -238Q87 -250 66 -281Q59 -283 51 -286Q50 -294 40 -307Q29 -322 28 -331V-333Q31 -348 33 -363V-366Q30 -383 27 -400V-403Q29 -415 31 -428Q30 -440 25 -458Q18 -481 18 -491Q18 -498 19 -501Q24 -489 27 -476Q30 -463 40 -456V-459Q37 -473 33 -488Q35 -487 38 -483Q43 -477 48 -476L49 -479Q48 -483 47 -487L48 -490Q50 -490 60 -482Q75 -492 98 -493Q126 -471 150 -437Q178 -451 203 -482Q198 -535 193 -588Q181 -599 170 -611Q176 -651 190 -668Q218 -696 244 -696Q252 -696 259 -691Q281 -667 290 -626V-621Q289 -608 287 -595V-590Q279 -582 279 -560Q279 -548 281 -538Q297 -584 375 -593V-589Q375 -583 384 -576Q388 -587 400 -587Q399 -581 397 -575V-573Q408 -558 419 -544Q419 -536 424 -519Q429 -502 429 -488Q429 -480 428 -476Q425 -461 416 -449Q408 -437 401 -425Q386 -394 379 -352Q372 -309 367 -265Q363 -243 358 -221Q353 -200 352 -173V-165H351Q349 -165 346 -166Q343 -166 342 -164Q345 -152 353 -152Q357 -152 360 -154L361 -151Q360 -147 358 -143L361 -142Q365 -144 369 -147L370 -146Q368 -136 368 -132Q368 -123 373 -113Q381 -115 383 -115ZM844 -412H839Q811 -412 782 -396Q774 -391 736 -365Q712 -346 709 -346H707Q693 -347 685 -361Q677 -374 671 -386Q663 -373 659 -349Q648 -338 647 -326Q600 -318 563 -287Q563 -281 573 -266Q591 -288 616 -288Q628 -288 635 -283Q652 -303 659 -312V-310Q656 -295 653 -280Q653 -277 655 -271Q656 -271 657 -276Q658 -279 661 -279L664 -278Q661 -272 661 -264Q666 -234 671 -205Q671 -197 668 -190Q665 -182 650 -162Q632 -137 625 -119Q615 -89 604 -38Q599 -15 595 8Q591 30 582 43Q569 59 554 59Q536 59 519 40Q503 22 499 1Q499 -2 505 -4Q501 -9 492 -21Q482 -34 475 -36Q470 -36 470 -23Q471 -18 471 -13Q455 5 452 7Q441 17 429 17Q427 17 424 16Q409 11 400 -10Q391 -31 385 -47L386 -49Q389 -45 395 -41H396Q394 -53 385 -67L388 -68H392Q395 -68 396 -70L384 -98L387 -99Q394 -95 406 -91H407Q415 -94 424 -109Q432 -123 438 -133Q473 -188 505 -260Q490 -256 480 -247Q469 -239 458 -230Q451 -227 444 -227Q433 -227 424 -235Q418 -241 409 -252Q400 -261 393 -271Q386 -281 384 -297V-302Q384 -320 391 -338Q389 -343 387 -348V-349Q395 -396 432 -437Q443 -448 448 -448L452 -447Q451 -442 446 -437Q442 -433 441 -427V-425Q441 -408 458 -408Q482 -408 510 -427Q506 -480 486 -488V-491Q486 -499 477 -513Q469 -526 468 -533Q467 -536 467 -543Q468 -556 469 -570Q469 -576 468 -579Q465 -590 459 -597Q453 -604 447 -613Q454 -613 461 -606Q467 -600 472 -599Q476 -607 483 -607Q483 -611 479 -613Q474 -616 474 -619H477Q496 -619 521 -638Q544 -656 562 -656Q572 -656 578 -654Q582 -651 587 -635Q595 -619 606 -602Q617 -586 619 -569V-565Q619 -551 611 -526Q602 -498 602 -483Q603 -477 603 -472Q615 -475 634 -489Q649 -500 659 -504Q648 -493 648 -477Q648 -452 665 -446Q681 -527 696 -608Q694 -616 692 -624Q692 -629 695 -632Q694 -638 690 -647Q684 -660 683 -668Q683 -672 682 -676Q684 -691 685 -707Q685 -719 678 -725Q674 -728 669 -728Q661 -726 653 -725H652Q680 -744 708 -764Q719 -774 734 -786Q749 -799 765 -800Q773 -800 782 -794Q790 -788 814 -761Q830 -743 839 -713Q844 -695 850 -654Q829 -626 808 -582Q800 -569 800 -565Q800 -561 803 -557Q856 -588 908 -619Q907 -612 905 -606L906 -603Q931 -620 961 -635Q958 -628 945 -618Q930 -607 930 -597V-594Q943 -602 955 -611Q955 -607 951 -598Q944 -583 944 -576Q944 -566 952 -559Q960 -570 977 -573Q980 -572 983 -572Q959 -554 955 -530Q958 -522 958 -514Q957 -495 947 -478Q938 -460 932 -444Q870 -441 844 -412Z"/>
</svg>