<svg xmlns="http://www.w3.org/2000/svg" viewBox="0 -800 1024 1024">
	<path fill="#000000" d="M580 -113Q577 -129 577 -130Q559 -124 558 -124Q549 -119 549 -107V-104Q565 -107 580 -113ZM585 -182Q585 -193 582 -199Q564 -192 558 -173H560Q573 -176 585 -182ZM640 -445Q645 -462 663 -465Q681 -469 696 -477Q702 -481 707 -486Q711 -491 717 -491H719Q721 -484 722 -477L723 -476Q729 -479 735 -483Q736 -469 745 -465Q753 -460 763 -456Q765 -452 765 -439Q770 -429 780 -429Q785 -429 791 -432Q785 -441 774 -453Q760 -468 755 -476L754 -477L750 -476L749 -477Q744 -487 719 -514Q710 -525 701 -537Q696 -539 691 -541Q686 -548 678 -559Q671 -571 661 -572Q648 -570 641 -556Q634 -541 629 -531Q622 -519 614 -508Q602 -481 590 -454Q584 -448 581 -439L582 -436H583Q595 -439 607 -442Q613 -442 616 -436ZM833 -99L838 -53Q845 -48 846 -37Q847 -27 848 -16Q852 5 860 19Q857 34 854 49Q854 53 855 55Q842 70 806 96Q768 74 755 37Q739 35 737 31Q737 28 741 28H749Q742 6 695 1Q700 -3 709 -3Q726 -1 742 1H746Q734 -10 716 -12Q698 -15 680 -19Q672 -20 663 -22Q654 -24 651 -33Q688 -24 724 -20Q742 -20 757 -29Q763 -66 763 -113Q767 -131 770 -150Q773 -202 775 -254Q777 -265 779 -276Q778 -290 755 -316H744Q738 -316 735 -319Q740 -328 761 -338Q777 -346 782 -350Q789 -357 794 -365Q798 -373 809 -374Q813 -374 815 -373Q824 -370 831 -359Q839 -361 840 -361Q860 -361 873 -316Q881 -292 881 -289Q881 -287 879 -279Q870 -274 861 -254Q853 -237 849 -220Q843 -194 843 -142Q844 -128 845 -114Q845 -99 838 -91Q835 -93 833 -99ZM487 -258Q501 -264 510 -264Q522 -264 530 -256Q544 -265 558 -273Q573 -281 582 -293Q546 -314 546 -351Q546 -361 547 -366Q529 -339 514 -300Q504 -271 487 -258ZM470 -251Q460 -252 452 -254Q444 -255 440 -264Q437 -269 436 -283Q434 -301 427 -306Q421 -384 436 -418Q438 -407 438 -395Q438 -382 443 -375Q466 -391 481 -418Q496 -444 507 -474Q525 -531 557 -567L565 -596Q567 -608 580 -645Q591 -668 596 -693Q596 -702 588 -705H585Q579 -705 573 -699Q566 -693 563 -692Q581 -718 608 -755Q636 -792 673 -796H675Q690 -796 696 -786Q702 -776 709 -761Q716 -753 722 -746Q724 -740 726 -735Q727 -730 734 -728Q740 -710 744 -681V-679Q744 -647 730 -641V-637Q730 -629 725 -629H724Q770 -574 835 -513Q853 -495 869 -479Q885 -464 901 -457Q903 -456 907 -456Q916 -456 928 -476Q937 -490 942 -495Q936 -477 932 -454Q939 -463 948 -492Q957 -517 967 -520Q952 -480 951 -442L970 -492V-483Q970 -473 965 -456Q959 -436 959 -427Q960 -423 960 -420Q965 -409 970 -399V-382Q973 -359 975 -337Q975 -325 970 -318Q951 -304 928 -304Q911 -304 895 -315Q881 -325 861 -350Q844 -371 835 -388L816 -409Q805 -412 796 -426Q783 -423 781 -402Q778 -374 774 -367Q757 -353 715 -339Q673 -325 658 -313Q663 -300 668 -290Q674 -279 674 -265Q674 -262 672 -250Q680 -257 686 -267Q690 -264 694 -262L696 -264Q698 -266 698 -268Q697 -275 695 -282V-286H696Q705 -283 713 -271Q725 -263 737 -256Q739 -243 748 -226Q759 -206 759 -195Q759 -186 750 -166Q742 -148 740 -139Q738 -125 739 -113Q739 -101 732 -88Q722 -86 712 -83Q702 -80 698 -69Q694 -78 690 -89Q686 -100 678 -101H677Q672 -157 654 -196Q644 -180 643 -155Q642 -130 641 -104Q637 -56 637 -33Q637 9 645 34Q640 44 640 58Q640 65 641 68Q634 68 628 77Q624 84 619 84H616Q600 81 584 59Q567 37 557 28Q560 25 563 22Q563 14 553 7Q545 2 544 -4Q554 -1 563 1Q568 0 570 -7Q572 -13 575 -13H576V-33Q576 -45 577 -50Q569 -52 566 -52Q555 -52 545 -46V-39Q545 6 510 6Q506 6 502 5Q504 -1 504 -2Q504 -7 497 -11Q491 -10 484 -2Q476 7 468 8Q469 2 473 -7Q480 -21 481 -30Q482 -35 482 -40Q481 -54 480 -69Q480 -88 488 -97L486 -132Q475 -134 475 -144Q459 -158 451 -180Q447 -189 449 -198Q450 -207 451 -213Q454 -229 464 -247Q468 -249 470 -251ZM324 -348Q343 -357 349 -359Q354 -375 352 -381Q351 -381 351 -380V-381Q350 -393 366 -370Q366 -371 361 -406Q359 -413 356 -421Q356 -428 358 -431Q365 -416 371 -397Q376 -379 384 -364Q385 -371 384 -378Q378 -396 372 -414Q371 -421 372 -427Q380 -415 387 -387Q394 -361 401 -352Q417 -332 419 -330Q419 -323 420 -320Q424 -306 428 -292Q430 -284 428 -274Q426 -261 428 -252Q429 -248 430 -244Q408 -233 385 -223Q382 -222 379 -221Q372 -222 365 -224Q347 -226 331 -226Q326 -226 308 -224L307 -211Q300 -181 301 -149Q342 -163 387 -182Q400 -187 413 -192Q416 -196 416 -204V-208Q444 -185 448 -146Q447 -141 446 -137H444Q438 -137 435 -136Q433 -126 430 -117Q430 -113 431 -111Q395 -86 344 -83L332 -77Q328 -71 313 -66Q301 -62 296 -58Q296 -44 294 -10V3Q297 32 300 60Q300 66 299 68Q298 72 293 75Q287 79 287 82L288 86Q286 85 282 85Q281 85 268 88Q257 80 227 52Q225 23 216 7Q220 2 220 -6Q220 -11 219 -16Q219 -24 225 -28Q224 -31 219 -32Q214 -33 214 -38L194 -26Q193 -14 183 -12Q174 -10 166 -7Q155 -1 143 10Q129 22 113 37Q96 51 79 52Q67 52 56 40V38Q57 34 57 29V27Q56 21 49 16Q42 11 40 6Q38 1 38 -10Q39 -18 39 -27Q39 -44 33 -52Q55 -111 102 -151Q92 -138 90 -118Q89 -107 96 -98Q134 -102 228 -129Q229 -159 229 -205L220 -202Q218 -193 190 -182Q162 -171 151 -165Q144 -159 137 -153H135Q126 -152 118 -158Q110 -164 100 -168Q98 -181 84 -193Q85 -198 84 -204Q83 -209 78 -216Q73 -223 71 -230V-232Q76 -236 80 -244Q86 -255 90 -258Q111 -354 118 -390Q113 -403 90 -407Q82 -415 82 -430V-447Q81 -479 66 -491Q51 -502 36 -524H37Q42 -524 54 -516Q67 -507 73 -506Q68 -520 52 -529Q37 -538 24 -547H25Q35 -547 54 -540Q72 -533 82 -532Q79 -538 68 -543Q56 -548 54 -554Q55 -558 60 -558Q68 -554 76 -551Q99 -575 156 -588Q160 -610 162 -623Q164 -634 149 -659Q135 -683 137 -693Q139 -702 138 -718Q136 -742 144 -753Q159 -765 178 -772Q203 -787 241 -770Q247 -768 255 -760Q264 -750 268 -750Q269 -750 279 -758Q279 -750 278 -742Q278 -734 287 -734Q284 -729 286 -720Q286 -716 288 -708Q284 -700 282 -692L283 -688Q267 -680 247 -611Q371 -645 402 -649Q409 -660 421 -663Q424 -663 426 -662Q417 -655 413 -644Q413 -640 416 -637L418 -636Q421 -637 424 -639L428 -637Q425 -633 422 -629Q429 -595 435 -562Q429 -556 426 -546Q426 -543 427 -541L426 -539Q424 -540 422 -542Q423 -540 423 -535Q421 -522 419 -509Q391 -506 327 -477Q274 -453 237 -431Q204 -416 197 -412Q174 -311 164 -283Q204 -293 226 -299Q223 -311 204 -356Q196 -357 190 -361Q199 -365 208 -370Q206 -372 206 -374V-379Q206 -383 204 -384Q244 -404 266 -434Q274 -438 283 -438Q299 -437 306 -425Q312 -414 319 -398Q327 -381 324 -353Q324 -350 324 -348Z"/>
</svg>