<svg xmlns="http://www.w3.org/2000/svg" viewBox="0 -800 1024 1024">
	<path fill="#000000" d="M864 -113Q858 -99 853 -94Q852 -104 850 -115Q851 -116 855 -116Q861 -116 864 -113ZM894 -695V-694Q891 -691 886 -691Q879 -691 872 -692H869Q874 -701 887 -703Q894 -703 894 -695ZM384 -355Q333 -345 319 -329Q325 -317 331 -305Q337 -311 349 -313Q360 -314 370 -316Q377 -335 384 -355ZM668 -491H684Q685 -506 695 -531Q702 -547 703 -555Q664 -547 650 -530Q659 -515 669 -511Q665 -505 665 -500Q665 -495 668 -491ZM416 -559Q361 -550 320 -523Q327 -510 333 -497Q342 -505 366 -511Q386 -516 394 -521Q401 -526 407 -541Q412 -554 416 -559ZM425 -430Q419 -434 405 -438Q384 -444 378 -452Q330 -440 314 -433Q278 -417 269 -389Q272 -388 275 -388Q292 -391 308 -398Q334 -404 365 -410Q396 -416 425 -430ZM617 -157V-164Q617 -172 620 -175Q610 -178 600 -178Q599 -178 569 -175Q552 -174 534 -169Q522 -161 509 -154Q486 -145 481 -142Q445 -124 434 -110Q446 -82 458 -54Q471 -59 496 -78Q487 -91 487 -112Q487 -122 490 -127Q496 -137 511 -137Q530 -137 572 -118Q585 -125 598 -133Q611 -141 617 -157ZM864 102H862L858 103Q849 117 831 122Q813 127 797 134Q744 103 644 28Q552 -42 499 -73Q492 -73 492 -65L493 -61H494Q500 -63 506 -65Q507 -65 511 -63Q507 -58 501 -55Q496 -52 495 -44V-41L497 -40Q503 -40 503 -44L504 -42Q500 -33 495 -25Q505 -29 515 -34Q513 -32 513 -28Q514 -20 515 -12V-9Q480 14 450 44Q438 61 426 78Q415 95 395 105Q369 97 354 79Q339 61 326 41Q328 33 336 15Q348 -11 348 -26Q348 -34 345 -43Q290 -9 237 25Q183 59 149 112Q126 112 107 106Q78 97 78 77Q78 74 80 66Q77 59 77 49Q77 26 89 6H97Q103 6 104 8Q120 -6 148 -40Q182 -80 203 -97Q195 -81 185 -67Q176 -54 175 -32Q179 -30 182 -30Q197 -30 234 -54Q278 -81 281 -83Q268 -90 268 -112Q247 -122 242 -149Q242 -162 255 -170Q254 -174 254 -181Q254 -216 311 -224V-223Q310 -219 308 -216L310 -213Q367 -217 452 -236Q451 -239 451 -246Q453 -272 469 -285Q483 -300 510 -302H512Q529 -301 543 -292Q559 -282 559 -267Q559 -258 555 -250Q598 -256 641 -262Q640 -265 640 -271Q643 -289 646 -307H641Q630 -307 610 -298Q590 -289 580 -289Q567 -289 557 -298Q539 -314 533 -350V-355Q534 -367 544 -373Q554 -379 564 -385Q572 -375 586 -375Q613 -379 640 -383H647Q648 -385 648 -388Q648 -394 647 -400Q647 -404 649 -406Q642 -406 635 -407Q601 -407 561 -385Q539 -397 531 -403Q515 -415 509 -430Q512 -437 514 -445Q510 -454 506 -464Q507 -477 526 -491Q542 -503 557 -508Q556 -504 553 -501Q549 -496 549 -493V-491Q554 -485 562 -485Q575 -486 587 -488Q592 -488 595 -487Q588 -501 584 -515Q584 -519 587 -524Q583 -530 574 -532Q566 -534 558 -536Q550 -554 548 -566Q489 -526 477 -439Q480 -436 484 -436Q489 -436 493 -439Q498 -430 511 -415Q526 -398 531 -386Q525 -370 518 -355Q485 -339 470 -311Q455 -281 441 -250Q434 -239 420 -232Q412 -230 409 -230Q399 -230 377 -240Q355 -250 343 -250Q332 -250 318 -239Q306 -230 296 -229H293Q281 -229 264 -241Q248 -253 238 -254Q241 -260 241 -265Q240 -276 233 -285Q226 -295 222 -305Q189 -268 179 -229Q164 -223 146 -223Q121 -223 96 -232Q91 -249 69 -257Q71 -261 71 -267Q69 -279 63 -292Q67 -296 73 -296L75 -295Q72 -300 59 -311Q48 -320 43 -328Q68 -317 87 -304Q144 -363 165 -388Q205 -436 231 -483Q228 -484 223 -484Q211 -484 206 -477Q187 -479 175 -493Q163 -507 149 -517Q140 -522 131 -526Q122 -529 119 -536Q117 -544 117 -548Q117 -561 126 -577Q114 -592 114 -608Q114 -629 133 -649Q147 -664 170 -676Q164 -666 160 -656L161 -653Q171 -661 184 -673Q197 -685 213 -692Q206 -683 200 -675Q193 -666 192 -652Q193 -649 198 -647Q202 -646 203 -644Q220 -652 243 -656Q329 -666 434 -706Q456 -715 478 -728Q499 -741 524 -742Q535 -742 548 -737Q561 -732 567 -732Q574 -732 581 -736Q579 -724 576 -713Q576 -701 587 -701H591Q592 -684 599 -673Q607 -663 613 -652Q626 -656 640 -656Q637 -680 634 -703Q631 -726 620 -742Q612 -741 608 -736Q604 -731 599 -727Q604 -767 632 -790Q658 -811 696 -811H699Q724 -810 740 -792Q752 -779 764 -749Q754 -735 744 -720Q734 -705 733 -682Q772 -691 810 -700V-695Q810 -688 813 -685Q837 -688 861 -692Q857 -688 849 -684Q837 -678 835 -674Q836 -672 839 -672Q845 -674 850 -676Q851 -676 855 -674Q843 -667 840 -656L841 -652Q841 -649 845 -649H852Q850 -640 847 -632Q847 -631 849 -625Q846 -620 837 -609Q826 -596 823 -586Q815 -588 813 -588Q810 -588 807 -584Q810 -567 813 -551Q813 -543 811 -538Q778 -535 760 -505Q820 -510 887 -527Q886 -525 886 -521Q886 -508 917 -507Q939 -506 945 -502Q935 -501 926 -490Q927 -486 934 -484Q939 -483 940 -481Q939 -478 935 -476Q930 -474 930 -472V-471Q928 -445 910 -437Q890 -428 873 -414Q848 -426 802 -426Q755 -426 733 -412Q738 -405 740 -395Q793 -402 817 -408L819 -406Q818 -403 816 -400Q823 -386 854 -386H865Q854 -381 847 -373Q849 -370 850 -370Q854 -371 858 -372L861 -371Q858 -365 853 -361Q848 -357 847 -348V-345Q834 -342 822 -322Q798 -324 785 -324Q740 -324 714 -313Q712 -305 712 -300Q712 -293 714 -279H715Q719 -279 723 -284Q727 -289 733 -289H734Q736 -287 736 -285Q736 -282 733 -279Q739 -276 745 -276Q765 -281 786 -289Q778 -282 769 -277Q761 -271 758 -260L762 -259Q772 -262 782 -266Q787 -266 789 -264Q784 -260 779 -256Q780 -253 786 -251Q779 -245 779 -235Q779 -225 776 -214Q768 -204 764 -193V-190Q759 -188 746 -188Q732 -188 718 -189Q713 -189 705 -187V-185Q705 -178 713 -174Q720 -170 730 -170L729 -166V-164H732Q740 -165 747 -167L751 -166Q749 -160 749 -154Q749 -143 754 -138Q752 -130 750 -122Q750 -117 754 -113Q747 -109 743 -92Q734 -92 724 -93Q677 -93 656 -72Q721 -31 767 -20Q774 -23 780 -39Q784 -50 788 -54Q791 -51 792 -39Q793 -29 795 -26Q807 -38 807 -74Q806 -105 804 -137Q804 -154 807 -166Q807 -176 816 -178V-137Q816 -109 817 -95V-85Q817 -63 816 -42Q816 -21 820 -6Q825 -19 825 -56V-83Q825 -101 826 -109Q827 -117 828 -119Q830 -126 835 -127Q836 -117 836 -97V-63Q836 -9 846 14Q850 1 850 -31V-38Q850 -67 853 -81Q859 -61 862 -21Q866 23 870 38Q875 51 875 52Q875 59 870 71Q865 83 865 88Q865 94 869 99Q869 102 864 102Z"/>
</svg>