<svg xmlns="http://www.w3.org/2000/svg" viewBox="0 -800 1024 1024">
	<path fill="#000000" d="M805 -360Q768 -261 761 -159Q761 -154 760 -150Q760 -147 762 -141Q756 -128 755 -93Q754 -59 749 -45Q751 -39 755 -35Q784 -39 823 -40Q837 -56 842 -65Q844 -63 844 -60Q844 -57 843 -54Q843 -52 845 -50Q854 -62 862 -74Q859 -68 859 -63Q859 -51 870 -43Q882 -35 899 -35Q913 -35 921 -38Q917 -34 911 -30Q905 -26 904 -20Q904 -17 907 -13H910Q918 -14 925 -15L927 -13Q927 -11 922 -7Q916 -3 916 -1L918 2Q922 2 925 1H928Q922 9 922 19Q922 36 934 42Q927 42 922 51Q918 60 912 60Q912 65 911 69Q911 72 912 74Q899 76 894 84Q796 74 734 72Q725 71 704 71Q678 71 672 72Q660 73 647 74Q630 74 626 63L562 72Q530 81 497 87Q492 89 460 99Q441 107 424 111H422Q407 111 389 95Q371 78 356 77Q351 69 351 62Q351 51 365 28Q376 8 387 -3Q403 -19 423 -22Q419 -21 419 -17Q420 -13 420 -10Q426 -7 433 -7Q451 -10 469 -13Q464 -29 464 -60V-84Q464 -110 462 -120Q458 -129 454 -138Q452 -174 444 -205L438 -222Q407 -268 382 -317Q397 -352 414 -385Q417 -378 419 -371Q426 -374 430 -380Q457 -381 484 -383Q494 -383 499 -382Q519 -394 525 -399Q542 -414 552 -414H553L565 -427Q601 -457 669 -497Q681 -504 698 -529Q711 -547 719 -555Q739 -573 774 -577Q782 -573 790 -569Q804 -570 817 -563Q830 -569 844 -572H850Q849 -567 843 -563Q836 -559 835 -557Q843 -557 856 -565Q870 -574 878 -575V-573Q878 -570 867 -564Q857 -559 854 -555Q847 -548 847 -542Q847 -537 850 -533Q856 -534 864 -542Q870 -548 876 -550Q865 -539 865 -524Q870 -497 874 -470V-464Q873 -451 863 -441Q860 -438 841 -423Q811 -400 810 -380ZM881 -99H884Q880 -86 873 -85Q870 -86 870 -90Q870 -99 881 -99ZM663 -169V-175Q663 -185 665 -201Q620 -189 598 -180Q563 -166 546 -149Q548 -145 549 -140Q550 -136 555 -135Q567 -138 601 -151Q638 -165 663 -169ZM681 -300Q684 -340 687 -380Q628 -353 615 -337Q608 -324 600 -312Q592 -302 580 -293Q568 -283 567 -271Q567 -267 568 -265Q614 -285 659 -288Q664 -300 681 -300ZM585 -71Q568 -69 555 -60Q543 -51 543 -38Q543 -28 549 -18Q589 -19 629 -21H642Q648 -56 653 -91Q618 -86 595 -77ZM337 -116Q302 -115 266 -124Q257 -135 229 -150Q213 -160 201 -172Q190 -184 176 -197Q187 -193 196 -192L200 -193Q193 -205 185 -217V-218Q196 -217 207 -213Q220 -220 235 -226Q249 -231 256 -242Q265 -241 274 -241Q277 -241 284 -246Q297 -214 339 -214Q346 -203 359 -189Q372 -176 375 -161L376 -159Q377 -152 368 -141Q360 -130 359 -123Q350 -121 344 -120Q337 -119 337 -116ZM229 -65Q279 -89 383 -108H384Q386 -106 387 -105Q371 -98 356 -90Q340 -82 336 -65L340 -64Q350 -66 360 -69Q357 -66 346 -61Q334 -56 331 -49V-43Q331 -14 362 -13Q362 -10 361 -8Q362 -1 363 6Q324 11 272 45Q265 49 243 76Q226 97 211 97H210Q200 93 189 89Q171 83 149 76Q126 70 113 58Q118 50 118 44Q118 35 107 19Q97 4 97 -4V-5Q98 -20 111 -30Q124 -39 136 -47Q161 -68 186 -89Q185 -86 179 -78Q170 -66 170 -59Q170 -56 172 -52Q191 -56 210 -60ZM352 -256H334Q308 -256 297 -257Q285 -259 272 -262Q265 -262 251 -272Q238 -281 231 -282Q212 -276 208 -274Q197 -268 194 -258V-262Q197 -276 211 -287Q205 -294 195 -297Q191 -297 189 -296Q191 -300 191 -303Q191 -308 182 -322H176Q161 -322 152 -316Q143 -311 134 -305Q156 -330 169 -362Q163 -366 157 -366H155L154 -370Q157 -377 164 -381Q158 -387 158 -395Q158 -410 172 -415Q160 -434 158 -436Q187 -423 211 -423Q216 -425 220 -436V-434Q221 -423 231 -417Q241 -411 250 -405Q256 -407 261 -418Q266 -428 275 -429Q272 -417 269 -405Q277 -395 292 -393Q308 -391 323 -388Q332 -370 347 -356Q362 -343 376 -328Q366 -317 360 -286Q356 -264 352 -256ZM774 -596Q767 -590 735 -587Q697 -583 687 -574H686Q670 -574 663 -566Q656 -558 653 -546Q650 -521 633 -501Q619 -507 605 -507Q588 -507 584 -495Q582 -499 582 -500Q585 -507 587 -515Q579 -514 572 -507Q566 -501 566 -494V-492Q561 -495 561 -502Q561 -541 569 -570Q513 -561 429 -532Q428 -529 428 -522Q433 -501 441 -483Q434 -475 431 -465Q427 -455 415 -452Q413 -446 413 -444L414 -440H412Q396 -442 379 -444Q366 -444 361 -435Q350 -453 326 -456Q321 -456 318 -455Q322 -462 325 -473Q325 -491 319 -493Q309 -491 290 -483Q266 -473 253 -473L232 -468Q220 -464 209 -459Q198 -455 195 -442Q156 -446 140 -453Q114 -465 114 -491Q114 -498 117 -509Q108 -521 99 -533Q99 -616 174 -628Q168 -616 160 -608Q164 -604 168 -605Q216 -614 263 -631V-646Q263 -675 278 -692Q276 -698 274 -704L275 -707Q278 -706 282 -698Q285 -691 290 -690L293 -692Q293 -694 289 -696Q310 -696 335 -680Q356 -667 371 -648Q510 -680 601 -695V-703Q600 -716 598 -729Q591 -733 583 -733Q564 -731 548 -726Q556 -739 574 -748Q592 -757 611 -767Q629 -778 644 -788Q658 -799 676 -804Q679 -805 686 -805Q709 -805 729 -775Q740 -758 753 -726Q758 -722 765 -722Q771 -722 783 -728Q795 -734 804 -734Q808 -734 814 -732L815 -735Q815 -738 814 -741Q814 -743 816 -747Q820 -746 823 -741Q827 -734 831 -733H834Q854 -737 873 -741Q878 -741 882 -738Q874 -734 863 -733Q852 -731 848 -723Q850 -717 856 -717Q867 -719 878 -722Q878 -719 871 -715Q863 -710 863 -705Q866 -702 873 -702H876Q877 -686 878 -667Q879 -648 892 -645Q880 -644 874 -632Q870 -624 870 -613V-610Q839 -604 808 -601Q800 -601 796 -602ZM909 -753V-752Q908 -745 903 -744Q897 -743 893 -741Q890 -742 890 -745Q890 -750 909 -753Z"/>
</svg>