<svg xmlns="http://www.w3.org/2000/svg" viewBox="0 -800 1024 1024">
	<path fill="#000000" d="M611 17V18Q595 18 588 15Q591 9 600 9Q611 9 611 17ZM485 -560V-558Q477 -555 469 -553Q475 -571 485 -571H487Q486 -565 485 -560ZM732 -318V-321Q732 -335 728 -339Q692 -318 663 -295Q660 -290 660 -278Q660 -272 661 -270Q695 -287 734 -302Q732 -306 732 -318ZM666 -416V-411Q678 -415 699 -432Q718 -447 731 -451Q732 -509 732 -568Q709 -538 696 -500Q687 -481 677 -462Q667 -442 666 -416ZM399 -184H396Q378 -175 343 -159Q307 -144 293 -132Q284 -123 284 -113Q284 -99 308 -81Q317 -85 333 -95Q357 -110 373 -114Q375 -125 387 -151Q395 -169 399 -184ZM884 -16V-10Q884 35 870 57Q855 71 839 85Q821 102 818 104Q806 113 793 113Q788 113 785 112Q775 110 768 102Q761 94 752 88Q739 85 728 77Q717 45 684 35Q652 26 619 17H628Q655 19 681 20Q693 20 705 17Q690 8 672 7Q653 7 635 6Q618 1 601 -4Q590 -5 580 -6Q570 -6 564 -15H572Q595 -15 639 -9Q666 -5 693 -1Q702 -1 711 -4Q683 -10 619 -19Q532 -31 499 -43Q524 -43 582 -33Q640 -23 672 -23Q696 -23 716 -27Q731 -46 731 -88Q730 -127 728 -166Q728 -186 731 -204Q686 -190 661 -160Q663 -142 663 -135Q661 -102 658 -69Q640 -63 636 -57H628Q581 -57 556 -88Q537 -111 531 -141Q530 -143 530 -148Q531 -155 531 -162V-166Q514 -157 504 -142Q494 -128 482 -115Q479 -96 463 -65Q451 -42 447 -27Q433 -25 419 -23Q410 -23 407 -30Q379 -28 361 -16Q343 -3 327 9Q326 17 317 38H312Q286 35 259 31Q249 31 244 33L243 31Q246 28 249 24Q243 13 231 6Q219 0 208 -7Q201 -6 189 -6Q155 -6 131 -18Q126 -26 118 -30Q110 -34 102 -40Q90 -49 76 -79Q64 -105 53 -115Q55 -142 72 -156Q89 -169 102 -186Q98 -199 94 -213Q104 -211 108 -204Q112 -196 118 -190Q124 -192 135 -192Q161 -188 187 -185Q196 -185 201 -186Q216 -188 247 -206Q278 -224 297 -227Q295 -266 293 -305Q256 -296 231 -273Q206 -250 182 -227Q145 -230 128 -253Q111 -276 88 -293V-326Q88 -356 100 -362Q93 -392 93 -404Q93 -414 96 -423Q108 -444 131 -465Q155 -495 167 -503V-501Q167 -495 162 -484Q155 -469 155 -463Q155 -458 158 -452Q160 -454 164 -464Q168 -476 176 -477V-463Q176 -458 177 -457Q228 -469 266 -489Q263 -494 253 -499Q244 -504 240 -509Q236 -516 235 -525Q233 -534 223 -537Q234 -561 244 -582Q254 -604 272 -621Q301 -650 353 -650H368Q381 -635 398 -624Q397 -621 397 -615Q397 -601 409 -580Q422 -559 422 -544Q427 -548 437 -548Q442 -547 446 -547Q450 -547 460 -549L461 -547Q458 -542 454 -538Q459 -530 467 -525Q482 -534 503 -538Q479 -523 479 -511Q479 -506 485 -500L488 -499Q494 -501 499 -504L502 -503Q496 -494 496 -482Q496 -464 506 -454Q503 -443 497 -433V-418Q495 -414 488 -409Q480 -404 478 -400V-385Q469 -378 442 -371Q403 -361 396 -348Q389 -337 389 -310Q389 -283 385 -271Q415 -285 420 -288Q434 -299 447 -311Q462 -315 476 -324Q481 -327 485 -331Q487 -331 491 -327Q498 -332 505 -347Q514 -367 525 -370Q524 -362 517 -349Q509 -333 509 -321H512Q519 -321 525 -329Q530 -336 534 -337V-334Q533 -325 532 -317Q532 -311 534 -308L536 -306Q540 -306 543 -307H544Q543 -304 543 -299Q547 -282 553 -267Q560 -278 560 -298Q560 -305 558 -315Q559 -315 560 -320Q561 -323 564 -324Q573 -385 576 -451Q564 -542 532 -592Q541 -591 548 -580Q554 -571 559 -569L560 -571Q559 -575 557 -579L558 -581Q564 -580 570 -574Q577 -567 580 -566Q594 -570 601 -570Q634 -570 645 -544Q679 -618 712 -693Q711 -703 703 -715V-718Q705 -737 711 -751Q726 -767 746 -783Q766 -799 795 -800Q800 -799 804 -799Q816 -794 827 -790Q847 -788 860 -778Q868 -764 875 -751Q883 -754 890 -757L894 -756Q886 -748 886 -739Q886 -734 890 -730Q895 -730 902 -735Q907 -739 909 -739H910Q907 -726 903 -714Q903 -710 906 -704L908 -703Q913 -704 918 -706H921V-705Q918 -688 914 -672Q914 -668 916 -662Q901 -658 893 -627Q890 -627 881 -624Q863 -605 853 -544Q847 -500 847 -421V-281Q847 -172 853 -111Q855 -94 870 -61Q883 -33 884 -16Z"/>
</svg>