<svg xmlns="http://www.w3.org/2000/svg" viewBox="0 -800 1024 1024">
	<path fill="#000000" d="M64 -102H59Q48 -102 43 -107V-114Q43 -118 45 -120Q59 -117 64 -102ZM963 -735Q959 -729 945 -729Q935 -729 929 -732Q931 -744 946 -744Q960 -744 963 -735ZM618 -78H610Q583 -78 516 -62Q509 -55 492 -51Q466 -45 462 -33Q472 -17 478 4Q531 -9 584 -14Q614 -19 630 -38Q646 -57 661 -79Q657 -80 648 -80Q626 -80 619 -67Q620 -70 620 -73Q620 -76 618 -78ZM896 -633H897Q889 -629 889 -618Q890 -607 891 -597Q891 -589 889 -586Q880 -583 871 -580Q862 -576 861 -567Q861 -562 862 -559Q803 -554 747 -551Q690 -549 658 -516Q648 -503 640 -491Q633 -478 618 -470Q614 -470 612 -477Q608 -476 601 -476Q585 -477 568 -478Q557 -478 551 -476Q549 -478 549 -481V-487H547Q536 -485 524 -483H522V-485Q522 -491 527 -494Q531 -497 535 -501Q543 -517 551 -533Q534 -587 534 -605Q534 -640 571 -640H576Q582 -645 587 -661Q591 -673 593 -677Q591 -684 582 -700Q571 -718 571 -730Q571 -735 572 -738Q575 -751 597 -760Q621 -770 625 -781Q637 -786 648 -786Q663 -786 690 -777Q708 -766 721 -757Q723 -756 750 -749Q767 -745 769 -735Q770 -732 770 -730Q770 -721 761 -707Q754 -695 752 -690Q779 -701 806 -713Q833 -725 865 -727Q865 -724 864 -721V-718Q887 -729 910 -730H921Q911 -723 899 -717Q886 -712 881 -699Q884 -695 887 -695Q896 -697 905 -700H908Q901 -696 893 -690Q885 -684 884 -675Q884 -671 887 -665Q898 -670 909 -675Q889 -658 886 -631L887 -630Q892 -631 896 -633ZM773 11V13Q751 17 739 34Q726 50 713 66Q702 76 691 88Q679 100 674 117Q658 121 641 124Q636 124 634 123Q629 122 612 104Q595 86 593 81Q592 79 592 74V70Q592 63 588 61H580Q499 61 481 101Q436 101 425 78H416V77Q418 74 420 71L419 69Q403 19 351 -15Q286 39 276 46Q262 58 249 66Q240 69 232 69Q212 69 179 46Q156 30 144 27Q139 30 139 33Q133 4 116 1Q112 -23 90 -33Q66 -44 52 -63Q61 -62 79 -52Q100 -41 110 -41Q116 -41 122 -44Q98 -68 74 -93Q84 -91 108 -77Q125 -67 136 -63Q133 -75 122 -84Q111 -92 100 -99Q76 -113 60 -134Q73 -130 99 -116Q134 -97 156 -95H164Q201 -95 268 -132Q289 -144 359 -191Q358 -196 351 -199Q344 -203 341 -211V-215Q342 -224 342 -234V-239Q339 -246 336 -254Q337 -263 352 -271Q364 -277 366 -283Q381 -283 395 -284Q432 -284 451 -270Q501 -303 541 -352Q476 -343 430 -318Q399 -301 393 -299Q294 -256 280 -251Q277 -251 276 -255Q274 -260 274 -261Q242 -284 227 -308Q217 -308 216 -315Q208 -316 200 -318H197Q206 -323 219 -327Q214 -335 194 -335H171Q197 -352 228 -357Q328 -387 388 -427Q382 -434 354 -436Q350 -457 331 -471Q280 -466 252 -461Q210 -453 183 -438Q171 -430 162 -422Q153 -414 142 -413Q133 -413 122 -420Q116 -424 106 -444Q99 -459 92 -467Q91 -468 80 -476Q72 -482 71 -487Q69 -495 69 -499Q69 -513 83 -542Q94 -564 94 -574Q109 -599 149 -599Q179 -599 201 -585Q219 -594 253 -594H268Q267 -598 267 -604Q267 -620 283 -644Q300 -668 301 -685Q303 -679 305 -674Q308 -669 314 -669H316Q319 -672 319 -681Q319 -692 317 -702Q321 -699 325 -692Q332 -681 338 -678Q340 -680 340 -684Q339 -690 338 -696V-697Q343 -696 349 -690Q353 -685 356 -684Q361 -685 370 -685Q396 -685 414 -666Q429 -649 436 -621Q477 -626 519 -636Q516 -564 516 -556V-543Q509 -535 499 -530Q489 -524 487 -511H482Q470 -511 461 -508Q456 -496 454 -474Q459 -475 474 -483Q475 -482 476 -478Q477 -473 480 -473L482 -472Q483 -472 485 -476Q487 -480 489 -480H490Q499 -468 511 -462V-460Q511 -451 515 -447Q519 -442 522 -436Q541 -445 562 -448Q583 -451 606 -456Q626 -462 646 -472Q666 -482 686 -483Q697 -483 723 -493V-485Q723 -480 726 -480Q733 -485 742 -498Q753 -514 761 -518Q760 -514 754 -501Q747 -487 747 -479Q747 -472 754 -465Q758 -471 761 -477V-475Q765 -456 772 -441V-434Q768 -407 763 -380V-377Q721 -370 672 -339Q642 -320 593 -280Q577 -268 559 -253Q541 -239 539 -216V-214Q544 -198 548 -182V-179Q540 -158 513 -156H510Q500 -157 490 -158H487Q476 -156 470 -148Q467 -145 459 -129H463Q496 -130 531 -137Q565 -144 599 -148Q647 -152 670 -158Q706 -168 723 -189V-180Q744 -173 761 -170Q770 -170 779 -176Q775 -172 774 -166L775 -162Q785 -165 796 -173Q812 -185 823 -186Q801 -168 796 -152V-151Q796 -148 800 -143Q803 -140 803 -135Q805 -136 822 -147V-145Q818 -138 811 -131Q825 -117 825 -80Q825 -70 819 -7Q814 -5 770 6V7Q772 9 773 11Z"/>
</svg>