<svg xmlns="http://www.w3.org/2000/svg" viewBox="0 -800 1024 1024">
	<path fill="#000000" d="M485 -8V-10Q486 -13 487 -17Q494 -15 498 -10Q502 -4 505 2Q495 -3 485 -8ZM827 -669V-655Q825 -655 811 -649Q812 -661 813 -663Q815 -669 823 -669ZM585 -98V-96Q584 -81 572 -73Q560 -65 542 -65Q529 -65 515 -71L503 -67Q503 -80 488 -102Q473 -124 473 -139V-140Q473 -156 487 -166Q502 -177 523 -177Q543 -164 546 -163H547Q551 -163 553 -166Q555 -169 557 -169H558V-152Q559 -148 562 -148Q565 -148 567 -149Q566 -146 566 -140Q566 -132 576 -119Q585 -107 585 -98ZM591 -343V-341Q581 -327 580 -309Q569 -298 553 -298Q540 -298 502 -313Q500 -328 490 -339Q485 -344 469 -356Q461 -367 461 -388Q461 -397 463 -399Q454 -393 451 -387Q448 -378 448 -361Q451 -355 451 -354V-353Q449 -343 446 -333Q445 -327 445 -316Q446 -296 447 -277V-273Q485 -275 533 -284Q583 -293 604 -295Q609 -386 619 -476Q538 -458 500 -429Q508 -432 513 -432Q521 -432 534 -423Q543 -417 549 -417Q552 -417 556 -419Q560 -414 564 -410Q575 -424 594 -430Q590 -421 583 -413Q576 -405 575 -395Q576 -392 576 -390Q579 -390 582 -394Q586 -398 590 -398L594 -397Q585 -391 585 -379Q588 -361 591 -343ZM648 129H645Q634 128 627 122Q620 115 613 109Q584 91 573 78Q569 68 564 58Q560 53 550 48Q536 41 534 32Q547 37 559 41Q553 29 538 22Q523 14 511 6H517Q530 7 543 12Q555 17 567 21Q549 11 527 0Q505 -11 490 -28Q501 -27 521 -14Q547 3 560 3H565Q578 1 583 -15Q588 -30 589 -51Q588 -96 594 -124Q593 -128 593 -137Q596 -166 599 -196H589Q507 -195 454 -165Q454 -157 460 -147V-133Q462 -94 463 -55Q463 -24 455 -8Q445 13 419 18H417Q413 17 408 16L405 17H404Q401 17 399 23Q398 29 395 29H394Q391 29 391 26Q391 22 393 20Q379 15 362 -5Q347 -23 339 -28Q344 -38 344 -46Q344 -53 339 -61Q330 -62 321 -63H317Q347 -82 347 -129Q347 -140 346 -146Q318 -142 266 -115Q247 -106 228 -98Q209 -90 195 -77Q187 -70 178 -55Q164 -33 152 -27H146Q125 -28 111 -39Q96 -51 81 -64Q56 -68 45 -74Q30 -83 30 -101Q31 -105 31 -109Q37 -123 43 -138Q47 -169 59 -190Q73 -202 99 -209Q124 -219 170 -253Q177 -259 184 -266Q191 -272 201 -273H205L206 -271Q205 -267 199 -264Q193 -261 188 -258Q174 -247 167 -231Q182 -225 199 -225Q207 -225 210 -226Q227 -230 244 -235H260Q267 -238 273 -241H290Q301 -246 320 -249Q303 -335 255 -363Q252 -367 250 -372Q248 -377 243 -379Q243 -389 235 -404Q226 -421 226 -430Q229 -443 232 -456Q235 -463 241 -469Q243 -506 255 -525Q233 -571 228 -600Q237 -594 245 -573Q255 -546 269 -542Q268 -553 261 -564Q254 -575 250 -586Q259 -585 269 -568Q279 -551 287 -548L288 -552Q285 -561 282 -570V-573Q288 -570 295 -560Q301 -550 306 -548Q312 -549 322 -549Q341 -549 369 -542Q397 -535 414 -535Q422 -560 437 -586Q439 -594 440 -603Q453 -629 464 -661V-670Q468 -678 472 -687V-693Q472 -716 457 -727H455Q450 -726 445 -726H443Q447 -738 463 -754Q474 -764 478 -771Q481 -786 492 -791Q502 -796 515 -802Q526 -809 537 -816Q547 -818 551 -818Q569 -817 587 -816H596Q613 -805 635 -787Q637 -782 638 -778Q643 -774 648 -771Q654 -758 654 -739Q662 -712 665 -683Q665 -672 663 -667Q654 -647 626 -643Q619 -637 612 -632Q605 -626 602 -615Q589 -613 579 -604Q569 -594 561 -585Q605 -596 635 -615Q653 -625 667 -636Q671 -637 677 -637Q691 -637 713 -626Q735 -615 750 -615Q762 -615 768 -617Q765 -610 762 -603Q762 -602 764 -598Q771 -601 782 -618Q795 -639 806 -643Q805 -632 793 -614Q778 -592 778 -580Q778 -576 780 -570Q785 -570 794 -580Q803 -591 811 -592Q798 -578 798 -554Q798 -530 811 -514Q806 -508 803 -489Q801 -476 799 -471Q780 -463 762 -455Q743 -447 742 -422Q743 -417 743 -413Q723 -381 721 -316Q735 -314 740 -314Q758 -314 791 -322Q820 -329 833 -329Q842 -329 847 -328Q852 -332 865 -333Q880 -334 884 -339Q891 -336 897 -333Q911 -339 927 -342H931Q927 -333 919 -325Q923 -313 928 -310Q937 -311 946 -313L948 -312Q946 -307 944 -303V-301Q945 -298 951 -298H956Q953 -291 949 -285Q955 -274 955 -266Q955 -254 944 -233Q935 -217 934 -212Q916 -211 909 -201Q845 -218 786 -218Q742 -218 712 -207Q702 -133 702 -81Q702 -12 718 27Q706 62 694 97Q671 108 648 129Z"/>
</svg>