<svg xmlns="http://www.w3.org/2000/svg" viewBox="0 -800 1024 1024">
	<path fill="#000000" d="M108 -168Q104 -165 98 -165Q88 -165 88 -176V-177Q102 -177 108 -168ZM452 -272Q446 -256 436 -256H434Q436 -261 439 -267Q443 -272 447 -273Q450 -273 452 -272ZM871 -108Q871 -99 865 -93Q860 -94 860 -103Q860 -112 862 -116Q871 -116 871 -108ZM743 97Q734 101 717 101Q696 100 674 99Q652 99 644 105Q632 102 620 99Q611 82 601 64Q606 31 629 -20Q649 -53 654 -93Q654 -108 670 -122Q682 -134 694 -134H697Q705 -132 717 -114Q730 -95 740 -93Q738 -90 738 -83Q741 -69 744 -56Q743 -45 731 -30Q720 -16 718 -8H733Q774 -8 850 -27Q855 -33 856 -41H857Q859 -39 860 -38Q865 -59 869 -80Q873 -64 879 -50V-58Q877 -118 874 -179Q875 -191 875 -203Q878 -200 881 -185Q884 -152 886 -119Q887 -86 900 -58L903 -56Q898 -84 898 -147Q909 -113 914 -72Q918 -30 947 -12Q948 -10 961 28Q968 48 971 67V69Q970 81 946 101Q925 117 910 117H908Q898 117 872 110Q839 101 820 101H817Q810 102 803 102Q796 102 792 99V98ZM941 -757V-744Q933 -742 927 -736Q925 -738 925 -744Q925 -757 937 -757ZM703 -383Q704 -381 706 -375L701 -376Q690 -358 678 -340Q678 -316 677 -309Q667 -198 633 -88Q610 -35 577 -5L570 6Q559 26 518 94Q508 113 507 114Q499 125 485 125H479L448 99Q427 92 415 87Q402 82 375 80Q364 80 354 86Q357 82 359 72Q359 61 343 59Q326 58 310 55Q327 52 342 45Q340 41 327 25Q306 0 300 -14Q321 -3 341 8Q342 1 350 -5Q328 -45 318 -60Q327 -56 347 -35Q365 -16 373 -17Q357 -45 337 -88Q342 -86 357 -64Q377 -34 391 -24Q394 -21 391 -81Q419 -40 432 -27Q434 -42 438 -53Q440 -41 441 -29Q444 -36 444 -48V-59Q444 -75 447 -80Q448 -61 451 -44Q453 -27 466 -20Q474 -26 478 -26H482Q479 -17 476 -8Q476 -6 478 -2Q549 -71 577 -139Q595 -181 615 -291Q615 -328 616 -330Q617 -332 617 -335Q611 -342 605 -349Q605 -351 598 -353Q602 -359 602 -361L601 -363V-367L597 -365Q594 -362 584 -359Q581 -329 581 -207Q579 -167 562 -150Q538 -126 500 -132Q483 -138 478 -151Q471 -168 477 -204Q490 -308 487 -362Q476 -402 471 -425Q468 -423 465 -415Q462 -407 454 -401Q450 -404 450 -409Q455 -423 460 -437L459 -440Q446 -483 463 -517Q493 -540 496 -577L553 -575Q568 -577 588 -594Q606 -609 621 -612L647 -637Q649 -639 652 -639Q655 -639 657 -637Q667 -649 693 -662Q713 -672 724 -680Q732 -686 740 -695Q747 -704 755 -713Q766 -721 776 -730Q784 -741 791 -749Q798 -757 812 -760H816Q842 -760 860 -744Q863 -747 869 -747H872Q869 -741 869 -737Q872 -724 882 -718Q891 -724 901 -728Q898 -721 894 -714Q894 -713 896 -709Q901 -711 907 -720Q913 -728 918 -734Q913 -717 910 -692Q910 -679 916 -672H917Q921 -674 924 -676L925 -675Q925 -663 924 -652Q924 -637 931 -631Q908 -597 886 -562Q864 -527 851 -482L847 -470Q849 -467 849 -461Q846 -447 842 -433Q818 -347 818 -241Q818 -203 823 -161Q812 -145 801 -129Q791 -112 773 -109H769Q755 -109 732 -125Q714 -142 699 -149Q687 -181 685 -200Q681 -230 690 -270Q708 -352 734 -539Q681 -507 654 -486Q608 -450 594 -416Q590 -401 586 -371Q589 -378 596 -386Q599 -388 601 -391Q605 -401 607 -405Q611 -415 615 -419Q632 -435 666 -430Q693 -423 700 -406Q701 -402 701 -393Q701 -390 702 -387ZM247 -492Q255 -500 262 -509H272Q283 -527 301 -530Q307 -539 318 -550Q329 -565 345 -573Q354 -588 369 -588Q383 -588 399 -586Q403 -581 414 -575Q426 -569 429 -565V-559Q429 -546 440 -519Q449 -497 449 -485Q449 -478 446 -472Q438 -461 435 -445Q429 -445 428 -447V-439Q403 -425 408 -400Q413 -375 396 -351Q395 -343 393 -335V-333Q370 -319 367 -289Q348 -273 343 -253L380 -236Q385 -238 391 -245Q398 -253 404 -254L405 -250Q401 -241 397 -233L398 -230H399Q405 -230 416 -241Q423 -248 430 -251Q417 -236 412 -213Q412 -203 436 -190H439Q445 -192 451 -194Q453 -194 455 -192Q455 -187 448 -184Q442 -181 441 -176Q440 -173 440 -168Q443 -154 447 -144Q437 -143 432 -134Q429 -129 425 -114Q420 -110 394 -109Q373 -108 371 -95V-96Q368 -120 344 -129Q324 -138 316 -154Q303 -134 290 -114Q290 -108 289 -102Q288 -97 282 -94L269 -73Q271 -67 271 -63Q270 -49 264 -37Q257 -24 253 -13Q231 -10 209 -2Q206 -14 195 -14Q185 -14 175 -4Q175 -11 182 -19Q187 -25 188 -30Q171 -77 138 -106H140Q150 -103 160 -100H162Q155 -122 146 -134Q136 -146 120 -162Q133 -161 143 -152Q154 -142 166 -142H168Q196 -144 208 -166Q221 -189 239 -208Q225 -218 209 -247Q210 -268 224 -281Q237 -293 257 -293Q270 -287 282 -282Q289 -294 291 -319Q293 -341 298 -354Q267 -342 252 -329Q238 -315 213 -293Q207 -288 194 -271Q179 -252 167 -245Q156 -248 143 -250Q130 -252 121 -258Q116 -255 110 -259Q106 -262 101 -261Q69 -259 69 -296Q69 -308 76 -321Q67 -343 67 -360Q69 -394 91 -414Q113 -435 136 -453Q171 -483 178 -487Q189 -503 203 -507Q203 -498 190 -485Q170 -465 167 -446V-445Q210 -470 247 -492Z"/>
</svg>