<svg xmlns="http://www.w3.org/2000/svg" viewBox="0 -800 1024 1024">
	<path fill="#000000" d="M917 -133H919Q923 -133 927 -131Q922 -120 920 -104Q914 -108 914 -115Q916 -124 917 -133ZM893 -688Q890 -675 874 -675Q869 -675 866 -676Q870 -690 885 -690Q887 -690 893 -688ZM846 -252V-250Q849 -242 856 -237Q863 -232 869 -226Q866 -218 863 -210Q868 -201 871 -193Q867 -188 859 -184Q848 -178 846 -175L845 -172Q847 -167 849 -163L848 -161L846 -159Q842 -162 837 -166Q824 -161 816 -148Q766 -162 709 -162Q695 -162 665 -160Q645 -159 628 -151Q619 -146 611 -137Q603 -129 591 -127H586Q577 -127 562 -136Q554 -141 548 -142Q519 -182 512 -211Q509 -224 509 -239Q509 -261 517 -272Q525 -281 541 -289Q556 -297 558 -311Q558 -317 550 -325Q544 -331 543 -335Q536 -357 536 -377Q533 -383 530 -390V-391Q539 -401 559 -410Q566 -413 591 -424Q639 -443 658 -446Q663 -453 672 -481Q656 -480 634 -461Q612 -443 595 -440Q589 -446 582 -446H580Q564 -458 558 -463Q543 -476 539 -490Q537 -494 537 -503Q534 -512 523 -524Q510 -538 509 -546V-549Q509 -569 515 -581Q518 -588 531 -601Q544 -614 548 -621Q553 -620 558 -620Q576 -621 592 -628Q607 -636 622 -643Q651 -653 653 -655Q667 -666 681 -674Q696 -678 711 -682Q714 -684 721 -689Q728 -695 733 -695H736Q742 -699 747 -710Q752 -721 758 -724Q759 -722 759 -719Q758 -710 756 -701Q756 -697 757 -695Q759 -686 777 -679Q795 -672 797 -664Q815 -673 835 -680L837 -678Q834 -674 830 -666L831 -662Q835 -662 842 -666Q854 -673 860 -673Q850 -665 846 -661Q838 -652 838 -643Q838 -635 840 -631L842 -630Q843 -630 846 -634Q849 -639 853 -639L856 -638Q852 -631 852 -621Q852 -605 863 -599V-594Q865 -566 866 -539Q866 -521 863 -512Q835 -506 819 -488Q802 -470 792 -446Q774 -396 749 -355H747Q736 -358 724 -362Q720 -362 717 -356Q712 -366 705 -373Q679 -368 661 -355V-351Q658 -319 650 -293Q722 -294 738 -297Q785 -305 792 -337Q795 -336 796 -329Q798 -321 803 -320Q806 -325 806 -340V-351Q806 -366 810 -373Q812 -345 816 -331Q822 -311 835 -302V-297Q835 -288 841 -274Q846 -262 846 -252ZM920 -80V-78Q924 -1 961 28Q963 42 967 52Q965 62 963 71Q963 75 964 77Q953 92 936 106Q932 103 926 103Q917 103 906 112Q878 111 852 101Q825 92 798 83Q780 78 761 73Q689 48 589 -10Q556 -28 521 -44Q498 -59 474 -75H472Q463 -75 452 -82Q441 -89 433 -89H431Q413 -107 387 -107Q380 -114 340 -136Q337 -137 330 -137Q317 -137 306 -126Q302 -122 289 -103Q258 -55 243 -20Q236 0 229 15Q222 31 206 38Q201 39 196 39Q183 39 163 29Q149 22 140 22Q131 22 120 29Q121 24 128 16Q134 8 135 2V1Q134 -14 125 -27Q116 -40 111 -52Q107 -54 101 -54Q96 -54 95 -59Q96 -63 101 -63Q108 -62 115 -61H116Q114 -74 93 -78Q67 -83 58 -89Q61 -90 67 -90Q87 -86 106 -83Q116 -83 123 -88Q110 -96 74 -101Q46 -105 34 -109Q41 -111 54 -111Q81 -108 108 -106Q116 -106 119 -107Q130 -109 141 -119Q152 -129 161 -137Q243 -205 278 -272Q296 -262 314 -259Q322 -243 326 -225Q331 -206 348 -200V-221Q350 -270 352 -319Q279 -293 257 -284Q204 -262 172 -238Q159 -226 146 -209Q134 -192 117 -185Q110 -182 102 -182Q83 -183 70 -199Q57 -214 42 -226Q43 -233 43 -246Q43 -260 38 -286Q33 -312 33 -329Q52 -351 77 -369Q101 -387 125 -404Q130 -408 135 -413Q139 -418 145 -418Q149 -418 151 -417Q136 -401 125 -380Q128 -377 130 -374V-373Q162 -384 194 -395H206Q215 -400 224 -406Q253 -411 281 -417Q293 -424 326 -432Q348 -437 355 -440Q353 -468 349 -493Q320 -487 292 -467Q278 -457 246 -427Q230 -419 218 -418Q211 -418 204 -422Q195 -427 181 -448Q168 -460 160 -475Q159 -478 159 -483Q161 -496 162 -509Q162 -512 161 -515Q154 -531 143 -539Q144 -543 144 -549Q144 -568 126 -592H129Q139 -590 143 -586Q143 -596 133 -608Q123 -620 123 -632V-634Q130 -631 140 -618Q152 -603 163 -602Q170 -602 186 -608Q210 -617 221 -618Q250 -619 274 -628Q287 -637 314 -642Q336 -646 343 -649Q341 -690 321 -697V-703Q321 -713 314 -723Q308 -732 307 -737Q314 -739 321 -742Q336 -763 363 -771Q389 -780 416 -788L461 -715Q457 -707 455 -685Q462 -680 467 -680Q478 -680 499 -695V-685Q499 -680 503 -676Q509 -677 521 -677H529Q528 -672 519 -668Q509 -664 509 -656V-655Q510 -652 513 -652Q518 -652 522 -653H523Q517 -647 515 -643Q518 -639 518 -634Q517 -625 515 -616Q516 -611 517 -607Q514 -598 508 -589Q503 -580 502 -568Q502 -562 505 -553Q478 -547 456 -542Q434 -537 422 -517V-512Q421 -489 419 -466V-458Q462 -464 492 -484Q495 -478 497 -473Q507 -478 517 -483Q519 -479 520 -475V-473Q526 -475 543 -475Q540 -471 527 -467Q509 -462 509 -450V-449L512 -447Q517 -448 521 -450L524 -449Q515 -440 515 -419Q515 -401 524 -397Q520 -393 520 -389Q520 -386 526 -376Q493 -374 438 -353Q441 -344 443 -335Q454 -336 471 -343Q491 -352 502 -353Q501 -344 496 -340Q508 -326 512 -277Q505 -274 500 -258Q496 -247 492 -242Q469 -237 460 -234Q444 -229 437 -218Q437 -186 441 -175Q463 -164 504 -149Q557 -130 575 -119H577Q580 -120 583 -121H585Q585 -116 588 -115Q670 -79 768 -50Q814 -38 829 -38Q844 -38 856 -44Q858 -56 858 -70Q858 -84 863 -92Q867 -88 867 -76V-67Q867 -53 871 -50Q878 -74 879 -131Q880 -187 887 -210Q888 -196 888 -166V-104Q888 -68 890 -52Q895 -68 895 -98Q895 -111 894 -125Q894 -153 899 -169Q902 -154 902 -114Q903 -59 911 -40Q914 -44 914 -55Q914 -66 913 -78Q913 -90 917 -95Q921 -94 921 -90Q921 -85 920 -80Z"/>
</svg>