<svg xmlns="http://www.w3.org/2000/svg" viewBox="0 -800 1024 1024">
	<path fill="#000000" d="M564 -361V-373Q513 -367 500 -354Q547 -359 564 -361ZM567 -456Q512 -456 512 -427Q512 -421 513 -418Q537 -428 565 -430Q566 -431 566 -435Q566 -441 565 -448Q565 -454 567 -456ZM562 -526H565Q562 -541 547 -541Q521 -535 498 -529H496Q497 -526 504 -523Q510 -520 510 -515V-514Q536 -523 562 -526ZM185 -672H188Q186 -670 186 -660Q185 -649 179 -649H177Q175 -657 175 -662Q175 -672 185 -672ZM864 -297Q862 -287 859 -278Q855 -286 855 -296Q855 -303 857 -306Q864 -305 864 -297ZM695 -182Q701 -172 701 -166V-161Q690 -157 686 -154Q680 -149 679 -141Q637 -129 631 -31Q631 -21 630 -11Q630 -3 633 1V3Q632 5 630 6Q633 7 638 7Q653 5 668 2Q668 -18 679 -31L680 -27Q679 -17 677 -7Q677 -3 678 -1Q679 5 690 13Q693 13 696 9Q700 5 705 5H708Q705 10 705 19Q705 28 712 30Q729 22 745 13Q762 5 784 1Q768 11 750 20Q733 29 722 45V46Q724 49 726 52Q734 50 742 48V50Q742 52 738 54Q733 56 733 59Q734 68 748 68Q757 68 766 67Q778 67 781 71Q750 75 738 80Q737 83 737 86Q738 91 738 96Q732 102 726 117Q720 133 715 138L711 137Q707 137 701 145Q683 140 669 137Q654 134 646 119L635 110H631Q614 107 590 86Q580 80 568 73Q557 66 555 56V54Q556 46 562 41Q569 36 574 29Q571 23 568 17Q557 -10 557 -35Q560 -73 563 -111Q563 -132 573 -170Q535 -166 510 -159Q476 -149 464 -130Q468 -109 464 -66L462 -49Q460 -32 457 -15Q449 -1 436 2Q430 2 428 1Q416 2 411 -2Q406 -6 409 -13Q408 -30 389 -69L388 -68Q376 -76 362 -96Q350 -113 345 -118Q347 -134 353 -154Q325 -121 325 -131Q238 -30 198 -1Q195 0 190 0Q175 0 161 -17Q147 -33 136 -33Q131 -33 123 -30Q124 -41 131 -51Q129 -59 123 -60Q124 -62 124 -65Q124 -75 116 -93Q106 -114 106 -124Q117 -113 127 -103Q129 -105 129 -110Q129 -115 120 -130Q99 -170 78 -211Q99 -185 119 -157Q138 -129 171 -115Q184 -120 185 -120Q189 -120 192 -117Q214 -130 242 -167Q269 -204 291 -217Q285 -225 256 -235Q235 -242 229 -247Q227 -253 227 -255Q227 -261 232 -270Q236 -278 237 -282Q240 -294 242 -304Q244 -314 250 -322Q275 -346 304 -357Q292 -347 288 -335Q293 -330 310 -330H315Q336 -330 340 -322L367 -324Q377 -331 410 -336Q438 -340 448 -346Q436 -351 418 -351Q405 -366 388 -366L390 -369Q390 -371 385 -373Q394 -383 409 -387Q424 -391 438 -396V-401L434 -402Q415 -399 395 -396Q381 -396 376 -404Q374 -412 374 -417Q366 -422 358 -427Q358 -447 374 -486Q400 -488 424 -495V-497Q423 -502 421 -508Q366 -503 352 -474Q355 -468 355 -462Q353 -448 350 -435H348Q344 -434 339 -433H337Q335 -427 335 -421Q333 -421 315 -415L294 -409Q287 -406 279 -406Q265 -406 237 -418Q211 -429 199 -429Q185 -429 174 -418V-420Q177 -430 182 -438Q177 -453 157 -453Q127 -450 117 -436Q120 -448 127 -457Q134 -465 142 -474L138 -475Q129 -472 121 -467V-470Q121 -478 130 -483Q121 -492 111 -510Q96 -536 84 -544Q84 -550 96 -550Q93 -559 93 -566Q93 -589 112 -601L108 -618L109 -620Q115 -616 120 -609Q141 -612 161 -615H165Q172 -626 179 -637Q181 -629 183 -621Q200 -615 216 -610Q225 -632 239 -639Q236 -633 236 -619Q236 -605 239 -598Q268 -586 293 -570Q329 -574 401 -595Q449 -609 485 -616Q477 -660 467 -676Q450 -703 415 -703H408Q415 -713 428 -717Q441 -722 451 -727L452 -729Q451 -732 450 -735L451 -738Q463 -745 489 -764Q507 -778 521 -786Q529 -779 543 -779Q553 -779 565 -784Q578 -768 597 -757Q616 -747 628 -711Q633 -702 638 -694Q609 -675 602 -639Q618 -646 663 -652Q698 -657 718 -663Q784 -684 823 -685Q829 -684 834 -684H836Q844 -686 856 -697Q867 -707 873 -708Q867 -701 861 -695Q855 -688 854 -676Q857 -672 862 -670Q874 -677 886 -684Q884 -676 881 -669Q881 -665 885 -661Q896 -665 907 -670Q907 -665 902 -658Q897 -651 897 -647V-646Q901 -640 907 -634Q908 -627 909 -621Q911 -604 925 -573Q914 -557 901 -543H896Q885 -542 874 -541Q866 -541 863 -546L833 -536Q802 -528 779 -510Q756 -492 733 -474L734 -477Q731 -488 721 -495Q713 -495 707 -492L706 -494Q706 -496 712 -502Q710 -507 704 -510H703Q699 -510 695 -505Q692 -501 690 -501H688V-502Q688 -508 695 -514Q699 -518 701 -522H697Q688 -519 679 -516Q687 -528 709 -548Q726 -563 734 -574H724Q692 -574 644 -561Q645 -556 651 -550Q656 -545 657 -541Q664 -546 672 -546Q677 -546 679 -544Q679 -541 674 -538Q669 -535 669 -531Q670 -530 674 -530Q679 -530 679 -528Q675 -523 675 -515Q675 -514 678 -490Q636 -477 636 -451Q636 -447 638 -439Q645 -440 651 -442L650 -439Q650 -436 654 -435Q665 -438 676 -441Q675 -436 673 -431V-429Q679 -423 687 -421Q680 -417 669 -414V-411Q669 -404 673 -400Q673 -397 668 -395Q664 -393 664 -390L665 -387L621 -381Q617 -376 615 -367Q618 -366 625 -366Q649 -369 673 -372Q682 -372 689 -369H709Q713 -377 734 -381Q756 -385 761 -393Q760 -390 760 -385Q761 -369 779 -366Q796 -364 812 -363Q789 -361 789 -348Q789 -345 790 -343L792 -342Q797 -343 801 -345Q792 -338 789 -325Q787 -312 783 -301H766Q743 -301 685 -294Q755 -232 832 -193Q839 -204 845 -215Q846 -213 846 -207V-203Q846 -194 848 -190Q853 -201 853 -227Q854 -255 857 -264Q860 -255 862 -231Q864 -203 870 -193Q870 -269 877 -299Q883 -281 883 -234Q883 -180 892 -162Q894 -164 895 -171Q896 -179 900 -180Q901 -166 903 -153Q906 -140 915 -134V-126Q915 -95 899 -76Q884 -58 862 -58Q858 -58 850 -60Q802 -73 736 -148Q734 -148 695 -182ZM618 -250Q607 -260 599 -268Q564 -262 524 -253Q489 -248 461 -243Q433 -239 416 -223Q412 -220 402 -210Q405 -211 411 -211Q419 -211 421 -210Q429 -204 436 -202Q442 -203 448 -208Q465 -210 481 -213Q496 -219 510 -226Q564 -238 618 -250ZM556 -99L558 -96H556Q555 -92 539 -61L538 -58Q534 -48 533 -43Q524 22 466 110Q442 133 413 139L411 138Q408 137 395 127Q386 118 382 117Q380 115 361 130Q373 112 373 105Q374 100 373 99L370 97Q351 88 347 85Q360 83 369 85Q368 81 368 77V67Q370 59 372 56Q370 46 349 27Q331 10 318 4Q308 -5 305 -15Q322 -4 330 -1Q338 2 340 3Q365 19 404 22Q442 25 451 15Q483 -13 487 -45Q487 -48 489 -54L490 -58V-62Q490 -64 483 -65Q486 -70 486 -72L485 -74L484 -77L481 -75Q478 -71 469 -68L470 -74Q470 -83 478 -94Q480 -96 481 -99Q483 -102 485 -112Q487 -121 490 -125Q501 -143 521 -141Q539 -139 547 -126Q563 -118 556 -99Z"/>
</svg>