<svg xmlns="http://www.w3.org/2000/svg" viewBox="0 -800 1024 1024">
	<path fill="#000000" d="M656 16H642Q639 16 637 15V14Q637 8 644 8Q650 8 656 10ZM133 -600V-604Q133 -610 137 -613Q142 -617 147 -617Q155 -617 158 -610Q152 -610 144 -605Q137 -600 133 -600ZM872 -784H869V-786Q869 -797 883 -797Q893 -797 896 -790Q886 -785 872 -784ZM637 -132Q637 -147 627 -147Q614 -145 612 -132Q612 -127 616 -123Q618 -126 627 -128Q634 -130 637 -132ZM697 -174H694Q688 -174 681 -169Q688 -144 693 -141Q699 -145 699 -154Q699 -160 697 -174ZM802 -171Q804 -185 808 -197Q790 -200 789 -200Q770 -200 764 -187Q768 -179 771 -171Q789 -174 790 -174Q796 -174 802 -171ZM753 -416V-417Q688 -402 664 -394Q621 -380 589 -356Q592 -354 595 -350Q600 -343 604 -342Q677 -374 743 -390Q748 -403 753 -416ZM422 -328H427Q441 -328 458 -333Q468 -326 477 -319Q479 -321 485 -323Q490 -325 490 -330Q487 -336 474 -346Q461 -356 456 -366Q442 -362 423 -348Q403 -334 392 -330Q387 -318 368 -303Q349 -288 343 -276Q351 -262 369 -249Q382 -268 398 -285Q415 -302 422 -328ZM265 -564V-576Q265 -593 253 -600Q245 -600 232 -589L231 -593Q231 -599 244 -612Q239 -622 234 -633Q203 -633 169 -618V-619Q170 -625 179 -630Q189 -635 197 -640Q213 -647 229 -654Q230 -656 230 -659Q229 -666 228 -673Q227 -677 220 -678Q212 -679 212 -684Q230 -684 235 -700Q223 -723 210 -747Q241 -726 247 -720Q255 -728 286 -730Q328 -733 333 -752Q334 -750 334 -746Q334 -738 333 -730Q333 -723 337 -720H351Q350 -716 348 -713V-711Q365 -683 383 -654Q401 -625 402 -583Q402 -573 401 -567Q376 -542 351 -542Q334 -542 314 -552Q305 -557 295 -565Q285 -572 277 -573Q270 -573 265 -564ZM574 -519H573Q561 -519 548 -532Q542 -538 530 -555Q525 -562 517 -570Q504 -583 500 -591V-602Q500 -632 512 -640Q509 -666 506 -693Q523 -710 537 -730Q550 -750 571 -761L560 -733Q564 -727 576 -727Q591 -727 626 -741Q660 -754 701 -769Q742 -785 780 -792H781Q784 -792 785 -789Q786 -785 788 -784Q809 -790 811 -790H814Q803 -781 803 -778Q803 -774 814 -774Q840 -774 856 -782Q848 -775 838 -769Q828 -764 826 -750Q829 -747 832 -747Q840 -750 847 -753L850 -752Q836 -738 835 -727Q838 -722 841 -722Q844 -722 845 -726L846 -722Q844 -718 841 -714Q837 -701 834 -679Q832 -660 829 -652Q825 -641 812 -625Q798 -608 794 -595Q680 -586 620 -546Q610 -539 597 -529Q584 -520 574 -519ZM863 55L832 84Q806 107 796 107H795Q782 107 747 66Q742 57 736 48Q724 37 699 30Q682 25 672 18Q675 17 680 17Q705 22 730 26Q719 13 694 9Q669 4 649 -3Q654 -4 662 -4Q677 -4 699 1Q725 7 737 7Q733 0 718 -3Q703 -6 691 -9Q694 -12 702 -12Q714 -10 725 -9H727Q758 -14 768 -47Q778 -81 788 -112H759Q752 -107 750 -93Q749 -87 748 -67Q746 -32 730 -27Q697 -39 697 -86V-94Q689 -82 685 -66Q681 -50 675 -36Q666 -39 665 -39Q664 -39 658 -37Q641 -51 638 -75Q622 -74 622 -53Q624 -35 625 -18Q613 -15 601 1Q570 -6 560 -34Q550 -62 540 -91Q530 -65 527 -31Q524 2 518 32H515Q497 32 487 49Q472 42 456 35Q455 18 443 6Q444 2 444 -2Q443 -24 427 -35Q412 -46 401 -59Q412 -55 432 -51Q435 -51 435 -54Q435 -57 434 -60L435 -62Q467 -108 492 -182Q502 -212 531 -321H528Q517 -318 506 -316H503L491 -325Q487 -325 487 -313V-310Q488 -307 493 -303Q500 -298 502 -294Q505 -288 505 -281Q505 -272 497 -254Q491 -240 490 -232Q485 -233 476 -233Q443 -233 411 -203Q411 -199 420 -198Q429 -197 429 -192V-189Q439 -193 449 -198L450 -196Q447 -192 443 -184Q446 -174 458 -168Q462 -157 462 -142Q462 -117 451 -98Q440 -78 423 -77H420Q407 -77 391 -91Q372 -108 363 -111Q358 -101 358 -79Q363 -26 367 26V35Q362 69 329 72Q318 72 309 67Q304 58 288 45Q276 35 271 29Q263 -11 262 -15Q255 -38 240 -48Q274 -63 277 -118Q283 -162 283 -178Q283 -185 281 -201Q209 -124 152 -30Q133 -27 117 -20Q103 -29 97 -47Q92 -65 83 -80V-82Q84 -86 84 -90V-93Q81 -100 74 -103Q78 -111 78 -119Q77 -136 65 -148Q54 -160 47 -172Q58 -172 68 -160Q75 -152 81 -150Q77 -166 63 -181Q39 -206 38 -207Q71 -192 102 -171Q184 -232 306 -360Q270 -354 236 -334Q214 -321 176 -290Q148 -267 134 -266Q123 -267 115 -273Q106 -279 99 -285Q92 -290 77 -296Q55 -304 50 -312Q43 -321 43 -336Q47 -363 53 -388V-394Q52 -409 51 -425Q51 -439 59 -447Q77 -461 99 -471L158 -504L159 -502Q155 -494 145 -485Q138 -476 133 -460Q140 -458 154 -458Q180 -458 227 -479Q270 -498 293 -498H299Q307 -509 327 -509Q334 -509 337 -508Q348 -519 361 -519Q364 -519 370 -517Q387 -525 404 -534Q412 -531 416 -531Q425 -531 436 -542Q447 -553 455 -554Q447 -535 447 -529V-525L450 -524Q456 -527 461 -531H462Q463 -523 477 -515Q489 -508 491 -499Q503 -511 518 -517Q517 -513 511 -505Q504 -495 503 -486Q567 -494 681 -528Q716 -537 749 -543Q782 -549 807 -570Q815 -579 827 -590Q838 -602 854 -603Q861 -603 865 -601Q869 -601 874 -606Q878 -610 882 -610H884L886 -607Q886 -604 885 -601Q885 -596 890 -595Q897 -597 905 -604Q914 -612 920 -614V-613Q920 -611 916 -606Q909 -597 908 -592V-589Q910 -578 915 -568Q920 -570 925 -583Q925 -563 934 -531Q942 -503 942 -485Q942 -470 940 -462Q905 -440 877 -391Q864 -368 834 -298Q819 -292 804 -287Q786 -295 768 -303Q764 -302 759 -298Q743 -300 737 -300Q696 -300 638 -267Q636 -267 633 -268Q623 -267 615 -261Q607 -256 599 -252Q591 -249 583 -247Q576 -245 575 -237Q575 -233 576 -231Q581 -232 584 -235Q586 -239 591 -240Q599 -240 605 -234Q663 -253 737 -266Q812 -279 863 -309H871Q896 -309 911 -300Q923 -306 937 -306Q941 -306 949 -304Q945 -299 940 -297Q934 -294 933 -286V-282Q933 -278 939 -278H943Q937 -272 937 -264Q937 -257 943 -247Q948 -238 949 -235Q952 -221 952 -208Q952 -197 951 -187Q952 -179 952 -172Q904 -141 885 -59Q867 0 863 55Z"/>
</svg>