<svg xmlns="http://www.w3.org/2000/svg" viewBox="0 -800 1024 1024">
	<path fill="#000000" d="M510 -687Q549 -690 584 -697Q596 -707 604 -728Q613 -751 613 -766Q613 -774 611 -777H607Q593 -775 579 -774Q597 -794 617 -814Q638 -834 674 -836H678Q690 -827 715 -815Q749 -799 761 -787Q759 -781 759 -779Q762 -768 764 -757Q764 -751 761 -747Q743 -745 733 -724H734Q742 -726 750 -728Q753 -728 756 -725L767 -735Q783 -737 791 -741Q795 -738 796 -732Q807 -734 818 -737Q822 -737 822 -731Q837 -735 852 -740Q850 -736 842 -732Q829 -725 827 -719H829Q842 -720 854 -721H858Q840 -712 833 -700Q836 -696 839 -692Q846 -693 853 -695Q848 -691 843 -688Q841 -685 841 -680Q842 -671 843 -663V-659Q843 -653 837 -642Q831 -631 831 -624V-621H824L821 -623Q768 -614 714 -606Q672 -603 656 -590Q639 -574 623 -539Q612 -541 600 -544H597Q593 -545 588 -547Q581 -544 579 -537Q574 -540 574 -544Q574 -548 582 -556Q579 -558 576 -558Q560 -552 549 -539Q563 -577 576 -616Q561 -606 502 -587Q453 -571 436 -562Q439 -553 439 -546Q436 -523 426 -500Q421 -499 412 -499Q394 -499 378 -511Q374 -514 353 -535Q343 -535 318 -517Q291 -498 276 -496Q274 -495 268 -495Q254 -495 230 -514Q210 -530 199 -532Q179 -545 177 -576Q177 -591 186 -600Q178 -611 178 -620Q179 -636 195 -648Q210 -660 222 -668Q227 -667 232 -666Q238 -665 239 -659L254 -657Q260 -662 279 -665Q273 -675 273 -691Q273 -717 292 -718Q291 -730 289 -742Q298 -737 307 -729Q300 -745 292 -761Q297 -759 304 -751Q313 -741 319 -741L320 -743Q318 -748 315 -753V-756Q322 -752 328 -749Q332 -750 340 -750Q365 -749 378 -735Q392 -720 406 -708Q406 -697 415 -693Q420 -691 434 -691H436Q448 -691 453 -690H466ZM883 -748Q879 -742 868 -742Q867 -742 863 -744V-745Q863 -752 874 -752Q882 -752 883 -748ZM644 -394Q654 -390 659 -387Q673 -345 673 -328Q673 -313 667 -297Q667 -294 672 -292Q677 -290 677 -287V-285Q646 -280 604 -275Q561 -270 542 -253Q560 -249 568 -240Q566 -228 561 -218Q590 -223 610 -229Q608 -221 605 -214L606 -210Q610 -208 617 -208Q623 -208 637 -213Q651 -218 660 -218H665Q655 -212 644 -207Q633 -203 632 -188V-185L635 -184Q641 -185 647 -187Q651 -187 652 -186Q640 -169 639 -164Q646 -161 652 -163Q658 -180 681 -198Q697 -203 716 -200Q736 -198 754 -196Q754 -207 761 -216L764 -218Q766 -211 768 -200Q770 -190 776 -181Q779 -178 781 -176Q788 -174 795 -172Q803 -159 806 -147Q808 -134 813 -121Q813 -115 804 -104Q796 -95 795 -90Q789 -93 779 -83L773 -79Q741 -84 729 -80Q716 -96 701 -102Q685 -108 670 -112Q667 -120 661 -128Q659 -131 642 -148Q634 -141 630 -127Q627 -114 622 -101H620Q611 -100 602 -99Q597 -99 595 -101H577Q574 -95 564 -95Q553 -94 549 -89Q545 -84 545 -64Q545 -46 541 -40H554Q609 -43 668 -53Q700 -55 725 -57Q751 -59 764 -79V-70Q764 -61 762 -58Q767 -58 773 -67Q780 -77 786 -78Q783 -63 783 -54Q783 -41 789 -36Q791 -35 798 -35Q811 -35 823 -36H829Q827 -33 819 -31Q808 -28 806 -21Q808 -19 812 -19Q816 -19 819 -20Q823 -20 825 -18Q811 -8 811 16Q813 37 814 58Q814 63 813 68Q804 75 804 89V95Q802 94 799 94Q793 94 788 100Q784 105 783 114Q761 100 731 95Q700 90 669 85L644 82Q613 86 545 88Q515 92 485 96Q474 96 464 91L422 104Q416 108 398 115Q371 121 343 126Q337 129 331 131Q327 134 323 136Q318 131 309 128Q290 124 270 119Q264 116 263 115Q261 113 258 110Q255 106 255 97Q256 86 256 75V72Q252 54 247 35Q248 26 248 17Q248 13 247 11Q246 7 240 1Q234 -5 232 -10L236 -11Q243 -10 247 -5Q251 0 255 3Q258 0 258 -3Q258 -9 243 -24Q236 -31 229 -36Q222 -42 222 -49V-50Q233 -47 247 -36Q262 -23 273 -21V-22Q273 -25 267 -31Q258 -39 258 -46Q265 -46 275 -38Q284 -31 292 -30Q301 -40 312 -40Q320 -40 339 -31Q354 -24 363 -22Q402 -31 470 -31Q473 -38 473 -51Q473 -55 468 -75H466Q458 -75 441 -69Q427 -64 419 -64Q416 -64 413 -65Q395 -70 391 -93Q387 -115 378 -134Q373 -142 360 -149Q348 -156 345 -166Q359 -160 367 -158L368 -159Q368 -163 367 -168V-170H370Q377 -170 381 -167Q395 -179 417 -180Q440 -182 462 -188Q458 -201 456 -219Q440 -213 429 -208Q417 -202 401 -202H399Q365 -202 355 -222Q330 -227 327 -241V-246Q330 -261 332 -276V-278Q331 -289 330 -301Q330 -318 359 -343Q385 -365 403 -372Q399 -362 394 -353Q398 -351 402 -351Q412 -352 421 -353Q428 -353 431 -351L464 -357Q471 -370 495 -376Q518 -383 532 -387Q549 -394 567 -401Q585 -408 612 -409Q622 -403 640 -395Q648 -407 655 -419Q654 -428 654 -430Q654 -432 652 -434Q650 -436 646 -436Q642 -435 638 -435Q631 -433 629 -438Q657 -443 668 -448Q687 -456 692 -472Q639 -463 541 -433Q508 -423 448 -402Q396 -384 373 -374Q331 -355 309 -332Q318 -313 309 -288Q297 -281 279 -279Q266 -279 242 -288Q213 -299 198 -299Q194 -298 190 -298L191 -302Q191 -308 179 -313Q168 -318 160 -318L159 -317Q148 -317 135 -299Q134 -301 134 -305Q138 -316 146 -328Q141 -334 131 -344Q122 -354 113 -356H109Q101 -356 90 -343Q80 -331 70 -328Q72 -339 87 -352Q98 -361 101 -368Q101 -371 98 -371Q92 -369 86 -368Q94 -378 94 -389Q94 -403 79 -404Q79 -414 71 -421Q64 -427 53 -427Q48 -427 46 -426Q53 -434 72 -441V-443Q72 -458 81 -470Q87 -477 100 -488Q92 -508 90 -519Q97 -520 106 -506Q114 -494 118 -494H119Q127 -498 146 -503Q150 -503 152 -502Q154 -514 155 -526Q155 -539 163 -547Q165 -534 166 -522Q168 -509 176 -503Q177 -504 179 -509Q181 -513 184 -513H187V-511Q189 -498 201 -494Q215 -490 221 -478H222Q226 -479 229 -480L232 -479V-475Q233 -465 239 -460Q246 -455 251 -448Q285 -452 295 -459Q298 -458 302 -458H311Q315 -461 318 -464Q416 -484 569 -522Q751 -568 831 -596H841Q868 -595 894 -595Q908 -595 919 -599Q916 -592 913 -586V-584Q919 -584 926 -593Q935 -604 946 -605H948Q943 -597 935 -590Q928 -584 927 -572Q928 -569 928 -566L930 -565Q936 -569 940 -573L941 -572Q940 -562 939 -553V-550Q945 -545 947 -524Q949 -506 954 -500Q936 -474 934 -455H932Q912 -450 891 -446Q886 -446 880 -448L834 -429Q825 -414 807 -407Q763 -382 717 -334Q710 -347 710 -364Q686 -361 678 -359Q674 -368 665 -408Q653 -399 644 -394Z"/>
</svg>