<svg xmlns="http://www.w3.org/2000/svg" viewBox="0 -800 1024 1024">
	<path fill="#000000" d="M95 -569V-572Q95 -584 111 -584Q115 -584 117 -583Q108 -570 95 -569ZM192 -720V-724Q192 -730 191 -736L192 -740H194Q201 -738 206 -734Q223 -741 241 -744Q259 -747 268 -761Q274 -759 278 -749Q281 -742 284 -739Q292 -734 299 -730Q311 -717 321 -703Q323 -703 326 -708Q329 -713 334 -713L337 -712Q335 -706 335 -695Q341 -661 362 -642Q371 -613 371 -591Q371 -567 359 -552Q358 -551 340 -538Q330 -528 320 -523Q312 -521 308 -521Q295 -521 269 -542Q249 -559 237 -562Q232 -562 224 -555Q219 -551 216 -551Q215 -553 215 -556Q218 -566 225 -574Q225 -577 222 -577Q219 -577 219 -580Q193 -576 188 -574Q176 -570 159 -557Q144 -545 136 -542Q137 -551 145 -559Q154 -566 163 -574Q194 -599 194 -607Q194 -611 188 -613Q186 -614 181 -614Q168 -614 147 -599Q131 -588 124 -588Q132 -604 152 -611Q171 -618 173 -637Q173 -640 172 -643Q160 -643 151 -646Q161 -654 170 -663Q168 -680 152 -695Q134 -712 130 -723Q145 -710 165 -710Q181 -710 192 -720ZM697 -68V-70Q689 -70 680 -71Q603 -71 584 -23Q587 -19 592 -19Q607 -24 625 -33Q652 -38 682 -41Q697 -58 697 -68ZM733 -190Q729 -193 720 -193Q712 -193 707 -187Q704 -190 703 -190L699 -189Q661 -174 627 -162Q593 -149 566 -123Q566 -113 574 -113Q576 -113 595 -120Q644 -137 671 -149Q677 -143 680 -135Q693 -142 706 -150Q699 -144 699 -134Q699 -124 706 -115Q704 -105 702 -95Q702 -91 703 -89Q708 -114 733 -190ZM528 -243H530Q514 -252 498 -262Q500 -266 500 -269Q497 -280 493 -291Q504 -316 516 -340Q527 -365 528 -396L526 -397H525Q481 -318 460 -242Q469 -247 483 -247Q506 -245 528 -243ZM521 -604Q521 -614 519 -618Q506 -608 505 -601Q512 -590 512 -586Q512 -577 497 -562Q482 -547 482 -538Q482 -534 483 -532Q498 -542 513 -552Q517 -578 521 -604ZM701 -437Q705 -465 720 -482H711L699 -474Q688 -463 673 -454Q658 -459 649 -467Q638 -477 636 -492Q631 -487 627 -487L624 -489L612 -475Q602 -473 592 -471Q582 -469 581 -457V-456Q581 -448 592 -436Q605 -422 605 -410V-406Q602 -391 592 -377Q586 -362 580 -347Q589 -350 599 -356Q615 -366 623 -368Q619 -362 615 -356L618 -355Q622 -356 626 -358L627 -357L625 -350Q643 -362 656 -379Q668 -397 682 -414ZM779 -450H778L777 -451V-454L776 -456H775Q755 -416 734 -376Q712 -336 701 -285Q728 -298 759 -306Q757 -322 741 -334Q743 -341 748 -343Q741 -349 737 -362Q770 -417 779 -450ZM867 -561Q851 -552 835 -544Q818 -537 808 -522Q823 -504 824 -503Q834 -493 843 -492V-487Q843 -473 854 -466Q852 -448 839 -425Q827 -404 824 -391Q830 -388 836 -388Q851 -389 866 -391Q872 -397 878 -415Q884 -436 893 -441Q889 -417 889 -415Q889 -406 893 -403Q897 -428 897 -457Q897 -486 910 -501Q906 -471 906 -446Q906 -434 908 -416Q912 -422 914 -440Q916 -461 922 -466Q923 -461 923 -456Q923 -440 922 -424Q922 -396 933 -390Q938 -395 940 -405Q944 -385 964 -372V-368Q964 -358 969 -352Q973 -347 976 -340Q962 -301 929 -301Q920 -301 914 -303L890 -311H886Q863 -314 840 -317Q835 -317 829 -315Q837 -297 843 -289Q853 -275 863 -275L867 -276L869 -273Q868 -269 867 -266V-265H868Q873 -267 878 -269Q880 -269 882 -267V-265Q882 -262 878 -259Q873 -255 872 -252V-248Q872 -241 883 -222Q878 -210 875 -196Q875 -193 877 -187Q856 -175 844 -163Q828 -147 823 -127L802 -90Q801 -73 793 -42Q782 -2 782 17Q784 33 785 48Q785 53 784 56Q779 82 743 99Q742 98 740 96Q738 95 736 94Q723 93 709 85Q694 72 686 54Q684 46 685 39Q685 32 679 28Q644 35 614 39Q586 43 578 74Q572 75 566 75Q539 74 525 59Q510 44 493 33Q496 14 501 5Q496 -7 492 -21Q492 -26 496 -29L490 -48L478 -51Q469 -84 450 -108Q432 -122 416 -138Q410 -147 405 -157Q399 -167 388 -173Q396 -203 431 -224Q424 -229 419 -235Q414 -241 404 -242H402Q402 -250 398 -258Q380 -261 378 -261Q378 -264 384 -264V-265Q382 -276 372 -276Q369 -276 365 -274Q375 -309 416 -324L431 -345Q438 -385 457 -414Q449 -413 440 -402Q432 -392 426 -391H422Q411 -391 401 -404Q400 -406 387 -428Q390 -432 390 -438Q390 -453 379 -459Q387 -489 410 -512Q421 -519 427 -543Q429 -551 434 -588V-589Q432 -592 429 -596V-597Q430 -604 440 -610Q447 -614 449 -618Q447 -624 444 -628Q440 -633 435 -633H433Q423 -653 411 -670Q398 -687 394 -708Q404 -706 410 -704Q427 -716 465 -725Q494 -732 508 -739Q530 -745 584 -756Q609 -760 633 -764Q633 -761 629 -757Q626 -754 625 -750L626 -749Q630 -751 633 -753H634Q630 -747 628 -739Q629 -735 634 -731Q642 -724 642 -716V-711Q642 -708 648 -708Q643 -699 640 -661Q635 -661 634 -663Q631 -652 618 -646Q615 -645 595 -638Q579 -622 577 -576H578Q589 -576 599 -589Q609 -603 620 -603Q621 -590 634 -575L654 -578L656 -577Q652 -573 648 -569H649Q652 -570 655 -572L657 -570L656 -567L657 -566Q665 -569 673 -573Q678 -590 678 -604Q678 -623 665 -669Q677 -672 687 -672Q731 -672 750 -636V-633Q749 -622 748 -611V-607H749Q764 -607 764 -636Q764 -655 759 -670Q747 -670 745 -663Q740 -670 735 -672Q733 -672 729 -670Q719 -698 683 -714Q686 -724 691 -732Q686 -749 677 -764Q713 -772 748 -780Q773 -786 793 -792Q813 -798 837 -796Q846 -797 855 -799H860V-798Q860 -796 858 -796Q855 -796 855 -793Q856 -786 871 -786Q883 -786 886 -782Q884 -779 878 -779H877Q870 -779 870 -774Q872 -771 876 -771Q883 -771 889 -772Q894 -772 896 -770Q895 -766 890 -764Q885 -762 885 -759Q892 -742 895 -728L894 -724Q891 -717 877 -708Q870 -702 866 -696Q861 -689 851 -689H850Q837 -674 837 -656Q837 -650 840 -644Q848 -650 867 -657Q894 -668 903 -678Q905 -676 910 -664Q923 -668 933 -669Q932 -667 928 -666Q923 -665 923 -661Q926 -657 933 -657Q941 -657 948 -658Q942 -653 938 -645Q938 -642 941 -641Q945 -640 946 -639Q938 -630 934 -626Q938 -622 938 -615Q936 -599 933 -583Q933 -576 934 -573Q922 -568 902 -568Q894 -568 882 -570ZM936 -500Q934 -481 922 -474Q919 -478 919 -485Q919 -502 929 -502Q932 -502 936 -500ZM212 -256Q208 -317 213 -336Q176 -324 148 -266Q136 -263 129 -263Q125 -263 117 -265Q107 -273 95 -298Q86 -317 81 -324Q75 -332 69 -341L68 -345Q70 -351 71 -357V-359Q70 -372 69 -386Q69 -390 70 -393Q65 -402 56 -409Q47 -416 42 -422Q44 -424 48 -424Q60 -419 70 -410Q68 -424 46 -440Q28 -453 23 -463Q36 -462 54 -446Q68 -433 77 -431Q78 -439 64 -448Q51 -456 49 -464Q66 -458 82 -447Q88 -444 91 -444H92Q96 -446 99 -449Q103 -451 115 -451Q123 -450 131 -450Q138 -450 140 -451Q167 -455 173 -457Q177 -455 181 -454L193 -456Q195 -468 208 -468H210Q222 -478 236 -485Q241 -484 246 -484Q250 -484 254 -485Q259 -482 264 -480Q269 -482 280 -490Q290 -498 298 -500V-499Q294 -493 283 -485Q278 -478 278 -469Q278 -465 278 -462Q283 -463 291 -469Q301 -477 307 -478Q291 -465 291 -453Q291 -444 300 -440Q305 -443 311 -446H314L315 -445Q313 -441 310 -438L312 -435L314 -433Q317 -434 320 -435Q315 -430 315 -418Q316 -401 317 -385Q317 -378 315 -375L318 -360Q322 -353 321 -345Q321 -344 315 -317Q310 -312 304 -314Q288 -313 283 -287Q279 -262 281 -226Q289 -147 285 -107Q301 -118 317 -130Q326 -137 312 -159Q301 -176 298 -191Q302 -188 314 -172Q325 -158 332 -155Q335 -163 314 -195L336 -172L306 -229L347 -177L339 -200Q349 -186 354 -181Q339 -201 335 -215Q340 -214 345 -209Q350 -201 353 -193Q360 -183 367 -173Q375 -161 382 -156Q397 -146 413 -128Q416 -125 418 -123Q423 -116 426 -109Q434 -99 436 -97Q432 -86 428 -76Q419 -73 410 -66Q401 -59 394 -64L391 -56Q393 -51 384 -47Q379 -44 374 -41L368 -37Q355 -27 329 -1Q323 3 319 1L313 10Q304 22 286 31Q270 39 253 32Q224 23 200 18Q198 18 196 15Q194 11 192 11H190Q173 11 159 20V19Q159 12 183 3Q176 -11 176 -28Q178 -68 189 -79L196 -80Q190 -84 184 -88L185 -89Q192 -89 195 -88Q201 -95 204 -118Q206 -140 210 -160Q211 -208 212 -256Z"/>
</svg>