<svg xmlns="http://www.w3.org/2000/svg" viewBox="0 -800 1024 1024">
	<path fill="#000000" d="M912 -655V-654Q910 -644 892 -643V-645Q894 -657 904 -658Q909 -658 912 -655ZM912 -223V-219Q912 -202 904 -196Q899 -201 899 -211Q899 -223 909 -223ZM891 -707V-710Q893 -726 905 -728Q912 -728 913 -718Q904 -711 891 -707ZM303 -247V-251Q307 -283 310 -316V-319Q298 -308 298 -277Q298 -260 303 -247ZM313 -120V-144Q314 -146 318 -148Q323 -150 323 -153L321 -154Q319 -154 313 -151Q312 -154 311 -157H309Q305 -154 300 -151V-114Q302 -114 313 -120ZM260 -211Q261 -226 262 -241Q262 -247 260 -255Q248 -254 242 -236Q241 -233 235 -205Q238 -203 242 -203Q250 -205 260 -211ZM653 -483Q651 -507 645 -527Q625 -523 620 -515Q618 -516 615 -516Q604 -513 594 -506Q603 -488 609 -469Q631 -476 653 -483ZM854 -540V-538Q856 -533 857 -529Q853 -529 851 -526Q844 -533 840 -543Q830 -541 820 -540Q818 -540 815 -541Q803 -544 789 -559Q773 -576 772 -590Q770 -592 760 -604V-608Q760 -625 748 -635Q752 -642 752 -650Q752 -666 737 -671Q752 -681 758 -687Q769 -698 772 -712Q773 -714 773 -717Q773 -720 772 -724Q772 -728 775 -730Q780 -728 782 -718Q784 -709 787 -707H799Q805 -713 808 -722Q812 -730 820 -734L821 -732Q819 -722 816 -712Q817 -709 817 -707Q821 -691 839 -691Q851 -691 883 -704Q876 -695 865 -689Q853 -683 852 -668V-667L856 -666Q861 -666 869 -672Q876 -677 880 -677L883 -676Q881 -670 871 -663Q861 -656 858 -649Q858 -646 861 -644Q865 -642 865 -641Q872 -643 879 -646Q881 -646 885 -644Q870 -637 870 -620Q870 -602 888 -598H904Q913 -598 917 -592Q912 -592 907 -593Q868 -593 868 -557V-553Q859 -550 854 -540ZM948 33H960Q964 55 964 66Q964 95 951 107Q923 111 895 114Q886 114 882 113Q871 110 839 78Q801 42 784 14Q758 -30 737 -84Q720 -77 714 -59Q709 -41 703 -24Q701 -29 693 -29Q687 -28 680 -28Q674 -28 671 -30Q665 -24 662 -15Q659 -16 659 -22Q659 -31 664 -39Q658 -49 649 -57Q641 -66 640 -78Q640 -83 641 -85Q640 -88 637 -91Q632 -95 632 -99Q638 -105 638 -110V-114Q632 -120 613 -120H594Q631 -138 661 -167Q669 -174 680 -183Q690 -193 692 -204V-206Q689 -221 685 -236Q669 -302 665 -333Q628 -324 612 -314Q587 -298 587 -270V-264Q604 -269 618 -275Q632 -281 652 -282H655Q655 -275 645 -272Q634 -268 633 -262Q634 -257 645 -255Q637 -251 637 -242Q638 -232 639 -222Q639 -216 638 -213L641 -211H647Q635 -204 635 -191Q635 -186 636 -184Q629 -179 611 -171Q589 -161 580 -153Q580 -89 584 -45Q592 0 596 30Q594 48 586 60Q577 71 569 83Q539 73 524 61Q504 45 501 17Q493 16 492 9Q490 1 486 -6Q481 -13 465 -15Q452 -17 445 -21Q449 -25 458 -25Q469 -24 480 -24H485Q479 -31 458 -31H444Q422 -31 417 -40Q467 -40 492 -52Q492 -60 497 -77Q503 -98 503 -111Q488 -106 475 -95Q471 -88 469 -79Q466 -70 460 -67H457Q453 -67 429 -76Q402 -86 400 -87Q398 -98 397 -107Q396 -116 386 -120L385 -119Q386 -116 386 -113L385 -111L387 -108Q390 -108 392 -109L394 -108V-103Q394 -98 393 -95Q407 -76 407 -42Q407 -15 394 -6Q368 -8 358 -23Q345 -17 335 -6Q326 0 310 7Q290 16 281 23Q271 31 259 48Q249 62 242 69H240Q227 69 212 59Q195 48 181 48H177Q184 35 190 21Q176 6 176 -18Q176 -42 193 -58Q188 -63 186 -72V-75Q190 -75 195 -70Q198 -67 201 -66Q245 -85 258 -91Q260 -105 260 -111Q254 -111 244 -100Q236 -91 229 -90H226Q211 -94 195 -108Q189 -110 182 -112Q176 -119 170 -127Q146 -143 128 -164H125Q114 -163 103 -162Q96 -162 93 -164Q67 -177 44 -205Q42 -208 37 -229Q26 -254 20 -289Q35 -311 52 -331Q57 -340 61 -349Q63 -351 71 -358Q78 -364 81 -370Q82 -375 83 -381Q83 -387 91 -388Q94 -387 94 -381V-373Q94 -368 96 -367Q100 -370 106 -389Q111 -405 124 -405H125Q117 -388 115 -372V-370Q117 -359 125 -353Q133 -347 140 -339Q147 -326 153 -313Q156 -310 160 -308Q164 -307 164 -302Q180 -311 207 -340Q227 -359 247 -379Q257 -389 257 -404Q254 -428 245 -458Q244 -472 243 -484Q242 -496 232 -503H230Q226 -502 221 -502H218Q228 -520 231 -544Q234 -569 254 -578Q259 -580 271 -580Q279 -580 297 -578Q304 -565 313 -550Q322 -535 325 -517V-512Q325 -501 320 -484Q315 -467 315 -459V-457Q312 -450 308 -443L309 -439Q321 -444 332 -461Q344 -479 355 -484Q365 -487 376 -489Q387 -490 393 -502Q396 -492 400 -487Q408 -490 415 -493H417Q415 -487 415 -476Q415 -458 427 -425Q438 -394 438 -380Q438 -364 430 -352Q419 -337 407 -325Q395 -314 388 -291Q378 -249 367 -208Q361 -174 361 -154V-145L363 -144Q367 -147 374 -150H377V-149Q375 -140 372 -132Q372 -127 379 -124Q385 -125 385 -135Q385 -144 384 -153Q385 -156 385 -159Q393 -167 394 -169Q430 -177 457 -194Q484 -211 512 -225Q511 -231 502 -231Q497 -230 491 -230Q472 -239 454 -251Q436 -263 435 -285V-289Q435 -293 442 -303Q447 -311 448 -318V-319Q444 -332 439 -346V-352Q440 -378 454 -396Q468 -413 478 -430Q483 -427 488 -427Q511 -432 534 -437Q539 -477 549 -512Q543 -512 531 -501Q520 -492 513 -489Q511 -492 511 -496Q515 -509 521 -523Q520 -527 512 -527H503Q499 -535 495 -543Q492 -543 489 -538Q486 -534 482 -534H481V-535Q481 -539 484 -543Q488 -548 488 -553V-555Q478 -554 465 -542Q457 -535 453 -534V-537Q454 -545 459 -549Q465 -552 469 -558Q448 -553 429 -532Q425 -527 420 -521Q416 -515 408 -515H406Q409 -531 419 -540Q430 -549 441 -558Q460 -577 479 -598Q498 -619 519 -633Q519 -636 528 -685Q541 -688 555 -694Q570 -699 585 -700Q592 -700 596 -699Q610 -697 636 -671V-685Q636 -715 624 -721H622Q618 -719 614 -718V-720Q613 -726 612 -732V-734Q611 -738 603 -740Q598 -741 596 -743Q596 -753 603 -759Q605 -761 617 -768Q624 -779 633 -788Q649 -805 653 -812Q684 -808 700 -784Q718 -757 738 -734Q739 -731 739 -729Q739 -721 729 -710Q721 -701 719 -696Q718 -678 716 -661Q716 -649 715 -638Q718 -573 721 -508Q737 -508 737 -518V-520L741 -519Q751 -524 760 -529Q763 -530 770 -530Q799 -530 808 -518Q816 -524 829 -526V-525Q829 -521 823 -513Q817 -505 817 -500Q817 -496 821 -492Q843 -498 868 -502Q862 -495 851 -489Q834 -479 830 -472Q829 -468 829 -462Q831 -451 832 -440Q832 -435 829 -429Q829 -425 833 -425H839L843 -424Q837 -420 836 -405Q835 -392 831 -388Q800 -386 776 -376Q752 -367 729 -357Q730 -318 743 -283Q764 -322 766 -328L767 -331Q767 -334 762 -336Q768 -346 788 -346Q822 -344 840 -328Q852 -333 860 -340Q863 -337 863 -334Q863 -331 858 -325Q852 -318 852 -313V-311L854 -310Q857 -313 865 -316L868 -315Q858 -301 856 -274Q857 -271 857 -264Q857 -245 851 -229Q847 -218 835 -210Q833 -208 809 -196Q775 -178 774 -157V-156Q774 -139 800 -94Q820 -49 858 -33Q864 -37 867 -52Q869 -63 871 -66Q874 -64 875 -50Q876 -33 882 -30Q885 -43 885 -62Q885 -83 884 -105Q884 -128 888 -141Q893 -122 894 -77Q895 -41 897 -27Q900 -43 900 -84V-114Q900 -161 906 -186Q908 -169 908 -127V-95Q908 -34 915 -4Q917 -12 917 -31Q917 -52 916 -73Q916 -101 923 -115Q925 -57 928 -33Q933 11 948 33Z"/>
</svg>