<svg xmlns="http://www.w3.org/2000/svg" viewBox="0 -800 1024 1024">
	<path fill="#000000" d="M650 44Q646 47 633 47Q627 47 621 45V43Q622 40 623 36H626Q640 36 650 44ZM165 -538Q156 -525 144 -524V-527Q144 -532 149 -536Q153 -539 159 -539Q163 -539 165 -538ZM502 -108Q502 -103 494 -94Q483 -81 483 -72Q469 -70 465 -70Q441 -70 428 -85Q415 -100 414 -125Q404 -157 421 -167Q430 -184 449 -194Q453 -190 459 -189H461Q492 -208 523 -226Q519 -229 511 -229Q491 -226 479 -222Q482 -226 482 -231Q481 -243 473 -253Q464 -263 459 -273H458Q455 -272 451 -271L449 -273Q455 -280 455 -289Q455 -299 448 -313Q465 -333 487 -333Q511 -333 531 -311Q550 -290 550 -264Q550 -249 540 -232Q546 -232 556 -237Q560 -307 564 -377Q564 -387 563 -398Q561 -399 558 -400Q538 -385 535 -382Q524 -371 522 -357Q514 -356 503 -349Q490 -341 482 -340Q460 -338 449 -348Q441 -355 431 -357Q421 -376 407 -396Q402 -412 408 -435Q413 -457 418 -457Q421 -459 423 -464Q426 -471 431 -472Q435 -472 435 -465V-454Q438 -454 445 -460Q456 -470 461 -470Q463 -470 467 -468L477 -477Q486 -495 500 -507Q515 -519 530 -533Q552 -555 574 -577Q579 -568 597 -568Q614 -568 617 -577Q631 -570 650 -529Q666 -504 671 -477V-475Q665 -459 650 -435Q618 -360 613 -291Q610 -221 606 -151Q603 -94 603 -93Q608 -50 613 -12V-3Q610 15 601 28Q591 40 579 54Q556 51 544 37Q532 23 517 12V10Q519 5 522 2Q505 -17 488 -22Q489 -25 494 -25Q501 -23 508 -22H509Q508 -31 489 -35Q462 -40 459 -42Q462 -44 471 -44Q486 -42 501 -41Q507 -41 509 -42Q526 -47 540 -81Q553 -112 553 -138V-145Q534 -141 510 -117ZM403 -546Q403 -520 392 -507Q390 -504 374 -493Q365 -483 356 -478Q348 -476 344 -476Q332 -476 308 -497Q289 -514 278 -517Q273 -517 265 -510Q261 -506 258 -506Q257 -508 257 -511Q257 -514 266 -529Q264 -532 261 -535Q237 -531 231 -529Q220 -525 204 -512Q189 -500 183 -497Q187 -514 208 -529Q212 -533 224 -543Q236 -554 237 -562Q237 -566 231 -568Q230 -569 225 -569Q213 -569 193 -554Q178 -543 171 -543Q179 -559 197 -566Q215 -573 217 -592Q217 -595 216 -598Q205 -598 197 -601Q205 -609 215 -618Q213 -635 195 -653Q181 -667 177 -678Q190 -665 210 -665Q225 -665 235 -675V-679Q235 -685 234 -691L235 -695H237Q244 -693 248 -689Q264 -696 281 -699Q298 -702 307 -716Q312 -714 316 -705Q319 -697 322 -694Q329 -689 336 -685Q347 -672 356 -658Q358 -658 361 -663Q364 -668 369 -668L372 -667Q370 -661 370 -650Q376 -616 395 -597Q403 -571 403 -546ZM799 -354V-351Q791 -347 782 -335Q769 -318 759 -316H753Q745 -316 737 -317Q733 -317 731 -316Q724 -314 718 -306Q712 -298 704 -295Q703 -297 703 -300Q703 -306 710 -317Q715 -325 715 -329Q715 -336 704 -340Q695 -336 685 -333Q689 -339 692 -346Q680 -358 668 -370V-373Q669 -381 669 -390Q669 -401 663 -403Q670 -409 675 -417Q680 -425 692 -427Q689 -437 685 -447Q706 -441 710 -435Q717 -442 726 -442Q738 -442 765 -418Q799 -387 799 -354ZM786 -193Q769 -190 752 -187Q729 -171 715 -141Q699 -136 682 -132Q676 -136 645 -146Q622 -154 617 -166Q617 -168 616 -171Q618 -182 620 -194Q618 -205 616 -217V-219Q618 -241 634 -260Q649 -279 660 -291Q658 -283 658 -280Q658 -264 671 -261Q696 -275 746 -296Q789 -314 803 -321Q808 -407 812 -493Q800 -490 781 -476Q761 -461 748 -461Q738 -461 725 -468Q712 -475 703 -488Q694 -501 685 -513Q673 -522 661 -531Q654 -547 646 -563Q656 -620 697 -666V-665Q695 -655 693 -645Q693 -641 694 -639Q700 -637 705 -637Q715 -637 734 -649Q756 -662 771 -663L790 -675V-676Q791 -684 797 -688Q804 -692 810 -697Q811 -698 826 -717Q836 -730 845 -733Q854 -737 872 -737Q897 -737 903 -745L901 -738Q902 -724 916 -720Q910 -714 910 -709Q910 -703 919 -699Q927 -695 937 -695L947 -696Q928 -689 923 -670Q924 -663 934 -655Q939 -663 949 -663Q950 -663 958 -661Q953 -657 946 -655Q940 -652 937 -646Q937 -635 936 -625Q936 -612 941 -606Q933 -596 933 -585Q933 -577 937 -573Q920 -557 909 -536Q899 -514 890 -493V-469Q875 -384 872 -255Q871 -230 870 -27V-9Q883 22 888 55V57Q885 85 845 115Q828 128 815 128Q799 128 772 103Q748 81 734 79V78Q734 75 737 75Q740 74 741 71Q686 51 671 48Q677 45 686 45Q706 48 725 50Q704 38 675 32Q647 26 616 21Q621 20 631 20Q671 24 710 27Q722 27 728 26Q722 15 702 11Q682 6 663 3Q669 2 681 2Q697 3 713 3Q735 3 745 -3Q761 -23 773 -91Q786 -162 786 -190ZM237 -173Q230 -234 236 -281Q212 -273 191 -249Q165 -242 147 -204Q135 -201 129 -201Q126 -201 118 -203Q109 -211 97 -237Q90 -254 84 -262Q79 -270 73 -279L72 -283Q74 -289 75 -295V-297Q74 -310 73 -324Q73 -328 74 -331Q70 -338 59 -348Q50 -357 48 -360Q50 -362 53 -362Q64 -357 74 -348Q72 -362 51 -378Q34 -391 29 -401Q41 -400 58 -384Q72 -371 81 -369Q81 -377 68 -386Q56 -394 54 -402Q70 -396 85 -385Q88 -382 93 -382H94Q95 -382 100 -387Q105 -389 116 -389Q124 -388 131 -388Q137 -388 140 -389Q155 -390 182 -404Q187 -407 192 -410Q197 -411 201 -413L205 -414Q215 -415 234 -415Q246 -422 257 -430Q262 -429 267 -429Q271 -429 274 -430H275Q280 -427 284 -425Q300 -436 316 -445V-444Q313 -438 302 -430Q297 -423 297 -414V-407Q301 -407 309 -414Q319 -422 325 -423Q310 -410 310 -398Q310 -389 318 -385Q320 -385 322 -388Q324 -391 329 -391H331L332 -390Q330 -386 328 -383L329 -380L331 -378Q334 -379 337 -380Q332 -375 332 -363Q333 -346 334 -330Q334 -323 332 -320L335 -305Q338 -300 338 -290Q338 -289 332 -262Q328 -258 322 -259Q307 -258 303 -232Q299 -207 301 -171Q307 -92 304 -52Q319 -63 334 -75Q340 -81 337 -89Q333 -98 330 -104Q320 -121 316 -136Q323 -129 331 -117Q339 -105 348 -100Q350 -108 331 -140L352 -117L323 -174L362 -122L355 -145Q361 -134 368 -126Q355 -147 351 -160Q357 -158 360 -154Q364 -146 368 -138Q375 -128 381 -118Q392 -102 395 -100Q403 -93 422 -73Q424 -70 426 -68Q431 -62 434 -54Q437 -47 443 -41Q440 -30 439 -21Q430 -18 421 -11Q413 -4 406 -9L404 -1Q405 4 397 8Q393 11 388 14L382 18Q361 36 345 54Q340 58 335 56L330 65Q321 79 305 86Q290 94 274 87Q247 78 224 73Q221 73 221 70Q220 67 217 66H215Q197 66 186 75V74Q186 66 208 58Q201 43 202 27Q202 -12 214 -24L220 -25Q215 -29 209 -33V-34Q216 -34 219 -33Q225 -40 227 -60Q230 -80 233 -100Q231 -129 237 -173Z"/>
</svg>