<svg xmlns="http://www.w3.org/2000/svg" viewBox="0 -800 1024 1024">
	<path fill="#000000" d="M428 -123Q427 -127 427 -134Q427 -143 428 -148Q418 -146 418 -136Q418 -126 428 -123ZM960 -93H957Q952 -92 947 -92H945Q947 -104 959 -105L963 -104V-102Q962 -97 960 -93ZM942 -481H941Q934 -481 934 -491Q934 -503 942 -503Q947 -503 947 -496Q947 -483 942 -481ZM248 -277V-282Q249 -311 250 -341Q250 -361 246 -365Q218 -340 215 -294Q215 -264 236 -249Q249 -256 249 -267Q249 -272 248 -277ZM317 -290Q330 -363 338 -435Q309 -416 306 -370Q303 -325 301 -278Q315 -285 317 -290ZM736 -444Q718 -469 701 -496Q684 -523 662 -545Q632 -524 618 -486Q604 -449 590 -410Q657 -420 710 -452Q713 -443 730 -443Q733 -443 736 -444ZM598 -263H597Q583 -270 574 -284Q566 -298 557 -311Q549 -303 540 -279Q531 -254 523 -246Q508 -244 493 -242Q475 -260 455 -260Q447 -260 443 -258V-260Q445 -264 446 -269V-271Q431 -284 426 -307Q422 -330 415 -352Q403 -335 399 -279Q395 -225 379 -208H375Q362 -208 350 -215H349Q346 -212 342 -209Q338 -216 325 -216Q306 -216 296 -206V-162Q307 -164 309 -174Q311 -183 316 -192Q325 -204 339 -204Q360 -204 369 -185H370Q373 -185 375 -189Q377 -193 379 -193L381 -192Q380 -186 378 -181Q378 -177 381 -174H384Q389 -174 401 -181Q409 -186 414 -186H415Q403 -168 401 -162Q405 -161 410 -155Q414 -150 419 -150Q423 -150 427 -153Q426 -155 426 -158Q428 -166 430 -175V-177Q430 -182 424 -190Q419 -197 419 -202V-203Q421 -218 435 -228Q449 -237 461 -246Q457 -242 454 -235V-234Q460 -231 468 -231Q473 -231 495 -236Q559 -249 622 -262Q621 -267 617 -267Q608 -265 598 -263ZM858 68V59Q852 52 831 38Q809 24 800 13Q783 -11 770 -41Q751 -68 746 -96V-99Q747 -115 765 -125Q780 -133 803 -134Q812 -155 819 -158Q817 -154 817 -147Q817 -128 832 -122Q850 -131 859 -139V-137Q859 -135 855 -129Q850 -121 850 -117Q850 -114 853 -111Q865 -121 879 -136Q893 -152 912 -158Q902 -146 887 -131Q872 -116 871 -101Q871 -88 889 -77Q895 -78 905 -83Q919 -90 930 -90H933Q920 -83 915 -80Q905 -73 905 -64Q905 -61 906 -59Q910 -57 913 -57H921L922 -55Q917 -48 912 -41Q910 -33 910 -27Q910 -20 912 -4Q916 -1 929 0Q945 1 948 7Q945 6 939 6Q919 7 908 21Q897 36 889 51Q886 50 880 50Q863 50 858 68ZM698 110H693Q642 110 625 76Q618 63 614 31Q609 -6 599 -21H615Q628 -60 628 -111Q628 -128 627 -137H621Q557 -137 531 -107Q535 -100 550 -88Q562 -79 567 -71Q574 -74 580 -77L582 -76Q580 -60 580 -53Q581 -28 582 -3V9Q576 15 569 20Q563 26 561 37Q527 37 516 42Q494 28 485 28Q476 28 471 36Q475 29 475 22Q475 11 464 3Q454 -4 440 -4Q426 -4 413 4Q420 -2 428 -6Q444 -15 449 -20Q444 -35 439 -50H442Q455 -51 463 -62Q471 -73 478 -83H475Q465 -82 455 -81Q445 -81 443 -89V-90Q446 -96 448 -102Q446 -108 434 -117Q433 -116 418 -92Q408 -76 397 -71Q394 -70 390 -70Q379 -72 367 -74Q365 -73 362 -73Q355 -88 340 -88Q327 -88 307 -77Q298 -72 277 -59Q221 -26 169 27Q146 51 143 54Q126 68 110 68Q101 68 94 64Q82 47 70 30Q51 13 42 -5V-10Q42 -19 47 -31Q54 -48 54 -58V-64Q76 -77 87 -101Q98 -125 123 -134Q123 -128 116 -119Q107 -107 107 -97V-92Q172 -116 236 -140Q235 -144 233 -148Q230 -149 225 -149Q212 -148 199 -147Q188 -147 183 -149Q174 -162 169 -167Q160 -176 148 -177V-187Q148 -210 138 -232Q133 -243 116 -271Q107 -286 78 -309Q54 -328 46 -338Q31 -359 27 -384Q27 -390 35 -404Q42 -417 43 -426V-429Q43 -432 37 -456Q43 -456 49 -444Q57 -429 65 -428Q64 -435 55 -452Q44 -472 43 -487Q69 -448 82 -435Q84 -437 84 -440Q84 -443 78 -452Q71 -462 71 -469V-470Q81 -466 88 -458Q94 -450 101 -443Q109 -446 116 -446Q137 -446 162 -423Q174 -430 183 -440H184Q187 -440 189 -441L192 -440Q199 -447 224 -463Q241 -474 252 -484Q246 -615 246 -617H244Q232 -615 228 -602Q226 -606 226 -608Q228 -618 233 -626Q221 -622 215 -614Q210 -605 203 -598Q213 -631 236 -656Q269 -695 287 -695Q300 -695 316 -679Q342 -656 354 -616Q330 -587 329 -547Q340 -549 348 -561Q358 -576 363 -579Q371 -583 385 -583H406Q421 -583 430 -587L432 -586Q431 -582 429 -578L430 -575Q431 -570 435 -570L439 -571L442 -570Q445 -556 459 -531Q477 -499 477 -472V-467Q461 -451 451 -429Q440 -407 428 -387Q439 -395 449 -404Q478 -454 513 -512Q548 -571 569 -636Q576 -657 576 -669Q576 -689 552 -696V-699Q552 -706 561 -710Q560 -714 558 -719L560 -722Q574 -746 585 -760Q602 -782 619 -788Q632 -793 652 -793Q671 -793 678 -788Q695 -776 710 -739Q730 -695 730 -672Q730 -652 720 -635Q787 -550 832 -475Q850 -446 857 -437Q872 -419 893 -410Q894 -439 900 -461Q904 -455 905 -440Q907 -421 911 -416Q912 -422 912 -435Q912 -461 911 -487Q911 -511 914 -521Q922 -462 929 -401Q934 -409 934 -432Q935 -457 938 -464Q944 -459 944 -450Q944 -444 943 -438V-435Q944 -409 960 -299Q960 -297 966 -271Q970 -258 973 -246Q972 -232 961 -221Q950 -210 943 -200Q904 -201 877 -220Q851 -239 832 -267Q798 -324 773 -375Q764 -367 757 -347Q748 -323 739 -317Q732 -313 719 -311Q699 -308 693 -300Q699 -288 704 -277Q752 -297 794 -306V-299Q819 -276 834 -245Q823 -221 823 -205Q823 -202 818 -201Q813 -200 812 -197Q812 -195 816 -191Q820 -187 820 -183Q787 -177 755 -173Q724 -170 708 -149Q698 -134 698 -103Q698 -76 713 2Q723 55 723 62V68Q722 79 709 94Q699 105 698 110Z"/>
</svg>