<svg xmlns="http://www.w3.org/2000/svg" viewBox="0 -800 1024 1024">
	<path fill="#000000" d="M830 -166V-161Q830 -158 823 -142Q818 -144 818 -154Q818 -166 827 -166ZM789 -518Q782 -503 766 -500Q774 -522 782 -522Q785 -522 789 -518ZM607 -169H606Q599 -172 591 -175Q590 -175 584 -173Q573 -186 558 -190Q553 -190 550 -188Q563 -186 575 -168Q586 -152 596 -149Q599 -153 609 -159Q620 -165 623 -172L620 -173Q614 -171 607 -169ZM464 -260H461Q451 -259 436 -244Q424 -232 417 -230Q407 -237 393 -239Q388 -239 386 -238V-239L387 -243V-245H378Q374 -245 374 -247Q375 -255 389 -269Q399 -281 405 -292Q401 -296 397 -301Q394 -317 384 -331Q392 -329 399 -328L400 -332Q404 -328 412 -328Q424 -329 435 -330Q443 -330 447 -326Q449 -328 457 -336Q466 -344 469 -352H467L466 -354V-359Q408 -351 335 -325Q341 -306 354 -277Q371 -240 376 -220Q471 -240 531 -250Q534 -281 559 -319Q590 -366 597 -383Q542 -381 515 -368Q540 -360 541 -329Q537 -323 520 -315Q504 -307 498 -299Q505 -297 509 -293Q518 -299 522 -299L525 -298Q510 -295 510 -280Q513 -276 518 -274Q508 -266 508 -261Q509 -258 509 -256Q506 -259 502 -259Q494 -259 488 -253Q476 -256 464 -260ZM390 -416H389Q369 -419 349 -423Q339 -423 335 -413Q325 -440 306 -440Q303 -439 300 -439Q304 -445 309 -452Q305 -462 293 -462Q267 -458 236 -446Q208 -439 199 -434Q182 -425 177 -407Q140 -413 123 -422Q95 -436 95 -463Q95 -474 99 -485Q90 -496 81 -508Q85 -560 94 -578Q125 -597 156 -614Q154 -612 143 -605V-595Q143 -589 144 -587Q190 -602 244 -616Q242 -626 242 -630Q242 -642 249 -662Q255 -679 255 -687V-693Q260 -692 264 -681Q267 -672 272 -670L274 -673Q273 -677 272 -681V-682Q277 -675 293 -672Q310 -669 315 -664Q320 -660 324 -655Q331 -645 337 -643Q414 -659 439 -667Q438 -664 433 -661Q427 -658 427 -653V-652L429 -651Q434 -653 439 -655Q442 -655 444 -653Q440 -648 437 -642L438 -638Q443 -634 449 -621Q457 -604 466 -599Q461 -591 461 -582Q461 -568 472 -555H470Q464 -555 458 -545Q458 -541 462 -538Q466 -535 466 -532Q457 -525 441 -518Q418 -508 411 -500Q416 -485 416 -477Q416 -451 389 -430V-425Q389 -420 390 -416ZM861 -624H860Q848 -623 847 -611Q845 -599 843 -592Q824 -586 780 -581Q751 -578 737 -575Q715 -570 692 -566Q687 -565 682 -565Q676 -563 651 -545Q633 -530 624 -508Q614 -487 599 -463Q582 -470 570 -470Q556 -470 547 -458Q546 -460 546 -463Q548 -471 553 -478Q549 -480 548 -480Q534 -480 529 -454Q526 -460 526 -466Q526 -472 532 -489Q538 -506 538 -516V-518Q503 -534 492 -577Q486 -581 479 -589L480 -590Q483 -589 485 -589Q480 -607 480 -624Q480 -632 482 -646Q481 -649 474 -651Q467 -654 466 -659Q498 -660 524 -667Q550 -675 578 -680V-686Q578 -713 569 -722H561Q536 -722 526 -713Q527 -723 539 -732Q546 -737 559 -745Q581 -756 603 -768Q616 -779 628 -790Q639 -802 661 -803H668Q690 -790 707 -764Q719 -745 734 -710Q739 -711 749 -716Q763 -723 773 -723Q778 -723 781 -722Q786 -729 787 -737Q793 -736 801 -728Q805 -724 809 -722Q835 -726 861 -730Q856 -726 842 -723Q822 -719 820 -710Q824 -706 827 -702Q841 -707 854 -708Q849 -705 844 -703Q838 -700 837 -693Q838 -690 846 -690H851Q848 -685 846 -674Q846 -671 850 -670Q854 -669 855 -668Q853 -658 853 -651Q853 -633 861 -624ZM870 88L839 102Q814 84 756 76Q721 71 648 68Q639 67 621 67Q576 67 565 84Q528 81 506 59Q484 37 484 4Q484 -5 485 -10Q491 -27 497 -44Q499 -63 500 -83Q502 -93 504 -104Q503 -119 497 -130Q490 -142 486 -154Q487 -159 488 -164Q488 -167 485 -175Q492 -176 498 -181Q446 -175 424 -170Q383 -160 365 -139H356Q369 -134 382 -134Q410 -134 438 -151V-149Q437 -144 435 -140V-139H436Q448 -142 460 -146Q461 -146 467 -144L468 -142Q468 -141 464 -138Q457 -133 457 -130L458 -127V-126L460 -124H464L467 -122Q467 -115 457 -67Q434 -65 400 -57Q381 -51 376 -48Q363 -41 362 -28Q393 -33 423 -38Q452 -44 474 -63Q471 -55 468 -48L469 -44L470 -43Q474 -45 477 -48L480 -46L481 -44Q477 -37 472 -31Q470 -27 470 -19Q473 -1 478 16Q359 37 282 66Q248 78 230 93Q220 104 208 118Q195 133 176 134Q163 134 143 116Q123 99 109 99H108Q104 92 104 83Q104 72 112 53Q120 34 121 26Q166 -11 190 -20Q177 -13 174 -10Q167 -3 167 9Q175 13 186 13Q200 13 228 4Q260 -6 273 -7Q274 -10 274 -16Q274 -32 253 -60Q239 -79 236 -88Q234 -96 234 -102Q234 -124 247 -133Q246 -135 246 -138Q246 -144 251 -149Q255 -153 255 -155L254 -157Q267 -167 287 -167Q281 -176 273 -200Q263 -229 251 -244Q236 -259 216 -271Q196 -283 193 -307V-312Q193 -322 197 -342Q202 -367 202 -379V-382Q204 -381 208 -375Q211 -370 216 -368Q218 -370 218 -375Q218 -382 217 -385Q223 -382 226 -377Q239 -385 252 -395Q265 -404 279 -405Q292 -405 303 -394Q328 -404 358 -406Q389 -409 418 -413Q420 -420 421 -420V-421Q421 -426 416 -429Q411 -432 411 -436Q418 -462 434 -478Q451 -495 470 -495Q488 -495 503 -479Q513 -467 522 -449V-448Q522 -444 517 -442Q514 -440 513 -439Q569 -445 635 -463Q671 -472 678 -472Q694 -472 706 -463Q719 -467 732 -472V-471Q730 -467 728 -463V-461Q734 -465 744 -476Q756 -489 763 -493Q763 -487 754 -473Q744 -457 744 -447V-442Q750 -444 755 -451Q761 -459 765 -461Q758 -448 756 -435V-431Q761 -423 765 -416Q768 -410 772 -392Q776 -372 784 -364Q774 -349 740 -330Q714 -315 703 -304Q691 -291 683 -275Q674 -259 665 -244Q640 -209 633 -178Q644 -182 662 -196Q660 -200 660 -210Q660 -217 662 -229Q676 -236 692 -236Q717 -236 735 -221Q746 -228 747 -228L753 -226Q751 -225 748 -219V-218Q758 -222 766 -227Q774 -232 787 -233H789Q769 -223 765 -210Q765 -206 769 -206Q773 -206 776 -207H777Q778 -190 779 -173Q779 -156 772 -136Q761 -136 757 -129Q752 -123 747 -116Q735 -124 719 -124Q701 -124 659 -107Q628 -98 602 -87Q575 -77 571 -41Q576 -36 586 -36Q595 -36 603 -37H658Q728 -37 763 -34Q765 -37 778 -79Q780 -75 780 -65Q780 -53 784 -50Q791 -73 794 -121Q797 -159 799 -173Q802 -163 802 -139Q802 -115 801 -92Q801 -67 806 -53Q809 -92 817 -132V-97Q817 -56 828 -43Q832 -44 833 -49Q838 -35 849 -27Q861 -20 870 -9Q876 -1 881 21Q885 38 889 47Q881 60 870 88Z"/>
</svg>