<svg xmlns="http://www.w3.org/2000/svg" viewBox="0 -800 1024 1024">
	<path fill="#000000" d="M925 -559Q932 -564 942 -564Q941 -549 923 -544Q923 -555 925 -559ZM411 -109Q400 -113 392 -121Q390 -113 390 -109Q390 -106 392 -98Q402 -99 411 -109ZM646 -29Q634 -26 631 -26Q619 -26 618 -37Q621 -40 626 -40Q637 -40 646 -29ZM642 -307Q645 -326 647 -345Q647 -359 642 -365Q618 -346 618 -323Q618 -314 624 -305Q637 -305 642 -307ZM307 -106V-108Q307 -120 313 -126Q318 -133 324 -139Q320 -144 309 -147Q295 -151 292 -156Q290 -155 288 -153Q286 -150 284 -150H283Q279 -153 274 -156Q271 -142 271 -127Q271 -107 277 -100Q284 -103 307 -106ZM180 -299V-297Q183 -275 190 -253Q199 -220 209 -217Q212 -230 212 -244Q209 -286 205 -328Q181 -315 180 -299ZM270 -259V-256Q291 -283 298 -343Q301 -364 301 -368Q301 -380 295 -385Q286 -381 278 -376Q269 -371 266 -360Q264 -354 264 -338Q267 -298 270 -259ZM587 -356V-354Q595 -345 603 -345Q611 -345 626 -361Q637 -373 645 -376Q642 -387 630 -404Q617 -422 614 -434Q594 -426 577 -417Q560 -409 559 -383Q559 -376 560 -371Q576 -360 580 -360Q580 -371 586 -371H587Q589 -369 589 -367Q588 -361 587 -356ZM360 -151Q361 -138 367 -130Q374 -122 380 -115Q384 -115 385 -118Q387 -122 391 -122Q388 -125 383 -133Q374 -151 374 -169Q378 -205 392 -239Q398 -258 402 -276Q405 -294 415 -304Q417 -298 417 -293Q417 -284 416 -275Q416 -262 421 -260Q427 -273 444 -299Q467 -335 473 -354Q467 -350 457 -348Q448 -352 438 -365Q425 -383 412 -385Q399 -362 395 -336Q391 -309 386 -282Q381 -260 374 -238Q368 -216 367 -191Q367 -175 369 -167Q361 -165 354 -160Q346 -154 346 -146Q346 -142 349 -138Q353 -138 355 -145Q357 -151 360 -151ZM813 99H806Q779 96 747 59Q735 41 722 22Q706 7 686 0Q672 -7 667 -10Q657 -17 655 -28Q694 -10 725 2L627 -59Q646 -56 681 -42Q710 -30 728 -26Q724 -34 710 -43Q714 -42 721 -42Q741 -43 752 -61Q762 -79 766 -108Q773 -169 774 -226Q775 -242 775 -283V-304Q763 -301 744 -286Q723 -269 706 -267Q700 -241 700 -211Q700 -169 710 -136Q702 -119 694 -102Q686 -85 666 -82H663Q634 -84 623 -115Q612 -148 602 -179Q626 -217 643 -304Q634 -304 629 -293Q624 -283 624 -268V-262Q615 -260 604 -259Q592 -258 589 -250Q572 -263 560 -263Q554 -245 554 -215Q554 -194 562 -140Q569 -93 569 -65Q569 -30 559 -6Q529 3 528 28Q524 24 522 14Q510 5 498 -2Q486 -10 477 -22Q473 -30 470 -39Q467 -47 457 -50Q459 -54 459 -55Q457 -58 455 -61Q455 -65 460 -67Q463 -69 464 -70Q460 -79 446 -79Q437 -78 428 -78H424Q486 -88 486 -187V-194Q470 -172 459 -141Q449 -110 417 -107H414Q410 -95 408 -81Q413 -74 418 -66Q422 -58 433 -56Q430 -48 430 -41Q431 -31 431 -22Q431 -8 424 0Q426 6 432 14Q418 16 404 18Q390 20 389 35Q384 33 379 25Q373 15 368 14Q354 23 340 32Q343 14 349 -1Q346 -5 334 -15Q303 -10 275 4Q247 17 220 28Q199 34 183 45Q170 57 160 70Q150 83 135 91Q120 90 107 82Q95 74 84 68Q66 64 57 51Q55 43 55 36Q55 14 66 4Q62 -7 62 -17Q64 -46 87 -64Q111 -82 132 -97Q132 -95 126 -88Q119 -80 119 -74Q119 -71 121 -67Q132 -70 155 -71Q188 -73 202 -79Q215 -95 215 -131Q215 -137 214 -144Q202 -143 191 -124Q178 -102 162 -102Q158 -102 155 -103Q146 -105 141 -114Q135 -123 129 -133Q117 -151 100 -195Q86 -233 79 -245Q75 -252 58 -264Q46 -273 41 -279Q30 -294 30 -325Q30 -372 50 -389Q41 -412 41 -433Q45 -430 50 -418Q57 -402 65 -402H66Q66 -409 59 -424Q50 -445 50 -457Q56 -451 62 -440Q72 -421 81 -417Q84 -418 84 -424Q84 -429 83 -435Q84 -437 84 -440Q90 -428 100 -420Q111 -413 121 -405Q138 -418 154 -432Q169 -447 192 -454Q188 -466 188 -481Q189 -497 189 -514Q186 -541 180 -571Q176 -607 171 -625Q153 -625 143 -603Q144 -671 215 -712Q225 -706 235 -701Q244 -695 259 -694Q263 -668 294 -653Q294 -649 293 -646Q293 -629 303 -621Q296 -615 289 -609Q288 -593 279 -568Q269 -542 269 -529Q269 -520 272 -511Q312 -534 352 -558Q353 -550 359 -546Q362 -547 368 -547Q378 -547 383 -543Q402 -558 424 -572Q422 -565 415 -557Q408 -548 407 -537Q407 -532 408 -529L410 -528Q411 -528 412 -531Q413 -534 417 -534H420Q417 -526 417 -519Q417 -507 424 -493Q450 -517 452 -518Q457 -515 461 -515Q476 -519 491 -524Q489 -551 486 -576Q482 -602 470 -618Q468 -651 454 -656H452Q446 -654 440 -652H438Q455 -671 475 -694Q494 -717 526 -719Q531 -718 535 -718Q555 -715 575 -687Q595 -659 595 -634V-628Q594 -620 584 -606Q573 -591 573 -580Q573 -572 575 -568Q597 -576 621 -581Q617 -576 617 -568Q617 -551 642 -520Q702 -642 735 -687Q732 -712 709 -715Q731 -740 755 -768Q779 -797 818 -799Q827 -799 831 -798Q849 -793 864 -765Q879 -737 888 -721L901 -700V-695Q901 -687 896 -652Q800 -579 738 -463Q811 -490 882 -529Q885 -527 891 -527Q904 -531 920 -535Q917 -527 914 -520H916Q934 -524 951 -537Q949 -532 941 -523Q934 -514 933 -504Q933 -499 935 -496Q943 -506 951 -510L954 -509V-507Q951 -498 948 -489Q959 -466 969 -443Q966 -435 966 -431Q966 -427 969 -421Q959 -396 948 -371Q919 -363 896 -360Q873 -356 854 -339Q832 -317 832 -241Q832 -204 833 -187Q836 -117 840 -82Q846 -27 860 0Q855 33 850 66Q845 97 813 99Z"/>
</svg>