<svg xmlns="http://www.w3.org/2000/svg" viewBox="0 -800 1024 1024">
	<path fill="#000000" d="M835 -109Q828 -104 823 -98Q821 -101 821 -106Q822 -116 828 -117Q834 -117 835 -109ZM887 -127H889Q891 -121 891 -115Q881 -113 879 -111Q877 -115 877 -117Q877 -127 887 -127ZM138 -609H130Q116 -609 115 -616Q115 -619 118 -620Q120 -621 122 -622Q136 -617 138 -609ZM906 -538V-537Q896 -539 896 -551Q896 -554 898 -558H900Q905 -556 909 -555L910 -552Q908 -545 906 -538ZM629 -410V-415Q609 -405 603 -405Q596 -405 593 -406Q592 -402 592 -393Q592 -391 598 -349Q590 -337 580 -327Q612 -329 666 -342Q703 -351 724 -354Q719 -373 710 -390Q718 -405 721 -425Q721 -431 718 -437Q702 -421 697 -412Q688 -396 688 -375Q689 -369 689 -364Q675 -358 660 -352Q629 -363 629 -410ZM900 -6H904Q899 2 889 6Q887 20 885 33Q885 38 886 40Q877 52 877 57Q877 59 879 63Q854 81 831 81Q824 81 820 80Q814 74 807 68Q799 63 787 62Q783 49 772 41Q761 32 751 21Q738 -1 724 -23Q705 -48 705 -67Q705 -79 715 -85Q718 -89 721 -94Q729 -97 739 -97Q755 -97 769 -91Q776 -92 778 -97Q780 -103 784 -107Q786 -105 786 -100Q786 -93 789 -92H797Q806 -92 821 -97V-93Q822 -84 823 -75Q835 -77 849 -92Q862 -107 874 -109Q867 -100 857 -88Q846 -76 845 -64Q845 -55 855 -48Q913 -81 935 -89Q931 -81 921 -76Q911 -72 901 -66Q883 -53 867 -38Q874 -19 882 -7H885Q893 -6 900 -6ZM312 11V14Q311 27 310 40Q310 49 312 54Q294 72 291 81Q288 81 284 80Q276 80 268 88Q262 94 259 95Q249 77 220 56Q216 10 196 -1Q210 -22 214 -90Q217 -137 223 -157Q160 -97 138 -66Q109 -50 81 9Q69 13 65 13Q51 13 41 -1Q37 -6 27 -28Q29 -38 32 -42Q27 -44 27 -53V-60Q27 -68 22 -69Q26 -76 29 -84V-87Q28 -91 26 -96V-97Q34 -112 40 -143Q47 -179 53 -190Q55 -185 55 -174Q54 -156 53 -139Q58 -133 62 -133Q69 -134 75 -140Q80 -146 85 -151Q106 -170 134 -189Q161 -212 185 -240Q208 -267 227 -288Q182 -273 164 -262Q134 -244 124 -213Q121 -212 113 -212Q97 -212 81 -219Q63 -227 60 -238Q59 -240 59 -244Q60 -252 60 -260V-265Q58 -271 52 -275Q46 -279 42 -283V-286Q42 -287 45 -299Q42 -319 38 -340V-342Q42 -357 56 -370Q63 -380 69 -390Q85 -406 102 -420Q107 -426 112 -432Q116 -439 126 -439H128V-438Q128 -435 119 -426Q106 -413 105 -405Q108 -401 111 -397L119 -403Q127 -401 134 -399Q155 -404 193 -417Q242 -434 270 -439Q258 -456 239 -460Q222 -487 198 -487Q199 -491 199 -497Q199 -511 186 -511Q166 -509 156 -493Q157 -503 165 -511Q173 -519 180 -526Q176 -536 175 -538Q171 -544 164 -544Q177 -558 174 -584Q171 -591 159 -597Q152 -600 149 -604L153 -605Q161 -602 169 -600H171Q189 -604 191 -624V-625Q191 -632 180 -650Q171 -665 171 -672V-675Q180 -666 188 -655Q195 -645 207 -637Q214 -640 220 -643V-666Q224 -662 227 -652Q230 -643 233 -640Q253 -637 269 -628Q272 -628 273 -633Q274 -638 277 -638H279Q279 -629 285 -617Q289 -609 290 -603Q309 -592 315 -578L331 -575V-569Q331 -555 342 -531Q353 -507 353 -496Q353 -492 352 -489Q372 -483 385 -471Q394 -480 401 -484H402Q400 -476 397 -468Q397 -466 399 -462L401 -460Q404 -461 407 -462H409Q409 -454 417 -449Q424 -444 426 -440Q430 -431 430 -418Q430 -405 429 -392Q429 -373 436 -365Q429 -345 426 -340Q418 -327 405 -325H403Q394 -326 384 -328H382Q366 -325 354 -311Q341 -296 331 -282Q317 -267 303 -255Q290 -242 281 -226V-223Q284 -206 288 -192Q299 -201 318 -228Q332 -248 343 -259Q340 -263 337 -268V-270Q351 -281 369 -284Q378 -284 385 -277Q388 -277 390 -281Q393 -285 397 -285H399Q399 -277 394 -270Q398 -265 402 -261Q411 -265 420 -270Q415 -260 414 -259Q419 -248 419 -232Q418 -215 417 -198V-193Q409 -183 373 -182Q340 -181 335 -166Q341 -158 350 -154Q355 -158 359 -162L361 -161Q363 -159 369 -145Q373 -135 382 -135H383Q381 -130 381 -120Q381 -100 391 -91Q386 -89 386 -75Q365 -59 337 -59Q317 -59 304 -67Q300 -64 300 -57Q300 -48 304 -45Q301 -39 301 -32Q301 -25 307 -9Q311 3 312 11ZM704 69V72Q703 83 690 97Q679 109 676 118Q640 112 624 78Q618 70 612 62Q609 53 607 27Q605 -9 595 -19H614Q623 -43 623 -109Q580 -101 546 -94Q512 -87 494 -57Q496 -58 502 -58Q521 -58 527 -45Q536 -47 541 -51Q540 -44 538 -37Q557 -4 564 14Q555 39 543 62Q534 66 523 66Q509 66 488 54Q467 42 455 42Q450 42 442 44Q447 37 451 30Q445 20 435 20Q412 25 394 38Q397 30 408 20Q423 7 424 -6Q422 -10 414 -11Q405 -13 403 -16Q415 -21 427 -26Q438 -31 442 -43Q434 -52 429 -64Q422 -71 413 -75Q404 -80 402 -91Q402 -94 401 -97Q402 -108 403 -119Q403 -133 392 -139V-146Q393 -172 411 -182Q429 -191 445 -202L444 -198V-192Q453 -187 466 -187Q491 -189 515 -192H521Q509 -204 509 -219Q510 -222 510 -226Q507 -232 500 -236Q493 -241 492 -247V-251Q495 -266 498 -281Q498 -291 486 -296Q486 -298 490 -298H497Q484 -309 470 -319H473Q479 -319 501 -308Q510 -319 527 -322Q537 -324 561 -325Q547 -338 534 -343Q530 -347 530 -356V-361Q525 -364 519 -368Q522 -378 525 -388Q525 -393 522 -399Q506 -372 489 -346Q482 -349 474 -349Q464 -349 457 -342V-348Q457 -359 451 -365Q448 -369 438 -374V-384Q438 -409 445 -423Q452 -420 457 -415Q502 -453 519 -486Q511 -482 502 -473Q494 -464 479 -463H473Q465 -472 445 -481Q420 -491 417 -506Q416 -512 416 -522V-525Q416 -541 408 -550V-552Q408 -553 411 -559Q405 -570 377 -603Q380 -603 382 -604Q396 -601 410 -598H412Q424 -602 436 -610Q450 -612 464 -615Q491 -621 532 -641Q525 -685 513 -724Q520 -723 526 -722H528Q545 -739 566 -739Q574 -739 580 -736Q595 -730 608 -699Q620 -670 621 -644L624 -643Q630 -644 635 -646V-644Q634 -637 632 -631L634 -628Q637 -629 640 -631H642Q640 -621 640 -617Q640 -598 650 -574Q644 -568 644 -556V-552Q632 -543 632 -536V-534Q604 -529 590 -515Q592 -496 614 -478Q638 -458 638 -436Q642 -441 646 -461Q650 -480 656 -487V-483Q655 -470 653 -458Q653 -451 656 -448Q683 -479 707 -514Q685 -523 674 -543Q663 -564 650 -584Q653 -598 656 -612L651 -622Q650 -626 650 -632Q650 -647 659 -654Q665 -659 681 -662Q721 -670 728 -678Q727 -692 725 -711Q723 -730 712 -739Q701 -734 697 -725Q699 -758 704 -767Q710 -773 719 -776Q735 -788 750 -805Q755 -807 763 -807Q783 -805 797 -788Q810 -771 824 -757Q828 -746 832 -735Q823 -715 823 -706V-700H825Q830 -700 840 -705Q855 -713 865 -713H867Q866 -709 858 -704Q849 -698 849 -693V-691Q850 -689 853 -689Q862 -692 870 -695Q872 -695 876 -693Q860 -685 860 -669Q860 -664 863 -658H866Q870 -658 874 -659Q870 -655 870 -647Q870 -634 879 -628Q878 -624 866 -615Q866 -612 872 -611Q876 -611 877 -609Q877 -604 871 -600Q864 -594 864 -588V-584Q845 -577 823 -570Q800 -564 798 -544V-541Q814 -516 841 -496Q859 -488 876 -480Q878 -484 878 -487Q878 -493 877 -499Q877 -508 883 -508Q885 -491 888 -475Q890 -483 890 -489Q887 -517 884 -545Q884 -551 886 -561Q891 -548 894 -515Q897 -486 901 -472Q903 -479 903 -496V-531Q906 -503 911 -476Q916 -450 931 -434Q942 -410 953 -387V-345Q934 -334 932 -327H923Q883 -329 862 -355Q841 -382 818 -406Q807 -432 790 -442Q788 -432 788 -427Q791 -404 794 -381Q794 -369 789 -363Q801 -367 818 -371L819 -369Q813 -361 803 -351Q804 -344 809 -342Q811 -341 820 -340L821 -338Q818 -336 815 -331V-330Q816 -324 822 -319Q828 -314 829 -310Q813 -294 803 -262Q797 -263 786 -263Q752 -259 715 -250Q690 -245 665 -241Q651 -238 633 -230Q610 -219 596 -217Q593 -217 593 -210L590 -212Q588 -212 584 -208Q578 -202 573 -202H571Q576 -199 582 -199Q593 -200 603 -202Q654 -212 704 -222Q794 -234 874 -247Q881 -252 882 -262Q889 -252 902 -252Q912 -252 922 -258L924 -256Q920 -251 916 -244Q923 -235 941 -235Q958 -236 972 -233Q968 -230 956 -228Q943 -226 939 -222Q943 -213 951 -213H953Q947 -210 947 -202Q947 -190 954 -181Q951 -170 947 -160Q947 -156 948 -153Q947 -151 943 -149Q938 -146 938 -142Q905 -148 864 -148Q772 -148 694 -124Q692 -117 692 -98Q692 -93 695 -42Q701 -11 706 9V12Q704 27 701 41Q703 55 704 69Z"/>
</svg>