<svg xmlns="http://www.w3.org/2000/svg" viewBox="0 -800 1024 1024">
	<path fill="#000000" d="M922 -137V-133Q915 -134 915 -145Q915 -153 918 -158H920Q925 -158 928 -155Q925 -146 922 -137ZM196 -692Q189 -681 182 -670Q178 -674 178 -681Q179 -696 188 -699Q193 -699 196 -692ZM497 -276Q521 -337 524 -361Q528 -379 528 -390Q528 -403 523 -409Q509 -379 499 -345Q490 -310 478 -277Q485 -275 492 -274Q493 -274 497 -276ZM755 -241H761Q762 -254 762 -286Q758 -290 753 -290Q759 -297 764 -305Q766 -312 766 -334Q765 -379 763 -424Q763 -444 765 -451Q752 -426 744 -394Q722 -345 721 -339Q720 -334 720 -324V-311Q720 -302 719 -298Q718 -277 716 -257Q716 -243 719 -235Q737 -238 755 -241ZM231 -433H227Q205 -430 182 -428Q175 -428 164 -431Q157 -432 144 -443Q131 -453 124 -454H122Q113 -454 102 -442Q93 -432 89 -430Q91 -438 100 -448Q109 -457 111 -465Q104 -474 96 -482Q88 -490 83 -502H80Q76 -502 71 -503L68 -502L66 -505Q68 -509 69 -514V-515Q66 -519 60 -519Q52 -518 43 -517Q47 -526 53 -535Q58 -544 59 -554V-557Q57 -566 42 -571Q30 -575 26 -580Q32 -582 36 -582Q46 -580 56 -578Q70 -588 75 -594Q83 -604 83 -619H84Q90 -618 91 -612Q105 -623 108 -628Q108 -638 103 -653Q98 -668 98 -676Q98 -681 99 -684Q104 -678 110 -660Q116 -642 123 -635Q127 -634 130 -634Q150 -634 160 -641Q163 -643 168 -654Q172 -662 179 -664L180 -660Q177 -646 174 -633Q175 -630 175 -628Q177 -619 182 -615Q187 -611 193 -607Q196 -608 205 -617Q213 -624 217 -625Q218 -623 218 -619Q218 -614 211 -607Q204 -601 204 -596Q209 -587 212 -584Q218 -578 226 -578H228Q228 -571 223 -568Q244 -527 256 -484Q240 -469 231 -433ZM938 98H928Q922 98 921 106Q888 92 854 81Q842 80 830 78Q804 67 777 56Q750 43 719 33H708Q701 33 697 32Q685 28 672 23Q651 20 629 17Q611 10 592 6Q589 7 585 8Q568 1 550 -6Q493 -21 426 -21Q399 -21 385 -20Q287 -11 244 9Q239 11 226 22Q209 36 202 36H200Q182 32 164 24L165 20Q165 16 164 12Q159 0 138 -12Q118 -23 112 -34Q106 -36 102 -36V-38Q105 -47 108 -50Q108 -52 105 -55L102 -57Q98 -55 93 -54L90 -55V-58Q90 -65 96 -66Q102 -68 108 -69Q128 -88 159 -92Q190 -96 219 -102Q204 -113 189 -124Q185 -129 177 -137Q169 -145 163 -147H160Q155 -147 148 -142Q138 -135 134 -135Q116 -136 108 -151Q99 -167 90 -183H88Q83 -183 77 -184H74Q73 -192 61 -204Q49 -217 47 -226V-232Q47 -240 51 -255Q56 -274 56 -284V-289Q61 -286 66 -283Q80 -292 97 -318Q111 -340 121 -348Q124 -347 126 -347Q135 -347 145 -359Q154 -370 161 -370H163Q171 -369 180 -353Q189 -336 196 -333Q202 -335 207 -337Q215 -311 227 -289Q240 -266 241 -233Q240 -232 235 -228Q230 -225 229 -220Q228 -218 228 -213Q231 -189 258 -170Q289 -149 297 -123Q302 -116 306 -114Q308 -113 311 -113Q321 -115 331 -118L334 -117Q335 -120 335 -126Q333 -139 330 -153V-155Q326 -165 307 -175Q291 -184 287 -193Q300 -191 309 -184Q319 -178 330 -172Q324 -184 299 -196Q276 -207 272 -216Q289 -210 306 -205Q321 -195 336 -192H337Q349 -193 365 -221Q367 -224 383 -259Q402 -307 417 -340Q371 -305 358 -289Q350 -277 343 -263Q336 -249 324 -246Q322 -245 317 -245Q307 -245 293 -257Q277 -270 265 -271Q250 -282 250 -301Q249 -320 247 -339Q242 -350 237 -362V-365Q237 -378 252 -411Q265 -436 270 -444Q280 -461 292 -468Q286 -458 286 -446Q286 -438 290 -434Q382 -478 464 -532Q467 -541 467 -562Q471 -595 475 -628Q475 -646 466 -656Q464 -657 461 -657Q456 -656 450 -655H448Q448 -658 454 -662Q459 -665 460 -670Q457 -674 453 -674Q439 -669 430 -664H429Q430 -671 436 -675Q441 -680 445 -684Q459 -702 473 -721Q486 -740 499 -760Q514 -777 542 -783Q545 -782 547 -782Q557 -777 564 -758Q571 -740 577 -728Q601 -692 607 -675Q597 -647 597 -639V-632Q563 -609 558 -538Q566 -529 573 -529Q580 -529 594 -538Q605 -545 610 -546Q606 -540 603 -526Q603 -520 608 -517Q614 -518 620 -520H623Q620 -514 620 -508Q620 -491 632 -490Q630 -480 630 -477Q640 -462 650 -445Q659 -428 660 -410Q660 -401 657 -394Q667 -382 676 -370Q689 -395 712 -455Q739 -525 758 -557Q757 -570 755 -584Q755 -592 756 -596Q767 -604 792 -631Q821 -631 836 -626Q842 -629 849 -636Q860 -648 870 -649Q856 -633 851 -610V-609Q853 -610 856 -614Q860 -619 866 -620L870 -619Q858 -607 854 -590Q854 -585 859 -578Q875 -583 891 -587Q886 -581 880 -577Q873 -573 872 -565V-563Q872 -559 878 -559Q873 -554 873 -545Q876 -527 879 -509Q879 -503 878 -500Q862 -487 862 -465V-458L863 -457Q865 -458 868 -458H870Q841 -413 841 -309Q844 -221 847 -133Q846 -130 843 -130H839L838 -129L839 -127H835Q828 -127 818 -121Q810 -125 801 -132L785 -129Q769 -163 767 -169Q757 -171 752 -171Q734 -171 717 -159Q707 -152 691 -136Q657 -153 629 -195H617Q617 -197 622 -198Q627 -199 629 -201Q634 -227 636 -258Q631 -264 631 -281Q632 -300 633 -319Q633 -326 632 -328Q619 -283 607 -236Q595 -190 577 -148Q556 -150 535 -152Q532 -151 532 -146Q532 -139 528 -139H527Q525 -141 525 -145Q526 -150 526 -155Q518 -162 506 -167Q506 -181 500 -191Q495 -200 491 -211Q497 -229 497 -238Q497 -258 476 -262Q462 -243 456 -220Q450 -196 442 -174Q429 -150 426 -123V-120Q495 -115 567 -115Q621 -112 725 -99Q809 -88 854 -85Q858 -89 860 -106Q862 -120 866 -126Q869 -123 871 -109Q872 -99 876 -94Q884 -101 884 -122Q884 -137 883 -152Q882 -164 882 -186V-199Q889 -198 889 -189V-180Q894 -135 897 -124Q898 -136 898 -149Q896 -201 894 -254Q895 -266 895 -279Q903 -252 906 -186Q909 -125 915 -100Q918 -106 918 -126Q928 -94 933 -61Q936 -53 945 -37Q956 -17 958 -6Q966 37 968 49Q965 51 957 62Q948 74 940 77Q938 85 935 93Q935 97 938 98Z"/>
</svg>