<svg xmlns="http://www.w3.org/2000/svg" viewBox="0 -800 1024 1024">
	<path fill="#000000" d="M429 -82V-79Q422 -81 415 -84Q416 -87 416 -90L415 -92Q417 -94 419 -94Q428 -93 429 -82ZM795 -388V-390Q795 -401 807 -401Q810 -401 814 -399Q812 -392 795 -388ZM494 -328H491Q486 -324 480 -320Q474 -316 473 -309Q473 -306 474 -304Q538 -318 567 -330Q539 -337 526 -337Q510 -337 503 -330Q497 -328 494 -328ZM531 -632V-628Q531 -602 552 -595Q548 -590 548 -582Q548 -574 553 -566Q547 -551 542 -503Q533 -498 507 -492Q479 -486 469 -481Q470 -470 471 -459Q469 -437 454 -424Q440 -412 420 -412Q394 -412 377 -433Q372 -433 367 -434Q364 -434 362 -433Q361 -440 356 -445Q313 -435 295 -428Q262 -416 248 -396H247Q233 -393 224 -375Q215 -357 191 -354Q174 -355 146 -373Q119 -391 112 -406Q108 -416 108 -428Q112 -440 115 -452V-457Q113 -477 111 -498Q111 -517 123 -525Q122 -530 122 -538Q123 -563 138 -575Q153 -588 167 -601Q174 -610 180 -620Q186 -631 200 -634Q191 -622 188 -605Q188 -599 192 -594Q244 -604 296 -615Q296 -622 303 -638Q309 -651 309 -659Q309 -669 301 -685Q294 -699 293 -706L295 -707H299Q314 -684 318 -681L319 -683Q316 -688 312 -696V-697L315 -698Q321 -698 328 -688Q335 -679 340 -678L341 -681Q337 -685 333 -695H334Q342 -695 349 -685Q354 -678 358 -676Q378 -674 391 -663Q404 -653 418 -644Q426 -646 437 -652Q448 -659 454 -659H459Q479 -654 498 -650H500Q511 -653 522 -656Q515 -649 515 -640Q515 -633 519 -629L523 -627Q525 -629 530 -632ZM507 46V36Q507 32 506 30Q503 22 489 12Q478 4 474 -3Q481 -3 488 3Q494 8 498 8Q491 -4 470 -23Q454 -37 448 -45H449Q460 -44 472 -36Q485 -27 497 -20Q483 -33 465 -49Q447 -64 433 -81Q444 -76 463 -62Q490 -42 509 -37Q527 -49 528 -79Q528 -109 533 -138Q541 -177 545 -217Q495 -205 479 -189Q474 -190 469 -192Q443 -171 421 -142Q411 -113 398 -87Q385 -61 379 -28Q371 -26 366 -26Q356 -26 332 -32Q309 -38 297 -38Q289 -38 281 -35L280 -39Q280 -42 285 -52Q277 -59 270 -74Q263 -88 260 -92Q255 -98 240 -106Q224 -114 220 -123Q237 -118 253 -112L254 -115Q254 -120 248 -122Q243 -125 239 -127Q230 -133 209 -141Q179 -152 168 -163Q185 -163 214 -150Q238 -139 249 -139Q256 -139 260 -141Q273 -146 287 -167Q303 -190 318 -195Q323 -209 338 -231Q352 -251 356 -261Q355 -267 346 -282Q336 -299 336 -311V-316Q334 -321 324 -329Q316 -337 312 -343H314Q326 -340 337 -338Q342 -338 344 -339Q337 -343 333 -343Q336 -346 341 -346Q347 -345 353 -345H355Q366 -349 377 -354H380Q386 -353 391 -353L395 -354Q407 -358 433 -379Q483 -419 503 -457Q502 -462 501 -467V-469H503Q517 -469 537 -477Q557 -485 569 -485Q576 -485 580 -484Q585 -495 589 -506Q588 -514 583 -520Q581 -530 579 -541Q567 -572 562 -615Q556 -619 550 -628Q550 -631 554 -632Q558 -633 559 -634Q557 -637 549 -642Q541 -647 539 -652Q548 -648 561 -648Q573 -648 595 -653Q622 -659 636 -659Q653 -682 660 -730V-733Q660 -750 651 -754Q645 -752 639 -750Q637 -749 632 -749Q627 -749 624 -748Q634 -761 650 -770Q666 -779 683 -791Q693 -800 703 -810Q713 -819 726 -820Q732 -820 739 -817Q746 -814 753 -806Q759 -798 765 -791Q785 -777 805 -764Q808 -757 812 -750Q815 -744 823 -741Q818 -738 818 -728Q818 -722 820 -712Q802 -707 801 -695Q831 -697 860 -700Q860 -697 856 -694Q853 -692 853 -688V-686Q855 -682 857 -679Q885 -686 916 -690Q913 -685 898 -679Q878 -671 878 -661Q878 -657 879 -655Q892 -658 904 -661H906Q899 -655 893 -650Q886 -645 885 -634V-631L887 -629Q891 -630 894 -631H895Q885 -618 885 -610Q885 -606 888 -603Q878 -600 878 -587Q878 -580 882 -575Q871 -573 867 -549Q824 -541 780 -534Q753 -528 722 -514Q700 -507 685 -496Q671 -476 659 -454Q640 -418 640 -400Q640 -389 644 -380Q641 -372 641 -361Q634 -354 632 -346V-343Q701 -354 721 -385Q724 -374 731 -368Q754 -379 781 -382H784Q782 -377 772 -373Q760 -368 758 -361Q760 -357 762 -354Q772 -361 784 -364V-363Q781 -356 778 -349V-348Q783 -341 790 -341Q793 -341 795 -342Q792 -335 789 -328Q794 -319 798 -311Q791 -299 784 -277Q754 -272 722 -269Q691 -265 671 -250V-246Q671 -239 667 -231Q662 -221 662 -215Q662 -211 663 -208Q656 -205 648 -202Q621 -161 621 -84Q621 -35 635 -4Q634 0 634 8Q634 16 642 51Q633 60 629 81Q626 97 623 103Q620 108 609 116Q595 126 595 136Q564 130 534 106Q532 96 520 75Q510 58 507 46Z"/>
</svg>