<svg xmlns="http://www.w3.org/2000/svg" viewBox="0 -800 1024 1024">
	<path fill="#000000" d="M217 -43Q217 -49 227 -49Q238 -49 238 -43Q237 -37 229 -37Q221 -37 217 -43ZM556 -74V-77Q570 -74 580 -61Q576 -59 575 -59Q569 -61 563 -63L559 -62Q558 -68 556 -74ZM585 -343H588Q603 -341 611 -337Q620 -346 630 -356Q640 -366 644 -377Q597 -357 585 -343ZM288 -275V-272Q321 -288 346 -296Q348 -302 348 -309Q348 -318 344 -319Q331 -308 310 -301Q290 -295 288 -275ZM352 -403V-412Q353 -438 354 -465Q354 -472 353 -479Q345 -473 341 -464Q338 -455 332 -446Q317 -429 300 -412Q283 -395 279 -367Q317 -381 344 -406Q348 -403 351 -401ZM721 -288V-290Q721 -295 722 -296Q726 -286 736 -272Q746 -258 749 -251Q751 -251 753 -254Q756 -258 759 -258L762 -257Q758 -251 758 -246Q758 -234 770 -224Q774 -257 789 -330Q801 -388 806 -426Q789 -425 759 -415Q739 -408 725 -406Q724 -404 724 -400Q725 -393 725 -386Q729 -384 740 -383Q749 -382 753 -379Q747 -379 741 -373Q739 -339 735 -334H731Q683 -334 650 -299Q659 -288 667 -284V-279Q666 -265 659 -257Q652 -249 647 -239Q642 -237 631 -237Q612 -237 596 -244Q574 -231 574 -215Q628 -235 682 -239Q689 -264 698 -291Q699 -293 699 -297V-300Q699 -313 707 -313Q707 -302 708 -292Q710 -282 718 -280Q721 -281 721 -288ZM420 -146V-123Q420 -98 427 -54Q434 -10 434 10Q434 22 433 28Q422 29 414 36Q410 40 401 52Q398 49 398 47L399 43L398 40Q376 39 363 28Q349 16 339 2Q323 -22 296 -26Q297 -30 302 -30Q307 -31 312 -31Q303 -39 286 -40Q270 -41 251 -41Q258 -49 284 -50Q312 -52 318 -61Q331 -93 334 -134Q337 -175 340 -215Q324 -209 315 -204Q301 -196 299 -185Q298 -181 298 -173Q301 -145 303 -117Q303 -112 302 -107Q300 -89 289 -80Q278 -71 270 -58Q261 -63 246 -67Q229 -72 222 -77Q217 -81 202 -103Q190 -121 176 -124Q178 -127 179 -131Q175 -138 167 -140H165Q166 -145 170 -146Q174 -147 177 -149Q180 -171 180 -200Q180 -281 143 -290V-296Q117 -309 105 -321Q87 -338 84 -364Q75 -368 71 -376Q66 -384 60 -394Q47 -409 37 -423Q27 -436 26 -451Q26 -462 36 -475Q55 -499 103 -518Q106 -530 106 -543V-553Q113 -551 115 -537Q118 -523 125 -521Q128 -525 128 -537Q127 -553 126 -569Q126 -585 136 -590Q135 -584 135 -571Q135 -532 152 -523V-524Q149 -536 145 -549Q145 -556 149 -560Q155 -550 161 -539Q167 -527 176 -521Q180 -522 188 -522Q207 -522 219 -506Q221 -510 223 -514H224Q232 -511 236 -506L331 -590Q360 -621 382 -665Q404 -676 428 -680Q438 -680 448 -674Q460 -684 464 -689L465 -686Q463 -678 460 -671L461 -668L463 -667Q467 -669 470 -672L472 -671Q470 -666 470 -657Q471 -642 477 -631Q484 -619 490 -607Q496 -605 501 -603Q504 -603 506 -605L507 -603Q504 -600 499 -592Q498 -590 498 -586Q498 -574 503 -569Q500 -565 496 -552Q493 -542 490 -538Q477 -534 463 -527Q439 -498 431 -446Q427 -422 424 -344Q420 -266 420 -233Q422 -224 423 -215Q421 -205 418 -196Q419 -171 420 -146ZM623 -35H626Q662 -31 688 -22Q678 -33 637 -42Q597 -51 585 -61Q603 -60 637 -51Q672 -42 694 -41Q698 -41 700 -44Q701 -47 703 -50Q722 -54 732 -75Q733 -77 746 -116Q736 -117 704 -140Q641 -138 571 -98Q562 -92 556 -83Q522 -68 522 -48V-44Q519 -40 510 -37Q499 -33 497 -28Q494 -32 484 -35Q477 -37 473 -40Q464 -46 455 -64Q448 -78 442 -84V-89Q442 -100 434 -120Q428 -135 427 -140Q424 -156 424 -173Q427 -246 469 -278L471 -275Q470 -269 469 -263V-262Q498 -246 505 -238Q510 -204 528 -204Q534 -204 538 -206Q520 -214 519 -242Q518 -251 511 -270Q506 -282 505 -290Q510 -288 518 -278Q523 -271 528 -268Q542 -268 547 -270Q553 -272 559 -280Q558 -284 551 -293Q543 -304 543 -314Q493 -333 488 -380Q485 -416 485 -423Q485 -437 488 -446Q490 -452 502 -460Q512 -467 515 -472Q530 -515 545 -561Q560 -608 561 -658V-665Q542 -662 532 -651Q522 -639 510 -629Q524 -652 543 -689Q542 -699 535 -702Q544 -708 557 -728Q568 -745 576 -752Q587 -759 597 -767Q601 -770 607 -778Q615 -789 621 -791Q631 -793 638 -793Q674 -793 701 -768Q709 -748 715 -725Q721 -703 737 -689Q738 -685 738 -682Q737 -664 724 -652Q711 -640 703 -627Q698 -610 692 -593Q682 -573 670 -552Q657 -530 651 -505Q720 -527 784 -541Q788 -547 792 -554Q800 -556 809 -564Q820 -574 826 -575Q829 -576 835 -576Q843 -575 850 -575Q863 -575 871 -583L872 -580Q870 -574 867 -569L868 -566Q875 -566 885 -575Q896 -585 904 -586Q904 -582 898 -575Q893 -569 893 -564Q893 -560 894 -558Q913 -583 938 -602L940 -603Q935 -595 925 -580Q915 -564 914 -551Q914 -539 931 -539H932L933 -537Q932 -533 930 -529Q939 -519 953 -515Q952 -510 952 -500Q954 -472 956 -444V-437Q949 -435 941 -433Q917 -413 898 -370Q897 -359 895 -349Q886 -322 885 -317Q881 -301 881 -296Q881 -291 882 -287Q875 -274 873 -241Q867 -220 860 -200Q859 -194 859 -181Q860 -163 860 -145Q857 -121 848 -91Q829 7 826 59Q794 77 762 115Q758 112 750 112Q742 112 737 108Q732 103 728 95Q724 87 716 85Q711 85 707 90Q704 94 700 96Q701 92 701 84Q701 58 679 49Q683 37 687 25Q675 6 650 1Q625 -5 605 -15Q609 -16 618 -16Q628 -16 649 -10Q670 -4 684 -4Q678 -13 652 -21Q630 -28 623 -35Z"/>
</svg>