<svg xmlns="http://www.w3.org/2000/svg" viewBox="0 -800 1024 1024">
	<path fill="#000000" d="M665 -224Q687 -238 697 -245L700 -266Q701 -274 701 -283Q735 -288 763 -285Q775 -283 795 -280Q822 -261 820 -262Q825 -254 824 -244Q823 -234 824 -223Q829 -206 830 -192V-190Q828 -179 819 -173Q809 -167 802 -159L798 -160Q780 -161 764 -149Q719 -147 682 -123Q646 -100 615 -77Q559 -57 513 -17Q502 -8 500 -6Q491 0 483 -1H482L370 45Q368 51 363 55Q349 67 309 89Q258 117 240 140Q233 140 225 140Q191 136 187 118Q179 121 170 124L169 122Q169 117 181 108Q177 98 164 91Q157 80 159 66Q166 45 172 23L173 19Q174 7 174 -6V-10Q183 -18 189 -24V-29Q191 -43 180 -81Q172 -106 169 -132Q181 -117 192 -82Q203 -49 211 -37Q212 -45 208 -56Q205 -65 205 -69Q205 -72 207 -74Q219 -53 230 -33Q286 -50 334 -64Q382 -77 438 -99Q487 -123 535 -149Q427 -135 390 -127Q339 -115 293 -87Q250 -90 223 -105Q221 -114 217 -123Q213 -131 199 -133Q203 -137 206 -141Q196 -153 196 -163Q196 -175 209 -182L202 -203H205Q211 -202 217 -202Q224 -205 224 -208Q223 -210 221 -211L236 -210Q293 -232 328 -249Q362 -266 414 -291Q394 -289 373 -287Q353 -291 338 -291Q307 -291 296 -281Q279 -285 270 -294Q260 -303 249 -311Q250 -314 250 -319Q250 -330 241 -349Q232 -368 232 -377V-381Q239 -397 257 -411Q287 -416 306 -428H319Q336 -449 401 -474L445 -511Q456 -522 470 -531Q458 -549 454 -559H456Q463 -556 470 -553Q467 -561 459 -565Q450 -570 444 -576Q425 -573 411 -566V-562Q411 -551 410 -541Q410 -528 416 -523Q406 -515 406 -510L407 -506Q395 -496 377 -496Q346 -496 311 -533Q283 -532 242 -516Q229 -513 229 -502H224Q212 -502 193 -489Q177 -478 168 -477H164Q146 -477 127 -490Q108 -503 105 -518Q81 -536 81 -560Q81 -569 85 -577V-578Q85 -581 88 -581Q91 -581 91 -584Q89 -591 89 -604Q89 -645 118 -684Q121 -681 121 -675Q121 -668 120 -662V-659Q124 -643 143 -643Q160 -645 177 -648L191 -646Q195 -656 210 -657Q224 -658 235 -662Q233 -670 233 -671Q233 -679 242 -693Q251 -706 251 -716Q251 -721 250 -723Q255 -722 260 -715Q265 -708 268 -708L271 -709V-712Q271 -718 266 -727Q260 -738 260 -743V-746Q265 -744 271 -729Q276 -717 285 -715Q288 -717 291 -719Q291 -722 286 -726Q281 -730 281 -735V-736H284Q289 -736 295 -729Q299 -724 302 -723Q310 -725 314 -725Q322 -725 340 -716Q349 -712 358 -708Q366 -701 372 -689Q378 -676 391 -675L406 -677Q419 -690 420 -689Q423 -690 433 -694Q435 -693 443 -697Q451 -701 452 -699Q459 -700 466 -702Q474 -699 480 -699Q488 -699 501 -704Q514 -709 523 -709H525L587 -746Q602 -762 620 -783Q638 -803 665 -808H698Q710 -808 716 -804Q724 -799 725 -786L730 -781H731Q741 -780 748 -773Q755 -765 762 -758Q760 -746 758 -735Q762 -734 765 -734Q792 -738 819 -743Q831 -743 838 -738Q849 -739 867 -744Q889 -750 900 -750H907Q873 -739 866 -721Q869 -717 872 -717Q883 -720 893 -723Q898 -723 900 -721Q885 -718 885 -707Q885 -697 895 -697Q899 -697 901 -698Q895 -688 892 -669Q890 -653 888 -648Q882 -636 873 -629Q864 -622 857 -614Q849 -615 832 -615Q735 -615 678 -582Q650 -562 622 -542Q625 -527 628 -511Q632 -495 641 -483Q637 -471 626 -463Q616 -454 608 -445Q578 -444 558 -435Q538 -427 516 -418Q486 -406 472 -399Q451 -388 441 -375Q451 -369 473 -363Q501 -355 509 -349Q566 -378 622 -408V-411Q623 -417 624 -423Q641 -425 658 -428Q663 -428 673 -426Q680 -425 689 -417Q699 -408 704 -408Q708 -408 710 -409Q709 -407 709 -404Q709 -398 716 -393Q729 -395 742 -398Q725 -393 725 -377Q728 -361 730 -345V-344Q728 -326 703 -317Q667 -304 631 -296Q529 -268 421 -209L420 -206Q423 -207 430 -207Q439 -207 441 -211H444Q448 -210 451 -209H452Q526 -224 664 -224ZM540 -578Q543 -584 546 -590Q545 -595 541 -597Q537 -599 534 -602Q497 -597 492 -579Q449 -576 448 -576Q472 -570 473 -570Q488 -573 503 -576Q527 -578 537 -578Z"/>
</svg>