<svg xmlns="http://www.w3.org/2000/svg" viewBox="0 -800 1024 1024">
	<path fill="#000000" d="M551 -268Q553 -256 557 -250Q552 -240 549 -227Q549 -223 550 -220Q547 -214 541 -208Q536 -203 535 -193Q499 -192 467 -181Q435 -171 426 -166Q408 -155 407 -131Q441 -119 563 -97Q643 -83 672 -75Q754 -47 840 -43Q849 -51 856 -99Q863 -143 869 -151Q870 -147 870 -138Q869 -101 867 -64V-55Q874 -70 880 -127Q886 -187 894 -202Q895 -191 895 -181Q895 -178 890 -73Q889 -63 888 -54Q888 -45 895 -39Q898 -151 907 -172V-146Q907 -20 944 -10V-9Q944 3 956 19Q966 32 967 39Q968 42 968 45Q964 68 960 90V93Q926 111 917 122Q905 120 894 119Q883 117 875 106H872Q865 105 857 104Q819 84 788 73Q767 67 746 62Q724 56 707 44L687 36Q683 38 675 38Q651 34 625 20Q601 13 577 6Q537 -5 496 -16Q477 -19 476 -28L433 -36Q380 -43 312 -46Q296 -46 288 -45Q276 -45 256 -44Q236 -44 223 -39Q206 -31 193 1Q176 24 172 51Q147 68 119 72Q107 72 94 65Q89 61 83 49Q75 34 67 30Q68 21 68 11Q67 -30 59 -63Q51 -97 44 -131Q52 -122 63 -98Q75 -71 86 -62V-65Q85 -78 80 -88Q87 -87 95 -79Q104 -71 112 -71Q114 -71 122 -73Q131 -85 144 -92Q162 -110 173 -120Q175 -130 183 -137Q190 -144 197 -150Q222 -176 234 -204L235 -207Q235 -209 230 -213Q224 -218 224 -222V-223Q227 -222 231 -222Q240 -222 245 -228Q249 -233 255 -237Q273 -237 282 -235Q292 -233 304 -225Q304 -216 313 -203Q322 -190 322 -183V-181Q318 -163 310 -144Q312 -141 321 -139Q329 -137 332 -135Q338 -160 338 -195Q338 -254 321 -285Q289 -278 194 -238Q158 -223 142 -213Q131 -205 120 -193Q109 -182 98 -180H92Q66 -181 58 -210Q50 -218 40 -225Q30 -231 27 -243Q26 -246 26 -252Q26 -268 48 -300Q48 -307 47 -315Q47 -345 61 -355Q72 -357 83 -360Q95 -363 113 -377Q133 -393 142 -393Q142 -388 133 -378Q125 -369 125 -364Q125 -358 135 -354Q174 -367 185 -367Q190 -366 194 -366L230 -375Q233 -385 244 -387Q254 -389 271 -393Q297 -403 301 -403Q328 -408 338 -412Q336 -421 336 -442Q331 -442 326 -443Q295 -442 269 -426Q242 -411 212 -400Q206 -405 198 -408Q196 -408 193 -405Q185 -409 174 -429Q165 -446 160 -451Q157 -456 150 -461Q140 -469 139 -473Q137 -478 137 -489Q137 -511 150 -537Q140 -559 124 -573Q108 -588 101 -613H102Q111 -612 115 -604Q119 -596 124 -589Q138 -574 156 -568Q155 -579 140 -591Q128 -601 128 -609V-610Q135 -608 144 -603Q157 -595 166 -594Q165 -597 160 -601Q153 -607 153 -613Q155 -614 158 -614Q168 -610 177 -607Q186 -608 201 -622Q213 -634 221 -636Q225 -631 231 -627Q242 -625 253 -624H257Q271 -626 284 -629Q289 -629 292 -625H307Q307 -632 313 -634Q319 -636 325 -639Q326 -642 326 -646Q326 -655 319 -672Q313 -687 312 -694V-697Q312 -717 332 -751H334L338 -750Q343 -762 345 -765Q362 -775 386 -775Q400 -775 412 -769Q432 -747 452 -723Q471 -700 473 -663Q481 -664 494 -669Q509 -675 520 -675L521 -673Q521 -671 517 -668Q510 -662 510 -660L511 -657Q513 -656 517 -656Q523 -656 535 -663Q550 -672 559 -672V-671Q559 -669 545 -655Q532 -647 525 -639Q525 -633 529 -633Q533 -633 537 -634L541 -633Q529 -618 525 -600Q525 -590 535 -585Q532 -576 532 -568Q533 -553 534 -538Q534 -531 533 -528V-527Q533 -526 529 -526Q524 -526 522 -523L521 -521Q522 -517 523 -513Q516 -513 510 -505V-503Q512 -498 513 -494V-492Q487 -489 452 -480Q423 -473 421 -444Q421 -437 422 -433Q459 -442 495 -451Q505 -455 526 -468Q545 -480 557 -484Q554 -478 546 -471Q535 -462 533 -453L535 -452Q542 -454 548 -457H550V-455Q550 -451 545 -447Q540 -443 539 -439V-435Q539 -420 554 -412Q545 -403 545 -386Q545 -376 548 -367Q531 -339 494 -332Q458 -326 424 -313Q424 -308 428 -303Q432 -298 432 -295Q432 -291 430 -289Q481 -293 513 -318Q517 -313 523 -313Q535 -317 553 -321Q551 -314 545 -307Q536 -296 536 -290V-288Q537 -286 540 -286Q544 -287 547 -289L550 -288Q550 -280 550 -272Q583 -253 615 -234Q628 -246 649 -268Q670 -291 676 -309Q661 -320 628 -343Q594 -366 587 -385L586 -388Q584 -401 582 -415L581 -417Q582 -420 582 -423Q579 -428 576 -434L575 -438L580 -439Q586 -441 587 -443V-447Q585 -451 583 -456L582 -458Q591 -454 599 -451Q607 -454 614 -457Q636 -459 670 -438Q704 -418 721 -411L722 -591Q733 -600 749 -611Q765 -623 773 -638Q777 -639 803 -655Q811 -650 815 -642Q821 -636 836 -630Q853 -623 859 -618Q868 -610 877 -586Q887 -560 896 -551L897 -549L893 -547Q895 -546 897 -539Q900 -518 889 -505Q881 -501 873 -498Q872 -495 870 -493L862 -491Q853 -482 847 -478L844 -477L819 -401Q812 -380 804 -360Q814 -359 819 -349Q822 -351 826 -357Q831 -365 838 -366Q834 -355 834 -342L835 -338Q839 -335 843 -337Q847 -338 855 -346Q860 -351 864 -352Q867 -352 869 -351Q853 -340 855 -320Q856 -313 864 -307Q885 -320 914 -330Q910 -324 893 -315Q869 -303 870 -292V-288Q875 -280 883 -271Q897 -273 910 -275Q904 -270 895 -267Q886 -264 884 -256Q886 -254 886 -252Q888 -246 885 -235Q883 -227 884 -223V-222Q890 -215 895 -205Q888 -205 883 -212L880 -211Q872 -207 868 -202Q863 -204 862 -207L834 -206Q824 -208 814 -210Q804 -220 761 -244Q751 -217 735 -177Q720 -137 717 -107Q700 -99 682 -91V-92Q679 -97 672 -97L671 -100Q670 -105 668 -110L667 -112Q644 -127 623 -146H622Q619 -142 615 -139H614Q614 -155 614 -171Q611 -183 593 -201Q578 -216 575 -226Q594 -216 609 -202Q603 -213 583 -228Q569 -239 561 -248Q574 -245 585 -236Q596 -228 608 -221Q583 -244 551 -268Z"/>
</svg>