<svg xmlns="http://www.w3.org/2000/svg" viewBox="0 -800 1024 1024">
	<path fill="#000000" d="M270 -295V-324Q254 -319 233 -296Q229 -297 225 -299L223 -298V-295Q222 -285 221 -275V-272Q233 -278 243 -285Q254 -292 270 -295ZM277 -440V-450Q278 -471 278 -492Q278 -512 273 -522Q254 -477 240 -425Q246 -426 256 -432Q269 -439 277 -440ZM259 -78V-89Q261 -123 262 -158Q262 -174 259 -189Q250 -187 238 -175Q226 -163 219 -163Q216 -163 214 -164Q201 -132 196 -91Q218 -79 245 -76Q249 -76 259 -78ZM150 -356Q144 -360 144 -372Q145 -388 146 -404V-408Q130 -428 125 -432Q112 -444 95 -448Q96 -452 97 -456V-458Q81 -476 71 -502Q71 -506 70 -510Q74 -536 94 -552Q93 -559 85 -577Q76 -598 76 -609Q82 -605 90 -590Q98 -575 106 -571Q105 -581 93 -601Q81 -621 79 -635Q86 -632 95 -615Q107 -594 118 -590V-591Q118 -597 111 -608Q106 -616 106 -621V-624L109 -625Q113 -625 114 -621Q115 -617 116 -614Q128 -605 138 -593Q155 -598 168 -598Q202 -598 215 -575Q230 -589 249 -632Q267 -672 282 -687Q287 -689 297 -689Q316 -687 334 -685Q344 -685 348 -690H349L351 -688V-681Q358 -682 366 -689Q372 -695 378 -696Q374 -690 368 -685Q363 -679 362 -671Q362 -666 363 -663Q366 -663 368 -668Q371 -673 374 -673L377 -672Q375 -659 372 -646Q372 -643 374 -635L375 -634Q378 -636 380 -638H381Q378 -630 378 -624Q378 -617 383 -601Q388 -585 388 -575Q388 -564 383 -555Q355 -534 351 -475Q346 -415 345 -363Q342 -290 339 -217V-109Q345 -107 347 -100Q348 -93 348 -88Q352 -42 360 3Q363 12 368 21Q373 30 373 42Q373 48 372 51Q369 63 360 72Q351 80 344 89H341Q313 89 297 77Q281 65 271 47Q255 15 232 -9Q232 -15 236 -25Q231 -41 217 -50Q208 -56 187 -63Q184 -55 181 -33Q177 0 176 4Q168 49 144 49H143Q136 49 127 41Q115 31 104 31V25Q104 13 94 3Q88 5 81 14Q76 20 73 22Q76 6 82 -8Q78 -14 72 -35Q67 -53 61 -62Q67 -81 67 -102Q67 -127 55 -181Q44 -228 44 -251Q51 -245 53 -236Q54 -227 55 -219Q69 -162 86 -132Q122 -192 134 -301Q135 -312 137 -317Q140 -326 149 -327ZM527 -102Q524 -118 524 -119Q513 -117 503 -113Q494 -109 493 -96V-93Q511 -96 527 -102ZM533 -171Q533 -182 530 -188Q509 -181 503 -162H505Q519 -165 533 -171ZM594 -435Q600 -452 620 -456Q640 -459 657 -467Q668 -478 680 -481H682Q684 -474 685 -467L687 -466Q692 -469 700 -473Q701 -459 711 -455Q721 -450 731 -446Q733 -442 733 -429Q740 -419 750 -419Q756 -419 762 -422Q756 -431 743 -443Q727 -458 722 -466L721 -467L717 -466L715 -467Q703 -486 682 -504Q672 -515 662 -527Q657 -529 651 -532Q645 -539 637 -550Q629 -562 618 -563Q603 -561 596 -546Q588 -531 582 -521Q566 -500 565 -498Q552 -471 539 -444Q532 -438 529 -429L530 -426H531Q545 -429 558 -432Q564 -432 567 -426ZM811 -66L815 -32Q823 -27 824 -16Q824 -5 826 6Q830 24 839 41Q836 56 832 71Q832 75 833 77Q819 93 779 118Q736 95 722 59Q705 57 702 53Q702 50 707 50H716Q708 28 656 23Q661 19 671 19Q690 21 708 23H712Q699 12 679 10Q658 7 639 3Q630 2 620 0Q610 -2 607 -11Q648 -2 688 2Q708 2 724 -7Q731 -50 731 -102Q735 -120 739 -139Q742 -191 745 -243Q747 -254 749 -265Q748 -280 722 -306H710Q703 -306 700 -309Q708 -319 723 -325Q738 -331 752 -340Q760 -347 765 -355Q771 -363 782 -364Q787 -364 789 -363Q799 -360 807 -349Q815 -351 817 -351Q831 -351 841 -336Q847 -327 854 -306Q862 -282 862 -278Q862 -276 860 -268Q850 -263 840 -243Q831 -226 827 -209Q820 -183 820 -131Q821 -117 822 -103Q822 -67 815 -59Q813 -60 811 -66ZM424 -247Q442 -253 450 -253Q463 -253 472 -245Q487 -254 503 -262Q519 -271 530 -283Q490 -303 490 -341Q490 -351 491 -356Q471 -329 454 -290Q443 -262 424 -247ZM406 -240Q395 -241 385 -243Q376 -244 372 -253Q369 -258 367 -272Q365 -291 357 -296Q351 -375 367 -408Q369 -397 369 -385Q370 -372 375 -365Q401 -381 417 -408Q434 -435 447 -466Q467 -522 502 -558L511 -587Q512 -593 527 -636Q540 -659 545 -684Q545 -693 536 -696H533Q527 -696 520 -690Q513 -684 509 -683Q528 -709 559 -746Q589 -784 631 -788H633Q650 -788 657 -777Q664 -767 671 -752Q678 -744 685 -737Q688 -731 690 -726Q691 -721 699 -719Q705 -701 710 -672V-670Q710 -638 694 -632V-628Q694 -620 689 -620H688Q738 -567 811 -503Q831 -485 849 -470Q867 -454 885 -447Q887 -446 891 -446Q901 -446 911 -461Q925 -481 930 -485Q923 -467 919 -444Q925 -451 937 -482Q946 -507 958 -510Q941 -469 940 -432L961 -482Q962 -479 962 -473Q962 -463 956 -446Q949 -426 949 -417Q950 -413 950 -410Q955 -399 962 -389V-387Q962 -381 961 -375V-372Q964 -349 967 -327Q967 -315 962 -308Q939 -294 915 -294Q895 -294 878 -305Q836 -338 811 -378L790 -399Q778 -402 768 -416Q754 -413 751 -392Q747 -364 743 -357Q725 -344 677 -329Q631 -315 614 -303Q620 -290 626 -279Q632 -268 632 -254Q632 -251 630 -239Q639 -246 645 -256Q650 -253 654 -251L657 -253Q659 -255 659 -257Q657 -264 655 -271L656 -275H657Q666 -272 675 -260Q689 -252 702 -245Q703 -234 715 -215Q727 -196 727 -184Q727 -175 717 -155Q708 -136 706 -128Q704 -114 704 -102Q704 -90 697 -77Q686 -75 674 -72Q663 -69 659 -58Q654 -67 650 -78Q645 -89 636 -90H635Q631 -146 610 -185Q598 -169 597 -144Q596 -119 595 -93Q591 -45 591 -21Q591 22 600 46Q594 55 594 70Q594 77 595 80Q587 80 581 89Q576 96 571 96H568Q549 93 531 71Q513 49 502 40Q506 37 509 34Q508 26 498 19Q489 13 487 8Q498 11 509 13Q515 12 517 5Q519 -1 522 -1H523V-21Q523 -34 524 -39Q516 -41 512 -41Q500 -41 488 -35V-27Q488 18 450 18Q446 18 441 17Q443 11 443 10Q443 4 435 1Q429 2 421 10Q412 19 403 20Q403 16 409 5Q416 -8 417 -18Q418 -23 418 -29Q417 -43 416 -58Q416 -78 427 -89Q423 -103 419 -118Q414 -128 408 -139Q392 -150 384 -169Q379 -178 381 -187Q383 -197 384 -203Q387 -218 399 -236Q403 -238 406 -240Z"/>
</svg>