<svg xmlns="http://www.w3.org/2000/svg" viewBox="0 -800 1024 1024">
	<path fill="#000000" d="M266 -292Q266 -310 265 -319Q237 -296 234 -249Q234 -218 253 -204L265 -211V-228Q266 -260 266 -292ZM343 -392V-397Q310 -387 310 -313Q310 -290 315 -233Q320 -239 328 -242Q339 -319 343 -392ZM639 -49Q638 -79 634 -106Q621 -85 611 -85H609Q611 -59 617 -40Q630 -41 639 -49ZM701 -113Q701 -130 700 -136Q681 -127 675 -118Q674 -113 674 -103Q676 -79 678 -56Q689 -60 700 -65Q701 -89 701 -113ZM626 -215Q626 -224 621 -252Q600 -250 591 -234Q586 -226 586 -217Q586 -204 588 -199Q613 -213 626 -215ZM789 -174L787 -176V-171Q771 -163 754 -156Q749 -125 747 -72Q750 -69 754 -69Q758 -69 766 -71Q772 -108 789 -174ZM705 -256V-299Q701 -301 698 -301Q686 -296 675 -282V-276Q674 -258 673 -240Q687 -240 705 -256ZM830 -355Q786 -343 766 -331Q763 -302 760 -274Q770 -277 780 -281Q786 -288 792 -292L795 -290Q788 -281 784 -270Q787 -265 790 -261Q792 -265 796 -266Q800 -266 800 -262Q794 -250 794 -246V-242Q796 -238 799 -236Q798 -228 796 -220Q796 -215 799 -212Q802 -228 805 -245Q818 -300 830 -355ZM482 -156Q480 -142 462 -137Q461 -138 461 -142Q463 -158 475 -161Q480 -161 482 -156ZM906 -574V-570Q906 -558 901 -550Q899 -551 899 -559Q899 -574 904 -574ZM450 -403Q452 -390 456 -383V-387Q458 -394 460 -401Q460 -409 464 -412Q466 -396 468 -380Q474 -364 492 -364Q495 -364 507 -370Q519 -362 530 -358Q541 -355 546 -348L566 -353Q569 -369 588 -375Q602 -379 607 -386Q595 -421 580 -446Q577 -449 574 -450Q571 -452 571 -457V-458H573Q579 -454 584 -451H586Q580 -466 568 -476Q555 -486 544 -496Q546 -497 549 -497Q554 -497 563 -490Q570 -485 574 -485Q578 -485 579 -486Q577 -493 569 -497Q563 -500 561 -503Q565 -504 574 -504Q605 -504 611 -517Q625 -517 636 -514Q647 -512 655 -494Q657 -488 658 -482Q670 -458 672 -423Q691 -435 709 -448V-454Q712 -519 715 -584V-590Q715 -624 705 -637Q688 -634 676 -629L675 -631Q675 -637 690 -649Q709 -670 716 -692Q726 -700 736 -720Q743 -735 749 -740Q756 -745 760 -745Q771 -743 779 -727Q786 -710 791 -697Q815 -640 816 -614Q816 -598 810 -586Q805 -582 799 -578Q796 -572 794 -563Q793 -555 787 -551L782 -527V-523Q780 -495 777 -467Q784 -467 810 -479Q832 -489 838 -493Q852 -503 859 -520H865Q871 -520 883 -514Q886 -516 889 -526Q893 -540 899 -541Q896 -527 893 -514Q897 -505 903 -500Q909 -495 916 -490Q918 -491 925 -496Q933 -502 940 -502V-500Q935 -490 929 -481Q933 -477 936 -477Q940 -477 949 -485Q960 -495 967 -495H968V-494Q968 -489 959 -481Q951 -473 949 -467L952 -466Q959 -469 968 -479Q980 -488 992 -489Q980 -478 965 -464Q949 -451 948 -428Q948 -418 953 -403H954Q957 -403 960 -404H962Q955 -397 955 -388Q959 -371 962 -354V-349Q959 -323 955 -298Q955 -292 956 -289Q950 -291 947 -291Q930 -291 923 -266V-265Q924 -262 926 -262Q920 -259 913 -247Q908 -238 904 -235L901 -220Q879 -138 858 -61Q836 16 820 106Q818 107 815 107Q809 107 800 100Q792 94 787 94L784 95Q782 85 779 85Q777 85 775 88Q749 37 746 22Q747 15 747 8Q733 11 719 13Q687 23 662 28Q636 34 619 64H610Q602 64 601 72H599Q583 72 566 47Q553 27 543 23Q537 10 536 10Q529 10 523 7Q528 1 536 -3Q535 -27 516 -58Q516 -78 502 -110Q490 -139 489 -158L484 -178Q472 -179 460 -196Q446 -217 440 -221Q437 -233 431 -246Q423 -264 421 -284Q420 -287 420 -293Q420 -306 430 -317Q441 -330 442 -342Q443 -349 443 -364Q443 -382 442 -392Q438 -383 433 -374Q431 -372 431 -370L426 -352Q425 -343 417 -318Q408 -288 408 -272V-266Q394 -244 392 -209Q389 -174 375 -151Q367 -157 360 -166Q357 -166 355 -162Q354 -159 351 -159H350Q347 -165 343 -169Q340 -169 336 -170Q321 -170 313 -159Q305 -148 305 -131Q305 -115 307 -103Q324 -107 336 -121Q347 -134 347 -146Q350 -149 353 -153Q380 -128 398 -121Q407 -125 419 -141Q428 -153 433 -155V-152Q433 -145 426 -132Q420 -121 420 -114V-111H421Q426 -111 434 -120Q445 -132 452 -132L456 -131Q443 -115 447 -98Q452 -76 488 -18Q498 -4 485 11Q475 23 460 33Q445 43 444 60Q430 41 412 41Q403 41 396 48Q394 32 386 23Q379 14 373 3Q362 5 340 16Q319 27 306 29L294 40Q222 65 190 94Q179 104 169 134H165Q148 134 124 106Q104 83 91 78Q79 74 68 73Q56 71 53 59V56Q54 45 61 36Q68 26 72 16Q69 6 58 -7Q42 -27 42 -40V-41Q59 -23 75 -3V-5Q75 -7 72 -12Q66 -22 66 -28Q76 -21 84 -13Q93 -5 105 -1Q120 -9 135 -18Q143 -18 145 -16Q198 -48 255 -75V-79Q256 -92 256 -105V-113Q241 -105 229 -95Q217 -98 205 -101Q198 -111 190 -120Q182 -129 168 -132L171 -142Q161 -179 139 -204Q134 -210 127 -214Q120 -219 118 -228L113 -236H111Q93 -240 74 -257Q61 -265 48 -274Q34 -283 30 -298Q30 -302 29 -306Q29 -319 37 -349Q46 -383 46 -396Q46 -411 41 -420Q42 -419 50 -404Q55 -394 66 -394H69Q64 -405 55 -420Q47 -435 46 -455Q56 -443 65 -427Q69 -420 73 -412Q76 -405 83 -404Q83 -408 78 -418Q72 -430 72 -440Q85 -425 98 -410H102Q125 -410 151 -389Q160 -379 168 -370H169Q178 -374 189 -385Q202 -393 214 -394L223 -398Q224 -416 240 -425Q255 -435 268 -445Q264 -506 259 -569H256Q252 -569 247 -563Q244 -559 240 -558V-563Q240 -571 246 -581Q236 -580 230 -568Q222 -554 218 -551Q230 -637 289 -652Q317 -651 334 -631Q350 -613 350 -586Q350 -572 343 -553Q346 -551 346 -549Q345 -544 344 -539Q344 -537 346 -533L345 -531Q344 -533 342 -535Q339 -532 339 -520V-511Q346 -530 358 -538Q370 -548 392 -550Q406 -550 413 -548Q417 -548 420 -551Q423 -555 426 -555H429Q429 -549 428 -543Q428 -539 429 -538L431 -536Q434 -537 436 -538H437Q439 -524 453 -493Q466 -465 469 -450Q475 -440 470 -432Q455 -412 450 -403Z"/>
</svg>