<svg xmlns="http://www.w3.org/2000/svg" viewBox="0 -800 1024 1024">
	<path fill="#000000" d="M729 -242Q693 -237 688 -200Q688 -196 692 -184Q710 -196 717 -205Q728 -220 729 -242ZM324 -45Q331 -37 331 -13Q331 -1 330 4V7Q331 20 332 32V37Q322 59 303 64H301Q289 62 277 60H275Q263 37 248 36V33Q248 16 221 16H216Q217 14 223 12Q230 10 231 6Q228 6 224 5Q207 8 189 10H186Q192 1 211 -6Q226 -12 230 -15Q227 -22 223 -25L224 -26Q244 -64 246 -120Q230 -109 215 -95Q194 -71 175 -42Q162 -27 149 -14Q135 -1 128 16Q109 28 102 49Q85 44 72 36Q59 28 43 20V18Q45 9 46 -1V-4Q42 -12 38 -20Q36 -29 36 -47V-82Q36 -101 34 -111Q43 -102 43 -78Q44 -56 60 -49Q106 -70 139 -103Q172 -137 209 -168H205Q175 -166 151 -143Q128 -120 107 -101Q103 -100 98 -100Q85 -100 75 -108Q72 -110 60 -125Q56 -130 41 -138Q33 -143 29 -147Q23 -155 23 -173Q23 -181 24 -185Q30 -196 35 -208Q36 -213 36 -222V-228Q36 -241 43 -248Q57 -258 77 -265Q90 -275 101 -286Q112 -298 129 -305L150 -267Q151 -277 159 -278Q167 -279 174 -280Q211 -291 248 -303V-305Q247 -308 246 -311V-313Q237 -305 221 -305Q206 -305 196 -312Q184 -320 182 -334Q183 -341 184 -348Q180 -360 175 -373Q176 -383 186 -396Q195 -407 196 -412Q235 -412 255 -429Q256 -438 257 -448Q207 -438 161 -399Q156 -398 150 -398Q108 -398 96 -439Q71 -445 71 -481Q71 -499 78 -510Q77 -514 68 -522Q57 -532 57 -541V-544Q62 -543 66 -539Q71 -534 76 -534H77V-535Q77 -545 60 -561Q48 -572 45 -579Q56 -579 67 -567Q74 -559 81 -557Q84 -558 86 -560H87V-562Q87 -568 80 -573Q74 -577 74 -582Q85 -580 94 -576Q103 -585 123 -585Q141 -587 158 -590Q164 -590 167 -589L182 -592Q193 -602 206 -604Q218 -606 234 -608Q226 -624 226 -638Q226 -664 236 -677Q233 -684 230 -692H238Q248 -692 251 -694V-696Q250 -703 243 -708Q235 -713 228 -718Q268 -718 297 -734Q347 -720 359 -673Q357 -669 357 -665Q361 -647 364 -629Q377 -631 401 -639Q421 -648 440 -651Q461 -652 481 -653Q480 -648 468 -641Q451 -631 450 -621Q451 -619 454 -619Q459 -619 464 -620H465Q459 -607 456 -584Q456 -574 462 -568Q459 -559 450 -557Q443 -555 440 -549Q446 -510 446 -509V-504Q417 -501 398 -491Q379 -482 355 -472Q354 -470 354 -462Q354 -455 355 -452Q380 -461 406 -465Q410 -465 412 -464Q405 -458 402 -450L403 -447V-445L405 -444H413Q410 -441 408 -436V-434Q413 -427 421 -424Q418 -415 418 -408Q418 -399 425 -391Q425 -389 420 -385Q416 -381 415 -377Q403 -366 390 -356Q386 -347 364 -342Q345 -338 341 -332V-318Q371 -320 392 -338Q401 -332 410 -327Q424 -334 439 -338Q432 -332 432 -325Q434 -312 449 -311H452Q450 -304 447 -298V-296Q450 -284 452 -273V-271Q450 -260 443 -251Q430 -246 410 -242Q353 -227 330 -213Q334 -209 343 -209Q356 -209 367 -217Q371 -217 371 -211Q371 -205 374 -205H380L382 -203Q385 -209 388 -214Q390 -219 398 -219Q393 -210 393 -199Q393 -171 417 -161Q413 -157 413 -150Q415 -140 416 -131L415 -127Q413 -120 401 -115Q392 -111 388 -107Q387 -95 385 -84V-82Q379 -83 379 -90Q378 -97 377 -104Q369 -106 360 -109Q359 -109 355 -107Q351 -119 324 -125Q321 -121 321 -112Q323 -98 324 -85Q324 -80 321 -76ZM618 -479Q613 -473 613 -465Q614 -460 614 -455Q614 -451 613 -448Q612 -439 598 -429Q585 -419 574 -417H570Q563 -417 549 -424Q539 -429 533 -429Q530 -429 526 -427Q521 -446 521 -448Q504 -454 489 -483Q474 -503 471 -532Q471 -539 472 -543Q473 -553 482 -566Q493 -582 493 -594Q493 -603 492 -608Q496 -608 501 -600Q507 -591 513 -591H515Q521 -593 526 -595H531Q547 -595 549 -594Q558 -590 562 -581Q566 -571 574 -562Q581 -563 590 -573Q595 -578 598 -579Q594 -563 594 -557Q594 -540 607 -510Q616 -489 618 -479ZM929 -558L902 -534L918 -530Q922 -524 925 -518Q933 -523 936 -524Q935 -518 933 -512Q940 -514 948 -530Q954 -544 960 -545Q956 -527 950 -513Q945 -498 944 -479Q947 -480 949 -485Q951 -491 957 -491Q953 -475 953 -464Q952 -458 955 -454Q957 -451 962 -452Q960 -444 960 -429Q960 -396 970 -371Q963 -330 959 -318Q952 -293 937 -280L936 -264Q922 -225 918 -178V-173Q922 -116 926 -59Q926 -44 925 -37Q924 -22 923 -8Q918 2 911 8Q902 31 890 53Q882 63 865 77Q846 92 841 99Q809 82 788 52Q789 48 789 44Q789 13 753 -8Q738 -14 726 -28Q736 -28 752 -22Q769 -16 778 -16Q770 -29 742 -43Q719 -54 711 -63L779 -44V-46Q779 -50 772 -55Q764 -60 763 -64Q767 -69 774 -66Q782 -63 786 -61Q797 -69 808 -77Q831 -260 852 -383Q843 -388 833 -388Q822 -387 810 -387Q803 -387 800 -388L786 -391Q785 -386 781 -385Q776 -383 773 -383Q707 -362 667 -333Q661 -328 652 -322Q643 -315 639 -309Q640 -305 650 -302Q661 -299 662 -295Q684 -301 706 -317Q729 -333 749 -347Q773 -358 783 -358Q792 -351 801 -351Q798 -346 798 -326Q802 -329 807 -341Q810 -348 813 -352Q806 -337 806 -310V-301Q808 -300 813 -307Q813 -276 813 -245V-238Q808 -216 803 -198Q798 -199 793 -201Q775 -180 767 -147Q759 -115 752 -82Q739 -84 728 -88Q724 -91 722 -96Q719 -102 716 -103Q706 -103 695 -92Q682 -74 668 -57Q662 -63 654 -76Q644 -93 638 -98Q630 -149 596 -246Q594 -246 589 -262Q583 -278 579 -278Q579 -239 592 -147Q605 -55 605 -16V-9Q605 10 595 36Q587 58 585 72Q581 71 576 64Q573 60 570 58Q542 64 515 72Q512 70 512 60Q512 51 510 49Q508 47 505 50Q503 53 501 53Q502 38 503 22Q503 -13 494 -77Q486 -132 485 -158L483 -182Q477 -188 475 -199Q473 -209 470 -221Q462 -239 455 -262Q453 -284 453 -292Q453 -315 464 -342Q469 -354 485 -385Q489 -394 503 -400Q514 -405 519 -405Q533 -405 553 -370L563 -398Q581 -411 588 -411Q591 -410 593 -410Q598 -419 609 -419H613Q620 -428 642 -437Q643 -462 644 -488L641 -513Q638 -604 637 -616Q631 -669 607 -687Q610 -696 614 -704Q614 -720 616 -721Q617 -723 624 -737Q645 -751 664 -771Q683 -791 708 -793Q719 -793 728 -788Q746 -756 771 -736V-733Q773 -715 778 -704Q771 -675 758 -651Q751 -636 743 -602Q737 -573 728 -491Q726 -475 726 -468Q746 -476 754 -482Q757 -483 760 -484Q764 -491 767 -498Q784 -539 798 -590Q809 -623 805 -650Q802 -669 794 -684Q846 -696 873 -736Q878 -733 879 -722Q885 -728 892 -733Q896 -720 905 -719Q915 -717 924 -714Q936 -687 948 -661Q952 -653 961 -641Q976 -621 977 -613V-612Q978 -604 970 -589Q962 -575 963 -565Q953 -565 949 -564Q945 -563 929 -558Z"/>
</svg>