<svg xmlns="http://www.w3.org/2000/svg" viewBox="0 -800 1024 1024">
	<path fill="#000000" d="M421 -204H420V-207Q420 -219 431 -219H436Q436 -215 439 -215Q428 -204 421 -204ZM928 -517V-522Q928 -545 941 -545Q942 -541 942 -538Q942 -518 928 -517ZM369 -451Q343 -430 341 -383Q340 -335 338 -288Q353 -292 355 -309Q357 -326 357 -348Q360 -405 369 -451ZM289 -263V-336Q289 -363 288 -375Q258 -350 256 -304Q256 -272 276 -255Q277 -263 289 -263ZM694 -450Q681 -467 668 -485Q655 -503 639 -517Q613 -486 587 -416Q596 -413 606 -413Q630 -414 652 -427Q674 -440 694 -450ZM780 -310H786Q779 -328 744 -376Q741 -372 741 -363Q743 -350 744 -338Q733 -333 728 -324Q723 -314 717 -304Q670 -297 653 -292Q624 -283 605 -263Q597 -265 595 -265Q591 -265 583 -263Q581 -273 565 -285Q546 -299 546 -314Q546 -320 547 -324Q535 -304 526 -280Q517 -256 501 -240Q494 -243 480 -243Q466 -243 455 -240Q440 -244 438 -280Q436 -308 430 -315Q423 -301 418 -259Q413 -220 405 -204Q403 -207 395 -211Q388 -215 386 -219H384Q380 -219 378 -216Q376 -213 374 -213Q371 -220 360 -220Q343 -220 335 -212Q333 -198 333 -186Q333 -175 335 -165Q345 -176 350 -191Q355 -206 372 -208Q375 -207 378 -207Q385 -206 394 -198Q403 -190 405 -189Q406 -190 415 -195Q412 -192 412 -186Q412 -179 418 -178Q421 -178 429 -184Q441 -192 447 -192H449Q441 -180 435 -166L444 -152Q452 -154 460 -157V-160Q464 -192 473 -226Q497 -236 525 -239Q553 -241 580 -244Q608 -250 636 -256Q697 -268 710 -273Q728 -282 742 -295Q757 -309 780 -310ZM962 -226V-225Q960 -206 944 -183Q932 -165 912 -165Q876 -169 852 -204Q845 -184 825 -168Q816 -161 786 -143Q780 -130 748 -102Q720 -77 711 -63Q703 -52 703 -37Q703 -22 713 -15Q719 -17 724 -19L728 -18L729 -16Q729 -14 726 -13Q722 -12 722 -9V-8Q722 4 727 11Q732 18 738 26Q723 27 720 42Q716 56 710 69Q694 88 670 97Q658 97 643 86Q631 79 611 51Q607 47 602 47H599Q602 43 602 38Q602 34 598 30Q588 31 578 32H574V30Q574 24 579 22Q583 20 586 17Q578 -1 565 -14Q563 -54 548 -75Q571 -85 577 -103Q586 -107 598 -107Q613 -107 628 -97Q648 -120 664 -144Q596 -142 544 -111Q515 -94 507 -94Q492 -97 481 -117Q469 -136 460 -147Q451 -145 451 -135Q451 -127 455 -123Q461 -124 467 -126Q451 -75 383 -69Q384 -72 384 -79V-84Q381 -85 376 -85Q354 -81 334 -69Q288 -50 262 -32Q226 -7 212 27Q208 30 189 57Q175 76 161 76Q150 76 140 70Q114 35 91 -2Q95 -12 97 -33Q98 -53 103 -62Q111 -68 119 -75Q131 -91 143 -109Q154 -127 171 -135Q150 -108 149 -86Q184 -97 276 -140V-142Q275 -146 274 -150H269Q256 -149 242 -148Q232 -148 224 -152Q218 -162 213 -171Q207 -180 192 -181H190Q191 -184 191 -189Q191 -215 166 -243Q142 -270 122 -272Q116 -269 110 -267H109Q103 -267 73 -282Q70 -302 64 -319Q61 -325 51 -331Q38 -340 36 -348Q35 -352 35 -360Q35 -382 46 -407Q57 -432 69 -438Q60 -454 54 -474Q62 -468 68 -459Q73 -450 85 -448Q79 -463 72 -477Q65 -491 63 -511Q70 -505 81 -484Q91 -464 98 -459L99 -463Q99 -466 94 -475Q88 -486 88 -494V-495Q94 -493 103 -480Q112 -467 118 -464H122Q148 -463 162 -450Q176 -437 189 -423Q237 -459 282 -499Q279 -569 276 -639Q266 -635 265 -634Q260 -630 260 -623Q257 -626 257 -630Q259 -640 264 -648Q254 -647 247 -637Q241 -627 236 -617Q246 -662 295 -703Q314 -718 326 -718Q334 -718 343 -712Q356 -702 370 -682Q387 -658 387 -644V-642Q386 -635 381 -630Q376 -624 372 -618V-609Q366 -594 363 -569V-565Q371 -566 372 -573Q372 -580 374 -585Q378 -593 402 -608H408Q426 -607 444 -606H445Q450 -608 454 -611H455L457 -609Q457 -604 456 -600Q456 -598 458 -596L460 -594Q464 -595 467 -597L468 -596Q470 -580 485 -546Q501 -514 501 -503V-499Q499 -487 490 -473Q481 -460 473 -447Q451 -408 451 -393Q451 -382 460 -381Q497 -442 519 -519Q540 -576 569 -665Q566 -679 559 -692V-693Q562 -699 565 -705V-706Q562 -715 554 -715Q547 -713 539 -712Q543 -727 554 -734Q566 -741 578 -749Q587 -758 596 -769Q605 -780 618 -783Q623 -784 633 -784Q670 -782 689 -753Q708 -723 722 -690Q717 -680 709 -652Q697 -628 697 -614V-612Q698 -601 709 -584Q720 -567 728 -554Q790 -466 802 -448Q825 -415 832 -407Q849 -388 873 -382Q882 -400 892 -443Q901 -479 907 -495V-486Q907 -475 901 -442Q895 -409 895 -388Q903 -407 911 -446Q920 -491 928 -508Q927 -478 919 -425Q910 -366 910 -338Q929 -410 931 -414Q934 -407 934 -389Q933 -363 932 -338Q932 -309 945 -298Q943 -293 943 -285Q943 -274 952 -256Q962 -236 962 -226Z"/>
</svg>