<svg xmlns="http://www.w3.org/2000/svg" viewBox="0 -800 1024 1024">
	<path fill="#000000" d="M258 -421V-419Q256 -416 253 -413Q254 -411 255 -409H252Q239 -408 233 -400Q227 -392 222 -385Q130 -388 129 -457Q129 -467 136 -484Q142 -499 143 -508Q144 -512 144 -519Q143 -535 142 -552Q142 -579 161 -586Q171 -577 189 -577Q203 -577 231 -586Q259 -595 271 -596Q274 -636 278 -651Q285 -678 302 -688Q302 -682 301 -676Q301 -667 305 -662Q308 -663 309 -668Q311 -674 313 -674Q322 -663 328 -650H331Q343 -649 349 -641Q354 -633 361 -626Q399 -645 422 -646Q425 -648 428 -656Q432 -665 437 -667V-665Q437 -639 465 -639Q470 -639 474 -640Q467 -627 473 -616Q489 -619 513 -632Q547 -651 579 -652Q586 -661 588 -679Q595 -702 595 -708Q595 -719 588 -727Q578 -723 573 -719Q572 -722 572 -727Q572 -745 584 -754Q611 -772 661 -779Q665 -778 668 -778Q683 -775 714 -753Q740 -735 751 -731Q748 -725 744 -721Q739 -717 739 -709V-706Q744 -714 772 -714Q779 -714 789 -712Q808 -720 827 -728Q823 -725 818 -722Q814 -719 812 -713Q815 -705 822 -698Q829 -699 846 -706L847 -704Q847 -703 842 -699Q835 -694 835 -689Q839 -685 844 -685Q857 -689 870 -694Q872 -694 878 -692Q855 -685 852 -661Q852 -648 865 -641Q860 -626 860 -622Q860 -616 862 -614Q848 -610 848 -585Q848 -576 849 -572Q817 -562 779 -559Q769 -559 764 -560L748 -551Q723 -545 673 -526Q650 -520 632 -512Q622 -506 610 -484Q596 -458 579 -454Q555 -448 536 -457Q519 -465 518 -478Q534 -488 536 -526Q510 -523 484 -511Q457 -499 419 -482Q420 -478 420 -474Q418 -453 411 -433Q402 -415 382 -412Q371 -418 356 -422Q351 -422 347 -418Q341 -428 335 -437Q328 -446 316 -448H313Q303 -448 287 -440Q275 -434 270 -433ZM722 29Q718 36 708 38Q689 36 669 34Q654 34 622 36Q526 47 430 57L364 77Q359 85 349 88Q339 91 329 94Q292 107 281 126Q265 128 258 128Q216 131 207 102Q178 97 173 66Q173 52 177 45Q172 34 165 26L164 19Q162 -9 182 -34Q188 -41 224 -75Q233 -84 239 -93Q245 -103 258 -106V-105Q258 -99 247 -86Q232 -69 231 -56H232Q236 -57 241 -64Q249 -75 254 -76V-75Q254 -72 249 -63Q243 -54 244 -48Q244 -46 246 -42Q354 -52 559 -91Q600 -97 630 -99Q662 -101 743 -103H760Q797 -106 811 -128H813Q816 -126 819 -125H820Q826 -149 832 -159Q834 -157 836 -148Q836 -137 835 -127V-123Q840 -103 871 -106H882Q881 -100 873 -95Q866 -90 865 -88Q870 -73 875 -55Q880 -36 892 -28Q889 -14 881 -9Q886 -4 886 -1Q884 9 878 17V19Q881 24 883 28V30Q880 29 875 29Q865 30 860 40Q855 49 852 57Q847 58 842 59Q824 59 805 51Q787 44 774 40H769Q757 42 756 34ZM579 -395Q662 -419 676 -430Q695 -444 716 -457Q736 -471 749 -493Q751 -492 753 -491Q752 -486 746 -476Q738 -462 738 -452Q738 -446 739 -443Q743 -446 749 -456Q754 -465 761 -466Q752 -443 752 -436Q752 -432 753 -430Q756 -418 770 -413Q784 -408 794 -403V-402Q794 -397 790 -393Q786 -389 786 -386Q787 -380 800 -376Q798 -352 795 -328Q793 -320 784 -311L779 -298Q784 -276 760 -257Q749 -250 749 -245Q746 -245 739 -237Q732 -230 729 -230Q706 -230 688 -212Q675 -227 662 -227Q653 -227 645 -218Q644 -220 644 -223Q648 -231 654 -238Q650 -248 641 -254Q631 -253 618 -238Q609 -227 603 -226V-228Q604 -237 613 -246Q623 -254 629 -262Q612 -261 604 -250Q596 -240 588 -236Q591 -255 614 -277Q633 -295 638 -307Q599 -304 499 -279Q430 -267 376 -232V-230Q376 -217 386 -213Q396 -209 397 -200Q398 -196 398 -190Q398 -167 382 -152Q368 -139 347 -139Q326 -139 311 -154H296Q278 -177 264 -177Q260 -177 255 -172Q250 -168 244 -167Q248 -176 259 -187Q255 -206 237 -206Q224 -206 193 -192Q171 -182 163 -181Q170 -190 195 -201Q218 -211 226 -220Q213 -240 195 -260Q163 -265 153 -265H145Q148 -274 172 -275Q194 -275 198 -283Q196 -287 196 -289Q198 -298 200 -308V-311Q199 -316 194 -321Q189 -326 189 -329V-331Q194 -327 202 -327Q217 -330 231 -333Q235 -333 241 -331Q246 -343 252 -353Q252 -338 263 -329Q273 -321 287 -321Q291 -321 294 -322Q302 -324 308 -329Q340 -337 376 -341Q382 -342 400 -346Q398 -347 396 -349Q396 -353 400 -353Q403 -354 405 -355Q399 -372 384 -381Q385 -383 385 -386Q385 -392 379 -399Q375 -404 375 -405H377Q399 -405 442 -433Q453 -442 467 -453Q480 -463 495 -464Q498 -463 501 -463Q518 -460 540 -434Q564 -407 578 -400Q578 -396 579 -395Z"/>
</svg>