<svg xmlns="http://www.w3.org/2000/svg" viewBox="0 -800 1024 1024">
	<path fill="#000000" d="M317 -38V-23Q317 21 332 43Q320 75 283 103Q259 95 247 77Q235 58 221 41Q226 38 231 35Q231 22 218 22Q215 22 209 24Q218 17 227 10Q236 2 239 -11Q235 -14 231 -14Q216 -10 206 -1V6Q203 36 192 58Q190 57 186 57Q173 59 166 66Q135 49 108 22Q109 16 109 4Q106 -33 103 -71V-76L95 -89Q78 -114 78 -148Q78 -156 79 -160Q82 -179 85 -199Q85 -209 83 -215Q95 -208 104 -199Q121 -204 140 -204Q153 -204 159 -203L184 -207Q185 -216 196 -221Q207 -226 218 -232Q235 -243 256 -257Q277 -272 302 -273Q319 -273 335 -265L334 -263Q337 -255 342 -248Q347 -238 351 -196Q346 -192 346 -183Q346 -179 347 -177Q325 -161 322 -127Q319 -93 316 -59ZM781 -137Q778 -121 767 -88Q755 -52 752 -28Q767 -5 801 -5Q819 -5 830 -13Q843 -22 843 -39V-42Q843 -52 842 -62Q842 -74 849 -80Q849 -43 856 -31Q858 -41 858 -46Q856 -74 853 -102Q853 -116 859 -127Q865 -76 871 -25Q877 -31 877 -48Q877 -62 876 -77Q876 -85 877 -88Q878 -86 887 -45Q893 -18 910 -14Q910 -6 916 3Q921 10 921 14Q922 18 922 25Q922 51 898 67Q876 81 844 81Q824 81 807 75L794 70H787Q752 70 729 48Q705 25 704 -13Q698 -11 692 -10Q688 -15 676 -16Q664 -17 662 -23Q660 -23 658 -20Q656 -17 655 -16Q657 -20 657 -26Q657 -48 647 -48H646Q640 -48 631 -23Q624 -3 621 10Q620 18 607 23Q588 30 575 20Q565 14 564 0Q563 -7 566 -22Q572 -36 575 -53H576Q578 -53 578 -49V-45L579 -42Q598 -69 605 -83Q618 -108 618 -130V-140Q617 -147 611 -160Q604 -176 603 -184L602 -185Q604 -196 606 -207Q606 -211 604 -215V-218Q607 -216 609 -214H610Q614 -221 622 -221Q630 -220 637 -220H642Q647 -221 671 -246Q698 -273 725 -301Q737 -316 748 -334Q758 -347 771 -347Q780 -347 790 -341Q799 -334 807 -328L809 -327Q812 -327 815 -328H816V-327Q815 -325 814 -323H815Q818 -323 824 -328Q832 -335 840 -335Q829 -328 829 -314L830 -311L831 -310Q832 -310 834 -313Q835 -317 838 -317H839Q836 -311 836 -304Q836 -287 847 -280Q846 -277 846 -271Q846 -259 853 -243Q850 -228 844 -217Q830 -212 814 -190Q801 -172 791 -166ZM815 -736Q814 -729 806 -726Q799 -722 794 -722Q798 -737 809 -737Q813 -737 815 -736ZM864 -355Q864 -346 857 -342Q856 -341 843 -337V-341Q845 -356 858 -357Q862 -357 864 -355ZM639 -716Q639 -721 652 -724Q694 -738 712 -738H721Q729 -742 731 -745Q732 -748 743 -749Q736 -744 736 -731Q736 -724 739 -718Q743 -714 749 -714Q761 -716 773 -719Q776 -719 778 -718Q777 -713 766 -707Q756 -701 756 -696L757 -692L759 -691Q763 -692 767 -694Q769 -694 771 -692Q756 -687 756 -659Q756 -648 759 -641Q746 -640 742 -620Q695 -625 693 -625Q683 -625 659 -621Q663 -593 669 -583Q671 -585 671 -591V-597Q671 -602 674 -607Q679 -593 684 -580Q685 -575 691 -566Q700 -553 700 -545Q700 -537 698 -533Q692 -518 656 -506Q623 -495 597 -495H584Q526 -495 459 -478Q443 -474 381 -454Q344 -443 306 -443Q273 -443 255 -450Q240 -462 228 -473Q216 -485 211 -505Q181 -506 173 -509Q172 -515 165 -519Q163 -520 152 -524Q133 -531 133 -545Q133 -559 150 -589Q150 -593 149 -597Q149 -613 157 -631Q167 -652 183 -666Q187 -670 208 -682V-681Q208 -679 203 -674Q197 -668 197 -664Q197 -661 200 -658Q217 -669 235 -688Q252 -707 276 -712Q243 -689 240 -667Q248 -661 269 -661Q281 -664 296 -664Q307 -664 312 -662L329 -663Q335 -673 362 -679Q367 -680 421 -690Q417 -719 382 -723Q372 -736 368 -753Q368 -757 371 -763V-764Q368 -770 364 -775Q414 -831 457 -831H465Q477 -830 499 -818Q526 -804 543 -804H547Q551 -790 558 -776Q565 -763 566 -746Q566 -742 564 -732Q544 -730 538 -711Q542 -708 550 -708Q559 -708 571 -711Q590 -715 615 -715ZM883 -103Q876 -103 876 -113Q876 -125 883 -125L886 -124Q887 -122 887 -117Q887 -109 883 -103ZM640 -606Q640 -591 648 -587V-591Q650 -604 651 -617V-621Q554 -611 513 -601Q465 -591 389 -576Q313 -561 296 -543V-542Q296 -523 320 -523Q338 -523 405 -540Q466 -555 508 -564Q545 -570 584 -577Q623 -583 640 -606ZM539 -403Q521 -405 512 -405Q490 -405 428 -394Q393 -387 391 -386Q372 -379 372 -363V-362Q495 -375 539 -403ZM695 -104Q695 -101 694 -99Q698 -82 708 -70Q712 -88 716 -126Q721 -176 728 -197L726 -200H725Q716 -191 703 -170Q686 -141 672 -133Q666 -109 664 -97Q686 -100 695 -104ZM246 -134V-138Q247 -146 248 -154Q248 -158 245 -160Q211 -150 207 -121Q216 -124 225 -129Q234 -134 246 -134ZM207 -53Q227 -57 246 -65V-67Q248 -74 250 -81Q250 -83 248 -85Q205 -80 205 -61Q205 -59 207 -53ZM597 -316V-308L598 -306H602V-302Q604 -284 606 -267Q606 -260 605 -254Q595 -241 583 -227Q571 -213 564 -197Q562 -192 563 -187Q563 -182 556 -180L549 -108Q542 -33 542 0Q543 12 543 23Q546 26 549 28Q556 25 562 22H564Q567 25 572 35Q576 44 581 47Q594 38 613 35H616Q608 41 600 48Q592 54 589 64Q593 70 606 70H614Q624 70 627 71V72L626 76Q620 82 610 82Q602 82 599 84Q589 91 589 108Q589 111 589 114Q590 116 590 118Q591 125 593 129Q591 128 582 128Q579 130 573 131Q571 131 569 131H567Q564 131 561 131Q558 130 554 129Q542 123 529 116Q525 113 519 113Q511 92 496 79Q481 66 469 50Q468 48 461 48Q482 29 484 28Q477 23 474 23Q479 -17 482 -86Q485 -155 490 -192Q470 -188 442 -169Q410 -147 409 -130Q408 -94 407 -59Q410 -33 402 14Q372 7 372 -34Q372 -72 355 -115Q361 -209 361 -210Q367 -225 368 -227Q376 -241 384 -247Q392 -249 396 -249Q401 -249 405 -247Q420 -259 436 -275Q451 -290 472 -294L488 -293Q488 -295 487 -298Q487 -302 489 -312Q485 -312 483 -313Q482 -314 483 -316Q461 -318 452 -318Q414 -318 383 -305Q345 -291 335 -291Q319 -291 302 -302Q296 -307 289 -312Q283 -318 282 -327V-329L273 -341H270Q245 -345 219 -355Q213 -361 210 -380Q207 -403 195 -407Q199 -411 206 -412Q216 -413 218 -418Q218 -420 215 -422Q211 -424 211 -425L212 -427H213Q218 -426 222 -425H224Q244 -439 266 -443L268 -442Q282 -437 296 -433H308Q351 -436 403 -446Q522 -463 553 -464Q597 -466 613 -469Q619 -470 634 -477Q648 -484 656 -484H657Q665 -484 680 -478Q691 -474 698 -473Q704 -463 710 -454Q731 -459 752 -464Q749 -460 739 -455Q724 -448 724 -440Q725 -437 725 -434H727Q732 -436 737 -438Q740 -438 742 -436Q737 -430 737 -418Q738 -407 738 -397Q738 -383 729 -374L727 -375Q709 -371 690 -367H687L677 -358Q647 -334 613 -316Q605 -316 597 -316ZM473 -129L474 -128Q485 -122 482 -111Q481 -109 470 -90Q470 -85 469 -80Q467 -70 468 -66Q468 19 447 84Q439 110 406 118Q404 118 403 117Q400 117 399 116Q398 116 394 114Q392 113 389 111Q382 107 376 105Q371 107 360 120Q367 104 367 97Q367 93 365 91L362 90Q361 90 345 84Q354 80 359 80Q358 77 357 74Q356 71 356 65Q356 58 357 55Q354 46 349 37Q344 27 335 21Q325 15 321 7Q364 25 375 27Q400 32 412 13Q435 -24 432 -60Q431 -64 432 -67V-71L431 -75L429 -76Q430 -81 430 -83L429 -84L427 -87L425 -84Q422 -80 416 -76Q414 -87 419 -99Q420 -102 421 -105Q421 -112 422 -116Q422 -124 424 -128Q430 -142 442 -147Q461 -147 469 -137Q471 -133 473 -129Z"/>
</svg>