<svg xmlns="http://www.w3.org/2000/svg" viewBox="0 -800 1024 1024">
	<path fill="#000000" d="M704 -258Q704 -262 703 -266Q705 -281 706 -297Q706 -302 704 -306Q687 -303 662 -286Q632 -266 614 -266Q610 -266 606 -267Q606 -261 605 -256Q605 -236 609 -220Q610 -218 613 -218Q622 -220 629 -226Q659 -246 704 -258ZM686 -144V-151Q608 -134 608 -88Q608 -79 611 -67Q648 -74 685 -82Q684 -88 684 -100Q685 -122 686 -144ZM715 -375V-381Q719 -448 725 -511Q684 -472 670 -454Q643 -419 635 -378H633Q632 -378 623 -375Q622 -369 620 -363Q637 -370 654 -376Q671 -382 683 -396Q690 -392 697 -388Q702 -392 709 -394Q707 -392 707 -390Q707 -381 715 -375ZM138 -524V-527Q138 -539 154 -539Q158 -539 160 -538Q151 -525 138 -524ZM235 -675V-679Q235 -685 234 -691L235 -695H237Q244 -693 249 -689Q266 -696 284 -699Q302 -702 311 -716Q317 -714 321 -704Q324 -697 327 -694Q335 -689 342 -685Q354 -672 364 -658Q366 -658 369 -663Q372 -668 377 -668L380 -667Q378 -661 378 -650Q384 -616 405 -597Q414 -568 414 -546Q414 -522 402 -507Q401 -506 383 -493Q373 -483 363 -478Q355 -476 351 -476Q338 -476 312 -497Q292 -514 280 -517Q275 -517 267 -510Q262 -506 259 -506Q258 -508 258 -511Q261 -521 268 -529Q268 -532 265 -532Q262 -532 262 -535Q236 -531 231 -529Q219 -525 202 -512Q187 -500 179 -497Q180 -506 188 -514Q197 -521 206 -529Q237 -554 237 -562Q237 -566 231 -568Q229 -569 224 -569Q211 -569 190 -554Q174 -543 167 -543Q175 -559 195 -566Q214 -573 216 -592Q216 -595 215 -598Q203 -598 194 -601Q204 -609 213 -618Q211 -635 195 -650Q177 -667 173 -678Q188 -665 208 -665Q224 -665 235 -675ZM609 43Q569 53 563 54V55Q503 57 462 107Q437 98 423 77Q409 57 396 35Q384 47 372 59Q368 61 361 61L356 65Q347 77 329 86Q313 94 296 87Q267 78 243 73Q241 73 239 70Q237 66 235 66H233Q216 66 202 75V74Q202 67 226 58Q219 44 219 27Q221 -13 232 -24L239 -25Q231 -27 217 -33L218 -34Q235 -34 238 -33Q243 -38 249 -79Q247 -86 257 -165Q256 -196 253 -227Q251 -257 256 -281Q216 -268 198 -249Q171 -242 151 -204Q139 -201 132 -201Q128 -201 120 -203Q110 -211 98 -236Q89 -255 84 -262Q78 -270 72 -279L71 -283Q73 -289 74 -295V-297Q73 -310 72 -324Q72 -328 73 -331Q68 -340 59 -347Q50 -354 45 -360Q47 -362 51 -362Q63 -357 73 -348Q71 -362 49 -378Q31 -391 26 -401Q39 -400 57 -384Q71 -371 80 -369Q81 -377 67 -386Q54 -394 52 -402Q69 -396 85 -385Q91 -382 94 -382H95Q99 -384 102 -387Q106 -389 118 -389Q126 -388 134 -388Q141 -388 143 -389Q184 -397 203 -404Q207 -402 211 -401H236Q238 -413 251 -413H253Q265 -423 279 -430Q284 -429 289 -429Q293 -429 297 -430Q302 -427 307 -425Q312 -427 323 -435Q333 -443 341 -445V-444Q337 -438 326 -430Q321 -423 321 -414Q321 -410 321 -407Q326 -408 334 -414Q344 -422 350 -423Q334 -410 334 -398Q334 -389 343 -385Q348 -388 354 -391H357L358 -390Q356 -386 353 -383L355 -380L357 -378Q360 -379 363 -380Q358 -375 358 -363Q359 -346 360 -330Q360 -323 358 -320L361 -305Q365 -298 364 -290Q364 -289 358 -262Q353 -257 347 -259Q331 -258 326 -232Q322 -207 324 -171Q332 -92 328 -52Q344 -61 360 -71Q365 -75 362 -84Q362 -85 355 -100Q344 -116 341 -132Q348 -124 356 -112Q365 -101 374 -96Q377 -104 356 -136L378 -112L348 -170L389 -118L382 -140Q389 -131 396 -122Q384 -139 377 -155Q383 -155 387 -149Q392 -141 396 -134Q403 -123 410 -113Q419 -101 426 -96Q436 -89 445 -82Q462 -98 486 -105V-104Q486 -100 478 -93Q465 -81 465 -71V-69Q465 -53 494 -53Q513 -55 531 -58V-59Q531 -63 524 -72Q517 -81 515 -88Q514 -91 514 -97Q516 -120 518 -143V-148Q517 -165 515 -183Q515 -193 522 -199L513 -259V-262Q513 -287 492 -339Q471 -391 471 -418Q472 -424 472 -430Q479 -458 493 -485Q505 -510 516 -535Q517 -519 521 -504Q535 -511 548 -515Q550 -515 556 -513Q578 -528 599 -554Q622 -572 644 -591Q653 -601 666 -613Q676 -625 683 -625L709 -643V-646Q710 -654 716 -662Q723 -671 729 -679Q740 -700 752 -723Q765 -746 787 -754Q790 -754 793 -755Q798 -754 802 -754Q812 -754 817 -759Q822 -757 827 -756Q832 -760 840 -762H842Q841 -753 839 -745V-742Q844 -744 850 -753Q859 -766 870 -766Q854 -745 854 -725Q854 -716 858 -709Q863 -712 866 -713Q870 -714 870 -719Q874 -696 882 -688Q887 -691 894 -694Q890 -678 890 -669Q890 -652 898 -639Q891 -605 866 -548Q838 -486 832 -448L814 -340Q811 -260 807 -180Q807 -138 811 -109H812Q819 -111 825 -113Q828 -113 829 -109Q840 -119 874 -121Q898 -134 898 -166Q902 -162 902 -150Q902 -139 904 -135Q910 -141 913 -161Q915 -177 919 -183Q921 -179 921 -171Q920 -158 919 -145Q919 -138 922 -132Q927 -125 939 -125H954Q962 -125 965 -124Q955 -120 952 -118Q945 -114 945 -109Q945 -106 948 -102Q949 -100 954 -100H963Q944 -86 944 -70Q944 -61 953 -57Q946 -50 946 -42Q946 -35 954 -22Q963 -7 963 -1V1Q963 10 956 24Q948 40 948 52Q932 59 915 66Q910 62 897 57Q882 51 876 45H874Q871 46 868 47H867Q858 39 828 38Q803 37 799 32H777Q726 33 687 34Q649 35 609 45Z"/>
</svg>