<svg xmlns="http://www.w3.org/2000/svg" viewBox="0 -800 1024 1024">
	<path fill="#000000" d="M688 -368H686Q675 -365 664 -362V-361Q663 -358 662 -355V-354H667Q686 -354 688 -368ZM691 -324V-326Q689 -327 687 -329V-330Q680 -325 674 -325Q670 -325 655 -330Q653 -324 650 -319Q650 -317 652 -315Q659 -321 672 -321Q685 -322 691 -324ZM659 -396H661Q674 -400 687 -404Q684 -413 678 -413Q663 -410 659 -396ZM135 -249Q134 -245 122 -233Q118 -237 118 -243Q120 -256 130 -258Q135 -258 135 -249ZM905 -692V-693Q905 -703 918 -703Q932 -703 933 -693Q918 -690 915 -690Q908 -690 905 -692ZM653 -119V-121Q643 -123 639 -123Q613 -119 588 -110Q576 -109 561 -106Q547 -104 543 -89Q587 -91 632 -105Q643 -108 646 -109Q653 -112 653 -119ZM658 -165Q659 -168 659 -173Q659 -186 646 -196Q634 -205 621 -205Q611 -205 604 -200Q585 -183 578 -162Q606 -164 634 -167Q644 -167 658 -165ZM795 119H788Q767 119 767 133Q750 123 721 122Q694 120 653 96Q640 89 617 83Q599 79 590 75H594Q601 74 607 73Q601 64 590 62Q578 59 567 56Q571 51 578 51Q586 52 593 52H598Q589 49 572 46Q545 42 537 36Q554 36 570 35Q578 35 592 37Q583 32 552 31Q509 30 498 21Q509 19 535 19H565Q613 19 632 7Q651 -7 653 -34Q653 -42 650 -48Q639 -48 628 -49Q569 -49 529 -25Q487 0 475 48L441 71Q413 68 387 62Q361 56 357 28Q347 24 344 16Q342 9 337 1Q343 -11 348 -24Q346 -28 338 -34Q333 -37 330 -41H346Q341 -56 305 -62Q342 -63 369 -82Q387 -95 414 -127Q421 -136 437 -150Q450 -161 455 -167Q470 -185 485 -203Q500 -222 518 -237Q521 -231 521 -226L520 -222Q523 -222 526 -226Q530 -230 534 -230H537L538 -229Q537 -225 536 -222L537 -219H542Q546 -219 560 -212Q569 -219 580 -223Q583 -223 585 -222Q587 -230 588 -239Q576 -242 567 -254Q566 -259 566 -268Q570 -308 588 -332Q574 -339 561 -348Q549 -357 530 -360Q552 -404 583 -440Q614 -476 626 -533Q595 -529 563 -524Q531 -519 506 -503Q477 -481 443 -422Q453 -426 473 -451Q496 -480 512 -485Q521 -489 533 -489Q552 -489 563 -478Q578 -460 578 -444V-443Q577 -433 563 -419Q550 -406 547 -398Q544 -399 539 -399Q531 -399 525 -392Q523 -390 517 -380Q540 -311 542 -263Q529 -254 517 -242Q505 -230 490 -228H486Q468 -228 453 -249Q446 -259 432 -288Q441 -301 444 -320Q436 -315 429 -315Q407 -315 404 -344V-349Q390 -341 379 -303Q362 -291 354 -269Q345 -246 334 -224Q322 -205 310 -186Q289 -148 267 -109Q246 -70 232 -27Q225 -18 211 8Q195 39 182 51Q182 54 176 84Q158 91 139 98Q122 85 105 80Q105 57 84 36Q85 33 85 26Q85 16 77 -1Q69 -18 69 -26Q74 -38 83 -53Q93 -76 100 -136Q107 -192 116 -218V-213Q113 -177 109 -142Q109 -123 114 -113Q116 -124 117 -137Q117 -150 125 -156V-149Q125 -123 138 -111Q142 -117 146 -123Q149 -129 157 -131Q160 -149 182 -165V-168Q182 -170 184 -176Q219 -223 284 -337Q329 -415 358 -459H355Q350 -459 341 -455Q330 -450 324 -450H321Q311 -451 304 -460Q298 -468 292 -476Q275 -486 257 -495Q239 -504 237 -523V-525Q243 -545 258 -567Q269 -587 280 -608Q306 -621 332 -635Q358 -650 384 -659Q380 -653 368 -642Q358 -633 354 -627Q366 -624 379 -624Q393 -624 426 -631Q459 -638 478 -638H487Q494 -646 509 -646Q523 -645 536 -648Q529 -675 513 -692Q497 -709 483 -726Q498 -753 522 -770Q547 -787 569 -806Q601 -805 620 -791Q640 -777 658 -762V-756Q658 -747 663 -734Q667 -723 667 -718V-714Q666 -709 657 -700Q645 -689 645 -679Q645 -674 646 -672Q722 -687 803 -714L802 -710Q802 -706 811 -703Q817 -701 819 -699Q834 -712 851 -722V-721Q851 -717 844 -711Q834 -703 834 -695Q835 -692 835 -690Q839 -686 846 -686Q865 -690 884 -694Q892 -694 896 -692Q884 -688 871 -684Q856 -681 855 -670Q855 -665 856 -663H859Q870 -664 881 -665Q866 -659 861 -645Q861 -638 875 -638Q861 -630 856 -617Q856 -614 855 -611Q856 -603 857 -595Q857 -587 851 -581Q826 -560 782 -560Q737 -561 700 -548Q708 -526 714 -516L700 -482H702Q708 -483 714 -485Q715 -516 729 -536Q742 -533 755 -530Q759 -530 762 -531Q761 -529 761 -526Q761 -522 765 -517Q771 -510 771 -504Q795 -510 819 -516V-515Q818 -512 816 -510Q826 -513 836 -517Q839 -517 841 -516Q831 -515 831 -502Q831 -489 840 -489Q842 -489 846 -491Q844 -429 801 -426H798Q785 -427 772 -428Q761 -428 755 -423Q757 -416 771 -413Q780 -411 783 -407V-390Q775 -387 767 -383Q760 -380 757 -372H760Q770 -375 779 -378H780Q789 -375 798 -372L804 -375Q795 -359 795 -352V-350Q784 -346 771 -344Q758 -343 757 -329V-327Q762 -326 771 -326Q792 -327 809 -335Q826 -343 841 -350Q841 -349 838 -343Q843 -343 845 -348Q846 -353 849 -356L850 -354Q850 -350 847 -344Q862 -331 867 -323Q876 -309 876 -290Q876 -281 875 -275Q864 -267 859 -254Q834 -260 808 -266Q802 -263 794 -263Q776 -265 757 -267Q747 -267 740 -263Q773 -249 785 -242Q808 -228 820 -209Q817 -196 805 -172Q787 -136 787 -113Q787 -108 789 -96Q786 -89 783 -83Q783 -82 786 -64Q785 -56 780 -52Q780 -42 779 -32Q780 3 786 31Q792 58 798 87Q798 89 794 95Q797 100 797 105Q797 107 795 119Z"/>
</svg>