<svg xmlns="http://www.w3.org/2000/svg" viewBox="0 -800 1024 1024">
	<path fill="#000000" d="M346 16Q343 8 330 -4Q321 -13 316 -19Q315 -15 310 -11Q328 3 346 16ZM836 -581Q828 -575 815 -573Q813 -577 813 -579Q815 -589 827 -590Q831 -590 834 -587Q835 -584 836 -581ZM861 -175V-171Q858 -158 851 -148Q847 -154 847 -163Q847 -177 855 -177Q857 -177 861 -175ZM623 -526Q613 -529 605 -529Q589 -529 581 -515Q584 -514 587 -514Q608 -517 623 -526ZM338 -368Q298 -358 238 -316Q246 -313 250 -313Q264 -316 276 -326Q312 -344 338 -368ZM540 -153V-155Q540 -162 552 -164Q534 -171 518 -181Q507 -178 493 -165Q483 -155 476 -152Q478 -149 479 -146Q472 -143 465 -140Q457 -136 454 -128ZM593 -94H597Q608 -94 619 -84Q622 -81 633 -67Q630 -59 627 -52Q599 -50 553 -33Q501 -14 469 -14Q457 -32 418 -32H411Q414 -36 420 -37Q427 -39 429 -40Q422 -43 410 -43Q396 -43 387 -40Q390 -45 396 -46Q402 -48 408 -49Q437 -58 488 -68Q541 -81 593 -94ZM778 -230V-224Q776 -205 755 -184Q738 -167 735 -155Q717 -161 699 -167Q680 -173 674 -191Q664 -199 655 -200Q657 -206 657 -209Q656 -230 639 -236Q656 -240 668 -254Q677 -265 685 -285Q675 -281 649 -259Q625 -238 613 -238H611Q599 -239 589 -255Q573 -280 572 -281Q556 -292 543 -303Q547 -305 550 -305Q556 -305 564 -299Q557 -309 513 -338H519Q547 -333 575 -328Q603 -329 638 -341Q666 -354 685 -369H683Q666 -366 648 -354Q625 -340 610 -340H609Q604 -340 595 -345Q588 -349 584 -349Q579 -349 575 -344L574 -346Q577 -349 580 -353Q564 -354 547 -356Q553 -360 562 -362Q555 -373 540 -376Q526 -380 512 -385Q584 -393 611 -412Q586 -413 563 -437Q541 -460 541 -483V-484Q543 -502 558 -509Q574 -516 581 -533Q578 -536 575 -536Q569 -536 564 -529Q559 -522 558 -515Q554 -520 554 -528Q554 -536 560 -551Q565 -564 566 -569Q543 -577 531 -596Q520 -614 504 -632L507 -631L510 -632Q505 -642 505 -659Q506 -669 506 -679Q498 -682 492 -689H496Q529 -690 557 -697Q585 -704 605 -708Q603 -733 593 -743H586Q576 -743 549 -734Q558 -752 584 -762Q611 -773 632 -786Q647 -802 670 -809Q673 -810 680 -810Q706 -810 727 -786Q745 -766 757 -732Q780 -740 806 -745Q811 -750 814 -759Q826 -747 857 -747Q865 -747 883 -749Q880 -745 865 -742Q849 -739 845 -732Q848 -728 855 -728Q867 -730 879 -732Q875 -729 869 -728Q864 -726 863 -720V-719Q864 -716 871 -716H876Q875 -710 873 -705L874 -701L876 -699L880 -700L882 -698Q879 -690 879 -683Q879 -670 886 -660Q871 -650 871 -641Q871 -639 873 -635Q786 -615 732 -608H720Q704 -608 697 -605Q670 -594 657 -572Q645 -550 629 -530L627 -527Q674 -539 715 -570H724Q747 -570 769 -561Q797 -571 802 -572V-571Q802 -569 797 -562Q790 -552 790 -548Q790 -545 793 -542Q803 -550 811 -554L814 -553Q814 -551 807 -545Q800 -540 800 -535Q800 -534 802 -530L804 -528Q808 -530 812 -532H814Q812 -526 812 -523Q812 -514 819 -502Q825 -491 826 -488Q822 -477 817 -467Q787 -450 776 -415Q767 -388 767 -340Q768 -323 768 -307Q773 -268 778 -230ZM854 16H849Q841 15 820 8Q795 -2 769 -21Q742 -40 716 -58Q689 -79 666 -100Q643 -121 620 -130Q622 -122 623 -115Q600 -101 552 -92Q502 -83 480 -70Q475 -71 461 -77Q445 -84 434 -84Q430 -83 426 -83Q431 -87 435 -92Q427 -110 427 -112Q419 -107 349 -47Q332 -36 322 -26Q329 -15 341 -8Q350 0 359 7L360 5Q360 0 355 -5Q365 -1 376 6Q387 14 402 16H405Q419 16 470 2Q590 -30 670 -62Q675 -66 683 -76Q684 -64 698 -62Q702 -44 706 -26Q711 -8 722 2Q717 16 697 21Q678 26 657 31Q631 41 605 50Q554 68 503 85Q485 94 467 102Q442 108 419 114Q397 120 377 135Q362 129 349 117Q334 102 332 87Q333 83 334 79Q330 69 326 59Q321 38 313 29Q322 34 324 34Q327 34 328 31Q328 28 331 28Q323 6 307 -8Q270 17 233 64Q208 61 185 29Q181 31 179 35L177 33Q179 31 180 28Q169 13 165 -6Q165 -16 173 -23Q173 -34 172 -46Q172 -73 185 -77Q182 -69 182 -62Q182 -48 189 -38Q253 -74 311 -115Q368 -156 427 -196Q415 -204 396 -206H390Q393 -213 396 -221Q374 -208 355 -188Q341 -172 326 -152Q311 -132 296 -128H293Q282 -128 269 -142Q257 -155 247 -156Q246 -167 232 -181Q220 -193 220 -201Q220 -206 221 -208Q220 -214 212 -215Q215 -217 221 -217Q226 -217 229 -219V-224Q229 -234 222 -243Q216 -251 215 -254Q242 -237 272 -233Q281 -233 291 -236Q315 -244 338 -264Q362 -284 382 -302Q396 -312 398 -314Q406 -321 406 -329Q393 -327 382 -318Q372 -308 362 -299Q343 -291 317 -268Q293 -247 282 -241Q272 -244 259 -257Q244 -272 230 -274Q236 -279 244 -281Q238 -297 230 -311Q212 -313 201 -322Q189 -331 177 -341Q175 -340 172 -340Q163 -340 158 -348Q153 -356 153 -366Q153 -386 164 -392Q150 -399 150 -414Q150 -425 158 -441Q196 -448 257 -467Q326 -489 359 -495Q355 -503 346 -504Q337 -504 322 -506Q323 -509 326 -512Q331 -516 331 -519V-520Q329 -523 326 -527Q288 -520 253 -512Q218 -504 199 -481Q163 -485 147 -492Q120 -503 120 -526Q120 -533 123 -542Q111 -557 103 -563V-569Q103 -605 125 -626Q141 -641 176 -653L177 -651Q176 -648 171 -643Q166 -638 165 -631V-629Q216 -641 266 -653Q264 -657 264 -665Q264 -672 271 -687Q277 -699 277 -707Q277 -712 276 -714H281Q285 -713 287 -706Q289 -698 295 -698H296L297 -699Q296 -703 294 -708Q300 -701 308 -701Q315 -701 328 -699Q337 -697 349 -686Q360 -676 364 -676Q367 -675 370 -675Q392 -678 414 -685Q448 -693 463 -696Q461 -693 456 -691Q448 -688 448 -682L451 -680Q457 -682 462 -685Q465 -685 467 -683V-682Q467 -679 464 -678Q460 -676 460 -673V-671Q466 -668 473 -655Q480 -642 488 -639Q484 -638 484 -632V-624Q484 -619 482 -617Q484 -614 495 -607Q483 -605 482 -593Q482 -586 488 -582Q483 -578 463 -573Q439 -567 432 -557Q434 -544 435 -532Q435 -525 432 -518Q462 -532 473 -532Q485 -532 495 -523Q503 -527 513 -529Q502 -526 502 -515Q502 -505 512 -498Q518 -501 524 -504L525 -501Q522 -495 519 -489V-488Q524 -477 531 -467Q537 -456 538 -446Q538 -439 534 -432Q498 -420 487 -359Q484 -344 480 -253Q519 -279 540 -279Q545 -279 553 -277Q567 -273 577 -260Q587 -245 597 -235Q595 -226 592 -218Q653 -182 800 -110Q806 -118 811 -121H812V-117Q812 -110 820 -106Q822 -122 824 -137Q826 -153 837 -160Q832 -148 832 -130Q832 -117 836 -103Q839 -110 841 -118Q843 -127 849 -131V-126Q849 -106 867 -84Q884 -63 885 -47Q885 -42 879 -20Q876 -6 873 5Q870 15 854 16Z"/>
</svg>