<svg xmlns="http://www.w3.org/2000/svg" viewBox="0 -800 1024 1024">
	<path fill="#000000" d="M815 -730H813V-733Q813 -743 824 -743Q828 -743 830 -742Q824 -730 815 -730ZM796 -142H799Q801 -138 801 -134Q801 -124 796 -119Q790 -120 790 -133Q790 -142 796 -142ZM814 -263H816Q817 -259 817 -252Q817 -246 815 -230Q806 -230 806 -248Q806 -263 814 -263ZM542 -423Q529 -422 497 -406Q465 -390 462 -388Q444 -376 440 -360Q429 -348 423 -334Q445 -342 467 -350Q505 -366 509 -370Q521 -380 542 -423ZM587 -526Q604 -563 611 -584Q565 -572 524 -551Q483 -530 446 -512Q401 -491 390 -478Q396 -478 407 -470Q420 -461 427 -461Q444 -467 464 -479Q491 -492 523 -504Q555 -516 577 -532Q581 -527 587 -526ZM596 -258V-259Q582 -262 568 -266Q561 -276 553 -276Q550 -275 547 -275Q497 -267 439 -222Q417 -223 402 -230Q378 -178 372 -111Q399 -121 421 -136Q444 -151 467 -165L455 -199Q461 -211 468 -222Q474 -234 486 -237H492Q501 -236 507 -230Q514 -228 520 -227Q526 -224 535 -215Q544 -206 548 -205Q562 -216 575 -230Q582 -236 589 -242Q596 -248 596 -258ZM804 107H797Q777 102 753 93Q721 82 699 61Q677 39 655 18Q605 -29 595 -38Q593 -40 547 -85Q519 -113 495 -128Q494 -129 491 -135Q489 -139 484 -139H483Q482 -142 471 -159Q455 -152 437 -127H440Q447 -127 453 -133Q460 -140 467 -140H468Q466 -134 457 -125Q447 -115 446 -104L448 -103Q453 -105 458 -108H460Q450 -101 448 -87Q448 -79 459 -79H461Q458 -73 455 -68V-67Q456 -63 460 -62Q464 -61 467 -59Q463 -55 463 -47Q463 -38 465 -32Q445 -21 424 -9Q403 3 392 28Q386 49 379 70Q372 90 348 92H347Q325 92 303 72Q280 51 276 27Q266 17 255 11Q257 7 257 1Q257 -8 247 -20Q236 -33 236 -42Q236 -47 239 -55Q269 -66 279 -99Q289 -132 297 -173Q316 -251 318 -266Q330 -342 331 -362V-364Q331 -377 323 -399Q316 -418 316 -432V-439Q292 -436 275 -414Q258 -392 226 -388Q217 -391 205 -402Q194 -413 187 -416Q173 -423 158 -428Q142 -433 137 -446Q136 -449 136 -454Q140 -472 146 -489V-490Q146 -499 137 -517Q128 -535 128 -546Q128 -558 134 -566Q144 -577 156 -586Q168 -599 188 -627Q218 -671 238 -685Q227 -660 221 -634Q231 -629 244 -629Q277 -634 306 -649Q321 -654 338 -657Q354 -661 366 -670H368Q371 -669 374 -668Q381 -677 394 -677H400Q414 -689 455 -695Q471 -703 511 -714Q551 -725 568 -734H573Q594 -738 609 -742H613Q627 -757 640 -772Q653 -784 673 -784Q693 -784 720 -768Q729 -763 760 -740Q764 -742 777 -745L779 -744Q776 -741 772 -735V-733Q778 -722 784 -713Q795 -718 807 -722Q797 -708 797 -698Q811 -698 830 -712Q847 -725 858 -727Q848 -717 833 -706Q819 -695 817 -680Q817 -676 819 -670L822 -669Q826 -669 833 -677Q839 -683 841 -683H842L845 -681Q841 -675 836 -670Q826 -656 826 -640Q826 -624 836 -617Q833 -612 833 -604Q833 -593 836 -587Q823 -584 815 -565Q770 -562 752 -533Q734 -503 719 -463Q699 -422 691 -391Q690 -387 690 -379Q690 -372 689 -368Q680 -352 676 -336Q677 -333 677 -331H682Q706 -327 729 -323Q733 -323 739 -325Q739 -322 738 -320V-319Q744 -320 753 -327Q759 -332 765 -334V-332Q765 -328 758 -320Q748 -308 748 -300Q748 -297 750 -291L751 -290Q753 -290 754 -293Q756 -297 759 -297L762 -296Q755 -285 755 -264Q756 -245 756 -227Q756 -209 750 -199Q738 -187 717 -182Q702 -186 680 -186Q629 -186 608 -162Q638 -129 681 -105Q724 -81 763 -52Q767 -59 771 -67Q775 -65 776 -56Q777 -46 781 -45Q790 -50 792 -77Q794 -102 800 -107Q804 -102 804 -90Q804 -76 803 -63Q803 -56 804 -53Q811 -63 811 -77Q809 -100 806 -124Q806 -139 805 -155Q806 -170 806 -185V-191Q806 -206 812 -212Q817 -186 819 -115Q820 -65 824 -35Q829 -37 829 -45Q828 -53 827 -62Q827 -76 826 -90Q826 -123 830 -142Q835 -100 836 -52Q837 -31 853 1Q863 20 864 31Q865 36 865 41Q865 67 847 87Q829 107 804 107Z"/>
</svg>