<svg xmlns="http://www.w3.org/2000/svg" viewBox="0 -800 1024 1024">
	<path fill="#000000" d="M905 -276Q902 -268 892 -256Q887 -258 887 -266Q888 -280 897 -282Q901 -282 905 -276ZM226 -18H222Q199 -21 196 -37Q198 -38 202 -38Q220 -38 226 -18ZM592 -75V-76Q587 -77 578 -77Q540 -77 510 -43Q524 -40 533 -40Q554 -40 572 -55Q588 -66 592 -75ZM482 -138H486Q492 -145 492 -156Q492 -171 482 -178Q448 -164 427 -131Q455 -134 482 -138ZM685 -157Q624 -216 571 -239Q567 -220 567 -201Q568 -182 568 -163Q574 -158 580 -153Q577 -150 577 -147L578 -145Q621 -153 669 -158Q680 -158 685 -157ZM670 111V121Q664 119 662 113Q660 108 658 102Q655 100 648 100Q639 102 630 103Q618 87 603 71Q587 55 566 54H563Q552 55 541 63Q530 71 518 79Q501 89 486 96Q472 103 463 118H461Q451 115 440 112L441 108Q441 105 439 103H433Q424 103 412 93Q401 84 390 83Q389 72 379 70Q370 67 365 59H369Q381 61 393 62Q382 49 338 39Q300 30 288 22H291Q308 22 343 30Q374 37 392 38Q346 20 289 7Q275 4 260 0Q245 -4 236 -16Q293 2 375 17Q417 24 422 24Q442 24 454 13Q434 7 426 2Q411 -8 411 -25Q411 -31 412 -35Q403 -39 391 -53Q380 -66 371 -70Q366 -57 360 -44Q356 -42 353 -42Q345 -43 336 -44Q331 -44 328 -43Q322 -49 313 -56Q304 -62 298 -72Q297 -84 292 -94Q290 -96 286 -96Q281 -95 275 -94Q271 -94 268 -101Q280 -102 285 -109Q279 -116 266 -116Q259 -116 238 -113Q251 -126 273 -130Q351 -159 402 -204Q353 -192 351 -191Q328 -180 304 -169Q280 -163 257 -151Q235 -141 220 -125Q215 -118 211 -110Q207 -102 199 -100L195 -99Q180 -103 167 -109H164Q148 -106 131 -103H128Q108 -103 91 -111Q70 -121 66 -138Q65 -141 65 -146Q65 -155 72 -175Q79 -195 79 -206Q79 -216 73 -227Q77 -248 91 -260Q105 -271 121 -282Q131 -289 146 -306Q168 -330 181 -335V-334Q181 -330 175 -324Q166 -315 166 -307Q167 -304 167 -302Q177 -307 191 -327Q212 -356 229 -362Q222 -350 215 -339Q207 -328 206 -313V-310Q212 -310 219 -321Q227 -333 236 -334Q231 -326 229 -316V-314H231Q241 -314 264 -319Q296 -326 312 -326H318Q337 -337 387 -345Q434 -352 451 -361Q455 -359 460 -359Q466 -360 471 -361Q470 -367 463 -367H455Q449 -376 434 -376Q409 -373 386 -365Q390 -375 407 -384Q422 -392 426 -398Q414 -406 396 -411Q390 -410 387 -405Q383 -399 381 -397Q372 -391 363 -386Q353 -375 338 -371Q328 -371 298 -386Q281 -396 264 -406Q215 -410 211 -411Q184 -417 180 -437Q179 -440 179 -445Q179 -458 189 -480Q197 -497 198 -503Q199 -506 199 -512V-526Q205 -553 220 -568Q235 -582 247 -596Q255 -592 265 -592Q291 -595 312 -604Q311 -608 311 -616Q311 -632 321 -650Q324 -655 340 -678Q342 -676 342 -672Q341 -662 339 -652Q339 -647 343 -644Q362 -647 381 -650Q387 -650 390 -649Q398 -647 406 -633Q414 -620 421 -619H422Q431 -622 440 -625H443L445 -623Q444 -617 442 -612L443 -608Q457 -601 465 -572Q474 -538 482 -530Q482 -529 477 -529Q482 -526 482 -522Q482 -518 481 -514Q481 -513 483 -509V-508Q483 -506 480 -506Q477 -506 477 -503L476 -501Q480 -497 483 -491V-490Q481 -490 477 -492Q468 -478 468 -468Q468 -461 471 -455Q475 -461 483 -468Q494 -477 497 -483Q516 -486 529 -490Q537 -487 545 -484Q553 -481 557 -475Q560 -478 560 -482Q560 -487 552 -498Q545 -507 544 -512Q532 -519 528 -520Q521 -528 518 -550Q515 -571 512 -578Q509 -580 506 -583V-589Q496 -599 479 -608Q501 -611 510 -614Q526 -619 531 -631Q541 -631 562 -637Q585 -643 595 -643Q603 -643 609 -640V-643Q611 -660 612 -678Q612 -687 608 -694Q597 -687 593 -673Q589 -660 584 -647Q579 -648 579 -654Q580 -658 580 -662Q580 -668 584 -681Q589 -698 589 -707V-709Q584 -708 583 -704Q582 -699 580 -696Q581 -702 581 -714Q581 -740 586 -751Q591 -758 608 -769Q613 -773 622 -785Q636 -803 642 -806Q651 -811 667 -811Q675 -811 685 -809Q705 -794 724 -777Q742 -760 771 -756V-753Q774 -731 784 -716Q780 -706 766 -694Q751 -681 747 -670Q766 -672 789 -678Q825 -687 843 -688Q835 -682 825 -679Q814 -676 812 -664L814 -663Q822 -666 830 -669L834 -668Q832 -663 825 -658Q816 -651 815 -644Q815 -639 820 -639Q826 -639 831 -640H833Q827 -632 827 -620Q827 -614 830 -610H832Q840 -612 848 -614L851 -613Q848 -609 840 -604Q829 -598 827 -590Q833 -575 833 -558Q833 -522 805 -518Q797 -519 789 -521H780Q756 -521 708 -507Q677 -498 657 -496Q648 -482 637 -469Q627 -457 622 -439Q617 -437 607 -437Q587 -437 578 -446Q581 -425 583 -404Q583 -395 580 -383Q604 -387 628 -391Q640 -399 675 -404Q719 -411 734 -427Q737 -427 740 -422Q742 -419 744 -418Q749 -420 754 -423Q761 -423 763 -421Q790 -427 814 -429Q839 -432 857 -445Q862 -449 868 -460Q876 -474 887 -478Q884 -462 881 -446Q881 -441 886 -434Q903 -440 922 -443H925Q922 -440 918 -438Q913 -436 913 -430Q915 -427 917 -427Q922 -429 927 -431H929Q935 -422 937 -411V-409Q937 -405 930 -397Q923 -388 923 -384V-382Q925 -376 928 -376Q932 -376 943 -373Q937 -369 931 -364Q925 -360 925 -351Q925 -346 926 -343Q921 -328 908 -324Q901 -322 873 -320Q818 -316 767 -302Q715 -288 669 -274Q691 -264 739 -235Q788 -206 815 -194Q818 -195 818 -199Q818 -204 821 -204Q824 -202 825 -197Q827 -189 831 -188Q840 -193 844 -217Q847 -238 854 -244Q855 -237 855 -220V-188Q855 -171 857 -164Q862 -183 864 -231Q866 -284 873 -305Q879 -301 879 -286V-270Q879 -238 878 -207Q878 -174 882 -154Q888 -164 888 -184Q887 -207 886 -231Q886 -242 887 -247Q895 -239 895 -208V-180Q895 -166 896 -160Q898 -142 912 -126Q933 -102 934 -100Q933 -78 922 -60Q915 -49 898 -32Q851 -34 843 -35Q826 -38 803 -53Q781 -68 768 -70Q746 -99 705 -138Q711 -126 717 -115Q712 -109 709 -104Q709 -100 710 -98L695 -95Q693 -93 693 -89L694 -85L691 -86Q679 -86 679 -67Q680 -49 692 -47H695Q683 -44 683 -25Q667 -16 663 -12Q665 -9 674 -9Q678 16 704 22Q702 26 702 35Q705 55 708 74Q708 77 707 80Q704 90 694 94Q684 99 672 103Q670 107 670 111Z"/>
</svg>