<svg xmlns="http://www.w3.org/2000/svg" viewBox="0 -800 1024 1024">
	<path fill="#000000" d="M859 -413Q859 -401 852 -396Q850 -404 850 -411Q850 -416 852 -420Q855 -419 859 -413ZM227 49Q226 54 217 54Q206 54 205 47L207 44Q211 42 215 42Q226 42 227 49ZM372 -347V-346Q377 -346 378 -343Q380 -354 389 -358Q397 -361 406 -364Q402 -366 395 -375Q388 -384 385 -385Q385 -380 379 -368Q372 -353 372 -347ZM575 -450V-480Q569 -482 568 -482Q559 -482 553 -473Q547 -464 547 -453Q547 -448 548 -445Q562 -445 575 -450ZM510 -543H513Q518 -543 526 -538Q533 -533 538 -532Q556 -538 569 -541Q569 -543 564 -556Q505 -553 470 -531H473Q480 -531 494 -538Q504 -543 510 -543ZM624 -454H626Q642 -454 652 -464Q656 -468 668 -487Q660 -491 649 -491Q644 -491 628 -489Q624 -480 624 -463ZM340 -274H341Q344 -275 346 -276L347 -274Q340 -266 338 -258Q338 -255 342 -252Q359 -256 379 -258Q374 -299 356 -310Q346 -286 340 -274ZM487 -432Q485 -440 483 -448Q480 -448 476 -449Q455 -446 437 -438Q429 -443 421 -448Q410 -432 400 -415Q415 -426 434 -426Q443 -426 448 -421Q468 -425 487 -432ZM825 118H818Q806 118 793 117Q784 117 779 120Q728 98 690 62Q652 27 611 -7Q610 -3 610 5Q610 8 616 41Q621 63 625 85Q623 102 608 119Q591 138 571 138Q568 138 564 137Q553 134 535 116Q514 95 514 79Q514 77 516 71Q516 67 512 65Q507 63 507 59Q517 54 522 54L526 55Q528 46 535 -3Q497 18 458 39Q419 60 391 94Q386 94 378 98Q373 101 373 108Q347 118 337 118Q321 118 307 101Q299 93 296 85L295 81Q296 78 296 75Q296 71 293 66Q288 58 265 56Q245 54 237 47H245Q271 50 296 53Q292 45 282 44Q272 44 263 43Q229 40 207 27Q209 24 213 24Q218 24 224 26Q236 28 266 30H281Q386 30 498 -45Q441 -39 403 -17Q397 -16 385 -16Q347 -16 326 -39V-44Q326 -63 313 -67Q311 -85 311 -90Q311 -98 313 -112Q325 -117 345 -135H354Q365 -153 391 -153Q409 -153 422 -142Q451 -145 480 -148Q461 -163 436 -169Q439 -172 439 -176Q435 -188 431 -200V-202Q432 -213 449 -221Q464 -228 478 -228Q499 -227 514 -207Q520 -198 532 -171Q531 -166 527 -162Q523 -158 523 -156H527Q535 -156 542 -157Q538 -183 533 -209Q533 -216 534 -220Q549 -234 573 -237Q595 -229 611 -210Q620 -200 637 -171Q672 -172 704 -179Q710 -180 764 -196V-194Q764 -175 784 -175Q795 -175 809 -181Q809 -178 804 -176Q799 -175 799 -172V-170Q799 -167 806 -162Q819 -165 831 -169Q836 -169 838 -168Q831 -161 821 -156Q811 -152 809 -139Q811 -134 814 -134Q818 -135 822 -133Q806 -122 806 -100Q791 -95 784 -83H761Q675 -83 638 -67Q648 -63 667 -49Q691 -31 711 -28Q725 -14 739 -14Q741 -11 742 -9V-7H745Q754 -7 765 -2Q774 2 778 3Q783 0 787 -15Q790 -29 796 -33Q797 -30 797 -21V-9Q797 2 799 6Q803 -4 804 -32Q806 -66 813 -77Q815 -67 815 -47Q814 -16 813 14V21Q818 17 818 -3Q818 -21 823 -27Q828 -19 828 -3V10Q828 18 829 23Q831 32 837 53Q844 75 844 86Q844 107 825 118ZM686 -178H681Q663 -178 650 -195Q637 -211 637 -233Q637 -240 638 -244Q622 -236 603 -236Q572 -236 569 -261V-263Q572 -279 575 -296V-300Q575 -305 568 -322Q559 -345 559 -358Q559 -370 566 -381Q572 -388 581 -393Q573 -395 570 -395Q547 -391 525 -384Q521 -383 512 -383Q505 -383 501 -382Q471 -372 449 -348Q452 -342 454 -336Q478 -348 507 -355Q515 -351 519 -342Q530 -349 541 -349H545Q544 -345 538 -342Q533 -339 532 -337Q535 -333 535 -327Q533 -315 531 -304V-300H528Q513 -300 507 -291Q501 -293 496 -293Q469 -293 452 -278Q462 -279 494 -286Q536 -295 561 -297Q546 -293 536 -284Q540 -277 540 -270Q540 -264 539 -258Q524 -249 520 -243Q401 -217 332 -163Q317 -167 302 -172Q275 -131 231 -39Q214 -4 197 30Q186 69 166 100Q156 94 147 87Q137 81 125 80Q119 80 116 81V80Q118 75 122 72Q113 52 100 38Q102 34 102 26Q99 5 95 -17V-23Q103 -40 110 -58Q112 -72 112 -80Q107 -132 102 -191Q102 -199 104 -217Q110 -182 114 -146Q118 -110 128 -82Q131 -88 131 -96Q130 -111 128 -127Q128 -138 132 -143Q136 -119 145 -100Q215 -177 259 -282Q304 -386 350 -489Q344 -493 342 -493Q336 -493 330 -485Q325 -478 323 -471Q320 -470 313 -470Q282 -470 231 -508Q218 -517 215 -521Q207 -530 207 -542Q207 -545 209 -555Q216 -565 222 -576Q229 -596 234 -617Q239 -639 254 -652H258Q267 -652 277 -649Q319 -675 363 -693Q349 -685 346 -682Q338 -674 338 -662V-660Q358 -654 380 -654Q441 -658 496 -669Q493 -721 451 -740V-742Q451 -747 459 -747H464Q480 -768 510 -781Q528 -795 536 -796Q540 -797 547 -797Q567 -796 582 -787Q597 -778 615 -771V-769Q615 -760 620 -754Q625 -748 628 -741L626 -742Q623 -741 622 -738V-733Q622 -720 609 -706Q598 -695 596 -687Q627 -689 657 -698Q687 -706 717 -712H718Q721 -712 723 -708Q726 -719 744 -719Q753 -719 757 -715Q772 -722 790 -727Q788 -722 785 -717Q796 -721 805 -728Q814 -734 829 -735Q815 -727 815 -708Q815 -691 829 -691Q834 -691 844 -696Q839 -687 834 -678Q837 -675 845 -675H850Q846 -671 846 -667Q846 -665 850 -657Q848 -645 846 -634Q846 -625 852 -619Q850 -617 847 -617Q840 -617 838 -622Q821 -616 810 -588Q778 -589 745 -591Q744 -591 744 -586Q724 -588 717 -588Q686 -588 662 -574Q664 -568 666 -563L665 -559Q668 -558 675 -558Q704 -561 733 -564Q753 -564 761 -553Q779 -555 794 -561L795 -559Q791 -549 786 -540Q786 -536 788 -535L790 -534Q794 -537 798 -541L799 -540Q797 -530 797 -527Q797 -515 802 -499Q807 -483 807 -477Q807 -467 803 -459Q727 -447 704 -397Q697 -397 689 -393Q681 -400 659 -400Q658 -400 625 -397Q633 -380 650 -380Q659 -380 681 -388Q704 -396 717 -397H719Q728 -396 737 -395Q741 -395 744 -396Q748 -396 748 -393Q749 -390 751 -388Q765 -395 771 -395Q775 -394 778 -394Q766 -388 765 -372Q765 -361 773 -357Q765 -349 765 -340Q766 -337 766 -334Q714 -323 662 -313Q659 -310 655 -300Q726 -310 806 -318Q811 -323 815 -343Q819 -363 826 -369Q826 -358 825 -348Q825 -330 831 -322Q834 -332 834 -345Q833 -373 831 -401Q831 -415 834 -427Q838 -372 846 -324Q852 -334 852 -357Q852 -366 851 -375Q852 -382 852 -390Q856 -381 859 -361Q862 -343 868 -334Q874 -327 887 -319Q901 -311 905 -306Q916 -289 926 -273Q919 -257 919 -253Q919 -249 920 -246Q911 -242 903 -237Q895 -232 892 -223Q879 -232 873 -232Q870 -232 865 -229Q793 -255 722 -255Q697 -255 684 -253V-252Q684 -247 691 -247Q702 -247 707 -252Q707 -250 704 -238Q706 -234 720 -215Q712 -211 704 -195Q697 -180 686 -178Z"/>
</svg>