<svg xmlns="http://www.w3.org/2000/svg" viewBox="0 -800 1024 1024">
	<path fill="#000000" d="M902 -667Q900 -671 900 -673Q901 -684 913 -685Q916 -684 919 -684L920 -680Q919 -675 913 -672Q906 -670 902 -667ZM550 52Q549 46 547 39Q550 38 555 38Q564 38 572 45Q571 47 569 48L571 49Q561 51 550 52ZM736 -205V-206Q732 -206 727 -207Q701 -207 679 -195Q653 -181 651 -159Q684 -174 717 -190Q736 -195 736 -205ZM732 -269H738Q742 -283 742 -294Q742 -304 739 -308Q722 -304 702 -288Q685 -278 673 -270Q661 -261 659 -240Q677 -247 694 -257Q712 -268 732 -269ZM316 -197H313Q305 -197 305 -184Q305 -178 307 -174Q308 -175 312 -176Q316 -177 316 -179Q314 -181 314 -184Q316 -189 317 -195ZM279 -165V-169Q279 -175 276 -183H274Q265 -183 265 -173Q265 -165 271 -159Q273 -163 279 -165ZM263 -251Q258 -270 253 -282Q239 -276 239 -259Q239 -251 246 -245Q255 -248 263 -251ZM312 -277V-275Q319 -278 325 -283Q330 -288 340 -288Q343 -310 345 -333V-345Q343 -345 340 -346Q325 -342 318 -333Q306 -325 292 -316Q278 -306 276 -293Q289 -295 301 -298Q310 -288 312 -277ZM813 -111L820 -65Q825 -60 825 -50Q825 -42 824 -35V-32Q827 -12 830 7Q830 11 828 17L838 51Q833 80 821 99Q808 118 799 141Q771 137 737 111Q701 83 675 80Q679 79 687 79H709Q707 72 700 72H692Q647 63 602 54H600Q596 55 591 55Q585 55 583 48Q587 44 592 44Q601 46 610 48Q673 58 694 58H705Q694 53 670 49Q639 44 629 37Q637 33 647 33Q667 36 687 39Q696 39 705 34Q720 7 724 -32Q728 -72 731 -113H728Q688 -113 650 -83Q648 -78 648 -69Q651 -48 653 -27Q642 -11 636 13Q629 16 620 16Q597 12 573 7Q572 -8 553 -8Q547 -8 535 -6Q536 -12 542 -13Q548 -14 555 -14Q552 -22 543 -22Q531 -20 519 -19Q515 -19 509 -21Q534 -30 548 -48Q552 -57 555 -67Q556 -75 558 -110Q555 -139 551 -168Q548 -198 535 -219Q520 -187 503 -156Q497 -146 487 -140Q476 -143 469 -151Q462 -159 455 -167Q446 -179 441 -205Q436 -233 442 -248Q509 -340 530 -387Q516 -389 508 -399Q500 -408 491 -416Q468 -434 460 -456Q469 -511 489 -532Q502 -551 525 -558Q523 -556 523 -554Q523 -549 533 -542Q543 -544 616 -560Q628 -580 633 -607Q639 -634 644 -659Q640 -665 636 -671Q613 -666 599 -642Q598 -644 598 -648Q599 -661 606 -673Q613 -685 618 -695V-700Q621 -726 639 -744Q651 -760 659 -766Q671 -774 691 -774H697Q714 -769 730 -765Q756 -761 762 -756Q770 -749 774 -722Q776 -709 787 -694Q797 -681 797 -674Q798 -670 798 -667Q798 -651 780 -632Q766 -618 764 -609Q834 -627 891 -661V-660Q889 -654 886 -649V-648Q896 -637 909 -637Q934 -640 958 -644H961Q950 -638 938 -631Q926 -624 925 -608Q925 -602 926 -598Q929 -592 936 -591Q944 -590 950 -588Q946 -584 939 -577Q932 -569 931 -563Q931 -557 945 -557Q924 -551 924 -519V-512Q904 -501 882 -499Q860 -496 838 -492Q806 -485 700 -444Q685 -439 671 -436Q658 -434 648 -426Q636 -417 622 -377Q629 -370 641 -370Q646 -370 648 -371Q719 -404 746 -431Q754 -440 763 -450Q772 -461 783 -464Q793 -466 797 -466Q830 -466 859 -432Q876 -437 892 -443Q876 -432 874 -410Q874 -401 880 -401Q884 -401 891 -405Q886 -394 886 -375Q886 -366 888 -348Q872 -331 859 -315Q847 -299 841 -269Q825 -183 820 -102Q815 -105 813 -111ZM380 -122Q398 -131 450 -149Q454 -140 446 -123Q440 -110 441 -106Q437 -104 433 -89Q433 -85 437 -83Q442 -80 442 -76H439Q436 -76 436 -73Q439 -65 442 -57Q421 -44 368 -18Q306 13 285 26L264 40Q247 52 230 64Q213 76 206 97L169 89Q163 79 157 68Q130 65 112 46Q112 38 111 30Q111 9 120 6Q119 1 119 -9Q119 -36 135 -51Q151 -65 167 -78Q172 -59 182 -55Q207 -60 232 -66Q241 -74 259 -77Q259 -74 265 -78Q280 -86 279 -83L283 -82Q291 -82 297 -84Q322 -102 340 -107Q330 -110 322 -120H320L318 -118V-116Q315 -116 313 -121Q311 -126 309 -126Q288 -124 280 -120Q266 -113 265 -97Q258 -91 250 -91Q241 -91 222 -101Q201 -112 189 -112Q183 -112 180 -111Q182 -115 182 -122Q181 -133 180 -145V-149L170 -174H168Q162 -174 158 -180Q154 -185 150 -189Q118 -209 73 -218Q63 -233 63 -257Q63 -271 69 -282Q64 -300 61 -321V-324L79 -344V-346Q77 -358 75 -371Q75 -378 80 -381Q84 -377 87 -367Q91 -353 99 -350Q101 -349 106 -349Q118 -350 129 -351H135Q151 -349 161 -339Q183 -345 208 -367Q237 -393 251 -399Q251 -401 249 -402Q246 -402 246 -404Q263 -425 299 -486Q260 -475 225 -448Q200 -429 167 -393Q161 -393 153 -399Q144 -405 136 -405H132Q123 -442 103 -442Q102 -442 94 -440Q87 -446 80 -448Q76 -448 73 -446V-448Q76 -457 81 -465Q78 -468 73 -468Q68 -468 59 -462Q49 -455 43 -455Q46 -463 52 -468Q57 -473 63 -477Q59 -481 51 -481Q42 -481 28 -472Q16 -465 14 -464Q17 -480 41 -497L73 -524Q97 -544 106 -551Q127 -566 146 -570L169 -590Q169 -592 168 -595Q169 -604 175 -612Q180 -619 184 -627V-629Q181 -637 177 -646V-647Q177 -652 188 -664Q199 -676 209 -680Q219 -685 237 -685Q266 -683 295 -681Q329 -635 336 -584Q342 -584 352 -590Q361 -595 367 -595Q372 -595 375 -594Q382 -602 387 -602Q395 -602 409 -586Q421 -572 427 -570Q425 -564 425 -561Q425 -549 436 -536Q435 -528 434 -520Q434 -517 436 -513Q423 -509 417 -498Q411 -486 404 -476Q419 -469 430 -459Q439 -463 448 -468Q445 -462 445 -440Q445 -416 453 -395Q457 -379 468 -363Q451 -353 419 -281Q392 -219 388 -133Q388 -132 380 -122Z"/>
</svg>