<svg xmlns="http://www.w3.org/2000/svg" viewBox="0 -800 1024 1024">
	<path fill="#000000" d="M575 -216Q595 -223 604 -230Q602 -247 598 -252Q606 -261 614 -269Q623 -277 638 -278H643Q653 -267 660 -245Q673 -249 686 -254V-250Q688 -237 698 -225Q701 -231 704 -236Q707 -242 716 -242V-246Q717 -253 717 -260V-263Q721 -260 725 -249Q727 -251 729 -251Q733 -251 737 -245Q742 -239 744 -239Q750 -242 755 -249Q775 -262 794 -275Q815 -290 832 -309Q862 -339 878 -339Q889 -339 899 -330Q906 -341 910 -345Q917 -354 924 -356Q913 -336 913 -322Q913 -312 919 -305Q925 -308 930 -312Q928 -305 925 -299V-294Q925 -285 934 -266Q943 -247 943 -235Q943 -231 941 -221Q923 -180 904 -132Q898 -107 894 -82Q891 -57 878 -36L883 -11L880 21V28Q880 39 873 39L878 73Q879 78 879 86Q879 114 857 123Q839 113 828 95Q816 78 802 61Q770 62 748 94Q718 88 716 46Q718 37 719 28Q717 3 714 -23Q710 -125 696 -161Q695 -155 680 -154Q662 -153 661 -143V-142Q661 -134 668 -128Q674 -123 681 -117Q687 -121 692 -125Q690 -119 690 -112Q690 -94 702 -93V-90Q701 -84 699 -78Q702 -70 702 -63Q701 -49 694 -37Q687 -26 683 -15Q679 -24 668 -27Q665 -21 665 -15Q666 -6 666 2V7L665 39V41Q662 60 658 78Q637 82 634 93Q619 85 610 63Q604 48 597 21Q605 14 607 -20Q593 -18 586 -5Q578 7 569 21Q530 70 516 108H511Q493 106 484 88Q475 70 467 55Q468 54 471 43Q465 28 458 15Q465 14 471 13Q469 3 460 -9Q453 -19 451 -24Q447 -29 452 -32Q453 -32 453 -31Q467 -20 480 -9Q484 -4 489 0Q506 -6 522 -17Q545 -30 563 -56Q581 -82 596 -105Q581 -103 566 -89Q565 -88 542 -62Q524 -44 517 -44Q511 -44 504 -51Q500 -59 496 -68Q480 -88 471 -101Q470 -104 470 -112Q472 -135 474 -159Q486 -212 521 -234Q517 -227 517 -218Q517 -207 525 -200Q540 -203 555 -206ZM481 -535V-532Q477 -522 472 -513Q469 -516 469 -522Q470 -532 471 -542H472Q476 -542 478 -539Q479 -537 481 -535ZM812 -27Q789 -22 779 -17Q762 -8 757 7Q761 12 768 12Q773 12 788 5Q799 0 805 -1Q805 -18 812 -27ZM757 -60H761Q771 -60 786 -71Q802 -82 814 -83Q817 -96 820 -109Q820 -113 819 -114Q813 -105 785 -91Q761 -79 757 -60ZM825 -149V-158Q825 -192 832 -231Q762 -203 761 -150L808 -183Q810 -180 812 -180Q814 -182 822 -185H825Q821 -178 821 -167Q821 -156 825 -149ZM647 -333H649V-329Q649 -317 657 -312Q641 -291 631 -284Q616 -289 612 -289Q604 -289 598 -282L596 -284Q596 -287 603 -294Q584 -309 584 -322V-324Q587 -345 611 -345Q620 -345 629 -340Q638 -335 640 -327Q644 -331 647 -333ZM752 -315V-317Q747 -319 742 -322L739 -321Q743 -326 743 -334Q740 -352 736 -370V-372Q739 -390 755 -390Q785 -385 801 -365Q810 -352 810 -336Q810 -329 804 -297Q795 -291 783 -291Q771 -291 762 -297Q752 -304 752 -315ZM177 -67Q168 -58 145 -43Q139 -37 133 -31Q127 -25 116 -24Q112 -25 107 -27Q93 -14 84 -16Q68 -21 57 -32Q54 -33 49 -41Q43 -50 40 -51Q43 -60 42 -70Q41 -83 45 -90Q44 -95 42 -101L43 -107Q44 -120 57 -129Q58 -130 81 -142Q93 -149 106 -159Q119 -169 133 -172Q132 -169 123 -163Q110 -153 109 -148Q108 -143 111 -138Q157 -150 231 -177Q242 -181 252 -187Q263 -193 275 -195Q273 -191 267 -186Q260 -180 259 -174Q261 -171 263 -169Q274 -169 287 -177Q300 -185 307 -186Q300 -178 292 -172Q285 -166 282 -155H283Q285 -155 288 -158Q292 -163 297 -162H300Q293 -153 289 -139Q287 -137 289 -133L290 -132Q293 -133 295 -134L297 -132Q294 -125 286 -116Q275 -104 274 -95Q238 -80 187 -68ZM228 0H201Q201 -4 200 -8Q200 -14 215 -14Q225 -13 228 0ZM455 -309Q456 -316 457 -323Q452 -330 447 -337Q442 -325 442 -314Q442 -300 451 -296Q448 -282 448 -261Q448 -246 456 -210Q440 -206 426 -188Q424 -186 407 -160Q405 -155 404 -146Q403 -137 397 -135L370 -98Q369 -71 367 -45Q367 -39 368 -36Q352 -7 352 36V48Q345 64 324 72Q301 81 297 102H296Q292 101 293 93H289Q284 93 281 94Q241 67 241 40Q241 29 248 21Q247 14 239 8Q232 2 231 -5Q233 -6 239 -6H248Q240 -24 220 -29H210Q203 -29 203 -35H211Q229 -35 250 -32Q243 -42 232 -44Q220 -47 208 -51Q199 -54 198 -62Q236 -52 246 -52Q265 -52 276 -63Q293 -78 307 -145Q325 -226 329 -237Q284 -236 257 -222Q239 -215 239 -203Q230 -191 213 -184H212Q204 -184 194 -189Q184 -194 177 -194Q172 -201 163 -202Q154 -203 149 -211Q152 -220 152 -227Q152 -234 147 -239L149 -241Q154 -255 161 -270Q166 -298 176 -303L175 -309Q167 -325 171 -333Q172 -345 172 -348Q172 -350 161 -356Q160 -370 158 -385L159 -388Q163 -386 167 -385H169Q170 -387 170 -391Q170 -399 159 -406Q151 -411 149 -414Q151 -415 154 -415Q160 -414 165 -414Q167 -414 173 -416Q173 -426 154 -434Q141 -419 129 -419Q122 -419 118 -421Q108 -445 75 -444Q66 -449 66 -466Q67 -478 67 -490Q67 -495 66 -500Q62 -521 57 -534V-542Q59 -578 81 -605Q102 -632 115 -659Q117 -657 117 -654Q115 -641 112 -629Q112 -621 118 -615H120Q129 -615 142 -621Q155 -627 160 -627Q166 -627 169 -625L206 -642Q210 -653 221 -657Q232 -661 244 -663Q269 -688 321 -697Q332 -702 357 -706Q380 -714 398 -692Q402 -698 406 -699L409 -700L411 -698Q411 -692 410 -686L412 -683Q418 -685 427 -699Q437 -715 447 -718Q446 -710 439 -698Q428 -680 431 -669L432 -664Q435 -666 439 -672Q444 -679 448 -681Q441 -658 445 -643Q447 -634 455 -627Q464 -587 463 -577Q454 -572 445 -549Q436 -527 432 -518L423 -490Q436 -475 448 -461Q454 -464 454 -477Q455 -481 456 -485Q458 -481 458 -478V-474Q462 -476 465 -489Q468 -502 471 -506Q471 -502 470 -499Q470 -476 498 -453Q583 -500 671 -528Q670 -540 668 -553Q668 -559 669 -561H665Q656 -561 650 -556Q645 -551 639 -546Q622 -546 601 -525Q596 -519 591 -512Q585 -505 580 -504H577Q555 -504 538 -552Q533 -554 527 -557Q516 -568 516 -590Q516 -620 533 -654V-660Q535 -675 541 -687Q556 -694 576 -718Q597 -743 614 -750Q614 -744 606 -732Q599 -722 598 -717Q601 -715 603 -710Q668 -717 727 -731Q737 -733 744 -737L746 -736Q750 -737 753 -739L777 -747Q781 -755 805 -758Q826 -760 831 -768Q834 -762 845 -755Q854 -764 865 -764Q869 -764 875 -762Q861 -756 861 -744Q861 -740 862 -737L865 -736Q870 -738 875 -740Q869 -728 865 -714Q865 -709 868 -705H869Q872 -705 874 -706L878 -705Q869 -693 868 -657Q867 -615 851 -604Q843 -605 829 -605Q802 -605 770 -596Q766 -595 720 -579Q725 -560 733 -552Q759 -565 822 -578Q893 -593 924 -612Q928 -612 931 -605Q936 -609 941 -614Q948 -622 952 -624Q947 -616 944 -603Q944 -601 946 -597L948 -596Q951 -597 954 -599H955Q951 -594 951 -587Q956 -568 960 -549Q966 -520 973 -498V-492Q973 -469 954 -454Q942 -445 910 -431L888 -408Q885 -393 874 -380Q864 -367 856 -353Q853 -354 846 -362Q840 -369 836 -369L834 -368Q835 -373 835 -378Q835 -385 829 -387H827Q824 -387 821 -382Q819 -378 816 -378H814Q814 -379 822 -408Q813 -408 807 -402Q801 -397 795 -393Q824 -442 852 -492Q847 -493 838 -493Q800 -493 783 -474L785 -472Q788 -473 791 -475L792 -474Q792 -469 791 -465Q791 -460 794 -459Q796 -459 798 -464Q800 -470 804 -470Q795 -456 795 -419V-407Q791 -405 788 -401Q786 -396 783 -393Q764 -394 754 -411Q749 -408 740 -405Q744 -412 744 -419Q742 -436 740 -453V-456Q722 -450 722 -403Q723 -384 723 -365Q723 -339 722 -313Q722 -297 723 -290Q708 -277 702 -275Q686 -288 669 -330Q676 -367 676 -399Q676 -421 674 -431Q666 -429 659 -427Q652 -426 646 -417Q657 -386 657 -374Q657 -369 655 -359Q639 -355 628 -351H625Q619 -351 611 -359Q602 -368 596 -368H595Q597 -370 597 -373Q597 -379 593 -383Q567 -371 564 -354Q563 -351 563 -344Q564 -330 565 -316Q565 -302 557 -294Q554 -290 545 -287Q535 -283 530 -278Q509 -283 504 -287Q498 -285 498 -281V-279Q495 -280 495 -285V-294Q486 -309 465 -310Q456 -310 455 -309ZM444 -341L443 -342Q440 -347 433 -372Q420 -358 416 -340Q416 -335 417 -333L419 -332Q432 -336 444 -341ZM431 -379Q416 -437 413 -443Q422 -443 434 -449Q429 -467 421 -483L406 -433Q406 -421 406 -409Q400 -372 396 -352Q399 -349 401 -347Q408 -352 418 -364Q428 -377 431 -379ZM303 -331Q312 -460 324 -538Q250 -514 220 -491Q211 -481 193 -469Q172 -455 163 -444Q162 -443 161 -442Q179 -437 183 -437Q186 -437 189 -438Q199 -439 209 -446Q219 -453 230 -450Q238 -442 244 -432Q254 -419 267 -415Q281 -412 282 -392Q281 -386 280 -381Q278 -378 273 -373Q268 -368 266 -363Q258 -338 250 -314Q271 -324 303 -331Z"/>
</svg>