<svg xmlns="http://www.w3.org/2000/svg" viewBox="0 -800 1024 1024">
	<path fill="#000000" d="M838 -742Q845 -755 859 -755Q856 -751 852 -744Q848 -738 843 -737Q841 -737 838 -742ZM266 -148H272Q276 -167 280 -187Q277 -196 277 -204Q279 -223 280 -242Q280 -252 277 -261Q279 -266 281 -272V-275Q280 -279 273 -279Q257 -276 249 -268Q244 -260 244 -232Q244 -218 243 -211Q239 -179 234 -148V-145Q264 -148 266 -148ZM938 -151H930Q873 -153 816 -156Q804 -155 792 -155Q723 -151 689 -144Q633 -133 613 -109V-76Q613 -26 626 -11Q624 -8 624 -1Q628 14 631 29Q629 53 612 78Q596 103 587 124Q549 109 535 70Q520 29 504 -11H505L509 -10L511 -13V-17Q510 -28 504 -34Q497 -40 492 -48Q504 -42 516 -37Q533 -56 536 -106Q541 -187 542 -190Q500 -183 493 -158Q503 -161 513 -164L517 -163Q515 -159 506 -154Q497 -149 495 -143Q496 -136 498 -130Q500 -123 507 -123Q497 -115 494 -101Q495 -98 495 -95Q414 -75 332 -51Q286 -36 283 -35Q255 -24 240 -10Q230 5 218 18Q208 26 183 31Q158 37 148 44Q136 43 117 27Q103 15 95 12Q79 5 63 -1Q48 -7 40 -22V-45Q40 -57 45 -65Q52 -72 61 -77Q71 -87 84 -113Q100 -144 113 -152Q113 -144 112 -136Q112 -125 116 -120Q143 -123 160 -126Q165 -133 165 -149V-160Q161 -253 142 -292Q132 -309 121 -323Q109 -337 104 -355V-357Q103 -362 102 -368V-370L99 -372Q95 -370 90 -368H89V-369Q91 -375 93 -381L92 -384Q76 -383 66 -370Q103 -432 216 -613Q211 -631 206 -650V-666Q204 -691 192 -708Q181 -725 172 -742H173Q179 -741 179 -736Q180 -731 182 -727Q195 -718 215 -707Q214 -712 202 -722Q191 -732 188 -739Q198 -735 210 -729Q221 -723 234 -722Q255 -728 276 -732H278Q295 -731 321 -719Q345 -708 357 -706Q368 -660 400 -640Q397 -636 394 -632Q403 -634 412 -636Q416 -636 418 -635Q397 -630 397 -601Q398 -582 399 -564Q399 -547 394 -538Q375 -529 355 -529Q333 -525 318 -511Q302 -497 286 -482Q249 -453 228 -422Q253 -427 310 -447Q387 -474 427 -479Q430 -481 434 -489Q437 -496 443 -496Q443 -489 450 -475Q455 -476 466 -484Q480 -494 490 -494Q493 -493 495 -493Q490 -486 482 -478Q474 -469 473 -460Q473 -454 477 -450H478Q486 -450 492 -456Q464 -399 461 -341H457Q437 -341 418 -328H407Q377 -328 361 -315Q364 -309 367 -304Q370 -299 377 -299H379Q377 -298 377 -295Q377 -293 379 -289L383 -288Q387 -288 390 -291Q392 -295 393 -295H394Q393 -289 393 -276Q394 -257 394 -238Q370 -216 361 -170Q393 -170 463 -183Q513 -192 542 -195Q543 -204 543 -221Q540 -278 533 -333Q537 -339 540 -346Q539 -351 539 -359Q539 -391 566 -422L567 -420Q566 -415 564 -411Q565 -409 566 -407Q607 -383 613 -347Q615 -338 615 -317Q614 -280 612 -243Q612 -224 614 -215Q696 -234 704 -236Q762 -248 811 -249Q772 -261 727 -271Q703 -274 681 -275Q660 -276 644 -287Q630 -297 624 -319Q621 -330 614 -371V-372Q614 -375 617 -376Q619 -376 619 -379Q617 -386 617 -401Q621 -444 631 -485Q620 -467 592 -467Q566 -467 566 -493Q561 -499 552 -504Q539 -511 536 -519Q535 -521 535 -525Q537 -538 539 -551V-553Q536 -572 524 -584Q512 -597 505 -610L508 -611Q515 -608 521 -605H524Q537 -628 558 -650Q579 -671 603 -695Q641 -732 649 -738Q680 -763 706 -763Q723 -763 736 -755Q752 -764 757 -764L759 -763Q756 -760 752 -754V-752Q755 -747 766 -736Q778 -724 782 -715Q787 -718 791 -723Q794 -728 802 -729H804L806 -725Q803 -721 800 -714V-712Q806 -712 814 -720Q823 -729 829 -730Q819 -705 804 -676Q814 -667 820 -641Q806 -632 804 -607Q764 -598 749 -562Q733 -526 720 -487Q702 -438 702 -406Q712 -396 726 -394Q740 -393 754 -390Q766 -384 778 -379Q819 -371 856 -355Q920 -318 938 -299Q967 -270 968 -250Q963 -229 952 -202Q947 -173 938 -151Z"/>
</svg>