<svg xmlns="http://www.w3.org/2000/svg" viewBox="0 -800 1024 1024">
	<path fill="#000000" d="M261 14Q267 1 284 -5Q289 -7 312 -12Q362 -24 382 -24H387Q395 -19 399 -18Q384 -16 378 3L381 4Q387 1 392 -2Q395 -2 396 1Q396 5 392 6Q389 6 388 11Q398 16 403 37Q385 39 362 53Q355 57 320 80Q299 94 281 109Q262 125 242 132Q234 134 231 134Q217 133 204 124Q192 116 181 108Q148 106 137 91V86Q137 74 144 65Q147 61 157 51V48Q158 28 173 14Q187 1 197 -9V1Q202 13 212 14ZM378 -67Q378 -64 377 -62Q370 -45 347 -41Q323 -36 307 -27Q289 -27 264 -46Q244 -61 232 -61Q229 -61 221 -59L219 -61Q224 -66 229 -72Q220 -92 196 -124Q205 -119 215 -119Q216 -119 243 -124V-125Q241 -127 239 -130L240 -132Q253 -129 255 -128Q281 -132 309 -132H315Q337 -131 349 -118Q362 -106 377 -93Q376 -90 376 -85Q377 -76 378 -67ZM108 -327Q100 -313 94 -308L92 -307Q90 -309 87 -311Q90 -327 108 -327ZM412 -224Q405 -217 405 -209Q405 -201 403 -191Q396 -170 361 -170Q331 -170 280 -187Q274 -184 267 -182V-191Q257 -193 253 -193Q227 -193 208 -172V-173Q212 -184 224 -196Q223 -204 221 -212Q212 -217 196 -217Q177 -217 147 -209Q164 -219 177 -236Q173 -245 162 -248Q172 -249 177 -257Q182 -264 190 -270Q189 -272 183 -277Q177 -282 175 -287Q186 -282 201 -282Q215 -282 233 -290Q230 -302 227 -314V-317H232Q235 -306 242 -301Q249 -295 256 -288Q273 -292 282 -300Q299 -284 350 -284H351Q355 -285 357 -290L360 -289Q357 -287 357 -285Q375 -278 390 -259Q396 -251 412 -224ZM435 -344Q435 -334 426 -323Q416 -311 405 -309H400Q387 -309 368 -321Q347 -334 333 -334H331Q327 -334 325 -329Q323 -325 321 -325Q321 -333 327 -341Q321 -360 311 -375H324Q325 -378 326 -381Q341 -386 358 -386Q386 -386 409 -375Q433 -365 435 -344ZM937 -200Q935 -190 929 -181Q921 -183 921 -194Q921 -207 932 -207H935Q937 -203 937 -200ZM966 -361Q963 -352 944 -350V-351Q944 -357 948 -360Q953 -364 958 -364Q963 -364 966 -361ZM675 -357Q693 -338 698 -331Q709 -316 713 -296Q791 -314 869 -332Q877 -330 879 -330Q887 -330 903 -338Q921 -347 932 -347H935Q927 -341 917 -335Q908 -330 907 -321V-319H909Q920 -321 931 -323Q930 -320 927 -319Q922 -318 922 -315V-314Q925 -311 930 -311Q933 -311 935 -313Q932 -305 932 -297Q933 -283 933 -270Q933 -251 926 -242Q907 -235 880 -234Q853 -233 828 -230Q784 -220 740 -210Q771 -181 807 -146Q842 -111 882 -90Q884 -94 887 -103Q891 -116 896 -120V-113Q896 -101 900 -94Q904 -113 904 -152Q905 -200 909 -217Q913 -200 913 -174Q913 -146 912 -118Q912 -94 914 -84Q919 -90 919 -105Q918 -123 917 -141Q917 -158 924 -165Q926 -135 927 -104Q927 -73 933 -48Q937 -48 938 -51Q940 -54 940 -58Q946 -44 946 -28Q955 -3 960 21Q960 30 953 50Q946 71 946 85V90Q938 93 938 96L939 100Q935 98 934 98Q930 98 930 102V103Q918 96 913 96Q909 96 906 98Q890 86 873 74Q857 62 843 45Q826 19 811 -15Q772 -85 737 -118Q734 -107 734 -92Q735 -71 735 -50Q735 -27 729 -15L727 11Q736 12 736 22Q736 32 737 44Q740 77 740 84Q740 116 723 121Q720 122 716 122Q710 122 702 117Q691 110 684 110Q673 95 660 80Q647 65 643 41Q642 30 642 19Q641 7 632 0Q633 -2 637 -2H643Q645 -14 650 -74Q628 -58 610 -31Q592 -5 567 14L552 32Q534 78 495 112Q469 105 458 78H443V75Q445 68 449 63Q444 53 428 2Q405 -69 398 -81L399 -82Q400 -82 416 -51Q439 -6 442 -6H443Q440 -29 419 -73Q404 -104 400 -120Q406 -117 412 -106Q419 -96 422 -90Q444 -54 472 -39Q539 -76 603 -167Q598 -169 592 -171Q575 -171 548 -159Q521 -147 506 -147Q502 -147 498 -148Q487 -149 473 -160Q456 -173 439 -173Q427 -181 427 -194Q431 -212 440 -229Q444 -240 448 -251Q454 -259 474 -265Q489 -269 494 -274Q494 -269 489 -267Q485 -265 485 -261V-260Q497 -258 504 -258Q521 -258 558 -266Q588 -273 606 -274Q603 -299 590 -317Q593 -319 609 -338Q595 -344 588 -350Q575 -367 575 -378Q575 -396 587 -405Q597 -412 607 -412Q618 -412 646 -399Q653 -399 658 -404Q663 -394 669 -385Q675 -375 676 -364Q676 -359 675 -357ZM666 -468Q668 -453 669 -439Q657 -417 632 -417Q608 -417 599 -437H581Q582 -442 589 -444Q588 -448 581 -454Q572 -463 572 -470Q572 -481 586 -490Q600 -499 617 -499H624Q638 -496 646 -488Q654 -479 662 -472Q676 -494 712 -519H706Q678 -518 642 -510Q606 -502 570 -496Q555 -478 555 -437Q555 -417 561 -354Q557 -350 551 -346Q546 -343 545 -335Q545 -331 546 -329H544Q524 -325 509 -321H506Q499 -321 490 -329Q481 -337 476 -338Q476 -349 459 -353Q467 -365 467 -383Q462 -426 457 -469Q450 -469 443 -470Q428 -470 416 -466Q423 -447 437 -429Q427 -404 426 -398H392Q376 -400 351 -420Q331 -436 323 -436Q315 -436 304 -428Q295 -422 290 -420Q301 -398 305 -376V-354Q304 -350 298 -348Q293 -346 291 -342H278Q269 -330 251 -330Q222 -335 193 -340Q175 -340 167 -323V-328Q167 -341 158 -348Q150 -354 138 -354Q117 -354 111 -339V-342Q111 -352 117 -358Q101 -368 85 -378Q83 -377 80 -373Q76 -368 72 -367V-372Q72 -385 78 -390Q68 -408 64 -430Q64 -437 68 -444Q58 -451 44 -456Q75 -462 93 -480Q90 -488 82 -499Q71 -512 69 -521Q88 -509 103 -495Q120 -500 136 -506Q136 -514 131 -552Q137 -537 143 -522Q148 -506 167 -505Q171 -505 174 -506Q176 -507 178 -512Q180 -517 183 -518Q185 -510 186 -502Q208 -499 222 -492Q332 -521 442 -550V-551Q440 -557 437 -563Q437 -564 439 -568H430Q390 -568 362 -543Q360 -544 356 -544Q348 -544 342 -540Q312 -559 281 -578Q263 -626 244 -666L248 -667Q251 -667 258 -660Q264 -654 269 -653Q272 -653 272 -656Q273 -659 275 -660Q270 -669 252 -681Q238 -691 232 -699Q256 -695 279 -691H281Q280 -695 276 -697Q272 -699 269 -700Q283 -702 309 -713Q341 -726 362 -726Q368 -725 374 -725V-724L422 -717Q439 -732 470 -732Q478 -732 481 -731Q485 -739 506 -739Q513 -739 514 -738Q526 -745 543 -745Q559 -745 574 -747Q586 -751 598 -756Q633 -761 672 -763Q693 -770 711 -774H713Q713 -771 712 -769Q712 -757 727 -757Q734 -757 771 -768Q765 -761 752 -756Q739 -750 737 -736Q739 -734 741 -734Q751 -737 761 -741Q763 -741 767 -739Q762 -735 755 -733Q748 -731 747 -723V-719Q751 -717 752 -717Q759 -718 765 -720V-719Q765 -716 759 -710Q752 -703 752 -698Q752 -694 755 -691L757 -690Q760 -690 763 -691H765Q756 -688 753 -679Q750 -670 747 -659Q744 -651 733 -639Q723 -627 719 -618H707Q636 -618 555 -591Q561 -580 567 -570Q643 -587 660 -588Q666 -588 672 -589Q683 -589 688 -584L761 -594Q763 -604 772 -605Q781 -606 789 -607Q802 -612 815 -618H822Q824 -618 856 -613Q868 -621 882 -621H885L887 -619Q886 -617 884 -615Q906 -626 928 -637Q923 -629 913 -623Q904 -618 903 -607V-604H904Q906 -604 909 -607Q915 -613 919 -613H921L922 -610Q919 -602 916 -594Q935 -556 953 -519Q943 -499 943 -487V-483Q930 -477 916 -472Q896 -468 876 -466H873Q812 -466 750 -412Q742 -415 733 -428Q722 -443 714 -443H712L710 -444Q711 -446 712 -449Q702 -455 684 -455L682 -456Q685 -459 688 -467V-468Q686 -470 681 -470Q676 -470 666 -468Z"/>
</svg>