<svg xmlns="http://www.w3.org/2000/svg" viewBox="0 -800 1024 1024">
	<path fill="#000000" d="M550 6Q538 9 536 9Q528 9 523 3Q526 -1 533 -1Q547 -1 550 6ZM465 -620V-619Q465 -609 455 -609Q451 -609 443 -611V-612Q445 -623 456 -623Q462 -623 465 -620ZM899 -633Q898 -627 892 -621Q886 -614 884 -610Q879 -615 879 -621Q879 -626 883 -631Q886 -635 892 -635Q895 -635 899 -633ZM328 -19H331Q333 -33 334 -47V-51Q331 -52 326 -52Q301 -52 301 -12Q313 -16 328 -19ZM341 -120V-130Q342 -148 342 -167Q342 -177 341 -182Q320 -150 320 -133Q320 -124 324 -117Q326 -119 333 -119Q339 -119 341 -120ZM278 -387H282Q285 -373 291 -365Q298 -376 310 -377Q304 -363 304 -348Q304 -332 310 -320Q320 -321 329 -323Q339 -336 339 -357Q339 -396 313 -407Q319 -414 325 -421L324 -423Q290 -407 261 -389Q270 -388 278 -387ZM541 -69H540Q535 -69 506 -82Q482 -92 474 -92Q462 -109 462 -126Q462 -138 471 -143V-148Q471 -185 500 -195Q503 -194 504 -189Q506 -182 509 -182Q536 -190 560 -204Q583 -218 607 -233Q625 -239 642 -246Q663 -257 687 -272Q711 -288 741 -290Q706 -275 702 -272Q683 -260 676 -243Q687 -252 710 -257Q702 -250 692 -243Q683 -235 682 -223V-221Q686 -226 695 -229L699 -228V-227Q699 -223 693 -216Q686 -208 685 -204Q690 -190 694 -176Q662 -161 625 -143Q588 -125 566 -99Q562 -92 556 -82Q551 -71 541 -69ZM883 -264L855 -160Q843 -120 827 -79Q812 -39 810 4Q810 19 813 34Q794 43 786 50Q774 62 773 80Q745 86 737 116Q714 111 684 101Q676 94 666 76Q653 52 640 46Q642 42 643 38Q629 22 603 19Q577 16 563 8Q599 11 632 16Q615 6 564 -5Q526 -13 506 -22H509Q531 -22 567 -13Q605 -3 626 -3Q597 -23 556 -30Q515 -38 475 -48Q482 -49 494 -49Q519 -49 557 -38Q595 -27 615 -27Q625 -27 630 -28Q654 -30 674 -60Q683 -74 702 -115Q732 -182 752 -263Q772 -344 791 -415Q757 -414 727 -406Q696 -397 668 -389Q621 -375 581 -341Q591 -341 601 -342Q620 -342 630 -339Q614 -337 614 -316Q615 -306 615 -296Q615 -289 614 -286Q613 -275 611 -269Q609 -263 598 -256Q593 -257 584 -257Q565 -257 531 -245L529 -248Q529 -249 532 -252Q525 -256 516 -256Q504 -256 490 -249Q491 -255 495 -259Q498 -262 505 -264Q503 -276 490 -276Q484 -276 481 -274Q485 -279 494 -283Q492 -288 485 -297Q494 -301 494 -312Q494 -319 492 -323Q505 -338 552 -340H556Q540 -349 529 -359Q515 -378 500 -397Q503 -403 503 -408Q500 -422 497 -437V-439Q498 -449 507 -467Q519 -491 519 -504V-509Q521 -511 522 -513Q524 -516 528 -516Q526 -522 526 -525Q526 -537 534 -545Q533 -548 533 -555Q538 -586 543 -618Q543 -634 534 -644Q517 -638 506 -614V-618Q507 -637 518 -657Q529 -677 538 -697Q542 -716 550 -731Q558 -739 570 -747Q579 -756 592 -768Q605 -779 624 -780Q632 -780 645 -775Q665 -766 693 -707Q700 -694 706 -682V-677Q704 -662 701 -648Q701 -640 706 -635Q666 -599 646 -527Q626 -522 626 -494V-489Q709 -515 737 -522Q757 -527 783 -537Q824 -552 844 -556Q854 -567 862 -580Q870 -593 884 -600Q867 -576 867 -563Q867 -557 868 -554H870Q878 -558 886 -563V-560Q885 -551 884 -542Q892 -534 902 -534Q904 -534 930 -541L932 -539Q929 -532 925 -525V-524H928Q934 -524 941 -532Q949 -541 958 -541H962Q947 -532 946 -513Q946 -501 956 -501Q954 -487 951 -473V-470Q952 -458 963 -437Q972 -421 972 -414Q972 -409 966 -399Q961 -391 960 -384Q928 -377 909 -340Q899 -320 883 -264ZM437 67V69Q435 80 425 86Q416 92 409 96Q382 88 380 87Q366 81 360 70H351Q342 59 338 41L334 40Q329 42 324 47Q316 45 314 45Q297 49 283 60H275Q271 60 268 64Q247 56 232 41Q213 31 203 16Q195 -1 188 -18Q180 -35 159 -39V-40L160 -39Q180 -46 183 -79Q187 -120 193 -129Q202 -140 214 -149Q235 -173 252 -197Q255 -195 258 -195Q261 -195 264 -198Q269 -203 274 -203H277V-201Q276 -196 274 -192Q277 -189 289 -188Q300 -187 303 -185Q314 -195 336 -228Q230 -212 178 -164Q164 -149 147 -128Q130 -108 107 -104H104Q66 -108 36 -125Q21 -137 21 -159Q21 -172 29 -182Q28 -186 28 -194Q28 -210 36 -236Q42 -242 62 -252Q77 -259 85 -267Q100 -284 113 -301Q127 -318 150 -326Q149 -319 131 -302Q116 -287 115 -270Q123 -272 132 -284Q141 -296 147 -296Q144 -285 140 -275Q182 -288 224 -302Q208 -327 197 -341V-343Q197 -351 202 -355Q207 -358 211 -362H209Q207 -362 194 -357H182Q175 -357 169 -359Q152 -367 133 -386Q111 -407 110 -420V-424Q111 -437 117 -449Q124 -460 129 -473Q127 -487 127 -494Q127 -523 149 -544Q163 -558 194 -572Q189 -563 183 -554Q229 -562 277 -578V-582Q273 -601 265 -618Q262 -627 262 -634Q262 -643 252 -644H251Q245 -644 241 -636Q237 -629 232 -629Q229 -629 227 -630Q239 -644 245 -662Q226 -659 217 -647Q207 -635 196 -624Q200 -651 217 -670Q234 -690 249 -708Q258 -722 267 -737Q283 -761 313 -764Q326 -764 335 -756Q340 -752 348 -739Q360 -720 371 -713Q385 -705 398 -695Q412 -685 418 -668Q415 -657 404 -641Q389 -618 387 -601H389Q394 -601 406 -605Q421 -610 436 -610Q433 -606 424 -601Q412 -595 411 -587Q416 -585 421 -584V-583Q418 -576 415 -570V-569Q417 -558 428 -558H431Q424 -552 424 -535Q424 -525 427 -504Q413 -490 411 -460Q404 -456 391 -453Q374 -449 369 -443Q378 -446 384 -446Q404 -445 416 -427Q428 -409 439 -393Q422 -390 422 -370Q422 -367 424 -359Q408 -350 402 -341Q424 -349 456 -349Q473 -349 485 -346V-336Q485 -329 488 -327Q475 -318 468 -303Q460 -288 452 -273L451 -271Q454 -266 456 -262L455 -261H449Q437 -261 425 -251Q430 -240 431 -240Q439 -243 447 -247L451 -246Q450 -243 444 -239Q438 -235 437 -230Q439 -227 440 -224V-222L442 -221Q444 -222 446 -224H448Q448 -210 447 -197Q447 -183 451 -174Q418 -137 418 -69Q418 -43 421 -10Q429 29 437 67Z"/>
</svg>