<svg xmlns="http://www.w3.org/2000/svg" viewBox="0 -800 1024 1024">
	<path fill="#000000" d="M615 -238Q616 -253 628 -277Q641 -302 641 -315Q641 -325 637 -334Q601 -323 593 -317Q580 -307 569 -295Q557 -284 544 -283Q537 -283 529 -287Q514 -297 504 -322Q490 -323 480 -337Q470 -351 470 -368Q470 -390 482 -403Q481 -418 480 -433V-437Q481 -453 500 -471Q512 -483 516 -492Q511 -503 505 -515Q517 -510 528 -501Q539 -492 556 -491H560Q581 -491 621 -509Q649 -521 660 -524Q655 -583 653 -592Q646 -626 624 -635L623 -639Q624 -644 625 -650Q621 -660 611 -660Q597 -660 584 -645Q585 -656 597 -677Q609 -698 612 -710Q618 -735 619 -738Q623 -747 637 -755Q645 -760 659 -773Q677 -790 682 -791Q692 -793 697 -793Q725 -793 737 -776H743Q761 -776 771 -760Q779 -747 779 -727L790 -699Q798 -691 798 -680Q798 -668 785 -644Q774 -623 771 -614Q766 -586 762 -555Q835 -578 896 -601Q900 -601 900 -598Q901 -595 901 -592Q912 -593 929 -598Q953 -605 967 -605Q964 -599 949 -593Q931 -586 931 -576Q931 -564 949 -564H958Q958 -560 951 -554Q939 -544 939 -535Q941 -515 959 -515H961Q955 -501 948 -488Q951 -481 954 -475V-473Q943 -469 942 -466Q941 -449 935 -441Q928 -432 921 -422Q886 -419 859 -413L781 -400Q768 -389 741 -379Q714 -370 704 -362Q733 -343 734 -307Q768 -311 787 -320Q797 -327 806 -335Q816 -343 831 -344H834Q839 -343 844 -343Q857 -343 868 -354Q868 -348 867 -343Q867 -337 870 -334H872Q889 -335 899 -342Q909 -349 920 -354V-353Q920 -348 911 -341Q899 -331 899 -323V-322Q899 -315 908 -304Q913 -297 915 -293Q931 -300 934 -300H937Q922 -280 922 -273Q922 -264 929 -259Q928 -231 917 -205Q906 -193 888 -182Q869 -164 850 -121Q827 -70 817 -56L797 8Q793 24 787 44Q780 64 779 89Q757 93 751 113Q745 114 725 122Q712 131 701 134H698Q685 132 677 117Q668 101 658 90V77Q652 68 645 46Q637 23 631 14Q637 14 643 22Q648 28 652 30Q644 10 631 -7Q617 -20 610 -42Q620 -35 633 -17Q650 5 661 12V10Q661 1 651 -9Q644 -16 644 -22V-24H646Q649 -24 652 -18Q654 -14 657 -12Q667 -7 676 -2Q715 -62 765 -188H760Q751 -188 735 -181Q724 -176 716 -176H713Q708 -177 701 -183Q693 -190 688 -190Q678 -190 653 -149Q635 -117 576 10Q566 33 546 44Q542 42 537 42Q525 44 513 46Q509 51 505 55Q503 55 501 53Q501 40 487 19Q472 -4 472 -19Q472 -29 476 -40Q468 -52 468 -65V-68H471Q476 -64 480 -61L481 -62Q473 -88 465 -114Q480 -89 495 -65V-67Q495 -74 489 -88Q483 -102 483 -111Q483 -117 485 -120Q497 -100 508 -81Q520 -93 527 -113Q540 -131 555 -148Q570 -166 580 -185Q583 -192 586 -199Q589 -206 598 -206H601ZM253 -206Q253 -221 245 -228Q233 -219 229 -208Q229 -203 233 -199Q243 -202 253 -206ZM288 -222H300Q308 -242 312 -258V-261L308 -262Q293 -262 288 -222ZM242 -268V-287Q242 -297 240 -300Q215 -289 189 -278Q197 -260 203 -255Q222 -263 242 -268ZM342 -328Q337 -332 329 -332Q308 -328 289 -319Q291 -312 291 -290Q308 -293 324 -296Q327 -303 342 -328ZM253 -116Q254 -116 255 -117Q265 -122 263 -119Q264 -118 268 -118Q277 -118 281 -120Q310 -141 340 -146Q366 -160 406 -173Q447 -186 466 -193Q469 -185 462 -167Q457 -155 458 -150Q452 -147 450 -133Q450 -130 454 -127Q458 -124 458 -120H456Q453 -120 453 -117Q456 -109 459 -101Q440 -89 369 -58Q292 -24 270 -10L249 4Q232 16 215 28Q198 40 191 61L154 53Q148 43 142 32Q115 29 97 10Q97 2 96 -6Q94 -26 105 -30Q104 -37 103 -45Q104 -72 120 -87Q136 -101 152 -114Q155 -95 167 -91Q190 -96 213 -101Q205 -105 197 -109H189Q177 -113 160 -125Q141 -138 140 -146L128 -161H112Q101 -184 90 -192Q77 -202 50 -202H45Q35 -234 22 -255L37 -291Q30 -305 22 -318Q14 -330 13 -350Q19 -345 27 -334Q36 -321 43 -316Q20 -347 17 -365Q28 -365 35 -350Q40 -339 46 -336V-338Q46 -340 42 -345Q37 -352 37 -358V-360Q45 -356 56 -345Q64 -350 73 -350Q92 -347 110 -344H114Q124 -345 134 -351Q144 -358 154 -362Q176 -373 183 -373Q194 -378 204 -383L207 -390L205 -391Q201 -390 196 -389L193 -390Q205 -414 237 -451Q263 -482 273 -497Q238 -492 212 -470Q197 -457 170 -422Q149 -418 128 -414V-416Q130 -419 131 -423Q118 -433 110 -447H106Q101 -447 97 -441Q93 -436 88 -436H86Q93 -450 103 -462Q98 -473 95 -476Q77 -469 59 -463Q73 -478 86 -494Q83 -495 77 -495Q64 -495 46 -481Q31 -469 23 -468Q49 -504 85 -538Q122 -571 139 -618Q140 -621 140 -631V-646Q155 -657 168 -671Q181 -684 187 -705Q199 -698 211 -695L215 -696Q242 -665 291 -654Q295 -630 299 -607Q299 -593 293 -585Q297 -584 300 -584Q311 -584 329 -594Q345 -603 353 -603Q365 -603 374 -591Q381 -594 387 -597Q386 -590 386 -579Q386 -569 391 -564H392Q400 -567 405 -571L406 -570V-567Q406 -559 401 -556Q397 -553 394 -548Q404 -525 404 -506Q404 -492 398 -477Q390 -471 381 -466Q371 -461 366 -451Q357 -454 348 -454Q329 -453 316 -441Q303 -428 291 -416L294 -415Q300 -415 306 -416Q311 -416 312 -413L333 -414Q334 -427 350 -431Q370 -436 373 -442Q396 -426 400 -423Q416 -413 430 -413Q441 -413 449 -417Q446 -410 442 -404Q446 -396 452 -388V-381Q452 -367 459 -341Q466 -315 466 -302Q466 -291 463 -281Q427 -271 407 -240Q386 -209 366 -183Q361 -184 356 -190Q352 -195 350 -196Q344 -182 344 -170Q321 -163 296 -156Q271 -150 257 -133V-127Q257 -120 253 -116Z"/>
</svg>