<svg xmlns="http://www.w3.org/2000/svg" viewBox="0 -800 1024 1024">
	<path fill="#000000" d="M553 -19V-17Q546 -20 538 -24V-25Q539 -27 540 -30L539 -32H541Q545 -31 548 -30H550Q552 -24 553 -19ZM842 -727H845Q843 -711 829 -711Q825 -711 823 -712Q825 -727 842 -727ZM728 -236Q726 -203 722 -180Q758 -185 800 -185H805Q811 -185 811 -181L832 -177Q832 -186 845 -186H851Q860 -194 880 -200Q883 -200 883 -197Q887 -199 892 -207Q897 -214 903 -215V-210Q903 -201 908 -197Q912 -194 919 -194Q931 -194 943 -195H947Q943 -192 939 -189Q934 -186 934 -180V-177Q934 -173 938 -173Q942 -173 945 -174Q948 -174 950 -172Q945 -159 945 -153Q946 -148 952 -138Q959 -127 959 -123Q947 -106 940 -84Q935 -80 928 -80Q912 -83 895 -90Q857 -99 823 -96Q772 -92 724 -80Q726 -42 728 -5Q728 -2 726 8L730 26Q736 30 739 49Q741 66 747 71Q736 93 711 114Q704 120 698 126Q692 132 684 133Q679 133 671 128Q660 120 649 106Q638 92 620 91Q614 70 597 59Q580 48 568 33Q580 34 593 45Q605 56 614 57Q601 40 569 20Q536 -1 525 -14Q543 -8 573 10Q597 24 606 28Q600 20 583 7Q567 -5 560 -14Q571 -14 586 -2Q603 11 616 11H618Q630 0 632 -28Q634 -57 639 -75Q635 -76 627 -76Q594 -76 544 -63Q513 -57 482 -52Q472 -50 461 -49Q448 -44 437 -33Q426 -22 418 -12Q415 -15 413 -15Q408 -12 402 -9H398Q373 -9 363 -33Q346 -34 340 -43Q335 -50 335 -66Q336 -84 336 -102Q336 -116 334 -123Q341 -130 349 -139Q356 -148 367 -152Q371 -154 379 -154H387Q394 -154 397 -155Q404 -157 421 -166Q441 -177 453 -177H458Q449 -172 440 -166Q431 -161 428 -149Q432 -147 434 -147Q448 -149 461 -152Q469 -152 473 -147L490 -146Q491 -153 498 -153H507Q537 -159 645 -172Q647 -196 647 -222L620 -224Q621 -216 608 -214L603 -213Q563 -200 550 -192Q543 -184 535 -180H533Q523 -179 514 -185Q505 -191 495 -195Q492 -209 477 -220Q478 -223 473 -243Q472 -248 467 -254Q461 -262 459 -270V-271Q464 -276 469 -284Q475 -294 479 -297Q486 -323 521 -444Q512 -451 496 -472Q480 -492 469 -501V-497Q469 -486 467 -480Q454 -478 447 -467Q439 -457 432 -449Q408 -430 392 -404Q387 -395 367 -344Q413 -320 424 -310Q450 -287 450 -248Q450 -236 444 -221Q437 -203 426 -198Q418 -194 405 -194H401Q389 -194 383 -192Q345 -179 298 -154Q281 -146 275 -140Q267 -132 264 -118Q262 -110 263 -104Q270 -73 270 -20Q270 -15 269 -11Q262 5 254 20Q247 48 244 53Q232 55 227 55Q198 55 162 36Q160 22 152 15Q144 7 135 0Q132 -17 128 -34Q125 -39 120 -45Q116 -50 115 -56Q120 -66 133 -77Q140 -87 159 -126Q162 -132 165 -139Q168 -146 174 -150L182 -182V-204Q182 -217 185 -231Q191 -241 195 -261Q195 -270 194 -279Q194 -290 201 -294Q206 -281 210 -269H211Q213 -270 215 -272H217Q234 -258 239 -252Q246 -243 251 -222Q286 -240 321 -255Q310 -263 290 -270Q261 -281 251 -292Q246 -299 244 -308Q243 -312 243 -320Q244 -345 257 -364Q269 -383 278 -404Q274 -402 271 -400Q267 -399 267 -394V-392Q211 -371 165 -339Q158 -332 149 -325Q140 -318 129 -317H125Q96 -321 84 -336Q76 -349 67 -363Q54 -375 41 -388Q28 -402 27 -423Q27 -433 31 -444Q36 -455 43 -465Q50 -475 51 -487V-492Q49 -499 47 -506Q48 -517 53 -524Q59 -530 64 -539Q82 -541 104 -559Q127 -577 146 -579Q141 -573 140 -572Q155 -579 168 -590Q181 -601 198 -602Q189 -592 179 -584Q168 -576 162 -564Q166 -557 172 -557Q186 -561 199 -565Q251 -581 262 -584Q281 -588 299 -593Q335 -600 365 -620H380Q399 -620 405 -614Q421 -623 442 -629Q441 -624 434 -618Q427 -612 427 -608Q427 -606 429 -602L432 -600Q437 -603 442 -606L444 -605Q442 -601 442 -593Q442 -584 447 -572L448 -571Q451 -572 453 -573H454Q454 -569 465 -526Q472 -573 472 -607Q489 -623 521 -633Q552 -643 581 -652Q581 -660 566 -677Q549 -696 552 -706Q554 -714 553 -731Q551 -754 560 -766Q580 -780 597 -786Q624 -801 667 -784Q672 -782 680 -774Q690 -764 696 -763Q702 -767 708 -771Q708 -763 707 -756Q709 -747 717 -748Q715 -743 715 -734Q717 -726 718 -721Q714 -713 712 -705L713 -701Q712 -700 710 -699Q714 -699 718 -700Q745 -705 774 -707L775 -705Q772 -701 769 -698V-697Q788 -705 811 -707H815Q814 -706 796 -695Q783 -687 783 -676Q783 -671 784 -668Q795 -674 808 -676H812Q811 -670 804 -663Q796 -655 796 -651Q796 -647 799 -643L800 -642Q803 -643 805 -644L808 -643Q800 -630 800 -621Q800 -615 805 -610Q797 -587 793 -559Q793 -544 802 -536Q790 -518 761 -518H758L738 -517Q730 -508 717 -504Q704 -500 692 -497Q673 -492 614 -467Q600 -419 585 -372Q592 -377 599 -383Q609 -389 616 -400Q612 -402 611 -402Q606 -399 601 -397V-399Q601 -402 611 -417Q628 -442 639 -451Q645 -456 654 -467Q664 -479 672 -484L680 -479Q682 -475 684 -472Q690 -464 691 -463Q693 -463 704 -461Q709 -448 718 -442H720Q723 -442 726 -443H728Q728 -439 727 -435Q731 -420 739 -406Q730 -403 730 -391Q730 -385 732 -382Q726 -378 724 -371Q763 -386 768 -394Q783 -391 799 -382Q804 -398 803 -404Q802 -404 802 -403Q802 -404 801 -405Q801 -415 818 -393Q818 -408 812 -429Q810 -436 807 -444Q806 -449 809 -455Q817 -441 823 -420Q828 -403 837 -387Q840 -394 838 -400Q831 -418 824 -437Q823 -444 824 -450Q833 -438 841 -409Q848 -383 856 -375Q866 -364 876 -353Q877 -348 877 -343Q882 -329 887 -315Q888 -308 886 -297Q884 -284 886 -274Q887 -270 888 -266Q869 -256 850 -246Q847 -244 843 -243Q836 -243 828 -246Q819 -248 790 -248Q774 -248 728 -236ZM639 -342Q637 -355 631 -358L632 -362Q632 -369 622 -377Q599 -373 584 -365Q578 -344 571 -323Q595 -327 639 -342Z"/>
</svg>