<svg xmlns="http://www.w3.org/2000/svg" viewBox="0 -800 1024 1024">
	<path fill="#000000" d="M299 -445Q298 -437 292 -436Q284 -434 277 -433Q262 -429 240 -412Q217 -396 201 -386Q139 -351 131 -328Q122 -321 109 -326Q84 -341 81 -345Q71 -357 68 -388V-409Q68 -426 67 -434Q67 -438 66 -442Q66 -471 86 -486Q94 -504 102 -523Q105 -532 108 -542Q112 -552 121 -553L132 -580Q128 -583 128 -592Q128 -597 131 -603Q134 -609 138 -609Q137 -611 137 -614Q138 -620 138 -626V-628L136 -629Q130 -626 123 -624H122Q129 -646 137 -664Q147 -674 161 -682Q189 -709 193 -713Q212 -713 219 -710Q231 -691 245 -667Q260 -643 261 -610Q261 -602 260 -597Q253 -572 245 -555Q271 -568 300 -583Q330 -598 355 -617Q353 -609 350 -602Q354 -603 360 -609Q369 -618 375 -618Q378 -618 381 -617Q376 -610 371 -605Q365 -601 363 -591Q367 -581 375 -581Q382 -581 388 -582H390Q382 -558 382 -554Q382 -544 390 -543Q388 -534 386 -525V-518Q386 -508 379 -464Q354 -454 332 -452L315 -448ZM818 -392V-410Q811 -395 802 -382Q794 -369 790 -350Q780 -343 779 -339Q781 -293 781 -246Q782 -199 791 -162Q795 -164 800 -164Q802 -164 806 -162Q807 -191 812 -263Q818 -346 818 -392ZM416 -51Q415 -48 408 -48Q404 -48 400 -50V-55Q400 -62 404 -63Q408 -62 411 -57Q414 -52 416 -51ZM928 -659Q926 -649 916 -644Q915 -645 915 -652Q917 -663 922 -668Q928 -666 928 -659ZM690 -436Q697 -448 717 -468Q720 -466 724 -466Q734 -467 740 -476Q747 -486 753 -489L769 -505Q775 -523 789 -539Q796 -547 817 -567Q835 -581 850 -597Q854 -603 858 -610Q861 -617 868 -620Q876 -616 884 -612Q888 -612 892 -615V-606Q902 -619 912 -637Q905 -620 900 -594Q900 -590 904 -580Q909 -600 919 -606Q914 -598 914 -583Q914 -581 917 -557L918 -556V-560Q918 -563 921 -563H922Q924 -562 924 -559Q923 -554 922 -549Q922 -539 929 -520Q936 -503 937 -495Q940 -465 945 -436Q939 -427 933 -405Q925 -374 918 -367L915 -350V-343Q912 -301 903 -257Q901 -224 898 -191Q894 -153 890 -116Q889 -108 889 -92Q890 -63 890 -35V-18Q883 31 873 75Q868 75 866 78Q858 69 849 58Q841 47 829 39Q826 28 823 16L822 15Q820 17 818 19L817 18Q816 1 814 -17Q812 -35 803 -38H802Q792 -36 788 -17Q783 3 778 15Q745 2 735 -36Q724 -76 712 -113Q720 -130 720 -156Q715 -213 710 -270L707 -291Q690 -332 689 -336Q680 -364 680 -391V-400Q679 -396 677 -393Q640 -382 621 -369Q609 -361 595 -353Q581 -345 572 -333Q559 -310 553 -282Q547 -254 538 -224L524 -202Q522 -195 520 -188Q522 -177 538 -175Q550 -173 553 -170Q562 -188 594 -288Q592 -302 592 -309Q592 -317 594 -321Q597 -324 601 -324H603Q608 -348 634 -348Q644 -348 650 -342Q660 -331 662 -289Q663 -258 668 -246Q665 -230 661 -214Q661 -211 663 -207Q630 -186 624 -132Q642 -122 653 -110Q657 -115 657 -127Q657 -137 656 -147Q656 -153 658 -159Q661 -133 664 -107Q668 -108 668 -115Q668 -122 667 -130Q667 -136 668 -138Q673 -94 685 -69Q696 -38 699 3V5Q698 14 690 28Q681 43 680 52H678Q659 51 649 38Q640 24 631 10L624 0Q616 -10 608 -21Q600 -37 591 -40Q586 -40 581 -32Q573 -21 561 22Q548 69 538 81Q535 75 523 67Q513 60 509 54Q503 39 496 24Q485 10 474 3Q461 0 448 -12H450Q457 -12 469 -7Q479 -3 487 -3H491Q472 -13 452 -23Q443 -27 434 -32Q425 -38 421 -48Q461 -30 491 -23Q487 -32 476 -41L480 -42Q486 -40 492 -38Q505 -53 514 -77Q512 -79 508 -79Q497 -77 494 -63Q491 -62 485 -62Q469 -62 460 -75Q443 -107 443 -156V-161Q445 -193 458 -220Q472 -247 478 -268Q470 -270 468 -270Q456 -269 452 -259Q447 -250 439 -242Q426 -236 413 -227Q385 -265 377 -285Q366 -274 366 -273Q372 -233 363 -207Q355 -188 342 -185Q323 -178 306 -158Q299 -119 300 -91Q322 -107 349 -132Q368 -151 386 -163Q377 -145 367 -127L368 -124L370 -123Q383 -132 394 -133Q383 -114 383 -87Q384 -61 383 -53Q374 -33 363 -22Q341 8 322 15L315 20V21Q315 28 309 33Q303 38 297 44Q287 56 276 68Q258 86 247 86Q233 86 230 65Q217 65 204 54Q189 42 189 28Q189 24 184 14Q178 3 181 -2Q180 -5 189 -11Q198 -17 198 -20Q198 -50 227 -67L228 -75Q225 -96 221 -118H217Q214 -117 200 -105Q178 -86 166 -79Q140 -67 129 -81Q125 -109 115 -124L120 -147Q117 -155 106 -169Q97 -180 93 -190Q107 -182 120 -174L121 -176Q120 -180 119 -184V-186Q123 -182 127 -183Q143 -185 181 -208Q206 -223 219 -228Q219 -252 214 -262Q201 -253 180 -245Q179 -245 173 -241Q166 -236 159 -235Q156 -234 151 -237Q144 -248 134 -251Q128 -253 109 -253Q109 -268 118 -275Q117 -279 117 -286Q117 -321 158 -333Q177 -349 184 -353Q223 -369 260 -389Q269 -391 303 -411Q323 -423 334 -427V-426Q332 -425 331 -422H334Q342 -425 349 -429H350Q343 -417 344 -407Q344 -401 348 -397Q352 -400 356 -403Q352 -395 353 -388Q356 -378 361 -373Q351 -354 354 -325Q352 -327 349 -326Q346 -326 345 -322Q344 -318 343 -315Q334 -311 323 -308Q315 -310 306 -312Q304 -289 302 -266Q323 -278 346 -295Q359 -301 371 -307Q369 -319 369 -326Q369 -332 373 -346Q379 -365 378 -375L377 -410Q377 -439 388 -467Q399 -485 410 -504Q414 -515 419 -525Q425 -536 434 -538Q413 -498 409 -477Q422 -488 428 -498V-497Q427 -486 425 -476Q425 -469 428 -465Q443 -467 458 -469Q461 -469 463 -469V-470Q465 -482 474 -482Q478 -482 479 -481Q482 -487 497 -490Q506 -492 510 -495Q513 -534 516 -573V-584Q515 -604 506 -618Q497 -632 489 -645Q493 -643 494 -643Q498 -646 502 -653Q502 -655 499 -657Q496 -659 496 -663V-665Q532 -701 561 -745Q586 -723 610 -702V-700Q610 -691 617 -670Q623 -652 623 -641V-632Q618 -591 613 -546V-543Q674 -562 721 -607Q723 -604 724 -602H725Q718 -593 707 -583Q696 -573 695 -558Q696 -553 696 -549Q703 -552 710 -556Q701 -547 701 -525Q702 -520 702 -515L703 -513Q705 -517 708 -517L710 -516V-515Q707 -506 700 -497Q694 -469 690 -436ZM375 -291Q374 -295 372 -300Q365 -293 362 -287Q364 -285 375 -291Z"/>
</svg>