<svg xmlns="http://www.w3.org/2000/svg" viewBox="0 -800 1024 1024">
	<path fill="#000000" d="M350 -162L339 -160Q330 -158 330 -147Q330 -140 333 -137Q334 -139 341 -140Q350 -142 350 -144Q348 -146 348 -149Q350 -154 351 -160ZM303 -128V-132Q303 -138 300 -146H298Q285 -144 283 -134Q283 -125 290 -120Q292 -124 303 -128ZM286 -214Q281 -233 276 -245Q261 -239 261 -222Q261 -214 268 -208Q277 -211 286 -214ZM338 -240V-238Q345 -241 351 -246Q357 -251 367 -251Q370 -273 373 -296Q373 -304 372 -308Q370 -308 367 -309Q352 -305 344 -296Q331 -288 316 -279Q302 -269 300 -256Q313 -258 326 -261Q335 -251 338 -240ZM979 -733Q963 -724 955 -723Q958 -738 968 -739Q975 -739 979 -733ZM719 -391V-394Q719 -400 722 -403Q628 -389 628 -367Q628 -361 637 -354Q681 -372 710 -375L709 -379Q712 -387 719 -391ZM755 -496V-493Q755 -486 760 -483Q783 -521 788 -547Q729 -525 698 -509Q646 -483 618 -454Q619 -447 625 -441Q692 -467 755 -496ZM928 -540Q914 -520 899 -499Q887 -470 864 -427Q827 -357 815 -319Q831 -323 851 -330Q870 -337 892 -338Q897 -337 902 -337Q893 -331 881 -323Q869 -315 868 -305Q868 -299 873 -294Q889 -301 893 -301H899Q899 -298 893 -292Q885 -284 884 -280Q887 -272 895 -271Q889 -266 883 -248Q877 -231 870 -225L869 -221Q869 -219 871 -211Q858 -211 850 -203Q835 -206 817 -206Q762 -206 734 -184V-181Q736 -173 737 -165Q745 -163 750 -163Q759 -163 769 -168L771 -166Q770 -163 769 -161V-160Q793 -167 815 -168Q803 -159 796 -148Q797 -145 805 -137Q818 -145 820 -145Q823 -145 826 -142Q819 -138 819 -120V-106Q812 -99 805 -93Q798 -87 797 -75H795Q788 -74 780 -73Q775 -73 773 -75H761Q758 -63 743 -63H740Q733 -59 732 -49Q731 -40 729 -31Q782 -30 844 -36Q878 -41 905 -57Q910 -61 917 -79Q921 -62 924 -46Q930 -41 940 -41Q953 -42 966 -44Q970 -43 973 -43Q953 -33 953 -20Q953 -15 960 -9Q965 -14 966 -14L969 -13Q967 -1 967 2Q969 23 979 41Q973 48 966 70Q956 102 941 107Q882 89 859 86L843 83Q798 76 745 76Q722 76 711 77Q684 80 657 83Q644 83 643 77L630 83Q583 98 551 127Q523 115 495 103Q491 74 475 54Q475 47 487 11Q489 5 491 -1Q491 -5 487 -8Q483 -11 483 -13Q501 -15 509 -15Q518 -15 544 -13Q549 -12 559 -12Q609 -16 655 -24Q653 -30 653 -46Q645 -42 638 -42Q628 -42 620 -49Q613 -55 602 -63Q595 -66 588 -70Q582 -78 579 -93Q578 -96 572 -99Q567 -102 566 -106Q607 -124 640 -134Q638 -145 636 -157Q631 -159 621 -159Q605 -159 584 -141Q567 -126 554 -126Q548 -126 545 -127Q537 -133 532 -148Q528 -160 525 -163Q516 -172 510 -177Q504 -183 504 -198V-206Q506 -229 520 -251Q533 -274 554 -285Q556 -284 556 -279V-275Q556 -270 561 -269Q586 -276 596 -276H598L600 -277Q619 -279 643 -282Q661 -290 681 -292Q738 -306 743 -307Q730 -320 713 -320Q696 -320 656 -301Q611 -280 597 -280Q581 -280 562 -298Q544 -316 528 -318Q530 -327 534 -334Q528 -353 522 -373Q514 -392 514 -399Q514 -407 519 -412L520 -425Q501 -428 485 -461Q470 -489 470 -514Q470 -546 493 -563Q526 -588 537 -588H540Q555 -587 564 -576Q574 -566 584 -558Q595 -571 640 -586Q634 -618 624 -645Q617 -657 607 -669Q597 -682 596 -693V-694Q596 -704 619 -729Q633 -748 649 -762Q679 -777 698 -777H701Q722 -777 738 -763Q768 -735 768 -706Q768 -702 767 -699Q765 -688 750 -670Q736 -652 735 -634Q759 -644 767 -648Q792 -663 813 -682Q833 -701 869 -703H878L892 -693Q902 -698 911 -703L913 -702Q910 -699 907 -691L908 -688Q915 -692 927 -702Q940 -713 948 -717Q942 -706 932 -696Q923 -687 922 -673Q922 -668 923 -666L925 -665Q928 -665 932 -670Q936 -675 939 -676Q936 -669 932 -663V-661Q933 -651 940 -644Q947 -638 952 -630Q957 -620 960 -597Q963 -575 967 -564Q960 -553 952 -542Q944 -544 942 -544Q933 -544 928 -540ZM409 -85Q462 -107 523 -126Q527 -116 519 -100Q513 -88 514 -83Q509 -81 505 -66Q505 -63 510 -60Q514 -57 515 -53H512Q509 -53 509 -50Q512 -42 515 -34Q493 -22 415 13Q332 50 309 63L287 77Q269 89 251 101Q234 113 226 134L187 126Q181 116 175 105Q145 102 127 83Q127 75 126 67Q126 46 135 43Q134 38 134 28Q135 1 151 -14Q168 -28 186 -41Q189 -22 201 -18Q228 -23 254 -29Q263 -37 282 -40Q282 -37 289 -41Q304 -49 303 -46Q304 -45 308 -45Q317 -45 321 -47Q349 -65 367 -70Q359 -72 348 -83H346L344 -81V-79Q341 -79 339 -84Q337 -89 335 -89Q312 -87 303 -83Q289 -76 288 -60Q281 -54 272 -54Q262 -54 242 -64Q220 -75 208 -75Q202 -75 199 -74Q201 -78 201 -85Q200 -96 199 -108V-112L188 -137H186Q179 -137 175 -143Q171 -148 167 -152Q149 -165 86 -181Q76 -196 76 -220Q76 -234 82 -245Q77 -263 74 -284V-287L92 -307V-309Q90 -321 88 -334Q88 -341 93 -344Q97 -340 102 -327Q106 -316 114 -313Q116 -312 121 -312Q133 -313 145 -314H151Q168 -312 179 -302Q202 -308 234 -335Q258 -356 273 -362Q273 -364 271 -365Q268 -365 268 -367Q285 -388 324 -449Q283 -438 246 -411Q221 -392 185 -356Q179 -356 170 -362Q160 -368 152 -368H148Q139 -405 118 -405Q116 -405 108 -403Q101 -409 94 -411Q89 -411 86 -409V-411Q89 -420 95 -428Q91 -431 86 -431Q80 -431 71 -425Q61 -418 55 -418Q62 -433 76 -440Q71 -444 63 -444Q54 -444 39 -435Q27 -428 24 -427Q27 -442 52 -460L86 -487Q109 -506 121 -514Q144 -529 163 -533L187 -553Q187 -555 186 -558Q186 -566 195 -578Q202 -587 203 -590V-592Q200 -600 196 -609V-610Q196 -615 207 -627Q219 -639 229 -643Q240 -648 259 -648Q290 -646 320 -644Q356 -598 363 -547Q369 -547 380 -553Q390 -558 396 -558Q401 -558 404 -557Q411 -565 417 -565Q424 -565 439 -549Q452 -535 459 -533Q457 -527 457 -524Q457 -512 468 -499Q467 -491 466 -483Q466 -480 468 -476Q454 -472 448 -461Q442 -449 435 -439Q450 -432 462 -422Q466 -424 470 -427Q476 -433 481 -433H483Q478 -423 478 -403Q478 -379 486 -358Q498 -329 502 -326Q485 -317 450 -244Q420 -179 418 -96Q415 -89 409 -85Z"/>
</svg>