<svg xmlns="http://www.w3.org/2000/svg" viewBox="0 -800 1024 1024">
	<path fill="#000000" d="M356 -496Q372 -490 379 -485Q388 -489 393 -496Q398 -504 404 -511Q401 -517 399 -532Q412 -515 427 -512Q439 -552 443 -560Q442 -546 441 -532Q441 -515 447 -508Q452 -510 453 -515Q454 -521 457 -525V-520Q457 -500 470 -492H471Q473 -492 473 -495Q473 -499 476 -499H478Q481 -489 493 -474Q505 -460 508 -450Q513 -452 518 -454H519Q523 -412 527 -371Q527 -359 526 -351Q512 -331 501 -327Q485 -332 468 -335Q451 -339 440 -347Q434 -345 428 -343H427Q424 -355 421 -367Q403 -366 403 -361Q402 -363 397 -368Q404 -373 410 -378Q405 -385 402 -393Q400 -401 391 -402L387 -403Q382 -400 377 -397L375 -398Q375 -402 383 -407Q390 -411 391 -416Q390 -419 385 -429Q379 -440 379 -448Q379 -450 381 -460Q364 -476 345 -490Q305 -467 297 -421Q363 -371 391 -341L396 -335Q402 -326 408 -317Q414 -304 414 -280V-268Q426 -281 460 -298Q471 -290 481 -283Q488 -291 493 -294H494Q491 -285 488 -277Q488 -274 489 -272L490 -271Q493 -272 496 -273L498 -271Q504 -232 510 -194Q493 -175 492 -174Q481 -160 481 -149V-145Q483 -135 494 -128Q505 -121 513 -113Q517 -119 520 -140Q524 -168 534 -175Q535 -170 538 -158Q540 -146 547 -145Q560 -157 573 -176Q632 -244 670 -323Q666 -330 662 -338Q638 -312 622 -277Q606 -243 587 -211L567 -205Q536 -218 534 -281Q533 -282 529 -282Q523 -281 517 -281H515Q541 -306 568 -328Q595 -351 614 -382H611Q602 -379 593 -377Q581 -377 573 -388Q566 -398 565 -413Q544 -424 543 -458Q543 -486 558 -497V-504Q559 -522 569 -536Q579 -550 587 -563Q581 -569 575 -575Q569 -580 568 -591V-593Q564 -598 552 -598Q547 -597 541 -597Q538 -597 535 -598Q538 -600 545 -602Q556 -605 558 -609Q553 -610 542 -610Q523 -610 515 -604L513 -607Q559 -626 603 -704Q606 -712 610 -720Q614 -729 623 -730Q640 -732 656 -735Q669 -733 680 -718Q692 -701 692 -683V-679Q690 -664 681 -647Q671 -630 663 -616Q637 -567 633 -555Q671 -573 707 -586Q715 -596 738 -607Q759 -617 766 -624Q753 -652 730 -687Q710 -716 689 -745Q685 -751 684 -768Q682 -787 677 -796H678Q683 -796 692 -788Q703 -778 712 -778Q714 -779 714 -782Q712 -786 710 -791Q716 -789 723 -785Q735 -778 741 -778Q745 -778 747 -779Q775 -762 808 -732Q816 -725 863 -679Q870 -681 877 -684V-676Q881 -681 883 -696Q886 -714 892 -718Q891 -694 889 -671V-661Q892 -665 894 -676Q896 -688 900 -691V-684Q900 -672 899 -660Q899 -651 901 -646Q904 -634 913 -621Q924 -604 925 -596V-588Q925 -567 916 -549Q906 -529 891 -526Q870 -530 853 -544Q843 -552 826 -572Q820 -567 820 -562Q820 -555 826 -549Q820 -519 820 -509Q820 -499 823 -489Q817 -486 783 -479Q759 -474 752 -463Q726 -460 716 -442Q705 -424 695 -406Q714 -391 732 -375Q750 -359 760 -335Q796 -374 796 -429V-436Q812 -437 824 -444Q829 -447 843 -460V-458Q843 -455 848 -448Q852 -447 855 -447Q870 -447 882 -464V-461Q882 -459 877 -452Q871 -444 871 -438Q871 -434 873 -431L875 -428Q879 -429 882 -430V-427Q887 -394 891 -362Q891 -345 885 -334Q834 -317 793 -262Q804 -245 817 -235Q821 -246 824 -257Q829 -252 829 -244Q832 -261 835 -278Q836 -277 836 -271V-253Q838 -231 854 -197Q874 -153 874 -125V-116Q865 -103 848 -103Q819 -103 780 -142Q764 -96 753 -49Q778 -44 871 -32Q878 -40 879 -69Q880 -92 882 -99Q887 -78 889 -55Q893 -66 893 -83Q892 -112 890 -141Q890 -161 895 -172Q900 -110 904 -49Q909 -61 909 -82Q908 -108 907 -135Q907 -151 909 -159Q914 -142 916 -109Q918 -85 922 -68Q926 -54 944 -34Q960 -16 963 -5Q967 7 967 20Q965 45 963 70Q948 79 945 81Q935 89 934 99H931Q921 99 919 108Q914 104 909 96Q903 89 895 87Q864 78 833 68L768 50Q698 29 576 24Q550 22 524 20Q518 21 512 21Q493 27 473 33Q444 37 420 49Q411 45 401 25Q392 7 380 4Q380 3 385 -4Q380 -6 374 -9L371 -8Q385 -35 420 -40Q456 -45 489 -52Q484 -63 459 -77Q433 -92 427 -105Q415 -97 402 -90Q380 -102 367 -102Q363 -106 360 -117Q358 -124 356 -128Q350 -138 344 -149Q338 -161 337 -177Q337 -185 338 -190Q340 -200 351 -214Q359 -224 362 -230Q309 -224 283 -211Q245 -191 242 -148Q241 -138 241 -117Q243 -58 244 1V13Q231 22 218 30Q212 27 206 27Q200 27 186 31Q159 17 155 16Q148 -2 141 -21Q130 -37 124 -53V-55Q125 -64 125 -73Q125 -88 111 -90Q143 -127 152 -228Q156 -252 159 -277V-280Q158 -288 152 -300Q146 -311 146 -317V-320Q153 -316 160 -309Q167 -303 177 -302H179Q189 -304 199 -307Q215 -305 223 -292Q232 -280 244 -269Q277 -282 310 -296Q299 -307 282 -307Q275 -307 272 -305Q254 -311 241 -316Q229 -322 221 -334Q213 -349 213 -393V-409Q213 -425 223 -443Q192 -428 164 -410Q137 -392 132 -352Q123 -346 116 -346Q107 -346 92 -359Q82 -368 75 -370Q62 -372 52 -372Q41 -372 35 -385Q32 -392 32 -402Q33 -421 34 -440V-446Q33 -472 31 -498Q31 -545 64 -566Q87 -577 105 -589Q131 -610 143 -613V-612Q143 -608 133 -602Q125 -597 121 -592Q116 -585 112 -569H114Q121 -569 130 -581Q139 -593 148 -593H149Q147 -587 144 -581Q180 -596 215 -612Q249 -627 279 -649Q286 -655 294 -663Q301 -671 312 -675Q315 -676 321 -676Q332 -675 342 -674Q346 -674 352 -676L371 -665Q378 -670 386 -673Q381 -669 381 -664Q381 -659 388 -650Q390 -637 391 -624Q393 -613 395 -602Q397 -595 399 -589Q403 -576 406 -564V-562Q412 -558 417 -554Q406 -554 393 -527Q384 -509 379 -506Q363 -500 356 -496ZM609 -121H611Q682 -216 707 -257H708L712 -256L713 -257V-261Q713 -266 708 -266Q702 -266 694 -262Q686 -254 676 -239Q588 -130 565 -59Q580 -53 596 -53Q622 -55 647 -57Q656 -57 660 -56Q663 -69 663 -79Q663 -87 659 -115Q644 -101 636 -74Q634 -75 631 -75Q623 -71 614 -67Q597 -74 597 -103Q597 -115 600 -124H601Q605 -122 609 -121ZM713 -191H712Q702 -180 684 -153Q671 -133 662 -122Q664 -121 668 -121Q680 -121 691 -137Q709 -161 719 -190L717 -189Q715 -190 713 -191ZM906 -205Q903 -191 895 -184Q890 -188 890 -196Q890 -211 898 -211Q902 -211 906 -205ZM907 -742Q896 -730 894 -730Q893 -732 893 -737Q893 -750 904 -750Q906 -746 907 -742Z"/>
</svg>