<svg xmlns="http://www.w3.org/2000/svg" viewBox="0 -800 1024 1024">
	<path fill="#000000" d="M906 119H903Q853 118 805 101Q757 85 706 71Q661 62 616 53Q598 50 505 36Q442 23 375 18H339Q207 18 150 47Q142 45 134 43Q130 43 129 44Q119 34 111 24Q102 13 86 9Q81 0 78 -11Q78 -15 79 -18Q76 -24 68 -25Q84 -36 96 -49Q110 -55 146 -57Q172 -59 184 -61Q199 -64 232 -79Q254 -89 270 -93Q206 -108 183 -165Q172 -161 158 -150Q137 -133 122 -133H116Q107 -135 99 -142Q92 -148 83 -154Q73 -158 64 -160Q55 -163 49 -171V-174Q52 -185 55 -197V-199Q55 -207 50 -218Q45 -229 45 -235V-237Q48 -253 62 -261Q75 -269 86 -280Q126 -280 156 -288Q167 -292 178 -297Q206 -308 234 -319Q238 -321 242 -324H245Q258 -324 273 -313Q277 -314 283 -319Q290 -324 296 -325Q293 -314 289 -304Q290 -300 292 -300Q296 -302 300 -304L302 -303Q299 -297 299 -292Q299 -280 314 -265Q312 -237 302 -218Q291 -199 283 -177Q298 -168 313 -159Q319 -155 325 -152Q327 -147 329 -142Q335 -140 341 -139Q363 -120 363 -99V-94Q364 -88 364 -82Q361 -74 355 -71Q348 -68 342 -63Q502 -51 662 -40Q652 -59 631 -75Q628 -77 591 -102Q593 -103 598 -103Q614 -99 628 -93Q619 -104 603 -115Q587 -125 572 -135H573Q582 -135 602 -126Q620 -118 629 -118V-119Q629 -130 611 -135Q597 -139 594 -144Q611 -141 627 -139Q634 -139 638 -141Q663 -154 675 -214Q612 -209 533 -160Q533 -149 540 -130Q545 -117 545 -109V-105Q542 -86 528 -79Q512 -71 499 -58Q497 -68 483 -76Q469 -84 467 -93Q443 -92 437 -88Q438 -94 445 -101Q454 -111 454 -119Q454 -123 453 -126Q446 -159 425 -225Q413 -260 407 -268Q395 -279 380 -292Q365 -304 361 -324Q359 -338 359 -342Q363 -373 370 -396Q388 -412 406 -429Q414 -421 424 -421Q444 -425 463 -429H464Q474 -425 483 -421H484Q495 -421 523 -432Q556 -445 567 -445H572Q570 -459 561 -466Q563 -512 563 -543Q563 -560 561 -598Q559 -626 540 -663Q523 -696 523 -713V-718Q525 -745 548 -765Q575 -788 610 -788Q627 -788 638 -781Q660 -766 680 -718Q684 -707 684 -697Q681 -672 665 -643Q663 -629 661 -615Q655 -600 647 -586Q640 -559 640 -501Q632 -494 632 -471V-466Q647 -468 685 -483Q730 -500 755 -502H761Q779 -502 791 -495Q802 -489 816 -480Q822 -484 833 -495Q843 -505 847 -507Q845 -500 840 -494Q831 -482 831 -473V-469H832Q834 -473 839 -478L840 -477V-451Q848 -447 850 -437Q852 -427 856 -418Q850 -408 850 -399Q850 -394 853 -390Q831 -385 818 -364Q810 -352 797 -315Q782 -270 779 -229Q778 -218 778 -198V-139Q779 -125 779 -112Q779 -105 778 -102Q774 -85 758 -68Q743 -51 733 -37H735Q746 -37 766 -31Q786 -25 793 -25H797Q817 -28 822 -45Q828 -62 834 -80Q839 -77 839 -63Q839 -49 843 -46Q846 -56 846 -70Q846 -82 844 -106Q842 -126 842 -137Q842 -148 846 -156Q856 -98 865 -40Q867 -43 867 -51Q865 -69 862 -88V-127Q869 -105 874 -79Q879 -54 890 -34H891Q894 -35 897 -37L899 -36Q936 1 949 23Q962 47 962 71Q960 93 941 102Q923 111 906 119ZM121 -418V-421Q121 -430 132 -447Q140 -459 142 -468Q132 -488 118 -496Q103 -493 93 -489V-490Q94 -495 103 -503Q113 -510 121 -517Q114 -524 114 -539V-545Q114 -554 112 -559Q109 -570 90 -578Q70 -587 68 -597Q72 -599 74 -599Q80 -599 91 -592Q105 -583 112 -583H115Q119 -583 127 -591Q132 -596 136 -598Q150 -600 160 -609Q162 -613 162 -617Q162 -625 161 -634V-640Q166 -632 171 -624Q176 -616 186 -613Q190 -613 192 -618Q194 -624 198 -624H199Q199 -621 198 -619Q199 -608 208 -605Q216 -603 223 -600Q243 -628 250 -650H259Q253 -625 246 -601Q251 -596 255 -596Q264 -598 272 -600Q271 -596 271 -589Q271 -564 299 -540Q299 -530 304 -524Q309 -518 312 -510Q315 -488 317 -466Q317 -452 314 -446Q291 -429 263 -418Q184 -429 157 -451Q143 -447 136 -437Q129 -428 121 -418ZM370 -462H369Q362 -458 358 -454H357V-469Q345 -468 341 -452V-453Q343 -470 353 -488Q372 -546 390 -604Q388 -613 379 -623Q371 -632 370 -636Q409 -664 444 -684H446Q475 -674 501 -652Q518 -637 519 -603Q524 -588 528 -573Q528 -565 523 -559Q511 -546 490 -535Q443 -503 433 -462Q412 -459 391 -457Q378 -457 370 -462ZM864 -564Q848 -553 844 -531Q841 -533 836 -533Q825 -530 813 -528Q803 -528 793 -529Q780 -529 773 -523Q772 -542 758 -542Q745 -542 726 -528Q724 -532 724 -534Q727 -541 730 -549Q720 -558 708 -565Q699 -563 696 -554Q695 -555 695 -559Q695 -568 703 -573Q702 -575 702 -582Q702 -591 705 -597Q697 -611 697 -624Q700 -663 738 -676Q743 -685 748 -695Q768 -672 801 -663Q806 -663 810 -668Q814 -673 816 -673Q814 -668 814 -659Q814 -640 839 -607Q861 -578 864 -564ZM670 -358H672Q676 -359 679 -361L680 -360Q678 -354 678 -352Q681 -340 686 -328Q673 -312 627 -299Q595 -290 584 -283Q568 -267 554 -262Q546 -262 536 -274Q530 -282 525 -283Q525 -260 533 -244Q599 -263 658 -289Q659 -288 660 -284Q661 -280 664 -280Q674 -283 684 -286Q684 -281 683 -277Q683 -272 687 -271Q705 -371 708 -403Q696 -405 690 -405Q671 -404 656 -398Q640 -392 625 -388Q577 -377 564 -370Q552 -364 538 -356Q524 -348 520 -333Q540 -335 575 -350Q589 -355 605 -362Q620 -369 635 -370Q643 -370 649 -367Q659 -377 667 -377Q672 -377 674 -376Q669 -375 669 -366Q669 -360 670 -358ZM112 -414H114Q113 -403 102 -390Q93 -391 93 -398Q96 -411 112 -414ZM570 -161V-165Q578 -164 582 -158Q585 -153 591 -149Q587 -147 584 -147Q572 -148 570 -161ZM865 -154V-143Q865 -136 864 -133Q857 -137 857 -148Q857 -154 858 -157Q862 -155 865 -154Z"/>
</svg>