<svg xmlns="http://www.w3.org/2000/svg" viewBox="0 -800 1024 1024">
	<path fill="#000000" d="M564 -712Q569 -711 574 -710Q580 -707 587 -707Q598 -709 607 -700Q616 -691 607 -682Q595 -658 579 -635Q579 -632 574 -630Q569 -628 571 -625L623 -642Q630 -643 636 -645L662 -652Q669 -653 675 -655Q698 -659 720 -663Q734 -661 748 -661Q762 -661 775 -655Q782 -653 796 -644Q816 -628 816 -614Q819 -610 819 -600Q819 -589 823 -584Q825 -554 815 -528Q816 -512 812 -497Q809 -481 802 -468Q802 -439 793 -432Q793 -430 791 -426L788 -415Q787 -412 786 -409Q783 -400 781 -390Q779 -380 771 -374Q768 -358 754 -350Q755 -345 748 -338Q741 -330 740 -326Q738 -324 712 -295Q708 -296 705 -305Q703 -312 700 -314Q690 -322 686 -334Q678 -338 671 -352Q666 -363 661 -367Q654 -378 633 -387Q653 -389 665 -382Q672 -385 684 -380Q696 -374 704 -377Q745 -456 766 -536Q772 -571 766 -607Q767 -616 757 -620Q754 -621 740 -624Q712 -619 684 -615Q674 -611 659 -609Q634 -605 624 -599Q612 -598 599 -591Q588 -582 573 -595Q562 -599 550 -602Q543 -599 540 -593Q536 -587 532 -581Q524 -578 523 -586Q522 -595 525 -600Q533 -625 543 -650Q546 -664 552 -677Q558 -690 557 -705Q554 -708 555 -709Q559 -711 564 -712ZM260 -631Q263 -630 289 -630Q296 -628 305 -628Q313 -628 315 -621Q319 -613 313 -606Q306 -598 290 -598Q287 -594 276 -593Q264 -592 260 -586Q256 -590 247 -587Q237 -584 233 -586Q223 -574 217 -561Q216 -549 211 -540Q206 -531 202 -521Q203 -517 200 -510Q197 -501 198 -498Q222 -502 242 -510Q250 -517 243 -522Q237 -527 233 -533Q233 -536 234 -535Q239 -530 241 -532Q244 -539 252 -534Q255 -531 261 -534Q265 -536 267 -535Q277 -524 289 -521Q296 -516 305 -517Q313 -517 320 -516Q339 -514 338 -501Q340 -497 337 -493Q334 -489 331 -485Q311 -481 307 -475Q301 -457 294 -440Q294 -432 302 -432Q311 -432 317 -429Q324 -415 317 -410Q315 -404 310 -402Q305 -400 300 -398Q294 -398 287 -396Q282 -384 279 -369Q279 -362 274 -356Q270 -349 277 -346Q295 -349 314 -349Q338 -349 350 -348Q364 -349 382 -340Q388 -336 394 -332Q400 -328 403 -321Q409 -314 411 -305Q412 -282 416 -262Q412 -248 416 -231Q412 -204 404 -180Q399 -175 398 -160Q397 -148 394 -143Q387 -141 387 -131Q387 -122 384 -119Q383 -114 377 -106Q373 -101 372 -98Q353 -81 350 -80Q343 -68 322 -51Q319 -45 317 -56Q314 -62 310 -69Q306 -76 298 -80Q299 -84 293 -90Q290 -93 288 -97Q286 -101 285 -106Q284 -112 278 -113Q276 -119 268 -123Q261 -127 259 -130Q256 -138 252 -146Q269 -143 286 -137Q293 -140 299 -136Q304 -132 311 -130Q327 -144 335 -163Q342 -182 350 -203Q360 -232 358 -262Q361 -279 355 -301Q354 -309 347 -310Q340 -312 334 -313Q323 -308 308 -306Q301 -302 287 -301Q270 -300 265 -296Q246 -296 237 -279Q235 -275 231 -272Q227 -269 229 -265Q248 -263 267 -262Q276 -261 277 -252Q268 -238 251 -232Q232 -227 212 -222Q157 -205 118 -196Q105 -189 95 -190Q85 -188 75 -192Q66 -196 56 -197Q51 -199 46 -199Q40 -200 38 -205Q104 -228 119 -231Q148 -240 177 -250Q188 -250 196 -254Q206 -268 211 -283Q214 -294 202 -298Q185 -297 169 -315Q173 -325 163 -333Q158 -343 151 -349Q142 -363 141 -386Q141 -392 142 -428Q148 -459 159 -491Q172 -543 193 -590Q195 -594 191 -602Q188 -608 190 -611Q255 -630 260 -631ZM508 -538L515 -536Q520 -538 525 -535Q539 -533 552 -532Q549 -526 543 -528Q537 -530 532 -529Q522 -530 520 -522Q518 -515 523 -508Q522 -503 520 -499L511 -482Q510 -477 508 -473Q507 -467 506 -461Q505 -455 510 -452Q522 -450 537 -452Q542 -454 552 -456Q567 -459 573 -463Q574 -472 575 -483Q576 -493 570 -501Q565 -504 567 -507Q573 -511 575 -506Q579 -511 598 -513Q606 -520 623 -508Q636 -496 625 -480Q626 -473 632 -473Q637 -473 642 -472Q652 -471 661 -471Q666 -471 674 -469Q681 -467 679 -460Q679 -442 651 -442Q638 -442 624 -437Q589 -429 579 -412Q573 -408 568 -402Q562 -396 557 -398Q558 -403 560 -409Q563 -415 559 -418Q527 -414 495 -410Q484 -421 481 -435Q456 -456 466 -482Q477 -497 485 -513Q494 -529 508 -538ZM195 -484Q192 -476 193 -466Q191 -452 188 -439Q190 -432 187 -420Q186 -415 189 -414Q195 -415 203 -417Q212 -420 221 -422Q231 -423 238 -430Q243 -447 244 -465Q245 -473 239 -475Q233 -476 229 -478Q221 -476 210 -481Q200 -485 195 -484ZM191 -402Q189 -403 189 -399Q186 -391 186 -364Q183 -340 203 -326Q210 -328 219 -330Q228 -333 227 -343Q230 -365 233 -387Q234 -397 227 -399Q220 -400 213 -402Q202 -402 191 -402ZM518 -342L536 -339Q545 -341 554 -335Q556 -334 569 -322Q576 -313 572 -302Q568 -292 564 -283Q564 -278 554 -261Q552 -254 550 -248Q550 -247 554 -247Q583 -256 604 -261Q626 -267 647 -273Q673 -275 707 -284Q745 -294 781 -294Q792 -294 802 -295Q815 -291 829 -288Q843 -285 855 -274Q861 -271 863 -265Q865 -259 868 -253Q875 -246 876 -234Q875 -224 877 -211Q881 -205 879 -194Q877 -185 878 -182Q876 -178 877 -168Q878 -157 874 -151Q871 -115 871 -114Q865 -108 863 -88Q859 -78 857 -66Q855 -54 845 -47Q836 -42 834 -26Q833 -14 829 -9Q827 -2 810 32Q804 47 793 57Q781 68 770 80Q762 88 751 89Q751 84 742 76Q735 70 733 64Q734 59 729 54Q723 47 722 44Q718 40 707 38Q697 36 693 32Q690 30 691 29Q694 27 697 26Q703 27 712 22Q721 17 725 18Q735 18 745 17Q761 5 768 -12Q775 -29 780 -47Q787 -68 794 -90Q807 -122 819 -154Q822 -174 825 -194Q825 -211 824 -228Q822 -245 813 -258Q785 -264 756 -253Q718 -247 679 -241Q670 -238 661 -236Q624 -227 596 -217Q583 -211 568 -215Q557 -222 546 -229Q546 -235 540 -234Q534 -233 533 -227Q529 -222 520 -224Q512 -226 508 -222Q491 -228 498 -254Q506 -279 506 -284Q516 -305 519 -322Q522 -326 517 -333Q512 -339 518 -342ZM519 -184L532 -181Q532 -176 539 -171Q544 -168 544 -165Q549 -156 542 -149Q535 -142 532 -133Q531 -113 527 -91Q532 -88 544 -91Q553 -93 559 -92Q584 -96 609 -101Q619 -116 622 -137Q621 -145 622 -154Q623 -162 616 -168Q610 -172 613 -175Q617 -180 624 -181Q640 -180 656 -180Q674 -170 673 -158Q669 -152 665 -139Q659 -120 651 -113Q652 -108 656 -108Q660 -108 664 -112Q672 -110 689 -111Q706 -112 715 -109Q723 -107 723 -100Q723 -94 718 -89Q710 -82 700 -82Q663 -77 659 -75Q596 -65 534 -51Q528 -53 520 -50Q512 -47 507 -50Q505 -62 500 -63Q497 -63 495 -70Q493 -77 489 -77Q484 -83 479 -90Q473 -96 475 -106Q477 -119 488 -138Q498 -156 500 -162Q511 -173 519 -184Z"/>
</svg>