<svg xmlns="http://www.w3.org/2000/svg" viewBox="0 -800 1024 1024">
	<path fill="#000000" d="M600 -81Q592 -94 579 -109Q565 -124 564 -140Q564 -154 577 -163Q564 -169 553 -171Q535 -113 535 -61Q536 -52 536 -43Q540 -42 544 -42Q581 -42 600 -81ZM649 -203Q651 -216 668 -222Q688 -229 692 -234Q636 -226 625 -223Q594 -214 584 -191H586Q591 -191 602 -197Q617 -205 623 -205Q630 -205 636 -198ZM622 -298Q620 -314 620 -345Q620 -389 616 -405H612Q608 -405 605 -400Q602 -394 598 -390Q579 -373 579 -362Q579 -354 584 -348Q572 -337 572 -300V-291Q576 -290 582 -290Q602 -294 622 -298ZM779 -355Q767 -377 763 -381Q752 -393 733 -393Q730 -393 728 -389Q726 -386 725 -386L723 -387V-389Q723 -393 728 -398Q731 -401 731 -404L730 -408Q723 -407 714 -398Q707 -390 704 -390Q708 -412 729 -446Q743 -468 747 -480Q724 -472 695 -447Q690 -382 690 -361Q690 -338 693 -320Q739 -332 766 -358Q773 -358 779 -355ZM140 -594Q136 -597 136 -606Q136 -623 148 -623Q147 -625 147 -628Q148 -634 148 -640V-642L145 -643Q137 -640 129 -638H128Q131 -643 136 -657Q141 -671 147 -678Q164 -693 186 -706Q192 -711 201 -722Q210 -733 216 -737Q238 -737 247 -734Q263 -716 293 -697Q324 -678 328 -645Q328 -637 327 -632Q326 -627 314 -612Q298 -592 298 -580Q320 -585 351 -601Q376 -614 385 -617Q388 -629 388 -631Q394 -621 409 -621Q417 -621 424 -625Q432 -606 443 -606H447Q450 -583 467 -572Q460 -545 469 -513Q457 -495 457 -481Q450 -482 442 -483Q434 -483 434 -477Q431 -478 425 -478Q411 -478 370 -460Q330 -442 314 -441Q269 -424 226 -405L215 -400Q172 -378 165 -373Q134 -353 130 -332Q118 -325 103 -330Q82 -340 74 -354Q66 -369 62 -402V-423Q62 -440 60 -448Q60 -452 59 -456Q59 -485 85 -500Q88 -509 104 -537Q107 -546 111 -556Q116 -566 127 -567ZM921 -171Q918 -159 915 -148Q908 -149 908 -161Q908 -175 915 -175Q918 -175 921 -171ZM427 -76Q433 -71 439 -67Q471 -186 476 -191L482 -214Q476 -216 476 -225Q478 -234 480 -243Q492 -304 495 -378Q495 -399 500 -408Q496 -426 492 -462V-463Q492 -465 489 -465Q486 -465 486 -467V-468Q486 -507 492 -521Q484 -546 476 -572Q487 -550 504 -534Q501 -544 498 -554V-556Q511 -547 523 -539Q543 -544 551 -544Q559 -544 563 -542Q569 -540 576 -531Q582 -523 587 -521Q593 -523 596 -528Q599 -534 604 -536Q598 -610 585 -641Q572 -671 548 -675L547 -677Q549 -683 553 -687Q545 -703 524 -703Q531 -712 547 -716Q557 -719 563 -723Q571 -728 596 -760Q608 -778 620 -792Q631 -805 654 -809Q659 -810 672 -810Q692 -787 720 -770Q729 -766 739 -761Q748 -756 751 -744Q758 -727 764 -710Q765 -701 757 -692Q749 -682 744 -674Q737 -656 733 -627Q725 -595 719 -584Q755 -597 788 -617Q820 -637 852 -654Q859 -654 865 -651Q875 -660 887 -663Q883 -655 880 -647Q884 -645 887 -645Q893 -645 903 -658Q913 -670 921 -672V-671Q921 -666 914 -654Q906 -640 906 -633Q907 -630 907 -628Q911 -629 913 -635Q916 -642 919 -647Q917 -641 917 -628Q919 -588 947 -570Q933 -527 930 -521Q917 -497 892 -492L869 -476Q864 -459 849 -447Q805 -396 792 -354Q796 -352 798 -352Q807 -354 815 -357L816 -354V-351Q820 -352 828 -361Q838 -372 843 -372Q841 -366 833 -359Q826 -352 825 -341Q825 -339 827 -333H828Q829 -333 831 -336Q832 -340 836 -340L839 -339Q835 -331 835 -319Q835 -296 849 -279Q845 -259 845 -248Q816 -230 807 -217Q767 -212 749 -184Q731 -157 716 -125Q767 -91 823 -57Q844 -44 850 -44H851Q860 -44 863 -52Q865 -57 866 -71Q868 -104 875 -111V-103Q875 -85 874 -67Q874 -52 878 -44Q883 -61 883 -106V-112Q883 -158 890 -179Q892 -159 892 -146Q892 -118 891 -91Q891 -52 898 -33Q905 -42 905 -62Q905 -77 904 -92V-98Q904 -120 912 -144Q914 -137 914 -122Q913 -93 911 -65Q911 -55 912 -50Q913 -40 923 -26Q934 -11 934 -1V0Q942 12 951 23Q960 34 961 47V50Q960 58 942 79Q931 91 928 99Q903 113 897 118Q881 112 848 90Q812 69 779 41L765 30Q716 -4 667 -39Q647 -27 637 4Q634 13 624 63L620 62Q612 65 603 67H601Q577 33 557 -8Q558 -10 562 -12Q566 -14 566 -18Q560 -33 539 -33H535Q532 9 507 32Q503 31 495 31Q477 31 476 42Q466 19 455 5Q443 -9 439 -40Q438 -47 421 -66Q413 -55 381 -31Q352 -9 343 2Q336 8 334 23Q329 43 295 43H293Q285 43 272 31Q261 21 257 21Q253 21 250 22L248 20Q248 15 250 13Q240 9 238 -2Q240 -9 241 -16Q238 -34 234 -53Q235 -56 235 -60Q236 -67 248 -83L246 -117Q242 -123 239 -139Q199 -115 170 -111Q145 -109 121 -122Q113 -168 104 -178L111 -199Q107 -207 95 -218Q82 -230 78 -238Q95 -230 111 -223L112 -225Q111 -228 109 -232V-234Q115 -231 119 -231Q126 -232 137 -242Q145 -250 150 -251L154 -252Q161 -252 181 -246Q195 -243 208 -240L217 -243Q227 -248 234 -250Q234 -273 235 -283Q218 -274 201 -271Q194 -271 190 -272Q171 -296 139 -296Q139 -309 150 -316Q149 -319 149 -326Q149 -355 199 -368Q270 -394 343 -416Q358 -420 372 -425Q375 -425 377 -424Q368 -419 368 -410Q368 -406 370 -403H373Q378 -403 383 -404Q382 -401 380 -398Q389 -398 390 -381Q391 -369 394 -366Q388 -360 388 -351Q389 -347 389 -344H386Q385 -344 381 -342L380 -338Q381 -335 382 -332L381 -330H372Q358 -330 324 -312Q282 -297 274 -294Q280 -290 283 -290Q296 -288 319 -298Q321 -284 323 -279Q327 -280 330 -281Q333 -283 365 -294Q381 -302 402 -305Q408 -318 418 -326Q421 -319 429 -319Q437 -318 444 -315Q451 -318 457 -321Q461 -321 462 -317Q455 -313 454 -303Q459 -298 462 -292Q454 -281 456 -269Q460 -234 465 -226Q428 -217 390 -208Q361 -196 331 -185Q329 -165 329 -157Q329 -134 328 -130Q434 -182 448 -187V-185Q448 -183 441 -178Q429 -170 429 -163Q430 -160 430 -158Q435 -158 439 -163Q443 -168 446 -168Q447 -168 451 -166Q441 -158 441 -146Q441 -140 448 -140H451Q439 -125 437 -101Q432 -88 427 -76Z"/>
</svg>