<svg xmlns="http://www.w3.org/2000/svg" viewBox="0 -800 1024 1024">
	<path fill="#000000" d="M491 -46Q477 -60 477 -70Q477 -76 482 -81Q462 -83 455 -83Q396 -83 385 -44Q397 -44 409 -45Q430 -44 451 -44Q463 -44 491 -46ZM612 -85Q595 -89 567 -89Q554 -88 540 -88Q555 -76 557 -74Q566 -65 566 -56Q566 -49 559 -42Q575 -39 590 -36Q601 -60 612 -85ZM512 -144Q511 -149 505 -157Q496 -169 496 -175Q496 -179 497 -181Q451 -172 448 -135Q477 -141 512 -144ZM618 -301Q609 -304 599 -304Q567 -300 527 -289Q502 -284 494 -282Q468 -275 460 -275Q448 -275 429 -286Q413 -280 397 -270Q377 -254 377 -248V-247Q447 -251 618 -301ZM644 -217Q584 -209 568 -194Q574 -188 579 -182Q585 -176 593 -174Q593 -169 586 -153Q604 -157 613 -157Q618 -157 621 -156Q641 -206 644 -217ZM159 -261H166Q162 -260 157 -255Q150 -249 142 -248Q141 -249 141 -253V-259Q146 -261 159 -261ZM70 -568Q63 -571 57 -573Q50 -576 49 -584H67Q68 -583 70 -568ZM665 -418Q648 -407 646 -397Q628 -380 600 -382Q586 -391 566 -395L567 -399Q567 -408 551 -426Q553 -438 553 -440Q553 -445 551 -448Q552 -449 556 -449H567Q570 -452 570 -454V-456H580Q610 -456 634 -437Q635 -425 645 -422Q655 -420 665 -418ZM834 -483Q816 -474 793 -464Q771 -454 758 -437Q750 -445 732 -445Q717 -444 702 -443V-444Q705 -448 708 -452L707 -454Q695 -462 678 -462Q667 -462 662 -457Q663 -477 664 -497Q660 -492 655 -487Q655 -477 644 -469Q634 -462 620 -461Q601 -465 581 -469Q572 -469 565 -462L564 -464Q568 -470 574 -477Q572 -486 562 -497Q552 -508 552 -519V-521H549Q535 -521 531 -508Q530 -506 529 -480H528L525 -452Q533 -436 533 -426Q533 -414 523 -405Q518 -404 499 -397Q478 -389 465 -389Q460 -389 452 -391Q439 -395 432 -406Q424 -417 415 -425Q418 -432 426 -432H428Q431 -477 431 -479Q431 -485 430 -492Q400 -492 388 -481Q398 -465 409 -465H413Q392 -451 391 -423Q379 -421 372 -421Q325 -421 314 -452H306Q258 -452 258 -402Q237 -398 237 -380V-378Q235 -384 222 -386Q207 -388 206 -394L184 -386H176Q170 -386 148 -375Q152 -383 156 -392V-394Q153 -404 144 -404Q133 -404 114 -391Q99 -381 95 -375Q95 -388 107 -400Q117 -410 119 -418Q101 -430 87 -450Q72 -472 72 -493Q72 -514 89 -525L86 -537H94L98 -538L99 -542Q99 -549 86 -558Q76 -564 76 -568Q95 -562 113 -557Q130 -562 150 -584Q151 -587 151 -595V-610Q151 -618 154 -623Q159 -602 163 -582Q167 -561 188 -557Q198 -566 204 -576Q212 -564 218 -551Q221 -551 224 -552Q233 -552 238 -546Q242 -541 248 -537Q270 -540 324 -553Q387 -568 427 -571Q426 -585 424 -599H416Q392 -599 372 -585Q362 -577 351 -569Q340 -560 329 -559Q316 -559 277 -585H276Q255 -585 243 -601Q232 -615 232 -636Q232 -659 243 -673Q239 -679 227 -687Q214 -696 210 -703H212Q221 -703 227 -698Q232 -693 239 -690Q243 -694 243 -695Q243 -701 219 -714Q198 -725 197 -729Q207 -729 224 -721Q242 -713 253 -713H255Q254 -717 246 -720Q238 -723 237 -728Q239 -730 242 -730Q250 -728 257 -727Q278 -737 298 -747Q327 -735 360 -735Q419 -739 474 -748Q486 -751 490 -751Q498 -751 501 -745L587 -759Q601 -770 620 -774Q639 -778 661 -781Q717 -789 729 -789Q746 -789 755 -787Q734 -782 732 -776Q733 -771 739 -767Q744 -763 745 -762Q779 -770 802 -773Q789 -769 774 -764Q758 -759 757 -744Q757 -740 758 -737Q773 -742 788 -747Q780 -743 770 -737Q761 -731 760 -721Q761 -718 761 -716L763 -715Q766 -715 768 -716L770 -715Q760 -707 754 -686Q748 -666 740 -658Q724 -645 696 -644Q668 -644 640 -643Q575 -639 526 -619Q530 -611 536 -604Q542 -597 544 -588Q584 -601 629 -607Q674 -614 719 -620Q811 -628 867 -668Q865 -660 865 -657Q865 -631 909 -631Q931 -631 946 -637Q925 -625 920 -617Q920 -595 933 -582H935Q942 -583 948 -585H951Q950 -580 945 -578Q940 -576 938 -572Q936 -562 936 -557Q936 -541 943 -533Q921 -517 918 -500Q902 -491 887 -491Q873 -491 862 -500ZM897 -221V-220Q897 -214 891 -203Q884 -190 884 -183Q884 -179 885 -177Q895 -191 904 -207Q913 -223 928 -233Q923 -220 914 -204Q906 -188 904 -168Q910 -178 918 -186Q916 -175 910 -153Q914 -146 919 -140Q917 -134 917 -129Q921 -109 924 -89V-88Q924 -75 917 -66Q909 -56 897 -54Q894 -53 891 -53Q880 -53 865 -59Q847 -66 838 -66L823 -71Q766 -74 709 -78H701Q686 -60 685 -34Q694 -31 716 -31H745Q761 -31 768 -30H769L771 -27V-22Q786 -23 801 -25H807Q789 -18 787 -4Q790 -1 792 0H793Q806 -3 819 -6Q824 -6 826 -5Q800 1 798 20Q798 32 811 39Q804 40 799 45Q800 48 800 53Q799 65 792 72Q785 80 778 88Q761 88 731 74Q696 58 673 58H663Q653 67 653 85Q653 93 654 96Q642 99 620 117Q597 136 582 138Q579 139 576 139Q557 137 546 122Q536 106 525 95Q515 87 497 76Q477 64 469 57Q486 61 503 67Q520 73 537 74Q535 68 523 64Q513 61 510 57Q519 58 531 62Q540 59 545 53Q550 47 556 41Q550 38 532 36Q513 34 507 30L479 29Q475 32 463 32Q448 31 432 30Q421 30 414 34Q402 32 398 32Q370 33 351 46Q331 59 312 71Q299 66 285 61Q282 43 272 30Q262 17 251 5V2Q254 -15 257 -32Q269 -35 282 -48H277Q251 -48 219 -38Q198 -31 182 -19Q167 -7 152 1Q144 5 136 5Q128 5 113 -4Q100 -12 90 -14Q78 -28 78 -46Q78 -54 81 -62Q84 -65 87 -69Q88 -87 94 -103Q101 -111 117 -115Q134 -119 146 -123Q179 -138 214 -142H216Q205 -134 192 -127Q178 -121 171 -110Q248 -122 355 -130Q355 -139 355 -148Q348 -164 344 -182Q344 -198 346 -226Q343 -225 336 -225Q325 -225 310 -231Q293 -238 282 -238H278Q276 -247 270 -251Q264 -255 255 -260Q248 -267 241 -270H240Q230 -267 219 -265L218 -266Q218 -269 230 -275Q240 -280 241 -281Q207 -275 175 -264Q253 -308 331 -353H330Q317 -354 303 -356Q295 -356 291 -354V-361Q291 -366 292 -367Q288 -370 283 -370Q268 -366 257 -357Q268 -374 273 -378L264 -397Q274 -424 306 -424Q347 -423 365 -393H359Q359 -390 364 -388Q369 -385 369 -381Q365 -379 361 -376Q372 -379 382 -381Q408 -379 421 -370Q430 -364 434 -357Q439 -349 444 -342Q487 -354 536 -357L583 -368Q596 -370 609 -373L636 -378Q652 -379 678 -393Q705 -407 722 -408Q738 -406 753 -404H756Q767 -407 778 -411H781L784 -410L783 -407V-406Q799 -413 823 -418Q808 -412 800 -406Q790 -399 790 -389V-387Q790 -383 796 -377Q802 -370 802 -366V-365Q801 -350 781 -345Q754 -339 730 -333Q733 -327 750 -322Q763 -318 766 -316L768 -314Q767 -311 766 -308L770 -307Q780 -310 789 -313H793V-311Q793 -306 784 -300Q771 -292 771 -284V-281L773 -280Q779 -282 784 -284H786Q771 -266 771 -257Q771 -249 778 -245V-241Q779 -229 780 -217V-213Q727 -207 716 -162Q727 -159 744 -159Q780 -159 808 -167Q844 -178 869 -193Q868 -189 866 -186Q883 -201 896 -220H895Q894 -221 894 -226Q894 -241 903 -241Q907 -241 910 -237Q906 -226 897 -221Z"/>
</svg>