<svg xmlns="http://www.w3.org/2000/svg" viewBox="0 -800 1024 1024">
	<path fill="#000000" d="M106 -581Q102 -584 102 -593Q102 -610 114 -610Q113 -612 113 -615Q114 -621 114 -627V-629L111 -630Q103 -627 95 -625H94Q97 -630 102 -644Q107 -658 113 -665Q125 -685 143 -703Q181 -732 184 -734Q207 -734 216 -731Q234 -712 265 -692Q296 -672 299 -641Q299 -634 298 -628Q293 -615 274 -590Q254 -566 249 -556Q324 -588 371 -618Q367 -610 364 -603Q370 -605 377 -610Q389 -619 395 -619Q400 -619 403 -618Q397 -611 390 -606Q383 -602 380 -592Q385 -582 396 -582Q404 -582 412 -583H415Q405 -563 405 -555Q405 -545 415 -544Q412 -535 409 -526Q410 -524 410 -519Q410 -498 401 -455Q374 -443 341 -443H329L317 -446Q315 -437 306 -436Q297 -435 289 -434Q270 -430 242 -413Q213 -397 193 -387Q156 -371 143 -363Q113 -346 105 -329Q93 -322 78 -327Q49 -341 43 -346Q29 -359 26 -389V-410Q26 -427 24 -435Q24 -439 23 -443Q23 -472 49 -487Q52 -495 69 -524Q72 -533 77 -543Q81 -553 93 -554ZM342 9V10Q342 16 337 19Q332 22 324 27Q312 38 299 48Q273 64 261 64Q244 64 240 45Q226 45 218 35Q210 25 210 13Q210 -21 220 -31Q217 -40 217 -47Q217 -75 252 -89L238 -93Q234 -118 229 -143H223Q206 -133 160 -109Q130 -96 112 -110Q106 -136 95 -148L102 -168Q98 -176 85 -187Q72 -198 68 -207Q95 -194 102 -192L103 -194Q100 -200 100 -201V-202Q106 -199 110 -200Q138 -204 168 -217Q199 -231 226 -240Q226 -262 219 -270Q207 -262 177 -255Q169 -251 151 -245Q144 -245 140 -247Q119 -270 87 -270Q87 -284 99 -289Q98 -293 98 -299Q98 -329 149 -341Q166 -350 182 -359Q236 -374 278 -391Q295 -394 313 -402Q332 -410 349 -416V-415Q350 -413 348 -413Q345 -413 344 -412H348Q358 -415 367 -418H369Q360 -407 361 -399Q361 -393 366 -389Q374 -395 377 -395Q372 -391 372 -382Q373 -372 383 -360Q371 -344 374 -317Q370 -319 368 -318Q364 -318 363 -314Q361 -311 360 -308Q359 -307 334 -302Q314 -299 308 -297Q306 -280 304 -263Q312 -265 382 -294Q410 -303 418 -304Q405 -291 403 -287Q404 -286 422 -292Q415 -283 408 -274Q416 -239 404 -216Q390 -199 366 -192Q334 -188 307 -172Q304 -161 300 -141Q296 -121 298 -92Q341 -115 392 -146Q402 -154 424 -164Q424 -163 412 -152Q403 -144 403 -142L404 -139L407 -138Q413 -143 425 -147Q412 -129 415 -98Q419 -67 418 -59Q400 -32 380 -20Q373 -16 367 -8Q360 -1 351 2ZM689 -198Q691 -217 689 -241Q672 -236 660 -227Q645 -216 646 -201Q647 -190 648 -179Q669 -188 689 -198ZM688 -305Q687 -323 685 -342Q665 -332 649 -317Q645 -312 645 -282Q647 -283 688 -305ZM674 0Q671 4 664 4Q659 6 655 2Q656 -2 656 -6V-9H657Q662 -10 666 -5Q670 0 674 0ZM454 -252Q446 -258 446 -268Q445 -278 443 -287Q440 -301 432 -309Q424 -317 418 -325Q418 -328 418 -331Q418 -338 413 -352Q409 -363 409 -370Q409 -379 419 -404Q429 -429 429 -443Q430 -446 432 -447Q435 -447 435 -450V-455Q432 -476 428 -498V-506Q434 -506 435 -500Q436 -494 437 -490Q441 -476 451 -464Q452 -466 452 -471Q449 -488 442 -506Q435 -531 434 -554Q442 -546 451 -519Q461 -490 471 -482Q473 -492 473 -496Q470 -519 462 -537Q470 -536 478 -515Q487 -490 498 -491Q507 -492 521 -466Q529 -450 533 -450Q541 -450 544 -355Q550 -211 550 -177V-141Q553 -74 568 -14Q555 2 545 24Q523 37 501 23Q487 14 466 -12Q466 -21 455 -32Q457 -44 458 -56Q453 -71 444 -76Q434 -81 423 -87Q425 -88 436 -88Q444 -90 447 -92Q461 -114 460 -157Q459 -184 458 -211Q458 -225 459 -231ZM774 -216Q776 -204 778 -169Q779 -134 784 -122Q782 -116 777 -108Q770 -97 769 -89Q759 -88 743 -72Q737 -76 731 -83Q725 -89 714 -89H709Q708 -92 707 -95Q708 -104 709 -114Q688 -112 666 -101L662 -85L651 -84Q643 -84 643 -78Q638 -84 622 -95Q609 -104 602 -111Q597 -117 593 -124Q589 -131 580 -132Q590 -153 587 -233Q585 -280 579 -325Q577 -332 570 -342Q563 -352 562 -357L558 -376Q598 -427 627 -405Q633 -399 638 -395Q648 -401 664 -413Q687 -431 700 -436Q700 -450 704 -455Q720 -476 744 -478Q769 -479 773 -466Q779 -454 787 -446Q796 -451 805 -456Q808 -456 810 -455Q810 -449 803 -445Q796 -441 796 -435L797 -431L798 -430Q801 -433 804 -436L807 -435Q804 -425 800 -415V-408Q804 -368 807 -329Q808 -322 806 -312Q788 -306 783 -289Q778 -271 772 -254ZM910 -121Q910 -102 909 -83Q910 -54 925 47Q918 61 919 68V71Q917 76 913 81Q906 90 906 96V98Q903 98 900 98Q890 98 880 111Q873 119 869 121Q867 122 864 122Q848 122 819 96Q813 90 808 79Q800 62 793 58Q796 55 798 51Q786 31 740 21Q704 13 692 4Q747 16 798 22Q786 6 774 3Q706 -7 649 -26Q716 -16 782 -6L794 -7Q791 -16 759 -18Q738 -20 732 -23Q733 -24 764 -29Q774 -29 794 -24Q808 -34 817 -36Q819 -229 824 -419Q828 -479 832 -540L831 -546Q829 -554 826 -563Q785 -545 734 -489Q718 -473 702 -469Q699 -468 695 -468Q678 -467 667 -476Q662 -480 647 -498Q629 -514 625 -537V-539Q628 -558 630 -577Q630 -583 627 -589Q640 -638 662 -686L663 -668Q663 -658 667 -653Q679 -656 699 -667Q721 -681 744 -684H750L757 -687Q788 -716 802 -725Q812 -732 820 -741Q827 -749 838 -751Q844 -753 846 -753Q859 -753 875 -746Q878 -747 881 -750Q886 -755 890 -755L892 -754Q890 -751 888 -749V-746Q888 -743 891 -742Q895 -740 896 -739Q904 -744 914 -747H916V-744Q916 -740 915 -737V-735Q919 -743 935 -757Q924 -728 924 -717V-710Q925 -710 926 -716Q927 -722 930 -722L932 -721L934 -719Q932 -712 929 -705L930 -701Q948 -685 955 -656Q963 -628 972 -601Q966 -590 951 -576Q941 -566 935 -559Q913 -528 907 -449Q904 -405 906 -307V-292Q908 -265 909 -239Q909 -212 906 -200ZM632 -683Q619 -674 605 -666Q591 -658 582 -640V-637Q585 -636 593 -639Q603 -643 608 -641Q605 -635 593 -626Q579 -615 574 -604Q560 -580 551 -558Q530 -544 511 -553L508 -555Q492 -565 483 -582Q473 -599 460 -615Q440 -645 434 -659Q429 -680 423 -697Q431 -744 436 -756Q439 -763 445 -765Q451 -765 456 -765Q477 -768 488 -761L493 -759Q512 -740 533 -722L552 -711Q560 -706 564 -698Q583 -699 601 -700Q597 -696 589 -692Q581 -689 577 -680Q576 -679 574 -672Q584 -671 601 -678Q620 -686 632 -683Z"/>
</svg>