<svg xmlns="http://www.w3.org/2000/svg" viewBox="0 -800 1024 1024">
	<path fill="#000000" d="M815 -257Q815 -248 808 -243Q803 -244 803 -253Q803 -262 810 -266Q815 -263 815 -257ZM855 -497V-493Q854 -483 853 -474H851Q843 -474 843 -486Q843 -498 850 -498Q853 -498 855 -497ZM914 -581Q914 -566 904 -554Q888 -556 882 -556Q831 -556 813 -521Q806 -525 797 -525Q779 -525 778 -513Q769 -527 767 -529Q760 -536 748 -536Q745 -548 732 -548Q725 -548 717 -543Q751 -579 790 -614V-618Q793 -631 796 -645Q822 -661 854 -665H859Q875 -661 890 -657Q894 -657 896 -658Q901 -650 902 -650Q900 -642 900 -638Q900 -629 907 -610Q914 -591 914 -581ZM837 -57Q821 6 796 52V64Q768 82 753 131Q734 138 716 140Q704 126 685 126Q679 126 673 129Q663 112 628 97Q594 81 579 71Q590 73 595 66Q600 58 590 49V51Q588 54 584 55Q578 57 577 64Q565 56 549 56Q534 56 515 57Q511 57 501 59Q499 55 486 51Q479 51 472 50Q462 48 441 48Q424 48 390 52Q352 64 313 76Q306 80 291 85Q270 91 262 99Q258 104 254 112Q250 120 243 121H242Q230 117 217 101Q204 88 180 86Q172 74 172 50Q172 34 175 33Q178 31 183 22Q182 19 182 8Q182 -8 184 -12Q195 -19 205 -23Q214 -28 223 -36Q232 -47 245 -64Q258 -82 269 -89Q235 -36 231 -27Q237 -17 248 -17Q267 -21 285 -27Q315 -29 323 -33Q352 -38 381 -43H383Q430 -46 476 -49Q493 -50 509 -52Q517 -52 529 -59Q542 -67 548 -67Q550 -73 552 -80Q544 -82 539 -82Q523 -82 505 -74Q495 -73 484 -72Q453 -69 428 -58Q426 -56 421 -55Q401 -56 382 -56Q374 -72 360 -78Q356 -114 356 -135L354 -143Q355 -144 355 -145Q355 -146 351 -159L355 -166Q347 -170 338 -173Q329 -176 327 -186L323 -185Q311 -188 299 -195Q294 -207 294 -253Q311 -273 329 -291Q347 -309 375 -314Q374 -311 368 -307Q362 -303 361 -297Q372 -294 384 -294H386Q382 -300 379 -305Q371 -324 362 -344Q368 -359 374 -374Q302 -336 269 -287Q250 -272 249 -272Q244 -270 227 -276Q204 -279 193 -293Q181 -307 165 -317Q169 -325 177 -329Q174 -337 164 -346Q156 -353 154 -356Q173 -350 192 -345Q237 -364 276 -390Q314 -416 353 -441Q320 -441 276 -428Q255 -422 206 -404Q197 -401 180 -385Q161 -367 151 -366H149Q127 -371 106 -383Q90 -388 74 -391Q58 -395 48 -405Q46 -411 46 -420Q46 -446 71 -463Q70 -467 70 -473Q73 -509 107 -520Q140 -532 171 -540Q169 -536 160 -530Q150 -524 150 -517L151 -513L154 -512Q157 -512 162 -516Q168 -521 172 -521V-519Q172 -516 171 -514V-512Q209 -519 246 -526Q254 -527 262 -528Q269 -528 271 -523L307 -529Q315 -541 332 -544Q349 -547 363 -552Q362 -555 362 -561Q365 -576 375 -587Q361 -587 356 -575Q324 -563 292 -551Q287 -561 270 -572Q256 -581 252 -586Q248 -584 245 -584H242L240 -585Q243 -590 246 -595Q242 -601 235 -601Q222 -598 208 -595Q212 -600 224 -608Q219 -612 209 -612Q192 -612 178 -606Q180 -613 186 -615Q193 -617 199 -620Q191 -622 187 -622Q172 -622 147 -610Q128 -601 119 -599Q122 -606 129 -609Q136 -612 142 -615Q248 -671 264 -678Q304 -697 314 -698L348 -715Q350 -732 372 -748Q393 -763 413 -767Q417 -768 425 -768Q461 -765 483 -736Q505 -708 519 -684Q516 -675 506 -660Q492 -640 492 -626V-620Q465 -616 440 -611Q456 -591 469 -570Q472 -571 478 -571Q505 -571 523 -539V-538L522 -535H521L519 -534V-533Q525 -524 525 -514Q524 -487 504 -476H502Q493 -477 484 -478Q478 -478 475 -474Q479 -458 500 -458H505Q506 -453 511 -443Q516 -433 516 -423Q544 -426 563 -462Q573 -481 588 -529L585 -530Q579 -528 573 -526Q527 -533 517 -560Q502 -568 502 -582Q508 -611 534 -626Q549 -620 562 -618Q567 -618 573 -621H574L576 -620Q575 -618 574 -616L575 -615H576Q578 -615 580 -619Q584 -626 588 -626H590Q583 -618 583 -607Q583 -588 602 -569Q608 -575 613 -599Q616 -616 621 -624Q615 -641 612 -659Q608 -663 603 -665Q597 -668 596 -674Q600 -674 606 -680Q604 -686 602 -692Q620 -703 634 -722Q648 -742 673 -747H675Q693 -744 710 -736H719Q737 -726 751 -700Q763 -677 767 -650Q763 -645 756 -639Q743 -628 739 -621L717 -593V-591Q717 -586 704 -560Q691 -534 690 -520Q741 -477 749 -471Q783 -446 819 -434Q823 -435 826 -440Q829 -446 832 -446L838 -434Q843 -436 843 -448Q843 -460 849 -461V-456Q849 -447 848 -438Q848 -432 852 -428Q857 -437 858 -463Q860 -494 867 -503V-488Q867 -465 873 -417Q875 -412 883 -411Q885 -397 893 -388Q901 -379 907 -368Q903 -354 902 -342Q900 -329 893 -320Q882 -309 867 -309Q838 -314 805 -320Q799 -331 791 -339Q783 -347 782 -362L757 -374Q713 -414 661 -446Q645 -421 633 -351V-350H636Q643 -353 648 -348Q657 -343 666 -338Q673 -335 679 -332Q682 -331 687 -331Q688 -332 686 -334Q684 -337 684 -341Q685 -342 686 -341Q689 -342 692 -339Q696 -335 699 -336Q701 -332 701 -330L700 -326L701 -322Q710 -317 718 -313L717 -312V-311Q721 -309 724 -307L726 -305L725 -302Q729 -299 732 -296V-295Q730 -290 728 -285L729 -282Q722 -281 722 -280Q722 -278 717 -277Q675 -247 673 -243Q672 -240 674 -235V-234L671 -233Q671 -220 678 -201L679 -200Q683 -188 685 -183Q688 -177 688 -174L689 -173V-172Q689 -168 686 -168Q682 -164 670 -158Q674 -159 681 -159Q711 -160 727 -165Q746 -171 758 -189Q760 -188 763 -188Q765 -188 773 -194Q776 -195 780 -195L783 -196Q787 -200 792 -212Q798 -227 805 -230L806 -226Q803 -213 800 -201L801 -200Q802 -200 803 -203Q803 -206 807 -206H810Q811 -204 811 -201Q810 -193 809 -186Q809 -181 810 -180L811 -179Q813 -182 818 -185L820 -184Q819 -180 819 -175Q819 -162 834 -132Q850 -100 851 -86Q848 -68 837 -57ZM605 -154Q590 -159 580 -164Q580 -166 579 -168Q577 -171 575 -175Q567 -181 553 -184Q550 -179 550 -170V-168Q545 -163 540 -158Q526 -156 511 -155Q499 -155 492 -162Q482 -158 471 -155Q471 -158 476 -162Q480 -165 481 -168Q478 -177 471 -181H469Q464 -181 435 -173Q436 -147 435 -129Q512 -146 605 -154ZM598 30Q614 32 622 32Q633 32 638 31Q632 22 619 22Q662 18 674 -89Q647 -87 620 -85Q582 -79 558 -79Q559 -73 560 -67Q564 -59 570 -59Q580 -61 589 -63H590Q582 -57 582 -46Q582 -40 588 -34Q596 -36 603 -38H606Q601 -27 595 -17Q596 -9 606 -5Q598 15 600 25Q600 28 598 30ZM595 37Q594 41 591 47H597Q610 49 623 50Q627 50 630 47Q621 41 595 37ZM576 -327Q567 -332 564 -338Q556 -345 543 -350Q531 -356 526 -368Q525 -371 525 -378V-389Q525 -402 516 -408Q506 -388 490 -384H486Q476 -385 465 -386Q461 -386 457 -384L456 -382Q453 -320 450 -304Q455 -304 459 -305L462 -307Q458 -319 458 -324Q460 -352 481 -360Q484 -360 487 -361Q499 -361 520 -349Q537 -339 543 -338Q541 -334 541 -330Q542 -324 542 -319H543Q560 -321 576 -327ZM551 -187Q560 -186 569 -185H574Q574 -188 560 -192Q556 -193 546 -193Q549 -190 551 -187ZM543 -197Q549 -197 555 -197Q561 -197 569 -199Q576 -225 582 -255Q533 -252 480 -238Q485 -235 489 -232Q502 -235 526 -224L556 -243L534 -210Q537 -207 543 -197ZM475 -237Q470 -235 464 -234Q470 -229 479 -228V-231Q479 -233 475 -237ZM458 -232L455 -231Q441 -230 433 -216Q434 -195 435 -174Q455 -183 470 -195Q461 -208 451 -209Q457 -211 464 -211Q471 -212 472 -217V-218Q469 -226 458 -232Z"/>
</svg>