<svg xmlns="http://www.w3.org/2000/svg" viewBox="0 -800 1024 1024">
	<path fill="#000000" d="M914 -125H923Q921 -109 917 -106Q914 -106 914 -112Q915 -116 915 -121ZM863 -742Q860 -737 842 -727Q828 -719 828 -706Q830 -704 831 -702Q837 -702 843 -703Q847 -703 851 -700Q848 -697 841 -695Q832 -692 831 -687V-685Q831 -677 843 -674Q853 -672 857 -667Q847 -665 838 -664Q828 -662 825 -654Q826 -651 826 -648L825 -645Q819 -639 816 -633Q815 -631 815 -627Q817 -615 818 -604V-600Q811 -601 810 -607Q808 -614 807 -621Q772 -621 744 -649Q737 -657 729 -666H727Q720 -662 709 -658H708Q714 -676 722 -679Q717 -693 713 -707Q709 -723 692 -727Q697 -731 713 -733Q715 -740 725 -747Q739 -757 739 -768V-771Q747 -765 771 -763Q799 -760 807 -750Q815 -755 826 -757H830Q814 -744 814 -734Q814 -729 818 -724H819Q826 -724 838 -732Q853 -742 863 -742ZM851 -769Q849 -761 833 -759L832 -761Q832 -770 845 -770Q849 -770 851 -769ZM710 -225Q730 -179 735 -174Q744 -186 784 -211Q826 -237 847 -242Q859 -245 876 -230Q880 -208 883 -187Q883 -173 876 -162Q863 -158 829 -136Q793 -113 786 -104Q803 -82 821 -62Q839 -41 867 -32Q873 -38 876 -56Q879 -75 883 -80Q883 -66 882 -52Q882 -35 887 -29Q893 -53 894 -108Q894 -151 896 -164Q905 -149 905 -120Q903 -79 900 -39Q900 -27 901 -22Q903 -13 908 -10Q910 -15 910 -27Q909 -48 907 -70Q907 -89 916 -95V-84Q916 -18 932 23Q937 30 941 37Q943 51 943 61Q943 90 935 100Q922 117 892 117Q873 117 855 109Q847 102 839 94Q832 90 824 83Q816 76 815 66V63L799 37Q789 36 774 19Q753 -9 729 -37Q728 -48 719 -53Q657 -14 639 0Q597 32 577 70Q567 70 556 83Q527 83 509 70V67Q509 48 498 48Q496 48 492 50Q495 42 498 34Q495 28 491 22Q492 19 492 15Q489 3 483 -7Q477 -31 471 -55Q458 -88 457 -100Q477 -71 494 -40L495 -42Q494 -45 492 -48L494 -50H496Q499 -50 500 -46Q501 -41 503 -40Q510 -36 518 -36Q526 -36 556 -46L589 -61Q593 -78 607 -83Q621 -89 630 -100Q633 -99 635 -99L637 -100Q643 -103 649 -109Q654 -114 663 -115Q669 -124 680 -130Q664 -153 644 -201Q609 -187 590 -177Q580 -171 569 -150Q554 -121 535 -120H533Q515 -122 500 -133Q499 -144 490 -151Q484 -155 471 -159Q467 -171 467 -176Q469 -218 474 -272Q493 -293 514 -312L515 -309Q513 -302 511 -296L512 -292Q528 -296 598 -322Q584 -360 583 -376Q560 -366 538 -366Q524 -366 513 -404Q502 -410 489 -443Q487 -449 487 -452V-454Q460 -440 460 -422Q460 -414 466 -407H478Q472 -397 472 -380V-354Q472 -335 468 -326Q452 -326 452 -318Q430 -313 407 -309Q383 -299 351 -267Q349 -268 345 -268Q344 -268 336 -264Q327 -276 316 -276Q312 -276 310 -275Q308 -277 308 -285Q306 -286 302 -286Q299 -286 293 -284Q304 -267 310 -249Q321 -189 321 -140Q321 -136 304 -120Q290 -107 290 -105Q291 -102 291 -100Q371 -140 453 -183Q445 -174 425 -157Q405 -140 403 -126Q403 -119 405 -115Q410 -115 423 -127Q436 -139 440 -139Q417 -120 410 -93Q411 -85 411 -77V-72Q408 -52 405 -33V-31Q399 -9 391 13Q273 55 239 119Q236 120 232 120Q220 120 214 113Q208 106 200 97Q186 85 172 74Q157 63 156 41V38Q146 53 135 68Q133 60 133 56Q133 42 145 22Q160 -3 160 -20V-28Q159 -28 158 -28Q153 -32 175 -70Q196 -106 200 -95Q199 -89 193 -79H195Q198 -79 199 -73Q200 -66 202 -64Q207 -71 222 -73V-96Q222 -105 224 -119V-161Q211 -186 211 -229Q211 -233 214 -266Q215 -286 225 -309Q238 -314 257 -314Q273 -314 288 -292Q306 -330 324 -368Q306 -368 286 -358Q274 -352 253 -338Q222 -320 196 -303Q170 -285 163 -244L160 -245Q158 -245 155 -240Q150 -242 145 -244Q138 -243 136 -234Q134 -268 117 -270H114Q105 -270 100 -263Q95 -257 90 -249Q99 -297 105 -346Q112 -394 126 -441Q124 -446 125 -464Q127 -481 124 -487Q120 -502 124 -524Q121 -545 118 -566Q116 -567 113 -562Q109 -555 105 -555Q105 -600 152 -654Q174 -680 199 -680H203Q212 -678 247 -651Q276 -629 286 -614Q291 -606 291 -596Q290 -580 282 -563Q273 -547 266 -533Q249 -504 243 -468Q243 -466 248 -465Q252 -464 253 -462Q276 -474 299 -486Q322 -499 340 -517Q362 -509 386 -505Q396 -505 401 -511L402 -508V-505Q402 -500 404 -498Q421 -511 438 -524Q434 -517 428 -509Q423 -502 422 -492Q422 -486 423 -483Q426 -483 431 -488Q430 -485 430 -480Q430 -468 437 -458Q445 -447 456 -444Q472 -449 487 -455Q488 -458 490 -460Q493 -462 493 -468Q495 -501 505 -521Q524 -536 551 -536Q555 -536 557 -535L556 -537Q558 -540 559 -544Q556 -560 553 -577Q549 -605 544 -634Q540 -667 513 -690Q513 -717 525 -740Q539 -767 558 -767Q564 -767 574 -762Q575 -763 580 -763H587Q593 -763 595 -765Q615 -748 634 -730Q653 -712 654 -686Q654 -682 652 -672Q651 -667 645 -658Q637 -647 636 -640V-637Q637 -630 637 -624V-621Q635 -599 632 -577Q632 -569 633 -565H635Q645 -565 663 -572Q682 -579 691 -579L714 -598Q726 -605 735 -613Q745 -621 757 -622Q770 -617 783 -612H784Q791 -614 797 -616Q798 -614 798 -611Q797 -604 796 -597Q796 -593 799 -589L801 -588Q805 -591 808 -594L810 -592Q813 -539 822 -513Q810 -482 810 -471V-468Q728 -437 651 -400Q650 -397 650 -392Q650 -382 661 -347Q667 -349 673 -351L710 -365Q731 -375 735 -376Q739 -376 742 -373L776 -393Q776 -401 786 -405Q796 -409 805 -412Q826 -426 846 -440L849 -438Q848 -434 846 -431Q852 -433 864 -445Q880 -462 889 -463V-461Q889 -456 883 -451Q873 -442 874 -435Q876 -431 876 -430H879Q885 -432 890 -435L893 -434Q887 -423 888 -415Q894 -391 909 -369Q907 -368 907 -336Q908 -331 910 -319Q893 -300 867 -292Q841 -284 816 -274Q766 -255 725 -231Q719 -229 710 -225Z"/>
</svg>