<svg xmlns="http://www.w3.org/2000/svg" viewBox="0 -800 1024 1024">
	<path fill="#000000" d="M116 -582Q112 -585 112 -594Q112 -611 124 -611Q123 -613 123 -616Q124 -622 124 -628V-630L121 -631Q113 -628 105 -626H104Q107 -631 112 -645Q117 -659 123 -666Q135 -676 153 -684Q158 -688 168 -700Q177 -711 184 -715Q207 -715 216 -712Q231 -693 249 -669Q267 -645 269 -612Q269 -605 268 -599Q267 -593 259 -583Q248 -569 248 -557Q271 -562 303 -578Q329 -591 338 -594Q341 -606 341 -608Q347 -598 362 -598Q371 -598 378 -602Q386 -583 397 -583H401Q404 -561 422 -549Q413 -522 424 -490Q412 -472 412 -458Q404 -459 396 -460Q388 -460 388 -454Q385 -455 379 -455Q364 -455 338 -443Q311 -430 295 -429Q249 -412 204 -393L193 -388Q152 -367 144 -363Q112 -345 105 -330Q93 -323 78 -328Q54 -339 48 -347Q40 -358 36 -390V-411Q36 -428 34 -436Q34 -440 33 -444Q33 -473 59 -488Q62 -496 79 -525Q82 -534 87 -544Q91 -554 103 -555ZM329 29Q329 35 324 38Q319 41 311 47Q299 58 286 68Q268 81 249 84Q231 84 227 65Q213 65 205 55Q198 46 198 32Q198 -2 207 -13Q205 -18 205 -29Q205 -58 239 -71L225 -76Q221 -101 216 -126H210Q194 -116 147 -92Q116 -79 100 -93Q94 -118 82 -132L89 -152Q85 -161 72 -172Q59 -183 55 -191Q88 -177 89 -177L90 -178Q89 -181 87 -185V-187Q93 -184 97 -185Q118 -187 165 -207Q198 -221 213 -225Q213 -248 206 -256Q195 -248 165 -240Q152 -235 138 -231Q131 -231 127 -233Q106 -256 74 -256Q74 -269 86 -276Q85 -280 85 -286Q85 -303 101 -314Q115 -324 136 -328Q160 -343 169 -347Q219 -361 265 -380Q282 -383 300 -391Q319 -399 336 -405V-404Q336 -403 335 -402Q332 -402 331 -401H335Q345 -404 354 -407H356Q347 -396 348 -387Q348 -382 353 -378Q361 -383 364 -383Q359 -379 360 -370Q360 -360 370 -348Q358 -332 361 -304Q357 -306 355 -306Q352 -305 347 -295Q346 -294 321 -289Q308 -287 295 -285Q294 -266 291 -249Q295 -250 370 -281Q393 -290 405 -291Q395 -283 390 -274Q400 -276 409 -278Q403 -269 396 -261Q402 -225 392 -201Q378 -184 353 -177Q308 -170 295 -156Q284 -133 285 -75Q328 -98 361 -121Q373 -131 393 -140Q393 -137 382 -127Q372 -118 372 -117L373 -114L376 -113Q383 -120 394 -122Q381 -104 384 -72Q388 -40 387 -32Q383 -25 382 -14Q381 -4 377 -2Q360 11 339 21ZM906 -500V-501Q907 -513 919 -514Q922 -514 926 -512Q923 -500 906 -500ZM543 -109H541Q535 -109 532 -106Q529 -103 526 -100Q531 -83 533 -58Q536 -34 551 -23Q553 -25 557 -26Q545 -47 543 -109ZM640 -125V-126L638 -127H634L632 -128Q633 -132 634 -136L632 -139Q620 -139 612 -133Q625 -113 627 -75Q626 -59 625 -44Q625 -31 632 -29Q638 -68 641 -108Q641 -119 640 -125ZM767 -164H762Q743 -162 724 -160Q724 -147 733 -127Q699 -91 690 -34Q701 -40 707 -51Q713 -63 719 -75Q757 -138 767 -164ZM535 -427Q551 -439 584 -439Q610 -439 622 -445Q615 -459 608 -474Q601 -489 600 -506V-511Q601 -521 614 -535Q627 -549 627 -558Q627 -560 625 -566Q604 -557 579 -541Q573 -537 565 -525Q554 -510 545 -508Q541 -507 534 -507Q509 -507 489 -533V-544Q465 -565 465 -599Q465 -621 478 -635Q462 -662 461 -670H462Q468 -670 471 -663Q474 -657 478 -656Q482 -660 482 -666Q482 -675 471 -686Q456 -702 455 -703Q472 -693 495 -687Q499 -686 503 -686Q523 -688 542 -691Q551 -691 558 -687L584 -695Q592 -706 608 -712Q624 -718 640 -724Q669 -741 692 -757Q700 -760 708 -760Q729 -760 763 -742Q770 -744 776 -747Q779 -747 781 -746L782 -745Q781 -741 779 -738V-736Q787 -728 796 -728Q804 -728 819 -737Q836 -747 846 -748Q835 -740 825 -731Q814 -722 813 -707V-704L815 -702Q819 -705 825 -708L828 -707Q824 -697 819 -688Q814 -678 814 -664V-659L817 -658Q823 -662 828 -667V-664Q824 -650 819 -637L818 -633Q819 -626 820 -620Q820 -617 819 -615Q815 -600 799 -598Q771 -595 766 -593Q758 -589 749 -577Q741 -565 733 -555Q720 -542 709 -530Q697 -518 696 -499V-493Q697 -482 706 -473Q711 -468 723 -461Q747 -468 773 -473Q799 -478 819 -490Q824 -489 829 -489Q859 -492 895 -499Q893 -495 885 -491Q874 -485 874 -478V-476Q877 -466 893 -466Q912 -467 931 -469H936Q901 -460 901 -443Q901 -435 911 -425H914Q917 -425 921 -427L922 -425Q918 -419 914 -413Q911 -394 903 -377Q889 -359 873 -345Q870 -344 866 -344Q857 -344 840 -351Q826 -357 820 -358Q814 -359 801 -359Q761 -357 723 -352Q702 -317 686 -281L675 -268Q677 -264 677 -261Q677 -256 670 -245Q665 -237 664 -232Q725 -244 805 -250Q822 -267 840 -269H864Q874 -269 878 -274Q878 -268 874 -262Q879 -256 889 -253Q903 -259 911 -271Q920 -284 938 -286Q929 -274 916 -261Q902 -249 901 -233Q901 -231 903 -223Q910 -224 916 -232Q923 -240 929 -241V-240Q929 -235 923 -227Q912 -213 912 -203V-202Q912 -193 922 -178Q932 -163 932 -156V-154Q930 -137 913 -126Q895 -116 881 -109L871 -92Q870 -84 862 -72Q853 -58 852 -47H862Q897 -47 918 -53L921 -52Q919 -48 917 -44Q923 -41 928 -41Q947 -45 964 -52V-51Q964 -47 956 -41Q944 -32 944 -23V-19Q948 -17 949 -17Q957 -20 965 -23H967Q964 -18 964 -1Q968 5 972 11Q973 15 973 22Q971 46 954 61Q937 76 923 88Q893 74 861 70Q841 68 821 66Q801 64 787 52L772 49Q763 59 743 59Q719 59 705 49Q655 53 610 60Q610 59 606 57Q602 55 602 52L551 60Q549 66 544 66Q541 66 537 65H535Q518 68 490 84Q468 97 456 100Q450 102 446 102Q440 102 430 100Q425 93 408 83Q391 73 385 65Q386 61 386 54V43Q386 37 387 35Q388 31 394 29Q399 27 400 25Q404 21 404 14Q404 6 409 4H412Q422 4 447 -5Q439 -30 430 -55Q425 -49 415 -93Q406 -132 405 -126Q391 -158 397 -184Q404 -213 434 -217Q449 -220 455 -220Q479 -220 490 -203Q505 -203 532 -211Q556 -218 573 -218Q573 -223 566 -229Q557 -236 557 -242V-243Q560 -253 563 -263Q561 -273 559 -283Q559 -287 563 -290Q558 -303 552 -317Q558 -315 563 -307Q567 -300 572 -298Q591 -307 618 -338Q577 -335 532 -317Q517 -309 502 -296Q488 -282 469 -281Q458 -281 449 -286Q431 -292 427 -316Q407 -329 405 -355Q405 -370 416 -377V-382Q416 -400 426 -413Q431 -420 447 -433Q460 -445 474 -449H475Q474 -444 467 -437Q461 -431 459 -427Q485 -424 511 -422Z"/>
</svg>