<svg xmlns="http://www.w3.org/2000/svg" viewBox="0 -800 1024 1024">
	<path fill="#000000" d="M838 -254Q838 -245 831 -240Q826 -241 826 -250Q826 -259 833 -263Q838 -260 838 -254ZM898 -524Q897 -520 890 -517Q883 -514 877 -511Q879 -524 891 -526Q894 -526 898 -524ZM800 -372Q758 -374 716 -376H712Q708 -375 701 -375Q663 -370 639 -369Q614 -367 588 -366Q576 -364 569 -360L532 -356Q527 -355 522 -355Q543 -349 564 -343Q561 -338 561 -321V-320Q567 -318 572 -318Q590 -322 608 -326H626Q632 -328 638 -336Q645 -344 651 -346Q656 -349 664 -349Q670 -352 676 -346Q684 -343 694 -336Q701 -333 707 -330Q709 -329 715 -329Q716 -330 714 -332Q713 -333 712 -336Q711 -340 714 -340Q716 -341 719 -338Q723 -334 726 -334Q728 -332 728 -329L727 -325Q727 -324 729 -320Q737 -316 745 -312L744 -311V-310Q748 -308 751 -306L753 -304L752 -301Q757 -299 759 -295V-294Q757 -289 755 -284L756 -282Q749 -281 749 -279Q749 -277 744 -276Q720 -262 701 -243Q699 -240 702 -235V-234L699 -233Q701 -216 715 -187Q715 -186 712 -182Q714 -176 716 -174Q712 -164 697 -158Q701 -159 709 -159Q741 -161 754 -165Q773 -171 785 -189Q787 -188 790 -188Q793 -188 800 -195Q803 -196 807 -196L810 -197Q815 -201 819 -212Q825 -227 832 -230L833 -226Q830 -213 827 -201L828 -200Q829 -200 830 -203Q830 -206 834 -206H837Q838 -204 838 -201Q837 -193 836 -186Q836 -182 837 -181L838 -180Q839 -180 840 -182Q841 -185 844 -185L846 -184Q845 -181 845 -175Q845 -163 860 -134Q876 -103 877 -88Q873 -67 860 -55Q848 -43 837 -31L834 -32Q831 -31 828 -31H825L823 61Q795 79 780 127Q762 132 743 136Q731 122 713 122Q707 122 701 125Q691 109 656 94Q622 78 607 68Q618 70 623 63Q628 55 618 46V48Q614 52 611 52Q608 53 606 61Q581 48 544 53Q540 53 530 55Q529 53 516 48Q511 48 501 46Q492 45 471 45Q447 45 417 50Q362 70 341 74Q329 79 317 83Q304 86 294 95Q290 100 285 108Q281 116 274 117H273Q261 113 248 97Q236 84 212 82Q204 71 204 47Q204 31 207 30Q210 28 215 19Q214 16 214 5Q214 -11 215 -14Q227 -22 236 -26Q246 -30 254 -39Q263 -49 276 -66Q289 -84 300 -91Q266 -38 262 -29Q270 -19 280 -19Q298 -24 316 -29Q346 -31 353 -35Q382 -40 411 -45H413Q460 -48 506 -51Q522 -52 538 -54Q546 -54 558 -61Q570 -68 577 -69Q579 -77 581 -81Q571 -83 568 -83Q555 -83 534 -76Q524 -75 513 -74Q483 -71 458 -60Q456 -58 451 -57Q431 -58 412 -58Q402 -75 390 -79Q388 -107 386 -136L384 -144Q385 -145 385 -146Q385 -147 381 -159L385 -167Q377 -170 368 -173Q359 -176 358 -186L354 -185Q342 -189 330 -196Q325 -207 325 -252Q342 -272 360 -290Q377 -308 405 -313Q404 -310 398 -306Q392 -302 391 -296Q402 -293 414 -293Q430 -293 462 -299Q459 -306 459 -314Q459 -333 470 -347Q394 -334 331 -318L297 -304H296Q281 -302 264 -287Q249 -273 237 -272L232 -271Q226 -271 196 -281Q179 -285 161 -289Q138 -294 133 -315Q132 -320 134 -331Q140 -343 145 -356Q149 -369 153 -382Q159 -391 172 -396Q184 -401 196 -407Q218 -423 238 -433V-432Q238 -430 232 -424Q221 -414 222 -408Q228 -402 242 -403Q251 -403 254 -402Q267 -406 276 -407Q271 -412 267 -413Q270 -417 270 -421Q267 -428 264 -435Q264 -452 282 -464Q299 -476 309 -488Q288 -487 269 -478Q252 -467 234 -462H233Q207 -465 195 -487Q192 -493 192 -501Q192 -512 191 -523Q191 -530 189 -533Q237 -569 291 -618L316 -640Q328 -666 368 -694Q368 -707 380 -719Q371 -726 362 -734L366 -735Q378 -733 390 -732H392L394 -735Q392 -738 390 -741Q415 -749 436 -752H441Q454 -752 467 -742Q481 -731 492 -731V-729Q492 -725 492 -721Q492 -717 496 -716H499Q508 -717 518 -723Q512 -713 505 -704Q510 -697 522 -685Q506 -677 506 -661Q423 -635 370 -580Q408 -593 427 -595Q429 -595 433 -599L435 -597L434 -593L436 -591Q437 -590 441 -590Q444 -590 450 -592Q449 -589 449 -585Q450 -580 458 -572Q465 -565 467 -560Q461 -550 455 -540Q420 -525 387 -490Q440 -509 492 -528Q490 -534 490 -540Q489 -546 482 -549Q487 -554 487 -560Q486 -567 487 -574Q503 -581 527 -601Q550 -620 565 -627L619 -675Q622 -685 631 -692Q640 -698 649 -706Q653 -712 656 -718Q662 -722 667 -727Q669 -733 671 -739Q674 -744 676 -750Q675 -753 669 -756Q662 -760 661 -765H663Q675 -763 686 -762Q689 -762 693 -764Q693 -767 690 -767Q686 -767 686 -770Q711 -776 736 -782H740Q751 -782 764 -771Q778 -759 789 -759Q789 -755 789 -751Q789 -749 791 -747Q796 -749 800 -752H801Q801 -745 802 -742Q803 -730 804 -719Q806 -703 800 -693Q738 -676 663 -616Q708 -631 732 -636Q736 -632 739 -629Q744 -630 748 -632V-631Q748 -628 747 -625V-624Q747 -620 755 -612Q762 -604 762 -599Q761 -594 759 -590L760 -587Q739 -574 718 -562Q697 -550 681 -533Q698 -539 741 -552V-553Q762 -559 783 -565H785Q784 -561 772 -556Q755 -549 755 -541Q766 -546 777 -551Q777 -548 770 -543Q764 -539 765 -536Q765 -534 768 -531Q774 -533 779 -536Q779 -539 781 -545L782 -536H783V-535L782 -533L783 -526Q785 -511 793 -503Q809 -508 825 -514Q821 -508 819 -503Q821 -498 831 -493Q845 -500 864 -506H866Q859 -501 852 -496Q846 -492 846 -486V-485Q849 -478 854 -480Q861 -482 868 -484Q872 -484 874 -482L875 -481Q872 -473 865 -464Q876 -447 910 -447Q910 -445 907 -444H897Q893 -444 890 -441Q895 -430 896 -423Q898 -406 891 -391Q884 -377 878 -363Q843 -368 800 -369ZM777 -529Q774 -528 773 -525Q771 -521 771 -517Q772 -514 770 -512Q768 -511 761 -509Q744 -507 720 -497Q699 -488 685 -487L661 -477L659 -475Q665 -476 671 -478Q680 -478 683 -474L719 -479Q724 -487 738 -489Q752 -491 765 -494Q771 -505 777 -529ZM634 -155Q616 -161 608 -165Q607 -166 608 -169Q607 -169 604 -176Q601 -179 582 -184Q578 -176 578 -171V-169Q574 -164 569 -159Q542 -156 540 -156Q527 -156 521 -163Q511 -159 500 -156Q500 -160 505 -163Q510 -166 510 -169Q507 -176 501 -181H498Q491 -181 465 -174Q466 -148 465 -130Q541 -147 634 -155ZM626 27Q642 29 650 29Q661 29 666 28Q660 19 647 19Q690 15 702 -91Q675 -89 648 -87Q614 -82 587 -80Q588 -74 589 -69Q592 -61 598 -61Q608 -63 617 -65H619Q611 -60 611 -48Q611 -42 617 -36Q627 -40 631 -40H634Q629 -29 624 -19Q624 -12 634 -8Q626 12 628 22Q628 25 626 27ZM623 34Q620 42 619 44Q622 44 625 44Q638 46 651 47Q655 47 658 44Q649 38 623 34ZM580 -187Q589 -186 597 -185Q601 -185 603 -186Q601 -190 588 -192Q582 -193 575 -194Q579 -188 580 -187ZM572 -198H584Q593 -198 597 -199Q604 -226 610 -254Q568 -251 509 -238Q517 -232 519 -232Q530 -235 555 -224L585 -242L562 -211Q567 -204 572 -198ZM566 -461H564Q566 -463 566 -468Q564 -476 561 -485Q561 -490 565 -497Q570 -499 575 -502Q585 -513 595 -524Q604 -528 608 -534Q586 -530 568 -522Q552 -511 535 -506Q521 -507 500 -520Q494 -515 494 -509Q495 -507 501 -509Q499 -507 495 -500Q500 -492 505 -485Q508 -482 507 -479Q506 -476 498 -474Q459 -462 419 -451Q413 -449 403 -445Q393 -441 375 -431Q454 -448 504 -454Q533 -458 550 -459ZM505 -237Q497 -235 494 -234Q499 -229 508 -228L509 -230Q509 -233 505 -237ZM487 -232L484 -231Q471 -229 463 -216Q464 -195 465 -174Q484 -184 499 -195Q490 -208 480 -209Q487 -211 494 -211Q501 -212 502 -217V-218Q502 -223 497 -226Q492 -228 487 -232Z"/>
</svg>