<svg xmlns="http://www.w3.org/2000/svg" viewBox="0 -800 1024 1024">
	<path fill="#000000" d="M899 -200H883Q875 -200 872 -198Q877 -195 878 -189Q892 -194 899 -200ZM863 -739Q861 -729 842 -727Q844 -741 856 -741Q859 -741 863 -739ZM920 -457H928Q931 -454 931 -450Q929 -439 924 -432Q919 -439 919 -448Q919 -454 920 -457ZM194 -165Q208 -191 208 -204Q208 -210 207 -214Q190 -203 190 -181Q190 -172 194 -165ZM287 -391Q289 -394 289 -404Q289 -424 281 -430Q271 -424 261 -418Q268 -416 274 -404Q280 -393 287 -391ZM687 -56V-69Q691 -95 694 -122Q689 -126 686 -133Q686 -134 688 -138H686Q681 -138 671 -132Q679 -97 681 -65Q681 -60 679 -42Q687 -44 687 -56ZM616 -36H619Q622 -36 625 -37L628 -36Q625 -40 625 -59Q625 -70 625 -81Q625 -112 616 -112Q612 -112 607 -108Q609 -56 616 -36ZM721 -45H736Q752 -100 768 -156Q764 -156 759 -157Q752 -157 749 -154V-150Q749 -142 752 -138Q755 -134 758 -129Q728 -109 721 -45ZM355 -263Q357 -281 357 -296Q357 -308 355 -322Q338 -320 328 -307Q319 -295 319 -277Q319 -266 323 -255Q328 -260 340 -260Q351 -260 355 -263ZM332 -62V-81Q291 -76 262 -60Q233 -44 206 -27Q208 -21 210 -16Q237 -33 268 -41Q299 -50 332 -62ZM323 -156V-154Q323 -146 329 -143Q334 -141 339 -137Q342 -157 344 -178Q344 -186 342 -190Q332 -188 322 -180Q312 -172 302 -166Q275 -175 275 -217Q275 -224 277 -240Q281 -256 285 -273Q285 -279 283 -282H281Q268 -277 266 -265Q263 -253 262 -237Q259 -217 255 -198V-188Q256 -168 257 -149Q257 -126 235 -125Q218 -139 196 -151Q193 -139 193 -127Q193 -108 201 -99Q222 -107 256 -125Q300 -148 323 -156ZM641 -241H639Q615 -241 600 -254Q594 -259 577 -283Q584 -289 589 -308Q594 -328 601 -333V-342Q601 -368 591 -378Q592 -382 592 -386Q592 -389 588 -390Q594 -413 622 -417Q625 -425 637 -425Q648 -425 655 -420Q658 -407 665 -399Q672 -390 678 -381V-378Q678 -372 672 -360Q667 -349 665 -341V-335Q667 -312 669 -290Q669 -282 668 -278Q665 -266 657 -258Q648 -250 641 -241ZM555 -523H554Q545 -523 529 -514Q513 -505 503 -505H500Q490 -506 471 -520Q452 -534 449 -545Q448 -549 448 -556Q448 -563 446 -565Q445 -553 443 -541Q443 -532 447 -525Q433 -512 392 -497Q346 -480 329 -460Q332 -457 336 -455Q341 -453 342 -448Q341 -438 339 -429Q352 -439 369 -452Q386 -466 406 -467Q418 -467 428 -462Q432 -475 446 -479Q445 -475 437 -456Q441 -445 453 -427Q469 -401 474 -385Q464 -365 451 -347Q437 -329 436 -304Q437 -299 437 -295Q467 -308 481 -337Q495 -368 511 -396Q510 -402 497 -412Q485 -421 483 -429Q482 -431 482 -437Q483 -450 484 -463Q490 -469 524 -489Q549 -504 555 -523ZM474 -91V-97Q474 -106 469 -119Q464 -132 464 -137V-140Q465 -146 481 -163Q497 -180 502 -181Q510 -183 514 -183Q542 -178 566 -166Q650 -188 732 -213Q695 -224 695 -279Q695 -295 696 -304Q701 -309 701 -325Q701 -334 702 -338Q706 -353 709 -369Q706 -393 693 -413Q695 -421 696 -429V-430Q693 -431 690 -433V-435Q707 -442 720 -454H716Q646 -454 558 -408Q561 -400 570 -388Q582 -373 582 -363V-361Q582 -358 567 -325Q553 -295 502 -209Q499 -208 495 -208Q477 -212 458 -216V-219Q457 -230 452 -237L448 -238H445Q441 -238 441 -240V-244Q441 -255 432 -264Q417 -189 417 -82Q417 -55 419 -5Q430 -7 443 -19Q459 -33 472 -34Q463 -31 463 -21Q463 -15 465 -12Q498 -18 530 -25Q509 -89 474 -91ZM937 61H931Q932 63 932 66Q931 73 929 79Q930 82 930 84Q894 72 833 68Q817 67 726 63Q712 62 684 62Q526 62 461 132Q444 127 429 125Q413 122 408 107V98Q408 92 407 89Q401 74 387 70Q374 65 357 56Q343 34 329 12H326Q250 12 201 70Q192 67 172 65Q147 63 138 53Q134 49 131 36Q126 16 116 15Q121 3 121 -8Q118 -38 108 -72Q102 -107 90 -133Q83 -149 61 -184Q53 -197 44 -212Q35 -227 34 -243V-247Q36 -263 40 -278Q45 -291 49 -304V-306Q49 -314 43 -329Q36 -347 36 -357Q36 -363 37 -366Q40 -363 48 -340Q54 -324 65 -321Q60 -333 55 -345Q59 -347 61 -347Q66 -347 72 -341Q77 -336 80 -335Q86 -340 98 -340Q109 -339 120 -339Q126 -339 136 -341Q155 -328 160 -316Q161 -320 169 -320Q172 -319 175 -319Q183 -337 210 -344Q208 -363 201 -376H198Q191 -376 181 -370Q172 -364 169 -364Q166 -363 163 -363Q130 -368 119 -399H118Q96 -399 85 -416Q75 -431 75 -455Q75 -479 86 -498Q84 -510 68 -524Q55 -535 54 -543Q59 -542 69 -534Q81 -525 87 -525Q91 -525 95 -528Q90 -539 70 -554Q51 -569 45 -580Q51 -578 64 -568Q81 -555 91 -555Q96 -555 98 -556Q96 -563 86 -570Q77 -576 75 -582Q81 -580 86 -579Q103 -590 123 -595Q143 -599 163 -604Q186 -611 238 -637Q275 -653 313 -668Q351 -683 384 -706Q384 -700 390 -697Q406 -716 425 -721Q414 -713 414 -692Q414 -688 416 -678L418 -676Q424 -679 426 -683L428 -681Q423 -671 423 -662Q423 -651 432 -651Q430 -643 430 -638Q430 -620 443 -601Q454 -642 499 -664Q492 -659 490 -649Q493 -647 500 -647Q503 -647 529 -654Q572 -665 580 -666Q578 -682 563 -707Q547 -733 547 -752Q547 -757 549 -769Q557 -772 564 -775Q566 -780 567 -786Q583 -797 608 -799Q624 -801 638 -801Q650 -801 653 -799Q689 -781 703 -749Q690 -717 684 -696Q703 -698 751 -708Q797 -718 828 -721Q821 -716 805 -710Q783 -702 776 -694Q779 -688 783 -688Q794 -693 808 -698Q812 -698 814 -697Q807 -692 800 -690Q792 -688 791 -680Q791 -669 808 -669H823Q821 -666 812 -663Q800 -659 800 -651V-649Q800 -640 812 -640H814Q793 -602 770 -568Q744 -570 732 -570Q664 -570 643 -543Q645 -534 650 -529Q640 -513 629 -498Q633 -498 669 -507Q667 -515 667 -518Q667 -546 706 -546Q713 -544 720 -543Q724 -544 728 -546H729Q752 -541 767 -537Q779 -544 791 -552Q781 -544 781 -534Q781 -526 789 -522Q810 -526 831 -531Q824 -525 815 -521Q806 -517 803 -507Q804 -499 815 -499Q820 -499 828 -501Q817 -497 817 -481Q817 -470 822 -460Q800 -453 785 -433Q788 -425 791 -417Q781 -393 768 -371Q755 -349 754 -318Q754 -308 755 -303Q772 -294 796 -294Q817 -294 854 -301Q880 -306 886 -327Q892 -350 902 -376Q903 -372 903 -364Q902 -346 901 -328Q901 -320 902 -316Q909 -328 911 -365Q914 -408 925 -420V-415Q924 -380 922 -345Q922 -320 927 -309Q932 -324 936 -340V-330Q937 -309 950 -295Q963 -282 973 -269Q977 -264 977 -256Q977 -243 968 -232Q956 -218 937 -212Q917 -205 903 -197Q890 -187 890 -179Q890 -175 893 -171Q907 -179 920 -189Q933 -199 955 -201Q901 -178 901 -146Q901 -136 905 -128Q895 -121 893 -105Q861 -83 856 -79Q837 -63 831 -42Q839 -39 846 -39Q856 -39 876 -44Q900 -50 910 -50H912Q914 -51 915 -57Q916 -64 920 -65V-62Q922 -52 923 -42Q931 -32 946 -32Q950 -32 952 -33Q954 -32 954 -29Q952 -23 949 -18Q953 -15 953 -9Q952 1 950 11V13Q954 31 957 48Q957 61 937 61Z"/>
</svg>