<svg xmlns="http://www.w3.org/2000/svg" viewBox="0 -800 1024 1024">
	<path fill="#000000" d="M636 -83Q635 -106 630 -127Q590 -121 585 -114Q590 -95 594 -77Q615 -80 636 -83ZM723 -156Q701 -156 690 -149Q688 -143 688 -129Q688 -116 692 -96Q721 -113 723 -156ZM632 -247Q632 -252 628 -256Q604 -253 590 -241Q573 -226 582 -202Q605 -208 627 -218Q630 -232 632 -247ZM748 -331H745Q718 -321 698 -303Q695 -281 691 -259Q691 -250 695 -243Q699 -244 710 -250Q722 -257 733 -257H735Q736 -285 748 -331ZM153 -581Q149 -584 149 -593Q149 -610 161 -610Q160 -612 160 -615Q161 -621 161 -627V-629L158 -630Q150 -627 142 -625H141Q146 -632 150 -654Q155 -680 160 -685Q172 -695 190 -703Q195 -707 205 -719Q214 -730 221 -734Q244 -734 253 -731Q269 -712 296 -693Q323 -673 326 -641Q326 -634 325 -628Q324 -622 308 -600Q285 -568 285 -556Q338 -572 385 -593Q388 -605 388 -607Q394 -597 409 -597Q418 -597 425 -601Q433 -582 444 -582H448Q451 -560 469 -548Q460 -521 471 -489Q459 -471 459 -457Q451 -458 443 -459Q435 -459 435 -453Q432 -454 426 -454Q411 -454 380 -442Q347 -429 332 -428Q286 -411 241 -392L230 -387Q209 -378 181 -367Q153 -357 142 -339Q130 -332 115 -337Q93 -345 85 -351Q76 -358 73 -389V-410Q73 -427 71 -435Q71 -439 70 -443Q70 -472 96 -487Q99 -495 116 -524Q119 -533 124 -543Q128 -553 140 -554ZM928 -566Q927 -552 913 -551H911V-554Q911 -570 927 -570ZM459 -290Q452 -281 445 -273Q452 -238 441 -214Q428 -197 403 -190Q392 -188 372 -182Q350 -175 344 -169Q341 -158 337 -137Q333 -116 335 -87Q378 -111 429 -143Q439 -151 461 -161Q461 -158 450 -148Q440 -139 440 -138L441 -135L444 -134Q451 -141 462 -143Q449 -125 452 -93Q456 -61 455 -53Q437 -26 417 -14Q410 -10 404 -2Q397 5 388 8L379 16V17Q379 23 374 26Q369 29 361 34Q349 45 336 55Q313 72 298 72Q281 72 277 53Q263 53 255 43Q247 33 247 19Q247 -15 257 -26Q254 -33 254 -42Q254 -70 289 -84L275 -89Q271 -114 266 -139H260Q229 -121 197 -104Q168 -91 149 -106Q143 -132 132 -144L139 -165Q135 -172 122 -184Q109 -195 105 -204Q122 -196 139 -189L140 -191Q137 -197 137 -198V-200Q143 -197 147 -197Q168 -199 216 -220Q248 -234 263 -238Q263 -261 256 -269Q244 -261 214 -253Q206 -249 188 -244Q184 -243 177 -246Q156 -269 124 -269Q124 -282 136 -289Q135 -292 135 -299Q135 -316 151 -327Q165 -337 186 -341Q203 -350 219 -360Q256 -371 315 -392Q350 -402 386 -418V-417Q387 -415 385 -415Q382 -415 381 -414L385 -413Q395 -416 404 -420H406Q397 -409 398 -400Q398 -395 403 -391Q411 -396 414 -396Q409 -392 409 -383Q410 -373 420 -361Q408 -345 411 -317Q407 -319 405 -318Q401 -318 400 -314Q398 -311 397 -308Q385 -304 371 -302Q359 -300 345 -300Q343 -280 341 -261Q343 -261 419 -293Q439 -303 455 -304Q454 -308 452 -312Q459 -323 462 -337Q458 -343 458 -356V-359Q456 -371 456 -380Q456 -398 462 -406Q464 -399 466 -382Q468 -359 474 -351Q477 -352 477 -358Q476 -366 474 -375L475 -376V-378Q482 -375 489 -364Q495 -354 500 -351Q505 -354 510 -354Q517 -354 527 -347Q537 -340 542 -340L546 -341Q557 -358 575 -361L579 -360Q583 -362 620 -378Q622 -392 622 -398Q618 -435 613 -472Q611 -544 596 -584Q590 -598 583 -612Q576 -627 575 -641V-644Q575 -659 578 -677Q579 -682 596 -694Q610 -704 613 -708Q629 -730 636 -737Q654 -755 667 -755Q674 -755 677 -753Q722 -729 724 -726Q748 -704 769 -624Q767 -621 751 -606Q740 -596 740 -586Q740 -579 742 -575L738 -576Q734 -575 731 -569Q729 -564 726 -560L718 -515Q715 -472 711 -429V-423Q718 -425 730 -433Q749 -445 761 -447Q773 -464 786 -479Q795 -482 803 -485Q811 -493 818 -498Q830 -501 846 -502Q861 -502 866 -515Q870 -514 870 -511Q867 -506 863 -497V-495Q869 -498 882 -515Q898 -534 907 -538Q902 -529 894 -518Q886 -506 885 -490Q885 -483 886 -479Q892 -480 896 -486Q901 -494 908 -494Q904 -485 904 -475Q905 -460 912 -450Q920 -439 926 -429Q928 -420 930 -411Q937 -396 940 -384V-381Q940 -374 939 -368Q941 -362 942 -357V-356Q941 -346 924 -336Q912 -329 908 -323Q902 -315 896 -296Q889 -276 883 -269L865 -228Q852 -161 836 -92Q820 -23 816 55Q812 52 809 52Q804 54 798 55L794 54Q789 59 786 67Q780 62 773 57H771Q767 59 763 61H761Q760 59 754 48Q751 47 747 47Q741 50 734 52H733Q732 50 732 43V39Q717 24 711 16Q700 1 700 -14Q704 -20 699 -22Q688 -24 678 -20Q669 -14 633 -8Q606 -3 600 0Q600 14 591 22Q578 29 574 39Q570 40 563 40Q549 39 541 32Q532 25 521 19Q519 5 509 -2V-4Q512 -9 514 -15Q508 -25 499 -30Q511 -36 511 -56Q510 -72 509 -88Q509 -93 511 -101L503 -143Q492 -145 492 -163Q492 -167 494 -171Q486 -188 459 -290ZM458 -291Q457 -297 455 -304Q442 -291 440 -286Q449 -288 458 -291Z"/>
</svg>