<svg xmlns="http://www.w3.org/2000/svg" viewBox="0 -800 1024 1024">
	<path fill="#000000" d="M318 -417Q301 -414 284 -411Q245 -394 207 -375L196 -370Q156 -350 145 -343Q112 -322 108 -302Q96 -295 81 -300Q59 -310 51 -324Q43 -338 39 -372V-393Q39 -410 37 -418Q37 -422 36 -426Q36 -455 62 -470Q65 -478 82 -507Q85 -516 90 -526Q94 -536 106 -537L119 -564Q115 -567 117 -576Q118 -588 125 -593Q126 -595 126 -598Q127 -604 127 -610V-612L124 -613Q116 -610 108 -608H107Q112 -615 116 -637Q121 -663 126 -668Q138 -678 156 -686Q161 -690 171 -702Q180 -713 187 -717Q210 -717 219 -714Q235 -695 262 -676Q289 -656 292 -624Q292 -617 291 -611Q290 -605 270 -579Q241 -541 241 -529Q253 -532 281 -550Q308 -568 349 -575Q352 -572 353 -567Q354 -562 360 -560Q370 -563 379 -566L380 -563Q378 -558 372 -554Q380 -555 387 -560Q396 -567 403 -567Q398 -560 391 -554Q385 -547 384 -538Q384 -534 385 -531L387 -530Q393 -532 398 -535L401 -534Q399 -525 397 -516V-514Q399 -507 403 -500V-498Q403 -490 402 -483Q402 -475 407 -471Q401 -460 391 -452Q391 -444 394 -443L392 -441Q390 -442 388 -444V-432Q385 -433 380 -433Q372 -432 363 -431Q359 -431 357 -432ZM905 -54Q910 -51 910 -42Q910 -34 911 -26Q914 -11 917 20Q919 37 921 53Q919 66 916 78Q917 81 917 83Q903 88 896 102Q889 117 879 127Q869 124 855 112Q839 99 830 96Q823 72 802 62Q780 52 759 43Q750 39 740 38Q731 36 726 26Q762 35 794 41Q784 35 757 23Q727 10 712 -1H718Q732 -1 755 11Q780 24 796 24H799Q796 16 782 13Q770 10 767 5Q770 2 775 2Q785 4 794 5H795Q810 2 820 -37Q826 -121 829 -203Q809 -197 792 -184Q775 -171 755 -155Q760 -142 773 -139L776 -140V-134L777 -132L779 -131Q783 -134 786 -137L788 -136L790 -134Q789 -129 788 -125Q789 -116 795 -101Q802 -84 802 -74Q798 -46 788 -22Q781 -19 774 -19Q750 -23 731 -34Q729 -36 729 -44Q725 -46 722 -46Q716 -46 706 -41Q702 -37 697 -32Q693 -27 688 -26V-27Q688 -36 700 -44Q712 -52 712 -60H710Q703 -56 696 -53Q703 -63 710 -74V-75L709 -77H707L706 -78V-81Q707 -85 710 -88Q708 -93 708 -103Q709 -117 710 -131Q701 -129 696 -117Q690 -106 684 -97H677Q658 -97 651 -109Q643 -121 643 -140Q634 -153 627 -166Q621 -189 624 -193Q626 -196 632 -212L633 -216Q633 -221 632 -227Q632 -231 633 -234Q636 -249 641 -255Q643 -257 656 -265L658 -263Q656 -258 654 -254V-252Q657 -244 660 -244Q667 -244 694 -254Q703 -257 712 -260Q719 -260 720 -257L766 -288Q777 -300 788 -307Q798 -313 815 -326Q811 -347 814 -370Q814 -385 828 -397Q841 -409 854 -409H857Q865 -402 873 -396Q891 -388 904 -378Q909 -378 914 -378Q916 -365 918 -352Q936 -358 954 -361V-360Q953 -355 952 -350V-349L955 -348Q962 -351 974 -355H976Q966 -345 962 -332Q962 -330 964 -324Q969 -327 974 -330H976Q970 -321 970 -308Q970 -286 978 -272Q973 -258 970 -242Q969 -240 965 -238Q960 -235 960 -229Q954 -232 948 -232Q939 -232 913 -220Q906 -193 906 -147Q906 -128 907 -119Q908 -105 908 -91Q908 -75 903 -68ZM857 -446Q840 -428 821 -407Q802 -386 792 -355Q796 -342 794 -321Q776 -320 770 -318Q758 -314 749 -303Q724 -273 675 -253Q672 -253 670 -254Q668 -255 668 -260Q661 -273 660 -284Q656 -296 652 -308V-310Q657 -355 662 -400Q664 -391 664 -371V-366Q664 -349 677 -332Q680 -336 694 -344Q707 -351 709 -355Q695 -363 684 -399Q688 -400 692 -401H694Q702 -416 722 -416Q734 -416 744 -410Q759 -437 774 -465Q755 -453 739 -438Q722 -424 700 -417Q696 -420 687 -423Q678 -427 675 -433Q670 -434 665 -440Q660 -447 656 -452Q657 -492 657 -533Q664 -544 677 -578Q684 -607 698 -622L694 -635Q692 -638 692 -647Q694 -659 695 -672V-675Q685 -673 678 -666Q672 -659 666 -652Q677 -679 688 -707Q697 -736 724 -763Q740 -775 763 -777Q776 -777 783 -763H791Q809 -733 820 -687Q826 -660 826 -655V-654Q825 -643 816 -635Q804 -625 801 -619Q797 -607 792 -595Q806 -601 833 -618Q860 -636 871 -640Q874 -643 877 -653Q882 -666 887 -668H889Q902 -663 914 -659H915Q918 -660 922 -665Q925 -670 928 -671Q931 -666 934 -649Q937 -631 942 -625Q947 -626 953 -630Q962 -636 965 -636Q968 -636 970 -635Q963 -628 955 -618Q947 -609 946 -597Q946 -595 948 -589Q950 -589 954 -594Q959 -599 964 -599Q946 -578 946 -537Q946 -528 947 -524Q943 -516 937 -513Q931 -511 925 -508Q910 -499 895 -485Q887 -476 878 -474ZM611 -237L619 -142Q623 -108 622 -68Q621 -29 632 -7Q630 -1 627 5Q623 48 599 81Q591 83 589 83Q580 83 568 68Q560 58 546 44Q531 30 526 15Q524 -2 522 -20Q516 -31 513 -43Q510 -44 506 -46Q516 -52 522 -89Q526 -115 526 -147V-149Q508 -139 500 -138L499 -128L500 -124Q500 -119 495 -110Q488 -97 488 -88Q489 -85 489 -83Q476 -74 456 -74Q447 -74 439 -77Q427 -86 414 -96Q402 -104 396 -108Q385 -116 383 -123V-124Q364 -109 364 -99Q364 -93 366 -89Q378 -92 390 -95Q371 -85 371 -70Q372 -62 372 -55V-51Q369 -38 366 -25V-23Q364 -6 361 11Q283 36 229 94Q226 95 222 95Q209 95 204 93Q199 91 190 83Q176 73 162 67Q147 62 146 42V39Q144 8 150 -13V-20Q174 -68 200 -72L223 -95Q220 -101 216 -117Q176 -94 145 -90Q119 -88 95 -101Q87 -138 78 -148L85 -169Q81 -177 68 -188Q55 -199 51 -208Q83 -193 85 -193V-195Q84 -198 83 -202L82 -204Q87 -201 93 -201Q99 -201 111 -212Q119 -219 125 -221L129 -222Q143 -219 156 -216Q183 -211 184 -210L194 -212Q202 -216 210 -219Q211 -236 212 -253Q195 -243 177 -240Q170 -240 166 -242Q145 -266 113 -266Q113 -280 125 -285Q124 -289 124 -295Q124 -326 175 -338Q248 -364 323 -385Q338 -389 353 -394Q356 -394 358 -393Q349 -389 349 -380Q349 -375 351 -373H354Q359 -373 364 -374Q363 -371 361 -368V-367Q370 -367 371 -351Q372 -339 376 -336Q369 -327 369 -321Q370 -317 370 -313L367 -314Q365 -313 362 -312L361 -308Q362 -305 363 -302L362 -300H353Q338 -300 304 -282Q278 -272 252 -264Q258 -260 261 -260Q275 -258 298 -268Q300 -259 301 -250Q336 -260 346 -263Q353 -276 363 -284Q366 -277 375 -276Q383 -275 389 -273Q396 -275 403 -278Q405 -279 406 -278Q407 -277 408 -274Q402 -272 400 -261Q404 -255 408 -250Q400 -239 402 -227Q403 -223 403 -220Q407 -227 410 -234Q426 -267 431 -274L432 -271Q430 -259 428 -247Q428 -245 430 -239Q434 -238 441 -238Q470 -242 494 -257Q510 -264 523 -273Q526 -292 533 -297V-318Q533 -324 533 -330Q525 -325 519 -320Q512 -315 512 -304V-302Q506 -304 503 -313Q500 -322 496 -323H490Q479 -323 461 -330Q451 -334 444 -334Q438 -334 431 -330Q435 -337 441 -350Q434 -365 421 -365H420Q414 -361 408 -358L404 -359Q405 -366 413 -371Q420 -375 421 -378Q417 -391 407 -391Q400 -391 372 -377Q376 -388 388 -394Q399 -399 409 -407V-415Q409 -424 402 -438Q404 -437 409 -437Q420 -437 420 -448Q420 -461 409 -474H412Q416 -474 421 -469Q428 -462 434 -462H435Q438 -462 438 -471V-477H439Q442 -477 444 -471Q446 -465 448 -464H453Q463 -464 469 -469V-471Q470 -474 470 -478V-480Q474 -469 488 -457Q498 -448 502 -443Q504 -447 511 -449H515V-447Q514 -442 513 -438Q524 -422 534 -406Q532 -489 511 -526Q510 -530 510 -537Q510 -560 521 -576Q526 -579 530 -582Q545 -594 560 -606Q575 -626 582 -628H583Q590 -626 596 -624L599 -625Q611 -613 622 -570Q631 -537 639 -523V-518Q640 -506 640 -495V-490Q634 -464 627 -438Q627 -424 626 -418Q623 -401 620 -384V-372Q620 -351 622 -315L618 -309Q619 -301 619 -283Q619 -261 617 -225Q613 -229 611 -237ZM389 -185Q350 -174 310 -163Q311 -153 311 -139Q310 -119 309 -100L310 -96Q314 -97 382 -128V-130Q384 -149 394 -166Q389 -173 389 -184Z"/>
</svg>