<svg xmlns="http://www.w3.org/2000/svg" viewBox="0 -800 1024 1024">
	<path fill="#000000" d="M127 -573Q123 -576 123 -585Q123 -602 135 -602Q134 -604 134 -607Q135 -613 135 -619V-621L132 -622Q124 -619 116 -617H115Q118 -622 123 -636Q128 -650 134 -657Q139 -665 148 -681Q156 -698 164 -705Q169 -709 179 -721Q188 -732 195 -736Q218 -736 227 -733Q235 -723 253 -715Q270 -707 289 -698Q326 -684 330 -654Q330 -646 329 -641Q328 -635 308 -609Q279 -571 279 -559Q298 -570 337 -587Q340 -599 340 -601Q346 -591 361 -591Q370 -591 377 -595Q385 -576 396 -576H400Q403 -554 421 -542Q412 -515 423 -483Q411 -465 411 -451Q403 -452 395 -453Q387 -453 387 -447Q384 -448 378 -448Q364 -448 344 -435Q323 -422 306 -420Q260 -403 215 -384L204 -379Q164 -359 153 -352Q120 -331 116 -311Q104 -304 89 -309Q67 -319 59 -333Q51 -347 47 -381V-402Q47 -419 45 -427Q45 -431 44 -435Q44 -464 70 -479Q73 -487 90 -516Q93 -525 98 -535Q102 -545 114 -546ZM608 -284V-286Q599 -285 596 -278Q592 -271 587 -267H588Q594 -268 599 -269Q605 -269 606 -268V-270Q607 -277 608 -284ZM633 -399Q633 -406 631 -408Q629 -406 617 -403Q600 -399 599 -393L598 -390Q600 -381 602 -373H626Q633 -385 633 -399ZM707 -421Q707 -427 706 -434Q705 -433 697 -433H692Q683 -422 683 -402Q683 -392 687 -388Q707 -406 707 -421ZM634 -519Q634 -532 631 -541Q629 -535 615 -524Q597 -510 597 -502Q597 -499 599 -493Q602 -496 617 -498Q629 -500 632 -502Q634 -512 634 -519ZM729 -606Q705 -600 696 -588Q699 -580 699 -573Q699 -566 694 -552Q689 -538 689 -528Q689 -522 690 -519Q691 -519 719 -523Q729 -561 729 -606ZM944 -121Q921 -114 898 -106Q875 -98 863 -79Q865 -71 873 -63Q882 -64 891 -66Q892 -66 898 -64Q890 -58 882 -53Q873 -48 872 -39Q872 -33 876 -28Q881 -20 890 -19Q898 -19 907 -16Q899 -9 887 -6Q877 18 863 74Q859 73 856 68Q854 63 851 62Q848 64 830 68Q827 73 826 80Q802 43 765 32Q766 28 770 27Q774 26 777 24Q774 12 759 -11Q744 -35 740 -49Q733 -77 726 -93Q717 -111 712 -154Q712 -157 718 -159Q715 -165 712 -172L716 -173Q721 -173 725 -168Q729 -163 732 -163Q737 -163 737 -171Q738 -170 767 -152Q794 -134 798 -133H800Q808 -133 819 -139Q830 -145 835 -145Q839 -145 842 -144Q840 -141 834 -137Q828 -133 826 -129Q826 -98 849 -98Q861 -98 898 -114Q928 -127 940 -127H943V-124ZM928 -65V-60H923Q912 -60 904 -65Q906 -74 925 -74Q928 -72 928 -65ZM859 -162Q859 -156 844 -147Q843 -150 843 -155Q843 -169 855 -169H856Q859 -166 859 -162ZM680 -24Q697 7 697 46Q697 72 688 87Q678 104 658 104Q647 104 632 98Q628 97 625 92Q621 86 618 86Q617 79 616 71Q608 62 600 53Q598 23 596 -7Q596 -18 597 -24Q597 -27 592 -30Q587 -33 586 -37Q594 -39 598 -45Q603 -96 609 -145Q604 -149 597 -149Q574 -143 551 -135Q547 -127 535 -117Q522 -106 518 -97H520Q534 -103 547 -110Q554 -116 562 -114Q561 -111 551 -106Q540 -100 540 -98L557 -89Q555 -86 551 -76Q554 -66 562 -66Q568 -42 568 -29Q568 -8 554 2Q554 6 556 14Q551 10 543 10Q531 10 530 24Q521 11 512 -3Q503 -18 481 -19H479Q481 -25 485 -28Q490 -31 494 -34Q493 -48 492 -61Q492 -75 482 -84Q488 -82 489 -82Q494 -82 502 -89Q510 -96 516 -97Q511 -101 505 -101Q500 -101 494 -99Q481 -102 476 -115Q453 -120 441 -132Q438 -136 438 -144V-152Q438 -159 437 -162Q436 -167 426 -174Q419 -180 417 -184L437 -192Q448 -197 441 -216Q435 -233 444 -235Q454 -257 460 -266Q471 -283 485 -289Q485 -283 478 -276Q473 -271 473 -267V-265Q474 -258 489 -256Q506 -254 508 -244L532 -249Q537 -255 552 -257Q566 -259 578 -262Q583 -264 584 -266Q567 -264 550 -262H548Q526 -267 520 -292Q513 -321 505 -345L504 -348Q506 -350 508 -352Q494 -401 480 -450Q465 -494 455 -510Q447 -523 433 -525Q433 -567 423 -591Q420 -596 413 -603Q404 -612 403 -618Q409 -618 418 -610Q429 -600 437 -600Q441 -600 443 -601Q442 -605 435 -609Q427 -614 427 -620Q428 -622 428 -625Q433 -624 443 -617Q453 -610 461 -610H465Q496 -615 527 -620Q531 -619 535 -619Q582 -628 608 -652Q634 -676 672 -694V-701L674 -700Q680 -700 708 -721Q715 -726 725 -742Q732 -753 737 -758Q754 -772 756 -778H764Q784 -779 803 -781Q812 -781 824 -776Q829 -771 834 -759Q840 -746 844 -742Q855 -749 870 -754L871 -753Q871 -751 863 -743Q856 -736 854 -732Q857 -707 873 -698Q881 -704 891 -707Q894 -707 896 -706Q895 -698 887 -691Q880 -685 879 -682Q883 -681 896 -681Q894 -678 891 -677Q888 -675 888 -670Q893 -652 909 -652Q910 -649 910 -644Q910 -637 909 -632Q892 -617 857 -575Q856 -568 845 -556Q832 -542 832 -538Q830 -510 816 -452Q799 -380 799 -345V-342Q800 -334 801 -327Q800 -322 793 -314Q787 -306 786 -301Q775 -303 759 -303Q749 -315 724 -315Q696 -315 680 -306Q679 -302 679 -295Q679 -285 680 -279Q710 -282 739 -285Q748 -285 761 -280L838 -287Q846 -299 863 -302Q880 -305 894 -310Q899 -315 901 -327Q908 -324 910 -310Q912 -295 919 -293H932Q949 -293 950 -282L947 -281Q942 -282 936 -283Q932 -283 931 -279L930 -277Q931 -275 932 -273L935 -272Q940 -272 945 -273Q948 -273 950 -271Q941 -268 934 -262V-257Q934 -244 943 -241Q939 -238 938 -231Q937 -223 932 -221Q937 -208 937 -196H927Q889 -196 851 -197Q774 -197 741 -181Q727 -181 712 -182Q685 -182 678 -171Q678 -162 677 -153Q679 -119 680 -86Q680 -68 678 -60ZM319 -159Q317 -139 317 -131Q317 -108 316 -104Q335 -113 359 -129Q392 -151 415 -161V-159Q415 -157 408 -152Q396 -144 396 -137Q397 -134 397 -132Q402 -132 406 -137Q410 -142 413 -142Q414 -142 418 -140Q408 -132 408 -120Q408 -114 415 -114H418Q411 -94 414 -66Q420 -59 428 -45Q421 -31 376 -4Q339 18 331 28Q324 34 322 49Q317 69 281 69H279Q271 69 258 57Q247 47 242 47Q238 47 235 48L233 46Q233 41 235 39Q225 34 223 24Q225 17 226 10Q223 -8 219 -27Q220 -30 220 -34Q228 -54 235 -74L231 -99Q227 -106 226 -114Q186 -89 153 -85Q127 -83 103 -96Q99 -129 86 -152L93 -173Q89 -180 76 -192Q63 -203 59 -212Q90 -198 93 -197V-199Q92 -202 91 -206L90 -208Q98 -205 101 -205Q108 -206 119 -216Q128 -224 133 -225L137 -226Q144 -226 164 -220Q191 -215 192 -214L202 -217Q212 -222 219 -224Q219 -247 220 -257Q203 -248 185 -245Q178 -245 174 -246Q153 -270 121 -270Q121 -283 133 -290Q132 -293 132 -300Q132 -330 183 -342Q202 -348 239 -364Q283 -383 311 -390Q326 -394 341 -399Q344 -399 346 -398Q337 -393 337 -384Q337 -380 339 -377H342Q347 -377 352 -378Q351 -375 349 -372Q358 -372 359 -355Q360 -343 364 -340Q357 -333 357 -325Q358 -321 358 -318H355Q354 -318 350 -316L349 -312Q350 -309 351 -306L350 -304H341Q331 -304 324 -296Q318 -289 312 -286Q294 -280 260 -268Q266 -264 269 -264Q283 -262 306 -272Q308 -262 310 -253Q314 -254 318 -255Q321 -257 334 -268Q339 -272 372 -279Q379 -292 389 -300Q392 -293 400 -293Q408 -292 415 -289Q422 -292 428 -295Q431 -295 434 -291Q432 -288 442 -283Q446 -280 445 -277Q446 -274 439 -271Q433 -269 434 -266Q425 -256 427 -243Q431 -208 436 -200Q408 -191 380 -182Q377 -181 319 -159Z"/>
</svg>