<svg xmlns="http://www.w3.org/2000/svg" viewBox="0 -800 1024 1024">
	<path fill="#000000" d="M306 -202Q316 -214 332 -219Q349 -224 365 -229Q355 -238 341 -243Q328 -249 316 -255Q311 -252 302 -242Q290 -229 281 -225Q298 -247 310 -276Q296 -293 283 -311Q277 -292 258 -254Q236 -209 229 -182H233Q252 -187 265 -192Q270 -192 274 -188ZM63 -387Q63 -379 62 -375H60Q51 -378 50 -392Q50 -402 58 -402H60Q63 -394 63 -387ZM648 46H645Q638 47 631 48H628V44Q628 37 635 37Q646 38 648 46ZM740 -728Q742 -726 745 -726Q747 -722 747 -716Q747 -708 741 -703Q736 -698 732 -692Q721 -670 716 -646Q732 -647 748 -649Q765 -651 785 -665Q799 -674 805 -676L806 -672Q802 -662 798 -652Q798 -648 800 -646Q807 -647 817 -658Q828 -671 836 -672Q836 -668 826 -656Q812 -639 812 -630V-626Q815 -614 838 -614Q835 -606 835 -601Q835 -586 857 -564Q852 -559 852 -546Q853 -534 853 -522Q853 -509 851 -504H849Q833 -504 824 -498Q815 -492 805 -486L797 -470Q786 -430 775 -385Q769 -358 768 -349Q768 -338 767 -328Q768 -311 768 -294V-290Q765 -287 742 -276Q724 -267 720 -256Q715 -257 715 -265Q715 -269 717 -273Q699 -275 692 -280Q685 -285 682 -296Q671 -307 653 -312Q654 -316 659 -316Q664 -316 668 -318Q661 -334 637 -340Q643 -344 654 -343Q666 -342 671 -346Q682 -354 689 -372Q680 -374 676 -377Q663 -371 649 -366Q649 -369 659 -375Q665 -379 666 -381Q665 -388 658 -391H656Q650 -391 638 -389Q636 -367 635 -357Q627 -278 627 -230H635Q652 -230 687 -240Q725 -251 743 -251H745Q761 -258 777 -258Q788 -260 808 -270Q835 -283 848 -283Q864 -283 874 -274Q883 -265 896 -257Q906 -259 917 -270Q927 -280 934 -282Q927 -268 923 -252Q923 -247 924 -244Q926 -245 929 -249Q933 -255 938 -255H941Q935 -241 935 -235Q935 -218 947 -204Q953 -196 973 -181Q967 -175 967 -161Q967 -153 969 -143Q955 -141 946 -123Q937 -105 930 -83Q919 -47 903 -38L889 -5Q875 15 855 62Q835 109 822 128Q818 124 811 124Q806 124 800 126Q794 123 786 111Q776 96 765 96Q760 96 752 99Q744 77 735 55Q726 52 696 50Q667 48 654 43Q657 39 666 39Q674 40 682 40Q694 41 706 41Q717 41 721 38Q700 27 637 27Q589 27 570 22Q579 13 593 13Q614 16 634 19Q639 20 650 20Q669 20 687 19Q707 19 725 22V20Q726 17 727 14Q671 8 615 2Q620 -4 634 -4Q641 -4 655 -2Q668 -1 681 -1Q737 -1 750 -13Q784 -85 816 -200Q764 -200 700 -180Q704 -169 708 -158Q712 -153 719 -153Q729 -157 738 -161H739Q733 -154 734 -144Q736 -138 742 -134Q749 -137 756 -140H759Q757 -129 752 -120Q754 -113 765 -111Q761 -92 764 -83Q764 -77 761 -76Q763 -69 758 -59V-57Q755 -53 752 -52Q748 -51 748 -44Q699 -49 657 -48Q643 -48 619 -44H613Q607 -34 594 -28Q581 -22 572 -11Q569 -7 566 -2Q563 3 556 5H555Q539 7 526 -1Q513 -13 496 -9Q485 -20 482 -40Q479 -54 482 -56Q485 -59 488 -67Q485 -77 484 -80Q482 -94 483 -98Q504 -111 519 -127Q524 -134 528 -142L527 -141Q517 -135 506 -133Q478 -119 442 -70Q434 -62 426 -54Q421 -47 419 -39Q416 -31 407 -25Q403 -17 398 -10Q408 6 408 18Q408 33 405 39Q402 48 394 54Q386 59 377 65Q366 64 352 55Q339 46 330 46Q328 47 325 47Q324 38 316 35H313Q305 37 297 38Q302 29 306 18Q306 9 288 -3Q273 -14 272 -22V-24Q272 -36 278 -45Q287 -56 296 -67Q317 -68 330 -82Q332 -84 351 -111Q320 -104 292 -81Q279 -71 247 -36Q237 -30 229 -30Q218 -30 202 -47Q189 -61 180 -64Q176 -71 174 -82Q166 -69 152 -39Q136 -46 99 -50Q95 -70 81 -82H80Q74 -80 68 -78H66Q73 -86 73 -96Q73 -112 50 -135V-198L63 -204Q57 -276 57 -357Q63 -340 66 -303Q70 -252 81 -237Q87 -241 93 -245Q84 -266 80 -331Q88 -323 92 -296Q96 -270 103 -262Q131 -296 154 -339Q166 -358 178 -378Q190 -399 205 -412L230 -456Q242 -492 260 -525Q279 -558 281 -600V-603Q281 -615 280 -627V-634Q288 -661 313 -672V-674Q314 -681 315 -688H317Q322 -687 326 -687H328Q329 -689 329 -694Q327 -702 325 -711L326 -714L327 -713Q346 -702 365 -695Q385 -688 398 -670L419 -638Q436 -611 436 -603Q434 -597 432 -591Q430 -575 426 -564Q421 -558 416 -552Q413 -543 413 -536Q414 -520 426 -513Q437 -505 448 -496Q452 -500 456 -504L459 -503Q462 -502 462 -498Q462 -493 463 -490Q473 -488 482 -487Q490 -495 497 -504Q503 -503 504 -499Q505 -495 507 -490Q517 -478 527 -466L528 -464Q525 -512 480 -513Q483 -520 490 -521Q497 -523 503 -524Q513 -528 524 -535Q534 -541 545 -542Q552 -542 559 -539L579 -552V-555Q580 -571 593 -576Q606 -581 617 -588Q613 -666 589 -695H586Q577 -693 568 -692Q566 -698 566 -701Q569 -712 571 -723Q585 -731 600 -752Q604 -758 623 -788H629Q639 -788 649 -792Q675 -773 699 -752Q731 -738 740 -728ZM703 -433Q712 -476 713 -479Q700 -474 675 -463Q649 -453 643 -439Q652 -431 665 -428V-430Q661 -434 657 -438Q666 -441 674 -443Q693 -439 703 -433ZM697 -179Q684 -175 620 -148Q579 -156 575 -195Q569 -209 569 -208V-214Q569 -228 572 -243Q576 -263 576 -283Q576 -295 575 -308Q575 -318 576 -320Q579 -330 579 -345Q579 -368 566 -376Q579 -380 579 -399Q579 -410 575 -426Q557 -434 529 -458Q532 -442 534 -427Q537 -418 540 -409Q541 -404 541 -395Q536 -352 525 -312Q522 -311 518 -311Q508 -311 494 -321Q477 -332 465 -333Q448 -356 400 -384Q355 -410 340 -427Q326 -419 320 -403Q313 -386 307 -370Q315 -371 340 -386Q369 -384 381 -365Q392 -347 404 -328Q412 -329 420 -331Q415 -324 415 -308V-295Q415 -288 414 -285Q410 -271 406 -257Q407 -254 407 -251Q411 -251 418 -256Q431 -265 439 -265H441Q449 -282 475 -282H482Q510 -263 522 -262Q537 -243 537 -218Q537 -211 536 -207Q546 -196 546 -179Q546 -168 542 -160Q548 -166 553 -167Q539 -144 529 -120Q537 -112 548 -114Q618 -127 625 -128Q642 -132 658 -136Q667 -137 678 -146Q689 -155 695 -156Q697 -163 697 -179ZM642 -435Q642 -421 641 -414Q658 -416 659 -419V-420Q659 -424 650 -429Q644 -432 642 -435ZM641 -410Q639 -398 639 -392Q654 -399 657 -402Q654 -406 641 -410Z"/>
</svg>