<svg xmlns="http://www.w3.org/2000/svg" viewBox="0 -800 1024 1024">
	<path fill="#000000" d="M632 10Q632 17 622 17Q613 17 611 11Q611 4 620 4Q629 4 632 10ZM866 -742Q860 -729 853 -724V-729Q853 -744 861 -744Q862 -744 866 -742ZM356 -162V-180Q317 -171 313 -169Q291 -160 284 -141L276 -144Q274 -136 274 -133Q274 -125 279 -118Q290 -128 317 -142Q337 -152 346 -159Q347 -153 355 -147Q356 -152 356 -162ZM362 -284Q362 -294 359 -302Q323 -286 307 -273Q281 -251 281 -220Q282 -215 282 -210Q300 -219 318 -228Q321 -230 331 -242Q342 -255 346 -255Q348 -255 352 -248Q355 -243 357 -243L359 -245Q361 -264 362 -284ZM318 -366Q318 -368 321 -368Q324 -368 326 -371Q312 -393 291 -409Q276 -386 246 -325H248Q262 -325 281 -342Q299 -358 310 -358ZM223 -478Q220 -463 214 -451Q201 -444 162 -412Q121 -380 129 -347Q111 -346 96 -348Q81 -373 68 -397L67 -403Q62 -425 71 -450Q74 -457 89 -488Q93 -478 97 -469Q144 -497 197 -543H201Q199 -538 196 -533L197 -532Q198 -529 203 -529Q208 -529 209 -527Q212 -524 216 -512Q218 -500 220 -488Q221 -484 223 -478ZM468 -519Q487 -513 505 -507L504 -506L503 -502Q508 -499 513 -496Q520 -491 519 -478L513 -471Q505 -460 494 -462L492 -460V-456L494 -454Q495 -452 495 -450L491 -455Q488 -452 484 -450Q477 -444 466 -426Q447 -422 428 -418Q417 -438 409 -448Q384 -475 362 -464Q347 -517 396 -563L401 -558Q416 -540 454 -520ZM924 -106Q882 -51 874 -38Q869 -24 858 7Q848 38 820 62Q820 67 819 72Q804 79 795 94Q787 108 777 121Q767 117 763 114Q754 108 747 101Q736 90 724 73Q707 49 699 42Q686 30 672 25Q658 19 643 11Q654 11 676 17Q695 22 703 22H705Q691 11 669 6Q648 2 629 -4Q632 -5 639 -5Q649 -5 673 1Q693 6 703 6Q708 6 711 5Q705 0 681 -4Q655 -8 647 -18H652Q674 -16 695 -15H702Q722 -19 747 -50Q757 -62 776 -100Q781 -110 792 -150Q801 -186 805 -192Q805 -194 801 -194Q768 -190 735 -187Q733 -187 723 -185Q703 -177 701 -176Q703 -164 705 -159Q711 -150 716 -154Q721 -157 729 -158H730Q723 -152 724 -142Q724 -135 730 -131Q738 -133 745 -136H747Q743 -126 739 -116Q740 -111 743 -109Q744 -108 750 -106Q744 -87 746 -78Q747 -74 745 -73Q743 -72 742 -71Q744 -64 738 -55V-53Q733 -46 727 -40Q716 -41 695 -46Q666 -53 655 -52Q642 -54 619 -52L588 -47Q584 -36 570 -24Q553 -11 529 -5H528Q515 -3 502 -13Q491 -22 489 -23Q485 -25 473 -24Q465 -35 463 -57Q462 -71 465 -73Q468 -75 472 -83Q470 -89 470 -96Q468 -109 470 -114Q492 -126 507 -140Q514 -150 523 -161Q532 -173 544 -177Q529 -156 516 -132Q523 -124 534 -124Q584 -129 633 -135Q657 -139 665 -140Q676 -142 682 -149Q688 -156 693 -158Q695 -168 696 -174Q688 -171 679 -169Q671 -171 669 -171Q655 -171 610 -150Q602 -146 593 -146Q576 -146 560 -161Q556 -165 536 -189Q540 -218 545 -242Q551 -266 551 -299V-310Q551 -358 530 -383Q530 -422 549 -437Q545 -447 530 -456Q530 -490 532 -524Q534 -559 554 -577Q564 -584 587 -589Q605 -593 616 -598Q615 -624 614 -650Q613 -677 604 -694Q584 -687 563 -658V-659Q564 -675 575 -686Q585 -697 593 -710H591Q588 -710 581 -702Q575 -695 571 -695L568 -696Q596 -766 623 -795Q648 -820 664 -822H671Q712 -818 728 -779L737 -759Q751 -743 751 -722Q751 -711 749 -706Q743 -701 736 -697Q734 -689 723 -673Q709 -652 708 -634Q742 -651 756 -663Q769 -674 799 -689Q831 -705 845 -718Q845 -709 835 -697Q826 -686 826 -678V-675Q827 -665 844 -658Q847 -659 851 -667Q854 -674 860 -675L861 -672Q857 -661 852 -642Q852 -639 854 -633H858Q867 -633 875 -634H879Q860 -625 860 -600Q860 -588 867 -580Q859 -578 859 -559V-553Q835 -537 818 -512L798 -459Q799 -457 799 -454Q797 -444 792 -436Q784 -406 785 -370Q786 -342 783 -329Q783 -312 783 -295V-291Q779 -287 755 -279Q721 -268 718 -257Q713 -258 713 -266Q713 -270 715 -274Q698 -276 691 -281Q685 -285 681 -297Q671 -308 653 -313Q654 -317 659 -317Q664 -317 668 -319Q662 -333 628 -341Q634 -345 656 -344Q681 -343 686 -347Q686 -363 687 -371Q675 -373 671 -373Q661 -373 655 -379Q641 -376 629 -371Q629 -374 638 -379Q646 -383 646 -385Q644 -392 639 -395L637 -396Q633 -397 618 -394Q619 -376 617 -354Q611 -332 608 -306V-303Q605 -263 601 -231Q606 -230 617 -230Q638 -230 680 -239Q723 -248 743 -248H746L777 -254Q801 -266 832 -270Q860 -280 884 -282Q900 -282 912 -273Q922 -282 934 -288V-287Q934 -285 930 -279Q924 -270 924 -263Q924 -258 930 -249Q934 -242 935 -237H941Q951 -237 960 -238Q965 -238 968 -237Q962 -232 953 -229Q945 -226 941 -219Q952 -203 959 -188Q942 -156 937 -112V-109Q925 -107 924 -106ZM695 -429Q701 -463 702 -471Q704 -480 706 -490Q706 -493 703 -495Q679 -483 655 -470Q631 -457 613 -439Q615 -430 616 -421Q642 -421 643 -424L640 -426Q627 -435 628 -444V-446Q634 -442 638 -437Q641 -433 649 -432V-434Q647 -439 643 -442Q651 -445 659 -446Q684 -438 695 -429ZM618 -397Q631 -401 639 -406Q635 -413 616 -419Q617 -408 618 -397ZM412 -694Q462 -728 470 -733V-731Q469 -727 468 -723Q474 -725 480 -731Q487 -739 493 -739L495 -738Q493 -734 490 -730Q487 -715 487 -714Q487 -706 492 -701Q497 -705 506 -708V-707Q503 -697 499 -688Q499 -684 500 -682L502 -681Q503 -681 503 -683Q504 -686 507 -686L508 -685Q508 -678 507 -671Q508 -663 508 -656Q503 -613 479 -587Q468 -585 452 -576Q434 -566 421 -566Q418 -566 414 -567Q393 -572 386 -594Q379 -619 367 -639Q366 -632 356 -600Q354 -590 353 -579Q351 -568 343 -562L340 -529Q327 -513 321 -489Q339 -467 361 -449Q382 -431 403 -412Q410 -405 430 -380Q454 -349 471 -339Q473 -351 476 -355V-349Q476 -338 481 -333Q483 -339 484 -357Q485 -378 490 -384Q491 -379 491 -374Q491 -364 490 -355Q490 -343 496 -339Q499 -354 499 -373Q499 -394 498 -415Q498 -434 501 -449Q503 -433 509 -333Q516 -340 516 -359Q516 -374 515 -389Q515 -406 519 -414Q521 -388 522 -361Q523 -334 532 -315Q547 -271 544 -251Q536 -213 523 -201Q517 -199 510 -195Q501 -189 495 -189H494Q491 -189 475 -194Q456 -200 445 -200Q434 -200 429 -192Q423 -194 421 -199Q418 -205 415 -208Q412 -206 411 -196Q410 -188 409 -186V-163Q415 -152 417 -128Q418 -116 419 -85Q425 -43 428 -4Q428 9 427 15Q419 53 382 90Q371 85 357 67Q346 53 337 48Q337 44 332 29Q335 22 337 15Q334 6 328 -2Q318 -17 316 -27Q324 -23 329 -18Q327 -25 319 -33Q311 -41 304 -49Q312 -48 339 -28Q346 -33 346 -52V-64Q346 -74 347 -78Q304 -72 281 -49Q286 -32 286 -21Q286 -3 267 35Q263 32 256 32H252Q230 8 202 -58Q211 -89 211 -129Q211 -186 193 -229Q190 -225 167 -223Q149 -221 148 -208Q142 -211 142 -214Q145 -221 151 -229Q148 -238 138 -238Q127 -238 121 -232V-235Q121 -238 126 -243Q131 -248 132 -253Q131 -257 123 -259Q112 -262 112 -270Q104 -268 95 -267Q83 -265 76 -265Q66 -265 61 -270H67Q92 -273 118 -279Q111 -284 98 -284Q68 -280 38 -276H31Q59 -287 85 -296Q111 -304 132 -325Q155 -348 199 -411Q237 -468 260 -582Q270 -620 279 -659Q272 -657 267 -651Q263 -647 261 -644V-643Q262 -642 268 -642V-640Q265 -638 262 -636Q254 -628 248 -607Q241 -586 235 -578L234 -576Q224 -566 185 -554Q140 -587 120 -595Q81 -611 53 -590Q49 -592 45 -595Q33 -607 35 -622Q41 -636 47 -650Q53 -666 55 -679Q57 -691 69 -705Q71 -707 78 -713Q114 -738 140 -745Q150 -745 160 -746Q169 -748 179 -752Q189 -755 195 -751L197 -749Q185 -741 172 -734L170 -731Q175 -732 180 -735Q186 -737 191 -733L182 -724Q187 -721 204 -715Q223 -709 230 -702Q234 -698 235 -694L252 -695Q265 -694 282 -687V-701Q282 -719 278 -730H273Q263 -730 254 -723Q250 -720 240 -710V-715Q241 -740 256 -751Q273 -762 293 -771Q323 -781 329 -816Q339 -813 349 -811Q354 -811 356 -813Q362 -805 374 -795Q389 -783 393 -776Q403 -777 412 -779L414 -777Q414 -776 411 -775Q407 -774 407 -771V-770Q409 -767 416 -767H425Q420 -757 420 -742Q420 -729 423 -716H421Q402 -711 391 -693ZM281 -676L279 -674Q278 -673 276 -669L277 -667L280 -666Q281 -671 281 -676Z"/>
</svg>