<svg xmlns="http://www.w3.org/2000/svg" viewBox="0 -800 1024 1024">
	<path fill="#000000" d="M699 -131Q695 -125 685 -125Q674 -125 674 -134Q678 -136 681 -136Q690 -133 699 -131ZM940 -231Q933 -216 926 -202Q922 -206 922 -216Q922 -233 933 -233Q937 -233 940 -231ZM666 -434Q659 -449 652 -462Q643 -459 641 -450Q639 -440 638 -429Q640 -428 644 -428Q648 -428 666 -434ZM268 -337H264Q256 -337 247 -329Q238 -321 238 -311Q238 -305 243 -297Q256 -300 269 -303Q270 -313 270 -323Q270 -329 268 -337ZM690 -352Q689 -363 683 -371Q669 -369 662 -366Q642 -354 632 -334L634 -333Q638 -337 643 -341Q647 -340 653 -340Q668 -340 690 -352ZM355 -366H349Q337 -366 320 -355Q317 -337 317 -332Q317 -324 320 -318Q331 -323 342 -324Q349 -345 355 -366ZM731 -446H734Q736 -468 738 -490Q738 -516 726 -528Q712 -520 712 -501Q716 -474 720 -447V-444Q726 -445 731 -446ZM256 -444H254Q241 -444 229 -432Q217 -420 217 -405Q217 -394 224 -384Q236 -390 262 -396Q257 -407 257 -427Q257 -438 256 -444ZM813 -470Q820 -531 820 -554Q820 -572 817 -590Q786 -581 782 -570Q788 -563 793 -554Q798 -545 807 -541Q799 -522 790 -503Q780 -484 779 -462Q790 -468 791 -482Q794 -477 813 -470ZM335 -425Q344 -432 364 -439Q385 -447 391 -455Q397 -463 404 -488Q409 -508 412 -512Q346 -503 327 -472Q339 -457 342 -455Q334 -445 334 -433Q334 -428 335 -425ZM429 -128H430Q441 -128 450 -158Q459 -187 459 -208Q459 -225 453 -242Q458 -245 468 -254Q477 -262 486 -265Q489 -266 498 -266Q507 -266 511 -265Q525 -262 537 -239Q546 -222 553 -222Q556 -222 558 -223Q561 -240 564 -257Q568 -315 571 -374Q571 -385 569 -407Q567 -424 556 -451Q548 -470 546 -479Q501 -436 481 -381Q477 -359 472 -337Q466 -326 459 -317Q453 -302 449 -272Q444 -233 434 -218H433Q430 -218 429 -221L428 -220Q430 -218 431 -217L429 -215Q427 -217 425 -220Q429 -213 435 -205Q438 -198 439 -179Q440 -158 444 -151Q429 -138 429 -131ZM783 -120H787Q756 -132 727 -140Q745 -137 762 -137Q789 -137 802 -151Q811 -190 811 -261Q811 -304 810 -324V-359Q810 -381 804 -393Q799 -392 763 -390Q740 -389 740 -379Q740 -377 742 -371Q762 -377 787 -377Q785 -371 782 -366V-365L785 -363Q789 -364 792 -365Q788 -360 788 -353Q788 -345 795 -338Q788 -338 788 -328Q788 -323 790 -317Q781 -310 755 -300Q730 -290 718 -281Q716 -267 714 -258Q732 -264 749 -268Q766 -272 776 -284Q780 -289 782 -298Q785 -311 791 -315V-305Q791 -292 797 -266Q801 -247 802 -233Q789 -216 739 -208Q700 -201 686 -192Q665 -203 653 -223Q653 -244 661 -266Q659 -264 656 -263Q651 -267 645 -273Q636 -283 631 -286Q629 -279 629 -266Q633 -231 637 -196V-189Q636 -174 621 -152Q610 -136 607 -126Q600 -136 582 -137Q575 -156 568 -173Q560 -191 543 -199Q522 -185 499 -143Q502 -142 506 -142Q514 -142 523 -151Q534 -162 544 -162H546Q556 -160 575 -133Q582 -120 591 -93Q574 -76 569 -48Q567 -61 545 -67Q525 -73 522 -82H518Q500 -82 469 -51Q449 -31 441 -30H439Q428 -33 413 -41Q409 -56 400 -79Q374 -46 374 -34Q374 -28 376 -26Q388 -8 420 -8Q458 -12 496 -16Q681 -22 841 -30Q816 -60 799 -74Q773 -96 743 -104H746Q762 -102 778 -100Q784 -100 787 -101Q745 -113 708 -130Q746 -125 783 -120ZM926 -50L942 -137Q944 -89 949 -42Q952 -42 952 -44Q953 -47 954 -50Q956 -11 972 1Q964 12 960 37Q955 63 948 72Q931 90 901 92Q872 93 840 96Q824 98 823 98Q821 98 807 96Q778 91 730 91Q662 93 593 94Q569 94 558 93Q539 92 501 92H424Q368 92 341 90Q309 87 284 75Q256 61 251 39Q250 34 250 21Q250 -8 258 -32Q282 -87 310 -134Q333 -172 333 -191Q333 -200 329 -208Q330 -212 342 -233Q350 -234 358 -236H361V-238Q361 -243 358 -246Q350 -248 344 -248Q327 -248 307 -239V-236Q312 -219 317 -204V-202Q311 -187 292 -171Q267 -139 225 -72Q197 -27 181 -4Q160 26 152 40Q138 65 135 90Q126 94 110 94Q88 94 72 84Q64 71 55 58Q52 55 46 51Q37 45 36 40Q35 38 35 35Q37 24 42 15Q41 7 34 2Q41 -11 41 -23Q41 -37 30 -63Q21 -84 19 -96Q44 -56 62 -45Q157 -116 213 -197Q202 -206 187 -206Q179 -218 164 -224Q161 -260 139 -283Q118 -306 91 -325Q54 -350 36 -386Q33 -393 33 -405Q33 -439 52 -446Q53 -459 58 -467Q63 -475 67 -485Q67 -494 57 -510Q49 -523 49 -532V-533Q55 -530 63 -518Q70 -507 75 -506Q79 -507 79 -512Q77 -518 74 -525Q70 -535 61 -552Q48 -576 45 -588Q69 -556 98 -528Q103 -534 103 -542Q99 -560 89 -578H90Q94 -578 110 -562Q122 -553 133 -544Q141 -546 143 -546Q157 -545 165 -534Q173 -524 182 -516Q195 -525 207 -531Q220 -537 228 -553Q235 -576 242 -599Q254 -630 254 -649Q254 -659 253 -665Q244 -672 240 -673Q243 -677 243 -682Q243 -688 239 -691H236Q224 -689 215 -685Q238 -723 268 -751Q306 -789 344 -789H346Q381 -787 401 -768Q414 -755 424 -716Q431 -688 437 -677Q428 -657 412 -644Q377 -632 355 -584Q415 -596 466 -629H469Q475 -628 480 -628Q493 -636 505 -645L508 -643Q507 -639 505 -635V-633Q507 -627 518 -619Q524 -614 527 -611Q544 -628 560 -638Q553 -629 547 -619Q540 -610 540 -594V-591L542 -590Q544 -590 545 -594Q547 -598 549 -598L552 -597Q550 -589 550 -586Q550 -574 566 -547Q580 -570 590 -597Q592 -587 594 -572Q597 -557 604 -548Q661 -579 714 -613Q743 -630 784 -677Q818 -715 838 -731Q850 -733 854 -733Q884 -733 903 -716Q915 -730 926 -737Q920 -722 915 -698Q915 -687 923 -682Q933 -688 942 -694V-692Q942 -682 932 -662Q939 -656 945 -651Q942 -643 942 -638Q942 -632 947 -619Q952 -606 952 -596V-593Q951 -585 932 -548Q898 -471 894 -371V-364Q894 -351 896 -335Q898 -303 898 -239Q898 -176 899 -143Q902 -111 904 -79Q904 -55 896 -39Q908 -41 908 -62V-71Q912 -114 924 -183Q925 -176 925 -161Q923 -124 921 -87Q921 -70 926 -50Z"/>
</svg>