<svg xmlns="http://www.w3.org/2000/svg" viewBox="0 -800 1024 1024">
	<path fill="#000000" d="M760 -234L758 -236Q735 -229 729 -203Q743 -209 756 -218V-220Q758 -227 760 -234ZM286 -459Q284 -451 278 -450Q270 -448 262 -447Q246 -443 222 -426Q197 -410 179 -400Q161 -391 137 -380Q113 -368 105 -350Q91 -342 81 -346Q62 -354 50 -362Q39 -370 36 -402V-423Q36 -440 34 -448Q34 -452 33 -456Q33 -485 56 -500Q58 -508 73 -537Q76 -546 79 -556Q83 -566 94 -567L105 -594Q101 -597 101 -606Q101 -623 112 -623Q111 -625 111 -628Q112 -634 112 -640V-642L109 -643Q102 -640 95 -638H94Q97 -642 101 -657Q105 -671 111 -678Q121 -688 136 -696Q155 -714 172 -727Q191 -727 199 -724Q212 -705 228 -681Q244 -657 245 -624Q245 -616 244 -611Q236 -586 228 -569Q256 -582 288 -597Q320 -612 347 -631Q344 -623 341 -616Q346 -617 353 -624Q362 -632 368 -632Q372 -632 375 -631Q370 -624 364 -620Q357 -615 355 -605Q359 -595 369 -595Q376 -595 382 -596H385Q376 -578 376 -568Q376 -558 385 -557Q383 -548 380 -539Q381 -537 381 -532Q381 -519 374 -477Q374 -472 373 -468Q351 -456 321 -456H311ZM947 -109Q947 -99 938 -92Q936 -98 936 -103Q936 -113 943 -116Q947 -113 947 -109ZM662 -183Q673 -199 683 -204Q678 -194 678 -193V-191Q686 -189 690 -189Q704 -191 718 -194Q703 -210 685 -223Q668 -236 666 -268V-275Q667 -302 680 -323Q693 -345 703 -366Q698 -371 688 -378Q675 -387 670 -395Q663 -406 662 -419Q661 -432 660 -447Q657 -460 653 -473Q658 -503 670 -536Q679 -578 681 -602L699 -645Q691 -645 691 -655Q692 -664 692 -674Q692 -682 689 -684H687Q681 -683 677 -677Q673 -672 669 -668Q675 -727 685 -749Q701 -786 743 -786H746Q764 -762 785 -740Q806 -719 808 -683V-681Q804 -652 789 -624Q770 -581 767 -569Q838 -602 907 -647Q904 -638 900 -629Q900 -626 901 -624Q908 -625 915 -631Q923 -638 928 -639Q915 -623 915 -611Q915 -609 917 -603Q921 -604 922 -607Q924 -612 926 -612Q928 -608 928 -606Q926 -596 924 -587Q927 -574 929 -561Q930 -523 935 -488Q928 -486 913 -478Q893 -467 883 -467L806 -431L805 -429Q771 -420 734 -383Q740 -370 749 -360Q781 -376 808 -397Q835 -418 872 -428Q866 -424 866 -415Q866 -410 868 -407Q895 -430 910 -431Q881 -409 881 -384Q881 -380 883 -372Q885 -373 887 -377Q890 -383 895 -383H897Q887 -372 883 -341Q880 -316 874 -306Q867 -294 843 -285Q821 -277 812 -267Q814 -255 815 -243Q851 -262 887 -285H888Q892 -283 895 -279Q911 -289 924 -291Q909 -280 909 -265Q909 -263 911 -257L913 -256Q918 -258 922 -261L923 -260Q924 -247 924 -234Q924 -211 920 -188Q907 -184 907 -165L866 -168L864 -165Q864 -164 866 -158Q849 -150 832 -142Q851 -104 861 -90Q879 -63 901 -51Q905 -58 905 -79Q905 -102 910 -108Q913 -82 916 -57Q919 -107 921 -158Q928 -139 928 -98V-74Q928 -37 931 -23Q933 -30 934 -51Q935 -73 938 -83Q943 -43 945 1Q947 45 961 78Q956 97 940 106Q924 115 908 125Q899 114 887 107Q876 100 865 91Q846 73 836 47Q826 20 814 -7Q791 -57 767 -108Q740 -70 732 -12Q724 47 695 85Q680 78 672 63Q664 48 659 31Q651 -2 626 -17Q642 -11 661 0Q672 -11 686 -43Q701 -77 715 -89Q703 -87 697 -79Q691 -71 683 -66Q678 -69 666 -81Q656 -91 647 -96Q645 -110 645 -118Q645 -154 660 -180Q648 -178 642 -166Q636 -154 631 -143Q621 -108 611 -73Q600 -30 585 -7L578 21Q579 25 579 35Q579 58 570 77Q560 99 543 99H541Q527 89 512 78Q491 63 480 17H482Q486 18 489 18L491 17Q488 6 473 -7Q461 -17 458 -26Q464 -25 473 -18Q484 -10 491 -10H495Q512 -13 533 -73Q544 -112 554 -151Q552 -156 541 -156Q528 -156 527 -161Q493 -124 463 -62Q444 -22 414 53Q410 54 400 54Q382 53 363 52Q353 52 348 53Q342 37 327 25Q326 8 317 -11Q308 -2 304 -1L300 3V4Q300 10 296 13Q292 16 285 21Q274 32 263 42Q249 55 231 59Q216 59 213 40Q201 40 194 30Q188 21 188 6Q188 -28 196 -39Q194 -44 194 -55Q194 -83 223 -97L211 -102Q208 -127 204 -152H199Q184 -142 144 -117Q119 -105 103 -119Q99 -144 88 -157L94 -178Q90 -186 80 -197Q68 -209 65 -217Q80 -209 94 -202L95 -204Q94 -207 93 -211L92 -213Q98 -210 101 -210Q120 -212 161 -233Q189 -247 201 -251Q201 -273 195 -282Q185 -275 159 -266Q152 -262 137 -257Q133 -256 127 -259Q109 -282 82 -282Q82 -295 92 -302Q91 -305 91 -312Q91 -344 135 -354Q149 -363 163 -373Q203 -386 245 -405Q260 -408 276 -416Q292 -425 306 -431V-430Q307 -428 305 -428Q303 -428 302 -427L306 -426Q314 -429 322 -433H324Q316 -423 317 -413Q317 -408 321 -404Q324 -408 330 -409Q325 -404 327 -396Q327 -389 336 -374Q325 -357 328 -330Q324 -332 323 -331Q319 -331 316 -321Q306 -317 294 -315Q282 -313 272 -309Q267 -282 268 -274Q272 -276 327 -303Q340 -310 352 -312Q350 -326 350 -333Q350 -354 360 -368Q356 -383 356 -397Q356 -422 375 -450Q394 -478 418 -491Q417 -486 408 -474Q396 -458 396 -447Q396 -442 399 -436Q406 -438 410 -449Q415 -461 420 -462V-445Q423 -444 425 -444Q431 -444 447 -450L454 -452Q472 -471 492 -480Q491 -541 459 -577Q459 -610 466 -643Q465 -653 449 -653Q443 -653 441 -652Q443 -661 454 -668Q465 -675 477 -682Q490 -690 505 -701Q521 -712 538 -713Q549 -713 561 -704Q581 -688 602 -637Q606 -625 606 -612Q606 -598 596 -566Q585 -531 585 -508Q592 -511 603 -522Q617 -536 631 -544Q624 -526 622 -502L624 -501Q629 -503 633 -505H635Q631 -501 631 -494Q632 -478 644 -475Q645 -475 649 -477Q647 -471 647 -469Q651 -454 655 -442V-441Q655 -436 648 -423Q642 -411 640 -403Q639 -383 637 -363Q579 -347 536 -316Q547 -312 561 -287Q569 -289 577 -299Q585 -309 593 -310H594Q607 -306 619 -302H620Q628 -306 635 -313Q634 -310 634 -304Q634 -292 645 -274Q660 -250 660 -235ZM365 -84Q369 -88 372 -92Q381 -104 389 -114Q397 -125 409 -129L447 -183Q443 -187 443 -196Q443 -199 452 -226Q461 -246 469 -267Q467 -275 465 -283H462Q455 -281 445 -265Q435 -250 431 -242Q398 -250 389 -272Q369 -275 358 -296Q347 -288 348 -286Q354 -246 346 -223Q333 -206 313 -199Q280 -193 271 -182Q262 -159 263 -100Q300 -124 343 -156Q354 -165 371 -174Q371 -171 361 -161Q353 -153 353 -151L354 -148L357 -147Q364 -155 372 -156Q360 -142 365 -84ZM357 -299Q356 -303 354 -308Q348 -302 345 -296Q345 -294 357 -299Z"/>
</svg>