<svg xmlns="http://www.w3.org/2000/svg" viewBox="0 -800 1024 1024">
	<path fill="#000000" d="M309 -222Q317 -225 324 -228Q329 -244 334 -261Q332 -262 320 -262Q307 -262 307 -234Q307 -228 309 -222ZM264 -205Q260 -221 260 -228Q250 -226 238 -214Q238 -202 247 -195Q256 -200 264 -205ZM258 -280Q256 -283 255 -295Q255 -306 252 -310Q250 -311 245 -311Q226 -311 211 -286Q215 -273 224 -267Q231 -270 258 -280ZM358 -353V-358Q328 -352 296 -337Q299 -330 305 -328Q311 -325 316 -322Q314 -313 312 -305H314Q332 -305 345 -319Q358 -333 358 -353ZM799 -175Q630 -175 587 -106Q589 -105 594 -97Q602 -108 616 -111Q630 -115 645 -118Q692 -131 747 -154Q746 -149 745 -144Q745 -142 747 -140H749Q758 -142 767 -144Q770 -144 772 -143Q757 -139 757 -129L759 -128Q764 -129 768 -130Q770 -130 772 -128Q756 -112 756 -92Q756 -85 757 -81Q718 -79 688 -68Q680 -65 662 -56Q638 -44 627 -43Q618 -45 609 -47Q605 -47 603 -45Q605 -38 606 -30Q606 -22 612 -19Q633 -28 684 -36Q720 -42 744 -49Q772 -102 799 -175ZM960 -291Q957 -278 944 -273V-275Q943 -280 942 -285V-287Q947 -292 954 -292Q958 -292 960 -291ZM929 -109Q898 -71 895 -66Q864 -14 845 73H843Q840 73 837 72H835Q826 81 812 81Q785 76 760 71Q754 71 751 72L752 68Q752 57 736 33H719Q714 33 712 32L694 33Q665 42 635 49Q604 56 590 80Q558 73 549 60Q546 55 541 23Q529 -33 499 -72Q460 -126 460 -175Q460 -197 467 -215Q475 -237 491 -237Q495 -245 495 -254V-256L497 -257Q504 -253 511 -246H515Q527 -246 537 -231Q549 -213 555 -210Q609 -219 663 -228Q658 -238 653 -249Q648 -259 639 -264Q644 -271 649 -279Q645 -283 641 -283Q631 -280 621 -278Q609 -290 599 -303Q588 -315 582 -333Q582 -337 586 -337H588Q591 -337 592 -339Q591 -347 585 -349Q578 -351 572 -354Q572 -359 577 -359Q580 -359 586 -357Q592 -364 595 -375Q547 -348 519 -320L513 -311Q513 -307 506 -298Q496 -285 496 -275Q484 -273 481 -273Q460 -273 448 -288Q437 -302 436 -328Q437 -329 437 -333Q434 -324 430 -315Q411 -299 396 -248Q394 -240 375 -164V-163Q383 -167 449 -196Q451 -190 446 -173Q441 -157 442 -152Q437 -149 435 -135Q435 -131 439 -129Q444 -126 444 -122H441Q439 -122 439 -121Q438 -120 439 -119Q442 -111 445 -103Q364 -57 282 -19L261 -4Q245 9 229 22Q213 34 207 56L170 49Q164 39 158 29Q132 39 112 19Q112 11 111 3Q109 -17 119 -22Q117 -27 117 -37Q117 -64 132 -79Q147 -94 162 -108Q167 -88 178 -86Q202 -92 226 -98Q230 -102 252 -110Q252 -107 259 -111Q272 -120 271 -116Q274 -116 276 -116Q285 -116 289 -119Q308 -136 336 -145Q326 -149 318 -157Q288 -151 263 -137Q238 -124 212 -109Q205 -112 197 -115Q192 -115 189 -110Q160 -126 152 -170L132 -182L128 -181Q123 -181 105 -187L101 -188Q96 -187 90 -187H88Q82 -193 76 -199Q58 -206 44 -223Q39 -230 25 -268Q18 -287 18 -298Q18 -304 19 -307Q31 -334 57 -351V-356Q57 -364 55 -376L57 -377Q59 -377 63 -369Q68 -359 74 -357L129 -383H126Q122 -383 118 -384Q104 -390 88 -414Q71 -440 55 -445Q59 -450 62 -456Q50 -475 46 -478Q39 -477 32 -477Q27 -477 25 -478Q26 -486 32 -487Q39 -488 43 -492Q39 -495 33 -495Q27 -495 18 -488Q10 -482 7 -481Q10 -491 21 -499Q23 -501 40 -511Q56 -524 72 -540Q89 -551 106 -562Q122 -577 137 -592Q150 -606 170 -610H174L197 -634V-636Q197 -645 202 -649Q207 -654 210 -660Q213 -667 215 -674Q217 -682 224 -685Q223 -691 221 -698V-700Q238 -723 268 -723Q287 -723 303 -713Q319 -703 326 -685V-681Q326 -671 337 -640Q336 -632 335 -624V-621Q355 -623 374 -626Q385 -626 392 -622Q395 -623 403 -629Q410 -635 416 -635Q419 -635 421 -634Q420 -630 414 -626Q406 -620 406 -613Q406 -609 409 -609Q412 -609 415 -610H416Q414 -598 414 -592Q414 -572 428 -544Q425 -520 412 -507Q399 -494 387 -481Q355 -474 333 -432H335Q347 -432 358 -443Q366 -452 372 -453L376 -454Q383 -453 390 -452Q393 -452 396 -453Q405 -458 414 -464Q412 -457 409 -455L411 -452H414Q418 -452 422 -453Q426 -453 435 -441Q445 -427 448 -411Q448 -385 445 -371Q454 -390 466 -397Q471 -394 475 -392H477Q498 -407 519 -422Q515 -425 509 -425Q491 -422 482 -418Q484 -424 484 -427Q483 -439 476 -449Q469 -459 464 -469H463Q460 -468 457 -467L455 -469Q461 -476 461 -485Q458 -492 454 -499Q470 -519 488 -519Q510 -519 526 -502Q542 -485 542 -460Q542 -443 533 -428Q568 -449 606 -465Q609 -498 609 -519Q613 -531 613 -545Q613 -552 612 -555Q596 -547 586 -536Q576 -525 564 -511Q533 -513 522 -515Q500 -518 489 -533Q484 -540 482 -558Q480 -575 476 -583Q481 -606 504 -662Q507 -661 508 -654Q508 -649 510 -648Q519 -651 536 -663Q552 -675 564 -678L577 -681Q578 -695 592 -706Q597 -710 621 -725Q654 -745 675 -745Q680 -745 686 -743Q689 -742 694 -735Q700 -726 707 -726H709Q707 -718 707 -716Q707 -707 715 -707Q720 -707 722 -709Q719 -700 719 -692Q719 -672 731 -665Q731 -670 736 -676Q741 -682 741 -689V-692Q761 -708 785 -720Q804 -722 840 -750Q876 -778 898 -781H904Q920 -780 926 -771Q933 -763 942 -753Q946 -754 954 -761Q962 -768 968 -768H971Q970 -764 962 -759Q954 -753 954 -746L956 -745Q960 -748 970 -751Q973 -751 975 -750Q962 -741 962 -731Q962 -726 966 -722Q974 -724 981 -728Q977 -719 972 -711Q987 -699 992 -668Q987 -661 981 -657Q976 -653 975 -642V-640Q953 -634 943 -611Q934 -589 931 -558Q929 -493 918 -442L921 -417Q930 -388 930 -356Q930 -309 909 -282Q889 -280 886 -273Q894 -270 911 -253Q914 -253 920 -259Q929 -268 936 -268Q939 -267 941 -267Q928 -256 928 -242Q928 -237 929 -234L932 -233Q934 -233 937 -238Q941 -243 944 -243Q943 -235 941 -228Q955 -216 966 -183Q961 -160 960 -129Q945 -119 929 -109ZM818 -518Q819 -524 821 -534Q827 -585 827 -608Q819 -607 811 -597Q802 -586 793 -585Q775 -593 758 -602Q741 -611 734 -633Q700 -587 687 -546Q683 -520 682 -506Q683 -498 683 -491Q681 -445 679 -400Q679 -359 689 -338Q693 -340 696 -340Q706 -338 715 -336Q723 -324 724 -313Q739 -311 742 -296Q746 -281 751 -269Q746 -259 744 -247V-244Q788 -259 850 -263H855Q860 -270 869 -273Q866 -281 853 -285Q845 -288 841 -291Q834 -295 824 -312Q815 -326 808 -332Q798 -334 794 -336V-337Q794 -339 799 -340Q803 -341 803 -344V-345Q798 -351 790 -351Q782 -352 776 -354Q792 -363 800 -372Q811 -385 811 -404V-423Q787 -405 774 -390L767 -381Q767 -377 760 -368Q750 -355 750 -345Q740 -343 735 -343Q715 -343 703 -358Q692 -373 691 -398Q695 -453 721 -467Q726 -464 730 -462H732Q753 -477 774 -492Q770 -495 764 -495Q746 -492 736 -488Q738 -494 738 -497Q737 -509 730 -519Q723 -529 719 -539H718Q715 -538 712 -537L710 -539Q716 -546 716 -555Q716 -565 709 -579Q725 -599 743 -599Q763 -599 780 -577Q797 -555 797 -530Q797 -513 788 -498Q801 -509 818 -518ZM146 -391L225 -429Q229 -435 235 -436Q240 -437 244 -437Q266 -445 286 -481Q315 -532 319 -537Q295 -533 273 -518Q264 -512 233 -484Q188 -446 162 -415Q154 -403 146 -391Z"/>
</svg>