<svg xmlns="http://www.w3.org/2000/svg" viewBox="0 -800 1024 1024">
	<path fill="#000000" d="M922 -695V-694Q921 -686 915 -685Q909 -684 905 -680Q904 -682 904 -686Q904 -695 918 -695ZM303 -403Q306 -407 306 -414Q304 -430 301 -446Q298 -443 293 -440Q284 -435 282 -431Q295 -406 303 -403ZM206 -165Q224 -193 224 -208Q224 -214 221 -222Q201 -204 201 -184Q201 -172 206 -165ZM377 -269Q378 -284 378 -300Q378 -321 375 -332Q341 -318 341 -283Q341 -273 344 -263Q355 -267 377 -269ZM714 -159H713Q673 -135 661 -115Q641 -105 639 -90Q650 -95 674 -102Q702 -110 713 -116Q713 -119 712 -123Q715 -137 717 -152Q717 -155 716 -158ZM698 -41Q672 -38 657 -27Q634 -17 633 -17Q622 -11 622 -1Q622 4 625 10Q629 9 692 -5Q695 -23 698 -41ZM671 -374Q675 -410 679 -447Q648 -435 642 -423Q643 -419 643 -416Q641 -396 638 -377Q638 -370 639 -366Q655 -370 671 -374ZM357 -56V-68Q357 -77 354 -79Q307 -78 244 -39Q236 -34 228 -29Q221 -24 220 -19Q220 -14 226 -10Q273 -35 357 -56ZM369 -183V-191Q343 -183 322 -168Q292 -175 292 -221Q295 -258 300 -290Q278 -278 278 -205V-162Q278 -142 277 -134Q265 -128 252 -122Q243 -124 233 -136Q219 -152 205 -152V-140Q205 -112 214 -99Q278 -131 347 -158Q346 -156 346 -153Q347 -147 352 -144Q358 -141 363 -139Q366 -161 369 -183ZM762 111H756Q742 111 732 121Q713 114 696 105Q678 97 677 73V71Q662 73 646 74Q635 76 616 86Q595 97 587 97H586Q580 97 572 93Q562 88 556 88H553Q548 84 543 70Q537 52 529 48Q532 41 532 32Q532 17 522 -8V-11Q521 -50 505 -71Q488 -93 470 -113V-119Q470 -132 478 -149Q485 -164 485 -171Q485 -174 483 -182H486Q493 -182 501 -176Q525 -190 548 -190Q565 -190 575 -179Q578 -183 586 -183H594Q599 -183 601 -184Q615 -190 630 -200Q684 -229 722 -240Q722 -246 721 -253Q721 -258 722 -260Q683 -258 644 -245Q604 -232 571 -221Q544 -215 523 -203Q518 -208 491 -220Q470 -230 467 -242Q466 -245 466 -251Q470 -271 476 -284Q477 -303 479 -317Q481 -331 500 -334Q507 -332 514 -331H517Q540 -333 565 -343Q560 -378 556 -394Q551 -411 539 -423Q528 -434 516 -445Q488 -465 485 -506V-510Q493 -520 501 -530Q493 -542 489 -559Q489 -564 492 -572Q497 -581 506 -592Q516 -602 519 -619V-624Q519 -633 518 -643Q518 -654 528 -660Q526 -654 526 -650Q526 -634 538 -627V-644Q542 -633 550 -623Q559 -626 568 -630H570Q589 -629 601 -616Q613 -603 625 -591Q686 -609 707 -626Q706 -631 706 -640Q709 -665 711 -690Q711 -699 710 -704Q709 -708 703 -718Q696 -730 696 -738V-740Q698 -751 705 -758Q711 -765 719 -773Q729 -786 738 -794Q748 -801 763 -801Q780 -801 800 -791Q815 -774 834 -756Q853 -739 855 -712Q855 -708 854 -704Q853 -693 846 -678Q838 -660 837 -653H840Q851 -653 868 -663Q887 -674 895 -674H896Q888 -665 877 -657Q866 -650 861 -638Q864 -635 868 -635Q879 -638 889 -644Q875 -623 875 -616Q875 -610 884 -610H889Q887 -598 887 -576V-572Q887 -533 874 -519Q864 -507 831 -502Q797 -497 785 -485Q774 -441 766 -392Q822 -406 835 -411Q871 -424 887 -446L888 -442Q887 -432 885 -423Q885 -416 889 -413Q906 -416 922 -419L923 -417Q923 -416 920 -416Q916 -415 916 -412V-410Q917 -405 922 -405Q925 -405 935 -410L936 -408Q934 -403 928 -400Q929 -394 935 -386Q948 -390 952 -391Q946 -385 946 -373Q946 -354 957 -346Q942 -310 919 -281Q909 -286 889 -286Q859 -286 839 -278Q841 -269 848 -266Q854 -262 859 -257Q869 -261 880 -263L882 -261Q878 -254 874 -248H877Q889 -252 902 -259Q900 -255 894 -247Q887 -238 886 -231V-230Q891 -212 895 -195V-191Q891 -181 878 -174Q865 -167 854 -161Q841 -150 835 -131Q828 -111 819 -92Q806 -76 801 -47Q801 -44 803 -36Q793 -27 793 -13Q793 0 791 14Q788 22 784 30V45Q780 55 776 65V78Q776 82 775 84Q774 88 768 96Q762 104 762 111ZM354 20H350Q260 20 215 80Q193 75 173 73Q154 71 143 56Q138 46 136 36Q134 26 122 22Q127 9 127 -4Q127 -18 115 -71Q104 -127 66 -190Q49 -219 46 -226Q37 -246 37 -265Q37 -288 51 -312Q40 -356 40 -366Q40 -375 41 -380Q45 -366 48 -351Q52 -336 67 -332Q63 -346 58 -360Q66 -358 75 -350Q82 -343 86 -343Q92 -343 98 -349Q106 -344 117 -344Q128 -344 143 -349Q161 -338 171 -325Q187 -330 199 -339Q211 -348 223 -357V-362Q221 -377 215 -387Q213 -388 210 -388Q204 -388 192 -382Q183 -378 178 -377H173Q146 -377 126 -409Q103 -410 90 -430Q78 -448 78 -472Q78 -496 89 -516Q86 -527 70 -543Q59 -554 54 -564Q60 -562 73 -552Q84 -544 92 -541Q95 -543 98 -545Q90 -564 75 -575Q60 -586 47 -599Q55 -599 69 -589Q86 -578 95 -578Q100 -578 103 -579Q102 -586 91 -591Q80 -596 79 -602Q86 -602 89 -599Q101 -605 113 -612Q124 -620 140 -622Q177 -628 212 -643Q246 -659 280 -673Q315 -687 349 -700Q382 -714 409 -736Q412 -730 415 -725Q420 -727 431 -736Q443 -746 454 -749L455 -747Q449 -739 443 -731Q442 -728 442 -722Q442 -710 449 -704H450Q453 -704 454 -707Q456 -711 459 -711H460Q454 -695 454 -684V-679L457 -677L460 -678Q462 -678 464 -676Q463 -671 463 -663Q463 -642 483 -613Q473 -591 473 -569Q473 -552 480 -539Q397 -507 351 -476Q358 -471 365 -466V-463Q365 -456 364 -450L365 -446Q377 -454 394 -469Q411 -484 431 -486Q443 -486 452 -478Q456 -479 461 -486Q468 -495 476 -495H477Q468 -486 468 -476Q468 -464 487 -437Q505 -411 506 -397Q482 -356 479 -351Q466 -324 464 -296Q451 -181 447 -52Q447 14 457 67Q442 80 430 85Q422 83 408 75Q392 66 380 64Q378 60 354 20Z"/>
</svg>