<svg xmlns="http://www.w3.org/2000/svg" viewBox="0 -800 1024 1024">
	<path fill="#000000" d="M191 -660Q187 -657 185 -652Q182 -647 176 -646Q174 -652 174 -654Q174 -667 186 -669Q190 -662 191 -660ZM862 -243H861Q858 -244 855 -246H854Q855 -260 856 -275H858Q861 -274 864 -273Q866 -267 866 -265Q864 -254 862 -243ZM558 -228V-225Q536 -209 516 -183Q522 -167 530 -167Q542 -168 554 -183Q566 -198 573 -209Q585 -224 595 -237Q604 -250 605 -266Q599 -268 597 -268Q588 -268 577 -254Q567 -242 561 -240Q560 -234 558 -228ZM487 -132H486Q478 -131 478 -125Q477 -119 476 -114Q469 -114 461 -108Q455 -103 448 -103Q442 -104 434 -111Q425 -119 423 -126Q421 -132 421 -137Q423 -152 424 -167V-172H425Q429 -172 432 -169Q435 -165 438 -165Q477 -204 513 -246Q549 -288 585 -330L586 -331L590 -330L592 -333V-339L588 -340Q579 -337 570 -335Q566 -335 564 -336Q519 -301 480 -254Q442 -208 407 -163Q395 -151 383 -137Q370 -124 369 -102Q370 -98 370 -94Q389 -88 421 -88Q469 -90 516 -93Q518 -123 518 -135Q518 -158 512 -174Q490 -163 486 -138Q486 -134 487 -132ZM288 -422V-416Q288 -413 283 -410Q278 -407 278 -403L279 -399Q271 -398 263 -393Q254 -387 250 -387H248Q233 -390 217 -393Q207 -394 190 -402Q176 -408 168 -408Q163 -408 155 -405V-410Q155 -421 143 -429Q113 -423 92 -407Q72 -391 50 -376Q65 -398 87 -413Q108 -427 130 -444Q121 -460 112 -467H109Q97 -463 88 -459H85Q87 -466 93 -469Q99 -473 105 -476Q104 -488 98 -494Q93 -501 88 -508Q91 -514 91 -519Q91 -528 81 -536Q75 -541 61 -549Q51 -555 41 -559Q30 -564 26 -570Q28 -571 33 -571Q44 -571 71 -561Q90 -554 96 -554Q114 -570 121 -579Q116 -590 114 -606Q124 -599 132 -591Q140 -583 154 -582H156Q162 -589 165 -608Q168 -629 173 -634Q175 -630 175 -622Q175 -611 174 -600Q174 -577 182 -576H183Q188 -576 188 -585Q189 -595 192 -597Q198 -587 201 -574Q203 -562 217 -561Q219 -561 220 -565Q222 -570 225 -570Q230 -551 243 -541Q256 -531 266 -517Q277 -523 279 -523Q279 -517 278 -512Q278 -484 294 -450Q288 -434 288 -422ZM919 99H917Q902 101 894 109Q880 90 851 84Q823 78 799 67Q796 68 793 68Q782 66 772 60Q754 55 732 51Q711 48 692 39Q599 21 496 9Q448 6 447 6Q366 3 363 3Q272 3 226 21Q223 21 219 20Q207 20 183 31Q165 39 158 41Q145 23 131 5Q118 -13 97 -19V-20Q99 -26 103 -30Q98 -34 92 -34Q87 -33 82 -33Q91 -35 106 -49Q121 -63 133 -66Q156 -70 185 -72Q225 -79 264 -87Q247 -101 228 -109Q209 -118 188 -129Q178 -138 167 -147Q159 -142 150 -138Q141 -135 136 -135Q134 -135 114 -141Q99 -143 84 -146Q73 -154 73 -175V-182Q54 -220 54 -246V-252Q59 -268 69 -282Q78 -313 93 -330Q96 -328 98 -322Q101 -314 105 -312Q113 -316 126 -319H128Q172 -363 219 -379Q234 -371 247 -361Q254 -373 269 -378Q263 -367 259 -354Q259 -350 260 -348L263 -347Q268 -349 272 -351L273 -350Q286 -305 294 -257Q282 -243 268 -232Q253 -220 248 -198Q268 -177 271 -174Q284 -162 299 -157Q305 -167 313 -197Q319 -220 325 -232Q325 -217 324 -203Q324 -193 325 -188Q352 -200 404 -252Q490 -338 538 -404Q527 -422 512 -436Q486 -396 459 -357Q424 -302 414 -272Q400 -268 395 -268Q382 -268 369 -276Q368 -277 347 -292Q343 -313 324 -341Q325 -350 331 -358Q327 -362 320 -362Q310 -361 299 -360H297Q338 -386 378 -414Q418 -441 447 -480Q435 -474 421 -474Q401 -474 387 -485Q372 -497 371 -516Q343 -530 341 -573Q341 -602 361 -612Q360 -616 360 -622Q361 -640 371 -652Q381 -664 391 -676Q398 -686 406 -695Q413 -704 421 -706L422 -702Q420 -690 417 -678Q423 -675 430 -675Q456 -680 484 -686Q505 -697 528 -706H543Q548 -712 567 -714Q571 -718 574 -723Q596 -731 617 -739Q637 -750 657 -758Q683 -762 698 -775H699Q702 -775 702 -772L701 -768L703 -765Q735 -777 767 -790Q765 -784 746 -771Q727 -758 727 -746Q727 -741 728 -738Q734 -739 743 -746Q752 -753 761 -753H765Q763 -746 754 -737Q744 -727 744 -721V-720L746 -717L749 -716Q759 -719 769 -723H771Q770 -719 762 -711Q752 -700 752 -692Q752 -688 753 -686Q755 -683 762 -683Q752 -661 752 -635Q752 -619 756 -607Q729 -600 699 -594Q670 -589 648 -576H644Q624 -573 603 -565Q595 -556 589 -526Q573 -513 562 -498Q568 -498 574 -499Q597 -499 615 -489Q632 -478 643 -461Q653 -444 663 -426Q680 -452 698 -477Q716 -502 728 -532Q728 -537 724 -543Q760 -544 786 -574L785 -571Q788 -563 793 -558Q799 -560 806 -560Q814 -560 815 -555Q823 -561 829 -568Q835 -576 847 -577Q841 -571 834 -563Q827 -555 826 -545Q826 -539 830 -534H833Q837 -535 841 -537H842Q841 -533 841 -527Q841 -513 854 -496Q854 -471 859 -463Q852 -440 845 -417Q797 -412 756 -386Q731 -370 691 -332Q699 -325 722 -314Q737 -307 746 -301Q753 -309 759 -333Q762 -332 762 -324V-316Q762 -308 765 -307Q772 -332 771 -361Q776 -353 778 -329Q780 -304 783 -297Q790 -285 796 -273Q801 -265 809 -249Q827 -215 832 -166Q818 -144 794 -144Q770 -144 738 -163Q732 -167 691 -195Q685 -189 684 -179Q684 -170 683 -162Q676 -141 669 -120Q660 -100 650 -81Q774 -64 830 -62Q841 -82 844 -116Q844 -123 843 -131Q843 -142 851 -146Q851 -101 857 -84Q863 -98 863 -122Q861 -160 858 -199Q858 -217 862 -232Q875 -160 877 -78Q883 -80 883 -88Q883 -94 882 -100Q881 -139 879 -178Q879 -198 882 -215Q883 -213 886 -182Q894 -92 912 -72Q922 -67 931 -63Q939 -58 950 -43Q957 -33 963 -28V-22Q963 -3 972 15Q962 43 962 55V63Q949 70 935 77Q922 83 919 99Z"/>
</svg>