<svg xmlns="http://www.w3.org/2000/svg" viewBox="0 -800 1024 1024">
	<path fill="#000000" d="M354 -445Q351 -436 342 -436Q333 -435 325 -434Q306 -430 277 -416Q248 -401 227 -392Q187 -376 176 -370Q145 -354 137 -338Q125 -331 109 -337Q80 -353 75 -358Q62 -371 60 -402L61 -423Q61 -443 60 -448Q60 -452 60 -456Q60 -484 88 -498Q91 -506 109 -534Q113 -543 118 -553Q123 -563 135 -563L149 -589Q144 -594 146 -602Q146 -618 158 -618V-623Q159 -629 159 -635V-637L156 -638Q148 -636 140 -634H139Q144 -642 156 -663Q175 -698 180 -703Q183 -707 197 -713Q206 -717 211 -720Q232 -734 253 -749Q279 -747 285 -744Q299 -724 316 -699Q333 -675 333 -642Q333 -634 332 -629Q312 -590 291 -558Q324 -570 362 -582Q401 -595 433 -613Q428 -605 425 -598Q430 -599 438 -605Q450 -614 457 -613Q462 -613 465 -612Q459 -605 451 -601Q444 -597 441 -587Q445 -576 456 -576H475Q464 -554 464 -549Q464 -538 473 -537Q470 -528 466 -519Q467 -517 467 -512Q466 -488 455 -448Q429 -438 395 -440H383ZM800 -226Q797 -223 794 -221Q790 -220 790 -214H784L780 -215V-218Q782 -231 793 -232Q799 -232 800 -226ZM949 -452Q949 -433 938 -427Q937 -437 935 -447Q935 -460 946 -460H948Q949 -457 949 -452ZM416 -280Q410 -271 403 -263Q412 -222 403 -205Q392 -190 366 -183Q345 -180 336 -172Q330 -144 332 -90Q375 -114 407 -142Q417 -150 439 -160Q438 -157 429 -149Q419 -141 418 -137L419 -135L422 -134Q428 -139 440 -143Q427 -124 430 -92Q434 -60 433 -52Q418 -26 409 -22Q386 -3 376 0L371 13V14Q371 20 366 23Q361 26 353 31Q329 52 328 53Q307 69 290 69Q273 69 269 50Q255 50 247 40Q239 30 239 17Q239 -18 249 -28Q246 -37 246 -44Q246 -77 269 -90L267 -100Q263 -121 258 -142H252Q221 -124 189 -107Q160 -94 141 -109Q135 -135 124 -147L131 -168Q127 -175 114 -187Q101 -198 97 -207Q114 -199 131 -192L132 -194Q129 -200 129 -201V-203Q135 -200 139 -200Q160 -202 208 -223Q240 -237 255 -241Q255 -264 248 -272Q236 -264 206 -256Q193 -251 180 -247Q173 -247 169 -249Q148 -272 116 -272Q116 -285 128 -292Q127 -296 127 -302Q127 -319 143 -330Q157 -340 178 -344Q202 -359 211 -363Q256 -376 307 -396Q342 -406 378 -422V-421Q376 -419 373 -418L377 -417Q387 -420 396 -423L398 -424Q389 -413 390 -404Q390 -398 395 -394Q403 -400 406 -400Q401 -396 401 -387Q402 -376 412 -364Q400 -348 403 -321Q400 -321 397 -322Q394 -321 389 -311Q388 -310 363 -305Q350 -303 337 -302Q335 -283 333 -265Q334 -265 377 -283Q406 -293 415 -294Q414 -306 414 -337L418 -338Q420 -338 426 -333Q431 -329 435 -328Q454 -336 464 -362Q477 -394 486 -404V-405Q485 -407 484 -410L486 -412Q498 -435 506 -461Q514 -487 531 -503L547 -544Q548 -553 557 -582Q569 -620 569 -641Q569 -666 556 -680Q558 -686 558 -695Q558 -711 548 -718Q561 -725 576 -732Q591 -739 598 -754Q624 -759 642 -772Q658 -757 685 -752Q685 -747 684 -743Q684 -723 701 -712Q706 -713 711 -718Q716 -724 720 -724Q720 -719 714 -708Q709 -698 709 -691V-686Q714 -656 720 -628Q712 -611 704 -595Q719 -561 740 -531Q761 -501 783 -472Q811 -434 827 -416Q838 -402 849 -387Q860 -373 877 -365Q886 -370 888 -396Q890 -423 899 -427Q900 -423 900 -413Q900 -399 899 -385Q899 -375 902 -368Q908 -389 908 -419Q907 -455 906 -491Q906 -510 907 -518V-522Q907 -532 913 -533Q918 -530 918 -526Q917 -520 916 -514V-499Q916 -466 920 -400Q921 -379 921 -361Q921 -343 929 -329Q933 -341 933 -369Q933 -406 941 -415Q946 -412 946 -407Q945 -399 944 -392V-386Q945 -372 945 -359Q944 -345 942 -332V-326Q942 -317 950 -299Q959 -279 960 -268V-251Q965 -224 969 -197Q969 -176 954 -161Q918 -153 904 -153Q876 -153 860 -173Q834 -207 821 -250L795 -295Q769 -327 748 -368Q720 -421 686 -464Q685 -473 679 -480Q672 -487 667 -494Q664 -500 661 -506Q659 -512 652 -512H651Q640 -512 631 -494Q605 -431 578 -379V-368Q572 -362 569 -352H570Q578 -356 586 -360Q591 -360 593 -355L624 -364Q624 -369 634 -377Q651 -386 671 -393Q690 -399 701 -415Q707 -409 712 -403Q717 -396 726 -394Q727 -384 735 -378Q743 -373 748 -367Q751 -362 755 -347Q760 -325 768 -319Q759 -310 759 -299Q759 -287 756 -276Q752 -264 716 -252Q689 -243 683 -235Q685 -231 685 -228Q684 -218 682 -208Q688 -211 703 -213Q722 -215 728 -218Q737 -222 746 -227H748L749 -223Q744 -212 739 -202H742Q748 -202 757 -208Q764 -213 769 -213Q773 -213 775 -212Q774 -207 768 -201Q761 -194 761 -188Q762 -185 762 -182Q762 -179 767 -179H769Q773 -179 774 -178Q770 -170 765 -162Q759 -155 759 -143V-136Q755 -130 750 -126Q745 -122 745 -114V-112H744Q738 -111 732 -110Q729 -110 728 -112H713Q708 -105 690 -100Q675 -96 670 -91L664 -59Q669 -56 672 -56Q676 -56 686 -58Q727 -61 778 -63Q829 -64 854 -85Q856 -102 867 -112Q869 -104 869 -101Q868 -90 867 -80Q867 -73 869 -70Q874 -62 888 -62Q905 -63 922 -65H925Q924 -59 909 -53Q895 -47 895 -40Q895 -35 898 -31L901 -30Q907 -31 913 -33Q916 -33 917 -31Q916 -27 908 -25Q903 -24 901 -22Q901 -9 902 -4L904 -3Q909 -4 913 -6Q916 -6 917 -4V-2Q917 1 908 10Q912 15 912 22Q912 29 904 43Q895 59 895 70V74Q875 77 854 80Q792 51 690 51Q668 51 657 52L580 58Q566 61 540 82Q506 109 487 109H482Q464 107 444 74Q410 66 405 47Q403 39 403 36Q404 18 417 3Q430 -13 439 -25Q438 -27 438 -33Q438 -41 441 -47Q450 -49 464 -64Q480 -80 490 -80Q493 -79 495 -79Q484 -66 484 -55Q484 -44 498 -41Q512 -46 555 -49Q586 -51 602 -55V-67Q576 -68 556 -86Q549 -92 525 -124Q515 -125 501 -131Q501 -134 507 -134H508Q513 -134 513 -136Q510 -140 500 -142Q486 -144 485 -151H492Q502 -150 511 -150Q516 -150 519 -151Q524 -152 535 -160Q545 -167 553 -169Q573 -170 590 -178Q587 -188 579 -193Q571 -197 563 -202Q560 -212 550 -226Q537 -245 535 -259Q512 -241 512 -196Q505 -192 501 -188Q497 -184 490 -184H488Q472 -186 456 -188Q449 -189 437 -204Q426 -217 423 -226Q420 -253 416 -280ZM416 -281Q416 -286 415 -292Q407 -284 398 -276Q399 -275 416 -281Z"/>
</svg>