<svg xmlns="http://www.w3.org/2000/svg" viewBox="0 -800 1024 1024">
	<path fill="#000000" d="M454 -279L453 -282Q448 -282 435 -277V-275Q435 -271 434 -268L435 -266Q439 -269 453 -271V-272Q454 -275 454 -279ZM453 -330Q452 -331 452 -336V-345Q427 -344 419 -319Q437 -321 453 -330ZM523 -308H520Q494 -308 494 -286V-284H496Q505 -287 514 -290Q514 -297 523 -308ZM562 -383Q537 -382 514 -371Q513 -361 512 -351V-348Q523 -350 534 -353Q541 -353 545 -349Q554 -366 562 -383ZM372 -624Q356 -620 338 -617Q320 -614 305 -600L304 -599V-598Q307 -595 316 -596Q328 -597 334 -593Q327 -587 313 -583Q293 -577 285 -569Q262 -552 245 -533Q217 -527 201 -543L198 -546Q184 -561 178 -580Q172 -599 164 -619Q152 -650 148 -671Q141 -717 139 -722Q151 -746 172 -774Q177 -780 184 -780Q191 -778 197 -776Q221 -771 231 -761L235 -757Q255 -726 275 -696L293 -678Q301 -670 303 -662Q324 -657 344 -652Q338 -649 328 -648Q318 -647 311 -640Q307 -635 306 -634Q316 -629 337 -630Q360 -631 372 -624ZM392 -608Q391 -605 389 -603Q379 -593 368 -603L367 -604L369 -606Q372 -609 381 -608Q389 -607 392 -608ZM606 -593Q635 -585 643 -585Q650 -578 657 -571Q662 -564 668 -557Q674 -551 675 -544V-540Q671 -526 667 -513Q664 -513 661 -514Q651 -514 640 -503Q632 -494 625 -494Q616 -486 579 -455Q587 -456 609 -468Q643 -486 657 -486Q665 -486 672 -483Q681 -488 686 -494Q688 -493 688 -486Q699 -494 710 -504Q709 -499 702 -489Q695 -478 694 -468H696Q699 -468 703 -474Q707 -480 709 -480H710Q705 -472 705 -464Q705 -452 711 -446Q714 -450 719 -452H721Q720 -448 720 -439Q720 -419 728 -409Q721 -395 721 -383V-379H718Q699 -378 689 -367Q679 -357 665 -350L649 -330Q626 -289 602 -249Q597 -236 592 -225Q586 -213 575 -208Q569 -214 562 -214Q557 -214 555 -208Q550 -210 544 -215Q540 -219 537 -219H533Q532 -223 526 -229Q520 -235 519 -241H511Q500 -241 495 -237Q494 -232 494 -221Q494 -203 498 -194Q528 -202 556 -202Q567 -202 571 -201L584 -203Q590 -213 611 -215Q636 -220 640 -223H650Q653 -225 657 -234Q661 -243 666 -246Q668 -224 681 -212Q694 -213 706 -214Q705 -212 696 -207Q690 -203 690 -197Q692 -194 693 -194Q696 -194 698 -195Q710 -186 709 -167Q708 -147 695 -140Q678 -136 673 -111Q640 -125 593 -125Q567 -125 515 -121Q513 -116 513 -105Q515 -79 517 -54Q517 -44 516 -41L517 -18Q526 2 526 19Q526 31 520 41Q519 43 512 47Q504 52 503 58Q481 54 458 50Q454 46 449 42L447 43Q437 37 433 25Q428 14 425 1Q420 -21 400 -26Q401 -29 404 -29Q411 -27 418 -25Q416 -35 396 -42Q378 -49 374 -55Q380 -54 395 -48Q413 -41 424 -41H427Q436 -52 436 -71Q437 -90 439 -107Q408 -107 385 -95Q375 -89 344 -65Q329 -69 324 -73Q316 -79 316 -93Q315 -95 302 -105Q308 -61 318 -19Q306 -2 300 18Q284 20 275 27Q265 35 266 51Q259 49 259 43V39Q241 38 220 15Q203 -3 191 -7Q190 -16 178 -26Q180 -33 182 -40Q175 -53 162 -58Q149 -62 136 -67Q136 -70 140 -70Q149 -70 158 -70Q165 -70 168 -74Q186 -100 181 -150Q177 -185 173 -221Q173 -231 173 -241Q169 -273 165 -305Q145 -327 121 -327Q122 -329 122 -332Q121 -340 116 -352Q111 -363 111 -369Q110 -381 119 -406Q128 -431 128 -442Q128 -445 131 -445Q133 -446 133 -449V-454Q128 -475 123 -496V-503Q129 -503 130 -497Q132 -492 133 -488Q139 -472 149 -464Q150 -466 150 -471Q146 -487 138 -504Q130 -527 127 -550Q136 -542 146 -518Q158 -490 168 -483Q170 -488 170 -496Q165 -519 157 -535Q169 -532 175 -513Q181 -494 196 -493Q200 -493 204 -495Q208 -494 216 -486Q224 -477 231 -478H232Q246 -468 260 -461Q268 -461 277 -370Q288 -274 295 -177Q296 -155 297 -143Q297 -140 297 -138Q309 -148 312 -154Q316 -175 331 -183Q347 -192 362 -201L363 -200Q359 -195 355 -187V-186Q356 -178 374 -178H377Q389 -178 411 -184Q429 -189 444 -189Q448 -200 448 -216V-221Q439 -220 427 -210Q412 -198 402 -198Q397 -198 389 -200Q380 -210 373 -221Q358 -265 345 -282Q340 -290 328 -295Q319 -299 315 -303Q305 -313 301 -324Q291 -344 291 -347Q291 -352 296 -361Q302 -372 307 -372V-374Q307 -380 317 -386Q322 -400 329 -412Q330 -404 331 -397H345Q370 -397 380 -386Q404 -397 418 -398Q404 -402 392 -405Q380 -408 372 -418H371Q367 -415 363 -413L361 -414L360 -417Q362 -420 364 -424Q360 -432 355 -440Q349 -468 363 -488Q365 -496 367 -502Q378 -504 378 -518Q382 -514 387 -514Q397 -514 401 -522Q432 -502 448 -477Q457 -466 465 -455Q468 -450 468 -439V-437Q463 -418 442 -406Q473 -415 494 -430Q500 -451 517 -477Q528 -494 532 -504Q535 -514 523 -520Q526 -525 529 -530Q525 -532 523 -532Q516 -532 507 -523Q509 -530 521 -540Q531 -548 533 -551V-553Q533 -556 532 -559V-560Q545 -570 557 -580Q511 -563 499 -540Q495 -540 485 -534Q476 -529 469 -529Q445 -529 425 -541Q399 -557 394 -588Q392 -596 398 -608Q404 -620 405 -631Q409 -660 429 -675Q450 -689 476 -704Q464 -688 460 -668Q460 -660 465 -654Q494 -666 524 -675L558 -678Q561 -695 578 -702Q595 -709 611 -714Q623 -720 647 -722Q665 -724 675 -727Q694 -731 720 -739Q747 -747 764 -748Q783 -750 802 -752Q811 -752 818 -749Q825 -746 835 -731Q844 -717 850 -717H854Q862 -717 874 -725Q888 -734 896 -735V-734Q895 -729 886 -720Q876 -711 875 -700Q875 -693 883 -686Q891 -692 898 -698Q905 -705 916 -707Q911 -698 904 -690Q898 -683 897 -673Q898 -670 898 -668L901 -667Q903 -667 905 -671Q908 -676 912 -676H914Q911 -668 911 -661Q911 -651 920 -630Q931 -604 931 -587V-582Q924 -575 904 -567Q874 -556 870 -539V-537L872 -536H876Q861 -526 857 -511Q852 -496 846 -473Q835 -429 834 -416Q833 -402 832 -389Q832 -377 824 -366L823 -261Q830 -254 830 -239Q828 -115 829 -75Q831 12 846 86Q835 106 830 124Q820 125 808 134Q798 142 790 142H788Q774 141 765 132Q755 123 744 113Q729 105 714 96Q694 78 663 75Q668 74 698 71Q682 61 633 59Q582 57 568 53Q579 52 601 52H623Q671 52 692 48Q685 42 659 41Q631 40 623 33Q631 31 635 31Q650 33 665 35H670Q703 35 709 -20Q711 -39 711 -70V-80Q713 -105 715 -130Q723 -251 726 -318Q729 -365 732 -412Q734 -422 735 -432Q732 -498 729 -564V-566Q731 -583 733 -601Q733 -611 729 -618Q668 -605 606 -593Z"/>
</svg>