<svg xmlns="http://www.w3.org/2000/svg" viewBox="0 -800 1024 1024">
	<path fill="#000000" d="M824 -690V-700Q831 -703 838 -707V-703Q838 -692 824 -690ZM502 51H493Q485 51 481 53Q481 49 480 45V42H484Q498 42 502 51ZM931 -474H932Q935 -469 935 -466Q932 -454 929 -443Q920 -443 920 -458Q920 -474 931 -474ZM668 -552Q640 -546 627 -541Q605 -532 596 -516Q621 -496 627 -493Q663 -539 668 -552ZM666 -317V-313L667 -311Q670 -314 681 -315Q688 -315 693 -318Q680 -332 665 -346Q651 -360 633 -369Q578 -311 560 -281L585 -291Q588 -311 604 -327Q620 -343 636 -343Q655 -343 665 -320ZM406 -73Q444 -92 481 -111L496 -81Q506 -91 551 -95Q591 -99 606 -106Q600 -108 597 -108Q585 -105 573 -103Q551 -118 538 -134Q541 -140 541 -145Q541 -153 535 -159H539Q547 -159 550 -165Q552 -170 555 -174Q585 -178 600 -182L599 -186V-189Q591 -185 581 -185Q562 -185 549 -202Q537 -218 535 -245Q527 -241 516 -230Q504 -218 503 -210Q498 -206 486 -205Q473 -203 469 -201Q457 -212 437 -215Q434 -240 430 -266Q427 -292 417 -311L419 -314Q424 -310 428 -307Q427 -316 417 -327Q407 -338 407 -349V-351Q415 -349 425 -334Q434 -320 443 -319H445Q456 -319 484 -341Q554 -397 573 -426Q568 -433 553 -442Q536 -452 531 -461Q513 -450 500 -433Q487 -417 472 -402Q471 -419 457 -427Q445 -433 424 -435Q421 -447 415 -450L412 -451Q407 -448 401 -445L397 -446Q406 -460 406 -472Q407 -486 406 -487Q405 -487 393 -486L394 -482Q382 -464 382 -450Q374 -451 366 -452Q358 -452 358 -446Q355 -447 349 -447Q336 -446 333 -436Q331 -425 305 -421Q259 -404 214 -385L203 -380Q182 -370 154 -358Q126 -345 115 -327Q101 -319 88 -323Q63 -334 58 -341Q49 -351 46 -382V-403Q46 -420 44 -428Q44 -432 43 -436Q43 -465 69 -480Q72 -488 89 -517Q92 -526 97 -536Q101 -546 113 -547L126 -574Q122 -577 122 -586Q122 -603 134 -603Q133 -605 133 -608Q134 -614 134 -620V-622L131 -623Q123 -620 115 -618H114Q119 -625 123 -647Q128 -673 133 -678Q145 -688 163 -696Q168 -700 178 -712Q187 -723 194 -727Q217 -727 226 -724Q242 -705 269 -686Q296 -666 299 -634Q299 -627 298 -621Q297 -615 281 -593Q258 -561 258 -549Q277 -553 291 -568Q304 -581 318 -586Q321 -598 321 -600Q327 -590 342 -590Q351 -590 358 -594Q366 -575 377 -575H381Q384 -553 402 -541Q392 -509 392 -505Q452 -578 478 -603L505 -639V-640Q510 -662 514 -684Q514 -700 496 -700Q491 -700 487 -697Q481 -693 475 -693Q481 -704 501 -721Q526 -741 532 -754Q544 -756 566 -772Q594 -792 610 -792H614Q653 -792 674 -754Q673 -751 673 -745Q673 -731 686 -712Q698 -694 698 -681V-680Q698 -664 672 -646Q650 -631 646 -619Q672 -628 698 -637Q723 -646 738 -665Q745 -666 759 -673Q773 -680 781 -680Q791 -680 797 -674Q804 -676 818 -684L819 -680Q818 -674 817 -668L818 -665H819Q825 -665 843 -671Q861 -677 871 -677Q875 -677 881 -675Q866 -668 850 -661Q833 -654 831 -638H833Q841 -641 848 -644Q850 -644 852 -642Q833 -618 833 -603Q833 -594 836 -585Q826 -572 822 -555Q780 -548 747 -514Q734 -501 696 -446Q699 -442 708 -438Q722 -432 722 -421V-420L764 -392Q775 -392 786 -382Q796 -373 803 -372Q802 -371 802 -367Q818 -359 842 -340Q860 -325 867 -321Q885 -331 890 -354Q894 -377 901 -396Q905 -392 905 -385Q901 -367 897 -340Q897 -334 899 -326Q907 -364 914 -402Q915 -417 916 -420Q918 -428 926 -429Q917 -352 917 -329V-314Q923 -327 927 -356Q933 -395 941 -407Q945 -403 945 -395Q945 -386 941 -372Q934 -337 934 -310Q934 -287 939 -276H940Q944 -276 945 -283Q946 -288 949 -288V-283Q949 -265 958 -234Q967 -203 967 -189V-183Q966 -176 959 -167Q953 -158 951 -151L919 -140Q912 -144 905 -144H893Q886 -144 883 -145Q869 -148 851 -169Q823 -202 822 -203Q802 -223 793 -229Q780 -238 759 -258Q735 -281 725 -288Q729 -272 729 -268Q729 -256 719 -249V-229Q707 -223 690 -220Q673 -218 667 -204Q671 -202 672 -202Q675 -202 683 -206Q692 -211 697 -211H699Q705 -202 716 -202Q721 -202 741 -206Q735 -197 728 -189L730 -186Q734 -188 738 -190Q740 -190 742 -188Q738 -180 731 -173Q725 -166 724 -157Q724 -151 726 -148Q724 -140 714 -137Q710 -136 694 -134Q668 -131 668 -114Q671 -113 678 -113Q704 -116 729 -120H732L757 -121Q758 -129 765 -132Q773 -135 781 -138Q796 -148 813 -151Q821 -137 829 -137Q844 -139 858 -142Q857 -139 852 -137Q846 -135 846 -132Q847 -124 861 -124Q871 -124 883 -128V-127Q883 -123 876 -117Q869 -111 868 -109Q869 -103 877 -102Q884 -102 890 -100Q880 -96 874 -68Q866 -35 850 -31H844Q809 -35 773 -39H770Q695 -39 670 -30Q669 -24 669 -12Q669 4 675 38Q678 57 681 75V79Q677 89 672 98Q672 100 674 104Q667 112 642 121Q628 126 619 132Q609 127 593 106Q579 88 564 84Q565 80 569 79Q573 77 576 76Q568 71 555 71Q542 70 534 69Q543 64 566 64Q558 55 540 55Q522 55 507 53Q517 48 544 45Q584 40 593 27Q599 -17 599 -19Q594 -20 583 -20Q531 -18 493 4Q487 8 478 18Q466 31 460 33Q457 34 453 34Q436 34 421 23Q417 16 413 9Q410 6 402 0Q393 -6 390 -12Q379 -1 371 3Q364 7 358 15Q351 22 342 25L333 33V34Q333 40 328 43Q323 46 315 51Q303 62 290 72Q267 89 252 89Q235 89 231 70Q217 70 209 60Q201 50 201 36Q201 2 211 -9Q208 -16 208 -25Q208 -53 243 -67L229 -72Q225 -97 220 -122H214Q183 -104 151 -87Q122 -74 103 -89Q97 -115 86 -127L93 -148Q89 -155 76 -167Q63 -178 59 -187Q76 -179 93 -172L94 -174Q91 -180 91 -181V-183Q97 -180 101 -180Q122 -182 170 -203Q202 -217 217 -221Q217 -244 210 -252Q198 -244 168 -236Q160 -232 142 -227Q138 -226 131 -229Q110 -252 78 -252Q78 -265 90 -272Q89 -275 89 -282Q89 -299 105 -310Q119 -320 140 -324Q157 -333 173 -343Q210 -354 269 -375Q304 -385 340 -401V-400Q341 -398 339 -398Q336 -398 335 -397L339 -396Q349 -399 358 -403H360Q351 -392 352 -383Q352 -378 357 -374Q365 -379 368 -379Q363 -375 363 -366Q364 -356 374 -344Q362 -328 365 -300Q361 -302 359 -301Q355 -301 354 -297Q352 -294 351 -291Q339 -287 325 -285Q312 -283 298 -282Q297 -263 295 -244Q297 -244 373 -276Q393 -286 409 -287Q402 -280 394 -269Q404 -271 413 -274Q406 -265 399 -256Q406 -221 395 -197Q382 -180 357 -173Q346 -171 326 -165Q304 -158 298 -152Q295 -141 291 -120Q287 -99 289 -70Q332 -94 383 -126Q393 -134 415 -144Q415 -141 404 -131Q394 -122 394 -121L395 -118L398 -117Q405 -124 416 -126Q404 -114 406 -73Z"/>
</svg>