<svg xmlns="http://www.w3.org/2000/svg" viewBox="0 -800 1024 1024">
	<path fill="#000000" d="M865 -418H874Q872 -406 870 -394Q863 -394 863 -403Q864 -410 865 -418ZM871 -736H867Q861 -736 854 -737Q850 -737 849 -736Q849 -749 866 -749Q874 -749 877 -747Q872 -740 871 -736ZM548 33V25Q548 3 544 -6Q516 -4 510 2Q526 10 531 14Q541 22 541 34V35H542Q545 34 548 33ZM585 -450V-472Q585 -480 584 -483H581Q561 -480 558 -453Q558 -446 560 -442Q569 -444 585 -450ZM636 -454H639Q665 -454 680 -490Q674 -495 663 -495Q653 -495 639 -491Q634 -473 634 -465Q634 -462 636 -454ZM573 -562H563Q490 -562 477 -532Q481 -534 486 -534Q494 -534 498 -532Q502 -545 518 -545Q535 -545 548 -534Q563 -541 579 -546Q576 -554 573 -562ZM387 -249V-252Q386 -274 378 -288Q369 -302 362 -316Q351 -287 339 -258Q347 -262 356 -265Q350 -256 348 -248Q348 -245 351 -241Q368 -246 387 -249ZM615 -135H619Q608 -160 575 -160Q527 -157 502 -124Q509 -123 515 -123Q528 -123 559 -129Q590 -135 615 -135ZM385 -339H387Q388 -356 418 -356Q416 -361 407 -369Q398 -377 397 -384V-388Q397 -419 452 -428Q453 -426 454 -424Q455 -421 458 -421Q478 -425 498 -430Q498 -442 490 -448Q468 -445 452 -435Q439 -444 425 -451Q397 -421 374 -342Q380 -340 385 -339ZM578 -253Q586 -265 586 -279Q586 -289 578 -310Q571 -327 570 -337Q569 -342 569 -350Q569 -364 575 -373Q579 -379 591 -390Q501 -390 460 -342Q462 -330 467 -328Q492 -338 516 -349Q523 -342 529 -336Q538 -339 547 -343Q552 -343 554 -340Q544 -338 544 -330Q546 -326 546 -319Q544 -305 541 -292Q539 -293 535 -293Q523 -290 513 -283Q511 -284 505 -284Q486 -282 469 -277Q467 -272 465 -268L466 -265Q515 -281 569 -289Q562 -285 555 -282Q548 -279 547 -271Q549 -264 551 -258Q551 -255 550 -253Q560 -254 569 -255Q572 -255 578 -253ZM491 -224H490Q470 -223 458 -218Q446 -213 427 -205Q399 -197 383 -190Q377 -186 367 -172Q354 -153 344 -152H340Q330 -152 313 -159Q298 -165 292 -166Q262 -116 257 -99Q263 -92 268 -82Q272 -73 283 -70Q280 -86 277 -102Q289 -84 305 -84Q319 -85 334 -95Q349 -105 362 -114Q398 -138 435 -162Q472 -187 498 -214Q496 -216 495 -219Q494 -224 491 -224ZM785 30V38Q805 40 824 41Q811 43 802 47Q804 49 808 50Q805 50 800 52Q795 53 794 59Q796 74 800 98Q786 112 761 112Q722 108 670 100Q636 97 598 97Q470 97 400 130Q398 129 366 121Q362 118 359 111Q355 102 350 100V84Q350 76 353 74Q352 72 347 70Q343 68 342 65Q350 46 371 39Q393 33 409 29L410 31Q410 33 400 36Q407 42 421 42Q448 39 474 36H481Q480 30 472 30Q464 29 457 29Q459 24 467 24Q472 11 476 6Q468 7 455 13Q441 20 429 20H427Q416 8 397 2Q395 -8 395 -11Q395 -27 408 -38Q411 -40 434 -54L437 -52L436 -48L437 -46H448Q491 -48 535 -54Q539 -59 542 -64Q521 -63 499 -52Q485 -59 469 -64Q452 -69 443 -82Q409 -60 378 -19Q366 -2 353 13Q340 29 323 30Q315 30 307 26Q301 23 292 13Q284 4 280 2L277 1Q273 3 268 5Q274 -2 274 -12Q274 -31 261 -42Q264 -49 264 -56Q264 -63 254 -93Q230 -63 199 9Q188 36 177 63Q165 89 145 107Q130 94 110 89Q107 89 101 91V89Q102 85 103 81Q92 64 80 49Q82 29 82 22Q82 4 74 -9Q92 -27 92 -66Q89 -114 85 -162Q85 -178 88 -195Q94 -127 107 -64Q112 -66 112 -77V-91Q113 -105 113 -119V-126Q117 -121 121 -103Q124 -92 127 -85Q187 -165 250 -284Q279 -338 357 -499H355Q345 -499 333 -488Q319 -475 306 -475H305Q282 -477 270 -491Q257 -505 240 -522Q231 -529 224 -534Q216 -539 216 -550Q217 -556 231 -592Q239 -617 246 -634Q258 -647 270 -661H276Q285 -661 289 -658Q328 -682 377 -697Q370 -689 361 -683Q353 -678 350 -667Q360 -665 383 -665Q403 -665 507 -676Q500 -722 480 -738Q469 -741 463 -748Q464 -753 467 -754Q470 -755 474 -756Q481 -765 492 -773Q504 -778 516 -783Q527 -789 539 -797Q551 -804 562 -805Q581 -801 599 -792Q616 -785 633 -778L632 -774Q633 -766 638 -761Q644 -755 646 -752Q643 -742 640 -732Q638 -726 630 -717Q620 -705 620 -698L621 -694Q635 -695 663 -701Q704 -710 722 -710Q731 -710 735 -709Q741 -720 757 -720Q763 -720 766 -717Q783 -723 800 -729V-727Q799 -722 797 -718Q819 -727 840 -736V-734Q840 -731 836 -725Q829 -715 829 -709Q829 -706 830 -704Q833 -696 843 -696Q846 -696 856 -698L858 -696Q858 -694 854 -691Q847 -685 847 -682Q847 -678 851 -678Q856 -679 860 -680L862 -679V-677Q860 -673 858 -670Q862 -665 862 -658Q861 -646 860 -635Q860 -627 862 -623Q857 -627 850 -627Q840 -627 834 -617Q829 -609 827 -595H822Q815 -595 785 -600Q772 -596 752 -594Q685 -592 665 -583L666 -580Q669 -581 671 -582L674 -580Q675 -573 675 -567V-563Q707 -566 738 -569Q761 -569 770 -559Q782 -562 786 -562L788 -561Q788 -559 785 -556H787Q791 -556 797 -561Q805 -567 808 -568Q799 -552 799 -544V-538L801 -537Q803 -540 809 -543H810Q817 -509 821 -479Q821 -469 818 -459H814Q771 -457 748 -436Q724 -414 702 -390Q694 -392 693 -392L689 -391Q682 -392 678 -397Q657 -395 636 -393Q644 -379 660 -379Q669 -379 694 -386Q723 -394 740 -394Q749 -394 754 -393Q756 -388 763 -384Q767 -391 783 -391H790Q788 -388 782 -383Q775 -377 773 -373Q775 -368 777 -363Q778 -358 784 -356Q776 -349 774 -341Q774 -338 776 -334Q749 -321 704 -315Q680 -311 671 -308Q654 -301 653 -287H671Q746 -290 821 -293Q832 -327 837 -367Q839 -359 839 -344Q839 -323 843 -316Q845 -323 845 -340Q844 -370 842 -401Q842 -409 844 -425Q850 -410 852 -366Q854 -329 859 -313Q864 -322 864 -337Q863 -354 862 -371Q862 -377 864 -385Q874 -358 881 -328Q887 -305 911 -300Q931 -273 935 -236Q935 -226 932 -214Q917 -209 916 -208Q907 -203 905 -195Q895 -202 885 -202Q879 -202 878 -198Q821 -226 733 -226Q680 -226 633 -214L632 -212Q632 -211 635 -208Q641 -203 641 -199Q640 -197 639 -195Q682 -157 778 -117Q783 -129 787 -141Q790 -139 790 -132Q791 -124 793 -123Q797 -131 798 -155Q799 -184 805 -192Q809 -184 809 -167Q809 -158 808 -149Q808 -133 812 -124Q817 -129 819 -143Q821 -160 825 -163V-128Q825 -112 831 -105Q832 -105 835 -112Q836 -98 846 -74Q857 -47 857 -34Q857 -21 850 -10Q838 -6 826 -6Q799 -7 779 -23Q758 -39 740 -55Q701 -84 665 -105V-103Q665 -81 639 -76Q632 -74 591 -73Q591 -67 595 -65Q598 -63 600 -60Q615 -65 650 -68Q684 -71 693 -75Q693 -66 708 -66L709 -64Q708 -61 707 -59L708 -57Q708 -55 712 -55H719Q715 -54 715 -50Q718 -41 720 -33V-31L716 -32Q709 -29 705 -22Q700 -21 690 -21Q666 -22 642 -24Q625 -24 615 -17Q604 -8 604 13Q604 24 609 32Q621 21 626 5Q626 -1 616 -4Q635 -18 664 -18Q688 -18 699 -6H704Q710 -6 713 -7Q710 -4 708 -4Q710 -3 713 -3Q723 -6 733 -9H734Q732 -7 726 -5Q719 -2 717 2Q720 14 723 26Q715 26 701 33Q707 34 718 34Q755 32 784 27Z"/>
</svg>