<svg xmlns="http://www.w3.org/2000/svg" viewBox="0 -800 1024 1024">
	<path fill="#000000" d="M84 -402V-406Q84 -420 93 -420L97 -419Q94 -412 91 -405Q91 -404 93 -400Q91 -402 84 -402ZM922 -603Q917 -592 906 -589Q904 -593 904 -595Q904 -599 908 -603Q912 -607 916 -607Q919 -607 922 -603ZM880 -218Q871 -223 871 -238Q871 -244 874 -249Q882 -248 882 -237Q882 -230 880 -218ZM692 -459V-460Q651 -454 608 -438Q557 -419 555 -418Q525 -404 516 -387Q520 -385 528 -385Q550 -388 574 -396Q631 -407 639 -410Q672 -421 686 -444Q692 -452 692 -459ZM565 -191H575Q602 -191 611 -198Q624 -210 631 -230Q637 -249 645 -265Q641 -273 634 -273Q621 -269 608 -265Q627 -290 651 -298Q645 -310 630 -310H623Q541 -301 531 -268Q545 -254 548 -250Q557 -238 557 -227V-224Q553 -210 548 -197Q548 -194 550 -190Q558 -190 565 -191ZM221 -418H217Q203 -419 180 -436Q163 -448 153 -451Q140 -450 124 -439Q111 -430 102 -428Q106 -437 120 -451Q129 -460 134 -468Q129 -478 115 -488Q94 -484 78 -475Q62 -465 45 -456Q55 -470 73 -482Q90 -494 106 -505Q102 -508 96 -527Q91 -541 80 -541H79Q81 -543 87 -545Q96 -548 97 -553V-558Q97 -574 89 -580Q83 -585 67 -586Q71 -591 93 -596Q110 -600 112 -610V-613Q112 -617 107 -626Q103 -634 102 -640Q104 -639 111 -633Q120 -625 126 -625H129L132 -627Q132 -630 131 -634V-637Q134 -636 141 -636Q167 -639 193 -643Q201 -656 203 -673Q208 -669 209 -661Q209 -652 211 -645Q214 -640 226 -633Q238 -625 242 -617Q259 -631 266 -634Q256 -622 256 -608Q256 -596 264 -591Q274 -596 275 -596L279 -595Q275 -588 275 -576Q275 -548 291 -540Q285 -529 285 -516Q287 -492 289 -468Q289 -460 288 -456Q280 -456 279 -450Q278 -444 276 -438Q261 -432 248 -425Q236 -419 221 -418ZM786 -600V-598Q767 -594 748 -591L747 -590L745 -592V-593L744 -595Q688 -581 633 -570Q577 -559 534 -532Q524 -525 512 -514Q500 -504 486 -503Q481 -503 473 -510Q464 -517 458 -517H457Q454 -540 434 -555Q413 -570 405 -588Q404 -591 404 -598Q405 -613 412 -627Q419 -641 423 -652Q426 -680 439 -694Q465 -702 491 -711H501Q517 -711 586 -724Q624 -736 658 -741H660Q666 -740 671 -739Q682 -741 700 -749Q721 -759 730 -760Q738 -761 752 -761H759Q774 -761 787 -764Q786 -758 781 -754Q804 -759 827 -764Q827 -759 810 -750Q793 -741 793 -733V-732Q795 -720 811 -720Q815 -720 818 -721Q817 -717 811 -712Q803 -705 803 -698V-696Q803 -692 810 -692Q813 -692 815 -694Q813 -678 812 -656Q812 -634 805 -616Q799 -612 793 -609Q786 -606 786 -600ZM922 -58H923Q931 -40 959 -14Q957 -6 957 -2Q961 20 965 42Q964 81 923 104Q913 99 898 99Q879 99 871 107Q777 57 644 29Q533 5 374 -7Q369 -4 364 -1H321Q262 -1 229 8Q218 11 202 24Q182 40 168 41Q161 39 154 37L150 38Q145 29 127 18Q112 9 107 3Q101 -4 101 -24V-26Q101 -47 93 -52Q89 -55 80 -56Q68 -57 64 -64Q80 -65 96 -67V-68Q96 -71 91 -72Q87 -73 87 -75V-76Q89 -79 95 -79Q99 -79 103 -77Q108 -79 119 -90Q123 -89 127 -89Q131 -89 131 -92V-94Q139 -93 147 -93Q189 -93 226 -114Q254 -127 270 -140Q270 -144 260 -150Q250 -156 244 -160Q221 -177 207 -193Q189 -214 183 -238Q146 -221 126 -198Q119 -190 112 -183Q104 -175 92 -175Q85 -175 76 -178Q70 -196 48 -212Q30 -225 26 -237Q25 -240 25 -245Q25 -251 30 -263Q35 -276 36 -286V-288Q35 -296 33 -305V-307Q36 -318 47 -326Q58 -333 67 -340Q76 -350 84 -359Q92 -369 103 -372L104 -370Q104 -368 97 -362Q87 -353 87 -346Q110 -346 149 -365Q176 -378 192 -382Q207 -405 238 -406Q248 -416 266 -416Q293 -416 301 -399Q309 -403 313 -403H316L319 -401Q318 -397 316 -394V-393L318 -392Q321 -392 326 -398Q331 -404 333 -404L335 -403Q331 -396 331 -388Q331 -371 349 -355Q351 -313 358 -298Q349 -294 344 -286Q319 -282 305 -265Q292 -249 279 -232Q299 -213 324 -189Q349 -165 351 -134Q351 -118 343 -105Q330 -105 312 -94Q322 -93 342 -93H392Q391 -97 384 -101Q377 -106 376 -112V-115Q376 -127 383 -144Q391 -163 399 -163Q395 -171 391 -180L392 -183H395Q399 -183 404 -178Q409 -173 414 -172H419Q432 -173 445 -174H451Q449 -185 444 -199Q440 -213 439 -230Q439 -238 442 -249L444 -250Q445 -250 446 -247Q447 -244 450 -244H451Q457 -249 463 -255Q468 -260 479 -261Q467 -275 447 -284Q444 -305 434 -326Q423 -351 411 -359Q389 -368 368 -379Q352 -393 338 -422Q341 -429 341 -434Q341 -438 340 -442Q341 -445 341 -448Q343 -460 352 -475Q362 -491 362 -501Q362 -508 359 -517Q365 -516 369 -506Q373 -497 378 -496Q379 -498 379 -501Q375 -515 370 -529Q370 -532 373 -537Q374 -536 383 -520Q389 -509 399 -507V-508Q396 -516 392 -525Q399 -523 411 -514Q416 -516 423 -516Q434 -516 449 -502Q463 -489 473 -488H477Q488 -488 524 -500L565 -513Q612 -531 657 -544Q717 -558 719 -559Q730 -563 743 -570Q764 -581 774 -583Q779 -584 791 -584Q829 -584 839 -566Q848 -569 857 -573Q853 -565 853 -561Q853 -557 854 -556Q862 -559 874 -570Q888 -583 901 -585Q898 -577 885 -565Q870 -552 870 -540V-535H871Q873 -535 878 -540Q885 -547 891 -548Q879 -534 879 -521Q879 -510 889 -507Q886 -466 883 -425Q785 -399 742 -325Q747 -319 753 -315Q761 -319 772 -321H774L775 -319Q773 -314 771 -310Q778 -314 790 -316H792Q773 -294 773 -281Q773 -271 778 -265Q773 -261 769 -242Q766 -225 757 -221Q719 -221 712 -202Q720 -201 740 -201Q806 -201 812 -234Q813 -232 813 -228Q812 -218 811 -209Q811 -203 814 -199Q827 -201 840 -204Q847 -204 851 -202Q848 -199 842 -197Q837 -196 836 -190Q837 -187 845 -186Q850 -186 852 -184Q851 -174 846 -168Q855 -152 860 -135Q841 -104 841 -87Q841 -82 842 -80Q830 -78 824 -70Q783 -79 744 -88Q704 -96 658 -97H642Q610 -96 579 -95Q547 -94 518 -85Q739 -56 803 -46Q821 -43 839 -40Q851 -40 857 -45Q867 -52 867 -70Q866 -85 865 -100Q865 -113 870 -121Q874 -114 875 -94Q877 -70 879 -63Q878 -120 877 -177Q875 -191 875 -197Q875 -205 879 -209Q889 -136 897 -54Q903 -55 903 -62Q902 -69 901 -76Q896 -131 896 -150Q896 -166 897 -174Q904 -166 906 -142Q909 -92 919 -49L920 -51Q920 -53 920 -56Z"/>
</svg>