<svg xmlns="http://www.w3.org/2000/svg" viewBox="0 -800 1024 1024">
	<path fill="#000000" d="M185 -55Q172 -56 167 -70Q169 -71 172 -71Q185 -71 185 -55ZM938 16Q934 23 924 23Q912 23 909 14Q914 11 919 11Q930 11 938 16ZM604 -244H607Q615 -262 625 -278Q614 -277 603 -266Q592 -256 591 -245H594Q599 -244 604 -244ZM566 -251V-253Q563 -260 560 -268V-272Q561 -285 570 -294Q578 -304 586 -311Q564 -308 544 -300Q547 -269 549 -238Q553 -241 570 -243Q582 -244 588 -247Q584 -253 578 -253Q576 -253 566 -251ZM411 -262V-261Q413 -254 428 -238Q440 -225 443 -219Q473 -228 491 -229Q488 -277 487 -284Q480 -283 474 -280Q482 -269 482 -258Q482 -241 465 -229Q433 -241 421 -269Q411 -267 411 -262ZM628 41V45L588 59Q576 47 554 30Q532 14 530 -6V-9Q530 -19 545 -30Q560 -41 576 -41H581Q585 -40 594 -32Q601 -26 607 -24Q610 -26 614 -31Q620 -38 625 -40Q622 -34 619 -25L620 -24Q621 -29 624 -29L626 -28Q623 -16 623 -10Q623 0 631 0H632V4Q630 23 628 41ZM506 45V47Q497 61 496 67Q484 69 478 69Q443 69 422 39Q419 41 415 42H413Q415 37 417 32Q409 24 406 11Q404 -1 401 -13Q435 -25 453 -25Q470 -25 480 -19Q488 -22 493 -30Q493 -26 492 -23Q492 -12 498 7Q506 32 506 45ZM211 45V42Q211 22 192 19Q194 17 200 17H213Q219 10 225 3Q221 -8 207 -24Q195 -38 191 -46Q218 -29 228 -27Q225 -34 219 -35H225Q234 -35 252 -41Q267 -46 275 -46Q283 -46 286 -44Q324 -20 355 17Q367 40 376 59Q374 64 371 68L372 71Q353 88 330 99Q324 96 318 96Q311 97 304 97Q298 97 295 96Q282 89 271 82Q267 81 260 81Q247 81 237 88Q227 94 213 100Q224 87 235 74Q226 66 202 66Q180 66 163 71Q187 58 211 45ZM906 -728H905V-740Q908 -743 915 -743Q919 -743 921 -742Q917 -729 906 -728ZM866 80V81Q866 101 850 108Q837 114 822 109Q820 111 820 113V116Q768 95 735 54Q702 12 667 -27Q669 -29 671 -29Q674 -28 677 -28Q679 -28 681 -30V-32Q681 -36 684 -38Q688 -41 688 -45V-46Q697 -49 707 -49Q725 -49 756 -40Q782 -58 786 -60Q783 -50 780 -40Q784 -38 791 -38Q802 -38 824 -53Q849 -70 864 -70H865Q858 -63 842 -54Q825 -44 823 -29V-27Q828 -16 838 -15H843Q854 -15 877 -25Q907 -38 926 -38Q934 -38 938 -37Q932 -32 913 -29Q897 -26 891 -24Q857 -9 857 5Q857 12 862 17H903Q894 20 883 22Q873 23 866 29Q869 40 869 48V53Q871 60 878 60Q869 67 866 80ZM792 -346Q795 -335 795 -326Q793 -286 761 -271Q740 -248 724 -240Q709 -224 700 -203Q690 -181 679 -162Q657 -163 641 -172Q626 -180 608 -188Q605 -199 601 -205Q585 -207 574 -207Q555 -207 548 -199Q548 -194 554 -194Q564 -196 573 -199Q583 -193 592 -191Q596 -191 598 -192Q597 -190 597 -186Q600 -175 607 -169Q591 -151 589 -136Q575 -138 563 -138Q540 -138 539 -126Q547 -125 554 -125Q580 -125 635 -135Q690 -145 719 -145Q735 -145 743 -144Q747 -144 747 -141V-140L749 -138Q760 -142 773 -145Q768 -141 762 -138V-135Q762 -128 767 -123H770Q773 -123 774 -126V-124Q770 -118 766 -104Q766 -100 767 -97Q769 -94 771 -91V-90Q769 -82 767 -75Q767 -73 770 -70Q760 -62 745 -60H740Q741 -56 745 -55Q625 -64 588 -64Q573 -63 558 -63Q531 -60 503 -58H502Q453 -48 419 -45Q382 -41 361 -18Q335 -29 326 -36Q309 -50 309 -73V-78Q325 -103 357 -118L446 -135Q448 -139 453 -141Q449 -144 444 -148Q458 -179 478 -179Q482 -179 485 -178Q487 -180 487 -186Q487 -192 485 -196Q458 -196 455 -175Q429 -166 419 -151Q404 -152 389 -154Q363 -169 354 -190L333 -198Q298 -209 285 -216Q259 -230 259 -252Q260 -255 260 -259Q262 -271 280 -287Q295 -300 299 -310V-333Q306 -328 312 -324L330 -333H333Q332 -341 325 -346Q322 -348 309 -354Q333 -366 333 -398Q293 -371 223 -307Q157 -247 124 -223Q102 -238 84 -241Q76 -259 69 -265Q70 -270 70 -279Q70 -299 57 -307Q61 -308 64 -309H65Q53 -333 36 -352Q49 -351 61 -343Q73 -335 84 -328Q165 -362 249 -426Q216 -419 179 -401Q164 -394 146 -383Q128 -373 114 -372Q101 -374 95 -384Q89 -394 81 -404Q53 -407 40 -428V-438Q40 -464 53 -471Q50 -481 50 -488Q51 -503 59 -515Q68 -526 77 -538Q85 -550 91 -560Q98 -570 111 -574Q96 -561 96 -541Q96 -531 102 -524Q107 -526 117 -526Q129 -525 140 -525Q147 -525 151 -526L201 -525Q202 -534 210 -537Q218 -539 225 -540Q275 -545 312 -555Q312 -571 305 -590Q301 -589 291 -584Q280 -578 273 -578H272Q255 -584 237 -603Q235 -610 232 -617Q222 -630 204 -630Q196 -630 191 -628Q196 -633 212 -639Q209 -650 188 -650Q169 -650 155 -643Q162 -654 174 -660Q186 -666 197 -674H186Q176 -674 155 -668Q134 -662 123 -662Q182 -702 228 -722Q246 -731 257 -731Q265 -731 268 -729L287 -746Q288 -753 295 -757Q302 -761 309 -765Q323 -777 336 -790Q338 -796 339 -802Q351 -802 366 -809Q381 -816 389 -816H390Q407 -816 439 -803Q471 -790 481 -778Q491 -757 491 -731Q492 -724 501 -705Q509 -688 509 -679V-676Q508 -656 496 -649Q484 -643 465 -642Q431 -643 408 -626Q411 -618 421 -606Q435 -589 437 -577Q442 -579 472 -584Q474 -585 474 -589V-594L475 -598Q485 -591 500 -589L503 -588Q500 -583 496 -579Q501 -565 505 -549Q508 -534 520 -526Q505 -500 493 -474L441 -464Q443 -451 453 -450Q465 -448 475 -441Q480 -442 486 -450Q491 -456 493 -456H494Q488 -441 484 -428Q484 -424 487 -420L491 -418Q497 -420 502 -423H503L504 -421Q501 -413 494 -407Q496 -399 496 -395Q496 -376 471 -361Q465 -367 450 -367H443Q429 -378 417 -393Q415 -385 415 -381Q415 -368 423 -341Q422 -336 419 -334Q424 -333 434 -333H440Q450 -333 471 -339Q489 -344 500 -345Q542 -351 605 -376L603 -378Q598 -383 594 -390Q589 -397 581 -398Q582 -400 582 -405Q582 -413 570 -422Q559 -430 557 -437Q573 -431 580 -427Q572 -433 559 -440Q545 -447 538 -457Q547 -457 566 -445Q580 -436 587 -435Q585 -443 573 -453Q565 -460 562 -465Q579 -458 596 -451Q640 -476 659 -491Q681 -509 706 -545Q676 -535 646 -523Q617 -511 602 -484H598Q591 -483 584 -483H579Q571 -487 563 -494Q552 -496 542 -498Q532 -500 531 -510V-511Q526 -509 520 -508H518V-511Q518 -516 523 -520Q528 -524 528 -526Q521 -537 521 -546Q521 -558 540 -579Q548 -591 557 -604Q567 -618 582 -619H583L599 -655Q599 -658 598 -661Q598 -673 611 -689Q621 -701 623 -710Q622 -712 616 -712H604Q610 -720 619 -726V-727Q618 -729 616 -732V-733H614Q597 -733 579 -722Q582 -732 601 -746Q616 -757 623 -766Q632 -780 639 -789Q645 -798 663 -803Q696 -810 711 -810Q728 -807 730 -806Q742 -799 751 -776Q758 -757 761 -733Q738 -704 712 -676Q687 -649 668 -615Q677 -615 693 -620Q716 -627 726 -627Q735 -627 740 -625L777 -634Q784 -644 795 -646Q807 -649 817 -653Q835 -665 853 -674Q864 -685 869 -694Q871 -693 871 -689Q871 -684 872 -682Q876 -685 884 -700Q891 -712 900 -714Q891 -701 891 -685Q891 -668 903 -663Q927 -674 931 -674Q914 -663 914 -655Q914 -650 918 -646H920Q927 -647 933 -649Q929 -641 929 -637Q929 -633 934 -628Q944 -628 947 -631Q947 -627 946 -623Q947 -610 953 -597Q960 -585 964 -572Q959 -568 955 -562Q958 -557 961 -551Q956 -549 950 -548Q944 -548 943 -543V-541L946 -539L950 -540Q933 -531 912 -497Q893 -466 879 -458L876 -450Q874 -427 868 -410Q861 -392 859 -377Q844 -368 833 -357Q822 -345 802 -344Q798 -344 792 -346ZM769 -371L770 -372Q763 -386 753 -398V-401Q753 -412 739 -424Q744 -429 753 -429Q745 -436 736 -440Q740 -442 742 -442Q750 -441 757 -440Q760 -440 764 -442Q774 -464 806 -504Q829 -534 840 -574Q816 -573 802 -570Q781 -566 780 -555Q780 -549 784 -546Q788 -543 792 -540Q789 -536 785 -532Q783 -504 764 -492Q748 -481 741 -465H739L737 -468Q731 -454 714 -435Q696 -415 691 -404Q694 -403 709 -397Q744 -387 769 -371Z"/>
</svg>