<svg xmlns="http://www.w3.org/2000/svg" viewBox="0 -800 1024 1024">
	<path fill="#000000" d="M881 -545Q880 -538 874 -534Q868 -530 862 -530Q863 -545 874 -550Q876 -550 881 -545ZM926 -748Q923 -740 900 -740Q900 -745 905 -749Q910 -753 916 -753Q924 -753 926 -748ZM745 -73Q712 -67 683 -63Q655 -59 639 -35Q648 -20 659 -14Q699 -27 712 -34Q739 -48 745 -73ZM693 -292Q696 -312 709 -351Q719 -380 722 -397Q707 -390 692 -384Q680 -377 659 -340Q641 -309 641 -281Q667 -286 693 -292ZM877 10Q865 18 853 25Q843 34 829 41Q811 54 780 90Q756 118 739 132Q740 130 740 127Q740 121 734 116Q730 112 729 108H728Q724 111 719 114Q715 104 697 92Q675 78 672 62Q639 62 624 91Q587 86 569 70Q562 61 557 49Q540 18 504 10Q485 -3 485 -41Q485 -63 494 -84Q503 -106 517 -109Q516 -117 508 -129Q499 -143 498 -152V-156Q499 -167 500 -179Q500 -192 489 -196Q478 -183 475 -139Q472 -94 461 -82L463 -38Q467 -28 474 -16Q480 -4 481 10Q481 27 465 54Q448 82 436 82H433Q420 81 411 70Q401 59 394 49L396 47Q372 52 348 57Q343 58 337 58L333 59Q311 65 279 75Q247 86 233 100Q226 112 224 126Q203 130 187 141Q170 137 157 119Q148 107 138 84Q125 58 125 49Q125 37 132 22Q137 8 141 -7Q146 -38 156 -67L153 -97Q146 -99 142 -108Q141 -112 138 -126Q134 -151 119 -152V-154Q116 -167 113 -180V-184Q93 -170 80 -170Q68 -170 58 -181Q54 -189 49 -197Q39 -209 31 -220Q22 -232 21 -252V-259Q26 -274 30 -289Q31 -321 45 -340Q62 -351 79 -362Q87 -370 97 -380Q108 -390 124 -391H126Q102 -371 102 -358V-355Q103 -343 118 -343Q129 -344 139 -345Q142 -344 145 -344H160Q165 -352 177 -352Q188 -353 200 -355Q194 -408 177 -428Q170 -436 161 -443Q153 -449 152 -458Q152 -465 159 -473Q157 -479 148 -491Q138 -504 136 -514H138Q141 -514 151 -506Q160 -499 165 -497V-501Q163 -517 147 -528Q130 -539 122 -550Q133 -549 150 -536Q164 -525 172 -525Q176 -525 178 -526Q178 -531 169 -539Q158 -548 157 -554Q177 -546 195 -536Q213 -543 227 -553Q254 -543 280 -533Q281 -527 288 -516Q295 -505 295 -496V-494Q295 -484 289 -465Q281 -440 281 -428V-415Q281 -391 286 -376H288Q296 -377 304 -379Q312 -404 313 -407Q309 -414 309 -422Q310 -434 311 -447V-455Q307 -498 302 -542L298 -579V-581Q294 -601 280 -622Q274 -645 258 -661Q252 -664 244 -664Q236 -665 231 -673Q245 -674 259 -675Q273 -676 281 -685Q280 -686 280 -691Q273 -695 259 -695H251Q267 -707 287 -714Q299 -719 311 -726Q322 -734 336 -736Q341 -736 346 -737Q383 -737 407 -705Q426 -679 434 -635Q415 -603 415 -574Q416 -568 416 -562Q439 -569 458 -580Q465 -580 469 -572Q492 -584 514 -596Q513 -590 503 -581Q494 -573 494 -566Q494 -565 496 -559Q510 -567 533 -569Q522 -563 512 -556Q503 -549 502 -533V-529L503 -528Q509 -531 514 -534L517 -533Q517 -528 510 -518Q503 -507 502 -499V-475Q488 -465 468 -460Q448 -456 430 -449Q402 -441 397 -409Q441 -415 465 -422Q481 -428 498 -434Q514 -441 533 -442Q518 -429 518 -415Q518 -407 525 -401Q522 -398 522 -391Q524 -381 525 -372V-370Q525 -362 518 -347Q510 -329 510 -319V-315Q495 -311 480 -308Q488 -297 497 -287Q506 -277 510 -262H543Q555 -262 563 -266Q560 -278 560 -291Q560 -321 572 -338Q560 -357 542 -371Q539 -392 539 -398Q539 -411 544 -416Q540 -424 538 -434Q551 -428 564 -422Q587 -439 640 -448L664 -490Q660 -492 657 -492Q649 -492 638 -480Q629 -471 625 -469Q619 -473 613 -477L610 -475Q605 -484 590 -499Q569 -519 564 -533Q557 -551 551 -570Q546 -588 535 -605H539Q543 -605 544 -608Q544 -617 535 -630Q528 -640 528 -645V-646L531 -647Q535 -644 539 -642Q557 -651 569 -670Q600 -672 628 -682Q655 -693 687 -701Q690 -701 691 -704Q691 -707 694 -707H695L720 -714Q721 -719 728 -723Q735 -726 743 -730Q778 -744 793 -744Q811 -744 817 -731Q832 -736 846 -742V-740Q846 -738 841 -735Q834 -731 834 -727Q855 -734 882 -737H889Q856 -723 846 -707Q849 -702 853 -702Q855 -702 865 -704Q846 -687 846 -672Q846 -667 847 -664Q847 -662 851 -662H859Q856 -648 853 -634Q853 -628 858 -623Q849 -617 844 -602Q843 -600 838 -572Q808 -564 779 -556Q750 -547 730 -529Q735 -519 739 -499Q745 -500 755 -510Q763 -518 769 -520Q773 -522 781 -522Q794 -521 806 -520Q810 -520 820 -522Q829 -513 837 -513Q844 -513 850 -519Q847 -513 847 -508Q847 -498 855 -488Q863 -494 871 -500Q878 -507 889 -509Q884 -502 878 -496Q872 -491 871 -480V-476L872 -475Q873 -475 875 -479Q877 -484 880 -484H881Q876 -471 876 -455Q879 -425 882 -396Q882 -387 881 -382Q864 -369 847 -356L834 -344Q827 -327 819 -311Q832 -319 869 -322Q908 -325 920 -334Q924 -336 927 -343Q930 -350 935 -352Q936 -351 936 -347Q936 -341 935 -336Q935 -328 940 -326Q945 -330 952 -332H955Q954 -328 954 -320Q954 -307 961 -299H963Q967 -300 970 -301Q973 -277 973 -247Q973 -226 972 -215H971Q968 -215 964 -208Q959 -199 952 -199V-197Q953 -194 954 -191V-190Q933 -197 892 -197Q871 -196 850 -196L807 -190Q669 -174 572 -121Q574 -113 578 -109Q629 -121 691 -134Q754 -147 806 -164Q822 -172 835 -176H837Q852 -172 867 -169Q870 -169 872 -170Q883 -149 893 -128Q899 -131 905 -134H907L909 -133Q907 -128 905 -124L907 -121Q909 -120 912 -120Q917 -120 924 -127Q934 -137 942 -137H946Q925 -126 920 -101Q920 -91 930 -85Q927 -79 927 -72Q929 -59 930 -46V-41Q929 -28 915 -12Q904 1 902 7H898Q887 7 877 13ZM382 -102Q383 -105 383 -112L384 -233Q384 -252 383 -271V-276Q370 -281 359 -281Q323 -276 299 -267Q295 -264 271 -254Q235 -239 228 -231Q236 -185 243 -139Q241 -122 238 -107Q243 -111 251 -132Q257 -147 260 -152L263 -154L267 -192L266 -194Q266 -197 268 -201V-208Q268 -221 265 -227Q262 -229 258 -232Q282 -242 305 -252Q309 -251 310 -251Q336 -240 342 -233Q342 -230 343 -228Q344 -224 348 -222Q338 -189 328 -174Q337 -148 351 -129Q357 -134 357 -193Q360 -191 360 -137Q359 -131 358 -125Q358 -121 360 -119Q366 -139 368 -139Q371 -137 371 -126V-124Q375 -111 382 -102ZM382 -57Q378 -53 378 -52Q373 -47 365 -46H364Q348 -48 328 -75Q313 -95 305 -100Q301 -98 298 -91Q294 -84 292 -82Q291 -75 286 -70Q280 -64 279 -55Q273 -52 267 -49Q261 -46 259 -37V-39Q259 -52 252 -52H250Q244 -66 244 -75V-78Q241 -81 237 -84H238Q241 -83 244 -82L246 -83Q246 -91 235 -93V-90Q237 -46 237 -23Q239 -1 238 1Q253 -8 280 -11Q303 -14 325 -26Q341 -31 356 -37Q376 -49 382 -44Z"/>
</svg>