<svg xmlns="http://www.w3.org/2000/svg" viewBox="0 -800 1024 1024">
	<path fill="#000000" d="M214 -648V-651Q214 -666 227 -666H229Q227 -649 214 -648ZM846 -642H844Q845 -651 850 -653Q856 -656 860 -658Q863 -655 863 -652Q860 -642 846 -642ZM909 -208Q907 -192 900 -183Q896 -187 896 -195Q896 -209 905 -209ZM633 -352Q628 -357 625 -357Q617 -357 617 -339Q584 -332 544 -283Q519 -256 514 -249Q497 -228 493 -208Q508 -226 566 -278Q612 -319 633 -352ZM538 -162H542L544 -163Q538 -169 537 -177H539Q577 -179 592 -207Q607 -234 618 -261Q546 -207 470 -102Q486 -94 562 -86Q556 -97 550 -124Q544 -154 538 -162ZM929 -54H930Q934 -35 960 -17Q960 -14 959 -11Q963 5 966 20Q965 58 956 92Q950 106 936 116Q933 118 910 131Q875 122 800 89Q730 58 694 49Q649 37 603 26Q556 14 506 8Q451 1 395 -7Q345 -11 314 -11Q227 -11 180 9Q173 18 155 23Q150 16 145 8Q126 2 110 -12Q94 -26 81 -40H78Q71 -41 63 -42Q69 -48 81 -49Q80 -52 80 -57Q81 -74 90 -84Q100 -95 109 -105L140 -108Q152 -111 164 -117Q168 -117 172 -118Q188 -116 204 -115Q229 -116 276 -133Q254 -149 232 -166Q230 -177 221 -193Q210 -213 208 -226Q186 -218 174 -200Q162 -183 151 -166Q144 -163 137 -163Q125 -164 116 -170Q107 -177 96 -183Q77 -190 59 -194Q37 -198 32 -221V-225Q36 -246 40 -268Q37 -275 34 -282Q33 -285 33 -291Q33 -308 50 -331Q63 -349 66 -359Q68 -358 69 -352Q70 -344 72 -343L75 -342Q81 -347 86 -352L87 -351Q92 -346 99 -342Q154 -357 249 -403Q204 -424 164 -450H143V-458Q143 -464 142 -465Q125 -464 103 -450Q86 -439 77 -438Q79 -445 98 -458Q123 -475 123 -487V-491Q121 -502 103 -502H93Q93 -506 99 -509Q104 -511 105 -514V-518Q105 -526 100 -538Q94 -552 94 -559Q97 -569 99 -579Q98 -590 90 -597Q83 -604 78 -613Q85 -613 93 -608Q100 -604 103 -603Q112 -606 120 -612Q117 -620 114 -629H115Q117 -629 122 -624Q129 -617 135 -617Q136 -617 142 -619Q143 -628 144 -635Q146 -642 152 -645Q151 -642 151 -638Q151 -615 183 -609Q190 -613 198 -625Q207 -638 213 -642V-640Q211 -625 208 -611V-607Q210 -597 222 -584Q234 -572 243 -563Q280 -520 283 -516Q303 -487 306 -457Q303 -436 303 -424Q301 -423 284 -409Q296 -403 305 -403Q309 -403 315 -405Q317 -403 317 -398V-396Q317 -389 320 -388Q329 -391 337 -394Q335 -386 335 -384Q339 -362 353 -351Q357 -328 361 -305Q361 -292 355 -285Q346 -275 328 -260Q310 -244 308 -227V-224Q311 -216 326 -205Q342 -193 349 -186Q373 -158 373 -130Q373 -119 370 -109Q375 -106 382 -106H394Q402 -106 405 -105Q408 -112 409 -128Q410 -144 414 -152Q409 -166 394 -196Q377 -229 371 -250Q381 -240 397 -213Q418 -177 435 -166Q464 -179 481 -199Q472 -203 460 -205Q455 -220 444 -226V-231Q444 -241 436 -250Q429 -258 428 -264H429Q433 -264 436 -260Q439 -256 442 -256Q438 -265 426 -272Q415 -278 404 -285Q406 -286 410 -286Q427 -281 448 -276H450Q468 -279 485 -294Q501 -309 515 -324Q543 -351 571 -379Q567 -389 560 -389Q551 -389 531 -366Q500 -331 490 -307Q476 -302 462 -298Q442 -309 436 -314Q423 -326 422 -343Q420 -344 416 -344Q409 -343 402 -343H399Q401 -348 410 -351Q418 -354 420 -356Q414 -358 410 -358Q386 -353 362 -349Q423 -377 488 -431Q476 -427 456 -423Q436 -420 432 -402Q430 -402 427 -403Q422 -403 422 -398V-396H418Q411 -393 404 -391Q370 -399 361 -408Q360 -430 340 -454Q340 -459 339 -465Q339 -488 350 -502Q345 -514 345 -521Q345 -539 363 -551Q371 -556 395 -566Q398 -565 400 -560Q402 -554 404 -553H413Q442 -555 478 -562Q467 -580 441 -589Q431 -607 427 -611Q417 -622 404 -622Q399 -622 397 -621V-622Q398 -628 403 -630Q408 -631 411 -634Q403 -647 403 -666Q403 -691 422 -694Q421 -700 415 -710Q409 -720 408 -727Q422 -718 434 -707Q438 -710 438 -716V-720Q448 -715 456 -715Q467 -715 472 -723Q477 -712 499 -712H506Q523 -684 541 -660Q546 -661 552 -667Q560 -675 567 -675V-673Q567 -671 561 -664Q554 -655 553 -649V-648Q558 -632 562 -616Q561 -597 550 -582Q555 -579 560 -579Q573 -579 582 -586Q594 -593 606 -623Q617 -650 627 -657Q638 -682 653 -704Q668 -726 669 -757V-761H666Q660 -760 654 -760Q650 -760 647 -763Q653 -769 663 -772V-774Q663 -779 662 -784V-786Q671 -786 691 -798Q714 -811 727 -811H731Q741 -809 747 -802Q760 -797 770 -794Q780 -791 787 -781Q810 -746 818 -679Q810 -671 796 -664Q793 -663 773 -655Q744 -644 737 -619Q766 -630 796 -634Q789 -624 789 -622H790Q799 -622 817 -632Q831 -639 838 -640Q836 -633 825 -628Q811 -621 811 -611V-609Q815 -604 823 -604Q827 -604 839 -607V-605Q835 -597 831 -584Q831 -581 832 -579L835 -577Q839 -578 842 -580L844 -579L845 -577Q842 -572 838 -568Q843 -563 847 -555Q842 -552 842 -542Q842 -538 844 -534Q832 -526 832 -516H824Q820 -516 818 -514Q790 -502 721 -492Q656 -482 632 -475Q626 -467 620 -457Q645 -443 671 -429Q696 -416 704 -384Q717 -405 732 -426Q748 -446 750 -474Q767 -487 800 -487H812Q833 -478 844 -449Q851 -429 856 -390Q845 -385 844 -370H842Q772 -364 740 -315Q763 -280 805 -274Q822 -274 834 -284Q829 -276 829 -269Q829 -264 830 -261Q849 -262 871 -279Q890 -294 904 -296Q889 -283 873 -271Q858 -259 848 -241L850 -240Q854 -240 860 -245Q865 -249 866 -249H867Q867 -245 861 -239Q857 -235 856 -230V-227Q858 -220 859 -213Q857 -208 854 -204Q853 -201 853 -196Q857 -177 862 -163V-156Q862 -117 815 -99Q809 -102 805 -102Q800 -102 796 -100Q795 -101 768 -115Q751 -124 749 -138Q732 -148 720 -163Q708 -178 695 -192Q670 -134 645 -76Q689 -70 799 -51Q839 -44 845 -44Q851 -44 853 -45Q870 -53 874 -74Q877 -95 880 -120Q884 -114 885 -92Q886 -74 889 -67Q892 -87 892 -117Q892 -147 901 -166Q905 -149 905 -123Q905 -97 904 -71V-61Q907 -66 907 -80V-97Q907 -115 913 -120Q914 -80 924 -49Q926 -49 926 -51Q926 -54 929 -54Z"/>
</svg>