<svg xmlns="http://www.w3.org/2000/svg" viewBox="0 -800 1024 1024">
	<path fill="#000000" d="M838 -129H828Q784 -131 757 -155Q730 -180 703 -205Q683 -222 666 -239Q648 -257 628 -268Q624 -252 624 -225Q624 -195 629 -175Q636 -157 640 -129V-123Q639 -116 630 -107Q621 -97 621 -90Q622 -87 622 -85Q611 -81 589 -61Q551 -68 537 -100Q523 -131 509 -163Q514 -162 518 -161L521 -162Q519 -172 505 -182Q492 -191 489 -199Q512 -190 526 -187Q534 -218 536 -256Q538 -293 542 -331Q545 -346 548 -361V-374Q547 -407 545 -441Q545 -450 546 -454Q543 -454 540 -455Q529 -455 505 -442Q483 -430 470 -430Q463 -430 453 -435Q449 -443 444 -451Q433 -460 423 -466Q415 -480 415 -497Q415 -514 423 -532Q417 -541 417 -550Q417 -568 444 -595Q476 -597 501 -605Q526 -613 555 -623Q555 -647 543 -663Q534 -675 514 -688Q515 -693 515 -698Q515 -704 508 -705Q524 -719 542 -738Q560 -757 582 -765H585Q611 -763 631 -755Q661 -734 672 -697V-694Q669 -679 665 -665Q665 -659 668 -655Q706 -672 715 -675Q719 -674 719 -669Q719 -664 721 -663H725Q735 -662 745 -661V-659Q745 -639 773 -639H782Q780 -635 764 -627Q762 -621 762 -609Q763 -592 764 -576Q764 -566 761 -559Q758 -552 751 -545Q743 -538 741 -532Q737 -531 731 -531Q724 -531 717 -532Q712 -532 709 -531Q699 -530 683 -521Q672 -515 664 -513Q657 -512 650 -511Q631 -503 631 -457Q632 -441 632 -425Q632 -408 629 -396Q640 -408 658 -424Q676 -440 681 -462V-467Q681 -476 680 -485Q680 -494 684 -498Q706 -500 723 -508Q751 -522 762 -522H764Q773 -521 784 -508Q794 -495 805 -495H806V-493Q806 -487 816 -477Q815 -474 811 -471Q806 -468 806 -466Q812 -455 812 -445Q810 -424 803 -399Q730 -395 671 -343Q698 -328 725 -312Q751 -296 785 -288Q791 -290 791 -300Q791 -308 790 -316Q790 -323 792 -325Q800 -310 804 -294Q808 -302 808 -325V-329Q808 -355 813 -364Q816 -356 818 -329Q821 -301 826 -289V-294Q825 -311 824 -329Q824 -346 831 -353V-346Q834 -297 842 -252Q844 -254 845 -258Q846 -265 849 -265H850Q852 -252 862 -227Q873 -201 874 -180Q856 -154 838 -129ZM964 71V74Q960 93 943 102Q924 111 908 119Q904 120 897 120Q888 120 878 119H874Q759 85 708 72Q608 47 521 36Q384 18 313 18Q212 18 151 47Q137 43 128 42Q123 32 103 18Q86 6 80 -4Q78 -6 78 -8Q79 -12 80 -16V-19Q80 -21 74 -23Q70 -24 70 -26L71 -27Q77 -33 85 -37Q92 -41 96 -49Q107 -52 145 -57Q187 -63 209 -70Q268 -92 269 -93Q239 -99 217 -119Q199 -135 182 -165Q166 -157 154 -146Q141 -134 122 -133H117Q108 -135 101 -142Q93 -148 84 -154Q74 -158 65 -160Q56 -163 51 -171Q51 -187 57 -201Q46 -217 46 -229Q46 -254 87 -281H98Q146 -282 177 -296Q207 -310 243 -324Q266 -322 274 -313Q285 -318 293 -327Q297 -326 297 -322Q294 -313 290 -305V-303Q292 -300 293 -300Q298 -302 302 -304L304 -303Q301 -297 301 -292Q301 -280 316 -265Q314 -237 303 -218Q292 -199 284 -177Q296 -169 309 -161Q322 -154 330 -142Q333 -142 335 -143Q338 -143 340 -141Q347 -133 356 -124Q364 -115 366 -102Q364 -94 362 -86Q362 -84 364 -82Q362 -74 355 -71Q348 -68 343 -63Q519 -49 699 -39Q716 -38 771 -31Q795 -25 796 -25H798Q817 -27 823 -45Q830 -65 835 -80Q838 -76 839 -64Q840 -49 844 -46Q847 -53 847 -71Q847 -88 846 -106Q846 -114 848 -124Q858 -83 868 -42V-45Q865 -73 862 -101Q863 -106 863 -112Q870 -93 875 -72Q880 -52 891 -36L894 -35Q897 -36 900 -37H902Q913 -23 929 -6Q946 11 955 30Q964 50 964 71ZM136 -418V-420Q136 -430 147 -448Q155 -461 157 -468Q149 -488 132 -496Q119 -494 108 -489V-490Q109 -496 118 -503Q128 -511 136 -517Q129 -524 129 -536Q130 -541 130 -547Q130 -551 128 -559Q125 -571 105 -579Q86 -587 83 -597Q85 -598 89 -598Q95 -598 108 -590Q120 -583 127 -583H129Q136 -583 152 -596Q166 -608 173 -609Q175 -612 175 -621V-631Q175 -639 176 -642Q188 -618 200 -613Q205 -613 208 -619Q211 -625 215 -625Q214 -623 214 -618Q215 -608 223 -606Q231 -603 239 -600Q259 -630 265 -650H274L261 -601Q265 -598 269 -595Q279 -597 286 -601V-593Q286 -561 314 -540Q314 -530 319 -524Q324 -518 327 -512Q330 -489 333 -467Q333 -458 330 -451Q324 -437 307 -432Q291 -427 278 -418Q269 -421 245 -423Q222 -425 210 -430Q198 -438 187 -442Q184 -442 182 -441Q178 -447 170 -451Q158 -447 151 -437Q144 -427 136 -418ZM459 -149V-146Q454 -112 418 -109Q411 -109 400 -112Q383 -118 374 -133Q371 -138 360 -168Q356 -176 351 -184Q350 -187 350 -193Q350 -211 366 -238Q377 -257 379 -265Q383 -249 390 -246Q454 -294 524 -334H525L527 -331Q516 -318 503 -308Q490 -298 483 -281Q488 -282 498 -290Q509 -300 515 -301V-300Q515 -296 505 -284Q492 -268 492 -261Q492 -251 508 -247Q501 -243 493 -240Q499 -234 505 -228Q503 -219 500 -211Q497 -211 493 -212Q491 -212 489 -210Q486 -204 475 -194Q460 -181 458 -169V-166Q459 -157 459 -149ZM845 -604V-595Q840 -609 827 -615Q812 -622 798 -631Q784 -641 763 -670Q748 -691 736 -702Q747 -719 747 -747Q747 -758 746 -763Q751 -760 761 -760Q770 -760 782 -763Q787 -751 801 -751Q819 -751 829 -763Q829 -758 828 -753Q828 -740 835 -738Q848 -739 866 -750Q884 -762 897 -763Q885 -753 871 -744Q858 -736 856 -717Q862 -715 863 -715Q869 -715 877 -721Q886 -727 890 -727Q894 -727 896 -726Q889 -720 882 -716Q875 -711 874 -702Q876 -700 882 -700Q895 -703 908 -706Q908 -702 899 -697Q888 -690 887 -684Q893 -677 895 -660Q897 -642 903 -636Q900 -636 897 -637Q879 -637 872 -607Q863 -609 854 -612Q851 -612 847 -610Q845 -608 845 -604ZM366 -356Q367 -360 371 -364Q376 -368 376 -372Q370 -384 364 -396Q379 -403 381 -406Q381 -411 377 -418Q373 -426 373 -432Q377 -431 381 -425Q384 -420 388 -419Q394 -421 398 -426Q402 -431 407 -435Q441 -416 475 -397Q477 -397 479 -401Q481 -404 484 -404L487 -403Q485 -399 485 -392Q485 -377 498 -364Q491 -360 484 -339Q478 -321 467 -318Q463 -317 455 -317Q433 -317 406 -338Q383 -356 366 -356ZM127 -414H129Q128 -401 117 -390Q109 -391 109 -398Q111 -411 127 -414ZM933 -700V-697Q915 -697 915 -707V-709H936V-708Q935 -704 933 -700ZM850 -779V-777Q840 -775 838 -768Q834 -771 834 -776Q834 -781 837 -786H848Q849 -782 850 -779Z"/>
</svg>