<svg xmlns="http://www.w3.org/2000/svg" viewBox="0 -800 1024 1024">
	<path fill="#000000" d="M370 26V27Q370 33 365 36Q360 39 352 44Q328 65 327 66Q306 82 289 82Q272 82 268 63Q254 63 246 53Q238 43 238 30Q238 -5 248 -15Q245 -24 245 -31Q245 -68 266 -79V-88Q262 -108 257 -129H251Q220 -111 188 -94Q159 -81 140 -96Q134 -122 123 -134L130 -155Q126 -162 113 -174Q100 -185 96 -194Q113 -186 130 -179L131 -181Q128 -187 128 -188V-190Q134 -187 138 -187Q159 -189 207 -210Q239 -224 254 -228Q254 -251 247 -259Q235 -251 205 -243Q192 -238 179 -234Q172 -234 168 -236Q147 -259 115 -259Q115 -272 127 -279Q126 -283 126 -289Q126 -306 142 -317Q156 -327 177 -331Q201 -346 210 -350Q255 -363 306 -383Q341 -393 377 -409V-408Q375 -406 372 -405L376 -404Q386 -407 395 -410L397 -411Q388 -400 389 -391Q389 -385 394 -381Q402 -387 405 -387Q400 -383 400 -374Q401 -363 411 -351Q399 -335 402 -308Q399 -308 396 -309Q393 -308 388 -298Q387 -297 362 -292Q350 -290 336 -286Q334 -269 332 -252Q333 -252 410 -284Q438 -293 446 -294Q433 -281 431 -277Q441 -279 450 -281Q443 -272 436 -264Q443 -228 432 -204Q419 -187 394 -180Q383 -178 363 -172Q341 -165 335 -159Q332 -148 328 -127Q324 -106 326 -77Q377 -107 433 -132V-130Q433 -128 426 -119Q416 -106 416 -98L417 -94Q422 -94 426 -99Q430 -104 433 -104Q434 -104 438 -102Q428 -94 428 -82Q428 -76 435 -76H438Q432 -54 436 -24Q428 -16 427 -14Q426 -13 408 0Q396 11 379 19ZM961 -55L960 -54Q950 -52 945 -52Q940 -52 939 -53Q941 -61 953 -61Q957 -61 959 -60V-59Q960 -57 961 -55ZM898 -133V-131Q897 -125 895 -119H893Q889 -118 884 -118Q881 -118 879 -120Q879 -133 895 -133ZM732 -606L738 -600H739Q755 -597 767 -585Q767 -572 760 -558Q754 -546 754 -536Q754 -519 767 -510Q776 -510 781 -516Q785 -522 790 -527Q794 -525 795 -515Q796 -506 798 -504L846 -509Q844 -505 833 -502Q822 -498 820 -492Q843 -497 868 -500H871Q861 -493 847 -490Q833 -487 832 -475Q832 -470 833 -468H835Q842 -470 848 -472Q850 -472 852 -470Q837 -459 836 -456Q836 -453 837 -437V-432L839 -431H843L846 -430V-429Q846 -426 842 -423Q839 -421 838 -418Q839 -416 839 -413Q837 -406 834 -399Q834 -396 835 -394Q827 -391 825 -371Q793 -368 761 -365Q732 -359 719 -345Q720 -342 720 -339Q718 -332 715 -325Q714 -321 714 -310Q713 -302 709 -297Q705 -292 707 -291Q713 -294 718 -297Q735 -302 741 -302Q745 -303 754 -301H755Q758 -303 760 -305Q786 -308 817 -317Q847 -326 861 -329Q868 -334 874 -340V-344Q874 -355 880 -355L882 -354Q886 -329 915 -330L922 -331Q921 -329 908 -324L909 -320Q909 -314 910 -312L912 -311Q915 -311 917 -312L920 -311Q918 -306 915 -302Q917 -299 918 -294Q919 -289 924 -288Q918 -283 918 -274Q924 -248 929 -223V-218Q926 -216 920 -209Q912 -199 906 -197Q899 -194 889 -194Q868 -194 846 -195L802 -188Q781 -180 695 -153Q705 -145 705 -100Q700 -95 700 -88Q700 -84 703 -80Q692 -62 680 -45Q693 -47 713 -54Q733 -62 745 -63Q738 -79 738 -96Q738 -119 752 -129Q750 -133 750 -136V-154Q764 -151 778 -141Q792 -131 804 -125Q808 -112 815 -103Q819 -104 827 -109Q834 -114 841 -114H844Q840 -107 835 -100V-97Q843 -97 857 -107Q869 -116 874 -116L875 -113Q875 -108 864 -98Q853 -88 853 -82Q853 -77 859 -73L909 -100Q920 -109 936 -111Q942 -111 946 -110Q912 -100 886 -69Q880 -61 880 -54Q880 -44 889 -43Q891 -42 896 -42Q903 -42 911 -46Q920 -51 928 -51Q931 -50 933 -50Q929 -44 917 -39Q902 -32 900 -23Q899 -21 899 -17Q899 1 939 7Q937 10 929 10Q920 11 919 13Q918 31 916 49Q916 61 920 73H919Q914 71 909 68Q905 69 899 77Q895 82 891 85Q877 85 876 95Q869 96 857 96Q840 96 826 89Q818 82 811 73Q804 63 792 62Q788 24 765 -16L738 8Q719 22 663 38Q627 47 618 50Q593 59 590 76Q582 79 573 86Q561 96 552 97H548Q531 97 518 86Q516 84 496 63Q495 45 484 35Q474 25 463 15V14L465 12Q469 12 470 13Q469 7 462 5Q456 4 454 2Q480 1 498 -25Q516 -28 530 -41Q531 -42 552 -66Q578 -94 588 -120Q568 -120 555 -114L547 -107Q546 -100 538 -95Q531 -89 526 -83Q510 -73 492 -70Q485 -70 481 -71Q468 -75 454 -93Q441 -109 439 -121L441 -130Q441 -151 444 -170Q435 -181 433 -194Q433 -210 445 -222Q456 -235 466 -245Q474 -243 478 -244Q495 -245 544 -256Q597 -268 620 -271Q627 -277 634 -283Q633 -290 635 -302Q637 -318 634 -325Q617 -323 603 -320Q594 -317 576 -305Q555 -291 545 -291Q535 -291 528 -304Q511 -310 504 -315Q493 -322 491 -334Q493 -339 494 -345V-347Q493 -363 484 -370Q474 -377 465 -384Q467 -402 467 -411Q467 -434 460 -454H461Q465 -454 471 -445Q476 -437 480 -437H481L482 -439Q482 -443 476 -449H479Q487 -446 494 -444H497Q508 -444 531 -453Q551 -461 561 -461Q566 -461 569 -460Q572 -465 584 -465L619 -468V-470Q621 -482 637 -485Q635 -493 635 -507V-510Q635 -531 633 -539Q630 -552 618 -561Q575 -532 563 -514Q552 -525 542 -525Q534 -525 530 -518Q509 -537 499 -540H498Q494 -538 489 -533Q486 -535 485 -538Q483 -542 479 -543L475 -544Q465 -540 454 -536H452Q458 -551 466 -564Q451 -561 435 -559Q433 -559 431 -555Q427 -549 422 -549H421Q420 -547 420 -543Q422 -535 432 -534Q436 -514 425 -498L424 -473Q424 -467 420 -465Q416 -463 412 -462Q382 -453 352 -444Q261 -407 199 -374Q153 -350 143 -329Q131 -322 116 -327Q92 -338 86 -346Q78 -357 74 -389V-410Q74 -427 72 -435Q72 -439 71 -443Q71 -472 97 -487Q100 -495 117 -524Q120 -533 125 -543Q129 -553 141 -554L154 -581Q150 -584 150 -593Q150 -610 162 -610Q161 -612 161 -615Q162 -621 162 -627V-629L159 -630Q151 -627 143 -625H142Q157 -657 174 -685Q186 -695 204 -703Q209 -707 219 -719Q228 -730 235 -734Q258 -734 267 -731Q283 -712 304 -693Q325 -673 327 -641Q327 -634 326 -628Q325 -622 309 -600Q286 -568 286 -556Q344 -566 389 -603Q391 -594 393 -593L424 -613Q425 -605 415 -594Q403 -581 405 -570V-565Q407 -564 411 -564Q420 -567 429 -571H432Q439 -576 445 -582Q463 -596 520 -653Q536 -669 545 -669L594 -752Q605 -768 623 -775Q642 -783 658 -794Q701 -803 722 -803Q773 -803 782 -763Q785 -747 788 -732Q798 -710 803 -680V-677Q799 -650 795 -624Q765 -609 732 -606Z"/>
</svg>