<svg xmlns="http://www.w3.org/2000/svg" viewBox="0 -800 1024 1024">
	<path fill="#000000" d="M829 -751V-753Q829 -769 840 -769Q842 -769 846 -767Q845 -754 829 -751ZM926 -251Q923 -239 920 -228Q913 -233 913 -245Q913 -254 918 -257Q922 -254 926 -251ZM590 -305Q588 -311 588 -314Q589 -322 589 -330Q589 -335 588 -337Q573 -336 562 -326Q550 -316 550 -303Q550 -301 552 -293Q564 -303 590 -305ZM582 -200V-214Q582 -219 581 -220Q531 -210 531 -182V-178Q545 -179 557 -187Q569 -195 582 -200ZM584 -439H591Q595 -443 595 -452Q595 -468 582 -473Q569 -466 547 -458Q524 -450 522 -437Q522 -429 533 -421Q569 -439 584 -439ZM700 -26H699Q694 -25 689 -18Q686 -13 683 -13Q682 -15 682 -20Q682 -31 692 -39Q683 -56 671 -68V-75Q671 -97 646 -104Q652 -112 663 -115Q678 -124 689 -140Q699 -156 709 -172Q706 -182 693 -195Q678 -209 677 -217V-221Q677 -234 687 -247Q698 -260 709 -262H712Q724 -261 734 -255Q743 -248 752 -244Q769 -274 785 -304Q750 -293 723 -272Q712 -278 701 -283Q689 -288 687 -304Q671 -308 668 -322Q665 -338 665 -357Q653 -326 650 -287Q648 -248 646 -209Q645 -195 643 -181V-178Q648 -159 653 -140V-137Q652 -130 645 -119Q636 -105 635 -99V-90Q639 -53 643 -17V-14Q643 -5 633 13Q626 26 625 34Q615 36 612 36Q588 36 574 11Q561 -12 561 -47V-56Q564 -65 566 -75Q566 -78 564 -82Q461 -53 427 1Q401 -3 384 -23Q368 -42 366 -67V-72Q366 -108 398 -127Q416 -138 465 -149V-161Q465 -173 469 -175Q466 -191 463 -233Q460 -281 452 -307Q450 -316 435 -336Q419 -358 418 -368V-370Q420 -379 422 -389Q419 -404 415 -419V-421L418 -422Q422 -420 426 -418H427Q420 -431 413 -445Q418 -443 434 -431Q449 -448 481 -455Q455 -476 449 -524Q416 -492 394 -458Q368 -418 357 -374Q363 -364 380 -357Q402 -348 407 -344Q424 -330 437 -308Q452 -283 452 -261V-257Q451 -228 430 -206Q411 -199 382 -194Q373 -189 363 -184Q284 -152 268 -140Q243 -123 243 -78Q243 -43 256 -7Q234 31 233 56Q226 60 219 60Q207 58 194 55Q174 53 159 47Q148 36 141 24Q128 11 120 -1Q115 -18 110 -36Q104 -47 102 -56Q104 -69 114 -85Q124 -101 132 -115Q158 -168 188 -316Q194 -302 195 -293L196 -291Q198 -293 200 -296H201Q219 -287 231 -266Q236 -258 251 -224Q303 -253 319 -260Q311 -273 280 -289Q243 -309 236 -328Q232 -337 232 -350Q233 -371 242 -390Q251 -409 259 -426L260 -430Q248 -423 222 -412Q196 -401 181 -392Q169 -382 150 -364Q130 -346 113 -343H110Q89 -344 76 -362Q62 -379 53 -394Q41 -407 27 -421Q14 -436 13 -461V-464Q13 -491 39 -535Q34 -548 34 -556Q35 -575 52 -586Q69 -596 87 -607Q111 -625 132 -632L133 -630Q132 -627 130 -624Q142 -628 159 -640Q176 -651 185 -655Q166 -639 165 -638Q154 -627 150 -616Q150 -611 157 -608Q162 -606 163 -604Q187 -619 216 -624Q244 -630 272 -637Q296 -645 321 -659Q345 -673 372 -674Q385 -674 398 -668Q417 -674 435 -681Q421 -670 421 -662Q421 -658 424 -655L425 -654Q426 -654 428 -657Q429 -661 433 -661H435Q435 -642 440 -624Q445 -625 450 -627H452L453 -626Q450 -619 446 -612Q446 -608 449 -605Q469 -653 496 -673Q506 -673 529 -667Q548 -662 560 -662H563Q596 -666 632 -679Q683 -693 731 -710Q778 -728 822 -742Q820 -740 820 -736Q820 -730 826 -724Q839 -725 856 -735Q873 -745 884 -747Q873 -738 861 -731Q848 -724 844 -709L847 -708Q858 -710 868 -713H872Q870 -708 862 -703Q855 -698 854 -688Q854 -683 856 -679L858 -678Q862 -679 865 -681H866V-679Q866 -677 861 -672Q866 -662 870 -640Q875 -614 880 -605Q872 -581 872 -579Q872 -573 874 -569Q845 -554 778 -538Q697 -519 669 -496Q676 -483 684 -468Q691 -453 692 -436Q692 -433 690 -423Q783 -450 865 -481H868Q874 -481 878 -478Q888 -496 901 -496H903Q902 -489 900 -483Q900 -480 902 -478Q904 -480 910 -492Q917 -506 924 -511Q916 -497 916 -484Q916 -468 931 -436Q949 -398 949 -375Q949 -368 948 -364Q945 -355 942 -346Q942 -343 943 -341Q910 -332 890 -306Q871 -280 852 -251Q842 -236 830 -217Q818 -198 817 -180V-176Q818 -156 853 -124Q878 -104 903 -85Q906 -93 906 -111Q906 -135 911 -142Q913 -117 918 -96Q920 -112 920 -120Q918 -157 916 -194Q916 -207 917 -214Q927 -148 936 -82Q939 -89 939 -100Q938 -122 936 -145Q936 -161 942 -167Q946 -120 950 -74Q954 -28 970 7Q968 21 959 41Q950 62 948 71Q930 76 919 76Q880 74 859 41Q838 9 820 -24Q797 -59 782 -79Q767 -70 764 -49Q761 -28 754 -11Q748 -13 747 -13Q743 -12 738 -12Q735 -12 731 -13Q713 -21 700 -26Z"/>
</svg>