<svg xmlns="http://www.w3.org/2000/svg" viewBox="0 -800 1024 1024">
	<path fill="#000000" d="M376 -309H370Q358 -309 358 -300ZM880 -712Q879 -707 874 -702Q868 -697 867 -693Q865 -697 865 -702Q865 -714 874 -714Q876 -714 880 -712ZM959 -200Q952 -194 940 -191Q938 -193 938 -196Q938 -199 940 -203Q948 -204 956 -206Q957 -202 959 -200ZM355 -300L351 -301Q346 -299 341 -297Q335 -303 318 -308Q328 -296 331 -287Q347 -292 355 -300ZM259 -218H254Q232 -216 232 -199Q232 -190 239 -180Q248 -184 260 -186Q259 -196 259 -218ZM279 -400H283Q299 -403 314 -406Q317 -415 319 -425Q319 -429 317 -431Q276 -422 276 -409Q276 -404 279 -400ZM352 -209Q358 -221 364 -234Q360 -240 351 -240Q342 -240 334 -233Q325 -225 325 -216Q325 -210 328 -206Q338 -208 347 -210Q350 -210 352 -209ZM246 -98H253Q258 -110 259 -126Q256 -127 249 -127Q223 -127 223 -103V-98Q210 -98 210 -93V-92Q230 -98 246 -98ZM682 -287V-295Q682 -324 691 -353Q658 -349 646 -346Q621 -339 617 -323Q616 -320 616 -312Q616 -300 624 -268Q677 -285 682 -287ZM704 -454V-456Q707 -473 710 -491Q710 -500 704 -506Q713 -521 713 -526Q713 -532 709 -535Q676 -517 648 -496Q620 -474 618 -426V-424Q667 -441 695 -457Q700 -455 704 -454ZM602 -140H609Q634 -141 656 -146Q679 -151 700 -154Q696 -171 688 -185Q666 -182 644 -180Q635 -178 621 -171Q601 -162 592 -161H586Q548 -164 533 -202Q524 -203 518 -209Q522 -221 522 -236Q520 -266 512 -302Q490 -445 450 -479Q433 -475 417 -471Q400 -468 395 -452Q383 -384 379 -309Q404 -325 445 -337Q455 -321 469 -317Q481 -298 493 -280Q490 -275 490 -272Q494 -261 497 -255V-254Q491 -247 490 -245Q488 -241 487 -231Q453 -228 435 -201Q417 -174 400 -156Q382 -141 368 -141L364 -142Q361 -143 358 -147Q355 -151 352 -152L349 -153Q340 -150 331 -148Q326 -140 326 -132Q326 -124 330 -120Q367 -134 450 -149Q453 -149 456 -144Q458 -140 462 -140Q494 -161 524 -176Q501 -160 501 -143Q502 -140 502 -137L504 -136Q510 -139 515 -142H516Q527 -134 544 -134Q573 -137 602 -140ZM971 -137V-136Q969 -132 966 -119Q970 -110 975 -102Q968 -78 962 -52Q957 -26 943 -7Q899 -24 839 -29Q799 -31 775 -31Q724 -31 650 -27Q593 -24 570 -18Q530 -8 516 19Q465 19 450 -17Q431 -17 424 -39Q363 -38 327 -13V12Q327 40 340 46Q338 63 323 84Q306 108 288 108Q283 108 278 105Q271 100 263 90Q255 86 246 83Q237 80 233 72Q234 68 234 61Q231 43 227 24Q227 17 232 12Q151 14 111 60Q101 56 79 44Q53 29 35 25Q36 20 36 10Q35 -8 34 -27Q34 -47 44 -56Q59 -64 82 -73Q90 -77 103 -88Q119 -102 133 -105Q127 -100 121 -95Q114 -91 114 -80L116 -79Q122 -82 127 -86L129 -84Q128 -81 127 -78V-77Q148 -81 169 -81Q189 -81 207 -89Q161 -104 134 -146Q130 -145 123 -145Q98 -145 75 -180Q58 -197 53 -208V-214Q53 -227 64 -240Q69 -247 84 -260Q80 -275 75 -290Q75 -294 78 -299Q86 -286 94 -274Q100 -271 105 -271Q124 -275 142 -280H144Q158 -279 169 -271Q179 -262 191 -254Q206 -256 242 -265Q224 -273 223 -274Q214 -281 214 -294V-296Q197 -304 197 -346Q197 -374 192 -383Q173 -377 160 -365Q146 -352 130 -341Q119 -334 104 -334Q82 -334 66 -353Q58 -363 55 -375Q52 -388 47 -404Q37 -426 37 -435V-438Q40 -445 47 -452Q58 -473 63 -500Q69 -526 90 -536L92 -537Q88 -534 87 -531L88 -527Q93 -524 100 -524Q112 -525 123 -526H126Q130 -531 130 -542Q130 -550 129 -558Q129 -572 136 -578Q128 -600 127 -604Q131 -602 136 -594Q141 -586 147 -584Q147 -591 139 -605Q132 -618 132 -628Q132 -634 133 -637Q139 -626 145 -616Q150 -606 162 -602V-605Q162 -611 157 -618Q153 -625 152 -631L174 -614Q179 -614 183 -618Q187 -622 189 -622Q221 -621 244 -603Q256 -594 279 -564Q302 -572 324 -580Q323 -607 320 -633Q317 -660 303 -674V-676Q304 -679 305 -683V-685H301Q294 -685 283 -678Q273 -671 266 -670Q286 -725 328 -769Q353 -793 392 -797Q407 -797 417 -790Q435 -775 447 -748Q458 -722 468 -698Q454 -680 438 -662Q422 -644 421 -616V-610Q432 -612 457 -622Q486 -634 505 -634H508Q485 -629 485 -607L489 -606Q496 -607 502 -608H504Q490 -604 490 -586Q490 -570 499 -559Q505 -568 520 -568Q530 -568 550 -564Q645 -610 721 -656Q732 -663 743 -671Q754 -679 767 -682Q772 -683 781 -683Q809 -680 838 -674Q841 -675 848 -680Q856 -686 864 -686H866Q860 -682 857 -675Q857 -673 860 -670Q869 -680 879 -691Q889 -701 903 -707Q903 -700 893 -689Q881 -676 881 -668Q881 -664 882 -662Q885 -661 888 -667Q893 -676 898 -676H900Q893 -664 893 -651Q893 -640 900 -637Q905 -646 907 -649Q912 -654 919 -655Q910 -644 910 -633Q911 -619 919 -605Q927 -592 933 -581Q929 -577 929 -566Q929 -556 933 -553Q904 -527 900 -514V-512L902 -509H904Q858 -457 835 -359Q821 -299 807 -168Q821 -166 829 -166Q889 -171 927 -186V-185Q927 -183 922 -180Q917 -177 916 -174Q920 -168 927 -168Q942 -170 956 -172Q962 -172 965 -171Q948 -171 948 -153Q948 -136 964 -136Q968 -136 971 -137Z"/>
</svg>