<svg xmlns="http://www.w3.org/2000/svg" viewBox="0 -800 1024 1024">
	<path fill="#000000" d="M491 -35Q487 -33 484 -33Q475 -34 465 -36H463Q461 -43 459 -50Q461 -51 464 -51Q472 -50 479 -45Q485 -39 491 -35ZM738 -36Q741 -14 744 7Q746 28 755 43Q743 54 740 74Q737 93 732 110Q730 111 725 111Q716 110 706 109Q699 109 696 114Q692 106 673 98Q662 93 655 88Q644 77 634 65Q628 63 622 62Q616 61 613 54H622Q627 54 628 52Q625 42 615 41Q604 39 595 36Q577 29 559 22Q563 22 567 21Q592 24 616 30Q584 16 536 -2Q539 -3 546 -3Q558 -3 582 6Q606 15 617 15H620Q600 7 568 -3Q522 -17 499 -29Q517 -27 549 -18Q586 -7 602 -7Q622 -7 641 -17Q644 -28 644 -53V-101Q648 -156 651 -211Q651 -228 650 -236Q651 -255 651 -274Q651 -291 648 -306Q646 -317 631 -337Q616 -356 614 -368Q630 -380 645 -394Q661 -409 679 -415Q696 -412 706 -401Q716 -390 727 -377Q735 -368 745 -359Q754 -349 755 -333Q755 -326 744 -300Q737 -283 734 -272Q724 -235 724 -194Q724 -168 727 -138ZM599 -219Q595 -198 592 -170Q587 -123 583 -107Q579 -107 575 -108Q570 -108 567 -104Q561 -106 548 -114Q545 -112 545 -108Q533 -116 514 -120Q512 -134 508 -148Q505 -161 492 -162H491Q496 -170 505 -171Q503 -236 484 -255Q486 -291 508 -341Q528 -344 540 -357Q551 -370 562 -381Q565 -380 565 -376Q565 -372 564 -368Q564 -364 567 -363H568Q571 -363 571 -367Q571 -372 573 -372H574Q590 -339 623 -306Q620 -296 617 -287V-285Q608 -284 606 -265Q604 -248 598 -246ZM900 -475Q900 -464 891 -464H890Q889 -474 887 -485Q887 -490 888 -492H889Q900 -492 900 -475ZM364 -408Q367 -408 370 -408H373Q404 -414 417 -421Q435 -431 451 -456Q466 -480 472 -494Q478 -508 496 -525L521 -590Q521 -602 533 -648Q538 -666 538 -678Q538 -691 531 -705L527 -706Q518 -702 509 -698Q516 -709 522 -720Q528 -723 533 -726Q536 -739 540 -752Q543 -756 552 -761Q563 -767 565 -774Q595 -784 613 -784Q629 -784 645 -776Q655 -766 657 -754Q659 -742 661 -729Q667 -713 677 -696Q687 -679 688 -657Q688 -649 687 -645Q684 -643 679 -636Q673 -627 666 -626Q669 -618 678 -609Q688 -599 690 -588Q700 -585 708 -571Q718 -555 725 -550Q727 -548 727 -539Q734 -533 745 -526Q755 -518 756 -510L847 -453Q851 -443 853 -429Q854 -415 863 -407Q871 -411 871 -421Q869 -433 867 -446Q863 -469 863 -500Q863 -519 864 -528Q869 -510 874 -480Q881 -435 888 -419Q891 -434 893 -450Q898 -436 902 -411Q907 -377 915 -362Q931 -341 941 -321Q956 -279 956 -253Q956 -227 940 -219Q926 -214 912 -209H909Q891 -213 872 -218Q869 -223 857 -228Q847 -232 844 -236Q834 -246 816 -278Q804 -300 795 -312Q753 -368 629 -527Q617 -539 605 -552Q593 -538 586 -521Q572 -505 564 -488Q560 -470 529 -420Q507 -384 500 -366Q492 -341 486 -315Q479 -289 465 -267Q455 -265 452 -265Q434 -266 423 -278Q411 -290 401 -302L398 -303Q394 -301 390 -299L388 -300Q390 -304 390 -307Q390 -314 377 -330Q381 -340 381 -346Q381 -353 379 -356Q382 -355 385 -355Q386 -355 389 -359Q382 -384 359 -394L358 -391Q350 -368 346 -346V-343Q349 -333 364 -320Q378 -307 387 -300Q409 -280 430 -261Q441 -249 446 -207Q451 -170 461 -157Q449 -138 443 -132Q433 -122 419 -122Q415 -122 411 -123Q395 -125 386 -125Q353 -125 326 -114Q295 -101 288 -78Q284 -63 284 -39Q285 -12 285 15Q285 42 282 53Q280 65 267 80Q257 93 246 98Q231 90 216 81Q209 77 200 65Q189 50 178 48Q178 22 158 14L157 12Q160 8 163 4L162 2Q158 -5 149 -5Q140 -5 133 -6Q167 -21 181 -48Q193 -80 205 -112L216 -151Q211 -157 211 -168Q214 -188 216 -208Q214 -220 211 -232Q211 -242 221 -259Q229 -273 229 -282V-286Q237 -256 262 -254Q265 -254 273 -256Q278 -247 283 -224Q288 -201 293 -192Q297 -194 343 -211Q327 -234 281 -255Q262 -295 262 -333Q262 -366 279 -387Q252 -384 235 -371Q218 -357 202 -343Q194 -327 188 -308Q181 -289 161 -285H156Q139 -285 124 -299Q110 -312 106 -331Q59 -357 57 -414Q57 -432 63 -450Q68 -459 73 -469Q75 -475 75 -490Q75 -507 79 -516Q89 -532 101 -547Q114 -572 127 -600Q140 -629 165 -642V-640Q162 -629 152 -621Q128 -589 128 -551V-544Q146 -581 164 -618Q181 -656 214 -676V-674Q211 -664 198 -652Q167 -609 152 -556Q159 -567 166 -580Q174 -593 183 -598Q175 -574 170 -551Q170 -547 172 -541Q220 -563 267 -586L282 -594Q284 -605 295 -612Q300 -615 316 -622Q319 -624 333 -645Q343 -659 355 -660Q383 -655 407 -639Q421 -623 427 -584Q434 -544 441 -523Q437 -513 412 -482Q376 -437 364 -408Z"/>
</svg>