<svg xmlns="http://www.w3.org/2000/svg" viewBox="0 -800 1024 1024">
	<path fill="#000000" d="M105 -305Q103 -306 99 -306Q94 -306 91 -305Q88 -320 63 -337Q34 -356 29 -368Q25 -377 25 -393Q25 -428 41 -438Q46 -445 47 -460Q48 -471 50 -478Q55 -490 69 -502Q83 -514 94 -526Q103 -536 112 -548Q121 -560 136 -561H140Q138 -553 125 -541Q107 -524 107 -512Q108 -509 108 -507H109Q114 -507 119 -516Q126 -529 135 -529H136Q134 -521 131 -514Q131 -507 139 -504Q145 -505 161 -510Q180 -516 190 -516Q198 -516 205 -512L253 -527Q263 -540 279 -542Q296 -545 314 -549Q338 -559 362 -569L374 -573L386 -578Q403 -588 411 -590Q414 -589 419 -589Q428 -589 440 -595Q451 -600 456 -601H459V-583L462 -582Q468 -582 474 -583H476Q475 -580 475 -573Q475 -563 484 -536L486 -535H493Q486 -529 486 -518Q486 -504 493 -494Q481 -485 481 -468Q481 -454 490 -448Q474 -443 470 -431Q450 -426 398 -403Q409 -381 413 -356Q413 -352 408 -350Q404 -348 404 -347Q403 -340 401 -334Q379 -316 374 -259Q372 -223 372 -203Q372 -146 383 -113Q385 -82 399 -26Q410 19 413 36Q400 49 389 65Q378 81 357 82H353Q332 77 314 58Q306 45 299 31Q292 27 285 22Q275 10 264 -2Q252 -11 240 -18Q227 -29 213 -41Q205 -46 198 -51Q190 -56 188 -65Q203 -61 222 -48Q245 -33 257 -30Q247 -46 226 -55Q182 -84 137 -113Q133 -115 127 -117Q121 -119 120 -125H122Q130 -125 152 -113Q200 -86 251 -62Q250 -69 240 -71Q228 -74 226 -86Q250 -81 273 -71Q298 -88 298 -152Q298 -184 297 -216Q300 -229 302 -242Q301 -276 300 -311Q300 -356 279 -356H277Q269 -356 231 -340Q207 -331 188 -320Q180 -314 170 -300Q159 -284 151 -281H146Q120 -281 120 -294V-297ZM638 -189Q640 -210 643 -215Q640 -220 639 -227Q639 -234 631 -235Q632 -237 632 -241Q632 -244 629 -253Q624 -252 617 -245Q611 -239 605 -238V-239Q606 -250 613 -259Q620 -267 625 -277Q630 -298 637 -314Q655 -340 693 -340Q723 -340 735 -322Q743 -303 742 -295Q741 -289 727 -272V-268Q727 -261 721 -247Q714 -231 714 -222Q704 -144 698 -73Q691 -2 669 68Q664 81 651 97Q636 115 626 116H624Q616 116 603 105Q590 94 584 94Q577 94 570 101Q572 96 572 87Q572 75 566 74Q560 72 549 70Q554 66 558 61Q553 49 552 37Q552 28 555 20Q550 6 512 -11Q478 -27 457 -30Q448 -33 450 -38Q484 -31 517 -25Q558 -8 587 -14Q619 -20 628 -53Q633 -121 638 -189ZM932 -610Q932 -593 919 -587Q918 -590 918 -597Q918 -611 927 -611Q930 -611 932 -610ZM845 102H842Q829 99 815 96Q804 77 778 51Q750 23 741 7Q728 0 714 -29Q717 -32 720 -36Q723 -39 723 -46Q741 -71 762 -71Q768 -71 771 -70Q780 -68 795 -55Q813 -39 822 -39H823Q833 -39 845 -52Q857 -65 867 -67V-65Q867 -61 860 -53Q855 -47 854 -43Q856 -34 866 -26H867Q873 -28 878 -31L881 -30Q883 -30 883 -26V-21Q883 -15 886 -14Q930 -24 973 -35Q967 -27 957 -24Q946 -21 935 -18Q911 -9 901 1Q904 15 919 15Q937 13 954 11Q958 11 966 13Q955 17 940 22Q925 27 924 41Q925 44 925 46Q929 57 939 57H942Q934 63 930 85Q927 103 923 108H921Q912 108 907 112Q902 116 895 120Q886 118 874 118Q863 117 861 107ZM500 -245Q495 -246 489 -248Q485 -258 483 -272Q478 -276 473 -290Q468 -306 460 -309Q450 -329 439 -350Q437 -377 448 -395Q446 -401 443 -407H444Q462 -407 482 -426Q499 -442 514 -442Q523 -442 528 -440Q531 -439 537 -435Q547 -428 553 -428H555Q565 -428 588 -441Q613 -455 625 -455Q623 -468 622 -481Q620 -495 613 -503Q600 -499 587 -485Q576 -480 561 -480Q521 -480 513 -520Q508 -526 499 -533Q491 -539 488 -549Q487 -552 487 -558Q488 -566 488 -575Q486 -597 474 -610Q466 -619 443 -632Q446 -635 451 -635Q465 -630 478 -626L482 -627L483 -630Q483 -633 478 -636Q473 -639 473 -643V-645Q487 -646 506 -656Q527 -667 544 -667H550Q572 -678 584 -678Q587 -677 590 -677Q626 -698 667 -707Q679 -717 694 -717Q701 -717 704 -714L738 -728Q740 -737 748 -739Q755 -741 763 -743Q775 -751 787 -759Q799 -764 812 -767Q824 -771 833 -779H834Q837 -778 839 -777H840Q837 -768 837 -767Q837 -766 839 -762H840Q842 -762 860 -771L861 -767Q859 -762 857 -757V-755Q884 -762 899 -771Q898 -767 889 -758Q874 -744 874 -734Q874 -730 878 -722L882 -721Q888 -723 894 -725H895Q886 -705 882 -680Q882 -669 890 -662Q883 -653 881 -617Q855 -593 786 -577Q732 -564 710 -552Q715 -543 720 -535Q709 -506 708 -494Q717 -495 738 -505Q758 -515 771 -517Q773 -522 774 -527Q800 -543 834 -548Q848 -548 860 -539Q865 -540 869 -544Q876 -551 883 -551L886 -550Q885 -547 884 -544Q892 -547 904 -563Q913 -575 917 -578Q915 -570 909 -559Q903 -548 902 -535Q902 -528 904 -524Q906 -527 910 -537Q915 -551 922 -554Q917 -541 917 -526Q917 -496 935 -492Q943 -460 956 -438Q949 -437 949 -428Q948 -420 947 -413Q929 -408 923 -403Q918 -398 913 -386Q905 -369 896 -365L884 -325Q887 -322 887 -317Q884 -304 881 -291Q869 -243 856 -202Q844 -161 839 -106H836Q833 -106 832 -103Q831 -98 830 -97H828Q823 -97 815 -90Q811 -86 806 -84Q776 -90 749 -103Q748 -110 740 -128Q729 -152 729 -168Q731 -175 732 -182Q736 -219 739 -256Q739 -279 754 -332Q770 -389 770 -410H766Q728 -399 689 -383Q638 -358 636 -357Q610 -341 602 -316Q600 -267 598 -192Q595 -117 602 -62Q597 -60 589 -49Q580 -37 571 -36Q566 -36 541 -56Q532 -63 524 -81Q515 -101 507 -104Q507 -107 509 -107Q512 -107 513 -111V-112Q513 -127 506 -157Q500 -182 500 -199Q500 -209 501 -215Z"/>
</svg>