<svg xmlns="http://www.w3.org/2000/svg" viewBox="0 -800 1024 1024">
	<path fill="#000000" d="M577 -333Q583 -356 587 -384Q580 -381 563 -369Q546 -356 546 -348Q546 -343 551 -326Q557 -328 577 -333ZM645 -204Q645 -205 643 -207L642 -208Q567 -201 513 -163Q513 -152 514 -148Q565 -156 616 -165Q637 -195 645 -204ZM654 -523Q655 -526 660 -530Q665 -534 665 -536L664 -539Q663 -542 658 -542H645Q546 -528 507 -497Q511 -496 522 -496Q540 -496 569 -507Q592 -516 602 -517H609Q623 -517 625 -512ZM297 -480V-466Q297 -456 296 -451Q279 -434 247 -434Q193 -439 149 -457H147Q144 -455 140 -453H139Q140 -455 140 -459Q140 -467 133 -468Q108 -463 75 -427Q81 -442 96 -456Q117 -479 120 -484L107 -507H102Q88 -507 56 -499Q76 -514 101 -523Q95 -536 93 -562Q92 -566 86 -572Q80 -578 80 -585Q86 -584 92 -579Q94 -580 99 -586Q104 -592 110 -594Q93 -619 68 -651L71 -652Q84 -644 95 -633Q105 -623 117 -612Q132 -612 137 -620Q135 -630 132 -641Q132 -644 133 -646Q139 -643 145 -632Q149 -624 152 -622H158Q176 -620 190 -612Q194 -615 197 -627Q201 -644 213 -645Q211 -635 211 -625Q211 -613 214 -604H215Q220 -604 223 -609Q226 -613 229 -613Q257 -590 267 -571H268Q272 -572 275 -574H277Q275 -570 275 -566V-564Q284 -550 300 -501Q297 -495 297 -480ZM721 50Q718 51 714 51Q696 48 676 41Q627 27 530 15H528Q522 16 516 16Q508 16 508 7V5H435Q426 8 416 8Q393 6 369 4Q364 5 358 5Q335 10 312 14Q289 16 265 18Q219 30 190 53Q147 48 109 15V13Q110 8 110 2Q110 -3 108 -6H106Q99 -5 92 -4H90Q102 -12 105 -24Q107 -36 111 -46Q129 -67 163 -72Q173 -70 182 -69Q202 -70 222 -72Q269 -77 320 -111Q232 -154 216 -202Q201 -198 187 -189Q178 -179 169 -162Q161 -146 148 -141Q145 -140 140 -140Q122 -141 109 -154Q96 -167 84 -174Q69 -180 58 -188Q47 -195 46 -220V-223Q46 -234 56 -256Q52 -264 52 -275Q52 -298 77 -327Q88 -340 117 -366V-364Q117 -359 111 -350Q101 -335 101 -327Q103 -324 105 -321Q129 -330 164 -339L187 -352Q210 -368 228 -387Q246 -406 277 -414Q293 -417 302 -426Q301 -423 301 -419Q301 -407 311 -393L313 -392Q314 -392 317 -395Q320 -399 324 -399H327Q326 -395 326 -388Q327 -372 335 -358Q344 -344 351 -333Q348 -325 348 -318Q348 -312 351 -306Q329 -279 318 -238Q325 -226 352 -207Q376 -191 385 -180Q404 -157 409 -110Q409 -78 397 -70Q428 -70 442 -69Q444 -68 533 -61Q586 -60 652 -51H699Q702 -51 728 -44Q773 -31 792 -31Q808 -31 821 -35Q826 -47 828 -77Q831 -115 836 -124Q837 -106 839 -88Q840 -70 847 -57Q852 -81 852 -124V-138Q852 -196 859 -219Q864 -175 864 -131Q864 -86 875 -51Q876 -54 876 -64Q874 -95 872 -126V-130Q873 -136 874 -142Q875 -148 881 -149Q883 -97 883 -93Q886 -61 897 -45Q899 -46 899 -50V-57Q909 -34 916 -16Q938 5 943 11Q957 28 956 45Q956 56 947 69Q937 83 937 92Q913 94 890 121Q850 105 813 93Q775 80 741 62ZM663 -684L665 -682L662 -679Q660 -669 660 -663Q629 -634 629 -604Q630 -599 630 -594Q659 -600 697 -604Q698 -605 703 -615Q735 -626 763 -638V-629H768Q777 -629 791 -639Q806 -650 820 -650H823Q822 -644 809 -637Q796 -631 796 -623V-620H797Q812 -623 826 -627L827 -624Q827 -620 821 -614Q815 -608 815 -604Q815 -602 817 -598L818 -596Q821 -597 823 -598H824Q820 -590 820 -579Q820 -566 832 -561V-555Q833 -538 834 -521Q834 -498 820 -490Q810 -486 793 -486H785Q776 -486 771 -485Q748 -483 730 -465Q713 -448 701 -434L707 -420L709 -419Q712 -419 715 -420L718 -418Q715 -412 712 -407V-401L713 -397Q698 -370 683 -343Q668 -316 663 -280Q651 -282 642 -282Q633 -282 624 -290Q589 -287 561 -282Q532 -276 527 -251Q547 -253 627 -269Q672 -276 701 -291V-297Q701 -301 703 -302Q707 -302 707 -298Q708 -295 709 -292Q721 -302 746 -302H749Q754 -304 765 -312Q777 -321 788 -323Q775 -305 773 -300L776 -299Q780 -299 782 -302Q784 -305 786 -305H788V-303Q788 -297 787 -292V-290L789 -289Q793 -290 796 -292L800 -291Q797 -283 797 -280Q797 -267 812 -254Q809 -249 809 -243Q809 -232 817 -222Q817 -197 813 -185Q806 -165 787 -162L763 -147Q747 -124 725 -101Q695 -64 689 -58Q665 -60 656 -71Q653 -71 651 -69Q647 -73 645 -81H644Q642 -80 639 -79H638Q637 -86 630 -93Q625 -92 622 -87Q618 -81 615 -81V-82Q618 -92 620 -103Q602 -102 583 -102Q565 -100 547 -99Q535 -98 515 -91Q496 -84 487 -84Q477 -84 469 -88H467Q465 -88 465 -86Q465 -83 463 -83H462Q424 -108 420 -155Q413 -169 401 -173Q413 -178 424 -183Q430 -205 433 -221Q439 -279 442 -324Q440 -340 430 -351Q430 -361 432 -365Q428 -371 405 -371Q363 -403 349 -422Q346 -426 331 -456Q316 -476 312 -506Q312 -510 314 -520Q319 -528 326 -534Q332 -541 333 -553Q338 -553 341 -548Q344 -543 348 -542H349Q352 -542 354 -546Q356 -550 358 -550Q372 -539 389 -539Q411 -541 434 -548Q474 -554 513 -563Q517 -567 519 -573Q515 -585 515 -600Q516 -618 516 -637Q516 -648 515 -653Q492 -682 448 -687Q449 -693 456 -694Q463 -695 469 -697L470 -700Q467 -702 463 -705Q468 -719 482 -722Q489 -730 505 -735Q521 -740 530 -746Q540 -754 550 -762Q558 -764 565 -767Q573 -774 583 -775H586Q592 -768 605 -758Q620 -746 625 -740Q644 -727 653 -716Q661 -711 666 -704Q666 -694 663 -684Z"/>
</svg>