<svg xmlns="http://www.w3.org/2000/svg" viewBox="0 -800 1024 1024">
	<path fill="#000000" d="M616 -446V-451L615 -453H613L612 -449Q612 -446 616 -446ZM908 -87Q904 -75 899 -67Q894 -69 894 -76Q895 -87 903 -89Q904 -89 908 -87ZM873 -717H870Q863 -715 855 -713Q856 -719 859 -724Q863 -730 868 -730Q870 -730 874 -728L875 -725Q874 -721 873 -717ZM492 -481V-485Q492 -494 487 -501Q480 -501 472 -502Q431 -502 428 -470Q464 -472 492 -481ZM702 -503H705Q702 -526 686 -534Q617 -531 563 -513Q566 -511 566 -509Q565 -504 563 -499V-497H565Q580 -500 594 -503Q600 -503 602 -501H599Q593 -501 593 -495L595 -494Q600 -496 604 -498H606L607 -495Q606 -492 605 -489L606 -485Q611 -483 615 -479Q611 -477 611 -470Q611 -464 616 -462Q619 -503 662 -513Q661 -509 656 -505Q651 -501 650 -498Q654 -494 661 -494Q682 -498 702 -503ZM452 -281L443 -288Q453 -290 459 -290Q472 -323 472 -353Q472 -374 465 -392Q456 -392 433 -383Q412 -375 401 -375Q389 -375 381 -383L375 -372H376Q381 -370 382 -366Q390 -369 396 -369Q418 -369 430 -336H432Q437 -337 441 -338L444 -336Q436 -332 436 -322Q438 -307 440 -293Q440 -286 437 -280Q441 -278 445 -278Q451 -278 452 -281ZM667 -298V-297Q637 -305 615 -320L614 -322Q614 -323 619 -326Q612 -332 612 -340Q614 -353 616 -366Q616 -373 612 -378Q619 -378 620 -380Q622 -392 623 -404Q626 -401 628 -392Q631 -392 633 -393H634Q636 -388 637 -384Q653 -383 666 -363Q678 -345 678 -325V-320Q677 -315 672 -309Q667 -303 667 -298ZM897 -318V-314Q900 -318 908 -347V-340Q911 -309 913 -278Q913 -245 884 -240Q879 -239 873 -239Q866 -239 859 -240Q811 -242 787 -251Q749 -265 746 -300V-306Q749 -365 769 -404Q783 -423 801 -423Q816 -423 828 -412Q829 -409 829 -406Q829 -402 826 -381Q819 -381 810 -372Q811 -369 811 -367Q811 -359 802 -341Q795 -327 795 -320Q795 -313 801 -309Q815 -303 840 -303Q849 -303 855 -305Q874 -313 880 -332Q887 -352 893 -371Q894 -368 894 -365Q892 -345 889 -326Q889 -319 890 -315Q894 -322 896 -342Q898 -366 905 -372Q900 -346 897 -318ZM911 99H903Q855 102 807 105Q694 107 591 124Q591 121 587 119Q582 117 581 116Q571 122 558 122Q537 119 516 116Q488 110 465 96Q453 85 453 64Q453 52 456 37Q388 39 332 62Q310 75 290 84H286Q265 80 246 72Q232 69 223 67Q214 64 212 52V49Q212 44 216 36V35Q213 32 210 28V27Q213 12 223 8Q233 3 248 -1Q260 -7 270 -14Q279 -20 295 -21Q286 -17 278 -8Q283 -3 291 -3Q307 -5 322 -7Q336 -9 376 -11Q401 -13 425 -15Q438 -15 443 -13Q455 -17 477 -20Q478 -21 483 -33Q478 -35 468 -35Q455 -35 429 -26Q405 -18 393 -18Q380 -18 369 -26Q361 -32 360 -42Q354 -44 342 -53V-58Q342 -75 354 -76Q352 -80 344 -84Q336 -88 335 -93Q347 -89 358 -85Q360 -85 364 -87L365 -88Q364 -91 362 -94L363 -96Q395 -99 426 -100Q457 -101 486 -110Q485 -113 483 -117Q462 -114 440 -105Q428 -115 409 -115Q400 -115 393 -111Q389 -123 371 -123Q356 -123 345 -116Q346 -120 352 -122Q357 -124 358 -126Q355 -130 350 -130Q335 -125 320 -120Q322 -123 332 -128Q340 -132 344 -137Q321 -136 305 -129Q289 -122 272 -117Q304 -143 389 -174Q466 -202 496 -225Q495 -230 488 -230Q485 -230 477 -228Q506 -250 569 -250Q600 -250 615 -249Q630 -250 644 -252H647Q666 -251 685 -240Q693 -236 714 -219Q700 -211 696 -206V-201Q696 -195 698 -194Q682 -174 670 -165Q653 -153 632 -150Q614 -148 593 -148Q573 -147 557 -137Q569 -129 582 -122Q667 -140 751 -159Q733 -153 719 -149Q705 -145 690 -135Q694 -134 702 -134Q720 -135 737 -136Q746 -136 751 -135Q741 -132 729 -131Q718 -131 714 -122Q714 -115 723 -115Q730 -115 736 -116Q739 -116 745 -114Q735 -111 725 -107Q714 -102 713 -94L714 -90L712 -89Q710 -89 707 -90L705 -89Q697 -82 689 -74Q681 -65 667 -62Q631 -60 594 -53Q595 -46 595 -40Q595 -37 593 -33Q659 -47 730 -54Q739 -49 748 -44Q775 -53 807 -56Q794 -52 783 -49Q771 -46 764 -35Q766 -34 771 -34Q786 -36 801 -39Q795 -36 788 -33Q781 -30 779 -21Q781 -15 785 -15Q790 -16 795 -18L797 -17Q783 -6 769 4Q755 13 732 16Q727 17 716 17Q697 17 677 16H667Q634 20 600 24Q587 25 583 26Q574 28 572 36Q581 39 595 39Q596 39 635 36Q712 32 794 30Q830 28 848 14Q865 1 877 -30L878 -26Q876 -13 874 0Q874 6 877 9Q882 -7 884 -26Q887 -45 896 -57Q893 -33 890 -10Q890 9 900 16Q901 15 902 6Q904 -8 908 -11Q908 -7 907 -4Q907 11 920 24H922Q934 24 942 30Q949 36 955 43Q953 73 948 84Q924 87 911 99ZM718 -236H711Q703 -237 684 -247Q664 -257 653 -258V-259Q653 -272 631 -272H628Q631 -277 637 -277Q645 -276 652 -275Q655 -275 659 -277H661Q659 -278 656 -280Q685 -297 685 -355Q685 -382 678 -402Q669 -398 660 -398Q633 -398 612 -435Q597 -433 590 -416Q581 -420 570 -420Q539 -419 536 -386V-380Q540 -383 548 -383Q557 -383 560 -387Q561 -384 569 -381Q575 -378 578 -375Q584 -388 597 -392Q589 -380 586 -365Q586 -362 587 -360L589 -359Q592 -360 595 -362H596L590 -349Q600 -326 600 -312Q600 -306 596 -290H584Q580 -289 580 -283Q580 -279 581 -277Q561 -297 547 -297Q542 -297 540 -296V-300Q537 -314 529 -326Q525 -317 525 -302Q526 -286 526 -271V-264Q501 -248 480 -242Q466 -268 436 -274Q421 -274 415 -254Q401 -268 390 -268Q387 -268 381 -266Q380 -274 374 -278Q369 -282 363 -287V-290Q360 -314 352 -335Q319 -303 310 -248Q308 -248 308 -252Q286 -228 273 -196Q260 -164 246 -132Q220 -68 193 -5Q168 -10 157 -10Q134 -10 128 4V2Q128 -22 101 -24Q96 -44 91 -65Q85 -86 71 -98Q76 -97 81 -96H83Q83 -108 71 -129Q59 -150 59 -165Q60 -169 60 -173Q64 -168 72 -149Q82 -126 92 -117Q72 -165 51 -211Q61 -205 68 -194Q75 -183 82 -173Q85 -169 114 -134Q246 -301 328 -459Q325 -459 322 -460Q315 -460 296 -454Q277 -448 267 -448Q249 -448 239 -462Q235 -468 233 -479Q218 -483 207 -500Q195 -518 195 -537Q195 -556 209 -569V-578Q209 -599 218 -607L204 -622L207 -623Q215 -619 222 -616Q229 -618 234 -622Q231 -629 220 -639Q212 -646 209 -651Q228 -650 258 -638Q261 -639 268 -639Q300 -634 331 -629Q342 -628 363 -628Q436 -628 498 -648Q496 -688 452 -705Q452 -708 457 -709Q462 -711 462 -714Q458 -720 450 -721Q441 -722 434 -725Q451 -731 482 -759Q523 -797 551 -800Q556 -800 561 -801Q613 -801 641 -731Q624 -704 617 -666Q621 -664 630 -664Q651 -666 671 -672Q758 -690 844 -708V-707Q842 -703 840 -699L841 -696Q847 -693 854 -693Q862 -693 883 -700Q894 -704 903 -705Q893 -700 881 -696Q868 -692 864 -679Q868 -671 877 -671Q895 -675 912 -679Q904 -676 894 -672Q885 -668 884 -659Q884 -657 886 -651H887Q894 -653 900 -656H903Q902 -649 895 -643Q887 -636 887 -629V-626L889 -624Q892 -625 895 -626L897 -624Q882 -609 882 -598Q882 -594 884 -588Q878 -586 867 -575Q858 -567 850 -563Q840 -558 818 -558Q793 -558 784 -551Q785 -549 798 -536Q798 -533 794 -529Q789 -524 789 -519L790 -515Q805 -520 831 -524H832Q834 -524 835 -519Q835 -515 838 -515H841Q855 -517 868 -519H873Q866 -517 859 -515Q852 -513 850 -506Q853 -501 861 -501Q870 -502 878 -503Q884 -503 887 -500Q874 -497 862 -492Q860 -486 860 -484Q860 -472 873 -472H878Q869 -468 862 -457Q856 -448 850 -444Q842 -438 800 -431Q787 -428 773 -426Q758 -424 751 -418Q741 -410 741 -388Q742 -371 742 -355V-347Q735 -339 735 -323Q738 -292 741 -262Q741 -236 718 -236Z"/>
</svg>