<svg xmlns="http://www.w3.org/2000/svg" viewBox="0 -800 1024 1024">
	<path fill="#000000" d="M912 -355V-359Q913 -377 922 -380Q927 -380 929 -375Q925 -361 912 -355ZM299 -449Q287 -444 277 -437Q279 -432 286 -421Q293 -410 297 -410Q301 -410 301 -422Q301 -429 299 -449ZM206 -171Q220 -192 220 -212Q220 -220 218 -224Q200 -208 200 -189Q200 -180 206 -171ZM370 -274Q373 -287 373 -307Q373 -326 370 -337Q336 -321 336 -288Q336 -278 339 -268Q355 -271 370 -274ZM351 -80H348Q281 -80 216 -23Q220 -16 225 -13Q250 -32 284 -41Q318 -50 352 -62Q351 -63 351 -67Q352 -72 352 -77ZM364 -189V-194H361Q351 -194 338 -183Q326 -173 317 -173Q303 -173 294 -191Q286 -207 286 -224V-227Q286 -243 292 -264Q298 -284 298 -292H293Q282 -284 277 -259Q274 -243 272 -211Q272 -203 271 -196Q272 -174 273 -153Q273 -146 272 -139Q261 -129 250 -127H248Q241 -127 230 -140Q217 -155 206 -155H203V-139Q203 -113 210 -104Q227 -111 268 -130Q309 -150 339 -160Q344 -146 358 -145Q361 -167 364 -189ZM767 -151V-152Q680 -141 649 -110Q650 -79 658 -56Q688 -65 718 -70Q726 -70 733 -67Q739 -92 749 -115Q754 -125 760 -134Q766 -143 767 -151ZM617 77H614Q592 77 576 48Q555 10 546 4Q552 2 557 -4Q552 -53 511 -79V-84Q510 -120 480 -121H475Q463 -131 458 -159Q455 -173 452 -208V-217Q453 -245 463 -269Q473 -293 481 -311Q482 -308 482 -300Q481 -282 479 -265Q479 -254 484 -246Q497 -253 523 -277Q538 -290 551 -300Q539 -311 527 -322Q515 -333 510 -350H512Q518 -351 524 -352H526Q535 -378 575 -378Q591 -378 613 -374Q642 -403 655 -428Q639 -425 605 -405Q567 -382 552 -381H547Q535 -381 530 -387Q525 -393 517 -403Q507 -411 502 -418Q494 -436 492 -463Q492 -468 491 -474Q493 -508 511 -533Q529 -558 546 -585Q567 -624 578 -686Q572 -689 567 -689Q555 -689 534 -665Q537 -674 550 -692Q561 -708 566 -717Q574 -733 580 -748Q586 -763 597 -772Q620 -791 653 -791Q657 -791 697 -774Q708 -769 718 -749Q721 -742 733 -714Q749 -677 749 -668Q746 -656 733 -647Q720 -639 711 -631Q703 -617 695 -604Q679 -587 674 -563Q761 -587 834 -638Q860 -632 870 -632Q885 -632 893 -639Q901 -630 909 -622Q909 -610 915 -596Q921 -597 929 -601Q941 -607 950 -607H956Q947 -598 937 -589Q927 -580 921 -566L927 -554Q938 -559 948 -565Q948 -561 942 -559Q937 -558 936 -556Q923 -540 923 -505Q924 -498 924 -491Q855 -459 791 -421Q727 -383 695 -315L694 -311Q696 -305 697 -300Q689 -283 680 -269Q659 -268 645 -260Q630 -251 629 -236Q727 -253 745 -258Q810 -275 840 -306Q846 -300 854 -300Q859 -300 879 -305Q883 -309 890 -320Q900 -336 908 -340Q904 -332 904 -324Q907 -302 920 -284Q941 -296 951 -298L952 -297Q946 -289 940 -281Q936 -271 936 -264Q936 -259 938 -251Q946 -242 955 -239Q953 -231 953 -229Q957 -212 961 -199Q960 -191 952 -181Q945 -172 943 -167Q923 -167 911 -145L910 -143Q910 -141 915 -139Q876 -109 848 -45Q837 -20 807 74Q804 74 801 73Q787 73 779 85Q748 78 720 41Q685 41 661 49Q655 52 644 62Q629 76 617 77ZM459 -477V-476Q460 -468 473 -452Q486 -436 489 -428Q496 -407 496 -404Q495 -389 484 -375Q473 -361 464 -346Q462 -338 456 -311Q448 -245 440 -65Q440 -64 438 -58Q438 -52 437 -47Q437 -26 444 11Q450 42 450 51Q450 58 449 61Q447 67 437 73Q429 77 425 82Q369 67 348 16Q254 17 213 77Q193 72 171 69Q150 65 139 47Q136 39 135 31Q134 22 122 19Q128 -1 130 -4Q124 -25 117 -62Q108 -111 98 -136Q90 -158 68 -189Q44 -223 39 -239Q36 -246 36 -256Q36 -269 52 -317Q44 -340 40 -369Q40 -373 42 -383Q46 -368 50 -354Q54 -339 68 -335V-336Q65 -349 58 -364Q68 -363 72 -356Q76 -350 81 -346L83 -345Q90 -348 96 -352Q104 -349 111 -347H113Q128 -349 142 -352H145Q152 -350 161 -338Q166 -331 169 -329Q174 -331 178 -333Q180 -333 182 -331Q184 -334 205 -350Q220 -362 220 -372Q220 -381 210 -392H207Q203 -392 192 -386Q184 -382 178 -381Q175 -380 171 -380Q148 -380 126 -412Q103 -414 91 -433Q79 -451 79 -476Q79 -501 90 -521Q84 -535 74 -544Q64 -554 55 -565L58 -566Q63 -566 77 -554Q89 -544 92 -544H93Q97 -545 97 -549Q97 -559 81 -575Q71 -582 62 -589Q52 -596 49 -604Q57 -603 71 -593Q86 -583 93 -583Q99 -583 102 -585Q100 -590 92 -595Q81 -601 80 -607Q81 -607 90 -604Q112 -619 141 -625Q169 -631 197 -641Q250 -664 302 -688Q329 -699 355 -710Q381 -721 403 -740Q406 -734 409 -729Q416 -733 425 -740Q439 -751 447 -754L448 -752Q443 -744 437 -737Q435 -729 435 -724Q435 -714 440 -710L443 -708Q447 -711 451 -715L452 -713Q446 -702 446 -685Q446 -682 451 -682Q455 -682 455 -679Q454 -675 454 -669Q454 -643 474 -619Q466 -591 466 -570Q466 -554 471 -544Q438 -530 406 -515Q373 -500 346 -479Q347 -477 353 -475Q359 -473 360 -469V-465Q360 -459 359 -454L360 -450Q372 -458 389 -473Q405 -487 424 -489Q434 -489 444 -482Q449 -483 454 -489Q460 -497 466 -497V-496Q463 -489 459 -477Z"/>
</svg>