<svg xmlns="http://www.w3.org/2000/svg" viewBox="0 -800 1024 1024">
	<path fill="#000000" d="M686 -427Q687 -438 685 -447Q682 -444 679 -442L677 -443Q676 -445 676 -450Q678 -461 679 -472H674Q628 -472 608 -447Q609 -441 616 -435Q624 -429 625 -423Q626 -420 626 -413Q626 -402 625 -391Q625 -375 631 -367Q644 -371 663 -392Q681 -412 686 -427ZM703 -46Q695 -46 675 -39Q661 -34 653 -34Q641 -34 634 -45Q589 -25 574 24Q604 30 633 36Q668 16 703 -46ZM615 -238Q609 -240 604 -251Q600 -260 595 -263Q564 -258 544 -249Q525 -241 521 -239Q510 -232 510 -223V-219Q522 -217 528 -217Q550 -218 572 -226Q594 -233 615 -238ZM772 -307Q708 -305 676 -282Q678 -279 679 -268Q680 -253 685 -251Q710 -266 754 -274L753 -278Q753 -282 762 -293Q770 -303 772 -307ZM450 -116Q450 -111 448 -103Q440 -108 438 -121Q438 -129 447 -129H448Q450 -123 450 -116ZM140 -574Q136 -577 136 -586Q136 -603 148 -603Q147 -605 147 -608Q148 -614 148 -620V-622L145 -623Q137 -620 129 -618H128Q131 -623 136 -637Q141 -651 147 -658Q164 -678 187 -696Q192 -700 202 -712Q211 -723 218 -727Q241 -727 250 -724Q266 -705 293 -686Q320 -666 323 -634Q323 -627 322 -621Q321 -614 301 -592Q272 -560 272 -549Q295 -554 327 -570Q353 -583 362 -586Q365 -598 365 -600Q371 -590 386 -590Q395 -590 402 -594Q410 -575 421 -575H425Q428 -553 446 -541Q437 -514 448 -482Q436 -464 436 -450Q428 -451 420 -452Q412 -452 412 -446Q409 -447 403 -447Q388 -447 362 -435Q335 -422 319 -421Q273 -404 228 -385L217 -380Q176 -359 168 -355Q136 -337 129 -322Q117 -315 102 -320Q78 -331 72 -339Q64 -350 60 -382V-403Q60 -420 58 -428Q58 -432 57 -436Q57 -465 83 -480Q86 -488 103 -517Q106 -526 111 -536Q115 -546 127 -547ZM917 -483Q908 -474 902 -470Q900 -476 900 -478Q901 -491 910 -492Q916 -492 917 -483ZM873 -676V-666H870Q861 -664 852 -663V-667Q852 -679 864 -679Q870 -679 873 -676ZM424 -218Q422 -205 418 -197Q405 -180 380 -173Q369 -171 349 -165Q327 -158 321 -152Q318 -141 314 -120Q310 -99 312 -70Q355 -94 392 -115Q406 -126 425 -133Q424 -130 415 -122Q405 -114 404 -110L405 -108L408 -107Q415 -113 426 -116Q413 -97 416 -65Q420 -34 419 -26Q397 1 374 12Q367 16 361 24Q354 31 345 34L336 42V43Q336 49 331 52Q326 55 318 60Q306 71 293 81Q285 87 271 87Q263 87 260 84Q256 81 254 70Q241 70 232 59Q224 49 224 36Q224 2 234 -9Q231 -16 231 -25Q231 -53 266 -67L252 -72Q248 -97 243 -122H237Q206 -104 174 -87Q145 -74 126 -89Q120 -116 109 -127L116 -148Q112 -155 99 -167Q86 -178 82 -187Q99 -179 116 -172L117 -174Q114 -180 114 -181V-183Q120 -180 124 -180Q145 -182 193 -203Q225 -217 240 -221Q240 -244 233 -252Q221 -244 191 -236Q183 -232 165 -227Q158 -227 154 -229Q133 -252 101 -252Q101 -265 113 -272Q112 -275 112 -282Q112 -299 128 -310Q142 -320 163 -324Q180 -333 196 -343Q233 -354 292 -375Q327 -385 363 -401V-400Q364 -398 362 -398Q359 -398 358 -397L362 -396Q372 -399 381 -403H383Q374 -392 375 -383Q375 -378 380 -374Q388 -379 391 -379Q386 -375 386 -366Q387 -356 397 -344Q385 -328 388 -300Q384 -302 382 -301Q378 -301 377 -297Q375 -294 374 -291Q362 -287 348 -285Q336 -283 322 -281Q320 -262 318 -244Q357 -260 396 -276L399 -278Q393 -304 393 -306Q397 -326 398 -328Q402 -339 414 -339Q414 -353 418 -357H419Q421 -357 423 -353Q426 -346 429 -346Q430 -348 430 -352Q427 -364 423 -377Q429 -375 436 -366Q443 -357 448 -355H453Q472 -353 485 -343Q533 -357 560 -361Q555 -385 538 -392V-395Q539 -403 540 -412Q540 -415 539 -418Q530 -424 517 -425Q507 -425 504 -427Q495 -433 495 -442Q494 -452 492 -462Q489 -471 479 -483Q466 -498 466 -515V-521Q471 -532 474 -547Q474 -553 468 -565Q464 -574 463 -579Q465 -582 466 -582Q470 -581 474 -580L476 -581Q475 -587 466 -597Q459 -605 458 -610Q468 -610 482 -601Q494 -593 500 -593Q520 -597 540 -602H542L560 -599Q565 -607 580 -613Q583 -614 605 -622Q599 -653 596 -660Q588 -679 570 -679Q564 -679 560 -678Q563 -686 566 -694Q561 -698 553 -698Q550 -698 542 -696Q549 -719 572 -740Q609 -784 648 -784Q654 -784 666 -782Q679 -779 685 -769Q691 -759 700 -747Q708 -738 715 -731Q722 -723 722 -710V-708Q722 -700 715 -682Q708 -664 708 -652Q708 -643 710 -638Q725 -647 759 -657Q789 -666 801 -671L802 -667Q801 -660 800 -653Q800 -646 806 -645Q815 -648 821 -652Q827 -657 836 -657H840Q826 -651 826 -636Q827 -633 827 -631Q829 -630 834 -630Q850 -632 865 -635Q870 -635 872 -634V-630Q862 -628 852 -627Q835 -621 835 -605Q835 -601 836 -599L840 -598Q843 -598 846 -599L849 -597Q831 -591 826 -568Q826 -559 833 -553Q832 -550 827 -549Q822 -548 821 -546Q815 -516 809 -510Q801 -512 797 -512Q790 -512 787 -509Q790 -502 799 -501Q812 -475 812 -452V-449Q810 -435 789 -417Q770 -401 768 -390Q795 -392 817 -395Q839 -398 851 -418Q872 -420 881 -435Q889 -450 898 -464Q895 -453 895 -439Q895 -408 913 -399Q918 -404 921 -411Q925 -418 932 -419Q934 -419 938 -417Q938 -413 932 -404Q925 -393 925 -386Q927 -375 934 -366H936Q940 -367 943 -369H944Q942 -367 942 -361V-357Q942 -353 941 -351Q945 -345 953 -343Q960 -341 963 -339Q948 -338 948 -317Q948 -304 953 -294Q946 -280 940 -261H937Q925 -261 909 -255Q894 -249 884 -249L882 -238Q870 -225 857 -214Q844 -202 839 -183Q832 -188 825 -194L822 -193Q818 -193 813 -194Q809 -194 809 -191Q806 -210 795 -217Q791 -216 791 -211Q793 -202 795 -194Q791 -191 786 -191H784V-180Q773 -171 733 -170Q685 -169 676 -153Q679 -145 682 -138Q688 -135 695 -135Q706 -135 728 -146Q750 -157 761 -157H762Q771 -157 775 -150Q779 -144 784 -138Q798 -126 806 -116Q803 -105 803 -95Q805 -77 806 -59Q806 -43 797 -33Q782 -19 762 -7Q739 13 722 44L716 54Q701 93 686 131Q680 129 676 129Q664 129 661 140Q650 136 641 124Q636 117 628 101Q612 68 595 60H609Q604 53 587 48Q573 44 568 39H572Q586 42 600 45Q604 45 606 44Q597 35 571 29Q556 41 548 50Q536 64 532 79Q529 78 524 78Q514 79 507 84Q500 90 494 95Q452 76 448 50V47Q449 41 449 35V32Q449 25 442 14Q435 3 435 -4Q437 -7 440 -9Q436 -30 430 -48Q424 -66 423 -91Q428 -84 435 -66Q442 -48 449 -40Q439 -77 429 -114Q447 -77 458 -51Q452 -87 450 -94Q458 -85 464 -71Q472 -51 482 -42Q494 -44 513 -59Q530 -72 540 -75L557 -85Q567 -105 584 -119Q600 -133 616 -147Q584 -140 566 -131Q556 -125 545 -115Q533 -106 524 -105H523Q509 -105 494 -121Q478 -138 478 -156Q479 -159 479 -163Q464 -174 449 -183Q438 -195 424 -218Z"/>
</svg>