<svg xmlns="http://www.w3.org/2000/svg" viewBox="0 -800 1024 1024">
	<path fill="#000000" d="M967 61V65Q966 73 958 84Q947 100 947 111Q947 115 948 118Q932 125 900 137Q822 109 742 81Q662 54 573 44Q479 17 347 17Q328 17 296 19Q254 21 236 26Q230 28 214 39Q194 53 182 53H179Q172 50 164 46L161 45Q158 46 155 46H154Q150 42 145 37Q126 32 114 20Q111 13 108 5Q105 0 98 -4Q91 -8 89 -11Q102 -13 112 -21Q122 -29 122 -40Q122 -45 119 -50Q152 -64 211 -64H252Q304 -64 333 -73Q325 -92 306 -102Q287 -111 267 -119Q257 -124 239 -141Q226 -153 218 -158Q198 -151 188 -134Q177 -112 157 -100Q153 -99 146 -99Q125 -100 112 -110Q98 -120 86 -130Q67 -146 64 -149Q54 -161 54 -178Q54 -186 55 -191Q57 -199 61 -202L55 -217V-222Q56 -243 69 -255Q81 -266 93 -280Q100 -288 105 -296Q111 -304 119 -305Q117 -297 117 -291Q117 -281 122 -276Q149 -283 188 -310Q231 -339 261 -346Q267 -338 275 -332Q282 -333 289 -339Q297 -346 302 -347L303 -345Q300 -339 293 -331Q292 -328 292 -322Q292 -301 317 -295V-289Q317 -279 322 -267Q327 -255 327 -249Q327 -245 326 -242Q325 -236 315 -222Q304 -207 304 -198V-195Q311 -180 329 -170Q353 -153 361 -152H365Q389 -156 416 -169Q473 -193 554 -245L551 -246Q535 -244 491 -218Q448 -193 412 -173Q408 -172 403 -172Q387 -172 372 -186Q360 -197 354 -199V-200Q356 -202 357 -205Q356 -207 349 -209Q343 -210 342 -214Q367 -215 432 -238Q385 -238 364 -283Q350 -283 343 -290Q403 -299 428 -317Q425 -319 418 -319Q403 -316 387 -313H384Q374 -314 363 -328Q352 -341 343 -343Q342 -347 342 -353Q342 -376 357 -392Q371 -407 389 -407H390Q389 -403 387 -400Q398 -402 409 -404Q413 -404 415 -403Q410 -409 387 -422Q397 -428 405 -430Q399 -445 382 -446Q396 -454 403 -455Q402 -464 395 -475Q389 -483 388 -488Q397 -487 401 -480Q406 -474 412 -469Q418 -472 423 -476Q423 -481 416 -493H418Q426 -488 434 -484Q437 -485 442 -485Q450 -485 471 -472Q482 -474 493 -476Q492 -474 489 -472Q484 -469 484 -466Q490 -457 499 -451Q507 -445 508 -430V-424Q546 -432 566 -443Q593 -458 603 -484Q581 -480 575 -475L574 -477Q574 -480 587 -493Q625 -526 650 -529Q655 -529 660 -530Q681 -530 699 -517Q707 -511 726 -490Q725 -472 702 -460Q685 -451 681 -443Q694 -443 718 -450Q742 -457 755 -458L758 -457Q755 -454 752 -452Q767 -455 792 -463Q792 -459 783 -454Q771 -447 770 -443Q774 -441 777 -441Q785 -442 792 -444Q795 -444 797 -443Q796 -438 792 -437Q787 -435 786 -430Q787 -427 790 -427Q795 -427 799 -428H800Q793 -426 793 -416Q794 -410 794 -404Q794 -395 786 -392Q791 -382 791 -379V-377Q777 -375 674 -366Q604 -360 575 -346Q577 -340 577 -334Q577 -330 575 -322Q567 -319 560 -315Q552 -312 548 -305Q590 -295 631 -283Q691 -329 696 -332Q695 -342 694 -353V-355Q705 -351 708 -350Q721 -356 746 -356Q758 -355 770 -355Q794 -355 807 -362Q805 -356 805 -347Q805 -334 816 -334H819Q824 -326 824 -319Q823 -306 812 -297Q801 -287 792 -278Q723 -271 674 -245Q674 -233 679 -223Q723 -188 760 -182Q764 -185 766 -198Q768 -213 775 -215Q777 -206 777 -196Q777 -186 782 -181Q783 -185 783 -194Q782 -213 781 -232Q781 -252 789 -259Q788 -250 788 -229V-217Q790 -180 803 -172V-174Q802 -190 800 -207Q800 -215 801 -218Q810 -189 820 -161Q823 -162 823 -169V-175Q832 -145 841 -116Q819 -89 784 -89Q751 -89 708 -115Q677 -134 649 -161Q614 -143 591 -114Q567 -85 542 -57Q526 -59 501 -75Q482 -87 468 -91Q466 -101 458 -108Q456 -110 443 -119L446 -121Q450 -120 454 -119H455V-122Q455 -127 452 -130Q440 -126 434 -117Q427 -108 419 -101H417Q411 -102 404 -104L400 -103V-102Q400 -98 406 -87Q413 -74 413 -65V-63Q504 -53 597 -47Q707 -39 798 -20Q813 -17 816 -17Q823 -17 829 -20Q846 -30 845 -54Q844 -77 850 -95Q857 -76 861 -52Q866 -56 866 -67Q864 -85 862 -103Q861 -121 860 -139Q860 -164 867 -172Q873 -106 885 -44Q892 -56 891 -74Q891 -92 893 -103Q901 -84 902 -60Q906 -41 915 -23Q917 -23 917 -27V-34Q921 -21 940 3Q967 37 967 61ZM845 -707H847Q839 -699 839 -691Q839 -683 846 -669Q855 -651 855 -643Q855 -636 850 -626Q813 -615 781 -605Q749 -595 724 -571Q724 -581 718 -583Q709 -581 700 -580Q697 -589 695 -592Q691 -598 683 -598L682 -601Q683 -605 684 -609V-611Q681 -614 675 -614Q665 -614 665 -608Q665 -615 677 -624Q687 -632 689 -637Q643 -636 604 -620V-619Q604 -618 609 -614Q614 -610 614 -607Q607 -600 607 -589H614Q641 -592 668 -596Q673 -589 682 -589H687V-586Q687 -583 690 -582Q693 -581 696 -580V-575Q696 -562 689 -545Q684 -545 679 -546Q659 -545 645 -538Q630 -530 613 -524Q600 -521 587 -518Q571 -519 563 -533Q555 -547 555 -567Q555 -595 567 -610Q565 -612 561 -612Q552 -609 542 -607V-603Q542 -593 554 -589Q545 -578 534 -558Q525 -540 518 -532Q512 -524 495 -515Q475 -504 468 -493Q465 -517 444 -521Q446 -529 447 -537Q447 -540 444 -545Q471 -574 487 -586Q484 -587 479 -587Q461 -586 452 -572Q444 -557 437 -540Q430 -513 412 -506Q410 -505 406 -505Q399 -505 384 -513Q375 -518 367 -520Q364 -520 360 -515Q356 -510 353 -510L351 -511Q355 -517 355 -521Q355 -527 349 -530Q337 -529 331 -521Q325 -513 320 -505Q320 -511 328 -522Q335 -532 336 -536Q335 -546 323 -552H322Q320 -552 319 -548Q318 -545 315 -545H314L312 -547Q316 -550 319 -558V-559Q313 -569 303 -572L301 -571Q300 -586 299 -602Q299 -619 305 -625Q299 -645 299 -647Q304 -640 311 -635Q313 -638 316 -638Q315 -646 307 -655Q300 -663 299 -668Q317 -661 333 -652Q342 -656 351 -659H354Q359 -662 364 -678Q369 -694 376 -697Q370 -683 370 -670Q370 -660 375 -652Q398 -647 402 -644Q508 -670 530 -677Q531 -681 531 -685Q530 -700 523 -707Q515 -715 508 -724V-728Q509 -735 510 -742Q510 -744 508 -748H497Q490 -748 487 -749Q494 -752 530 -779Q556 -798 581 -798Q591 -798 597 -797Q618 -767 634 -731Q629 -722 623 -698Q701 -711 779 -736Q789 -731 795 -731Q800 -731 804 -733Q802 -730 800 -727Q801 -724 805 -722Q810 -720 810 -718Q824 -724 837 -731Q828 -726 828 -710Q828 -701 832 -697Q836 -705 845 -707ZM266 -439H262Q248 -439 226 -428Q208 -419 198 -418H194Q187 -418 172 -424Q157 -430 149 -430Q141 -430 133 -426Q133 -432 137 -436Q130 -444 121 -455Q112 -465 98 -466H94Q87 -465 77 -456Q69 -449 62 -448Q71 -474 92 -475Q85 -504 73 -504Q68 -504 65 -502L64 -504Q64 -507 70 -510Q75 -513 76 -514Q77 -516 77 -521Q74 -539 70 -558V-561Q74 -571 78 -582Q78 -588 73 -592Q98 -583 110 -583Q126 -583 145 -594Q152 -575 168 -575Q179 -575 205 -586Q230 -597 239 -597Q215 -584 215 -568Q215 -560 224 -554Q250 -567 276 -580Q275 -578 259 -565Q246 -554 246 -542Q246 -540 248 -532Q254 -514 276 -514H279Q271 -512 271 -505Q273 -494 275 -483V-482Q275 -476 270 -466Q264 -454 264 -448Q264 -442 266 -439ZM559 -198Q524 -187 458 -135Q460 -134 466 -134Q482 -134 502 -145Q557 -174 559 -198ZM506 -272Q500 -275 494 -279Q459 -264 435 -239Q452 -246 473 -253Q493 -261 506 -272ZM270 -606L249 -603Q255 -619 266 -619H270Q271 -615 272 -611Q272 -610 270 -606ZM828 -464H815Q810 -464 804 -466Q806 -476 821 -476Q829 -476 829 -470Q829 -466 828 -464ZM903 -139V-137Q903 -131 898 -123Q895 -117 894 -112Q891 -115 891 -126Q891 -141 898 -141Q901 -141 903 -139Z"/>
</svg>