<svg xmlns="http://www.w3.org/2000/svg" viewBox="0 -800 1024 1024">
	<path fill="#000000" d="M598 60Q597 69 588 74Q578 80 570 87Q563 97 555 106Q543 115 518 115H508Q492 105 487 88Q482 71 478 52Q473 35 462 23Q451 11 445 0Q457 3 464 11Q471 20 479 27Q483 24 483 21Q481 14 475 9Q467 0 458 -15Q450 -28 436 -42Q458 -30 472 -16Q486 -3 500 7L501 6Q499 3 497 0Q490 -9 483 -18Q487 -18 502 -4Q516 9 522 10H524Q534 10 572 -12Q602 -31 617 -51Q631 -72 643 -84Q646 -119 640 -150Q636 -171 636 -192Q636 -222 639 -229Q638 -237 640 -246Q640 -248 636 -248Q638 -251 636 -254Q636 -257 633 -266Q621 -258 609 -254Q617 -271 627 -289Q631 -312 636 -327Q649 -350 676 -355Q703 -361 719 -340Q725 -332 731 -324Q726 -304 715 -285Q716 -278 711 -265Q705 -248 706 -239Q701 -164 707 -116Q712 -68 710 -40Q671 0 628 33Q624 41 615 43H613ZM845 102H842Q829 99 815 96Q804 77 778 51Q750 23 741 7Q728 0 714 -29Q717 -32 720 -36Q723 -39 723 -46Q741 -71 762 -71Q768 -71 771 -70Q780 -68 795 -55Q813 -39 822 -39H823Q833 -39 845 -52Q857 -65 867 -67V-65Q867 -61 860 -53Q855 -47 854 -43Q856 -34 866 -26H867Q873 -28 878 -31L881 -30Q883 -30 883 -26V-21Q883 -15 886 -14Q930 -24 973 -35Q967 -27 957 -24Q946 -21 935 -18Q911 -9 901 1Q904 15 919 15Q937 13 954 11Q958 11 966 13Q955 17 940 22Q925 27 924 41Q925 44 925 46Q929 57 939 57H942Q934 63 930 85Q927 103 923 108H921Q912 108 907 112Q902 116 895 120Q886 118 874 118Q863 117 861 107ZM883 -89L884 -86Q887 -81 887 -77L885 -76Q881 -73 876 -71L874 -70L873 -72Q872 -74 870 -77V-79Q873 -83 883 -89ZM932 -610Q932 -593 919 -587Q918 -590 918 -597Q918 -611 927 -611Q930 -611 932 -610ZM491 -434Q505 -442 514 -442Q523 -442 528 -440Q531 -439 537 -435Q547 -428 553 -428H555Q565 -428 588 -441Q613 -455 625 -455Q623 -468 622 -481Q620 -495 613 -503Q600 -499 587 -485Q576 -480 561 -480Q521 -480 513 -520Q508 -526 499 -533Q491 -539 488 -549Q487 -552 487 -558Q488 -566 488 -575Q486 -597 474 -610Q466 -619 443 -632Q446 -635 451 -635Q465 -630 478 -626L482 -627L483 -630Q483 -633 478 -636Q473 -639 473 -643V-645Q487 -646 506 -656Q527 -667 544 -667H550Q572 -678 584 -678Q587 -677 590 -677Q626 -699 666 -707Q678 -717 693 -717Q700 -717 703 -714L737 -728Q739 -737 747 -739Q755 -741 763 -743Q775 -751 787 -759Q799 -764 812 -767Q824 -771 833 -779H834Q837 -778 839 -777H840Q837 -768 837 -767Q837 -766 839 -762H840Q842 -762 860 -771L861 -767Q859 -762 857 -757V-755Q884 -762 899 -771Q898 -767 889 -758Q874 -744 874 -734Q874 -730 878 -722L882 -721Q888 -723 894 -725H895Q886 -705 882 -680Q882 -669 890 -662Q883 -653 881 -617Q855 -593 786 -577Q732 -564 710 -552Q715 -543 720 -535Q709 -506 708 -494Q717 -495 738 -505Q758 -515 771 -517Q773 -522 774 -527Q800 -543 834 -548Q848 -548 860 -539Q865 -540 869 -544Q876 -551 883 -551L886 -550Q885 -547 884 -544Q892 -547 904 -563Q913 -575 917 -578Q915 -570 909 -559Q903 -548 902 -535Q902 -528 904 -524Q906 -527 910 -537Q915 -551 922 -554Q917 -541 917 -526Q917 -496 935 -492Q943 -460 956 -438Q949 -437 949 -428Q948 -420 947 -413Q929 -408 923 -403Q918 -398 913 -386Q905 -369 896 -365L884 -325Q887 -322 887 -317Q884 -304 881 -291Q869 -243 856 -202Q844 -161 839 -106H836Q833 -106 832 -103Q831 -98 830 -97H828Q823 -97 815 -90Q811 -86 806 -84Q776 -90 749 -103Q748 -110 740 -128Q729 -152 729 -168Q731 -175 732 -182Q736 -219 739 -256Q739 -279 754 -332Q770 -389 770 -410H766Q728 -399 689 -383Q638 -358 636 -357Q610 -341 602 -316Q600 -267 598 -192Q595 -117 602 -62Q597 -60 589 -49Q580 -37 571 -36Q566 -36 541 -56Q532 -63 524 -81Q515 -101 507 -104Q507 -107 509 -107Q512 -107 513 -111V-112Q513 -127 506 -157Q500 -182 500 -199Q500 -209 501 -215L500 -245Q495 -246 489 -248Q485 -258 483 -272Q477 -276 473 -290H471Q469 -290 457 -293Q451 -293 445 -294Q398 -294 323 -266Q320 -245 320 -215Q320 -193 322 -159Q323 -147 324 -135Q324 -122 317 -117L320 -68Q326 -61 330 -23Q334 12 339 21Q330 39 323 62Q316 85 296 86H293Q282 84 258 68Q234 52 229 43Q224 23 218 2Q209 -14 205 -25L206 -29Q211 -26 215 -23H216Q214 -35 202 -49Q190 -63 188 -74Q205 -64 222 -55Q233 -77 234 -102Q235 -126 238 -150Q241 -193 241 -223V-236Q187 -236 161 -219Q152 -214 145 -198Q138 -183 131 -178H125Q110 -179 98 -189Q85 -200 73 -209Q57 -220 54 -223Q44 -233 44 -248V-253Q45 -258 50 -266Q56 -275 56 -281Q52 -294 48 -307V-310Q48 -325 54 -335Q61 -347 75 -348Q113 -388 144 -401V-400Q142 -393 132 -385Q120 -373 120 -364Q120 -359 124 -355L152 -362Q188 -377 237 -385Q239 -395 239 -401Q236 -423 233 -445Q230 -445 227 -446Q212 -445 202 -438Q192 -431 183 -425H181Q165 -425 151 -437Q147 -441 128 -462Q121 -468 115 -475Q108 -482 107 -493Q107 -498 108 -501Q102 -511 89 -519Q93 -517 96 -517H103Q101 -526 90 -533Q75 -543 73 -545Q77 -547 79 -547Q88 -545 96 -543L100 -544Q96 -554 61 -568H69Q83 -568 93 -573Q103 -578 115 -583Q168 -603 196 -603Q202 -602 208 -602L225 -611Q226 -620 235 -622Q243 -624 250 -626Q265 -631 279 -637Q291 -646 303 -655Q309 -658 328 -663Q350 -669 360 -676Q360 -655 373 -652H376Q392 -656 408 -660Q412 -660 413 -659Q409 -653 404 -650Q399 -646 398 -638Q398 -635 399 -632L401 -631Q402 -631 403 -634Q404 -638 408 -638L411 -637Q406 -628 403 -612Q403 -610 405 -602Q410 -598 420 -596Q405 -587 405 -556V-544Q405 -525 403 -517Q366 -508 349 -503Q314 -492 300 -478Q316 -452 330 -407Q344 -408 358 -410Q372 -410 373 -401L394 -414Q400 -423 419 -428Q436 -433 441 -440Q445 -446 447 -453Q448 -460 458 -462Q455 -446 455 -445Q458 -437 470 -435Q482 -434 491 -434Z"/>
</svg>