<svg xmlns="http://www.w3.org/2000/svg" viewBox="0 -800 1024 1024">
	<path fill="#000000" d="M87 -102H86Q83 -101 80 -100H79V-105Q79 -118 85 -118Q88 -118 91 -114Q89 -108 87 -102ZM903 -165H902Q894 -165 894 -181V-186Q906 -186 909 -183Q908 -172 903 -165ZM346 -67Q344 -74 342 -82Q321 -78 315 -76Q300 -71 300 -61Q300 -55 302 -52Q323 -61 346 -67ZM342 -365V-373Q343 -386 343 -400V-405Q311 -393 311 -366Q311 -359 312 -355Q327 -360 342 -365ZM345 -142V-188Q345 -210 343 -220Q318 -158 314 -130Q330 -136 345 -142ZM226 -427V-425Q231 -415 235 -406Q242 -384 250 -336Q268 -340 268 -374Q267 -394 266 -414Q252 -424 252 -447Q252 -455 255 -463Q313 -489 340 -513Q340 -510 343 -510Q347 -510 351 -511Q354 -525 357 -540Q357 -547 352 -552Q313 -531 273 -500Q226 -456 226 -427ZM875 72V70L876 66Q866 55 831 20Q801 -9 780 -34Q763 -55 762 -55Q758 -54 757 -48Q755 -41 753 -36Q741 -17 730 6Q729 19 727 32Q725 38 721 44Q715 53 714 60Q705 64 695 64Q672 64 658 40Q645 17 645 -12V-15Q646 -25 647 -36Q647 -45 641 -49Q638 -49 635 -50Q620 -50 604 -22Q595 -5 586 12Q569 53 553 81Q541 96 525 96Q501 96 490 72Q490 65 494 55Q494 54 485 35Q480 24 472 23V21Q472 19 475 17Q478 15 478 13V12Q475 -9 469 -28Q476 -52 476 -110Q476 -137 475 -165Q475 -192 476 -204Q482 -187 485 -140Q488 -85 500 -66Q501 -69 501 -76Q499 -99 497 -122Q497 -134 499 -139Q506 -134 508 -110Q510 -85 518 -78Q541 -95 572 -134Q607 -178 623 -193H615Q583 -195 562 -201Q557 -217 553 -223Q546 -234 535 -237V-238Q535 -242 538 -244Q541 -245 543 -247Q542 -258 535 -279Q594 -331 629 -397H625Q616 -397 602 -384Q588 -371 580 -370Q576 -369 572 -369Q540 -371 531 -402Q514 -403 504 -417Q495 -429 495 -446Q495 -470 509 -486Q502 -507 502 -519Q502 -535 514 -550Q517 -553 534 -571Q549 -588 555 -589Q555 -585 551 -578Q547 -571 547 -565Q567 -567 600 -583Q631 -598 645 -601Q644 -637 641 -649Q635 -672 617 -676Q620 -685 623 -694Q620 -712 596 -712Q591 -712 583 -710Q589 -728 606 -740Q622 -753 635 -767Q646 -781 656 -794Q667 -806 686 -807H693Q725 -802 742 -774Q760 -744 771 -712Q767 -704 756 -692Q739 -674 737 -661Q737 -657 736 -654Q736 -643 741 -638H742Q766 -641 788 -654Q793 -659 797 -665Q800 -671 811 -672Q809 -664 809 -658Q809 -649 814 -644Q825 -645 843 -651Q866 -659 874 -659Q884 -659 890 -654Q870 -652 857 -642Q843 -631 842 -615L845 -614Q853 -616 860 -618Q862 -618 866 -616Q864 -612 851 -604Q841 -598 841 -590Q841 -586 842 -583Q860 -588 866 -591Q849 -580 847 -562V-560Q847 -553 855 -540Q862 -528 862 -521Q862 -514 854 -506Q840 -493 819 -490Q798 -486 779 -480Q738 -465 711 -442Q711 -439 710 -437Q710 -430 717 -425Q724 -420 725 -415H723Q720 -413 717 -412Q713 -396 697 -387Q693 -375 677 -356Q656 -330 654 -307Q662 -304 669 -304Q690 -305 704 -323Q717 -340 728 -355Q727 -357 724 -357Q720 -356 715 -355H714V-357Q714 -366 721 -370Q727 -375 734 -381Q738 -386 742 -392Q746 -399 753 -400H758Q770 -400 780 -382Q791 -362 804 -359Q812 -361 820 -364H824Q813 -358 813 -331Q814 -322 814 -313Q789 -310 771 -289Q765 -282 744 -246Q724 -212 697 -170Q644 -88 629 -58Q659 -64 673 -85Q688 -106 702 -130Q728 -167 754 -206Q779 -245 809 -277L810 -274Q806 -266 802 -259L804 -256Q807 -258 810 -261L812 -259Q811 -255 811 -246Q811 -229 821 -224V-221Q821 -205 815 -177Q810 -154 810 -140Q810 -129 811 -124Q825 -118 843 -102Q859 -88 866 -84Q875 -100 876 -149Q877 -196 885 -211Q887 -195 887 -185Q887 -163 886 -141Q886 -121 888 -112Q891 -117 892 -134Q893 -153 897 -159Q900 -151 900 -142Q899 -124 898 -107Q898 -93 901 -88Q904 -95 904 -105Q904 -115 903 -125Q903 -136 907 -141Q912 -122 912 -96Q913 -70 924 -54V-64Q924 -78 931 -78V-68Q931 -54 933 -48Q936 -40 944 -39V-38Q943 -35 942 -33L943 -31Q957 -12 967 12Q962 17 962 30Q963 43 964 55Q944 72 913 86Q894 79 875 72ZM423 123H419Q405 123 390 112Q377 103 368 101Q347 65 340 32Q331 20 309 20H305Q308 18 329 10Q344 5 344 -6Q344 -10 343 -13Q301 -10 293 6Q303 29 303 59Q300 56 300 48Q296 52 296 58Q297 63 297 68Q267 76 266 95H261Q240 94 227 82Q214 69 202 57V51Q202 40 194 22Q188 9 188 1Q188 -4 189 -7Q188 -12 182 -13Q176 -13 172 -15Q178 -25 190 -25H193Q205 -62 216 -100Q232 -155 232 -177V-181Q230 -190 228 -199V-201Q229 -207 234 -217Q241 -229 241 -234Q241 -239 238 -244Q241 -243 247 -243Q265 -246 282 -250H284Q292 -246 309 -229Q324 -253 339 -277Q334 -282 324 -282Q299 -278 263 -262Q207 -244 186 -213Q187 -209 193 -196Q200 -181 200 -172Q200 -169 199 -166Q190 -140 154 -139H151Q148 -138 146 -133Q144 -127 140 -127Q135 -140 127 -147Q124 -148 118 -148Q104 -147 98 -140Q92 -132 87 -124Q90 -141 96 -155Q84 -164 72 -164Q58 -164 46 -151V-153Q49 -164 56 -172Q36 -198 25 -205Q22 -214 22 -223Q22 -239 34 -266Q43 -286 44 -295Q45 -309 46 -323Q46 -336 57 -345Q58 -342 58 -334Q58 -325 57 -316Q57 -300 63 -293Q64 -294 65 -298Q66 -303 69 -304Q73 -303 76 -298Q79 -293 81 -292Q85 -293 93 -293Q104 -293 108 -288Q142 -303 177 -313Q168 -325 157 -343Q147 -361 133 -372Q125 -377 106 -382Q76 -390 71 -399Q68 -403 68 -417V-427Q66 -434 58 -448Q46 -468 46 -479V-483Q48 -494 66 -506Q85 -519 88 -529Q89 -531 89 -536Q88 -548 86 -560Q86 -566 88 -569Q91 -565 94 -555Q98 -541 103 -538Q106 -544 106 -552Q104 -570 102 -588Q103 -591 103 -594Q112 -593 113 -584Q114 -576 115 -568Q120 -551 130 -544Q125 -561 125 -568Q125 -572 127 -578Q143 -546 145 -543Q157 -525 174 -519Q234 -582 279 -621Q285 -627 301 -638Q321 -652 328 -661Q335 -671 341 -683Q347 -696 356 -704Q372 -717 401 -717Q410 -717 414 -716Q419 -723 426 -725H428Q428 -718 434 -707L436 -706Q440 -707 444 -709H447V-705Q447 -693 452 -693Q455 -693 465 -700Q477 -708 484 -709Q482 -703 476 -695Q470 -687 469 -676L472 -675Q476 -675 476 -673Q476 -670 475 -667Q475 -659 483 -640Q490 -624 490 -613Q489 -598 479 -588Q469 -578 460 -566Q459 -544 449 -494Q438 -436 438 -398V-393Q441 -396 450 -396Q460 -395 470 -395Q476 -395 478 -396Q483 -397 488 -405Q492 -411 495 -411H496V-409Q495 -404 494 -399V-397H496Q500 -397 506 -390Q512 -383 517 -382Q519 -359 529 -344Q538 -329 546 -312Q542 -302 537 -292Q507 -286 484 -280Q461 -274 450 -249L447 -250Q444 -249 440 -249L437 -250Q441 -236 441 -223V-216Q431 -207 420 -198Q417 -168 417 -139Q418 -75 428 -14Q439 46 448 103Q446 108 436 113Q425 118 423 123Z"/>
</svg>