<svg xmlns="http://www.w3.org/2000/svg" viewBox="0 -800 1024 1024">
	<path fill="#000000" d="M162 -261Q152 -266 150 -276Q149 -286 147 -295Q142 -308 133 -316Q123 -323 115 -331Q116 -334 116 -337Q109 -357 103 -375Q103 -386 112 -410Q123 -437 122 -450Q123 -452 125 -453Q129 -454 129 -457L128 -462Q123 -483 117 -505V-513Q123 -513 125 -507Q126 -501 128 -497Q135 -483 146 -472Q147 -474 147 -479Q142 -496 133 -513Q123 -543 121 -560Q131 -552 142 -528Q156 -498 168 -491Q170 -502 169 -506Q164 -528 154 -545Q163 -545 173 -525Q185 -501 199 -502Q203 -503 207 -504Q213 -503 221 -495Q230 -486 237 -487H238Q266 -468 270 -469Q279 -470 289 -375Q301 -277 309 -177Q310 -154 312 -142Q318 -74 334 -15Q322 1 315 23Q275 28 276 58Q269 55 268 50L269 46Q243 42 229 25Q214 8 193 -2Q192 -13 178 -21Q181 -28 183 -36Q175 -50 160 -54Q145 -59 131 -64Q132 -65 136 -67Q146 -66 156 -66Q165 -68 168 -71Q182 -91 178 -146Q174 -182 169 -219Q167 -233 168 -239ZM550 48Q547 54 525 56V45Q527 44 532 44Q541 46 550 48ZM392 -634Q376 -630 358 -627Q340 -624 325 -610L324 -609V-608Q327 -605 336 -606Q348 -607 354 -603Q347 -597 333 -593Q313 -587 305 -579Q282 -562 265 -543Q237 -537 221 -553L218 -556Q204 -571 198 -590Q192 -609 184 -629Q172 -660 168 -681Q161 -727 159 -732Q171 -756 192 -784Q197 -790 204 -790Q211 -788 217 -786Q241 -781 251 -771L255 -767Q275 -736 295 -706L313 -688Q321 -680 323 -672Q344 -667 364 -662Q358 -659 348 -658Q338 -657 331 -650Q327 -645 326 -644Q336 -639 357 -640Q380 -641 392 -634ZM823 -301Q830 -294 830 -279Q828 -186 828 -96Q827 -6 846 86Q835 106 830 124Q820 125 808 134Q798 142 790 142H788Q774 141 765 132Q755 123 744 113Q729 105 714 96Q694 78 663 75Q668 74 698 71Q682 61 633 59Q582 57 568 53Q579 52 601 52H623Q671 52 692 48Q685 42 659 41Q631 40 623 33Q631 31 635 31Q650 33 665 35H670Q703 35 709 -20Q711 -39 711 -70V-80Q711 -100 713 -130Q721 -200 726 -278Q729 -325 732 -372Q734 -382 735 -392Q732 -432 729 -473V-475Q731 -492 733 -510Q733 -520 729 -527Q635 -506 591 -490Q516 -463 499 -431Q495 -431 485 -425Q476 -420 469 -420Q453 -420 428 -452Q399 -490 394 -537Q392 -551 392 -556Q392 -583 407 -598Q405 -614 405 -620Q406 -656 428 -668Q449 -679 476 -693Q464 -677 460 -657Q460 -649 465 -643Q494 -655 524 -664L558 -667Q561 -684 578 -691Q595 -698 611 -703Q623 -709 647 -711Q665 -713 675 -716Q694 -720 720 -728Q747 -736 764 -737Q783 -739 802 -741Q811 -741 818 -738Q825 -735 835 -720Q844 -706 850 -706H854Q862 -706 874 -714Q888 -723 896 -724V-723Q895 -718 886 -709Q876 -700 875 -689Q875 -682 883 -675Q891 -681 898 -687Q905 -694 916 -696Q911 -687 904 -679Q898 -672 897 -662Q898 -659 898 -657L901 -656Q903 -656 905 -660Q908 -665 912 -665H914Q911 -657 911 -650Q911 -640 920 -619Q931 -593 931 -576V-571Q924 -564 904 -556Q874 -545 870 -528V-526L872 -525H876Q861 -515 857 -500Q852 -485 846 -462Q838 -437 834 -416Q833 -402 832 -389Q832 -377 824 -366ZM392 -608Q391 -605 389 -603Q379 -593 368 -603L367 -604L369 -606Q372 -609 381 -608Q389 -607 392 -608Z"/>
</svg>