<svg xmlns="http://www.w3.org/2000/svg" viewBox="0 -800 1024 1024">
	<path fill="#000000" d="M638 -76Q647 -83 654 -98Q659 -110 664 -116Q671 -124 677 -132Q684 -140 684 -150V-155H678Q655 -155 634 -131Q627 -122 604 -86Q623 -82 638 -76ZM100 -351Q100 -346 93 -327Q88 -330 88 -340Q88 -353 95 -353Q96 -353 100 -351ZM299 -191V-193Q298 -201 296 -209V-213Q275 -208 265 -183H268Q284 -187 299 -191ZM285 -84Q290 -95 292 -108Q292 -114 290 -117Q279 -111 266 -103Q253 -95 252 -82Q252 -78 255 -72Q265 -81 280 -85Q283 -85 285 -84ZM966 -432H965Q964 -435 964 -441Q964 -455 974 -455H975Q977 -449 977 -445Q977 -432 966 -432ZM423 -6Q406 -6 397 -22Q401 -24 405 -24Q421 -22 423 -6ZM768 -272Q748 -296 729 -320Q709 -344 685 -363Q683 -351 683 -345Q683 -332 688 -311Q693 -290 693 -280Q693 -270 690 -260Q693 -259 701 -259Q713 -259 768 -272ZM471 -600Q470 -597 470 -591Q470 -589 472 -581Q433 -547 423 -484Q413 -421 401 -360Q403 -361 407 -361Q414 -359 421 -358Q424 -358 426 -360Q445 -351 454 -330Q485 -343 535 -383Q575 -415 594 -425Q558 -418 522 -396Q517 -391 510 -384Q503 -376 495 -375L491 -376Q488 -377 484 -384Q481 -389 476 -393Q471 -397 462 -400Q450 -404 447 -409Q446 -412 446 -419Q447 -429 448 -440Q448 -445 447 -447Q444 -454 441 -462V-470Q441 -514 496 -550V-534H502Q528 -535 560 -547Q592 -558 615 -567V-579Q615 -633 607 -657Q595 -693 559 -694Q581 -709 602 -725Q613 -736 623 -747Q633 -757 651 -758H658Q673 -756 683 -746Q694 -737 705 -726Q710 -722 709 -717Q708 -712 710 -709Q716 -699 716 -685Q716 -670 708 -666Q698 -632 688 -598Q690 -589 698 -593Q713 -600 723 -644L740 -702Q754 -734 768 -766Q782 -800 824 -805Q868 -779 877 -776Q885 -741 893 -732Q887 -722 887 -697V-685Q858 -669 835 -625Q848 -626 873 -634Q892 -641 902 -641Q901 -638 894 -632Q885 -624 885 -618Q885 -615 887 -609H891Q902 -609 915 -615Q926 -620 931 -620Q935 -620 938 -619Q920 -607 919 -606Q909 -597 909 -586Q910 -583 910 -581L912 -580Q916 -581 920 -583L923 -581Q910 -570 910 -546Q910 -533 914 -524Q913 -521 909 -519Q906 -518 905 -516Q900 -482 867 -475Q830 -468 796 -464Q777 -458 758 -452Q749 -450 741 -449Q733 -448 732 -443Q734 -438 751 -424Q767 -410 772 -405Q784 -396 794 -387Q804 -379 808 -369L835 -350Q851 -348 860 -340Q868 -331 879 -324Q897 -328 911 -354Q927 -384 936 -390Q936 -379 924 -359Q911 -337 911 -320V-318Q924 -330 936 -365Q949 -403 962 -414Q936 -341 932 -306Q942 -312 950 -342Q959 -374 969 -381Q958 -343 955 -300Q955 -289 956 -284Q963 -242 971 -204V-195Q971 -179 964 -165Q960 -157 948 -141H944Q938 -140 932 -140Q905 -141 889 -155Q873 -168 857 -183Q843 -170 819 -169Q794 -168 771 -168Q778 -160 784 -152Q783 -137 781 -122Q781 -112 783 -106Q768 -96 751 -86Q735 -77 728 -58Q739 -51 775 -43Q808 -36 823 -28Q832 -37 842 -46Q852 -55 868 -58Q868 -54 863 -51Q858 -49 854 -45Q839 -26 836 -9H838Q842 -9 848 -16Q856 -25 864 -25H866Q847 -1 847 14Q847 25 856 32L858 33Q859 33 862 29Q865 25 868 25L871 26V27Q867 35 860 45Q861 49 861 55Q861 65 855 78Q848 92 848 100Q842 100 831 107Q819 114 812 114H810Q797 111 786 104Q740 92 737 75L711 60H710Q699 60 679 47Q664 37 655 35Q639 51 629 73Q620 97 595 104Q585 100 578 95Q570 90 557 89H553Q552 76 536 65Q525 58 522 52L525 51Q531 52 536 53Q539 53 541 52Q526 39 486 22Q450 7 436 -4Q438 -5 443 -5Q452 -5 485 8Q515 20 531 22Q535 23 538 23Q558 22 568 5Q558 0 537 0H518Q493 -17 487 -20Q485 -42 483 -65Q483 -72 484 -75Q492 -91 508 -102Q510 -103 516 -103H522Q528 -103 531 -105Q534 -107 538 -116Q540 -122 543 -124Q509 -121 476 -108Q459 -94 441 -90Q430 -90 421 -100Q421 -107 409 -120Q397 -133 397 -144V-146Q399 -155 401 -165V-181Q403 -186 409 -193Q418 -203 418 -207Q415 -207 416 -211Q424 -224 434 -228H437Q439 -228 439 -223Q439 -218 441 -218Q445 -216 449 -216Q460 -218 470 -220Q474 -220 477 -216L505 -218Q508 -225 516 -227Q524 -229 532 -231Q549 -234 565 -238Q570 -252 575 -266Q590 -269 601 -278Q598 -287 598 -295Q599 -307 599 -320V-330Q571 -321 532 -278Q515 -263 503 -243H501Q490 -240 481 -229Q475 -230 468 -236Q461 -242 456 -242Q453 -241 450 -240V-243L451 -247Q447 -253 443 -260Q393 -223 385 -215Q356 -185 356 -147V-144Q357 -130 358 -116Q358 -107 355 -100L359 -27V-20Q359 -5 367 25Q374 51 374 65V67Q374 83 363 96Q356 104 339 116Q315 113 304 97Q293 81 287 60Q279 28 257 10L260 9Q267 11 273 13Q281 10 282 0Q283 -9 284 -19Q256 -19 255 3Q249 1 246 1Q230 1 230 21Q230 30 235 38Q230 45 226 54Q226 55 228 59Q211 69 207 79Q193 78 184 72Q175 66 164 60Q152 32 146 10Q145 9 133 6Q140 4 146 1Q145 -9 132 -9L121 -7Q149 -15 166 -39L173 -56Q174 -70 185 -98Q202 -143 202 -164V-166Q200 -177 197 -189V-191Q202 -208 221 -210Q225 -210 229 -208Q233 -212 273 -257Q265 -259 262 -259Q250 -258 241 -252Q231 -245 219 -239Q191 -226 185 -217Q188 -205 188 -195Q188 -169 172 -152Q157 -136 135 -136Q120 -136 105 -145L103 -146Q100 -143 97 -141L96 -142V-145Q96 -152 87 -166Q78 -165 72 -159Q67 -153 62 -147Q67 -155 67 -165Q67 -179 55 -180V-181Q54 -193 44 -200Q33 -208 25 -216L27 -218Q30 -217 32 -217Q32 -235 47 -261Q44 -270 38 -279L41 -280Q44 -280 50 -275Q57 -269 61 -269Q61 -282 49 -303Q40 -318 38 -326Q45 -324 50 -318Q54 -313 58 -308Q68 -298 75 -286Q88 -293 88 -314Q93 -298 103 -289Q109 -290 115 -292Q119 -284 123 -277Q155 -287 182 -291Q172 -302 165 -334Q160 -357 154 -371Q149 -383 117 -426Q91 -461 88 -486Q87 -490 87 -497Q90 -526 106 -547Q98 -573 98 -588Q98 -596 99 -600Q102 -591 105 -582Q108 -573 117 -570V-571Q116 -576 114 -581L115 -584H117Q125 -579 133 -575Q146 -583 156 -583Q177 -583 197 -563Q216 -575 235 -585L253 -600Q262 -613 282 -629Q307 -649 314 -657Q328 -675 344 -691Q360 -707 389 -708Q400 -708 413 -705Q415 -707 416 -711Q417 -717 421 -717H424L426 -716Q426 -713 425 -711V-710Q432 -710 442 -725L444 -722Q442 -716 439 -711Q439 -707 438 -703Q438 -683 448 -671H449Q455 -675 459 -679L460 -678Q460 -662 465 -649Q481 -661 481 -675Q481 -680 475 -690Q469 -700 469 -706Q469 -709 470 -711Q476 -707 484 -695Q492 -683 497 -679Q505 -682 512 -682Q524 -682 533 -674Q535 -672 548 -655Q567 -629 589 -629H593Q583 -622 583 -591Q583 -568 579 -559Q568 -552 555 -552Q539 -553 523 -561Q508 -569 494 -575Q495 -578 495 -581Q495 -594 477 -602Q475 -602 471 -600ZM295 -324Q299 -325 309 -327V-337Q309 -358 318 -408Q325 -472 329 -528Q329 -542 336 -558L332 -560Q288 -536 253 -498Q237 -477 235 -443Q247 -451 253 -454Q259 -462 267 -466H270Q272 -464 272 -455Q276 -457 284 -465Q293 -475 303 -476V-475Q302 -471 296 -462Q289 -453 288 -442V-439Q293 -439 298 -444Q302 -449 306 -449Q300 -436 294 -423Q295 -398 295 -373Q295 -348 295 -324ZM262 -316Q262 -353 261 -358Q261 -371 257 -374Q250 -374 239 -367Q243 -330 244 -309Q250 -312 262 -316Z"/>
</svg>