<svg xmlns="http://www.w3.org/2000/svg" viewBox="0 -800 1024 1024">
	<path fill="#000000" d="M414 20V18Q418 16 420 16Q430 20 440 24Q430 30 417 30Q414 21 414 20ZM657 -283V-280Q657 -273 650 -252Q643 -231 643 -219Q643 -207 650 -196Q788 -231 797 -233Q777 -246 723 -260Q678 -272 657 -283ZM315 -347Q305 -349 302 -349Q264 -349 256 -297Q286 -309 303 -309Q309 -328 315 -347ZM370 -186Q381 -192 386 -203Q390 -214 395 -224Q411 -254 414 -271Q409 -273 400 -273Q366 -273 366 -221Q366 -206 370 -186ZM568 -269V-273Q568 -294 567 -315Q567 -336 571 -353L573 -354Q580 -349 588 -341Q590 -341 591 -346Q592 -350 595 -350Q613 -347 630 -344Q630 -349 629 -354Q629 -376 649 -403Q665 -424 669 -438Q682 -472 694 -507Q664 -500 650 -469Q648 -469 645 -470Q639 -470 636 -466Q633 -462 630 -458Q576 -466 570 -485Q569 -500 567 -515Q565 -525 554 -543Q542 -562 542 -576Q542 -585 544 -590Q545 -596 553 -605Q560 -614 561 -620Q561 -627 556 -636Q550 -647 550 -653V-656Q570 -629 604 -627Q619 -627 630 -634L648 -649Q653 -665 672 -677Q691 -689 708 -701Q719 -711 730 -722Q741 -733 758 -734Q768 -734 777 -730H778Q783 -733 788 -736H789Q796 -722 811 -714Q816 -717 824 -728Q830 -736 836 -740Q837 -738 837 -733Q834 -714 830 -695Q830 -682 842 -677Q852 -680 861 -683Q864 -683 866 -682Q862 -678 855 -673Q849 -668 848 -661V-658L850 -655Q854 -657 858 -659H859Q855 -652 855 -644Q858 -629 860 -615Q860 -610 859 -607Q855 -595 837 -573Q818 -551 814 -539L816 -537Q820 -538 824 -539H826Q791 -508 772 -467Q757 -435 743 -370L811 -330Q841 -312 859 -298L882 -285Q895 -281 904 -270Q919 -262 931 -253Q944 -244 950 -227Q952 -219 953 -196Q954 -167 961 -154Q952 -146 942 -136Q932 -126 918 -123H909Q868 -128 826 -133H818Q770 -132 728 -120Q687 -108 650 -97Q649 -74 647 -52Q651 -5 655 42Q655 53 654 58Q651 75 638 90Q633 96 613 112Q569 88 544 51Q525 47 505 42Q476 38 470 33Q480 35 497 35H513Q528 35 536 36Q525 26 479 26H449Q462 21 483 21Q499 22 514 22Q523 22 537 20Q527 15 514 16Q500 16 488 14Q530 2 532 1Q553 -8 559 -28Q566 -53 566 -88Q566 -124 568 -152Q570 -169 579 -171L574 -218Q566 -225 566 -237Q566 -240 566 -243Q565 -236 559 -222Q556 -223 550 -223Q546 -223 528 -218Q512 -200 503 -186Q502 -184 500 -183Q497 -175 493 -167Q481 -133 481 -108V-103Q474 -98 468 -98Q465 -98 459 -100Q447 -96 444 -83Q440 -86 440 -89Q441 -94 441 -99V-102Q437 -108 430 -108Q425 -108 423 -107Q417 -117 404 -118Q400 -128 392 -136Q387 -133 381 -131H379Q384 -139 384 -150Q384 -172 371 -178Q365 -158 365 -132Q365 -102 373 -60Q376 -47 379 -34Q379 -27 373 -23L374 -13Q379 -13 381 -3Q383 6 388 7Q385 12 385 17Q385 25 388 31Q385 52 373 64Q360 76 347 87Q340 78 318 67Q299 58 291 48Q287 44 283 30Q280 19 276 14Q269 5 249 -5Q237 -11 229 -17Q232 -17 264 -11Q251 -30 211 -39Q214 -41 219 -41Q237 -36 255 -32Q260 -32 263 -33Q247 -46 228 -51Q210 -55 188 -63Q191 -64 197 -64Q209 -64 229 -58Q249 -52 257 -52Q271 -52 279 -61Q305 -133 305 -234V-242Q278 -241 266 -217Q273 -200 280 -185Q287 -169 288 -151Q272 -134 256 -118H253Q227 -119 209 -128Q192 -138 174 -148Q142 -128 137 -73H134Q111 -74 88 -76H86Q76 -70 68 -67H67V-70Q67 -77 73 -85Q66 -92 62 -101Q58 -112 45 -112Q45 -115 55 -124Q66 -133 66 -136Q65 -141 57 -141Q50 -141 45 -143Q48 -150 56 -153Q65 -156 72 -159Q100 -184 115 -217Q120 -231 121 -242Q121 -253 133 -261Q177 -290 188 -308Q176 -306 150 -293Q122 -279 113 -279Q97 -279 89 -291Q86 -299 82 -307Q72 -315 67 -327Q66 -331 66 -339Q66 -349 68 -365Q73 -400 95 -415Q109 -413 117 -413Q139 -413 199 -433Q182 -442 175 -448Q163 -459 161 -473Q152 -484 137 -484H132Q137 -490 137 -501Q134 -520 121 -539Q136 -542 160 -558Q181 -571 191 -574L197 -577Q201 -590 211 -596Q221 -603 232 -609Q209 -647 198 -685Q201 -685 204 -681Q207 -677 209 -677Q212 -677 212 -685Q221 -681 229 -677Q234 -681 240 -681Q252 -677 274 -673Q280 -669 284 -660Q287 -659 289 -659Q297 -659 307 -669Q316 -678 322 -678L330 -687V-688Q334 -695 339 -702Q338 -715 326 -733Q361 -770 407 -776Q415 -776 423 -777Q440 -777 450 -770Q466 -748 472 -720Q490 -676 490 -666Q489 -645 477 -635Q465 -625 447 -620Q411 -614 389 -593Q393 -586 403 -576L419 -580V-572Q419 -562 424 -557H445Q425 -554 425 -532Q425 -514 438 -506L435 -505H425Q412 -484 381 -484Q360 -484 347 -497L338 -503Q321 -508 305 -530Q291 -527 283 -518Q274 -509 265 -500Q257 -494 249 -489Q239 -481 226 -460Q215 -443 208 -436Q215 -438 238 -443Q248 -445 253 -447Q254 -467 255 -470Q257 -482 266 -487Q271 -487 276 -487H288Q318 -487 325 -461Q366 -471 373 -473L385 -469Q387 -477 396 -479Q404 -481 411 -482Q456 -492 493 -507Q493 -528 499 -535Q501 -533 501 -531Q501 -528 500 -525V-524Q503 -510 530 -500Q538 -506 550 -506H554Q545 -501 544 -491Q544 -483 551 -483Q554 -483 556 -484Q550 -471 548 -458Q548 -453 549 -450Q553 -441 556 -431V-429Q550 -404 518 -398Q485 -392 451 -388Q410 -376 385 -365Q384 -354 382 -344Q382 -339 383 -336Q398 -337 410 -346Q422 -355 438 -363Q461 -373 477 -373Q501 -373 519 -354Q523 -361 533 -363H537L538 -360Q538 -357 528 -344Q533 -333 538 -323Q552 -331 561 -331H564Q556 -324 552 -309L553 -305Q554 -301 559 -298Q563 -296 564 -293Q563 -287 561 -281Q566 -277 568 -269Z"/>
</svg>