<svg xmlns="http://www.w3.org/2000/svg" viewBox="0 -800 1024 1024">
	<path fill="#000000" d="M77 -573V-572Q70 -571 63 -571Q58 -571 56 -572L55 -575Q55 -581 66 -581Q77 -581 77 -573ZM912 -638V-632Q907 -632 901 -628Q895 -623 891 -623Q894 -630 898 -636Q902 -641 911 -643Q912 -642 912 -638ZM859 -266V-261Q858 -245 857 -230Q848 -233 848 -250Q848 -257 851 -269H853Q856 -267 859 -266ZM625 -68Q618 -85 596 -85Q575 -85 560 -74Q587 -70 614 -67Q621 -67 625 -68ZM600 -157Q564 -148 563 -148Q545 -141 538 -128Q567 -132 595 -137Q598 -147 600 -157ZM616 -224V-226Q618 -234 619 -242V-244Q575 -237 538 -214V-213Q537 -207 535 -202L536 -199Q576 -211 616 -224ZM632 -317V-320Q605 -314 579 -306Q553 -298 543 -274Q584 -282 626 -296Q631 -306 632 -317ZM229 -440H225Q222 -443 219 -443Q217 -442 214 -442L210 -443Q204 -445 193 -452Q181 -460 176 -460H175Q170 -459 166 -455Q160 -449 155 -449Q160 -460 164 -472Q163 -474 156 -480Q148 -487 146 -494Q132 -490 109 -473Q94 -462 83 -457Q91 -471 110 -483Q128 -495 130 -511Q130 -520 121 -529Q111 -526 101 -524H99Q100 -531 112 -536Q120 -540 123 -544Q122 -562 107 -566Q93 -571 80 -577Q87 -581 103 -582Q122 -584 127 -586Q128 -594 139 -603Q147 -609 149 -614V-616Q146 -625 143 -635Q145 -636 148 -636Q155 -636 160 -629Q163 -631 184 -636Q185 -640 185 -649Q184 -668 183 -688Q183 -699 185 -704Q191 -693 195 -668Q200 -631 213 -623Q218 -627 220 -642Q222 -657 229 -659Q228 -655 228 -648Q228 -629 235 -619Q242 -608 256 -608H259Q265 -611 271 -614H274Q276 -579 281 -566Q282 -563 287 -560Q291 -557 293 -554Q297 -548 299 -531Q301 -511 308 -502Q303 -484 300 -469Q297 -454 286 -445Q275 -438 261 -438Q245 -439 229 -440ZM967 28H980Q973 36 965 44Q963 66 962 84Q961 102 953 115Q942 128 924 128Q906 128 887 133Q855 118 822 102Q798 94 767 88Q741 79 714 70L655 51Q565 22 541 16Q478 2 407 0Q335 -3 258 -5Q250 -5 242 -6Q202 -6 175 11Q147 13 140 31Q136 29 135 29Q127 32 121 37Q113 32 104 30Q102 30 98 32Q68 10 50 5Q46 1 44 -11Q41 -25 37 -29V-36Q38 -61 50 -75Q62 -89 72 -107Q75 -106 79 -101Q84 -95 86 -94Q92 -92 97 -92Q113 -93 129 -95H132Q143 -94 169 -94Q284 -94 321 -119Q312 -129 289 -146Q259 -168 249 -184Q232 -170 208 -170Q189 -170 172 -179Q160 -185 146 -211Q132 -237 121 -242V-248Q121 -330 163 -364Q161 -353 159 -342Q159 -340 161 -334Q196 -345 230 -363Q263 -381 296 -398Q305 -387 317 -380Q323 -383 329 -387L332 -386Q332 -378 331 -371Q331 -359 336 -350L339 -349Q342 -351 345 -353H346Q347 -345 355 -322Q365 -294 365 -276Q365 -270 363 -260Q358 -253 349 -244Q347 -239 346 -234Q346 -229 340 -227Q357 -200 381 -178Q404 -156 406 -117Q406 -111 404 -97Q417 -92 445 -88Q470 -85 479 -82Q480 -84 480 -87Q480 -102 470 -110Q471 -116 471 -128Q471 -170 452 -260Q447 -303 423 -320Q436 -321 453 -338Q471 -357 484 -359H486Q496 -357 505 -355Q515 -356 532 -364Q551 -373 561 -374Q559 -388 546 -401Q519 -393 497 -389Q474 -386 455 -371Q421 -342 406 -341Q384 -343 370 -361Q367 -373 364 -385Q363 -388 354 -396Q342 -406 340 -413Q338 -423 338 -427Q338 -448 355 -467Q352 -476 352 -483Q353 -499 365 -506Q377 -512 388 -520Q393 -525 395 -531Q396 -537 404 -538Q405 -536 406 -528Q407 -518 411 -517H414Q438 -520 462 -524Q456 -534 440 -546Q423 -559 419 -563Q388 -594 383 -613V-617Q386 -633 388 -649Q385 -670 381 -691Q381 -699 385 -707Q388 -705 391 -696Q395 -685 400 -683Q403 -684 403 -688V-695H409Q412 -695 414 -692Q429 -707 461 -707Q497 -707 518 -691Q522 -692 527 -699Q532 -706 538 -707Q537 -702 537 -688Q537 -650 551 -649H552Q553 -649 556 -654Q559 -659 562 -659L564 -658Q563 -651 563 -636Q566 -592 574 -548L577 -547Q582 -548 587 -550Q588 -550 592 -548Q600 -569 622 -607Q648 -652 655 -670Q669 -703 669 -713Q669 -726 660 -734H658Q646 -730 634 -727Q639 -737 656 -750Q670 -760 675 -767Q696 -771 723 -788Q743 -801 762 -815Q772 -820 777 -820Q794 -817 807 -800Q815 -801 823 -803Q821 -794 819 -785Q819 -781 820 -779Q821 -776 826 -773Q830 -771 832 -767L843 -736V-731Q839 -700 834 -670Q833 -657 833 -647Q832 -637 825 -630H819Q769 -630 749 -590Q782 -600 826 -611L829 -610Q827 -606 825 -603V-602Q833 -602 850 -610Q869 -619 879 -619H882Q871 -611 858 -606Q845 -601 844 -583H847Q862 -588 876 -593L880 -592Q878 -586 871 -580Q863 -574 862 -569Q863 -565 865 -565Q870 -566 874 -568L877 -567Q866 -551 859 -530Q865 -528 871 -526Q865 -520 861 -498Q856 -470 844 -464Q829 -460 807 -460Q722 -450 634 -428Q632 -412 629 -397H632Q643 -397 663 -414Q680 -429 688 -431Q698 -433 702 -433Q731 -429 752 -409Q762 -414 774 -416L776 -413Q776 -411 772 -409Q767 -406 767 -403Q774 -403 785 -412Q801 -424 813 -424H817V-423Q817 -418 802 -408Q782 -395 782 -385Q782 -379 786 -374Q791 -376 795 -379H798Q795 -372 789 -329Q785 -298 770 -289Q762 -286 753 -284Q730 -270 714 -182Q707 -119 699 -56Q767 -43 784 -43Q818 -43 832 -61Q842 -74 842 -105Q842 -126 841 -147Q841 -157 843 -175Q850 -173 850 -162V-148Q854 -97 860 -68Q866 -73 866 -85Q866 -91 865 -97Q858 -143 854 -192Q854 -209 856 -217Q864 -195 871 -143Q880 -70 897 -46Q892 -76 889 -110Q890 -116 890 -122Q896 -110 904 -80Q914 -43 923 -29Q931 -22 941 -4Q955 21 967 28Z"/>
</svg>