<svg xmlns="http://www.w3.org/2000/svg" viewBox="0 -800 1024 1024">
	<path fill="#000000" d="M881 -101V-97Q867 -97 861 -69Q847 -62 837 -49Q827 -35 815 -24Q794 -10 773 4Q754 20 734 35Q723 40 712 44Q701 47 693 58Q678 59 665 66Q653 73 640 78Q626 82 611 85Q596 88 584 97H579Q554 100 529 103Q521 102 513 101Q501 104 489 106Q441 106 406 103Q342 96 270 60Q211 32 193 15Q152 -22 133 -45Q113 -69 85 -131Q42 -227 42 -351Q42 -417 58 -474Q78 -547 119 -610Q161 -676 216 -717Q339 -808 500 -808Q525 -808 538 -807Q600 -803 663 -775Q705 -756 766 -717Q790 -700 810 -680Q862 -636 911 -534Q924 -506 939 -451Q958 -377 958 -359V-357Q956 -346 954 -336V-332Q955 -320 955 -309V-304Q955 -262 934 -212Q907 -142 901 -132Q896 -124 889 -117Q882 -110 881 -101ZM875 -356V-379Q870 -405 861 -431Q846 -486 834 -504Q832 -521 828 -528Q814 -554 767 -603Q720 -653 693 -664Q684 -666 675 -669Q656 -679 638 -690Q620 -701 599 -706Q595 -707 587 -707Q580 -707 575 -708Q557 -714 541 -718H538Q525 -716 511 -715Q486 -717 460 -720H451Q450 -720 446 -718Q392 -706 354 -690Q293 -664 268 -646Q249 -628 230 -608Q209 -589 192 -570Q190 -568 165 -520Q145 -482 141 -467Q140 -464 140 -456Q140 -449 139 -445Q129 -413 124 -379Q123 -370 123 -349Q123 -327 124 -316Q128 -246 155 -178Q183 -109 221 -77Q236 -65 251 -54Q260 -49 268 -45Q275 -38 282 -31Q297 -20 353 1Q402 21 437 22Q456 21 475 19Q486 19 492 21Q508 13 526 11Q543 10 563 7Q587 3 628 -15Q832 -103 868 -272Q871 -301 880 -333Q875 -342 875 -356ZM747 -462Q746 -455 738 -450Q730 -444 729 -439Q727 -445 727 -448Q727 -463 741 -463Q745 -463 747 -462ZM774 -210H769Q756 -214 742 -219H732Q721 -224 706 -235Q691 -246 673 -247Q665 -247 657 -244V-248Q657 -253 663 -256Q667 -258 668 -261Q666 -272 654 -279Q638 -289 636 -291Q628 -302 623 -315Q618 -327 607 -336Q610 -344 612 -353Q600 -364 596 -396H597Q602 -393 606 -390V-391Q606 -396 598 -401Q591 -405 591 -410V-411Q600 -408 609 -405H613Q626 -410 639 -419Q648 -422 658 -422Q677 -420 695 -419Q712 -419 720 -428Q723 -426 723 -424Q720 -417 717 -410V-407Q721 -404 729 -403Q740 -402 742 -399Q748 -402 754 -407Q760 -412 769 -413Q770 -412 770 -411Q766 -404 762 -391Q762 -386 764 -384Q772 -386 789 -397Q805 -407 813 -408Q812 -402 799 -394Q784 -385 782 -376Q781 -373 781 -368Q781 -353 796 -341Q809 -344 821 -348H822Q819 -343 813 -340Q804 -335 803 -333V-328Q804 -313 810 -303Q816 -293 822 -284Q813 -259 806 -236Q799 -212 774 -210ZM477 -56H474Q468 -56 461 -57H458Q451 -67 443 -87Q435 -108 431 -114Q432 -120 436 -125Q432 -139 413 -163Q397 -183 392 -198Q413 -178 433 -156Q426 -171 404 -198Q387 -218 380 -232Q391 -226 408 -207Q424 -189 434 -183V-184Q434 -186 431 -189Q425 -195 425 -199V-201Q430 -199 435 -195Q443 -188 449 -188Q457 -196 458 -209Q458 -222 460 -234Q461 -245 461 -263V-265Q463 -283 465 -302Q465 -313 461 -321V-322Q461 -324 467 -324Q462 -342 460 -392Q458 -401 455 -411Q457 -417 458 -423Q456 -431 454 -439Q449 -485 442 -525Q436 -564 400 -579Q406 -590 413 -599V-601Q413 -602 409 -608Q429 -623 446 -643Q463 -662 489 -672Q493 -673 501 -673Q520 -673 531 -663Q542 -654 550 -642Q562 -621 588 -614Q585 -609 585 -603Q585 -595 593 -579Q590 -564 578 -557Q562 -494 558 -427Q558 -414 559 -407Q557 -398 554 -390V-388Q557 -385 559 -382V-381Q554 -381 554 -376V-317Q557 -312 559 -307Q556 -302 556 -296Q558 -284 559 -273V-259Q559 -234 558 -210Q558 -172 574 -158V-147Q575 -128 575 -110Q575 -95 572 -80Q564 -68 556 -47Q538 -36 523 -23Q487 -37 477 -56ZM369 -212Q385 -210 386 -201Q383 -199 383 -197Q371 -198 369 -212ZM273 -210H271Q265 -207 258 -204H257Q257 -210 255 -217Q254 -225 246 -227Q240 -225 237 -221Q234 -223 233 -228Q226 -224 218 -211Q210 -197 203 -194Q205 -205 214 -220Q222 -233 224 -240Q217 -248 206 -254Q190 -249 178 -239Q165 -229 156 -222V-225Q156 -234 174 -249Q189 -264 195 -273Q194 -275 190 -275H185Q182 -275 180 -278Q180 -279 179 -281Q179 -282 184 -290Q180 -304 154 -306Q155 -312 161 -312Q167 -311 171 -313Q180 -319 180 -332Q180 -351 165 -366Q177 -365 186 -356Q199 -365 213 -374Q227 -383 228 -405V-410Q234 -399 237 -386Q240 -373 255 -372Q263 -378 270 -384V-369Q288 -366 301 -357Q313 -348 325 -339Q328 -341 356 -366Q353 -355 349 -347Q344 -339 344 -325Q345 -320 345 -316Q346 -306 357 -285Q367 -266 367 -254Q367 -245 363 -237Q358 -231 353 -225Q335 -202 306 -202Q302 -202 297 -203Q285 -206 273 -210ZM199 -186H202Q198 -184 195 -176Q191 -166 186 -165Q185 -167 185 -171Q185 -186 199 -186Z"/>
</svg>