<svg xmlns="http://www.w3.org/2000/svg" viewBox="0 -800 1024 1024">
	<path fill="#000000" d="M860 -70V-68Q846 -62 837 -50Q828 -37 817 -26Q813 -23 776 4Q758 19 739 34Q727 40 714 45Q701 49 693 61Q677 62 664 69Q650 76 637 81Q606 88 581 97Q530 106 466 106Q362 106 301 78Q230 45 215 35Q211 33 169 -4Q46 -116 41 -351Q42 -366 42 -382Q50 -547 172 -676Q283 -791 469 -805Q481 -805 492 -806Q593 -806 682 -766Q741 -740 794 -691Q801 -683 810 -675Q819 -669 828 -663Q839 -651 873 -598Q915 -534 937 -446Q953 -398 958 -357Q956 -344 953 -332Q954 -318 955 -304Q954 -273 937 -223Q918 -161 881 -107Q881 -97 868 -90Q868 -86 864 -81Q860 -75 860 -70ZM725 -137V-138Q722 -146 716 -154Q717 -158 718 -163V-165Q712 -175 705 -182L708 -192H705Q704 -191 702 -191Q701 -191 701 -192Q697 -193 697 -199Q697 -202 700 -211H698Q695 -210 691 -209Q684 -212 681 -232Q679 -248 674 -253V-242Q674 -227 671 -222Q666 -236 666 -274V-281Q666 -295 665 -301Q658 -295 658 -283Q660 -268 661 -254Q661 -244 657 -237Q655 -241 655 -251V-267Q655 -273 654 -277Q649 -269 647 -247Q645 -223 640 -217Q612 -210 555 -206Q514 -203 499 -201Q497 -203 486 -203Q472 -204 468 -210Q468 -251 487 -291Q573 -320 625 -332Q705 -350 783 -351V-379Q783 -393 785 -399Q787 -401 791 -401Q788 -407 788 -412Q788 -425 808 -430Q806 -430 804 -431H798Q784 -431 780 -436V-437Q782 -440 784 -444Q782 -443 776 -443Q773 -443 772 -448Q777 -455 785 -460Q783 -461 780 -461Q768 -457 756 -454Q751 -455 751 -461Q751 -465 756 -475Q751 -474 744 -465Q739 -458 734 -456Q722 -452 710 -448H706Q666 -439 625 -431L569 -423H556Q549 -420 542 -418H532Q524 -414 521 -414Q519 -414 518 -415Q526 -445 534 -477Q541 -508 562 -525Q562 -528 561 -532Q562 -539 562 -546Q553 -556 552 -577Q549 -576 546 -576Q544 -576 544 -577V-580Q545 -584 545 -589Q545 -590 544 -591Q540 -588 536 -586Q528 -590 518 -602Q509 -613 504 -615Q498 -618 487 -618Q464 -614 449 -599Q441 -595 433 -591Q413 -576 402 -559Q402 -554 401 -550V-548Q394 -546 391 -539Q435 -525 433 -467Q434 -462 434 -451Q434 -411 422 -389H409L404 -382H400Q394 -381 387 -381H383Q377 -377 370 -374Q368 -374 365 -375Q357 -375 339 -367Q318 -358 304 -358H301Q300 -362 300 -369Q300 -380 316 -388Q336 -398 339 -403Q315 -398 296 -387Q277 -375 259 -367Q263 -373 273 -380Q284 -388 287 -392H280Q271 -391 264 -385Q257 -379 250 -374Q236 -365 222 -355Q207 -346 198 -331Q196 -315 194 -300Q189 -291 184 -282Q184 -279 183 -277Q183 -263 195 -239Q209 -222 242 -210Q274 -198 297 -188Q307 -190 317 -193H319Q327 -219 352 -238Q367 -249 402 -265V-261Q399 -233 396 -205Q396 -193 397 -188V-178Q397 -145 436 -110Q453 -103 494 -103Q540 -104 585 -106H594Q623 -105 652 -105Q681 -105 710 -106Q711 -112 717 -120Q725 -131 725 -137ZM759 -491V-481Q764 -483 768 -494H766Q763 -492 759 -491ZM678 -275H677Q672 -275 672 -269Q672 -262 676 -260Q677 -267 678 -275Z"/>
</svg>