<svg xmlns="http://www.w3.org/2000/svg" viewBox="0 -800 1024 1024">
	<path fill="#000000" d="M58 62Q79 62 84 49L146 -83Q151 -94 132 -98V-111H257V-98Q241 -98 236 -87L172 49Q166 61 187 62V75H58ZM307 -111H430V-98Q413 -95 417 -83L480 49Q485 62 504 62V75H378V62Q398 62 393 49L329 -87Q325 -99 307 -98ZM259 -520Q264 -542 243 -544H114Q101 -543 96 -525H83V-596H96Q99 -577 114 -577H277Q325 -577 339 -551Q352 -530 338 -490L255 -260Q242 -221 201 -206Q168 -193 124 -203Q91 -209 58 -233V-284H71Q84 -245 119 -238Q156 -233 171 -270ZM529 -111H652V-98Q635 -95 639 -83L702 49Q707 62 726 62V75H600V62Q619 62 615 49L551 -87Q547 -99 529 -98ZM719 -197Q736 -199 739 -216H752V-146H739Q733 -165 719 -165H283Q268 -163 263 -146H250V-216H263Q267 -196 283 -197ZM750 -111H876V-98Q857 -95 862 -83L924 49Q930 62 950 62V75H821V62Q843 62 836 49L772 -87Q768 -99 750 -98ZM784 -757Q829 -756 837 -723Q838 -688 807 -670L563 -563Q549 -557 549 -533V-350Q549 -308 523 -282Q494 -253 434 -251Q389 -250 340 -264V-317H352Q377 -279 421 -285Q459 -296 460 -333V-542Q460 -591 492 -606L726 -708Q734 -712 734 -719Q733 -725 724 -725H220Q204 -723 200 -706H187V-775H200Q202 -757 220 -757ZM836 -270Q851 -233 888 -238Q923 -245 936 -284H949V-233Q916 -209 883 -203Q839 -193 806 -206Q765 -221 752 -260L669 -490Q655 -530 668 -551Q682 -577 730 -577H893Q908 -577 911 -596H924V-525H911Q906 -543 893 -544H764Q743 -542 748 -520Z"/>
</svg>