<svg xmlns="http://www.w3.org/2000/svg" viewBox="0 -800 1024 1024">
	<path fill="#000000" d="M82 -776H95Q98 -757 113 -757H321Q338 -759 340 -776H353V-706H340Q336 -724 321 -725H113Q98 -723 95 -706H82ZM784 -545Q806 -550 810 -564L832 -626Q836 -642 814 -645V-657H927V-645Q909 -643 904 -626L882 -564Q877 -548 903 -545V-532H784ZM431 -657H548V-645Q524 -641 530 -626L558 -564Q567 -549 585 -545V-532H466V-545Q492 -548 486 -564L458 -626Q451 -642 431 -645ZM605 -657H722V-645Q698 -641 704 -626L733 -564Q740 -549 760 -545V-532H640V-545Q665 -548 661 -564L632 -626Q625 -642 605 -645ZM442 -692Q426 -690 422 -673H409V-744H422Q425 -725 442 -725H792Q807 -725 817 -737L830 -752Q836 -763 815 -768V-781H949V-768Q934 -766 923 -752L895 -721Q883 -705 867 -699Q853 -691 826 -692ZM857 -505Q893 -505 909 -494Q926 -482 926 -456V-430Q927 -409 948 -407V-394H818V-407Q842 -411 842 -430V-450Q842 -472 811 -473H511V-455Q511 -437 534 -436V-423H404V-436Q428 -436 428 -455V-468Q428 -488 404 -492V-505ZM359 38Q362 59 382 62V75H283V62Q301 59 298 38L296 5L267 24Q238 42 197 59Q112 92 86 55Q69 32 79 -21L157 -432H89Q76 -431 71 -413H58V-484H71Q74 -465 89 -465H346Q363 -467 366 -484H378V-413H366Q360 -432 346 -432H235L153 -1Q148 21 160 28Q172 35 200 26Q245 11 294 -21L279 -232Q279 -254 256 -254V-266H354V-254Q339 -250 341 -232ZM517 26Q508 55 491 70Q467 87 434 81Q406 74 389 52V1H401Q404 23 411 31Q418 44 426 40Q435 37 439 19L524 -318H440Q424 -316 420 -299H407V-369H420Q423 -351 440 -351H532L537 -370Q541 -391 514 -395V-408H644V-395Q619 -391 616 -370L611 -351H915Q932 -352 935 -369H948V-299H935Q931 -317 915 -318H603L585 -247H849Q891 -246 905 -212Q913 -184 887 -156L783 -52L867 26Q898 54 918 37Q933 26 936 -1H949V47Q937 66 918 75Q892 88 857 80Q824 74 800 52L737 -6L679 52Q658 73 633 80Q602 87 574 77Q549 67 535 47V-1H547Q550 19 561 31Q581 51 606 27L687 -54L597 -139L596 -140Q583 -152 568 -154V-168H703V-155Q682 -151 693 -137L733 -99L820 -185Q830 -196 827 -205Q822 -214 807 -214H577Z"/>
</svg>