<svg xmlns="http://www.w3.org/2000/svg" viewBox="0 -800 1024 1024">
	<path fill="#000000" d="M934 -723L941 -705L938 -696Q932 -689 927 -664Q927 -658 928 -657Q925 -639 925 -622V-611Q925 -605 926 -602Q923 -581 920 -561Q920 -555 921 -554L927 -505Q927 -501 928 -498Q930 -486 930 -483Q930 -477 923 -463Q916 -449 916 -439Q920 -431 923 -408Q916 -388 922 -368V-322Q918 -287 913 -252Q913 -231 914 -222V-191Q917 -183 919 -176L921 -171Q925 -162 925 -149Q925 -133 920 -113Q914 -92 914 -75Q919 -45 924 -18Q924 -7 925 2Q925 33 920 50Q915 60 907 60Q900 60 885 55Q870 50 861 50H834Q824 51 807 51H768Q738 51 720 50H665Q591 50 558 61Q514 63 487 63Q475 64 446 64H392Q368 62 344 60L319 62H293Q293 64 284 64H277Q226 68 214 75H212Q198 77 187 77Q166 73 144 68Q98 66 80 13Q78 -2 69 -23Q59 -45 59 -57Q63 -85 67 -106Q64 -135 60 -165Q60 -185 63 -197Q66 -206 66 -216Q66 -233 63 -253Q59 -264 59 -301Q59 -317 60 -327V-349Q64 -371 68 -394V-410Q67 -415 67 -425L71 -629Q75 -653 78 -677V-686Q78 -699 80 -709Q80 -721 87 -728Q92 -733 92 -738V-746Q90 -748 90 -752Q99 -774 128 -777Q168 -777 185 -776Q200 -775 214 -774Q294 -769 361 -769Q383 -769 402 -772H405L419 -774Q424 -775 437 -775Q523 -775 569 -772Q590 -768 618 -768Q633 -768 642 -769Q690 -769 714 -766Q738 -777 754 -778Q775 -774 795 -771L853 -766H859Q876 -766 901 -752Q928 -737 934 -723ZM781 -356H784Q795 -356 801 -366Q805 -373 805 -384Q807 -394 808 -405L804 -419V-429Q795 -446 791 -461V-464Q793 -469 795 -474V-475H793Q788 -472 783 -469Q777 -473 777 -480Q777 -487 787 -502Q793 -511 794 -515Q789 -513 780 -505Q769 -495 762 -494Q761 -495 761 -497Q764 -502 766 -508Q762 -507 750 -500Q749 -503 742 -511Q736 -518 734 -524Q735 -528 742 -537Q748 -544 748 -549V-550Q743 -549 736 -540Q728 -531 722 -529V-533Q710 -539 698 -548Q696 -546 694 -546Q691 -547 687 -548Q679 -540 669 -539Q658 -537 646 -536Q612 -528 578 -520Q539 -510 509 -498Q429 -471 383 -450Q372 -449 353 -441Q335 -434 322 -432Q318 -426 312 -424Q301 -433 292 -445Q283 -456 268 -463Q267 -460 264 -460Q256 -463 247 -466Q244 -466 244 -465Q236 -473 233 -478Q232 -484 227 -486Q225 -486 225 -483Q226 -478 227 -473Q227 -469 226 -469Q216 -471 212 -483Q208 -495 204 -505Q203 -503 203 -498Q207 -482 210 -466Q210 -459 207 -456Q204 -466 198 -474V-470Q200 -456 201 -442V-440Q192 -432 184 -425Q176 -417 174 -405Q174 -403 173 -401Q173 -393 181 -382Q185 -376 186 -371V-370Q185 -363 183 -357V-351Q183 -335 198 -311Q214 -284 234 -277Q249 -272 260 -265Q269 -255 278 -230Q292 -212 296 -190Q296 -186 295 -183Q301 -179 311 -167Q319 -157 325 -153Q342 -148 358 -144Q363 -144 369 -146Q371 -158 376 -168Q403 -191 451 -196Q498 -201 544 -203Q550 -197 556 -192Q562 -186 563 -175V-171Q566 -173 569 -176H570L580 -167Q584 -168 588 -170Q589 -167 593 -164Q596 -161 597 -158Q594 -156 594 -152Q594 -150 596 -146H597Q601 -149 605 -152Q608 -149 615 -149Q624 -149 627 -146Q627 -149 629 -149Q631 -149 633 -150Q653 -220 702 -270Q711 -296 729 -315L737 -317Q751 -342 781 -356ZM577 -316H587Q585 -311 561 -271H549Q485 -266 423 -255Q428 -268 435 -302Q442 -340 451 -356V-357Q451 -359 450 -361V-362Q453 -366 454 -372Q456 -378 460 -379Q458 -385 454 -388Q460 -398 473 -398H476Q474 -386 469 -366Q460 -346 460 -337V-334Q464 -319 473 -305Q481 -293 494 -293H495Q504 -295 516 -303Q547 -316 577 -316ZM609 -407H608Q601 -407 595 -396Q590 -388 587 -386Q560 -382 532 -378Q544 -416 544 -419Q561 -427 582 -431Q603 -435 626 -440Q639 -443 652 -447Q658 -447 659 -446Q618 -371 610 -352Q604 -356 603 -360Q603 -364 610 -369Q603 -369 601 -373Q599 -375 599 -379Q603 -397 609 -407ZM420 -255Q389 -250 357 -246Q347 -278 346 -299Q362 -299 369 -294Q369 -291 363 -289Q358 -288 357 -286Q372 -285 384 -271Q393 -261 398 -259H403Q412 -257 420 -255ZM383 -362Q376 -338 370 -330Q360 -316 340 -316Q335 -321 335 -326Q337 -335 349 -344Q354 -349 362 -356Q369 -362 380 -363Q382 -362 383 -362ZM366 -306Q355 -304 346 -301Q342 -304 342 -310Q349 -310 355 -311Q364 -311 366 -306ZM754 -560H756Q764 -562 765 -568Q765 -573 760 -574Q754 -565 754 -563Z"/>
</svg>