<svg xmlns="http://www.w3.org/2000/svg" viewBox="0 -800 1024 1024">
	<path fill="#000000" d="M161 42H378Q410 42 410 15V-21Q395 -12 380 -10Q326 -8 317 -54L292 -258Q291 -265 286 -269L256 -55Q247 -8 192 -11Q175 -12 161 -21ZM524 -567H537Q541 -541 559 -530Q581 -518 589 -541L651 -748Q656 -764 631 -768V-781H762V-768Q740 -764 735 -748L708 -659H902Q920 -661 922 -678H935V-607H922Q918 -625 902 -626H698L673 -541Q663 -507 632 -494Q607 -482 578 -488Q545 -495 524 -514ZM247 -781H386V-768Q358 -764 359 -736V-664H467Q485 -666 488 -683H501V-613H488Q483 -632 467 -632H359V-500H480Q497 -501 499 -518H512V-449H499Q494 -467 479 -467H92Q76 -466 71 -448H58V-518H71Q75 -500 92 -500H116V-683Q117 -713 89 -714V-727H213V-714Q186 -710 186 -683V-500H275V-736Q276 -768 247 -768ZM808 -375Q818 -385 815 -395Q812 -404 798 -404H587Q572 -402 567 -385H554V-455H567Q570 -436 587 -436H837Q889 -436 898 -403Q908 -372 878 -338L639 -72Q608 -37 612 4Q621 50 679 53Q752 56 816 42Q916 20 936 -39H949V21Q888 60 820 74Q742 90 640 85Q552 80 533 8Q522 -57 573 -118ZM393 -41Q402 -43 410 -52V-370Q410 -389 380 -391V-404H507V-391Q485 -388 484 -370V7Q484 42 462 60Q444 76 403 76H64V63Q87 59 87 39V-370Q87 -389 64 -391V-404H185V-391Q162 -388 161 -370V-51Q168 -42 177 -42Q198 -38 203 -63L250 -402Q253 -417 232 -420V-433H327V-420Q308 -419 304 -402L288 -289H362V-276Q342 -274 344 -258L368 -61Q373 -37 393 -41Z"/>
</svg>