<svg xmlns="http://www.w3.org/2000/svg" viewBox="0 -800 1024 1024">
	<path fill="#000000" d="M848 -674Q846 -661 832 -661Q828 -661 826 -662Q830 -674 842 -677Q845 -677 848 -674ZM788 -497H785Q762 -493 746 -488H745Q734 -488 714 -499Q694 -510 682 -510Q676 -510 673 -509V-510Q673 -515 679 -519Q683 -522 684 -524Q682 -530 677 -530Q664 -525 650 -521H649Q652 -529 664 -535Q673 -539 676 -543Q670 -559 670 -572Q666 -582 647 -590Q633 -596 629 -600Q635 -602 637 -602Q648 -602 656 -594Q664 -597 668 -604Q672 -611 676 -617V-618Q674 -622 671 -626Q671 -628 672 -629Q674 -628 678 -628Q695 -628 695 -658Q695 -672 690 -695Q694 -691 701 -676Q709 -659 718 -653H724Q737 -653 752 -645Q765 -638 771 -638H774Q782 -639 795 -647Q813 -658 823 -659Q819 -653 807 -645Q791 -633 786 -624Q787 -621 793 -616Q799 -611 800 -607Q806 -608 820 -614Q835 -620 847 -621Q842 -615 831 -608Q816 -599 813 -593Q813 -584 816 -575Q820 -570 836 -568Q855 -566 857 -558Q853 -559 843 -559Q816 -559 816 -541V-537Q816 -535 819 -535Q823 -535 827 -536Q832 -536 832 -531Q814 -530 806 -519Q797 -508 788 -497ZM810 -51V-47Q809 -1 785 18Q775 23 765 23Q743 23 720 7Q699 -8 690 -27Q687 -40 684 -54Q677 -68 675 -82Q675 -90 683 -113Q690 -132 691 -141Q693 -163 693 -176Q692 -215 690 -254Q690 -267 691 -273V-277Q691 -279 696 -282Q691 -301 685 -321Q679 -328 673 -335Q671 -351 668 -368Q662 -402 656 -437Q664 -435 671 -423Q676 -414 681 -411Q694 -422 694 -434V-437Q699 -434 703 -434Q712 -436 721 -446Q726 -444 735 -444Q753 -446 771 -448Q779 -448 783 -446Q797 -441 806 -410Q814 -384 823 -377V-373Q823 -362 829 -354Q828 -348 822 -335Q815 -319 815 -309Q816 -305 816 -302Q804 -287 803 -280Q796 -215 796 -176Q796 -160 798 -138Q807 -91 810 -51ZM518 -239V-233Q518 -221 515 -214Q509 -214 509 -228Q509 -239 516 -239ZM543 -18H541Q536 -18 526 -10Q519 -4 515 -3Q503 0 493 0Q461 0 419 -33Q405 -66 384 -92Q362 -118 343 -145Q307 -121 278 -76Q259 -47 231 12Q224 12 220 18Q218 21 215 29Q212 31 206 31Q192 28 178 24Q177 16 165 2Q154 -10 152 -19V-21Q153 -29 154 -37Q154 -46 146 -50Q146 -80 152 -107Q156 -115 160 -123Q161 -128 161 -137Q160 -162 158 -187Q158 -206 164 -217Q172 -163 182 -137Q213 -150 224 -168Q242 -177 256 -191Q270 -205 283 -220Q272 -232 264 -244Q256 -256 243 -264Q229 -268 215 -270Q198 -277 182 -292Q165 -308 151 -318Q155 -337 158 -356Q158 -367 151 -377Q157 -375 163 -374H166Q164 -380 153 -390Q143 -399 142 -405H143Q149 -405 158 -397Q165 -391 170 -391Q174 -391 176 -392Q176 -398 169 -403Q164 -407 163 -411Q165 -413 166 -413Q167 -413 173 -410Q182 -424 201 -437Q224 -453 245 -453Q256 -453 268 -447Q274 -441 278 -434Q287 -428 295 -423Q305 -413 313 -402Q322 -390 334 -384Q356 -351 381 -321Q416 -353 444 -395Q451 -403 460 -412Q468 -420 469 -432Q465 -435 449 -437Q476 -462 508 -486Q509 -487 512 -487Q527 -485 541 -483H543Q550 -484 556 -486H558Q578 -474 583 -447V-445Q581 -438 579 -431Q581 -419 583 -408Q591 -382 592 -380Q585 -362 583 -339Q582 -339 580 -340Q576 -340 572 -335Q568 -330 566 -329Q559 -326 549 -326H532Q500 -320 478 -297Q455 -274 435 -255Q451 -230 467 -206Q483 -181 506 -165Q508 -186 515 -201Q515 -176 520 -162Q523 -173 524 -201Q525 -232 529 -245Q534 -203 540 -161Q545 -119 558 -85Q544 -47 543 -18Z"/>
</svg>