<svg xmlns="http://www.w3.org/2000/svg" viewBox="0 -800 1024 1024">
	<path fill="#000000" d="M795 -213Q783 -216 770 -220Q767 -215 765 -207Q789 -207 795 -213ZM602 48H587Q576 48 575 41Q579 39 585 39Q598 39 602 48ZM889 -640V-643Q890 -658 902 -659Q906 -659 909 -655Q908 -648 902 -645Q899 -643 889 -640ZM673 -332Q688 -343 688 -354Q688 -364 687 -367Q659 -362 661 -350Q661 -345 663 -339Q665 -333 673 -332ZM612 -316Q608 -323 607 -324Q603 -329 598 -329Q583 -329 575 -324Q574 -322 574 -316Q574 -309 577 -306Q589 -307 612 -316ZM652 -427L686 -436Q686 -449 682 -454Q647 -454 643 -442Q647 -434 652 -427ZM752 -339H756Q770 -368 783 -398H777Q755 -398 745 -383Q738 -372 735 -345L738 -346Q741 -346 744 -343Q748 -339 752 -339ZM732 -291Q725 -294 718 -297Q689 -296 662 -288Q634 -279 611 -272Q582 -265 578 -247Q603 -257 649 -266Q705 -277 732 -291ZM467 -305Q438 -285 435 -279Q445 -281 454 -284Q447 -275 440 -266Q447 -231 436 -207Q423 -190 398 -183Q327 -173 316 -162Q313 -151 309 -130Q305 -109 307 -80Q350 -104 370 -114Q386 -128 402 -132Q401 -129 392 -121Q382 -113 381 -109L382 -107L385 -106Q392 -112 403 -115Q390 -97 393 -65Q397 -33 396 -25Q392 -16 385 -3Q378 10 360 15L351 23V24Q351 30 346 33Q341 36 333 41Q321 52 308 62Q285 79 270 79Q253 79 249 60Q235 60 227 50Q219 40 219 26Q219 -8 229 -19Q226 -26 226 -35Q226 -49 235 -58Q241 -93 243 -101Q241 -116 238 -132H232Q201 -114 169 -97Q140 -84 121 -99Q115 -125 104 -137L111 -158Q107 -165 94 -177Q81 -188 77 -197Q94 -189 111 -182L112 -184Q109 -190 109 -191V-193Q115 -190 119 -190Q140 -192 188 -213Q220 -227 235 -231Q235 -254 228 -262Q216 -254 186 -246Q178 -242 160 -237Q156 -236 149 -239Q128 -262 96 -262Q96 -275 108 -282Q107 -285 107 -292Q107 -309 123 -320Q137 -330 158 -334Q175 -343 191 -353Q228 -364 287 -385Q322 -395 358 -411V-410L356 -407L360 -406Q371 -409 381 -413H383Q372 -399 373 -393Q373 -388 378 -384Q386 -389 389 -389Q384 -385 384 -376Q385 -366 395 -354Q383 -338 386 -310Q382 -312 380 -311Q376 -311 375 -307Q373 -304 372 -301Q358 -297 351 -296Q328 -282 315 -276Q313 -260 313 -254Q364 -270 414 -286Q428 -295 464 -310Q456 -323 447 -336Q448 -339 448 -343Q448 -350 444 -364Q458 -366 465 -373Q473 -381 480 -388Q483 -389 489 -389Q497 -389 508 -384Q519 -379 525 -379H526Q537 -379 557 -390Q577 -401 590 -402Q592 -405 592 -411Q592 -418 589 -424Q579 -421 552 -404Q542 -406 528 -418Q518 -426 512 -429V-433Q512 -443 504 -457Q498 -468 497 -471Q496 -475 496 -482Q496 -493 501 -510Q507 -530 507 -540Q513 -546 522 -549Q509 -563 501 -569Q488 -579 474 -579Q468 -579 457 -576Q472 -582 472 -600Q472 -622 450 -625Q451 -630 460 -633Q467 -635 468 -637Q472 -654 482 -663Q480 -682 477 -702Q483 -700 488 -688Q492 -679 495 -677Q506 -679 511 -692Q512 -695 516 -717Q519 -713 521 -699Q523 -681 531 -677Q536 -679 542 -694Q547 -707 553 -708Q549 -696 549 -686Q550 -669 560 -660Q571 -651 584 -642Q589 -643 597 -651Q604 -658 608 -658L612 -657Q609 -648 605 -639Q605 -635 604 -631Q604 -619 611 -599Q618 -579 618 -570Q641 -575 664 -580Q664 -586 654 -586H646Q660 -608 674 -630Q680 -641 685 -652Q691 -663 700 -669L710 -693Q706 -696 706 -701Q710 -715 713 -729Q706 -737 692 -740Q709 -762 733 -775Q758 -788 781 -803Q794 -797 809 -795Q818 -774 838 -764Q858 -754 860 -731V-727Q858 -708 851 -691Q845 -664 836 -640Q803 -639 783 -614Q807 -618 831 -636Q835 -636 838 -631Q840 -627 842 -627Q848 -627 857 -632Q869 -639 878 -639H882Q879 -634 869 -627Q853 -616 853 -608Q853 -604 854 -602Q859 -605 862 -608Q866 -611 873 -611H877Q872 -597 867 -583L870 -581Q874 -583 878 -585Q880 -585 882 -583Q882 -580 876 -571Q868 -559 868 -548V-543Q853 -505 808 -502H806L777 -492Q774 -487 763 -484Q752 -481 750 -477Q755 -466 765 -459Q795 -467 815 -477Q836 -493 860 -499Q870 -498 880 -498Q891 -498 897 -505Q897 -502 892 -490Q899 -491 909 -504Q920 -517 928 -520Q928 -515 921 -506Q911 -492 911 -480V-477Q922 -484 926 -495L925 -488Q927 -461 951 -453Q953 -427 953 -416Q953 -401 950 -385Q936 -377 924 -368Q911 -358 894 -354L883 -330Q881 -319 870 -304Q856 -284 855 -269Q848 -266 846 -258Q845 -250 842 -243Q835 -234 833 -227V-225Q832 -224 826 -223Q821 -223 820 -220Q823 -219 829 -219Q839 -219 855 -228Q871 -237 880 -237H882Q886 -237 894 -231Q904 -224 910 -223Q920 -225 929 -228H932L926 -207Q930 -205 934 -205Q942 -206 950 -207V-206Q947 -198 944 -191V-190Q945 -186 950 -183Q955 -180 956 -177Q953 -171 953 -162V-157Q940 -144 938 -141Q942 -133 942 -129Q937 -126 933 -123Q928 -120 928 -112L867 -114Q831 -117 795 -121Q779 -121 771 -117Q761 -112 761 -92Q763 -68 765 -44Q765 -39 763 -31L766 3Q773 3 773 9Q773 15 774 21Q779 37 784 53V56Q784 66 783 75Q783 83 786 86Q767 107 745 128Q703 120 689 96Q687 89 685 81Q674 65 656 61Q637 57 612 53Q617 49 625 49Q644 52 662 54Q667 54 670 53Q657 45 623 38Q588 31 572 20Q582 21 608 27Q642 35 663 35H667Q663 30 647 29Q635 28 632 26Q659 24 679 17Q689 -3 693 -39Q694 -52 698 -105Q664 -103 624 -90Q649 -65 659 -51Q658 -47 658 -40Q659 -27 660 -15Q660 -2 652 7Q637 9 627 17Q615 9 600 0Q585 -10 571 -11Q568 -11 562 -9Q561 -14 560 -18Q559 -23 554 -24Q545 -23 534 -15Q523 -8 518 -6Q529 -18 541 -28Q552 -39 554 -59H552Q523 -59 494 -30H492Q478 -30 467 -38Q460 -43 448 -57Q439 -67 428 -75Q417 -84 416 -98Q416 -101 418 -109Q420 -114 428 -121Q436 -128 438 -132Q443 -147 448 -163Q459 -165 471 -177Q486 -191 500 -192Q498 -187 491 -181Q482 -173 480 -166Q486 -164 490 -164Q512 -167 533 -171Q540 -171 544 -168L590 -177Q613 -187 642 -190Q671 -193 698 -198Q701 -202 701 -206Q698 -218 695 -230V-232Q667 -225 639 -221Q610 -217 587 -204Q580 -199 573 -191Q566 -183 557 -181H554Q549 -181 540 -186Q530 -192 525 -192Q502 -207 494 -235Q485 -264 477 -294Q473 -297 467 -305ZM140 -586Q138 -592 138 -596Q138 -613 150 -613Q149 -615 149 -618Q150 -624 150 -630V-632L147 -633Q139 -630 131 -628H130Q133 -633 138 -647Q143 -661 149 -668Q160 -683 179 -696Q184 -700 194 -712Q203 -723 210 -727Q233 -727 242 -724Q258 -705 280 -681Q303 -657 305 -624Q305 -617 304 -611Q303 -604 291 -590Q274 -570 274 -559Q297 -564 329 -580Q355 -593 364 -596Q367 -608 367 -610Q373 -600 388 -600Q397 -600 404 -604Q412 -585 423 -585H427Q430 -563 448 -551Q439 -524 450 -492Q438 -474 438 -460Q430 -461 422 -462Q414 -462 414 -456Q411 -457 405 -457Q390 -457 364 -445Q337 -432 321 -431Q275 -414 230 -395L219 -390Q178 -369 170 -365Q138 -347 131 -332Q119 -325 104 -330Q80 -341 74 -349Q66 -360 62 -392V-413Q62 -430 60 -438Q60 -442 59 -446Q59 -475 85 -490Q88 -498 105 -527Q108 -540 117 -552Q129 -569 140 -586Z"/>
</svg>