<svg xmlns="http://www.w3.org/2000/svg" viewBox="0 -800 1024 1024">
	<path fill="#000000" d="M796 -802H794Q791 -805 791 -809Q791 -817 801 -817Q806 -817 808 -815Q806 -802 796 -802ZM820 -682V-680Q818 -676 811 -669Q801 -659 800 -651Q803 -646 811 -638Q824 -626 826 -616Q807 -626 794 -638Q784 -635 767 -626Q743 -613 728 -613Q722 -613 718 -614Q709 -616 697 -630Q684 -645 676 -645Q670 -645 662 -637Q657 -632 654 -631Q655 -641 664 -650Q671 -657 673 -661Q672 -671 665 -683Q658 -695 657 -702V-705Q660 -718 663 -731Q662 -741 649 -753Q635 -766 633 -776Q640 -774 653 -765Q669 -754 679 -754H680Q688 -755 699 -765Q712 -776 722 -777Q728 -788 730 -816Q732 -839 734 -846Q737 -820 739 -796Q741 -778 761 -776Q765 -777 771 -784Q777 -791 785 -791H787Q780 -780 775 -764Q791 -751 806 -737Q810 -727 817 -722Q823 -720 826 -720Q843 -724 866 -728Q872 -728 876 -727Q869 -719 858 -717Q847 -715 839 -711Q827 -706 820 -691Q819 -690 819 -688Q820 -685 820 -682ZM807 -422H809Q810 -421 810 -419Q808 -414 805 -409Q824 -359 824 -338Q824 -331 823 -327Q818 -299 795 -275Q773 -251 752 -230Q741 -219 728 -211Q731 -222 747 -238Q762 -253 764 -269Q743 -256 728 -230Q712 -204 682 -194Q708 -222 716 -233Q734 -256 740 -281Q730 -278 721 -278Q693 -278 666 -305Q665 -313 657 -328Q648 -345 647 -355V-357Q647 -372 656 -385Q661 -392 676 -407Q676 -430 670 -441Q670 -443 673 -443Q676 -442 682 -433Q689 -423 695 -421Q709 -434 736 -434Q773 -434 794 -415Q797 -415 800 -418Q804 -422 807 -422Z"/>
</svg>