<svg xmlns="http://www.w3.org/2000/svg" viewBox="0 -800 1024 1024">
	<path fill="#000000" d="M934 -723L941 -705L938 -696Q932 -689 927 -664Q927 -658 928 -657Q925 -639 925 -622V-611Q925 -605 926 -602Q923 -581 920 -561Q920 -555 921 -554L927 -505Q927 -501 928 -498Q930 -486 930 -483Q930 -477 923 -463Q916 -449 916 -439Q920 -431 923 -408Q916 -388 922 -368V-322Q918 -287 913 -252Q913 -231 914 -222V-191Q917 -183 919 -176L921 -171Q925 -162 925 -149Q925 -133 920 -113Q914 -92 914 -75Q919 -45 924 -18Q924 -7 925 2Q925 33 920 50Q915 60 907 60Q900 60 885 55Q870 50 861 50H834Q824 51 807 51H768Q738 51 720 50H665Q591 50 558 61Q514 63 487 63Q475 64 446 64H392Q368 62 344 60L319 62H293Q293 64 284 64H277Q226 68 214 75H212Q198 77 187 77Q166 73 144 68Q98 66 80 13Q78 -2 69 -23Q59 -45 59 -57Q63 -85 67 -106Q64 -135 60 -165Q60 -185 63 -197Q66 -206 66 -216Q66 -233 63 -253Q59 -264 59 -301Q59 -317 60 -327V-349Q64 -371 68 -394V-410Q67 -415 67 -425L71 -629Q75 -653 78 -677V-686Q78 -699 80 -709Q80 -721 87 -728Q92 -733 92 -738V-746Q90 -748 90 -752Q99 -774 128 -777Q168 -777 185 -776Q200 -775 214 -774Q294 -769 361 -769Q383 -769 402 -772H405L419 -774Q424 -775 437 -775Q523 -775 569 -772Q590 -768 618 -768Q633 -768 642 -769Q690 -769 714 -766Q738 -777 754 -778Q775 -774 795 -771L853 -766H859Q876 -766 901 -752Q928 -737 934 -723ZM623 -51H628Q647 -56 656 -75V-81Q656 -92 649 -120Q642 -148 641 -161Q641 -186 640 -211Q641 -245 641 -279Q641 -305 640 -315V-323Q642 -345 644 -368Q718 -387 767 -387Q776 -386 785 -386H789Q797 -386 813 -394V-415Q818 -420 819 -420H821Q818 -429 818 -444Q818 -460 823 -468Q818 -472 818 -477Q818 -484 824 -494Q820 -493 815 -492Q813 -492 812 -494V-498Q815 -505 818 -513H816Q811 -511 806 -509H805V-510Q806 -519 814 -525Q822 -531 829 -537Q820 -537 808 -530Q797 -523 789 -523Q788 -524 788 -525Q790 -528 791 -532Q791 -534 790 -534Q726 -511 657 -502Q662 -518 666 -536Q671 -553 684 -561Q685 -576 693 -600Q688 -609 686 -621V-626Q674 -633 655 -655Q637 -676 624 -684H618Q612 -684 602 -690Q597 -685 575 -683H574Q573 -683 573 -681V-679Q573 -678 572 -678H569Q560 -681 551 -684Q549 -684 545 -682Q556 -671 560 -660Q560 -653 551 -649Q552 -647 552 -646Q550 -637 545 -628V-625Q545 -617 554 -600Q561 -586 563 -577Q565 -557 565 -546Q564 -522 563 -498Q564 -493 564 -489Q564 -484 560 -481Q541 -479 538 -475Q534 -475 530 -476Q506 -472 482 -469H476Q472 -467 467 -465H465Q463 -467 463 -471V-474Q451 -480 445 -491Q438 -501 430 -511H428Q413 -515 398 -519H396Q388 -515 380 -511Q368 -512 361 -523Q354 -535 344 -540Q353 -523 362 -507Q350 -514 337 -534Q325 -553 317 -558Q316 -557 316 -554Q319 -544 328 -536Q344 -505 347 -494Q340 -503 333 -512Q338 -502 338 -486Q338 -466 329 -444V-442Q331 -439 332 -436Q332 -435 331 -435Q319 -434 295 -426Q257 -414 238 -414Q230 -414 227 -415Q225 -421 225 -423Q225 -430 236 -440Q244 -447 246 -453H245Q241 -453 226 -442Q183 -414 175 -404Q167 -395 167 -375Q167 -363 168 -357Q156 -342 156 -318Q156 -298 166 -288Q180 -279 196 -275Q206 -268 219 -256Q231 -244 247 -243H251Q260 -245 265 -253Q269 -262 277 -270Q287 -277 305 -280Q322 -287 340 -295Q357 -304 371 -305Q371 -207 342 -171Q350 -163 351 -154V-153Q349 -148 347 -144Q355 -138 361 -119Q366 -101 372 -95Q382 -88 392 -81Q401 -84 420 -84Q441 -104 482 -107Q522 -109 561 -109Q574 -99 575 -96Q573 -90 570 -84H572Q576 -85 579 -86Q594 -51 623 -51ZM550 -204Q469 -198 462 -198Q448 -198 441 -199Q457 -264 467 -334Q511 -350 559 -354Q560 -341 561 -328Q560 -325 555 -323Q550 -321 549 -320Q550 -318 552 -318Q554 -318 557 -319Q559 -319 559 -318Q560 -313 560 -302Q556 -254 550 -204ZM800 -545V-541Q810 -544 813 -552Q812 -553 812 -555Q800 -555 800 -545Z"/>
</svg>