<svg xmlns="http://www.w3.org/2000/svg" viewBox="0 -800 1024 1024">
	<path fill="#000000" d="M63 -662H154V-649Q135 -647 137 -629L156 -463Q158 -445 179 -442V-430H85V-442Q105 -445 103 -463L84 -629Q82 -647 63 -649ZM58 -173H71Q73 -152 80 -138Q87 -131 93 -135Q99 -140 99 -154L107 -343Q108 -360 89 -364V-377H177V-364Q161 -360 158 -344L149 -154Q147 -123 129 -109Q108 -92 83 -104Q70 -110 58 -129ZM889 -506Q907 -508 910 -524H923V-453H910Q906 -471 889 -472H398Q382 -471 377 -453H364V-524H377Q382 -506 398 -506H600V-564Q599 -587 572 -591V-603H716V-590Q688 -587 688 -564V-506ZM406 -429H536V-416Q513 -413 519 -397L572 -298H716L768 -397Q775 -414 751 -416V-429H882V-416Q863 -413 856 -399L803 -298H915Q933 -300 936 -317H949V-246H936Q932 -264 915 -265H378Q362 -263 358 -246H345V-317H358Q361 -298 378 -298H485L432 -399Q423 -412 406 -416ZM773 43Q810 41 813 3V-122Q813 -160 773 -160H482V43ZM915 -682Q933 -684 936 -701H949V-630H936Q931 -649 915 -649H294V1Q293 56 241 77Q195 93 144 73Q112 60 92 42V-11H105Q116 30 164 42Q206 46 208 6V-640Q209 -665 183 -669V-682H531V-743Q531 -765 503 -768V-781H647V-768Q619 -764 619 -743V-682ZM806 -194Q860 -194 881 -170Q899 -152 899 -111V-11Q899 31 880 51Q857 76 803 76H369V63Q393 59 394 37V-156Q393 -175 369 -181V-194Z"/>
</svg>