<svg xmlns="http://www.w3.org/2000/svg" viewBox="0 -800 1024 1024">
	<path fill="#000000" d="M681 -395V-271H847V-342Q848 -395 794 -395ZM681 42H792Q848 43 847 -8V-82H681ZM681 -238V-114H847V-238ZM399 -64Q399 -48 416 -48V-35H337V-48Q355 -49 354 -64L328 -471Q327 -484 311 -487V-500H390V-487Q372 -485 372 -471ZM102 -471Q104 -486 85 -487V-500H164V-487Q149 -485 146 -471L120 -43Q120 -28 137 -27V-15H58V-27Q75 -28 75 -43ZM278 31Q276 58 306 62V75H169V62Q198 58 197 31V-575H108Q92 -574 87 -556H74V-627H87Q92 -608 108 -608H197V-737Q197 -768 169 -769V-781H306V-769Q278 -765 278 -737V-608H367Q385 -609 388 -627H401V-556H388Q384 -574 367 -575H278ZM532 4Q532 46 509 66Q480 91 433 81Q394 72 370 44V-6H383Q391 33 421 40Q449 41 451 9V-671Q451 -698 423 -702V-715H769Q795 -714 807 -732L824 -754Q831 -765 808 -769V-781H948V-769Q932 -766 922 -755L892 -714Q878 -696 856 -689Q836 -682 803 -682H532V-567H721L725 -611Q727 -627 701 -630V-643H832V-630Q808 -630 806 -611L802 -567H915Q933 -569 936 -586H949V-515H936Q931 -534 915 -534H800L791 -428H811Q869 -428 896 -404Q921 -382 921 -327V-22Q921 27 896 50Q870 75 812 75H582V62Q605 58 606 35V-391Q605 -411 582 -415V-428H710L719 -534H532Z"/>
</svg>