<svg xmlns="http://www.w3.org/2000/svg" viewBox="0 -800 1024 1024">
	<path fill="#000000" d="M370 -72L401 -107Q420 -127 431 -141Q423 -153 415 -165Q378 -224 366 -239Q350 -259 311 -280Q281 -296 271 -306Q261 -316 256 -330Q256 -333 255 -337Q257 -350 259 -363Q259 -369 256 -375Q264 -393 268 -397Q259 -414 250 -432Q241 -449 240 -474Q263 -437 274 -426Q273 -435 265 -444Q255 -456 255 -466V-469Q269 -450 287 -438Q288 -440 288 -443Q288 -447 283 -450Q277 -454 277 -458V-459Q295 -450 310 -450Q319 -450 328 -453Q329 -453 329 -454Q329 -456 328 -458V-460Q336 -459 349 -452Q362 -444 370 -444Q382 -445 394 -447H397Q412 -445 421 -435Q431 -426 441 -420Q443 -418 443 -411Q448 -406 454 -399Q461 -393 462 -384Q469 -323 513 -242Q581 -354 613 -412Q607 -414 603 -414Q592 -411 581 -409Q582 -419 596 -426Q612 -434 612 -446V-450Q621 -451 637 -461Q655 -472 666 -472H668Q678 -472 694 -466Q712 -459 720 -459Q731 -446 743 -402Q756 -376 760 -345Q760 -333 758 -327Q750 -321 739 -321Q729 -321 717 -319Q695 -315 681 -302Q668 -289 653 -273Q647 -268 640 -264Q602 -226 572 -184Q528 -121 498 -84Q465 -44 444 -14Q402 43 391 61Q364 104 355 144Q347 148 340 148Q316 148 298 128Q291 120 284 99Q275 69 258 64Q267 52 271 33Q271 29 268 24Q300 8 322 -17Q345 -42 370 -72ZM454 -511H449Q431 -512 413 -513Q404 -513 401 -511V-512Q401 -515 405 -517Q408 -518 409 -520Q405 -530 391 -530Q373 -527 355 -524Q357 -532 364 -533Q371 -535 377 -538Q374 -539 369 -539Q364 -539 334 -530V-532Q334 -542 349 -548Q362 -553 362 -560V-563H360Q343 -563 314 -552Q289 -543 278 -541Q279 -549 286 -553Q293 -557 300 -560Q336 -579 438 -620Q469 -631 494 -644Q506 -653 518 -662Q529 -672 543 -678V-689H544Q550 -687 553 -682Q557 -684 562 -685Q567 -686 568 -691V-692Q572 -693 578 -693Q594 -692 604 -685Q615 -677 626 -672Q634 -653 642 -634Q651 -615 652 -594Q652 -582 648 -571Q622 -567 596 -563Q554 -559 519 -543Q485 -526 454 -511ZM308 -521V-530Q311 -535 319 -535Q323 -535 326 -532Q323 -521 308 -521Z"/>
</svg>