<svg xmlns="http://www.w3.org/2000/svg" viewBox="0 -800 1024 1024">
	<path fill="#000000" d="M59 -520H205V-507Q174 -500 187 -482L282 -356Q295 -338 317 -332V-320H170V-332Q201 -339 189 -356L94 -482Q77 -505 59 -507ZM59 -781H205V-769Q175 -763 187 -744L282 -611Q294 -593 317 -586V-574H170V-586Q201 -593 188 -612L94 -744Q77 -767 59 -769ZM339 -716H463V-703Q441 -699 445 -681L508 -486Q516 -468 533 -465V-452H409V-465Q431 -468 429 -484L364 -681Q358 -699 339 -703ZM748 -465Q766 -468 773 -485L835 -681Q839 -698 818 -702V-715H942V-702Q924 -699 917 -681L854 -485Q850 -470 872 -465V-452H748ZM210 -227Q215 -244 188 -251V-264H329V-251Q306 -247 301 -227L233 15Q223 50 199 67Q176 87 134 83Q84 77 58 49V-5H71Q76 26 106 41Q132 48 142 17ZM474 -268Q474 -286 451 -292V-305H588V-292Q565 -290 562 -268L530 8Q526 49 486 72Q442 92 390 77Q350 67 328 42V-12H340Q346 19 377 36Q434 61 443 10ZM804 -6Q810 60 886 38Q931 19 936 -16H949V40Q927 65 880 77Q803 94 753 61Q715 35 715 -15V-365H366Q350 -364 345 -346H333V-416H345Q350 -397 366 -397H596V-737Q597 -769 568 -769V-781H714V-769Q685 -765 686 -737V-397H915Q933 -399 936 -416H949V-346H936Q931 -365 915 -365H804Z"/>
</svg>