<svg xmlns="http://www.w3.org/2000/svg" viewBox="0 -800 1024 1024">
	<path fill="#000000" d="M860 -70V-68Q846 -62 837 -50Q828 -37 817 -26Q813 -23 776 4Q758 19 739 34Q727 40 714 45Q701 49 693 61Q677 62 664 69Q650 76 637 81Q606 88 581 97Q530 106 466 106Q362 106 301 78Q230 45 215 35Q211 33 169 -4Q46 -116 41 -351Q42 -366 42 -382Q50 -547 172 -676Q283 -791 469 -805Q481 -805 492 -806Q593 -806 682 -766Q741 -740 794 -691Q801 -683 810 -675Q819 -669 828 -663Q839 -651 873 -598Q915 -534 937 -446Q953 -398 958 -357Q956 -344 953 -332Q954 -318 955 -304Q954 -273 937 -223Q918 -161 881 -107Q881 -97 868 -90Q868 -86 864 -81Q860 -75 860 -70ZM804 -201V-204Q802 -216 800 -228Q800 -236 804 -240Q803 -241 802 -241Q800 -240 798 -240Q797 -240 797 -241Q795 -243 795 -246Q798 -252 800 -258Q798 -258 797 -259Q792 -257 787 -255Q785 -259 785 -262Q789 -274 795 -282Q783 -276 778 -276Q752 -278 749 -312Q749 -319 750 -323Q747 -320 745 -310Q742 -295 736 -294Q735 -294 735 -296V-300Q735 -302 734 -302Q701 -285 680 -281Q654 -276 606 -273Q559 -271 544 -268Q538 -271 533 -271Q529 -271 515 -267Q514 -266 512 -266Q511 -266 508 -269Q505 -265 501 -265Q495 -266 488 -267Q483 -265 478 -263Q474 -264 469 -265Q465 -264 460 -263Q443 -261 422 -257Q417 -257 412 -258Q406 -254 388 -254Q367 -254 358 -249Q356 -251 349 -251Q339 -251 336 -246Q335 -247 331 -247Q321 -246 311 -246Q294 -246 292 -257V-258Q292 -268 312 -285Q322 -290 324 -296V-297Q312 -294 289 -278Q265 -261 253 -257Q239 -254 234 -251Q226 -246 226 -236V-231Q204 -217 202 -184Q202 -169 211 -160Q223 -150 238 -143Q250 -120 272 -119H273Q290 -120 300 -130Q311 -141 321 -147L352 -156Q371 -163 436 -171Q459 -178 518 -182Q531 -183 556 -183Q591 -182 626 -182Q649 -181 682 -173Q723 -162 760 -158Q765 -158 777 -160Q783 -166 790 -180Q802 -194 804 -201ZM601 -418H605Q623 -420 632 -442Q643 -469 651 -473Q647 -475 647 -479V-500Q647 -519 654 -523H653Q647 -521 641 -520H640Q635 -524 635 -529Q635 -540 649 -547H647Q638 -545 628 -543Q641 -552 653 -561Q644 -561 630 -555Q616 -549 611 -549H608V-550Q610 -555 614 -559Q592 -553 570 -547Q538 -543 506 -539L498 -534Q494 -534 490 -535Q463 -533 438 -528H433Q425 -528 417 -529Q412 -529 404 -526Q399 -527 392 -532Q386 -536 380 -537H379Q375 -537 362 -532Q354 -531 343 -523Q334 -517 332 -517Q329 -517 312 -527L290 -537Q293 -530 300 -526Q307 -522 313 -518Q329 -506 335 -498Q327 -501 321 -506Q315 -511 305 -512Q312 -505 320 -499Q328 -492 332 -483Q325 -486 318 -489Q319 -485 327 -479Q335 -473 335 -467V-466Q333 -460 330 -455Q333 -444 335 -434Q346 -431 351 -421Q356 -411 364 -404Q379 -398 398 -392Q438 -417 501 -418Q531 -421 561 -424Q581 -421 601 -418ZM658 -563H659Q668 -563 672 -571H668Q658 -571 658 -563Z"/>
</svg>