<svg xmlns="http://www.w3.org/2000/svg" viewBox="0 -800 1024 1024">
	<path fill="#000000" d="M717 -577H730Q733 -560 750 -560H788Q807 -561 809 -577H822V-510H809Q805 -528 788 -529H750Q734 -528 730 -510H717ZM717 -491H730Q733 -473 750 -473H788Q806 -475 809 -491H822V-424H809Q804 -442 788 -442H750Q734 -441 730 -424H717ZM501 -577H514Q517 -560 534 -560H569Q591 -562 594 -577H606V-510H594Q588 -527 569 -529H534Q518 -528 514 -510H501ZM501 -491H514Q517 -473 534 -473H569Q591 -475 594 -491H606V-424H594Q588 -440 569 -442H534Q518 -441 514 -424H501ZM168 -724V-515H261V-688Q260 -723 225 -724ZM168 -482V-273H261V-482ZM686 -446Q685 -418 714 -413V-401H609V-413Q637 -417 636 -446V-615H472V-447Q472 -427 493 -424V-412H377V-424Q399 -427 400 -447V-610Q401 -629 377 -633V-646H621V-724H451Q436 -722 431 -705H418V-776H431Q435 -756 451 -757H871Q889 -759 892 -776H905V-705H892Q887 -724 871 -724H702V-646H847Q885 -646 905 -628Q923 -612 923 -579V-447Q923 -427 946 -424V-412H830V-424Q852 -429 851 -447V-583Q851 -615 817 -615H686ZM548 54Q571 54 568 28V-214H484V39Q482 61 505 63V76H384V63Q409 59 408 39V-209Q408 -229 384 -233V-246H585L611 -330H407Q392 -328 387 -311H374V-381H387Q391 -361 407 -362H915Q933 -364 936 -381H949V-311H936Q932 -329 915 -330H696L670 -246H819Q873 -246 893 -228Q915 -212 915 -170V7Q914 54 885 74Q861 91 826 80Q803 73 780 46V-1H792Q799 28 813 38Q825 46 832 41Q839 35 839 17V-180Q839 -214 799 -214H762V28Q759 53 781 54V67H685V54Q706 54 704 28V-214H625V28Q623 52 644 54V67H548ZM98 -718Q98 -739 74 -744V-757H238Q293 -757 315 -733Q333 -712 332 -674V7Q332 40 316 61Q296 84 263 85Q219 82 194 46V2H206Q211 26 229 35Q258 51 261 14V-241H168V15Q167 51 147 71Q122 91 91 76Q68 66 58 46V2H71Q73 19 79 29Q85 41 91 38Q98 35 98 20Z"/>
</svg>