<svg xmlns="http://www.w3.org/2000/svg" viewBox="0 -800 1024 1024">
	<path fill="#000000" d="M561 -632H559Q556 -635 556 -639Q556 -647 566 -647Q571 -647 573 -645Q571 -632 561 -632ZM585 -512V-510Q583 -506 576 -499Q566 -489 565 -481Q568 -476 576 -468Q589 -456 591 -446Q572 -456 559 -468Q549 -465 532 -456Q508 -443 493 -443Q487 -443 483 -444Q474 -446 462 -460Q449 -475 441 -475Q435 -475 427 -467Q422 -462 419 -461Q420 -471 429 -480Q436 -487 438 -491Q437 -501 430 -513Q423 -525 422 -532V-535Q425 -548 428 -561Q427 -571 414 -583Q400 -596 398 -606Q405 -604 418 -595Q434 -584 444 -584H445Q453 -585 464 -595Q477 -606 487 -607Q493 -618 495 -646Q497 -669 499 -676Q502 -650 504 -626Q506 -608 526 -606Q530 -607 536 -614Q542 -621 550 -621H552Q545 -610 540 -594Q556 -581 571 -567Q575 -557 582 -552Q588 -550 591 -550Q608 -554 631 -558Q637 -558 641 -557Q634 -549 623 -547Q612 -545 604 -541Q592 -536 585 -521Q584 -520 584 -518Q585 -515 585 -512ZM572 -252H574Q575 -251 575 -249Q573 -244 570 -239Q589 -189 589 -168Q589 -161 588 -157Q583 -129 560 -105Q538 -81 517 -60Q506 -49 493 -41Q496 -52 512 -68Q527 -83 529 -99Q508 -86 493 -60Q477 -34 447 -24Q473 -52 481 -63Q499 -86 505 -111Q495 -108 486 -108Q458 -108 431 -135Q430 -143 422 -158Q413 -175 412 -185V-187Q412 -202 421 -215Q426 -222 441 -237Q441 -260 435 -271Q435 -273 438 -273Q441 -272 447 -263Q454 -253 460 -251Q474 -264 501 -264Q538 -264 559 -245Q562 -245 565 -248Q569 -252 572 -252Z"/>
</svg>