<svg xmlns="http://www.w3.org/2000/svg" viewBox="0 -800 1024 1024">
	<path fill="#000000" d="M59 -520H203V-507Q178 -502 184 -483L250 -358Q260 -334 286 -332V-320H142V-332Q172 -337 160 -358L94 -483Q81 -504 59 -507ZM59 -781H203V-768Q176 -762 184 -744L251 -612Q262 -591 287 -586V-574H142V-586Q171 -592 160 -612L94 -744Q83 -766 59 -769ZM173 -227Q175 -247 151 -251V-264H286V-251Q261 -245 258 -227L221 11Q214 51 181 69Q156 88 116 81Q84 77 58 49V0H71Q75 32 98 40Q128 50 135 17ZM452 -724V-610H808V-683Q807 -723 765 -724ZM763 -463Q808 -463 808 -507V-578H452V-463ZM435 12Q428 48 398 66Q369 86 331 83Q297 79 277 56V3H290Q296 34 317 43Q342 50 351 13L394 -215Q396 -233 373 -239V-252H505V-239Q480 -234 478 -215L452 -81L559 11Q577 27 601 31V-320H344Q329 -318 324 -301H311V-371H324Q328 -352 344 -353H904Q922 -355 925 -371H938V-301H925Q920 -320 904 -320H689V-164H884Q902 -166 905 -183H917V-113H905Q901 -131 884 -132H689V33H915Q933 31 936 15H949V83H936Q932 65 915 64H640Q596 65 577 59Q552 53 523 28L444 -38ZM797 -757Q851 -757 873 -736Q896 -716 896 -670V-519Q896 -475 873 -452Q848 -430 797 -430H337V-443Q362 -448 363 -471V-718Q362 -739 337 -744V-757Z"/>
</svg>