<svg xmlns="http://www.w3.org/2000/svg" viewBox="0 -800 1024 1024">
	<path fill="#000000" d="M265 -781H412V-767Q385 -764 384 -738V-710H623V-738Q624 -766 595 -767V-781H742V-767Q715 -764 714 -738V-710H915Q933 -712 936 -729H949V-658H936Q931 -677 915 -677H714V-655Q713 -628 742 -625V-612H595V-625Q624 -629 623 -655V-677H384V-655Q383 -629 412 -625V-612H265V-625Q294 -629 293 -655V-677H92Q76 -676 71 -658H58V-729H71Q76 -710 92 -710H293V-738Q294 -766 265 -767ZM714 32Q712 59 742 63V76H596V63Q625 59 624 32V-35H422Q407 -33 402 -16H389V-87H402Q406 -67 422 -68H624V-154H449Q434 -152 429 -135H416V-206H429Q432 -187 449 -187H624V-208Q624 -239 596 -240V-252H742V-240Q715 -236 714 -208V-187H889Q906 -189 909 -206H922V-135H909Q903 -154 889 -154H714V-68H915Q933 -70 936 -87H949V-16H936Q931 -35 915 -35H714ZM808 -508Q820 -516 818 -526Q815 -535 801 -535H468Q451 -534 447 -516H434V-587H447Q451 -568 468 -568H842Q889 -567 899 -534Q906 -496 865 -466L730 -377L831 -311Q861 -293 895 -300Q931 -306 936 -341H949V-290Q934 -275 901 -268Q865 -259 825 -264Q781 -269 745 -291L672 -339L598 -290Q569 -271 527 -266Q485 -263 451 -270Q414 -277 402 -290V-337H415Q419 -304 452 -299Q481 -296 511 -312L612 -378L474 -469Q454 -482 439 -482V-495H605V-482Q581 -478 590 -469L669 -416ZM193 -543Q194 -573 165 -574V-587H309V-574Q281 -572 282 -543V-459H353Q371 -460 374 -478H386V-408H373Q370 -426 353 -427H282V-266L344 -290Q362 -298 364 -314H377V-242H364Q360 -259 344 -254L282 -230V-18Q283 34 245 62Q203 89 145 80Q92 71 62 35V-20H75Q87 34 138 40Q190 46 193 -3V-195L93 -156Q77 -149 72 -132H60V-207H72Q78 -186 93 -192L193 -231V-427H107Q91 -425 87 -408H74V-478H87Q92 -459 107 -459H193Z"/>
</svg>