<svg xmlns="http://www.w3.org/2000/svg" viewBox="0 -800 1024 1024">
	<path fill="#000000" d="M618 -616H543V-512H643V-592Q642 -615 618 -616ZM394 -43Q395 -27 412 -27V-15H334V-27Q351 -28 351 -43L324 -471Q322 -484 307 -487V-500H384V-487Q366 -485 367 -471ZM102 -471Q104 -486 85 -487V-500H163V-487Q148 -485 146 -471L119 -43Q119 -28 136 -27V-15H58V-27Q76 -28 76 -43ZM549 -358V-257H801V-322Q801 -358 762 -358ZM549 -225V-123H801V-225ZM543 -727V-647H641Q674 -647 691 -634Q709 -621 709 -588V-512H807V-684Q807 -727 760 -727ZM275 31Q273 58 303 62V75H166V62Q195 58 194 31V-575H108Q92 -574 87 -556H74V-627H87Q92 -608 108 -608H194V-737Q195 -768 166 -769V-781H303V-769Q275 -765 275 -737V-608H363Q381 -609 384 -627H396V-556H384Q380 -574 363 -575H275ZM796 -757Q841 -757 863 -739Q887 -720 887 -677V-511Q906 -509 918 -499Q930 -488 930 -464V-441Q930 -421 949 -420V-407H821V-420Q845 -422 845 -444V-463Q846 -483 823 -482H504V-444Q504 -423 528 -420V-407H397V-420Q418 -422 419 -442V-478Q420 -497 397 -499V-512H462V-721Q462 -741 439 -745V-757ZM549 36Q548 58 577 62V75H435V62Q464 58 463 36V-351Q462 -371 435 -376V-389H797Q845 -389 866 -368Q886 -350 886 -310V-2Q886 45 859 67Q832 87 787 84Q729 76 695 47V-2H708Q715 31 760 43Q799 50 801 10V-91H549Z"/>
</svg>