<svg xmlns="http://www.w3.org/2000/svg" viewBox="0 -800 1024 1024">
	<path fill="#000000" d="M671 -505H673Q681 -505 700 -498Q715 -493 725 -492Q740 -479 752 -432Q763 -404 767 -370Q767 -366 765 -354Q756 -347 729 -343Q703 -339 694 -334Q667 -316 656 -294Q592 -238 556 -169Q498 -100 446 -23Q420 14 393 53Q367 92 355 142Q348 149 337 149Q308 145 291 122Q281 106 278 85Q274 64 255 56Q269 44 269 25Q269 19 266 14Q296 3 316 -20Q336 -43 357 -64Q399 -103 431 -155Q416 -173 394 -211Q365 -262 342 -283Q314 -303 284 -318Q253 -333 250 -376V-385Q250 -393 255 -394Q253 -399 250 -404V-406Q253 -413 261 -427Q252 -445 243 -464Q234 -482 232 -507Q236 -502 245 -487Q257 -466 268 -458Q268 -465 258 -477Q247 -491 247 -502Q263 -484 281 -471Q283 -475 283 -476Q283 -479 277 -484Q271 -488 271 -492Q295 -482 304 -482Q314 -482 323 -486Q324 -486 324 -487Q324 -489 323 -492V-493H325Q333 -493 345 -485Q354 -479 361 -478Q363 -477 368 -477Q380 -478 392 -480H397Q411 -477 421 -468Q431 -458 440 -451Q441 -450 441 -442Q456 -433 464 -404Q464 -403 475 -351Q478 -333 497 -299Q508 -279 512 -266Q538 -310 565 -352Q592 -395 616 -442Q612 -445 606 -445Q595 -443 583 -441Q584 -449 598 -457Q614 -466 614 -479V-481Q624 -484 638 -492Q659 -505 671 -505Z"/>
</svg>