<svg xmlns="http://www.w3.org/2000/svg" viewBox="0 -800 1024 1024">
	<path fill="#000000" d="M596 -261Q639 -262 640 -302V-320H367V-261ZM367 -509V-447H640V-468Q640 -509 597 -509ZM367 -416V-354H640V-416ZM414 -676V-663Q401 -663 376 -648Q373 -647 372 -646L256 -573Q220 -548 195 -542Q144 -529 103 -540Q78 -547 58 -565V-624H71Q76 -583 111 -577Q136 -572 178 -599L251 -645Q258 -650 254 -656Q249 -663 238 -663V-676ZM911 -734Q928 -735 931 -753H943V-684H931Q926 -703 911 -703H728V-665Q728 -603 670 -580Q627 -562 558 -569Q504 -576 472 -594V-649H484Q492 -620 543 -608Q584 -600 612 -613Q638 -624 638 -655V-703H98Q82 -702 77 -684H65V-753H77Q82 -734 98 -734H638V-740Q639 -764 612 -768V-781H754V-768Q728 -764 728 -740V-734ZM838 -82Q887 -82 906 -60Q924 -42 923 -8V31Q922 57 949 62V76H813V62Q840 57 839 31V-12Q838 -49 802 -50H647V31Q647 56 675 62V76H537V62Q563 57 563 31V-136Q564 -156 537 -162V-176H800Q835 -177 837 -216V-454Q838 -484 809 -485V-499H949V-485Q921 -481 921 -454V-223Q921 -183 900 -164Q882 -143 832 -144H647V-82ZM58 3H71Q80 40 103 44Q124 44 133 21L157 -51H92Q76 -50 71 -32H58V-100H71Q75 -82 92 -82H357V-104Q356 -143 319 -144H60V-157Q84 -163 86 -187V-454Q87 -484 58 -485V-499H198V-485Q170 -481 170 -454V-176H356Q404 -176 424 -154Q442 -135 442 -102V31Q442 58 467 62V76H329V62Q357 58 357 31V-51H236L211 28Q201 63 172 76Q142 88 107 79Q76 71 58 49ZM626 -540Q684 -540 704 -521Q728 -500 728 -452V-312Q728 -272 703 -249Q682 -229 627 -230H255V-243Q281 -247 283 -270V-498Q281 -522 257 -527V-540Z"/>
</svg>