<svg xmlns="http://www.w3.org/2000/svg" viewBox="0 -800 1024 1024">
	<path fill="#000000" d="M359 -661Q373 -661 384 -676L416 -723Q425 -735 405 -738V-751H508V-738Q495 -736 486 -723L455 -676Q450 -669 454 -665Q457 -661 468 -661V-648H359ZM72 -751H176V-738Q158 -735 165 -723L196 -676Q204 -662 222 -661V-648H113V-661Q133 -662 127 -674L95 -723Q86 -735 72 -738ZM673 -632H759V-618Q737 -617 740 -601L766 -473Q769 -457 788 -457V-444H700V-457Q725 -459 721 -473L696 -601Q691 -619 673 -618ZM359 -623H464V-611Q443 -607 451 -594L472 -551Q485 -529 497 -532Q507 -536 510 -556H522V-520Q508 -507 492 -502Q470 -494 450 -502Q426 -509 411 -539L383 -592Q376 -607 359 -611ZM58 -556H70Q73 -534 84 -532Q98 -531 109 -551L130 -593Q137 -607 117 -611V-623H221V-611Q205 -606 198 -591L170 -539Q158 -517 141 -507Q118 -494 91 -500Q72 -505 58 -520ZM773 -137Q790 -139 793 -156H806V-85H793Q787 -104 773 -104H555Q540 -103 535 -85H522V-156H535Q539 -136 555 -137ZM188 -318V-223H397V-278Q397 -317 360 -318ZM188 -193V-99H397V-193ZM239 -562Q252 -580 251 -612V-746Q251 -765 229 -766V-780H352V-766Q331 -763 330 -746V-609Q331 -566 313 -542H400V-528Q378 -525 385 -510L432 -434Q451 -405 479 -416Q499 -426 509 -455H522V-416Q509 -396 489 -385Q457 -369 422 -375Q379 -384 358 -419L300 -513L297 -518L231 -421Q210 -391 176 -379Q144 -366 104 -380Q76 -390 59 -414V-455H71Q79 -426 105 -416Q131 -407 150 -435ZM640 -297H845Q887 -297 908 -280Q929 -262 929 -225V-25Q929 33 890 59Q860 81 791 84Q740 85 694 77Q641 69 613 52V-2H627Q632 32 680 46Q731 59 782 52Q848 43 849 -13V-230Q847 -264 810 -266H539V-279Q561 -283 563 -305V-669Q562 -691 539 -695V-708H655L668 -743Q677 -765 649 -768V-781H778V-768Q756 -765 750 -743L737 -708H817Q867 -709 884 -690Q904 -672 904 -630V-435Q904 -389 872 -365Q841 -345 794 -346Q753 -350 723 -376V-417H737Q748 -378 787 -378Q830 -380 830 -426V-645Q830 -677 796 -677H640ZM188 33Q188 58 214 63V76H84V63Q107 59 108 33V-312Q108 -332 84 -335V-348H384Q439 -348 461 -325Q479 -304 478 -266V-14Q478 37 447 63Q415 87 367 84Q308 76 281 43V-6H294Q300 26 333 42Q363 56 383 38Q397 27 397 -1V-68H188Z"/>
</svg>