<svg xmlns="http://www.w3.org/2000/svg" viewBox="0 -800 1024 1024">
	<path fill="#000000" d="M674 -50V-43Q674 -39 677 -38Q690 -43 704 -43Q717 -43 722 -39Q706 -33 704 -16Q704 -6 712 -1Q716 -3 721 -3Q726 -3 730 -1Q723 7 715 14Q708 22 707 36Q711 34 714 32Q715 32 716 33Q716 43 705 58Q695 72 693 79Q674 84 641 84Q623 84 605 83Q542 83 520 104Q476 103 465 68Q465 67 464 67Q464 65 466 65H467Q469 65 469 64Q462 41 462 12Q462 -5 465 -19L459 -29Q462 -42 462 -58Q461 -88 459 -119Q464 -124 464 -139Q464 -153 460 -160L465 -197V-200Q462 -225 459 -251Q461 -278 463 -306V-312Q462 -335 460 -359Q462 -371 463 -383Q462 -402 460 -422Q460 -432 463 -441Q460 -442 460 -446Q461 -449 461 -452Q461 -454 459 -458Q463 -467 463 -483Q463 -498 462 -514Q464 -520 466 -526Q465 -546 463 -566Q463 -577 465 -581Q462 -585 459 -590Q462 -596 462 -607Q461 -622 459 -637Q459 -645 462 -653Q455 -662 455 -670Q455 -676 459 -677Q446 -696 446 -726Q446 -758 460 -796Q498 -801 509 -801Q521 -801 527 -800Q543 -796 557 -796Q563 -796 568 -797Q648 -805 678 -805H679Q681 -805 681 -803V-799Q697 -801 713 -803Q711 -800 704 -798Q697 -796 696 -788Q725 -796 734 -796H739Q735 -789 721 -783Q710 -778 707 -776V-760L730 -766V-764Q730 -761 723 -756Q711 -747 711 -739Q712 -736 712 -734Q713 -733 714 -733Q719 -734 723 -736H725V-734Q725 -728 720 -724Q716 -720 715 -718Q716 -715 716 -712Q716 -700 706 -683Q697 -669 696 -662Q651 -658 604 -658Q557 -659 537 -634Q540 -629 540 -621Q539 -609 538 -598Q538 -587 543 -582Q541 -547 539 -513Q539 -493 542 -478Q535 -467 535 -444Q536 -421 537 -398Q537 -385 536 -380Q535 -371 533 -363Q533 -356 537 -352V-350Q535 -348 533 -347V-346Q535 -338 539 -332Q536 -321 536 -311V-301Q536 -286 533 -281Q535 -275 535 -266Q535 -256 534 -246Q534 -239 537 -227V-226Q535 -224 533 -222V-221Q537 -201 537 -170Q537 -140 536 -110Q536 -67 542 -39Q566 -33 598 -33Q628 -33 660 -38Q662 -39 665 -45Q668 -52 672 -53Q674 -53 674 -50Z"/>
</svg>