<svg xmlns="http://www.w3.org/2000/svg" viewBox="0 -800 1024 1024">
	<path fill="#000000" d="M733 -588H731Q725 -588 716 -596Q708 -603 703 -603Q699 -603 694 -600Q702 -589 709 -579H707Q699 -579 689 -586Q681 -591 676 -592Q675 -591 675 -589Q677 -584 679 -580V-579Q677 -577 676 -577Q675 -577 672 -581Q669 -585 666 -585Q662 -582 658 -579H657Q652 -581 646 -584Q643 -584 642 -583Q637 -582 637 -575Q637 -570 638 -567Q593 -600 548 -633Q519 -650 514 -651H509Q481 -651 440 -622Q411 -599 382 -577Q369 -590 351 -590Q340 -590 331 -586Q337 -593 342 -601Q338 -609 329 -609Q311 -606 297 -598Q299 -604 309 -612Q318 -620 321 -627Q309 -625 292 -615Q277 -606 266 -604Q280 -622 303 -636Q337 -661 346 -664Q395 -703 444 -742Q465 -758 490 -766Q502 -775 516 -778H518Q542 -773 560 -753Q578 -733 594 -718Q646 -677 668 -657Q708 -621 733 -588Z"/>
</svg>