<svg xmlns="http://www.w3.org/2000/svg" viewBox="0 -800 1024 1024">
	<path fill="#000000" d="M755 -190V-202Q756 -203 759 -203H765Q762 -200 761 -196Q760 -191 755 -190ZM778 -88V-82Q778 -68 785 -61Q777 -48 759 -4Q752 -2 745 9Q738 20 731 23Q729 24 724 24Q712 23 700 21Q696 21 690 23Q681 0 665 -19Q649 -37 632 -55Q590 -103 568 -125Q535 -157 502 -188Q468 -218 438 -254Q426 -247 377 -209Q364 -201 346 -188Q327 -176 320 -162Q314 -140 314 -118Q305 -61 294 -23Q289 -23 279 -18Q268 -13 261 -13Q255 -13 247 -16Q236 -21 216 -43Q204 -62 194 -90Q185 -102 182 -118Q182 -120 186 -142Q199 -206 226 -291Q237 -330 246 -366Q259 -410 262 -443Q261 -449 259 -455Q262 -463 264 -472Q264 -473 262 -479Q258 -486 250 -493Q242 -499 235 -506Q233 -508 232 -511Q230 -517 226 -518Q229 -533 229 -553Q229 -567 228 -573V-574Q228 -576 229 -576Q233 -576 237 -572Q242 -584 242 -594Q242 -608 230 -637Q216 -671 216 -691V-694Q239 -643 259 -609Q263 -613 263 -619Q263 -628 253 -644Q244 -659 243 -665Q250 -663 263 -645Q275 -629 282 -626V-629Q282 -632 278 -639Q273 -648 273 -654V-657Q278 -656 285 -649Q293 -641 300 -641H302Q313 -644 324 -648H328Q335 -647 342 -647Q366 -649 389 -652Q393 -652 399 -650Q406 -646 412 -632Q419 -615 431 -612Q441 -578 450 -544Q430 -502 407 -463Q385 -424 373 -375Q388 -384 423 -413Q465 -447 490 -461Q505 -479 524 -493Q544 -506 562 -521Q581 -544 604 -551Q610 -565 627 -582Q645 -600 650 -611Q648 -622 626 -626Q626 -630 634 -632Q640 -634 641 -638Q634 -641 621 -641Q612 -641 598 -639V-640Q599 -646 610 -650Q621 -654 631 -660Q639 -667 645 -677Q665 -680 705 -695Q735 -710 743 -710H746Q756 -708 769 -679Q780 -655 786 -651Q785 -649 785 -643V-639Q793 -624 803 -609Q814 -594 817 -573Q818 -568 818 -563Q814 -527 810 -492V-488Q713 -474 650 -426Q587 -378 529 -325Q567 -292 605 -259Q623 -246 641 -233Q660 -213 687 -190Q695 -184 702 -179Q707 -179 714 -191Q722 -204 729 -204Q732 -204 733 -203Q732 -193 727 -187Q726 -186 725 -185Q733 -191 744 -209Q747 -217 750 -226Q753 -236 762 -237Q761 -229 752 -210Q741 -187 740 -172Q741 -171 743 -171Q745 -171 747 -175Q750 -181 753 -181Q753 -149 761 -128Q771 -112 777 -100Q778 -96 778 -88Z"/>
</svg>