<svg xmlns="http://www.w3.org/2000/svg" viewBox="0 -800 1024 1024">
	<path fill="#000000" d="M681 -29H684Q687 -29 687 -28Q670 10 667 14Q654 36 638 47Q625 44 611 41Q609 39 576 15Q554 -65 515 -166Q471 -286 426 -407Q409 -453 393 -501Q376 -548 352 -590Q344 -604 338 -615Q331 -626 317 -632V-634Q313 -648 308 -660Q311 -666 313 -672Q313 -679 308 -689Q301 -703 301 -710V-713H302Q309 -713 311 -708Q314 -703 317 -700Q310 -730 302 -761H305Q316 -743 329 -728Q329 -733 324 -738Q319 -743 319 -746Q319 -748 320 -749H322Q326 -749 333 -743Q339 -737 343 -737Q355 -741 360 -752Q366 -751 371 -751Q382 -751 393 -752Q404 -752 411 -749Q420 -745 433 -718Q446 -689 458 -684V-679Q458 -631 471 -578Q480 -542 500 -487Q553 -339 611 -194Q625 -156 645 -111Q666 -66 699 -50Q694 -45 687 -42Q681 -38 678 -31Q678 -29 681 -29Z"/>
</svg>