<svg xmlns="http://www.w3.org/2000/svg" viewBox="0 -800 1024 1024">
	<path fill="#000000" d="M730 -84V-82Q730 -79 737 -63Q732 -54 721 -29Q711 -5 702 8Q700 7 696 7Q688 7 675 20Q630 2 555 -3Q513 -6 414 -6Q337 -6 326 29Q322 30 315 30Q279 30 263 -1Q253 -20 246 -66Q263 -81 263 -100Q308 -127 358 -181Q359 -182 449 -289Q482 -327 515 -362Q549 -398 574 -446Q597 -488 597 -523Q597 -553 577 -572Q565 -584 553 -586Q547 -587 532 -587Q489 -587 456 -554Q426 -524 417 -480Q420 -474 421 -461Q422 -448 426 -441Q434 -430 443 -423Q458 -406 458 -381Q458 -347 432 -337Q429 -336 425 -336Q408 -339 391 -343Q385 -345 380 -345Q375 -345 372 -340Q368 -342 363 -349Q358 -356 353 -357Q349 -354 349 -349Q350 -343 350 -337V-335Q344 -339 340 -355Q336 -371 329 -376Q327 -374 327 -370Q328 -364 329 -358Q324 -361 320 -371Q317 -378 315 -381Q302 -394 294 -408Q293 -411 288 -435Q283 -454 283 -479Q283 -566 358 -655Q431 -739 534 -739Q543 -738 551 -738Q623 -734 665 -685Q706 -637 706 -563V-548Q704 -445 658 -381Q609 -313 544 -258Q482 -205 436 -137Q492 -139 548 -141Q597 -147 645 -154Q650 -153 655 -153Q658 -153 659 -154Q669 -158 679 -176Q687 -191 694 -194Q691 -183 691 -171Q691 -161 694 -151Q706 -149 712 -149Q726 -149 740 -150Q749 -150 754 -149Q751 -143 736 -141Q722 -139 719 -134Q721 -132 724 -132Q731 -133 738 -135Q739 -134 739 -133Q738 -130 731 -126Q723 -121 722 -112Q723 -111 723 -109Q726 -105 728 -105Q734 -108 740 -112Q743 -112 744 -109Q744 -104 738 -98Q730 -90 730 -84ZM706 -218Q704 -212 702 -207Q700 -202 694 -201Q693 -204 693 -208Q693 -219 702 -219Q704 -218 706 -218Z"/>
</svg>