<svg xmlns="http://www.w3.org/2000/svg" viewBox="0 -800 1024 1024">
	<path fill="#000000" d="M824 -409V-402Q820 -397 816 -393Q811 -388 802 -388Q807 -400 808 -402Q813 -409 821 -409ZM414 32H411Q368 32 326 6Q314 -2 293 -21Q275 -32 256 -43Q249 -49 240 -65Q229 -84 220 -91Q221 -92 221 -95Q218 -103 211 -109Q203 -125 198 -151Q189 -174 180 -198Q175 -225 175 -274Q175 -313 176 -331Q181 -452 272 -563Q278 -576 287 -586Q297 -596 306 -605Q312 -607 314 -607H317Q321 -613 324 -622Q331 -624 341 -634Q381 -653 419 -676Q456 -699 513 -701Q521 -700 528 -700Q620 -688 662 -616Q680 -589 685 -577Q693 -551 694 -517Q702 -485 706 -446V-442Q705 -446 700 -448Q685 -416 670 -385Q666 -386 666 -389Q667 -394 668 -399Q668 -401 665 -403Q656 -400 654 -392Q651 -385 648 -376Q647 -375 645 -375Q642 -378 641 -383H639Q621 -381 612 -368Q594 -376 574 -383Q555 -390 541 -403Q536 -412 527 -437Q519 -452 511 -468Q509 -476 506 -485Q494 -508 458 -508Q433 -508 404 -496Q354 -474 307 -414Q257 -349 251 -290Q248 -257 248 -255Q248 -236 256 -224Q255 -221 255 -216Q258 -204 261 -192Q261 -188 260 -186Q264 -179 273 -171Q282 -163 284 -160Q291 -141 302 -129Q308 -125 314 -124Q320 -122 323 -114Q339 -110 354 -103Q370 -97 391 -96H394Q444 -96 525 -133Q580 -158 633 -201Q670 -231 722 -284Q747 -309 764 -330Q780 -357 801 -379V-376Q801 -368 791 -352Q780 -334 779 -322Q787 -329 793 -339Q799 -349 812 -352Q802 -334 793 -317Q783 -299 782 -274Q789 -276 795 -291Q801 -307 812 -308Q803 -288 799 -263Q799 -258 801 -250Q803 -248 805 -248Q810 -250 815 -252Q812 -244 812 -237Q812 -229 818 -214Q823 -201 823 -193Q823 -187 820 -180Q779 -149 735 -113Q690 -77 639 -46Q591 -21 531 0Q491 16 479 20Q429 32 414 32Z"/>
</svg>