<svg xmlns="http://www.w3.org/2000/svg" viewBox="0 -800 1024 1024">
	<path fill="#000000" d="M853 24H849Q820 19 790 14Q754 14 723 9Q723 0 737 -1Q747 -2 749 -6Q747 -14 734 -20Q722 -25 706 -25Q686 -25 678 -13Q678 -7 690 -5Q701 -3 701 3Q697 7 692 7Q685 6 677 5Q667 4 645 4Q603 5 561 5H515Q498 5 493 -2Q498 -8 510 -8Q516 -8 534 -6H546Q582 -7 617 -8Q629 -7 640 -7Q655 -7 661 -14Q657 -26 630 -26H593Q551 -26 508 -27H495Q475 -26 454 -26H425Q415 -26 405 -27Q387 -27 387 -17V-14Q389 -9 401 -7Q407 -7 413 -8Q423 -8 423 0V1Q307 8 193 19H187Q174 19 160 18Q146 18 137 22L107 17Q96 2 85 -14Q86 -37 100 -48Q114 -59 128 -70Q138 -79 146 -90Q154 -101 168 -105Q212 -159 298 -224Q305 -234 315 -237Q321 -251 336 -254Q371 -293 412 -327Q453 -360 493 -393Q513 -411 533 -432Q552 -452 577 -465Q570 -451 544 -429Q514 -403 506 -385H511Q525 -386 537 -396Q548 -407 558 -416Q606 -456 654 -496Q689 -525 698 -539Q694 -542 690 -542Q684 -542 673 -535Q665 -530 661 -529Q662 -543 672 -552Q682 -561 692 -571Q708 -591 720 -618Q787 -622 821 -641V-640Q819 -634 816 -629V-628Q833 -635 850 -643Q849 -635 841 -628Q833 -621 827 -615H828Q830 -617 837 -620Q840 -620 842 -619Q837 -608 837 -584Q841 -587 844 -590Q846 -590 846 -588V-584Q846 -562 838 -533Q831 -508 830 -499Q790 -484 774 -477Q743 -463 726 -447Q687 -431 657 -407Q626 -384 594 -361V-360Q594 -356 589 -352Q585 -349 585 -347V-345Q582 -345 576 -343Q540 -313 503 -284Q467 -255 426 -230Q420 -222 401 -209Q381 -195 373 -184Q368 -182 345 -168Q339 -162 333 -156Q332 -156 330 -157H329Q320 -151 309 -132H308Q306 -133 304 -134Q303 -133 302 -133Q289 -116 272 -108Q270 -107 269 -104Q269 -101 266 -101Q264 -101 262 -102Q261 -99 260 -97Q261 -96 261 -95Q249 -91 248 -85H272Q324 -85 484 -94Q519 -96 590 -96Q695 -95 800 -94H825Q866 -99 878 -132Q877 -117 875 -103Q875 -90 882 -82Q890 -85 914 -87Q912 -82 901 -78Q888 -73 888 -64Q889 -62 893 -62Q899 -63 905 -64Q906 -63 906 -62Q903 -57 900 -52V-49Q900 -48 901 -48Q904 -48 906 -49H908Q897 -30 897 -23Q897 -19 900 -13Q888 -2 879 10Q869 23 853 24ZM633 -508V-509Q633 -524 647 -524Q650 -524 654 -522Q647 -508 633 -508Z"/>
</svg>