<svg xmlns="http://www.w3.org/2000/svg" viewBox="0 -800 1024 1024">
	<path fill="#000000" d="M533 -68V-66Q502 -17 418 0V-2Q418 -10 429 -14Q439 -18 440 -23Q424 -25 415 -25Q370 -21 324 -17Q315 -16 306 -16H286Q258 -16 247 -6Q258 8 287 8Q324 5 361 2Q375 2 385 5Q384 11 377 11H367Q347 14 303 14H259Q236 15 212 15H191Q149 15 133 22Q124 19 113 19Q99 19 95 28Q74 23 61 9Q49 -5 42 -24Q29 -65 8 -97Q16 -99 16 -111Q16 -121 7 -121H3Q23 -144 43 -167Q63 -190 74 -221Q77 -218 77 -213Q76 -203 74 -193Q74 -186 80 -185H81Q90 -185 101 -218Q129 -299 130 -336Q113 -329 109 -310Q105 -291 96 -276Q90 -277 90 -281Q90 -284 98 -296Q99 -311 111 -367V-368Q111 -371 115 -371Q118 -371 118 -374V-393Q118 -401 120 -409Q110 -420 95 -426Q80 -431 67 -437Q65 -449 65 -459Q64 -470 56 -475Q46 -471 35 -467Q34 -468 34 -469Q39 -477 50 -486Q48 -487 43 -487Q34 -487 20 -477Q8 -469 2 -467Q4 -476 24 -493L50 -512H45Q25 -512 -3 -487Q-24 -468 -36 -464Q-13 -498 24 -524Q38 -533 42 -537Q51 -545 51 -554Q51 -561 47 -568Q67 -591 83 -614Q91 -610 101 -610Q114 -610 140 -620Q163 -629 174 -629Q181 -629 188 -626Q179 -620 165 -614Q150 -608 148 -596Q148 -591 151 -587Q200 -610 248 -634Q296 -658 351 -674Q347 -681 338 -681Q328 -679 318 -677Q303 -674 285 -668Q252 -655 222 -649Q229 -656 258 -670Q334 -703 411 -703Q480 -703 512 -671Q518 -665 527 -651Q537 -636 545 -628Q557 -591 562 -563V-551Q562 -516 547 -486Q542 -482 535 -470Q527 -456 520 -452V-450Q520 -445 513 -439Q508 -434 508 -430V-428Q488 -418 475 -403Q461 -389 447 -374L430 -368Q436 -384 458 -403Q480 -423 487 -436Q465 -431 444 -415Q424 -399 403 -382Q392 -374 388 -369Q381 -361 381 -351V-345Q439 -316 489 -279Q540 -242 557 -172Q554 -150 552 -123Q550 -96 536 -82V-80Q535 -74 533 -68ZM91 -244H88Q85 -244 82 -245V-250Q82 -255 89 -267Q95 -263 96 -260V-258Q94 -251 91 -245ZM314 -409L373 -454Q416 -488 429 -500Q460 -530 473 -560Q465 -572 433 -572Q422 -571 410 -571Q290 -559 222 -494Q230 -473 242 -450Q255 -428 256 -401Q256 -396 255 -391Q253 -382 250 -373V-371Q269 -373 285 -385Q300 -398 314 -409ZM480 -136V-139Q480 -176 419 -205Q410 -211 400 -218Q378 -226 345 -226Q320 -226 305 -220Q290 -213 278 -203Q266 -193 247 -192H241Q235 -204 217 -222Q192 -248 187 -268Q179 -260 178 -250Q177 -240 176 -229Q171 -218 167 -205Q165 -193 165 -186Q166 -176 166 -166Q152 -143 147 -109Q196 -97 258 -95Q320 -93 378 -92Q393 -90 408 -88H412Q442 -88 460 -99Q480 -111 480 -136Z"/>
</svg>