<svg xmlns="http://www.w3.org/2000/svg" viewBox="0 -800 1024 1024">
	<path fill="#000000" d="M623 -83V-85Q622 -89 616 -89Q601 -85 585 -82Q537 -77 489 -69Q496 -58 517 -58Q538 -59 559 -61Q571 -61 578 -57Q569 -44 531 -42Q507 -40 494 -40Q482 -40 464 -42Q448 -48 431 -54H411Q398 -56 371 -67Q351 -75 337 -78Q324 -46 321 -12Q318 22 314 58Q312 63 310 67Q312 73 314 79Q312 84 310 88Q309 93 309 104Q309 115 308 118Q294 140 285 145Q279 143 277 143Q265 146 253 148Q251 148 251 147Q242 135 228 125Q221 117 217 110Q213 102 205 99V92Q201 60 197 28V25Q202 8 209 -10Q216 -41 222 -78Q227 -83 234 -85Q234 -114 248 -122Q250 -118 250 -110Q247 -89 243 -68Q243 -60 246 -54Q261 -76 279 -141Q298 -197 304 -263Q291 -246 283 -224Q276 -201 268 -179Q261 -181 261 -191Q263 -201 265 -211Q276 -247 289 -284Q301 -321 304 -363Q311 -375 317 -397Q325 -424 329 -432Q344 -525 373 -586Q385 -613 392 -623Q405 -641 424 -647Q422 -638 414 -627Q404 -614 403 -604Q411 -607 416 -615Q422 -623 428 -629Q460 -661 534 -682Q528 -689 518 -689Q502 -687 488 -682Q463 -670 450 -662V-664Q450 -675 460 -683Q465 -687 479 -694Q511 -709 551 -709Q631 -707 680 -662Q712 -629 719 -563V-560Q718 -550 711 -538Q707 -523 702 -508Q691 -493 679 -482Q674 -469 668 -457Q665 -452 638 -431Q618 -411 605 -410Q608 -423 627 -440Q641 -453 646 -463Q627 -457 606 -440Q584 -422 576 -404Q572 -396 572 -390Q573 -388 573 -387Q577 -380 593 -373Q609 -365 620 -359Q660 -333 680 -304Q707 -266 707 -215V-210Q707 -138 643 -82Q637 -76 631 -71Q625 -65 615 -65Q611 -65 608 -66Q608 -67 607 -69Q607 -73 616 -77Q623 -80 623 -83ZM255 -166H257Q261 -164 264 -162Q264 -141 249 -141Q251 -160 255 -166ZM354 -172V-165Q403 -152 420 -148Q465 -138 498 -138Q515 -138 531 -141Q544 -144 557 -148Q579 -152 585 -156Q612 -173 614 -215Q614 -227 609 -240Q605 -251 579 -277Q557 -295 534 -314Q510 -316 506 -316Q501 -316 465 -312Q464 -321 449 -334Q435 -346 433 -354Q431 -362 431 -366Q434 -388 437 -410Q450 -427 493 -440Q526 -450 539 -460Q554 -472 567 -493Q568 -494 588 -532H595Q597 -532 597 -533V-535Q597 -544 604 -557Q611 -570 611 -577V-581Q609 -593 590 -603Q573 -612 556 -615Q552 -615 547 -616Q510 -616 477 -583Q450 -556 436 -521Q432 -503 427 -485Q416 -458 405 -432Q397 -406 388 -344Q379 -280 369 -252V-248Q370 -242 370 -236Q370 -233 367 -233Q363 -233 363 -231V-230Q365 -226 365 -219Q365 -212 360 -198Q354 -181 354 -172Z"/>
</svg>