<svg xmlns="http://www.w3.org/2000/svg" viewBox="0 -800 1024 1024">
	<path fill="#000000" d="M281 -37V-25Q283 9 285 42Q285 68 280 80Q273 84 270 92Q271 94 271 96Q231 75 169 75Q147 75 136 77Q91 84 85 84Q53 84 43 65V61Q43 52 37 47Q32 42 28 36Q29 34 31 34Q34 36 37 37Q38 36 38 34V32Q38 24 29 17Q22 11 22 7V6Q24 7 26 7Q38 7 41 -10Q40 -16 29 -21Q19 -25 18 -30Q23 -27 28 -27Q35 -27 49 -35Q60 -41 65 -42H71Q94 -39 116 -37Q127 -38 138 -39Q147 -39 149 -34Q147 -26 131 -26Q115 -27 98 -28Q81 -28 80 -18V-17Q80 0 131 0Q176 0 197 -15Q188 -26 172 -26Q168 -25 164 -25Q167 -35 176 -35H186Q196 -35 200 -40Q201 -47 201 -59Q201 -76 200 -94Q203 -106 206 -118Q205 -122 203 -127V-131Q205 -141 206 -151Q204 -167 202 -183Q202 -195 207 -201Q200 -252 200 -354V-451Q200 -463 199 -475Q199 -494 207 -505Q212 -490 212 -462Q212 -443 211 -425Q211 -394 219 -375Q233 -414 233 -491Q233 -517 232 -543Q234 -568 236 -594Q236 -611 229 -622H227Q216 -622 214 -602Q212 -584 203 -583Q200 -598 200 -612Q201 -630 201 -649Q201 -674 197 -687Q110 -680 75 -670Q61 -677 46 -684V-688Q45 -703 38 -712Q31 -721 25 -732Q25 -735 29 -736Q33 -737 33 -739Q22 -752 12 -765H14Q26 -761 37 -757Q41 -762 41 -766Q41 -772 30 -781Q21 -789 21 -794V-795H23Q34 -794 44 -793H47Q52 -800 56 -808H66Q73 -808 78 -811Q83 -806 96 -804Q136 -799 175 -799Q199 -800 223 -801H224Q230 -803 235 -807Q238 -808 244 -808Q252 -808 266 -803Q278 -799 288 -799H290Q290 -795 289 -791Q289 -787 292 -784Q295 -785 297 -788Q301 -793 305 -793Q307 -792 309 -792Q308 -788 307 -784H308Q310 -788 321 -793H324Q307 -765 307 -750Q307 -740 311 -732Q277 -683 277 -578Q277 -552 278 -540Q279 -528 279 -501Q279 -466 277 -412Q277 -400 276 -389Q277 -354 278 -319Q277 -286 276 -253Q277 -242 277 -231Q279 -197 281 -164V-144Q283 -121 284 -99V-94Q283 -65 281 -37Z"/>
</svg>