<svg xmlns="http://www.w3.org/2000/svg" viewBox="0 -800 1024 1024">
	<path fill="#000000" d="M750 -250H742Q740 -254 740 -261Q740 -265 742 -267H743Q747 -265 751 -264Q751 -258 750 -253ZM547 -288Q541 -270 529 -269Q529 -289 542 -289Q545 -288 547 -288ZM666 -89V-90Q666 -101 676 -109Q688 -119 691 -126Q687 -128 680 -128Q667 -128 640 -112Q600 -83 544 -63Q531 -60 516 -53Q501 -47 500 -35Q500 -31 501 -29H506Q531 -29 572 -46Q597 -56 613 -59Q594 -38 563 -27Q555 -24 503 -11Q465 0 449 0H446Q433 -2 420 -4Q408 -4 402 6Q395 24 389 43Q379 61 369 79Q365 117 351 127Q352 130 353 133V135Q339 143 328 143Q306 143 292 124Q277 106 276 97Q273 81 273 66Q272 51 260 42Q286 27 303 4Q320 -20 337 -44Q293 -92 272 -131Q243 -186 243 -247Q243 -264 244 -273Q245 -282 257 -327Q270 -369 325 -436Q337 -449 354 -457Q359 -460 369 -470Q378 -480 386 -483Q396 -487 406 -492Q457 -517 503 -521Q510 -522 524 -522Q547 -522 565 -515Q577 -521 588 -554Q596 -577 602 -586Q605 -592 611 -597Q620 -606 622 -611Q659 -617 667 -623Q669 -622 670 -621Q667 -616 664 -612Q664 -611 666 -609Q676 -611 681 -618Q686 -625 691 -632Q694 -630 694 -627Q693 -621 692 -615Q692 -610 694 -609H697Q701 -609 702 -615Q703 -621 707 -621H708Q709 -607 719 -583Q729 -559 729 -545V-538Q727 -508 709 -489Q690 -471 673 -452Q687 -429 689 -385Q689 -381 686 -380Q684 -379 683 -377V-371Q683 -363 679 -349Q674 -332 674 -322V-319Q663 -312 660 -297Q655 -296 647 -296Q599 -296 587 -344Q579 -340 570 -321Q562 -305 553 -304Q552 -306 552 -310Q556 -324 560 -339Q558 -341 554 -341Q543 -341 522 -310Q512 -290 501 -270Q472 -216 472 -193Q472 -185 473 -181Q479 -182 487 -197Q498 -218 512 -218Q507 -206 494 -182Q476 -149 470 -129Q538 -144 560 -156Q571 -164 581 -172Q631 -200 640 -206Q672 -227 689 -248Q702 -266 705 -285Q706 -292 706 -301Q707 -309 716 -313V-310Q715 -290 713 -271Q713 -259 716 -254Q719 -258 719 -269Q719 -286 726 -287Q728 -271 728 -253Q728 -235 738 -227Q740 -229 741 -234Q742 -241 746 -241H748Q750 -238 750 -234Q749 -226 748 -219Q753 -192 757 -173Q757 -158 742 -141Q738 -136 723 -128Q711 -121 704 -115Q686 -96 666 -89ZM332 -245V-238Q336 -166 393 -140Q426 -203 459 -265Q492 -328 516 -399Q501 -405 487 -405Q478 -405 473 -404Q443 -400 405 -372Q369 -345 354 -320Q332 -285 332 -245Z"/>
</svg>