<svg xmlns="http://www.w3.org/2000/svg" viewBox="0 -800 1024 1024">
	<path fill="#000000" d="M852 -387V-385Q850 -377 847 -370Q849 -367 851 -364Q857 -364 869 -368Q868 -363 863 -359Q858 -355 857 -352Q858 -349 860 -349Q863 -349 865 -350L866 -349Q858 -340 854 -321Q845 -295 825 -281Q809 -275 793 -270Q778 -275 762 -281Q744 -281 725 -282Q688 -288 653 -291H642Q633 -291 632 -298Q636 -300 647 -302Q661 -304 665 -308Q656 -320 636 -323Q630 -324 616 -324Q592 -324 581 -318V-316Q581 -307 596 -306Q611 -305 611 -298Q610 -294 605 -294Q597 -296 589 -298H582Q554 -295 526 -292H501Q481 -289 461 -287H449Q435 -287 428 -290Q429 -299 441 -299Q449 -298 457 -298H470Q526 -298 558 -314Q551 -321 533 -321H486Q427 -321 399 -319Q373 -319 346 -317Q320 -316 310 -301Q317 -293 342 -293H345Q364 -293 372 -291Q335 -281 290 -281Q246 -280 220 -257H213Q177 -257 165 -272Q162 -280 158 -288Q155 -295 144 -308Q132 -322 131 -332V-337Q131 -352 142 -366Q155 -367 158 -377Q162 -388 168 -398Q178 -407 195 -408Q211 -408 225 -412Q244 -421 265 -423Q261 -418 249 -413Q233 -406 230 -398Q238 -389 255 -389Q268 -389 281 -390Q294 -390 301 -388Q306 -392 312 -394Q318 -393 329 -393Q342 -393 355 -394Q365 -394 369 -393H370Q376 -394 381 -395Q384 -395 386 -393Q393 -395 396 -398Q419 -396 467 -396Q500 -396 568 -398Q589 -396 609 -395H614Q619 -397 624 -400H628Q634 -400 648 -398H657Q677 -399 697 -400H703Q728 -399 753 -398Q768 -398 775 -400Q792 -408 817 -413V-412Q813 -409 809 -401V-400Q814 -398 833 -397Q850 -397 857 -393Q847 -390 837 -388Q839 -385 843 -385Q846 -385 852 -387ZM574 -508V-507Q574 -506 572 -506Q567 -506 564 -509V-508Q564 -500 572 -491Q578 -485 579 -479Q576 -480 566 -487Q553 -496 546 -496Q540 -496 532 -487Q520 -489 515 -489Q501 -489 491 -481Q486 -486 467 -492Q453 -497 446 -502Q437 -502 425 -494Q416 -488 411 -486Q417 -493 424 -499Q431 -506 432 -515Q424 -539 415 -564Q414 -571 414 -577Q414 -583 409 -587Q400 -587 384 -593Q402 -596 419 -604Q422 -613 422 -614Q424 -619 430 -619H432Q434 -617 434 -613Q434 -607 433 -602Q433 -596 437 -595Q453 -606 473 -632Q467 -635 464 -635Q451 -631 438 -625Q442 -644 466 -647Q469 -650 469 -657Q466 -673 463 -689V-690Q470 -685 477 -673Q486 -658 491 -655Q498 -657 505 -665Q515 -677 516 -678Q520 -678 520 -673Q518 -665 516 -658Q537 -652 553 -632Q560 -623 578 -593Q610 -601 644 -607Q610 -592 581 -574V-566Q581 -563 579 -563Q582 -557 595 -554Q609 -551 611 -546H609Q600 -546 591 -547Q581 -547 576 -543Q571 -531 571 -522Q571 -513 574 -508ZM571 -105Q565 -97 565 -90Q565 -84 570 -70Q574 -59 574 -54Q571 -57 568 -61Q565 -65 560 -66Q554 -65 547 -63Q539 -61 536 -50Q533 -51 527 -51Q503 -51 491 -25Q490 -26 490 -31Q491 -37 491 -44Q491 -50 487 -53Q470 -54 461 -62Q451 -70 440 -76V-77Q440 -85 429 -94Q418 -93 388 -84Q398 -92 409 -99Q421 -105 427 -117Q424 -124 424 -134Q424 -164 448 -184Q445 -189 433 -221H435Q440 -217 448 -208Q458 -197 464 -193Q470 -201 472 -213Q477 -213 477 -209Q478 -206 480 -203Q508 -203 519 -199Q534 -217 541 -219Q533 -209 533 -202Q533 -184 550 -176Q557 -181 565 -184Q567 -184 569 -183Q564 -174 558 -165Q562 -156 574 -156Q595 -159 615 -162H619Q611 -156 596 -154Q577 -151 571 -143ZM545 -229H543V-230Q543 -240 554 -240H558Q555 -236 553 -233Q551 -229 545 -229ZM637 -548V-542H633Q625 -542 623 -543Q625 -549 632 -549Q635 -549 637 -548Z"/>
</svg>