<svg xmlns="http://www.w3.org/2000/svg" viewBox="0 -800 1024 1024">
	<path fill="#000000" d="M336 -520Q353 -520 353 -512Q353 -510 352 -508Q346 -508 346 -506Q336 -509 336 -520ZM369 -530H367Q355 -530 338 -538Q321 -546 313 -546Q307 -546 304 -545Q306 -540 317 -534Q328 -528 331 -521Q314 -531 297 -531Q286 -531 286 -522Q286 -520 288 -514Q276 -514 276 -504Q276 -496 282 -490Q198 -522 110 -545Q105 -541 97 -541Q87 -541 77 -542Q50 -558 50 -622V-634Q61 -648 68 -665H70Q74 -664 78 -664H80Q97 -675 112 -675Q132 -675 155 -659Q173 -646 186 -629Q173 -631 159 -634Q156 -634 150 -632Q154 -607 175 -599Q197 -590 220 -584Q241 -575 259 -573Q266 -573 271 -578Q262 -592 246 -599Q231 -606 218 -616Q269 -608 313 -586Q364 -564 395 -542Q392 -541 387 -541Q376 -541 357 -549Q332 -560 318 -560Q344 -545 369 -530ZM442 -276Q436 -277 436 -285Q436 -296 444 -298Q447 -296 447 -291Q447 -281 442 -276ZM327 6H333Q323 15 311 17Q299 19 284 23Q236 37 226 38Q199 38 178 43H176Q174 41 171 38H170Q161 41 153 41Q124 38 100 25Q71 17 51 1Q40 -14 27 -37Q15 -47 8 -74Q4 -96 4 -145V-160Q4 -206 10 -232Q21 -264 35 -295Q39 -309 43 -322Q48 -336 62 -338Q46 -312 42 -281V-274Q52 -284 65 -309Q74 -327 81 -336Q95 -351 110 -365Q126 -380 133 -401H129Q118 -401 103 -387Q92 -376 85 -374V-375Q86 -393 99 -399Q111 -404 118 -415H130Q137 -424 149 -429Q160 -434 173 -440Q182 -448 192 -451Q216 -453 225 -453Q286 -453 318 -418Q339 -389 349 -349Q356 -335 363 -322Q366 -309 368 -296Q379 -260 383 -232V-230Q379 -210 369 -197Q365 -193 336 -184Q329 -181 322 -178H316Q299 -179 282 -181Q277 -181 269 -179Q200 -161 131 -146Q134 -153 144 -156Q145 -156 162 -161Q187 -168 216 -174Q245 -180 265 -193Q259 -200 250 -200Q237 -197 224 -195Q203 -191 181 -187Q160 -183 131 -176Q101 -170 95 -151Q94 -147 94 -138Q94 -116 101 -104Q118 -74 166 -74Q182 -74 190 -76Q264 -89 363 -135Q372 -140 377 -146Q382 -152 390 -160Q408 -169 416 -182Q417 -184 417 -189V-200Q419 -210 429 -239Q433 -257 444 -270Q445 -267 445 -262Q442 -235 439 -209Q439 -199 442 -190Q447 -222 452 -254Q454 -247 454 -229V-211Q454 -187 458 -179Q461 -180 461 -188V-198Q461 -207 466 -207H467V-203Q467 -162 498 -138Q487 -130 486 -108Q485 -81 481 -74Q476 -64 464 -57Q452 -50 444 -46Q411 -26 401 -25Q403 -33 412 -40Q424 -49 426 -52Q420 -55 413 -55Q390 -51 366 -37Q336 -26 304 -15Q271 -4 247 13Q254 17 264 17Q274 17 293 12Q316 6 327 6ZM368 -10V-19Q373 -24 382 -24Q391 -24 392 -17Q388 -17 382 -12Q377 -8 373 -8Q372 -8 368 -10ZM236 -287V-293Q236 -339 205 -359Q180 -356 167 -337Q153 -315 131 -302Q129 -294 121 -283Q109 -266 109 -252V-250Q112 -249 117 -249Q129 -249 151 -260Q168 -268 174 -270Q187 -270 208 -279Q226 -287 236 -287Z"/>
</svg>