<svg xmlns="http://www.w3.org/2000/svg" viewBox="0 -800 1024 1024">
	<path fill="#000000" d="M971 -632V-627L970 -625L966 -611Q965 -610 964 -608Q962 -598 962 -577Q962 -549 968 -516L969 -510L967 -504Q964 -492 964 -489V-483L968 -465L953 -456Q928 -443 903 -443Q898 -443 893 -444H884Q769 -450 602 -450Q592 -450 576 -452Q569 -453 557 -453Q548 -453 543 -452Q525 -449 524 -449Q518 -449 510 -451Q418 -447 340 -447Q333 -448 325 -449Q322 -450 319 -450Q296 -450 254 -448L191 -445H190Q186 -445 178 -447Q177 -445 169 -443L167 -442H164Q158 -442 150 -447Q148 -447 144 -445Q129 -442 126 -442L125 -441H121Q117 -441 113 -442H110Q103 -442 98 -441Q86 -438 83 -438H77L75 -439Q56 -442 40 -466Q37 -469 37 -471L32 -477V-494L28 -499L29 -508Q29 -509 32 -536Q36 -554 36 -560Q36 -564 32 -576L28 -583L30 -590Q37 -623 37 -681V-841L81 -776Q88 -769 94 -743L97 -740L111 -730Q142 -707 154 -685Q160 -682 164 -677Q185 -661 187 -660Q195 -652 207 -645L208 -644Q220 -641 223 -639Q225 -637 229 -632Q262 -627 270 -602L271 -600H300Q316 -600 348 -590Q357 -587 375 -583Q388 -580 414 -578Q442 -576 455 -574Q459 -575 467 -575Q476 -575 480 -574H482L488 -578L498 -575Q516 -570 536 -570Q559 -570 565 -573L568 -574H573Q580 -574 584 -572Q685 -576 743 -605H744Q787 -624 827 -655Q846 -670 861 -687Q861 -690 862 -691Q868 -716 886 -724L912 -737Q914 -741 916 -743L936 -771L955 -742Q963 -731 963 -713V-696Q963 -683 966 -668Q971 -640 971 -632ZM914 -577Q914 -598 917 -616Q918 -622 922 -630Q922 -632 923 -632Q923 -640 919 -660V-662Q911 -660 908 -660H905L904 -661H901Q889 -642 857 -617Q813 -582 764 -561Q696 -530 590 -524L588 -521H578Q574 -521 566 -524Q550 -522 536 -522Q519 -522 493 -526Q489 -525 485 -525Q396 -518 266 -530Q238 -532 206 -555Q171 -580 140 -622L137 -636Q136 -637 135 -638L128 -642L126 -646H125L117 -651L114 -658Q109 -670 93 -682L86 -675Q84 -611 79 -587Q84 -574 84 -560Q84 -548 80 -528L77 -512Q81 -502 81 -496Q81 -494 80 -492Q82 -490 84 -488Q87 -488 89 -489Q99 -491 110 -491H118Q119 -491 121 -490H123Q127 -492 131 -492Q149 -495 152 -495H155Q162 -495 164 -494Q167 -495 173 -495Q183 -495 186 -494Q188 -493 190 -493L251 -496Q295 -498 319 -498Q325 -498 335 -496Q338 -495 340 -495Q419 -495 511 -499L515 -500L518 -499Q522 -497 524 -497Q525 -497 535 -499Q547 -501 557 -501Q573 -501 581 -500Q593 -498 602 -498Q769 -498 886 -492H903Q912 -492 916 -493Q916 -501 920 -513Q914 -546 914 -577ZM245 -600H246Q247 -602 247 -605Q247 -615 241 -617Q238 -617 237 -616Z"/>
</svg>