<svg xmlns="http://www.w3.org/2000/svg" viewBox="0 -800 1024 1024">
	<path fill="#000000" d="M612 -409H611Q603 -409 603 -419Q604 -432 612 -434Q615 -434 618 -431Q618 -418 612 -409ZM692 -596V-586Q665 -570 653 -535Q640 -499 626 -469Q624 -479 624 -483Q624 -496 635 -521Q646 -546 646 -561V-565Q625 -565 611 -529Q604 -511 586 -433Q569 -351 568 -334Q567 -323 566 -313Q566 -298 574 -294Q582 -307 587 -341Q593 -383 606 -395Q603 -368 591 -311Q574 -231 572 -190Q569 -123 559 -47Q553 -17 542 14Q520 23 509 23Q500 23 489 17Q484 11 480 4Q474 1 468 -2Q462 -7 452 -24Q441 -43 433 -46Q431 -59 425 -68Q418 -76 412 -85Q419 -92 419 -106Q419 -111 418 -113Q415 -117 397 -122Q431 -150 443 -201Q456 -251 468 -301Q441 -311 395 -311H388Q390 -316 409 -318Q428 -320 432 -323Q422 -338 381 -338H374Q315 -338 268 -332Q243 -329 232 -314Q240 -308 258 -308Q287 -311 316 -314Q331 -314 338 -307Q256 -296 220 -277Q210 -272 202 -272Q192 -272 182 -277Q177 -279 177 -282V-283Q165 -251 155 -208Q143 -155 143 -116V-104Q143 -25 108 -25Q105 -25 97 -27Q90 -24 87 -14Q87 -13 84 5Q78 -1 76 -14Q74 -24 73 -27Q67 -39 45 -55Q26 -69 21 -76Q15 -117 3 -153Q23 -207 29 -247Q32 -249 34 -253Q38 -260 40 -260H42Q38 -235 34 -211Q34 -201 38 -194Q56 -209 63 -235Q70 -261 75 -287Q89 -334 93 -379Q93 -389 92 -394Q70 -380 67 -347Q64 -313 51 -290Q50 -294 50 -302Q54 -340 64 -376Q66 -404 75 -425Q74 -428 74 -434Q74 -448 81 -455V-464Q81 -483 85 -494V-495Q84 -501 83 -507Q83 -512 88 -512Q83 -514 83 -520Q83 -525 85 -527Q69 -541 69 -575Q71 -599 72 -623Q73 -622 76 -622Q80 -622 83 -628Q85 -633 88 -637Q70 -683 55 -733Q66 -722 78 -695Q91 -667 100 -658Q93 -683 85 -709H87Q91 -708 94 -702Q97 -695 101 -689Q114 -670 120 -667V-668Q120 -671 116 -678Q110 -688 110 -694Q117 -691 125 -682Q133 -674 138 -671Q153 -680 171 -680Q189 -680 214 -671Q218 -658 235 -635Q261 -599 261 -577Q261 -568 258 -559Q254 -546 228 -497Q207 -457 206 -427Q214 -422 225 -422Q231 -422 251 -424Q312 -426 378 -427Q444 -427 482 -454Q484 -452 484 -451Q483 -447 481 -444Q481 -443 482 -443H486Q488 -443 488 -441V-440Q504 -464 509 -503Q515 -541 522 -578Q524 -599 526 -620Q528 -627 529 -634Q529 -638 526 -644Q526 -645 519 -650Q524 -655 528 -667Q528 -671 525 -674H522Q517 -673 511 -673Q508 -673 507 -674Q513 -681 523 -686Q539 -700 556 -718Q574 -736 594 -738Q604 -738 614 -731H631Q653 -709 668 -681Q684 -653 698 -625Q692 -618 692 -596Z"/>
</svg>