<svg xmlns="http://www.w3.org/2000/svg" viewBox="0 -800 1024 1024">
	<path fill="#000000" d="M592 -291H591Q580 -291 580 -275V-269Q578 -271 577 -271Q570 -271 570 -257Q510 -277 435 -280Q436 -288 452 -289Q466 -290 469 -295Q450 -312 406 -313Q395 -313 391 -312Q380 -310 380 -301Q380 -291 397 -290Q410 -289 413 -285Q407 -280 391 -280H362Q324 -277 285 -274Q275 -275 265 -276Q261 -274 257 -273Q254 -273 253 -278Q255 -284 276 -286Q296 -287 319 -288Q342 -288 356 -300Q353 -310 334 -310Q313 -308 292 -306Q283 -305 261 -305H209Q189 -305 181 -285Q182 -279 193 -279Q207 -279 208 -269Q197 -266 174 -262Q143 -257 129 -251Q120 -246 112 -238Q104 -230 93 -229H90Q69 -234 49 -249Q38 -260 38 -282Q33 -289 27 -297Q24 -307 24 -313Q27 -335 39 -355Q42 -366 47 -374Q64 -385 80 -397Q92 -408 100 -417Q108 -426 118 -429V-427Q118 -424 112 -416Q101 -402 101 -392H102Q103 -392 104 -395Q105 -398 108 -398Q109 -398 110 -397Q109 -392 108 -388Q109 -387 109 -386Q131 -384 142 -384Q185 -386 227 -388Q236 -387 245 -387H261Q325 -389 389 -392Q394 -392 398 -393Q410 -394 436 -394H491Q564 -394 592 -421V-420Q592 -415 585 -407Q578 -399 578 -393Q579 -391 579 -389Q580 -380 589 -380Q599 -381 608 -383H609Q605 -378 600 -374Q595 -369 594 -360Q595 -358 597 -358Q601 -362 604 -366Q605 -366 607 -364V-363Q606 -360 603 -356Q599 -352 598 -345V-344Q598 -333 604 -333Q607 -333 608 -334Q595 -322 592 -299Z"/>
</svg>