<svg xmlns="http://www.w3.org/2000/svg" viewBox="0 -800 1024 1024">
	<path fill="#000000" d="M762 20V22Q761 23 759 23Q753 20 748 14Q744 16 741 16Q738 16 736 13Q731 16 712 18Q691 20 688 25Q690 17 690 13Q690 8 686 5Q676 6 667 20Q661 30 654 33V32Q654 27 662 13Q668 2 668 -3Q668 -7 665 -10Q664 -11 661 -11Q659 -11 655 -7Q649 -1 644 -1Q653 -41 656 -88Q660 -134 665 -178Q661 -184 661 -196V-230Q661 -255 656 -295Q650 -343 650 -361V-388Q647 -437 637 -480Q638 -486 638 -493Q638 -497 637 -500Q636 -509 615 -566Q602 -599 584 -612Q566 -625 530 -625H522Q479 -625 447 -596Q428 -579 396 -529Q347 -446 343 -364Q340 -314 340 -268Q340 -266 346 -101Q348 -73 352 -61Q360 -45 364 -30V-28Q364 -19 356 -6Q348 7 347 16H342Q333 16 329 21Q324 26 319 30V28Q319 24 318 20V18Q313 16 304 16Q287 16 287 33Q288 36 288 39Q286 37 281 16Q269 15 263 7Q261 9 261 13V16Q256 13 251 4Q247 -3 243 -6Q234 -11 224 -19Q218 -28 218 -46Q220 -69 221 -93Q220 -114 219 -136Q219 -149 222 -160Q220 -233 218 -307Q218 -356 222 -385Q232 -481 281 -586Q289 -601 292 -605Q299 -615 308 -617V-615Q308 -609 294 -583Q279 -558 275 -550Q268 -534 268 -525Q268 -515 275 -509Q283 -512 287 -521Q291 -530 294 -539Q324 -615 390 -660Q394 -663 394 -665Q394 -669 383 -669Q374 -669 369 -666Q366 -665 360 -659Q354 -653 348 -653H347L350 -668Q399 -698 437 -700Q450 -704 463 -708Q480 -711 496 -711Q517 -711 532 -708Q631 -695 692 -625Q751 -556 761 -409Q764 -394 767 -380Q768 -371 768 -355Q768 -333 767 -311Q759 -311 757 -327Q756 -340 751 -343Q735 -341 735 -308Q737 -282 739 -257V-190Q739 -116 756 -84Q768 -96 768 -125Q766 -158 764 -191Q764 -209 768 -221Q774 -208 776 -170Q777 -135 782 -123Q779 -36 779 -34V-18Q775 -3 761 8V11Q762 16 762 20ZM767 -272Q758 -272 758 -287Q758 -295 762 -301Q770 -301 770 -289Q770 -287 767 -272Z"/>
</svg>