<svg xmlns="http://www.w3.org/2000/svg" viewBox="0 -800 1024 1024">
	<path fill="#000000" d="M426 -534V-532Q415 -528 409 -525Q406 -525 403 -528Q404 -544 421 -544H424V-543Q425 -538 426 -534ZM586 -204H588Q584 -195 577 -189Q576 -191 576 -194Q576 -204 586 -204ZM564 -174L565 -173Q569 -177 573 -181Q574 -181 575 -180Q576 -151 585 -131Q593 -111 603 -91Q601 -85 601 -82Q601 -73 607 -63Q594 -35 583 0Q571 1 566 9Q561 17 554 23Q536 21 530 21Q519 21 514 23Q514 19 509 9Q507 8 483 -25Q475 -34 464 -43Q453 -52 452 -68Q460 -67 471 -56Q481 -46 490 -45Q492 -51 492 -54Q492 -63 484 -74Q482 -77 470 -90Q453 -107 435 -124Q401 -162 360 -189Q358 -183 358 -182Q359 -174 365 -168Q372 -162 378 -157Q392 -140 406 -123Q430 -99 432 -88Q420 -88 407 -103Q335 -174 265 -253Q216 -218 167 -184Q146 -171 142 -160Q138 -148 138 -123Q138 -100 136 -91Q126 -72 126 -34Q117 -26 108 -18Q100 -11 88 -10Q82 -10 70 -15Q48 -30 31 -52Q30 -61 28 -71Q26 -78 17 -92Q8 -106 8 -114Q8 -120 12 -127V-134Q13 -157 21 -177Q29 -197 34 -216Q36 -228 37 -239Q38 -251 46 -259Q47 -285 59 -324Q63 -339 67 -355Q71 -371 82 -376Q78 -346 67 -312Q58 -276 58 -264Q58 -255 61 -246Q79 -262 93 -324Q108 -368 113 -409Q113 -428 105 -441Q95 -439 92 -421Q88 -401 82 -397Q80 -407 80 -415Q80 -444 89 -466Q81 -481 70 -493Q58 -505 49 -517Q53 -531 53 -547Q53 -559 50 -570Q51 -571 53 -571Q56 -569 58 -567Q64 -579 64 -590Q64 -605 52 -634Q38 -668 38 -686V-688Q55 -645 82 -604Q86 -609 86 -615Q86 -623 76 -638Q66 -653 65 -661Q74 -659 86 -640Q96 -624 105 -622V-624Q105 -628 100 -636Q95 -644 95 -649V-652Q109 -643 126 -636Q150 -647 198 -647Q211 -647 216 -646Q227 -645 236 -626Q244 -609 253 -607Q255 -598 263 -581Q274 -557 274 -543V-541Q273 -521 259 -505Q245 -490 235 -472Q208 -419 197 -375Q197 -373 196 -373V-372Q212 -382 253 -416Q283 -438 312 -457Q320 -466 327 -475Q338 -482 348 -489Q356 -495 361 -500Q366 -506 375 -506Q381 -506 384 -505Q358 -481 329 -461Q299 -440 286 -408Q302 -412 314 -423Q326 -434 338 -445Q363 -467 388 -486Q414 -505 441 -525Q468 -545 483 -574Q477 -576 475 -576Q467 -576 453 -562Q442 -551 437 -550Q437 -563 455 -582Q470 -598 473 -612Q470 -619 463 -619Q455 -619 449 -621V-622Q449 -629 455 -630Q460 -631 464 -633Q456 -637 442 -637Q429 -637 418 -634Q431 -644 446 -652Q461 -659 468 -675Q489 -677 523 -693Q550 -706 567 -708Q577 -698 591 -675Q603 -655 609 -648Q609 -640 607 -639Q618 -621 628 -599Q638 -577 639 -550Q639 -544 638 -538Q634 -512 629 -487Q581 -477 541 -465Q505 -446 473 -422Q408 -382 350 -322Q386 -291 424 -262Q462 -233 494 -198Q508 -194 524 -178Q530 -181 538 -190Q548 -201 556 -204Q548 -189 541 -172Q553 -186 563 -203Q570 -223 583 -237Q584 -235 584 -231Q582 -219 575 -207Q565 -187 564 -174Z"/>
</svg>