<svg xmlns="http://www.w3.org/2000/svg" viewBox="0 -800 1024 1024">
	<path fill="#000000" d="M743 -96V-90Q746 -69 748 -48Q748 -44 746 -30Q737 7 720 19Q708 26 697 30Q686 34 678 46Q667 43 655 40Q652 40 650 43Q587 14 557 -50Q523 -128 498 -217Q474 -191 456 -161Q439 -130 422 -100Q404 -71 384 -42Q364 -12 357 27Q345 36 331 36Q320 36 307 28Q284 11 268 -31Q254 -69 252 -103Q263 -114 263 -128Q263 -141 252 -165Q243 -186 241 -195Q248 -190 256 -175Q267 -154 280 -151V-153Q275 -164 269 -176Q270 -177 271 -177Q280 -170 289 -164Q297 -169 305 -175Q312 -182 324 -184Q324 -174 317 -164Q311 -155 310 -149Q312 -143 315 -141Q326 -144 332 -152Q339 -161 346 -169Q374 -197 400 -229Q411 -240 415 -258Q415 -263 414 -265Q392 -247 367 -221Q361 -211 351 -208Q349 -208 348 -209Q349 -219 358 -228Q366 -237 373 -245Q423 -306 459 -352Q451 -399 413 -460Q399 -480 393 -484Q381 -490 367 -495Q354 -500 342 -511Q337 -532 315 -547Q316 -549 316 -552Q314 -562 312 -572Q312 -575 315 -580Q310 -592 295 -613Q282 -631 277 -643Q300 -625 324 -609Q322 -615 315 -624Q306 -636 304 -643Q312 -638 318 -631Q324 -625 337 -624Q338 -625 338 -626Q338 -630 331 -635Q326 -639 326 -640H333Q338 -640 348 -637Q363 -646 378 -656Q392 -665 413 -666Q424 -666 431 -664Q473 -640 501 -609L505 -597Q543 -545 563 -484Q585 -431 591 -368Q595 -363 598 -356Q599 -330 610 -286Q620 -247 622 -230Q599 -246 595 -283Q591 -317 572 -335Q577 -253 608 -172Q630 -113 649 -113Q652 -113 656 -115V-117Q656 -125 650 -136Q644 -146 644 -155V-157Q657 -156 669 -144Q681 -132 690 -132Q691 -132 699 -134Q704 -139 709 -155Q717 -178 726 -179Q724 -161 721 -143V-137Q728 -148 736 -181Q745 -216 754 -227Q757 -224 757 -221Q755 -212 752 -203Q741 -165 733 -118H735Q738 -118 738 -124Q738 -129 741 -129H742Q745 -126 745 -120Q744 -108 743 -96Z"/>
</svg>