<svg xmlns="http://www.w3.org/2000/svg" viewBox="0 -800 1024 1024">
	<path fill="#000000" d="M376 -514V-511Q374 -510 371 -510Q363 -510 361 -523Q371 -523 375 -521Q376 -517 376 -514ZM393 -533H389Q381 -533 364 -541Q348 -549 338 -549Q336 -549 328 -547Q335 -541 343 -537Q352 -534 355 -524Q340 -534 322 -534Q309 -534 309 -525Q309 -523 311 -517H309Q303 -515 299 -509Q303 -501 307 -493Q267 -507 218 -524Q170 -542 123 -544Q110 -544 104 -543Q76 -559 76 -625V-638Q82 -645 93 -668H95Q99 -667 102 -667H104Q119 -678 137 -678Q158 -678 179 -663Q197 -650 210 -632Q197 -634 184 -637Q181 -637 175 -635V-634Q175 -617 191 -607Q201 -601 227 -593Q256 -581 282 -577Q291 -577 295 -581Q288 -592 264 -605Q248 -613 242 -619Q268 -618 291 -608Q314 -599 336 -589Q381 -572 419 -543Q403 -544 382 -552Q357 -562 342 -563Q368 -548 393 -533ZM179 -408L160 -391Q156 -394 156 -399Q158 -411 171 -413Q177 -413 179 -408ZM242 27H257Q267 27 272 31Q258 42 232 42Q200 42 170 29H169Q166 31 163 32H162Q152 23 127 9Q100 -6 90 -16Q59 -47 43 -75Q18 -116 18 -177Q18 -247 51 -295Q59 -305 80 -329Q91 -345 102 -357Q112 -370 133 -374Q128 -363 108 -343Q80 -315 80 -292Q93 -297 103 -310Q113 -323 123 -335Q153 -354 176 -377Q190 -388 205 -396Q220 -405 230 -421Q226 -427 219 -427Q212 -427 198 -419Q188 -413 184 -413Q185 -423 194 -430Q203 -436 212 -442Q233 -457 249 -461Q256 -458 263 -455Q268 -458 272 -461H277Q282 -461 284 -460Q322 -479 374 -479H381Q364 -475 348 -470Q332 -465 323 -452H325Q330 -452 339 -457Q349 -463 355 -463H358Q353 -453 344 -448Q335 -443 333 -430Q336 -430 338 -435Q340 -440 344 -440H347Q343 -424 343 -415Q343 -402 348 -392Q437 -341 437 -227V-221Q437 -205 433 -173Q428 -123 393 -65Q381 -40 366 -19Q352 -1 343 6Q328 18 311 19Q311 13 317 10Q322 7 326 4Q347 -12 366 -46Q360 -49 356 -49Q347 -48 340 -39Q334 -30 326 -23Q296 1 263 7Q253 8 243 9Q233 9 227 19Q229 27 242 27ZM234 -83H236Q253 -83 271 -101Q285 -115 295 -119Q311 -145 326 -178Q347 -227 347 -248V-250Q343 -261 339 -272V-277Q340 -285 340 -293Q340 -300 336 -305Q336 -306 335 -306V-305Q313 -303 291 -301Q284 -301 281 -302Q271 -294 258 -290Q251 -272 209 -233Q171 -198 168 -166V-155Q168 -113 198 -95Q222 -83 234 -83Z"/>
</svg>