<svg xmlns="http://www.w3.org/2000/svg" viewBox="0 -800 1024 1024">
	<path fill="#000000" d="M445 -99V-92Q446 -82 446 -72Q446 -67 445 -64Q440 -55 435 -48Q435 -44 434 -41Q434 -15 463 5Q490 24 516 24Q582 24 608 -24Q606 -28 606 -29Q607 -34 608 -40Q600 -67 583 -90Q558 -122 518 -143Q492 -154 465 -162Q416 -181 384 -209Q340 -247 340 -295V-304Q341 -308 341 -317V-325Q341 -343 343 -351Q351 -384 385 -399V-397Q381 -385 370 -376Q358 -357 358 -333Q358 -321 362 -313Q370 -324 379 -346Q389 -369 395 -378Q401 -386 418 -398Q442 -415 448 -429Q444 -435 438 -435Q424 -430 410 -425Q407 -425 406 -426Q412 -444 431 -454Q450 -464 469 -473Q460 -481 451 -490Q409 -505 376 -542Q340 -584 336 -625V-636Q336 -691 385 -750H391Q403 -771 429 -779Q454 -787 478 -796Q481 -795 486 -795Q505 -798 524 -802Q532 -802 539 -798Q604 -798 611 -766Q598 -771 577 -780Q556 -788 534 -789Q514 -789 502 -778Q512 -770 544 -762Q578 -754 594 -743Q607 -733 621 -720Q635 -707 649 -706Q655 -706 663 -711Q661 -722 649 -733Q637 -744 635 -753Q643 -755 645 -755Q658 -755 659 -741H660Q666 -741 669 -736Q673 -732 678 -726Q690 -714 693 -710Q700 -700 703 -689Q702 -683 701 -677Q704 -669 706 -661Q704 -644 701 -628Q701 -621 704 -615Q704 -612 703 -612Q701 -615 699 -615H698Q697 -614 697 -610V-597Q694 -598 691 -605Q689 -610 687 -612V-611Q690 -597 692 -583Q692 -574 684 -571Q684 -600 657 -603H655Q642 -600 629 -598H627Q608 -602 596 -619Q583 -636 574 -651Q555 -660 536 -669H533Q461 -669 456 -600Q456 -597 462 -595Q467 -594 468 -592Q500 -561 539 -536Q579 -511 616 -485Q617 -483 624 -471Q625 -470 628 -470H630Q633 -470 635 -468Q684 -421 695 -367Q696 -362 696 -352Q692 -315 687 -281Q684 -279 680 -278Q651 -215 588 -195Q627 -163 642 -147Q670 -116 680 -81Q687 -67 693 -54Q694 -48 694 -36Q694 24 633 83Q607 108 567 117Q537 124 480 125Q473 120 468 115Q414 101 384 79Q344 49 344 0Q345 -6 345 -12Q348 -37 374 -73Q396 -104 418 -121Q433 -131 447 -136V-135Q447 -131 438 -124Q422 -111 422 -101V-100Q423 -99 425 -99Q428 -99 432 -105Q437 -112 439 -112Q440 -111 441 -111Q438 -102 435 -93V-91H436Q437 -92 438 -95Q438 -99 442 -100Q444 -100 445 -99ZM491 -252H496Q507 -252 542 -265Q572 -275 582 -294Q602 -334 602 -357Q602 -369 597 -384Q586 -397 561 -419Q560 -414 558 -410V-408Q553 -406 494 -373Q440 -344 432 -310Q430 -302 430 -298Q430 -277 449 -264Q467 -252 491 -252Z"/>
</svg>