<svg xmlns="http://www.w3.org/2000/svg" viewBox="0 -800 1024 1024">
	<path fill="#000000" d="M411 -618V-617Q410 -608 403 -607Q396 -606 389 -603V-604Q391 -622 403 -623Q408 -623 411 -618ZM376 -563H420Q414 -557 400 -553Q381 -547 376 -540Q376 -536 375 -532Q376 -516 384 -508Q393 -499 399 -489Q392 -491 381 -500Q373 -507 367 -509Q342 -504 339 -479Q339 -474 340 -471Q333 -472 332 -478Q331 -485 328 -489Q326 -490 323 -490Q316 -488 308 -486Q306 -488 306 -498Q320 -499 324 -507Q320 -512 306 -514Q290 -516 287 -521Q279 -521 277 -512Q279 -506 284 -503Q290 -500 294 -497Q292 -492 287 -492Q276 -496 268 -506Q261 -506 251 -500Q244 -496 238 -495V-497Q238 -502 248 -508Q256 -513 259 -518Q256 -528 256 -540Q257 -553 257 -567Q257 -591 244 -599Q246 -599 247 -600Q255 -597 262 -591Q275 -598 286 -606Q297 -615 316 -616Q323 -616 328 -615Q340 -631 343 -641H348Q346 -627 346 -619Q346 -595 361 -591Q368 -595 378 -597H380Q371 -590 371 -577Q371 -570 376 -563ZM189 -546V-539Q178 -522 165 -507Q151 -492 150 -471Q150 -463 151 -459Q143 -462 141 -472Q139 -481 134 -488Q113 -491 96 -498Q91 -497 84 -488Q78 -480 75 -480Q79 -492 83 -504Q78 -515 66 -515Q45 -510 25 -500Q25 -501 24 -502Q24 -504 40 -515L63 -528V-537Q63 -550 59 -572Q55 -576 41 -580Q25 -585 22 -591Q35 -587 48 -587Q67 -587 82 -595Q98 -603 115 -612Q119 -615 121 -628Q124 -646 133 -647Q131 -639 131 -636Q131 -623 149 -614Q166 -606 166 -593Q148 -601 146 -602Q140 -599 137 -594Q142 -577 169 -564Q174 -566 174 -572Q174 -576 173 -580Q173 -584 175 -586Q182 -584 187 -574Q191 -564 196 -563Q202 -565 207 -565Q213 -565 217 -563Q195 -557 189 -546ZM423 -147H420Q423 -152 425 -157Q428 -162 434 -162H437Q434 -157 432 -152Q430 -147 423 -147ZM75 -471Q71 -451 59 -447Q59 -470 75 -471ZM410 -92H411Q413 -93 415 -98Q417 -103 422 -104Q413 -84 413 -57Q416 -57 417 -60Q418 -64 419 -65Q420 -45 420 -26Q420 5 407 18Q384 23 361 27Q335 24 322 1Q309 -23 294 -44Q280 -36 259 -14Q233 14 217 22Q200 27 183 31Q161 37 140 37Q107 37 84 24Q66 13 53 -5Q37 -21 37 -38Q37 -42 38 -44Q53 -29 63 -10Q73 10 100 12Q90 -6 74 -25Q58 -43 53 -72V-97Q53 -115 45 -122Q35 -120 33 -108Q31 -97 29 -86Q23 -97 23 -119Q23 -132 25 -152Q31 -209 50 -261V-268Q50 -296 35 -296Q20 -296 -13 -263V-264Q-13 -275 0 -287Q16 -302 19 -308Q17 -309 14 -309Q5 -308 1 -301Q-4 -293 -10 -288Q-10 -302 3 -320Q15 -338 16 -353Q28 -367 37 -372Q39 -386 50 -394Q61 -402 72 -410Q79 -417 86 -425Q118 -448 145 -448Q164 -448 179 -437Q213 -406 223 -353Q224 -347 224 -336Q224 -314 217 -291Q200 -278 174 -246Q153 -220 142 -210Q136 -198 132 -183Q132 -179 133 -177Q121 -155 121 -128Q121 -109 129 -95Q136 -81 154 -80H156Q185 -83 207 -95Q226 -111 238 -131Q258 -155 266 -171Q284 -209 285 -219Q286 -222 286 -228Q286 -239 285 -250V-255Q287 -261 288 -267V-292Q287 -302 285 -312Q287 -316 288 -320V-321Q287 -332 285 -344Q291 -360 294 -382V-384Q305 -397 315 -408Q326 -420 345 -421Q351 -421 355 -420Q371 -415 389 -405Q391 -395 403 -377Q417 -357 417 -343Q417 -336 416 -333Q410 -323 404 -314Q400 -304 399 -292Q398 -281 390 -273Q386 -277 386 -283Q388 -293 389 -303Q389 -309 387 -311Q361 -302 361 -229V-176Q361 -145 370 -134Q379 -140 379 -160Q378 -179 377 -198Q377 -222 389 -227Q389 -203 388 -179Q388 -135 395 -114Q400 -115 408 -128Q414 -137 417 -140Q418 -138 418 -135Q413 -120 408 -101Q408 -98 410 -92ZM11 -817H12Q18 -817 28 -809Q36 -802 42 -802Q46 -802 50 -805Q49 -811 40 -818Q34 -823 32 -826Q34 -827 37 -827Q51 -821 64 -816H66Q67 -816 67 -818Q66 -822 65 -826V-828Q71 -825 77 -822Q80 -822 81 -828Q93 -819 105 -808Q117 -797 134 -796Q134 -805 120 -817Q107 -828 105 -837Q151 -809 198 -774Q223 -757 231 -756H234Q256 -756 297 -789Q312 -800 327 -809Q342 -818 353 -831Q356 -829 387 -816Q398 -819 408 -822Q412 -822 414 -820V-819Q414 -815 410 -814Q405 -813 404 -808V-806Q404 -802 410 -798H413Q421 -798 431 -804Q440 -810 447 -810Q445 -802 435 -795Q422 -786 420 -783Q423 -782 429 -782Q439 -782 456 -793Q470 -802 478 -802H479Q399 -735 342 -705V-706Q343 -712 351 -718Q360 -724 367 -729Q386 -743 386 -753Q386 -758 382 -763Q353 -743 324 -723Q308 -713 293 -703Q278 -693 269 -678Q274 -674 281 -674Q299 -678 312 -685V-682Q312 -673 307 -670Q302 -666 294 -661Q278 -650 254 -639Q239 -630 223 -628H219Q204 -632 187 -648Q170 -664 158 -676Q140 -693 121 -711Q56 -761 41 -778Q15 -809 11 -817Z"/>
</svg>