<svg xmlns="http://www.w3.org/2000/svg" viewBox="0 -800 1024 1024">
	<path fill="#000000" d="M549 -1H570Q608 -1 630 -18Q618 -28 608 -29Q600 -30 580 -30Q540 -29 499 -29H475Q462 -29 449 -30Q424 -30 417 -16Q419 -8 432 -8H434Q440 -8 442 -7Q466 1 499 6Q496 15 486 15Q473 14 460 12H452Q418 14 383 16Q377 28 371 40Q368 39 365 32Q363 27 361 25H359Q345 25 332 12Q321 1 312 -1Q311 -2 311 -3Q313 -5 314 -8Q288 -27 266 -51Q268 -55 268 -62Q264 -80 256 -98Q269 -121 275 -151Q282 -181 290 -209Q289 -213 289 -222Q292 -253 297 -284Q298 -316 306 -341Q311 -338 311 -332Q310 -322 308 -312Q307 -305 307 -290Q308 -268 308 -246Q318 -250 324 -277Q330 -303 355 -454Q360 -486 360 -490Q360 -505 352 -510Q332 -500 329 -473Q326 -445 319 -422Q311 -425 311 -436Q311 -449 317 -457Q318 -491 319 -525Q319 -577 294 -595Q281 -623 264 -646Q246 -669 244 -707Q255 -689 265 -668Q276 -648 294 -641V-642Q294 -649 288 -655Q283 -661 278 -667Q263 -685 260 -695Q272 -691 287 -677Q299 -666 308 -662Q308 -666 301 -674Q291 -687 291 -693V-695H293Q304 -691 314 -686H315Q327 -687 337 -698Q347 -709 358 -716Q373 -724 390 -724Q417 -723 439 -707Q461 -691 481 -676Q498 -651 504 -617Q500 -614 500 -606Q500 -598 504 -590Q487 -568 475 -541Q467 -502 451 -464Q441 -429 436 -395H443Q465 -397 486 -399Q492 -398 497 -398Q516 -393 534 -388Q592 -377 632 -350Q661 -332 690 -315Q719 -297 740 -274Q764 -246 771 -188Q767 -113 737 -70Q709 -31 651 -7Q600 13 554 13Q539 13 524 10Q528 -1 549 -1ZM307 -371H305Q303 -379 303 -385Q303 -400 311 -400Q313 -400 317 -398L314 -372Q311 -371 307 -371ZM614 -245Q591 -258 562 -258Q512 -257 488 -224Q483 -223 475 -223Q453 -224 443 -237Q433 -249 418 -257Q403 -211 397 -119Q429 -116 472 -108Q516 -101 562 -100Q579 -100 588 -101Q630 -104 656 -115Q693 -131 693 -160Q693 -170 691 -175Q680 -216 614 -245Z"/>
</svg>