<svg xmlns="http://www.w3.org/2000/svg" viewBox="0 -800 1024 1024">
	<path fill="#000000" d="M583 18H582Q587 10 598 5Q628 -19 638 -46Q636 -48 631 -48Q623 -47 617 -41Q611 -35 606 -30Q578 -7 535 5Q524 7 513 9Q502 10 495 18Q497 26 514 26H527Q538 26 542 29Q539 34 525 38Q513 41 510 45Q490 37 465 38Q446 32 432 28Q429 28 427 29Q389 9 353 -16Q313 -64 300 -89Q277 -133 277 -187Q277 -201 278 -208Q282 -259 320 -312Q356 -362 395 -381Q396 -380 396 -378Q394 -372 388 -368Q375 -353 360 -338Q345 -322 344 -299V-297Q358 -299 365 -311Q373 -322 381 -333Q409 -357 440 -382Q456 -394 472 -404Q488 -414 499 -429Q494 -434 487 -434Q480 -434 467 -427Q456 -421 452 -420Q452 -428 462 -437Q467 -441 480 -450Q501 -464 519 -469Q525 -467 531 -465H535Q538 -467 540 -469H550Q556 -469 557 -468Q593 -487 643 -487H656Q640 -482 623 -478Q606 -473 596 -460H598Q603 -460 611 -465Q620 -471 627 -471H630V-469Q630 -464 620 -456Q607 -445 606 -439Q607 -438 608 -438Q610 -438 612 -443Q615 -449 618 -449Q620 -448 621 -448Q617 -435 617 -424Q617 -411 622 -400Q665 -363 672 -355Q696 -327 704 -289Q714 -239 714 -225Q712 -205 710 -186Q706 -147 692 -106Q688 -95 673 -75Q661 -59 655 -46Q653 -37 650 -28Q643 -14 623 1Q601 18 583 18ZM621 -253V-255Q617 -266 613 -277V-280Q614 -289 615 -299Q615 -305 612 -313H609Q595 -311 581 -309H579Q574 -310 569 -312Q566 -309 563 -307H561Q558 -308 555 -310H554Q542 -306 536 -298Q529 -290 523 -282Q502 -260 472 -233Q443 -206 433 -175Q431 -168 431 -156Q431 -110 484 -90Q495 -86 505 -86Q523 -86 546 -107Q558 -114 569 -121Q579 -131 600 -183Q621 -233 621 -253ZM446 -415Q438 -405 422 -402Q421 -404 421 -407Q423 -420 436 -421Q443 -421 446 -415Z"/>
</svg>