<svg xmlns="http://www.w3.org/2000/svg" viewBox="0 -800 1024 1024">
	<path fill="#000000" d="M817 -655V-657Q819 -670 830 -672Q838 -672 838 -661Q828 -658 817 -655ZM753 -481V-483Q753 -491 758 -494Q763 -497 767 -502Q761 -507 739 -507Q716 -507 708 -514Q707 -512 705 -511Q708 -498 720 -494Q731 -489 741 -483V-482Q741 -478 735 -476Q731 -474 730 -472Q717 -480 704 -491Q692 -501 672 -502Q664 -502 660 -501V-502Q660 -506 666 -509Q671 -512 672 -516Q669 -517 665 -517Q652 -513 639 -510Q642 -518 653 -527Q662 -534 665 -539Q660 -543 660 -552V-554Q660 -560 659 -562Q656 -572 640 -581Q627 -588 623 -595Q629 -595 647 -586Q663 -590 663 -609Q663 -615 660 -621H664Q685 -621 685 -654Q685 -667 681 -685Q694 -665 706 -645H712Q722 -645 740 -639Q755 -634 763 -634H767Q775 -635 787 -643Q802 -653 813 -654Q808 -646 795 -636Q781 -625 777 -619Q784 -609 791 -600Q803 -601 838 -613Q833 -607 822 -600Q807 -591 804 -583Q806 -576 808 -569V-567Q814 -561 833 -559Q849 -557 853 -555Q838 -552 822 -549Q806 -547 805 -529Q814 -525 826 -525Q794 -513 779 -484Q775 -487 771 -487Q762 -484 753 -481ZM794 -240H793Q784 -242 783 -257Q783 -271 793 -271H797Q795 -267 795 -259V-250Q795 -243 794 -240ZM792 -168V-156Q795 -103 797 -50Q797 -10 786 20Q765 30 750 42Q727 27 704 10Q681 -7 676 -36Q675 -44 674 -54Q673 -64 665 -72V-75Q665 -88 672 -111Q678 -131 679 -139Q681 -165 681 -181Q680 -222 679 -264Q679 -283 685 -288Q657 -334 650 -441Q655 -434 658 -426Q661 -418 669 -414Q682 -420 682 -428Q682 -432 681 -435Q682 -436 685 -436Q693 -434 700 -433Q704 -433 704 -437Q705 -440 708 -441Q712 -440 721 -440Q741 -441 760 -442Q769 -442 773 -441Q785 -438 791 -429Q796 -420 799 -408Q803 -383 818 -369Q818 -348 829 -345Q806 -326 806 -304Q806 -300 808 -292H807Q802 -289 796 -287Q795 -287 794 -288Q792 -294 792 -298Q793 -309 794 -320V-324H792Q784 -324 780 -319Q776 -315 770 -312Q764 -300 762 -259Q760 -217 758 -176Q758 -126 776 -105Q780 -116 780 -133Q779 -158 778 -184Q778 -206 785 -217Q788 -209 788 -201Q788 -192 787 -184Q787 -173 792 -168ZM503 -256V-254Q503 -241 488 -226Q486 -230 486 -237Q486 -256 502 -256ZM368 35H365Q360 34 355 33Q353 33 351 35Q324 22 316 17Q298 6 288 -9Q279 -22 279 -36V-38Q282 -49 285 -61V-64Q285 -87 265 -154Q250 -199 241 -214Q232 -225 222 -237Q221 -242 219 -247Q207 -263 172 -274Q167 -310 152 -338Q155 -345 155 -361V-373Q160 -378 163 -378Q157 -396 150 -414Q144 -432 143 -455V-462Q156 -431 178 -409Q174 -416 164 -451Q171 -443 178 -434Q184 -426 195 -421V-422Q195 -425 191 -430Q185 -437 185 -441H186Q190 -441 196 -435Q200 -431 205 -430H206Q211 -430 224 -436Q241 -444 250 -444Q266 -441 281 -439H287Q292 -435 295 -430Q299 -424 308 -424H311Q313 -414 326 -396Q335 -383 339 -373Q342 -359 343 -344Q343 -328 355 -318Q353 -306 353 -301Q357 -264 361 -228V-219Q344 -246 342 -290Q341 -333 315 -352Q313 -342 313 -336Q314 -315 321 -293Q328 -272 333 -250Q344 -190 355 -172Q365 -182 378 -212Q389 -238 399 -249Q399 -273 414 -277Q420 -298 430 -315Q440 -331 449 -349Q450 -371 462 -385Q475 -398 484 -415Q486 -421 487 -427Q505 -458 539 -468Q561 -472 574 -483Q572 -475 572 -472Q572 -468 574 -466Q581 -468 593 -476Q606 -484 616 -486Q604 -471 604 -453Q604 -441 608 -432Q609 -431 610 -431Q615 -433 619 -436H620Q614 -420 613 -390Q611 -348 598 -331Q596 -330 589 -330Q584 -316 571 -311Q558 -305 546 -298Q539 -292 534 -286Q529 -279 518 -276Q515 -273 514 -268Q512 -263 506 -262Q506 -265 505 -268Q505 -277 514 -286Q522 -294 522 -301Q522 -303 521 -306Q504 -305 492 -291Q488 -286 473 -261Q452 -230 450 -226Q428 -188 425 -182Q413 -156 413 -130V-127Q423 -135 436 -165Q448 -193 459 -200Q450 -165 432 -141Q423 -105 407 -75Q395 -50 389 -27V-24Q391 -11 392 2Q392 10 387 24Q382 38 382 45Q378 44 374 40Q370 36 368 35Z"/>
</svg>