<svg xmlns="http://www.w3.org/2000/svg" viewBox="0 -800 1024 1024">
	<path fill="#000000" d="M739 -96H741Q747 -98 752 -100Q755 -100 758 -97Q746 -90 746 -76Q746 -66 751 -48Q757 -26 757 -17Q757 -6 752 2Q748 10 735 18Q720 27 715 38Q639 26 563 14Q567 6 581 6Q593 7 605 8Q618 8 622 0Q592 -19 501 -19Q476 -18 450 -18H430Q399 -18 389 -3Q400 8 425 8Q451 7 477 5Q498 5 509 13Q497 19 481 19Q461 18 441 17H434L387 22Q375 24 349 33Q320 43 305 43Q299 43 296 42Q251 36 238 4Q234 -8 230 -21Q226 -34 215 -42V-50Q215 -79 235 -88Q235 -92 234 -96Q236 -123 256 -132Q277 -141 293 -154V-152Q291 -142 288 -133V-131Q294 -124 309 -124Q310 -124 343 -127Q340 -158 340 -191Q343 -290 346 -389Q346 -426 343 -462Q339 -486 329 -494H322Q321 -494 306 -491Q282 -517 279 -541Q256 -561 256 -579Q256 -588 265 -596Q259 -610 244 -628Q224 -652 220 -669H221Q226 -669 235 -656Q242 -648 251 -640Q259 -631 272 -627Q271 -631 261 -641Q251 -651 249 -658Q263 -650 279 -646Q281 -650 281 -651Q281 -654 277 -658Q272 -663 272 -666V-667Q275 -666 280 -666Q292 -667 298 -673Q305 -680 313 -686Q341 -681 348 -678Q383 -687 420 -691Q424 -690 428 -690Q433 -695 436 -695Q441 -694 445 -694Q467 -696 489 -698Q498 -698 507 -695Q499 -685 466 -683Q433 -681 425 -672Q435 -657 457 -657Q492 -660 532 -670Q538 -671 551 -671H575Q603 -671 614 -683Q609 -695 586 -695Q577 -694 567 -694Q560 -694 552 -696Q554 -707 576 -707H595Q615 -707 638 -715Q643 -717 673 -729Q676 -729 676 -727Q673 -722 670 -718H674Q682 -718 694 -723Q708 -729 713 -729Q716 -729 722 -727Q716 -722 708 -718Q701 -706 701 -691Q701 -680 706 -678Q709 -677 716 -683Q728 -692 733 -692Q734 -692 738 -690Q737 -687 728 -679Q717 -669 717 -660Q717 -655 718 -652Q719 -651 721 -651Q725 -654 734 -658H736Q726 -648 726 -627Q726 -611 732 -598Q722 -585 718 -551Q710 -547 689 -547H673Q657 -547 650 -545Q651 -542 656 -529Q663 -513 663 -501V-496Q660 -475 650 -454Q637 -407 637 -334Q640 -247 643 -161Q643 -147 642 -133Q655 -132 667 -132Q689 -132 727 -140Q728 -139 728 -138Q728 -137 725 -134Q721 -131 721 -127V-124Q734 -128 747 -132Q750 -131 752 -131V-130Q752 -125 744 -118Q735 -110 735 -105Q735 -100 739 -96ZM521 -126H531Q535 -134 535 -147Q535 -165 534 -183V-194Q541 -280 541 -315Q541 -394 532 -475Q534 -480 534 -490Q534 -505 524 -530H509Q477 -530 467 -524Q473 -517 473 -507Q473 -499 472 -492V-487Q474 -477 476 -467V-465Q474 -458 466 -450Q458 -441 457 -430Q457 -423 460 -417H458Q454 -417 454 -411Q455 -409 455 -405Q450 -382 445 -359V-353Q446 -343 446 -333Q446 -318 436 -314Q432 -323 432 -339Q433 -359 434 -380Q434 -401 425 -410Q414 -363 414 -283Q414 -260 416 -220Q416 -212 415 -205Q415 -191 424 -186Q427 -196 428 -222Q430 -257 437 -270Q443 -253 443 -228Q442 -199 441 -170Q441 -137 448 -121Q511 -126 521 -126ZM759 -743Q751 -732 742 -732Q738 -732 735 -735Q738 -745 750 -747Q756 -747 759 -743Z"/>
</svg>