<svg xmlns="http://www.w3.org/2000/svg" viewBox="0 -800 1024 1024">
	<path fill="#000000" d="M806 -515V-517Q806 -532 793 -552Q782 -569 770 -580Q745 -600 716 -600H714Q687 -600 656 -581Q640 -571 606 -544Q561 -506 522 -468Q482 -429 432 -396Q387 -369 371 -362Q333 -345 299 -345Q226 -346 165 -399Q110 -443 110 -506Q110 -518 111 -523Q114 -553 129 -577Q134 -584 164 -619Q179 -630 194 -641Q210 -652 236 -654Q214 -642 193 -630Q171 -618 164 -594Q172 -597 191 -610Q211 -624 226 -630L247 -636Q274 -646 297 -648H317Q333 -648 341 -652V-655Q340 -666 326 -667Q312 -668 302 -669Q304 -669 304 -673Q304 -675 308 -677H318Q324 -677 369 -672Q390 -670 410 -669Q413 -668 419 -663Q427 -656 434 -656Q435 -656 441 -658Q434 -650 434 -643Q434 -631 451 -609Q449 -599 447 -589V-586Q437 -584 427 -566Q418 -550 405 -548H401Q380 -552 357 -563Q325 -573 304 -573H293Q225 -573 193 -519Q190 -505 186 -491Q187 -488 187 -486Q189 -469 205 -453Q238 -430 294 -427H300Q348 -427 420 -474Q480 -515 511 -552Q544 -587 606 -629Q669 -669 729 -669H733Q825 -669 872 -571Q890 -535 890 -493Q890 -463 877 -438Q851 -386 782 -369Q785 -376 793 -378Q801 -381 808 -384Q832 -396 844 -416Q841 -416 838 -417Q827 -416 817 -410Q806 -404 795 -399Q757 -385 738 -382Q717 -383 707 -376Q708 -367 726 -366Q740 -365 743 -360Q738 -355 732 -355Q729 -355 714 -358Q641 -368 626 -375V-377Q626 -391 610 -405Q590 -422 586 -430Q604 -426 616 -420Q616 -429 600 -437Q581 -446 578 -452Q579 -452 581 -453Q589 -453 605 -445Q592 -456 572 -468Q640 -449 685 -449Q720 -449 748 -457Q769 -464 785 -478Q806 -496 806 -515ZM581 -227H571Q560 -225 548 -223Q534 -222 510 -222Q484 -222 457 -223H444Q423 -223 355 -218Q353 -218 324 -212Q277 -208 238 -198Q229 -193 220 -189Q203 -189 186 -200Q184 -206 181 -212Q164 -229 143 -243V-245Q146 -254 148 -263V-264Q147 -267 141 -270Q134 -273 133 -278Q142 -276 150 -275H154Q152 -281 137 -292Q123 -302 119 -308Q134 -300 155 -296V-298Q155 -301 150 -304Q142 -309 142 -313Q145 -313 171 -305Q180 -313 188 -320Q196 -327 210 -327H212Q238 -323 263 -315Q268 -314 279 -314Q319 -316 358 -319Q379 -319 389 -317Q385 -312 367 -310Q345 -308 343 -298Q347 -288 374 -288H385Q511 -292 636 -296Q635 -303 625 -308Q617 -312 607 -313Q599 -314 578 -314Q538 -313 497 -313Q467 -313 454 -315Q458 -321 469 -321Q480 -320 491 -320H492Q507 -322 522 -325Q538 -322 554 -320H558Q580 -321 602 -322Q612 -322 617 -320Q627 -321 649 -321Q700 -320 751 -319Q765 -319 778 -320Q831 -320 852 -327Q853 -327 853 -326Q853 -324 849 -321Q842 -316 842 -312Q842 -310 843 -308Q850 -307 863 -307Q877 -307 884 -305Q877 -301 868 -300Q858 -299 855 -292Q855 -291 858 -291H869Q874 -291 874 -290Q857 -281 857 -264Q858 -260 858 -256Q848 -245 835 -235Q823 -224 815 -211Q733 -222 643 -223Q612 -225 581 -227ZM835 -126H847Q836 -119 836 -99Q836 -89 837 -83Q824 -79 813 -75Q801 -71 798 -58Q750 -72 673 -72Q592 -70 510 -68H473Q445 -65 416 -63Q410 -62 396 -62Q381 -62 366 -63Q355 -63 348 -62Q310 -59 278 -52H268Q258 -52 252 -49Q245 -43 237 -38Q234 -37 229 -37Q207 -39 194 -59Q182 -79 169 -87V-89Q171 -93 173 -98Q173 -100 172 -102Q171 -105 161 -106Q152 -107 149 -110Q162 -115 174 -120Q175 -121 175 -122Q173 -125 171 -129V-131Q222 -167 265 -173Q264 -170 259 -166Q255 -162 254 -158Q282 -153 334 -153Q363 -153 417 -155Q612 -161 619 -161Q655 -161 672 -160Q678 -158 682 -158Q688 -157 700 -157Q736 -159 772 -162H799Q815 -162 822 -167V-163Q822 -156 825 -153H827Q835 -154 842 -155H846V-154Q846 -152 839 -148Q830 -143 829 -138Q832 -132 835 -126ZM291 -654H284Q277 -654 274 -652Q273 -652 273 -654V-659Q281 -663 287 -663Q291 -663 293 -662Q292 -658 291 -654ZM867 -331H861Q859 -333 859 -334Q859 -341 869 -341H873Q872 -334 867 -331Z"/>
</svg>