<svg xmlns="http://www.w3.org/2000/svg" viewBox="0 -800 1024 1024">
	<path fill="#000000" d="M756 -639Q755 -628 743 -620Q736 -621 736 -628Q738 -639 750 -641Q752 -641 756 -639ZM817 -56H818Q821 -56 824 -52Q826 -49 829 -48Q853 -71 857 -98V-100Q857 -103 853 -104Q847 -105 847 -108Q851 -117 854 -126H856Q860 -125 863 -125H865Q890 -162 907 -213Q927 -272 927 -323Q927 -372 908 -372H907Q898 -529 856 -599Q851 -638 818 -682Q800 -706 783 -711Q780 -720 767 -731Q758 -739 755 -743Q754 -759 752 -776Q750 -782 741 -793Q731 -805 730 -815Q740 -815 749 -805Q756 -796 761 -795V-796Q761 -802 755 -807Q750 -811 750 -816V-818Q755 -818 764 -811Q772 -805 778 -805Q781 -805 783 -806Q781 -809 778 -812Q778 -813 780 -815Q799 -809 819 -804Q839 -800 853 -789Q858 -781 900 -711Q906 -703 912 -695Q923 -665 933 -635Q974 -528 980 -404Q981 -385 981 -343Q981 -310 980 -293Q974 -164 876 5Q867 21 857 44Q841 81 832 93Q808 118 789 120Q785 119 778 114Q770 108 765 108Q763 108 759 110Q759 104 765 104Q757 93 747 87Q736 90 725 92Q725 91 724 90Q724 87 732 82Q743 75 744 74Q745 70 745 66Q745 52 737 44Q766 28 782 0Q799 -29 817 -56ZM487 55H484Q472 57 460 59Q457 53 457 52V50Q379 29 367 -59Q369 -62 371 -62H373Q376 -62 377 -65Q376 -71 369 -77Q362 -82 361 -86H364Q391 -87 402 -107Q413 -128 424 -149Q438 -169 448 -186Q466 -225 490 -268Q509 -310 528 -352Q549 -390 565 -438Q575 -442 578 -455Q581 -467 585 -478Q549 -475 515 -461Q483 -448 451 -435H440Q435 -435 433 -434Q424 -428 417 -419Q409 -410 397 -409Q387 -393 374 -343H369Q358 -343 346 -337H340Q333 -337 325 -338Q319 -338 315 -334Q303 -341 298 -341Q295 -341 293 -340Q293 -356 287 -358Q282 -357 280 -351Q278 -343 273 -343Q276 -352 276 -360Q276 -374 261 -400Q247 -424 247 -438V-441Q249 -453 258 -464Q266 -474 272 -485Q273 -507 287 -516Q290 -526 293 -534Q297 -543 308 -544Q306 -536 296 -515Q284 -490 284 -473V-467Q319 -508 338 -575Q343 -585 343 -592Q343 -600 337 -602Q329 -599 322 -583Q317 -570 312 -567Q310 -571 310 -581Q313 -606 316 -632Q316 -648 308 -657Q313 -664 317 -672Q314 -684 311 -697Q311 -702 312 -704H313Q318 -704 319 -696Q320 -688 323 -688Q326 -694 326 -701Q322 -725 317 -749V-752Q322 -748 328 -731Q335 -712 346 -708Q339 -720 334 -734H336Q343 -733 348 -727Q352 -720 356 -714Q377 -731 413 -731Q429 -731 439 -725Q448 -718 453 -707Q457 -695 463 -685Q468 -682 472 -680Q476 -676 478 -668Q481 -657 485 -656Q486 -653 486 -647Q482 -623 478 -600Q474 -594 469 -588Q463 -582 463 -572V-570Q457 -560 451 -551H455Q491 -553 522 -562Q548 -570 574 -578Q579 -577 584 -577Q588 -577 589 -578Q604 -586 615 -590H618Q622 -593 665 -620Q667 -624 670 -630Q673 -635 677 -636H679V-617Q690 -612 700 -605Q705 -606 713 -610Q724 -616 733 -616Q722 -605 722 -597V-594Q729 -595 746 -605Q766 -616 776 -617Q771 -609 755 -598Q737 -585 731 -573Q734 -570 736 -570Q740 -570 746 -576Q751 -581 752 -581H753Q754 -579 754 -577Q750 -562 746 -547V-545Q749 -528 755 -512Q741 -489 740 -481Q705 -477 680 -448Q666 -431 644 -389Q598 -299 587 -275Q555 -208 538 -155Q532 -161 532 -169Q532 -176 537 -191Q541 -206 556 -237Q572 -270 576 -290Q550 -272 516 -180Q489 -105 488 -67Q490 -62 497 -59Q503 -64 507 -80Q511 -96 515 -101Q520 -100 520 -94Q518 -85 515 -77Q510 -55 510 -29Q510 -18 512 2Q511 6 507 7Q503 7 502 10V14Q502 25 495 36Q488 47 487 55ZM531 -122H525Q522 -122 521 -123Q523 -129 524 -136Q525 -142 533 -143H537Q538 -141 538 -138Q538 -129 531 -122ZM271 46H273Q271 54 271 57Q275 79 287 93Q284 92 280 92Q273 92 270 99Q268 106 266 114Q250 116 243 116Q198 116 185 86Q179 82 172 80H170Q167 64 156 51Q145 38 136 24Q87 -57 66 -102Q30 -180 23 -252Q19 -296 19 -323V-338Q24 -375 28 -413Q27 -419 26 -425Q32 -444 35 -467Q35 -473 34 -480V-484Q35 -494 44 -516Q54 -542 55 -559Q58 -564 63 -569Q65 -590 77 -618Q88 -645 90 -659Q104 -681 115 -708H117Q122 -709 123 -714Q123 -719 129 -720H130Q129 -724 127 -728Q128 -729 128 -731Q142 -749 153 -770Q164 -792 190 -794H191Q195 -795 204 -802Q215 -810 224 -810H226Q223 -803 220 -797Q226 -800 235 -806Q243 -812 254 -813Q252 -808 243 -800Q232 -791 232 -783Q232 -779 235 -773Q236 -772 237 -772Q242 -775 246 -778Q247 -778 248 -777Q238 -767 238 -739Q238 -725 239 -719Q232 -718 232 -707V-698Q209 -676 201 -667Q184 -648 177 -628Q174 -626 164 -626Q144 -618 134 -593Q124 -568 114 -540Q88 -473 85 -435V-430Q85 -411 97 -399Q96 -394 94 -390Q95 -387 96 -384H94Q85 -384 78 -371Q72 -359 72 -345Q72 -318 89 -318H93Q95 -262 115 -203Q130 -160 158 -105Q182 -56 190 -43Q208 -12 228 8Q237 16 246 24Q254 31 260 42Q266 44 271 46Z"/>
</svg>