<svg xmlns="http://www.w3.org/2000/svg" viewBox="0 -800 1024 1024">
	<path fill="#000000" d="M574 -8V-5Q574 7 597 14Q614 19 618 24Q608 26 604 26Q563 26 513 -33Q495 -55 482 -79Q469 -102 457 -123Q461 -128 461 -138Q460 -150 458 -162H459Q463 -162 465 -156Q467 -150 471 -149V-157Q471 -169 466 -186Q461 -203 461 -214Q465 -200 479 -191Q478 -198 469 -215Q459 -234 459 -245Q459 -249 461 -257Q465 -251 468 -242Q474 -226 479 -221Q466 -247 461 -283Q474 -254 507 -191Q539 -132 605 -131Q668 -135 679 -199Q683 -221 683 -237Q683 -247 680 -258Q670 -276 649 -284Q634 -287 621 -287Q567 -287 542 -251H538Q523 -251 513 -265Q499 -286 497 -287V-296Q497 -343 510 -395Q511 -403 526 -455Q528 -468 532 -482Q536 -495 548 -500Q548 -491 541 -468Q535 -447 535 -435Q535 -426 538 -419Q565 -477 568 -554Q562 -551 558 -537Q554 -522 548 -522H547Q551 -553 554 -584V-588Q548 -618 544 -644V-650Q548 -679 564 -699Q579 -719 596 -741Q607 -749 619 -749Q635 -748 648 -735Q660 -722 671 -711V-710Q673 -700 680 -691Q689 -664 689 -600Q688 -600 687 -601Q682 -598 679 -590Q680 -589 684 -589Q698 -592 711 -595Q717 -595 720 -591Q715 -588 704 -586Q694 -585 688 -579Q689 -569 698 -569Q710 -572 722 -575Q738 -577 755 -578Q772 -580 775 -590Q774 -594 765 -594H763Q756 -594 754 -597Q759 -605 768 -607Q778 -609 788 -611Q790 -611 791 -610Q790 -606 788 -603V-602H791Q812 -606 828 -611Q825 -607 814 -602Q799 -596 799 -589V-588Q801 -586 802 -586Q807 -588 811 -590Q812 -589 813 -588Q812 -583 807 -580Q801 -577 800 -573V-570Q802 -560 803 -550V-547H804Q811 -550 818 -553H819Q807 -538 801 -503Q797 -475 791 -462Q782 -458 772 -451Q763 -445 750 -444H705Q685 -442 666 -443Q648 -443 633 -437Q621 -416 615 -390Q632 -393 647 -393Q716 -393 760 -338Q786 -306 786 -272V-263Q786 -248 785 -234Q785 -224 788 -215Q787 -210 787 -198Q788 -182 788 -167Q788 -159 786 -143Q784 -134 775 -119Q768 -108 766 -102Q764 -89 762 -77Q741 -44 710 -19Q668 19 642 21Q649 10 659 2Q670 -5 681 -12Q706 -23 711 -54Q692 -39 666 -21Q641 -2 609 0Q590 0 574 -8ZM448 -85H449Q444 -67 442 -46Q440 -25 428 -13Q425 -10 420 -9Q415 -7 414 -2Q407 -8 389 -8Q370 -7 350 -6Q339 -6 334 -8Q341 -16 356 -18Q370 -19 383 -22Q379 -32 368 -32Q353 -29 337 -27H334Q321 -29 308 -31Q301 -31 297 -26V-24Q297 -17 306 -14Q313 -11 313 -6V-5Q288 8 265 25Q252 21 240 -3Q230 -23 220 -29V-38Q218 -68 216 -98Q216 -116 223 -126Q229 -132 238 -136Q245 -142 253 -150Q261 -158 273 -160Q273 -155 269 -151Q265 -147 265 -143V-142Q269 -138 282 -138Q298 -138 303 -143Q311 -315 318 -488Q316 -487 268 -453V-460Q268 -476 258 -479H255Q251 -479 247 -473Q243 -467 238 -465V-468Q238 -475 242 -485Q237 -478 233 -470Q229 -462 221 -458Q237 -513 267 -585Q276 -605 288 -624Q300 -643 304 -665V-675Q308 -686 327 -701Q349 -719 365 -719Q378 -719 387 -707Q393 -710 399 -714Q405 -719 414 -719Q411 -711 407 -704Q407 -702 409 -698H410Q415 -698 421 -707Q429 -719 437 -719H439Q428 -703 427 -686H428Q429 -689 437 -693Q439 -693 440 -692Q436 -682 431 -672Q431 -663 437 -659Q442 -654 448 -647Q459 -624 464 -605Q461 -596 461 -591Q461 -584 464 -581Q446 -549 425 -521V-526Q427 -538 429 -551Q429 -553 427 -559Q414 -559 405 -544Q401 -537 395 -518Q374 -441 371 -330Q384 -358 387 -399Q391 -427 393 -436Q398 -455 411 -461Q399 -386 387 -313Q376 -239 375 -154V-146Q381 -144 384 -144Q394 -145 404 -150Q413 -156 421 -160Q420 -152 418 -145H420Q424 -145 428 -148Q437 -154 442 -154H446Q432 -132 432 -120Q432 -112 433 -108Q442 -111 451 -114Q454 -114 458 -111Q439 -103 439 -92Q439 -87 442 -83Q442 -82 443 -82Q446 -83 448 -85ZM726 92V91Q727 86 734 81Q741 76 745 71Q746 68 746 63Q746 53 735 44Q766 28 782 -1Q798 -31 819 -56Q823 -56 825 -53Q826 -50 828 -48Q837 -56 845 -67Q856 -82 856 -93Q856 -102 846 -105Q850 -115 854 -125Q855 -126 856 -126Q859 -125 862 -125H864Q914 -197 926 -312Q927 -320 927 -328Q927 -372 909 -372H908Q899 -525 855 -600Q838 -675 791 -708Q760 -729 754 -744Q752 -761 750 -779Q748 -785 741 -793Q731 -805 731 -815Q740 -815 748 -806Q755 -798 760 -797V-799Q760 -803 755 -807Q750 -810 750 -815V-818Q756 -817 764 -811Q773 -805 781 -804Q782 -805 782 -806Q780 -809 778 -813V-815Q796 -808 815 -805Q835 -802 849 -791Q860 -778 874 -757Q893 -727 911 -697Q980 -528 980 -372Q980 -351 979 -330V-305Q979 -290 978 -280Q974 -211 941 -129Q918 -73 875 4Q861 35 845 70Q830 106 799 118Q797 119 793 119Q787 119 779 115Q770 110 765 110Q761 110 759 111Q757 109 757 108Q760 105 763 102Q755 95 747 87Q737 90 726 92ZM233 117H230Q210 114 198 101Q185 89 171 80Q161 57 133 19Q96 -30 88 -62Q19 -180 19 -320Q19 -363 27 -413L24 -424Q28 -429 30 -446Q32 -462 35 -467L32 -478Q44 -518 57 -558Q69 -599 86 -635Q86 -649 100 -675Q110 -693 113 -707Q128 -715 128 -729V-732Q133 -736 154 -770Q170 -795 186 -795Q189 -794 192 -794Q200 -798 207 -804Q213 -809 224 -810H226Q223 -803 220 -797Q227 -799 235 -806Q244 -812 255 -813Q253 -807 243 -799Q235 -792 232 -788V-784Q234 -777 235 -771Q238 -771 240 -775Q242 -779 247 -779H248Q238 -761 238 -737Q238 -727 239 -722Q239 -719 236 -718Q234 -717 232 -716Q232 -710 230 -698Q216 -682 200 -667Q185 -653 178 -628Q175 -626 165 -626Q145 -619 131 -589Q130 -586 110 -530Q85 -457 85 -432Q85 -422 88 -413Q93 -406 98 -399Q96 -394 93 -390Q93 -388 97 -387Q95 -385 91 -384Q83 -382 80 -378Q72 -367 72 -346Q72 -317 86 -317Q90 -317 92 -318Q97 -222 157 -107Q175 -69 196 -32Q216 4 251 27Q256 35 261 43Q267 45 272 46H274Q273 50 273 57Q273 71 286 93Q284 92 281 92Q274 92 271 99Q269 106 267 114Q250 116 233 117ZM457 -179V-176Q443 -183 443 -200H447Q455 -200 458 -195V-192Q458 -185 457 -179ZM451 -743H455Q459 -743 463 -744Q465 -744 467 -743Q465 -736 456 -731Q450 -727 448 -725Q445 -726 445 -730Q445 -734 451 -743ZM427 -507Q427 -498 418 -485Q413 -487 413 -494Q414 -507 422 -509Q423 -509 427 -507ZM728 -591V-597H747Q747 -590 736 -590Q732 -590 728 -591Z"/>
</svg>