<svg xmlns="http://www.w3.org/2000/svg" viewBox="0 -800 1024 1024">
	<path fill="#000000" d="M801 -89V-86Q801 -63 792 -50Q780 -32 761 -25Q750 -27 726 -41Q706 -52 688 -53Q683 -40 678 -18Q671 16 662 27Q633 65 574 65Q560 65 553 64V62Q553 58 556 58Q560 59 564 59H565Q595 53 605 38Q598 30 587 30Q570 33 552 35Q515 33 483 16Q451 -1 421 -13Q424 8 457 24Q470 30 484 36Q497 41 502 55Q480 53 450 33Q431 21 404 -1Q384 -17 371 -35Q369 -38 350 -57Q337 -70 335 -80Q334 -82 334 -87Q336 -101 338 -115Q337 -122 336 -129Q337 -131 337 -134Q339 -144 347 -151Q354 -159 362 -166Q368 -166 370 -164Q407 -191 488 -191Q530 -189 571 -188Q573 -191 573 -199Q572 -213 570 -227Q564 -234 555 -234Q545 -233 535 -232H533Q525 -233 510 -238Q492 -244 483 -244Q476 -244 472 -242Q443 -255 433 -255Q429 -255 423 -253Q405 -274 379 -283Q366 -316 350 -346Q359 -344 364 -340Q366 -341 366 -345Q366 -350 367 -350Q376 -360 391 -362Q406 -364 417 -369Q436 -369 445 -364Q451 -366 456 -369Q466 -368 484 -368Q527 -371 570 -374Q578 -385 578 -405Q577 -425 576 -445Q576 -455 577 -460Q554 -460 513 -437Q475 -416 452 -416H450Q432 -416 410 -428Q387 -441 371 -442Q374 -447 376 -453V-454Q357 -454 347 -442Q354 -455 367 -470Q365 -477 362 -484Q372 -497 378 -513Q384 -529 402 -533Q431 -570 463 -570Q460 -564 447 -557Q435 -550 432 -544Q433 -539 439 -539Q447 -541 454 -544Q489 -558 524 -573Q549 -581 575 -590Q600 -598 620 -613Q614 -620 605 -620Q597 -620 587 -616Q573 -613 546 -602Q518 -591 500 -587Q510 -602 529 -606Q548 -611 565 -617Q574 -622 581 -628Q589 -634 598 -636L608 -644Q634 -647 660 -650H668Q680 -643 683 -639Q684 -643 684 -654Q684 -675 683 -696V-703Q684 -703 685 -704Q688 -704 692 -698Q695 -694 697 -693Q698 -700 701 -706Q707 -705 716 -705Q727 -705 733 -706V-713Q734 -725 734 -737Q742 -706 765 -706Q775 -706 780 -708Q799 -689 809 -664Q822 -652 833 -627Q843 -622 846 -622H848Q846 -619 846 -614Q847 -603 848 -593Q847 -583 845 -574Q850 -563 854 -552V-550Q852 -549 850 -548Q848 -548 846 -551Q842 -556 839 -556Q833 -555 830 -550Q828 -545 824 -542Q815 -545 808 -545Q787 -545 783 -526Q780 -560 744 -567Q743 -565 743 -560Q743 -551 753 -539Q750 -524 746 -509Q731 -504 727 -501Q719 -495 718 -484H694Q708 -458 708 -428Q708 -413 703 -398Q706 -393 714 -393Q719 -393 731 -398H737Q757 -399 774 -412Q792 -424 808 -432Q806 -425 796 -418Q783 -409 783 -398Q784 -398 785 -397Q789 -397 794 -402Q801 -408 803 -408Q804 -407 805 -407Q804 -403 799 -397Q792 -389 792 -385Q792 -381 796 -377Q798 -377 801 -381Q804 -385 809 -385H812Q807 -377 807 -366Q807 -344 818 -338Q819 -335 819 -329Q819 -315 808 -299Q798 -285 798 -276V-272H795Q790 -272 790 -262Q778 -255 765 -255Q758 -255 755 -259Q768 -267 780 -275Q777 -284 772 -286H769Q740 -281 710 -277Q693 -276 690 -275Q681 -272 680 -262Q686 -255 696 -255Q707 -256 718 -257Q725 -257 731 -254Q722 -245 699 -244Q671 -243 665 -229V-207Q665 -174 680 -164Q685 -165 696 -165Q708 -165 738 -159Q763 -154 779 -154Q785 -154 790 -155Q780 -151 778 -150Q772 -146 771 -139Q775 -134 782 -134H798Q797 -131 794 -128Q789 -125 789 -122V-119Q789 -113 795 -102Q800 -92 801 -89ZM126 -133V-140Q126 -156 120 -182Q115 -209 115 -255Q115 -321 126 -366Q131 -387 138 -406Q145 -426 146 -446V-451Q144 -452 140 -452Q128 -451 125 -439Q121 -426 117 -415Q111 -420 111 -431Q113 -444 114 -458Q121 -495 127 -532Q124 -560 94 -592Q95 -595 95 -598Q94 -605 93 -613Q94 -616 94 -619Q100 -629 105 -640V-641Q105 -651 94 -671Q82 -693 82 -705V-706L123 -668Q122 -677 112 -687Q103 -695 102 -702Q108 -702 116 -697Q126 -691 134 -691H136Q137 -692 137 -694Q137 -696 132 -699Q126 -702 126 -705Q126 -707 127 -708Q137 -705 146 -702Q190 -730 222 -730Q240 -730 256 -721Q265 -706 279 -702Q300 -669 321 -637Q323 -626 331 -599Q342 -563 342 -542Q342 -534 340 -520Q306 -511 288 -486Q269 -462 247 -442Q246 -433 240 -428Q234 -423 229 -416Q219 -395 208 -362Q198 -339 195 -318Q192 -298 192 -265Q192 -256 191 -248V-244Q196 -231 202 -220V-205Q204 -194 215 -175Q223 -162 225 -154Q234 -166 238 -209Q240 -232 242 -239Q246 -256 256 -260Q250 -221 247 -166Q247 -138 256 -131Q256 -156 255 -182Q255 -214 263 -230Q266 -204 265 -175Q265 -146 273 -125Q272 -147 279 -170Q282 -129 294 -91Q305 -69 315 -51Q325 -33 326 -6Q326 1 325 7Q322 22 312 35Q306 47 302 54Q297 61 285 68Q261 67 245 73Q236 64 223 62Q209 60 194 55Q168 36 149 -1Q141 -17 118 -76Q85 -166 82 -247Q82 -260 81 -273Q81 -322 94 -347Q99 -342 99 -333Q97 -315 94 -298Q93 -285 93 -258Q93 -157 126 -133ZM889 -622V-627Q883 -634 874 -634Q869 -634 863 -631Q861 -638 847 -648Q831 -659 831 -670Q831 -674 832 -676Q834 -675 845 -667Q850 -667 852 -674Q845 -688 838 -702Q831 -715 817 -722Q816 -721 814 -721Q811 -715 811 -712Q814 -702 817 -692V-690Q809 -693 800 -708Q789 -727 772 -727H766Q768 -731 778 -733Q787 -735 789 -739Q784 -760 778 -782H781Q788 -779 792 -774Q801 -792 830 -792Q836 -792 846 -790Q850 -789 859 -782Q869 -774 876 -774Q878 -774 880 -775Q880 -771 882 -763Q886 -765 891 -773Q898 -784 907 -784Q907 -776 900 -767Q894 -760 894 -753Q896 -751 897 -751Q899 -753 905 -756H906Q904 -752 904 -745Q904 -736 912 -724Q920 -712 921 -705V-703Q920 -691 918 -680Q918 -674 921 -667Q894 -657 894 -622Q895 -617 895 -613Q889 -613 889 -622ZM561 -107H559Q556 -106 553 -105H552Q511 -123 463 -123Q442 -123 417 -118Q450 -80 494 -62Q505 -59 516 -59Q563 -60 578 -95Q571 -95 568 -100Q565 -104 561 -107ZM259 -268H251Q250 -270 250 -275Q250 -289 261 -289H263Q261 -273 259 -268ZM683 -706Q678 -714 673 -722Q673 -727 682 -727Q684 -723 684 -720Q684 -713 683 -706Z"/>
</svg>