<svg xmlns="http://www.w3.org/2000/svg" viewBox="0 -800 1024 1024">
	<path fill="#000000" d="M625 -416H622Q613 -415 604 -414Q601 -414 600 -415Q599 -417 597 -420Q598 -421 598 -422Q609 -425 619 -429Q623 -429 627 -424V-423Q626 -419 625 -416ZM402 71H401Q395 71 384 60Q367 43 356 43Q352 43 350 44Q351 40 351 36Q351 -3 295 -10Q308 -13 320 -17Q305 -22 284 -22Q276 -22 262 -20V-21Q262 -32 285 -35Q316 -39 319 -40Q306 -47 286 -47Q255 -44 224 -42Q213 -42 202 -45Q223 -53 246 -56Q270 -58 291 -61Q355 -75 399 -111Q442 -148 483 -186Q483 -188 482 -191Q482 -202 490 -205Q490 -224 483 -235Q450 -230 421 -226Q391 -222 368 -205Q363 -202 356 -193Q347 -183 342 -180Q329 -171 314 -171H312Q295 -175 277 -179Q272 -179 270 -178Q261 -172 252 -166Q252 -168 251 -170Q251 -180 258 -187Q255 -196 242 -196Q236 -196 233 -195Q231 -199 231 -201Q231 -207 236 -215Q233 -223 227 -223Q215 -218 208 -208Q206 -214 206 -216Q206 -221 213 -231Q217 -236 218 -241Q213 -261 197 -265Q212 -278 230 -319Q249 -362 267 -376Q265 -367 257 -348Q246 -323 246 -310Q246 -306 248 -296Q264 -306 277 -334Q283 -346 297 -388Q306 -406 308 -423Q308 -434 298 -441Q287 -440 281 -421Q276 -405 268 -402Q270 -428 277 -448Q273 -458 258 -468Q245 -476 242 -481V-487Q242 -502 247 -512Q252 -523 255 -535Q281 -554 304 -575Q327 -598 371 -600H375Q388 -590 401 -578Q413 -567 428 -559Q430 -538 448 -513Q460 -495 464 -485Q455 -462 444 -441Q433 -420 427 -394Q428 -393 431 -393Q439 -396 446 -400H456Q493 -400 538 -415Q540 -413 548 -412Q558 -411 559 -406Q546 -398 509 -393Q464 -387 452 -375Q460 -368 473 -368Q493 -371 513 -375Q569 -382 597 -388Q646 -398 680 -415Q679 -424 666 -424Q656 -423 646 -422Q641 -422 637 -424V-425Q637 -432 643 -432Q649 -433 655 -434Q699 -451 723 -454H726Q726 -452 725 -450V-448Q743 -452 758 -457Q774 -462 794 -463Q793 -460 776 -452Q748 -439 748 -432V-431Q748 -430 750 -430Q766 -435 781 -441V-440Q780 -435 770 -427Q760 -420 759 -407Q759 -401 763 -394Q771 -398 778 -403H779V-401Q776 -389 772 -378Q772 -375 774 -375Q777 -376 779 -377Q781 -377 781 -376Q775 -343 775 -340Q775 -329 779 -321Q764 -311 757 -281Q747 -281 645 -268Q648 -256 657 -247Q665 -239 672 -229Q662 -211 651 -184Q632 -182 613 -163Q596 -146 560 -102Q531 -66 511 -46Q514 -71 544 -105Q569 -133 575 -151Q552 -143 535 -124Q519 -104 504 -85Q488 -68 471 -50Q453 -32 452 -2V3Q461 1 472 -10Q482 -20 489 -22Q487 -4 464 23Q448 42 443 53Q441 52 436 52Q429 52 418 62Q408 71 402 71ZM243 -30H248Q248 -27 249 -26Q246 -18 233 -18Q227 -18 225 -20Q225 -30 243 -30Z"/>
</svg>