<svg xmlns="http://www.w3.org/2000/svg" viewBox="0 -800 1024 1024">
	<path fill="#000000" d="M767 101V103Q748 104 733 110Q719 115 715 131Q712 128 712 124Q716 114 719 104V103Q717 101 715 101Q714 101 711 105Q709 108 706 108Q702 102 698 96Q677 86 663 69Q649 53 635 37Q633 34 633 28Q637 15 641 1V0Q639 -15 609 -15H600Q585 -20 565 -20Q524 -20 509 -5Q516 1 533 1Q557 0 581 -2Q599 -2 606 3Q605 7 603 10V12Q570 12 536 11Q467 11 426 22Q372 36 355 72Q347 69 338 66Q331 69 330 77Q326 65 316 57Q306 49 296 40Q289 33 271 -3Q256 -32 237 -38Q256 -57 256 -91Q256 -121 234 -187Q235 -187 236 -188Q238 -188 246 -174Q252 -160 257 -142Q263 -123 274 -113Q275 -119 275 -126Q275 -166 253 -225Q247 -242 236 -253Q224 -264 212 -276Q207 -282 202 -289Q197 -295 188 -297Q186 -292 183 -288V-286Q183 -273 201 -257Q219 -241 220 -228Q206 -229 194 -239Q186 -246 174 -261Q158 -282 136 -312Q120 -338 120 -339Q119 -343 119 -350V-357Q119 -362 118 -365Q115 -383 115 -386Q115 -400 124 -406Q121 -412 121 -417Q125 -431 132 -446Q133 -448 133 -451Q133 -458 132 -465V-468Q136 -477 139 -486Q140 -489 140 -493Q140 -503 132 -523Q124 -543 124 -554V-557Q132 -550 139 -534Q149 -512 158 -507Q159 -509 159 -513Q155 -532 144 -551Q135 -578 135 -592V-600Q143 -594 145 -583Q147 -572 152 -563Q165 -537 173 -531Q174 -532 174 -535Q169 -547 164 -563Q164 -565 166 -569Q171 -565 177 -554Q182 -544 185 -541Q196 -533 206 -525Q218 -527 223 -527Q244 -526 260 -519Q276 -511 293 -506Q306 -521 330 -526Q354 -532 376 -541Q402 -553 456 -585Q519 -623 554 -636Q542 -616 498 -593Q454 -570 442 -548Q445 -547 447 -547Q454 -547 471 -557Q511 -580 549 -606Q607 -634 662 -664Q657 -670 649 -670Q643 -670 631 -664Q615 -656 608 -656Q603 -656 601 -657Q607 -669 631 -679Q647 -686 654 -693Q661 -701 666 -709Q671 -718 680 -722Q691 -725 700 -726Q710 -726 719 -736H720Q725 -734 729 -732H731Q742 -738 750 -738Q762 -738 771 -728Q780 -719 790 -707Q800 -697 810 -688Q820 -680 825 -670Q845 -675 846 -675H850V-674Q850 -669 846 -666Q842 -663 842 -660Q852 -663 866 -675Q883 -690 898 -692Q887 -680 875 -670Q862 -660 857 -642Q867 -644 880 -657Q896 -673 911 -673H913Q902 -664 891 -653Q880 -643 876 -626Q878 -623 879 -623Q883 -624 886 -626H888Q885 -620 885 -612Q885 -586 900 -567Q894 -552 888 -538Q895 -530 897 -517V-513Q883 -506 878 -492Q876 -493 873 -493Q865 -492 858 -487Q851 -482 844 -478Q834 -460 822 -408Q819 -390 814 -387Q808 -393 808 -404Q811 -423 813 -442Q813 -451 811 -454Q797 -444 790 -410Q777 -352 765 -239Q759 -193 759 -169Q759 -142 764 -123Q772 -135 774 -150Q775 -166 776 -187Q781 -224 789 -259Q791 -278 792 -294Q793 -311 802 -324V-308Q797 -228 785 -147Q784 -126 784 -105Q784 -84 776 -69Q770 -71 769 -87Q768 -99 765 -102Q747 -97 747 -57Q747 -31 752 -14Q764 -15 764 -28Q765 -41 770 -49Q775 -39 775 -19Q773 13 771 45Q771 68 777 80Q776 83 772 89Q767 96 767 101ZM653 -242V-240Q644 -208 615 -186Q597 -182 578 -179Q567 -175 556 -171Q546 -174 538 -182Q516 -191 495 -191Q488 -191 480 -189Q469 -186 460 -171Q453 -159 447 -156Q447 -165 454 -175Q461 -185 461 -192V-193Q460 -202 450 -207Q441 -212 429 -212H426Q413 -212 393 -192Q378 -177 370 -176Q378 -194 390 -207Q403 -220 414 -236Q405 -255 396 -275Q384 -276 354 -276Q364 -284 376 -291Q388 -298 394 -309Q391 -315 390 -332Q389 -349 385 -356Q384 -358 375 -364L371 -356V-351Q371 -348 370 -347Q359 -335 346 -327Q347 -323 347 -316Q347 -304 346 -292V-287Q350 -278 353 -270V-267Q352 -257 351 -248Q353 -135 364 -71Q403 -77 455 -85Q506 -92 559 -93Q571 -92 583 -92Q594 -91 605 -90H608Q619 -93 630 -97Q635 -97 639 -93Q641 -121 653 -177Q663 -224 666 -248Q669 -270 671 -330Q673 -386 678 -419Q683 -449 697 -512Q695 -518 695 -522Q698 -537 701 -553V-557Q691 -559 687 -559Q664 -558 642 -543Q620 -529 601 -516Q525 -476 456 -428Q436 -414 415 -401Q393 -388 379 -370L396 -363Q399 -363 401 -366Q403 -369 405 -369H406Q404 -375 402 -381Q447 -382 491 -387Q492 -390 492 -396V-401H495Q496 -389 500 -380Q505 -370 512 -370Q519 -370 526 -380Q538 -353 565 -345Q574 -343 584 -342Q594 -341 600 -331Q578 -329 569 -327Q573 -312 586 -305Q599 -299 608 -290Q613 -281 616 -269Q619 -257 633 -255Q637 -262 637 -269Q637 -279 629 -295Q622 -309 621 -315H622Q630 -314 633 -309Q636 -303 641 -299Q641 -295 640 -292Q640 -283 647 -266Q653 -251 653 -242ZM901 -699V-700Q901 -706 906 -711Q911 -716 917 -716Q920 -716 924 -714Q920 -709 915 -704Q910 -699 901 -699Z"/>
</svg>