<svg xmlns="http://www.w3.org/2000/svg" viewBox="0 -800 1024 1024">
	<path fill="#000000" d="M566 65H563Q556 65 547 72Q537 80 529 81H526Q498 78 470 75Q462 76 453 77Q443 75 439 75Q434 75 428 78Q417 76 389 76Q330 76 297 89Q284 85 270 81Q263 59 249 44Q255 37 255 23Q255 -1 240 -6Q250 -16 250 -26V-29Q249 -30 245 -30Q237 -29 229 -28Q225 -28 224 -29Q227 -35 238 -41Q248 -46 250 -49V-52Q250 -77 275 -77Q299 -75 323 -73Q346 -72 369 -72Q401 -72 418 -76Q417 -191 416 -306Q416 -386 418 -424Q419 -442 419 -460Q419 -492 418 -524Q418 -543 420 -579Q422 -607 422 -628Q422 -652 420 -690Q420 -703 419 -717Q419 -737 431 -747Q435 -746 438 -746Q452 -746 455 -754Q469 -738 495 -738Q508 -738 518 -744Q527 -753 535 -762Q543 -768 547 -790H550Q553 -789 553 -783Q553 -776 552 -770Q552 -766 553 -765Q556 -766 557 -775Q558 -783 560 -784Q573 -754 591 -732Q585 -700 585 -668Q586 -636 584 -604H580Q572 -604 566 -601Q560 -594 560 -578Q560 -568 562 -546V-534Q559 -472 555 -411Q555 -397 556 -390Q560 -361 578 -361V-351Q563 -347 563 -332Q562 -318 559 -301Q564 -288 574 -286Q574 -257 573 -228Q573 -211 575 -187Q576 -183 576 -174Q574 -142 571 -111Q572 -61 573 -11Q573 39 566 65ZM314 9H336Q398 9 506 15Q514 -436 514 -527Q514 -609 513 -649Q513 -662 512 -673Q510 -684 501 -685Q499 -684 497 -684Q495 -684 495 -679V-662Q492 -587 488 -513V-387Q488 -283 485 -234Q484 -217 484 -184Q485 -136 485 -89Q485 -54 482 -24Q438 -24 394 -25Q349 -25 316 -21Q314 -17 314 -9Z"/>
</svg>