<svg xmlns="http://www.w3.org/2000/svg" viewBox="0 -800 1024 1024">
	<path fill="#000000" d="M788 -9H784Q780 -9 773 -2Q769 -1 764 0Q758 0 758 6Q754 5 751 2Q747 -2 743 -2H742L736 -12Q730 -14 724 -22Q718 -30 714 -31Q698 -59 656 -117Q622 -164 604 -194Q589 -208 565 -242Q546 -269 537 -279Q518 -301 518 -337V-341Q519 -355 527 -368Q536 -381 545 -393Q578 -441 632 -540Q652 -577 702 -649Q736 -698 755 -731H759Q764 -731 768 -735Q774 -740 779 -740Q780 -739 780 -737Q778 -733 775 -729H776Q779 -729 782 -735Q787 -743 791 -743H792Q793 -742 793 -741Q793 -739 789 -733Q784 -726 784 -721Q784 -718 785 -716Q786 -715 787 -714Q790 -716 792 -719Q793 -719 795 -717Q793 -693 791 -670V-665Q766 -647 763 -644Q748 -632 742 -618Q741 -617 741 -616Q742 -614 743 -612V-611Q736 -614 728 -617Q713 -608 703 -592Q692 -577 680 -558Q670 -545 662 -531Q654 -517 653 -502Q653 -492 657 -483Q627 -455 607 -415Q588 -375 564 -338Q617 -258 761 -78Q764 -80 767 -92Q770 -104 775 -107Q772 -96 772 -85Q772 -58 789 -51Q786 -27 786 -24Q786 -19 788 -9ZM760 70V74Q760 77 762 77Q765 77 769 75Q763 83 763 96Q762 109 760 120Q746 121 736 125Q719 119 701 93Q688 73 678 67Q663 38 644 13Q625 -12 604 -40Q541 -125 478 -210Q463 -232 448 -255Q420 -288 420 -316Q420 -329 424 -342Q433 -358 441 -375Q496 -487 563 -587Q588 -628 638 -701Q658 -725 680 -756Q688 -771 697 -789Q706 -807 718 -813Q726 -816 734 -818Q742 -819 746 -827Q751 -826 751 -815Q762 -819 772 -824Q766 -818 761 -813Q756 -807 755 -798Q756 -794 758 -794Q762 -796 765 -798H766Q762 -782 758 -767Q758 -764 760 -758Q751 -751 744 -741Q738 -731 731 -722Q713 -705 695 -689Q673 -658 651 -627Q630 -597 612 -563Q576 -505 539 -445Q502 -386 471 -323Q473 -320 481 -308Q490 -293 498 -288Q514 -252 539 -225Q539 -223 536 -221Q533 -219 533 -217V-215Q541 -190 557 -170Q573 -150 589 -132Q604 -113 618 -93Q632 -72 651 -57Q658 -58 665 -60Q670 -53 693 -29Q718 -2 730 16Q733 24 736 32Q746 44 772 48Q764 59 760 70Z"/>
</svg>