<svg xmlns="http://www.w3.org/2000/svg" viewBox="0 -800 1024 1024">
	<path fill="#000000" d="M868 -635V-643Q868 -648 867 -651Q865 -656 858 -659Q853 -661 850 -664Q843 -674 837 -696Q839 -696 840 -697Q844 -697 848 -691Q851 -686 855 -681Q860 -682 864 -684Q865 -686 865 -689Q861 -707 850 -729Q848 -740 848 -747Q848 -755 840 -756H839Q830 -756 830 -746Q831 -737 831 -729Q831 -723 830 -720Q819 -728 819 -740Q819 -747 827 -765Q836 -785 836 -797V-801H838Q841 -801 844 -797Q847 -793 849 -793Q853 -795 853 -805Q863 -803 866 -803Q868 -803 892 -805Q895 -801 896 -795Q897 -790 902 -787Q908 -788 913 -793Q918 -799 923 -799Q916 -787 914 -773Q914 -767 916 -764Q919 -765 921 -767H922Q920 -761 920 -757Q920 -746 925 -738H952Q949 -730 941 -727Q934 -724 927 -720Q928 -715 928 -707Q928 -697 922 -678Q917 -662 917 -650Q917 -642 920 -632Q916 -634 905 -652Q876 -646 868 -635ZM835 -676H836Q837 -671 837 -663Q837 -648 827 -626Q818 -606 818 -593Q818 -586 819 -582Q812 -591 809 -604Q797 -607 786 -607Q777 -607 773 -606Q770 -614 764 -621Q762 -620 748 -612Q746 -616 746 -617Q746 -624 758 -630Q755 -636 751 -655Q747 -675 742 -683Q745 -687 745 -696Q744 -709 743 -723Q743 -732 747 -736Q750 -733 752 -726Q757 -727 758 -732Q760 -737 761 -742Q767 -743 779 -743Q803 -743 816 -727Q825 -706 830 -681Q830 -677 835 -676ZM486 -10V-6Q503 -6 532 -23Q558 -37 573 -38Q517 2 403 55Q357 78 343 78H341Q328 77 328 60Q329 53 329 46V41Q329 11 294 3Q295 -3 305 -5Q315 -7 316 -12Q310 -27 271 -32Q268 -32 264 -33Q256 -32 248 -32Q242 -32 239 -33Q249 -41 265 -42Q282 -44 297 -46Q295 -70 256 -70Q235 -69 214 -68Q208 -68 202 -69Q215 -80 235 -83Q255 -85 273 -86Q338 -94 416 -120Q467 -137 481 -144Q514 -160 528 -181Q548 -215 551 -267Q554 -318 560 -368Q553 -368 546 -369Q492 -365 434 -357Q426 -351 426 -332V-316Q426 -298 419 -293Q415 -297 415 -309V-325Q415 -340 409 -344Q398 -343 395 -336Q392 -330 392 -316V-296Q392 -280 391 -265Q391 -240 404 -234Q410 -238 412 -255Q413 -269 416 -273Q423 -268 423 -258Q420 -239 416 -220V-218Q408 -216 391 -207Q370 -196 354 -195Q345 -202 336 -209Q329 -205 329 -193Q325 -211 314 -224Q312 -224 310 -220Q308 -216 305 -216Q304 -230 289 -249V-258Q287 -294 285 -330Q231 -324 192 -303Q181 -295 170 -281Q158 -267 144 -266H142Q123 -267 111 -283Q99 -300 86 -313Q75 -321 64 -330Q51 -346 51 -382Q51 -394 52 -399Q55 -410 63 -419Q71 -428 79 -440Q84 -449 86 -471Q88 -492 92 -498Q99 -509 113 -513Q127 -518 139 -523Q164 -539 199 -554Q189 -542 179 -528Q169 -515 168 -497V-491Q172 -469 208 -469Q233 -469 257 -477Q254 -490 223 -491Q200 -492 195 -497Q196 -507 209 -507Q224 -507 231 -498H234Q242 -499 249 -500H252V-503Q252 -529 271 -567Q286 -568 291 -581Q296 -593 297 -609Q296 -638 313 -651Q310 -627 310 -623Q310 -604 319 -598Q320 -601 320 -610Q320 -620 319 -631Q319 -655 328 -663Q332 -659 332 -649Q332 -637 331 -625Q331 -611 335 -606Q341 -607 341 -621V-632Q342 -633 343 -633Q350 -626 356 -614H363Q377 -615 391 -616Q395 -616 403 -614Q407 -608 415 -601H422Q424 -601 425 -600Q440 -585 448 -566Q448 -561 447 -557Q450 -533 458 -513H466Q502 -515 538 -518Q545 -518 559 -516Q565 -517 568 -525Q553 -539 539 -564Q527 -579 526 -588V-593Q526 -604 538 -621Q551 -640 551 -654Q558 -661 568 -666Q566 -669 559 -672Q551 -675 550 -680H556Q572 -681 582 -690Q592 -699 600 -710Q614 -734 644 -737Q651 -737 655 -736Q668 -733 675 -723Q682 -714 690 -702Q698 -698 702 -698Q735 -656 742 -594Q742 -579 738 -570Q736 -564 728 -556Q717 -544 717 -536Q717 -534 719 -526Q723 -528 731 -528Q738 -528 750 -526H753Q765 -527 776 -529Q785 -529 790 -523Q787 -522 753 -519Q730 -517 725 -506Q727 -497 740 -497Q749 -497 758 -498Q839 -503 859 -509Q856 -521 843 -522Q829 -524 818 -526Q853 -539 893 -546Q884 -542 883 -537Q886 -531 893 -531Q904 -533 915 -535Q919 -535 920 -534Q911 -528 902 -522Q893 -517 889 -504Q890 -503 892 -503Q901 -506 909 -510Q912 -510 913 -509Q906 -504 900 -498Q893 -492 892 -483Q892 -479 893 -476Q894 -475 895 -475Q900 -477 905 -480Q907 -480 908 -479Q884 -427 877 -407Q851 -400 850 -379Q810 -390 767 -390Q726 -390 696 -379Q692 -311 687 -293Q684 -247 680 -201Q676 -142 666 -113Q651 -71 618 -63Q629 -86 646 -113Q663 -139 665 -170Q665 -186 658 -200Q645 -187 638 -150Q633 -122 625 -111Q609 -89 578 -72Q547 -55 519 -42Q506 -36 496 -30Q486 -24 486 -10ZM288 5V6Q282 8 278 8Q270 8 270 1V-2Q272 -3 276 -3Q288 -3 288 5Z"/>
</svg>