<svg xmlns="http://www.w3.org/2000/svg" viewBox="0 -800 1024 1024">
	<path fill="#000000" d="M718 -617V-613Q718 -603 708 -594Q699 -586 697 -579Q689 -582 689 -593Q689 -602 695 -610Q702 -619 710 -619Q712 -619 718 -617ZM726 -492V-490Q727 -475 736 -461Q745 -448 753 -437Q736 -425 736 -387Q736 -365 742 -339Q738 -340 734 -348Q731 -355 727 -357Q712 -354 696 -352Q680 -349 677 -334Q671 -344 660 -344Q650 -344 638 -345Q631 -346 619 -353Q605 -361 597 -361Q594 -360 591 -360Q583 -358 575 -350Q567 -342 560 -339Q561 -346 571 -355Q581 -364 581 -371Q580 -379 564 -393Q547 -407 533 -408Q544 -430 544 -440V-443Q541 -467 533 -485Q543 -488 544 -488Q545 -491 545 -494Q542 -511 535 -526Q549 -524 563 -522Q570 -522 578 -526Q580 -529 580 -538Q579 -550 578 -563Q578 -569 581 -575Q585 -571 589 -556Q593 -538 600 -534Q618 -533 632 -529Q642 -535 656 -550Q674 -570 688 -575Q676 -559 668 -532Q672 -523 690 -516Q704 -511 708 -506Q712 -507 720 -514Q730 -523 738 -523Q742 -523 744 -522Q743 -517 735 -509Q726 -500 726 -492ZM706 -3H691Q681 1 670 5H640Q628 8 615 11H606Q589 11 559 5Q529 -1 517 -1Q514 -13 514 -15V-18Q502 -24 489 -30Q489 -32 492 -32Q494 -31 496 -31Q499 -31 499 -33Q498 -40 483 -42Q467 -44 467 -52Q469 -53 479 -55Q492 -57 495 -63Q494 -69 485 -69Q477 -68 468 -67Q461 -67 459 -73Q462 -80 471 -80Q480 -80 492 -82Q508 -90 544 -105Q579 -117 591 -124Q616 -139 616 -163Q616 -170 615 -173Q615 -177 610 -184Q605 -192 604 -199Q588 -214 548 -214Q515 -214 502 -202Q498 -204 494 -204H492Q475 -196 460 -189Q444 -182 441 -165Q440 -160 440 -150Q445 -97 450 -44Q450 -31 449 -25Q446 -10 436 -1Q426 8 416 17Q404 15 391 12Q380 9 361 -11Q334 -39 313 -41Q295 -43 287 -43Q245 -43 209 -25Q200 -14 191 -3Q181 -1 178 -1Q169 -1 145 -12Q134 -34 125 -42Q130 -52 132 -64Q134 -76 143 -81V-83Q142 -86 141 -89V-90Q150 -101 159 -113Q167 -126 182 -127H184Q188 -132 191 -138H194Q202 -138 212 -145Q221 -151 224 -151Q229 -151 233 -147Q228 -142 216 -136Q198 -127 194 -118Q200 -112 208 -112Q225 -115 239 -124Q269 -137 298 -155Q328 -173 357 -189Q351 -195 342 -195Q332 -194 323 -188Q313 -181 304 -177Q288 -172 271 -167V-168Q271 -174 279 -179Q282 -181 292 -186Q330 -202 367 -222V-241Q367 -276 366 -312Q351 -310 339 -301Q333 -296 320 -281Q297 -254 272 -254Q267 -254 262 -255Q245 -257 231 -269Q223 -276 208 -296Q198 -308 189 -320Q180 -331 179 -346Q179 -358 187 -371Q180 -385 158 -402Q128 -425 125 -447H128Q135 -447 138 -442Q142 -437 145 -432Q152 -430 162 -422Q174 -413 182 -411Q177 -420 160 -436Q136 -458 131 -474H132Q143 -470 159 -453Q177 -440 184 -440Q189 -440 193 -443V-444Q193 -452 179 -458Q167 -464 165 -468Q169 -470 173 -470Q188 -467 202 -464Q212 -464 216 -475Q232 -471 251 -470Q270 -468 277 -456Q253 -454 249 -440Q264 -431 279 -431Q301 -432 322 -442Q343 -452 363 -460Q364 -466 364 -472Q364 -475 361 -478H356Q344 -478 325 -469Q310 -462 300 -462H296Q304 -472 328 -482Q353 -492 361 -504Q346 -527 342 -553Q342 -564 347 -573Q350 -575 357 -575Q367 -595 389 -610Q413 -626 439 -626H443Q460 -625 471 -615Q482 -604 493 -592Q493 -588 492 -584Q496 -557 505 -534Q509 -538 515 -540H518V-539Q515 -529 511 -520Q511 -517 512 -515Q512 -512 513 -512Q516 -513 518 -515Q520 -515 520 -513Q517 -501 514 -489Q514 -481 520 -478Q517 -451 517 -423Q518 -395 504 -378Q496 -370 482 -363Q465 -354 458 -348Q446 -325 446 -279Q447 -268 447 -258Q531 -298 635 -322Q638 -323 645 -323Q674 -323 699 -302Q754 -255 773 -170Q761 -172 758 -186Q754 -201 751 -211Q740 -242 718 -242H714Q723 -217 734 -187Q744 -157 745 -122Q745 -109 744 -102Q742 -89 739 -76Q739 -67 745 -63Q755 -66 761 -88Q766 -106 773 -108Q775 -105 775 -97Q775 -91 773 -81Q767 -56 752 -35Q734 -10 714 -4Q711 -3 706 -3ZM317 -108H324Q340 -108 366 -104Q364 -108 364 -113Q365 -120 365 -127Q365 -135 361 -138Q349 -131 336 -126Q323 -121 317 -108Z"/>
</svg>