<svg xmlns="http://www.w3.org/2000/svg" viewBox="0 -800 1024 1024">
	<path fill="#000000" d="M750 -442Q737 -435 726 -431Q724 -431 720 -433Q722 -448 747 -452Q750 -449 750 -442ZM844 -481H827Q813 -479 792 -468Q770 -456 757 -455Q761 -464 777 -473Q794 -483 797 -494Q767 -491 733 -471Q711 -458 678 -433Q610 -381 588 -338Q602 -347 626 -366Q664 -397 684 -407Q685 -405 685 -404Q684 -399 679 -394Q674 -389 671 -385Q646 -371 625 -350Q605 -329 584 -308Q548 -272 525 -242Q518 -234 511 -227Q509 -213 507 -200Q501 -188 495 -176Q490 -163 484 -135Q479 -109 474 -95Q470 -99 470 -107Q472 -120 474 -134Q478 -158 478 -167Q478 -171 477 -175Q460 -169 452 -127Q446 -89 446 -67Q446 -38 455 -23Q465 -24 466 -47Q467 -67 476 -70Q479 -39 479 18Q470 28 460 37Q451 45 449 62Q447 62 442 67Q389 46 360 -2Q352 -7 344 -8V-9Q346 -15 351 -19Q348 -29 336 -45Q357 -65 368 -99Q375 -121 384 -173Q391 -199 391 -207V-211Q385 -222 369 -236Q334 -283 300 -336Q266 -388 219 -419H218Q215 -419 211 -415Q208 -412 205 -412V-415Q205 -427 196 -434Q187 -441 174 -443Q166 -457 159 -491Q154 -516 151 -524Q154 -527 155 -527Q158 -526 160 -526V-531Q160 -551 141 -579Q124 -605 122 -625Q129 -621 139 -605Q152 -586 162 -584V-585Q162 -594 150 -608Q139 -621 139 -628Q146 -625 156 -614Q166 -603 175 -600Q176 -601 176 -604Q176 -610 168 -617Q160 -624 160 -628V-629Q166 -629 173 -624Q179 -620 183 -620Q191 -620 205 -631Q216 -639 221 -641Q235 -647 254 -647Q289 -647 304 -631Q312 -618 320 -605Q348 -570 371 -503Q359 -506 354 -518Q349 -531 337 -533H335V-526Q335 -502 351 -475Q354 -470 383 -430Q395 -412 407 -394Q424 -368 437 -367Q433 -389 410 -425Q394 -447 392 -451Q382 -467 380 -481Q391 -479 397 -468Q403 -457 409 -446Q429 -409 454 -374Q511 -434 568 -493Q625 -552 677 -617Q674 -627 661 -627Q641 -623 620 -619H618V-620Q618 -624 643 -637Q661 -643 678 -649Q676 -654 668 -653Q660 -653 655 -655Q669 -659 692 -670Q727 -686 745 -689Q761 -691 770 -691Q786 -690 801 -690Q811 -690 821 -691Q834 -665 851 -635Q869 -605 871 -569Q874 -542 877 -515Q877 -486 855 -482Q851 -481 844 -481Z"/>
</svg>