<svg xmlns="http://www.w3.org/2000/svg" viewBox="0 -800 1024 1024">
	<path fill="#000000" d="M732 -412H730Q700 -418 675 -436Q645 -473 634 -535V-543Q635 -561 636 -580Q636 -588 635 -592Q656 -620 672 -635Q696 -658 721 -663Q732 -666 745 -666Q767 -666 779 -655Q775 -652 768 -652H760Q748 -652 748 -642V-641Q749 -631 759 -629Q769 -628 776 -627Q795 -620 829 -579Q832 -576 833 -576Q837 -576 837 -587Q837 -597 834 -605Q830 -615 820 -625Q816 -630 812 -633Q808 -637 807 -645Q829 -638 847 -607Q867 -574 867 -540Q867 -520 858 -499Q838 -450 770 -424Q741 -412 732 -412ZM791 -149H790Q774 -165 744 -188Q717 -209 707 -218Q625 -287 542 -358Q500 -392 456 -425Q455 -427 448 -427Q445 -433 438 -437Q431 -440 425 -444Q395 -427 378 -397Q360 -367 333 -347Q334 -363 351 -382Q367 -400 369 -416Q349 -409 326 -387Q325 -386 289 -347Q274 -331 258 -311Q242 -291 241 -264Q241 -259 243 -249Q251 -250 261 -263Q269 -274 275 -274Q277 -274 281 -272V-270Q281 -260 272 -245Q263 -229 261 -220Q258 -203 257 -189Q256 -174 248 -163Q234 -142 206 -142Q177 -142 154 -163Q112 -167 96 -187Q87 -200 86 -233Q85 -260 80 -271Q73 -280 70 -289V-290Q75 -306 82 -316Q76 -330 60 -349Q36 -377 33 -398Q42 -393 55 -376Q73 -352 85 -347Q83 -357 73 -367Q62 -378 61 -387Q70 -384 83 -372Q93 -362 101 -359Q100 -364 94 -369Q88 -374 88 -380V-381Q90 -381 91 -382Q100 -378 108 -375H109Q114 -375 122 -381Q129 -386 135 -387Q138 -388 144 -388Q155 -387 165 -386Q169 -386 171 -387Q179 -390 186 -399Q193 -409 201 -416Q211 -421 221 -427Q230 -436 236 -445Q242 -454 256 -457Q265 -473 277 -485Q290 -497 302 -511Q313 -525 322 -540Q331 -554 345 -564Q343 -565 343 -568Q345 -574 347 -581V-582Q351 -584 355 -592Q360 -601 363 -604Q372 -609 386 -610Q399 -610 412 -611Q420 -612 427 -614H430Q435 -613 441 -607Q448 -600 452 -600Q454 -600 456 -601V-598Q456 -587 466 -579Q468 -579 468 -582Q468 -585 471 -585H472Q474 -572 484 -560Q489 -554 504 -539Q532 -511 564 -487Q626 -435 672 -415Q681 -403 686 -401Q698 -394 711 -388Q724 -383 733 -373Q707 -376 688 -387Q669 -399 650 -412L620 -432Q609 -440 601 -446Q592 -452 576 -453Q581 -431 600 -419Q618 -407 641 -394Q695 -359 749 -324Q780 -302 811 -296Q823 -296 828 -304Q826 -313 813 -320Q799 -328 797 -338Q836 -324 872 -306Q875 -306 876 -312Q877 -319 881 -319Q886 -316 888 -303Q890 -292 893 -289Q899 -289 899 -295Q900 -301 902 -306Q908 -297 911 -286Q914 -274 924 -269Q931 -243 941 -219Q950 -194 951 -167Q951 -160 949 -146Q934 -120 924 -112Q909 -99 886 -99Q881 -99 869 -101Q844 -106 801 -146Q796 -147 791 -149ZM287 -286H286Q285 -288 285 -292Q286 -306 298 -308Q300 -308 304 -306Q300 -300 298 -293Q295 -287 287 -286ZM729 -564H724Q721 -555 721 -548Q723 -523 741 -507Q759 -492 773 -476Q783 -489 783 -506Q783 -529 768 -546Q752 -564 729 -564Z"/>
</svg>