<svg xmlns="http://www.w3.org/2000/svg" viewBox="0 -800 1024 1024">
	<path fill="#000000" d="M860 -593H858Q852 -593 852 -602Q852 -606 854 -608Q833 -624 812 -640Q791 -656 774 -677Q770 -712 765 -748Q769 -744 776 -744Q790 -744 792 -760V-761Q799 -757 806 -757Q824 -757 838 -776Q839 -775 839 -771V-758Q846 -761 857 -770Q870 -781 880 -784V-782Q880 -776 870 -768Q859 -759 859 -752Q859 -750 861 -746Q863 -745 865 -745Q870 -747 875 -749H877Q876 -745 876 -739Q876 -721 897 -700Q906 -701 915 -703Q897 -692 897 -669Q897 -659 900 -647Q892 -637 892 -624Q892 -615 894 -610Q887 -617 876 -617Q867 -617 861 -611Q862 -605 862 -600Q862 -597 860 -593ZM747 -511V-514Q747 -519 755 -527Q749 -536 732 -552Q713 -571 706 -583Q703 -584 699 -588Q694 -593 689 -593H688V-594Q688 -597 694 -599V-603Q699 -622 703 -641V-644Q702 -648 699 -652Q695 -656 695 -660V-662Q696 -663 699 -663Q707 -660 715 -658Q719 -658 719 -665Q725 -664 735 -664H747Q757 -664 762 -662Q769 -660 779 -648Q786 -640 792 -637H793Q797 -638 801 -640Q805 -610 829 -610Q822 -601 822 -588Q823 -572 824 -557Q832 -556 839 -553Q814 -549 814 -519Q814 -505 818 -496Q805 -501 802 -517Q800 -518 796 -518Q786 -516 776 -515Q769 -515 764 -520Q761 -520 756 -514Q753 -510 750 -510Q748 -510 747 -511ZM790 -146H788Q775 -147 766 -159Q757 -172 747 -179Q740 -210 721 -228Q701 -246 683 -266Q685 -267 688 -267Q696 -265 703 -263H704Q699 -271 677 -287Q658 -297 648 -313Q670 -302 698 -299Q697 -305 682 -310Q664 -316 662 -323Q679 -319 695 -316Q688 -336 674 -364Q638 -435 593 -481V-482Q592 -486 590 -490Q584 -493 578 -497Q569 -523 556 -547Q557 -561 558 -575Q558 -590 567 -597Q565 -603 565 -605V-608Q567 -607 571 -607Q579 -607 592 -615Q605 -623 611 -623Q617 -623 623 -617Q626 -617 629 -622Q630 -622 630 -621Q629 -618 627 -616Q641 -610 651 -603Q662 -581 678 -563Q693 -546 707 -527Q709 -516 720 -504Q733 -490 734 -479Q722 -482 716 -493Q709 -504 703 -516Q695 -538 673 -545Q672 -542 672 -536Q673 -520 681 -507Q689 -495 697 -482Q737 -407 778 -385Q781 -391 781 -395Q781 -401 776 -409Q769 -420 769 -426V-427Q803 -389 836 -351Q843 -353 849 -355Q848 -346 847 -338Q847 -333 849 -330L850 -329Q852 -331 857 -334Q859 -333 860 -333Q856 -310 851 -288Q851 -279 855 -272Q850 -260 846 -212Q843 -174 827 -163Q816 -159 804 -155Q791 -146 790 -146ZM641 -317Q636 -317 636 -316Q627 -317 626 -327Q626 -330 627 -332Q639 -332 641 -317ZM373 -47V-48Q373 -56 362 -66Q354 -73 352 -80Q352 -81 354 -81Q364 -78 373 -75H374Q369 -86 344 -104Q316 -124 309 -141H310Q325 -141 339 -128Q353 -115 366 -115H370Q363 -132 331 -148Q301 -163 294 -178H296Q317 -175 341 -163Q380 -149 390 -149H394Q405 -151 424 -167Q448 -193 449 -232Q449 -236 448 -241V-246Q451 -270 454 -294V-299Q451 -306 448 -313Q445 -333 435 -351Q423 -367 417 -373Q405 -384 391 -386Q365 -349 344 -303Q323 -258 300 -213Q296 -200 285 -192Q285 -195 284 -199Q284 -212 301 -238Q317 -263 317 -277Q317 -279 315 -287Q291 -271 276 -245Q261 -218 248 -192Q234 -168 220 -141Q206 -115 205 -83V-78Q214 -81 219 -90Q225 -101 230 -113Q237 -133 256 -138Q246 -117 233 -94Q221 -70 214 -44Q212 -26 207 -11Q201 -3 194 3Q187 9 185 20Q173 22 160 23Q151 23 146 13Q143 15 139 21Q135 27 131 28V20Q130 1 120 -11Q110 -22 99 -34Q96 -49 96 -61Q97 -76 97 -92Q97 -112 93 -123Q97 -122 100 -121Q102 -121 103 -122Q161 -158 192 -221Q225 -289 262 -353V-355Q244 -341 220 -322Q196 -304 170 -302Q148 -302 131 -322Q130 -326 128 -331Q128 -333 129 -335Q93 -345 89 -381Q89 -395 99 -408Q94 -420 94 -430Q94 -460 114 -470Q127 -501 139 -533Q154 -565 169 -565H170Q165 -551 154 -535Q143 -520 142 -499Q142 -493 143 -490Q148 -493 151 -505Q156 -522 165 -523Q166 -521 166 -520Q165 -513 164 -506Q164 -501 167 -499H170Q175 -499 185 -504Q193 -508 198 -508Q203 -508 207 -505Q205 -499 190 -493Q176 -487 176 -479V-476Q178 -468 186 -468Q198 -468 223 -485Q274 -512 325 -540Q318 -545 306 -545Q291 -544 275 -537Q259 -530 245 -526Q268 -558 359 -569Q363 -577 363 -587Q363 -608 346 -625Q345 -631 345 -642Q345 -682 382 -704Q394 -712 406 -723Q418 -734 436 -735H438Q456 -734 470 -724Q483 -713 496 -701Q503 -682 512 -662Q522 -642 525 -616Q518 -591 500 -578Q481 -566 469 -547Q501 -521 529 -474Q546 -445 570 -389V-382Q574 -339 586 -298Q582 -234 578 -170Q579 -163 579 -157Q579 -146 571 -143Q570 -147 570 -157Q571 -173 571 -189Q571 -209 561 -218Q551 -190 541 -156Q531 -123 518 -95Q511 -82 503 -72Q496 -61 493 -46Q492 -41 492 -34Q492 -23 497 -23Q502 -23 513 -36Q523 -48 527 -56Q534 -68 540 -78Q545 -89 553 -92Q554 -90 554 -86Q551 -70 540 -56Q521 -20 506 -5Q482 20 450 20Q420 19 398 4Q376 -11 353 -24Q356 -29 364 -35Q372 -41 373 -47Z"/>
</svg>