<svg xmlns="http://www.w3.org/2000/svg" viewBox="0 -800 1024 1024">
	<path fill="#000000" d="M519 -109V-112Q517 -113 513 -113Q505 -113 497 -107Q466 -84 466 -58V-56Q470 -54 471 -54Q474 -54 478 -58Q482 -63 485 -63Q487 -63 488 -62Q473 -40 451 -19Q428 5 393 28Q380 38 367 51Q353 64 334 67Q328 60 322 53Q317 45 306 43Q300 29 292 19Q283 9 274 -1V-2Q276 -4 277 -7V-8Q269 -25 244 -46Q226 -62 219 -71H220Q229 -71 244 -59Q254 -51 260 -49Q250 -67 230 -81Q208 -95 195 -118Q229 -98 262 -79Q249 -101 214 -123Q171 -150 160 -162Q163 -162 166 -163Q179 -162 190 -154Q201 -145 211 -137Q228 -126 266 -112Q276 -116 282 -116Q287 -116 293 -113Q390 -166 454 -223Q504 -274 549 -332Q566 -349 581 -368Q593 -385 614 -430Q627 -457 637 -475Q518 -471 405 -424Q395 -430 386 -440Q364 -426 353 -403Q341 -381 328 -358H326Q322 -358 311 -354Q297 -349 287 -349H285Q269 -365 262 -365Q255 -365 250 -361Q252 -367 252 -368Q252 -383 229 -395Q212 -388 195 -382Q199 -391 217 -409Q216 -418 203 -418H196Q181 -416 149 -391Q150 -403 168 -417Q185 -430 188 -437Q167 -433 141 -410Q111 -384 96 -378Q113 -409 140 -432Q167 -455 193 -478Q211 -496 227 -514Q244 -532 265 -545Q262 -532 243 -514Q221 -493 217 -476Q234 -479 246 -493Q257 -506 269 -520Q294 -543 318 -566Q329 -577 342 -592Q356 -608 357 -623Q357 -626 355 -632Q343 -631 332 -615Q323 -602 315 -599V-604Q316 -618 325 -627Q334 -636 342 -645Q344 -664 351 -667Q353 -675 353 -679Q353 -688 342 -710Q343 -711 345 -711Q351 -707 357 -704Q366 -707 366 -714Q365 -727 349 -729Q345 -729 343 -728Q349 -736 358 -736Q363 -735 368 -735Q373 -735 375 -736Q386 -739 402 -752Q419 -766 433 -766H436Q441 -763 445 -760Q448 -759 454 -759H461Q469 -759 473 -757Q494 -735 519 -719Q532 -685 539 -653Q533 -643 533 -634Q534 -631 534 -628Q508 -601 487 -572Q520 -575 553 -579Q560 -582 567 -586H589Q619 -593 657 -599Q669 -611 683 -624Q697 -638 715 -639Q718 -638 721 -638Q732 -632 741 -622Q766 -634 778 -648Q781 -653 783 -658Q786 -664 792 -664H795Q793 -656 782 -644Q765 -626 765 -615Q765 -608 767 -604Q776 -606 786 -620Q794 -631 799 -632Q791 -619 788 -604Q788 -601 789 -599Q791 -598 792 -598Q795 -598 800 -603Q807 -610 813 -610H814Q815 -607 815 -604Q813 -585 810 -567V-562Q814 -539 838 -533Q833 -527 833 -513V-502Q833 -494 832 -490Q832 -486 826 -477Q821 -469 821 -462V-461Q803 -457 790 -446Q777 -436 764 -425L762 -423H763Q768 -423 772 -424H775Q766 -415 755 -410Q733 -393 707 -343Q685 -300 669 -286V-290Q669 -296 674 -305Q678 -312 678 -316Q678 -318 675 -323Q650 -306 631 -280Q613 -255 596 -230Q576 -200 559 -179Q549 -168 539 -156Q528 -143 527 -127Q547 -133 560 -148Q573 -163 586 -179Q602 -195 614 -212Q624 -234 645 -245Q617 -193 543 -115Q534 -105 526 -93Q517 -82 504 -77Q505 -83 512 -92Q519 -101 519 -109ZM309 -592H310Q305 -574 291 -572Q290 -574 290 -577Q290 -583 297 -588Q303 -592 309 -592ZM130 -182H135Q150 -182 152 -165Q136 -168 130 -182Z"/>
</svg>