<svg xmlns="http://www.w3.org/2000/svg" viewBox="0 -800 1024 1024">
	<path fill="#000000" d="M846 -682V-686Q845 -702 832 -706Q820 -710 809 -716H841Q845 -724 847 -767Q848 -768 849 -768Q853 -767 855 -762Q857 -757 859 -754Q863 -755 868 -770Q873 -765 881 -765Q892 -765 917 -776Q912 -768 912 -760Q912 -747 921 -740Q927 -744 933 -751Q939 -758 947 -759Q949 -758 951 -758Q931 -738 931 -723Q931 -714 940 -707Q948 -709 953 -709Q960 -709 963 -706Q961 -704 954 -701Q944 -697 942 -692Q946 -684 946 -673Q943 -645 930 -620Q928 -621 925 -621Q918 -620 915 -615Q912 -610 908 -607Q904 -608 904 -615Q904 -618 905 -619Q879 -623 869 -642Q858 -663 846 -682ZM812 -544H810Q804 -572 791 -582Q788 -582 783 -577Q778 -572 773 -572Q773 -574 772 -576Q772 -582 778 -586Q782 -589 783 -591Q782 -598 778 -605Q773 -613 773 -617V-618Q773 -627 781 -643Q791 -663 791 -673Q791 -677 789 -683H794Q795 -669 803 -662Q804 -663 804 -665Q804 -669 803 -673Q803 -677 807 -677Q824 -666 839 -666Q847 -666 851 -667Q857 -637 875 -617Q894 -596 897 -564Q897 -551 895 -544Q883 -536 871 -529Q869 -517 869 -513Q869 -510 871 -502Q853 -544 812 -544ZM677 -31V-29Q677 -8 656 13Q647 22 621 38Q594 55 584 67Q575 60 560 58H557Q546 27 526 27Q523 28 520 28Q525 14 527 10Q522 2 514 2Q507 3 500 9Q493 16 486 21Q478 27 465 31Q448 37 444 41Q452 23 480 2Q504 -16 512 -28Q488 -18 466 -1Q443 15 419 31Q401 47 388 47Q393 36 419 13Q460 -19 500 -55Q540 -91 563 -145Q563 -156 571 -184Q579 -213 579 -232Q579 -235 576 -346Q543 -345 511 -333Q494 -323 476 -314Q469 -312 462 -311Q453 -305 440 -295Q426 -285 411 -284H408Q395 -289 381 -293Q374 -293 369 -289V-292Q371 -297 373 -302Q369 -306 364 -306Q351 -301 345 -296H344Q354 -307 354 -324Q354 -334 350 -358Q359 -368 368 -377Q377 -387 381 -400Q394 -407 407 -415Q419 -423 438 -425V-424Q436 -420 423 -411Q410 -401 408 -393Q408 -389 416 -387H419Q432 -388 452 -400Q473 -412 485 -419Q500 -426 530 -433Q565 -441 578 -455Q576 -464 561 -464H554Q536 -463 518 -454Q499 -444 483 -439Q482 -440 482 -442Q485 -453 500 -453Q516 -468 537 -473Q559 -478 579 -487Q580 -490 580 -493Q577 -508 574 -524Q574 -531 578 -536Q570 -545 570 -556Q571 -567 568 -578Q563 -590 546 -616Q532 -637 527 -648Q533 -654 533 -658Q533 -662 527 -670Q535 -674 541 -691Q548 -711 559 -714Q560 -730 578 -751Q604 -783 613 -787Q615 -788 621 -788Q629 -787 637 -787Q653 -784 668 -774Q684 -762 687 -746Q676 -750 667 -757Q659 -754 655 -749Q657 -735 669 -726Q680 -717 689 -706Q697 -695 704 -683Q710 -671 724 -670Q725 -672 725 -675Q725 -683 719 -696Q712 -711 712 -718V-721H715Q724 -721 726 -698Q726 -695 732 -695V-691Q736 -677 744 -662V-653Q750 -644 754 -634Q753 -624 744 -618Q735 -611 727 -607Q702 -588 702 -548V-541Q718 -545 736 -547H737Q739 -547 739 -546Q739 -544 738 -542Q738 -541 739 -541H742Q756 -544 769 -547Q774 -547 780 -544Q769 -538 769 -528Q769 -517 786 -517Q793 -517 797 -518Q794 -513 789 -510Q784 -507 783 -499Q784 -494 795 -494H800V-492Q802 -488 803 -484Q815 -488 827 -493Q815 -478 809 -464Q812 -456 819 -449Q810 -430 809 -404Q805 -400 794 -395Q780 -389 776 -383Q732 -386 695 -375Q694 -358 694 -323Q696 -234 698 -145Q698 -125 696 -85H695Q692 -85 691 -88Q689 -92 687 -92Q690 -134 690 -138Q690 -165 683 -179Q672 -164 670 -140Q668 -116 667 -94Q662 -55 643 -26Q638 -21 632 -14Q626 -7 625 2Q625 6 628 12H635Q637 12 637 13Q644 8 654 -7Q666 -25 677 -31ZM322 -95V-83Q322 -1 265 -1Q260 -1 255 -2Q205 -7 165 -59Q125 -111 125 -167V-221Q124 -235 123 -249Q123 -267 132 -277Q136 -274 136 -269Q134 -257 131 -246V-238Q131 -186 153 -177Q160 -184 160 -198Q160 -200 157 -224V-227Q156 -236 155 -245Q155 -251 154 -258Q154 -286 167 -336Q179 -382 179 -401V-403Q177 -421 169 -430Q160 -427 159 -404Q158 -383 150 -378Q147 -387 147 -403Q148 -424 149 -446V-447Q149 -449 146 -449Q144 -449 144 -451V-454Q141 -488 131 -535L129 -547Q125 -553 120 -560Q115 -572 115 -589Q115 -613 128 -629Q122 -648 115 -665Q108 -681 107 -704V-710Q116 -705 125 -684Q134 -664 143 -658Q137 -675 133 -690Q133 -693 134 -695Q142 -688 148 -678Q154 -669 166 -665V-667Q166 -671 160 -679Q153 -688 153 -693V-695Q171 -688 182 -676Q189 -688 208 -689Q227 -689 243 -694Q252 -686 267 -685Q268 -679 272 -677Q277 -676 282 -673Q287 -670 297 -655Q303 -646 308 -641Q319 -633 322 -629Q327 -623 336 -613Q345 -604 346 -594Q346 -589 341 -584Q357 -556 357 -530Q357 -523 356 -519Q356 -517 354 -517H350Q348 -517 347 -515Q346 -501 335 -489Q318 -472 317 -470Q314 -449 295 -436Q281 -397 267 -359Q263 -350 257 -340Q251 -329 250 -316Q250 -308 253 -301Q244 -287 244 -263Q244 -231 258 -195Q264 -196 276 -207Q289 -218 297 -221Q298 -218 298 -216Q298 -209 287 -200Q275 -190 274 -182Q301 -186 332 -224Q338 -231 343 -240Q348 -248 357 -249H360Q353 -229 330 -202Q299 -166 294 -138Q303 -141 308 -150Q313 -159 317 -167Q328 -187 342 -192Q337 -178 325 -161Q312 -144 311 -122V-116Q314 -106 322 -95ZM314 -239Q305 -225 299 -224Q301 -238 310 -241Q312 -241 314 -239ZM146 -333H144Q139 -335 135 -338Q137 -345 139 -352Q140 -360 149 -361Q148 -348 146 -336Z"/>
</svg>