<svg xmlns="http://www.w3.org/2000/svg" viewBox="0 -800 1024 1024">
	<path fill="#000000" d="M395 -48H403Q400 -56 381 -58Q364 -60 360 -66Q390 -69 418 -80Q422 -125 425 -197Q430 -312 436 -362Q385 -362 323 -330Q307 -320 291 -306Q276 -293 253 -291Q218 -291 181 -330Q135 -340 112 -380Q108 -387 108 -397Q108 -424 127 -443Q126 -448 126 -457Q128 -488 153 -503Q178 -517 201 -531Q244 -562 258 -566Q251 -556 241 -548Q230 -539 229 -526Q229 -524 231 -516H232Q236 -516 242 -525Q248 -533 253 -534Q255 -534 255 -532Q254 -527 253 -523Q253 -521 255 -519Q273 -513 307 -513Q272 -497 272 -487Q272 -482 283 -479Q287 -478 290 -478Q296 -478 333 -488Q355 -493 376 -497Q397 -500 412 -509Q405 -515 389 -515Q365 -512 341 -510Q333 -510 327 -513Q348 -522 374 -525Q400 -528 425 -533V-539Q425 -591 406 -626H402Q392 -625 382 -624H379Q379 -632 387 -637Q397 -643 398 -647Q398 -652 393 -653Q388 -653 385 -655Q404 -671 416 -693Q436 -703 447 -720Q471 -742 508 -742Q542 -742 561 -724Q576 -709 584 -692Q591 -674 601 -658V-655Q598 -600 560 -581Q555 -568 549 -555H552Q571 -555 599 -562Q627 -569 642 -569Q649 -569 663 -567Q634 -555 603 -549Q593 -547 584 -546Q576 -544 573 -534Q580 -530 597 -530Q621 -530 668 -540Q681 -543 704 -551Q729 -560 739 -561Q733 -568 714 -568H703Q687 -568 681 -573Q699 -583 726 -585Q752 -587 775 -592Q781 -587 791 -587Q813 -591 835 -597Q827 -591 818 -585Q809 -580 808 -568Q808 -566 810 -558Q815 -559 819 -563Q823 -568 827 -568Q829 -567 831 -567Q819 -555 819 -544Q819 -539 823 -536Q824 -535 826 -535Q828 -537 834 -540H837Q835 -534 835 -525Q837 -505 847 -488Q835 -459 826 -433Q818 -407 783 -401Q726 -396 655 -396Q583 -396 538 -380Q535 -362 535 -340Q536 -318 536 -297Q538 -259 538 -241Q538 -220 536 -212Q528 -224 527 -260Q525 -298 518 -309Q507 -305 507 -293Q508 -286 508 -279Q509 -266 509 -254Q508 -216 507 -179Q507 -103 530 -78Q538 -82 538 -94Q536 -109 534 -124Q534 -134 539 -138Q544 -113 547 -87Q551 -62 560 -41Q555 -35 555 -25Q557 -13 558 -2Q558 1 557 4Q551 15 542 25Q532 49 520 66Q506 68 501 68Q464 66 446 42Q427 18 410 -6Q411 -9 411 -14Q410 -25 405 -32Q399 -39 395 -48ZM832 -51H837Q822 -39 806 -32Q786 -38 772 -48H771Q768 -48 766 -43Q764 -39 761 -39V-48Q761 -53 760 -54Q758 -55 733 -77Q716 -92 700 -92Q697 -92 689 -90V-96Q689 -103 690 -107Q667 -132 640 -154Q613 -176 595 -206Q593 -227 585 -243Q577 -259 570 -276Q588 -311 614 -311Q622 -311 631 -308Q638 -306 651 -296Q668 -284 677 -284H678Q683 -273 698 -266Q709 -268 722 -284Q734 -300 743 -300Q739 -291 733 -283Q728 -275 727 -266V-263Q728 -251 741 -244Q762 -232 763 -231Q768 -235 777 -246Q788 -260 797 -264Q796 -253 789 -242Q783 -232 782 -227Q786 -218 794 -214Q802 -210 810 -206Q833 -222 856 -234Q854 -225 842 -214Q828 -201 828 -192Q828 -186 832 -179Q838 -169 838 -162Q848 -158 880 -158Q901 -158 909 -156Q906 -152 889 -151Q863 -149 857 -141Q852 -134 852 -118Q852 -111 854 -105Q856 -98 866 -96Q875 -94 878 -89Q876 -88 869 -88Q863 -88 860 -89Q856 -88 853 -82Q850 -76 847 -75Q843 -76 841 -83Q840 -89 837 -89H835Q827 -89 819 -78Q813 -70 808 -68Q806 -67 803 -67Q792 -69 780 -71Q774 -71 770 -69Q774 -48 798 -48Q815 -49 832 -51ZM268 -69V-66Q268 -59 260 -44Q254 -34 253 -27Q223 -21 212 -21Q196 -21 179 -30Q174 -53 156 -57Q149 -90 122 -90H120Q127 -96 136 -101V-103Q136 -115 122 -115Q109 -114 96 -113Q90 -113 85 -116Q100 -127 120 -134Q116 -135 108 -135Q92 -135 65 -125Q46 -118 38 -117V-121Q39 -132 52 -135Q64 -138 74 -141Q114 -155 121 -155Q136 -164 150 -173Q165 -183 184 -189Q203 -206 228 -215Q233 -220 238 -225Q243 -226 248 -227H250Q253 -239 271 -252Q289 -266 292 -279H293Q297 -279 299 -275Q302 -270 305 -270Q322 -279 326 -287Q337 -276 350 -276H353Q363 -268 373 -245Q384 -219 394 -212Q390 -188 380 -165Q373 -164 364 -158Q353 -150 345 -150Q333 -143 318 -119Q301 -90 284 -84Q286 -102 305 -121Q321 -137 324 -150Q292 -146 246 -90Q232 -76 232 -60Q232 -53 238 -50Q247 -51 256 -60Q263 -67 268 -69ZM751 -609Q743 -593 723 -593Q703 -593 689 -589Q625 -644 625 -696Q625 -707 628 -719Q632 -725 635 -732Q649 -762 659 -773Q666 -782 672 -792Q689 -806 722 -806Q772 -804 798 -783Q810 -774 823 -750Q836 -725 836 -700Q836 -663 810 -626Q782 -614 751 -609ZM743 -655V-659Q743 -664 751 -675Q752 -678 752 -683Q748 -711 728 -713Q714 -713 714 -696V-695Q714 -675 743 -655ZM883 -261V-260Q883 -258 884 -258Q881 -244 863 -242Q864 -250 868 -256Q872 -262 878 -262Q881 -262 883 -261ZM542 -150H539Q533 -150 533 -157Q533 -165 538 -173Q543 -166 542 -150Z"/>
</svg>