<svg xmlns="http://www.w3.org/2000/svg" viewBox="0 -800 1024 1024">
	<path fill="#000000" d="M729 -415H724Q719 -415 718 -413Q716 -415 716 -417V-422Q721 -425 728 -425Q733 -425 734 -424V-416Q733 -415 729 -415ZM619 -574H616Q614 -574 611 -577Q545 -561 496 -529Q447 -496 395 -466Q391 -471 386 -473Q384 -473 382 -472Q383 -474 383 -477Q383 -481 377 -487Q371 -493 370 -498Q358 -498 354 -496V-497Q354 -501 358 -505Q361 -508 361 -511Q355 -517 347 -517Q326 -513 311 -505Q322 -516 335 -526Q330 -530 322 -530Q314 -530 299 -521Q286 -513 278 -512Q277 -513 277 -515Q277 -520 292 -532Q305 -542 305 -545Q305 -549 296 -550H295Q279 -550 253 -533Q217 -512 216 -511Q226 -528 244 -539Q290 -576 336 -613H346Q351 -617 351 -625Q366 -632 380 -640Q388 -655 406 -655H410Q405 -649 375 -628Q353 -613 349 -593Q385 -609 418 -634Q430 -643 441 -653Q455 -661 469 -669Q482 -678 489 -695Q481 -697 479 -697Q470 -697 458 -689Q446 -681 439 -680Q445 -696 459 -705Q473 -714 484 -724Q489 -754 491 -759Q498 -777 515 -782H521Q531 -782 545 -790Q553 -788 557 -788Q572 -789 587 -791H592Q618 -786 634 -762Q649 -739 669 -727Q672 -719 675 -712Q676 -711 677 -711Q682 -712 687 -713H689V-711Q688 -705 687 -699V-697Q689 -696 691 -696Q698 -698 704 -700Q690 -681 690 -669Q690 -665 692 -659Q692 -658 696 -658Q700 -658 700 -656V-647Q700 -640 692 -595Q690 -583 662 -583Q629 -583 619 -574ZM185 -494V-496Q185 -507 200 -507Q205 -507 207 -505Q203 -493 190 -493Q187 -493 185 -494ZM421 84H418Q402 82 385 58Q367 32 351 29V10Q351 -3 349 -8Q347 -17 335 -29Q320 -44 320 -55V-56Q325 -56 331 -51Q336 -47 339 -46Q335 -59 322 -76Q306 -97 303 -110Q315 -105 330 -86Q343 -70 352 -65Q339 -93 320 -115Q301 -136 284 -160Q308 -147 326 -129Q345 -112 364 -94Q409 -107 444 -142Q502 -200 508 -268Q497 -269 474 -269Q410 -269 332 -250Q244 -228 219 -211Q208 -201 197 -185Q186 -169 170 -167H168Q128 -171 109 -197H105Q85 -197 70 -213Q55 -229 55 -252Q55 -261 56 -265Q64 -278 71 -292Q76 -310 80 -329Q95 -352 125 -370Q154 -388 179 -401Q204 -417 215 -418Q212 -413 190 -396Q170 -381 170 -369Q170 -363 174 -356Q179 -358 185 -367Q189 -374 192 -376Q192 -363 198 -353Q205 -352 211 -352Q233 -353 255 -355Q262 -355 274 -353Q273 -345 248 -342Q221 -338 221 -329V-326Q222 -319 244 -319Q262 -319 345 -338Q373 -343 398 -349Q423 -354 438 -366Q431 -366 423 -367Q361 -363 308 -352Q317 -366 353 -370Q396 -374 407 -379H409Q413 -378 416 -377Q441 -384 457 -385Q456 -392 451 -400Q445 -410 445 -415V-416Q445 -423 453 -433Q462 -444 462 -451V-452H463Q466 -450 468 -449V-466H475Q485 -466 501 -470Q521 -475 531 -475H534Q565 -465 589 -404Q614 -410 644 -410Q663 -416 680 -419Q687 -419 693 -413Q688 -409 675 -406Q655 -401 651 -392Q664 -387 677 -387Q719 -392 757 -401Q767 -401 775 -402Q782 -404 787 -410Q786 -419 774 -419Q763 -418 752 -417Q745 -417 742 -422Q748 -430 772 -434Q792 -437 799 -443Q805 -441 811 -440Q830 -448 850 -452V-451Q850 -449 846 -445Q839 -438 839 -433Q841 -421 855 -421Q863 -422 871 -423Q874 -423 878 -421Q873 -416 866 -412Q860 -409 859 -400V-397Q860 -396 861 -396Q863 -399 870 -402Q873 -402 874 -401Q868 -393 868 -380Q868 -362 878 -350Q868 -342 868 -325Q867 -307 866 -290Q858 -282 851 -262Q808 -266 759 -273Q709 -279 653 -280Q619 -280 601 -278Q602 -268 602 -250Q602 -141 539 -47Q542 -64 556 -94Q572 -128 574 -151Q562 -147 556 -137Q550 -126 545 -115Q524 -74 498 -34Q481 -10 477 12Q477 17 478 20H479Q484 20 485 16Q486 11 489 8Q498 7 505 -4Q513 -16 522 -16Q498 33 450 84Q446 83 440 83Q431 84 421 84ZM315 -61V-58Q302 -59 301 -73Q301 -76 302 -77Q315 -77 315 -61Z"/>
</svg>