<svg xmlns="http://www.w3.org/2000/svg" viewBox="0 -800 1024 1024">
	<path fill="#000000" d="M645 -244H642Q622 -243 610 -227Q598 -209 586 -192Q547 -145 510 -109Q490 -90 469 -71Q461 -63 461 -51Q461 -47 463 -46Q464 -45 466 -45Q475 -47 490 -60Q505 -73 512 -78Q530 -96 543 -112Q557 -129 580 -135Q579 -128 573 -123Q567 -118 562 -114Q506 -55 413 23Q394 25 368 46Q340 68 321 68Q310 68 304 66Q297 51 278 30Q262 12 257 4Q260 -2 262 -8Q248 -34 238 -43Q223 -54 207 -62Q191 -70 180 -84Q190 -84 204 -76Q219 -68 232 -68Q226 -77 200 -88Q166 -102 161 -115Q176 -112 196 -101Q217 -90 229 -87Q217 -98 178 -118Q145 -135 130 -147Q161 -143 232 -114Q250 -104 266 -102Q278 -102 321 -121Q411 -161 464 -201Q452 -215 436 -227Q427 -224 415 -214Q403 -204 395 -201Q399 -210 406 -217Q414 -224 420 -232Q419 -238 405 -247Q397 -245 388 -243H386V-245Q388 -251 392 -255Q382 -272 371 -288Q360 -305 359 -326Q359 -336 361 -342Q368 -367 406 -367Q430 -367 460 -357H461Q467 -359 473 -362Q478 -350 492 -346Q506 -342 518 -338Q525 -345 536 -348H540Q537 -338 533 -328Q537 -323 547 -318Q562 -311 564 -303Q596 -331 621 -379Q635 -407 661 -472Q656 -478 644 -478Q636 -477 627 -477Q590 -472 552 -468Q516 -464 512 -463Q492 -458 485 -444Q491 -443 497 -443Q537 -446 586 -453Q593 -454 600 -455Q608 -455 610 -450Q598 -444 583 -443Q569 -442 555 -441Q481 -426 414 -397Q396 -404 378 -411Q368 -402 362 -375Q356 -349 348 -341Q341 -337 336 -331Q304 -353 277 -353Q260 -353 250 -342V-344Q251 -348 251 -352V-354Q243 -367 229 -367Q219 -366 212 -358Q205 -350 198 -345Q206 -362 210 -379Q210 -382 207 -387Q190 -384 179 -373Q169 -362 160 -356Q161 -369 173 -386Q189 -408 192 -414Q164 -401 146 -378Q129 -354 109 -334Q126 -375 176 -434Q212 -477 225 -498Q229 -502 231 -502Q233 -501 235 -501Q244 -529 268 -541Q264 -528 250 -509Q226 -477 225 -454Q250 -467 265 -491Q280 -515 293 -538Q318 -569 333 -604Q331 -605 326 -605Q316 -605 303 -587Q290 -569 279 -566Q282 -575 284 -585Q289 -587 295 -596Q302 -606 309 -607Q309 -622 322 -627Q326 -648 330 -670Q323 -678 307 -678Q317 -685 328 -693Q338 -701 339 -718Q349 -724 372 -742Q398 -763 417 -771Q422 -770 426 -770Q446 -771 466 -773Q488 -773 496 -761Q504 -761 516 -759Q527 -742 537 -718Q551 -690 551 -671Q551 -660 546 -645Q529 -639 508 -618Q488 -598 473 -592Q469 -581 464 -570Q478 -568 485 -568Q528 -572 575 -583Q603 -586 630 -589Q636 -592 642 -595Q665 -597 688 -603Q694 -606 699 -610Q704 -614 713 -614H715Q721 -613 727 -612H729Q744 -615 761 -638Q776 -658 787 -661Q782 -649 771 -634Q759 -619 758 -603Q759 -600 759 -597Q767 -598 773 -607Q779 -617 786 -624Q783 -609 780 -594Q780 -582 790 -580Q798 -582 807 -590Q819 -600 825 -600H826Q824 -594 815 -586Q806 -578 804 -571Q804 -570 806 -570Q810 -573 814 -576Q815 -576 817 -574Q819 -574 819 -573Q817 -569 815 -565V-563Q815 -538 842 -517Q844 -495 844 -486Q844 -457 832 -436Q780 -424 753 -386Q722 -339 693 -290Q633 -201 632 -200Q628 -204 628 -209Q628 -215 636 -226Q645 -238 645 -244ZM607 -172V-177Q607 -193 619 -193Q623 -193 626 -190Q623 -184 620 -178Q616 -172 607 -172ZM93 -156V-162Q96 -164 102 -164Q116 -164 116 -152Q109 -152 93 -156Z"/>
</svg>