<svg xmlns="http://www.w3.org/2000/svg" viewBox="0 -800 1024 1024">
	<path fill="#000000" d="M947 -502Q946 -486 926 -479Q928 -504 939 -504Q941 -504 947 -502ZM906 -241H903Q881 -241 878 -217Q873 -217 872 -221Q871 -225 870 -229Q864 -227 853 -227Q833 -229 813 -232Q791 -252 773 -274Q775 -281 776 -289Q766 -310 755 -352Q744 -394 737 -410Q733 -406 733 -395V-382Q733 -288 682 -205Q683 -222 697 -259Q712 -300 712 -322Q712 -327 711 -332Q694 -322 688 -303Q683 -283 677 -266Q634 -167 611 -133Q596 -111 592 -104Q582 -86 582 -71V-65Q595 -68 610 -89Q625 -111 637 -115Q631 -93 598 -49Q561 0 514 38Q511 37 506 37Q498 37 490 43Q419 27 378 -22Q371 -22 366 -26Q362 -31 361 -38H360Q357 -37 357 -34Q349 -48 326 -73Q296 -106 286 -128Q249 -159 227 -194Q198 -239 198 -266V-276Q201 -329 233 -364Q265 -399 292 -433Q274 -432 253 -415Q236 -401 225 -398Q224 -392 215 -384Q205 -376 204 -367Q193 -364 184 -358Q180 -352 175 -346Q172 -344 166 -343Q157 -342 154 -338Q96 -342 80 -397Q43 -420 38 -475Q38 -504 56 -523Q55 -528 55 -537Q57 -573 81 -591Q105 -609 133 -628Q155 -646 169 -655Q181 -664 191 -672Q200 -679 214 -680H216V-679Q216 -677 206 -667Q180 -646 158 -624Q166 -624 179 -636Q192 -647 201 -649Q202 -647 202 -646Q202 -642 195 -633Q185 -620 185 -615V-613Q194 -615 197 -620Q201 -625 206 -630Q209 -629 210 -623Q211 -618 213 -617Q231 -620 233 -620Q238 -620 242 -617Q238 -612 217 -606Q200 -601 200 -588V-586Q212 -579 222 -579Q226 -579 230 -580Q268 -588 308 -607Q348 -626 382 -639Q373 -648 360 -648Q349 -648 327 -639Q300 -628 287 -628H284Q284 -637 298 -640Q313 -643 316 -648Q320 -647 324 -646H326Q360 -669 387 -673Q414 -692 453 -703Q457 -704 464 -704Q474 -704 492 -698Q505 -694 515 -693V-690Q516 -681 523 -677Q530 -673 534 -668Q541 -672 548 -676Q548 -672 547 -668Q548 -652 556 -639Q564 -627 572 -617V-608Q572 -602 575 -602H576Q572 -578 572 -566Q572 -551 575 -541Q562 -527 561 -505Q545 -501 540 -493Q535 -494 530 -495H528Q509 -488 487 -478Q475 -466 463 -454Q446 -441 429 -428Q390 -390 351 -353Q324 -327 311 -312Q287 -284 287 -266V-265Q288 -253 297 -245Q306 -238 313 -229Q325 -211 336 -194Q371 -150 428 -122Q433 -117 437 -113Q492 -131 520 -178Q547 -224 575 -271Q588 -316 605 -362Q622 -409 631 -458Q646 -520 653 -584Q654 -596 654 -608Q654 -632 649 -643V-645Q651 -648 652 -652Q646 -665 646 -680Q646 -700 658 -734Q657 -740 655 -746V-748Q673 -775 704 -775Q711 -775 715 -774Q733 -769 744 -752Q755 -735 764 -722Q769 -706 772 -669Q775 -636 779 -620Q783 -605 797 -572Q812 -537 816 -518Q803 -526 790 -557Q780 -581 770 -590Q766 -585 766 -576Q768 -563 770 -551Q782 -496 811 -455Q824 -441 835 -438Q841 -441 841 -446Q839 -457 836 -468Q836 -471 837 -472Q845 -468 853 -452Q861 -436 870 -432Q884 -435 902 -456Q917 -473 926 -476Q922 -460 908 -447Q894 -430 888 -416Q894 -417 903 -431Q914 -447 924 -449Q908 -411 903 -392Q907 -396 911 -401Q915 -406 921 -407Q923 -407 924 -406Q914 -386 914 -366Q914 -359 915 -356Q915 -355 916 -355Q917 -357 921 -360Q922 -360 923 -359V-353Q923 -303 906 -241ZM658 -148V-146Q657 -132 644 -127Q642 -131 642 -134Q643 -147 653 -149Q656 -149 658 -148Z"/>
</svg>