<svg xmlns="http://www.w3.org/2000/svg" viewBox="0 -800 1024 1024">
	<path fill="#000000" d="M822 -624V-613Q822 -596 818 -585Q812 -588 812 -603Q812 -623 822 -624ZM462 -511H460Q436 -516 411 -532Q406 -530 400 -529Q389 -542 372 -542Q361 -542 354 -535Q354 -544 357 -552Q345 -564 330 -564Q313 -563 297 -555Q281 -547 268 -540Q272 -551 290 -562Q306 -572 310 -580Q305 -586 291 -594Q279 -601 274 -606Q254 -600 234 -594Q235 -601 250 -609Q265 -617 268 -625Q269 -629 269 -636Q269 -651 254 -675V-676Q254 -679 258 -678Q261 -678 261 -680V-685Q260 -696 255 -704Q250 -712 249 -718Q254 -718 260 -712Q267 -706 273 -706Q285 -706 293 -723Q318 -728 345 -730H353Q366 -728 378 -726H382Q389 -728 395 -737Q401 -746 406 -747Q408 -746 409 -745Q407 -739 405 -734V-732Q413 -722 442 -717Q471 -712 479 -703Q482 -704 484 -710Q487 -718 493 -718V-703Q507 -688 523 -676Q528 -659 532 -643Q526 -644 522 -649Q518 -654 514 -660Q508 -675 493 -678Q488 -674 488 -667Q488 -658 505 -631Q519 -609 520 -600V-598Q520 -584 533 -577Q541 -580 541 -590Q540 -603 538 -617Q538 -623 539 -625Q556 -606 556 -581Q556 -568 554 -561Q548 -555 523 -541Q508 -533 492 -523Q476 -512 462 -511ZM670 -160V-171Q687 -181 690 -181Q695 -181 699 -175Q693 -170 688 -165Q683 -160 674 -159Q674 -160 670 -160ZM753 -243H749Q740 -243 715 -228Q697 -217 609 -156Q606 -154 536 -109Q511 -92 502 -84Q485 -68 480 -51Q510 -63 567 -103Q626 -144 664 -159Q663 -148 655 -144Q647 -140 640 -137Q626 -126 612 -115Q583 -96 553 -78Q513 -49 471 -15Q450 -2 437 17Q427 27 423 43Q423 47 424 50Q399 74 360 75Q348 69 337 66Q334 66 332 67Q323 56 299 42Q283 33 276 27Q267 18 259 6Q251 -5 235 -6H234Q235 -8 235 -11Q232 -31 214 -34Q222 -42 227 -70Q232 -100 242 -108Q241 -111 241 -117Q242 -132 250 -142Q258 -151 267 -159Q274 -167 280 -175Q286 -183 295 -186Q293 -182 293 -178V-168Q307 -156 340 -156Q347 -156 351 -157Q374 -164 405 -181Q462 -205 553 -264Q675 -343 735 -391Q798 -440 809 -538Q810 -551 811 -560Q812 -570 818 -577Q822 -568 822 -555Q821 -533 819 -512Q819 -499 821 -493Q829 -498 829 -516V-532Q829 -553 840 -556Q843 -540 844 -502Q846 -457 850 -439Q854 -447 855 -471Q856 -501 864 -508Q867 -496 868 -471Q869 -444 874 -432Q876 -427 882 -421Q888 -414 889 -410Q890 -407 890 -402Q890 -383 864 -341Q814 -263 726 -200Q727 -212 740 -225Q750 -235 753 -243ZM264 -532H267Q267 -519 248 -517Q248 -532 264 -532ZM246 -291H243Q245 -303 254 -314Q263 -326 270 -338Q266 -344 257 -349Q247 -355 245 -357Q240 -357 236 -350Q232 -344 227 -344H225Q225 -352 234 -363Q229 -378 201 -378H194Q191 -387 184 -391Q180 -390 176 -390H171Q173 -396 173 -398Q170 -410 162 -423V-425Q164 -430 168 -436Q168 -439 164 -441Q160 -443 160 -447Q170 -449 184 -459Q202 -472 212 -472Q220 -472 227 -468Q216 -463 205 -460Q193 -457 190 -445Q196 -440 206 -440Q229 -443 252 -447Q261 -446 270 -446Q283 -446 292 -451Q287 -464 270 -465Q254 -467 239 -468Q243 -477 269 -477Q290 -477 296 -483Q304 -477 316 -477Q331 -477 332 -492H333Q337 -492 337 -486V-479Q361 -472 390 -469Q395 -471 401 -480Q408 -490 414 -492V-490Q414 -481 409 -471Q414 -457 430 -457Q436 -449 440 -439Q445 -430 453 -424Q453 -421 452 -419Q455 -406 461 -394Q455 -385 452 -374Q452 -370 455 -366Q444 -356 441 -338Q419 -336 399 -319Q395 -318 391 -318Q365 -322 338 -327Q334 -327 328 -325Q322 -323 318 -316Q314 -309 310 -306Q306 -309 306 -313Q309 -321 311 -330Q307 -336 299 -336Q281 -336 260 -309Q257 -304 254 -298Q251 -292 246 -291Z"/>
</svg>