<svg xmlns="http://www.w3.org/2000/svg" viewBox="0 -800 1024 1024">
	<path fill="#000000" d="M718 -217Q722 -221 725 -221Q730 -221 735 -216Q728 -193 724 -190Q720 -197 718 -217ZM299 -598V-607Q302 -608 308 -608Q324 -608 327 -597Q320 -592 313 -592Q305 -592 299 -598ZM768 -3V0Q769 6 770 12Q744 32 738 38Q718 39 698 39H688Q691 34 705 32Q718 30 721 24Q717 13 699 9Q684 7 652 7H607Q567 7 543 2Q539 9 539 13Q539 21 553 24Q561 26 586 26Q635 27 641 42Q634 43 627 43Q578 40 531 28Q495 25 473 -4Q454 -22 450 -52Q442 -60 442 -83Q442 -101 446 -121Q437 -120 432 -113Q427 -105 422 -98Q410 -85 398 -72Q390 -61 377 -34Q363 -4 352 8Q348 21 343 33Q339 45 328 48H324Q318 48 310 44Q298 38 291 38H287Q274 23 255 11Q255 -7 247 -12Q246 -13 244 -13Q241 -13 238 -10Q233 -6 230 -6H229V-8Q229 -16 235 -20Q240 -23 244 -28Q237 -58 237 -67V-75Q247 -84 257 -95Q266 -105 281 -110Q273 -95 269 -77Q269 -67 278 -63Q297 -75 310 -94Q322 -114 336 -132Q355 -153 375 -176Q395 -199 408 -227H405Q377 -223 360 -193Q344 -168 324 -153Q339 -185 363 -212Q386 -239 407 -268Q391 -264 380 -252Q369 -240 358 -226Q340 -197 306 -193H304Q286 -194 273 -203Q260 -213 246 -222Q244 -229 241 -237Q208 -252 203 -292Q203 -297 205 -305Q214 -317 222 -330Q224 -336 226 -350Q228 -367 234 -375Q243 -385 255 -392Q268 -399 278 -406Q289 -415 298 -425Q306 -434 320 -438V-437Q320 -433 312 -419Q297 -394 297 -381V-378Q300 -359 320 -356H321Q340 -360 361 -371Q403 -382 441 -400Q466 -414 467 -426Q445 -425 405 -408Q367 -392 343 -390Q366 -409 415 -425Q476 -444 491 -452Q485 -456 438 -466Q431 -476 422 -485Q413 -495 399 -496Q391 -496 386 -494V-495Q390 -499 393 -512Q393 -513 391 -519Q387 -528 377 -528Q358 -523 339 -519H337Q340 -532 359 -539Q376 -545 380 -554Q375 -581 364 -588Q357 -592 348 -593Q339 -595 337 -606Q353 -604 358 -604Q365 -604 379 -606Q379 -609 375 -611Q370 -613 370 -616V-618Q373 -621 376 -621Q383 -619 389 -617Q409 -626 428 -635V-664H430Q438 -663 439 -656Q441 -649 444 -644Q452 -635 464 -635Q479 -636 493 -638Q495 -638 495 -640Q495 -642 494 -644Q494 -647 496 -647Q503 -643 503 -636Q509 -629 525 -623Q538 -618 543 -615Q556 -606 567 -575Q576 -550 586 -540Q583 -535 583 -520V-495Q589 -492 594 -492Q603 -493 609 -499Q615 -505 622 -509Q619 -500 616 -492Q618 -486 626 -478Q634 -471 636 -466Q653 -467 671 -483Q685 -495 693 -498Q691 -490 683 -481Q672 -468 672 -456H673Q674 -456 676 -460Q679 -466 682 -466H684Q682 -454 682 -448Q685 -416 696 -391Q689 -373 681 -331Q640 -324 613 -304Q586 -284 558 -264Q561 -253 561 -244Q559 -224 557 -204Q557 -198 558 -195Q547 -172 540 -110Q555 -109 570 -109Q646 -109 673 -127Q676 -148 685 -164Q688 -160 688 -147Q688 -133 693 -130Q697 -142 698 -177Q699 -220 708 -234Q712 -221 712 -188V-182Q712 -148 718 -132Q723 -136 723 -146Q722 -159 720 -173Q720 -176 722 -182Q730 -174 733 -161Q735 -148 738 -136Q741 -118 761 -116H762Q766 -92 779 -75Q775 -67 770 -60Q774 -46 785 -41Q780 -32 777 -22Q777 -19 779 -15Q778 -11 773 -8Q769 -5 768 -3Z"/>
</svg>