<svg xmlns="http://www.w3.org/2000/svg" viewBox="0 -800 1024 1024">
	<path fill="#000000" d="M818 -606H814Q804 -606 790 -615Q777 -623 766 -624Q762 -649 742 -651Q738 -651 732 -648Q738 -661 738 -675Q738 -702 721 -714Q728 -727 728 -742Q727 -759 726 -777V-783Q733 -782 734 -775Q736 -769 742 -767H743Q748 -767 748 -773V-776Q750 -775 755 -775Q766 -776 776 -778Q781 -778 783 -776Q783 -770 773 -768Q765 -766 764 -762Q765 -755 774 -755Q781 -755 787 -756H789Q801 -756 822 -747Q825 -748 827 -750V-752Q827 -758 820 -763Q812 -768 812 -775V-776Q831 -762 855 -762Q862 -762 874 -764Q855 -753 855 -734Q855 -731 857 -723H868Q866 -715 866 -710Q866 -686 883 -678Q881 -658 878 -648Q864 -634 862 -629Q867 -616 869 -603Q866 -604 860 -610Q854 -616 848 -618Q834 -617 834 -600Q835 -588 836 -576Q828 -579 824 -592Q820 -603 818 -606ZM881 -593V-584Q881 -581 880 -581Q872 -584 872 -597Q877 -595 881 -593ZM707 -676V-673Q715 -660 719 -643Q722 -626 727 -611Q722 -590 704 -578Q687 -566 664 -566Q647 -566 633 -573Q629 -572 629 -568Q628 -563 627 -560Q621 -560 621 -565Q621 -571 627 -575Q622 -594 610 -594Q591 -589 568 -575Q571 -582 586 -593Q598 -603 603 -612Q595 -644 582 -653Q596 -675 596 -704Q596 -710 594 -722Q600 -722 604 -715Q607 -709 610 -708L612 -710Q610 -714 608 -718Q609 -719 609 -720Q620 -720 624 -717Q637 -722 650 -728Q664 -720 679 -714Q693 -708 698 -692H701Q706 -692 710 -693Q713 -693 714 -692Q710 -685 707 -676ZM803 -22V-17Q771 14 691 14Q677 14 655 12Q657 3 682 0Q706 -3 711 -9Q703 -21 679 -21Q647 -18 615 -15H542Q516 -17 489 -20Q476 -20 467 -15Q476 0 526 1Q576 2 588 16Q580 17 562 17Q540 17 480 13Q436 11 376 -18Q350 -39 323 -57Q322 -76 307 -84Q299 -109 291 -135Q282 -182 282 -201V-207Q270 -206 236 -185Q201 -164 197 -159Q192 -152 188 -144Q184 -135 175 -132Q174 -134 174 -137Q174 -144 181 -152Q187 -159 188 -162Q185 -166 181 -166Q177 -166 168 -160Q158 -153 153 -153H152Q138 -157 124 -162Q119 -162 114 -156Q118 -143 130 -139Q141 -135 151 -131Q149 -126 140 -126Q112 -131 98 -150Q96 -163 88 -179Q69 -201 64 -224Q62 -236 62 -245Q62 -257 65 -269Q74 -284 82 -299Q84 -320 88 -339Q95 -351 106 -360Q118 -369 128 -378Q139 -389 148 -400Q158 -410 170 -416Q167 -407 154 -393Q137 -375 137 -363Q137 -359 138 -356Q143 -358 150 -366Q157 -375 161 -375H162Q164 -374 164 -372Q164 -371 161 -369Q157 -368 157 -364V-362Q161 -355 168 -355Q188 -359 209 -369Q252 -380 295 -393Q293 -403 293 -408Q293 -415 297 -431Q288 -440 282 -453Q277 -465 270 -477V-479Q270 -515 302 -561Q328 -598 333 -621Q335 -623 344 -623Q346 -629 348 -636Q357 -642 367 -642Q380 -642 406 -629Q433 -619 447 -591Q454 -582 461 -573Q463 -562 465 -551Q471 -537 476 -524Q477 -520 477 -513Q475 -489 470 -465Q514 -477 557 -489Q560 -489 563 -493Q565 -496 568 -497Q570 -496 574 -496Q579 -496 584 -497Q588 -497 589 -494Q576 -484 556 -482Q541 -475 526 -468Q508 -463 491 -458Q475 -453 470 -437Q496 -439 566 -462Q591 -470 616 -478Q641 -487 661 -501Q656 -505 649 -505Q635 -501 620 -498Q617 -498 615 -500Q621 -514 637 -517Q654 -520 667 -527H669Q672 -526 675 -525Q725 -559 759 -559Q783 -559 797 -541Q803 -544 805 -544Q806 -544 807 -543Q807 -526 812 -524Q818 -525 824 -535Q830 -545 836 -546Q836 -540 830 -531Q825 -523 825 -517Q825 -515 827 -509H828Q829 -509 832 -513Q835 -518 839 -518H842Q840 -510 840 -504Q840 -491 847 -485Q850 -485 850 -487Q850 -491 855 -492H856V-486Q856 -455 869 -434Q868 -425 867 -417Q867 -414 869 -410Q859 -394 848 -378Q823 -372 806 -362Q799 -358 788 -345Q772 -327 760 -326Q761 -334 770 -344Q779 -354 779 -364V-366Q753 -357 734 -338Q715 -319 698 -299Q668 -267 667 -239Q688 -246 702 -268Q715 -289 738 -300V-299Q738 -295 723 -275Q708 -257 690 -237Q673 -217 668 -188Q661 -188 647 -179Q640 -179 629 -188Q621 -195 614 -195Q610 -195 604 -192Q589 -209 577 -209Q567 -209 556 -200Q556 -202 555 -205Q555 -212 564 -222Q570 -229 572 -234H568Q555 -234 538 -217Q522 -201 510 -201H509Q513 -216 534 -233Q549 -245 554 -254Q535 -246 507 -221Q476 -193 465 -186Q469 -208 485 -222Q501 -235 515 -249Q521 -258 526 -267Q537 -276 547 -285Q554 -293 568 -313Q586 -339 598 -350Q541 -337 452 -297Q426 -285 418 -280Q401 -269 394 -254V-250Q394 -244 389 -233Q385 -224 384 -215Q384 -205 383 -195Q383 -151 400 -135Q445 -117 503 -117H520Q559 -117 581 -119Q599 -123 616 -127Q639 -128 662 -129Q680 -135 696 -138Q701 -138 704 -137Q725 -143 739 -156Q745 -210 745 -212V-218Q749 -213 750 -192Q751 -167 760 -162V-166Q760 -172 759 -178Q759 -184 763 -185Q768 -182 768 -166Q768 -158 769 -155Q773 -138 792 -132Q795 -88 812 -57Q803 -39 803 -22ZM509 -195V-193Q508 -184 496 -182Q496 -195 505 -195ZM621 13V15Q609 17 597 18Q595 14 595 12Q595 4 608 4Q621 4 621 13Z"/>
</svg>