<svg xmlns="http://www.w3.org/2000/svg" viewBox="0 -800 1024 1024">
	<path fill="#000000" d="M459 -482Q462 -494 472 -496Q478 -496 480 -491Q475 -484 469 -478Q460 -478 459 -482ZM755 -120V-118Q750 -119 750 -128Q750 -135 752 -143H756Q758 -141 758 -137Q757 -128 755 -120ZM751 -106H753Q755 -62 770 -46Q770 -35 769 -24Q769 -8 773 5Q767 13 767 21Q768 32 769 43Q769 49 768 52Q767 56 760 62Q754 67 752 71Q742 94 733 116Q728 118 711 120Q692 122 685 127Q671 110 647 100Q640 72 620 56Q600 41 586 19Q602 25 613 35Q624 46 635 55Q639 51 639 45Q636 30 625 19Q612 5 598 -10Q577 -37 526 -79Q505 -100 483 -121Q472 -130 462 -130Q456 -130 452 -126Q453 -117 461 -113Q468 -109 475 -104Q508 -73 537 -37Q536 -37 535 -36Q531 -36 514 -50Q457 -102 435 -120Q387 -158 343 -178Q330 -177 316 -175Q302 -174 293 -164Q269 -170 255 -188Q244 -203 237 -232Q236 -235 232 -238Q228 -241 226 -244Q230 -248 230 -260Q230 -267 228 -277V-279Q230 -281 232 -284V-288Q233 -303 241 -314Q249 -326 255 -340Q284 -343 311 -359Q325 -367 358 -394Q374 -406 389 -419Q397 -427 405 -436Q412 -445 423 -446Q426 -445 428 -445V-444Q427 -436 420 -431Q412 -427 405 -422Q395 -410 384 -399Q371 -392 367 -380Q367 -377 370 -373Q406 -392 439 -422Q472 -451 505 -481Q544 -512 546 -520V-524Q546 -531 545 -535Q542 -536 537 -536Q524 -536 508 -519Q497 -507 490 -504Q494 -525 508 -534Q524 -543 526 -563V-565Q526 -571 521 -579Q516 -587 515 -594V-598Q517 -614 519 -630Q519 -639 517 -643Q518 -645 521 -645Q524 -644 527 -643Q533 -653 533 -665Q532 -686 520 -708Q507 -730 500 -751Q499 -762 497 -774Q509 -764 524 -736Q537 -712 546 -703Q544 -712 536 -730Q528 -748 526 -762Q536 -758 545 -739Q554 -719 563 -715Q563 -723 558 -730Q552 -739 552 -745Q554 -745 556 -746Q563 -746 570 -732Q578 -738 586 -745Q603 -739 619 -733Q622 -725 630 -723Q638 -721 647 -717Q652 -714 661 -703Q670 -691 679 -688V-683Q679 -663 700 -635Q715 -615 718 -601Q721 -589 724 -577Q731 -560 732 -556V-554Q732 -542 724 -523Q716 -503 715 -493Q687 -473 632 -447Q590 -427 555 -398Q519 -369 483 -341Q440 -309 414 -281Q430 -266 449 -256Q468 -246 487 -235Q518 -210 560 -190Q562 -185 566 -184H569Q597 -155 634 -133Q671 -112 708 -92Q712 -93 714 -100Q716 -97 718 -92Q719 -88 724 -88Q728 -98 733 -124Q737 -149 742 -160Q744 -150 744 -144Q743 -127 742 -110Q742 -101 743 -97Q746 -97 747 -102Q748 -106 751 -106Z"/>
</svg>