<svg xmlns="http://www.w3.org/2000/svg" viewBox="0 -800 1024 1024">
	<path fill="#000000" d="M799 -617H795Q786 -614 777 -612H774V-614Q774 -629 799 -629L800 -627Q800 -623 799 -620ZM491 -307H495Q512 -349 528 -392Q526 -396 519 -402Q509 -410 508 -418Q465 -413 423 -393Q429 -378 441 -366Q446 -367 452 -373Q459 -379 470 -380H473Q459 -368 459 -347Q461 -331 472 -327Q457 -321 457 -301Q485 -306 491 -307ZM621 -232Q626 -229 597 -225Q532 -214 536 -207Q486 -205 468 -191Q470 -178 468 -169Q449 -154 425 -115Q405 -84 390 -70V-68Q392 -64 393 -60Q334 18 295 147H292Q288 147 280 151Q280 153 279 155Q279 156 279 158Q279 160 279 163V169Q278 169 276 169Q275 169 274 168Q271 165 268 161Q267 160 266 160Q256 164 246 167Q244 168 241 169Q231 171 227 171Q225 172 220 172Q216 172 211 172Q208 172 204 171Q202 171 200 171Q197 170 193 169Q185 160 176 151Q174 148 168 144Q159 137 146 137Q143 109 154 89Q153 84 173 52Q192 20 192 16Q200 4 200 -12Q200 -29 202 -44Q213 -42 213 -31Q212 -20 211 -10Q213 0 218 2Q232 -9 255 -37Q279 -65 296 -79Q296 -64 273 -37Q248 -9 249 8Q250 14 251 19Q293 -26 309 -48Q337 -86 348 -125Q341 -124 334 -117Q328 -110 322 -110H318Q325 -135 334 -151L325 -150Q301 -149 259 -124Q219 -100 198 -99H194Q178 -100 162 -117Q151 -129 142 -133Q126 -135 110 -138Q104 -144 104 -149Q103 -156 116 -170Q125 -180 126 -185V-187Q125 -193 120 -203Q115 -211 115 -216Q116 -227 128 -237Q140 -247 149 -256Q156 -265 164 -277Q173 -288 194 -290H195Q193 -286 187 -280Q176 -271 177 -263V-261H180Q186 -261 190 -266Q194 -272 200 -272H203V-270Q202 -263 200 -257L201 -254Q219 -252 228 -253Q247 -254 295 -263Q333 -270 359 -272Q341 -291 298 -298V-302Q298 -311 292 -316Q286 -321 281 -327Q292 -329 297 -334Q301 -339 307 -345Q293 -349 279 -354Q265 -358 262 -372Q245 -377 232 -388Q218 -400 217 -413Q217 -423 225 -436Q215 -456 210 -475Q211 -478 211 -482Q212 -488 224 -500Q238 -513 237 -522V-523Q239 -524 242 -524Q251 -522 255 -514Q266 -518 269 -519Q275 -519 279 -516Q349 -527 407 -545Q407 -557 407 -569Q404 -635 351 -661Q352 -664 361 -673Q360 -677 351 -681Q340 -686 339 -692Q345 -700 355 -702Q365 -705 375 -708Q400 -720 417 -735Q434 -750 465 -753Q471 -752 477 -752Q513 -747 546 -738Q561 -727 573 -712Q584 -697 607 -691Q605 -688 605 -679Q605 -667 610 -660Q600 -652 592 -643Q584 -634 570 -628V-631Q570 -643 577 -650Q584 -657 591 -665Q578 -689 571 -697Q557 -713 535 -716Q529 -710 530 -704Q535 -689 540 -672V-670Q540 -662 535 -639Q530 -620 531 -610Q533 -592 546 -586Q552 -587 554 -590Q556 -593 557 -597Q556 -606 570 -608H571L573 -605Q571 -598 569 -591Q569 -587 572 -585Q591 -589 616 -599Q651 -613 672 -616L673 -613Q673 -611 669 -608Q665 -605 665 -602V-600Q667 -589 684 -589Q694 -589 720 -598Q749 -607 761 -608H766Q751 -599 736 -591Q720 -583 711 -571L714 -570Q722 -574 735 -578Q737 -578 741 -576Q736 -571 728 -562Q720 -554 720 -545Q720 -536 739 -536Q737 -527 734 -519Q736 -513 741 -513Q731 -505 728 -492Q728 -490 732 -484Q704 -468 657 -461Q672 -452 686 -453Q693 -453 697 -454Q697 -450 696 -447Q697 -430 723 -415Q707 -410 705 -391Q667 -381 643 -348Q706 -363 757 -376Q807 -389 874 -395Q872 -391 870 -387V-386Q875 -381 886 -380Q897 -379 907 -379Q904 -374 894 -368Q882 -360 880 -355V-353L883 -352H889Q870 -336 871 -316Q872 -294 851 -279Q821 -265 769 -260H753Q762 -269 792 -274Q821 -279 828 -291Q825 -296 807 -296Q795 -296 788 -294Q604 -276 561 -238L567 -239Q582 -240 638 -249Q660 -255 685 -258Q699 -260 707 -252Q675 -244 621 -232Z"/>
</svg>