<svg xmlns="http://www.w3.org/2000/svg" viewBox="0 -800 1024 1024">
	<path fill="#000000" d="M56 -416V-426H63Q64 -420 64 -414Q64 -409 61 -405Q56 -406 56 -416ZM896 -234H905Q905 -226 896 -213Q892 -214 892 -218Q894 -226 896 -234ZM677 -404Q675 -390 670 -379Q664 -380 664 -389Q664 -395 667 -400Q670 -405 674 -405ZM557 -593V-587Q555 -572 553 -558Q545 -568 545 -578Q545 -584 548 -593ZM616 -338H611Q599 -338 586 -348Q572 -359 563 -361Q565 -364 565 -371V-382Q560 -390 549 -390H545V-393Q545 -407 540 -428Q534 -454 534 -464Q534 -473 535 -477Q537 -489 539 -502Q539 -508 536 -514H537Q544 -511 550 -507Q558 -510 558 -525Q558 -536 557 -548V-554Q561 -551 564 -538Q567 -524 575 -522Q581 -523 582 -536Q583 -550 590 -551V-534Q590 -520 598 -519Q607 -524 615 -539Q623 -553 628 -557L629 -553Q629 -547 624 -536Q618 -523 618 -518Q618 -511 625 -505Q636 -512 646 -519V-517Q645 -512 639 -504Q632 -495 631 -482V-476Q634 -470 637 -465Q641 -465 643 -469Q646 -473 649 -473Q648 -462 642 -453Q650 -417 650 -395Q650 -362 633 -345Q623 -338 616 -338ZM951 -90H959Q954 -81 954 -68Q954 -46 965 -30Q960 -26 960 -15Q960 -3 963 4Q947 46 917 57Q916 59 916 65Q916 71 914 73Q905 68 902 55Q865 48 838 25Q808 -2 802 -42Q811 -38 820 -18Q832 9 846 12Q850 8 850 1Q850 -17 831 -50Q811 -88 790 -126Q778 -149 759 -150Q760 -134 770 -115Q779 -97 781 -88H777Q768 -88 765 -96Q762 -104 759 -114Q753 -129 730 -161Q712 -186 705 -201Q672 -142 652 -86Q638 -45 634 -21Q632 -3 629 13Q626 30 615 42Q606 39 592 39H565Q558 33 553 24Q548 15 536 13Q532 -24 512 -46Q522 -53 522 -62Q521 -74 511 -85Q501 -96 495 -105Q498 -105 500 -106Q506 -106 516 -96Q526 -86 534 -86H535Q546 -88 556 -120Q565 -149 572 -152Q583 -187 599 -218Q616 -258 633 -298Q635 -304 636 -310Q638 -316 645 -316H646Q645 -306 635 -285Q625 -263 625 -250Q625 -246 627 -238Q646 -250 663 -300Q692 -373 714 -450Q730 -500 730 -519Q730 -523 729 -528Q710 -524 701 -483Q694 -452 685 -447Q696 -511 713 -576Q719 -602 719 -617Q719 -651 689 -651Q685 -651 671 -649V-651Q672 -656 678 -660Q685 -665 691 -669Q699 -676 712 -692Q732 -717 744 -725Q748 -729 767 -733Q781 -736 790 -741Q799 -747 806 -753Q813 -759 826 -759H830Q849 -738 870 -718H872Q879 -719 886 -721L889 -720Q889 -715 883 -711Q878 -707 878 -702V-699Q884 -675 899 -659Q892 -650 892 -626Q893 -611 893 -596Q893 -581 890 -571Q871 -565 855 -543Q847 -532 830 -501Q811 -464 797 -432Q770 -367 748 -309Q772 -293 807 -246Q844 -197 870 -181Q876 -184 878 -189Q881 -194 884 -197Q887 -189 889 -180Q891 -170 898 -166Q907 -171 918 -186Q930 -203 939 -207Q933 -193 926 -179Q920 -165 919 -151Q919 -139 926 -128Q934 -128 942 -133Q950 -138 954 -138Q954 -136 950 -127Q943 -112 943 -104Q943 -96 948 -91ZM449 -43V-42Q442 -34 438 -25Q427 -22 420 -15Q371 -29 359 -83Q347 -123 347 -144Q347 -156 348 -162Q350 -183 375 -212Q392 -232 395 -243Q393 -232 390 -221Q390 -212 402 -209Q416 -216 427 -226V-275Q427 -317 423 -348Q420 -366 410 -388Q398 -416 387 -417H386Q378 -413 369 -410H368Q369 -415 378 -423Q383 -428 386 -433Q385 -436 381 -437Q377 -438 377 -440V-441Q382 -446 387 -464Q391 -476 395 -483Q371 -478 354 -462Q305 -428 264 -367Q268 -363 277 -363Q283 -363 285 -364Q318 -356 333 -322Q342 -301 350 -249Q344 -239 342 -209Q340 -181 335 -171Q330 -177 329 -200Q328 -220 324 -228Q304 -199 304 -118V-103Q305 -87 309 -72Q314 -50 320 -50Q324 -50 327 -62Q328 -65 328 -71Q327 -86 326 -102Q326 -115 334 -117Q340 -108 340 -78Q340 -23 332 -5Q323 11 308 21Q293 30 282 41V44Q281 51 280 58Q274 55 273 46Q273 37 271 30Q268 25 262 24Q255 23 250 21Q241 -9 214 -36Q213 -54 209 -63Q204 -74 190 -75Q196 -80 206 -83Q229 -155 229 -242Q229 -271 226 -303Q193 -262 168 -213Q146 -176 143 -166Q139 -152 138 -137Q136 -122 128 -108Q98 -110 85 -119Q77 -125 71 -143Q64 -163 53 -168V-185Q53 -197 51 -201L47 -202Q43 -201 39 -201H38Q41 -210 41 -220Q37 -247 32 -275V-279Q33 -286 40 -299Q47 -310 47 -316Q48 -321 48 -330Q45 -364 41 -398V-414Q41 -442 42 -456Q47 -426 49 -395Q51 -364 61 -339Q62 -340 62 -344Q59 -361 56 -379Q56 -389 63 -393Q66 -380 69 -367Q72 -354 82 -348Q98 -365 127 -409Q162 -463 187 -483V-479Q186 -464 176 -452Q166 -441 158 -430Q135 -396 134 -370Q145 -378 171 -413Q198 -446 227 -481Q255 -517 271 -562Q263 -564 261 -564Q249 -564 236 -544Q225 -527 217 -524Q215 -526 215 -529Q215 -533 227 -548Q229 -560 239 -575Q247 -587 250 -594Q256 -613 261 -633Q274 -653 291 -663Q313 -675 332 -675Q354 -675 360 -657Q364 -658 368 -660Q380 -644 392 -631Q405 -618 409 -596V-592Q408 -578 406 -564Q409 -551 412 -539Q410 -529 407 -520Q407 -518 409 -514Q441 -532 458 -532Q477 -532 489 -514Q507 -480 515 -442Q518 -428 518 -414Q518 -394 509 -348Q501 -307 501 -284V-273Q519 -286 541 -297Q556 -305 570 -314Q584 -323 605 -327Q601 -321 589 -314Q573 -305 571 -294Q578 -297 585 -301Q587 -301 590 -298Q586 -288 575 -280Q564 -271 563 -254V-249Q568 -253 580 -257L581 -255Q581 -253 575 -248Q567 -242 565 -235Q564 -232 564 -225Q565 -214 565 -204H566Q572 -206 577 -209Q580 -209 581 -207Q578 -200 572 -197Q565 -193 559 -189V-175Q546 -171 526 -149Q508 -129 495 -126Q499 -141 519 -158Q540 -175 545 -188Q529 -187 509 -174Q497 -166 477 -149Q443 -123 439 -100Q439 -95 438 -90Q438 -75 445 -71Q447 -71 450 -76Q453 -81 458 -81H460Q462 -77 462 -75Q462 -71 457 -63Q449 -51 449 -43Z"/>
</svg>