<svg xmlns="http://www.w3.org/2000/svg" viewBox="0 -800 1024 1024">
	<path fill="#000000" d="M588 -433Q586 -425 586 -421Q586 -413 591 -403Q571 -391 567 -341Q562 -281 555 -268Q550 -278 549 -306Q548 -328 546 -336Q531 -332 530 -314Q529 -295 528 -277V-268Q529 -254 529 -240Q529 -227 528 -221Q527 -206 527 -177Q527 -112 546 -85Q559 -86 559 -110V-114Q556 -158 552 -202Q552 -216 555 -227Q563 -226 563 -213Q563 -204 562 -196L573 -101Q575 -97 586 -95Q584 -85 579 -83Q577 -72 576 -55Q575 -30 570 -20Q565 -21 561 -29Q558 -35 556 -37H555Q538 -37 538 -17Q540 0 541 17Q546 21 552 23Q554 21 559 11Q563 3 570 2Q574 10 574 18Q572 34 570 50L538 71Q521 64 505 59Q488 54 482 38Q464 36 450 19Q444 11 429 -16Q430 -22 430 -34Q429 -64 427 -95Q427 -132 445 -149Q442 -161 442 -162Q442 -167 445 -170Q444 -175 439 -181Q433 -187 432 -192Q446 -194 450 -199V-205Q452 -256 454 -307Q454 -382 426 -412H416Q410 -412 408 -415V-417Q408 -424 429 -444Q446 -460 462 -471Q510 -470 545 -456Q561 -450 588 -433ZM185 -743H187Q196 -743 200 -728Q188 -729 185 -743ZM544 -479Q539 -497 509 -500Q516 -508 528 -517Q545 -530 550 -536Q563 -559 595 -601Q637 -656 652 -689Q646 -701 639 -713H632Q616 -711 599 -710H595Q618 -722 640 -731Q656 -759 707 -776Q713 -782 718 -788Q758 -800 775 -800Q781 -799 786 -799Q806 -793 825 -779Q838 -766 839 -745Q848 -724 857 -704Q860 -695 863 -687Q859 -656 842 -638Q837 -633 806 -618Q776 -601 768 -599Q770 -611 782 -620Q787 -624 806 -633Q838 -649 838 -670Q838 -675 834 -689Q831 -690 825 -690Q812 -690 802 -669Q794 -653 787 -648Q768 -641 750 -629Q716 -597 706 -586Q682 -558 674 -530Q686 -532 701 -550Q715 -567 725 -567Q729 -567 731 -566Q711 -539 666 -494Q617 -440 544 -479ZM338 -491Q329 -500 318 -506Q306 -513 302 -528L300 -529L296 -528H295Q287 -538 275 -548Q260 -561 249 -562H244Q234 -562 217 -551Q204 -542 196 -542Q197 -548 203 -551Q208 -554 212 -557Q227 -567 233 -568V-571Q230 -604 201 -604Q194 -604 191 -603V-604Q192 -613 202 -612Q211 -612 217 -615Q217 -620 220 -625Q208 -635 169 -641Q131 -647 119 -656Q124 -657 134 -657Q172 -653 209 -650Q220 -650 225 -651Q225 -656 220 -659Q214 -663 214 -667V-668Q218 -664 223 -664Q231 -664 243 -674Q241 -686 227 -699Q212 -712 209 -723Q221 -715 233 -707Q244 -698 259 -695Q262 -696 262 -701Q262 -706 261 -711V-713Q270 -708 279 -704Q286 -707 288 -717Q297 -712 307 -712Q316 -712 325 -713Q332 -713 338 -710Q346 -719 362 -719Q377 -719 391 -712Q402 -697 418 -686Q421 -680 424 -675Q458 -645 458 -614V-612Q454 -593 450 -575L447 -505Q397 -452 338 -491Z"/>
</svg>