<svg xmlns="http://www.w3.org/2000/svg" viewBox="0 -800 1024 1024">
	<path fill="#000000" d="M933 -93Q932 -95 932 -98Q932 -107 942 -107Q945 -107 949 -105Q950 -104 950 -99Q950 -92 947 -88Q937 -93 933 -93ZM158 12V14Q157 26 143 28Q140 28 138 27V24Q138 11 151 11Q156 11 158 12ZM887 -247Q892 -268 911 -269Q911 -260 906 -252Q901 -244 895 -244Q892 -244 887 -247ZM842 27L822 46Q816 46 820 39Q828 25 823 24H820Q814 24 803 33Q791 27 778 24Q776 25 773 25Q757 14 757 3Q757 -1 758 -3Q761 -2 772 5Q782 12 788 12Q795 12 799 3Q789 -22 754 -61Q724 -95 713 -117Q712 -114 710 -114Q707 -117 702 -121H701V-114Q702 -89 714 -66Q726 -43 735 -21Q720 -24 713 -39Q710 -45 702 -72Q699 -81 685 -103Q675 -118 670 -130Q659 -163 648 -196V-197Q648 -199 652 -201Q655 -202 655 -205Q653 -210 645 -216Q638 -221 636 -225H643Q667 -225 723 -204Q729 -206 735 -208Q738 -199 747 -196Q756 -194 765 -192Q785 -208 794 -210V-208Q794 -205 791 -202Q785 -195 785 -190V-187L787 -186Q791 -189 795 -193L797 -192L800 -191Q799 -187 797 -184V-182Q811 -188 838 -211Q866 -235 883 -242V-240Q881 -233 871 -226Q847 -204 842 -198Q823 -176 823 -157V-151Q826 -135 842 -135Q850 -135 886 -150Q879 -139 870 -132Q860 -124 859 -111V-108Q859 -92 882 -92Q899 -92 916 -93H926Q921 -88 905 -82Q889 -76 883 -69Q880 -61 880 -48V-37Q880 -29 879 -24Q877 -14 863 -6Q851 1 848 6Q845 10 845 16Q845 24 842 27ZM573 -381Q621 -395 640 -403Q655 -400 671 -391Q674 -396 674 -408Q674 -412 675 -415Q675 -417 677 -417Q679 -416 690 -402Q689 -410 680 -421Q672 -432 669 -438Q664 -446 664 -453Q667 -457 672 -454Q691 -425 709 -396Q712 -403 710 -409Q703 -427 696 -446Q695 -453 696 -459Q704 -448 715 -418Q724 -392 732 -384Q739 -376 728 -369Q715 -361 724 -352Q725 -347 725 -342Q727 -336 743 -332Q758 -328 759 -324Q760 -317 758 -306Q756 -293 758 -283Q759 -279 760 -275Q741 -265 722 -255Q719 -253 715 -252Q708 -252 700 -255Q695 -257 662 -257Q610 -255 577 -245Q587 -254 617 -262Q644 -269 662 -270Q666 -270 678 -272Q695 -275 702 -285Q689 -294 666 -292Q641 -291 569 -275Q569 -213 566 -191Q559 -199 557 -233Q556 -245 556 -272Q551 -270 545 -269Q544 -193 550 -110Q556 -20 565 -9Q571 -14 571 -24Q570 -36 568 -48Q568 -55 571 -60Q577 -54 584 -24Q594 14 594 32Q596 41 594 52Q586 65 561 86Q530 112 524 125Q488 122 478 122Q467 107 451 100Q443 69 394 48Q384 45 373 42Q361 39 355 29L361 28Q372 28 391 33Q411 38 419 38H421Q418 28 405 26Q392 25 381 23L346 15Q336 29 331 30Q303 37 297 37H295Q287 37 271 28Q252 17 240 17Q233 17 230 18V11Q230 -12 214 -20Q192 -16 183 -10Q175 0 166 3H164L163 0Q163 -6 176 -17Q191 -29 192 -39Q190 -44 184 -44Q177 -43 170 -42V-44Q171 -55 177 -60L165 -70H159Q127 -70 97 -58Q87 -51 74 -48L70 -49Q88 -63 123 -83Q136 -91 151 -101Q168 -111 170 -126V-129Q170 -137 158 -143Q147 -148 144 -153Q147 -155 153 -155Q166 -152 179 -150H180Q192 -151 207 -169Q219 -183 227 -186Q237 -172 252 -169Q267 -167 281 -161Q287 -158 296 -145Q304 -133 310 -129Q316 -125 329 -123Q339 -122 346 -118Q356 -73 356 -37Q356 -17 353 4Q403 15 417 14Q413 8 392 3Q376 -1 373 -6Q375 -9 380 -9Q395 -6 410 -4L413 -5Q425 -8 434 -14Q444 -68 442 -132Q439 -196 438 -230Q438 -238 438 -246Q353 -233 337 -223Q343 -217 358 -219Q367 -222 377 -224Q381 -225 387 -225L388 -223Q379 -215 359 -208H354Q329 -198 318 -191Q317 -190 283 -179H278Q268 -178 259 -184Q250 -190 240 -194Q232 -211 222 -219Q223 -222 218 -242Q217 -247 212 -253Q206 -261 204 -269V-270Q231 -294 234 -296Q242 -324 277 -429Q271 -426 265 -424Q239 -414 224 -400Q214 -390 201 -375Q187 -360 166 -359Q159 -359 148 -362Q145 -364 137 -371Q125 -382 116 -387Q95 -396 76 -406Q58 -416 57 -441Q57 -448 58 -452Q62 -458 65 -468V-472Q62 -488 59 -504Q59 -510 61 -514Q66 -527 96 -542Q134 -562 137 -564Q143 -570 148 -577Q165 -588 182 -599Q190 -605 197 -611Q205 -617 215 -617Q211 -612 187 -593Q169 -579 167 -565H169Q175 -568 179 -575Q179 -571 180 -563Q180 -556 184 -554Q212 -560 244 -570Q275 -579 307 -580H314Q303 -573 279 -567Q243 -559 236 -545V-543Q236 -540 239 -539Q241 -539 243 -537Q247 -538 319 -558Q332 -597 345 -636Q349 -647 331 -667Q315 -686 317 -696Q319 -704 318 -721Q316 -744 325 -756Q345 -770 362 -776Q415 -791 485 -774Q490 -772 498 -764Q508 -754 514 -753Q520 -757 526 -761Q526 -753 525 -746Q527 -737 535 -738Q533 -733 533 -724Q535 -716 536 -711Q532 -703 530 -695L531 -691Q510 -681 467 -592Q508 -602 549 -612Q570 -617 590 -622Q610 -627 626 -639Q616 -642 605 -642Q579 -642 542 -632Q514 -624 490 -622Q499 -633 558 -645Q616 -658 674 -671V-670Q674 -666 664 -663Q655 -660 652 -658Q643 -653 643 -645Q643 -641 645 -641Q648 -641 652 -644Q652 -641 657 -641Q661 -641 691 -647Q710 -652 729 -657Q728 -668 718 -669Q708 -671 697 -672Q700 -685 713 -687Q727 -690 738 -693Q761 -703 784 -714Q781 -705 777 -696Q777 -693 779 -691Q824 -696 867 -710Q850 -702 833 -694Q816 -686 806 -672Q808 -670 810 -670Q819 -672 827 -675Q829 -675 833 -673L834 -672Q834 -670 826 -665Q818 -660 817 -658V-657Q817 -654 826 -652Q826 -649 823 -647Q820 -645 820 -643V-642Q829 -631 829 -617Q829 -591 802 -552Q764 -550 724 -548Q684 -546 643 -536Q606 -530 581 -517Q577 -515 417 -480Q377 -387 359 -332Q387 -337 436 -348Q435 -373 423 -412Q424 -425 439 -443Q451 -458 465 -468Q533 -479 575 -463Q584 -451 584 -439Q582 -415 573 -381Z"/>
</svg>