<svg xmlns="http://www.w3.org/2000/svg" viewBox="0 -800 1024 1024">
	<path fill="#000000" d="M377 -71H374Q363 -71 356 -80Q356 -87 363 -89Q370 -83 377 -71ZM926 -658Q925 -660 925 -664Q925 -676 941 -676L942 -672Q942 -660 926 -658ZM461 -347V-383Q461 -396 460 -401Q451 -396 440 -393Q429 -391 422 -383H420Q408 -383 392 -373Q379 -365 369 -364Q352 -353 352 -338Q352 -329 359 -322Q374 -324 409 -335Q442 -345 461 -347ZM695 -455Q693 -463 693 -466Q704 -471 708 -481L707 -484Q623 -468 560 -437Q558 -429 558 -411Q558 -388 559 -378Q578 -381 601 -387Q625 -393 652 -394Q661 -403 674 -425Q687 -446 695 -455ZM890 -399V-397Q875 -393 864 -386V-388Q864 -402 886 -416Q904 -428 908 -438Q903 -450 890 -450Q862 -445 846 -425Q841 -428 836 -431Q814 -423 794 -401Q782 -388 762 -359Q749 -344 736 -327Q723 -310 722 -288V-286Q739 -297 769 -333Q793 -362 808 -374Q814 -372 816 -364Q821 -365 827 -371Q835 -379 840 -379Q842 -379 846 -377Q838 -361 814 -336Q796 -317 788 -305Q774 -299 760 -273Q747 -249 737 -243Q724 -238 711 -234V-235Q711 -249 699 -249Q691 -249 677 -242Q681 -246 681 -249Q681 -253 677 -254Q650 -264 643 -281H629Q595 -281 566 -275Q559 -268 559 -258Q561 -246 562 -234Q560 -219 557 -205Q555 -179 555 -165Q556 -151 556 -137Q557 -129 558 -122Q558 -116 553 -111Q546 -120 546 -145Q547 -159 547 -173Q547 -197 540 -206Q531 -205 531 -192V-177Q530 -160 530 -121Q530 -25 548 14Q557 13 559 -1Q561 -20 563 -23Q560 -40 556 -58Q556 -66 562 -70Q567 -51 572 -33Q574 -17 574 -9Q574 44 541 74Q529 84 516 90Q495 78 486 72Q469 60 463 46Q460 44 458 41Q456 37 452 37Q449 12 432 -2Q414 -15 403 -30H406Q414 -30 418 -26Q422 -22 427 -19Q423 -30 405 -44Q385 -60 381 -70Q404 -57 427 -42Q416 -61 386 -85Q374 -94 362 -103Q349 -112 342 -125Q349 -122 395 -91Q407 -83 420 -75Q434 -68 450 -67H452Q466 -112 466 -182Q466 -215 463 -247Q402 -236 375 -200Q369 -191 364 -179Q358 -168 348 -165H344Q336 -165 323 -174Q307 -185 296 -185H292Q289 -187 284 -192Q278 -199 272 -200V-203Q272 -227 245 -236Q250 -246 250 -251Q250 -258 241 -272Q232 -287 231 -298H233Q240 -298 248 -282Q258 -264 266 -262V-267Q266 -286 254 -314Q241 -344 227 -352Q199 -368 181 -368Q171 -368 168 -361Q172 -351 191 -343Q211 -334 214 -323Q205 -324 191 -331Q171 -341 157 -341H151Q132 -352 121 -372Q110 -392 100 -412Q104 -427 104 -441Q104 -476 77 -497Q71 -500 65 -503Q58 -507 57 -513L61 -514Q67 -514 82 -506Q99 -497 111 -497H113Q111 -504 99 -509Q87 -514 86 -523Q105 -518 124 -513Q131 -513 136 -517Q134 -522 123 -525Q115 -527 112 -530Q115 -535 121 -535Q128 -535 137 -529Q159 -534 180 -547Q198 -562 218 -569Q222 -570 229 -570Q258 -567 273 -542Q289 -515 309 -497Q310 -490 314 -483Q320 -473 320 -466Q347 -471 403 -491Q435 -502 460 -509Q459 -512 459 -518Q460 -532 461 -547Q461 -558 457 -563Q459 -568 461 -574V-576Q453 -647 421 -680Q420 -683 420 -689Q423 -705 425 -721Q425 -727 418 -737Q413 -745 412 -751Q420 -749 427 -748Q432 -749 434 -753Q436 -758 439 -761Q468 -770 499 -787Q505 -790 510 -794Q519 -797 528 -797Q565 -795 580 -763Q571 -763 562 -770Q553 -777 547 -777H545Q541 -773 541 -767Q541 -759 559 -739Q564 -731 572 -721Q579 -711 588 -710Q592 -710 596 -713V-716Q593 -726 590 -737Q590 -741 591 -743Q608 -735 614 -718Q621 -701 627 -683Q621 -677 619 -666V-662Q576 -636 574 -554Q581 -554 600 -561Q625 -570 640 -570Q645 -570 655 -568Q640 -559 611 -554Q570 -545 570 -529Q570 -526 572 -520Q614 -533 661 -546Q709 -559 748 -579Q744 -585 735 -585Q720 -582 704 -579Q710 -596 728 -599Q747 -602 766 -605Q778 -620 784 -625Q796 -635 812 -635Q816 -636 818 -640Q820 -644 821 -645Q839 -619 859 -619H861Q870 -619 887 -635Q903 -650 913 -650H917Q914 -642 900 -632Q882 -619 882 -604Q888 -604 900 -614Q908 -621 914 -623Q909 -609 905 -595Q905 -593 907 -587L910 -586Q915 -589 919 -593L922 -592Q915 -584 915 -573Q915 -557 928 -544Q932 -544 933 -547Q934 -552 940 -553H941V-547Q941 -535 940 -523V-517Q942 -510 951 -498Q962 -485 963 -478Q964 -475 964 -469Q962 -446 947 -421Q933 -417 914 -414Q892 -412 890 -399Z"/>
</svg>