<svg xmlns="http://www.w3.org/2000/svg" viewBox="0 -800 1024 1024">
	<path fill="#000000" d="M767 -767V-763Q767 -752 750 -749L749 -753Q750 -766 765 -767ZM329 -98H324Q306 -98 306 -111Q308 -113 313 -113Q319 -113 324 -109Q329 -105 329 -98ZM547 -383Q540 -388 531 -388Q506 -387 495 -369Q524 -373 547 -383ZM574 -470Q573 -472 572 -474Q543 -468 526 -461Q498 -449 495 -437Q499 -430 506 -430Q507 -430 528 -437Q564 -450 574 -470ZM611 -576H609Q600 -573 590 -571Q586 -571 584 -573L583 -572L584 -568L581 -566Q539 -562 470 -540Q434 -529 417 -522Q387 -510 371 -496H373Q382 -499 392 -506H404Q408 -506 411 -507Q434 -514 457 -521Q463 -520 469 -519Q471 -519 500 -528Q559 -548 594 -552Q595 -557 605 -566Q612 -572 612 -574ZM630 27V33Q626 58 609 75Q592 92 578 112Q569 112 564 116Q559 120 553 123Q510 107 488 82V80Q490 77 491 73Q479 60 458 50Q460 47 461 47Q466 48 471 49H472Q476 41 476 34Q474 18 458 11Q441 4 431 -5H435Q450 -2 464 1Q467 1 473 -1Q470 -11 461 -15Q451 -19 442 -22Q406 -43 366 -56Q392 -55 416 -47Q440 -38 464 -32Q443 -46 417 -56Q391 -65 366 -77Q344 -88 338 -98Q360 -92 408 -71Q458 -49 488 -44Q501 -56 507 -113Q508 -122 508 -140Q508 -219 473 -240H491Q494 -247 500 -252Q515 -253 525 -260Q535 -267 544 -273H550Q563 -273 583 -267Q593 -275 620 -291Q647 -307 660 -318Q473 -281 351 -220Q355 -235 371 -243Q375 -245 402 -255Q421 -263 440 -272Q466 -279 494 -284Q510 -291 526 -299Q544 -303 566 -307Q587 -312 606 -323Q599 -324 585 -324Q559 -324 503 -311Q414 -285 332 -243Q312 -233 290 -224Q267 -215 251 -203Q235 -189 235 -173V-170Q241 -167 246 -167Q257 -167 273 -179Q292 -193 303 -194Q265 -143 231 -143Q218 -143 208 -148H195Q182 -148 178 -143H177Q171 -143 165 -150Q160 -156 157 -157Q154 -159 146 -161Q134 -164 131 -168Q129 -171 129 -176Q133 -190 136 -205V-208Q135 -215 128 -226Q121 -236 121 -242Q121 -246 122 -248Q142 -266 147 -281Q170 -292 205 -327Q241 -363 266 -374V-372Q266 -368 254 -356Q240 -342 240 -326Q240 -320 241 -317H251Q275 -317 360 -335Q414 -349 457 -358Q438 -368 420 -380Q401 -391 375 -395Q370 -409 337 -417V-420Q339 -439 351 -447Q350 -449 350 -453Q352 -463 354 -473Q352 -474 348 -474Q339 -472 330 -470H328Q311 -471 291 -494Q265 -525 260 -528Q260 -533 259 -539Q259 -561 275 -581L269 -594V-602Q270 -628 284 -639Q298 -650 316 -662Q324 -668 330 -675Q336 -682 347 -686L348 -684Q344 -680 340 -674Q343 -668 343 -662Q343 -654 336 -640Q330 -628 329 -624Q333 -609 345 -609Q364 -613 387 -624Q403 -630 447 -640Q500 -652 519 -662Q514 -674 495 -674Q465 -671 439 -663Q397 -655 380 -654Q385 -662 401 -667Q411 -670 430 -674Q447 -677 491 -684V-687Q491 -722 458 -732Q461 -736 461 -741Q458 -759 443 -761H442Q446 -781 478 -796Q518 -815 525 -822Q531 -822 537 -823Q560 -823 574 -813Q589 -802 589 -784V-782Q577 -793 560 -799Q554 -799 553 -789V-787Q553 -779 567 -770Q579 -762 583 -758Q586 -755 590 -747Q594 -738 599 -738Q604 -742 604 -747Q602 -757 599 -768Q609 -767 615 -762Q621 -756 627 -752Q620 -743 618 -732Q618 -728 619 -726Q618 -723 611 -720Q604 -717 603 -713Q625 -715 671 -729Q719 -744 740 -747L741 -745Q738 -739 735 -733V-732Q742 -728 751 -728Q760 -728 783 -736Q806 -744 820 -744H822Q815 -738 800 -731Q779 -722 773 -713Q773 -709 777 -709Q782 -709 786 -710H787L788 -708Q783 -702 778 -688V-686Q780 -684 782 -684H788Q783 -679 783 -670Q786 -653 794 -634Q792 -630 789 -626Q789 -625 791 -621Q772 -611 766 -599Q723 -593 679 -588Q689 -586 697 -571Q704 -556 714 -555L716 -553Q715 -549 714 -546V-545Q722 -546 735 -554Q744 -559 749 -560Q747 -555 738 -546Q726 -534 723 -527Q724 -525 727 -525Q731 -526 734 -527Q733 -512 728 -501Q720 -503 713 -513Q706 -522 702 -524Q691 -521 691 -503V-501Q691 -493 690 -490Q687 -482 674 -474Q663 -468 660 -461Q668 -455 678 -455Q681 -455 696 -458Q704 -460 717 -472Q726 -480 732 -482Q735 -482 735 -477V-467Q725 -459 711 -455Q700 -448 687 -444H685Q675 -445 665 -447H663Q647 -445 634 -428Q633 -427 614 -396Q657 -403 704 -412Q751 -422 778 -453Q784 -444 791 -433Q797 -422 808 -419H811Q816 -419 829 -425Q842 -431 852 -431Q855 -430 858 -430L859 -428Q854 -422 846 -414Q853 -415 873 -421Q894 -427 910 -428Q906 -424 886 -418Q855 -409 855 -398V-396Q856 -390 861 -390Q867 -390 872 -391L876 -390Q874 -381 871 -373V-369Q876 -357 883 -350V-348Q883 -344 882 -341V-339Q885 -334 889 -330Q893 -326 893 -320Q886 -313 885 -289Q884 -259 871 -255Q869 -254 865 -254Q855 -255 847 -261Q838 -268 831 -273Q831 -283 837 -287Q843 -290 849 -295V-297Q848 -303 843 -308Q793 -302 769 -294Q731 -281 716 -255Q718 -254 723 -254Q726 -254 754 -261Q773 -268 781 -268Q789 -268 793 -264Q789 -258 782 -257Q775 -257 769 -255Q755 -251 696 -231Q681 -220 664 -217H661Q662 -223 669 -228Q676 -233 677 -237Q656 -229 634 -221Q645 -233 655 -245Q651 -251 651 -255Q629 -254 608 -237Q611 -227 625 -216Q639 -204 642 -195Q631 -189 624 -162Q617 -136 608 -129Q604 -134 604 -141Q608 -157 611 -174Q611 -183 600 -189Q586 -188 582 -178Q580 -173 578 -152Q573 -119 571 -78V-65Q572 -39 578 2Q579 39 591 64Q613 56 613 31Q613 18 605 -12Q598 -39 597 -51V-56Q597 -75 605 -80Q610 -74 610 -65Q610 -56 609 -48V-45Q610 -34 620 -11Q630 12 630 27Z"/>
</svg>