<svg xmlns="http://www.w3.org/2000/svg" viewBox="0 -800 1024 1024">
	<path fill="#000000" d="M223 -466V-470Q224 -486 237 -488Q240 -488 243 -485Q237 -470 223 -466ZM963 31V38Q960 53 949 60Q937 68 923 76Q897 70 879 70Q876 67 876 56V52Q885 53 893 53Q906 53 913 46Q911 34 889 29Q879 27 849 23Q842 23 834 22Q823 22 820 31Q822 41 831 45Q832 45 850 51Q846 57 844 62Q798 59 749 52Q743 53 736 54Q730 52 723 49Q704 51 685 53Q669 53 662 40Q679 34 707 34Q734 35 760 35H782Q800 35 807 28Q800 15 771 13Q729 11 687 11Q636 11 610 14Q582 16 574 35Q577 43 602 44Q620 45 626 48Q622 54 607 54H588Q540 54 509 71Q499 78 488 88Q478 98 466 100Q463 101 459 101Q442 100 433 89Q424 78 417 62Q406 36 386 25Q386 -22 408 -52Q427 -78 466 -94V-93Q465 -83 463 -74Q463 -67 469 -64Q537 -68 605 -73Q608 -88 608 -104Q608 -119 599 -133H597Q590 -133 571 -125Q552 -117 540 -117H536Q532 -116 532 -113L533 -109Q529 -110 524 -112Q518 -106 518 -102V-100Q512 -102 503 -102H495Q487 -102 484 -103Q470 -111 455 -126Q449 -131 439 -138Q429 -146 426 -153L425 -157Q429 -170 433 -184V-186Q432 -197 418 -211Q404 -225 402 -234L401 -240Q411 -234 418 -229Q418 -236 432 -244Q445 -251 458 -251Q469 -251 473 -243Q448 -234 448 -226V-225Q461 -221 478 -221Q520 -221 546 -240Q542 -249 529 -249Q515 -247 500 -246Q489 -246 486 -252Q496 -262 539 -265Q573 -268 585 -274L574 -319L549 -316Q535 -314 509 -298Q485 -283 471 -283Q461 -283 453 -290Q437 -301 426 -331Q417 -357 416 -383Q496 -443 524 -482L522 -483Q509 -478 495 -474H494Q470 -489 441 -500Q412 -511 409 -545Q413 -565 417 -585V-589Q414 -610 411 -631V-636Q416 -664 443 -676Q471 -689 493 -699Q493 -695 488 -692Q484 -689 484 -685V-684Q490 -677 507 -677H515Q525 -677 532 -674Q525 -666 500 -660Q469 -652 465 -639Q469 -632 483 -632Q520 -637 543 -646Q592 -659 652 -676Q711 -694 765 -704Q762 -713 746 -715H740Q721 -715 685 -700Q652 -686 630 -686Q623 -686 613 -688V-690Q614 -698 623 -699Q631 -699 639 -701Q653 -706 667 -714Q681 -721 701 -722H703Q707 -725 714 -734Q722 -744 729 -747Q737 -749 741 -749Q762 -744 784 -741Q797 -742 820 -754Q840 -765 849 -765Q854 -765 856 -764Q815 -745 815 -724Q815 -719 816 -716Q821 -717 829 -723Q842 -733 853 -733H858Q825 -710 825 -692Q825 -685 829 -678Q832 -679 832 -684Q833 -691 836 -691Q839 -686 839 -681Q838 -671 836 -661V-659Q839 -647 842 -635Q840 -604 816 -586Q803 -579 783 -576Q762 -573 743 -568Q681 -549 662 -538Q668 -535 669 -519Q670 -505 673 -500Q639 -478 627 -446Q645 -453 663 -461Q680 -470 701 -473Q694 -484 694 -503Q694 -518 700 -529Q715 -534 725 -534Q759 -534 785 -500Q790 -502 797 -509Q806 -518 814 -520L815 -518Q814 -512 813 -506V-503Q814 -491 827 -482Q868 -504 875 -506Q853 -481 853 -470Q853 -458 869 -455Q898 -474 932 -474Q937 -474 947 -472Q919 -469 898 -458Q873 -444 873 -423Q873 -410 882 -394H896Q906 -394 906 -388Q890 -386 884 -379Q893 -363 913 -357Q932 -351 950 -343Q947 -342 940 -342Q914 -346 888 -350H885Q870 -348 850 -337Q834 -328 823 -326Q796 -340 782 -351Q763 -367 755 -389Q724 -386 708 -377Q692 -368 671 -356Q672 -351 681 -336Q692 -317 692 -307V-303Q712 -305 753 -316Q788 -325 797 -327Q820 -317 835 -303Q850 -306 852 -306H855L856 -304Q853 -299 849 -294Q852 -294 853 -291Q854 -288 855 -286L857 -285Q864 -288 871 -292Q869 -276 869 -268Q869 -253 874 -246Q865 -196 826 -171Q803 -171 779 -172Q739 -172 708 -160Q700 -135 700 -81Q704 -76 709 -76Q714 -76 719 -77Q753 -78 804 -85Q838 -90 869 -92Q872 -94 877 -104Q883 -116 888 -116H889Q888 -111 886 -106Q886 -91 905 -91Q911 -91 921 -93Q915 -90 915 -81Q915 -78 917 -74L920 -73Q930 -75 939 -77Q935 -70 935 -62Q935 -49 948 -20Q963 14 963 31ZM249 -105V-106Q249 -119 252 -123Q253 -130 253 -144V-158Q253 -187 268 -195Q272 -191 272 -185Q270 -170 267 -155Q267 -139 278 -113Q288 -120 290 -137Q291 -154 292 -175Q295 -200 298 -225Q298 -240 289 -248Q283 -245 282 -237Q280 -229 277 -223Q269 -226 269 -243Q270 -258 271 -273Q275 -291 284 -300Q261 -282 248 -260Q235 -237 219 -211Q183 -163 156 -104Q141 -98 134 -93Q123 -84 121 -70Q101 -80 78 -84Q72 -84 69 -82V-84Q71 -87 73 -91V-92Q70 -98 67 -103Q65 -109 58 -109V-112Q58 -124 48 -138Q38 -152 38 -161Q38 -167 39 -170Q22 -190 22 -219Q22 -256 53 -320Q82 -382 97 -394Q90 -374 80 -357Q71 -340 67 -316Q72 -319 80 -339Q87 -357 98 -359Q89 -341 86 -317Q115 -341 138 -373Q161 -407 196 -428Q182 -396 157 -374Q130 -352 123 -314Q135 -317 144 -328Q152 -339 161 -352Q211 -412 261 -472Q265 -478 274 -491Q283 -503 284 -514Q284 -521 275 -523H273Q267 -523 258 -512Q252 -505 249 -505H247Q250 -520 267 -542Q281 -560 286 -574Q279 -585 270 -593Q281 -598 330 -629L331 -627V-623Q343 -618 355 -614Q368 -610 375 -597Q381 -578 387 -559Q395 -542 402 -525Q418 -488 418 -466V-465Q415 -457 412 -449Q409 -427 401 -409Q388 -406 381 -399Q374 -392 364 -383Q329 -353 314 -328Q344 -322 354 -289Q364 -253 372 -215Q377 -210 383 -210Q382 -202 382 -185Q383 -157 383 -129V-113Q383 -101 376 -77Q370 -58 370 -49Q369 -45 369 -37Q370 -28 370 -19Q370 0 361 9H358Q349 10 345 16Q342 23 339 29Q324 14 322 11Q295 9 285 -20Q274 -48 263 -73V-80Q263 -99 251 -104Z"/>
</svg>