<svg xmlns="http://www.w3.org/2000/svg" viewBox="0 -800 1024 1024">
	<path fill="#000000" d="M934 -501H935Q933 -483 923 -483Q920 -483 918 -484Q921 -490 923 -495Q926 -501 934 -501ZM704 -131H702Q694 -131 694 -143Q694 -156 702 -156L705 -155V-151Q705 -143 704 -135ZM463 -134H465Q471 -133 473 -126Q476 -120 480 -116Q477 -114 472 -114Q457 -116 456 -128Q456 -134 463 -134ZM456 -415H454Q448 -412 445 -409L443 -410Q450 -420 450 -433Q450 -440 440 -473Q395 -453 376 -409H362Q353 -409 349 -407V-376Q349 -351 355 -340Q377 -342 427 -358Q469 -371 496 -375Q476 -400 456 -415ZM546 -458V-455L550 -454Q560 -457 570 -461Q568 -456 561 -449Q551 -439 551 -433Q551 -427 555 -422L557 -421Q561 -422 564 -424L566 -421Q554 -415 552 -387Q583 -393 628 -398Q644 -471 653 -550Q660 -572 663 -594Q663 -597 662 -601H658Q629 -595 566 -560Q543 -549 519 -538Q495 -527 481 -506Q494 -501 498 -501Q504 -506 508 -513Q511 -520 521 -521H522Q514 -512 512 -497Q513 -493 513 -490Q521 -480 532 -476Q547 -486 561 -503Q570 -516 584 -520Q589 -520 593 -516Q588 -507 565 -488Q546 -472 546 -458ZM943 -319V-312Q941 -305 934 -296Q925 -285 925 -278L926 -274Q922 -271 917 -269Q911 -267 911 -261Q905 -264 853 -274Q854 -283 866 -283Q875 -282 883 -282Q892 -282 894 -287Q880 -308 818 -308H798Q782 -308 766 -309Q749 -309 743 -300Q748 -287 771 -287Q783 -287 794 -288Q812 -288 817 -280Q805 -276 786 -276Q770 -276 754 -277Q744 -277 730 -275Q722 -262 717 -222Q713 -183 704 -170Q701 -177 701 -186Q704 -206 706 -227Q706 -236 702 -243Q688 -235 681 -206Q678 -193 672 -151Q664 -108 662 -74V-68Q662 -33 680 -23Q689 -29 689 -58Q690 -88 698 -95Q703 -90 703 -75Q702 -58 701 -41Q698 18 698 21Q685 35 670 46Q654 58 646 76Q636 81 629 81Q609 81 581 53Q572 46 561 27Q557 9 549 -5Q535 -23 525 -33Q520 -37 514 -41Q509 -46 508 -53V-56H509Q515 -56 520 -51Q525 -46 529 -45Q527 -60 507 -81Q491 -98 486 -110Q494 -106 509 -91Q526 -74 540 -70Q532 -90 502 -117Q478 -139 469 -155Q482 -149 503 -128Q529 -102 551 -96Q570 -114 580 -155Q580 -156 594 -231Q597 -239 599 -247Q599 -250 597 -254Q493 -238 459 -231Q469 -243 493 -250Q501 -252 542 -260Q558 -263 574 -266Q589 -270 590 -276Q590 -280 579 -286Q489 -273 469 -268Q411 -255 379 -230Q379 -220 385 -217Q401 -221 416 -226Q423 -226 427 -220Q422 -213 402 -209Q380 -205 376 -197Q380 -163 384 -129Q388 -111 391 -94V-92Q390 -80 381 -57Q371 -32 370 -20Q361 -18 351 -16Q349 -14 348 -9Q347 -1 345 0Q339 -9 336 -20Q296 -49 287 -60Q287 -84 275 -93H254Q255 -101 263 -104Q270 -107 275 -111Q274 -125 273 -139Q271 -153 264 -162Q228 -151 207 -126Q205 -124 199 -108Q192 -90 185 -83Q179 -77 170 -77Q162 -77 147 -85Q134 -92 129 -93H123Q112 -92 100 -92H95Q65 -100 64 -136Q64 -150 70 -164Q52 -185 52 -208V-214Q55 -229 65 -239Q75 -249 81 -258Q82 -263 83 -269V-271Q87 -278 122 -315Q134 -331 148 -337Q148 -331 141 -322Q132 -310 132 -300Q133 -297 133 -294Q142 -287 150 -286Q157 -285 168 -281Q178 -288 208 -295Q228 -300 239 -305V-307Q239 -317 232 -334Q226 -349 226 -359Q226 -365 227 -368Q233 -364 237 -347Q242 -328 251 -324Q260 -328 260 -344Q260 -354 251 -387Q242 -426 219 -435Q211 -431 211 -425Q216 -411 220 -397L219 -393Q209 -397 202 -408Q194 -420 187 -432Q164 -468 164 -504Q164 -523 173 -541Q168 -565 166 -573L169 -574Q173 -573 177 -572L181 -573Q180 -579 174 -589Q168 -599 168 -604V-607Q173 -605 180 -597Q187 -589 194 -587Q235 -616 253 -616Q270 -616 281 -601Q290 -586 299 -572Q314 -558 322 -547Q341 -563 345 -566Q397 -572 437 -597Q477 -623 517 -644Q559 -664 572 -665Q561 -650 543 -645Q490 -617 480 -611Q444 -589 427 -566Q432 -561 441 -561Q452 -562 463 -570Q473 -578 484 -585Q504 -596 523 -607Q581 -642 593 -648Q608 -655 664 -688Q660 -696 652 -696Q635 -691 618 -686H617Q619 -697 630 -701Q640 -705 649 -708Q668 -717 686 -726Q704 -752 710 -758Q726 -773 751 -773H755Q766 -764 769 -755Q778 -756 787 -758Q780 -753 780 -744Q780 -738 784 -734H785Q790 -734 798 -740Q805 -745 808 -745Q810 -745 814 -743Q813 -741 808 -738Q800 -733 800 -729L801 -726Q807 -728 822 -739Q833 -748 838 -749V-746Q838 -739 828 -732Q815 -723 815 -713Q815 -709 816 -707Q821 -708 824 -714Q828 -722 832 -722Q828 -710 828 -695Q828 -663 843 -645Q842 -639 842 -630Q842 -623 844 -601Q838 -597 831 -594Q776 -547 761 -425Q764 -422 767 -419Q821 -427 839 -431Q876 -440 897 -456Q901 -461 904 -466Q907 -472 914 -473V-472Q914 -468 909 -459Q899 -441 899 -433Q899 -425 906 -419H909Q924 -423 939 -427Q944 -427 948 -424Q941 -423 933 -415Q926 -408 926 -403Q926 -398 934 -398Q939 -398 943 -399L944 -397Q943 -394 938 -390Q933 -386 932 -379L933 -375Q934 -371 938 -371Q943 -371 947 -372Q951 -372 952 -371Q941 -362 941 -348Q942 -333 943 -319Z"/>
</svg>