<svg xmlns="http://www.w3.org/2000/svg" viewBox="0 -800 1024 1024">
	<path fill="#000000" d="M39 -447H40Q48 -447 48 -435Q48 -428 44 -424Q36 -424 36 -435Q36 -442 39 -447ZM893 -242V-239Q884 -239 884 -252Q884 -267 892 -267Q896 -267 899 -261Q895 -252 893 -242ZM685 -556V-557Q692 -566 700 -575Q707 -583 708 -595V-596Q692 -588 675 -580Q658 -573 649 -559Q629 -549 605 -538Q581 -527 573 -503Q570 -488 570 -469Q570 -447 575 -437Q618 -446 666 -452Q670 -477 678 -499Q687 -520 693 -543Q693 -546 689 -549Q685 -552 685 -556ZM858 60H856Q841 50 825 36Q799 19 795 12H797Q808 12 824 22Q837 30 845 30H846Q836 3 809 -11Q782 -25 754 -38Q728 -52 702 -64Q677 -77 650 -78H646Q651 -66 663 -61Q676 -55 688 -50Q712 -38 736 -26Q752 -19 753 -18Q761 -13 762 -3Q684 -42 596 -75Q573 -88 541 -92Q532 -92 523 -89Q522 -90 494 -98Q476 -71 468 -33Q466 -15 465 -12Q463 -3 455 1Q453 0 449 0Q443 0 436 5Q429 10 426 10H424Q411 10 391 -8Q372 -25 369 -38Q368 -41 368 -47V-58Q368 -70 361 -75V-76Q361 -80 364 -81Q367 -81 369 -83Q362 -92 348 -96Q345 -96 345 -91V-85Q345 -81 343 -80H341Q337 -80 335 -88Q334 -94 331 -95Q322 -95 320 -93Q315 -86 315 -73Q315 -51 325 -47Q332 -47 334 -60Q336 -71 342 -72Q345 -60 345 -47Q345 -20 329 5Q314 28 293 39Q279 38 270 32Q261 25 250 21Q244 -3 212 -14Q213 -18 213 -26Q213 -38 208 -46Q203 -54 193 -54Q190 -53 187 -53Q237 -117 237 -218Q237 -260 223 -299Q195 -272 158 -179Q153 -164 146 -145Q139 -126 126 -123H125Q110 -127 94 -132Q91 -132 89 -131Q85 -129 83 -126Q80 -121 75 -119Q78 -126 78 -132Q78 -157 49 -167Q37 -177 36 -194Q35 -211 34 -234Q32 -243 30 -252V-257Q34 -277 41 -303Q43 -321 43 -332Q43 -356 42 -380Q42 -398 43 -407Q51 -404 51 -392Q50 -382 49 -372Q55 -343 60 -315Q66 -321 66 -332Q65 -346 64 -361Q64 -368 65 -371Q69 -361 72 -351Q74 -340 81 -335Q101 -355 123 -375Q136 -391 148 -410Q159 -429 179 -440Q173 -422 161 -409Q149 -396 137 -383Q108 -360 105 -317Q120 -325 130 -340Q140 -355 149 -371Q167 -390 185 -410Q206 -436 223 -462Q245 -486 260 -515Q257 -515 254 -516Q241 -516 228 -497Q218 -483 210 -480Q211 -497 233 -525Q253 -551 253 -567Q253 -576 247 -588Q263 -597 280 -609Q297 -621 318 -622Q327 -622 342 -617Q355 -595 371 -571Q387 -548 389 -522Q389 -506 379 -490Q370 -475 340 -449Q316 -429 307 -417Q305 -416 305 -408Q286 -396 273 -376Q260 -357 247 -336Q251 -336 257 -341Q262 -345 266 -345Q270 -345 272 -344L274 -346Q273 -348 272 -351L274 -353Q277 -351 286 -348Q300 -344 305 -339Q316 -324 327 -305Q342 -287 348 -270V-262Q348 -231 339 -209Q335 -211 334 -221Q332 -233 327 -234Q311 -208 311 -147Q311 -134 312 -129Q314 -114 323 -111Q336 -117 336 -146V-170Q336 -189 340 -195Q346 -184 346 -158V-108H351Q377 -108 396 -122Q409 -132 425 -155Q437 -172 449 -189Q483 -240 483 -285V-290Q491 -287 499 -284Q503 -284 508 -289Q519 -280 531 -271Q542 -263 546 -248Q547 -245 547 -238Q547 -228 540 -206Q535 -190 534 -180Q551 -172 570 -167Q572 -172 572 -183V-194Q572 -202 573 -206Q578 -204 581 -192Q584 -182 587 -182H588Q596 -182 596 -208V-228Q597 -249 597 -270Q597 -298 588 -308Q575 -305 575 -286Q577 -266 579 -247Q579 -237 575 -233Q568 -246 567 -286Q566 -319 561 -333Q555 -333 548 -325Q541 -317 536 -317H532Q519 -317 494 -333Q478 -343 471 -345Q473 -357 475 -361Q462 -392 455 -427Q448 -463 428 -485Q425 -488 417 -492Q406 -497 402 -504V-536Q402 -578 417 -593Q410 -614 406 -640Q406 -648 408 -653Q421 -626 432 -620V-622Q429 -633 426 -644Q432 -643 439 -636Q445 -630 449 -630L453 -631L454 -632Q451 -636 447 -643V-645Q453 -645 465 -639Q473 -643 483 -643Q513 -642 526 -614Q563 -631 597 -649Q631 -668 673 -678Q650 -660 619 -650Q588 -639 575 -611Q581 -608 586 -608Q605 -612 619 -623Q648 -639 683 -653Q717 -668 743 -695Q741 -698 733 -698H718Q723 -709 740 -717Q752 -723 757 -728Q769 -743 780 -757Q791 -771 813 -772Q820 -772 823 -771Q828 -770 836 -762Q844 -753 851 -752H854Q863 -752 880 -762Q895 -771 903 -771H905Q902 -764 892 -757Q879 -748 878 -738Q880 -736 882 -736Q884 -736 888 -740Q892 -744 895 -744H897L900 -743Q898 -738 896 -734V-732Q899 -693 912 -690Q915 -690 918 -695Q922 -702 926 -702L929 -701Q925 -689 921 -677Q936 -645 936 -605Q936 -597 934 -585Q892 -578 878 -557L881 -555Q885 -555 888 -556Q876 -551 861 -537Q848 -525 843 -522V-526Q845 -540 856 -546Q855 -552 854 -558V-560Q829 -556 810 -529Q803 -519 780 -477Q756 -429 756 -402Q756 -396 758 -384Q765 -393 785 -442Q801 -480 823 -490Q805 -456 788 -421Q770 -386 767 -338Q758 -334 755 -333Q749 -330 749 -323H747Q736 -320 724 -317Q715 -325 691 -334Q673 -341 666 -345L669 -358Q660 -357 660 -348Q660 -343 662 -341Q656 -326 656 -304Q656 -297 658 -281H661Q676 -281 713 -295Q752 -310 777 -311Q784 -323 795 -324Q797 -323 797 -320Q797 -317 794 -311Q819 -314 835 -321L836 -319Q836 -316 829 -312Q816 -304 816 -295Q816 -291 817 -289L820 -288Q826 -290 831 -293L834 -292Q826 -280 816 -255Q816 -250 825 -243Q799 -224 799 -195H783Q734 -195 703 -185Q682 -180 663 -175Q644 -170 640 -147Q675 -139 732 -118Q808 -90 851 -83Q862 -110 867 -143Q871 -137 871 -119Q871 -104 873 -99Q881 -116 881 -157V-201Q881 -221 890 -226Q894 -202 894 -161Q894 -132 893 -104Q892 -96 891 -88Q891 -78 899 -74V-104Q899 -161 908 -188Q912 -143 913 -94Q914 -54 944 -44V-42Q944 -29 951 -6Q957 14 957 25Q957 37 953 46Q927 58 903 75Q894 71 887 65Q880 59 870 58Q864 59 858 60Z"/>
</svg>