<svg xmlns="http://www.w3.org/2000/svg" viewBox="0 -800 1024 1024">
	<path fill="#000000" d="M71 -450H73Q76 -445 76 -437Q76 -424 70 -420Q62 -424 62 -438Q62 -450 71 -450ZM516 -349H519Q530 -335 530 -311Q527 -270 515 -252Q511 -248 503 -240Q495 -232 493 -226Q471 -221 460 -211Q455 -217 446 -217Q435 -217 423 -205Q425 -210 426 -216Q422 -227 414 -236Q405 -245 401 -269Q401 -272 400 -276Q400 -295 413 -321Q431 -355 457 -362L461 -361H480Q490 -369 497 -376Q504 -382 518 -387Q507 -369 507 -358Q507 -349 516 -349ZM339 -26V-4Q339 22 350 36Q358 29 362 5Q365 -16 369 -21Q370 -16 374 -12Q377 -10 383 -7Q373 20 369 52Q364 83 343 98Q303 88 281 60Q260 31 238 3Q241 -3 241 -9Q240 -20 238 -31Q238 -36 241 -41Q232 -53 221 -63H223Q231 -65 238 -67H241Q255 -119 255 -235V-283Q233 -270 206 -216Q192 -191 179 -166Q167 -141 166 -104H164Q158 -104 147 -99Q138 -95 133 -95H132Q119 -96 111 -107Q104 -117 95 -126Q88 -159 67 -179Q47 -199 29 -220Q34 -288 64 -402Q67 -392 67 -361Q67 -325 73 -312Q76 -321 76 -342V-357Q76 -376 80 -389Q83 -374 84 -356Q85 -338 97 -330Q126 -375 156 -418Q170 -441 184 -464Q197 -486 217 -504Q209 -472 178 -425Q146 -377 140 -349Q177 -385 212 -438Q247 -491 279 -541Q294 -556 300 -578Q300 -588 291 -594Q270 -577 248 -558V-561Q250 -571 252 -582Q256 -587 264 -590Q271 -620 280 -649Q288 -679 289 -711Q289 -727 286 -744Q292 -742 298 -733Q304 -725 309 -723Q316 -724 316 -731Q316 -735 315 -738Q320 -734 325 -731Q342 -741 366 -741Q406 -741 414 -717Q419 -681 446 -648Q450 -614 455 -584V-583L454 -581L452 -582Q451 -582 449 -579Q438 -544 412 -518Q387 -491 365 -464Q347 -440 298 -355Q301 -354 305 -354Q312 -354 321 -363Q329 -371 332 -372Q333 -357 339 -348Q340 -348 341 -353Q341 -357 344 -357H345Q346 -333 362 -314Q361 -309 360 -304V-302Q377 -273 377 -210Q377 -187 375 -147Q376 -137 376 -127Q376 -112 366 -108V-148Q366 -202 360 -230Q353 -225 351 -212Q349 -199 348 -186Q339 -118 339 -26ZM825 1V3Q798 16 788 57Q776 57 770 59Q761 62 760 72Q752 60 740 58Q729 55 717 49Q712 46 695 15Q665 -41 634 -98Q642 -96 646 -90Q649 -84 655 -79Q652 -92 640 -113Q627 -136 624 -151Q633 -145 644 -128Q653 -115 658 -110Q658 -125 642 -145Q627 -163 625 -173H626Q634 -170 645 -158L664 -136Q693 -169 704 -216Q714 -263 725 -311Q738 -359 748 -407Q759 -455 774 -498Q718 -493 674 -456Q702 -411 710 -374Q688 -346 671 -299Q652 -261 633 -224Q628 -211 610 -158Q597 -128 583 -98Q573 -63 565 -29Q558 -12 550 3Q542 17 541 34Q535 40 527 40Q520 40 506 34Q494 29 489 29Q483 29 479 34V29Q479 15 485 9Q477 -3 467 -22Q451 -52 442 -63Q442 -68 447 -73Q452 -77 452 -81Q443 -96 402 -96H380Q393 -105 419 -111Q445 -117 454 -123Q464 -130 476 -151Q488 -173 500 -177V-176Q497 -163 493 -151Q493 -146 497 -142Q528 -184 551 -234Q573 -284 596 -335Q581 -324 572 -308Q563 -292 554 -276Q535 -243 516 -211V-214Q516 -223 528 -254Q554 -314 580 -375Q578 -376 575 -376Q564 -372 552 -369H551Q536 -370 520 -402Q506 -430 495 -434Q492 -444 492 -456Q496 -484 500 -513Q511 -569 545 -605Q571 -631 599 -632Q598 -628 588 -619Q574 -606 574 -597Q574 -593 577 -587Q596 -595 612 -600H616Q616 -596 602 -588Q586 -579 586 -571Q586 -566 590 -561Q617 -568 663 -594Q687 -607 709 -619Q731 -631 748 -650Q743 -652 734 -652Q717 -652 688 -636Q665 -623 654 -621Q671 -644 697 -656Q722 -669 747 -685Q758 -694 773 -704Q788 -714 810 -715Q816 -714 821 -714Q831 -708 845 -691Q862 -671 875 -665Q884 -668 893 -672L894 -670Q891 -663 887 -656V-653Q887 -641 898 -632Q907 -640 921 -642H926Q915 -636 915 -620Q915 -608 922 -600Q923 -601 925 -605Q927 -611 931 -612Q934 -610 934 -608Q932 -601 929 -594Q936 -597 948 -611Q960 -625 967 -629Q946 -606 946 -559Q946 -519 960 -494Q954 -474 947 -458Q938 -449 926 -444Q917 -437 909 -421Q902 -407 898 -402Q896 -405 896 -413Q897 -425 898 -437Q898 -446 893 -450Q872 -445 863 -423Q857 -408 854 -374Q847 -375 840 -377Q793 -224 793 -113V-101Q807 -136 823 -207Q836 -267 843 -288H845Q849 -286 852 -285Q857 -303 862 -321Q867 -340 881 -349Q864 -273 845 -154Q838 -123 836 -94V-87Q838 -78 840 -69Q840 -58 832 -33Q825 -11 825 1Z"/>
</svg>