<svg xmlns="http://www.w3.org/2000/svg" viewBox="0 -800 1024 1024">
	<path fill="#000000" d="M649 57H635Q628 57 625 55V53Q625 45 637 45Q650 45 650 54ZM851 -269H849Q843 -270 842 -278Q840 -287 839 -294Q841 -296 849 -296Q851 -293 851 -283ZM960 -51V-49Q959 -36 951 -24Q943 -12 935 1Q928 16 919 61Q894 64 865 64Q799 62 732 60Q708 60 697 61Q698 48 719 46Q725 45 737 45Q773 47 808 48Q840 48 854 39Q841 25 781 25H751Q722 24 666 24Q654 25 630 25H628Q600 21 572 17Q559 17 551 24Q553 37 578 40Q600 43 605 51Q599 57 594 57Q586 55 577 52Q574 51 567 51Q557 52 546 52H541Q495 43 470 7Q466 2 457 -29Q448 -63 448 -76V-83Q456 -166 485 -235Q513 -304 538 -369Q536 -370 533 -370Q523 -367 515 -359Q502 -354 487 -350Q471 -346 461 -338Q451 -329 430 -275Q398 -227 383 -186Q391 -178 403 -178Q410 -178 424 -182V-180Q420 -174 416 -164Q416 -162 418 -158Q419 -154 422 -154Q427 -155 432 -156Q430 -145 430 -123V-99Q430 -79 429 -68Q389 -61 384 -42Q375 -51 364 -51Q355 -51 341 -44L340 -47Q343 -55 346 -63Q343 -71 332 -71H327Q324 -80 321 -89Q312 -88 306 -73Q302 -62 297 -62Q294 -66 294 -70Q299 -82 303 -95Q279 -93 269 -68Q260 -44 247 -24Q244 -20 237 -15Q228 -9 226 -5Q215 17 208 42Q221 41 231 29Q233 27 247 4Q254 -9 260 -22Q267 -36 279 -41Q280 -39 280 -35Q276 -18 267 -5Q264 7 260 19Q250 34 236 51Q227 69 218 86Q213 85 206 85Q199 85 190 89L186 73Q185 72 179 72Q174 72 172 70Q171 58 164 52Q156 46 149 40Q142 33 130 13Q120 -4 112 -12V-15Q113 -20 113 -26Q97 -64 75 -95Q87 -95 103 -77Q116 -62 127 -59Q121 -89 85 -133Q53 -173 44 -198Q83 -149 147 -87Q176 -102 197 -125Q219 -151 241 -177Q224 -206 212 -243Q216 -241 218 -241Q226 -243 233 -246Q240 -245 246 -245H250Q258 -247 266 -249H268Q281 -246 293 -244L297 -245Q308 -255 319 -276Q332 -295 344 -315Q321 -313 288 -292Q254 -270 233 -270Q221 -270 215 -272Q208 -280 187 -318Q185 -322 178 -329Q168 -340 167 -345V-350Q172 -368 176 -386Q175 -391 168 -400Q162 -407 162 -410V-416Q162 -437 170 -455Q174 -463 189 -477Q199 -486 205 -494Q213 -506 219 -518Q225 -530 236 -536Q236 -531 231 -520Q224 -504 224 -493V-486Q226 -483 233 -480Q240 -477 242 -473Q240 -467 240 -461Q240 -444 247 -434Q286 -436 345 -454Q385 -466 415 -471Q418 -472 419 -477Q421 -482 423 -483Q418 -490 406 -490Q399 -489 392 -489Q376 -488 344 -479Q305 -468 286 -468Q286 -480 295 -484Q296 -485 316 -488Q363 -496 442 -516Q447 -526 450 -538Q453 -550 461 -557Q464 -587 467 -618Q464 -627 455 -637Q441 -653 441 -666Q432 -673 422 -697Q412 -721 402 -728Q412 -732 416 -740Q420 -749 427 -758Q433 -766 465 -781Q501 -798 521 -798Q528 -798 531 -797Q550 -791 566 -755Q574 -737 574 -728Q574 -721 571 -717Q564 -718 561 -723Q559 -726 556 -736Q551 -753 542 -753Q531 -753 531 -737Q531 -729 532 -726Q533 -721 543 -706Q555 -687 556 -677V-675Q553 -659 550 -643Q550 -638 551 -636Q566 -637 574 -656Q581 -673 581 -696Q593 -694 593 -668Q593 -663 592 -659Q591 -646 575 -623Q559 -599 559 -585Q547 -574 547 -552Q571 -558 593 -585Q607 -589 613 -589Q639 -589 663 -569Q676 -577 682 -579Q680 -573 678 -567L679 -563H682Q702 -565 717 -573Q716 -567 709 -563Q702 -559 701 -554Q724 -561 747 -569Q708 -548 708 -517Q708 -502 716 -489Q720 -490 726 -494Q734 -500 741 -500V-499Q741 -495 734 -489Q725 -481 725 -473Q725 -469 726 -467Q726 -464 730 -464L732 -465V-462Q732 -458 727 -452Q721 -446 720 -441V-433Q721 -418 721 -404Q721 -393 719 -387Q702 -386 691 -380Q680 -373 666 -369Q664 -375 664 -378Q664 -387 680 -394Q690 -398 691 -402Q692 -404 692 -407Q691 -420 676 -421Q672 -421 670 -420Q664 -417 660 -410Q656 -402 649 -393Q643 -385 636 -378Q630 -372 629 -364Q629 -359 631 -356H632Q641 -358 649 -360Q654 -360 655 -357Q651 -345 636 -320Q625 -302 620 -291Q609 -268 583 -224Q578 -228 578 -234Q578 -240 584 -252Q593 -271 604 -290Q615 -309 618 -329Q597 -321 588 -300Q578 -278 569 -257Q559 -238 548 -218Q536 -197 535 -175V-171Q542 -172 550 -185Q560 -202 571 -203V-202Q571 -189 560 -164Q548 -136 548 -126Q548 -112 560 -104Q578 -91 626 -91Q646 -91 670 -93Q683 -94 711 -94H733Q805 -94 824 -116Q824 -132 827 -137L829 -138Q832 -134 834 -131Q843 -143 843 -168Q842 -189 841 -211Q841 -238 851 -251Q854 -191 857 -132Q863 -150 863 -182Q860 -234 857 -287Q857 -317 864 -339Q869 -238 873 -137Q877 -149 877 -168Q876 -198 874 -229Q874 -236 876 -252Q884 -237 886 -195Q888 -150 896 -137Q898 -139 898 -144Q898 -152 903 -152H904Q907 -150 907 -148Q907 -144 906 -141L907 -137Q917 -121 920 -106V-104Q934 -93 946 -81Q958 -69 960 -51Z"/>
</svg>