<svg xmlns="http://www.w3.org/2000/svg" viewBox="0 -800 1024 1024">
	<path fill="#000000" d="M854 -374H855Q856 -372 856 -366Q854 -353 852 -341Q844 -345 844 -360Q844 -374 854 -374ZM768 10Q767 14 765 17Q763 16 760 16Q754 17 748 18L745 17Q743 13 743 11Q743 3 755 3Q765 3 768 10ZM67 -409Q65 -389 60 -377Q52 -379 52 -393Q52 -410 63 -410ZM542 -464V-447Q542 -420 550 -412Q563 -421 590 -429Q616 -437 627 -444Q637 -498 643 -554Q620 -549 618 -531Q614 -535 610 -539Q582 -520 542 -464ZM525 -125V-135Q525 -147 528 -151Q533 -149 537 -142Q541 -135 544 -134Q557 -143 557 -171Q557 -206 539 -217Q536 -215 536 -205V-187Q536 -176 533 -172H532Q530 -173 528 -174Q516 -216 516 -229V-233Q520 -239 529 -239Q537 -238 544 -238V-240Q543 -247 541 -255H545Q554 -253 562 -249H564Q565 -252 566 -255Q571 -254 576 -250Q583 -245 588 -245H590Q613 -226 624 -157Q625 -153 625 -145Q624 -124 617 -106Q609 -88 604 -71Q592 -74 578 -74Q565 -74 553 -83Q543 -105 525 -125ZM494 -14H492Q488 -14 485 -20Q483 -24 480 -25H476Q460 -22 443 -20Q440 -19 439 -12Q438 -7 437 -5Q431 -10 430 -22H421Q397 -19 372 -16Q377 -23 401 -32Q422 -40 424 -55V-57Q421 -73 417 -89Q413 -107 409 -125Q405 -137 388 -160Q366 -190 363 -211V-216Q363 -225 371 -242Q378 -257 378 -266V-269Q377 -280 370 -288Q363 -296 356 -309H358Q364 -309 371 -300Q379 -290 384 -289Q386 -289 386 -293V-302Q396 -291 424 -282Q449 -274 458 -265Q463 -258 467 -251Q480 -235 492 -220Q487 -200 487 -184Q487 -165 494 -123Q501 -81 501 -59Q501 -35 494 -14ZM931 -91V-98Q931 -107 936 -110Q940 -92 944 -74Q949 -66 954 -59Q957 -50 957 -32Q957 -15 956 1Q956 11 957 16Q943 26 939 34Q927 34 914 38Q890 29 882 29Q875 29 872 31Q863 25 843 21Q824 17 818 14H813Q800 14 800 7Q809 3 822 3Q855 8 887 12Q901 12 908 7Q893 -8 881 -10Q839 -19 748 -19H743Q708 -19 686 -4Q687 6 703 6H711Q724 6 726 13Q714 28 693 28Q667 28 642 8Q628 -3 622 -13Q613 -27 613 -45V-48Q613 -64 627 -100Q636 -123 639 -139Q641 -152 641 -163Q641 -174 648 -182Q651 -179 651 -173Q650 -162 649 -151Q649 -143 652 -140Q678 -192 678 -242Q678 -271 668 -295Q655 -291 655 -260V-252Q655 -239 654 -233Q647 -242 645 -272Q643 -304 634 -312H625Q622 -312 618 -314Q635 -317 648 -338Q609 -328 596 -323Q563 -311 547 -296Q544 -293 537 -280Q527 -261 519 -260H517Q509 -263 501 -266H491Q476 -275 467 -292Q457 -310 448 -324Q437 -386 402 -442Q397 -430 397 -419Q397 -413 399 -407Q392 -385 376 -374Q358 -363 350 -343Q330 -330 317 -309Q304 -288 291 -269Q330 -265 344 -249Q363 -179 363 -134V-124Q361 -108 361 -102Q361 -95 363 -91Q357 -72 356 -30Q355 22 344 40H342Q335 40 328 39Q321 39 321 43Q315 37 305 35H301Q299 23 282 8Q271 -2 268 -8Q260 -29 245 -45Q247 -49 247 -56Q245 -72 242 -89Q242 -95 245 -101Q253 -95 261 -71Q269 -48 279 -41Q286 -54 286 -88V-113Q284 -132 282 -152V-170Q282 -184 276 -190Q265 -186 263 -157Q261 -130 248 -127V-130Q250 -153 252 -177Q252 -193 246 -205Q168 -118 132 -39Q124 -40 117 -48Q111 -54 107 -56Q95 -51 88 -41Q85 -44 85 -47Q85 -53 92 -58Q91 -68 83 -73Q74 -79 68 -86Q64 -96 62 -113Q60 -120 57 -128Q54 -158 51 -188Q50 -193 42 -205Q33 -219 33 -231V-235Q39 -268 45 -302Q52 -358 57 -371Q61 -364 61 -354Q61 -339 60 -325V-318Q61 -305 70 -287Q71 -290 71 -296Q70 -314 68 -332Q68 -342 73 -352Q80 -340 80 -323Q89 -301 95 -301Q97 -301 110 -314Q117 -323 125 -334Q133 -346 143 -347Q149 -347 153 -344Q145 -331 132 -320Q119 -309 118 -292Q118 -286 119 -283Q144 -297 170 -328Q183 -344 212 -383Q233 -410 255 -436Q278 -463 292 -494Q272 -493 253 -473Q245 -464 224 -434L205 -409Q201 -403 196 -397Q191 -391 183 -390H181Q187 -412 205 -428Q217 -448 229 -469Q238 -478 246 -487Q266 -517 280 -551Q274 -562 268 -574Q282 -582 298 -592Q315 -601 334 -602H336Q344 -600 352 -598L356 -599Q365 -597 371 -591Q370 -593 370 -596Q370 -600 374 -606Q378 -612 378 -618Q378 -623 377 -625Q378 -626 390 -644V-647Q390 -651 389 -656L390 -659Q396 -658 399 -650Q403 -641 408 -641V-644Q407 -660 405 -677Q405 -690 412 -692Q414 -680 414 -667Q415 -654 424 -650L425 -654Q425 -661 424 -668V-671Q429 -669 435 -660Q439 -654 443 -651Q450 -653 463 -653Q501 -653 519 -602Q602 -642 658 -695H654Q619 -693 595 -673Q572 -653 544 -638V-641Q544 -647 551 -656Q562 -668 601 -692Q630 -709 645 -722Q675 -746 677 -747Q690 -754 722 -757H732Q749 -757 751 -743Q754 -743 757 -747Q760 -751 765 -751H766V-749Q762 -740 758 -734Q758 -733 760 -729Q769 -731 782 -746Q797 -763 810 -766Q808 -757 798 -745Q790 -735 787 -728V-726Q793 -728 798 -731Q799 -731 803 -729Q787 -720 787 -700Q787 -694 788 -691Q789 -689 792 -689Q798 -690 803 -691Q799 -682 799 -670Q799 -654 810 -641Q810 -636 809 -631Q810 -616 811 -602Q811 -596 810 -590H808Q804 -589 800 -588L794 -569Q790 -571 787 -571Q776 -571 772 -563L773 -561L777 -562L779 -561V-560Q768 -539 748 -519Q744 -524 744 -533Q744 -552 754 -566Q767 -584 779 -602Q777 -607 776 -613Q775 -619 769 -622Q761 -620 753 -619Q747 -612 741 -605Q740 -585 729 -547Q718 -508 718 -487Q719 -481 719 -475Q723 -477 726 -483Q731 -493 739 -493H742Q742 -475 731 -441Q720 -404 719 -383Q737 -376 741 -376Q745 -376 747 -377Q749 -355 762 -355Q766 -355 768 -356V-354Q766 -347 760 -341Q758 -333 758 -329Q763 -303 768 -277V-272Q767 -269 763 -263Q758 -256 758 -251Q758 -247 759 -245Q739 -218 730 -180Q721 -141 713 -103H718Q773 -106 827 -116Q834 -135 835 -162Q835 -189 837 -208Q842 -197 843 -168Q844 -142 846 -134Q852 -147 852 -163Q850 -184 848 -206V-286Q845 -313 845 -314Q845 -327 852 -335Q859 -260 865 -185Q866 -174 866 -165Q867 -157 875 -154Q876 -161 876 -177Q876 -206 875 -235Q875 -266 878 -278Q885 -257 888 -204Q892 -144 901 -122Q912 -120 920 -110Q922 -107 931 -91Z"/>
</svg>