<svg xmlns="http://www.w3.org/2000/svg" viewBox="0 -800 1024 1024">
	<path fill="#000000" d="M911 -150V-136Q911 -120 905 -115Q903 -133 903 -139Q903 -146 904 -150ZM946 -684Q941 -680 929 -678Q928 -680 928 -683Q928 -695 946 -697L947 -693Q947 -688 946 -684ZM669 -215Q674 -233 679 -246L678 -250Q665 -249 651 -232Q637 -215 637 -200Q637 -190 645 -184Q649 -187 657 -200Q663 -210 669 -215ZM452 -99H450Q442 -100 433 -101Q427 -101 424 -96Q421 -105 400 -113Q381 -120 378 -132Q345 -120 319 -100Q293 -80 267 -61V-63Q268 -75 276 -81Q284 -87 294 -93Q326 -117 357 -141Q355 -142 350 -142Q334 -141 318 -131Q301 -120 285 -109Q267 -97 250 -86Q232 -74 221 -61Q212 -52 212 -41Q212 -35 215 -31Q219 -31 224 -37Q232 -46 240 -46Q244 -46 246 -45Q244 -32 230 -18Q216 -4 216 6Q203 13 190 27Q146 12 125 -15Q123 -28 117 -36Q111 -43 106 -52Q101 -53 96 -54H94Q103 -66 103 -85Q103 -103 94 -114Q96 -120 105 -129Q115 -139 117 -147Q111 -169 107 -192Q103 -214 92 -234Q88 -240 76 -249Q66 -257 62 -262Q36 -298 36 -336Q36 -360 52 -372Q51 -380 46 -390Q40 -403 39 -412H40Q44 -412 50 -404Q58 -394 65 -393Q64 -403 53 -424Q43 -445 40 -457Q46 -453 56 -437Q68 -418 79 -414L80 -418Q80 -421 77 -426Q73 -432 73 -437V-439Q82 -435 91 -425Q100 -415 115 -414H117Q133 -401 157 -379Q179 -364 197 -345Q211 -326 211 -291Q208 -246 205 -202Q205 -189 206 -183Q224 -189 239 -198Q245 -267 245 -280Q246 -290 246 -312V-316Q245 -332 244 -349Q244 -363 249 -372Q255 -361 255 -339Q253 -306 251 -274Q251 -246 265 -235Q272 -247 272 -275Q272 -289 271 -304V-325Q272 -367 272 -410Q272 -431 271 -439Q267 -455 260 -456H259Q249 -456 249 -436Q249 -423 246 -421Q237 -498 234 -509Q222 -554 189 -566Q204 -596 230 -619Q261 -646 295 -646Q314 -646 333 -637Q340 -622 359 -593Q384 -555 391 -529Q390 -513 377 -487Q363 -458 363 -441Q363 -436 365 -426Q352 -402 348 -313Q345 -292 345 -291Q347 -287 348 -283Q346 -270 343 -257Q343 -248 347 -243Q364 -250 381 -258V-265Q382 -276 382 -287Q382 -293 381 -296Q380 -307 371 -326Q363 -343 363 -351V-354Q364 -365 381 -382Q400 -397 435 -397Q451 -397 458 -391Q475 -373 487 -348Q500 -329 508 -297Q498 -270 484 -264Q470 -241 464 -173Q459 -120 452 -99ZM903 -54V-78Q903 -93 907 -102Q911 -95 914 -61Q913 -28 920 0Q927 9 933 18Q942 36 942 60Q942 68 940 78Q936 83 925 90Q908 101 904 110Q875 97 840 94Q831 71 799 61Q786 49 773 36Q760 26 752 9Q771 13 794 34Q818 56 836 60Q823 34 799 16Q775 -2 752 -21Q742 -31 730 -40Q718 -49 704 -51Q705 -39 716 -26Q724 -16 726 -9Q712 -14 691 -33Q677 -45 668 -51Q635 -19 606 16Q577 51 547 84Q531 81 513 73Q484 61 467 60Q474 54 480 48Q477 37 461 12Q461 10 466 8Q471 7 471 3V2Q468 -12 448 -21Q430 -29 387 -42Q349 -53 333 -60Q336 -63 343 -63Q345 -63 366 -57Q418 -43 471 -34Q465 -39 452 -43Q437 -48 431 -54Q436 -54 440 -55Q465 -51 490 -48H493Q527 -51 550 -72Q574 -93 594 -111Q592 -117 586 -119Q580 -121 576 -124Q561 -120 561 -103Q561 -99 562 -96Q542 -93 522 -90Q519 -90 511 -92Q501 -96 490 -110Q478 -125 478 -137Q478 -144 483 -149Q480 -159 480 -166Q481 -181 488 -191Q496 -201 505 -210Q511 -217 515 -223Q519 -229 526 -231Q526 -225 517 -213Q510 -203 510 -197Q510 -192 517 -186Q532 -196 552 -225Q565 -244 573 -252Q570 -256 566 -259Q560 -259 553 -254Q547 -250 542 -249Q546 -263 556 -271Q566 -279 576 -287Q585 -283 595 -283Q616 -284 634 -298Q651 -312 668 -322Q666 -331 662 -341Q655 -358 655 -365Q655 -369 656 -372Q658 -379 667 -389Q677 -401 680 -408Q683 -417 684 -438Q685 -460 690 -471Q688 -477 686 -483Q655 -482 634 -471Q640 -459 642 -455Q647 -447 655 -445Q654 -443 654 -439Q657 -426 659 -414Q659 -409 656 -403Q628 -393 611 -358Q610 -357 587 -291Q581 -289 575 -289H566Q557 -289 554 -287Q548 -293 536 -295Q524 -298 520 -300Q512 -306 510 -315Q508 -325 505 -336Q497 -353 486 -365Q505 -369 516 -380Q527 -392 538 -405Q520 -399 504 -396H502Q480 -396 460 -415Q443 -431 431 -456H422V-461Q419 -484 409 -504Q422 -519 431 -538Q440 -557 460 -566Q476 -604 493 -606L494 -603Q490 -592 486 -579Q496 -579 502 -586Q508 -593 514 -600Q547 -636 581 -691Q579 -696 576 -702Q559 -699 552 -686Q545 -673 539 -660Q533 -657 526 -645Q518 -631 510 -628Q518 -649 536 -679Q553 -708 559 -721Q556 -728 551 -732Q543 -731 536 -721Q530 -713 525 -711Q526 -719 534 -732Q547 -753 547 -767V-771Q568 -811 612 -813Q631 -813 649 -801H652Q657 -801 658 -805Q690 -780 705 -756Q725 -724 725 -679V-676Q705 -646 677 -626Q648 -605 622 -583Q680 -594 731 -607Q729 -612 729 -622Q729 -650 760 -661V-682Q763 -682 767 -678Q770 -675 773 -675Q800 -682 806 -685Q823 -692 828 -706V-695Q828 -669 842 -669Q845 -669 847 -670Q854 -659 862 -651Q875 -653 893 -662Q910 -671 920 -673V-672Q920 -667 907 -658Q887 -645 887 -635V-633Q887 -628 895 -618Q901 -622 910 -624H914Q906 -613 903 -601Q903 -594 910 -591Q948 -601 960 -601Q947 -594 934 -588Q920 -581 914 -567Q914 -566 922 -553Q924 -555 930 -555H945Q914 -539 914 -500Q903 -494 901 -492Q895 -486 895 -477Q889 -484 882 -484Q868 -481 853 -478Q839 -479 818 -493Q795 -509 788 -516H785Q772 -514 763 -510Q779 -490 779 -469V-462Q763 -442 752 -417Q783 -419 811 -431Q839 -443 867 -451Q871 -459 872 -463Q880 -448 896 -448Q904 -448 928 -454Q927 -450 922 -446Q918 -443 918 -441L919 -438L922 -436Q926 -437 929 -439H930Q928 -429 923 -421Q936 -408 936 -383Q936 -370 932 -359Q931 -356 927 -353Q920 -348 920 -341V-340Q912 -342 909 -342Q900 -342 887 -337Q876 -333 872 -333Q866 -333 862 -337Q864 -343 877 -346Q890 -350 892 -357Q890 -362 883 -362Q878 -362 872 -360Q801 -358 761 -336Q768 -329 779 -329Q800 -331 821 -334Q828 -334 831 -333Q825 -327 804 -323Q782 -319 776 -313Q781 -308 785 -296Q790 -283 793 -280Q796 -282 807 -282V-280Q806 -276 802 -273Q814 -278 827 -280H830Q807 -268 809 -242Q810 -215 802 -187H792Q762 -186 747 -169Q732 -151 717 -133Q766 -93 779 -83Q816 -56 852 -43Q863 -52 868 -93V-104Q868 -114 873 -114H875Q877 -110 877 -91Q878 -67 881 -60Q887 -79 887 -105V-115Q885 -142 882 -169Q882 -185 887 -195Q895 -165 896 -96Q897 -47 899 -30Q903 -39 903 -54Z"/>
</svg>