<svg xmlns="http://www.w3.org/2000/svg" viewBox="0 -800 1024 1024">
	<path fill="#000000" d="M246 -464Q242 -451 234 -442Q229 -445 229 -453Q229 -467 239 -467Q242 -467 246 -464ZM825 -125V-134Q825 -158 836 -158L840 -157Q837 -133 825 -125ZM534 14H533Q529 14 516 5Q501 -5 492 -6Q483 -16 467 -42Q448 -73 435 -85Q424 -96 412 -107Q405 -120 398 -136Q391 -152 371 -154H366Q350 -169 336 -203Q317 -250 313 -257Q316 -265 325 -276Q335 -288 338 -296Q357 -301 378 -332Q393 -355 403 -360V-358Q403 -352 395 -340Q387 -328 387 -321Q387 -318 388 -316Q423 -338 447 -377Q471 -415 494 -454Q488 -456 486 -456Q472 -456 452 -428Q443 -415 436 -403Q428 -391 416 -385Q425 -417 446 -446Q466 -475 482 -506Q488 -524 494 -542Q497 -549 508 -562Q518 -574 521 -581Q528 -575 536 -570Q539 -571 542 -576Q544 -581 547 -581Q582 -571 601 -534Q618 -501 618 -453Q618 -434 615 -416Q531 -362 467 -257Q506 -224 544 -181Q549 -186 554 -186Q558 -186 560 -185V-183Q559 -176 557 -170Q559 -156 572 -135Q583 -117 585 -110Q587 -103 587 -95Q588 -87 594 -81Q594 -77 591 -74Q588 -71 588 -69Q591 -58 591 -49Q591 -23 567 10Q563 7 558 7Q546 11 534 14ZM849 -14V-12Q846 4 843 20Q841 25 834 32Q827 40 825 44Q825 55 827 59Q810 64 799 64Q768 64 723 31Q686 7 678 -23Q690 -18 704 -8Q717 1 735 3Q727 -22 694 -59Q671 -85 662 -100Q657 -109 644 -136Q633 -160 622 -172Q614 -169 614 -161Q614 -156 621 -139Q631 -116 644 -94Q657 -72 661 -44Q638 -73 619 -107Q601 -141 582 -175L580 -176Q577 -175 574 -174L572 -175Q553 -205 548 -214Q536 -238 536 -260Q536 -277 542 -289Q549 -305 577 -333Q601 -357 610 -373Q620 -389 638 -421Q649 -449 656 -478Q659 -488 667 -501Q678 -520 680 -532Q681 -535 681 -540V-548Q681 -558 684 -563Q681 -580 665 -590Q660 -593 631 -604Q670 -609 675 -611L676 -612Q676 -614 671 -616Q664 -619 664 -621L665 -623H673Q690 -623 727 -633Q761 -642 778 -642Q783 -641 788 -641Q792 -640 800 -634Q809 -627 816 -626Q815 -623 815 -617Q815 -604 830 -586Q842 -572 844 -566Q850 -550 850 -516Q850 -490 846 -458Q804 -443 779 -411Q753 -379 729 -343Q701 -306 673 -247Q726 -155 785 -124Q792 -129 797 -149Q803 -170 812 -175Q808 -147 804 -120Q804 -103 813 -95Q815 -97 818 -106Q822 -116 827 -119Q824 -111 824 -103Q824 -88 837 -58Q849 -30 849 -14ZM390 -78H391Q396 -82 401 -86L403 -85Q401 -81 401 -75Q401 -66 407 -61Q412 -55 416 -49Q425 -26 432 -1Q422 33 422 54Q394 62 366 69Q357 63 339 58Q319 52 311 46Q300 37 295 26Q289 14 282 2Q275 -10 253 -34Q237 -51 230 -61Q183 -123 181 -127H179Q170 -127 153 -134Q144 -138 134 -140Q127 -148 123 -158Q118 -169 108 -173Q104 -204 100 -217Q93 -239 80 -250Q84 -274 99 -290Q114 -305 131 -319Q150 -335 177 -376Q203 -417 223 -432Q219 -413 202 -383Q185 -353 181 -331Q195 -338 221 -373Q268 -431 288 -476Q304 -500 308 -528Q308 -532 307 -536Q294 -534 278 -515Q265 -500 256 -498Q256 -513 270 -536Q285 -561 285 -576V-578Q284 -594 272 -616Q270 -619 249 -651Q222 -685 200 -708Q210 -708 225 -698Q237 -690 244 -690Q248 -690 250 -691V-692Q245 -701 240 -710V-711Q249 -707 260 -707Q281 -707 317 -733Q352 -758 373 -758Q385 -758 397 -752Q431 -734 447 -693Q463 -653 482 -617V-612Q483 -596 483 -580Q483 -566 479 -554Q452 -537 423 -499Q415 -488 375 -432Q363 -413 350 -394Q331 -371 312 -348Q292 -325 279 -295V-288Q279 -283 282 -283Q270 -274 255 -262Q241 -250 240 -234Q241 -231 241 -229Q244 -221 259 -207Q273 -194 280 -187Q302 -164 322 -147V-137Q351 -112 362 -91Q376 -84 390 -78Z"/>
</svg>