<svg xmlns="http://www.w3.org/2000/svg" viewBox="0 -800 1024 1024">
	<path fill="#000000" d="M333 -374L329 -375H328Q310 -360 287 -345Q263 -331 252 -311Q251 -309 251 -302Q251 -291 257 -264Q272 -225 281 -184Q297 -190 313 -193Q311 -213 311 -223Q311 -251 325 -330L323 -331Q319 -330 315 -330Q312 -330 311 -333Q333 -349 333 -374ZM694 -73Q692 -74 687 -74Q672 -73 661 -61Q649 -49 639 -38Q629 -30 618 -21Q607 -13 604 2Q602 1 599 1Q594 1 594 6V8Q602 12 610 12Q622 12 635 1Q640 -3 653 -19Q686 -54 694 -73ZM673 -361Q666 -364 659 -364Q643 -364 613 -343Q642 -346 673 -361ZM678 -433H673Q650 -420 627 -408Q622 -405 615 -403Q608 -400 607 -396L608 -393Q625 -398 649 -404Q673 -410 678 -433ZM461 -432Q450 -412 438 -394Q425 -375 418 -351Q399 -282 397 -250L385 -247V-250Q387 -272 389 -294Q389 -310 382 -318Q372 -317 372 -300Q373 -292 373 -285Q369 -279 361 -273Q353 -267 350 -255Q336 -182 336 -158Q336 -151 335 -144Q335 -125 344 -120Q351 -131 356 -166Q363 -215 381 -225Q386 -215 386 -206Q382 -176 377 -146Q377 -132 384 -121Q382 -94 373 -81Q349 -87 338 -92Q335 -91 301 -82Q279 -76 274 -63Q275 -59 275 -52Q275 -43 273 -39Q268 -38 259 -38Q239 -38 216 -52Q208 -56 202 -65Q197 -74 190 -84Q182 -94 176 -100Q169 -107 169 -121L167 -123Q162 -120 157 -118L156 -120Q164 -132 164 -146Q164 -161 148 -195Q137 -215 130 -223Q118 -236 100 -236Q79 -249 58 -272Q34 -299 27 -324L25 -331Q24 -338 24 -353Q24 -383 31 -402Q40 -427 58 -428Q69 -445 69 -479Q69 -498 68 -517Q73 -503 76 -489Q80 -475 88 -466Q90 -468 90 -472Q88 -484 85 -497Q85 -501 86 -503Q92 -494 98 -483Q104 -471 113 -469Q115 -471 115 -474Q113 -481 111 -488V-489Q122 -467 146 -457Q170 -447 191 -435Q211 -446 273 -468Q265 -447 246 -439Q223 -430 210 -412Q210 -409 213 -407Q216 -405 216 -403V-402Q237 -411 279 -436Q308 -453 328 -463V-464Q326 -479 317 -480Q315 -480 313 -477Q311 -481 311 -487Q311 -493 319 -501Q327 -510 328 -519Q357 -530 358 -530Q371 -537 376 -552Q382 -543 390 -537Q400 -544 412 -572H416Q413 -556 410 -541Q410 -537 412 -531L414 -528L418 -529L421 -528Q423 -505 441 -477Q458 -451 461 -432ZM964 -297Q964 -287 959 -274Q947 -269 931 -267H928Q920 -270 912 -274Q909 -275 904 -275Q891 -274 880 -266Q870 -258 856 -251Q850 -253 844 -255Q841 -255 838 -251Q840 -246 850 -238Q859 -231 862 -223H864Q873 -226 882 -229H884V-228Q879 -221 873 -214V-210Q875 -201 879 -193Q876 -181 873 -169Q871 -154 870 -152Q868 -148 857 -142Q854 -146 843 -146Q832 -146 829 -149Q831 -156 847 -159Q858 -161 862 -164Q862 -179 856 -183H854Q836 -182 824 -173Q811 -165 799 -157Q793 -154 787 -151Q780 -148 780 -138Q782 -136 785 -136Q794 -139 803 -142Q807 -142 811 -138Q808 -132 793 -127Q782 -123 777 -118Q783 -85 812 -67Q833 -54 875 -46Q878 -52 880 -59Q881 -67 888 -70V-61Q888 -48 892 -45Q898 -51 898 -64Q898 -72 897 -81V-86Q901 -114 904 -142V-144Q903 -152 902 -160Q902 -166 907 -169Q910 -158 910 -145Q909 -120 907 -95Q907 -76 913 -63Q916 -74 916 -100V-108Q916 -129 918 -138Q925 -135 925 -126Q925 -125 922 -107V-96Q922 -61 928 -19Q931 -25 931 -32Q945 -4 945 38Q945 66 938 86Q908 100 907 100Q885 95 863 90Q860 84 854 81Q848 78 842 74Q833 62 824 50L768 -14Q758 -5 751 5Q743 16 730 21V18Q730 13 736 5Q741 -1 741 -5L740 -9Q719 -1 702 18Q685 37 669 55Q659 64 648 74Q638 83 635 99L638 100Q649 96 656 86Q666 78 676 69Q685 59 694 50Q704 40 718 38Q679 86 636 130Q623 129 604 119Q585 108 580 98Q579 96 579 91Q581 79 583 66Q586 41 588 15Q575 20 570 33Q566 47 561 60Q551 58 542 56Q533 54 529 46Q527 42 527 34Q532 9 540 -16L553 -13Q607 -56 665 -114Q643 -109 629 -97Q614 -85 598 -75Q558 -37 518 0Q477 37 441 80Q441 85 440 90V93Q437 94 431 94Q413 94 401 84Q389 74 389 61Q389 52 394 46Q389 36 383 26H387Q402 26 402 18Q402 11 380 -14Q359 -37 358 -46Q371 -42 377 -36Q383 -29 391 -20Q413 2 426 3Q435 3 470 -17Q492 -28 509 -40Q554 -78 602 -126Q623 -141 628 -157Q628 -162 624 -166Q601 -155 585 -136Q569 -118 552 -101Q545 -96 538 -92Q528 -75 518 -59Q505 -40 485 -40Q462 -49 461 -69Q460 -89 457 -114Q465 -127 465 -146Q465 -165 459 -183Q469 -181 475 -165Q479 -155 484 -151Q503 -156 532 -179Q553 -195 567 -202Q561 -212 561 -229Q561 -255 571 -268H582Q605 -277 627 -287Q635 -289 639 -289Q647 -289 648 -283Q633 -277 619 -271Q604 -265 594 -255Q600 -252 606 -252Q627 -255 647 -265Q664 -270 676 -273Q682 -275 689 -278Q695 -281 696 -288V-289Q694 -291 691 -291Q686 -290 680 -290Q677 -290 673 -292Q673 -309 695 -309Q705 -308 715 -308Q732 -289 747 -268Q745 -242 735 -227Q711 -219 683 -216Q655 -213 645 -192Q677 -186 716 -170Q724 -175 730 -181Q736 -188 747 -190V-191Q752 -198 756 -205Q761 -210 767 -211Q768 -215 768 -221Q768 -233 761 -242Q767 -243 780 -248Q800 -256 814 -256Q813 -259 810 -259Q806 -258 801 -258H799Q792 -280 769 -282Q761 -282 753 -276V-280Q753 -284 759 -292Q755 -294 754 -294Q748 -292 742 -290H741Q745 -298 758 -310Q769 -320 773 -327Q673 -322 556 -262V-261Q556 -258 559 -258Q561 -258 561 -256V-255Q555 -254 550 -247Q552 -242 552 -232Q552 -213 540 -201Q537 -202 532 -202Q527 -202 509 -196Q487 -205 462 -209Q458 -208 454 -208V-214Q454 -227 438 -237Q417 -249 414 -255V-268Q414 -293 423 -299Q441 -307 459 -316Q464 -318 474 -318Q485 -318 490 -310Q526 -322 565 -331Q547 -352 528 -377Q508 -401 503 -439Q491 -445 479 -452Q476 -463 473 -475Q470 -482 459 -492Q447 -504 445 -511V-515Q449 -532 453 -550Q454 -555 454 -561Q454 -572 453 -583Q453 -597 460 -603Q490 -611 523 -616Q556 -621 582 -634Q584 -650 584 -658Q583 -719 535 -739Q547 -743 561 -745Q564 -753 567 -761Q583 -768 598 -776Q607 -782 615 -790Q623 -797 634 -798Q637 -797 639 -797Q648 -796 657 -784Q666 -773 666 -763H665Q655 -766 645 -770Q642 -770 639 -767Q645 -751 656 -741Q667 -730 676 -718Q682 -720 682 -725Q681 -733 679 -741V-744Q695 -738 703 -724Q699 -709 697 -703Q696 -699 690 -691Q683 -681 683 -672Q683 -667 684 -664Q696 -671 729 -679Q773 -690 788 -700Q784 -688 777 -678L780 -672Q786 -669 792 -669Q801 -669 815 -676Q831 -684 840 -684H844Q833 -674 817 -667Q800 -661 798 -644V-641L801 -640Q808 -642 814 -645L818 -644Q817 -639 810 -634Q804 -630 803 -626Q801 -618 801 -614Q805 -594 808 -574V-572Q800 -571 795 -568V-566Q796 -560 797 -555V-553Q783 -549 768 -546Q762 -546 756 -549Q759 -553 769 -556Q779 -559 782 -563Q777 -571 758 -571Q745 -571 699 -559Q636 -541 621 -535Q577 -518 555 -496Q563 -493 569 -493Q595 -497 620 -511Q664 -529 694 -529Q678 -518 639 -505Q586 -488 570 -466Q597 -477 635 -494Q649 -497 663 -500Q678 -506 699 -519Q721 -532 741 -534Q761 -534 770 -515Q775 -516 784 -522Q794 -528 803 -529Q803 -524 796 -516Q790 -510 790 -505Q790 -501 792 -499L794 -498Q799 -500 804 -503H805Q804 -499 804 -491Q806 -469 807 -447Q807 -433 803 -424Q761 -418 733 -398Q705 -379 676 -361Q711 -368 752 -375Q792 -383 824 -397H835Q882 -397 898 -409L900 -407Q897 -400 894 -394Q896 -393 900 -393Q908 -394 915 -398Q921 -403 928 -406L929 -404Q926 -399 922 -394Q923 -377 934 -367Q940 -362 958 -352V-347Q961 -322 964 -297ZM933 -169Q928 -151 922 -139Q918 -140 918 -146Q921 -158 924 -170L928 -171Q931 -171 933 -169ZM919 -442Q919 -423 901 -422Q903 -429 905 -436Q908 -443 914 -444Q915 -444 919 -442ZM873 -692Q861 -690 853 -682L852 -686Q856 -701 869 -703Q873 -700 873 -692Z"/>
</svg>