<svg xmlns="http://www.w3.org/2000/svg" viewBox="0 -800 1024 1024">
	<path fill="#000000" d="M696 -592H694V-596Q694 -606 705 -606H709Q707 -601 705 -596Q702 -592 696 -592ZM955 -112V-110Q956 -108 957 -106Q945 -94 932 -94H929Q939 -112 953 -112ZM920 -589Q917 -582 910 -579Q903 -576 897 -572Q894 -576 894 -580Q897 -595 910 -596Q917 -596 920 -589ZM564 -204H569Q593 -208 616 -213Q619 -226 626 -234Q633 -243 638 -253Q610 -252 591 -241Q569 -228 564 -204ZM479 -190H487Q486 -197 478 -205Q470 -213 468 -217Q464 -225 462 -243Q459 -269 450 -277Q462 -288 466 -306Q471 -324 478 -339Q475 -344 459 -352Q456 -368 447 -378V-373Q429 -370 417 -362Q416 -361 394 -354Q379 -346 379 -291Q379 -277 381 -267Q389 -271 398 -276Q408 -281 417 -282Q419 -282 425 -280V-279L422 -277H417L418 -274Q417 -271 416 -269V-267Q418 -265 421 -265H429V-263Q432 -253 435 -244Q429 -238 429 -234V-232Q429 -229 433 -229Q436 -229 437 -227Q426 -216 426 -198Q426 -190 429 -184Q434 -190 453 -204Q457 -190 479 -190ZM866 92H865Q862 91 858 89Q852 91 845 92H844Q824 87 801 66Q777 44 761 29Q694 -26 690 -30Q667 -53 643 -69Q634 -62 623 -45Q609 -23 598 -16L599 -19Q599 -22 596 -22L594 -21Q595 -28 603 -42Q611 -57 611 -63L610 -67Q571 -26 561 0Q564 4 570 4Q571 4 587 0Q590 3 590 7Q587 18 584 29V32Q570 38 555 44Q522 -5 474 -5Q464 -5 459 -4Q461 -8 477 -12Q492 -15 499 -19Q486 -29 465 -29Q430 -25 395 -21H393Q395 -30 403 -32Q411 -35 417 -36Q464 -42 502 -64Q511 -71 523 -89Q531 -101 539 -109H534Q518 -109 492 -95Q471 -80 453 -73H451Q435 -73 423 -84Q410 -96 410 -111Q410 -120 415 -126Q410 -138 404 -151Q370 -139 337 -126Q304 -113 277 -94Q270 -87 262 -80Q254 -73 244 -72H240Q248 -83 269 -104Q286 -121 295 -133Q292 -133 288 -134Q270 -134 237 -105Q219 -91 201 -77Q182 -63 181 -39Q181 -31 182 -27Q185 -27 193 -34Q204 -43 213 -43H216Q207 -28 197 -4Q187 20 166 23Q160 23 152 20Q141 15 132 8Q123 1 108 -1Q91 -2 76 -5Q62 -7 55 -21Q57 -52 57 -77Q57 -103 69 -121Q73 -126 87 -139Q99 -150 105 -158Q114 -169 121 -180Q128 -191 140 -193Q140 -187 133 -175Q127 -164 127 -158Q158 -167 188 -186Q232 -204 275 -223Q265 -285 265 -298Q224 -286 198 -265Q187 -255 173 -239Q159 -224 142 -222Q128 -226 116 -233Q102 -237 87 -241Q67 -252 63 -286Q64 -291 64 -297Q64 -301 63 -302Q61 -309 55 -315Q49 -321 44 -328Q34 -348 34 -371Q34 -401 50 -418Q56 -424 71 -435Q85 -445 92 -453Q104 -472 119 -489L120 -485Q116 -470 111 -456Q111 -454 113 -450Q117 -451 121 -457Q126 -465 133 -466Q132 -463 132 -456Q132 -448 135 -444H138Q146 -446 153 -448Q157 -448 158 -445Q156 -438 144 -433Q131 -427 129 -421Q135 -411 146 -411Q154 -413 160 -418Q176 -425 199 -430Q221 -436 234 -447Q232 -452 224 -452Q207 -448 189 -445Q181 -445 178 -451Q184 -457 204 -465Q220 -471 227 -477Q225 -489 225 -494Q225 -509 233 -522Q257 -536 281 -564Q306 -593 346 -597Q351 -597 361 -595Q375 -591 383 -579Q391 -567 403 -556V-554Q402 -543 400 -532Q400 -526 404 -523Q427 -529 449 -535Q445 -530 440 -527Q435 -525 434 -517L436 -516Q440 -516 444 -517H445Q434 -514 434 -496Q434 -489 437 -483L439 -482Q444 -485 448 -489Q451 -489 452 -486Q443 -481 443 -468Q443 -457 450 -453Q460 -477 477 -495Q494 -513 514 -529Q517 -526 517 -524Q517 -520 508 -511Q488 -484 475 -447Q484 -448 490 -455Q495 -462 501 -468Q518 -487 533 -510Q548 -534 564 -555Q564 -560 558 -565Q543 -561 534 -543V-546Q534 -565 552 -607Q561 -624 572 -640Q583 -657 584 -674Q584 -688 572 -700Q561 -696 549 -693Q561 -709 574 -732Q587 -756 605 -772Q623 -786 646 -786Q662 -786 669 -776Q672 -777 677 -777Q684 -777 698 -771Q712 -765 721 -765Q726 -743 742 -733Q749 -736 755 -739Q747 -732 747 -720Q747 -704 758 -684Q750 -674 748 -658V-653Q741 -647 739 -639Q739 -636 740 -634Q727 -623 712 -616V-619Q712 -628 724 -639Q734 -648 736 -655Q732 -666 726 -673Q718 -682 710 -682Q703 -682 699 -675V-671Q701 -660 702 -650V-646Q698 -635 683 -621Q667 -607 659 -598Q638 -571 631 -538Q641 -548 651 -563Q660 -578 679 -579Q684 -579 687 -578Q673 -561 659 -544Q644 -528 637 -505Q648 -510 677 -513Q705 -516 715 -520Q714 -526 714 -535Q714 -559 725 -575Q732 -585 751 -600Q759 -589 778 -589Q783 -589 791 -591Q798 -593 806 -603Q812 -611 816 -612Q818 -608 818 -604Q818 -599 817 -594Q817 -584 825 -581Q846 -588 857 -605Q868 -624 893 -628Q882 -621 873 -609Q862 -595 862 -583Q862 -572 872 -565Q889 -571 891 -571Q886 -561 886 -550Q887 -518 908 -511H912Q920 -511 932 -518Q944 -525 951 -525Q958 -525 961 -523Q951 -514 935 -506Q918 -494 914 -483Q912 -465 909 -448Q901 -424 897 -395Q897 -387 902 -375H901Q897 -376 893 -383Q889 -390 885 -396Q865 -396 862 -388Q846 -395 834 -399Q830 -399 825 -396Q820 -412 795 -421Q772 -429 766 -439Q716 -427 672 -416Q628 -404 591 -379Q594 -361 594 -360Q594 -354 593 -351Q637 -360 681 -370V-357Q634 -344 613 -327Q618 -325 628 -325Q644 -326 660 -332Q676 -338 692 -343Q733 -352 767 -371Q762 -375 756 -375Q743 -372 730 -370H727Q726 -372 726 -376Q727 -390 744 -395Q764 -400 781 -405Q788 -402 796 -391Q807 -376 818 -376H823L824 -374Q822 -366 819 -358Q823 -341 835 -330Q826 -316 826 -302Q812 -296 775 -293Q727 -288 711 -277Q721 -261 725 -234Q725 -230 724 -227Q732 -232 783 -243Q823 -252 832 -271Q836 -270 840 -264Q843 -260 846 -258Q853 -259 864 -267Q871 -272 873 -273Q868 -264 868 -256Q869 -244 878 -237Q887 -229 894 -219Q899 -211 902 -196Q904 -184 908 -177Q895 -148 873 -129Q856 -143 828 -143Q809 -143 776 -137Q737 -130 722 -130H720Q732 -115 755 -105Q765 -99 775 -92Q785 -85 788 -73Q777 -74 759 -83Q742 -91 729 -92Q744 -66 811 -42Q814 -45 814 -48Q811 -52 808 -63V-66Q812 -65 815 -65Q839 -65 879 -96Q918 -126 940 -127Q924 -111 906 -98Q887 -85 876 -64Q884 -66 897 -77Q910 -88 918 -88Q922 -88 924 -87Q903 -72 898 -67Q884 -54 881 -37Q885 -29 891 -29Q904 -34 922 -39H923Q900 -27 895 -1Q895 12 909 18Q904 33 893 78Q888 79 880 85Q872 91 866 92Z"/>
</svg>