<svg xmlns="http://www.w3.org/2000/svg" viewBox="0 -800 1024 1024">
	<path fill="#000000" d="M708 -407Q708 -482 674 -515Q647 -502 645 -501Q630 -492 625 -480Q635 -478 643 -464Q648 -464 652 -468Q655 -471 659 -471H661Q655 -465 655 -455Q659 -432 663 -410V-408Q640 -407 633 -365Q670 -369 707 -374Q708 -385 708 -407ZM618 35Q616 41 613 46Q595 42 591 37Q591 29 599 29Q606 29 618 35ZM880 -755Q871 -742 859 -741Q857 -745 857 -747Q859 -756 872 -757Q876 -757 880 -755ZM444 -330Q450 -336 454 -339Q461 -345 467 -350Q473 -356 480 -356H481Q475 -340 468 -325H472Q494 -327 512 -336Q518 -356 529 -378Q540 -400 541 -423Q541 -439 533 -452Q482 -462 482 -495V-497Q484 -503 485 -509L484 -513Q482 -519 471 -528Q456 -540 454 -547Q450 -556 450 -566Q450 -591 472 -613Q474 -640 491 -661Q502 -675 528 -692Q526 -689 526 -684Q526 -679 532 -672Q546 -676 580 -690Q625 -708 649 -713Q642 -698 596 -681Q574 -671 570 -669Q556 -660 556 -650Q557 -647 557 -645Q591 -652 649 -679Q675 -690 700 -702Q724 -714 735 -737Q733 -738 728 -738Q712 -734 696 -731H691Q736 -769 769 -769Q787 -769 806 -756Q814 -758 822 -761Q817 -755 812 -748Q817 -739 825 -728Q834 -732 843 -737L845 -734Q845 -732 841 -729Q834 -724 834 -720Q838 -713 846 -713Q856 -713 869 -722Q864 -716 854 -709Q844 -702 843 -689Q844 -686 845 -684L848 -683Q853 -685 858 -688L862 -687Q845 -669 845 -636V-626Q837 -623 837 -612Q837 -608 841 -602Q833 -589 829 -575Q797 -575 791 -564Q797 -552 807 -542Q816 -533 825 -522Q823 -492 806 -486Q806 -527 781 -534Q776 -528 776 -515Q780 -488 784 -461V-456H785Q789 -456 794 -465Q799 -476 804 -477Q806 -473 806 -467Q806 -455 800 -439Q793 -420 793 -412Q793 -408 795 -398Q848 -409 864 -414Q900 -424 924 -440Q922 -434 922 -430Q922 -407 964 -405Q956 -393 953 -381Q953 -375 958 -371L961 -370Q965 -371 969 -372H971Q962 -363 962 -351Q962 -336 971 -326Q963 -308 954 -291Q929 -286 919 -286Q912 -286 908 -288Q908 -294 928 -301Q939 -305 941 -308Q940 -320 910 -320Q904 -320 862 -317Q814 -311 801 -292Q805 -287 815 -287Q832 -289 848 -291Q852 -291 860 -289Q856 -280 855 -277Q836 -276 818 -274Q799 -272 788 -264Q790 -244 792 -225Q792 -214 791 -208L780 -205V-192Q782 -146 784 -101Q784 -69 778 -50Q768 -79 767 -115Q766 -152 762 -185Q749 -165 749 -121Q750 -82 751 -44V-11Q751 17 766 25Q772 20 774 0Q775 -12 778 -18Q791 1 791 22Q790 45 781 66Q773 88 765 107Q757 110 748 113Q739 122 730 130H728Q723 130 710 117Q695 102 687 101Q685 76 665 66Q645 56 628 44Q642 46 656 47H661Q650 30 625 21Q599 11 578 0Q613 7 650 10Q642 4 623 0Q609 -3 603 -6H609Q639 -6 656 -21Q672 -35 679 -59Q691 -108 691 -167Q649 -140 617 -101Q586 -62 555 -22Q494 51 477 96Q470 91 455 91H451Q442 91 438 90Q433 88 423 78Q414 68 405 68H402Q405 42 405 -23V-66Q408 -63 410 -51Q411 -41 415 -38Q416 -42 416 -51Q414 -73 411 -96Q408 -93 407 -93Q398 -89 389 -86Q385 -86 382 -82Q380 -92 363 -99Q347 -106 344 -117Q320 -108 292 -89Q275 -77 246 -54Q253 -81 278 -95Q302 -110 326 -123Q322 -126 318 -126Q313 -126 291 -115Q227 -83 204 -49Q193 -36 193 -22Q193 -17 194 -14Q198 -16 203 -21Q208 -27 217 -28H221Q216 -18 210 -9Q203 0 200 14Q190 16 184 22Q179 29 173 35Q141 20 115 -2Q108 -31 85 -45Q89 -57 96 -71Q91 -84 87 -96Q87 -105 96 -117Q105 -130 106 -137Q103 -155 99 -174Q96 -189 85 -212Q80 -221 69 -232Q58 -243 54 -249Q35 -277 35 -310Q35 -336 48 -352Q39 -375 37 -391Q49 -383 57 -376Q56 -386 46 -408Q40 -422 37 -434Q54 -410 76 -391L77 -395Q73 -407 68 -419Q72 -417 74 -412Q76 -406 79 -403Q85 -397 101 -392Q117 -387 124 -380Q140 -363 156 -347Q174 -328 181 -318Q193 -301 194 -284V-277Q190 -235 185 -193Q185 -178 189 -166Q210 -180 218 -181Q220 -273 226 -350Q234 -338 234 -309Q233 -283 232 -257Q232 -228 240 -215Q248 -235 248 -268Q246 -318 244 -369V-387Q245 -396 245 -406Q245 -423 236 -431Q232 -428 230 -415Q228 -401 221 -399Q221 -452 213 -485Q203 -527 178 -542Q194 -572 204 -586Q221 -609 239 -616Q241 -617 249 -617Q259 -616 269 -616H280Q291 -616 298 -611Q305 -605 316 -584Q325 -566 331 -559Q337 -554 342 -550Q356 -527 356 -504V-502Q356 -487 344 -463Q331 -436 331 -421Q331 -410 333 -403Q321 -364 319 -315Q317 -267 314 -224Q318 -224 326 -229Q336 -235 343 -235H348Q351 -245 351 -255Q351 -267 343 -294Q336 -317 336 -331V-334Q336 -354 351 -364Q365 -374 388 -374Q400 -374 415 -371Q420 -365 424 -359Q438 -345 444 -330ZM437 -241Q436 -238 434 -235Q425 -217 422 -165Q420 -129 415 -109Q417 -104 419 -87Q421 -68 426 -60V-63Q426 -69 425 -76Q425 -80 427 -82Q435 -51 447 -41Q505 -85 555 -136Q606 -186 657 -237Q633 -235 612 -228Q591 -221 572 -217Q585 -237 612 -243Q640 -249 664 -257Q663 -266 648 -266Q634 -266 617 -261Q616 -261 570 -248Q546 -242 536 -236Q521 -228 521 -215Q521 -207 525 -199Q555 -210 556 -210Q558 -207 559 -205Q559 -201 545 -191Q524 -176 491 -156Q454 -171 437 -241Z"/>
</svg>