<svg xmlns="http://www.w3.org/2000/svg" viewBox="0 -800 1024 1024">
	<path fill="#000000" d="M303 -270H302Q293 -270 293 -284V-291H294Q304 -291 304 -277Q304 -272 303 -270ZM131 -486H127Q130 -501 144 -502Q149 -502 152 -499Q148 -486 131 -486ZM617 -339V-337Q509 -313 438 -238Q434 -239 428 -245Q418 -254 412 -254Q407 -254 405 -252Q383 -284 362 -291Q354 -319 353 -322H348Q344 -322 330 -316Q332 -322 340 -326Q349 -331 350 -334Q345 -334 340 -335Q316 -335 302 -327Q306 -335 315 -340Q323 -346 331 -351Q397 -398 436 -412Q432 -402 416 -389Q398 -374 394 -362Q437 -370 470 -395Q503 -420 537 -441Q537 -445 533 -453Q501 -452 475 -426Q477 -445 499 -463Q521 -481 546 -484Q549 -486 549 -495Q563 -488 577 -481Q592 -475 602 -463Q601 -461 601 -456Q601 -445 607 -436Q614 -426 624 -426Q628 -426 630 -427V-426Q628 -419 626 -412Q626 -409 629 -405Q641 -409 656 -418Q646 -402 632 -385Q618 -368 617 -339ZM407 37V35Q409 25 414 17Q407 13 400 13Q370 17 362 44Q364 46 369 46Q382 43 394 39Q399 39 403 43Q386 50 341 86Q274 74 274 34Q274 27 275 23Q265 15 263 -1Q261 -17 257 -29Q252 -35 247 -42Q255 -51 262 -61Q270 -72 279 -78V-83Q279 -92 285 -103Q291 -114 291 -118V-120Q290 -131 289 -142Q289 -149 291 -153Q296 -148 297 -132Q298 -114 303 -111V-118Q301 -141 299 -164V-190L298 -201Q306 -162 320 -135Q320 -152 312 -185Q303 -222 303 -239Q303 -245 305 -259Q314 -246 320 -207Q326 -178 330 -166Q337 -145 349 -133H352Q390 -133 448 -166Q545 -217 588 -246Q642 -281 653 -289Q666 -299 679 -331Q688 -353 695 -362L696 -359Q694 -345 691 -332Q691 -324 698 -321Q701 -323 702 -330Q703 -340 708 -340H710Q710 -336 713 -309Q716 -305 733 -298Q735 -255 749 -233Q728 -205 706 -179Q685 -153 657 -132Q630 -112 605 -89Q579 -66 549 -51Q547 -54 547 -59Q548 -68 557 -74Q566 -81 574 -87Q602 -110 629 -133Q641 -143 649 -152Q658 -162 660 -181Q644 -175 630 -163Q616 -151 601 -139Q571 -118 541 -97Q510 -77 479 -55Q448 -32 432 2Q442 1 460 -8Q480 -18 489 -18Q495 -18 501 -15Q478 -1 457 14Q436 30 407 37ZM638 -559H632Q588 -554 552 -540Q521 -533 518 -531Q509 -522 499 -513Q484 -501 457 -486Q440 -476 394 -447Q381 -437 366 -426Q352 -415 333 -409Q318 -413 305 -429Q283 -455 282 -456H279Q273 -454 266 -453V-454Q266 -461 272 -464Q277 -467 281 -471Q277 -479 276 -484H274Q266 -484 255 -477Q245 -471 236 -471Q241 -479 254 -489Q265 -497 268 -500Q260 -509 244 -509Q230 -509 205 -500Q208 -511 216 -515Q225 -520 233 -525Q229 -526 221 -526Q208 -526 187 -515Q171 -507 159 -505Q167 -517 183 -526Q186 -527 214 -541Q244 -558 273 -576Q327 -603 333 -607Q352 -620 368 -632Q385 -644 403 -646Q396 -629 381 -621Q366 -612 352 -604Q315 -581 303 -559Q326 -561 346 -574Q365 -587 383 -600Q412 -618 441 -635Q470 -652 493 -675Q487 -678 480 -678Q471 -678 454 -670Q437 -662 429 -661V-664Q431 -677 445 -681Q447 -687 462 -699Q482 -716 484 -724V-726Q484 -737 466 -752Q455 -761 453 -766Q472 -764 491 -762L493 -764Q492 -767 491 -770V-772H498Q546 -774 592 -780Q602 -764 630 -744Q640 -751 652 -754Q657 -754 659 -753L661 -752Q659 -749 656 -746V-744Q659 -726 671 -715Q667 -697 667 -686Q667 -660 679 -651Q671 -637 661 -609Q648 -573 638 -559Z"/>
</svg>