<svg xmlns="http://www.w3.org/2000/svg" viewBox="0 -800 1024 1024">
	<path fill="#000000" d="M704 -389Q706 -397 706 -403Q706 -410 704 -413Q702 -403 702 -397Q702 -391 704 -389ZM671 -186V-182Q655 -186 655 -198Q658 -201 662 -201Q671 -201 671 -186ZM880 -325V-323Q880 -311 862 -311H859V-315Q862 -333 873 -334Q880 -334 880 -325ZM474 -235V-230Q468 -227 449 -227Q448 -229 448 -233Q448 -244 465 -244Q469 -243 473 -243Q474 -241 474 -235ZM544 -120H531Q511 -148 490 -157V-160Q490 -168 482 -178Q477 -184 477 -186Q484 -186 490 -188Q503 -212 536 -214Q550 -214 559 -209Q567 -215 579 -218H582Q581 -214 581 -207Q581 -201 584 -194Q592 -192 596 -192Q600 -192 603 -195Q606 -185 615 -170Q629 -147 629 -135Q629 -124 624 -117Q586 -106 573 -106Q552 -106 544 -120ZM945 -151V-149Q943 -133 931 -122Q918 -110 901 -110H896Q881 -114 862 -125Q834 -137 817 -137Q807 -137 802 -136V-137Q805 -144 809 -149Q802 -163 780 -187Q759 -210 751 -226Q766 -238 766 -259Q766 -270 761 -278H767Q785 -278 811 -292Q818 -286 827 -281Q833 -284 853 -299Q857 -296 857 -290Q857 -287 856 -284Q872 -284 892 -300Q906 -311 917 -314Q915 -308 903 -298Q889 -286 889 -276V-272Q892 -265 898 -262Q904 -260 910 -255Q915 -257 920 -263Q926 -271 930 -272Q922 -256 922 -248Q922 -239 930 -229H931Q935 -230 938 -232H939Q937 -226 937 -215Q939 -194 941 -174Q943 -162 945 -151ZM351 6V9Q349 28 346 46Q331 53 329 64Q317 69 300 69Q278 69 249 58Q232 47 219 43H218Q213 43 205 49Q198 54 193 55V53Q193 50 197 44Q200 39 201 34Q189 21 172 21Q146 21 122 41V40Q122 35 148 12Q136 -12 130 -19Q118 -34 98 -35Q99 -36 115 -47Q115 -51 114 -56Q115 -69 116 -82Q109 -89 92 -95Q93 -99 101 -99Q106 -98 111 -98Q114 -98 116 -99Q119 -108 119 -116Q119 -127 110 -150Q102 -170 101 -185Q107 -180 114 -164Q123 -144 132 -140Q137 -144 137 -152V-167Q141 -166 144 -161Q148 -156 151 -155H154Q159 -155 183 -148Q194 -153 199 -164Q204 -175 209 -185Q211 -164 226 -151Q227 -150 257 -131Q258 -131 260 -135Q262 -139 266 -139H267Q267 -131 266 -124V-120Q268 -108 287 -92Q307 -75 308 -61Q280 -62 266 -89L257 -86Q255 -80 255 -77Q255 -67 261 -60Q267 -53 273 -47Q288 -47 301 -19Q311 1 318 1H320Q329 0 329 -8Q325 -23 320 -38Q320 -43 322 -45Q343 -30 351 6ZM831 46H827Q804 46 760 55Q726 62 708 62H705Q685 62 676 52Q680 48 697 45Q712 43 717 38Q716 28 705 28Q694 30 682 31H680Q655 27 629 23Q619 23 614 27V29Q614 37 626 43Q641 51 644 55Q639 59 632 59Q615 55 597 50Q507 36 468 -4Q483 -2 508 11Q537 25 554 27Q576 27 578 22Q579 19 563 9Q551 6 538 2Q495 -15 458 -45Q451 -51 443 -61Q435 -70 425 -71H422Q421 -68 421 -63Q421 -53 433 -42Q445 -31 446 -22Q422 -27 411 -46Q399 -65 384 -79Q375 -110 366 -142V-143Q366 -146 369 -146Q372 -147 374 -148Q374 -158 373 -168Q373 -181 378 -186Q381 -182 383 -176Q384 -171 390 -170Q392 -172 392 -174V-178Q392 -183 394 -183Q417 -148 458 -128Q460 -126 460 -119Q468 -118 476 -107Q484 -97 494 -97H495Q500 -93 502 -88Q518 -87 529 -76L532 -75Q535 -76 537 -77H538Q580 -63 619 -63Q647 -63 679 -71Q685 -80 701 -85Q700 -96 694 -101Q688 -107 683 -114Q695 -112 701 -106Q708 -100 716 -94Q704 -112 673 -144Q642 -175 630 -195L633 -197L636 -195Q697 -134 729 -107Q723 -119 705 -139Q698 -145 690 -151Q681 -157 677 -168Q697 -160 711 -145Q724 -130 738 -117Q760 -99 812 -83V-81Q814 -77 815 -74Q837 -70 847 -53Q857 -37 870 -23Q864 -2 853 13Q842 29 831 46ZM751 -290V-286Q751 -276 743 -265Q737 -256 735 -249Q733 -250 729 -250Q722 -249 718 -243Q714 -236 710 -232Q650 -245 585 -245Q553 -245 516 -240Q518 -245 520 -251Q533 -255 581 -255H612Q626 -254 639 -254Q660 -254 668 -260Q653 -278 599 -278Q594 -278 534 -275Q518 -273 502 -272Q448 -264 433 -260Q397 -251 387 -233Q392 -228 397 -228Q412 -231 426 -234Q431 -234 434 -230Q424 -219 391 -212Q356 -204 346 -192Q339 -193 331 -195H328Q323 -204 307 -219Q286 -240 279 -257Q282 -263 282 -270Q282 -286 269 -287Q273 -296 283 -306Q283 -309 278 -317Q328 -341 351 -386Q348 -393 346 -410Q344 -433 338 -440H341Q342 -440 350 -438Q361 -445 371 -453H382Q396 -464 424 -474Q450 -483 460 -490Q468 -497 479 -504Q491 -512 507 -513H511Q528 -546 532 -578Q464 -546 396 -515Q370 -504 346 -493Q321 -482 307 -467Q297 -455 288 -439Q280 -424 263 -421H261Q243 -421 222 -433Q202 -448 202 -471Q203 -476 203 -481V-484Q202 -490 193 -499Q180 -513 178 -524Q177 -528 177 -535Q177 -554 193 -582V-588Q195 -607 202 -622Q223 -629 232 -649Q241 -670 257 -685Q254 -679 254 -667Q254 -648 263 -644Q258 -634 258 -625Q258 -614 265 -605Q272 -596 284 -596H285Q294 -597 306 -606Q318 -616 328 -622Q354 -634 378 -642Q402 -652 425 -662Q518 -689 563 -711Q561 -716 554 -716Q545 -713 535 -711Q468 -701 443 -691Q414 -679 386 -668Q359 -657 326 -656Q336 -669 353 -674Q369 -678 385 -683Q478 -716 573 -746Q578 -755 581 -764Q613 -772 619 -772Q627 -772 639 -767Q642 -768 645 -773Q649 -779 653 -780L656 -778Q654 -773 652 -769Q664 -756 676 -743Q682 -747 690 -749H693V-747Q691 -742 688 -737L690 -734Q699 -737 713 -748Q730 -761 741 -763Q741 -756 728 -745Q719 -737 716 -732Q715 -729 715 -723Q715 -706 729 -706Q741 -706 751 -716L752 -714Q748 -706 741 -698Q743 -689 745 -679Q747 -669 753 -662Q752 -658 752 -650Q752 -635 760 -617Q744 -595 744 -579Q736 -584 730 -584Q717 -583 707 -573Q697 -564 690 -559Q689 -562 689 -567Q689 -578 705 -590Q718 -599 720 -606Q717 -622 710 -632Q687 -629 680 -611Q672 -592 664 -573Q654 -555 641 -538Q628 -521 627 -502V-497Q636 -499 646 -515Q657 -532 667 -532Q670 -531 673 -531Q666 -513 659 -510Q656 -496 648 -483Q639 -470 630 -455Q624 -441 616 -425Q608 -408 594 -404H590Q577 -406 564 -408Q555 -408 549 -402Q541 -408 535 -409Q531 -409 528 -407Q526 -414 523 -416Q472 -397 467 -394Q438 -378 431 -352Q492 -352 656 -361Q661 -366 665 -379Q670 -394 676 -398L677 -395V-387Q688 -395 690 -431Q692 -462 699 -471Q702 -465 702 -456V-440Q702 -429 704 -424Q706 -425 707 -430Q708 -436 711 -436V-411Q711 -393 716 -381Q719 -372 733 -358Q750 -341 750 -327V-324Q748 -316 745 -308Q748 -299 751 -290Z"/>
</svg>