<svg xmlns="http://www.w3.org/2000/svg" viewBox="0 -800 1024 1024">
	<path fill="#000000" d="M710 -98H708Q684 -98 658 -87L640 -79Q629 -73 633 -66Q636 -59 637 -51Q667 -58 702 -61Q709 -76 710 -98ZM683 -335Q699 -393 701 -409Q693 -414 693 -420L694 -424Q681 -421 660 -415Q639 -410 626 -398Q628 -389 637 -374Q649 -354 649 -340Q649 -333 648 -329Q666 -332 683 -335ZM830 -216Q830 -225 830 -235Q830 -278 823 -304Q773 -301 695 -271Q623 -241 615 -241Q595 -238 584 -221H582Q574 -221 566 -215Q558 -209 558 -201Q557 -197 556 -193Q546 -175 538 -166Q538 -160 536 -148Q553 -158 557 -162Q577 -177 590 -192Q601 -208 608 -231Q624 -241 646 -241Q653 -241 664 -237Q666 -231 674 -224Q682 -217 683 -211V-210Q684 -205 672 -185Q649 -158 625 -132Q670 -141 694 -151Q708 -155 715 -162Q723 -169 731 -174Q717 -189 703 -204Q702 -211 693 -223Q682 -237 683 -245Q683 -249 684 -251H686Q688 -251 690 -258Q699 -266 712 -264Q741 -256 765 -243Q780 -254 787 -255Q784 -249 780 -244Q779 -236 786 -235Q790 -238 794 -242Q797 -246 804 -247Q799 -239 793 -232Q796 -229 798 -229Q811 -234 823 -240Q809 -229 807 -218Q807 -215 808 -212Q816 -212 830 -216ZM830 -209Q823 -206 818 -200Q818 -188 829 -186Q829 -202 830 -209ZM828 -180Q823 -170 823 -158Q822 -152 825 -147L823 -148Q818 -148 816 -149H814Q810 -142 795 -136L794 -130V-129Q798 -122 802 -116Q805 -97 798 -69Q792 -65 789 -55Q787 -47 782 -46Q774 -39 763 -25Q748 -5 738 1Q727 -2 717 -6Q706 -9 701 -20Q698 -21 692 -21Q676 -21 652 -3Q634 11 623 13Q620 14 617 14Q610 14 603 10Q594 5 584 5Q576 -15 563 -33Q549 -51 548 -76V-77Q548 -88 557 -108H556L555 -111Q553 -120 547 -123Q540 -126 533 -129Q539 -132 545 -135Q542 -136 535 -136H534Q526 -109 522 -77Q522 -65 521 -54Q522 -32 522 -10Q522 27 515 48Q506 75 482 82V87Q482 94 478 94V92Q477 87 476 82V80Q457 73 451 73H445Q442 60 434 56Q427 51 420 44Q410 33 406 3Q402 -25 395 -35Q400 -43 407 -49Q422 -79 436 -113Q438 -122 440 -132Q441 -141 452 -145V-142Q452 -132 444 -108Q436 -84 436 -73Q436 -59 445 -49Q457 -68 466 -107Q476 -159 476 -171Q476 -186 472 -197H471Q463 -197 460 -185Q458 -175 454 -173Q452 -177 452 -183Q453 -191 454 -200Q453 -212 445 -229Q437 -245 437 -253Q441 -263 445 -273Q445 -282 433 -296Q421 -310 421 -319Q429 -318 436 -306Q444 -294 454 -293L455 -295Q452 -303 448 -311Q454 -311 460 -304Q464 -299 469 -298Q478 -304 491 -304Q512 -302 533 -300Q551 -300 561 -310Q555 -322 535 -331V-341Q535 -357 528 -361Q521 -360 511 -354Q501 -348 494 -348Q487 -348 482 -350Q472 -353 465 -362Q457 -370 448 -380Q439 -387 430 -395Q426 -385 426 -380Q426 -369 434 -364V-363Q434 -360 429 -356L378 -310Q360 -269 360 -244V-235Q376 -240 391 -245Q390 -241 386 -237Q381 -233 381 -230H382Q386 -230 389 -231L392 -229Q379 -203 379 -198Q379 -186 394 -185Q390 -178 390 -171Q390 -158 403 -139Q380 -132 353 -114Q341 -106 308 -82Q298 -74 296 -72Q288 -66 281 -66H278Q288 -87 325 -110Q351 -127 360 -136Q352 -138 348 -138Q336 -138 318 -128Q311 -124 290 -110Q268 -96 247 -82Q226 -69 215 -46Q218 -34 224 -34Q237 -37 250 -41H253Q248 -29 241 -12Q235 5 222 13H216Q189 10 173 -6Q163 -4 158 -4Q136 -4 133 -22V-24Q134 -32 135 -40Q134 -45 128 -58Q121 -73 121 -81Q121 -86 124 -91Q119 -98 114 -106H117Q121 -106 127 -110Q126 -114 119 -118Q110 -122 110 -129Q111 -128 127 -122Q148 -135 169 -149Q189 -162 218 -169Q244 -186 272 -201V-229Q272 -240 274 -256Q241 -249 213 -231Q184 -213 157 -196Q148 -174 144 -169Q131 -163 117 -163Q99 -163 87 -175Q79 -189 71 -204Q57 -213 42 -226Q36 -236 36 -247Q38 -262 39 -277Q35 -291 30 -305Q33 -321 36 -337Q47 -343 64 -361Q81 -379 93 -385Q118 -412 122 -415Q139 -431 157 -437Q147 -423 137 -412Q126 -400 121 -383Q126 -377 135 -377Q151 -380 167 -383H170Q169 -376 153 -368Q132 -357 132 -344Q132 -340 133 -337Q171 -346 203 -362Q225 -369 234 -374Q251 -383 259 -397Q252 -402 247 -402Q240 -402 226 -396Q210 -389 203 -389Q210 -405 226 -409Q242 -414 254 -418Q254 -441 233 -466Q233 -469 232 -472Q233 -485 241 -491Q250 -497 259 -505Q274 -527 283 -532Q286 -532 289 -533Q305 -533 327 -521Q335 -517 349 -499Q357 -489 363 -484V-477Q363 -465 366 -458Q378 -463 389 -468L390 -466Q390 -462 389 -458V-455Q399 -453 401 -453Q404 -453 406 -453Q413 -467 417 -480V-487Q417 -498 416 -509Q416 -518 420 -523Q427 -533 451 -546Q468 -555 476 -563Q484 -571 490 -578Q496 -586 507 -589Q504 -579 501 -570V-566Q502 -552 517 -552Q531 -553 545 -555Q554 -555 558 -550Q554 -548 530 -541Q513 -536 510 -526Q520 -519 531 -519Q553 -522 584 -532Q610 -539 621 -543Q640 -550 649 -562Q645 -569 635 -569Q613 -564 590 -557Q592 -569 609 -573Q625 -576 640 -580Q642 -588 642 -593Q642 -605 634 -629Q627 -651 626 -662Q609 -685 592 -707V-713Q594 -736 609 -754Q619 -771 640 -782Q656 -797 670 -801Q673 -801 677 -799Q683 -803 684 -803H689Q715 -803 729 -784Q737 -773 747 -742Q740 -744 733 -754Q726 -764 720 -766Q716 -762 713 -761Q714 -742 728 -719Q741 -699 743 -686Q738 -682 738 -670Q738 -664 740 -656Q759 -669 759 -704Q759 -714 758 -719L760 -720Q767 -720 773 -698Q769 -692 769 -687Q769 -682 772 -676Q759 -658 759 -650V-647Q749 -638 749 -610Q849 -636 894 -656Q892 -650 889 -644Q901 -645 927 -659Q944 -668 953 -670Q951 -663 934 -655Q920 -648 920 -637V-636Q920 -623 930 -623Q948 -627 968 -634Q963 -629 957 -623Q951 -618 950 -610Q950 -606 951 -604L953 -603Q958 -605 962 -607L965 -605Q956 -592 956 -576Q956 -567 960 -560Q947 -554 945 -535Q942 -517 941 -499Q927 -496 920 -480Q910 -483 900 -483Q867 -479 842 -467Q845 -453 848 -440V-436Q847 -431 840 -423Q833 -415 833 -409V-408Q790 -402 776 -364Q803 -370 826 -374Q835 -377 846 -387Q854 -394 859 -397Q865 -400 873 -400Q883 -399 892 -399Q899 -399 903 -400Q910 -404 916 -417Q924 -435 934 -437Q923 -424 923 -405Q923 -395 929 -391Q933 -392 934 -396Q934 -400 939 -401H940L941 -398Q939 -388 937 -378Q938 -375 938 -373Q943 -364 948 -359H950Q956 -360 962 -361V-358Q962 -328 987 -308Q983 -298 968 -286Q954 -275 950 -269Q945 -262 942 -245Q938 -223 929 -215Q927 -219 927 -227Q927 -239 934 -260Q933 -263 930 -265Q926 -267 926 -268Q900 -254 900 -181V-164Q900 -95 904 -66Q911 -16 935 4Q934 -10 929 -39Q923 -73 923 -92Q923 -100 925 -118Q932 -116 932 -105V-92Q933 -52 944 -13Q955 25 963 62Q956 70 950 89Q943 111 935 118Q930 123 916 129Q905 134 898 139Q864 118 826 102Q812 77 772 64Q746 58 726 44Q734 41 741 41Q771 46 800 52Q773 42 695 26Q687 25 678 23Q670 22 666 13Q685 14 713 19Q759 27 780 27Q795 27 802 26Q796 21 779 19Q758 16 753 11Q757 7 765 7Q778 9 791 10H793Q813 5 823 -7Q826 -34 826 -60Q827 -93 827 -127Q828 -153 828 -180ZM751 -180Q744 -184 730 -191Q731 -186 739 -178Q745 -180 751 -180Z"/>
</svg>