<svg xmlns="http://www.w3.org/2000/svg" viewBox="0 -800 1024 1024">
	<path fill="#000000" d="M640 -15Q637 -14 632 -14Q617 -14 615 -27Q621 -29 623 -29Q636 -29 640 -15ZM395 -621H401Q397 -606 381 -601Q381 -607 380 -613Q380 -616 382 -620Q386 -621 395 -621ZM453 -491H455Q456 -489 456 -483Q456 -467 446 -464Q442 -467 442 -475Q442 -491 453 -491ZM213 -144Q228 -169 231 -214Q233 -258 239 -294Q243 -316 243 -324Q243 -336 237 -340Q218 -330 216 -302Q216 -293 218 -288Q214 -288 207 -281Q206 -266 206 -235Q206 -180 213 -144ZM701 -127H696Q679 -125 662 -123Q650 -123 644 -133Q639 -131 633 -130H631V-133Q632 -138 632 -143Q625 -137 615 -120Q602 -99 591 -92Q592 -97 599 -113Q609 -136 609 -147Q609 -160 597 -165Q587 -162 581 -153V-155Q581 -163 594 -179Q578 -191 576 -199Q575 -204 575 -212Q575 -257 655 -266Q691 -232 696 -226Q722 -196 722 -172Q722 -167 721 -164Q719 -156 712 -148Q702 -137 701 -127ZM800 -93V-78Q800 -14 823 8Q830 -2 830 -27Q830 -42 828 -74Q826 -95 824 -116Q824 -129 829 -134Q836 -101 840 -64Q844 -28 858 -1Q850 92 794 126Q786 120 767 113Q750 107 742 101Q736 96 728 85Q719 72 711 68Q709 42 677 18Q655 1 649 -11Q662 -6 698 5Q688 -9 655 -29Q620 -51 609 -70Q652 -42 707 -24Q685 -44 656 -56H663Q683 -52 703 -49Q708 -49 711 -50Q728 -55 733 -75Q736 -86 736 -118V-147Q743 -243 743 -287Q743 -313 742 -323H741Q722 -323 687 -303Q655 -285 640 -284H636Q603 -286 591 -322Q556 -339 556 -378Q556 -385 557 -389Q558 -399 576 -434Q585 -459 594 -480Q604 -492 620 -503Q622 -504 646 -518Q645 -513 638 -504Q629 -492 628 -482V-476Q628 -463 632 -439Q679 -456 723 -475Q717 -482 708 -482Q701 -482 684 -476Q667 -470 658 -470Q660 -483 671 -488Q682 -492 692 -497Q711 -507 730 -517Q725 -585 701 -607Q706 -622 706 -627Q706 -636 699 -640Q718 -673 743 -704Q768 -736 813 -738Q819 -738 835 -736Q838 -725 858 -702Q884 -672 886 -655Q884 -634 881 -613Q879 -605 875 -596Q867 -579 867 -571V-569Q876 -572 887 -578Q898 -585 911 -586L913 -584Q910 -578 906 -572Q916 -573 928 -585Q940 -597 952 -598Q939 -584 933 -562Q936 -559 938 -559Q944 -563 949 -567L951 -566Q944 -554 944 -545Q944 -537 949 -535H950Q954 -535 956 -539Q958 -542 959 -543L961 -542Q959 -534 959 -531Q959 -515 973 -505Q963 -494 961 -459Q959 -425 948 -414Q935 -402 891 -393Q849 -385 838 -370Q832 -340 832 -285V-246Q832 -212 831 -196Q821 -197 818 -212Q815 -231 811 -234Q800 -211 800 -163Q801 -141 801 -119Q801 -102 800 -93ZM528 51V43Q516 34 501 33Q498 26 485 14Q473 3 469 -6Q463 -16 459 -39Q454 -66 447 -77Q459 -87 460 -108Q460 -130 461 -155Q464 -169 466 -184Q466 -189 465 -191Q429 -108 413 16L381 31Q362 21 349 6Q336 -10 322 -24Q316 -22 314 -9Q271 -35 261 -46Q240 -39 224 -16Q223 -14 200 27Q196 28 188 28Q147 26 129 5Q124 -4 121 -15Q118 -25 108 -30Q112 -38 112 -51Q110 -74 108 -98Q108 -111 113 -119Q118 -99 123 -78Q128 -57 139 -43Q143 -43 148 -50Q140 -87 135 -126Q130 -165 111 -191Q106 -188 104 -166Q103 -146 92 -144Q92 -173 63 -218Q34 -264 33 -293V-297Q33 -329 51 -377Q32 -434 27 -486Q37 -465 45 -442Q52 -418 70 -404Q69 -413 63 -426Q56 -441 56 -449Q56 -454 57 -457Q65 -438 79 -425Q83 -428 86 -431Q82 -441 77 -452Q87 -444 98 -436Q110 -428 124 -427Q133 -427 141 -431Q146 -429 160 -417Q175 -428 188 -428H190Q192 -424 192 -423Q192 -418 180 -410Q168 -402 168 -395V-392Q170 -385 180 -385Q183 -385 185 -386Q200 -395 221 -417Q244 -434 255 -446Q273 -464 280 -482Q259 -480 243 -468Q227 -455 212 -449V-451Q212 -466 227 -482Q237 -493 240 -500Q247 -503 254 -506V-508Q254 -521 263 -531Q266 -534 283 -549Q300 -565 307 -568H309Q319 -566 329 -565H333Q338 -569 345 -572H347Q346 -565 345 -559Q345 -552 354 -551Q359 -562 363 -573Q368 -583 378 -589Q371 -579 371 -562Q371 -545 378 -535H379Q382 -535 384 -539Q386 -542 387 -543L388 -542Q387 -539 387 -534Q387 -519 402 -499Q415 -481 416 -472V-470Q416 -461 411 -448Q404 -430 404 -419Q357 -390 353 -310Q341 -244 337 -179Q337 -169 339 -147Q381 -263 416 -386Q418 -394 420 -403Q422 -411 430 -417Q432 -409 432 -404Q432 -391 426 -370Q419 -345 419 -334Q419 -329 421 -317Q460 -435 493 -563H492Q477 -562 473 -549Q468 -534 462 -521Q456 -525 456 -535Q456 -539 459 -557Q467 -597 474 -638Q479 -657 483 -676Q479 -692 475 -709V-713Q478 -735 503 -756Q523 -773 549 -784Q551 -785 555 -785Q568 -784 582 -774Q597 -764 606 -760Q609 -742 624 -714Q641 -683 641 -663V-659Q639 -644 627 -627Q615 -609 606 -595Q576 -550 569 -530Q565 -519 552 -485Q544 -464 532 -425Q518 -376 508 -354Q511 -353 513 -353Q521 -353 528 -354Q536 -354 542 -351Q552 -331 561 -311Q576 -281 576 -266V-264Q574 -247 567 -225Q560 -193 560 -152Q560 -115 566 -78H564Q558 -76 552 -75Q548 -109 548 -130V-143Q529 -137 529 -91Q530 -39 548 -18Q560 -27 560 -44Q570 -33 570 0Q570 22 567 34Q564 34 561 33Q546 33 529 57Q528 56 528 51Z"/>
</svg>