<svg xmlns="http://www.w3.org/2000/svg" viewBox="0 -800 1024 1024">
	<path fill="#000000" d="M77 -87Q66 -91 55 -96Q55 -104 57 -105Q76 -103 77 -87ZM289 -208V-206Q304 -203 319 -200Q324 -219 337 -253Q355 -299 359 -327H356Q335 -327 324 -306Q318 -295 310 -264Q305 -251 298 -237Q290 -223 289 -208ZM472 -65Q466 -60 462 -42Q458 -21 448 -18Q437 -24 424 -29Q411 -34 408 -47H412Q424 -43 436 -40L440 -41Q438 -64 412 -78Q396 -86 360 -96Q357 -94 354 -90Q357 -78 375 -69Q391 -61 395 -54Q391 -52 388 -52Q382 -52 372 -59Q359 -68 350 -68H348Q336 -48 331 -20Q326 8 322 34Q315 51 300 62Q291 65 284 65Q253 65 220 24V22Q221 17 221 12V10Q216 -7 187 -16Q155 -26 148 -39Q179 -27 217 -21Q165 -42 113 -64Q105 -67 97 -71Q89 -74 85 -83H88Q100 -81 115 -73Q138 -64 144 -62Q201 -44 217 -44Q233 -44 247 -59Q254 -67 268 -89Q263 -90 254 -90Q243 -90 203 -80Q165 -94 157 -133V-139Q160 -167 163 -195V-202Q175 -217 190 -229Q204 -241 208 -264Q157 -248 137 -215H134Q74 -215 70 -266Q50 -283 43 -292Q32 -308 32 -330Q32 -340 33 -346Q35 -356 46 -382Q57 -407 58 -420Q77 -433 95 -447Q101 -454 108 -462Q114 -470 125 -472Q115 -432 115 -426Q115 -399 141 -399H142Q155 -399 199 -413Q233 -426 243 -438Q234 -444 224 -444Q216 -444 196 -436Q176 -428 164 -428Q159 -428 156 -429Q160 -443 189 -449Q209 -453 214 -459H216Q222 -460 227 -462H229Q228 -468 222 -473Q216 -478 215 -481Q217 -538 252 -567Q258 -571 266 -574Q273 -577 276 -584H285Q308 -601 333 -601Q348 -601 359 -593Q374 -582 387 -558Q390 -553 406 -516Q433 -534 474 -537Q473 -534 473 -530Q473 -523 482 -510Q480 -496 480 -485Q480 -454 489 -435Q488 -432 484 -402Q486 -397 493 -394Q492 -392 487 -376Q469 -373 466 -370Q463 -367 446 -356Q449 -350 451 -350Q456 -353 464 -357Q464 -348 473 -332Q480 -320 480 -312Q477 -302 474 -293Q474 -291 476 -287Q429 -257 402 -185Q407 -181 413 -181Q428 -181 437 -197L438 -193Q437 -187 436 -181V-180Q437 -175 445 -171Q450 -168 454 -164Q467 -149 471 -89Q478 -80 486 -74Q476 -165 466 -256Q482 -190 497 -125Q516 -147 533 -198Q546 -236 555 -254Q579 -296 591 -329Q598 -348 606 -369Q613 -390 614 -413Q593 -410 584 -405Q575 -401 560 -386Q538 -388 528 -394Q515 -402 510 -424Q488 -438 488 -486Q488 -535 508 -553Q508 -556 507 -559Q507 -599 525 -632Q542 -663 568 -679Q568 -672 562 -662Q555 -650 555 -642Q557 -643 559 -648Q560 -653 565 -654H566L567 -651Q567 -646 566 -642Q566 -634 569 -630Q581 -630 603 -640Q624 -649 636 -649Q640 -649 648 -647Q642 -639 623 -630Q607 -623 601 -616Q608 -606 617 -606Q639 -607 652 -616Q666 -626 689 -636Q738 -654 741 -656Q766 -668 777 -683Q773 -686 767 -686Q760 -686 737 -676Q723 -670 703 -664Q715 -686 761 -705Q805 -724 826 -724Q840 -724 852 -720Q866 -728 868 -731L869 -729Q867 -722 865 -715L866 -711Q871 -715 878 -722Q885 -730 897 -731H898Q878 -718 875 -691V-686Q882 -691 892 -705Q885 -680 885 -665Q885 -653 889 -648H891Q893 -651 895 -654H896Q882 -545 881 -541Q850 -533 836 -506Q821 -479 808 -447Q795 -417 784 -375V-370Q784 -353 798 -347H809Q845 -347 858 -359Q857 -368 846 -368Q840 -368 831 -365Q825 -364 817 -364Q804 -364 803 -374Q822 -378 841 -382Q865 -386 886 -391Q908 -395 919 -410L921 -407Q920 -403 919 -400Q922 -401 927 -408Q933 -416 940 -416L941 -414Q940 -411 935 -405Q929 -400 928 -393Q928 -390 929 -388L931 -386Q933 -386 936 -390Q940 -395 942 -395H943V-389Q943 -378 942 -367V-361Q947 -347 951 -334V-327Q951 -312 950 -298V-282Q950 -258 946 -237Q928 -234 922 -220V-219L924 -217L926 -216V-214Q906 -205 898 -182Q889 -159 878 -140Q877 -143 877 -149Q881 -166 885 -178V-181Q865 -176 858 -143L856 -142L854 -143L852 -142Q793 -62 790 27Q812 -22 834 -71H835Q838 -69 841 -68Q845 -83 856 -93Q840 -43 820 3Q801 49 793 106Q790 107 769 120Q747 106 731 83Q733 77 733 73Q732 60 726 50Q719 39 715 29Q709 29 709 32L708 29Q710 22 717 14Q711 7 711 -3Q712 -11 712 -20Q711 -38 688 -65Q672 -83 669 -94Q689 -79 709 -64Q702 -81 673 -115Q650 -142 640 -160Q661 -150 676 -128Q693 -101 720 -89Q719 -95 711 -105Q699 -120 698 -130Q707 -126 717 -116Q729 -105 734 -102Q761 -124 787 -183Q817 -252 834 -272Q829 -272 824 -273Q781 -270 757 -237Q745 -245 735 -249Q725 -253 719 -263Q712 -275 712 -300V-329Q711 -336 709 -344V-347Q709 -365 720 -389Q745 -451 763 -510Q741 -505 717 -489Q705 -481 678 -457Q686 -447 695 -438Q694 -435 694 -430Q699 -405 706 -375Q702 -363 685 -344Q674 -332 669 -323Q664 -314 662 -291Q660 -272 657 -262Q646 -232 634 -202Q619 -159 585 -83Q585 -119 610 -170Q628 -206 632 -227Q613 -210 588 -151Q575 -122 570 -108Q562 -86 559 -52Q558 -45 556 13Q560 10 565 -2Q571 -17 579 -19Q571 8 564 35Q557 63 545 83H539Q523 83 510 62Q501 48 494 44Q496 38 498 32Q481 3 472 -65Z"/>
</svg>