<svg xmlns="http://www.w3.org/2000/svg" viewBox="0 -800 1024 1024">
	<path fill="#000000" d="M481 -382Q472 -382 466 -380Q471 -380 481 -382ZM912 -117V-131H921V-129Q919 -120 913 -112Q912 -113 912 -117ZM570 -446H571Q574 -444 576 -443Q576 -427 565 -424Q563 -428 563 -429Q567 -437 570 -446ZM65 -6V-7Q70 -10 73 -10Q81 -10 87 -4Q85 2 75 2Q65 2 65 -6ZM355 -466V-451Q355 -446 356 -445Q379 -454 402 -463Q405 -478 407 -493Q388 -492 377 -482Q367 -473 355 -466ZM419 -398H410Q368 -391 355 -360Q420 -367 457 -377Q442 -384 419 -398ZM437 -625V-629Q402 -605 388 -591Q362 -567 351 -539Q363 -541 384 -550Q409 -561 422 -563Q437 -597 437 -625ZM858 -56H866Q871 -68 876 -80V-84Q876 -92 875 -101Q875 -113 885 -113Q883 -99 883 -87Q883 -72 888 -67Q890 -94 891 -122V-130Q856 -135 825 -135Q724 -135 666 -100Q688 -96 761 -76Q838 -56 858 -56ZM944 102H940Q933 102 925 101Q921 101 915 103Q882 91 846 78Q809 64 780 44Q784 42 787 42Q795 46 808 50H811Q812 50 817 42Q814 33 799 23Q786 14 774 10Q766 6 758 6Q749 6 746 14Q747 18 754 22Q762 27 762 34Q760 35 757 35Q736 31 713 20Q638 -4 567 -35H570Q605 -35 657 -13Q688 3 719 6Q725 6 728 5Q695 -22 645 -37Q594 -53 543 -68Q503 -82 481 -82Q466 -82 460 -76Q467 -66 493 -60Q511 -56 519 -50Q517 -45 511 -45Q501 -47 493 -52Q427 -72 359 -72Q338 -72 327 -71Q323 -78 307 -78Q301 -78 299 -77Q267 -49 255 -33Q235 -6 229 29Q220 31 202 43Q180 58 168 58Q162 58 152 53Q144 58 136 62Q138 55 139 48Q114 29 106 1Q103 -2 97 -2H93Q94 -7 101 -11Q107 -14 108 -16Q109 -19 109 -22Q107 -43 87 -46Q68 -50 53 -50Q54 -55 66 -55H90Q100 -58 109 -61Q101 -69 70 -72Q39 -74 31 -83H36Q67 -80 97 -77Q130 -80 152 -96Q173 -113 195 -128Q192 -119 180 -107Q164 -92 164 -76Q190 -85 213 -110Q221 -119 250 -159H248Q237 -156 226 -153H223Q228 -165 240 -181Q260 -208 263 -226H266Q271 -226 277 -234Q282 -240 285 -242Q293 -238 303 -235Q312 -233 314 -222Q319 -223 324 -225Q326 -216 334 -198Q343 -179 343 -167Q343 -163 342 -159Q349 -155 368 -151Q365 -160 365 -181Q367 -213 368 -245Q368 -260 365 -274Q352 -274 325 -267Q308 -262 299 -262Q303 -273 326 -278Q348 -283 352 -292H342Q267 -292 198 -244Q192 -235 189 -223Q198 -224 215 -234Q232 -244 241 -244Q247 -244 251 -241Q244 -231 232 -226Q220 -222 208 -214Q196 -206 189 -196Q181 -187 173 -179Q160 -166 143 -166Q123 -166 117 -191Q106 -200 91 -207Q77 -215 71 -229Q69 -234 69 -243Q69 -265 91 -289V-292Q92 -322 112 -334Q132 -347 155 -358Q171 -368 185 -377Q199 -387 214 -391Q201 -380 187 -370Q172 -360 164 -343Q175 -333 193 -333Q198 -333 228 -338Q278 -350 293 -350H300Q297 -353 285 -378Q277 -395 264 -398Q269 -405 269 -416Q269 -424 261 -443Q254 -459 253 -470Q265 -469 271 -448Q275 -433 281 -429Q286 -436 286 -445Q286 -469 270 -496Q253 -525 236 -525Q228 -525 222 -518Q224 -513 234 -505Q245 -496 245 -489V-487Q238 -487 219 -499Q187 -522 180 -538Q179 -540 179 -546V-555Q179 -561 178 -563Q177 -568 171 -577Q165 -586 164 -592V-607Q162 -614 151 -627Q138 -642 137 -652Q147 -649 158 -636Q167 -625 173 -622Q170 -638 151 -655Q135 -670 131 -682Q152 -669 173 -658V-660Q173 -663 167 -667Q160 -672 160 -677Q176 -673 188 -662H190Q200 -662 223 -673Q248 -685 263 -685H267Q276 -682 282 -677Q301 -673 317 -664Q394 -714 432 -754Q454 -778 471 -789Q498 -807 529 -807Q535 -806 541 -806Q566 -788 588 -768H602L604 -767Q603 -764 602 -761Q602 -759 605 -758Q611 -760 617 -765Q627 -772 633 -773L634 -771Q634 -768 628 -763Q621 -758 620 -755Q617 -744 613 -734H614Q619 -738 627 -742H629Q622 -732 622 -720Q624 -701 626 -682Q626 -672 624 -667Q592 -646 572 -627Q545 -601 532 -572Q522 -543 512 -514Q500 -478 493 -430Q491 -419 488 -408Q488 -401 493 -397Q486 -395 484 -382Q534 -392 561 -415Q561 -404 567 -398Q570 -397 576 -397Q595 -400 613 -404H615Q608 -398 600 -392Q592 -387 589 -376L591 -374Q595 -375 599 -376H601Q593 -369 591 -358Q591 -355 595 -354Q600 -352 601 -352Q594 -335 591 -321V-317Q589 -318 586 -318Q580 -318 571 -313Q561 -307 556 -307H554Q545 -309 535 -311H529Q481 -311 438 -292Q441 -279 448 -271Q493 -282 516 -291Q520 -290 521 -283Q522 -278 525 -275Q532 -280 540 -280H543Q542 -276 540 -272Q546 -277 554 -279Q557 -279 559 -278Q555 -272 550 -263V-261Q553 -249 556 -238V-236Q556 -227 550 -214Q544 -201 544 -195V-193Q504 -190 464 -186Q434 -182 432 -153V-148Q549 -122 656 -103Q629 -125 618 -141Q598 -169 597 -202Q590 -205 583 -208Q608 -240 615 -295Q616 -310 617 -314Q619 -323 627 -325V-322Q625 -302 622 -282Q622 -275 623 -272Q645 -289 653 -355Q664 -428 665 -457Q667 -473 667 -483Q667 -502 657 -511Q645 -503 645 -474Q646 -456 646 -439Q646 -432 645 -425Q639 -397 633 -369V-380Q635 -422 637 -464Q637 -500 627 -523Q621 -525 613 -536Q603 -550 594 -550H591Q583 -585 583 -591Q583 -599 588 -611Q600 -634 627 -657Q655 -681 673 -683Q677 -684 685 -684Q715 -684 730 -662Q751 -636 756 -588V-583Q755 -572 748 -548Q741 -527 740 -517Q739 -511 731 -495Q720 -473 720 -460Q720 -454 721 -451Q715 -439 715 -429V-424Q725 -430 738 -443Q761 -465 771 -470V-482Q800 -523 838 -523H841Q858 -521 875 -512Q892 -503 907 -498H908Q914 -501 920 -504L924 -503V-501Q923 -495 921 -489V-487H924Q928 -487 939 -493Q950 -499 957 -499Q960 -499 962 -498Q955 -489 945 -483Q935 -477 933 -463L935 -462Q938 -462 944 -470Q948 -476 951 -476H952Q948 -464 943 -454Q942 -452 942 -448Q944 -435 946 -422Q946 -418 940 -407Q934 -396 934 -387V-383Q925 -374 922 -353Q919 -352 914 -352Q900 -352 889 -363Q886 -364 881 -364Q866 -361 850 -358Q845 -358 842 -360Q845 -366 860 -369Q875 -372 878 -379Q868 -384 849 -384Q788 -380 753 -356Q741 -347 738 -335Q756 -339 772 -345Q787 -351 809 -352H815L704 -307Q677 -295 677 -261Q677 -257 679 -247Q702 -254 754 -261Q794 -266 817 -271Q803 -285 776 -292H784Q796 -292 822 -286Q848 -280 865 -280H868V-277Q870 -261 884 -252Q898 -244 907 -233V-231Q904 -225 901 -220Q910 -203 918 -187Q916 -173 916 -171Q918 -159 919 -148Q918 -144 912 -143Q905 -142 904 -140Q900 -129 900 -108Q901 -90 901 -73Q905 -76 906 -92Q907 -106 915 -107Q915 -96 914 -85Q914 -46 925 -34Q929 -37 929 -49Q929 -65 936 -65V-58Q936 -13 956 2Q956 5 955 8Q960 30 964 51Q959 81 944 102Z"/>
</svg>