<svg xmlns="http://www.w3.org/2000/svg" viewBox="0 -800 1024 1024">
	<path fill="#000000" d="M154 -57V-59Q169 -55 170 -45L166 -44Q154 -44 154 -57ZM957 -540Q957 -531 948 -525Q937 -518 935 -513Q934 -515 934 -518Q934 -530 952 -543Q955 -541 957 -540ZM671 -26Q661 -9 649 1Q645 -2 645 -7Q647 -24 666 -27Q669 -27 671 -26ZM683 -233H676Q651 -234 635 -248Q619 -262 602 -273V-275Q602 -278 608 -278Q612 -278 613 -279Q609 -287 594 -293Q580 -299 576 -305Q578 -308 581 -308Q592 -305 603 -303H604Q611 -310 611 -331Q610 -356 608 -382Q608 -403 616 -411Q620 -404 622 -387Q624 -365 629 -359Q640 -377 640 -408Q640 -420 638 -446V-459Q639 -492 639 -525Q639 -572 625 -588Q613 -577 613 -551Q616 -513 619 -475V-465Q617 -459 614 -453Q600 -483 601 -527Q602 -571 597 -608Q591 -647 557 -656V-659Q557 -666 564 -692Q567 -710 570 -729Q572 -734 583 -743Q597 -755 597 -765Q597 -767 595 -773Q609 -776 617 -780Q617 -788 608 -795Q602 -800 600 -804Q622 -800 644 -797H649Q657 -800 664 -803H671Q693 -803 707 -787Q714 -779 729 -750Q737 -736 746 -720Q754 -704 755 -687V-683Q750 -666 739 -647Q732 -624 730 -600Q717 -547 711 -491Q709 -439 709 -411Q709 -341 717 -294Q700 -263 683 -233ZM690 -51V-53Q691 -66 699 -77Q707 -88 715 -99Q734 -121 745 -148Q716 -138 697 -113Q678 -89 659 -65Q638 -44 617 -21Q595 2 590 36Q598 33 611 23Q625 12 635 10Q634 18 628 22Q622 27 616 33Q602 52 589 72Q576 93 561 105Q555 110 547 110Q539 110 525 100Q514 92 508 90V88Q506 80 504 72Q490 68 475 64Q476 57 483 52Q489 48 490 46Q487 39 487 23Q488 8 488 -7Q488 -15 487 -19Q503 -33 503 -64Q501 -96 499 -129Q499 -142 502 -154Q509 -130 511 -101Q513 -71 529 -57Q528 -81 517 -126Q506 -169 505 -189Q513 -188 513 -180Q514 -172 515 -165Q522 -142 523 -137Q527 -116 533 -96Q538 -77 557 -72Q627 -138 696 -214Q723 -246 731 -259Q749 -288 749 -317V-324Q766 -330 775 -345Q788 -341 813 -341Q812 -349 797 -359Q782 -369 781 -380H782Q787 -380 796 -373Q805 -366 812 -366Q816 -366 822 -369Q801 -411 763 -435Q754 -430 754 -423Q754 -417 764 -404Q772 -394 772 -389Q752 -396 741 -422Q731 -445 731 -474Q731 -486 735 -506Q769 -510 803 -514Q827 -514 838 -503H839Q845 -505 850 -507H852Q854 -500 856 -494Q871 -481 890 -471Q899 -473 910 -484Q921 -495 929 -498Q928 -490 918 -478Q908 -466 908 -453Q920 -458 937 -480Q957 -505 964 -510Q960 -497 946 -478Q926 -452 926 -428V-422Q933 -429 944 -444Q962 -468 971 -473Q962 -452 950 -436Q939 -420 938 -396V-390Q944 -374 946 -353V-350Q942 -326 933 -306Q907 -302 894 -281L893 -284Q894 -288 894 -293V-296Q863 -303 840 -320Q841 -301 848 -275Q855 -249 856 -239Q846 -215 825 -200Q804 -186 786 -170Q775 -158 745 -119Q732 -101 719 -83Q707 -65 690 -51ZM450 -65V-63Q441 -60 431 -60Q412 -60 400 -68Q387 -79 377 -83H375Q363 -80 356 -54Q348 -26 336 -20Q336 -23 335 -27Q335 -37 343 -52Q350 -66 351 -74Q348 -78 343 -80Q334 -77 330 -69Q326 -61 322 -50Q317 -38 309 -26Q301 -15 300 -2Q300 3 304 13Q309 12 316 5Q322 -1 327 -2Q332 2 332 8Q329 22 325 35Q325 38 326 40Q313 50 299 60Q290 51 274 49H271Q260 31 243 22Q237 5 204 -19Q195 -24 187 -29Q178 -35 175 -45Q183 -43 194 -36Q208 -28 216 -26Q209 -41 176 -62Q145 -81 138 -93Q154 -86 178 -72Q208 -54 224 -48V-49Q224 -55 212 -62Q200 -69 198 -75Q206 -75 217 -70Q228 -65 232 -65H234Q248 -67 257 -81Q267 -95 277 -105Q257 -107 246 -107Q202 -107 181 -93Q171 -96 158 -98Q148 -114 134 -126Q120 -138 119 -164V-171Q136 -190 139 -206Q181 -235 212 -303Q209 -302 149 -278Q134 -247 100 -247Q81 -247 69 -258Q54 -271 53 -294Q27 -310 27 -348Q27 -374 41 -390Q37 -401 37 -412Q37 -432 52 -449Q58 -455 84 -477Q113 -503 136 -512Q133 -504 121 -492Q105 -477 105 -461Q107 -460 112 -460Q125 -462 137 -464Q143 -464 145 -461Q142 -458 122 -450Q107 -444 107 -432V-431Q111 -427 122 -427Q139 -427 187 -443Q233 -457 246 -477Q239 -481 232 -481Q225 -481 208 -475Q191 -469 181 -469Q176 -469 173 -470Q187 -480 214 -488Q237 -495 246 -500Q242 -509 236 -515Q230 -521 224 -527Q226 -576 234 -593Q251 -609 254 -612Q265 -624 269 -638Q280 -627 283 -626Q287 -629 290 -632V-636Q287 -647 283 -659H287Q294 -659 299 -653Q304 -648 307 -647Q308 -649 308 -652Q308 -658 300 -671Q290 -687 290 -697Q299 -693 316 -675Q331 -660 339 -654H348Q360 -642 384 -630Q407 -618 414 -599Q415 -596 415 -591Q414 -577 413 -563Q413 -554 414 -549Q445 -559 469 -581L470 -579Q469 -575 468 -572L469 -570Q475 -568 479 -568Q488 -568 505 -576Q520 -583 529 -584Q520 -575 508 -566Q496 -557 495 -543V-540L497 -539Q503 -543 508 -547L511 -546Q495 -530 495 -514Q495 -506 499 -501Q489 -489 489 -480V-477Q512 -477 523 -474Q542 -437 563 -408Q571 -413 582 -416H584Q584 -414 580 -410Q574 -403 573 -399V-396Q578 -379 582 -363V-360Q582 -343 571 -330Q560 -317 544 -317Q538 -317 530 -320H529Q526 -320 523 -316Q521 -312 517 -312H515V-317Q515 -330 505 -330Q496 -330 487 -321V-322Q487 -326 492 -330Q496 -333 496 -337V-338Q489 -354 488 -356Q482 -365 471 -366V-370Q471 -377 463 -388Q456 -397 455 -402Q429 -393 405 -388Q382 -383 361 -369V-367Q359 -359 356 -351L357 -347H351Q349 -340 346 -333Q317 -300 296 -258Q290 -244 278 -236V-241Q278 -259 297 -287Q317 -317 319 -335Q299 -333 288 -315Q277 -298 266 -278Q247 -248 247 -234Q247 -227 250 -221Q290 -215 329 -209Q339 -226 352 -257Q367 -285 371 -307Q371 -319 360 -330Q383 -363 425 -368Q443 -368 459 -356Q470 -320 478 -312Q480 -291 481 -270Q463 -259 446 -234Q434 -217 420 -188Q428 -183 436 -183Q447 -184 457 -191Q467 -199 477 -206V-205Q477 -200 470 -192Q462 -182 462 -177Q462 -171 466 -167L468 -166Q474 -169 476 -172L477 -171Q480 -163 480 -157Q476 -138 472 -119V-117Q473 -108 474 -99V-95Q472 -89 462 -81Q450 -72 450 -65Z"/>
</svg>