<svg xmlns="http://www.w3.org/2000/svg" viewBox="0 -800 1024 1024">
	<path fill="#000000" d="M904 -37H908Q911 -32 911 -28Q911 -22 905 -16Q902 -17 902 -24Q902 -31 904 -37ZM720 59H716Q710 59 704 55V46Q720 48 720 59ZM641 -506H639Q616 -503 593 -501Q598 -496 604 -496Q623 -499 641 -506ZM867 -328Q872 -340 876 -353Q881 -350 881 -343Q880 -330 867 -328ZM802 -742Q800 -733 795 -728Q790 -722 785 -716Q783 -722 783 -726Q783 -743 797 -743Q800 -742 802 -742ZM346 -110Q344 -111 339 -111Q318 -108 315 -95Q318 -94 321 -94Q331 -94 337 -99Q342 -104 346 -110ZM428 -463Q385 -450 350 -429Q342 -418 332 -413Q326 -411 322 -411Q309 -412 296 -414Q291 -414 288 -413Q289 -409 295 -402Q305 -390 306 -382Q376 -423 428 -463ZM820 94L775 66Q751 50 726 35Q701 21 671 16Q675 20 680 25Q685 29 686 35V37Q680 39 677 39Q666 39 650 25Q634 11 625 11H623Q608 14 602 34Q596 55 590 72Q583 69 575 69Q568 69 565 72Q560 59 548 57Q541 57 537 64L535 61Q538 55 540 48V47Q522 31 522 18Q522 8 529 0Q521 -12 504 -14H506Q533 -15 548 -34Q562 -53 577 -73Q577 -95 594 -107Q599 -107 603 -108Q626 -105 642 -94Q644 -55 663 -49Q664 -54 664 -60Q664 -77 654 -105Q643 -136 643 -155V-157Q650 -167 662 -170Q669 -174 690 -176Q711 -176 722 -169Q734 -183 746 -197Q742 -199 735 -199Q723 -197 710 -196H705Q707 -208 720 -210Q733 -211 743 -217Q737 -218 724 -218Q643 -215 597 -173Q602 -167 608 -164Q621 -171 636 -179Q650 -187 668 -188Q672 -187 676 -187Q667 -183 656 -175Q639 -163 630 -160Q632 -157 633 -155V-154Q622 -142 608 -130Q595 -118 576 -117Q564 -117 553 -124V-125Q553 -134 541 -142Q530 -150 528 -160Q529 -163 529 -169Q526 -189 523 -209Q523 -221 528 -230Q539 -254 585 -271Q576 -262 572 -251V-248Q578 -246 582 -246Q588 -246 604 -251Q623 -257 635 -257H637Q620 -273 603 -287H599Q594 -286 588 -286L584 -287Q587 -294 590 -301Q584 -308 580 -317Q586 -321 591 -326V-335Q591 -350 584 -351L586 -352Q588 -352 596 -348Q603 -353 616 -353Q634 -353 663 -345Q672 -357 680 -370Q665 -363 643 -359Q626 -359 606 -367Q585 -375 578 -386Q573 -393 571 -416Q568 -431 565 -446Q570 -477 582 -501H562Q565 -513 579 -515Q593 -517 603 -523Q597 -532 578 -532Q541 -532 467 -508Q432 -498 402 -490Q373 -481 352 -458Q354 -456 355 -455H359Q381 -459 405 -472Q446 -488 477 -488Q485 -488 499 -486Q496 -481 482 -477Q473 -475 469 -472Q488 -463 507 -455Q526 -447 540 -434L539 -430Q539 -424 545 -417Q551 -410 552 -407Q537 -390 534 -362V-359Q521 -353 498 -353H470Q406 -353 340 -311Q351 -306 368 -306Q408 -311 452 -319Q489 -319 513 -331Q513 -325 517 -319Q542 -317 547 -313Q535 -310 526 -304Q529 -300 538 -300H541Q550 -300 552 -298Q546 -295 538 -294Q529 -294 526 -287Q530 -284 547 -282Q520 -275 520 -258Q520 -254 523 -248Q517 -241 511 -235Q505 -239 486 -239Q470 -239 464 -241Q465 -244 471 -246Q477 -248 478 -251Q468 -266 432 -266Q400 -266 365 -256Q370 -248 386 -248Q404 -249 421 -251Q436 -251 440 -241Q405 -234 372 -233Q339 -231 316 -213Q332 -208 356 -208Q421 -212 475 -227Q482 -219 516 -217Q510 -213 505 -207Q509 -200 509 -192Q508 -180 507 -169V-166H497Q480 -166 479 -154Q480 -152 484 -152H495V-151Q493 -146 490 -141Q424 -134 387 -115Q398 -112 409 -112Q428 -112 461 -120Q499 -129 516 -129Q534 -129 547 -125Q539 -102 532 -74Q524 -73 522 -65Q520 -58 517 -50Q484 -50 436 -34V-33Q436 -30 441 -29Q444 -28 445 -26Q449 -33 458 -35H461Q462 -33 463 -25Q464 -18 472 -16Q477 -17 484 -25Q493 -35 504 -35Q490 -28 490 -12Q490 4 510 5Q510 64 472 75Q466 74 455 69Q439 62 427 62Q400 25 378 16L376 15Q369 18 367 21L366 20V16Q369 7 371 -3V-4Q362 -2 353 8Q350 12 340 25Q328 42 328 53Q328 60 332 64Q339 57 345 50Q352 42 363 40Q354 53 350 71Q346 89 341 106Q331 110 320 114Q289 92 254 74Q256 70 257 66Q248 58 227 54Q221 53 190 49Q220 41 248 31Q276 22 288 -4Q283 -5 275 -5Q242 -3 221 16Q201 34 180 49Q169 47 157 44Q154 36 129 17Q107 0 107 -13Q107 -24 118 -35Q117 -40 115 -45V-47Q143 -102 202 -107Q190 -102 178 -90Q164 -76 164 -64Q164 -53 174 -46Q210 -51 246 -61Q284 -66 316 -80H313Q301 -80 276 -76Q244 -71 228 -71Q221 -71 207 -73Q210 -78 218 -79Q226 -79 233 -80Q253 -87 282 -89Q260 -109 242 -133Q246 -164 264 -185Q212 -218 212 -266Q212 -276 213 -281Q221 -265 228 -251Q235 -237 251 -230Q254 -231 256 -233H257Q248 -269 248 -281V-289Q252 -301 255 -317V-322Q250 -366 231 -380Q225 -376 225 -367Q228 -347 230 -328Q230 -316 224 -311Q221 -323 210 -348Q196 -379 196 -398Q189 -412 181 -426L184 -427Q187 -427 191 -422Q196 -416 201 -416H204Q200 -423 193 -431Q185 -440 183 -452Q198 -441 211 -429V-430Q211 -433 207 -438Q202 -445 202 -449Q226 -430 252 -429Q252 -435 246 -436Q241 -438 237 -440Q217 -494 172 -500Q160 -523 144 -542Q142 -552 142 -556Q142 -573 157 -592Q169 -607 169 -617Q169 -623 166 -632Q175 -632 181 -627Q186 -623 192 -620V-621Q192 -629 177 -639Q166 -646 163 -651Q165 -652 170 -652Q175 -652 186 -646Q200 -638 210 -638H211V-641Q211 -646 204 -651Q199 -654 199 -657V-658Q226 -653 252 -650Q277 -647 291 -632Q299 -621 313 -590Q327 -558 338 -545Q398 -563 433 -567Q428 -579 428 -586Q428 -592 430 -595Q436 -586 445 -578Q450 -580 450 -588Q450 -593 449 -598Q444 -644 415 -668Q415 -665 414 -662Q414 -655 419 -643Q424 -631 424 -622Q424 -618 423 -615Q404 -640 396 -653Q380 -679 380 -699Q380 -716 389 -729Q373 -753 352 -761Q371 -758 389 -755H392V-757Q392 -759 385 -765Q381 -768 381 -770V-771Q408 -773 441 -787Q475 -802 498 -802Q503 -802 519 -800Q539 -775 562 -750H564Q568 -751 572 -752Q575 -731 588 -723Q583 -715 583 -706Q583 -700 584 -696Q556 -663 556 -604V-593Q610 -605 627 -615Q659 -633 664 -671Q660 -685 660 -695Q665 -691 672 -691Q681 -691 688 -696V-698Q687 -700 685 -703L686 -704Q714 -708 725 -708Q746 -708 756 -698Q768 -702 779 -707Q778 -700 777 -693Q777 -691 779 -687Q790 -690 806 -698Q824 -707 833 -710Q814 -696 800 -680Q802 -672 808 -670Q818 -673 827 -676Q824 -667 814 -653Q816 -648 823 -648Q817 -643 817 -631Q817 -609 827 -604Q823 -582 811 -567Q808 -568 804 -568Q789 -565 775 -560Q776 -572 785 -577Q793 -582 800 -589Q794 -592 787 -592Q774 -592 762 -587Q736 -576 716 -545H731Q756 -545 773 -536Q780 -531 787 -526H788Q796 -530 804 -535Q808 -535 811 -532L813 -530Q810 -527 807 -522L808 -518L812 -517Q822 -519 834 -526Q834 -522 825 -514Q813 -503 813 -493Q813 -489 814 -486L816 -485Q820 -485 823 -486L826 -485Q815 -463 815 -417Q753 -393 717 -311Q725 -294 738 -276Q755 -277 776 -284Q799 -292 811 -292H818Q824 -296 830 -301Q832 -298 833 -295Q856 -311 861 -319V-317Q861 -310 852 -295Q857 -284 864 -278Q872 -280 877 -280Q881 -280 885 -278Q884 -275 880 -271Q876 -267 876 -263V-258Q877 -254 883 -253Q880 -249 876 -245Q876 -241 875 -237Q878 -220 880 -204V-200Q879 -186 865 -181Q862 -180 836 -176Q806 -172 758 -141Q747 -133 744 -122H750Q785 -122 809 -133Q816 -129 822 -129Q834 -130 846 -131Q841 -128 833 -126Q825 -125 824 -116Q825 -115 830 -115H843Q841 -114 834 -112Q827 -111 826 -105V-104Q827 -100 832 -95Q836 -91 837 -88L827 -85Q830 -73 839 -67Q837 -65 833 -65H826Q811 -57 790 -55Q769 -54 750 -49Q726 -45 722 -20Q777 22 839 38Q845 29 851 20H852Q854 23 855 26Q862 -57 873 -83V-73Q870 -33 867 7Q867 24 871 35Q875 24 875 -2Q875 -38 883 -47V-12Q883 28 891 43Q894 32 894 19Q894 5 904 0Q903 5 903 15Q904 43 918 60Q932 77 947 91Q939 112 939 116Q939 120 941 126Q929 127 911 137Q891 148 880 148Q865 148 811 117Q765 91 750 78Q768 82 803 101Q839 120 861 124Q855 113 844 107Q832 100 820 94Z"/>
</svg>