<svg xmlns="http://www.w3.org/2000/svg" viewBox="0 -800 1024 1024">
	<path fill="#000000" d="M275 -190Q283 -266 286 -346Q286 -367 285 -377Q269 -364 250 -337Q228 -313 222 -298Q222 -294 221 -290Q224 -263 231 -237Q238 -208 244 -179Q264 -190 275 -190ZM362 -538Q417 -399 414 -395Q388 -357 381 -271Q374 -214 371 -155Q371 -123 376 -99Q370 -85 370 -70Q370 -65 372 -55Q351 -50 330 -45Q328 -33 326 -29Q322 -35 320 -45Q304 -46 293 -57Q287 -63 275 -80Q249 -78 240 -56Q230 -34 219 -16Q215 -15 207 -15Q170 -15 155 -67Q157 -69 161 -69Q173 -64 182 -53Q187 -66 187 -79Q187 -94 178 -132Q169 -170 169 -191Q170 -199 170 -207V-211Q170 -222 161 -234Q151 -248 142 -248Q134 -248 130 -238Q130 -210 142 -159Q149 -127 152 -103Q150 -98 140 -94Q123 -171 103 -205Q86 -229 68 -250Q49 -272 47 -304V-311Q48 -352 78 -376Q79 -380 79 -386Q79 -394 73 -410Q69 -421 69 -427Q69 -429 71 -435Q75 -432 80 -422Q86 -410 91 -407Q90 -433 81 -449Q71 -466 65 -486H66Q71 -485 76 -476Q82 -466 87 -458Q98 -439 112 -429Q111 -446 104 -457Q97 -467 91 -479Q109 -473 120 -460Q130 -447 143 -435Q148 -437 153 -439H155Q167 -431 179 -423Q191 -415 195 -398H200Q215 -399 227 -407Q239 -416 250 -424Q269 -437 282 -454Q276 -457 271 -457Q262 -457 246 -442Q230 -427 219 -426V-427Q219 -435 225 -441Q231 -446 237 -452Q264 -482 291 -532Q317 -543 341 -543Q347 -543 362 -538ZM875 -491H872Q874 -504 885 -504Q889 -504 891 -503Q891 -498 885 -494Q880 -491 875 -491ZM539 -150V-155Q545 -157 548 -157Q557 -157 567 -152Q562 -147 550 -147Q542 -147 539 -150ZM702 -249H703V-250Q703 -255 697 -259Q696 -260 685 -266V-255Q700 -249 702 -249ZM739 -714H742V-702Q732 -699 721 -697Q720 -701 719 -706V-708Q731 -714 739 -714ZM685 -284V-279Q695 -272 703 -272Q714 -272 720 -286Q723 -292 729 -320Q734 -343 738 -366Q738 -368 737 -371H736Q723 -364 709 -359Q694 -355 687 -342Q683 -334 683 -321Q684 -302 685 -284ZM516 -433H518Q541 -433 541 -379Q555 -386 562 -400Q567 -392 572 -385Q583 -382 592 -382Q607 -382 616 -389Q624 -397 636 -406Q637 -410 637 -414Q637 -432 624 -451Q613 -468 611 -481Q614 -487 617 -494L616 -496Q550 -481 499 -462Q498 -461 494 -461Q489 -461 488 -456H490Q501 -455 506 -447Q511 -440 516 -433ZM597 -158L606 -156Q623 -155 630 -174Q635 -188 635 -219Q635 -249 634 -280Q634 -301 636 -309L635 -311Q627 -303 618 -296V-292Q618 -289 612 -280V-266Q612 -249 614 -240Q609 -236 607 -204Q604 -196 601 -188Q601 -184 602 -182Q594 -177 580 -165Q578 -167 572 -167Q563 -167 557 -165Q554 -165 554 -168Q554 -171 552 -171H550L552 -168L550 -167Q541 -180 535 -219Q529 -264 516 -277Q475 -155 468 -67Q513 -76 630 -93Q628 -105 621 -111Q614 -117 609 -125L611 -126Q613 -124 614 -123Q610 -134 590 -141Q577 -146 572 -151Q576 -153 579 -153Q595 -150 610 -147Q615 -147 616 -148Q614 -152 606 -154Q599 -156 597 -158ZM695 -229Q693 -237 687 -240V-234Q688 -211 689 -189V-183Q681 -190 680 -224Q680 -249 676 -258Q669 -258 666 -231V-223Q666 -150 679 -111Q689 -115 689 -130Q689 -139 688 -149Q688 -156 689 -159H692Q695 -159 699 -144Q700 -138 700 -128Q700 -119 694 -93Q722 -96 773 -98Q853 -100 884 -107Q885 -112 885 -122V-147Q891 -140 893 -126Q895 -114 897 -111Q904 -103 914 -100Q924 -98 935 -95Q953 -101 955 -101Q950 -96 944 -93Q938 -89 937 -79L939 -77Q944 -78 949 -80Q951 -80 953 -78Q947 -72 944 -62Q945 -56 951 -55Q956 -54 958 -51Q954 -47 953 -41Q962 -10 962 16Q962 43 952 57H949Q942 57 940 66Q937 67 930 67Q918 67 899 57Q882 48 875 46Q844 36 798 31V28Q798 22 808 22Q816 22 817 18Q816 12 808 8Q800 4 793 4Q770 0 747 -5Q735 -5 735 5V6Q735 14 741 16Q747 18 754 19Q770 18 773 31L770 33Q763 32 756 31Q752 31 751 33Q698 21 657 21Q649 22 640 22Q615 26 590 29Q587 29 584 28Q606 11 659 11Q671 12 682 12Q693 13 704 14Q717 14 721 6Q716 -11 696 -11Q687 -10 677 -10H640Q605 -7 571 -3Q538 2 523 25Q525 31 537 31Q547 31 548 40Q522 42 506 53Q491 65 473 78Q472 91 463 98Q454 105 443 105Q433 105 422 99Q409 90 406 72Q402 55 395 39Q393 35 389 32Q383 28 382 27Q375 17 370 4Q364 -10 355 -15Q356 -18 359 -20Q364 -22 365 -23V-28L366 -30Q379 -36 391 -62Q400 -81 405 -87Q405 -123 420 -128V-123Q417 -105 414 -87Q414 -83 415 -81Q431 -94 437 -144Q445 -216 448 -227Q457 -253 460 -282Q460 -298 451 -309Q443 -305 446 -286Q438 -228 429 -170Q410 -175 410 -178Q414 -186 420 -192Q426 -232 432 -273Q433 -292 434 -312Q437 -340 439 -369Q439 -380 437 -385Q433 -391 428 -391Q434 -399 435 -407Q435 -412 434 -415Q440 -421 446 -427Q454 -431 458 -437Q458 -439 449 -445Q436 -454 432 -459Q427 -467 427 -488Q423 -493 410 -498Q400 -502 395 -508Q385 -522 385 -540Q386 -565 400 -584Q413 -604 429 -611Q430 -640 442 -650Q455 -660 473 -670Q483 -677 491 -684Q500 -692 509 -694Q509 -689 502 -680Q494 -669 494 -664Q494 -657 498 -654Q512 -655 539 -663Q569 -672 590 -672Q592 -675 594 -678Q605 -679 632 -687Q671 -698 682 -698Q689 -698 692 -697Q676 -686 650 -681Q624 -675 602 -669Q578 -662 555 -657Q532 -651 520 -634Q525 -630 536 -630Q548 -630 600 -645Q668 -663 736 -681Q753 -685 769 -688Q785 -691 798 -703Q795 -710 782 -710H770Q761 -710 757 -714Q764 -724 786 -730Q804 -735 810 -740H817Q835 -743 853 -747L855 -745Q853 -739 851 -734V-732Q861 -733 873 -741Q887 -751 897 -751H902Q894 -743 883 -735Q873 -727 872 -710Q873 -706 873 -703Q877 -704 899 -714Q895 -706 889 -700Q884 -694 883 -681V-678L885 -677Q889 -680 895 -683L897 -682Q888 -665 888 -630V-607Q888 -592 887 -584Q876 -583 870 -561Q751 -549 682 -518Q682 -513 688 -504Q692 -497 692 -493V-489L689 -488Q686 -488 682 -495Q677 -504 672 -504H670Q667 -498 667 -493Q668 -480 675 -468Q682 -457 687 -449H688Q693 -449 693 -458V-462Q693 -468 696 -470H697Q703 -470 703 -446V-440Q718 -444 750 -467Q753 -483 763 -489Q774 -495 785 -501Q794 -501 803 -502Q812 -502 819 -498Q828 -505 837 -512V-510Q835 -502 833 -495Q839 -496 847 -507Q857 -520 865 -521V-519Q865 -515 858 -505Q847 -490 847 -480Q847 -477 848 -475Q852 -475 857 -480Q861 -484 864 -484Q861 -475 861 -467Q861 -449 872 -444Q879 -414 883 -385Q883 -375 878 -362Q870 -358 861 -355Q859 -354 855 -349Q850 -343 846 -343H844Q846 -356 853 -363Q859 -371 864 -380Q860 -389 851 -389Q843 -389 835 -380Q828 -371 826 -360Q822 -360 820 -366Q806 -355 797 -320Q796 -315 785 -263Q787 -259 787 -256Q787 -251 786 -247Q786 -239 791 -237Q798 -245 803 -277Q807 -300 812 -311L816 -310Q821 -310 826 -316Q831 -323 835 -323Q814 -256 814 -217V-213Q791 -189 773 -159L769 -160Q767 -160 758 -153Q743 -154 727 -172Q715 -186 708 -189V-191Q707 -204 701 -212Q695 -220 693 -228Z"/>
</svg>