<svg xmlns="http://www.w3.org/2000/svg" viewBox="0 -800 1024 1024">
	<path fill="#000000" d="M798 -693Q796 -687 791 -685Q785 -683 780 -680Q780 -694 792 -694Q796 -694 798 -693ZM408 49H404Q392 49 383 42Q386 37 392 37Q406 38 408 49ZM801 -452V-451Q793 -448 784 -445Q781 -445 778 -448V-449Q780 -460 791 -460Q801 -460 801 -452ZM893 -212H898L900 -211Q896 -207 892 -203Q899 -191 908 -182Q907 -180 907 -176Q911 -164 917 -153Q889 -119 877 -109Q828 -120 748 -120Q696 -120 646 -115Q640 -112 638 -95Q637 -84 634 -79Q630 -82 628 -94Q626 -107 621 -110H618Q612 -108 607 -104V-96Q604 -48 601 0Q601 35 613 52Q623 48 627 23Q631 0 640 -5V2Q640 30 652 48Q643 72 633 95Q623 118 600 129Q590 123 569 116Q546 109 538 104Q521 91 504 80Q491 73 468 67Q434 58 420 49Q424 49 428 48Q456 52 483 58Q468 51 433 40Q386 26 368 11Q391 13 423 25Q462 39 489 40Q472 35 459 23Q479 25 499 27Q513 27 523 13Q534 -2 539 -52Q542 -86 547 -101Q542 -101 537 -102Q501 -102 489 -92Q482 -85 482 -65Q482 -42 488 -32Q472 -12 451 4Q445 1 437 1Q428 1 426 7Q393 -17 360 -41Q368 -54 372 -68Q365 -69 352 -69Q313 -69 273 -52Q234 -36 214 -24Q200 -13 188 -2Q176 10 157 11Q149 11 138 8Q120 -1 101 -11Q90 -15 80 -18Q69 -21 64 -30Q63 -34 63 -41Q63 -55 69 -65Q74 -74 79 -86Q85 -104 90 -116Q95 -128 110 -128Q113 -127 116 -127Q138 -136 157 -148Q176 -160 202 -165Q195 -159 186 -154Q177 -148 174 -137H176Q188 -138 199 -140Q204 -140 208 -137Q205 -131 192 -129Q180 -127 177 -122V-121Q177 -118 180 -117Q182 -116 184 -115Q214 -124 245 -129Q276 -134 304 -148Q298 -151 292 -151Q274 -147 256 -144Q253 -144 247 -146Q274 -163 313 -169Q351 -175 384 -181Q394 -194 405 -205Q403 -209 403 -213Q406 -223 408 -233Q417 -239 426 -245Q440 -243 454 -241Q459 -231 459 -227Q459 -222 455 -215Q458 -207 473 -194Q489 -201 511 -203Q532 -205 551 -209Q553 -210 553 -216V-218Q553 -225 556 -225Q550 -238 533 -250V-255Q533 -278 547 -294Q555 -303 577 -316Q599 -312 621 -308V-309Q621 -310 616 -316Q610 -323 609 -329Q586 -327 562 -325Q563 -335 572 -338Q580 -341 587 -346Q585 -356 573 -356Q565 -355 556 -354Q509 -350 489 -345Q451 -336 439 -319H443Q467 -322 491 -326Q497 -326 503 -327Q516 -327 520 -319Q477 -313 436 -292Q407 -277 368 -248Q340 -253 322 -280Q323 -283 323 -289Q323 -300 311 -315Q300 -328 300 -338Q305 -360 322 -374Q330 -380 350 -387Q371 -395 380 -400Q408 -420 427 -440Q366 -438 323 -413Q279 -387 233 -365Q206 -373 200 -376Q184 -383 175 -397Q175 -401 177 -409Q149 -436 144 -479Q144 -506 169 -520Q180 -559 214 -575Q249 -591 283 -608V-607Q283 -600 270 -592Q256 -583 255 -575Q272 -566 297 -566Q310 -566 323 -569V-558Q320 -558 316 -559Q293 -557 290 -541Q290 -536 294 -532Q379 -543 462 -583Q455 -585 442 -585Q400 -580 363 -566Q363 -569 360 -569Q357 -570 357 -573V-574Q363 -581 371 -581Q379 -581 387 -583Q428 -593 468 -604Q465 -626 461 -648Q457 -670 446 -685Q446 -688 451 -688Q434 -716 390 -719Q396 -726 407 -729Q417 -733 427 -736Q427 -739 421 -740Q418 -740 417 -743Q438 -754 459 -775Q483 -802 522 -806Q532 -806 544 -803Q552 -801 564 -787Q572 -777 578 -773H575Q564 -773 550 -781Q538 -775 538 -769Q548 -763 561 -745Q576 -725 587 -719Q591 -720 591 -726Q590 -735 588 -745Q588 -748 590 -752Q615 -735 615 -713V-709Q609 -697 594 -680Q577 -657 577 -640Q577 -632 578 -627Q623 -638 668 -652Q712 -666 766 -674L767 -671Q765 -666 762 -662V-661Q769 -657 778 -657Q789 -657 812 -664Q832 -670 840 -671Q834 -667 816 -661Q793 -653 785 -644H792Q803 -644 815 -646Q805 -640 794 -635Q783 -630 780 -617Q780 -612 785 -612Q788 -612 790 -613Q783 -606 783 -592Q783 -575 796 -575H798Q788 -571 784 -557Q787 -549 790 -542Q781 -537 771 -533Q762 -529 760 -517Q703 -514 642 -500Q640 -499 539 -472Q542 -466 542 -462Q538 -444 527 -433Q496 -427 485 -403Q530 -407 566 -418Q565 -422 565 -428Q565 -454 595 -454Q622 -454 637 -439Q647 -449 658 -449H661Q655 -447 655 -439Q655 -432 658 -429Q667 -435 676 -442Q684 -448 698 -449Q681 -438 681 -423Q681 -414 689 -409Q707 -417 722 -426Q736 -435 756 -436H760Q745 -427 730 -418Q715 -409 705 -395Q706 -392 711 -385Q716 -377 717 -371Q739 -373 760 -376Q749 -369 730 -360V-359Q730 -356 735 -356H738Q740 -356 742 -354Q739 -349 733 -343Q725 -336 723 -331Q729 -308 729 -305Q728 -301 722 -301Q717 -301 716 -299Q715 -296 715 -291Q715 -284 717 -274Q710 -284 696 -284Q684 -283 672 -283Q661 -283 652 -288Q655 -281 664 -273Q673 -265 674 -253Q667 -245 665 -231V-227Q669 -226 676 -226Q697 -228 718 -230Q727 -230 736 -227Q729 -219 703 -217Q675 -215 670 -205Q674 -196 692 -196Q693 -196 732 -199Q803 -205 830 -219Q828 -232 810 -232Q797 -231 783 -230Q776 -230 774 -233Q783 -240 805 -244Q808 -245 842 -250Q837 -248 834 -244Q842 -226 864 -226Q871 -226 896 -231Q895 -228 891 -225Q885 -220 884 -215Q885 -212 893 -212Z"/>
</svg>