<svg xmlns="http://www.w3.org/2000/svg" viewBox="0 -800 1024 1024">
	<path fill="#000000" d="M759 -141Q744 -149 743 -165Q744 -167 751 -167Q755 -154 759 -141ZM889 -669V-668Q890 -665 891 -662Q881 -658 870 -654V-656Q870 -671 882 -671Q883 -671 889 -669ZM731 -462Q729 -458 719 -457Q710 -456 709 -453Q707 -453 706 -455Q706 -458 704 -458Q706 -467 729 -467Q729 -462 731 -462ZM143 89H132L131 85Q131 75 149 66L150 69Q147 79 143 89ZM653 -210H655Q646 -199 646 -179Q646 -162 658 -159Q655 -150 655 -141Q656 -126 657 -111Q657 -93 650 -83Q634 -80 617 -80Q605 -80 592 -81Q591 -85 589 -89Q553 -98 534 -138Q531 -157 528 -176V-184Q528 -188 532 -188L529 -206H531Q536 -204 540 -203Q546 -205 555 -212Q568 -222 577 -222Q581 -222 584 -221Q595 -218 603 -210Q610 -202 618 -197Q630 -203 642 -209Q641 -203 639 -198H640Q642 -198 645 -203Q649 -210 653 -210ZM926 -222V-218Q926 -211 925 -205Q925 -202 926 -200Q911 -188 894 -180Q871 -180 836 -194Q802 -207 781 -207Q776 -205 770 -204Q768 -204 765 -207Q768 -211 778 -213Q787 -215 790 -218Q786 -231 763 -246Q741 -261 738 -278Q716 -295 694 -312H705Q711 -312 715 -314L717 -315Q715 -317 712 -320L713 -321H715Q726 -321 742 -331Q758 -341 768 -342Q797 -343 822 -345Q848 -347 854 -374H857L858 -370Q855 -358 852 -346Q852 -343 854 -339Q862 -334 869 -334Q875 -334 895 -344Q891 -336 891 -332Q893 -311 916 -309L919 -308Q915 -306 915 -304L916 -302Q926 -281 929 -261Q929 -253 926 -246Q922 -247 917 -255Q911 -264 906 -264Q902 -264 900 -263Q896 -232 891 -201Q892 -197 892 -194Q901 -195 911 -210Q919 -222 926 -222ZM385 -14V3Q383 9 372 17Q361 25 361 31Q353 38 341 38Q324 36 307 33Q292 35 277 36H273Q248 34 222 32Q194 32 174 49Q171 52 169 57Q167 62 161 63L160 60Q165 51 176 42Q190 30 195 21Q192 8 176 8Q169 8 161 12V9Q161 4 165 -2Q156 -18 134 -18Q119 -18 85 -7Q64 0 54 1Q69 -10 102 -24Q131 -36 141 -42V-45Q140 -55 132 -57Q124 -59 114 -60Q118 -65 123 -65Q128 -64 133 -64L137 -65Q156 -75 159 -98V-99Q157 -113 144 -121Q129 -130 124 -144Q148 -129 176 -117Q203 -125 229 -132Q230 -144 231 -156Q231 -162 230 -165H233Q238 -156 240 -146Q242 -135 254 -134Q258 -134 261 -135Q263 -135 264 -141Q264 -145 266 -146Q274 -136 301 -132Q307 -121 327 -106Q352 -87 358 -71Q348 -73 335 -86Q321 -100 307 -101Q304 -95 304 -90Q305 -78 316 -73Q327 -67 335 -62Q343 -56 352 -41Q361 -26 368 -21Q375 -23 375 -30Q372 -41 368 -53H371Q379 -53 384 -44Q389 -36 389 -27Q387 -20 385 -14ZM777 84V82Q776 79 775 75Q786 71 797 66Q791 55 769 55Q748 57 726 58Q721 58 716 57Q714 63 714 64Q714 72 732 74Q751 77 751 86Q744 84 731 84Q704 87 676 89H670Q662 87 654 84Q651 83 646 83H637Q630 83 627 82Q621 80 615 78Q611 80 606 81Q587 78 565 69Q563 71 560 72H559Q556 69 552 67Q547 66 547 60Q599 68 674 76Q686 78 695 78Q705 78 710 73Q706 60 688 55Q676 52 648 51Q590 48 498 15Q494 16 492 21Q493 27 505 32Q516 37 516 44Q516 47 515 49Q504 47 495 40Q486 33 479 27Q462 15 444 3Q417 -24 417 -71Q417 -81 418 -86Q425 -110 429 -138Q429 -146 426 -155Q430 -155 432 -151Q435 -147 438 -147H439L440 -148Q439 -150 437 -153L438 -155Q442 -154 447 -150Q453 -145 459 -145Q462 -145 464 -146Q478 -129 495 -109Q511 -88 531 -75H538Q549 -68 559 -62Q609 -43 670 -43Q709 -43 735 -53Q739 -61 749 -63Q759 -65 766 -69Q766 -74 760 -81Q754 -88 754 -96V-98Q761 -97 767 -88Q771 -82 774 -80Q751 -123 706 -182Q729 -170 755 -132Q786 -87 800 -75Q790 -91 780 -107Q775 -113 769 -120Q763 -127 762 -137Q776 -128 796 -101Q817 -71 834 -63L836 -67Q833 -70 830 -78V-81Q836 -79 847 -66Q863 -48 877 -45Q882 -28 895 -18Q897 3 903 19Q892 46 877 67Q868 64 867 64Q841 85 795 85Q783 85 777 84ZM863 -540V-539Q863 -536 867 -533Q870 -531 871 -528Q855 -525 848 -509Q844 -500 840 -474Q832 -478 820 -478Q807 -478 783 -472Q759 -466 750 -466Q747 -466 743 -467Q748 -474 766 -479Q770 -480 780 -482Q791 -484 792 -489Q792 -494 774 -498Q770 -499 760 -499Q739 -499 688 -483Q648 -474 610 -466Q572 -459 555 -438Q561 -432 570 -432Q595 -437 619 -442Q629 -442 635 -435Q603 -429 552 -411Q548 -395 548 -381Q548 -373 549 -369Q595 -387 623 -392L624 -390Q624 -387 619 -384Q614 -380 614 -379L615 -377Q635 -382 655 -387Q644 -377 641 -374Q633 -365 633 -355Q633 -352 635 -344L638 -343Q643 -345 648 -347V-345Q646 -337 641 -332Q656 -317 657 -305Q646 -287 633 -254Q598 -254 561 -242Q542 -236 497 -216Q485 -211 467 -196Q450 -182 441 -179Q433 -177 427 -177Q406 -177 396 -185Q388 -194 380 -215Q375 -224 369 -233Q363 -241 362 -251Q362 -259 371 -270Q368 -280 368 -289Q368 -342 475 -345Q478 -349 478 -355Q476 -368 474 -382Q474 -387 475 -390Q456 -386 386 -362Q376 -358 372 -358Q366 -358 362 -365Q373 -372 403 -381Q440 -392 453 -404Q450 -411 439 -411Q419 -408 397 -401Q368 -395 331 -385Q295 -375 279 -350Q285 -344 292 -344Q307 -347 322 -351Q326 -351 329 -350Q317 -338 301 -330Q284 -323 269 -314Q265 -309 255 -304Q245 -299 241 -295Q234 -288 228 -280Q223 -273 212 -272Q202 -272 179 -285Q172 -293 165 -299H164Q159 -297 153 -295H152Q117 -305 100 -344Q96 -354 96 -374V-378Q101 -396 106 -407Q107 -410 107 -415Q106 -426 105 -437Q113 -490 153 -513Q160 -517 179 -523Q203 -531 215 -540Q227 -550 241 -560Q254 -570 272 -575Q268 -568 250 -555Q227 -538 227 -525Q227 -522 229 -516Q235 -522 240 -529Q244 -536 254 -537Q251 -528 247 -519Q253 -516 258 -516Q264 -516 276 -520Q291 -525 298 -525Q301 -524 304 -524Q328 -539 423 -555Q446 -560 449 -561Q465 -566 467 -575Q468 -577 468 -580Q467 -590 460 -596Q453 -602 447 -606Q446 -613 438 -625Q431 -636 429 -645Q425 -647 420 -650Q419 -658 413 -673Q406 -692 406 -701V-705Q407 -723 436 -752Q470 -788 500 -788Q509 -788 513 -786Q519 -780 521 -773H525Q536 -770 547 -767H550Q561 -757 568 -747Q578 -730 578 -728L577 -725L575 -724Q572 -724 563 -734Q553 -746 547 -746Q541 -746 537 -738Q554 -706 572 -663Q580 -650 586 -650H587Q597 -651 597 -662Q594 -678 591 -695Q591 -699 592 -701Q602 -700 607 -689Q612 -678 612 -664Q612 -652 609 -642Q605 -634 596 -623Q587 -611 586 -598V-594Q639 -604 692 -615Q725 -625 754 -635H765Q769 -635 771 -636Q779 -639 791 -652Q800 -662 806 -666Q806 -662 805 -659Q807 -644 815 -636Q838 -643 861 -651Q859 -647 848 -642Q833 -636 832 -624Q834 -622 837 -622Q847 -625 857 -629Q859 -629 861 -627Q857 -622 850 -619Q843 -617 842 -607V-603L845 -602H852Q852 -572 860 -551H863Q868 -551 872 -552H874Q873 -550 869 -547Q864 -544 863 -540Z"/>
</svg>