<svg xmlns="http://www.w3.org/2000/svg" viewBox="0 -800 1024 1024">
	<path fill="#000000" d="M832 -229Q828 -213 820 -206Q818 -212 818 -217Q818 -230 828 -230ZM879 -603V-601Q879 -593 873 -589Q871 -588 860 -584V-588Q860 -604 873 -604Q876 -603 879 -603ZM284 -530L267 -558Q272 -563 272 -564L270 -565H269Q258 -556 246 -548Q249 -541 252 -533Q254 -524 262 -521Q275 -523 284 -530ZM302 -433H305Q303 -457 294 -474H292Q273 -474 273 -459Q273 -444 285 -432H288Q295 -432 302 -433ZM355 -444H364Q378 -492 379 -496Q371 -498 368 -498Q349 -498 349 -467Q349 -453 352 -443ZM398 -624V-627Q383 -618 343 -602Q302 -586 284 -573Q304 -571 323 -571Q342 -571 351 -555Q364 -561 377 -564Q383 -564 386 -562Q394 -593 398 -624ZM504 -518H505Q502 -511 499 -504Q499 -501 500 -499Q529 -504 568 -514Q634 -530 659 -533Q654 -545 636 -545Q632 -545 628 -543Q632 -549 636 -556Q634 -556 631 -557Q621 -556 612 -549Q603 -543 594 -539Q609 -553 620 -568Q599 -581 592 -605Q619 -621 636 -621Q646 -621 654 -617Q661 -631 685 -657Q654 -655 623 -636Q607 -622 592 -615H589Q566 -615 544 -628Q544 -634 543 -638Q542 -643 534 -643Q527 -639 526 -620Q525 -604 521 -600Q512 -602 511 -603Q513 -609 513 -610Q513 -612 511 -618Q488 -615 477 -591Q472 -580 463 -542Q468 -542 470 -537Q484 -546 490 -565Q495 -582 511 -587Q491 -547 490 -510Q497 -514 504 -518ZM836 34V36Q832 71 807 81Q804 82 798 82Q785 82 758 72Q726 60 711 60H706V58Q705 52 703 45Q728 45 747 39Q735 30 702 27Q694 26 645 25Q652 32 667 34Q682 36 684 51Q607 42 577 40H561Q536 40 526 36Q474 36 416 43Q398 46 397 46Q388 46 383 40Q429 26 487 26Q545 26 607 24Q603 15 585 15Q582 15 546 18H533Q505 18 477 17Q460 17 451 18Q389 23 326 27Q292 30 273 45Q276 47 286 47H298Q316 47 317 58Q313 57 305 57Q279 57 240 84Q226 94 212 104Q197 113 184 114Q168 114 158 93H153Q130 93 115 79Q100 65 100 46Q100 30 108 18Q107 14 107 6Q107 -24 148 -43Q173 -55 219 -65Q215 -59 204 -53Q188 -44 185 -35Q186 -28 196 -28Q204 -28 211 -29Q223 -28 234 -28Q275 -28 346 -36Q409 -43 429 -44V-47Q429 -60 425 -68Q418 -73 404 -73Q389 -73 374 -68Q369 -67 355 -60Q341 -53 333 -53Q329 -53 327 -54Q330 -59 332 -64Q332 -66 327 -66Q328 -69 334 -71Q339 -72 340 -74Q325 -102 305 -108L304 -105Q304 -101 310 -93Q317 -84 317 -79Q317 -75 315 -72Q302 -84 288 -93V-101Q288 -120 300 -131Q299 -135 299 -141Q299 -159 315 -172Q327 -182 346 -188L347 -185Q347 -182 343 -179Q338 -175 338 -172Q338 -171 340 -167Q350 -162 360 -162Q387 -166 413 -173V-175Q413 -176 409 -180Q404 -184 404 -188V-190Q404 -193 407 -194Q411 -195 411 -197V-217Q420 -228 436 -228Q453 -226 469 -225Q475 -225 478 -226Q495 -217 508 -186Q513 -185 522 -185Q549 -185 579 -201Q570 -207 533 -222Q535 -223 538 -223Q552 -221 565 -219H567Q540 -232 500 -240Q504 -241 512 -241Q540 -238 567 -236H573Q596 -238 609 -261Q620 -281 620 -311Q620 -352 604 -384Q602 -388 592 -390Q619 -421 653 -421Q664 -421 675 -417Q689 -436 706 -455Q678 -452 653 -441Q629 -431 605 -424V-426L603 -427H598Q621 -445 649 -457Q678 -469 705 -482L703 -484H696V-485Q649 -470 602 -454Q555 -439 526 -405L530 -404Q535 -404 546 -410Q555 -415 561 -415Q566 -415 570 -411Q566 -403 557 -401Q548 -398 540 -395Q522 -384 509 -372Q488 -379 467 -387Q454 -359 444 -352Q415 -361 379 -377Q370 -386 359 -390Q352 -390 352 -377Q354 -375 356 -375Q360 -375 362 -380Q393 -364 393 -343Q393 -336 389 -329Q379 -323 368 -318Q357 -313 351 -303Q371 -317 424 -335Q468 -350 482 -357Q480 -352 470 -344Q461 -337 459 -330H461Q468 -333 480 -337Q483 -337 485 -336Q478 -332 469 -328Q460 -324 459 -314V-313Q459 -309 466 -309H470Q461 -301 461 -290Q461 -285 463 -275Q383 -245 354 -219Q352 -224 348 -224L346 -223Q350 -234 376 -248Q395 -258 402 -266Q361 -260 326 -239Q297 -227 271 -214Q245 -201 231 -174H234Q255 -177 275 -180Q270 -172 259 -167Q247 -157 236 -144Q224 -132 207 -126Q141 -152 141 -178Q141 -187 149 -195Q144 -208 144 -217Q144 -241 166 -262Q180 -275 208 -292Q199 -278 195 -261Q198 -257 201 -254Q225 -262 251 -268Q277 -274 294 -286Q293 -289 290 -289Q284 -287 278 -285Q270 -293 253 -298L250 -300Q253 -303 255 -307V-308Q253 -310 251 -310Q246 -309 241 -308H240Q265 -347 296 -352V-375Q286 -374 280 -368Q275 -362 270 -355H264Q239 -356 225 -368Q212 -379 195 -387Q197 -397 197 -403Q197 -422 184 -448Q177 -461 161 -487Q153 -495 150 -504Q150 -508 152 -510Q162 -509 175 -487Q188 -465 199 -465H202Q192 -517 127 -555Q123 -551 118 -548Q121 -543 126 -537Q135 -527 136 -521H135Q132 -521 125 -526Q113 -534 108 -534H106Q91 -559 91 -589Q91 -619 109 -636Q99 -653 90 -672Q95 -670 102 -662Q109 -655 114 -652Q117 -655 120 -659Q106 -680 94 -705Q109 -694 120 -684Q130 -674 141 -670L145 -671V-673Q145 -677 140 -683Q133 -691 133 -696Q145 -689 156 -680Q167 -672 182 -671Q188 -671 191 -672Q204 -654 219 -637Q311 -679 405 -728Q450 -756 475 -756Q489 -756 503 -749Q507 -750 514 -757Q520 -762 526 -763L527 -761Q526 -753 524 -745V-744Q525 -738 534 -731Q543 -724 544 -720Q547 -721 571 -737Q577 -730 584 -730Q590 -730 602 -734V-733Q602 -726 591 -722Q580 -719 580 -712Q584 -706 592 -706Q597 -706 622 -715Q672 -732 705 -746Q697 -748 693 -748Q680 -748 656 -739Q641 -733 633 -732Q640 -743 653 -747Q667 -752 681 -756Q698 -763 705 -769Q730 -788 756 -788Q762 -787 768 -787Q787 -781 809 -777Q812 -777 815 -778Q817 -766 824 -760Q839 -774 862 -780Q843 -768 843 -752Q843 -745 847 -740Q852 -740 856 -744Q861 -749 866 -749Q858 -740 858 -720Q858 -697 866 -683Q861 -667 844 -663Q827 -659 811 -654L810 -657Q811 -665 820 -666H821Q818 -670 812 -670Q807 -670 792 -665Q761 -657 740 -639Q725 -627 725 -623Q725 -622 727 -618Q737 -623 751 -632Q764 -641 780 -642Q788 -642 792 -640Q771 -626 751 -611Q731 -596 717 -574Q718 -572 722 -568Q728 -563 728 -556V-552Q740 -555 800 -573Q803 -575 808 -583Q814 -592 820 -594V-584Q820 -577 818 -574Q826 -564 840 -564Q850 -564 851 -573Q854 -563 859 -553Q863 -543 872 -537Q876 -538 882 -543Q891 -550 898 -550Q902 -550 905 -549Q883 -540 880 -526Q880 -516 902 -512Q899 -509 894 -506Q890 -504 888 -499Q891 -490 891 -485Q888 -467 876 -450Q829 -443 786 -416Q759 -399 715 -361Q694 -328 694 -294Q697 -275 699 -257Q699 -249 696 -245Q684 -249 684 -280Q683 -312 672 -315Q662 -311 662 -292Q663 -282 663 -272Q664 -249 666 -228Q669 -207 685 -201Q690 -204 692 -216Q694 -227 696 -229Q708 -217 708 -191V-188Q706 -172 688 -162Q672 -153 650 -153Q627 -153 616 -165Q612 -164 610 -157Q608 -152 607 -151Q612 -132 622 -123Q608 -119 604 -90H602Q595 -90 585 -85Q577 -81 571 -81Q567 -81 565 -82Q565 -83 568 -98Q572 -97 576 -97Q581 -97 585 -99Q583 -110 560 -110Q535 -107 509 -104Q512 -98 528 -97Q544 -96 546 -89Q524 -88 513 -83Q499 -76 499 -59V-53Q503 -52 511 -52Q536 -54 558 -59Q576 -62 615 -62H641Q703 -62 725 -78Q739 -88 753 -119Q767 -150 782 -157Q776 -141 770 -124Q764 -108 763 -88Q763 -80 764 -75Q775 -105 785 -136Q795 -167 814 -189Q806 -163 797 -134Q787 -105 786 -76V-65Q786 -66 801 -106Q810 -131 823 -140Q819 -127 813 -109Q806 -91 805 -73Q805 -57 815 -48Q814 -44 814 -38Q814 -23 825 -1Q836 21 836 34Z"/>
</svg>