<svg xmlns="http://www.w3.org/2000/svg" viewBox="0 -800 1024 1024">
	<path fill="#000000" d="M961 -223H964Q963 -217 961 -212Q954 -209 946 -206L945 -210Q946 -222 961 -223ZM304 -200Q301 -215 301 -229Q301 -249 309 -290Q315 -319 316 -335Q315 -338 311 -338Q308 -337 305 -337L301 -338Q318 -350 323 -371Q323 -377 320 -383Q303 -368 276 -351Q248 -335 240 -314Q238 -302 238 -296Q238 -276 254 -240Q269 -207 270 -187Q287 -193 304 -200ZM452 -445V-442Q451 -426 431 -400Q416 -381 412 -371Q399 -335 387 -287Q374 -240 371 -199Q371 -183 370 -168Q370 -134 377 -121Q372 -100 366 -80Q345 -89 327 -89Q306 -89 279 -79Q267 -72 267 -44Q263 -42 255 -41Q243 -40 240 -36Q215 -47 199 -68Q184 -90 166 -110Q168 -114 177 -128Q181 -124 184 -114Q189 -98 196 -95Q199 -96 201 -99Q204 -104 206 -104Q185 -200 154 -253Q148 -250 141 -248V-246Q141 -226 153 -201Q164 -178 165 -161Q149 -167 136 -197Q123 -228 107 -236Q99 -237 91 -239Q65 -248 33 -304Q14 -336 14 -365Q14 -382 18 -401Q23 -422 46 -437Q50 -454 59 -472V-477Q57 -495 54 -513Q54 -520 58 -527Q63 -495 77 -473Q80 -476 80 -479Q77 -492 74 -506Q74 -509 76 -515Q82 -504 88 -491Q93 -478 104 -476V-478Q103 -486 101 -495Q101 -497 103 -501Q107 -482 119 -474Q132 -465 146 -460Q173 -453 188 -429Q199 -436 212 -438Q218 -438 221 -436Q219 -431 209 -425Q195 -416 195 -406Q195 -404 197 -398Q218 -407 252 -431Q295 -462 323 -470V-472Q323 -476 316 -481Q301 -478 280 -467Q257 -454 242 -452Q245 -467 259 -477Q273 -486 286 -496Q296 -505 305 -516Q314 -526 324 -532Q337 -538 351 -543Q364 -549 372 -561Q375 -552 380 -545Q385 -550 393 -562Q402 -577 409 -581Q403 -563 403 -547Q403 -540 404 -538L406 -537L410 -538L412 -536Q413 -515 433 -489Q452 -464 452 -445ZM955 -16H957Q944 23 944 38Q944 50 946 55Q935 55 914 65Q895 74 884 74Q878 74 875 73Q868 71 850 53Q835 35 835 30V27H836Q839 27 847 36Q860 51 868 52Q871 46 871 40Q871 30 853 4Q839 -18 822 -33Q815 -31 815 -22Q817 -11 819 0V2H818Q813 1 809 -5Q806 -12 803 -19Q787 -43 785 -47H776Q755 -45 733 -43Q724 -43 716 -46Q723 -54 754 -58V-61L755 -64Q750 -74 725 -74Q715 -73 704 -73Q678 -72 604 -50Q564 -38 561 -37Q537 -27 529 -11Q545 -12 579 -24Q612 -36 628 -38Q634 -38 639 -39Q655 -39 662 -32Q656 -25 647 -23Q639 -22 631 -20Q563 -2 529 12Q476 35 448 70Q422 69 408 49Q398 35 391 2Q381 -22 377 -47V-52Q379 -59 387 -66Q395 -74 401 -79Q420 -100 424 -107Q431 -107 433 -105Q440 -129 475 -159Q506 -185 514 -205Q519 -197 521 -188Q523 -178 533 -175Q539 -165 539 -147V-134Q539 -121 541 -115Q559 -119 578 -127Q579 -137 579 -157Q577 -214 575 -272V-289Q559 -280 542 -263Q533 -255 523 -247Q513 -239 500 -238Q492 -238 484 -242Q468 -250 453 -274Q438 -298 436 -319V-322Q436 -340 445 -359Q448 -364 462 -388V-389Q464 -392 468 -392Q494 -454 526 -514V-513Q524 -499 521 -486Q521 -484 523 -478Q528 -481 533 -498Q537 -454 553 -443V-436Q553 -431 561 -407Q586 -416 586 -472Q586 -488 584 -520V-588Q584 -632 577 -651Q567 -677 539 -682Q562 -731 634 -782Q656 -777 662 -776Q679 -745 704 -740Q716 -708 733 -679Q722 -642 707 -613H698Q695 -617 695 -624Q695 -633 701 -649Q708 -667 708 -673V-676Q708 -693 700 -707Q692 -722 678 -727Q674 -722 674 -714Q679 -694 683 -674Q679 -653 674 -633Q667 -596 667 -575Q667 -556 672 -547Q678 -551 683 -571Q687 -588 699 -589Q690 -540 687 -477V-464Q703 -473 719 -482Q715 -495 710 -509Q722 -531 750 -531Q783 -531 825 -501Q830 -501 834 -506Q838 -511 843 -511H844Q844 -492 855 -487Q859 -489 868 -499Q879 -511 886 -511Q882 -502 876 -493Q869 -483 868 -469L871 -467Q876 -471 884 -475H886Q880 -458 880 -438Q885 -385 890 -333Q890 -321 889 -316Q879 -314 861 -298Q819 -300 800 -326Q780 -352 763 -380Q712 -372 669 -338Q667 -311 665 -284Q659 -285 658 -299Q658 -308 655 -311H652Q641 -311 639 -302Q637 -291 637 -274Q637 -252 636 -230Q636 -181 649 -164Q656 -173 656 -196Q656 -205 655 -214Q655 -240 665 -248Q667 -237 667 -212V-189Q667 -159 672 -143Q707 -153 741 -163Q730 -195 730 -244Q737 -250 745 -254V-277Q754 -266 763 -256Q793 -246 811 -224Q828 -202 849 -184Q855 -187 860 -192Q865 -196 874 -197H877Q871 -185 868 -171Q868 -167 869 -164Q882 -172 898 -183Q914 -194 933 -200V-198Q933 -195 917 -182Q910 -176 901 -170Q893 -164 890 -154Q889 -151 889 -145Q889 -128 908 -118Q919 -120 932 -128Q950 -139 963 -139H967Q955 -132 938 -121Q921 -110 919 -94Q919 -91 923 -83Q927 -77 945 -75Q961 -73 967 -68Q938 -64 936 -50V-49Q936 -41 941 -30Q947 -16 955 -16Z"/>
</svg>