<svg xmlns="http://www.w3.org/2000/svg" viewBox="0 -800 1024 1024">
	<path fill="#000000" d="M245 10Q244 15 237 18Q232 21 231 22Q226 20 226 16Q226 9 238 9Q243 9 245 10ZM900 -592Q900 -577 884 -575Q883 -577 883 -580Q885 -592 895 -593Q898 -593 900 -592ZM788 68H782Q772 68 760 64Q760 56 773 56Q788 56 788 66ZM727 -386V-389Q727 -394 721 -398Q719 -395 716 -393L715 -394Q716 -403 721 -407Q725 -411 729 -416H724Q699 -416 675 -403Q684 -399 688 -391Q693 -384 698 -376Q713 -379 727 -386ZM646 -395V-397Q620 -396 599 -381Q576 -365 570 -338Q612 -340 640 -355Q640 -358 639 -362Q643 -378 646 -395ZM243 -223V-219Q243 -204 259 -175Q271 -153 274 -140Q294 -148 302 -152Q312 -227 317 -299Q296 -281 275 -263Q245 -236 243 -223ZM940 67H936Q906 67 899 84Q879 80 859 76Q837 75 820 67Q820 60 828 60Q833 61 837 61Q857 64 876 66Q888 66 894 59Q877 46 839 40Q820 37 769 34Q751 33 715 33Q639 33 585 43Q584 43 551 53Q544 54 538 55Q531 56 530 64V65Q534 66 544 66Q593 61 641 55Q651 54 670 54Q696 54 742 58Q742 67 729 67H720Q627 68 600 71Q537 78 510 102H508Q493 102 479 92Q465 82 465 70Q465 59 477 50Q467 30 467 23Q467 16 469 13Q482 3 492 -10Q496 -9 505 -9Q545 -13 579 -23Q580 -28 580 -34Q580 -55 566 -89Q555 -115 555 -131V-136Q551 -143 544 -152Q537 -160 536 -169L537 -173Q543 -172 549 -163Q555 -154 563 -154L564 -156Q562 -162 559 -168L560 -172Q567 -171 575 -164Q580 -159 585 -158Q598 -161 610 -164H612Q620 -162 634 -144Q647 -128 649 -119Q652 -111 652 -93Q652 -65 647 -52Q646 -49 641 -44Q637 -40 637 -37L638 -34Q640 -32 646 -32Q653 -32 661 -34Q660 -41 660 -57Q661 -79 661 -102Q661 -152 641 -167Q643 -171 644 -175V-176H640Q609 -176 609 -229Q610 -241 610 -254Q598 -250 586 -250Q575 -250 566 -254Q557 -267 557 -293Q557 -310 563 -322Q534 -274 512 -213Q491 -152 471 -91H473Q482 -91 486 -100Q495 -113 508 -113Q515 -113 520 -109Q525 -111 529 -116Q532 -108 537 -101L539 -100Q541 -100 544 -103Q548 -107 551 -107H554V-106Q551 -99 548 -92Q555 -79 555 -60V-37Q542 -20 529 -14Q514 -15 504 -16Q494 -17 487 -30L483 -31Q479 -30 475 -30H472Q477 -37 477 -43Q474 -61 468 -77Q451 -52 444 -18Q436 16 428 50Q421 47 415 47Q391 49 385 71Q381 68 379 61Q373 63 370 67Q366 64 363 59Q358 50 353 49Q346 12 279 12Q267 13 254 13Q258 5 269 4Q280 3 290 1Q283 0 267 0Q238 1 208 2Q187 2 172 -2Q203 -11 241 -12Q279 -13 314 -17Q308 -23 292 -23H267Q277 -33 299 -34Q324 -36 333 -41Q343 -47 353 -65Q362 -82 367 -86Q366 -89 353 -89Q343 -89 339 -88Q336 -95 325 -96Q314 -97 311 -103Q299 -94 287 -85L284 -53Q277 -51 270 -43Q264 -35 259 -34Q256 -33 249 -33Q236 -33 212 -45Q188 -57 174 -58V-84Q174 -95 175 -100Q180 -100 184 -94Q187 -89 191 -88Q195 -93 195 -102Q195 -115 178 -142Q165 -163 158 -171Q145 -186 130 -191L131 -195Q129 -200 127 -205Q116 -214 104 -214Q84 -214 83 -197V-196Q85 -183 105 -174Q132 -162 153 -149Q168 -136 168 -128Q168 -124 165 -121Q157 -121 154 -127Q150 -132 147 -137Q123 -147 99 -164Q83 -170 61 -178Q38 -186 34 -202Q31 -227 28 -253Q28 -263 31 -271Q42 -286 52 -302Q78 -346 80 -419L89 -427Q91 -422 91 -409Q91 -394 90 -380Q90 -359 99 -350Q100 -351 100 -355Q99 -367 98 -379Q98 -392 107 -392Q111 -357 124 -347Q126 -351 126 -353Q125 -360 123 -367L124 -371Q131 -370 134 -356Q136 -347 139 -344Q159 -338 178 -338H184Q191 -322 195 -320Q257 -351 308 -392Q304 -400 296 -400Q287 -400 274 -392Q266 -388 249 -373Q231 -357 222 -355Q220 -359 220 -361Q220 -367 227 -374Q241 -390 263 -403Q284 -416 302 -429Q306 -440 308 -451Q309 -462 317 -469Q329 -474 354 -475Q367 -477 380 -480Q387 -480 390 -478Q394 -480 403 -488Q414 -498 424 -500Q419 -490 416 -481L419 -479Q423 -481 426 -484H427Q425 -478 425 -475Q425 -460 436 -455V-450Q436 -441 443 -423Q450 -405 450 -393Q450 -386 449 -382Q448 -377 440 -366Q430 -352 430 -342V-341L431 -340Q433 -341 435 -343L437 -341Q431 -331 424 -320Q416 -309 413 -292Q396 -209 391 -127Q404 -147 413 -169Q422 -192 440 -205Q439 -204 412 -140L394 -98Q388 -88 381 -77Q375 -67 374 -55Q374 -50 375 -47Q401 -77 417 -113Q434 -149 450 -187Q465 -210 478 -235Q490 -272 501 -310Q491 -309 482 -287Q473 -266 463 -262Q465 -284 474 -299Q482 -315 490 -331Q476 -343 449 -370V-372Q449 -376 456 -387Q462 -397 462 -403Q458 -413 452 -424V-427Q452 -436 458 -457Q468 -482 495 -518Q496 -516 496 -512Q495 -500 494 -489Q494 -478 501 -476Q508 -478 514 -481Q517 -481 520 -478Q515 -468 511 -455Q511 -449 519 -445Q555 -453 582 -478Q578 -482 570 -482Q556 -480 542 -479H540Q547 -494 560 -495Q573 -497 588 -502Q586 -518 586 -529Q587 -559 588 -590Q588 -647 561 -658Q561 -682 536 -682Q508 -679 493 -662Q498 -689 522 -707Q546 -725 563 -745Q566 -752 569 -760Q574 -768 580 -771Q587 -774 594 -779Q601 -786 607 -793Q612 -801 619 -802Q627 -802 647 -782Q654 -775 661 -770Q668 -765 669 -759Q667 -758 664 -758Q653 -761 642 -765Q638 -765 634 -760Q636 -746 657 -732Q670 -723 675 -716V-714Q673 -698 670 -683Q670 -680 672 -674Q693 -690 699 -719V-722Q698 -729 691 -735Q686 -739 684 -743Q688 -745 691 -745Q711 -741 717 -721Q712 -714 707 -706Q702 -698 701 -686Q726 -690 747 -702Q769 -713 790 -724V-722Q789 -719 786 -714Q782 -708 781 -701V-700Q781 -693 791 -685Q803 -688 815 -691Q820 -691 822 -690Q819 -686 812 -683Q804 -679 802 -676Q802 -673 804 -673Q807 -672 810 -671Q802 -664 802 -655Q802 -639 814 -631Q791 -613 790 -578Q760 -568 728 -561Q696 -554 671 -541Q670 -539 670 -532Q670 -526 671 -523Q679 -523 695 -529Q712 -535 722 -535Q729 -535 736 -532Q733 -523 723 -520Q713 -518 702 -516Q675 -514 674 -496V-495Q676 -492 677 -490Q685 -493 735 -505Q773 -514 790 -527Q789 -539 771 -539Q764 -539 761 -538Q764 -548 781 -553Q799 -558 804 -565H806Q814 -565 823 -571Q832 -577 839 -577H844V-574Q844 -568 836 -564Q831 -561 831 -559L832 -556Q840 -556 853 -563Q870 -572 878 -572H881Q878 -566 868 -560Q857 -553 855 -548Q856 -538 872 -538Q885 -538 897 -539H902Q897 -531 897 -520Q897 -498 908 -485Q898 -442 898 -431Q898 -426 900 -410Q875 -407 859 -392Q849 -394 845 -394Q814 -394 784 -360H772Q765 -353 765 -346Q765 -342 766 -340Q759 -337 751 -323Q737 -314 715 -311Q697 -309 693 -292Q716 -294 743 -303Q770 -312 796 -319Q801 -334 805 -350Q810 -336 811 -319H813Q824 -322 835 -325V-323Q833 -318 831 -313V-311Q839 -313 847 -315Q850 -315 852 -314Q850 -310 843 -305Q834 -299 832 -293V-247Q815 -238 769 -226Q717 -212 696 -200Q704 -199 716 -190Q728 -181 739 -181Q745 -181 748 -182Q743 -175 743 -162Q743 -150 748 -143Q712 -112 712 -49V-37Q718 -38 738 -38Q761 -38 770 -37Q786 -50 808 -66Q830 -82 856 -92Q871 -96 886 -100Q901 -105 905 -118Q906 -120 906 -123Q906 -140 893 -143Q881 -142 881 -124Q821 -95 776 -52Q772 -55 768 -55Q760 -52 752 -49H751L750 -53Q750 -54 755 -62H753Q749 -62 744 -57Q737 -50 733 -50V-51Q734 -61 743 -67Q752 -73 760 -80Q770 -91 784 -112Q801 -138 802 -148Q799 -169 776 -176Q786 -191 810 -212Q837 -239 851 -239H853Q864 -237 878 -216Q895 -190 902 -185Q915 -175 932 -175H941Q921 -164 920 -138Q920 -131 924 -121Q922 -116 915 -105Q907 -93 905 -83Q900 -84 891 -84Q840 -84 805 -44Q811 -43 824 -43Q867 -43 906 -55Q909 -56 908 -60Q908 -64 910 -64H912Q916 -61 916 -51Q916 -43 917 -41H951Q948 -36 939 -34Q929 -32 927 -27Q931 -23 942 -23Q954 -22 957 -20Q954 -15 949 4Q949 11 955 14Q950 42 940 67Z"/>
</svg>