<svg xmlns="http://www.w3.org/2000/svg" viewBox="0 -800 1024 1024">
	<path fill="#000000" d="M925 -256V-253Q925 -239 913 -227Q913 -235 912 -243Q912 -256 921 -256ZM850 -746H847Q837 -744 826 -743V-747Q826 -759 838 -759Q850 -759 850 -747ZM721 -790Q719 -783 713 -778Q709 -774 701 -770Q699 -776 699 -779Q700 -794 712 -796Q717 -796 721 -790ZM666 -205L673 -216Q653 -250 630 -278Q638 -236 666 -205ZM451 -76V-79Q453 -90 454 -102V-105Q431 -103 419 -97Q401 -88 399 -68Q402 -67 406 -67Q428 -71 449 -76ZM826 -664H832Q814 -658 814 -642Q814 -624 832 -608Q826 -611 821 -611Q797 -611 797 -563Q798 -555 798 -548Q786 -564 781 -569Q769 -581 758 -581Q748 -581 741 -575Q731 -591 714 -600Q697 -608 679 -616V-626Q652 -633 642 -658Q631 -683 620 -709L624 -721Q621 -727 616 -731Q610 -734 605 -739Q607 -740 614 -740Q626 -740 636 -736Q643 -742 643 -751Q639 -769 635 -787H637Q643 -787 644 -781Q645 -773 647 -767Q652 -755 660 -746Q663 -752 679 -753Q695 -754 698 -761Q710 -742 725 -742Q739 -742 770 -767Q803 -794 820 -794H821Q802 -779 783 -765Q764 -751 756 -724Q756 -722 759 -720Q762 -718 762 -716V-715Q769 -717 780 -727Q794 -740 808 -740H814Q802 -731 792 -723Q782 -714 781 -700V-698Q782 -682 796 -673Q809 -664 826 -664ZM943 -35V-34Q945 -30 950 -29Q944 -17 944 -4Q944 10 952 34Q960 58 960 69Q960 81 955 90Q928 97 923 100Q908 108 906 123Q901 127 894 127Q879 124 859 114Q846 109 832 103Q818 97 811 87Q809 84 806 71Q790 42 779 19Q784 16 786 11Q798 17 816 36Q835 56 848 62Q851 58 851 52Q850 43 842 36Q834 29 829 23Q815 9 771 -52Q765 -62 759 -73Q752 -84 740 -86Q737 -81 737 -77Q737 -69 748 -56Q762 -40 762 -30V-29Q752 -29 749 -27Q730 -56 710 -86Q695 -78 687 -46Q673 -51 659 -56Q657 -63 645 -72Q637 -78 633 -83Q628 -91 623 -102Q617 -113 603 -115Q605 -117 624 -125Q623 -129 615 -136Q607 -144 605 -152Q607 -154 609 -154Q617 -151 624 -143Q632 -147 642 -164Q651 -179 659 -184Q576 -343 558 -373Q479 -364 467 -360Q425 -347 416 -308Q428 -310 454 -322Q483 -335 500 -338Q498 -332 496 -327L497 -323Q502 -324 508 -329Q515 -335 519 -335Q522 -335 524 -334L527 -333Q525 -329 522 -325V-323Q535 -315 547 -307Q550 -296 550 -287Q550 -272 543 -253Q540 -247 532 -248Q501 -237 443 -211Q376 -181 344 -170Q332 -158 321 -142Q365 -160 408 -178Q437 -193 467 -197H472Q470 -190 455 -185Q442 -181 439 -175Q444 -170 448 -170Q461 -172 473 -181L510 -193V-194Q510 -198 505 -198Q501 -197 497 -197Q497 -205 502 -215Q521 -215 527 -209Q540 -228 552 -230V-228Q551 -222 549 -217V-215Q555 -202 576 -173Q582 -165 590 -154Q597 -143 598 -131V-127Q596 -116 566 -101Q546 -91 541 -86Q527 -70 515 -30Q505 4 494 19Q476 11 454 5Q439 12 434 17Q425 25 423 37Q388 44 376 44Q361 44 352 39Q353 31 362 25Q370 20 371 16Q348 -19 309 -24V-21Q309 -10 325 3Q337 13 340 20L337 19Q336 25 335 30Q282 -4 279 -5V-14Q278 -36 277 -59Q277 -77 284 -90Q278 -97 278 -104Q278 -114 290 -131Q300 -145 300 -150L299 -153Q285 -150 269 -134Q262 -127 242 -101Q215 -69 196 -38Q193 -32 193 -22Q193 -12 196 -2Q211 -7 222 -21Q233 -35 245 -47Q249 -44 253 -42L256 -43Q238 -3 214 30Q198 32 192 32Q165 32 148 19Q129 5 127 -21Q120 -31 100 -35Q106 -43 123 -49Q121 -57 119 -66Q119 -70 123 -74Q115 -86 103 -94Q91 -101 81 -110Q83 -111 87 -111Q99 -109 110 -107H114Q113 -111 111 -116Q79 -128 66 -137Q68 -138 72 -138Q87 -135 102 -132Q106 -132 108 -133Q100 -148 70 -153Q44 -157 35 -165Q40 -166 48 -166Q81 -162 114 -158H120Q151 -160 201 -208Q235 -243 252 -263Q280 -296 294 -325Q282 -321 268 -321Q243 -321 223 -335Q211 -366 192 -389Q191 -394 191 -402Q191 -425 204 -442Q208 -447 231 -469Q246 -489 263 -506Q296 -528 334 -545Q325 -534 325 -527Q325 -514 350 -514Q363 -514 383 -520V-517Q383 -508 361 -503Q340 -498 340 -490Q340 -484 344 -479Q401 -488 481 -514Q479 -530 463 -530Q445 -526 427 -523Q430 -539 451 -544Q472 -549 490 -555Q480 -576 473 -600Q466 -624 448 -638Q429 -628 422 -593Q415 -596 415 -603Q418 -617 421 -631Q421 -637 417 -641H416Q412 -641 410 -633Q408 -627 404 -626Q402 -632 402 -635Q403 -646 404 -658Q404 -669 398 -674Q399 -697 409 -708Q420 -719 432 -734Q441 -751 450 -765Q458 -779 479 -780Q483 -780 493 -778Q506 -771 519 -764Q537 -757 554 -750Q570 -744 579 -733Q598 -709 598 -695Q598 -691 590 -677Q581 -662 580 -653Q579 -646 579 -633Q582 -598 584 -564Q584 -553 583 -548Q612 -563 653 -571Q648 -577 638 -577Q620 -574 602 -571H600V-573Q601 -583 614 -586Q627 -590 639 -593Q662 -602 685 -611L686 -608Q684 -603 682 -599Q687 -594 699 -584Q715 -572 721 -562Q713 -556 710 -542Q719 -541 734 -532Q748 -523 756 -523H757Q773 -527 788 -531Q792 -531 798 -529Q788 -525 777 -522Q767 -519 764 -508Q764 -504 771 -504H775Q779 -504 781 -502V-500Q781 -496 775 -493Q770 -491 770 -488V-482Q771 -467 778 -459Q785 -452 789 -442Q770 -436 770 -421Q770 -416 771 -413Q767 -414 761 -414Q742 -414 733 -391Q709 -393 687 -393Q646 -393 630 -383Q647 -336 692 -265V-268Q694 -288 701 -302Q700 -306 694 -311Q689 -315 688 -320V-322Q688 -336 711 -354Q735 -373 755 -373H758Q764 -372 774 -363Q779 -358 784 -356Q793 -358 803 -363Q817 -370 823 -371V-370Q823 -367 819 -361Q812 -350 812 -345V-343Q815 -335 821 -335Q824 -335 842 -344Q840 -331 838 -319V-314Q840 -311 843 -311Q845 -311 853 -313Q842 -296 842 -271Q842 -255 848 -245Q840 -242 836 -218H832Q824 -217 816 -216Q810 -216 808 -222Q809 -231 816 -233Q822 -236 829 -239Q827 -252 827 -265Q826 -279 818 -285Q805 -279 793 -263Q781 -247 768 -233Q761 -227 751 -216Q740 -205 739 -193Q739 -183 747 -178Q760 -199 783 -212Q785 -205 787 -203Q769 -191 752 -159Q793 -88 866 -40Q878 -50 882 -69Q886 -88 889 -107Q894 -102 894 -91Q892 -73 890 -56Q890 -45 895 -40Q906 -90 906 -152Q907 -167 907 -182Q907 -197 915 -206Q917 -184 917 -171Q917 -137 916 -104V-81Q919 -54 922 -28L921 -18Q926 -34 926 -64Q926 -83 925 -103Q925 -152 940 -169Q940 -80 943 -35Z"/>
</svg>