<svg xmlns="http://www.w3.org/2000/svg" viewBox="0 -800 1024 1024">
	<path fill="#000000" d="M842 -721Q837 -714 820 -714Q820 -717 819 -720Q820 -723 820 -726Q828 -728 834 -728Q842 -728 842 -721ZM474 17V6Q482 1 495 1Q505 1 510 2Q510 6 512 14Q507 15 493 15Q479 15 474 17ZM895 -94H901Q894 -86 894 -75Q894 -60 912 -32Q909 -26 909 -7Q909 15 903 25Q889 30 868 30Q825 27 774 20H772Q767 23 762 25Q736 18 668 18Q595 17 559 9Q566 2 583 2H589Q600 1 622 1Q694 3 765 5H777Q775 -6 752 -6H737L735 -7V-8L733 -10Q717 -12 709 -12Q686 -11 663 -10Q629 -15 594 -23Q566 -25 549 -25Q529 -25 493 -23Q421 -17 384 -9Q328 3 297 28H304Q316 28 347 20Q381 11 400 11Q417 11 429 16Q428 21 422 22Q416 23 412 23Q384 28 350 36Q315 43 290 59Q286 61 278 71Q268 82 263 83H261Q252 82 246 77Q239 72 234 69Q230 70 225 70Q211 70 189 57Q188 31 174 19Q159 6 144 -6Q149 -16 153 -26Q142 -33 130 -41Q141 -45 146 -56Q151 -66 159 -76Q167 -85 177 -91Q186 -97 194 -103Q207 -116 215 -135Q222 -154 232 -172Q237 -179 242 -186Q247 -203 251 -220Q261 -244 271 -268Q271 -271 272 -277Q273 -282 278 -284Q284 -282 284 -276Q284 -274 280 -262Q271 -231 268 -190Q297 -222 309 -280Q321 -326 321 -337Q321 -366 294 -373Q289 -369 289 -356Q290 -345 290 -334Q290 -317 280 -316Q272 -338 267 -363Q261 -388 244 -402Q245 -403 249 -403Q258 -401 266 -400Q268 -400 272 -402Q277 -424 293 -431Q288 -435 281 -439Q275 -442 274 -448V-451Q253 -462 235 -480Q231 -494 230 -510Q229 -527 220 -535Q221 -550 225 -573Q221 -580 203 -595Q182 -613 179 -626Q185 -624 194 -619Q208 -611 217 -610Q209 -622 187 -643Q167 -662 158 -676Q187 -662 212 -645Q211 -652 204 -658Q199 -663 197 -666Q211 -660 226 -660Q255 -660 280 -675Q286 -674 299 -674Q321 -674 336 -678Q346 -681 356 -685Q358 -686 362 -686Q371 -685 379 -684Q385 -685 400 -690Q417 -696 427 -696Q433 -696 436 -695Q443 -704 454 -704Q461 -704 462 -697Q448 -689 390 -674Q340 -661 321 -642Q328 -635 338 -635Q361 -640 392 -655Q437 -670 502 -682Q535 -686 554 -691Q561 -693 567 -705Q566 -710 556 -710Q531 -705 505 -701H502Q501 -705 497 -711Q502 -715 514 -715Q528 -715 531 -721H534Q540 -720 545 -720Q556 -726 587 -730Q606 -732 613 -735Q615 -730 616 -726V-724Q603 -720 600 -707Q600 -701 607 -698Q634 -702 660 -706Q685 -711 704 -723Q694 -730 675 -730Q658 -730 635 -723V-726Q634 -732 632 -738H636Q651 -738 676 -747Q698 -755 704 -756Q711 -740 715 -738Q720 -739 726 -747Q733 -755 740 -756Q737 -732 737 -731Q737 -717 745 -712Q750 -708 758 -708Q776 -711 794 -714Q799 -714 805 -712Q793 -703 776 -698Q759 -693 754 -676L758 -675Q770 -677 781 -680Q785 -680 789 -678Q770 -669 764 -665Q751 -656 748 -643L750 -641Q755 -641 759 -642H761Q759 -638 753 -632Q747 -626 746 -619Q745 -616 745 -611Q750 -586 755 -562Q755 -547 748 -538Q741 -529 733 -520Q586 -511 512 -498Q403 -479 333 -439Q337 -432 346 -432Q355 -432 362 -430Q376 -404 390 -377Q403 -351 409 -316Q401 -287 386 -263Q371 -238 358 -214Q334 -163 309 -112Q423 -126 547 -130Q670 -134 796 -139Q802 -156 803 -177Q804 -198 817 -207V-197Q817 -159 833 -147Q843 -149 865 -149H887Q872 -144 863 -133Q895 -133 906 -129L899 -130Q875 -127 874 -109Q874 -94 895 -94Z"/>
</svg>