<svg xmlns="http://www.w3.org/2000/svg" viewBox="0 -800 1024 1024">
	<path fill="#000000" d="M247 -562H243Q224 -562 224 -578Q241 -577 247 -562ZM432 1V-7H435Q449 -7 458 2Q455 7 447 7Q438 7 432 1ZM531 -321Q532 -326 532 -336Q532 -349 531 -355Q517 -354 508 -344Q503 -339 494 -321Q480 -310 480 -305Q480 -303 482 -299Q506 -308 531 -321ZM655 -176Q657 -194 671 -224Q687 -257 689 -274Q682 -278 672 -278Q647 -275 624 -267Q619 -247 619 -215Q620 -182 620 -149Q621 -148 625 -148Q634 -149 643 -151Q648 -164 655 -176ZM747 -51H744Q736 -51 730 -63Q724 -76 716 -77L713 -78Q707 -77 701 -76H698V-79Q697 -87 695 -96Q690 -102 675 -102Q667 -101 658 -101Q655 -103 651 -109Q646 -118 639 -119V-120Q642 -127 645 -134V-136Q636 -142 620 -143Q618 -140 618 -130V-121Q618 -111 615 -107Q604 -123 604 -160Q605 -179 605 -199Q605 -231 598 -246Q590 -238 590 -217V-192Q587 -153 587 -137V-129Q590 -115 593 -101Q595 -74 598 -49Q601 -25 612 -5Q616 -14 616 -30Q615 -52 614 -75V-85Q626 -58 626 -27V-25Q626 -14 635 6Q642 21 642 28Q640 44 625 58Q609 72 601 84Q597 95 592 105Q590 107 585 107Q579 107 564 97Q554 90 548 89Q542 77 536 63Q530 49 521 39Q515 35 509 33Q503 31 500 24L502 23Q510 26 518 28H519Q515 18 487 10Q468 5 463 -1Q466 -2 472 -2Q497 1 515 6Q499 -4 455 -18Q414 -31 398 -45Q454 -26 485 -19Q500 -16 514 -13H516Q527 -17 528 -35Q530 -52 531 -70Q542 -132 545 -195Q545 -213 542 -233Q508 -227 472 -197Q488 -179 503 -161Q505 -154 505 -143Q504 -120 491 -108Q478 -95 466 -83Q459 -85 446 -90Q427 -98 416 -98H409Q403 -116 388 -126Q373 -136 361 -149Q348 -147 341 -129Q331 -126 320 -107Q310 -91 300 -86Q302 -101 317 -121Q330 -138 333 -151Q308 -143 288 -115Q268 -88 247 -62Q237 -52 226 -42Q215 -32 214 -17Q214 -11 215 -8Q227 -12 243 -31Q263 -54 282 -56Q279 -48 273 -44Q266 -39 260 -33Q254 -21 248 -10Q241 -1 231 8Q221 17 220 32V36Q215 39 206 53Q201 48 186 46Q175 44 170 40Q166 37 162 29Q157 18 150 18H149Q149 3 136 -22Q122 -49 122 -63Q122 -74 128 -86L113 -134Q120 -131 126 -119Q131 -109 136 -105Q135 -132 115 -167Q92 -208 87 -227Q109 -197 124 -171Q150 -124 168 -123Q177 -123 196 -142Q210 -151 224 -161Q242 -174 263 -194Q273 -202 285 -212Q297 -221 301 -230Q304 -241 307 -252Q318 -269 346 -272Q350 -280 364 -294Q372 -302 377 -309Q326 -296 294 -270Q282 -259 271 -247Q261 -234 245 -228Q203 -240 195 -260H193Q179 -260 170 -272Q162 -283 162 -299Q162 -312 168 -323Q164 -335 161 -350Q154 -361 149 -371Q148 -374 148 -380Q150 -397 158 -413Q190 -426 211 -455L212 -452Q212 -446 211 -440Q211 -436 212 -434Q229 -427 248 -427Q288 -430 327 -443Q318 -449 306 -479H304Q299 -477 293 -475L291 -476L290 -478Q290 -482 297 -487Q280 -518 254 -525V-527Q256 -538 266 -542Q265 -544 259 -549Q253 -553 253 -557V-559H256Q265 -557 274 -556Q279 -556 282 -557Q279 -570 270 -577Q261 -585 249 -589Q225 -596 209 -612Q242 -608 278 -596Q264 -604 230 -619Q181 -640 162 -653Q165 -654 171 -654Q186 -654 218 -641Q239 -631 262 -620Q285 -610 313 -609H318Q341 -611 373 -627Q400 -640 414 -644Q397 -669 394 -673Q382 -693 382 -708Q382 -717 384 -722Q378 -733 374 -745Q374 -748 375 -750Q384 -745 388 -742Q391 -739 404 -737L411 -734Q419 -738 426 -743H429Q435 -743 447 -736Q457 -730 463 -730Q464 -730 470 -732Q484 -724 497 -715Q510 -706 525 -705H528Q540 -705 557 -719Q576 -734 589 -734H592Q588 -723 570 -713Q552 -703 548 -694Q550 -692 554 -692Q569 -696 589 -710Q616 -722 624 -727Q644 -739 649 -752Q651 -756 651 -759Q651 -770 639 -770H636Q632 -769 625 -759Q616 -746 611 -746L608 -747Q612 -763 612 -764Q612 -771 607 -779Q620 -780 644 -792Q665 -803 675 -803Q685 -803 691 -797Q700 -789 710 -766Q721 -741 731 -732Q729 -722 726 -713Q733 -695 740 -677Q738 -662 729 -653Q721 -644 715 -633Q690 -633 686 -623Q682 -625 676 -625Q662 -625 641 -617Q621 -609 621 -603Q621 -597 646 -596Q641 -587 634 -579Q635 -569 646 -560Q629 -555 629 -530Q629 -525 630 -522Q626 -525 623 -525Q615 -523 607 -516Q594 -508 584 -508Q576 -508 572 -510Q569 -511 560 -517Q548 -525 540 -525H537Q529 -539 513 -545Q498 -536 482 -528Q469 -518 457 -506Q447 -497 423 -486Q390 -471 380 -456L382 -455Q394 -458 405 -461Q414 -461 415 -453Q384 -442 350 -437Q327 -431 305 -424Q283 -416 269 -402Q271 -396 278 -393Q285 -390 291 -387Q321 -406 374 -419Q390 -425 405 -431Q424 -434 442 -437Q459 -440 469 -455H466Q458 -454 449 -454Q439 -454 438 -459Q441 -471 454 -472Q468 -473 482 -474Q486 -479 489 -482Q488 -485 488 -491Q488 -504 498 -512Q507 -519 519 -519Q549 -518 560 -494Q595 -498 625 -504Q656 -509 687 -510H701Q692 -501 651 -496Q610 -491 598 -484Q583 -476 583 -465Q583 -461 584 -459Q603 -462 651 -474Q705 -487 735 -491Q753 -492 770 -494Q787 -495 799 -506Q792 -513 776 -513Q762 -512 748 -511Q744 -511 738 -513Q749 -527 769 -529Q788 -531 805 -536Q818 -544 827 -556Q838 -559 849 -563Q852 -555 852 -547Q865 -542 882 -542H889V-541Q887 -539 885 -537V-536Q890 -526 912 -526Q921 -526 931 -528Q930 -524 919 -518Q904 -509 904 -500Q905 -491 911 -487Q917 -484 923 -477Q910 -474 904 -464V-461Q906 -450 907 -439Q907 -437 905 -431Q891 -419 885 -401Q864 -404 841 -404Q798 -404 737 -395Q710 -389 682 -383Q660 -381 639 -379Q618 -378 599 -369Q608 -355 618 -346Q648 -354 680 -364Q713 -374 747 -375Q760 -375 766 -374Q772 -376 778 -378Q789 -375 801 -365Q804 -361 805 -354Q806 -347 811 -346Q813 -345 818 -345Q827 -345 839 -356Q851 -367 858 -368Q856 -358 844 -346Q832 -333 830 -323Q835 -318 838 -318Q842 -318 850 -326Q858 -333 863 -335Q848 -321 848 -300Q848 -271 872 -264Q871 -260 871 -252V-238Q871 -226 870 -220Q853 -210 834 -210Q830 -210 825 -211Q825 -217 822 -218Q824 -226 838 -233Q848 -238 851 -242Q848 -250 837 -257Q809 -247 802 -223Q796 -226 790 -226Q777 -225 769 -210Q760 -196 754 -182Q736 -150 732 -110Q746 -116 753 -135Q760 -159 783 -162H784Q789 -165 794 -176Q800 -190 811 -191Q789 -144 780 -83Q756 -76 747 -51Z"/>
</svg>