<svg xmlns="http://www.w3.org/2000/svg" viewBox="0 -800 1024 1024">
	<path fill="#000000" d="M276 -95H253V-108H255Q269 -108 276 -95ZM852 -732V-730Q852 -722 847 -719Q842 -715 839 -710Q836 -714 836 -720Q836 -733 846 -733Q850 -733 852 -732ZM424 -225H426Q440 -225 461 -234Q477 -241 489 -242Q503 -280 503 -305Q478 -302 458 -287Q437 -272 418 -257V-253Q418 -252 424 -225ZM589 96L587 94Q585 97 582 99H581Q571 87 535 80Q494 72 486 55V53Q487 48 488 43Q476 26 450 14Q445 12 402 -4Q393 -7 384 -10Q374 -14 370 -23Q389 -19 417 -8Q456 7 479 9Q454 -8 420 -18Q386 -28 356 -38Q346 -41 336 -43Q326 -45 322 -53Q401 -34 479 -15Q471 -26 453 -29Q435 -31 420 -35Q347 -57 287 -92Q423 -48 506 -33Q498 -40 475 -44Q455 -48 448 -53Q452 -54 459 -54Q479 -51 498 -49Q503 -49 506 -50Q525 -56 535 -75Q546 -101 566 -114Q570 -130 579 -143Q589 -157 596 -170Q603 -184 608 -199Q614 -214 626 -225Q646 -288 669 -349Q692 -410 700 -482Q699 -483 695 -483Q686 -483 679 -476Q675 -477 670 -479Q638 -474 565 -450Q515 -434 483 -426Q438 -414 424 -402Q415 -391 405 -380Q398 -375 390 -371Q382 -367 377 -360Q371 -362 367 -362Q364 -362 349 -359Q332 -364 322 -376Q312 -388 303 -401Q280 -389 275 -351Q272 -347 267 -344Q262 -341 262 -334L263 -330Q292 -342 309 -342Q327 -342 340 -332Q344 -335 348 -338Q350 -338 353 -335Q374 -351 424 -374Q486 -403 510 -425H513Q535 -427 556 -430Q568 -430 577 -426Q583 -423 592 -411Q602 -396 608 -395H611Q616 -395 624 -400Q630 -404 635 -404H638V-403Q638 -399 631 -395Q621 -389 620 -383Q620 -380 619 -378Q619 -371 624 -365Q629 -359 637 -359H641Q637 -351 637 -342Q637 -338 639 -326Q628 -312 621 -294Q619 -295 614 -295Q606 -295 599 -280Q593 -266 583 -266Q586 -287 586 -288Q586 -298 580 -302Q566 -299 557 -283Q553 -276 543 -249Q531 -223 531 -212Q531 -203 537 -199Q543 -203 550 -217Q560 -236 569 -237Q566 -217 550 -184Q533 -150 530 -134Q514 -140 507 -140Q492 -140 488 -123Q485 -124 485 -130V-142Q484 -147 476 -148Q467 -149 467 -155V-156Q411 -150 408 -117Q393 -105 369 -105Q356 -105 341 -108Q339 -116 327 -124Q315 -133 313 -142Q317 -144 319 -144Q328 -141 336 -139H337Q338 -141 338 -144Q337 -158 327 -176Q317 -193 310 -205Q293 -238 275 -252Q265 -249 262 -240Q264 -224 281 -199Q295 -179 297 -165Q288 -167 283 -175Q279 -182 275 -189Q255 -214 253 -216Q250 -231 238 -240H235Q231 -239 227 -239Q239 -278 241 -290Q237 -290 228 -281Q220 -273 214 -271Q192 -282 177 -282H174V-284Q174 -300 156 -308Q156 -314 155 -320V-323Q138 -323 137 -312Q134 -316 134 -320Q137 -334 143 -343Q135 -358 120 -360H118V-362Q119 -367 120 -373V-375Q106 -386 105 -426Q104 -456 100 -466Q112 -476 135 -501Q142 -510 150 -520Q159 -529 171 -533Q170 -526 161 -511Q147 -488 147 -476Q147 -464 155 -455Q196 -503 235 -554Q274 -602 310 -654Q309 -657 309 -667V-671Q309 -684 306 -687Q286 -672 256 -628Q224 -580 201 -567Q204 -583 220 -602Q237 -622 241 -635Q247 -636 252 -643Q256 -650 260 -651Q261 -658 268 -668Q275 -678 276 -685Q278 -687 281 -687H284V-690Q286 -703 288 -717V-719Q287 -725 281 -734Q276 -741 275 -746H282Q288 -746 290 -748Q331 -777 372 -777Q384 -777 390 -776Q405 -766 420 -756V-753Q420 -739 430 -729V-716Q440 -684 453 -654Q450 -640 449 -623Q448 -607 442 -596Q431 -595 428 -587Q424 -579 420 -570Q414 -562 407 -556Q399 -549 396 -539Q430 -543 482 -557Q530 -569 549 -573Q561 -576 564 -576Q571 -576 575 -572Q565 -563 545 -561Q525 -559 512 -557Q490 -553 453 -541Q439 -537 428 -530Q413 -521 413 -511Q413 -507 418 -500Q441 -508 556 -539Q643 -564 683 -585Q680 -592 672 -592Q657 -589 641 -586Q635 -586 633 -588Q637 -599 648 -602Q659 -605 669 -607Q687 -616 704 -626L716 -641Q725 -641 743 -648Q759 -654 772 -654Q780 -654 784 -653Q796 -665 806 -679Q816 -692 831 -701V-700Q831 -691 820 -675Q808 -658 808 -649Q808 -644 811 -638L813 -637Q819 -642 824 -647H825Q825 -634 821 -627Q826 -618 835 -612Q843 -607 851 -601Q862 -609 875 -611L877 -608Q877 -606 874 -604Q869 -600 869 -598V-596Q876 -596 891 -605Q901 -611 908 -613Q906 -606 897 -595Q886 -583 885 -572V-570Q887 -567 889 -564Q889 -560 888 -556Q889 -542 896 -534Q904 -527 910 -518V-486Q898 -485 893 -471Q891 -466 889 -444H884Q855 -444 843 -412L844 -411Q848 -412 852 -414L855 -412Q853 -408 843 -404Q823 -382 814 -348Q811 -345 806 -337Q800 -327 793 -326V-333Q796 -356 801 -377Q786 -375 781 -363Q776 -352 771 -335Q762 -312 738 -263Q703 -192 694 -162Q691 -154 689 -140Q689 -133 688 -126Q688 -112 697 -107Q721 -145 737 -195Q746 -220 752 -244Q758 -269 777 -285Q778 -282 778 -275Q777 -262 771 -251Q765 -239 760 -228Q745 -185 732 -142Q718 -99 697 -62Q695 -71 695 -78Q694 -85 688 -87L684 -88Q673 -88 664 -59Q654 -29 654 -23Q654 -14 661 -8Q669 -8 677 -22Q684 -34 689 -36Q692 -31 692 -26Q692 -20 688 -9Q682 7 682 16Q682 22 683 25Q675 35 666 45Q656 55 655 70Q655 74 657 82Q629 84 616 88Q597 94 592 110Q590 109 590 106Q591 102 592 98Z"/>
</svg>