<svg xmlns="http://www.w3.org/2000/svg" viewBox="0 -800 1024 1024">
	<path fill="#000000" d="M743 -354V-356Q744 -366 753 -368Q756 -368 758 -366Q756 -360 754 -354L750 -355Q747 -354 743 -354ZM935 -470H938Q938 -455 923 -450Q923 -452 922 -455Q922 -470 935 -470ZM545 -24Q544 -18 534 -18Q527 -18 515 -21Q518 -30 532 -30Q542 -30 545 -24ZM535 -291Q543 -288 551 -288Q561 -305 589 -334Q615 -361 623 -374Q586 -374 560 -381Q549 -388 543 -401Q537 -415 530 -429Q522 -363 522 -303Q523 -288 523 -273Q529 -288 535 -291ZM390 -147V-148Q391 -155 395 -157Q398 -160 399 -167Q393 -169 388 -169Q367 -169 337 -152Q310 -137 295 -122Q288 -115 280 -106Q271 -98 261 -97Q254 -97 246 -102V-94Q246 -83 249 -73Q254 -72 264 -72Q287 -72 340 -84Q396 -97 423 -98Q422 -102 422 -110Q424 -126 426 -142Q414 -156 408 -156Q402 -156 397 -151Q393 -147 390 -147ZM622 -123H626Q644 -122 661 -122Q678 -122 685 -125Q702 -134 711 -152Q719 -170 727 -191Q722 -199 712 -199Q706 -199 693 -194Q698 -203 703 -212Q691 -224 687 -246H676Q649 -246 629 -236Q606 -225 601 -203Q603 -202 607 -202Q618 -203 627 -211Q636 -219 646 -224Q654 -228 662 -228Q669 -228 673 -225Q666 -219 650 -212Q625 -201 614 -191Q603 -180 593 -169Q582 -157 568 -156H567Q557 -157 542 -171Q531 -182 523 -185Q527 -150 530 -116Q535 -115 546 -115Q584 -119 622 -123ZM780 -42H782Q790 -43 795 -49Q799 -56 803 -62Q810 -76 817 -90Q823 -105 829 -120Q835 -135 849 -142Q850 -139 850 -136Q850 -121 835 -108Q829 -89 821 -70Q814 -52 811 -29Q800 -17 800 -1Q801 15 798 31Q795 43 771 56Q755 65 749 73Q711 60 703 37Q675 31 664 4H662Q661 6 659 7H658Q660 -5 662 -17Q655 -21 645 -21Q624 -19 603 -17Q588 -17 581 -24Q584 -28 597 -30Q609 -32 613 -35Q607 -53 573 -53Q556 -53 539 -54Q397 -54 336 -20Q344 -13 357 -13Q378 -16 399 -20Q432 -21 464 -23Q477 -24 490 -26Q499 -26 503 -21Q426 -15 345 3Q320 8 290 13Q261 18 247 31Q242 36 237 49Q229 67 219 72Q207 68 188 66Q169 64 166 48Q147 41 136 25Q137 22 137 18Q137 4 126 -2Q137 -16 139 -65V-66Q139 -77 128 -99Q120 -115 120 -123Q120 -125 122 -131Q131 -122 142 -91Q152 -63 164 -54Q168 -63 168 -74Q164 -109 145 -143Q130 -177 124 -186Q110 -207 89 -212Q84 -207 84 -201Q84 -194 93 -183Q101 -173 101 -167V-165Q86 -169 69 -188Q52 -208 39 -212Q32 -240 30 -260Q30 -268 31 -273Q33 -283 47 -297Q63 -314 63 -329Q63 -332 62 -336Q62 -342 56 -349Q49 -358 49 -368Q55 -368 60 -361Q66 -353 73 -353H75Q79 -354 79 -359Q75 -372 62 -389Q47 -415 46 -420Q58 -415 71 -395Q86 -372 102 -369Q98 -387 73 -415Q52 -438 46 -453Q75 -434 99 -408Q123 -381 166 -378Q178 -331 218 -312Q222 -280 229 -269Q228 -263 228 -248Q228 -227 231 -209Q255 -225 273 -255Q291 -284 310 -311Q302 -315 293 -315Q282 -315 265 -309Q248 -303 241 -303H240Q224 -304 204 -326Q182 -350 182 -372Q182 -387 190 -396Q203 -406 219 -417Q227 -426 237 -429Q240 -429 242 -422Q243 -416 247 -415Q255 -417 262 -429Q265 -433 274 -452Q279 -462 286 -472Q292 -483 293 -494Q293 -500 290 -506Q271 -501 266 -480Q261 -456 247 -447Q247 -452 256 -474Q268 -504 268 -517Q268 -533 251 -533H246Q257 -547 278 -563Q307 -590 337 -590Q349 -590 369 -585Q381 -568 387 -540Q392 -529 398 -517Q404 -506 405 -492Q405 -486 404 -483Q400 -470 385 -459Q371 -448 360 -440Q338 -420 321 -392Q327 -389 332 -389Q341 -389 356 -400Q371 -411 378 -411Q388 -411 397 -399Q398 -389 408 -373Q419 -355 419 -339V-335Q384 -310 366 -293Q339 -267 326 -237Q360 -239 363 -278Q387 -286 410 -289Q422 -289 429 -281Q434 -291 434 -303Q431 -335 428 -367Q428 -386 434 -393Q439 -362 439 -324Q438 -287 453 -264Q462 -281 462 -309Q460 -338 458 -368Q457 -411 457 -453Q457 -495 447 -527Q433 -523 433 -502Q434 -486 435 -471Q435 -456 429 -450Q426 -489 422 -529Q417 -568 399 -593Q400 -621 402 -631Q406 -650 417 -657Q415 -669 413 -681Q419 -680 426 -671Q429 -677 429 -682Q429 -689 423 -698Q416 -709 416 -716H418Q423 -716 431 -710Q437 -705 444 -705H446Q444 -712 428 -724Q417 -733 413 -737Q415 -738 419 -738Q428 -738 445 -729Q468 -717 481 -717H483Q497 -722 512 -725H514Q523 -724 534 -714Q543 -706 549 -704Q552 -694 566 -674Q585 -647 585 -631Q585 -623 581 -615Q579 -610 568 -598Q555 -583 551 -572Q546 -559 544 -534Q542 -508 537 -495Q537 -486 540 -484Q534 -469 534 -467Q534 -464 535 -462Q553 -467 564 -486Q575 -506 588 -525Q607 -542 613 -563Q613 -571 602 -584Q594 -594 591 -602Q599 -600 603 -600Q619 -600 642 -621Q665 -642 683 -642Q693 -642 702 -638Q722 -629 725 -609Q728 -588 733 -560Q736 -553 738 -546Q737 -532 730 -521Q722 -511 717 -500Q706 -496 694 -494Q683 -491 676 -483Q662 -483 649 -474Q642 -469 628 -455Q644 -449 656 -449Q685 -449 688 -473H693Q704 -473 715 -474H720Q730 -463 744 -447Q759 -432 760 -411Q760 -407 759 -404Q753 -389 740 -375Q682 -358 640 -305Q656 -310 671 -315Q675 -320 679 -332Q687 -336 701 -336Q708 -335 715 -335Q734 -335 738 -344Q735 -335 735 -330Q735 -321 742 -321H744Q749 -321 755 -329Q761 -336 763 -336H765V-333Q763 -320 760 -307Q760 -298 770 -296Q782 -317 794 -339Q786 -367 785 -381Q791 -391 792 -402Q792 -405 791 -408Q806 -413 859 -438Q867 -441 881 -441H890Q898 -434 905 -431Q910 -432 913 -435Q918 -440 922 -440H924Q921 -429 917 -419L918 -415Q925 -408 931 -408Q939 -408 953 -425Q965 -439 971 -441L972 -437Q969 -429 961 -422Q952 -400 952 -387V-383L954 -382Q956 -382 959 -389Q963 -399 969 -399H970Q969 -393 964 -382Q958 -369 958 -361Q958 -354 959 -351L961 -350Q963 -350 966 -355Q969 -360 972 -360H974V-358Q971 -344 968 -330Q971 -322 973 -314Q972 -289 956 -275Q941 -262 923 -249Q923 -246 927 -246Q932 -246 932 -243V-242Q906 -234 876 -198Q875 -201 875 -206Q875 -219 890 -236Q899 -247 902 -254Q897 -259 896 -261Q874 -260 864 -243Q853 -227 843 -209Q833 -194 819 -158Q806 -129 794 -103Q781 -76 780 -45Z"/>
</svg>