<svg xmlns="http://www.w3.org/2000/svg" viewBox="0 -800 1024 1024">
	<path fill="#000000" d="M567 28V25Q567 18 578 18Q587 18 587 23Q586 29 575 29Q569 29 567 28ZM878 -794V-792Q879 -788 880 -784Q866 -780 858 -779Q861 -784 865 -789Q868 -794 875 -794ZM898 -344V-343Q896 -345 896 -351V-366Q901 -369 905 -373Q908 -370 908 -367Q908 -362 903 -355Q898 -347 898 -344ZM92 -457Q90 -450 90 -442Q90 -434 83 -432Q80 -438 80 -449Q80 -461 85 -461Q86 -461 92 -457ZM849 -619H848Q841 -619 829 -627Q819 -634 815 -635Q810 -630 795 -627Q783 -624 779 -622Q770 -628 762 -635Q754 -643 742 -646Q739 -666 727 -674Q724 -674 720 -669Q717 -665 712 -665H711V-668Q714 -676 717 -685V-687Q717 -693 711 -703Q706 -711 705 -716V-721Q706 -727 706 -734Q706 -740 702 -745H703Q707 -743 710 -742Q714 -750 729 -762Q741 -772 746 -779Q748 -796 749 -813V-818Q756 -810 758 -798Q760 -785 764 -775Q767 -774 770 -774Q779 -774 788 -784Q794 -791 800 -793Q801 -791 801 -788Q798 -777 791 -770Q795 -760 806 -757Q811 -759 824 -767Q840 -777 852 -779V-778Q852 -774 840 -763Q828 -751 825 -745Q829 -733 835 -725Q850 -731 866 -734H869Q857 -721 843 -710V-702Q843 -697 844 -695Q853 -689 880 -685Q902 -681 911 -677Q881 -676 854 -674Q832 -671 831 -651V-647Q836 -631 849 -619ZM800 -43H801Q808 -46 815 -50L819 -49Q806 -40 806 -23Q806 -14 812 -7Q839 -13 858 -14Q844 -5 827 1Q821 13 821 24Q821 44 838 44Q841 44 843 43Q826 51 819 80Q799 88 763 108Q759 105 757 97Q727 94 716 72Q705 46 689 23Q681 21 665 21Q636 23 607 25L606 21Q606 14 623 14Q641 13 642 7Q643 -3 610 -3Q596 -2 581 -2Q579 -2 481 13Q435 19 428 21Q402 28 397 47Q400 50 407 50Q423 48 437 42Q483 32 510 32Q490 44 423 60Q368 73 347 96Q343 119 335 124Q312 118 285 90Q264 68 249 61Q251 56 251 46Q247 17 234 -7L237 -6Q240 -8 243 -10Q244 -14 248 -22Q302 -62 322 -79Q363 -114 384 -148Q386 -147 386 -142V-135Q386 -129 389 -128Q394 -132 395 -137L397 -136Q406 -121 415 -106Q423 -91 424 -67Q429 -66 441 -66Q464 -66 487 -73V-82Q485 -108 483 -134V-140L482 -142Q480 -141 477 -141V-142Q461 -174 461 -201Q461 -231 483 -239V-253H484Q490 -250 495 -247L498 -248L499 -251Q496 -260 492 -269H493Q499 -269 505 -261Q510 -255 516 -254L517 -255Q514 -260 511 -265V-266Q535 -262 549 -251Q561 -242 575 -218Q598 -183 598 -165Q598 -150 588 -136Q582 -136 582 -149Q582 -162 585 -167Q577 -185 576 -187Q569 -198 558 -199Q556 -185 556 -155Q557 -120 557 -86Q564 -89 568 -107Q572 -125 582 -127V-125Q582 -117 578 -108Q573 -96 573 -88V-86Q621 -90 636 -95Q636 -98 635 -103Q635 -108 631 -110V-114Q631 -147 655 -166Q669 -163 693 -146Q718 -128 734 -128Q743 -128 748 -130Q750 -128 750 -125Q750 -121 749 -117V-115Q755 -116 760 -121Q767 -128 772 -128Q764 -119 764 -105Q764 -82 784 -64Q793 -68 801 -73L802 -70Q798 -62 794 -51V-50Q794 -47 797 -47Q800 -47 800 -44ZM392 -256V-252Q392 -224 409 -214Q414 -217 416 -230Q418 -247 427 -248Q429 -228 429 -216Q429 -181 416 -164Q411 -164 395 -155Q388 -158 381 -161Q377 -160 375 -156Q372 -149 371 -148Q364 -167 346 -174Q328 -182 314 -194Q314 -209 301 -239Q318 -275 318 -308Q318 -327 311 -344Q255 -272 240 -249Q202 -192 185 -136Q175 -134 164 -133H160Q151 -134 136 -146Q126 -154 122 -154Q114 -154 110 -139Q107 -141 107 -149V-161Q96 -176 62 -185Q57 -191 48 -200Q39 -209 38 -222Q39 -225 39 -228Q45 -236 50 -244Q63 -268 70 -339Q76 -402 86 -422Q88 -418 88 -402Q86 -368 84 -335Q85 -330 85 -325Q87 -308 94 -308Q97 -308 100 -311V-314Q99 -336 97 -358Q97 -372 101 -380Q105 -368 106 -353Q107 -338 117 -331Q140 -353 173 -393Q214 -443 234 -461Q235 -459 235 -456Q235 -449 229 -444Q224 -439 218 -434Q214 -429 199 -407Q188 -394 175 -381Q163 -369 156 -356Q151 -348 151 -338Q151 -329 157 -325Q181 -348 200 -376Q220 -404 240 -432Q263 -457 285 -482Q310 -512 310 -532Q310 -536 308 -544Q300 -540 289 -525Q278 -509 268 -505Q275 -535 290 -556Q306 -577 321 -599Q323 -611 323 -621Q323 -638 316 -646L318 -648Q323 -647 327 -647H330Q344 -654 359 -666Q373 -679 391 -680Q399 -680 406 -677Q409 -678 416 -678Q425 -678 430 -677Q432 -676 435 -671Q439 -665 445 -664Q447 -646 465 -620Q487 -588 487 -567Q487 -563 486 -559Q484 -546 472 -528Q463 -514 461 -509Q437 -505 427 -482H418Q402 -467 384 -453Q367 -438 354 -418Q386 -414 395 -407Q399 -404 403 -397Q409 -387 415 -385Q416 -378 422 -366Q429 -354 430 -347Q431 -344 431 -341Q430 -329 428 -317Q429 -303 430 -289Q430 -274 422 -269Q417 -273 417 -284Q418 -293 418 -303Q418 -316 410 -320Q392 -314 392 -256ZM821 -116V-120Q821 -136 800 -166Q782 -186 764 -206Q748 -229 735 -252Q721 -276 699 -292V-288Q700 -272 708 -259Q717 -246 723 -233Q705 -239 696 -257Q688 -274 680 -294Q660 -330 642 -363Q641 -373 634 -380Q591 -361 590 -360Q568 -346 564 -322Q549 -310 533 -310Q508 -312 488 -331Q467 -351 451 -368Q455 -394 459 -420Q459 -430 455 -439Q459 -448 462 -459Q464 -469 471 -476Q479 -480 486 -485Q497 -496 506 -510Q515 -524 530 -532Q523 -513 516 -501Q520 -497 523 -493Q537 -496 558 -509Q572 -518 582 -521Q574 -563 563 -603Q554 -639 520 -649Q513 -644 502 -643Q511 -656 520 -670Q519 -674 519 -680Q519 -700 542 -728Q557 -751 566 -760Q579 -766 602 -770H603Q610 -768 615 -761Q621 -754 627 -748Q642 -740 653 -731Q656 -716 676 -694Q692 -676 692 -657V-655Q686 -635 680 -611V-604Q681 -587 681 -570V-562Q740 -588 778 -610Q786 -604 793 -604Q802 -604 816 -613V-611Q815 -606 814 -602L815 -599H817Q823 -599 827 -603Q833 -608 837 -608H838L839 -606Q836 -595 832 -584Q832 -578 838 -575H840Q843 -575 848 -579Q854 -584 860 -584H863Q860 -580 851 -575Q842 -570 840 -562Q839 -560 839 -556Q839 -549 847 -541Q854 -534 855 -529V-526Q855 -522 850 -513Q846 -506 846 -502Q846 -498 849 -494Q837 -457 797 -455Q798 -463 811 -468Q822 -472 824 -476Q813 -484 798 -484Q782 -484 746 -465Q721 -452 708 -449V-446Q708 -442 707 -438L708 -434H709Q719 -434 735 -441Q751 -448 758 -448Q760 -448 766 -446Q761 -439 740 -432Q720 -425 713 -416Q719 -393 731 -376Q743 -359 755 -341L757 -337Q756 -334 755 -332Q775 -312 795 -291Q814 -270 843 -259Q849 -275 850 -298Q851 -320 865 -331Q863 -305 860 -280Q860 -275 862 -263Q868 -273 872 -320V-352Q872 -401 889 -415Q883 -375 883 -307V-250Q888 -258 888 -282V-303Q888 -329 895 -338Q896 -329 896 -311Q896 -287 895 -263Q895 -234 902 -212Q904 -207 912 -198Q919 -190 921 -184Q924 -170 926 -157Q935 -139 937 -119Q937 -114 936 -109Q919 -80 896 -61Q877 -65 856 -68Q835 -72 819 -85Q802 -101 770 -149Q760 -164 760 -169V-172Q779 -161 789 -142Q799 -123 821 -116Z"/>
</svg>