<svg xmlns="http://www.w3.org/2000/svg" viewBox="0 -800 1024 1024">
	<path fill="#000000" d="M902 -599H906Q905 -585 891 -584Q889 -588 889 -589Q889 -599 902 -599ZM625 -558V-547Q610 -542 602 -542Q597 -542 595 -543Q594 -546 593 -549Q613 -559 618 -559Q622 -559 625 -558ZM672 -431H667Q660 -431 622 -419Q532 -390 496 -374Q485 -369 462 -362Q430 -352 413 -343Q400 -336 374 -322Q349 -309 343 -296Q342 -293 342 -288Q342 -275 355 -246Q367 -219 367 -207V-205Q375 -202 382 -195Q390 -199 397 -201H398Q403 -199 407 -198Q468 -213 566 -213Q594 -276 646 -377L645 -378Q641 -377 636 -376Q634 -376 632 -378Q635 -384 647 -393Q664 -406 666 -420Q670 -424 674 -429ZM626 12H623Q612 12 595 3Q582 -4 575 -4Q566 -4 557 6V4Q559 -12 566 -23H564Q554 -20 545 -15Q552 -23 552 -36Q552 -53 538 -53H536Q529 -74 529 -81Q529 -88 531 -92Q525 -100 488 -100Q459 -100 440 -95Q417 -89 417 -78V-77Q418 -65 433 -65Q457 -68 480 -72Q496 -72 499 -60Q467 -55 435 -50H429Q420 -40 413 -28Q406 -17 388 -16Q382 -16 378 -17Q372 -18 363 -26Q354 -35 352 -36Q341 -43 330 -52Q318 -61 316 -73Q285 -100 278 -117Q272 -119 270 -119Q262 -117 254 -116H253L252 -118Q256 -123 260 -133Q260 -137 257 -137L253 -136Q257 -147 257 -159Q255 -194 230 -217Q206 -240 189 -260Q222 -255 241 -227Q261 -199 274 -176Q276 -180 276 -189Q276 -204 263 -223Q261 -225 238 -255Q217 -283 202 -297Q180 -318 154 -324Q148 -322 145 -318Q145 -313 150 -305Q153 -300 154 -294H152Q133 -294 124 -309Q87 -328 69 -352Q47 -382 47 -429V-437Q54 -442 66 -446Q69 -469 72 -493V-497H73Q79 -497 83 -488Q92 -498 92 -516Q92 -529 86 -555Q79 -585 79 -598Q79 -614 84 -625Q89 -596 94 -567Q99 -538 113 -518Q114 -521 114 -528Q114 -538 107 -561Q100 -583 100 -594Q100 -601 101 -604Q108 -599 108 -585Q119 -551 137 -528Q134 -542 130 -557Q130 -561 133 -566Q139 -557 143 -546Q147 -536 155 -530Q169 -534 182 -538H192Q226 -538 249 -515Q263 -501 281 -465Q306 -479 337 -480Q350 -482 363 -488Q416 -493 475 -513Q484 -517 495 -522Q506 -527 519 -528Q526 -528 533 -525Q511 -511 446 -491Q404 -474 369 -464Q344 -458 342 -457Q324 -450 324 -438V-434Q325 -426 334 -426Q345 -426 361 -434Q433 -463 437 -464Q506 -487 525 -495Q550 -505 605 -521Q667 -538 696 -553Q692 -562 683 -562Q667 -559 651 -556H649Q658 -571 675 -574Q691 -578 706 -584Q729 -595 755 -621Q762 -617 777 -615Q792 -631 795 -660Q797 -642 800 -625Q803 -605 821 -604H826Q838 -578 865 -574Q875 -574 885 -581V-580Q885 -574 879 -568Q873 -562 873 -556V-553Q882 -554 902 -564Q914 -570 923 -573Q917 -566 904 -556Q892 -546 890 -533Q890 -525 896 -518L898 -517Q900 -517 903 -522Q907 -528 911 -528H912Q909 -522 909 -515Q913 -495 921 -478Q924 -469 924 -451Q924 -427 930 -415Q915 -395 899 -352Q887 -356 882 -356Q859 -356 847 -337L850 -336H851Q855 -336 855 -333Q847 -328 840 -321Q832 -315 824 -314H823Q822 -316 822 -321Q822 -330 832 -343Q839 -352 841 -359Q835 -366 828 -366Q818 -366 806 -350Q796 -337 792 -323Q791 -324 789 -329Q787 -336 783 -337Q770 -336 760 -322Q755 -315 746 -296Q720 -242 694 -188Q684 -170 676 -155Q667 -141 666 -119V-113Q669 -108 672 -104Q693 -130 721 -187Q747 -239 760 -258H761Q772 -258 783 -270Q791 -279 799 -281V-279Q799 -262 789 -244Q788 -241 770 -215Q745 -176 706 -83Q699 -65 691 -48Q686 -19 669 0Q647 2 634 25Q631 25 630 18Q629 13 626 12Z"/>
</svg>