<svg xmlns="http://www.w3.org/2000/svg" viewBox="0 -800 1024 1024">
	<path fill="#000000" d="M695 -518Q697 -520 702 -520Q710 -518 716 -510Q714 -502 710 -499Q701 -506 695 -518ZM899 -488H901Q902 -486 902 -480Q902 -477 899 -459Q891 -459 891 -475Q891 -488 899 -488ZM566 -516Q545 -547 514 -560Q490 -543 457 -497Q455 -498 452 -498Q450 -498 449 -492Q467 -493 500 -503Q539 -515 566 -516ZM627 -134H616Q584 -134 578 -119Q577 -120 575 -123Q573 -128 569 -128Q499 -120 443 -74Q443 -55 457 -39Q531 -58 588 -66Q618 -117 627 -134ZM790 -45H772Q758 -45 754 -51Q756 -57 767 -63Q776 -68 779 -74Q776 -104 760 -122Q743 -113 735 -96Q726 -76 707 -68H706Q703 -68 700 -71Q697 -75 693 -75Q672 -68 661 -47Q649 -24 637 -2Q631 6 622 12Q614 18 613 27Q613 32 616 36Q638 25 651 5Q664 -15 681 -32Q686 -29 689 -29Q695 -29 705 -38Q716 -48 723 -48Q727 -48 729 -47V-46Q728 -41 720 -36Q711 -30 705 -25Q705 -18 708 -17Q694 -15 688 -4Q682 7 676 18Q664 34 648 50Q631 66 625 84Q622 83 618 79Q614 75 609 75Q606 75 603 76L602 73Q604 69 605 64Q602 63 594 63Q584 64 574 64Q571 61 571 54V49Q556 44 541 39V37Q541 32 547 24Q508 25 467 57L464 69H461Q451 70 446 75Q441 81 436 86Q407 80 387 64Q385 58 374 44Q361 28 361 17Q361 13 362 10Q369 11 377 21Q385 31 391 31Q394 31 396 30Q390 5 370 -12Q350 -28 331 -47Q325 -55 319 -64Q314 -73 303 -75Q300 -69 300 -62Q300 -42 323 -21Q328 -18 335 -16Q341 -14 342 -8Q339 -5 335 -5Q325 -7 315 -9Q312 -9 310 -8Q306 -12 301 -21Q295 -33 291 -36Q287 -37 282 -39Q273 -48 261 -68V-81Q258 -92 254 -104Q258 -112 261 -120V-122Q261 -136 251 -159Q243 -173 240 -186Q240 -188 242 -194Q248 -191 254 -173Q261 -153 267 -149L268 -152Q264 -163 259 -175L260 -179Q265 -178 270 -170Q275 -162 282 -162H283L284 -164Q282 -169 279 -174V-176Q293 -172 306 -169Q330 -173 353 -178Q356 -177 359 -177Q364 -176 373 -170Q384 -163 390 -163H394Q404 -163 426 -172Q443 -179 454 -180Q453 -188 435 -194Q419 -200 416 -203Q424 -205 429 -205Q446 -205 458 -198Q501 -238 535 -285Q434 -252 368 -215Q365 -208 362 -201Q333 -202 316 -214Q298 -227 298 -250V-252Q298 -259 305 -273Q312 -289 313 -298V-300Q312 -309 310 -319Q310 -324 312 -327Q328 -339 344 -351Q355 -344 368 -344Q395 -348 430 -356Q416 -367 402 -378Q401 -384 395 -396Q389 -407 389 -414Q389 -421 395 -429Q359 -399 323 -359Q286 -323 248 -288Q239 -279 229 -265Q216 -246 212 -242Q187 -217 175 -194Q145 -205 140 -205Q128 -205 121 -194L120 -198Q120 -202 126 -208Q134 -215 134 -221Q133 -230 124 -236Q115 -242 109 -248Q101 -260 94 -273Q87 -286 75 -287H73Q71 -297 71 -303Q71 -322 79 -330Q77 -354 68 -373Q71 -373 76 -368Q80 -364 83 -364Q84 -364 88 -366Q95 -374 95 -385Q95 -396 81 -420Q70 -439 68 -450H69Q76 -450 91 -428Q98 -417 108 -404Q119 -391 135 -390H138Q148 -391 184 -419Q190 -423 195 -428Q201 -433 210 -433H214Q212 -426 197 -413Q176 -394 176 -380Q176 -375 177 -372Q204 -382 226 -405Q249 -428 273 -449Q331 -496 342 -507Q365 -526 363 -528L360 -530Q341 -524 332 -519Q306 -500 286 -477Q270 -461 258 -461Q262 -477 277 -484Q291 -491 301 -501Q305 -507 309 -514Q315 -517 320 -521Q323 -523 334 -537Q365 -568 397 -601Q429 -634 454 -671Q451 -677 451 -683Q451 -690 455 -698Q449 -728 436 -749H446Q452 -754 458 -768Q483 -784 516 -784Q557 -784 597 -762Q612 -739 612 -705Q612 -658 588 -637Q593 -625 614 -610Q631 -598 637 -587L639 -585L642 -586L645 -585Q648 -575 663 -562Q681 -546 681 -534V-533Q655 -547 636 -569Q616 -592 587 -602Q595 -579 615 -563Q634 -548 654 -531Q697 -489 738 -446Q749 -435 761 -424Q772 -414 787 -410Q784 -423 762 -446Q745 -463 741 -474L745 -475Q759 -471 767 -461Q783 -445 799 -429Q816 -413 840 -405Q845 -410 845 -420Q845 -426 844 -433Q844 -438 845 -441Q848 -437 856 -411Q859 -422 859 -445Q858 -475 857 -506Q858 -515 858 -524Q863 -519 863 -509Q863 -498 862 -488Q866 -455 870 -422Q871 -429 871 -445Q870 -477 869 -509Q869 -533 873 -548Q880 -547 880 -538Q879 -530 878 -522Q877 -513 877 -492Q877 -415 895 -380Q899 -385 899 -398Q897 -420 895 -442Q896 -446 896 -450Q902 -448 903 -441Q904 -433 904 -426Q911 -368 920 -353L921 -351L925 -352L926 -351V-346Q926 -337 934 -320Q940 -306 941 -297Q942 -292 942 -287Q942 -239 880 -216Q875 -221 866 -221Q854 -219 842 -218Q813 -227 769 -269V-271Q768 -275 767 -279V-281Q751 -310 729 -334Q707 -358 687 -384Q637 -449 602 -480V-477Q602 -459 594 -439Q585 -418 572 -410Q527 -406 509 -401Q480 -393 467 -372Q453 -372 449 -360H452Q473 -364 493 -369Q498 -369 504 -366Q500 -358 492 -357Q483 -355 476 -354Q457 -351 443 -347Q421 -344 401 -339Q380 -334 374 -311Q379 -308 385 -308Q392 -308 431 -321Q504 -342 574 -359Q571 -369 559 -370Q547 -370 538 -373Q543 -380 556 -382Q561 -383 581 -384Q590 -392 601 -393Q612 -393 621 -396Q626 -398 632 -406Q639 -415 646 -417V-414Q645 -406 643 -399Q645 -390 657 -390Q667 -390 672 -395L673 -392Q671 -386 669 -380V-378Q669 -375 675 -373Q679 -372 680 -370V-365Q680 -356 687 -347Q686 -332 692 -327Q690 -317 690 -310Q690 -309 693 -276Q684 -265 653 -262Q627 -260 618 -252Q595 -234 580 -207Q594 -211 616 -213Q622 -214 635 -219Q652 -226 663 -226Q667 -226 677 -224Q688 -220 698 -216Q708 -218 717 -233Q726 -249 735 -249L736 -247Q736 -245 731 -239Q724 -231 723 -225V-222Q724 -212 731 -206Q738 -201 745 -194Q758 -198 774 -200H778Q777 -197 769 -193Q763 -190 763 -183V-182Q765 -180 767 -180Q772 -181 776 -182Q779 -182 781 -180Q773 -175 773 -164Q773 -149 788 -149H790Q788 -144 782 -143Q782 -133 793 -120Q801 -110 802 -105Q803 -103 803 -98Q803 -89 797 -74Q790 -57 790 -48Z"/>
</svg>