<svg xmlns="http://www.w3.org/2000/svg" viewBox="0 -800 1024 1024">
	<path fill="#000000" d="M109 -182V-184Q123 -181 123 -166Q109 -170 109 -182ZM825 -734V-733Q825 -726 818 -720Q813 -716 812 -712Q806 -715 806 -720Q808 -732 823 -734ZM872 -348V-340Q861 -338 856 -322Q853 -325 853 -332Q853 -341 857 -347Q862 -355 870 -355H871Q872 -354 872 -348ZM854 -95H856Q854 -81 854 -73Q856 -44 857 -15Q857 -3 856 3Q854 25 838 42Q821 60 799 60Q795 60 791 59Q784 57 779 52Q775 47 770 44Q759 38 747 31Q737 23 728 16Q719 10 701 9Q698 -5 686 -16Q685 -17 661 -35Q651 -41 641 -48Q631 -55 628 -67Q639 -65 654 -54Q671 -41 684 -40V-45Q683 -59 672 -68Q662 -77 651 -85Q600 -127 501 -175Q500 -173 500 -170Q504 -157 516 -149Q533 -132 566 -110Q573 -107 580 -103Q588 -100 589 -94L585 -93Q576 -95 569 -100Q544 -112 497 -149Q459 -179 440 -190Q410 -169 356 -106Q336 -84 315 -61Q295 -38 288 -4Q252 2 217 25Q218 21 218 17V14Q216 10 206 2Q199 -4 196 -9Q190 -21 186 -33Q181 -45 169 -52Q169 -79 149 -111Q133 -137 130 -155Q148 -132 165 -109Q143 -162 112 -221Q122 -214 145 -175Q158 -145 177 -126Q174 -135 163 -154Q155 -168 151 -178H152Q159 -178 171 -158Q186 -134 196 -132H200Q211 -132 229 -149Q248 -167 260 -167H262V-166Q262 -162 254 -152Q245 -141 245 -134Q245 -129 249 -124Q322 -172 350 -241H347Q331 -241 314 -218Q301 -200 291 -196Q298 -217 312 -230Q326 -244 338 -259Q320 -282 301 -305Q303 -311 303 -313Q300 -324 297 -336Q308 -339 320 -349Q334 -361 344 -362H351Q377 -361 402 -347Q427 -334 452 -325Q483 -358 496 -376Q489 -381 485 -381Q476 -381 461 -362Q449 -347 443 -346Q444 -358 451 -367Q459 -376 467 -383Q490 -405 513 -429Q536 -452 554 -480Q439 -432 324 -385Q304 -377 285 -369Q266 -362 253 -348Q245 -339 240 -329Q234 -319 222 -314H216Q172 -314 157 -358Q138 -362 123 -375Q104 -391 100 -411Q99 -416 99 -426Q99 -454 122 -481Q121 -486 121 -495Q121 -517 135 -537Q142 -547 163 -569Q180 -586 195 -600Q210 -615 230 -625Q218 -608 204 -594Q190 -580 187 -556Q189 -550 195 -549Q200 -548 205 -545Q261 -571 317 -574Q315 -571 313 -569L315 -568H317Q281 -560 271 -538Q276 -537 286 -537Q316 -538 343 -548Q370 -559 393 -569Q423 -580 453 -589Q482 -598 511 -613Q510 -620 503 -620Q498 -619 493 -619Q466 -618 438 -608Q411 -598 385 -590Q395 -610 422 -615Q448 -620 474 -626Q493 -632 511 -639Q528 -645 545 -646H550V-645Q550 -637 538 -635Q528 -633 527 -629V-627Q527 -622 530 -620Q533 -619 535 -616Q547 -618 573 -624Q599 -631 603 -641V-642Q603 -651 593 -651Q584 -650 574 -649Q568 -649 566 -650Q573 -660 584 -663Q595 -666 606 -668Q639 -679 646 -683Q657 -689 677 -710Q689 -723 699 -730Q700 -722 709 -722Q727 -726 735 -731H736Q739 -731 739 -726V-719Q745 -712 751 -705Q757 -698 766 -697H767Q773 -697 780 -703Q788 -710 794 -710Q786 -697 781 -680Q781 -673 791 -670H795Q806 -670 829 -685Q853 -700 863 -700H866Q863 -691 835 -673Q810 -657 810 -643V-641Q811 -623 841 -623H863Q854 -617 843 -612Q832 -606 831 -596Q831 -591 834 -587L835 -586Q838 -588 840 -590H841Q834 -582 833 -563Q832 -549 830 -542Q829 -537 822 -530Q812 -519 812 -512Q812 -508 813 -506Q761 -494 748 -488Q748 -485 752 -484Q755 -484 755 -482V-480Q720 -470 685 -443Q675 -435 628 -392Q601 -367 572 -342Q544 -317 517 -290Q593 -239 677 -188Q707 -168 713 -165Q733 -155 755 -155H758Q769 -166 781 -202Q795 -244 812 -256Q800 -210 788 -164Q800 -180 813 -228Q829 -285 849 -302Q829 -244 825 -230Q813 -186 813 -149Q822 -163 830 -204Q839 -247 850 -262Q851 -260 851 -257Q851 -254 846 -239Q831 -185 831 -143Q831 -107 844 -85Q846 -86 848 -90Q850 -95 854 -95Z"/>
</svg>