<svg xmlns="http://www.w3.org/2000/svg" viewBox="0 -800 1024 1024">
	<path fill="#000000" d="M759 -177Q755 -179 753 -179Q748 -179 744 -174Q740 -169 740 -166H738Q687 -161 650 -142Q640 -132 640 -113Q640 -94 649 -76Q676 -83 724 -99Q742 -138 759 -177ZM887 -594Q886 -594 880 -589Q874 -584 869 -584Q867 -584 863 -586Q864 -591 869 -597Q875 -603 879 -603Q886 -603 887 -594ZM468 -190Q478 -218 503 -225V-240L505 -242Q510 -238 515 -234Q516 -236 516 -241Q514 -256 512 -272Q512 -281 514 -285H516Q520 -285 520 -278Q520 -271 521 -270Q526 -260 540 -244Q544 -244 548 -245Q556 -245 586 -234Q612 -241 637 -249V-309Q607 -279 578 -292Q564 -313 546 -332Q528 -352 519 -376Q525 -434 542 -454Q560 -476 604 -492Q621 -494 634 -504Q629 -550 625 -597Q621 -645 601 -675Q593 -678 585 -681Q579 -703 554 -709Q564 -718 589 -726Q610 -733 622 -740Q636 -749 650 -764Q665 -779 679 -781H681Q701 -779 722 -763Q743 -747 757 -738Q764 -723 772 -703Q780 -683 781 -664Q781 -638 755 -628Q752 -632 752 -636Q757 -649 761 -662V-666Q761 -680 753 -693Q745 -706 734 -706H732Q720 -705 720 -695Q725 -678 729 -662Q729 -654 723 -634Q713 -600 713 -585Q713 -563 726 -553Q731 -559 734 -587Q736 -612 747 -612Q749 -612 755 -610Q746 -595 746 -572Q746 -555 752 -543Q798 -567 848 -580Q848 -576 841 -572Q835 -569 834 -564Q837 -560 843 -560Q849 -560 861 -565Q876 -571 883 -571Q888 -571 890 -570Q882 -565 874 -560Q867 -555 866 -543H868Q882 -546 895 -550Q900 -550 902 -549Q881 -540 881 -520Q881 -508 891 -501Q888 -495 888 -486Q888 -475 891 -465Q889 -456 879 -437Q866 -413 866 -395Q866 -391 868 -379Q851 -379 804 -370Q806 -384 820 -386Q835 -388 838 -401H828Q759 -401 729 -364Q735 -362 738 -362Q746 -362 759 -367Q775 -373 782 -373Q788 -373 791 -372V-366Q771 -358 746 -351Q721 -345 719 -322Q719 -319 721 -309Q714 -307 714 -298Q713 -289 711 -282Q745 -296 771 -297Q783 -311 803 -319Q822 -326 835 -332Q842 -322 869 -312Q888 -328 903 -348Q903 -341 896 -329Q889 -317 888 -309Q891 -303 898 -303Q907 -303 915 -309L916 -306Q916 -302 915 -299V-297Q919 -293 923 -293Q934 -296 945 -299Q950 -299 952 -298Q945 -292 936 -287Q928 -282 924 -273Q928 -262 936 -255Q944 -249 950 -241Q950 -218 959 -205Q954 -197 954 -187Q954 -179 959 -172Q950 -166 946 -134Q942 -132 936 -130Q930 -127 929 -120Q925 -122 919 -122Q903 -118 886 -114H885V-119Q885 -133 905 -143Q920 -151 923 -157Q922 -173 908 -173Q886 -169 878 -150H872Q857 -150 848 -144Q828 -125 816 -89Q804 -53 794 -30Q805 -37 821 -61Q837 -85 844 -91H845Q854 -91 863 -100Q872 -109 878 -109Q882 -109 884 -108Q840 -64 821 -32Q792 16 789 76Q779 76 771 72L765 84Q754 83 747 79Q744 77 733 66Q727 69 723 69Q715 69 704 57Q692 45 682 44L681 41Q682 38 683 35L682 33Q678 32 670 32Q651 32 639 47Q631 56 622 78Q612 78 610 81Q580 60 570 24Q560 -12 548 -48Q538 -70 523 -86Q507 -103 494 -118Q489 -121 481 -138Q475 -151 472 -154Q468 -163 466 -172Q464 -123 453 -84H451Q443 -85 434 -86Q428 -86 425 -81Q422 -90 401 -98Q382 -105 379 -117Q346 -105 320 -85Q294 -65 268 -46V-48Q269 -60 277 -66Q285 -72 295 -78Q327 -102 358 -126Q356 -127 351 -127Q335 -126 319 -116Q302 -105 286 -94Q268 -82 251 -71Q233 -59 222 -46Q213 -37 213 -26Q213 -20 216 -16Q220 -16 225 -22Q233 -31 241 -31Q245 -31 247 -30Q245 -17 231 -3Q217 11 217 21Q204 28 191 42Q147 27 126 0Q124 -13 118 -21Q112 -28 107 -37Q102 -38 97 -39H95Q104 -51 104 -70Q104 -88 95 -99Q97 -105 106 -114Q116 -124 118 -132Q112 -154 108 -177Q104 -199 93 -219Q89 -225 77 -234Q67 -242 63 -247Q37 -283 37 -321Q37 -345 53 -357Q52 -365 47 -375Q41 -388 40 -397H41Q45 -397 51 -389Q59 -379 66 -378Q65 -388 54 -409Q44 -430 41 -442Q47 -438 57 -422Q69 -403 80 -399L81 -403Q81 -406 78 -411Q74 -417 74 -422V-424Q83 -420 92 -410Q101 -400 116 -399H118Q134 -386 158 -364Q180 -349 198 -330Q212 -311 212 -276Q209 -231 206 -187Q206 -174 207 -168Q225 -174 240 -183Q246 -252 246 -265Q247 -275 247 -297V-301Q246 -317 245 -334Q245 -348 250 -357Q256 -346 256 -324Q254 -291 252 -259Q252 -231 266 -220Q273 -232 273 -260Q273 -274 272 -289V-310Q273 -352 273 -395Q273 -416 272 -424Q268 -440 261 -441H260Q250 -441 250 -421Q250 -408 247 -406Q238 -483 235 -494Q223 -539 190 -551Q205 -581 231 -604Q262 -631 296 -631Q315 -631 334 -622Q341 -607 360 -578Q385 -540 392 -514Q391 -498 378 -472Q364 -443 364 -426Q364 -421 366 -411Q357 -391 355 -360Q352 -329 349 -298Q346 -277 346 -276Q348 -272 349 -268Q347 -255 344 -242Q344 -233 348 -228Q365 -235 382 -243V-250Q383 -261 383 -272Q383 -278 382 -281Q381 -292 372 -311Q364 -328 364 -336V-339Q365 -350 382 -367Q401 -382 436 -382Q452 -382 459 -376Q476 -358 488 -333Q501 -314 509 -282Q499 -255 485 -249Q474 -231 468 -190Z"/>
</svg>