<svg xmlns="http://www.w3.org/2000/svg" viewBox="0 -800 1024 1024">
	<path fill="#000000" d="M500 -59V-72Q513 -64 519 -52L515 -51Q507 -53 500 -59ZM911 -458Q911 -450 905 -447Q900 -445 894 -442Q892 -446 892 -449Q892 -460 904 -460Q907 -460 911 -458ZM702 -125H701Q698 -129 698 -135Q698 -147 706 -149Q711 -147 711 -140Q710 -127 702 -125ZM730 11V13Q730 25 708 49Q687 73 686 90Q671 91 654 104Q632 95 626 95Q621 95 618 96Q608 72 599 60Q586 43 568 37Q562 24 549 3Q530 -28 524 -44Q535 -38 549 -17Q558 -3 565 3Q561 -13 550 -27Q540 -41 530 -56Q505 -104 501 -124Q513 -111 532 -80Q552 -47 566 -33Q550 -66 534 -99Q546 -87 557 -75Q577 -50 580 -50Q590 -50 596 -72Q601 -89 601 -109V-156Q603 -175 605 -195V-200Q604 -207 602 -215Q605 -235 607 -255Q607 -264 605 -267Q596 -267 587 -268Q544 -267 508 -256Q471 -244 438 -233Q436 -199 436 -180Q437 -157 437 -135Q437 -74 429 -44Q404 -35 393 -26Q376 -13 373 8Q363 -12 337 -39Q313 -64 306 -75Q306 -83 318 -87Q312 -100 286 -108Q266 -114 260 -119Q290 -121 312 -128Q308 -136 299 -138Q289 -140 282 -143Q302 -153 321 -164V-201Q252 -180 214 -150Q193 -132 186 -116Q184 -117 180 -117Q170 -114 159 -112H158Q138 -114 125 -128Q112 -142 97 -150H85Q73 -162 62 -174Q51 -187 50 -210V-212Q59 -223 65 -253Q71 -283 82 -294Q101 -308 127 -319Q145 -330 159 -341Q173 -351 195 -354Q184 -350 174 -340Q162 -329 162 -320Q162 -310 177 -305Q221 -306 276 -325Q285 -325 288 -322Q292 -327 298 -329Q304 -327 305 -327Q310 -330 318 -333H321Q325 -363 325 -382Q325 -448 297 -467V-469Q297 -473 302 -476Q305 -478 306 -480Q303 -484 294 -487Q284 -490 282 -495Q306 -496 336 -521Q365 -545 393 -545H399Q421 -534 442 -494Q458 -464 469 -454Q466 -451 462 -444Q456 -434 451 -431Q445 -441 445 -449V-454Q437 -466 428 -478Q419 -491 404 -497V-492Q404 -482 413 -466Q423 -449 423 -442V-440Q423 -434 418 -421Q413 -408 413 -401Q413 -398 415 -392Q422 -393 432 -405Q442 -418 450 -420Q449 -413 443 -394Q436 -373 436 -358V-353Q464 -359 497 -363Q514 -369 531 -376Q573 -377 611 -383Q614 -399 614 -418Q611 -475 607 -533V-553Q607 -577 598 -610Q589 -645 577 -655Q576 -656 565 -659Q577 -667 580 -679Q580 -683 578 -686Q600 -699 627 -718Q654 -738 680 -741H682Q724 -741 734 -690L730 -689Q723 -689 714 -697Q700 -709 690 -709H686Q690 -698 708 -673Q729 -643 735 -624Q739 -625 743 -627Q745 -631 745 -639Q742 -656 738 -674Q738 -677 740 -683Q771 -660 771 -639V-637Q770 -620 745 -586Q728 -562 724 -551Q713 -515 713 -465Q713 -433 716 -397Q762 -403 883 -436L884 -434Q883 -429 882 -425Q882 -421 885 -420Q893 -412 908 -412Q922 -413 935 -414Q932 -411 927 -410Q923 -409 922 -404Q927 -398 948 -398V-397Q946 -390 941 -385Q949 -383 965 -383Q960 -380 952 -376Q944 -372 941 -363Q942 -361 946 -357Q950 -353 951 -348Q939 -347 930 -335Q922 -324 922 -312Q922 -305 926 -297Q918 -297 914 -284Q868 -291 818 -294Q809 -293 799 -293Q800 -304 819 -304Q830 -303 840 -303Q845 -303 849 -304Q860 -313 886 -316Q876 -329 846 -329Q812 -325 778 -322Q750 -321 747 -320Q730 -317 728 -305Q739 -299 752 -299Q753 -299 789 -302Q782 -287 758 -286Q734 -284 721 -279Q715 -268 714 -231Q713 -191 703 -179Q700 -191 700 -216V-227Q700 -259 694 -272Q682 -262 682 -231V-207Q680 -156 678 -105Q678 -34 694 1Q702 -3 702 -15Q700 -31 698 -47Q697 -53 697 -65Q697 -88 707 -96Q713 -57 721 -20Q726 -4 730 11Z"/>
</svg>