<svg xmlns="http://www.w3.org/2000/svg" viewBox="0 -800 1024 1024">
	<path fill="#000000" d="M917 -723V-721Q916 -705 903 -704Q900 -704 898 -705Q898 -723 913 -723ZM387 -123H389Q390 -121 390 -118Q390 -108 380 -96Q373 -97 373 -105Q373 -111 377 -117Q381 -123 387 -123ZM96 -209Q67 -214 67 -230Q67 -233 70 -238Q83 -232 87 -228Q95 -221 96 -209ZM790 -318H792Q772 -273 756 -214Q738 -122 732 -36Q733 -30 733 -24Q733 -20 732 -18Q729 -10 718 -2Q707 6 701 13Q688 35 677 51Q658 54 651 66Q609 60 578 23Q565 9 563 -21Q560 -40 536 -70Q520 -91 516 -103H519Q523 -103 529 -98Q534 -94 537 -93Q533 -106 516 -127Q498 -150 494 -168Q506 -166 513 -153Q520 -138 535 -134Q530 -147 510 -173Q486 -204 480 -226Q511 -188 547 -157Q563 -173 572 -197Q582 -222 593 -247Q641 -341 695 -476Q694 -482 686 -486Q702 -491 712 -525Q641 -508 563 -465Q571 -450 579 -450H580Q578 -446 578 -442Q578 -437 580 -433Q587 -436 593 -439H596Q586 -433 586 -400Q586 -363 572 -358Q569 -359 563 -359Q543 -357 532 -340Q521 -323 509 -309Q505 -306 500 -303Q496 -293 492 -283Q485 -272 478 -265Q471 -257 470 -247V-246Q452 -233 432 -192Q416 -160 405 -148Q410 -185 431 -214Q452 -242 467 -275Q453 -274 444 -261Q435 -249 426 -235Q380 -171 362 -132Q344 -101 334 -79Q332 -73 332 -68Q332 -53 340 -53H341Q345 -53 351 -66Q359 -85 367 -85Q370 -85 372 -84Q366 -66 357 -46Q341 -11 337 7Q330 10 321 10Q303 10 280 -5Q272 -10 244 -33Q234 -29 227 -28Q233 -37 233 -46Q232 -61 223 -73Q213 -85 205 -94L207 -96Q211 -95 215 -95L218 -97Q214 -126 192 -137Q169 -148 152 -165Q169 -161 183 -153Q197 -145 214 -138Q213 -147 206 -151Q198 -156 191 -159Q161 -172 131 -189Q124 -193 116 -198Q108 -202 106 -210Q137 -197 167 -185Q212 -170 232 -170Q256 -170 272 -182Q281 -189 313 -231Q333 -256 353 -282Q376 -307 394 -336Q412 -364 429 -387Q430 -396 436 -403Q441 -411 442 -414L440 -415Q436 -415 427 -411Q394 -399 374 -387Q325 -360 312 -348Q305 -341 296 -326Q285 -308 279 -304Q218 -304 209 -333Q171 -336 145 -360Q119 -384 116 -418Q116 -430 115 -442Q116 -448 122 -466Q129 -486 129 -498Q129 -505 126 -514Q138 -542 162 -564Q178 -579 212 -600Q227 -610 241 -620Q255 -630 273 -634Q258 -621 243 -608Q228 -596 223 -574Q238 -586 253 -599Q252 -590 241 -574Q244 -570 247 -567Q271 -573 293 -581Q315 -589 343 -591Q340 -581 328 -578Q314 -576 312 -562Q320 -556 331 -556Q364 -560 396 -574Q445 -588 492 -602Q539 -616 578 -636Q575 -644 567 -644Q554 -642 543 -637Q522 -631 501 -625Q463 -609 431 -606H424Q427 -612 434 -614Q441 -616 447 -618Q516 -639 575 -660Q600 -672 626 -675H629Q627 -666 610 -660Q592 -654 592 -645Q593 -642 593 -640Q599 -638 603 -638Q614 -638 643 -654Q671 -663 689 -678Q685 -685 677 -685Q665 -682 653 -680Q651 -680 648 -681Q654 -691 670 -698Q675 -700 697 -708Q722 -715 747 -728Q750 -727 754 -727Q756 -727 768 -731Q784 -722 796 -708Q809 -694 821 -680Q828 -680 837 -686Q847 -693 854 -693Q850 -686 844 -680Q838 -674 837 -667V-666Q850 -667 869 -683Q885 -696 892 -699Q891 -688 875 -678Q859 -668 859 -657Q859 -653 860 -650H861Q863 -650 868 -656Q875 -665 882 -665L883 -664Q880 -657 877 -650Q883 -612 897 -603Q900 -606 902 -609Q904 -614 910 -614Q908 -596 908 -586Q908 -535 926 -505V-497Q926 -480 925 -463V-455L921 -456Q917 -456 911 -450Q906 -445 901 -444H896Q885 -445 873 -446Q860 -446 857 -432L858 -431Q861 -431 863 -432L866 -430Q847 -421 834 -401Q826 -389 814 -361Q809 -365 809 -370Q813 -381 816 -392L815 -396Q788 -393 777 -355L775 -354Q774 -354 768 -357Q754 -343 743 -315Q740 -307 725 -264Q702 -195 700 -156Q700 -144 699 -133Q699 -106 706 -97Q719 -126 732 -189Q748 -266 763 -294H766Q774 -294 778 -306Q782 -318 790 -318Z"/>
</svg>