<svg xmlns="http://www.w3.org/2000/svg" viewBox="0 -800 1024 1024">
	<path fill="#000000" d="M939 -691H942Q941 -680 936 -675Q930 -669 926 -663Q924 -669 924 -673Q924 -691 939 -691ZM582 -402V-420Q587 -425 595 -425Q604 -425 609 -421Q605 -406 582 -402ZM423 -345Q413 -355 405 -401Q396 -450 403 -470Q407 -474 411 -481Q416 -488 424 -490V-499Q424 -522 443 -536Q454 -544 479 -553Q475 -550 475 -538Q483 -532 497 -532Q530 -533 562 -535H568Q571 -536 579 -546Q587 -557 591 -557Q594 -550 596 -544Q599 -545 602 -554Q606 -564 610 -565Q652 -580 709 -585Q722 -587 744 -595Q781 -613 836 -613Q851 -611 866 -610Q882 -610 885 -623L886 -620V-614Q886 -610 888 -608Q892 -612 900 -628Q910 -648 921 -653Q917 -641 909 -625Q901 -609 900 -592Q900 -580 905 -573Q914 -585 923 -598Q924 -596 924 -591Q922 -575 920 -559V-556Q924 -537 930 -519Q931 -510 931 -495V-471Q931 -456 934 -444Q924 -416 916 -383H914Q904 -385 894 -388Q891 -388 888 -385V-383Q888 -379 893 -377Q898 -375 898 -371V-370Q889 -364 879 -353Q868 -342 859 -333Q870 -367 874 -396V-399Q862 -397 849 -377Q838 -360 832 -340Q829 -345 826 -350Q811 -336 803 -312Q794 -288 786 -263Q766 -192 763 -109V-99Q775 -121 790 -197Q801 -255 811 -278Q815 -276 816 -276Q820 -276 823 -284Q827 -295 833 -295H835Q831 -254 810 -169Q791 -92 786 -42Q755 -19 750 -10Q744 -13 741 -13Q735 -9 728 -6V-11Q728 -27 715 -27Q704 -27 703 -15Q698 -65 670 -67V-72Q671 -85 677 -91Q684 -96 690 -101Q689 -111 677 -111Q671 -111 661 -109Q587 -106 559 -95Q543 -90 543 -76V-74Q544 -68 553 -68Q591 -73 629 -78Q645 -78 650 -65Q596 -61 570 -53Q525 -40 514 -10Q498 -12 490 -29Q481 -45 472 -63Q464 -74 460 -83V-89Q464 -133 482 -163Q494 -169 505 -176L526 -162Q612 -181 698 -201Q705 -265 709 -277Q682 -276 654 -264Q649 -262 606 -239Q579 -231 575 -231H572Q564 -232 547 -253Q530 -273 513 -274V-275Q513 -279 519 -280Q523 -280 524 -282Q523 -284 518 -284H507V-285Q507 -287 515 -300Q531 -331 575 -335Q601 -338 644 -359Q702 -385 710 -389V-386Q712 -376 716 -370Q721 -372 725 -375Q723 -367 723 -364Q723 -354 729 -350Q734 -362 742 -395Q750 -430 757 -444Q727 -443 682 -432Q644 -422 624 -421Q648 -443 684 -451Q719 -459 750 -472Q741 -480 724 -480Q712 -480 669 -470Q627 -462 581 -448Q532 -434 516 -398Q519 -395 522 -395Q534 -399 546 -404Q554 -404 558 -395Q538 -385 521 -365Q504 -344 486 -323Q473 -306 468 -306Q465 -306 452 -316Q433 -326 423 -345ZM385 -454V-430H382Q379 -429 375 -428H372Q371 -431 371 -438Q371 -454 382 -454ZM178 -59H177Q171 -59 164 -66Q157 -73 157 -79Q157 -86 168 -88Q177 -77 178 -59ZM234 -392V-389Q228 -336 221 -283Q220 -251 218 -214Q189 -209 175 -196Q169 -198 162 -200Q157 -200 157 -190Q156 -179 150 -179Q142 -217 111 -241Q112 -245 112 -255Q111 -275 110 -296Q110 -318 119 -326Q122 -319 122 -301V-290Q122 -266 131 -259Q146 -280 146 -322Q146 -368 125 -383Q115 -382 115 -373Q117 -362 118 -351V-347H117Q113 -347 109 -353Q105 -359 101 -365Q94 -376 87 -388V-394Q90 -433 118 -453Q148 -473 169 -497Q173 -496 174 -491Q175 -486 175 -481Q180 -482 184 -484H186Q204 -467 213 -437Q227 -417 234 -392ZM398 -19V-15Q398 6 391 13Q383 36 354 57Q325 78 309 95Q299 98 290 98Q273 97 263 88Q253 78 243 66Q236 59 225 51Q215 44 210 34Q207 27 206 12Q205 -4 201 -12Q198 -20 192 -30Q184 -43 183 -50H186Q196 -50 201 -38Q204 -30 209 -28V-30Q208 -47 196 -61Q185 -76 176 -92L175 -95Q173 -104 166 -119Q156 -142 155 -154Q165 -143 185 -107Q208 -67 227 -49Q224 -60 212 -79Q198 -101 195 -112Q202 -108 216 -93Q226 -82 235 -76Q243 -83 244 -93Q244 -103 244 -112Q257 -231 261 -370Q262 -390 262 -431Q262 -487 258 -577Q258 -588 257 -593Q257 -618 254 -629Q249 -648 233 -656H230Q221 -652 212 -649L210 -650Q218 -664 228 -691Q239 -720 246 -733Q270 -777 321 -777H331Q347 -770 371 -759Q395 -747 408 -730Q417 -717 426 -704Q434 -692 435 -676Q436 -662 420 -634Q403 -604 401 -587Q398 -564 394 -542Q394 -532 394 -524Q394 -517 386 -511L376 -533Q372 -544 377 -555Q382 -566 377 -567Q372 -567 366 -558Q359 -547 358 -531Q357 -515 356 -494Q351 -442 346 -391Q344 -353 344 -321Q344 -271 352 -254Q360 -271 360 -317Q360 -341 361 -352Q365 -364 368 -377V-379Q368 -387 367 -395Q367 -405 375 -407Q378 -407 378 -400Q378 -393 376 -383Q376 -362 372 -359Q375 -356 375 -351Q374 -346 372 -341Q374 -338 375 -335Q368 -324 368 -310Q370 -289 371 -269V-265Q370 -253 368 -242V-239Q370 -229 372 -220V-217Q371 -205 369 -193V-183Q374 -136 379 -89V-87L382 -85H385Q382 -79 382 -74Q382 -64 390 -46Q398 -28 398 -19Z"/>
</svg>