<svg xmlns="http://www.w3.org/2000/svg" viewBox="0 -800 1024 1024">
	<path fill="#000000" d="M321 -180V-193Q321 -237 335 -311Q328 -314 321 -315Q325 -322 333 -330Q340 -337 341 -347Q341 -351 338 -357Q331 -350 307 -335Q279 -318 270 -305Q263 -295 263 -284Q267 -258 275 -231Q277 -221 283 -203Q290 -182 291 -168Q306 -174 321 -180ZM941 -4H937V-13Q942 -18 952 -18Q958 -18 962 -15Q956 -4 941 -4ZM933 -256Q921 -250 915 -246L914 -250Q916 -257 917 -265Q922 -268 927 -268Q934 -268 934 -261Q934 -258 933 -256ZM726 -742H736V-733Q729 -729 712 -727V-729Q712 -731 711 -734Q712 -742 726 -742ZM597 -360Q597 -363 589 -381Q586 -381 583 -382Q569 -382 569 -369Q569 -362 573 -357Q585 -358 597 -360ZM684 -382V-388Q685 -401 685 -414V-420Q678 -419 670 -415Q667 -394 667 -392Q667 -382 672 -378Q679 -379 684 -382ZM774 -442H770Q758 -442 750 -432Q743 -423 743 -411Q743 -401 747 -394Q757 -403 763 -416Q768 -430 774 -442ZM687 -499H690Q693 -509 693 -521Q693 -537 688 -555Q660 -550 646 -536Q663 -499 665 -496Q676 -497 687 -499ZM878 56V62Q879 79 887 88Q895 97 900 107Q870 80 855 80Q844 80 835 90Q827 78 801 63Q772 46 764 30Q758 28 752 26Q748 14 737 -2Q724 -22 724 -35V-39Q728 -58 743 -71Q749 -74 755 -74Q769 -72 783 -71Q793 -73 802 -76Q805 -76 811 -74Q814 -71 817 -68Q830 -69 842 -61Q847 -63 852 -68Q858 -75 863 -76Q862 -64 861 -53Q861 -44 866 -40Q887 -46 906 -59Q918 -69 932 -73Q939 -73 943 -68Q940 -65 909 -46Q886 -32 886 -18Q886 -11 890 -4Q903 -7 915 -10Q920 -10 924 -7H922Q910 -7 902 3Q895 12 895 24Q895 47 915 48Q913 49 907 49Q901 49 894 48Q882 48 878 56ZM902 -99H901Q898 -100 895 -101L893 -100Q889 -97 889 -92Q889 -89 890 -87Q860 -106 795 -106Q741 -106 693 -94V-92Q695 -86 696 -80Q689 -65 689 -34V-10Q689 4 688 11L684 12Q676 12 674 -5Q671 -27 669 -30Q663 -24 663 -8V32Q663 83 676 96Q684 90 686 63Q687 45 690 38Q700 48 700 67Q699 83 698 99Q698 107 699 110Q686 127 672 141Q646 132 626 119Q613 97 608 66Q602 35 595 5L597 4Q602 8 611 12Q614 12 616 11Q629 -32 626 -85Q563 -77 536 -49Q554 -40 567 -22Q582 -2 582 18Q582 39 565 53H559Q551 53 539 61Q519 51 506 51Q496 51 488 56Q490 44 502 44Q502 33 486 22Q475 14 473 8Q476 2 478 -4Q478 -7 473 -10Q479 -16 485 -22Q484 -27 479 -28Q474 -29 469 -31Q463 -41 455 -48Q447 -54 440 -62Q445 -89 445 -111Q446 -132 461 -145Q470 -151 481 -155Q491 -158 497 -168Q500 -169 506 -169H517Q511 -159 505 -150Q518 -142 541 -142Q544 -142 583 -145Q578 -131 560 -131Q542 -130 536 -117Q544 -112 554 -112Q561 -112 607 -124Q694 -144 783 -156L785 -159V-161Q785 -169 778 -169Q773 -168 767 -168Q695 -166 670 -159Q644 -149 624 -146Q615 -146 608 -153Q658 -171 764 -189Q788 -191 808 -197Q817 -203 825 -211Q848 -219 873 -222H874Q876 -222 876 -220Q876 -217 879 -217Q885 -220 906 -237Q906 -232 899 -224Q890 -213 890 -206V-205H893Q912 -208 930 -212Q923 -207 915 -205Q907 -202 905 -193Q906 -186 912 -186Q916 -186 919 -189Q919 -185 915 -180Q911 -175 911 -172V-168Q913 -156 915 -145V-143Q915 -136 908 -124Q901 -112 901 -104Q902 -101 902 -99ZM448 -463Q465 -483 482 -489Q493 -487 497 -479Q500 -472 511 -460V-458Q511 -453 511 -448Q553 -455 588 -470V-476Q588 -484 586 -496Q572 -485 560 -485Q548 -485 523 -499Q501 -511 494 -520Q485 -542 485 -565Q479 -579 475 -594V-601Q476 -639 487 -663Q495 -676 507 -684Q519 -691 531 -699Q530 -697 530 -693Q530 -691 534 -683L654 -717Q667 -722 679 -725Q684 -725 688 -721Q665 -701 629 -692Q594 -683 567 -673Q571 -666 585 -666Q594 -666 635 -677Q741 -701 779 -734Q777 -738 764 -740Q747 -742 747 -752Q769 -763 806 -763H816Q819 -760 820 -754Q837 -762 851 -765Q849 -760 841 -754Q832 -746 830 -739L832 -738Q838 -742 846 -746H848Q845 -741 845 -733Q845 -723 848 -717H850Q854 -719 858 -721L859 -720Q854 -711 854 -693Q855 -678 855 -664Q855 -654 854 -649Q853 -639 844 -623Q837 -611 836 -604Q831 -602 825 -601L824 -599Q825 -596 826 -594V-592Q784 -592 774 -580Q778 -578 782 -570Q785 -564 788 -561Q785 -549 782 -538Q799 -539 828 -559Q856 -579 876 -579Q888 -579 903 -573L924 -580Q924 -577 921 -575Q918 -573 918 -570Q926 -572 933 -587Q941 -604 953 -605Q939 -585 938 -567L940 -565Q943 -568 946 -571L947 -570V-565Q947 -544 958 -544H962Q960 -540 960 -538Q960 -531 976 -520Q968 -461 966 -455Q955 -422 925 -420Q924 -421 937 -447Q934 -455 924 -455Q909 -455 908 -445Q902 -449 899 -454Q857 -434 833 -384Q827 -370 827 -360Q827 -353 830 -347Q843 -362 852 -380Q862 -397 879 -407Q883 -405 885 -405Q892 -406 899 -407Q905 -407 909 -401Q891 -370 870 -341Q850 -312 842 -271Q841 -269 838 -269H832Q828 -265 828 -253Q812 -253 788 -268Q771 -277 759 -297Q755 -304 750 -312Q746 -320 741 -321H736Q734 -321 714 -316H690Q657 -313 625 -301Q591 -288 577 -271Q591 -274 631 -287Q678 -303 706 -307Q708 -306 712 -301Q716 -295 719 -295Q721 -295 724 -298L726 -295V-291Q735 -294 743 -297H746L747 -295Q746 -292 742 -288Q738 -284 737 -277Q737 -269 746 -260Q757 -261 767 -263Q753 -254 745 -240Q737 -225 730 -208Q669 -205 599 -162Q580 -167 566 -176Q548 -188 546 -203V-208Q546 -222 558 -253Q555 -256 552 -256Q546 -253 540 -250Q511 -260 503 -271L505 -274Q505 -280 515 -280H529V-285Q529 -306 517 -321Q504 -337 484 -340Q484 -336 481 -335Q485 -326 491 -316Q496 -307 497 -295Q497 -288 494 -281Q489 -293 464 -313Q440 -333 434 -345Q427 -347 424 -350Q419 -337 416 -320Q412 -291 411 -289Q406 -254 397 -216Q389 -178 388 -142Q388 -121 392 -105Q390 -93 389 -80Q388 -68 380 -59Q368 -70 347 -70Q332 -70 299 -59Q292 -47 289 -33Q289 -29 290 -27Q275 -22 260 -17Q242 -23 232 -36Q222 -49 211 -64Q204 -71 196 -79Q187 -87 186 -99Q182 -101 180 -101Q179 -101 170 -98Q179 -107 179 -123Q174 -158 159 -188Q167 -186 171 -180Q175 -175 178 -168Q182 -152 197 -149Q191 -240 134 -259Q110 -289 90 -294Q83 -288 83 -280Q83 -269 93 -256Q98 -249 118 -238Q144 -224 147 -209Q110 -216 82 -239Q78 -249 67 -263Q54 -279 51 -287Q40 -313 40 -333V-340Q42 -350 44 -360Q44 -365 43 -370V-372Q45 -384 62 -404Q79 -423 82 -438Q84 -447 84 -469Q83 -479 82 -489Q82 -498 87 -503Q87 -465 102 -449L103 -453Q100 -466 97 -479Q97 -484 102 -489Q112 -456 126 -449V-466Q126 -471 127 -473Q132 -467 137 -457Q142 -446 149 -441Q166 -433 185 -428Q191 -424 196 -418Q201 -412 208 -410Q212 -395 224 -369Q267 -392 337 -454V-455Q337 -458 334 -458Q330 -458 330 -461Q310 -459 286 -440Q265 -424 251 -420Q250 -422 250 -425Q251 -434 259 -439Q268 -445 276 -449Q287 -457 296 -465Q305 -473 318 -478Q324 -492 352 -507Q379 -522 386 -536Q388 -525 395 -519Q405 -520 411 -536Q416 -550 426 -552Q417 -534 417 -518Q418 -515 418 -512L420 -510Q424 -511 428 -512H429Q429 -490 448 -463Z"/>
</svg>