<svg xmlns="http://www.w3.org/2000/svg" viewBox="0 -800 1024 1024">
	<path fill="#000000" d="M118 -83Q107 -80 95 -77Q94 -79 94 -82Q94 -88 103 -88Q113 -88 118 -83ZM855 -743Q852 -738 848 -733Q845 -728 838 -726Q838 -729 835 -729Q840 -745 849 -745Q851 -745 855 -743ZM616 -647V-646Q615 -637 609 -635Q602 -634 595 -632V-634Q595 -641 601 -644Q606 -646 616 -647ZM767 -203Q768 -213 772 -220Q777 -228 784 -228Q789 -228 794 -224Q782 -215 776 -202L772 -201Q769 -201 767 -203ZM372 -323H376Q387 -323 410 -330Q528 -361 557 -366Q583 -418 613 -483L614 -484Q611 -487 608 -490L609 -492Q615 -498 624 -505Q633 -511 634 -519L633 -522Q579 -503 524 -476Q497 -465 474 -449Q451 -434 428 -420Q394 -399 378 -374Q365 -369 357 -357Q357 -328 372 -323ZM822 58V63Q821 65 815 70Q808 75 807 81Q804 79 799 79Q788 83 776 89H773Q766 89 753 83Q738 76 728 76H724Q709 63 696 50Q683 37 675 19Q685 22 700 35Q719 51 732 52Q734 49 734 43Q734 29 723 16Q717 8 698 -3Q685 -11 678 -17Q666 -28 654 -38Q642 -49 627 -51Q626 -49 626 -44Q626 -33 640 -20Q656 -6 659 1Q642 0 630 -12Q618 -25 606 -41Q593 -55 578 -67Q563 -79 555 -95Q552 -104 552 -115V-120Q552 -131 551 -136Q549 -144 541 -159Q534 -172 532 -179Q545 -174 555 -167V-169Q555 -173 554 -177V-179Q598 -176 638 -167Q677 -158 710 -152Q734 -173 757 -194Q759 -193 761 -192Q737 -170 737 -148Q737 -133 754 -126Q759 -127 766 -134Q771 -140 774 -140H775Q769 -128 765 -113Q765 -106 773 -102Q798 -109 844 -129Q874 -142 893 -149Q878 -131 835 -112Q798 -96 785 -83Q790 -63 812 -63Q833 -65 853 -68H855Q846 -63 833 -58Q811 -50 804 -44Q814 -26 855 -20Q902 -13 914 -5Q890 -6 865 -7Q841 -7 828 -1Q828 22 834 33Q822 45 822 58ZM252 49H249Q239 49 220 36Q204 25 198 24Q191 -16 159 -21Q170 -26 177 -44Q174 -61 156 -70Q152 -72 124 -81Q129 -85 140 -85H158Q168 -85 175 -89Q168 -99 138 -99Q104 -97 69 -95Q62 -95 55 -96Q81 -108 129 -111H139Q158 -110 177 -110H187Q211 -116 234 -126Q254 -137 271 -140Q276 -140 280 -137Q274 -129 250 -120Q224 -110 218 -98Q228 -95 237 -92Q275 -104 323 -141Q322 -150 312 -150Q301 -148 290 -146Q292 -155 306 -162Q318 -168 321 -176Q303 -198 276 -212Q275 -230 260 -257Q245 -284 245 -303Q246 -307 246 -311Q256 -304 266 -273Q274 -247 289 -248H290V-253Q286 -288 271 -321Q260 -354 258 -357Q249 -376 233 -377Q232 -375 232 -371Q233 -365 233 -360Q233 -357 231 -351Q216 -356 208 -368Q200 -381 190 -390Q172 -399 151 -407V-408Q151 -416 141 -427Q133 -436 132 -443V-445Q135 -453 138 -462Q139 -467 139 -475V-488Q139 -500 142 -504Q141 -514 131 -527Q120 -541 120 -549H122Q129 -549 138 -537Q144 -529 148 -527V-532Q147 -548 137 -558Q126 -568 120 -579Q117 -582 113 -584Q108 -587 108 -593V-594Q124 -590 133 -579Q142 -569 154 -561V-563Q154 -565 150 -570Q145 -576 145 -581Q162 -571 184 -567Q196 -567 200 -581Q220 -582 240 -584Q255 -584 267 -579Q282 -555 299 -546Q317 -534 321 -530Q329 -518 330 -518Q329 -519 335 -519Q341 -519 339 -518Q357 -527 376 -542Q393 -552 419 -561Q465 -580 499 -599Q503 -601 536 -607Q532 -598 522 -593Q512 -589 502 -585Q476 -574 447 -561Q419 -548 401 -525Q407 -523 411 -523Q430 -526 448 -536Q470 -548 492 -560Q517 -568 541 -576Q563 -587 585 -599Q649 -628 669 -651Q666 -653 661 -653Q648 -650 635 -647H633V-648Q634 -658 642 -659Q651 -660 657 -662Q672 -670 686 -679Q703 -685 716 -693Q727 -703 738 -715Q749 -728 764 -729Q771 -729 778 -725Q783 -727 787 -729Q793 -727 799 -721Q805 -715 809 -713Q814 -713 818 -717Q823 -722 827 -722H828L829 -720Q825 -714 820 -703Q820 -702 822 -698Q834 -699 857 -710Q877 -720 890 -722Q886 -715 873 -705Q856 -692 853 -679H855Q859 -679 866 -685Q874 -692 881 -692Q874 -685 874 -671Q874 -663 877 -656L880 -655Q884 -655 888 -656H890V-651Q890 -637 904 -615Q901 -606 901 -593Q902 -579 902 -565Q902 -543 895 -534Q892 -535 886 -535Q868 -534 856 -522Q845 -511 831 -503Q837 -501 843 -500Q827 -493 814 -482Q801 -471 787 -461L786 -464Q790 -476 797 -489Q795 -494 791 -497Q770 -494 757 -474Q754 -470 737 -434Q724 -411 711 -389Q691 -350 689 -346Q677 -319 677 -300Q677 -291 678 -287Q693 -302 704 -323Q715 -344 727 -365Q733 -378 739 -391Q744 -403 760 -407Q739 -362 716 -319Q692 -275 678 -222Q671 -218 663 -214Q655 -211 653 -200Q650 -200 646 -201Q631 -201 615 -185Q614 -188 610 -197Q585 -203 577 -207Q560 -215 552 -233Q502 -227 452 -219Q403 -212 375 -182Q379 -178 388 -178Q396 -178 403 -179Q403 -177 398 -167Q402 -168 408 -175Q414 -182 422 -182H424Q408 -163 403 -138Q403 -128 410 -120Q411 -115 411 -105Q409 -73 385 -62Q361 -51 336 -33Q323 -21 303 3Q289 21 282 27Q266 42 252 49Z"/>
</svg>