<svg xmlns="http://www.w3.org/2000/svg" viewBox="0 -800 1024 1024">
	<path fill="#000000" d="M785 -302H788Q789 -300 789 -297Q789 -287 782 -280Q777 -281 777 -290Q777 -302 785 -302ZM671 27V29Q670 32 665 32Q656 31 647 29V28Q647 21 660 21Q671 21 671 27ZM176 -690H177Q181 -687 184 -685Q184 -673 179 -663Q172 -664 172 -676Q172 -686 176 -690ZM600 -667V-670Q609 -673 618 -676Q624 -676 625 -667Q621 -662 603 -660Q600 -663 600 -667ZM770 -345Q767 -332 764 -320Q756 -324 756 -337Q756 -351 762 -351Q766 -351 770 -345ZM717 -400L708 -406Q717 -427 745 -457Q755 -466 768 -478Q782 -490 783 -502Q783 -506 782 -508Q749 -496 729 -472Q710 -447 691 -421Q671 -439 661 -443V-445Q663 -449 664 -453V-455Q655 -451 647 -443Q644 -444 641 -449Q638 -454 635 -455H633Q630 -452 627 -450L626 -451Q624 -455 624 -456Q626 -463 631 -468Q629 -470 626 -470Q616 -466 607 -459Q639 -516 677 -572Q537 -537 426 -487Q385 -469 378 -465Q353 -451 345 -431Q350 -422 350 -412Q347 -391 343 -371Q336 -369 329 -361Q320 -351 317 -348Q298 -344 278 -340Q265 -345 253 -354Q241 -363 221 -364H219V-366Q218 -377 211 -383Q204 -388 197 -394Q184 -389 178 -376Q172 -364 163 -354V-358Q163 -365 170 -379Q178 -395 178 -402Q178 -408 173 -415Q166 -414 159 -405Q154 -399 152 -399H151Q154 -413 160 -426Q133 -457 116 -465L115 -468Q116 -472 117 -476V-478Q115 -485 105 -499Q91 -519 89 -531Q89 -535 88 -539Q88 -561 105 -591Q111 -593 116 -595V-598Q116 -603 110 -615Q105 -625 105 -630V-631Q112 -630 118 -619Q123 -610 129 -609Q147 -614 153 -614Q162 -614 167 -610Q175 -617 176 -629Q177 -642 179 -655Q181 -637 187 -615Q193 -597 207 -595H209Q215 -596 218 -604Q221 -614 228 -615Q224 -607 224 -600Q225 -585 238 -576Q250 -568 259 -559Q298 -576 379 -600Q437 -617 464 -627Q518 -648 535 -648Q543 -648 546 -647Q521 -634 489 -624Q463 -616 439 -609Q416 -601 404 -580Q407 -579 414 -579Q429 -579 455 -591Q486 -603 571 -630Q653 -656 693 -672Q692 -673 692 -677L693 -681H686Q676 -681 641 -673V-677Q643 -684 647 -688Q681 -696 714 -704Q727 -707 745 -721Q768 -739 786 -739Q790 -738 794 -738Q802 -735 810 -733H813Q816 -723 830 -710Q840 -701 844 -694Q856 -703 861 -703H863V-702Q861 -695 858 -688L859 -684Q864 -684 872 -692Q885 -703 893 -704V-703Q890 -695 881 -685Q872 -667 872 -657Q872 -653 874 -647H875Q877 -647 880 -651Q885 -658 889 -658H890Q885 -652 885 -639Q885 -617 896 -604Q891 -591 891 -575Q891 -562 894 -553Q880 -541 879 -528Q872 -529 865 -531Q766 -490 717 -400ZM917 3V7Q913 17 902 28Q883 28 843 34Q803 40 783 40Q774 40 715 32H712Q706 33 699 33Q692 33 687 28Q688 23 695 23Q703 24 711 25Q746 26 780 27Q795 27 811 25Q831 22 831 14Q831 6 814 5H810Q790 8 769 10Q764 9 747 9Q730 9 726 10Q702 10 662 4Q622 -2 607 -2Q601 -1 594 -1V0Q594 6 610 11Q626 16 628 23Q624 25 621 25Q610 23 598 20Q582 18 566 16Q524 2 502 -28Q486 -60 486 -103Q486 -123 490 -139Q504 -185 514 -232Q524 -289 524 -305V-310Q502 -297 498 -294Q485 -284 480 -270H472Q437 -204 401 -140Q365 -77 346 5Q327 12 319 29Q297 31 292 33Q278 37 278 47V48Q276 46 276 41Q276 37 278 31Q256 26 243 13Q230 -1 215 -12Q208 -47 190 -72Q193 -72 201 -70Q194 -98 160 -134Q125 -171 119 -196Q134 -184 157 -156Q190 -116 213 -103Q196 -119 184 -142Q191 -139 205 -126Q217 -115 225 -115H230Q237 -117 245 -131Q256 -150 269 -150H272V-148Q272 -144 267 -137Q260 -127 260 -122L261 -118Q289 -133 309 -171Q329 -208 351 -244Q367 -261 373 -282Q373 -289 366 -293Q351 -278 339 -256Q328 -235 317 -214Q307 -195 298 -193Q324 -249 352 -304Q350 -306 349 -314Q348 -324 343 -325Q344 -331 350 -345Q356 -359 356 -369Q356 -376 355 -379Q359 -377 363 -376V-378Q361 -386 358 -395V-397Q365 -389 378 -389Q386 -389 394 -390Q400 -390 404 -389Q419 -388 449 -367Q476 -382 498 -400Q506 -406 514 -412Q522 -425 530 -439Q554 -462 573 -468Q578 -467 582 -462Q586 -458 587 -457Q595 -455 603 -454Q613 -449 619 -440Q625 -431 632 -424L634 -423Q638 -425 641 -427L643 -426Q642 -424 642 -419Q642 -414 644 -412Q647 -412 649 -415Q651 -419 652 -419L653 -418Q654 -402 663 -381Q674 -356 674 -340Q651 -333 640 -296Q638 -285 635 -274Q632 -262 623 -256Q620 -260 620 -265Q623 -277 625 -290Q625 -294 622 -299Q604 -290 599 -270Q595 -250 591 -229Q580 -195 577 -159Q577 -150 578 -145Q588 -147 593 -175Q599 -208 613 -211Q599 -170 591 -125Q598 -117 618 -117Q634 -118 650 -119H698Q738 -119 748 -129Q756 -137 756 -154Q756 -167 755 -181Q755 -193 757 -199Q762 -196 762 -181Q762 -164 767 -161Q768 -168 768 -183Q768 -193 763 -256Q761 -273 758 -290Q758 -302 763 -308Q769 -286 773 -236Q778 -177 786 -154V-164Q783 -204 779 -245Q779 -251 781 -267Q789 -238 795 -207Q801 -176 814 -151Q820 -155 820 -166Q820 -174 819 -182Q826 -137 865 -137Q873 -137 878 -138Q877 -135 877 -129Q877 -115 883 -105Q888 -96 894 -84Q903 -65 908 -49Q907 -41 905 -34V-32Q906 -26 910 -17Q917 -3 917 3Z"/>
</svg>