<svg xmlns="http://www.w3.org/2000/svg" viewBox="0 -800 1024 1024">
	<path fill="#000000" d="M229 -492H220Q220 -515 235 -515H237V-511Q237 -500 229 -492ZM140 -450Q138 -435 117 -428Q116 -430 116 -434Q116 -441 121 -447Q126 -453 132 -453Q136 -453 140 -450ZM376 -429Q364 -425 346 -413Q325 -400 321 -392Q328 -378 337 -369Q336 -364 336 -355Q341 -317 345 -280V-273Q345 -259 344 -245Q344 -238 345 -234Q347 -226 349 -219V-208Q349 -151 348 -94Q346 -58 337 -50Q331 -63 330 -120Q329 -207 313 -216Q311 -208 311 -192Q312 -116 312 -40V-13Q312 21 321 37Q330 12 336 -17Q344 -5 344 12Q340 46 336 79V82Q327 89 312 89Q301 92 289 95H288Q270 93 238 0Q235 -13 234 -27Q233 -41 221 -42Q216 -42 208 -38Q240 -70 251 -155Q262 -240 268 -300Q270 -312 270 -319Q270 -325 269 -329Q204 -261 151 -174Q144 -172 130 -163Q110 -150 99 -150Q94 -150 92 -151Q81 -153 75 -168Q71 -179 66 -183Q75 -201 80 -217H79Q73 -217 71 -213Q69 -209 66 -204Q54 -211 46 -211Q46 -218 38 -228Q32 -236 31 -239Q31 -242 30 -246Q30 -259 40 -294Q62 -372 112 -414Q91 -379 77 -336Q82 -339 89 -352Q97 -367 102 -371Q96 -357 93 -342Q130 -391 175 -447Q182 -455 189 -463Q197 -472 208 -473Q204 -459 191 -449Q167 -420 163 -413Q148 -390 148 -368Q204 -420 288 -547Q282 -553 277 -553Q271 -553 258 -540Q250 -532 246 -530Q254 -546 264 -570Q279 -608 288 -622H291Q296 -622 300 -627Q303 -630 306 -631H311Q323 -632 335 -634Q341 -634 345 -633Q349 -628 358 -612Q369 -592 379 -584Q379 -577 378 -571Q399 -542 401 -529Q400 -489 396 -472Q391 -453 376 -429ZM874 -146V-150Q874 -169 891 -169L894 -157Q884 -151 874 -146ZM616 -413V-409Q617 -400 617 -391Q617 -382 620 -378Q632 -380 636 -393Q640 -406 643 -418Q623 -418 616 -413ZM553 -360Q549 -372 545 -384Q543 -385 539 -385Q525 -383 519 -373Q522 -363 525 -353Q550 -359 553 -360ZM734 -441H732Q716 -441 704 -430Q691 -418 691 -404Q691 -395 692 -391Q705 -394 717 -398Q718 -412 724 -422Q731 -433 734 -441ZM641 -501Q643 -515 643 -523Q643 -542 636 -553Q609 -545 599 -535Q608 -516 617 -497Q625 -497 641 -501ZM904 53H903Q895 53 890 58Q885 63 885 71Q885 77 888 81Q870 76 850 72Q829 68 815 59Q804 52 804 45L805 41Q812 42 823 47Q835 53 841 53Q846 53 848 52Q845 43 831 34Q820 27 815 21Q808 10 801 -2Q794 -14 779 -15Q775 -15 772 -14Q772 -4 782 9Q791 21 791 28Q791 31 790 34Q760 8 712 -58Q710 -70 710 -75Q710 -104 728 -115Q736 -121 750 -121Q763 -120 775 -120Q785 -120 790 -121Q803 -125 811 -135Q820 -144 827 -149Q823 -141 821 -127Q821 -121 824 -115Q827 -113 833 -113Q840 -113 848 -123Q858 -136 868 -136H871Q850 -123 850 -108Q850 -102 854 -98Q880 -106 902 -116Q924 -126 959 -128Q935 -120 902 -107Q877 -97 875 -80Q875 -72 882 -62Q893 -64 904 -67Q911 -67 913 -62H911Q903 -62 899 -57Q895 -53 891 -48Q890 -45 890 -39Q891 -21 909 -20Q935 -19 956 -13Q951 -11 937 -11H929Q904 -11 900 -2Q909 12 909 28Q909 38 904 53ZM400 -391Q403 -416 418 -430Q433 -443 454 -449Q501 -458 541 -470V-478Q541 -490 540 -496Q511 -485 484 -471Q466 -480 444 -492Q421 -504 413 -525Q412 -527 412 -532Q413 -538 413 -544Q413 -550 412 -552Q407 -566 401 -581Q401 -584 411 -594Q420 -603 420 -606Q420 -638 427 -654Q434 -670 455 -685L451 -679Q453 -675 459 -669Q566 -704 666 -729Q662 -720 651 -714Q650 -714 632 -706Q601 -694 557 -681Q513 -668 489 -648Q492 -644 507 -645Q522 -646 529 -647Q556 -652 579 -664Q617 -678 658 -694Q699 -710 724 -736Q720 -739 715 -739Q700 -734 685 -730V-731Q685 -747 710 -755Q726 -761 769 -761Q772 -761 772 -758V-755Q772 -752 774 -751Q790 -757 805 -763V-762Q805 -759 798 -754Q787 -746 787 -738V-737L789 -736Q792 -739 800 -743H803Q798 -740 798 -735Q801 -725 803 -715H805Q809 -715 814 -720Q810 -711 810 -697Q811 -676 812 -656V-648Q811 -636 800 -621Q791 -608 790 -601H787Q778 -601 778 -592H771Q743 -592 728 -580Q736 -570 744 -560Q739 -554 735 -535Q755 -537 770 -549Q785 -561 802 -570Q803 -569 807 -569Q817 -569 824 -576H831Q846 -576 855 -570Q867 -574 879 -579Q878 -575 877 -572V-571Q894 -589 910 -607Q904 -597 898 -588Q892 -580 891 -567L894 -565Q897 -567 900 -569L901 -568Q900 -566 900 -562Q901 -545 913 -543Q916 -543 918 -544Q917 -541 917 -536Q917 -523 930 -517Q926 -505 926 -483Q926 -455 919 -445Q907 -428 870 -415V-416Q870 -428 883 -439Q894 -449 895 -459Q889 -467 881 -467Q857 -462 841 -439Q830 -420 818 -391Q808 -374 802 -360Q795 -346 795 -324Q805 -333 811 -344Q818 -356 824 -368Q838 -396 863 -400Q831 -353 825 -342Q806 -308 799 -277Q806 -280 816 -286Q825 -292 835 -293H839Q839 -290 830 -283Q820 -275 818 -268Q821 -260 824 -253Q843 -257 851 -258Q838 -254 838 -238Q838 -229 848 -226Q839 -220 836 -205Q836 -204 833 -175Q810 -167 763 -162Q697 -155 675 -140Q672 -128 672 -116Q676 -77 682 -40Q683 -34 683 -28Q683 -16 676 -13Q669 -31 664 -70Q659 -106 656 -117Q650 -101 650 -74Q652 -36 654 1Q657 39 657 42Q660 62 673 70Q679 64 679 56Q676 40 673 23Q673 13 679 8Q692 29 692 57Q692 68 688 86V88Q690 92 692 96Q688 108 683 120H680Q666 120 666 133V135Q638 131 620 116Q602 102 591 82Q570 38 547 -2Q556 -2 574 7Q586 -65 586 -109V-124Q553 -123 527 -108Q500 -93 473 -80Q478 -71 497 -58H499Q506 -61 521 -65Q525 -65 527 -64Q525 -62 521 -61Q515 -60 515 -58Q516 -43 525 -22Q535 1 535 16V21Q508 27 488 46Q482 46 463 39Q439 31 430 31Q417 31 413 46Q408 43 408 40Q408 36 415 29Q421 23 422 20Q416 4 404 -1V-5Q404 -17 396 -22Q391 -25 376 -28Q379 -31 390 -36Q400 -40 404 -45Q402 -57 395 -64Q388 -72 382 -80Q398 -70 404 -64Q409 -66 409 -74Q409 -81 408 -88Q416 -85 419 -77Q431 -86 459 -86Q455 -99 426 -107Q394 -116 389 -124Q385 -131 385 -139Q389 -162 398 -187Q395 -194 395 -201Q395 -218 413 -229Q415 -230 447 -244Q452 -239 482 -236Q501 -234 506 -232Q504 -224 476 -222Q452 -220 449 -214Q450 -202 460 -202Q485 -202 506 -209Q540 -220 586 -226Q580 -233 569 -233Q551 -230 532 -228Q523 -228 519 -232Q525 -243 545 -243Q556 -242 566 -242Q581 -242 586 -247Q583 -261 580 -275Q595 -285 609 -296H616Q660 -296 682 -262L728 -271Q720 -277 711 -295Q704 -310 698 -316H690Q671 -314 651 -313Q620 -311 586 -304Q561 -301 537 -282Q506 -257 493 -252Q488 -256 472 -261Q455 -266 450 -272V-278Q450 -282 451 -283Q457 -285 458 -285Q463 -285 473 -279Q480 -275 484 -275Q489 -275 491 -277Q472 -303 411 -361Q402 -370 400 -391Z"/>
</svg>