<svg xmlns="http://www.w3.org/2000/svg" viewBox="0 -800 1024 1024">
	<path fill="#000000" d="M717 -550Q713 -560 703 -560Q698 -560 695 -556Q705 -550 717 -550ZM141 -652V-647Q140 -647 124 -658Q128 -668 135 -668H138Q141 -660 141 -652ZM914 -64Q915 -62 915 -59Q915 -53 907 -48Q900 -44 899 -41Q897 -47 897 -50Q897 -65 909 -65Q912 -65 914 -64ZM452 -391H455Q454 -402 442 -402Q434 -402 427 -397Q419 -391 419 -385Q419 -382 422 -379Q434 -389 452 -391ZM523 -446H520Q494 -444 493 -422Q493 -409 507 -400Q511 -401 514 -403Q516 -430 523 -446ZM585 -412H588Q598 -443 607 -474Q583 -472 581 -461Q581 -458 586 -458Q591 -458 591 -456V-455Q582 -450 576 -437Q575 -434 568 -411H571Q578 -411 585 -412ZM591 -339Q579 -345 560 -345Q498 -342 455 -316Q523 -327 591 -339ZM554 -185Q495 -179 458 -148Q461 -145 465 -145Q474 -147 483 -150Q503 -156 524 -164Q545 -171 554 -185ZM716 -614V-615H712Q688 -610 669 -605Q666 -605 660 -607Q661 -612 671 -616Q678 -619 680 -621H675Q627 -621 525 -595Q491 -588 458 -579Q424 -571 400 -549Q439 -557 485 -570Q531 -582 576 -589Q582 -590 587 -591Q595 -591 596 -583Q525 -566 463 -547Q430 -536 397 -527Q364 -518 335 -500Q352 -469 374 -464Q377 -470 384 -471H387Q413 -491 448 -500Q481 -512 513 -524Q548 -534 582 -544Q637 -563 654 -563H663Q666 -566 705 -602Q714 -607 716 -614ZM770 114H768Q765 115 761 115L758 114Q753 108 747 102Q738 95 717 84Q688 69 677 57Q683 54 689 54Q701 54 722 70Q738 82 748 84Q754 86 758 86Q763 86 766 82Q679 16 593 -10Q602 -2 619 8Q642 21 649 29Q646 30 641 30Q624 30 594 13Q570 -2 545 -15Q542 -18 541 -25Q538 -24 538 -18V-10L540 -9Q544 -10 548 -12Q545 -5 541 2Q542 7 549 7H554Q549 8 547 28Q529 36 510 44Q491 52 474 68Q469 73 463 87Q459 98 454 103Q443 116 426 116Q421 116 413 114Q403 108 392 102Q374 95 371 93Q361 87 361 78Q361 70 365 62Q360 54 354 46Q361 16 383 11Q381 3 381 -5Q380 -14 374 -16Q333 4 297 29Q299 7 316 -4Q334 -15 350 -28Q348 -29 343 -29Q331 -29 310 -13Q277 15 245 37Q238 41 229 47Q221 53 220 63Q220 66 221 68Q226 67 236 61Q249 53 255 53Q261 53 265 56Q235 84 218 106Q206 103 195 101Q183 99 177 91Q166 97 154 103Q160 95 166 87Q156 63 142 41Q144 36 148 32Q143 25 141 14H157Q160 11 162 7Q156 -8 143 -17Q131 -27 121 -38Q133 -37 158 -21Q178 -8 190 -4Q240 -22 285 -45Q330 -68 375 -91Q359 -103 343 -116Q326 -129 301 -134Q293 -144 285 -155Q277 -165 261 -169Q272 -170 290 -178Q301 -183 311 -185Q310 -196 296 -209Q282 -222 282 -231Q282 -238 288 -247Q282 -254 282 -264Q282 -275 290 -286Q298 -297 307 -297Q316 -297 322 -288Q351 -295 380 -302Q374 -310 368 -319Q353 -325 334 -340Q314 -356 308 -371Q306 -379 303 -387Q301 -394 292 -397Q283 -398 268 -398Q245 -398 234 -392Q223 -386 211 -368Q210 -370 210 -373Q214 -382 218 -392Q190 -417 166 -417H163Q152 -416 145 -407Q137 -399 130 -392V-393Q133 -406 141 -420Q135 -435 122 -446H119Q108 -446 94 -434Q94 -439 105 -448Q113 -454 115 -458Q99 -478 82 -499H73Q69 -499 68 -497V-498Q72 -502 80 -506Q79 -510 79 -518Q80 -529 80 -541Q80 -552 76 -559Q90 -568 98 -568Q96 -576 88 -587Q82 -596 80 -599Q109 -582 123 -582Q138 -582 145 -598Q138 -610 135 -629Q135 -635 136 -638Q145 -620 155 -604Q164 -587 181 -578Q184 -579 186 -585Q189 -592 193 -592H194Q197 -592 197 -588V-586Q197 -582 199 -581Q200 -576 209 -573Q216 -570 218 -568Q339 -607 474 -638Q476 -650 476 -655Q476 -695 442 -707Q444 -713 451 -713Q444 -734 428 -736Q430 -740 430 -742Q430 -747 424 -754Q419 -760 419 -762Q423 -764 424 -764Q429 -762 434 -760Q449 -763 478 -787Q517 -819 544 -819Q549 -819 559 -817Q577 -813 599 -787Q620 -762 636 -756Q632 -746 631 -733Q630 -721 621 -716Q617 -735 611 -751Q604 -768 582 -769L591 -739Q581 -725 579 -704V-698L582 -696H585Q590 -696 594 -700Q599 -704 603 -704H607Q605 -701 599 -695Q591 -688 590 -681Q724 -704 775 -724Q781 -728 787 -735Q797 -747 803 -750Q797 -742 797 -731Q798 -710 815 -703Q821 -708 829 -710L833 -709L834 -708Q830 -704 826 -696Q826 -693 830 -690V-689Q833 -690 836 -692L839 -691V-688Q838 -681 837 -675Q850 -662 878 -662Q893 -662 905 -665Q902 -661 892 -656Q878 -650 877 -641V-638Q879 -639 881 -640L883 -638Q878 -623 878 -617Q878 -609 883 -602Q879 -587 876 -570Q873 -553 859 -547Q851 -554 837 -554Q825 -554 810 -549Q806 -549 802 -554Q800 -557 797 -558Q810 -569 827 -575Q844 -581 859 -587Q853 -607 822 -607Q805 -607 794 -598Q796 -590 799 -590Q781 -579 763 -568Q745 -557 742 -530Q749 -531 761 -541Q775 -552 784 -552H785Q787 -548 787 -546Q785 -535 770 -525Q755 -516 750 -505Q756 -487 757 -475Q748 -463 723 -449Q700 -437 692 -427Q667 -395 658 -345Q663 -344 672 -344Q705 -344 738 -367Q739 -359 745 -349H766Q775 -349 778 -350Q776 -346 776 -330Q776 -319 778 -305Q772 -298 766 -291Q760 -284 757 -274H728Q628 -274 511 -253Q463 -245 438 -236Q402 -223 381 -202Q427 -218 479 -228Q530 -238 579 -247Q612 -256 645 -265H651Q669 -263 686 -262Q693 -262 696 -263L695 -260Q695 -258 700 -255Q704 -253 705 -250Q718 -253 730 -257Q735 -257 738 -256Q723 -252 723 -245Q723 -241 733 -241H735Q729 -236 729 -229Q729 -223 737 -209Q744 -196 745 -188Q736 -173 716 -170Q695 -167 677 -161L678 -163Q678 -166 677 -169V-170Q685 -182 701 -187Q697 -193 684 -193Q677 -193 669 -191Q626 -180 603 -145H607Q613 -145 624 -153Q636 -162 643 -162Q646 -161 648 -161Q644 -145 620 -129Q601 -117 596 -107Q574 -111 557 -119Q544 -110 526 -105Q508 -101 490 -97Q487 -91 485 -76Q463 -74 454 -61Q459 -45 476 -28Q500 -32 524 -37H526L517 -69Q529 -71 539 -89Q570 -82 587 -76Q596 -80 610 -98Q620 -111 625 -115Q631 -118 636 -121Q640 -132 646 -141Q654 -148 677 -148Q695 -147 711 -139Q728 -132 745 -125Q742 -122 740 -117Q741 -115 742 -113Q742 -110 746 -110L747 -112V-113Q754 -98 769 -95V-94Q765 -85 760 -76V-74Q761 -70 761 -67V-65Q760 -60 754 -53Q749 -48 748 -44Q726 -44 722 -50Q725 -54 732 -59Q743 -66 745 -73Q744 -78 732 -84Q730 -79 728 -75Q712 -71 696 -67Q679 -64 671 -53L675 -52Q685 -52 694 -53Q702 -53 705 -50Q703 -42 694 -40Q685 -39 681 -38Q771 6 830 14Q844 11 861 -10Q880 -33 899 -35Q877 -12 867 22Q881 16 897 -7Q915 -33 931 -38Q927 -28 910 -7Q888 20 883 38Q891 36 900 24Q909 12 919 10Q907 26 899 50Q898 53 898 59Q899 67 899 74Q899 80 898 83Q896 91 885 104Q877 114 874 122Q865 124 848 124Q832 124 824 125Q817 128 809 130Q790 125 770 114Z"/>
</svg>