<svg xmlns="http://www.w3.org/2000/svg" viewBox="0 -800 1024 1024">
	<path fill="#000000" d="M484 -347H485Q490 -348 494 -350Q493 -360 485 -363Q482 -360 482 -354Q482 -351 484 -347ZM910 -252V-251Q910 -245 904 -240Q899 -236 898 -231Q894 -234 894 -239Q895 -251 905 -253Q908 -253 910 -252ZM577 -74Q585 -85 592 -96Q596 -94 600 -93Q592 -72 582 -72Q581 -72 577 -74ZM453 -187V-185Q450 -167 446 -149Q446 -144 447 -141Q439 -129 432 -116Q434 -110 445 -101Q482 -120 518 -149Q528 -157 582 -206Q549 -202 543 -194Q530 -205 515 -215Q500 -225 497 -242Q499 -249 501 -257V-259Q499 -270 494 -282Q513 -301 534 -318Q532 -327 520 -337Q508 -347 499 -347Q489 -347 489 -335Q489 -333 491 -323L493 -321Q496 -321 498 -322L500 -320Q484 -313 484 -278V-263Q472 -258 461 -256Q450 -253 445 -243Q444 -241 444 -236Q449 -211 453 -187ZM947 69V75Q931 80 907 96Q878 87 841 70Q840 61 829 51Q817 40 817 28V25Q833 27 849 49Q866 71 883 73V71Q883 47 864 29Q861 26 824 0Q797 -20 788 -25Q769 -36 754 -36H749Q753 -28 765 -18Q783 -4 785 9H783Q772 5 761 -6Q741 -20 731 -24Q695 -3 656 55Q651 55 645 50Q639 45 633 45H632Q628 24 608 16Q607 11 606 5V3Q606 1 602 0Q598 -1 597 -2Q586 -34 567 -44Q517 -11 506 28H503Q492 28 490 46Q486 43 480 43Q475 44 470 44Q468 44 465 43Q449 39 438 23Q427 7 427 -12Q427 -23 432 -33Q423 -44 419 -57Q428 -68 428 -78Q428 -85 423 -95Q408 -79 386 -42Q366 -9 355 4V0Q355 -21 373 -45Q390 -67 391 -86Q378 -83 367 -66Q355 -50 343 -35Q319 -7 308 13Q287 24 287 42H289Q294 42 303 37Q315 30 321 30Q326 30 328 31Q320 40 312 50Q303 59 299 72Q281 68 277 68Q269 68 263 70Q249 40 217 6Q217 -43 188 -90Q195 -90 204 -80Q213 -70 217 -69Q210 -86 185 -119Q195 -118 212 -104Q231 -88 245 -88Q248 -88 256 -90Q270 -94 280 -106Q291 -117 300 -128Q322 -149 346 -172Q371 -196 374 -225Q329 -221 289 -197Q248 -173 213 -150Q177 -130 167 -117Q158 -103 150 -91Q141 -79 129 -78Q119 -78 108 -86Q94 -97 79 -107Q65 -117 43 -120Q41 -128 41 -142Q42 -167 49 -187Q57 -208 66 -227Q70 -226 76 -226Q89 -228 96 -240Q118 -266 142 -267Q112 -246 112 -215Q112 -209 114 -197Q119 -190 128 -188Q168 -206 207 -227Q246 -247 288 -264Q284 -273 272 -273Q262 -271 251 -269Q198 -254 150 -233Q152 -246 179 -258Q223 -280 291 -302Q291 -312 283 -333Q276 -352 276 -365V-367Q276 -380 287 -401Q298 -422 299 -432Q247 -414 216 -383Q207 -372 194 -357Q182 -342 168 -341H167Q159 -341 146 -352Q133 -363 121 -363Q115 -363 112 -362Q100 -370 100 -386Q103 -405 105 -425V-429Q105 -440 96 -462Q87 -484 87 -496Q87 -510 96 -522Q109 -534 124 -545Q143 -564 158 -581Q173 -599 199 -600H201Q195 -595 189 -592Q183 -588 183 -580V-578Q185 -575 186 -573Q218 -579 229 -584Q241 -591 255 -594Q262 -594 266 -590Q260 -581 222 -564Q191 -550 191 -529Q192 -525 192 -522Q252 -547 265 -553Q303 -572 326 -596Q325 -604 317 -604Q307 -602 297 -600H294Q303 -620 322 -626Q341 -633 358 -642Q389 -664 419 -686Q441 -685 453 -662Q459 -664 464 -666L467 -665Q467 -661 466 -658Q466 -643 481 -615Q496 -586 497 -569V-565Q496 -537 481 -522Q466 -506 450 -492Q435 -475 404 -422Q379 -382 379 -347Q380 -341 380 -335Q399 -338 437 -353Q466 -365 482 -369V-371Q478 -383 473 -396Q476 -409 479 -422Q476 -456 472 -490V-498Q476 -497 484 -497Q516 -498 547 -512Q577 -527 606 -537Q599 -568 597 -602Q595 -636 577 -656V-659Q579 -665 580 -671H579Q576 -672 576 -675Q561 -673 553 -652Q542 -625 538 -620Q534 -628 534 -637Q538 -664 550 -692Q551 -699 552 -707Q558 -719 573 -731Q588 -742 598 -749Q640 -780 657 -780Q677 -779 698 -755Q718 -731 730 -711Q724 -709 723 -709Q716 -709 706 -722Q696 -735 687 -735Q683 -735 681 -734Q677 -727 677 -720Q677 -709 691 -695Q706 -679 707 -671V-668Q705 -657 703 -647Q703 -641 707 -636Q738 -644 740 -696Q748 -695 752 -688Q756 -681 756 -673Q756 -668 755 -666Q748 -651 735 -634Q722 -617 720 -591Q720 -579 722 -573Q788 -587 830 -630Q827 -621 827 -611Q827 -607 829 -597L832 -595Q836 -596 839 -597L841 -596Q836 -586 836 -584V-582Q853 -585 869 -589Q874 -589 876 -588Q874 -583 867 -580Q859 -576 857 -573Q870 -578 885 -581Q888 -581 894 -579Q875 -573 872 -571Q860 -565 857 -554Q859 -539 877 -536Q857 -528 852 -500Q848 -459 833 -435Q822 -435 798 -427Q780 -421 770 -421H768L767 -424Q767 -433 790 -442Q809 -449 809 -455Q809 -464 798 -464Q776 -460 758 -452Q731 -444 696 -434Q661 -423 647 -402Q652 -396 660 -396Q667 -396 681 -401Q698 -407 704 -407Q714 -407 719 -399Q683 -395 675 -383Q677 -373 677 -370Q677 -350 653 -326Q633 -306 630 -290Q646 -288 662 -287Q664 -297 683 -316Q700 -332 703 -338Q708 -347 710 -358Q713 -370 721 -372H724Q732 -372 747 -357Q749 -356 753 -356Q764 -359 769 -362Q770 -362 773 -359Q777 -362 780 -367Q782 -371 789 -372L790 -368Q790 -364 785 -357Q781 -351 780 -344V-341Q785 -314 790 -284Q790 -272 785 -263Q782 -264 775 -264Q764 -264 753 -257Q735 -243 698 -202Q656 -155 632 -140Q627 -122 627 -120H625Q621 -121 616 -122H614Q620 -136 639 -160Q653 -177 659 -188Q631 -180 609 -154Q587 -127 562 -101Q537 -77 512 -54Q477 -19 475 3Q475 7 474 11Q474 20 479 22Q502 6 516 -18Q532 -49 570 -57L572 -56Q570 -52 568 -49V-48Q576 -44 580 -44Q589 -44 605 -56Q632 -79 659 -113Q686 -146 710 -171Q723 -199 741 -218Q763 -241 784 -241Q787 -241 795 -239Q800 -240 806 -247Q813 -254 820 -255Q816 -245 816 -239Q816 -225 826 -218H827L829 -219V-217Q834 -187 838 -157V-152Q836 -143 815 -126Q796 -110 793 -101Q807 -89 825 -82Q842 -76 859 -69Q863 -85 865 -103Q866 -120 876 -131Q877 -129 877 -122Q876 -105 874 -88Q874 -73 882 -69V-116Q882 -192 897 -221Q892 -156 892 -133Q892 -109 895 -87Q895 -133 903 -188Q906 -170 907 -132Q908 -77 916 -57L917 -56Q920 -57 923 -58L924 -57Q927 -47 929 -34Q931 -21 944 -18Q942 -12 942 -9Q942 -1 951 12Q958 21 958 27Q958 34 953 46Q947 60 947 69Z"/>
</svg>