<svg xmlns="http://www.w3.org/2000/svg" viewBox="0 -800 1024 1024">
	<path fill="#000000" d="M922 -775V-773Q922 -766 917 -763Q912 -759 907 -756Q909 -762 911 -768Q912 -774 919 -775ZM944 -152Q940 -140 935 -128Q931 -132 931 -141Q931 -153 939 -153Q942 -153 944 -152ZM928 -218H931Q925 -204 918 -190Q915 -194 915 -201Q915 -218 928 -218ZM956 -611H955Q953 -612 951 -613L949 -612Q938 -600 927 -588Q916 -575 915 -555Q915 -549 916 -545Q908 -552 904 -564Q867 -573 834 -598Q798 -626 787 -659Q784 -669 784 -678Q784 -693 796 -715Q806 -734 809 -746Q814 -746 821 -739L833 -746Q832 -756 830 -767H831Q835 -767 840 -760Q845 -753 848 -752H852Q864 -752 870 -746Q876 -740 882 -734Q886 -735 892 -742Q898 -749 904 -750Q902 -734 898 -724Q902 -715 908 -715Q913 -715 924 -726Q937 -739 944 -740Q941 -732 933 -721Q925 -710 924 -698Q924 -693 927 -687Q934 -691 945 -691Q951 -690 956 -690Q942 -685 935 -674V-655Q935 -634 941 -626Q943 -623 949 -620Q956 -616 956 -611ZM531 80H525Q501 78 488 59Q475 39 456 25Q459 -18 467 -40Q479 -73 506 -78Q504 -73 502 -68Q509 -61 518 -61Q527 -61 544 -69Q560 -77 567 -77Q570 -104 570 -108V-112Q552 -108 543 -108Q519 -108 505 -121Q485 -139 485 -181Q485 -215 502 -231Q519 -246 540 -252Q546 -254 586 -259Q581 -253 568 -248Q553 -242 549 -236Q553 -228 561 -228Q580 -232 602 -247Q625 -259 642 -266V-268Q642 -278 628 -278Q624 -278 618 -276Q621 -285 638 -291Q653 -296 671 -296H678Q677 -289 675 -283L676 -279L679 -278Q683 -279 687 -281Q689 -281 691 -279L694 -278Q691 -274 688 -271V-270Q688 -260 692 -254Q696 -248 700 -242Q695 -232 691 -219Q687 -207 679 -200Q682 -197 684 -194V-193Q665 -186 656 -181Q641 -173 636 -161Q641 -153 645 -146Q644 -135 639 -127Q644 -124 649 -124Q665 -127 679 -138Q716 -156 718 -158V-157Q718 -153 710 -147Q700 -140 700 -134L702 -133Q703 -133 706 -137Q709 -141 712 -141H715L716 -140Q716 -138 712 -133Q705 -124 705 -117L706 -113L708 -112Q711 -113 713 -115L716 -113Q710 -107 710 -104Q714 -93 714 -84Q712 -62 710 -41Q684 -32 636 -4Q598 18 574 28Q579 13 593 4Q607 -5 620 -12Q656 -32 672 -44Q668 -47 661 -47Q652 -47 633 -40Q556 -6 538 17Q530 29 528 51L532 52Q538 51 544 49H546Q546 53 549 54Q548 58 540 66Q533 73 531 80ZM373 -357V-356Q361 -353 351 -353Q320 -353 288 -379Q243 -347 202 -305Q185 -290 177 -280Q165 -265 161 -247Q157 -246 151 -246Q133 -247 125 -257Q117 -268 112 -281Q105 -305 85 -314Q91 -328 97 -342Q92 -351 87 -360Q82 -369 71 -371Q73 -375 74 -380Q74 -383 73 -386Q70 -389 66 -389Q57 -387 48 -385H46Q50 -394 59 -399Q69 -403 78 -408Q74 -412 66 -412Q49 -408 32 -404Q36 -415 48 -423Q52 -426 71 -436Q138 -470 202 -512Q202 -524 191 -545Q180 -567 180 -580Q180 -587 183 -596Q191 -617 232 -617Q239 -617 251 -615Q271 -608 285 -590Q298 -572 311 -561Q329 -576 345 -590Q361 -605 382 -615Q379 -625 372 -625Q367 -625 349 -611Q327 -593 317 -593H314V-594Q319 -606 336 -620Q351 -632 362 -646Q360 -656 358 -667V-670H360Q368 -670 380 -676Q393 -682 400 -682Q404 -682 407 -681Q412 -687 418 -687Q423 -687 438 -681Q445 -668 457 -661Q468 -654 475 -641Q483 -596 491 -551Q485 -530 470 -518Q454 -506 436 -497Q405 -484 389 -455Q396 -444 396 -430Q396 -420 395 -410V-406Q396 -396 397 -387L396 -383Q394 -376 384 -370Q373 -363 373 -357ZM813 28V35Q813 40 812 42Q795 21 784 -6Q773 -32 762 -59Q774 -55 784 -34Q795 -11 809 -8Q790 -61 752 -141Q748 -140 748 -132Q749 -126 749 -120Q749 -116 747 -112H746Q738 -113 737 -121Q735 -129 734 -135Q719 -180 688 -336Q648 -330 621 -310Q594 -289 565 -269Q560 -268 552 -268Q537 -268 527 -275Q518 -282 509 -290Q500 -271 495 -253Q490 -236 475 -224Q465 -217 439 -211Q407 -204 396 -191Q395 -188 395 -180Q395 -170 396 -165Q409 -155 423 -147Q432 -152 441 -158Q437 -148 437 -139Q437 -128 444 -124Q445 -124 447 -128Q449 -132 452 -132L456 -131Q450 -128 450 -121Q450 -111 457 -104Q463 -104 464 -107Q454 -83 450 -45Q450 -37 451 -33Q443 -33 428 -26Q415 -33 398 -38Q396 -26 393 -15Q381 -17 380 -29Q379 -41 374 -50Q361 -38 361 -10Q361 22 374 52Q384 48 384 33Q383 18 393 14Q399 25 399 49Q399 69 396 84Q392 85 382 90Q371 96 365 96Q359 96 356 94Q353 97 350 102Q347 106 341 108Q337 97 309 52Q311 23 312 -6Q312 -18 311 -24Q294 -14 281 2Q269 17 258 34Q239 70 202 88Q192 84 182 79Q175 58 168 36Q169 29 170 22V19Q168 7 155 -6Q144 -17 142 -23L174 -6Q228 -37 266 -75Q303 -112 317 -155Q293 -140 264 -127Q235 -115 207 -100Q155 -75 133 -23Q129 -20 122 -20H115Q109 -20 106 -18Q89 -23 73 -36Q58 -43 41 -49Q25 -54 22 -72V-74Q22 -79 26 -91Q31 -106 31 -115V-117Q27 -139 23 -161Q23 -165 25 -171Q28 -178 42 -190Q53 -199 57 -204Q65 -215 72 -225Q78 -235 91 -239V-237Q91 -229 90 -221Q90 -213 93 -210H94Q98 -210 103 -215Q109 -221 112 -221Q116 -209 126 -209Q141 -213 156 -217Q157 -217 161 -215Q157 -211 146 -202Q135 -193 130 -187Q133 -183 136 -179Q212 -211 287 -244Q292 -245 298 -247Q303 -250 305 -256Q283 -256 247 -242Q213 -229 196 -227Q205 -243 234 -248Q267 -272 308 -279Q301 -299 288 -319Q297 -319 300 -316Q308 -324 323 -325Q339 -326 352 -329Q356 -327 360 -324Q366 -318 371 -318Q375 -318 377 -319Q380 -313 383 -307Q422 -324 460 -342Q462 -348 464 -353Q467 -359 473 -359Q471 -353 469 -347V-345Q470 -340 478 -334Q484 -330 485 -328Q493 -393 495 -399Q506 -434 537 -439Q533 -429 528 -420Q529 -417 533 -415Q538 -413 538 -411Q571 -425 604 -436Q637 -447 666 -466Q662 -470 657 -470Q648 -468 639 -466Q626 -462 612 -458Q590 -446 571 -442Q566 -442 564 -443Q589 -469 659 -489Q656 -524 650 -562Q644 -600 623 -620H621Q615 -618 608 -617V-618Q608 -624 613 -627Q618 -630 621 -633Q619 -633 616 -634Q611 -634 600 -628Q588 -621 579 -621Q583 -630 597 -641Q610 -651 614 -659Q613 -667 609 -681Q627 -705 645 -730Q663 -754 703 -756Q717 -747 720 -744Q728 -736 728 -724V-719H725Q719 -719 712 -725Q706 -730 702 -730H700Q701 -714 718 -687Q730 -668 734 -655Q739 -661 739 -671Q737 -689 735 -707Q757 -691 757 -658Q757 -642 751 -610Q744 -572 744 -555Q744 -531 753 -514Q792 -527 824 -548Q838 -545 850 -545Q859 -545 867 -546Q862 -544 859 -540Q875 -543 891 -546Q882 -541 874 -535V-531Q876 -522 880 -514Q886 -516 892 -518Q883 -509 883 -491Q883 -470 894 -454Q893 -452 889 -449Q885 -446 885 -443V-439Q887 -432 889 -426Q884 -426 880 -420Q875 -413 870 -413L868 -410Q869 -407 869 -405V-404Q796 -389 765 -370Q786 -261 801 -208Q826 -118 862 -66Q872 -53 882 -40Q890 -41 893 -60Q897 -78 898 -89Q904 -85 904 -76Q903 -64 902 -53Q902 -45 906 -41Q908 -104 915 -170Q921 -159 921 -135Q921 -132 918 -78Q918 -60 917 -42Q917 -29 919 -11Q924 -28 927 -61Q931 -100 934 -112Q941 -63 945 -14Q949 35 962 77Q950 108 947 129Q930 134 919 134Q882 130 844 111Q830 80 815 49L818 48Q825 52 830 58Q833 52 833 44Q833 22 818 20Q813 21 813 28Z"/>
</svg>