<svg xmlns="http://www.w3.org/2000/svg" viewBox="0 -800 1024 1024">
	<path fill="#000000" d="M775 -239H756Q758 -250 778 -250Q778 -248 775 -239ZM900 -662Q896 -647 892 -633Q885 -636 885 -649Q885 -664 894 -664Q896 -664 900 -662ZM466 -287Q463 -288 456 -288Q446 -288 438 -285Q428 -281 428 -275Q428 -273 430 -269Q459 -277 466 -287ZM460 -335V-336Q459 -339 457 -342V-344Q440 -342 426 -339Q412 -336 404 -326H409Q424 -326 460 -335ZM500 -95H524Q526 -107 527 -119Q527 -127 522 -130Q502 -126 494 -122V-116Q494 -109 500 -95ZM632 -377V-379H620Q569 -379 527 -359Q534 -350 539 -350Q573 -364 609 -367Q622 -367 630 -365Q631 -371 632 -377ZM594 -293H601Q604 -300 606 -307L605 -310Q593 -318 572 -318Q537 -318 537 -295V-291H545Q570 -292 594 -293ZM528 -211Q527 -223 522 -236Q504 -236 455 -221Q459 -204 481 -204Q505 -207 528 -211ZM746 88H747Q743 93 735 94Q720 112 714 118Q700 131 683 132H680Q631 131 610 96H613Q625 98 636 100Q642 100 645 94Q633 76 614 63Q596 50 577 38Q570 44 570 50Q570 56 578 68Q584 77 584 81V82Q570 81 548 54Q524 30 524 8Q524 -2 528 -11Q443 -7 399 4Q426 16 450 41Q455 41 463 36Q472 31 480 31H482Q476 39 469 47Q462 54 461 65Q464 73 466 81V82Q465 88 458 96Q452 102 451 106Q435 112 418 117Q403 114 387 110Q384 111 380 111L378 108Q380 105 381 101L380 100H379Q374 100 361 108Q352 114 347 114H346Q347 110 358 104Q367 99 368 94V93Q368 89 357 82Q349 77 346 73Q340 53 334 32Q350 27 368 5H365Q350 7 335 9Q329 9 327 8Q350 -7 382 -11Q415 -16 445 -23Q440 -33 424 -33Q407 -31 390 -29Q324 -25 304 -21Q258 -11 248 19Q251 23 258 23Q265 23 271 22Q280 22 282 29Q258 32 244 44Q230 56 212 65Q199 58 175 56Q147 54 139 40Q135 33 135 26Q137 11 139 -5V-7Q137 -23 135 -39Q135 -44 136 -47Q138 -53 147 -61Q154 -66 156 -70Q170 -75 189 -95Q212 -119 229 -121Q224 -113 216 -103Q207 -93 205 -80Q210 -71 219 -71Q228 -72 236 -73Q331 -80 392 -83V-84Q392 -88 383 -109Q335 -106 312 -87Q302 -90 289 -103Q275 -116 265 -119Q263 -127 263 -134Q263 -145 268 -149Q267 -152 267 -159Q267 -177 285 -191Q296 -199 320 -211Q314 -205 314 -198Q314 -193 316 -191Q321 -195 329 -195Q344 -193 358 -191Q369 -191 374 -199Q363 -206 353 -226Q345 -241 339 -247Q328 -256 313 -262Q298 -266 283 -271Q261 -280 261 -310Q261 -319 262 -323Q245 -320 229 -302Q226 -309 226 -314Q226 -328 248 -342Q274 -358 279 -367Q276 -368 269 -368Q253 -367 238 -357Q223 -346 208 -335Q187 -323 167 -308Q146 -293 143 -263Q160 -277 170 -277Q179 -277 183 -266Q170 -258 156 -249Q142 -239 127 -238Q118 -238 109 -244Q97 -256 84 -275Q71 -289 62 -299Q52 -309 51 -328V-335Q57 -360 72 -380Q79 -390 103 -406Q117 -417 126 -423Q134 -430 152 -431Q150 -425 143 -418Q134 -409 134 -405V-404Q137 -402 142 -402Q154 -404 165 -409Q266 -443 386 -491Q386 -509 381 -526Q271 -496 232 -452Q200 -454 183 -471Q165 -487 149 -505Q126 -524 125 -527Q124 -530 124 -535Q124 -543 132 -560Q140 -576 140 -586Q136 -601 130 -617H131Q136 -617 143 -610Q147 -606 149 -606Q151 -606 153 -608Q153 -612 145 -619Q134 -629 134 -639V-641Q144 -637 151 -630Q158 -624 171 -623H173Q173 -628 165 -635Q159 -641 159 -645V-646Q179 -634 220 -634Q238 -634 266 -638Q264 -632 254 -628Q243 -623 241 -616Q247 -607 261 -607Q277 -607 316 -629Q342 -643 352 -646Q346 -652 339 -652Q332 -652 317 -646Q300 -639 292 -639H291Q296 -654 323 -664Q343 -671 349 -677Q365 -717 409 -721H411Q437 -720 463 -689Q488 -660 489 -632Q489 -619 475 -574Q473 -568 466 -552Q457 -533 457 -520H459Q467 -520 476 -526Q487 -533 495 -533L496 -532Q491 -527 486 -515Q486 -513 488 -509L489 -508Q493 -509 497 -511H498Q490 -508 490 -495V-486Q490 -479 489 -475Q486 -470 483 -466Q482 -464 482 -459Q484 -446 489 -437Q444 -414 398 -392Q438 -396 524 -413Q589 -426 627 -431H599Q556 -431 539 -445Q512 -467 512 -528Q512 -568 525 -633Q529 -623 530 -594Q532 -559 540 -547Q545 -548 545 -555Q545 -561 544 -567Q546 -591 546 -606V-628Q547 -654 548 -681Q548 -697 546 -704Q536 -702 531 -690Q528 -683 525 -665Q518 -671 518 -681V-699Q517 -707 509 -721Q501 -735 501 -746V-751Q504 -773 523 -787Q541 -800 565 -800Q570 -799 574 -799Q589 -791 605 -774Q611 -767 632 -742V-737Q633 -725 639 -715Q638 -711 631 -700Q623 -687 623 -679V-676Q635 -682 672 -719V-720Q672 -723 668 -727Q665 -730 664 -733Q676 -733 700 -740Q722 -746 732 -746Q744 -746 754 -739Q773 -746 792 -755Q787 -747 781 -741Q775 -736 774 -725H776Q780 -725 784 -731Q787 -735 789 -735L792 -734L794 -731Q792 -724 789 -718V-716Q792 -713 794 -713Q801 -714 807 -716Q803 -712 803 -707Q807 -695 810 -683V-682Q810 -677 806 -668Q799 -652 799 -645Q799 -639 802 -632Q784 -619 749 -611Q722 -602 692 -596H663Q616 -591 611 -541Q624 -536 644 -536H663Q674 -538 685 -541Q708 -540 731 -540Q747 -540 754 -541Q760 -543 765 -545Q772 -543 778 -542Q782 -541 789 -541Q812 -541 836 -555Q841 -567 843 -582Q844 -598 855 -604Q855 -581 858 -574Q864 -601 864 -640Q864 -661 863 -671Q871 -652 874 -626Q876 -600 878 -575Q886 -582 887 -596Q888 -610 892 -621Q899 -612 901 -591Q902 -570 908 -564Q915 -555 936 -547Q952 -541 959 -535Q957 -529 957 -527Q958 -518 964 -512Q970 -506 975 -500Q976 -494 976 -489Q976 -461 949 -432Q932 -410 922 -407H918Q907 -407 888 -418Q866 -431 854 -431Q852 -439 852 -443H857Q869 -442 881 -442Q888 -442 892 -443Q889 -467 796 -470Q787 -471 769 -471Q736 -471 726 -460Q733 -456 755 -454Q786 -452 790 -440H786Q777 -439 768 -439Q761 -439 753 -442Q788 -410 788 -354Q788 -342 787 -335Q780 -335 768 -328Q757 -322 752 -322Q747 -322 741 -328Q749 -338 757 -346Q753 -358 747 -360H742Q718 -360 701 -343Q683 -325 683 -302Q683 -289 689 -277Q694 -280 700 -291Q710 -308 717 -308Q722 -308 726 -305L727 -303Q724 -297 716 -290Q709 -278 709 -262Q693 -258 675 -236H658Q646 -236 645 -225Q665 -229 682 -235Q700 -241 725 -242Q723 -240 723 -236Q725 -230 726 -224Q737 -228 747 -233L748 -231Q748 -229 743 -226Q737 -222 737 -218Q738 -210 752 -209Q766 -208 768 -203Q744 -201 732 -191Q733 -185 737 -184Q743 -183 743 -182Q729 -177 719 -163Q713 -154 704 -133H698Q670 -134 642 -136Q607 -136 602 -113Q765 -136 836 -149Q848 -131 873 -131Q874 -131 901 -134Q901 -131 892 -127Q878 -121 878 -114Q878 -111 879 -109Q882 -108 884 -108Q894 -108 906 -112Q900 -107 893 -105Q887 -103 886 -95V-92L889 -90Q894 -90 898 -91Q899 -91 903 -89Q877 -76 877 -59Q877 -53 878 -50Q858 -24 854 -4Q846 -2 830 4Q814 -3 794 -6Q774 -9 769 -28Q779 -23 791 -23Q798 -23 804 -26Q790 -54 725 -54Q666 -54 630 -37Q640 -31 661 -31Q674 -31 686 -32Q707 -32 713 -25Q712 -21 711 -18L712 -14H652Q655 -7 676 2Q691 9 697 14Q708 11 718 7Q722 7 724 8Q724 11 718 17Q710 25 710 31Q712 33 718 33Q723 33 743 23Q760 17 777 11Q774 22 754 31Q732 41 729 55Q730 59 736 59Q740 59 743 58L746 59Q732 64 731 78Q731 88 746 88Z"/>
</svg>