<svg xmlns="http://www.w3.org/2000/svg" viewBox="0 -800 1024 1024">
	<path fill="#000000" d="M354 -75V-72Q338 -78 338 -90H340Q354 -90 354 -75ZM917 -146V-153Q922 -155 926 -157Q929 -154 929 -149Q927 -138 924 -128Q917 -130 917 -146ZM563 -330Q572 -345 577 -367Q581 -389 585 -405Q584 -404 566 -389Q564 -365 561 -342Q561 -338 563 -330ZM505 -343V-348L504 -349H502Q491 -337 471 -318Q451 -300 449 -282Q449 -270 463 -263Q465 -265 485 -276Q501 -285 504 -295Q507 -302 507 -312Q506 -327 505 -343ZM268 -288V-289Q275 -324 275 -329Q275 -338 272 -344H271Q267 -342 262 -341Q258 -331 240 -317Q216 -297 216 -276V-269Q225 -217 242 -170Q261 -175 265 -180Q270 -231 275 -282Q275 -285 272 -285Q269 -286 268 -288ZM946 131H943Q937 128 930 125Q918 127 906 129Q887 126 872 105Q857 84 857 64Q858 60 858 56Q863 62 870 71Q877 80 886 81Q890 81 894 78Q864 -18 820 -62Q817 -56 817 -50Q817 -41 823 -26Q829 -11 829 -6Q829 -1 828 1Q802 -40 781 -87Q758 -57 751 -12Q744 33 732 73Q702 72 690 50H688Q684 50 682 55Q680 59 677 60Q679 51 681 42Q680 39 674 35Q667 30 667 24Q668 22 668 19Q663 18 655 18Q630 21 607 28Q612 14 627 6Q648 -5 652 -10Q674 -35 683 -70Q691 -105 714 -131Q715 -127 715 -121Q715 -110 708 -91Q701 -72 701 -62Q701 -58 703 -50Q748 -134 760 -209Q749 -206 742 -199Q735 -191 726 -185Q724 -190 724 -199Q724 -211 734 -231Q744 -251 744 -262Q744 -271 740 -278Q747 -285 747 -293Q747 -296 745 -308Q748 -306 755 -306Q772 -309 788 -312Q797 -312 804 -306Q826 -366 840 -393Q824 -388 813 -378Q802 -368 792 -357Q772 -329 729 -326Q709 -346 701 -408Q696 -407 692 -401Q687 -395 683 -390Q677 -346 664 -303Q651 -261 638 -220H634Q624 -220 623 -212Q622 -216 615 -218Q609 -220 606 -222Q602 -227 600 -233H591Q584 -237 579 -247Q576 -254 572 -254Q562 -254 562 -241Q563 -227 564 -213V-210Q590 -201 615 -192Q625 -204 632 -207Q626 -202 626 -189Q626 -180 629 -174Q644 -186 666 -189H671Q661 -185 650 -172Q637 -158 637 -147Q637 -136 652 -131Q641 -123 641 -108Q641 -101 644 -92V-89Q641 -90 638 -92Q632 -74 617 -74Q605 -75 592 -82Q579 -90 569 -95V-88Q571 -68 572 -48Q572 -34 567 -27Q559 -30 557 -49Q555 -64 552 -68Q543 -65 543 -51Q542 -45 542 -30Q542 22 555 54Q565 45 566 32Q566 18 567 3H578Q584 13 584 28Q584 41 575 75Q566 75 561 80Q556 85 551 89Q535 86 524 73Q515 63 508 43Q493 8 493 4V2Q496 -19 504 -42Q511 -73 511 -106V-120Q482 -96 461 -45Q450 -18 431 51Q425 51 418 50Q407 50 404 60V56Q404 43 391 21Q378 -2 375 -13Q367 -49 358 -69Q363 -67 372 -53Q374 -56 374 -61Q374 -68 360 -93Q351 -112 341 -132L343 -133Q346 -133 349 -128Q352 -123 354 -120Q372 -94 397 -69Q434 -107 461 -154Q452 -167 433 -170Q425 -180 415 -186Q405 -192 403 -206Q406 -206 408 -207Q413 -207 424 -199Q431 -194 437 -192Q440 -192 442 -196Q444 -200 446 -200H447Q420 -246 382 -260Q380 -257 378 -255V-254Q378 -247 387 -239Q393 -234 393 -231Q377 -234 368 -241Q359 -249 348 -258Q334 -231 332 -152Q330 -86 322 -60Q319 -59 313 -59Q291 -61 274 -68Q259 -64 249 -48Q243 -39 234 -18H230Q201 -19 187 -37Q174 -54 160 -71H158Q153 -69 147 -68L146 -72Q146 -77 153 -82Q149 -93 145 -105Q147 -111 159 -117Q164 -86 197 -65Q201 -68 201 -72Q201 -79 190 -93Q174 -121 157 -154Q141 -187 114 -206Q111 -201 111 -196Q112 -186 120 -176Q128 -167 133 -160Q132 -158 128 -158Q121 -159 114 -160H113Q110 -170 102 -173Q94 -175 87 -180Q81 -186 76 -194Q71 -202 61 -204Q46 -239 21 -260Q22 -264 30 -329Q32 -349 49 -377Q62 -398 64 -407Q68 -430 67 -453Q66 -477 79 -495Q81 -491 81 -480Q81 -465 80 -451Q80 -439 84 -432Q89 -451 90 -471Q93 -467 95 -452Q97 -436 101 -432Q102 -433 102 -438V-453Q113 -440 117 -423Q145 -416 158 -393Q171 -371 187 -351Q246 -388 286 -423V-425Q286 -429 281 -432Q263 -428 238 -412Q220 -400 209 -396Q208 -398 208 -401Q212 -413 225 -421Q237 -432 301 -493Q302 -493 317 -490Q328 -505 335 -524Q336 -522 336 -518Q335 -509 334 -501Q334 -495 338 -492H340Q344 -492 346 -497Q348 -503 352 -503H354Q356 -503 356 -499Q356 -494 355 -489Q358 -468 377 -436Q395 -406 398 -392L399 -390Q398 -387 395 -386Q399 -383 403 -380Q407 -378 409 -378Q421 -380 436 -398Q473 -428 510 -459V-462Q509 -471 507 -480Q497 -477 483 -458Q467 -437 456 -437Q449 -437 440 -443Q428 -452 421 -467Q414 -482 406 -499Q395 -513 384 -528Q379 -537 371 -559Q361 -588 351 -596Q359 -592 379 -579Q375 -589 363 -604Q345 -627 341 -638Q348 -635 360 -622Q375 -606 385 -605Q385 -608 376 -618Q367 -629 366 -633Q380 -631 390 -625Q411 -642 436 -646Q461 -651 490 -659Q491 -662 491 -669Q490 -684 489 -700Q489 -709 492 -717Q502 -736 516 -756Q526 -760 536 -765Q547 -774 555 -777H557Q573 -777 584 -753Q587 -746 597 -711Q613 -719 631 -731Q630 -726 629 -721V-719Q635 -722 643 -731Q650 -739 662 -740Q646 -719 646 -704Q646 -699 649 -693Q656 -696 662 -700L664 -699Q659 -687 657 -673Q657 -668 658 -665V-664L662 -665H664Q660 -657 660 -645Q661 -628 662 -612Q662 -595 656 -587Q653 -582 635 -567Q623 -555 616 -555L612 -556Q613 -564 621 -571Q629 -578 634 -585Q633 -592 628 -596Q598 -587 584 -579Q562 -566 557 -543H562Q575 -545 588 -548Q588 -541 579 -531Q570 -521 570 -513Q570 -507 572 -503Q584 -505 604 -525Q629 -550 650 -550Q654 -550 664 -548H665Q667 -548 674 -555Q678 -554 678 -546Q684 -556 689 -566Q694 -576 703 -581Q695 -560 689 -534L691 -533Q696 -534 700 -536H701Q699 -528 699 -524Q701 -503 706 -486Q720 -532 720 -596Q720 -628 717 -663Q710 -654 701 -619Q697 -632 697 -661Q696 -696 692 -708Q705 -777 761 -797Q802 -771 823 -726Q829 -714 829 -702V-699Q826 -690 823 -681V-678Q824 -670 825 -662Q819 -639 805 -608Q790 -564 790 -513V-504Q796 -505 822 -521Q834 -532 847 -535Q850 -535 852 -534Q849 -523 830 -511Q810 -498 805 -489Q807 -487 811 -487Q823 -490 831 -496Q900 -534 906 -537Q905 -545 894 -545Q889 -545 885 -543V-561Q899 -570 913 -581Q926 -592 948 -594Q942 -591 937 -587Q932 -583 930 -576Q935 -574 940 -573Q938 -564 930 -555Q931 -551 935 -548Q939 -545 939 -543H940Q944 -545 948 -548Q951 -548 952 -546V-545Q952 -542 949 -541Q945 -539 945 -536Q947 -521 948 -506Q950 -499 959 -488Q970 -474 971 -464V-461Q971 -455 968 -443Q964 -427 964 -414H962Q956 -414 954 -409Q952 -405 949 -401H945Q931 -401 924 -392Q918 -384 914 -373Q909 -352 891 -344Q893 -352 893 -358Q893 -366 888 -369H886Q879 -368 875 -361Q870 -355 865 -348Q853 -335 849 -319Q849 -315 852 -309Q858 -311 869 -322Q880 -333 885 -336Q884 -311 872 -295Q861 -280 853 -260L832 -275Q833 -277 833 -280Q830 -289 826 -298V-300Q815 -292 815 -277Q815 -256 831 -245Q831 -241 830 -238Q831 -230 832 -222V-219Q831 -209 819 -193Q807 -177 807 -168Q813 -149 828 -129Q851 -92 874 -56Q878 -46 883 -37Q888 -27 899 -24Q901 -28 902 -37Q903 -52 909 -54V-47Q909 -34 914 -32Q919 -45 920 -80Q921 -111 924 -122Q928 -101 930 -26Q935 -46 936 -99Q937 -157 945 -182Q949 -153 949 -113Q949 -108 946 -18Q952 -25 952 -48V-56Q952 -74 955 -81Q960 -51 960 19Q960 52 961 67V75Q961 115 946 131Z"/>
</svg>