<svg xmlns="http://www.w3.org/2000/svg" viewBox="0 -800 1024 1024">
	<path fill="#000000" d="M924 -29H916Q916 -30 919 -39H930Q936 -39 936 -36Q935 -29 924 -29ZM76 -149H77Q78 -147 78 -142Q78 -129 72 -125Q68 -128 68 -135Q69 -142 69 -150L71 -151Q74 -150 76 -149ZM853 -651V-655Q853 -662 854 -665Q860 -668 866 -668Q872 -668 872 -663Q866 -654 853 -651ZM851 -116H853L854 -112Q854 -102 839 -90Q835 -94 835 -100Q835 -107 839 -111Q844 -116 851 -116ZM728 -495V-497Q728 -501 725 -501Q734 -508 746 -508Q753 -508 756 -505Q753 -493 738 -493Q734 -493 728 -495ZM601 -252V-264Q597 -266 594 -266Q583 -263 574 -258V-242Q587 -248 601 -252ZM621 -350H618Q597 -350 576 -333V-314Q621 -316 621 -350ZM636 -149H634Q624 -149 610 -157Q596 -165 587 -165Q582 -165 579 -164Q574 -151 574 -129Q574 -125 577 -83Q583 -90 584 -99Q584 -102 583 -105Q589 -118 613 -118Q618 -117 623 -117Q660 -140 666 -236Q650 -230 645 -200Q638 -154 636 -149ZM505 -441H501Q482 -441 466 -427Q465 -420 463 -414Q448 -400 432 -387Q422 -368 399 -338Q365 -295 358 -270Q361 -271 368 -278Q377 -287 382 -287Q385 -287 388 -284Q381 -279 379 -272Q444 -281 473 -288Q471 -296 464 -299Q457 -302 451 -306Q443 -319 435 -332Q426 -345 424 -366Q428 -369 433 -380Q438 -391 444 -395Q465 -403 488 -404Q490 -412 508 -414Q507 -427 505 -441ZM851 104L833 120Q827 121 817 121Q779 121 747 93Q730 80 714 69Q699 58 692 37Q705 43 729 63Q761 90 786 95Q787 93 787 89Q787 75 764 61Q737 41 710 19Q683 -3 653 -17V-16Q653 -9 663 4Q671 14 673 21H672Q662 20 655 13Q648 5 642 -2Q621 -21 586 -66H585Q576 -66 576 -52V-35Q562 -44 562 -74Q563 -97 564 -121Q564 -135 561 -146Q549 -132 549 -90V-50Q549 -39 548 -28Q548 27 567 45Q577 38 576 24Q576 10 579 -3Q589 10 589 34Q589 58 574 105H570Q560 107 553 111Q516 99 505 90Q503 82 495 73Q483 59 482 49V44Q483 29 484 14Q484 3 479 -5Q493 -37 493 -60Q468 -50 466 -35L469 -34Q473 -35 477 -37L481 -36Q469 -27 469 -10Q469 2 475 12Q441 31 413 55Q385 80 356 102Q332 96 310 92Q288 88 273 73Q275 58 276 43Q276 27 267 18Q281 -26 323 -41Q320 -31 316 -22Q316 -19 317 -17Q364 -24 408 -44V-45Q406 -48 404 -51Q396 -52 382 -61Q369 -69 361 -69H358Q362 -77 362 -84Q362 -107 324 -107H321Q323 -117 346 -117H359Q358 -122 351 -124Q342 -126 341 -131H344Q351 -129 358 -128Q375 -145 395 -145Q410 -145 424 -135Q430 -128 436 -122Q444 -117 451 -113Q461 -101 463 -85Q464 -70 468 -57Q478 -60 488 -63H493Q496 -72 496 -94V-125H493Q487 -125 483 -120Q480 -117 478 -116Q470 -120 457 -122Q446 -123 441 -126Q430 -132 421 -155Q414 -172 408 -179Q409 -194 420 -201Q431 -207 448 -211Q483 -215 503 -228V-240Q401 -223 362 -167Q356 -166 350 -166Q335 -166 323 -173Q322 -185 311 -192Q297 -182 289 -166Q281 -151 273 -135Q248 -94 237 -78Q220 -49 205 -17Q195 -1 189 15Q185 32 181 50Q176 68 162 76Q156 79 147 79Q125 77 103 75H96Q94 68 85 53Q73 33 73 21Q73 13 77 6Q69 -3 69 -17Q71 -31 72 -45V-53Q72 -71 71 -90Q71 -105 75 -114Q78 -97 81 -80Q87 -83 90 -101Q93 -133 92 -170Q92 -208 103 -231Q101 -223 101 -204Q102 -174 102 -145V-132Q102 -124 101 -117Q101 -108 106 -104Q132 -126 181 -179Q226 -228 253 -251Q232 -211 197 -180Q162 -149 148 -98Q162 -101 177 -122Q225 -180 272 -239Q285 -254 298 -269Q310 -284 314 -305Q305 -305 298 -293Q290 -281 281 -281Q283 -298 294 -310Q305 -321 315 -333Q334 -359 353 -386Q335 -386 321 -379Q305 -371 300 -357L296 -358Q291 -358 282 -351Q262 -352 246 -366Q240 -371 222 -393Q187 -402 184 -442Q185 -446 185 -450Q191 -463 197 -476Q199 -492 200 -502Q200 -513 207 -522Q214 -526 220 -531Q231 -544 241 -552Q283 -578 293 -588Q298 -593 302 -598Q306 -604 314 -604L318 -603Q318 -597 306 -585Q295 -574 294 -567L298 -565Q301 -565 304 -571Q307 -577 311 -577H312Q315 -575 315 -573Q315 -568 314 -564Q314 -559 317 -558H319Q334 -562 348 -566Q354 -566 356 -564Q360 -570 375 -572Q388 -574 392 -579Q411 -580 443 -589Q474 -597 497 -599Q500 -608 500 -618Q500 -632 494 -655Q489 -676 488 -683Q468 -689 456 -699Q460 -706 460 -712Q459 -722 453 -729Q446 -736 439 -743Q442 -749 450 -752Q457 -754 465 -756Q473 -767 481 -777Q489 -786 500 -792H503Q511 -792 526 -801Q539 -809 547 -809H549Q570 -809 598 -786Q608 -778 621 -756Q633 -736 641 -729Q643 -713 643 -708Q643 -700 641 -695Q637 -695 631 -689Q625 -683 618 -683Q617 -685 617 -690Q620 -702 627 -712Q621 -725 612 -740Q603 -756 588 -757Q585 -757 579 -755Q583 -731 592 -714Q582 -692 582 -667Q582 -640 594 -630Q599 -633 601 -646Q604 -662 612 -663Q613 -660 613 -655Q612 -642 611 -629Q611 -623 612 -620Q631 -622 649 -625Q654 -625 657 -624Q677 -633 717 -642Q770 -654 792 -668Q813 -647 821 -642Q829 -645 836 -648Q838 -648 842 -646V-645Q841 -641 837 -640Q833 -640 832 -635V-634Q835 -631 842 -631Q859 -634 876 -637Q882 -637 885 -636Q884 -635 861 -625Q847 -619 847 -609Q847 -605 848 -603H849Q855 -605 861 -607Q865 -607 866 -603Q849 -596 849 -572Q849 -566 854 -536H845Q847 -528 847 -527Q846 -516 839 -512Q832 -507 826 -501Q818 -503 813 -503Q798 -502 782 -501Q770 -501 765 -504Q767 -513 787 -515Q807 -516 809 -525Q797 -534 776 -534Q765 -533 753 -533Q701 -525 645 -510Q585 -502 546 -479Q557 -476 567 -476Q579 -476 611 -484Q643 -492 662 -492Q673 -492 685 -489Q674 -482 635 -474Q592 -465 576 -455Q576 -447 585 -436Q601 -439 628 -455Q664 -477 686 -477H694Q705 -476 718 -466Q732 -455 741 -455Q740 -450 738 -446Q738 -444 740 -442Q746 -443 761 -454Q772 -462 780 -465Q772 -455 761 -446Q751 -438 750 -419L752 -418Q757 -421 765 -425H768Q755 -404 755 -394Q755 -387 761 -381Q754 -375 754 -363Q755 -355 755 -347Q782 -349 790 -361Q793 -360 797 -360Q809 -363 820 -369Q822 -369 825 -364Q827 -361 830 -360Q837 -364 847 -366H850Q848 -360 845 -354V-350Q850 -345 864 -345H879Q874 -336 870 -319Q867 -302 856 -295Q857 -294 857 -289V-281Q852 -285 843 -285Q831 -285 823 -279Q781 -290 755 -290Q711 -290 695 -267Q680 -246 669 -164Q676 -166 687 -184Q695 -196 701 -201Q699 -215 699 -219Q699 -246 731 -252Q735 -253 743 -253Q776 -251 790 -236Q801 -239 811 -242L812 -240Q809 -235 806 -231L808 -228Q811 -225 814 -225Q818 -225 824 -229Q831 -234 835 -234Q837 -234 841 -232Q818 -212 818 -202Q818 -195 827 -191Q826 -161 825 -156Q823 -135 814 -125H804Q773 -123 751 -108Q729 -93 704 -83Q728 -59 763 -59Q774 -59 784 -62Q786 -58 786 -51Q786 -44 793 -42Q799 -42 810 -58Q823 -78 833 -78H835Q829 -67 822 -58Q815 -49 814 -35V-34Q816 -31 820 -30Q840 -38 876 -71Q906 -98 925 -107Q924 -98 918 -94Q912 -91 906 -87Q888 -72 874 -53Q859 -33 844 -15Q849 -6 853 -3Q863 -5 877 -12Q898 -22 905 -22H909Q904 -15 896 -12Q888 -9 882 -5Q869 4 861 21Q864 28 866 36Q868 45 877 47Q864 71 860 99Q860 105 861 108Q857 108 851 104Z"/>
</svg>