<svg xmlns="http://www.w3.org/2000/svg" viewBox="0 -800 1024 1024">
	<path fill="#000000" d="M724 -173H722Q719 -173 717 -167Q715 -162 711 -162Q698 -174 692 -190Q686 -207 666 -209V-211Q666 -218 679 -218Q680 -223 680 -233Q680 -262 658 -305Q640 -340 640 -362Q640 -381 648 -398Q657 -409 664 -420Q671 -431 686 -438Q686 -460 699 -460Q697 -454 695 -448Q695 -444 699 -443Q712 -460 725 -478V-472Q727 -430 750 -403Q773 -376 788 -343Q768 -288 764 -191Q758 -190 748 -182Q736 -173 724 -173ZM926 -1H923Q918 -1 910 -10Q904 -17 900 -19Q894 -12 894 4Q898 33 901 62Q901 68 900 70Q911 69 921 54Q930 41 935 24Q939 35 939 46Q939 68 920 95Q897 128 893 138Q864 135 837 126Q827 121 815 104Q801 84 790 81L789 78Q791 73 793 68Q759 28 720 -8Q726 -7 740 4Q752 14 760 17L763 18Q754 8 732 -14Q701 -45 689 -61Q699 -56 714 -43Q731 -29 741 -24Q733 -35 712 -52Q681 -76 674 -97Q700 -78 729 -54Q757 -31 793 -17Q796 -20 799 -27Q803 -38 809 -39Q812 -93 812 -170Q812 -236 811 -303Q811 -345 813 -417Q816 -457 816 -530Q815 -550 814 -571Q814 -580 815 -585Q817 -592 819 -600Q819 -616 809 -632Q799 -649 788 -651Q785 -652 781 -652Q769 -652 751 -642Q736 -633 729 -633Q736 -647 750 -654Q765 -661 779 -669Q780 -671 780 -674Q778 -683 773 -691Q818 -725 825 -731Q836 -741 848 -755Q860 -769 873 -772Q876 -773 881 -773Q906 -771 923 -747Q939 -724 957 -709V-707Q957 -694 965 -673Q973 -653 972 -642Q971 -625 960 -606Q950 -588 942 -571Q930 -542 918 -496Q913 -503 913 -513Q916 -532 921 -550Q925 -572 929 -594Q939 -619 942 -633V-636Q942 -645 938 -655Q934 -665 928 -665H926Q916 -664 906 -609Q902 -575 897 -541Q885 -470 881 -403Q881 -382 884 -361Q893 -362 893 -375V-384Q896 -409 905 -427V-406Q905 -368 900 -213Q901 -208 905 -200Q902 -180 902 -157Q902 -97 915 -45Q924 -24 927 -7Q927 -3 926 -1ZM655 -186H658Q662 -186 668 -182Q659 -171 655 -161Q653 -169 653 -174Q653 -178 655 -186ZM225 -330Q222 -334 217 -345Q211 -358 206 -363Q190 -337 189 -318Q200 -320 225 -330ZM267 -179V-188Q269 -210 271 -233Q271 -241 268 -246Q254 -239 241 -231Q228 -223 222 -208Q225 -201 229 -201Q235 -203 240 -205Q237 -197 237 -191Q237 -177 244 -167Q256 -173 267 -179ZM380 -381H382Q383 -370 384 -366Q386 -358 391 -356Q394 -376 405 -418Q421 -478 421 -510V-522Q406 -522 397 -509Q409 -496 409 -465V-455Q398 -439 382 -426Q381 -428 381 -432Q386 -449 390 -466Q390 -469 386 -475Q379 -456 368 -437Q356 -418 355 -396Q355 -391 357 -381Q364 -401 373 -412Q376 -409 376 -403Q374 -390 371 -378L372 -377Q376 -379 380 -381ZM289 -392H290Q288 -377 285 -363Q285 -355 289 -351Q295 -352 298 -368Q309 -399 311 -435L307 -434Q301 -434 301 -435Q309 -462 309 -471Q309 -479 308 -483Q283 -482 270 -467Q259 -454 259 -433Q259 -403 280 -377Q282 -382 282 -386Q283 -392 289 -392ZM481 -233V-231Q482 -233 482 -237Q482 -267 481 -273Q489 -297 491 -320Q476 -311 459 -299Q443 -288 437 -270Q424 -281 411 -292Q398 -303 394 -323Q379 -282 374 -276Q364 -279 356 -279Q325 -277 323 -253Q323 -246 332 -233Q329 -221 325 -210Q325 -205 331 -202Q333 -211 340 -218V-231Q340 -256 350 -265Q365 -263 380 -261Q384 -247 384 -226Q384 -206 387 -195Q389 -193 391 -193Q394 -194 396 -196L397 -195V-169Q397 -156 400 -147Q427 -194 427 -226V-231Q424 -243 421 -255Q421 -259 424 -264Q424 -260 428 -258Q430 -257 435 -255Q436 -269 456 -269Q466 -269 471 -264Q471 -256 477 -245Q481 -238 481 -233ZM132 -425Q124 -436 111 -446Q97 -457 93 -474Q92 -486 92 -497Q91 -508 84 -516V-527Q84 -569 132 -619Q148 -637 166 -641Q164 -637 158 -630Q153 -624 152 -614V-612Q170 -613 201 -622Q234 -632 248 -632Q255 -632 267 -629Q248 -621 222 -614Q195 -607 180 -593Q187 -589 195 -589Q212 -589 260 -604Q379 -642 459 -673Q453 -673 447 -674Q420 -674 370 -655Q322 -636 295 -636Q300 -646 318 -653Q326 -656 346 -662Q420 -686 508 -717L509 -720V-723L511 -724Q514 -723 517 -722L519 -723Q532 -732 547 -741Q576 -758 586 -767L587 -764Q579 -754 579 -738Q579 -724 587 -717Q596 -718 607 -726Q619 -735 629 -735H632Q620 -724 609 -713Q598 -702 595 -682Q598 -682 603 -686Q610 -692 615 -692H619L603 -660Q606 -650 612 -644L611 -642L607 -643L606 -642V-641Q599 -630 594 -606Q587 -572 573 -564Q566 -560 541 -556Q503 -550 493 -537Q497 -529 497 -521Q497 -512 491 -497Q485 -482 485 -475Q486 -471 486 -468Q499 -472 510 -481Q521 -490 531 -495V-494Q531 -484 517 -474Q505 -465 505 -457V-453Q523 -460 539 -476Q555 -493 571 -506H569Q559 -501 544 -497Q541 -497 539 -498Q540 -533 574 -535Q581 -531 589 -520Q596 -511 601 -507Q615 -520 628 -537Q624 -528 617 -513Q609 -499 608 -484Q608 -476 610 -472Q613 -473 616 -479Q620 -485 625 -486L626 -483Q624 -474 622 -466V-460Q625 -425 628 -391Q628 -374 625 -366Q617 -355 612 -343Q606 -343 601 -350Q533 -294 516 -214Q513 -222 509 -231L505 -230Q497 -231 489 -233Q486 -233 481 -230Q490 -170 528 -137Q565 -105 603 -72Q611 -93 612 -148Q613 -199 618 -218Q624 -198 624 -161Q624 -139 623 -118Q623 -102 625 -78Q629 -113 630 -189Q631 -267 635 -302Q640 -264 640 -204Q640 -161 639 -119Q639 -87 642 -57Q645 -66 647 -95Q650 -125 655 -139Q657 -114 647 -57Q635 8 642 36Q634 47 639 75Q645 104 635 114Q631 118 620 124Q608 131 604 140Q576 115 546 49Q560 50 574 67Q583 78 592 82Q575 15 490 -54Q492 -33 511 -18Q533 -2 537 23Q537 28 535 31Q497 -15 459 -61Q444 -44 440 -20Q436 4 430 27Q424 49 411 66Q406 73 383 97Q356 75 350 27V22Q353 13 355 3V2Q354 -11 347 -21Q340 -31 334 -39H336Q345 -35 354 -32Q358 -36 362 -47Q368 -62 374 -66Q361 -69 354 -79Q349 -86 343 -102Q340 -102 336 -103Q316 -103 312 -76Q307 -42 301 -36Q296 -37 296 -50Q296 -57 295 -60Q281 -30 279 15Q277 29 274 43Q274 51 280 57Q284 48 287 22Q290 -12 301 -21Q304 -7 304 5Q304 25 295 64Q286 101 286 119Q266 120 250 124Q245 109 236 97Q230 88 211 76Q197 67 192 60H194Q211 63 227 65Q227 56 219 53Q212 49 203 46Q151 24 134 -4Q146 -2 163 9Q183 22 193 24Q198 25 202 25Q227 24 235 3Q243 -20 245 -50Q220 -38 211 -1H208Q183 -1 167 -20V-24Q163 -58 159 -92Q159 -102 160 -108Q161 -116 174 -136Q188 -158 188 -169Q188 -171 187 -174Q186 -178 178 -185Q170 -192 169 -195Q167 -201 166 -216Q165 -235 160 -245Q151 -224 141 -166Q135 -130 128 -107Q120 -110 120 -120Q123 -133 125 -147Q134 -190 134 -204V-210Q120 -178 111 -138Q100 -106 96 -77Q96 -72 98 -64Q104 -66 110 -76Q115 -84 121 -87Q115 -54 108 -23Q101 8 80 27Q76 27 59 18L52 25Q54 22 54 15Q54 3 41 -16Q25 -40 25 -58L29 -74Q74 -193 132 -425Z"/>
</svg>