<svg xmlns="http://www.w3.org/2000/svg" viewBox="0 -800 1024 1024">
	<path fill="#000000" d="M920 -692V-690H917Q907 -688 896 -686Q902 -702 918 -702V-700Q919 -696 920 -692ZM534 -642V-640H531Q521 -638 510 -636Q516 -652 532 -652V-650Q533 -646 534 -642ZM754 -221Q745 -216 735 -212Q724 -208 719 -198Q721 -197 724 -197Q734 -199 744 -201H746Q727 -189 727 -174Q727 -167 731 -159Q736 -160 740 -162Q742 -160 743 -159V-158Q742 -155 738 -150Q734 -146 733 -137Q733 -134 734 -132Q725 -118 715 -104Q705 -90 690 -89H689Q681 -91 672 -96H666Q654 -95 641 -94Q633 -94 629 -96Q629 -104 643 -106Q656 -108 656 -116Q643 -129 621 -129Q581 -125 549 -115Q548 -109 546 -104V-102Q548 -96 560 -96Q570 -96 580 -97Q586 -97 589 -96Q586 -86 569 -84Q549 -82 545 -79Q538 -73 538 -64Q538 -56 536 -44H558Q593 -44 626 -47Q682 -50 732 -52Q781 -55 808 -87Q814 -96 822 -118Q832 -146 844 -158Q844 -146 834 -121Q825 -97 823 -80Q830 -91 848 -138Q853 -154 857 -170Q862 -186 872 -196Q873 -195 873 -191Q870 -180 863 -166Q844 -101 844 -60Q848 -69 851 -80Q857 -102 862 -109Q866 -104 866 -101Q864 -94 862 -87Q862 -78 861 -70Q862 -62 862 -54Q867 -14 872 25Q870 39 868 53Q867 88 844 98Q828 96 811 93Q794 83 767 78Q724 71 687 62Q684 61 678 61Q665 61 660 55Q661 49 668 49H683Q686 45 689 40Q685 29 671 23Q657 17 641 17Q613 17 608 32Q612 40 621 43Q630 45 638 49Q636 57 616 57Q601 57 585 55Q577 54 561 54Q536 54 485 62Q441 69 421 69H409Q411 60 430 55Q466 50 510 48Q554 47 588 35Q578 21 537 21Q521 21 493 23Q464 26 435 29Q380 34 358 40Q319 50 308 72Q311 79 319 79Q330 78 341 76Q347 76 349 78Q330 93 299 98Q272 112 253 128Q233 138 222 138Q201 138 186 117Q183 118 177 118Q161 118 150 104Q140 91 140 74Q140 55 152 40Q151 36 151 29Q151 6 168 -11Q210 -55 226 -66V-64Q226 -62 220 -54Q212 -44 210 -36Q209 -33 209 -26Q209 -15 212 -8Q273 -15 332 -24Q391 -33 456 -36Q458 -39 460 -69Q456 -72 451 -72Q437 -69 425 -64Q404 -62 400 -60Q393 -58 385 -50Q374 -39 368 -39Q365 -38 362 -38Q351 -38 345 -45Q339 -51 331 -60Q323 -66 315 -71Q308 -75 305 -83Q304 -85 304 -88Q307 -102 309 -116Q307 -130 304 -145Q304 -151 305 -153Q308 -164 315 -170Q322 -176 327 -182Q337 -180 343 -179Q347 -179 354 -181Q309 -211 293 -242L296 -243Q300 -242 303 -242L306 -243Q300 -249 287 -253Q270 -259 265 -266Q268 -266 271 -267Q288 -264 305 -261Q313 -261 316 -263Q334 -272 339 -280Q361 -304 377 -344Q375 -343 372 -343Q360 -345 348 -348L345 -347Q333 -342 323 -330Q263 -272 251 -263V-266Q251 -281 269 -299Q282 -313 295 -327Q308 -340 316 -359Q244 -302 207 -249Q210 -245 213 -245Q217 -245 224 -250Q233 -256 237 -256Q240 -256 241 -254Q236 -245 230 -236Q224 -227 221 -215Q212 -213 208 -208Q204 -203 199 -198Q165 -207 153 -207H146Q135 -221 119 -231Q116 -257 102 -269Q87 -281 75 -295H77Q84 -295 98 -286Q110 -278 115 -278H116Q113 -281 98 -292Q82 -304 75 -315Q101 -306 126 -292Q235 -352 283 -428Q280 -434 276 -440H273Q262 -437 253 -428Q238 -424 223 -420Q215 -419 199 -404Q184 -390 176 -388Q174 -387 171 -387Q161 -387 156 -398Q154 -403 148 -424Q126 -437 119 -473V-477Q121 -495 123 -513Q123 -516 125 -523Q127 -545 176 -577Q174 -572 164 -562Q153 -551 151 -540L155 -539Q159 -539 164 -546Q170 -555 176 -555L178 -553Q178 -550 177 -547V-544Q185 -542 186 -542Q193 -542 200 -543Q199 -535 191 -529Q185 -525 183 -520Q186 -511 191 -511Q199 -513 206 -518Q247 -532 287 -550H281Q270 -550 246 -544Q224 -539 219 -539Q213 -539 210 -540Q223 -553 237 -558Q251 -563 269 -572Q269 -580 264 -590Q260 -599 259 -608Q249 -618 239 -629V-632Q239 -654 246 -664Q242 -670 233 -671Q224 -671 215 -673Q239 -681 271 -695Q303 -709 334 -711Q343 -711 348 -710Q372 -704 387 -692Q414 -668 414 -652Q414 -643 402 -626Q389 -607 389 -595V-593Q452 -613 502 -634Q501 -628 490 -621Q478 -613 476 -604L479 -603Q485 -606 491 -609H492Q492 -607 488 -600Q492 -590 501 -590Q508 -590 510 -595L512 -594Q510 -590 507 -586Q509 -580 511 -575Q515 -595 562 -627Q560 -622 550 -612Q539 -601 537 -590L541 -589Q545 -589 550 -596Q556 -605 562 -605L564 -603Q564 -600 563 -597V-594Q571 -592 572 -592Q579 -592 586 -593Q585 -585 577 -579Q571 -575 569 -570Q572 -561 577 -561Q585 -563 592 -568Q633 -582 673 -600H667Q656 -600 632 -594Q610 -589 605 -589Q599 -589 596 -590Q609 -603 623 -608Q637 -613 655 -622Q655 -630 650 -640Q646 -649 645 -658Q635 -668 625 -679V-682Q625 -704 632 -714Q628 -720 619 -721Q610 -721 601 -723Q625 -731 657 -745Q689 -759 720 -761Q729 -761 734 -760Q758 -754 773 -742Q800 -718 800 -702Q800 -693 788 -676Q775 -657 775 -645V-643Q838 -663 888 -684Q887 -678 876 -671Q864 -663 862 -654L865 -653Q871 -656 877 -659H878Q878 -657 874 -650Q878 -640 887 -640Q894 -640 896 -645L898 -644Q896 -640 893 -636Q900 -620 906 -605Q895 -590 881 -550Q868 -547 854 -544Q849 -544 842 -549Q848 -555 856 -560Q863 -566 867 -575Q863 -576 854 -576Q828 -572 803 -557Q789 -553 775 -549Q761 -546 754 -533Q769 -534 799 -542Q821 -548 834 -550Q837 -546 839 -541V-540Q787 -527 741 -512Q758 -511 768 -503Q813 -519 826 -519H828Q837 -516 845 -513H847Q855 -517 865 -520Q863 -514 861 -513Q875 -496 891 -483Q895 -463 898 -444Q898 -440 896 -434H894Q879 -433 870 -419Q861 -405 854 -392Q843 -374 841 -370Q835 -357 835 -339H834Q831 -337 828 -336Q818 -320 804 -289Q786 -249 775 -234Q762 -229 755 -221ZM749 -225Q696 -257 679 -292L682 -293Q686 -292 689 -292L692 -293Q686 -299 673 -303Q656 -309 651 -316Q654 -316 657 -317Q674 -314 691 -311Q699 -311 702 -313Q720 -322 725 -330Q747 -354 763 -394Q761 -393 758 -393Q746 -395 734 -398L731 -397Q719 -392 709 -380Q649 -322 637 -313V-316Q637 -331 655 -349Q668 -363 681 -377Q694 -390 702 -409Q630 -352 593 -299Q596 -295 599 -295Q603 -295 610 -300Q619 -306 623 -306Q626 -306 627 -304Q622 -295 616 -286Q610 -277 607 -265Q598 -263 594 -258Q590 -253 585 -248Q551 -257 539 -257H532Q521 -271 505 -281Q503 -305 490 -316Q478 -327 466 -339Q449 -313 449 -289H448Q445 -287 442 -286Q434 -273 419 -240Q402 -203 391 -187Q403 -189 412 -191Q430 -196 447 -202Q443 -218 443 -225Q445 -233 447 -241Q453 -243 459 -245V-246Q458 -251 456 -257L457 -261Q462 -260 472 -260Q488 -260 503 -261H513Q516 -255 528 -240Q543 -221 546 -209Q571 -211 595 -214Q615 -217 642 -222Q670 -228 685 -225Q691 -227 696 -229H698L699 -226Q697 -220 695 -215Q695 -212 703 -209Q725 -220 749 -225ZM505 -527Q501 -518 495 -500Q482 -497 468 -494Q463 -494 456 -499Q462 -505 470 -510Q477 -516 481 -525Q477 -526 468 -526Q442 -522 417 -507Q403 -503 389 -499Q375 -496 368 -483Q383 -484 413 -492Q435 -498 448 -500Q451 -496 453 -491V-490Q401 -477 355 -462Q372 -461 382 -453Q427 -469 440 -469H442Q451 -466 459 -463H461Q469 -467 479 -470Q477 -464 475 -463Q489 -446 505 -433Q509 -413 512 -394Q512 -390 510 -384H508Q491 -384 478 -359Q495 -350 512 -342Q621 -402 669 -478Q666 -484 662 -490H659Q648 -487 639 -478Q624 -474 609 -470Q601 -469 585 -454Q570 -440 562 -438Q560 -437 557 -437Q547 -437 542 -448Q540 -453 534 -474Q512 -487 505 -523ZM473 -351Q471 -347 469 -344Q487 -333 501 -328H502Q488 -339 473 -351Z"/>
</svg>