<svg xmlns="http://www.w3.org/2000/svg" viewBox="0 -800 1024 1024">
	<path fill="#000000" d="M882 -394V-396Q882 -408 891 -408L895 -407Q895 -394 882 -394ZM860 -188H861Q866 -190 871 -193Q872 -193 876 -191Q869 -176 858 -168Q856 -172 856 -173Q858 -180 860 -188ZM625 -745Q622 -736 611 -733Q600 -731 592 -731Q592 -746 617 -746Q621 -745 625 -745ZM375 -488L379 -456Q383 -444 399 -452Q415 -460 428 -466Q418 -471 406 -474Q398 -473 387 -487Q377 -498 375 -488ZM368 -542L398 -560Q407 -565 410 -555Q413 -545 418 -534Q422 -524 432 -524Q430 -532 427 -552Q424 -572 420 -576Q382 -571 366 -556Q368 -552 368 -542ZM832 87H830Q808 83 781 74Q732 65 679 61Q672 60 664 59Q655 57 652 50Q654 48 660 48Q666 49 672 49Q678 49 679 43Q675 29 637 23Q624 23 611 22Q588 22 587 29V31Q588 41 601 41Q614 42 624 45Q622 53 611 53Q603 53 595 52Q584 52 573 51Q498 55 423 59V57Q423 46 452 43Q459 42 473 42Q492 43 511 43Q554 43 571 32Q562 21 537 21Q525 22 513 22Q465 22 417 25Q383 27 353 33Q320 40 313 49Q312 54 310 59Q316 65 327 65Q340 64 353 62Q360 62 363 64Q346 74 325 74Q302 78 288 84Q270 93 256 104Q241 115 224 118H220Q196 118 189 102H182Q160 102 144 89Q129 77 129 58Q129 45 138 31V25Q138 5 150 -6Q161 -17 179 -23Q217 -32 250 -46V-45Q246 -39 235 -34Q221 -22 220 -13Q228 -11 244 -11Q259 -11 285 -13Q380 -15 463 -24Q462 -35 460 -47Q453 -48 441 -48Q422 -48 406 -44Q386 -35 368 -30Q362 -30 355 -35Q351 -40 349 -49Q345 -53 336 -57Q322 -63 321 -70Q321 -95 332 -101Q330 -110 328 -119Q344 -140 377 -152L378 -150Q378 -149 375 -146Q371 -142 371 -139V-137Q372 -130 386 -130Q415 -134 444 -139H446Q441 -146 437 -154Q437 -157 442 -159Q435 -164 427 -172Q420 -179 410 -180Q405 -180 403 -179Q405 -185 405 -187Q405 -194 395 -208Q385 -222 385 -231Q385 -239 390 -245H383Q367 -245 343 -236Q346 -229 354 -220Q364 -208 366 -199Q371 -203 378 -205H381Q376 -198 370 -177Q364 -155 357 -146Q349 -146 340 -143Q328 -139 319 -139Q312 -140 303 -145Q293 -151 287 -151Q280 -151 274 -146V-149Q274 -153 278 -155Q282 -157 282 -159Q276 -168 265 -168Q240 -163 220 -149Q224 -160 242 -171Q258 -181 262 -188Q258 -199 253 -208Q229 -204 215 -190Q199 -175 181 -162Q169 -154 154 -154Q137 -154 125 -167Q119 -175 116 -184Q112 -193 104 -199Q89 -204 79 -211Q73 -218 73 -231Q76 -261 94 -274Q94 -297 108 -313Q117 -323 140 -337Q168 -354 178 -355Q173 -347 166 -341Q159 -335 158 -324V-322Q165 -316 184 -316Q206 -317 228 -318Q237 -318 241 -317Q240 -311 222 -307Q200 -303 200 -294V-293Q200 -281 226 -281Q274 -284 328 -294Q395 -300 415 -309Q403 -315 388 -315Q354 -312 320 -309Q298 -309 286 -317Q352 -325 435 -329Q434 -336 427 -336Q418 -334 409 -332H408Q403 -332 396 -338Q390 -343 385 -343H383Q379 -350 379 -358Q379 -373 396 -395Q400 -393 409 -393Q417 -393 433 -395Q435 -403 435 -406H432Q381 -406 357 -363Q349 -365 344 -365Q331 -363 317 -362H312Q301 -363 288 -377Q274 -393 262 -394V-396Q264 -402 266 -409Q247 -457 212 -504Q195 -526 186 -535Q170 -551 153 -557Q154 -561 154 -569Q153 -589 152 -609Q152 -620 153 -625Q160 -634 168 -641Q176 -649 177 -660Q177 -667 171 -675Q165 -683 164 -689Q171 -689 179 -682Q186 -676 190 -676H192Q193 -678 193 -681Q193 -687 185 -697Q174 -711 174 -719V-722Q184 -716 194 -708Q204 -700 217 -699H220Q215 -711 197 -726Q177 -743 173 -757Q183 -754 206 -736Q241 -708 261 -708Q271 -708 280 -713Q294 -703 306 -689Q319 -674 337 -671H341Q366 -675 396 -685Q482 -704 512 -713Q537 -722 560 -726Q563 -725 566 -725Q552 -715 509 -705Q454 -692 439 -671Q444 -667 452 -667Q463 -669 474 -671Q523 -686 571 -701Q659 -724 695 -746Q691 -751 684 -751Q677 -750 669 -750Q663 -750 660 -752Q666 -765 678 -766Q690 -767 704 -770Q716 -774 730 -788Q747 -805 762 -805Q768 -805 771 -804Q778 -803 788 -796Q797 -790 803 -788L822 -792Q823 -771 837 -771Q846 -771 867 -781Q881 -788 886 -789Q880 -782 872 -775Q864 -767 863 -756Q863 -750 866 -743Q875 -747 883 -752Q878 -737 878 -721Q878 -706 883 -699H885Q888 -701 891 -703L893 -702Q883 -634 872 -605Q854 -601 843 -599Q832 -597 822 -585Q825 -582 830 -582Q824 -580 813 -571Q801 -562 793 -560V-564Q793 -573 801 -584Q806 -591 806 -595Q806 -600 802 -605Q781 -603 766 -578Q737 -575 723 -550Q709 -524 695 -497Q671 -463 667 -433V-429Q681 -435 690 -446Q699 -458 706 -470Q721 -494 735 -518Q744 -519 754 -528Q765 -537 774 -538Q748 -499 722 -456Q712 -434 703 -411Q694 -388 677 -371Q665 -373 661 -373Q651 -373 643 -365Q643 -367 645 -371Q642 -372 637 -372Q623 -372 609 -360V-363Q607 -385 592 -392Q576 -400 565 -412Q565 -423 568 -431Q553 -432 538 -433Q516 -433 516 -422V-419Q519 -420 524 -420Q531 -420 544 -413Q552 -409 559 -407L558 -403Q558 -399 565 -392Q569 -388 571 -384Q562 -382 560 -374Q557 -365 554 -356Q543 -356 526 -354Q509 -352 507 -341V-340Q514 -339 528 -339Q549 -339 579 -344Q614 -350 630 -350Q642 -350 648 -349Q645 -345 626 -342Q600 -338 593 -331Q599 -319 616 -319Q621 -319 625 -320Q661 -325 697 -331Q717 -332 735 -334Q753 -335 765 -343Q763 -352 745 -352H727Q719 -352 716 -353Q720 -361 732 -361Q743 -362 754 -363Q808 -370 870 -388L871 -385Q871 -382 866 -377Q860 -371 860 -369Q869 -360 886 -360Q904 -361 921 -362H928Q925 -358 904 -352Q888 -347 887 -335Q888 -331 895 -331Q905 -332 914 -334Q890 -317 890 -303Q890 -301 892 -293Q885 -290 877 -275Q870 -262 860 -260H856Q835 -263 813 -266Q805 -267 791 -267Q760 -266 728 -265Q729 -250 745 -240Q760 -230 780 -230Q777 -226 767 -223Q758 -221 757 -215L756 -211Q757 -201 771 -199Q785 -196 792 -191Q789 -191 785 -192Q770 -192 761 -181Q755 -174 748 -159Q736 -159 728 -154Q725 -146 725 -137V-133Q720 -134 718 -144Q716 -151 714 -154Q679 -161 648 -191Q639 -190 630 -190Q635 -199 642 -206Q635 -215 626 -227Q618 -240 617 -254Q617 -262 621 -269H548L550 -268Q560 -266 572 -254Q583 -243 589 -243Q594 -243 601 -247Q596 -241 596 -230Q599 -212 601 -194Q601 -183 593 -176Q570 -174 568 -162Q565 -162 565 -166Q564 -171 563 -171Q528 -183 506 -224Q506 -227 505 -231Q507 -261 535 -268Q487 -266 460 -256Q467 -243 474 -231Q478 -232 482 -236Q486 -241 490 -241L494 -240Q482 -230 482 -209Q482 -200 485 -193Q490 -190 504 -190H515Q522 -181 532 -174Q541 -167 545 -154H548Q556 -154 564 -155Q571 -155 574 -151Q572 -144 563 -144H556Q552 -144 550 -143Q548 -139 548 -136Q548 -134 551 -125Q571 -126 591 -128Q611 -130 621 -140Q618 -148 608 -148Q598 -148 592 -149Q596 -161 608 -166Q620 -171 633 -175Q630 -172 630 -165Q630 -160 633 -159L635 -158Q642 -160 648 -163L651 -162Q646 -154 643 -144V-142L646 -140Q650 -141 653 -142H655Q647 -135 647 -126Q647 -112 660 -99Q645 -89 642 -67Q625 -66 612 -56Q597 -62 573 -62Q549 -62 541 -53Q539 -38 536 -32Q599 -38 662 -41Q724 -44 781 -59Q785 -64 797 -87Q812 -115 824 -127Q819 -112 812 -96Q805 -80 804 -64Q804 -61 806 -53Q815 -68 827 -102Q841 -143 852 -158Q851 -145 840 -114Q827 -77 827 -55V-46Q833 -53 841 -76Q852 -107 863 -113Q862 -100 855 -83Q846 -59 846 -44V-41Q846 -37 850 -35Q853 -33 854 -32V-27Q854 -13 867 10Q880 33 880 47Q880 51 879 55Q868 83 832 87ZM565 -504Q576 -505 589 -507Q602 -538 632 -590Q654 -629 663 -647H660Q617 -646 585 -633Q552 -621 518 -611Q518 -570 521 -558Q531 -564 541 -587Q551 -612 565 -616Q570 -606 575 -597Q591 -602 607 -608Q613 -605 617 -597Q604 -597 601 -587Q615 -578 615 -576Q615 -564 592 -541Q580 -529 579 -527Q574 -523 565 -504ZM541 -499Q533 -507 527 -509Q523 -510 523 -501Q524 -498 524 -495Q533 -497 541 -499Z"/>
</svg>