<svg xmlns="http://www.w3.org/2000/svg" viewBox="0 -800 1024 1024">
	<path fill="#000000" d="M167 -348V-346H165Q160 -346 156 -350Q151 -355 151 -359Q151 -363 159 -363H160Q165 -358 167 -348ZM571 -648Q514 -648 480 -628Q482 -626 490 -625Q503 -623 506 -617Q508 -620 521 -620Q526 -618 531 -616Q552 -631 571 -648ZM149 -120Q148 -115 143 -114Q138 -114 133 -112Q134 -120 149 -120ZM634 -181H644Q659 -181 666 -180Q666 -189 654 -189Q640 -189 634 -181ZM808 -23V-28Q808 -45 821 -45H825Q822 -29 808 -23ZM537 32V29Q537 19 539 13H509Q459 13 428 37Q440 39 448 39Q493 36 537 32ZM525 -22H543Q550 -36 551 -48Q458 -42 432 -16Q479 -19 525 -22ZM573 -119Q470 -113 435 -73Q498 -84 552 -101L551 -99Q551 -96 559 -93Q565 -91 567 -89Q570 -104 573 -119ZM378 -128H379Q392 -131 405 -135Q465 -149 526 -160Q587 -172 632 -189Q627 -188 618 -188Q602 -188 588 -197Q601 -206 628 -215Q654 -224 664 -230Q652 -230 640 -231Q552 -227 478 -206Q432 -196 388 -188Q345 -180 310 -164Q312 -159 321 -146Q315 -146 315 -137Q323 -140 330 -140Q340 -140 359 -133Q373 -128 378 -128ZM867 -303Q872 -303 877 -303Q887 -303 905 -305Q904 -304 891 -296Q898 -289 906 -283Q916 -285 918 -287L921 -286Q918 -282 915 -279V-278L917 -277Q921 -277 925 -278H927Q926 -277 926 -271Q926 -265 924 -264Q925 -258 933 -256L914 -223H906Q849 -223 794 -206Q762 -196 702 -169Q704 -167 708 -167Q711 -167 720 -171Q731 -176 739 -176Q744 -176 746 -175Q719 -166 719 -157Q719 -152 724 -148Q736 -156 751 -160Q751 -153 735 -137Q737 -125 742 -115Q726 -99 720 -95Q706 -86 688 -85Q700 -107 702 -111Q699 -115 696 -119Q679 -114 667 -99Q660 -90 647 -65Q631 -35 631 -7Q638 -12 649 -33Q665 -63 676 -69Q663 -21 644 21Q689 17 733 12Q776 6 807 -12Q805 -8 805 -5Q805 1 808 5Q812 9 821 9Q829 9 836 8Q843 8 847 11Q840 15 834 20Q837 25 844 25Q856 24 867 22Q872 22 875 23Q860 27 850 35V37Q850 46 862 52Q852 52 851 70Q850 93 846 99Q833 108 823 109Q819 110 814 110Q769 105 724 100Q663 97 603 97Q551 97 492 100Q423 102 321 121Q301 125 273 133Q234 144 222 144Q218 144 212 142Q200 134 184 120Q174 114 166 108Q158 101 157 86V84Q160 63 179 62Q183 47 200 38Q215 30 234 30Q241 30 244 31Q233 35 233 41Q236 52 261 53Q308 49 355 44H358Q351 35 342 3Q329 -42 318 -54Q310 -63 291 -69Q265 -77 258 -90V-97Q258 -107 262 -114Q260 -117 256 -117Q250 -117 244 -114Q229 -115 206 -122Q183 -129 171 -129Q160 -129 151 -125V-126Q151 -128 157 -137Q138 -145 133 -145Q125 -145 119 -138L117 -140Q122 -144 126 -148Q121 -156 112 -156Q104 -155 94 -148Q85 -141 78 -136Q85 -151 101 -163L98 -165L99 -169L98 -171Q95 -176 84 -183Q69 -193 66 -198Q70 -202 70 -208Q70 -210 68 -218L87 -238V-240Q86 -244 84 -249Q100 -243 108 -243H113Q123 -247 132 -252H136Q165 -247 193 -243Q212 -254 215 -255Q198 -280 182 -281Q183 -284 188 -285Q192 -285 193 -287V-291Q193 -304 181 -322Q173 -334 170 -343Q175 -341 192 -326Q188 -340 165 -364Q147 -382 141 -395Q154 -389 174 -362Q195 -334 211 -327Q251 -346 252 -346Q247 -355 240 -362Q244 -372 246 -383Q254 -388 261 -393H264Q279 -394 293 -396Q298 -396 301 -395Q312 -405 323 -415Q277 -404 272 -400Q244 -414 218 -451Q220 -457 220 -468V-484Q228 -493 231 -506Q234 -520 239 -533Q241 -512 248 -502Q289 -505 313 -511Q336 -519 359 -523Q370 -523 377 -517Q379 -519 379 -521Q377 -525 375 -529Q383 -529 384 -534Q373 -539 364 -547Q349 -547 349 -555Q373 -553 404 -544Q430 -563 458 -577Q450 -594 432 -598V-602Q432 -606 433 -609Q425 -604 417 -600Q409 -596 398 -583Q383 -565 370 -565H368Q348 -568 336 -591Q316 -601 313 -603Q301 -611 297 -624Q296 -636 294 -648Q291 -660 280 -668Q264 -680 261 -683Q258 -684 255 -685Q251 -686 251 -690V-691H252Q258 -691 270 -683Q279 -677 287 -675Q285 -683 270 -694Q252 -708 251 -717Q261 -712 270 -704Q280 -696 291 -695Q295 -695 297 -696Q296 -702 285 -706Q274 -710 273 -717Q282 -713 289 -713Q302 -713 320 -728Q333 -738 341 -741Q348 -737 360 -737Q381 -739 401 -741Q419 -741 426 -731Q412 -729 412 -715Q412 -709 414 -706Q420 -705 426 -705Q462 -710 499 -719Q533 -723 562 -726Q590 -729 613 -744Q612 -751 606 -751Q602 -750 597 -749Q560 -744 523 -739Q509 -737 495 -736Q485 -734 481 -734Q476 -734 472 -738Q474 -744 486 -746Q523 -750 560 -755Q578 -760 596 -765Q621 -769 638 -782H662Q680 -782 685 -774Q691 -778 696 -778Q700 -778 702 -775Q718 -785 725 -791V-789Q720 -777 711 -766Q714 -762 717 -759Q723 -763 729 -768L732 -767V-766Q729 -758 725 -750L726 -746L729 -745Q733 -747 737 -749H738Q738 -739 737 -730Q737 -716 742 -710Q735 -703 735 -686Q735 -682 737 -676Q736 -673 732 -671Q732 -664 727 -654Q723 -646 723 -641V-637Q641 -613 596 -576Q602 -570 616 -570H619L618 -566Q618 -561 623 -561L627 -562Q623 -551 619 -549V-548Q622 -543 624 -539Q622 -536 615 -531Q603 -523 602 -517Q622 -523 648 -525H651Q647 -515 632 -513Q616 -510 599 -507Q578 -503 559 -498Q539 -492 527 -480Q529 -475 531 -471Q539 -469 542 -469H544Q585 -486 627 -497Q652 -501 675 -505Q698 -509 712 -521Q709 -529 697 -529Q698 -537 705 -540Q712 -543 719 -546Q749 -562 768 -562Q772 -562 782 -560Q793 -572 809 -576Q806 -573 802 -570Q797 -568 797 -562V-559L801 -558Q805 -560 809 -563Q809 -528 817 -518Q815 -510 815 -506Q819 -485 823 -464Q823 -460 821 -452Q812 -440 798 -436Q783 -433 768 -430Q735 -418 717 -398Q735 -384 758 -381Q782 -377 808 -373Q813 -392 820 -412Q823 -406 823 -393Q823 -377 826 -373Q828 -373 828 -378Q827 -386 826 -394Q826 -402 831 -403Q831 -377 839 -358Q865 -343 867 -303ZM739 -302Q711 -316 675 -333Q653 -343 648 -343Q641 -343 628 -335Q586 -304 555 -286Q563 -286 566 -287Q603 -294 679 -298L680 -300Q710 -304 739 -302ZM536 -279Q506 -287 503 -306Q500 -324 498 -341Q503 -352 508 -365Q514 -378 528 -379H529Q527 -371 525 -364L526 -361Q539 -362 569 -373Q602 -385 607 -392Q605 -400 605 -404Q606 -411 606 -418H608Q613 -420 618 -423Q621 -424 626 -424Q629 -424 649 -419Q662 -428 666 -437Q606 -429 574 -413Q557 -402 545 -398Q536 -402 526 -406Q513 -411 502 -416Q490 -422 489 -433Q490 -435 490 -438Q479 -439 479 -458Q479 -464 480 -466Q480 -468 476 -470Q473 -471 472 -474Q477 -476 484 -483Q494 -494 503 -494Q506 -494 512 -492Q520 -499 533 -502Q546 -505 555 -508H554Q546 -510 539 -515Q531 -517 527 -517Q515 -516 505 -509Q495 -501 483 -492Q471 -484 467 -481Q457 -474 456 -468V-465Q460 -449 464 -433L463 -429Q463 -428 459 -424Q454 -420 454 -416V-415H447Q438 -415 424 -409V-413Q424 -421 428 -424Q431 -426 438 -427Q437 -445 426 -445Q414 -445 388 -419Q365 -398 365 -387Q365 -386 367 -382Q422 -393 431 -393Q436 -393 438 -392Q434 -386 424 -379Q411 -370 409 -364H422Q421 -360 420 -357L422 -354Q426 -354 431 -360Q436 -366 443 -366H445Q442 -361 437 -358Q432 -354 431 -346Q433 -342 438 -342H445Q449 -342 451 -340Q448 -334 445 -328Q448 -317 476 -306Q464 -301 451 -294Q437 -287 436 -272V-270Q431 -273 425 -276H414Q382 -276 337 -291Q332 -293 321 -300Q309 -308 301 -308Q297 -308 292 -305Q269 -289 269 -254Q256 -247 224 -242Q220 -248 216 -254Q209 -249 209 -242Q209 -236 218 -233L224 -241Q227 -234 230 -227Q236 -226 241 -226Q262 -226 318 -243Q366 -258 385 -259Q427 -265 466 -268Q477 -268 483 -267Q477 -258 464 -255Q450 -253 437 -252Q423 -250 411 -248Q398 -245 391 -236Q432 -237 511 -251Q577 -263 602 -265Q598 -278 579 -278Q559 -275 538 -273Q535 -273 532 -274Q534 -278 536 -279Z"/>
</svg>