<svg xmlns="http://www.w3.org/2000/svg" viewBox="0 -800 1024 1024">
	<path fill="#000000" d="M850 -61Q839 -52 822 -43Q820 -46 820 -50Q822 -63 839 -64Q846 -64 850 -61ZM911 -649V-647Q913 -641 914 -636Q898 -634 882 -632Q886 -650 903 -650Q908 -650 911 -649ZM505 -38V-39Q503 -43 500 -47H494Q461 -43 438 -39Q422 -39 412 -52Q407 -39 407 -35Q407 -32 409 -28H439Q486 -28 505 -38ZM505 -112V-115Q503 -116 500 -116Q489 -114 477 -112H475Q464 -120 450 -127Q436 -133 431 -148Q439 -172 499 -172Q494 -185 479 -185Q452 -180 430 -175H428Q423 -167 423 -152Q423 -144 425 -141Q419 -139 419 -136Q416 -116 413 -97Q413 -93 415 -85Q437 -96 503 -100Q505 -108 505 -112ZM284 -383H289Q267 -364 244 -345Q227 -331 222 -326Q212 -315 209 -302Q223 -309 277 -352Q294 -364 312 -377Q330 -389 343 -406Q338 -411 335 -411Q331 -411 322 -405Q315 -400 311 -400Q308 -400 305 -403Q305 -409 313 -418Q318 -424 318 -426L317 -428H316Q286 -417 255 -406Q230 -398 209 -393Q188 -387 181 -368Q147 -353 145 -309V-301Q148 -304 154 -313Q161 -325 166 -326V-319Q166 -314 167 -313Q189 -321 228 -352Q240 -362 254 -372Q268 -382 284 -383ZM823 76V77L820 76Q815 76 813 83Q799 81 796 81Q791 81 782 84Q747 79 712 74H710Q703 75 695 75Q688 75 684 71Q686 66 702 61Q719 56 723 50Q706 38 674 38Q647 40 619 41H607Q565 40 522 38Q475 38 450 52Q460 62 482 62Q484 62 520 59Q571 56 572 56Q602 56 622 66Q601 75 553 75Q520 75 486 74Q443 74 425 81Q418 87 410 88Q399 97 391 111Q383 125 369 128H368Q360 128 347 121Q332 113 325 113Q322 113 316 115Q303 102 286 91Q270 80 268 61V57Q259 42 258 37Q252 35 249 35H246Q250 33 256 31Q283 -14 293 -47Q294 -54 296 -61Q299 -68 308 -69Q304 -39 299 -9V-1Q308 -3 315 -14Q322 -25 329 -32Q328 -35 328 -42Q328 -52 335 -76Q341 -96 341 -106Q341 -123 324 -130Q320 -128 316 -118Q313 -109 310 -109Q305 -109 305 -114Q306 -119 307 -124Q303 -143 298 -163Q281 -176 271 -188Q254 -182 243 -163Q231 -143 218 -127Q197 -104 175 -104H170Q165 -105 159 -112Q152 -120 145 -121Q139 -118 133 -116Q136 -122 139 -129Q124 -142 110 -156Q96 -171 78 -181Q77 -187 77 -199Q77 -200 81 -248Q103 -271 118 -302Q134 -332 152 -361Q139 -369 134 -369Q132 -369 128 -367Q114 -373 104 -402Q97 -424 90 -431Q94 -439 99 -445Q96 -451 87 -454Q103 -470 107 -500Q118 -509 129 -518Q140 -527 157 -530Q159 -537 175 -555Q190 -572 191 -584V-588Q187 -613 172 -635Q166 -636 160 -637Q157 -637 155 -636Q161 -649 177 -658Q194 -666 210 -677Q220 -686 231 -697Q243 -708 258 -709Q265 -709 268 -708Q281 -704 299 -676Q314 -653 324 -647Q319 -639 319 -624Q319 -609 324 -599Q318 -590 311 -575Q371 -581 422 -596Q423 -602 423 -609Q423 -635 410 -655Q399 -664 388 -674V-680Q380 -690 371 -700Q363 -710 357 -727Q355 -737 355 -741Q356 -761 375 -769Q395 -778 419 -785Q458 -800 480 -800H489Q504 -798 516 -790Q530 -781 530 -769Q530 -763 526 -759Q522 -760 512 -768Q501 -777 495 -777Q487 -777 481 -768Q482 -758 493 -736Q503 -716 505 -702Q507 -688 508 -674Q509 -660 517 -649Q530 -685 533 -728V-736L545 -742Q552 -736 555 -728Q541 -708 539 -677Q537 -645 536 -611Q580 -617 625 -620Q622 -637 617 -652Q616 -655 616 -660Q619 -680 621 -701Q621 -713 617 -722Q621 -718 625 -709Q631 -696 637 -693Q642 -700 644 -710L675 -689Q677 -689 681 -695Q684 -699 686 -699L688 -698Q690 -691 691 -685Q729 -669 752 -655Q757 -657 764 -665Q774 -677 785 -677Q772 -664 769 -641V-638Q777 -630 783 -619Q790 -625 797 -632H798Q793 -624 793 -618Q793 -603 807 -598Q816 -600 832 -610Q852 -622 868 -623Q851 -613 839 -599Q825 -582 825 -566Q825 -548 844 -535Q887 -538 929 -541Q910 -535 893 -531Q876 -528 860 -515Q861 -509 865 -499Q881 -493 902 -493Q871 -489 867 -468Q867 -455 888 -454Q876 -452 866 -443Q863 -440 852 -424Q835 -398 818 -398Q812 -398 803 -401Q797 -400 797 -389V-383Q787 -396 761 -416Q737 -434 727 -446Q710 -470 688 -496Q664 -494 655 -494Q641 -494 632 -499Q649 -505 664 -515Q660 -527 630 -527Q608 -527 591 -521Q572 -514 572 -504V-502Q573 -495 585 -494Q598 -492 600 -484Q575 -482 561 -478V-467Q561 -459 563 -455Q557 -435 545 -423Q534 -412 512 -401Q452 -371 428 -348Q380 -304 360 -273Q365 -269 373 -269Q401 -274 429 -286Q468 -295 495 -296Q499 -309 503 -323Q492 -337 492 -354Q492 -382 512 -394Q528 -404 557 -404Q574 -404 584 -398Q596 -384 601 -368Q618 -343 619 -335Q639 -342 658 -346Q664 -346 670 -343Q725 -359 755 -361Q753 -358 748 -355Q741 -350 739 -345Q749 -343 753 -343Q772 -346 791 -349Q786 -344 773 -340Q760 -336 758 -325V-324Q761 -317 764 -311H782Q760 -299 758 -280Q759 -277 763 -277Q767 -277 776 -280Q753 -259 753 -233Q753 -227 754 -223Q724 -220 723 -220Q711 -220 703 -226Q716 -231 729 -236Q725 -247 700 -247H690Q647 -247 623 -236Q625 -230 637 -230Q649 -230 661 -231Q678 -231 680 -220Q633 -215 589 -208Q594 -197 600 -194Q612 -202 628 -202Q641 -202 644 -193Q661 -195 678 -197Q666 -194 666 -180Q666 -173 671 -169Q653 -165 643 -148Q612 -142 606 -140Q587 -134 581 -121Q585 -116 592 -116Q604 -118 616 -121Q636 -125 647 -125Q657 -125 664 -122Q682 -132 703 -132Q693 -131 693 -122Q693 -115 701 -115Q705 -115 707 -116Q702 -113 702 -104Q702 -95 708 -92Q699 -88 695 -79Q690 -71 684 -64H653Q595 -64 575 -52Q575 -46 573 -38Q588 -34 606 -34Q640 -36 674 -38H684Q698 -40 711 -43Q737 -42 757 -47Q760 -68 769 -83Q773 -80 773 -74Q772 -63 770 -53Q770 -45 776 -43H783Q795 -43 807 -44Q798 -41 798 -32Q798 -22 806 -16H808Q814 -18 819 -20Q816 -14 816 -9Q816 2 828 9Q825 15 825 20Q825 26 830 35Q837 48 837 56V60Q834 64 829 67Q824 69 823 76Z"/>
</svg>