<svg xmlns="http://www.w3.org/2000/svg" viewBox="0 -800 1024 1024">
	<path fill="#000000" d="M905 -723H904Q901 -724 897 -725Q906 -741 909 -743Q912 -740 914 -737Q910 -730 905 -723ZM60 -363Q53 -351 43 -344Q40 -347 40 -352Q41 -364 53 -366Q57 -366 60 -363ZM917 -381Q914 -373 911 -364Q908 -354 900 -350Q900 -382 912 -382Q915 -382 917 -381ZM446 40Q443 48 434 51Q426 53 418 55Q416 51 416 49Q416 38 434 38Q440 38 446 40ZM794 -332H796Q794 -327 787 -320Q776 -309 775 -299Q773 -266 760 -257Q750 -250 737 -250Q722 -250 698 -261Q680 -269 661 -278Q652 -285 642 -294Q632 -304 619 -308Q611 -339 597 -368H600Q613 -365 626 -363Q647 -387 684 -388Q717 -388 730 -366Q734 -367 738 -369H739Q741 -363 742 -358V-356Q745 -355 750 -355Q761 -355 772 -363Q774 -365 788 -377Q787 -371 777 -358Q764 -342 764 -333Q764 -327 769 -320Q773 -321 779 -326Q786 -332 794 -332ZM769 48V53Q772 63 775 73Q766 96 738 108Q736 109 731 109Q716 107 701 105H698Q685 89 679 85Q666 75 649 75V69Q649 51 638 42Q630 36 613 33H593Q559 34 524 34H508Q501 36 494 38Q491 38 489 36Q498 20 535 20Q559 21 583 22Q593 22 597 21Q577 5 515 5Q498 5 468 7Q435 10 394 24Q371 33 367 52Q373 58 378 58Q391 54 408 50H409V52Q408 58 407 63Q338 80 292 115V114Q292 107 282 102Q274 98 265 98H262Q226 83 226 40Q226 30 227 25Q227 24 222 23Q219 22 219 19V18Q225 9 227 -15Q229 -43 239 -50Q247 -51 255 -53Q272 -59 292 -91Q315 -128 338 -132L341 -133Q342 -133 346 -129Q349 -131 353 -137Q358 -146 365 -146H367Q365 -138 365 -135Q370 -113 375 -95Q375 -91 370 -82Q366 -74 366 -68H381Q439 -68 461 -80Q464 -89 464 -102Q464 -139 447 -146Q441 -141 441 -133Q444 -116 446 -100Q446 -92 443 -88Q434 -98 427 -126Q420 -153 413 -162Q419 -172 419 -183Q419 -196 412 -212L441 -228Q431 -243 408 -243H403Q376 -230 360 -203Q344 -195 319 -167Q295 -140 280 -134Q286 -154 310 -177Q335 -201 343 -217Q313 -203 280 -176Q275 -172 225 -126Q211 -114 209 -111Q200 -101 200 -91Q201 -88 201 -85Q213 -87 227 -97Q244 -108 253 -110Q233 -83 205 -65Q173 -46 157 -12Q152 -10 136 -5Q119 -18 96 -27Q93 -58 69 -65Q70 -68 79 -69Q85 -70 87 -72V-77Q84 -94 81 -111Q81 -119 87 -123V-124Q87 -127 83 -129Q78 -132 78 -136V-137Q84 -138 89 -140Q86 -163 69 -198Q56 -224 52 -239Q62 -228 75 -207Q95 -174 110 -164Q151 -172 181 -192Q211 -211 242 -231Q239 -234 216 -249H214Q208 -247 202 -245H200L199 -248Q199 -251 203 -255Q210 -262 210 -266Q199 -290 187 -306Q196 -304 204 -300Q218 -327 242 -327Q248 -327 252 -326Q269 -321 283 -303Q296 -286 307 -276Q321 -286 331 -289Q325 -295 320 -319Q317 -333 313 -341Q321 -353 321 -364Q321 -368 320 -372Q335 -368 352 -368Q358 -366 371 -356Q386 -344 396 -344V-345Q396 -347 389 -350Q383 -353 381 -356Q374 -376 360 -389Q363 -396 363 -404Q361 -418 355 -437Q322 -429 298 -402Q300 -387 301 -373Q301 -370 299 -362Q295 -357 289 -353Q284 -349 283 -341Q255 -339 236 -330Q187 -345 161 -349Q154 -367 136 -377Q122 -374 114 -363Q114 -366 119 -373Q125 -382 126 -387Q120 -394 113 -402Q100 -401 86 -388Q74 -376 63 -374Q67 -382 79 -395Q94 -411 98 -424Q90 -438 78 -447Q70 -445 61 -443H57Q57 -447 63 -450Q69 -454 69 -458V-459Q66 -468 57 -477V-488Q52 -503 46 -519Q52 -525 55 -534Q59 -542 67 -546Q67 -552 63 -557Q58 -564 58 -569Q66 -568 72 -564Q78 -560 81 -560Q87 -561 96 -572Q106 -584 113 -585Q113 -595 105 -608Q99 -619 98 -628Q109 -619 118 -608Q127 -597 141 -590H145Q160 -588 178 -578Q184 -581 190 -595Q196 -609 203 -612V-609Q203 -604 198 -593Q193 -582 193 -575Q194 -572 194 -570Q197 -561 204 -557Q211 -553 218 -548Q244 -555 299 -565Q380 -580 415 -593Q413 -612 410 -631Q407 -650 388 -653L389 -657Q389 -663 381 -671Q369 -670 353 -657Q342 -648 336 -647Q341 -655 355 -670Q369 -685 375 -695Q372 -698 368 -698Q358 -695 347 -692H346Q356 -703 364 -714Q372 -726 384 -734V-739Q385 -755 395 -762Q405 -769 413 -779Q425 -781 442 -795Q459 -809 474 -809H478Q489 -806 498 -798Q524 -787 549 -773Q554 -766 569 -754Q581 -744 587 -737V-729Q586 -704 585 -680V-672Q568 -655 564 -631Q607 -637 646 -648Q734 -662 741 -664Q795 -676 823 -697Q834 -694 842 -694Q861 -695 880 -697Q885 -701 887 -707Q888 -713 896 -714H897Q896 -708 886 -691Q893 -671 900 -662Q913 -667 926 -672Q917 -666 917 -651Q917 -640 923 -633Q945 -640 963 -644H967Q933 -625 933 -613Q933 -606 948 -603L949 -601Q949 -599 944 -595Q937 -589 935 -585Q933 -577 933 -573Q933 -562 939 -546Q925 -536 923 -515Q918 -510 891 -506Q856 -499 804 -458Q807 -472 825 -487Q837 -497 841 -504Q836 -509 829 -509Q814 -509 790 -490Q753 -461 751 -431Q756 -432 762 -437Q771 -444 776 -444Q780 -444 782 -443Q777 -432 761 -418Q749 -408 745 -401Q740 -406 734 -406Q723 -406 703 -389V-390Q703 -406 675 -406Q662 -406 655 -401V-404Q659 -414 667 -424Q663 -434 655 -434Q648 -434 637 -425Q640 -440 646 -450Q643 -454 638 -454Q623 -452 619 -441Q618 -443 618 -446Q619 -456 627 -463Q635 -471 640 -480Q645 -496 652 -510Q661 -521 673 -529Q685 -537 695 -545Q687 -545 679 -546Q654 -546 611 -535Q574 -525 551 -524Q571 -535 620 -546Q664 -556 686 -566Q680 -571 666 -571Q654 -570 641 -570Q582 -563 510 -540Q473 -531 442 -522Q411 -513 394 -491Q399 -485 408 -485Q426 -488 437 -493Q454 -498 483 -503Q475 -493 463 -489Q452 -486 440 -480Q441 -475 447 -468Q457 -457 458 -450H459Q464 -452 468 -454L472 -453Q460 -428 457 -400Q457 -396 459 -384Q472 -393 491 -409Q510 -424 512 -442Q512 -451 504 -459Q498 -457 492 -455H489Q495 -471 501 -487Q507 -503 521 -510H523Q528 -508 532 -507Q546 -513 564 -513H572Q589 -507 597 -491Q605 -475 614 -461Q615 -455 615 -450Q613 -408 582 -390Q565 -385 549 -377Q526 -359 498 -333Q474 -316 474 -312Q474 -308 504 -293Q528 -281 545 -275Q553 -273 561 -272Q603 -257 651 -241Q699 -224 756 -223Q771 -223 779 -224Q814 -228 830 -247Q846 -267 862 -290V-288Q859 -269 856 -251V-245Q880 -306 899 -333Q878 -253 877 -223Q886 -238 891 -258Q900 -285 908 -290V-285Q904 -254 899 -223V-217Q901 -207 903 -197V-194Q903 -187 902 -180V-177Q909 -152 912 -128Q912 -124 911 -120Q905 -112 898 -102Q891 -92 881 -89H877Q864 -89 832 -98Q808 -102 703 -132Q707 -136 718 -136Q729 -135 739 -135H743Q737 -154 714 -161Q692 -168 665 -174Q617 -186 602 -186Q594 -186 590 -185Q599 -171 633 -160Q665 -149 675 -138Q636 -145 604 -161Q572 -176 542 -188Q546 -170 555 -159Q554 -148 542 -128Q530 -107 530 -93Q530 -90 532 -80Q546 -82 551 -82H564Q570 -82 573 -93Q576 -99 578 -105Q577 -110 575 -115V-116Q581 -130 584 -143Q610 -137 635 -132Q642 -122 662 -110Q680 -99 686 -92L688 -91Q692 -92 696 -93H698Q695 -88 692 -83Q695 -77 705 -68Q711 -62 715 -57Q723 -59 732 -69Q743 -82 754 -83Q749 -74 742 -67Q735 -59 734 -48Q735 -45 735 -42Q737 -37 745 -28Q751 -22 754 -17Q761 -19 767 -32Q773 -47 782 -48Q778 -35 772 -22Q767 -10 766 7Q774 -2 787 -6Q773 17 769 48Z"/>
</svg>