<svg xmlns="http://www.w3.org/2000/svg" viewBox="0 -800 1024 1024">
	<path fill="#000000" d="M585 -163Q577 -163 577 -176Q577 -188 585 -190Q587 -189 587 -183Q586 -173 585 -163ZM623 -622H620Q610 -622 602 -630Q602 -639 608 -639Q620 -636 623 -623ZM351 -706Q339 -693 323 -689Q319 -689 317 -690Q325 -707 345 -707Q348 -706 351 -706ZM368 -405Q362 -405 359 -402Q355 -408 332 -424Q313 -438 308 -451Q303 -466 303 -477Q303 -488 313 -501Q321 -511 323 -517Q355 -535 376 -535Q387 -535 395 -531Q398 -522 411 -513Q419 -519 432 -522Q431 -519 426 -510Q421 -502 421 -495Q421 -491 422 -488L423 -487Q424 -489 429 -492L431 -491Q430 -477 425 -468Q430 -456 430 -447Q430 -428 418 -415Q405 -401 387 -401Q376 -401 368 -405ZM633 -444H630Q625 -444 617 -436Q577 -425 558 -417Q527 -403 516 -381Q513 -380 510 -380Q495 -384 484 -388Q478 -388 472 -382Q473 -384 473 -388Q473 -394 469 -397H467Q462 -396 456 -395L454 -396L453 -400Q455 -405 457 -411L456 -412H455Q452 -412 446 -407Q439 -401 435 -401L431 -402Q466 -468 512 -529Q506 -554 496 -576Q514 -601 563 -601Q580 -601 598 -598Q599 -594 608 -589Q618 -583 621 -577Q627 -561 633 -532Q643 -494 643 -479Q643 -458 633 -444ZM733 -238V-234Q723 -231 714 -231Q690 -233 683 -257Q675 -280 663 -298Q670 -305 670 -315Q670 -327 659 -340Q645 -340 633 -343Q636 -347 646 -350Q655 -352 657 -354Q653 -353 644 -353Q633 -353 621 -354Q611 -354 605 -353Q614 -362 626 -366Q638 -369 650 -373Q668 -380 702 -402Q748 -433 779 -439Q770 -430 750 -418Q722 -401 713 -387L715 -384H718Q745 -388 770 -406Q812 -432 829 -454Q827 -456 823 -456Q817 -455 810 -454H808Q839 -486 898 -502V-500Q898 -497 897 -495Q900 -496 907 -504Q917 -516 925 -517H928L927 -516Q915 -493 913 -460Q911 -426 907 -394Q890 -381 851 -340Q822 -325 800 -302Q777 -279 756 -256Q754 -248 752 -240Q749 -244 748 -244Q744 -242 740 -241L737 -243Q733 -243 733 -238ZM936 -642V-640Q933 -617 922 -598Q839 -568 761 -477Q737 -484 729 -488Q711 -497 707 -513Q699 -516 696 -526Q693 -525 689 -520Q684 -515 679 -514L678 -518Q680 -523 682 -528Q670 -553 660 -570Q653 -576 650 -584V-586H653Q659 -584 665 -582H666Q671 -585 672 -589Q667 -597 653 -604Q636 -613 632 -622Q640 -622 651 -616Q662 -610 668 -610H670Q685 -611 711 -639Q738 -668 752 -670Q750 -661 738 -650Q723 -636 723 -627Q723 -623 724 -621Q745 -639 769 -654Q793 -670 798 -699Q796 -699 793 -700Q783 -697 774 -691Q784 -720 795 -747Q804 -748 820 -758Q838 -769 849 -769Q851 -769 859 -767Q868 -769 876 -771Q881 -771 882 -765H884Q887 -766 890 -767H892Q906 -757 913 -738Q926 -718 931 -690V-688Q931 -684 930 -681Q932 -676 934 -671Q931 -671 931 -666Q934 -654 936 -642ZM756 -15L740 0Q718 20 703 24Q702 22 702 19Q702 15 707 10Q711 6 711 3L710 -1Q708 -1 705 -2Q692 -2 681 8Q668 19 668 33Q668 37 669 39Q680 36 691 32L694 33Q693 45 685 53Q677 61 670 69Q646 95 642 101Q619 90 591 84Q590 70 576 54H575Q571 56 566 58L564 57Q568 34 571 19Q571 14 570 11Q569 6 562 -1Q556 -7 555 -12V-17Q558 -32 561 -48Q561 -52 559 -58Q563 -59 570 -66Q579 -136 585 -152Q590 -149 590 -145Q588 -136 586 -127Q586 -120 585 -113Q585 -97 591 -90Q595 -111 595 -146Q595 -172 594 -184Q592 -214 592 -227Q592 -248 598 -256Q603 -239 604 -191Q605 -149 610 -129Q612 -131 612 -139V-150Q612 -160 617 -163Q622 -118 636 -108Q679 -126 752 -179Q808 -220 841 -237Q846 -246 863 -258Q885 -273 889 -288Q903 -295 910 -308Q918 -321 925 -334H930Q927 -313 927 -309Q927 -297 934 -293Q936 -292 939 -292Q946 -292 952 -294Q950 -282 950 -276Q952 -257 953 -238Q943 -174 901 -139Q868 -116 835 -89Q825 -79 816 -69Q806 -59 794 -55Q797 -72 810 -82Q823 -92 835 -102Q851 -115 867 -127Q883 -139 891 -159Q864 -151 844 -133Q823 -115 803 -97Q782 -80 760 -63Q738 -46 724 -21Q726 -18 727 -16V-15Q737 -16 749 -25Q759 -33 767 -34L768 -30Q768 -24 756 -15ZM519 -615H516Q514 -615 514 -611V-609Q511 -610 504 -610Q481 -610 462 -597Q422 -595 378 -570Q350 -554 308 -520Q293 -508 279 -498Q265 -487 256 -474Q266 -461 277 -444Q288 -427 293 -405Q294 -402 294 -394V-382Q300 -371 302 -359Q302 -327 257 -310Q218 -317 170 -351H168Q164 -350 160 -349H158Q157 -366 148 -374Q140 -382 131 -390Q119 -387 117 -387H114Q115 -394 121 -395Q127 -397 131 -400Q128 -428 105 -456Q118 -453 131 -451Q140 -451 146 -456V-457Q143 -464 139 -468L140 -469Q148 -466 154 -466Q162 -466 180 -477Q194 -486 205 -488Q192 -508 188 -519L185 -520Q177 -518 169 -516Q166 -516 164 -517Q177 -525 186 -534Q185 -544 172 -544Q161 -544 149 -538L148 -540Q149 -544 159 -548Q169 -552 175 -555Q172 -573 156 -573Q137 -570 117 -564Q127 -573 141 -578Q155 -583 167 -589Q163 -602 145 -602Q122 -599 98 -596Q87 -596 82 -601Q117 -607 185 -637Q236 -660 266 -667Q264 -660 247 -651Q229 -642 229 -634Q229 -630 232 -624Q303 -650 382 -695Q407 -710 412 -714Q426 -726 432 -741Q419 -738 394 -726Q374 -716 364 -714Q366 -723 376 -729Q386 -734 394 -738L429 -757H431L435 -756Q439 -760 445 -762Q448 -782 457 -796Q470 -800 500 -802Q510 -803 519 -804Q524 -804 528 -801Q541 -793 547 -779Q552 -765 562 -747Q567 -747 572 -748L576 -747Q572 -739 568 -732V-727Q569 -702 570 -678Q570 -642 555 -630Q551 -628 546 -627Q537 -617 519 -615ZM437 45H434Q425 44 415 43Q407 43 404 51Q390 46 381 22Q371 -5 361 -11L365 -20Q362 -27 355 -27H353Q356 -34 365 -36Q368 -60 371 -84V-94Q297 -41 240 72Q236 69 229 69Q218 70 207 71H204Q182 54 163 36V30Q163 6 143 -4Q143 -8 149 -10Q154 -11 154 -14Q138 -32 100 -36Q101 -41 108 -41Q115 -40 121 -39Q172 -40 208 -60Q244 -79 272 -108Q312 -152 352 -190Q328 -187 257 -150Q233 -138 210 -127Q186 -117 169 -102Q161 -93 154 -83Q146 -73 136 -70Q132 -69 128 -69Q113 -69 95 -84Q77 -99 65 -100Q43 -120 43 -148Q43 -163 52 -178Q45 -199 42 -219Q42 -227 47 -237Q51 -242 64 -251Q74 -257 78 -261Q91 -274 101 -291Q110 -307 124 -310V-307Q124 -301 116 -294Q110 -289 109 -285Q113 -274 127 -274H133Q146 -275 177 -284Q216 -295 236 -295Q243 -295 247 -294Q228 -285 198 -278Q168 -271 152 -253Q155 -247 160 -244Q212 -259 264 -273Q317 -287 364 -307Q358 -313 347 -313Q325 -310 303 -307H299V-308Q299 -310 302 -312Q305 -314 305 -318Q335 -323 367 -327Q366 -335 365 -347Q363 -360 353 -362Q376 -395 420 -395Q432 -395 438 -394Q448 -381 451 -376Q457 -366 457 -353Q489 -355 540 -374Q580 -389 605 -393Q599 -388 594 -382Q588 -377 588 -369Q588 -365 589 -363L590 -362Q595 -362 595 -366Q597 -365 597 -362Q594 -359 591 -356Q595 -338 601 -331Q595 -323 595 -314Q595 -309 598 -303Q589 -294 589 -286Q589 -283 591 -279Q585 -278 577 -268Q571 -260 564 -258Q562 -257 556 -257Q550 -257 547 -256Q521 -248 494 -240H493Q504 -229 515 -219Q521 -225 527 -225H530L531 -222Q529 -217 526 -215L527 -213Q533 -215 543 -222Q557 -232 563 -232Q566 -232 568 -231Q561 -219 551 -212Q541 -205 540 -189V-184H542Q548 -186 553 -189Q547 -183 547 -173Q547 -162 556 -162H559L560 -158Q558 -153 553 -149Q555 -143 555 -139Q552 -123 549 -108Q549 -101 553 -96H550Q547 -98 543 -100Q531 -87 516 -87Q485 -92 459 -108Q458 -106 458 -101Q459 -94 459 -87Q459 -82 456 -78Q450 -81 449 -103Q447 -126 440 -127Q436 -127 433 -119Q429 -112 429 -106Q430 -87 431 -69V-60Q431 -11 451 -6Q456 -11 456 -21Q455 -34 453 -48V-51Q467 -38 469 -8V-6Q460 26 437 45Z"/>
</svg>