<svg xmlns="http://www.w3.org/2000/svg" viewBox="0 -800 1024 1024">
	<path fill="#000000" d="M883 -433Q879 -428 876 -422Q872 -416 866 -413Q864 -419 864 -421Q866 -434 876 -435Q881 -435 883 -433ZM704 -332H723Q720 -345 705 -345Q699 -345 696 -344Q700 -338 704 -332ZM819 -217Q808 -208 797 -199Q796 -200 796 -204Q796 -210 801 -218Q806 -225 811 -225Q816 -225 819 -217ZM695 -405V-412Q691 -415 686 -415Q674 -414 672 -402Q672 -396 676 -392Q685 -393 693 -395Q695 -397 695 -405ZM677 -472H692Q694 -488 695 -505Q677 -505 677 -476ZM711 -244V-245Q681 -240 666 -217Q670 -216 688 -212Q690 -217 701 -229Q711 -240 711 -244ZM887 -275Q887 -290 857 -290Q836 -290 828 -281Q850 -275 870 -273Q881 -273 887 -275ZM655 -106H690Q712 -106 722 -107Q709 -131 681 -134Q658 -134 655 -106ZM619 -100H625Q622 -107 614 -110Q606 -114 598 -118Q598 -122 596 -130Q572 -142 556 -142Q548 -142 542 -139Q538 -119 538 -106V-98Q552 -96 558 -96Q589 -98 619 -100ZM599 -190V-194Q594 -197 589 -200Q595 -208 603 -214H598Q547 -214 547 -164Q547 -156 548 -151Q569 -153 589 -153Q608 -153 622 -163Q620 -166 608 -174Q599 -180 599 -190ZM571 -298H574Q597 -298 648 -319Q643 -324 631 -326Q616 -329 610 -334Q610 -341 603 -355Q597 -367 596 -374V-380Q600 -411 606 -449V-473Q606 -489 608 -497H605Q580 -490 580 -443Q580 -429 584 -413Q571 -377 571 -317ZM954 48V52Q948 50 947 50Q940 50 931 57Q923 63 919 64H917Q899 60 880 56Q859 55 843 46Q845 38 862 38H872Q881 38 884 37Q882 25 863 18Q845 11 824 11Q799 11 787 20Q789 30 798 32Q809 35 819 38V40Q820 43 821 46V48Q791 46 777 46Q698 50 618 53Q595 53 584 52Q608 38 677 33Q729 29 750 22Q746 4 708 4Q691 4 676 7Q639 12 591 14Q540 16 522 44Q527 55 543 53Q558 52 563 62Q544 65 519 77Q490 92 471 93Q467 83 457 76Q447 69 440 61Q424 32 417 -20Q409 -25 400 -31Q401 -34 408 -38Q413 -41 415 -44Q414 -56 409 -65Q470 -103 482 -188Q476 -186 464 -186Q444 -186 436 -200L437 -204Q437 -210 429 -218Q422 -225 421 -230Q420 -233 420 -238Q420 -264 452 -287Q461 -281 474 -281Q485 -281 491 -283Q499 -292 499 -308Q498 -321 497 -335Q499 -355 500 -376Q498 -393 495 -411Q495 -420 500 -426Q494 -438 494 -456V-463Q475 -478 454 -488Q447 -510 440 -533Q419 -509 396 -485Q374 -461 354 -431Q344 -418 335 -403Q325 -388 322 -367Q299 -355 291 -320Q295 -318 298 -318Q310 -321 321 -325Q325 -306 348 -282Q372 -257 374 -239V-232Q374 -213 365 -173Q355 -137 352 -93Q353 -85 353 -77Q341 -84 340 -101Q338 -117 334 -131Q324 -127 324 -103V-43Q324 2 338 14Q346 -5 351 -29Q359 -11 359 2Q359 26 344 51Q342 54 316 90Q308 81 286 68Q264 55 255 46Q253 34 241 14V8L242 4Q233 -11 221 -26Q225 -30 230 -31Q225 -41 215 -48Q204 -54 200 -62Q202 -64 206 -64Q220 -61 234 -58H235Q253 -119 253 -194Q253 -209 251 -239Q196 -162 169 -80Q161 -82 156 -82Q127 -80 119 -55Q114 -70 98 -76Q83 -83 67 -83Q57 -91 53 -103Q50 -116 47 -128Q36 -155 33 -187V-193Q41 -232 51 -272Q59 -310 60 -314Q66 -335 76 -344Q73 -305 73 -287Q73 -265 76 -256Q82 -260 82 -272V-291Q82 -303 85 -307Q90 -295 95 -284Q146 -358 197 -433Q200 -437 202 -442Q204 -448 210 -449L214 -448V-446Q214 -438 202 -416Q188 -395 173 -372Q158 -349 153 -319Q166 -328 192 -365Q255 -449 295 -527Q290 -535 282 -539Q269 -537 258 -518Q249 -504 244 -502Q241 -505 241 -507Q241 -515 251 -520Q258 -534 258 -548Q258 -570 241 -585Q225 -599 200 -601Q208 -606 233 -607Q250 -608 258 -610Q258 -615 247 -615Q237 -615 236 -620Q260 -630 283 -641Q296 -650 310 -661Q324 -671 342 -672Q349 -672 353 -671Q359 -670 369 -659Q375 -652 381 -649Q386 -646 399 -643Q412 -640 418 -634Q423 -617 428 -601Q438 -644 443 -655Q454 -682 476 -691Q471 -686 471 -674Q471 -671 473 -665Q480 -666 499 -675Q523 -686 536 -686H538Q533 -676 514 -666Q497 -657 492 -649Q499 -642 509 -642Q535 -647 562 -662Q649 -694 731 -721Q726 -728 716 -733Q680 -732 654 -722Q629 -712 601 -704V-706Q601 -719 616 -725Q640 -734 643 -737Q654 -746 668 -758Q683 -769 701 -770Q708 -770 711 -769Q718 -774 727 -776H731Q732 -763 741 -757Q750 -751 757 -748Q767 -753 777 -758Q770 -749 767 -738Q767 -734 768 -731Q776 -733 787 -739Q798 -745 810 -746Q813 -745 816 -745Q815 -740 805 -732Q796 -725 796 -719V-716Q799 -715 801 -715Q806 -715 816 -722Q826 -729 832 -729Q834 -729 840 -727Q829 -719 818 -710Q806 -701 805 -686Q805 -684 807 -676L810 -675Q816 -675 818 -680L819 -678Q816 -672 812 -667Q818 -639 818 -623V-616Q813 -598 795 -589Q777 -581 766 -569Q766 -562 771 -558Q775 -554 778 -551Q769 -544 765 -523V-510Q765 -503 760 -502Q756 -505 756 -511Q757 -517 757 -523Q757 -529 754 -532Q740 -531 740 -514Q741 -502 741 -490V-487Q737 -481 732 -478Q734 -448 736 -417Q738 -387 754 -371Q755 -374 755 -381Q752 -406 748 -432Q748 -438 750 -448H757Q756 -450 756 -456Q756 -467 762 -469Q762 -443 768 -413Q776 -387 780 -368V-367Q779 -363 775 -358Q770 -353 770 -349Q770 -346 771 -344Q803 -351 840 -362Q846 -372 850 -384Q854 -395 867 -398Q866 -395 866 -389Q866 -369 895 -356Q903 -359 911 -359H916V-358Q914 -353 911 -348V-346Q912 -339 917 -339Q919 -339 923 -341V-340Q920 -334 916 -329Q922 -314 928 -299Q924 -290 909 -282Q893 -273 890 -265Q880 -270 860 -270Q840 -270 825 -266Q824 -263 824 -256V-251Q787 -239 750 -190Q753 -187 772 -182H774Q776 -182 779 -186Q783 -191 787 -191L791 -190V-188Q790 -180 789 -172Q789 -168 790 -166Q791 -168 794 -179Q798 -168 798 -142V-126Q798 -111 799 -104Q808 -101 814 -101Q841 -101 861 -155Q864 -148 865 -131Q866 -112 870 -106Q879 -98 905 -98H926L928 -96Q924 -91 919 -83L920 -80Q930 -75 945 -73Q942 -67 942 -62Q942 -54 951 -39Q962 -21 962 -10Q962 -4 961 -1Q965 7 969 14Q968 19 962 27Q954 38 954 48Z"/>
</svg>