<svg xmlns="http://www.w3.org/2000/svg" viewBox="0 -800 1024 1024">
	<path fill="#000000" d="M858 -351H863Q859 -342 847 -340Q844 -340 840 -342Q841 -351 858 -351ZM657 -27Q653 -24 646 -24Q632 -24 630 -36Q632 -37 637 -37Q650 -37 657 -27ZM54 -395H59Q64 -389 64 -378Q64 -374 62 -364Q51 -367 51 -382Q51 -389 54 -395ZM512 -698V-693Q512 -688 513 -685Q510 -685 506 -686Q493 -684 480 -682Q482 -692 492 -694Q502 -696 512 -698ZM507 -208H512Q514 -216 515 -225V-228Q467 -219 463 -197Q471 -197 485 -203Q498 -208 507 -208ZM521 -288H520Q518 -289 515 -290L513 -289Q500 -282 484 -274Q467 -267 466 -250V-249Q494 -264 519 -264Q518 -267 518 -272Q520 -280 521 -288ZM509 -139H513Q513 -156 509 -163Q487 -159 477 -155Q461 -148 456 -136Q460 -130 469 -130Q489 -134 509 -139ZM500 -453V-456Q498 -472 495 -480Q478 -464 462 -448Q445 -433 433 -414Q447 -413 454 -406Q461 -399 469 -392Q485 -395 519 -405Q519 -411 518 -417Q519 -424 519 -432Q519 -451 513 -461Q510 -461 506 -455Q504 -452 502 -452ZM852 70V75Q850 90 842 101Q834 112 827 122Q797 119 779 103Q761 86 740 68Q712 47 706 38Q716 43 725 47Q713 33 697 23Q680 13 664 2H667Q682 2 706 16Q724 26 734 29Q704 5 664 -16Q668 -16 671 -17Q682 -17 701 -9Q720 -1 734 -1H738Q757 -22 760 -59Q762 -96 763 -135Q765 -160 767 -185Q767 -201 763 -214Q739 -211 731 -188Q725 -171 725 -136V-116Q725 -99 724 -90Q713 -83 711 -81Q703 -74 701 -67Q697 -69 694 -69Q685 -69 675 -57Q675 -65 664 -73Q651 -83 651 -93Q653 -106 654 -120V-137Q654 -235 614 -292L617 -294Q620 -293 622 -293L624 -294V-295Q625 -307 634 -313Q642 -320 652 -326Q654 -346 663 -349Q665 -349 665 -344V-337Q665 -331 666 -329Q677 -331 682 -339Q688 -348 692 -355Q726 -396 756 -443Q752 -446 747 -446Q736 -446 720 -426Q716 -421 698 -393Q695 -389 692 -385Q689 -380 685 -380H683Q683 -382 682 -385Q682 -392 692 -412Q727 -492 732 -513Q727 -521 719 -526Q711 -530 704 -536Q708 -538 709 -538Q718 -535 727 -533L731 -534L733 -535Q733 -540 730 -540L732 -542Q735 -542 737 -540Q756 -556 782 -556Q818 -556 845 -533Q864 -516 871 -489Q878 -462 885 -435Q840 -411 796 -387Q751 -364 730 -317Q733 -316 735 -316Q752 -319 774 -327Q810 -336 824 -336Q822 -328 814 -325Q807 -323 801 -321Q743 -297 728 -286Q730 -281 732 -276Q771 -296 822 -307Q872 -319 907 -349H876Q877 -360 896 -366Q911 -371 914 -378V-376Q915 -373 916 -370V-369Q930 -374 943 -380Q932 -373 932 -365Q932 -363 934 -357L937 -356Q940 -358 947 -361L951 -360Q947 -352 947 -347Q947 -338 957 -322Q967 -306 968 -298Q962 -291 959 -283L960 -279Q921 -275 861 -251Q864 -243 875 -243V-237Q875 -234 869 -210Q851 -200 845 -171Q841 -152 841 -112V-93Q841 -77 839 -51Q827 -56 827 -82V-109Q817 -106 817 -79Q815 -51 815 -34Q815 16 825 32Q831 22 833 -15Q843 -9 843 4Q843 18 845 33Q852 66 852 70ZM578 -5V-1Q573 -6 558 -6H553Q534 -6 531 -13Q533 -14 537 -14Q542 -13 547 -13Q550 -13 554 -15Q547 -28 534 -40Q520 -52 509 -63Q505 -60 505 -56Q505 -52 510 -45Q516 -37 516 -32Q516 -26 512 -22Q489 -47 489 -61V-63Q456 -61 427 -45Q432 -42 440 -32Q450 -19 458 -19H462Q474 6 476 29Q476 40 472 48Q455 49 452 50Q442 52 441 60Q435 51 421 51Q400 53 393 63Q398 52 402 41Q401 37 397 37Q392 37 386 39Q387 37 387 33Q387 21 373 21Q355 21 343 33Q348 20 371 12V11Q371 9 368 7Q364 4 364 1V0H366Q371 0 374 -3L373 -7Q375 -15 380 -24Q347 -20 326 -4Q305 12 286 29Q274 27 259 17Q240 4 224 4Q215 -3 208 -12V-18Q209 -30 210 -43Q210 -50 208 -54Q221 -88 252 -104Q283 -121 316 -135Q315 -125 303 -116Q292 -108 291 -100Q305 -98 310 -98Q334 -99 356 -107Q378 -114 399 -119Q397 -124 394 -129Q392 -134 386 -136Q395 -156 395 -213V-228Q382 -224 374 -215Q367 -206 358 -197Q324 -207 306 -229Q271 -202 236 -142Q206 -90 192 -60Q182 -40 171 -21Q166 -2 160 18Q154 39 134 42H132Q123 42 109 30Q96 19 88 19Q83 19 76 23Q76 20 80 17Q84 14 84 10Q84 1 70 -14Q56 -29 54 -40V-63Q54 -72 53 -76Q51 -89 48 -103Q48 -112 56 -120Q51 -132 51 -136V-139L53 -140Q57 -136 60 -133Q67 -149 69 -151Q53 -249 51 -285Q57 -284 57 -277V-266Q69 -221 84 -180Q83 -199 75 -246Q65 -306 65 -337V-346Q72 -326 84 -272Q92 -234 100 -210Q104 -215 104 -229Q104 -243 109 -248Q116 -214 122 -180Q129 -181 140 -192Q150 -202 154 -202Q157 -202 161 -198Q141 -175 141 -160Q141 -153 143 -150Q171 -163 209 -207Q240 -242 259 -255Q251 -263 244 -263Q229 -261 215 -246Q201 -230 191 -222Q188 -226 188 -231Q189 -242 200 -252Q211 -262 220 -271Q237 -288 254 -305Q251 -309 247 -312L250 -313Q254 -312 257 -311Q259 -311 260 -314Q258 -319 249 -326Q239 -333 239 -337Q253 -334 265 -329L266 -330Q264 -333 261 -337L263 -339H265Q271 -338 276 -337H278Q308 -365 332 -401Q356 -437 380 -472Q353 -468 328 -459Q317 -454 302 -438Q284 -419 272 -417Q269 -416 262 -416Q243 -416 230 -429Q216 -442 215 -462Q188 -478 185 -513Q185 -530 196 -541Q187 -553 187 -569Q187 -606 227 -654Q261 -696 300 -711Q294 -705 289 -699Q284 -693 283 -682Q294 -675 312 -675Q355 -679 397 -684Q411 -684 417 -682Q422 -687 430 -687Q434 -687 442 -685Q443 -679 444 -674V-671Q426 -668 407 -665Q389 -661 384 -645Q394 -640 407 -640Q413 -640 466 -650Q524 -664 581 -679Q693 -702 722 -711Q670 -710 625 -702Q581 -694 531 -687Q530 -689 530 -693Q530 -704 552 -705Q576 -706 578 -711Q581 -710 586 -710Q601 -713 615 -716Q618 -716 624 -714Q630 -722 644 -724Q659 -725 676 -729Q694 -735 699 -735H701L706 -732Q710 -732 751 -744Q767 -746 774 -750Q785 -758 797 -760Q803 -760 810 -756Q814 -763 822 -765Q823 -748 836 -748Q855 -752 870 -757Q870 -752 858 -745Q844 -736 842 -728H845Q852 -729 858 -730Q861 -730 863 -729Q860 -722 857 -716V-713Q863 -710 870 -710Q879 -710 888 -711Q872 -704 869 -701V-691Q869 -685 870 -682H871Q879 -683 886 -684Q892 -684 892 -679Q889 -680 885 -680Q866 -680 866 -651Q866 -637 869 -627Q861 -622 861 -614Q861 -606 858 -594Q854 -581 837 -577Q825 -574 799 -574H779Q764 -574 757 -573Q725 -567 689 -562Q671 -561 639 -550Q623 -544 615 -544Q610 -543 600 -543H590Q570 -543 565 -534Q566 -529 580 -527Q588 -514 601 -501Q615 -488 618 -472V-469Q618 -461 613 -450Q608 -438 608 -432V-429Q613 -429 625 -436Q639 -444 650 -444H654Q642 -436 635 -433V-432Q636 -430 639 -429Q630 -423 630 -406Q632 -403 635 -403Q638 -403 640 -404Q643 -404 645 -402Q636 -397 636 -387Q636 -376 645 -372Q640 -369 640 -360Q640 -348 648 -348H649Q647 -342 647 -341Q647 -340 649 -332Q606 -318 596 -312Q591 -271 586 -231Q575 -236 575 -271Q576 -278 577 -286Q577 -292 572 -292Q562 -268 562 -222Q562 -193 565 -169Q571 -185 574 -202Q587 -198 586 -182Q585 -165 589 -153Q612 -160 620 -186Q621 -184 621 -181Q621 -174 620 -168V-165Q621 -162 629 -161Q634 -161 636 -159L637 -157V-152Q637 -147 641 -144Q639 -140 636 -136Q638 -129 646 -123Q642 -112 638 -102Q593 -96 563 -88Q566 -80 574 -78H575Q578 -78 578 -81Q578 -85 581 -85L584 -84V-82Q582 -73 580 -65Q580 -61 581 -59L582 -58Q585 -60 588 -63H589Q585 -56 585 -50Q585 -47 587 -37Q578 -14 578 -5Z"/>
</svg>