<svg xmlns="http://www.w3.org/2000/svg" viewBox="0 -800 1024 1024">
	<path fill="#000000" d="M521 -675Q514 -665 506 -657Q503 -660 503 -664Q504 -675 515 -677Q517 -677 521 -675ZM432 -164V-162Q429 -151 423 -141Q416 -142 416 -150Q417 -163 427 -165Q430 -165 432 -164ZM341 -233V-235Q343 -244 345 -254Q341 -255 335 -255Q323 -255 300 -246Q282 -239 273 -239Q266 -239 260 -242Q206 -180 183 -107Q196 -94 217 -87Q224 -83 231 -77Q238 -71 245 -70L249 -71Q216 -92 192 -114Q202 -111 221 -101Q242 -90 256 -87Q288 -108 303 -147Q318 -185 335 -222Q335 -225 331 -227Q328 -229 327 -230L331 -231H336Q340 -231 341 -233ZM515 -388Q495 -375 493 -363Q495 -355 506 -355H518Q500 -348 500 -334Q500 -332 502 -324Q504 -324 514 -329Q506 -319 500 -305Q499 -299 499 -286V-271Q499 -255 497 -249Q484 -244 472 -225Q458 -203 450 -198V-200Q455 -215 459 -230Q459 -234 456 -239Q431 -228 418 -204Q406 -181 395 -156Q385 -137 375 -115Q365 -93 364 -68V-65Q368 -65 368 -63Q378 -69 389 -92Q397 -110 404 -116Q402 -97 390 -67Q376 -33 376 -7V1Q349 16 341 21Q323 33 314 47Q285 46 273 29Q260 12 246 -2Q241 -32 222 -48Q203 -64 185 -81Q199 -78 218 -65Q236 -53 244 -51Q235 -61 209 -79Q193 -90 183 -99Q168 -92 168 -65Q168 -56 169 -51Q140 -24 105 -2V-4Q106 -8 106 -13V-15Q97 -26 81 -56Q61 -93 46 -108Q51 -108 59 -103Q67 -98 72 -98Q76 -98 78 -99Q75 -107 58 -117Q43 -126 41 -134Q52 -130 62 -130Q82 -130 100 -155Q122 -186 132 -191Q132 -185 124 -170Q115 -153 115 -143V-140Q143 -159 176 -219Q200 -262 201 -263Q215 -284 219 -307V-311Q208 -307 201 -297Q196 -290 190 -275Q177 -244 161 -239Q168 -259 183 -290Q201 -326 207 -344Q217 -364 222 -381Q220 -397 231 -408Q206 -408 194 -404Q184 -401 165 -388Q144 -374 135 -374H132Q103 -376 94 -408Q88 -414 75 -421Q56 -431 53 -441Q50 -450 50 -458Q50 -478 72 -513Q89 -540 91 -553Q110 -564 129 -575Q141 -562 158 -562Q179 -562 335 -603Q487 -643 500 -650L501 -648Q499 -646 496 -641L497 -639Q503 -633 509 -633Q526 -637 543 -642Q549 -642 553 -639Q529 -632 518 -609Q519 -596 537 -596Q547 -596 556 -597H559Q555 -595 548 -591Q541 -587 540 -580V-578Q542 -571 548 -571Q551 -571 553 -572Q539 -521 517 -479Q484 -472 450 -465V-466Q450 -478 467 -482Q479 -485 482 -490Q473 -503 457 -503Q434 -501 410 -494Q348 -484 341 -482Q303 -472 291 -450Q298 -444 311 -444Q321 -444 347 -452Q366 -458 377 -459Q383 -459 388 -460Q399 -460 401 -453Q390 -449 361 -443Q326 -436 308 -426Q310 -418 315 -414Q320 -410 324 -405L321 -363Q368 -375 434 -398Q436 -399 438 -406Q440 -413 445 -414V-413Q445 -404 458 -393Q469 -384 477 -383H481Q488 -383 500 -389Q510 -394 514 -395Q513 -399 513 -406Q515 -428 530 -440Q544 -452 556 -463V-460Q556 -456 559 -453Q565 -458 587 -466Q621 -479 630 -489Q642 -510 649 -544Q653 -557 665 -612Q676 -647 680 -679Q680 -693 673 -701Q664 -706 658 -712L657 -715Q658 -719 659 -724Q659 -728 655 -729Q650 -730 645 -733Q654 -741 665 -741Q677 -746 700 -766Q731 -793 747 -793H750Q756 -792 765 -786Q777 -778 787 -777Q791 -746 800 -723H798Q793 -723 789 -728Q785 -733 781 -733H780Q777 -730 777 -725Q778 -718 778 -712V-709Q778 -684 760 -642Q741 -598 741 -573V-567Q755 -577 759 -596Q764 -615 771 -632Q784 -652 796 -673Q796 -688 805 -699Q810 -696 810 -690Q809 -682 808 -675V-663Q799 -650 786 -636Q775 -617 769 -594Q764 -571 757 -547Q782 -559 788 -563Q804 -574 809 -591Q818 -585 830 -582H831Q834 -582 840 -589Q848 -598 855 -598Q849 -586 849 -578Q849 -575 851 -569Q852 -565 855 -565Q860 -565 864 -566Q862 -563 862 -558Q862 -549 880 -531Q900 -511 901 -511Q903 -511 907 -516Q911 -521 915 -521L919 -520V-519Q917 -513 915 -508L916 -505L919 -504Q922 -504 929 -513Q939 -526 948 -526V-525Q947 -520 941 -511Q934 -502 933 -490Q933 -488 935 -482H936Q938 -482 940 -486Q944 -494 949 -494H950Q946 -472 946 -456Q946 -426 959 -417Q944 -392 944 -360H939Q927 -360 918 -348Q914 -342 907 -325Q902 -330 902 -339Q902 -355 925 -378Q918 -387 910 -387Q898 -387 886 -361Q876 -338 874 -318Q851 -315 845 -291Q839 -268 834 -240Q820 -190 813 -141Q812 -135 812 -124Q812 -107 819 -97Q831 -120 843 -170Q853 -212 858 -225Q866 -226 870 -232Q874 -237 877 -244Q880 -261 892 -267Q891 -248 878 -198Q863 -138 863 -103Q863 -93 865 -75Q855 -57 850 -34Q844 -12 837 9Q823 18 804 33Q773 58 757 66Q748 54 736 54Q727 54 719 66Q717 64 717 60Q718 54 719 47V46Q716 37 703 27Q697 19 693 12Q688 5 679 4Q675 4 673 5Q663 -7 659 -24Q659 -28 662 -34Q651 -50 640 -67H642Q648 -66 653 -66H655Q656 -69 656 -72Q656 -83 643 -92Q630 -101 629 -111H632Q638 -111 651 -102Q666 -92 675 -92Q678 -92 680 -93Q688 -96 700 -127Q725 -180 742 -245Q750 -273 771 -375Q778 -398 780 -415Q780 -421 777 -429Q753 -425 735 -414Q718 -403 701 -391Q699 -383 697 -375L698 -372Q707 -372 721 -380Q739 -390 748 -390H753Q749 -381 739 -378Q730 -375 722 -372Q697 -355 692 -346Q689 -331 686 -316Q679 -286 658 -228Q636 -168 631 -147Q628 -154 628 -163Q628 -176 637 -198Q646 -220 646 -230Q646 -233 645 -237Q617 -216 600 -143Q591 -103 580 -74Q562 -25 562 -11Q562 3 569 11Q585 -22 597 -61Q599 -71 601 -79Q604 -87 614 -90Q607 -58 599 -26Q593 7 586 40Q579 72 545 87Q538 85 529 73Q523 64 518 61Q505 57 495 48Q491 36 491 20Q490 16 483 1Q475 -15 474 -26V-34Q474 -53 473 -73V-81Q468 -127 467 -130Q464 -146 460 -163Q460 -172 464 -177Q469 -163 475 -135Q484 -94 492 -78Q513 -114 545 -199Q567 -258 581 -287Q566 -290 562 -290Q555 -297 549 -304Q542 -311 541 -321V-324Q529 -329 524 -338Q520 -346 519 -363Q519 -372 515 -388Z"/>
</svg>