<svg xmlns="http://www.w3.org/2000/svg" viewBox="0 -800 1024 1024">
	<path fill="#000000" d="M83 -247H89Q91 -241 91 -234Q91 -229 89 -221Q82 -222 82 -235Q82 -244 83 -247ZM920 -723V-722Q920 -715 915 -712Q910 -710 905 -707Q902 -710 902 -713Q903 -723 915 -724Q918 -724 920 -723ZM778 -71H776Q775 -73 775 -78Q775 -93 784 -93Q787 -93 790 -90Q788 -85 787 -79Q786 -72 778 -71ZM495 -62H489Q466 -53 461 -52Q454 -50 446 -49Q437 -47 433 -41H441Q486 -41 495 -62ZM591 -302H594Q600 -317 600 -319V-322H596Q585 -322 575 -316Q563 -309 563 -298V-297Q577 -299 591 -302ZM498 -142Q477 -135 456 -132Q435 -128 430 -113Q446 -117 469 -122Q493 -127 498 -142ZM560 -224V-209Q604 -216 644 -227Q609 -232 595 -232Q572 -232 560 -224ZM631 -407Q611 -404 589 -401Q570 -398 569 -384Q569 -379 570 -377Q605 -382 627 -388Q627 -395 631 -407ZM483 -475H477Q444 -475 422 -464H415Q404 -464 403 -458Q408 -448 415 -440Q425 -450 443 -451Q461 -452 480 -455Q480 -457 479 -460Q481 -467 483 -475ZM493 -377H489Q479 -377 463 -367Q450 -359 443 -359Q434 -359 422 -373Q412 -385 404 -388Q395 -378 387 -369Q379 -359 376 -344Q470 -360 495 -366L493 -369Q494 -371 495 -374ZM618 35H622Q620 32 608 28Q597 24 594 19Q609 23 622 23Q631 23 636 22Q644 -11 652 -45Q659 -79 672 -109V-111Q671 -114 670 -118V-119Q680 -140 683 -169Q682 -171 680 -173Q626 -170 584 -162Q576 -160 568 -158Q561 -156 560 -149V-148Q590 -154 630 -159H637Q642 -154 649 -154Q657 -155 664 -156Q666 -156 670 -154Q655 -151 655 -143Q660 -128 664 -113Q657 -110 655 -101Q616 -94 579 -85Q563 -79 563 -73V-70Q598 -78 627 -80H634Q633 -78 633 -72V-68Q638 -65 644 -64Q638 -61 638 -53Q638 -44 643 -34Q634 -19 613 -12Q601 -8 569 -5V17Q577 18 591 26Q608 35 618 35ZM501 -199V-211Q498 -212 493 -212Q475 -209 456 -206Q446 -206 440 -212Q440 -223 430 -232Q422 -239 421 -245Q426 -270 449 -279Q462 -284 501 -289V-302H498Q476 -301 458 -294Q440 -287 415 -280Q391 -275 371 -272Q351 -269 338 -259Q327 -250 317 -226Q311 -212 304 -188Q327 -216 364 -216Q383 -216 397 -206Q399 -205 404 -198Q411 -189 415 -188H418Q423 -188 443 -193Q464 -197 501 -199ZM675 130H674Q662 129 653 118Q640 101 636 99Q635 86 618 75Q605 67 602 61Q612 63 622 65Q599 45 572 26Q571 30 571 36Q575 65 581 93Q558 116 539 130H533Q507 128 499 109Q491 88 478 71L480 72L484 71Q482 63 466 57Q456 53 452 49Q468 51 484 53Q493 37 493 17V11Q478 12 463 20Q448 28 434 35V38Q435 49 436 59V62Q422 77 417 81Q406 90 390 91Q377 84 368 74Q358 63 341 61L340 59Q340 55 348 55H351Q335 29 282 20Q288 18 292 18Q304 19 315 20Q326 20 332 14V10Q328 -13 324 -36Q324 -39 326 -47Q338 -42 339 -27Q340 -11 345 1Q350 9 359 13Q365 11 365 -1V-11Q358 -90 329 -103Q321 -100 321 -89Q321 -83 323 -71Q311 -72 307 -81Q302 -90 296 -98Q287 -105 277 -121Q258 -81 189 56V73Q185 71 184 71Q180 71 178 82Q173 83 164 83Q141 82 117 80Q116 63 94 48Q79 37 74 29Q80 -88 85 -205Q91 -198 91 -182Q90 -164 89 -146V-139Q93 -112 97 -86Q100 -74 111 -67Q114 -74 114 -85Q112 -112 109 -139Q109 -146 111 -156Q116 -139 119 -121Q121 -102 132 -92Q139 -97 153 -118Q165 -135 178 -140Q178 -133 169 -119Q160 -104 160 -97Q160 -89 168 -82Q200 -115 221 -158Q243 -201 263 -245Q263 -247 257 -253Q246 -249 239 -239Q233 -228 228 -216Q221 -189 203 -179Q210 -207 223 -228Q236 -250 249 -272Q247 -276 245 -287Q243 -300 240 -303Q247 -304 250 -310Q252 -317 254 -323Q263 -327 271 -331Q296 -356 302 -406Q302 -421 293 -429H288Q275 -429 255 -416Q238 -405 231 -404H226Q208 -404 193 -421Q183 -432 172 -455Q147 -471 146 -508Q146 -534 162 -547Q160 -553 160 -564Q161 -582 171 -593Q182 -604 194 -620Q202 -634 206 -644Q211 -655 224 -658Q224 -655 217 -643Q205 -623 205 -611Q205 -604 210 -596H213Q220 -596 221 -611Q221 -624 227 -625Q232 -623 238 -612Q244 -602 251 -601Q268 -604 288 -604Q304 -604 326 -602Q317 -592 303 -593Q289 -594 286 -579Q293 -571 310 -571Q316 -571 322 -572Q357 -577 391 -586Q429 -589 452 -601Q447 -611 430 -611Q406 -608 382 -605Q378 -605 372 -607Q375 -616 385 -618Q395 -619 406 -620Q421 -624 436 -630Q451 -637 471 -638Q463 -694 434 -698Q435 -701 435 -704Q435 -715 425 -715Q406 -712 396 -698Q405 -720 425 -743Q438 -765 453 -787Q468 -810 495 -815H501Q512 -813 523 -812Q536 -814 548 -817Q577 -814 581 -783Q580 -783 571 -789Q559 -798 553 -798Q547 -798 545 -789V-787Q545 -773 558 -748Q573 -720 586 -720H587Q593 -727 593 -748V-758Q601 -757 603 -743Q605 -730 610 -728Q605 -722 603 -709Q602 -700 600 -695Q596 -687 590 -680Q585 -673 584 -661V-655Q604 -662 628 -665Q635 -665 638 -664Q656 -671 679 -671Q690 -671 696 -670Q695 -663 687 -661Q685 -660 672 -659Q642 -656 612 -651Q582 -647 566 -629Q573 -625 585 -625Q608 -628 630 -632Q746 -648 785 -659Q807 -664 810 -671Q810 -681 796 -681Q784 -680 771 -679Q763 -679 757 -682Q770 -691 797 -698Q824 -706 838 -713Q838 -708 837 -703Q837 -697 840 -694Q849 -694 868 -700Q882 -704 893 -705Q888 -700 881 -696Q874 -692 871 -683Q874 -680 882 -680Q893 -681 904 -683Q909 -683 912 -680Q901 -676 888 -670Q876 -663 875 -651Q875 -646 878 -639Q885 -636 905 -636H920Q908 -630 895 -626Q882 -621 881 -604V-602Q883 -599 886 -599H893Q882 -591 874 -564Q866 -540 858 -533Q847 -525 816 -525Q788 -526 759 -527Q751 -526 743 -526Q704 -523 689 -512Q683 -512 676 -513Q622 -508 567 -495Q569 -490 575 -486Q581 -482 582 -479Q610 -486 630 -490Q656 -499 679 -502Q697 -502 707 -488Q715 -492 721 -497Q727 -502 738 -503Q726 -494 723 -474Q723 -465 730 -464H731Q733 -464 735 -467Q738 -472 742 -472H745Q742 -465 738 -459Q738 -458 740 -454Q747 -454 755 -461Q761 -466 766 -467Q756 -451 751 -433Q751 -427 755 -422Q750 -418 746 -409H753Q812 -409 853 -428L854 -426Q854 -423 853 -420Q853 -418 855 -416Q865 -413 894 -413Q918 -413 930 -410Q927 -403 909 -403Q889 -403 886 -394Q890 -392 894 -392H903Q886 -385 886 -375L887 -371Q889 -368 890 -368Q893 -368 896 -369H899Q897 -350 886 -342Q875 -333 864 -323Q848 -325 815 -331Q816 -337 826 -337Q833 -336 840 -336Q848 -336 849 -340Q841 -360 793 -360Q773 -359 752 -359Q735 -358 724 -357Q712 -356 708 -344Q710 -336 726 -336Q742 -337 758 -338Q772 -338 778 -332Q743 -328 707 -325Q698 -315 688 -302Q678 -289 677 -273Q677 -266 680 -259Q662 -244 646 -227Q649 -226 654 -226Q671 -226 696 -250Q718 -272 732 -272H734Q745 -270 755 -268H757Q775 -269 789 -277Q803 -286 819 -296Q807 -279 807 -265Q807 -250 821 -240Q825 -241 830 -245Q836 -250 843 -250L844 -248Q844 -246 840 -241Q833 -232 833 -226Q834 -223 834 -221L836 -219Q840 -220 844 -221L847 -220Q842 -214 842 -206Q846 -188 850 -170Q850 -166 849 -164Q846 -155 834 -149Q822 -142 815 -136Q811 -132 802 -113Q796 -101 787 -100V-103Q790 -115 792 -128Q792 -134 787 -137Q745 -117 733 4V16Q733 38 743 52Q757 37 755 8Q754 -22 770 -32Q766 -1 765 33Q764 66 752 88Q735 89 711 110Q688 130 675 130Z"/>
</svg>