<svg xmlns="http://www.w3.org/2000/svg" viewBox="0 -800 1024 1024">
	<path fill="#000000" d="M165 -645Q160 -648 160 -656Q160 -664 166 -667Q171 -664 171 -660Q171 -657 165 -645ZM859 -205Q857 -209 855 -234Q859 -238 862 -238Q868 -238 868 -226Q868 -208 859 -205ZM559 -291V-306Q514 -301 493 -285H500Q530 -288 559 -291ZM625 -159Q622 -167 606 -172Q594 -176 590 -180Q587 -182 585 -189Q583 -196 578 -199Q565 -196 551 -193Q558 -177 565 -162Q585 -166 599 -166Q615 -166 625 -159ZM560 -492Q559 -505 551 -513Q534 -506 490 -498Q491 -492 498 -488Q503 -485 503 -482L502 -478Q533 -488 560 -492ZM559 -379Q558 -381 558 -385Q559 -393 560 -401Q560 -405 557 -408Q522 -396 513 -394Q507 -382 507 -371Q507 -365 510 -359Q518 -365 559 -379ZM896 -76V-79Q896 -91 901 -94Q904 -76 905 -57Q907 -38 918 -28Q919 -22 919 -10Q919 22 904 41Q888 61 861 61Q849 61 832 55Q779 4 761 -24Q763 -25 767 -25Q776 -25 788 -9Q803 11 818 12Q796 -36 759 -69Q722 -101 683 -132Q685 -119 703 -100Q723 -79 726 -63Q708 -74 681 -106Q654 -139 634 -150L646 -126Q642 -122 642 -115V-109Q642 -100 638 -97Q640 -94 640 -88Q640 -82 639 -77Q639 -71 644 -70Q632 -64 600 -60Q571 -56 559 -51Q555 -43 555 -33Q555 -28 557 -20Q578 -20 625 -29Q660 -35 681 -36Q684 -38 684 -46Q684 -55 688 -55H690L692 -52V-47Q692 -41 695 -40L696 -39Q700 -42 703 -45H704Q710 -35 718 -35Q729 -36 739 -37V-34Q739 -29 738 -25Q738 -23 742 -23Q746 -23 746 -21Q736 -15 736 -9Q736 3 760 9V14Q760 25 764 33Q762 46 747 62Q734 76 732 88Q684 72 595 72Q548 72 484 78Q488 68 502 67Q517 67 535 66Q553 64 570 62H574Q609 65 643 67Q662 67 674 62Q646 42 587 42Q551 42 455 55Q426 57 423 58Q407 61 400 72Q401 82 414 82Q425 81 436 80Q446 80 448 85Q439 92 427 91Q391 100 362 117Q338 112 329 94H327Q302 91 298 72V69Q303 50 307 31V29Q305 20 303 11Q303 6 305 3Q312 -2 319 -7Q324 -13 329 -20Q333 -26 342 -27H345V-23Q345 -12 351 -6Q415 -6 487 -18V-30Q474 -26 459 -26Q427 -26 404 -49Q404 -70 395 -78Q399 -125 431 -147Q435 -141 439 -135Q456 -139 473 -144Q471 -156 471 -162Q471 -167 473 -177Q437 -163 390 -126Q379 -113 368 -100Q358 -93 347 -87Q333 -72 319 -58Q310 -49 300 -42Q290 -36 286 -24Q276 -21 269 -13Q261 -4 254 3Q231 22 213 39Q207 48 198 61Q189 75 174 76Q167 76 159 72Q151 65 144 50Q136 35 122 33Q115 33 107 38Q112 26 116 14Q112 6 107 0Q108 -3 108 -10Q108 -24 98 -47Q88 -70 88 -80Q98 -80 101 -67Q105 -52 111 -51V-55Q106 -86 89 -117Q64 -175 61 -181H62Q64 -181 70 -175Q89 -147 107 -114Q125 -81 159 -66Q163 -67 166 -70Q168 -73 171 -76Q174 -76 174 -73Q175 -70 178 -70Q220 -93 261 -118Q249 -136 221 -145Q213 -169 213 -174Q214 -179 221 -187Q227 -194 228 -199Q230 -212 230 -222Q229 -233 236 -243Q249 -256 267 -267Q274 -274 280 -281Q285 -289 294 -290Q293 -283 285 -277Q277 -271 277 -265V-264Q278 -254 296 -254Q311 -254 317 -249Q314 -246 308 -243Q299 -238 297 -234Q300 -227 307 -225Q315 -223 322 -221Q338 -228 376 -234Q429 -242 445 -253Q438 -258 425 -258Q396 -254 367 -251Q358 -251 354 -252Q363 -262 401 -265Q427 -267 437 -271Q431 -275 412 -277Q406 -294 376 -297Q380 -300 380 -303Q378 -306 375 -310Q405 -330 428 -333V-340H425Q407 -337 389 -335Q374 -335 366 -345Q367 -348 367 -352Q367 -367 353 -367Q349 -372 349 -379Q355 -398 360 -418Q358 -439 368 -447Q370 -446 375 -446Q396 -450 416 -454Q414 -466 412 -471Q367 -460 345 -435Q347 -417 347 -410Q347 -384 326 -375Q325 -373 325 -369Q325 -365 326 -363Q314 -357 304 -356H301V-358Q301 -364 306 -370Q309 -374 310 -379Q307 -381 300 -381Q288 -379 275 -378H270Q252 -382 233 -387Q223 -387 218 -379Q223 -367 249 -362Q276 -357 283 -348Q280 -344 276 -344Q268 -346 259 -349Q244 -351 228 -354Q222 -356 205 -366Q189 -376 180 -376Q168 -376 162 -354Q161 -356 161 -361Q164 -374 169 -385Q162 -400 141 -400H135Q125 -399 112 -389Q103 -382 98 -382Q101 -390 110 -401Q122 -416 123 -425L119 -427Q117 -427 113 -423Q109 -418 105 -418H104V-421Q104 -428 113 -439Q104 -455 93 -468Q83 -482 79 -504Q72 -508 65 -513Q69 -516 79 -520Q74 -532 74 -541Q74 -568 95 -583Q92 -594 88 -605V-607Q93 -607 98 -599Q101 -594 104 -592Q134 -598 141 -598H147Q153 -601 157 -615Q161 -629 166 -633Q166 -629 165 -625Q165 -609 176 -602Q184 -597 202 -595Q208 -598 213 -613Q219 -630 228 -633Q223 -623 223 -608Q223 -592 227 -580Q240 -577 257 -561Q272 -547 282 -544Q285 -543 287 -543Q293 -543 304 -547Q320 -553 330 -553H336Q368 -568 405 -578Q441 -589 476 -601Q469 -629 466 -658Q462 -687 440 -698Q421 -704 394 -706L393 -710Q393 -716 399 -716Q404 -717 409 -718Q425 -730 443 -741V-742Q442 -745 440 -749V-750Q462 -762 479 -778Q496 -795 514 -810Q522 -806 530 -802H533Q544 -805 555 -809L559 -808Q569 -801 578 -786Q596 -768 601 -765Q602 -756 603 -747V-744Q597 -745 590 -751Q582 -757 575 -757H570Q568 -755 566 -754Q567 -749 573 -731Q580 -711 580 -699Q580 -684 570 -673Q572 -669 578 -661Q615 -684 615 -712Q615 -719 612 -727Q631 -718 634 -703V-702Q634 -698 631 -696Q628 -695 625 -693Q615 -683 606 -668Q595 -649 595 -637V-633Q613 -639 657 -646Q704 -654 732 -664Q749 -675 776 -679H779Q784 -683 789 -683Q795 -682 800 -682Q806 -687 816 -687H835Q843 -689 855 -703Q866 -716 875 -718V-717Q875 -713 865 -698Q853 -680 853 -674Q853 -668 861 -667H863Q868 -667 872 -675Q877 -685 884 -685H886Q884 -675 881 -665Q881 -660 887 -657Q892 -657 896 -661Q901 -666 905 -666H908Q898 -658 898 -640Q898 -627 911 -627Q911 -616 917 -594Q924 -566 924 -553Q924 -548 923 -543Q917 -510 877 -509Q869 -509 865 -510Q865 -519 876 -523Q890 -528 892 -531Q891 -546 875 -546Q871 -546 859 -544Q834 -541 798 -520Q763 -499 749 -481Q742 -472 742 -462V-460Q752 -464 781 -488Q805 -508 828 -508H834Q780 -481 736 -432Q729 -446 714 -456Q708 -453 701 -451L700 -454Q704 -459 707 -469Q703 -471 701 -471Q699 -471 695 -466Q690 -460 685 -460H684V-461Q684 -466 691 -476Q697 -484 698 -489H695Q692 -489 687 -485Q682 -481 677 -481Q686 -496 709 -520Q727 -538 735 -550Q696 -550 640 -534Q645 -513 664 -513Q670 -513 677 -516Q676 -512 671 -509Q667 -507 666 -504Q668 -497 672 -497L675 -499L676 -497Q674 -493 672 -489V-488Q675 -477 675 -471Q675 -454 654 -435Q633 -416 633 -397V-391L635 -390Q640 -391 644 -393Q647 -388 650 -384Q664 -387 672 -393Q674 -391 674 -389Q673 -382 671 -376Q673 -370 686 -366Q683 -362 676 -359Q669 -356 668 -353Q669 -351 669 -346Q669 -334 662 -324Q625 -324 610 -313V-306Q610 -301 609 -300H617Q634 -300 650 -301Q663 -303 676 -306Q682 -306 684 -301Q670 -293 652 -292Q634 -292 616 -290Q595 -286 590 -275Q590 -270 607 -270H613Q655 -274 696 -279Q726 -281 740 -295Q739 -301 723 -301Q712 -301 708 -304Q711 -312 719 -313Q727 -313 735 -315Q740 -317 749 -325Q758 -333 764 -334Q761 -328 761 -322Q763 -302 781 -297Q793 -301 805 -301Q809 -300 812 -300Q809 -295 802 -290Q791 -283 791 -274V-273L792 -272Q797 -273 801 -275L804 -273Q792 -267 791 -250Q790 -234 784 -222Q729 -222 681 -213Q690 -201 718 -181Q744 -163 755 -149Q783 -135 835 -103Q837 -106 840 -117Q843 -128 847 -132Q847 -115 852 -99Q857 -108 857 -127Q857 -141 856 -156Q856 -180 865 -189Q866 -184 866 -170V-152Q866 -120 874 -105Q875 -113 875 -122Q874 -153 873 -185Q873 -218 880 -237Q883 -196 884 -148Q884 -100 893 -63Q896 -65 896 -76Z"/>
</svg>