<svg xmlns="http://www.w3.org/2000/svg" viewBox="0 -800 1024 1024">
	<path fill="#000000" d="M563 -170V-166Q551 -168 549 -180Q549 -184 550 -186Q563 -185 563 -170ZM877 -756H878Q882 -748 882 -743Q882 -736 873 -735Q871 -742 869 -749Q869 -756 877 -756ZM283 -583V-587Q283 -601 295 -601Q299 -601 303 -598Q294 -585 283 -583ZM717 70H707Q700 67 688 55Q675 42 667 39L665 38Q662 41 659 44L657 43Q659 35 660 26Q660 24 658 20H654Q649 20 643 25Q638 29 635 29H634V28Q634 19 643 14Q650 10 651 4V2Q651 -6 637 -25Q627 -39 625 -45V-46L627 -48H628L630 -49Q613 -89 588 -127Q581 -136 579 -147Q579 -150 580 -152Q595 -143 611 -112Q622 -90 631 -81Q622 -108 580 -174Q568 -185 565 -200V-203Q577 -201 577 -189Q597 -168 612 -144Q617 -142 623 -134Q629 -125 634 -123Q615 -157 593 -190Q581 -206 569 -223Q557 -240 554 -262Q597 -196 648 -140Q666 -149 678 -171Q684 -182 696 -212Q720 -274 748 -340Q776 -407 787 -482Q692 -418 690 -416Q654 -391 618 -366Q607 -357 590 -332Q575 -309 563 -300Q559 -299 552 -299Q538 -300 529 -308Q521 -317 511 -324Q496 -332 485 -339Q474 -345 470 -366Q468 -380 468 -388Q468 -406 477 -414Q472 -432 472 -444Q473 -467 482 -484Q492 -501 504 -519Q524 -549 548 -561Q534 -537 519 -513Q524 -500 536 -500Q559 -505 578 -517Q580 -520 581 -523Q597 -529 624 -545Q665 -569 690 -573Q677 -559 644 -544Q620 -533 610 -526Q599 -516 588 -507Q579 -501 570 -495Q560 -489 557 -477Q587 -486 614 -503Q641 -520 670 -535Q704 -551 781 -600Q777 -606 770 -606Q766 -606 756 -601Q744 -595 738 -595Q746 -611 762 -617Q778 -623 790 -632Q809 -655 834 -675Q843 -675 849 -679Q855 -684 861 -687Q862 -696 863 -706Q864 -716 870 -720L873 -718Q868 -712 868 -700Q868 -687 873 -675Q890 -663 896 -651Q900 -656 907 -658H910V-655Q910 -647 913 -643Q918 -644 922 -648Q928 -654 934 -654H937Q926 -632 926 -617V-614L929 -612Q931 -614 937 -617Q936 -613 936 -605Q936 -588 945 -559Q954 -530 954 -516Q950 -495 946 -474V-471Q943 -471 934 -468Q916 -454 911 -433Q906 -412 902 -388Q899 -380 895 -372Q887 -328 878 -285Q873 -271 868 -258Q865 -235 862 -211Q859 -187 848 -169V-181Q848 -205 858 -257Q867 -304 868 -325Q850 -318 847 -295Q845 -272 840 -250Q834 -235 828 -221Q815 -174 802 -127Q799 -100 799 -99Q799 -90 802 -81Q812 -86 819 -109Q827 -136 842 -138Q837 -118 825 -87Q810 -50 806 -31Q800 -32 800 -39Q802 -48 803 -58Q803 -63 800 -66Q770 -58 770 0H772Q778 0 783 -7Q788 -14 794 -14Q789 11 769 35Q764 45 754 61Q745 76 734 78Q726 74 717 70ZM274 60H249V58Q249 49 237 44Q228 40 225 36Q226 33 226 27Q226 15 209 -6Q198 -19 195 -28Q192 -40 190 -49Q187 -58 178 -65H163V-68Q166 -74 168 -80Q167 -79 163 -79Q157 -79 150 -80H147Q159 -88 167 -101Q175 -115 184 -129Q189 -133 193 -137Q196 -143 199 -149Q211 -158 222 -168Q228 -175 233 -183Q252 -210 270 -238Q283 -256 283 -263Q283 -273 268 -273H265Q243 -273 215 -261Q184 -246 180 -231H183Q190 -231 209 -238Q228 -245 240 -245Q249 -245 257 -241Q226 -233 206 -223Q181 -210 168 -190Q158 -191 144 -201Q132 -210 127 -210Q125 -209 122 -209Q95 -244 88 -258Q83 -268 70 -284Q54 -304 52 -312V-317Q53 -329 54 -342V-345Q52 -363 50 -382Q50 -394 54 -403Q61 -407 64 -414L68 -413Q76 -421 77 -423Q93 -432 121 -458Q145 -480 157 -488Q166 -492 175 -497L211 -526Q218 -534 225 -543Q232 -553 244 -554H248Q238 -535 223 -522Q207 -509 190 -497Q155 -476 136 -441H140Q150 -441 159 -447Q167 -454 174 -460L209 -486Q275 -541 339 -600Q353 -612 369 -626Q386 -640 387 -661Q387 -665 386 -669Q373 -664 356 -646Q336 -625 319 -621Q319 -633 336 -639Q341 -649 354 -664Q369 -681 374 -692Q369 -696 365 -701Q369 -710 375 -714Q375 -724 358 -727Q343 -730 341 -736Q372 -737 394 -746Q411 -753 434 -772Q436 -771 439 -771Q446 -771 455 -780Q463 -775 473 -775H479Q487 -767 488 -765H489Q508 -763 520 -748Q532 -732 548 -723Q546 -720 546 -714Q546 -707 550 -702L551 -701Q553 -701 556 -704Q561 -708 564 -708H566Q564 -703 554 -683Q558 -670 558 -653Q555 -615 545 -577H543Q529 -577 523 -560Q462 -538 399 -490Q357 -458 294 -397Q304 -397 331 -413Q351 -424 366 -438Q377 -437 392 -423Q401 -414 410 -410V-407Q410 -394 416 -384Q417 -382 428 -367Q428 -361 427 -355Q427 -343 434 -306Q431 -292 417 -274Q401 -254 400 -241Q394 -241 394 -237L395 -235Q376 -233 367 -220Q358 -207 350 -192Q369 -198 390 -209Q410 -218 434 -224Q432 -246 432 -254Q432 -268 436 -279Q439 -286 444 -293Q448 -300 449 -310Q449 -316 446 -322Q452 -319 454 -312Q456 -305 458 -298Q471 -293 477 -293Q482 -293 488 -296Q487 -293 487 -288Q487 -282 491 -278Q495 -279 499 -288Q503 -296 508 -298Q505 -280 502 -263Q502 -252 511 -247Q518 -248 526 -254Q534 -260 539 -261Q523 -245 523 -222Q523 -199 544 -195Q541 -187 541 -178Q543 -157 545 -137Q532 -129 532 -107Q532 -87 541 -69Q532 -72 529 -80Q526 -88 523 -97Q520 -99 514 -99Q505 -98 499 -94Q493 -89 489 -87Q486 -93 486 -96Q486 -98 488 -100Q466 -116 446 -152Q407 -146 370 -126Q330 -105 311 -78Q303 -64 301 -46Q323 -63 349 -83Q374 -103 404 -117V-114Q403 -108 396 -105Q389 -102 384 -99Q381 -94 377 -89Q365 -82 353 -75Q348 -68 342 -62Q338 -57 330 -53Q319 -47 316 -43Q306 -28 298 -12Q291 2 291 24Q279 38 274 60Z"/>
</svg>