<svg xmlns="http://www.w3.org/2000/svg" viewBox="0 -800 1024 1024">
	<path fill="#000000" d="M500 -23V-19Q485 -22 482 -39Q485 -39 487 -39Q500 -39 500 -23ZM580 -102H582V-105Q582 -107 579 -122H577Q565 -123 556 -115Q546 -107 537 -102Q542 -97 555 -97Q568 -99 580 -102ZM581 -177Q581 -183 579 -191Q577 -192 575 -193Q550 -185 545 -182Q539 -179 531 -176Q524 -173 523 -164Q523 -154 525 -148Q552 -165 581 -177ZM632 -108H633Q646 -109 659 -111Q666 -135 667 -147Q630 -147 630 -120Q630 -116 632 -108ZM689 -194V-198Q693 -217 697 -237Q697 -240 696 -243Q675 -236 656 -230Q638 -224 619 -209Q629 -190 637 -186Q665 -198 674 -199V-196Q674 -191 681 -191Q687 -191 689 -194ZM970 -418Q964 -406 957 -398Q952 -403 952 -408Q953 -420 963 -422Q966 -422 970 -418ZM90 -249Q79 -250 79 -265Q79 -269 81 -277Q91 -277 91 -263Q91 -253 90 -249ZM517 -689V-687H514Q502 -685 490 -684V-696Q501 -698 511 -700Q516 -700 519 -698V-696Q518 -692 517 -689ZM805 -222Q796 -220 786 -196Q781 -201 781 -207Q781 -218 788 -223Q769 -223 758 -187H756Q754 -188 751 -189Q717 -132 716 -89Q728 -112 740 -136Q752 -160 769 -176Q766 -159 751 -126Q735 -92 732 -69Q718 -63 718 -34Q718 -24 719 -20H716Q706 -20 701 -12Q697 -13 692 -15Q685 -15 682 -11Q679 -14 675 -17H673Q670 -17 670 -15Q669 -12 666 -12V-23Q658 -24 651 -41Q645 -57 639 -57Q638 -57 632 -55Q632 2 657 60Q650 95 644 106Q643 114 624 112Q605 110 603 104Q589 95 576 81Q564 66 552 54Q559 56 563 60H564Q560 53 546 44Q529 33 526 21Q533 23 545 34Q557 44 563 45L567 44Q528 17 507 -11Q516 -8 536 4Q558 17 568 18H569Q580 5 580 -47H577Q567 -48 555 -40Q553 -31 551 -22Q533 -25 523 -33Q513 -42 500 -49L501 -52Q500 -55 498 -58Q495 -61 484 -61Q485 -63 487 -65Q491 -69 491 -73Q474 -111 447 -131Q406 -81 397 -64Q374 -62 360 -51Q350 -56 339 -58Q334 -58 326 -55Q312 -85 298 -93V-98Q302 -116 298 -129Q308 -131 308 -139Q306 -150 303 -161Q303 -166 306 -168Q311 -165 313 -154Q315 -142 320 -139Q326 -145 326 -151Q326 -157 319 -172Q312 -186 312 -192Q330 -168 341 -157Q354 -164 376 -182Q408 -209 429 -240Q448 -266 474 -285Q487 -294 513 -324Q535 -349 541 -359L485 -345Q475 -342 467 -354Q462 -361 455 -381Q425 -337 389 -320Q332 -242 282 -157Q279 -160 278 -160Q275 -157 271 -154Q276 -182 289 -204Q302 -225 315 -246Q326 -268 326 -273V-276Q300 -263 285 -237Q270 -211 250 -180Q235 -160 221 -139Q208 -119 207 -92Q208 -87 208 -82Q217 -83 228 -101Q238 -118 248 -118Q248 -117 253 -114V-113Q249 -101 240 -90Q213 -55 194 -13Q185 15 178 42Q171 68 150 79Q142 74 136 74Q125 77 114 79V77Q115 74 116 71V70Q111 67 99 62Q82 55 77 48Q65 31 65 -4Q68 -20 71 -37Q71 -44 70 -52V-56Q75 -84 80 -112Q86 -180 86 -214V-234Q95 -221 95 -190Q95 -176 94 -162Q94 -130 102 -119V-122Q101 -140 100 -158Q100 -176 107 -181Q108 -154 110 -144Q114 -125 124 -118Q207 -216 236 -251Q300 -328 344 -389Q343 -403 348 -415Q350 -447 376 -467Q402 -488 422 -507Q387 -503 362 -489Q337 -475 310 -462Q284 -464 272 -470Q254 -479 249 -500Q212 -525 212 -564Q212 -585 224 -605Q233 -614 242 -624Q249 -637 255 -651Q269 -662 284 -666Q300 -675 315 -687Q329 -699 348 -702Q344 -695 342 -685V-683Q348 -680 352 -677Q359 -681 366 -681Q376 -680 386 -680H391Q417 -688 442 -693Q452 -693 459 -686Q447 -682 433 -680Q419 -678 416 -663Q426 -654 444 -654Q483 -659 523 -669H548Q614 -669 734 -704Q730 -713 712 -713Q701 -712 689 -712Q669 -711 630 -704Q588 -696 571 -696Q554 -696 539 -702Q563 -710 640 -719Q661 -723 687 -731Q718 -736 750 -741Q783 -745 810 -755Q815 -747 822 -743Q831 -745 840 -747H844Q834 -739 834 -733Q834 -728 840 -725Q866 -737 878 -737Q849 -724 849 -709Q849 -703 853 -696Q868 -701 874 -701L876 -700Q874 -696 871 -692V-690Q871 -687 877 -687Q881 -687 885 -688Q888 -687 890 -687Q889 -683 881 -677Q873 -671 872 -665V-662Q875 -657 877 -653Q855 -635 850 -588Q811 -581 763 -582Q704 -576 651 -567Q654 -567 660 -565Q666 -532 673 -529Q665 -521 665 -496Q683 -501 703 -504Q699 -512 699 -522Q699 -531 705 -542V-549L707 -546Q710 -549 713 -552Q716 -554 716 -559Q726 -571 764 -571H771Q769 -569 769 -565Q773 -554 779 -544Q793 -552 804 -560Q789 -547 789 -529Q789 -525 791 -519Q795 -520 799 -522Q797 -514 797 -509Q824 -521 838 -525H842L843 -522Q842 -517 841 -512L842 -510Q842 -506 847 -506Q850 -506 854 -508V-504Q854 -497 857 -494Q862 -493 866 -493L898 -474Q895 -470 876 -472Q854 -475 854 -466V-465Q854 -460 858 -461Q861 -461 863 -459Q853 -454 848 -434Q846 -426 842 -400H788Q730 -400 716 -394Q737 -372 778 -341Q788 -333 797 -319Q810 -298 816 -304Q820 -310 823 -307Q829 -299 831 -289Q836 -273 853 -262Q870 -251 880 -246Q896 -257 909 -300Q918 -329 925 -340Q925 -326 920 -293Q915 -260 915 -238V-233Q930 -310 948 -382V-378Q948 -353 942 -310Q935 -259 935 -238Q935 -229 937 -209Q939 -220 941 -235Q944 -250 951 -259Q951 -239 950 -220Q950 -159 961 -124Q951 -103 944 -95Q932 -82 910 -82Q905 -82 899 -83Q879 -85 863 -97Q846 -109 846 -125Q847 -127 847 -130Q860 -120 875 -116Q880 -116 887 -121Q863 -144 843 -171Q823 -197 805 -222ZM687 -315Q662 -337 630 -357Q614 -330 560 -264Q627 -293 670 -304Q672 -305 687 -315ZM585 -558Q537 -544 513 -507Q507 -488 500 -470Q552 -470 570 -482Q564 -489 569 -512Q573 -536 575 -548Q577 -552 585 -558Z"/>
</svg>