<svg xmlns="http://www.w3.org/2000/svg" viewBox="0 -800 1024 1024">
	<path fill="#000000" d="M162 -459V-460Q162 -465 167 -469Q172 -473 176 -473Q183 -473 184 -467Q181 -458 168 -458Q165 -458 162 -459ZM849 -314Q844 -293 840 -289Q834 -290 834 -300Q835 -308 836 -317Q847 -317 849 -314ZM808 40V38Q808 30 790 25Q772 20 753 20Q744 20 734 22Q730 27 726 31Q727 40 738 43Q752 47 754 51Q743 55 720 55Q697 55 673 54H666Q637 55 608 56Q587 56 572 52Q599 47 658 47Q689 47 704 46Q709 38 713 30Q702 22 684 22Q665 23 646 24Q612 24 577 23Q502 23 483 48Q486 53 495 53Q505 53 515 52Q525 52 529 57Q511 67 485 67Q478 69 465 74Q446 82 435 82Q431 82 427 81Q416 79 407 68Q397 57 390 48Q376 25 362 7Q364 1 364 -5Q364 -23 353 -27Q364 -43 366 -68Q369 -92 372 -116Q301 -96 274 -33Q255 -25 251 -17Q247 -16 240 -16Q214 -17 201 -32Q187 -46 172 -59Q164 -80 149 -96V-99Q150 -103 150 -107Q148 -114 137 -119Q140 -123 143 -136Q147 -155 155 -159Q156 -157 156 -152Q156 -142 155 -133Q155 -121 162 -119Q173 -129 175 -159Q181 -198 181 -201V-204Q180 -224 166 -240Q153 -254 137 -260Q136 -258 136 -254Q136 -244 147 -229Q158 -214 158 -206Q158 -199 156 -195Q149 -197 148 -202Q148 -208 146 -213Q141 -222 126 -237Q107 -256 103 -269Q103 -272 102 -276Q105 -291 107 -307V-311Q106 -324 83 -348Q58 -374 56 -390Q70 -386 85 -365Q99 -345 112 -341Q111 -347 100 -359Q87 -373 85 -383Q93 -380 105 -369Q123 -353 135 -353Q133 -358 125 -364Q114 -373 113 -383H114Q120 -383 128 -377Q141 -368 148 -368H149Q156 -368 168 -375Q182 -383 189 -384Q194 -384 199 -385Q246 -385 295 -327Q295 -313 307 -308Q306 -306 306 -302Q306 -296 312 -287Q318 -279 318 -275Q315 -263 311 -251Q311 -247 312 -245Q323 -250 363 -266Q392 -273 411 -292Q413 -295 417 -324Q420 -331 423 -339Q425 -372 426 -405Q388 -389 365 -366Q355 -366 353 -375L349 -374Q337 -378 325 -382L321 -381Q312 -395 301 -413Q299 -422 297 -432Q291 -442 272 -442Q263 -442 258 -441Q260 -444 267 -447Q274 -450 276 -455Q267 -465 249 -465Q240 -465 224 -461V-463Q224 -470 237 -472Q249 -474 250 -480Q245 -488 236 -488Q216 -483 198 -474Q211 -492 231 -500Q251 -509 270 -519Q288 -535 309 -539V-536Q308 -527 299 -523Q289 -518 283 -512Q289 -509 296 -509Q308 -510 320 -518Q333 -526 346 -536Q363 -547 378 -556Q392 -565 402 -581Q398 -589 393 -591Q383 -588 366 -574Q350 -561 338 -557Q344 -573 369 -589Q394 -605 399 -619Q399 -630 389 -648Q380 -663 380 -671Q380 -677 384 -685Q390 -698 390 -705V-707Q400 -711 404 -720Q409 -730 415 -737Q421 -738 427 -740Q437 -751 446 -763Q455 -775 474 -776H476Q496 -772 497 -771Q500 -766 503 -761Q514 -753 528 -746Q542 -740 547 -726H550Q558 -726 559 -720Q568 -734 593 -734Q606 -734 613 -729Q612 -721 600 -721Q595 -721 589 -722Q576 -722 575 -713Q578 -707 581 -702Q584 -703 590 -703Q607 -702 616 -693Q626 -684 636 -677Q641 -681 646 -686Q645 -693 639 -703Q634 -711 634 -716V-717H636Q644 -716 649 -708Q653 -699 658 -692Q662 -694 666 -696L667 -695Q664 -687 664 -680Q664 -670 672 -663Q676 -665 681 -671Q688 -679 694 -680Q690 -670 685 -660Q684 -657 684 -651Q688 -631 691 -612Q690 -599 688 -587V-583Q689 -565 690 -547Q690 -533 685 -524Q643 -514 607 -507Q570 -500 539 -480Q520 -468 506 -396Q496 -346 496 -332Q496 -322 497 -317Q509 -318 533 -328Q560 -339 576 -339Q583 -339 587 -338Q567 -327 537 -320Q524 -316 512 -311Q500 -306 498 -294Q564 -303 631 -318Q637 -324 637 -329Q637 -340 613 -342V-343Q613 -351 625 -351H642Q651 -371 660 -392Q669 -412 670 -437V-440Q668 -442 660 -443Q652 -444 651 -447Q658 -452 682 -458Q681 -463 679 -468Q693 -471 728 -488Q741 -495 753 -502Q765 -509 776 -510Q787 -510 797 -498Q803 -504 809 -512Q814 -519 822 -524Q821 -519 816 -506Q810 -491 810 -482Q810 -474 813 -467Q815 -469 819 -476Q823 -484 828 -485Q825 -474 825 -461Q825 -446 828 -434L831 -432Q835 -436 838 -440H839Q846 -387 846 -385Q846 -368 840 -355Q834 -342 810 -328Q792 -318 787 -312Q789 -325 805 -338Q818 -349 821 -355Q816 -366 813 -369H810Q792 -369 778 -355Q765 -341 734 -284Q708 -236 708 -206V-201Q722 -206 735 -236Q749 -268 763 -273Q760 -259 746 -234Q730 -206 728 -185Q719 -173 717 -153Q698 -146 695 -140Q679 -144 669 -144Q658 -144 652 -137V-141Q649 -155 639 -162Q636 -162 633 -158Q630 -155 627 -155Q627 -163 630 -168Q616 -182 604 -200Q570 -194 535 -188Q487 -175 477 -167Q457 -151 457 -91V-68Q542 -78 710 -86Q752 -88 766 -91Q797 -97 805 -111Q810 -120 813 -142Q817 -170 825 -179V-145Q825 -134 827 -114Q836 -133 836 -174V-215Q836 -257 846 -275Q848 -232 850 -189Q851 -145 858 -108Q863 -124 863 -153Q863 -179 862 -205Q862 -222 863 -230Q869 -225 869 -213V-204Q871 -187 873 -153Q878 -105 920 -77Q933 -51 953 3Q943 11 935 31Q933 36 923 66Q907 68 899 68Q883 68 850 61Q817 54 792 54Q793 48 801 46Q808 44 808 40Z"/>
</svg>