<svg xmlns="http://www.w3.org/2000/svg" viewBox="0 -800 1024 1024">
	<path fill="#000000" d="M678 -173H677Q599 -162 564 -148Q538 -139 513 -130Q487 -121 465 -105V-99Q465 -70 474 -60Q517 -66 560 -73Q581 -75 590 -77Q605 -80 620 -83Q630 -83 635 -80Q651 -120 665 -138Q660 -139 656 -143Q658 -147 667 -155Q679 -166 679 -171ZM815 -692H814Q813 -694 813 -699Q813 -711 822 -713Q826 -712 826 -706Q825 -694 815 -692ZM57 -150V-147Q42 -153 42 -171Q45 -170 48 -169H50Q57 -158 57 -150ZM647 -491V-492H635Q579 -491 537 -474Q495 -458 452 -441Q456 -439 456 -416Q456 -401 458 -397Q513 -408 551 -420Q560 -423 584 -428Q615 -434 624 -441Q641 -466 647 -491ZM347 -205Q363 -207 373 -207H378Q380 -211 382 -215H384Q388 -214 391 -213Q450 -232 486 -238Q503 -242 520 -247Q524 -245 528 -244Q540 -245 618 -268Q659 -279 696 -286Q734 -294 761 -312Q773 -310 776 -310Q783 -310 787 -312Q795 -322 797 -330Q799 -311 812 -303Q824 -294 838 -287Q853 -295 874 -298H880V-297Q879 -291 871 -286Q862 -281 861 -274V-271L864 -270Q870 -273 881 -277H884V-276Q883 -273 879 -269Q875 -266 874 -259V-258Q876 -248 886 -248Q889 -248 893 -250Q891 -240 891 -237Q891 -224 902 -197Q914 -168 914 -152Q901 -133 878 -124Q855 -114 832 -105Q833 -114 841 -122Q849 -129 850 -135Q844 -145 838 -145Q831 -145 820 -134Q819 -133 805 -117L793 -123Q780 -121 776 -111Q771 -101 766 -90Q759 -81 752 -73Q747 -63 742 -53Q725 -21 707 10Q701 20 701 31Q701 38 704 42Q718 26 743 -15Q765 -51 779 -68Q782 -67 785 -67Q791 -67 797 -74Q805 -83 813 -83H814Q814 -80 816 -76Q814 -69 809 -66Q803 -62 799 -59Q788 -35 741 45Q735 54 730 62Q724 69 724 83V85Q722 86 717 86Q710 86 703 85Q694 85 692 93Q687 91 677 81L673 80Q668 82 662 84Q660 76 649 68Q639 61 637 56Q630 63 628 63L626 62V37Q613 28 611 6Q611 -5 618 -11Q605 -14 585 -14Q562 -14 526 -8Q500 -3 493 12Q494 20 506 20Q529 16 552 12Q556 11 563 11Q571 11 585 13Q584 21 571 21H558Q537 22 517 30Q497 38 478 43Q472 55 465 67Q455 70 446 70Q425 70 406 49H388Q391 45 391 42Q391 34 377 34Q364 34 361 39Q367 27 376 19Q375 14 366 3Q357 -8 357 -16Q358 -18 358 -21Q363 -20 371 -12Q380 -4 386 -4L390 -5Q391 -7 391 -11Q386 -43 366 -72Q358 -82 355 -85Q348 -92 340 -92Q337 -92 331 -90V-89Q331 -78 343 -66Q354 -55 354 -47V-35H353Q347 -35 341 -42Q338 -45 332 -56Q320 -77 310 -77H308Q293 -89 279 -103Q262 -71 247 -36Q239 -19 230 -2Q220 15 218 38Q206 41 188 56Q166 74 150 74Q146 74 136 72Q123 56 110 33Q97 21 90 9Q89 5 89 -4Q90 -17 90 -30Q90 -46 83 -53L85 -55Q86 -54 88 -50Q90 -46 94 -45H95Q83 -95 62 -134Q74 -128 84 -107Q96 -80 101 -74Q96 -94 80 -131Q61 -175 56 -197Q69 -180 86 -145Q103 -110 111 -99Q96 -135 83 -172Q89 -170 96 -153Q113 -118 143 -91Q157 -104 189 -142Q222 -181 244 -200V-197Q240 -183 226 -171Q205 -144 205 -127Q205 -120 206 -116Q231 -130 247 -160Q264 -190 281 -217Q288 -228 303 -242Q321 -259 327 -275Q320 -278 320 -279Q310 -275 299 -259Q289 -245 280 -240Q294 -286 320 -318Q346 -350 351 -405Q329 -393 310 -378Q290 -363 269 -362Q264 -362 252 -366Q233 -375 225 -405Q197 -419 193 -455Q193 -469 198 -479Q192 -488 189 -501L192 -502Q197 -498 206 -494Q208 -498 208 -501Q208 -508 200 -520Q192 -532 191 -537H192Q196 -537 205 -528Q215 -518 221 -518L224 -519Q218 -533 196 -550Q177 -564 172 -573Q185 -569 204 -555Q225 -539 239 -539H244Q248 -539 258 -545Q267 -550 272 -551Q283 -547 293 -543H297Q312 -545 327 -547Q336 -547 340 -542Q337 -536 324 -532Q311 -528 309 -523Q312 -515 318 -512Q344 -514 364 -520Q384 -526 407 -532Q430 -537 452 -542Q474 -547 491 -561Q486 -567 473 -567Q461 -567 443 -563Q422 -559 400 -546Q394 -549 385 -551Q403 -566 450 -574Q483 -579 496 -585Q496 -616 488 -638Q478 -666 455 -666Q449 -666 446 -665Q439 -664 433 -656Q425 -647 416 -645Q419 -658 435 -675Q449 -689 453 -698Q462 -716 471 -735Q475 -744 481 -757Q486 -770 494 -774Q509 -776 523 -779Q537 -785 548 -791Q559 -797 570 -798H574Q606 -798 625 -782Q637 -767 644 -750Q651 -740 658 -731Q665 -721 666 -711V-709Q666 -697 656 -676Q644 -651 644 -636V-629Q697 -636 715 -645Q726 -654 739 -659Q785 -663 802 -677V-675Q803 -670 804 -665V-663Q812 -661 814 -661Q826 -661 837 -682Q848 -702 859 -704Q859 -697 851 -681Q843 -664 843 -655Q843 -646 851 -639Q855 -642 861 -652Q867 -662 872 -665V-664Q872 -658 868 -649Q863 -638 863 -632V-627Q871 -605 899 -602V-601Q896 -595 893 -590Q892 -588 892 -583Q892 -576 897 -559Q903 -539 903 -527Q903 -522 902 -518Q893 -510 881 -509Q870 -508 859 -504Q850 -499 842 -491Q835 -484 824 -483H823V-487Q823 -496 829 -501Q834 -506 838 -512Q831 -517 824 -517Q813 -517 801 -508Q790 -500 785 -491Q779 -491 771 -495Q754 -486 742 -463Q730 -441 718 -424Q705 -407 695 -393Q680 -371 680 -359Q680 -352 683 -346Q699 -355 725 -398Q746 -432 757 -441Q761 -441 765 -437Q769 -438 775 -445Q782 -453 787 -453Q790 -453 792 -452Q789 -436 774 -426Q763 -413 752 -401Q748 -396 735 -365Q720 -329 711 -322Q704 -316 684 -311Q660 -305 651 -294Q648 -307 629 -318Q608 -330 604 -340Q594 -340 584 -339Q574 -338 572 -333Q549 -328 502 -312Q422 -308 385 -252Q373 -237 347 -205Z"/>
</svg>