<svg xmlns="http://www.w3.org/2000/svg" viewBox="0 -800 1024 1024">
	<path fill="#000000" d="M714 -563V-565Q692 -564 679 -554Q666 -545 647 -533Q609 -514 607 -497V-493Q607 -486 612 -477Q617 -467 618 -461H623Q630 -461 638 -466Q646 -471 651 -472Q655 -472 658 -473Q662 -472 666 -472Q673 -472 677 -475Q687 -489 693 -508Q701 -524 708 -541Q707 -543 707 -546Q711 -554 714 -563ZM446 -286Q414 -269 414 -245Q415 -242 415 -239Q424 -241 444 -251Q437 -245 429 -238Q421 -230 420 -219Q420 -212 422 -208L424 -207Q426 -207 429 -212Q433 -219 437 -219H440L441 -217Q437 -209 432 -201V-196Q432 -188 437 -168Q427 -156 425 -152Q419 -142 419 -130V-125Q327 -88 234 -20Q220 -9 215 -9Q213 -9 209 -11Q217 -25 239 -46Q260 -66 268 -78Q243 -77 226 -62Q208 -48 193 -32Q179 -19 165 -5Q151 10 147 31L151 32Q162 29 173 25Q178 25 181 31Q174 42 165 55Q155 69 142 73Q139 74 135 74Q121 73 108 66Q96 59 86 55Q60 46 52 40Q38 29 38 8Q38 -2 39 -7Q44 -21 48 -36Q46 -50 43 -65Q45 -95 66 -114Q87 -133 107 -150Q104 -136 100 -122Q100 -118 101 -116Q143 -131 180 -151Q216 -171 252 -192V-277Q217 -263 188 -243Q173 -229 159 -211Q145 -194 122 -192H117Q102 -195 97 -205Q92 -216 81 -228Q68 -235 54 -245Q42 -262 39 -297Q39 -319 51 -327Q44 -335 44 -348Q47 -369 49 -391Q49 -400 45 -407Q48 -405 54 -405Q57 -405 71 -411Q68 -418 55 -431Q47 -439 45 -443Q62 -434 97 -434Q127 -434 142 -429Q140 -422 128 -417Q114 -411 113 -401Q121 -393 132 -393Q154 -396 178 -409Q217 -421 224 -427Q223 -432 221 -437H218Q198 -433 177 -430Q169 -430 166 -432Q176 -448 196 -456Q216 -463 231 -474Q227 -498 190 -510Q191 -524 201 -544Q208 -559 210 -565Q226 -580 244 -598Q262 -616 295 -618H301Q319 -618 335 -600Q351 -581 351 -558Q351 -549 348 -539Q369 -548 390 -558L392 -556Q390 -550 387 -545V-544Q389 -538 394 -538Q400 -539 406 -540H407Q402 -527 402 -518Q402 -509 409 -506L411 -505Q417 -508 422 -512Q420 -502 420 -496Q420 -482 428 -456Q437 -427 437 -414Q437 -404 434 -395Q428 -378 388 -354L335 -321Q325 -292 323 -239Q384 -272 444 -297Q449 -292 446 -286ZM976 -23Q963 -5 963 43Q934 51 922 76Q909 67 882 62Q872 60 861 59Q850 57 844 47Q845 46 850 46Q857 47 864 47Q868 47 871 43Q867 36 862 28Q830 20 819 20Q804 20 804 29V31Q805 37 815 38Q825 39 828 44Q824 50 816 50Q813 50 798 47Q785 45 700 37Q700 29 706 29Q712 30 718 31Q746 33 773 34Q781 34 793 32Q782 7 717 7Q693 7 683 8Q652 10 649 10Q630 13 630 24V25Q631 34 641 34Q647 34 652 33Q663 33 665 41Q629 49 627 50Q607 57 602 74Q590 70 575 68Q561 59 547 34L542 16Q540 5 540 -14Q540 -32 551 -80Q553 -94 554 -109Q557 -114 559 -119Q561 -144 566 -167Q574 -197 574 -229Q574 -252 569 -274Q569 -279 567 -283Q567 -288 566 -293Q566 -303 575 -316Q586 -333 589 -334Q593 -336 602 -336Q618 -336 626 -328Q639 -310 644 -284Q651 -273 653 -264L652 -260Q690 -288 727 -317Q725 -327 723 -337Q741 -331 761 -331Q778 -331 796 -337Q799 -337 799 -335Q800 -333 801 -331Q817 -338 821 -338H825Q823 -334 816 -330Q807 -325 806 -319V-318Q806 -303 822 -303Q826 -303 828 -304V-298Q828 -284 833 -271Q833 -239 817 -211Q814 -202 810 -192Q806 -181 798 -179H797Q793 -179 786 -184Q776 -191 770 -191H765Q755 -189 744 -187L743 -190Q743 -197 758 -202Q771 -206 771 -211Q770 -215 766 -217Q761 -219 760 -220H754Q737 -219 722 -211Q706 -203 688 -194Q656 -179 652 -160Q664 -160 684 -170Q705 -181 718 -181Q713 -170 702 -166Q690 -163 679 -158Q650 -143 640 -132Q623 -114 620 -85Q630 -83 637 -83Q659 -84 680 -86H692Q715 -85 738 -85Q755 -85 758 -86Q846 -89 859 -110Q866 -121 868 -151Q870 -179 875 -191Q879 -186 879 -169V-153Q879 -127 886 -121Q886 -164 885 -207Q885 -269 896 -298Q900 -268 901 -210Q902 -141 906 -116Q908 -126 908 -152V-159Q908 -189 912 -200Q915 -191 917 -161Q919 -133 924 -119Q932 -116 935 -108Q939 -101 945 -91Q956 -77 963 -67Q970 -45 976 -23ZM925 -644Q917 -636 917 -615Q917 -603 920 -596Q913 -589 900 -584Q886 -578 881 -574Q875 -567 871 -558Q866 -549 857 -547V-551Q857 -560 864 -568Q871 -576 871 -583Q871 -586 870 -589Q843 -586 830 -563Q818 -541 807 -514Q790 -478 790 -451V-448Q799 -453 811 -480Q827 -515 844 -521Q828 -483 810 -450Q792 -416 784 -371Q770 -368 763 -356Q761 -355 755 -355Q745 -355 734 -356Q720 -356 714 -352V-354Q714 -357 713 -360V-362Q697 -369 685 -379H680Q665 -377 652 -370Q629 -364 606 -356Q582 -349 575 -325Q551 -298 550 -254Q537 -234 521 -176Q511 -142 500 -109V-99Q500 -92 499 -89Q498 -73 488 -43Q480 -19 478 -7Q478 0 480 4Q474 12 465 60Q458 100 440 103Q438 104 435 104Q413 102 400 85Q398 78 395 70Q391 64 386 57Q383 43 334 -24Q375 5 381 8Q378 -7 362 -22Q345 -37 321 -63Q352 -52 367 -32Q376 -32 394 -41Q398 -56 405 -61Q426 -110 446 -166Q448 -174 451 -184Q454 -193 463 -194H464Q451 -162 446 -122Q446 -117 448 -107Q472 -159 489 -223L507 -283Q519 -321 519 -332Q519 -339 518 -343Q505 -331 495 -290Q485 -252 474 -239Q473 -242 473 -247Q473 -256 481 -274Q487 -288 488 -295Q490 -309 490 -310Q492 -319 498 -322Q500 -339 510 -372Q521 -411 523 -437Q510 -441 501 -451Q499 -453 485 -475Q482 -481 469 -491Q456 -501 453 -509Q450 -518 450 -526Q453 -551 471 -578Q471 -585 470 -593Q470 -615 483 -631Q485 -633 508 -655Q513 -639 528 -639Q556 -644 582 -658Q615 -673 644 -678Q615 -658 573 -643Q566 -640 559 -637Q552 -634 550 -625Q551 -616 563 -616H569Q584 -619 601 -629Q618 -639 634 -647Q668 -661 702 -675Q736 -689 762 -710Q759 -718 750 -718Q737 -715 723 -712Q727 -723 738 -727Q749 -731 761 -736Q802 -757 814 -775Q848 -763 862 -742Q871 -749 878 -750Q877 -746 875 -742L876 -739Q890 -749 909 -754V-753Q909 -750 901 -742Q887 -728 887 -719Q887 -718 889 -712Q893 -713 897 -721Q901 -728 904 -728L907 -727L908 -724Q906 -718 903 -712V-708Q903 -702 911 -681L913 -680Q914 -680 915 -683Q916 -686 919 -686L921 -685Q921 -675 920 -665Q920 -649 925 -644ZM920 -228Q920 -215 914 -208Q909 -209 909 -219Q909 -226 912 -241H917Q920 -235 920 -228ZM711 -707Q705 -696 683 -692V-694Q685 -700 686 -706Q695 -709 704 -712Q708 -712 711 -707Z"/>
</svg>