<svg xmlns="http://www.w3.org/2000/svg" viewBox="0 -800 1024 1024">
	<path fill="#000000" d="M789 -467V-455Q782 -453 774 -452Q770 -452 768 -454Q770 -459 789 -467ZM464 -5V-9Q467 -10 472 -10Q489 -10 494 3Q478 1 464 -5ZM433 -408Q438 -409 442 -411Q446 -434 474 -468Q481 -477 487 -486Q492 -495 501 -499L502 -495Q501 -486 495 -477Q488 -469 482 -460Q463 -432 460 -419Q473 -425 486 -441Q490 -446 509 -471Q575 -559 598 -589Q633 -630 633 -648Q633 -658 627 -664Q607 -659 599 -641Q590 -623 581 -605Q565 -577 538 -540Q529 -521 512 -512Q516 -549 550 -577V-583Q550 -609 569 -617L568 -620Q568 -625 576 -636Q586 -650 586 -659Q586 -672 569 -687Q585 -709 594 -718Q610 -734 630 -740Q636 -748 642 -756Q657 -768 692 -768Q744 -767 771 -746Q802 -706 818 -658Q819 -655 819 -647Q818 -632 817 -617Q817 -611 819 -603Q780 -588 728 -559Q704 -526 675 -496Q646 -467 628 -428Q665 -439 719 -451Q732 -454 745 -457Q755 -457 759 -451Q732 -442 696 -432Q661 -422 636 -405Q680 -408 748 -431Q775 -439 801 -446Q828 -453 849 -467Q847 -469 840 -469Q827 -467 813 -465Q809 -465 805 -467Q808 -481 834 -487Q853 -491 858 -497Q866 -494 872 -494Q884 -494 905 -505Q926 -516 937 -517Q926 -510 913 -503Q901 -497 897 -483Q901 -481 902 -481Q914 -485 925 -490Q916 -484 913 -474L914 -471L918 -470H929Q929 -467 928 -464Q928 -455 936 -442Q944 -429 944 -421V-420Q943 -411 931 -397Q918 -382 917 -370Q864 -364 824 -352Q785 -339 742 -323Q742 -317 741 -311Q741 -301 745 -296Q725 -271 721 -264Q708 -243 708 -222Q708 -218 710 -206Q718 -203 725 -203Q740 -203 759 -220Q755 -215 755 -205Q757 -182 778 -175Q802 -199 819 -199Q825 -199 827 -198Q816 -191 806 -184Q796 -177 795 -161Q795 -158 798 -158Q800 -158 801 -155Q834 -165 873 -169H880Q846 -159 841 -157Q820 -149 811 -137V-133Q811 -118 822 -103H834Q811 -89 803 -81Q787 -65 787 -45V-40Q781 -44 775 -62Q767 -62 751 -58Q752 -74 775 -80Q787 -85 790 -87Q797 -92 796 -103V-106Q790 -104 780 -96Q769 -87 760 -86H757Q738 -90 718 -94Q711 -94 706 -89Q707 -82 720 -78Q733 -74 734 -66Q731 -63 727 -63Q716 -66 704 -69H701Q697 -57 697 -41Q697 -14 709 20Q692 18 690 -16Q688 -55 677 -63Q675 -33 675 -8Q676 20 676 47Q676 61 691 72Q697 69 698 54Q699 38 706 37Q713 42 713 62V67Q708 76 700 85Q695 100 694 117Q680 121 669 135Q640 126 620 107Q599 88 582 67Q554 28 510 6Q527 7 563 23Q554 12 520 -5Q485 -23 473 -37L577 6Q574 -3 558 -10Q548 -15 544 -19H549Q565 -19 583 -11Q596 -17 608 -23Q612 -37 613 -64Q614 -89 617 -101Q597 -122 576 -141Q555 -159 542 -187Q550 -213 592 -213Q606 -213 618 -210Q620 -220 620 -225Q616 -259 609 -292Q580 -284 565 -276Q543 -265 534 -247Q536 -243 536 -234Q535 -218 533 -202Q533 -191 538 -184Q533 -175 533 -160Q533 -153 538 -121Q517 -108 486 -98Q478 -111 474 -114Q466 -121 452 -121V-123Q452 -138 435 -144Q445 -158 445 -184Q445 -205 435 -250Q447 -250 451 -238Q452 -235 455 -215L463 -167Q471 -176 471 -194Q471 -207 458 -259Q446 -301 433 -319Q427 -314 427 -308Q432 -291 436 -275Q436 -272 435 -270Q426 -276 416 -295Q407 -313 399 -319V-322Q399 -324 392 -338Q359 -332 350 -322Q345 -317 343 -290Q340 -266 336 -242Q336 -234 337 -230Q349 -231 374 -246Q397 -260 409 -262Q407 -258 390 -246Q377 -237 377 -223H380Q384 -223 391 -227Q399 -232 405 -232H406Q401 -225 394 -219Q386 -213 385 -203Q385 -198 386 -195L389 -194Q395 -196 401 -199H402V-197Q402 -195 397 -190Q390 -183 389 -178Q388 -175 388 -169Q391 -149 393 -129Q380 -125 357 -111Q338 -99 325 -95Q326 -105 346 -117Q361 -126 365 -132Q361 -135 355 -135Q349 -135 335 -129Q313 -121 278 -99Q274 -97 220 -61Q208 -54 194 -47Q179 -40 178 -29Q178 -23 184 -16Q199 -21 222 -40Q254 -66 279 -69Q266 -57 235 -35Q202 -12 187 3Q173 53 136 53Q122 53 108 46Q95 36 75 25Q53 16 47 12Q34 3 31 -11Q30 -15 30 -22Q31 -40 40 -55Q49 -70 58 -88Q58 -93 57 -98Q59 -128 79 -139Q99 -150 118 -163Q117 -159 110 -152Q102 -144 102 -135V-132Q107 -129 111 -129Q126 -132 143 -142Q219 -173 269 -198Q266 -232 263 -266V-277Q233 -269 212 -252Q187 -232 179 -204Q161 -202 150 -202Q90 -202 90 -245V-253Q76 -264 63 -275Q50 -287 49 -307Q49 -310 51 -322Q58 -334 66 -350Q68 -370 70 -390Q74 -402 82 -409Q90 -417 94 -422Q101 -411 112 -411Q118 -411 132 -416Q148 -422 156 -422Q161 -422 164 -421Q162 -413 149 -408Q135 -403 134 -393Q143 -384 153 -384Q165 -385 177 -391Q189 -398 201 -405Q214 -411 228 -415Q241 -419 247 -430Q243 -435 234 -435Q213 -430 192 -425H189Q194 -438 211 -444Q228 -450 244 -456Q242 -476 221 -508Q202 -536 199 -551Q197 -557 197 -567Q197 -594 226 -613Q231 -638 259 -657Q286 -676 315 -676Q341 -676 355 -657Q361 -644 367 -631L392 -573Q391 -562 385 -544Q377 -522 377 -513Q377 -506 380 -499Q398 -506 415 -513Q414 -509 409 -504Q404 -499 403 -493Q404 -488 410 -488Q411 -488 423 -491Q423 -484 422 -477Q422 -462 430 -457Q424 -446 424 -436V-431Q425 -428 428 -426Q431 -424 432 -422Q433 -420 433 -417Q433 -413 432 -410Z"/>
</svg>