<svg xmlns="http://www.w3.org/2000/svg" viewBox="0 -800 1024 1024">
	<path fill="#000000" d="M182 -31L179 -39Q190 -41 197 -36Q204 -31 212 -29Q210 -27 208 -26Q194 -26 182 -31ZM785 -451Q785 -455 781 -456L777 -457Q769 -456 761 -449Q753 -442 747 -438Q733 -432 719 -426Q691 -407 677 -375Q676 -372 676 -367Q677 -358 677 -350Q675 -303 673 -257V-246Q713 -247 726 -275Q758 -338 780 -435Q783 -443 785 -451ZM128 -549Q126 -532 108 -532Q103 -532 101 -533Q104 -549 120 -551Q122 -551 128 -549ZM969 -552Q961 -543 961 -524Q961 -515 963 -497Q947 -495 940 -483Q933 -472 925 -461Q921 -466 921 -474Q924 -497 944 -504V-506Q944 -520 937 -531Q930 -542 919 -542Q914 -542 908 -539Q905 -533 905 -528Q906 -520 907 -512V-510Q906 -503 898 -489Q888 -471 888 -458Q888 -452 889 -449L888 -446Q886 -448 883 -450Q869 -439 864 -419Q859 -399 854 -378Q838 -333 834 -288Q830 -276 825 -264Q824 -260 824 -248Q824 -229 830 -228Q841 -226 857 -297Q871 -346 884 -396L886 -397Q891 -395 896 -393H898Q902 -403 905 -415Q908 -427 916 -428H917Q913 -389 899 -348Q876 -248 849 -152Q846 -149 842 -146Q837 -143 837 -137Q826 -145 814 -145Q789 -145 783 -126Q781 -132 781 -135Q781 -143 787 -147Q774 -161 772 -163Q763 -171 754 -171Q749 -171 747 -170Q746 -199 700 -207Q707 -212 719 -215Q717 -221 707 -221Q701 -220 695 -220Q689 -220 686 -224Q687 -231 695 -231Q704 -231 710 -233Q707 -237 701 -237Q690 -235 678 -234H676Q672 -218 672 -199Q676 -154 680 -109Q680 -97 679 -92Q668 -107 665 -154Q662 -197 654 -212Q648 -201 648 -188Q650 -171 651 -155Q652 -141 657 -81Q664 -18 664 -3V0Q662 19 659 37Q659 47 663 52Q689 30 689 -16Q689 -28 685 -50Q704 -42 704 -18Q703 1 701 19Q702 27 703 34Q701 42 693 56Q683 72 683 83V88Q677 90 664 102Q649 116 639 116Q634 116 628 113Q614 104 598 72Q581 38 566 31V30Q566 27 569 27Q572 27 574 25Q587 -27 590 -94Q592 -161 596 -228Q598 -272 598 -297Q598 -360 593 -395Q561 -443 550 -473Q552 -479 553 -485Q549 -496 549 -507Q550 -526 559 -543Q567 -560 575 -575Q579 -584 581 -593Q582 -601 589 -608Q592 -601 593 -594Q595 -587 601 -584Q603 -586 603 -588Q602 -593 601 -598V-601H603Q611 -598 615 -593Q639 -601 678 -623Q723 -649 751 -656V-654Q751 -648 745 -645Q740 -642 735 -639Q715 -628 691 -616Q668 -604 651 -585Q657 -578 665 -578Q687 -583 708 -598Q768 -631 827 -665Q825 -675 818 -678H814Q799 -673 786 -668H784Q786 -683 801 -691Q816 -698 831 -704L837 -725Q840 -723 842 -715Q844 -708 846 -707Q860 -709 887 -723Q903 -731 910 -733V-731Q910 -724 903 -713Q895 -700 895 -693Q895 -688 896 -686H897Q904 -688 911 -691Q912 -691 916 -689Q911 -683 911 -674Q911 -662 919 -650Q927 -654 931 -658L932 -657Q928 -649 928 -640Q932 -615 947 -588Q960 -559 969 -552ZM430 -304Q435 -361 430 -379Q415 -416 414 -440Q400 -451 376 -456Q374 -456 371 -457Q372 -460 379 -464Q386 -468 388 -472L387 -476L386 -478Q404 -509 486 -530H488Q499 -527 510 -525Q524 -506 545 -497Q545 -492 545 -487Q548 -478 550 -469Q551 -460 543 -440Q536 -424 536 -414Q523 -249 497 -109Q490 -103 493 -89Q496 -75 493 -69Q479 -48 475 -25Q477 -21 475 -19L454 -9Q463 -7 477 -3Q470 9 462 20Q460 28 458 35Q447 46 432 54Q424 52 418 48Q412 50 408 50Q388 51 378 40Q368 30 358 19Q299 11 259 -7Q303 -2 347 2Q333 -12 288 -17Q244 -21 222 -28Q313 -24 319 -23Q307 -28 243 -39Q194 -47 179 -52Q195 -55 253 -49Q303 -44 323 -46Q346 -48 368 -70Q386 -88 395 -109Q409 -128 425 -254Q400 -228 384 -207Q398 -214 412 -221Q391 -203 393 -173Q375 -155 377 -138Q368 -119 345 -96Q327 -93 308 -100Q302 -102 275 -117Q275 -120 274 -124Q268 -141 249 -158Q249 -160 242 -189Q237 -208 245 -216Q246 -215 251 -208Q252 -204 255 -187Q261 -185 266 -184Q278 -207 271 -246Q268 -265 254 -282Q232 -315 224 -342Q186 -354 183 -354Q178 -347 178 -344Q178 -339 187 -330Q197 -320 197 -314Q209 -305 221 -295Q233 -285 235 -270L231 -269Q228 -269 215 -279Q182 -306 167 -323L164 -324Q160 -322 156 -320H155Q155 -353 157 -385Q159 -417 174 -434V-436Q174 -439 173 -442V-444Q200 -446 236 -466Q232 -484 207 -484Q198 -484 193 -483Q197 -488 205 -491Q216 -495 217 -501V-502Q215 -518 196 -521H193Q196 -524 196 -528Q196 -533 189 -540Q173 -533 156 -527Q157 -533 165 -537Q171 -541 173 -543V-547Q173 -563 159 -563Q144 -563 135 -554Q136 -565 152 -574Q165 -581 168 -588Q164 -589 155 -589Q117 -584 91 -572Q62 -558 32 -548Q36 -557 45 -561Q54 -566 63 -570L232 -662Q265 -685 304 -690Q298 -674 282 -669Q265 -665 251 -659Q227 -647 205 -624Q211 -613 220 -613Q241 -618 262 -635Q330 -675 380 -699Q380 -717 368 -717Q353 -714 340 -707Q339 -710 339 -714Q340 -723 348 -727Q355 -732 362 -736V-750Q362 -755 363 -756H367Q377 -756 387 -757Q402 -757 405 -749Q408 -750 414 -750Q425 -749 433 -744Q442 -739 451 -736Q466 -703 486 -665Q479 -637 479 -630Q480 -625 480 -621Q483 -608 486 -596V-594Q486 -583 477 -562Q471 -549 470 -540Q414 -533 374 -512Q334 -491 294 -470Q302 -455 314 -444Q326 -434 338 -423Q334 -407 334 -387Q334 -366 341 -328Q349 -287 349 -266Q359 -262 372 -266Q378 -269 404 -287Q407 -289 430 -304ZM428 -284Q395 -255 386 -241Q403 -255 426 -264Q427 -274 428 -284Z"/>
</svg>