<svg xmlns="http://www.w3.org/2000/svg" viewBox="0 -800 1024 1024">
	<path fill="#000000" d="M497 -65Q496 -52 496 -31Q494 42 521 60Q526 52 526 42Q525 23 523 4Q523 -4 525 -7Q532 0 537 28Q541 48 546 58Q536 75 529 97Q522 121 497 123H493Q480 121 452 106Q424 90 419 81Q410 60 406 38Q395 23 390 11L392 8Q397 11 402 14H403Q401 2 386 -13Q373 -26 370 -38Q390 -28 410 -19Q427 -19 422 -78Q425 -94 431 -183Q430 -193 429 -203Q430 -206 430 -209H423Q396 -208 370 -200Q344 -193 317 -186Q304 -183 290 -181L245 -165Q206 -151 200 -147Q197 -145 174 -119Q159 -102 142 -102H140Q113 -102 93 -134Q74 -134 61 -150Q49 -165 49 -185Q49 -204 61 -219Q58 -231 58 -240Q58 -263 76 -282Q82 -288 111 -310Q145 -334 156 -335Q155 -329 151 -328Q147 -326 142 -324Q136 -315 128 -308Q120 -300 116 -289H124Q171 -292 227 -300Q241 -302 251 -302Q263 -302 268 -298Q257 -291 222 -288Q174 -284 166 -264Q173 -256 188 -256H193Q228 -260 268 -270Q294 -274 318 -278Q343 -281 363 -292Q359 -302 344 -302Q335 -301 326 -301Q321 -301 313 -303Q315 -313 339 -315Q392 -318 430 -329Q433 -351 433 -379Q433 -476 397 -516Q405 -522 412 -530H390Q377 -527 353 -509Q330 -491 319 -490Q316 -489 310 -489Q290 -489 274 -505Q259 -520 254 -540Q241 -550 231 -560Q221 -570 220 -589Q220 -596 221 -600Q224 -611 227 -622V-624Q226 -636 210 -648Q196 -658 196 -667V-668Q214 -660 231 -652Q230 -667 215 -679Q196 -693 194 -699Q201 -698 214 -690Q226 -682 234 -682Q236 -682 242 -684Q240 -691 230 -696Q224 -699 222 -702Q225 -705 232 -705Q242 -704 252 -703H255Q264 -704 280 -716Q291 -724 298 -726Q304 -724 311 -718Q321 -709 329 -709H335Q361 -713 387 -717Q395 -717 399 -715Q389 -707 375 -704Q360 -701 357 -686Q360 -678 374 -678H378Q406 -682 439 -693Q600 -736 621 -741Q619 -747 612 -752Q564 -747 495 -731Q482 -726 468 -724Q465 -724 459 -726Q491 -739 579 -760Q642 -775 668 -783H671Q683 -780 695 -777Q706 -780 716 -783Q718 -783 722 -781V-780Q718 -776 714 -768Q714 -765 716 -763Q717 -762 721 -762Q731 -764 740 -766V-763Q740 -756 732 -751Q726 -747 725 -744Q730 -739 739 -739Q762 -743 785 -748Q790 -748 793 -747Q780 -736 762 -733Q743 -728 738 -711L742 -710Q754 -713 765 -717H767Q759 -708 748 -702Q736 -695 735 -678V-674L737 -673Q741 -674 744 -676L746 -675Q745 -669 737 -662Q731 -657 728 -652Q724 -642 722 -632Q720 -622 710 -617Q708 -616 704 -616Q697 -616 689 -617H684Q666 -614 641 -606Q629 -604 604 -594Q580 -584 570 -582Q547 -581 529 -571Q537 -553 554 -545Q549 -535 549 -519Q549 -500 558 -480Q524 -450 519 -385Q546 -427 576 -464Q587 -476 600 -480Q597 -472 581 -453Q568 -437 566 -421Q568 -420 572 -420Q581 -420 594 -436Q615 -458 662 -519Q661 -524 652 -531Q647 -530 640 -522Q634 -516 627 -516Q626 -518 626 -523Q626 -528 634 -538Q639 -544 640 -549V-553Q637 -569 630 -586L633 -588Q638 -587 642 -586H643Q693 -595 713 -595Q762 -595 775 -559Q785 -559 796 -564Q808 -570 815 -570Q810 -562 800 -557Q791 -552 790 -539V-536L792 -534Q798 -536 803 -538L807 -537Q801 -531 797 -511L800 -509Q805 -510 809 -512L812 -510Q808 -457 799 -438Q773 -429 747 -422Q721 -416 698 -401Q662 -377 643 -348Q637 -350 633 -350Q621 -350 607 -342Q593 -351 578 -351Q570 -351 564 -348L562 -351Q565 -355 568 -360L567 -363Q563 -370 556 -370Q546 -367 535 -364V-366Q535 -370 541 -374Q545 -377 545 -379L544 -382Q532 -382 526 -376Q519 -370 513 -364Q513 -354 512 -344Q512 -338 514 -330Q563 -335 627 -335Q639 -337 645 -337Q652 -337 656 -333Q646 -324 618 -324Q601 -324 583 -325Q552 -325 541 -312Q545 -298 566 -298H573Q613 -301 664 -309Q680 -310 712 -310Q771 -310 791 -321Q788 -331 776 -331Q763 -332 752 -333Q759 -345 794 -350Q826 -355 834 -367Q848 -358 870 -358Q902 -360 936 -367Q934 -362 923 -358Q908 -353 907 -344Q910 -341 917 -341Q927 -342 937 -343Q941 -343 943 -342V-340Q943 -337 937 -336Q930 -335 930 -332Q929 -330 929 -325Q929 -317 933 -313L937 -312Q945 -313 952 -315Q947 -305 947 -291Q947 -275 954 -261Q949 -239 943 -217Q931 -209 919 -201Q907 -193 890 -192Q884 -195 878 -198Q865 -199 852 -201Q821 -211 805 -212Q777 -216 749 -221Q743 -221 740 -220Q709 -230 655 -230Q616 -230 528 -222Q524 -211 524 -197Q525 -181 525 -166V-149Q527 -120 529 -92Q529 -55 525 -43Q516 -52 516 -104Q516 -156 507 -166Q495 -161 495 -139Q496 -128 496 -117Q497 -104 497 -92Q497 -78 497 -65ZM751 -763V-765Q753 -780 766 -781Q770 -781 772 -780Q769 -765 751 -763ZM710 -330Q706 -327 693 -327Q681 -327 681 -332Q683 -339 695 -339Q709 -339 710 -330ZM275 -333H272Q272 -351 261 -354Q259 -355 256 -355Q249 -355 238 -347Q228 -339 222 -339Q225 -348 231 -352Q236 -357 242 -363V-365Q241 -374 236 -379Q231 -384 227 -391H213L212 -392Q216 -399 219 -407V-409Q219 -421 202 -443Q189 -461 187 -468Q194 -466 205 -457Q213 -450 219 -448L220 -451Q220 -454 217 -458Q213 -464 213 -469V-470H215Q225 -465 234 -461Q262 -489 298 -489Q304 -489 316 -487Q346 -472 372 -427Q372 -415 373 -411Q382 -414 390 -417Q394 -417 397 -414Q381 -406 380 -382Q378 -349 375 -342Q363 -318 331 -318Q303 -318 286 -335Q281 -334 275 -333Z"/>
</svg>