<svg xmlns="http://www.w3.org/2000/svg" viewBox="0 -800 1024 1024">
	<path fill="#000000" d="M806 -762Q807 -778 825 -778Q822 -769 818 -760Q808 -760 806 -762ZM843 -420V-431Q843 -450 853 -450H855Q851 -424 843 -420ZM663 -474V-479Q663 -492 674 -498Q677 -495 680 -492Q676 -481 669 -472Q666 -473 663 -474ZM270 -76H272Q279 -76 289 -81Q300 -87 306 -87Q309 -87 315 -85Q319 -107 319 -132Q321 -146 323 -161Q323 -171 318 -175Q309 -174 301 -166Q293 -157 282 -148Q266 -136 264 -134Q258 -127 257 -114Q264 -108 265 -97Q267 -86 270 -76ZM548 -553H547Q507 -540 477 -520Q467 -513 448 -494Q423 -469 408 -462V-453Q408 -432 418 -426Q435 -434 504 -450Q522 -489 539 -529Q546 -540 549 -549ZM704 -111H707Q729 -165 741 -183Q740 -185 736 -186Q731 -187 731 -189Q748 -199 753 -214Q673 -207 596 -154Q595 -150 595 -143Q598 -121 600 -99Q600 -92 599 -88Q617 -92 646 -101Q675 -110 704 -111ZM715 72H713Q703 54 689 48Q688 39 681 26Q676 16 674 8Q664 6 658 6Q628 8 613 12Q602 27 589 35Q559 33 545 17Q531 1 512 -12Q516 -19 516 -26Q513 -40 504 -57Q500 -77 495 -97Q485 -113 479 -127Q451 -145 439 -186Q435 -184 434 -180Q433 -175 428 -174H427Q422 -161 418 -139Q413 -107 406 -97Q403 -104 403 -114Q407 -138 410 -163Q410 -167 408 -175Q406 -176 402 -176Q385 -176 381 -135Q377 -102 373 -70Q373 -47 384 -36Q392 -40 393 -50Q395 -61 396 -72Q408 -64 408 -38V-27Q408 -12 412 -3Q408 6 408 25Q408 35 409 39Q394 51 378 51Q363 51 350 41L348 43L349 47Q349 50 346 50H345Q344 35 336 28Q327 21 321 12Q259 22 236 57H231Q217 57 203 41Q189 26 177 26H174V21Q174 9 162 -5Q150 -19 150 -33Q158 -32 172 -15Q185 1 193 2Q193 -13 182 -32Q175 -44 162 -61Q133 -99 106 -102Q102 -95 102 -89Q102 -79 120 -66Q137 -54 138 -45L135 -44Q130 -44 121 -51Q112 -58 107 -58L104 -57L83 -85Q77 -97 70 -107Q64 -118 63 -133Q63 -141 64 -145Q65 -152 70 -160Q76 -170 76 -174V-175Q68 -192 54 -210Q42 -228 39 -250Q54 -236 66 -219Q79 -202 98 -193Q96 -201 85 -212Q73 -225 71 -237Q79 -237 90 -223Q103 -207 113 -207Q116 -207 118 -208Q117 -214 112 -221Q106 -229 106 -235V-238L109 -239Q118 -236 127 -229Q134 -231 142 -238Q151 -246 156 -247H160Q175 -245 190 -243Q197 -243 200 -244Q216 -232 218 -230Q228 -220 230 -208Q276 -235 319 -264Q337 -284 341 -288Q355 -300 372 -301L374 -299H375Q374 -304 367 -304Q364 -303 361 -303L357 -304Q349 -307 339 -320Q324 -339 308 -339H307Q311 -344 313 -350V-351Q309 -381 288 -400Q274 -412 241 -427Q237 -439 217 -461Q190 -491 190 -516V-523Q187 -530 187 -536Q187 -544 192 -556Q197 -568 197 -574Q197 -580 190 -591Q183 -603 183 -612V-616Q178 -631 178 -633Q178 -639 183 -640Q189 -628 194 -614Q199 -600 212 -598V-602Q212 -605 207 -615Q202 -625 202 -633H204Q209 -633 215 -627Q221 -621 227 -621H230Q236 -622 242 -630Q249 -639 254 -641Q266 -644 277 -644Q312 -644 332 -622Q337 -615 343 -605Q348 -596 360 -595Q367 -595 380 -602Q395 -610 403 -610Q406 -609 408 -609Q405 -602 390 -594Q372 -585 371 -572Q374 -570 377 -568Q476 -606 556 -661Q550 -664 544 -664Q529 -662 516 -655L498 -649Q487 -643 476 -634Q465 -626 446 -624Q454 -641 477 -652Q513 -668 551 -686Q589 -704 621 -727Q626 -741 640 -747Q654 -753 667 -760Q676 -758 684 -756Q688 -756 692 -759Q717 -742 745 -730Q753 -732 765 -743Q779 -756 794 -756Q788 -746 777 -736Q765 -727 764 -708Q765 -704 765 -700Q771 -703 777 -710Q785 -719 790 -721Q785 -691 785 -686Q785 -679 786 -676L788 -675Q789 -675 791 -679Q793 -685 796 -685H797Q797 -673 796 -661Q796 -641 799 -619Q793 -613 787 -608Q780 -603 780 -593V-591Q749 -585 731 -564Q735 -566 741 -566Q745 -566 747 -564Q702 -531 683 -502Q680 -506 680 -511Q680 -518 686 -527Q691 -536 692 -538Q692 -542 685 -547Q654 -537 627 -472Q607 -425 607 -404Q607 -400 609 -390Q622 -403 629 -423Q636 -442 655 -450Q639 -413 622 -376Q606 -340 598 -294H582Q572 -294 568 -288Q523 -317 497 -349Q468 -348 449 -341Q431 -334 405 -328Q393 -315 384 -303Q385 -298 390 -297Q395 -297 400 -295Q416 -276 420 -274Q424 -274 428 -281Q432 -288 437 -288Q433 -282 433 -273Q433 -263 439 -262Q438 -258 438 -252Q442 -234 445 -217Q454 -228 466 -256Q476 -279 482 -288Q484 -285 486 -282Q490 -292 504 -296Q508 -297 531 -301Q552 -290 557 -276Q560 -274 567 -274Q583 -276 599 -279Q605 -279 610 -274Q608 -270 598 -264Q589 -258 587 -252Q593 -246 600 -246Q618 -249 634 -259Q670 -272 710 -282Q749 -293 778 -312Q773 -316 765 -316Q763 -316 745 -313Q733 -311 705 -302Q674 -292 661 -292H657Q669 -308 695 -312Q766 -330 822 -360Q827 -373 832 -387Q836 -401 845 -409Q847 -403 847 -399Q847 -388 846 -378Q846 -368 848 -364Q851 -364 854 -365Q870 -362 878 -351Q891 -356 904 -361L905 -358Q903 -353 901 -348Q901 -346 904 -345Q908 -347 914 -357Q920 -367 925 -370Q918 -338 918 -334Q918 -322 925 -315Q930 -317 932 -328Q934 -338 938 -340Q941 -336 941 -330Q941 -324 940 -318Q940 -314 941 -312Q945 -299 948 -286V-273Q949 -265 956 -254Q962 -245 962 -241Q962 -234 954 -219Q948 -207 947 -199Q928 -195 917 -186Q921 -182 921 -181L920 -178Q908 -178 893 -163Q882 -152 875 -151V-155Q875 -161 881 -171Q885 -178 885 -182Q885 -186 881 -190H877Q867 -190 862 -184Q857 -178 852 -172H850Q830 -171 822 -158Q814 -145 806 -127Q798 -113 790 -100Q774 -68 763 -43Q761 -35 761 -31Q761 -24 765 -19Q784 -31 800 -65Q821 -111 828 -120Q831 -118 835 -118Q840 -118 847 -126Q854 -134 861 -135Q855 -115 836 -99Q800 -35 768 72L765 71Q758 73 750 75Q747 75 745 74Q743 79 740 79Q731 76 715 72Z"/>
</svg>