<svg xmlns="http://www.w3.org/2000/svg" viewBox="0 -800 1024 1024">
	<path fill="#000000" d="M301 -275Q301 -285 299 -301Q279 -284 255 -267Q228 -250 225 -215V-208Q226 -186 234 -168Q243 -149 249 -128Q270 -135 290 -142Q293 -174 295 -206Q295 -216 294 -221L292 -222Q290 -220 288 -219L287 -220Q301 -235 301 -275ZM895 -164H894Q888 -164 888 -171Q891 -181 894 -191H898Q900 -187 900 -184Q898 -174 895 -164ZM737 33V34Q718 31 711 21Q714 18 720 18Q735 19 737 33ZM744 -482H741Q716 -470 691 -459Q669 -451 647 -443Q627 -431 600 -419Q581 -410 576 -390Q571 -370 568 -350Q574 -343 584 -343Q600 -345 615 -348Q621 -348 624 -344Q618 -340 611 -337Q603 -333 602 -324Q607 -316 616 -316Q635 -321 651 -330Q675 -337 701 -343Q727 -350 741 -362Q733 -370 721 -370Q711 -370 688 -361Q666 -352 655 -352Q649 -352 647 -353Q659 -366 697 -375Q728 -383 739 -390Q734 -414 708 -416Q699 -416 690 -412Q736 -445 744 -482ZM459 -397Q464 -382 469 -367Q443 -337 438 -325Q442 -325 446 -323Q428 -308 423 -284Q418 -260 411 -226Q398 -171 398 -100V-62Q389 -26 386 -25Q374 -23 373 -16Q366 -20 358 -20Q352 -17 352 -10L351 -13Q351 -17 349 -17Q335 -14 320 -11Q334 -18 348 -26Q345 -33 329 -39Q313 -45 309 -53Q264 -44 264 -22Q265 -19 265 -16Q252 -12 252 -4V-2Q247 -1 242 -1Q221 -1 199 -21Q182 -37 170 -40Q166 -53 164 -55H156Q152 -55 151 -56Q151 -66 160 -71Q159 -79 152 -93Q145 -107 145 -114Q145 -119 148 -125Q161 -113 169 -97Q177 -79 196 -71Q197 -74 197 -81Q197 -92 188 -121Q169 -183 127 -241Q115 -232 115 -219Q115 -209 123 -190Q132 -169 132 -159Q132 -152 130 -148Q101 -187 69 -221H65Q35 -221 35 -264Q36 -289 37 -314V-317Q37 -331 24 -355Q13 -375 13 -388Q19 -386 22 -378Q25 -369 28 -362Q38 -347 49 -341Q49 -349 42 -360Q36 -371 35 -379Q40 -376 47 -367Q57 -355 66 -353L67 -357Q65 -364 62 -371V-374L65 -376Q67 -376 70 -370Q75 -362 78 -361Q85 -364 94 -371Q105 -374 112 -374Q126 -374 147 -362Q168 -350 181 -349Q182 -328 199 -313Q222 -327 245 -342Q267 -357 284 -377Q274 -382 268 -382Q257 -382 238 -370Q219 -358 210 -358V-360Q210 -365 216 -368Q221 -371 225 -373Q291 -422 352 -478H365Q371 -478 373 -476Q381 -485 386 -496Q390 -507 407 -517Q409 -508 418 -492Q438 -454 450 -422Q448 -432 448 -435Q447 -452 456 -468Q468 -489 491 -498Q535 -500 569 -514Q602 -529 634 -544Q635 -546 635 -549Q634 -557 632 -565Q632 -568 634 -569Q624 -604 618 -645Q613 -686 584 -705Q599 -754 634 -782Q659 -800 690 -800H697Q705 -794 715 -786Q724 -778 725 -768Q725 -763 724 -761H723Q718 -761 714 -766Q710 -771 707 -771Q697 -766 697 -757Q697 -739 742 -705Q748 -709 748 -714Q748 -719 744 -726Q738 -737 738 -742Q738 -746 739 -748Q745 -746 751 -738Q755 -733 758 -731Q756 -717 756 -710Q756 -693 762 -683Q729 -618 721 -581Q766 -595 790 -606Q826 -622 845 -644H847Q859 -646 870 -648L874 -647Q884 -653 892 -660Q900 -668 913 -669Q909 -653 901 -641Q903 -635 920 -621Q924 -624 928 -628Q930 -628 932 -626L935 -624Q933 -620 931 -616V-614H933Q938 -614 946 -621Q954 -628 961 -629Q944 -616 944 -600Q944 -594 947 -587Q950 -587 952 -591Q954 -595 958 -596Q960 -596 962 -594Q959 -585 959 -577Q959 -559 972 -533Q965 -518 965 -492H963Q952 -492 939 -485Q927 -478 920 -478Q920 -487 937 -496Q952 -504 952 -511Q952 -516 948 -521Q868 -495 842 -428Q848 -430 860 -439Q881 -455 894 -455H895V-454Q895 -450 889 -447Q884 -445 880 -443Q862 -431 827 -384H818Q812 -384 810 -381Q813 -375 816 -375Q824 -376 832 -378H833Q832 -374 830 -370V-369Q842 -377 859 -380H861Q853 -372 844 -364Q835 -357 833 -343V-342Q833 -338 837 -338Q841 -338 844 -336Q838 -328 838 -312V-291Q822 -278 776 -269Q738 -261 724 -254Q718 -242 718 -233Q719 -227 720 -221Q765 -230 787 -242Q790 -239 790 -234V-231Q796 -231 805 -237Q814 -243 819 -243Q821 -243 827 -240Q821 -234 815 -227Q809 -221 808 -209Q809 -206 816 -205Q821 -205 823 -203Q815 -195 815 -194Q815 -184 807 -170Q799 -156 799 -144Q799 -137 800 -134Q761 -128 724 -119Q716 -118 708 -108V-89Q735 -77 793 -59Q808 -54 823 -50Q845 -51 851 -93Q855 -91 855 -80Q855 -71 854 -63Q854 -57 857 -54Q865 -131 873 -209V-143Q873 -82 880 -51Q886 -65 887 -101Q888 -134 892 -147Q897 -135 897 -106Q898 -75 901 -65Q904 -66 904 -68Q904 -70 907 -70H908Q913 -13 947 6V8Q947 19 960 41Q970 58 972 67Q973 71 973 74Q973 93 955 107Q941 118 917 123Q912 126 912 129L913 132Q903 127 891 125Q886 125 884 126Q866 118 833 94Q804 74 787 65Q778 61 769 58Q760 54 757 43Q775 43 795 57Q816 72 833 72Q819 41 789 28Q758 14 729 -2Q727 -1 724 -1H723Q706 -14 681 -23Q654 -34 647 -34Q639 -34 634 -30Q635 -21 649 -14Q664 -7 665 1Q639 -7 615 -17Q590 -28 561 -30Q523 18 507 46Q493 53 479 53Q472 53 467 52Q464 44 451 36Q441 30 437 25Q426 11 426 -27Q426 -40 427 -45Q434 -55 437 -65V-68Q432 -85 427 -99V-102H428Q433 -102 439 -92Q445 -81 451 -80Q492 -95 518 -125Q545 -155 578 -179Q584 -177 589 -177Q594 -177 602 -179Q624 -170 624 -127Q624 -113 623 -107H625Q634 -107 642 -108H644Q641 -142 638 -177Q638 -194 642 -203Q637 -208 637 -216H635Q623 -216 603 -200Q585 -186 574 -185H571Q547 -185 537 -211Q503 -216 503 -254Q507 -299 528 -327Q478 -358 459 -397Z"/>
</svg>