<svg xmlns="http://www.w3.org/2000/svg" viewBox="0 -800 1024 1024">
	<path fill="#000000" d="M820 -227Q817 -206 816 -204Q809 -204 809 -217Q809 -228 816 -228ZM111 -565Q108 -552 105 -539Q98 -541 98 -553Q99 -561 99 -569Q105 -567 111 -565ZM784 -386H780Q784 -402 800 -404Q807 -404 811 -397Q805 -395 800 -392Q791 -386 784 -386ZM589 50L588 46Q588 37 598 37Q606 37 614 41L615 45Q613 51 611 57Q599 56 589 50ZM366 -449H364Q344 -449 322 -441Q294 -431 294 -414Q294 -407 298 -400Q309 -418 329 -428Q348 -438 366 -449ZM739 -491V-494Q739 -496 741 -502Q733 -506 732 -506V-508L733 -512V-514Q727 -514 723 -519Q720 -522 718 -527H716Q705 -523 702 -520Q709 -539 723 -552Q736 -566 749 -580H746Q736 -580 720 -571Q708 -564 703 -563Q690 -560 677 -559Q663 -559 652 -552Q664 -541 679 -532Q694 -523 696 -502Q679 -497 677 -480Q677 -476 678 -474Q689 -479 715 -483Q749 -488 761 -496L757 -497Q748 -494 739 -491ZM684 -47H687Q718 -44 749 -42Q778 -42 783 -61Q779 -60 772 -60Q747 -62 727 -75Q720 -79 712 -84Q704 -90 703 -97V-100Q725 -94 748 -91Q741 -104 720 -118Q716 -121 684 -139Q666 -151 658 -151Q659 -143 672 -129Q682 -118 682 -112Q682 -108 679 -104Q662 -119 645 -133Q628 -147 606 -157Q595 -151 569 -120Q539 -84 527 -82H522Q512 -82 503 -92Q493 -103 481 -104Q476 -93 460 -75Q442 -54 437 -40Q451 -37 482 -37Q550 -40 617 -44H623Q638 -42 653 -41Q665 -45 684 -47ZM188 96H186Q177 96 166 90Q155 84 148 84Q145 85 142 85Q134 74 132 49Q129 19 120 8Q120 5 123 5Q126 5 126 2V1Q122 -21 101 -60Q82 -96 78 -124Q95 -96 112 -68Q128 -39 151 -17Q172 -26 200 -52Q230 -80 247 -89Q242 -99 230 -104Q218 -109 205 -113Q179 -119 176 -142Q176 -149 179 -158Q176 -166 168 -174Q158 -184 157 -191V-193Q159 -202 161 -211V-213Q161 -217 155 -223Q152 -227 151 -230Q159 -228 166 -227H169Q169 -231 159 -239Q149 -247 149 -251Q166 -248 182 -245Q188 -245 193 -250Q200 -246 208 -246Q227 -249 245 -253Q254 -253 259 -248Q254 -242 247 -238Q239 -234 237 -226Q237 -224 242 -223Q245 -222 246 -220Q260 -226 325 -245Q369 -258 394 -279Q391 -280 386 -280Q366 -278 345 -271Q329 -267 313 -263Q307 -263 304 -268Q387 -306 471 -342H472Q475 -342 475 -339V-336Q505 -326 505 -272Q505 -262 503 -242Q443 -234 411 -196Q340 -114 317 -82Q296 -53 272 -23Q247 7 232 41V43Q229 45 226 46Q226 49 228 57Q195 66 188 96ZM688 57H676Q676 47 679 41Q720 45 761 49Q808 56 824 56Q843 56 853 50Q816 33 762 27Q707 21 650 16Q626 13 590 13Q547 13 518 16Q509 17 507 18Q502 20 502 28V31Q518 37 541 38Q564 39 570 57H565Q528 56 490 55Q421 55 410 88Q356 56 333 1Q322 -8 318 -9Q380 -86 407 -181Q415 -192 440 -192Q468 -192 468 -172V-170Q483 -165 497 -161Q507 -166 522 -178Q540 -193 552 -197Q551 -203 545 -210Q538 -218 538 -224Q539 -240 565 -240Q584 -240 597 -235Q624 -258 649 -282Q633 -280 603 -263Q565 -244 556 -244H554Q530 -248 520 -271Q522 -282 526 -289Q523 -296 523 -303Q526 -326 552 -334Q580 -343 600 -346V-366Q600 -390 606 -398Q610 -396 612 -379Q614 -365 623 -365Q629 -386 629 -414Q629 -433 625 -455H623Q615 -455 614 -440Q613 -430 610 -427Q603 -429 603 -440Q604 -443 604 -446Q604 -449 603 -452Q603 -460 601 -472Q597 -493 592 -514Q592 -524 603 -531Q579 -524 575 -521H572L573 -524H570Q486 -513 429 -471Q433 -464 440 -464Q449 -464 465 -472V-471Q465 -468 458 -462Q454 -458 452 -455Q469 -460 487 -463Q489 -463 497 -461Q490 -457 479 -454Q469 -452 467 -442L466 -440Q466 -438 470 -437Q474 -436 474 -434Q472 -426 472 -421Q472 -409 480 -405Q470 -400 464 -381Q458 -363 452 -359Q427 -354 396 -324Q376 -305 363 -298Q355 -300 352 -300Q349 -300 343 -298Q341 -300 316 -314Q298 -324 296 -336V-339Q298 -350 300 -362Q300 -366 299 -368Q290 -361 278 -352Q265 -343 249 -340H244Q223 -343 202 -347Q193 -347 188 -342Q186 -355 176 -358H173Q162 -357 153 -348Q144 -339 137 -334Q138 -339 142 -345Q148 -354 148 -360V-362Q147 -373 133 -385Q119 -397 111 -397H110Q106 -397 101 -391Q96 -386 92 -386H90Q93 -393 96 -401V-403Q73 -431 72 -434Q54 -441 54 -474Q55 -487 55 -500V-505Q73 -501 82 -501Q95 -501 102 -506Q103 -517 104 -528V-532Q113 -524 117 -512H143Q147 -535 154 -557Q156 -552 157 -539Q158 -521 163 -515Q168 -507 174 -507Q180 -507 188 -520Q193 -518 199 -503Q225 -508 250 -514Q278 -524 305 -535Q424 -573 477 -586Q470 -609 463 -632Q457 -655 434 -661Q433 -677 423 -685Q413 -693 396 -693Q392 -692 387 -692Q409 -717 437 -735Q466 -753 494 -772Q546 -770 573 -734Q591 -708 595 -685V-684Q595 -675 587 -657Q576 -632 576 -620V-615Q587 -615 618 -623Q646 -630 665 -631V-618L661 -619Q650 -619 644 -604Q644 -599 650 -598Q657 -596 658 -595Q676 -602 694 -606Q711 -610 726 -623V-624Q725 -627 723 -630V-631H721Q714 -630 707 -630Q699 -630 696 -634Q711 -646 740 -648Q768 -650 786 -652Q804 -683 843 -686Q861 -686 875 -676Q900 -691 926 -704Q919 -696 905 -688Q892 -680 888 -664H889Q892 -664 897 -669Q903 -675 910 -675H912Q906 -666 900 -661Q894 -655 893 -647V-646Q894 -640 904 -631Q914 -623 917 -616Q921 -609 922 -601Q924 -590 929 -586Q928 -575 921 -557Q914 -539 914 -530H909Q821 -530 777 -478Q770 -481 762 -484Q752 -480 752 -474V-472H754Q762 -475 770 -478L773 -477L774 -475Q773 -473 768 -470Q763 -468 762 -462V-461Q762 -457 767 -457H771Q768 -451 768 -441Q768 -435 770 -425Q761 -421 759 -415V-414L762 -412L766 -411L765 -409Q753 -406 731 -404Q703 -402 695 -401Q656 -396 656 -370V-364Q709 -369 723 -379Q724 -375 724 -372V-370Q727 -369 733 -369Q752 -372 770 -380Q767 -376 761 -370Q753 -363 751 -359Q752 -353 765 -348Q760 -344 760 -337Q760 -332 768 -313Q760 -301 758 -280V-277Q722 -273 701 -253Q681 -232 661 -211Q682 -198 703 -185Q736 -166 749 -166Q756 -166 762 -169Q769 -163 774 -158Q781 -166 782 -178Q784 -166 788 -151L790 -149Q793 -151 796 -154H797Q798 -147 804 -139Q808 -146 809 -164Q810 -186 816 -191Q819 -172 818 -149Q818 -125 829 -115Q831 -129 831 -161V-169Q831 -227 841 -247Q842 -233 842 -204V-136Q842 -108 843 -95Q846 -105 848 -128Q850 -158 856 -169Q858 -142 859 -111Q859 -81 875 -65Q882 -88 885 -118Q893 -70 902 -53Q922 -46 933 -30Q945 -14 956 2Q942 20 937 47Q932 74 924 97Q888 93 827 78Q741 57 688 57Z"/>
</svg>