<svg xmlns="http://www.w3.org/2000/svg" viewBox="0 -800 1024 1024">
	<path fill="#000000" d="M430 -17H429Q420 -19 419 -31Q419 -39 427 -39H430ZM803 -467H809Q796 -454 789 -454Q785 -454 783 -455Q786 -467 803 -467ZM535 -431V-432Q535 -442 543 -442Q551 -442 560 -435Q555 -428 545 -428Q540 -428 535 -431ZM253 -635Q244 -625 227 -623L226 -627Q226 -633 232 -637Q237 -641 243 -641Q252 -641 253 -635ZM542 57Q535 53 526 53Q494 58 478 82Q502 79 514 75Q536 69 542 57ZM571 -476H567Q566 -476 539 -491Q523 -499 505 -512Q487 -525 485 -549Q485 -555 486 -559Q489 -576 515 -591Q541 -606 567 -606Q587 -606 598 -596H600Q604 -596 608 -597H610Q610 -594 609 -591V-588Q621 -593 636 -596Q618 -580 618 -567Q619 -563 619 -560Q620 -557 623 -555Q627 -553 628 -551V-550Q628 -546 627 -543Q633 -526 638 -509Q627 -501 609 -489Q591 -477 571 -476ZM838 -619H842Q859 -604 871 -576Q876 -565 890 -524Q885 -528 878 -528Q860 -528 853 -497Q847 -495 836 -495Q814 -497 791 -500Q780 -511 755 -511Q738 -511 732 -501L731 -503Q731 -505 736 -508Q739 -510 740 -512Q737 -533 710 -533H702Q705 -539 705 -544Q705 -550 699 -565Q692 -583 692 -594Q692 -600 693 -603Q710 -616 712 -628Q723 -626 724 -625Q736 -628 750 -628Q794 -623 838 -619ZM926 -203H909Q895 -200 893 -191L895 -188Q900 -190 905 -193Q907 -193 909 -191L911 -190Q908 -186 904 -182Q917 -177 917 -176Q916 -159 899 -114Q896 -115 891 -115Q885 -115 878 -111Q843 -124 782 -124Q750 -124 735 -122Q722 -96 714 -71Q701 -48 674 -22Q658 -7 625 19Q620 28 611 30Q608 30 606 28Q615 10 634 -6Q658 -28 663 -44Q645 -38 600 -2Q586 10 571 21Q552 36 550 49Q552 51 554 51Q565 48 575 45H579Q576 57 566 62Q556 68 548 73Q530 86 511 90Q507 95 503 99L481 102Q458 83 437 81Q432 71 432 58Q434 37 436 16Q436 7 433 -5Q437 -3 441 5Q445 13 449 15V13Q445 -11 441 -36Q441 -47 446 -53Q448 -28 459 -14Q459 -23 455 -40Q450 -61 450 -73V-82Q455 -76 465 -44Q473 -20 487 -17H489Q503 -17 535 -33Q568 -46 595 -67Q624 -89 636 -114Q606 -116 591 -116Q520 -116 430 -95Q377 -84 341 -70Q304 -56 287 -11Q277 -8 268 -8Q240 -11 210 -19Q207 -30 187 -42Q168 -54 166 -66V-69Q170 -82 173 -96Q172 -108 170 -121Q170 -132 178 -137Q216 -150 246 -174Q276 -198 323 -201H330Q325 -196 299 -186Q279 -178 276 -162Q287 -159 300 -158V-152Q298 -149 290 -148Q279 -146 279 -139V-138Q288 -134 301 -134Q341 -139 380 -144Q472 -150 517 -159Q513 -165 501 -165Q491 -164 481 -164Q377 -158 365 -158Q369 -168 380 -168Q390 -169 400 -170Q476 -181 539 -188Q522 -197 507 -208Q491 -220 490 -241V-243Q493 -266 514 -280Q534 -294 553 -308Q585 -333 598 -347Q557 -336 506 -324Q454 -311 413 -286Q404 -279 395 -268Q386 -258 374 -257Q351 -260 336 -272Q329 -281 324 -291Q318 -301 305 -305Q302 -338 302 -341Q299 -360 289 -372L291 -374Q293 -373 295 -372Q292 -385 289 -399V-401Q293 -401 296 -396Q300 -390 305 -390Q307 -392 307 -394Q307 -397 299 -406Q293 -412 292 -417Q249 -396 228 -372Q212 -383 199 -383Q189 -383 182 -375Q181 -377 181 -380Q183 -384 184 -389Q182 -390 177 -390Q170 -390 158 -379Q150 -372 145 -371Q167 -418 207 -461Q213 -468 219 -474Q226 -481 237 -482Q236 -469 223 -452Q211 -435 209 -421H210Q216 -425 221 -435Q244 -461 286 -521Q282 -524 276 -524Q268 -524 261 -517Q255 -510 253 -501Q252 -504 252 -510Q253 -525 254 -540Q254 -557 246 -566Q261 -573 300 -583Q329 -590 344 -596Q351 -585 367 -585Q365 -591 353 -595L351 -594L350 -596Q350 -599 356 -603Q362 -607 362 -610V-611Q359 -614 351 -614Q345 -614 333 -611Q336 -614 354 -622Q353 -636 334 -636Q332 -636 314 -633Q327 -644 344 -650H338Q310 -646 270 -639Q346 -684 487 -714Q482 -701 468 -696Q454 -691 441 -686Q402 -672 392 -660H400Q427 -660 475 -681Q534 -701 580 -729Q574 -735 566 -735Q555 -735 529 -722V-725Q530 -733 536 -736Q542 -739 547 -741Q564 -751 571 -753Q572 -777 586 -787Q598 -795 619 -795Q635 -794 651 -794Q657 -794 662 -795H665Q688 -790 701 -772Q715 -754 726 -741Q727 -735 727 -724Q724 -690 721 -657Q710 -648 678 -646Q645 -644 633 -635Q630 -636 623 -636Q594 -635 563 -620Q532 -606 509 -596Q489 -587 483 -582Q467 -570 452 -556Q437 -542 413 -537Q412 -533 412 -526Q412 -512 421 -494Q411 -478 400 -444Q384 -446 377 -446Q342 -446 296 -421Q308 -409 326 -401Q346 -410 369 -410Q384 -410 394 -407Q405 -411 415 -416Q419 -415 428 -415Q440 -415 464 -422Q485 -428 497 -428Q506 -428 515 -425Q491 -415 443 -405Q402 -396 391 -393Q396 -392 408 -392Q455 -396 508 -411Q570 -421 631 -434Q628 -438 620 -438Q609 -436 597 -435Q591 -435 588 -438Q591 -444 598 -446Q606 -447 613 -449Q661 -460 708 -471Q750 -458 761 -447H763Q769 -448 774 -449H776Q772 -441 767 -437Q773 -435 777 -435Q784 -435 800 -442Q813 -448 822 -449Q812 -444 801 -438Q790 -433 785 -421Q787 -417 789 -414Q799 -418 809 -422Q799 -407 799 -402Q799 -397 803 -393H805Q808 -394 811 -395H813Q807 -390 807 -385Q807 -374 816 -365Q807 -358 807 -346Q807 -338 815 -333Q808 -316 800 -299Q791 -303 777 -303Q756 -301 735 -299Q738 -307 756 -312Q772 -316 776 -321Q769 -326 755 -326Q734 -326 690 -309Q660 -296 633 -273Q645 -273 669 -281Q689 -288 699 -289Q694 -280 685 -276Q677 -272 668 -267Q659 -262 636 -246Q664 -222 690 -197Q716 -203 733 -203Q745 -203 754 -200Q749 -193 729 -191Q711 -189 706 -185Q713 -184 728 -184Q776 -186 824 -189Q819 -197 807 -197Q803 -197 797 -195V-196Q797 -205 807 -208Q814 -210 830 -210H838Q847 -210 857 -212Q865 -218 871 -221V-220Q869 -215 867 -210L868 -207Q873 -202 882 -202Q897 -203 911 -205Q918 -205 921 -204Q926 -204 926 -203Z"/>
</svg>