<svg xmlns="http://www.w3.org/2000/svg" viewBox="0 -800 1024 1024">
	<path fill="#000000" d="M103 -320H104Q112 -320 112 -308Q112 -298 106 -298Q101 -300 101 -308Q101 -314 103 -320ZM763 -448V-444Q763 -432 748 -426Q747 -428 747 -433Q747 -448 761 -448ZM206 -207H197Q203 -220 208 -233Q211 -232 214 -232H217Q214 -216 206 -207ZM588 -748Q573 -743 556 -742L555 -745Q558 -754 574 -755Q585 -755 588 -748ZM562 -307V-294Q589 -300 593 -311Q587 -313 584 -313Q577 -313 562 -307ZM575 -144Q573 -145 570 -145Q559 -141 548 -138Q547 -135 547 -126Q547 -120 548 -118Q572 -121 575 -144ZM489 -280V-282Q489 -286 488 -290V-292Q475 -290 462 -288V-286Q462 -283 455 -281Q446 -278 446 -272V-271Q448 -270 453 -270Q471 -274 489 -280ZM682 -154Q668 -154 653 -155Q622 -155 610 -148Q623 -143 630 -133Q632 -138 638 -139Q642 -139 643 -136Q639 -129 634 -122Q643 -113 645 -84Q650 -96 661 -113Q678 -139 682 -154ZM482 -47V-46Q490 -46 511 -55Q532 -64 544 -64Q548 -64 554 -62Q550 -60 545 -58Q539 -57 538 -52Q548 -51 571 -41Q597 -30 607 -30Q625 -30 630 -52Q620 -47 613 -47Q598 -47 584 -60Q572 -71 566 -87Q543 -81 506 -71Q484 -64 482 -47ZM479 -342V-352Q464 -348 448 -345Q442 -352 430 -352Q427 -352 403 -349Q404 -352 412 -357Q419 -361 419 -364L418 -367H413Q406 -367 394 -361Q386 -357 381 -357H380Q383 -369 393 -374Q402 -380 412 -385Q465 -414 473 -419Q508 -440 526 -460Q481 -456 470 -440Q434 -439 406 -415Q382 -394 368 -357Q376 -355 389 -344Q402 -333 412 -331Q417 -330 421 -330Q432 -330 452 -336Q471 -342 479 -342ZM434 -533H435Q452 -537 468 -541Q565 -558 577 -559Q583 -564 589 -567Q592 -567 593 -565Q595 -575 604 -589Q610 -598 612 -604Q558 -598 512 -583Q466 -569 417 -553Q420 -551 424 -544Q429 -535 434 -533ZM492 -181V-186Q492 -197 491 -209V-216H490Q486 -216 486 -213Q486 -211 483 -210Q479 -214 474 -214Q467 -214 454 -202Q444 -192 439 -191Q432 -188 423 -188Q398 -188 378 -208H376L372 -207L371 -208Q372 -210 372 -213Q372 -217 371 -219Q364 -226 353 -245Q340 -268 329 -276Q318 -252 305 -230Q293 -207 286 -179Q296 -184 308 -184Q326 -184 351 -163Q415 -173 492 -181ZM768 45H766Q760 48 754 50Q747 67 732 76Q715 85 702 97Q685 90 667 87Q662 87 659 88Q653 79 632 68Q613 58 606 50Q599 13 578 2L582 1Q590 3 597 4H599Q593 -5 568 -17Q551 -25 545 -32H548Q557 -32 569 -27Q580 -22 587 -21Q582 -27 561 -33Q538 -40 530 -49Q513 -48 501 -36Q493 -28 485 -12Q479 -9 474 -9Q464 -10 455 -16Q446 -23 439 -29H436Q416 -30 412 -47V-48Q412 -53 419 -63Q425 -72 425 -77Q425 -80 424 -82Q449 -106 470 -112Q467 -104 462 -98Q465 -96 471 -96Q485 -98 495 -103V-125Q447 -119 427 -112Q400 -103 400 -74Q400 -58 417 -7Q412 8 407 22Q402 36 391 45Q387 46 382 46Q362 46 339 29Q322 17 309 14L308 12Q308 11 311 10Q314 9 314 6L313 4Q299 -58 259 -87Q257 -103 255 -112Q238 -85 225 -39Q216 -7 206 45Q204 44 201 44Q196 44 187 50Q178 56 171 56Q166 56 160 53Q153 25 120 17Q108 6 104 -14Q101 -33 94 -49Q102 -60 102 -76Q99 -104 95 -132Q95 -138 97 -148Q105 -142 107 -129Q109 -116 114 -106Q121 -116 121 -131Q117 -166 109 -208Q107 -236 105 -264Q105 -271 107 -285Q111 -271 120 -221Q131 -164 141 -135Q153 -140 167 -161Q181 -181 191 -187Q188 -178 180 -165Q171 -152 170 -138Q170 -129 177 -122Q200 -145 214 -175Q228 -204 242 -235Q282 -311 295 -358Q272 -348 262 -311Q251 -295 233 -257Q228 -244 223 -242Q222 -244 222 -249Q223 -264 232 -277Q241 -291 249 -305L267 -343Q289 -383 304 -418Q310 -436 316 -454Q326 -482 326 -489Q326 -499 319 -509Q310 -509 294 -500Q282 -494 274 -493H271Q248 -495 230 -513Q212 -531 199 -547Q179 -551 166 -568Q162 -592 162 -601Q162 -611 166 -622Q169 -629 179 -641Q188 -652 190 -658Q191 -661 191 -665Q191 -669 190 -674Q190 -680 193 -685Q209 -705 229 -719Q232 -721 237 -721H245Q255 -723 278 -735Q306 -749 323 -750Q321 -746 315 -741Q305 -733 305 -727Q305 -723 306 -721Q326 -719 336 -719Q367 -719 426 -729Q485 -739 510 -739H516Q461 -719 403 -713Q387 -712 373 -710Q358 -708 351 -696Q359 -684 380 -684Q416 -688 445 -697Q501 -708 560 -719Q620 -731 664 -748Q659 -754 647 -754Q630 -752 613 -750Q608 -750 606 -751Q607 -760 615 -762Q623 -764 630 -765Q659 -771 661 -772Q678 -777 697 -784Q715 -791 735 -792Q753 -792 772 -782Q774 -783 780 -787Q787 -792 791 -792L794 -791V-789Q794 -788 791 -784Q787 -779 787 -775V-773Q795 -773 809 -784Q825 -796 835 -796H836Q835 -791 824 -783Q809 -772 807 -762L806 -760H807Q814 -763 821 -766L823 -762Q821 -756 818 -750V-745Q818 -720 840 -712Q839 -709 839 -702Q839 -689 845 -675Q841 -669 837 -653Q832 -633 825 -627Q801 -625 776 -600Q758 -582 744 -577V-578Q744 -592 759 -604Q772 -615 774 -625Q768 -632 761 -632Q751 -632 741 -624Q696 -585 680 -535Q680 -531 679 -527Q679 -518 686 -514Q695 -523 702 -534Q708 -546 724 -549Q721 -539 709 -523Q694 -504 693 -486Q685 -470 685 -466Q672 -463 665 -452Q629 -458 606 -478Q580 -474 554 -471Q560 -465 569 -465Q573 -465 581 -469Q589 -458 609 -451Q611 -431 619 -426Q619 -423 618 -421Q620 -408 622 -395Q622 -391 621 -388Q603 -384 584 -379Q566 -375 553 -365Q557 -360 560 -355Q582 -360 605 -361Q629 -363 634 -383Q655 -388 676 -390Q697 -391 713 -403L716 -401Q715 -397 714 -394V-392Q721 -393 728 -404Q736 -417 742 -418Q742 -409 735 -397Q730 -388 730 -382V-379Q730 -369 747 -355Q764 -340 766 -329Q767 -327 767 -323Q765 -309 763 -295V-291H748Q729 -282 710 -271Q692 -261 683 -241Q676 -238 671 -233Q669 -227 668 -221Q666 -215 660 -215Q657 -215 655 -216Q662 -239 676 -254Q691 -269 702 -288Q673 -285 658 -262Q643 -240 628 -219Q609 -224 596 -236Q575 -236 570 -235Q561 -233 551 -225Q550 -214 549 -203Q549 -196 551 -193Q624 -206 705 -211Q721 -228 762 -228Q785 -228 797 -223Q801 -224 804 -229Q809 -236 814 -236H818V-234Q817 -226 815 -219V-217Q822 -217 830 -231Q839 -245 848 -247Q838 -225 833 -204Q833 -198 834 -196H835Q838 -197 840 -202Q843 -208 849 -209L852 -208Q849 -200 849 -194Q849 -181 862 -156Q871 -139 873 -131Q866 -125 864 -115Q862 -104 859 -94Q856 -95 851 -95Q841 -95 830 -87Q819 -79 810 -78Q810 -84 815 -93Q819 -100 819 -106V-110Q817 -111 812 -111Q803 -111 795 -102Q793 -100 783 -84Q778 -87 772 -90Q764 -82 754 -76Q740 -50 725 -22Q709 6 708 44V51Q727 33 738 9Q749 -16 762 -40Q764 -40 771 -35Q778 -40 781 -48Q785 -55 797 -56Q781 -24 777 -15Q768 9 768 35Z"/>
</svg>