<svg xmlns="http://www.w3.org/2000/svg" viewBox="0 -800 1024 1024">
	<path fill="#000000" d="M561 -620Q561 -610 546 -604Q548 -621 556 -621Q559 -620 561 -620ZM46 -147Q33 -149 33 -162Q33 -166 34 -169Q47 -163 47 -151ZM158 -605H155Q151 -605 148 -608Q148 -620 164 -620H170Q170 -616 164 -612Q160 -609 158 -605ZM748 80H745Q734 66 720 54Q720 53 717 44Q698 19 687 -10Q681 -20 673 -29Q665 -38 664 -50Q669 -48 675 -42Q681 -36 684 -34Q682 -45 668 -60Q652 -77 652 -89V-90Q669 -74 685 -58Q684 -65 670 -82Q654 -102 653 -115Q662 -111 673 -98Q685 -84 694 -81Q711 -99 721 -133Q722 -135 736 -194Q745 -220 754 -247Q763 -281 788 -383Q760 -379 739 -368Q719 -357 699 -346Q702 -336 713 -319Q730 -293 730 -280V-277Q730 -271 721 -262Q712 -253 712 -244V-241Q709 -240 705 -234Q671 -170 635 -81Q632 -68 628 -56Q621 -48 614 -40Q610 -23 608 -4Q605 7 594 26Q580 49 579 63Q572 69 560 69Q540 69 530 57Q527 59 526 62Q524 65 520 65H517Q523 55 523 45Q523 34 509 15Q497 -2 494 -15Q488 -17 482 -19V-20Q482 -24 489 -26Q494 -27 494 -30V-31Q486 -46 457 -46Q445 -45 433 -45Q425 -45 411 -47Q425 -53 452 -56Q487 -60 500 -69Q508 -74 516 -88Q526 -104 537 -109L538 -105Q535 -94 531 -84Q531 -80 533 -78Q548 -89 562 -112Q569 -123 583 -153Q615 -217 623 -238Q604 -226 582 -184Q565 -151 552 -139Q556 -163 582 -208Q603 -239 617 -275Q606 -271 596 -271Q571 -273 560 -294Q548 -316 530 -329Q530 -338 529 -347Q529 -372 540 -383Q544 -428 569 -454Q590 -476 632 -490Q632 -489 617 -477Q608 -469 607 -458Q610 -453 615 -453Q619 -453 627 -458Q638 -465 643 -465Q648 -465 650 -463Q648 -457 636 -450Q624 -443 622 -435Q626 -431 632 -431Q647 -434 661 -443Q695 -457 736 -479Q746 -484 756 -489Q765 -493 770 -502Q763 -506 756 -506Q746 -506 723 -493Q698 -479 682 -478Q694 -494 714 -501Q733 -508 754 -518Q774 -526 782 -544Q802 -554 822 -554Q859 -554 866 -526Q873 -522 881 -522Q895 -524 908 -526Q900 -514 900 -505Q900 -496 909 -492Q914 -492 918 -496Q922 -501 926 -501H930Q926 -488 921 -475Q923 -469 927 -469Q933 -471 939 -473H941L943 -472Q941 -469 939 -466Q944 -467 952 -475Q963 -486 970 -487L971 -485Q967 -479 959 -470Q953 -459 953 -443Q953 -429 959 -420Q958 -412 956 -404Q960 -395 964 -386V-380Q963 -359 950 -349Q937 -340 924 -328Q919 -323 915 -312Q911 -300 906 -295Q905 -297 905 -302Q907 -313 908 -325Q908 -328 906 -334H904Q886 -334 877 -313Q871 -301 866 -271Q861 -272 856 -274Q839 -240 832 -206Q810 -112 810 -54V-47Q826 -70 838 -134Q847 -182 854 -200L858 -201Q862 -200 865 -199Q871 -205 878 -232Q884 -255 899 -257Q892 -241 883 -199Q877 -170 871 -151Q853 -102 848 -50V-41Q851 -32 853 -24Q851 15 831 47Q823 56 814 65Q805 73 800 83L796 82Q785 85 776 90Q772 90 763 85Q754 80 748 80ZM503 -87L500 -88H499Q494 -87 483 -75Q475 -65 472 -64Q466 -68 456 -68Q443 -68 440 -61Q435 -76 420 -79Q416 -79 413 -76Q397 -103 373 -116Q370 -112 370 -101Q371 -84 372 -68V-62Q362 -68 362 -100Q362 -123 358 -131Q347 -131 345 -101Q344 -92 344 -74Q344 -13 360 8Q366 4 366 -10Q366 -18 365 -27Q365 -32 367 -40Q377 -20 377 7Q377 37 366 66Q360 69 354 69Q349 69 335 63Q319 56 308 56H305Q302 45 291 24Q276 -6 274 -25Q273 -28 273 -34Q274 -45 274 -56V-61Q271 -73 268 -85Q273 -110 281 -138V-149Q281 -160 283 -166Q254 -144 233 -112Q211 -80 188 -50Q173 -33 159 -13Q144 7 143 39V41Q134 47 124 47Q102 47 87 28Q82 28 78 39Q76 35 76 33Q79 26 81 19Q80 12 73 6Q68 2 66 -3Q64 -9 64 -13Q65 -25 66 -37V-43Q63 -52 58 -59Q58 -62 57 -66Q60 -85 63 -104Q62 -112 54 -124Q47 -133 47 -139Q56 -138 61 -132Q65 -126 71 -122Q74 -126 74 -130Q70 -144 62 -156L31 -223Q39 -222 43 -215Q47 -209 50 -203Q55 -198 61 -194Q67 -189 69 -182L78 -176Q80 -171 96 -150Q98 -149 102 -149Q109 -149 126 -161Q140 -171 149 -173L150 -171Q150 -168 142 -162Q136 -158 134 -154Q124 -142 124 -130V-125Q134 -127 149 -144Q162 -158 170 -162Q197 -192 228 -219Q258 -246 281 -282Q260 -274 224 -237Q197 -209 181 -200V-201Q185 -215 198 -223L255 -282Q288 -316 337 -358L339 -361Q272 -336 266 -333Q223 -314 200 -289Q189 -276 175 -257Q160 -238 137 -236Q130 -236 121 -239Q109 -243 102 -256Q95 -268 87 -280Q82 -285 70 -291Q54 -299 50 -305Q43 -315 43 -329Q43 -338 47 -357Q52 -380 52 -392V-397Q51 -414 49 -432Q49 -443 55 -454Q65 -463 77 -469Q102 -491 126 -514Q127 -512 127 -508V-499Q135 -486 146 -486Q160 -489 173 -492H187Q195 -496 203 -501Q232 -509 259 -514Q249 -505 216 -494Q174 -480 163 -464V-463Q163 -460 167 -458Q171 -456 172 -455Q211 -469 250 -484Q269 -491 289 -499Q308 -506 320 -523Q319 -526 315 -526Q308 -524 301 -523L298 -524Q299 -532 313 -537Q325 -541 327 -547Q301 -565 278 -587Q265 -586 248 -574Q235 -564 226 -562Q227 -570 234 -574Q235 -575 247 -580Q252 -596 262 -605Q257 -618 247 -622Q240 -619 233 -617H231Q232 -623 237 -627Q242 -631 243 -633Q238 -638 228 -638Q215 -637 201 -631Q187 -624 178 -622Q189 -633 204 -641Q219 -649 232 -658Q234 -672 236 -686Q236 -691 235 -694Q233 -704 219 -709Q203 -715 200 -718Q216 -716 231 -715H235Q248 -728 248 -742Q248 -754 238 -764H241Q243 -764 249 -759Q254 -755 258 -754Q268 -757 281 -768Q297 -782 309 -784Q314 -785 317 -794Q319 -802 323 -803Q325 -795 326 -788Q343 -782 363 -766Q368 -768 373 -775Q379 -784 384 -785Q380 -769 376 -754V-752Q377 -747 385 -736Q392 -727 394 -721Q403 -699 407 -682L410 -680H414Q405 -674 405 -657Q406 -639 407 -621V-617Q404 -599 400 -582Q400 -575 402 -571Q427 -607 465 -607H471Q476 -603 481 -597Q490 -586 496 -583Q504 -584 512 -586Q509 -578 506 -571Q513 -573 523 -584Q534 -597 540 -599Q538 -591 530 -580Q522 -569 521 -555Q521 -548 523 -544L525 -543Q530 -545 534 -548L536 -547Q532 -535 532 -518Q535 -483 537 -449Q534 -407 520 -395Q500 -382 480 -374Q417 -330 364 -266L373 -239Q401 -272 428 -310Q429 -325 430 -327Q433 -336 441 -340Q443 -341 448 -341H456Q471 -349 486 -352Q492 -352 499 -349Q510 -343 513 -329Q515 -315 521 -304L523 -302Q526 -303 529 -305H530V-291Q530 -276 537 -275Q535 -262 532 -250L523 -247Q515 -233 488 -222Q465 -213 458 -205Q440 -205 435 -193Q437 -191 444 -188Q451 -185 453 -181Q456 -181 459 -184Q463 -188 467 -188H468L469 -186Q468 -182 467 -179L468 -176Q474 -178 480 -186Q487 -197 494 -197Q489 -184 486 -166Q486 -160 487 -157Q489 -155 492 -155Q497 -156 502 -157H503Q498 -152 498 -145Q500 -133 502 -121Q504 -107 504 -95Q504 -89 503 -87Z"/>
</svg>