<svg xmlns="http://www.w3.org/2000/svg" viewBox="0 -800 1024 1024">
	<path fill="#000000" d="M902 -553V-550Q902 -541 895 -539Q889 -537 881 -535Q884 -553 898 -553ZM497 -466Q667 -503 692 -505Q695 -516 712 -523Q726 -529 744 -529Q766 -529 777 -522Q784 -529 798 -531H800L801 -527Q798 -523 795 -516Q801 -506 812 -506Q820 -506 836 -516Q855 -528 865 -528Q867 -528 873 -526Q871 -522 860 -515Q847 -507 847 -501Q847 -498 848 -496Q865 -504 884 -515Q902 -527 929 -529Q893 -514 889 -512Q869 -500 862 -482Q864 -481 867 -481Q881 -484 895 -488Q901 -488 905 -487Q903 -481 890 -478Q875 -474 873 -465V-462Q873 -455 877 -449Q881 -443 889 -442Q881 -439 881 -422V-405Q871 -392 871 -382Q871 -376 874 -372Q862 -362 850 -346Q839 -330 828 -318Q823 -312 820 -306Q817 -299 810 -296Q807 -302 807 -307Q807 -320 820 -347Q821 -350 840 -385Q836 -389 831 -393Q782 -370 760 -257Q751 -211 740 -73Q739 -66 737 -60Q737 -57 740 -54Q746 -56 747 -62Q748 -69 749 -75Q755 -105 762 -150Q769 -195 779 -223Q782 -233 786 -243Q790 -254 802 -256Q771 -159 759 -15H749Q747 -21 746 -29Q746 -36 740 -39Q723 -28 723 6Q723 31 732 41Q739 38 743 21Q747 2 759 1Q754 42 751 82Q751 95 752 101Q732 115 715 131Q693 125 670 119Q653 101 636 82H635Q633 85 630 87H629Q627 79 627 75Q627 74 630 56Q624 47 609 47Q599 47 585 51Q573 47 553 47Q544 48 535 48Q499 54 488 54Q479 54 478 46Q497 41 547 38Q598 35 611 32Q600 22 562 22Q544 23 525 24Q496 26 436 34Q370 43 358 50Q376 53 404 49Q414 49 424 48Q435 48 438 52Q432 58 422 58H410Q370 65 336 77Q329 80 327 88Q326 94 319 95H312Q291 95 266 78Q254 70 229 46Q228 19 208 8Q224 -2 224 -27Q223 -38 222 -50Q221 -67 196 -133Q184 -181 171 -230Q183 -225 189 -197Q195 -169 200 -157Q216 -130 220 -113Q222 -118 226 -121Q216 -187 199 -257Q184 -296 181 -302Q168 -325 149 -329Q146 -321 146 -314Q146 -303 154 -281Q160 -265 161 -257L158 -256Q154 -257 150 -258L146 -257Q144 -266 141 -275V-280Q137 -286 130 -296Q123 -306 120 -322Q118 -338 118 -347Q118 -403 145 -403H147Q157 -415 166 -427Q174 -425 190 -425H215Q246 -425 257 -413Q271 -425 292 -425Q298 -423 304 -422Q320 -427 351 -434Q379 -440 406 -447Q391 -532 384 -607Q375 -614 328 -644Q325 -653 325 -660Q325 -681 354 -706Q365 -718 376 -729Q387 -739 399 -740Q402 -739 405 -739Q408 -755 421 -761Q434 -768 445 -776Q459 -779 468 -779Q489 -779 504 -769Q517 -760 530 -740Q539 -728 542 -723Q546 -718 548 -701Q537 -671 539 -660Q544 -657 549 -654Q652 -693 709 -724Q703 -716 700 -709Q707 -711 715 -716Q729 -725 737 -725Q742 -725 746 -724Q739 -717 731 -712Q723 -708 719 -698Q725 -688 738 -688Q747 -688 756 -689H760Q751 -672 748 -651Q748 -641 760 -640Q757 -631 753 -622Q754 -620 754 -615Q754 -605 741 -584Q730 -566 728 -558Q701 -558 674 -559H660Q662 -570 688 -572Q716 -574 718 -585Q711 -596 688 -596H679Q640 -596 590 -584Q535 -571 519 -554Q527 -548 536 -548Q544 -548 561 -553Q582 -559 592 -559Q602 -559 607 -557Q604 -548 594 -547Q584 -546 574 -545Q551 -541 538 -532Q508 -509 497 -466ZM331 -50Q336 -40 336 -32V-30Q344 -25 354 -25Q376 -29 398 -33Q511 -47 623 -61Q628 -72 635 -119Q664 -286 664 -332Q664 -349 677 -374Q688 -395 690 -406Q533 -388 390 -344Q343 -327 328 -314Q311 -300 311 -272Q311 -259 312 -252Q444 -279 475 -301Q469 -311 459 -311Q443 -310 425 -300Q406 -291 393 -287V-290Q393 -298 397 -298L400 -296Q412 -309 428 -316Q445 -322 460 -330Q467 -333 478 -348Q490 -363 501 -367L500 -363Q500 -359 504 -355Q522 -351 539 -341L576 -355Q574 -350 568 -345Q559 -339 559 -333Q570 -333 588 -344Q606 -355 617 -356Q605 -342 592 -328Q606 -333 619 -341Q631 -349 649 -351Q636 -342 616 -332Q597 -322 595 -307Q595 -297 601 -291Q599 -284 596 -278Q596 -275 599 -273Q603 -270 603 -267Q596 -242 578 -198Q563 -173 558 -150Q556 -141 549 -93Q545 -92 540 -92Q536 -92 534 -94Q532 -91 530 -84Q528 -77 524 -74Q522 -76 522 -83Q522 -88 523 -91Q513 -96 498 -96Q436 -90 379 -68Q376 -66 366 -58Q354 -48 349 -48H346Q337 -48 331 -50ZM328 -140Q403 -155 463 -174Q469 -192 474 -211Q403 -195 323 -173Q327 -152 328 -140Z"/>
</svg>