<svg xmlns="http://www.w3.org/2000/svg" viewBox="0 -800 1024 1024">
	<path fill="#000000" d="M951 -333V-339Q956 -342 960 -345Q963 -342 963 -340Q963 -336 953 -329Q951 -331 951 -333ZM823 -29H802V-32Q802 -40 810 -40Q815 -39 819 -39H820Q822 -34 823 -29ZM109 -381H111L112 -377Q112 -364 94 -360Q94 -381 109 -381ZM528 -159V-161Q495 -157 461 -151Q427 -145 411 -126Q465 -139 524 -146Q526 -152 528 -159ZM571 -230Q566 -234 560 -234Q549 -232 537 -230Q491 -224 456 -215Q414 -204 408 -186Q471 -199 549 -220Q554 -217 567 -215Q569 -222 571 -230ZM447 -502V-503Q436 -497 416 -493Q396 -490 377 -484Q344 -477 341 -447Q341 -437 343 -432Q366 -435 391 -439Q416 -443 435 -453Q436 -456 436 -464Q436 -476 433 -484Q434 -488 441 -494Q447 -499 447 -502ZM674 -470V-471Q674 -481 655 -481Q643 -480 630 -479Q631 -487 640 -492Q641 -493 656 -498Q649 -513 644 -516H643Q637 -516 628 -511Q621 -507 617 -507H615Q620 -518 637 -531Q650 -540 654 -546Q604 -544 524 -518Q530 -510 541 -473Q545 -471 553 -471Q577 -475 600 -479Q605 -479 611 -477Q607 -467 595 -465Q584 -464 573 -462Q546 -457 537 -443Q543 -442 548 -442Q561 -442 591 -451Q607 -456 621 -458Q649 -459 674 -470ZM441 -281H439Q451 -300 475 -302Q499 -305 521 -312Q528 -316 534 -321Q547 -321 556 -326Q551 -332 535 -339Q523 -344 519 -347Q513 -356 506 -360H504Q487 -357 475 -352Q456 -351 439 -345Q431 -340 422 -330Q412 -320 404 -312Q385 -296 377 -278H380Q394 -280 407 -283Q413 -283 417 -278Q402 -274 402 -263Q402 -258 404 -255Q410 -252 415 -252Q426 -253 436 -258Q453 -262 469 -267Q486 -273 490 -283Q484 -286 477 -286Q459 -283 441 -281ZM383 47V49Q380 48 377 46Q369 54 355 54Q338 54 324 43Q308 49 300 49V47Q300 42 308 36Q303 31 295 31Q287 31 270 43Q255 53 248 53H247Q251 44 265 33Q277 23 281 18Q272 4 269 -16Q269 -22 270 -26Q273 -31 283 -37Q293 -43 296 -47V-49Q295 -56 293 -63V-65Q302 -59 311 -53Q317 -54 322 -56H325Q360 -37 372 -27Q398 -6 398 18Q398 29 392 42L388 41Q383 41 383 47ZM805 15H801Q788 17 775 19Q769 25 759 43Q735 49 735 67Q736 70 736 73Q728 71 725 65Q721 58 716 53Q689 45 661 40H659Q647 23 616 3Q582 -19 570 -38Q570 -60 573 -69H570Q557 -69 540 -80Q526 -89 519 -89Q518 -82 518 -69V-62Q518 -46 515 -38L512 -37Q508 -37 507 -48Q506 -62 500 -62H499Q488 -62 488 -49Q490 -37 491 -26Q490 -4 489 18Q489 28 490 33Q494 53 501 59H502Q511 59 511 37Q511 23 510 9Q510 2 512 -2Q520 7 521 24Q523 42 525 58Q528 66 530 74Q530 76 528 82Q527 84 509 102Q489 122 475 122Q471 122 463 120Q449 100 448 98Q439 87 426 84Q415 61 394 56Q396 53 399 53Q408 55 416 57L420 56Q420 52 412 51Q405 50 404 46H407Q408 46 420 43Q446 13 446 -52Q446 -67 445 -75Q441 -76 433 -76Q421 -76 404 -68Q384 -59 372 -59H367Q357 -67 342 -91Q322 -124 303 -131Q297 -140 275 -162Q261 -158 255 -147Q248 -136 241 -126Q231 -118 220 -110Q216 -106 213 -101Q209 -95 203 -95H201Q203 -107 220 -124Q236 -140 236 -151V-155Q194 -137 161 -99Q151 -85 151 -71Q151 -62 156 -57Q161 -58 168 -66Q175 -74 179 -74Q181 -73 183 -72V-70Q183 -65 173 -51Q166 -41 164 -36H144Q131 -36 124 -35Q118 -41 108 -60Q97 -81 91 -89Q78 -102 78 -104V-105Q78 -108 84 -113Q91 -119 91 -122Q79 -139 64 -157Q50 -174 43 -192Q52 -186 71 -166Q85 -152 96 -143Q90 -160 67 -186Q40 -216 34 -234Q44 -227 77 -195Q102 -170 126 -164Q141 -171 169 -189Q193 -205 208 -212Q203 -219 197 -230Q187 -243 186 -246V-249Q190 -267 197 -287H199Q203 -286 206 -286H208Q210 -290 210 -292Q208 -298 205 -305Q231 -296 241 -290Q260 -279 266 -260Q281 -270 305 -294Q322 -312 330 -318Q321 -313 312 -310Q302 -306 296 -299H289Q264 -300 254 -316Q244 -332 233 -347Q233 -366 241 -380H235Q219 -381 204 -391Q190 -401 176 -408H174Q170 -406 165 -404L162 -405Q164 -411 165 -417Q165 -421 159 -425Q149 -416 140 -407Q130 -398 118 -392Q120 -401 130 -417Q139 -433 142 -443Q134 -451 124 -461Q114 -470 102 -471Q95 -471 87 -465Q94 -474 100 -484Q99 -490 87 -497Q81 -494 74 -491H72V-492Q72 -496 81 -504Q94 -515 96 -524V-528Q96 -535 95 -542Q95 -545 97 -551Q96 -554 89 -560Q82 -566 82 -571V-572Q89 -567 95 -567Q109 -567 115 -582Q108 -597 99 -611Q89 -625 88 -643V-645Q96 -640 106 -621Q117 -599 129 -594Q132 -595 132 -599Q131 -606 129 -614V-617Q135 -611 143 -606Q162 -620 173 -620Q182 -620 189 -614Q199 -624 203 -638Q208 -652 214 -665Q213 -646 211 -627Q211 -600 226 -600Q229 -600 232 -605Q236 -611 240 -611H241V-607Q243 -591 259 -583Q275 -576 285 -566Q321 -570 385 -587Q437 -601 456 -603Q452 -667 426 -684V-689Q424 -713 402 -715Q398 -715 388 -711Q390 -723 400 -727Q409 -731 417 -737Q412 -741 405 -741Q385 -737 370 -731Q374 -739 395 -752Q409 -762 423 -773Q479 -807 517 -807Q556 -807 567 -768H565Q558 -768 550 -775Q543 -781 539 -781Q535 -781 533 -780Q530 -775 530 -771Q535 -756 549 -744Q554 -736 559 -726Q564 -717 573 -713Q574 -716 578 -717H580Q579 -728 577 -740Q579 -741 582 -741Q593 -741 593 -720V-716Q593 -704 580 -682Q567 -659 567 -645Q567 -637 570 -630Q625 -647 694 -656Q749 -660 775 -672Q785 -677 801 -692Q819 -708 832 -714H845Q847 -715 849 -723Q851 -733 857 -734Q870 -707 915 -701V-699Q915 -694 911 -690Q908 -687 907 -684Q911 -679 918 -679Q933 -681 947 -684Q952 -684 954 -683Q952 -681 941 -674Q932 -668 930 -662Q932 -652 944 -652Q946 -652 950 -654Q949 -650 945 -647Q937 -640 937 -636Q941 -627 944 -619Q945 -616 945 -609Q944 -596 943 -584Q943 -578 944 -575Q932 -574 917 -559Q905 -547 897 -546Q864 -544 854 -540Q856 -549 873 -555Q886 -559 889 -563Q888 -571 879 -578Q806 -570 768 -527Q759 -516 759 -508V-504Q771 -505 790 -518Q812 -534 826 -534H827Q820 -524 809 -518Q797 -513 787 -506Q780 -500 771 -485Q763 -472 758 -467H755Q751 -467 746 -468H744Q743 -466 743 -462Q743 -446 761 -440Q751 -429 749 -429V-428Q751 -424 752 -420V-418Q743 -415 736 -402Q728 -387 719 -386Q710 -390 694 -390Q668 -390 644 -380Q652 -375 664 -364Q679 -349 688 -345Q720 -370 784 -416Q782 -424 780 -432Q786 -431 793 -423Q799 -416 804 -415Q806 -416 811 -416Q817 -416 828 -410Q839 -404 847 -404H850Q844 -398 844 -392Q844 -381 857 -372V-369Q858 -349 859 -329Q859 -303 838 -299Q835 -298 829 -298Q815 -299 801 -300Q786 -300 777 -291Q821 -253 864 -239Q885 -249 910 -283Q928 -308 939 -317Q938 -303 922 -283Q903 -259 903 -240Q918 -250 942 -286Q963 -319 978 -330V-326Q978 -320 972 -316Q967 -312 963 -308Q951 -287 939 -267Q923 -243 923 -233Q923 -231 925 -225Q949 -253 957 -270Q960 -267 960 -264Q957 -254 951 -246Q937 -221 937 -192L940 -191Q943 -193 946 -195L948 -194Q948 -145 954 -120Q942 -90 907 -90Q860 -94 829 -129Q817 -134 816 -135Q810 -139 810 -146H813Q822 -146 834 -139Q845 -133 850 -133Q855 -133 858 -135Q850 -153 835 -163Q820 -174 804 -183Q790 -193 775 -204Q759 -215 739 -218Q741 -206 755 -194Q756 -193 775 -181Q787 -174 789 -164Q775 -167 754 -182Q741 -191 733 -195Q725 -193 717 -186Q708 -179 703 -177Q699 -176 690 -176Q681 -176 676 -174Q652 -165 639 -142Q626 -119 614 -99Q640 -95 665 -92H671Q678 -92 690 -101Q699 -108 707 -108L709 -106Q709 -105 705 -102Q700 -98 700 -95L701 -92Q704 -91 708 -91Q719 -91 735 -107Q747 -118 755 -122Q740 -100 731 -80Q735 -78 741 -78Q749 -78 763 -88Q776 -97 784 -97Q787 -96 789 -96Q779 -87 770 -77Q762 -67 759 -51Q761 -40 772 -37Q782 -34 793 -32Q774 -18 774 -6Q774 -2 775 0Q778 7 790 8Q802 9 805 15Z"/>
</svg>