<svg xmlns="http://www.w3.org/2000/svg" viewBox="0 -800 1024 1024">
	<path fill="#000000" d="M644 -629V-630Q517 -596 417 -517Q415 -503 415 -494Q415 -480 420 -474Q455 -483 497 -498Q538 -512 584 -519Q592 -529 599 -529V-543Q612 -563 644 -629ZM94 -28V-27Q93 -24 91 -22V-21L66 -30Q66 -33 65 -37V-40Q74 -39 94 -28ZM873 -117Q867 -104 860 -92Q857 -96 857 -105Q857 -121 865 -121Q869 -121 873 -117ZM699 -406Q709 -408 718 -411V-409Q719 -405 719 -401V-399Q742 -405 763 -409Q769 -409 773 -408Q762 -404 751 -401Q740 -397 737 -386Q740 -383 741 -383Q749 -386 756 -389H759Q758 -386 754 -381Q746 -372 746 -367L748 -364Q752 -365 755 -366L758 -364Q758 -360 753 -357Q749 -354 749 -350Q754 -337 754 -331Q754 -324 751 -321Q737 -307 680 -303Q633 -294 586 -285Q592 -278 609 -249Q646 -255 682 -262Q691 -265 699 -268Q751 -283 774 -292Q783 -287 791 -283Q807 -290 820 -291Q833 -292 846 -295Q846 -292 837 -289Q821 -283 821 -276V-274L824 -273Q833 -276 841 -279Q844 -279 846 -278Q833 -276 833 -264Q833 -254 843 -254Q848 -254 851 -255Q837 -243 838 -229Q838 -223 841 -219L842 -218Q845 -219 847 -221L850 -219V-217Q850 -212 849 -207Q849 -201 852 -195Q849 -189 839 -184Q828 -178 825 -171Q762 -166 650 -148Q652 -147 653 -145Q687 -115 722 -86Q757 -56 799 -37Q807 -41 811 -59Q814 -71 817 -75Q818 -72 821 -47Q823 -29 833 -26Q834 -32 834 -45Q832 -79 830 -113Q830 -129 832 -135Q840 -123 843 -82Q847 -31 862 -17Q861 -41 859 -65Q859 -77 862 -88Q868 -57 876 -29Q883 0 907 12Q913 34 922 51Q900 93 880 108Q863 109 853 112Q844 115 835 124Q813 118 788 113Q769 108 767 91L771 90Q783 92 794 94Q799 94 803 91Q798 76 774 60Q764 61 762 70Q760 78 756 85H755Q746 82 740 72Q722 53 702 33Q682 13 669 -7Q691 -5 717 21Q739 43 753 48Q752 37 743 29Q735 21 727 13Q672 -51 629 -84Q627 -78 627 -77Q627 -70 638 -57Q647 -47 647 -40Q647 -34 645 -31Q611 -58 543 -121Q538 -126 524 -126H523Q516 -124 508 -123Q487 -113 470 -91Q453 -68 438 -50Q397 -7 365 30V24Q365 8 385 -17Q401 -37 404 -50H398Q385 -49 378 -39Q372 -29 364 -16Q351 -1 333 13Q316 28 311 48Q311 53 310 58Q310 69 317 72Q322 70 328 59Q336 45 347 45H349Q347 55 337 70Q330 80 328 88Q293 90 275 93Q243 75 213 53Q208 38 196 31Q182 24 168 16Q172 14 174 14Q189 17 203 19H207Q197 14 164 7Q119 -3 100 -17H109Q128 -17 163 -7Q195 2 214 2Q220 2 225 1Q261 -5 291 -30Q320 -54 345 -77Q339 -75 327 -69Q305 -55 285 -51Q274 -51 262 -59Q250 -67 240 -75Q223 -83 203 -93Q183 -103 181 -125V-130Q185 -139 194 -153Q198 -161 199 -170Q200 -180 204 -185Q214 -198 231 -203Q248 -208 265 -214L258 -202Q293 -223 320 -226Q316 -227 312 -229Q279 -239 276 -274V-278Q283 -306 299 -323Q310 -335 330 -335Q340 -335 347 -332Q343 -317 323 -312Q323 -306 327 -304Q330 -302 334 -300Q343 -307 372 -311Q402 -315 411 -324Q409 -326 402 -326Q387 -323 371 -321Q363 -321 361 -327Q362 -332 382 -337Q402 -342 410 -344Q437 -350 464 -357Q537 -372 610 -387Q597 -396 582 -421Q524 -414 465 -395Q410 -384 401 -351Q396 -350 388 -350Q368 -350 339 -362Q319 -370 305 -372V-375Q307 -383 309 -392Q290 -427 269 -444Q242 -466 204 -468Q201 -485 194 -495Q186 -506 177 -517V-547Q177 -578 191 -597Q198 -605 206 -611Q214 -617 215 -627Q215 -634 211 -642H213Q220 -642 224 -638Q228 -641 232 -644Q233 -646 233 -649Q233 -656 225 -662Q217 -668 217 -674H218Q230 -669 250 -665Q257 -665 263 -672Q254 -687 242 -699Q238 -703 232 -707Q226 -710 224 -718Q239 -718 263 -701Q288 -683 303 -683Q309 -683 312 -684Q323 -676 335 -669Q347 -662 354 -648Q357 -647 363 -647Q375 -647 391 -654Q405 -660 411 -660H413V-659Q413 -652 401 -645Q388 -637 388 -627V-626Q394 -623 402 -623Q416 -623 448 -639Q471 -651 520 -670Q595 -699 623 -720Q618 -725 612 -725Q601 -721 589 -718Q538 -697 483 -681Q488 -694 500 -697Q513 -701 524 -704Q546 -713 568 -723Q588 -731 609 -738Q630 -746 647 -759Q656 -769 665 -780Q689 -802 727 -802Q762 -802 780 -780Q800 -789 802 -789L803 -787Q799 -782 795 -772L796 -768Q807 -769 826 -782Q841 -793 851 -795Q847 -785 836 -773Q823 -758 820 -750Q824 -751 831 -757Q840 -764 848 -764H850Q849 -760 840 -750Q831 -740 831 -733Q831 -727 833 -724L835 -723Q836 -723 838 -726Q840 -730 844 -730L847 -729Q840 -721 840 -709Q844 -688 847 -668Q846 -655 837 -643Q824 -626 823 -623H820Q802 -623 789 -608L790 -607Q794 -607 797 -608L799 -606V-605Q788 -596 774 -589Q772 -595 772 -596Q772 -602 777 -611Q781 -618 781 -621Q781 -626 777 -630H772Q760 -630 755 -622Q750 -615 745 -606Q734 -606 730 -605Q716 -595 707 -577Q698 -558 687 -537Q665 -493 662 -482Q658 -468 658 -460Q658 -451 662 -444Q675 -459 698 -503Q713 -532 725 -549Q731 -546 734 -546Q739 -546 744 -555Q751 -566 759 -566H760Q754 -542 733 -504Q708 -458 703 -431Q702 -423 699 -406ZM469 -223Q466 -247 463 -258Q432 -249 401 -241Q378 -233 342 -217Q339 -218 328 -222Q301 -209 298 -204Q304 -202 311 -201Q318 -200 320 -194Q360 -201 469 -223Z"/>
</svg>