<svg xmlns="http://www.w3.org/2000/svg" viewBox="0 -800 1024 1024">
	<path fill="#000000" d="M941 64Q932 74 916 83Q900 92 898 106Q882 110 863 110Q831 110 803 100Q797 88 781 69Q758 41 752 26Q765 28 778 49Q789 67 798 71Q799 68 799 65Q798 50 791 38Q783 26 776 14L734 -67Q716 -103 694 -114Q698 -95 711 -79Q724 -62 731 -48Q717 -52 710 -63Q702 -74 695 -84Q664 -132 647 -181Q627 -198 627 -234V-239Q633 -254 660 -273Q663 -273 667 -270Q671 -267 674 -267Q680 -271 681 -283Q682 -289 683 -289L689 -269Q704 -269 731 -233Q752 -204 772 -166Q794 -136 813 -108Q833 -81 857 -60Q862 -63 863 -114Q864 -164 870 -167Q875 -128 876 -84V-76Q876 -67 881 -66Q882 -73 882 -87Q881 -131 879 -175Q879 -200 884 -215Q891 -213 891 -202Q891 -195 890 -188Q892 -115 894 -42Q899 -51 899 -67Q899 -96 898 -126Q898 -137 901 -146Q910 -93 912 -35Q913 -24 925 8Q940 49 941 64ZM912 -176Q909 -171 909 -164Q909 -157 901 -156H900Q898 -162 898 -166Q898 -179 906 -179Q909 -179 912 -176ZM609 -473Q612 -445 614 -417Q662 -424 713 -432L731 -434Q719 -422 672 -414Q626 -406 613 -395Q625 -392 627 -392Q634 -392 640 -393Q697 -402 830 -435Q825 -443 814 -443Q796 -440 778 -437Q776 -437 773 -438Q777 -448 792 -450Q807 -453 821 -456Q848 -463 877 -494Q881 -468 906 -468Q916 -468 933 -473V-472Q933 -467 927 -463Q922 -460 922 -456V-453Q922 -450 926 -450Q930 -450 934 -451Q937 -451 939 -449Q935 -442 935 -433Q940 -393 944 -354Q944 -348 943 -345Q941 -338 932 -331Q922 -323 919 -317Q916 -319 912 -319Q910 -319 898 -312Q873 -323 863 -323Q856 -323 850 -320Q710 -316 608 -275Q607 -248 596 -173Q596 -164 588 -142Q582 -125 581 -115Q591 -118 605 -131Q622 -147 637 -149Q631 -139 628 -130Q628 -129 630 -123L632 -122Q636 -123 640 -125L643 -124Q636 -110 636 -93Q636 -75 645 -66Q624 -56 605 -45Q586 -35 580 -10Q592 -13 615 -27Q638 -41 649 -45Q647 -39 647 -35Q647 -32 649 -31Q629 -18 610 -7Q591 4 577 23Q570 36 565 51Q560 66 547 77Q506 74 481 46V44Q481 28 468 -1Q458 -22 457 -34Q507 -91 513 -158Q518 -204 519 -249Q496 -236 471 -233H460Q445 -235 433 -256Q431 -241 429 -211Q425 -207 415 -193Q404 -177 393 -170Q387 -166 376 -151Q364 -135 358 -133Q360 -144 367 -160Q374 -176 376 -183Q374 -184 369 -184Q361 -184 354 -177Q323 -147 272 -74Q261 -55 249 -36Q243 -26 234 -16Q226 -6 225 4Q225 11 232 18Q255 -4 271 -34Q287 -64 319 -78Q306 -53 289 -31Q272 -10 255 13Q245 25 236 38Q227 51 225 72Q218 78 200 78Q179 78 172 87Q164 82 158 82Q146 82 135 93Q133 91 133 88Q133 80 139 78Q136 56 132 49Q125 36 110 35Q106 23 101 13Q95 3 95 -12V-15L99 -14V-18Q99 -26 94 -40Q90 -51 90 -57V-62H91Q94 -62 98 -55Q101 -49 104 -48Q99 -75 80 -116Q65 -149 60 -166Q70 -151 91 -110Q105 -82 117 -63Q80 -149 52 -223Q60 -217 64 -208Q67 -198 72 -189Q98 -133 130 -81Q129 -88 122 -98Q114 -110 114 -120Q122 -113 132 -99Q143 -83 149 -78Q192 -105 231 -145Q255 -171 298 -226Q278 -224 275 -216Q272 -216 268 -217Q252 -215 232 -204Q215 -197 214 -196Q207 -191 207 -180V-176Q202 -173 196 -172Q191 -170 190 -163Q186 -167 174 -168Q166 -169 161 -171Q141 -187 141 -213Q137 -216 133 -220Q136 -227 136 -232Q135 -242 134 -253Q134 -258 135 -261Q156 -270 165 -292Q173 -315 187 -332V-340Q190 -373 200 -398Q207 -403 210 -416Q266 -435 285 -448Q319 -472 324 -515H320Q305 -514 294 -504Q283 -494 271 -486Q250 -477 231 -465Q216 -455 201 -444Q185 -434 173 -419Q169 -409 163 -401Q151 -389 127 -389Q119 -389 111 -392Q98 -400 86 -414Q84 -417 84 -424V-430Q84 -435 83 -438Q81 -444 70 -453Q61 -460 60 -464Q57 -471 57 -479Q60 -502 65 -519V-549Q68 -571 83 -589Q98 -608 113 -627Q118 -635 123 -642Q127 -650 138 -653V-652Q138 -648 133 -640Q126 -629 126 -624Q126 -619 129 -615Q137 -616 155 -624Q178 -634 195 -634H198Q196 -625 180 -616Q163 -606 163 -595Q163 -590 164 -587Q169 -584 173 -582Q259 -622 345 -662Q342 -671 333 -671Q331 -671 310 -665Q294 -661 277 -657Q262 -648 247 -646Q244 -646 240 -648Q241 -660 256 -662Q268 -671 297 -678Q323 -685 333 -690Q337 -692 343 -699Q352 -708 357 -709Q362 -711 371 -711Q386 -710 400 -709H406Q408 -713 410 -717Q411 -721 416 -722L418 -720Q418 -719 414 -714Q409 -708 409 -704Q409 -702 411 -700L413 -697Q417 -699 420 -702L423 -700Q423 -697 422 -694Q423 -690 423 -687Q431 -675 440 -663Q448 -652 450 -634Q451 -633 454 -628Q463 -639 473 -650Q483 -661 488 -675Q489 -683 490 -692Q493 -699 496 -706Q498 -719 499 -733Q504 -740 518 -748Q529 -759 540 -766Q554 -770 563 -770Q597 -770 601 -741Q626 -717 648 -688Q655 -658 655 -652V-646Q650 -593 623 -581Q613 -581 609 -575Q603 -567 607 -517Q608 -498 609 -480Q630 -503 651 -526Q686 -570 719 -640Q737 -679 746 -686V-688Q742 -694 731 -697L718 -703H733Q759 -708 779 -719L783 -720Q814 -728 852 -702Q889 -677 905 -639Q906 -625 903 -615Q805 -564 743 -506Q710 -469 674 -451Q668 -458 657 -465Q647 -472 620 -461Q635 -472 648 -488Q621 -479 609 -473ZM457 -621Q459 -614 465 -612Q464 -610 464 -606Q469 -588 474 -570Q470 -558 466 -547V-545Q401 -506 373 -410Q369 -405 364 -394Q358 -380 354 -376Q282 -367 258 -307Q276 -316 290 -318Q301 -322 316 -337Q337 -358 361 -358Q372 -358 384 -355Q390 -365 395 -376Q399 -388 410 -393Q402 -375 397 -355Q397 -347 401 -342L402 -341Q404 -344 411 -347H412Q409 -341 409 -335Q409 -328 417 -314Q427 -372 446 -385Q455 -391 469 -410Q489 -436 502 -439Q483 -424 474 -397Q489 -396 528 -409Q525 -424 522 -439Q521 -456 518 -470Q515 -485 524 -502Q529 -489 529 -470Q528 -451 543 -441Q546 -475 542 -516Q541 -522 539 -535Q537 -548 532 -550H531Q527 -549 527 -540V-535Q527 -531 525 -527H524L520 -526H518Q519 -531 519 -541Q519 -573 509 -588Q501 -599 493 -604Q486 -609 485 -624V-628Q479 -630 478 -630Q473 -630 457 -621Z"/>
</svg>