<svg xmlns="http://www.w3.org/2000/svg" viewBox="0 -800 1024 1024">
	<path fill="#000000" d="M858 -765H854Q846 -764 837 -764H833V-765Q833 -776 847 -776Q852 -776 858 -774ZM703 -788V-791Q702 -799 701 -807V-810Q704 -813 711 -813Q719 -813 722 -809Q717 -803 714 -796Q711 -789 703 -788ZM920 -238V-254Q926 -256 929 -256Q935 -256 938 -252Q931 -233 922 -228Q920 -230 920 -238ZM492 -151V-153Q483 -149 474 -145Q465 -141 460 -132Q463 -130 470 -130Q479 -130 486 -138Q492 -145 492 -151ZM674 -209Q665 -223 657 -237Q649 -252 635 -260Q634 -258 632 -256L633 -254Q644 -229 647 -223Q656 -206 668 -200Q671 -204 674 -209ZM429 -209Q413 -223 397 -243Q397 -264 389 -267Q377 -249 365 -226Q356 -212 348 -202Q340 -192 338 -176Q362 -186 390 -188Q417 -190 429 -209ZM812 74V73Q791 40 771 4Q782 7 790 18Q797 28 806 38Q811 44 836 60Q843 56 843 49Q842 41 833 32Q824 23 817 15Q804 -4 790 -24Q774 -38 769 -50Q755 -59 748 -76Q740 -94 723 -96H722V-92Q722 -83 734 -69Q745 -56 745 -46Q745 -42 744 -40Q724 -57 715 -81Q704 -75 698 -64Q692 -53 686 -42Q680 -42 672 -47Q663 -53 655 -53Q650 -73 626 -85V-88Q627 -91 627 -94L626 -97Q615 -105 603 -114Q605 -118 615 -120Q621 -121 624 -123Q624 -130 614 -138Q604 -146 603 -156Q611 -154 627 -143Q646 -159 655 -185Q609 -283 559 -378Q484 -372 430 -347Q422 -329 414 -311H416Q428 -314 440 -317Q445 -317 448 -314Q446 -310 435 -306Q423 -301 421 -294Q428 -284 439 -284Q458 -288 480 -297Q515 -304 515 -314Q515 -317 510 -324H506Q493 -322 480 -320Q485 -336 518 -342Q523 -346 526 -351Q530 -356 538 -357H540Q542 -355 542 -353Q541 -347 540 -342Q541 -338 547 -333Q553 -328 554 -323Q562 -324 569 -326Q571 -326 575 -324Q568 -317 561 -312Q554 -306 553 -295V-293Q557 -277 560 -262V-260Q552 -256 544 -252Q537 -248 534 -239Q510 -236 500 -231Q502 -227 507 -218Q517 -220 534 -228Q560 -240 576 -240H581Q598 -240 613 -233Q630 -225 630 -212V-211Q629 -200 622 -191Q615 -182 608 -174Q562 -119 554 -107Q557 -102 562 -102Q570 -104 578 -107Q579 -100 580 -93V-90Q587 -85 596 -84Q599 -84 602 -85Q604 -63 606 -42Q606 -34 605 -30Q594 -23 591 -21Q584 -15 584 -7V-5Q562 -7 540 -10Q518 -14 506 -27Q498 -24 490 -21H488V-23Q490 -25 491 -28Q485 -32 479 -37Q472 -29 454 -14Q435 0 433 15Q433 24 442 29Q447 27 455 15Q463 3 470 3H474Q471 10 464 21Q457 31 456 45Q454 44 449 44Q437 47 424 49L420 48Q414 47 401 35Q389 24 383 22V18Q383 11 382 4L383 0Q364 -8 344 -18Q350 -20 353 -20Q361 -19 368 -19Q359 -26 337 -26H319Q300 -26 292 -30Q330 -35 364 -37Q397 -38 418 -56Q406 -65 368 -65Q367 -72 354 -87Q340 -103 340 -112V-114Q341 -119 348 -123Q355 -127 358 -132Q354 -132 344 -146Q335 -159 332 -159Q322 -152 313 -141Q298 -115 289 -93Q282 -93 280 -90Q280 -93 279 -97Q279 -112 295 -135Q310 -157 310 -171Q310 -177 309 -180Q296 -165 199 -40Q179 -16 179 6Q179 16 183 21Q202 20 210 9Q218 -3 224 -17Q231 -38 251 -45Q235 10 193 44H188Q123 44 112 -21Q104 -28 90 -30Q90 -37 100 -40Q108 -43 109 -48Q110 -52 110 -59Q110 -77 97 -89Q89 -96 69 -105Q72 -108 77 -108Q87 -105 97 -103Q101 -103 104 -107Q99 -116 77 -125Q60 -132 54 -137Q60 -139 63 -139Q78 -136 92 -133Q97 -133 99 -134Q91 -142 73 -146Q55 -151 38 -156Q28 -158 27 -158Q21 -160 20 -165Q30 -167 34 -167Q44 -167 71 -161Q93 -156 107 -156Q114 -156 118 -157Q133 -158 152 -172Q156 -175 182 -198Q210 -224 241 -263Q254 -278 267 -294Q280 -310 289 -329Q276 -323 258 -323Q238 -323 224 -331Q209 -340 209 -356V-358Q185 -384 185 -408Q185 -418 186 -423Q189 -441 198 -453Q204 -460 221 -474Q231 -486 241 -498Q251 -507 274 -520Q289 -528 295 -533Q304 -540 313 -548Q323 -556 334 -557Q333 -553 326 -546Q319 -539 318 -531Q326 -523 338 -523Q364 -528 390 -533Q397 -533 403 -530Q399 -523 380 -518Q358 -512 356 -499Q360 -491 370 -491Q381 -493 392 -496Q471 -514 500 -525Q500 -546 484 -546Q464 -542 444 -539Q446 -553 459 -556Q472 -558 485 -562Q481 -579 474 -601Q468 -623 457 -638Q446 -652 436 -652Q417 -652 415 -602Q408 -606 408 -615Q411 -630 413 -646Q413 -652 412 -654Q407 -653 407 -646Q407 -640 405 -636Q397 -636 397 -644Q400 -657 402 -671Q401 -674 390 -690Q397 -716 412 -733Q427 -751 441 -770Q446 -778 452 -787Q458 -796 470 -798Q474 -798 478 -799Q495 -798 510 -791Q525 -783 540 -777Q574 -768 589 -738Q602 -718 602 -711Q602 -705 592 -690Q584 -677 583 -671Q585 -661 586 -651Q584 -641 581 -632Q581 -616 587 -590Q594 -560 603 -557Q607 -557 639 -570Q661 -574 676 -582Q672 -594 660 -594Q642 -591 623 -588H618L621 -602Q638 -606 655 -610Q672 -615 683 -624H690Q661 -648 651 -653Q650 -666 636 -688Q622 -711 622 -727Q622 -730 624 -740Q622 -744 615 -750Q605 -758 605 -764Q622 -758 639 -755Q646 -761 646 -768Q643 -783 640 -799Q640 -804 641 -806Q650 -804 654 -786Q657 -771 661 -768Q672 -770 683 -772Q687 -772 689 -770Q692 -773 695 -777Q697 -781 703 -782L704 -779V-773Q718 -762 732 -762Q749 -762 779 -787Q809 -813 827 -815Q826 -808 821 -805Q815 -803 811 -800Q793 -787 775 -762Q763 -757 761 -744Q761 -737 766 -735Q775 -736 788 -748Q803 -761 812 -761Q815 -761 821 -759Q819 -756 808 -749Q795 -740 792 -732V-726Q795 -684 831 -682Q838 -682 842 -683Q835 -676 829 -668Q822 -660 821 -650Q822 -647 822 -645Q823 -638 832 -633Q840 -628 842 -623Q842 -621 837 -621H830Q813 -617 808 -597Q805 -586 805 -559Q790 -570 786 -588Q778 -592 769 -592Q760 -592 748 -587Q743 -588 742 -593Q741 -597 738 -600Q717 -603 691 -624Q691 -620 687 -617Q683 -614 683 -611Q705 -593 727 -575Q722 -564 716 -554Q736 -543 756 -533Q758 -532 762 -532Q780 -535 797 -539Q804 -539 808 -537Q804 -533 789 -529Q770 -524 768 -515Q769 -511 773 -511Q778 -511 782 -512Q786 -512 787 -509L788 -506Q788 -504 782 -500Q776 -496 775 -493Q776 -477 784 -468Q791 -460 796 -449Q778 -444 778 -423V-420Q764 -418 757 -416Q751 -407 744 -398Q664 -395 633 -390Q641 -356 660 -327Q678 -298 692 -267Q693 -274 700 -287Q707 -300 707 -305V-306Q706 -313 700 -317Q690 -324 688 -326Q710 -364 756 -378H759Q767 -378 777 -369Q785 -361 790 -361H794Q803 -361 816 -370Q827 -378 833 -378H834Q833 -372 828 -365Q821 -355 821 -348V-344Q825 -338 830 -338Q833 -338 841 -344Q848 -349 852 -350V-348Q849 -336 846 -325Q846 -320 848 -317L850 -315Q854 -317 858 -320L861 -318V-317Q855 -303 849 -269V-264Q854 -256 858 -248Q855 -241 850 -235Q845 -229 845 -218V-216Q837 -218 835 -218Q825 -217 814 -216V-221Q815 -232 823 -235Q831 -238 839 -242V-254Q839 -286 822 -289Q811 -284 809 -275Q807 -266 801 -255Q797 -249 781 -239Q768 -231 763 -225Q747 -204 747 -191Q747 -183 754 -179Q760 -181 770 -194Q781 -208 788 -208Q792 -208 795 -206Q786 -194 775 -184Q765 -174 759 -160Q804 -74 873 -36Q886 -46 889 -66Q892 -86 895 -107Q901 -101 901 -77V-62Q901 -48 904 -39Q910 -65 910 -99Q911 -133 913 -165V-185Q913 -201 922 -206Q927 -203 927 -198Q925 -190 923 -182V-177Q925 -154 926 -131Q927 -116 927 -102V-85Q927 -48 931 -33Q930 -27 928 -22L929 -18Q935 -29 935 -49Q935 -68 934 -87L938 -116V-120Q938 -132 937 -144Q937 -166 948 -173Q949 -165 949 -149Q948 -116 947 -84Q947 -53 953 -34Q955 -30 960 -27Q956 -15 956 3Q956 41 974 70Q966 84 963 101Q923 117 911 134Q863 127 847 120Q812 106 812 74Z"/>
</svg>