<svg xmlns="http://www.w3.org/2000/svg" viewBox="0 -800 1024 1024">
	<path fill="#000000" d="M865 -635H863V-638Q863 -651 875 -651Q877 -651 883 -649Q879 -635 865 -635ZM910 -209Q908 -208 907 -201Q905 -192 900 -191Q895 -196 895 -205Q895 -219 902 -219Q906 -219 910 -209ZM877 -320H879Q884 -318 888 -315Q885 -301 882 -287Q874 -290 874 -305Q874 -314 877 -320ZM790 -477H779Q756 -477 722 -465Q706 -459 666 -442Q622 -420 612 -414Q595 -406 578 -396Q560 -387 555 -370Q575 -370 617 -392Q630 -399 645 -406Q660 -413 679 -414Q654 -394 629 -386Q620 -379 618 -370Q605 -369 580 -349Q549 -325 530 -324H528Q513 -324 498 -334Q482 -345 479 -360Q477 -364 468 -371Q457 -380 456 -387V-391Q458 -408 460 -425V-428Q457 -439 454 -450V-454Q454 -471 466 -501Q475 -524 476 -533Q479 -530 481 -519Q483 -507 490 -505L493 -504Q508 -508 530 -519Q558 -530 576 -533Q580 -538 589 -542Q583 -621 571 -643Q566 -645 558 -655Q552 -662 546 -665Q540 -662 537 -655Q535 -649 531 -643Q530 -645 530 -650Q532 -659 534 -669Q535 -674 535 -679Q534 -694 532 -710Q532 -720 538 -729Q544 -737 559 -746Q575 -755 582 -765Q592 -766 607 -778Q620 -788 626 -790Q640 -792 657 -792Q677 -792 691 -770Q703 -751 704 -728Q697 -729 686 -747Q676 -764 668 -764Q662 -764 654 -756Q664 -734 674 -712Q684 -689 703 -677Q712 -679 712 -688V-704Q727 -704 727 -684Q727 -681 724 -666H721Q716 -664 710 -662Q709 -655 703 -635Q697 -616 697 -604V-597Q735 -621 775 -629L777 -628Q774 -626 771 -620V-618H774Q779 -618 787 -622Q797 -627 802 -627Q794 -619 793 -617Q794 -614 799 -609Q810 -610 825 -619Q842 -628 854 -629Q841 -625 830 -614Q817 -601 817 -589Q817 -580 827 -571H830Q839 -573 847 -575L851 -574Q849 -567 845 -565Q840 -563 836 -558Q828 -546 828 -524Q829 -509 830 -495Q825 -485 824 -470Q806 -468 781 -454Q751 -438 733 -438V-440Q733 -451 755 -453Q759 -458 773 -465Q786 -471 790 -477ZM941 54H938Q932 54 922 60Q915 64 911 64H909L907 66Q909 68 910 70L909 72Q896 68 870 67Q836 65 827 61Q823 62 812 62Q794 62 775 61Q768 62 760 62Q751 62 750 57Q756 48 780 48Q787 48 794 47Q803 48 811 48Q842 52 873 56Q886 56 895 51Q882 28 824 28Q810 29 795 29Q784 29 772 28Q762 28 752 27Q692 27 683 57Q685 58 691 58H705Q713 58 715 61Q712 68 692 72Q668 77 660 86Q643 72 632 53Q619 30 619 6Q619 -3 620 -8Q614 -20 614 -39V-45Q615 -60 621 -73Q628 -86 633 -101Q643 -146 653 -192Q661 -214 669 -235Q676 -257 677 -279Q647 -265 638 -221Q631 -216 624 -212Q623 -209 623 -204V-200Q611 -196 608 -183L605 -182H599Q572 -147 560 -127Q538 -91 530 -60Q524 -24 524 -18Q525 -13 525 -9Q513 0 499 30Q488 53 479 63Q469 66 460 66Q415 63 404 22Q402 11 400 1Q398 -10 389 -18Q388 -20 382 -20H378Q370 -20 370 -25Q374 -24 377 -24Q387 -25 397 -26Q398 -30 398 -34V-36Q392 -39 381 -39Q352 -36 323 -33H320Q331 -41 345 -45Q359 -48 373 -53Q412 -70 435 -106Q458 -142 479 -180Q507 -232 534 -284Q534 -287 528 -293Q523 -298 522 -305Q533 -307 548 -318Q564 -329 577 -330H586Q598 -330 605 -333Q610 -335 641 -359Q658 -373 675 -387Q680 -397 686 -405Q697 -413 716 -413Q729 -413 736 -410Q742 -408 750 -400Q758 -392 761 -390Q767 -393 773 -397L775 -396Q774 -389 772 -383Q777 -385 783 -395Q790 -407 799 -407Q796 -397 791 -388Q786 -378 785 -366Q785 -362 787 -354L790 -353Q794 -354 797 -356H799Q796 -348 796 -339Q797 -323 798 -308Q798 -296 796 -291Q782 -284 773 -270Q764 -257 753 -246Q752 -249 752 -254Q752 -262 761 -274Q767 -282 767 -288Q767 -292 764 -297H763Q739 -295 731 -274Q724 -252 718 -228Q706 -197 702 -170Q702 -161 704 -156Q711 -159 718 -177Q726 -200 736 -203Q732 -176 719 -146Q706 -107 706 -96Q706 -85 712 -78Q724 -81 743 -81Q771 -80 799 -79Q830 -79 841 -87Q846 -92 849 -106Q851 -117 855 -123Q858 -109 861 -95Q866 -111 866 -136Q864 -178 861 -221Q861 -241 867 -246Q873 -227 875 -181Q877 -137 882 -119Q883 -130 883 -141Q882 -186 880 -232Q880 -259 882 -272Q889 -241 892 -186Q895 -127 900 -105Q903 -111 903 -119Q900 -139 897 -160Q897 -169 901 -174Q909 -162 911 -144Q912 -127 915 -111Q921 -97 927 -84Q938 -79 947 -69Q946 -65 946 -57Q946 -43 956 -22Q965 -3 965 5V9Q964 18 955 28Q943 42 941 54ZM432 -215V-213Q434 -206 435 -200Q432 -188 428 -176Q428 -174 430 -170Q431 -166 433 -166Q436 -166 439 -167L442 -165Q433 -159 431 -150Q428 -142 423 -134Q409 -116 353 -94Q308 -78 300 -74Q273 -61 262 -44Q253 -43 239 -32Q224 -21 215 -21H214Q227 -43 248 -54Q263 -64 304 -84Q353 -108 374 -126Q370 -126 366 -127Q338 -126 308 -109Q279 -93 250 -77Q198 -51 188 -44Q155 -21 152 10H154Q166 6 177 2Q181 2 183 3Q177 18 168 31Q158 43 156 64Q140 74 126 74Q120 74 100 70Q94 59 73 44Q54 30 47 19Q50 9 50 -3Q48 -26 46 -50Q46 -63 52 -77Q64 -86 84 -112Q105 -139 120 -149Q118 -143 110 -131Q100 -116 100 -106V-104Q187 -149 273 -194Q275 -206 275 -212Q273 -241 270 -271V-278Q244 -270 224 -253Q205 -237 185 -225Q170 -215 159 -201Q149 -186 130 -185H129Q98 -194 81 -219Q80 -223 79 -228Q71 -243 56 -255Q42 -268 40 -290V-296Q41 -307 54 -330Q65 -349 65 -357Q65 -362 57 -373Q50 -383 49 -389Q54 -389 60 -384Q64 -381 69 -380Q68 -386 59 -396Q49 -407 47 -413Q55 -412 65 -404Q73 -397 79 -397Q82 -397 84 -398L85 -401Q85 -404 79 -408Q73 -413 72 -417Q86 -410 101 -410Q119 -410 153 -422Q185 -433 199 -433Q206 -433 210 -432Q203 -425 178 -417Q150 -408 143 -399Q138 -392 138 -386Q138 -373 154 -372H156Q171 -374 194 -390Q211 -397 225 -403Q239 -409 247 -423Q232 -483 223 -537Q234 -560 253 -577Q275 -596 298 -596Q308 -596 321 -591Q335 -577 354 -545Q371 -515 382 -504Q402 -515 432 -522Q426 -517 420 -513Q414 -508 414 -498V-494L417 -492Q421 -493 425 -495H427V-489Q427 -467 444 -462V-455Q444 -439 451 -436Q445 -432 445 -424Q446 -414 447 -404V-402Q444 -397 441 -393Q441 -390 440 -388Q441 -381 442 -375V-372Q430 -365 404 -354Q373 -341 361 -333Q346 -323 346 -267V-227Q377 -243 463 -290Q460 -284 441 -272Q424 -261 421 -249L424 -248Q428 -248 435 -254Q442 -260 449 -260H450Q448 -254 439 -247Q428 -239 428 -232Q428 -229 429 -227H430Q436 -227 441 -234L442 -231Q442 -228 438 -224Q432 -218 432 -215Z"/>
</svg>