<svg xmlns="http://www.w3.org/2000/svg" viewBox="0 -800 1024 1024">
	<path fill="#000000" d="M237 -611Q235 -594 222 -594L221 -598Q222 -610 237 -611ZM672 85V87Q672 91 671 95Q659 94 656 93Q649 91 648 85ZM764 -270H769Q771 -268 771 -260Q771 -246 764 -243Q761 -258 761 -261Q761 -265 764 -270ZM794 -219V-216Q791 -208 788 -201Q780 -204 780 -212Q782 -224 789 -226Q793 -226 794 -219ZM792 103H788Q760 99 732 95H712Q697 95 690 89Q691 86 696 86Q699 86 711 89Q775 86 833 78Q829 67 813 67Q792 70 770 72Q758 71 745 69Q735 71 725 72H721Q705 72 663 66Q628 61 606 61H598Q605 78 630 81Q627 89 617 89Q616 89 584 82Q540 72 521 49Q501 24 501 -27V-43Q508 -119 529 -187Q533 -205 536 -224Q536 -229 535 -232Q508 -218 484 -189Q468 -169 446 -132Q413 -75 396 -38Q371 18 360 72Q337 73 330 95Q316 93 311 93Q295 93 295 109Q292 106 292 97Q275 89 261 77Q248 64 233 53Q232 21 210 1L214 0H222Q211 -24 182 -59Q151 -97 141 -118Q157 -106 172 -88Q186 -70 203 -52Q216 -39 231 -30Q219 -47 206 -65Q212 -64 224 -54Q235 -44 242 -42Q250 -46 259 -56Q272 -71 285 -72Q285 -69 280 -62Q273 -52 273 -48Q273 -44 276 -40Q311 -74 335 -118Q360 -161 384 -206Q383 -209 378 -212Q364 -200 347 -165Q329 -127 313 -115Q316 -151 332 -176Q347 -201 362 -226Q360 -238 360 -244Q362 -270 369 -297Q373 -295 377 -294Q378 -296 378 -300Q378 -305 377 -310V-312Q387 -307 406 -307H409Q431 -307 442 -301Q447 -296 452 -291Q457 -288 461 -288Q470 -288 477 -295Q485 -302 493 -310Q529 -340 550 -369Q537 -360 524 -360Q506 -360 486 -386Q459 -422 454 -426H468Q482 -441 503 -447Q524 -452 548 -459V-477Q519 -476 489 -459Q461 -439 437 -435Q421 -435 409 -450Q409 -458 395 -470Q382 -481 380 -489Q380 -492 379 -496Q379 -518 397 -532V-539Q399 -561 416 -571Q433 -580 448 -591L449 -589Q446 -583 443 -577Q454 -574 463 -574Q496 -578 532 -585V-586Q532 -591 528 -594Q524 -598 523 -599Q511 -596 488 -586Q499 -594 501 -595Q474 -634 448 -634Q438 -634 427 -628Q427 -640 442 -642Q441 -645 435 -645Q427 -644 419 -643Q416 -637 416 -627Q412 -620 399 -611Q382 -599 380 -586Q365 -581 351 -568Q347 -565 327 -543Q377 -508 377 -450Q377 -442 375 -424H373Q362 -423 362 -441V-451Q362 -463 357 -467Q347 -462 344 -439Q343 -433 342 -398Q342 -389 341 -381Q341 -357 354 -355Q356 -366 359 -377Q361 -388 369 -393Q375 -385 375 -377Q375 -359 356 -335H353Q335 -332 317 -330H314Q289 -335 274 -355Q260 -375 242 -390Q252 -420 252 -444V-450Q191 -395 148 -295Q116 -307 111 -322V-326Q112 -333 112 -340Q112 -343 111 -345Q109 -351 100 -359Q91 -367 89 -372Q87 -410 67 -420Q76 -436 78 -495Q80 -548 97 -562Q95 -540 95 -530Q95 -504 104 -492Q124 -501 139 -516Q154 -531 169 -546Q181 -558 187 -558Q192 -558 194 -556Q182 -540 166 -529Q150 -518 147 -495Q151 -495 151 -493Q157 -495 160 -500Q163 -505 166 -510Q199 -543 232 -575Q265 -608 282 -652L279 -653Q270 -652 266 -641Q261 -630 252 -628H251Q253 -648 264 -660Q274 -672 283 -684Q280 -692 277 -701V-703Q286 -705 306 -715Q331 -728 347 -728Q352 -727 356 -727Q364 -725 368 -720Q371 -715 377 -708Q388 -697 401 -682Q415 -668 416 -649Q492 -702 567 -756V-761Q567 -767 565 -769Q601 -781 638 -785Q652 -785 663 -781Q671 -764 696 -752Q709 -731 722 -711Q721 -703 719 -696Q719 -690 722 -686Q714 -676 710 -667Q710 -664 713 -660Q707 -660 706 -656Q705 -652 704 -648Q663 -647 658 -646Q628 -643 612 -630Q629 -615 631 -600Q663 -607 694 -612Q701 -612 704 -611Q695 -601 670 -597Q649 -594 640 -585Q651 -578 665 -578Q698 -581 730 -592Q768 -602 788 -603Q789 -606 789 -610Q789 -621 773 -621Q755 -619 736 -617H735Q740 -629 753 -633Q766 -637 779 -640Q805 -651 822 -664L823 -662Q820 -660 815 -652Q815 -649 814 -647Q814 -643 818 -633Q836 -637 853 -642Q850 -638 845 -634Q840 -630 839 -623Q839 -619 840 -617L841 -616Q846 -618 850 -620L853 -618Q850 -609 843 -601Q847 -593 850 -585Q842 -569 842 -561Q842 -553 846 -548Q836 -534 831 -516Q813 -520 799 -520Q768 -520 751 -511Q740 -511 728 -512Q642 -512 630 -495Q625 -482 625 -470Q659 -472 704 -485V-477Q715 -482 729 -483Q727 -481 727 -476Q727 -473 735 -462Q743 -463 750 -465L751 -464Q751 -463 747 -459Q742 -454 742 -450Q746 -441 750 -432Q747 -427 742 -422Q737 -417 737 -410Q737 -407 738 -405Q726 -400 726 -394V-391H720Q687 -389 653 -388Q644 -388 630 -390Q640 -401 672 -401Q684 -401 698 -399Q706 -406 720 -408Q716 -428 678 -428Q669 -428 649 -426Q625 -424 599 -415Q572 -406 573 -398Q574 -390 588 -389Q600 -388 604 -385Q604 -381 594 -381Q622 -373 639 -341H640Q644 -343 647 -345L649 -344Q648 -339 647 -335L648 -333L651 -331Q655 -333 659 -335H660Q661 -324 667 -307Q675 -283 675 -268V-259Q658 -253 646 -227Q631 -192 625 -186Q624 -188 624 -193Q627 -206 629 -219Q629 -224 625 -228Q608 -221 600 -198Q600 -197 590 -150Q582 -122 579 -95Q579 -86 582 -74Q589 -82 595 -105Q603 -137 619 -141Q606 -105 598 -54Q602 -48 620 -47Q636 -46 640 -42Q653 -46 675 -47Q703 -49 713 -50Q755 -55 758 -82V-86Q757 -97 756 -109Q756 -117 761 -121Q763 -113 764 -103Q764 -93 770 -90Q771 -96 771 -102Q767 -149 763 -196Q763 -213 766 -228Q770 -210 774 -163Q779 -103 788 -80Q790 -90 790 -95Q785 -132 780 -172Q780 -177 782 -189Q790 -162 796 -132Q801 -101 815 -78Q819 -80 819 -87Q819 -94 818 -101Q818 -104 819 -106Q828 -84 838 -66Q858 -64 878 -62V-57Q878 -42 893 -19Q903 -5 905 6Q906 9 906 17Q906 25 907 30Q914 49 917 72Q917 78 916 81Q891 98 815 100Q804 102 792 103Z"/>
</svg>