<svg xmlns="http://www.w3.org/2000/svg" viewBox="0 -800 1024 1024">
	<path fill="#000000" d="M934 -511V-508Q934 -502 929 -499Q925 -496 921 -493Q919 -497 919 -500Q919 -511 930 -511ZM643 -54H630Q628 -59 626 -64Q630 -66 632 -66Q641 -66 648 -55Q647 -54 643 -54ZM722 -447H727Q741 -447 762 -460Q778 -470 790 -472Q795 -477 795 -484Q795 -490 790 -498Q782 -498 768 -494Q763 -501 753 -508H752Q748 -506 743 -505Q742 -505 740 -508V-510Q740 -513 744 -514Q747 -515 747 -517L746 -519H744Q728 -518 726 -498Q725 -470 722 -447ZM751 -312Q753 -328 753 -338Q753 -352 748 -358Q732 -354 680 -334Q658 -327 638 -319Q619 -311 617 -289Q671 -307 722 -330Q721 -328 721 -325Q721 -322 724 -319Q726 -320 730 -320Q735 -320 743 -314Q747 -311 749 -311ZM602 -208H599V-198Q599 -183 602 -178Q682 -195 712 -223Q717 -218 723 -218Q733 -219 743 -221Q742 -216 741 -211Q741 -205 748 -201Q749 -222 750 -243Q742 -245 738 -245Q715 -242 697 -233Q677 -227 656 -221Q636 -216 621 -201Q609 -208 602 -208ZM316 -323V-324Q328 -334 331 -348Q331 -353 330 -356Q308 -336 277 -315Q245 -293 236 -259Q235 -255 235 -247Q235 -219 250 -180Q267 -191 290 -195Q306 -256 322 -318Q322 -320 319 -320Q316 -320 316 -323ZM851 20V23Q844 33 835 54Q824 80 818 88Q804 104 792 104Q788 104 786 103Q768 93 750 83Q745 74 740 65Q730 54 719 43Q716 29 710 18Q703 12 694 8Q684 4 682 -9Q684 -10 687 -10Q697 -7 706 -1Q702 -11 681 -26Q661 -40 656 -49Q671 -48 679 -42Q687 -35 697 -29Q693 -43 671 -57Q644 -74 638 -82Q651 -79 674 -66Q698 -53 710 -49Q723 -65 728 -90Q733 -114 738 -139Q670 -132 617 -103Q612 -104 607 -106Q605 -106 603 -104Q598 -93 598 -73Q598 -56 603 -31Q597 -7 581 7Q566 20 552 35Q550 19 535 14Q518 9 504 0Q490 -15 481 -37Q482 -41 482 -51Q476 -56 465 -58Q465 -64 475 -64H483Q486 -104 491 -139Q495 -132 496 -122Q497 -113 506 -111Q513 -118 513 -145Q510 -187 506 -230Q502 -253 489 -265Q484 -255 484 -244Q488 -214 491 -184Q491 -179 489 -169Q483 -180 477 -229Q472 -269 456 -280Q453 -301 435 -325Q392 -220 383 -75Q372 -65 361 -55Q350 -44 335 -38Q336 -42 337 -47V-49Q321 -58 305 -67Q289 -77 285 -98Q271 -95 266 -66Q262 -42 253 -37Q224 -39 205 -53Q187 -67 165 -78Q160 -86 156 -94Q153 -103 144 -106Q147 -112 147 -117Q143 -135 139 -154Q139 -160 140 -163Q146 -161 149 -146Q152 -130 162 -130H164Q166 -131 168 -133Q159 -197 134 -255Q130 -263 126 -271Q121 -280 112 -282Q109 -274 109 -268Q109 -257 119 -235Q129 -213 129 -201V-195Q115 -209 109 -230Q103 -251 96 -271Q88 -279 88 -284V-287Q63 -296 46 -320Q28 -346 28 -377Q29 -382 29 -387Q30 -397 40 -412Q51 -429 51 -436V-437Q51 -443 44 -455Q37 -466 37 -473Q37 -475 39 -481Q45 -478 51 -465Q57 -452 64 -448Q63 -459 54 -482Q43 -509 42 -525Q51 -519 59 -500Q69 -477 81 -472Q75 -484 72 -500V-504Q78 -501 87 -490Q94 -481 99 -478Q100 -478 109 -481Q144 -475 171 -465Q179 -461 189 -448Q200 -433 208 -430Q220 -436 232 -439L236 -438Q231 -432 224 -425Q217 -419 216 -410Q216 -406 221 -399Q241 -404 258 -416Q274 -429 291 -439Q333 -463 346 -474Q342 -481 334 -481Q318 -477 304 -468Q276 -451 262 -448Q266 -461 277 -467Q289 -473 299 -478Q322 -488 343 -502Q355 -515 367 -528Q384 -535 400 -543Q404 -546 411 -556Q418 -567 426 -570L427 -567Q425 -557 422 -548L423 -544L427 -542Q431 -542 434 -546Q438 -550 440 -550H442V-547Q442 -541 445 -538Q460 -528 486 -483Q507 -450 507 -436V-435Q505 -417 494 -405Q483 -392 475 -378Q483 -382 491 -387Q499 -393 509 -394H511Q529 -390 547 -386Q550 -386 552 -387Q585 -397 618 -408Q624 -420 624 -430Q617 -426 608 -417Q569 -424 530 -432Q525 -437 521 -443Q516 -448 509 -451Q506 -466 502 -480Q498 -495 486 -501V-504Q483 -520 479 -536V-540Q483 -546 486 -553V-558Q486 -565 481 -578Q475 -593 475 -601Q476 -604 476 -607Q480 -605 484 -593Q489 -579 495 -577Q498 -578 498 -582Q498 -586 497 -591L498 -594Q506 -580 519 -580Q524 -580 530 -583Q539 -577 548 -571Q557 -565 571 -565Q574 -570 576 -576Q578 -582 586 -583H587Q580 -573 580 -563Q584 -530 615 -519Q617 -501 627 -491Q626 -530 625 -569Q624 -608 612 -637Q612 -644 614 -646Q603 -653 592 -669Q581 -684 577 -688Q584 -740 654 -778H657Q661 -778 664 -775Q678 -783 695 -783Q711 -783 721 -775Q727 -770 733 -753Q740 -732 750 -729V-726Q751 -720 751 -715V-712Q742 -712 737 -718Q731 -723 725 -727Q713 -722 713 -709Q713 -700 720 -682Q727 -663 727 -656V-655Q727 -645 719 -622Q710 -596 710 -583Q713 -566 716 -550Q724 -567 733 -603Q744 -651 757 -667V-669Q755 -677 753 -686Q753 -689 754 -691H755Q759 -691 761 -688Q762 -685 765 -682Q764 -646 743 -600Q734 -561 725 -522Q736 -526 750 -552Q809 -615 829 -661Q822 -672 814 -684Q830 -681 846 -679Q855 -679 861 -682Q869 -688 877 -694H881Q887 -694 897 -689Q907 -684 914 -684Q919 -684 925 -687Q928 -686 934 -680Q941 -673 946 -673Q947 -673 951 -675Q952 -655 971 -623Q969 -611 969 -604Q970 -590 970 -576Q970 -568 969 -564Q967 -557 957 -549Q949 -543 947 -537Q944 -540 936 -542Q925 -545 923 -550Q924 -554 930 -554Q936 -553 941 -553Q959 -559 959 -587Q959 -601 953 -612Q934 -609 934 -588V-585Q886 -585 864 -541L868 -540Q872 -540 881 -546Q888 -551 893 -551Q897 -551 901 -547Q849 -517 830 -493Q833 -492 837 -492Q847 -493 855 -498Q863 -503 870 -507L871 -503Q868 -496 864 -490Q872 -478 880 -466Q886 -467 896 -479Q903 -488 909 -488H910Q908 -480 901 -471Q891 -458 891 -449V-447H892Q898 -448 900 -454Q902 -461 909 -462H910V-460Q907 -449 903 -438V-435Q903 -430 907 -427Q911 -423 912 -422Q917 -401 918 -378Q913 -374 909 -370Q904 -366 904 -358Q860 -349 854 -298Q849 -299 849 -307V-318Q849 -326 845 -327Q832 -326 827 -311Q824 -301 823 -277Q818 -222 818 -199Q815 -167 812 -135Q812 -115 823 -106Q830 -121 831 -140Q831 -159 832 -181Q837 -212 842 -244V-246Q842 -252 841 -258Q841 -264 846 -265Q853 -262 853 -256Q851 -248 849 -240Q838 -145 838 -98Q839 -84 839 -70H836Q830 -70 830 -80Q830 -89 825 -89H824Q812 -85 812 -60Q812 -44 818 -31Q824 -18 834 -17Q836 -20 836 -27Q835 -38 834 -49Q834 -53 836 -57Q847 -55 847 -38Q847 -29 846 -20V-17Q849 2 851 20Z"/>
</svg>