<svg xmlns="http://www.w3.org/2000/svg" viewBox="0 -800 1024 1024">
	<path fill="#000000" d="M656 -363H655Q645 -363 645 -376Q645 -386 652 -386H653Q659 -384 659 -375Q659 -367 656 -363ZM195 -619Q194 -611 193 -604Q191 -596 182 -596Q181 -599 181 -606Q181 -622 189 -622Q192 -622 195 -619ZM344 30Q339 37 328 37Q322 37 319 34Q318 32 318 28Q318 20 327 20Q342 20 344 30ZM564 -323V-326Q564 -336 556 -336Q550 -336 526 -324Q524 -318 524 -315Q524 -309 528 -308Q548 -314 564 -323ZM578 -114Q563 -112 543 -110Q523 -107 514 -96Q524 -91 534 -86Q561 -96 578 -114ZM755 -239Q751 -249 731 -249Q694 -247 678 -233Q684 -230 693 -230Q714 -233 735 -236Q754 -238 755 -239ZM566 -398Q566 -429 560 -438Q538 -408 529 -390Q548 -394 566 -398ZM600 -242Q596 -245 591 -248Q586 -251 584 -257Q571 -257 539 -252Q547 -237 557 -231Q563 -235 576 -236Q594 -238 600 -242ZM755 -9V-24Q755 -32 757 -35Q762 -35 762 -31Q762 -26 761 -21V-20Q764 -9 764 5Q764 18 773 22Q771 30 771 33Q775 55 787 70Q783 77 783 85Q784 92 784 98Q784 111 776 117Q762 115 752 115Q726 115 712 124Q708 120 698 118Q687 116 684 114Q681 113 674 104Q669 98 665 95Q657 90 649 85Q640 80 639 71L640 67Q648 68 665 81Q686 97 698 97Q706 97 711 93Q704 82 692 77Q680 72 669 66Q647 50 627 31Q606 12 575 7Q577 17 592 26Q607 35 609 45Q598 45 582 33Q569 23 561 21Q534 33 517 55Q500 77 480 95Q479 100 477 104V105H470Q458 105 442 98Q426 91 418 91Q412 91 409 92Q398 74 379 70V67Q382 61 385 55Q384 45 371 39Q355 32 353 27H357Q371 29 384 31Q370 19 320 8Q284 0 270 -8Q321 -1 375 2Q417 2 446 -14Q423 -33 400 -53Q407 -60 412 -68Q401 -67 381 -59Q364 -53 353 -51Q350 -51 346 -52L342 -51Q333 -48 315 -30Q300 -15 287 -14H286Q270 -15 256 -27Q242 -39 231 -51H228Q209 -51 195 -64Q181 -77 181 -95Q181 -114 195 -129Q206 -138 216 -148Q222 -159 228 -171Q238 -180 254 -185Q270 -189 283 -194Q298 -201 310 -209Q322 -217 336 -218Q326 -206 319 -192Q321 -189 322 -186Q360 -190 398 -195Q408 -195 413 -194Q395 -178 364 -177Q332 -176 317 -158Q325 -153 331 -153Q333 -153 357 -159L388 -164Q423 -171 458 -179Q473 -181 480 -189Q475 -199 463 -199Q458 -199 444 -197Q447 -210 460 -212Q473 -214 484 -218V-231L483 -232Q479 -229 475 -227H474Q464 -231 456 -231H452Q448 -239 434 -249Q422 -258 418 -267Q417 -270 417 -275Q418 -285 418 -296V-302Q417 -309 406 -319Q400 -325 397 -330Q417 -349 425 -379Q433 -409 442 -438Q385 -415 361 -371Q363 -364 369 -348Q377 -329 377 -318Q377 -310 372 -300Q357 -293 345 -289Q340 -289 335 -293Q340 -300 345 -308Q342 -312 338 -317Q323 -314 308 -314Q267 -317 224 -324V-317Q224 -312 225 -311Q229 -305 241 -305H264Q280 -300 295 -294Q303 -292 310 -290Q317 -289 319 -280H313Q304 -280 284 -285Q260 -291 247 -291H240Q236 -290 231 -289H230Q222 -291 211 -302Q198 -315 190 -315H188Q186 -315 181 -309Q177 -304 174 -304L172 -305Q171 -307 171 -312Q171 -321 177 -327Q169 -339 163 -341Q158 -340 153 -335Q148 -330 145 -329V-331Q148 -341 153 -349Q146 -374 126 -374Q93 -369 74 -341Q76 -351 90 -373Q110 -404 110 -417Q110 -433 88 -441Q98 -457 98 -484Q98 -509 92 -533H94Q101 -531 107 -530Q109 -531 113 -539Q116 -545 122 -545H123Q117 -564 110 -581Q116 -578 122 -570Q129 -560 135 -557H140Q153 -555 166 -553Q171 -553 174 -554Q177 -557 180 -568Q184 -582 190 -584Q190 -554 203 -547Q211 -550 219 -570Q225 -586 233 -591Q227 -571 224 -544Q224 -527 234 -522Q240 -524 245 -527V-525Q245 -506 270 -501Q278 -486 282 -481Q290 -472 302 -472Q326 -478 351 -497Q412 -533 495 -570Q491 -578 478 -578Q473 -578 458 -575Q451 -573 421 -563Q405 -557 372 -537Q334 -514 313 -510Q314 -524 325 -528Q337 -532 348 -536Q365 -546 382 -551Q384 -552 384 -557Q409 -563 445 -581Q481 -599 499 -604Q497 -632 493 -658Q490 -684 469 -692Q472 -698 474 -705Q473 -708 470 -710Q466 -712 466 -713Q447 -709 433 -704Q453 -737 484 -761Q514 -785 543 -811Q550 -809 566 -809Q598 -759 638 -748Q636 -740 636 -735Q636 -720 643 -713Q635 -698 627 -684Q618 -670 617 -651Q617 -643 618 -638Q637 -642 656 -649Q676 -656 697 -657Q703 -656 708 -656V-655Q707 -646 693 -643Q679 -640 664 -638Q640 -631 637 -630Q623 -624 622 -613H629Q643 -613 677 -623Q712 -633 729 -635Q747 -636 760 -637Q774 -639 781 -651Q769 -659 749 -659Q752 -668 761 -669Q769 -670 778 -671Q798 -679 819 -683H823Q827 -681 831 -674Q835 -668 838 -666Q848 -670 859 -676Q869 -682 880 -683Q877 -678 866 -669Q852 -658 852 -650Q853 -648 856 -648Q863 -652 870 -656L871 -653Q867 -647 863 -636L864 -632L865 -631Q866 -633 872 -636L875 -635Q875 -628 870 -623Q875 -620 884 -607Q895 -592 906 -588H907Q912 -590 916 -593L918 -591L919 -588Q916 -582 912 -576V-574Q913 -566 914 -558Q914 -554 912 -550Q917 -545 924 -545Q917 -527 914 -503Q893 -475 887 -464Q877 -477 862 -477Q845 -476 829 -463Q813 -450 801 -440Q802 -443 802 -446Q802 -453 794 -455H793Q789 -455 783 -446Q780 -441 778 -441Q775 -441 768 -452Q763 -460 760 -461H758Q748 -458 737 -455Q735 -455 732 -456Q733 -460 740 -463Q748 -466 748 -470Q746 -471 741 -471Q733 -471 719 -463Q710 -458 706 -458H705V-459Q705 -467 715 -471Q722 -474 724 -478Q707 -474 667 -449Q684 -474 724 -510Q758 -540 769 -554Q724 -551 690 -541Q648 -532 638 -519Q643 -506 651 -496Q660 -486 667 -475Q658 -461 655 -441Q652 -422 647 -403Q641 -409 641 -424Q641 -449 650 -465Q647 -479 632 -484Q624 -450 624 -407Q624 -351 637 -312Q643 -294 653 -289Q656 -298 656 -322V-336Q673 -327 673 -297Q673 -276 665 -254H678Q721 -254 752 -275V-278Q752 -288 755 -288L757 -287Q761 -286 761 -279V-274Q761 -266 764 -264Q792 -267 819 -272L821 -270Q821 -269 816 -266Q810 -262 810 -259V-258Q815 -255 820 -255Q832 -256 844 -258Q849 -258 852 -257Q844 -252 833 -250Q823 -249 822 -240V-239Q822 -228 842 -228Q850 -228 864 -230Q856 -225 856 -212Q856 -199 864 -189Q857 -184 857 -172Q857 -158 864 -142Q858 -135 850 -135Q834 -138 817 -142H815Q806 -140 797 -138H793Q770 -140 747 -142H740Q718 -138 695 -134H692V-130Q692 -112 704 -108Q679 -98 660 -82Q640 -66 622 -50Q652 -31 708 -11Q715 -14 716 -36Q717 -50 720 -56Q728 -56 728 -40Q728 -29 726 -17Q733 -26 737 -38Q738 -41 738 -48Q738 -56 737 -65Q737 -83 746 -89Q749 -81 749 -70Q748 -50 747 -30Q747 -7 754 0Q755 -2 755 -9Z"/>
</svg>