<svg xmlns="http://www.w3.org/2000/svg" viewBox="0 -800 1024 1024">
	<path fill="#000000" d="M681 -44H676Q667 -44 666 -51L670 -52Q679 -52 681 -44ZM945 -659V-656Q937 -654 928 -653H924V-654Q927 -661 933 -668Q945 -666 945 -659ZM42 -229Q39 -223 36 -216Q34 -209 27 -207Q26 -209 26 -215Q26 -220 29 -226Q32 -232 36 -232Q39 -232 42 -229ZM745 -209H746Q748 -196 758 -195Q760 -205 760 -215Q760 -226 764 -232H760Q760 -225 757 -222Q707 -222 649 -194Q640 -191 629 -186Q618 -181 617 -171Q618 -168 618 -166H619Q626 -166 639 -172Q650 -177 657 -177Q662 -177 668 -174Q666 -165 654 -164Q644 -163 639 -159V-156Q640 -151 640 -147Q686 -161 732 -176Q728 -185 719 -185Q706 -182 692 -180Q685 -180 681 -185Q702 -197 729 -201H736Q740 -209 745 -209ZM769 -257Q774 -303 778 -351Q741 -347 708 -334Q676 -321 646 -309Q643 -303 639 -298L635 -299Q631 -298 627 -297Q616 -286 616 -266Q658 -277 719 -314Q722 -306 730 -306Q743 -309 756 -312L760 -311Q757 -303 754 -295Q762 -293 764 -275Q766 -261 769 -257ZM942 -504H940Q932 -504 922 -510Q914 -515 908 -515Q903 -514 895 -508Q886 -500 881 -499H878Q873 -499 868 -500Q863 -500 861 -498Q854 -500 839 -508Q819 -519 804 -519H800Q770 -550 757 -596Q769 -607 773 -645Q781 -643 785 -643Q792 -643 806 -648Q819 -652 828 -653Q832 -658 834 -665Q837 -671 845 -672H846Q845 -670 845 -665Q848 -640 865 -637L869 -638Q871 -638 871 -634V-626L875 -625Q883 -625 898 -635Q913 -645 920 -647Q913 -637 903 -630Q892 -623 890 -608Q892 -604 900 -597Q905 -593 908 -588Q914 -590 920 -592Q923 -592 924 -588Q921 -585 917 -582Q913 -580 913 -574L914 -570Q921 -565 944 -565H950Q963 -565 969 -564Q965 -562 932 -557Q910 -554 910 -540Q911 -537 911 -534Q912 -528 925 -522Q941 -515 942 -504ZM517 -436V-450Q503 -463 485 -468Q479 -468 475 -464Q473 -473 469 -482H463Q447 -479 430 -477H427Q439 -485 451 -493Q446 -499 443 -506Q436 -506 422 -504V-505Q422 -510 428 -513Q432 -515 433 -519Q429 -534 427 -564Q425 -600 421 -614Q429 -608 433 -599Q459 -622 497 -622Q516 -622 533 -615Q541 -599 554 -588Q559 -591 564 -594H566Q570 -594 570 -589V-585Q575 -589 577 -596Q580 -602 588 -603Q579 -588 579 -573Q579 -564 584 -562Q581 -556 581 -552Q581 -545 589 -534Q596 -524 597 -518V-516Q595 -487 576 -459Q565 -448 552 -448L548 -449Q544 -449 543 -446Q542 -443 541 -441Q537 -441 537 -445Q536 -448 535 -450Q528 -450 523 -442Q520 -437 517 -436ZM240 -238V-228Q230 -220 223 -214Q216 -209 204 -207Q201 -207 171 -218Q169 -218 156 -225Q154 -226 151 -226Q144 -226 140 -220Q136 -214 136 -206Q135 -209 135 -216V-220Q135 -231 132 -234Q114 -241 95 -249Q93 -256 91 -264Q88 -265 83 -265Q73 -265 62 -253Q51 -242 43 -240Q45 -250 59 -264Q70 -275 73 -285Q70 -293 52 -308Q43 -307 19 -297Q23 -308 33 -314Q43 -320 52 -326Q49 -332 48 -346Q47 -359 45 -364Q43 -369 36 -374Q29 -379 28 -384H30Q40 -382 50 -380Q53 -380 55 -381Q53 -393 37 -411Q22 -427 19 -436Q24 -434 38 -421Q48 -411 55 -407Q83 -407 86 -439Q90 -438 95 -438Q98 -438 105 -441Q99 -457 95 -477V-480Q101 -476 108 -459Q114 -444 120 -439Q126 -441 131 -444L133 -443Q136 -443 136 -440Q136 -437 135 -435L136 -432Q143 -424 154 -421Q164 -417 171 -413Q173 -414 177 -422Q180 -428 186 -429Q188 -425 188 -415V-402Q188 -385 197 -381Q199 -383 200 -385Q200 -387 203 -387H204V-372Q217 -357 237 -321V-319Q237 -310 243 -288Q248 -270 248 -260Q248 -247 240 -238ZM348 -21V9Q348 60 327 72Q321 74 314 75Q307 76 301 81Q279 70 259 57Q257 53 239 -1Q227 -36 207 -45Q209 -48 216 -48Q213 -60 202 -64Q190 -68 181 -75Q203 -73 211 -73Q223 -73 230 -74Q246 -97 248 -157Q248 -165 254 -335Q255 -347 255 -359Q255 -376 254 -394Q254 -429 259 -450Q264 -470 264 -501Q264 -527 259 -542Q264 -550 264 -563Q264 -576 258 -582Q260 -590 264 -596Q255 -610 245 -624Q235 -639 234 -658V-660Q239 -676 243 -696V-699Q268 -733 310 -733Q324 -733 336 -729Q337 -722 345 -712Q353 -703 353 -699Q353 -695 350 -692Q363 -684 366 -681Q373 -674 373 -664V-662Q366 -662 358 -670Q350 -677 343 -677H341Q338 -671 338 -664Q342 -640 348 -614V-602Q348 -594 353 -590Q373 -598 375 -642Q387 -631 387 -618Q387 -607 377 -588Q367 -570 366 -562V-545Q360 -534 354 -524Q353 -522 353 -517Q354 -511 354 -506Q354 -498 348 -493Q351 -487 354 -482Q347 -478 347 -467Q348 -464 348 -462Q350 -458 361 -457Q372 -456 373 -452Q375 -453 377 -457Q380 -462 384 -462L385 -459Q385 -456 384 -453Q391 -459 394 -470V-462Q394 -440 404 -423Q410 -413 427 -396V-386Q428 -378 438 -364Q448 -350 448 -345Q448 -337 439 -328Q431 -320 430 -317V-315Q432 -307 433 -299V-297Q427 -306 421 -315Q409 -312 397 -309Q393 -309 388 -312Q386 -308 381 -294Q378 -310 363 -322Q341 -340 338 -344Q334 -321 334 -283Q334 -266 336 -228Q338 -196 340 -165Q340 -149 336 -140Q326 -147 326 -174V-188Q325 -208 324 -228Q323 -248 317 -263Q310 -261 310 -246V-240Q305 -202 305 -187Q305 -170 307 -162Q309 -150 314 -78Q318 -22 332 0Q338 -10 338 -33Q338 -45 337 -57Q337 -82 344 -91Q348 -71 348 -21ZM708 -14V-16Q707 -23 698 -28Q689 -33 686 -42L690 -44Q696 -40 706 -36H707Q727 -38 739 -110Q735 -111 729 -111Q712 -111 690 -102Q672 -96 651 -88Q630 -80 625 -63Q625 -59 624 -56Q629 -32 633 -9V-3Q631 9 612 23Q594 36 591 47Q577 46 567 39Q558 31 547 24Q544 11 525 -12H523Q520 -11 516 -11L514 -12L513 -13Q517 -22 526 -28Q519 -65 513 -103Q507 -140 495 -176Q488 -191 480 -207L466 -263Q461 -276 455 -291Q449 -306 448 -323Q448 -332 451 -341Q455 -346 458 -353L457 -357Q478 -374 481 -377Q494 -390 498 -404Q503 -398 508 -393Q514 -396 519 -396Q524 -396 536 -389Q544 -384 551 -383Q554 -382 559 -382Q576 -384 593 -387Q602 -387 609 -384Q606 -378 597 -375Q589 -373 582 -370Q570 -362 570 -350Q570 -344 573 -338Q580 -339 597 -351Q615 -364 621 -366Q629 -368 636 -369Q643 -370 644 -377V-379Q644 -383 639 -388Q634 -393 633 -395Q633 -399 638 -402Q642 -404 643 -407Q634 -418 625 -432Q631 -444 631 -474V-490Q631 -522 637 -533Q640 -527 642 -507Q644 -480 655 -474Q657 -487 662 -591Q663 -598 663 -612Q663 -637 653 -647Q637 -642 637 -612Q638 -595 638 -579Q638 -569 637 -564Q628 -575 626 -590Q623 -606 621 -621Q610 -677 590 -700Q595 -715 595 -716Q595 -721 591 -726Q614 -746 639 -766Q657 -781 665 -787Q681 -800 693 -803L695 -801Q710 -798 712 -798H716Q727 -790 739 -774Q755 -752 766 -746Q766 -738 776 -716Q770 -702 769 -684Q761 -673 752 -663Q742 -643 736 -596Q732 -565 725 -531Q719 -497 718 -459Q718 -443 719 -435Q724 -429 729 -429Q741 -432 758 -441Q775 -445 791 -449Q808 -456 824 -466Q839 -476 860 -477H868Q877 -474 886 -471H887Q892 -472 899 -480Q907 -488 911 -488V-487Q911 -484 906 -476Q897 -461 897 -453Q897 -447 899 -444H901Q905 -444 910 -450Q917 -458 923 -458H924Q915 -449 915 -435Q915 -412 933 -399Q938 -362 942 -326Q938 -320 933 -315Q927 -310 926 -301Q913 -300 903 -287Q900 -283 887 -261Q879 -240 865 -226Q862 -229 862 -232Q867 -246 871 -261V-268Q871 -275 869 -287Q850 -259 839 -207Q832 -176 824 -110Q824 -102 823 -94Q823 -80 828 -74Q835 -92 841 -132Q845 -160 846 -162Q851 -178 861 -180V-173Q857 -132 852 -91Q849 -38 840 -25Q836 -28 835 -39Q834 -53 829 -54Q814 -48 814 -13Q814 9 822 16Q827 15 831 8Q836 -1 842 -1Q845 -1 847 0Q847 55 826 84Q821 91 802 100Q783 109 776 119Q768 108 750 96Q733 85 728 75Q724 60 719 44Q716 39 710 35Q700 28 698 24Q693 16 687 7Q682 3 677 0Q671 -3 669 -11Q675 -11 687 -2Q696 5 699 6Q677 -21 662 -28Q656 -31 649 -34Q642 -36 640 -44H644Q658 -44 679 -28Q697 -14 708 -14Z"/>
</svg>