<svg xmlns="http://www.w3.org/2000/svg" viewBox="0 -800 1024 1024">
	<path fill="#000000" d="M415 -620H419Q433 -620 434 -611Q430 -609 427 -609Q415 -609 415 -620ZM581 18H577Q562 18 553 9Q556 3 561 3Q576 5 581 18ZM720 -344H722Q729 -345 736 -347Q736 -349 735 -352Q737 -362 739 -373Q739 -378 736 -381Q701 -374 673 -361Q644 -347 615 -335Q614 -327 612 -319L613 -315Q668 -332 716 -350Q718 -347 720 -344ZM718 -235H723Q726 -256 726 -258Q726 -264 725 -266Q632 -249 594 -209L597 -198Q646 -209 708 -237Q713 -236 718 -235ZM534 -476H529Q523 -475 520 -469Q517 -463 513 -461Q514 -463 514 -469V-479Q491 -511 468 -524V-527Q468 -546 445 -564Q447 -570 452 -573V-577Q449 -591 442 -600H444Q450 -599 455 -599H457Q463 -605 463 -617Q460 -639 457 -662V-665Q463 -664 468 -648Q473 -633 477 -630Q478 -638 481 -645Q488 -639 503 -632Q525 -622 532 -612Q554 -623 555 -624Q555 -619 554 -615Q554 -597 572 -566Q591 -533 591 -511Q591 -499 585 -488Q578 -475 566 -471Q563 -470 559 -470Q547 -473 534 -476ZM840 -4V1Q845 9 845 16Q843 31 834 45Q833 58 831 71Q825 77 819 83Q811 95 803 106Q799 111 791 116Q783 121 781 125Q760 116 738 107Q716 97 702 81Q697 74 693 64Q689 54 680 51Q641 38 594 17Q632 24 675 27Q662 22 629 14Q578 2 558 -11H563Q578 -11 611 -1Q647 10 666 10Q674 10 678 9Q659 -4 628 -14Q632 -15 640 -15Q657 -14 674 -13Q695 -13 702 -24Q704 -39 707 -72Q711 -119 716 -140Q638 -133 604 -102Q602 -100 602 -94Q605 -80 607 -67V-65Q605 -52 596 -38Q586 -23 574 -23Q567 -23 560 -30Q556 -28 549 -28Q528 -28 505 -66H492Q508 -82 508 -127V-141Q504 -170 499 -200Q499 -209 502 -215Q507 -206 511 -175Q515 -146 522 -134Q532 -150 532 -171Q532 -182 520 -240Q518 -255 516 -270Q514 -285 505 -294Q499 -293 499 -281V-265Q499 -255 496 -253H494Q488 -254 487 -261Q487 -268 486 -275Q482 -286 478 -297V-312Q477 -319 467 -332Q459 -343 458 -350H453Q446 -350 429 -344Q415 -339 406 -339H403Q398 -331 398 -321Q403 -291 428 -285Q430 -286 432 -290Q434 -295 438 -295H440V-293Q439 -288 438 -283L439 -279H440Q448 -279 455 -288Q463 -298 471 -298Q464 -270 464 -268V-263Q471 -250 478 -240Q474 -228 474 -223Q474 -216 477 -209Q464 -196 464 -180V-174H462Q458 -175 454 -177Q449 -174 449 -161V-147H448Q441 -148 440 -154Q439 -161 437 -168Q419 -174 400 -181Q395 -171 395 -153Q398 -120 400 -88Q386 -95 385 -135Q384 -167 377 -175Q368 -162 368 -126Q368 -102 369 -90Q370 -60 371 -38Q371 -15 381 -2Q393 -6 393 -23Q393 -33 392 -44Q392 -56 397 -61Q406 -48 406 -24Q403 27 379 55Q373 56 363 60Q361 60 360 67Q360 73 356 74H354Q353 75 352 74Q351 72 351 70V64Q333 47 308 35Q306 20 288 5Q274 -7 270 -15Q272 -24 274 -33Q270 -52 242 -52Q245 -58 254 -58Q263 -58 271 -60Q284 -77 285 -136Q286 -177 290 -192Q276 -186 264 -174Q213 -124 198 -106Q164 -65 150 -21Q138 -22 129 -27Q123 -24 120 -19Q116 -13 113 -9Q111 -10 111 -14Q111 -20 113 -24Q110 -29 98 -31Q89 -32 83 -37Q76 -43 67 -60Q53 -80 52 -84V-86Q55 -95 57 -105Q57 -116 44 -131Q31 -145 30 -156Q37 -156 50 -148Q62 -141 70 -140Q89 -140 133 -171Q237 -247 282 -304Q235 -292 214 -286Q175 -274 150 -258Q130 -241 113 -234H108Q89 -236 76 -256Q62 -275 46 -288Q44 -306 44 -320Q44 -337 48 -345Q33 -364 33 -386Q33 -406 45 -427Q58 -449 62 -453Q72 -464 91 -465Q137 -509 181 -525Q171 -512 157 -502Q143 -493 139 -473H140Q148 -473 155 -482Q161 -489 164 -489H165L166 -486Q164 -481 162 -476H170Q199 -480 228 -484Q232 -484 242 -482V-480Q242 -475 238 -474Q234 -473 231 -473Q210 -469 185 -467Q159 -464 153 -444Q160 -436 171 -436Q188 -438 203 -444Q227 -450 256 -457Q284 -464 302 -476Q293 -486 280 -486H274V-487Q275 -498 284 -499Q293 -500 301 -502Q300 -512 290 -534Q276 -565 276 -580Q276 -588 279 -597Q282 -606 298 -618Q312 -629 323 -633Q328 -635 337 -635Q346 -635 358 -629Q373 -622 382 -621Q386 -619 390 -613Q396 -604 403 -603Q413 -562 428 -525Q446 -529 463 -533Q463 -527 462 -522Q462 -518 464 -516Q481 -512 482 -491Q484 -469 489 -451Q479 -438 474 -420Q491 -433 510 -450Q526 -440 542 -440Q560 -441 579 -448Q598 -455 621 -462Q617 -477 603 -480Q606 -493 606 -508Q604 -545 601 -583Q601 -597 604 -611Q612 -602 612 -577V-550Q612 -523 622 -514Q631 -518 631 -552Q631 -631 628 -657Q625 -679 615 -687Q607 -686 607 -673Q606 -660 606 -653Q595 -657 595 -671Q595 -684 593 -696Q590 -708 581 -722Q567 -744 567 -759V-761Q611 -776 650 -809H654Q664 -809 668 -807Q687 -796 709 -759Q725 -732 736 -722Q735 -720 735 -717Q738 -706 740 -695Q740 -692 739 -690Q737 -686 730 -680Q724 -675 722 -672Q706 -650 701 -588Q698 -556 698 -488Q701 -487 703 -487Q716 -491 729 -495H730Q735 -512 751 -539Q769 -570 775 -590Q777 -598 785 -611Q794 -626 794 -633Q794 -644 781 -655Q772 -663 769 -669Q807 -682 844 -696Q868 -709 889 -713H890Q902 -710 909 -697Q916 -685 924 -675H926Q930 -676 933 -677H935V-666Q943 -669 951 -672L955 -671V-670Q952 -659 948 -649Q966 -612 971 -564Q971 -557 969 -545Q949 -536 941 -536H938Q938 -541 947 -548Q956 -555 957 -562V-565Q954 -585 938 -587Q931 -586 928 -579Q925 -572 921 -565Q910 -553 892 -543Q873 -532 871 -517Q874 -516 876 -516Q881 -516 890 -523Q899 -530 907 -530H908V-528Q907 -524 901 -521Q894 -518 889 -514Q877 -506 865 -498Q869 -480 875 -474Q878 -475 885 -482Q893 -490 898 -490L902 -489Q902 -485 894 -477Q883 -465 883 -458Q883 -455 884 -453Q886 -451 888 -451Q890 -451 893 -454Q898 -458 901 -458H904Q900 -451 898 -444V-439Q902 -416 905 -393Q902 -384 899 -375Q899 -374 901 -370Q878 -363 869 -343Q859 -323 850 -303Q844 -303 844 -308Q844 -312 849 -322Q849 -323 843 -329Q824 -318 816 -260Q805 -207 801 -143Q801 -101 816 -75Q825 -79 825 -93Q824 -105 823 -118V-130Q823 -217 841 -256Q834 -154 834 -58Q835 -52 835 -47Q835 -42 831 -39Q826 -41 824 -52Q822 -62 816 -63H815Q806 -63 806 -43Q810 4 822 15Q830 15 830 6V-4Q830 -12 834 -14Q840 -14 840 -4Z"/>
</svg>