<svg xmlns="http://www.w3.org/2000/svg" viewBox="0 -800 1024 1024">
	<path fill="#000000" d="M918 -332V-328Q916 -318 910 -314Q908 -318 908 -322Q908 -332 915 -332ZM896 -78H901Q900 -69 893 -67Q886 -65 879 -63V-66Q879 -78 896 -78ZM663 -376Q632 -375 598 -354Q600 -348 601 -342Q629 -346 657 -351Q663 -367 663 -376ZM681 -464H678Q670 -464 666 -463Q647 -461 618 -447Q583 -430 583 -414Q583 -412 585 -406Q600 -408 624 -422Q651 -437 673 -439Q677 -451 681 -464ZM254 -144V-158Q254 -187 259 -217H258Q236 -217 224 -199Q214 -183 214 -159Q214 -143 217 -130Q233 -141 254 -144ZM219 -295V-291Q226 -292 244 -304Q257 -313 267 -316Q266 -321 266 -331Q267 -353 268 -376Q268 -384 266 -398Q219 -374 219 -295ZM755 -618V-619Q597 -579 520 -520Q523 -510 525 -500Q532 -504 537 -509Q538 -506 547 -506Q588 -526 642 -542Q696 -558 726 -589H728Q734 -587 740 -586Q741 -592 747 -600Q755 -612 755 -618ZM576 63H569Q543 63 538 79Q523 69 515 69Q508 69 505 79L504 75Q508 68 514 60Q509 49 497 49Q476 49 454 77Q466 50 487 28Q481 17 480 -16Q479 -41 476 -52Q488 -42 497 -41Q501 -52 507 -63Q513 -74 524 -75Q526 -75 532 -73Q537 -78 544 -78H547Q566 -54 580 -29Q584 -33 587 -39Q590 -45 598 -46Q592 -33 588 5Q584 48 576 63ZM868 -15H869Q862 -1 860 13Q860 20 867 26Q863 34 860 57Q857 86 848 94Q822 94 800 72Q809 74 818 75Q823 75 826 72Q821 47 800 32Q782 19 756 16Q757 28 771 40Q782 50 785 57H782Q771 56 763 49Q755 41 747 34Q715 18 703 -18Q691 -53 681 -91H682Q687 -89 692 -88H694Q697 -92 697 -103Q710 -111 729 -111Q748 -111 776 -98Q788 -92 817 -76Q832 -91 847 -106V-105Q847 -100 842 -91Q835 -78 835 -72Q835 -67 838 -63Q847 -71 858 -84Q875 -104 883 -110Q879 -100 866 -84Q848 -63 847 -44Q850 -47 856 -52Q861 -57 870 -58H872Q855 -50 855 -23Q855 -16 856 -13L859 -12Q864 -13 868 -15ZM917 -242H918L920 -241Q917 -236 913 -232Q913 -222 912 -213Q912 -205 915 -202Q907 -186 901 -167Q894 -149 878 -141Q851 -155 826 -158Q818 -157 810 -157Q803 -157 799 -161Q801 -171 810 -172Q819 -174 826 -178Q820 -191 797 -191Q765 -190 755 -172Q758 -168 764 -168H771Q776 -168 777 -166Q776 -156 761 -156H747Q666 -147 601 -135Q621 -157 663 -158Q704 -159 737 -169Q732 -179 715 -179Q708 -178 700 -178Q670 -175 610 -164Q584 -160 560 -157Q536 -154 524 -135Q534 -130 556 -130V-128Q556 -124 555 -120V-118Q505 -99 466 -63Q453 -47 439 -41H438Q415 -44 409 -71Q410 -73 410 -76Q389 -87 388 -120Q388 -143 399 -154Q398 -158 398 -166Q398 -186 409 -200Q414 -207 434 -222Q451 -237 461 -249Q470 -260 490 -263Q482 -254 473 -243Q464 -231 463 -218Q463 -211 466 -205Q482 -207 498 -210H505Q522 -220 546 -223Q570 -227 593 -232Q585 -250 580 -257Q573 -254 565 -251Q543 -262 532 -286Q534 -300 534 -307Q534 -361 496 -392V-411H495Q480 -407 464 -395Q451 -401 438 -408Q434 -408 432 -400Q430 -408 428 -417Q425 -426 416 -427Q410 -427 406 -421Q402 -416 398 -414Q403 -429 408 -445L405 -446Q391 -443 376 -411Q363 -384 357 -331Q356 -319 349 -236Q345 -237 340 -239V-245Q341 -264 341 -283Q341 -309 333 -322Q323 -315 319 -296Q317 -287 315 -262Q313 -218 313 -193Q313 -112 333 -85Q338 -96 338 -114Q337 -136 336 -158Q336 -179 342 -190Q350 -165 351 -130Q352 -96 355 -64Q357 -52 359 -40V-35Q358 -27 350 -15Q344 -6 343 0Q339 1 331 1Q309 0 295 -13Q281 -25 267 -37Q254 -33 243 -31Q232 -29 222 -18Q218 -13 207 9Q199 25 189 26H188Q178 26 160 10Q140 -8 140 -23V-25Q134 -32 124 -35Q125 -44 133 -58Q129 -75 112 -133Q100 -170 96 -208Q104 -206 109 -194Q112 -188 116 -171Q124 -138 139 -133Q140 -140 140 -148Q140 -223 94 -283Q82 -301 62 -308Q54 -308 54 -293V-292Q54 -282 68 -264Q81 -247 81 -240Q81 -236 78 -232Q53 -257 28 -283Q31 -292 31 -306V-329Q33 -340 42 -360Q51 -378 51 -386Q51 -398 43 -418Q33 -443 33 -456Q33 -463 34 -466Q41 -448 47 -431Q54 -418 55 -416Q61 -408 69 -408H71Q68 -417 60 -428Q52 -439 51 -454Q56 -451 62 -439Q71 -422 81 -422Q85 -422 88 -423Q82 -435 75 -447Q83 -436 99 -436Q121 -439 143 -443H146Q154 -442 165 -434Q175 -426 182 -426Q187 -431 190 -439Q228 -467 259 -503Q291 -540 334 -565Q338 -565 343 -560Q348 -556 352 -556H353Q344 -590 344 -610Q344 -642 361 -658Q361 -663 355 -691Q360 -691 366 -681Q373 -669 376 -667V-674Q376 -703 356 -745Q364 -742 368 -733Q373 -725 377 -716Q388 -700 399 -684Q411 -684 419 -667Q423 -670 426 -677Q430 -686 434 -688Q431 -679 431 -672Q431 -661 439 -655Q445 -658 451 -661V-657Q451 -643 467 -635Q472 -636 482 -644H484Q498 -648 512 -652Q515 -652 518 -649Q516 -645 505 -638Q491 -629 488 -622Q488 -619 492 -616Q495 -614 496 -612Q516 -622 585 -645Q642 -664 667 -684Q660 -688 650 -688Q639 -688 614 -679Q568 -663 564 -662Q573 -676 592 -685Q598 -688 627 -697Q700 -720 773 -743Q809 -755 821 -760Q846 -771 860 -787H885Q888 -786 890 -781Q892 -777 894 -776Q902 -778 909 -781V-780Q908 -770 906 -761Q906 -754 910 -751Q918 -755 929 -765Q941 -776 947 -779Q943 -772 936 -762Q929 -752 928 -738Q928 -731 932 -724L934 -723Q938 -727 942 -731L943 -730Q942 -716 940 -703V-697Q945 -684 949 -672Q949 -662 940 -644Q930 -623 930 -611Q930 -607 932 -599Q927 -599 920 -593Q915 -588 910 -588Q906 -588 904 -589L903 -593Q903 -599 909 -610Q915 -621 915 -625Q915 -632 906 -635Q904 -635 901 -636Q885 -636 861 -614Q840 -594 833 -580Q851 -586 873 -591Q882 -591 888 -584Q841 -573 812 -536Q815 -526 817 -517Q818 -517 822 -520Q828 -526 832 -526H833Q823 -518 820 -501V-497L823 -496L826 -499Q825 -469 818 -449Q809 -422 791 -418L790 -422Q790 -426 797 -437Q804 -448 804 -456Q804 -459 802 -463H799Q784 -463 782 -446L780 -445Q776 -447 772 -450L770 -449Q728 -431 728 -336Q741 -356 750 -383H752Q756 -381 759 -380Q764 -387 767 -394Q770 -402 779 -403Q754 -356 743 -295Q722 -276 700 -260Q683 -265 666 -270Q661 -282 650 -282H645Q650 -273 653 -259Q653 -256 651 -250Q691 -252 762 -269Q820 -283 859 -286Q877 -301 903 -304Q887 -298 887 -282Q887 -276 891 -271Q905 -273 918 -275Q923 -275 929 -273Q907 -265 904 -241Q907 -238 908 -238Q913 -240 917 -242Z"/>
</svg>