<svg xmlns="http://www.w3.org/2000/svg" viewBox="0 -800 1024 1024">
	<path fill="#000000" d="M25 -180V-184Q34 -182 37 -175Q40 -167 44 -161L40 -160Q27 -161 25 -180ZM976 -211Q974 -200 966 -196Q957 -193 948 -190Q952 -212 968 -212Q973 -212 976 -211ZM412 -299H413Q413 -293 409 -288Q404 -282 404 -278Q426 -284 443 -304Q441 -312 441 -318Q441 -333 446 -341Q415 -339 384 -322Q382 -312 382 -308Q382 -294 390 -286Q396 -287 404 -294Q410 -299 412 -299ZM584 -118V-133Q582 -206 579 -280Q568 -273 551 -257Q525 -233 511 -225Q462 -239 444 -297Q423 -290 421 -266Q422 -263 422 -260H423Q428 -262 433 -265Q436 -265 437 -263Q431 -259 431 -253Q434 -241 437 -230V-225Q436 -202 434 -179V-170Q431 -167 428 -166Q424 -165 424 -160L425 -156Q423 -158 415 -158Q413 -156 413 -151V-145Q413 -141 412 -140Q409 -155 382 -159L381 -156V-151Q381 -147 379 -146Q372 -152 366 -152Q363 -157 363 -172V-181Q363 -202 351 -203Q337 -168 337 -109Q337 -55 355 -37Q367 -44 367 -62Q368 -81 373 -95Q377 -93 381 -92V-79Q381 -60 384 -44Q386 -55 393 -60Q399 -64 407 -71Q414 -80 418 -87Q423 -95 434 -95H438Q441 -102 443 -110L524 -193Q526 -183 537 -162Q545 -148 548 -136Q543 -128 543 -116Q543 -107 546 -103Q560 -106 584 -118ZM949 68H945Q937 68 921 76Q903 85 891 85Q885 85 882 84Q874 82 863 69Q854 58 847 55Q849 49 850 43Q853 43 862 51Q875 62 882 64Q886 61 890 58Q879 28 838 -13Q831 -10 831 -4Q833 6 835 16Q835 22 831 25Q821 17 810 -3Q796 -28 786 -35Q752 -33 718 -31Q720 -40 736 -45Q749 -49 752 -53V-55Q752 -66 730 -66Q715 -66 708 -65Q633 -56 566 -31Q537 -18 534 1Q563 -8 591 -17Q630 -30 649 -30Q666 -30 675 -21Q609 -5 550 16Q491 36 452 79Q412 75 403 40Q394 5 385 -31Q382 -27 382 -13V-2Q364 -1 358 17Q356 18 353 18Q348 17 343 16H342Q338 17 337 22Q336 26 336 31Q328 19 312 9Q309 7 283 -8Q278 -31 259 -37Q262 -43 262 -47Q260 -58 252 -67Q268 -84 273 -111Q277 -139 281 -167Q257 -155 238 -131Q220 -106 201 -82Q184 -61 172 -37Q161 -13 149 11Q140 6 114 2Q88 -2 78 -8Q73 -24 69 -40Q65 -56 52 -64Q54 -72 54 -74Q50 -93 46 -112Q48 -111 50 -106Q52 -100 55 -100L58 -101Q56 -108 41 -123Q26 -138 22 -148Q52 -126 68 -116Q67 -121 60 -130Q50 -142 49 -148Q62 -144 70 -136Q78 -127 87 -121Q127 -136 168 -168Q196 -191 238 -233Q248 -242 262 -255Q277 -267 281 -277L282 -281V-286Q282 -289 283 -291Q236 -281 214 -272Q173 -255 163 -225Q145 -219 132 -219Q107 -219 74 -244Q58 -255 44 -287Q34 -307 31 -325Q31 -332 33 -337Q30 -344 30 -352Q33 -373 47 -395Q57 -417 66 -440Q103 -449 142 -467L176 -487Q190 -499 206 -502Q210 -502 212 -501Q196 -488 179 -478Q162 -467 160 -441Q172 -444 178 -452Q185 -461 193 -467V-464Q193 -461 189 -454Q184 -445 184 -440Q186 -439 190 -439Q212 -444 229 -449Q235 -449 238 -445Q233 -439 214 -431Q189 -420 184 -406Q188 -404 191 -404Q203 -408 215 -412Q263 -428 311 -448Q310 -457 293 -457Q286 -457 281 -454Q280 -456 280 -459Q280 -468 301 -476Q300 -508 284 -528Q270 -545 244 -557Q242 -567 242 -571Q242 -586 251 -600Q251 -601 269 -625Q285 -651 298 -661Q310 -655 327 -655Q343 -655 367 -659Q390 -633 413 -607Q415 -574 422 -557Q409 -541 407 -538Q399 -525 399 -513Q399 -503 403 -495Q448 -510 477 -512Q473 -505 469 -498Q472 -492 474 -487L476 -486Q480 -487 484 -488Q479 -477 474 -466Q475 -458 481 -457H484Q470 -441 468 -428L471 -426H478Q467 -423 467 -405Q467 -392 474 -388Q488 -417 503 -444Q518 -471 529 -503Q531 -501 531 -494Q530 -481 529 -469Q533 -470 535 -479Q537 -488 543 -488Q541 -476 541 -470Q541 -447 558 -437Q557 -434 557 -429Q560 -411 567 -397Q591 -407 591 -462Q590 -497 588 -532Q588 -582 585 -623Q582 -664 546 -673Q576 -730 635 -773Q649 -772 664 -765Q681 -747 683 -745Q695 -735 709 -733Q711 -720 723 -701Q736 -681 737 -671Q733 -656 729 -642Q729 -637 730 -635Q724 -632 720 -620Q715 -606 706 -605Q705 -608 705 -613Q705 -620 711 -638Q717 -656 717 -667Q717 -701 691 -719Q687 -716 683 -713Q686 -686 694 -665Q681 -641 677 -570Q675 -558 675 -554Q675 -546 680 -541Q688 -543 692 -560Q696 -577 705 -579Q693 -495 693 -470V-455Q706 -461 723 -472Q720 -484 716 -496Q717 -498 717 -501Q718 -507 730 -515Q742 -523 748 -524H752Q775 -522 797 -509Q819 -496 832 -490Q836 -490 839 -494Q842 -498 845 -498H847Q850 -492 852 -485Q854 -478 861 -476Q869 -482 875 -489Q881 -497 891 -500Q872 -475 872 -465Q872 -457 878 -452Q882 -453 883 -458Q885 -464 888 -464H890L891 -462Q888 -455 885 -449V-443Q890 -410 894 -377V-371Q894 -355 893 -340Q894 -322 894 -305Q875 -291 851 -291Q829 -291 814 -305Q801 -316 785 -342Q770 -365 764 -371Q728 -363 674 -329Q673 -320 672 -310Q670 -300 664 -296Q659 -320 655 -325Q641 -324 641 -302V-284Q640 -253 638 -223Q638 -187 652 -178Q656 -186 656 -214Q656 -251 667 -259Q670 -241 670 -220Q670 -205 669 -190Q669 -151 677 -133Q710 -142 743 -151Q733 -197 733 -228V-235Q740 -236 746 -238Q748 -242 748 -251Q748 -261 749 -265Q760 -257 766 -247Q795 -236 814 -215Q832 -193 853 -175Q864 -183 877 -187Q881 -187 885 -184Q871 -176 871 -164Q871 -157 876 -152Q891 -163 940 -190Q938 -183 920 -170Q894 -151 894 -135Q894 -132 896 -124Q900 -115 911 -107Q927 -113 941 -120Q955 -128 974 -130Q962 -121 945 -111Q928 -101 926 -83V-80Q928 -67 943 -66Q957 -65 974 -62Q965 -58 955 -55Q944 -52 942 -41V-40Q942 -32 946 -19Q951 -4 956 -4L959 -5Q947 29 947 50Q947 62 949 68Z"/>
</svg>