<svg xmlns="http://www.w3.org/2000/svg" viewBox="0 -800 1024 1024">
	<path fill="#000000" d="M920 -104V-102Q917 -91 914 -81Q910 -85 910 -95Q910 -104 917 -104ZM282 -247V-245Q294 -246 310 -254Q307 -258 299 -258Q282 -258 282 -247ZM397 -280H391Q378 -280 378 -267V-262Q391 -262 397 -280ZM899 -298Q892 -283 884 -268Q882 -272 882 -278Q882 -286 885 -293Q888 -300 893 -300Q897 -300 899 -298ZM327 -452V-457Q320 -456 294 -448Q293 -440 292 -433Q315 -438 323 -439Q327 -443 327 -452ZM322 -319V-325Q323 -335 323 -346Q304 -345 289 -339V-314Q306 -316 322 -319ZM412 -336Q418 -356 424 -376Q419 -381 414 -381Q400 -378 386 -370Q380 -352 380 -340Q380 -333 381 -330Q391 -331 412 -336ZM330 -572H333Q339 -584 339 -590V-593Q329 -594 318 -595H314Q311 -595 309 -590Q307 -586 306 -586L304 -587Q305 -593 313 -602Q322 -611 322 -621V-624Q315 -630 307 -634H306Q308 -630 308 -623Q306 -607 300 -595Q295 -594 290 -593H288V-592Q288 -587 282 -583Q278 -580 277 -577Q277 -565 289 -565Q310 -568 330 -572ZM68 5L77 -10Q73 -25 59 -25Q45 -25 33 -13Q35 -19 43 -27Q54 -38 54 -45Q54 -48 52 -54Q47 -56 42 -58Q54 -67 64 -104Q84 -121 111 -121H116Q135 -103 153 -83Q170 -64 174 -31Q173 -29 168 -25Q161 -20 161 -15Q161 -12 162 -10Q149 -5 139 2Q117 -1 94 -5Q76 -5 68 5ZM427 -76H422Q414 -75 406 -75Q413 -83 413 -97Q408 -125 403 -153V-160Q425 -175 455 -175Q462 -172 471 -163Q483 -150 494 -150H496Q495 -147 495 -141Q495 -131 501 -130Q506 -131 515 -137Q523 -143 530 -143Q535 -143 538 -142Q517 -130 514 -98Q514 -83 525 -75Q517 -63 511 -51Q504 -38 493 -31Q488 -30 483 -30Q459 -31 449 -47Q439 -63 427 -76ZM940 58V65Q939 75 932 88Q925 101 923 109Q911 112 897 112Q865 112 849 96Q839 84 828 72Q812 56 812 50V48Q814 47 819 47Q827 47 837 59Q847 70 854 72Q856 69 856 64Q856 56 846 40Q826 11 796 -21Q782 -40 769 -60Q756 -80 736 -89Q765 -43 794 2Q805 12 809 27Q809 30 807 34Q789 19 763 -26Q745 -57 732 -72Q730 -75 718 -83Q707 -91 702 -98Q661 -61 648 -12H643Q633 -12 625 -4Q609 -11 604 -22Q594 -20 578 -1V-3Q580 -18 588 -28Q568 -50 565 -70L564 -71Q561 -70 558 -70H556Q556 -73 563 -85Q559 -98 559 -114Q559 -135 569 -160Q562 -193 562 -212Q562 -228 566 -239Q572 -201 582 -170Q591 -172 601 -186Q610 -199 618 -199H619L620 -195Q619 -188 613 -182Q606 -177 605 -170L606 -166Q648 -194 660 -254Q649 -254 640 -235Q630 -214 621 -211Q635 -257 652 -280Q648 -289 640 -295Q642 -300 644 -304Q646 -308 652 -308H654Q668 -337 701 -340Q711 -340 720 -336Q733 -331 750 -300Q766 -272 778 -267Q769 -263 769 -250Q771 -235 772 -220V-217Q748 -207 747 -181V-176Q750 -165 765 -150Q780 -134 788 -126Q814 -95 833 -76Q838 -88 839 -124Q840 -160 846 -173Q849 -158 849 -130Q849 -94 852 -81Q858 -95 858 -135Q858 -184 869 -198Q871 -193 871 -182Q869 -160 867 -139Q867 -124 875 -116Q875 -133 877 -161Q878 -172 878 -196Q878 -241 886 -258Q887 -248 887 -225Q887 -187 886 -149Q886 -106 890 -78Q892 -63 904 -55V-60Q904 -71 910 -73Q915 -72 915 -67Q914 -59 913 -52Q913 -35 926 1Q940 39 940 58ZM792 -340H788Q784 -338 781 -333Q777 -326 772 -325L778 -342Q771 -348 763 -355Q760 -354 754 -354Q744 -354 739 -360Q731 -352 724 -349H723Q727 -372 747 -406Q762 -432 767 -448H763Q753 -448 744 -440Q738 -435 735 -435L732 -436Q717 -422 708 -415Q693 -404 680 -400Q678 -393 667 -386Q657 -380 655 -376Q642 -373 629 -371H625Q619 -372 608 -382Q598 -392 593 -394H585Q582 -399 578 -405Q571 -411 563 -415Q556 -419 553 -426Q557 -476 578 -528Q584 -542 585 -553Q586 -562 593 -587Q601 -616 601 -633Q601 -643 598 -655Q585 -664 565 -684Q557 -681 554 -673Q550 -665 547 -658Q545 -661 545 -667Q548 -681 553 -693Q555 -719 566 -735Q575 -742 584 -750Q606 -781 628 -804H642L693 -766Q707 -758 721 -751Q736 -743 742 -727Q731 -728 716 -736Q702 -744 694 -744H690Q692 -731 707 -720Q722 -709 723 -697V-696Q723 -688 716 -675Q708 -660 708 -648V-644Q715 -648 723 -667Q733 -691 744 -696Q739 -704 736 -712Q736 -715 739 -718H740Q750 -717 752 -707Q754 -697 759 -691Q746 -678 746 -668Q746 -664 747 -661Q731 -656 725 -641Q720 -626 713 -607Q701 -588 698 -563Q698 -556 699 -552Q736 -571 773 -581L774 -578Q773 -571 763 -567Q753 -563 745 -559Q716 -546 713 -537Q715 -536 720 -536Q736 -540 754 -550Q767 -555 781 -558Q794 -562 804 -571Q802 -576 785 -583Q793 -596 807 -603Q821 -610 833 -619Q840 -626 848 -639Q859 -658 868 -664L869 -662Q865 -655 861 -649Q854 -633 852 -612H853Q856 -613 859 -618Q862 -624 868 -625L870 -622Q867 -613 864 -604Q867 -599 873 -599Q883 -602 893 -606L894 -604Q891 -598 887 -593V-590Q890 -565 910 -553Q917 -558 923 -561Q924 -561 928 -559L929 -557Q926 -554 922 -546L923 -543L927 -542Q938 -545 948 -549Q951 -549 955 -547Q928 -542 928 -511Q930 -488 931 -465Q931 -448 926 -437Q913 -426 899 -415Q888 -416 877 -418Q878 -428 896 -438Q913 -447 913 -457Q913 -459 911 -465Q838 -448 807 -376Q818 -377 832 -397Q843 -412 849 -415Q855 -418 860 -418Q868 -418 871 -409Q831 -394 804 -336Q798 -338 792 -340ZM371 90H369Q348 90 329 68Q315 52 303 48Q302 25 288 15Q275 5 261 -4Q263 -5 266 -5Q276 -2 285 0H288Q281 -8 253 -18Q228 -27 219 -34H223Q245 -29 267 -25Q252 -29 239 -37Q243 -37 247 -38Q271 -34 294 -31Q303 -31 310 -34Q312 -92 313 -151V-173H309Q297 -173 279 -167Q269 -150 269 -125Q269 -99 268 -76Q266 -47 243 -41Q240 -40 237 -40Q215 -40 197 -66Q180 -91 180 -118V-120L190 -139Q181 -147 169 -150Q161 -163 161 -180Q161 -193 171 -223Q176 -227 190 -228Q208 -229 209 -236Q204 -236 199 -237Q171 -236 149 -221Q127 -207 103 -195Q83 -204 79 -207Q58 -221 58 -233Q58 -236 62 -240Q65 -243 68 -248Q71 -256 73 -264Q82 -277 109 -296L106 -280Q146 -283 209 -302Q212 -308 214 -314H212Q201 -314 189 -305Q178 -296 171 -296H168Q155 -296 141 -315Q128 -333 116 -336Q115 -340 115 -348Q115 -368 124 -384Q134 -401 151 -401Q154 -400 157 -400Q165 -405 214 -420L215 -423Q215 -428 214 -433L215 -437Q212 -438 206 -438Q194 -438 170 -426Q146 -414 131 -414H130Q109 -416 98 -431Q86 -446 73 -459Q80 -516 86 -537Q92 -533 100 -531Q115 -535 155 -538Q184 -540 200 -543Q206 -545 206 -559Q198 -559 191 -552Q183 -545 178 -544Q177 -562 156 -562Q146 -562 141 -561Q142 -565 142 -570Q142 -575 139 -580Q126 -577 115 -571Q123 -583 132 -593Q128 -595 126 -595Q117 -591 107 -587Q105 -587 101 -589Q96 -588 89 -580Q83 -572 76 -571Q82 -586 100 -600Q87 -596 76 -586Q66 -577 58 -572Q59 -584 69 -592Q78 -599 86 -606Q96 -617 106 -627Q116 -638 130 -640Q132 -636 132 -635Q131 -629 130 -624Q164 -642 186 -673Q180 -676 176 -676Q168 -676 157 -663Q146 -650 138 -650H136V-653Q136 -659 148 -670Q160 -681 162 -688H164Q168 -689 171 -691Q170 -693 165 -696Q159 -699 159 -704Q177 -706 178 -715Q207 -720 235 -725Q244 -725 251 -722Q257 -720 265 -715Q276 -707 283 -707H285Q282 -702 279 -697Q285 -686 291 -676Q332 -696 377 -753Q373 -759 373 -766Q373 -776 378 -779H387Q407 -781 427 -783Q437 -783 443 -778Q444 -777 454 -762Q472 -749 480 -725Q473 -722 473 -709Q473 -700 476 -694Q492 -688 492 -656Q492 -638 485 -630H481Q454 -630 434 -623Q415 -616 396 -609Q398 -591 404 -587Q429 -588 470 -599Q516 -611 535 -612Q530 -606 525 -600Q519 -594 519 -584Q523 -582 525 -582Q538 -586 551 -591Q555 -591 557 -589Q548 -583 538 -578Q529 -572 523 -561Q533 -563 543 -565H545Q542 -554 532 -540Q533 -536 540 -531Q545 -527 547 -523Q499 -499 479 -495Q480 -504 490 -510Q502 -517 504 -521Q494 -523 489 -523Q459 -523 418 -500Q422 -496 429 -496Q442 -497 454 -499Q461 -499 465 -495Q451 -484 425 -482Q403 -480 398 -459Q407 -460 426 -468Q455 -480 471 -480H477Q488 -477 499 -474Q503 -474 512 -481Q519 -486 524 -486H525Q520 -477 517 -466Q517 -464 519 -460Q524 -460 534 -468Q545 -477 553 -478Q547 -470 540 -463Q534 -456 533 -443Q533 -439 541 -439Q538 -431 538 -423Q540 -403 541 -384Q541 -370 536 -360Q544 -362 551 -365Q554 -359 556 -353Q558 -347 566 -346H569Q568 -344 568 -341Q570 -335 572 -329Q572 -326 569 -325Q574 -319 578 -313Q577 -303 564 -294Q554 -287 551 -282Q545 -283 526 -283Q491 -283 481 -277Q468 -264 462 -244Q456 -223 449 -202Q438 -194 420 -192Q402 -190 386 -187Q384 -182 384 -168Q385 -152 385 -137Q385 -130 383 -120Q373 -120 372 -135Q370 -157 369 -160Q355 -141 355 -94Q356 -67 357 -40Q359 7 378 17Q385 9 385 -7Q380 -38 375 -72Q375 -82 378 -91Q387 -84 389 -72Q391 -60 393 -49Q402 3 402 25Q402 45 397 68Q381 77 371 90Z"/>
</svg>