<svg xmlns="http://www.w3.org/2000/svg" viewBox="0 -800 1024 1024">
	<path fill="#000000" d="M823 -371V-375Q825 -390 835 -391Q839 -391 842 -388Q835 -377 823 -371ZM232 -684H231Q223 -684 223 -694Q223 -707 233 -707Q236 -707 238 -706Q238 -689 232 -684ZM367 -223V-226Q369 -228 373 -228Q379 -228 383 -219Q386 -212 386 -201Q386 -195 385 -193Q367 -203 367 -223ZM112 -299V-303Q112 -345 84 -357Q86 -360 88 -360Q95 -358 101 -356L105 -357Q107 -359 107 -363Q107 -365 105 -373Q130 -386 168 -386Q185 -386 217 -382Q227 -380 243 -363Q257 -348 265 -345Q267 -315 269 -285Q269 -242 242 -233Q237 -233 220 -240Q194 -250 182 -250Q179 -249 176 -249Q171 -248 166 -242Q162 -236 158 -236Q158 -244 159 -246Q143 -255 133 -270Q123 -285 112 -299ZM327 -118V-117Q322 -107 309 -93Q308 -85 307 -78Q293 -69 281 -57Q269 -46 250 -41Q255 -60 270 -70Q285 -80 294 -97Q292 -98 287 -98Q273 -97 259 -86Q246 -76 233 -66Q202 -44 195 -25Q197 -22 198 -20V-19Q211 -23 224 -27Q226 -27 230 -25Q230 -14 215 -7Q204 -2 201 3Q197 10 193 29Q188 54 179 62Q173 60 171 60Q164 60 155 71Q136 61 114 53Q93 44 79 31Q62 12 62 -1Q65 -12 67 -24Q64 -42 60 -60Q60 -69 65 -75Q70 -81 80 -87Q94 -96 99 -103Q104 -114 106 -128Q107 -142 121 -150Q118 -142 118 -130Q118 -108 125 -101Q162 -117 222 -158Q289 -203 327 -219V-218Q327 -215 317 -209Q306 -203 303 -199Q298 -192 298 -185Q298 -180 299 -177Q304 -178 309 -181Q317 -186 322 -186H324Q311 -179 308 -161Q308 -151 318 -148Q313 -140 313 -123Q313 -118 315 -112Q319 -116 324 -119ZM279 -597V-593Q280 -580 287 -570Q293 -560 297 -550Q299 -540 300 -530Q300 -521 307 -513Q307 -485 288 -441Q274 -434 259 -434Q226 -434 170 -474Q155 -472 144 -464Q133 -456 123 -451V-455Q123 -462 133 -470Q143 -478 144 -483Q132 -510 116 -510Q111 -510 105 -507V-510Q105 -514 108 -516Q111 -519 114 -522Q107 -529 101 -529Q94 -529 79 -516Q69 -507 62 -505Q70 -518 81 -529Q92 -540 94 -555Q93 -558 90 -558Q84 -556 77 -555L73 -556Q75 -563 80 -566Q85 -568 91 -571Q90 -586 79 -592Q82 -601 82 -608Q82 -621 70 -637Q61 -648 60 -654Q66 -652 73 -647Q85 -639 91 -639Q98 -639 103 -643V-649Q101 -669 98 -690Q98 -696 99 -699Q105 -688 110 -674Q114 -661 125 -654H133Q148 -654 169 -644Q191 -633 205 -633Q209 -636 213 -655Q216 -670 226 -672Q223 -661 223 -650Q223 -616 244 -616H248Q252 -617 254 -622Q256 -628 263 -628H265Q265 -625 264 -622Q264 -601 279 -597ZM783 -156H786Q799 -158 812 -161Q818 -161 821 -157Q810 -152 798 -148Q787 -144 780 -135Q779 -130 779 -121Q779 -115 781 -91Q777 -94 770 -94Q750 -92 746 -72Q741 -73 736 -78Q733 -82 730 -82Q726 -81 722 -81Q701 -82 681 -91Q662 -101 645 -111Q634 -105 627 -84Q621 -76 619 -69Q619 -66 620 -64Q610 -61 602 -44Q595 -28 587 -25V-27Q587 -44 604 -69Q619 -92 621 -107Q611 -103 590 -75Q551 -23 541 3Q529 29 529 41Q529 48 530 51Q539 47 548 30Q558 10 571 8Q566 22 548 54Q534 80 527 97Q511 105 497 105Q479 105 465 94Q459 90 450 69Q436 39 415 14Q416 11 416 7Q416 -9 402 -16Q406 -21 406 -27Q403 -42 396 -55L398 -57Q405 -53 411 -49Q407 -75 397 -95Q387 -115 377 -135Q388 -130 402 -106Q416 -80 429 -75Q426 -94 408 -128Q388 -168 385 -189Q392 -185 395 -177Q397 -170 399 -163Q422 -117 447 -88L448 -92V-103Q456 -98 463 -91Q487 -103 513 -133Q551 -176 556 -181Q540 -200 521 -215Q501 -231 491 -256Q495 -272 500 -277Q515 -283 529 -283Q544 -283 574 -274Q601 -266 615 -265Q651 -312 744 -459Q741 -460 737 -460Q727 -459 720 -455Q712 -450 704 -447Q707 -459 718 -462Q729 -466 733 -477Q729 -482 721 -482Q714 -482 701 -477Q639 -454 553 -393Q541 -372 539 -363Q548 -364 555 -370Q561 -376 568 -381Q608 -405 613 -408Q641 -423 666 -427Q654 -415 622 -398Q579 -376 567 -355H559Q540 -340 506 -316Q495 -305 487 -295Q479 -285 463 -282H454Q411 -282 393 -315Q382 -318 373 -324Q368 -347 353 -357Q372 -385 380 -417Q397 -432 410 -452Q422 -472 436 -490V-496Q436 -502 438 -504L483 -591Q485 -597 488 -603Q491 -609 498 -609H500Q498 -596 487 -571Q479 -553 476 -538Q483 -539 490 -548Q491 -550 501 -565Q529 -613 541 -637Q555 -665 555 -677Q555 -692 536 -693Q531 -680 528 -664Q524 -649 513 -648H512Q517 -666 517 -682Q517 -714 498 -729Q551 -775 621 -807Q627 -806 636 -801Q647 -795 654 -795H656Q674 -774 688 -750Q688 -747 687 -744Q687 -734 693 -728Q698 -721 703 -715Q704 -708 704 -695Q702 -667 700 -640Q668 -621 643 -587Q631 -571 601 -520Q649 -536 700 -562Q739 -576 777 -591Q787 -595 799 -602Q811 -609 827 -610Q833 -610 836 -609Q842 -614 852 -614Q865 -614 888 -598L903 -607L905 -604Q903 -598 901 -593V-592H904Q912 -592 924 -600Q936 -608 941 -609Q920 -593 920 -573Q920 -566 923 -559H926Q938 -563 946 -567Q947 -567 951 -565V-564Q951 -562 945 -556Q934 -545 934 -537Q934 -531 942 -514Q953 -490 953 -481Q953 -473 944 -460Q938 -451 935 -442Q908 -441 889 -427Q869 -414 854 -402Q859 -420 874 -430Q888 -439 901 -450Q900 -454 892 -460Q869 -459 851 -442Q850 -441 823 -408Q805 -392 787 -376Q773 -356 759 -337Q738 -314 738 -300Q738 -295 739 -292Q749 -298 765 -319Q782 -342 795 -346Q795 -336 788 -329Q782 -322 775 -315L753 -283Q742 -268 731 -251Q721 -234 718 -214L720 -213Q723 -213 727 -217Q732 -223 736 -223H739Q739 -221 733 -207Q736 -204 741 -204Q746 -204 751 -205Q756 -195 760 -186Q772 -189 783 -192H786Q770 -184 770 -169Q770 -159 783 -156Z"/>
</svg>