<svg xmlns="http://www.w3.org/2000/svg" viewBox="0 -800 1024 1024">
	<path fill="#000000" d="M55 53V50Q55 40 68 40Q74 40 76 41Q74 54 61 54Q57 54 55 53ZM849 -781V-779Q842 -773 830 -771Q830 -792 846 -792Q849 -792 851 -791V-789Q850 -785 849 -781ZM870 -130Q867 -114 864 -98Q854 -98 854 -112Q854 -120 857 -125Q861 -131 866 -131ZM877 -667H882Q881 -664 874 -662Q868 -660 867 -658Q866 -654 866 -648Q866 -633 880 -623Q883 -621 906 -610Q891 -613 874 -613Q833 -613 833 -581Q833 -577 835 -567Q828 -570 827 -577Q825 -584 823 -590Q820 -589 816 -589Q801 -589 796 -598Q797 -602 802 -602Q809 -601 815 -601Q822 -601 823 -607Q812 -619 768 -641Q766 -639 763 -638V-636Q763 -628 770 -619Q776 -611 777 -605Q763 -606 751 -627Q740 -647 729 -647Q708 -689 708 -707Q708 -730 729 -742V-745Q728 -754 726 -763Q734 -760 740 -754Q746 -763 767 -763Q782 -763 794 -757Q798 -755 803 -749Q807 -749 813 -756Q820 -764 824 -764L827 -763Q819 -755 819 -742Q819 -730 827 -722H829Q837 -723 845 -725Q844 -718 842 -711Q842 -707 846 -704Q858 -707 867 -712Q877 -717 891 -718H894Q883 -713 870 -706Q856 -699 855 -685Q855 -680 858 -673Q864 -667 877 -667ZM384 -101V-104Q365 -92 343 -44Q327 -10 327 20Q327 26 329 38Q339 34 345 14Q352 -7 362 -11Q357 14 341 70Q326 79 304 81Q299 81 294 80Q281 71 267 64Q264 54 256 41Q246 25 238 23Q235 22 228 22Q201 27 170 32H168Q185 22 202 19Q219 16 241 11Q239 5 231 5Q220 8 208 10Q177 17 88 40Q111 27 166 9Q228 -11 254 -28Q259 -43 275 -65Q292 -89 298 -103Q253 -89 233 -74Q223 -65 214 -54Q205 -42 193 -40Q189 -39 185 -39Q166 -40 152 -51Q138 -62 125 -71Q99 -86 93 -91Q87 -113 85 -132V-139Q86 -147 97 -161Q104 -170 105 -176Q106 -179 106 -185Q106 -192 105 -200Q105 -207 109 -214Q115 -222 126 -229Q137 -236 146 -242Q180 -263 187 -265Q181 -257 174 -251Q166 -245 165 -233Q170 -230 176 -230Q194 -232 211 -235Q208 -229 195 -223Q181 -217 178 -209Q181 -203 181 -202H192Q223 -202 263 -216Q285 -224 326 -242Q319 -247 305 -247Q272 -242 253 -238H251V-239Q252 -248 261 -250Q269 -253 276 -254Q356 -275 374 -278Q379 -283 379 -292Q374 -313 368 -325L370 -326Q373 -325 376 -325H378Q395 -349 425 -349Q438 -349 448 -343Q455 -339 461 -322Q467 -307 476 -304Q516 -314 553 -322Q550 -319 533 -310Q520 -303 520 -293V-289H521Q528 -290 534 -291Q537 -290 540 -290Q535 -286 529 -282Q524 -278 523 -269V-266L526 -265H534Q514 -253 511 -224Q511 -211 520 -202Q531 -202 535 -200Q521 -191 485 -182Q445 -171 430 -161Q410 -146 395 -100Q383 -64 374 -49Q371 -55 371 -60Q371 -65 378 -80Q384 -92 384 -101ZM835 -84V-95Q835 -116 834 -137Q834 -164 846 -172Q845 -123 843 -74Q843 -37 848 -16Q855 -26 855 -54Q855 -76 858 -84Q868 -7 900 64Q897 107 856 135Q803 126 789 122Q757 112 743 90Q739 82 735 73Q725 57 692 19Q689 10 685 0Q685 -3 686 -5Q697 3 722 36Q743 65 762 70Q757 48 744 30Q730 12 716 -4Q674 -61 664 -71Q658 -66 658 -62Q658 -58 665 -48Q672 -38 673 -32Q660 -34 647 -58Q638 -75 630 -80Q591 -51 580 1Q568 10 558 10Q545 10 530 -3Q525 -8 507 -28Q502 -28 498 -24Q494 -20 491 -19V-21Q492 -30 497 -34Q502 -38 506 -44Q504 -54 493 -66Q480 -80 480 -95V-97Q479 -102 468 -105Q458 -107 458 -111V-112Q459 -114 463 -114Q469 -113 475 -113Q478 -113 482 -115Q475 -119 456 -120Q435 -121 429 -125H435Q493 -127 523 -157Q556 -191 585 -227Q567 -279 549 -403Q467 -385 399 -353Q367 -341 334 -326Q320 -317 304 -304Q288 -291 273 -287Q270 -286 263 -286Q221 -290 208 -310Q201 -325 196 -338Q185 -352 175 -359Q165 -366 164 -385Q164 -393 165 -398Q166 -404 170 -411Q176 -423 177 -431Q177 -439 176 -447Q176 -457 184 -463Q175 -481 164 -498H165Q169 -498 177 -490Q186 -481 191 -481H193Q191 -488 179 -501Q163 -519 162 -529Q169 -527 184 -512Q199 -496 209 -496Q212 -496 214 -497Q212 -501 206 -506Q197 -513 196 -520Q212 -517 221 -508Q233 -514 245 -520Q263 -512 282 -512Q301 -512 320 -511Q317 -505 302 -501Q283 -495 282 -484Q294 -478 306 -478Q332 -481 361 -491Q430 -508 504 -541Q496 -545 487 -545Q463 -542 438 -533Q409 -522 382 -519Q378 -519 370 -521Q383 -536 408 -539Q434 -542 448 -548L451 -549Q454 -548 456 -547H458Q502 -565 523 -567Q527 -574 527 -584Q525 -602 523 -620Q522 -627 522 -641Q523 -656 523 -672Q523 -692 519 -705Q512 -722 497 -729Q482 -736 468 -742Q481 -751 495 -758L496 -761Q495 -764 493 -768L494 -770Q512 -783 537 -797Q546 -805 556 -813Q566 -822 577 -823H578Q597 -821 607 -805Q617 -789 630 -779Q632 -769 640 -749Q649 -727 649 -713Q649 -709 648 -705Q648 -700 641 -677Q640 -667 636 -652Q631 -636 628 -618Q628 -615 630 -607Q709 -626 731 -630L733 -628Q730 -622 726 -617L728 -614Q729 -611 731 -611Q736 -612 740 -613H743Q732 -607 732 -590Q732 -580 740 -577Q738 -567 738 -563Q738 -555 743 -548Q755 -553 770 -556H772Q770 -553 762 -548Q752 -542 750 -536Q752 -521 762 -517Q754 -495 754 -481Q748 -474 742 -467Q736 -460 735 -448Q721 -441 678 -434Q630 -426 612 -416Q615 -375 636 -290Q659 -317 673 -341Q667 -366 667 -370Q699 -396 731 -396Q753 -396 769 -380Q777 -382 784 -384L788 -383Q790 -381 790 -378Q790 -375 788 -373Q796 -379 803 -387Q809 -395 820 -398Q819 -392 814 -383Q806 -367 805 -359Q816 -348 821 -321Q822 -313 826 -272Q819 -265 815 -256Q801 -254 787 -253H783Q786 -262 794 -266Q801 -270 809 -274Q811 -284 811 -292Q811 -311 802 -320Q792 -319 786 -309Q784 -305 778 -289Q775 -284 752 -269Q735 -258 735 -243V-241H737Q748 -245 758 -249Q761 -249 763 -248Q757 -238 747 -232Q737 -226 728 -220Q704 -201 685 -167Q719 -115 736 -93Q767 -54 800 -32Q810 -42 812 -79Q814 -111 820 -121Q825 -86 827 -47Q831 -65 835 -84Z"/>
</svg>