<svg xmlns="http://www.w3.org/2000/svg" viewBox="0 -800 1024 1024">
	<path fill="#000000" d="M922 -522Q924 -520 926 -519Q924 -500 911 -494Q910 -497 910 -502Q910 -514 922 -522ZM503 -108H506Q511 -95 511 -94Q511 -91 510 -89Q492 -91 492 -109Q498 -108 503 -108ZM741 -234V-227Q762 -232 774 -250Q781 -261 792 -290Q803 -317 803 -334Q803 -341 802 -344Q769 -336 742 -318Q739 -303 739 -287Q740 -260 741 -234ZM383 42H382Q379 39 375 36H374Q372 38 367 48Q360 38 356 27Q347 20 337 18Q319 10 309 -5Q304 -14 302 -25Q299 -37 286 -40Q307 -53 309 -81Q310 -110 313 -140H311Q304 -140 297 -128Q290 -117 282 -117H281V-120Q281 -128 290 -138Q295 -144 297 -149Q273 -141 252 -121Q232 -100 212 -78Q192 -57 167 -26Q154 -15 152 0Q152 5 153 8Q168 2 182 -13Q188 -20 208 -46Q219 -62 229 -76Q239 -91 257 -92L258 -89Q255 -81 248 -77Q200 -18 162 45Q132 34 127 33Q121 27 116 19Q111 12 100 11H96V7Q96 -5 81 -22Q70 -35 70 -42Q70 -50 84 -60Q83 -76 75 -97Q67 -117 66 -126Q77 -113 87 -97Q97 -82 113 -81Q113 -87 105 -96Q98 -104 98 -109Q98 -110 100 -114Q112 -101 127 -90Q182 -125 231 -178Q266 -216 316 -284Q314 -286 309 -286Q299 -283 288 -281Q274 -275 259 -270Q229 -260 199 -250Q160 -237 146 -228Q137 -223 128 -209Q120 -197 112 -192Q74 -199 60 -208Q39 -221 39 -247Q39 -256 42 -270Q47 -287 47 -290Q47 -298 39 -306Q40 -321 48 -334Q57 -347 62 -360Q64 -369 66 -379Q70 -390 79 -396Q88 -402 97 -408Q103 -413 109 -419Q115 -425 122 -426Q125 -426 127 -425V-424Q123 -420 112 -411Q107 -403 107 -396Q107 -391 108 -388Q122 -395 135 -405V-403Q134 -399 132 -395V-393Q133 -389 138 -387Q142 -385 143 -384Q132 -378 132 -360Q132 -346 143 -342Q173 -354 203 -373Q234 -386 265 -393Q297 -401 315 -423Q310 -424 301 -424Q269 -422 241 -408Q213 -395 186 -387Q195 -400 213 -409Q214 -409 247 -423Q263 -430 312 -448Q313 -452 313 -456Q313 -466 304 -487Q296 -506 296 -517Q296 -523 297 -526Q300 -535 307 -540Q314 -544 318 -549Q326 -562 334 -579Q342 -596 355 -598Q366 -597 377 -583Q388 -570 396 -563H399Q407 -562 414 -561Q419 -551 424 -540Q429 -530 439 -525Q438 -523 438 -519Q441 -506 444 -494H442Q429 -494 424 -462Q428 -464 432 -467Q439 -473 444 -473L448 -472L450 -469Q449 -465 448 -462Q453 -449 460 -437Q466 -426 467 -410Q467 -406 470 -405Q473 -403 476 -402Q475 -398 471 -395Q465 -391 464 -390Q473 -386 473 -385Q472 -382 465 -379Q458 -375 457 -370V-368Q457 -366 460 -364Q463 -362 463 -360V-359Q457 -355 451 -351Q456 -344 467 -344H470Q462 -338 440 -332Q413 -325 406 -315Q411 -311 416 -301Q424 -285 432 -282Q448 -291 460 -307Q460 -303 455 -294Q448 -280 448 -271V-267Q451 -263 455 -263Q459 -263 463 -264Q460 -257 456 -250V-247Q456 -240 467 -221Q464 -215 464 -210Q464 -199 473 -186H469Q450 -186 450 -158Q441 -172 405 -180Q404 -173 404 -159Q409 -98 414 -37Q414 -10 405 9Q401 17 383 42ZM744 75V86Q740 94 727 102Q719 107 715 111Q712 108 708 108Q700 110 692 111H689Q670 103 654 85Q630 61 605 32Q597 26 589 20Q582 15 581 6V5Q596 15 611 20Q604 7 582 -10Q558 -29 552 -45Q559 -41 570 -31Q585 -17 595 -14Q586 -28 556 -51Q526 -74 518 -87Q520 -89 524 -89Q529 -89 546 -75Q559 -66 572 -57Q582 -48 597 -36Q612 -24 627 -23H630Q654 -28 657 -109Q662 -174 667 -272Q628 -260 614 -237Q627 -223 627 -177V-149Q612 -141 596 -133Q581 -137 565 -141Q554 -147 544 -157Q535 -166 521 -167Q516 -167 513 -166Q516 -175 519 -181Q510 -200 496 -220Q482 -241 477 -265Q476 -270 476 -280Q479 -312 486 -342Q495 -340 500 -333H514Q532 -333 538 -327Q556 -336 575 -347Q595 -358 623 -362Q629 -373 660 -381Q656 -389 652 -397Q656 -407 660 -417Q657 -418 653 -418Q644 -418 631 -411Q617 -403 608 -403Q611 -418 642 -430Q669 -441 676 -451Q671 -453 661 -453Q641 -452 622 -443Q603 -434 586 -426Q559 -415 550 -410Q532 -399 527 -385Q533 -378 539 -378Q544 -378 557 -384Q570 -390 578 -390H581V-389Q581 -382 571 -371Q562 -361 560 -356Q550 -354 546 -354Q526 -354 510 -369Q494 -384 492 -405Q493 -410 493 -415Q493 -418 492 -420Q490 -426 481 -437Q467 -453 467 -468Q472 -489 476 -511Q476 -520 482 -532Q495 -561 509 -567Q507 -558 505 -550Q505 -547 507 -543Q536 -545 568 -561Q599 -576 629 -589Q622 -629 619 -642Q612 -670 599 -684Q591 -682 579 -671Q572 -664 568 -663Q569 -672 580 -685Q591 -697 591 -703Q591 -711 581 -717Q589 -727 603 -757Q624 -803 641 -813Q646 -816 650 -816Q660 -815 669 -807Q678 -800 686 -793Q697 -785 707 -777Q716 -770 721 -756Q711 -757 699 -765Q684 -775 672 -775H670Q668 -767 668 -765Q668 -756 676 -748Q680 -744 693 -737Q718 -723 719 -708V-707Q717 -696 715 -686Q715 -680 721 -676Q737 -704 737 -728Q737 -733 735 -741H738Q757 -737 762 -721V-719Q762 -711 752 -698Q744 -688 742 -683Q733 -664 733 -639Q734 -629 734 -620Q740 -620 786 -640Q802 -646 827 -661Q826 -656 820 -650Q813 -642 812 -636Q814 -633 817 -633Q827 -636 837 -639H839Q838 -634 832 -630Q826 -626 825 -623Q828 -622 831 -622Q845 -624 859 -626Q866 -626 869 -624Q863 -620 856 -616Q849 -612 846 -603Q867 -573 870 -563L872 -562Q877 -565 882 -568L885 -566V-564Q882 -557 877 -545Q876 -540 876 -527V-514Q876 -493 872 -485H867Q855 -485 854 -479Q833 -484 820 -483Q822 -492 831 -494Q840 -496 846 -500Q844 -508 834 -508Q827 -507 820 -507Q751 -503 738 -479Q739 -477 745 -471Q772 -479 780 -479Q788 -479 792 -476Q788 -468 767 -463Q748 -459 744 -450Q746 -442 752 -439Q757 -436 762 -431V-430Q760 -424 757 -419Q779 -421 827 -441Q837 -445 846 -451Q855 -457 866 -458Q874 -458 882 -454Q887 -457 892 -467Q899 -481 907 -483Q902 -463 897 -444Q897 -440 898 -438Q902 -439 906 -448Q910 -457 917 -457Q914 -446 914 -439Q915 -422 926 -410Q936 -399 947 -388Q944 -379 944 -373Q944 -360 955 -340Q965 -321 966 -310Q943 -294 920 -278L919 -282Q919 -289 931 -302Q943 -315 944 -325Q944 -346 923 -353Q909 -349 905 -319Q901 -288 891 -282H888Q883 -283 877 -284Q843 -246 843 -200Q843 -188 846 -178Q856 -185 865 -213Q871 -231 877 -240Q886 -240 889 -237Q893 -239 897 -246Q902 -255 908 -255H910Q878 -164 873 -123Q866 -121 858 -120Q854 -126 849 -133Q840 -133 824 -135Q822 -149 813 -156Q804 -163 795 -171Q778 -203 751 -206Q760 -209 772 -209Q772 -220 750 -220Q742 -220 738 -219Q735 -204 735 -184Q736 -169 736 -154Q736 -143 735 -133Q726 -147 726 -173Q728 -205 730 -237Q730 -256 724 -270Q712 -257 712 -225V-186Q710 -150 710 -130Q710 -30 738 18Q745 8 745 -5Q745 -15 739 -37Q733 -59 733 -69Q733 -79 737 -86Q747 -78 748 -62Q748 -47 751 -33Q755 -16 768 8Q767 18 756 41Q746 63 744 75Z"/>
</svg>