<svg xmlns="http://www.w3.org/2000/svg" viewBox="0 -800 1024 1024">
	<path fill="#000000" d="M826 -250Q807 -268 786 -284Q764 -300 749 -323Q746 -343 748 -357Q754 -363 760 -364Q764 -365 773 -365Q803 -361 826 -350Q828 -347 829 -344Q840 -340 856 -328Q870 -318 883 -313Q897 -319 904 -333Q912 -347 925 -350Q920 -339 913 -330Q906 -321 905 -308V-303Q915 -312 932 -341Q946 -364 953 -373Q955 -371 955 -369Q952 -361 945 -354Q939 -341 933 -328Q920 -313 917 -293V-289Q925 -292 934 -310Q944 -329 950 -331V-328Q950 -321 941 -310Q931 -298 931 -291Q934 -288 936 -286H937Q940 -292 943 -299Q940 -279 937 -259V-248Q937 -213 911 -197Q902 -195 892 -194Q848 -217 826 -250ZM944 -485V-483Q944 -480 940 -477Q937 -475 935 -472Q931 -466 930 -448Q929 -427 921 -421Q875 -415 833 -379Q836 -395 849 -403Q861 -411 870 -421Q866 -424 861 -424Q858 -424 840 -418Q832 -413 819 -392Q810 -378 806 -374Q788 -380 772 -380Q769 -380 764 -384Q757 -390 753 -389Q758 -399 776 -420Q796 -444 803 -461L799 -462Q794 -460 788 -458L785 -459Q806 -501 845 -501Q852 -500 859 -500Q867 -505 879 -505Q883 -504 886 -504Q900 -496 920 -491V-487Q920 -482 924 -479H925Q933 -482 941 -485ZM449 -488Q440 -480 440 -466Q442 -447 444 -428V-424Q432 -415 399 -401Q359 -383 348 -375Q346 -357 346 -321V-303Q362 -312 388 -326Q392 -317 391 -316Q386 -314 385 -311Q390 -307 395 -304Q393 -298 393 -296Q394 -286 400 -278Q407 -270 411 -262Q409 -256 409 -253Q409 -225 412 -221Q398 -208 384 -198Q359 -180 348 -168Q346 -161 346 -146Q348 -122 349 -98Q349 -92 348 -86Q340 -89 339 -111Q338 -130 333 -134Q322 -132 322 -117V-101Q322 -44 323 -31Q326 9 339 25Q349 20 349 0V-21Q349 -36 354 -42Q364 -2 364 16Q364 48 345 59Q339 61 333 62Q320 69 306 76H305Q287 74 275 56Q264 37 247 25Q240 21 226 18Q214 15 205 10H227Q235 10 238 9Q225 1 185 -4Q156 -7 143 -12Q158 -16 191 -17Q237 -19 251 -26Q254 -71 257 -117Q219 -99 211 -59Q204 -57 199 -51Q195 -45 190 -39Q157 -45 144 -52Q122 -63 122 -87Q123 -91 123 -95Q112 -103 112 -117Q112 -118 119 -158V-171Q123 -178 129 -183Q135 -194 140 -208Q145 -221 154 -224Q152 -214 152 -207Q152 -200 154 -197Q210 -230 269 -258Q271 -267 271 -285Q270 -311 269 -338Q184 -311 137 -243Q120 -244 101 -257Q83 -270 69 -271Q58 -279 48 -286Q38 -293 34 -306V-311Q38 -333 42 -356Q43 -360 43 -367Q42 -384 40 -402Q40 -415 46 -423Q49 -427 69 -447Q84 -465 102 -486Q119 -507 138 -516Q136 -510 124 -496Q107 -477 105 -461H106Q111 -461 117 -471Q124 -481 129 -482V-479Q130 -473 131 -468V-466Q147 -470 163 -474Q168 -474 171 -473Q167 -466 151 -460Q130 -452 129 -438Q141 -433 148 -433Q164 -434 180 -444Q196 -453 212 -461Q227 -466 241 -472Q256 -477 260 -491Q255 -495 249 -495Q243 -495 227 -488Q213 -482 206 -482H205Q216 -505 262 -512Q262 -516 265 -518Q263 -526 262 -551Q261 -568 259 -587Q254 -629 226 -633Q230 -646 238 -653Q241 -677 260 -693Q291 -719 320 -719Q340 -719 351 -705Q370 -680 382 -650Q387 -637 387 -616Q387 -605 386 -601Q385 -594 378 -585Q370 -573 369 -563Q398 -575 426 -588Q423 -580 418 -573Q425 -566 432 -560Q436 -557 441 -544Q439 -531 439 -527Q439 -499 449 -488ZM567 -69Q565 -62 551 -62H545V-64Q547 -73 558 -74Q565 -74 567 -69ZM647 -345Q639 -350 631 -350Q622 -350 616 -344Q588 -360 588 -392V-394Q588 -415 607 -451Q620 -475 622 -486Q619 -487 612 -487Q598 -486 587 -476Q575 -466 567 -458Q557 -448 530 -449Q505 -449 495 -446Q488 -460 480 -474Q472 -488 471 -506Q472 -512 472 -519V-522Q471 -530 460 -542Q450 -553 450 -561Q463 -553 474 -543Q472 -556 458 -578Q446 -597 442 -607Q449 -604 460 -592Q470 -580 480 -578Q484 -581 484 -585Q484 -590 477 -599Q471 -607 471 -611V-612L474 -613Q485 -610 495 -602Q500 -608 511 -608Q521 -608 525 -602Q567 -613 611 -627Q608 -660 605 -669Q599 -691 582 -696Q584 -702 584 -704Q584 -705 581 -717L564 -714Q566 -722 574 -727Q582 -731 591 -737Q608 -753 626 -764Q637 -770 648 -777Q653 -777 657 -778Q695 -775 708 -740H706Q699 -740 690 -748Q682 -755 679 -755Q674 -755 670 -750Q673 -744 683 -729Q695 -712 698 -699Q708 -701 708 -715Q708 -723 707 -732Q722 -725 722 -712Q722 -705 715 -686Q707 -665 707 -654V-650Q732 -653 751 -662Q771 -671 789 -678Q796 -678 796 -676Q809 -683 819 -692Q829 -702 845 -704Q821 -682 818 -660Q820 -659 823 -659Q834 -663 845 -668Q829 -657 825 -637Q825 -632 826 -629L829 -628Q834 -631 839 -635V-634Q837 -625 831 -617Q828 -596 828 -578Q828 -560 818 -548Q811 -541 791 -530Q774 -523 772 -523Q767 -523 764 -528Q767 -532 775 -537Q786 -543 788 -549Q784 -552 774 -552Q757 -550 739 -549Q712 -546 702 -543Q683 -538 677 -525Q683 -523 688 -523Q711 -527 733 -531Q744 -531 752 -524Q733 -519 714 -515Q695 -511 682 -501V-494Q684 -489 697 -489H700Q708 -489 711 -488Q713 -470 713 -461Q713 -455 711 -443Q685 -433 676 -428Q658 -418 654 -401Q655 -400 667 -395Q679 -428 732 -428H743V-422Q742 -406 740 -391Q740 -384 745 -377Q735 -364 706 -340Q673 -313 661 -293H662Q674 -296 685 -300Q689 -303 692 -311Q696 -321 701 -323Q713 -321 719 -314Q722 -314 726 -318Q731 -323 736 -323Q734 -311 731 -300Q731 -294 734 -290Q737 -292 737 -299H740Q744 -299 748 -296L752 -294V-283Q752 -271 759 -255Q766 -239 766 -230Q766 -226 765 -222Q756 -215 749 -197Q740 -200 723 -204H719Q712 -211 706 -225Q700 -238 691 -240Q687 -240 679 -231Q682 -226 692 -216Q701 -207 705 -200V-167Q723 -172 770 -176Q815 -180 838 -187Q849 -189 877 -184H881Q903 -186 925 -189Q929 -188 933 -188V-185Q933 -183 931 -177Q935 -173 943 -173Q952 -173 960 -174Q972 -174 974 -167Q958 -164 950 -150Q950 -143 955 -138Q949 -128 943 -119Q943 -110 946 -108Q940 -103 934 -87Q928 -68 919 -64Q900 -66 867 -77Q836 -87 824 -89H814Q800 -89 794 -95Q806 -99 822 -99Q860 -94 898 -90Q894 -104 871 -108Q834 -113 792 -113Q756 -113 729 -110Q734 -104 755 -103Q777 -102 782 -95Q778 -94 769 -94Q749 -95 728 -96Q706 -96 700 -84Q705 -24 709 36Q709 86 689 111Q676 129 662 129H661Q651 129 644 120Q639 113 634 100Q623 70 607 67V66Q607 63 611 62Q615 61 616 60Q605 51 574 45Q543 39 534 32Q561 36 587 39Q598 39 610 36Q605 32 596 29Q581 24 578 20Q584 23 592 23Q604 23 620 16Q634 -43 634 -60Q634 -72 631 -84H628Q606 -84 576 -72Q579 -86 594 -89Q610 -92 622 -99Q614 -99 606 -100Q540 -100 496 -59Q499 -55 506 -55Q518 -57 529 -59Q535 -59 537 -58Q508 -39 488 -23H478Q448 -23 434 -36Q430 -45 424 -64Q419 -83 408 -101Q432 -137 475 -133Q525 -145 634 -158Q632 -168 632 -172Q632 -178 634 -194Q630 -193 621 -183Q613 -174 607 -171Q578 -186 575 -219Q582 -239 611 -282Q641 -326 647 -345ZM560 -341Q566 -345 583 -344Q597 -344 603 -346Q618 -331 623 -317L622 -315Q619 -312 615 -310Q611 -298 603 -292Q596 -287 593 -271Q580 -260 563 -247Q545 -234 538 -221Q535 -214 533 -199Q531 -180 525 -173Q511 -160 493 -154Q482 -152 470 -153Q456 -155 443 -151Q429 -156 426 -169Q423 -181 428 -188Q422 -195 419 -205Q415 -225 428 -243Q441 -261 452 -277L453 -275Q451 -268 450 -261Q452 -260 456 -262Q464 -264 472 -267Q477 -269 480 -267Q478 -262 470 -256Q460 -248 460 -244Q462 -240 469 -238Q507 -262 535 -291Q555 -315 552 -332L549 -331Q546 -328 546 -320V-317Q535 -311 523 -306Q485 -326 466 -345Q440 -371 432 -409Q437 -407 442 -405Q445 -405 445 -410Q445 -414 446 -416Q471 -427 493 -427Q515 -427 524 -419Q527 -423 529 -427L531 -424Q531 -421 530 -418Q530 -414 534 -413Q543 -417 551 -423Q545 -414 545 -409Q545 -398 559 -398Q566 -398 575 -402Q573 -398 565 -393Q560 -390 559 -388V-386Q559 -366 584 -366H593Q590 -363 575 -362Q560 -361 557 -357V-352Q557 -350 560 -341Z"/>
</svg>