<svg xmlns="http://www.w3.org/2000/svg" viewBox="0 -800 1024 1024">
	<path fill="#000000" d="M768 -515Q763 -515 758 -516Q720 -514 693 -491Q667 -469 642 -449Q652 -443 656 -443Q661 -443 665 -446V-444Q664 -438 663 -432Q665 -431 668 -431Q673 -431 679 -437Q686 -444 693 -444H694Q678 -428 678 -413V-410Q680 -406 691 -398Q684 -398 684 -384Q684 -372 688 -366Q729 -424 768 -515ZM466 -473Q454 -461 452 -438Q450 -415 446 -395Q419 -385 388 -376Q359 -368 356 -334Q356 -331 358 -319Q361 -318 365 -318Q374 -318 398 -332Q397 -326 396 -321Q396 -320 398 -316Q401 -313 407 -313Q415 -313 428 -329Q443 -348 453 -348Q449 -339 438 -327Q423 -309 419 -298L423 -297Q428 -297 434 -304Q441 -312 445 -312H447Q438 -300 433 -282Q434 -277 439 -277Q443 -277 447 -278Q439 -266 439 -254Q439 -249 443 -241Q447 -235 443 -233Q441 -230 440 -224Q439 -218 431 -211Q423 -204 419 -200Q412 -187 395 -187Q377 -187 355 -200Q352 -167 352 -160Q353 -141 354 -122L353 -120V-117Q343 -123 343 -149V-154Q343 -179 337 -185Q327 -180 327 -147Q327 -127 328 -117Q328 -86 329 -57Q329 -29 339 -12Q348 -27 349 -49Q351 -71 353 -92Q360 -86 360 -73Q360 -63 356 -49Q355 -42 355 -26Q356 -3 356 20Q356 32 355 38Q338 58 319 58Q312 58 306 55Q283 43 273 16Q263 -12 249 -32Q250 -35 250 -40Q249 -46 248 -53Q248 -56 250 -57Q247 -61 245 -66Q242 -71 235 -72Q260 -84 263 -124Q265 -171 269 -207Q248 -199 235 -179Q223 -159 209 -140Q185 -117 164 -84Q155 -71 146 -58Q141 -51 134 -31Q125 -6 115 4Q103 1 90 -3Q85 -2 79 -2Q75 -2 74 -3Q69 -7 69 -17Q70 -26 70 -36Q70 -42 69 -44Q68 -50 62 -56Q58 -61 56 -66Q60 -73 60 -84Q60 -105 47 -131H61V-135Q58 -172 46 -201Q52 -198 62 -180Q76 -154 89 -154H90Q103 -154 141 -186Q183 -221 223 -271Q237 -287 250 -301Q264 -315 273 -333H272Q258 -332 246 -325Q235 -317 220 -310Q205 -304 193 -299Q180 -295 174 -280Q148 -275 136 -254Q123 -233 104 -225Q102 -224 99 -224Q87 -225 80 -234Q73 -243 67 -251Q57 -262 54 -283Q51 -291 41 -303Q34 -311 33 -316V-322Q33 -330 38 -344Q42 -355 42 -361Q42 -368 37 -380Q30 -397 30 -407V-413Q32 -421 33 -429V-431Q48 -444 53 -455Q63 -463 73 -465Q77 -465 78 -464Q102 -478 124 -495Q145 -512 176 -519Q166 -509 154 -500Q142 -492 137 -476Q140 -476 148 -482Q156 -488 161 -489Q160 -482 158 -476H161Q179 -479 197 -483Q203 -483 209 -480Q202 -473 174 -466Q151 -460 147 -444Q154 -440 165 -440Q181 -440 220 -454Q251 -465 263 -465Q265 -469 265 -475Q265 -483 262 -486Q261 -487 257 -487Q249 -485 241 -484L237 -485Q240 -498 251 -500Q265 -502 273 -505Q272 -535 270 -566Q270 -571 272 -581Q266 -596 255 -610Q244 -624 243 -642V-645Q243 -665 258 -683Q272 -699 290 -706Q293 -714 308 -714Q318 -714 323 -709Q326 -711 331 -711Q339 -710 347 -709H350Q363 -699 372 -667Q379 -642 385 -634Q388 -619 388 -606Q388 -573 377 -531Q380 -528 383 -528Q385 -528 393 -534Q420 -534 436 -544Q453 -544 455 -550V-548Q455 -545 451 -540Q445 -532 445 -526V-523L447 -522Q452 -524 457 -526L460 -525Q452 -517 452 -505Q452 -483 466 -473ZM978 18V19Q978 25 958 57Q948 71 937 81Q919 79 911 79Q896 79 887 87Q872 74 858 61Q843 47 835 28Q837 26 839 26Q845 29 850 31H851Q854 27 854 22Q854 9 841 -8Q828 -21 813 -21H811V-19Q811 -14 816 -6Q823 5 823 12V16Q807 9 794 -4Q781 -17 768 -29Q755 -39 742 -51Q728 -62 724 -80Q754 -57 782 -41Q788 -35 795 -33Q797 -33 799 -35Q789 -58 767 -76Q745 -94 724 -111Q717 -117 711 -124Q705 -131 697 -133V-132Q697 -128 702 -120Q709 -108 709 -104Q709 -100 708 -99Q695 -106 673 -130Q652 -153 639 -161Q617 -134 587 -72Q560 -16 545 5Q536 8 526 11Q520 11 515 7Q506 1 495 -30Q486 -56 477 -65Q475 -67 468 -72Q462 -76 462 -82V-84L485 -77Q491 -90 491 -102Q489 -129 466 -147Q438 -167 422 -189Q455 -178 484 -159Q481 -168 467 -177Q457 -184 453 -189Q477 -187 494 -177Q526 -193 558 -233Q530 -250 528 -299Q534 -301 534 -308Q534 -312 533 -314Q543 -320 556 -320Q580 -320 612 -293Q632 -305 642 -324Q630 -330 619 -341Q608 -351 595 -352Q592 -351 589 -351L587 -354Q591 -358 594 -363V-364Q590 -381 586 -399Q586 -403 588 -407Q571 -401 569 -381Q566 -356 556 -346Q531 -349 522 -368Q512 -388 497 -403Q492 -407 485 -410Q473 -415 469 -421Q467 -427 467 -431Q467 -436 469 -446Q473 -511 496 -588Q508 -608 525 -619Q518 -608 518 -602Q518 -594 526 -589Q532 -596 543 -600Q569 -620 598 -638Q618 -653 629 -653Q634 -653 638 -650Q607 -627 576 -605Q559 -594 554 -587Q552 -584 543 -562Q545 -554 550 -551Q580 -575 640 -616Q714 -667 745 -693Q741 -697 735 -697Q719 -693 705 -687V-690Q706 -701 716 -706Q726 -712 736 -716Q749 -722 776 -740H783Q801 -740 821 -723Q835 -711 847 -708L848 -706Q848 -702 847 -699L848 -695Q868 -707 888 -720Q867 -700 863 -672H865Q871 -672 879 -679Q886 -685 888 -686Q881 -667 881 -662V-657L883 -656Q886 -659 889 -663L891 -662Q889 -650 889 -646Q890 -609 921 -597Q919 -559 917 -516Q915 -473 903 -440H897Q861 -440 802 -383Q791 -371 780 -359Q762 -345 756 -338Q754 -340 754 -345Q757 -358 767 -369Q778 -384 785 -399Q763 -389 746 -369Q728 -349 716 -332Q676 -277 669 -245Q681 -251 699 -274Q716 -295 727 -300Q724 -280 706 -256Q692 -237 688 -227Q688 -221 697 -216Q705 -212 705 -205Q720 -199 732 -184Q744 -170 756 -158Q782 -137 807 -116Q817 -107 833 -96Q848 -85 862 -84H866Q881 -86 885 -119Q888 -146 895 -153Q894 -148 894 -137Q894 -120 898 -108Q900 -127 901 -147Q902 -154 902 -168Q902 -191 901 -214Q901 -249 912 -264V-253Q911 -198 909 -144Q909 -107 915 -74Q918 -128 921 -183Q927 -169 928 -129Q929 -95 933 -80Q936 -86 939 -93Q943 -54 962 -20Q978 9 978 18Z"/>
</svg>