<svg xmlns="http://www.w3.org/2000/svg" viewBox="0 -800 1024 1024">
	<path fill="#000000" d="M198 -380H185V-383Q185 -392 192 -392Q204 -392 208 -382Q204 -380 198 -380ZM738 -728V-730Q738 -743 755 -745L756 -741Q754 -729 741 -727ZM525 -44H523Q518 -54 518 -63Q518 -73 526 -73H527Q530 -59 532 -46Q529 -45 525 -44ZM947 -241V-238L948 -236Q938 -218 923 -207Q927 -217 930 -228Q932 -240 945 -241ZM527 -331H529Q535 -332 540 -333L544 -332Q589 -392 626 -477Q624 -478 620 -478Q613 -478 604 -469Q598 -463 594 -463Q591 -463 588 -466Q609 -484 628 -506Q610 -503 542 -486Q525 -446 525 -374Q525 -359 527 -331ZM876 -41V-38Q880 -1 884 35Q884 45 883 50Q881 69 867 81Q855 92 834 96Q826 91 819 88Q818 88 812 90Q789 72 765 55Q740 37 724 11Q735 12 748 21Q762 31 772 31Q768 11 749 -8Q743 -14 711 -40Q690 -58 671 -78Q651 -98 623 -107Q632 -81 654 -64Q678 -47 692 -19Q671 -29 657 -45Q643 -62 628 -76Q602 -96 576 -116Q552 -139 527 -160Q526 -157 526 -149Q527 -135 528 -121Q528 -117 526 -109Q517 -110 515 -126Q513 -144 508 -147Q497 -145 497 -130Q498 -122 498 -115V-108Q498 -78 497 -48Q497 11 516 23Q519 21 522 19H524V-12Q524 -28 526 -34Q532 -32 535 -23Q537 -14 538 -7Q544 19 544 34Q544 47 541 60Q525 72 511 92Q497 112 476 114Q470 114 458 109Q449 105 439 87Q430 71 422 65V62Q422 57 421 51Q417 44 409 38V37Q409 34 414 33Q418 32 419 31Q417 22 409 20Q400 17 393 14Q411 14 425 8Q430 -57 434 -122Q389 -87 351 -45Q312 -3 273 38Q272 55 257 67Q243 78 227 78Q220 78 212 75Q208 75 206 79Q204 83 200 83H199L203 69Q193 65 183 45Q176 30 169 25Q168 12 168 -1Q167 -13 157 -19V-20Q157 -24 160 -25Q163 -27 166 -28Q161 -42 139 -58Q123 -70 117 -78H119Q131 -78 151 -63Q174 -46 189 -46H193Q205 -48 221 -59Q236 -70 249 -79Q319 -127 396 -197Q365 -196 290 -179Q295 -190 310 -195Q321 -199 340 -201Q384 -206 393 -220Q388 -228 375 -228Q362 -226 349 -225Q319 -224 274 -214Q224 -203 208 -191Q196 -184 196 -174Q196 -169 203 -166Q216 -168 229 -171Q238 -171 239 -164Q233 -157 214 -149Q199 -142 193 -136Q177 -114 145 -112Q116 -112 113 -139Q110 -144 98 -149Q86 -154 83 -161Q78 -169 78 -178Q78 -195 95 -219Q91 -228 91 -237Q92 -254 104 -263Q116 -272 128 -282Q139 -293 148 -303Q157 -313 167 -317V-316Q167 -313 162 -306Q153 -293 153 -286Q153 -281 156 -277Q179 -278 237 -289Q274 -296 295 -299Q274 -314 256 -332Q251 -332 244 -327Q239 -323 234 -322Q241 -334 251 -345Q248 -359 245 -373Q237 -377 219 -383Q225 -387 249 -391Q253 -396 253 -402Q253 -410 240 -423Q228 -434 228 -440Q236 -438 250 -427Q261 -418 270 -415Q281 -420 281 -427V-431Q291 -427 311 -424Q337 -420 348 -412Q355 -407 364 -395Q375 -381 382 -377Q394 -381 405 -386Q393 -372 386 -351Q380 -331 372 -313Q425 -313 444 -323Q447 -372 450 -422Q450 -440 447 -460Q442 -459 406 -448Q386 -436 370 -431Q366 -430 357 -430Q326 -430 298 -448Q294 -461 286 -470Q277 -478 267 -486Q246 -500 243 -529V-536Q247 -547 251 -559Q248 -567 238 -575Q227 -584 225 -589H228Q245 -585 261 -581V-585Q260 -595 252 -600Q243 -605 236 -610Q228 -616 222 -622Q215 -629 215 -638V-640Q226 -637 239 -626Q257 -611 270 -610Q270 -614 273 -614Q272 -621 264 -626Q257 -630 255 -635Q260 -638 262 -638Q271 -634 280 -631H281Q287 -632 294 -637Q303 -643 307 -643Q313 -640 319 -638H322Q331 -639 340 -641Q344 -641 346 -640Q346 -631 333 -627Q321 -623 320 -617Q327 -606 348 -606Q402 -612 431 -637Q427 -644 418 -644Q403 -641 388 -639Q384 -639 382 -640Q388 -653 406 -653Q423 -654 438 -659Q430 -697 408 -713Q418 -730 418 -735Q418 -738 415 -743H411Q400 -744 389 -745H385Q419 -762 453 -784Q488 -810 511 -810Q518 -810 530 -806Q561 -785 585 -754Q591 -743 596 -733Q583 -715 579 -688Q657 -698 727 -727V-726Q724 -719 721 -712V-710Q730 -699 744 -699Q753 -699 771 -705Q794 -712 807 -713Q791 -706 766 -695Q743 -686 741 -670Q741 -662 751 -652Q759 -652 769 -656Q781 -661 788 -661Q779 -653 768 -648Q757 -642 755 -627H756Q761 -627 767 -632Q772 -636 775 -636Q777 -636 781 -634Q756 -615 756 -594Q756 -587 757 -583Q744 -562 736 -539Q739 -534 751 -530Q763 -526 767 -520Q772 -511 772 -494V-475H771Q762 -475 759 -485Q756 -495 748 -495Q737 -495 737 -484Q741 -465 744 -447V-443Q743 -434 734 -427Q727 -422 727 -417Q764 -420 776 -458Q785 -455 785 -447Q780 -426 769 -417Q761 -411 743 -405Q724 -399 717 -394Q693 -375 674 -354H679Q715 -354 752 -363Q765 -366 815 -382V-375Q815 -371 816 -370Q824 -368 827 -368Q846 -371 865 -374Q856 -368 846 -360Q853 -356 862 -356Q882 -357 902 -359Q911 -359 915 -358Q910 -355 893 -353Q870 -350 865 -342Q867 -331 876 -326Q888 -327 899 -329Q890 -324 883 -314Q887 -307 887 -298Q886 -281 875 -266Q864 -250 855 -238Q819 -235 814 -235Q792 -235 781 -242Q784 -245 796 -246Q807 -247 810 -250Q809 -271 766 -271H757Q748 -268 738 -266H734Q707 -267 679 -269Q645 -269 635 -253Q646 -245 677 -245Q698 -245 719 -246Q740 -246 752 -242Q743 -235 717 -235Q700 -235 692 -236H668Q632 -236 612 -230Q630 -214 634 -205Q644 -201 663 -187Q674 -179 686 -172Q725 -145 764 -118Q792 -97 807 -97Q823 -97 837 -115Q844 -124 852 -138Q863 -157 868 -163Q858 -134 849 -97Q861 -108 879 -139Q902 -178 917 -190Q904 -161 889 -134Q874 -107 867 -73Q874 -80 888 -106Q903 -134 914 -145Q912 -127 896 -97Q878 -63 876 -41Z"/>
</svg>