<svg xmlns="http://www.w3.org/2000/svg" viewBox="0 -800 1024 1024">
	<path fill="#000000" d="M377 -63Q380 -79 392 -85L393 -82Q390 -71 386 -61Q379 -61 377 -63ZM165 -568H167Q165 -560 149 -544Q145 -548 145 -552Q147 -566 165 -568ZM864 -622V-626Q864 -648 885 -648H888Q886 -632 864 -622ZM938 -295H940Q942 -289 942 -285Q940 -269 935 -255Q927 -259 927 -279Q927 -295 938 -295ZM534 -333H532Q514 -334 502 -345Q489 -357 476 -368Q397 -343 358 -324Q359 -320 359 -317Q358 -306 356 -295Q392 -298 417 -308Q420 -308 423 -305Q427 -301 431 -301H432Q435 -302 441 -308Q448 -315 456 -316Q450 -306 447 -293Q447 -288 448 -285H449Q454 -287 459 -290L460 -289Q458 -277 458 -272Q458 -256 466 -243Q478 -274 482 -280Q483 -279 483 -275Q483 -269 482 -263Q482 -257 486 -256Q510 -272 547 -310Q587 -351 608 -367Q608 -373 611 -376Q614 -379 617 -384Q615 -384 612 -385Q590 -380 575 -359Q559 -337 534 -333ZM310 -535H304Q292 -539 279 -544H274Q264 -544 251 -538Q239 -532 232 -531Q234 -535 242 -543Q249 -549 251 -555Q236 -574 233 -577Q221 -588 208 -588Q199 -587 185 -578Q175 -571 168 -569Q171 -581 188 -591Q202 -599 205 -604Q197 -622 197 -637V-641Q195 -646 183 -648Q172 -650 170 -654Q184 -661 205 -664L215 -684Q213 -695 200 -711Q189 -725 186 -736Q199 -731 207 -721Q215 -710 224 -701Q234 -708 244 -715Q253 -723 268 -724Q275 -724 279 -723Q283 -723 285 -727Q288 -732 292 -732H293Q309 -705 338 -686Q364 -668 371 -635Q372 -629 372 -617Q372 -591 362 -549Q327 -535 310 -535ZM953 -139V-133Q954 -114 961 -85Q969 -51 969 -40Q968 -18 958 -2Q947 14 940 34Q890 44 880 47Q874 39 838 22Q810 8 805 -12Q815 -12 828 -1Q838 8 845 8Q851 8 854 6Q808 -65 724 -95Q727 -79 751 -60Q772 -43 777 -32Q761 -38 730 -61Q713 -76 697 -94Q688 -96 674 -108Q661 -119 650 -121Q640 -116 640 -92Q641 -80 641 -69Q643 -53 645 -38Q645 -28 638 -25Q634 -28 633 -44Q632 -58 624 -58H623Q616 -51 616 -31Q617 -7 618 16V24Q616 39 614 54Q614 61 618 66Q639 58 639 1V-6Q653 7 654 24V25Q654 47 635 73Q617 98 598 105Q572 90 554 69Q535 47 515 26L514 25L517 23H518L521 21Q520 15 509 13Q498 11 497 5Q528 3 539 -15Q548 -29 552 -69Q561 -163 561 -184Q545 -175 537 -157Q528 -139 518 -124Q505 -124 494 -115Q490 -115 484 -122Q478 -128 473 -128L469 -127Q468 -136 458 -148Q446 -162 446 -176Q446 -183 447 -187Q439 -184 435 -176Q431 -168 427 -160Q415 -138 405 -109Q404 -105 402 -99Q401 -93 393 -92Q391 -96 391 -98Q394 -111 397 -124Q397 -128 396 -130Q383 -125 375 -107Q368 -90 359 -70Q349 -52 340 -37Q330 -22 327 -6V1Q327 19 333 20Q336 21 344 10Q351 1 353 -3Q358 -13 362 -21Q365 -29 373 -34V-32Q373 -23 358 9Q352 25 343 45Q334 64 318 69H315Q293 69 284 60Q281 58 273 40Q267 31 262 26Q256 21 256 11Q254 5 246 -1Q240 -6 238 -9Q240 -12 241 -12Q247 -9 252 -7H253Q250 -16 235 -26Q221 -36 217 -45Q232 -40 257 -28Q274 -43 288 -63Q340 -124 358 -186H353Q337 -184 321 -182Q309 -182 303 -189Q286 -179 275 -161Q264 -143 253 -126Q230 -96 205 -63Q180 -31 164 8Q161 9 156 9Q141 7 126 5H122Q115 9 107 12H105V10Q107 3 114 -3Q101 -33 87 -46Q89 -52 89 -55Q89 -62 84 -71Q78 -82 78 -88H81Q86 -86 90 -84Q85 -100 68 -126Q48 -156 45 -174Q55 -169 61 -159Q67 -150 73 -141Q88 -120 103 -112Q137 -132 164 -159Q191 -186 221 -210Q222 -212 232 -227Q242 -232 244 -232Q247 -243 260 -260Q273 -277 276 -291Q240 -285 198 -259Q178 -246 170 -242Q155 -235 139 -235H130Q119 -236 110 -242Q99 -250 96 -262Q74 -263 60 -280Q46 -296 46 -319Q46 -334 51 -345Q41 -356 41 -369Q41 -392 69 -423Q61 -434 52 -442Q42 -451 38 -465Q50 -463 68 -447Q82 -435 94 -431V-433Q94 -438 86 -445Q78 -452 78 -456V-457Q97 -453 109 -444Q114 -445 118 -447Q126 -443 137 -443Q160 -446 182 -449Q191 -449 198 -445Q195 -440 186 -439Q177 -438 168 -436Q148 -429 146 -415Q149 -407 161 -407Q188 -411 211 -420Q251 -433 290 -444Q329 -456 359 -475Q347 -477 341 -477Q323 -477 292 -467Q257 -456 238 -456Q264 -475 297 -481Q330 -488 361 -495Q403 -507 481 -543V-542Q481 -538 474 -532Q464 -523 464 -518Q464 -513 468 -509H469Q481 -512 487 -516H489V-515Q485 -506 481 -493V-491Q483 -482 485 -474Q496 -493 513 -538Q527 -574 536 -592Q540 -591 540 -587Q540 -586 536 -574Q527 -552 524 -525Q524 -516 527 -509Q539 -518 544 -537Q550 -554 556 -571Q568 -612 568 -627Q568 -637 565 -646H562Q554 -646 548 -632Q542 -616 538 -613Q534 -618 534 -624Q536 -635 538 -646Q537 -656 526 -667Q518 -675 515 -682H513Q494 -681 481 -674Q469 -666 454 -661L453 -664Q453 -667 459 -672Q462 -674 469 -679Q487 -693 492 -694Q494 -698 499 -705Q505 -712 506 -718L503 -719Q496 -717 488 -715H485Q506 -734 528 -758Q550 -782 575 -795Q589 -801 600 -801Q616 -800 630 -792Q644 -784 660 -776Q677 -770 692 -759Q706 -715 706 -694Q706 -679 700 -667Q690 -653 676 -637Q626 -572 624 -526H626Q628 -526 641 -534Q659 -538 676 -543Q700 -552 704 -553Q712 -554 719 -555Q720 -555 736 -569Q774 -587 811 -607Q814 -597 826 -595Q840 -603 854 -612Q853 -607 848 -601Q843 -595 842 -591Q844 -588 846 -585Q858 -589 885 -606Q904 -618 919 -624Q905 -607 888 -593Q871 -578 869 -554V-552Q873 -552 882 -558Q894 -566 900 -566H903Q902 -559 891 -552Q881 -545 880 -537Q890 -533 901 -532Q886 -528 883 -504Q880 -475 875 -468Q862 -452 836 -447Q810 -443 786 -439Q738 -427 725 -415Q725 -407 729 -403Q733 -400 736 -394Q733 -378 733 -362Q733 -347 722 -336Q649 -313 614 -253Q621 -246 653 -235Q661 -231 670 -226Q678 -221 687 -220H688Q706 -230 721 -249Q737 -265 749 -280Q748 -283 746 -286Q727 -284 712 -268Q697 -252 682 -239Q684 -259 699 -273Q713 -287 728 -301Q734 -306 745 -321Q759 -339 769 -346V-351Q767 -365 760 -378Q770 -376 774 -376Q786 -376 805 -381Q828 -387 840 -387H843Q854 -374 870 -371Q883 -375 895 -380Q896 -380 900 -378Q900 -373 891 -369Q881 -364 879 -358Q877 -355 877 -350Q877 -338 888 -327Q893 -328 897 -330Q899 -330 903 -328V-327Q903 -325 898 -320Q893 -315 892 -312V-306Q892 -301 894 -299Q881 -271 867 -244Q829 -240 801 -224Q773 -208 744 -190Q776 -168 815 -151Q855 -134 892 -117Q903 -124 906 -143Q908 -154 908 -182Q908 -209 910 -220Q917 -209 917 -183Q917 -170 916 -157Q916 -127 925 -117Q927 -124 927 -143V-184Q929 -205 931 -227V-229Q931 -235 930 -242Q930 -248 935 -249Q935 -219 934 -189Q934 -144 944 -123Q946 -131 946 -137Q946 -146 945 -155Q945 -173 953 -178Q954 -174 954 -167Q954 -153 953 -139Z"/>
</svg>