<svg xmlns="http://www.w3.org/2000/svg" viewBox="0 -800 1024 1024">
	<path fill="#000000" d="M395 -312Q392 -299 378 -294Q377 -296 377 -300Q377 -306 380 -310Q383 -314 389 -314Q391 -314 395 -312ZM901 -615V-614Q885 -605 880 -603L879 -607Q882 -621 895 -623Q901 -623 901 -615ZM76 -524H79Q79 -503 63 -503Q61 -503 58 -504Q61 -511 64 -517Q67 -524 76 -524ZM126 -266V-263Q120 -266 120 -273Q122 -289 131 -297Q121 -314 110 -332Q96 -349 89 -368V-369Q89 -378 100 -387Q111 -396 112 -407Q137 -410 159 -416V-437Q164 -436 165 -431Q166 -425 166 -419Q175 -411 187 -407Q192 -407 197 -413Q201 -419 206 -419L205 -416Q205 -415 212 -405H215Q244 -405 263 -380Q270 -371 291 -329Q284 -307 250 -283Q226 -266 218 -254L216 -257Q216 -259 218 -263Q200 -274 183 -274Q169 -274 163 -263Q161 -263 161 -267Q161 -273 163 -275Q157 -286 144 -286Q128 -286 126 -266ZM345 -526V-524Q335 -530 328 -554Q322 -574 316 -581Q315 -577 315 -570Q319 -551 322 -533V-528Q319 -512 304 -505Q288 -498 274 -487Q282 -480 290 -480Q301 -480 319 -493Q336 -505 344 -506Q341 -477 314 -470Q288 -464 263 -456Q253 -460 244 -467Q236 -474 221 -475Q212 -490 197 -490Q183 -490 169 -475Q166 -471 164 -466Q162 -461 158 -461H156Q156 -472 165 -484Q167 -486 183 -504Q179 -518 164 -518Q145 -515 136 -504Q136 -512 144 -521Q149 -526 150 -531Q145 -551 132 -554Q130 -555 127 -555Q118 -555 106 -545Q94 -535 88 -534Q94 -548 106 -559Q118 -569 125 -585Q120 -592 117 -603Q114 -615 104 -616Q100 -616 97 -615Q101 -621 110 -625Q109 -640 99 -649Q92 -655 76 -662L89 -661Q109 -662 124 -670Q140 -678 159 -684Q159 -692 158 -701Q158 -710 165 -714V-710Q165 -695 178 -685Q190 -675 207 -675Q211 -675 221 -677Q225 -685 231 -695Q236 -705 243 -707Q244 -705 244 -702Q241 -691 237 -681V-680Q238 -673 243 -670Q248 -667 254 -662H255Q260 -664 265 -666H266Q280 -657 292 -647Q304 -638 323 -635Q323 -629 322 -624Q322 -605 333 -576Q345 -545 345 -526ZM357 -228H359Q344 -220 344 -200Q344 -179 360 -159Q354 -145 354 -138Q354 -132 359 -125Q338 -109 322 -89Q306 -69 291 -48Q291 -52 290 -57Q290 -77 312 -102Q327 -119 331 -130Q310 -116 270 -74Q231 -37 222 -2Q225 1 228 4Q239 2 250 -21Q260 -43 274 -43Q277 -42 279 -42Q275 -30 264 -16Q254 9 244 41Q235 68 211 73Q206 74 201 74Q162 74 144 53Q136 35 128 17Q120 3 113 -7Q106 -17 106 -33Q106 -42 107 -48Q110 -63 125 -91Q138 -115 142 -128Q142 -142 150 -155Q152 -152 152 -142V-137Q152 -119 159 -116Q213 -163 258 -218Q306 -278 371 -318Q368 -312 345 -288Q325 -267 325 -251Q325 -246 326 -243Q338 -260 366 -284Q365 -276 354 -260Q339 -238 339 -220Q341 -218 343 -218Q345 -218 348 -222Q353 -228 357 -228ZM762 91H756Q750 91 747 90Q738 88 726 74Q717 64 711 61Q707 31 696 22Q696 17 701 14Q699 11 696 10Q689 7 689 4Q717 -4 731 -31Q745 -60 757 -92L788 -167Q786 -171 760 -171Q738 -171 737 -165Q744 -157 750 -149Q752 -141 752 -138Q752 -128 745 -122Q739 -116 732 -107Q714 -78 702 -5Q677 -1 658 10Q655 1 651 -8H648Q644 -7 640 -6L639 -7Q644 -38 648 -70Q651 -96 654 -122Q654 -138 649 -146Q646 -143 634 -143Q620 -143 616 -136Q622 -121 628 -107Q619 -95 619 -59V-11Q615 -2 593 0Q572 2 571 16Q565 -34 553 -76Q550 -78 534 -83Q529 -58 529 -32Q529 2 537 19Q535 25 529 34Q522 45 520 53Q514 55 509 57Q504 58 502 64Q494 58 484 55Q481 55 479 56Q466 39 464 37Q455 28 443 27L452 10Q445 -15 428 -48Q431 -50 437 -50Q443 -50 445 -48Q449 -34 463 -8Q464 -11 464 -16Q464 -29 446 -65Q430 -96 412 -108Q410 -104 410 -101Q415 -84 421 -67Q405 -80 389 -104Q367 -133 366 -148V-152Q366 -182 403 -212Q404 -216 404 -220Q401 -238 398 -256Q398 -264 400 -268Q407 -248 416 -233H426Q477 -233 504 -188Q520 -192 543 -192Q565 -193 575 -206H570Q557 -204 544 -203H542Q519 -207 509 -225Q499 -243 482 -255Q481 -270 464 -277Q467 -279 469 -284Q467 -286 463 -286Q457 -285 451 -284H449Q458 -295 469 -302Q481 -309 483 -324H480Q471 -324 469 -317Q434 -317 415 -342Q403 -359 392 -399V-428Q392 -462 416 -464Q421 -476 421 -479V-482Q446 -504 464 -540Q466 -542 473 -542Q476 -555 485 -563Q494 -571 504 -579Q504 -598 514 -602Q514 -587 516 -581Q544 -563 551 -507H560Q577 -507 584 -513L578 -554Q576 -566 574 -578Q574 -587 581 -590Q586 -557 597 -531Q604 -535 604 -544Q604 -547 603 -551Q599 -581 591 -609Q590 -626 588 -643Q586 -659 574 -666Q571 -661 571 -655Q574 -636 577 -618Q577 -610 574 -606Q562 -635 542 -659Q536 -664 528 -671Q519 -678 517 -684V-687Q517 -701 533 -728Q546 -750 557 -761Q587 -794 614 -794Q623 -794 630 -791Q651 -783 681 -755Q710 -728 710 -699Q704 -680 698 -662Q678 -602 671 -527Q677 -524 686 -524Q711 -527 735 -531Q732 -543 732 -554Q732 -577 747 -585H752Q761 -585 763 -591Q780 -591 793 -576Q809 -584 824 -593Q816 -585 816 -575Q816 -560 828 -556Q839 -561 852 -575Q868 -592 878 -596Q876 -590 866 -577Q851 -558 851 -549Q851 -541 861 -534Q869 -538 881 -550V-549Q879 -539 877 -529Q877 -523 881 -519Q890 -522 908 -533Q927 -544 941 -548Q934 -538 920 -528Q907 -518 905 -498Q907 -497 910 -497Q913 -497 920 -502Q928 -508 934 -508L939 -507Q930 -505 924 -495Q918 -485 918 -474Q918 -463 924 -454Q930 -445 941 -444Q935 -439 935 -431Q937 -418 938 -406V-404Q935 -385 931 -366Q931 -357 934 -352Q928 -358 914 -358Q886 -358 871 -346Q870 -346 870 -350Q870 -355 868 -355Q845 -364 806 -401Q792 -415 765 -415H757Q668 -411 623 -402Q554 -388 525 -355Q518 -353 510 -352Q505 -349 501 -336Q524 -350 551 -353Q555 -352 559 -352Q555 -345 543 -339Q529 -332 526 -324H529Q546 -324 581 -334Q610 -342 624 -344Q689 -353 707 -372Q661 -365 610 -356Q603 -355 595 -354Q585 -354 582 -363Q614 -369 662 -381Q729 -398 758 -402Q753 -397 753 -388Q753 -381 760 -378Q764 -379 771 -384Q779 -390 783 -390Q787 -390 791 -387Q784 -387 779 -381Q774 -375 774 -368Q774 -360 779 -356Q787 -358 793 -362Q787 -356 787 -344Q787 -329 796 -326Q786 -321 784 -287Q769 -266 769 -261L770 -258Q751 -252 728 -252Q706 -253 687 -249Q663 -246 661 -217Q675 -217 741 -228Q761 -231 777 -237Q792 -243 809 -249Q829 -254 851 -257Q873 -259 889 -271L891 -269Q888 -266 884 -260Q888 -255 891 -255Q894 -255 899 -262Q909 -275 917 -275Q920 -274 922 -274Q909 -259 905 -238Q905 -235 907 -227Q911 -221 918 -221Q925 -221 932 -224Q929 -215 926 -206Q935 -197 940 -182Q945 -168 952 -155Q941 -147 941 -123Q924 -119 915 -109Q906 -99 895 -89Q890 -96 890 -101Q890 -110 906 -126Q918 -137 920 -143Q917 -152 905 -152Q896 -152 890 -148Q883 -143 883 -136V-134H868Q830 -82 827 13Q835 4 839 -12Q843 -29 848 -46Q854 -75 880 -78Q884 -77 887 -77Q851 -26 839 71Q820 75 808 85Q795 94 782 104Q779 91 762 91Z"/>
</svg>