<svg xmlns="http://www.w3.org/2000/svg" viewBox="0 -800 1024 1024">
	<path fill="#000000" d="M497 -586V-584Q497 -569 485 -564Q484 -566 484 -571Q484 -586 496 -586ZM118 23H122Q136 23 137 32Q131 34 124 34Q118 34 114 32Q116 28 118 23ZM950 -511Q950 -486 943 -478Q937 -481 937 -495Q937 -512 947 -512ZM559 -458V-456Q581 -464 604 -471Q627 -478 644 -491Q637 -497 625 -513Q609 -535 597 -541Q591 -529 583 -520Q580 -509 577 -499Q564 -480 559 -458ZM583 -327H579Q590 -338 626 -344Q651 -348 665 -354Q698 -372 727 -385Q722 -391 718 -399Q714 -406 706 -409Q700 -407 697 -401Q694 -396 690 -391Q670 -387 643 -381Q616 -376 595 -366Q583 -357 570 -348Q564 -346 561 -346Q550 -346 539 -358Q533 -365 522 -381Q508 -355 503 -330L506 -331Q511 -329 515 -327H520Q528 -327 535 -328Q547 -328 547 -319Q526 -317 521 -310Q521 -295 539 -295H546Q576 -300 617 -313Q672 -326 675 -342Q655 -341 627 -334Q600 -327 583 -327ZM841 -87H838Q809 -91 783 -112Q754 -138 750 -143Q733 -162 728 -183Q737 -186 737 -196Q737 -206 730 -213Q734 -215 736 -215Q744 -214 751 -213H753Q756 -214 758 -221Q760 -227 762 -228H771Q794 -228 815 -216Q825 -210 848 -192Q856 -192 866 -190Q865 -187 865 -183Q865 -174 874 -162Q881 -153 882 -149Q874 -131 866 -111Q858 -91 841 -87ZM458 39H435Q423 39 417 41V38Q419 34 420 29Q414 19 404 19Q388 19 376 33Q383 21 389 9Q381 -3 371 -14Q362 -25 361 -45V-51Q359 -56 347 -58Q358 -67 358 -95V-106Q378 -138 397 -152Q395 -162 395 -167Q395 -172 398 -177Q401 -174 404 -165Q408 -153 414 -152Q418 -152 420 -163Q430 -153 438 -141Q440 -142 443 -142L447 -141Q485 -108 502 -31Q495 1 487 33Q476 39 458 39ZM876 11V15Q877 24 877 32Q877 36 876 38Q874 45 859 57Q847 67 836 72Q814 83 793 83V82Q793 77 798 74Q804 71 804 67Q798 60 787 60Q757 63 740 77V78Q740 87 756 87H762Q775 87 777 92Q733 103 679 108Q673 108 666 107Q630 105 617 94Q625 92 632 92Q662 95 691 98Q716 98 727 83Q715 74 678 74H659Q636 74 629 71Q609 63 589 45Q582 38 574 30Q565 22 553 21V24Q553 34 565 47Q577 61 577 68V69Q556 67 534 23Q516 -15 516 -69Q516 -89 521 -111Q525 -109 528 -99Q531 -89 537 -87H538V-91L539 -93H540Q553 -87 568 -62Q582 -39 598 -31Q613 -24 636 -24Q686 -28 725 -37Q730 -41 737 -55Q736 -62 728 -70Q718 -80 718 -90Q724 -88 733 -79Q743 -69 752 -67Q747 -79 726 -97Q708 -113 704 -123Q715 -120 738 -102Q767 -79 784 -79Q788 -79 796 -81Q803 -80 823 -72Q846 -63 860 -63Q868 -63 877 -66L879 -64Q875 -59 870 -54V-53Q870 -48 876 -39Q882 -31 882 -27V-24Q879 -6 876 11ZM308 -47V-27Q308 13 323 23Q332 18 332 5Q331 -6 330 -18Q330 -28 336 -36Q343 -22 343 -3Q347 19 347 34Q347 66 334 85Q330 90 315 99Q297 110 294 123Q289 113 280 110Q272 106 263 101Q256 95 247 80Q235 60 226 54Q219 50 212 49Q205 48 199 38H201Q210 37 218 35H222Q218 27 206 27Q186 30 165 32Q157 32 151 29Q180 23 203 13Q225 2 235 -25Q245 -57 251 -126Q239 -123 217 -103Q201 -93 183 -78Q178 -73 166 -47Q158 -29 145 -29Q139 -29 127 -34Q117 -42 100 -54Q73 -66 71 -69Q64 -79 64 -90Q68 -117 81 -139Q74 -156 74 -169Q74 -172 76 -180Q82 -188 90 -196Q92 -199 100 -221Q105 -236 115 -237Q115 -229 114 -221Q114 -212 117 -208Q152 -229 184 -250Q216 -271 254 -287Q257 -300 257 -316Q257 -318 254 -372Q194 -361 149 -285Q145 -284 136 -284Q110 -284 91 -300Q72 -316 66 -343Q53 -353 43 -361Q32 -369 31 -388V-396Q31 -402 38 -417Q48 -439 49 -451Q50 -455 50 -463Q50 -474 49 -486Q49 -497 53 -504Q69 -510 95 -530Q122 -551 140 -557Q132 -543 124 -529H126Q137 -529 155 -536Q170 -542 177 -542Q186 -542 192 -537Q186 -531 163 -526Q132 -520 127 -505Q134 -494 146 -494Q169 -499 197 -514Q230 -524 250 -534V-537Q250 -543 249 -549H245Q234 -547 223 -545Q219 -545 216 -550Q221 -560 233 -563Q244 -567 253 -573Q250 -583 250 -595Q251 -612 252 -630Q252 -636 250 -648Q248 -655 239 -666Q233 -674 231 -679V-684Q231 -724 260 -752Q287 -778 323 -778Q332 -778 336 -777Q346 -774 349 -765Q353 -755 358 -744Q367 -730 379 -716Q391 -701 395 -679V-675Q393 -662 390 -649Q391 -646 391 -643Q378 -616 374 -604H375Q388 -607 400 -616L402 -613Q399 -608 395 -604Q420 -619 444 -634Q441 -623 427 -612Q410 -599 410 -584V-580Q416 -582 422 -587Q430 -594 435 -595Q415 -566 415 -538Q415 -526 420 -517Q406 -498 406 -479Q406 -466 411 -456Q404 -449 380 -442Q354 -434 346 -422Q334 -405 334 -367Q334 -358 336 -342Q343 -342 357 -351Q368 -358 374 -360Q369 -351 364 -342Q369 -330 376 -322Q362 -307 362 -272Q362 -261 368 -204Q358 -192 330 -174Q331 -146 332 -119Q332 -101 329 -88Q324 -93 322 -111Q320 -132 312 -135Q304 -128 304 -109Q306 -78 308 -47ZM952 -207V-201Q951 -198 947 -196Q942 -193 942 -191Q942 -189 944 -187Q928 -184 912 -184Q880 -184 860 -201Q850 -213 842 -229Q834 -241 817 -258Q795 -281 789 -291Q782 -288 768 -271Q738 -260 701 -215Q681 -192 650 -147Q650 -143 655 -143Q660 -143 663 -141Q670 -129 676 -117Q669 -103 664 -88Q658 -71 642 -67H641Q634 -67 623 -72Q610 -78 604 -78H601Q593 -89 586 -100Q579 -111 567 -117Q568 -119 568 -122Q567 -128 565 -135Q569 -145 579 -147Q590 -150 600 -153Q597 -162 593 -170Q589 -178 579 -180L578 -183L580 -187L579 -189H577Q560 -185 548 -181H547Q553 -191 563 -197Q574 -203 585 -211Q589 -214 600 -229Q609 -241 617 -247Q575 -243 546 -220Q517 -197 488 -181Q477 -186 426 -222Q426 -232 427 -241Q427 -250 435 -255Q433 -260 433 -270Q433 -283 439 -292Q438 -297 430 -300Q425 -302 422 -306Q418 -313 417 -322Q408 -337 383 -346V-348Q383 -355 377 -367Q373 -375 373 -379Q373 -382 374 -384Q373 -388 365 -394H361Q356 -393 350 -393L346 -394Q389 -419 411 -451Q423 -469 435 -487Q440 -498 444 -510Q451 -517 457 -525Q460 -531 463 -537Q466 -543 475 -544H476Q467 -524 456 -505Q444 -486 442 -462Q466 -488 492 -533Q509 -563 533 -613Q547 -634 551 -660Q551 -664 549 -672Q534 -670 530 -658Q526 -644 518 -634Q515 -635 515 -640Q515 -646 521 -661Q529 -680 539 -703Q550 -726 553 -748Q553 -763 554 -773Q555 -783 565 -790H570Q584 -790 592 -796Q600 -802 609 -808H611Q657 -808 680 -773Q694 -751 706 -697Q699 -682 688 -666Q676 -649 675 -634Q675 -617 697 -609V-607Q697 -599 709 -597V-594Q710 -591 710 -588Q746 -555 777 -517Q782 -512 788 -507Q794 -502 795 -494V-493Q782 -496 763 -518Q743 -541 728 -546Q727 -544 727 -540Q731 -522 746 -510Q762 -488 771 -477Q789 -455 806 -433Q822 -411 850 -400V-402Q850 -413 837 -428Q823 -444 823 -457Q835 -450 853 -429Q871 -407 883 -400Q892 -419 900 -438Q904 -433 905 -411Q905 -391 910 -388Q919 -499 925 -534Q929 -515 929 -484Q929 -450 928 -417Q928 -383 933 -366Q936 -388 935 -417Q934 -445 943 -466Q947 -433 947 -391Q948 -349 971 -331Q970 -328 970 -322Q972 -303 974 -285V-282Q971 -268 968 -255V-241Q968 -233 966 -229Q960 -220 953 -211Z"/>
</svg>