<svg xmlns="http://www.w3.org/2000/svg" viewBox="0 -800 1024 1024">
	<path fill="#000000" d="M231 -519H229Q203 -519 179 -541Q174 -540 168 -539Q166 -539 164 -541V-542Q164 -544 167 -546Q170 -547 170 -550Q157 -561 152 -569Q147 -567 142 -566H140Q148 -576 152 -589Q152 -593 149 -598Q145 -599 139 -599Q133 -599 132 -604V-605H135Q149 -605 161 -619Q159 -628 149 -639Q141 -647 139 -654Q148 -654 160 -644Q171 -635 178 -635H182Q191 -638 194 -649Q197 -660 201 -670H207Q205 -667 205 -660Q205 -653 210 -641H212Q227 -639 235 -629H237Q239 -629 243 -633Q245 -626 247 -620Q258 -611 269 -601Q280 -591 281 -575V-572Q280 -564 275 -555Q268 -542 268 -535Q261 -535 250 -527Q238 -519 231 -519ZM880 -80L892 -82V-77Q892 -62 881 -61Q880 -64 880 -70ZM624 121Q621 130 611 130Q606 130 601 127L600 123Q600 116 610 116Q622 116 624 121ZM340 -381V-383Q329 -383 321 -377Q313 -371 313 -362Q313 -357 316 -353Q328 -354 338 -359V-363Q339 -372 340 -381ZM424 -525Q382 -506 350 -472Q334 -457 318 -444Q302 -431 292 -416Q298 -414 301 -414Q310 -414 328 -423Q343 -431 359 -441Q374 -451 393 -453Q392 -451 392 -448Q392 -443 400 -435Q407 -428 408 -423Q409 -420 409 -415Q407 -397 405 -380V-374Q387 -366 383 -342Q380 -319 370 -302Q383 -297 391 -297Q397 -297 403 -300Q411 -372 424 -525ZM779 -512Q769 -505 762 -505Q756 -505 756 -511V-512Q765 -514 774 -517Q778 -517 779 -512ZM923 -460Q923 -439 909 -428V-433Q909 -460 923 -460ZM912 -684Q898 -677 882 -674V-675Q882 -681 888 -686Q894 -691 901 -691Q909 -691 912 -684ZM592 -253Q601 -253 609 -254Q634 -252 651 -240Q668 -229 683 -218Q677 -214 672 -211Q666 -207 663 -201V-199Q665 -194 667 -189V-188Q646 -167 635 -160Q616 -148 590 -146Q537 -143 508 -125Q519 -123 542 -123Q586 -124 628 -134Q671 -144 717 -151Q710 -143 687 -138Q667 -133 660 -127Q688 -128 715 -130H725Q719 -125 704 -122Q688 -119 684 -116Q689 -113 696 -113H709Q716 -113 719 -112Q690 -101 678 -89Q682 -86 683 -80H681Q679 -80 676 -81L674 -80Q654 -59 609 -52V-54Q609 -64 624 -69Q634 -72 637 -77Q637 -81 634 -81Q630 -80 625 -79H614Q583 -79 560 -70Q562 -66 574 -64Q588 -62 589 -55Q584 -51 571 -48Q557 -45 553 -41Q556 -32 556 -29Q556 -27 554 -23Q622 -35 704 -47Q711 -36 722 -36Q730 -36 746 -43Q767 -52 778 -52H781Q757 -43 739 -26Q741 -25 746 -25Q757 -25 775 -31Q775 -28 766 -24Q755 -19 754 -14Q755 -10 758 -10Q764 -11 770 -13H771Q764 -8 754 5Q744 19 735 22Q730 24 720 24Q698 22 676 20Q599 20 533 37V50Q536 53 543 53Q551 53 556 52Q763 39 785 37Q815 34 833 17Q843 7 860 -22Q857 -7 854 8Q854 13 857 17Q860 -2 864 -21Q867 -40 880 -50Q873 -24 873 -4Q873 13 878 20Q882 18 884 9Q887 -1 892 -3Q889 2 889 6Q890 13 895 20Q901 26 905 31H909Q920 32 927 40Q933 49 942 55V60Q942 80 932 95Q913 103 893 111Q774 119 655 126Q656 109 683 109H702Q789 104 864 89Q854 84 840 84Q829 85 818 85Q746 92 673 98Q660 99 633 99H584Q535 99 510 103Q514 115 541 117Q571 119 577 127Q573 133 565 133Q555 132 545 131H513Q484 131 465 126Q449 122 430 109Q411 95 409 85V80Q409 72 415 50H410Q341 50 271 85Q243 99 234 99H232Q221 97 197 86Q186 83 177 81Q168 79 163 71Q162 70 162 66Q165 58 168 49Q165 42 162 34Q164 20 178 13Q191 5 205 -3Q220 -15 234 -19Q236 -19 240 -17Q230 -8 223 5Q231 8 239 8Q255 7 270 6Q268 13 252 17Q236 21 236 28L237 32Q260 27 317 22Q382 16 415 8Q405 2 391 2Q378 2 357 7Q332 13 322 13H318Q294 10 288 10Q321 -3 360 -6Q399 -9 434 -14Q440 -18 442 -26Q437 -28 425 -28Q402 -28 359 -13Q345 -15 331 -17Q317 -19 315 -32H313Q291 -35 290 -54Q290 -67 304 -70Q302 -75 292 -78Q285 -80 283 -82H287Q299 -80 311 -78Q314 -78 318 -80V-81Q316 -84 313 -85L316 -87Q320 -87 322 -85Q346 -97 379 -98Q412 -100 442 -104L443 -105Q440 -108 436 -112Q436 -113 440 -113Q437 -114 433 -114Q428 -114 415 -108Q404 -103 396 -103Q377 -106 358 -110H356Q351 -109 345 -109H342Q344 -111 345 -113Q329 -117 320 -117Q307 -117 294 -112Q295 -116 301 -119Q306 -121 307 -124Q289 -121 270 -118Q282 -127 295 -128Q290 -130 280 -130Q256 -127 229 -118Q266 -147 371 -179Q404 -189 410 -189Q416 -189 419 -188Q417 -180 396 -174Q376 -168 371 -160Q409 -164 494 -196Q489 -207 480 -207Q475 -207 460 -200Q447 -194 440 -194Q434 -194 430 -198Q433 -205 438 -211Q422 -224 408 -242Q409 -244 409 -248Q408 -257 401 -263Q394 -270 388 -276Q390 -278 391 -281V-282Q379 -289 367 -297Q364 -297 363 -294Q361 -290 358 -290H357Q350 -302 334 -302Q321 -302 308 -294Q288 -305 279 -327Q270 -348 258 -366Q258 -357 253 -340Q249 -326 249 -316Q249 -304 259 -273Q266 -252 266 -242V-241Q266 -227 254 -214Q244 -204 231 -199Q210 -201 187 -222Q168 -240 154 -244Q157 -254 157 -264Q153 -297 144 -329Q162 -308 169 -278H171Q178 -280 184 -282V-284Q181 -298 171 -322Q168 -341 167 -360Q166 -379 154 -380H153Q143 -379 142 -371Q141 -362 140 -351Q134 -352 131 -359Q127 -367 123 -374Q114 -385 107 -400Q103 -415 103 -433Q103 -485 135 -500Q152 -514 189 -515Q208 -515 222 -513Q231 -509 239 -501Q250 -508 255 -508L258 -507Q271 -528 299 -539V-570Q299 -647 276 -672Q268 -674 264 -674Q263 -674 245 -671Q261 -693 281 -718Q300 -743 331 -745Q339 -745 344 -744Q360 -741 381 -713Q402 -684 402 -661V-657Q401 -649 392 -637Q382 -623 382 -612Q382 -609 384 -599Q397 -607 402 -609Q414 -667 419 -718Q419 -723 418 -729Q410 -731 408 -731Q401 -730 393 -729Q397 -742 413 -749Q415 -760 450 -776Q471 -788 478 -788Q485 -788 491 -781H495Q507 -781 514 -771Q515 -770 526 -749Q540 -723 540 -716Q540 -706 535 -699Q530 -691 520 -683Q511 -676 504 -655Q514 -658 532 -660Q538 -663 543 -667Q545 -667 547 -665V-663Q546 -655 544 -647Q544 -644 547 -641Q550 -644 552 -649Q554 -654 560 -654H561Q560 -649 560 -641Q560 -623 572 -602Q587 -654 587 -670Q587 -683 585 -690Q581 -688 574 -681Q566 -673 560 -671Q584 -729 592 -740Q616 -773 660 -773H662Q676 -763 680 -755H685Q700 -755 707 -745Q714 -735 718 -721Q723 -690 735 -668Q724 -652 711 -637Q698 -622 693 -599Q726 -607 756 -626Q809 -649 816 -653Q821 -650 825 -650Q833 -650 845 -657Q861 -666 869 -666H871L872 -664Q872 -661 864 -654Q854 -646 853 -642Q870 -644 886 -647H889Q883 -641 876 -637Q869 -633 865 -626V-625Q865 -621 869 -619Q872 -617 873 -615Q877 -621 883 -621H885Q878 -612 877 -608Q882 -595 889 -591Q881 -586 876 -578Q877 -575 877 -570Q877 -562 869 -553Q859 -542 859 -532V-529Q811 -523 794 -510V-514Q794 -527 819 -538Q817 -543 809 -549Q789 -548 769 -540Q749 -531 729 -524Q708 -518 686 -512Q680 -509 671 -500Q660 -489 660 -483Q660 -476 670 -475Q680 -475 693 -483Q703 -488 714 -494Q725 -500 738 -501H744Q742 -491 733 -487Q722 -483 713 -480Q659 -457 641 -447Q624 -434 609 -428H606Q600 -428 579 -440Q569 -444 558 -447Q546 -451 542 -463V-466Q545 -479 547 -492Q546 -498 544 -504V-507Q544 -520 552 -544Q557 -559 558 -566Q535 -556 526 -531Q517 -507 505 -486Q501 -489 501 -499Q502 -508 502 -517Q502 -525 498 -529Q469 -519 464 -477Q459 -429 459 -386Q459 -380 458 -375Q458 -364 467 -360Q474 -373 479 -403Q486 -446 498 -457Q488 -395 488 -349Q488 -307 498 -278L484 -249Q504 -253 530 -253Q547 -252 564 -251Q559 -262 555 -267Q548 -275 538 -275Q524 -294 519 -316V-317Q521 -322 525 -326Q508 -345 504 -363H505Q508 -363 515 -355Q526 -343 532 -342Q566 -357 576 -368Q573 -378 561 -387Q550 -395 548 -398Q557 -400 561 -406Q564 -413 567 -419Q575 -423 586 -423Q616 -419 643 -404Q655 -414 666 -424Q676 -435 692 -441V-463Q708 -479 737 -479Q754 -479 765 -471Q778 -462 779 -446Q800 -446 809 -444Q808 -442 803 -439Q797 -436 796 -431Q796 -429 800 -429H807Q796 -405 791 -369Q771 -368 757 -354Q771 -341 797 -332Q823 -325 836 -325H843Q856 -327 864 -345Q874 -367 880 -372V-369Q877 -353 873 -337Q873 -330 877 -326Q884 -349 890 -374Q895 -399 908 -417Q903 -383 898 -341Q898 -334 900 -322Q914 -385 930 -443Q924 -381 917 -320Q920 -322 921 -327Q923 -334 926 -334Q924 -329 924 -317Q924 -302 934 -272Q942 -248 942 -236V-234Q939 -226 936 -218Q935 -206 934 -202Q932 -196 926 -190Q917 -187 910 -187Q900 -187 868 -203Q844 -216 840 -219Q825 -229 821 -242H827Q844 -238 858 -234H861Q853 -256 832 -268Q810 -280 787 -291Q745 -313 729 -313H723Q731 -295 749 -287Q767 -280 782 -268V-266Q780 -263 777 -260L778 -257Q698 -299 670 -310Q619 -287 592 -253Z"/>
</svg>