<svg xmlns="http://www.w3.org/2000/svg" viewBox="0 -800 1024 1024">
	<path fill="#000000" d="M112 38H116Q130 38 130 47Q126 49 118 49Q113 49 109 47Q111 43 112 38ZM932 -103H929Q899 -107 872 -130Q842 -156 837 -162Q819 -182 814 -204Q823 -207 823 -218Q823 -227 816 -236Q820 -238 822 -238Q830 -237 838 -236H840Q843 -237 845 -243Q847 -250 850 -251H859Q881 -251 905 -238Q918 -231 940 -214Q947 -214 959 -212Q958 -208 958 -204Q959 -193 965 -185Q972 -177 976 -168Q967 -150 959 -130Q951 -108 932 -103ZM948 0V4Q949 13 949 22Q949 26 948 28Q946 36 931 48Q921 56 906 64Q884 75 861 75V74Q861 69 867 66Q873 63 873 58Q866 51 855 51Q829 51 810 68V69Q810 79 822 79H829Q842 79 844 85Q823 89 801 95Q778 100 751 101Q742 101 738 100Q703 100 686 87Q694 85 702 85Q733 88 764 91Q776 91 780 88Q782 87 789 76Q774 66 750 66H730Q706 66 699 63Q688 58 682 50Q675 43 667 35Q660 28 651 20Q642 11 629 10V13Q629 23 642 38Q654 52 654 59V60Q631 57 609 12Q590 -26 590 -84Q590 -106 595 -129Q599 -126 603 -116Q606 -106 612 -103H613Q613 -105 613 -108L614 -110H615Q631 -102 646 -77Q661 -52 676 -45Q692 -37 706 -37Q730 -38 751 -43Q771 -48 790 -51Q796 -56 802 -70Q801 -77 792 -86Q782 -96 782 -107Q788 -104 798 -95Q808 -85 818 -82Q812 -96 791 -114Q772 -131 768 -141Q780 -138 803 -120Q835 -95 852 -95Q856 -95 864 -97Q875 -95 893 -88Q918 -78 931 -78Q940 -78 949 -81L951 -79Q947 -74 942 -69V-68Q942 -62 949 -52Q954 -45 955 -40V-37Q952 -18 948 0ZM749 -103V-95Q740 -80 729 -68H726Q721 -69 715 -70Q713 -70 709 -68Q703 -78 695 -88Q688 -97 683 -114H675V-116Q676 -132 676 -148Q674 -164 664 -164Q661 -164 660 -162Q661 -170 671 -170H676Q684 -181 686 -203Q692 -194 699 -194Q706 -195 712 -196H716Q729 -184 742 -172Q749 -112 749 -103ZM609 -427H608Q605 -425 602 -424L600 -426Q604 -432 617 -440Q627 -446 632 -452Q586 -450 566 -435V-430Q570 -412 573 -395Q590 -398 607 -401Q611 -413 611 -417Q611 -419 609 -427ZM711 -452Q718 -458 724 -465Q671 -465 647 -453Q660 -439 667 -417Q696 -425 723 -441Q722 -448 711 -452ZM457 -99Q471 -114 487 -126Q485 -134 485 -139Q485 -143 488 -148Q492 -143 494 -135Q495 -127 502 -126Q506 -126 508 -135Q517 -126 524 -116L528 -117L532 -116Q566 -86 581 -17Q575 12 568 41Q560 46 542 46H521Q510 46 505 48V46Q507 42 508 37Q502 28 493 28Q479 28 468 41Q474 30 480 19Q472 8 464 -2Q455 -12 454 -29V-35Q453 -39 442 -41Q458 -53 452 -74L450 -79Q422 5 396 66H391Q380 65 369 63Q365 63 364 64Q358 44 347 24Q336 3 335 -22V-31Q330 -70 325 -109Q325 -116 327 -130Q331 -121 335 -97Q339 -71 344 -61Q337 -110 332 -171Q320 -163 314 -159Q315 -131 316 -104Q316 -86 313 -73Q308 -78 306 -96Q304 -117 297 -120Q289 -113 289 -94Q291 -63 293 -32V-12Q293 28 307 38Q316 33 316 20Q315 9 314 -3Q314 -13 319 -21Q326 -7 326 12Q330 27 330 49Q330 83 318 100Q314 106 300 114Q282 125 280 138Q275 128 267 125Q258 121 250 116Q243 110 235 95Q224 75 215 69Q208 65 201 64Q195 63 189 53H191Q199 52 207 50H211Q207 42 196 42Q177 45 157 47Q150 47 144 44Q184 33 193 28Q216 16 224 -10Q233 -45 239 -111Q229 -109 206 -88Q192 -78 174 -63Q170 -58 158 -32Q150 -14 138 -14Q133 -14 121 -19Q112 -27 95 -39Q79 -45 68 -54Q61 -64 61 -75Q65 -102 77 -124Q71 -139 71 -154Q71 -157 73 -165Q77 -173 86 -181Q87 -183 95 -206Q100 -221 110 -222Q110 -214 109 -206Q109 -197 111 -193Q144 -214 175 -235Q206 -256 242 -272Q244 -290 244 -301Q244 -321 242 -357Q209 -350 190 -328Q183 -320 158 -276Q154 -275 146 -275Q93 -277 79 -334Q67 -344 57 -352Q47 -360 46 -379V-387Q46 -393 53 -409Q62 -430 63 -442Q64 -446 64 -454Q64 -465 63 -477Q63 -488 67 -495Q81 -501 106 -521Q131 -541 149 -548Q142 -534 134 -520H136Q146 -520 163 -527Q178 -533 185 -533Q193 -533 199 -528Q193 -522 171 -517Q142 -511 137 -496Q144 -485 155 -485Q177 -490 204 -505Q226 -512 238 -519V-522Q238 -528 237 -534H233Q223 -532 212 -530Q207 -530 206 -535Q210 -545 221 -548Q232 -552 241 -558Q238 -568 238 -580Q239 -597 240 -615Q240 -621 238 -633Q236 -640 228 -651Q221 -660 220 -664V-669Q220 -710 247 -737Q273 -763 307 -763Q316 -763 319 -762Q329 -759 332 -750Q336 -740 340 -729Q348 -715 360 -701Q372 -686 376 -664V-660Q374 -647 371 -634Q372 -631 372 -628Q358 -601 356 -589H357Q369 -592 380 -601L382 -598Q379 -593 376 -589Q399 -604 422 -619Q419 -608 406 -597Q390 -584 390 -569V-565Q393 -566 400 -572Q407 -578 414 -580Q407 -569 401 -553Q416 -538 430 -524Q434 -528 439 -530Q430 -544 424 -556H426Q430 -556 436 -550Q440 -546 442 -545Q451 -551 463 -551Q475 -551 491 -537Q506 -523 519 -524Q529 -524 551 -530Q573 -536 590 -536Q593 -549 593 -565Q592 -593 591 -621Q591 -632 592 -638Q599 -632 601 -605Q603 -580 610 -573Q617 -597 617 -619Q617 -677 589 -699Q587 -691 587 -679Q587 -668 581 -663Q565 -695 565 -716Q565 -725 566 -729Q564 -734 558 -734Q554 -734 548 -731Q566 -764 624 -786Q643 -784 663 -766Q684 -747 686 -729V-725Q682 -704 678 -683Q678 -677 679 -674Q739 -691 784 -710Q800 -704 808 -702Q826 -720 835 -725Q819 -703 819 -685Q819 -678 822 -672Q825 -666 834 -663Q814 -629 796 -593Q774 -595 761 -595Q688 -595 676 -558Q724 -565 771 -573Q818 -580 856 -600Q866 -598 872 -596Q881 -599 890 -603Q895 -603 896 -600Q883 -595 882 -581Q883 -577 887 -577Q891 -577 895 -579L893 -570Q906 -576 921 -579H925Q918 -573 910 -566Q902 -559 901 -547Q901 -541 902 -537L904 -535Q907 -536 909 -537H910Q896 -519 893 -477Q889 -473 883 -470Q877 -467 876 -458Q873 -461 861 -461H853V-462Q853 -471 862 -477Q871 -483 872 -490H865Q809 -484 785 -434Q795 -435 810 -447Q827 -461 838 -462Q839 -457 840 -453Q831 -444 810 -430Q783 -413 774 -399Q773 -384 765 -375Q756 -367 747 -358Q728 -357 701 -353Q656 -353 656 -322Q657 -321 661 -316Q667 -308 670 -308Q692 -310 713 -313Q716 -313 724 -311Q722 -305 714 -303Q711 -302 701 -301Q680 -297 658 -293Q662 -286 674 -286H679Q706 -286 753 -308Q743 -312 733 -316Q752 -327 772 -335Q777 -332 781 -335Q783 -335 785 -336Q785 -326 785 -316Q790 -283 805 -261H801Q782 -261 778 -232Q743 -228 708 -225Q688 -223 676 -220Q668 -218 657 -211Q644 -203 638 -202H634Q614 -202 579 -227Q577 -240 575 -254Q575 -298 582 -312Q580 -313 576 -313Q567 -313 562 -302Q558 -294 553 -290Q544 -294 535 -299Q508 -267 480 -165Q458 -100 457 -99ZM399 -547Q395 -536 395 -523Q395 -509 399 -502Q386 -482 386 -464Q386 -449 390 -441Q383 -434 361 -427Q337 -419 329 -407Q318 -390 318 -352Q319 -339 319 -327Q325 -327 358 -349Q379 -363 387 -366Q382 -357 377 -348Q382 -336 389 -328Q375 -313 375 -278Q375 -267 381 -210Q373 -199 334 -173Q337 -163 341 -130Q346 -90 353 -75Q354 -78 354 -83Q351 -102 347 -122V-136Q347 -151 353 -155Q354 -141 364 -94Q374 -106 382 -136Q388 -158 395 -170Q411 -209 435 -243Q433 -216 411 -171Q394 -136 389 -114Q456 -227 479 -308Q471 -308 467 -301Q463 -294 460 -285Q457 -275 454 -270Q449 -261 442 -261H440Q448 -280 459 -315Q476 -369 488 -390Q482 -398 482 -402Q482 -405 486 -408Q475 -406 465 -400Q456 -395 445 -394Q423 -393 421 -426V-428Q422 -433 422 -438Q422 -441 421 -443Q420 -446 413 -453Q405 -462 404 -468V-471Q407 -486 409 -501Q409 -511 400 -516L403 -517Q405 -517 409 -514Q414 -510 418 -510H421Q414 -528 399 -547Z"/>
</svg>