<svg xmlns="http://www.w3.org/2000/svg" viewBox="0 -800 1024 1024">
	<path fill="#000000" d="M688 -228Q683 -227 679 -223Q682 -223 684 -221Q686 -224 688 -228ZM149 -428Q143 -429 143 -436Q143 -444 149 -450Q154 -449 154 -443Q154 -438 149 -428ZM866 -660V-663Q866 -677 879 -677H884Q881 -672 877 -667Q874 -662 866 -660ZM640 15Q636 23 620 31Q618 27 618 26Q620 15 634 14Q638 14 640 15ZM909 -386V-368L906 -370Q903 -367 899 -365Q897 -377 897 -379Q897 -386 900 -392H906L908 -393Q909 -391 909 -386ZM762 -503L746 -501Q706 -495 668 -484Q678 -453 681 -450Q702 -458 717 -458Q728 -458 733 -453Q725 -448 703 -446Q673 -444 669 -427Q683 -425 689 -425Q717 -426 743 -434Q769 -442 789 -449Q787 -457 777 -458Q767 -459 758 -461Q760 -470 775 -472Q793 -475 797 -478Q780 -487 762 -503ZM142 -177V-181Q142 -196 130 -206Q129 -207 107 -220Q92 -214 87 -198Q82 -182 74 -170Q73 -173 73 -178Q73 -186 79 -200Q86 -217 86 -228Q76 -234 66 -240Q55 -246 42 -247Q34 -247 29 -245Q30 -251 40 -257Q37 -266 37 -276Q39 -294 40 -313V-320Q38 -325 34 -329Q27 -335 27 -341V-343Q32 -339 38 -339Q50 -339 62 -353Q58 -363 49 -376Q38 -392 35 -402L37 -403Q41 -403 52 -389Q64 -375 69 -371Q75 -372 75 -377Q74 -384 72 -392Q78 -390 83 -382Q89 -374 93 -372Q105 -377 130 -381Q134 -397 143 -415Q146 -410 146 -405Q144 -394 142 -383Q142 -380 143 -378Q146 -371 154 -365Q162 -360 169 -355Q171 -356 172 -361Q173 -369 178 -369Q180 -349 189 -334Q198 -320 206 -303Q221 -266 226 -230Q217 -212 217 -208Q217 -206 219 -198Q207 -196 193 -185Q176 -187 159 -190Q145 -190 142 -177ZM537 -146H546Q543 -155 525 -157Q505 -160 503 -168Q504 -170 512 -170H527Q563 -172 604 -189Q610 -192 669 -221Q606 -217 585 -194Q547 -198 530 -240Q521 -238 512 -236Q521 -244 532 -251Q527 -258 521 -266Q585 -281 657 -332L661 -333Q676 -328 690 -323H691Q708 -297 708 -266Q708 -240 690 -230Q692 -225 701 -222Q709 -220 712 -217Q716 -207 720 -198Q731 -180 731 -174Q731 -169 726 -157Q696 -141 661 -132Q626 -124 608 -95Q604 -99 596 -99Q590 -98 583 -98Q579 -98 577 -99Q564 -102 552 -125Q544 -140 537 -146ZM718 -60H713Q698 -60 679 -49Q671 -44 648 -27Q620 -7 593 14Q565 35 552 70H555Q564 70 577 58Q589 47 600 46Q596 56 582 69Q567 82 564 93Q562 93 559 92Q551 92 551 102V105L547 104Q543 104 536 111Q506 99 488 78L485 77Q480 78 474 79H472Q472 73 477 72Q482 70 485 67Q474 52 474 28Q477 -5 479 -39V-47Q483 -34 485 -22Q489 -26 489 -33Q487 -46 485 -59Q485 -65 484 -72Q485 -91 486 -110Q486 -116 485 -123Q484 -135 482 -148Q482 -157 488 -159Q491 -104 503 -50Q505 -71 506 -93Q511 -77 513 -58Q515 -39 527 -30Q554 -42 580 -54Q624 -81 668 -108L690 -119Q698 -126 706 -134Q712 -135 717 -136Q770 -155 770 -192V-198Q773 -196 775 -186Q777 -175 782 -173Q798 -172 808 -156Q817 -142 817 -125Q817 -111 811 -104Q795 -89 777 -83Q754 -73 704 -32Q673 -6 656 3Q661 -17 691 -37Q712 -51 718 -60ZM961 -95H959Q948 -92 939 -88H936Q925 -88 906 -98Q893 -105 886 -105H884Q880 -115 864 -132Q843 -155 842 -173Q854 -169 866 -150Q877 -132 887 -128Q891 -133 891 -141Q891 -152 875 -173L844 -206Q813 -243 782 -274Q763 -291 751 -291Q749 -290 746 -290Q749 -278 758 -269Q767 -260 776 -251Q787 -241 799 -230Q812 -219 813 -204V-201Q805 -203 800 -209Q794 -215 789 -221Q734 -280 679 -340H676Q645 -336 613 -324Q595 -320 578 -317Q561 -314 549 -305V-302L548 -299Q549 -296 549 -293Q534 -290 529 -274Q523 -270 522 -270H520Q513 -260 500 -251Q491 -237 484 -221Q463 -197 441 -173Q430 -152 419 -132Q414 -124 406 -112Q399 -101 391 -99H389Q382 -99 374 -110Q367 -120 362 -120Q359 -120 357 -119V-122Q357 -126 361 -134Q356 -141 348 -159Q353 -165 353 -186Q353 -200 355 -208Q361 -222 367 -236Q371 -261 375 -287Q379 -283 379 -274Q378 -259 377 -244Q377 -235 381 -231Q425 -259 446 -289Q431 -289 421 -309Q406 -339 404 -341Q399 -336 390 -336Q386 -336 378 -338Q375 -335 370 -318Q364 -343 330 -356Q328 -334 328 -321Q329 -278 330 -236Q330 -193 324 -168Q324 -218 314 -260Q301 -256 301 -238Q302 -232 302 -227Q303 -215 303 -189V-133Q303 -51 321 -27Q328 -33 328 -47Q327 -66 325 -85Q325 -96 329 -101Q338 -88 340 -70Q341 -51 342 -33Q346 -9 349 15Q348 34 333 41Q316 48 303 59L301 60Q299 59 296 58H295Q290 63 290 75Q287 68 284 61Q281 57 271 51Q257 42 253 34Q250 27 247 19Q241 11 226 -5Q207 -25 200 -36V-41Q200 -48 191 -62Q220 -80 223 -126Q231 -192 235 -254Q237 -257 238 -260Q237 -270 235 -281Q238 -294 240 -308Q239 -317 237 -326V-336Q238 -360 238 -385V-395Q237 -399 235 -404V-407Q238 -425 240 -443Q238 -450 235 -458V-462Q237 -476 238 -491Q235 -512 232 -534V-550Q230 -559 224 -573Q218 -587 217 -602Q217 -606 219 -614Q233 -641 274 -641Q299 -641 315 -630Q333 -618 333 -596V-591Q326 -591 319 -600Q312 -608 304 -608H303Q299 -603 299 -598Q300 -590 306 -582Q313 -575 317 -569Q321 -559 324 -550Q328 -541 336 -537Q342 -543 342 -553Q341 -564 343 -573L345 -574Q352 -568 357 -557Q355 -553 355 -551Q355 -549 360 -539Q358 -524 355 -510V-507Q350 -501 347 -482Q345 -469 342 -464Q354 -455 366 -447Q367 -448 370 -454Q372 -460 375 -460L378 -459Q380 -458 380 -454Q379 -447 378 -440Q378 -433 384 -431Q386 -431 388 -434Q391 -438 394 -438L397 -437Q397 -433 396 -430Q397 -417 405 -411Q412 -405 417 -396Q425 -397 434 -408Q445 -421 456 -422Q494 -423 537 -427Q557 -432 566 -438Q579 -446 583 -462Q534 -462 505 -432H503Q493 -428 482 -424H480Q460 -425 445 -438Q429 -451 416 -461Q416 -473 404 -495Q393 -516 393 -528Q393 -540 401 -551Q393 -567 391 -569Q440 -587 478 -625Q488 -637 499 -648Q510 -659 524 -663V-662Q524 -652 517 -646Q510 -639 503 -633Q483 -611 482 -600Q500 -607 512 -623Q533 -643 555 -663Q578 -683 595 -707Q592 -715 590 -724Q588 -732 580 -735H579Q568 -735 563 -712Q559 -694 552 -694H551Q549 -696 549 -699Q552 -707 558 -716Q554 -723 554 -729Q557 -745 560 -761Q560 -770 557 -774Q574 -782 602 -789Q636 -797 650 -806L652 -807Q668 -803 681 -791Q687 -784 702 -749Q718 -714 718 -701Q718 -691 712 -682V-680Q713 -674 714 -669Q703 -656 703 -648V-644Q701 -640 692 -634Q684 -628 682 -622Q672 -624 664 -624Q629 -624 617 -603Q594 -601 574 -575Q645 -587 712 -596Q711 -600 711 -606Q711 -617 717 -631Q723 -645 723 -653V-659L725 -660Q730 -656 737 -653H738Q752 -658 765 -660H770Q773 -662 774 -670Q775 -680 782 -680H783Q782 -677 782 -671Q783 -659 790 -651Q797 -644 804 -638Q815 -641 823 -645Q816 -640 816 -631Q816 -626 820 -622Q839 -637 856 -653V-652Q853 -643 842 -633Q836 -616 829 -600Q830 -595 837 -595Q844 -595 848 -599L849 -597Q847 -592 845 -587Q856 -578 862 -578H867Q858 -572 858 -555Q861 -530 866 -513L863 -512Q857 -514 851 -516Q847 -514 842 -506Q839 -501 836 -498Q839 -491 842 -484Q838 -488 831 -488Q819 -486 804 -479Q804 -462 822 -453Q836 -459 843 -459H848Q846 -455 838 -451Q829 -447 827 -443Q829 -434 830 -425Q831 -424 835 -424H845Q833 -403 822 -380Q811 -357 779 -355H773Q786 -336 806 -319Q826 -302 847 -286Q853 -280 859 -274Q865 -268 875 -267H878Q881 -271 883 -284Q885 -299 890 -302Q888 -296 888 -294Q888 -284 896 -278Q899 -284 899 -301Q899 -314 898 -328Q898 -345 903 -353Q908 -344 908 -319V-290Q908 -272 912 -261Q915 -269 915 -293Q915 -324 922 -332Q924 -318 925 -285Q926 -247 931 -230Q935 -234 936 -249Q937 -262 941 -267Q944 -256 944 -251Q944 -245 943 -240Q943 -233 946 -224Q949 -216 960 -203Q973 -188 974 -179V-173Q972 -148 969 -123Q970 -117 970 -111Q961 -106 961 -95Z"/>
</svg>