<svg xmlns="http://www.w3.org/2000/svg" viewBox="0 -800 1024 1024">
	<path fill="#000000" d="M479 -330Q491 -334 502 -338H504L507 -337Q506 -332 505 -328L506 -324Q510 -315 520 -310Q529 -305 539 -299L541 -254Q520 -237 498 -233H493Q486 -234 476 -242Q467 -249 462 -249Q459 -249 453 -245Q452 -247 450 -250Q450 -252 455 -255Q459 -257 460 -260Q446 -272 444 -272Q434 -271 422 -262Q413 -255 409 -254Q409 -266 424 -275Q436 -282 438 -287Q438 -307 422 -312Q423 -315 432 -317Q445 -320 447 -325Q456 -332 469 -334Q474 -330 479 -330ZM816 -721H815Q814 -723 814 -728Q814 -740 823 -742Q827 -741 827 -735Q826 -723 816 -721ZM58 -169V-166Q43 -172 43 -190Q46 -189 49 -188H51Q58 -177 58 -169ZM648 -520V-521H636Q580 -520 538 -505Q496 -490 453 -473Q463 -464 466 -449Q521 -460 559 -472Q569 -475 592 -480Q623 -486 632 -493Q646 -506 648 -520ZM670 -355Q676 -352 681 -349Q686 -341 686 -330Q688 -320 690 -310Q682 -306 679 -297Q676 -289 672 -280Q670 -282 669 -290Q668 -301 663 -303H662L660 -304Q649 -300 649 -288Q648 -276 649 -261Q648 -238 646 -216Q646 -201 654 -187Q663 -193 663 -215Q662 -225 660 -235Q660 -255 666 -262Q672 -250 672 -241Q672 -227 671 -213Q671 -200 676 -194Q710 -199 746 -213Q776 -227 805 -241Q800 -230 794 -219Q800 -216 814 -216Q834 -218 853 -221Q863 -221 868 -220Q865 -217 847 -208Q834 -202 835 -190V-187H837Q846 -189 855 -192Q858 -192 860 -191Q846 -185 844 -170Q844 -162 857 -161Q849 -150 847 -137Q844 -124 841 -113Q838 -95 813 -90H811Q798 -92 783 -96Q784 -102 795 -105Q807 -108 809 -114Q804 -126 783 -124Q777 -124 763 -122Q738 -120 712 -117Q686 -115 680 -100Q685 -95 698 -95Q718 -98 737 -101Q750 -101 756 -96Q746 -93 720 -90Q686 -86 673 -79Q672 -76 672 -70Q672 -65 668 -64L665 -62Q662 -62 660 -67Q658 -72 655 -73Q643 -65 645 -37Q649 -1 653 34V56Q653 77 665 77H667Q674 74 676 59Q677 56 677 52Q671 24 665 -5Q665 -19 669 -25Q675 -24 675 -17L676 -7Q685 48 696 69Q692 81 693 90V94Q687 103 670 115Q660 124 649 134Q638 144 621 146H619Q589 139 562 122Q561 117 560 111Q558 102 548 84Q535 59 534 47Q534 42 535 40Q542 29 548 21Q552 10 552 -24Q552 -52 555 -62Q528 -61 463 -38Q410 -19 394 -18H392Q377 -17 351 -26Q328 -34 314 -34Q311 -38 311 -44Q311 -53 316 -63Q310 -71 307 -79Q306 -83 306 -92Q303 -129 342 -147Q346 -145 349 -138Q352 -131 356 -130Q385 -131 434 -142Q420 -151 412 -151H411Q393 -146 377 -141Q374 -141 368 -143Q369 -153 382 -159Q397 -166 400 -171L399 -172Q399 -175 396 -175Q393 -175 392 -177Q394 -182 394 -191Q390 -207 377 -222Q381 -221 387 -221Q413 -226 432 -232Q444 -232 454 -223L471 -231Q479 -229 481 -220Q483 -211 487 -206Q492 -208 496 -211L499 -210Q494 -201 494 -192Q497 -179 499 -166L500 -161V-160Q549 -173 561 -175Q568 -218 565 -262Q566 -315 536 -322Q539 -329 553 -341Q566 -352 571 -361Q586 -375 617 -384Q614 -387 612 -392Q600 -392 557 -381Q511 -369 510 -364Q430 -360 382 -294Q309 -181 244 -55Q236 -38 229 -21Q221 -4 219 19Q207 22 189 37Q167 55 151 55Q147 55 137 53Q124 37 111 14Q98 2 91 -10Q90 -14 90 -23Q91 -36 91 -49Q91 -65 84 -72L86 -74Q87 -73 89 -69Q91 -65 95 -64H96Q84 -114 63 -153Q75 -147 85 -126Q97 -99 102 -93Q97 -113 81 -150Q62 -194 57 -216Q70 -199 87 -164Q104 -129 112 -118Q97 -154 84 -191Q90 -189 97 -172Q114 -137 144 -110Q158 -123 190 -161Q223 -200 245 -219V-216Q241 -202 227 -190Q206 -163 206 -146Q206 -139 207 -135Q232 -149 249 -174Q265 -200 282 -226Q314 -272 328 -307Q321 -310 321 -311Q311 -307 300 -290Q289 -274 281 -269Q295 -314 320 -347Q347 -381 352 -437Q330 -425 311 -410Q291 -395 270 -394Q265 -394 253 -398Q234 -407 226 -437Q198 -451 194 -487Q194 -501 199 -511Q193 -520 190 -533L193 -534Q198 -530 207 -526Q209 -530 209 -533Q209 -540 201 -552Q193 -564 192 -569H193Q197 -569 206 -560Q216 -550 222 -550L225 -551Q219 -565 197 -582Q178 -596 173 -605Q186 -601 205 -587Q226 -571 240 -571H245Q249 -571 259 -577Q268 -582 273 -583Q284 -579 294 -575H298Q313 -577 328 -579Q337 -579 341 -574Q338 -568 325 -564Q312 -560 310 -555Q313 -547 319 -544Q367 -549 408 -561Q431 -566 453 -571Q475 -576 492 -590Q487 -596 474 -596Q462 -596 444 -592Q416 -587 401 -578Q395 -581 386 -583Q404 -598 450 -604Q483 -608 497 -614Q497 -675 456 -675Q450 -675 447 -674Q440 -673 434 -665Q426 -656 417 -654Q420 -667 437 -685Q449 -698 454 -707Q460 -718 472 -744Q476 -753 482 -766Q488 -779 495 -783Q510 -785 524 -788Q538 -794 549 -800Q560 -806 571 -807H575Q607 -807 626 -791Q638 -776 645 -759Q652 -749 659 -740Q666 -730 667 -720V-718Q667 -706 657 -694Q645 -680 645 -665V-658Q698 -665 716 -674Q727 -683 740 -688Q786 -692 803 -706V-704Q804 -699 805 -694V-692Q813 -690 815 -690Q827 -690 838 -711Q849 -731 860 -733Q860 -726 852 -710Q844 -693 844 -684Q844 -675 852 -668Q856 -671 862 -681Q868 -691 873 -694V-693Q873 -687 869 -678Q864 -667 864 -661V-656Q872 -634 900 -631V-630Q897 -624 894 -619Q893 -617 893 -612Q893 -605 898 -588Q904 -568 904 -556Q904 -551 903 -547Q894 -539 882 -538Q871 -537 860 -533Q851 -528 843 -520Q836 -513 825 -512H824V-516Q824 -525 830 -530Q835 -535 839 -541Q832 -546 825 -546Q814 -546 802 -537Q791 -529 786 -520Q780 -520 772 -524Q755 -515 744 -497Q733 -479 721 -463Q711 -452 700 -439Q689 -426 688 -411Q688 -404 691 -398Q708 -408 730 -438Q747 -462 758 -470Q762 -470 766 -466Q770 -467 776 -474Q783 -482 788 -482Q791 -482 793 -481Q793 -472 787 -467Q781 -461 775 -455Q767 -446 753 -430Q749 -424 740 -405Q728 -379 719 -371Q711 -365 692 -361Q676 -358 670 -355Z"/>
</svg>