<svg xmlns="http://www.w3.org/2000/svg" viewBox="0 -800 1024 1024">
	<path fill="#000000" d="M268 -601H265Q269 -619 284 -619V-616Q284 -601 268 -601ZM745 -154H743Q733 -157 731 -171Q731 -179 738 -179H740Q744 -162 745 -154ZM138 61Q136 69 131 74Q126 78 123 84Q119 80 119 74Q119 68 122 64Q126 59 131 59Q136 59 138 61ZM776 -698Q773 -694 746 -682Q743 -686 743 -689Q743 -701 763 -701Q770 -701 776 -698ZM693 -62Q683 -72 667 -72Q653 -72 649 -62Q644 -64 628 -76Q615 -70 601 -67Q601 -69 605 -71Q609 -73 609 -76Q609 -84 604 -88Q599 -92 593 -95Q576 -122 560 -149Q562 -157 562 -169Q562 -182 561 -190Q569 -204 582 -213Q596 -222 609 -233Q622 -228 639 -210Q655 -193 666 -188Q675 -190 685 -200Q694 -208 699 -211Q688 -202 688 -183Q688 -167 699 -162Q698 -160 698 -155Q702 -142 708 -131Q692 -86 692 -73Q692 -66 693 -62ZM942 -157V-149Q934 -118 904 -114Q892 -114 884 -122Q897 -123 908 -131Q919 -139 919 -149Q919 -156 911 -164H909Q900 -164 894 -158Q889 -153 883 -148Q874 -155 865 -155Q861 -155 858 -152V-149Q861 -140 864 -131Q840 -139 827 -139Q817 -139 811 -137Q815 -144 819 -151Q812 -164 794 -181Q768 -205 767 -226V-227Q772 -245 776 -263Q776 -270 772 -277Q775 -276 780 -276Q800 -280 819 -290Q825 -280 832 -280Q839 -280 858 -297Q860 -295 860 -293Q860 -289 859 -285Q859 -282 861 -280Q870 -282 885 -294Q902 -308 918 -308Q897 -297 893 -272Q893 -257 912 -254Q915 -255 919 -261Q923 -268 929 -268L931 -266Q931 -264 927 -261Q922 -256 921 -253V-250Q921 -239 930 -230Q934 -234 936 -234L940 -233Q937 -227 937 -214Q940 -185 942 -157ZM290 -122V-121Q289 -119 287 -118Q305 -100 326 -81Q346 -63 360 -37Q364 -27 364 -13Q365 1 373 11Q368 23 359 31Q351 40 350 56Q322 63 298 63Q283 63 275 62Q264 61 249 55Q231 48 223 48Q215 48 210 50L208 48Q213 43 218 37Q211 30 199 30Q175 30 147 55Q150 43 162 35Q173 27 182 19Q165 -12 141 -12Q132 -12 124 -8Q134 -19 147 -29Q134 -40 96 -40Q88 -40 46 -37Q54 -45 74 -47Q105 -56 138 -56H145Q145 -72 121 -74Q139 -77 152 -86Q164 -95 177 -104Q176 -111 171 -121Q165 -131 165 -137Q185 -128 197 -128Q209 -128 218 -136Q211 -151 209 -170V-176Q215 -163 222 -151Q229 -139 242 -133Q250 -139 258 -145Q260 -133 270 -129Q279 -124 290 -122ZM864 -38H877Q882 -29 887 -16Q888 -12 888 -9Q887 6 885 20Q885 28 887 31Q882 42 875 61Q861 61 859 71Q846 72 824 78Q799 85 782 85Q784 78 792 76Q799 74 805 70Q802 60 779 60Q770 60 758 62Q731 66 729 80Q731 84 743 85Q756 86 757 93Q727 99 696 99Q644 99 545 77Q545 71 553 71Q558 71 566 73Q613 82 668 85Q694 85 710 80Q706 72 698 72Q691 73 684 73Q661 70 637 67Q565 61 543 49Q529 37 507 33H505Q504 35 504 38Q504 43 511 48Q519 54 519 60V61Q445 47 410 -59V-61Q412 -62 413 -64Q403 -77 403 -110Q403 -128 407 -148Q411 -148 414 -142Q416 -137 419 -137Q422 -138 421 -141Q421 -145 423 -145H424Q447 -140 463 -126Q478 -112 491 -94Q512 -60 546 -41L550 -42Q562 -39 572 -32Q655 -24 671 -24Q701 -24 721 -29Q725 -32 730 -43Q736 -41 741 -39Q744 -39 746 -40Q747 -43 747 -49Q747 -63 733 -86Q722 -103 720 -115Q725 -111 734 -97Q742 -84 749 -79Q723 -126 696 -184Q715 -163 742 -124Q771 -81 784 -67Q781 -73 767 -97Q750 -126 743 -145Q756 -137 771 -115Q783 -98 788 -93Q795 -86 809 -78Q824 -69 829 -64Q837 -55 845 -48Q852 -40 864 -38ZM718 -300H713Q687 -302 661 -304H655Q658 -313 677 -318Q694 -322 698 -328Q694 -336 670 -336Q659 -335 647 -335Q586 -333 572 -319Q575 -311 594 -311H616Q629 -311 634 -307Q625 -297 604 -297H597Q588 -297 584 -296Q555 -288 552 -258Q550 -227 549 -187Q530 -172 498 -167H495Q488 -167 474 -176Q454 -188 444 -188H443Q432 -222 415 -230V-231Q417 -234 419 -237Q409 -243 401 -244Q423 -264 436 -302Q444 -324 455 -377Q466 -373 466 -352Q466 -340 465 -329Q464 -314 462 -300Q462 -291 465 -286Q491 -317 491 -403Q491 -424 490 -433Q488 -452 481 -458Q474 -455 471 -436Q468 -416 459 -412Q446 -474 443 -482Q427 -480 415 -474Q403 -468 390 -463Q371 -468 339 -491Q306 -461 269 -383Q266 -384 260 -384Q248 -383 236 -382H231Q224 -383 214 -388Q200 -395 193 -395Q187 -395 178 -392L177 -394Q179 -397 181 -400Q171 -408 157 -408Q150 -408 138 -404Q138 -407 147 -421Q137 -432 123 -432Q108 -432 95 -421Q100 -431 108 -436Q117 -442 124 -449H117Q99 -448 88 -441Q78 -433 67 -424Q80 -448 107 -466Q133 -483 156 -500Q198 -532 228 -567Q233 -568 238 -573Q246 -580 253 -580H255Q249 -567 223 -543Q197 -518 188 -500Q225 -512 272 -567Q282 -579 305 -610Q326 -632 332 -658Q322 -657 312 -646Q302 -635 291 -635H290Q309 -679 309 -691Q309 -711 289 -718V-723Q287 -741 277 -754H283Q313 -754 356 -777Q386 -793 404 -797Q416 -782 435 -769Q455 -756 463 -737Q464 -735 464 -728Q464 -722 465 -718Q470 -701 475 -685V-684Q475 -668 466 -658Q458 -648 447 -640Q425 -627 416 -604Q494 -621 572 -638Q563 -623 520 -614Q477 -605 466 -590Q471 -585 480 -585Q504 -589 532 -599Q569 -608 611 -617Q652 -627 687 -644Q681 -649 670 -649Q651 -646 631 -644Q627 -644 621 -646Q624 -654 639 -659Q647 -662 669 -667Q703 -676 733 -677Q730 -671 726 -665Q731 -658 739 -658Q757 -662 775 -666Q779 -666 785 -664Q769 -659 758 -650Q790 -657 826 -658Q813 -652 795 -647Q777 -642 769 -626Q771 -619 780 -619Q792 -621 804 -623Q787 -615 781 -597Q781 -589 793 -586Q783 -578 774 -569Q765 -561 763 -545Q667 -544 549 -505Q552 -494 567 -481Q621 -501 687 -508Q684 -505 672 -503V-491Q674 -488 678 -488Q685 -489 692 -490H696L698 -489Q695 -484 692 -479Q697 -476 697 -472Q697 -466 696 -460Q696 -458 698 -452Q691 -445 683 -439Q675 -433 674 -421Q667 -422 652 -422Q601 -418 558 -406Q555 -401 555 -383Q577 -391 615 -396Q646 -400 658 -404Q667 -408 675 -412H677Q688 -409 699 -407Q707 -407 723 -413Q738 -418 748 -419Q740 -416 732 -411Q724 -407 721 -398Q724 -394 729 -394Q739 -395 748 -397Q743 -389 737 -382Q740 -369 751 -366Q743 -350 737 -331Q731 -312 718 -300Z"/>
</svg>