<svg xmlns="http://www.w3.org/2000/svg" viewBox="0 -800 1024 1024">
	<path fill="#000000" d="M257 -717H248Q246 -723 246 -726Q246 -740 256 -740Q257 -740 261 -738V-735Q259 -726 257 -717ZM898 -648Q894 -642 890 -635Q886 -628 877 -627Q876 -629 876 -633Q877 -648 892 -649Q896 -649 898 -648ZM818 -316H821Q823 -304 823 -295Q823 -284 821 -279Q812 -289 808 -308Q808 -316 818 -316ZM732 -279H714Q683 -279 683 -260V-258Q667 -283 640 -292V-295Q637 -307 634 -319Q629 -326 620 -330Q617 -342 611 -352Q607 -374 607 -382Q607 -426 643 -464H647Q675 -463 689 -446Q702 -430 714 -413Q728 -425 741 -438L742 -434Q742 -430 736 -423Q729 -415 728 -410Q725 -401 725 -392Q725 -385 726 -381H728Q730 -381 732 -385Q736 -392 740 -392H741Q738 -384 738 -377Q742 -350 746 -324V-322Q746 -313 739 -299Q733 -288 732 -279ZM128 -327V-333Q128 -376 101 -387Q105 -389 106 -389Q113 -386 119 -384Q124 -386 124 -391Q123 -396 122 -401Q150 -415 185 -415Q197 -415 204 -414Q241 -412 248 -408Q255 -405 270 -390Q285 -376 291 -372Q293 -343 294 -314Q294 -266 264 -260Q237 -269 204 -274Q186 -274 178 -261Q178 -281 156 -286Q146 -311 128 -327ZM476 -174V-134Q476 -118 475 -112Q471 -100 456 -86Q439 -70 422 -70Q417 -70 415 -71Q411 -66 411 -59Q405 -64 402 -74Q395 -80 387 -85Q379 -90 378 -101V-103Q385 -101 390 -97Q394 -92 400 -88Q404 -89 412 -100Q392 -143 362 -165Q356 -159 356 -152Q356 -147 364 -134Q371 -122 372 -115Q356 -117 344 -142Q333 -165 333 -191Q333 -201 334 -206Q341 -215 347 -225Q358 -245 372 -260Q378 -285 398 -325Q423 -376 428 -408Q433 -405 433 -394V-378Q435 -376 438 -376Q443 -377 448 -378Q455 -371 464 -366Q478 -307 478 -230Q478 -210 476 -174ZM904 -346V-344Q898 -344 896 -356Q894 -367 888 -369Q848 -369 840 -381Q843 -383 850 -383Q860 -382 870 -382Q880 -382 885 -388Q876 -404 860 -412Q844 -421 830 -433Q822 -441 813 -450Q805 -458 793 -461Q791 -453 791 -450Q792 -434 804 -422Q816 -411 823 -398H808Q795 -414 779 -441Q757 -477 746 -490Q748 -494 748 -495Q748 -497 743 -498Q744 -503 744 -512Q744 -526 743 -540V-546Q745 -555 747 -564Q747 -574 739 -590Q730 -608 730 -618Q730 -622 732 -630Q738 -622 745 -608Q756 -587 763 -580Q769 -584 775 -588V-611Q779 -609 782 -605Q786 -599 790 -599Q798 -605 807 -605Q822 -605 839 -592Q847 -598 855 -605Q862 -613 874 -615Q865 -603 865 -590Q865 -571 883 -564Q890 -566 897 -568Q901 -568 902 -567V-564Q900 -560 898 -556V-555Q898 -549 907 -542Q915 -544 927 -553Q943 -565 953 -565H956Q948 -556 938 -546Q927 -537 926 -524Q926 -515 931 -508H932Q936 -509 940 -510Q943 -510 945 -508Q938 -494 938 -486Q938 -474 948 -468Q954 -474 963 -474Q967 -474 970 -471Q961 -463 951 -454Q941 -446 940 -432Q940 -426 941 -423Q931 -404 918 -388Q905 -373 904 -346ZM183 70H177Q165 69 156 63Q147 57 135 53Q117 52 101 45Q82 33 80 17V13Q81 5 82 -3V-5Q81 -10 75 -23Q69 -35 69 -43Q69 -50 73 -57Q84 -68 95 -79Q99 -85 102 -101Q106 -123 116 -131Q115 -127 115 -120Q115 -102 125 -88Q153 -98 175 -117Q197 -137 219 -156Q241 -175 264 -195Q287 -214 314 -225V-224Q314 -222 306 -216Q301 -212 298 -209Q287 -198 287 -191Q287 -189 289 -183H291Q294 -183 299 -189Q305 -197 311 -197Q300 -182 300 -171Q300 -161 311 -157Q310 -153 310 -143Q310 -131 313 -125Q321 -130 330 -133L334 -132Q333 -131 320 -116Q311 -106 311 -97V-93Q300 -82 290 -70Q280 -58 264 -51Q265 -66 282 -82Q296 -95 298 -106H293Q278 -106 265 -95Q263 -93 243 -72Q219 -48 210 -27Q213 -23 216 -19Q219 -20 225 -25Q232 -31 238 -31Q243 -31 245 -30V-29Q245 -20 235 -14Q226 -9 224 -5Q217 4 214 24Q210 50 202 58Q200 58 197 57Q186 60 183 70ZM332 -540V-534Q331 -516 324 -500Q316 -485 311 -470Q297 -463 282 -463Q256 -464 233 -478Q210 -492 189 -504Q173 -502 162 -494Q150 -486 140 -482V-484Q140 -491 152 -501Q161 -509 163 -514Q151 -535 138 -542Q127 -540 124 -537L122 -541Q122 -543 126 -547Q131 -552 131 -555Q125 -561 119 -561Q112 -561 99 -550Q86 -539 78 -537Q87 -550 99 -561Q111 -572 112 -588Q110 -590 108 -590Q102 -588 96 -587Q94 -587 92 -589L91 -591Q92 -595 99 -598Q105 -601 109 -603Q109 -608 104 -613Q98 -619 97 -624Q96 -626 96 -630Q97 -639 98 -648V-652Q96 -661 86 -670Q76 -679 76 -685V-686Q83 -684 92 -678Q104 -670 109 -670Q114 -670 121 -675Q119 -699 116 -723V-732Q122 -720 127 -707Q131 -694 141 -686Q145 -687 153 -687Q167 -687 189 -676Q211 -665 227 -665Q232 -670 236 -684Q241 -702 248 -706Q249 -704 249 -699Q248 -685 246 -672V-668Q254 -650 270 -649H273Q278 -650 280 -655Q283 -660 289 -661V-658Q289 -638 304 -628V-612Q314 -598 320 -574Q326 -557 332 -540ZM731 4V5Q731 16 744 19Q761 23 764 27Q763 35 745 35Q731 35 716 30Q704 24 692 17Q683 15 673 13Q665 8 657 3Q648 0 639 -3Q631 -11 622 -19Q585 -48 571 -69Q552 -100 552 -112V-115Q563 -109 570 -96Q576 -83 584 -72Q600 -54 622 -36Q670 6 713 6H720Q714 -12 695 -20Q677 -29 661 -37Q614 -67 577 -126Q570 -136 563 -147Q559 -157 556 -169Q553 -180 540 -184Q538 -180 538 -177Q540 -167 542 -157Q542 -154 541 -151Q530 -156 527 -171Q525 -185 519 -197Q521 -202 522 -207Q503 -287 492 -374Q481 -461 442 -520Q446 -530 446 -537Q446 -546 439 -549Q454 -587 466 -599Q486 -619 518 -619Q536 -619 546 -609Q552 -600 557 -591Q569 -582 581 -573Q585 -567 588 -555Q592 -537 599 -531Q600 -527 600 -519Q600 -502 591 -473Q583 -446 581 -432Q578 -402 578 -373Q578 -369 581 -336Q581 -329 585 -325Q583 -324 581 -320V-319Q586 -290 591 -263Q595 -237 605 -214Q623 -184 642 -159Q650 -159 665 -149Q675 -142 682 -140Q701 -137 720 -134Q726 -131 732 -129H739Q751 -129 770 -134Q792 -140 800 -140Q807 -153 807 -169Q805 -196 802 -224Q802 -233 803 -237Q808 -224 812 -209Q816 -194 827 -186Q823 -205 807 -248Q790 -294 785 -327Q803 -289 820 -250Q837 -211 858 -175Q854 -191 841 -220Q825 -255 821 -273Q843 -256 852 -231Q881 -171 920 -115Q934 -98 935 -96Q937 -91 937 -82Q937 -71 936 -60Q936 -51 939 -45Q934 -38 934 -26Q934 -14 932 -9Q916 14 892 33Q880 39 861 39Q849 39 837 38Q821 40 805 41Q789 41 784 29Q790 27 798 27Q805 26 808 21Q793 0 758 0Q742 0 731 4Z"/>
</svg>