<svg xmlns="http://www.w3.org/2000/svg" viewBox="0 -800 1024 1024">
	<path fill="#000000" d="M693 -25H695Q710 -23 712 -11L711 -7Q705 -8 690 -15Q693 -21 693 -25ZM157 -610H154Q150 -610 142 -614Q140 -622 140 -626Q140 -630 141 -632Q153 -631 157 -610ZM813 -304V-306Q815 -313 819 -319Q816 -332 808 -340Q768 -328 754 -320Q727 -304 724 -274Q739 -277 762 -288Q793 -303 813 -304ZM819 -421V-436Q822 -486 825 -537Q825 -546 823 -556Q807 -523 789 -489Q770 -455 764 -415Q774 -418 788 -433Q800 -446 807 -448V-442Q807 -425 819 -421ZM674 -47H677Q692 -47 718 -35Q746 -22 763 -22Q771 -22 776 -23Q771 -30 750 -41Q734 -49 729 -53Q733 -53 737 -54Q754 -52 771 -51Q784 -51 794 -56Q802 -137 810 -218Q744 -201 716 -173Q707 -164 707 -141Q708 -123 708 -106Q708 -84 704 -74Q685 -65 668 -53Q664 -57 658 -57Q656 -57 646 -55Q633 -62 625 -77Q618 -92 610 -110Q604 -118 597 -127Q591 -151 590 -185V-198Q590 -231 606 -232V-228Q604 -210 602 -193Q602 -179 613 -176Q646 -288 646 -350V-359Q636 -355 631 -342Q629 -335 627 -315Q624 -276 612 -269Q614 -320 622 -335V-338Q623 -379 635 -413Q647 -447 655 -482H656Q660 -482 661 -475Q662 -468 664 -467Q668 -475 674 -475Q681 -463 687 -452Q713 -496 733 -547Q744 -572 753 -597Q762 -623 782 -640Q779 -626 769 -602Q755 -570 755 -551Q769 -562 775 -578Q781 -593 787 -608Q795 -622 803 -637Q812 -652 813 -670Q809 -676 805 -676Q802 -676 794 -669Q788 -663 785 -664V-666Q789 -690 799 -716Q799 -730 803 -743Q820 -774 858 -779Q864 -779 868 -778Q873 -776 880 -767Q888 -756 893 -754L912 -748Q919 -751 925 -754H927Q924 -747 921 -741Q922 -739 923 -737Q929 -738 940 -749Q947 -756 951 -757Q950 -752 945 -743Q938 -731 938 -727Q938 -722 943 -718L945 -717Q954 -722 962 -727H964L965 -723Q962 -716 955 -710V-708Q955 -696 961 -674Q967 -652 967 -641Q967 -630 963 -619Q919 -603 914 -517Q913 -502 906 -466Q900 -434 899 -416Q900 -408 901 -401Q901 -395 897 -392Q894 -393 891 -400Q888 -408 884 -409Q875 -400 875 -380Q875 -366 883 -362Q887 -364 890 -371Q893 -377 896 -380Q903 -372 903 -352Q903 -343 902 -335Q902 -321 901 -308Q901 -294 903 -272Q900 -266 900 -257Q901 -248 901 -239Q901 -227 897 -220Q888 -247 888 -293Q889 -305 889 -317Q890 -327 891 -338Q891 -346 886 -349Q871 -330 871 -266V-239Q871 -95 899 -52Q903 -59 903 -68Q900 -92 897 -116Q897 -127 896 -138Q896 -152 899 -163Q908 -149 911 -106Q914 -62 923 -49Q919 -44 919 -36Q919 -29 930 -4Q916 24 903 52Q889 80 871 103Q854 96 845 96Q838 96 829 99Q819 95 809 77Q799 59 787 56Q785 37 782 26Q776 15 751 6Q729 -1 726 -8Q741 -7 759 0Q777 7 788 8Q772 -8 724 -25Q689 -37 674 -47ZM558 -121V-118Q544 -106 529 -95Q516 -106 505 -109H503Q500 -109 498 -105Q497 -102 495 -102L493 -103Q492 -113 484 -125Q477 -135 475 -142Q460 -138 445 -137Q431 -136 422 -127Q416 -119 414 -98Q412 -74 404 -65Q403 -67 403 -73V-87Q403 -96 400 -98Q368 -37 368 -6Q368 10 375 23Q385 14 387 -4Q389 -22 393 -38Q400 -32 400 -14Q399 3 397 19Q395 35 388 48Q382 60 378 71Q359 74 339 77Q308 36 252 14Q256 12 260 12Q278 15 296 17H298Q291 1 272 -3Q254 -7 236 -13Q223 -22 209 -31Q198 -35 188 -39Q177 -42 171 -50H175Q190 -50 226 -34Q261 -19 275 -16H280Q305 -19 313 -47Q322 -77 336 -97Q318 -95 297 -76Q274 -55 253 -55H248Q243 -58 237 -67Q230 -78 222 -80Q219 -100 204 -109Q207 -112 209 -115Q205 -125 191 -128Q201 -140 201 -162Q201 -176 200 -191Q211 -199 223 -207Q234 -214 239 -229L252 -235Q255 -247 267 -253Q278 -259 293 -259Q306 -259 315 -253Q324 -247 324 -235Q324 -229 319 -217Q357 -230 372 -232Q387 -282 388 -308H385Q370 -308 337 -294Q311 -283 295 -280Q309 -295 348 -309Q378 -320 393 -331Q390 -333 382 -333Q375 -333 323 -320Q281 -308 221 -277Q189 -262 185 -259Q167 -247 166 -230Q181 -230 203 -243Q226 -257 239 -257H240Q233 -245 207 -231Q184 -219 175 -208Q169 -200 164 -192Q159 -184 148 -181Q144 -190 129 -193Q120 -195 101 -195Q62 -195 58 -212Q58 -232 54 -245Q52 -251 43 -260Q35 -268 33 -275Q30 -282 30 -296Q30 -312 34 -322Q43 -331 52 -338Q59 -350 65 -362Q74 -371 82 -380Q90 -389 96 -400Q103 -410 113 -416V-415Q110 -403 107 -392Q107 -383 116 -380Q134 -388 170 -397Q205 -406 215 -410Q184 -455 149 -455Q135 -455 117 -446V-448Q118 -452 124 -455Q130 -458 136 -461Q151 -467 160 -475Q160 -489 147 -494Q146 -494 122 -500Q126 -505 139 -509Q151 -512 154 -515Q155 -519 155 -523Q154 -545 136 -556Q118 -567 102 -577H103Q112 -577 130 -571Q151 -564 159 -564Q172 -564 180 -575Q180 -583 171 -592Q164 -599 163 -607Q168 -606 174 -601Q181 -595 187 -595Q188 -596 191 -610Q199 -606 204 -602Q218 -606 222 -609Q230 -614 231 -623Q234 -623 239 -616Q244 -609 248 -608H252Q262 -609 272 -610H274Q292 -606 302 -593Q312 -579 325 -568Q328 -568 330 -574Q333 -580 338 -580H339Q339 -575 338 -571Q338 -553 352 -521Q367 -486 367 -463V-461Q384 -463 400 -466Q411 -483 420 -502Q430 -520 443 -535Q453 -571 471 -578V-577Q471 -566 458 -547Q446 -529 446 -518Q446 -515 448 -509Q463 -524 480 -551Q496 -579 510 -602Q521 -617 532 -632Q546 -648 548 -658V-660Q548 -676 535 -676Q522 -676 513 -651Q505 -628 496 -625Q496 -627 495 -630Q495 -644 510 -659Q473 -701 473 -727Q473 -744 487 -757Q494 -758 504 -765Q516 -773 526 -773Q567 -778 610 -790Q618 -787 625 -787H629Q636 -781 645 -766Q658 -746 667 -740L666 -736Q666 -730 675 -721Q684 -684 690 -677Q690 -670 698 -617Q691 -600 683 -584Q620 -577 569 -517Q573 -515 574 -515Q580 -517 584 -524H588Q599 -526 609 -529Q609 -522 615 -514Q634 -518 652 -523Q651 -519 644 -515Q636 -510 636 -506Q636 -504 638 -500L640 -498Q644 -499 647 -501L649 -500Q649 -497 644 -489Q637 -477 637 -469Q637 -464 638 -461Q624 -451 624 -424V-423Q624 -420 628 -418Q632 -416 632 -413Q609 -406 609 -385Q609 -378 612 -371Q538 -363 451 -328Q455 -315 461 -303Q467 -290 468 -277Q468 -264 462 -254H467Q472 -254 476 -255L480 -254Q484 -278 487 -302Q487 -315 480 -322Q483 -322 488 -323Q492 -323 493 -329Q493 -332 492 -334Q507 -332 522 -330Q531 -330 535 -332V-329Q536 -319 544 -315Q551 -312 558 -307Q564 -286 573 -262Q583 -239 584 -217Q584 -196 569 -181Q568 -170 564 -154Q558 -133 558 -121Z"/>
</svg>