<svg xmlns="http://www.w3.org/2000/svg" viewBox="0 -800 1024 1024">
	<path fill="#000000" d="M863 -329Q867 -344 874 -347Q877 -345 877 -342Q874 -332 863 -329ZM691 -747H689Q681 -745 672 -743H670V-750Q679 -752 688 -755V-754Q690 -751 691 -748ZM620 -356H615Q603 -356 599 -363Q600 -370 608 -370Q619 -369 620 -358ZM394 -309H393Q383 -309 383 -322Q383 -336 393 -336H396V-328Q396 -319 394 -309ZM276 -227H274Q255 -227 238 -206V-195Q241 -166 244 -137Q247 -137 252 -140Q263 -146 269 -146Q274 -181 276 -227ZM285 -338Q284 -343 284 -352Q287 -383 290 -414Q290 -424 287 -433Q235 -404 235 -336Q235 -320 236 -312Q261 -325 285 -338ZM715 -577H713Q689 -570 647 -543Q654 -519 657 -492Q657 -480 651 -471Q647 -472 642 -474Q630 -460 618 -447Q606 -433 598 -414Q602 -413 609 -413Q628 -415 647 -417Q694 -495 716 -576ZM741 -145V-147Q625 -144 550 -102Q552 -78 555 -72H565Q581 -72 615 -80Q649 -88 667 -88Q686 -88 703 -81Q718 -107 733 -134Q737 -139 741 -145ZM756 98H755Q751 97 746 95Q737 97 728 98H727Q719 96 714 89Q709 81 701 74Q693 69 685 63Q684 59 683 54Q682 52 674 44Q668 38 668 31V29Q654 27 647 27Q619 27 573 45Q565 48 550 61Q531 78 520 78Q509 78 498 67Q492 61 481 41Q471 23 462 14Q454 -17 437 -46Q420 -74 406 -100Q393 -117 388 -135V-141Q388 -158 403 -185Q418 -212 418 -231Q418 -239 415 -250Q421 -247 425 -232Q428 -220 432 -216Q436 -220 436 -224L435 -228Q439 -227 442 -222Q446 -216 448 -215Q451 -218 457 -218Q466 -217 475 -216Q487 -218 498 -221H501Q507 -220 518 -212Q531 -203 541 -203Q559 -206 578 -213Q653 -234 691 -237Q681 -228 660 -222Q648 -219 622 -214Q572 -205 561 -184Q566 -180 574 -180Q591 -183 608 -187Q630 -192 654 -200Q685 -208 716 -214Q747 -219 769 -234Q768 -240 760 -240Q751 -239 742 -238Q738 -238 734 -240Q743 -252 760 -255Q777 -257 796 -258Q804 -269 812 -281Q831 -283 840 -296Q848 -309 858 -319Q861 -317 861 -314Q859 -305 857 -296Q862 -289 878 -284Q896 -279 901 -270Q905 -271 910 -276Q916 -282 921 -282Q925 -282 927 -281Q926 -275 920 -271Q915 -268 915 -266V-264H917Q920 -264 926 -268Q936 -275 943 -275H944V-273Q944 -269 936 -262Q924 -251 924 -243Q924 -239 925 -237L928 -236Q933 -238 938 -240Q937 -236 937 -229Q937 -215 947 -186Q955 -162 955 -150Q955 -137 948 -127Q920 -126 902 -110Q891 -100 876 -72Q874 -73 871 -73H867L863 -74Q865 -83 878 -101Q889 -115 892 -124Q892 -128 889 -130Q886 -132 886 -134Q864 -130 851 -99H850Q847 -99 846 -104Q845 -107 842 -108Q823 -100 814 -81Q805 -62 795 -42Q785 -24 776 -10Q767 5 766 27V32Q778 26 795 -5Q805 -27 820 -45Q826 -40 827 -31Q834 -39 845 -42H848Q813 25 777 91L773 90Q765 94 756 98ZM659 -322V-327Q658 -342 646 -346Q635 -350 626 -356H629Q636 -356 642 -357H645V-361Q645 -375 638 -382Q613 -385 589 -392Q591 -395 600 -395Q613 -394 625 -394Q635 -394 638 -396Q627 -404 603 -404Q597 -404 589 -402Q581 -399 575 -384Q569 -370 564 -357Q553 -334 541 -312Q535 -297 532 -284Q528 -270 521 -260Q514 -257 506 -257Q479 -257 467 -290H465Q461 -289 456 -288H454L453 -291Q457 -298 460 -306V-308Q460 -317 453 -336Q446 -355 446 -365Q446 -377 453 -385Q452 -396 443 -413Q434 -430 433 -444Q437 -441 450 -423Q459 -410 471 -410H472Q484 -411 509 -449Q525 -472 531 -476H527Q514 -478 503 -485Q495 -501 487 -517Q481 -526 473 -533Q466 -541 463 -551Q463 -554 462 -558Q466 -580 469 -603Q465 -616 460 -630V-636Q460 -656 469 -669Q475 -678 491 -690Q500 -699 507 -711Q514 -723 527 -728L528 -724Q524 -712 516 -701Q520 -699 528 -699Q542 -700 557 -708Q572 -716 586 -723Q597 -726 608 -729Q626 -737 628 -737Q635 -737 641 -732Q619 -716 588 -708Q558 -699 543 -675Q546 -665 557 -665Q567 -665 603 -683L647 -706Q673 -718 696 -727Q719 -737 734 -752Q731 -755 721 -755H701Q703 -767 712 -770Q722 -774 731 -777Q743 -782 754 -790Q765 -798 778 -799Q783 -799 786 -798Q809 -793 844 -750Q850 -752 855 -755Q857 -755 861 -753Q857 -749 857 -740Q857 -734 860 -731Q869 -732 879 -742Q889 -752 898 -753V-752Q897 -747 888 -738Q879 -730 878 -718Q878 -711 882 -706Q893 -714 903 -723Q898 -712 898 -695Q898 -677 907 -645Q918 -608 918 -591Q909 -584 903 -574Q897 -565 882 -564Q859 -551 842 -517Q838 -509 817 -455Q813 -463 813 -472Q813 -485 829 -519Q836 -532 844 -544Q852 -555 853 -568Q853 -571 852 -574Q829 -566 818 -542Q806 -518 795 -489Q784 -465 776 -445Q768 -426 768 -395Q768 -376 774 -370Q782 -376 787 -395Q793 -417 802 -422Q800 -385 795 -357Q793 -343 784 -331Q774 -318 769 -307Q764 -292 758 -279Q751 -265 735 -264Q732 -264 724 -266Q708 -271 684 -298Q667 -317 659 -322ZM340 30H335Q308 28 292 8Q276 -13 262 -30Q245 -26 227 -2Q210 22 194 26Q187 21 168 18Q153 -6 138 -30Q139 -52 140 -75V-83Q139 -101 131 -137Q123 -174 123 -192V-198Q132 -191 135 -176Q138 -161 140 -146Q148 -107 158 -97Q163 -108 163 -124Q158 -165 146 -210Q143 -235 139 -257Q135 -279 120 -290Q113 -288 109 -284Q113 -264 117 -244Q104 -250 101 -266Q97 -281 91 -294Q64 -319 60 -325Q44 -346 44 -372V-373L46 -375H51Q53 -398 55 -418Q57 -438 69 -453Q53 -487 53 -505Q60 -503 67 -490Q73 -479 79 -476Q80 -478 80 -481Q77 -495 69 -511Q63 -531 57 -551Q63 -548 76 -528Q84 -514 91 -501V-504Q88 -516 84 -528V-531H86Q89 -531 95 -520Q102 -507 108 -505Q120 -513 135 -513Q169 -509 202 -497Q223 -513 244 -530Q265 -546 291 -558Q313 -609 370 -613Q375 -612 380 -612L382 -611Q384 -611 386 -614Q389 -618 392 -618H395Q399 -618 401 -615Q402 -612 403 -609Q409 -616 415 -624Q420 -631 430 -633Q423 -618 420 -599V-594L422 -593Q426 -595 430 -598L433 -597Q431 -592 431 -581Q431 -567 441 -545Q451 -523 451 -511V-508Q448 -493 438 -480Q412 -424 399 -347Q393 -353 393 -362Q396 -380 398 -399Q398 -408 394 -413Q372 -398 368 -367Q364 -336 359 -294Q351 -238 347 -171Q347 -163 346 -156Q346 -143 356 -137Q364 -152 366 -195Q369 -255 385 -270Q386 -265 386 -261Q384 -233 377 -204Q367 -132 367 -60Q367 -35 368 -23Q369 -15 369 -7Q369 10 362 23Q349 27 340 30Z"/>
</svg>