<svg xmlns="http://www.w3.org/2000/svg" viewBox="0 -800 1024 1024">
	<path fill="#000000" d="M836 -213H844Q841 -222 829 -222H826Q830 -217 833 -212ZM681 -195V-194Q674 -196 673 -206L677 -205Q682 -206 686 -207H688V-205Q688 -202 684 -199Q681 -197 681 -195ZM782 -541V-543Q788 -543 794 -544Q797 -544 799 -543Q799 -534 785 -534Q784 -537 782 -541ZM845 -738Q838 -728 829 -728Q826 -728 824 -729Q826 -739 838 -741Q842 -741 845 -738ZM57 -623H68Q68 -619 72 -615Q64 -611 53 -609Q49 -614 47 -620V-621Q50 -623 57 -623ZM955 -448Q954 -438 947 -434Q940 -430 932 -426Q939 -450 948 -450Q949 -450 955 -448ZM578 -75V-92Q578 -112 571 -119Q565 -116 559 -114Q559 -109 558 -105Q561 -73 570 -48Q576 -49 582 -51Q578 -58 578 -75ZM643 -56H644Q645 -63 647 -87Q649 -116 654 -129H648L645 -131L644 -134Q645 -137 646 -141L645 -143Q643 -143 629 -137Q636 -108 636 -54H637Q640 -55 643 -56ZM684 -57H700Q728 -145 734 -159Q728 -161 724 -161Q711 -161 711 -150V-149Q715 -141 720 -134Q693 -118 684 -57ZM734 -203H705Q695 -203 691 -204Q695 -215 707 -217Q719 -219 729 -221Q753 -235 779 -244Q778 -252 769 -258Q761 -264 753 -264H750Q699 -253 641 -242Q583 -231 533 -213Q501 -202 498 -201Q479 -193 473 -180Q491 -170 513 -170Q533 -170 571 -181Q623 -197 664 -200Q647 -191 599 -178Q563 -168 543 -159Q651 -164 734 -203ZM179 -288V-291Q180 -297 184 -298Q189 -300 192 -303Q189 -311 181 -311Q165 -307 148 -304V-307Q149 -315 156 -317Q164 -320 169 -322Q181 -332 189 -350Q178 -371 152 -381Q155 -382 159 -382Q165 -382 178 -376Q188 -371 196 -370Q204 -381 224 -381H228Q235 -387 238 -396Q244 -393 246 -385Q274 -382 294 -366Q294 -353 309 -344Q319 -325 328 -306Q326 -303 326 -296Q326 -291 330 -279Q324 -268 320 -255Q320 -253 322 -247Q310 -242 293 -236Q277 -230 269 -216Q262 -219 247 -232Q224 -252 211 -252Q203 -252 195 -247L194 -251Q194 -258 201 -263Q198 -287 179 -288ZM232 -174L265 -188Q275 -193 284 -196Q288 -196 291 -192Q291 -186 281 -179Q269 -170 268 -165Q288 -176 307 -186Q325 -196 349 -200Q336 -191 313 -177Q291 -163 288 -146Q288 -136 300 -126Q298 -117 296 -109Q297 -106 303 -106Q309 -106 311 -103Q303 -97 294 -93Q287 -86 287 -68Q287 -66 290 -33Q257 -15 229 6Q213 22 204 43Q194 63 178 79Q151 77 126 61Q99 44 90 21Q83 7 83 -8Q83 -17 87 -20Q69 -42 69 -73Q69 -93 80 -103H89Q107 -143 114 -166Q118 -156 119 -144Q121 -133 130 -129H135Q148 -130 161 -131Q158 -123 141 -117Q124 -110 121 -102Q126 -93 134 -93Q147 -94 163 -105Q179 -116 189 -122Q226 -137 244 -153Q242 -154 237 -154Q228 -154 209 -146Q190 -138 179 -138H176Q188 -154 232 -174ZM308 -429H303Q297 -429 289 -423Q281 -417 273 -417Q268 -414 268 -409V-407Q263 -412 260 -419Q257 -425 247 -426Q252 -432 262 -432Q269 -431 276 -431Q279 -431 281 -432Q292 -436 297 -446Q301 -457 308 -466Q307 -468 305 -471Q296 -470 293 -461Q290 -452 285 -445Q272 -446 250 -458Q228 -470 215 -470Q206 -470 201 -468Q203 -458 223 -452Q241 -446 243 -436Q239 -434 234 -434Q222 -435 209 -437Q204 -437 202 -436Q192 -429 184 -426H182Q191 -439 195 -442Q180 -459 165 -476Q149 -493 131 -507Q122 -505 113 -503Q110 -503 108 -504V-505Q109 -513 115 -516Q121 -518 125 -523Q123 -533 109 -533Q99 -533 63 -520Q34 -508 16 -504Q18 -512 26 -514Q34 -517 41 -520Q73 -534 83 -540Q106 -553 118 -570Q111 -577 96 -577Q93 -577 72 -574Q86 -582 116 -591Q103 -607 86 -615V-620Q90 -624 103 -628Q122 -635 127 -643Q126 -648 119 -657Q111 -668 111 -674V-676Q118 -673 128 -661Q141 -645 154 -643Q169 -648 184 -654L186 -651Q186 -650 184 -646Q197 -634 218 -631Q239 -628 259 -623Q264 -627 270 -627Q280 -626 288 -616Q295 -606 303 -600Q303 -583 317 -580L316 -576Q318 -569 325 -565L324 -563H320L318 -562L319 -560Q321 -557 323 -557Q328 -558 333 -560Q336 -560 339 -557Q334 -551 328 -545Q334 -532 343 -523Q336 -498 334 -468Q311 -456 308 -429ZM909 -75H910Q916 -74 916 -65Q916 -61 915 -58Q916 -55 916 -53Q927 -42 943 -42Q947 -42 950 -43Q947 -38 943 -33Q947 -26 948 -7Q949 17 959 25Q953 25 950 29Q948 34 947 39Q945 38 941 38Q936 39 931 39Q928 39 925 38Q929 41 929 44Q926 47 922 58Q902 52 855 48Q821 45 805 42Q806 32 818 32Q829 32 836 29Q831 21 821 20Q810 19 796 19Q770 17 756 17Q736 17 726 22Q729 23 764 26Q787 28 789 39Q762 43 725 43Q670 42 614 40Q553 40 518 51Q538 27 600 27Q624 28 648 28Q677 28 694 24Q671 12 615 12Q585 12 558 15Q473 22 434 52Q438 54 442 54Q464 50 485 46Q497 46 503 51Q446 65 404 104Q383 100 361 95Q351 90 342 70Q336 56 331 51Q332 10 333 5Q336 -20 349 -24Q381 -36 413 -48Q405 -43 405 -37Q405 -33 407 -30Q416 -34 458 -41Q464 -40 470 -40L473 -41V-42Q467 -58 455 -71Q449 -76 436 -82Q422 -88 417 -94Q408 -133 408 -139Q408 -160 425 -165Q413 -172 390 -175Q365 -178 358 -188Q354 -193 354 -199Q356 -210 358 -222Q357 -233 355 -244Q355 -253 363 -258Q369 -262 384 -266Q401 -271 408 -275Q422 -287 435 -300Q452 -312 470 -322Q487 -333 502 -347Q506 -350 511 -354Q516 -358 516 -364L515 -367Q490 -363 467 -350Q444 -337 422 -325Q396 -330 373 -343Q345 -360 345 -378Q345 -393 363 -407Q360 -413 360 -417Q360 -424 367 -434Q376 -447 376 -455V-459H377Q382 -459 383 -454Q384 -449 387 -445Q404 -451 450 -455Q484 -458 505 -463Q514 -465 532 -473Q553 -482 565 -483Q564 -485 564 -491Q565 -502 566 -513Q566 -516 564 -522Q492 -505 458 -479Q419 -485 411 -505Q409 -504 404 -504Q390 -504 381 -517Q372 -530 372 -546Q372 -565 383 -577Q383 -582 375 -587Q370 -591 368 -595Q370 -598 371 -598Q376 -596 381 -595H383V-598Q383 -607 375 -615Q369 -621 368 -626H372Q390 -621 407 -617Q420 -620 433 -624Q438 -624 441 -623L442 -621Q440 -618 437 -615Q441 -607 453 -607Q472 -610 490 -614Q537 -623 547 -631Q540 -634 532 -634Q523 -634 501 -628Q480 -622 470 -622Q463 -622 460 -623Q486 -642 546 -651Q540 -662 534 -678Q527 -694 515 -705Q503 -703 494 -697Q485 -691 475 -687Q485 -697 503 -721Q515 -741 528 -759Q556 -790 601 -795H608Q645 -795 653 -778Q626 -781 624 -781Q615 -781 611 -780Q624 -764 645 -757Q667 -749 684 -739Q687 -741 690 -744V-745Q690 -755 680 -762Q670 -769 669 -777Q695 -773 714 -738Q703 -716 693 -692Q711 -699 754 -708Q794 -716 815 -724Q814 -721 810 -720Q804 -718 804 -715H809Q819 -715 841 -723Q868 -733 884 -733Q870 -726 855 -720Q839 -715 832 -702Q836 -697 841 -697Q853 -700 864 -703Q849 -698 849 -684Q849 -668 868 -666Q872 -666 875 -667Q855 -658 848 -651Q847 -632 839 -619Q831 -607 826 -592Q727 -584 664 -552V-514Q677 -515 703 -524Q738 -536 758 -536Q768 -536 773 -535Q761 -528 728 -519Q688 -508 673 -496Q676 -494 682 -494Q698 -497 714 -505Q746 -513 781 -520Q815 -527 841 -543Q838 -548 832 -548Q823 -546 813 -544Q808 -544 805 -548Q811 -559 840 -561Q862 -562 870 -567Q872 -566 874 -561Q876 -556 879 -555Q897 -558 909 -565L910 -563Q910 -561 905 -559Q899 -556 899 -553V-552Q902 -548 908 -548Q925 -551 942 -555H943Q936 -552 922 -546Q909 -540 907 -534Q907 -529 919 -526Q909 -523 909 -508Q909 -500 915 -496Q886 -461 830 -451Q776 -442 720 -431Q664 -421 619 -399H621Q635 -399 644 -388Q645 -377 645 -367Q645 -351 636 -341Q605 -338 578 -324Q558 -313 534 -292Q615 -318 688 -333Q685 -338 678 -345Q671 -352 670 -364Q679 -373 679 -384Q688 -385 701 -391Q717 -398 730 -398H735Q749 -397 775 -388Q801 -379 811 -379H815Q825 -380 839 -393Q849 -402 856 -405Q855 -401 847 -394Q834 -383 834 -377Q834 -372 838 -367Q852 -373 877 -393Q903 -413 921 -420V-418Q918 -411 907 -405Q895 -395 881 -381Q867 -367 866 -348V-345Q875 -348 887 -358Q902 -370 912 -372V-371Q912 -363 894 -350Q887 -345 881 -340Q874 -336 873 -327H875Q881 -331 891 -335Q892 -335 896 -333L897 -332Q897 -330 890 -324Q882 -317 881 -315Q881 -309 880 -304Q880 -286 890 -286Q891 -286 897 -288Q884 -279 876 -237Q868 -238 868 -246Q870 -258 872 -271Q872 -276 869 -281Q860 -279 855 -264Q851 -253 847 -250H842Q825 -250 824 -238Q828 -234 837 -234H851Q862 -234 863 -229Q844 -218 844 -203Q844 -196 850 -189Q856 -190 866 -195Q877 -201 886 -201H888Q878 -196 873 -192Q866 -185 866 -175Q870 -173 872 -173Q879 -173 893 -186Q904 -196 909 -198H911Q921 -199 931 -201H935Q904 -185 898 -181Q877 -167 876 -147Q876 -141 879 -132Q874 -107 835 -97V-99Q836 -113 845 -118Q853 -124 861 -132Q860 -142 849 -142Q843 -142 838 -138Q832 -133 832 -127V-125Q829 -125 825 -126Q806 -126 795 -108Q785 -91 785 -69V-66Q796 -83 800 -87Q810 -97 825 -97H829V-95L830 -91V-90Q812 -76 802 -56Q805 -52 809 -52Q816 -54 823 -56Q831 -54 838 -53H841Q853 -53 876 -59Q897 -65 906 -65L908 -67Q908 -70 907 -73Z"/>
</svg>