<svg xmlns="http://www.w3.org/2000/svg" viewBox="0 -800 1024 1024">
	<path fill="#000000" d="M54 -292Q52 -284 47 -279Q42 -275 36 -270Q32 -271 32 -277Q32 -280 36 -292Q46 -294 47 -294Q50 -294 54 -292ZM927 -513H929Q934 -514 938 -515Q940 -511 940 -504Q940 -489 930 -477Q925 -487 925 -501Q925 -505 927 -513ZM341 -25Q336 -21 315 -9Q308 -15 308 -20Q310 -30 326 -31Q335 -31 341 -25ZM319 -320Q301 -319 283 -310Q272 -305 254 -292Q249 -282 232 -268Q212 -252 208 -237Q229 -226 248 -213Q284 -266 319 -320ZM698 -459Q661 -504 623 -546Q588 -484 552 -377Q560 -385 579 -395Q600 -406 608 -414Q618 -431 633 -446Q650 -459 698 -459ZM734 -222Q718 -211 701 -201Q692 -195 674 -178Q653 -158 644 -154Q640 -152 625 -147Q608 -142 603 -135Q593 -137 578 -150Q559 -166 545 -166Q539 -166 535 -165Q538 -171 541 -177Q536 -187 525 -187Q504 -183 485 -174Q507 -201 539 -219Q571 -237 606 -257Q637 -276 674 -291Q719 -308 738 -333L739 -329Q738 -324 737 -319Q737 -315 740 -314L742 -313Q744 -313 746 -316Q750 -321 752 -321Q747 -314 747 -306Q747 -296 756 -276Q764 -258 764 -251Q764 -248 763 -246Q753 -232 734 -222ZM838 -150V-146Q837 -134 820 -111Q787 -72 740 -41Q699 -8 657 25Q657 22 656 19Q657 5 667 -3Q676 -11 686 -18Q698 -30 710 -42Q724 -54 739 -66Q755 -79 762 -99Q742 -88 707 -60Q677 -36 663 -27L612 9Q595 20 587 28Q575 41 574 55H578Q585 55 602 46Q617 38 625 38Q630 38 636 41Q632 52 608 75Q582 94 575 104Q563 108 556 112Q548 107 535 92Q517 72 504 66Q502 45 493 31Q483 15 469 15H467L466 13Q466 11 471 8Q477 5 478 3Q449 -9 420 -9Q413 -8 406 -8Q439 -15 472 -22Q463 -34 439 -34Q400 -29 360 -25H358Q381 -36 408 -41Q436 -46 463 -51Q510 -61 580 -93Q611 -104 639 -119Q688 -148 691 -150Q725 -173 759 -193Q794 -213 815 -249L816 -247Q812 -237 808 -219Q808 -211 814 -207Q818 -214 824 -219V-217Q824 -204 832 -180Q838 -162 838 -150ZM938 -436V-410Q940 -386 951 -346Q964 -299 964 -276Q964 -255 959 -240Q936 -229 915 -216Q874 -224 843 -256Q833 -267 795 -321Q751 -388 741 -405Q744 -396 744 -389Q744 -364 717 -345Q706 -337 665 -318Q666 -333 679 -343Q698 -357 700 -361Q697 -364 692 -364Q680 -362 666 -355Q642 -344 634 -338Q617 -326 617 -311Q618 -308 618 -305Q634 -310 647 -317L648 -314V-308Q639 -300 629 -292Q619 -284 615 -270H608Q585 -270 553 -288Q544 -283 535 -278Q538 -286 541 -295V-297Q541 -299 538 -299Q535 -299 533 -302Q536 -308 536 -313Q536 -319 533 -327Q514 -321 512 -266Q504 -262 504 -256V-254H502Q490 -252 483 -246Q455 -256 440 -272Q422 -292 420 -323Q407 -303 376 -264Q348 -230 335 -209Q334 -212 334 -218Q334 -233 353 -261Q371 -287 371 -304Q371 -307 370 -311Q345 -282 326 -248Q306 -213 287 -179Q295 -179 302 -192Q309 -204 316 -204Q320 -204 322 -203Q320 -190 306 -170Q295 -154 291 -141Q297 -121 297 -108Q290 -103 282 -97Q273 -91 263 -90H259Q239 -72 219 -41Q213 -32 186 15Q181 13 177 9Q187 -20 203 -43Q219 -66 233 -90L229 -92Q222 -90 218 -85Q198 -62 174 -30Q162 -16 150 -1Q138 13 137 31Q139 35 141 38H145Q153 38 161 31Q169 24 178 24H179Q165 73 137 112Q117 91 91 79Q84 57 78 54V49Q78 37 72 17Q67 0 67 -9V-11Q70 -27 75 -41V-43Q74 -53 73 -63Q73 -69 75 -72Q80 -71 81 -60Q82 -47 87 -47Q82 -79 74 -110Q66 -141 65 -176Q65 -192 66 -200Q77 -139 96 -84V-89Q92 -108 88 -128V-131Q103 -98 121 -68Q130 -75 147 -93Q167 -114 180 -122Q168 -140 155 -156Q141 -173 140 -201Q144 -206 154 -211Q167 -217 170 -223Q169 -226 165 -226Q161 -225 156 -225Q150 -229 140 -239Q129 -251 121 -255V-259Q121 -275 109 -284Q102 -282 95 -281H93Q99 -295 114 -298Q109 -302 99 -302Q98 -302 63 -295Q91 -331 129 -335Q133 -332 133 -328Q132 -324 131 -320Q148 -325 167 -339Q201 -359 210 -377H209Q191 -377 172 -358Q155 -341 142 -341H140V-345Q141 -353 147 -358Q153 -364 159 -368Q173 -378 183 -392Q180 -391 176 -391Q145 -394 128 -429Q111 -463 91 -490Q93 -498 93 -502Q92 -513 91 -524V-528Q95 -543 99 -559Q98 -567 90 -576Q82 -585 81 -590L84 -591Q87 -591 93 -586Q100 -580 104 -580L108 -581Q108 -588 95 -600Q83 -611 81 -620Q87 -620 96 -612Q103 -606 106 -606Q110 -606 112 -608L113 -610Q109 -616 104 -623L105 -625Q111 -622 116 -622Q126 -622 138 -635Q148 -646 153 -647H154Q170 -643 186 -639H188Q206 -644 224 -650Q232 -650 236 -642Q230 -636 211 -628Q183 -616 177 -602Q268 -622 361 -659Q378 -664 393 -670Q408 -676 415 -690Q407 -692 404 -692Q389 -691 374 -684Q359 -678 343 -671Q330 -667 306 -657Q286 -648 273 -648Q262 -648 259 -656Q272 -671 293 -673Q313 -675 332 -680Q353 -689 374 -700Q394 -710 418 -714Q424 -714 427 -711L451 -720L450 -716Q450 -711 453 -710Q462 -718 475 -721Q477 -721 483 -719Q467 -709 465 -707Q456 -699 456 -688Q456 -683 457 -680Q459 -678 461 -678Q466 -679 470 -680Q457 -672 457 -652Q457 -634 470 -628Q463 -607 459 -581V-577Q460 -570 460 -564V-562Q459 -557 453 -552Q447 -547 447 -543V-542Q390 -523 324 -480Q325 -477 325 -471Q321 -447 313 -424Q327 -426 352 -440Q383 -458 408 -458H414Q419 -468 423 -480Q427 -491 436 -498Q438 -496 438 -490Q437 -476 435 -463V-461L437 -460Q438 -460 439 -462Q440 -465 443 -465H445Q444 -461 444 -455Q446 -439 448 -423Q448 -416 445 -407Q451 -413 458 -427Q468 -446 476 -452Q481 -447 481 -439Q476 -421 471 -403Q471 -401 473 -395Q492 -411 501 -436Q511 -460 521 -483Q539 -520 552 -590Q540 -571 522 -532Q504 -491 492 -474Q492 -479 491 -484Q495 -519 512 -549Q537 -609 541 -620Q550 -643 553 -667V-669Q547 -683 541 -702V-709Q541 -739 565 -765Q589 -792 618 -792Q637 -792 651 -779Q667 -765 680 -745Q696 -720 696 -700Q696 -693 695 -690Q694 -685 687 -676Q679 -666 679 -656Q679 -651 680 -648Q681 -644 688 -638Q695 -632 697 -628Q700 -620 703 -612Q707 -606 717 -597Q728 -588 731 -584Q749 -563 781 -519Q800 -495 804 -485Q788 -486 778 -498Q768 -510 757 -524Q735 -554 707 -578Q760 -487 836 -414Q837 -416 837 -419Q837 -425 828 -437Q817 -451 817 -462Q817 -467 818 -470Q829 -464 844 -447Q860 -429 870 -424Q877 -429 879 -452Q881 -474 888 -479Q889 -474 889 -469Q888 -449 886 -430Q886 -409 898 -405Q902 -424 902 -451V-493Q902 -524 907 -542Q912 -519 912 -480V-454Q912 -405 919 -383Q927 -397 928 -420Q928 -443 930 -464Q938 -454 938 -436Z"/>
</svg>