<svg xmlns="http://www.w3.org/2000/svg" viewBox="0 -800 1024 1024">
	<path fill="#000000" d="M714 -226Q711 -229 708 -229Q698 -228 696 -216Q696 -212 699 -208Q704 -211 709 -214Q714 -217 714 -226ZM632 -210Q629 -220 621 -220Q613 -220 613 -211Q613 -205 615 -202Q622 -202 632 -210ZM536 38H552Q548 48 526 50Q522 44 522 42V40Q530 38 536 38ZM933 -68Q937 -88 951 -92Q955 -92 955 -85Q954 -74 933 -68ZM576 -572Q562 -569 548 -566Q542 -556 541 -545Q548 -545 553 -550Q558 -554 563 -559Q573 -564 577 -570ZM628 -308H626Q611 -307 610 -292Q610 -289 612 -283Q621 -283 629 -287Q630 -291 630 -299Q630 -306 628 -308ZM555 -469H558Q564 -479 564 -486Q560 -485 554 -485Q545 -485 536 -491Q534 -481 534 -478Q534 -471 539 -467Q547 -468 555 -469ZM619 -485V-483Q636 -485 649 -490Q645 -498 635 -502Q626 -505 618 -509Q616 -507 616 -502Q618 -493 619 -485ZM640 -383Q641 -389 641 -395Q641 -404 637 -407Q614 -399 614 -389Q614 -384 618 -379Q620 -380 640 -383ZM742 -314V-316H721Q694 -316 694 -303Q694 -301 696 -295Q709 -298 725 -301Q741 -305 742 -314ZM487 -361H495Q521 -361 544 -377Q540 -384 535 -384Q525 -381 514 -373Q500 -377 490 -377Q487 -371 487 -361ZM549 -268Q547 -272 547 -276Q548 -279 548 -283Q548 -291 544 -292Q503 -281 471 -259Q463 -260 455 -262Q449 -255 446 -247Q457 -250 549 -268ZM486 41H480Q457 38 434 34H430Q425 35 419 39Q413 43 406 43L405 40Q405 33 418 23Q413 15 400 3Q385 -10 381 -20Q382 -26 382 -35Q382 -58 370 -67Q395 -92 430 -92Q464 -92 490 -69Q517 -45 517 -9V-4Q516 11 507 25Q498 39 486 41ZM175 -363V-364Q171 -370 166 -370Q154 -370 142 -346Q139 -349 139 -352Q140 -359 146 -364Q152 -369 156 -373Q138 -413 113 -448Q116 -447 119 -447Q129 -447 134 -455Q134 -458 129 -459Q125 -460 125 -463V-464Q136 -470 146 -478Q155 -485 167 -486Q175 -486 182 -481H184Q189 -482 194 -484H196Q203 -482 209 -480Q212 -480 216 -483Q242 -468 261 -442Q284 -411 284 -381Q284 -358 270 -340Q263 -335 251 -335Q238 -335 214 -347Q194 -357 184 -357Q175 -357 170 -353L169 -355Q172 -357 175 -363ZM159 32H157Q144 29 131 26H126Q108 28 90 29Q81 21 71 10Q62 -1 58 -17Q57 -21 57 -30Q58 -45 58 -60V-68Q52 -105 48 -149Q49 -156 49 -163Q53 -149 56 -136Q59 -122 70 -118Q126 -271 169 -340V-339Q163 -314 157 -289L158 -288Q162 -290 165 -292H166Q164 -274 164 -265Q164 -256 167 -250H168Q170 -253 172 -256H173Q172 -254 172 -249Q174 -232 179 -220H180Q183 -220 184 -223Q184 -225 185 -227Q185 -194 203 -188Q207 -189 209 -196Q210 -201 212 -202V-199Q211 -162 199 -130Q187 -98 176 -67Q171 -72 171 -81Q171 -89 179 -109Q186 -127 186 -137Q186 -146 181 -151Q170 -129 160 -92Q150 -58 150 -34Q150 -20 154 -13Q160 -17 162 -32Q165 -50 173 -52V-45Q174 -21 175 2Q175 31 159 32ZM331 -558V-557Q328 -547 323 -541Q320 -521 313 -502Q285 -498 278 -490Q266 -494 252 -496Q238 -497 234 -509Q252 -507 270 -505Q290 -505 293 -518Q281 -516 277 -516Q251 -517 233 -531Q214 -546 194 -556Q196 -546 207 -535Q218 -524 219 -514Q208 -529 187 -529Q174 -529 167 -519Q171 -531 171 -537Q171 -548 163 -553Q141 -549 127 -537Q114 -525 98 -515Q104 -534 117 -545Q130 -557 142 -571Q139 -584 121 -584Q110 -584 104 -578Q106 -581 106 -588Q106 -603 85 -630Q69 -651 66 -662H67Q70 -663 73 -664H75V-669Q75 -683 61 -706Q84 -719 108 -719Q151 -719 203 -683Q210 -686 216 -690L219 -688Q231 -668 246 -667Q249 -672 251 -678Q253 -684 261 -685V-673Q261 -652 274 -646Q276 -647 278 -651Q280 -655 284 -655Q284 -636 308 -603Q331 -572 331 -558ZM923 -62V-61Q923 -56 917 -52Q913 -49 912 -47Q907 -24 901 -1Q895 22 879 35Q839 24 806 -7Q792 -22 777 -37Q762 -53 739 -58Q739 -64 742 -68Q745 -71 748 -75Q740 -96 736 -118Q736 -122 738 -128Q732 -129 698 -131Q695 -123 694 -102Q693 -80 690 -71Q679 -72 679 -94Q679 -109 676 -113Q669 -110 667 -92V-83Q667 -18 680 19Q688 14 688 1Q687 -15 685 -32Q685 -45 692 -50Q696 -27 702 -4Q709 20 711 43Q711 56 697 75Q684 94 684 106Q670 111 656 115Q624 95 597 56H604Q607 56 608 52Q606 43 591 42Q576 40 563 38Q572 32 602 26Q599 25 588 25Q571 25 564 26Q581 16 596 10Q610 3 619 -12Q627 -28 627 -68Q627 -96 626 -124Q624 -124 621 -125Q609 -125 609 -106Q611 -84 612 -63V-56Q611 -45 604 -30Q599 -20 599 -13V-10Q577 -11 563 -22Q550 -33 533 -40V-41Q533 -44 536 -45Q538 -45 539 -46Q538 -50 519 -52Q541 -70 541 -99V-103Q538 -105 533 -105Q525 -104 518 -98Q511 -93 505 -89Q483 -104 476 -136Q482 -150 486 -171Q486 -173 484 -179Q488 -178 495 -178Q519 -182 542 -187Q547 -192 547 -196Q547 -199 545 -203H538Q473 -202 444 -158Q439 -163 426 -164Q412 -165 408 -172Q387 -140 366 -88Q356 -61 345 -34Q334 -6 317 8Q306 16 291 16H289Q280 14 267 -1Q252 -18 240 -20Q238 -36 238 -52Q237 -69 230 -79Q233 -88 233 -96Q233 -108 226 -130Q219 -152 219 -163Q219 -173 221 -178Q226 -164 230 -148Q233 -132 242 -121Q226 -181 222 -210Q228 -199 238 -162Q246 -131 258 -119V-121Q258 -131 251 -153Q246 -169 245 -179Q252 -174 258 -158Q265 -138 274 -134Q297 -179 319 -223Q342 -268 369 -307Q368 -281 357 -262Q345 -242 334 -224Q305 -166 301 -137Q313 -143 324 -159Q329 -166 341 -188Q356 -219 370 -250Q412 -338 421 -379Q413 -378 407 -371Q405 -368 399 -356Q388 -334 376 -331Q383 -362 411 -428Q434 -482 443 -515Q439 -523 422 -529Q421 -538 410 -556Q398 -575 397 -584Q397 -588 396 -593Q400 -624 406 -656Q416 -662 422 -662V-665Q422 -670 421 -675V-677Q441 -670 461 -667Q473 -667 481 -674H485Q492 -674 495 -671Q499 -675 503 -677L507 -676Q533 -688 563 -694Q556 -715 541 -731Q554 -751 566 -772H568Q576 -772 590 -780Q608 -790 618 -791H626Q649 -791 667 -780Q687 -768 687 -750Q687 -746 683 -734Q679 -737 672 -748Q663 -762 653 -764Q662 -732 662 -719V-716L665 -715Q668 -715 671 -720Q676 -727 681 -727H683Q687 -727 688 -722Q688 -718 690 -715Q705 -717 730 -728Q753 -738 766 -740H778Q785 -744 794 -750Q803 -757 816 -758Q822 -758 826 -757Q825 -755 825 -752Q825 -747 828 -743Q838 -748 849 -751H853L854 -750Q854 -748 851 -744Q845 -736 845 -731Q845 -729 847 -725Q851 -721 861 -720Q872 -718 874 -716Q862 -711 855 -695Q860 -686 860 -678Q860 -668 859 -659V-655Q835 -626 816 -622H776Q728 -619 686 -606Q644 -594 612 -584Q619 -575 629 -575H632Q636 -563 640 -552Q645 -556 662 -566Q684 -578 692 -590Q691 -594 687 -595Q683 -596 680 -598Q708 -602 721 -602Q754 -602 767 -584Q768 -580 768 -572Q765 -543 752 -523Q723 -521 708 -509V-508Q710 -505 712 -502Q803 -524 812 -527Q816 -525 820 -519Q824 -513 826 -512H828Q836 -513 843 -515Q830 -513 830 -501Q832 -489 833 -478Q833 -474 832 -472Q834 -468 840 -464Q847 -459 849 -455Q846 -455 842 -456Q816 -456 806 -424Q801 -425 791 -425Q777 -424 762 -424H754Q758 -434 771 -435Q783 -437 796 -439Q786 -448 761 -448Q724 -448 714 -433Q722 -431 733 -431Q743 -431 744 -421Q727 -421 714 -413V-394Q720 -392 727 -392Q752 -392 785 -403Q814 -417 831 -433Q845 -419 861 -415Q868 -415 873 -421V-417Q878 -386 882 -356Q882 -343 876 -331Q878 -329 880 -329Q890 -331 899 -333Q903 -332 906 -332Q919 -345 932 -346Q948 -329 950 -327Q961 -317 975 -314Q960 -312 955 -302Q950 -291 949 -277Q950 -246 938 -227Q909 -236 878 -236Q837 -236 820 -223Q812 -217 803 -203Q795 -190 788 -185Q786 -191 786 -193Q790 -207 793 -221V-223Q765 -206 763 -166V-163H764Q770 -163 774 -170Q778 -177 784 -178Q787 -176 787 -171Q786 -162 785 -154Q799 -152 808 -152Q841 -152 858 -164L859 -163Q857 -159 854 -155L855 -152Q859 -144 867 -140Q874 -145 887 -157Q900 -170 909 -175Q908 -168 895 -148Q880 -126 880 -115Q880 -105 890 -100Q910 -112 929 -124Q923 -115 911 -103Q899 -91 898 -75Q898 -68 903 -58H906Q914 -60 922 -62Z"/>
</svg>