<svg xmlns="http://www.w3.org/2000/svg" viewBox="0 -800 1024 1024">
	<path fill="#000000" d="M653 -542Q651 -544 647 -544Q643 -544 643 -542Q648 -534 650 -534Q652 -538 653 -542ZM78 -489V-491Q78 -505 91 -505Q94 -505 96 -504Q93 -499 89 -494Q86 -489 78 -489ZM878 54Q881 52 886 52Q890 52 902 58Q902 67 900 69Q894 66 887 64Q880 61 878 54ZM817 -59Q815 -55 808 -51Q802 -47 800 -45Q795 -47 795 -53Q797 -65 809 -66Q814 -66 817 -59ZM455 -189H464Q525 -193 585 -197Q588 -202 588 -219Q589 -235 591 -241Q589 -242 586 -243Q563 -239 508 -219Q490 -214 472 -207Q454 -200 449 -185Q451 -189 455 -189ZM301 -272L274 -246H264Q243 -246 237 -240Q227 -240 206 -252Q185 -264 173 -264Q165 -264 158 -260Q163 -275 176 -279Q165 -319 154 -366Q172 -360 174 -360Q181 -360 185 -367Q181 -374 176 -382H180Q190 -382 205 -374Q220 -366 226 -366Q231 -366 235 -369Q248 -359 264 -358Q267 -362 269 -366Q272 -370 278 -370H281V-369Q279 -367 277 -365V-363Q280 -346 288 -323Q300 -291 301 -272ZM333 -445H321V-448Q321 -459 331 -481Q339 -498 339 -509Q339 -517 335 -525Q327 -520 321 -498Q316 -478 302 -474H286Q274 -474 271 -466Q274 -460 289 -458Q305 -456 306 -448Q294 -442 293 -441Q271 -445 249 -450Q241 -453 229 -461Q214 -471 207 -471H206Q202 -471 197 -466Q193 -462 189 -462H188V-466Q188 -467 191 -482Q185 -501 168 -501Q159 -501 148 -493Q162 -508 178 -520Q173 -542 155 -542Q137 -542 98 -513Q100 -521 123 -546Q143 -563 151 -577V-578Q151 -593 129 -601H128Q124 -599 120 -598H119V-601Q123 -613 133 -618Q148 -636 148 -654Q148 -666 142 -678Q153 -692 170 -692H173Q178 -702 178 -703Q203 -693 225 -681Q230 -683 232 -688Q234 -694 237 -699Q240 -682 245 -669Q249 -655 267 -654H271Q277 -663 281 -674Q284 -685 296 -687Q286 -667 286 -657Q286 -652 287 -649Q299 -640 314 -631Q320 -632 323 -637Q330 -610 335 -573Q338 -559 345 -542Q356 -514 356 -503Q356 -498 355 -495Q354 -490 348 -483Q343 -477 342 -474Q340 -469 339 -461Q338 -449 333 -445ZM343 -76V-74Q314 -61 281 -44Q248 -27 231 0Q225 11 223 33Q214 39 200 50Q185 62 164 63H161Q131 60 121 56Q100 48 99 30Q65 11 65 -27Q68 -39 71 -51Q69 -74 66 -97Q66 -115 83 -122Q86 -138 100 -157Q116 -179 120 -189Q121 -187 121 -181Q121 -168 120 -156Q120 -142 123 -137Q130 -133 138 -133Q161 -138 184 -143H185Q181 -135 158 -126Q137 -118 132 -106Q134 -103 136 -100Q210 -128 283 -156Q279 -160 272 -160Q270 -160 252 -157Q234 -151 213 -149H206Q257 -182 376 -207H377L379 -204Q365 -198 350 -191Q333 -184 329 -166Q338 -172 358 -177H360Q353 -170 344 -164Q335 -158 330 -149Q335 -140 339 -131V-127Q337 -112 335 -98V-96Q341 -86 343 -76ZM859 54H870Q854 57 841 64Q827 72 827 83Q827 93 840 103Q811 103 794 116Q760 102 726 87Q723 79 719 70L720 66H722Q727 66 734 72Q739 77 744 78Q726 0 666 -50Q670 -35 686 -12Q709 22 709 50V52Q696 36 676 1Q651 -43 634 -60Q613 -44 598 -16Q588 3 574 44Q569 69 563 84Q559 86 555 87L557 90Q535 83 512 81Q506 78 499 69Q493 60 490 58Q484 53 465 49Q448 45 440 38Q442 37 447 37Q460 39 472 40Q477 40 480 39Q471 28 437 21Q411 16 401 10Q405 9 412 9Q422 9 437 14Q452 19 460 19Q467 19 470 18Q455 6 404 -4Q356 -13 338 -25Q367 -25 417 -10Q464 4 488 4Q495 4 502 3Q515 -29 533 -54Q513 -50 503 -46Q487 -39 482 -28H478Q470 -28 464 -25Q462 -32 456 -34Q450 -36 444 -39Q441 -51 428 -56Q428 -63 419 -73Q412 -80 411 -84Q408 -93 408 -103Q411 -132 422 -160Q420 -162 418 -162Q412 -160 405 -159H404Q408 -170 426 -181Q404 -194 383 -208Q363 -222 361 -255Q357 -262 352 -269Q353 -272 353 -278Q353 -297 333 -313H334Q349 -309 363 -300Q372 -309 385 -309Q393 -309 400 -306Q430 -314 462 -319Q494 -325 520 -336Q516 -339 506 -339Q494 -339 491 -333Q485 -333 450 -344Q444 -359 438 -376Q432 -392 431 -412Q431 -423 434 -435Q457 -452 471 -453Q479 -452 487 -451H490Q510 -462 530 -480Q556 -499 574 -505Q572 -491 548 -473Q532 -461 527 -453Q566 -471 610 -517Q607 -522 603 -522Q600 -522 594 -518Q587 -513 583 -513H582Q587 -522 595 -530Q603 -539 604 -551Q604 -557 599 -565Q616 -551 641 -546Q635 -572 628 -598H640V-599Q640 -602 639 -605L641 -607Q664 -612 683 -612Q747 -612 767 -570Q778 -575 783 -583Q779 -585 777 -585Q773 -585 767 -583Q778 -590 778 -600Q777 -611 769 -623Q760 -634 753 -643Q759 -638 769 -638Q780 -638 800 -649Q800 -650 797 -660Q744 -659 674 -633Q583 -599 563 -594Q573 -576 573 -572Q573 -566 569 -561Q561 -551 533 -534Q506 -518 496 -507Q480 -490 467 -456Q458 -452 442 -452H433Q418 -452 410 -445L409 -447Q410 -450 413 -451Q411 -452 406 -452Q398 -451 392 -446Q387 -440 381 -435V-438Q381 -446 390 -453Q387 -454 383 -454Q359 -450 354 -427Q354 -445 373 -477Q379 -489 387 -501Q394 -514 406 -519V-515Q406 -510 401 -500Q395 -488 395 -480Q405 -483 410 -492Q415 -501 419 -508Q431 -531 434 -542L430 -543Q423 -543 416 -534Q412 -528 409 -528H408Q407 -530 407 -533Q411 -547 414 -562Q414 -567 411 -573Q400 -570 389 -567H385Q396 -575 407 -585Q418 -594 437 -595Q439 -595 439 -597Q439 -600 442 -600H443Q442 -603 441 -606L443 -609Q439 -614 431 -614Q419 -612 406 -611Q408 -613 415 -616Q423 -619 425 -623V-627L426 -630Q423 -638 407 -638Q391 -637 375 -636H372Q443 -679 582 -732Q576 -718 562 -712Q547 -706 533 -700Q495 -679 482 -670L481 -667Q554 -694 647 -739Q642 -747 633 -747Q614 -742 594 -738Q611 -750 628 -763Q629 -801 694 -801Q726 -800 757 -799H761Q785 -783 809 -766Q808 -759 806 -753Q806 -748 810 -745L813 -744Q815 -744 818 -747Q822 -752 825 -752H826Q822 -741 822 -727Q823 -711 823 -696Q823 -670 804 -664Q807 -660 811 -660Q816 -660 829 -673Q829 -670 835 -658Q846 -658 862 -654Q865 -654 868 -658Q872 -663 876 -663H877Q875 -661 875 -658Q875 -657 878 -648H884Q890 -648 891 -651Q895 -645 907 -631Q921 -614 927 -603Q921 -604 912 -611Q902 -619 896 -619Q894 -618 891 -618Q893 -608 905 -591Q919 -571 919 -556Q919 -549 918 -545Q921 -540 924 -539Q934 -543 934 -555Q930 -578 924 -594Q938 -591 942 -576Q945 -561 953 -549Q946 -538 940 -522H938Q930 -522 912 -511Q899 -513 879 -521Q851 -532 838 -532Q831 -532 828 -531Q830 -537 834 -542Q818 -548 810 -548Q803 -548 797 -545L795 -546Q800 -549 803 -555Q802 -568 788 -568Q780 -568 770 -564V-549Q759 -533 736 -529Q713 -525 690 -520Q672 -529 666 -529Q661 -529 655 -526Q673 -508 673 -474Q673 -464 672 -459Q659 -450 623 -440Q594 -432 582 -426Q590 -418 610 -418Q621 -418 631 -419Q651 -419 659 -411Q691 -440 720 -470V-493L722 -494Q727 -492 733 -485Q746 -481 755 -476Q764 -468 778 -441Q787 -422 794 -414Q785 -398 768 -389Q751 -381 731 -375Q693 -367 672 -341Q736 -347 803 -364Q797 -374 797 -383Q797 -404 819 -420Q865 -412 885 -385L908 -393L910 -392Q906 -388 902 -382V-381Q903 -376 909 -372Q915 -383 929 -383Q933 -382 936 -382Q925 -375 918 -363Q922 -349 936 -348H940Q936 -345 936 -337Q936 -325 942 -315Q941 -298 929 -278Q919 -262 917 -252Q909 -259 897 -259Q888 -258 879 -258Q875 -258 865 -260Q858 -262 848 -273Q838 -284 832 -285Q829 -286 822 -286Q807 -284 791 -282Q762 -278 733 -275Q735 -288 748 -290Q762 -293 774 -294Q814 -298 820 -301Q811 -305 794 -305Q741 -300 691 -288Q680 -288 677 -278Q681 -279 690 -279Q708 -279 712 -270Q708 -265 690 -263Q674 -262 669 -258Q675 -226 693 -207Q745 -214 797 -222Q828 -228 853 -235Q865 -237 877 -237Q902 -237 902 -224V-223H897Q888 -223 880 -218Q878 -214 878 -207Q878 -199 882 -192H887Q897 -192 906 -189Q905 -182 898 -182Q894 -182 891 -183Q887 -177 887 -172Q887 -169 892 -167Q897 -165 897 -162H891Q895 -154 897 -137Q899 -121 902 -114Q887 -112 884 -102Q862 -108 844 -111H841Q832 -110 818 -105Q803 -99 797 -99Q790 -99 785 -103Q773 -98 739 -97Q717 -96 706 -94Q718 -74 737 -62Q756 -50 773 -36Q785 -36 791 -41L792 -37Q792 -34 789 -28Q791 -25 801 -21Q808 -18 812 -15Q822 -17 837 -23Q861 -33 870 -33Q877 -33 884 -30Q863 -24 844 -17Q824 -11 813 4Q818 14 831 14Q847 12 862 9Q851 15 839 19Q827 23 826 36Q826 54 859 54Z"/>
</svg>