<svg xmlns="http://www.w3.org/2000/svg" viewBox="0 -800 1024 1024">
	<path fill="#000000" d="M79 -18V-19Q79 -27 86 -27Q98 -25 101 -14Q99 -13 96 -13Q92 -13 79 -18ZM870 -184H872Q869 -168 866 -153Q860 -156 860 -169Q860 -184 870 -184ZM758 -624H745Q746 -640 758 -643Q761 -643 764 -640V-639Q761 -632 758 -625ZM890 52V56Q890 74 878 94Q861 96 855 103Q797 100 764 58Q759 57 754 55Q712 2 666 -47Q620 -97 575 -147Q571 -135 571 -119Q573 -92 574 -65Q574 -49 572 -42Q566 -50 564 -72Q561 -99 554 -106Q548 -91 548 -66Q550 -30 551 5V19Q551 41 563 48Q572 42 572 25Q571 10 570 -6Q570 -14 573 -20Q579 -14 583 7Q587 28 594 35Q592 43 589 50Q589 53 591 57Q579 64 569 87Q558 113 546 119Q541 118 533 118Q526 118 523 120Q505 110 498 101Q478 76 475 69Q472 54 469 39Q462 24 431 11Q434 8 438 8Q447 10 456 12H457L458 9Q458 8 456 8Q452 8 450 3Q456 0 462 0H465Q475 -48 475 -87Q475 -106 472 -123Q439 -104 381 -46Q371 -36 361 -25Q350 -14 336 -9Q343 -31 374 -57Q402 -81 410 -100Q373 -89 340 -55Q308 -21 277 6Q267 13 258 20Q249 27 248 44V48Q251 50 253 51Q264 50 276 36Q288 22 297 22Q300 23 302 23Q298 35 287 43Q277 51 268 60Q259 72 251 86Q244 99 231 109Q191 107 162 66H153Q156 61 163 60Q163 47 154 38Q157 31 157 25Q157 12 139 3Q115 -9 111 -14Q125 -8 138 -8Q146 -8 162 -12Q143 -29 114 -34Q86 -40 65 -48Q69 -49 78 -49Q93 -49 120 -40Q147 -31 164 -31H171Q189 -34 204 -40Q229 -50 259 -69Q329 -110 400 -175Q328 -163 295 -150Q246 -131 221 -94H216Q198 -94 178 -112Q163 -126 154 -129Q151 -140 143 -146Q134 -152 127 -160Q123 -174 123 -180Q123 -204 145 -226Q142 -235 142 -241Q143 -257 156 -267Q168 -276 181 -285Q205 -307 228 -310Q221 -301 215 -288V-287Q215 -284 218 -284Q220 -284 221 -281Q248 -289 293 -297Q317 -300 320 -300Q333 -300 338 -294Q307 -288 304 -272Q315 -268 328 -268Q363 -271 398 -281Q422 -286 445 -290Q468 -295 483 -306Q482 -310 478 -316H475Q461 -316 431 -310Q406 -305 389 -305Q378 -305 372 -306Q379 -314 391 -315Q403 -316 415 -318Q467 -327 484 -333Q486 -341 486 -359V-377Q486 -392 487 -398Q459 -397 423 -386Q421 -385 363 -364Q325 -352 301 -327Q296 -326 291 -326Q249 -326 230 -378H215Q219 -383 219 -394Q219 -410 209 -423Q197 -427 190 -427Q187 -426 183 -426Q184 -431 190 -437Q194 -441 195 -445Q195 -449 192 -449Q189 -449 188 -450Q189 -459 196 -464Q203 -469 209 -476Q213 -481 234 -522Q249 -550 266 -560Q267 -557 267 -554Q267 -543 253 -523Q238 -502 238 -490Q238 -485 239 -483Q248 -485 256 -495Q267 -508 269 -510V-511Q269 -523 288 -544Q304 -561 308 -570Q318 -590 318 -607Q318 -622 307 -623H305Q294 -622 292 -610Q289 -599 281 -592Q278 -596 278 -601Q281 -615 287 -626Q275 -666 262 -677Q264 -679 270 -679Q276 -679 277 -680L278 -683Q276 -686 274 -690V-692Q284 -695 302 -708Q323 -723 339 -724H343Q380 -724 409 -681Q419 -667 428 -653Q438 -639 443 -620Q441 -609 438 -598Q438 -592 440 -589Q425 -561 410 -534Q456 -540 495 -554Q497 -566 497 -574Q494 -612 487 -654V-682Q487 -691 486 -695Q483 -706 475 -714Q468 -722 462 -729V-732Q462 -743 452 -746Q460 -756 488 -776Q511 -793 523 -807Q532 -811 539 -811Q552 -810 564 -792Q570 -785 576 -778Q582 -772 582 -761V-756Q575 -757 568 -767Q562 -775 558 -778Q551 -771 551 -763Q551 -755 561 -739Q571 -722 573 -712Q574 -708 574 -701Q574 -689 573 -678Q573 -667 575 -661Q597 -710 597 -728Q597 -737 594 -746Q601 -744 605 -739Q609 -734 613 -729Q607 -708 607 -705Q607 -701 609 -695Q596 -682 591 -649Q590 -640 587 -591Q587 -584 586 -577Q586 -571 591 -567Q683 -582 737 -614Q734 -603 730 -593Q730 -587 737 -583Q755 -594 775 -598Q781 -598 784 -597Q767 -587 752 -574Q753 -571 756 -571Q763 -572 769 -574Q772 -574 775 -571V-570Q775 -567 769 -563Q762 -558 761 -555V-553Q762 -548 763 -543Q763 -541 761 -539L763 -538Q766 -539 769 -540L772 -539V-537Q768 -528 764 -520Q764 -516 763 -512Q763 -499 767 -483Q755 -463 754 -447Q749 -443 742 -443Q735 -443 727 -444Q660 -444 576 -414Q574 -394 574 -381Q575 -364 575 -348Q598 -350 660 -368Q707 -382 737 -387Q743 -389 743 -394V-396Q748 -393 753 -391H755Q758 -395 758 -402Q763 -400 768 -393Q774 -386 778 -384H782Q798 -388 814 -392Q817 -392 819 -391Q795 -380 795 -366Q795 -358 807 -351Q826 -358 847 -361H853Q843 -353 832 -347Q820 -341 819 -325L821 -323Q825 -324 829 -325L832 -324Q830 -309 827 -294Q827 -287 828 -284Q818 -270 813 -250Q807 -251 791 -251Q767 -251 761 -244Q757 -248 749 -248Q740 -248 737 -243Q733 -244 724 -244Q703 -243 681 -237Q659 -230 638 -226Q642 -214 661 -201Q680 -189 683 -177H681Q667 -180 657 -187Q658 -172 678 -150L706 -120Q725 -98 745 -78Q766 -59 798 -57Q787 -73 771 -87Q755 -102 739 -117Q732 -123 726 -129Q719 -135 718 -144V-146Q745 -129 766 -107Q787 -84 823 -77Q831 -79 832 -97Q833 -116 840 -118Q841 -114 841 -105V-87Q841 -67 847 -61Q849 -77 849 -85Q847 -125 844 -166Q844 -175 846 -193Q851 -190 851 -183Q851 -177 850 -171Q851 -100 866 -39V-42Q863 -80 859 -119Q859 -132 862 -143Q870 -138 870 -128Q870 -122 869 -116V-114Q871 -63 881 -34Q883 -27 894 -9Q908 14 908 25V29Q907 34 899 41Q891 48 890 52Z"/>
</svg>