<svg xmlns="http://www.w3.org/2000/svg" viewBox="0 -800 1024 1024">
	<path fill="#000000" d="M121 6H115L114 3Q115 0 115 -4V-6Q130 -4 140 0Q138 6 121 6ZM617 -241V-242Q616 -245 610 -245Q599 -243 588 -241L586 -220H589Q599 -220 606 -224Q617 -230 617 -241ZM629 -338Q602 -333 594 -327V-309Q594 -303 593 -301Q610 -304 627 -307V-313Q627 -324 629 -338ZM706 -268Q701 -268 695 -268Q691 -268 683 -263L682 -240Q698 -243 706 -268ZM727 -367Q722 -372 717 -372Q702 -368 689 -359Q687 -344 684 -329Q684 -325 686 -317Q700 -320 713 -323Q727 -364 727 -367ZM632 -448V-451Q617 -447 599 -440V-437Q598 -431 597 -425Q614 -429 630 -433Q631 -440 632 -448ZM491 -8Q486 -6 480 -4Q479 -1 479 5V10Q468 15 459 22Q419 14 415 14Q397 14 388 26L397 8Q394 -6 379 -6Q363 -6 358 4Q359 0 367 -11Q376 -23 376 -30Q376 -37 363 -43Q371 -47 376 -61Q377 -63 384 -89Q387 -91 406 -104H411Q418 -104 421 -101Q421 -106 427 -106Q431 -105 434 -105L438 -106Q456 -87 472 -65Q489 -44 491 -8ZM926 -46Q913 -40 911 -20Q909 -12 905 -3Q899 9 899 16Q899 18 901 26Q897 22 892 22Q880 26 868 32H864Q852 32 834 23Q813 18 810 11Q814 7 820 7Q834 11 847 14Q853 14 858 10Q854 -8 839 -16Q824 -24 810 -35Q801 -45 793 -58Q785 -71 766 -74V-73Q766 -54 786 -31Q803 -12 806 -1H804Q793 -4 780 -14Q747 -67 713 -121Q719 -137 722 -143Q727 -153 736 -155Q738 -156 743 -156Q765 -152 787 -149Q800 -149 805 -157V-154Q805 -149 808 -143Q813 -144 819 -151Q825 -159 830 -160Q827 -142 827 -138Q828 -135 828 -133Q835 -138 849 -151Q868 -170 882 -175Q879 -165 867 -151Q851 -132 849 -118Q853 -112 859 -107Q890 -130 926 -161Q925 -152 907 -134Q882 -108 882 -95Q882 -85 891 -76Q902 -84 918 -86H922Q905 -81 905 -65Q905 -47 926 -46ZM951 -95Q947 -90 942 -89Q936 -88 929 -86V-88Q929 -99 942 -99Q948 -99 951 -95ZM904 -200Q902 -191 883 -179V-182Q884 -201 897 -203Q901 -203 904 -200ZM755 -593Q796 -606 836 -613Q828 -599 821 -583Q823 -581 827 -581Q838 -586 851 -591Q855 -591 858 -587Q850 -580 840 -575Q831 -571 827 -560L830 -559Q836 -560 842 -562H845Q835 -549 835 -536Q835 -525 845 -518Q807 -496 780 -491V-493Q780 -499 794 -507Q805 -513 808 -517Q804 -520 796 -520Q789 -520 762 -512Q732 -504 722 -496Q726 -492 732 -492Q744 -493 756 -495Q762 -495 766 -491Q760 -485 752 -483Q744 -481 736 -478Q721 -472 706 -466Q704 -462 704 -451Q738 -471 772 -471Q789 -471 803 -464Q812 -475 823 -479H825L826 -476Q823 -468 820 -460Q820 -458 822 -454Q827 -455 837 -463Q850 -474 861 -475Q853 -466 844 -458Q836 -450 833 -436Q833 -432 836 -432Q839 -431 842 -430Q837 -420 837 -417V-415Q842 -395 842 -379Q842 -365 837 -353Q861 -356 914 -380Q912 -374 910 -368Q914 -359 921 -359H926Q924 -357 924 -355Q927 -349 930 -343Q929 -339 927 -335Q930 -321 932 -307Q932 -298 926 -292H923Q910 -292 905 -280Q903 -283 888 -284Q872 -285 867 -289Q870 -293 882 -293H885Q896 -293 899 -296Q887 -308 858 -308Q817 -308 800 -293Q803 -288 810 -288Q824 -290 838 -293Q846 -293 849 -285Q836 -284 818 -282Q800 -280 785 -271Q767 -257 763 -232Q759 -207 750 -185Q742 -176 719 -176Q702 -176 695 -172Q687 -167 687 -153Q689 -134 690 -115Q690 -105 688 -100Q676 -102 676 -116Q676 -130 674 -142Q661 -122 661 -64Q662 -42 662 -20Q664 32 683 43Q689 31 689 18Q685 -17 680 -52Q680 -65 682 -71Q690 -66 693 -53Q695 -41 697 -28Q703 5 707 70Q703 75 703 87V93Q694 94 687 103Q678 115 676 117Q652 115 640 102Q626 83 605 71V66Q604 46 591 38Q578 30 566 20Q568 19 571 19Q583 22 594 25Q583 17 558 5Q538 -4 529 -10Q533 -10 536 -11Q545 -11 559 -5Q574 1 581 2Q572 -3 562 -6Q552 -10 547 -18Q572 -12 601 -9Q610 -9 615 -10Q618 -82 620 -155Q616 -155 611 -156Q588 -156 581 -145Q575 -137 575 -114Q576 -90 577 -67Q577 -59 575 -49Q571 -26 544 -21H540Q503 -30 492 -70V-86Q492 -94 486 -98Q495 -108 498 -122Q494 -128 487 -128Q481 -129 476 -131Q464 -164 464 -175Q464 -180 466 -194Q474 -200 491 -201Q509 -203 519 -206V-224Q485 -219 462 -206Q451 -199 439 -189Q427 -180 415 -179H414Q402 -179 386 -192Q371 -205 369 -215V-217Q370 -225 379 -235Q381 -241 382 -248Q387 -256 401 -267Q415 -278 418 -284Q420 -282 420 -279Q419 -272 417 -266Q435 -269 477 -278Q490 -280 506 -285Q522 -291 523 -310Q495 -297 474 -293Q457 -293 448 -313Q437 -317 429 -322Q426 -332 423 -343Q429 -357 435 -374Q441 -391 458 -393Q462 -393 465 -392Q483 -400 523 -412V-414Q523 -419 522 -425Q522 -428 523 -430H518Q501 -430 477 -418Q453 -406 441 -406H439Q418 -407 406 -424Q395 -440 382 -455V-458Q348 -443 338 -434Q336 -420 336 -410Q336 -398 338 -382H339Q347 -382 365 -395Q368 -383 371 -366Q374 -350 383 -341Q373 -329 373 -306Q373 -288 383 -281Q364 -272 364 -250Q364 -243 365 -239Q328 -233 319 -215Q319 -174 314 -134H311L309 -133Q304 -137 302 -156Q300 -171 297 -176Q286 -169 286 -148Q289 -121 291 -95V-91Q290 -65 288 -39Q288 -19 295 -5Q306 -16 306 -60V-69Q306 -89 309 -104Q318 -99 318 -87V-68Q326 -32 330 3Q330 10 329 14Q313 71 268 96Q251 86 238 70Q226 54 211 38Q197 27 181 20Q164 13 146 5Q150 5 153 4Q177 8 200 11H202Q175 3 148 -7Q122 -17 102 -34Q118 -26 154 -16Q188 -7 202 0Q204 -1 216 -4Q188 -17 160 -31Q166 -33 170 -33Q193 -29 215 -25Q223 -25 232 -35Q238 -89 238 -113Q238 -135 235 -159Q217 -158 209 -144Q201 -131 191 -118Q178 -118 173 -121Q169 -124 165 -133H164Q147 -133 137 -148Q127 -162 127 -182Q127 -196 133 -208Q127 -220 127 -236Q127 -274 151 -282Q156 -297 161 -308Q167 -320 180 -325Q177 -318 173 -312Q169 -307 169 -296V-291Q193 -303 212 -311Q232 -318 251 -334V-394Q219 -385 187 -366Q170 -354 154 -337Q138 -321 120 -319H117Q101 -320 93 -333Q86 -345 78 -353Q72 -358 64 -360Q57 -363 51 -371Q43 -384 43 -402Q43 -433 59 -457Q57 -467 57 -475Q57 -493 64 -497Q58 -511 51 -526H53Q58 -526 63 -521Q68 -516 71 -515Q73 -521 73 -522Q73 -530 61 -542Q49 -554 48 -562Q59 -559 77 -544Q93 -531 105 -527Q129 -540 164 -542Q161 -532 143 -526Q130 -522 126 -517V-515Q127 -512 128 -510L127 -508Q131 -507 139 -507Q164 -508 181 -517Q199 -527 225 -536Q223 -543 213 -543Q201 -541 189 -540Q183 -540 181 -542Q188 -550 209 -557Q236 -566 242 -580Q230 -603 224 -608Q203 -608 198 -602Q202 -615 212 -627Q222 -638 232 -652Q248 -677 250 -679Q262 -693 276 -693Q284 -693 292 -689Q298 -692 306 -692Q324 -692 341 -681Q358 -670 359 -656V-653Q357 -640 354 -627V-623Q367 -626 383 -634Q397 -642 408 -643Q408 -635 399 -624Q392 -615 392 -610Q392 -605 397 -600Q406 -604 414 -609L415 -606Q411 -601 407 -595Q408 -593 408 -588Q405 -573 401 -558Q401 -550 407 -544Q399 -543 399 -534Q399 -530 395 -510Q396 -493 396 -479Q409 -492 410 -505Q414 -506 411 -515Q408 -525 412 -526Q432 -527 476 -536Q472 -540 468 -546Q465 -551 459 -552H457V-554Q457 -567 443 -581Q434 -590 431 -598Q438 -606 438 -614Q438 -620 431 -634Q424 -648 424 -656V-659Q430 -658 436 -649Q442 -641 447 -641H448Q452 -644 452 -646Q450 -651 448 -657V-658Q450 -659 453 -659Q460 -657 466 -655Q480 -661 492 -661Q529 -661 558 -612Q562 -612 566 -617Q570 -621 571 -621H572Q570 -611 570 -608Q570 -599 576 -586Q583 -571 583 -561V-560Q587 -561 591 -562Q601 -564 621 -570Q628 -586 628 -588Q645 -627 649 -668Q649 -681 647 -688Q635 -688 618 -678Q607 -671 598 -669Q609 -685 625 -697Q640 -709 642 -732V-736Q667 -742 684 -756Q701 -770 720 -782Q743 -775 770 -773Q783 -735 827 -710Q829 -696 829 -690Q829 -680 823 -676Q816 -679 812 -691Q808 -704 801 -704Q797 -704 790 -697Q785 -692 781 -690Q777 -665 749 -637Q719 -607 714 -588Q728 -590 735 -590H739Q744 -600 750 -606Q771 -627 801 -647Q804 -636 790 -625Q764 -605 755 -593Z"/>
</svg>