<svg xmlns="http://www.w3.org/2000/svg" viewBox="0 -800 1024 1024">
	<path fill="#000000" d="M35 -195H33V-199Q33 -217 43 -217H47Q45 -195 35 -195ZM966 -528V-526Q966 -518 960 -515Q954 -511 947 -508Q944 -511 944 -514Q944 -520 951 -524Q958 -528 964 -528ZM751 -136Q689 -122 675 -117Q633 -104 614 -84Q617 -78 619 -71Q620 -64 626 -61Q654 -72 715 -76Q730 -94 741 -117Q749 -125 752 -133ZM257 -215V-213Q239 -200 218 -193Q198 -198 177 -204Q171 -207 165 -211H163Q148 -211 147 -193Q146 -196 146 -205Q146 -214 144 -217Q138 -225 127 -228Q116 -231 106 -235Q102 -251 91 -251Q81 -250 70 -241Q58 -232 51 -226Q52 -234 66 -249Q78 -261 81 -271Q79 -275 61 -293Q45 -293 25 -283Q29 -295 39 -300Q48 -306 58 -312Q52 -336 50 -352Q48 -356 43 -359Q35 -364 35 -370H37Q48 -368 58 -366Q61 -366 63 -367Q60 -380 45 -395Q29 -411 25 -421L27 -422Q30 -422 35 -415Q39 -409 41 -408Q51 -400 61 -393Q76 -393 85 -403Q94 -413 94 -426Q100 -423 104 -423Q107 -423 115 -428Q109 -446 105 -461Q105 -464 106 -466Q112 -460 118 -447Q126 -429 132 -424Q138 -430 143 -430H146V-428Q147 -415 158 -410Q171 -404 183 -400Q188 -402 194 -408Q200 -414 204 -415V-411Q203 -398 202 -386Q202 -376 210 -369H211Q214 -371 217 -373H218V-358Q254 -321 266 -255V-251Q266 -237 256 -222V-220Q257 -217 257 -215ZM781 71V75Q757 66 750 56H748Q744 56 740 61Q734 67 728 68Q730 53 737 46Q730 42 717 42Q677 45 658 59Q651 68 647 80Q642 87 629 90Q617 93 612 98Q605 97 598 88Q590 78 581 77Q580 70 571 55Q561 38 561 26Q561 21 562 18Q568 19 572 29Q577 40 584 40V38Q584 11 559 -35Q544 -64 531 -80Q513 -103 492 -112Q483 -106 483 -100Q484 -93 492 -87Q499 -80 506 -75Q549 -37 549 -9H548Q533 -11 531 -32Q529 -35 524 -40Q517 -46 516 -51Q504 -51 494 -63Q483 -76 473 -76Q470 -87 457 -101Q441 -118 441 -130Q441 -140 454 -159Q463 -172 466 -181Q463 -191 460 -201V-205Q467 -204 471 -196Q474 -189 479 -189Q489 -194 498 -199Q514 -195 531 -195Q562 -196 586 -206Q610 -217 638 -229Q641 -248 641 -270Q641 -286 638 -301Q629 -301 613 -291Q600 -283 591 -283H590Q591 -297 612 -306Q637 -317 642 -324Q638 -327 633 -327Q630 -327 606 -318Q570 -304 500 -268V-263Q502 -241 515 -240H516Q524 -240 537 -256Q550 -273 560 -273H562Q552 -258 541 -239Q531 -219 511 -217H507Q498 -219 493 -229Q488 -238 482 -244Q474 -248 466 -252Q447 -265 445 -299Q443 -300 440 -300Q432 -297 423 -295Q420 -295 415 -298Q414 -296 405 -279Q400 -298 386 -308Q372 -318 361 -330Q356 -320 356 -302V-268Q356 -254 355 -240Q356 -225 356 -210Q360 -177 363 -145Q363 -133 359 -126Q347 -133 347 -168V-195Q345 -232 340 -250Q334 -248 331 -227Q325 -201 325 -178Q325 -163 328 -150Q333 -113 335 -65Q337 -17 353 14Q360 2 361 -34Q362 -67 367 -78Q370 -31 372 15Q372 30 371 37Q369 64 357 76Q347 87 321 94Q308 88 278 69Q265 43 257 13Q249 -17 224 -31Q224 -34 228 -34Q232 -34 233 -35Q229 -46 217 -50Q206 -54 196 -60H202Q216 -59 229 -59Q240 -59 245 -61Q262 -81 264 -110Q265 -139 267 -167Q271 -209 272 -299Q273 -383 276 -420Q279 -435 282 -450L284 -504Q284 -516 278 -526Q283 -536 283 -548Q283 -563 276 -570Q279 -576 282 -582Q273 -596 261 -609Q249 -623 248 -643Q248 -650 254 -661Q261 -674 261 -683V-685Q271 -697 284 -704Q297 -712 310 -720H323Q349 -720 358 -715Q359 -709 367 -700Q376 -690 376 -685Q376 -681 373 -678Q397 -666 397 -648Q389 -649 380 -656Q371 -663 365 -664Q362 -662 358 -660Q363 -637 374 -577Q395 -579 399 -628Q411 -619 411 -606Q406 -584 392 -563Q390 -547 388 -531Q383 -519 377 -508Q377 -505 376 -502Q377 -497 377 -492Q377 -485 373 -480Q375 -475 377 -471Q372 -463 370 -453V-450Q371 -445 383 -444Q393 -443 396 -439Q399 -439 402 -444Q404 -447 406 -448H407Q411 -448 411 -443V-439Q416 -446 420 -456V-451Q420 -415 439 -402Q451 -414 483 -434Q505 -448 513 -454Q513 -448 507 -444Q500 -439 500 -433Q501 -430 501 -428Q531 -429 568 -439Q613 -452 632 -454V-456Q632 -468 622 -488Q614 -504 614 -514Q614 -520 617 -528Q606 -526 594 -514Q585 -505 578 -502Q569 -508 564 -508Q561 -508 553 -505Q553 -514 559 -514H561Q558 -521 551 -527Q544 -533 543 -535Q534 -534 528 -529L527 -531Q530 -536 532 -541L531 -543Q527 -548 521 -548Q506 -543 493 -538H492Q495 -544 508 -553Q522 -563 525 -573Q510 -570 488 -554Q467 -539 451 -535V-536Q451 -538 466 -550L561 -622Q590 -645 602 -646Q601 -636 584 -625Q565 -612 564 -598Q584 -608 623 -636Q679 -677 715 -688Q718 -699 724 -708Q718 -722 707 -732Q699 -730 695 -722Q692 -714 688 -708Q673 -690 638 -669Q641 -684 664 -706Q690 -731 690 -748Q690 -761 682 -774Q685 -774 688 -775Q696 -773 704 -772Q710 -774 715 -782Q718 -788 722 -789Q725 -789 727 -790Q739 -790 756 -774Q771 -760 778 -759Q783 -747 790 -736Q796 -725 811 -723Q811 -720 810 -718Q810 -712 814 -708Q817 -705 820 -700Q813 -669 815 -629Q816 -589 796 -570Q786 -567 774 -567Q756 -568 737 -569Q721 -569 710 -563Q723 -545 733 -545Q736 -545 738 -546V-526Q738 -489 743 -469Q818 -475 882 -508V-516Q882 -527 886 -529Q890 -527 894 -517Q898 -506 904 -504Q916 -506 927 -508Q931 -508 932 -507L935 -505Q935 -504 931 -501Q926 -497 926 -494V-493Q928 -491 930 -491Q938 -494 945 -497Q945 -492 937 -487Q929 -482 929 -474V-472L932 -471Q936 -471 940 -472H942V-471Q942 -468 939 -468Q937 -468 936 -465Q937 -461 940 -456Q944 -451 944 -447Q952 -448 959 -450Q961 -450 965 -448Q953 -427 953 -415Q953 -406 959 -397Q952 -393 952 -383Q952 -373 950 -364Q931 -354 909 -353Q888 -353 867 -349Q868 -364 884 -364Q900 -365 913 -369Q908 -384 867 -384Q851 -384 829 -382Q735 -373 718 -348Q730 -346 735 -346Q746 -346 770 -351Q789 -355 800 -355Q810 -355 820 -352Q806 -344 774 -339Q730 -332 718 -319Q711 -294 708 -265Q709 -260 709 -255Q713 -254 722 -254Q737 -254 764 -265Q789 -275 802 -275Q809 -275 812 -274Q816 -276 820 -284Q824 -293 830 -295Q829 -289 829 -280Q829 -274 830 -271L832 -270Q838 -273 844 -276H846Q850 -250 864 -250Q872 -250 891 -262Q914 -276 925 -277Q916 -268 906 -259Q896 -250 892 -235L895 -234Q901 -235 906 -237H907Q907 -232 900 -228Q894 -225 894 -219V-218Q894 -205 915 -202Q915 -188 921 -184Q917 -179 917 -171Q917 -153 934 -136Q928 -117 927 -93Q925 -69 913 -55Q893 -60 881 -60H873L872 -64Q872 -67 874 -73Q888 -76 899 -85Q911 -95 911 -107Q911 -114 907 -121Q885 -120 872 -108Q860 -96 846 -85Q842 -86 839 -92Q837 -97 834 -98Q801 -84 785 -53Q769 -22 753 9Q770 6 779 -11Q788 -28 799 -42Q803 -42 805 -38Q807 -34 809 -34Q815 -37 824 -46Q837 -59 848 -61Q851 -57 855 -54Q831 -28 807 -3Q783 23 781 71Z"/>
</svg>