<svg xmlns="http://www.w3.org/2000/svg" viewBox="0 -800 1024 1024">
	<path fill="#000000" d="M881 -621Q874 -608 860 -603Q861 -611 865 -616Q870 -622 876 -622Q879 -622 881 -621ZM72 -499V-497Q72 -491 68 -486Q64 -481 57 -481Q56 -481 52 -483V-488Q56 -494 72 -499ZM884 -173H874V-179Q874 -196 882 -196Q884 -196 888 -194V-192Q886 -183 884 -175ZM666 72V71Q666 63 679 63Q691 63 691 70Q691 77 679 77Q668 77 666 72ZM281 -285V-276Q281 -255 275 -236Q256 -223 236 -223Q221 -223 204 -232Q190 -243 178 -249H176Q168 -249 156 -237Q148 -229 142 -226Q143 -237 151 -245Q160 -254 167 -261Q163 -276 143 -279L141 -280Q145 -284 148 -289V-290Q139 -304 137 -320Q135 -337 131 -354Q143 -355 165 -365Q190 -376 203 -376Q210 -376 213 -375Q227 -371 241 -352Q254 -334 262 -330H263Q267 -332 270 -334L272 -333Q271 -329 271 -320Q271 -298 281 -285ZM290 -99V-97Q289 -92 259 -72Q239 -57 227 -45Q210 -27 204 -6Q216 -9 232 -28Q248 -47 261 -51Q274 -62 276 -64Q285 -70 296 -71Q292 -58 281 -52Q268 -46 258 -38Q246 -22 234 -6Q222 2 210 10Q201 21 194 46Q185 77 172 87Q162 89 160 89Q147 88 138 82Q129 76 120 70Q116 71 111 71Q86 71 64 49Q62 43 62 39Q62 29 68 15Q74 1 74 -4V-5Q74 -10 69 -17Q62 -27 62 -35V-39Q70 -62 86 -83Q92 -94 98 -104Q104 -115 114 -120L116 -117Q114 -108 111 -100V-98Q116 -92 124 -92Q138 -92 172 -116L215 -144Q233 -156 260 -180Q286 -203 298 -210H299Q303 -209 306 -209H307Q299 -197 288 -188Q277 -178 274 -160H275Q279 -160 282 -166Q286 -174 292 -174H295Q289 -162 283 -153Q277 -144 277 -132V-128Q278 -124 283 -115Q290 -104 290 -99ZM272 -603V-598Q272 -580 291 -535Q309 -493 309 -472Q309 -446 287 -431Q278 -425 264 -425Q235 -428 206 -432Q184 -432 173 -416L172 -419Q174 -426 175 -434Q166 -447 151 -447Q139 -447 136 -434Q134 -435 134 -441Q134 -449 136 -455Q132 -458 126 -458Q116 -457 106 -450Q96 -442 89 -436Q72 -420 56 -411Q61 -422 73 -433Q85 -443 96 -455Q115 -479 115 -491Q115 -502 102 -508H100Q94 -505 87 -502L86 -504Q93 -511 99 -519Q97 -545 82 -545H80Q81 -549 86 -551Q91 -553 92 -555V-559Q92 -574 73 -577Q47 -581 43 -584Q51 -588 71 -590Q90 -591 95 -593Q97 -599 105 -608Q117 -621 117 -634Q129 -628 143 -628Q165 -628 172 -643Q172 -664 173 -672H178Q178 -653 185 -639Q193 -623 207 -623H212Q217 -624 220 -627Q223 -631 225 -632Q228 -625 247 -606Q252 -608 258 -616Q267 -627 277 -627L278 -624Q275 -613 272 -603ZM905 87H902Q865 81 828 75Q771 71 714 67Q722 60 743 60Q755 61 767 61Q800 64 832 67Q848 67 857 63Q843 43 788 43Q765 44 741 44Q714 43 687 42Q638 42 626 64Q629 67 635 67Q642 67 648 66Q654 66 658 69Q651 77 638 77Q624 77 611 79Q598 83 585 86H583Q578 86 570 79Q563 74 558 73Q541 37 537 2Q538 -3 538 -8Q541 -22 563 -53Q604 -109 616 -135Q625 -153 632 -167Q640 -182 640 -206Q637 -207 631 -207Q613 -204 598 -198V-196Q600 -181 608 -170Q604 -161 596 -156Q588 -152 580 -146Q573 -141 566 -126Q561 -115 557 -111Q548 -105 540 -97Q527 -83 505 -52Q477 -12 459 3Q465 -21 482 -41Q499 -61 514 -81Q524 -91 527 -105Q527 -108 526 -110Q492 -80 459 -48Q424 -15 416 44H417Q423 44 427 36Q432 27 439 27L443 28Q441 40 430 54Q419 68 417 78Q413 77 408 77Q404 77 401 78Q395 82 388 86Q384 86 376 77Q366 66 358 66Q354 66 348 69V66Q348 54 336 41Q325 28 324 16Q320 6 308 1V0Q308 -3 312 -6Q315 -9 315 -12Q309 -32 305 -56Q311 -56 317 -47Q325 -36 333 -36Q354 -42 373 -60Q404 -83 468 -152Q456 -151 440 -146Q429 -141 419 -133Q410 -126 398 -125H396Q385 -126 378 -135Q371 -145 364 -155Q355 -165 343 -175Q331 -185 330 -202V-206Q331 -212 340 -221Q347 -228 349 -232Q355 -251 360 -264Q370 -277 386 -283Q401 -289 414 -296L417 -294Q414 -293 411 -286V-285Q415 -281 425 -281Q436 -281 446 -282Q455 -282 459 -278Q448 -273 436 -270Q423 -267 420 -255Q428 -244 441 -244Q460 -247 481 -255Q553 -273 594 -296Q587 -300 577 -300Q566 -300 536 -293Q512 -285 492 -281Q487 -281 485 -282Q490 -296 503 -299Q517 -302 529 -304Q555 -307 576 -317V-373Q535 -365 502 -348Q470 -332 438 -314Q427 -316 411 -325Q395 -334 388 -336Q375 -376 355 -386Q351 -419 326 -420Q327 -426 332 -431Q338 -435 342 -440Q350 -458 357 -476Q383 -526 390 -543Q397 -570 410 -572Q409 -557 396 -530Q383 -502 383 -486Q383 -479 384 -476Q394 -487 422 -534Q439 -565 440 -567Q449 -587 449 -603Q449 -617 440 -631H438Q430 -631 427 -618Q425 -607 420 -605Q414 -615 413 -644Q412 -667 408 -678Q399 -690 396 -702L397 -706Q404 -704 411 -697Q420 -688 428 -687V-689Q428 -691 424 -695Q419 -700 419 -704L420 -707H423Q428 -707 435 -701Q443 -695 447 -695Q454 -695 467 -704Q479 -713 484 -713H487Q514 -711 532 -691Q550 -671 569 -653Q569 -643 576 -626Q582 -611 582 -603V-600Q582 -594 574 -584Q566 -573 566 -565V-563Q531 -543 520 -499Q556 -506 589 -521V-531Q591 -578 592 -626Q592 -703 560 -723V-725Q562 -732 564 -740Q564 -742 561 -747Q573 -766 585 -782Q597 -799 623 -803H635Q648 -803 655 -809Q669 -800 682 -795Q689 -770 702 -752Q715 -726 715 -706V-703Q711 -683 700 -656Q685 -604 682 -545Q701 -552 720 -560Q758 -574 759 -574Q766 -573 772 -572H774Q777 -573 784 -579Q791 -585 796 -585H797L800 -583Q799 -579 798 -575V-574Q808 -574 824 -585Q842 -597 852 -597H853Q845 -587 834 -579Q823 -571 820 -555H821Q829 -559 837 -563Q838 -563 842 -561Q842 -557 838 -551Q831 -540 831 -535Q831 -529 837 -524L839 -523Q842 -525 845 -528L847 -527L848 -524Q846 -516 840 -508Q836 -481 829 -452Q818 -442 806 -433Q802 -435 794 -435Q773 -431 752 -428Q757 -440 772 -443Q786 -446 797 -452Q786 -460 770 -460Q747 -459 723 -448Q698 -438 678 -431V-423Q678 -418 679 -416Q698 -419 716 -423Q721 -423 724 -422Q717 -415 698 -410Q678 -404 672 -399Q671 -378 669 -357Q669 -345 672 -338Q723 -352 735 -359Q750 -371 772 -376Q781 -376 788 -370Q801 -376 816 -381Q815 -374 813 -367Q817 -363 822 -363Q833 -366 849 -370H853Q852 -364 847 -359Q841 -352 840 -348Q845 -332 859 -332H863Q856 -325 856 -314Q856 -303 863 -295Q853 -269 844 -242Q836 -243 821 -243Q784 -243 702 -223L701 -222Q705 -216 711 -212Q712 -216 716 -216Q721 -216 726 -209Q734 -217 749 -219H751Q740 -213 740 -204Q740 -190 756 -185Q759 -174 759 -166Q759 -151 752 -134Q714 -121 693 -91Q672 -62 650 -32Q653 -28 656 -28Q661 -30 666 -32Q676 -31 700 -31Q760 -31 806 -39Q828 -43 831 -62Q835 -81 841 -104Q846 -101 846 -84V-81Q846 -66 850 -63Q852 -72 852 -95Q851 -131 850 -168Q850 -184 851 -191Q853 -208 857 -210Q861 -189 862 -146Q863 -83 872 -63Q877 -64 877 -69Q876 -74 874 -80Q872 -110 872 -132Q872 -153 874 -160Q884 -142 884 -116Q888 -83 894 -74L895 -72Q897 -73 899 -75H900Q914 -45 917 -41Q929 -23 946 -17Q946 -2 957 20Q968 43 968 61Q960 66 956 86Q949 83 941 83Q923 85 905 87Z"/>
</svg>