<svg xmlns="http://www.w3.org/2000/svg" viewBox="0 -800 1024 1024">
	<path fill="#000000" d="M872 -120V-132Q872 -139 873 -142Q884 -142 884 -133Q883 -122 872 -120ZM885 -484H883Q875 -484 875 -497Q875 -510 883 -510H885Q887 -507 887 -503Q886 -495 885 -488ZM128 -443Q125 -422 110 -421Q109 -423 109 -427Q111 -442 128 -443ZM623 -48H616Q583 -48 570 -77Q580 -107 619 -113V-114Q619 -126 596 -126H592Q574 -136 570 -155Q578 -163 585 -173Q593 -182 609 -183H614Q615 -188 615 -193Q615 -198 611 -198Q595 -194 577 -188Q560 -182 557 -167V-164Q557 -157 563 -146Q569 -134 570 -128Q568 -97 554 -78Q540 -60 529 -38Q600 -44 608 -45Q613 -44 617 -44Q623 -44 623 -48ZM284 -248H281Q245 -253 213 -258Q199 -258 188 -251L187 -254Q187 -256 191 -259Q197 -263 197 -266Q194 -268 188 -268Q179 -268 166 -257Q154 -247 149 -246Q162 -264 176 -275Q175 -282 163 -297Q151 -313 149 -324Q147 -339 147 -352Q147 -366 137 -377Q143 -374 149 -371Q152 -372 152 -374Q152 -377 151 -380V-381Q174 -392 195 -406H198Q220 -403 241 -400H246Q255 -392 263 -381Q271 -371 287 -370Q298 -346 308 -323Q317 -310 320 -295V-292Q319 -277 308 -267Q296 -257 284 -248ZM228 -475H219Q215 -475 213 -476Q208 -478 199 -484Q190 -490 185 -490Q171 -489 154 -469Q141 -453 131 -449Q134 -461 149 -481Q160 -495 164 -506Q160 -512 152 -512Q136 -508 122 -503Q126 -511 135 -519Q146 -528 148 -533Q145 -538 140 -542Q108 -533 87 -512Q66 -492 40 -476Q47 -491 68 -508Q98 -532 126 -560Q122 -578 99 -578Q90 -577 80 -577Q67 -577 59 -581Q72 -591 94 -591Q103 -591 107 -590Q109 -598 109 -600Q108 -611 99 -615Q90 -620 84 -626H86Q96 -624 105 -623H108Q113 -625 116 -631Q119 -638 123 -640Q121 -657 104 -680Q93 -695 89 -707Q100 -697 110 -686Q121 -676 137 -671Q143 -674 147 -679Q151 -684 160 -685H163Q166 -698 167 -716Q172 -714 175 -700Q178 -686 187 -685Q198 -689 199 -704Q200 -718 200 -734Q202 -733 204 -732Q204 -704 206 -695Q210 -678 222 -673Q226 -674 227 -682Q229 -692 235 -692V-682Q235 -670 238 -665Q244 -659 252 -657Q260 -651 268 -641Q275 -632 285 -631H287L286 -628L287 -625Q294 -623 301 -616Q308 -609 311 -608Q323 -587 337 -568Q350 -548 351 -519Q351 -513 349 -499Q330 -490 326 -473Q286 -461 268 -461Q250 -461 234 -469Q231 -472 228 -475ZM166 84H160Q148 83 129 68Q114 56 104 53Q96 52 89 50Q81 49 75 41Q68 31 68 19Q68 16 67 12Q70 -8 73 -29Q73 -40 66 -48Q67 -86 83 -108Q99 -130 117 -151V-148Q116 -137 114 -126Q114 -118 119 -116Q127 -116 139 -125Q151 -134 160 -134Q164 -134 166 -133V-132Q166 -125 160 -121Q155 -118 151 -114Q149 -111 139 -92Q144 -86 149 -86Q170 -92 188 -111Q237 -145 286 -179Q290 -182 294 -184Q299 -187 299 -192V-194H295Q276 -193 259 -181Q241 -169 225 -158Q209 -150 205 -150L201 -151Q216 -167 237 -179Q292 -218 351 -255H352V-253Q345 -243 337 -233Q332 -225 332 -214Q332 -208 333 -206H334Q335 -206 338 -210Q342 -216 346 -216L349 -215Q348 -209 344 -200Q336 -183 336 -174Q336 -168 339 -161Q344 -165 349 -169Q352 -169 354 -167Q351 -144 347 -121Q347 -100 366 -100Q299 -59 241 -8Q223 10 220 15Q210 36 202 59Q195 82 166 84ZM616 -327H615Q605 -324 597 -315Q547 -322 531 -356Q511 -353 491 -347Q457 -336 453 -333Q445 -325 438 -314Q431 -302 417 -301Q411 -301 408 -302Q402 -315 385 -321Q369 -326 367 -340Q367 -343 372 -348Q378 -353 379 -358V-360Q379 -363 378 -367V-368Q384 -384 400 -394Q415 -404 426 -412Q424 -403 422 -395Q456 -399 476 -407Q496 -414 524 -422V-427Q524 -437 523 -447V-452H519Q507 -452 489 -440Q475 -430 468 -430H466Q456 -430 447 -436Q438 -441 428 -446V-449Q430 -452 432 -456Q423 -467 410 -476Q442 -488 527 -531Q526 -535 526 -545V-572Q476 -548 462 -515Q446 -508 434 -508Q419 -508 410 -516Q404 -523 398 -531Q388 -538 377 -544Q366 -551 364 -566Q367 -578 370 -590V-594Q369 -606 368 -618Q368 -623 370 -631Q380 -640 393 -657Q413 -682 425 -691Q416 -677 416 -670V-668Q420 -666 422 -666Q438 -670 453 -674Q465 -684 477 -684Q482 -684 484 -683Q477 -671 451 -664Q426 -658 422 -641Q429 -637 438 -637Q454 -637 489 -657Q514 -669 526 -686Q523 -690 513 -690Q506 -690 503 -689V-690Q504 -700 516 -707Q528 -714 539 -723Q544 -734 551 -742Q566 -753 588 -753Q613 -753 614 -734H616Q619 -735 622 -737H623V-719Q627 -720 632 -727Q638 -735 646 -735Q644 -729 635 -706Q652 -683 662 -651Q640 -620 633 -606Q619 -579 617 -550Q617 -515 611 -487Q602 -493 602 -511Q603 -525 603 -540Q603 -552 601 -557Q582 -553 582 -492Q582 -464 588 -439Q594 -413 604 -409Q607 -417 607 -429Q607 -442 617 -443Q616 -438 616 -430Q621 -389 625 -349V-341Q624 -339 620 -337Q615 -335 615 -331ZM920 -51V-50Q921 -47 926 -47Q932 -47 933 -45Q930 -39 930 -32Q933 -12 944 6Q941 12 941 18Q941 24 946 34Q943 41 931 47Q918 54 915 61Q858 52 800 43Q800 36 811 35Q824 34 826 31Q825 22 812 16Q800 10 786 10Q762 10 758 25Q759 32 770 32Q781 32 782 37Q781 44 774 44Q773 44 761 41Q742 40 701 40Q659 40 637 41Q629 42 621 42Q612 42 610 34Q647 26 694 26Q709 26 737 28Q741 24 745 19Q738 11 700 9H676Q633 9 616 10Q573 13 571 13Q549 17 543 31Q545 36 559 36H561Q576 36 578 43Q555 51 532 59Q508 67 496 92Q493 90 484 90H475Q439 68 416 27Q426 13 428 -8V-11Q447 -22 456 -42Q464 -62 471 -82Q468 -89 454 -94Q444 -97 441 -100Q436 -108 431 -117Q422 -128 410 -137Q398 -147 394 -161Q388 -169 381 -177Q388 -192 405 -197Q421 -203 428 -218Q420 -223 414 -223Q402 -223 378 -202H374Q368 -202 363 -205Q370 -215 381 -221Q392 -226 404 -232Q469 -274 502 -302Q508 -308 514 -314Q519 -321 529 -321Q535 -321 539 -320L554 -326Q564 -321 580 -304Q595 -288 608 -284Q613 -287 631 -289Q630 -295 630 -307Q630 -341 658 -350Q642 -359 642 -381Q642 -396 647 -416Q671 -431 694 -446L695 -442Q692 -435 688 -428V-427Q730 -432 774 -443Q778 -468 782 -493Q755 -492 736 -482Q718 -472 699 -462Q677 -475 655 -488V-492Q655 -497 658 -499Q656 -508 638 -508H631Q634 -516 640 -518Q647 -520 653 -524Q657 -527 662 -534Q668 -543 672 -545Q694 -555 720 -562Q750 -575 764 -585Q775 -583 785 -581Q787 -584 787 -592Q786 -603 785 -614Q785 -620 788 -628Q778 -625 760 -610Q745 -597 733 -597H729Q718 -598 707 -616Q696 -634 684 -637V-639Q684 -647 679 -651Q674 -654 669 -660Q670 -687 664 -709Q673 -710 687 -718Q700 -725 709 -726Q721 -737 756 -752Q788 -766 802 -775Q816 -786 829 -798Q842 -811 860 -812H866Q876 -810 883 -804Q889 -798 896 -792Q904 -794 911 -797Q907 -787 903 -778Q909 -775 909 -767Q913 -768 917 -771Q921 -775 925 -775H927L930 -773Q928 -768 926 -763V-761Q934 -772 950 -775H952Q952 -774 948 -766Q940 -751 940 -743Q944 -731 950 -723V-717Q950 -710 949 -704Q949 -698 953 -695Q953 -692 948 -688Q944 -684 943 -679Q915 -669 902 -636Q894 -616 887 -569Q881 -575 881 -592V-625Q853 -616 853 -536Q854 -504 854 -473V-466Q854 -443 857 -433Q862 -417 875 -412Q879 -416 879 -425Q878 -438 877 -451Q877 -461 881 -465Q886 -461 887 -453Q888 -446 888 -439Q895 -377 905 -359Q899 -351 899 -341V-338Q884 -335 876 -326Q871 -325 862 -325Q839 -325 802 -338Q801 -347 791 -357Q784 -364 782 -370Q761 -368 740 -365Q719 -362 711 -347Q716 -340 723 -335Q729 -329 732 -320Q775 -324 794 -333Q798 -317 826 -317H832Q831 -310 829 -304H831Q839 -307 854 -311H856Q854 -305 846 -298Q836 -289 835 -281V-279Q835 -274 843 -274Q834 -264 826 -253Q819 -242 807 -235Q802 -235 796 -236Q791 -236 791 -230Q788 -234 778 -236Q770 -238 767 -240Q768 -248 782 -249Q792 -250 794 -252Q784 -266 759 -266Q725 -266 693 -248Q697 -237 709 -237Q723 -238 736 -240Q745 -240 749 -236Q744 -233 727 -230Q707 -226 700 -221Q704 -218 705 -212Q728 -212 742 -217H743L744 -216Q744 -213 743 -211L745 -209Q751 -210 759 -215Q769 -221 772 -221H774Q774 -216 767 -210Q759 -203 759 -198L760 -195Q761 -189 770 -188Q763 -178 758 -164Q751 -163 727 -151H724Q709 -151 709 -144V-142Q711 -141 716 -141Q738 -144 762 -151Q766 -150 769 -145Q771 -141 774 -140Q796 -152 804 -152H808Q807 -148 800 -142Q793 -135 792 -129Q792 -122 797 -115Q802 -108 802 -102V-97Q796 -77 772 -74Q749 -71 724 -68Q708 -65 704 -64Q694 -60 693 -51Q723 -49 762 -49Q804 -49 828 -53Q839 -54 850 -65Q852 -77 854 -82Q856 -81 856 -74Q856 -68 859 -67Q864 -72 865 -88Q867 -105 870 -110Q874 -80 887 -62Q896 -59 902 -59Q915 -61 927 -63L929 -62Q929 -60 925 -57Q920 -53 920 -51Z"/>
</svg>