<svg xmlns="http://www.w3.org/2000/svg" viewBox="0 -800 1024 1024">
	<path fill="#000000" d="M359 8V6Q361 5 364 5Q372 5 375 12Q373 16 368 16Q359 16 359 8ZM487 -229Q484 -233 478 -233Q463 -231 455 -222Q479 -226 487 -229ZM240 -735V-737Q256 -734 258 -716Q240 -718 240 -735ZM517 -156Q485 -150 452 -144Q420 -137 399 -121Q427 -129 458 -131Q489 -134 516 -137Q518 -145 518 -148Q518 -153 517 -156ZM440 -367V-363Q440 -353 445 -348Q493 -371 548 -381Q554 -393 560 -405Q554 -408 546 -408Q529 -408 493 -390Q467 -381 440 -367ZM873 -112V-109Q872 -98 862 -87Q852 -76 850 -68Q789 -76 728 -76Q657 -76 600 -66Q597 -2 567 52V46Q567 33 577 7Q589 -24 589 -39Q589 -44 587 -54Q575 -41 570 -23Q565 -5 557 14Q548 30 535 46Q523 61 522 82Q522 88 523 92H524Q529 92 536 85Q544 77 552 77H554Q545 103 510 126Q499 125 488 124Q483 124 481 125Q473 119 466 111Q458 104 446 101Q443 92 430 81Q421 74 418 69Q419 68 423 68L427 69Q423 55 406 41Q387 26 382 15Q391 17 399 23Q408 30 415 32Q412 23 393 11Q372 -3 368 -15Q378 -15 398 2Q420 20 434 20H436Q452 16 466 -8Q480 -31 490 -48Q434 -37 382 -29Q330 -20 292 11Q287 16 283 22Q280 28 271 29Q267 24 267 19Q267 11 284 2Q301 -7 301 -13V-15Q300 -22 293 -22Q279 -17 261 -5Q249 -1 235 2Q220 5 219 16V17Q219 27 235 27Q251 28 254 39H248Q225 39 215 36Q199 31 196 17Q145 0 141 -25Q140 -28 140 -34Q140 -64 171 -81V-83Q172 -102 185 -107Q198 -112 215 -118Q230 -125 243 -135Q256 -146 274 -147H276Q270 -140 259 -133Q248 -126 247 -115Q247 -114 249 -108H250Q254 -108 257 -113Q262 -120 267 -120H268Q270 -119 270 -116Q269 -111 268 -107Q268 -106 270 -102Q312 -108 353 -114Q353 -121 339 -138Q322 -159 322 -168Q322 -179 338 -186Q340 -211 373 -226V-224Q371 -218 368 -213Q372 -212 381 -212Q413 -215 445 -219Q442 -238 419 -238Q411 -238 407 -237V-238Q407 -240 412 -241Q415 -242 416 -244Q412 -247 407 -247Q397 -245 386 -243Q383 -243 381 -244Q406 -260 432 -273Q458 -286 477 -307Q464 -303 446 -293Q424 -280 412 -278Q389 -286 365 -291L364 -294Q365 -297 368 -298Q366 -315 342 -347Q319 -378 316 -395V-401Q316 -423 350 -444Q338 -440 319 -435Q300 -429 287 -417Q289 -411 302 -405Q301 -403 301 -400Q305 -390 314 -384Q318 -371 318 -356Q318 -315 286 -294Q264 -296 242 -299Q225 -299 219 -290Q216 -300 207 -310Q197 -321 188 -321Q181 -321 174 -313Q175 -316 175 -322Q175 -334 161 -344Q148 -353 147 -364Q155 -363 163 -354Q170 -346 177 -345Q180 -345 181 -350Q182 -354 184 -354Q176 -374 160 -390Q142 -408 130 -408Q124 -408 120 -404Q121 -398 129 -390Q136 -383 138 -376H135Q122 -377 115 -388Q109 -399 104 -410Q86 -428 70 -459Q69 -465 68 -471Q65 -486 65 -489Q65 -512 86 -516V-519Q88 -526 94 -530Q92 -536 92 -539Q92 -546 95 -551Q100 -550 104 -545Q108 -539 111 -539H113Q123 -541 133 -551Q142 -540 165 -531Q188 -522 196 -513Q204 -515 351 -555Q341 -562 329 -570Q317 -578 305 -579Q295 -579 287 -571V-573Q287 -582 299 -590Q292 -596 276 -606Q263 -603 243 -591Q225 -581 213 -577Q222 -589 244 -603Q264 -616 271 -623Q271 -631 265 -633Q258 -635 252 -636V-638Q252 -643 257 -643Q262 -644 267 -645Q266 -649 260 -654Q256 -658 255 -662V-664Q255 -670 260 -679Q266 -690 266 -695Q266 -703 261 -708Q278 -697 289 -695Q293 -695 299 -698Q304 -704 305 -714Q314 -710 314 -703Q317 -704 324 -704Q326 -704 356 -698Q360 -705 362 -714Q363 -722 370 -726Q369 -705 376 -692H377Q381 -692 384 -697Q386 -701 389 -701L393 -700Q392 -696 392 -688Q392 -661 415 -656Q417 -646 428 -626Q440 -605 440 -591Q440 -584 439 -580Q456 -583 472 -587Q472 -699 421 -738Q427 -742 433 -746V-759Q449 -772 490 -792Q524 -808 539 -819Q556 -814 566 -798Q576 -782 585 -764Q602 -736 602 -726Q602 -715 590 -711Q586 -760 558 -775Q552 -769 552 -764Q552 -759 559 -747Q565 -736 566 -728V-726Q566 -718 560 -696Q554 -674 554 -660Q554 -651 557 -642Q564 -647 569 -671Q574 -695 582 -698V-691Q577 -651 566 -609Q615 -619 664 -629Q654 -637 644 -645Q639 -644 636 -641Q631 -636 627 -636L626 -640Q626 -642 630 -648Q622 -648 617 -644Q613 -640 607 -637L605 -639Q610 -644 615 -653Q613 -654 609 -654Q603 -654 595 -647Q586 -639 579 -639Q598 -663 622 -689Q647 -714 662 -746L663 -748Q663 -750 660 -752Q655 -756 655 -759Q686 -783 716 -804Q733 -804 746 -807Q762 -792 784 -750Q793 -738 799 -725V-723Q796 -708 793 -693Q794 -690 794 -687Q716 -681 681 -634Q721 -640 761 -647Q801 -653 832 -674H837Q856 -674 867 -663Q882 -670 893 -674H895L896 -672Q896 -671 891 -667Q882 -660 881 -656Q884 -649 890 -645Q895 -647 900 -649H901Q905 -649 905 -640Q912 -645 918 -651Q924 -658 935 -659Q917 -639 917 -627Q924 -605 938 -583Q935 -569 935 -557Q935 -543 938 -528Q925 -509 912 -491Q886 -495 876 -495Q836 -495 799 -474Q791 -470 738 -432Q726 -464 704 -485L703 -487Q705 -491 707 -495Q705 -496 699 -496H691Q681 -496 678 -499Q688 -513 698 -527Q696 -528 691 -528Q665 -523 638 -518Q630 -518 625 -522Q633 -530 665 -535Q691 -539 698 -545Q691 -553 676 -553Q671 -552 665 -552Q650 -551 587 -542Q563 -540 496 -521Q465 -512 454 -508Q432 -499 421 -485Q435 -483 441 -483Q464 -483 499 -495Q539 -509 563 -510V-509Q562 -499 554 -498Q546 -496 538 -495Q509 -487 480 -479Q463 -476 446 -474Q411 -462 375 -451Q396 -438 403 -436Q473 -459 542 -482Q570 -497 601 -500Q614 -500 630 -494Q632 -496 633 -499H634Q639 -498 651 -497Q665 -496 671 -492Q696 -471 708 -448Q712 -436 714 -425Q716 -415 726 -408V-405Q728 -393 729 -382Q729 -376 727 -373Q707 -364 683 -364H678V-366Q679 -370 680 -375Q694 -377 699 -382Q699 -395 678 -398H677Q655 -398 628 -375Q601 -352 596 -329Q597 -325 600 -324H601Q607 -324 622 -338Q637 -352 645 -352Q651 -352 655 -348Q620 -326 599 -295H597Q586 -297 579 -303Q582 -286 584 -269Q584 -261 581 -255Q557 -245 555 -243Q558 -240 560 -240Q568 -243 575 -247Q594 -252 619 -255Q644 -259 659 -270H663Q673 -270 679 -274Q685 -278 692 -281Q690 -274 687 -267Q690 -257 704 -257Q714 -257 724 -258Q724 -253 719 -252Q714 -251 710 -249Q709 -241 707 -234Q707 -228 714 -228Q702 -214 702 -193V-189Q696 -181 687 -177Q677 -178 655 -178Q614 -178 591 -169Q592 -162 593 -155V-152Q637 -160 689 -166Q701 -169 705 -169Q712 -169 713 -162Q702 -157 667 -154Q621 -150 610 -135Q614 -130 623 -130Q640 -132 656 -134Q693 -136 731 -140Q769 -144 793 -160Q789 -166 776 -166H768Q754 -166 751 -171Q756 -181 775 -181Q779 -180 782 -180Q789 -186 805 -186Q807 -187 809 -194Q811 -202 816 -203Q821 -199 823 -191Q825 -184 828 -183H829Q840 -185 851 -188Q854 -187 856 -187Q855 -185 851 -183Q847 -181 846 -177V-175Q848 -169 852 -163Q860 -165 867 -168Q870 -168 873 -165Q867 -156 861 -147V-145Q861 -140 867 -129Q873 -118 873 -112Z"/>
</svg>