<svg xmlns="http://www.w3.org/2000/svg" viewBox="0 -800 1024 1024">
	<path fill="#000000" d="M56 -83H47Q36 -83 35 -88Q37 -94 44 -94Q51 -94 55 -91V-89Q56 -86 56 -84ZM947 -91V-92Q949 -103 959 -104Q965 -104 968 -100Q960 -90 952 -90Q949 -90 947 -91ZM718 -274H721Q723 -278 723 -284V-287Q711 -286 700 -283Q690 -279 688 -267Q703 -270 718 -274ZM694 -347H697Q713 -349 728 -352L727 -356Q728 -363 729 -370Q729 -373 728 -377Q717 -372 706 -366Q695 -361 694 -347ZM721 -194V-209H711Q679 -209 679 -187V-186ZM730 -481V-486Q730 -507 724 -519Q680 -512 663 -499Q673 -497 681 -482Q687 -471 694 -468Q712 -474 730 -481ZM343 6V3Q346 -3 349 -10Q350 -13 350 -17Q350 -25 343 -33Q338 -39 337 -42Q339 -43 345 -44Q351 -45 354 -51Q349 -68 338 -79Q326 -90 315 -101Q327 -100 340 -90Q353 -80 361 -80H364Q381 -82 389 -111Q400 -151 405 -158Q377 -194 374 -197Q338 -167 311 -125Q297 -105 282 -86Q277 -76 272 -64Q267 -52 253 -51Q258 -69 273 -92Q289 -116 293 -129Q291 -129 288 -130Q275 -129 269 -117Q263 -104 256 -92Q238 -69 219 -42Q211 -29 203 -15Q196 -2 195 11Q196 15 196 18H197Q203 18 210 8Q218 -4 227 -4H231Q230 6 223 18Q214 32 214 42V46Q208 51 202 56Q186 54 183 54Q172 54 158 61V59Q160 54 161 48V46Q158 38 148 38Q145 38 139 40V34Q139 18 132 18H130Q124 -18 97 -26Q113 -34 123 -47Q116 -59 91 -70Q69 -80 62 -88Q75 -87 96 -78Q110 -72 121 -70Q107 -84 71 -95Q44 -103 32 -111H39Q69 -107 97 -98Q145 -89 146 -89H149Q164 -92 178 -106Q192 -121 202 -132Q299 -233 330 -290Q300 -276 270 -262Q239 -248 222 -220Q199 -211 182 -196Q166 -180 151 -164Q144 -166 135 -174Q126 -182 120 -185Q116 -187 82 -195Q61 -200 56 -215Q56 -252 63 -264Q60 -271 47 -289V-292Q47 -309 54 -322Q55 -324 71 -346Q91 -380 115 -410Q126 -422 136 -432Q146 -442 161 -447Q155 -436 145 -423Q134 -411 133 -394V-389Q128 -381 128 -372Q128 -360 137 -350Q145 -341 157 -341Q184 -356 253 -382Q311 -404 339 -418Q355 -424 355 -430V-431H345Q320 -431 275 -413Q232 -396 205 -395Q208 -406 219 -409Q229 -412 238 -415Q266 -425 295 -437Q325 -450 351 -455Q351 -536 315 -557Q317 -565 317 -567Q317 -576 305 -588Q294 -598 294 -605Q294 -611 299 -617Q305 -624 306 -629Q313 -635 327 -642Q345 -651 352 -657Q361 -666 372 -677Q383 -689 396 -690Q406 -690 414 -683Q427 -670 443 -648Q454 -635 466 -618Q478 -601 479 -581V-578Q479 -572 471 -559Q462 -544 462 -535Q463 -532 463 -530Q449 -529 443 -516Q438 -505 437 -485Q483 -500 529 -515Q526 -507 520 -506Q513 -506 511 -497V-496Q511 -494 515 -494Q519 -494 523 -495L526 -494Q516 -475 515 -468V-467Q519 -468 522 -469L524 -467Q524 -464 517 -458Q508 -450 508 -443Q513 -432 521 -425L514 -408Q515 -404 521 -400Q528 -396 529 -390Q484 -383 416 -346Q417 -344 425 -323Q451 -337 472 -337Q482 -337 494 -332Q499 -333 501 -337Q503 -342 509 -343L510 -340Q509 -336 508 -332V-329Q510 -328 514 -328Q521 -328 531 -336Q542 -345 550 -346Q540 -330 529 -315Q529 -313 539 -311Q529 -298 529 -282Q533 -249 537 -216Q537 -205 536 -200Q515 -182 501 -157Q487 -132 473 -108Q474 -135 489 -165Q490 -167 517 -212Q513 -234 508 -242Q492 -227 483 -203Q474 -180 465 -154Q456 -131 447 -107Q439 -83 438 -58Q438 -51 440 -39Q445 -41 449 -51Q454 -62 462 -63Q456 -25 423 67Q415 63 403 63Q391 64 379 64Q373 60 365 54Q357 48 354 38Q351 28 350 19Q349 10 343 6ZM913 70V73Q905 89 881 99Q850 92 831 75Q811 57 795 36Q771 0 734 -23Q725 -46 721 -70Q721 -77 724 -85Q698 -81 647 -63Q650 -59 653 -50Q656 -40 662 -35Q665 -35 668 -39Q672 -44 676 -44H679Q675 -26 675 -16Q675 1 682 12Q675 31 668 50H666Q661 50 660 54Q658 57 656 58Q648 60 644 60Q622 58 608 38Q594 19 583 7V4Q585 -14 587 -32Q587 -39 586 -42Q566 -33 561 -17Q510 -21 505 -73V-75Q507 -83 508 -92Q504 -106 500 -120V-123Q505 -131 509 -140V-143Q509 -149 508 -155Q508 -158 509 -160Q514 -178 534 -178Q548 -178 561 -167H567Q579 -167 579 -158Q575 -156 570 -154Q564 -152 564 -146V-145Q566 -137 573 -134Q575 -133 580 -133Q589 -133 613 -142Q636 -150 650 -152Q688 -152 711 -163V-170Q701 -173 690 -173Q677 -173 646 -166Q620 -160 605 -160H600Q600 -167 607 -170Q608 -170 620 -173Q620 -180 613 -195Q608 -206 607 -215V-219Q612 -247 617 -283Q617 -293 614 -304Q579 -318 579 -355Q579 -367 571 -386Q565 -400 564 -405V-422Q563 -425 558 -431Q552 -438 552 -444Q579 -441 582 -441Q602 -441 611 -449V-451Q609 -462 607 -473Q607 -477 611 -481Q592 -475 573 -470Q566 -482 542 -496Q548 -503 548 -513Q545 -537 529 -551Q548 -577 558 -606Q562 -607 566 -609H568V-607Q567 -598 565 -589V-587Q582 -593 597 -632Q613 -670 613 -691Q613 -706 608 -716Q599 -714 598 -705Q598 -696 597 -689Q589 -647 574 -635V-637Q574 -649 580 -671Q586 -693 586 -702Q586 -723 565 -732H560Q551 -731 542 -731H539Q541 -740 557 -745Q569 -749 573 -753Q571 -759 555 -761Q565 -765 585 -787Q613 -817 629 -817Q632 -816 634 -816Q645 -814 667 -789Q690 -762 705 -758Q704 -756 704 -752Q704 -738 716 -738H717Q711 -735 711 -727Q711 -714 720 -713Q692 -682 681 -663Q663 -633 660 -596Q663 -594 672 -594Q708 -599 733 -611Q750 -616 767 -623Q776 -626 793 -630Q809 -635 811 -646V-648Q810 -655 798 -655Q784 -655 749 -641Q711 -627 699 -626Q701 -639 712 -642Q723 -646 738 -650Q746 -652 765 -662Q783 -667 801 -672Q807 -675 812 -680Q817 -685 824 -685Q830 -695 836 -706Q854 -693 868 -678H870Q884 -681 897 -685H899Q883 -672 883 -661Q883 -653 894 -653Q889 -648 889 -640Q892 -623 894 -607V-603Q891 -597 886 -592Q881 -587 880 -579Q880 -576 881 -574Q880 -572 877 -570Q872 -567 872 -564L873 -560Q850 -552 826 -545Q827 -541 834 -538Q839 -536 841 -534Q828 -508 826 -502Q839 -505 851 -508Q852 -508 860 -506Q859 -504 855 -502Q850 -499 850 -496Q853 -487 863 -487Q871 -488 879 -490Q869 -482 859 -474Q859 -466 860 -458Q861 -450 868 -447Q860 -443 860 -430Q859 -418 857 -407Q856 -408 849 -408Q833 -408 827 -405Q813 -399 813 -374Q816 -340 819 -306Q819 -292 815 -283H814Q810 -283 807 -293Q804 -302 804 -325V-351Q804 -378 798 -390Q787 -388 787 -372Q788 -362 788 -353Q793 -261 807 -233Q810 -246 811 -260Q819 -259 819 -237Q819 -220 823 -215Q838 -217 849 -223Q860 -230 871 -236Q877 -205 912 -205H918Q914 -200 908 -195Q902 -191 901 -184Q901 -180 904 -176L907 -175Q912 -176 916 -177Q920 -177 921 -173Q903 -166 900 -149Q897 -131 894 -110Q889 -111 879 -111Q860 -111 830 -104Q805 -98 794 -98H788Q809 -86 836 -74Q844 -76 854 -84Q866 -93 871 -94Q864 -84 859 -71Q864 -66 870 -66Q886 -69 899 -76Q928 -87 941 -88Q936 -81 913 -74Q882 -64 882 -51V-50Q882 -38 895 -38Q903 -38 927 -46Q942 -51 948 -51H949Q937 -42 925 -35Q913 -27 906 -14Q908 2 939 2H952Q949 7 941 8Q934 9 928 12Q917 36 913 70Z"/>
</svg>