<svg xmlns="http://www.w3.org/2000/svg" viewBox="0 -800 1024 1024">
	<path fill="#000000" d="M101 -511L105 -508Q104 -500 97 -496Q96 -495 84 -490Q88 -496 91 -502Q94 -508 101 -511ZM240 -252H239Q237 -253 237 -257V-264Q237 -268 233 -271Q227 -268 221 -268Q209 -269 196 -271Q186 -271 182 -263V-266Q178 -284 163 -286Q154 -285 150 -277Q145 -268 140 -263Q139 -265 139 -270Q139 -286 150 -292Q142 -307 128 -327Q112 -348 107 -364V-365Q107 -374 117 -382Q129 -392 129 -404Q165 -410 181 -415V-433Q185 -424 190 -416Q195 -407 206 -406Q214 -412 224 -417Q227 -408 234 -406Q237 -405 252 -404Q267 -401 282 -384Q301 -359 311 -328Q304 -307 284 -291Q283 -290 246 -265Q244 -261 244 -257Q244 -252 240 -252ZM367 -510V-502Q363 -456 305 -451V-452Q305 -462 321 -468Q340 -475 343 -479Q347 -485 347 -492Q347 -503 339 -507Q328 -482 292 -482Q280 -482 243 -489Q245 -480 253 -475Q260 -471 269 -468Q287 -465 292 -448H290Q287 -448 283 -444Q277 -449 256 -456Q228 -466 221 -479Q207 -477 196 -466Q194 -464 179 -445Q176 -448 176 -451Q176 -458 185 -470Q196 -485 204 -490Q198 -503 185 -503Q164 -501 154 -487Q154 -496 162 -504Q169 -511 170 -516Q162 -541 148 -541Q141 -541 132 -535Q127 -532 122 -526Q114 -516 108 -516H107Q111 -529 127 -545Q139 -558 143 -565Q140 -575 137 -585Q134 -595 125 -601Q118 -601 116 -597L115 -601Q115 -605 129 -608Q126 -623 116 -631Q106 -638 96 -645Q98 -646 102 -646Q111 -645 119 -645H123Q134 -646 156 -659Q170 -668 179 -670Q177 -676 177 -681Q177 -694 182 -699L185 -697V-693Q185 -677 199 -669Q212 -661 233 -661H240Q249 -687 262 -696Q265 -691 265 -689Q262 -677 258 -665V-663Q260 -658 267 -654Q272 -651 275 -648Q282 -650 288 -652H292Q313 -629 346 -622Q346 -617 345 -613Q345 -598 356 -564Q367 -530 367 -510ZM178 89H175Q128 84 112 63Q104 46 101 26Q87 2 84 -23Q84 -31 89 -48Q99 -64 115 -82Q120 -89 127 -108Q136 -131 145 -139Q144 -128 143 -117Q143 -105 149 -100Q211 -145 265 -199Q316 -250 386 -282Q383 -278 353 -251Q332 -232 331 -214Q334 -215 351 -233Q364 -246 378 -247Q375 -239 362 -226Q343 -207 343 -191V-187H344Q345 -187 348 -191Q351 -196 356 -196H359V-195Q359 -192 352 -186Q348 -183 346 -180Q343 -172 343 -166Q343 -148 357 -128Q348 -110 348 -105Q348 -99 353 -94Q307 -60 267 -19V-21Q269 -48 286 -59Q304 -70 315 -88Q287 -76 264 -60Q241 -43 218 -27Q212 -19 204 -8Q197 3 196 14Q196 21 202 27Q212 24 223 6Q236 -16 254 -16Q240 9 224 50Q210 86 178 89ZM577 -325V-323Q577 -317 567 -317Q560 -317 556 -319Q558 -328 569 -328H575ZM892 -765H895V-762Q895 -753 888 -750Q882 -746 875 -742Q879 -755 880 -758Q884 -765 892 -765ZM642 -455V-466Q627 -463 612 -461Q611 -456 611 -449V-430Q628 -431 641 -437Q642 -440 642 -455ZM909 -196Q908 -187 897 -176Q892 -183 892 -195Q892 -202 895 -205Q903 -204 909 -196ZM564 -419V-444Q538 -440 530 -435Q532 -423 534 -412Q549 -415 564 -419ZM644 -535V-560Q638 -558 612 -554V-510Q644 -519 644 -535ZM558 -490V-521Q533 -511 522 -503Q523 -490 523 -478Q524 -479 558 -490ZM657 -181Q593 -179 562 -142Q564 -141 571 -141Q591 -144 613 -155Q640 -163 657 -181ZM650 -37V-53Q650 -63 646 -64L643 -65Q635 -61 629 -55V-56Q629 -67 640 -79Q649 -89 649 -95V-98Q602 -96 589 -74Q598 -47 607 -20Q624 -25 664 -25Q667 -41 670 -58Q670 -64 668 -67Q658 -65 656 -55Q654 -45 650 -37ZM704 -449H708Q732 -524 758 -596Q755 -597 747 -597Q732 -597 699 -583Q698 -575 698 -557V-548Q706 -550 714 -553Q717 -553 721 -551Q717 -549 715 -544V-542Q720 -538 728 -535Q719 -531 719 -515V-509Q710 -502 710 -496Q710 -493 711 -491Q694 -490 689 -475Q686 -467 685 -442Q698 -449 704 -449ZM646 -347L695 -358Q693 -360 693 -367Q693 -375 689 -377Q579 -369 521 -322Q535 -322 545 -319Q542 -315 530 -312Q518 -309 515 -304Q518 -300 521 -295Q524 -290 531 -289Q567 -299 605 -307Q642 -316 671 -332Q664 -335 655 -335Q646 -335 629 -330Q616 -326 610 -326H607Q611 -337 622 -341Q633 -344 646 -347ZM895 95H891Q861 91 840 83Q812 75 784 66Q779 67 773 67Q766 67 766 61V58Q769 56 779 55Q795 54 799 50Q786 25 747 25Q740 26 732 26Q731 29 731 33Q732 41 738 45Q745 50 751 53Q677 49 649 49Q605 49 566 56Q572 40 598 39Q624 38 650 37Q665 36 680 34Q690 34 699 40Q704 36 709 32Q701 14 666 14Q665 14 617 17Q510 23 478 59Q483 70 502 70Q511 70 525 68Q515 78 500 83Q484 89 470 95Q448 103 419 126Q401 116 383 108Q364 99 358 80Q357 76 357 66Q359 49 360 32Q362 7 383 -37Q385 -34 385 -28Q385 -18 389 -17Q393 -23 394 -40Q396 -57 399 -63Q404 -57 404 -39Q404 -19 409 -14Q441 -7 485 -7Q508 -7 520 -8Q525 -12 525 -19Q524 -29 523 -40Q523 -48 528 -52Q498 -91 467 -129Q468 -134 468 -139Q466 -160 457 -179Q448 -177 439 -175Q425 -180 422 -195Q393 -206 390 -239V-245Q396 -259 400 -271Q400 -275 399 -277Q411 -293 420 -312Q430 -331 456 -335V-334Q456 -332 450 -329Q441 -324 441 -319L442 -316Q454 -314 457 -314Q479 -317 500 -320Q479 -337 472 -346Q459 -363 457 -385Q463 -382 471 -374Q479 -366 484 -364Q488 -366 491 -368Q480 -388 472 -411Q464 -433 442 -443Q438 -438 438 -427Q438 -421 440 -411L438 -410Q435 -410 429 -417Q422 -425 420 -425Q417 -425 416 -421Q413 -429 403 -442Q389 -460 389 -473V-475Q389 -479 392 -488Q392 -501 391 -515Q391 -524 392 -529Q396 -541 401 -552Q406 -564 407 -576V-580Q403 -595 396 -611H398Q402 -611 408 -602Q414 -594 419 -592Q420 -595 420 -601Q420 -613 409 -631Q396 -652 396 -664Q404 -656 415 -638Q428 -616 437 -608Q439 -611 439 -617Q439 -622 433 -635Q427 -648 427 -658Q436 -650 443 -640Q450 -630 464 -626Q468 -626 469 -630Q471 -635 473 -635Q483 -631 493 -613Q502 -596 511 -592Q527 -598 539 -607Q537 -613 537 -626Q537 -652 551 -662V-664Q550 -669 549 -674H552Q559 -674 573 -681Q585 -687 593 -687Q596 -687 599 -686Q608 -683 614 -666Q620 -649 627 -646Q644 -657 646 -658Q641 -693 620 -709V-710Q622 -716 629 -719Q626 -722 624 -722Q617 -720 609 -718H607V-721Q608 -728 616 -735Q624 -742 631 -749Q659 -783 678 -783Q687 -783 692 -779Q703 -773 704 -758L701 -757Q694 -760 687 -764H686Q682 -759 682 -750Q682 -726 712 -704Q715 -708 715 -713Q712 -726 709 -740V-742Q732 -737 734 -692Q764 -702 785 -719Q806 -736 828 -755Q830 -748 831 -742V-740Q845 -740 858 -731Q866 -735 874 -739V-737Q874 -729 873 -721Q873 -714 879 -710Q899 -723 918 -737Q913 -728 904 -713Q894 -699 893 -683Q893 -675 897 -668Q899 -668 903 -672Q909 -679 913 -679V-676Q909 -663 905 -650V-647Q907 -634 909 -621Q908 -596 895 -580Q881 -564 865 -546Q863 -552 863 -554Q866 -568 871 -581Q868 -585 864 -587Q849 -586 844 -568Q818 -561 809 -537Q799 -512 789 -487Q769 -453 764 -426Q764 -423 766 -415Q780 -427 798 -462Q822 -507 844 -518Q840 -489 813 -449Q785 -408 781 -380H784Q805 -384 826 -388Q837 -388 841 -380Q858 -387 861 -388Q856 -377 853 -367Q853 -362 857 -358H861Q879 -358 885 -350L881 -349Q875 -349 869 -350H864Q858 -351 858 -337Q858 -329 861 -329H863V-328Q859 -320 854 -313Q854 -310 860 -308Q848 -303 843 -294Q838 -285 833 -275Q802 -281 755 -286H747Q698 -286 595 -253Q553 -241 514 -228Q475 -214 461 -184Q464 -178 471 -175Q482 -201 505 -215Q508 -214 516 -214Q524 -214 554 -224Q584 -234 620 -241Q639 -246 701 -280Q736 -280 751 -271Q756 -255 765 -255Q771 -255 775 -259Q771 -253 771 -233L773 -232Q775 -234 777 -236V-234Q776 -228 775 -222Q775 -218 779 -215H782Q790 -218 798 -222Q801 -222 803 -221Q802 -215 795 -210Q788 -205 786 -198Q786 -195 785 -192Q788 -178 790 -165V-161Q790 -141 760 -135Q762 -149 777 -160Q775 -168 769 -172Q727 -166 721 -122L723 -121Q726 -121 729 -124Q734 -129 739 -129H742Q741 -122 735 -116Q729 -110 729 -104Q729 -99 739 -87Q753 -70 753 -58Q753 -55 752 -52Q741 -49 728 -34Q742 -32 753 -32Q793 -32 841 -46Q853 -57 862 -93Q869 -120 875 -130V-89Q875 -68 878 -49Q883 -67 885 -108Q887 -156 894 -173Q895 -158 895 -126V-38Q902 -41 902 -51Q902 -58 901 -66V-82Q901 -111 906 -126Q912 -115 912 -91V-72Q912 -59 913 -52Q914 -39 925 -11Q935 15 935 30V32Q935 49 923 70Q910 93 895 95Z"/>
</svg>