<svg xmlns="http://www.w3.org/2000/svg" viewBox="0 -800 1024 1024">
	<path fill="#000000" d="M856 -7H837Q824 -7 823 -12Q834 -16 847 -19H852Q856 -13 856 -7ZM597 -208V-204Q586 -202 575 -201Q572 -201 566 -203V-204Q565 -207 563 -211V-212Q580 -214 596 -216Q597 -213 597 -208ZM651 -255V-252Q639 -249 575 -246Q515 -243 500 -239Q446 -226 437 -225Q413 -226 393 -227Q373 -227 359 -233Q352 -239 345 -249Q334 -257 321 -262Q307 -267 306 -279Q308 -284 309 -290Q323 -298 333 -306Q325 -313 325 -321Q325 -331 336 -340Q347 -349 362 -352L366 -353Q370 -351 374 -348Q437 -353 508 -361Q578 -370 644 -370Q644 -366 638 -362Q634 -359 633 -357Q636 -356 638 -356Q652 -358 665 -360Q654 -349 654 -346Q654 -340 669 -338Q667 -336 667 -332Q668 -322 687 -321Q705 -320 728 -318Q727 -313 702 -313Q678 -307 678 -282V-271H673Q651 -271 651 -255ZM785 108V109Q781 113 776 113Q768 112 759 111H757Q748 115 739 118Q732 119 725 119Q706 119 693 113Q678 106 678 94V93Q694 98 716 101Q727 101 731 95Q728 84 714 81Q701 78 687 73Q668 60 649 56Q647 57 644 57Q642 60 642 64Q642 68 650 75Q656 80 656 84Q656 87 653 91Q635 89 622 76V69Q620 47 612 27Q578 27 532 46Q502 59 481 62V61Q481 49 497 42Q500 41 526 33Q546 28 566 23Q587 18 599 6Q597 1 589 1Q583 1 563 6Q472 19 420 52Q409 58 397 64Q385 70 384 80Q384 83 385 85Q386 94 395 94Q400 94 416 86Q432 78 440 78Q445 78 446 79Q441 93 431 102Q421 111 413 120Q408 121 397 121Q372 120 357 114Q341 107 325 100Q324 98 324 95Q326 90 328 84Q326 67 311 55Q305 50 279 36Q287 34 295 31Q286 9 238 9Q238 -2 265 -2H276Q289 -11 305 -18Q320 -24 328 -37Q348 -40 375 -59Q392 -71 406 -76Q317 -73 267 -59Q222 -47 212 -31H211Q191 -26 171 -19H170Q150 -20 140 -31Q129 -43 119 -55Q102 -66 87 -70Q69 -79 69 -97V-103Q73 -119 85 -126Q97 -134 115 -144Q119 -170 147 -181Q176 -193 205 -203Q220 -213 244 -214H247Q224 -202 213 -187Q221 -185 226 -185Q242 -187 258 -189Q265 -189 269 -187Q339 -198 360 -198H365Q376 -197 386 -197H391Q402 -200 413 -203H442Q462 -205 481 -208Q493 -208 500 -203Q485 -195 403 -189Q336 -184 323 -182Q273 -174 273 -154V-152Q279 -149 285 -146Q426 -181 603 -187Q735 -190 784 -203Q781 -213 720 -213H703Q681 -213 676 -219Q678 -226 690 -226H696Q708 -226 711 -231Q714 -228 723 -228Q763 -231 802 -234H805Q810 -235 812 -245Q814 -253 818 -255Q823 -246 826 -237Q828 -229 842 -226H845Q856 -227 866 -229Q870 -229 878 -225Q869 -218 866 -212Q865 -209 865 -198Q865 -177 871 -173Q874 -171 882 -171Q880 -164 874 -161Q876 -157 890 -156Q906 -155 906 -149Q892 -140 871 -139Q854 -137 853 -124V-123Q729 -114 601 -102Q574 -100 524 -73Q497 -58 484 -46Q536 -50 589 -57Q587 -60 587 -65Q587 -90 630 -90Q673 -90 697 -75H699Q704 -75 709 -80Q713 -84 714 -84Q717 -84 719 -82Q723 -82 723 -80Q723 -79 719 -77Q713 -74 713 -71V-66Q713 -56 720 -51Q731 -54 742 -58Q746 -58 748 -57L749 -55Q745 -47 741 -39Q743 -36 749 -32Q803 -60 824 -63L826 -61Q822 -54 809 -51Q785 -40 783 -39Q766 -30 766 -21V-19Q769 -12 777 -12Q790 -13 803 -15Q813 -15 817 -10Q780 -10 774 6Q780 16 785 26H799Q818 26 824 28Q809 28 795 38Q781 48 781 61V64Q783 70 788 73Q793 75 798 79Q792 83 786 83H782Q777 96 775 98V99Q775 100 779 102Q785 104 785 108ZM858 -748H862Q853 -737 846 -736L845 -740Q846 -747 858 -748ZM711 -544Q708 -540 705 -536Q702 -532 696 -531L694 -532L693 -536Q694 -546 703 -547Q708 -547 711 -544ZM533 -504Q466 -492 372 -450Q375 -443 377 -436Q400 -441 420 -448Q440 -456 467 -458Q476 -464 485 -465Q493 -466 505 -467Q514 -485 533 -504ZM560 -557H563Q560 -551 557 -545Q557 -541 562 -540Q571 -555 583 -582Q599 -618 609 -633Q462 -592 353 -516H354Q378 -517 400 -526Q421 -534 442 -542Q486 -552 522 -572Q524 -564 530 -564Q542 -567 553 -570L557 -569Q555 -566 551 -564Q547 -562 547 -556V-555L549 -554Q555 -555 560 -557ZM827 -650V-641Q811 -638 808 -626Q771 -623 753 -604Q736 -584 719 -563Q719 -566 718 -569Q718 -582 733 -600Q748 -618 748 -629V-633Q745 -634 740 -634Q717 -632 709 -612Q700 -591 691 -573Q677 -555 669 -544L652 -519Q639 -500 635 -480Q634 -477 633 -447Q643 -448 648 -457Q654 -467 658 -475Q664 -484 669 -493Q674 -502 684 -507Q660 -447 639 -385Q631 -387 625 -387Q618 -387 618 -382Q612 -384 608 -389Q604 -387 593 -387Q577 -395 561 -400Q544 -404 533 -417Q476 -408 430 -391Q422 -392 392 -382Q385 -377 379 -369Q374 -362 363 -361H360Q329 -361 305 -367Q270 -376 266 -393V-404Q260 -413 250 -421Q241 -430 240 -441Q240 -445 241 -447Q251 -442 261 -427Q271 -412 281 -408Q282 -410 282 -416Q282 -427 274 -439Q271 -443 258 -459Q248 -469 237 -480Q225 -492 211 -496Q205 -492 205 -485Q209 -472 221 -464Q215 -462 214 -462Q209 -462 203 -466Q194 -472 189 -472H187Q174 -483 160 -492Q147 -502 138 -516Q128 -536 118 -556Q114 -561 114 -571Q114 -581 122 -600Q129 -617 129 -626V-628Q125 -638 120 -649L121 -653Q126 -653 129 -648Q133 -642 139 -642H140Q139 -648 131 -659Q121 -673 120 -682Q128 -678 138 -667Q149 -655 159 -651Q159 -658 152 -665Q145 -672 145 -677Q150 -676 158 -669Q167 -661 178 -661H180Q205 -665 229 -669Q243 -671 254 -671H259Q277 -667 286 -651Q295 -636 305 -623Q314 -625 329 -635Q343 -645 349 -647Q358 -648 367 -650Q379 -656 382 -656Q387 -656 389 -655Q396 -663 411 -667Q425 -671 439 -676Q473 -689 507 -703Q530 -713 537 -713Q541 -713 547 -711Q529 -699 506 -692Q484 -685 462 -676Q440 -667 416 -659Q392 -651 384 -630H390Q404 -630 433 -642Q485 -662 538 -683Q590 -703 636 -730Q633 -734 627 -734Q617 -732 606 -730Q602 -730 599 -733Q608 -741 620 -745Q632 -749 644 -754Q665 -768 689 -776H697Q709 -775 721 -775Q727 -775 737 -777Q750 -761 773 -757Q776 -757 784 -759L787 -757Q787 -756 782 -753Q776 -749 776 -747Q794 -753 811 -760Q811 -755 800 -747Q789 -738 789 -735Q792 -730 797 -730Q804 -731 811 -733L812 -731Q811 -727 810 -723L811 -720Q819 -720 830 -728Q836 -732 841 -733Q822 -710 822 -699Q822 -688 834 -683Q827 -662 827 -650Z"/>
</svg>