<svg xmlns="http://www.w3.org/2000/svg" viewBox="0 -800 1024 1024">
	<path fill="#000000" d="M925 -218H926Q922 -198 913 -194Q912 -197 912 -204Q912 -218 925 -218ZM630 -671H628Q631 -686 647 -687Q649 -683 649 -679Q649 -675 647 -671Q643 -673 642 -673Q636 -672 630 -671ZM909 -303Q900 -294 896 -281Q890 -285 890 -291Q892 -306 902 -309Q905 -309 909 -303ZM632 -413V-410Q634 -406 647 -398Q639 -398 639 -384Q639 -372 643 -366Q690 -423 736 -515Q730 -515 724 -516Q680 -514 649 -491Q618 -469 590 -449Q602 -443 606 -443Q611 -443 617 -446V-444Q616 -438 614 -432Q617 -431 620 -431Q626 -431 633 -437Q641 -444 649 -444H650Q632 -428 632 -413ZM418 -602Q410 -592 410 -585Q410 -577 419 -572Q436 -591 476 -600Q505 -620 539 -638Q562 -653 575 -653Q581 -653 585 -650Q550 -627 514 -605Q478 -584 470 -579Q447 -563 439 -545Q441 -537 447 -534Q498 -573 552 -606Q592 -628 633 -648Q674 -667 709 -693Q705 -697 697 -697Q679 -693 663 -687V-690Q663 -699 676 -706Q677 -707 699 -716Q713 -722 745 -740H753Q774 -740 797 -723Q813 -711 827 -708L828 -706Q828 -702 827 -699L828 -695Q851 -707 874 -720Q850 -701 845 -672H848Q854 -672 863 -679Q871 -685 874 -686Q868 -676 866 -662V-657L868 -656Q872 -659 875 -663L878 -662Q875 -653 875 -646Q876 -609 912 -597Q910 -559 908 -516Q905 -473 891 -440H885Q844 -440 775 -383Q762 -371 749 -359Q729 -345 722 -338Q719 -340 719 -345Q723 -358 734 -369Q748 -384 755 -399Q740 -395 710 -369Q694 -354 675 -332Q650 -301 644 -292Q627 -267 621 -245Q635 -251 656 -274Q675 -295 688 -300Q685 -281 663 -256Q648 -239 643 -227Q643 -220 653 -216Q663 -211 663 -205Q680 -199 694 -184Q707 -170 722 -158Q736 -147 781 -116Q826 -84 844 -84H849Q867 -88 869 -107Q869 -135 882 -153Q881 -148 881 -137Q881 -119 886 -108Q888 -127 889 -147Q890 -154 890 -168Q890 -191 889 -214Q889 -250 902 -264V-253Q900 -198 898 -144Q898 -112 905 -74Q911 -126 912 -183Q920 -168 921 -128Q922 -92 926 -80Q930 -86 933 -93Q938 -53 960 -20Q978 8 978 18V19Q978 26 955 57Q943 71 931 81Q909 79 901 79Q884 79 873 87Q856 74 839 61Q822 47 813 28Q815 26 818 26Q824 29 830 31H831Q835 27 835 22Q835 9 820 -8Q805 -21 788 -21H785V-19Q785 -14 791 -6Q799 5 799 12V16Q780 9 765 -4Q750 -17 736 -29Q721 -39 705 -51Q689 -62 685 -80Q718 -57 752 -41Q758 -35 767 -33Q769 -33 771 -35Q759 -58 734 -76Q709 -94 685 -111Q677 -117 670 -124Q663 -131 654 -133V-132Q654 -129 660 -120Q667 -109 667 -104Q667 -100 666 -99Q652 -105 626 -130Q602 -153 587 -161Q562 -135 527 -72Q497 -18 478 5Q467 8 456 11Q450 11 443 7Q432 0 420 -29Q408 -57 399 -65Q397 -67 389 -72Q382 -76 382 -82V-84L409 -77Q416 -93 416 -102Q413 -130 384 -149Q353 -168 336 -189Q374 -178 408 -159Q405 -168 388 -177Q376 -183 372 -189Q399 -187 419 -177Q456 -193 493 -233Q460 -250 458 -299Q465 -301 465 -308Q465 -312 464 -314Q475 -320 491 -320Q518 -320 555 -293Q579 -306 590 -324Q577 -330 564 -341Q551 -351 536 -352Q533 -351 529 -351Q528 -352 526 -354Q531 -358 535 -363V-364Q530 -381 525 -399Q525 -404 528 -407Q503 -397 488 -372Q472 -348 454 -329Q426 -331 415 -350Q403 -371 386 -386Q380 -390 372 -393Q358 -398 353 -404Q351 -410 351 -414Q351 -419 353 -429Q361 -501 385 -571Q392 -578 400 -588Q407 -598 418 -602ZM243 -669Q237 -670 237 -681Q237 -695 246 -695L249 -694Q250 -692 250 -687Q250 -676 243 -669ZM255 -222H252Q246 -222 226 -229Q206 -236 195 -236Q189 -236 187 -235Q183 -235 179 -230Q174 -225 169 -223Q171 -225 171 -232Q156 -242 146 -257Q136 -272 125 -285V-289Q125 -330 97 -346H99Q106 -345 113 -344Q117 -344 120 -348V-350Q118 -353 116 -357V-358Q148 -373 186 -373Q208 -373 227 -369Q241 -365 253 -352Q265 -340 278 -330V-327Q280 -297 281 -267Q281 -226 255 -222ZM322 -72V-67Q308 -57 296 -45Q284 -33 263 -30Q267 -43 286 -59Q302 -72 307 -82Q303 -85 297 -85Q287 -85 272 -74Q271 -73 246 -53Q233 -44 218 -34Q203 -25 198 -15V-14Q200 -10 202 -7V-6Q215 -9 227 -13Q231 -13 233 -12Q233 -3 222 3Q207 11 204 15Q199 21 196 41Q191 67 180 75Q177 73 173 73Q162 76 156 84Q128 69 98 56Q68 43 65 12V10Q67 -1 69 -12Q66 -29 62 -46V-48Q64 -60 83 -73Q97 -83 102 -90Q107 -97 109 -113Q112 -133 124 -138Q120 -131 120 -116Q120 -92 131 -87Q158 -101 222 -141Q296 -187 338 -207Q341 -207 341 -204Q331 -197 321 -189Q311 -182 310 -169Q311 -166 311 -163Q316 -164 323 -169Q329 -173 335 -174Q325 -162 320 -148Q320 -140 331 -135Q326 -117 326 -111Q326 -106 328 -100H329Q331 -103 338 -106L341 -105Q339 -98 332 -91Q322 -81 322 -72ZM320 -496V-490Q319 -473 312 -458Q305 -443 301 -427Q284 -420 269 -420Q250 -420 221 -436Q197 -452 181 -459H179Q170 -459 156 -449Q142 -439 134 -439Q135 -446 146 -456Q154 -464 157 -471Q149 -486 135 -496Q129 -496 117 -493V-495Q117 -500 122 -504Q125 -507 126 -509Q120 -515 114 -515Q106 -515 92 -503Q81 -493 76 -493V-494Q81 -504 94 -515Q107 -532 107 -543Q106 -546 102 -546Q97 -545 91 -544Q88 -544 86 -546Q87 -550 95 -553Q101 -555 103 -559V-562Q103 -567 98 -571Q93 -576 92 -579V-584Q93 -594 94 -604V-607Q92 -615 82 -624Q72 -633 72 -639H73Q78 -639 89 -631Q98 -624 104 -624Q110 -624 116 -630V-635Q114 -655 111 -676Q111 -683 112 -687Q118 -674 122 -661Q126 -647 137 -640Q141 -641 149 -641Q162 -641 184 -630Q204 -620 218 -619Q222 -623 225 -637Q230 -657 240 -659Q238 -640 236 -622Q244 -606 259 -602H260Q264 -603 267 -609Q270 -615 275 -615H278Q277 -612 277 -607Q277 -591 292 -584V-581Q292 -566 298 -556Q304 -546 310 -536Q309 -534 309 -530Q313 -511 320 -496Z"/>
</svg>