<svg xmlns="http://www.w3.org/2000/svg" viewBox="0 -800 1024 1024">
	<path fill="#000000" d="M527 -13Q523 -11 520 -11Q511 -12 501 -14H499Q497 -21 495 -28Q497 -29 500 -29Q508 -28 515 -23Q521 -17 527 -13ZM649 -213Q646 -203 643 -194V-192Q634 -191 632 -172Q630 -155 624 -153Q622 -171 613 -171H612Q601 -171 595 -149Q589 -128 589 -98Q589 -62 596 -51Q603 -60 606 -90Q610 -128 625 -136Q621 -115 618 -87Q613 -40 609 -24Q605 -24 601 -25Q596 -25 593 -21Q587 -23 574 -31Q571 -29 571 -25Q559 -33 540 -37Q538 -51 534 -65Q531 -78 518 -79H517Q522 -87 531 -88Q530 -118 527 -131Q522 -150 510 -162Q512 -187 519 -204Q525 -220 534 -238Q553 -240 566 -249Q567 -250 588 -268Q591 -267 591 -263V-260Q590 -258 590 -255Q590 -251 593 -250H594Q597 -250 597 -254Q597 -259 599 -259H600Q608 -243 622 -233Q645 -217 649 -213ZM771 -34Q759 -37 759 -52Q759 -55 761 -61Q770 -60 771 -51Q772 -42 771 -34ZM917 -380Q917 -379 911 -361Q906 -363 906 -372Q906 -385 915 -385H916Q917 -383 917 -380ZM908 -664Q904 -656 884 -650L883 -654Q883 -660 888 -664Q893 -668 898 -668Q905 -668 908 -664ZM789 -292Q806 -280 822 -269Q828 -271 830 -271Q841 -268 852 -266Q859 -269 861 -277Q863 -285 867 -292Q869 -288 871 -279Q873 -265 878 -265Q883 -265 883 -290Q882 -314 881 -338V-353Q881 -383 887 -394Q890 -357 893 -321Q896 -284 905 -256Q910 -258 910 -265Q909 -272 908 -280Q907 -305 907 -352Q916 -325 916 -290Q917 -255 940 -243Q945 -223 958 -218Q957 -216 957 -212Q960 -201 967 -193Q968 -191 968 -186Q967 -177 966 -168Q966 -162 969 -158Q958 -147 958 -134Q958 -130 960 -124Q952 -121 949 -114Q946 -107 943 -99Q931 -97 926 -97Q906 -97 885 -108Q883 -109 850 -130Q829 -134 808 -139Q830 -151 763 -184Q760 -163 760 -140Q760 -114 763 -84H761Q752 -84 750 -93Q746 -106 745 -108Q749 -127 749 -160Q749 -175 749 -191Q743 -194 737 -197V-196Q738 -182 738 -168V-158Q735 -137 732 -117Q731 -107 731 -87Q735 -18 742 41Q743 67 744 71Q747 84 758 92Q770 82 770 57Q769 35 768 12Q768 -6 774 -14Q777 8 780 29Q782 50 791 65Q779 76 776 96Q773 115 768 132Q766 133 761 133Q752 132 742 131Q735 131 732 136Q726 126 714 122Q703 117 691 110Q681 99 670 87Q664 85 658 84Q652 83 649 76H658Q663 76 664 74Q661 64 651 63Q641 61 631 58Q602 46 595 44Q599 44 603 43Q628 46 652 52Q620 38 572 20Q575 19 582 19Q594 19 618 28Q642 37 653 37H656Q636 29 604 19Q558 5 535 -7Q553 -5 585 4Q622 15 638 15Q658 15 677 5Q680 -6 680 -31V-47Q684 -102 687 -157Q687 -174 686 -182Q687 -201 687 -220Q687 -228 685 -244Q672 -257 662 -259Q650 -274 633 -282Q615 -291 596 -300Q542 -265 499 -203Q507 -202 481 -190Q435 -171 440 -165Q422 -176 406 -176Q409 -180 409 -185Q407 -193 401 -202Q406 -210 406 -217Q406 -221 405 -223Q388 -215 372 -205Q356 -195 351 -175Q350 -171 350 -163Q353 -135 356 -108Q356 -98 353 -88Q345 -91 343 -114Q342 -134 334 -139Q327 -131 327 -112Q328 -97 328 -82V-61Q328 14 347 35Q353 28 353 10Q352 -8 351 -27V-31H353L357 -30L359 -31Q367 -2 371 27Q371 38 362 58Q355 73 354 84Q325 101 323 103Q319 98 306 89Q291 79 286 71Q279 59 275 46Q271 34 260 26Q261 20 261 14Q261 3 251 3H249Q272 -13 281 -51Q288 -80 289 -129Q281 -127 276 -123Q272 -100 260 -87Q247 -74 234 -61Q194 -61 186 -94Q162 -94 145 -118Q145 -174 165 -186V-188Q167 -213 188 -224Q208 -236 228 -243Q296 -273 298 -274V-279Q301 -302 303 -325Q254 -307 204 -284Q152 -261 133 -208Q128 -204 120 -204Q115 -204 101 -209Q87 -214 78 -214H76Q74 -221 65 -230Q55 -241 53 -246Q47 -261 46 -295Q46 -324 44 -333Q41 -346 35 -361Q30 -375 29 -393Q30 -397 30 -402Q34 -421 54 -435Q73 -450 89 -463Q108 -484 124 -503Q140 -523 171 -529Q159 -517 146 -505Q134 -493 133 -470V-468Q139 -469 148 -482Q155 -494 160 -496V-494Q160 -490 155 -483Q148 -474 148 -469Q148 -464 153 -459H155Q163 -459 193 -472Q211 -481 223 -481Q233 -481 239 -472Q210 -464 182 -454Q155 -445 139 -421H145Q185 -425 224 -441Q278 -458 300 -475Q297 -484 287 -484Q278 -484 267 -485V-486Q268 -497 283 -501Q297 -506 307 -511Q306 -514 306 -519Q308 -536 309 -553V-556Q308 -566 299 -584Q289 -604 288 -614Q287 -618 287 -628Q287 -654 300 -666Q313 -679 338 -679Q356 -679 375 -672Q409 -616 422 -560Q406 -544 405 -522L408 -521Q416 -524 424 -528H425Q414 -514 414 -507Q414 -500 423 -500H425Q420 -495 420 -487Q421 -467 430 -463Q426 -456 426 -449Q426 -442 432 -429Q437 -418 437 -411V-410Q434 -388 408 -378Q380 -367 363 -353V-344Q363 -330 362 -317Q362 -310 363 -307Q375 -313 388 -320Q400 -327 418 -328Q402 -320 400 -309L403 -307Q410 -309 416 -312Q408 -304 408 -290Q408 -282 409 -278Q411 -275 419 -282Q426 -289 434 -287Q457 -297 475 -302Q473 -294 459 -285Q446 -277 446 -269V-265Q511 -285 544 -326H542Q534 -326 520 -317Q507 -309 498 -309H493Q498 -319 517 -329Q532 -337 536 -340Q526 -350 526 -360Q526 -373 538 -382Q550 -391 565 -391Q577 -391 587 -385Q618 -396 647 -435H644Q610 -430 588 -422V-424Q589 -441 607 -444Q629 -448 649 -454Q648 -463 636 -463Q629 -462 621 -461Q591 -454 560 -448Q540 -443 530 -439Q515 -433 511 -422Q516 -413 524 -413Q543 -418 562 -423Q568 -423 572 -419Q559 -413 546 -402Q533 -392 517 -391Q508 -392 501 -398Q495 -405 487 -410Q471 -417 458 -422Q445 -427 443 -451Q445 -463 446 -475Q446 -488 440 -506Q435 -521 435 -527Q435 -534 440 -544Q456 -562 478 -576Q504 -585 530 -590Q526 -587 526 -583Q526 -571 538 -570H542Q553 -570 571 -578Q589 -586 602 -586H605V-592Q605 -606 601 -613Q597 -621 595 -630Q610 -629 612 -619Q615 -608 623 -598Q628 -608 628 -624Q628 -655 616 -669Q609 -677 583 -689Q582 -687 582 -682Q582 -675 586 -667Q591 -658 591 -650Q591 -646 590 -644Q581 -645 577 -652Q573 -659 568 -665Q559 -672 550 -680Q554 -688 554 -697Q554 -706 551 -715Q559 -731 594 -745Q608 -752 624 -763Q640 -775 660 -776H665Q678 -775 695 -758Q710 -738 725 -719Q750 -691 750 -674V-673Q750 -663 744 -658Q738 -653 730 -649Q712 -643 709 -625Q709 -617 711 -612Q729 -618 777 -627Q847 -641 872 -652Q872 -651 861 -632Q865 -627 868 -622Q887 -625 905 -629Q902 -625 893 -622Q881 -618 880 -610Q882 -608 885 -608Q890 -609 895 -610Q897 -610 901 -608Q875 -600 872 -572Q874 -566 878 -566Q885 -568 891 -570L895 -569Q879 -565 879 -540Q879 -534 881 -526Q852 -506 810 -500Q769 -494 742 -472Q744 -466 752 -460Q759 -454 761 -451Q759 -441 759 -438Q759 -434 761 -422Q743 -417 743 -397Q707 -385 668 -353Q678 -349 687 -345Q700 -357 715 -361Q731 -358 743 -347Q744 -346 763 -323Q779 -310 789 -292Z"/>
</svg>