<svg xmlns="http://www.w3.org/2000/svg" viewBox="0 -800 1024 1024">
	<path fill="#000000" d="M135 -36V-35Q135 -29 128 -29Q123 -29 120 -31Q116 -33 117 -37Q120 -40 125 -40Q129 -40 135 -36ZM280 -82V-48Q280 -15 288 -1Q295 -5 298 -29Q300 -51 306 -57Q309 -54 311 -27Q313 -7 313 2Q313 25 309 42Q296 46 271 65Q249 62 235 44Q221 26 207 9Q194 8 180 3H187Q200 3 205 2Q193 -11 183 -21Q173 -31 152 -34Q166 -37 188 -31Q206 -26 218 -35V-44Q220 -85 222 -126Q209 -121 206 -116Q204 -111 202 -88Q188 -70 182 -64Q174 -69 162 -71Q149 -73 142 -81Q136 -88 133 -110Q130 -134 124 -142Q128 -153 130 -183Q132 -205 140 -218Q148 -231 157 -246Q156 -233 161 -222Q183 -237 195 -247Q207 -256 233 -267Q231 -291 231 -307V-349Q200 -341 180 -321Q166 -308 141 -270Q131 -271 111 -285Q94 -295 80 -303Q65 -311 61 -337V-342Q64 -360 67 -379V-386Q66 -403 64 -420V-424Q65 -447 77 -461Q88 -474 99 -489Q109 -507 118 -523Q128 -539 146 -540H147Q139 -531 129 -519Q120 -507 119 -490V-487Q124 -489 130 -498Q136 -507 140 -507V-492Q172 -503 228 -528Q226 -565 223 -601Q221 -638 197 -649Q203 -678 227 -704Q251 -730 275 -730Q297 -730 308 -706Q315 -693 324 -670Q336 -634 336 -628Q336 -617 328 -604Q319 -587 318 -574Q331 -583 349 -592L350 -589Q348 -583 346 -578Q354 -567 361 -556Q359 -544 359 -537Q359 -516 367 -492Q363 -486 363 -471Q364 -453 364 -435V-427Q358 -422 336 -410Q312 -397 301 -385Q298 -368 298 -349Q299 -330 299 -311Q309 -317 320 -327Q332 -337 348 -339V-337Q345 -330 341 -324Q344 -319 349 -318Q348 -315 348 -310Q348 -293 361 -274Q360 -271 360 -265Q360 -246 371 -235Q365 -226 356 -223Q347 -219 339 -214Q315 -198 299 -175Q298 -167 298 -151Q298 -141 301 -99Q291 -101 289 -126Q287 -144 284 -148Q278 -141 278 -120Q279 -101 280 -82ZM600 -117V-116Q608 -117 630 -123Q633 -134 635 -146L634 -149Q621 -148 613 -147Q605 -145 598 -136V-134Q599 -125 600 -117ZM644 -218H645Q612 -239 602 -243Q600 -240 587 -231Q577 -224 577 -214H576Q572 -214 572 -207Q576 -205 579 -205Q587 -207 595 -210Q605 -212 610 -212Q620 -212 621 -209Q611 -204 598 -203Q583 -201 582 -193Q584 -192 590 -192Q597 -192 603 -194Q645 -203 652 -209Q651 -212 646 -212H637Q632 -212 632 -215Q637 -218 644 -218ZM497 -355Q504 -192 504 -177Q503 -153 504 -141Q505 -85 523 -14Q508 2 498 24Q474 37 450 23Q435 15 412 -12Q410 -26 399 -32Q401 -44 403 -56Q397 -71 387 -76Q377 -81 365 -87Q367 -88 379 -88Q389 -90 391 -92Q406 -114 405 -157Q405 -181 403 -211Q403 -225 404 -231Q410 -228 412 -220Q413 -211 413 -204Q415 -182 416 -163Q418 -145 428 -131Q437 -147 435 -172Q435 -180 430 -225Q427 -247 410 -290L409 -291Q400 -289 400 -280Q402 -271 403 -263Q403 -256 399 -252Q390 -258 389 -268Q388 -278 386 -287Q383 -301 374 -309Q366 -317 359 -325V-331Q355 -352 349 -370Q349 -381 360 -405Q371 -430 372 -443Q372 -446 375 -447Q378 -447 378 -450V-455Q374 -476 370 -498V-506Q376 -506 378 -500Q379 -494 380 -490Q387 -473 396 -464Q396 -467 396 -471Q393 -488 386 -506Q379 -526 376 -554Q385 -545 395 -519Q406 -490 417 -482Q419 -487 419 -496Q419 -504 407 -537Q416 -536 424 -515Q434 -490 447 -491Q457 -492 471 -467Q481 -450 485 -450Q493 -450 497 -355ZM895 -160Q895 -148 888 -142Q885 -146 885 -154Q884 -162 889 -181H892Q894 -170 895 -160ZM592 -683Q578 -674 562 -666Q547 -658 537 -640V-637Q540 -636 548 -639Q559 -643 566 -641Q562 -634 550 -626Q533 -614 528 -604Q513 -580 503 -558Q479 -543 460 -553L456 -555Q439 -565 428 -582Q417 -599 404 -615Q379 -650 375 -659Q369 -680 363 -697Q371 -743 377 -756Q380 -763 386 -765Q393 -765 399 -765Q422 -768 434 -761L440 -759Q460 -740 483 -722L504 -711Q513 -705 517 -698Q538 -699 558 -700Q554 -696 545 -692Q536 -689 531 -680Q530 -676 528 -672Q538 -671 557 -678Q578 -686 592 -683ZM791 -210Q794 -314 797 -419Q801 -479 805 -540V-546Q802 -554 799 -563Q767 -552 756 -546Q736 -535 708 -509Q690 -493 673 -489Q670 -488 666 -488Q661 -488 656 -488Q665 -465 662 -457Q659 -433 651 -428Q645 -424 638 -421Q636 -414 633 -408H632V-407H633Q636 -408 638 -410H639Q641 -409 643 -408Q646 -410 649 -413Q665 -419 681 -425Q685 -427 692 -435Q704 -448 708 -449L711 -450Q721 -448 731 -446H733Q744 -450 754 -460Q751 -453 747 -447L746 -444Q747 -427 759 -423Q764 -423 766 -425L767 -423Q767 -421 763 -417Q757 -412 757 -409Q757 -406 762 -403Q760 -396 757 -390Q757 -374 761 -366Q749 -351 748 -344Q716 -349 689 -328Q665 -313 646 -293Q655 -286 675 -286Q693 -276 704 -266Q694 -266 680 -271Q666 -276 658 -276H657Q663 -262 684 -256Q696 -252 708 -248Q727 -241 732 -241Q738 -241 742 -245Q740 -250 730 -253Q721 -256 719 -259Q721 -260 724 -260Q731 -259 737 -258H739Q750 -264 750 -284Q750 -305 755 -318Q756 -311 756 -294Q756 -270 759 -260Q762 -263 762 -269V-273Q762 -293 761 -313Q761 -334 763 -342Q766 -337 766 -330V-313Q766 -268 770 -258Q774 -276 774 -298Q782 -248 783 -246Q790 -226 791 -210ZM791 -195Q783 -178 769 -166Q763 -163 758 -163Q749 -165 739 -167Q739 -166 736 -156Q723 -149 713 -141V-143Q715 -154 720 -160Q716 -163 712 -163Q705 -161 701 -146Q697 -131 693 -121Q683 -101 683 -93Q683 -87 686 -81Q690 -84 694 -97Q699 -113 706 -116Q694 -82 692 -62Q686 -61 679 -53Q673 -46 669 -46H667Q651 -48 635 -50H632Q624 -62 623 -71Q608 -67 592 -63Q589 -62 588 -56Q587 -51 584 -49Q582 -48 578 -48Q556 -49 544 -63Q543 -73 538 -78Q539 -83 539 -93Q539 -108 534 -126Q529 -145 520 -150Q516 -161 516 -181Q516 -188 520 -195Q525 -199 529 -201Q529 -203 522 -206Q516 -208 515 -211Q513 -214 513 -221V-239Q510 -256 506 -274H507Q508 -274 513 -263Q516 -256 521 -249Q548 -265 556 -271Q534 -277 533 -304L537 -305L540 -303Q544 -308 555 -308Q564 -308 584 -303Q603 -323 622 -344Q603 -337 584 -331Q565 -325 553 -313Q539 -313 527 -319L526 -320L523 -319L522 -322L523 -325Q521 -327 518 -327Q510 -324 507 -320V-322Q511 -328 515 -334V-335L511 -353Q509 -361 518 -375Q527 -388 535 -393Q534 -386 529 -379Q523 -371 523 -366Q524 -363 524 -360Q549 -374 563 -401Q569 -416 569 -417Q569 -419 568 -422Q559 -421 556 -414Q553 -408 548 -404V-408Q548 -415 555 -425Q563 -436 563 -443V-444Q561 -452 558 -460Q559 -468 568 -476Q577 -485 578 -493L581 -492Q586 -493 591 -494H592Q590 -500 585 -501Q581 -502 578 -505H579Q596 -504 613 -504H616Q619 -504 625 -498Q632 -492 634 -496V-497Q627 -502 613 -518Q594 -534 589 -557V-559Q592 -578 595 -597Q595 -603 592 -609Q604 -656 620 -686V-668Q620 -658 625 -653Q637 -656 660 -667Q684 -681 709 -684H716Q713 -680 693 -668Q679 -659 675 -649Q675 -644 678 -644Q736 -666 781 -701Q740 -693 724 -687Q756 -715 773 -725Q784 -732 792 -741Q800 -749 812 -751Q818 -753 821 -753Q836 -753 852 -746Q860 -752 869 -755L871 -754Q869 -753 866 -749V-746Q869 -741 875 -739Q879 -739 884 -743Q890 -747 895 -747H897L898 -744Q897 -740 896 -737V-735Q902 -745 918 -757Q910 -744 906 -717V-710Q907 -710 908 -715Q910 -722 913 -722L915 -721L917 -719Q914 -712 911 -705L912 -701Q932 -685 940 -656Q949 -628 959 -601Q952 -589 940 -579Q922 -564 918 -559Q894 -529 888 -449Q884 -397 887 -307V-292Q888 -265 889 -239Q890 -220 887 -200Q877 -207 877 -220Q873 -237 873 -262Q873 -312 873 -363Q873 -388 869 -405Q862 -388 860 -363Q860 -272 861 -165Q860 -131 859 -98Q861 -58 875 -45Q879 -53 877 -68V-87Q875 -116 891 -121Q890 -108 890 -83Q892 -42 907 47Q900 61 900 68V71Q896 78 892 83Q887 88 887 96V98Q884 98 880 98Q869 98 858 111Q851 119 846 121Q844 122 841 122Q822 123 792 96Q786 90 779 78Q770 62 763 58Q766 55 769 51Q755 31 705 21Q665 13 652 4Q712 16 768 22Q756 6 742 3Q668 -7 605 -26Q678 -16 751 -6L764 -7Q760 -16 726 -18Q703 -20 697 -23Q698 -24 731 -29Q742 -29 764 -24Q780 -34 789 -36Q789 -48 789 -61Q789 -105 791 -195Z"/>
</svg>