<svg xmlns="http://www.w3.org/2000/svg" viewBox="0 -800 1024 1024">
	<path fill="#000000" d="M830 -755Q820 -745 811 -740Q810 -742 810 -745Q810 -746 816 -761Q825 -759 830 -755ZM902 -663H899Q897 -667 897 -670Q897 -679 908 -679Q911 -678 914 -678V-661Q906 -663 902 -663ZM907 -165V-172Q911 -178 916 -178Q922 -178 923 -172Q920 -167 917 -160Q914 -153 908 -150Q907 -155 907 -165ZM890 -549V-548Q888 -549 885 -549Q881 -549 875 -545Q868 -540 864 -540Q858 -526 858 -516Q859 -512 859 -508Q853 -512 852 -522Q851 -531 849 -539Q837 -543 824 -548Q821 -547 817 -539Q814 -532 808 -531V-537Q808 -548 813 -554Q806 -560 794 -572Q776 -591 764 -597Q748 -623 729 -675Q745 -692 762 -707Q779 -722 781 -752Q785 -749 787 -737Q788 -727 790 -724Q793 -723 796 -723Q806 -723 811 -735Q816 -732 830 -715Q841 -703 852 -702H853Q861 -702 874 -709Q889 -717 899 -717H902Q883 -706 878 -702Q865 -691 865 -678Q865 -670 867 -666Q869 -665 872 -665Q881 -667 890 -669L893 -668Q889 -662 884 -658Q879 -654 879 -645Q879 -638 881 -634Q899 -630 917 -626Q910 -621 902 -617Q894 -614 890 -606Q892 -596 896 -589Q892 -587 891 -573Q890 -561 887 -557Q889 -553 890 -549ZM336 57H326Q323 49 319 41Q305 31 291 22Q277 13 273 -6Q269 -11 264 -17Q266 -28 267 -39Q266 -43 257 -48Q266 -53 283 -57V-60Q283 -78 292 -108Q300 -135 301 -152Q197 -69 142 60H140Q130 57 119 54H116Q113 21 89 9Q88 0 82 -22Q76 -43 76 -56Q76 -64 77 -69Q84 -84 95 -100Q98 -109 101 -118Q102 -122 104 -127Q105 -132 110 -134Q113 -131 113 -121V-119Q113 -105 121 -103Q166 -131 204 -168Q241 -204 279 -241Q243 -225 204 -207Q164 -190 141 -159Q130 -155 117 -155Q90 -155 71 -169Q51 -184 51 -208Q51 -220 57 -232Q51 -245 51 -261Q55 -307 88 -336Q88 -353 99 -365Q101 -367 122 -384Q135 -394 146 -404Q157 -414 169 -416Q167 -406 157 -399Q146 -393 138 -384Q129 -373 129 -361V-356Q133 -358 144 -373Q152 -384 162 -384H165Q159 -375 156 -361Q159 -347 162 -333Q162 -327 160 -324Q163 -321 165 -318Q180 -320 209 -334Q232 -345 243 -348Q264 -354 284 -361Q304 -368 319 -382H311Q293 -382 261 -372Q222 -360 203 -360H196Q208 -371 222 -375Q237 -379 251 -382Q261 -385 280 -394Q303 -405 316 -408Q309 -466 282 -479Q279 -479 276 -475Q273 -471 269 -471V-476Q271 -489 273 -502Q319 -533 354 -577Q362 -580 366 -580Q374 -579 383 -567Q390 -561 397 -555Q404 -547 409 -539Q414 -531 427 -530Q422 -522 422 -516Q422 -510 428 -497Q433 -486 433 -479Q433 -475 426 -463Q419 -451 419 -443Q419 -436 424 -430Q429 -436 438 -439L442 -438Q440 -428 440 -423Q440 -414 446 -392Q452 -370 452 -356V-354Q445 -344 445 -335Q445 -328 454 -315Q442 -313 425 -306Q408 -299 399 -297Q391 -286 391 -268Q391 -240 409 -234Q417 -239 424 -242L428 -241L429 -238Q427 -233 424 -229V-228Q434 -202 455 -197Q453 -194 448 -190Q440 -184 439 -181Q441 -174 442 -168Q439 -150 422 -146Q403 -141 387 -138V-131Q388 -119 388 -108Q388 -98 384 -93Q375 -100 377 -117Q373 -129 369 -141Q359 -130 359 -100Q361 -67 362 -35V-17Q362 9 371 18Q382 5 382 -20Q382 -45 386 -66Q391 -66 391 -60Q391 -55 390 -51V-49Q396 -29 398 -1Q398 8 397 13Q395 24 381 40Q368 55 366 64Q359 57 336 57ZM963 53V55Q962 61 954 70Q947 78 947 82Q947 84 949 88Q906 128 877 128Q864 128 856 120Q848 108 840 95Q831 87 822 79Q812 66 804 53Q796 39 784 30Q784 27 783 24Q783 17 788 15Q803 31 816 48Q829 65 846 78Q830 33 801 -6Q773 -44 748 -84Q743 -79 743 -75Q743 -71 748 -62Q755 -49 755 -41V-40Q739 -48 733 -66Q727 -84 720 -102Q703 -94 691 -79Q680 -64 668 -49Q669 -63 684 -88Q695 -105 698 -117Q697 -121 692 -121Q689 -121 687 -120V-123Q687 -128 683 -134Q679 -133 675 -129Q671 -124 668 -124L664 -125V-126Q664 -131 668 -135Q673 -139 673 -143Q671 -144 668 -144Q663 -144 656 -138Q651 -134 649 -134H648Q659 -151 670 -168Q684 -183 692 -201V-203Q688 -223 684 -243Q660 -373 651 -404Q635 -400 624 -395Q625 -390 631 -379Q639 -364 639 -356Q639 -354 637 -348Q664 -326 669 -281Q669 -250 637 -247Q627 -242 627 -223Q628 -211 628 -200Q628 -192 627 -189Q620 -192 619 -208Q618 -221 615 -225Q602 -219 602 -193Q603 -184 603 -175Q605 -143 609 -110Q612 -77 624 -60Q630 -65 630 -73Q629 -84 627 -96V-98Q629 -105 630 -112Q625 -125 622 -143Q622 -152 627 -157H628Q631 -157 631 -153Q631 -148 630 -144Q644 -114 644 -67Q644 -32 634 -9Q611 -9 602 6Q581 -3 565 -15Q564 -24 562 -33Q557 -44 550 -54Q542 -65 540 -78V-81Q543 -108 551 -138Q554 -169 557 -200Q537 -196 529 -177Q527 -173 519 -135Q511 -117 505 -93Q505 -88 504 -83Q505 -72 505 -62Q505 -53 504 -49Q480 -48 477 -47Q463 -44 461 -33Q457 -39 456 -48Q454 -57 445 -59Q441 -97 424 -105Q415 -103 406 -101Q402 -101 400 -102Q405 -108 417 -111Q428 -114 431 -117Q436 -126 439 -137Q444 -141 449 -146Q455 -156 460 -178Q465 -199 469 -207Q463 -212 454 -230Q443 -252 430 -257Q436 -260 442 -263Q435 -271 407 -275Q412 -280 419 -280Q425 -279 431 -279H434Q441 -280 454 -286Q469 -293 479 -294Q480 -297 480 -303Q479 -317 477 -332V-336Q491 -332 506 -332Q522 -333 531 -319Q544 -326 569 -335Q569 -351 565 -363Q556 -359 547 -355Q538 -351 532 -345Q506 -358 484 -363Q483 -368 477 -375Q472 -381 470 -387V-392Q471 -401 471 -410Q471 -416 470 -419Q469 -424 459 -435Q450 -445 449 -451V-454Q449 -465 456 -482Q464 -502 464 -512Q464 -518 463 -522L465 -523Q468 -523 473 -518Q479 -511 483 -511Q488 -511 495 -518Q502 -525 507 -527Q526 -530 544 -533Q541 -525 531 -515Q519 -503 517 -491H521Q534 -492 546 -501Q559 -510 572 -517Q604 -528 633 -542Q628 -547 618 -547Q596 -543 573 -539H570Q574 -552 590 -558Q606 -564 619 -573Q610 -585 602 -622Q595 -652 590 -661Q584 -670 577 -670Q568 -670 557 -657Q552 -652 546 -635Q540 -619 535 -614Q533 -624 533 -628Q533 -644 542 -670Q550 -693 550 -703Q550 -719 538 -731V-736Q538 -763 557 -790Q577 -816 617 -816Q653 -816 670 -793Q680 -780 692 -742Q701 -714 707 -703Q694 -669 690 -629Q690 -612 696 -599Q716 -602 731 -609L729 -605V-601L728 -597Q729 -593 745 -580Q753 -582 760 -585Q760 -582 756 -578Q753 -575 752 -571Q760 -555 770 -554Q763 -550 763 -543Q768 -528 772 -513Q767 -509 767 -502Q767 -500 772 -483H764V-481Q763 -474 762 -468L763 -464H761Q756 -464 754 -453Q749 -450 732 -444Q712 -437 705 -429Q707 -398 720 -343Q729 -306 732 -284Q752 -321 752 -332Q752 -343 741 -347V-348Q744 -355 746 -362Q746 -365 745 -367Q764 -378 788 -388Q797 -393 808 -400Q820 -407 830 -408H834Q844 -406 851 -393Q855 -386 862 -363Q875 -321 893 -316Q888 -311 888 -302Q888 -294 893 -287Q884 -282 881 -259Q878 -236 868 -231Q862 -233 860 -233Q851 -233 845 -227Q839 -222 833 -218V-219Q833 -234 853 -249Q873 -264 873 -279V-284Q871 -298 858 -298Q852 -298 847 -292Q846 -284 844 -276Q833 -254 811 -231Q788 -207 785 -177Q791 -180 799 -189Q809 -202 821 -203V-201Q820 -194 814 -189Q808 -185 803 -180Q790 -157 779 -132Q783 -119 808 -77Q827 -49 829 -47Q843 -31 862 -31Q868 -38 868 -58V-82Q868 -101 874 -108Q878 -99 878 -81V-65Q878 -38 889 -31Q891 -40 891 -59Q889 -102 886 -145Q886 -165 890 -181Q896 -177 896 -166V-152Q899 -101 902 -51Q908 -60 908 -75Q907 -98 905 -121Q905 -139 911 -147Q913 -70 923 -34Q925 -35 926 -42Q927 -51 932 -51Q935 -42 936 -22Q937 0 942 12Q948 23 955 33Q962 42 963 53Z"/>
</svg>