<svg xmlns="http://www.w3.org/2000/svg" viewBox="0 -800 1024 1024">
	<path fill="#000000" d="M125 -432H129Q125 -424 122 -420Q117 -415 110 -415Q108 -419 108 -421Q108 -432 125 -432ZM308 -251H306Q291 -247 281 -242H275Q260 -242 233 -257Q208 -271 194 -271Q183 -271 169 -262Q169 -270 180 -274Q188 -277 190 -281Q189 -292 178 -307Q166 -324 166 -336Q167 -339 167 -343Q185 -349 185 -363Q185 -371 178 -378Q180 -380 182 -380Q188 -377 194 -372Q224 -391 252 -391H256Q274 -384 293 -358Q314 -330 327 -322Q326 -318 326 -311Q328 -296 329 -281Q329 -275 326 -268Q319 -268 314 -264Q308 -259 308 -251ZM346 -528V-530Q361 -525 361 -497Q360 -476 358 -455Q347 -449 338 -442Q329 -435 317 -434Q312 -434 309 -435Q298 -437 278 -445Q247 -458 234 -458Q221 -458 210 -449Q205 -473 188 -473Q168 -473 130 -438Q134 -449 151 -466Q168 -483 173 -493Q170 -505 158 -510Q148 -506 137 -503V-505Q137 -509 144 -515Q151 -521 152 -526Q151 -532 139 -551Q91 -555 41 -563Q56 -571 93 -571H103Q128 -571 139 -573Q139 -597 157 -608Q150 -624 145 -644Q157 -631 167 -617Q179 -617 186 -623Q193 -628 200 -633Q202 -639 202 -642Q201 -650 200 -659Q200 -663 203 -668Q208 -656 212 -641Q215 -627 233 -626H237Q240 -627 240 -632Q240 -638 243 -638H244Q248 -632 253 -626Q257 -620 264 -620H267Q271 -621 274 -627Q276 -632 280 -635Q290 -602 320 -576Q325 -572 331 -568Q337 -564 337 -557Q337 -553 336 -551H333Q329 -551 321 -558Q314 -565 309 -566Q306 -566 304 -563Q302 -559 300 -559Q309 -539 318 -519Q326 -498 340 -482Q350 -486 350 -499Q348 -513 346 -528ZM190 107H188Q170 106 157 95Q144 83 132 73Q116 64 98 56Q80 48 78 21V16Q83 2 87 -16Q87 -22 83 -29Q83 -32 82 -36Q83 -49 90 -60Q97 -72 104 -82Q112 -100 121 -120Q130 -140 146 -149Q134 -128 134 -115Q134 -102 145 -98Q150 -99 156 -103Q165 -109 168 -109Q172 -109 176 -105Q170 -98 159 -91Q147 -85 146 -75Q146 -70 152 -64Q165 -65 174 -73Q184 -81 193 -89Q222 -110 263 -135Q303 -160 326 -187H320Q301 -187 272 -164Q249 -145 235 -143Q238 -152 248 -158Q258 -165 268 -171Q324 -212 379 -253L382 -252L381 -250Q374 -239 363 -229Q352 -220 351 -205V-201Q358 -207 364 -213Q370 -220 379 -222Q378 -219 374 -212Q369 -204 369 -197V-193L372 -192Q376 -192 379 -193H381Q368 -170 368 -158Q368 -150 370 -146H372Q374 -147 376 -149H378Q372 -143 372 -127Q372 -108 382 -108Q374 -91 356 -75Q348 -67 324 -49V-45L326 -42Q311 -36 283 -11Q258 11 246 25Q228 47 225 81Q217 102 190 107ZM966 -156V-148H963Q954 -146 944 -145Q944 -157 959 -157Q964 -157 966 -156ZM890 -588V-585Q890 -579 885 -577Q880 -574 876 -570Q873 -574 873 -578Q874 -588 884 -589Q888 -589 890 -588ZM368 -411V-414Q370 -440 391 -456Q412 -472 432 -488Q432 -484 428 -481Q424 -478 424 -476L430 -461Q488 -462 589 -493V-530Q589 -579 581 -602Q569 -635 537 -642Q540 -649 540 -657Q540 -672 524 -672H520Q526 -682 533 -689Q540 -697 541 -710V-712Q558 -717 589 -740Q631 -771 659 -771H665Q687 -767 704 -747Q720 -726 731 -709Q729 -708 726 -708Q719 -708 709 -718Q699 -729 691 -729Q686 -729 680 -726Q681 -712 691 -692Q703 -668 703 -655Q703 -644 694 -623Q684 -599 684 -588Q684 -578 690 -568Q703 -587 719 -609Q735 -631 736 -656Q736 -668 732 -679Q735 -681 739 -681Q749 -681 754 -669Q758 -660 758 -650V-648Q757 -638 748 -626Q740 -614 732 -603Q711 -569 711 -532Q716 -530 726 -530Q785 -537 826 -566Q835 -560 843 -554Q847 -554 853 -559Q860 -564 867 -564H869Q858 -556 858 -546Q861 -524 893 -521Q897 -521 909 -523Q884 -513 884 -486Q884 -480 887 -471Q891 -469 895 -469Q904 -469 909 -470Q890 -465 881 -447Q877 -439 869 -410Q865 -411 857 -411Q839 -409 821 -408Q816 -408 808 -410L807 -414Q807 -425 836 -425Q839 -433 849 -435Q843 -446 816 -446H805Q709 -437 644 -399Q648 -397 658 -397Q687 -401 716 -405Q731 -405 738 -400Q735 -393 717 -393H710Q631 -379 611 -363Q636 -357 641 -332Q645 -301 653 -273Q641 -263 611 -244Q583 -226 570 -215Q593 -202 635 -196Q665 -220 668 -264Q677 -274 700 -275Q728 -276 737 -279Q740 -278 743 -274Q746 -270 750 -270H752Q756 -273 764 -277Q767 -277 768 -272Q788 -291 792 -295Q790 -288 783 -278Q776 -267 775 -256Q775 -248 782 -241Q779 -209 775 -196Q768 -176 752 -165Q747 -163 742 -162Q739 -156 735 -151Q718 -143 701 -135Q679 -125 654 -112Q629 -100 612 -85H621Q673 -85 755 -103V-109Q755 -148 779 -157Q798 -152 799 -151Q811 -156 822 -162Q819 -156 819 -149Q819 -131 833 -129H834Q841 -129 858 -140Q873 -150 881 -150Q862 -140 857 -120Q857 -111 868 -106Q884 -115 898 -126Q911 -137 933 -141Q916 -133 903 -120Q886 -104 886 -90Q886 -78 901 -68Q924 -75 947 -82Q935 -74 930 -70Q920 -62 918 -54Q919 -49 924 -47Q928 -46 931 -43Q956 -53 964 -53Q967 -53 973 -51Q943 -40 931 -25Q936 -15 944 -9Q947 -12 954 -12Q960 -12 966 -10Q950 -8 950 18Q950 29 952 47Q926 76 920 113Q912 103 897 102Q882 101 864 100Q847 97 834 88Q822 78 809 72V69Q809 45 786 39Q781 -15 745 -49Q731 -49 717 -50Q604 -50 535 -7Q538 -2 544 -2Q553 -4 561 -6Q631 -17 659 -19Q657 -10 645 -8Q644 -8 626 -6Q552 10 522 21Q497 30 463 53Q424 83 404 83H403Q385 83 362 47Q349 29 344 -10L343 -13Q362 -39 394 -58Q427 -60 459 -76Q491 -92 518 -103Q523 -118 537 -125Q550 -131 561 -141Q555 -146 545 -146Q535 -146 510 -137Q480 -126 470 -126Q465 -126 459 -128Q458 -134 451 -140Q445 -145 443 -149Q441 -153 441 -162V-167Q441 -173 440 -176Q434 -185 427 -194Q425 -210 420 -221Q440 -241 467 -262Q495 -282 518 -302Q536 -318 536 -339V-342H531Q516 -342 473 -317Q441 -298 429 -297H424Q401 -297 392 -321Q391 -330 381 -359Q370 -393 368 -411Z"/>
</svg>