<svg xmlns="http://www.w3.org/2000/svg" viewBox="0 -800 1024 1024">
	<path fill="#000000" d="M888 -137Q883 -129 877 -121Q875 -123 875 -129Q875 -137 877 -141Q884 -141 886 -140ZM78 -106V-102Q72 -98 62 -98Q56 -98 54 -99V-100Q54 -107 65 -107Q72 -106 78 -106ZM674 98H688V101Q688 107 674 107Q667 107 658 104Q659 98 674 98ZM318 -102Q334 -90 352 -81Q384 -104 412 -130L413 -131L411 -132Q368 -123 318 -102ZM945 112H943Q929 112 921 119Q916 123 910 134Q864 126 817 116Q771 106 722 104Q725 99 742 99Q751 100 759 100Q782 100 812 104Q826 108 839 112Q843 112 849 108Q840 98 811 92Q784 86 683 82H657Q599 82 589 103Q593 105 596 105Q609 103 621 101Q628 101 632 104Q618 111 599 112Q586 115 566 128Q549 139 541 142Q532 139 522 136H519Q517 129 503 116Q483 98 483 83Q486 72 488 61Q485 46 482 31Q482 16 500 11Q503 0 513 -9Q517 -21 521 -34Q524 -46 537 -53V-51Q535 -40 532 -29Q532 -22 541 -18Q584 -96 584 -159V-165Q584 -184 575 -190Q565 -178 561 -140Q557 -101 546 -88Q550 -136 557 -167Q553 -188 550 -208Q548 -228 531 -244Q540 -250 550 -257Q559 -265 572 -268Q580 -268 588 -269Q615 -269 654 -253Q659 -247 662 -240Q666 -233 674 -230Q672 -226 672 -224Q672 -215 682 -213Q668 -197 664 -176V-173Q685 -183 706 -193V-195Q706 -203 718 -209Q714 -214 714 -223Q714 -230 716 -242H722Q735 -242 759 -236Q783 -230 800 -230H805Q813 -228 815 -224Q828 -229 830 -229Q833 -228 836 -228L839 -226Q837 -223 834 -221H838Q848 -224 857 -227L861 -226Q861 -224 855 -220Q846 -213 845 -209V-207Q849 -197 852 -188Q854 -180 854 -174Q854 -163 848 -154H847Q839 -154 839 -162Q839 -167 840 -169Q832 -174 827 -174Q818 -174 809 -157Q799 -138 793 -135Q750 -132 737 -113Q741 -111 744 -111Q758 -115 771 -119Q791 -121 809 -126Q823 -135 836 -138Q835 -136 835 -133L836 -130Q820 -121 818 -113Q810 -114 796 -114Q770 -114 722 -95Q641 -60 615 -41Q600 -30 593 1Q603 3 622 3Q651 2 680 1Q691 2 701 2Q747 6 793 10Q823 10 833 -4Q836 1 843 2Q855 -19 855 -61V-70Q854 -74 853 -79Q853 -84 860 -84Q865 -73 865 -52V-39Q865 -14 870 -5Q874 -16 874 -29Q872 -54 870 -79V-86Q870 -107 882 -112Q879 -56 891 -7Q894 -14 894 -31V-35Q894 -55 898 -62Q902 -61 902 -57Q902 -54 901 -51Q904 -22 906 -16Q911 -4 924 6Q936 16 945 26Q949 35 953 44Q954 47 961 53Q968 59 969 63V64Q965 73 960 81Q960 84 962 86Q953 91 945 112ZM789 -408Q789 -405 786 -405Q783 -405 783 -403Q786 -399 798 -399H809V-397L808 -394Q824 -396 840 -398Q846 -398 848 -396Q836 -392 825 -387Q813 -382 812 -369V-366Q823 -367 833 -368Q813 -360 810 -341Q810 -333 818 -326Q817 -321 816 -320Q814 -319 813 -320Q810 -322 805 -312Q801 -310 799 -307Q800 -305 801 -303Q683 -285 601 -279Q595 -279 546 -270Q534 -267 527 -263Q475 -261 448 -251Q454 -240 454 -232Q451 -211 424 -200Q396 -189 375 -177Q388 -179 400 -182Q403 -181 406 -181Q423 -191 442 -193Q452 -198 462 -204Q472 -210 487 -211Q490 -211 500 -209Q504 -212 507 -216Q513 -224 518 -226L519 -224Q516 -216 513 -209Q514 -207 515 -205H517Q521 -207 525 -209H527Q526 -206 524 -204V-202Q548 -165 548 -140Q548 -128 544 -119Q536 -116 518 -115Q500 -114 492 -112Q476 -108 465 -99Q455 -90 444 -81Q418 -64 399 -46Q401 -43 409 -43H414Q413 -42 408 -40Q402 -38 402 -35Q403 -30 409 -30Q416 -30 423 -31Q427 -31 429 -30Q399 -21 399 -7Q399 0 406 10Q402 7 395 7Q381 7 374 18Q377 27 377 36Q369 27 364 17Q361 18 358 18Q352 18 342 13Q334 9 327 9H326Q317 9 295 26Q282 36 269 45Q262 52 255 60Q248 67 239 70Q241 55 272 34Q292 20 297 12Q275 15 253 29Q240 37 218 56Q170 93 168 122Q177 119 187 109Q199 97 211 94Q213 98 213 100Q213 107 203 110Q189 127 177 146Q174 146 170 148Q166 150 161 151Q160 152 158 152Q152 151 140 146Q125 140 112 140Q102 130 94 119H82Q88 114 88 107Q86 95 84 83Q83 76 75 45L76 44Q80 46 84 48H85Q87 48 99 43V41Q99 17 82 -4Q76 -11 48 -37Q39 -45 35 -57L36 -60Q80 -19 121 24Q135 36 149 36H152Q167 35 183 26Q199 16 211 9Q242 -5 266 -23Q261 -25 241 -39Q234 -34 231 -30Q232 -28 233 -26Q228 -25 218 -25Q188 -26 174 -38Q160 -51 143 -60Q143 -64 149 -67Q154 -70 155 -72Q149 -82 146 -93V-95Q142 -97 139 -97Q132 -96 125 -95Q120 -95 118 -97Q119 -101 128 -102Q138 -104 140 -106Q134 -108 130 -108Q115 -105 100 -102Q94 -102 90 -106Q123 -114 156 -123Q164 -125 184 -134Q205 -144 220 -146Q216 -141 211 -136Q206 -132 205 -125Q205 -121 206 -119Q216 -121 225 -123H227Q246 -137 265 -150Q284 -163 297 -180H294Q284 -180 271 -171Q255 -160 245 -159V-160Q246 -167 252 -170Q258 -174 263 -177Q296 -199 328 -221Q289 -210 259 -192Q242 -195 224 -196Q206 -197 196 -206Q193 -209 192 -220Q191 -229 188 -234Q184 -241 166 -244Q150 -247 150 -260V-262Q150 -267 161 -300V-301Q161 -304 160 -308L161 -311Q163 -315 171 -317Q180 -320 183 -322Q197 -329 223 -337Q220 -337 217 -337H216Q191 -339 184 -341Q168 -345 165 -356Q162 -368 162 -378Q162 -389 150 -394Q149 -397 148 -400Q148 -408 155 -414Q158 -417 172 -424Q180 -428 190 -437Q203 -449 209 -450Q209 -446 203 -438Q198 -431 198 -428Q214 -430 227 -434V-516Q227 -528 226 -541Q226 -560 234 -569Q242 -561 242 -548Q240 -530 238 -512Q239 -507 239 -503Q241 -495 251 -485Q267 -496 267 -525V-533Q267 -601 251 -624Q239 -623 239 -615Q238 -606 234 -601Q222 -606 222 -616Q221 -626 218 -636Q213 -644 206 -651Q198 -668 195 -683Q192 -697 171 -698Q161 -698 156 -697Q173 -713 198 -723Q222 -734 243 -746Q250 -747 260 -747Q288 -747 304 -737Q316 -729 329 -711Q337 -699 346 -689Q354 -678 355 -666Q355 -657 346 -641Q338 -627 338 -618Q338 -613 340 -611Q378 -621 417 -634Q417 -627 423 -624Q440 -631 465 -634H468Q463 -629 454 -626Q446 -622 445 -615Q448 -612 450 -612Q457 -614 464 -616L466 -615Q460 -611 460 -609Q460 -607 470 -603Q479 -600 480 -597Q473 -590 466 -583V-582Q467 -578 468 -574Q468 -566 461 -552Q455 -540 454 -536Q433 -529 394 -521Q337 -509 317 -500Q317 -489 316 -478Q316 -455 320 -452Q341 -456 421 -478V-468Q439 -469 457 -471Q460 -471 462 -471Q469 -483 476 -495Q483 -518 483 -539Q484 -561 485 -583Q485 -628 475 -658Q462 -696 431 -715Q443 -727 443 -730Q443 -734 437 -736Q428 -734 419 -733Q415 -733 414 -734Q432 -755 460 -769Q489 -784 518 -798H523Q550 -798 571 -786Q580 -781 601 -763Q601 -751 614 -733Q625 -717 625 -709V-705Q625 -699 614 -688Q600 -675 600 -665Q597 -647 593 -625Q609 -629 613 -631Q635 -637 659 -653Q677 -664 694 -674Q711 -684 722 -701Q716 -704 710 -704Q696 -704 665 -680Q639 -660 627 -659V-661Q628 -664 629 -668V-670Q643 -679 661 -690Q678 -700 693 -714Q700 -720 705 -728Q710 -735 721 -737H726Q734 -736 741 -736Q747 -736 753 -739Q760 -735 780 -731Q784 -718 785 -716Q789 -709 796 -709Q800 -709 802 -710L804 -708Q801 -703 797 -698Q804 -670 804 -650Q804 -628 794 -614Q778 -602 748 -595Q735 -592 699 -585Q684 -582 654 -570Q649 -568 610 -556Q599 -552 577 -542Q576 -536 576 -531Q569 -508 569 -492Q618 -498 681 -503Q744 -507 771 -533Q775 -532 775 -530Q775 -527 774 -525L775 -523Q783 -527 789 -544Q793 -557 799 -561Q802 -555 802 -553Q801 -543 799 -534Q799 -529 800 -526H802Q806 -526 807 -530Q808 -533 811 -533H812V-528Q812 -518 811 -508Q811 -494 823 -494H825Q821 -488 821 -483Q826 -463 831 -443Q830 -439 829 -436Q824 -422 789 -408ZM724 -407Q722 -408 718 -408V-410Q718 -416 738 -417Q756 -418 758 -424Q752 -436 712 -436Q695 -436 685 -435Q567 -430 560 -407Q574 -405 580 -405Q616 -408 651 -412Q663 -412 670 -411Q648 -402 619 -402Q606 -400 574 -391Q538 -381 515 -379Q510 -384 486 -394Q463 -403 460 -412V-414Q461 -420 462 -426Q460 -439 458 -453V-459Q458 -463 459 -465Q449 -461 447 -460Q441 -456 441 -450V-449L444 -447Q449 -449 454 -452H456Q436 -430 436 -416Q436 -409 437 -405Q324 -374 289 -358Q277 -348 273 -341Q276 -338 286 -338Q314 -342 341 -347Q355 -349 369 -352Q376 -352 381 -348Q368 -343 348 -340Q329 -338 327 -326V-324Q332 -322 344 -322Q393 -326 436 -338Q454 -340 471 -343Q490 -347 509 -352Q531 -356 551 -358Q571 -360 587 -368Q584 -371 580 -374Q557 -371 538 -366Q534 -366 529 -367Q486 -362 443 -357H435Q436 -366 454 -366H466Q494 -369 522 -373H531Q544 -379 564 -380Q584 -382 602 -385Q613 -387 624 -389Q630 -389 633 -385Q624 -381 611 -379Q599 -378 598 -368Q606 -365 614 -365Q617 -365 654 -373Q684 -379 691 -387Q688 -390 680 -390Q672 -389 664 -389H661Q670 -399 698 -402Q718 -404 724 -407Z"/>
</svg>