<svg xmlns="http://www.w3.org/2000/svg" viewBox="0 -800 1024 1024">
	<path fill="#000000" d="M919 -750H918Q915 -750 912 -746Q909 -743 906 -743H905L904 -747Q906 -756 915 -758Q919 -758 919 -751ZM91 -38Q81 -25 72 -21Q72 -23 70 -27Q74 -38 91 -38ZM695 -101Q688 -106 681 -111Q675 -117 673 -126Q684 -126 689 -118Q690 -117 695 -101ZM619 -691V-690Q606 -685 593 -681V-684Q593 -689 595 -693Q604 -696 613 -699Q619 -699 619 -691ZM411 -311Q412 -320 412 -329Q412 -336 411 -338Q391 -335 378 -326Q364 -317 351 -308Q351 -304 356 -297Q369 -297 387 -304Q402 -310 411 -311ZM406 -440V-446Q404 -462 398 -476Q382 -471 369 -458Q361 -450 348 -432H346Q339 -432 333 -424Q327 -416 327 -409V-408Q368 -418 406 -440ZM482 -336V-329Q497 -333 513 -339Q523 -340 527 -344Q529 -346 535 -357Q559 -393 568 -410L565 -411Q559 -411 554 -401Q554 -403 551 -405Q517 -393 505 -384Q482 -367 482 -336ZM596 -465Q613 -502 632 -538Q651 -575 664 -611Q565 -585 477 -530Q483 -527 486 -527Q491 -527 495 -528Q497 -499 503 -482Q518 -495 523 -498Q533 -504 548 -504Q551 -512 554 -520Q557 -529 565 -531Q566 -527 566 -520Q566 -507 571 -503Q577 -503 584 -508Q592 -513 599 -513Q598 -509 593 -503Q586 -495 586 -490L587 -486Q590 -486 594 -491Q596 -494 598 -494L601 -492Q593 -476 593 -472Q593 -468 596 -465ZM612 -174H614Q599 -165 592 -133Q582 -92 578 -83Q570 -90 556 -90Q546 -89 536 -89Q529 -89 526 -90Q501 -101 477 -122Q468 -132 461 -170Q478 -203 495 -236Q501 -230 504 -219H506Q516 -220 526 -222H528Q542 -218 563 -192Q577 -174 583 -170H584Q589 -172 594 -174H595Q594 -169 592 -165L593 -162Q598 -162 604 -169Q609 -174 612 -174ZM908 -140V-134Q901 -143 875 -143H862Q831 -143 822 -156H820Q815 -157 810 -158L806 -157Q806 -166 795 -166Q786 -165 777 -165Q771 -165 769 -167Q771 -171 781 -171H787Q782 -196 747 -196Q733 -196 726 -195Q743 -202 759 -209Q759 -231 739 -256Q719 -281 719 -303Q720 -307 720 -312Q732 -342 768 -345Q777 -345 786 -342Q791 -346 798 -346Q806 -346 822 -336Q837 -327 846 -326Q854 -312 870 -309H873Q879 -311 885 -314H887V-311Q887 -296 901 -289Q915 -295 921 -299Q915 -291 915 -279Q915 -270 923 -270Q929 -270 934 -272Q929 -263 929 -247Q930 -236 930 -225Q930 -212 926 -204Q919 -206 919 -221Q919 -233 916 -236Q898 -233 896 -211Q894 -187 890 -171Q890 -167 894 -165Q898 -163 898 -162Q904 -168 910 -176Q915 -184 922 -185H923V-180Q923 -174 916 -163Q908 -151 908 -140ZM218 47V44Q218 36 224 28Q221 19 212 16Q203 13 193 10Q194 8 194 5Q194 0 187 -9Q163 -6 147 5Q131 17 112 25Q116 16 138 -2Q144 -7 154 -14Q163 -22 165 -29V-30Q165 -37 156 -44Q147 -51 138 -51H136Q129 -51 119 -46Q109 -41 104 -41H101Q106 -46 132 -65Q123 -71 121 -88Q119 -96 109 -101Q101 -105 97 -110H101Q125 -111 127 -128V-130Q127 -137 114 -152Q101 -167 101 -176V-177Q109 -173 119 -162Q130 -150 137 -146Q156 -151 174 -156Q176 -165 177 -174Q184 -168 188 -159Q191 -150 204 -149H205Q208 -150 209 -156Q210 -163 214 -164H215Q217 -164 219 -158Q221 -153 223 -152Q280 -125 295 -102Q337 -72 337 -20Q337 -14 335 0Q323 28 292 29Q280 29 267 21Q265 23 263 25Q257 22 251 22Q240 23 232 31Q225 39 218 47ZM855 -35H858Q856 -32 856 -23Q856 -9 861 1Q855 19 848 37Q840 40 821 52Q800 65 783 70Q740 81 722 82Q704 85 703 85Q696 85 691 79Q693 70 714 70H720Q722 67 723 63Q713 52 687 52Q665 52 645 58V61Q646 67 646 72Q648 73 653 73H655Q662 73 663 76L664 79Q661 85 655 87Q651 86 645 86H636Q622 81 595 79Q571 77 559 73Q552 69 544 64Q527 60 509 55Q494 50 491 48Q480 43 477 34Q511 43 543 57Q575 72 615 73Q623 73 630 72Q629 57 613 51Q610 50 584 45Q532 35 482 7Q465 -7 444 -10Q437 -10 433 -8Q434 -4 440 1Q446 6 446 12V16Q430 11 410 -13Q394 -31 384 -38Q378 -54 372 -71Q370 -76 368 -87Q366 -91 363 -95V-97Q368 -117 372 -138V-140Q372 -148 367 -161Q361 -176 361 -183Q362 -186 362 -189Q367 -187 372 -176Q377 -164 384 -162H390Q418 -160 438 -136Q458 -110 474 -90Q477 -84 489 -77Q501 -70 504 -63Q529 -56 547 -44Q553 -46 554 -46Q566 -43 577 -40Q581 -40 583 -41L598 -35Q656 -37 661 -38Q688 -41 708 -53V-56Q704 -75 700 -95Q705 -93 711 -83Q716 -74 720 -72Q714 -96 692 -128Q672 -157 666 -173Q683 -162 706 -126Q728 -91 748 -80Q741 -94 723 -116Q699 -146 692 -162Q707 -157 717 -144Q726 -132 735 -120Q759 -93 778 -77Q784 -78 789 -80Q812 -59 846 -48Q848 -47 849 -42Q851 -35 855 -35ZM669 -285V-284L667 -280L670 -279Q659 -265 654 -248Q654 -245 655 -243Q647 -237 645 -225Q643 -213 639 -203Q578 -207 565 -210Q564 -220 553 -229Q543 -238 542 -246L540 -247Q536 -246 531 -246H529Q524 -261 522 -263H511Q482 -263 467 -258Q421 -243 402 -234Q370 -219 354 -198Q351 -197 346 -197Q336 -197 320 -207Q304 -217 293 -217Q288 -217 285 -216V-220Q285 -241 266 -266Q246 -292 245 -311Q254 -310 259 -304Q261 -302 265 -290Q272 -269 282 -266Q287 -271 287 -277Q287 -287 270 -323Q257 -350 252 -357Q241 -372 224 -377Q223 -375 223 -372Q226 -363 229 -354Q229 -352 227 -348Q218 -355 204 -373Q192 -389 183 -396Q158 -399 149 -411Q143 -412 127 -420Q106 -430 92 -432Q80 -444 78 -466Q75 -487 72 -507Q78 -547 85 -564Q94 -580 98 -594V-598Q95 -617 92 -637Q92 -646 94 -651Q98 -647 102 -630Q107 -610 116 -606Q120 -610 120 -614Q118 -624 115 -635H116Q125 -634 127 -626Q129 -617 139 -615H141Q143 -617 143 -619Q141 -624 138 -630L140 -633Q146 -632 150 -627Q154 -622 158 -617Q163 -620 175 -620H178Q192 -620 196 -624Q221 -621 236 -611Q241 -608 264 -587Q273 -579 279 -572Q286 -564 297 -564H301Q307 -564 309 -572L313 -571Q322 -571 335 -584Q394 -605 446 -636Q476 -646 506 -657Q520 -665 539 -668Q546 -668 550 -666Q526 -655 500 -646Q474 -636 451 -621Q429 -607 427 -597Q432 -594 435 -594Q442 -597 449 -600Q478 -609 528 -633Q570 -646 612 -660Q635 -671 657 -683Q678 -693 698 -711Q692 -714 686 -714Q678 -714 663 -708Q648 -702 639 -702H637Q638 -711 647 -714Q655 -717 663 -719Q725 -741 745 -759Q760 -763 774 -771Q784 -773 788 -773Q806 -773 830 -759Q831 -756 834 -754Q838 -751 839 -747Q844 -749 854 -758Q866 -769 875 -769H878Q872 -761 866 -755Q860 -749 857 -740Q860 -734 864 -729Q871 -732 878 -735H880L881 -733Q878 -729 875 -723L876 -720Q879 -720 884 -727Q891 -737 900 -737H902Q898 -729 892 -719Q886 -710 885 -699Q886 -695 886 -692H887Q891 -692 892 -696Q894 -701 896 -701L899 -700L900 -697Q897 -690 893 -684V-679Q893 -668 901 -645Q910 -619 910 -607Q910 -600 907 -593Q893 -589 883 -581Q872 -572 861 -564Q851 -558 840 -552Q829 -546 825 -533Q823 -534 818 -534Q808 -533 801 -526Q795 -519 790 -512V-511L792 -509Q796 -509 800 -510H802Q796 -503 786 -499Q782 -497 776 -488Q770 -480 765 -477Q764 -480 764 -486Q764 -496 775 -510Q786 -524 786 -536H783Q763 -535 753 -516Q743 -498 734 -480L732 -479Q729 -482 725 -485Q708 -470 696 -447Q685 -424 673 -399Q653 -359 649 -349Q637 -319 637 -294V-289Q657 -307 680 -363Q699 -409 714 -427H716Q719 -425 722 -424Q727 -427 731 -436Q737 -450 748 -450V-446Q748 -437 731 -410Q692 -347 669 -285Z"/>
</svg>