<svg xmlns="http://www.w3.org/2000/svg" viewBox="0 -800 1024 1024">
	<path fill="#000000" d="M954 -695H956Q952 -678 945 -676Q941 -680 941 -683Q942 -693 954 -695ZM921 -165H930Q931 -163 931 -160Q929 -150 926 -140Q920 -144 920 -156Q920 -162 921 -165ZM835 -443H832Q820 -440 808 -437L807 -441Q809 -452 822 -453Q834 -453 835 -443ZM315 -217H317Q336 -221 351 -226Q349 -246 345 -249Q321 -241 315 -217ZM425 -246H427Q450 -246 450 -284Q450 -298 449 -305Q444 -303 438 -302Q429 -276 425 -246ZM417 -145H422Q432 -166 435 -190Q398 -190 398 -149V-145Q400 -144 403 -144Q410 -144 417 -145ZM342 -165Q317 -158 293 -151Q270 -143 262 -120Q291 -130 333 -133Q344 -151 344 -158Q344 -163 342 -165ZM917 -461H911Q891 -457 871 -454Q865 -454 862 -456Q866 -463 878 -468Q890 -473 893 -478Q883 -483 868 -483Q842 -482 815 -471Q789 -460 767 -452Q722 -436 718 -434Q691 -421 687 -400Q702 -400 738 -417Q774 -434 795 -437Q790 -425 771 -419Q741 -410 740 -409Q732 -405 726 -399Q719 -393 708 -392Q703 -384 685 -374Q665 -363 659 -353H651Q612 -353 594 -393Q589 -401 584 -409Q578 -425 575 -437Q572 -450 558 -452V-454Q560 -463 567 -470Q575 -491 576 -519Q585 -548 592 -584V-610Q596 -624 599 -638Q601 -646 601 -654Q601 -667 591 -668Q587 -667 584 -658Q581 -648 575 -647V-651Q578 -676 581 -701Q583 -740 616 -777Q649 -814 682 -815H684Q703 -814 713 -802Q723 -790 733 -776Q750 -755 757 -729Q754 -722 751 -716V-705Q747 -697 743 -689Q740 -665 733 -642Q723 -623 711 -606Q699 -589 697 -568Q728 -576 760 -593Q781 -598 801 -604Q824 -613 846 -623Q852 -626 862 -638Q872 -650 876 -653Q879 -647 879 -639Q893 -646 905 -656Q917 -666 936 -669Q924 -659 913 -649Q901 -640 896 -623Q903 -625 911 -632Q921 -641 927 -642V-640Q927 -636 922 -630Q912 -617 912 -609V-604Q916 -605 920 -610Q925 -616 930 -616H933Q923 -604 923 -588Q923 -581 926 -575L928 -574Q930 -577 937 -580L940 -579Q938 -569 938 -564Q938 -559 939 -556Q944 -546 947 -544Q942 -535 937 -527Q932 -509 931 -490Q930 -470 917 -461ZM961 50V53Q961 74 941 90Q932 97 902 112Q895 110 887 106Q873 98 863 98H857Q851 92 845 86Q839 80 828 79Q811 47 810 27Q818 29 827 42Q838 57 849 59V53Q849 26 820 -13Q796 -47 792 -52Q776 -72 758 -83V-77Q758 -63 776 -40Q792 -19 795 -4Q771 -17 759 -42Q746 -68 724 -83Q707 -69 688 -26Q668 20 649 34Q629 26 604 22Q593 7 579 7Q583 -5 586 -18V-20Q582 -40 576 -62Q570 -135 563 -152Q568 -151 571 -146Q573 -140 575 -136Q582 -121 584 -117Q592 -119 599 -128Q609 -140 619 -140H620Q619 -134 613 -124Q606 -112 606 -105Q606 -99 608 -96Q620 -102 632 -115Q636 -119 652 -139Q660 -148 668 -156Q675 -164 676 -175V-177Q674 -178 670 -178Q660 -178 648 -162Q639 -150 632 -149Q634 -167 644 -176Q654 -185 662 -196Q653 -203 637 -226Q627 -240 620 -248Q622 -240 622 -238Q622 -230 615 -220Q607 -209 607 -202Q605 -203 601 -203Q589 -200 575 -194Q571 -196 566 -199Q545 -199 536 -196Q517 -191 517 -170Q518 -167 518 -164Q522 -154 531 -148Q542 -142 551 -134Q550 -132 550 -128Q551 -118 558 -111Q565 -105 570 -98Q567 -93 567 -79V-62Q553 -53 517 -53H503Q499 -48 499 -29V-25Q499 -8 496 -2Q493 -4 490 -13Q487 -21 483 -23Q473 -20 473 -11Q472 -2 471 7Q470 13 463 26Q455 42 455 50Q455 55 458 61Q474 57 482 41Q486 34 494 8Q501 15 501 25Q501 42 485 59Q470 75 453 79Q399 67 387 10Q375 2 339 -4Q305 -10 293 -17Q301 -21 312 -21Q341 -18 369 -15Q378 -15 382 -16Q379 -21 372 -22Q364 -23 358 -25V-26Q358 -31 363 -31Q367 -30 370 -30Q381 -33 391 -36Q398 -51 405 -67Q397 -80 370 -80Q365 -80 311 -74Q296 -72 279 -65Q259 -57 259 -50Q259 -45 269 -44Q273 -43 276 -43Q287 -43 309 -49Q339 -57 351 -57Q364 -57 373 -52Q316 -41 258 -29Q199 -17 166 30Q151 29 136 15Q124 4 116 1V-3Q112 -27 108 -45V-50Q110 -59 123 -71Q134 -81 136 -88Q126 -88 119 -76Q111 -63 104 -62H102Q86 -66 69 -77Q47 -86 42 -90Q30 -99 30 -115Q30 -123 31 -127Q45 -144 53 -167Q61 -190 83 -199H87Q102 -199 124 -212Q145 -225 157 -226Q155 -219 145 -213Q134 -206 133 -199L135 -198Q137 -198 140 -202Q144 -208 148 -208H149V-205Q149 -200 152 -197Q158 -196 164 -196Q166 -196 200 -202Q208 -221 209 -243Q209 -265 210 -290Q192 -302 173 -312V-313Q170 -322 163 -331Q158 -346 157 -363Q155 -380 139 -384Q153 -395 153 -417Q153 -430 148 -447Q160 -454 175 -476Q191 -500 206 -507V-505Q204 -494 201 -483Q201 -479 203 -476Q216 -484 227 -503Q229 -506 244 -538Q251 -552 259 -567Q267 -583 268 -600Q268 -605 266 -613Q253 -610 247 -600Q241 -590 237 -578Q232 -551 216 -536Q214 -539 214 -544Q214 -550 220 -560Q227 -572 228 -578V-593Q235 -608 237 -620Q237 -630 222 -634Q218 -654 206 -665Q213 -677 225 -686Q241 -702 244 -707Q246 -712 247 -717Q266 -735 296 -745Q305 -750 325 -753Q330 -753 333 -752Q345 -750 360 -735Q376 -720 387 -701Q401 -677 401 -653V-647Q399 -623 375 -587Q356 -559 352 -541Q365 -548 382 -550H385L387 -553L388 -557Q408 -558 430 -577Q449 -593 463 -596Q466 -599 471 -610Q478 -624 486 -628Q492 -615 500 -607Q510 -609 526 -619Q544 -630 557 -632Q555 -625 540 -614Q528 -605 524 -599L528 -598Q532 -598 538 -603Q544 -608 550 -608H554Q552 -602 547 -594Q540 -584 539 -578H540Q542 -582 550 -586L554 -585Q554 -580 550 -574Q547 -569 546 -566Q551 -561 551 -547V-543Q551 -533 552 -527Q557 -511 561 -496Q561 -493 560 -491Q556 -480 537 -471Q517 -462 512 -452Q459 -436 388 -401Q365 -390 268 -338Q273 -337 282 -331Q289 -326 296 -326H298Q305 -326 318 -335Q334 -346 343 -346Q345 -346 351 -344Q349 -338 334 -330Q321 -323 321 -311Q325 -310 332 -310Q365 -314 391 -332Q435 -354 452 -369Q445 -373 436 -373Q426 -373 404 -362Q384 -352 372 -352H369Q394 -376 429 -387Q459 -398 474 -424Q490 -429 502 -441Q506 -441 510 -442Q512 -442 537 -437Q542 -424 549 -419Q552 -426 559 -428L561 -426V-424L562 -422Q564 -425 568 -428H570Q572 -426 572 -424Q570 -418 567 -412Q567 -407 566 -403Q566 -392 573 -371Q579 -353 579 -339V-332Q559 -314 552 -284Q557 -281 560 -281Q573 -284 586 -287H588Q592 -277 600 -271Q608 -266 614 -259Q612 -267 612 -273Q612 -280 616 -281Q613 -285 613 -291Q616 -303 619 -315Q629 -322 640 -322Q667 -322 687 -293Q688 -292 695 -277Q699 -269 706 -268Q708 -280 714 -287Q707 -302 707 -319Q707 -344 726 -363Q743 -381 768 -386Q809 -383 825 -378Q833 -371 841 -369H843Q848 -370 852 -376Q857 -384 862 -384H865Q861 -373 857 -362L858 -361L862 -362H863V-356Q863 -345 868 -326Q873 -307 873 -298Q873 -290 872 -286Q871 -283 864 -273Q855 -260 855 -251Q855 -247 856 -245Q830 -235 815 -212Q800 -190 786 -167Q806 -137 829 -111Q854 -77 879 -64Q884 -67 886 -80Q889 -96 897 -96H899Q897 -88 897 -84Q898 -72 899 -61Q902 -61 905 -70Q906 -76 906 -89Q905 -120 904 -151Q904 -174 909 -185Q915 -181 915 -169Q915 -161 914 -154Q914 -93 921 -25Q924 -38 924 -55Q924 -73 923 -91Q923 -117 929 -130Q932 -102 932 -76Q933 -51 940 -25Q949 -4 955 16V31Q958 41 961 50Z"/>
</svg>