<svg xmlns="http://www.w3.org/2000/svg" viewBox="0 -800 1024 1024">
	<path fill="#000000" d="M631 -175L648 -177Q647 -179 641 -182H640Q616 -176 609 -172Q594 -164 587 -144Q590 -135 596 -133Q607 -150 614 -153Q606 -139 606 -125Q606 -114 611 -108Q616 -108 621 -109Q628 -131 635 -154Q636 -161 631 -175ZM650 -266Q624 -258 618 -254Q604 -245 600 -224Q603 -220 607 -220Q610 -220 622 -225Q639 -230 644 -238Q648 -245 650 -266ZM828 -461Q828 -477 820 -500Q812 -523 812 -534Q812 -540 820 -560Q700 -530 606 -500Q604 -482 604 -464Q646 -480 688 -497V-491Q688 -483 690 -482Q696 -483 705 -488Q713 -492 719 -493Q718 -488 713 -483Q707 -477 707 -470V-469Q707 -466 711 -466Q715 -466 718 -467H721Q716 -458 714 -448L720 -430Q707 -406 707 -382H702Q689 -382 667 -372Q649 -364 644 -364H641Q643 -377 667 -384Q689 -390 693 -400Q689 -406 681 -406Q670 -406 643 -394Q628 -387 621 -383Q609 -375 609 -366Q609 -362 612 -356H620Q624 -356 624 -354Q614 -341 603 -338Q598 -338 579 -353Q573 -358 569 -359Q564 -361 562 -367Q558 -344 553 -322Q556 -314 567 -314Q576 -314 591 -320Q649 -338 703 -365Q709 -375 712 -386V-364Q720 -356 736 -324V-329Q737 -337 738 -345V-347Q732 -361 729 -383Q729 -389 728 -395Q738 -415 751 -431Q752 -437 754 -442Q755 -448 761 -448H763V-442Q763 -433 766 -430Q801 -436 827 -449Q828 -453 828 -461ZM413 -576Q413 -570 402 -562Q389 -552 389 -544Q389 -540 394 -532Q398 -532 401 -537Q405 -542 407 -542H410Q403 -530 398 -509Q398 -501 404 -495Q399 -492 399 -474Q397 -471 397 -452Q397 -450 402 -435Q406 -410 387 -389Q378 -382 355 -374Q329 -364 318 -355Q313 -332 313 -320Q313 -300 325 -297Q330 -299 334 -308Q339 -317 343 -319L344 -315Q342 -306 339 -297Q344 -299 351 -313Q361 -333 373 -333Q354 -300 354 -286Q354 -277 355 -273H356Q361 -273 366 -278Q371 -283 376 -283H378L379 -282Q379 -280 374 -275Q368 -268 367 -264Q369 -259 369 -251Q368 -235 366 -220Q366 -212 369 -205Q367 -199 355 -188Q345 -178 345 -166Q343 -167 341 -171Q339 -176 337 -177H332Q324 -177 314 -175Q313 -170 313 -159Q314 -142 314 -126Q314 -111 312 -105Q303 -114 305 -134Q306 -154 297 -163H295Q291 -161 287 -160Q285 -150 285 -145Q288 -122 290 -99V-91Q290 -73 289 -55Q289 -23 308 -15Q311 -21 311 -32Q310 -46 309 -61Q309 -69 312 -75Q323 -53 323 -16Q323 2 319 28Q313 33 287 42Q249 26 230 -3Q221 -34 221 -84Q221 -112 227 -138Q210 -127 200 -108Q190 -90 178 -73V-71Q179 -67 179 -64V-62H178Q175 -59 171 -57Q162 -37 150 -22Q137 -6 135 21Q118 26 106 33Q97 28 87 23Q82 9 70 -7V-18Q64 -26 61 -36Q61 -43 60 -50Q60 -86 70 -96Q52 -163 39 -237Q59 -177 81 -118V-121Q81 -124 76 -137Q70 -153 70 -163Q70 -166 72 -172Q79 -161 85 -147Q90 -134 101 -126Q161 -173 227 -274V-276Q228 -280 228 -285V-288Q232 -294 236 -300Q209 -295 182 -274Q167 -262 139 -232Q106 -240 96 -261Q53 -271 48 -327Q48 -342 55 -363Q49 -379 49 -393Q49 -417 67 -440Q69 -443 103 -478Q126 -505 147 -519Q124 -486 124 -455Q124 -431 129 -425Q206 -453 230 -474Q224 -481 214 -481Q206 -481 189 -473Q170 -464 162 -464H161Q176 -480 198 -488Q220 -496 241 -505Q244 -523 244 -547Q243 -568 241 -589Q240 -604 231 -625Q223 -644 223 -651V-653Q227 -690 251 -711Q266 -723 287 -723Q316 -723 326 -702V-701Q326 -698 325 -695V-694Q331 -682 336 -671Q351 -637 351 -624V-620Q351 -606 342 -585Q333 -564 332 -549Q366 -560 385 -572L386 -570Q386 -567 385 -565V-563H387Q392 -563 413 -576ZM391 -256Q391 -250 389 -242Q382 -242 382 -256Q382 -264 386 -268Q391 -265 391 -256ZM451 -248Q448 -239 442 -231Q439 -234 439 -237Q442 -247 449 -254Q451 -252 451 -248ZM763 -58L761 -57Q755 -60 749 -64V-73Q750 -76 750 -80Q757 -76 763 -58ZM807 -155V-149Q796 -140 790 -124Q786 -122 784 -122Q778 -123 772 -124L769 -122V-121Q757 -133 745 -146Q732 -159 726 -179Q719 -179 718 -181Q717 -193 716 -205V-209Q717 -222 732 -234Q746 -245 759 -245Q771 -245 775 -236Q779 -242 783 -248L785 -245Q783 -239 781 -234V-233Q784 -234 790 -242Q798 -253 803 -254Q793 -234 793 -222Q793 -215 797 -215L801 -216V-213Q804 -203 807 -194Q807 -188 806 -183Q807 -169 807 -155ZM974 -461Q972 -448 969 -436Q969 -431 972 -425Q970 -415 967 -406V-400Q964 -391 961 -383L962 -379Q958 -374 957 -367V-362Q953 -362 944 -357Q937 -353 933 -353Q929 -353 926 -356Q927 -364 932 -366Q938 -367 943 -370Q943 -384 930 -384Q921 -384 919 -383Q896 -378 891 -367Q888 -361 888 -357Q888 -349 900 -349Q904 -350 908 -351H911Q908 -344 900 -341Q892 -338 888 -332Q882 -285 882 -228Q882 -171 881 -116Q874 -143 874 -201V-208Q874 -253 872 -272Q862 -258 862 -220Q863 -187 864 -154V-144Q863 -121 861 -98Q861 -70 872 -59Q876 -59 877 -72Q877 -83 881 -84Q884 -84 886 -65Q887 -54 887 -44Q887 -24 880 -24H879Q880 -37 875 -44Q864 -43 864 -18Q864 7 872 19Q878 16 879 7Q880 -2 881 -12Q891 -2 891 29V36Q886 70 871 99Q866 107 847 123Q829 114 817 95Q805 76 794 55Q796 45 796 41Q796 27 781 4Q771 -12 768 -21Q776 -20 780 -14Q783 -9 788 -5Q786 -16 776 -29Q764 -43 764 -53Q770 -53 777 -41Q784 -30 788 -29Q752 -91 746 -104Q757 -100 774 -72Q789 -47 805 -47Q818 -98 819 -165Q819 -233 824 -296Q812 -294 804 -282Q796 -268 783 -266H781Q770 -266 759 -281Q756 -286 743 -308Q745 -303 745 -295Q745 -287 744 -279Q744 -275 745 -273Q739 -262 725 -251Q710 -239 703 -230Q696 -222 687 -212Q679 -202 678 -193Q679 -183 684 -178Q690 -172 695 -166Q696 -147 705 -135Q708 -134 710 -134Q717 -134 726 -142Q734 -149 737 -149H738L739 -147Q735 -142 731 -131Q732 -127 737 -126Q741 -125 743 -122Q737 -118 736 -110Q735 -101 734 -92Q731 -76 727 -61Q728 -58 728 -56Q687 -48 665 -36Q642 -24 607 -11Q623 -28 633 -33Q642 -37 662 -50Q661 -59 652 -59Q646 -59 636 -55Q594 -44 570 -30Q559 -25 559 -6Q561 -3 563 0Q570 -3 576 -6L578 -5V-3Q577 3 572 7Q566 11 562 15Q548 33 533 50Q524 48 512 25Q501 3 501 -7Q501 -13 495 -28Q488 -45 488 -52Q488 -54 490 -64Q492 -70 497 -74Q501 -77 505 -81Q512 -89 518 -100Q524 -111 532 -116Q529 -105 526 -95Q526 -90 531 -86Q546 -89 561 -93Q557 -105 551 -105H548Q551 -113 553 -122V-124Q551 -129 548 -134Q556 -138 564 -149Q557 -160 551 -175Q539 -196 526 -217Q470 -87 453 54Q447 56 438 56Q421 52 410 42Q407 40 398 37Q395 36 386 26Q360 10 360 -17Q358 -44 355 -71Q355 -81 367 -100Q376 -114 377 -122V-133L384 -188Q384 -200 384 -213Q384 -226 390 -230Q391 -215 389 -194Q387 -174 391 -153Q395 -167 399 -196Q404 -185 402 -175Q401 -166 401 -159Q408 -165 416 -182Q423 -197 430 -203Q432 -209 434 -216Q438 -218 441 -220L444 -219Q440 -203 433 -190Q426 -177 425 -157Q427 -147 429 -137Q452 -159 460 -198Q468 -236 476 -268Q484 -292 481 -311Q477 -330 476 -353Q466 -349 451 -317Q438 -290 430 -284Q432 -316 444 -338Q467 -379 499 -445Q497 -445 494 -446Q481 -444 468 -442Q462 -442 457 -445Q441 -455 441 -476V-482Q426 -500 422 -510Q414 -527 415 -548Q415 -557 423 -577Q428 -589 429 -598V-600Q428 -606 427 -612Q429 -638 451 -651Q472 -664 488 -677Q506 -699 523 -709Q519 -702 514 -694Q509 -686 508 -677Q508 -675 510 -667Q518 -672 538 -673Q551 -674 560 -677Q576 -684 591 -691Q640 -701 674 -710Q687 -715 700 -718Q706 -718 709 -716Q707 -709 694 -706Q668 -697 638 -691Q621 -687 603 -683Q585 -679 573 -662Q584 -655 598 -655Q631 -659 662 -674Q673 -678 725 -691Q751 -698 775 -709Q799 -720 821 -730Q816 -738 805 -738Q786 -734 767 -730V-733Q767 -742 783 -745Q794 -747 797 -751Q801 -747 807 -747Q825 -752 840 -764Q845 -763 856 -763Q882 -763 903 -769V-767Q901 -761 898 -755Q900 -751 902 -747Q911 -751 919 -756Q923 -756 924 -754Q915 -743 905 -733L908 -731Q913 -733 917 -735L919 -734L921 -732Q918 -727 914 -722V-721Q919 -722 926 -727Q935 -733 938 -733H939Q934 -725 925 -717Q917 -709 916 -695V-693Q916 -678 924 -664Q921 -652 920 -638Q919 -632 914 -624Q907 -614 907 -609Q907 -606 906 -604Q907 -597 907 -591V-586Q905 -577 900 -572Q894 -567 890 -563Q890 -557 894 -557Q897 -557 903 -560V-559Q903 -555 902 -552V-551H903Q908 -555 912 -560Q905 -531 905 -485Q926 -493 953 -508Q952 -504 949 -500Q945 -496 945 -491Q947 -488 950 -488Q959 -491 967 -494H968V-492Q964 -483 960 -474Q962 -473 965 -466Q967 -460 971 -460Z"/>
</svg>