<svg xmlns="http://www.w3.org/2000/svg" viewBox="0 -800 1024 1024">
	<path fill="#000000" d="M56 -457V-456L53 -457L52 -456Q49 -459 49 -463Q51 -475 61 -477L65 -476Q64 -470 61 -466Q57 -463 56 -457ZM664 -691H656Q654 -691 650 -693Q650 -705 668 -705Q666 -695 664 -691ZM915 -795Q915 -788 906 -772Q899 -773 899 -783Q899 -794 910 -796Q913 -796 915 -795ZM711 -600Q634 -593 526 -561Q533 -544 535 -531Q535 -526 532 -519Q564 -523 619 -538Q661 -549 680 -553Q683 -563 697 -579Q709 -592 711 -600ZM249 -294V-292Q247 -269 224 -263Q201 -256 178 -249Q173 -253 166 -253Q160 -253 146 -246Q150 -255 154 -264Q148 -269 139 -269Q113 -263 102 -237V-241Q103 -256 112 -266Q121 -277 129 -288Q119 -301 109 -317Q99 -332 98 -351Q98 -361 102 -370Q106 -380 123 -394Q142 -410 146 -421Q148 -420 148 -414V-401Q190 -396 209 -375Q229 -353 235 -339Q249 -315 249 -294ZM225 -464H222Q208 -466 193 -468V-467Q194 -452 208 -451Q222 -449 235 -447L236 -444Q234 -438 228 -432Q206 -440 200 -440Q188 -440 179 -427V-428Q179 -448 164 -464Q149 -480 133 -480Q117 -480 107 -464Q112 -479 116 -494Q116 -498 113 -504Q110 -505 104 -505Q82 -505 78 -484Q77 -486 77 -490Q77 -496 84 -507Q92 -518 92 -525V-526Q92 -532 85 -543Q79 -553 77 -561Q75 -567 75 -579V-591Q75 -600 74 -603Q69 -613 63 -624Q73 -619 83 -615Q96 -621 96 -641Q96 -653 92 -660Q98 -660 102 -651Q106 -643 110 -642Q121 -653 129 -672Q135 -643 161 -638Q188 -632 215 -625Q220 -633 224 -641Q228 -650 240 -651Q237 -643 232 -636Q227 -629 227 -618Q227 -612 228 -608Q230 -598 243 -582Q259 -561 262 -545Q266 -528 266 -507Q266 -471 247 -453Q245 -456 245 -463Q250 -482 254 -501Q254 -509 249 -513Q245 -508 241 -492Q235 -469 225 -464ZM36 -46V-48Q44 -82 62 -114Q81 -151 99 -163Q91 -146 86 -128Q86 -122 90 -117Q115 -135 158 -174Q221 -230 258 -252Q252 -242 243 -233Q235 -224 234 -210Q234 -204 235 -201Q242 -201 250 -207Q256 -211 259 -212Q255 -200 250 -189Q257 -182 259 -171Q259 -167 258 -165Q258 -162 261 -162Q264 -162 266 -163Q262 -158 262 -151Q265 -137 268 -123Q244 -103 224 -78Q204 -54 182 -31Q187 -52 212 -82Q228 -101 235 -116Q218 -108 200 -89Q198 -87 170 -53Q141 -17 141 7Q142 11 142 15Q150 12 158 -5Q165 -21 173 -21Q169 -5 162 17Q155 39 143 51Q132 61 122 61Q107 58 84 45Q76 42 66 38Q55 33 50 24Q49 19 49 9Q49 -3 47 -8Q46 -15 42 -25Q36 -39 36 -46ZM680 -185H665Q661 -185 659 -183Q647 -188 634 -194Q628 -211 621 -219Q611 -231 597 -234Q599 -236 601 -236Q607 -234 613 -233L616 -234V-235Q616 -240 605 -245Q594 -250 592 -254Q600 -254 602 -252Q600 -255 595 -257Q597 -258 602 -258Q618 -255 634 -252Q653 -263 673 -272Q693 -281 706 -297Q652 -291 613 -275Q603 -272 587 -261Q565 -247 555 -246H554Q541 -247 530 -255Q518 -264 506 -270V-276Q506 -303 528 -317Q539 -324 573 -335Q567 -330 561 -326H565Q615 -330 668 -344Q668 -346 667 -349Q667 -357 677 -372Q674 -373 668 -373Q655 -373 636 -356Q621 -342 611 -342Q601 -342 582 -352Q568 -359 561 -361V-365Q560 -381 548 -386Q537 -391 526 -396Q542 -397 571 -409Q589 -416 604 -420Q628 -425 658 -435Q682 -438 706 -442Q712 -444 720 -450Q731 -458 736 -458Q746 -457 758 -443Q769 -429 778 -429Q782 -429 785 -430L788 -429Q785 -427 785 -425V-424Q791 -426 797 -429Q799 -429 801 -427Q797 -420 792 -414Q786 -407 786 -395V-393Q771 -388 756 -381Q741 -375 733 -361Q742 -361 765 -368Q792 -376 804 -376Q818 -376 825 -370Q812 -366 798 -364Q784 -362 776 -354Q792 -355 819 -363Q852 -372 861 -373Q856 -375 848 -375H834Q840 -381 860 -383Q882 -386 887 -393L886 -390Q886 -385 890 -383Q898 -385 906 -387Q903 -384 899 -381Q902 -376 904 -376Q905 -376 909 -378Q907 -374 907 -372Q911 -359 914 -347Q905 -329 896 -312Q892 -309 888 -309Q876 -313 863 -317Q853 -319 847 -319Q818 -319 789 -300V-298Q788 -292 786 -286Q771 -273 758 -255Q746 -237 726 -231V-234Q726 -242 739 -253Q753 -265 754 -275Q715 -249 683 -212Q684 -211 688 -211Q703 -214 717 -220Q716 -206 703 -199Q691 -192 680 -185ZM937 -112H934Q929 -112 927 -110V-103Q927 -93 930 -91Q936 -91 946 -93L948 -90L947 -86Q947 -83 949 -79Q950 -82 953 -83L955 -82Q953 -76 953 -73Q953 -68 964 -53Q949 -33 946 -27Q942 -29 936 -29Q926 -29 926 -22Q916 -37 889 -37Q868 -37 853 -28Q847 -23 843 -12Q839 0 835 10Q810 73 768 107Q713 104 712 52Q712 42 715 28Q719 29 721 33Q724 38 727 38Q738 33 764 4Q737 9 723 16Q704 25 696 41Q679 39 663 28Q647 16 647 3Q647 -5 655 -15Q642 -15 623 -12Q616 12 607 34Q598 56 578 69Q580 57 588 43Q597 28 598 19Q584 29 570 50Q565 58 548 89L550 90Q557 86 567 82Q554 105 540 128H535Q512 127 502 113Q493 100 484 86Q487 68 489 50Q495 53 499 61Q525 41 537 30Q497 33 464 64Q448 63 435 53Q421 42 421 29Q421 20 429 12Q427 6 427 3Q432 -21 456 -28L457 -26Q457 -23 452 -21Q453 -16 462 -16V-15Q460 -11 458 -7V-6Q474 -7 509 -24Q507 -24 504 -25Q487 -20 469 -15H465Q476 -26 506 -36Q502 -43 502 -51Q507 -75 521 -91Q510 -89 496 -74Q481 -58 472 -57H469Q460 -57 448 -68Q438 -77 431 -79Q428 -85 428 -90Q428 -98 433 -107Q438 -116 438 -121Q438 -126 435 -132Q421 -95 407 -59Q407 -65 406 -72Q407 -106 419 -136Q430 -167 437 -198Q421 -182 413 -153Q380 -74 373 -45Q363 -5 363 4Q364 9 364 13Q375 1 380 -17Q386 -35 404 -41Q387 -1 384 50Q374 53 346 67Q326 79 308 84Q297 84 279 61Q259 36 246 35H245Q233 39 221 42Q234 20 239 -6Q239 -18 226 -18H221Q234 -47 254 -72Q274 -98 292 -126Q324 -179 348 -251Q402 -418 441 -511Q424 -509 405 -491Q388 -474 376 -471Q355 -483 334 -495Q311 -509 305 -514Q292 -526 292 -545Q293 -550 293 -556Q298 -571 304 -585V-587Q301 -602 298 -617Q299 -642 326 -665Q346 -682 372 -693Q372 -690 366 -684Q358 -675 358 -668V-665Q359 -660 370 -653Q437 -664 498 -677Q559 -691 626 -696Q595 -679 544 -671Q493 -663 447 -656Q438 -650 428 -645Q429 -638 436 -638Q437 -638 449 -642Q636 -668 736 -703Q733 -705 726 -705Q707 -702 687 -699Q681 -699 675 -702Q706 -723 749 -728Q792 -733 828 -743Q835 -734 847 -729Q859 -737 867 -748Q876 -760 893 -763Q888 -757 882 -750Q876 -743 875 -735Q875 -731 878 -725Q884 -728 889 -733Q894 -737 903 -738Q901 -723 894 -712Q896 -705 906 -693Q917 -681 923 -680H924Q927 -680 933 -684Q940 -689 944 -689Q947 -689 949 -688Q947 -681 936 -674Q926 -667 924 -660V-657Q927 -647 929 -637Q925 -619 921 -601V-597Q918 -598 913 -598Q905 -598 894 -592Q883 -586 876 -585Q878 -596 886 -601Q895 -605 900 -612Q896 -623 888 -623Q880 -623 871 -613Q863 -604 862 -596Q856 -599 850 -599Q833 -599 820 -568Q811 -546 807 -516Q817 -522 826 -544Q836 -568 846 -574Q848 -573 852 -573Q861 -576 869 -580L870 -577Q868 -571 862 -567Q846 -548 837 -532Q824 -509 823 -484Q814 -480 802 -469Q786 -454 774 -453Q760 -457 745 -461Q739 -460 733 -459Q730 -461 726 -464Q709 -464 690 -456H684Q666 -456 626 -444Q593 -434 578 -432Q553 -432 537 -426Q517 -413 495 -329L480 -275Q457 -196 449 -176Q443 -167 441 -153V-150Q455 -159 482 -159H490Q490 -154 481 -151Q472 -148 472 -141Q520 -151 546 -168Q537 -167 526 -162Q513 -156 508 -156Q503 -156 501 -157Q505 -166 517 -170Q529 -174 542 -180Q554 -186 566 -193Q578 -199 593 -200H600Q611 -196 622 -193L626 -194Q624 -188 624 -186Q624 -179 633 -167Q641 -156 641 -148V-147Q639 -132 625 -125Q612 -118 600 -111Q589 -102 582 -84Q576 -70 573 -65Q580 -61 587 -61Q595 -61 610 -68Q627 -76 635 -76Q641 -76 644 -75Q639 -73 634 -71Q634 -65 640 -65H643Q638 -60 635 -53V-52L637 -50H641Q639 -44 637 -39V-38Q643 -28 653 -19Q656 -43 684 -50Q682 -45 680 -41Q688 -35 696 -30Q716 -39 739 -47Q737 -48 733 -48Q717 -43 701 -39H699Q705 -49 717 -52Q730 -55 740 -60Q734 -67 734 -76Q734 -84 741 -97Q750 -114 751 -116Q738 -114 724 -98Q709 -81 697 -81H693Q689 -82 684 -86Q677 -92 675 -94Q664 -98 658 -103Q655 -107 655 -116Q656 -130 657 -144Q657 -151 656 -154Q651 -163 646 -172Q649 -171 657 -171Q674 -171 706 -179Q741 -188 754 -188Q748 -180 726 -174Q714 -171 708 -166Q751 -167 786 -192L783 -194Q779 -191 774 -189H773Q775 -194 776 -200Q787 -205 800 -212Q812 -219 826 -220Q835 -220 844 -214H847Q851 -215 855 -216H856Q854 -213 854 -208Q854 -202 863 -190Q872 -178 873 -169Q863 -154 836 -131Q805 -104 794 -84Q799 -82 809 -82Q837 -87 867 -92Q875 -92 879 -91Q857 -84 837 -75H843Q868 -75 905 -91Q904 -94 898 -94H890Q885 -94 884 -96Q887 -101 897 -106Q904 -110 908 -114Q909 -110 912 -107Q922 -112 934 -115Q936 -115 942 -113Q941 -112 937 -112Z"/>
</svg>