<svg xmlns="http://www.w3.org/2000/svg" viewBox="0 -800 1024 1024">
	<path fill="#000000" d="M23 -406V-416Q29 -416 32 -411Q34 -406 36 -401L33 -400Q30 -401 26 -403L24 -402ZM944 -119V-122Q944 -134 955 -134Q960 -134 963 -131Q956 -123 944 -119ZM799 -633Q799 -614 781 -614Q783 -619 786 -626Q789 -633 795 -634ZM538 -548H535Q532 -550 528 -552V-554Q531 -569 539 -576Q543 -572 543 -568Q541 -558 538 -548ZM334 -159V-143Q334 -127 327 -125Q323 -137 323 -144Q323 -159 333 -159ZM677 -354L674 -375Q660 -374 629 -358V-353Q629 -344 633 -341Q637 -348 656 -349Q672 -350 677 -354ZM666 -287H663Q652 -292 646 -304Q640 -315 632 -324Q626 -307 626 -284V-275H634Q669 -275 682 -284Q679 -288 675 -288Q671 -287 666 -287ZM669 -207H679Q684 -210 684 -220Q684 -228 680 -231Q677 -232 672 -232Q656 -229 642 -216Q624 -225 621 -234L620 -230Q618 -222 618 -217Q618 -208 623 -201Q651 -207 669 -207ZM695 -483Q694 -492 686 -497Q683 -499 670 -504Q670 -536 657 -539Q631 -517 620 -476Q609 -473 605 -459Q621 -461 644 -470Q676 -482 695 -483ZM783 30V35Q779 38 757 42Q739 45 739 58Q735 55 732 47Q717 42 705 11Q697 -10 689 -18Q686 -27 686 -33Q686 -43 694 -57Q703 -73 703 -84V-86Q716 -83 730 -80Q744 -77 753 -71Q756 -60 770 -43Q789 -20 789 -2V1Q786 16 783 30ZM667 15V19Q668 28 668 36Q668 40 667 42Q666 48 656 58Q647 67 647 74L648 78L647 80Q642 75 636 70Q634 71 631 71Q625 71 621 67Q617 63 611 60Q607 59 602 58Q582 41 572 23Q568 11 568 -12Q568 -24 569 -28Q574 -47 596 -52Q602 -63 610 -63Q626 -58 640 -46Q645 -48 649 -51Q651 -43 659 -30Q670 -14 671 -6Q669 5 667 15ZM455 61H453Q447 64 440 66H438Q438 59 442 51Q433 41 423 35Q414 39 401 42H399Q400 38 409 33Q416 29 418 24V15Q416 -9 414 -33Q417 -36 421 -36H424Q424 -43 431 -56Q436 -66 436 -73Q436 -78 433 -84H436Q442 -83 443 -76Q445 -70 448 -66Q452 -67 460 -67Q483 -66 494 -53Q505 -41 519 -31Q523 -32 529 -38Q535 -44 541 -45Q541 -35 538 -28Q554 2 554 46Q554 84 542 104Q506 97 491 91Q466 81 455 61ZM950 51V54Q949 57 945 63Q940 70 940 75L941 79Q927 80 922 91Q914 91 900 95Q883 91 871 80Q860 69 846 60Q843 52 840 44Q840 43 842 39Q854 41 867 58Q880 76 891 76L892 72Q891 63 883 55Q875 46 867 35Q862 25 856 11Q849 -3 838 -4Q837 -4 831 -2Q832 8 833 17V21Q825 18 822 9Q820 0 817 -9Q793 -28 793 -75V-83Q806 -103 831 -105Q847 -105 855 -93Q861 -96 866 -102Q870 -107 879 -108V-106Q877 -99 874 -93Q875 -86 885 -80Q907 -99 931 -115H932L934 -112Q925 -103 914 -91Q903 -79 902 -66Q902 -57 911 -48Q921 -49 930 -51H934Q928 -43 928 -37Q928 -32 931 -28Q952 -31 972 -34Q944 -27 942 -4Q942 7 950 15H956Q963 15 965 18Q963 22 957 24Q953 25 951 29Q949 33 949 37Q950 44 950 51ZM821 -117H814Q797 -117 780 -118Q770 -118 765 -117Q767 -127 780 -128Q792 -129 795 -134Q789 -145 764 -145Q749 -145 741 -144Q650 -139 627 -129Q614 -123 614 -111Q614 -107 615 -105Q628 -105 658 -112Q686 -118 701 -118Q712 -118 722 -115Q693 -107 660 -102Q627 -98 603 -84V-80Q603 -74 599 -60Q577 -51 570 -51Q560 -51 548 -60Q516 -80 510 -137Q508 -148 506 -160V-163Q512 -182 524 -206Q535 -239 535 -327Q528 -319 521 -301Q510 -273 498 -267Q485 -269 458 -284Q445 -323 421 -330Q424 -338 426 -347Q417 -344 410 -344Q398 -344 390 -350Q387 -349 377 -342Q367 -374 341 -379Q334 -317 334 -230Q334 -187 335 -168Q323 -169 323 -183Q324 -193 325 -204Q326 -214 326 -237Q326 -275 322 -321Q313 -296 309 -248Q308 -234 304 -162Q303 -131 301 -100Q301 -44 327 -25Q330 -31 330 -40Q328 -62 325 -84Q325 -101 337 -108Q347 -39 353 32Q340 41 327 54Q313 66 297 69H295Q276 69 258 50Q244 35 233 13Q218 -19 218 -27Q218 -33 221 -39Q211 -55 202 -57Q205 -61 218 -65Q225 -67 230 -71Q241 -164 254 -254Q241 -253 225 -238Q211 -224 200 -223H197Q175 -226 158 -237Q126 -252 117 -252H115Q103 -250 98 -239Q92 -229 87 -217Q90 -226 91 -237Q92 -248 97 -254Q96 -268 85 -278Q75 -288 63 -288Q48 -288 39 -276V-280Q39 -291 44 -296Q49 -302 53 -307Q50 -319 42 -325Q34 -332 26 -338Q28 -344 48 -348Q51 -366 57 -373Q56 -377 48 -383Q39 -390 39 -398H41Q51 -396 57 -392Q71 -398 79 -410Q67 -452 54 -495Q64 -475 74 -456Q84 -436 110 -435Q120 -438 120 -454Q120 -460 118 -470Q125 -448 138 -433Q143 -433 148 -440Q152 -444 156 -445L155 -443Q155 -439 161 -433Q165 -434 173 -434Q193 -433 208 -422Q222 -412 236 -404Q239 -394 250 -380Q260 -367 263 -360V-374Q268 -441 273 -509V-519Q267 -545 263 -570Q263 -577 264 -580Q255 -590 247 -601Q240 -612 226 -613Q221 -613 218 -612Q222 -625 225 -639Q225 -646 221 -651Q244 -687 261 -704Q290 -733 321 -733Q339 -733 358 -723Q359 -706 377 -680Q395 -655 395 -640Q395 -626 378 -601Q366 -584 363 -574Q361 -582 361 -585Q361 -596 372 -617Q380 -632 381 -640Q377 -648 373 -658Q370 -667 362 -669H360Q348 -669 348 -649Q349 -633 349 -618V-612Q348 -604 341 -578Q332 -546 332 -529Q332 -514 337 -507Q341 -514 344 -535Q348 -559 355 -568Q359 -567 359 -560Q356 -542 352 -524V-522Q352 -513 351 -504Q351 -499 353 -485H355Q364 -487 373 -489H377Q379 -490 380 -496Q381 -502 385 -502H387Q390 -493 394 -483Q397 -474 406 -471Q413 -474 416 -477L418 -476Q420 -458 439 -438Q453 -424 457 -413Q464 -423 464 -435Q473 -442 491 -479Q500 -505 518 -522Q516 -510 507 -490Q495 -463 495 -446V-442Q528 -477 571 -576Q588 -612 588 -624Q588 -635 581 -643Q566 -641 561 -621Q554 -593 550 -590Q548 -598 548 -602Q552 -626 556 -651Q556 -661 550 -682Q544 -703 544 -715V-720Q585 -748 605 -774Q626 -788 649 -791Q657 -791 661 -789Q690 -775 715 -749Q738 -725 757 -665Q748 -649 742 -631Q738 -624 722 -615Q702 -603 700 -591Q702 -589 716 -587Q732 -585 738 -582Q743 -585 752 -594Q763 -606 772 -609Q768 -602 762 -593Q755 -583 754 -571Q754 -562 759 -555Q762 -558 764 -563Q765 -568 771 -568L775 -567Q765 -555 765 -534Q765 -526 769 -516Q784 -522 800 -527Q816 -532 827 -542L828 -540Q827 -535 825 -531L827 -528Q836 -532 843 -538Q850 -544 861 -546V-545Q861 -543 856 -535Q850 -526 850 -519Q850 -517 852 -511L855 -510Q858 -510 861 -515Q865 -521 870 -521H873L874 -518Q874 -516 871 -513Q866 -508 866 -505V-504Q867 -499 875 -496Q880 -494 882 -492V-489Q885 -477 888 -465Q878 -450 874 -429Q869 -429 864 -430Q845 -428 825 -426H820V-428Q820 -435 837 -437Q851 -439 854 -442Q847 -454 824 -454Q804 -454 780 -444Q756 -434 751 -423Q754 -419 757 -416Q771 -421 784 -426Q789 -426 792 -420Q782 -415 772 -408Q763 -402 762 -388V-384H767Q789 -384 817 -399Q809 -386 806 -376Q808 -373 810 -373Q816 -374 821 -375H822Q816 -366 816 -353Q816 -344 817 -339Q807 -332 799 -323Q784 -321 769 -317Q754 -314 753 -300Q753 -296 754 -294Q768 -302 790 -306H792Q803 -303 813 -300Q817 -300 821 -303Q827 -277 827 -272Q827 -261 825 -254Q804 -250 782 -246Q761 -243 747 -232Q749 -219 756 -216Q775 -222 799 -222Q824 -223 830 -241Q839 -237 848 -234H850Q866 -237 879 -247Q879 -206 897 -203Q901 -194 901 -183Q897 -155 886 -132Q884 -133 880 -133Q869 -131 860 -126Q856 -130 846 -130Q839 -130 839 -125Q836 -126 832 -126Q823 -126 821 -117Z"/>
</svg>