<svg xmlns="http://www.w3.org/2000/svg" viewBox="0 -800 1024 1024">
	<path fill="#000000" d="M924 -799Q924 -796 915 -782Q910 -784 910 -789Q910 -792 913 -796Q916 -800 920 -800ZM371 -335H373Q375 -329 375 -323Q375 -309 368 -308Q362 -309 362 -321Q362 -335 371 -335ZM931 -207V-211Q937 -213 938 -213Q944 -213 944 -206Q944 -194 931 -178Q927 -179 927 -185Q929 -196 931 -207ZM629 -184Q624 -196 621 -197Q608 -194 595 -192Q581 -190 573 -184Q573 -180 577 -177Q580 -175 580 -172Q587 -182 602 -182Q617 -182 629 -184ZM641 -106V-121H636Q626 -121 609 -113Q597 -107 587 -107H583V-104Q583 -100 582 -96Q624 -100 641 -106ZM641 -30V-50Q638 -50 635 -51Q625 -51 604 -42Q591 -37 583 -35Q581 -34 578 -34H576Q567 -34 567 -28V-26Q597 -28 626 -30ZM269 -96Q272 -127 275 -159Q275 -173 270 -191Q256 -183 240 -176Q224 -168 217 -155Q215 -149 215 -145Q219 -118 223 -91Q223 -84 222 -80Q244 -83 269 -96ZM213 -310V-305Q214 -292 215 -280Q215 -274 214 -271Q224 -273 240 -285Q257 -298 273 -299Q275 -341 275 -358Q275 -387 273 -406L270 -407Q235 -381 220 -335V-325Q217 -317 213 -310ZM666 -332H670Q667 -339 655 -347Q642 -355 641 -365V-368Q645 -382 648 -396Q648 -401 647 -403Q663 -425 678 -428V-416Q693 -418 713 -426Q736 -436 749 -437Q751 -451 753 -466Q751 -466 748 -467Q738 -467 732 -452Q727 -438 719 -437H718Q711 -437 697 -449Q678 -462 677 -463Q666 -472 666 -481Q666 -487 670 -494Q666 -502 666 -513Q666 -534 696 -569V-551Q733 -562 762 -579Q765 -595 767 -611Q762 -610 752 -602Q741 -593 729 -593H725Q721 -600 713 -601Q704 -603 697 -607Q694 -613 694 -620Q693 -628 688 -631Q654 -611 637 -555Q623 -508 623 -444Q623 -406 627 -382Q623 -358 618 -334Q605 -324 588 -317Q608 -309 614 -281Q629 -284 632 -287Q629 -294 626 -302Q637 -319 640 -322Q650 -332 666 -332ZM376 29V32Q369 33 360 41Q351 49 346 50Q343 51 340 51Q328 51 307 40Q293 33 285 31Q283 20 275 14Q268 8 261 1Q244 3 228 14Q229 16 229 19Q229 25 222 33Q215 42 214 49Q210 48 203 48Q195 48 190 53Q163 41 136 28Q131 15 122 4Q113 -8 112 -23V-26Q111 -28 108 -29Q105 -29 105 -32Q117 -52 117 -84Q114 -135 106 -181Q116 -177 120 -153Q123 -129 133 -125Q143 -136 143 -153Q140 -180 130 -218Q121 -270 100 -283Q93 -279 93 -271Q96 -256 98 -241Q98 -234 94 -231Q86 -241 80 -263Q74 -285 66 -294Q56 -304 45 -313Q35 -322 32 -334Q31 -338 31 -347Q31 -349 34 -382Q40 -415 40 -418V-421Q36 -430 32 -439Q32 -443 35 -446Q40 -446 43 -438Q46 -431 50 -431Q52 -437 52 -439Q52 -446 43 -461Q34 -476 34 -486V-490Q38 -488 46 -477Q58 -461 65 -461Q70 -461 75 -466Q72 -477 53 -504Q38 -526 37 -544Q55 -524 71 -503Q86 -481 111 -469H113Q115 -469 117 -472Q119 -475 124 -475L143 -460Q163 -475 182 -490Q201 -505 220 -521Q236 -531 252 -541Q269 -551 281 -566Q284 -574 287 -582Q301 -605 329 -605Q338 -605 342 -604Q347 -606 350 -618Q353 -631 360 -631H362Q359 -613 359 -610Q359 -598 367 -595Q371 -595 373 -598Q374 -602 376 -605Q380 -585 412 -553Q441 -524 441 -496Q441 -491 439 -479Q427 -475 419 -461Q417 -458 405 -431Q396 -413 386 -395Q383 -385 382 -373Q380 -362 370 -355Q370 -358 369 -361Q372 -376 374 -391Q374 -400 368 -406Q354 -405 350 -392Q345 -380 344 -363Q336 -312 333 -257Q334 -246 334 -236V-214Q334 -184 343 -173Q351 -181 352 -213Q353 -245 362 -253Q363 -245 363 -227Q362 -176 361 -126Q361 -98 362 -85Q370 -27 380 19Q376 23 376 29ZM955 50V52Q953 63 935 72Q919 80 902 80H900Q873 76 845 70H841Q833 71 824 71H820Q813 69 805 67Q789 63 764 63H748Q732 63 725 62Q717 61 699 61H696Q691 62 686 62Q677 62 675 56Q676 48 691 48Q695 49 699 49Q749 53 798 57Q819 57 832 53Q822 33 765 29H752Q726 30 700 30Q685 30 678 29Q662 29 646 28Q600 28 588 49Q588 55 596 55Q601 55 606 54Q615 54 615 60V62Q593 67 577 69Q560 70 552 84Q547 99 538 114Q531 116 515 116Q495 116 485 115Q480 100 466 96Q452 91 439 85Q439 58 432 32Q442 20 459 -20Q463 -19 463 -12V-1Q463 5 467 8Q495 -10 495 -67Q495 -76 493 -96Q479 -92 477 -73Q474 -56 470 -40Q464 -46 464 -57Q467 -82 473 -103H470Q462 -102 458 -93Q455 -84 450 -79Q446 -78 439 -78Q418 -80 396 -92Q390 -100 390 -108Q390 -117 388 -125Q386 -131 376 -139Q365 -148 364 -155Q370 -195 395 -277Q398 -272 398 -265Q397 -251 396 -237Q396 -225 401 -220Q464 -255 506 -328Q523 -334 538 -338Q530 -340 527 -340Q514 -340 492 -324Q478 -314 469 -311Q448 -318 429 -329Q427 -335 427 -341Q427 -353 434 -356Q433 -359 433 -364Q433 -383 463 -401V-399Q463 -395 467 -395Q478 -397 498 -405Q521 -414 534 -416V-418Q535 -425 535 -432V-434Q513 -422 487 -417Q479 -417 475 -419Q471 -421 467 -426Q461 -433 457 -435Q457 -439 456 -444Q457 -461 463 -475Q470 -489 475 -503Q478 -491 486 -491Q491 -491 506 -499Q525 -509 536 -509H537Q541 -523 541 -535Q541 -545 538 -553H537Q524 -553 509 -533Q494 -513 481 -513H480Q475 -513 465 -521Q457 -527 450 -530Q445 -531 439 -532Q418 -545 418 -566Q418 -569 420 -575Q411 -591 411 -616V-622Q414 -628 416 -635V-639Q416 -646 410 -657Q405 -665 404 -671Q432 -662 445 -650Q449 -651 455 -655Q463 -661 471 -661H475V-660Q475 -653 465 -647Q457 -643 457 -637V-636Q462 -626 476 -625H478Q488 -627 516 -654Q538 -675 543 -677Q542 -682 538 -688Q527 -687 513 -678Q503 -672 496 -670L495 -674Q496 -681 501 -684Q507 -687 512 -689Q532 -706 552 -729Q572 -753 601 -757H606Q622 -755 637 -754Q643 -754 645 -755H646L648 -753Q648 -750 647 -748L648 -745L650 -744Q653 -745 656 -747L659 -745Q661 -722 676 -698Q682 -710 687 -722Q687 -727 681 -736Q675 -745 675 -751V-755Q683 -753 691 -740Q697 -731 702 -727Q721 -730 734 -739Q747 -749 761 -757Q765 -777 787 -793Q809 -809 832 -809Q855 -809 870 -793Q875 -795 879 -797L882 -796Q881 -786 879 -776Q879 -770 882 -766Q896 -772 904 -782L905 -779Q905 -776 900 -768Q895 -760 895 -755Q895 -753 897 -749L899 -747Q903 -749 906 -751H907Q904 -745 904 -738Q906 -722 907 -706V-702Q905 -689 887 -673Q869 -658 867 -647L870 -645Q874 -646 877 -647H878Q875 -638 865 -624Q850 -602 848 -590V-588Q849 -581 849 -575Q849 -566 842 -563Q840 -568 840 -578V-585Q840 -597 833 -601Q810 -594 811 -556Q808 -512 804 -468Q804 -432 817 -413Q825 -424 825 -462Q825 -501 835 -513Q839 -501 839 -482Q838 -451 837 -420Q837 -393 844 -379Q838 -375 828 -358Q819 -343 811 -337Q806 -334 790 -330Q775 -327 767 -320Q759 -322 752 -329Q744 -337 738 -338H733Q723 -338 709 -330Q695 -322 687 -322V-321Q687 -314 702 -302Q740 -308 779 -316Q818 -324 845 -337Q836 -325 832 -311Q832 -307 835 -303Q844 -307 852 -311Q855 -311 857 -310Q856 -307 847 -299Q838 -291 838 -286Q838 -281 842 -277Q850 -279 858 -281Q861 -281 863 -280Q861 -273 847 -265Q834 -257 834 -248Q834 -245 836 -239Q828 -239 821 -231Q815 -224 812 -223Q802 -226 788 -226Q766 -226 718 -214Q722 -207 725 -200Q744 -205 762 -211Q770 -206 780 -206Q784 -206 796 -208Q794 -202 791 -196L792 -193Q793 -192 798 -192Q806 -192 814 -193H817Q814 -186 808 -184Q801 -181 795 -176V-173Q795 -169 793 -161Q785 -154 749 -137Q743 -140 735 -140Q724 -140 716 -136Q707 -131 707 -124Q707 -122 709 -118Q756 -133 805 -139Q808 -138 808 -134Q808 -130 811 -128Q819 -129 827 -131Q830 -131 830 -128Q829 -125 827 -122Q834 -123 840 -124Q843 -124 847 -122Q825 -107 825 -92Q826 -88 826 -85Q817 -84 803 -70H796Q784 -70 782 -65Q773 -68 758 -68Q727 -68 704 -59Q702 -51 702 -46Q702 -42 704 -32Q728 -38 788 -44Q860 -49 876 -70Q884 -82 892 -106Q900 -129 906 -140Q908 -134 908 -130Q908 -123 902 -102Q896 -81 896 -70Q896 -66 898 -58Q905 -71 911 -108Q918 -149 928 -164Q928 -154 922 -125Q916 -94 916 -74Q916 -66 918 -52Q923 -80 931 -106Q933 -101 933 -89Q932 -69 931 -49Q932 -34 940 -12Q948 8 949 20Q952 35 955 50Z"/>
</svg>