<svg xmlns="http://www.w3.org/2000/svg" viewBox="0 -800 1024 1024">
	<path fill="#000000" d="M860 -737V-735Q852 -733 843 -732V-735Q843 -746 853 -746Q860 -746 860 -737ZM723 -722V-733Q723 -742 729 -743H731Q736 -740 741 -737Q734 -726 723 -722ZM140 -536Q131 -521 118 -521L114 -522Q117 -538 131 -540Q136 -540 140 -536ZM604 -585V-591Q604 -611 613 -611Q615 -611 619 -607V-603Q617 -592 615 -581Q610 -583 604 -585ZM842 -314Q838 -285 825 -281Q823 -291 823 -297Q823 -316 834 -316Q836 -316 842 -314ZM742 -534H730Q718 -540 708 -550Q702 -552 696 -554Q683 -566 669 -590Q655 -614 645 -629Q642 -633 642 -639Q643 -651 652 -662Q662 -674 667 -680V-704Q678 -692 689 -692Q705 -692 719 -713V-711Q719 -692 732 -679Q740 -686 747 -696Q754 -707 766 -711Q757 -689 745 -671Q748 -668 750 -665Q794 -695 837 -725H838Q841 -724 842 -720Q823 -711 807 -686Q796 -675 788 -667Q779 -658 775 -642Q781 -631 792 -631Q804 -632 817 -639Q829 -647 837 -650Q835 -642 824 -637Q813 -632 804 -626Q799 -618 799 -611Q799 -595 824 -581Q808 -580 806 -563Q803 -542 801 -525Q796 -528 791 -531Q784 -527 775 -527Q759 -530 742 -534ZM864 -18V-25Q864 -33 866 -35Q870 -18 874 -1Q877 16 890 22Q887 25 887 27Q891 36 895 40Q893 48 890 56Q894 67 898 77Q879 92 872 120Q861 119 850 118Q837 118 836 127Q829 118 803 111Q783 106 776 102Q764 93 751 83Q739 74 726 65Q689 35 689 17V16Q703 23 716 36Q728 49 742 61Q760 75 771 80Q787 88 794 88Q800 88 804 84Q791 66 760 41Q735 21 727 13Q716 2 688 -37Q665 -69 646 -85Q643 -80 643 -76Q643 -69 650 -57Q657 -45 657 -39Q657 -35 656 -33H655Q649 -33 645 -41Q641 -49 636 -58Q628 -78 618 -90H617Q610 -90 598 -70Q585 -48 578 -48Q569 -65 553 -71H550Q543 -71 534 -64Q527 -59 524 -58V-59Q524 -65 530 -70Q534 -74 535 -77Q533 -79 531 -79Q527 -78 523 -77H521Q520 -88 505 -97Q490 -106 490 -116Q490 -120 491 -122Q477 -128 470 -128H467Q468 -132 479 -133Q491 -134 492 -140Q487 -145 473 -145Q461 -144 449 -144Q442 -144 439 -145Q444 -152 466 -154Q485 -156 495 -161Q525 -183 566 -230Q557 -282 544 -331H541Q527 -331 527 -324V-323Q461 -310 414 -278Q411 -269 408 -260V-258Q428 -266 451 -277Q474 -289 504 -290Q499 -284 485 -277Q465 -268 462 -257H464Q469 -257 478 -262Q489 -268 497 -268Q493 -260 477 -251Q458 -240 455 -227V-226Q455 -223 460 -218Q463 -215 463 -213Q462 -211 461 -209L464 -208Q467 -209 470 -210L473 -209Q465 -195 465 -190Q465 -185 467 -183Q460 -180 425 -165Q395 -149 393 -140Q392 -137 392 -132Q395 -114 397 -97Q397 -87 393 -82Q384 -84 383 -107Q382 -125 377 -130Q364 -116 364 -82Q365 -57 366 -32Q366 19 384 36Q393 28 393 3Q393 -14 392 -31Q392 -45 394 -50Q408 -29 408 14Q408 35 405 53Q384 61 366 71Q365 73 365 76Q366 80 366 84Q366 88 362 89Q355 86 354 76Q349 68 341 66Q333 64 325 62Q317 57 313 51Q309 44 303 39Q298 35 268 30Q261 31 254 31Q243 31 238 25Q243 25 286 19Q265 10 229 10Q225 10 162 13Q180 6 222 3Q271 -1 288 -13Q291 -35 293 -57Q293 -66 292 -71Q274 -53 261 -53Q252 -53 240 -59Q222 -72 208 -98V-101Q210 -114 211 -128Q209 -140 206 -152Q206 -158 211 -164Q219 -173 260 -189Q291 -201 301 -208Q316 -218 316 -243V-249Q295 -243 292 -236Q268 -233 249 -218Q230 -203 211 -191Q207 -181 194 -168Q193 -166 193 -160V-155Q186 -154 176 -149Q160 -142 150 -142Q144 -142 140 -143Q130 -151 122 -161Q110 -168 97 -173Q83 -179 76 -188Q69 -198 69 -221Q69 -231 70 -236Q73 -249 81 -259Q88 -269 95 -281V-289Q95 -331 113 -344Q122 -349 134 -350Q147 -356 166 -379Q188 -406 205 -410Q204 -404 193 -393Q180 -381 178 -371Q180 -368 180 -361Q177 -346 174 -331V-326Q176 -323 178 -320H180Q203 -321 223 -331Q242 -342 262 -353Q277 -361 304 -369Q343 -380 354 -395Q350 -401 343 -401Q334 -399 325 -397Q310 -391 295 -386Q273 -373 250 -370Q247 -370 239 -372Q262 -393 304 -401Q328 -414 354 -418Q362 -433 369 -473Q354 -472 333 -463Q317 -456 309 -455V-458Q311 -463 313 -469Q312 -466 309 -466Q302 -469 294 -473H290Q278 -470 266 -467H265V-468Q265 -475 275 -479Q282 -481 283 -484Q282 -490 277 -498Q270 -509 270 -516Q266 -520 258 -520Q250 -520 235 -515V-516Q236 -523 241 -525Q246 -527 250 -531Q248 -537 246 -543V-545Q236 -544 218 -535Q206 -529 197 -527V-528Q198 -533 205 -538Q213 -543 221 -547Q239 -555 250 -567Q230 -566 193 -551Q168 -540 153 -537Q168 -552 188 -561Q208 -570 227 -579Q246 -590 264 -600Q282 -611 301 -613Q299 -607 288 -601Q276 -594 274 -587Q277 -580 285 -578Q318 -592 394 -638Q389 -650 380 -650Q373 -650 358 -640Q342 -629 334 -629H333Q334 -645 345 -651Q356 -658 362 -668Q388 -674 397 -680Q411 -678 428 -678Q445 -677 458 -671Q468 -642 480 -614Q492 -586 493 -549Q493 -541 492 -534Q481 -509 449 -503Q415 -497 388 -484Q413 -483 431 -476Q437 -462 442 -449Q459 -455 476 -458Q483 -458 491 -453Q487 -449 462 -441Q443 -435 442 -419Q444 -416 446 -413Q488 -425 530 -438Q530 -449 526 -455Q524 -456 519 -456Q512 -455 505 -455Q506 -464 513 -467Q520 -470 527 -473Q519 -563 511 -653Q505 -723 482 -745Q470 -742 458 -740Q458 -742 457 -745Q458 -754 466 -760Q474 -766 482 -773Q496 -788 505 -803Q515 -817 536 -818H538Q560 -815 578 -795Q595 -775 613 -758V-754Q614 -746 620 -739Q627 -733 631 -726Q629 -710 627 -694Q627 -686 630 -679Q626 -677 626 -665Q626 -651 618 -651H615V-672Q615 -720 603 -737Q591 -754 578 -754Q571 -754 568 -743V-738Q568 -729 578 -712Q589 -692 591 -680Q589 -662 587 -645Q586 -620 584 -596Q584 -567 594 -547Q598 -548 600 -554Q602 -562 606 -562Q614 -559 614 -543Q613 -526 612 -510Q612 -503 613 -500H616Q626 -500 642 -510Q661 -522 676 -522H682Q684 -525 685 -530Q686 -535 690 -536Q693 -524 707 -515Q725 -503 729 -498H746Q757 -498 762 -497Q745 -486 736 -478V-476Q738 -466 742 -459Q737 -456 737 -450Q737 -445 741 -435Q741 -432 738 -431Q734 -429 734 -426L735 -422Q736 -417 743 -415Q750 -413 751 -410Q751 -404 745 -402Q740 -401 735 -400Q737 -393 739 -386Q731 -383 720 -382Q710 -381 707 -374Q673 -374 628 -355Q631 -343 631 -328V-323Q640 -337 658 -341Q676 -346 695 -350Q701 -347 711 -335Q725 -318 737 -318Q740 -318 748 -320V-317Q748 -313 747 -309H749Q753 -309 758 -314Q766 -321 769 -321L772 -320V-319Q772 -312 756 -299Q760 -286 760 -268Q760 -258 759 -248Q759 -232 763 -217Q703 -200 682 -162Q705 -99 738 -61Q748 -60 759 -51Q768 -44 773 -42Q794 -51 796 -80Q799 -109 809 -130Q811 -120 811 -114Q810 -96 809 -78Q809 -62 815 -55Q815 -62 814 -70Q814 -85 820 -120Q825 -150 825 -168V-171Q822 -206 818 -241Q818 -257 824 -272Q829 -267 829 -258Q829 -250 828 -243Q832 -205 836 -167V-163Q834 -132 832 -101Q832 -82 837 -71Q836 -68 836 -62Q836 -49 841 -37V-48Q844 -76 846 -105V-109Q845 -128 843 -147V-151Q846 -163 848 -176Q848 -183 847 -191Q847 -200 852 -200Q856 -200 860 -197Q850 -184 850 -154Q850 -139 852 -105Q856 -30 862 -8Q864 -12 864 -18Z"/>
</svg>