<svg xmlns="http://www.w3.org/2000/svg" viewBox="0 -800 1024 1024">
	<path fill="#000000" d="M966 -447H965Q964 -450 964 -456Q964 -470 974 -470H975Q977 -464 977 -460Q977 -447 966 -447ZM414 -21Q397 -21 388 -37Q392 -39 396 -39Q412 -37 414 -21ZM648 -106V-107Q648 -119 664 -137Q679 -154 679 -165V-170H673Q650 -170 629 -146Q619 -134 598 -101Q607 -100 625 -93Q640 -87 649 -87Q657 -87 666 -93Q689 -111 696 -138L695 -142Q688 -140 673 -125Q658 -110 648 -106ZM765 -287Q745 -311 725 -335Q705 -359 680 -378Q678 -366 678 -360Q678 -347 683 -326Q688 -305 688 -295Q688 -285 685 -275Q688 -274 696 -274Q708 -274 765 -287ZM583 -644H587Q576 -637 576 -607Q576 -582 572 -574Q561 -567 548 -567Q531 -568 516 -576Q500 -584 486 -590Q487 -593 487 -596Q487 -609 469 -617Q465 -617 460 -613Q454 -609 449 -609H447Q450 -615 454 -620Q458 -626 465 -629Q460 -643 458 -647Q453 -655 444 -656Q473 -672 473 -690Q473 -695 467 -705Q461 -715 461 -721Q461 -724 462 -726Q468 -722 476 -710Q484 -698 489 -694Q497 -697 504 -697Q516 -697 525 -689Q529 -685 541 -670Q561 -644 583 -644ZM809 99H807Q794 96 783 89Q736 77 733 60H734Q743 60 755 67Q767 74 773 74Q777 74 783 71Q778 55 759 41Q747 33 722 20Q700 7 676 3Q669 3 663 6Q666 17 685 26Q703 35 707 45H706Q694 45 674 32Q659 22 650 20Q640 27 627 52Q610 85 589 89Q579 85 571 80Q563 75 550 74H546Q545 61 529 50Q518 43 515 37L518 36Q524 37 529 38Q532 38 534 37Q519 24 478 7Q442 -8 427 -19Q429 -20 434 -20Q446 -20 477 -7Q511 7 524 9Q528 10 531 10Q551 8 561 -10Q551 -15 530 -15H510Q485 -32 479 -35Q477 -57 475 -80Q475 -87 476 -90Q484 -106 500 -117Q502 -118 508 -118H515Q521 -118 524 -120Q527 -122 531 -131Q533 -137 536 -139Q501 -136 468 -123Q451 -109 432 -105Q421 -105 412 -115Q411 -124 401 -136Q388 -150 388 -159V-161Q390 -170 392 -180V-196Q394 -201 400 -208Q409 -218 409 -222Q404 -220 394 -209Q382 -196 371 -195H369Q355 -199 341 -204Q336 -196 336 -177Q337 -156 338 -136Q339 -130 339 -124Q339 -117 331 -117Q325 -122 325 -135Q326 -148 327 -162Q327 -178 319 -183Q305 -180 305 -158Q303 -134 303 -118Q303 -44 322 -18Q332 -21 332 -42V-60Q332 -69 333 -73Q342 -64 345 -32Q348 -7 352 2Q333 40 310 74Q305 76 296 76Q280 75 269 65Q258 54 247 45Q239 26 232 8Q224 -10 210 -22Q210 -25 214 -26Q217 -26 220 -27Q216 -33 200 -36Q183 -39 179 -45Q182 -46 191 -46H213Q229 -46 235 -49Q248 -76 251 -115Q253 -153 257 -190Q233 -173 214 -150Q195 -126 177 -102Q144 -54 106 -7Q71 -14 63 -21Q58 -25 55 -42Q51 -62 41 -66Q40 -80 32 -108Q36 -114 38 -137Q39 -155 43 -164Q48 -161 48 -150V-143Q48 -131 53 -129Q54 -133 54 -142Q52 -170 50 -199Q50 -212 53 -221Q57 -201 60 -180Q62 -159 70 -142Q79 -146 87 -151Q94 -156 106 -156Q168 -207 229 -272Q249 -294 252 -299Q263 -315 263 -334V-338Q213 -325 189 -309Q179 -300 170 -288Q161 -276 146 -275Q138 -275 130 -279Q128 -280 122 -287Q115 -295 109 -299Q89 -307 75 -315Q64 -326 64 -353Q64 -376 72 -387Q61 -397 61 -418Q62 -431 62 -444Q62 -455 59 -464H62Q67 -461 72 -459Q75 -463 75 -467Q75 -472 68 -482Q61 -492 60 -498Q79 -489 94 -477Q93 -492 75 -508Q50 -530 47 -534Q71 -532 87 -518Q104 -503 120 -491Q122 -492 128 -492Q150 -489 173 -483Q172 -478 158 -475Q140 -471 140 -462V-459Q142 -450 155 -450Q164 -450 201 -461Q211 -466 220 -471Q238 -478 255 -483Q272 -488 278 -498Q277 -501 275 -504Q271 -506 263 -506Q253 -506 233 -496Q219 -489 211 -489Q205 -489 202 -491Q207 -499 216 -502Q226 -506 235 -509Q254 -518 272 -524Q268 -544 263 -563Q258 -582 244 -591Q244 -593 250 -608Q245 -613 241 -613Q230 -613 222 -599Q224 -614 253 -647Q262 -656 273 -669Q284 -681 294 -686Q299 -688 307 -688Q328 -684 349 -681Q366 -670 374 -648Q383 -627 391 -606Q387 -597 387 -584Q387 -573 391 -564Q402 -567 421 -577Q440 -587 453 -590Q452 -582 440 -571Q429 -561 429 -552Q429 -548 430 -545H432Q438 -549 447 -553L450 -552L451 -549Q448 -542 444 -536Q451 -518 450 -486Q452 -476 454 -467Q450 -455 445 -444V-441Q447 -430 448 -419V-417Q447 -406 442 -399Q437 -393 432 -384Q387 -379 353 -368Q345 -339 345 -333Q345 -327 346 -324Q351 -311 369 -299Q387 -287 396 -278Q400 -279 404 -286Q408 -293 414 -293H417V-291Q414 -284 411 -278V-276Q415 -261 418 -246Q418 -240 415 -234L417 -233Q418 -233 420 -237Q422 -243 425 -243H428Q430 -243 430 -238Q430 -233 432 -233Q436 -231 440 -231Q451 -233 462 -235Q466 -235 469 -231Q466 -226 452 -223Q439 -221 439 -212Q440 -201 460 -201H465Q518 -208 550 -228L547 -234Q545 -235 539 -235Q522 -233 505 -232Q499 -232 497 -233Q500 -240 509 -242Q517 -244 525 -246Q542 -249 558 -253Q563 -267 568 -281Q584 -284 595 -293Q592 -302 592 -310Q593 -322 593 -335V-345Q564 -337 525 -293Q516 -284 508 -277Q500 -269 495 -258H493Q482 -255 473 -244Q467 -245 460 -251Q453 -257 448 -257Q447 -257 441 -255V-258L442 -262Q427 -290 417 -324H424V-325Q423 -332 416 -340Q409 -349 408 -357Q416 -356 420 -350Q424 -344 429 -339Q475 -355 513 -382Q550 -410 587 -431Q555 -429 536 -416Q531 -411 524 -404Q516 -396 508 -395L504 -396Q501 -397 497 -404Q494 -409 489 -413Q484 -417 475 -420Q463 -424 460 -429Q459 -432 459 -439Q460 -449 461 -460Q461 -465 460 -467Q457 -474 454 -482V-490Q454 -534 509 -570V-554H516Q541 -555 564 -564Q587 -574 609 -582V-594Q609 -649 601 -672Q589 -708 552 -709Q573 -723 596 -740Q607 -751 617 -762Q627 -772 646 -773H653Q668 -771 679 -761Q689 -752 701 -741Q710 -735 718 -729Q724 -719 724 -705Q724 -690 716 -686Q711 -714 686 -737H684Q679 -734 674 -732Q673 -730 673 -725Q673 -717 679 -703Q684 -691 685 -683V-679Q683 -657 680 -635Q680 -620 692 -612Q697 -616 699 -633Q701 -654 709 -657Q711 -651 711 -646Q709 -631 707 -616Q707 -609 710 -603Q725 -609 733 -627Q741 -645 748 -662Q755 -679 762 -697Q767 -714 767 -720Q767 -728 760 -734Q751 -730 736 -717Q750 -750 765 -782Q780 -815 821 -820Q847 -803 875 -791Q883 -756 892 -747Q886 -737 886 -712V-700Q856 -684 833 -640Q844 -640 870 -649Q889 -655 901 -656Q900 -653 893 -647Q883 -639 883 -633Q883 -628 886 -624H890Q901 -624 914 -630Q925 -635 930 -635Q934 -635 937 -634Q919 -622 918 -621Q908 -612 908 -601Q909 -598 909 -596L911 -595Q915 -596 919 -598L922 -596Q909 -585 909 -561Q909 -548 913 -539Q912 -536 908 -534Q905 -533 904 -531Q899 -499 869 -491Q830 -483 793 -479Q774 -473 754 -467Q745 -465 737 -464Q729 -463 728 -458Q730 -453 747 -439Q764 -425 769 -420Q781 -411 791 -402Q801 -394 805 -384Q793 -386 774 -404Q754 -423 739 -423Q736 -422 733 -422Q736 -406 750 -396Q763 -386 778 -375Q792 -360 808 -343Q823 -325 846 -324Q852 -324 855 -325V-330Q855 -341 844 -349Q834 -357 833 -365Q849 -363 858 -355Q866 -346 877 -339Q900 -346 909 -367Q918 -390 935 -405Q935 -394 923 -374Q910 -352 910 -335V-333Q923 -345 935 -379Q949 -418 962 -429Q941 -380 931 -321Q942 -327 950 -357Q959 -389 969 -396Q958 -358 955 -315Q955 -304 956 -299Q963 -257 971 -219V-210Q969 -177 947 -156H943Q937 -155 931 -155Q904 -156 887 -170Q871 -183 855 -198Q841 -185 816 -184Q791 -183 768 -183Q775 -175 781 -167Q780 -152 778 -137Q778 -127 780 -121Q764 -111 748 -101Q731 -92 724 -73Q735 -66 771 -58Q806 -51 820 -43Q830 -52 840 -61Q850 -70 866 -73Q866 -69 861 -66Q856 -64 852 -60Q837 -41 834 -24H836Q840 -24 846 -31Q854 -40 862 -40H864Q845 -16 845 -1Q845 10 854 17L856 18Q857 18 860 14Q863 10 866 10L869 11V12Q865 20 858 30Q859 34 859 40Q859 50 853 63Q846 77 846 85Q840 85 829 92Q817 99 809 99Z"/>
</svg>