<svg xmlns="http://www.w3.org/2000/svg" viewBox="0 -800 1024 1024">
	<path fill="#000000" d="M889 -510Q887 -489 878 -486Q876 -492 876 -497Q876 -513 884 -513Q886 -513 889 -510ZM154 -541Q150 -536 144 -531Q139 -525 131 -525Q127 -525 125 -526Q125 -533 132 -538Q138 -542 146 -542Q152 -542 154 -541ZM881 -796V-790Q876 -781 853 -781Q856 -797 873 -797Q878 -797 881 -796ZM227 -219H222Q223 -228 229 -235Q235 -242 243 -242Q247 -242 249 -241Q245 -221 227 -219ZM272 -551V-552Q265 -557 254 -557Q237 -556 224 -544Q211 -533 203 -525Q204 -536 215 -549Q223 -558 225 -564Q218 -568 210 -568Q196 -567 184 -560Q172 -553 162 -549Q167 -560 184 -575Q202 -590 206 -601Q204 -629 182 -637Q161 -645 139 -652Q143 -654 150 -654Q165 -651 179 -649Q186 -649 190 -652Q201 -659 201 -682Q199 -696 191 -707Q183 -718 179 -726H181Q185 -726 192 -721Q202 -714 208 -714H209Q212 -714 212 -717Q211 -722 210 -727Q213 -726 220 -726Q233 -726 256 -733Q282 -741 294 -741H301Q309 -737 316 -733Q326 -731 336 -730Q340 -728 346 -722Q355 -713 361 -712Q363 -706 363 -690Q393 -638 398 -597Q388 -586 388 -564Q384 -560 373 -557Q360 -553 355 -544Q349 -542 335 -542Q319 -542 303 -543Q273 -543 269 -522Q266 -526 266 -529Q269 -540 272 -551ZM825 -620V-619Q826 -615 826 -612Q822 -595 818 -581Q818 -576 819 -573Q812 -576 805 -579Q798 -574 787 -574Q779 -574 751 -588Q736 -597 720 -607Q710 -612 701 -616Q692 -619 689 -630Q652 -646 652 -670V-672Q665 -669 672 -659Q679 -649 687 -642Q690 -639 711 -630Q714 -630 714 -633Q714 -637 717 -637H718Q709 -650 688 -671Q657 -703 646 -724H635Q633 -718 633 -717Q637 -704 640 -692V-690Q630 -691 628 -700Q625 -709 622 -717Q613 -726 606 -735Q605 -741 603 -747Q599 -756 588 -769Q578 -781 575 -787Q583 -785 591 -784Q596 -788 596 -793V-799Q619 -816 643 -816Q658 -816 669 -808Q672 -808 674 -809Q686 -807 698 -805Q706 -805 709 -814Q716 -794 755 -792Q771 -806 781 -811V-810Q777 -797 773 -784V-781Q775 -774 779 -771Q783 -768 787 -764Q797 -764 814 -773Q830 -781 841 -781Q844 -780 847 -780Q841 -771 823 -763Q804 -755 799 -744Q799 -740 805 -733Q809 -728 810 -723Q824 -724 837 -726Q835 -722 829 -716Q822 -711 821 -701Q821 -696 823 -693Q829 -689 858 -682Q867 -681 877 -679Q887 -678 891 -670Q889 -669 882 -669Q867 -669 852 -670Q837 -670 832 -667Q826 -662 826 -654Q828 -641 829 -628V-624Q827 -622 825 -620ZM930 -218H929Q916 -214 902 -208H899Q865 -208 810 -255Q715 -332 601 -388Q574 -404 543 -415Q536 -429 519 -429Q500 -429 496 -409Q507 -407 517 -405Q528 -390 542 -390Q549 -390 554 -394Q553 -392 553 -387Q553 -377 569 -356Q559 -338 552 -318Q505 -305 490 -287Q532 -296 576 -303Q567 -291 530 -284Q491 -277 483 -262Q488 -256 499 -256Q513 -259 526 -262Q558 -270 593 -279Q627 -288 653 -303Q648 -309 636 -309Q621 -307 606 -306H603Q618 -322 674 -336Q677 -320 701 -320Q710 -320 714 -321Q708 -306 708 -305Q708 -301 712 -298L715 -297Q721 -299 726 -302L729 -301L730 -298Q730 -296 727 -293Q723 -289 723 -285V-282L725 -281Q729 -283 733 -285L736 -284Q734 -280 727 -275Q721 -271 718 -265Q714 -252 713 -236Q713 -221 701 -213H691Q682 -213 662 -211Q625 -206 619 -201Q609 -194 599 -146Q596 -126 593 -106V-101Q595 -82 597 -64Q597 -53 591 -46Q583 -55 583 -76Q585 -99 586 -122Q586 -137 582 -146Q571 -140 567 -117Q564 -96 564 -70Q564 5 587 32Q597 30 597 17Q596 5 595 -8Q595 -16 599 -20Q610 -6 610 15Q610 22 603 64Q592 115 566 115Q556 115 539 106Q526 101 516 91Q508 76 499 61Q495 57 490 52Q480 22 475 -9Q478 -7 482 -1Q488 7 493 9Q491 -4 474 -25Q460 -42 456 -51Q467 -51 476 -38Q484 -27 491 -27H493Q514 -29 519 -130Q521 -154 522 -178Q497 -171 472 -162Q447 -154 433 -135Q440 -113 440 -89Q440 -58 427 -33Q413 -27 396 -24H394Q387 -25 373 -35Q361 -44 352 -46Q349 -47 344 -47Q338 -47 328 -43Q313 -37 301 -37Q305 -43 316 -49Q330 -56 333 -63Q328 -69 321 -69Q314 -69 295 -58Q264 -44 263 -43Q266 -57 280 -63Q293 -70 305 -78Q319 -89 332 -111Q326 -131 319 -147V-148Q320 -151 320 -155V-156Q317 -167 304 -187Q287 -214 287 -229V-235Q289 -250 312 -270Q337 -291 357 -291H358Q396 -328 434 -366Q390 -347 352 -318Q318 -288 277 -265Q282 -282 314 -304Q349 -326 357 -339H355Q336 -339 308 -319Q286 -305 266 -288Q231 -264 198 -240Q165 -216 154 -174Q165 -176 182 -191Q201 -208 213 -211L214 -208Q212 -203 209 -199Q194 -186 169 -163Q162 -153 152 -140Q142 -126 133 -123H129Q117 -125 105 -127Q100 -127 95 -124V-127Q95 -132 98 -135Q79 -145 67 -165V-166Q68 -170 68 -174Q66 -182 55 -199Q43 -218 42 -227V-229Q45 -244 47 -259Q47 -264 46 -267Q72 -276 75 -310Q77 -347 80 -382Q85 -376 85 -364Q85 -352 84 -341V-337Q88 -316 102 -300Q138 -304 168 -321Q197 -338 227 -354Q340 -409 433 -471Q431 -473 387 -529Q388 -529 403 -532Q407 -535 407 -541Q438 -555 466 -560H468Q482 -559 492 -549Q502 -539 514 -531Q563 -567 578 -606Q578 -610 574 -615Q570 -619 570 -624Q578 -622 581 -622Q598 -622 615 -637Q617 -636 620 -636Q632 -639 643 -642H646Q671 -642 692 -618Q692 -607 702 -583Q711 -561 711 -549V-547Q710 -540 703 -529Q696 -520 695 -513Q648 -500 601 -488Q620 -471 646 -461Q672 -451 696 -438Q714 -434 729 -422Q727 -420 721 -420Q719 -420 692 -429Q668 -441 654 -441H652Q661 -424 681 -415Q700 -407 720 -400Q739 -392 759 -384Q779 -376 801 -375H804Q800 -384 788 -390Q775 -397 766 -403Q774 -405 776 -405Q797 -400 817 -396Q824 -396 831 -400Q833 -432 840 -460Q846 -459 846 -449V-435Q846 -412 850 -400Q856 -431 856 -469Q856 -486 855 -494Q855 -505 854 -516Q854 -528 858 -535Q867 -509 865 -472Q866 -431 874 -391Q877 -403 877 -433Q877 -463 880 -474Q885 -474 885 -469Q885 -465 884 -462Q887 -426 894 -391Q899 -378 915 -360Q929 -344 933 -334Q935 -326 936 -319Q952 -294 955 -270V-268Q954 -257 943 -242Q932 -227 930 -218Z"/>
</svg>