<svg xmlns="http://www.w3.org/2000/svg" viewBox="0 -800 1024 1024">
	<path fill="#000000" d="M926 -143V-147L930 -148Q935 -147 939 -147Q933 -133 926 -119Q924 -123 924 -126Q925 -134 926 -143ZM894 -623Q894 -644 906 -647Q909 -642 909 -639Q907 -627 894 -623ZM846 -404Q835 -402 823 -400Q822 -402 822 -405Q822 -415 843 -415Q845 -409 846 -404ZM404 -106Q412 -139 419 -173Q408 -170 370 -145Q358 -138 345 -130Q331 -123 328 -113L327 -109Q331 -92 340 -76Q350 -78 365 -90Q385 -106 404 -106ZM863 -412V-416Q863 -425 877 -428Q888 -431 891 -436Q884 -443 871 -443Q864 -442 856 -442Q778 -428 703 -391Q684 -381 682 -364Q696 -366 723 -378Q755 -393 769 -393Q772 -393 780 -391Q774 -382 762 -379Q751 -375 739 -371Q709 -358 679 -346Q667 -340 667 -331H664Q657 -331 647 -324Q637 -317 631 -316Q610 -324 595 -348Q583 -366 573 -395Q574 -399 574 -409Q574 -422 570 -427V-432Q573 -476 586 -515Q599 -560 613 -572V-567Q613 -551 603 -525Q592 -496 592 -481Q592 -472 593 -467Q609 -476 614 -496Q619 -517 626 -542Q642 -591 644 -604Q647 -617 647 -633Q647 -657 634 -664Q626 -653 623 -633V-619Q623 -607 617 -605Q615 -611 615 -616Q617 -634 619 -652Q619 -659 616 -665Q608 -672 596 -672Q583 -671 570 -665Q556 -659 545 -655Q549 -662 564 -677Q583 -695 588 -706Q587 -710 581 -710Q576 -709 570 -709L567 -710Q596 -732 616 -762Q638 -798 675 -820Q682 -814 696 -814Q721 -805 743 -774Q764 -745 768 -716Q769 -714 769 -709Q769 -706 768 -704Q767 -684 756 -663Q746 -643 737 -622Q719 -574 711 -536L709 -535V-533Q756 -551 806 -569Q856 -587 894 -617Q892 -609 892 -603Q892 -597 894 -595Q907 -595 926 -607Q940 -616 950 -616Q946 -612 932 -602Q921 -594 918 -586Q921 -582 924 -582Q931 -586 942 -590H943Q936 -578 931 -558Q931 -553 934 -547Q922 -521 922 -511Q922 -506 923 -503L924 -502Q927 -503 930 -505L933 -503V-502Q930 -495 926 -488V-461Q931 -449 936 -437Q936 -434 933 -430Q896 -424 863 -412ZM949 64V68Q943 70 937 73Q929 86 923 103Q917 120 899 122Q855 120 832 94Q827 94 825 97Q789 62 761 25Q749 14 746 -1Q755 2 762 11Q768 19 774 28Q785 44 796 58Q807 73 828 77Q824 55 809 36Q794 17 777 -2Q760 -25 742 -47Q725 -69 700 -82V-79Q700 -72 709 -62Q719 -51 719 -43Q719 -39 718 -37Q700 -51 687 -81Q645 -48 640 1L636 0Q632 0 630 4Q627 10 626 11Q603 11 589 23Q581 21 578 21Q573 21 563 26Q562 14 547 1Q532 -11 531 -22Q531 -26 530 -30Q534 -53 537 -77Q532 -96 528 -116Q534 -116 535 -111Q536 -106 539 -103Q541 -107 541 -108Q537 -117 530 -127Q500 -100 485 -59Q469 -18 455 25Q452 27 446 27Q440 27 430 22Q422 18 419 18Q416 18 414 19Q393 7 369 -2Q344 10 327 45Q309 49 298 53Q292 52 283 44Q273 35 266 35H265Q264 29 257 21Q250 13 250 9V7Q256 7 264 12Q270 15 275 16V14Q275 -6 252 -29Q214 -67 203 -67Q189 -65 186 -55Q186 -52 185 -50Q185 -37 206 -27Q229 -16 232 -10L229 -9Q225 -9 218 -13Q205 -20 196 -20Q190 -20 186 -19Q174 -35 164 -51Q155 -68 154 -92V-95Q160 -119 160 -133V-137Q159 -143 154 -151Q148 -161 148 -166Q159 -164 166 -159Q182 -172 196 -181Q210 -191 231 -192Q239 -192 244 -191Q253 -189 267 -180Q282 -170 289 -170Q296 -170 307 -180Q321 -193 322 -193Q331 -199 341 -203Q350 -207 354 -217Q351 -219 344 -219Q335 -219 317 -209Q305 -203 299 -202Q303 -218 318 -223Q332 -228 346 -235Q346 -274 348 -292Q299 -280 254 -259Q209 -239 163 -220Q130 -185 103 -185Q87 -185 75 -197Q64 -211 60 -231Q55 -251 35 -257Q30 -264 30 -275Q34 -297 37 -320Q37 -339 38 -354Q39 -368 49 -379Q57 -383 65 -388Q70 -392 79 -405Q88 -418 96 -424Q120 -440 145 -454Q156 -463 167 -471Q179 -479 194 -482Q191 -470 181 -465Q170 -459 161 -454Q139 -436 134 -419Q139 -420 147 -428Q158 -439 164 -440L165 -438Q162 -430 158 -423Q158 -420 160 -418H166Q201 -421 234 -433Q252 -440 269 -442Q276 -442 280 -439Q262 -421 231 -416Q210 -411 190 -406Q169 -402 163 -385Q166 -376 177 -376Q197 -379 219 -388Q280 -402 343 -430Q341 -437 339 -451H337Q328 -449 319 -447Q315 -447 312 -451Q323 -460 337 -464V-477Q337 -546 299 -565Q303 -581 306 -598Q306 -605 302 -610Q311 -614 323 -627Q337 -642 345 -646H351L355 -647Q362 -652 371 -661Q380 -670 391 -671H392Q400 -671 417 -652Q425 -641 433 -632Q440 -622 455 -617Q453 -611 453 -608Q457 -591 463 -575Q460 -559 457 -544Q457 -525 460 -503Q517 -524 546 -539Q534 -522 534 -512Q534 -506 537 -500L540 -499Q544 -502 552 -506H554Q551 -497 548 -489V-487L550 -484Q554 -486 557 -488L558 -487Q555 -481 555 -473Q558 -449 564 -427V-425Q564 -423 561 -423Q557 -422 557 -419Q558 -415 563 -413Q568 -411 569 -409Q566 -386 543 -373Q536 -369 496 -355Q481 -348 465 -341Q455 -338 443 -335Q430 -332 425 -325Q420 -318 419 -298Q417 -276 411 -265Q446 -295 475 -295Q487 -295 497 -289Q505 -294 516 -309Q527 -324 531 -326Q531 -321 525 -308Q520 -297 520 -288Q520 -283 521 -281Q525 -283 529 -290Q533 -298 539 -299Q540 -297 540 -293Q539 -284 537 -275Q538 -267 550 -251Q563 -233 566 -220Q568 -210 568 -205V-193Q568 -179 575 -172Q546 -161 534 -136Q544 -129 553 -121Q563 -114 575 -113H579Q592 -115 609 -140Q621 -157 628 -161Q623 -181 607 -191Q605 -204 590 -221Q572 -242 572 -258Q572 -265 573 -269Q564 -282 564 -290V-292Q567 -291 570 -291Q575 -291 576 -298H584Q616 -297 637 -276Q659 -255 676 -232Q689 -249 703 -270Q717 -291 718 -318Q718 -331 714 -343Q719 -341 723 -340Q736 -356 763 -356Q783 -356 792 -343Q801 -350 813 -352Q814 -351 814 -347V-340Q823 -333 837 -330Q841 -330 843 -331Q838 -326 838 -312Q838 -295 846 -284Q831 -271 831 -251Q831 -245 832 -242Q813 -241 798 -230Q788 -223 771 -205Q762 -197 752 -186Q742 -175 741 -163Q741 -159 745 -151Q752 -142 764 -134Q783 -114 801 -94Q837 -51 850 -50Q853 -51 856 -52Q864 -61 865 -76Q865 -91 867 -106Q873 -101 873 -89Q873 -78 872 -68Q872 -57 875 -53L882 -118V-122Q881 -141 880 -161Q880 -180 888 -191Q891 -152 891 -111Q890 -69 899 -37Q900 -49 900 -76Q899 -128 898 -181Q898 -197 900 -223Q907 -193 909 -119Q911 -47 917 -18Q920 -30 920 -45V-64Q920 -91 926 -100Q927 -73 928 -45Q929 -17 941 -2V4Q945 34 949 64Z"/>
</svg>