<svg xmlns="http://www.w3.org/2000/svg" viewBox="0 -800 1024 1024">
	<path fill="#000000" d="M475 -297V-294Q475 -286 470 -283Q465 -281 459 -278L458 -281Q460 -294 475 -297ZM858 -249Q850 -257 850 -270Q850 -284 862 -284Q864 -276 864 -273Q864 -261 858 -249ZM418 -114V-109Q369 -99 325 -78Q284 -59 242 -40Q250 -57 284 -71Q320 -86 330 -100Q320 -102 314 -102Q295 -101 278 -92Q261 -82 239 -71Q212 -61 186 -49Q159 -37 156 -6H159Q165 -6 175 -11Q189 -18 198 -18Q196 -8 189 -4Q181 1 174 4Q169 9 158 33Q150 51 136 55Q133 56 129 56Q103 56 80 27Q59 23 40 1Q39 -5 39 -15Q39 -29 44 -52Q49 -74 49 -89Q49 -99 48 -105Q49 -106 77 -140Q84 -148 92 -157Q100 -166 110 -171Q105 -161 103 -150Q103 -144 110 -141Q146 -152 153 -152Q156 -168 156 -191Q156 -228 151 -265Q148 -283 148 -285Q148 -293 154 -295Q159 -283 161 -246Q164 -201 175 -187Q184 -193 184 -205Q182 -219 180 -234Q179 -286 175 -333Q172 -353 165 -373Q156 -399 145 -405Q142 -396 142 -389Q145 -366 148 -343Q138 -350 130 -375Q121 -405 108 -411Q104 -437 91 -456Q98 -487 101 -516V-522Q100 -533 87 -552Q73 -573 73 -585Q74 -588 74 -591Q84 -585 96 -565Q105 -550 111 -544Q108 -559 93 -580Q79 -599 76 -613Q89 -600 100 -584Q111 -568 133 -562Q133 -568 123 -576Q110 -586 110 -595Q132 -582 153 -570Q161 -570 176 -578Q190 -585 198 -585H200Q210 -583 222 -575Q234 -566 243 -560Q271 -542 278 -528Q273 -519 273 -503Q274 -487 274 -472V-466Q335 -471 373 -496Q386 -508 401 -516H404Q411 -515 418 -514Q433 -517 448 -520Q474 -520 487 -528Q482 -519 480 -493Q482 -490 483 -490Q488 -494 492 -498H493Q491 -495 491 -489Q494 -475 499 -463Q500 -459 500 -450Q497 -421 494 -393Q495 -388 495 -384Q471 -362 454 -354H449Q438 -354 420 -345Q397 -334 382 -333Q388 -347 418 -356Q445 -364 454 -376Q444 -381 435 -381Q428 -381 401 -373Q383 -367 356 -357Q319 -341 311 -337Q285 -324 274 -309Q280 -306 286 -306Q294 -306 318 -315Q339 -323 350 -324Q340 -310 306 -299Q269 -287 258 -271Q259 -266 259 -256Q258 -232 256 -208Q256 -200 258 -190Q307 -204 354 -227Q400 -251 448 -273V-272Q448 -267 437 -260Q423 -251 419 -247Q411 -237 410 -228H411Q418 -228 428 -235Q436 -241 442 -241H445Q444 -234 433 -225Q420 -214 418 -206Q416 -196 416 -192Q416 -181 421 -166L423 -165Q426 -166 429 -168Q431 -168 433 -166Q418 -140 418 -114ZM912 38H896Q855 38 838 32Q839 25 854 23Q866 21 868 15Q857 4 821 4Q794 4 794 15V16Q794 24 809 26Q822 27 825 32Q822 39 804 39Q797 40 783 40Q757 40 730 39H717Q704 41 691 42Q680 42 674 35Q686 32 718 31Q766 30 782 20Q772 8 747 8Q718 10 689 12Q685 12 640 6Q616 3 615 3Q604 3 596 9Q597 19 614 24Q628 28 631 35Q628 38 625 38Q616 36 606 34Q602 34 600 35Q596 34 591 28Q588 24 585 23Q524 10 498 -40V-42Q495 -64 491 -87Q491 -91 493 -99Q492 -110 492 -131Q492 -176 502 -281Q512 -386 512 -443Q512 -466 511 -478Q512 -527 505 -578Q498 -613 471 -619V-629Q471 -636 469 -637L467 -639Q465 -638 462 -638L459 -640Q493 -713 547 -739Q577 -714 607 -703Q610 -686 621 -662Q631 -640 634 -628Q640 -614 640 -615Q634 -603 622 -586Q617 -574 606 -508Q602 -488 597 -469Q599 -464 601 -460Q598 -452 595 -445Q596 -443 597 -441Q648 -495 658 -506Q690 -543 711 -579V-581Q708 -593 704 -601V-603Q710 -600 716 -600Q735 -603 753 -606H755Q771 -604 780 -594Q789 -585 800 -574Q810 -580 822 -583L823 -581Q823 -579 820 -576Q816 -571 816 -568V-565Q817 -560 823 -560Q829 -560 844 -567Q858 -574 862 -574Q861 -569 852 -562Q838 -551 838 -539V-538L841 -536Q847 -538 852 -541H855Q849 -536 849 -525Q852 -504 855 -484V-480Q848 -458 844 -436Q844 -429 847 -422Q843 -419 843 -408V-400Q839 -396 835 -396Q825 -399 815 -402Q811 -403 803 -403Q776 -403 727 -376Q729 -391 753 -401Q772 -409 776 -419Q771 -424 762 -424Q755 -424 736 -416Q719 -410 702 -393Q682 -373 663 -353Q644 -332 634 -304Q642 -304 656 -320Q675 -340 690 -342Q671 -316 606 -240Q602 -243 602 -250L601 -253L597 -252Q593 -252 591 -257Q589 -263 587 -264Q582 -231 582 -198Q582 -146 597 -120Q669 -117 698 -117Q716 -117 733 -118Q801 -122 813 -137Q817 -144 817 -153Q817 -161 816 -169Q816 -176 819 -184Q826 -181 826 -168Q825 -156 828 -147Q833 -158 833 -180Q831 -216 829 -252Q829 -277 834 -292Q840 -272 843 -223Q847 -165 856 -143Q857 -146 857 -153Q854 -186 851 -219Q851 -226 853 -240Q860 -240 862 -232Q862 -230 864 -218Q868 -199 872 -179Q876 -159 886 -146H887Q890 -146 892 -151Q894 -157 897 -157H898Q918 -110 945 -81Q943 -69 943 -62Q943 -38 955 -8Q935 9 931 12Q918 25 912 38Z"/>
</svg>