<svg xmlns="http://www.w3.org/2000/svg" viewBox="0 -800 1024 1024">
	<path fill="#000000" d="M919 -761Q911 -755 907 -744Q904 -747 904 -751Q905 -762 913 -765Q915 -765 919 -761ZM414 -338Q423 -338 428 -330Q425 -319 419 -312Q417 -325 414 -338ZM71 -464V-474Q82 -482 86 -482Q89 -482 92 -479Q91 -473 81 -459Q77 -460 71 -464ZM563 -118V-105Q563 -98 565 -95Q631 -104 696 -113Q694 -119 694 -124Q696 -142 698 -161Q698 -168 696 -170Q609 -155 574 -129H568Q564 -129 562 -128Q563 -125 563 -118ZM708 -263Q709 -286 717 -326Q635 -319 583 -281Q567 -270 564 -267Q555 -258 555 -248Q555 -241 559 -234Q633 -244 682 -273Q687 -269 708 -263ZM718 -427Q721 -461 724 -495Q724 -502 722 -516L720 -518Q679 -495 638 -473Q618 -465 593 -458Q569 -450 561 -435Q559 -427 559 -424Q561 -408 563 -393Q563 -389 562 -386Q628 -407 688 -437Q691 -430 700 -429Q710 -429 718 -427ZM343 -225V-222Q330 -219 327 -204Q296 -202 279 -188Q256 -197 237 -206Q229 -213 218 -232Q203 -260 186 -264V-281Q181 -292 167 -292L160 -291Q170 -295 177 -320Q183 -344 198 -345Q195 -357 191 -369Q200 -364 208 -360Q228 -364 242 -364Q270 -364 290 -354Q312 -343 315 -321Q320 -317 326 -315Q327 -307 334 -286Q342 -263 342 -250Q342 -241 338 -233Q342 -230 343 -225ZM304 -423H300Q301 -432 312 -445Q323 -458 323 -465Q323 -470 317 -476Q308 -474 295 -461Q281 -447 270 -446H265Q250 -447 236 -454Q223 -462 208 -467Q202 -464 201 -464Q209 -444 236 -436Q245 -433 288 -426Q273 -414 256 -414Q231 -414 204 -434Q179 -453 170 -474Q153 -472 146 -465V-468Q146 -474 154 -483Q162 -491 163 -496Q159 -503 150 -503Q139 -502 126 -495Q113 -488 103 -485V-486Q103 -492 124 -510Q134 -519 149 -536Q143 -550 133 -565Q117 -568 105 -578Q116 -581 126 -584V-605Q126 -630 114 -634L118 -635Q125 -631 132 -628Q138 -634 152 -634Q161 -633 169 -633Q171 -636 176 -671L179 -669V-661Q179 -639 194 -624Q207 -611 225 -609Q236 -626 247 -643V-642Q245 -628 243 -615Q243 -607 246 -603Q266 -591 284 -591Q290 -600 296 -610Q302 -620 312 -626Q298 -612 298 -592Q298 -582 303 -578Q306 -587 313 -588H315Q313 -580 311 -573Q322 -563 333 -532Q343 -505 352 -495H363Q348 -487 340 -466Q335 -454 329 -426Q317 -424 304 -423ZM179 70H174Q161 72 152 78Q113 65 98 54Q75 37 67 4Q62 -19 62 -40Q62 -61 67 -75Q96 -106 121 -138Q114 -117 114 -109Q114 -101 118 -98Q184 -120 245 -146Q306 -172 368 -197Q371 -194 374 -192Q356 -182 335 -174Q314 -166 305 -146Q307 -145 310 -145Q315 -145 324 -152Q336 -162 345 -162Q350 -162 352 -161Q339 -152 326 -145Q313 -139 309 -123Q310 -118 316 -118Q325 -120 333 -123V-122Q333 -120 327 -117Q319 -113 318 -107Q327 -83 346 -72Q285 -42 270 -27Q265 -20 260 -13Q255 -7 246 -6Q252 -33 270 -46Q289 -60 303 -77Q253 -61 194 -13Q184 -6 172 2Q159 10 158 22Q158 27 161 33Q174 26 186 16Q198 5 212 4Q220 4 229 10Q202 22 179 70ZM846 -60H847Q844 0 829 30Q811 67 768 79Q683 53 683 -10Q683 -15 685 -29Q675 -43 647 -43Q592 -40 568 -11Q575 -7 583 -7Q591 -7 610 -13Q629 -19 639 -19Q648 -19 656 -14Q654 -8 649 -8Q644 -7 639 -6Q608 5 570 12H568Q566 16 564 19Q560 18 553 18Q538 19 523 19Q506 19 499 15Q466 -8 443 -44Q433 -64 422 -85V-88Q422 -122 400 -146Q417 -169 417 -227V-263Q417 -292 425 -302Q432 -281 433 -225Q434 -182 437 -164Q448 -184 448 -238V-269Q448 -291 449 -303Q451 -339 451 -362Q451 -402 443 -426Q433 -447 429 -447Q422 -447 422 -433V-423Q423 -396 424 -369Q424 -356 423 -350Q411 -356 413 -378Q407 -428 379 -479Q377 -497 377 -505Q377 -571 432 -588Q436 -607 440 -627Q442 -616 459 -587Q486 -581 493 -568Q502 -575 512 -583Q521 -591 536 -592Q542 -592 546 -591Q537 -583 526 -577Q516 -571 515 -555Q568 -574 617 -603Q674 -633 711 -660H708Q673 -658 646 -638Q618 -618 591 -608Q585 -606 582 -606Q576 -606 571 -611Q574 -617 583 -617H586Q588 -627 594 -633Q614 -639 626 -639Q642 -659 665 -667Q689 -675 711 -686Q720 -692 733 -709Q753 -735 770 -738Q779 -736 803 -725Q830 -712 844 -712Q856 -712 863 -717L864 -714Q861 -707 857 -700Q864 -703 876 -717Q887 -729 899 -731Q892 -719 884 -709Q875 -699 874 -681V-675Q880 -675 888 -687Q896 -699 900 -699Q894 -687 894 -671Q894 -645 906 -633H907Q910 -636 918 -640H921Q919 -634 919 -622Q920 -600 930 -581Q940 -562 949 -542Q945 -525 940 -509Q923 -507 904 -496Q882 -483 881 -467Q881 -463 883 -463Q884 -463 890 -465Q873 -453 866 -422Q863 -408 857 -363Q847 -369 847 -387Q848 -402 849 -418Q849 -426 848 -430Q834 -416 830 -389Q823 -323 821 -240Q818 -201 818 -194Q818 -167 824 -152Q839 -190 837 -249Q834 -308 854 -336Q848 -286 848 -191Q848 -117 845 -72Q836 -75 835 -101Q834 -118 830 -125Q814 -117 814 -79Q814 -53 821 -36Q827 -37 832 -48Q837 -60 846 -60Z"/>
</svg>