<svg xmlns="http://www.w3.org/2000/svg" viewBox="0 -800 1024 1024">
	<path fill="#000000" d="M672 -166Q706 -172 740 -178Q754 -179 775 -194Q795 -209 805 -210H811Q832 -209 848 -197Q863 -184 878 -172Q885 -174 892 -177H894L895 -173Q894 -168 893 -163V-162Q898 -162 907 -171Q918 -182 929 -182H930Q906 -165 906 -144V-141H908Q911 -141 914 -147Q918 -154 922 -154L925 -153Q923 -141 919 -137Q924 -132 930 -132Q922 -127 922 -115Q922 -99 930 -91Q926 -80 923 -69Q920 -57 912 -51H908Q901 -51 890 -46Q881 -42 877 -42H876Q873 -44 873 -50Q874 -59 875 -68Q875 -75 872 -78Q851 -76 834 -61Q827 -55 808 -30Q788 -4 787 -2Q778 12 777 32Q793 17 809 -4Q825 -25 850 -33Q842 -17 816 17Q783 61 773 92L771 93Q765 90 759 84Q757 85 755 87Q753 90 751 90H750Q735 78 721 75Q714 74 706 73Q688 65 675 62Q672 62 666 64Q662 60 659 52H658Q648 52 632 63Q619 72 612 72H610Q604 71 599 64Q593 56 586 55Q577 31 537 6Q491 -23 479 -39Q462 -60 462 -102H472V-104Q470 -112 467 -121V-123Q475 -118 482 -113Q491 -115 502 -122Q519 -132 529 -132Q539 -130 549 -129Q556 -132 562 -135Q580 -139 601 -140Q613 -142 633 -152Q659 -165 672 -166ZM914 -591Q910 -576 890 -576Q896 -592 908 -592Q912 -592 914 -591ZM717 -76L714 -77Q692 -70 669 -62Q645 -55 638 -38Q649 -32 660 -32Q679 -32 695 -44Q711 -56 711 -72Q714 -74 717 -76ZM741 -204Q712 -193 696 -195Q679 -197 666 -197Q602 -190 523 -134Q520 -135 517 -135Q511 -133 505 -132Q461 -149 461 -197V-203Q456 -207 441 -207H425Q420 -199 420 -182V-158Q420 -138 414 -132Q411 -151 409 -178Q408 -202 394 -204Q391 -204 385 -201Q386 -157 389 -114Q391 -71 410 -45Q420 -55 420 -77Q420 -88 419 -99H421Q425 -99 428 -100Q432 -84 432 -77Q431 -52 418 -33Q405 -15 392 3H389Q376 5 362 7H357Q352 -14 333 -17Q323 -37 290 -68L294 -87Q291 -94 285 -97Q279 -100 274 -103Q300 -112 310 -151Q314 -168 318 -222Q244 -171 222 -152Q171 -108 149 -59Q137 -58 123 -46Q111 -36 103 -36H99Q88 -38 81 -47Q73 -56 65 -66Q64 -100 55 -124Q46 -148 35 -171Q61 -152 71 -147Q196 -212 302 -313Q218 -299 151 -257Q121 -237 98 -237Q85 -237 68 -243Q59 -256 50 -270Q51 -274 51 -281Q51 -296 37 -321Q24 -344 24 -359Q25 -363 25 -367Q29 -382 38 -399Q41 -410 44 -422Q54 -436 70 -444Q86 -453 102 -461Q104 -459 104 -455V-450Q104 -445 106 -444Q120 -446 157 -457Q208 -473 237 -474Q241 -474 245 -475Q248 -475 249 -470Q232 -460 183 -449Q141 -440 124 -422Q126 -419 128 -416H133Q156 -416 208 -433Q246 -445 268 -448Q297 -451 302 -452Q319 -457 326 -473Q324 -479 314 -479Q302 -477 289 -476H287Q287 -480 284 -480Q285 -487 294 -493Q301 -498 303 -502Q304 -504 304 -508Q300 -524 296 -541V-543Q297 -551 304 -560Q311 -569 312 -573Q300 -590 284 -605Q290 -605 303 -598Q315 -592 324 -591Q328 -591 330 -595Q333 -600 336 -600Q349 -597 361 -594Q370 -596 379 -599Q395 -599 413 -582Q429 -566 443 -563Q445 -534 449 -510Q464 -515 478 -520Q463 -509 462 -495Q466 -491 469 -491Q472 -491 478 -494Q475 -488 475 -483Q475 -478 478 -474Q483 -475 488 -477Q488 -474 487 -472Q491 -453 497 -433Q498 -428 498 -423Q498 -386 472 -360Q470 -359 470 -351Q466 -352 459 -352Q435 -350 434 -334Q434 -324 444 -318Q446 -321 447 -324Q449 -327 453 -327H454Q458 -327 458 -323Q458 -320 456 -318Q471 -328 485 -339Q485 -335 479 -328Q469 -315 469 -306Q469 -301 472 -295L474 -294Q480 -296 485 -298L489 -296Q487 -291 485 -287V-285Q506 -301 527 -318Q518 -307 517 -303Q518 -297 522 -295Q526 -293 529 -290Q598 -305 663 -326Q663 -344 662 -363V-373Q648 -371 620 -354Q592 -337 577 -337Q559 -337 546 -353Q517 -389 513 -452Q513 -485 530 -502Q533 -501 534 -495Q536 -488 540 -488Q572 -535 572 -565Q572 -584 559 -597Q553 -589 549 -560Q547 -551 546 -542Q544 -532 533 -531H532Q535 -561 537 -591Q534 -597 530 -604Q531 -606 532 -608Q496 -658 485 -690Q494 -687 500 -681Q506 -674 512 -669L513 -670Q513 -672 511 -674H513Q518 -674 530 -665Q555 -680 575 -680Q598 -680 617 -661Q649 -630 656 -597V-596Q656 -590 649 -581Q643 -573 643 -567Q643 -561 645 -558Q626 -529 622 -520Q624 -516 625 -513Q644 -521 669 -525Q667 -584 664 -639Q662 -695 626 -720V-722Q626 -735 635 -742Q644 -748 656 -756Q667 -764 679 -775Q691 -785 703 -786H706Q711 -785 717 -775Q723 -767 726 -764Q731 -759 748 -751Q770 -741 776 -732Q782 -730 787 -729H789Q789 -692 797 -678Q790 -664 790 -658Q791 -655 791 -652L787 -651H786Q782 -651 780 -649Q761 -619 759 -566Q759 -558 761 -546Q775 -554 789 -561Q803 -569 823 -571Q822 -568 822 -562Q822 -551 831 -551Q837 -551 857 -561Q876 -570 884 -571Q879 -566 867 -558Q852 -548 847 -540Q849 -534 853 -534Q861 -536 868 -539L869 -537Q869 -535 863 -530Q856 -524 856 -520Q859 -515 862 -515Q866 -515 869 -516Q864 -511 864 -502Q867 -487 869 -472Q869 -463 862 -459Q865 -449 866 -448Q863 -443 844 -435Q827 -428 827 -417V-413Q822 -413 814 -417Q813 -419 813 -422Q813 -430 823 -435Q829 -438 829 -441Q829 -448 813 -448Q774 -445 756 -432Q754 -426 752 -420Q754 -416 764 -416H775Q783 -416 786 -413Q782 -405 764 -401Q747 -397 743 -390Q740 -379 740 -352V-332Q764 -333 795 -343Q824 -352 844 -354Q850 -359 855 -365Q859 -371 866 -372Q877 -368 887 -363H891Q903 -365 914 -367H918L919 -365Q917 -361 915 -357Q927 -359 939 -361Q943 -361 949 -359Q930 -354 930 -343Q931 -340 931 -338Q934 -329 945 -329Q956 -330 966 -331Q971 -331 973 -330Q952 -322 952 -289Q952 -269 961 -247Q961 -246 957 -246Q954 -246 953 -244Q952 -227 936 -225Q920 -222 905 -219Q885 -221 874 -221Q838 -221 741 -204Z"/>
</svg>