<svg xmlns="http://www.w3.org/2000/svg" viewBox="0 -800 1024 1024">
	<path fill="#000000" d="M651 -266Q650 -268 650 -271Q650 -284 659 -288Q665 -285 665 -282Q661 -272 651 -266ZM340 -71V-59Q334 -63 328 -66Q322 -69 321 -78V-79H323Q328 -79 332 -75Q337 -71 340 -71ZM75 -431V-437Q75 -452 88 -452Q91 -451 94 -451Q90 -445 87 -439Q84 -432 75 -431ZM918 -294Q911 -283 897 -278Q905 -299 909 -302Q915 -299 918 -294ZM278 -261V-259Q263 -255 247 -251Q242 -251 232 -256Q196 -278 168 -319Q160 -321 157 -321Q147 -321 140 -315Q133 -310 127 -305Q131 -314 138 -327Q145 -340 146 -352Q146 -365 134 -373Q157 -407 182 -415Q190 -418 199 -418Q231 -418 248 -401Q255 -395 270 -363Q282 -341 287 -320Q286 -314 284 -308Q286 -302 287 -296Q283 -278 278 -261ZM117 32H106Q40 32 35 -10V-16Q35 -22 38 -58Q39 -65 39 -72Q38 -89 37 -107Q37 -124 46 -136Q57 -148 82 -158Q92 -168 112 -199L113 -195Q111 -183 109 -171Q109 -165 112 -161Q126 -165 140 -170Q137 -164 122 -153Q109 -143 109 -130V-128Q170 -153 234 -182Q230 -188 223 -188Q218 -188 199 -181Q179 -172 172 -172Q167 -172 162 -175Q234 -211 330 -217Q312 -211 293 -205Q275 -200 269 -182H271Q275 -182 281 -186Q292 -193 298 -193Q300 -193 306 -191Q283 -184 266 -162Q272 -160 273 -160Q276 -160 279 -161Q277 -154 265 -147Q254 -141 253 -134V-132Q253 -126 264 -118Q274 -111 276 -104Q224 -93 183 -62Q141 -35 137 -5V-2Q137 1 139 5Q133 11 126 17Q120 23 117 32ZM294 -584V-582Q294 -575 288 -572Q290 -557 291 -542Q286 -534 285 -524Q284 -515 282 -506Q280 -499 273 -488Q262 -470 262 -460Q262 -451 267 -442Q257 -446 250 -446Q241 -446 240 -438Q229 -450 211 -454Q213 -465 216 -469Q236 -469 248 -483Q250 -485 266 -512Q258 -512 246 -501Q236 -492 229 -491Q226 -490 223 -490Q213 -490 191 -500Q172 -509 162 -509Q157 -509 151 -506Q155 -497 175 -486Q195 -474 198 -464Q172 -472 149 -476Q136 -476 127 -466L126 -469Q131 -476 136 -484H135Q123 -483 114 -475Q105 -466 97 -458Q99 -468 110 -485Q126 -510 126 -524Q126 -530 123 -538H120Q112 -535 109 -532H108V-535Q108 -543 114 -553Q80 -589 47 -629Q52 -636 75 -655Q95 -672 124 -672Q139 -672 159 -667Q161 -670 162 -675Q163 -680 167 -680Q168 -662 186 -653Q196 -648 222 -643Q228 -652 240 -658Q237 -649 237 -642Q237 -623 253 -616Q257 -618 266 -628Q278 -640 288 -643Q281 -633 273 -623Q266 -614 263 -601Q271 -589 278 -586Q284 -591 292 -594Q293 -594 297 -592Q294 -590 294 -584ZM919 56L918 57Q916 52 915 45Q910 40 900 35Q885 27 882 20Q884 14 889 14Q901 19 912 23H914Q930 23 937 2Q936 0 934 -2H932Q926 -2 921 3Q916 8 912 8H910Q899 8 889 -8Q881 -21 873 -24Q870 -19 870 -17Q870 -14 874 -8Q880 1 880 6L879 10Q876 12 872 12Q862 7 851 2Q855 -6 855 -16Q855 -27 847 -49Q840 -68 839 -79Q793 -76 750 -56Q726 -45 678 -13Q675 -1 666 5Q656 10 648 17Q621 2 585 -38Q592 -59 592 -88Q592 -117 583 -134Q604 -162 620 -196Q627 -213 633 -230Q639 -248 654 -257Q654 -240 640 -217Q628 -197 627 -179Q656 -211 685 -299Q712 -366 728 -431Q711 -412 700 -384Q690 -356 681 -328Q679 -319 675 -308Q672 -298 660 -297Q674 -348 700 -426Q712 -458 712 -470Q712 -486 698 -500V-502Q699 -540 717 -561Q735 -582 756 -602Q764 -605 771 -605Q785 -605 796 -592Q801 -587 815 -564Q835 -537 839 -501Q839 -493 838 -488Q836 -472 822 -449Q819 -445 796 -412Q764 -365 752 -341Q715 -267 712 -260Q692 -214 687 -173Q690 -168 693 -168Q702 -171 712 -178Q751 -193 790 -208Q784 -189 752 -177Q713 -163 704 -153Q749 -159 817 -184Q805 -216 805 -283Q804 -291 803 -300Q803 -307 808 -310Q818 -307 835 -288Q855 -266 869 -262Q880 -268 891 -274Q883 -268 883 -257Q883 -251 886 -248Q897 -250 901 -256Q898 -245 894 -235Q894 -217 912 -184Q918 -190 930 -193V-192Q929 -189 926 -184Q922 -178 921 -171Q921 -166 924 -162Q941 -171 958 -180Q934 -162 934 -142Q934 -130 943 -121L946 -120Q949 -121 951 -122H953L954 -120Q951 -117 947 -109V-104Q952 -71 962 -46Q957 -38 957 -24Q958 -15 958 -6Q958 3 955 10Q951 18 934 29Q918 39 918 50Q919 53 919 56ZM425 74L407 79Q410 70 410 60Q410 40 391 40Q390 11 377 -6Q364 -23 355 -46Q369 -36 383 -26Q374 -46 362 -63Q350 -80 338 -98L373 -67Q357 -89 341 -109Q325 -130 315 -158Q345 -124 357 -111Q383 -83 404 -70Q438 -99 462 -141Q485 -182 508 -224Q475 -220 458 -196Q441 -170 420 -149Q400 -150 388 -169Q377 -186 377 -209Q377 -236 391 -253Q380 -267 380 -294Q380 -311 383 -326Q379 -331 376 -337H386Q388 -347 391 -350Q420 -367 439 -383Q480 -413 485 -418Q496 -431 503 -469Q509 -506 521 -521Q513 -521 484 -500Q465 -484 457 -475Q441 -451 427 -427Q412 -403 375 -401H368Q350 -417 350 -434Q335 -439 326 -459Q317 -479 317 -503Q317 -534 333 -547Q338 -586 352 -616Q368 -650 392 -664Q383 -655 383 -639Q383 -619 406 -619H411Q437 -624 484 -656Q503 -669 521 -680Q538 -691 546 -704Q525 -697 491 -676Q444 -647 417 -641Q430 -659 453 -673Q475 -686 499 -702Q508 -707 540 -733Q552 -744 565 -755Q577 -766 592 -767Q605 -767 618 -757Q629 -762 639 -768Q638 -766 638 -760Q642 -730 654 -722H655Q658 -722 662 -727Q668 -734 674 -734H675L676 -732Q671 -721 665 -710H666Q674 -714 681 -719L682 -716Q678 -708 673 -701Q672 -697 672 -689Q672 -673 679 -661Q683 -663 686 -665L688 -664Q693 -621 693 -603Q693 -576 687 -551Q667 -542 648 -512Q641 -514 638 -520V-523Q638 -536 653 -555Q665 -570 665 -576Q665 -583 660 -587Q626 -567 606 -512Q593 -475 582 -410Q591 -420 595 -433Q600 -447 604 -461Q610 -490 638 -495Q603 -434 585 -343Q577 -343 576 -347Q572 -345 568 -334Q567 -339 558 -344Q549 -350 547 -357Q484 -347 482 -297Q479 -288 475 -280Q519 -303 544 -323H552Q582 -323 588 -308Q591 -308 593 -312Q596 -317 600 -317H602V-316Q601 -311 600 -306Q600 -303 602 -302Q613 -313 621 -328V-327Q621 -320 614 -309Q607 -298 606 -291V-285Q611 -257 618 -233Q613 -218 613 -207Q613 -202 615 -196Q582 -168 562 -126Q543 -84 518 -46Q516 -50 516 -57Q516 -68 528 -89Q542 -113 542 -126Q542 -131 541 -134Q486 -83 472 -20Q478 -20 486 -27Q498 -38 508 -38H512Q506 -24 494 -4Q489 17 484 37Q478 51 465 68Q450 87 442 87Q432 84 425 74Z"/>
</svg>