<svg xmlns="http://www.w3.org/2000/svg" viewBox="0 -800 1024 1024">
	<path fill="#000000" d="M864 -154Q862 -142 860 -130Q852 -130 852 -142Q852 -155 860 -155ZM94 -173Q91 -170 89 -166Q87 -161 81 -160Q80 -170 79 -180Q79 -188 84 -188L88 -187Q93 -173 94 -173ZM833 -681H814Q815 -684 815 -688V-691Q827 -695 834 -695H838Q838 -693 833 -681ZM789 -653V-649Q789 -643 782 -631Q774 -617 774 -609Q774 -604 777 -598L775 -597Q770 -601 764 -609Q752 -606 739 -606Q703 -606 676 -626Q671 -626 667 -622Q662 -617 657 -616Q656 -618 656 -622Q656 -630 663 -635Q651 -655 635 -671Q619 -687 617 -717V-721Q617 -725 624 -755Q636 -767 664 -767Q683 -767 709 -761Q713 -766 719 -768Q722 -768 724 -767V-765Q723 -760 721 -755Q727 -749 735 -749Q744 -749 758 -758Q772 -767 777 -767H778Q778 -761 772 -760Q767 -759 762 -757Q750 -749 750 -735Q750 -725 758 -718Q765 -722 772 -727Q772 -722 771 -717Q771 -687 796 -681Q787 -680 787 -671Q788 -662 789 -653ZM738 59H741Q746 59 757 65Q767 70 773 70Q775 70 781 68Q761 28 728 1Q694 -26 669 -60Q670 -36 693 -7Q718 24 721 44Q673 3 636 -63Q621 -54 616 -36Q611 -18 602 -3H552Q546 -28 518 -31Q518 -67 498 -85V-86L500 -88Q504 -88 506 -86Q505 -102 480 -102Q470 -101 460 -101Q495 -110 521 -126Q536 -137 554 -164Q568 -184 574 -191Q542 -262 500 -379Q390 -362 350 -333Q357 -326 374 -292Q365 -279 365 -265V-261Q350 -257 340 -243Q334 -235 325 -215Q332 -215 342 -202Q348 -194 353 -191Q388 -191 404 -193Q411 -149 432 -118Q443 -121 453 -125Q456 -125 460 -122Q440 -117 435 -85Q429 -49 414 -37Q401 -27 382 -27Q349 -27 346 -52H349Q367 -48 385 -44Q396 -44 401 -55Q397 -60 377 -60Q367 -72 359 -89Q352 -108 332 -110H328Q328 -103 334 -88Q339 -75 339 -66Q339 -61 338 -58H337Q334 -58 325 -69Q317 -79 311 -82Q298 -147 296 -172Q245 -118 210 -38Q203 -23 190 16Q176 50 133 58Q124 56 110 46Q101 39 94 37H91Q85 37 84 41V39Q84 36 94 19Q87 7 87 -9V-19Q83 -40 79 -61Q84 -81 88 -101V-103Q85 -120 82 -138Q82 -145 85 -151Q93 -107 108 -95Q116 -100 129 -113Q139 -124 143 -126Q143 -115 131 -100Q120 -86 120 -78Q120 -72 125 -64Q149 -77 164 -100Q179 -122 193 -145Q226 -186 250 -235Q233 -225 206 -185Q179 -147 159 -133V-136Q159 -145 167 -157Q171 -163 180 -173Q213 -214 221 -227Q243 -260 247 -293H242Q229 -292 218 -283Q208 -273 198 -265Q170 -272 153 -291Q136 -311 120 -333Q95 -365 95 -386Q95 -399 100 -409Q110 -425 120 -442Q134 -474 153 -494Q168 -502 183 -511Q205 -524 216 -525Q202 -515 196 -497Q215 -505 233 -518Q263 -535 278 -537Q264 -527 248 -518Q233 -508 227 -490Q250 -492 272 -495Q278 -495 281 -494Q280 -486 270 -485Q260 -484 251 -482Q237 -476 233 -463Q240 -457 255 -457Q257 -457 293 -463Q377 -481 461 -500Q454 -506 440 -506Q418 -503 395 -500Q339 -494 317 -494H306Q311 -503 326 -503H328Q333 -501 338 -500Q345 -504 352 -508Q356 -509 363 -509H374Q419 -517 463 -526Q452 -556 441 -587Q434 -617 426 -644Q418 -673 383 -675H380Q384 -689 388 -703Q405 -721 461 -773Q466 -774 474 -774Q506 -772 525 -751Q533 -746 541 -740Q548 -735 549 -727H548Q540 -727 527 -735Q517 -741 509 -741Q507 -741 501 -739Q505 -731 517 -715Q535 -693 537 -678V-675Q537 -669 536 -663Q536 -655 541 -650Q552 -665 552 -694Q552 -704 550 -716Q561 -714 565 -701Q567 -693 567 -679Q561 -665 556 -646Q554 -615 552 -585Q552 -560 558 -544Q588 -551 622 -555Q626 -555 638 -553Q647 -562 660 -562Q666 -562 669 -560Q694 -570 719 -580Q719 -575 718 -570Q718 -563 721 -559Q736 -562 750 -566L752 -565Q750 -561 747 -557Q771 -565 785 -565H789Q779 -559 769 -553Q759 -547 758 -535Q758 -531 759 -528L763 -527H772Q775 -527 777 -526Q770 -521 762 -518Q757 -505 757 -494Q757 -482 762 -475Q759 -466 756 -458Q756 -455 759 -451H757Q755 -451 752 -452L750 -451V-450Q750 -445 745 -440Q738 -433 738 -425Q634 -422 571 -391Q575 -353 588 -325Q601 -297 612 -267Q624 -283 633 -302Q629 -320 626 -328Q638 -347 663 -362Q665 -363 710 -385Q731 -371 752 -358Q768 -364 778 -365L781 -363Q781 -361 777 -358Q771 -353 771 -350V-349H773Q777 -349 785 -358Q791 -365 796 -367Q795 -360 788 -352Q780 -343 780 -336V-335Q785 -319 790 -295V-292Q790 -285 789 -278Q789 -271 793 -267Q787 -257 787 -232Q770 -231 759 -224Q748 -217 737 -210Q735 -216 735 -219Q735 -231 757 -242Q777 -252 778 -262V-266Q777 -282 764 -286H763Q752 -285 748 -276Q744 -267 741 -259Q737 -253 721 -242Q704 -230 697 -221Q678 -196 676 -173Q685 -173 698 -191Q711 -209 720 -209Q726 -209 731 -205Q722 -191 702 -171Q685 -154 679 -146Q718 -69 800 -34Q805 -38 807 -55Q808 -71 812 -76Q815 -66 817 -54Q819 -43 827 -38V-62Q827 -101 826 -140Q826 -167 829 -193Q833 -170 836 -122Q840 -62 845 -38Q849 -47 849 -64Q849 -79 848 -94Q848 -111 853 -121Q858 -86 862 -49Q866 -12 889 7Q891 20 907 49Q901 70 892 87Q879 93 863 97Q848 101 836 109Q808 100 780 92Q752 83 738 59Z"/>
</svg>