<svg xmlns="http://www.w3.org/2000/svg" viewBox="0 -800 1024 1024">
	<path fill="#000000" d="M650 4H646Q643 5 597 22Q562 34 557 41Q556 51 554 61Q608 50 648 36Q646 34 646 29Q646 16 650 4ZM666 -80Q645 -80 629 -73Q613 -67 598 -60Q584 -54 572 -48Q560 -42 559 -30V-18Q609 -29 663 -53Q666 -62 666 -80ZM684 -171H671Q638 -158 604 -145Q571 -127 571 -109Q571 -99 572 -97Q598 -105 679 -136Q682 -153 684 -171ZM508 -405L539 -414Q539 -422 538 -432Q538 -442 534 -445Q524 -441 514 -437Q504 -433 500 -424Q504 -414 508 -405ZM621 -449Q621 -463 612 -466H609Q601 -466 601 -441V-426H618Q621 -433 621 -449ZM718 -481Q714 -484 706 -484Q698 -484 686 -479V-478Q686 -475 689 -474Q693 -472 693 -470Q686 -456 678 -443Q682 -434 688 -434Q691 -434 693 -435Q706 -458 718 -481ZM95 -186Q95 -175 88 -170H87Q83 -172 81 -175V-179Q81 -193 94 -193Q95 -191 95 -186ZM288 -151V-124H287Q276 -124 276 -140Q276 -151 285 -151ZM366 -372V-367Q362 -348 356 -328Q361 -322 365 -317H363Q354 -317 348 -309Q343 -302 343 -293V-290Q336 -291 334 -299Q331 -298 326 -298Q317 -298 305 -306Q293 -314 286 -314Q286 -310 290 -310H291Q286 -305 285 -302Q287 -290 287 -283Q286 -254 284 -225Q284 -210 285 -203Q288 -185 288 -183Q288 -174 282 -170Q275 -183 274 -221Q273 -259 266 -272Q257 -262 256 -251Q253 -230 253 -205Q255 -143 257 -81V-55Q257 -4 273 19Q280 7 280 -20Q280 -38 279 -56Q279 -82 288 -94Q291 -78 293 -36Q295 17 304 37Q301 40 301 41V44Q301 47 300 49Q303 54 303 59Q300 73 297 86Q295 89 272 105Q259 118 248 125Q244 125 238 119Q231 111 226 111Q209 64 176 37Q178 29 182 23Q179 7 164 7H159Q199 -22 199 -142Q199 -178 198 -214Q171 -204 160 -204Q151 -204 143 -210H142Q140 -210 138 -206Q136 -202 134 -202H133Q128 -207 128 -217Q121 -218 112 -223Q104 -220 98 -200Q93 -201 93 -206Q97 -217 100 -229Q91 -241 81 -251Q75 -251 71 -246Q67 -241 63 -241L61 -244Q63 -250 65 -257Q64 -264 55 -279Q46 -295 44 -304Q43 -313 42 -323V-325Q42 -337 49 -355Q55 -370 55 -380Q55 -387 54 -391Q62 -387 64 -387Q72 -387 72 -405Q72 -413 68 -445Q75 -441 81 -428Q87 -417 91 -413Q94 -412 100 -412Q113 -413 123 -419Q133 -426 143 -433Q140 -415 140 -412Q140 -399 146 -392L148 -391Q151 -392 153 -394L156 -392Q155 -390 155 -386Q155 -376 167 -368Q171 -371 175 -375L176 -374Q175 -370 175 -362Q175 -334 196 -313Q194 -363 192 -414V-477Q192 -546 174 -572L172 -573Q169 -572 166 -571L164 -572L163 -576Q163 -582 172 -590Q181 -599 182 -607Q187 -611 193 -614Q201 -637 232 -664H235Q271 -662 285 -637Q299 -613 319 -595Q318 -592 318 -585Q318 -570 328 -556Q320 -538 306 -529Q295 -506 295 -454H299Q309 -453 318 -453Q326 -453 331 -457Q328 -452 328 -447Q328 -431 346 -424H347Q353 -425 358 -427Q360 -426 362 -425Q362 -422 358 -420Q353 -417 353 -413Q363 -392 366 -372ZM803 -103Q801 -90 797 -85Q790 -85 790 -94Q790 -98 793 -104H795Q799 -103 803 -103ZM903 -747Q900 -743 879 -736Q880 -741 885 -747Q891 -753 895 -753Q900 -753 903 -747ZM816 -267L821 -265Q822 -265 824 -268Q825 -271 829 -271L832 -270Q831 -267 831 -263Q831 -253 840 -250Q847 -248 850 -244Q860 -226 860 -204V-180Q832 -178 820 -157Q819 -155 804 -113Q796 -118 796 -125Q801 -142 806 -159Q806 -164 802 -168Q786 -163 780 -148Q778 -144 771 -109Q758 -72 753 -29Q752 -11 751 7Q751 48 763 55Q769 43 771 18Q772 -7 775 -26Q777 -38 777 -39Q780 -46 787 -46V-41Q784 -21 780 -1Q781 5 781 10Q781 14 780 15Q778 39 778 62V77Q783 95 788 110Q788 118 778 130Q770 139 769 145L753 139Q730 131 711 127Q691 123 675 106Q607 108 566 129Q556 136 544 147Q541 149 537 150Q534 151 530 151H526Q518 149 505 132Q492 115 488 104Q487 94 485 84L483 81Q481 82 478 82Q489 56 489 -2Q489 -25 485 -67Q481 -93 471 -113Q460 -132 452 -150Q448 -160 448 -165Q425 -172 415 -180Q392 -203 380 -219Q361 -244 356 -268Q355 -270 355 -274Q355 -282 363 -295Q372 -310 372 -320Q372 -326 371 -330H372Q376 -330 376 -326Q377 -321 378 -321Q383 -322 383 -327Q382 -335 381 -344Q381 -350 384 -352Q387 -351 389 -341Q390 -334 393 -331L435 -322Q439 -313 460 -297Q558 -329 670 -356Q688 -359 705 -363Q702 -363 681 -368Q662 -371 640 -371Q577 -371 513 -340Q507 -337 498 -331Q485 -322 480 -322H476Q459 -324 450 -347Q440 -373 428 -387Q422 -392 405 -398Q384 -406 377 -418Q367 -437 367 -457Q367 -485 387 -502Q390 -512 400 -512H405Q405 -518 400 -523Q394 -529 394 -535V-536Q413 -531 444 -525Q449 -517 455 -514Q461 -511 468 -506Q472 -510 476 -510Q479 -510 482 -507Q542 -524 656 -545Q638 -545 615 -556V-558Q617 -571 619 -584Q619 -588 618 -590Q599 -588 587 -581V-573Q587 -556 586 -550Q576 -538 564 -532Q537 -519 517 -527Q502 -547 495 -554Q488 -554 476 -548Q476 -551 475 -554Q479 -565 482 -577Q477 -582 469 -582Q454 -582 440 -568Q451 -554 461 -554Q463 -554 469 -556Q468 -548 466 -540V-537Q456 -535 452 -535Q434 -537 412 -545Q400 -548 388 -551Q376 -554 371 -563Q370 -573 368 -583Q365 -588 362 -594V-600Q363 -618 373 -632Q384 -646 393 -659Q397 -649 408 -649Q412 -649 436 -655Q434 -662 434 -673Q434 -694 446 -705L447 -708Q445 -715 442 -722L443 -725H444Q449 -725 455 -715Q461 -705 466 -705V-706Q463 -713 460 -720L461 -723Q474 -717 489 -712L490 -713Q487 -717 483 -721Q509 -715 525 -715H531L562 -685Q633 -697 661 -714Q664 -727 667 -740Q666 -743 654 -750Q664 -756 673 -763Q670 -771 660 -772Q650 -774 642 -777Q659 -780 690 -793Q737 -813 772 -813H775Q787 -806 804 -787Q821 -767 833 -761Q825 -744 816 -728Q819 -727 824 -727Q848 -731 872 -736H876Q864 -733 864 -724Q864 -712 879 -712Q884 -712 887 -713Q886 -710 880 -707Q876 -705 874 -702Q876 -691 880 -687Q874 -669 868 -651V-649Q869 -646 870 -644V-643Q865 -633 859 -624Q853 -623 851 -619L852 -616Q848 -616 843 -617Q824 -615 805 -613H800Q800 -617 797 -619Q808 -629 825 -634Q818 -642 798 -642Q766 -642 760 -627Q764 -620 775 -619Q774 -613 772 -607Q732 -606 712 -592Q697 -581 682 -550Q775 -572 792 -593Q807 -595 821 -597H825Q833 -597 845 -587Q855 -579 860 -579H863Q869 -580 877 -587Q888 -596 895 -596Q899 -596 902 -595Q894 -589 885 -581Q876 -574 875 -562V-557L878 -556Q886 -560 893 -565Q889 -556 885 -548Q886 -545 888 -545H893Q887 -537 887 -516Q890 -499 893 -482Q893 -473 888 -468Q880 -459 862 -450Q861 -450 833 -438Q834 -453 855 -463Q848 -472 836 -472Q806 -472 786 -444Q774 -425 772 -403Q772 -398 773 -396Q783 -402 794 -413Q805 -424 823 -425Q811 -417 793 -397Q777 -380 769 -373Q774 -373 784 -375Q789 -376 800 -386Q815 -400 827 -400Q835 -430 842 -439Q843 -436 843 -429V-424Q843 -415 845 -409Q848 -405 858 -405H863Q870 -396 879 -386Q887 -376 901 -375Q905 -375 908 -376Q908 -373 907 -370V-367H909Q915 -369 920 -371L923 -369L925 -368Q923 -363 920 -358Q921 -351 926 -334Q932 -314 932 -302Q932 -290 928 -281Q917 -280 911 -274Q905 -268 899 -262Q893 -264 890 -264Q879 -262 868 -261Q866 -261 863 -262V-265Q863 -273 875 -276Q885 -279 887 -283Q882 -293 866 -290Q847 -290 830 -277Q826 -275 816 -267ZM753 -284Q771 -296 775 -299Q686 -290 606 -270Q578 -263 549 -256Q520 -249 498 -229V-226Q531 -217 538 -209Q568 -225 587 -229Q627 -242 674 -260Q721 -277 753 -284Z"/>
</svg>