<svg xmlns="http://www.w3.org/2000/svg" viewBox="0 -800 1024 1024">
	<path fill="#000000" d="M646 -181Q640 -173 629 -169Q632 -184 640 -184Q643 -184 646 -181ZM456 -529Q452 -537 452 -543Q452 -551 456 -557Q462 -542 462 -538Q462 -532 456 -529ZM918 -206V-223H920Q927 -223 930 -216Q926 -204 921 -193Q918 -197 918 -206ZM949 2V13Q949 76 902 108Q881 97 859 88Q856 79 846 63Q833 42 831 32L833 31Q835 31 841 38Q850 49 855 50V42Q855 21 843 -3Q843 -4 820 -43Q784 -102 766 -123Q770 -98 794 -57Q818 -15 822 14L820 15Q816 15 815 11Q813 8 811 5Q796 -15 773 -64Q756 -99 749 -112Q738 -104 721 -72Q710 -50 699 -28Q693 -9 690 10Q687 30 674 43Q655 41 645 31Q635 20 624 12H623Q618 12 616 15Q614 18 612 18Q616 11 616 1Q616 -16 607 -32L604 -34H597Q603 -41 607 -51Q593 -64 551 -64H536Q536 -68 542 -70Q545 -71 546 -73Q551 -73 555 -74Q566 -73 576 -72Q581 -72 585 -73Q608 -76 623 -91Q639 -106 650 -127Q671 -173 695 -207Q661 -247 661 -313L662 -316Q665 -314 667 -312Q681 -321 696 -321Q708 -321 715 -316Q719 -313 725 -304Q731 -295 737 -293Q749 -336 781 -414Q763 -409 752 -377Q749 -377 746 -378Q740 -378 739 -374L737 -371Q738 -367 739 -364L735 -365Q729 -365 726 -355Q704 -351 699 -343Q673 -361 659 -402Q658 -414 656 -427Q650 -440 643 -454Q642 -459 642 -467Q642 -484 655 -514Q653 -519 653 -529Q656 -553 667 -572Q672 -585 674 -599Q677 -612 687 -618V-600Q687 -590 693 -586Q732 -606 776 -622Q769 -605 737 -590Q711 -578 704 -568Q707 -567 713 -567Q729 -567 764 -588Q790 -605 816 -622Q813 -626 807 -626Q802 -625 796 -625Q791 -625 788 -628Q795 -636 819 -640Q825 -646 828 -657Q839 -655 849 -654Q850 -655 858 -674Q863 -686 874 -688Q866 -677 866 -665Q866 -650 881 -624Q892 -604 894 -597Q902 -599 909 -601Q905 -595 905 -589V-586H906Q910 -586 915 -594Q922 -606 930 -606Q918 -592 918 -572Q918 -560 924 -553H925Q929 -553 930 -556Q933 -560 934 -560L935 -559Q929 -545 929 -521Q930 -497 931 -474Q931 -446 920 -431Q888 -424 883 -402Q878 -409 878 -413Q879 -422 886 -431Q892 -439 896 -447Q863 -444 856 -405Q814 -336 793 -268Q809 -281 828 -322Q851 -371 870 -384Q855 -337 834 -297Q813 -257 794 -214Q812 -186 829 -157Q846 -128 874 -109Q884 -127 887 -155Q890 -139 893 -124Q897 -137 897 -169V-192Q897 -230 905 -246Q906 -231 906 -201V-155Q906 -110 911 -83Q914 -94 914 -122V-134Q914 -167 920 -181V-177Q920 -143 935 -76Q947 -23 949 2ZM529 77H526Q518 77 514 81Q511 85 505 88Q495 80 478 77Q457 54 455 -26Q446 -23 435 -21Q425 -19 421 -10Q418 -13 415 -13Q409 -11 403 -4Q400 -15 392 -20Q383 -25 376 -31Q371 -30 365 -25Q359 -20 357 -20H356Q359 -35 370 -42Q370 -48 364 -54Q359 -59 358 -63Q361 -67 361 -73Q358 -86 354 -100V-108Q354 -152 415 -152Q442 -136 464 -88Q469 -116 469 -144Q469 -177 462 -201H459Q447 -201 431 -184Q415 -167 406 -167H404Q395 -168 388 -183Q379 -204 376 -207Q370 -201 362 -201Q351 -201 330 -214Q324 -145 324 -67Q324 -24 326 56Q303 63 290 86Q288 85 285 85Q280 88 275 91Q265 79 253 43Q244 18 237 5Q238 1 238 -7Q234 -37 224 -63Q244 -91 244 -150Q244 -161 243 -172Q236 -161 218 -128Q198 -91 184 -72Q181 -79 181 -85Q181 -98 195 -121Q209 -143 218 -167Q171 -133 141 -42L145 -41Q150 -41 158 -48Q168 -57 175 -57Q158 -21 147 20Q144 20 141 19Q136 19 135 23Q122 13 111 2Q108 5 105 7L104 6Q106 -2 106 -5Q106 -17 92 -39Q81 -56 79 -66Q82 -75 82 -84Q82 -97 69 -122Q59 -141 57 -155Q65 -150 75 -136Q85 -122 93 -118Q122 -139 142 -168Q161 -197 181 -226Q202 -253 223 -281Q243 -310 258 -342H257Q238 -341 223 -328Q208 -315 195 -307Q197 -325 216 -338Q238 -353 243 -362Q224 -360 198 -337Q173 -315 154 -315Q146 -315 142 -316Q135 -313 135 -306Q135 -293 145 -287Q150 -288 158 -294Q169 -302 175 -302Q180 -302 184 -298Q176 -285 165 -273Q155 -262 154 -241H123Q116 -247 110 -263Q105 -277 98 -283Q94 -287 80 -293Q63 -301 57 -310V-313Q60 -334 62 -355Q61 -370 55 -393Q48 -418 48 -430Q48 -439 51 -450Q55 -462 70 -479Q83 -494 89 -505Q101 -526 107 -532Q117 -543 132 -547V-546Q128 -538 117 -525Q111 -511 111 -502Q111 -499 113 -493Q117 -509 129 -517L130 -513Q129 -505 128 -497Q128 -490 133 -488Q170 -501 201 -519Q233 -537 266 -553Q271 -575 271 -594Q271 -637 249 -651Q250 -654 250 -659Q250 -669 240 -676Q264 -715 269 -721Q287 -744 308 -745H312Q325 -744 332 -737Q339 -729 348 -720Q377 -696 377 -655Q377 -642 376 -635Q359 -615 359 -586Q359 -568 367 -557Q371 -551 381 -545Q390 -540 393 -534Q390 -514 390 -496Q390 -483 392 -457Q393 -448 393 -440H390Q378 -439 371 -432Q365 -424 358 -415Q352 -410 345 -406Q337 -395 337 -376Q337 -371 339 -359Q347 -354 354 -349H355Q358 -349 359 -353Q360 -358 362 -358H363Q363 -344 367 -342Q371 -344 374 -355Q378 -366 384 -368V-365Q381 -347 378 -330Q378 -325 379 -322Q385 -324 388 -334Q392 -346 394 -349Q404 -342 404 -338V-336Q417 -328 430 -328H439Q453 -349 453 -402Q453 -431 452 -461Q452 -497 458 -516Q466 -501 466 -474Q465 -443 463 -413Q463 -387 469 -374Q477 -381 477 -396Q476 -408 475 -421Q474 -431 474 -453Q475 -496 476 -540Q476 -612 461 -643Q459 -631 459 -623Q460 -611 460 -600Q460 -581 455 -574Q446 -584 440 -618Q432 -661 415 -669Q411 -683 411 -696Q411 -722 422 -736Q436 -751 452 -761Q462 -769 472 -776Q481 -783 494 -784H499Q528 -778 540 -747Q552 -716 563 -687Q540 -601 539 -568Q552 -573 575 -588Q599 -604 610 -609Q608 -603 606 -598V-597Q613 -600 623 -607Q632 -614 646 -615Q634 -607 622 -598Q611 -588 610 -569H612Q614 -569 616 -572Q620 -577 623 -577H625L626 -575Q623 -567 619 -559V-552Q619 -532 629 -522Q629 -518 628 -515Q628 -503 635 -496Q628 -492 628 -485Q633 -472 637 -460Q632 -458 626 -456Q615 -435 573 -415Q537 -398 526 -385Q528 -374 529 -364Q570 -381 597 -387V-384Q597 -380 604 -368Q618 -377 628 -381H629Q619 -375 619 -364V-361Q624 -352 629 -343Q632 -337 634 -322Q636 -306 640 -301Q638 -291 635 -282Q635 -280 637 -274Q631 -272 631 -266Q631 -263 632 -261Q617 -255 598 -252Q591 -252 588 -253Q591 -261 599 -263Q606 -266 612 -271Q610 -277 598 -277Q593 -276 588 -276Q565 -275 549 -268Q527 -259 526 -242L530 -241Q547 -245 563 -250Q568 -250 572 -247Q571 -239 563 -238Q556 -238 549 -236Q538 -231 523 -221Q529 -203 535 -186Q542 -193 563 -195Q568 -198 573 -201Q583 -200 588 -193Q594 -197 603 -201Q600 -196 597 -190Q601 -190 608 -199Q615 -208 621 -210Q610 -201 607 -181Q607 -166 622 -166Q615 -153 615 -127Q615 -110 618 -98Q615 -100 611 -100Q606 -100 599 -93Q592 -87 587 -86H584Q555 -86 533 -155Q524 -141 524 -116Q525 -94 526 -73Q525 -59 523 -46Q526 -36 529 -26V-24Q529 -18 528 -12V-9Q530 21 532 50Q532 64 529 77Z"/>
</svg>