<svg xmlns="http://www.w3.org/2000/svg" viewBox="0 -800 1024 1024">
	<path fill="#000000" d="M680 -297Q680 -305 676 -306Q673 -307 668 -307Q652 -304 638 -293Q620 -302 617 -309Q614 -297 614 -294Q614 -286 619 -281Q654 -286 665 -286H675Q680 -288 680 -297ZM678 -352Q675 -355 671 -355Q667 -354 662 -354H659Q648 -358 642 -368Q636 -378 628 -386Q622 -371 622 -352V-344H630Q664 -344 678 -352ZM673 -412L670 -430Q657 -429 625 -415V-411Q625 -403 629 -400Q633 -406 652 -407Q668 -408 673 -412ZM671 -522Q670 -530 662 -534Q657 -537 646 -540Q646 -567 633 -570Q607 -551 596 -516Q585 -513 581 -501Q594 -503 619 -511Q650 -521 671 -522ZM971 -114Q955 -110 955 -85Q932 -77 911 -72Q893 -78 878 -82Q881 -85 898 -88Q924 -92 925 -97Q904 -121 832 -121Q788 -118 744 -116Q743 -112 750 -103Q765 -100 792 -99Q833 -98 847 -90Q847 -87 846 -84V-82Q833 -81 819 -81Q803 -81 786 -82Q760 -82 736 -76Q732 -55 732 -21Q732 18 740 42Q735 45 729 47Q724 40 721 18Q718 -6 712 -14Q705 -13 705 -3Q706 6 706 14V58Q706 92 717 101Q731 89 732 62Q741 71 741 86Q741 103 731 117Q721 131 708 131Q703 131 702 130Q684 123 663 103Q639 80 636 59Q637 53 638 46V44Q635 32 628 26Q620 20 611 14Q612 12 615 12Q621 13 626 14H627Q644 -1 644 -21Q644 -46 641 -66H631Q526 -62 462 -17Q443 -25 432 -41Q420 -57 408 -71L412 -118Q435 -151 445 -159Q447 -161 449 -164Q451 -168 455 -170Q468 -181 485 -184H491Q479 -168 466 -153Q472 -149 483 -149Q495 -147 505 -147Q560 -151 615 -155H639Q639 -166 650 -182Q649 -183 650 -184Q660 -189 673 -194Q686 -201 697 -200Q717 -204 724 -191Q731 -178 739 -169Q797 -178 814 -181Q859 -190 906 -205Q917 -193 939 -182Q947 -184 954 -187L957 -186V-185Q954 -182 951 -173Q951 -170 952 -168Q952 -166 956 -166Q962 -166 964 -167Q959 -154 959 -143Q959 -123 971 -114ZM775 -650Q775 -634 757 -634Q759 -638 762 -644Q765 -650 771 -651ZM448 -488Q453 -494 467 -519Q476 -541 494 -555Q492 -545 483 -528Q471 -505 471 -490V-487Q503 -515 547 -602Q561 -622 564 -643Q564 -652 557 -659Q543 -657 537 -640Q535 -625 526 -614Q524 -620 524 -624Q528 -645 532 -666Q532 -674 526 -692Q520 -710 520 -721V-725Q562 -750 581 -771Q602 -783 625 -786Q633 -786 637 -784Q666 -772 691 -750Q714 -729 733 -678Q728 -673 724 -662Q721 -653 718 -649Q713 -642 698 -634Q678 -624 676 -614Q695 -610 714 -607Q718 -609 728 -618Q738 -627 748 -630Q744 -624 738 -616Q731 -607 730 -597Q730 -590 735 -584Q738 -587 740 -591Q741 -595 747 -595L751 -594Q741 -584 741 -566Q741 -560 745 -550Q752 -553 777 -558Q814 -566 823 -573L824 -571Q823 -567 821 -563L823 -561Q838 -570 857 -576V-575Q857 -573 852 -566Q846 -558 846 -553Q846 -552 848 -546L851 -545Q854 -545 857 -549Q861 -555 866 -555H869L870 -552Q870 -550 867 -548Q862 -544 862 -541V-540Q868 -533 878 -530V-527Q878 -525 884 -507Q874 -494 870 -476Q865 -476 860 -477Q841 -475 821 -473H816V-475Q816 -480 833 -482Q846 -483 850 -487Q844 -497 820 -497Q768 -494 747 -471Q750 -468 753 -465Q767 -469 780 -473Q786 -473 788 -468Q778 -463 768 -458Q759 -453 758 -441V-437H763Q782 -437 813 -450Q805 -439 802 -430Q804 -428 806 -428Q812 -429 817 -430H818Q812 -421 812 -411Q812 -403 813 -399Q804 -392 795 -385Q767 -381 765 -380Q749 -376 749 -365Q749 -362 750 -360Q764 -367 786 -370H788Q799 -367 809 -365Q813 -365 817 -368Q823 -346 823 -341Q823 -332 821 -326Q800 -322 778 -319Q757 -317 743 -307Q745 -296 752 -293Q771 -299 795 -299Q820 -299 826 -315Q835 -312 844 -309H846Q862 -311 875 -320Q875 -285 893 -282Q897 -274 897 -265Q893 -241 882 -222H876Q874 -222 856 -216Q852 -220 842 -220Q835 -220 835 -216H828Q818 -216 817 -209H810Q793 -209 776 -210Q766 -210 761 -209Q763 -217 776 -218Q787 -219 791 -223Q785 -233 760 -233Q749 -232 737 -232Q644 -227 623 -219Q618 -217 614 -216Q610 -215 610 -210Q610 -206 611 -205Q624 -205 656 -211Q682 -216 697 -216Q708 -216 718 -213Q689 -206 656 -203Q623 -199 599 -187V-183Q599 -178 595 -166Q571 -158 566 -158Q556 -158 544 -166Q512 -181 506 -226Q504 -235 502 -245V-248Q502 -254 511 -268Q518 -278 520 -285Q533 -318 533 -420Q522 -407 507 -386Q493 -364 477 -356Q466 -357 439 -370Q434 -382 428 -388Q423 -369 413 -362Q381 -359 365 -338Q368 -328 383 -320Q398 -312 405 -306Q422 -328 429 -333Q430 -331 430 -328Q428 -317 426 -306Q426 -302 427 -300H428Q431 -300 431 -303Q432 -306 434 -306H435Q436 -304 449 -270Q457 -241 457 -198V-187Q453 -189 451 -189Q444 -189 434 -183Q424 -177 423 -169Q408 -187 361 -213Q360 -142 358 -72Q349 -80 349 -102Q350 -123 351 -145Q351 -165 345 -173Q331 -137 331 -78Q331 -12 348 19Q357 17 356 4Q356 -8 358 -18Q364 -16 364 -9V4Q367 25 370 46V51Q370 58 363 66Q356 74 356 78Q337 79 315 90Q299 81 279 52Q260 24 245 16Q243 3 237 -8Q254 -36 259 -77Q263 -119 268 -159Q233 -120 198 -76Q163 -31 146 30Q142 31 136 31Q122 31 107 18Q95 8 87 8Q85 9 82 9L81 6Q82 3 83 -1V-3Q70 -10 70 -31Q71 -43 71 -56V-65Q70 -71 61 -79Q53 -86 53 -93Q61 -91 69 -89Q72 -89 74 -91Q72 -114 58 -126Q44 -137 37 -155Q53 -146 67 -135Q81 -124 101 -123H105Q124 -123 146 -142Q156 -151 180 -177Q208 -207 235 -237Q261 -267 280 -305Q201 -271 170 -234Q148 -207 131 -207Q118 -207 104 -218Q86 -232 74 -264Q55 -264 45 -280Q37 -293 37 -316Q37 -340 46 -363Q43 -375 43 -386Q43 -412 63 -436Q73 -447 101 -470Q137 -499 152 -507Q149 -497 132 -483Q117 -471 117 -456Q125 -461 130 -468Q136 -476 149 -477Q141 -459 141 -445Q141 -431 152 -428L155 -427Q166 -427 214 -449Q238 -463 242 -464Q256 -469 268 -472Q280 -476 288 -486Q281 -490 272 -490Q264 -490 236 -480Q213 -472 186 -467Q188 -474 196 -476Q204 -479 210 -480Q248 -501 289 -507Q295 -523 295 -540Q295 -575 277 -581Q276 -593 268 -608Q259 -623 258 -632V-638Q258 -663 279 -686Q299 -708 320 -711Q324 -712 332 -712Q350 -712 358 -705Q368 -696 373 -681Q378 -667 384 -650Q395 -629 398 -612V-606Q395 -577 388 -549Q389 -550 393 -550Q400 -550 412 -545Q415 -546 420 -551Q427 -558 433 -559Q434 -557 434 -554Q430 -544 426 -534Q426 -531 429 -527L431 -526Q435 -528 439 -530Q441 -529 443 -528Q434 -514 434 -500Q434 -491 440 -485L441 -484Q444 -486 447 -489Z"/>
</svg>