<svg xmlns="http://www.w3.org/2000/svg" viewBox="0 -800 1024 1024">
	<path fill="#000000" d="M134 -24H137Q137 -10 120 -8Q117 -9 117 -13Q119 -22 134 -24ZM854 -548H853Q848 -548 848 -557V-573H850Q852 -573 862 -568Q858 -558 854 -548ZM623 -487V-485Q607 -480 607 -459Q607 -453 608 -450Q611 -450 613 -451Q622 -451 626 -446Q630 -441 635 -438Q649 -491 663 -565L660 -567Q660 -561 655 -553Q650 -545 650 -538V-534Q643 -522 634 -512Q624 -502 623 -487ZM596 -75H592Q584 -77 575 -88Q566 -100 558 -102V-106L559 -108Q536 -127 531 -164Q531 -182 543 -191L542 -195V-197L550 -200Q549 -202 549 -207Q549 -213 548 -215Q568 -206 586 -195Q589 -195 591 -198Q593 -202 594 -203V-202Q594 -192 611 -180Q622 -172 626 -166Q634 -170 642 -174Q638 -166 634 -158L635 -155Q645 -167 657 -177V-173Q652 -156 647 -131V-129Q648 -118 649 -108Q649 -92 634 -90Q630 -81 626 -72Q621 -76 613 -76Q605 -75 596 -75ZM300 68V67Q277 47 264 27H261Q253 30 244 33H241Q242 27 248 22Q254 17 255 14Q250 -2 237 -2Q225 -2 204 12Q207 6 219 -4Q228 -11 232 -18Q232 -35 220 -45H217Q196 -44 179 -37Q163 -30 148 -27Q150 -36 181 -47Q212 -58 214 -66V-69Q213 -86 190 -88Q187 -88 179 -86L178 -89Q178 -95 192 -97Q203 -99 204 -100L216 -114V-118Q217 -134 224 -143Q232 -152 237 -165L240 -166Q246 -164 250 -159Q270 -170 276 -170Q283 -170 291 -165Q294 -155 302 -150Q310 -145 317 -140Q320 -141 324 -147Q329 -154 334 -155Q331 -147 331 -139Q331 -136 333 -128Q346 -122 363 -99Q384 -69 407 -66V-63Q407 -49 420 -22Q433 6 434 23Q434 36 432 52Q429 65 421 72Q413 79 405 89Q385 93 364 96Q350 96 343 86Q347 82 360 81Q377 79 379 73Q374 62 363 58Q351 53 340 49Q330 44 322 36Q314 29 304 28Q302 29 299 29Q299 45 315 61Q326 72 329 81Q319 80 309 78Q305 78 299 81L298 77Q299 73 300 68ZM845 76H841Q823 80 807 85Q799 84 790 83H788Q782 86 776 88H773Q766 88 752 81Q752 73 764 70Q773 68 774 63Q763 49 731 48Q703 48 702 61V62Q702 71 713 73Q723 75 725 81Q714 86 691 86Q680 86 668 85Q611 81 592 75Q583 69 573 63Q564 60 555 59Q546 58 543 48Q547 46 548 46Q558 50 567 54Q616 71 645 71Q669 71 681 60Q675 52 666 50Q662 49 645 48Q603 44 555 15Q537 2 522 -14Q506 -31 482 -36V-31Q483 -12 497 -2Q510 8 518 21Q516 22 513 22Q500 22 487 3Q477 -10 470 -14Q454 -46 431 -76Q409 -106 407 -150Q408 -156 408 -163Q412 -185 416 -207Q420 -204 423 -193Q425 -182 429 -180H430Q432 -180 432 -186V-191Q437 -179 448 -177Q458 -176 469 -172Q474 -168 478 -161Q483 -155 490 -154Q494 -154 496 -155Q513 -145 530 -108Q545 -76 558 -65Q568 -65 574 -54H577Q590 -54 625 -48Q655 -43 673 -43H682Q693 -44 708 -51Q723 -58 728 -59Q727 -66 721 -73Q715 -80 714 -84H715Q722 -84 728 -76Q732 -70 737 -69Q728 -91 705 -120Q682 -142 668 -171Q686 -155 714 -121Q738 -92 750 -80Q746 -91 725 -113Q704 -136 697 -152Q728 -128 753 -98Q779 -66 821 -52Q830 -47 841 -34Q854 -18 863 -14Q864 -6 864 8Q864 21 862 55Q860 59 854 63Q845 69 845 76ZM462 -331V-330Q432 -316 323 -260Q308 -251 295 -241Q281 -231 264 -228Q264 -241 283 -252Q333 -277 379 -306Q371 -308 366 -308Q351 -308 309 -288Q251 -257 196 -219Q176 -208 156 -197Q136 -185 134 -163V-161Q136 -143 146 -138Q149 -137 155 -137Q168 -138 175 -149Q181 -160 187 -173Q194 -195 211 -197Q214 -197 220 -195Q212 -184 198 -155Q186 -130 178 -118H174Q146 -115 118 -113Q101 -113 90 -120Q87 -126 84 -133V-135Q71 -138 64 -154Q57 -169 57 -186Q57 -202 63 -216Q54 -234 54 -251Q56 -285 80 -310Q104 -336 126 -356Q126 -353 120 -344Q113 -334 113 -327Q113 -322 115 -319Q172 -327 219 -345Q276 -364 294 -381Q293 -385 293 -394Q294 -411 295 -429Q295 -443 287 -450Q279 -443 270 -436Q260 -429 256 -417Q255 -417 246 -414Q242 -407 231 -399Q216 -388 213 -379Q208 -378 202 -378Q183 -378 163 -385Q141 -393 134 -404Q129 -416 126 -433Q122 -443 117 -453Q112 -464 111 -479Q111 -489 113 -495Q111 -499 106 -503Q98 -508 98 -513L101 -514Q105 -511 113 -508Q112 -519 100 -526Q86 -534 84 -540H88Q96 -539 104 -539H108Q117 -555 127 -571Q138 -588 155 -595Q164 -596 173 -597Q194 -604 217 -615Q249 -624 271 -639H279Q290 -639 293 -636Q286 -625 250 -612Q213 -598 204 -588Q194 -578 194 -564Q194 -553 204 -549Q224 -555 241 -566Q258 -578 277 -588Q314 -606 351 -624Q364 -632 372 -646Q361 -650 349 -650Q333 -650 320 -643V-648Q320 -661 330 -673Q339 -684 351 -684H352Q356 -690 361 -693Q365 -692 369 -692Q380 -693 391 -694Q395 -693 398 -693Q401 -693 408 -689Q416 -695 423 -699Q425 -699 428 -696Q427 -693 427 -688Q427 -665 461 -663Q458 -656 450 -652Q458 -647 465 -643Q453 -638 453 -618Q453 -609 456 -602Q437 -589 437 -572Q437 -564 441 -557L442 -556Q446 -557 450 -558L453 -557Q442 -543 432 -527Q422 -511 408 -501Q406 -503 401 -503Q396 -503 386 -499V-498Q386 -493 391 -489Q396 -486 397 -483Q401 -476 402 -455Q403 -432 410 -425Q447 -441 484 -457V-456Q484 -451 473 -445Q458 -436 455 -432Q452 -427 450 -419H451Q457 -423 469 -427L473 -426V-424Q473 -420 466 -416Q456 -410 456 -404V-401Q456 -397 459 -396Q462 -395 465 -395Q459 -391 456 -384Q467 -367 472 -350Q468 -347 458 -345V-342Q460 -336 462 -331ZM913 -162V-143Q913 -121 907 -109Q885 -99 869 -99Q861 -99 856 -100Q848 -101 834 -110Q815 -122 805 -122Q802 -121 798 -121Q791 -150 759 -151Q748 -151 743 -149Q745 -158 762 -162V-166Q761 -182 752 -189Q742 -196 733 -204V-208Q735 -217 741 -222Q716 -211 697 -194Q695 -195 692 -195Q684 -193 678 -189Q651 -190 634 -206Q622 -217 610 -244Q611 -247 611 -254Q609 -276 607 -299V-303Q609 -315 611 -328Q611 -335 607 -339H588Q582 -351 576 -364Q569 -357 569 -348Q569 -339 567 -330Q566 -325 558 -314Q547 -297 545 -285V-270Q540 -259 538 -246Q538 -243 540 -237Q519 -224 506 -207Q499 -208 492 -210Q487 -210 485 -209Q478 -217 466 -227Q455 -237 452 -252Q452 -255 451 -258V-263Q451 -274 444 -276Q442 -277 438 -277Q424 -273 410 -270Q435 -289 462 -306Q462 -309 461 -312L462 -315Q490 -375 509 -445Q507 -447 507 -453Q507 -459 509 -465Q507 -482 505 -499Q503 -517 493 -525V-531Q493 -539 487 -561Q473 -578 473 -597Q473 -627 499 -651Q525 -675 555 -675Q568 -675 580 -669Q585 -683 610 -686Q626 -702 643 -717Q660 -731 668 -755Q677 -755 679 -768Q705 -786 723 -786Q735 -786 744 -781Q747 -780 750 -774Q752 -770 755 -768Q758 -765 765 -763Q775 -760 776 -756Q786 -762 795 -768Q796 -766 796 -762Q796 -758 791 -746Q797 -747 808 -753Q826 -763 836 -764Q830 -756 819 -748Q809 -741 808 -729Q808 -724 811 -718H812Q817 -721 822 -724H824Q819 -716 819 -702Q819 -688 829 -684Q824 -655 818 -627Q802 -626 787 -609Q771 -591 761 -589V-591Q761 -602 772 -614Q780 -623 782 -631Q776 -650 765 -650Q760 -650 753 -645Q739 -633 730 -608Q720 -583 711 -557Q686 -493 685 -454Q685 -449 684 -445Q684 -437 690 -432Q702 -435 704 -447Q706 -460 708 -471L718 -504Q722 -522 727 -537Q731 -551 747 -555Q731 -506 723 -473Q711 -423 711 -383V-378Q719 -369 738 -369Q743 -369 773 -372Q789 -373 805 -373Q820 -373 827 -379Q838 -389 838 -413Q837 -432 836 -451Q836 -468 841 -477Q849 -467 849 -439Q849 -425 848 -412Q848 -404 850 -390Q854 -405 854 -426Q853 -462 851 -499Q851 -528 857 -542Q857 -473 863 -413Q863 -459 868 -505Q872 -486 875 -458Q880 -415 884 -399L885 -398Q886 -398 887 -401Q888 -404 891 -404H893V-402Q893 -388 909 -372Q925 -356 927 -345Q949 -335 949 -288Q942 -281 936 -274Q929 -267 928 -255H925Q919 -252 913 -249V-248Q915 -245 916 -242L915 -241Q904 -242 893 -244V-246Q893 -251 898 -254Q903 -257 903 -260Q902 -274 886 -274Q876 -273 866 -273Q859 -274 851 -276Q831 -272 811 -269Q788 -270 776 -264Q775 -259 773 -254V-252Q777 -250 785 -250Q802 -251 818 -252H838Q871 -252 875 -240Q866 -236 852 -236Q843 -236 833 -237Q849 -226 868 -222Q874 -222 878 -225Q879 -224 884 -209Q890 -208 895 -207H897V-197Q907 -192 916 -187Q913 -180 913 -162Z"/>
</svg>