<svg xmlns="http://www.w3.org/2000/svg" viewBox="0 -800 1024 1024">
	<path fill="#000000" d="M330 -113V-61Q332 -54 334 -47Q334 -43 329 -41Q321 -49 318 -81Q315 -115 306 -124Q298 -121 298 -107Q299 -97 299 -87Q299 -50 302 -12Q305 27 326 42Q334 22 334 -15Q342 -11 346 10Q349 26 348 46Q346 66 343 85Q312 95 293 116Q276 106 265 91Q254 75 241 60Q241 46 233 38Q228 33 214 27Q215 23 219 20Q223 18 223 16Q189 10 154 4Q159 -2 167 -2Q174 -1 181 -1H184Q214 -4 225 -29Q234 -48 234 -87V-99Q224 -95 204 -74Q176 -45 162 -45Q146 -45 134 -68Q119 -72 104 -77Q96 -82 96 -92Q101 -110 105 -128V-130Q102 -144 98 -158V-160Q99 -178 112 -190Q124 -203 136 -215Q141 -212 146 -209Q210 -234 244 -257Q251 -270 251 -299V-318Q251 -338 255 -350Q221 -341 187 -317Q172 -307 131 -272Q101 -289 70 -297Q44 -305 41 -335Q42 -354 43 -374Q45 -384 47 -395Q44 -409 40 -423V-424Q42 -453 65 -471Q87 -488 101 -503V-502Q101 -485 122 -485Q147 -488 172 -492Q176 -492 178 -491V-490Q178 -485 171 -484Q164 -483 157 -480Q148 -473 139 -467Q131 -464 123 -461Q116 -458 115 -453Q115 -449 123 -443Q199 -463 247 -489Q246 -498 235 -498Q226 -497 217 -497H214Q218 -509 232 -511Q246 -513 258 -518Q258 -599 226 -627Q226 -631 225 -636Q225 -667 250 -692Q274 -716 302 -716Q322 -716 336 -702Q344 -694 363 -656Q379 -626 379 -601Q379 -580 367 -558Q394 -569 430 -572H434Q427 -567 420 -563V-561Q421 -554 422 -548V-545L423 -544Q429 -547 435 -551Q428 -544 425 -535Q427 -512 442 -512H443Q434 -496 434 -457V-449Q421 -446 419 -422Q387 -415 337 -384Q328 -364 328 -329Q328 -303 334 -290Q361 -311 391 -317Q384 -311 377 -304Q370 -298 369 -288V-287L371 -285Q376 -287 380 -290Q381 -290 384 -287Q378 -286 378 -275V-262Q379 -260 382 -260Q385 -260 391 -262Q387 -254 387 -240Q387 -220 397 -213Q393 -209 356 -188Q330 -173 327 -153V-149Q329 -131 330 -113ZM503 -74Q498 -77 492 -79Q486 -82 485 -90Q489 -92 492 -92Q503 -91 504 -79Q504 -76 503 -74ZM876 -680V-679Q872 -677 869 -677Q862 -678 854 -679H851Q855 -690 867 -690Q876 -690 876 -680ZM702 49H700Q707 34 727 4Q747 -26 755 -44Q734 -29 717 -6Q700 17 682 40Q672 52 663 63Q653 75 650 92Q657 91 670 80Q685 67 694 67Q689 77 674 93Q655 113 651 129L648 128Q642 132 635 135Q620 129 603 129Q587 129 586 111V107Q578 103 568 84Q556 60 541 60H536Q539 57 544 55Q549 54 550 48Q545 39 530 21Q515 4 509 -9Q523 2 550 16Q534 -10 511 -34Q487 -59 467 -84Q489 -75 520 -41Q546 -13 565 -2Q564 -14 556 -22Q548 -31 540 -38Q518 -60 512 -70Q525 -67 553 -42Q578 -20 592 -20H594Q611 -21 627 -35Q642 -50 654 -62Q662 -70 702 -118Q637 -105 616 -65Q612 -68 607 -68Q600 -68 594 -62Q561 -74 534 -122Q554 -138 565 -162Q562 -163 557 -163Q549 -163 526 -150Q513 -160 496 -164Q493 -171 493 -181Q497 -208 500 -236Q500 -242 499 -245Q486 -233 478 -215Q471 -198 463 -181Q439 -181 435 -173Q432 -175 423 -188Q416 -198 408 -200Q394 -230 401 -274L410 -299Q453 -330 483 -372Q478 -352 466 -336Q454 -320 444 -302Q474 -319 492 -351Q511 -383 533 -413L486 -400Q481 -398 472 -390Q461 -380 453 -375V-378Q454 -395 461 -407Q467 -418 474 -433Q451 -466 447 -513Q447 -522 446 -532V-544Q445 -549 438 -556Q432 -562 431 -566Q437 -563 446 -563Q466 -563 496 -571L549 -584Q562 -596 602 -608V-623Q602 -687 567 -707Q572 -719 577 -725Q576 -732 565 -736Q568 -743 576 -748Q585 -754 594 -761Q605 -771 616 -781Q627 -792 644 -793Q647 -793 657 -791Q662 -790 684 -773Q696 -765 698 -755Q698 -752 696 -748Q689 -749 681 -758Q672 -768 667 -768Q664 -768 659 -765Q675 -743 682 -732Q696 -709 699 -690Q707 -694 707 -702Q703 -717 698 -732Q698 -737 705 -740Q707 -736 718 -725Q717 -721 717 -712Q717 -699 721 -690Q708 -677 704 -671Q696 -659 696 -644V-641Q757 -655 804 -670Q818 -676 826 -676Q832 -676 836 -673Q814 -663 813 -662Q802 -654 802 -639L804 -637Q809 -638 814 -640L818 -639Q809 -632 805 -621V-618Q807 -616 809 -616Q815 -617 820 -618H823Q810 -608 810 -590Q813 -583 826 -576Q823 -560 820 -527Q787 -522 778 -520Q756 -514 749 -500Q778 -452 818 -415Q859 -378 899 -340Q900 -343 900 -350Q899 -362 898 -375Q898 -381 901 -386Q906 -363 912 -344Q918 -353 918 -367Q915 -395 912 -423Q912 -431 913 -434Q919 -431 920 -425Q920 -418 921 -413Q930 -371 943 -326Q955 -282 959 -231Q952 -216 944 -202Q929 -201 920 -194Q911 -187 903 -181Q898 -186 884 -186H877Q865 -186 859 -188Q845 -193 828 -210Q814 -224 805 -239Q797 -256 788 -274Q775 -291 771 -309Q783 -304 800 -278Q816 -254 832 -250Q830 -272 813 -297Q807 -306 780 -338Q754 -376 724 -404L721 -406Q724 -393 741 -371Q760 -347 762 -326Q731 -354 709 -392Q687 -429 666 -467Q628 -465 611 -442Q593 -419 582 -389H585Q593 -389 607 -400Q619 -409 626 -409Q629 -409 633 -407Q639 -416 653 -416Q672 -416 688 -404Q693 -393 693 -379Q691 -359 689 -339Q689 -336 691 -326Q645 -318 605 -293Q567 -308 567 -353V-356Q552 -344 535 -316Q527 -302 509 -268Q516 -267 523 -267Q548 -267 585 -278Q618 -288 639 -290Q630 -281 603 -275Q569 -267 559 -251Q633 -267 696 -293Q691 -298 684 -298Q671 -296 659 -291V-293Q660 -301 668 -306Q677 -311 684 -316Q689 -320 712 -321Q732 -322 740 -326L742 -325Q742 -324 739 -322Q735 -321 735 -318V-317Q738 -309 756 -305Q754 -287 754 -277Q754 -255 759 -243Q699 -237 662 -210Q665 -205 665 -202Q663 -193 661 -185L662 -182Q679 -186 696 -191Q701 -205 731 -213Q750 -218 758 -225V-222Q758 -209 773 -209Q785 -209 786 -219Q790 -219 794 -215Q800 -211 805 -210Q804 -207 804 -203Q805 -194 811 -188Q817 -182 821 -176Q826 -179 832 -179H836Q833 -173 833 -165Q833 -156 839 -152Q834 -144 834 -130Q834 -119 836 -107Q832 -98 827 -89Q827 -87 829 -83L827 -82Q823 -83 818 -84H817Q795 -76 782 -54Q769 -32 755 -9Q739 15 730 25Q724 32 718 40Q712 48 702 49Z"/>
</svg>