<svg xmlns="http://www.w3.org/2000/svg" viewBox="0 -800 1024 1024">
	<path fill="#000000" d="M193 -95Q189 -93 187 -93Q181 -93 176 -97Q170 -102 170 -108Q170 -110 172 -114Q182 -113 186 -107Q189 -101 193 -95ZM412 -238H414Q406 -225 406 -201Q406 -190 408 -170Q401 -156 401 -152V-147Q396 -139 388 -133Q381 -126 380 -117V-115Q367 -123 352 -123Q344 -123 340 -122Q326 -148 303 -148Q293 -148 287 -143V-145Q287 -148 293 -151Q298 -154 299 -155Q295 -164 285 -164Q269 -164 250 -147V-148Q250 -155 262 -163Q277 -173 277 -184V-188Q272 -196 268 -207Q266 -227 263 -247Q267 -247 272 -242Q275 -238 278 -238Q308 -280 336 -280Q342 -280 354 -276Q363 -272 373 -253Q382 -235 390 -230Q400 -235 412 -238ZM960 -456Q952 -451 929 -447V-438L933 -437Q939 -437 945 -438Q949 -438 951 -436Q950 -432 943 -427Q935 -422 935 -415Q935 -408 947 -408H955V-407Q951 -399 943 -385Q939 -366 934 -346Q930 -325 910 -321H906Q866 -326 840 -344Q843 -348 847 -348Q852 -347 857 -347Q862 -347 864 -349Q843 -386 735 -386Q716 -385 696 -385H671Q628 -385 618 -369Q628 -360 649 -360Q681 -362 713 -365Q738 -365 749 -355Q746 -352 741 -352Q740 -352 725 -355H711Q683 -355 625 -347Q583 -341 564 -340Q575 -319 582 -293Q571 -282 569 -262Q566 -242 562 -224Q555 -227 555 -239Q557 -257 559 -276Q559 -288 551 -289H550Q542 -289 535 -266Q529 -245 529 -218Q529 -175 547 -174Q554 -175 554 -184V-192Q554 -202 559 -204Q566 -196 566 -167V-158Q635 -227 667 -271Q682 -287 691 -301Q690 -304 688 -307V-308Q692 -310 695 -319L694 -321Q710 -336 729 -336Q777 -333 808 -298Q806 -295 806 -290Q806 -284 811 -276Q809 -247 802 -223Q742 -202 723 -183Q704 -163 677 -126Q629 -93 586 -51Q542 -10 489 24Q490 13 500 2Q502 -1 517 -14Q549 -35 570 -63Q566 -66 560 -66Q553 -66 531 -52Q520 -45 499 -26Q465 -1 431 23Q409 40 401 53Q393 63 393 75Q393 82 396 86Q405 85 417 76Q429 67 439 66Q427 82 413 96Q398 109 384 124Q381 123 376 123Q369 123 352 129Q337 134 327 134Q322 134 319 133Q312 131 301 120Q290 109 282 108Q274 97 267 63Q261 30 252 18Q255 19 257 19L260 17Q255 2 235 -15Q220 -28 215 -37Q229 -35 248 -18Q259 -8 270 -3Q263 -20 249 -34Q235 -49 221 -63Q215 -69 208 -75Q201 -80 200 -89Q217 -81 244 -57Q275 -31 295 -22Q290 -39 263 -62Q240 -81 234 -92Q250 -87 261 -77L286 -58Q296 -49 310 -38Q324 -27 339 -26H340Q356 -28 378 -42Q400 -56 413 -64Q452 -85 489 -102Q483 -108 473 -124Q459 -147 446 -154V-155Q446 -160 453 -160H457Q453 -168 444 -169Q435 -169 427 -171V-172Q427 -178 433 -178Q439 -179 445 -180Q447 -180 463 -187Q468 -218 470 -253Q470 -292 446 -304Q451 -315 455 -327Q450 -328 440 -328Q413 -328 362 -311Q317 -296 292 -295Q304 -311 349 -320Q389 -328 401 -340Q386 -343 373 -343Q317 -338 268 -318Q236 -309 221 -302Q197 -291 187 -274Q193 -267 199 -267Q205 -267 217 -273Q229 -279 234 -279Q238 -279 240 -278V-276Q239 -270 231 -266Q222 -262 215 -258Q207 -252 200 -246Q192 -240 184 -237Q171 -225 159 -211Q147 -198 132 -187Q82 -187 70 -229Q65 -234 57 -238Q48 -243 45 -247Q38 -258 38 -272Q41 -292 43 -313Q41 -338 51 -358Q66 -373 91 -388Q109 -403 126 -418Q143 -432 168 -436Q163 -429 147 -417Q122 -399 117 -384Q122 -374 137 -374Q145 -374 175 -381Q259 -400 298 -405Q298 -426 290 -439Q282 -453 272 -464Q249 -483 239 -516Q242 -524 248 -531Q247 -538 240 -543Q232 -549 231 -554Q233 -555 245 -557Q256 -558 258 -564Q259 -570 241 -573Q223 -577 219 -582Q223 -584 231 -584Q239 -583 246 -583H249Q265 -584 295 -602Q321 -617 334 -617H335Q348 -617 363 -599Q379 -580 394 -579V-572Q398 -544 407 -520Q393 -500 393 -442V-421Q431 -427 478 -432Q479 -448 479 -465Q479 -484 477 -514Q474 -528 471 -542Q471 -553 481 -556Q483 -507 493 -471Q507 -480 507 -524V-541Q507 -633 487 -654Q473 -650 473 -632Q474 -622 474 -612Q474 -602 472 -598Q462 -601 462 -610Q462 -619 461 -627Q457 -649 439 -673Q424 -694 392 -694H388Q393 -698 410 -701Q426 -703 431 -708Q430 -708 415 -711Q417 -721 423 -724Q429 -727 437 -730Q465 -747 489 -768Q514 -789 547 -791Q552 -790 556 -790Q568 -789 579 -775Q580 -774 597 -749Q613 -730 621 -711Q600 -669 600 -650Q600 -639 604 -630Q676 -641 749 -676Q764 -671 766 -671Q769 -671 775 -673L774 -669Q774 -666 779 -661Q794 -663 809 -666L811 -664Q807 -656 800 -649Q809 -645 820 -645Q839 -646 858 -648Q847 -639 831 -635Q814 -631 812 -612H813Q816 -612 823 -617Q831 -623 836 -623L840 -622Q837 -615 826 -608Q813 -599 812 -588L814 -586Q818 -587 821 -588Q823 -588 825 -586Q813 -567 801 -548Q788 -530 770 -517Q755 -524 733 -524Q710 -524 656 -511Q625 -499 604 -488Q590 -484 584 -481Q580 -476 580 -466Q582 -454 584 -442Q590 -441 595 -441Q634 -446 675 -451H680Q693 -450 705 -450H710Q719 -450 744 -456Q769 -462 785 -462H819Q841 -466 862 -471Q891 -473 898 -479L900 -476Q897 -471 894 -467L895 -465Q900 -457 917 -457Q931 -458 945 -459Q954 -459 960 -456ZM797 -355V-346Q785 -347 773 -349V-353Q773 -360 780 -360Q790 -360 797 -355ZM841 -683L838 -673H835Q829 -671 823 -669H821Q823 -683 835 -685Q839 -685 841 -683Z"/>
</svg>