<svg xmlns="http://www.w3.org/2000/svg" viewBox="0 -800 1024 1024">
	<path fill="#000000" d="M901 -283Q901 -270 894 -260Q892 -262 890 -269Q889 -273 891 -278Q893 -283 898 -284ZM923 -695Q917 -659 915 -651Q907 -626 892 -626Q888 -626 880 -629Q905 -644 907 -678Q907 -691 902 -701Q899 -702 895 -702Q873 -702 873 -665Q840 -652 821 -635Q796 -613 795 -582Q805 -593 816 -604Q826 -615 842 -620Q839 -609 831 -602Q823 -594 816 -587Q797 -566 793 -555Q797 -554 800 -554Q810 -554 828 -564Q839 -570 846 -572Q843 -567 831 -559Q816 -550 813 -545Q816 -540 819 -540Q829 -544 839 -548Q841 -548 845 -546Q832 -536 827 -521Q828 -517 830 -517Q833 -517 836 -518H837Q834 -506 834 -468Q834 -457 836 -441Q830 -438 830 -428Q830 -422 831 -420H829Q826 -420 823 -421H821L819 -419V-414H816Q803 -409 778 -404Q771 -404 768 -405Q768 -414 784 -417Q798 -420 800 -426Q792 -439 767 -439Q756 -439 751 -438Q709 -434 659 -408Q641 -392 625 -389Q610 -386 600 -383Q589 -382 569 -371Q553 -362 542 -362H540Q534 -362 522 -368Q513 -372 506 -374Q506 -382 504 -384Q500 -393 486 -393Q476 -402 476 -417Q477 -429 478 -442Q478 -453 473 -459Q483 -504 527 -504H532Q530 -511 523 -514Q517 -517 510 -522Q498 -534 489 -548Q480 -561 465 -562Q460 -562 458 -561Q466 -568 473 -575Q472 -587 471 -598Q469 -609 461 -614Q489 -630 489 -679V-684Q494 -666 508 -666Q521 -666 525 -681H527Q529 -681 531 -678Q533 -675 535 -674H542Q561 -674 574 -665Q584 -658 596 -642Q601 -645 604 -650Q607 -655 615 -656Q608 -626 608 -623V-617Q611 -610 614 -604V-601Q614 -595 613 -590Q613 -587 614 -585Q615 -578 622 -565Q628 -554 628 -549V-548Q625 -538 622 -528Q622 -524 625 -521H627Q634 -521 646 -531L698 -653Q711 -675 715 -693Q713 -707 694 -707H685Q677 -707 674 -708Q677 -715 692 -721Q705 -727 707 -735Q764 -765 815 -798Q853 -789 880 -758Q888 -749 923 -695ZM483 -189H479Q454 -189 452 -159Q430 -162 396 -164Q392 -159 392 -132Q393 -120 393 -108Q393 -99 390 -95Q381 -98 381 -122Q381 -141 377 -146Q368 -136 368 -114Q369 -100 369 -86V-79Q369 -56 368 -34V-17Q368 2 377 5Q387 1 387 -24V-40Q387 -52 390 -61Q400 -55 400 -26Q400 -6 404 1Q400 6 400 19Q388 26 379 35Q370 45 360 53Q355 51 348 42Q337 28 326 27Q314 1 301 -26Q300 -30 294 -32Q302 -40 302 -57Q302 -71 295 -77Q314 -99 314 -157Q300 -146 258 -89Q246 -65 234 -41Q222 -35 213 -5Q207 16 200 24Q198 23 195 23Q190 23 186 28Q181 33 178 34Q148 20 136 18Q136 6 128 -1Q121 -7 113 -13Q115 -17 115 -19Q115 -22 113 -26Q111 -37 95 -45Q84 -51 80 -56Q83 -55 90 -55Q109 -55 110 -73Q101 -87 76 -93Q41 -101 33 -105Q38 -106 48 -106Q82 -102 115 -98Q133 -98 147 -107Q190 -135 225 -176Q260 -217 292 -254Q304 -279 320 -300Q304 -296 288 -285Q272 -275 254 -266Q222 -253 194 -239Q165 -225 154 -191Q115 -194 79 -224Q65 -238 65 -268Q63 -280 52 -297Q40 -316 40 -328Q40 -335 43 -344Q60 -374 86 -412Q97 -434 107 -452Q117 -470 129 -479V-478Q125 -458 120 -438Q120 -430 122 -427Q131 -428 149 -435Q171 -443 187 -443H190Q187 -433 177 -427Q166 -422 154 -417Q132 -411 130 -393Q131 -390 131 -387Q132 -381 139 -377Q181 -403 248 -424Q304 -443 338 -462Q331 -473 319 -473Q309 -473 285 -463Q258 -452 244 -452Q240 -452 236 -453Q239 -468 253 -473Q267 -478 280 -482Q301 -490 338 -498V-503Q338 -540 314 -557V-559Q314 -570 308 -587Q302 -604 302 -610Q302 -613 304 -619Q309 -629 326 -639Q343 -650 360 -662Q373 -675 388 -678Q393 -678 399 -675Q410 -653 421 -631Q427 -621 436 -611Q444 -601 445 -590V-587Q441 -571 434 -553V-551Q436 -541 437 -532Q437 -526 433 -522Q439 -523 449 -529Q463 -536 474 -537Q468 -531 461 -524Q454 -518 453 -508Q453 -503 454 -501H455Q458 -504 466 -507H467Q458 -496 458 -482Q458 -469 467 -459Q463 -445 458 -431Q458 -422 462 -422H463Q456 -412 455 -409Q461 -397 461 -386Q461 -374 457 -365Q426 -356 401 -343Q400 -327 399 -312Q399 -295 408 -290Q415 -292 421 -303Q427 -312 431 -315L432 -312Q428 -302 424 -286Q424 -281 425 -279H429Q438 -279 451 -290Q463 -300 471 -302Q471 -298 462 -289Q450 -276 450 -265V-262Q454 -244 470 -244Q478 -244 483 -246Q482 -238 473 -232Q466 -227 464 -224V-223Q464 -219 468 -216Q472 -213 472 -210Q466 -208 464 -202Q466 -198 474 -195Q481 -193 483 -189ZM549 -192Q532 -168 528 -159Q539 -165 552 -174Q550 -167 547 -160Q547 -159 549 -155Q555 -146 572 -140Q594 -147 656 -162Q718 -173 777 -178Q782 -180 787 -183Q817 -183 847 -184Q852 -185 860 -187Q879 -195 884 -214Q889 -232 893 -251V-248Q894 -243 896 -212Q900 -197 903 -195Q929 -206 949 -209Q944 -205 937 -199Q929 -194 930 -183V-179Q931 -177 937 -177L944 -178V-177Q941 -171 939 -161V-160Q940 -155 945 -156Q951 -156 954 -155Q954 -149 955 -146Q961 -127 967 -108Q967 -104 967 -100Q976 -88 977 -78Q981 -45 945 -20Q914 -16 879 -30Q860 -35 848 -46Q854 -49 856 -49L861 -50Q868 -52 869 -53Q855 -72 824 -71Q814 -69 808 -62Q810 -54 822 -51Q833 -48 835 -44Q736 -48 689 -35Q723 -54 781 -54Q783 -54 786 -59Q789 -63 793 -64Q771 -84 672 -69Q604 -50 597 -25Q601 -22 609 -24L655 -32Q647 -21 611 -7Q576 6 569 18Q566 28 562 37Q560 39 551 44Q540 50 537 56Q517 44 492 34Q481 25 467 21Q452 17 438 13Q424 10 419 -5Q419 -7 418 -10Q420 -31 424 -44L423 -45Q423 -51 417 -62Q410 -75 409 -84Q409 -88 411 -98Q415 -110 428 -119Q441 -128 454 -136Q496 -166 537 -197Q520 -207 519 -220V-222Q519 -227 518 -232V-234Q513 -241 506 -241Q498 -241 488 -242Q492 -248 498 -253Q505 -257 510 -262Q507 -268 507 -274Q505 -319 542 -333H544Q547 -333 550 -333L553 -335Q560 -341 567 -347H569Q576 -348 592 -343H597Q628 -350 659 -358Q673 -360 688 -358Q665 -348 635 -343Q604 -338 595 -318Q604 -310 617 -312Q624 -313 645 -322Q664 -330 676 -333Q699 -337 718 -340Q737 -343 748 -355Q746 -364 737 -363Q729 -362 723 -365Q729 -376 747 -379Q761 -380 775 -382Q794 -384 798 -396Q800 -394 800 -391Q797 -381 796 -363Q797 -360 798 -358Q801 -356 807 -356Q819 -359 831 -362Q834 -363 838 -362Q835 -358 821 -353Q809 -348 810 -340H813Q819 -342 825 -344Q828 -345 830 -343Q815 -336 818 -320Q820 -302 842 -304H843Q838 -301 832 -298Q829 -283 830 -276Q830 -268 822 -257Q733 -245 730 -245L723 -244Q717 -241 711 -239Q710 -238 703 -236Q691 -236 686 -235Q670 -231 621 -210L612 -208Q605 -205 597 -198Q586 -188 582 -188Q566 -186 549 -192Z"/>
</svg>