<svg xmlns="http://www.w3.org/2000/svg" viewBox="0 -800 1024 1024">
	<path fill="#000000" d="M387 -177L373 -167Q356 -155 356 -124Q356 -114 358 -88Q359 -81 360 -74Q360 -66 352 -62Q347 -69 345 -90Q343 -115 336 -121H334Q325 -121 325 -108V-52Q325 1 344 5Q351 -1 352 -21Q353 -37 355 -41Q364 -39 366 -21Q368 1 372 5Q362 28 362 36Q362 40 364 46Q339 72 335 97Q328 98 319 102Q308 107 302 107Q297 107 295 106Q280 103 271 72Q261 39 246 31Q237 26 219 26Q199 26 185 20Q193 18 196 18Q216 21 236 23Q245 23 252 20Q251 6 228 2Q240 -8 252 -17Q264 -27 267 -46Q268 -49 268 -55Q268 -63 264 -81Q215 -61 203 -11Q191 -2 178 -2Q164 -2 138 -19Q111 -39 111 -65Q111 -75 116 -92Q108 -103 108 -115Q109 -128 116 -141Q122 -153 129 -164Q135 -175 140 -185Q144 -196 153 -200Q151 -187 148 -174Q148 -170 150 -164Q180 -179 252 -227Q280 -245 280 -283Q280 -296 277 -311Q248 -302 235 -295Q214 -284 205 -266Q193 -263 174 -241Q159 -224 147 -219Q140 -216 131 -216Q112 -216 83 -235Q76 -262 63 -281Q54 -293 46 -302Q39 -310 38 -323Q38 -329 39 -332Q41 -354 43 -361Q47 -378 55 -386Q51 -398 51 -410Q52 -431 63 -446Q74 -460 86 -476Q93 -489 99 -503Q102 -509 105 -515Q109 -521 116 -521Q106 -503 106 -484Q106 -469 116 -460Q125 -466 129 -476Q133 -466 145 -466Q160 -468 175 -470Q182 -470 185 -466Q181 -459 171 -458Q161 -458 151 -454Q136 -447 132 -431Q132 -425 141 -422Q144 -421 146 -421Q164 -421 200 -437Q229 -450 249 -463Q263 -472 267 -482Q263 -487 255 -487Q249 -487 232 -479Q219 -473 213 -473Q215 -486 240 -497Q258 -505 264 -512Q262 -530 255 -541Q247 -553 239 -564Q242 -568 242 -572Q239 -582 236 -592V-595Q236 -599 242 -605Q247 -610 247 -614V-615Q247 -622 238 -628Q231 -633 228 -638Q228 -641 231 -641Q237 -640 242 -639L246 -640Q264 -650 277 -666Q291 -681 307 -695Q324 -694 340 -693H346Q382 -657 397 -636Q386 -607 386 -576Q386 -565 387 -560Q400 -565 419 -577Q433 -586 441 -590L442 -588Q442 -586 437 -582Q428 -574 428 -567V-563Q428 -560 431 -560Q434 -560 437 -561L440 -560Q437 -553 434 -546Q437 -539 440 -532Q443 -525 452 -524Q447 -509 447 -501Q447 -490 455 -486Q453 -480 453 -478Q453 -471 459 -461Q465 -451 465 -446V-445Q464 -439 459 -429Q451 -414 450 -407V-396Q450 -389 447 -385Q425 -378 403 -373Q380 -369 370 -350Q365 -330 364 -302Q387 -309 402 -320Q417 -331 440 -343Q437 -333 423 -323Q407 -311 405 -300H408Q411 -300 418 -304Q427 -309 433 -309H434Q434 -306 426 -299Q416 -290 416 -281V-280Q417 -277 419 -277Q422 -277 424 -278L426 -277L427 -273Q425 -265 420 -258Q422 -251 423 -244Q421 -236 419 -229V-205Q416 -194 407 -189Q398 -184 387 -177ZM831 -657V-652Q829 -620 809 -607Q787 -594 770 -580Q691 -576 646 -532Q658 -537 680 -537Q713 -537 720 -522V-518Q724 -496 733 -475Q744 -477 754 -480Q747 -473 739 -464Q732 -455 731 -442Q731 -436 732 -433Q724 -429 722 -418Q720 -407 717 -397Q703 -390 686 -390Q661 -390 649 -402Q643 -412 637 -422Q628 -434 616 -449Q605 -465 604 -479Q604 -493 623 -500V-514Q597 -511 592 -494Q583 -503 570 -503Q555 -503 541 -493L540 -496Q540 -500 546 -504Q550 -506 551 -508Q544 -512 533 -512Q526 -512 518 -510Q518 -525 506 -525Q495 -525 477 -513L476 -517Q480 -528 487 -540Q484 -550 475 -550Q463 -546 450 -543Q464 -569 487 -588Q510 -607 533 -626Q546 -638 559 -649Q571 -661 587 -666Q579 -649 553 -627Q526 -604 518 -588Q568 -624 617 -661Q623 -665 634 -674Q645 -683 646 -692Q646 -695 641 -698L638 -699Q633 -699 621 -688Q608 -676 601 -676H600Q599 -678 599 -682Q599 -691 611 -701Q622 -710 622 -715Q621 -732 595 -735Q641 -760 645 -762Q676 -776 703 -776Q713 -776 718 -775Q723 -777 732 -777Q748 -776 762 -769Q775 -762 788 -757Q791 -750 802 -745Q811 -741 813 -738Q831 -716 831 -657ZM948 -364Q944 -350 938 -337Q933 -341 933 -351Q933 -367 941 -367Q945 -367 948 -364ZM568 -347Q563 -339 562 -332Q581 -334 628 -350Q668 -363 681 -364Q711 -366 724 -373Q716 -381 711 -381H709Q731 -416 755 -451Q761 -463 767 -475Q772 -487 785 -491Q781 -475 765 -446Q753 -425 748 -409Q760 -415 765 -427Q770 -439 777 -450Q792 -468 807 -488Q822 -508 825 -534Q812 -533 800 -517Q797 -512 796 -507Q794 -501 788 -500H786V-504Q786 -516 791 -522Q796 -529 800 -537Q796 -539 787 -539Q780 -539 776 -538Q789 -551 802 -566Q815 -581 831 -591Q849 -603 869 -603H872Q902 -597 921 -577Q928 -562 932 -535Q940 -515 944 -493Q944 -487 943 -484Q941 -474 911 -456Q880 -440 849 -426Q819 -412 804 -381Q814 -384 823 -387Q825 -387 829 -385V-384Q827 -376 825 -369Q825 -366 826 -364Q838 -368 849 -373Q848 -370 844 -365Q839 -359 838 -353Q843 -347 847 -347Q859 -350 871 -353H875Q866 -344 854 -340Q841 -336 838 -321Q840 -318 841 -318Q847 -321 853 -324Q841 -316 830 -286Q823 -266 817 -258Q775 -258 758 -256Q727 -252 712 -241Q713 -237 717 -233Q721 -229 721 -227L720 -224Q753 -228 786 -233Q794 -233 798 -232Q794 -224 784 -222Q774 -220 764 -218Q758 -217 726 -207Q731 -203 742 -203Q751 -203 763 -205Q839 -219 869 -227Q864 -232 849 -232Q837 -231 824 -231Q818 -231 816 -232Q818 -236 827 -239Q839 -243 844 -246Q873 -265 893 -309V-294Q893 -276 899 -270Q907 -322 917 -372Q919 -365 919 -349Q919 -326 918 -303Q918 -275 926 -265Q931 -293 936 -322Q940 -297 940 -269Q941 -241 956 -227Q954 -221 954 -217Q954 -210 962 -194Q968 -182 968 -175Q968 -168 961 -160Q954 -152 953 -145H952Q936 -140 920 -136Q913 -137 901 -144Q886 -153 878 -154Q873 -155 864 -155Q814 -150 760 -145L758 -144L760 -140L758 -139Q744 -140 729 -142Q719 -142 711 -138Q694 -108 694 -60Q704 -58 710 -58Q738 -61 763 -70Q775 -91 779 -117Q779 -124 776 -132Q784 -136 792 -136Q802 -135 811 -135H816Q826 -135 840 -140Q857 -146 863 -146H868Q875 -145 886 -134Q898 -122 906 -122Q912 -122 915 -124Q910 -116 910 -110Q910 -104 911 -100L912 -99Q916 -101 920 -103L923 -102V-90Q923 -68 927 -55Q917 -37 917 -14Q896 -4 875 6Q876 -9 885 -15Q895 -21 900 -30Q895 -38 888 -38Q881 -37 874 -31Q867 -25 860 -20Q850 -13 842 -10Q834 -7 828 3Q801 44 800 69Q811 50 824 31Q837 12 860 10Q866 10 869 11Q864 18 853 28Q839 41 834 49Q823 66 816 105Q799 116 776 116Q763 116 752 112Q749 98 738 91Q727 84 715 78Q715 66 718 58Q715 56 711 56Q706 56 706 51V49Q687 54 654 58Q616 62 601 66Q603 54 615 50Q627 46 643 46Q677 48 693 33Q676 33 658 32Q569 32 546 63Q549 65 559 65H575Q582 65 585 66Q582 73 574 73Q566 73 557 75Q544 79 523 96Q508 108 499 112Q486 106 473 101Q459 96 450 86Q451 79 451 72Q451 34 428 20Q429 18 429 14Q426 6 420 -3Q420 -15 427 -21Q434 -26 443 -33Q455 -44 469 -56Q483 -68 506 -69Q516 -69 526 -66Q533 -65 538 -59Q546 -50 549 -49Q547 -39 545 -30Q545 -25 548 -22Q591 -29 620 -39Q615 -81 609 -123Q582 -123 570 -109Q482 -107 452 -51L449 -49Q429 -51 412 -57Q409 -63 399 -76Q387 -92 385 -103V-109Q385 -117 389 -131Q394 -148 394 -157V-161Q401 -165 418 -178Q440 -195 455 -201Q446 -192 442 -181Q442 -176 447 -172H451Q464 -173 476 -174H481Q477 -167 460 -162Q445 -158 441 -151Q447 -146 460 -146Q494 -150 527 -158Q547 -161 566 -164Q575 -165 584 -166Q593 -167 597 -175Q595 -180 586 -180Q581 -180 573 -178Q541 -170 505 -167H501Q505 -177 515 -180Q525 -182 535 -184Q564 -188 595 -196V-198Q591 -208 587 -218Q576 -213 552 -209Q526 -205 514 -199Q504 -191 496 -187H492Q474 -187 456 -214Q443 -233 435 -238Q426 -259 434 -274Q442 -290 449 -307Q458 -325 467 -343Q469 -328 471 -313Q491 -343 491 -344Q500 -361 493 -375Q491 -374 488 -374Q488 -376 490 -380Q489 -382 487 -384Q475 -369 467 -350Q464 -357 466 -371Q468 -385 465 -387Q456 -370 446 -353Q455 -414 489 -435L491 -436Q494 -445 508 -474Q512 -474 516 -468Q517 -475 529 -478Q538 -480 540 -483Q543 -481 548 -481Q554 -481 557 -485Q588 -460 616 -418H619Q624 -419 628 -420H630Q619 -407 616 -391Q616 -388 618 -382Q616 -380 606 -372Q595 -363 590 -355Q583 -347 568 -347Z"/>
</svg>