<svg xmlns="http://www.w3.org/2000/svg" viewBox="0 -800 1024 1024">
	<path fill="#000000" d="M342 -248Q333 -234 313 -225Q293 -216 284 -198H285Q290 -198 299 -206Q309 -215 318 -215Q321 -214 323 -214Q307 -204 302 -199Q291 -189 290 -176Q294 -174 295 -174Q302 -175 308 -177Q303 -166 295 -159Q296 -146 304 -140Q312 -134 319 -126Q273 -109 242 -67V-64Q244 -60 245 -57V-56Q201 -39 188 -21Q185 -16 183 -4Q180 12 174 18H169Q165 18 151 25Q144 21 128 16Q105 9 96 -1Q72 -26 72 -82Q72 -106 77 -133Q87 -141 101 -164Q113 -183 122 -191Q116 -179 116 -165Q116 -156 120 -151Q173 -170 225 -197Q215 -182 178 -165Q145 -150 135 -139H139Q155 -140 171 -148Q186 -156 201 -164L264 -197Q260 -199 259 -199Q251 -197 243 -195H240Q248 -206 261 -212Q274 -217 286 -223Q321 -244 338 -249H339ZM541 35Q539 38 533 38Q523 37 512 35H510V28Q529 28 541 35ZM97 -524Q95 -516 92 -509L88 -508Q83 -510 78 -512V-516Q78 -526 89 -526Q93 -526 97 -524ZM351 -541H363Q351 -532 342 -512Q339 -504 329 -474H326Q322 -473 318 -473L315 -474V-477Q315 -483 320 -493Q324 -501 324 -505Q324 -510 318 -515Q309 -504 299 -495H220Q225 -477 257 -475Q293 -473 300 -465Q291 -464 253 -456Q193 -485 172 -521Q154 -513 152 -512Q152 -516 160 -527Q167 -537 169 -544Q163 -550 153 -550Q135 -550 111 -531Q112 -540 119 -545Q126 -550 132 -556Q150 -572 155 -581Q142 -606 141 -608Q131 -621 112 -622Q114 -628 121 -628Q127 -629 132 -631Q133 -637 133 -650Q133 -676 121 -682L123 -683Q131 -680 139 -675Q143 -679 157 -679H173Q180 -695 181 -717L184 -716V-710Q184 -690 195 -674Q206 -658 221 -658Q224 -658 226 -659Q233 -661 239 -674Q245 -687 253 -690Q246 -680 246 -668Q247 -640 279 -637Q283 -637 287 -638Q294 -660 311 -671Q301 -648 301 -636Q301 -632 303 -624Q306 -627 307 -630Q308 -634 312 -634H315L312 -619Q322 -608 332 -580Q343 -551 351 -541ZM764 -346Q766 -342 768 -332H767Q759 -332 758 -337Q756 -342 754 -345Q750 -345 746 -345Q741 -340 741 -331Q741 -317 745 -310Q765 -320 765 -329Q774 -314 758 -296Q826 -302 876 -326Q878 -336 880 -347Q902 -314 924 -314Q931 -314 937 -317L938 -314Q937 -308 936 -303L937 -300L938 -299Q941 -299 944 -300H947Q945 -296 945 -288Q950 -254 954 -221Q954 -212 947 -206Q950 -199 953 -193H950Q946 -195 941 -197Q928 -188 923 -188Q921 -188 915 -190L914 -188V-187Q914 -184 912 -183H906Q852 -185 797 -188Q772 -188 759 -186Q750 -173 750 -152Q750 -130 746 -112Q739 -117 739 -128Q740 -140 741 -152Q741 -163 735 -167Q718 -157 718 -97Q718 -50 719 -37Q720 6 722 18Q726 45 740 57Q751 52 751 38Q747 13 742 -12Q742 -21 746 -25Q760 13 764 54V57Q763 81 748 95Q733 110 722 127Q716 129 706 129Q689 129 667 111Q650 97 642 94Q637 71 604 59Q555 42 550 38H555Q586 38 615 47Q599 32 547 23Q494 14 479 2Q545 16 620 23Q615 16 599 14Q586 12 579 9Q598 8 615 6Q633 5 644 -4Q652 -50 657 -176Q599 -170 565 -159V-155Q565 -149 574 -147Q580 -146 582 -143H583Q587 -146 591 -150L593 -149Q594 -125 617 -115Q614 -108 613 -78Q613 -61 611 -52Q596 -33 574 -29Q563 -28 541 -38Q520 -47 510 -47H508Q497 -46 483 -36Q470 -26 458 -19Q462 -32 477 -43Q492 -53 499 -62Q497 -68 490 -78Q479 -94 479 -102Q483 -121 494 -140Q486 -138 451 -125Q409 -109 397 -109Q383 -109 372 -124H369Q356 -124 349 -133Q343 -141 343 -154Q343 -167 347 -179Q352 -193 360 -197Q362 -202 364 -207Q362 -213 362 -219Q381 -241 417 -269Q456 -300 479 -309Q478 -304 451 -277Q421 -247 420 -240Q455 -242 536 -260Q616 -277 657 -281Q657 -297 649 -312Q644 -322 639 -326Q589 -307 558 -300H555Q547 -302 537 -311Q494 -335 466 -344Q507 -344 513 -346Q510 -357 471 -360Q428 -363 422 -367Q445 -372 470 -373Q479 -371 487 -369H491Q503 -369 528 -378Q549 -383 570 -388Q586 -393 624 -405Q662 -418 683 -419H690Q696 -437 701 -456Q659 -447 648 -443Q620 -434 606 -418Q595 -420 582 -434Q569 -448 560 -449Q560 -455 553 -462Q548 -468 548 -473Q548 -475 550 -481Q618 -524 732 -544Q741 -562 748 -584Q713 -576 679 -562Q644 -549 609 -537Q517 -508 486 -466Q484 -466 481 -467Q475 -467 465 -455Q440 -460 417 -480Q392 -501 387 -523Q386 -526 386 -532V-539Q386 -551 378 -557V-565Q378 -588 391 -598V-600Q392 -617 402 -628Q412 -638 422 -647Q433 -659 443 -672Q453 -685 468 -692Q467 -688 463 -681Q456 -669 456 -664Q456 -657 464 -653Q455 -647 455 -634Q455 -623 464 -619Q551 -645 636 -677Q671 -685 728 -696Q775 -701 803 -719Q804 -735 805 -742Q807 -751 812 -755Q817 -759 824 -759Q833 -759 847 -751Q862 -743 868 -742H870Q878 -742 890 -749Q900 -755 909 -755H911Q897 -745 890 -727Q891 -725 897 -725H907Q912 -725 913 -724Q912 -719 909 -716Q905 -712 905 -709V-706Q906 -701 909 -701Q914 -702 918 -704Q916 -698 916 -694Q916 -683 933 -652Q934 -638 934 -625Q934 -614 930 -605Q915 -599 898 -599Q889 -597 877 -588Q864 -578 857 -578H856V-579Q857 -591 868 -597Q879 -603 892 -608Q914 -614 916 -632Q912 -645 899 -650H897Q883 -650 853 -620Q845 -612 821 -580Q803 -556 788 -506Q774 -459 772 -429Q783 -433 797 -457Q810 -478 825 -482Q827 -478 827 -476Q827 -470 822 -466Q817 -462 813 -458Q806 -449 791 -416Q770 -368 766 -346ZM139 -345Q148 -349 155 -377Q161 -401 178 -401Q172 -412 169 -424Q175 -422 188 -414Q201 -418 219 -418Q261 -418 286 -396Q293 -376 303 -353Q312 -331 316 -305Q316 -290 311 -285Q311 -283 313 -283Q316 -283 316 -280Q308 -267 284 -257Q264 -249 257 -242Q238 -245 226 -254Q214 -264 205 -277Q190 -302 165 -317V-337Q152 -348 139 -345Z"/>
</svg>