<svg xmlns="http://www.w3.org/2000/svg" viewBox="0 -800 1024 1024">
	<path fill="#000000" d="M165 -469Q162 -465 160 -459Q158 -453 152 -451Q150 -455 150 -457Q151 -469 161 -470ZM651 -66V-64Q640 -65 635 -67Q627 -71 627 -79Q631 -79 634 -80Q651 -80 651 -66ZM701 -688Q696 -673 680 -672Q678 -676 678 -678Q680 -691 693 -693Q698 -693 701 -688ZM661 -276Q608 -268 602 -236Q610 -234 613 -234Q622 -234 637 -241Q650 -247 655 -248Q658 -262 661 -276ZM756 -408V-391Q764 -385 772 -380Q773 -432 773 -484Q773 -551 769 -600H766Q719 -573 673 -540Q641 -519 628 -509Q604 -490 593 -471Q615 -480 670 -514Q696 -529 704 -530Q706 -527 706 -522Q705 -518 710 -517Q729 -538 750 -544Q743 -533 735 -524Q727 -515 726 -498L729 -497Q735 -500 741 -503L743 -502Q735 -494 735 -482Q735 -469 743 -463Q742 -454 735 -443Q727 -431 727 -423Q727 -419 728 -417Q695 -397 664 -383Q646 -373 627 -363Q608 -353 582 -352H572Q556 -370 541 -392Q550 -404 550 -423V-429Q536 -424 530 -412Q526 -404 522 -380Q518 -361 514 -342Q514 -336 515 -332Q521 -335 526 -335Q537 -335 556 -319Q588 -330 619 -341Q650 -352 676 -371H678Q682 -372 686 -373H688Q697 -396 728 -396Q737 -396 741 -395Q743 -399 745 -403Q747 -408 753 -408ZM313 -305V-304Q313 -285 296 -270Q279 -255 256 -255Q252 -255 247 -256Q230 -263 212 -268H211Q204 -267 195 -259Q186 -250 180 -250V-253Q180 -258 189 -266Q196 -272 198 -276Q197 -281 192 -283H191Q187 -283 183 -278Q179 -274 174 -274Q174 -280 177 -284Q180 -287 183 -291Q165 -310 151 -332Q136 -354 112 -366Q114 -370 127 -371Q139 -371 141 -377Q139 -379 136 -381L137 -383Q140 -382 143 -382Q147 -382 153 -385Q157 -390 159 -397Q172 -408 199 -408Q206 -408 251 -403Q265 -391 273 -391Q279 -395 284 -401Q288 -407 298 -408Q290 -400 290 -387Q290 -368 306 -368Q309 -368 315 -370Q305 -361 305 -347Q309 -326 313 -305ZM193 -493H187Q180 -492 173 -484Q168 -477 164 -475Q163 -477 163 -482Q163 -489 171 -499Q159 -513 138 -529Q122 -526 105 -509Q91 -495 82 -492Q82 -503 104 -520Q127 -538 128 -547V-549Q128 -556 119 -566Q109 -578 109 -588V-589H96Q80 -589 75 -586Q77 -594 92 -600Q104 -605 107 -609Q108 -611 108 -616Q108 -624 100 -634Q94 -641 94 -644L97 -645Q102 -642 107 -640Q118 -647 118 -660Q118 -678 100 -694L103 -695Q119 -690 137 -681Q143 -683 147 -687V-688Q146 -692 144 -696V-699Q152 -696 160 -696Q171 -696 182 -697Q192 -697 199 -694Q212 -700 218 -712Q221 -712 221 -708Q221 -701 217 -697Q218 -689 227 -686Q232 -684 245 -682Q256 -673 267 -665Q273 -659 279 -653Q285 -653 289 -666Q293 -681 303 -681Q295 -668 295 -654Q295 -638 311 -613Q329 -585 330 -567Q318 -569 315 -582Q312 -594 303 -600Q300 -599 296 -598H295Q291 -594 291 -588Q296 -569 301 -550Q302 -536 302 -524Q303 -513 313 -511Q319 -514 322 -529Q325 -544 330 -547Q337 -544 337 -540Q335 -531 333 -523Q333 -519 334 -517Q322 -499 310 -481Q296 -474 282 -468Q272 -469 243 -480Q209 -493 193 -493ZM181 3V8Q188 8 196 -2Q203 -10 209 -10Q212 -10 214 -9L215 -6Q215 0 210 3Q205 6 202 10Q197 27 195 44Q192 61 175 67Q167 69 162 69Q137 69 119 57Q113 53 105 42Q95 28 89 25Q86 24 84 24Q80 24 76 25Q59 15 59 -12Q59 -48 78 -73Q75 -83 75 -92Q75 -125 119 -157Q111 -147 111 -135Q111 -131 113 -127Q147 -138 176 -157Q206 -176 236 -193Q296 -227 356 -262L358 -261L357 -260Q347 -249 333 -240Q320 -232 315 -214L318 -213Q322 -213 327 -217Q334 -222 339 -222H340Q326 -214 326 -200Q326 -191 337 -188Q320 -173 320 -141Q320 -125 325 -116Q308 -103 285 -79Q250 -44 233 -32Q236 -51 263 -74Q289 -96 294 -112Q269 -107 249 -89Q229 -70 212 -52Q199 -39 191 -27Q181 -12 181 3ZM922 -12V-7Q921 2 914 11Q908 19 902 28Q875 72 843 88Q820 84 799 70Q777 61 760 45Q755 39 751 24Q748 13 744 7Q732 -15 688 -41Q681 -44 673 -49Q664 -54 660 -64Q702 -40 740 -31Q720 -48 636 -90Q629 -94 621 -98Q614 -103 611 -110H612Q626 -107 640 -98Q689 -79 738 -61Q738 -71 720 -80Q706 -87 703 -93Q711 -90 729 -88Q745 -86 754 -82Q757 -84 774 -98Q775 -192 769 -282Q763 -281 763 -272Q763 -263 759 -262Q750 -263 750 -271Q752 -281 754 -291Q754 -295 753 -297Q736 -293 725 -272Q715 -253 715 -228Q715 -209 722 -196Q728 -201 732 -219Q738 -242 748 -247Q743 -200 738 -153Q730 -151 722 -141Q711 -147 697 -151Q683 -156 675 -167H674Q669 -167 666 -163Q663 -159 660 -159Q661 -169 666 -178Q654 -181 644 -181Q630 -181 624 -176Q619 -172 613 -160Q606 -145 598 -142H594Q579 -142 560 -155Q543 -167 533 -167Q528 -167 526 -166Q530 -173 530 -181Q529 -194 522 -207Q514 -219 509 -231Q500 -193 500 -136Q500 -76 509 -37Q499 -20 488 0Q477 20 457 22Q435 18 412 5Q401 -2 384 -30Q370 -53 360 -59V-65Q360 -96 334 -107Q340 -109 348 -113Q376 -167 383 -207Q387 -237 390 -265Q392 -293 405 -317Q411 -315 411 -302V-292Q410 -282 404 -253Q397 -221 397 -202Q397 -187 401 -175Q410 -180 412 -189Q413 -199 414 -213Q424 -282 435 -352Q436 -360 436 -368Q436 -386 426 -391Q418 -390 418 -377V-370Q418 -363 415 -360Q408 -361 408 -372Q408 -377 411 -392Q411 -396 407 -401Q404 -405 404 -408Q409 -420 409 -435Q409 -463 390 -471V-474Q390 -480 382 -491Q375 -501 374 -509V-513Q377 -530 389 -547Q377 -573 377 -585V-589Q382 -585 387 -576Q394 -564 399 -561Q401 -565 401 -567Q401 -569 398 -581H401Q410 -578 417 -574Q430 -581 446 -581Q477 -581 491 -559Q562 -605 604 -636Q614 -642 626 -645Q630 -645 631 -643Q631 -636 625 -633Q620 -631 615 -628Q606 -624 596 -616Q583 -607 571 -598Q559 -589 554 -572Q585 -580 609 -598Q633 -616 655 -633Q703 -666 748 -703Q744 -708 739 -708Q734 -708 724 -701Q717 -696 714 -696Q716 -715 733 -724Q749 -734 762 -744Q773 -771 805 -785Q823 -794 831 -794H835Q847 -792 859 -790H861Q872 -793 883 -797Q887 -797 889 -796V-792Q889 -779 896 -775Q906 -781 917 -785V-781Q917 -772 913 -768Q917 -768 924 -777Q934 -790 943 -790H944Q936 -775 928 -760Q930 -748 934 -741L935 -740Q936 -740 937 -743Q939 -747 942 -747H944V-741Q944 -726 957 -700Q949 -672 941 -644Q919 -637 911 -621Q876 -556 870 -414Q863 -416 860 -432Q858 -446 854 -449Q839 -448 839 -422Q839 -410 842 -403Q838 -392 838 -379Q843 -343 848 -308Q848 -271 850 -234Q851 -196 869 -175Q871 -187 871 -213Q869 -276 866 -339Q865 -345 864 -351Q864 -358 870 -361Q888 -189 889 -175Q892 -160 894 -145Q894 -135 887 -131Q883 -133 882 -145Q880 -160 872 -160Q864 -156 864 -139Q864 -121 872 -101Q880 -81 889 -79Q892 -82 892 -86Q891 -95 889 -104Q889 -109 893 -112Q901 -106 902 -95Q903 -85 905 -76Q917 -49 922 -12Z"/>
</svg>