<svg xmlns="http://www.w3.org/2000/svg" viewBox="0 -800 1024 1024">
	<path fill="#000000" d="M62 -406V-410Q62 -416 69 -421Q76 -426 84 -426Q79 -408 62 -406ZM245 -246V-245Q232 -249 218 -254Q204 -263 192 -267H191Q185 -267 179 -260Q174 -254 169 -252V-254Q169 -261 173 -264Q177 -267 180 -272Q171 -281 157 -286Q150 -308 146 -332Q146 -341 148 -345Q146 -351 141 -357Q135 -364 134 -369L138 -370Q147 -370 150 -363Q173 -386 201 -386Q205 -386 215 -384Q230 -375 245 -366Q254 -343 274 -333Q278 -311 278 -302Q278 -271 262 -252Q257 -250 251 -250Q246 -251 245 -246ZM301 -434H298Q293 -434 287 -440Q274 -431 255 -431Q232 -433 209 -435Q191 -435 181 -425Q182 -429 186 -432Q192 -436 192 -440Q178 -459 160 -468Q157 -468 154 -469Q141 -469 119 -450Q100 -433 89 -432Q96 -444 118 -459Q137 -471 143 -480Q140 -485 134 -485Q128 -485 115 -478Q107 -474 105 -474Q106 -482 118 -490Q127 -496 129 -501Q128 -508 121 -516Q114 -523 113 -528Q86 -526 66 -516Q47 -506 27 -498Q34 -510 65 -524Q97 -539 105 -552Q104 -569 90 -576Q79 -573 68 -570Q79 -581 89 -593Q87 -613 74 -623Q60 -633 52 -644Q70 -640 89 -633Q117 -656 137 -656Q144 -656 151 -653Q153 -653 155 -659Q157 -666 161 -666L164 -665Q163 -662 162 -659L163 -656Q167 -643 182 -638Q185 -654 191 -669Q194 -667 194 -666Q199 -636 199 -635Q203 -623 216 -618Q231 -615 246 -612Q247 -611 259 -597Q267 -587 274 -584H275Q280 -584 283 -590Q287 -597 293 -597Q290 -588 290 -581Q290 -570 300 -554Q309 -540 310 -530Q304 -530 296 -541Q290 -550 284 -550Q280 -550 275 -546Q293 -479 295 -464Q313 -472 316 -506Q324 -503 324 -494Q321 -478 317 -462V-461Q299 -455 299 -442Q299 -437 301 -434ZM749 5H750Q767 9 767 21L763 22Q751 22 749 5ZM944 -503H947Q951 -503 952 -502Q951 -486 940 -479Q936 -482 936 -485Q940 -494 944 -503ZM936 -80Q933 -84 933 -92Q933 -102 937 -110Q944 -107 944 -99Q944 -88 936 -80ZM393 -169Q385 -156 373 -148Q372 -150 372 -154Q372 -160 376 -165Q380 -170 387 -170Q391 -170 393 -169ZM934 -471L937 -472Q924 -459 924 -441Q924 -429 931 -421Q939 -412 952 -412Q956 -412 959 -413L960 -410Q956 -405 952 -395V-394Q952 -389 959 -387Q951 -379 951 -364Q954 -341 956 -319V-315Q951 -290 924 -284Q920 -283 915 -283Q909 -283 903 -284Q895 -284 887 -281Q877 -278 847 -256Q838 -245 829 -235Q822 -231 815 -229Q807 -226 804 -217Q806 -212 812 -212Q819 -212 837 -218Q856 -224 858 -230Q864 -226 865 -219Q874 -223 889 -223H898Q892 -218 883 -215Q875 -212 874 -202V-201L877 -200Q883 -202 889 -204Q891 -204 894 -201Q878 -195 878 -182Q878 -175 888 -171Q888 -167 883 -166Q879 -165 879 -162V-158Q879 -153 884 -146Q888 -141 889 -136Q886 -137 881 -137Q874 -137 868 -127H862Q851 -127 846 -121Q841 -121 836 -122Q801 -122 779 -100Q777 -94 777 -91Q777 -72 813 -45Q845 -21 866 -15Q870 -17 874 -28Q877 -37 881 -40Q884 -38 884 -36Q884 -33 883 -31L884 -29Q891 -55 894 -89Q897 -123 901 -153V-161Q901 -173 907 -175Q909 -171 909 -169Q908 -159 906 -150Q904 -127 904 -72V-21Q909 -33 909 -57V-90Q909 -116 915 -128Q918 -113 918 -74Q918 -23 925 -5Q928 -11 928 -28V-41Q928 -62 934 -69Q940 -64 940 -54Q940 -47 939 -40Q940 -25 939 -10Q938 5 945 17Q958 30 964 45V50Q961 66 958 82Q958 84 960 92Q930 113 895 121Q859 112 835 92Q802 71 775 34Q799 47 816 65Q833 83 868 90L870 88Q865 76 859 70Q856 67 842 58Q832 52 781 2Q739 -39 720 -39Q722 -31 732 -21Q741 -13 743 -7H740Q728 -8 714 -17Q700 -26 688 -34L685 -33Q679 -37 673 -42Q664 -41 650 -4Q643 27 632 39Q623 38 614 37Q608 37 605 39Q602 23 595 23Q586 23 580 32Q583 20 586 8Q586 2 584 -1Q582 -7 578 -13Q574 -20 574 -27Q574 -36 583 -56Q580 -64 572 -70Q558 -24 546 -7Q544 -13 544 -17Q547 -37 550 -57Q550 -62 549 -64H547Q536 -64 518 -29Q504 4 504 20Q504 38 517 44Q519 42 526 30Q531 21 538 21H539Q540 25 540 35Q540 59 531 77Q520 99 503 99H501Q487 92 471 78Q449 63 438 17H440Q444 18 447 18L449 17Q446 6 431 -7Q418 -18 415 -26Q420 -25 430 -18Q441 -10 449 -10H453Q471 -13 492 -73Q495 -82 514 -151Q512 -156 500 -156Q487 -156 486 -161Q451 -123 420 -62Q403 -27 370 53Q365 54 355 54Q336 53 317 52Q307 52 302 53Q294 36 280 25Q277 -4 263 -26Q249 -47 238 -63Q225 -49 217 -36Q212 -27 207 -3Q200 29 189 39Q172 56 142 56Q110 56 100 33Q54 23 41 6Q33 -5 33 -20Q33 -46 52 -69V-75Q53 -88 59 -96Q65 -105 71 -112Q75 -118 80 -131Q87 -150 95 -156L96 -153Q94 -138 91 -123Q91 -113 97 -109Q103 -110 113 -116Q124 -123 135 -123Q133 -119 124 -112Q115 -105 113 -99Q114 -94 121 -89Q153 -109 190 -139Q226 -169 255 -192Q251 -197 245 -197Q229 -192 218 -180Q211 -175 179 -156Q248 -213 317 -270L320 -269L319 -267Q309 -255 296 -244Q284 -233 277 -216Q303 -238 311 -238V-236Q311 -232 303 -224Q291 -211 291 -202Q291 -197 292 -195L295 -193Q299 -195 303 -198H304Q300 -188 295 -178Q301 -165 305 -150Q309 -134 325 -131Q260 -82 254 -77Q270 -66 286 -55Q306 -66 326 -92Q335 -104 344 -114Q352 -125 364 -129V-126Q363 -116 356 -107Q349 -98 342 -89Q326 -66 326 -56Q326 -50 329 -46Q359 -68 388 -112Q407 -141 434 -195Q430 -199 426 -199Q421 -199 414 -191Q407 -184 404 -183Q399 -188 399 -196Q399 -203 409 -226Q418 -246 426 -267Q424 -275 422 -283H419Q409 -283 388 -242Q354 -250 344 -272Q327 -274 315 -293Q304 -311 304 -333Q304 -354 314 -368Q310 -383 310 -397Q310 -423 330 -450Q348 -477 374 -491Q373 -486 364 -474Q352 -458 352 -447Q352 -442 355 -436Q362 -438 366 -449Q371 -461 376 -462V-445Q379 -444 381 -444Q388 -444 404 -450Q402 -439 390 -434Q377 -429 373 -416V-414Q375 -412 377 -410Q414 -423 456 -448Q437 -454 411 -452Q428 -470 450 -480Q449 -541 416 -577Q416 -610 423 -643Q422 -653 406 -653Q400 -653 397 -652Q400 -661 411 -668Q422 -675 435 -682Q448 -690 464 -701Q480 -712 497 -713Q509 -713 521 -704Q547 -675 563 -637Q568 -622 568 -612Q568 -596 558 -566Q546 -530 546 -508Q554 -511 565 -522Q579 -536 593 -544Q586 -526 584 -502L586 -501Q591 -503 595 -505H597Q593 -501 593 -494Q594 -478 606 -475Q604 -494 597 -504Q601 -509 608 -523Q616 -539 622 -545Q626 -541 627 -526Q628 -506 637 -504Q651 -524 658 -562Q666 -601 673 -633Q681 -665 681 -667Q681 -683 665 -690Q658 -687 654 -673Q652 -667 649 -648Q645 -623 640 -599Q640 -589 639 -581Q638 -573 630 -570Q629 -575 629 -585Q633 -628 642 -674Q635 -682 626 -682Q609 -682 591 -659Q594 -680 611 -699Q628 -718 645 -738Q661 -758 677 -778Q694 -797 715 -806H717Q721 -806 733 -803Q745 -780 762 -764Q780 -748 797 -729Q796 -726 796 -720Q799 -702 801 -685Q801 -682 800 -680Q799 -675 789 -668Q782 -662 779 -659Q769 -645 747 -588Q738 -572 734 -548Q734 -541 735 -537Q743 -535 748 -535Q773 -536 798 -546Q822 -557 850 -566Q861 -568 872 -571Q884 -573 890 -584Q878 -590 865 -590Q849 -590 823 -583Q800 -578 766 -565Q766 -577 793 -589Q810 -592 826 -596Q841 -600 852 -607Q863 -614 874 -620Q876 -630 891 -643Q892 -669 905 -688Q904 -673 902 -658Q902 -622 927 -622Q935 -622 946 -626V-625Q946 -622 938 -615Q924 -603 924 -593V-592Q927 -588 944 -587Q956 -586 959 -584H957Q948 -584 939 -576Q930 -568 930 -560Q930 -551 944 -551H945Q931 -536 931 -500Q931 -484 934 -471ZM927 -466Q915 -461 892 -462Q865 -463 848 -455Q828 -453 781 -426Q754 -410 748 -410Q733 -407 709 -389Q726 -393 738 -394Q748 -396 763 -403Q786 -414 798 -413Q827 -418 835 -420Q856 -425 866 -434Q869 -433 874 -433Q885 -434 891 -440Q896 -447 903 -451V-440Q908 -442 917 -454Q923 -463 927 -466ZM725 -282Q739 -286 745 -286Q766 -286 779 -277Q792 -291 807 -313H796Q777 -313 761 -309Q765 -319 792 -325Q819 -331 825 -340Q809 -342 801 -342Q762 -342 747 -330Q731 -318 704 -299Q665 -274 662 -264Q661 -256 670 -247Q683 -253 704 -276Q725 -299 740 -303L753 -307Q743 -300 725 -282ZM692 -241Q689 -237 681 -229H670Q654 -229 648 -233Q641 -238 639 -252Q627 -256 625 -258Q619 -262 618 -272V-274Q620 -285 621 -296V-299Q615 -320 611 -342Q611 -348 614 -356Q630 -374 639 -383Q629 -389 628 -390Q623 -395 620 -406Q616 -420 612 -424Q606 -415 603 -403Q602 -383 600 -363Q548 -349 495 -316Q513 -307 521 -287Q529 -289 538 -300Q545 -309 554 -310H555Q568 -306 581 -302H582Q590 -306 597 -313Q596 -310 596 -304Q596 -293 608 -274Q622 -251 623 -235L625 -180Q615 -180 606 -167Q605 -165 593 -143Q585 -115 577 -87Q628 -98 656 -134Q657 -140 638 -141Q620 -143 620 -148Q625 -167 629 -181Q634 -196 652 -197Q659 -197 663 -196Q677 -190 690 -180Q693 -161 697 -144Q701 -126 714 -117Q715 -123 715 -134Q715 -157 704 -185Q692 -216 692 -237ZM248 -72Q244 -68 239 -64Q259 -44 274 -38Q272 -44 248 -72Z"/>
</svg>