<svg xmlns="http://www.w3.org/2000/svg" viewBox="0 -800 1024 1024">
	<path fill="#000000" d="M94 -464H98Q105 -463 112 -463Q100 -455 90 -454Q92 -459 94 -464ZM699 -62V-65H702Q707 -64 712 -64Q713 -61 713 -55Q713 -48 708 -47Q699 -52 699 -62ZM309 5H294Q287 5 285 2Q288 -5 298 -5Q305 -5 311 -1Q310 2 309 5ZM854 -194H853Q851 -195 848 -197H847Q848 -207 848 -217V-223H859Q861 -219 861 -216Q858 -205 854 -194ZM582 -328Q580 -333 580 -343Q582 -360 583 -378Q583 -389 577 -394Q556 -388 556 -360Q556 -333 576 -325Q577 -326 582 -328ZM665 -353H679Q694 -433 717 -488Q714 -488 710 -489Q697 -489 685 -482Q673 -475 669 -463Q665 -452 665 -434Q666 -417 666 -400Q666 -388 665 -383Q661 -378 661 -371Q661 -365 665 -353ZM148 -316H146Q147 -319 153 -321Q159 -323 160 -325Q153 -348 111 -355Q117 -362 134 -364Q145 -366 148 -368Q147 -379 142 -386Q159 -398 186 -398Q226 -398 266 -380Q269 -374 272 -369Q275 -364 281 -362L280 -358Q284 -347 290 -340Q286 -317 282 -293Q278 -269 267 -253Q253 -251 249 -251Q214 -253 196 -273Q177 -294 160 -314Q154 -315 148 -316ZM349 -145H345Q325 -144 306 -134Q286 -124 266 -113Q236 -99 209 -83Q183 -67 176 -32Q176 -30 179 -30Q182 -30 182 -27Q191 -29 196 -36Q201 -42 205 -49Q211 -66 227 -68Q232 -68 235 -67Q228 -57 219 -29Q208 3 199 14Q189 25 177 25Q154 21 124 10Q109 7 95 3Q82 0 74 -10Q73 -13 73 -19Q76 -34 78 -49Q73 -65 68 -82V-85Q68 -97 78 -127Q81 -136 84 -146Q87 -156 96 -162Q99 -148 109 -136Q156 -156 233 -192Q335 -240 382 -259Q382 -255 374 -248Q363 -238 362 -230H363Q368 -234 379 -238H380Q375 -231 370 -224Q364 -218 362 -208Q365 -205 368 -205Q373 -205 380 -212V-211Q380 -208 374 -203Q367 -197 367 -192V-191Q369 -180 385 -179Q380 -170 380 -161Q380 -151 388 -142Q330 -122 253 -67V-72Q253 -86 272 -99Q273 -100 302 -116Q332 -128 349 -145ZM327 -477V-479Q326 -487 320 -487Q313 -487 294 -463Q273 -463 248 -479Q214 -501 204 -505Q201 -502 198 -500Q201 -488 219 -475Q234 -464 238 -455Q232 -448 228 -448Q222 -448 212 -458Q205 -465 201 -466Q198 -466 195 -467Q182 -464 167 -458Q168 -464 175 -467Q184 -471 186 -473Q181 -482 167 -482Q156 -482 126 -470Q130 -475 140 -482Q154 -491 157 -500Q153 -510 144 -516Q136 -523 128 -529Q129 -532 129 -537Q128 -548 116 -551Q104 -555 93 -557Q102 -566 109 -578Q106 -585 106 -596Q106 -623 118 -647Q116 -657 109 -670Q136 -681 163 -684Q167 -684 177 -682Q188 -680 210 -666Q242 -646 258 -646Q260 -647 262 -652Q265 -659 270 -659H272Q268 -652 268 -645Q268 -635 275 -630Q282 -625 294 -625Q300 -632 305 -640Q309 -649 318 -653Q308 -639 308 -626Q309 -611 318 -598Q326 -584 334 -569Q342 -543 349 -517Q344 -512 344 -500Q344 -490 348 -484Q347 -462 326 -443Q305 -424 280 -424Q277 -424 273 -425Q255 -432 249 -443V-445Q249 -453 257 -453Q271 -449 285 -446Q294 -446 310 -456Q327 -467 327 -477ZM916 -371H919Q919 -368 915 -364Q911 -359 910 -355Q913 -346 928 -346Q904 -327 904 -294Q904 -289 906 -277Q888 -274 887 -260Q885 -261 880 -261Q866 -259 852 -258Q849 -258 841 -260Q844 -270 853 -273Q862 -276 869 -281Q866 -288 858 -288Q852 -287 845 -286Q743 -286 708 -257Q746 -260 783 -263Q793 -264 803 -265Q815 -265 818 -257Q818 -252 811 -252Q806 -252 801 -253Q730 -243 696 -228Q722 -186 750 -145Q777 -104 812 -70Q814 -71 815 -77Q816 -82 820 -83Q820 -78 819 -73Q819 -66 823 -65Q825 -78 826 -93Q827 -108 835 -116Q835 -85 838 -58Q842 -59 843 -63Q844 -67 844 -70Q845 -78 845 -86Q844 -113 843 -140Q843 -166 848 -181Q848 -174 857 -83Q858 -71 859 -60Q859 -49 866 -41Q868 -62 868 -115Q868 -123 867 -132Q867 -143 876 -145Q875 -133 875 -107Q875 -16 898 26Q887 45 872 93Q857 97 843 97Q829 97 814 96Q805 96 794 99Q784 89 768 85Q740 30 714 -32Q726 -26 741 -3Q755 18 767 25Q736 -83 656 -193Q655 -191 655 -186Q655 -176 673 -145Q696 -102 700 -76Q686 -85 678 -101Q670 -117 663 -133Q643 -179 636 -199Q604 -132 576 -64Q560 -31 545 4Q530 38 523 77Q511 74 498 71Q496 71 488 73Q464 39 431 37V36Q431 32 439 32Q447 32 447 28Q438 14 397 14H370Q383 7 417 7H431L432 6Q429 2 425 -2Q388 2 350 5Q335 5 324 1Q353 -8 385 -13Q417 -18 441 -38Q465 -60 498 -120Q519 -159 534 -178Q522 -176 501 -164Q480 -152 468 -152Q458 -152 448 -159Q418 -186 411 -228V-231Q411 -246 422 -269Q434 -293 444 -297H446Q457 -295 467 -294Q466 -300 457 -308Q450 -314 450 -318V-320Q455 -323 459 -323Q464 -323 471 -314Q479 -304 485 -304Q462 -374 438 -392Q424 -402 406 -402Q395 -402 389 -397Q392 -383 404 -379Q418 -375 429 -368Q440 -354 445 -335L441 -334Q435 -335 431 -342Q427 -349 423 -353Q407 -364 386 -366Q366 -368 362 -389Q361 -394 361 -406Q361 -434 367 -449Q371 -460 380 -467Q388 -475 395 -484Q395 -487 394 -491Q394 -501 401 -524Q406 -507 411 -491Q414 -504 413 -519Q413 -534 420 -541Q425 -508 443 -498Q453 -501 463 -505Q475 -486 490 -475Q531 -498 574 -520Q569 -588 567 -602Q561 -647 544 -668Q547 -675 550 -683Q546 -688 539 -688Q526 -684 512 -680H511Q558 -771 600 -793L603 -794Q607 -794 616 -788Q627 -781 632 -781L636 -782Q657 -739 693 -730Q696 -718 704 -711Q711 -704 718 -695Q711 -687 706 -676Q701 -666 688 -664Q690 -676 690 -682Q690 -707 672 -713Q667 -711 663 -707V-703Q667 -686 672 -670Q672 -659 665 -640Q658 -621 658 -613Q658 -606 662 -599Q673 -600 675 -624Q677 -648 687 -649H690Q684 -617 680 -588Q680 -582 682 -574Q703 -582 721 -598Q738 -615 756 -631Q764 -629 767 -629Q784 -630 797 -643Q809 -655 823 -664Q823 -662 816 -652Q805 -636 805 -628V-625Q806 -617 810 -617Q820 -621 832 -629Q824 -615 824 -608Q824 -598 841 -587Q856 -576 861 -576Q867 -576 871 -579Q863 -569 863 -553Q863 -541 872 -535Q865 -522 865 -504Q865 -488 868 -473Q857 -473 847 -463Q836 -452 825 -452H824Q824 -456 821 -458Q822 -466 829 -475Q835 -482 836 -488L835 -491Q833 -492 828 -492Q813 -492 800 -475Q793 -465 780 -440Q765 -407 765 -397Q765 -390 768 -386Q775 -401 785 -428Q794 -452 807 -454Q812 -454 818 -448Q802 -431 797 -423Q787 -407 786 -388Q810 -397 837 -401H844Q854 -397 863 -394H866Q874 -394 892 -402Q907 -409 916 -409Q922 -409 930 -404Q918 -402 908 -396Q896 -388 896 -379Q896 -373 901 -368Q909 -369 916 -371Z"/>
</svg>