<svg xmlns="http://www.w3.org/2000/svg" viewBox="0 -800 1024 1024">
	<path fill="#000000" d="M113 18V24H103Q86 24 85 15Q88 14 96 14Q108 14 113 18ZM415 -384Q354 -368 338 -346Q336 -322 336 -313Q336 -302 338 -274Q352 -281 374 -294Q395 -306 414 -312L416 -310Q412 -305 408 -300Q413 -295 417 -292V-288Q418 -275 424 -265Q431 -255 437 -246Q433 -242 433 -238Q435 -231 436 -224Q436 -220 435 -218Q436 -214 442 -211Q448 -208 450 -205Q421 -189 393 -175Q366 -161 341 -137Q341 -97 336 -60H334Q328 -60 328 -68Q329 -74 329 -80V-82Q326 -102 317 -109Q311 -103 311 -93Q312 -83 313 -74V-64Q312 -36 311 -8Q311 25 323 41Q331 35 333 8Q335 -12 338 -18Q349 0 349 34Q349 61 342 87Q318 90 297 104Q275 97 258 86Q245 73 234 59Q222 45 197 44H193Q196 41 205 41H221Q198 26 128 20Q155 16 186 16Q218 16 240 6Q243 -40 245 -87Q223 -76 214 -66Q201 -52 200 -31L175 -7Q167 -15 146 -19Q123 -23 116 -31Q110 -38 108 -57Q106 -80 98 -88Q105 -127 113 -149Q124 -181 143 -195Q142 -192 142 -187Q142 -180 144 -174Q174 -189 201 -204Q229 -219 261 -229Q258 -270 256 -312Q234 -311 216 -298Q198 -286 181 -275Q166 -269 152 -258Q143 -247 137 -235Q130 -223 117 -218Q102 -219 92 -228Q82 -238 72 -244Q54 -249 40 -258Q29 -269 29 -288Q31 -307 32 -327V-336Q31 -356 29 -376Q30 -390 41 -406Q43 -409 63 -433Q78 -452 90 -469Q102 -485 125 -492V-491Q120 -482 108 -468Q95 -451 92 -439H93Q98 -439 107 -449Q116 -459 119 -459V-442Q187 -468 255 -495Q253 -505 253 -530V-540Q253 -576 249 -589Q242 -612 221 -616Q235 -638 248 -660Q269 -687 300 -697Q304 -698 311 -698Q333 -698 346 -681Q349 -677 365 -645Q382 -615 382 -598Q382 -586 371 -567Q361 -549 360 -538Q378 -553 403 -556Q401 -550 394 -541Q403 -530 412 -519V-508Q412 -498 414 -476Q414 -472 415 -384ZM932 -249Q927 -237 922 -226Q918 -229 918 -238Q918 -253 926 -253Q929 -253 932 -249ZM475 -23Q471 -14 458 -13Q452 -13 449 -17Q451 -25 466 -25Q473 -25 475 -23ZM602 -281Q601 -299 596 -309Q586 -302 576 -295Q576 -277 584 -268Q591 -281 602 -281ZM719 -228Q716 -232 713 -237Q692 -232 676 -223Q680 -208 685 -195Q708 -211 719 -228ZM594 -381Q591 -385 591 -397Q590 -414 587 -418Q580 -408 571 -399Q562 -390 561 -379Q561 -371 568 -363Q581 -372 594 -381ZM691 -312Q691 -320 697 -339Q702 -355 702 -362Q702 -365 701 -367Q683 -366 673 -356Q662 -345 662 -329Q662 -320 667 -307Q682 -313 684 -313Q689 -313 691 -312ZM734 -550H729Q706 -532 682 -514Q658 -495 658 -452Q658 -434 661 -416Q686 -429 710 -442L709 -438Q711 -436 717 -435Q725 -497 726 -504Q733 -524 735 -543Q735 -546 734 -550ZM489 -209Q489 -246 455 -290Q471 -289 481 -271Q492 -253 501 -241V-243Q500 -279 482 -304Q465 -329 446 -352H442Q441 -349 441 -345Q441 -337 448 -323Q454 -311 454 -307V-303Q447 -302 438 -313Q429 -324 427 -335Q423 -356 423 -396Q423 -430 421 -444Q436 -462 441 -471Q451 -487 455 -505Q458 -491 463 -482Q468 -482 472 -483Q486 -483 502 -474Q552 -510 584 -541Q584 -635 556 -676Q559 -685 561 -694Q555 -705 534 -711Q553 -741 570 -756Q593 -778 623 -783Q626 -778 648 -761Q664 -748 664 -734V-732H661Q655 -732 648 -741Q640 -751 634 -752Q633 -749 633 -743Q633 -734 642 -717Q650 -703 651 -694V-688Q647 -662 643 -637Q643 -625 649 -619Q655 -651 671 -697Q668 -704 664 -712Q664 -716 666 -718H669Q677 -717 680 -711Q683 -705 688 -700Q686 -686 678 -666Q666 -635 666 -618Q667 -613 667 -609Q683 -627 701 -652Q719 -677 752 -679H759Q771 -679 790 -664Q794 -670 797 -677Q800 -684 808 -685Q802 -677 802 -671Q802 -659 815 -650Q827 -642 842 -642H844Q851 -645 858 -648L861 -646Q859 -636 856 -627Q856 -625 858 -619Q866 -620 878 -632Q894 -647 908 -648Q897 -637 887 -627Q876 -617 871 -600L874 -598Q879 -600 884 -603H885Q880 -599 876 -586Q876 -584 880 -581Q884 -577 885 -574Q878 -566 878 -551Q878 -537 885 -514Q856 -504 841 -492Q836 -487 832 -480Q828 -474 821 -472Q818 -478 818 -483Q818 -494 832 -506Q840 -513 855 -522Q854 -531 847 -537Q840 -542 832 -542Q823 -542 817 -537Q810 -531 810 -521Q810 -518 812 -510Q811 -506 804 -503Q799 -501 797 -499Q781 -482 777 -454Q773 -426 769 -397Q755 -343 750 -302V-294Q758 -299 761 -309Q763 -320 766 -330Q775 -356 779 -372Q787 -413 788 -416Q795 -438 814 -444Q782 -364 773 -268Q776 -269 783 -269Q792 -269 806 -263Q820 -257 828 -257Q830 -257 838 -259H840Q838 -253 836 -248L837 -244Q838 -241 841 -240Q846 -238 847 -237Q840 -231 840 -224Q842 -211 844 -199Q841 -187 837 -175Q837 -171 840 -168Q836 -163 832 -157Q828 -151 824 -151H823Q820 -152 820 -157Q823 -170 826 -183Q826 -187 823 -190Q814 -187 800 -169Q791 -158 784 -152Q773 -144 760 -137Q748 -130 743 -117Q746 -116 751 -116Q762 -116 780 -130Q799 -145 809 -145V-143Q808 -133 800 -128Q791 -123 784 -118Q768 -107 752 -97Q769 -79 794 -57Q818 -35 849 -30Q853 -29 857 -29Q868 -29 878 -37Q881 -37 882 -33Q884 -29 885 -29L888 -30Q892 -45 892 -67Q892 -88 891 -109Q891 -140 900 -157Q900 -97 906 -42Q912 -78 913 -115Q914 -121 914 -128Q912 -154 910 -180Q910 -201 919 -214Q921 -189 921 -133V-117Q921 -60 925 -20Q927 -62 934 -108Q938 -97 938 -79Q938 -58 937 -37Q937 -23 940 -11Q944 -20 945 -31Q947 -42 955 -46Q958 -37 958 -29Q957 -12 955 5V11Q956 24 968 50Q978 73 978 84V87Q975 110 957 126Q950 122 942 118Q933 118 922 126Q915 115 896 113Q871 89 835 68Q824 62 823 61Q816 56 816 50H819Q831 50 854 63Q878 77 894 77H896Q889 63 874 52Q843 31 800 4Q739 -32 718 -37Q732 -19 753 -4Q774 11 794 26Q808 38 809 45Q809 48 807 52Q742 11 687 -40Q671 -35 652 -19Q632 -2 627 13H625Q619 13 607 22Q598 29 594 29L592 25Q596 20 599 14Q578 -21 548 -21Q542 -21 538 -20Q558 -27 560 -28Q554 -33 542 -33Q516 -29 489 -25H487Q499 -36 515 -37Q530 -38 548 -44Q547 -49 539 -49Q532 -49 526 -47Q451 -41 390 -23Q415 -38 445 -44Q545 -78 624 -135Q615 -162 606 -190Q575 -180 562 -159H558Q536 -163 520 -180Q508 -192 488 -196Q489 -200 489 -209Z"/>
</svg>