<svg xmlns="http://www.w3.org/2000/svg" viewBox="0 -800 1024 1024">
	<path fill="#000000" d="M543 -298Q530 -295 524 -280Q530 -283 535 -287Q541 -290 543 -298ZM947 -112Q945 -99 937 -90Q934 -94 934 -105Q934 -113 937 -116Q944 -115 947 -112ZM840 -343H835Q843 -358 857 -358Q862 -354 863 -348Q851 -343 840 -343ZM532 -73H543Q545 -82 546 -92L545 -95Q535 -87 530 -83Q521 -75 520 -70Q522 -73 532 -73ZM472 59Q459 57 453 55Q443 52 441 45Q444 41 450 41Q467 44 472 59ZM614 -91Q600 -111 585 -129Q583 -119 583 -112Q584 -107 584 -103Q584 -87 579 -81Q584 -83 614 -91ZM428 -76H426Q427 -70 432 -68Q436 -65 441 -63Q482 -89 514 -124L515 -126L512 -127Q485 -115 466 -85Q447 -80 428 -76ZM717 -333V-343Q713 -344 705 -344Q686 -344 681 -336Q696 -323 705 -303Q713 -283 723 -264Q727 -268 739 -270Q752 -272 755 -274Q747 -282 735 -305Q725 -325 717 -333ZM586 -241V-231Q586 -226 588 -225Q651 -243 657 -245Q649 -264 641 -283Q644 -287 647 -289Q641 -302 638 -315V-316Q642 -322 645 -328V-329Q622 -323 594 -318Q567 -314 552 -302Q567 -311 583 -311Q605 -311 621 -297Q638 -282 638 -259Q631 -249 615 -247Q600 -245 586 -241ZM281 -166Q284 -189 286 -213Q286 -220 285 -223Q260 -217 244 -205Q235 -199 235 -180Q235 -165 241 -145Q261 -155 281 -166ZM694 -163Q689 -175 684 -187Q656 -185 636 -175Q616 -165 594 -157Q634 -130 653 -121Q675 -140 694 -163ZM296 -336V-347Q299 -377 301 -407Q301 -413 299 -423Q263 -393 250 -379Q222 -348 222 -320Q222 -310 225 -301Q235 -305 256 -317Q280 -331 296 -336ZM370 -185V-182L368 -179L369 -175L370 -178Q374 -195 389 -206Q392 -208 419 -223Q420 -221 420 -214Q454 -212 476 -212Q519 -212 543 -220Q541 -225 536 -225Q534 -225 524 -220Q519 -223 512 -229Q504 -235 496 -236Q490 -236 485 -232Q485 -239 480 -239Q472 -236 463 -234L461 -235Q468 -238 475 -242Q456 -240 446 -236Q448 -241 457 -244Q464 -246 467 -250Q452 -256 441 -287Q433 -308 426 -316L429 -317Q435 -315 441 -313V-314Q441 -321 432 -330Q426 -336 426 -340V-342H427Q433 -340 438 -338L441 -340Q440 -347 427 -361Q414 -375 413 -382Q440 -362 453 -358Q467 -367 498 -367H518Q555 -367 567 -380Q561 -384 552 -385Q552 -391 546 -397Q540 -404 540 -410V-412H530Q525 -412 524 -414Q540 -428 556 -442Q570 -444 571 -449L570 -452Q560 -454 558 -454Q541 -454 523 -433Q506 -413 490 -412Q470 -425 452 -440Q422 -405 412 -388Q393 -356 388 -319Q382 -322 377 -326Q379 -341 381 -357Q381 -373 372 -377Q353 -347 347 -287Q344 -261 342 -179Q342 -168 341 -158Q341 -137 348 -127Q356 -144 360 -204Q364 -257 379 -273Q381 -263 381 -258Q381 -246 376 -224Q370 -198 370 -185ZM980 67V69Q964 74 953 83Q941 93 928 102Q877 89 859 81Q825 66 811 38Q839 49 863 62Q872 66 880 69Q884 69 887 65Q872 50 838 26Q829 19 815 1Q795 -23 782 -32Q780 -29 780 -24Q785 -8 789 4Q789 9 786 12Q748 -24 734 -69H731Q719 -69 719 -57Q719 -52 720 -50Q717 -48 712 -39Q705 -28 699 -25Q671 -31 662 -40Q653 -39 633 -39H611Q563 -39 548 -25Q550 -24 554 -24Q560 -24 578 -30Q596 -36 606 -36Q620 -36 628 -25Q638 -30 640 -32L641 -30Q641 -28 637 -23Q632 -17 632 -13L635 -12H638Q636 -10 636 -3V8Q636 15 634 17H633Q626 17 619 24Q612 31 604 31Q602 29 602 27Q604 22 605 16L604 12Q588 24 580 43Q569 58 566 75Q567 78 567 80Q575 79 583 64Q592 47 601 45Q583 98 570 122Q549 116 533 102Q516 89 502 80Q510 82 517 84Q507 76 478 57H481Q491 58 500 64Q509 71 518 75Q517 71 509 66Q502 62 500 59H503Q515 62 526 65H529Q542 61 552 45Q561 28 567 15H561Q523 15 517 41H513Q501 41 490 34Q488 29 488 20Q488 8 494 -1Q499 -10 505 -19Q497 -14 482 -11Q475 -11 472 -19Q466 -8 459 2Q453 4 452 4Q446 4 439 -3Q432 -10 427 -10H425V-16Q425 -22 417 -38Q420 -52 423 -66Q423 -69 422 -73Q406 -83 394 -97Q382 -112 369 -124V-136Q369 -152 376 -154L369 -169Q364 -133 364 -79Q364 -33 367 12Q360 19 358 32V35Q342 42 322 45Q312 45 306 38Q303 38 303 42Q303 45 300 45H299Q297 27 281 2Q268 -17 265 -31Q231 -25 228 11H222Q197 10 185 -4Q173 -19 163 -35H155Q152 -35 148 -37V-38Q151 -47 155 -55V-59Q151 -79 143 -100Q127 -157 124 -184Q131 -180 136 -166Q142 -151 148 -148Q148 -181 143 -221Q137 -271 127 -289Q121 -302 107 -305Q102 -305 98 -298Q98 -285 108 -264Q118 -243 118 -235Q119 -231 119 -228Q119 -217 112 -216Q107 -220 104 -230Q96 -243 72 -260Q50 -275 44 -286Q35 -300 26 -317Q18 -334 17 -356Q17 -365 20 -377Q21 -381 29 -391Q37 -401 37 -408V-409Q37 -415 30 -428Q23 -441 23 -449V-451H24Q28 -451 34 -440Q40 -430 44 -430L47 -431Q43 -446 36 -464Q29 -482 28 -505Q54 -461 66 -448L67 -451Q67 -456 62 -463Q56 -472 56 -477Q56 -478 58 -484Q69 -472 77 -462Q86 -451 102 -449Q113 -450 123 -451Q135 -451 139 -442Q142 -443 146 -443Q153 -443 162 -434Q173 -423 182 -423Q186 -423 188 -424Q201 -444 240 -477Q277 -508 290 -532Q266 -522 227 -489Q199 -465 184 -457Q184 -470 201 -487Q208 -496 235 -520Q254 -537 274 -556Q294 -576 320 -587H321Q334 -589 346 -592Q351 -592 357 -589Q361 -592 364 -597Q367 -602 374 -602H377Q377 -592 380 -586H383Q389 -589 394 -592H395Q394 -591 394 -586V-578Q420 -566 428 -535Q436 -505 447 -478Q449 -482 449 -485Q447 -500 444 -515Q444 -523 446 -527Q447 -531 455 -536Q460 -539 463 -544Q469 -541 479 -541Q500 -544 521 -547H526Q517 -551 506 -558Q489 -569 479 -572V-575Q479 -577 481 -583Q472 -590 457 -590Q447 -590 443 -586V-588Q443 -593 449 -598Q456 -604 456 -607V-610Q456 -621 444 -628Q432 -635 416 -635Q404 -635 395 -631Q403 -641 426 -641Q429 -646 432 -652Q426 -667 410 -674Q411 -678 417 -678Q424 -677 431 -676H434Q440 -684 443 -706Q444 -708 448 -711Q454 -715 454 -720L453 -724Q462 -719 467 -712Q479 -716 497 -716Q530 -716 540 -694Q542 -688 542 -682Q542 -676 548 -671H549Q551 -671 556 -676Q562 -682 565 -682Q567 -682 570 -679Q558 -675 558 -662Q559 -646 569 -627Q579 -608 583 -595Q578 -580 573 -555Q595 -562 605 -584Q616 -606 626 -630Q647 -674 647 -675Q656 -699 657 -724H651Q638 -723 631 -717Q624 -710 616 -704Q619 -719 629 -727Q638 -735 647 -743Q644 -745 640 -748Q686 -810 723 -817Q727 -818 735 -818Q765 -816 780 -792Q795 -767 807 -742Q802 -737 796 -737Q784 -740 771 -743Q767 -743 762 -740Q765 -731 765 -724Q765 -713 757 -699Q748 -683 748 -674Q748 -670 749 -667Q788 -686 801 -718H803Q812 -718 819 -709Q818 -702 811 -690Q805 -679 804 -670Q768 -653 747 -637Q720 -616 708 -589H716Q752 -589 771 -605V-602Q771 -590 793 -590Q801 -590 819 -592Q798 -584 794 -574Q798 -560 801 -547Q792 -538 792 -527Q792 -520 794 -517Q775 -512 752 -512V-516Q752 -524 758 -527Q763 -529 767 -532Q763 -541 750 -541H744Q676 -536 663 -512Q668 -509 674 -509Q689 -511 703 -513Q714 -513 718 -503Q698 -496 676 -492Q653 -488 647 -467Q653 -472 665 -472Q681 -470 697 -469Q701 -469 703 -470L705 -468Q704 -464 702 -461V-460Q704 -458 708 -458Q713 -459 718 -461Q721 -461 724 -457Q696 -446 694 -421L682 -418Q677 -411 662 -406Q641 -399 638 -389Q719 -400 750 -418Q757 -416 764 -414L768 -415Q767 -412 767 -407Q767 -406 774 -382Q770 -379 767 -374L768 -370Q776 -374 792 -379L793 -376Q792 -370 791 -365L792 -361Q802 -364 814 -370Q833 -380 842 -380H847Q842 -376 825 -366Q807 -355 805 -347Q805 -340 823 -340Q822 -337 816 -334Q812 -332 810 -329Q813 -323 813 -318Q813 -311 807 -299Q829 -301 850 -304Q864 -311 877 -315Q880 -315 884 -313L885 -310Q883 -305 881 -300V-299Q884 -294 891 -294Q890 -292 890 -288Q890 -281 898 -271Q905 -263 906 -257Q900 -254 893 -243Q886 -232 881 -229Q880 -223 878 -218V-216Q860 -224 854 -224Q849 -224 845 -223V-235Q860 -239 868 -247Q848 -252 824 -252Q770 -252 750 -235Q753 -230 766 -230Q782 -231 798 -232Q814 -232 817 -225Q804 -221 779 -219Q749 -217 740 -213Q742 -199 752 -196Q756 -198 760 -204Q764 -212 768 -213Q786 -216 803 -219Q807 -219 817 -217Q819 -212 837 -181H854V-175Q855 -154 856 -133V-127Q849 -126 844 -120Q843 -118 838 -109Q828 -110 818 -111Q807 -111 804 -104Q808 -89 832 -63Q846 -46 853 -41Q867 -29 884 -28Q885 -32 885 -42V-64Q885 -76 887 -81Q893 -62 900 -44Q899 -70 895 -105Q888 -169 888 -196Q899 -195 899 -175V-161Q899 -152 915 -34Q920 -43 920 -57Q917 -89 913 -122Q913 -134 916 -145Q926 -83 936 -22Q938 -34 938 -41Q938 -56 937 -72V-79Q945 -66 946 -50Q947 -34 949 -19Q951 -7 964 17Q980 47 980 67Z"/>
</svg>