<svg xmlns="http://www.w3.org/2000/svg" viewBox="0 -800 1024 1024">
	<path fill="#000000" d="M102 -35V-42H107Q116 -40 125 -38Q125 -32 117 -32Q111 -32 102 -35ZM920 -497H922L924 -494Q922 -485 906 -474Q904 -478 904 -481Q905 -496 920 -497ZM713 -231V-242Q673 -240 612 -221Q614 -217 614 -215Q614 -213 612 -209Q628 -210 668 -221Q694 -228 713 -231ZM710 -159V-162Q711 -167 711 -172Q711 -175 709 -176Q679 -175 654 -167Q629 -160 603 -155V-135Q700 -156 710 -159ZM703 -317V-320Q642 -314 603 -294Q608 -281 618 -275Q658 -285 706 -302Q703 -314 703 -317ZM731 -620V-621Q710 -618 656 -597Q630 -588 608 -577Q586 -567 585 -541Q585 -530 589 -518Q613 -527 667 -540Q683 -541 695 -549Q704 -558 711 -576Q718 -593 724 -605Q728 -612 731 -620ZM235 3V1Q234 -10 226 -11Q216 -13 210 -13Q160 -25 141 -36Q146 -36 151 -37Q165 -37 187 -32Q213 -26 224 -26H230Q226 -38 213 -41Q200 -43 186 -47Q190 -52 198 -52Q207 -51 215 -50Q218 -50 220 -51Q239 -58 240 -81Q242 -104 244 -128Q227 -121 208 -95Q186 -65 167 -59Q156 -64 141 -68Q132 -81 117 -92Q101 -103 99 -122Q99 -131 105 -143Q99 -154 99 -166Q100 -184 113 -199Q126 -213 138 -228Q144 -237 149 -246Q154 -254 163 -255H165Q161 -241 156 -227Q199 -254 241 -281Q261 -296 263 -329Q263 -337 260 -345Q244 -342 229 -334Q215 -327 201 -321Q180 -315 167 -308Q158 -300 147 -289Q135 -278 118 -276Q102 -277 84 -290Q77 -302 70 -314Q66 -320 45 -333Q28 -344 26 -356V-364Q30 -395 42 -414Q42 -421 38 -431Q40 -454 51 -469Q63 -484 75 -501Q97 -537 112 -543Q108 -533 101 -519Q93 -506 92 -492Q92 -481 99 -474Q103 -476 106 -488Q110 -503 118 -504L120 -502Q118 -494 115 -486Q115 -484 117 -480H118Q130 -483 141 -487Q147 -487 150 -482Q147 -478 134 -474Q117 -469 117 -460V-458Q118 -451 131 -451Q148 -451 180 -464Q194 -470 207 -477Q219 -483 234 -488Q248 -493 260 -504Q251 -510 243 -510Q233 -510 213 -500Q195 -491 186 -491H182Q193 -511 217 -516Q240 -522 263 -530Q261 -551 249 -561Q236 -571 224 -581Q228 -603 231 -626Q231 -637 229 -642Q233 -646 239 -649Q244 -653 247 -659Q245 -665 234 -667Q224 -669 222 -674Q238 -679 260 -680Q278 -688 295 -691Q299 -690 302 -690Q326 -683 346 -666Q370 -655 385 -639Q391 -631 391 -618Q391 -606 383 -578H385Q392 -578 399 -582Q407 -587 412 -587H415L416 -584Q416 -580 415 -577V-575H427Q433 -564 438 -554Q444 -544 455 -543H456Q451 -533 451 -529V-527Q451 -524 456 -524Q461 -524 465 -525L467 -524Q459 -512 457 -502Q457 -495 466 -488Q450 -481 448 -467Q446 -454 439 -441Q431 -428 392 -415Q365 -406 355 -399Q342 -390 342 -365Q343 -350 343 -335Q370 -356 397 -378Q389 -361 376 -339Q379 -339 382 -343Q389 -351 395 -351Q398 -350 400 -350Q395 -337 392 -327Q399 -318 401 -293Q403 -270 408 -261Q398 -260 398 -249Q399 -245 399 -242Q387 -238 365 -224Q347 -212 344 -209Q332 -199 331 -188V-183Q333 -157 334 -131Q334 -114 329 -105Q322 -110 322 -127Q323 -137 323 -147Q323 -165 316 -170Q300 -161 300 -93Q300 -38 319 -32Q324 -36 324 -52Q324 -68 328 -71Q341 -58 341 -37Q341 -21 330 11Q323 32 321 42Q298 49 291 65Q272 59 249 32Q228 8 213 1Q222 2 231 3ZM874 -87H854Q822 -87 806 -79V-44Q806 -26 800 -20Q795 -25 794 -44Q793 -66 786 -70Q773 -70 771 -44Q770 -34 770 -6Q770 28 772 37Q776 53 786 55Q795 53 797 34Q799 17 806 15Q815 35 815 48Q815 53 814 55Q798 79 772 99Q758 111 746 116Q733 113 717 97Q701 82 688 79Q681 60 665 45Q656 37 633 21Q635 20 639 20Q646 20 656 25Q668 31 674 31H676Q667 17 635 -5Q604 -26 596 -39Q615 -30 633 -19Q650 -9 673 -2Q672 -15 639 -30H643Q651 -30 665 -25Q677 -21 685 -21H691Q698 -30 700 -43Q703 -56 706 -68H695Q653 -66 613 -50Q573 -34 538 -24Q527 -22 515 -21Q500 -12 485 -4H483Q469 -4 451 14Q437 29 427 30H419Q390 30 377 13Q377 8 376 3V0Q352 -8 351 -37Q351 -51 359 -59Q359 -62 358 -66Q358 -84 380 -117Q399 -145 409 -152V-150Q409 -146 405 -137Q398 -122 398 -115Q398 -110 399 -108L401 -107Q404 -108 407 -110H408Q420 -106 434 -106Q454 -106 491 -116Q521 -124 535 -125Q537 -154 538 -184Q538 -196 537 -201Q534 -218 521 -224Q514 -216 514 -197Q516 -172 517 -148Q517 -139 516 -134Q506 -136 506 -156V-176Q503 -212 491 -239Q471 -231 458 -231Q443 -231 435 -242Q433 -248 430 -255Q425 -262 416 -270Q408 -278 407 -291Q407 -298 411 -306Q405 -316 405 -338Q415 -347 432 -374Q446 -396 457 -407V-404Q454 -390 451 -376V-374Q459 -370 468 -370Q487 -372 503 -378H504Q507 -376 510 -375Q518 -378 525 -381H527Q531 -379 535 -378H536Q543 -379 549 -380Q553 -380 553 -377Q550 -372 544 -371Q538 -371 532 -369Q520 -365 516 -355Q524 -348 538 -348Q548 -348 589 -360Q628 -369 667 -377Q706 -385 738 -398Q733 -406 731 -407Q707 -407 672 -397Q637 -387 619 -387H611Q614 -396 627 -400Q629 -401 651 -405Q695 -414 738 -424V-425Q738 -428 732 -433Q726 -438 725 -441Q649 -438 596 -419Q593 -408 572 -401Q556 -396 552 -389Q549 -394 532 -398Q523 -414 510 -429Q511 -432 512 -436V-438Q499 -476 487 -517Q475 -560 438 -578Q434 -586 434 -595Q434 -605 443 -623Q453 -643 454 -656H460Q468 -656 473 -660Q471 -669 469 -679Q469 -683 472 -686Q477 -686 483 -681Q487 -678 492 -677V-680Q492 -686 486 -696Q479 -707 479 -714H480Q486 -714 489 -709Q492 -705 495 -701Q502 -694 520 -685Q543 -674 549 -662Q554 -665 558 -669Q611 -687 663 -705Q674 -710 687 -712Q693 -712 698 -708Q681 -697 663 -693Q644 -689 627 -683Q603 -674 587 -656Q591 -652 599 -652Q626 -656 650 -666Q678 -677 706 -689Q745 -704 748 -705Q766 -713 777 -726Q774 -730 768 -730Q760 -729 752 -728Q755 -742 769 -745Q783 -748 795 -756Q800 -760 809 -772Q821 -788 829 -791Q837 -793 845 -793Q873 -793 894 -786Q900 -787 909 -794Q921 -803 931 -803Q930 -798 922 -790Q913 -781 913 -773Q913 -771 915 -765H917Q920 -765 924 -770Q932 -779 938 -779H939Q940 -777 940 -774Q940 -770 935 -761Q930 -752 930 -746V-743L932 -742Q935 -742 938 -746Q941 -750 942 -750L945 -749Q939 -740 939 -732Q939 -724 946 -709Q953 -694 953 -687V-686Q952 -675 941 -659Q929 -643 928 -633H927Q919 -633 911 -625Q904 -617 897 -617Q897 -620 896 -623Q900 -637 903 -646V-647Q899 -650 894 -650Q887 -649 881 -642Q875 -635 870 -630Q864 -631 857 -633Q839 -625 830 -607Q821 -589 812 -569Q802 -550 793 -534Q784 -518 783 -497V-494Q787 -494 787 -491Q806 -509 818 -533Q829 -557 842 -579L844 -580Q848 -577 851 -575Q857 -579 862 -585Q868 -591 875 -592L879 -591Q868 -571 852 -550Q835 -528 827 -501Q826 -481 820 -467Q814 -460 808 -455Q802 -451 802 -441Q808 -440 813 -440Q857 -440 897 -470Q894 -462 894 -457Q894 -447 903 -444Q925 -450 938 -450H947Q942 -445 935 -440Q928 -436 927 -426Q939 -423 950 -421Q940 -412 937 -398Q938 -395 938 -392H939Q942 -394 945 -396L948 -395Q942 -384 938 -373L939 -369Q931 -366 928 -358Q925 -350 921 -344Q910 -337 873 -337Q845 -337 833 -333Q842 -319 842 -309Q841 -293 830 -278Q819 -264 812 -248Q808 -239 808 -220V-206Q808 -191 806 -182Q825 -186 903 -208H904Q909 -206 913 -201Q922 -204 930 -208Q927 -203 927 -198V-195H959Q953 -191 944 -188Q935 -185 934 -177Q934 -176 936 -170Q938 -168 941 -168Q944 -168 950 -171Q945 -162 941 -140Q936 -114 930 -105Q918 -87 874 -87Z"/>
</svg>