<svg xmlns="http://www.w3.org/2000/svg" viewBox="0 -800 1024 1024">
	<path fill="#000000" d="M64 -503Q61 -485 48 -481Q46 -485 46 -488Q46 -498 64 -503ZM325 -298V-296Q325 -284 311 -271Q299 -260 296 -249Q276 -242 255 -236Q241 -242 230 -242Q227 -242 219 -240L218 -244Q218 -247 223 -252Q216 -257 212 -257Q205 -257 194 -250Q183 -243 177 -242Q185 -254 195 -263Q164 -290 150 -307Q128 -334 119 -365H121Q124 -365 129 -361Q135 -356 139 -356L141 -359Q139 -364 136 -369L137 -371Q178 -385 224 -389Q238 -389 254 -386Q256 -387 258 -392Q261 -400 266 -400Q270 -400 272 -399Q270 -393 270 -389Q271 -376 283 -368Q294 -359 302 -350Q314 -353 318 -353V-352Q315 -345 311 -338Q311 -332 318 -319Q325 -306 325 -298ZM367 -465L371 -446Q365 -446 363 -450Q361 -454 358 -458Q319 -432 303 -432Q289 -432 281 -444Q283 -445 288 -445Q298 -444 308 -444Q321 -444 322 -453V-454Q322 -471 254 -483Q251 -483 247 -484Q237 -484 235 -479Q236 -472 247 -466Q258 -460 258 -452Q254 -452 254 -449Q239 -455 222 -466Q204 -477 187 -478Q176 -478 168 -471Q173 -479 173 -485Q172 -494 164 -500Q156 -507 149 -513H148Q145 -513 140 -507Q137 -503 134 -503L131 -504Q139 -520 139 -525Q139 -532 131 -536Q125 -538 122 -538Q108 -537 95 -527Q83 -516 76 -510Q78 -520 96 -534Q114 -547 118 -558Q118 -560 112 -560H105Q107 -563 107 -570Q107 -586 85 -599V-600Q85 -603 91 -605Q97 -606 97 -611Q94 -619 74 -623Q60 -626 55 -630Q61 -633 68 -633Q81 -632 93 -631Q103 -631 108 -635Q113 -656 136 -656Q147 -661 147 -680Q147 -688 146 -693Q151 -688 156 -677Q162 -663 167 -659H177Q199 -659 216 -653Q218 -654 218 -659Q218 -665 222 -666H223Q226 -666 226 -661V-653Q226 -651 231 -650Q235 -649 236 -647Q242 -650 244 -665Q246 -682 252 -685Q254 -679 255 -666Q256 -650 260 -644Q267 -634 282 -633Q296 -632 311 -629Q320 -626 325 -616Q329 -607 337 -597Q346 -587 355 -578Q364 -569 367 -552H369Q373 -552 377 -553H379Q375 -541 375 -525V-504Q375 -479 367 -465ZM245 -5H249Q247 2 238 13Q228 26 226 34Q223 56 219 77Q191 92 173 92Q165 92 161 91Q152 89 136 76Q123 65 116 62Q92 54 79 43Q73 35 73 19Q73 16 79 -23Q69 -55 69 -63Q69 -74 73 -83Q87 -101 109 -125Q139 -164 143 -170V-166Q143 -159 139 -147Q134 -132 134 -124Q134 -116 136 -111Q139 -111 140 -108Q188 -122 255 -158Q268 -165 299 -186Q335 -211 356 -219L360 -220Q363 -220 367 -218Q356 -207 345 -198Q334 -189 329 -173Q331 -172 334 -172Q342 -173 344 -180Q347 -188 355 -189H356V-188Q356 -184 351 -177Q342 -164 342 -156Q342 -149 346 -144L348 -143Q350 -143 354 -147Q359 -153 363 -153H364Q353 -131 353 -106Q353 -94 356 -87Q337 -71 318 -56Q300 -36 279 -27L278 -31Q279 -40 287 -46Q296 -52 303 -57Q326 -74 335 -87Q331 -93 325 -93Q321 -93 303 -84Q292 -78 276 -64Q257 -50 238 -38Q219 -26 210 -4Q212 4 217 7Q224 7 231 1Q239 -5 245 -5ZM895 -666Q893 -670 893 -672Q893 -677 898 -681Q902 -684 908 -684Q911 -683 914 -683L915 -679Q914 -674 907 -671Q900 -669 895 -666ZM504 53Q503 47 501 40Q504 39 510 39Q519 39 529 46Q527 48 525 49L527 50Q516 52 504 53ZM711 -204V-205Q706 -205 701 -206Q673 -206 648 -194Q619 -180 616 -158Q653 -173 690 -189Q702 -192 703 -193Q711 -197 711 -204ZM706 -268H713Q718 -285 718 -293Q718 -302 714 -307Q694 -303 673 -287Q654 -277 641 -269Q627 -260 625 -239Q645 -246 664 -256Q684 -267 706 -268ZM878 -517Q871 -527 848 -527Q833 -527 827 -526Q808 -524 790 -521Q747 -512 728 -505Q695 -492 686 -470Q689 -469 695 -469Q703 -469 732 -478Q755 -486 794 -494Q856 -507 878 -517ZM404 -455Q414 -510 436 -531Q459 -554 476 -557Q474 -555 474 -553Q474 -549 485 -541Q532 -550 578 -559Q591 -579 597 -606Q603 -633 609 -658Q605 -664 600 -670Q573 -665 559 -641Q558 -643 558 -647Q559 -660 566 -672Q574 -684 580 -694V-699Q580 -714 587 -723Q594 -733 603 -743Q616 -759 625 -765Q638 -773 661 -773H668Q686 -768 704 -764Q732 -760 739 -755Q749 -748 753 -721Q755 -709 768 -693Q778 -681 779 -673Q780 -669 780 -666Q780 -650 760 -631Q745 -616 742 -608Q820 -626 883 -660V-659Q881 -653 878 -648V-647Q888 -636 903 -636Q931 -639 958 -643H961Q949 -637 935 -630Q922 -623 921 -607Q921 -601 922 -597Q925 -591 933 -590Q942 -589 949 -587Q934 -577 927 -562Q927 -556 943 -556Q920 -550 920 -518V-511Q898 -500 874 -498Q849 -495 824 -491Q789 -484 671 -443Q637 -437 613 -425Q600 -416 584 -376Q592 -369 605 -369Q611 -369 613 -370Q694 -404 722 -430Q732 -439 741 -449Q751 -460 763 -463Q775 -465 779 -465Q816 -465 848 -431Q866 -436 884 -442Q866 -431 864 -409Q864 -400 871 -400Q876 -400 883 -404Q878 -393 878 -374Q878 -365 880 -347Q862 -330 848 -314Q833 -298 827 -268Q810 -178 804 -101Q795 -106 795 -119Q795 -122 798 -146Q801 -218 801 -224Q801 -252 798 -265Q786 -265 784 -261Q774 -229 773 -184Q773 -139 772 -95Q772 -86 772 -78Q771 -72 771 -59Q771 -23 787 -13Q799 -18 799 -36Q799 -48 798 -61V-64H804Q810 -59 810 -49Q810 -45 810 -41Q809 -39 809 -34V-31Q812 -11 815 8Q815 12 813 18Q807 18 802 9Q797 1 790 1Q776 1 776 23Q776 38 782 50Q789 63 798 64Q803 57 806 44Q815 48 824 52Q819 81 805 100Q791 119 781 142Q750 138 712 112Q672 84 643 81Q647 80 656 80H681Q679 73 671 73H662Q612 64 562 55H560Q555 56 550 56Q543 56 541 49Q545 45 551 45Q561 47 571 49Q641 59 664 59H676Q664 54 637 50Q604 45 592 38Q601 34 612 34Q634 37 656 40Q667 40 676 35Q693 8 698 -31Q702 -71 705 -112H702Q657 -112 615 -82Q613 -77 613 -68Q616 -47 619 -26Q602 3 600 14Q591 17 582 17Q556 13 530 8Q529 -7 507 -7Q500 -7 488 -5Q489 -11 496 -12Q502 -13 510 -13Q506 -21 496 -21Q483 -19 470 -18Q465 -18 459 -20Q486 -29 502 -47Q506 -54 507 -62Q509 -70 517 -73Q520 -68 520 -63Q520 -54 519 -46Q519 -36 527 -34Q542 -51 545 -82Q547 -112 554 -139Q551 -150 548 -161Q544 -173 534 -174Q532 -173 529 -173Q525 -166 525 -152Q526 -137 526 -123V-113H524Q519 -111 514 -109H513Q510 -138 506 -167Q502 -197 488 -218Q470 -186 452 -155Q443 -144 434 -139Q422 -142 415 -150Q407 -158 399 -166Q388 -178 383 -204Q377 -231 384 -247Q456 -335 482 -386Q466 -388 458 -398Q449 -407 439 -415Q414 -432 404 -455Z"/>
</svg>