<svg xmlns="http://www.w3.org/2000/svg" viewBox="0 -800 1024 1024">
	<path fill="#000000" d="M942 -65Q941 -60 928 -60Q918 -60 916 -61Q916 -67 929 -67Q936 -67 942 -65ZM76 -461V-465Q76 -474 81 -479Q92 -479 95 -478Q87 -466 76 -461ZM387 67V66Q387 64 386 61Q388 52 401 52Q404 52 408 54Q406 65 387 67ZM54 -557V-558Q62 -558 70 -559Q78 -559 79 -551Q72 -549 64 -547Q54 -547 54 -557ZM664 -490V-500Q664 -505 667 -513H664Q659 -513 651 -509Q648 -501 648 -489Q648 -479 651 -475Q657 -477 663 -479Q664 -483 664 -490ZM415 45V44Q415 36 445 21Q443 13 434 12Q424 11 418 11Q418 7 421 4Q426 0 426 -4Q421 -19 415 -35V-37Q417 -43 418 -50Q418 -53 414 -56Q444 -72 459 -72Q467 -72 471 -71Q487 -66 503 -62Q509 -63 515 -65L518 -64Q529 -62 542 -46Q555 -30 556 -17Q552 0 547 17Q534 28 514 31Q495 34 477 37Q474 37 474 34Q474 30 471 30Q461 28 459 28Q448 28 433 38Q422 45 415 45ZM256 -211H255Q248 -213 240 -216Q239 -216 235 -214Q229 -221 214 -230Q194 -242 189 -252Q186 -253 182 -253Q177 -253 161 -245Q163 -257 174 -260Q167 -271 161 -283Q154 -296 153 -312Q153 -317 155 -327Q154 -330 149 -338Q161 -343 173 -349Q165 -363 165 -373V-377Q170 -356 191 -356Q204 -357 216 -358Q230 -358 238 -351Q243 -360 255 -360H260Q254 -348 248 -336Q267 -310 273 -299Q286 -275 286 -254Q286 -243 283 -233Q266 -229 256 -211ZM879 11V27Q869 34 861 43Q853 52 839 55Q836 61 833 67Q825 52 808 46Q790 40 775 30Q767 20 759 10Q749 4 738 -2Q734 -8 729 -14Q720 -22 712 -29Q704 -36 700 -47Q698 -63 692 -84Q699 -91 709 -96Q718 -101 722 -111Q730 -114 737 -114Q753 -112 768 -111H772Q781 -113 790 -121Q800 -130 808 -131Q804 -118 803 -114Q810 -101 819 -101Q829 -102 838 -112Q847 -122 852 -128V-127Q852 -121 845 -110Q838 -98 838 -94Q838 -87 846 -83Q858 -84 875 -95Q892 -106 901 -106Q907 -106 910 -105Q900 -97 884 -89Q865 -81 864 -67V-65Q865 -60 874 -53Q889 -55 903 -58Q908 -58 910 -56Q908 -53 897 -50Q885 -47 883 -41Q885 -26 896 -20Q907 -14 917 -7Q884 -3 879 11ZM297 -500V-498Q296 -486 295 -474Q295 -466 297 -462Q283 -459 274 -450Q265 -442 254 -434Q244 -435 230 -442Q216 -449 209 -450Q209 -459 212 -464Q229 -460 246 -456Q259 -456 264 -467Q264 -475 254 -475Q243 -475 238 -468Q229 -470 220 -473Q208 -480 197 -489Q185 -499 173 -500Q167 -500 161 -497Q163 -484 175 -479Q189 -474 191 -463V-462H187Q156 -462 149 -484H140Q140 -499 124 -499Q113 -499 106 -492Q107 -499 111 -502Q116 -506 119 -510V-512Q119 -516 112 -528Q99 -527 76 -516Q61 -509 48 -506V-507Q49 -513 57 -517Q66 -520 73 -524Q98 -535 106 -537Q104 -539 103 -547Q102 -556 98 -558Q94 -556 90 -555Q90 -567 95 -572Q92 -586 80 -595Q75 -599 54 -608Q56 -609 60 -609Q74 -605 88 -602H90Q105 -617 122 -626Q121 -632 119 -639Q124 -638 131 -626Q139 -626 155 -624Q160 -651 174 -669Q170 -660 170 -645Q170 -629 177 -617Q185 -604 199 -603Q209 -604 216 -611Q222 -619 229 -623Q231 -619 231 -618Q231 -615 227 -612Q222 -608 221 -603Q221 -594 231 -588Q241 -582 253 -582Q258 -582 264 -584Q265 -569 280 -543Q295 -516 297 -500ZM365 -104H366Q364 -103 360 -97Q355 -90 350 -89V-87Q352 -82 353 -77Q319 -73 276 -44V-48Q278 -67 299 -73Q319 -79 334 -89H327Q259 -84 217 -41Q206 -30 206 -20Q206 -18 208 -14Q217 -15 229 -26Q243 -39 254 -39Q258 -39 261 -38Q259 -35 235 -9Q218 9 218 25Q218 33 223 45Q217 57 191 74Q179 66 161 61Q142 56 124 50Q95 42 90 21V19Q91 12 92 4V2Q92 -7 87 -25Q83 -39 83 -50Q83 -58 84 -62Q91 -103 134 -156Q143 -168 150 -178Q157 -188 170 -196L173 -192Q171 -184 164 -178Q157 -171 150 -164Q138 -147 132 -127Q136 -129 143 -141Q149 -151 158 -152V-151Q156 -140 153 -130Q153 -124 156 -122Q279 -179 349 -196Q349 -192 341 -188Q332 -184 331 -179Q331 -176 330 -174Q330 -167 341 -159V-156Q341 -147 350 -132Q359 -117 359 -104L360 -103Q363 -103 365 -104ZM661 62H662Q665 62 667 59Q669 56 671 55Q664 27 664 0Q665 -9 665 -18Q671 -8 675 23Q679 53 686 64Q683 88 677 108Q657 111 648 122Q604 105 592 85Q573 51 573 28Q573 12 583 5Q590 -50 594 -107Q594 -122 593 -130Q565 -124 537 -119Q509 -113 483 -102Q468 -91 454 -86H449Q426 -88 412 -108Q398 -128 380 -140V-146Q380 -167 390 -180Q389 -184 389 -190Q390 -215 407 -225Q424 -236 442 -245Q440 -239 438 -234Q438 -231 441 -228Q453 -226 459 -226Q475 -226 508 -234Q539 -242 557 -243Q580 -245 584 -248V-254Q582 -267 580 -281Q563 -277 552 -267Q541 -257 528 -248Q496 -252 482 -275Q468 -298 447 -314Q472 -335 472 -399Q472 -416 468 -446Q423 -426 418 -423Q408 -414 399 -410H398Q388 -411 378 -417Q369 -424 361 -429Q340 -436 324 -447Q325 -454 325 -471Q325 -497 324 -523Q324 -538 325 -545Q338 -599 378 -615Q377 -611 377 -603Q377 -588 383 -579Q399 -583 417 -585Q435 -587 445 -597V-603Q445 -618 432 -640Q422 -656 421 -668Q425 -666 431 -659Q437 -651 444 -650L445 -652Q441 -656 437 -661L438 -662Q441 -665 444 -665Q454 -661 464 -657Q469 -659 478 -659Q498 -658 512 -644Q526 -630 540 -617Q560 -619 569 -629Q562 -655 562 -663Q562 -679 574 -686Q582 -689 589 -692Q609 -701 614 -701Q620 -701 624 -699Q634 -694 642 -677Q649 -662 655 -657Q663 -658 677 -666Q674 -689 672 -711Q670 -734 655 -743Q665 -748 665 -762Q672 -764 676 -765Q687 -792 717 -795Q723 -795 735 -791Q746 -774 762 -762Q778 -749 780 -721V-717Q785 -709 794 -709Q811 -712 827 -716H830L832 -715Q832 -714 828 -711Q823 -707 823 -705L825 -702Q826 -701 830 -701Q848 -707 866 -713Q865 -707 856 -702Q846 -696 845 -687V-686Q845 -684 848 -682Q851 -680 851 -677L868 -683Q861 -674 860 -665Q860 -656 857 -645Q866 -633 866 -616Q866 -584 846 -569Q843 -570 838 -570Q828 -568 817 -567Q811 -567 809 -569Q810 -576 824 -579Q838 -581 840 -588Q833 -599 817 -599Q785 -594 760 -585Q750 -577 750 -567Q750 -561 754 -558Q765 -565 778 -567Q783 -567 786 -566Q785 -562 783 -558Q764 -553 745 -540Q729 -499 729 -423V-405Q712 -398 693 -395H691Q676 -398 661 -402Q657 -402 654 -401Q641 -394 627 -387Q604 -397 597 -403Q582 -415 580 -432V-439Q581 -452 581 -466Q581 -475 578 -486Q549 -480 543 -449Q537 -406 537 -365Q545 -363 550 -363Q576 -367 602 -371H608Q603 -360 588 -359Q574 -357 571 -344Q662 -350 757 -378Q750 -382 737 -382Q718 -380 698 -378Q675 -373 650 -371Q641 -371 636 -372Q651 -385 672 -388Q693 -392 715 -396Q758 -402 793 -413Q795 -425 797 -437Q799 -449 808 -455Q811 -430 812 -427Q817 -411 831 -410Q840 -414 851 -416H854Q847 -407 847 -400Q847 -395 848 -393L850 -392Q855 -394 860 -397L863 -396Q863 -388 858 -381Q869 -365 871 -363Q870 -349 862 -334Q852 -316 852 -306Q847 -302 838 -302Q826 -303 813 -305Q801 -305 788 -306Q726 -306 679 -297Q685 -280 691 -263Q713 -264 757 -274Q786 -285 815 -288Q829 -288 840 -281H841Q848 -281 861 -289Q871 -295 874 -295L877 -294V-293Q877 -289 869 -283Q861 -277 860 -274Q863 -269 866 -265H867Q873 -267 878 -269H880Q880 -261 877 -260Q888 -253 892 -239Q895 -232 897 -230Q894 -218 891 -206Q893 -199 894 -192Q892 -182 880 -170Q871 -161 870 -158Q863 -161 853 -161Q839 -160 825 -160Q815 -160 812 -162Q815 -172 830 -171Q844 -171 854 -174Q851 -189 830 -189Q823 -190 806 -190Q732 -190 697 -170Q703 -165 717 -165Q736 -166 755 -167Q770 -167 777 -162Q775 -156 761 -156H747Q737 -156 733 -152Q696 -150 694 -150Q673 -146 673 -129Q673 -123 674 -120Q669 -116 669 -105Q670 -96 670 -88Q670 -77 665 -73Q661 -74 659 -85Q657 -95 651 -96Q640 -84 640 -38Q640 -9 643 13Q646 34 661 62Z"/>
</svg>