<svg xmlns="http://www.w3.org/2000/svg" viewBox="0 -800 1024 1024">
	<path fill="#000000" d="M57 -178Q46 -185 43 -196Q43 -201 51 -202Q57 -183 57 -178ZM599 -598Q595 -601 595 -607Q595 -615 599 -621L603 -622Q609 -622 609 -615Q608 -601 599 -598ZM885 -270V-269Q885 -262 879 -260Q873 -258 868 -255Q864 -258 864 -261Q866 -271 878 -273Q882 -273 885 -270ZM701 -475Q700 -483 691 -493Q685 -500 683 -506Q670 -488 662 -465Q672 -465 685 -470Q696 -474 701 -475ZM612 -180H616Q624 -180 641 -186Q655 -191 665 -192Q667 -202 667 -203Q667 -210 663 -210Q651 -204 638 -198Q633 -200 625 -202Q612 -193 612 -184ZM657 -297H661Q664 -309 664 -319V-327Q625 -317 615 -303Q618 -297 620 -292H623Q640 -294 657 -297ZM664 -112V-115Q662 -115 659 -116Q652 -116 638 -108Q628 -102 621 -102H620Q612 -102 604 -111Q600 -116 591 -129Q582 -121 578 -107Q575 -93 572 -78Q642 -84 664 -87Q666 -91 666 -95Q665 -103 664 -112ZM917 61V62Q896 56 877 44Q866 40 855 37Q843 34 838 23H852Q858 23 861 20Q860 15 843 7Q825 -1 812 -1Q797 -1 796 9V10Q796 16 807 17Q816 18 817 21Q813 26 804 26Q787 24 769 21H753Q714 22 674 23H658V18Q709 11 739 11Q749 12 758 12Q772 14 777 14Q785 14 790 9Q789 -2 773 -4Q751 -7 748 -9Q701 -6 656 -3Q611 1 581 20Q584 27 596 27Q606 27 616 26Q623 26 625 27Q576 47 535 72Q486 59 486 3Q482 -3 478 -9Q477 -12 477 -19Q478 -35 485 -47Q493 -58 499 -72Q505 -91 510 -111Q534 -175 540 -223Q541 -230 541 -238Q541 -277 523 -295H519Q512 -295 502 -300Q494 -304 491 -304Q490 -304 486 -302Q485 -303 482 -307Q479 -312 474 -313Q470 -312 470 -305V-302Q470 -299 468 -295Q469 -292 474 -291Q479 -290 480 -288Q479 -284 479 -276Q479 -267 484 -265Q488 -266 495 -272Q503 -279 511 -279H514Q513 -272 499 -262Q486 -252 484 -244Q484 -241 483 -239Q483 -231 493 -216Q503 -202 504 -193H502Q498 -193 492 -200Q487 -206 484 -207Q476 -206 476 -196Q476 -190 477 -187Q469 -191 459 -191Q450 -191 446 -186Q427 -193 412 -204Q406 -196 406 -174V-156Q399 -162 394 -172Q386 -165 384 -145Q383 -138 382 -109Q380 -71 380 -50Q380 -3 394 12Q404 10 404 -1Q402 -14 400 -27V-36Q400 -71 406 -117Q412 -109 412 -87V-45Q412 -23 418 -10Q412 16 412 33V41Q395 50 388 77Q373 77 370 85Q363 79 331 66Q324 57 312 19Q302 -12 287 -22Q305 -45 308 -83Q312 -121 319 -154Q293 -135 269 -87Q253 -61 233 -34Q213 -8 204 24Q196 26 193 33Q190 41 187 47H184Q178 49 172 51Q154 43 144 41Q120 1 119 -1Q115 0 104 0Q104 -9 113 -16V-18Q109 -39 104 -60Q106 -66 107 -72Q105 -91 83 -127Q64 -158 61 -175Q69 -174 72 -168Q74 -162 77 -156Q99 -120 117 -102Q105 -125 93 -148Q100 -144 112 -130Q126 -114 138 -109Q159 -120 178 -133Q186 -149 197 -149Q198 -149 204 -147Q203 -141 190 -131Q171 -115 171 -106V-102Q174 -94 179 -94Q186 -95 195 -105Q203 -115 209 -121Q237 -148 251 -164Q274 -190 281 -211Q276 -215 270 -215Q262 -215 252 -200Q242 -186 237 -186V-187Q239 -208 256 -224Q273 -241 287 -256Q311 -288 328 -327Q312 -322 261 -292Q230 -276 202 -258Q174 -240 165 -202Q161 -201 153 -201Q132 -202 120 -217Q108 -233 96 -246Q82 -254 68 -262Q48 -279 48 -324Q48 -338 49 -346Q50 -354 57 -373Q64 -394 65 -405V-420Q65 -442 77 -453Q94 -469 116 -484H117L119 -482Q118 -477 116 -472Q134 -488 150 -508Q177 -533 187 -537Q172 -521 157 -504Q142 -487 133 -463Q141 -463 149 -479Q158 -497 171 -498Q170 -493 164 -486Q157 -478 157 -473Q157 -469 160 -465Q215 -478 257 -501H274Q261 -485 219 -470Q178 -456 166 -441Q172 -438 180 -438Q195 -438 213 -444Q246 -453 278 -471Q310 -489 338 -503Q335 -510 326 -510Q316 -508 305 -507L301 -508Q303 -520 322 -525Q337 -529 341 -535Q332 -575 332 -590V-595Q320 -604 314 -618Q307 -633 299 -646Q301 -647 302 -650Q304 -654 307 -654H308V-658Q308 -667 326 -691Q348 -725 372 -753Q384 -753 391 -762Q404 -756 416 -751Q429 -723 443 -695Q457 -667 462 -630Q454 -609 449 -577Q453 -576 457 -576Q478 -577 496 -589Q514 -601 530 -612V-610Q530 -602 518 -594Q502 -584 502 -571V-568H504Q508 -568 512 -573Q515 -577 517 -577L520 -576L521 -573Q521 -570 514 -561Q508 -554 507 -549Q508 -545 513 -545Q517 -545 519 -546Q511 -526 507 -503Q499 -466 499 -459V-456Q503 -442 506 -428Q506 -426 504 -420Q483 -410 460 -401Q437 -392 418 -379Q414 -365 414 -356Q414 -324 434 -324Q438 -324 440 -325Q446 -326 452 -338Q460 -354 472 -355Q455 -329 455 -317Q455 -310 459 -303Q467 -316 476 -343Q483 -364 487 -373Q503 -404 519 -435Q540 -486 561 -537Q564 -544 568 -552Q573 -560 582 -561H584Q571 -529 556 -496Q541 -464 533 -424Q557 -438 570 -468Q582 -498 594 -531Q607 -561 619 -592Q641 -636 641 -649Q641 -658 637 -663Q627 -660 623 -652Q620 -643 615 -636Q611 -641 611 -649Q611 -657 620 -676Q628 -694 629 -703V-705Q629 -716 622 -730Q616 -741 615 -748Q630 -751 643 -766Q657 -782 671 -793Q684 -789 699 -789Q720 -789 736 -801Q736 -789 745 -781Q753 -774 767 -774Q775 -774 784 -777Q783 -773 778 -769Q772 -764 772 -760V-758Q772 -751 781 -741Q789 -732 790 -729Q796 -715 796 -688Q796 -673 793 -663Q791 -655 778 -642Q760 -625 758 -622Q738 -599 727 -580Q738 -573 748 -567Q753 -569 761 -577Q771 -587 779 -589V-587Q779 -583 774 -576Q765 -563 765 -556Q765 -551 766 -549L768 -548Q771 -551 776 -554L779 -553L781 -552Q779 -548 776 -544V-538Q776 -529 781 -517Q793 -517 809 -529Q825 -541 837 -541H840Q844 -542 848 -548Q850 -551 853 -553Q856 -545 859 -538Q894 -557 909 -558Q907 -554 896 -547Q881 -537 881 -528Q881 -522 885 -517Q888 -518 892 -522Q896 -526 900 -526H902L903 -523Q900 -515 896 -508Q906 -462 906 -445V-435Q885 -414 880 -388Q859 -384 838 -381Q832 -381 828 -382Q830 -388 846 -391Q857 -393 859 -396V-397Q859 -408 841 -408H838Q809 -405 776 -394Q734 -385 727 -369Q733 -366 740 -366Q749 -366 764 -371Q784 -378 793 -378H798Q792 -368 768 -362Q752 -358 746 -354L752 -339Q757 -342 763 -342Q774 -340 785 -339Q792 -345 798 -351Q804 -357 815 -358H817Q815 -353 809 -347Q802 -340 801 -331V-328L804 -327Q805 -327 808 -330Q811 -334 815 -334L819 -333Q811 -319 811 -309L813 -307Q816 -308 818 -310L820 -309Q815 -302 812 -286Q810 -273 804 -265Q798 -256 785 -254Q772 -252 758 -249Q736 -247 734 -224Q735 -220 735 -216H739Q750 -218 760 -220Q765 -233 781 -239Q791 -243 814 -247Q819 -239 825 -239Q829 -239 840 -245Q852 -251 859 -252Q854 -246 849 -241Q844 -235 843 -225Q844 -221 848 -221Q852 -221 858 -223Q854 -188 850 -154Q841 -151 835 -144Q795 -149 780 -149Q721 -149 721 -111Q721 -107 723 -95Q773 -103 867 -103Q877 -110 881 -124Q884 -138 888 -151Q890 -147 890 -136Q890 -120 894 -117Q898 -117 899 -122Q901 -127 904 -127H905V-118Q916 -106 926 -88Q944 -82 951 -64Q957 -45 964 -27Q959 -23 959 -16V-7Q959 0 955 3Q956 6 956 12Q956 20 955 24Q948 24 945 27Q943 29 943 34V39Q943 43 942 45Q931 46 926 48Q917 52 917 61Z"/>
</svg>