<svg xmlns="http://www.w3.org/2000/svg" viewBox="0 -800 1024 1024">
	<path fill="#000000" d="M675 -286H674Q671 -282 668 -279Q681 -281 683 -283Q679 -284 675 -286ZM416 -310H415Q416 -315 417 -320Q418 -326 424 -327L428 -326Q427 -320 425 -315Q422 -310 416 -310ZM907 -523V-537H913Q915 -534 915 -527Q915 -518 911 -508Q907 -510 907 -523ZM667 -349H671Q675 -356 678 -363Q647 -363 643 -352Q655 -350 667 -349ZM628 -172H631Q633 -185 635 -198L634 -201Q611 -190 599 -167Q614 -169 628 -172ZM704 -117V-121Q671 -118 655 -91Q672 -95 687 -98Q703 -101 704 -117ZM717 -228H705Q680 -228 674 -219Q686 -204 698 -189Q708 -191 717 -193Q713 -203 713 -211Q713 -218 717 -228ZM806 -132Q802 -133 793 -133Q775 -133 741 -124Q745 -122 752 -116Q760 -109 766 -107Q764 -103 764 -101Q764 -89 779 -79Q792 -105 806 -132ZM637 -494V-502Q616 -480 593 -437Q601 -434 608 -434Q631 -437 655 -445Q649 -451 643 -459Q638 -467 628 -471Q637 -475 637 -494ZM746 -474Q720 -515 715 -522Q696 -549 677 -562Q671 -556 665 -549Q658 -543 655 -533Q672 -531 689 -530Q709 -499 728 -468Q728 -473 735 -473L739 -472Q744 -472 746 -474ZM344 -62V-12Q344 6 354 9Q364 0 364 -24Q364 -39 363 -54Q363 -69 365 -76Q373 -70 373 -59Q374 -47 374 -37Q375 -32 375 -27Q372 8 368 42Q361 48 357 57Q351 55 347 55Q342 55 336 57Q327 54 317 41Q306 27 298 25Q295 20 292 16Q289 11 283 9Q271 -21 255 -38Q270 -55 274 -107Q277 -146 282 -160Q252 -134 240 -119Q219 -91 216 -58Q197 -52 187 -32Q178 -14 178 12V19Q167 25 155 34Q142 44 131 45Q119 45 112 29H107Q94 29 81 15Q73 6 68 5Q61 -11 62 -34Q57 -45 52 -57V-76Q44 -104 39 -129V-135Q43 -132 48 -121Q54 -108 62 -106Q65 -105 67 -105Q85 -105 130 -141Q214 -215 279 -302Q255 -298 215 -270Q170 -244 147 -201Q138 -207 112 -210Q81 -214 70 -225Q56 -239 44 -263Q29 -293 29 -316Q29 -323 30 -326Q38 -340 45 -354Q46 -360 46 -369V-374Q46 -382 49 -391Q62 -414 70 -421Q82 -429 95 -436Q108 -446 119 -459Q130 -473 147 -478Q145 -471 137 -463Q126 -452 126 -442V-440Q129 -438 136 -438Q144 -438 151 -439Q162 -439 163 -432Q158 -426 151 -420Q144 -413 143 -405Q143 -400 148 -395Q176 -400 200 -413Q225 -427 252 -440Q274 -448 280 -451Q295 -458 301 -469Q298 -476 287 -476Q283 -475 279 -475Q268 -474 246 -463Q222 -451 208 -451H206Q209 -464 222 -468Q234 -473 249 -478Q273 -490 298 -496Q308 -509 308 -522Q308 -537 289 -567Q270 -597 270 -614Q270 -625 277 -636Q295 -658 317 -675Q327 -680 345 -680Q362 -680 369 -675Q379 -663 387 -634Q395 -616 404 -598Q413 -580 416 -558Q417 -554 417 -544Q417 -534 416 -532Q415 -529 410 -523Q405 -518 405 -513Q405 -510 406 -508L409 -506Q413 -507 417 -508H419Q418 -505 418 -500Q418 -484 433 -480Q435 -456 435 -448Q435 -428 430 -405L433 -403Q436 -404 439 -405H440Q437 -398 433 -391Q437 -382 440 -374Q422 -370 409 -361Q395 -352 380 -345Q379 -321 377 -297V-289Q391 -281 393 -280Q399 -281 405 -290Q410 -297 412 -297H413V-296Q410 -288 407 -280V-277H410Q420 -277 434 -293Q448 -309 457 -311Q450 -299 441 -288Q431 -277 430 -262Q431 -259 431 -256H432Q434 -256 439 -259Q448 -265 454 -265H455Q444 -246 444 -241Q444 -237 445 -235L447 -232Q450 -233 453 -234L454 -233Q455 -228 455 -220Q455 -211 450 -194Q446 -181 446 -173V-169H442Q433 -169 423 -156Q414 -145 409 -144Q407 -143 404 -143Q391 -146 377 -150Q372 -147 372 -138V-129Q372 -123 371 -121Q362 -122 361 -140Q361 -154 357 -157Q344 -136 344 -62ZM787 84V81Q775 77 764 69H762Q757 72 752 75L749 74V72Q751 66 752 59Q734 40 704 35Q674 29 649 19Q652 18 658 18Q681 21 704 23H710Q708 17 696 14Q684 11 675 8Q710 3 720 0Q743 -7 749 -27Q723 -31 713 -60H709Q690 -60 664 -50Q638 -41 638 -28Q638 -24 639 -22Q647 -23 663 -32Q681 -42 693 -42Q696 -41 699 -41Q692 -35 673 -27Q661 -22 652 -16Q646 -12 641 -6Q632 5 628 6Q619 9 612 9Q595 9 585 -6Q576 -19 576 -39Q576 -69 593 -84Q605 -85 607 -86Q613 -88 613 -95V-96Q600 -93 585 -87Q569 -82 565 -70V-67Q569 -49 573 -32V-30Q572 -27 570 -24Q573 -10 575 4V6Q575 15 569 29Q563 44 563 53V57Q553 66 538 66Q520 64 502 62Q492 40 473 26V24Q475 22 477 20Q475 11 465 -1Q456 -13 454 -22Q469 -18 475 -4Q480 10 489 20Q493 16 496 9Q484 -26 477 -40Q463 -66 443 -75L440 -73Q437 -70 437 -64Q439 -52 440 -40V-38Q424 -43 418 -64Q414 -78 412 -107Q422 -122 428 -140Q434 -159 456 -161Q460 -160 463 -160Q472 -173 475 -190Q479 -162 516 -160Q523 -146 538 -146Q546 -146 556 -151Q554 -155 547 -160Q540 -165 538 -169Q535 -197 532 -226Q529 -239 511 -255Q496 -268 493 -277Q496 -284 496 -290Q496 -301 485 -310Q468 -324 467 -326Q469 -329 470 -329Q476 -325 482 -322H484L485 -323Q483 -327 481 -331Q488 -327 495 -327Q505 -327 519 -336Q529 -342 532 -343H537Q548 -342 556 -335Q564 -327 575 -320Q583 -306 593 -293Q603 -280 607 -262L621 -267Q610 -291 594 -313Q623 -302 627 -302Q636 -302 643 -308Q641 -314 629 -319Q619 -323 616 -329Q612 -328 605 -328Q585 -328 573 -341Q561 -354 561 -372Q561 -385 567 -397Q560 -394 551 -375Q538 -346 520 -345Q503 -353 474 -355Q472 -357 472 -360Q473 -365 473 -370L469 -371Q458 -368 451 -360Q454 -387 454 -392Q454 -413 442 -418Q444 -434 444 -443Q444 -462 437 -506Q430 -550 430 -575Q439 -553 444 -528Q450 -504 467 -489Q518 -543 535 -574Q539 -584 543 -594Q547 -604 560 -605Q557 -589 538 -564Q516 -535 516 -510V-502Q531 -511 541 -525Q550 -540 559 -555Q591 -607 622 -662Q620 -666 618 -671Q604 -670 596 -658Q582 -637 581 -636V-638Q581 -651 590 -665Q591 -667 607 -687Q607 -699 612 -700Q611 -709 599 -723Q588 -736 588 -744V-745Q590 -755 600 -766Q610 -777 616 -785H622Q643 -807 674 -807Q706 -807 720 -784Q729 -768 738 -733Q747 -701 749 -680V-678Q749 -669 741 -653Q734 -639 734 -630V-628Q776 -565 867 -489Q879 -500 879 -529Q879 -546 878 -563Q878 -582 881 -590Q885 -576 887 -544Q889 -505 895 -492Q896 -495 896 -502Q895 -520 893 -539Q893 -548 896 -556Q900 -510 911 -472Q914 -490 914 -494Q914 -499 913 -501H914Q917 -502 917 -496V-486Q923 -448 938 -440Q939 -428 944 -422Q949 -415 952 -408V-389Q952 -372 957 -361Q947 -348 937 -336Q926 -324 920 -307Q918 -306 913 -306Q898 -310 888 -314Q885 -314 883 -313Q858 -327 849 -345L837 -351Q836 -357 815 -383Q809 -390 802 -400Q794 -411 789 -412Q783 -412 782 -397Q739 -393 732 -379Q741 -370 741 -358Q741 -355 739 -349Q725 -346 713 -326Q714 -322 725 -322V-317Q727 -309 728 -301Q728 -297 725 -294H727Q736 -296 744 -298Q748 -324 752 -350Q752 -359 749 -371Q772 -384 795 -384Q806 -384 812 -383Q850 -340 850 -305Q850 -286 833 -273Q832 -274 828 -274V-278Q830 -290 837 -298Q833 -315 830 -319Q813 -317 802 -301Q780 -261 780 -240Q780 -232 781 -228Q787 -228 795 -240Q805 -255 816 -256Q814 -246 802 -232Q788 -216 787 -202Q800 -203 813 -204H818Q821 -213 838 -220Q854 -227 869 -227Q887 -227 895 -219Q899 -221 902 -223H905Q907 -223 909 -218Q910 -214 913 -213Q919 -220 924 -228Q929 -236 938 -241Q938 -236 932 -225Q926 -213 926 -208Q926 -200 936 -196H937Q942 -196 945 -200Q948 -204 949 -204Q947 -194 947 -190Q947 -174 959 -147Q970 -122 970 -109Q970 -99 966 -90Q963 -91 957 -91Q942 -90 935 -80Q927 -69 919 -61Q917 -64 917 -68Q917 -72 922 -81Q927 -90 927 -95Q927 -101 923 -106H922Q903 -105 894 -90Q885 -75 877 -60Q863 -40 846 -14Q829 11 827 40Q827 50 830 60Q836 56 847 34Q870 -8 881 -21Q884 -26 888 -32Q892 -37 897 -38Q899 -38 902 -35L903 -32Q901 -26 895 -21Q869 13 830 100Q824 103 819 103Q805 100 791 96Q787 90 787 84Z"/>
</svg>