<svg xmlns="http://www.w3.org/2000/svg" viewBox="0 -800 1024 1024">
	<path fill="#000000" d="M917 -135Q915 -125 912 -116Q904 -117 904 -132Q904 -137 906 -143H909Q913 -143 916 -140Q917 -138 917 -135ZM906 -648Q894 -645 886 -637Q878 -629 872 -620Q876 -597 887 -582H891Q897 -582 900 -581Q887 -572 882 -542Q877 -520 877 -513Q877 -499 887 -488Q878 -490 869 -501Q862 -510 857 -512Q846 -508 846 -500Q846 -497 847 -495Q837 -497 827 -500Q823 -500 821 -498Q808 -503 797 -510Q786 -517 767 -518Q770 -524 771 -524Q760 -545 745 -568Q729 -590 728 -617Q728 -630 732 -641V-642Q731 -645 730 -649L731 -651H733Q737 -650 741 -650H743Q757 -671 757 -681Q757 -684 755 -690Q763 -688 771 -680Q778 -682 785 -696Q792 -709 799 -713Q796 -702 796 -694Q796 -677 808 -669Q825 -684 842 -698Q859 -712 885 -717Q862 -703 853 -694Q836 -679 832 -659Q834 -651 857 -651Q853 -644 847 -641Q850 -636 853 -632Q880 -646 906 -648ZM812 -734V-732Q810 -727 808 -723Q806 -725 802 -725Q798 -725 798 -723Q797 -724 797 -728Q797 -739 805 -739Q809 -739 811 -737ZM937 -653Q931 -647 922 -647Q917 -647 915 -650Q915 -657 928 -657Q935 -657 937 -653ZM596 -229Q597 -222 597 -216Q597 -197 583 -184Q551 -176 538 -176Q513 -176 498 -194Q474 -227 463 -264H464Q468 -263 471 -257Q474 -251 477 -246Q489 -230 496 -226Q497 -230 497 -236Q497 -256 483 -278Q470 -298 446 -336Q438 -333 433 -328Q447 -301 451 -284Q450 -285 435 -305Q425 -295 425 -285Q426 -281 426 -278Q405 -269 398 -247Q390 -224 381 -204Q380 -207 380 -213Q383 -231 386 -249Q386 -257 382 -262Q368 -257 361 -238Q350 -183 350 -178V-169Q350 -154 360 -149Q365 -150 367 -158Q370 -168 376 -168Q377 -153 378 -139Q378 -132 377 -129Q368 -106 349 -90Q335 -79 324 -79Q305 -87 297 -114V-127Q295 -133 288 -140Q280 -148 279 -155Q285 -152 291 -149Q292 -149 296 -151V-152Q296 -157 284 -162Q271 -167 270 -174Q282 -169 296 -167H298Q308 -184 324 -257Q311 -250 298 -247Q289 -241 278 -233Q268 -225 255 -224Q250 -224 247 -225Q244 -226 231 -242Q217 -259 217 -267V-268Q219 -273 221 -279Q219 -284 216 -289Q204 -283 205 -280Q206 -277 205 -272Q187 -259 184 -222Q193 -235 200 -236Q203 -237 218 -237Q227 -237 230 -236Q236 -235 249 -217Q260 -202 263 -194Q264 -192 264 -185Q264 -173 249 -149Q234 -125 233 -114Q231 -98 231 -90Q231 -71 239 -64Q260 -61 287 -61Q341 -61 435 -75Q441 -88 447 -102Q450 -100 451 -95Q452 -88 455 -87Q464 -137 473 -187Q477 -182 477 -170Q476 -149 474 -129Q474 -123 476 -117Q481 -127 481 -159Q481 -187 486 -198Q488 -183 490 -153Q492 -113 496 -97Q497 -102 500 -140Q506 -134 506 -123Q506 -112 507 -100Q511 -87 516 -78Q525 -67 533 -57Q541 -42 541 -13Q537 10 527 30H524Q508 35 492 40Q486 41 471 41H432Q419 41 317 44Q319 37 330 34Q344 31 360 31Q374 32 388 32Q418 32 433 21Q427 11 409 11Q386 14 363 16H355Q314 14 273 12Q246 10 239 21Q242 30 255 32Q269 34 273 40Q257 44 238 44Q197 44 175 21Q150 -2 150 -25V-32Q154 -63 166 -92Q177 -121 181 -156V-159Q177 -175 173 -192V-198Q175 -205 179 -212Q158 -204 157 -204H155Q144 -206 139 -214Q134 -222 131 -227Q125 -224 123 -215Q113 -217 103 -225Q99 -250 94 -275Q89 -278 90 -294Q91 -309 97 -313V-316Q97 -320 93 -325Q88 -332 88 -336V-337L92 -338Q100 -333 107 -329Q129 -340 137 -362Q146 -384 161 -403V-404L159 -408L161 -410Q171 -430 179 -454Q186 -477 201 -492Q201 -474 186 -443Q171 -411 171 -392Q209 -437 232 -513Q241 -531 243 -549Q243 -553 241 -559Q232 -559 226 -542Q222 -529 216 -529Q217 -541 225 -566Q236 -601 236 -617Q236 -639 224 -652Q226 -657 226 -666Q226 -680 217 -686Q229 -693 242 -699Q255 -705 262 -719Q285 -724 301 -735Q310 -729 318 -724Q326 -718 340 -717Q340 -713 339 -709Q339 -691 355 -681Q360 -682 364 -686Q369 -692 372 -692Q372 -687 367 -678Q362 -669 362 -662V-657Q366 -630 372 -605Q365 -590 357 -575Q387 -515 429 -464Q449 -436 468 -414Q478 -401 488 -388Q499 -375 514 -368Q524 -377 524 -396Q523 -416 533 -424Q534 -420 534 -411Q534 -398 533 -386Q533 -377 536 -370Q542 -389 542 -416Q541 -448 540 -481Q540 -499 541 -506V-509Q541 -518 546 -519Q551 -516 551 -513Q550 -507 549 -502V-489Q549 -444 552 -399Q552 -394 553 -391Q558 -406 571 -412Q585 -417 605 -426Q603 -441 584 -479Q561 -524 560 -546Q560 -556 559 -567Q559 -592 569 -603Q575 -557 581 -512Q592 -530 592 -565Q592 -585 585 -639Q581 -665 569 -672Q563 -656 557 -641Q549 -658 544 -664Q535 -676 525 -676Q518 -676 511 -672Q510 -674 510 -677Q511 -686 519 -690Q527 -694 533 -698Q528 -705 525 -705H523Q539 -722 552 -744Q564 -768 590 -770H591Q609 -770 641 -738Q680 -701 680 -663Q680 -658 679 -654Q678 -645 670 -628Q660 -607 658 -597Q653 -579 663 -538Q672 -498 671 -482Q674 -472 677 -462Q677 -451 682 -446Q694 -451 724 -467Q761 -487 786 -494Q793 -487 797 -487Q800 -487 803 -489Q809 -479 820 -473Q841 -480 843 -480Q849 -480 853 -477Q848 -475 843 -473Q837 -471 835 -465Q837 -460 839 -456V-455Q845 -458 851 -458H854Q846 -448 846 -438Q846 -430 851 -426Q849 -422 847 -419Q844 -410 844 -395Q849 -383 853 -371Q847 -356 829 -345Q813 -337 790 -333Q766 -329 745 -322Q712 -314 709 -283Q709 -273 715 -260Q719 -266 725 -272Q730 -279 731 -286Q731 -287 729 -293Q743 -299 759 -299Q765 -300 773 -305Q783 -311 787 -311H788Q798 -307 807 -303Q809 -303 813 -305Q811 -299 811 -295Q811 -283 822 -273Q833 -263 847 -261Q846 -257 846 -250Q846 -238 854 -222Q847 -195 841 -180Q839 -181 836 -181Q829 -179 821 -177H820Q819 -180 815 -186Q817 -191 825 -197Q833 -204 836 -210Q838 -216 838 -221Q836 -248 818 -254H817Q805 -254 805 -237Q806 -230 806 -224Q806 -218 805 -216Q803 -208 784 -195Q763 -181 763 -169Q763 -165 764 -162H765Q776 -164 787 -167Q792 -167 794 -165Q790 -158 781 -152Q767 -142 764 -134Q798 -64 845 -23Q856 -36 863 -68Q865 -66 867 -59Q869 -51 873 -50Q874 -59 874 -68Q871 -120 867 -172Q867 -189 870 -206Q880 -110 889 -66Q891 -73 891 -91V-123Q891 -146 895 -158Q899 -84 907 -17Q909 -31 909 -40Q909 -59 908 -79Q908 -92 909 -98Q918 -72 918 -41Q920 -17 932 19Q935 30 942 44Q952 64 952 70V73Q950 98 929 107Q907 117 887 128Q866 115 838 111Q834 107 811 82Q805 76 797 70Q790 63 789 56L790 52H791Q800 52 818 70Q839 91 853 91Q858 91 860 90Q848 72 833 58Q818 45 805 30Q792 14 782 -3Q771 -21 754 -31V-28Q754 -20 762 -8Q768 1 768 9Q768 14 765 20Q746 7 732 -16Q718 -38 709 -62Q689 -53 668 -30Q648 -8 639 15Q612 -5 601 -5Q590 -5 580 5Q582 1 592 -12Q588 -20 583 -26Q578 -33 577 -44V-48Q574 -53 559 -57Q559 -61 568 -78L565 -79Q553 -75 540 -69L656 -186Q650 -237 643 -258Q623 -234 596 -229ZM440 -346Q439 -347 429 -365Q411 -397 399 -405Q400 -386 425 -340Q433 -343 440 -346ZM395 -374Q371 -421 341 -457Q340 -466 334 -472Q328 -478 324 -484Q321 -490 319 -495Q316 -500 310 -500Q299 -500 292 -484Q267 -427 244 -380V-370Q239 -365 236 -356Q241 -356 243 -327Q257 -328 268 -339L265 -340H264Q259 -340 258 -341V-343Q259 -347 273 -346Q286 -345 296 -345Q323 -349 333 -352Q385 -373 395 -374Z"/>
</svg>