<svg xmlns="http://www.w3.org/2000/svg" viewBox="0 -800 1024 1024">
	<path fill="#000000" d="M17 -571L14 -577Q15 -585 29 -585Q35 -585 43 -583Q33 -573 17 -571ZM221 -355V-346Q277 -295 288 -232L284 -233Q280 -233 274 -231Q272 -227 266 -221Q257 -213 256 -204Q243 -206 206 -222Q198 -220 197 -214L196 -216Q196 -219 199 -222Q198 -224 188 -234Q180 -232 172 -231Q175 -237 175 -241Q175 -249 160 -263Q146 -276 144 -286H119Q124 -293 138 -301Q133 -311 133 -316Q133 -336 168 -349V-369Q172 -347 200 -347Q208 -347 212 -348H213Q216 -348 216 -350Q216 -354 221 -355ZM159 106H153Q129 104 116 85Q102 66 89 53Q81 48 71 43Q61 38 58 27Q58 3 45 -10Q51 -29 51 -49Q61 -77 71 -99Q72 -102 72 -110V-115Q72 -129 79 -136Q80 -122 81 -107Q82 -93 92 -88Q138 -118 196 -154Q254 -191 310 -203Q308 -198 286 -182Q256 -160 253 -151Q263 -157 272 -160Q276 -160 280 -156Q274 -152 268 -148Q261 -145 259 -136Q261 -133 262 -130Q263 -130 279 -138Q278 -135 273 -131Q266 -126 265 -120V-117Q268 -102 274 -88Q283 -97 291 -97H294L297 -88Q283 -87 274 -73Q274 -72 282 -67Q277 -65 277 -63Q276 -60 275 -60L273 -61L274 -58Q274 -54 273 -50L276 -48Q259 -31 241 -16Q223 0 209 20Q207 16 207 9Q208 -7 221 -19Q233 -31 240 -43Q190 -16 150 51Q152 54 154 57Q163 54 175 41Q186 29 194 26Q195 27 195 31Q193 41 190 51Q190 54 191 56H190Q188 55 185 53V62Q185 68 187 72Q182 80 159 106ZM262 -390V-387Q255 -387 253 -388Q247 -382 236 -382Q226 -382 205 -390V-397Q230 -400 241 -405Q257 -412 259 -429Q259 -430 253 -433Q247 -432 241 -424Q237 -418 233 -417Q206 -419 182 -438Q177 -437 172 -429Q177 -422 184 -418Q190 -414 191 -403Q179 -406 171 -413Q164 -421 156 -427H151Q141 -427 122 -415Q124 -425 131 -429Q121 -458 104 -460Q101 -460 98 -461Q87 -461 65 -446Q46 -433 36 -432Q46 -445 70 -463Q95 -481 103 -492Q102 -497 101 -503V-505Q94 -511 71 -513Q82 -520 95 -525V-527Q96 -532 96 -538L95 -542Q84 -543 73 -545Q81 -553 89 -561Q85 -585 70 -589Q58 -585 46 -582Q52 -590 63 -594Q74 -598 85 -604Q88 -613 88 -624Q88 -633 86 -657Q92 -648 95 -646Q100 -642 111 -642Q116 -647 119 -655Q132 -648 151 -648Q169 -647 172 -631Q183 -634 191 -639Q187 -629 185 -627Q191 -617 200 -611Q206 -613 211 -618Q218 -625 224 -625H226Q212 -619 212 -609Q212 -599 224 -589Q235 -580 247 -580H252Q255 -572 263 -562Q276 -547 276 -533V-531Q282 -527 286 -522V-520Q284 -518 282 -517V-516Q288 -507 288 -488V-481Q288 -467 291 -460Q278 -439 274 -412Q272 -408 264 -406Q263 -398 262 -390ZM903 -202Q903 -194 894 -178Q886 -180 886 -190Q887 -202 897 -204Q899 -204 903 -202ZM367 38V47Q355 52 342 56Q337 49 337 46Q350 39 361 37Q365 37 367 38ZM433 -338Q422 -338 411 -339Q402 -339 395 -335Q391 -328 391 -313Q392 -304 392 -295Q412 -301 432 -308Q431 -311 431 -318Q431 -322 433 -338ZM398 -406V-400Q418 -406 438 -413Q440 -427 440 -441Q440 -456 436 -463Q430 -456 395 -433Q397 -419 398 -406ZM774 -582V-581Q749 -579 718 -561Q692 -546 670 -526H669Q662 -529 657 -533Q650 -531 648 -527Q636 -544 600 -565Q574 -580 564 -589Q569 -598 569 -610Q569 -629 549 -658Q563 -662 564 -667H565Q577 -668 586 -676Q594 -684 605 -691Q619 -697 632 -703Q641 -711 651 -714Q652 -714 656 -712Q642 -697 624 -685Q606 -673 604 -648V-644Q622 -651 635 -663Q649 -675 664 -687Q679 -697 696 -703Q713 -710 724 -725Q718 -731 713 -731Q701 -728 687 -722Q689 -736 703 -752Q716 -767 719 -778Q727 -770 733 -762Q739 -753 749 -750Q754 -754 761 -757Q763 -756 765 -755L767 -752Q765 -750 762 -743Q768 -738 774 -733Q782 -740 795 -744Q796 -744 802 -742Q800 -739 793 -735Q785 -730 785 -727L786 -724Q788 -722 792 -722Q803 -724 813 -727Q816 -727 820 -725Q820 -721 812 -716Q804 -710 803 -704V-703Q803 -698 811 -685Q823 -666 823 -655Q822 -629 793 -608Q791 -603 791 -590Q774 -588 774 -582ZM965 5V9Q965 19 952 50Q941 79 927 85Q912 84 897 84Q882 83 873 77Q875 69 885 69Q895 70 905 70Q912 70 915 68Q908 49 881 43Q877 42 829 38Q769 32 765 32Q735 32 718 44Q732 52 777 54Q826 56 841 68Q834 71 824 71Q801 69 777 67Q762 67 749 74Q737 67 725 67Q698 68 688 88Q686 60 662 38V35Q662 32 669 23Q661 -1 654 -11Q659 -22 671 -43Q685 -66 690 -83Q704 -125 704 -158V-169Q680 -98 654 -31Q616 63 610 111Q603 108 597 108Q580 108 571 121Q552 116 536 108Q519 100 497 98Q494 82 484 68Q449 63 416 60Q451 55 485 50Q475 39 454 39Q424 42 394 44Q384 44 379 43Q386 40 452 26Q498 16 518 -3Q533 -17 550 -48Q571 -87 589 -97Q577 -70 565 -43Q549 -4 549 8V13Q578 -20 602 -72Q619 -110 639 -172Q630 -170 620 -154Q612 -141 607 -140Q609 -155 620 -175Q630 -193 632 -202L630 -203Q624 -200 618 -198L615 -199V-202Q615 -206 621 -211Q628 -217 629 -223Q626 -224 621 -224Q610 -224 592 -214Q570 -202 556 -202H552Q549 -197 549 -193Q553 -178 565 -170Q572 -171 579 -177Q590 -185 599 -185H604Q595 -158 572 -158Q556 -158 543 -170Q529 -182 527 -200Q523 -196 523 -192Q523 -186 533 -175Q541 -166 543 -163Q550 -147 556 -131Q561 -133 566 -136Q570 -136 571 -133Q560 -127 553 -98Q548 -79 543 -71Q518 -68 495 -67Q472 -65 461 -44Q447 -40 438 -33Q429 -25 419 -19Q415 -9 413 4V7Q408 5 399 5Q377 5 355 13Q351 7 351 2Q351 -1 353 -3Q346 -13 334 -19Q334 -35 322 -44Q323 -48 323 -53Q323 -71 311 -83Q312 -84 315 -95Q312 -102 305 -104Q297 -106 291 -109Q298 -116 306 -119Q338 -146 340 -193Q342 -241 343 -295Q344 -304 344 -313Q340 -363 336 -414Q336 -429 339 -446Q335 -450 328 -453Q319 -457 316 -463Q316 -464 321 -479Q314 -483 314 -496Q314 -508 308 -512Q299 -510 290 -508Q309 -540 341 -566Q372 -592 399 -618Q408 -629 417 -641Q442 -663 488 -670Q494 -678 499 -689Q504 -700 513 -701H515V-699Q515 -695 510 -687Q504 -677 504 -670Q505 -667 505 -664L507 -662Q512 -665 516 -669L517 -668V-667Q516 -663 514 -660V-658H516Q518 -658 523 -663Q529 -670 536 -670H537L538 -668Q535 -661 531 -655V-651Q531 -644 535 -639Q539 -634 547 -634V-628Q547 -616 556 -588Q565 -560 565 -543Q565 -533 562 -521H559Q555 -521 547 -517Q543 -510 540 -491Q535 -464 527 -457Q526 -462 526 -470Q526 -487 537 -517Q546 -541 546 -554Q546 -565 540 -577Q538 -578 533 -578Q512 -578 505 -508Q499 -447 497 -402Q497 -385 500 -370Q508 -375 512 -397Q516 -420 525 -425Q527 -413 527 -408Q523 -374 519 -341Q519 -329 524 -316Q518 -298 517 -276Q514 -275 511 -275Q501 -275 491 -281Q477 -273 462 -264Q447 -256 441 -239H439Q426 -235 413 -231Q404 -231 395 -232Q389 -223 389 -205Q390 -190 390 -175V-166Q409 -174 428 -182Q426 -192 426 -196Q426 -218 441 -233Q457 -235 473 -237Q481 -237 488 -232Q493 -236 499 -239H502L504 -238Q502 -234 499 -231V-230Q502 -211 512 -202Q520 -205 527 -209Q523 -214 523 -221Q527 -239 531 -257Q525 -278 521 -299Q521 -305 522 -308Q536 -324 550 -341Q554 -341 554 -338Q554 -334 553 -331Q562 -334 571 -337Q571 -344 577 -364Q583 -385 583 -398V-401Q580 -413 577 -425V-429Q578 -442 579 -456V-461Q579 -468 571 -477Q564 -485 564 -489V-490Q575 -487 584 -487Q593 -487 601 -488Q605 -487 608 -487Q627 -480 639 -462Q651 -444 673 -439V-434Q672 -414 670 -395H673Q678 -395 686 -400Q695 -406 702 -406H706Q710 -431 710 -462Q710 -484 709 -506Q710 -519 710 -532H719Q732 -531 745 -531Q752 -531 755 -532Q758 -533 763 -538Q768 -544 772 -544Q773 -544 777 -542Q796 -510 818 -494Q815 -487 810 -479Q805 -471 804 -461Q804 -457 805 -455Q821 -464 842 -475Q863 -486 873 -508Q878 -493 888 -485Q896 -489 906 -491H910V-490Q910 -488 906 -485Q901 -480 900 -477Q904 -472 912 -472Q921 -472 929 -473H933Q923 -466 922 -465Q916 -460 916 -452V-451L917 -450Q920 -450 923 -451H925Q915 -431 915 -423Q915 -414 922 -407Q913 -396 909 -348H904Q893 -348 877 -342Q859 -335 848 -335Q851 -347 872 -353Q889 -358 892 -365Q885 -373 870 -373Q863 -373 851 -371Q830 -364 803 -347Q779 -333 768 -324Q751 -310 744 -293Q754 -294 762 -301Q769 -308 777 -313Q788 -316 798 -319Q809 -326 821 -329Q825 -329 829 -326Q820 -317 789 -303Q743 -282 734 -268Q729 -262 729 -253Q732 -239 740 -220L742 -218Q745 -220 747 -222L749 -221Q752 -196 759 -175Q749 -151 749 -92V-61Q758 -53 780 -53Q802 -54 824 -55Q837 -71 843 -94Q849 -117 857 -138Q859 -134 859 -126Q857 -107 854 -89Q854 -82 857 -78Q866 -101 868 -159Q870 -212 876 -233H880Q881 -226 881 -212Q879 -173 877 -134Q877 -117 880 -101Q889 -134 892 -172Q898 -147 897 -113Q896 -78 912 -61Q914 -63 915 -71Q916 -82 921 -83Q923 -63 934 -52Q945 -41 955 -29Q954 -27 954 -22Q958 -8 965 5Z"/>
</svg>