<svg xmlns="http://www.w3.org/2000/svg" viewBox="0 -800 1024 1024">
	<path fill="#000000" d="M866 -790V-788Q861 -789 861 -794Q861 -801 866 -809Q875 -807 875 -802Q875 -799 871 -797Q866 -794 866 -790ZM898 -304Q900 -305 903 -305Q912 -305 913 -299Q908 -296 904 -283Q900 -285 900 -292Q899 -298 898 -304ZM839 -38Q827 -39 824 -53Q828 -55 831 -55Q841 -54 842 -45Q842 -41 839 -38ZM426 -219Q422 -205 410 -203Q405 -203 403 -205Q407 -220 421 -220Q424 -219 426 -219ZM965 -716V-707Q946 -709 946 -720V-722H949Q957 -723 964 -724Q965 -722 965 -716ZM514 -331H515Q522 -334 528 -337Q526 -331 526 -327Q526 -317 539 -294Q533 -287 529 -268Q526 -254 524 -250Q514 -240 495 -240Q468 -240 444 -253Q441 -261 430 -269Q419 -277 416 -283H403Q408 -290 414 -298Q414 -304 406 -313Q399 -321 398 -328Q407 -331 416 -335Q416 -358 406 -367H409Q413 -367 419 -361Q424 -356 426 -355Q438 -358 443 -373ZM936 -632V-631Q930 -637 924 -637Q911 -637 900 -604Q888 -608 881 -608H877Q872 -605 872 -590Q864 -598 860 -611Q831 -622 807 -652Q799 -662 770 -708Q761 -711 759 -711Q774 -748 774 -765Q774 -774 771 -785Q785 -781 793 -781Q801 -781 807 -788Q811 -786 814 -779Q818 -772 821 -770Q827 -773 837 -775Q853 -777 857 -784L859 -781Q857 -776 854 -771Q857 -762 866 -757Q884 -761 899 -770Q914 -779 930 -787Q926 -780 910 -768Q887 -751 887 -737Q887 -733 888 -730Q896 -730 908 -738Q918 -744 927 -745Q924 -739 915 -731Q905 -722 903 -715Q904 -713 904 -710L908 -709Q923 -713 937 -717Q940 -717 942 -716Q933 -710 924 -704Q921 -698 921 -694Q924 -681 927 -668Q926 -661 924 -655V-653Q925 -648 930 -643Q936 -636 936 -632ZM395 -85V-88Q395 -109 410 -134Q426 -168 429 -176Q429 -164 437 -154Q500 -207 565 -257H566L568 -256Q567 -252 566 -249L568 -247Q541 -225 530 -197Q534 -198 541 -206Q552 -219 562 -219Q557 -210 548 -198Q540 -186 539 -174Q539 -162 552 -156Q551 -154 546 -152Q540 -150 539 -147Q547 -136 547 -124Q547 -118 546 -115Q505 -97 505 -54Q505 -43 506 -38Q500 -22 493 -8Q487 6 468 7Q459 7 453 5Q428 -3 414 -28Q411 -44 407 -61Q400 -72 395 -85ZM385 -109H379Q382 -105 384 -102L383 -100Q320 -70 246 -28Q251 -47 278 -60Q304 -73 321 -82Q328 -87 332 -94H329Q296 -93 270 -78Q244 -63 216 -44Q193 -31 176 -14Q154 7 154 25V29Q156 44 169 44Q173 44 175 43Q182 41 189 22Q197 -1 210 -1H213Q209 5 198 38Q190 62 178 70Q151 66 123 62Q114 19 91 10Q91 -48 55 -79Q65 -77 70 -77Q82 -77 87 -82Q80 -86 72 -87Q80 -91 90 -92Q101 -93 105 -101Q180 -111 259 -154V-156Q258 -159 257 -162L258 -164Q249 -161 242 -161Q217 -165 195 -172Q188 -176 184 -184Q180 -191 175 -197Q178 -203 182 -208Q179 -218 161 -232Q161 -235 168 -235Q174 -235 175 -238Q192 -288 250 -294Q255 -298 255 -306Q253 -319 250 -332Q230 -330 191 -303Q158 -279 142 -277H138Q121 -280 106 -289Q103 -302 85 -323Q63 -348 63 -366Q63 -379 71 -394Q58 -420 58 -433V-436Q60 -445 66 -450Q72 -454 78 -461Q90 -479 100 -505Q110 -532 130 -538Q118 -522 114 -499Q114 -489 120 -482Q157 -491 166 -499Q169 -497 170 -494Q199 -506 227 -518Q254 -530 287 -539Q287 -537 291 -533Q259 -515 222 -500Q208 -494 188 -488Q156 -479 148 -472Q139 -465 139 -454Q139 -448 143 -445Q172 -447 205 -463Q238 -478 264 -490Q294 -502 321 -514Q349 -525 368 -545Q363 -549 354 -549Q342 -548 330 -547Q327 -547 324 -548Q328 -566 349 -569Q357 -581 370 -581Q375 -581 377 -580Q384 -589 409 -597Q428 -603 434 -607L435 -604Q435 -599 423 -592Q411 -585 410 -578Q418 -579 425 -580H428Q424 -573 417 -566Q411 -559 410 -551L411 -547H412Q416 -548 420 -549L423 -547L417 -529Q425 -521 426 -507Q428 -494 431 -481Q434 -480 437 -479Q437 -474 436 -469Q436 -455 445 -454Q435 -444 432 -424Q372 -406 354 -388Q358 -383 358 -375Q355 -357 352 -339Q352 -330 356 -323Q360 -324 367 -329Q373 -334 380 -334L381 -332Q378 -324 374 -316Q387 -303 387 -264Q387 -247 386 -230Q376 -218 357 -212Q337 -206 335 -187Q336 -184 336 -181Q353 -187 365 -193Q377 -199 395 -200Q386 -193 378 -185Q369 -177 365 -164L367 -163Q369 -163 372 -166Q376 -171 379 -171L383 -170Q382 -165 377 -159Q373 -152 372 -142Q372 -137 373 -134L374 -133Q377 -134 379 -135L380 -134Q379 -131 379 -127Q381 -115 385 -109ZM948 -78V-74Q947 -64 941 -57Q934 -51 928 -44Q922 -35 917 -25Q912 -16 903 -13Q900 -12 894 -12Q863 -14 848 -32Q851 -35 854 -35Q865 -32 876 -29Q880 -29 883 -32Q857 -77 799 -121Q753 -161 694 -190Q701 -175 717 -161Q723 -155 747 -137Q786 -107 796 -79Q766 -108 734 -133Q701 -157 668 -184V-181Q666 -153 666 -140Q666 -53 696 41Q689 55 681 66Q672 77 669 93Q660 96 653 102Q647 108 639 113Q633 111 627 107Q622 103 611 103H609Q602 94 598 84Q594 73 583 68Q577 56 570 25Q560 -16 549 -31H551Q557 -30 562 -29H564Q562 -39 542 -54Q525 -67 523 -74Q547 -67 567 -55Q571 -68 570 -86Q570 -104 583 -107Q587 -94 590 -80Q592 -67 603 -61Q609 -67 609 -83V-90Q613 -122 613 -135V-156Q617 -211 621 -267Q621 -280 620 -287Q622 -315 613 -341Q598 -330 597 -307Q595 -284 595 -260Q592 -220 588 -181V-158Q588 -136 576 -134Q575 -141 575 -154Q577 -188 582 -220Q584 -249 584 -280Q585 -312 592 -338Q589 -353 589 -372Q589 -389 592 -403Q574 -392 553 -382Q532 -371 507 -370Q498 -370 494 -371Q489 -382 484 -394Q474 -402 463 -410Q454 -423 454 -436Q458 -458 461 -481Q461 -485 460 -490Q457 -499 454 -508V-510Q458 -545 488 -560Q492 -558 495 -558Q504 -560 512 -562Q517 -562 520 -559Q516 -549 511 -534Q511 -528 518 -524Q530 -525 539 -532Q549 -539 559 -544Q570 -548 582 -551Q593 -554 598 -566Q595 -573 586 -573Q576 -572 565 -571Q557 -571 553 -575Q556 -582 565 -585Q567 -586 580 -587Q581 -592 586 -593Q590 -595 595 -596Q592 -619 590 -644Q588 -666 568 -670Q570 -676 570 -679Q570 -689 561 -691Q576 -710 591 -728Q606 -746 624 -761H632Q664 -761 688 -734Q705 -715 721 -676Q712 -653 712 -643Q712 -636 713 -632Q726 -638 737 -644Q747 -651 764 -653Q771 -644 798 -644Q796 -636 796 -633Q796 -610 825 -610H832Q816 -602 811 -593Q813 -581 813 -567Q813 -554 821 -548Q817 -534 813 -520Q810 -507 796 -502Q795 -496 793 -490V-488H791Q783 -487 774 -486Q768 -486 764 -488Q719 -473 710 -463Q708 -463 705 -464Q699 -464 685 -457Q672 -388 672 -336V-320Q685 -341 705 -359Q725 -377 730 -404V-409Q730 -421 729 -434Q729 -444 731 -448H735Q749 -448 772 -461Q797 -475 810 -475H813Q824 -474 835 -460Q846 -446 858 -446H860Q859 -444 859 -440Q862 -430 868 -421Q864 -413 860 -406Q865 -393 865 -384Q862 -360 856 -334Q853 -334 849 -335Q838 -333 827 -331L823 -332Q829 -342 838 -354Q847 -366 848 -379Q848 -389 839 -400Q826 -397 813 -376Q802 -359 793 -353Q778 -345 762 -338Q745 -330 740 -311H744Q751 -311 764 -318Q777 -325 785 -325Q790 -325 796 -322Q776 -309 754 -298Q732 -286 718 -268Q783 -226 856 -191Q863 -199 863 -218V-242Q869 -231 875 -203Q879 -216 879 -236Q879 -258 878 -280Q878 -303 883 -316Q887 -300 888 -258Q889 -214 895 -196Q896 -203 896 -216Q896 -233 895 -250Q895 -258 897 -278Q902 -276 904 -263Q907 -238 907 -210Q908 -181 915 -160Q918 -161 918 -166Q918 -172 922 -172Q926 -165 929 -145Q931 -131 934 -122Q948 -90 948 -78Z"/>
</svg>