<svg xmlns="http://www.w3.org/2000/svg" viewBox="0 -800 1024 1024">
	<path fill="#000000" d="M476 -681Q480 -697 494 -697Q495 -695 495 -691Q494 -681 482 -680Q478 -680 476 -681ZM843 -537H837V-538Q837 -549 852 -549Q858 -549 861 -548Q859 -541 855 -539Q851 -537 843 -537ZM288 -149V-155Q288 -169 294 -197Q275 -191 258 -182Q241 -174 240 -150Q240 -147 242 -135Q265 -142 288 -149ZM298 -273V-276Q299 -290 300 -305Q300 -312 297 -318Q279 -308 259 -297Q238 -286 236 -262Q236 -255 239 -246Q275 -269 298 -273ZM297 -391V-397Q298 -426 299 -455Q299 -476 295 -489Q272 -473 257 -437Q243 -403 243 -368V-364Q257 -371 269 -379Q280 -387 297 -391ZM398 -28H396Q389 -28 375 -17Q358 -3 345 -3Q338 -3 330 -6Q327 -14 316 -25Q302 -39 302 -48Q302 -52 303 -54Q297 -61 294 -71Q266 -67 250 -52Q234 -36 220 -19Q217 -19 214 -20Q204 -20 201 -11H197Q145 -15 143 -62Q139 -68 131 -71Q136 -86 136 -110Q136 -130 131 -166Q125 -209 125 -228Q125 -248 127 -258Q136 -249 136 -232Q143 -171 156 -147Q164 -164 164 -188Q164 -206 159 -239Q153 -276 153 -291Q151 -318 149 -324Q145 -341 134 -345Q131 -342 131 -332Q132 -321 132 -311Q132 -300 124 -297Q118 -309 112 -341Q109 -358 104 -372Q97 -391 67 -429Q65 -437 65 -440Q68 -455 73 -468Q76 -481 78 -495Q84 -506 86 -516V-520Q86 -527 82 -542Q77 -560 77 -570Q77 -580 79 -585Q86 -569 89 -546Q96 -524 103 -524L107 -525Q106 -530 100 -538Q95 -547 94 -556Q94 -560 97 -565Q104 -561 109 -546Q113 -534 116 -531Q122 -532 122 -537Q119 -546 115 -555Q123 -555 131 -545Q139 -536 146 -535Q159 -537 171 -540Q187 -540 204 -526Q223 -537 255 -566Q285 -593 303 -604Q299 -609 299 -614Q301 -621 302 -629Q302 -631 301 -634Q306 -634 312 -642Q317 -648 322 -649Q321 -651 321 -655Q321 -662 331 -669Q342 -676 343 -683Q365 -689 381 -689Q410 -689 414 -667Q426 -673 443 -689Q459 -704 467 -709V-708Q467 -701 457 -689Q445 -674 445 -662V-661H446Q448 -661 453 -667Q460 -675 466 -675V-673Q462 -664 458 -655V-634Q463 -626 469 -618Q473 -609 473 -597Q473 -588 469 -570Q442 -551 429 -519Q415 -486 410 -446Q402 -360 390 -278Q379 -284 379 -310Q380 -326 380 -342Q380 -358 377 -363Q369 -350 360 -303Q350 -253 350 -199Q350 -153 359 -123Q372 -129 372 -156Q372 -171 371 -187Q371 -209 378 -216Q384 -205 384 -188Q384 -176 383 -165V-159Q384 -139 393 -105Q401 -75 402 -63V-59Q400 -45 398 -32ZM913 86V87Q872 67 772 61H749Q731 61 720 55Q728 46 747 46Q763 47 779 48Q785 48 790 47Q815 47 827 42Q822 29 796 25Q772 23 757 23Q715 23 643 30Q618 32 613 34Q599 38 595 50Q603 52 610 52Q631 51 651 49Q668 49 675 54Q668 66 648 63Q622 68 598 75H585Q580 75 578 76Q573 78 557 88Q536 102 525 102H523Q504 94 487 75Q476 60 470 32Q469 28 463 -15Q460 -27 454 -35Q448 -43 443 -53H445Q457 -50 469 -48Q472 -48 478 -51Q486 -56 491 -78Q496 -100 506 -103Q509 -100 509 -95Q509 -87 508 -79Q508 -70 512 -68Q543 -110 543 -186Q543 -244 531 -263Q517 -259 517 -242Q520 -218 522 -195V-191Q518 -147 507 -135Q503 -144 503 -156Q506 -178 509 -201Q508 -213 494 -247Q484 -269 470 -286V-318Q479 -327 493 -350Q507 -372 515 -381Q527 -381 543 -374Q561 -366 573 -366H577Q588 -336 606 -327V-325Q604 -321 602 -317V-316Q608 -303 609 -303Q608 -300 608 -296Q608 -289 613 -275Q617 -263 617 -256V-254Q615 -242 609 -232Q607 -214 607 -204V-185Q607 -163 605 -153Q598 -130 595 -111V-108Q588 -102 572 -74Q580 -70 591 -70Q613 -72 634 -74H640Q643 -82 646 -91Q643 -97 635 -103Q623 -112 621 -119Q625 -127 625 -132Q625 -134 624 -137Q620 -137 616 -131Q613 -125 608 -125Q613 -148 627 -164Q641 -181 661 -183Q667 -188 667 -195Q667 -208 648 -220Q644 -232 641 -236Q635 -243 624 -244Q638 -273 669 -288Q666 -304 648 -304Q642 -304 640 -303Q616 -316 603 -346Q591 -374 589 -417Q590 -420 593 -422Q597 -425 598 -429H600Q603 -428 606 -427Q612 -434 618 -439Q621 -438 626 -438Q655 -442 682 -457V-458Q682 -466 671 -466Q664 -466 661 -463Q659 -465 659 -467Q659 -470 666 -477Q659 -498 659 -515Q659 -532 666 -543Q652 -533 639 -511Q626 -489 615 -470Q586 -428 555 -388Q551 -391 548 -392Q545 -394 544 -399Q542 -398 539 -398Q534 -400 528 -402Q527 -413 516 -425Q509 -432 507 -439Q499 -439 492 -433Q484 -427 479 -426Q482 -435 488 -440Q494 -445 500 -451Q497 -452 497 -455V-456H496Q483 -455 475 -445Q468 -434 460 -426V-428Q460 -439 468 -451Q475 -461 476 -467Q465 -465 451 -446Q439 -430 431 -426Q456 -493 526 -576Q532 -585 543 -589L546 -588Q543 -578 528 -554Q517 -537 512 -525Q505 -513 505 -506Q505 -500 510 -496Q527 -521 552 -562Q590 -624 605 -646Q617 -659 619 -666Q619 -672 612 -676Q609 -674 601 -665Q592 -654 585 -654H584Q584 -666 596 -685Q608 -705 609 -718Q611 -746 614 -753Q628 -761 633 -771Q665 -776 673 -780Q695 -772 723 -772Q734 -761 741 -736H742Q747 -738 752 -741H753Q747 -732 747 -717Q747 -703 753 -683Q750 -675 750 -666Q753 -643 755 -620Q755 -607 750 -598Q741 -591 735 -582Q731 -582 726 -583Q708 -583 695 -573Q687 -567 676 -551Q704 -551 728 -561L729 -558Q726 -555 723 -549V-546Q726 -542 728 -539Q738 -541 747 -543V-542Q743 -530 738 -518Q738 -512 744 -508Q742 -496 740 -485Q762 -501 779 -504Q799 -521 827 -529Q825 -524 818 -517Q808 -507 806 -499Q812 -489 818 -480Q840 -489 861 -493Q858 -489 840 -476Q826 -466 824 -453Q837 -442 840 -424Q857 -427 874 -427H883Q857 -416 857 -385Q857 -377 858 -373Q831 -367 826 -367Q822 -367 812 -369Q814 -378 829 -383Q840 -387 843 -390Q825 -392 816 -392Q769 -392 741 -369Q745 -362 754 -362Q771 -365 788 -369Q793 -369 796 -367Q792 -355 779 -352Q766 -350 758 -341Q757 -337 751 -326Q745 -316 744 -307Q750 -304 754 -304Q762 -304 773 -312Q785 -320 790 -321Q786 -306 778 -295Q784 -289 790 -289H793Q787 -274 787 -263Q787 -257 788 -254Q782 -252 778 -252H775Q772 -247 772 -245Q775 -237 778 -229Q773 -225 756 -224Q732 -222 728 -212Q730 -205 734 -201Q755 -207 770 -214Q785 -221 809 -222Q808 -216 804 -214Q800 -212 797 -209Q799 -205 807 -199Q813 -195 815 -191Q814 -180 813 -172Q812 -164 800 -163Q799 -160 799 -155Q803 -141 806 -128Q790 -124 771 -122Q753 -120 744 -108Q741 -108 738 -109Q736 -109 731 -106Q730 -103 730 -93Q730 -82 731 -78L735 -77Q740 -77 744 -80Q760 -79 786 -79Q823 -79 859 -80H876Q880 -85 884 -99Q888 -112 892 -117Q897 -115 897 -104V-94Q897 -88 899 -84Q906 -75 935 -74Q970 -73 979 -69Q976 -65 961 -65Q938 -65 938 -53V-50Q939 -50 961 -47Q960 -45 953 -44Q947 -43 946 -39V-31L947 -29L951 -30L953 -28Q951 -22 951 -20Q951 -10 961 4Q953 14 952 32Q952 50 949 66Q946 65 944 61Q941 56 938 55Q936 57 934 59L932 58Q929 63 928 68Q927 73 922 75V77Q922 80 928 82L925 83Q919 81 912 79H911L909 81Q911 84 913 86Z"/>
</svg>