<svg xmlns="http://www.w3.org/2000/svg" viewBox="0 -800 1024 1024">
	<path fill="#000000" d="M679 -45H674Q649 -45 627 -38Q601 -30 601 -14Q601 -10 602 -8Q613 -11 625 -11H641Q658 -11 664 -15Q670 -19 673 -31Q676 -41 679 -45ZM707 -115L706 -119Q660 -118 635 -111Q596 -100 593 -73Q648 -85 702 -98Q707 -110 707 -115ZM589 -319H592Q592 -330 588 -337Q569 -331 568 -330Q570 -324 572 -318H576Q583 -318 589 -319ZM586 -397L585 -401Q573 -398 561 -394Q549 -391 548 -376V-375Q551 -374 557 -374Q571 -377 585 -380V-384Q586 -390 586 -397ZM686 -367Q664 -365 646 -360Q638 -346 638 -338Q638 -334 639 -331H644Q645 -331 666 -334Q668 -340 676 -349Q684 -358 686 -367ZM738 -438H730Q708 -437 689 -430Q669 -423 650 -419V-415Q650 -410 652 -406H654Q665 -406 681 -413Q695 -419 703 -419Q712 -419 720 -415Q722 -416 738 -438ZM910 -576H915Q912 -571 909 -567Q906 -562 899 -561V-565Q899 -576 910 -576ZM773 -283Q829 -294 878 -303Q902 -304 925 -306L928 -305Q926 -301 924 -298V-297Q939 -300 953 -304Q949 -300 944 -297Q939 -294 938 -286Q939 -282 943 -282Q950 -283 957 -285Q952 -280 952 -276Q956 -265 959 -255V-253Q959 -238 947 -228Q936 -219 921 -219H920Q915 -221 909 -223H907Q904 -222 901 -222H900Q882 -225 847 -223Q578 -183 548 -177Q546 -177 542 -175Q549 -171 561 -161Q601 -166 640 -172Q648 -173 656 -174Q661 -174 663 -175Q685 -180 706 -185Q723 -187 746 -197Q763 -205 774 -205H780Q815 -205 837 -196Q849 -182 855 -152Q860 -142 860 -135Q860 -126 852 -117Q842 -105 841 -93Q823 -93 814 -81Q817 -76 819 -72V-69Q811 -68 804 -60Q797 -52 792 -51Q790 -57 790 -60Q793 -76 804 -91Q803 -94 798 -102H793Q784 -102 770 -90Q767 -78 754 -51Q736 -13 734 9Q734 16 733 22Q733 36 739 41Q751 33 760 4Q769 -27 780 -34Q781 -32 781 -27Q781 -19 774 -3Q766 14 765 24V27Q766 42 767 57V63Q766 69 759 77Q751 86 751 91L752 95Q725 100 700 110Q676 97 657 81Q658 75 659 69Q659 67 657 63Q650 59 642 59Q630 59 613 77Q598 93 589 95Q558 84 549 78Q542 48 528 39Q532 30 536 21Q526 -2 524 -14Q533 -13 538 3Q542 17 549 19Q556 18 556 11Q554 3 552 -6Q548 -30 542 -40Q534 -54 519 -54Q515 -54 512 -53Q510 -49 510 -47Q511 -41 511 -35Q511 -29 509 -27Q491 -35 472 -44Q463 -64 456 -94Q454 -101 451 -109Q451 -123 459 -133Q464 -139 478 -149Q464 -142 455 -142Q449 -144 447 -145Q438 -150 422 -172Q421 -170 421 -165V-159Q414 -166 411 -177Q408 -176 404 -176Q395 -178 385 -183Q380 -159 380 -121Q380 -97 382 -55Q371 -71 368 -95Q366 -119 364 -144Q354 -140 354 -116Q355 -104 355 -92Q357 -35 358 22Q369 20 371 2Q372 -17 377 -30Q386 -18 386 18Q386 29 376 50Q365 73 365 86V88Q360 90 332 105Q312 96 293 54Q279 23 266 11Q266 4 278 4Q274 -3 244 -5Q256 -16 271 -24Q286 -33 291 -52Q294 -68 294 -90Q294 -105 293 -120Q294 -130 294 -141Q296 -152 298 -164Q298 -167 296 -173Q251 -131 215 -78Q180 -26 143 24Q135 19 126 19Q115 19 110 27Q111 24 111 21Q109 -4 88 -15Q91 -51 91 -61Q91 -84 84 -93Q93 -98 93 -115Q91 -138 89 -161Q89 -166 91 -176Q102 -126 112 -113Q192 -179 207 -193Q260 -241 290 -287Q287 -288 280 -288Q256 -287 232 -274Q208 -261 188 -252Q169 -247 155 -240Q152 -238 133 -218Q118 -202 105 -202Q100 -202 97 -203Q91 -205 87 -212Q82 -219 76 -225Q65 -232 56 -242Q49 -253 49 -272Q49 -292 56 -311Q51 -324 51 -335Q51 -385 133 -447Q125 -439 117 -425Q106 -406 106 -394Q106 -381 120 -380H122Q129 -380 147 -388Q167 -397 178 -397Q181 -397 189 -395Q184 -390 160 -383Q142 -377 137 -365Q140 -363 147 -363Q165 -367 183 -377Q209 -384 238 -388Q266 -392 287 -408Q280 -412 271 -412Q264 -412 246 -406Q231 -401 222 -401Q216 -401 210 -404Q218 -413 250 -421Q271 -426 278 -431H280Q285 -430 289 -429H291Q295 -436 295 -444Q295 -452 288 -467Q282 -480 281 -488Q261 -479 253 -474Q237 -465 231 -455Q227 -455 222 -456Q217 -456 216 -450L215 -453Q217 -459 219 -466Q206 -475 188 -479Q182 -479 179 -477V-479Q181 -485 183 -491Q180 -497 171 -497Q155 -497 149 -485Q150 -491 156 -497Q163 -503 167 -509Q164 -523 151 -523Q134 -523 127 -509Q129 -520 137 -526Q144 -532 151 -539Q148 -540 143 -540Q132 -540 112 -528Q99 -520 91 -518Q97 -532 110 -542Q123 -551 136 -561Q162 -583 189 -606Q217 -629 251 -644Q249 -629 238 -622Q227 -615 217 -609Q191 -594 180 -576Q212 -579 235 -596Q258 -613 281 -633Q298 -647 306 -655Q320 -670 320 -683Q320 -685 318 -693Q308 -690 297 -675Q285 -658 275 -656Q277 -670 290 -689Q300 -704 303 -714Q300 -722 297 -731L301 -732Q308 -730 314 -728H315Q321 -729 321 -735Q321 -738 320 -740H330Q353 -740 376 -741Q412 -741 423 -725Q430 -715 430 -684V-670Q430 -656 438 -629Q445 -605 445 -594Q445 -574 432 -561Q425 -554 402 -551Q379 -548 373 -542Q382 -526 392 -515Q390 -496 388 -478Q389 -474 389 -470Q428 -481 466 -492Q460 -488 452 -481Q445 -475 444 -467Q444 -461 448 -456H449Q457 -482 458 -482L461 -481Q457 -477 457 -472Q457 -471 459 -463H460L462 -462Q466 -464 471 -472Q476 -479 480 -482Q499 -474 518 -467Q553 -477 580 -486L581 -490Q581 -494 580 -499V-501Q608 -517 626 -542Q645 -567 666 -589Q622 -581 595 -555Q568 -528 538 -504Q527 -517 500 -517Q491 -517 489 -515Q486 -523 480 -529H476Q466 -528 461 -523Q456 -518 449 -515V-519Q449 -524 453 -529Q458 -535 458 -540V-541H456Q446 -540 439 -533Q431 -526 424 -521Q429 -542 462 -590Q477 -614 484 -623Q498 -642 512 -649L513 -647Q513 -645 504 -633Q495 -621 486 -608Q477 -595 473 -578H475Q493 -582 504 -599Q562 -661 580 -693Q574 -702 568 -702Q561 -702 548 -688Q539 -678 535 -677V-678Q535 -687 541 -703Q548 -722 548 -730Q548 -737 545 -745H547Q558 -745 566 -761V-762Q566 -771 555 -778Q547 -783 545 -788Q569 -790 592 -792Q606 -792 615 -788Q623 -785 634 -773Q651 -755 664 -755H666Q672 -747 677 -739Q676 -736 676 -729Q677 -718 677 -707Q677 -699 674 -693Q684 -691 687 -691Q704 -691 732 -710Q759 -728 776 -728Q785 -728 794 -724Q797 -713 819 -698Q833 -704 846 -710Q845 -704 839 -699Q834 -695 833 -692V-671L835 -670Q838 -673 841 -676L843 -674Q838 -653 838 -613Q832 -601 815 -597Q798 -593 785 -586Q758 -570 720 -516Q773 -521 800 -538Q806 -542 813 -550Q820 -557 827 -560H831Q838 -560 849 -553Q858 -547 865 -547H866Q877 -550 888 -554H890V-553Q890 -545 880 -538Q883 -535 888 -535Q897 -535 917 -544Q933 -554 944 -558L948 -557L949 -555Q943 -551 937 -548Q929 -540 920 -532Q910 -525 909 -509Q910 -506 910 -503H911Q919 -508 926 -513H927L928 -510Q925 -504 920 -498Q916 -489 912 -460Q907 -424 898 -413Q893 -407 879 -402Q869 -398 865 -395Q859 -390 855 -384Q850 -379 841 -377V-379Q841 -388 849 -398Q856 -406 857 -412Q856 -419 848 -419Q842 -419 830 -413Q819 -407 800 -384Q780 -360 780 -348Q780 -342 781 -339Q792 -340 803 -350Q815 -361 825 -363Q820 -352 810 -340Q799 -327 795 -317Q789 -305 773 -283ZM711 -271Q695 -272 679 -274Q659 -278 647 -278Q610 -278 604 -262Q573 -248 541 -248H523Q512 -261 501 -274Q506 -279 506 -284Q506 -290 500 -301Q494 -312 494 -317Q494 -318 496 -322Q502 -320 508 -307Q513 -295 520 -292Q523 -292 530 -297Q528 -316 521 -326Q513 -337 504 -350Q494 -355 486 -355Q475 -355 474 -344L456 -386Q452 -397 448 -409Q440 -376 432 -344Q406 -340 382 -326Q380 -316 380 -313Q380 -301 389 -294Q392 -292 410 -285Q420 -292 426 -303Q425 -282 432 -262Q435 -262 437 -265Q440 -269 442 -269L445 -268Q440 -263 440 -254Q442 -243 443 -232Q453 -230 462 -229Q467 -230 471 -232Q479 -228 486 -225H488Q494 -224 512 -232Q532 -240 536 -240Q599 -248 711 -271Z"/>
</svg>