<svg xmlns="http://www.w3.org/2000/svg" viewBox="0 -800 1024 1024">
	<path fill="#000000" d="M942 -343H940Q932 -343 917 -330Q905 -319 899 -318Q790 -305 726 -277Q719 -198 719 -165V-151Q719 -139 713 -135Q704 -146 704 -186Q704 -228 693 -239Q680 -232 680 -212Q681 -197 682 -183Q680 -132 678 -82Q678 -20 699 5Q711 3 711 -20Q711 -30 710 -41Q710 -62 720 -66Q722 -53 731 -29Q742 0 742 14Q742 32 731 47Q720 57 710 69Q701 87 695 104Q689 122 673 127Q650 121 621 95Q598 74 584 68Q578 57 573 40Q566 17 561 9Q554 -2 535 -19Q510 -42 503 -57H504Q510 -57 525 -42Q536 -32 547 -22Q540 -36 512 -65Q495 -82 487 -93Q500 -89 519 -75Q534 -64 544 -60Q509 -101 482 -129Q476 -134 470 -139Q464 -144 463 -153Q494 -131 524 -110Q569 -80 592 -80Q601 -80 608 -84Q615 -120 615 -191Q615 -237 614 -258Q578 -246 537 -235Q495 -224 468 -205Q451 -186 428 -172Q378 -187 378 -221Q378 -229 381 -240Q374 -253 374 -270Q374 -304 394 -326Q392 -336 392 -341Q392 -358 404 -373Q411 -382 428 -397Q439 -410 450 -415V-412Q446 -401 440 -388Q497 -389 627 -428V-432Q629 -456 631 -480Q631 -485 629 -495Q584 -489 562 -478Q557 -476 548 -469Q535 -459 528 -459H523Q509 -459 496 -469Q483 -479 481 -492V-494Q482 -502 483 -510V-512Q479 -522 474 -532Q472 -544 472 -549Q472 -576 490 -604Q489 -610 483 -617Q477 -624 477 -628V-630Q490 -625 502 -621L503 -625Q503 -633 487 -642Q472 -651 472 -656Q491 -649 512 -647Q511 -651 504 -655Q497 -659 496 -664Q512 -664 523 -672Q527 -675 540 -689Q554 -688 582 -688Q611 -688 629 -689L628 -687Q629 -685 630 -683Q624 -677 603 -670Q577 -661 570 -648Q576 -645 586 -645Q606 -645 669 -663Q718 -677 745 -690Q743 -699 724 -699H722Q709 -699 706 -702Q713 -725 738 -733Q754 -738 790 -739Q792 -736 794 -728Q797 -715 802 -713Q811 -712 819 -712Q824 -712 830 -714Q823 -704 816 -695Q820 -687 824 -686H829Q838 -686 843 -690V-689Q843 -685 835 -681Q825 -676 824 -672V-665Q825 -643 825 -621Q825 -601 821 -588Q807 -586 805 -574Q803 -560 800 -544Q752 -535 717 -518Q730 -511 730 -482Q730 -467 729 -453L795 -462Q795 -455 793 -447Q768 -441 763 -439Q748 -433 743 -420Q748 -416 756 -416Q767 -418 778 -420Q833 -437 890 -453V-454Q889 -464 874 -466Q859 -468 847 -472Q858 -485 877 -490Q894 -495 898 -513Q900 -510 902 -502Q904 -492 907 -489Q926 -489 939 -492V-491Q939 -487 930 -485Q917 -482 917 -477Q917 -471 927 -471H939L940 -469Q937 -465 933 -456L936 -455Q942 -456 947 -458Q951 -458 952 -455Q936 -448 936 -429Q939 -406 946 -383V-382Q946 -379 943 -379Q939 -378 939 -375Q941 -362 943 -350Q943 -345 942 -343ZM271 -143V-147Q273 -163 274 -180H272Q253 -179 243 -170Q232 -161 219 -156Q220 -143 221 -131V-126Q230 -127 244 -134Q261 -142 271 -143ZM271 -267H278Q282 -295 282 -296Q282 -308 277 -312Q263 -308 247 -296Q231 -284 216 -273Q216 -265 215 -258Q215 -252 218 -246Q230 -251 242 -259Q253 -266 271 -267ZM215 -360V-358Q226 -359 248 -373Q269 -386 284 -389Q288 -409 288 -429Q288 -450 284 -461Q264 -439 241 -418Q217 -396 215 -360ZM363 -2V3Q350 4 330 10Q327 19 324 27L322 24Q323 21 323 18L321 15Q297 6 287 -4Q273 -18 272 -42Q231 -37 216 -25Q206 -16 197 -5Q188 6 176 9Q173 10 170 10Q155 9 143 -2Q132 -13 121 -22Q116 -47 101 -59Q111 -76 111 -109Q108 -150 104 -192Q101 -219 101 -220Q101 -232 107 -237Q114 -223 119 -183Q124 -143 133 -128Q140 -143 140 -169Q140 -180 132 -260Q130 -281 128 -299Q126 -317 115 -327Q108 -323 105 -305Q102 -289 98 -285Q93 -306 75 -358Q67 -375 57 -391Q46 -407 45 -428Q45 -436 46 -441Q51 -447 55 -453Q56 -458 59 -479Q55 -501 51 -515Q51 -519 52 -521Q55 -521 59 -510Q64 -495 73 -495H74Q78 -502 78 -509Q78 -519 68 -540Q57 -563 57 -576Q57 -581 58 -584Q64 -582 66 -574Q67 -567 69 -561Q77 -548 80 -537Q86 -532 91 -527Q96 -521 105 -521Q108 -523 111 -525V-527Q111 -536 103 -548Q96 -558 95 -567Q102 -567 107 -561Q112 -556 117 -551Q127 -542 136 -534Q141 -537 145 -537Q150 -537 160 -530Q171 -522 179 -522Q199 -523 212 -537Q226 -552 239 -564Q260 -578 278 -596Q294 -617 311 -639Q328 -661 364 -663H369Q378 -656 386 -648Q393 -650 401 -659Q407 -666 412 -668V-665Q408 -653 403 -636Q403 -629 407 -625Q411 -625 413 -632Q415 -638 419 -639Q418 -630 417 -622Q417 -617 418 -615Q418 -613 423 -610Q427 -608 428 -605Q429 -602 429 -594V-591Q429 -577 437 -575Q382 -502 370 -418Q362 -338 348 -255Q342 -261 342 -279V-299Q342 -318 335 -324Q320 -276 320 -205Q320 -137 335 -103Q344 -108 344 -125Q342 -151 339 -178Q339 -193 345 -200Q352 -187 352 -166V-128Q353 -113 364 -85Q375 -56 375 -43V-40Q375 -34 369 -22Q363 -10 363 -2Z"/>
</svg>