<svg xmlns="http://www.w3.org/2000/svg" viewBox="0 -800 1024 1024">
	<path fill="#000000" d="M306 -415Q275 -408 254 -396Q254 -386 249 -376H250Q252 -374 253 -372Q277 -384 293 -387Q300 -401 306 -415ZM438 -59H440Q440 -38 429 -31Q428 -35 428 -42Q428 -59 438 -59ZM446 -410Q446 -404 442 -396H436Q410 -396 378 -371Q355 -355 352 -351Q347 -338 345 -323Q343 -320 340 -318Q336 -315 336 -313V-312Q330 -314 316 -328H315Q311 -328 304 -333Q295 -339 288 -339H286Q277 -339 270 -331Q263 -323 261 -312Q256 -311 251 -304Q246 -297 242 -295Q236 -292 224 -292Q207 -291 201 -285Q184 -294 167 -307Q151 -320 130 -321Q123 -321 120 -320Q112 -326 105 -326H103Q99 -333 99 -342Q99 -356 105 -366Q103 -371 103 -382Q103 -408 117 -420Q117 -424 116 -429Q116 -436 119 -439Q122 -438 126 -432Q130 -426 135 -425H137Q147 -428 156 -431Q160 -431 163 -427Q181 -434 218 -456Q245 -472 265 -481Q285 -488 305 -496Q319 -503 334 -512Q349 -521 370 -522Q379 -522 391 -519V-517Q393 -507 397 -501Q406 -504 429 -523L432 -522L431 -520Q409 -498 405 -485L408 -484Q413 -487 417 -490L419 -489Q417 -482 415 -476Q426 -461 436 -461Q440 -461 442 -462Q439 -458 439 -449Q443 -429 446 -410ZM421 -694Q412 -689 400 -683Q388 -678 387 -665V-662L391 -661Q400 -664 408 -668Q408 -664 402 -658Q395 -651 395 -645V-644L398 -642Q402 -643 405 -644H406Q404 -641 404 -628Q404 -612 406 -606Q405 -596 395 -578Q385 -559 385 -546Q382 -536 368 -536Q353 -535 342 -533Q340 -532 333 -532Q326 -532 322 -531Q309 -527 254 -507Q207 -493 192 -481Q184 -473 177 -462Q169 -451 158 -448Q155 -447 148 -447Q125 -447 110 -466Q96 -483 96 -507Q96 -518 99 -527Q93 -549 89 -572Q89 -586 101 -608Q114 -631 114 -644Q122 -623 137 -621Q135 -616 135 -609Q135 -596 149 -596Q162 -596 197 -612Q218 -622 239 -632Q295 -648 322 -671Q316 -677 308 -677Q296 -674 284 -671Q248 -659 213 -642Q199 -635 184 -633Q179 -633 177 -634Q193 -645 265 -677Q282 -685 298 -694Q314 -704 335 -706Q343 -702 351 -696Q361 -698 371 -701H374Q367 -697 367 -688Q367 -682 373 -679Q403 -693 421 -694ZM711 -477V-475Q705 -459 692 -435Q662 -359 658 -291Q658 -289 652 -151Q649 -94 649 -93Q654 -52 658 -12V-3Q656 14 647 28Q645 31 627 54Q609 52 595 37Q574 14 570 12V10Q572 5 575 2Q561 -16 544 -22Q545 -25 549 -25Q556 -23 562 -22H563Q561 -32 545 -35Q528 -37 517 -42Q520 -44 528 -44Q542 -42 556 -41Q561 -41 563 -42Q578 -47 591 -81Q603 -112 603 -138V-145Q586 -141 564 -117Q563 -120 563 -126Q563 -137 578 -148Q589 -156 591 -163Q570 -154 554 -139Q534 -121 531 -100L533 -99Q537 -99 542 -104Q548 -110 551 -110Q553 -110 557 -108Q557 -103 549 -94Q539 -82 539 -72Q527 -70 520 -70Q473 -72 476 -146Q490 -185 508 -194Q513 -191 517 -189H519Q548 -207 576 -226Q572 -229 565 -229Q546 -226 536 -222Q538 -228 538 -231Q537 -243 530 -253Q522 -263 517 -273H516Q513 -272 510 -271L508 -273Q514 -280 514 -289Q514 -299 507 -313Q523 -333 543 -333Q564 -333 582 -311Q600 -289 600 -264Q600 -247 591 -232Q596 -232 606 -237Q610 -307 613 -377Q613 -387 612 -398Q610 -399 608 -400Q591 -387 587 -382Q577 -371 575 -357Q567 -356 558 -349Q546 -340 538 -340H536Q528 -340 512 -349Q501 -355 492 -357Q478 -383 463 -410Q486 -424 509 -439Q521 -439 529 -447Q537 -456 539 -459Q557 -477 577 -493Q597 -509 612 -529Q598 -526 573 -502Q549 -479 534 -475Q539 -491 554 -505Q568 -519 582 -533Q618 -571 622 -577Q627 -568 643 -568Q659 -568 662 -577Q675 -569 692 -529Q706 -504 711 -477ZM453 -548V-545Q453 -533 439 -527Q438 -529 438 -532Q440 -546 453 -548ZM973 -661Q971 -659 965 -656Q956 -652 954 -646Q954 -635 953 -625Q953 -612 958 -606Q950 -596 950 -585Q950 -577 954 -573Q942 -556 936 -535Q929 -514 921 -493Q918 -499 918 -506Q921 -526 923 -546Q923 -553 922 -556Q892 -522 884 -417Q882 -385 882 -369Q882 -338 887 -318Q900 -373 903 -436Q904 -448 908 -457Q913 -468 921 -469Q908 -386 905 -255Q904 -225 903 -27Q890 -31 890 -48Q891 -60 892 -73Q891 -90 889 -108V-153Q889 -181 883 -194Q873 -134 873 -63Q873 -44 875 -12Q879 35 893 44Q897 40 897 32Q896 19 895 6Q895 -5 903 -9Q914 22 919 55V57Q917 78 870 115Q855 128 843 128Q827 128 803 103Q781 81 769 79V78Q769 75 772 75Q774 74 775 71Q725 51 711 48Q717 45 725 45Q743 48 760 50Q741 38 715 32Q689 26 661 21Q665 20 674 20Q711 24 747 27Q758 27 763 26Q757 15 740 11Q722 6 704 3Q709 2 720 2Q735 3 749 3Q769 3 779 -3Q794 -25 804 -91Q816 -157 816 -190Q816 -206 815 -214H807Q781 -214 762 -203Q739 -190 739 -168Q745 -169 758 -182Q774 -198 787 -198Q793 -198 799 -195Q767 -180 751 -141Q736 -136 721 -132Q716 -136 687 -146Q666 -153 662 -166Q662 -168 661 -171Q663 -182 664 -194Q663 -205 661 -217V-219Q662 -241 677 -260Q691 -279 701 -291Q699 -283 699 -280Q699 -264 711 -261Q730 -273 781 -296Q811 -309 832 -321Q836 -407 840 -493Q828 -490 811 -476Q793 -461 781 -461Q771 -461 760 -468Q748 -475 740 -487Q732 -499 723 -511Q711 -522 701 -529Q693 -548 687 -561Q693 -615 735 -666V-665Q733 -655 731 -645Q731 -641 732 -639Q738 -637 742 -637Q751 -637 769 -649Q789 -662 802 -663Q798 -651 774 -636Q750 -621 744 -609Q816 -631 849 -678Q847 -679 843 -679Q834 -676 824 -674L820 -675V-676Q821 -684 827 -688Q833 -692 838 -697Q845 -707 852 -717Q859 -728 870 -733Q878 -737 895 -737Q918 -737 923 -745L921 -738Q922 -724 935 -720Q929 -714 929 -709Q929 -703 937 -699Q945 -695 954 -695L963 -696Q946 -689 941 -670Q942 -664 951 -655Q956 -663 965 -663Q967 -663 973 -661ZM828 -354V-351Q822 -348 811 -332Q801 -318 791 -316H786Q779 -316 771 -317Q768 -317 766 -316Q760 -314 754 -306Q748 -298 741 -295Q740 -297 740 -300Q740 -306 746 -317Q751 -326 751 -329Q751 -336 741 -340Q733 -336 724 -333Q727 -339 730 -346Q719 -358 708 -370V-373Q709 -381 709 -390Q709 -400 704 -403Q710 -409 715 -417Q719 -425 730 -427Q727 -437 724 -447Q743 -441 747 -435Q753 -442 761 -442Q773 -442 797 -418Q828 -387 828 -354ZM334 -128L335 -127H336Q342 -129 348 -131H351V-129Q349 -122 346 -116Q349 -107 352 -99L349 -100Q344 -100 343 -95Q342 -91 341 -87Q315 -87 300 -76Q298 -48 298 -26V-16Q292 -6 276 -6Q265 -6 253 -10Q249 -14 246 -32Q242 -53 237 -56L234 -57Q227 -55 219 -54Q212 -54 207 -57Q208 -45 208 -33Q211 -19 213 -5Q208 11 202 27Q192 31 179 32Q165 33 161 43Q155 38 148 34Q141 30 138 22Q123 18 114 13Q105 8 89 8Q89 5 93 3Q96 1 97 0Q94 -21 94 -23H97Q101 -21 104 -19Q109 -24 109 -30Q105 -48 92 -70Q83 -99 74 -110Q70 -114 63 -114Q51 -114 51 -99Q51 -93 52 -89Q58 -78 68 -69Q78 -60 79 -45V-42Q67 -44 58 -57Q50 -70 43 -82Q32 -102 32 -109Q32 -112 34 -122Q13 -174 98 -231Q110 -239 110 -240Q110 -244 109 -249Q109 -255 113 -258Q116 -250 117 -240Q118 -230 125 -226Q190 -257 254 -288Q273 -300 297 -304Q302 -304 305 -303Q303 -299 290 -294Q264 -282 237 -271Q212 -260 203 -254Q185 -243 178 -229H184Q198 -229 242 -251Q279 -266 323 -281Q366 -296 397 -322Q391 -325 387 -325Q373 -322 359 -319H358Q362 -330 378 -334Q394 -338 404 -348L406 -349Q407 -346 412 -344Q418 -355 426 -364V-360Q425 -351 424 -343H427Q435 -344 438 -351Q441 -358 446 -362L447 -360Q445 -349 442 -338Q442 -331 446 -327H448Q452 -328 456 -330Q463 -325 466 -319Q476 -309 485 -300Q500 -284 490 -252L473 -198Q426 -97 410 -46Q395 -12 390 23Q390 37 394 46Q405 40 411 11Q417 -17 427 -20Q415 47 415 68Q401 78 396 101Q371 98 345 94Q330 82 321 65Q305 55 288 52Q289 46 298 45Q307 44 308 40Q304 23 271 23Q256 23 250 24Q257 17 272 16Q286 16 300 14Q292 12 274 12Q257 13 240 13Q226 13 220 11Q233 6 265 4Q306 1 318 -8Q318 -9 321 -22Q339 -49 352 -83Q365 -117 378 -151Q394 -188 410 -249Q381 -246 329 -226Q347 -223 348 -223Q354 -206 372 -194Q373 -191 373 -185Q373 -180 371 -179Q368 -181 366 -186Q364 -191 361 -192Q357 -190 353 -185Q351 -173 338 -160Q325 -146 323 -134Q326 -132 329 -131Q335 -139 340 -147Q346 -155 361 -166Q362 -161 355 -155Q341 -143 334 -128ZM322 -224Q301 -214 279 -205Q274 -204 242 -187Q209 -170 207 -166Q205 -164 202 -163Q204 -157 209 -156L211 -159Q210 -161 209 -164V-165H212Q214 -165 218 -163Q224 -166 230 -166Q248 -166 261 -142Q264 -144 267 -146H268Q267 -144 267 -140Q267 -134 271 -126Q278 -129 285 -132Q287 -136 288 -139Q297 -168 297 -175Q297 -181 296 -184Q284 -181 275 -176Q279 -183 286 -188Q293 -194 294 -204V-206Q304 -208 322 -224ZM217 -112H214V-113Q214 -119 207 -126Q202 -131 201 -135Q205 -139 205 -143Q202 -151 199 -160Q187 -148 187 -131Q191 -102 200 -82Q202 -99 217 -112Z"/>
</svg>