<svg xmlns="http://www.w3.org/2000/svg" viewBox="0 -800 1024 1024">
	<path fill="#000000" d="M304 -140H302Q283 -139 268 -130Q253 -121 239 -116Q240 -103 241 -91V-86Q270 -95 301 -103V-107Q303 -123 304 -140ZM307 -253Q310 -265 307 -272Q285 -267 236 -233Q236 -225 235 -218Q235 -212 238 -206Q251 -211 266 -219Q280 -226 299 -227H306Q307 -234 307 -253ZM311 -389Q311 -402 304 -421Q284 -399 261 -378Q237 -356 235 -320V-318Q247 -319 270 -333Q293 -346 307 -349Q311 -369 311 -389ZM607 -79Q603 -85 589 -97Q574 -110 568 -119Q569 -121 569 -125Q562 -147 542 -158Q520 -95 517 -76Q527 -71 536 -71Q572 -75 607 -79ZM574 -166Q565 -175 549 -178Q544 -178 544 -169Q559 -164 568 -164Q570 -164 574 -166ZM751 -503V-504Q636 -486 544 -432Q544 -428 543 -425Q544 -408 556 -397Q568 -387 578 -378Q579 -366 586 -354Q593 -343 597 -331Q595 -327 595 -325Q598 -314 600 -303Q594 -284 585 -268Q577 -252 575 -229Q565 -221 557 -190Q560 -189 577 -189Q597 -189 625 -211Q650 -231 664 -252Q651 -271 634 -297Q618 -323 616 -350V-354Q623 -354 625 -358V-359Q619 -370 615 -382Q615 -386 618 -389Q625 -383 641 -383Q658 -384 674 -385Q699 -380 723 -367Q727 -380 735 -394Q742 -408 744 -424V-439Q747 -446 750 -453V-455Q747 -466 744 -478V-480Q748 -497 751 -503ZM858 -306Q858 -300 852 -296Q847 -293 840 -293H837Q838 -307 856 -312Q858 -308 858 -306ZM715 -721Q710 -716 695 -712Q693 -714 693 -719Q693 -724 694 -726Q702 -728 705 -728Q712 -728 715 -721ZM429 -518Q413 -493 405 -456Q404 -450 393 -378Q391 -360 388 -310Q385 -248 378 -215Q372 -221 372 -239V-259Q372 -278 365 -284Q350 -236 350 -165Q350 -97 365 -63Q374 -68 374 -85Q372 -111 369 -138Q369 -153 375 -160Q382 -143 382 -126L390 -88Q391 -75 398 -47Q405 -18 405 -3V0Q405 6 399 18Q393 30 393 38V43Q380 44 360 50Q357 59 354 67L352 64Q353 61 353 58L351 55Q327 46 317 36Q303 22 302 -2Q265 -1 236 15Q226 24 217 35Q208 46 196 49Q193 50 190 50Q175 49 163 38Q152 27 141 18Q136 -7 121 -19Q131 -36 131 -69Q128 -110 124 -152Q121 -179 121 -180Q121 -192 127 -197Q134 -183 139 -143Q144 -103 153 -88Q160 -103 160 -129Q160 -140 152 -220Q150 -241 148 -259Q146 -277 135 -287Q128 -283 125 -265Q122 -249 118 -245Q113 -266 95 -318Q87 -335 77 -351Q66 -367 65 -388Q65 -396 66 -401Q71 -407 75 -413Q76 -418 79 -439Q75 -461 71 -475Q71 -479 72 -481Q75 -481 79 -470Q84 -455 93 -455H94Q98 -462 98 -469Q98 -479 88 -500Q77 -523 77 -536Q77 -541 78 -544Q84 -542 86 -534Q87 -527 89 -521Q97 -508 100 -497Q106 -492 111 -487Q116 -481 125 -481Q128 -483 131 -485V-487Q131 -496 123 -508Q116 -518 115 -527Q122 -527 127 -521Q132 -516 137 -511Q147 -502 156 -494Q161 -497 165 -497Q170 -497 180 -490Q191 -482 199 -482Q219 -483 232 -497Q246 -512 259 -524Q280 -538 298 -556Q312 -576 322 -595Q331 -615 367 -616H372Q381 -609 389 -601Q396 -603 405 -612Q412 -619 417 -621V-618Q417 -615 412 -606Q406 -595 406 -589Q406 -582 410 -578Q414 -578 416 -585Q418 -591 422 -592Q421 -583 420 -575Q420 -570 421 -568Q422 -562 425 -555Q426 -552 426 -544V-541Q426 -531 429 -528Q429 -538 430 -541Q436 -550 436 -564Q435 -579 434 -595Q434 -605 437 -616Q443 -630 455 -639Q467 -648 479 -658Q486 -665 491 -674Q496 -682 505 -685Q506 -681 513 -669Q537 -676 561 -687Q584 -698 611 -699H616Q607 -691 579 -682Q542 -670 533 -654Q539 -651 547 -651Q560 -651 591 -664Q636 -679 690 -693Q744 -706 775 -730Q771 -732 767 -732Q752 -729 736 -726Q733 -726 731 -727Q733 -740 748 -743Q763 -746 775 -749Q786 -751 797 -753Q805 -753 812 -749Q823 -753 833 -757L837 -755Q834 -749 831 -743V-742Q833 -740 837 -740Q848 -744 858 -748Q861 -748 865 -745Q859 -739 851 -735Q844 -731 840 -723L846 -708Q854 -710 862 -712Q861 -706 854 -698Q845 -688 845 -682Q845 -677 849 -672L853 -671Q858 -672 862 -673H864Q858 -662 851 -651Q853 -643 853 -639Q853 -626 843 -600Q832 -571 832 -556Q832 -549 833 -545Q838 -535 848 -528Q857 -529 865 -531H868Q865 -526 865 -522Q865 -514 871 -508Q877 -502 885 -502Q883 -495 883 -479V-457Q883 -437 880 -430Q874 -432 874 -446V-451Q874 -461 870 -465Q854 -456 854 -435Q854 -414 849 -396Q841 -384 838 -374Q838 -370 840 -367Q873 -378 880 -412Q885 -409 885 -397Q885 -386 883 -378Q883 -375 879 -374Q874 -373 873 -372Q864 -355 862 -353Q854 -343 843 -343Q839 -343 836 -344Q834 -340 828 -338Q821 -336 820 -334Q815 -331 815 -325V-322Q795 -316 788 -296Q793 -287 802 -283Q813 -288 827 -290H831Q830 -285 822 -280Q814 -275 814 -268Q814 -256 827 -256Q834 -256 851 -261Q872 -267 881 -267Q885 -267 891 -265Q890 -259 881 -259H876Q837 -251 828 -230Q830 -215 859 -215Q856 -208 839 -198V-192Q839 -179 831 -163Q823 -147 823 -138Q823 -135 825 -127Q818 -137 802 -137Q791 -136 779 -136Q761 -136 753 -148Q745 -146 736 -145V-150Q736 -166 720 -186Q702 -164 683 -141Q663 -119 658 -85Q734 -88 818 -97Q845 -102 849 -126V-142Q849 -152 858 -154Q857 -148 857 -137Q857 -116 868 -109H869Q873 -109 876 -115Q878 -119 880 -120Q894 -88 924 -85Q929 -85 932 -86Q924 -70 924 -67Q924 -60 934 -60H935Q933 -55 930 -51Q937 -33 943 -14Q950 4 950 29Q945 36 942 44Q942 46 944 50Q929 70 898 71Q884 71 873 65Q868 69 862 69Q851 67 836 59Q820 54 820 49Q821 44 833 44H835Q845 44 846 40Q833 23 803 21Q785 21 778 32Q778 38 788 40Q797 42 797 47Q784 51 764 51Q728 50 691 48Q677 48 670 49Q659 52 648 54Q642 54 638 50Q639 40 653 40Q661 41 668 41H671Q680 39 689 37H697Q719 38 740 39Q757 39 766 34Q764 22 754 20Q744 17 730 17H719Q688 17 658 20Q596 25 591 26Q548 32 544 44Q547 49 587 49Q593 49 598 48Q602 49 605 49V50Q604 54 602 58V59Q571 64 536 79Q502 95 476 105Q443 89 424 9Q418 -6 418 -10V-25Q418 -33 412 -37Q421 -43 430 -62Q439 -81 447 -86Q462 -145 470 -193Q469 -200 469 -214Q469 -234 477 -241Q480 -233 480 -223Q477 -197 474 -171Q474 -161 477 -154Q502 -197 502 -262Q502 -292 493 -316Q482 -313 479 -299Q478 -296 477 -271Q469 -280 467 -313Q465 -346 456 -355Q460 -362 460 -370Q460 -385 449 -394Q451 -396 453 -396Q458 -394 462 -393Q467 -396 474 -404Q484 -415 492 -418Q474 -423 458 -436Q449 -452 446 -479Q443 -488 438 -497Q430 -511 429 -518Z"/>
</svg>