<svg xmlns="http://www.w3.org/2000/svg" viewBox="0 -800 1024 1024">
	<path fill="#000000" d="M76 -262Q74 -257 72 -252Q69 -247 63 -247Q62 -248 62 -252Q63 -261 71 -263Q74 -263 76 -262ZM913 -719Q905 -705 895 -705Q894 -707 894 -710Q896 -720 906 -721Q909 -721 913 -719ZM934 -247H935L938 -246Q940 -243 940 -237Q940 -234 937 -216Q931 -220 931 -231Q931 -235 934 -247ZM498 -227Q490 -228 490 -240Q490 -245 492 -253L496 -254Q502 -254 502 -242Q502 -233 498 -227ZM654 -315Q652 -323 649 -332Q608 -322 606 -321Q585 -312 584 -290Q624 -305 654 -315ZM692 -467H682Q668 -456 648 -450Q627 -444 607 -436Q585 -426 575 -419Q558 -406 557 -392Q562 -389 563 -385Q611 -402 652 -425Q654 -423 654 -421Q652 -416 650 -412L652 -411L656 -412Q660 -409 664 -407Q685 -454 692 -467ZM602 -175Q604 -178 604 -184Q603 -194 602 -204Q615 -225 644 -225Q662 -225 680 -216Q686 -220 693 -225Q700 -230 701 -237Q689 -241 673 -241Q647 -240 622 -232Q598 -223 578 -216Q563 -166 563 -144Q563 -131 566 -121Q594 -142 618 -147Q616 -154 602 -175ZM230 -24V-27Q230 -37 218 -46Q209 -52 209 -57Q223 -53 233 -48Q280 -76 312 -117Q341 -152 348 -164Q367 -195 367 -225Q367 -239 365 -247L363 -249Q307 -213 269 -159Q231 -105 189 -57Q197 -46 230 -24ZM970 35V41Q970 65 954 78Q939 90 917 90Q899 90 884 83Q878 81 848 57Q834 45 823 36Q812 27 805 11Q817 14 833 28Q849 42 860 45Q864 43 867 41Q860 21 843 7Q827 -6 810 -18Q790 -36 771 -55Q751 -75 725 -81Q729 -59 747 -50Q765 -41 771 -18Q763 -19 754 -29Q743 -42 734 -43Q727 -57 723 -60Q715 -63 707 -67Q700 -74 695 -81Q689 -88 677 -89Q673 -95 660 -104Q647 -112 643 -120L641 -121L637 -120L634 -121Q627 -133 624 -135Q620 -132 620 -128Q620 -119 633 -115V-111Q635 -89 636 -67Q636 -55 634 -49Q546 -7 522 72Q510 75 497 75Q473 75 458 62Q442 48 442 23V20Q422 10 421 -21Q421 -47 437 -54V-57Q438 -75 452 -79Q467 -84 482 -87Q485 -104 491 -124V-129Q490 -146 489 -164Q489 -181 500 -186V-177Q500 -144 510 -135Q522 -162 522 -244V-252Q522 -312 501 -321Q495 -319 495 -308Q497 -294 498 -281Q498 -277 497 -276Q488 -278 487 -288Q485 -298 483 -306Q481 -310 470 -321Q472 -331 472 -335Q472 -342 468 -356Q468 -359 473 -362Q477 -365 477 -369Q473 -377 465 -378Q458 -380 449 -385Q447 -390 445 -396V-398Q434 -403 424 -408Q413 -413 409 -423Q407 -429 407 -433Q411 -453 414 -474V-480Q374 -467 350 -431Q381 -380 414 -321Q447 -261 450 -182Q450 -168 449 -161Q444 -91 405 -51Q406 -66 418 -92Q431 -122 431 -138Q431 -145 430 -149Q417 -141 411 -129Q405 -116 396 -102Q375 -71 354 -40Q347 -29 340 -20Q333 -10 332 2Q332 8 335 17Q343 14 354 1Q364 -11 374 -13Q371 8 349 33Q325 61 300 65Q296 66 291 66Q264 66 254 35L251 34Q246 37 241 39L238 38Q244 31 244 21Q244 2 229 -1V-9Q220 -15 207 -28Q191 -44 183 -49Q154 -20 147 2Q135 4 129 4Q99 4 85 -12Q76 -29 66 -46Q65 -58 63 -70Q54 -81 50 -89V-91Q54 -101 57 -111V-112Q57 -123 45 -137Q32 -153 32 -165Q45 -154 55 -141Q65 -128 82 -121Q79 -137 54 -163Q37 -181 33 -190Q45 -187 54 -178Q63 -170 72 -161Q101 -135 112 -135Q123 -137 143 -152Q162 -166 172 -174Q256 -229 322 -318Q321 -333 313 -342Q306 -351 298 -360Q276 -347 254 -316Q221 -268 218 -265Q208 -267 204 -267Q184 -267 158 -247Q162 -263 165 -270Q155 -282 144 -282Q139 -282 135 -278L134 -281Q135 -285 135 -289L134 -291Q124 -296 118 -296Q105 -295 96 -285Q86 -276 79 -272L77 -275Q82 -283 86 -291Q82 -294 77 -294Q70 -294 62 -283Q52 -269 44 -269Q80 -350 116 -381L117 -377Q117 -372 112 -362Q106 -351 106 -345Q106 -341 107 -338Q124 -342 135 -359Q173 -406 196 -450Q194 -453 192 -456Q178 -455 167 -439Q155 -422 146 -419Q152 -436 162 -449Q171 -462 180 -476Q176 -500 159 -501Q149 -501 140 -489Q139 -488 137 -483Q135 -478 132 -478L128 -479Q127 -481 127 -484Q130 -494 137 -505Q140 -522 143 -539Q156 -573 177 -585Q207 -585 239 -560Q256 -591 270 -647Q283 -654 283 -665Q281 -678 273 -695Q280 -695 288 -687Q293 -681 298 -680Q295 -693 284 -703Q273 -714 265 -726Q279 -722 299 -703Q311 -691 321 -686Q325 -687 328 -689H330Q355 -688 374 -674Q379 -665 386 -656Q392 -651 412 -644Q427 -639 430 -627Q431 -625 431 -622Q431 -615 430 -609V-606Q431 -599 440 -589Q446 -582 448 -578Q452 -570 453 -555Q454 -541 457 -534Q464 -538 472 -538Q482 -537 492 -537H497Q505 -541 512 -545Q517 -547 532 -549Q552 -552 560 -558Q559 -619 520 -654Q520 -686 497 -697V-699Q497 -701 501 -703Q505 -705 506 -708Q504 -709 501 -709Q494 -706 487 -704Q485 -704 482 -707Q490 -719 505 -726Q519 -733 534 -744Q551 -759 566 -776Q581 -793 605 -794H607Q617 -793 626 -787Q636 -781 646 -776Q656 -772 666 -767Q676 -762 677 -751Q677 -748 676 -746H675Q670 -747 658 -756Q645 -765 634 -766H633Q631 -765 624 -761Q624 -750 641 -740Q652 -734 655 -728Q658 -722 660 -711Q662 -695 669 -689Q676 -692 676 -706Q676 -717 680 -720Q689 -711 689 -689V-686Q688 -679 680 -668Q674 -660 671 -654Q664 -639 664 -613V-596Q682 -599 696 -608Q711 -617 728 -627Q753 -636 769 -645Q775 -650 782 -662Q791 -677 799 -681Q801 -677 801 -673Q801 -666 800 -660Q808 -658 811 -658Q826 -658 851 -677Q873 -694 886 -695Q882 -682 864 -668Q848 -654 843 -645H844Q848 -645 856 -649Q866 -654 874 -654H878Q877 -650 868 -643Q858 -635 858 -628Q858 -624 861 -618Q865 -618 871 -622Q877 -626 882 -626H884Q881 -612 878 -599V-597Q878 -590 887 -576Q894 -564 895 -557V-553Q895 -538 881 -519Q869 -503 865 -489Q844 -485 833 -470Q822 -455 807 -444Q807 -446 806 -449Q806 -455 811 -464Q816 -472 816 -477Q813 -481 808 -481Q804 -481 794 -476Q776 -463 765 -425Q749 -382 749 -368Q749 -358 753 -351Q765 -356 773 -382Q782 -410 797 -414Q774 -361 757 -301Q770 -303 775 -319Q787 -325 803 -325Q819 -325 840 -319Q842 -309 848 -306Q853 -306 858 -312Q864 -318 870 -318H871Q871 -315 866 -306Q860 -295 860 -289Q860 -282 868 -278Q859 -268 859 -240Q860 -224 860 -209Q853 -202 844 -202Q834 -202 825 -201Q787 -195 757 -166Q783 -139 815 -118Q847 -96 878 -73Q881 -74 883 -80Q885 -86 889 -87Q891 -77 896 -73Q907 -88 910 -136Q912 -174 917 -187Q923 -135 923 -100Q923 -84 922 -78Q926 -95 928 -139Q930 -189 937 -209Q939 -182 939 -153Q939 -125 944 -100Q944 -97 941 -95Q938 -93 938 -91V-90Q940 -87 940 -81Q940 -74 939 -68Q939 -60 944 -55Q948 -64 948 -94V-112Q948 -119 947 -127Q947 -138 954 -139Q956 -133 956 -119Q956 -99 955 -79V-72Q962 -14 970 35Z"/>
</svg>