<svg xmlns="http://www.w3.org/2000/svg" viewBox="0 -800 1024 1024">
	<path fill="#000000" d="M488 -288H485Q483 -294 483 -299Q483 -310 491 -310Q494 -298 494 -294Q494 -288 488 -288ZM903 -199H902Q893 -199 893 -214Q893 -229 903 -229L907 -228Q905 -213 903 -199ZM281 -106H287Q291 -115 291 -138Q291 -144 290 -150Q264 -144 261 -115Q261 -107 265 -100Q266 -106 281 -106ZM293 -226V-233Q294 -244 294 -255Q294 -260 293 -262Q261 -247 253 -236V-231Q253 -220 256 -213Q275 -219 293 -226ZM621 -391V-393Q624 -406 627 -419Q627 -422 626 -424Q592 -415 573 -405Q570 -392 567 -380Q567 -376 568 -374Q595 -382 621 -391ZM302 -357V-368Q304 -398 306 -429V-433Q294 -423 280 -410Q266 -398 256 -383Q242 -360 242 -345Q242 -340 243 -337Q273 -347 302 -357ZM638 -529H640Q644 -528 647 -527Q655 -562 663 -590H662Q648 -589 632 -577Q616 -564 601 -552Q593 -546 585 -541Q577 -531 569 -521Q562 -512 546 -511Q550 -497 556 -495Q622 -520 638 -529ZM377 -32V-11Q377 37 350 39Q335 35 320 31Q316 31 315 32Q308 26 300 20Q296 28 288 35Q290 23 290 16Q290 -3 284 -15Q270 -13 253 2Q237 16 226 17Q222 18 218 18Q190 16 178 -10Q166 -37 154 -60L150 -61H142Q154 -72 163 -101Q154 -132 146 -164Q138 -197 137 -234V-238Q142 -229 148 -204Q156 -171 167 -160Q174 -171 174 -186Q174 -202 163 -242Q149 -294 149 -295Q135 -338 85 -367Q82 -364 78 -361Q80 -342 103 -320Q127 -298 127 -277V-270Q118 -270 112 -280Q103 -296 102 -297Q93 -302 84 -308Q77 -314 67 -327Q55 -344 46 -349V-376Q46 -447 75 -460Q81 -472 85 -506Q89 -547 99 -559V-553Q98 -532 97 -512Q97 -505 99 -493Q104 -495 104 -506Q104 -515 103 -524Q103 -532 105 -535Q111 -532 112 -519Q114 -504 120 -502L121 -506Q121 -510 120 -514Q120 -518 123 -520Q127 -518 130 -510Q133 -501 136 -499Q164 -495 179 -487Q188 -476 198 -469Q204 -470 214 -481Q224 -492 231 -498Q232 -499 259 -517Q275 -530 290 -543Q310 -556 321 -567Q327 -578 332 -590Q336 -602 348 -603Q353 -603 355 -602Q362 -607 369 -610H371Q379 -626 382 -634Q384 -632 384 -628Q384 -623 383 -619Q383 -615 385 -613L387 -612Q392 -615 397 -618V-615Q399 -611 400 -607H403Q414 -606 419 -599Q424 -592 432 -587V-584Q432 -580 436 -570L439 -569Q443 -569 446 -570H448Q447 -567 447 -562Q447 -556 453 -537Q460 -515 460 -501Q460 -496 459 -492Q454 -483 434 -469Q408 -451 405 -430V-429L406 -427H411V-426Q391 -402 386 -379Q378 -332 374 -245V-240Q375 -225 375 -211Q375 -195 370 -185Q365 -191 365 -207V-217Q365 -233 361 -238Q347 -226 347 -181V-126Q346 -117 346 -101Q346 -75 356 -64Q362 -76 364 -112Q365 -145 370 -156Q377 -149 379 -141Q380 -137 380 -124Q379 -78 377 -32ZM950 28V35Q941 43 917 50Q893 57 885 65Q868 61 844 35Q835 27 826 18Q818 9 817 -4Q827 -4 842 11Q858 27 872 28Q865 4 841 -22Q826 -38 795 -63Q759 -96 719 -121Q722 -97 756 -70Q786 -46 792 -27H788Q776 -28 767 -38Q758 -49 749 -60Q701 -109 651 -151H632Q632 -159 636 -160Q628 -170 610 -187Q587 -208 579 -222Q580 -224 580 -230Q580 -242 574 -247Q582 -257 588 -259Q633 -251 650 -236Q686 -268 701 -295Q706 -298 710 -298H712Q713 -309 719 -315Q724 -321 728 -328Q723 -339 718 -351Q712 -346 710 -319Q703 -312 691 -312Q678 -313 668 -310Q664 -316 660 -316H657Q649 -316 639 -308Q635 -308 630 -309Q606 -308 590 -294Q574 -280 561 -265Q555 -199 555 -192Q556 -184 556 -176Q560 -176 571 -185Q584 -195 592 -195H595Q594 -190 586 -185Q580 -182 579 -178L582 -177Q591 -182 604 -187Q607 -187 610 -184Q603 -180 596 -176Q590 -171 588 -162H590Q592 -162 595 -166Q601 -174 607 -174L611 -173Q602 -167 599 -151Q597 -139 592 -133Q596 -124 607 -116Q593 -96 569 -80Q544 -63 540 -32V-29Q541 -22 541 -16Q539 -2 527 5Q517 11 502 11Q478 11 462 -3Q458 -15 453 -27Q448 -34 442 -41Q440 -55 440 -68Q440 -81 428 -85Q434 -93 434 -109V-118Q468 -150 476 -216V-229Q476 -257 488 -264V-239Q488 -216 493 -205Q518 -308 518 -367Q518 -380 517 -386Q515 -414 494 -424Q488 -416 488 -407Q492 -384 496 -361V-350Q496 -334 487 -333Q483 -346 478 -374Q472 -409 466 -424Q460 -436 454 -449V-450Q458 -481 476 -501Q483 -508 499 -515Q512 -520 515 -523Q505 -529 493 -548Q481 -566 472 -572Q470 -577 468 -583V-586Q462 -595 451 -598Q451 -603 455 -603Q459 -602 463 -601Q459 -619 430 -619Q423 -619 419 -618Q425 -628 435 -630Q444 -632 453 -637Q462 -647 468 -658Q495 -685 519 -685H524Q522 -680 512 -671Q498 -659 498 -649Q498 -643 500 -640Q514 -647 553 -673Q571 -684 588 -694Q606 -704 618 -721Q611 -724 605 -724Q594 -724 579 -714Q562 -703 552 -703Q557 -717 569 -725Q581 -733 594 -739Q619 -748 627 -772Q636 -768 656 -768H670Q698 -768 707 -756Q717 -760 725 -765Q720 -758 716 -750Q732 -730 746 -725Q755 -727 769 -735Q784 -744 796 -745Q796 -740 786 -733Q773 -723 773 -713H776Q788 -713 810 -726Q832 -739 844 -739Q837 -728 824 -724Q809 -712 804 -710Q793 -700 793 -688Q793 -672 807 -661Q814 -667 823 -670L826 -669V-668Q822 -661 817 -649V-647Q821 -635 824 -624Q818 -614 818 -590V-578Q799 -570 780 -556Q778 -559 778 -565Q778 -572 785 -582Q791 -591 792 -595Q785 -614 782 -616H781Q768 -615 766 -604Q764 -593 761 -583Q753 -585 749 -590Q731 -582 725 -562Q719 -541 713 -520Q693 -454 693 -417V-406Q704 -423 716 -464Q727 -500 734 -514Q736 -513 740 -513Q749 -513 756 -525Q763 -537 770 -538Q763 -510 752 -478Q744 -452 733 -424Q723 -397 721 -364Q732 -366 743 -375Q754 -384 764 -391Q773 -387 784 -387Q791 -387 811 -389Q817 -374 826 -364Q836 -353 847 -343Q843 -338 843 -332Q843 -322 854 -311Q853 -291 848 -277Q844 -271 839 -265Q833 -259 832 -250H824Q807 -250 761 -233Q728 -218 719 -202Q726 -191 738 -184Q750 -178 761 -170Q782 -151 803 -132Q824 -114 851 -101Q856 -104 857 -116Q858 -128 862 -130Q867 -124 869 -110V-121Q869 -126 863 -210Q862 -217 861 -224Q861 -232 868 -233Q873 -216 875 -174Q877 -130 883 -113Q887 -117 887 -124Q885 -139 882 -154V-158Q883 -168 883 -178V-182Q880 -216 877 -250Q877 -264 880 -276Q887 -214 894 -153Q897 -157 897 -166Q897 -175 896 -184Q897 -188 897 -192Q905 -159 908 -123Q912 -87 937 -73Q937 -63 949 -42Q958 -25 961 -13Q950 -5 950 28Z"/>
</svg>