<svg xmlns="http://www.w3.org/2000/svg" viewBox="0 -800 1024 1024">
	<path fill="#000000" d="M308 -217L307 -218Q304 -212 294 -204Q278 -190 277 -182V-176Q280 -158 283 -140Q297 -146 301 -173Q307 -215 308 -217ZM60 -322V-306Q51 -311 51 -324Q51 -330 55 -333L58 -331Q60 -328 60 -322ZM450 -539Q445 -529 440 -503Q437 -486 434 -478Q411 -468 385 -459Q359 -450 351 -428Q288 -383 254 -313Q260 -315 275 -325Q294 -339 307 -339Q300 -327 278 -315Q250 -300 244 -284Q247 -283 252 -283Q266 -284 279 -293Q291 -301 302 -309L357 -341Q355 -351 351 -352Q338 -348 325 -342Q329 -360 347 -369Q355 -373 382 -381Q387 -380 394 -375Q397 -377 399 -381Q402 -386 405 -386H407Q410 -386 410 -383Q409 -379 408 -375L409 -373Q412 -378 414 -383Q419 -385 424 -392Q430 -401 435 -402V-401Q435 -398 430 -387Q423 -371 423 -362Q423 -358 425 -352H426Q428 -352 429 -357Q430 -363 433 -363H434V-356Q434 -343 442 -321Q449 -302 449 -288Q449 -278 446 -268Q371 -222 368 -77Q356 -74 356 -66H344Q319 -66 311 -76Q307 -76 302 -72Q296 -68 291 -68H289Q285 -58 282 -48Q279 -37 268 -34H265Q253 -34 238 -53Q226 -69 219 -71Q220 -77 220 -83Q220 -92 214 -107Q208 -120 208 -129H210Q218 -129 218 -119V-115Q221 -109 224 -101Q227 -94 234 -93H236Q232 -154 207 -171Q202 -168 202 -162Q205 -152 207 -143Q196 -144 193 -152Q190 -160 183 -167Q177 -172 170 -177Q166 -176 162 -167Q157 -157 154 -151Q145 -133 139 -126Q125 -87 109 -52Q89 -60 78 -69Q63 -82 61 -101L58 -103L54 -102L52 -103Q56 -112 56 -126Q52 -167 48 -209Q49 -218 49 -228Q56 -210 58 -193Q62 -198 62 -214Q60 -248 57 -283Q58 -289 58 -296Q63 -285 68 -255Q72 -226 78 -215Q99 -229 122 -257Q132 -269 160 -306Q169 -319 192 -346Q222 -381 234 -402Q198 -392 185 -384Q181 -382 174 -373Q163 -360 157 -359H154Q127 -363 109 -386Q103 -398 97 -411Q82 -427 78 -457V-470Q85 -488 94 -517Q99 -547 106 -559Q112 -569 131 -586Q145 -598 156 -614Q167 -630 185 -636V-635Q185 -630 175 -620Q160 -605 160 -597Q160 -591 163 -588Q168 -589 172 -597Q176 -605 181 -606V-603Q181 -599 180 -595V-593Q182 -590 190 -590Q205 -590 226 -597Q254 -609 280 -613Q289 -613 294 -611Q280 -601 242 -592Q202 -582 188 -571Q194 -561 204 -561Q222 -564 243 -574Q305 -592 368 -617Q366 -624 359 -624Q350 -623 340 -622H335Q339 -633 350 -637Q361 -640 371 -643Q413 -655 417 -657Q420 -656 424 -651Q426 -648 429 -646Q433 -647 436 -649H439Q439 -631 440 -614Q442 -597 450 -586Q445 -580 445 -566Q445 -548 450 -539ZM904 -260Q904 -257 899 -242Q890 -245 889 -260Q889 -271 897 -271H900Q904 -266 904 -260ZM816 -389Q815 -380 814 -372H805Q802 -375 802 -381Q802 -386 807 -399H813Q816 -394 816 -389ZM924 -701Q923 -694 918 -689Q917 -688 908 -683Q908 -702 919 -702Q922 -702 924 -701ZM759 24H758Q740 24 729 38Q716 31 705 24Q694 16 690 1Q700 4 710 6Q712 6 718 4Q698 -55 677 -99Q681 -70 693 -24Q666 -77 638 -130Q621 -117 610 -69Q601 -30 589 -15Q587 -17 581 -17H577Q569 -17 566 -22Q560 -19 553 -16L552 -19Q552 -22 555 -25Q549 -31 543 -38Q539 -93 535 -148Q538 -144 541 -140V-142Q540 -154 538 -166Q534 -154 532 -146Q526 -126 526 -106Q526 -93 529 -84Q525 -51 520 -18Q509 22 498 62Q486 60 476 60Q460 60 455 66Q449 59 443 50Q437 40 428 39L424 40Q425 36 425 31Q425 15 414 -14Q403 -43 403 -58Q403 -63 405 -73Q405 -66 409 -85Q418 -133 420 -125Q429 -152 435 -180Q442 -182 449 -185Q450 -181 450 -177Q450 -166 445 -152Q440 -138 440 -132Q440 -128 442 -120Q481 -182 488 -279Q488 -302 480 -315Q473 -303 470 -270Q466 -227 454 -216Q454 -233 459 -265Q464 -297 464 -313V-318Q464 -336 454 -369Q444 -402 444 -419Q444 -434 448 -447Q454 -455 464 -485Q473 -490 488 -511Q499 -526 504 -531L503 -529Q503 -528 506 -525Q513 -530 516 -539Q535 -531 541 -512Q619 -590 675 -627Q662 -604 616 -564Q572 -526 559 -498Q610 -530 658 -578Q683 -601 709 -626Q734 -650 751 -681Q738 -680 718 -660Q703 -644 696 -642Q697 -662 717 -678Q748 -703 749 -705Q757 -717 764 -730Q770 -743 787 -744Q791 -743 794 -743Q800 -735 816 -725Q832 -715 837 -707Q845 -710 855 -721Q867 -733 876 -737Q859 -719 853 -694Q853 -682 866 -677Q870 -677 873 -681Q876 -685 879 -685L882 -684Q878 -672 873 -660H875Q879 -660 886 -669Q892 -677 897 -678Q885 -661 882 -638Q890 -625 905 -581Q890 -537 854 -501V-500Q856 -494 860 -494Q840 -468 825 -435Q824 -430 823 -423Q822 -417 814 -416Q812 -419 812 -426Q812 -434 819 -449Q826 -464 826 -473Q826 -478 825 -480Q777 -459 770 -290Q769 -274 769 -241Q769 -191 774 -144Q780 -166 783 -248Q786 -316 801 -345V-338Q797 -259 793 -181Q793 -75 850 -50Q861 -58 863 -88Q866 -120 873 -129Q875 -112 876 -96V-90Q882 -157 890 -222Q893 -202 893 -149Q893 -89 899 -63Q905 -109 905 -162Q911 -155 913 -144Q914 -133 914 -119Q919 -73 935 -38Q950 -3 964 34Q955 44 946 72Q935 105 923 114Q806 107 759 24ZM723 -102Q721 -118 721 -119Q717 -152 712 -185Q709 -182 711 -252Q709 -258 709 -260Q709 -262 712 -274Q713 -285 714 -296Q699 -295 692 -280Q690 -277 683 -248Q673 -227 670 -203Q670 -200 672 -190Q681 -193 687 -214Q693 -233 706 -234H709Q690 -202 688 -176Q705 -144 722 -101ZM718 -356Q724 -453 734 -497Q698 -469 676 -428Q662 -412 648 -395Q578 -315 584 -329L578 -327Q567 -323 559 -312Q580 -309 596 -295Q606 -286 621 -265Q635 -288 640 -314Q640 -326 632 -334Q640 -346 654 -367Q668 -389 685 -391Q696 -390 702 -378Q708 -365 716 -356ZM555 -305Q550 -293 550 -281Q550 -247 554 -237Q553 -224 543 -185Q546 -167 556 -154Q565 -163 577 -185Q586 -201 589 -203Q585 -212 577 -224Q566 -240 563 -253Q559 -279 555 -305Z"/>
</svg>