<svg xmlns="http://www.w3.org/2000/svg" viewBox="0 -800 1024 1024">
	<path fill="#000000" d="M159 -26V-31Q161 -32 164 -32Q172 -32 182 -20Q180 -19 176 -19Q166 -19 159 -26ZM756 -651V-658Q756 -662 757 -663H763Q774 -663 775 -658Q774 -653 756 -651ZM893 -126Q892 -120 882 -116Q874 -112 872 -109L871 -113Q874 -128 887 -131Q892 -131 893 -126ZM837 -38V-36Q834 -26 821 -14Q809 4 809 15Q809 23 816 29Q813 38 813 48Q814 60 814 71Q814 84 809 91Q802 102 776 106Q756 109 748 115Q700 98 680 96Q669 70 646 60Q635 38 605 8Q580 -14 560 -37Q564 -39 567 -39Q576 -39 590 -28Q611 -5 633 20Q667 52 683 60Q689 56 694 50Q682 31 656 10Q615 -22 612 -25Q592 -44 573 -64Q554 -85 530 -100V-98Q530 -88 537 -78Q545 -66 545 -57V-54Q534 -59 520 -82Q506 -103 494 -109Q480 -96 462 -65Q440 -28 432 -16Q420 2 406 29Q385 70 374 83Q356 105 306 111Q302 101 292 96Q282 91 274 84Q266 77 257 56Q248 37 241 29Q218 7 184 -7Q196 -4 221 8Q241 18 251 21Q251 16 244 11Q239 7 238 2Q252 6 265 9Q328 -48 386 -109Q337 -108 291 -91Q261 -80 212 -52Q190 -57 185 -59Q171 -65 170 -79Q157 -80 149 -91Q142 -100 142 -114Q142 -133 156 -144Q153 -155 150 -166V-167L152 -169H158Q151 -179 147 -187V-189Q154 -186 160 -183H162Q154 -194 144 -205H145Q162 -201 178 -190Q189 -196 206 -196Q226 -196 247 -189Q242 -185 232 -184Q221 -183 220 -173Q220 -168 227 -165Q232 -163 235 -163Q240 -163 254 -168Q284 -179 301 -180Q337 -184 372 -189Q378 -190 388 -190H393Q416 -190 423 -198Q417 -199 404 -199Q385 -199 348 -193Q314 -187 298 -187H293Q271 -187 266 -195Q340 -202 417 -214Q421 -217 426 -220H447Q448 -222 448 -225Q448 -241 429 -252Q433 -262 436 -273Q431 -277 425 -277Q412 -274 399 -271H396Q386 -273 376 -288Q364 -306 358 -310Q341 -294 329 -272Q317 -250 303 -230Q299 -232 296 -232Q294 -232 282 -226Q247 -234 235 -256Q231 -251 224 -250Q226 -260 227 -270H222Q215 -270 207 -264Q201 -259 196 -258L212 -284Q210 -292 205 -295Q188 -291 179 -280Q170 -269 162 -258Q171 -288 191 -313Q211 -337 229 -362Q239 -380 248 -399Q254 -407 266 -420Q283 -437 288 -447Q285 -450 278 -450Q263 -447 248 -444H245Q230 -449 215 -454H206Q201 -456 193 -462Q180 -472 173 -472Q169 -472 167 -471Q169 -477 169 -479Q169 -495 143 -495Q131 -495 126 -493Q155 -511 155 -535Q155 -543 149 -554Q201 -567 245 -596Q288 -626 328 -651V-647Q328 -628 289 -606Q249 -585 236 -571Q238 -569 243 -569Q251 -569 269 -582Q315 -610 329 -621Q360 -645 377 -672L373 -673Q369 -673 361 -667Q353 -661 347 -661H346V-663Q346 -670 352 -678Q360 -689 360 -694Q353 -707 338 -707Q325 -707 316 -698Q317 -711 329 -720Q340 -730 353 -739Q366 -752 379 -764Q391 -777 411 -781Q423 -784 444 -784H451Q457 -784 470 -777Q482 -771 491 -771Q495 -771 498 -772Q502 -762 510 -758Q518 -755 527 -751Q527 -740 538 -718Q533 -705 533 -690V-684Q454 -663 389 -591Q416 -596 483 -600Q552 -604 584 -612Q581 -621 581 -635Q581 -649 584 -660Q589 -660 595 -655Q600 -651 605 -651L607 -653V-658Q643 -649 657 -649Q669 -649 679 -652Q682 -652 684 -646Q686 -641 688 -640Q695 -636 703 -636Q713 -636 730 -644Q742 -649 748 -651Q748 -646 738 -640Q726 -633 725 -628Q735 -615 751 -615Q765 -615 793 -625Q824 -636 836 -636Q821 -626 801 -620Q781 -615 771 -598Q773 -596 777 -596Q787 -598 797 -600Q802 -600 805 -598Q802 -595 797 -593Q792 -592 792 -586Q794 -574 818 -574H846Q831 -567 815 -560V-557Q814 -544 812 -531V-528Q816 -522 834 -520Q852 -518 855 -511Q843 -513 836 -513Q790 -513 784 -478Q768 -485 755 -485H751Q746 -483 743 -478Q739 -471 735 -471Q732 -489 716 -493Q699 -498 682 -507Q666 -520 648 -528Q521 -515 447 -499Q449 -494 459 -482Q467 -473 470 -465Q454 -453 435 -444Q412 -434 408 -403Q413 -400 416 -400Q431 -403 445 -406Q449 -406 452 -405Q450 -399 438 -395Q429 -392 426 -387Q431 -379 441 -379Q462 -382 488 -393Q518 -401 558 -409Q597 -417 631 -430Q627 -436 615 -436Q581 -431 554 -421Q526 -411 501 -408Q494 -408 486 -411Q518 -426 579 -443Q636 -459 657 -468H658L660 -465V-460H667Q697 -464 723 -474Q720 -469 705 -461Q685 -451 682 -441Q686 -433 695 -433Q714 -437 733 -442H734Q725 -437 713 -430Q702 -424 701 -414Q701 -409 707 -402Q715 -404 722 -406H726Q722 -403 717 -400Q711 -397 711 -389L712 -385Q712 -379 718 -379H720Q712 -372 705 -357Q697 -339 689 -333Q673 -322 590 -313Q553 -309 538 -293Q544 -288 551 -284V-280Q551 -265 562 -256Q560 -250 554 -240Q584 -241 626 -247Q681 -255 703 -255Q717 -255 753 -263Q777 -268 795 -270L792 -259Q822 -262 827 -262Q837 -262 842 -261Q832 -258 824 -254Q816 -251 815 -240V-236Q826 -238 836 -241Q840 -241 842 -240Q833 -235 828 -221Q832 -217 835 -217H837Q834 -208 834 -204V-198Q824 -181 815 -161Q807 -139 784 -136Q769 -140 754 -144Q726 -149 694 -149Q629 -149 580 -135Q592 -120 609 -111Q626 -102 643 -94Q670 -79 696 -61Q721 -43 751 -32Q763 -38 782 -57Q804 -79 822 -85Q818 -76 802 -60Q785 -43 781 -29Q800 -46 820 -66Q840 -87 864 -101Q827 -64 796 -13H797Q805 -13 817 -25Q830 -38 837 -38Z"/>
</svg>