<svg xmlns="http://www.w3.org/2000/svg" viewBox="0 -800 1024 1024">
	<path fill="#000000" d="M225 -507Q224 -500 216 -493Q209 -486 207 -482Q204 -483 204 -489Q204 -495 209 -502Q214 -509 219 -509Q223 -509 225 -507ZM867 -167Q869 -165 869 -160Q865 -150 861 -140Q856 -143 856 -151Q856 -165 867 -167ZM633 -170H632Q630 -171 628 -172L626 -171Q613 -161 597 -152Q582 -143 574 -127Q590 -123 605 -119Q613 -131 632 -149Q653 -169 660 -180Q658 -181 654 -181Q644 -181 633 -170ZM567 -248H568Q584 -254 599 -260Q610 -262 638 -272Q671 -283 688 -285Q695 -299 723 -299Q737 -299 747 -296Q750 -307 758 -313Q765 -320 771 -328Q709 -323 645 -297Q620 -288 593 -277Q566 -267 555 -247Q557 -249 559 -249Q563 -248 567 -248ZM712 -400H709V-403Q709 -409 718 -410Q725 -411 727 -413Q723 -418 700 -423Q715 -429 718 -437H716Q709 -434 701 -431Q669 -441 651 -470Q634 -497 632 -536H630Q605 -536 595 -516Q626 -493 639 -452Q632 -447 630 -435Q628 -425 624 -420Q625 -416 625 -413Q625 -404 621 -399Q617 -394 614 -389Q618 -387 619 -387Q634 -391 649 -396Q656 -396 660 -391Q630 -384 599 -378Q573 -372 561 -367Q541 -359 538 -345Q548 -337 564 -337Q603 -360 654 -370Q705 -381 747 -395Q742 -401 730 -401Q721 -400 712 -400ZM472 -554Q475 -543 475 -532Q475 -517 469 -507Q475 -507 485 -501L486 -503L485 -507V-509H490Q507 -510 518 -521Q529 -533 541 -542Q528 -551 515 -560Q507 -553 498 -549H497Q502 -557 507 -566Q504 -568 499 -568Q484 -565 472 -554ZM471 -559Q534 -619 599 -674Q595 -660 576 -644Q553 -625 550 -607Q570 -611 608 -645Q634 -669 662 -690Q661 -704 650 -704Q640 -704 623 -693Q621 -699 621 -700Q622 -707 627 -711Q632 -716 635 -721Q633 -725 633 -733Q633 -755 658 -775Q681 -794 701 -794H703Q713 -794 724 -783Q736 -771 746 -771Q748 -765 756 -757Q764 -749 766 -742L768 -740L771 -741L772 -740Q784 -704 787 -666Q787 -650 783 -638Q779 -636 746 -614Q733 -606 727 -604Q697 -589 697 -586Q697 -581 706 -580Q712 -579 712 -577V-576Q717 -562 724 -549Q727 -549 730 -553Q734 -558 738 -558Q732 -550 732 -539Q732 -519 743 -503Q771 -527 811 -595Q811 -599 806 -604Q801 -609 801 -615V-617L803 -618Q811 -614 818 -607Q823 -608 823 -615V-623Q829 -624 843 -624Q876 -624 885 -605Q894 -609 899 -613L901 -612Q897 -604 897 -592Q897 -580 904 -552Q910 -528 910 -516Q910 -493 892 -482Q857 -481 833 -461Q809 -442 789 -422Q829 -425 843 -428Q871 -434 883 -447L886 -448Q889 -447 892 -446Q898 -454 909 -457H910L912 -454V-449Q922 -446 931 -443Q938 -445 945 -454Q952 -462 957 -464V-462Q957 -458 950 -449Q942 -439 942 -431Q942 -426 944 -422Q952 -422 959 -431L960 -428Q957 -421 953 -414Q955 -404 963 -404H965Q964 -401 964 -394Q968 -364 971 -334V-325Q961 -320 952 -313Q943 -306 929 -305Q924 -305 921 -306Q852 -290 805 -233Q800 -235 800 -241Q800 -246 806 -252Q813 -262 835 -278Q867 -301 874 -317H870Q846 -313 830 -297Q804 -277 793 -266H791Q785 -267 779 -268Q776 -268 774 -266Q779 -227 789 -210H791Q800 -211 808 -213Q800 -203 792 -194Q794 -188 796 -182H795Q789 -182 789 -174V-168Q755 -168 731 -149Q697 -119 683 -89Q713 -72 743 -56Q772 -39 811 -32Q814 -36 816 -46Q819 -58 823 -62Q824 -58 825 -46Q826 -30 830 -26Q836 -47 837 -98Q838 -153 847 -176Q851 -173 851 -168Q849 -156 847 -144V-127Q847 -90 851 -44Q853 -86 858 -124Q866 -101 867 -54Q868 -10 874 10Q877 20 884 32Q894 49 895 57Q896 61 896 69Q896 79 895 88Q895 101 900 108Q898 108 898 113Q894 117 888 121Q883 124 882 132Q864 134 860 143Q856 140 853 140Q851 140 845 143Q836 136 811 129Q788 123 778 117Q765 106 753 93Q747 89 741 85Q734 81 734 73Q746 73 762 87Q779 102 794 102H795Q775 66 718 24Q678 -7 653 -8Q656 3 677 18Q700 34 703 49Q662 24 623 -5Q603 -2 587 12Q572 26 559 39Q537 63 515 87Q488 77 485 77Q474 77 467 84Q462 68 451 58V54Q451 42 444 28Q446 22 446 18Q442 -1 438 -20H446Q452 -20 453 -21Q452 -42 445 -58Q437 -74 430 -90Q412 -71 384 -60Q356 -50 331 -37Q320 -31 288 -7Q277 1 273 1H271Q278 -14 290 -25Q302 -36 305 -41Q299 -45 295 -45Q253 -30 202 13Q202 22 204 26Q239 12 254 16Q232 54 187 67Q178 61 152 56Q118 50 108 33Q111 -4 120 -19Q118 -29 119 -34Q120 -57 141 -77Q155 -90 182 -105Q144 -130 139 -180Q139 -209 165 -219Q189 -252 218 -282Q196 -282 181 -275Q166 -269 150 -261Q142 -256 130 -245Q118 -234 105 -231H99Q71 -231 60 -240Q47 -253 37 -270Q30 -291 30 -317V-321Q32 -329 39 -334Q46 -340 55 -347Q81 -372 106 -398Q122 -414 127 -418Q139 -427 153 -429Q149 -421 131 -406Q116 -393 113 -379Q146 -390 168 -417Q171 -420 213 -465Q237 -488 262 -510Q287 -533 304 -562Q300 -566 297 -566Q292 -566 281 -559Q270 -549 260 -534Q249 -520 234 -516Q236 -534 264 -555Q267 -561 271 -568Q275 -574 284 -576Q292 -600 313 -611V-613Q313 -621 318 -626Q323 -630 326 -636V-637Q326 -641 321 -645Q317 -648 317 -651V-654Q321 -652 329 -652Q339 -652 357 -663Q379 -677 394 -677Q401 -677 410 -674Q416 -662 431 -645Q446 -627 452 -617Q462 -588 471 -559ZM468 -505L467 -504Q451 -496 420 -488Q395 -482 383 -476Q363 -464 344 -447Q329 -436 314 -426Q300 -416 290 -401Q329 -411 345 -421Q349 -408 356 -401Q361 -402 365 -404H366Q367 -390 376 -369Q384 -350 384 -342Q384 -328 371 -315Q362 -305 332 -289Q290 -266 281 -249Q324 -262 366 -276L373 -278Q400 -283 419 -292Q414 -299 414 -305Q414 -311 420 -323Q427 -327 431 -344Q435 -360 433 -366Q447 -365 463 -361Q478 -358 481 -362H489Q505 -362 534 -371Q566 -381 580 -381Q576 -390 556 -400Q543 -407 537 -413H531Q517 -413 509 -408L508 -411Q509 -414 510 -418V-419Q510 -426 500 -438Q493 -446 491 -452Q490 -453 490 -457V-467Q486 -481 468 -505ZM427 -98Q425 -106 424 -111Q450 -77 473 -41Q476 -44 478 -44Q482 -42 488 -36Q508 -43 535 -61Q525 -80 521 -103Q521 -111 525 -119Q531 -123 544 -127Q538 -135 521 -140Q506 -144 503 -155V-172Q503 -180 497 -185Q498 -188 498 -194Q496 -214 477 -225Q458 -236 451 -257Q444 -261 436 -275Q431 -280 426 -285Q416 -280 404 -274Q392 -269 390 -255Q407 -264 421 -269Q420 -265 412 -257Q403 -249 403 -243Q403 -239 407 -234Q414 -239 423 -242L427 -241V-240Q427 -236 421 -231Q415 -226 413 -222Q410 -216 410 -208Q391 -205 379 -210Q367 -206 355 -203H353V-205Q354 -212 358 -213Q365 -214 366 -221V-225Q362 -226 354 -226Q339 -225 299 -207Q281 -200 268 -194Q254 -187 248 -169H251Q262 -169 281 -179Q301 -190 317 -190H324Q246 -154 216 -106Q214 -105 207 -105H204Q195 -105 193 -102Q188 -102 183 -105Q180 -100 180 -95Q180 -91 182 -81H183L186 -80Q217 -92 278 -125Q339 -157 370 -173Q381 -176 408 -190Q433 -203 449 -208V-207Q448 -202 437 -193Q422 -181 421 -174Q423 -171 424 -171Q427 -171 430 -174Q435 -178 438 -178Q422 -162 422 -153Q422 -149 422 -146L423 -145Q426 -145 428 -146H431Q431 -140 424 -134Q418 -129 417 -125V-123Q417 -118 427 -98Z"/>
</svg>