<svg xmlns="http://www.w3.org/2000/svg" viewBox="0 -800 1024 1024">
	<path fill="#000000" d="M500 -572H499Q497 -569 495 -566L498 -564L500 -565Q501 -567 501 -570ZM826 -600H823Q815 -598 806 -597Q810 -602 814 -607Q819 -612 828 -612H831Q829 -602 826 -600ZM893 -412V-408Q890 -411 890 -423Q890 -442 899 -445Q901 -443 903 -441Q903 -435 898 -427Q893 -419 893 -412ZM416 9H413V7Q413 -10 425 -10Q429 -10 431 -9Q428 -3 426 3Q423 9 416 9ZM219 -624V-625Q219 -637 234 -637Q238 -637 244 -635Q240 -622 225 -622Q223 -622 219 -624ZM481 -540Q483 -555 491 -561Q475 -556 458 -550Q441 -545 438 -531Q460 -535 481 -540ZM585 -304H587Q594 -304 607 -315Q616 -322 620 -324Q639 -326 658 -328Q641 -345 591 -382Q589 -378 588 -372Q587 -366 582 -364Q577 -366 577 -378Q578 -383 578 -389Q578 -403 570 -403Q558 -388 558 -353Q558 -323 572 -315Q575 -317 576 -329Q577 -342 582 -345Q589 -342 589 -328Q589 -314 585 -304ZM517 -264Q511 -273 498 -273Q477 -269 456 -266Q451 -266 449 -267Q457 -279 489 -283Q476 -299 474 -319Q450 -314 425 -298Q412 -290 385 -268Q388 -266 396 -266Q408 -267 419 -268Q427 -268 431 -262Q413 -255 411 -249Q415 -245 434 -235Q448 -243 478 -251Q507 -259 517 -264ZM900 -172H897Q885 -174 872 -176Q866 -176 863 -174Q833 -179 811 -194Q789 -208 770 -228Q738 -265 697 -292Q705 -278 712 -264Q721 -254 726 -246V-241Q726 -228 707 -216Q689 -204 687 -192Q692 -189 695 -189Q702 -189 715 -196Q729 -204 735 -204H737Q752 -203 762 -193Q772 -183 782 -172Q786 -172 792 -177Q796 -180 800 -181V-180Q800 -177 795 -172Q791 -168 791 -165L792 -162Q793 -157 796 -157Q801 -159 805 -162H806Q805 -157 805 -146Q808 -115 810 -84Q810 -67 803 -54Q794 -57 785 -57Q761 -56 740 -29Q731 -18 721 -7Q712 3 699 9V4Q701 -18 723 -35Q745 -53 761 -66Q760 -75 754 -79Q710 -62 688 -27Q683 -11 682 -10Q672 3 658 16Q644 29 643 50Q644 54 644 57Q654 55 663 43Q673 31 681 29Q671 51 662 73Q652 95 631 104Q627 115 604 127Q600 117 589 117Q586 117 582 119Q578 111 571 107Q563 103 557 98Q547 74 526 49Q528 43 528 39Q528 29 522 22Q516 15 511 8L514 7Q521 11 529 17Q530 14 530 9Q530 -2 517 -17Q505 -31 503 -39Q515 -37 530 -23Q548 -6 566 -6Q605 -38 650 -99Q648 -100 643 -100Q635 -100 621 -92Q607 -84 601 -84H600Q592 -85 584 -95Q574 -108 569 -111Q569 -137 563 -148Q575 -174 587 -201Q551 -193 526 -177Q533 -153 536 -132Q536 -129 535 -126Q532 -112 517 -98Q502 -85 492 -75Q479 -61 469 -47Q458 -33 444 -28Q450 -46 471 -67Q493 -88 498 -102Q478 -102 458 -82Q434 -54 410 -27Q376 13 375 41H376Q381 41 389 31Q398 20 403 20L407 21L408 25Q406 30 400 35Q390 57 377 78Q363 99 333 101H330Q320 95 308 76Q296 58 287 52Q288 48 288 40Q288 28 282 20Q279 16 268 6Q277 6 287 8Q292 1 292 -2Q292 -10 272 -21Q260 -28 256 -33Q259 -36 263 -36Q266 -36 273 -31Q280 -26 285 -26Q286 -26 290 -28Q285 -42 252 -56Q219 -70 212 -85Q240 -78 266 -66Q292 -53 320 -43Q347 -55 375 -83Q389 -96 420 -132Q419 -133 415 -133Q400 -130 384 -128Q376 -128 372 -130Q364 -134 352 -156Q321 -171 321 -194V-198Q322 -203 328 -210Q332 -214 333 -217Q336 -226 339 -235Q322 -230 307 -218Q293 -205 277 -193Q231 -162 217 -149Q187 -120 179 -82H175Q157 -82 144 -95Q136 -103 125 -123Q114 -137 110 -150V-152Q113 -165 116 -178Q115 -184 113 -191V-192Q116 -201 118 -210Q118 -212 116 -216Q123 -219 129 -226Q119 -253 103 -275Q88 -298 74 -322Q92 -314 116 -280Q142 -245 158 -234Q156 -242 147 -254Q138 -265 136 -273H138Q145 -272 150 -266Q154 -259 160 -253Q174 -240 186 -240Q199 -240 226 -255Q282 -285 330 -315Q415 -367 455 -409H451Q440 -409 397 -397Q369 -392 342 -385Q324 -378 311 -365Q298 -353 284 -343Q271 -335 255 -335Q247 -335 238 -336Q232 -345 198 -357Q168 -368 164 -387V-393Q164 -406 170 -426Q166 -439 166 -452Q166 -476 188 -494Q191 -497 234 -522Q273 -546 299 -553Q295 -546 290 -541Q284 -537 283 -526V-523Q297 -518 319 -518Q361 -521 402 -525Q389 -540 382 -562Q376 -580 353 -582H352L351 -585Q353 -588 355 -592Q352 -601 339 -604Q336 -605 314 -606Q322 -612 330 -618Q327 -627 317 -627Q309 -627 293 -619Q292 -621 292 -624Q292 -631 305 -635Q319 -640 320 -646Q311 -646 258 -637Q271 -645 308 -660Q353 -678 372 -694Q383 -696 390 -703H397Q409 -710 426 -716Q443 -727 460 -731Q466 -731 470 -729Q452 -715 425 -707Q394 -696 393 -675Q393 -670 394 -667Q493 -710 533 -735Q544 -743 557 -757Q551 -764 544 -764Q537 -764 525 -757Q513 -750 508 -750Q504 -750 502 -751Q506 -762 523 -773Q542 -785 545 -799Q553 -807 564 -807H567Q575 -820 592 -820Q610 -820 631 -805Q635 -800 638 -795Q657 -781 682 -763Q707 -745 712 -718V-713Q709 -690 705 -667Q703 -629 700 -619Q682 -617 676 -603Q625 -602 583 -600Q540 -598 514 -574Q526 -577 536 -577Q570 -577 588 -552Q624 -557 660 -561H664Q658 -551 627 -548Q598 -545 591 -535Q598 -529 609 -529Q617 -529 634 -534Q651 -539 681 -541Q730 -545 748 -555Q744 -566 730 -566Q716 -564 702 -563Q697 -563 693 -565Q700 -581 724 -586Q747 -590 764 -598Q767 -598 767 -592Q767 -587 770 -586H773Q784 -587 794 -589H797L800 -587Q798 -583 795 -580H800Q830 -582 860 -585H865Q817 -574 817 -554Q817 -548 825 -538Q832 -542 840 -544L844 -543Q833 -534 828 -523Q828 -520 827 -517Q829 -503 831 -489V-484Q825 -476 822 -469L823 -465Q809 -463 803 -453Q791 -456 776 -456Q728 -453 682 -445Q688 -435 697 -428Q707 -422 717 -415Q724 -407 730 -400Q738 -396 747 -393Q756 -390 758 -379H755Q741 -379 723 -395Q706 -411 693 -412Q699 -394 717 -380Q736 -366 755 -351Q791 -320 828 -319Q827 -331 809 -340Q793 -348 791 -357H795Q802 -357 814 -349Q827 -341 837 -340Q853 -346 857 -384Q862 -382 862 -370V-359Q862 -349 866 -346Q868 -356 869 -390Q870 -434 877 -451Q884 -392 887 -328Q891 -336 891 -349Q890 -363 889 -378Q889 -391 893 -399Q898 -386 898 -362Q898 -347 900 -336Q902 -322 917 -306Q931 -292 933 -282Q934 -280 934 -276Q933 -269 932 -262Q933 -257 937 -249Q944 -236 944 -227V-223Q943 -205 931 -190Q918 -173 900 -172Z"/>
</svg>