<svg xmlns="http://www.w3.org/2000/svg" viewBox="0 -800 1024 1024">
	<path fill="#000000" d="M398 -149V-148Q387 -147 387 -120Q395 -115 405 -114Q388 -92 363 -80Q338 -69 315 -54Q268 -25 232 11Q234 -18 265 -34Q277 -41 289 -49Q301 -57 307 -69Q292 -68 272 -56Q260 -49 239 -34Q204 -9 196 -1Q175 20 170 44Q179 43 187 33Q197 21 208 21H214Q195 49 189 57Q174 76 158 84Q139 78 128 64Q117 49 103 38V33Q103 21 90 7Q81 -3 79 -10Q78 -13 78 -22Q78 -35 79 -40Q81 -56 91 -70Q100 -83 110 -98Q125 -122 130 -129Q142 -145 152 -148Q148 -137 141 -126Q134 -115 133 -103Q133 -96 137 -91Q163 -106 194 -117Q225 -129 253 -139V-164Q248 -167 238 -178Q226 -192 217 -192L218 -195Q218 -199 212 -205Q205 -212 203 -217Q199 -226 196 -234Q193 -241 182 -244Q182 -248 189 -248Q195 -248 196 -249Q193 -257 170 -259Q216 -299 256 -313Q255 -331 248 -355Q236 -353 208 -337Q181 -322 173 -316Q165 -309 155 -293Q143 -273 134 -267Q123 -271 112 -274Q100 -277 93 -284Q91 -294 80 -305Q69 -317 67 -322Q66 -334 64 -346Q62 -353 54 -366Q45 -380 44 -388Q43 -391 43 -399Q43 -429 64 -465Q79 -491 100 -513Q113 -523 125 -534Q122 -525 113 -513Q105 -502 104 -488Q104 -485 106 -477Q111 -480 117 -492Q123 -503 129 -503H131V-501Q128 -497 125 -488V-484Q130 -481 134 -481Q140 -481 150 -487Q161 -494 166 -494L170 -493Q169 -486 157 -477Q146 -469 144 -463Q150 -461 153 -461Q172 -464 187 -474Q211 -487 227 -493Q284 -516 309 -534Q274 -530 248 -517Q222 -505 196 -493H195Q192 -495 188 -497H186Q220 -525 263 -541Q306 -558 352 -574Q350 -566 349 -566Q370 -555 386 -511Q399 -484 402 -465Q402 -461 396 -453Q391 -446 391 -442L392 -438Q389 -441 385 -441Q379 -441 374 -434V-431Q375 -426 376 -422L375 -419Q362 -416 344 -410Q327 -404 322 -391V-387Q323 -375 332 -364Q341 -352 347 -342Q351 -344 359 -351Q365 -357 372 -359Q367 -351 365 -341L366 -337L368 -335Q371 -336 373 -337L375 -336Q372 -328 372 -320Q372 -306 386 -278Q385 -274 381 -270Q377 -267 377 -264V-262Q380 -246 387 -237Q353 -223 346 -218Q324 -204 324 -182Q324 -174 327 -164Q340 -171 359 -180Q378 -190 399 -191Q405 -191 415 -189Q406 -186 399 -185Q393 -185 389 -175L392 -173Q398 -174 403 -176Q404 -176 408 -174Q404 -170 399 -167Q393 -163 392 -157Q392 -154 395 -153Q398 -151 398 -149ZM953 -200H957Q954 -195 949 -190Q940 -182 939 -176L938 -180Q939 -186 939 -192V-197Q943 -201 946 -201Q950 -200 953 -200ZM910 -681Q909 -678 891 -663Q890 -665 890 -669Q892 -683 902 -684Q907 -684 910 -681ZM695 -295V-297Q645 -288 621 -279Q584 -265 568 -239Q586 -240 617 -247Q659 -256 680 -257Q690 -280 695 -295ZM489 27H486Q479 27 468 22Q455 16 450 16Q442 16 436 22Q436 9 443 9H444Q440 7 432 7Q419 8 407 16Q396 25 385 30Q406 11 426 -9Q406 -43 406 -59Q406 -62 408 -72Q411 -82 416 -92Q421 -102 422 -115Q422 -124 420 -129Q434 -119 444 -105Q451 -113 466 -113Q476 -113 485 -110Q507 -77 524 -60Q530 -61 537 -67Q545 -74 553 -74Q547 -60 539 -48Q532 -36 531 -22Q531 -12 537 -2Q527 0 512 13Q499 25 489 27ZM837 14H849Q862 14 863 6Q852 -4 822 -22Q786 -43 772 -60Q770 -60 755 -65Q758 -51 770 -36Q785 -18 786 -3L785 -1Q779 -4 773 -7Q771 -7 769 -5L767 -7Q770 -10 772 -14Q767 -14 762 -19Q757 -24 754 -24H752Q746 -34 740 -40Q735 -46 731 -60Q726 -70 721 -81Q720 -103 712 -117Q714 -120 717 -120Q725 -117 732 -114Q744 -122 755 -131Q765 -129 786 -129H820Q848 -129 860 -124Q878 -139 898 -152Q897 -146 891 -135Q885 -124 885 -120Q885 -116 889 -113Q912 -150 928 -167Q931 -167 931 -164Q910 -133 910 -101V-92Q915 -96 918 -101Q920 -106 928 -107V-106Q926 -90 923 -75Q923 -63 930 -59Q928 -52 928 -40Q929 -28 929 -16Q929 3 918 15Q910 23 889 30Q870 36 865 39Q860 35 847 31Q829 25 824 18Q828 14 837 14ZM673 9V-8Q673 -26 680 -32Q683 -13 684 14Q684 42 694 57Q688 65 683 95Q680 112 676 123Q666 128 655 132Q643 136 639 146Q636 145 632 141Q627 136 623 136Q619 136 617 137Q594 116 580 87Q579 79 578 72Q577 64 568 63Q572 59 574 54Q569 40 543 28Q546 25 551 25Q563 28 574 31Q591 -35 591 -98Q591 -127 587 -147Q579 -146 564 -137Q545 -126 534 -124Q511 -130 503 -144Q504 -153 514 -157Q519 -159 534 -161Q538 -165 538 -171Q537 -180 528 -188Q518 -196 510 -204Q499 -216 490 -226Q481 -236 466 -240Q457 -235 457 -227Q457 -218 473 -197Q488 -178 488 -170V-168Q475 -173 460 -192Q451 -195 442 -198Q412 -233 409 -239Q411 -243 411 -251Q409 -272 406 -293V-300Q406 -323 426 -357Q428 -353 428 -347Q428 -342 433 -341Q437 -347 441 -353Q449 -353 467 -356Q457 -377 447 -399Q438 -410 435 -419V-425Q435 -432 445 -470Q442 -476 442 -482Q442 -494 450 -510Q444 -526 442 -536Q453 -528 466 -522Q472 -525 475 -530Q479 -535 487 -536H489Q484 -524 479 -512Q481 -506 485 -503Q490 -500 494 -497Q514 -511 542 -519Q570 -527 596 -537Q596 -543 592 -545Q588 -547 584 -549L509 -527Q521 -547 544 -553Q566 -559 587 -567Q585 -597 573 -621Q566 -636 546 -663Q533 -662 524 -656Q514 -650 504 -645Q525 -686 555 -727Q585 -768 639 -771H642Q686 -771 694 -726H692Q688 -726 682 -732Q676 -738 671 -739Q654 -736 654 -718V-716Q655 -710 662 -704Q670 -698 671 -695Q676 -681 679 -665Q681 -649 689 -642Q698 -654 701 -670Q705 -686 710 -701Q721 -689 721 -674Q721 -662 710 -637Q699 -613 698 -600Q718 -606 739 -610Q742 -610 750 -608Q743 -600 726 -592Q708 -584 703 -578Q706 -572 712 -572Q713 -572 734 -581Q781 -601 802 -605Q816 -607 828 -608Q839 -609 844 -620Q839 -624 822 -624H812V-625Q813 -633 820 -634Q826 -635 833 -636Q845 -641 857 -649Q869 -656 880 -657H882Q881 -648 869 -639Q860 -632 858 -626Q859 -619 863 -616Q868 -612 871 -609Q889 -613 907 -618Q894 -609 887 -604Q875 -594 875 -585Q875 -577 882 -570H883Q889 -573 894 -576L897 -575Q893 -564 886 -555Q880 -536 877 -511Q874 -487 861 -473Q852 -466 833 -463Q820 -457 806 -452Q801 -451 790 -451H781Q765 -451 756 -447Q743 -439 721 -435Q699 -432 677 -423Q655 -414 633 -407Q609 -399 590 -390Q573 -379 555 -369Q546 -365 536 -363Q525 -361 519 -353Q517 -355 515 -355Q511 -355 506 -348Q521 -345 534 -345Q564 -345 620 -365Q661 -380 682 -383Q696 -385 705 -391Q714 -396 727 -402Q744 -404 757 -411Q759 -412 774 -427Q783 -436 793 -438Q803 -440 807 -440Q831 -438 854 -428Q861 -431 867 -434V-430Q867 -420 874 -411Q881 -413 892 -418Q908 -425 918 -426Q906 -414 897 -401Q901 -386 908 -386Q910 -386 922 -390Q906 -374 906 -356Q906 -346 913 -336Q905 -326 901 -313Q896 -298 882 -297H880Q889 -336 889 -338Q889 -349 882 -353Q881 -354 871 -354Q862 -354 860 -353Q852 -350 844 -335Q840 -327 833 -311Q831 -311 829 -314Q827 -318 824 -318Q773 -282 768 -208Q769 -201 769 -195Q782 -203 798 -228Q815 -255 830 -263Q836 -270 841 -278Q847 -287 857 -288Q861 -288 863 -287Q860 -279 853 -273Q847 -267 841 -261Q810 -215 784 -161Q766 -157 753 -157Q735 -157 725 -167Q722 -166 717 -166Q710 -166 700 -173Q690 -180 681 -180H680Q677 -175 677 -171Q681 -154 685 -137V-131Q684 -104 683 -78V-66Q671 -70 669 -101Q667 -128 660 -135Q647 -122 647 -81Q648 -65 648 -50Q649 -14 650 22Q650 57 663 81Q673 60 673 9Z"/>
</svg>