<svg xmlns="http://www.w3.org/2000/svg" viewBox="0 -800 1024 1024">
	<path fill="#000000" d="M754 -215V-212Q756 -208 757 -205Q760 -204 763 -204Q771 -204 773 -209Q764 -212 754 -215ZM927 -496Q925 -491 924 -483Q923 -468 919 -465Q916 -480 916 -486Q916 -498 921 -498Q925 -498 927 -496ZM247 -125H249Q253 -139 253 -147Q253 -159 248 -171Q236 -170 236 -151Q238 -137 240 -123Q244 -124 247 -125ZM233 -258Q250 -259 250 -282Q250 -301 240 -309Q231 -304 231 -283Q231 -272 233 -258ZM292 -152V-146Q305 -151 310 -176Q311 -180 314 -217Q307 -210 299 -203V-196Q296 -174 292 -152ZM655 -468Q609 -451 600 -446Q570 -431 557 -410Q563 -404 582 -402Q596 -400 600 -399Q608 -411 625 -429Q649 -455 655 -468ZM301 -304V-296Q324 -308 331 -311Q334 -367 339 -421L336 -422Q313 -404 307 -398Q291 -383 283 -368Q294 -355 311 -347Q301 -331 301 -304ZM661 -105Q616 -104 560 -74Q560 -41 568 -32Q600 -41 637 -47Q650 -74 661 -105ZM412 -87V-85Q409 -66 396 -50Q382 -34 371 -22Q356 -23 341 -24Q336 -35 320 -51Q308 -63 302 -73Q291 -69 258 -54Q249 -37 239 -18Q229 1 208 3Q199 3 190 -1Q165 -22 144 -59Q138 -69 132 -73Q142 -86 142 -101Q142 -117 129 -147Q116 -177 116 -191V-198Q129 -190 139 -160Q149 -129 162 -122Q167 -130 167 -139Q167 -154 148 -197Q140 -218 130 -242Q121 -265 101 -267Q95 -267 92 -266V-264Q92 -254 99 -243Q106 -231 106 -223Q91 -229 86 -246Q71 -256 70 -257Q69 -261 67 -266Q56 -274 45 -283Q28 -302 28 -336Q28 -355 33 -366L43 -386Q48 -396 52 -407Q57 -414 62 -419Q67 -425 67 -432Q66 -444 58 -452Q50 -460 46 -467H48Q57 -466 64 -459Q71 -453 77 -446Q85 -449 85 -456Q84 -465 76 -475Q67 -485 61 -493Q45 -516 40 -530H41Q56 -527 70 -502Q84 -478 99 -475Q105 -475 109 -479Q106 -490 93 -503Q80 -516 77 -527Q96 -525 106 -513Q116 -500 128 -491Q139 -500 144 -500Q149 -500 157 -496L171 -491Q180 -485 189 -461Q197 -439 202 -435Q234 -470 329 -560V-564Q329 -579 338 -606Q344 -615 371 -621Q389 -625 396 -629Q402 -633 407 -646Q412 -659 419 -662Q420 -660 420 -656Q418 -643 416 -630V-628Q420 -629 424 -637Q428 -645 434 -645V-641Q434 -631 433 -621Q433 -614 437 -611H438Q443 -611 445 -620V-617Q445 -606 459 -588Q469 -575 471 -567Q472 -563 472 -559Q472 -536 452 -512Q452 -509 451 -506Q451 -504 454 -503Q423 -459 415 -391Q408 -323 403 -254Q396 -269 396 -293Q399 -334 402 -376Q402 -398 396 -410Q385 -409 381 -393Q379 -385 378 -359Q375 -306 371 -253Q371 -241 372 -236Q373 -228 377 -218Q382 -204 386 -205Q393 -205 393 -221Q393 -233 397 -233Q404 -228 404 -212Q404 -200 403 -188Q403 -176 407 -171Q402 -161 402 -150Q407 -114 412 -87ZM732 52V59Q720 64 719 75Q717 74 714 74Q707 75 703 81Q699 88 693 92Q681 87 669 87H664Q660 79 651 75Q642 72 633 67Q632 60 630 52V50Q620 47 609 47Q563 50 545 82H539Q516 81 504 62Q498 55 492 51Q486 47 484 36Q485 28 486 19Q485 -5 454 -38Q448 -38 442 -39H439V-41Q439 -48 432 -61Q426 -72 425 -79V-84Q426 -102 434 -120Q441 -139 446 -154Q450 -152 452 -152Q460 -154 466 -164Q474 -162 478 -162Q493 -164 508 -166Q516 -166 523 -162Q540 -166 557 -171Q563 -171 568 -167Q560 -163 552 -160Q544 -156 541 -148V-147Q541 -145 544 -143Q546 -141 547 -139Q579 -149 615 -156Q651 -162 677 -180Q664 -183 653 -183Q621 -180 590 -173Q606 -189 634 -193Q663 -198 687 -206Q695 -210 702 -215Q705 -216 709 -216Q725 -214 737 -209Q742 -212 746 -215Q629 -275 615 -281Q606 -288 596 -290H594Q585 -288 576 -277Q566 -266 559 -258Q488 -182 455 -158Q452 -157 449 -157Q433 -157 422 -169Q411 -181 409 -197V-199Q411 -210 412 -221Q411 -231 410 -242Q411 -250 416 -263Q422 -278 422 -285Q422 -291 419 -297Q427 -293 428 -285Q430 -277 434 -271Q479 -295 517 -326Q514 -335 496 -355Q496 -366 492 -386H495Q499 -386 501 -393Q503 -401 508 -401H511Q502 -410 489 -413Q487 -412 484 -412Q483 -421 473 -424Q467 -422 462 -415Q457 -408 454 -407Q465 -420 465 -439Q465 -452 454 -452Q448 -452 446 -448Q443 -445 440 -440Q447 -507 489 -547Q491 -543 491 -540Q488 -529 485 -518Q485 -514 486 -512Q504 -525 519 -549Q534 -574 547 -599Q558 -615 561 -631Q561 -637 557 -641Q537 -632 527 -609Q516 -586 502 -569V-572Q502 -591 523 -624Q543 -655 543 -674Q543 -678 542 -682Q525 -679 516 -667Q507 -655 498 -650Q500 -663 513 -677Q526 -692 529 -702Q514 -691 507 -689Q513 -721 534 -737Q555 -753 579 -770Q587 -776 594 -782Q600 -788 612 -788Q625 -788 651 -782Q668 -774 684 -771H686Q694 -771 705 -778Q718 -786 723 -786H726Q719 -776 710 -768Q700 -760 699 -743Q701 -743 705 -748Q713 -757 719 -758Q711 -743 708 -726Q708 -712 719 -689Q729 -669 729 -659V-655Q726 -622 697 -604Q668 -586 649 -560Q687 -571 728 -588Q742 -596 753 -609Q765 -623 783 -624Q788 -624 791 -623Q802 -620 808 -610Q813 -600 821 -591Q831 -597 844 -600V-599Q844 -595 838 -589Q829 -580 829 -573Q829 -569 830 -567L831 -566Q834 -569 839 -572H841V-569Q837 -560 833 -551Q833 -547 832 -544Q833 -534 833 -524Q833 -512 827 -506Q778 -490 734 -451Q717 -436 661 -375Q675 -366 710 -354Q743 -342 758 -333Q754 -332 747 -332Q734 -332 711 -340Q688 -348 675 -348Q668 -348 664 -347Q678 -333 734 -312Q777 -294 816 -289H822Q841 -289 846 -300Q841 -306 821 -312Q800 -318 794 -326Q797 -327 804 -327Q832 -323 859 -319Q871 -319 880 -323Q885 -334 887 -357Q890 -384 893 -392Q890 -398 890 -401Q890 -407 896 -407Q898 -399 898 -371Q898 -336 904 -323Q911 -339 912 -382Q913 -431 922 -447Q924 -410 923 -372Q923 -334 930 -303Q934 -312 934 -336V-350Q934 -369 938 -378Q943 -352 945 -326Q947 -300 955 -277Q976 -228 976 -205Q976 -184 964 -168Q941 -139 912 -139H910Q892 -142 877 -154Q861 -167 846 -176Q800 -200 778 -206Q782 -195 796 -187Q804 -182 819 -177Q823 -127 837 -127L840 -128Q840 -125 833 -118Q827 -112 825 -107Q822 -91 818 -79H813Q802 -79 791 -65Q782 -53 773 -51Q772 -53 772 -58Q776 -71 784 -82Q781 -89 774 -89Q761 -89 751 -79Q742 -62 732 -45Q712 -9 712 7Q712 14 713 18Q723 15 735 -7Q748 -30 760 -35Q762 -32 762 -28Q758 -16 748 -8Q732 13 732 52Z"/>
</svg>