<svg xmlns="http://www.w3.org/2000/svg" viewBox="0 -800 1024 1024">
	<path fill="#000000" d="M277 -98H274Q278 -108 287 -110Q294 -110 294 -102Q286 -100 277 -98ZM935 -495Q933 -480 923 -476Q923 -479 922 -482Q922 -496 930 -496Q933 -496 935 -495ZM841 -207Q838 -196 834 -186Q828 -187 828 -200Q828 -207 830 -210L833 -211Q837 -209 841 -207ZM295 -590L292 -591Q280 -591 261 -571Q239 -549 234 -525Q243 -542 295 -590ZM707 -538Q690 -531 680 -519Q669 -506 658 -494Q640 -478 630 -461Q687 -503 707 -538ZM643 -413H645Q663 -413 690 -434Q715 -453 716 -454Q729 -466 729 -481Q729 -485 728 -489Q715 -473 683 -448Q655 -426 643 -413ZM326 -530V-533Q290 -506 272 -490Q240 -461 227 -432H229Q231 -432 239 -440Q306 -503 306 -504Q322 -515 326 -530ZM619 -549H621Q620 -542 615 -533Q609 -522 608 -516Q631 -525 647 -541Q663 -558 677 -576Q673 -578 671 -582Q662 -580 650 -571Q637 -561 630 -558Q629 -560 629 -564Q629 -570 637 -576Q646 -583 646 -588L644 -591L645 -593Q604 -574 600 -543L603 -542Q611 -545 619 -549ZM251 -377V-375Q261 -372 271 -369Q284 -375 296 -387Q307 -399 320 -413Q357 -450 357 -471Q357 -477 354 -483Q316 -458 289 -423L257 -386Q253 -382 251 -377ZM421 -164V-162Q419 -149 417 -137Q417 -133 418 -130Q397 -130 396 -119Q379 -119 372 -117Q361 -114 359 -104Q351 -120 327 -122Q315 -122 307 -114V-116Q307 -120 312 -125Q317 -129 322 -130Q313 -152 295 -156Q296 -160 301 -163Q306 -166 307 -168Q307 -172 302 -176Q297 -179 297 -183Q312 -189 331 -197Q350 -204 368 -205Q384 -205 395 -197Q398 -200 399 -204Q400 -209 406 -209H409L410 -207Q408 -205 405 -200V-199Q406 -192 413 -181Q420 -170 421 -164ZM767 95H764Q754 92 729 64Q697 30 664 -2Q655 -9 646 -16Q638 -23 637 -33V-36Q664 -27 697 9Q730 45 754 54Q731 21 699 -9Q672 -36 652 -52Q624 -74 596 -86Q596 -79 606 -69Q616 -59 616 -48V-45Q607 -48 601 -55Q594 -62 588 -68Q572 -82 562 -89Q525 -55 480 -30Q435 -5 391 20Q323 57 282 120Q259 95 232 95Q223 95 214 98Q213 54 178 36Q176 9 171 -14Q168 -24 155 -40Q143 -55 141 -65L143 -66Q147 -66 149 -62Q152 -58 154 -55Q171 -32 190 -14Q182 -30 156 -63Q121 -106 112 -134Q139 -108 162 -78Q185 -46 220 -26Q220 -33 210 -39Q202 -44 201 -51Q209 -50 221 -39Q236 -26 245 -26H246Q268 -33 289 -47Q318 -60 346 -71Q375 -82 402 -99Q419 -111 433 -124Q447 -138 464 -143Q458 -112 433 -101Q409 -90 392 -71Q398 -68 403 -68Q416 -68 442 -89Q473 -113 479 -125Q489 -147 489 -178Q489 -209 476 -219Q468 -216 468 -203Q469 -188 470 -174Q470 -161 461 -158Q460 -159 454 -197Q450 -221 436 -225Q436 -248 427 -249Q430 -258 438 -262Q447 -266 457 -269Q475 -281 489 -288Q509 -291 528 -294H531Q538 -294 554 -285Q572 -275 581 -275H585Q588 -267 596 -255Q582 -235 582 -218Q582 -209 585 -200L681 -243Q684 -249 687 -255Q742 -249 757 -233Q766 -234 775 -236H779Q777 -232 771 -228Q764 -224 763 -221Q765 -214 773 -197Q764 -162 751 -146Q726 -152 693 -152Q640 -152 608 -137Q669 -88 689 -74Q735 -43 784 -27Q788 -30 790 -38Q793 -48 797 -50V-43Q797 -25 806 -21Q824 -46 824 -91Q824 -135 830 -173Q835 -153 835 -96Q835 -46 840 -23Q842 -37 842 -47Q842 -61 841 -76Q841 -102 847 -113Q852 -102 852 -80Q852 -60 851 -40Q851 -12 858 0Q862 -7 862 -22V-34Q862 -53 868 -59Q871 -54 871 -46Q871 -37 870 -29Q872 -5 885 16Q893 29 911 48Q905 66 899 83Q885 84 868 98Q853 111 843 111Q842 111 815 102Q789 95 785 95Q783 94 780 94Q774 95 767 95ZM646 -291V-293Q646 -310 630 -310Q625 -310 622 -309Q625 -322 637 -323Q634 -325 632 -333Q629 -344 621 -344H619Q633 -364 639 -375Q637 -378 634 -387Q630 -399 625 -401Q575 -376 545 -326Q520 -335 520 -356V-360Q505 -367 505 -389Q505 -419 522 -434Q535 -426 550 -426Q566 -426 588 -437Q585 -442 580 -451Q576 -460 566 -463Q566 -470 572 -470Q569 -477 552 -477H545Q550 -490 565 -498Q566 -499 593 -510Q590 -513 586 -513Q580 -511 574 -510Q565 -526 556 -542Q556 -549 555 -556Q555 -592 572 -605H574L578 -604Q597 -624 624 -633Q622 -639 619 -645Q617 -646 613 -646Q607 -646 597 -638Q587 -630 579 -630H578Q571 -630 561 -642Q552 -653 548 -656Q539 -661 530 -667Q521 -672 520 -687Q524 -701 527 -716Q527 -720 526 -722Q532 -724 543 -732Q552 -739 560 -742L562 -741Q561 -738 560 -735Q560 -733 562 -731Q592 -733 654 -750Q722 -768 761 -768H764Q773 -759 782 -750Q803 -760 805 -762Q797 -754 788 -739Q789 -736 794 -736H800Q795 -728 792 -720Q792 -718 794 -714Q780 -705 775 -680V-679Q775 -676 778 -676Q780 -676 781 -674Q775 -672 775 -667L776 -663Q754 -668 725 -672Q721 -671 716 -671Q713 -671 704 -667Q695 -663 695 -660Q703 -652 711 -644Q730 -626 766 -612Q811 -638 821 -663Q823 -671 823 -677Q823 -690 816 -696H814Q804 -693 796 -689Q817 -725 855 -726Q869 -728 882 -731H886Q903 -723 908 -694Q914 -665 923 -648Q917 -624 907 -612Q894 -596 870 -594Q871 -603 882 -614Q890 -622 892 -629V-630Q892 -634 888 -634Q884 -634 881 -636Q872 -627 836 -612Q806 -600 797 -582Q802 -583 816 -589Q832 -596 842 -596Q850 -596 858 -591Q844 -582 824 -577Q802 -571 796 -555V-552Q797 -539 808 -526Q819 -514 828 -506Q842 -491 849 -485Q861 -475 871 -474Q881 -513 893 -525Q886 -502 886 -488Q886 -479 889 -470Q899 -553 917 -581Q913 -557 908 -528Q903 -500 902 -470Q902 -453 905 -437Q908 -438 911 -444Q915 -451 919 -452Q915 -443 915 -433Q915 -422 923 -403Q932 -381 932 -366Q932 -362 930 -350Q918 -343 877 -325Q870 -328 862 -331Q860 -331 856 -329Q833 -343 816 -377Q815 -378 790 -441Q769 -389 764 -377Q748 -341 729 -321Q728 -324 728 -330Q728 -348 745 -375Q764 -406 764 -428V-431Q738 -380 711 -351Q703 -344 696 -337Q689 -329 688 -317Q688 -312 689 -309Q701 -315 712 -318Q716 -318 720 -315Q712 -288 678 -269Q657 -287 646 -291ZM505 -347V-341Q504 -329 489 -311Q478 -297 476 -287Q462 -290 453 -298Q444 -307 434 -314L437 -320Q420 -337 410 -369Q406 -366 385 -339Q370 -320 351 -318Q354 -328 367 -341Q384 -359 384 -372V-375Q371 -359 339 -333Q303 -304 289 -285Q300 -286 314 -296Q328 -306 337 -306H342V-304Q339 -297 329 -291Q303 -263 280 -243Q261 -252 257 -259V-268Q236 -277 236 -316Q236 -337 240 -365Q176 -315 148 -246Q130 -257 126 -261Q115 -271 115 -286V-288Q112 -295 107 -296Q110 -302 113 -308Q108 -308 108 -319Q108 -330 102 -330L98 -329Q101 -333 106 -337Q114 -343 116 -347Q115 -357 107 -376Q99 -395 98 -411Q104 -405 109 -390Q116 -370 124 -365Q102 -423 79 -482Q90 -469 106 -432Q117 -408 124 -395Q129 -386 134 -378Q138 -371 146 -370Q147 -370 153 -372Q162 -376 178 -390Q195 -405 201 -408Q200 -411 193 -411Q187 -410 181 -410L178 -411Q173 -415 171 -429Q168 -445 162 -447Q162 -450 167 -452Q171 -454 171 -457V-459Q170 -465 159 -468Q148 -471 147 -479Q158 -473 166 -473Q180 -473 195 -489Q218 -513 221 -515Q215 -519 210 -534Q203 -554 193 -557V-560Q195 -566 201 -570Q190 -568 173 -555Q162 -547 157 -545Q160 -559 174 -571Q175 -572 203 -591Q225 -606 243 -623Q235 -625 233 -625Q220 -625 205 -611Q192 -599 184 -598H182Q166 -600 157 -618Q147 -637 127 -644Q124 -650 124 -654Q127 -667 130 -681Q130 -688 129 -695Q129 -699 130 -701Q131 -708 148 -720Q151 -724 153 -729Q156 -734 160 -734L163 -733L165 -731Q163 -725 160 -719Q160 -715 163 -714Q174 -717 189 -717Q203 -717 208 -714Q204 -709 190 -706Q174 -703 172 -695Q173 -691 176 -691Q182 -693 187 -695Q266 -708 301 -729Q298 -730 293 -730Q283 -730 266 -724Q243 -716 232 -716H225Q233 -725 253 -729Q273 -733 282 -742Q295 -744 322 -753Q355 -764 374 -764Q386 -764 403 -759Q409 -749 417 -737Q432 -716 436 -705Q435 -701 428 -701Q429 -698 429 -696Q429 -689 424 -682Q419 -675 418 -671Q420 -663 420 -661Q420 -658 416 -648Q412 -649 407 -651H405Q397 -644 370 -641Q342 -638 334 -630Q353 -597 372 -569Q385 -577 409 -601Q417 -609 426 -617Q435 -626 436 -638H433Q427 -638 423 -632Q419 -626 416 -626Q418 -645 434 -659Q449 -673 467 -673Q487 -673 498 -656Q510 -661 511 -663V-662Q507 -656 503 -642Q503 -638 504 -636Q504 -633 509 -633H513Q511 -631 511 -627Q513 -618 514 -610V-609Q512 -601 507 -593Q505 -577 505 -559Q504 -540 490 -535Q486 -541 476 -541H468Q461 -541 458 -542V-543Q459 -553 466 -556Q474 -559 483 -563V-564Q482 -572 473 -573Q464 -574 461 -576Q457 -575 455 -571Q453 -567 451 -563H447Q433 -563 422 -554Q416 -549 407 -536H408Q421 -540 434 -544Q440 -544 443 -538Q436 -525 412 -518Q417 -508 424 -499Q430 -489 431 -477V-474Q424 -476 418 -487Q413 -495 409 -498Q409 -494 408 -491Q415 -443 454 -419Q445 -434 440 -461H441Q451 -461 456 -448Q460 -437 466 -435Q468 -452 470 -471Q472 -490 480 -501V-494Q478 -468 476 -442Q477 -435 477 -429Q490 -469 495 -516Q498 -504 498 -492Q495 -453 492 -415V-404Q495 -406 496 -412Q498 -421 501 -422Q500 -416 500 -404Q503 -375 505 -347Z"/>
</svg>