<svg xmlns="http://www.w3.org/2000/svg" viewBox="0 -800 1024 1024">
	<path fill="#000000" d="M152 -325Q151 -320 148 -317Q144 -315 143 -310L139 -311L137 -310Q133 -311 133 -320Q143 -322 152 -325ZM302 -261H299Q288 -261 274 -265Q270 -269 266 -274Q257 -276 247 -278Q242 -285 232 -288L228 -287V-288Q230 -292 231 -296Q226 -305 210 -305Q189 -305 169 -292Q173 -301 183 -306Q193 -310 201 -316Q193 -328 160 -328Q168 -334 176 -340Q184 -346 189 -355Q189 -363 179 -370Q169 -377 169 -384Q173 -383 180 -378Q189 -372 196 -372H198Q200 -373 202 -375Q201 -387 192 -400Q184 -411 182 -418Q192 -415 205 -399Q215 -386 222 -382Q228 -384 233 -397Q236 -405 240 -409Q244 -407 244 -398Q245 -388 248 -387Q260 -387 265 -399H266L268 -396V-391L269 -388Q288 -372 290 -362Q307 -354 315 -331Q321 -313 324 -283Q319 -276 315 -269Q311 -262 302 -261ZM220 109H214Q206 109 198 108Q192 108 188 112Q164 102 154 94Q137 80 137 61Q133 57 128 52V37Q125 30 115 29Q110 22 110 12Q113 -4 116 -21V-25Q114 -36 105 -45Q95 -55 87 -65Q82 -71 74 -85Q63 -99 63 -105V-108Q75 -99 94 -76Q120 -44 140 -35V-36Q140 -46 127 -58Q113 -71 112 -82Q135 -65 157 -49Q199 -89 240 -137Q215 -135 192 -112H189Q169 -113 162 -129Q155 -147 145 -164Q138 -172 132 -180Q125 -188 124 -195V-196Q124 -205 132 -219Q139 -232 139 -239Q139 -243 137 -249Q158 -231 182 -231Q191 -231 196 -232Q289 -240 327 -268Q337 -275 354 -300Q384 -344 396 -370Q377 -367 357 -364Q346 -364 336 -370Q320 -383 315 -413Q312 -422 307 -430Q302 -438 302 -450Q302 -456 303 -459Q311 -473 318 -488Q315 -502 308 -514Q306 -526 306 -529Q307 -553 321 -570Q335 -586 345 -603Q348 -601 348 -599Q347 -593 346 -588Q346 -584 348 -583Q359 -580 367 -580Q378 -580 402 -587Q422 -593 434 -593Q437 -593 447 -591Q439 -580 424 -578Q408 -575 398 -571Q388 -567 379 -553Q387 -551 392 -551Q424 -555 457 -570Q497 -582 514 -589Q513 -599 506 -601Q498 -603 491 -607Q491 -615 497 -617Q503 -619 509 -620Q500 -658 498 -666Q490 -692 478 -702Q465 -702 451 -689Q441 -680 432 -677Q434 -692 445 -701Q456 -710 467 -720Q478 -737 496 -752Q507 -758 518 -765Q533 -776 573 -789Q617 -745 660 -702Q659 -697 654 -689Q647 -678 647 -668V-664Q649 -662 657 -662Q666 -662 667 -658Q664 -650 655 -647Q645 -644 644 -633Q645 -629 651 -629Q660 -631 669 -634Q687 -639 740 -651Q793 -663 806 -673V-674Q805 -677 803 -681V-682L799 -683Q793 -682 787 -682H783V-684Q783 -694 799 -701Q812 -707 816 -712Q821 -711 821 -708Q821 -703 820 -699Q825 -696 831 -696Q849 -700 866 -705Q869 -704 871 -704Q864 -698 855 -692Q845 -686 844 -677Q844 -672 847 -668Q856 -671 864 -674H868Q866 -669 860 -664Q854 -659 853 -653Q853 -647 860 -636Q869 -622 869 -614Q874 -617 883 -617Q888 -617 890 -616Q888 -613 872 -605Q872 -600 871 -595Q871 -575 881 -557Q871 -542 868 -521V-518Q801 -501 704 -478Q608 -454 544 -432Q542 -425 540 -419L541 -415Q515 -397 500 -370Q485 -343 467 -315Q448 -286 433 -258Q424 -244 415 -232Q405 -220 403 -203Q392 -186 359 -139Q320 -84 302 -52Q306 -89 341 -146Q365 -185 373 -209Q360 -202 343 -175Q328 -152 321 -145Q286 -83 247 -26Q237 -10 223 14Q218 23 210 32Q203 41 202 52Q202 58 205 64Q219 60 234 41Q249 20 263 17Q256 43 243 65Q231 87 220 109Z"/>
</svg>