<svg xmlns="http://www.w3.org/2000/svg" viewBox="0 -800 1024 1024">
	<path fill="#000000" d="M479 -86V-88H489Q493 -80 497 -72Q479 -74 479 -86ZM811 -126H810Q802 -126 802 -136Q802 -142 806 -148Q810 -154 815 -154Q816 -154 820 -152Q820 -146 815 -138Q811 -132 811 -126ZM515 -182V-186Q514 -196 505 -196Q491 -195 488 -178V-179Q489 -190 489 -201Q489 -218 480 -223Q476 -221 472 -220H470Q470 -234 482 -241Q477 -248 477 -262Q477 -271 479 -285Q498 -303 511 -311Q532 -324 555 -324H564Q566 -325 568 -327H569Q581 -321 589 -311Q597 -302 606 -293Q612 -297 619 -298H623Q623 -295 622 -292Q625 -281 628 -270L627 -267L623 -266Q616 -269 609 -273Q605 -268 605 -261Q605 -251 616 -234Q626 -219 627 -213Q636 -214 636 -232Q636 -240 635 -249Q644 -248 646 -242Q648 -235 650 -229Q647 -227 644 -226Q647 -218 647 -211Q647 -206 641 -186Q625 -176 604 -173Q583 -170 561 -166Q553 -176 536 -176Q513 -176 512 -158Q510 -162 510 -165Q513 -173 515 -182ZM747 68H745Q725 68 707 90Q695 104 686 108Q678 106 675 106Q662 106 651 115Q648 105 634 94Q618 81 615 68Q603 64 592 40Q581 17 568 12Q570 9 571 9Q575 11 579 12L581 11Q574 -9 544 -29Q512 -50 504 -67Q523 -66 549 -44Q567 -29 577 -25Q562 -46 537 -64Q511 -81 497 -107Q515 -98 545 -75Q568 -58 577 -52V-53Q577 -56 572 -61Q564 -69 564 -75V-76Q573 -72 583 -65Q593 -58 606 -57Q614 -57 621 -61Q639 -73 647 -97Q655 -120 663 -141Q669 -147 674 -155Q683 -176 691 -198Q702 -216 713 -235Q759 -340 792 -431Q619 -383 572 -338H567Q552 -337 536 -336Q531 -336 526 -337Q495 -367 484 -382Q462 -412 462 -444Q462 -450 464 -464Q466 -472 470 -472V-475Q474 -501 482 -532V-544Q482 -555 491 -557Q495 -553 495 -546Q493 -530 490 -514Q490 -504 498 -500Q519 -536 519 -580Q519 -615 501 -629Q493 -628 493 -619Q495 -606 497 -594Q497 -591 495 -587Q486 -588 484 -605Q482 -621 475 -623Q469 -622 465 -613Q462 -605 458 -604Q456 -605 456 -609Q457 -616 458 -624V-626Q458 -632 452 -644Q446 -656 446 -664Q449 -684 463 -716Q471 -740 488 -752Q508 -763 531 -769Q548 -778 567 -781H569L571 -779Q588 -777 597 -770Q604 -765 614 -749Q617 -745 625 -744Q634 -743 636 -737Q638 -731 637 -719Q636 -706 637 -700V-699Q637 -696 636 -693V-692Q637 -684 642 -671Q648 -655 648 -650Q647 -639 635 -622Q626 -610 624 -604Q623 -602 623 -598Q623 -595 622 -592Q615 -577 608 -562V-554Q608 -548 607 -545Q604 -535 598 -521Q588 -499 588 -491Q588 -480 599 -473Q619 -484 690 -506Q759 -527 778 -538Q776 -547 760 -547H756Q743 -547 719 -538Q695 -529 681 -529H677Q703 -550 744 -556Q785 -562 814 -582Q813 -585 813 -589Q813 -594 814 -598H815Q821 -598 824 -593Q826 -588 829 -585Q831 -586 835 -586Q836 -586 851 -583H852Q856 -583 859 -587Q863 -592 867 -592H870L873 -590Q872 -587 871 -585Q886 -587 898 -602Q914 -623 920 -626Q918 -617 906 -601Q892 -583 892 -569H894Q897 -569 901 -575Q906 -583 912 -583H915Q909 -565 909 -560Q909 -552 912 -549L913 -548Q917 -549 921 -550H923Q928 -505 954 -496Q960 -461 963 -429Q963 -411 956 -397Q944 -389 932 -381Q919 -374 910 -362Q899 -338 888 -315Q863 -266 845 -216Q841 -203 837 -190Q833 -176 821 -170Q832 -211 880 -334Q870 -333 865 -326Q859 -319 855 -312Q831 -264 811 -208Q796 -175 780 -141Q764 -106 763 -65V-60Q773 -63 780 -75Q787 -88 795 -97V-92Q795 -77 783 -50Q773 -28 771 -17Q768 6 764 29Q761 51 747 68ZM445 -209Q441 -198 437 -187Q439 -184 440 -184Q444 -186 448 -189L451 -187L452 -184Q450 -177 447 -170Q450 -164 455 -161Q442 -131 442 -109L445 -108L449 -107Q437 -92 434 -67V-63Q363 -46 255 16Q271 -20 312 -35Q352 -51 386 -67Q378 -69 370 -69Q334 -69 248 -19Q241 -15 225 -12Q206 -8 200 -1Q187 10 187 24Q187 31 191 35Q198 34 209 27Q221 19 226 19Q227 19 233 21Q226 32 215 39Q204 45 195 53Q188 66 179 80Q170 97 151 98Q146 98 142 97Q134 93 128 85Q122 77 116 70Q103 69 92 68Q81 67 73 58Q63 45 63 24Q63 3 73 -10Q63 -23 63 -48Q63 -57 67 -73Q79 -92 100 -113Q107 -123 115 -134Q123 -144 132 -146Q128 -136 122 -128Q117 -119 116 -109Q116 -103 119 -97Q125 -91 133 -91Q140 -92 147 -94Q165 -99 182 -104Q206 -112 252 -135Q271 -142 322 -161Q374 -181 389 -190Q397 -191 415 -199Q434 -207 445 -209ZM411 -276Q416 -261 416 -251V-249Q410 -244 403 -232Q397 -220 394 -217Q388 -220 378 -203Q367 -184 363 -184Q354 -184 335 -197Q310 -214 295 -211Q300 -224 312 -229Q323 -233 334 -238Q327 -242 318 -242Q308 -242 288 -238Q234 -228 229 -197Q235 -197 248 -204Q265 -213 277 -213Q280 -212 283 -212Q274 -200 262 -192Q249 -185 236 -178Q207 -166 196 -135Q164 -133 161 -132Q148 -139 135 -167Q123 -192 112 -200Q129 -239 153 -268Q177 -296 200 -329Q139 -315 129 -271H124Q100 -271 86 -286Q81 -292 62 -325Q45 -352 42 -363Q37 -378 37 -399Q38 -402 38 -406Q41 -417 53 -427Q64 -437 73 -445Q98 -473 121 -488Q144 -504 175 -525Q185 -536 197 -538H198V-536Q189 -524 154 -500Q121 -478 115 -460Q136 -478 194 -511Q244 -540 269 -566Q304 -600 309 -617H308Q289 -615 278 -600Q267 -584 249 -577Q254 -596 277 -620Q300 -644 307 -660Q305 -668 300 -669Q311 -672 326 -683Q341 -694 356 -694Q366 -694 379 -687Q403 -673 409 -663Q416 -653 422 -616Q427 -590 432 -565Q429 -551 425 -537V-533Q393 -525 374 -511Q355 -497 329 -479Q317 -471 279 -463Q249 -457 241 -439Q245 -437 256 -437Q281 -437 314 -451Q312 -443 309 -436Q310 -426 321 -412Q331 -399 331 -388V-387Q329 -369 296 -344Q260 -317 256 -300Q282 -316 307 -325Q325 -346 343 -348Q343 -364 348 -366Q352 -365 353 -356Q354 -348 355 -347Q363 -345 365 -345Q370 -345 374 -348L378 -342Q381 -337 402 -314Q405 -305 411 -276Z"/>
</svg>