<svg xmlns="http://www.w3.org/2000/svg" viewBox="0 -800 1024 1024">
	<path fill="#000000" d="M690 -528H694Q706 -528 707 -532Q705 -531 702 -531Q700 -531 697 -532Q691 -532 690 -528ZM702 -509H703Q714 -513 719 -522Q717 -523 715 -525Q706 -519 696 -513Q699 -511 702 -509ZM820 -449V-444Q816 -436 803 -436Q799 -436 798 -437Q808 -449 817 -449ZM862 -164Q855 -153 844 -145Q844 -166 856 -166Q858 -166 862 -164ZM674 -312V-315Q679 -318 684 -318Q690 -318 693 -314Q690 -309 690 -305Q687 -304 683 -304Q679 -304 675 -305Q675 -308 674 -312ZM484 -108L537 -162Q495 -159 425 -124Q441 -121 484 -108ZM718 80H722Q714 53 644 27Q586 6 568 4Q574 15 587 20Q600 25 615 30Q652 40 654 64Q640 52 607 41Q582 32 568 25Q561 20 548 12Q536 3 526 2H525Q515 2 498 22Q475 48 472 51Q464 58 449 72Q434 86 423 89H419Q411 89 393 83Q376 77 366 77Q360 77 352 80L350 78Q353 75 355 71Q349 55 338 42Q340 36 340 34Q336 21 332 8L334 7Q337 10 342 13Q337 -6 329 -24Q341 -13 352 -2Q389 -24 431 -53Q417 -62 402 -70Q386 -78 385 -100V-102Q394 -107 401 -119Q397 -122 392 -122Q381 -121 372 -109Q362 -97 355 -86Q318 -37 299 -1Q290 19 277 40Q265 61 243 65H242Q229 62 215 58Q207 58 201 64L200 61V52Q194 43 172 43Q163 31 154 19Q156 7 156 2Q156 -17 145 -24V-26Q145 -30 148 -32Q151 -34 151 -36Q148 -43 145 -51Q149 -49 151 -49Q154 -49 161 -56Q151 -92 140 -128Q151 -120 158 -104Q164 -88 173 -74Q181 -64 203 -55Q214 -60 232 -79Q247 -96 256 -99Q256 -91 249 -79Q243 -69 243 -62V-58Q275 -89 302 -130Q329 -171 355 -212Q335 -198 306 -159Q284 -129 271 -117Q275 -137 289 -158Q290 -160 314 -191Q332 -215 361 -259H351Q327 -259 296 -246Q278 -238 247 -222Q223 -230 214 -239Q206 -237 202 -237Q184 -237 174 -249Q164 -261 164 -277Q164 -299 183 -308Q180 -317 180 -323Q181 -339 195 -348Q209 -357 222 -369Q230 -378 235 -387Q240 -395 250 -397V-395Q250 -393 246 -386Q239 -374 239 -367Q239 -365 241 -359Q245 -364 248 -369Q252 -374 258 -374H259V-372Q259 -367 258 -362Q258 -358 260 -354Q332 -363 426 -371Q440 -387 447 -412Q443 -414 440 -414Q433 -414 425 -409Q415 -414 397 -414Q372 -412 347 -410Q332 -410 320 -416Q317 -431 317 -445Q316 -459 309 -469Q266 -478 262 -479Q257 -465 252 -452Q248 -451 244 -451H242Q227 -451 226 -443Q222 -447 216 -447Q204 -444 192 -437Q197 -449 197 -450Q185 -448 178 -440Q172 -432 166 -423Q165 -425 165 -428Q169 -443 179 -453Q176 -454 172 -454Q160 -453 154 -438Q148 -424 142 -412Q143 -438 167 -497Q175 -517 182 -537Q189 -557 201 -573Q200 -559 193 -537Q185 -513 185 -502V-498Q192 -508 200 -530Q209 -553 214 -563Q223 -578 233 -593Q243 -608 244 -626Q244 -645 232 -647Q227 -618 225 -612Q219 -595 205 -590Q214 -621 214 -634Q214 -645 213 -651H210Q205 -651 198 -646Q193 -643 188 -642V-644Q192 -655 203 -663Q215 -680 228 -690Q234 -691 239 -693H241Q242 -710 253 -719Q263 -728 277 -728Q300 -728 309 -707Q313 -708 320 -708Q360 -708 368 -656Q397 -670 426 -687Q455 -705 490 -710Q477 -700 450 -686Q411 -666 398 -650H402Q420 -653 438 -663Q476 -676 518 -696Q535 -704 537 -705Q548 -712 550 -722Q544 -724 541 -724Q535 -724 524 -717Q516 -712 511 -712Q509 -712 505 -714Q505 -722 511 -726Q513 -727 524 -731Q531 -745 540 -758Q564 -776 626 -776Q646 -776 659 -773Q671 -770 688 -760Q706 -748 716 -748V-745Q715 -740 714 -735L715 -731L719 -729Q725 -733 730 -737L733 -736V-735Q732 -722 730 -710V-704Q734 -696 737 -689Q728 -664 699 -657Q669 -651 636 -644Q611 -638 590 -632Q568 -627 555 -617Q567 -611 577 -611Q578 -599 592 -587Q606 -575 606 -564V-561Q597 -540 565 -528H543Q528 -526 513 -525Q500 -525 491 -532Q476 -525 465 -519V-521Q465 -525 474 -533Q479 -537 481 -541Q478 -544 466 -544Q470 -549 470 -555Q470 -560 463 -573Q457 -585 456 -593Q405 -583 353 -573Q351 -583 348 -593Q319 -581 296 -549Q280 -527 262 -488Q280 -481 302 -481Q346 -484 392 -497Q472 -509 552 -522Q594 -533 637 -537Q652 -537 672 -532Q686 -540 699 -548Q696 -552 691 -552Q683 -551 675 -550Q676 -555 686 -559Q692 -561 694 -564Q688 -579 683 -595Q677 -610 663 -617L667 -618Q677 -614 687 -610Q693 -611 700 -616Q708 -622 713 -623Q710 -639 704 -654L727 -633Q735 -643 747 -648Q748 -637 758 -633Q762 -631 780 -629Q782 -629 785 -633Q788 -638 793 -638H795V-623Q799 -622 803 -622Q808 -622 811 -626Q831 -600 850 -575Q877 -533 877 -516V-515Q877 -509 870 -499Q864 -490 863 -482Q848 -482 830 -470Q828 -472 813 -477Q802 -481 802 -491V-492H819Q839 -492 844 -503Q838 -508 823 -509Q808 -510 801 -512Q790 -516 781 -523Q772 -529 760 -530Q757 -530 749 -528Q755 -516 768 -511Q783 -506 785 -487V-484Q762 -497 754 -497Q749 -497 743 -494Q748 -499 748 -502Q745 -511 725 -512Q711 -512 706 -507Q708 -506 713 -506H725Q732 -506 734 -504Q731 -502 726 -502Q717 -501 715 -498Q719 -490 722 -482Q721 -478 712 -478Q712 -466 719 -458Q657 -447 595 -437Q589 -406 570 -392Q724 -411 792 -432Q785 -423 777 -415Q787 -409 802 -409Q825 -410 847 -412H851Q839 -408 825 -405Q810 -402 807 -389Q811 -384 817 -384Q826 -386 835 -388Q840 -388 842 -386Q835 -381 829 -378Q822 -375 821 -365V-362Q823 -356 838 -356H843Q831 -354 827 -343Q822 -331 815 -321Q811 -317 804 -314Q795 -310 792 -305Q774 -306 738 -306H715Q724 -320 739 -320Q753 -321 771 -326Q756 -338 722 -338Q717 -338 675 -335Q616 -327 558 -318Q515 -314 500 -302H518Q549 -302 659 -312Q661 -310 663 -309Q666 -307 666 -303V-302Q618 -296 570 -291Q545 -288 522 -285Q498 -281 482 -272Q466 -262 459 -245Q451 -229 441 -212Q556 -234 591 -245Q635 -259 649 -259Q669 -259 685 -246Q705 -254 715 -254H718Q698 -249 696 -230Q696 -224 702 -218Q712 -221 721 -224Q722 -224 728 -222Q715 -211 715 -200Q715 -195 719 -191Q714 -186 713 -168Q712 -152 704 -149H698Q680 -149 674 -140V-139Q676 -136 677 -134V-133Q656 -132 643 -124Q630 -116 616 -110Q619 -122 633 -134Q649 -147 651 -159Q650 -161 648 -164Q635 -161 626 -152Q616 -143 606 -134Q592 -123 579 -112Q565 -101 562 -81Q571 -82 579 -93Q588 -105 599 -105H604Q593 -88 582 -71Q608 -57 645 -52Q682 -47 716 -42Q722 -40 728 -39Q751 -43 762 -60Q773 -77 785 -93Q785 -88 780 -77Q773 -60 773 -50V-48Q800 -79 836 -136Q833 -118 813 -85Q793 -52 790 -30Q805 -46 816 -66Q827 -87 839 -105Q838 -91 825 -67Q809 -37 808 -18Q809 -17 814 -17Q820 -17 820 -15Q811 1 801 16Q802 23 811 39Q820 55 820 63Q820 72 810 79Q803 82 795 84Q780 92 758 96Q745 100 731 104Q713 99 699 87Q678 78 668 68H674Q683 68 699 75Q710 80 718 80Z"/>
</svg>