<svg xmlns="http://www.w3.org/2000/svg" viewBox="0 -800 1024 1024">
	<path fill="#000000" d="M643 -241V-242Q643 -250 648 -250Q657 -248 659 -241Q659 -234 645 -233Q644 -237 643 -241ZM516 16V18Q517 22 518 26Q515 26 511 25Q508 26 505 26Q493 26 491 19Q491 10 500 10Q510 10 516 16ZM445 -344V-345Q445 -358 463 -358Q470 -358 474 -355Q470 -342 453 -342Q449 -342 445 -344ZM529 -122Q509 -122 485 -112Q478 -108 470 -104Q462 -99 461 -91Q461 -86 464 -82Q476 -83 493 -90Q510 -97 519 -98Q523 -111 529 -122ZM387 -207V-208Q392 -217 399 -227Q387 -226 372 -215Q361 -206 352 -205Q346 -195 346 -176Q346 -149 355 -127Q361 -139 372 -146Q387 -142 400 -136Q411 -144 427 -146Q442 -148 451 -152Q432 -153 409 -173Q387 -193 387 -207ZM577 -278H579Q590 -283 601 -288Q605 -288 608 -283Q591 -279 591 -267Q591 -264 592 -262Q594 -259 595 -259Q599 -261 603 -263L606 -262Q600 -256 600 -244Q600 -237 603 -231Q593 -229 582 -213Q573 -200 566 -199Q535 -195 479 -158Q496 -166 539 -179Q557 -185 573 -192Q589 -198 605 -199Q611 -199 621 -197Q626 -203 630 -210Q634 -218 643 -220Q636 -208 632 -197Q632 -194 634 -190Q638 -190 639 -194Q640 -198 645 -199Q647 -188 650 -176Q652 -164 662 -157Q662 -161 661 -165Q661 -182 673 -187Q676 -216 688 -268Q697 -308 701 -334Q680 -331 658 -329Q637 -321 615 -314Q545 -293 485 -269Q467 -263 453 -257Q439 -252 433 -241Q464 -247 494 -253Q507 -275 528 -275Q533 -275 535 -274Q544 -278 554 -284Q564 -290 573 -291Q576 -291 580 -289Q576 -288 576 -283Q577 -280 577 -278ZM695 123H686Q664 123 637 103Q617 88 603 85Q602 70 589 57Q580 48 563 37Q545 28 526 19H531Q570 24 603 39Q598 29 585 24Q572 19 559 16Q550 13 509 -2Q502 -4 495 -5Q487 -7 486 -16Q546 6 608 8Q605 3 589 0Q569 -4 565 -11Q579 -9 583 -9Q621 -11 632 -41Q644 -74 652 -112Q643 -109 634 -99Q623 -86 615 -86V-88Q615 -96 623 -107Q628 -114 628 -116Q628 -120 618 -121H616Q601 -121 584 -98Q567 -76 567 -58Q567 -52 568 -50Q573 -52 581 -63Q591 -77 600 -77Q603 -76 605 -76Q579 -40 559 -8H555Q544 -9 532 -10H528Q526 -14 524 -18Q525 -20 526 -22Q518 -27 510 -30Q492 -25 473 -20Q455 -16 451 4Q434 2 417 -1V-2L418 -6V-8Q397 -38 366 -68Q365 -64 365 -55Q365 -17 386 33Q381 44 377 74Q369 75 359 84Q348 93 341 93Q336 93 323 86Q305 76 295 76Q292 77 289 77Q284 53 260 50Q253 50 247 53L246 49Q247 42 256 39Q265 35 270 31Q270 2 256 -41Q245 -74 244 -86Q253 -82 259 -63Q265 -46 273 -41Q277 -46 277 -55Q277 -61 264 -95Q256 -116 249 -135Q242 -154 223 -164Q220 -161 217 -158V-155Q217 -150 222 -143Q226 -137 227 -131H224Q217 -132 213 -137Q209 -142 206 -146Q184 -175 146 -194Q147 -199 147 -209Q146 -233 144 -257Q161 -270 161 -302Q161 -320 158 -338H159Q166 -338 170 -321Q174 -305 179 -302Q183 -303 183 -307Q181 -315 179 -324L180 -328H181Q186 -328 190 -322Q193 -318 194 -318L197 -319Q200 -320 200 -322Q198 -326 196 -330V-332H199Q208 -330 214 -326Q228 -335 242 -335Q253 -335 282 -327Q305 -321 319 -320Q340 -332 357 -332Q360 -331 363 -331Q372 -338 386 -338Q395 -338 396 -332Q380 -325 361 -321Q342 -317 335 -302Q342 -295 350 -295Q358 -295 368 -300Q421 -317 473 -334Q501 -343 528 -351Q556 -359 575 -373Q572 -374 566 -374Q551 -374 528 -366Q505 -358 495 -358H491Q507 -374 535 -379Q562 -383 586 -392Q583 -406 564 -408Q545 -411 529 -412Q529 -415 539 -416Q547 -416 548 -421Q540 -423 535 -423Q525 -423 503 -415Q487 -409 477 -409Q529 -437 535 -441Q566 -462 580 -487Q568 -493 555 -499Q541 -505 532 -514Q513 -560 510 -577Q507 -575 507 -573Q507 -572 512 -562Q504 -554 504 -538Q504 -530 506 -512Q483 -504 455 -496Q426 -488 406 -473Q435 -447 435 -416Q435 -405 430 -388Q410 -366 405 -353Q394 -357 377 -357Q362 -357 344 -353Q328 -377 309 -377Q302 -377 294 -374Q300 -386 307 -397Q301 -410 288 -419Q262 -416 248 -403H244Q225 -403 194 -374Q172 -353 164 -353Q140 -356 118 -369Q112 -373 104 -384Q96 -396 91 -398Q89 -412 73 -430Q76 -436 76 -442Q76 -455 61 -472Q67 -495 81 -509Q95 -524 109 -538Q110 -544 114 -549Q119 -555 124 -555Q127 -555 129 -554V-551Q129 -546 121 -537Q112 -527 112 -518Q128 -523 159 -556Q177 -576 190 -602Q204 -628 218 -650Q216 -652 214 -656Q188 -645 177 -620Q165 -595 146 -578Q145 -580 145 -584Q149 -601 164 -616Q174 -635 184 -655Q190 -661 196 -668Q202 -674 203 -686Q200 -700 196 -715H198Q205 -714 211 -714Q219 -714 220 -719Q220 -723 215 -723Q209 -724 209 -727V-728Q219 -731 241 -749Q265 -769 280 -771H282Q293 -769 303 -768Q307 -768 313 -770Q330 -762 350 -746Q370 -730 374 -728Q377 -712 389 -709Q388 -707 388 -703Q388 -697 394 -683Q399 -671 399 -664Q399 -659 394 -649Q389 -639 389 -632H386Q381 -631 380 -626Q380 -620 377 -616Q373 -618 370 -618Q368 -618 366 -616Q358 -609 343 -601Q319 -588 312 -578Q339 -586 366 -595Q375 -605 406 -613Q432 -619 441 -626H442Q456 -626 477 -641Q494 -653 503 -653H506Q506 -651 500 -645Q491 -635 491 -628Q491 -625 492 -623L495 -622Q497 -622 500 -626Q504 -632 508 -632H509V-630Q505 -620 500 -611Q505 -601 510 -592Q521 -612 531 -632V-649Q538 -667 542 -689Q542 -698 538 -707Q532 -706 524 -695Q518 -688 513 -685Q514 -694 520 -708Q528 -727 528 -741V-746Q536 -754 546 -772Q558 -793 565 -800Q586 -821 610 -821H614Q623 -820 631 -812Q639 -804 649 -796Q654 -794 658 -793Q674 -776 685 -758Q701 -739 701 -725V-719Q701 -714 707 -712Q704 -706 704 -698Q704 -689 707 -685Q701 -680 697 -668Q694 -659 691 -655Q692 -654 696 -654Q705 -654 711 -656V-654Q711 -648 698 -644Q687 -640 683 -636Q680 -631 680 -628Q680 -619 697 -619Q703 -620 744 -638Q778 -652 786 -656Q808 -667 819 -682Q815 -682 810 -683Q792 -683 766 -670Q745 -659 736 -659Q738 -666 739 -673Q782 -690 789 -694Q795 -698 807 -708Q821 -720 830 -724V-712Q836 -710 838 -710Q847 -710 869 -723Q894 -738 911 -739Q907 -735 892 -726Q873 -715 867 -704Q870 -705 881 -711Q893 -718 902 -718H905Q891 -701 891 -692Q891 -685 895 -680Q900 -680 905 -684Q909 -688 913 -688V-678Q913 -655 922 -647Q921 -626 908 -601Q897 -580 895 -569Q849 -564 812 -559Q774 -555 742 -538Q746 -519 750 -500Q739 -483 736 -480Q727 -471 713 -469V-471Q713 -478 718 -485Q722 -491 723 -494Q719 -497 713 -497Q693 -497 674 -466Q653 -459 649 -441Q649 -434 654 -430Q665 -438 674 -447Q682 -456 695 -457H698Q694 -449 677 -436Q661 -424 657 -413L660 -412Q676 -412 676 -417V-418Q684 -418 698 -424Q717 -432 729 -432Q747 -466 800 -466Q815 -466 828 -463Q837 -470 852 -473H854Q852 -466 849 -460H852Q861 -460 875 -472Q887 -482 892 -482L896 -481Q895 -474 881 -464Q866 -453 863 -445Q867 -446 873 -451Q880 -456 886 -457Q882 -448 882 -437Q882 -412 904 -386Q898 -380 897 -368Q897 -355 895 -344Q830 -312 806 -250Q782 -180 766 -104Q762 -112 762 -124Q762 -136 777 -194L795 -262Q778 -259 766 -236Q750 -203 739 -139Q731 -97 731 -71Q731 -33 745 -8Q752 -13 752 -26Q752 -38 754 -49Q762 -38 763 -2Q764 28 768 39Q753 63 733 83Q713 102 695 123Z"/>
</svg>