<svg xmlns="http://www.w3.org/2000/svg" viewBox="0 -800 1024 1024">
	<path fill="#000000" d="M450 -461Q443 -455 443 -443V-432Q443 -426 442 -422Q438 -414 427 -405Q415 -397 407 -392Q387 -380 367 -368Q365 -351 362 -335Q362 -325 367 -320Q376 -327 386 -330Q390 -330 392 -328Q412 -347 427 -364Q426 -356 416 -342Q403 -325 403 -316Q403 -309 407 -302Q415 -311 422 -320Q416 -309 412 -284Q412 -278 413 -275L414 -274Q415 -274 415 -277Q416 -281 419 -281H421L422 -280Q418 -269 414 -258Q414 -253 419 -250Q414 -235 414 -233Q414 -229 415 -226Q409 -212 389 -190Q359 -159 356 -137Q354 -119 354 -111Q358 -66 361 -22Q350 -26 349 -39Q348 -52 347 -65Q340 -106 338 -115Q332 -109 332 -95Q334 -75 336 -56Q338 6 344 19Q351 4 357 -11Q369 -3 369 22Q369 46 359 71Q349 96 338 99Q336 100 331 100Q317 100 302 87Q290 77 283 64Q276 49 270 34Q263 20 249 11Q251 10 255 10Q261 10 265 13Q262 9 250 1Q234 -9 230 -17Q244 -14 258 -11Q261 -11 264 -12Q282 -21 284 -53Q286 -85 286 -109Q270 -102 258 -89Q245 -77 233 -64Q195 -25 166 43H159Q123 43 118 19Q102 16 94 2Q86 -11 86 -31Q86 -48 93 -61Q87 -76 87 -86Q88 -104 100 -117Q111 -130 124 -144Q145 -172 151 -175Q149 -172 149 -165Q149 -156 153 -152Q158 -153 165 -160Q173 -168 179 -168Q182 -168 184 -167Q182 -159 170 -147Q162 -139 159 -133Q161 -132 165 -132Q176 -132 195 -149Q241 -189 286 -229Q263 -224 238 -202Q209 -176 198 -172L197 -176Q201 -185 210 -191Q221 -203 231 -216H232Q236 -217 239 -218L242 -216Q249 -232 266 -239Q283 -246 292 -260Q291 -265 291 -273Q294 -297 297 -321Q297 -330 296 -334Q214 -300 169 -263Q153 -249 137 -232Q122 -216 99 -208Q92 -213 83 -224Q69 -241 59 -245Q57 -257 56 -268Q54 -280 46 -287L44 -288Q40 -286 35 -284H33Q35 -297 43 -304Q39 -313 30 -313Q23 -313 15 -308Q54 -343 72 -398Q90 -453 116 -500Q119 -494 119 -488Q118 -476 112 -465Q106 -453 101 -442Q95 -416 91 -389Q123 -427 151 -515Q161 -545 161 -553Q161 -556 159 -564Q147 -560 138 -535Q131 -515 123 -509Q123 -513 122 -518Q123 -536 130 -553Q137 -569 142 -586Q139 -597 126 -597Q115 -597 102 -592Q116 -606 139 -643Q166 -686 184 -701Q197 -711 204 -712Q218 -708 231 -704Q251 -706 262 -696Q273 -683 285 -640Q293 -611 298 -601Q297 -595 295 -589Q295 -586 296 -584Q272 -550 245 -519Q218 -488 210 -439Q224 -443 258 -460Q283 -472 298 -478V-484Q298 -497 292 -521H290Q287 -519 284 -518H283Q289 -565 336 -593Q353 -584 370 -575Q371 -567 385 -539V-537Q383 -531 381 -526V-524L383 -523Q391 -526 398 -533Q405 -531 409 -527Q417 -535 431 -538L432 -537Q431 -534 428 -529Q424 -524 423 -517Q423 -513 424 -511H426Q429 -511 431 -514Q434 -518 435 -518H436Q433 -509 433 -501Q433 -490 439 -483L440 -481Q443 -483 445 -485H446Q447 -482 447 -480Q446 -473 445 -466Q445 -461 450 -461ZM926 -142Q923 -131 920 -121V-120Q914 -124 914 -134Q915 -147 924 -149Q926 -146 926 -142ZM975 -558V-556Q974 -547 968 -548Q961 -548 952 -548L953 -550Q955 -560 968 -561Q971 -560 975 -558ZM913 -722Q908 -713 888 -713Q888 -725 903 -725Q909 -725 913 -722ZM907 -235H908Q920 -237 932 -239H935Q930 -233 930 -219Q930 -200 938 -192Q932 -171 907 -162Q903 -161 858 -151Q816 -140 773 -130Q804 -108 819 -94Q843 -75 854 -75Q862 -75 869 -83Q877 -94 878 -104Q879 -115 883 -134Q888 -99 895 -67Q899 -78 899 -98Q895 -133 902 -156Q905 -140 906 -108Q908 -68 915 -40Q917 -45 917 -57Q916 -76 915 -95Q915 -106 917 -110Q924 -94 928 -64Q932 -34 937 -20Q944 -3 953 14Q962 31 963 47Q963 51 961 59V64Q961 90 940 110Q918 131 890 131Q875 131 864 126Q858 121 852 116Q825 103 809 74Q806 68 797 59Q785 46 784 40Q794 41 801 48Q806 53 814 65Q829 88 846 89Q826 46 791 5Q765 -26 721 -65Q720 -62 720 -56Q720 -43 739 -27Q758 -11 758 1V2Q735 -9 720 -32Q710 -46 699 -60Q688 -38 672 -17Q646 13 614 49Q583 85 528 120Q503 125 501 125H497Q487 115 477 102Q468 89 451 88Q448 89 444 89L443 85Q443 79 450 74Q457 69 458 65V60Q455 47 435 25Q414 3 408 -8Q410 -10 434 4Q453 15 455 14Q452 -2 429 -39Q411 -68 408 -79Q420 -70 437 -47Q455 -24 466 -12Q525 -16 564 -42Q588 -58 611 -89L613 -91Q603 -89 599 -88Q584 -88 537 -68Q502 -53 491 -53Q477 -53 470 -76Q450 -86 432 -98Q436 -107 432 -122Q429 -133 429 -140Q429 -147 435 -162Q442 -181 440 -191H442Q448 -191 456 -185Q462 -181 464 -180H466Q476 -181 485 -182H489Q504 -176 524 -174Q532 -174 541 -177Q541 -168 521 -164Q503 -160 503 -151V-148Q578 -158 643 -185Q639 -186 631 -186Q622 -186 587 -179Q584 -176 582 -175Q576 -169 563 -171Q553 -173 540 -181Q530 -187 521 -187Q517 -186 513 -185Q515 -190 516 -196Q508 -202 500 -207Q493 -212 490 -222V-228Q490 -244 503 -255Q515 -265 533 -266Q553 -255 572 -245Q577 -238 584 -233Q587 -233 589 -238Q592 -243 594 -243L597 -242V-240Q594 -230 591 -221V-218Q594 -213 597 -208Q597 -198 594 -192Q611 -196 677 -208Q686 -231 688 -238Q692 -250 697 -263Q701 -276 687 -280Q685 -280 682 -280Q681 -279 679 -273Q679 -257 678 -242Q676 -233 673 -230Q668 -235 669 -244Q670 -254 671 -263Q671 -284 664 -297Q656 -309 644 -326Q650 -335 667 -349Q685 -364 692 -377Q713 -393 751 -386L757 -384Q780 -377 792 -357Q804 -336 826 -327Q825 -324 824 -321Q822 -313 818 -312Q814 -311 812 -303L811 -300Q806 -278 801 -268Q799 -265 789 -260Q772 -251 768 -243Q763 -232 761 -223Q810 -232 858 -242Q863 -245 872 -264Q879 -279 892 -280Q885 -266 883 -251V-246H884Q891 -247 898 -249H902L904 -247Q903 -245 901 -244Q903 -244 906 -241Q906 -237 907 -235ZM752 -665Q799 -679 815 -684H816Q819 -684 819 -680Q820 -675 821 -675Q864 -689 900 -696Q897 -693 886 -689Q872 -684 868 -676Q868 -673 871 -673Q873 -673 873 -670Q891 -676 911 -678Q906 -674 900 -670Q894 -667 891 -661Q895 -659 896 -659Q901 -660 909 -666L910 -663Q908 -655 905 -648Q908 -644 910 -641Q918 -642 925 -644Q917 -631 907 -624Q899 -599 897 -595Q891 -583 879 -576Q865 -569 844 -568Q823 -568 804 -566Q779 -563 733 -549Q733 -528 733 -508Q743 -510 746 -510Q800 -523 846 -532Q855 -547 874 -550Q892 -554 910 -557H911L912 -556Q912 -555 906 -549Q907 -547 913 -540Q919 -534 920 -527Q928 -532 942 -544Q933 -526 932 -513V-511L938 -509Q944 -512 950 -515H952V-514Q952 -510 946 -504Q942 -500 940 -496Q936 -486 936 -479Q938 -453 939 -427Q931 -413 928 -403H923Q903 -404 891 -397Q880 -389 872 -378Q860 -358 835 -346Q840 -361 853 -380Q864 -395 868 -407Q849 -403 840 -385Q832 -368 817 -355Q815 -355 815 -359L816 -362L814 -365H812Q809 -364 805 -363L804 -367V-370Q804 -375 803 -377Q796 -376 788 -375Q791 -397 799 -407Q806 -418 813 -431Q778 -425 715 -399Q652 -372 596 -353Q606 -345 615 -337Q618 -342 624 -345H626Q624 -340 626 -336Q626 -328 633 -315Q641 -299 642 -288V-284Q634 -273 626 -262Q616 -259 608 -259Q593 -257 561 -268V-271Q561 -275 558 -275H557Q550 -272 543 -269Q544 -273 549 -278Q548 -287 541 -292Q534 -297 530 -303Q528 -306 528 -313V-315Q527 -318 527 -322Q506 -309 497 -296Q490 -298 466 -314Q467 -326 456 -344Q445 -363 446 -372Q446 -378 453 -389Q448 -403 449 -413Q449 -427 459 -440Q489 -478 534 -502Q526 -511 518 -520Q505 -529 503 -531Q496 -537 497 -546Q499 -554 502 -560Q499 -572 500 -582Q503 -617 532 -626Q539 -621 545 -617Q638 -631 640 -632Q633 -647 625 -657Q623 -658 618 -658H614L621 -693Q620 -698 615 -700Q616 -720 625 -731Q634 -743 646 -756Q662 -780 685 -790Q698 -786 717 -769Q730 -758 738 -753Q736 -752 733 -752Q725 -755 710 -759H707Q716 -741 729 -728Q741 -715 742 -691V-687Q751 -690 751 -699Q747 -717 742 -736Q742 -739 744 -743Q758 -723 763 -696Q753 -683 752 -665ZM657 -490V-525Q577 -499 554 -488Q545 -490 536 -499Q526 -489 519 -475H520Q524 -474 530 -481Q536 -487 540 -487Q531 -481 531 -475Q531 -465 545 -463Q554 -463 559 -467V-465Q559 -459 546 -456Q532 -452 530 -445Q534 -445 595 -456Q628 -461 658 -474Q652 -475 617 -469Q592 -464 584 -465Q581 -465 577 -466Q596 -474 657 -490Z"/>
</svg>