<svg xmlns="http://www.w3.org/2000/svg" viewBox="0 -800 1024 1024">
	<path fill="#000000" d="M70 -244Q64 -246 64 -258Q67 -261 69 -261Q74 -261 74 -253Q74 -247 70 -244ZM590 -11Q580 -13 576 -15Q569 -19 568 -26Q571 -29 575 -29Q589 -27 590 -11ZM718 -378Q707 -373 695 -369Q695 -350 698 -345Q709 -353 718 -378ZM617 -348V-345Q617 -339 621 -331Q626 -332 647 -339Q647 -353 644 -357Q640 -355 632 -354Q622 -353 617 -348ZM636 -422Q634 -428 633 -436Q632 -444 626 -447Q619 -443 611 -436Q602 -430 601 -422Q601 -417 605 -412Q621 -416 636 -422ZM638 -219V-218Q644 -224 670 -226Q689 -228 697 -231Q692 -241 692 -251Q692 -263 702 -275Q708 -282 722 -293Q721 -296 717 -296Q708 -293 698 -291Q669 -291 654 -282Q666 -277 668 -252Q660 -244 650 -237Q639 -230 638 -219ZM364 -144Q370 -176 376 -209Q340 -194 314 -171Q317 -152 320 -133Q342 -138 364 -144ZM764 -453Q774 -477 784 -502Q719 -495 697 -472Q707 -472 707 -459Q707 -453 706 -447Q706 -443 707 -441Q724 -444 744 -457Q745 -453 752 -453Q756 -453 760 -454ZM966 -210V-209Q966 -201 960 -190Q955 -181 955 -176Q955 -175 957 -169Q941 -160 925 -141Q905 -161 847 -161Q813 -161 771 -155Q765 -134 765 -110Q767 -75 768 -40Q758 -42 757 -66Q756 -89 746 -92Q741 -82 741 -62Q744 -29 746 3Q747 29 748 35Q750 52 758 58Q768 56 769 31Q770 10 777 6Q781 18 781 34Q781 69 762 101Q750 103 744 111Q718 109 703 97Q689 85 673 72V69Q673 65 672 60Q660 41 643 30Q626 18 611 4Q606 3 601 2Q595 0 595 -6H597Q608 -6 629 5Q649 16 656 17Q645 8 611 -13Q567 -40 552 -55Q555 -58 558 -58Q568 -55 576 -48Q613 -23 659 -8Q657 -14 646 -18Q633 -23 632 -31Q648 -28 663 -26H668Q691 -34 692 -69Q692 -112 697 -149Q692 -149 686 -150Q668 -150 635 -141Q609 -134 596 -133Q601 -144 626 -152Q642 -154 661 -155Q679 -157 692 -168Q688 -174 681 -174Q672 -173 663 -172Q593 -165 584 -163Q542 -153 531 -127Q535 -125 542 -125Q554 -126 565 -127H568Q563 -120 551 -112Q535 -102 530 -93Q526 -92 520 -92Q508 -93 501 -99Q494 -106 484 -112Q475 -114 465 -117Q456 -123 456 -143Q456 -152 457 -156Q459 -163 466 -170Q476 -180 476 -190V-193Q483 -200 490 -207Q497 -214 509 -216L512 -215Q511 -212 509 -209V-207H512Q529 -208 539 -222Q549 -238 558 -252V-254Q557 -258 555 -262V-264Q566 -269 567 -271Q557 -285 540 -322Q526 -353 515 -369L512 -370Q510 -369 507 -369L505 -370Q490 -384 474 -400Q457 -415 456 -443Q457 -448 457 -453Q408 -443 368 -423Q373 -412 380 -400Q386 -387 387 -374Q387 -366 382 -356Q369 -348 362 -337Q327 -328 306 -305Q286 -281 267 -255Q281 -264 315 -281Q358 -303 379 -318Q413 -342 436 -345Q442 -343 448 -342Q453 -348 457 -355Q460 -362 469 -365Q462 -351 462 -340Q462 -334 465 -328Q468 -328 470 -332Q472 -336 475 -336H476V-332Q476 -317 491 -298Q505 -280 505 -268V-267Q504 -254 493 -241Q482 -228 473 -215Q450 -171 441 -118L438 -96V-86Q439 -62 440 -39Q440 -26 438 -20Q418 -14 413 -6Q401 -12 391 -12Q386 -22 375 -34Q359 -51 356 -61H351Q331 -60 323 -46Q315 -32 303 -21H301Q284 -22 274 -29Q263 -36 253 -43V-47Q253 -56 247 -61Q244 -63 234 -69Q236 -73 236 -84V-94Q236 -103 237 -106Q242 -106 245 -97Q249 -87 256 -87H257Q260 -96 260 -103Q260 -119 250 -137Q245 -146 232 -165Q218 -164 218 -155Q224 -139 231 -124Q219 -124 210 -138Q203 -148 196 -150Q168 -128 151 -96Q133 -63 117 -30Q110 -27 104 -27Q94 -27 79 -40Q66 -52 57 -54Q37 -91 33 -137Q33 -142 35 -158Q43 -184 50 -216Q51 -221 51 -230Q51 -244 50 -259Q50 -277 55 -288Q59 -276 59 -245Q59 -208 66 -195Q68 -197 68 -205V-219Q68 -228 70 -231Q74 -213 81 -203Q102 -208 118 -223Q134 -238 149 -253Q191 -292 211 -313Q246 -350 264 -382Q258 -384 257 -384Q249 -383 243 -378Q238 -373 232 -370Q227 -367 217 -364Q203 -360 198 -356Q186 -347 174 -337Q161 -327 144 -326Q133 -326 123 -331Q97 -345 87 -382Q70 -394 70 -426Q70 -449 82 -463Q85 -473 85 -481Q84 -496 77 -507Q69 -518 64 -532Q69 -530 77 -521Q83 -513 90 -511V-515Q90 -523 82 -535Q74 -547 73 -556Q79 -556 87 -543Q95 -532 103 -531Q103 -534 91 -555L95 -556Q107 -552 117 -544Q127 -548 137 -553Q146 -543 162 -543Q188 -546 213 -550Q223 -550 231 -546Q218 -539 201 -535Q185 -532 179 -517V-516Q179 -513 182 -513Q185 -513 185 -510H189Q224 -513 256 -525Q350 -548 411 -573Q402 -577 388 -577Q371 -577 332 -564Q315 -562 309 -559Q295 -554 279 -552Q273 -552 270 -553Q283 -569 304 -573Q325 -578 347 -582Q413 -597 441 -621H442Q445 -621 448 -616Q450 -613 453 -612Q465 -618 476 -625Q487 -632 502 -635Q499 -631 488 -623Q473 -613 473 -604L476 -602Q485 -606 493 -611L496 -610Q491 -600 488 -586Q488 -580 491 -576L492 -575Q495 -576 497 -578L499 -577Q499 -570 498 -563Q498 -534 510 -519V-516Q508 -509 505 -502Q510 -506 531 -516Q534 -518 535 -522Q544 -525 552 -528Q565 -551 573 -582Q589 -623 596 -632V-627Q596 -616 587 -592Q577 -565 577 -551V-546Q594 -558 621 -627Q632 -646 636 -665Q636 -674 627 -679H626Q619 -679 615 -669Q611 -659 605 -658Q603 -666 603 -669Q603 -681 609 -693Q605 -708 598 -724Q591 -724 582 -715V-716Q583 -728 593 -739Q603 -749 612 -760Q627 -782 644 -793Q667 -810 695 -814H700Q713 -813 728 -802Q743 -790 756 -789Q766 -783 770 -771Q774 -759 778 -745Q794 -711 797 -677Q797 -665 793 -654Q784 -648 773 -643Q762 -638 755 -627Q747 -627 746 -625Q719 -610 697 -577Q683 -574 682 -559Q715 -570 760 -580Q805 -590 841 -609Q857 -621 870 -627Q873 -628 878 -628Q887 -628 901 -623Q915 -618 921 -618Q941 -621 960 -625Q959 -621 951 -617Q941 -612 941 -604V-603Q946 -605 950 -608L954 -607Q950 -595 950 -588Q950 -581 953 -577L954 -576Q957 -578 960 -581L962 -580Q959 -571 959 -560Q959 -541 966 -531Q962 -515 960 -494Q954 -487 932 -478Q918 -472 909 -466Q903 -461 898 -455Q894 -449 885 -448Q885 -450 884 -453Q884 -460 891 -467Q897 -473 897 -478V-481Q896 -489 888 -489Q881 -489 869 -477Q857 -465 856 -457Q853 -458 849 -460H847Q829 -453 822 -431Q814 -410 805 -385Q794 -363 789 -348Q785 -336 785 -319Q785 -307 789 -306Q799 -313 808 -331Q814 -349 819 -366Q824 -382 835 -396H838Q845 -396 851 -404Q855 -410 860 -411Q823 -304 795 -253H787Q785 -253 781 -255Q783 -242 789 -238Q881 -251 915 -267H917Q920 -264 922 -262Q926 -263 932 -267Q940 -273 947 -273H949Q949 -270 944 -264Q940 -259 940 -255V-252Q942 -249 943 -249Q947 -251 951 -254L954 -253L955 -251Q952 -245 949 -240Q956 -223 966 -210Z"/>
</svg>