<svg xmlns="http://www.w3.org/2000/svg" viewBox="0 -800 1024 1024">
	<path fill="#000000" d="M400 36H388Q378 36 376 33Q377 26 387 26Q399 26 400 36ZM62 -209H60Q52 -209 52 -222Q52 -234 58 -234Q60 -234 63 -231Q64 -229 64 -225Q63 -217 62 -209ZM501 -140H505Q513 -139 521 -138Q527 -153 540 -165Q555 -178 571 -178Q577 -178 584 -175Q586 -191 587 -207Q545 -187 501 -140ZM568 -483Q508 -468 496 -463Q457 -448 447 -422Q465 -432 497 -446Q548 -468 568 -483ZM645 -72Q639 -73 628 -73Q601 -73 582 -63Q562 -53 559 -34Q562 -34 565 -35Q576 -35 596 -30Q634 -57 645 -72ZM659 -206V-186Q659 -169 654 -162Q660 -160 673 -160Q709 -164 746 -172Q726 -187 707 -203Q689 -219 663 -229Q659 -223 659 -206ZM549 -353V-354Q548 -357 546 -360V-361Q538 -359 530 -358Q533 -362 536 -366Q531 -366 528 -370Q531 -375 533 -381Q527 -386 517 -389Q515 -388 512 -388Q511 -397 503 -397Q494 -395 484 -394Q480 -394 478 -397Q480 -400 486 -403Q493 -407 495 -411H493Q474 -407 462 -402Q475 -411 488 -420Q483 -420 477 -421Q439 -419 420 -393Q401 -367 386 -338Q397 -339 411 -350Q425 -361 434 -361H435Q428 -359 428 -349Q429 -343 429 -338H441Q465 -338 549 -353ZM773 9V3Q773 -4 777 -4Q780 22 789 41Q785 49 783 61Q781 72 778 77Q770 85 757 92Q743 98 737 112Q701 97 689 85Q691 83 697 83Q710 86 722 88Q728 88 731 86Q718 63 690 55Q662 47 635 36L633 39V40Q633 47 647 53Q663 59 663 70V72Q641 64 620 57Q606 64 590 85Q575 105 567 110Q564 107 560 107Q552 109 544 110H543Q538 110 531 104Q523 98 517 98H516Q518 96 518 92Q518 82 501 72Q488 64 471 60Q432 50 409 39H417Q459 43 500 52Q498 49 493 48Q485 46 484 42Q498 46 505 46Q523 46 533 36Q526 31 514 31Q503 31 495 35Q485 28 471 23Q460 -6 459 -33L462 -35H463L466 -37Q451 -49 427 -80Q404 -57 379 -37Q355 -16 336 12Q319 17 302 21Q294 9 285 -4Q277 -17 262 -25V-28Q262 -31 265 -31H266Q261 -38 261 -50Q261 -69 284 -100Q279 -107 266 -133H268Q274 -133 283 -117Q289 -107 294 -103Q302 -98 306 -98L309 -99V-100Q309 -103 302 -109Q293 -117 293 -123L294 -127Q298 -125 306 -117Q317 -106 325 -106Q335 -108 354 -123Q373 -137 382 -144Q413 -168 417 -170Q435 -181 455 -181H457Q432 -162 405 -143Q377 -125 355 -102Q396 -121 433 -150Q437 -150 439 -146Q451 -158 477 -177Q505 -197 516 -209Q507 -208 498 -203Q486 -196 478 -196H476Q480 -209 491 -214Q502 -220 513 -225Q464 -221 444 -213Q436 -210 425 -203Q409 -192 397 -192H391Q371 -194 364 -220Q355 -251 346 -258Q287 -182 241 -88Q237 -77 235 -75Q230 -67 224 -67H223Q229 -93 250 -134Q267 -167 273 -186Q254 -175 242 -153Q229 -130 214 -105Q198 -82 182 -61Q167 -40 162 -12V-8Q162 1 167 11Q175 8 184 -6Q192 -18 198 -22Q201 -17 201 -13Q201 -7 188 11Q182 20 177 29Q171 39 171 56V62Q153 68 137 81Q108 72 100 72Q92 72 84 75L90 57Q87 47 73 29Q59 11 57 0Q56 -4 56 -13Q56 -16 59 -49Q66 -69 72 -90Q73 -96 73 -102Q73 -118 68 -144Q62 -175 62 -187Q63 -193 63 -199Q71 -175 77 -148Q83 -122 93 -100Q127 -125 155 -157Q152 -161 131 -175Q115 -185 114 -199V-201Q118 -230 129 -256Q140 -262 152 -262V-261Q151 -259 149 -258Q161 -252 176 -252Q214 -252 254 -279Q245 -287 236 -289Q231 -290 211 -291L210 -293Q212 -297 214 -301Q196 -330 161 -333Q176 -338 195 -338V-341Q195 -349 188 -354Q193 -359 198 -364Q194 -372 189 -380V-382Q195 -379 200 -376Q212 -385 227 -385Q259 -385 300 -339Q328 -376 355 -411Q350 -413 340 -413Q322 -412 308 -402Q293 -392 279 -385Q257 -388 241 -404Q230 -415 217 -439Q201 -460 195 -482V-486Q195 -503 207 -529Q220 -557 220 -574Q232 -580 250 -599Q276 -626 299 -631Q298 -627 290 -620Q277 -608 277 -600Q277 -596 278 -594Q281 -586 293 -586Q312 -588 330 -591V-586Q331 -574 338 -568Q346 -563 355 -558Q370 -573 414 -584Q448 -593 460 -600Q453 -605 447 -605Q434 -602 420 -599Q398 -594 384 -594Q379 -594 365 -596Q384 -607 411 -612Q437 -618 462 -623Q456 -664 442 -690Q433 -700 427 -711Q421 -723 408 -728Q408 -732 415 -736Q422 -740 424 -743Q426 -747 427 -752Q442 -763 457 -774Q474 -790 487 -797H490Q510 -797 518 -792Q528 -787 541 -761Q537 -759 535 -759Q525 -763 514 -767Q511 -767 509 -766Q516 -743 528 -726Q541 -710 552 -690Q557 -696 557 -706Q553 -723 549 -741Q555 -740 567 -723Q579 -705 579 -693Q579 -691 577 -687Q571 -680 563 -671Q556 -663 555 -651Q556 -648 556 -645Q558 -644 562 -644Q576 -646 589 -648Q587 -640 579 -639Q572 -637 565 -634Q565 -627 573 -621Q585 -627 618 -632Q650 -636 662 -643Q659 -651 649 -651Q636 -648 622 -646H620V-649Q621 -660 633 -661Q645 -663 656 -665Q714 -676 721 -678Q757 -687 774 -699Q775 -683 788 -683Q801 -685 814 -687H818V-686Q818 -684 813 -679Q807 -673 807 -668V-666Q810 -662 813 -662Q820 -663 827 -665Q824 -660 824 -645Q827 -639 835 -637Q834 -634 834 -629Q835 -614 843 -607Q852 -600 858 -591Q845 -580 843 -564Q846 -558 849 -552V-551Q847 -545 845 -539Q845 -536 849 -536Q781 -526 719 -511Q723 -506 727 -502Q737 -503 746 -508V-506Q746 -504 740 -500Q732 -494 731 -489V-487Q731 -484 735 -485Q739 -485 740 -483Q738 -479 738 -471Q741 -453 743 -436Q743 -423 730 -411H724Q706 -411 692 -404Q691 -403 667 -388Q674 -380 680 -372Q682 -372 721 -375Q745 -378 746 -378Q757 -378 759 -372Q737 -367 713 -365Q688 -364 676 -350Q680 -346 686 -346Q698 -348 710 -351Q739 -354 770 -358Q800 -361 823 -372Q820 -380 811 -380Q801 -379 790 -378H786Q793 -393 808 -395Q822 -398 842 -401V-396Q842 -384 860 -383Q885 -381 889 -379Q883 -376 872 -376Q861 -376 858 -367Q860 -364 861 -364Q866 -366 871 -368Q873 -368 875 -366Q864 -363 864 -351Q864 -340 875 -339Q872 -333 872 -322V-315Q872 -312 869 -312L866 -313Q865 -313 863 -310Q861 -297 858 -284Q794 -280 736 -264Q754 -254 795 -236Q846 -215 869 -198Q877 -204 880 -231Q882 -253 889 -261Q888 -239 887 -217Q887 -194 894 -186Q897 -253 903 -318Q908 -303 908 -280Q907 -252 906 -225Q906 -208 909 -193Q913 -198 913 -214V-217Q913 -236 918 -240Q918 -233 917 -227Q917 -212 922 -177Q931 -193 932 -209Q936 -171 940 -156Q946 -131 960 -115Q959 -106 953 -94Q957 -87 960 -81Q949 -55 931 -21Q900 -21 885 -28Q866 -37 866 -61Q884 -49 897 -49Q907 -49 913 -54Q904 -64 892 -70Q879 -76 867 -84Q858 -93 850 -104Q842 -116 830 -118V-117Q830 -112 837 -104Q846 -93 846 -84Q839 -88 822 -104Q808 -118 798 -124Q791 -115 785 -106Q778 -98 764 -97H762Q759 -89 759 -83Q762 -65 764 -48Q764 -38 759 -33H756Q745 -34 734 -36H731Q747 -41 747 -56Q747 -65 739 -70Q732 -67 723 -59Q710 -48 703 -45Q692 -41 681 -37Q669 -32 665 -21Q666 -17 667 -14Q675 -15 688 -23Q701 -31 707 -31Q712 -31 716 -28Q700 -18 692 -8H693Q717 -3 738 2Q746 2 752 -4Q755 -4 755 2Q760 -8 760 -25Q763 -20 765 -7Q767 8 771 12Z"/>
</svg>