<svg xmlns="http://www.w3.org/2000/svg" viewBox="0 -800 1024 1024">
	<path fill="#000000" d="M110 -204Q105 -207 105 -219Q105 -230 109 -233Q119 -233 119 -217Q119 -204 110 -204ZM277 -233V-267Q264 -267 238 -250Q211 -232 209 -221Q208 -219 208 -215Q209 -207 209 -200V-196Q226 -205 242 -216Q258 -226 277 -233ZM267 -138Q241 -123 236 -120Q218 -109 211 -97Q213 -94 213 -84Q213 -71 217 -69Q225 -71 240 -75Q254 -78 263 -89Q269 -98 269 -115Q269 -126 267 -138ZM282 -379V-395Q283 -424 283 -453Q267 -441 255 -423Q244 -405 232 -390Q223 -381 214 -371Q206 -361 205 -346Q205 -343 207 -333Q219 -338 239 -353Q267 -374 282 -379ZM419 -528Q401 -506 388 -458Q376 -415 374 -368Q369 -331 364 -295Q365 -284 365 -274V-268Q364 -260 362 -253Q359 -223 359 -192Q360 -155 360 -118Q360 -90 359 -63V-58Q362 -26 364 6Q364 32 348 43Q305 42 272 9Q239 16 228 22Q206 33 201 56Q186 58 184 65Q179 61 172 61Q167 62 162 62Q156 62 151 59Q151 41 141 29Q139 26 121 11Q126 -7 126 -24Q123 -68 116 -115Q111 -160 111 -169Q111 -185 115 -196Q121 -192 123 -183Q124 -175 124 -166Q128 -118 143 -109Q148 -121 148 -143Q145 -189 136 -236Q133 -261 129 -285Q125 -308 113 -322Q106 -316 106 -304Q107 -291 108 -278Q108 -273 106 -265Q93 -278 91 -298Q90 -318 84 -333Q77 -347 62 -362Q46 -378 36 -390Q35 -391 35 -405V-413Q38 -441 52 -460Q58 -466 65 -471Q73 -477 75 -487Q72 -500 68 -514V-517Q73 -515 78 -507Q83 -499 87 -497Q89 -501 89 -509Q85 -529 81 -550V-556Q88 -552 93 -538Q99 -522 107 -519H109Q111 -520 113 -522Q114 -527 114 -538Q114 -555 105 -584Q96 -613 96 -628V-632Q127 -556 152 -526H163Q167 -526 168 -528Q173 -517 181 -509Q196 -519 222 -544Q255 -576 277 -587Q275 -595 275 -598Q276 -614 287 -621Q297 -628 304 -638Q307 -642 310 -649Q314 -659 317 -661Q324 -666 344 -669Q364 -672 372 -679Q372 -672 374 -664Q378 -665 382 -672Q386 -679 391 -679Q387 -670 387 -660Q388 -644 400 -627Q412 -609 420 -596Q420 -522 419 -528ZM927 -442Q930 -439 930 -435Q926 -425 922 -416Q920 -422 920 -425Q920 -438 927 -442ZM623 37Q615 41 609 41Q600 41 599 31Q605 29 606 29Q615 29 623 37ZM929 -519Q926 -500 920 -485Q918 -489 918 -500Q918 -519 929 -519ZM537 -181Q510 -162 499 -143Q502 -142 505 -142Q518 -143 525 -158Q532 -172 537 -181ZM718 -133V-167H716Q702 -167 694 -154Q687 -143 685 -126Q702 -129 718 -133ZM776 86V89Q775 101 760 116Q744 132 729 132Q720 132 715 127Q710 118 705 109Q696 98 685 87Q674 76 669 65L673 63Q681 66 688 69L692 68Q689 59 682 59Q675 59 669 58Q649 50 632 40Q638 37 644 37Q663 42 682 46Q666 33 643 31Q649 28 655 28Q669 31 682 33Q686 33 687 32Q704 25 706 3Q708 -20 713 -43Q706 -46 699 -46Q680 -43 660 -40H656Q661 -50 683 -55Q704 -60 709 -69Q708 -77 701 -77Q697 -76 692 -76Q620 -74 609 -42Q610 -35 617 -35Q626 -36 635 -38Q638 -38 640 -37Q633 -27 622 -20Q616 -12 610 -3Q604 5 594 6Q591 6 583 3Q563 -12 546 -34Q545 -38 545 -45Q545 -59 556 -76V-86Q556 -99 560 -107Q571 -111 584 -126Q598 -142 607 -146Q598 -132 598 -122Q598 -113 604 -111Q622 -114 637 -120V-123Q639 -136 641 -149Q641 -152 640 -155Q640 -159 635 -165Q630 -172 630 -177V-180Q599 -162 565 -136Q548 -120 536 -100Q536 -94 542 -90Q548 -86 549 -83L545 -85Q542 -85 539 -82Q538 -73 530 -56Q523 -41 523 -31Q523 -28 525 -20Q519 -29 514 -42Q512 -41 509 -41Q499 -43 488 -46Q482 -44 479 -37Q476 -30 472 -23Q462 -7 449 13Q436 32 433 55Q428 56 418 61Q404 69 398 69Q390 69 383 61Q375 43 374 9Q371 -12 368 -34Q368 -42 371 -48Q376 -48 378 -39Q374 -61 366 -91Q373 -84 381 -66Q390 -45 397 -39Q418 -45 433 -59Q447 -74 462 -89Q460 -90 460 -97Q460 -105 457 -106Q442 -98 430 -83Q428 -84 425 -85Q422 -86 421 -92Q420 -97 418 -98Q413 -100 402 -100Q394 -134 383 -160Q393 -164 398 -164H400Q437 -192 438 -193Q446 -203 451 -203Q455 -203 457 -202Q456 -195 444 -184Q429 -170 428 -157Q443 -161 470 -186Q494 -208 506 -226Q504 -232 497 -232Q485 -229 475 -221V-223Q475 -235 489 -243Q490 -265 507 -275Q522 -283 537 -292Q536 -290 536 -285Q536 -275 546 -267Q551 -269 557 -276Q563 -283 567 -284Q570 -285 574 -285Q586 -285 599 -271Q602 -268 618 -247Q629 -267 652 -272Q675 -278 698 -284V-290Q698 -294 690 -310Q693 -317 695 -324L694 -328H696Q701 -328 710 -333Q721 -339 726 -339Q732 -339 736 -336Q716 -358 696 -379Q676 -400 652 -418Q651 -413 651 -401V-379Q651 -369 650 -365Q644 -369 643 -393Q642 -415 635 -419Q624 -408 624 -375Q624 -356 629 -338Q634 -319 642 -316Q646 -319 646 -326V-335Q646 -344 650 -347Q657 -333 660 -316Q647 -296 630 -277Q625 -268 614 -268H612Q608 -269 603 -278Q598 -288 592 -288L588 -287Q587 -290 586 -294V-296Q577 -299 568 -302Q582 -322 582 -355Q582 -367 581 -373Q565 -362 543 -335Q511 -295 505 -289Q476 -256 447 -224Q438 -209 430 -202H428Q423 -202 415 -211Q408 -218 405 -218L402 -217Q400 -236 393 -238V-241Q394 -248 394 -256Q393 -263 383 -263Q379 -263 378 -262Q381 -272 395 -279Q406 -285 409 -289Q429 -314 455 -328Q464 -335 490 -365Q527 -406 536 -428H534Q525 -428 512 -409Q498 -388 487 -388H485Q465 -389 455 -415Q439 -415 428 -431Q417 -447 417 -466Q417 -484 427 -494Q428 -507 428 -537H436Q436 -549 427 -560Q451 -554 462 -554Q479 -554 492 -562Q486 -574 470 -585V-591Q470 -611 450 -620L462 -641V-642Q460 -647 457 -653V-654Q478 -661 478 -693V-703Q483 -695 487 -683Q489 -686 498 -686Q511 -687 511 -695Q518 -690 531 -672Q542 -657 550 -651Q549 -643 549 -627Q549 -586 563 -578Q571 -583 581 -585Q582 -597 582 -610Q582 -657 563 -667Q567 -687 571 -707Q571 -713 568 -718Q570 -720 572 -720Q576 -719 579 -719Q581 -719 583 -721V-724Q582 -730 580 -736L581 -739Q589 -736 597 -733Q607 -738 614 -744Q617 -745 623 -745Q645 -743 655 -720Q666 -696 679 -679Q668 -659 668 -628Q668 -614 672 -606Q681 -607 690 -609Q698 -631 708 -657Q718 -682 719 -711Q719 -726 715 -738Q711 -740 708 -740Q699 -737 690 -735Q705 -766 730 -792Q735 -790 746 -790Q762 -791 777 -792H782Q798 -792 808 -780Q818 -768 818 -750Q818 -744 817 -741Q827 -719 831 -696Q831 -693 829 -685Q823 -669 807 -656Q791 -644 782 -635V-638Q782 -645 792 -655Q803 -666 803 -676H800Q784 -676 774 -660Q765 -646 764 -626Q772 -624 777 -624Q790 -624 812 -631Q834 -638 844 -638H847V-637Q847 -632 841 -630Q836 -629 832 -629Q815 -622 815 -610Q815 -599 829 -592Q842 -599 858 -602Q862 -602 865 -601Q854 -592 840 -586Q825 -581 824 -559V-554Q828 -552 829 -552Q833 -553 837 -555L841 -554Q822 -535 816 -505Q804 -497 795 -487Q767 -489 751 -489Q730 -489 715 -485Q717 -479 730 -469Q747 -456 749 -445Q742 -448 735 -452Q728 -456 718 -456Q727 -428 766 -399Q805 -353 834 -349Q831 -364 823 -372Q814 -380 805 -387Q796 -395 787 -403Q778 -411 774 -424Q786 -416 810 -397Q838 -374 855 -365Q868 -376 880 -412Q890 -441 896 -450Q896 -434 886 -404Q877 -376 876 -358Q887 -368 897 -416Q907 -464 919 -475Q912 -444 904 -412Q895 -380 894 -346Q900 -353 907 -374Q912 -388 915 -394Q916 -391 916 -386Q912 -358 908 -331V-327Q909 -316 915 -296Q925 -265 925 -251V-249Q925 -225 909 -210Q895 -197 873 -195Q853 -205 838 -224Q824 -243 808 -258V-250Q808 -226 796 -196H792Q786 -196 782 -198Q766 -189 766 -156Q767 -150 767 -145Q777 -147 804 -157Q835 -169 853 -172Q853 -159 868 -159Q878 -159 887 -160Q895 -160 898 -157Q893 -153 885 -149Q877 -146 876 -138Q876 -133 878 -130H881Q887 -132 893 -134Q895 -134 897 -132Q885 -123 884 -103Q883 -83 881 -61Q868 -55 857 -45Q837 -50 810 -50Q788 -49 766 -49Q762 -37 762 -22Q762 -16 770 35Q776 83 776 86Z"/>
</svg>