<svg xmlns="http://www.w3.org/2000/svg" viewBox="0 -800 1024 1024">
	<path fill="#000000" d="M35 -239V-244Q35 -255 45 -260V-257Q45 -245 35 -239ZM880 -714L879 -718Q882 -729 889 -737Q893 -734 893 -729Q892 -717 880 -714ZM504 7Q495 8 485 9Q476 9 473 4Q474 -4 482 -4Q493 -4 504 7ZM569 -309V-322Q569 -330 568 -333Q565 -333 562 -334Q553 -334 545 -326Q537 -318 537 -307Q537 -302 538 -299Q546 -305 569 -309ZM663 -455H665Q667 -467 667 -474Q667 -476 664 -509Q661 -509 657 -510H655Q643 -488 639 -461Q639 -452 643 -444Q656 -455 663 -455ZM723 -478H739Q744 -496 764 -539H760Q749 -537 738 -536Q723 -522 723 -487ZM664 -345V-377H661Q631 -377 631 -340Q631 -335 633 -323Q635 -322 639 -322Q652 -325 665 -329Q664 -334 664 -345ZM797 -365Q783 -373 763 -376Q743 -379 738 -396Q736 -397 732 -397Q719 -397 719 -371Q719 -355 722 -346Q760 -355 797 -365ZM741 -179Q755 -203 767 -231Q784 -256 791 -285Q760 -284 722 -275Q713 -254 713 -219Q713 -199 714 -189Q728 -179 741 -179ZM205 -110H206Q211 -111 234 -137Q260 -164 287 -192Q313 -221 319 -257Q318 -258 316 -260Q285 -241 270 -224Q240 -191 224 -176Q195 -151 181 -125Q194 -110 205 -110ZM227 46H225Q215 42 209 38L205 39Q196 29 189 -5Q184 -32 177 -42V-49Q177 -58 174 -67Q184 -74 184 -89Q184 -104 175 -113Q154 -93 134 -71Q114 -50 106 -17Q98 -15 92 -14Q85 -14 80 -8Q71 -15 63 -23Q55 -30 52 -42V-43L51 -44L48 -43L46 -44V-45Q40 -63 40 -85Q40 -106 45 -119Q94 -153 119 -219Q123 -240 135 -260Q129 -222 122 -185Q127 -186 128 -197Q130 -208 136 -209Q134 -203 134 -200Q134 -192 139 -185Q198 -233 217 -251Q257 -289 282 -330Q271 -346 267 -349Q253 -347 246 -337Q239 -327 231 -317Q215 -302 199 -287Q182 -272 174 -249Q163 -260 153 -260Q150 -260 144 -258Q137 -272 127 -285Q121 -282 116 -277Q112 -273 104 -272Q105 -279 112 -286Q118 -292 119 -297H118Q107 -296 98 -289Q90 -281 80 -275V-276Q86 -287 91 -299Q81 -297 69 -282Q59 -269 49 -266Q73 -312 103 -353Q132 -393 162 -434Q160 -416 142 -386Q126 -360 122 -341Q148 -368 186 -434Q159 -453 155 -496Q155 -505 156 -509Q158 -520 168 -526Q176 -531 189 -531Q203 -531 212 -525Q228 -531 228 -553Q228 -579 214 -593Q243 -625 264 -640Q298 -664 330 -664Q337 -664 341 -663Q356 -661 363 -639Q372 -607 381 -576Q397 -531 397 -515V-513Q393 -502 389 -487Q390 -484 390 -482Q372 -472 347 -455Q317 -432 317 -416Q319 -408 328 -397Q338 -385 345 -375Q373 -326 389 -285Q403 -258 409 -237Q410 -232 410 -227Q410 -207 396 -170Q384 -137 349 -98Q303 -47 295 -35Q290 -37 290 -43Q290 -50 297 -59Q307 -80 332 -109Q365 -148 374 -170Q379 -180 383 -198Q387 -208 387 -215Q387 -223 381 -225Q372 -216 370 -204Q368 -193 365 -183Q349 -142 318 -110Q287 -78 260 -45Q245 -29 241 -9Q241 -7 243 -1Q251 -11 258 -21Q265 -32 282 -33Q283 -30 283 -28Q282 -16 274 -7Q265 3 258 10Q235 40 227 46ZM790 -74H784Q778 -80 771 -88Q764 -95 756 -96Q750 -96 744 -89Q749 -103 752 -118V-122Q746 -128 732 -128Q737 -134 737 -144Q737 -159 717 -179V-157Q718 -120 718 -83Q718 -67 716 -45Q709 -45 707 -53Q707 -55 705 -67V-132Q705 -161 701 -177Q690 -131 690 -81Q690 -20 708 6Q710 3 711 -14Q712 -28 720 -29Q723 5 734 30Q714 83 684 117Q666 104 653 89Q639 74 624 59Q610 47 588 41Q566 35 544 30Q581 34 617 37Q622 37 627 36Q607 26 564 23Q526 20 511 16Q520 12 535 12Q549 12 579 18Q604 23 614 23Q626 23 631 19Q620 10 583 6Q634 -2 643 -41Q652 -81 652 -139Q655 -183 657 -228Q657 -250 655 -260H651Q640 -260 628 -252Q624 -200 624 -168Q625 -155 625 -142Q629 -114 633 -87Q632 -67 619 -52Q612 -45 590 -29Q583 -31 574 -41Q564 -52 556 -54V-71Q554 -77 545 -80Q538 -83 536 -86Q536 -89 540 -89Q546 -89 550 -87Q543 -103 501 -107Q505 -108 514 -108H542L543 -110Q539 -115 535 -121V-122H548Q557 -155 557 -213V-231H554Q544 -228 533 -225Q528 -225 526 -227Q529 -233 541 -237Q553 -241 556 -245Q553 -246 547 -246Q515 -243 498 -219H500Q510 -221 519 -223Q523 -223 525 -222Q510 -213 487 -189Q468 -169 457 -161Q448 -172 432 -176H428Q413 -195 413 -224Q413 -247 424 -264Q426 -268 452 -295Q469 -314 470 -327Q467 -336 463 -346V-353Q466 -379 483 -399Q560 -421 566 -423V-446H563Q548 -446 528 -432Q511 -420 502 -420Q493 -420 486 -426Q476 -424 473 -424Q456 -424 447 -437Q439 -448 439 -466Q439 -480 445 -494Q437 -507 437 -523Q437 -549 458 -573Q476 -594 499 -603Q491 -595 491 -571Q491 -555 496 -548Q534 -550 556 -567Q552 -572 544 -572Q538 -572 524 -566Q512 -561 507 -561Q499 -561 496 -570Q525 -577 553 -585Q543 -605 542 -608Q548 -619 554 -630Q548 -645 544 -664Q544 -669 545 -672Q554 -658 562 -641Q567 -642 567 -647Q565 -656 562 -665H563Q569 -665 572 -659Q576 -651 578 -650Q589 -656 599 -656Q615 -656 627 -643Q639 -630 639 -613V-611Q652 -614 665 -617V-643Q665 -698 652 -722H633Q635 -735 645 -739Q654 -743 662 -749Q684 -790 713 -790Q719 -790 722 -789Q733 -786 745 -764Q756 -744 766 -740Q766 -711 772 -702Q755 -684 754 -654H758Q778 -655 792 -669Q805 -682 821 -692Q846 -693 856 -686Q859 -688 864 -694Q871 -702 877 -704Q873 -696 873 -690Q873 -677 883 -674Q892 -678 905 -690Q920 -704 929 -707Q927 -703 916 -690Q901 -673 901 -664Q901 -656 907 -650Q910 -650 915 -657Q919 -662 921 -662L923 -660Q915 -641 915 -634Q915 -629 916 -626L917 -624Q919 -625 921 -627L922 -626Q921 -620 921 -608Q921 -593 925 -567Q893 -526 877 -516Q875 -522 875 -524Q875 -532 884 -541Q891 -548 892 -551Q890 -552 886 -552Q872 -552 852 -534Q823 -506 821 -455Q827 -458 836 -477Q850 -507 866 -507H870Q867 -499 858 -487Q845 -470 841 -458Q835 -438 831 -419Q828 -399 818 -384Q808 -376 800 -366H801Q817 -366 843 -381Q871 -397 887 -397Q897 -397 902 -395Q909 -391 916 -384Q920 -386 933 -396Q934 -395 934 -391Q934 -384 933 -378V-374Q938 -378 945 -396Q951 -410 961 -412Q951 -377 951 -366Q951 -358 952 -354L953 -353Q954 -353 955 -356Q956 -359 959 -359H961L962 -357Q959 -344 955 -332Q955 -327 957 -324L958 -323Q960 -325 962 -327L964 -326Q962 -316 962 -312Q964 -290 966 -268V-261Q948 -242 927 -234Q925 -234 923 -230Q920 -225 916 -225H914Q913 -228 913 -232Q913 -242 930 -254Q926 -261 917 -261Q909 -261 902 -256Q895 -251 895 -243Q889 -246 888 -246L886 -245Q871 -235 864 -219Q857 -204 849 -188Q834 -160 833 -159Q824 -140 824 -124V-122Q833 -126 839 -139Q846 -152 853 -162V-165Q854 -175 861 -182Q868 -189 875 -195Q882 -203 886 -210Q891 -217 902 -217Q907 -217 910 -216Q906 -205 891 -185Q878 -168 874 -158Q862 -125 852 -90Q838 -88 831 -78Q825 -68 816 -60Q807 -74 790 -74Z"/>
</svg>