<svg xmlns="http://www.w3.org/2000/svg" viewBox="0 -800 1024 1024">
	<path fill="#000000" d="M847 -794H850Q849 -781 828 -781Q831 -794 847 -794ZM141 -173Q138 -172 135 -172Q117 -173 113 -190L117 -191Q125 -190 131 -184Q136 -178 141 -173ZM305 -370Q302 -363 294 -362Q286 -362 278 -360Q277 -365 275 -370L277 -373Q287 -374 297 -376Q304 -376 305 -370ZM658 -354Q590 -348 570 -331Q577 -331 584 -323Q589 -318 594 -316Q625 -336 658 -354ZM850 -317H845Q829 -318 812 -320H808Q799 -319 790 -318Q787 -318 784 -319Q787 -327 805 -332Q821 -336 825 -343Q818 -353 799 -353Q777 -353 729 -337Q690 -324 670 -298Q680 -298 699 -306Q724 -316 741 -316H748Q648 -264 613 -236L611 -239Q612 -241 612 -244L610 -247Q588 -229 588 -176Q590 -137 591 -99Q591 -85 590 -79Q575 -84 575 -126Q575 -161 566 -170Q557 -167 557 -150Q558 -141 558 -133Q556 -99 556 -81Q556 -13 578 11Q587 10 587 -5Q587 -14 586 -23Q586 -38 593 -40Q599 -21 606 -1Q612 19 612 44Q596 60 583 83Q571 106 548 108Q521 98 499 76Q496 68 492 59Q465 30 440 26Q443 22 449 22Q455 23 460 23Q466 23 472 20Q466 14 443 11Q422 8 415 2Q419 1 427 1Q448 2 468 3H474Q485 -31 485 -69Q486 -106 489 -147Q464 -139 447 -122Q429 -105 413 -87Q389 -64 363 -44Q338 -24 319 3Q308 7 293 20Q281 15 274 15Q266 15 253 20L251 19Q255 15 259 10Q249 2 240 2H237Q236 -5 228 -16Q221 -26 219 -31Q218 -33 218 -38V-52Q212 -76 195 -91Q179 -107 166 -125Q193 -111 216 -92Q207 -116 186 -129Q165 -143 148 -160Q163 -157 189 -138Q215 -119 233 -115Q232 -121 220 -128Q206 -136 204 -142Q212 -141 232 -133Q254 -124 268 -124H272Q284 -126 300 -135Q315 -144 328 -151Q395 -183 413 -194Q457 -220 480 -250Q473 -260 473 -271Q476 -288 484 -310L488 -309Q498 -309 507 -320Q477 -315 415 -296Q371 -284 326 -273Q314 -269 293 -257Q263 -240 249 -238Q245 -236 242 -236H236Q227 -232 213 -215Q200 -199 190 -196Q179 -192 168 -192Q155 -192 129 -202Q121 -218 109 -233Q96 -249 95 -265Q95 -278 105 -289Q102 -299 102 -309Q103 -330 118 -341Q133 -352 153 -365Q180 -383 189 -388Q211 -401 231 -403Q212 -393 203 -387Q187 -376 181 -365Q185 -356 197 -356Q203 -356 209 -357Q230 -363 253 -367Q260 -367 266 -364Q263 -354 242 -349Q222 -344 219 -334Q225 -328 236 -328Q246 -328 255 -331Q332 -351 352 -354Q400 -363 406 -365Q435 -373 449 -388Q437 -390 431 -390Q417 -390 392 -385Q362 -379 349 -379H341V-380Q341 -388 348 -388H358Q429 -404 505 -415Q496 -439 464 -439L462 -440Q465 -443 467 -447V-449Q465 -459 454 -459Q441 -455 428 -452V-453Q428 -457 436 -463Q444 -469 446 -474Q435 -504 428 -514Q442 -520 453 -540Q460 -540 475 -547Q489 -553 498 -553H500Q506 -552 511 -552H513Q521 -554 531 -568Q540 -582 548 -584Q509 -574 396 -534Q383 -530 369 -526Q354 -517 339 -504Q323 -490 302 -486H296Q256 -489 239 -521Q238 -529 236 -538Q232 -546 225 -554Q217 -563 216 -577V-584Q216 -604 228 -624Q224 -629 224 -638Q226 -651 227 -665V-669Q226 -673 221 -680Q215 -688 215 -692Q215 -695 216 -697Q220 -695 228 -683Q233 -674 240 -675V-678Q240 -686 228 -705Q215 -726 215 -737V-739H216Q221 -739 224 -733Q227 -728 230 -724Q247 -703 258 -696V-697Q258 -703 251 -711Q242 -722 242 -730V-731Q251 -730 262 -718Q273 -705 280 -703Q285 -705 290 -707H292Q303 -697 326 -697Q361 -700 396 -703H404Q394 -693 380 -690Q365 -687 363 -672Q368 -668 376 -668Q388 -670 399 -672Q452 -686 505 -701Q524 -705 544 -710Q564 -714 576 -728Q569 -730 554 -730Q537 -730 503 -721Q469 -712 450 -712H446Q452 -720 463 -722Q474 -725 483 -727Q541 -745 599 -756Q635 -761 656 -773Q675 -787 692 -799Q700 -802 710 -802Q733 -802 757 -790Q769 -794 781 -799L782 -796Q782 -793 777 -789Q769 -782 769 -778Q770 -771 779 -766Q785 -763 787 -760Q795 -764 803 -770Q810 -776 822 -778Q817 -770 807 -763Q798 -756 797 -746Q797 -740 800 -734Q837 -741 847 -741Q832 -731 829 -729Q819 -721 819 -711V-708Q822 -709 825 -711L828 -710Q823 -695 823 -672Q823 -659 826 -652Q816 -641 801 -599Q775 -599 762 -596Q746 -592 732 -581L734 -580Q737 -580 739 -580L741 -579L740 -577Q697 -563 667 -536Q638 -509 609 -481Q612 -476 612 -469Q611 -454 609 -440Q675 -450 680 -451Q700 -455 724 -460Q748 -465 763 -474Q769 -479 775 -485Q780 -491 787 -492H790Q797 -491 803 -490H804Q812 -492 819 -505Q826 -517 832 -517Q825 -509 825 -499Q825 -481 844 -472Q851 -475 858 -478Q857 -475 857 -469Q857 -459 865 -452Q888 -459 909 -464Q901 -457 892 -451Q883 -445 881 -431Q885 -429 886 -429Q894 -431 901 -434L905 -433Q898 -419 890 -409Q892 -397 892 -390Q892 -363 882 -343Q870 -320 850 -317Z"/>
</svg>