<svg xmlns="http://www.w3.org/2000/svg" viewBox="0 -800 1024 1024">
	<path fill="#000000" d="M926 -142Q923 -131 920 -121V-120Q914 -124 914 -134Q915 -147 924 -149Q926 -146 926 -142ZM961 -567V-565Q964 -557 958 -554Q952 -551 945 -547L944 -549Q942 -559 954 -566Q956 -567 961 -567ZM929 -707Q924 -698 904 -698Q904 -710 919 -710Q925 -710 929 -707ZM773 -130Q806 -106 819 -94Q843 -75 854 -75Q862 -75 869 -83Q877 -94 878 -104Q879 -115 883 -134Q888 -99 895 -67Q899 -78 899 -98Q895 -133 902 -156Q905 -140 906 -108Q908 -68 915 -40Q917 -45 917 -57Q916 -76 915 -95Q915 -106 917 -110Q924 -94 928 -64Q932 -34 937 -20Q944 -3 953 14Q962 31 963 47Q963 51 961 59V64Q961 90 940 110Q918 131 890 131Q875 131 864 126Q858 121 852 116Q825 103 809 74Q806 68 797 59Q785 46 784 40Q794 41 801 48Q806 53 814 65Q829 88 846 89Q826 46 791 5Q765 -26 721 -65Q720 -62 720 -56Q720 -43 739 -27Q758 -11 758 1V2Q735 -9 720 -32Q710 -46 699 -60Q688 -38 672 -17Q646 13 614 49Q583 85 528 120Q503 125 501 125H497Q487 115 477 102Q468 89 451 88Q448 89 444 89L443 85Q443 79 450 74Q457 69 458 65V60Q455 47 435 25Q414 3 408 -8Q410 -10 434 4Q453 15 455 14Q452 -3 430 -38Q413 -65 410 -74Q405 -62 405 -50V-47Q347 -27 281 5Q307 -31 362 -50Q350 -53 348 -53Q324 -53 307 -43Q291 -33 271 -19Q265 -15 238 -10Q206 -3 200 3Q188 15 188 29Q188 35 192 39Q204 36 223 24Q242 12 256 16Q252 24 221 41Q200 53 195 58Q189 71 180 86Q172 101 156 102Q151 102 147 101Q134 91 124 74Q113 72 103 72Q93 71 85 63Q69 38 85 15Q77 2 77 -24Q77 -37 80 -48Q91 -68 109 -89Q118 -102 127 -115Q125 -121 123 -127Q123 -129 119 -129L115 -130V-131Q112 -140 112 -152V-168Q112 -182 109 -188Q105 -196 93 -196H88Q89 -203 97 -203Q100 -202 102 -202Q105 -202 107 -203Q145 -225 199 -280Q150 -265 145 -262Q118 -249 110 -223Q92 -220 91 -220Q79 -220 69 -227Q65 -235 60 -244Q52 -251 47 -268Q43 -280 39 -287V-305Q36 -321 32 -338V-340Q35 -355 60 -377Q83 -400 96 -406Q93 -391 93 -390Q93 -389 95 -383Q109 -388 118 -399Q128 -411 138 -421Q134 -428 130 -428Q125 -428 116 -421Q108 -415 105 -415H104Q110 -433 125 -448Q140 -462 155 -475Q162 -483 170 -492Q178 -502 190 -503Q193 -502 195 -502Q191 -490 169 -471Q149 -454 149 -436V-430Q162 -435 175 -448Q188 -462 204 -476Q232 -497 260 -518Q278 -540 278 -553Q278 -563 265 -563Q255 -562 246 -549Q238 -536 229 -527Q220 -522 210 -518Q211 -536 221 -544Q232 -552 238 -562Q239 -573 247 -581Q244 -598 238 -613Q235 -618 229 -622Q220 -628 218 -634L222 -635Q236 -632 250 -629Q253 -637 254 -638Q254 -641 250 -643Q247 -645 247 -649Q251 -653 256 -653Q263 -652 269 -652H271Q280 -652 299 -663Q315 -672 324 -673Q328 -673 331 -674Q351 -674 371 -656Q383 -645 402 -620Q414 -615 428 -585Q441 -557 441 -539V-538Q437 -517 417 -504Q396 -491 380 -479Q362 -465 347 -453Q332 -442 319 -427Q289 -419 274 -391Q292 -395 316 -401Q340 -408 355 -418V-414Q354 -408 352 -403Q354 -397 358 -394Q362 -391 365 -387Q365 -376 374 -345Q368 -339 368 -331Q368 -327 369 -324Q357 -311 326 -289Q292 -265 281 -253Q321 -265 354 -280Q366 -288 368 -297Q370 -307 378 -321Q381 -320 383 -316Q386 -310 389 -309Q393 -309 396 -315Q400 -320 403 -321Q407 -318 412 -308Q417 -297 423 -294Q430 -296 436 -298L440 -297Q440 -290 435 -287Q430 -284 426 -279Q427 -270 437 -262Q438 -252 438 -243Q434 -218 426 -195Q413 -184 381 -188Q359 -182 334 -171Q300 -157 277 -152Q281 -165 305 -172Q327 -178 333 -188Q332 -191 330 -194H326Q309 -193 290 -184Q272 -175 254 -170Q244 -169 234 -167Q224 -165 220 -154Q222 -147 228 -147Q239 -149 249 -151Q251 -151 255 -149V-147Q253 -143 250 -139V-137Q188 -119 176 -88H171Q144 -88 131 -107Q124 -95 124 -84Q124 -79 127 -73Q132 -67 140 -67Q145 -67 152 -70Q180 -77 183 -79Q232 -96 275 -115Q322 -132 365 -154Q372 -155 386 -162Q405 -171 415 -173Q412 -162 408 -151L410 -148Q414 -150 418 -153L421 -151L422 -148Q422 -146 416 -134Q419 -127 424 -124Q419 -114 416 -110Q412 -107 412 -93L415 -92L419 -91Q418 -89 411 -77Q441 -44 466 -12Q525 -16 564 -42Q588 -58 611 -89L613 -91Q603 -89 599 -88Q584 -88 537 -68Q502 -53 491 -53Q477 -53 470 -76Q462 -79 453 -88Q445 -96 441 -98Q447 -111 447 -140Q447 -161 440 -191H442Q448 -191 456 -185Q462 -181 464 -180H466Q476 -181 485 -182H489Q504 -176 524 -174Q532 -174 541 -177Q541 -168 521 -164Q503 -160 503 -151V-148Q579 -158 641 -184L642 -185Q638 -186 631 -186Q622 -186 587 -179Q584 -176 582 -175Q576 -169 563 -171Q553 -173 540 -181Q530 -187 521 -187Q517 -186 513 -185Q515 -190 516 -196Q508 -202 500 -207Q493 -212 490 -222V-228Q490 -244 503 -255Q515 -265 533 -266Q553 -255 572 -245Q577 -238 584 -233Q587 -233 589 -238Q592 -243 594 -243L597 -242V-240Q594 -230 591 -221V-218Q594 -213 597 -208Q597 -198 594 -192Q611 -196 677 -208Q686 -231 688 -238Q692 -250 697 -263Q701 -276 687 -280Q685 -280 682 -280Q681 -279 679 -273Q679 -257 678 -242Q676 -233 673 -230Q668 -235 669 -244Q670 -254 671 -263Q671 -284 664 -297Q656 -309 644 -326Q650 -335 667 -349Q685 -364 692 -377Q713 -393 751 -386L757 -384Q780 -377 792 -357Q804 -336 826 -327Q825 -324 824 -321Q822 -313 818 -312Q814 -311 812 -303L811 -300Q806 -278 801 -268Q799 -265 789 -260Q772 -251 768 -243Q763 -232 761 -223Q810 -232 858 -242Q863 -245 872 -264Q879 -279 892 -280Q885 -266 883 -251V-246H884Q891 -247 898 -249H902L904 -247Q901 -245 898 -239L899 -237Q902 -235 908 -235Q920 -237 932 -239H935Q930 -233 930 -219Q930 -200 938 -192Q932 -171 907 -162Q903 -161 858 -151Q816 -140 773 -130ZM752 -665Q799 -679 815 -684H816Q819 -684 819 -680Q820 -675 821 -675Q864 -689 900 -696Q897 -693 886 -689Q872 -684 868 -676Q868 -673 871 -673Q873 -673 873 -670Q891 -676 911 -678Q906 -674 900 -670Q894 -667 891 -661Q895 -659 896 -659Q901 -660 909 -666L910 -663Q908 -655 905 -648Q908 -644 910 -641Q918 -642 925 -644Q917 -631 907 -624Q899 -599 897 -595Q891 -583 879 -576Q865 -569 844 -568Q823 -568 804 -566Q779 -563 733 -549Q733 -528 733 -508Q743 -510 746 -510Q800 -523 846 -532Q855 -547 874 -550Q892 -554 910 -557H911L912 -556Q912 -555 906 -549Q907 -547 913 -540Q919 -534 920 -527Q928 -532 942 -544Q933 -526 932 -513V-511L938 -509Q944 -512 950 -515H952V-514Q952 -510 946 -504Q942 -500 940 -496Q936 -486 936 -479Q938 -453 939 -427Q931 -413 928 -403H923Q903 -404 891 -397Q880 -389 872 -378Q860 -358 835 -346Q840 -361 853 -380Q864 -395 868 -407Q849 -403 840 -385Q832 -368 817 -355Q815 -355 815 -359L816 -362L814 -365H812Q809 -364 805 -363L804 -367V-370Q804 -375 803 -377Q796 -376 788 -375Q791 -397 799 -407Q806 -418 813 -431Q778 -425 715 -399Q652 -372 596 -353Q606 -345 615 -337Q618 -342 624 -345H626Q624 -340 626 -336Q626 -328 633 -315Q641 -299 642 -288V-284Q634 -273 626 -262Q616 -259 608 -259Q593 -257 561 -268V-271Q561 -275 558 -275H557Q550 -272 543 -269Q544 -273 549 -278Q548 -287 541 -292Q534 -297 530 -303Q528 -306 528 -313V-315Q527 -318 527 -322Q506 -309 497 -296Q490 -298 466 -314Q467 -326 456 -344Q445 -363 446 -372Q446 -378 453 -389Q448 -403 449 -413Q449 -427 459 -440Q489 -478 534 -502Q526 -511 518 -520Q505 -529 503 -531Q496 -537 497 -546Q499 -554 502 -560Q499 -572 500 -582Q503 -617 532 -626Q539 -621 545 -617Q638 -631 640 -632Q633 -647 625 -657Q623 -658 618 -658H614L621 -693Q620 -698 615 -700Q616 -720 625 -731Q634 -743 646 -756Q662 -780 685 -790Q698 -786 717 -769Q730 -758 738 -753Q736 -752 733 -752Q725 -755 710 -759H707Q716 -741 729 -728Q741 -715 742 -691V-687Q751 -690 751 -699Q747 -717 742 -736Q742 -739 744 -743Q758 -723 763 -696Q753 -683 752 -665ZM657 -490V-525Q577 -499 554 -488Q545 -490 536 -499Q526 -489 519 -475H520Q524 -474 530 -481Q536 -487 540 -487Q531 -481 531 -475Q531 -465 545 -463Q554 -463 559 -467V-465Q559 -459 546 -456Q532 -452 530 -445Q534 -445 595 -456Q628 -461 658 -474Q652 -475 617 -469Q592 -464 584 -465Q581 -465 577 -466Q596 -474 657 -490Z"/>
</svg>