<svg xmlns="http://www.w3.org/2000/svg" viewBox="0 -800 1024 1024">
	<path fill="#000000" d="M880 -755Q871 -742 859 -741Q857 -745 857 -747Q859 -756 872 -757Q876 -757 880 -755ZM591 37Q591 29 599 29Q606 29 618 35Q616 41 613 46Q595 42 591 37ZM539 -189Q490 -148 471 -151Q462 -161 453 -176Q442 -186 432 -191Q422 -197 421 -216Q422 -221 422 -226Q423 -231 435 -266Q441 -282 447 -299Q456 -320 466 -343Q477 -366 478 -385Q478 -401 470 -414Q497 -451 532 -442Q541 -441 558 -437Q575 -434 580 -429Q585 -429 589 -433Q592 -436 596 -436H598Q592 -430 592 -420Q596 -397 600 -375V-373Q588 -372 577 -358Q567 -345 564 -330Q607 -347 639 -356Q649 -357 668 -365Q690 -373 707 -374Q708 -385 708 -407Q708 -482 674 -515Q647 -502 645 -501Q630 -492 625 -480Q603 -466 580 -458Q550 -448 533 -452Q482 -462 482 -495V-497Q484 -503 485 -509L484 -513Q482 -519 471 -528Q456 -540 454 -547Q450 -556 450 -566Q450 -591 472 -613Q474 -640 491 -661Q502 -675 528 -692Q526 -689 526 -684Q526 -679 532 -672Q546 -676 580 -690Q625 -708 649 -713Q642 -698 596 -681Q574 -671 570 -669Q556 -660 556 -650Q557 -647 557 -645Q591 -652 649 -679Q675 -690 700 -702Q724 -714 735 -737Q733 -738 728 -738Q712 -734 696 -731H691Q736 -769 769 -769Q787 -769 806 -756Q814 -758 822 -761Q817 -755 812 -748Q817 -739 825 -728Q834 -732 843 -737L845 -734Q845 -732 841 -729Q834 -724 834 -720Q838 -713 846 -713Q856 -713 869 -722Q864 -716 854 -709Q844 -702 843 -689Q844 -686 845 -684L848 -683Q853 -685 858 -688L862 -687Q845 -669 845 -636V-626Q837 -623 837 -612Q837 -608 841 -602Q833 -589 829 -575Q797 -575 791 -564Q797 -552 807 -542Q816 -533 825 -522Q823 -492 806 -486Q806 -527 781 -534Q776 -528 776 -515Q780 -488 784 -461V-456H785Q789 -456 794 -465Q799 -476 804 -477Q806 -473 806 -467Q806 -455 800 -439Q793 -420 793 -412Q793 -408 795 -398Q848 -409 864 -414Q900 -424 924 -440Q922 -434 922 -430Q922 -407 964 -405Q956 -393 953 -381Q953 -375 958 -371L961 -370Q965 -371 969 -372H971Q962 -363 962 -351Q962 -336 971 -326Q963 -308 954 -291Q929 -286 919 -286Q912 -286 908 -288Q908 -294 928 -301Q939 -305 941 -308Q940 -320 910 -320Q904 -320 862 -317Q814 -311 801 -292Q805 -287 815 -287Q832 -289 848 -291Q852 -291 860 -289Q856 -280 855 -277Q836 -276 818 -274Q799 -272 788 -264Q790 -244 792 -225Q792 -214 791 -208L780 -205V-192Q782 -146 784 -101Q784 -69 778 -50Q768 -79 767 -115Q766 -152 762 -185Q749 -165 749 -121Q750 -82 751 -44V-11Q751 17 766 25Q772 20 774 0Q775 -12 778 -18Q791 1 791 22Q790 45 781 66Q773 88 765 107Q757 110 748 113Q739 122 730 130H728Q723 130 710 117Q695 102 687 101Q685 76 665 66Q645 56 628 44Q642 46 656 47H661Q650 30 625 21Q599 11 578 0Q613 7 650 10Q642 4 623 0Q609 -3 603 -6H609Q639 -6 656 -21Q672 -35 679 -59Q691 -108 691 -167Q649 -140 617 -101Q586 -62 555 -22Q494 51 477 96Q470 91 455 91H451Q442 91 438 90Q433 88 423 78Q414 68 405 68H402Q405 42 405 -23V-66Q408 -63 410 -51Q411 -41 415 -38Q416 -42 416 -51Q413 -78 410 -105Q410 -113 411 -116Q418 -109 420 -86Q422 -67 426 -60V-63Q426 -69 425 -76Q425 -80 427 -82Q435 -51 447 -41Q505 -85 555 -136Q606 -186 657 -237Q633 -235 612 -228Q591 -221 572 -217Q585 -237 612 -243Q640 -249 664 -257Q663 -266 648 -266Q634 -266 617 -261Q591 -253 564 -246Q515 -233 515 -210Q515 -205 519 -197Q538 -204 556 -211Q548 -198 539 -189ZM270 -67H272Q279 -114 286 -162Q254 -133 250 -128Q231 -105 231 -79Q231 -66 235 -54Q258 -67 270 -67ZM231 44V47Q222 53 214 53Q199 53 189 34Q180 17 178 -4Q186 7 195 17Q188 -4 182 -24Q176 -45 163 -58V-54Q166 -38 169 -22Q147 -49 136 -66Q126 -53 113 -20Q100 14 90 26Q85 23 81 19Q77 15 69 15H66Q64 3 57 -15Q46 -42 46 -54Q46 -65 50 -73Q50 -108 49 -144Q49 -213 63 -241Q63 -166 72 -138Q74 -146 74 -151Q73 -165 72 -180Q72 -189 75 -195Q81 -171 86 -148Q97 -160 105 -175Q113 -190 130 -196Q128 -190 121 -180Q110 -165 110 -155Q110 -151 111 -148Q130 -164 142 -185Q154 -206 167 -227Q193 -266 212 -318Q197 -307 176 -269Q153 -228 136 -216Q146 -250 173 -294Q208 -350 216 -367Q192 -361 174 -341Q161 -327 149 -300Q132 -302 115 -314Q98 -326 93 -343Q91 -359 89 -376Q83 -388 77 -400V-406Q78 -419 78 -432Q81 -458 83 -484Q85 -506 98 -522Q100 -525 127 -549Q131 -553 148 -574Q159 -588 169 -591Q152 -568 152 -556Q152 -546 161 -541Q209 -560 259 -577Q254 -566 229 -557Q205 -549 201 -535H206Q222 -536 237 -545Q252 -555 268 -564Q303 -578 334 -600Q321 -599 303 -591Q286 -583 275 -582Q278 -591 302 -600Q322 -608 328 -615Q331 -616 335 -616Q342 -615 349 -615Q352 -628 393 -635Q395 -618 406 -618Q409 -618 411 -619Q409 -611 409 -606Q409 -586 423 -583Q408 -576 408 -551Q408 -540 412 -532Q407 -505 392 -468Q377 -462 359 -457Q341 -453 335 -438Q334 -436 334 -432Q335 -426 335 -420Q335 -414 334 -412Q331 -405 315 -387Q301 -372 299 -369Q278 -341 268 -324Q257 -297 245 -270Q239 -258 233 -250Q227 -242 227 -229V-224Q260 -253 307 -282V-285Q307 -301 337 -320Q357 -333 360 -341Q363 -331 366 -322Q369 -322 370 -325Q371 -329 373 -329H374V-326Q375 -315 380 -306Q386 -298 390 -289Q395 -274 399 -259Q409 -243 412 -230V-229Q412 -215 396 -195Q379 -174 377 -157Q369 -162 369 -170Q369 -175 378 -190Q386 -203 386 -211Q386 -218 377 -224Q356 -215 352 -190Q347 -165 344 -139Q332 -103 327 -70Q328 -65 328 -61Q338 -67 345 -101Q353 -141 368 -148Q357 -111 337 13Q325 15 319 15Q309 16 292 17Q276 18 269 11Q248 20 232 33Q232 39 231 44Z"/>
</svg>