<svg xmlns="http://www.w3.org/2000/svg" viewBox="0 -800 1024 1024">
	<path fill="#000000" d="M480 -179V-196Q478 -197 474 -197Q457 -195 455 -178V-174Q472 -176 480 -179ZM480 -250Q480 -253 479 -256Q465 -252 450 -248Q435 -245 428 -234Q433 -233 437 -233Q449 -233 479 -243Q480 -246 480 -250ZM619 -130Q616 -134 609 -134Q606 -134 594 -131Q594 -138 592 -140Q576 -144 566 -144Q553 -144 547 -137Q549 -135 549 -132Q549 -126 548 -121V-119H552Q584 -119 619 -130ZM599 -224Q568 -224 554 -218Q552 -209 550 -200V-196Q586 -196 599 -224ZM643 -299Q626 -297 586 -287Q575 -284 565 -281Q555 -278 550 -269Q554 -268 562 -268Q582 -268 616 -282V-280Q616 -274 620 -273Q624 -271 628 -269Q636 -284 643 -299ZM306 -353Q291 -342 281 -342L280 -346Q280 -356 293 -356Q302 -356 306 -353ZM218 -569H220Q218 -561 214 -553Q211 -546 201 -545H200Q202 -569 218 -569ZM819 -407H824Q817 -395 807 -391V-394Q807 -407 819 -407ZM868 -728Q862 -727 856 -721Q850 -715 845 -714Q845 -716 844 -719Q846 -733 858 -733Q864 -733 868 -728ZM667 -510Q671 -507 676 -498Q683 -485 690 -482L693 -481Q695 -481 701 -487L703 -485Q700 -481 699 -473L700 -470Q700 -467 703 -467L707 -468H709Q711 -437 702 -417Q691 -411 663 -405Q631 -398 622 -388Q643 -387 688 -387Q734 -387 750 -378H751Q757 -380 763 -383H765L766 -382Q763 -379 760 -371Q760 -369 763 -366Q771 -367 780 -375Q789 -384 797 -384V-383Q796 -379 789 -372Q781 -365 780 -356Q780 -352 781 -350Q783 -353 784 -356Q785 -360 790 -360H791Q792 -342 794 -334Q797 -321 807 -317V-313Q810 -293 813 -273Q813 -266 810 -257Q800 -252 781 -246Q757 -239 748 -233Q751 -244 760 -251Q768 -257 775 -265Q773 -268 771 -272H768Q736 -272 708 -242Q670 -202 670 -168Q679 -171 696 -194Q711 -213 727 -213H729Q726 -206 716 -197Q702 -183 701 -170Q690 -166 685 -156Q681 -145 674 -136Q701 -141 757 -145Q822 -149 848 -156Q854 -157 872 -170Q872 -166 871 -163Q871 -152 882 -152Q886 -152 919 -164Q913 -157 906 -152Q898 -147 895 -137Q898 -130 904 -127Q911 -129 918 -131H920Q916 -121 911 -116Q915 -106 932 -99Q935 -93 935 -87Q935 -77 925 -63Q917 -52 917 -47V-45Q905 -45 905 -24Q883 -28 829 -31Q790 -33 768 -36Q774 -44 795 -44H808Q826 -44 831 -48Q820 -70 765 -70Q734 -68 702 -67H675Q602 -67 583 -47Q593 -41 621 -41Q626 -41 683 -44Q696 -45 708 -46Q722 -46 726 -36Q683 -35 639 -33Q595 -31 557 -23Q557 -14 556 -5Q561 58 569 116Q557 130 544 144Q542 145 538 145Q526 142 513 139Q510 139 507 142Q497 140 485 124Q477 114 471 110V107Q470 93 461 88Q451 82 442 76Q444 73 446 73Q452 74 457 75Q460 75 462 74Q439 64 415 54Q418 54 420 53Q433 55 445 57H448Q463 54 469 34Q471 28 476 -6Q474 -9 471 -12Q367 6 295 30Q301 16 332 8Q356 2 363 -4Q359 -13 343 -13Q328 -13 291 -2Q249 9 235 16Q224 20 221 36Q224 37 230 37Q244 36 257 34Q261 34 267 36Q261 42 251 45Q240 48 236 52Q227 62 221 73Q215 84 202 87Q199 88 196 88Q184 88 165 73Q146 58 132 58Q108 45 108 12Q108 3 109 -2Q123 -19 135 -64Q163 -67 199 -92Q244 -124 261 -130Q249 -117 235 -106Q220 -95 215 -75Q228 -71 245 -71Q273 -72 303 -79Q332 -86 360 -90Q383 -93 480 -108Q482 -110 482 -113Q482 -116 481 -119Q481 -122 483 -124Q477 -126 473 -126Q464 -126 443 -116Q431 -110 422 -108Q397 -117 366 -121Q359 -127 340 -157Q323 -184 307 -190Q292 -192 276 -196Q270 -201 266 -210Q262 -219 252 -221Q252 -232 246 -257Q241 -278 241 -291V-299Q242 -299 254 -296L256 -298Q255 -300 253 -303L254 -305H258Q266 -305 277 -311Q286 -316 292 -316Q296 -316 298 -315Q308 -329 330 -329Q361 -329 374 -308Q404 -313 434 -319Q425 -326 397 -333Q369 -340 360 -350Q351 -350 348 -345Q345 -348 345 -350Q349 -354 352 -359Q351 -365 343 -365Q328 -361 312 -358Q316 -372 335 -377V-385Q335 -395 338 -397Q327 -412 293 -424Q296 -425 302 -425Q324 -421 348 -415L354 -422Q349 -436 343 -451H344Q353 -450 356 -443Q360 -437 365 -433Q381 -437 388 -457Q390 -455 393 -450Q397 -443 401 -442H403Q406 -442 410 -444Q393 -456 384 -476Q372 -473 350 -462Q317 -445 301 -445Q289 -445 280 -450Q253 -420 246 -410Q230 -385 227 -354Q217 -346 208 -346Q196 -346 174 -357Q150 -369 140 -369Q127 -369 118 -359Q125 -370 125 -372Q120 -380 113 -380Q107 -380 93 -368Q84 -361 79 -359Q81 -363 88 -372Q96 -382 98 -391Q96 -392 93 -392Q81 -392 74 -375Q67 -371 60 -366Q52 -362 48 -353V-355Q48 -371 73 -391Q82 -400 96 -425Q107 -444 115 -454Q130 -466 137 -475Q144 -485 149 -494Q155 -503 168 -506Q168 -496 155 -480Q140 -461 140 -446V-445Q143 -443 146 -441Q172 -458 189 -484Q206 -510 224 -535Q243 -559 262 -584Q281 -609 294 -638Q289 -643 285 -643Q280 -643 275 -637Q273 -635 268 -627Q257 -615 246 -604Q242 -596 238 -589Q235 -581 227 -581Q231 -599 243 -614Q254 -628 264 -642Q274 -657 300 -702Q298 -711 280 -711Q282 -725 301 -737Q314 -746 319 -753Q327 -754 332 -759Q338 -764 344 -768Q358 -777 381 -777H387Q414 -763 422 -738V-737Q434 -729 445 -704Q454 -683 459 -677Q455 -663 435 -644Q416 -626 412 -610Q396 -598 383 -582L381 -581V-579Q446 -600 503 -629L505 -626Q503 -620 501 -615Q501 -613 503 -611L507 -610Q513 -610 516 -615V-613Q516 -607 523 -598Q528 -592 529 -586Q538 -619 550 -651Q562 -683 563 -719V-730Q561 -732 559 -732Q555 -732 551 -730Q555 -752 568 -765Q581 -778 592 -794Q609 -804 628 -804Q645 -804 654 -796Q666 -781 677 -767Q689 -753 699 -743Q708 -732 708 -716V-714Q708 -702 696 -683Q687 -669 685 -662H686Q694 -662 713 -669Q732 -676 744 -676Q752 -676 759 -673Q752 -668 714 -659Q685 -652 677 -636Q680 -635 687 -635Q716 -639 745 -650Q782 -657 812 -671Q812 -680 804 -680Q797 -679 789 -678Q786 -678 782 -680Q791 -694 808 -701Q824 -707 840 -713Q838 -706 836 -700V-698Q840 -690 847 -690Q851 -690 860 -694Q871 -699 877 -699H878Q878 -694 869 -688Q858 -680 857 -676Q860 -672 863 -672Q871 -674 878 -676H881Q875 -669 870 -652Q870 -647 874 -642Q856 -624 852 -592Q789 -586 699 -557Q704 -551 704 -545Q703 -535 702 -526Q687 -521 667 -510ZM603 -498H602Q587 -497 576 -484Q566 -471 558 -460H556Q548 -460 544 -464Q540 -469 534 -472H531Q514 -467 497 -463L493 -464Q534 -479 551 -521Q543 -529 542 -547Q541 -562 538 -569Q529 -554 529 -530Q522 -524 499 -519Q473 -513 465 -504Q473 -483 483 -464Q482 -462 468 -435Q461 -433 447 -433Q433 -433 424 -437Q430 -432 451 -422Q461 -407 470 -393Q479 -379 482 -359Q482 -340 490 -330Q508 -333 510 -333Q516 -333 518 -330Q511 -326 502 -323Q492 -320 490 -310Q494 -301 501 -301Q515 -305 529 -310Q545 -315 594 -326Q632 -336 642 -353Q636 -356 630 -356Q613 -354 594 -347Q576 -343 568 -340Q553 -334 542 -332Q536 -332 532 -334Q552 -348 571 -352Q589 -356 615 -363Q614 -369 584 -364Q551 -359 547 -362H546Q543 -362 540 -359Q537 -355 534 -355H533L532 -357Q533 -360 533 -363L532 -366H530Q520 -362 509 -358Q514 -374 525 -387Q537 -399 547 -410Q549 -423 566 -444Q576 -457 580 -465Q583 -473 586 -481Q592 -492 603 -498Z"/>
</svg>