<svg xmlns="http://www.w3.org/2000/svg" viewBox="0 -800 1024 1024">
	<path fill="#000000" d="M536 10H533Q485 17 475 20Q455 25 449 27Q436 32 435 40H439Q487 38 524 29Q531 15 536 10ZM567 -57Q517 -56 432 -27Q431 -22 429 -18Q429 -15 431 -13Q486 -23 540 -33Q546 -25 554 -23Q564 -43 567 -57ZM476 -176Q475 -188 468 -196Q431 -191 402 -194Q384 -206 382 -232Q422 -231 462 -231Q456 -248 450 -265Q378 -259 362 -242Q373 -195 407 -164Q456 -174 476 -176ZM672 -304Q589 -301 535 -284Q540 -269 540 -253Q582 -260 625 -293Q622 -285 627 -279Q640 -282 643 -279Q641 -276 646 -266Q650 -253 641 -248Q623 -241 621 -240Q580 -217 543 -212Q543 -192 544 -190Q567 -188 589 -187Q623 -213 640 -236Q660 -263 672 -304ZM380 -510H382Q376 -535 370 -560Q357 -556 344 -553Q342 -547 342 -543Q340 -525 350 -502Q366 -508 380 -510ZM490 -579Q492 -594 484 -603Q474 -597 446 -591Q454 -555 461 -519Q469 -521 476 -523V-527Q483 -553 490 -579ZM663 -650L658 -651Q636 -653 622 -647Q607 -642 591 -635Q569 -631 564 -626Q572 -622 574 -622Q587 -624 595 -627L597 -625Q588 -617 584 -604Q583 -601 585 -594Q588 -595 592 -595L593 -592Q590 -590 588 -583Q588 -577 589 -574Q554 -573 537 -533Q547 -533 552 -532Q564 -530 570 -527V-529Q571 -531 572 -533V-535Q581 -538 601 -561Q617 -578 637 -611Q653 -638 663 -650ZM859 -416Q859 -404 843 -404Q843 -415 854 -417Q857 -417 859 -416ZM595 -738Q589 -732 578 -734Q574 -734 572 -735L573 -737Q573 -746 587 -746Q594 -744 595 -738ZM881 -718V-717Q880 -710 876 -710Q868 -709 861 -708Q871 -720 876 -719Q879 -719 881 -718ZM633 -487Q656 -484 678 -482Q680 -471 704 -464Q729 -457 731 -445Q731 -432 722 -423Q716 -417 714 -411Q674 -408 644 -373Q675 -376 682 -379Q698 -387 714 -390Q720 -391 731 -391Q762 -391 776 -376Q787 -380 797 -385L799 -382Q796 -377 793 -373L794 -371Q803 -373 816 -383Q830 -393 837 -396Q836 -392 826 -382Q815 -372 815 -366Q815 -361 822 -357Q830 -361 840 -365Q833 -356 833 -349Q833 -334 854 -333L857 -332Q855 -330 853 -328V-327Q863 -318 863 -294Q864 -271 865 -256H863Q852 -254 845 -248H841Q825 -247 815 -242Q804 -237 791 -234Q793 -241 806 -248Q818 -254 820 -258Q813 -265 803 -265Q778 -265 743 -234Q709 -206 709 -187V-183Q719 -185 730 -197Q746 -214 762 -215Q739 -194 715 -173Q691 -152 676 -125Q681 -120 703 -110Q712 -114 724 -116H726Q722 -111 720 -105Q727 -106 737 -114Q748 -123 755 -125Q753 -121 745 -112Q732 -99 732 -91Q732 -85 736 -80H748Q750 -61 751 -43V-38Q733 -32 717 -29Q712 -27 704 -19Q695 -10 687 -8V-12Q687 -19 696 -26Q705 -33 706 -37V-38Q704 -40 702 -42H698Q680 -41 674 -31Q668 -22 660 -14Q655 -15 649 -16Q626 -1 611 30Q597 58 595 88Q608 79 624 48Q635 26 641 20Q646 23 649 23Q658 22 666 20H669Q658 35 641 75Q627 106 619 120Q565 118 549 100Q540 102 537 104L535 101Q536 97 537 93L534 92H529V84Q482 84 456 94Q447 99 439 105Q430 111 420 112H416Q402 112 386 101Q368 88 351 88V87Q354 84 357 81Q340 -1 286 -13Q271 -26 271 -42V-48Q273 -54 275 -60Q274 -68 263 -79Q251 -91 251 -97L252 -101Q258 -98 265 -91Q274 -82 281 -80Q278 -86 274 -92V-93Q285 -91 295 -85Q302 -89 308 -91H321Q328 -91 331 -93Q339 -90 348 -90Q354 -90 357 -91Q365 -87 372 -84Q395 -87 418 -91Q425 -91 431 -88Q428 -85 419 -83Q407 -80 405 -76Q410 -67 423 -67Q446 -70 471 -78Q495 -82 520 -84H521L520 -86V-87Q523 -86 526 -86Q552 -90 577 -99Q561 -103 554 -103Q542 -103 515 -97Q488 -91 474 -91H471Q494 -102 530 -107Q566 -112 604 -118Q588 -127 588 -137Q565 -137 474 -125Q437 -120 430 -118Q410 -113 404 -102Q379 -99 354 -97H343Q338 -99 333 -102Q292 -108 268 -125Q265 -136 251 -146Q237 -155 234 -164L236 -174Q237 -177 242 -174Q249 -170 255 -169Q259 -169 263 -172Q270 -169 281 -156Q294 -141 308 -138V-140Q308 -147 293 -164Q286 -174 278 -186Q270 -197 253 -202Q250 -202 250 -199Q243 -201 236 -205Q223 -213 214 -213Q211 -212 208 -212L207 -208Q207 -205 212 -199Q217 -193 217 -189Q187 -197 161 -202Q133 -207 131 -234Q131 -242 134 -251Q141 -275 175 -321Q173 -328 170 -335Q170 -339 173 -341Q178 -338 182 -333Q186 -328 197 -327L199 -329Q196 -332 193 -336L195 -338Q209 -333 223 -330Q226 -330 232 -337Q256 -341 266 -341Q314 -341 333 -317Q365 -321 381 -324Q367 -326 363 -328Q347 -339 331 -350Q321 -349 315 -355Q311 -358 307 -369Q306 -377 305 -385Q304 -388 299 -391Q293 -395 293 -400Q295 -401 307 -401Q313 -414 343 -420Q371 -426 379 -436Q384 -435 384 -427V-421Q391 -415 407 -416Q424 -416 435 -417V-416Q437 -395 455 -396Q473 -396 489 -398Q484 -394 463 -389Q439 -384 439 -376Q439 -371 441 -369Q443 -366 452 -365Q463 -364 467 -360Q467 -357 446 -341Q443 -339 439 -336Q493 -348 526 -352Q525 -364 500 -364Q490 -364 482 -362Q484 -368 504 -373Q523 -378 529 -380Q546 -384 557 -396Q561 -400 570 -400Q579 -400 579 -408Q579 -413 574 -416Q559 -411 552 -405Q550 -409 551 -417Q552 -427 546 -431Q546 -434 550 -435Q553 -436 555 -437Q554 -443 547 -445Q540 -447 535 -450Q563 -457 597 -473Q568 -468 535 -466Q523 -477 501 -480Q470 -483 418 -469Q409 -467 400 -466Q391 -464 389 -455Q349 -423 348 -428Q330 -429 303 -411Q279 -418 262 -439Q258 -445 236 -480Q227 -487 221 -500H229Q241 -498 254 -477Q264 -461 270 -457Q266 -525 195 -563Q192 -561 188 -560H187Q187 -548 202 -536Q218 -522 216 -508Q171 -538 157 -553Q126 -586 130 -624Q133 -637 133 -638Q140 -659 163 -667Q162 -684 162 -721Q165 -718 167 -705Q170 -691 175 -687Q176 -709 177 -732V-737Q180 -733 182 -720Q184 -703 191 -700L192 -704Q192 -709 192 -715L193 -718H197Q205 -715 213 -708Q218 -708 228 -714Q235 -718 238 -718H241Q251 -715 260 -712Q270 -712 280 -712H283Q293 -708 303 -692Q309 -677 317 -669Q324 -669 346 -680Q362 -683 374 -688Q377 -688 377 -685Q383 -695 393 -694Q404 -694 413 -695Q430 -701 447 -707Q495 -728 553 -735V-733Q552 -725 543 -722Q541 -721 528 -718Q461 -697 438 -683Q493 -696 553 -709Q613 -723 663 -741Q658 -746 648 -748Q633 -748 618 -748L613 -749Q616 -762 628 -762Q639 -763 651 -764Q670 -768 688 -774Q705 -779 731 -777L770 -769Q782 -764 794 -747Q805 -732 813 -728H815Q821 -730 824 -733L826 -731V-730Q823 -722 820 -715Q819 -711 825 -705H827Q833 -708 849 -708Q854 -708 856 -706Q853 -703 850 -701Q846 -700 845 -694Q860 -693 893 -702Q886 -694 873 -689Q859 -684 855 -667L854 -662Q860 -662 863 -665Q865 -669 871 -669H875Q864 -659 860 -636Q858 -619 868 -611L867 -604Q865 -591 855 -575Q848 -565 846 -558Q824 -554 800 -553Q805 -565 816 -568Q827 -571 835 -577Q832 -586 825 -586Q810 -586 798 -581Q782 -579 765 -577Q742 -569 723 -553Q683 -518 633 -487Z"/>
</svg>