<svg xmlns="http://www.w3.org/2000/svg" viewBox="0 -800 1024 1024">
	<path fill="#000000" d="M620 -65V-98H618Q605 -98 594 -92Q583 -86 583 -78Q583 -69 590 -61Q592 -62 620 -65ZM606 -134Q605 -136 605 -142Q605 -148 603 -149Q591 -146 578 -142Q564 -138 561 -127Q567 -127 606 -134ZM711 -115Q708 -116 703 -116Q687 -116 674 -102Q662 -89 662 -74V-71Q670 -75 684 -75Q687 -75 689 -74Q702 -93 711 -115ZM738 -175Q731 -177 719 -177Q695 -177 651 -164Q654 -150 668 -150Q696 -155 732 -160H734Q736 -167 738 -175ZM610 -354Q610 -359 608 -369Q605 -369 602 -370Q581 -369 567 -363Q567 -358 605 -347Q610 -348 610 -354ZM604 -413H607Q607 -423 601 -433Q551 -423 551 -414Q551 -408 556 -403Q574 -413 604 -413ZM686 -385H683Q663 -385 654 -378Q654 -363 656 -358L679 -362Q683 -373 686 -385ZM715 -469Q665 -465 652 -448Q653 -438 653 -429V-422Q680 -425 692 -434Q705 -444 715 -469ZM593 68Q592 75 584 77Q581 78 568 79Q565 76 565 73Q565 66 581 66Q585 66 593 68ZM441 -269V-267Q436 -263 429 -250Q424 -240 419 -235Q413 -238 399 -231Q389 -226 385 -226Q370 -227 354 -229Q339 -232 320 -229Q325 -241 337 -246Q348 -251 359 -256Q352 -260 343 -260Q316 -252 288 -245Q234 -235 229 -204Q235 -204 247 -211Q263 -220 276 -220Q286 -221 296 -222Q287 -209 270 -200Q254 -192 237 -184Q206 -171 195 -142Q166 -140 161 -138Q149 -150 136 -174Q123 -199 111 -207Q128 -246 153 -274Q177 -303 200 -336Q138 -320 129 -278H124Q99 -278 86 -292Q81 -298 62 -331Q44 -362 42 -370Q37 -385 37 -406Q38 -409 38 -413Q41 -423 52 -433Q64 -444 72 -452Q106 -492 150 -518Q160 -530 172 -532H174V-530Q166 -519 146 -505Q122 -488 115 -467Q137 -486 169 -503Q204 -522 229 -548Q240 -559 247 -567Q254 -574 259 -590H258Q244 -590 232 -576Q221 -563 209 -559Q215 -579 234 -600Q251 -618 257 -632Q255 -640 250 -641Q261 -644 276 -655Q291 -666 306 -666Q318 -666 329 -660Q345 -651 359 -635Q365 -626 372 -588Q379 -559 382 -537Q379 -523 375 -509V-505Q334 -499 306 -477Q299 -471 272 -467Q249 -464 241 -446Q245 -444 255 -444Q275 -444 314 -457Q312 -450 309 -443Q310 -433 321 -419Q331 -406 331 -394V-393Q329 -380 319 -370Q309 -360 296 -350Q266 -332 255 -307Q292 -329 332 -343Q349 -363 368 -366Q368 -382 373 -384Q377 -383 378 -373Q379 -366 380 -364Q388 -362 390 -362Q395 -362 399 -366L403 -360Q406 -355 427 -332Q430 -322 436 -294Q441 -278 441 -269ZM912 -548Q899 -544 886 -539Q873 -534 867 -522Q869 -520 873 -520Q883 -522 893 -524Q899 -524 902 -522Q884 -514 879 -507V-499Q879 -478 902 -463Q899 -444 896 -425Q890 -425 883 -426Q863 -426 852 -418V-419Q852 -424 857 -435Q864 -450 864 -456Q864 -468 851 -475Q833 -470 827 -454Q820 -436 812 -419Q799 -401 785 -387Q770 -373 769 -351V-349Q781 -360 792 -372Q803 -383 822 -387Q800 -364 794 -356Q780 -338 775 -318Q764 -316 758 -312Q761 -309 764 -309Q768 -309 771 -310H775L776 -308Q776 -306 772 -304Q768 -302 768 -300Q768 -297 773 -293Q777 -290 778 -287Q790 -290 795 -290Q800 -290 802 -289Q782 -286 774 -276Q765 -267 762 -247H759Q750 -247 738 -240Q639 -234 563 -211Q538 -200 521 -196H519Q495 -199 480 -220Q461 -221 456 -243Q449 -274 446 -278Q448 -279 451 -279Q463 -275 474 -271H477Q523 -277 568 -289Q642 -299 715 -310V-311Q715 -313 705 -315Q695 -317 694 -318H693Q680 -318 620 -304Q564 -291 546 -291Q537 -293 528 -295Q510 -298 496 -302Q480 -307 478 -325Q491 -320 503 -316Q509 -320 514 -325Q493 -368 438 -385V-381Q438 -372 449 -358Q456 -349 458 -344H455Q443 -345 435 -356Q427 -368 420 -375Q413 -380 407 -383Q400 -387 399 -397V-400Q399 -407 404 -425Q409 -431 413 -438V-440Q412 -448 411 -456V-458Q413 -464 433 -474Q452 -483 454 -488Q457 -486 451 -479Q445 -473 448 -470Q462 -464 476 -464Q507 -465 545 -479Q584 -492 610 -502Q670 -523 731 -535Q730 -537 730 -542Q730 -560 758 -564H776L783 -571Q739 -571 676 -560Q607 -548 580 -533Q565 -523 551 -513Q537 -504 517 -503Q505 -503 498 -505Q492 -513 462 -527Q437 -539 431 -555Q433 -565 435 -570Q434 -575 417 -611Q418 -615 418 -619Q418 -622 415 -628Q425 -661 449 -668Q451 -669 458 -669H466Q471 -669 474 -670Q489 -675 503 -678Q504 -678 512 -676Q511 -674 495 -665Q484 -658 484 -650Q484 -647 485 -645Q491 -643 498 -643Q565 -652 628 -671Q644 -676 704 -697Q694 -704 680 -704Q647 -699 613 -693Q615 -703 631 -709Q632 -709 658 -717Q686 -727 715 -727Q718 -723 733 -721Q747 -719 751 -715Q767 -721 780 -721H786Q781 -710 768 -699Q771 -695 775 -695Q782 -697 788 -700Q780 -695 780 -684Q780 -667 794 -664Q793 -660 793 -653Q793 -644 798 -628Q802 -615 802 -608Q799 -600 796 -592Q796 -588 797 -586Q791 -586 791 -583V-579L789 -576H784Q784 -573 785 -571Q791 -573 794 -573Q801 -571 807 -570H809Q819 -573 822 -577Q827 -577 831 -571Q834 -566 838 -565Q843 -565 848 -569Q853 -573 856 -573Q857 -573 861 -571Q854 -565 854 -556Q854 -549 859 -542Q880 -549 897 -551Q906 -551 912 -548ZM954 -557Q953 -545 939 -545Q929 -546 919 -547Q921 -559 940 -559Q944 -559 954 -557ZM402 -142Q410 -160 433 -163Q435 -170 437 -178Q447 -172 471 -172Q487 -169 503 -166Q522 -169 551 -180Q660 -213 735 -214Q740 -221 746 -231Q751 -241 762 -243Q780 -244 798 -246Q812 -250 830 -263Q846 -275 855 -278V-276Q855 -270 843 -258Q831 -246 831 -238V-235L833 -234Q843 -238 852 -243Q842 -235 842 -225Q843 -208 861 -207Q867 -207 870 -208L872 -205Q869 -201 865 -194V-190Q866 -161 900 -157H905Q879 -128 861 -89Q857 -93 845 -93H834Q825 -93 822 -95Q859 -107 859 -122Q859 -129 855 -134Q821 -131 791 -115Q757 -96 757 -72Q757 -67 758 -64Q765 -69 771 -75Q778 -81 789 -82H794Q770 -59 766 -54Q753 -36 752 -14Q749 -12 742 -12Q732 -12 719 -22Q704 -33 695 -34H690Q671 -34 639 -28Q574 -19 559 1L558 4Q600 -4 649 -5Q698 -7 744 -11Q820 -16 856 -56Q857 -54 857 -50Q854 -40 851 -31Q861 -22 883 -22Q901 -23 918 -24Q923 -23 928 -23Q924 -20 918 -17Q912 -15 911 -10Q911 -7 912 -5Q913 -4 918 -4Q929 -5 939 -7Q923 -1 918 17L921 18Q927 17 933 16Q936 16 938 18V20Q937 23 936 26Q951 43 951 64Q951 78 942 88Q931 99 912 100Q877 97 838 89Q757 83 675 76Q665 76 654 75Q643 73 639 65Q656 62 675 62Q729 65 783 68Q808 68 825 64Q800 44 746 44Q696 47 645 50Q594 51 539 53Q483 55 447 68Q452 74 465 74Q477 73 488 72Q501 72 504 79Q478 88 455 94Q431 100 410 117Q385 110 378 109Q373 104 368 97Q363 91 356 90H354Q350 79 334 64Q318 49 316 43Q335 41 336 37V35Q335 26 325 20Q316 15 308 8Q316 6 317 6Q328 6 361 21Q373 15 392 15Q412 15 421 23Q468 13 518 5Q479 -17 451 -42Q409 -80 402 -116Q394 -98 394 -87Q399 -87 403 -87Q407 -87 408 -86Q395 -62 395 -46V-43Q354 -33 326 -19Q322 -17 266 16Q279 -15 287 -21Q306 -30 324 -40Q310 -43 308 -42Q291 -40 258 -19Q253 -16 235 -12Q218 -8 211 -1Q197 11 197 25Q197 30 202 35Q207 35 219 27Q230 20 236 20Q238 20 244 22Q239 29 222 41Q212 48 206 54Q198 67 189 82Q180 97 162 98Q156 98 152 97Q137 87 127 70Q114 68 103 68Q92 67 84 59Q74 44 74 25Q74 3 84 -9Q74 -23 74 -48Q74 -63 78 -72Q82 -82 92 -92Q101 -103 110 -113Q118 -123 126 -134Q133 -144 143 -146Q139 -136 133 -128Q128 -119 127 -108Q127 -103 130 -97Q135 -91 144 -91Q149 -91 158 -94Q188 -101 192 -103Q225 -115 263 -134Q297 -147 327 -164Q334 -165 366 -182Q402 -201 414 -203Q405 -186 398 -167Q400 -164 401 -164Q405 -166 409 -169L412 -167L413 -164Q406 -154 395 -145Q395 -142 402 -142Z"/>
</svg>