<svg xmlns="http://www.w3.org/2000/svg" viewBox="0 -800 1024 1024">
	<path fill="#000000" d="M716 -389V-380Q710 -377 703 -377Q694 -377 694 -384V-385H695Q704 -387 712 -390ZM103 -112V-110Q94 -114 91 -117Q85 -122 85 -130H96Q101 -122 103 -112ZM845 -241Q841 -228 837 -216Q830 -219 830 -228Q831 -242 839 -244Q842 -244 845 -241ZM925 17V19Q924 23 918 34Q908 51 908 63Q908 71 912 79Q872 88 864 111Q849 105 831 102Q813 98 802 87Q816 85 830 83Q821 59 761 59Q747 59 741 60Q743 70 764 73Q784 75 784 87V90Q726 76 651 76H629Q623 77 616 78Q611 78 608 73Q618 61 648 61Q673 62 697 63Q711 63 721 60Q719 54 697 49Q681 46 643 46H615Q599 46 583 45Q546 45 533 58Q537 63 550 63H567Q586 63 586 76H566Q510 76 494 90Q491 78 477 70Q474 68 451 58V56Q452 52 453 48Q434 26 429 -2V-5Q437 -24 456 -43Q468 -57 482 -83Q511 -127 524 -172Q529 -179 545 -188Q563 -198 568 -207L575 -196Q577 -196 581 -201Q584 -205 585 -205H586Q588 -175 614 -172Q619 -154 623 -133Q583 -98 566 -43Q670 -38 777 -38Q784 -49 788 -79Q791 -107 796 -116Q798 -106 798 -96Q799 -86 805 -81Q807 -103 807 -114Q805 -157 803 -201Q804 -211 804 -221Q807 -222 808 -225Q811 -206 814 -164Q818 -107 824 -83Q828 -103 829 -147Q830 -189 833 -207Q838 -203 838 -195Q837 -185 836 -175V-158Q836 -100 851 -67Q854 -71 854 -75Q851 -89 848 -103Q847 -109 847 -124Q847 -139 849 -155Q858 -120 866 -86Q875 -64 889 -48Q904 -32 915 -15Q925 3 925 17ZM855 -351H851Q844 -351 840 -345Q836 -339 836 -332Q836 -318 846 -317Q829 -289 808 -260Q780 -269 751 -269Q697 -266 642 -254Q585 -244 565 -228Q544 -210 524 -185Q504 -159 482 -136Q461 -114 439 -92Q434 -87 399 -44Q372 -11 353 4Q358 -22 385 -52Q408 -77 414 -93Q337 -41 296 42H299Q308 42 318 31Q331 17 341 17Q331 36 320 52Q308 68 303 90H301Q287 91 281 99Q274 107 269 117Q263 115 260 109Q258 105 254 103Q250 101 240 101H229Q219 101 212 97Q205 92 204 81Q204 70 202 60Q195 48 188 35L146 -37Q152 -34 162 -24Q174 -13 182 -9Q175 -25 148 -54Q123 -81 114 -99Q130 -91 157 -66Q185 -39 206 -31Q269 -62 332 -112Q368 -140 444 -209Q416 -206 392 -191Q386 -188 344 -175Q326 -169 300 -144Q278 -123 263 -118Q257 -116 254 -116Q235 -120 215 -134Q202 -140 188 -146Q174 -152 167 -161Q162 -169 162 -178Q162 -192 173 -216Q166 -230 166 -254Q166 -261 168 -275Q182 -291 208 -306Q212 -308 253 -328Q252 -326 247 -321Q242 -316 241 -311Q246 -303 265 -303Q277 -303 289 -304H294Q290 -298 272 -293Q258 -289 253 -285Q258 -277 274 -277Q281 -277 287 -278Q323 -278 374 -292Q396 -298 453 -317Q448 -318 439 -318Q420 -318 381 -308Q342 -298 323 -298Q314 -298 309 -299Q332 -315 383 -325Q423 -331 462 -337V-357Q458 -359 451 -359Q441 -359 427 -351Q415 -344 411 -344H410Q395 -344 372 -362Q348 -381 348 -396Q348 -405 359 -411Q357 -417 357 -420Q358 -433 370 -440Q383 -448 392 -454L395 -453Q393 -450 390 -447V-446Q395 -442 404 -442Q430 -446 456 -451H460Q458 -462 456 -473Q456 -477 457 -479H449Q413 -479 380 -466Q363 -459 345 -450Q328 -442 313 -440H310Q298 -440 290 -445Q279 -452 279 -464Q256 -476 241 -492Q241 -497 240 -502Q240 -524 257 -527Q257 -530 256 -534Q258 -554 276 -566Q294 -577 310 -586V-584Q310 -577 309 -571Q309 -565 312 -564Q350 -569 389 -572Q373 -581 346 -586Q342 -605 330 -605Q326 -605 324 -604Q326 -607 328 -611Q322 -623 312 -630L278 -624Q306 -649 310 -655Q308 -666 293 -682Q281 -694 278 -704Q296 -692 313 -680Q319 -682 326 -692Q330 -698 334 -701Q329 -708 325 -716Q328 -716 332 -712Q337 -707 343 -707Q345 -707 349 -711Q355 -717 361 -719Q369 -721 375 -722Q382 -722 384 -728Q415 -707 445 -687Q453 -690 460 -693Q456 -685 456 -674Q459 -653 462 -633L464 -632Q470 -635 476 -638Q478 -638 480 -636L481 -635Q477 -631 469 -629Q462 -621 455 -602Q448 -585 445 -580Q494 -583 513 -586Q522 -595 533 -613Q552 -643 562 -649V-646Q562 -639 553 -625Q542 -608 542 -599Q543 -596 543 -593Q570 -638 601 -670Q599 -676 596 -683Q589 -681 580 -672Q571 -663 565 -661Q572 -682 572 -691Q572 -707 554 -707H552Q555 -712 571 -718Q569 -723 566 -728H564Q556 -728 544 -722Q534 -717 527 -716Q533 -726 546 -733Q559 -741 574 -750Q615 -772 653 -772Q661 -771 669 -771Q699 -768 712 -750Q711 -746 711 -739Q711 -714 736 -705Q729 -677 725 -658Q676 -647 641 -607Q681 -623 719 -624L721 -623Q719 -619 716 -615V-614Q719 -613 726 -613Q756 -617 784 -626Q774 -618 759 -614Q743 -610 739 -595H741Q753 -598 765 -601H768Q757 -590 745 -581H747Q755 -581 763 -582Q768 -582 769 -580Q764 -576 758 -573Q753 -570 750 -564L749 -562Q751 -559 754 -557Q750 -549 742 -541Q729 -528 727 -520Q709 -518 669 -512Q674 -527 709 -527Q701 -535 677 -535H661Q616 -533 599 -530Q564 -525 552 -511Q557 -507 566 -507Q576 -507 593 -513Q613 -520 621 -520Q635 -517 648 -512Q635 -506 606 -501Q568 -494 555 -486Q560 -485 560 -479V-474Q560 -468 562 -466Q592 -477 629 -485L630 -483Q627 -480 624 -475V-473Q625 -470 629 -466Q645 -471 650 -473L651 -471Q651 -469 646 -465Q638 -459 638 -455Q641 -451 648 -451Q662 -452 675 -454H679Q669 -448 659 -444Q649 -441 647 -428Q647 -425 651 -423Q656 -421 657 -420Q630 -407 618 -385Q600 -385 581 -386Q556 -386 547 -379V-360Q608 -374 668 -379H679Q666 -370 626 -363Q586 -356 572 -345H582Q637 -345 733 -368Q744 -370 755 -373Q766 -376 768 -386Q764 -389 759 -389Q747 -387 735 -386Q728 -386 725 -388Q744 -405 778 -405Q783 -405 793 -403Q823 -423 845 -426Q844 -422 830 -409Q818 -398 818 -388Q818 -383 821 -377Q836 -382 840 -389V-388Q836 -380 831 -365Q831 -360 834 -356Q842 -358 845 -358Q852 -358 855 -351Z"/>
</svg>