<svg xmlns="http://www.w3.org/2000/svg" viewBox="0 -800 1024 1024">
	<path fill="#000000" d="M665 -178H681Q681 -202 662 -211Q642 -206 615 -200Q590 -194 588 -173V-169Q616 -178 665 -178ZM671 -293L670 -295Q660 -297 652 -297Q634 -297 621 -290Q606 -282 606 -268Q607 -264 607 -261Q609 -260 614 -260Q634 -263 653 -267Q657 -267 663 -265V-268Q667 -283 671 -293ZM677 -389Q677 -392 676 -394Q676 -397 673 -397Q653 -393 638 -389Q622 -385 620 -360Q667 -369 670 -369Q675 -378 677 -389ZM682 -517Q682 -530 678 -535Q664 -530 657 -524Q647 -516 647 -502V-498Q633 -498 633 -482Q633 -477 635 -471Q641 -469 642 -469Q646 -469 654 -474Q662 -479 668 -479Q670 -479 676 -477Q682 -501 682 -517ZM452 -452Q449 -430 445 -412Q446 -408 446 -405V-403Q442 -391 411 -376Q382 -362 376 -351Q372 -344 372 -327V-319Q372 -309 371 -304Q382 -307 401 -323Q406 -318 407 -318Q416 -326 424 -335Q432 -345 444 -351Q435 -340 426 -330Q417 -320 416 -302V-295L419 -294Q421 -294 425 -299Q429 -304 433 -305Q423 -293 423 -271Q424 -267 424 -264L426 -263Q429 -266 431 -269L434 -267Q425 -247 425 -228Q426 -221 426 -215Q423 -201 396 -175Q370 -149 367 -133Q364 -118 364 -115Q366 -85 368 -56Q369 -45 369 -34Q369 -21 363 -14Q352 -24 352 -55Q353 -63 353 -72Q353 -81 351 -95Q342 -93 342 -83Q343 -73 344 -64Q342 -30 340 4Q340 25 346 41Q355 40 355 21Q355 4 364 2Q374 7 374 25Q374 61 337 116Q334 117 328 117Q314 117 307 108Q300 100 292 90Q271 63 268 43Q266 39 258 34Q249 28 247 22H249Q255 24 261 25H263Q262 21 248 11Q234 2 233 -4Q235 -5 238 -5Q247 -2 256 1Q271 -1 277 -27Q285 -59 289 -64Q287 -76 284 -88Q284 -92 285 -94Q206 -42 175 51H167Q130 51 130 26Q117 22 109 8Q102 -5 102 -23Q102 -42 109 -56Q106 -86 106 -89Q106 -103 111 -109Q120 -115 128 -122Q135 -129 146 -145Q158 -163 165 -167L166 -163Q165 -157 164 -151V-149Q164 -146 166 -146Q169 -146 170 -142Q175 -145 183 -153Q193 -164 200 -164Q200 -155 187 -140Q177 -129 175 -121Q248 -155 289 -212Q271 -205 252 -188Q245 -182 238 -175Q230 -169 220 -168Q218 -168 212 -170Q222 -179 230 -190Q238 -201 252 -206Q256 -219 278 -231Q296 -241 301 -248Q299 -253 299 -262Q304 -285 308 -308Q308 -315 307 -319Q220 -286 167 -236Q159 -227 148 -216Q136 -204 126 -203H125Q117 -204 105 -222Q93 -241 86 -242V-249Q86 -269 76 -284H75Q70 -281 64 -279L63 -280V-284Q66 -294 74 -299Q69 -307 60 -307Q54 -307 51 -305Q77 -333 93 -371Q108 -409 125 -448Q133 -473 155 -491Q152 -478 148 -466Q131 -429 121 -386Q138 -410 150 -440Q161 -470 174 -502Q184 -517 188 -534Q188 -536 187 -539Q176 -535 171 -526Q166 -518 158 -511Q157 -515 157 -521Q157 -532 167 -549Q176 -564 177 -572Q173 -588 158 -588Q149 -588 141 -583Q154 -600 174 -624Q188 -645 203 -665Q217 -685 240 -696Q243 -696 245 -697Q261 -692 277 -688Q283 -688 285 -689Q296 -667 308 -643Q320 -619 321 -591Q321 -582 320 -577Q315 -556 298 -539Q281 -522 268 -503Q243 -468 236 -428Q245 -431 271 -444Q298 -458 317 -463Q315 -490 311 -502L308 -503H301Q314 -550 353 -578Q374 -572 385 -552Q395 -534 395 -509H396Q401 -513 406 -517Q414 -513 418 -506Q430 -520 443 -520Q437 -512 433 -502Q433 -498 436 -495Q439 -495 441 -499Q443 -502 446 -502H448Q443 -495 443 -478Q443 -461 450 -461H451Q452 -456 452 -452ZM958 -20V-8Q946 -13 942 -13H940Q941 -20 953 -20ZM986 -145Q969 -144 969 -119Q969 -115 971 -105Q928 -97 915 -82Q870 -85 824 -88Q798 -88 774 -82Q778 -71 792 -65Q806 -58 817 -51Q837 -61 856 -66Q834 -57 828 -43Q832 -39 840 -39Q852 -39 879 -49Q909 -60 918 -60Q908 -52 884 -42Q859 -32 850 -24Q853 -14 866 -1Q899 -15 914 -15Q923 -15 928 -13Q890 3 873 12V24Q874 27 882 30Q888 32 890 36H886Q867 37 864 53Q861 69 859 86Q855 83 850 83Q844 83 833 88Q820 94 814 94Q808 94 803 89Q809 82 819 78Q829 74 830 63Q830 61 828 55Q823 48 804 45Q790 43 783 39Q771 28 759 23Q754 23 749 29Q753 42 761 55Q766 62 773 68Q781 73 782 83Q744 64 721 30Q698 -4 675 -37Q676 -41 676 -47Q676 -53 675 -59Q675 -63 678 -69Q657 -68 631 -67Q604 -66 592 -52Q592 -50 604 -36Q611 -41 618 -44L622 -43Q611 -39 611 -21Q611 5 623 15Q616 22 616 35Q616 40 617 42Q607 54 605 63Q600 64 592 64Q564 61 540 50Q530 29 518 24Q520 18 521 12Q518 4 508 4Q504 4 502 5Q503 -5 510 -16Q517 -26 518 -31Q513 -33 505 -33Q495 -33 487 -24Q480 -16 474 -13Q464 -4 453 0H450Q431 -2 420 -23Q408 -46 392 -60Q397 -66 397 -75Q393 -94 385 -108Q383 -120 383 -124Q384 -148 398 -157Q413 -167 430 -177Q440 -185 449 -195Q459 -205 471 -207Q471 -202 459 -191Q444 -177 444 -168L445 -164Q455 -150 475 -150Q499 -155 523 -162Q520 -222 517 -283V-301Q513 -334 508 -367V-370Q509 -376 509 -383Q509 -388 508 -390H509Q514 -390 518 -379Q522 -367 527 -366Q536 -384 536 -411Q536 -436 527 -472Q524 -485 517 -498Q508 -514 500 -514Q487 -514 487 -492V-486Q488 -477 498 -459Q510 -438 510 -428Q510 -420 506 -415Q498 -421 496 -431Q494 -441 490 -450Q487 -454 477 -463Q468 -470 464 -477Q465 -480 465 -484Q465 -491 458 -505V-513Q458 -535 468 -553Q474 -564 490 -582V-584Q489 -596 488 -608Q488 -618 493 -618H494Q496 -616 496 -609V-607Q496 -600 500 -595Q506 -604 509 -629Q512 -651 515 -658Q519 -620 529 -607Q536 -609 536 -624V-631Q540 -622 545 -613Q550 -604 560 -600Q572 -610 583 -622Q617 -642 656 -670L663 -678Q670 -686 678 -708Q688 -735 700 -744Q725 -763 753 -763Q757 -762 761 -762Q768 -760 778 -751Q786 -744 789 -742Q794 -741 800 -741Q806 -740 810 -735Q818 -736 825 -741L826 -738Q823 -734 820 -728V-726Q820 -723 826 -723H838Q835 -715 832 -708Q837 -702 839 -702Q846 -705 854 -712V-711Q857 -698 859 -686Q859 -680 854 -676Q864 -639 868 -597Q862 -593 859 -586Q855 -596 853 -607H848Q833 -607 823 -599Q813 -591 813 -577Q814 -574 814 -571L815 -570Q817 -571 819 -571H820Q799 -546 797 -525L786 -532Q791 -567 798 -583Q803 -593 808 -602Q814 -611 814 -621Q814 -625 813 -627Q774 -612 757 -545Q746 -501 743 -421Q743 -409 742 -397Q742 -379 752 -372Q764 -384 767 -438Q770 -488 788 -499Q778 -429 773 -324H770Q761 -324 759 -339Q757 -352 753 -354Q733 -345 733 -310Q733 -280 750 -276Q756 -278 756 -284Q757 -291 759 -295Q761 -297 770 -297Q769 -290 769 -278Q772 -239 774 -201Q774 -194 773 -187Q781 -185 784 -185Q801 -187 817 -189Q821 -189 829 -187Q825 -184 796 -179Q772 -175 772 -164L773 -160Q776 -152 783 -152Q784 -152 813 -160Q858 -168 897 -177Q891 -185 879 -185Q866 -185 854 -187Q856 -195 865 -196Q874 -197 882 -198Q897 -201 911 -205Q913 -217 915 -227Q917 -237 925 -241Q925 -211 941 -199Q944 -200 949 -200Q956 -200 968 -196L970 -195Q970 -194 966 -192Q959 -188 959 -186Q961 -183 964 -183Q967 -183 969 -184Q973 -184 974 -181Q963 -177 963 -169Q967 -152 986 -145ZM875 -744V-742Q874 -737 873 -732Q855 -732 848 -730Q857 -746 868 -746Q871 -746 875 -744Z"/>
</svg>