<svg xmlns="http://www.w3.org/2000/svg" viewBox="0 -800 1024 1024">
	<path fill="#000000" d="M330 -385V-386Q333 -400 346 -402Q351 -402 352 -397Q347 -395 343 -392Q335 -385 330 -385ZM926 -73H905V-84Q922 -90 924 -90Q926 -88 926 -82ZM882 -443H890Q894 -440 894 -434Q894 -427 887 -415Q880 -415 880 -427Q881 -435 882 -443ZM854 -503Q849 -510 849 -521Q849 -531 855 -531Q859 -531 862 -529Q863 -526 863 -519Q863 -507 854 -503ZM899 -98H905Q894 -90 879 -87Q840 -72 805 -43Q813 -41 816 -41Q827 -41 850 -53Q874 -65 890 -67Q871 -55 848 -43Q824 -32 822 -7Q822 0 825 10Q833 7 844 7Q850 7 851 8Q836 17 829 26Q819 39 819 58Q819 66 820 71Q807 75 794 79Q788 82 777 92Q764 104 755 105Q752 106 746 106Q724 104 710 89Q696 73 678 63Q668 45 641 17Q609 -16 599 -40Q616 -32 645 4Q672 38 694 47Q687 15 666 -9Q644 -32 623 -53Q604 -74 588 -96Q571 -119 546 -128Q542 -124 542 -118Q542 -113 550 -103Q559 -91 560 -84Q545 -89 526 -112Q513 -127 505 -133Q493 -121 487 -105Q482 -89 474 -74Q422 7 378 94Q370 90 362 90Q344 90 328 110V105Q328 86 312 74Q308 71 281 57V54Q284 48 286 42Q285 30 266 21Q252 14 250 8Q252 7 256 7Q266 9 275 11Q277 7 277 0Q275 -17 255 -27Q235 -36 222 -47H226Q235 -47 249 -42Q267 -35 278 -35Q266 -49 222 -63Q180 -76 167 -88Q220 -82 244 -73Q285 -60 299 -60Q320 -60 342 -76Q380 -106 403 -134Q399 -140 387 -140Q379 -140 375 -136Q368 -146 357 -146Q345 -145 333 -148Q325 -152 317 -159Q309 -166 295 -167H290Q281 -163 269 -154Q268 -156 268 -161Q269 -168 273 -172Q278 -177 281 -182Q279 -196 268 -197Q258 -198 243 -200Q253 -208 266 -211Q264 -217 262 -223Q231 -214 208 -186Q196 -172 172 -131Q165 -129 136 -112Q125 -123 110 -133Q102 -130 93 -128Q91 -128 86 -131V-133Q86 -139 91 -147Q95 -153 95 -157V-158Q95 -167 88 -182Q80 -199 80 -206V-209Q81 -220 89 -233Q83 -251 79 -270Q79 -275 80 -277Q87 -264 96 -257Q99 -264 99 -272Q94 -306 77 -338Q62 -375 56 -407Q70 -391 88 -347Q110 -292 132 -275Q176 -286 208 -308Q241 -330 277 -349V-348Q277 -342 272 -338Q268 -335 263 -331Q251 -319 243 -314Q223 -301 199 -290Q173 -276 172 -252V-248Q189 -249 208 -261Q209 -262 238 -283Q283 -316 325 -352Q367 -388 410 -422Q406 -428 401 -428Q396 -428 385 -420Q374 -412 367 -412H366Q367 -419 374 -426Q381 -432 387 -437Q460 -496 468 -503Q432 -497 408 -479Q385 -461 363 -442Q359 -447 353 -447Q343 -445 333 -443Q331 -445 331 -454H328Q314 -457 299 -461Q298 -472 284 -484H281Q275 -483 268 -482Q276 -495 276 -512Q276 -547 252 -550Q272 -566 289 -583Q307 -601 330 -613Q326 -598 321 -583Q330 -583 345 -598Q363 -620 385 -656Q404 -680 407 -685Q419 -703 419 -717V-721Q415 -737 401 -740H400Q390 -737 385 -718Q380 -699 376 -689Q361 -655 348 -646Q348 -649 347 -652Q347 -660 355 -675Q364 -692 364 -703Q376 -712 376 -726Q376 -736 369 -742Q374 -746 374 -758Q374 -768 373 -779V-784Q377 -784 379 -780Q381 -776 382 -776Q391 -779 404 -793Q415 -804 422 -808Q432 -813 453 -813Q468 -812 483 -812Q504 -796 508 -782Q509 -780 509 -776V-764Q517 -756 521 -748V-747Q518 -735 509 -721Q507 -706 505 -691Q495 -675 491 -660Q491 -654 495 -649Q500 -645 508 -645Q536 -650 566 -664Q595 -673 597 -674Q613 -680 619 -689Q608 -693 596 -693Q561 -689 526 -677Q532 -685 542 -689Q552 -694 561 -698Q595 -717 615 -717Q622 -717 626 -716Q633 -728 656 -736L657 -734Q654 -731 650 -724V-722Q651 -715 660 -715Q668 -715 672 -722Q675 -717 675 -708Q677 -707 680 -707Q685 -707 699 -717Q714 -728 723 -728Q707 -707 707 -697Q707 -689 717 -682Q722 -685 731 -685Q736 -685 742 -683Q735 -677 726 -674Q716 -671 715 -659Q715 -655 719 -655Q723 -654 727 -653Q720 -648 715 -641L714 -637Q717 -629 720 -622V-620Q719 -611 718 -603Q718 -599 721 -596Q708 -556 705 -551Q697 -553 694 -553Q675 -550 658 -544Q648 -543 637 -542Q626 -539 619 -532Q613 -526 604 -518Q599 -515 592 -512Q586 -510 585 -503V-502Q596 -494 608 -489Q620 -483 626 -472Q693 -432 740 -380Q728 -380 711 -395Q696 -408 685 -408Q682 -408 676 -406Q681 -391 694 -380Q707 -369 721 -358Q738 -344 754 -330Q770 -316 795 -311Q796 -313 796 -316Q796 -325 783 -337Q773 -346 771 -353H774Q782 -353 792 -343Q804 -331 812 -331H813Q827 -334 832 -354Q836 -375 838 -398Q848 -469 856 -493Q857 -486 857 -473Q857 -454 852 -421Q847 -387 847 -370Q847 -359 848 -353Q857 -406 863 -460Q871 -456 871 -445Q869 -431 867 -418Q866 -411 866 -398Q866 -371 872 -337Q878 -343 878 -361V-384Q878 -399 881 -404Q887 -400 887 -389V-373Q888 -331 903 -289Q910 -291 912 -294Q912 -291 911 -288Q912 -275 919 -263Q925 -252 932 -242Q927 -196 915 -166Q888 -145 871 -145Q863 -145 859 -147Q848 -153 837 -159Q811 -171 779 -207Q740 -252 726 -262Q724 -260 724 -258Q726 -252 727 -247Q721 -238 711 -233Q653 -224 605 -178L606 -182Q606 -188 601 -189Q596 -191 591 -193Q589 -208 581 -217Q576 -214 570 -212H569L568 -215Q568 -218 571 -220Q576 -222 576 -223Q573 -226 571 -226Q564 -222 557 -218L555 -219L554 -220Q560 -229 570 -236Q576 -246 582 -256Q591 -266 600 -272Q608 -278 610 -287Q595 -302 591 -321Q591 -330 598 -338Q620 -338 632 -349Q608 -380 605 -383Q588 -402 570 -410Q563 -424 550 -433Q537 -443 526 -454Q496 -431 468 -406Q453 -395 435 -377Q415 -357 410 -353Q388 -337 366 -321Q345 -306 328 -284Q331 -285 337 -285Q344 -285 356 -279Q366 -274 374 -274Q379 -274 382 -275Q380 -269 380 -266Q380 -258 387 -257Q396 -260 405 -274Q416 -291 429 -292Q423 -280 413 -270Q404 -260 403 -246Q403 -241 404 -238Q405 -231 415 -218Q429 -199 429 -189V-188Q435 -197 440 -210Q449 -232 455 -239Q456 -236 456 -231Q456 -219 445 -201Q434 -182 434 -171Q434 -164 437 -157Q443 -159 447 -167Q452 -175 456 -184Q478 -222 482 -230Q497 -262 497 -285V-287Q497 -299 493 -311Q488 -325 481 -326H480Q470 -326 470 -313Q472 -298 473 -284Q473 -275 469 -271Q462 -276 459 -299Q455 -328 441 -331L428 -326Q433 -341 438 -357Q440 -360 450 -364Q457 -367 462 -371Q470 -383 481 -398Q490 -406 499 -408Q508 -410 518 -415Q520 -401 533 -394Q546 -388 554 -379Q558 -373 559 -357Q561 -338 569 -328Q549 -272 533 -212Q546 -199 577 -179Q608 -159 622 -145Q656 -111 662 -106Q686 -86 711 -78Q720 -79 729 -81L731 -78Q729 -74 726 -70Q740 -67 754 -67Q783 -67 837 -84Q881 -98 899 -98Z"/>
</svg>