<svg xmlns="http://www.w3.org/2000/svg" viewBox="0 -800 1024 1024">
	<path fill="#000000" d="M868 -187V-184Q863 -187 863 -197Q863 -214 872 -214Q874 -214 877 -211Q868 -193 868 -187ZM835 -529H832Q827 -529 827 -536Q828 -543 829 -550H831Q834 -551 837 -552H839V-547Q839 -539 835 -529ZM389 -406Q405 -478 412 -532Q370 -515 333 -493Q341 -474 358 -463Q368 -473 376 -477Q369 -464 368 -436Q367 -415 365 -408L367 -407Q373 -410 382 -414Q386 -410 389 -406ZM546 -125H545Q535 -125 532 -99Q530 -79 526 -75Q521 -79 521 -88Q523 -101 524 -115Q524 -118 523 -122H521Q514 -122 509 -114Q505 -107 500 -107Q503 -122 510 -133Q517 -144 523 -156Q453 -150 432 -138Q473 -100 490 -56Q511 -58 532 -61Q539 -61 543 -60Q555 -76 557 -108Q557 -125 546 -125ZM780 -260H776Q769 -258 761 -256Q739 -269 721 -286Q721 -298 715 -304Q710 -311 705 -317V-319Q706 -324 707 -330L706 -334Q705 -337 700 -337H695Q689 -337 687 -339V-340Q687 -344 695 -344Q701 -344 702 -346Q721 -359 721 -384V-388Q676 -377 645 -352Q635 -343 626 -329Q616 -314 604 -310Q601 -309 596 -309Q579 -309 567 -334Q559 -338 551 -340Q543 -342 539 -348Q535 -355 535 -362Q535 -370 541 -385Q548 -402 548 -410V-411Q557 -426 571 -437Q574 -444 577 -451Q581 -459 586 -460H588L589 -458Q586 -450 582 -442V-440Q587 -436 595 -436Q602 -436 621 -445Q632 -450 640 -452Q635 -453 624 -459Q615 -464 610 -464Q606 -464 601 -461Q600 -472 593 -478Q586 -485 578 -489Q558 -495 551 -515Q562 -531 565 -553Q578 -560 591 -566Q604 -573 624 -574H627Q654 -551 677 -526Q685 -529 692 -532H696Q685 -517 685 -503Q685 -491 690 -484Q690 -479 685 -476Q680 -473 680 -469Q707 -480 733 -492Q740 -567 740 -598Q740 -608 739 -619Q725 -618 697 -593Q679 -576 669 -572Q666 -570 660 -570Q642 -575 626 -583Q623 -583 619 -584Q612 -583 605 -583Q599 -583 597 -584Q578 -592 573 -616V-635Q567 -647 562 -664V-670Q564 -702 586 -724Q607 -746 624 -762V-760Q624 -756 618 -748Q611 -738 611 -730Q612 -727 612 -725Q644 -728 670 -742Q697 -756 725 -766Q728 -773 734 -777Q739 -780 745 -785Q749 -795 758 -803Q769 -809 778 -809Q802 -804 825 -800H829V-793H833Q844 -793 859 -802Q869 -808 874 -809Q873 -804 868 -797Q858 -784 858 -775Q858 -772 860 -766Q864 -768 870 -775Q877 -784 886 -784Q884 -778 879 -771Q870 -759 870 -753Q870 -749 871 -746H872Q874 -746 876 -749Q879 -753 881 -753H884Q881 -744 881 -737Q881 -728 890 -706Q897 -691 897 -680Q897 -668 884 -652Q883 -652 868 -649Q850 -637 842 -587V-574Q842 -566 836 -562Q834 -573 834 -586Q833 -599 822 -602Q809 -596 805 -572Q798 -518 798 -463Q798 -446 800 -420Q803 -391 813 -374Q821 -387 821 -419V-434Q821 -468 830 -479Q833 -461 833 -444Q832 -417 831 -390Q831 -375 832 -367Q835 -348 838 -329Q838 -318 832 -311Q820 -296 805 -284Q791 -271 788 -251Q785 -251 784 -256Q783 -260 780 -260ZM847 83H841Q807 69 770 64Q732 59 687 54Q687 46 700 46H706Q718 46 719 40Q713 21 678 19Q670 19 661 18Q640 18 639 26V29Q639 37 655 39Q673 42 674 50Q670 52 661 52Q644 50 626 48Q577 43 444 38Q447 28 471 28H493Q540 33 587 37Q594 37 606 35Q620 32 620 28Q616 18 595 13Q578 9 550 9Q534 10 517 10Q489 10 460 9Q440 9 431 10Q403 14 374 17Q354 17 336 20Q316 23 315 43Q320 47 328 47Q347 44 365 40Q371 40 374 41V43Q371 50 367 54Q332 55 281 72Q259 80 250 85Q239 93 227 103Q215 112 194 113H192Q181 110 170 106Q165 102 163 96Q160 97 155 97Q138 97 127 82Q117 68 117 51Q117 25 135 16Q132 -5 132 -8Q132 -18 136 -25Q147 -31 163 -38Q182 -50 200 -68Q218 -86 239 -88Q233 -86 219 -68Q204 -49 204 -38Q204 -29 216 -26Q222 -27 228 -29Q239 -31 287 -34Q347 -38 370 -44Q362 -56 353 -68Q345 -80 339 -95Q345 -102 351 -110Q323 -112 313 -130Q302 -149 290 -166Q293 -170 293 -174Q293 -178 287 -185Q280 -193 280 -199Q285 -199 289 -194Q292 -190 297 -190H300V-192Q299 -203 290 -210Q281 -218 275 -226Q285 -225 296 -218Q306 -211 311 -210L313 -213Q313 -215 309 -218Q304 -223 303 -226Q323 -229 333 -241Q336 -238 348 -238H366Q380 -238 382 -232Q381 -228 371 -227Q362 -226 362 -219V-218Q362 -214 374 -202Q430 -209 477 -223Q473 -235 457 -235Q439 -233 420 -231Q415 -231 407 -233Q411 -240 432 -243Q450 -245 456 -248L457 -250Q455 -254 452 -258V-259Q444 -255 434 -255Q428 -255 425 -256Q419 -258 410 -267Q398 -279 391 -279H389Q389 -286 391 -288Q382 -293 373 -299Q383 -300 385 -314Q382 -315 376 -315Q369 -315 336 -304Q272 -278 253 -262Q244 -252 232 -235Q218 -216 197 -214H194Q185 -215 177 -224Q174 -227 164 -241Q152 -241 145 -250Q138 -259 138 -272Q138 -286 148 -295Q144 -305 144 -310Q148 -338 170 -343Q179 -361 192 -377Q196 -383 198 -388Q201 -394 206 -394H207Q197 -371 197 -363Q197 -349 216 -349H218Q237 -349 276 -369Q305 -384 318 -385Q310 -398 287 -398Q279 -398 275 -397Q275 -405 278 -411Q271 -422 259 -423Q260 -427 260 -434Q260 -443 258 -446Q244 -440 229 -429Q214 -418 197 -417Q184 -417 172 -426Q167 -430 161 -441Q153 -455 145 -460Q136 -463 127 -466Q111 -478 111 -506Q111 -529 121 -542Q106 -557 106 -576Q106 -605 149 -652Q160 -667 172 -681Q183 -696 201 -703Q194 -691 187 -677Q179 -664 178 -649Q178 -642 179 -638Q189 -639 196 -653Q202 -666 209 -668Q209 -662 208 -657Q208 -655 210 -647H211Q217 -647 230 -653Q243 -659 252 -659Q258 -659 264 -656Q256 -650 245 -645Q234 -641 229 -628L231 -625H236Q260 -626 283 -635Q305 -644 326 -653Q384 -676 415 -696Q408 -702 396 -702Q380 -702 358 -693Q329 -680 300 -671Q309 -687 328 -694Q346 -700 365 -706Q384 -712 405 -718Q425 -724 440 -733Q450 -743 460 -753Q466 -755 469 -755Q482 -755 511 -737Q515 -738 520 -742Q528 -748 534 -748Q522 -738 522 -721Q522 -708 530 -701Q536 -706 543 -708Q546 -708 548 -707Q541 -697 541 -689Q541 -680 551 -665Q563 -647 564 -634Q562 -616 559 -598Q537 -594 527 -578Q517 -561 513 -538Q508 -490 496 -449Q492 -456 492 -466Q496 -493 499 -520Q499 -532 493 -541Q473 -534 472 -507Q471 -481 465 -460Q466 -456 466 -452Q464 -425 462 -398Q462 -374 472 -365Q480 -367 484 -385Q487 -400 493 -403Q497 -402 497 -398Q496 -391 494 -384V-370Q494 -336 505 -326Q514 -329 523 -329Q531 -328 539 -328Q539 -316 552 -301Q564 -287 564 -275V-271L568 -270Q580 -272 591 -274H595Q609 -282 640 -288Q660 -292 668 -295Q682 -304 702 -311Q694 -290 694 -288L697 -286Q700 -289 705 -292L708 -291L710 -290Q708 -285 705 -281V-280Q707 -271 718 -253H737V-252Q737 -248 728 -243Q719 -238 718 -233Q719 -228 727 -226Q736 -224 737 -220Q729 -212 721 -205Q712 -197 709 -185H706Q683 -182 662 -176V-171Q662 -152 674 -148Q662 -139 662 -118Q646 -115 635 -92Q624 -89 619 -82Q614 -74 609 -67Q621 -66 632 -66Q671 -67 709 -68Q724 -67 739 -67Q754 -66 768 -66Q806 -66 820 -75Q829 -81 833 -99Q836 -112 841 -118Q846 -115 846 -108Q845 -96 843 -84Q843 -80 844 -79Q853 -92 857 -127Q861 -160 866 -170Q868 -163 868 -149Q867 -120 865 -92Q865 -77 869 -69Q876 -74 876 -94V-101Q876 -126 887 -128Q884 -113 884 -97Q884 -54 903 -40Q908 -42 913 -44H916Q917 -41 917 -38Q916 -29 915 -21V-18Q916 -8 924 7Q933 24 933 31Q931 51 913 63Q894 75 877 87Q857 83 847 83Z"/>
</svg>