<svg xmlns="http://www.w3.org/2000/svg" viewBox="0 -800 1024 1024">
	<path fill="#000000" d="M666 -6H663Q619 2 605 6Q572 16 572 30Q572 38 578 45H582Q605 43 627 40H633Q651 17 666 -6ZM666 -247V-249Q627 -249 612 -239Q598 -230 596 -216Q595 -194 588 -178Q590 -177 603 -177Q613 -178 623 -180Q628 -180 632 -179Q648 -203 660 -231Q666 -241 666 -247ZM55 -213Q52 -192 52 -191H51Q42 -191 42 -203Q42 -216 50 -216Q52 -216 55 -213ZM174 -370Q172 -369 169 -369Q157 -369 149 -379Q152 -387 155 -387Q160 -386 165 -380Q169 -374 174 -370ZM903 -75V-74Q903 -73 891 -64Q883 -56 873 -51Q875 -50 875 -45Q875 -40 876 -39L878 -38Q881 -39 884 -40L887 -39Q885 -33 885 -30Q887 -17 889 -4Q889 -1 887 5Q886 9 879 13Q870 18 870 22L871 25H867Q856 25 844 30Q832 35 827 35Q824 35 821 34Q821 29 833 22Q843 16 843 12Q843 9 839 5H837Q797 5 765 37Q753 47 740 59Q726 70 723 86Q737 84 753 69Q773 51 793 48V51Q793 56 787 58Q781 61 775 64Q755 77 744 93Q733 109 718 124Q699 116 676 114H673Q667 109 651 103Q630 95 625 88Q588 88 562 99Q549 110 536 114H532Q521 114 510 113Q505 113 504 114Q485 109 481 100Q476 91 466 79Q447 61 427 51Q408 41 406 12Q406 6 407 3Q413 -6 416 -16V-18Q412 -22 409 -26V-28Q416 -28 419 -27Q428 -38 436 -46Q445 -53 470 -53Q479 -53 487 -54Q495 -54 499 -51Q507 -44 526 -41Q534 -43 542 -45H552Q585 -56 632 -62H642Q680 -72 717 -78H728Q735 -82 742 -86Q757 -89 781 -89Q819 -89 825 -77Q831 -79 837 -82Q839 -81 841 -80Q838 -78 835 -76Q836 -73 841 -71Q847 -68 847 -66Q853 -67 858 -69L861 -68L862 -67Q861 -63 860 -60Q869 -60 879 -68Q888 -75 900 -75ZM453 -445Q463 -447 466 -449Q515 -456 564 -469Q577 -472 590 -475Q599 -475 603 -469Q573 -461 504 -447Q494 -445 482 -442Q470 -439 469 -432Q469 -429 471 -427Q472 -423 482 -423Q509 -427 531 -436Q561 -443 610 -451Q658 -459 686 -472Q686 -477 675 -477H656Q658 -486 668 -489Q678 -492 686 -497Q689 -496 695 -496Q708 -497 721 -499H724Q733 -497 740 -492H741Q747 -493 752 -494Q756 -494 759 -490Q781 -496 802 -503H805Q801 -500 787 -495Q770 -489 765 -482Q769 -480 773 -480Q781 -481 788 -482Q785 -478 782 -474L783 -472Q796 -474 808 -477H813Q795 -465 795 -456Q795 -452 796 -450H798Q805 -452 811 -454Q814 -454 816 -453Q811 -448 805 -443Q800 -439 799 -432Q799 -428 803 -422Q808 -415 808 -411V-409Q798 -401 795 -387V-384Q789 -383 783 -383Q778 -383 776 -384Q724 -377 690 -369Q677 -367 653 -362Q628 -358 625 -353V-351Q629 -342 639 -333Q690 -346 713 -348Q727 -350 731 -350Q760 -350 796 -332Q804 -334 812 -340Q822 -348 831 -349Q826 -345 820 -341Q814 -336 813 -328V-326L815 -325Q818 -327 821 -329H822Q821 -326 821 -322Q821 -314 832 -302Q840 -293 841 -288V-286Q840 -279 839 -272V-270Q843 -263 846 -257Q842 -252 837 -248Q832 -244 831 -238Q824 -238 808 -231Q807 -233 807 -236Q807 -243 817 -253Q825 -261 826 -263Q816 -279 811 -281H807Q794 -281 791 -274Q788 -268 785 -260Q776 -248 761 -235Q745 -222 743 -208Q743 -202 745 -200Q754 -202 763 -210Q775 -221 786 -222Q785 -216 774 -208Q764 -200 762 -195H773Q805 -195 861 -203Q864 -205 872 -214Q878 -221 884 -222V-220Q884 -213 894 -201Q897 -200 905 -200H928Q918 -196 918 -189Q918 -184 926 -184H932Q933 -176 940 -160Q950 -137 950 -125Q950 -118 949 -114Q940 -109 930 -105H917Q844 -101 771 -98Q755 -98 747 -99Q755 -107 796 -110Q824 -112 836 -116Q835 -118 826 -123Q695 -119 575 -105Q478 -95 449 -73Q452 -69 458 -69Q467 -71 476 -73Q533 -85 564 -88Q615 -96 669 -99Q684 -99 690 -98Q682 -88 654 -91Q619 -87 584 -84Q522 -76 469 -60Q397 -44 368 -31Q305 -33 299 -55Q299 -58 298 -62Q298 -77 306 -97Q298 -105 298 -112Q299 -124 313 -133Q327 -141 340 -148Q346 -146 362 -146Q365 -146 426 -154Q450 -157 474 -161Q477 -174 487 -192Q497 -209 494 -218Q484 -217 465 -216Q446 -215 436 -222Q422 -232 415 -240V-243Q417 -250 418 -257Q417 -261 410 -268Q403 -275 402 -280Q412 -278 421 -276Q428 -282 452 -286Q471 -289 476 -292Q506 -296 518 -303Q531 -311 536 -328Q527 -327 518 -319Q508 -310 496 -310Q487 -310 483 -312Q454 -322 424 -332Q425 -335 425 -341Q425 -353 412 -362Q414 -366 414 -374Q414 -383 410 -388Q364 -313 356 -292Q322 -230 317 -222Q291 -186 276 -157Q273 -149 273 -144L260 -123Q247 -105 235 -79Q218 -44 205 -28V-33Q205 -58 227 -90Q245 -115 248 -129Q228 -123 213 -100Q185 -65 161 -18Q145 16 145 31Q145 38 147 41Q157 39 165 25Q174 10 186 9Q181 24 171 38Q162 51 161 71Q161 79 162 83Q146 84 126 100Q108 96 89 92Q83 92 75 95Q75 88 79 80Q63 50 46 20Q45 16 45 8Q45 -9 55 -41Q62 -62 63 -75V-81Q63 -94 56 -121Q49 -147 49 -162Q49 -175 51 -181Q79 -89 82 -81Q95 -90 128 -123Q136 -130 143 -137Q143 -139 128 -154Q117 -160 106 -166Q104 -180 104 -188Q104 -244 135 -244H137Q139 -240 140 -237Q154 -235 162 -235Q205 -235 242 -263Q217 -273 212 -273Q207 -273 201 -270Q201 -271 204 -283Q194 -294 187 -307Q166 -310 149 -318Q153 -320 164 -320Q180 -320 183 -324Q183 -330 177 -338Q178 -339 182 -340Q188 -341 189 -345Q189 -350 184 -355Q178 -360 177 -363L180 -364Q186 -362 192 -360Q205 -370 213 -370Q220 -370 224 -364Q249 -362 262 -348Q275 -335 290 -323Q298 -340 318 -367Q333 -387 338 -396H333Q320 -396 302 -384Q284 -372 270 -372Q245 -372 228 -390Q217 -401 202 -430Q197 -438 192 -445Q186 -452 186 -464V-470Q186 -488 198 -514Q210 -540 211 -556Q220 -561 248 -590Q270 -612 293 -616Q286 -609 278 -601Q270 -593 269 -583Q269 -577 273 -570H278Q293 -569 307 -568Q296 -563 283 -560Q270 -557 269 -542V-540Q275 -534 290 -534Q377 -544 445 -577Q435 -584 421 -584Q410 -584 387 -578Q364 -572 354 -572Q349 -572 341 -574Q350 -585 365 -588Q379 -592 394 -594Q423 -601 452 -609Q451 -689 393 -714Q401 -721 412 -726Q418 -738 426 -744Q434 -751 448 -762Q472 -782 491 -782Q499 -782 514 -777Q526 -758 538 -740H537Q531 -740 520 -750Q511 -758 504 -760Q496 -757 491 -751Q498 -733 514 -715Q522 -706 544 -685Q551 -688 551 -698Q550 -710 549 -722Q571 -704 571 -690Q571 -681 559 -665Q546 -647 546 -638Q546 -630 550 -625Q614 -640 677 -656Q680 -657 686 -657H695Q702 -660 709 -663Q713 -664 720 -664Q728 -664 731 -665Q748 -674 765 -684L766 -681V-672Q772 -666 779 -666Q792 -669 805 -673Q809 -673 811 -672Q798 -662 798 -654Q798 -650 802 -647Q810 -649 818 -651Q815 -643 811 -636Q816 -626 828 -622Q826 -612 826 -609Q826 -600 837 -587Q844 -581 850 -576V-575Q845 -567 837 -558V-552Q838 -548 839 -545V-539Q765 -531 678 -513Q656 -508 529 -479Q513 -475 453 -445Z"/>
</svg>