<svg xmlns="http://www.w3.org/2000/svg" viewBox="0 -800 1024 1024">
	<path fill="#000000" d="M845 -770Q839 -758 831 -749Q827 -752 827 -757Q827 -763 831 -767Q835 -771 841 -771ZM912 -214V-218Q912 -228 911 -239Q911 -250 921 -250H922Q923 -246 923 -238Q923 -218 912 -214ZM686 -218Q674 -230 665 -245Q657 -261 647 -276Q629 -243 629 -194Q641 -202 661 -208Q676 -213 686 -218ZM724 -327V-312Q736 -309 740 -282Q743 -260 750 -254Q766 -288 773 -391Q745 -380 718 -362Q691 -345 665 -329Q667 -330 671 -330Q691 -327 711 -324Q718 -324 724 -327ZM173 -399V-398H170Q160 -398 155 -407Q159 -409 161 -409Q173 -409 173 -399ZM375 -148Q354 -141 334 -132Q314 -124 312 -102Q312 -99 314 -89Q333 -95 351 -100Q360 -125 375 -148ZM360 -344H365Q380 -402 380 -433V-443L376 -444Q371 -444 366 -437Q363 -433 361 -433Q365 -442 370 -451Q375 -460 376 -469V-470Q354 -465 333 -459Q311 -453 300 -437Q304 -431 308 -425Q312 -418 318 -415V-412Q318 -407 323 -392Q326 -392 327 -396Q328 -401 331 -401H334Q329 -368 329 -363Q329 -349 334 -340Q347 -342 360 -344ZM564 -386H566Q563 -377 563 -360Q563 -346 566 -341Q558 -331 558 -316Q558 -299 569 -288Q428 -260 261 -205V-207Q261 -213 273 -220Q306 -232 342 -242Q378 -255 413 -269Q408 -274 399 -274Q398 -274 380 -271Q340 -266 235 -229Q187 -212 186 -211Q161 -198 157 -176Q163 -174 165 -174Q171 -174 181 -179Q194 -185 200 -185Q205 -185 211 -182Q157 -150 140 -124Q135 -123 126 -123Q96 -123 78 -147Q51 -152 37 -178Q35 -184 35 -188Q35 -197 45 -216Q51 -227 52 -233Q54 -245 54 -249V-255Q54 -268 58 -274Q65 -282 76 -289Q88 -295 97 -302Q129 -328 136 -331V-329Q136 -325 130 -318Q120 -306 120 -298V-296Q126 -293 131 -293Q147 -296 163 -299Q166 -298 169 -298Q178 -305 188 -305Q193 -305 195 -304Q199 -310 218 -313Q231 -315 237 -319Q222 -334 195 -334Q175 -334 164 -323Q165 -333 182 -340Q203 -349 208 -354Q207 -368 186 -373Q187 -378 193 -378Q199 -379 205 -379V-381Q205 -386 192 -390Q180 -394 178 -398Q186 -400 198 -401Q210 -403 216 -410Q210 -415 194 -422Q171 -431 167 -442Q162 -458 160 -476Q157 -494 143 -505Q142 -508 142 -513Q146 -537 160 -557Q159 -563 152 -571Q143 -582 143 -592L145 -593Q149 -593 156 -585Q164 -576 167 -575L168 -578Q168 -584 158 -594Q145 -607 145 -618V-623Q152 -619 160 -609Q171 -595 182 -593V-594Q182 -599 175 -605Q168 -611 167 -614Q181 -610 194 -606Q202 -606 207 -614Q211 -609 229 -609H232Q252 -609 256 -602Q248 -599 239 -598Q227 -597 226 -585V-584Q226 -572 242 -572Q264 -574 288 -581Q326 -589 330 -599Q327 -608 317 -608Q300 -605 283 -602Q277 -602 275 -604Q280 -616 296 -617Q312 -618 324 -623V-630Q323 -649 316 -660Q308 -672 300 -683Q315 -749 361 -782H364Q387 -786 409 -790Q421 -790 429 -782Q439 -762 451 -743Q463 -724 470 -699Q466 -688 466 -674Q465 -660 457 -653Q461 -652 464 -652Q477 -652 498 -662Q517 -671 527 -673Q526 -669 522 -664Q517 -658 517 -652V-650L518 -649Q520 -651 527 -654L530 -653Q524 -644 524 -635Q524 -627 530 -609Q535 -594 536 -584Q516 -577 516 -546Q516 -534 521 -521Q500 -514 478 -508Q481 -497 490 -497Q493 -497 499 -499V-493Q499 -480 509 -475Q506 -471 506 -462Q507 -454 507 -447Q507 -442 506 -440Q504 -431 486 -412Q470 -395 466 -385Q463 -388 463 -392Q463 -398 476 -417Q492 -440 493 -452V-454Q493 -462 488 -470Q483 -478 477 -478Q472 -478 466 -472Q467 -467 467 -457Q467 -434 450 -402Q437 -377 434 -365Q453 -366 507 -385Q545 -399 562 -401L563 -399Q563 -396 558 -392Q552 -388 552 -385H554Q559 -385 564 -386ZM522 -169Q526 -177 528 -182H530Q534 -190 546 -204Q541 -189 536 -174Q536 -157 539 -155Q547 -159 554 -163Q559 -230 582 -271H586Q584 -260 578 -249Q580 -228 581 -208Q581 -198 583 -193Q597 -229 603 -272Q610 -315 619 -360Q615 -366 611 -366Q601 -363 596 -337Q590 -310 588 -297Q582 -302 582 -311Q582 -317 584 -329Q591 -375 597 -422Q598 -426 598 -435Q598 -445 597 -447Q595 -457 575 -473Q553 -491 551 -503V-510Q555 -531 558 -553Q558 -566 548 -576Q548 -598 558 -614Q564 -624 581 -641Q594 -657 611 -666Q608 -658 605 -650V-648Q607 -645 609 -642Q623 -646 637 -650Q643 -650 647 -645Q640 -639 631 -634Q622 -628 618 -618Q623 -610 634 -610Q653 -613 674 -624Q721 -644 784 -677Q778 -686 766 -686Q755 -686 728 -673Q698 -659 684 -659H682Q678 -664 678 -668Q679 -676 691 -678Q702 -680 708 -684H712Q717 -684 720 -683Q731 -690 767 -706Q809 -725 828 -740Q830 -734 830 -732Q830 -724 822 -719Q848 -732 884 -756Q881 -749 866 -737Q843 -719 843 -703V-698Q855 -703 868 -716Q867 -713 864 -708Q857 -698 856 -692Q856 -686 855 -681Q855 -659 864 -652L867 -650Q872 -653 876 -656H877Q871 -627 864 -598Q858 -569 841 -549Q770 -532 708 -483Q699 -477 687 -468Q674 -460 673 -449Q673 -444 677 -440Q698 -456 733 -479Q761 -493 764 -495Q771 -502 779 -509Q787 -517 799 -518Q804 -518 807 -517Q813 -515 817 -510Q822 -504 827 -500H828Q836 -503 841 -507L843 -506V-498Q846 -498 849 -502Q853 -507 857 -507H858Q851 -499 849 -486Q850 -483 850 -480Q850 -478 855 -474Q860 -470 862 -465Q866 -454 866 -445Q865 -431 858 -420Q850 -409 841 -395Q796 -319 796 -205Q796 -192 798 -164Q800 -137 811 -117Q825 -92 850 -92H855Q861 -101 865 -125Q871 -156 879 -165Q877 -145 877 -130Q877 -120 879 -102Q886 -129 886 -198Q886 -252 890 -276Q895 -230 896 -181Q897 -133 908 -93Q909 -99 909 -105Q908 -136 906 -167Q906 -193 912 -206Q913 -172 915 -135Q917 -97 939 -83Q943 -71 951 -56Q960 -41 962 -24Q965 0 965 6Q965 18 962 27Q960 33 948 43Q933 55 933 65V66H925Q889 62 861 42Q832 29 812 15Q765 -29 750 -137Q720 -123 685 -101Q670 -91 657 -78Q644 -66 629 -60V-63Q629 -80 652 -98Q670 -108 688 -119Q714 -134 717 -146Q642 -131 590 -81Q580 -71 580 -52Q580 -48 582 -42Q592 -46 602 -50Q607 -46 612 -42Q595 -28 582 -6Q568 16 544 18H542Q530 18 526 5Q520 -15 516 -20Q510 -26 503 -31Q496 -35 493 -44Q487 -48 489 -78Q491 -106 498 -127Q472 -119 462 -90Q452 -57 437 -29Q435 -28 430 -28Q414 -28 397 -41H388Q336 -40 311 -1Q302 5 293 10Q259 1 247 1H243Q244 -2 244 -7Q244 -14 236 -22Q228 -30 228 -39V-40H230Q240 -40 246 -30Q252 -20 260 -20Q262 -23 264 -26H265Q258 -43 246 -58Q230 -78 214 -78Q211 -78 209 -77Q202 -74 202 -70Q202 -65 212 -52Q219 -43 219 -40H218Q201 -40 187 -59Q173 -78 173 -99V-104Q177 -135 200 -155Q217 -169 249 -181Q256 -179 262 -178Q277 -184 381 -223Q403 -233 427 -236Q438 -240 449 -244Q458 -244 463 -238Q468 -233 474 -229Q478 -229 486 -235Q489 -233 489 -231Q489 -228 488 -225L489 -223Q495 -224 501 -232Q505 -238 507 -238V-236Q505 -226 503 -217V-215Q503 -208 511 -197Q519 -187 520 -181Q522 -173 522 -169Z"/>
</svg>