<svg xmlns="http://www.w3.org/2000/svg" viewBox="0 -800 1024 1024">
	<path fill="#000000" d="M521 -188Q502 -184 483 -180Q464 -175 451 -166Q458 -160 462 -147Q480 -148 497 -153Q517 -168 521 -188ZM379 -532Q370 -553 361 -575H359Q355 -574 351 -574H349Q338 -561 338 -544Q338 -532 345 -524Q348 -523 351 -523Q366 -525 379 -532ZM495 -611Q495 -624 487 -632Q470 -627 456 -623Q442 -620 429 -607Q448 -582 458 -556Q460 -555 464 -555Q473 -555 488 -565Q492 -588 495 -611ZM644 -675L643 -678Q624 -674 601 -669Q579 -664 564 -650Q568 -648 588 -646Q572 -643 572 -624Q572 -616 573 -612Q560 -611 552 -598Q549 -594 542 -574H543Q555 -575 567 -577Q574 -577 577 -575Q611 -625 644 -675ZM572 13Q571 16 566 16Q557 16 553 12V5H555Q564 5 572 13ZM914 -325Q914 -321 904 -314Q890 -304 890 -297H891Q902 -301 913 -305Q897 -291 897 -273Q897 -268 898 -266L899 -265Q900 -265 900 -267Q900 -270 903 -270H905V-267Q904 -255 902 -243Q905 -233 907 -223V-221Q876 -216 863 -204L862 -202Q865 -202 867 -203L870 -202Q869 -196 863 -195Q858 -194 853 -191Q832 -173 823 -130Q817 -93 804 -62Q798 -63 798 -70Q799 -78 800 -86Q809 -140 822 -159Q821 -163 816 -166Q800 -159 793 -142Q787 -125 782 -104Q777 -88 770 -47Q762 -24 758 0Q758 14 771 22Q779 19 780 4Q781 -14 793 -16Q795 -8 795 -2Q795 11 783 50Q779 71 775 75Q762 84 745 89Q728 100 715 111Q688 111 671 92Q658 77 645 73Q640 46 601 34Q602 33 607 33Q615 34 623 34H628Q609 23 576 18Q584 16 588 16Q607 19 625 21Q628 21 630 20Q614 8 584 2Q554 -3 528 -10Q532 -11 542 -11Q577 -7 611 -3Q623 -3 631 -7Q644 -14 649 -29Q654 -44 657 -57Q692 -156 716 -220H703Q667 -217 636 -209L635 -208Q638 -205 640 -202V-201Q640 -199 636 -196Q631 -192 631 -188Q592 -181 580 -162Q586 -163 595 -165Q604 -168 605 -165Q602 -161 599 -158Q599 -154 604 -154Q616 -158 627 -157Q627 -153 620 -153Q616 -153 615 -152Q607 -149 603 -141Q603 -137 615 -137Q610 -132 610 -125V-122Q585 -113 523 -101Q523 -93 522 -86Q541 -87 560 -88Q559 -83 539 -80Q520 -78 518 -72Q522 -70 530 -70Q562 -70 586 -76Q598 -79 603 -84Q601 -88 582 -88Q582 -95 594 -98Q609 -102 612 -105Q619 -92 628 -89Q645 -98 649 -91Q649 -90 645 -88Q640 -86 640 -83Q640 -77 649 -57Q631 -46 631 -27Q599 -29 581 -29Q546 -29 517 -23Q515 -15 515 -10Q515 8 525 38Q519 48 513 57Q506 66 494 70Q472 68 462 58Q452 48 440 39Q437 37 433 36Q429 35 428 31Q444 27 449 23V-4Q422 -3 389 12Q377 10 360 -8Q348 -21 341 -24Q343 -30 344 -37Q344 -43 338 -45Q358 -58 386 -58H393Q392 -55 389 -53Q384 -50 384 -47Q386 -45 393 -45Q403 -46 413 -47Q439 -53 448 -58Q445 -62 439 -62Q426 -61 413 -60Q417 -65 427 -66Q437 -67 445 -70Q447 -76 445 -82H439Q430 -82 415 -74Q403 -68 396 -66Q367 -69 344 -81L345 -85Q345 -89 338 -95Q334 -98 333 -102Q341 -111 351 -119Q360 -126 380 -127H385Q385 -132 378 -137Q372 -141 367 -141Q355 -138 344 -129Q335 -124 322 -121Q308 -118 305 -110Q304 -109 304 -104Q304 -88 319 -64Q319 -43 322 -31Q327 -13 335 10Q343 34 344 51Q344 73 322 85V92Q312 84 294 84Q283 84 279 85Q274 68 249 68Q231 68 219 78V77Q220 72 229 66Q237 60 238 51Q238 42 225 22Q215 7 205 -4Q200 -10 195 -14Q190 -19 190 -25V-28Q208 -21 225 5Q239 26 250 33V30Q250 14 226 -19Q214 -37 199 -57Q183 -78 159 -85Q154 -82 154 -78Q154 -73 162 -65Q170 -57 170 -54V-53H167Q152 -57 143 -68Q132 -72 123 -79Q113 -85 101 -91Q89 -97 87 -106Q87 -108 86 -111Q86 -121 97 -141Q107 -159 107 -170V-172Q104 -184 96 -195Q90 -211 90 -220Q90 -224 92 -234Q96 -220 100 -206Q105 -191 117 -187Q109 -200 105 -214V-218Q111 -216 117 -207Q123 -198 127 -198Q130 -198 132 -199V-200Q128 -205 123 -214H124Q129 -214 133 -210Q137 -205 141 -205Q159 -216 189 -219Q195 -219 198 -218Q206 -214 221 -211Q244 -206 250 -202Q257 -204 264 -207Q277 -208 303 -217Q326 -225 341 -225H346Q401 -238 456 -252Q453 -271 449 -291Q396 -286 357 -274Q317 -261 276 -248Q231 -253 225 -281Q209 -287 197 -289Q184 -291 183 -305Q183 -308 185 -316Q187 -323 197 -332Q207 -341 209 -347Q211 -355 212 -363Q213 -370 221 -376Q230 -382 235 -384Q269 -403 299 -409Q279 -398 276 -386Q279 -381 292 -381H307Q322 -381 324 -376Q314 -373 302 -371Q290 -370 285 -364Q289 -354 312 -354Q348 -357 378 -363Q419 -370 442 -384Q433 -404 426 -424V-425Q426 -429 430 -434Q436 -441 436 -447Q475 -479 493 -482Q536 -487 577 -476Q579 -475 575 -473Q565 -468 567 -467Q568 -463 579 -457Q592 -449 593 -445Q594 -439 582 -428Q572 -418 571 -412Q674 -425 741 -453L742 -451Q741 -445 740 -439Q740 -432 746 -431Q772 -442 823 -447Q816 -441 796 -436Q770 -429 764 -420Q786 -423 807 -426H812Q799 -419 782 -414Q766 -409 765 -397L766 -393L768 -392Q773 -392 778 -397Q775 -392 769 -385Q764 -379 763 -371V-369L765 -367Q770 -368 775 -369Q767 -362 762 -358Q757 -354 755 -341Q656 -338 564 -310Q560 -282 556 -270Q637 -288 717 -295Q744 -307 787 -314Q794 -315 797 -320Q799 -324 803 -324H808Q833 -324 857 -310Q870 -315 883 -320Q881 -315 879 -310Q885 -312 895 -319Q905 -326 913 -328ZM652 -168Q651 -163 646 -162Q640 -160 634 -159L633 -163Q633 -170 646 -170Q650 -170 652 -168ZM831 -718H832Q818 -710 818 -684Q818 -670 825 -644Q822 -639 817 -635Q812 -631 811 -623Q808 -624 803 -624Q791 -624 774 -615Q761 -608 755 -607V-608Q756 -624 767 -629Q780 -635 788 -644Q786 -652 782 -655Q736 -645 714 -609Q711 -601 708 -594Q700 -585 692 -575Q683 -566 682 -553Q694 -554 708 -575Q725 -599 741 -599Q744 -598 747 -598Q728 -566 684 -509Q673 -495 659 -490Q655 -488 617 -484Q584 -490 573 -500H567Q504 -497 443 -480Q414 -475 384 -470Q355 -465 337 -449Q334 -438 330 -428Q319 -424 307 -424Q278 -424 254 -445Q232 -465 223 -494H226Q234 -494 243 -481Q254 -466 264 -465V-467Q263 -478 256 -486Q248 -495 241 -506Q232 -525 224 -545Q215 -565 192 -567Q189 -566 185 -566L184 -563Q187 -552 200 -538Q216 -521 216 -505V-503Q208 -513 183 -530Q146 -555 140 -569Q135 -579 135 -592Q136 -616 151 -636Q166 -656 176 -672Q172 -680 172 -688V-691Q176 -690 180 -685Q185 -679 187 -678Q190 -681 190 -686Q190 -692 181 -713Q185 -713 194 -704Q203 -694 210 -692Q212 -694 212 -696Q211 -701 210 -707V-709Q218 -704 224 -698Q231 -692 241 -692H243Q254 -694 264 -697Q271 -696 283 -683Q294 -671 302 -670Q307 -672 315 -678Q330 -684 351 -686Q372 -688 389 -691V-689Q389 -683 383 -682Q378 -681 374 -681Q349 -669 343 -658Q351 -656 355 -656Q383 -661 407 -675Q426 -682 470 -692Q531 -706 558 -719Q544 -721 539 -721Q515 -721 474 -709Q433 -697 412 -697H407Q421 -709 443 -716Q449 -718 485 -725Q520 -733 564 -744Q607 -755 651 -762Q695 -769 732 -785L736 -784Q741 -784 746 -785Q750 -785 752 -784Q755 -783 758 -779Q763 -773 768 -773H770Q781 -760 785 -751Q791 -757 800 -760Q808 -763 817 -766Q811 -759 804 -750Q797 -742 796 -731Q797 -728 797 -725L800 -724Q805 -725 810 -727Q813 -727 814 -725L815 -724Q815 -722 811 -720Q806 -717 806 -715L808 -712L811 -711Q821 -714 831 -718Z"/>
</svg>