<svg xmlns="http://www.w3.org/2000/svg" viewBox="0 -800 1024 1024">
	<path fill="#000000" d="M485 -197Q481 -202 481 -207Q482 -211 482 -216Q444 -208 444 -189V-187Q465 -192 485 -197ZM581 -116V-141Q553 -138 545 -113Q563 -114 581 -116ZM638 -224Q619 -225 619 -246Q619 -260 628 -278Q620 -282 611 -282Q589 -279 566 -271Q535 -265 504 -260Q491 -257 476 -252Q460 -248 459 -235V-233H465Q482 -233 517 -241Q547 -248 567 -248Q577 -248 583 -247Q554 -236 551 -235Q552 -230 559 -223Q564 -217 566 -212Q626 -219 638 -224ZM527 -313Q513 -325 503 -326Q497 -325 488 -312Q480 -301 480 -297Q501 -299 527 -313ZM562 40V41H556Q546 41 541 38Q541 32 549 32Q560 33 562 40ZM611 -469Q624 -456 630 -441Q632 -433 633 -426Q633 -416 628 -412Q624 -408 619 -399Q615 -399 606 -394Q599 -390 595 -390Q577 -390 567 -385Q583 -350 583 -340Q583 -333 577 -326H581Q590 -327 599 -328Q602 -343 630 -343Q640 -343 649 -340Q661 -357 668 -390Q674 -424 680 -444Q677 -449 674 -455H678Q685 -455 689 -452Q709 -463 732 -463Q750 -463 761 -455Q773 -445 782 -429Q793 -417 805 -405Q818 -392 820 -376V-373Q820 -364 811 -348Q804 -336 804 -330Q794 -330 780 -323Q781 -330 788 -342Q797 -359 797 -366Q797 -378 783 -385Q770 -382 759 -354Q747 -327 739 -313Q733 -306 725 -298Q718 -291 717 -281Q717 -276 721 -269Q732 -271 743 -273Q746 -273 750 -271Q748 -262 736 -251Q726 -242 724 -237Q732 -238 752 -244Q781 -253 798 -253Q807 -253 811 -252Q815 -252 817 -257Q819 -262 824 -262H825Q830 -256 834 -248Q837 -240 845 -237Q857 -241 868 -246H870L873 -244Q873 -243 869 -241Q862 -237 862 -235Q862 -232 864 -230Q876 -230 895 -243Q911 -255 923 -256Q917 -247 907 -236Q897 -224 896 -214Q896 -202 913 -196Q911 -189 911 -174Q911 -142 931 -124Q925 -115 919 -107Q912 -98 912 -85Q910 -86 907 -86Q902 -86 895 -82Q886 -77 879 -77H875V-78Q875 -85 887 -98Q899 -111 899 -119Q899 -123 897 -125Q894 -134 880 -134Q875 -134 863 -130Q859 -126 832 -85Q830 -83 826 -83Q824 -83 821 -84Q763 -36 748 73Q769 62 779 35Q789 9 804 -12L807 -13Q811 -12 814 -11L818 -12Q824 -20 829 -31Q833 -42 848 -44Q834 -5 821 34Q807 73 787 108Q776 110 760 121Q743 133 732 133H730Q719 130 708 127H707Q694 131 683 142Q681 139 681 135V122Q667 118 650 117Q633 116 625 108Q619 101 619 88Q619 77 617 73Q612 61 599 55Q587 50 576 43Q577 39 582 39Q591 41 599 43Q596 34 569 28Q539 22 535 13Q585 19 625 31Q631 25 632 25Q595 17 558 9Q544 8 529 6Q515 4 508 -7Q527 -7 566 1Q600 8 619 8Q634 8 652 3Q679 -31 696 -72Q713 -114 730 -156Q724 -161 707 -161Q676 -158 644 -155Q646 -151 652 -146Q659 -140 660 -135Q668 -138 675 -142L678 -141Q673 -136 673 -126Q673 -120 679 -118Q685 -118 692 -123Q700 -128 706 -128H708Q705 -123 698 -118Q688 -111 686 -106Q689 -100 688 -92Q688 -83 696 -81Q678 -55 660 -30H659Q657 -30 656 -34Q655 -38 653 -40H648Q635 -40 627 -46Q619 -51 613 -56Q547 -53 492 -21Q467 -7 466 -7H465Q459 -7 449 -13Q439 -19 431 -19H426L427 -22Q425 -31 416 -32H415L414 -34Q418 -37 422 -41Q412 -51 412 -66Q412 -81 422 -92Q433 -104 449 -104Q455 -104 459 -103Q476 -111 479 -124Q450 -116 422 -107Q395 -97 378 -78Q379 -60 386 -45Q394 -30 403 -15Q425 31 425 46V50Q424 59 411 74Q395 94 394 106Q357 101 351 101Q345 102 339 102Q324 89 298 89Q284 89 276 93L274 91Q278 85 285 79Q282 71 270 58Q257 44 255 35H258Q268 35 280 47Q293 60 303 60H307Q303 45 292 32Q280 19 270 6Q243 -33 237 -55Q227 -63 217 -76Q206 -89 190 -90H185Q171 -86 169 -71Q170 -68 170 -65Q176 -57 193 -46Q202 -35 210 -24Q220 -16 229 -9Q238 -2 239 12Q221 4 197 -18Q167 -45 146 -52Q138 -78 135 -96Q135 -114 159 -141Q179 -164 179 -175V-177Q176 -188 172 -200V-203H173Q180 -202 181 -196Q182 -188 190 -187V-191Q187 -207 183 -224V-228L186 -229Q190 -229 191 -223Q192 -218 193 -217Q204 -203 217 -194H222Q270 -194 315 -166Q351 -177 395 -178Q381 -186 369 -192Q356 -199 345 -213Q330 -230 328 -237Q326 -246 323 -254Q321 -263 310 -266H308Q303 -267 297 -268H294Q261 -301 261 -325V-331Q262 -338 271 -347Q280 -357 280 -364V-366H282Q288 -365 294 -364Q298 -364 299 -365Q301 -366 301 -369Q301 -372 295 -378Q224 -347 180 -308H179Q168 -308 152 -321Q140 -331 132 -333H129Q121 -332 112 -332Q108 -332 105 -333Q76 -340 76 -382Q76 -399 84 -417Q76 -426 76 -439Q76 -458 97 -492Q131 -550 207 -593Q198 -578 182 -566Q165 -553 162 -529Q171 -521 195 -521Q206 -521 226 -523Q263 -530 299 -538Q313 -540 343 -546Q395 -559 458 -561Q463 -566 468 -566Q475 -566 478 -557Q390 -541 301 -525Q247 -515 235 -499Q237 -498 243 -493Q249 -487 253 -487Q277 -491 304 -501Q348 -512 464 -534Q591 -559 653 -575Q645 -588 630 -588Q619 -588 591 -578H588Q578 -575 568 -575Q560 -575 554 -578Q525 -570 520 -569Q514 -569 499 -574Q481 -580 471 -580Q451 -582 431 -572V-573Q432 -578 438 -582Q444 -585 449 -589Q447 -598 440 -599Q433 -601 425 -605Q416 -610 411 -627Q406 -642 400 -647H398Q395 -646 391 -645H390V-646Q394 -655 397 -664V-665Q397 -672 388 -685Q380 -697 379 -705V-709Q379 -715 383 -725Q388 -737 388 -743Q388 -750 384 -758Q388 -758 392 -753Q396 -749 400 -749Q403 -749 405 -752Q407 -756 409 -756Q432 -752 454 -748Q463 -752 472 -756Q477 -761 479 -768Q482 -774 491 -775H492Q487 -769 487 -760Q491 -737 512 -730Q519 -733 526 -741Q537 -753 547 -755Q540 -742 537 -727Q537 -722 538 -719Q554 -725 574 -748Q595 -770 610 -777Q613 -777 613 -774Q599 -758 582 -743Q565 -728 557 -706Q557 -700 565 -694Q580 -694 602 -706V-705Q597 -696 585 -685Q584 -682 584 -673Q584 -648 603 -641H607Q623 -642 639 -644Q649 -644 654 -639H645Q611 -639 582 -622Q579 -616 579 -610Q579 -607 587 -588Q613 -594 642 -603Q670 -611 702 -612Q709 -611 715 -611Q705 -603 692 -599Q679 -594 675 -581Q680 -575 688 -575Q701 -578 714 -581Q757 -591 765 -591Q765 -595 769 -601Q767 -609 756 -610Q746 -611 737 -613Q742 -623 752 -624Q763 -625 777 -626Q783 -628 789 -631Q793 -630 797 -629Q822 -640 843 -646H844L846 -645Q845 -641 840 -638Q834 -634 833 -629Q838 -625 848 -625Q872 -628 895 -631H898Q884 -626 877 -622Q866 -615 862 -605Q872 -585 900 -582Q892 -580 886 -576Q879 -571 879 -566Q879 -560 892 -557Q885 -550 876 -544Q867 -538 862 -529Q862 -502 850 -491Q723 -485 611 -469ZM554 -456Q541 -452 527 -448Q505 -441 489 -437Q513 -424 526 -408Q533 -431 554 -456ZM417 -419Q403 -415 388 -411Q340 -396 303 -381Q309 -378 315 -375H320Q332 -376 344 -377H346Q375 -371 391 -344Q407 -316 422 -296Q425 -299 425 -305V-308Q419 -321 418 -332Q417 -339 408 -346Q398 -354 398 -362Q409 -360 428 -345Q444 -347 464 -361Q423 -388 413 -406Q413 -412 417 -419Z"/>
</svg>