<svg xmlns="http://www.w3.org/2000/svg" viewBox="0 -800 1024 1024">
	<path fill="#000000" d="M883 -519Q880 -505 865 -505Q866 -521 876 -523Q880 -523 883 -519ZM530 24Q457 4 384 -16Q406 -16 464 -6Q502 3 532 6H538Q550 5 563 -10Q573 -21 579 -24Q584 -65 588 -106Q588 -118 585 -129V-131Q587 -134 589 -136Q584 -165 584 -198Q583 -232 570 -252Q566 -257 556 -259Q598 -299 629 -299Q640 -299 653 -294Q671 -324 699 -346Q569 -317 483 -235Q446 -243 435 -254Q418 -276 417 -299Q416 -315 426 -344Q435 -371 472 -403Q476 -402 482 -402Q493 -402 505 -407Q510 -402 510 -392L506 -393Q483 -388 480 -370Q480 -362 489 -361H491Q508 -365 530 -376Q591 -395 632 -423Q625 -426 615 -426Q604 -426 577 -418Q550 -410 533 -409Q548 -429 577 -433Q606 -438 637 -445Q630 -458 610 -461Q602 -461 597 -457Q604 -466 610 -475Q604 -477 601 -477Q588 -476 579 -467Q569 -458 563 -453Q564 -464 573 -473Q582 -482 588 -492Q568 -511 556 -538Q590 -562 610 -562Q621 -562 629 -558Q649 -582 665 -607Q633 -606 591 -585Q552 -566 530 -545Q515 -547 499 -549Q484 -550 474 -557L469 -572Q453 -586 436 -595Q432 -600 432 -612Q432 -629 439 -638V-660Q439 -670 442 -678Q447 -685 456 -689Q465 -693 472 -697Q483 -707 491 -719Q499 -731 511 -734V-732Q511 -730 506 -725Q499 -718 499 -713Q499 -697 523 -697Q546 -697 549 -685Q540 -681 519 -677Q505 -675 504 -664V-661Q507 -652 518 -652Q528 -652 564 -665Q643 -695 721 -726Q717 -737 701 -737Q683 -737 659 -726Q636 -713 609 -709Q617 -724 637 -730Q656 -736 675 -744Q683 -748 694 -759Q707 -771 714 -774Q726 -778 741 -778Q767 -778 795 -766Q803 -768 805 -768Q809 -768 815 -766V-757Q815 -751 816 -748Q821 -746 825 -744Q845 -756 864 -768Q858 -763 853 -754Q847 -744 844 -741V-738Q846 -728 847 -718H851Q860 -718 871 -729Q868 -717 862 -703Q862 -698 861 -694Q861 -676 874 -640Q869 -631 862 -625Q854 -619 847 -612H844Q821 -612 803 -601Q796 -597 773 -576Q737 -544 733 -540Q713 -520 702 -499Q703 -494 708 -489Q715 -482 715 -477Q715 -473 714 -471Q759 -483 803 -496Q807 -509 808 -513Q812 -523 818 -525V-496Q828 -489 844 -484Q847 -485 849 -490Q852 -496 857 -496H859V-493Q859 -478 865 -469Q871 -460 877 -451Q884 -455 892 -460Q900 -466 909 -467Q915 -467 918 -465Q908 -457 897 -451Q885 -445 884 -429Q897 -421 912 -415Q905 -406 893 -399Q898 -390 898 -379Q895 -354 881 -333Q830 -327 789 -295Q739 -266 708 -226Q705 -222 696 -199Q690 -190 684 -184Q677 -177 677 -166V-162Q679 -137 680 -113V-108Q679 -78 678 -49Q679 -42 679 -35Q679 -25 672 -22Q669 -36 667 -65Q665 -99 661 -112Q645 -104 645 -40Q645 -21 647 3Q650 32 671 48Q674 43 674 28V17Q674 6 677 0Q695 46 695 64Q695 80 686 90Q662 111 628 119H626Q610 119 573 98Q550 84 526 69Q530 67 533 67Q543 70 553 72Q542 57 520 52Q498 47 477 41Q482 40 491 40Q515 43 539 45Q496 29 444 21Q456 19 462 19Q492 22 522 24ZM462 -215Q462 -211 450 -202Q438 -192 437 -187L439 -184Q444 -186 448 -189L450 -187L451 -184Q451 -180 446 -170Q446 -168 456 -167Q462 -167 463 -165Q449 -130 449 -115L452 -114Q456 -114 457 -113Q451 -105 443 -93Q435 -81 434 -67V-63Q366 -46 264 16Q279 -20 318 -35Q357 -51 389 -67Q379 -69 373 -69Q340 -69 257 -19Q250 -15 235 -12Q217 -8 211 -1Q199 11 199 24Q199 29 203 35Q210 34 220 27Q231 19 236 19Q237 19 243 21Q236 32 226 39Q216 45 207 53Q200 66 191 82Q182 97 165 98Q160 98 156 97Q149 93 143 85Q137 77 132 70Q119 69 109 68Q99 67 91 58Q82 46 82 24Q82 2 91 -10Q82 -23 82 -48Q82 -61 85 -73Q97 -92 116 -113Q124 -123 131 -134Q138 -144 147 -146Q143 -136 138 -128Q133 -119 132 -109Q132 -105 134 -97Q140 -91 148 -91Q155 -92 162 -94Q178 -99 194 -104Q217 -112 261 -135Q279 -142 328 -161Q377 -181 391 -190Q400 -191 426 -202Q453 -213 462 -215ZM410 -276Q409 -269 409 -259V-257Q406 -253 402 -238Q398 -222 394 -217Q389 -220 379 -203Q368 -184 364 -184Q355 -184 338 -197Q316 -214 302 -211Q306 -224 317 -229Q328 -233 339 -238Q332 -242 323 -242Q313 -242 295 -238Q244 -228 239 -197Q245 -197 257 -204Q273 -213 284 -213Q288 -212 291 -212Q273 -190 246 -178Q218 -166 207 -135Q176 -132 175 -132Q162 -139 149 -168Q138 -192 128 -200Q144 -239 167 -268Q190 -296 212 -329Q154 -315 144 -271H139Q116 -271 103 -286Q100 -290 81 -325Q64 -352 61 -363Q57 -387 57 -399Q58 -402 58 -406Q61 -417 72 -427Q82 -437 90 -445Q114 -473 136 -488Q158 -504 187 -525Q198 -536 208 -538H210V-536Q202 -524 174 -505Q137 -480 131 -460Q151 -479 200 -507Q242 -532 265 -557Q283 -576 287 -581Q299 -596 303 -609Q289 -609 272 -589Q258 -572 246 -569Q252 -590 276 -616Q296 -637 302 -651Q300 -659 295 -660Q305 -663 319 -674Q334 -685 348 -685Q360 -685 370 -679Q393 -663 399 -654Q404 -646 411 -608Q416 -582 421 -556Q416 -543 413 -528V-524Q383 -517 365 -503Q347 -489 322 -470Q310 -462 281 -459Q258 -457 251 -439Q254 -437 264 -437Q287 -437 320 -451Q318 -443 315 -436Q316 -427 326 -413Q336 -399 336 -388V-387Q334 -369 303 -344Q269 -317 264 -300Q291 -317 313 -325Q327 -345 346 -348Q346 -364 350 -366Q354 -365 355 -356Q356 -348 357 -347Q363 -345 367 -345Q371 -345 375 -348L379 -342Q390 -328 401 -314Q404 -305 410 -276Z"/>
</svg>