<svg xmlns="http://www.w3.org/2000/svg" viewBox="0 -800 1024 1024">
	<path fill="#000000" d="M249 -159Q222 -155 203 -143V-136Q203 -123 202 -110Q224 -114 245 -123V-128Q247 -143 249 -159ZM257 -280Q257 -288 255 -291Q237 -284 219 -274Q199 -264 197 -242Q197 -232 199 -227Q204 -230 255 -251V-254Q256 -267 257 -280ZM260 -442Q260 -451 258 -469Q251 -462 243 -455Q229 -444 225 -437Q217 -418 217 -392Q208 -375 204 -361Q204 -358 205 -356Q211 -357 227 -366Q245 -377 259 -378V-394Q260 -418 260 -442ZM419 -561Q416 -550 410 -536Q403 -531 396 -527Q371 -502 362 -464Q360 -449 359 -432Q358 -416 348 -404Q344 -409 344 -421Q346 -441 347 -461Q347 -471 345 -476Q323 -458 321 -409Q320 -360 317 -311Q315 -289 313 -268Q313 -244 324 -236Q334 -246 336 -282Q339 -319 348 -328Q350 -314 350 -284Q348 -223 346 -163Q347 -150 347 -138Q348 -113 359 -74Q368 -42 368 -31V-24Q363 -15 351 -5Q350 0 348 5L335 18L307 28H306Q295 28 276 9Q259 -9 255 -21V-25Q256 -32 256 -39Q256 -45 252 -48Q229 -46 211 -29Q206 -25 184 4Q175 5 165 15Q115 12 110 -36Q107 -43 94 -45Q102 -62 102 -90Q97 -146 92 -203Q92 -219 95 -234Q103 -219 108 -180Q113 -142 119 -128Q130 -133 130 -149Q129 -161 128 -173Q128 -208 126 -248Q125 -288 109 -309Q102 -307 95 -305V-301Q95 -292 94 -283V-279Q86 -286 86 -296V-304Q86 -309 85 -312Q82 -325 65 -347Q50 -366 48 -377Q46 -393 46 -400Q50 -444 56 -488Q53 -512 50 -537Q50 -546 51 -551Q56 -538 59 -519Q62 -501 76 -495Q70 -505 66 -521Q66 -526 68 -529Q78 -513 89 -498L90 -501Q87 -509 84 -518L85 -520Q90 -520 99 -512Q106 -506 110 -504Q126 -508 136 -508Q157 -508 168 -498Q226 -544 258 -578V-582Q258 -588 259 -591Q259 -595 259 -600V-604Q265 -610 271 -617Q277 -624 279 -635Q288 -636 292 -647Q310 -658 331 -658Q353 -658 363 -645Q371 -648 383 -658Q395 -668 404 -671H405L409 -670Q403 -661 397 -651Q390 -641 390 -626Q393 -629 396 -635Q400 -644 406 -645Q400 -630 400 -614Q400 -578 419 -561ZM595 25L591 26Q576 24 572 9Q575 6 579 6Q591 6 595 25ZM596 -194L619 -202Q646 -211 673 -220Q682 -221 691 -223Q689 -239 686 -246Q669 -243 643 -227L618 -216Q604 -210 596 -194ZM690 -177Q678 -173 665 -170Q641 -162 617 -154Q601 -149 585 -144V-124Q611 -124 618 -133Q657 -143 660 -142Q663 -143 689 -160Q690 -168 690 -177ZM939 -331Q938 -329 933 -327Q929 -325 928 -322L929 -319Q924 -310 919 -305L920 -303Q915 -304 878 -312Q878 -320 891 -320H895Q890 -334 860 -334Q825 -334 807 -323Q812 -317 826 -317Q838 -317 849 -318Q863 -318 866 -311Q849 -307 827 -306Q806 -305 793 -296Q793 -280 810 -278Q787 -264 787 -204V-186Q780 -191 776 -210Q772 -230 767 -234Q759 -217 759 -174Q759 -147 760 -134Q762 -82 767 -51Q774 -8 791 9Q791 -14 784 -57Q776 -106 776 -129Q776 -152 782 -176Q790 -169 790 -155Q789 -143 788 -131Q792 -71 816 12Q827 45 827 53V55Q824 69 812 80Q800 91 790 99Q784 105 754 140Q742 127 723 122H719Q710 123 701 123H696Q685 121 671 108Q657 95 649 93V90Q649 88 651 82Q645 72 627 59Q605 43 600 30Q610 34 621 41Q631 48 642 49H643Q630 36 610 23Q591 9 581 -12Q615 11 649 33Q648 23 637 17Q627 11 618 5Q620 4 625 4Q640 7 652 15Q658 -9 663 -33Q667 -53 667 -58Q667 -68 660 -71Q658 -71 655 -72Q653 -72 637 -68H625Q610 -68 601 -65Q567 -54 555 -28Q542 -3 535 33Q529 36 516 36H501Q486 36 480 42Q476 27 457 27H454Q438 11 428 -10Q418 -32 407 -51Q407 -59 411 -59H412Q406 -72 397 -81Q423 -97 449 -135Q453 -142 458 -149Q464 -157 473 -158H474Q470 -142 454 -119Q438 -96 434 -83Q451 -88 459 -102Q468 -116 476 -130Q485 -143 494 -156Q502 -170 505 -186Q496 -186 491 -180Q486 -175 480 -171Q481 -180 493 -198Q501 -210 504 -218Q509 -217 514 -217Q543 -218 563 -233Q583 -249 601 -265L597 -266Q584 -261 570 -257Q565 -257 563 -259Q574 -274 596 -277Q619 -281 637 -288Q633 -293 627 -293Q620 -292 613 -291Q569 -287 556 -285Q524 -279 510 -266Q511 -257 530 -257H531Q550 -257 551 -249Q542 -248 524 -240Q506 -232 495 -231L440 -225Q426 -223 412 -242Q392 -270 389 -272V-278Q390 -307 406 -322Q422 -336 439 -351Q459 -349 468 -349Q513 -349 616 -368Q615 -375 603 -375Q600 -374 596 -374Q592 -374 588 -375Q580 -381 569 -397Q557 -414 548 -420Q565 -442 609 -454V-463Q609 -469 607 -470Q577 -463 555 -447Q533 -432 508 -419Q476 -427 452 -441V-444Q451 -457 442 -464Q433 -470 427 -479V-484Q430 -502 433 -520V-523Q433 -530 428 -541Q422 -555 422 -560V-561Q424 -586 447 -601Q472 -616 493 -630Q491 -628 491 -624Q491 -620 493 -614Q497 -613 505 -613Q515 -613 537 -619Q556 -624 565 -624Q568 -623 571 -623Q597 -637 607 -650Q597 -678 589 -688Q575 -706 551 -706Q547 -706 535 -704Q547 -716 574 -716H581Q579 -721 565 -721Q587 -736 616 -758Q644 -781 674 -783Q696 -783 713 -765Q720 -756 726 -747H725Q718 -747 708 -755Q695 -765 685 -765H684Q686 -754 694 -746Q703 -739 710 -730Q715 -721 719 -711Q722 -701 732 -695Q735 -702 735 -716Q735 -723 733 -731Q743 -730 750 -715Q755 -704 759 -701L750 -680Q755 -678 765 -678Q776 -678 801 -686Q819 -692 830 -693Q828 -684 825 -675Q825 -671 828 -665Q846 -668 871 -677Q864 -670 855 -664Q845 -658 844 -649Q844 -644 848 -639H850Q855 -640 860 -642H862L864 -640Q860 -634 853 -629Q854 -627 858 -620Q845 -609 834 -572Q825 -542 815 -530H790Q805 -545 807 -548Q815 -560 815 -575H811Q804 -574 799 -569Q794 -563 788 -558Q778 -551 751 -546Q719 -540 708 -529Q715 -529 732 -533Q753 -538 764 -538Q775 -538 781 -536Q778 -529 764 -525Q760 -524 737 -520Q701 -514 701 -497Q702 -494 702 -492Q705 -490 707 -485Q734 -496 760 -497Q745 -492 745 -481Q745 -471 755 -471Q757 -471 763 -473V-472Q761 -460 758 -449Q758 -444 759 -441Q745 -430 730 -420Q726 -417 698 -408Q677 -401 677 -391Q677 -386 683 -377Q739 -387 798 -398Q857 -408 901 -425V-424Q901 -422 896 -418Q888 -412 887 -407Q901 -395 911 -395Q914 -395 920 -397V-395Q918 -388 915 -381Q915 -377 916 -375Q918 -369 926 -369Q924 -365 924 -357Q924 -338 939 -331ZM431 -693V-683Q423 -679 415 -675Q414 -677 414 -681Q415 -693 426 -694Q429 -694 431 -693Z"/>
</svg>