<svg xmlns="http://www.w3.org/2000/svg" viewBox="0 -800 1024 1024">
	<path fill="#000000" d="M949 -477H946Q948 -491 960 -491Q965 -491 967 -490Q961 -477 949 -477ZM841 -61H840Q840 -79 843 -84H847L849 -85Q851 -82 853 -79Q850 -75 849 -68Q849 -62 841 -61ZM55 -210Q41 -216 41 -232Q41 -236 42 -238Q50 -238 53 -228Q54 -225 55 -210ZM731 -433Q743 -468 766 -499Q743 -493 734 -486Q732 -465 730 -444Q730 -437 731 -433ZM692 -150V-139Q692 -133 693 -130Q731 -140 745 -150L744 -154Q746 -165 748 -176Q748 -180 745 -183Q730 -175 716 -169Q701 -162 692 -150ZM681 -13H685Q699 -13 717 -21Q726 -43 729 -67V-70Q707 -68 694 -57Q680 -44 680 -23Q681 -18 681 -13ZM410 -296V-302L407 -303Q403 -303 398 -298Q322 -247 225 -115Q240 -108 253 -108Q268 -108 282 -118Q289 -123 306 -141Q328 -164 372 -223Q386 -240 398 -257Q409 -273 410 -296ZM799 93H796Q775 93 759 83Q741 72 738 54Q705 54 693 57Q673 62 663 78Q659 79 655 79Q619 79 613 31Q611 19 611 11Q611 -3 619 -6Q621 1 622 9Q622 16 628 18H630Q633 18 634 14Q635 9 638 9H639Q637 -16 637 -43Q636 -70 622 -85Q617 -80 617 -68Q618 -54 619 -41Q619 -32 616 -28Q604 -36 605 -53Q605 -69 602 -84Q600 -93 592 -100Q591 -101 578 -111Q546 -77 522 -3Q513 1 502 1Q485 1 471 -16Q462 -26 451 -48V-80Q451 -104 440 -109Q424 -95 416 -73Q408 -52 398 -32L395 -33Q392 -31 389 -30Q391 -51 408 -80Q420 -101 424 -114Q418 -116 416 -116Q402 -114 393 -96Q384 -78 377 -64Q366 -48 355 -31Q343 -14 342 5Q342 8 344 18Q349 17 356 9Q363 1 369 1Q372 1 374 2V4Q370 20 356 41Q346 58 343 61Q335 71 326 71H325Q319 71 312 64Q304 55 297 54Q275 4 255 -49Q250 -52 245 -54Q239 -57 237 -63H242Q251 -63 260 -66Q258 -84 245 -92Q232 -99 220 -107Q192 -79 182 -64Q164 -37 162 -4Q146 5 127 7Q121 7 118 6Q111 5 103 -7Q91 -21 91 -32V-37Q90 -39 85 -42Q80 -44 79 -48Q82 -64 82 -79Q82 -103 70 -147Q60 -183 58 -204Q66 -193 75 -165Q86 -131 97 -121Q93 -136 87 -150Q81 -164 80 -181V-186Q89 -175 97 -155Q105 -135 122 -133Q133 -134 145 -146Q157 -157 165 -165Q186 -183 276 -274Q338 -338 365 -387Q353 -406 336 -423Q315 -410 300 -391Q285 -372 267 -354V-358Q267 -376 298 -402Q307 -414 315 -426Q308 -431 304 -431Q292 -430 281 -418Q271 -406 263 -397Q244 -378 226 -359Q208 -341 203 -308H204Q213 -308 224 -321Q237 -335 248 -336Q248 -324 232 -307Q214 -287 214 -270V-267H212Q205 -265 199 -261Q155 -278 131 -318Q122 -321 115 -321Q106 -321 98 -315V-317Q98 -321 102 -325Q106 -329 107 -333Q85 -343 82 -343H79Q75 -343 68 -337Q62 -332 55 -331Q65 -344 74 -357H69Q59 -357 49 -346Q38 -335 30 -333V-334Q31 -344 40 -351Q49 -358 58 -364Q80 -388 123 -429Q183 -486 208 -517Q204 -521 200 -536Q196 -551 190 -556V-560Q190 -575 199 -586Q196 -592 196 -603Q207 -604 224 -608Q246 -614 256 -614Q270 -614 283 -607Q297 -615 308 -634Q318 -652 329 -667Q337 -675 345 -683Q353 -692 354 -704Q354 -711 351 -720H352Q361 -719 363 -711Q365 -701 369 -694Q371 -696 375 -696Q378 -697 378 -701Q377 -708 375 -715Q375 -718 377 -720Q384 -717 391 -712Q398 -707 408 -707Q411 -707 419 -709Q435 -688 460 -678Q462 -658 475 -627Q486 -601 489 -586Q487 -564 475 -551Q463 -538 447 -530Q415 -516 393 -492Q397 -475 421 -444Q446 -412 452 -393Q457 -373 461 -354Q470 -332 479 -310Q487 -288 488 -265Q486 -236 475 -209Q463 -182 454 -156Q452 -158 452 -165V-172Q452 -185 445 -186Q434 -172 421 -132Q425 -130 426 -130Q430 -130 435 -134Q442 -139 447 -139H448V-136Q445 -127 442 -118H445Q469 -119 488 -135Q506 -151 522 -167Q543 -185 574 -220H571Q565 -220 551 -213Q548 -218 536 -223Q523 -229 519 -235Q515 -243 511 -252Q503 -262 497 -268Q490 -275 490 -288Q490 -294 491 -298Q493 -310 498 -321Q499 -325 500 -336Q501 -349 505 -355Q509 -360 518 -365Q526 -369 528 -371Q535 -378 541 -385Q547 -392 556 -393L558 -391Q555 -386 551 -382V-381Q551 -377 554 -375Q557 -374 559 -371Q570 -376 642 -391Q641 -419 639 -447Q595 -438 566 -411Q550 -415 534 -420Q525 -438 512 -450Q498 -462 485 -474Q484 -479 484 -488Q484 -509 498 -537Q507 -556 510 -568Q520 -576 522 -576Q521 -584 519 -592Q538 -585 549 -585H556Q576 -589 595 -593Q602 -593 605 -591Q600 -584 573 -577Q550 -571 547 -556Q555 -553 562 -553Q570 -553 591 -559Q612 -565 625 -565H627Q629 -572 631 -579Q623 -600 618 -631Q611 -648 603 -666Q601 -677 600 -686Q598 -695 590 -700V-701Q592 -707 596 -712Q596 -716 592 -718Q588 -720 588 -723Q609 -735 637 -766Q646 -779 655 -791Q663 -803 677 -804H678Q704 -797 719 -787Q727 -780 737 -759H734Q728 -759 721 -767Q716 -773 711 -773Q709 -773 705 -771Q702 -765 702 -760Q702 -750 716 -736Q727 -725 729 -718Q731 -712 731 -700V-697Q731 -686 735 -675Q744 -678 748 -697Q751 -711 754 -715Q748 -727 745 -742L749 -743Q757 -743 762 -733Q766 -725 766 -717Q766 -708 759 -689Q751 -665 751 -653Q751 -649 753 -641Q759 -642 770 -652Q779 -660 785 -663Q794 -666 806 -667Q817 -667 825 -675Q844 -664 851 -637Q855 -642 862 -658V-660Q862 -662 859 -664Q855 -666 855 -669V-670Q912 -697 922 -703L923 -700Q923 -696 920 -690Q929 -691 939 -700Q951 -710 961 -711V-710Q961 -708 953 -700Q940 -688 940 -682Q940 -676 954 -673Q979 -637 979 -565Q967 -558 938 -547Q898 -532 883 -517Q847 -480 815 -440Q846 -445 890 -475L891 -472Q887 -463 880 -456H882Q891 -456 905 -465Q923 -476 933 -476Q937 -476 940 -475Q930 -468 918 -462Q905 -456 904 -442Q904 -438 905 -435Q920 -444 941 -447Q936 -440 927 -434Q919 -427 918 -419Q918 -416 920 -412L921 -411Q928 -413 934 -416Q936 -416 938 -414V-412Q938 -409 931 -405Q925 -402 923 -399Q920 -395 920 -386Q921 -373 922 -360V-355Q917 -328 891 -324Q865 -320 836 -316Q844 -327 860 -331Q876 -334 890 -340Q888 -350 873 -350Q867 -349 861 -349Q836 -348 785 -332Q749 -321 732 -318Q721 -310 716 -297H718Q745 -301 772 -306Q781 -306 785 -305V-304Q785 -302 778 -300Q771 -298 770 -295Q731 -290 710 -280Q682 -267 672 -242H677Q694 -245 710 -255Q724 -257 740 -262Q757 -271 770 -282Q784 -293 803 -297Q825 -296 848 -302Q857 -295 872 -293Q877 -293 880 -294Q877 -290 874 -287V-285Q879 -287 885 -294Q892 -303 897 -303Q900 -303 902 -302Q901 -299 894 -291Q884 -280 883 -271L885 -270Q886 -270 887 -274Q888 -277 892 -278L895 -277Q894 -272 894 -262Q894 -239 904 -232V-224Q905 -212 905 -200Q905 -192 902 -186Q887 -183 879 -168Q878 -165 868 -138Q862 -141 862 -148Q865 -162 868 -176Q868 -181 864 -184Q847 -179 839 -156Q836 -148 828 -107Q817 -57 817 -30Q817 -20 821 2Q829 -2 831 -23Q834 -45 843 -48Q840 16 834 75Q832 79 827 83Q822 87 821 91Q818 88 815 88Q807 91 799 93Z"/>
</svg>