<svg xmlns="http://www.w3.org/2000/svg" viewBox="0 -800 1024 1024">
	<path fill="#000000" d="M928 -117Q924 -99 916 -94Q914 -100 914 -105Q914 -120 922 -120Q925 -120 928 -117ZM550 -300Q550 -324 541 -336Q516 -328 500 -287Q526 -293 550 -300ZM557 -228V-240Q541 -242 533 -242Q508 -242 490 -234Q469 -224 464 -206Q511 -210 557 -228ZM938 56V60Q936 78 912 94Q888 109 862 109Q851 109 842 106V105Q842 96 858 92Q871 89 871 82L870 79Q863 69 828 68Q792 68 792 83V84Q794 89 805 90Q821 92 821 101Q792 110 707 110Q696 111 684 111Q672 111 664 106Q674 94 722 94Q764 94 775 86Q768 70 740 70Q718 72 695 73Q664 72 633 71Q595 71 575 81V82Q575 94 597 96Q619 98 619 110Q550 109 514 98Q459 81 454 38V25Q454 -10 468 -42Q480 -72 480 -90Q480 -103 474 -117L471 -118Q466 -115 460 -113L458 -114Q465 -132 478 -143Q490 -154 503 -165Q486 -161 462 -151Q430 -138 415 -135Q438 -109 446 -90Q452 -78 452 -68V-66Q451 -52 408 -19Q378 3 349 29Q319 55 310 96Q291 98 277 118Q271 117 261 111Q247 103 239 103Q233 103 230 104L235 95Q206 71 199 66L200 64L204 65L205 64V63Q202 47 191 40Q180 33 172 22Q193 28 197 28Q194 19 179 5Q164 -8 161 -15Q169 -12 182 -2Q200 11 212 15Q249 0 283 -28Q305 -46 341 -85Q338 -98 335 -111Q349 -117 360 -127Q371 -136 390 -138Q370 -152 349 -188Q321 -235 313 -245Q318 -258 343 -273Q371 -290 378 -298Q383 -306 387 -315Q404 -329 423 -335H425Q431 -333 437 -332H438Q443 -332 453 -337Q463 -342 471 -342Q476 -342 479 -341Q488 -346 497 -351Q489 -351 480 -352Q440 -351 405 -340Q369 -330 335 -320Q278 -306 261 -300Q231 -283 200 -270Q198 -274 198 -275Q202 -281 206 -291Q204 -292 199 -292Q186 -292 165 -271Q149 -255 141 -254H137Q125 -257 112 -260Q105 -260 100 -254Q113 -235 137 -235H140Q150 -235 166 -246Q179 -255 186 -255H189Q176 -227 164 -222Q156 -218 144 -218Q123 -219 101 -227Q80 -236 67 -241Q58 -254 58 -267Q63 -294 67 -322Q67 -327 66 -332Q77 -344 111 -365Q137 -381 152 -395Q177 -418 220 -435L221 -434Q224 -435 226 -436H227Q225 -429 211 -419Q192 -405 190 -393Q193 -394 198 -398Q208 -406 212 -406L215 -405L217 -402Q214 -399 211 -394V-392Q217 -390 221 -390Q235 -391 248 -393Q252 -393 254 -392Q253 -384 245 -382Q237 -379 230 -376Q224 -373 219 -370Q214 -366 214 -359Q215 -356 215 -354H218Q256 -355 293 -369Q330 -382 366 -392Q361 -404 345 -404Q319 -400 292 -396H289Q296 -411 316 -414Q336 -417 354 -420Q346 -423 337 -437Q329 -450 321 -453Q322 -457 328 -461Q333 -465 335 -467Q334 -473 324 -486Q328 -485 334 -485Q361 -489 381 -496Q387 -496 392 -497Q414 -497 429 -488Q445 -480 460 -470Q467 -457 480 -445Q530 -449 545 -458V-467Q545 -488 531 -488Q529 -488 521 -486Q539 -505 556 -524Q551 -524 545 -525Q519 -525 492 -514Q470 -500 455 -495H454Q449 -495 442 -503Q437 -509 432 -511H420Q416 -511 415 -510Q394 -529 373 -549Q351 -569 319 -573Q319 -578 327 -578H333Q337 -578 341 -580Q331 -588 316 -590Q300 -595 294 -603Q298 -605 300 -605Q316 -601 331 -597Q338 -602 360 -602Q380 -602 387 -605V-603Q388 -599 389 -595V-593Q384 -591 378 -590Q372 -590 369 -582Q377 -573 388 -573Q397 -573 416 -582Q432 -590 439 -591Q437 -602 430 -608Q424 -607 414 -603Q414 -606 413 -609Q414 -622 430 -625Q445 -627 458 -631Q456 -648 436 -652Q432 -652 430 -651Q426 -664 414 -664Q402 -664 400 -647V-642Q391 -646 391 -658Q392 -670 393 -682V-684Q390 -700 387 -717V-719Q389 -725 395 -729Q400 -733 406 -738Q420 -753 436 -771Q452 -790 467 -801Q481 -802 495 -804Q512 -804 522 -795Q557 -767 557 -746Q553 -746 545 -753Q533 -763 523 -763H521Q524 -744 536 -732Q548 -721 557 -708Q552 -694 549 -679Q549 -672 553 -668Q558 -675 567 -683Q576 -691 578 -702V-705Q576 -714 574 -724Q575 -726 575 -729Q578 -732 581 -732Q590 -728 598 -725Q598 -714 588 -697Q581 -685 581 -677V-674Q590 -675 608 -683Q629 -692 639 -693Q637 -685 634 -677Q636 -668 648 -662Q653 -662 665 -668Q675 -673 683 -673Q688 -673 691 -672Q689 -669 673 -661Q661 -656 660 -644V-643H661Q667 -646 678 -650H682Q668 -644 668 -633Q668 -620 683 -614Q684 -611 684 -605Q684 -591 678 -583Q672 -574 667 -564H660Q644 -564 640 -555Q651 -544 670 -543Q674 -535 681 -528Q687 -522 688 -513Q688 -510 686 -504H684Q665 -503 660 -482Q816 -493 866 -533L860 -514Q862 -506 873 -493H898Q892 -489 886 -485Q880 -481 877 -474Q878 -468 887 -464Q893 -461 895 -459Q883 -454 883 -440Q883 -433 886 -426Q883 -423 861 -387Q833 -393 797 -393Q778 -393 671 -383Q672 -381 686 -367Q694 -372 696 -372H700Q698 -369 698 -363Q698 -356 707 -350H711Q723 -351 735 -353Q698 -342 698 -301V-295Q694 -296 685 -303Q687 -311 687 -316Q687 -328 680 -336Q673 -345 661 -345Q655 -345 652 -344Q655 -332 655 -317Q653 -277 650 -238Q650 -207 661 -194Q671 -200 672 -231Q673 -255 677 -263H691Q689 -251 689 -243Q691 -219 692 -195Q692 -183 689 -171Q678 -168 634 -149Q621 -151 602 -163Q576 -179 560 -179Q553 -179 542 -176H544Q567 -176 580 -157Q592 -139 592 -112Q592 -93 586 -75Q545 -62 545 -3Q553 3 571 3Q578 3 584 2Q590 3 595 3Q603 5 611 7H614Q630 5 645 3Q746 -5 748 -5Q807 -12 836 -28L839 -29Q842 -28 845 -27Q853 -35 857 -63Q862 -97 874 -104Q872 -80 870 -57Q870 -41 876 -31Q881 -63 883 -99Q886 -135 896 -162V-156Q895 -122 894 -88Q894 -45 904 -28Q906 -34 909 -52Q912 -73 917 -81Q920 -52 920 -21Q920 11 941 24Q936 29 936 37Q937 47 938 56Z"/>
</svg>