<svg xmlns="http://www.w3.org/2000/svg" viewBox="0 -800 1024 1024">
	<path fill="#000000" d="M376 -151Q376 -161 372 -166Q340 -140 340 -119Q340 -108 347 -100Q348 -108 355 -109Q364 -111 371 -111Q374 -131 376 -151ZM968 -35Q962 -27 952 -24Q941 -21 930 -18Q906 -9 896 1Q899 15 914 15Q932 13 949 11Q953 11 961 13Q950 17 935 22Q920 27 919 41Q920 44 920 46Q924 57 934 57H937Q929 63 925 85Q922 103 918 108H916Q907 108 902 112Q897 116 890 120Q881 118 869 118Q858 117 856 107H859Q869 108 878 108Q889 108 891 101Q887 91 875 87Q862 83 847 77Q836 71 827 65Q819 59 807 59Q801 59 798 60Q801 73 818 83Q837 94 840 102H837Q824 99 810 96Q799 77 773 51Q745 23 736 7Q723 0 709 -29Q712 -32 715 -36Q718 -39 718 -46Q736 -71 757 -71Q763 -71 766 -70Q775 -68 790 -55Q808 -39 817 -39H818Q828 -39 840 -52Q852 -65 862 -67V-65Q862 -61 855 -53Q850 -47 849 -43Q851 -34 861 -26H862Q868 -28 873 -31L876 -30Q878 -30 878 -26V-21Q878 -15 881 -14Q925 -24 968 -35ZM888 -83V-79Q888 -73 887 -70H885Q880 -69 875 -68H873V-70Q873 -73 872 -76V-78Q876 -81 888 -83ZM927 -610Q927 -593 914 -587Q913 -590 913 -597Q913 -611 922 -611Q925 -611 927 -610ZM733 -310Q751 -364 755 -410H751Q703 -393 684 -383Q646 -365 636 -357Q615 -341 607 -316Q607 -304 605 -268Q611 -277 616 -286Q620 -293 622 -304Q625 -318 629 -323Q647 -346 671 -351Q698 -356 718 -336Q722 -332 725 -324Q729 -314 733 -310ZM733 -310H732Q717 -313 702 -316Q695 -316 691 -311L692 -308Q693 -302 703 -295Q711 -290 713 -286V-282Q713 -275 707 -261Q699 -244 700 -235Q695 -184 695 -95Q695 -46 692 -26Q664 -1 592 47Q585 54 574 57H571Q587 32 618 11Q650 -11 671 -30H666Q654 -29 643 -21Q633 -13 623 -8Q607 0 581 14Q547 34 527 55Q516 64 516 74Q516 80 519 83Q524 81 536 74Q550 65 565 63V64Q564 73 551 78Q539 84 527 91Q518 101 508 110Q494 118 459 118H446Q423 109 417 92Q410 75 405 55Q400 42 386 29Q376 20 373 14Q388 16 393 20Q397 23 406 30Q412 29 412 24Q409 18 401 13Q388 1 376 -15Q367 -7 358 7Q344 28 336 34H335Q320 30 304 25Q297 25 292 30Q289 16 287 12Q283 3 276 1H275Q269 3 262 5Q259 5 256 1V0Q256 -3 259 -4Q263 -5 263 -7Q263 -12 257 -17Q252 -21 251 -25Q254 -29 256 -34H260Q268 -34 276 -26Q284 -18 290 -18Q293 -18 295 -19Q293 -32 284 -39Q275 -47 268 -55Q262 -63 255 -77Q245 -99 237 -106Q232 -103 232 -94Q234 -77 236 -61Q236 -56 235 -53Q226 -60 208 -91Q194 -79 185 -62Q176 -44 167 -25Q156 -6 144 13Q132 33 131 62V67Q128 71 125 73Q121 76 121 82L122 86Q116 81 112 72Q107 62 101 58Q94 53 78 50Q56 46 51 37Q43 21 43 -7V-20Q43 -55 55 -103Q60 -125 76 -175Q77 -172 77 -164Q75 -140 73 -116Q73 -98 82 -92Q85 -96 86 -113Q87 -132 91 -136Q89 -128 89 -125Q89 -111 98 -105Q130 -133 156 -168Q182 -203 209 -237Q200 -233 191 -230Q173 -245 155 -258Q136 -271 135 -297V-304Q138 -314 140 -325Q138 -350 128 -376Q125 -384 114 -394Q103 -404 101 -412Q106 -411 114 -404Q122 -397 128 -397Q131 -397 133 -398Q129 -404 118 -414Q99 -431 95 -441Q102 -439 112 -431Q127 -420 138 -419Q137 -426 127 -432Q117 -438 117 -447L120 -448Q130 -445 138 -439Q140 -461 156 -461Q170 -459 184 -457Q193 -458 231 -475Q270 -493 281 -495Q281 -488 274 -484Q267 -481 260 -478Q245 -473 231 -466Q217 -459 213 -442Q217 -441 223 -441Q241 -442 260 -453Q279 -464 296 -475Q321 -489 344 -498Q366 -508 380 -530H378Q358 -529 341 -517Q323 -506 308 -499V-504Q308 -516 329 -525Q338 -530 358 -545Q371 -553 386 -560Q400 -566 408 -576Q411 -570 413 -562Q415 -553 420 -551Q422 -551 426 -556Q433 -564 438 -564Q442 -564 444 -562Q436 -560 436 -546Q436 -535 442 -532H443Q447 -534 451 -536Q449 -531 449 -523Q449 -514 456 -499Q463 -484 463 -473Q463 -467 462 -463V-462Q462 -459 459 -457Q457 -455 456 -453Q458 -448 458 -439Q458 -428 447 -408Q460 -410 477 -426Q494 -442 509 -442Q518 -442 523 -440Q526 -439 532 -435Q542 -428 548 -428H550Q560 -428 583 -441Q608 -455 620 -455Q618 -468 617 -481Q615 -495 608 -503Q595 -499 582 -485Q571 -480 556 -480Q516 -480 508 -520Q503 -526 494 -533Q486 -539 483 -549Q482 -552 482 -558Q483 -566 483 -575Q481 -597 469 -610Q461 -619 438 -632Q441 -635 446 -635Q460 -630 473 -626L477 -627L478 -630Q478 -633 473 -636Q468 -639 468 -643V-645Q482 -646 501 -656Q522 -667 539 -667H545Q567 -678 579 -678Q582 -677 585 -677Q621 -698 662 -707Q674 -717 689 -717Q696 -717 699 -714Q668 -697 665 -696Q647 -687 628 -679Q621 -677 611 -675Q601 -673 597 -662Q602 -659 606 -659Q625 -662 643 -670Q701 -689 712 -693Q752 -708 776 -725Q769 -731 761 -731Q749 -729 736 -728H733Q735 -737 743 -739Q750 -741 758 -743Q770 -751 782 -759Q795 -764 809 -767Q823 -771 833 -779H834Q837 -778 839 -777H840Q837 -768 837 -767Q836 -764 834 -762H835Q842 -762 860 -771L861 -767Q861 -765 857 -763Q852 -760 852 -757V-755Q888 -765 899 -771Q898 -767 887 -758Q869 -744 869 -734Q869 -730 873 -722L877 -721Q883 -723 889 -725H890Q881 -705 877 -680Q877 -669 885 -662Q878 -653 876 -617Q850 -593 781 -577Q727 -564 705 -552Q710 -543 715 -535Q704 -506 703 -494Q712 -495 733 -505Q753 -515 766 -517Q768 -522 769 -527Q795 -543 829 -548Q843 -548 855 -539Q860 -540 864 -544Q871 -551 878 -551L881 -550Q880 -547 879 -544Q887 -547 899 -563Q908 -575 912 -578Q910 -570 904 -559Q898 -548 897 -535Q897 -528 899 -524Q901 -527 905 -537Q910 -551 917 -554Q912 -541 912 -526Q912 -496 930 -492Q938 -460 951 -438Q944 -437 944 -428Q943 -420 942 -413Q924 -408 918 -403Q913 -398 908 -386Q900 -369 891 -365L890 -369Q894 -381 897 -393Q897 -401 887 -401H886Q879 -401 873 -389Q870 -383 864 -366Q858 -364 852 -363Q835 -334 821 -281Q809 -235 804 -187Q803 -178 801 -170Q801 -163 807 -159Q826 -185 834 -222Q841 -260 852 -294Q863 -298 868 -308Q872 -318 879 -325Q882 -322 882 -317Q879 -304 876 -291Q864 -243 851 -202Q839 -161 834 -106H831Q828 -106 827 -103Q826 -98 825 -97H823Q818 -97 810 -90Q806 -86 801 -84Q787 -88 767 -92Q747 -95 734 -103Q733 -110 725 -128Q714 -152 714 -168Q716 -175 717 -182Q721 -219 724 -256Q724 -276 733 -310ZM605 -252Q599 -132 607 -82Q603 -80 587 -67Q574 -57 566 -56Q561 -56 536 -76Q524 -86 519 -93Q513 -100 502 -104Q502 -107 504 -107Q507 -107 508 -111V-112Q508 -127 501 -157Q495 -182 495 -199Q495 -209 496 -215Q502 -208 506 -178Q509 -152 521 -147Q529 -150 529 -159Q529 -164 527 -170Q524 -241 512 -269Q508 -284 498 -284Q494 -280 494 -269Q495 -259 495 -249V-245Q490 -246 484 -248Q480 -258 478 -272Q473 -276 468 -290Q463 -306 455 -309Q453 -312 451 -316Q445 -304 445 -296V-294L447 -291Q450 -293 453 -296L454 -295V-293Q453 -285 452 -277V-275Q457 -268 462 -262Q466 -248 470 -234Q474 -212 474 -208Q474 -196 462 -169Q434 -155 424 -110Q414 -65 404 -28Q391 -26 384 -21Q398 -9 435 11L436 10Q428 -3 420 -16L421 -18Q427 -18 441 -13Q457 -7 464 -7H466Q482 -7 530 -28Q603 -61 625 -80Q632 -151 629 -199Q629 -220 633 -225Q630 -228 632 -233Q634 -238 634 -241Q634 -244 628 -244Q629 -245 629 -250Q629 -254 624 -262Q615 -257 605 -252ZM449 -319Q438 -344 434 -350Q432 -377 443 -395L442 -399L440 -395Q428 -393 408 -380Q397 -373 387 -369Q391 -355 391 -350Q390 -329 371 -317Q353 -305 336 -292Q329 -286 312 -269Q303 -260 296 -252Q289 -243 288 -227Q268 -213 263 -193Q264 -190 265 -187V-186H269Q276 -187 282 -193Q288 -200 292 -205Q324 -239 364 -268Q365 -285 378 -294Q384 -298 406 -306Q412 -314 416 -326V-323Q416 -307 433 -304Q443 -310 449 -319Z"/>
</svg>