<svg xmlns="http://www.w3.org/2000/svg" viewBox="0 -800 1024 1024">
	<path fill="#000000" d="M171 -495V-511Q180 -515 184 -521Q186 -515 186 -513Q186 -497 171 -495ZM256 -235Q268 -238 287 -251Q304 -262 323 -269Q340 -274 358 -274L361 -273Q359 -270 357 -267V-266Q360 -265 364 -265Q367 -265 373 -267Q374 -266 375 -263Q375 -260 378 -260H381Q382 -260 403 -266Q387 -254 388 -245Q389 -239 405 -239H406V-237Q406 -225 395 -216Q384 -207 381 -199Q383 -192 384 -185Q360 -184 351 -181Q342 -178 325 -172Q318 -175 311 -175Q283 -170 262 -156Q267 -176 285 -178Q302 -181 315 -190H306Q243 -190 221 -152L225 -151Q234 -154 249 -158H253Q249 -149 242 -146Q234 -142 227 -138Q216 -130 205 -110Q192 -87 182 -80Q163 -86 149 -107Q144 -115 127 -147Q134 -154 134 -167V-173Q134 -180 135 -184Q138 -194 148 -203Q158 -212 165 -221Q176 -244 189 -262Q170 -261 138 -245Q121 -238 106 -231Q90 -225 82 -210Q32 -222 24 -308Q24 -314 23 -321Q23 -340 31 -352Q32 -354 53 -377Q80 -406 81 -408Q101 -433 117 -454Q134 -474 159 -489Q151 -471 128 -443Q105 -416 97 -398Q195 -476 259 -590Q245 -585 229 -563Q212 -538 198 -536V-538Q201 -552 215 -566Q245 -607 256 -626Q272 -650 272 -659Q272 -668 262 -671Q279 -682 296 -692Q314 -703 331 -704Q346 -704 360 -693Q364 -690 378 -661Q410 -597 414 -546Q383 -529 352 -512Q336 -502 325 -487Q314 -473 301 -458Q284 -442 266 -426Q249 -409 239 -388H241Q246 -388 250 -392Q254 -396 257 -397H263Q275 -397 291 -391Q299 -383 300 -353Q301 -326 306 -319Q294 -296 279 -277Q263 -259 251 -236Q254 -235 256 -235ZM420 -177Q420 -173 416 -171Q412 -168 408 -165Q397 -154 397 -142Q397 -140 404 -140Q401 -136 397 -126Q403 -116 407 -98L413 -73Q390 -46 333 -16Q263 20 247 33Q241 40 231 45Q227 45 225 44Q224 33 246 18Q266 4 266 -6Q234 11 216 24Q187 45 180 65Q181 66 185 66Q193 63 200 59Q208 56 215 53Q205 71 190 78Q145 90 108 54Q87 -19 127 -68Q128 -56 134 -51Q139 -47 145 -49Q176 -62 212 -82Q250 -97 278 -113Q313 -124 370 -153Q407 -172 420 -177ZM946 -167Q946 -191 954 -202Q960 -199 960 -193Q960 -184 946 -167ZM908 -625Q905 -606 896 -595Q893 -596 893 -604Q893 -611 896 -618Q900 -626 905 -626ZM566 -271V-273Q567 -277 567 -281Q568 -284 568 -288Q568 -294 564 -295Q560 -290 545 -287Q534 -284 530 -282Q529 -279 529 -273Q529 -266 532 -260Q534 -259 538 -259Q554 -263 566 -271ZM587 -388H580Q559 -388 544 -376Q527 -367 522 -350V-347H528Q558 -351 582 -362Q585 -375 587 -388ZM699 -305V-308Q699 -314 705 -320Q709 -324 710 -329Q707 -330 701 -330Q675 -327 649 -319Q646 -305 643 -292V-290Q664 -291 699 -305ZM736 -382Q745 -395 751 -412Q757 -429 763 -445Q732 -442 702 -435Q672 -429 670 -401Q677 -408 690 -408Q704 -405 717 -403Q727 -406 737 -410Q741 -410 744 -407Q737 -398 735 -388Q735 -384 736 -382ZM948 72V74Q946 90 928 105Q910 120 892 120H887Q856 120 809 91Q794 82 780 74Q766 65 761 52Q777 57 791 68Q809 77 815 77Q821 77 824 71V70Q824 62 788 38Q746 13 702 -8Q689 -17 677 -25Q665 -33 645 -34H640Q645 -22 657 -14Q669 -6 681 1Q693 7 705 14Q716 20 722 29Q708 28 687 14Q668 1 654 1H652Q642 -10 625 -16Q609 -22 594 -29Q582 -38 579 -38H576Q564 -36 551 17Q549 46 539 71Q534 78 521 84Q510 89 508 91Q502 98 495 105Q452 80 451 80Q444 73 440 47Q436 22 428 14L431 13Q436 14 440 14L443 13Q439 -3 417 -18Q398 -31 394 -41Q412 -38 424 -28Q435 -18 449 -10Q472 -23 487 -61Q482 -72 472 -76Q461 -81 451 -89Q428 -109 428 -151V-155L430 -156Q436 -153 442 -150Q454 -158 465 -167H472Q485 -167 501 -158Q513 -151 523 -149Q533 -167 535 -178Q533 -179 529 -179Q514 -175 504 -164Q473 -172 462 -181Q454 -205 437 -211Q438 -215 438 -222Q438 -235 430 -257Q421 -282 421 -292Q429 -290 434 -272Q439 -254 448 -251L454 -254Q452 -304 437 -332Q431 -345 421 -345Q419 -344 416 -344Q413 -343 413 -337Q414 -330 414 -324Q414 -320 413 -319Q405 -320 401 -327Q398 -334 394 -340Q386 -346 378 -353Q380 -362 380 -378V-392Q380 -399 382 -413Q383 -417 390 -429Q397 -441 397 -448V-451Q399 -450 403 -450Q408 -450 413 -458V-460Q411 -472 409 -485Q409 -488 410 -490Q417 -490 420 -481Q423 -472 429 -472H430Q432 -473 434 -475V-478Q431 -495 427 -512Q428 -514 428 -517Q437 -514 446 -499Q453 -488 458 -485Q462 -485 465 -486Q481 -485 490 -473Q499 -461 510 -454Q549 -470 581 -478Q581 -482 578 -512Q575 -512 571 -513Q554 -512 540 -503Q526 -493 514 -485Q504 -491 494 -496Q485 -500 477 -511Q473 -523 468 -535Q461 -547 451 -558Q440 -570 437 -587V-595Q437 -619 448 -632Q441 -643 441 -655Q441 -669 452 -682Q458 -689 475 -704Q485 -713 494 -723Q503 -733 514 -739L515 -736Q515 -731 507 -723Q501 -717 501 -713V-712Q502 -701 510 -701Q530 -707 550 -713Q558 -713 560 -707Q548 -701 545 -699Q537 -694 536 -685Q539 -678 548 -678Q571 -682 590 -692Q624 -702 661 -714Q697 -726 723 -743Q713 -749 702 -749Q692 -749 665 -740Q650 -735 636 -730Q622 -724 604 -724H601Q622 -740 681 -757Q740 -774 763 -791H765Q769 -791 769 -787Q777 -789 784 -791Q789 -777 806 -777Q827 -779 847 -782H850Q820 -769 820 -750Q820 -742 825 -736Q838 -737 853 -742Q871 -748 884 -748H887Q876 -739 860 -732Q845 -725 843 -709H844Q848 -709 852 -712Q861 -718 867 -718H871Q864 -710 856 -704Q847 -697 846 -684V-679L848 -678Q854 -679 859 -681Q862 -681 864 -679Q853 -670 843 -635Q833 -602 821 -592Q820 -591 814 -591Q807 -591 807 -587V-586Q805 -587 801 -587Q784 -583 766 -574Q742 -567 717 -563Q692 -558 674 -545Q678 -531 682 -518Q699 -525 732 -533Q776 -543 793 -556Q805 -567 817 -576Q829 -586 846 -590Q852 -588 857 -584Q864 -578 869 -578Q874 -578 879 -584Q885 -590 892 -590Q892 -589 889 -571Q898 -573 911 -581Q922 -588 929 -590Q928 -587 920 -576Q909 -562 909 -553Q909 -547 913 -542Q916 -543 920 -549Q925 -557 932 -557Q928 -548 928 -536Q928 -514 942 -506Q941 -503 941 -498Q945 -477 949 -463Q944 -452 940 -439V-437Q924 -434 916 -422Q916 -419 919 -419Q922 -419 922 -416V-415Q906 -412 898 -400Q890 -389 880 -380Q878 -382 878 -387Q882 -401 886 -415Q886 -420 880 -425Q863 -423 857 -410Q851 -398 844 -386Q838 -388 836 -388Q835 -388 831 -386Q817 -378 805 -352Q805 -351 787 -308Q778 -285 775 -274Q769 -256 769 -253Q769 -246 775 -242Q791 -257 797 -280Q808 -304 821 -317L830 -314Q836 -316 842 -327Q849 -341 859 -341Q844 -304 827 -269Q809 -234 801 -188Q797 -180 783 -170Q773 -163 769 -158Q757 -159 742 -166Q725 -174 713 -175Q710 -182 701 -193Q690 -206 687 -216Q672 -215 654 -214Q637 -214 624 -205Q609 -193 606 -172Q603 -151 597 -131Q599 -131 600 -128Q611 -125 619 -118Q632 -114 645 -114Q658 -114 666 -103Q699 -95 751 -78Q812 -58 849 -50Q867 -59 881 -82Q884 -87 904 -124Q907 -130 911 -138Q914 -145 923 -147Q914 -127 905 -107Q895 -88 890 -62Q902 -72 917 -107Q932 -144 945 -155Q939 -127 926 -103Q914 -68 911 -46Q920 -52 923 -63Q925 -75 929 -86Q931 -89 951 -121Q951 -105 941 -79Q930 -51 930 -31V-26Q930 -11 937 26Q945 53 948 72Z"/>
</svg>