<svg xmlns="http://www.w3.org/2000/svg" viewBox="0 -800 1024 1024">
	<path fill="#000000" d="M158 -335H149Q148 -339 146 -343V-345Q157 -346 164 -351L166 -348Q166 -346 163 -343Q158 -339 158 -336ZM753 62V64Q751 65 748 65Q736 65 734 54Q737 49 741 49Q752 50 753 62ZM861 -147Q859 -131 851 -123Q846 -128 846 -135Q846 -150 855 -150Q858 -150 861 -147ZM583 -138L590 -149Q615 -168 615 -171V-172Q574 -161 559 -146Q571 -142 583 -138ZM257 -304H242Q244 -308 245 -313Q240 -324 222 -324Q198 -324 186 -310L185 -313Q185 -319 200 -326Q212 -332 215 -336Q210 -348 174 -348Q180 -354 190 -359Q200 -364 202 -375V-376Q202 -382 194 -389Q184 -397 183 -404Q187 -404 198 -398Q208 -393 214 -392Q216 -398 216 -400Q216 -407 207 -418Q197 -430 196 -438Q207 -434 220 -418Q229 -406 235 -402Q250 -415 250 -429H251Q257 -429 258 -418Q259 -409 264 -408Q274 -411 278 -420H279L281 -418V-413Q308 -386 318 -373Q342 -342 342 -316Q342 -308 341 -304Q336 -283 315 -283Q285 -287 259 -298Q258 -301 257 -304ZM886 25V27Q887 36 899 53Q909 68 909 77Q908 82 901 88Q894 93 891 98Q889 104 886 110Q872 123 858 131Q812 130 777 100Q760 85 760 75Q768 76 784 88Q799 99 808 99Q816 99 821 95Q815 77 798 67Q781 57 765 45Q738 21 709 -3Q680 -28 642 -42Q643 -31 652 -27Q662 -22 671 -17Q687 -3 701 12Q709 18 718 25Q726 31 727 41Q697 21 670 0Q641 -20 612 -40Q549 4 521 64H517Q499 64 480 51V48Q477 36 474 24Q474 21 476 17Q463 0 433 -5Q434 -9 443 -9H453Q445 -21 426 -21Q407 -22 389 -24Q399 -31 416 -32Q433 -32 447 -34Q435 -45 401 -45Q381 -44 361 -44Q352 -44 338 -46Q339 -52 349 -52H355Q399 -58 449 -63Q499 -68 525 -93Q520 -104 513 -109H509Q474 -109 442 -152Q444 -157 444 -166Q441 -188 438 -210Q439 -214 439 -218Q442 -230 452 -237Q461 -243 470 -250Q472 -262 472 -269Q483 -261 492 -250V-247Q492 -211 523 -211Q544 -211 580 -226Q606 -232 630 -246Q635 -250 635 -252Q635 -255 624 -255Q593 -253 583 -250Q546 -243 538 -241Q544 -251 557 -255Q570 -259 583 -263Q614 -274 638 -278Q629 -297 629 -318Q630 -345 639 -371Q647 -398 654 -422Q631 -411 626 -389Q622 -388 617 -388Q613 -388 611 -390Q587 -359 587 -309V-301Q587 -269 571 -269H570Q553 -269 537 -276Q531 -280 528 -285Q521 -289 503 -292Q483 -289 463 -287Q467 -298 475 -301Q484 -304 491 -310Q505 -325 511 -347Q517 -370 527 -390Q525 -393 525 -398Q527 -405 537 -414Q542 -423 547 -433Q560 -446 579 -446Q590 -446 605 -441Q633 -462 651 -480Q611 -477 553 -451Q551 -446 549 -441L550 -438Q530 -424 519 -403Q507 -383 494 -360Q474 -329 453 -298Q447 -286 433 -266Q423 -251 412 -237V-228Q412 -225 411 -223Q401 -204 386 -184Q352 -128 318 -69V-71Q319 -95 330 -114Q341 -133 352 -150Q374 -187 389 -229Q376 -224 371 -213Q366 -203 361 -192Q343 -166 324 -140Q291 -87 254 -33Q242 -15 231 1Q220 16 219 37Q219 41 221 51Q233 46 246 26Q261 4 276 0Q269 27 257 49Q245 72 233 94H215Q206 94 204 97Q186 88 168 83Q162 78 156 62Q148 43 141 38Q140 36 140 29V18Q136 12 125 11L126 7Q123 -2 120 -11V-12Q120 -17 125 -26Q129 -33 129 -38V-39Q124 -56 106 -74Q94 -91 82 -108Q74 -114 71 -121L72 -124H74Q81 -124 85 -118Q89 -112 93 -106Q128 -64 155 -51Q155 -61 140 -74Q124 -88 122 -99Q134 -95 152 -80Q166 -69 174 -65Q216 -110 254 -156Q239 -151 224 -146Q221 -145 216 -139Q208 -130 204 -129H201Q184 -131 175 -150Q166 -168 156 -183Q141 -198 137 -213Q137 -224 146 -240Q154 -255 154 -261Q154 -265 153 -267Q169 -249 199 -249H205Q243 -250 321 -278Q355 -293 374 -328Q394 -364 415 -392Q397 -388 378 -384H376Q357 -385 348 -398Q344 -404 334 -430Q327 -442 319 -454Q318 -458 318 -465Q318 -484 337 -511Q330 -526 322 -542V-550Q323 -578 338 -594Q352 -609 364 -626V-609Q375 -604 388 -604Q399 -604 421 -610Q440 -615 451 -615Q460 -615 469 -612Q463 -607 429 -598Q401 -591 396 -574Q404 -571 411 -568Q430 -579 474 -592Q519 -605 534 -614Q532 -622 525 -624Q518 -626 512 -628Q512 -643 528 -643Q522 -662 518 -690Q513 -718 495 -725Q493 -725 490 -726Q483 -726 472 -714Q461 -701 450 -700Q453 -715 474 -732Q493 -747 497 -761Q552 -802 590 -815H593Q618 -794 639 -770Q661 -747 682 -723Q678 -716 673 -710Q667 -704 667 -693V-689Q670 -687 678 -687Q687 -687 689 -683Q688 -677 677 -672Q665 -666 664 -659Q667 -654 672 -654Q680 -657 688 -660Q701 -662 714 -664Q727 -665 733 -678Q731 -686 715 -686H710Q710 -694 716 -696Q721 -699 727 -702Q736 -710 747 -714Q748 -705 751 -699Q754 -698 758 -698Q765 -698 779 -704Q788 -708 794 -708Q797 -708 801 -706Q793 -700 783 -694Q773 -688 772 -678Q772 -677 774 -671H776Q784 -674 791 -678L795 -677V-676Q795 -673 789 -668Q781 -661 780 -657Q790 -637 799 -617Q805 -618 810 -620H812L813 -618Q813 -616 808 -612Q801 -607 801 -605Q801 -575 814 -558Q796 -538 796 -519Q771 -513 745 -507Q748 -498 756 -486Q764 -475 766 -468Q756 -453 751 -433Q747 -412 742 -392Q782 -398 809 -407Q815 -415 815 -438V-454Q820 -451 821 -437Q822 -426 824 -422Q829 -426 829 -436Q826 -459 822 -483Q822 -493 827 -498Q832 -479 836 -460Q841 -441 854 -430Q857 -431 862 -431Q874 -428 885 -425Q890 -425 897 -429Q891 -421 891 -412Q894 -386 916 -376Q916 -373 915 -371Q915 -365 921 -357Q925 -352 926 -348Q914 -345 914 -324Q894 -308 862 -304Q830 -301 805 -298Q809 -305 820 -309Q823 -310 841 -314Q869 -320 873 -336Q867 -337 856 -337Q813 -337 742 -306V-304Q743 -300 744 -297Q748 -295 751 -295Q756 -295 761 -296Q768 -296 769 -291Q766 -283 758 -280Q751 -277 745 -272Q751 -243 772 -235Q770 -230 768 -226L771 -224Q775 -226 779 -228L780 -226Q779 -217 767 -210Q755 -203 755 -193Q755 -189 756 -186Q726 -171 706 -146Q687 -120 666 -96Q727 -51 798 -19Q806 -23 809 -45Q811 -64 817 -69Q820 -64 820 -44Q820 -21 827 -14Q830 -33 830 -61Q830 -71 827 -134Q826 -143 825 -152Q825 -161 830 -161L834 -160Q837 -126 838 -81Q839 -36 849 -3Q853 -10 853 -22Q853 -34 849 -58Q847 -74 844 -90Q844 -102 854 -105Q858 -56 861 -36Q865 -10 866 -5Q870 11 879 17L880 14V9L882 6Q887 10 887 15Q887 20 886 25Z"/>
</svg>