<svg xmlns="http://www.w3.org/2000/svg" viewBox="0 -800 1024 1024">
	<path fill="#000000" d="M463 -526V-523Q456 -519 448 -516Q446 -520 446 -521Q449 -528 451 -535H461Q463 -531 463 -526ZM894 -202Q894 -186 886 -175Q879 -180 879 -192Q879 -205 887 -205Q890 -205 894 -202ZM297 -158V-161Q274 -158 234 -138Q208 -126 202 -122Q188 -112 188 -100Q188 -90 196 -79Q212 -86 230 -94Q247 -102 267 -103Q276 -103 285 -100Q293 -129 297 -158ZM316 -247H318Q322 -279 331 -321Q296 -317 260 -295Q207 -270 199 -264Q173 -247 173 -229Q173 -221 177 -214Q206 -226 236 -237Q266 -248 284 -265Q283 -260 281 -255L282 -253H284Q290 -257 302 -261H303Q305 -247 316 -247ZM789 -258H799Q818 -258 827 -262Q826 -275 818 -283Q813 -287 795 -299Q785 -307 774 -316Q760 -323 754 -323Q747 -323 746 -316V-313Q746 -306 761 -297Q780 -286 780 -274V-271Q755 -278 737 -300Q727 -312 709 -346Q699 -366 699 -383Q699 -414 732 -415H734Q760 -410 785 -405H789Q798 -408 807 -412H808Q807 -410 807 -407Q808 -401 813 -399Q819 -398 823 -396Q828 -400 832 -405Q836 -411 845 -412Q839 -402 835 -392Q835 -388 839 -384Q850 -394 861 -404Q872 -415 891 -417Q855 -395 848 -372L854 -362L938 -381Q918 -372 899 -366Q880 -360 870 -342Q874 -330 892 -324Q880 -315 880 -284Q880 -262 888 -255Q876 -255 863 -244Q852 -235 844 -233Q840 -226 839 -214Q833 -232 817 -239Q801 -246 789 -258ZM928 57V60Q928 88 900 119Q897 120 893 120Q877 118 860 115Q856 115 850 117Q842 104 816 91Q796 81 789 74Q778 58 767 41Q760 33 751 26Q742 18 741 6Q756 9 766 21Q776 33 787 44Q807 63 810 65Q823 75 835 75H839Q828 55 810 41Q792 27 776 12Q761 -4 747 -21Q733 -39 713 -51Q714 -44 723 -33Q732 -22 732 -14Q732 -11 731 -9H730Q721 -11 712 -22L675 -57Q664 -69 656 -75Q642 -67 626 -51Q598 -28 583 -11Q561 14 553 40L550 39Q544 41 538 43Q529 39 520 34H514Q502 35 490 35H482Q479 24 471 18Q464 11 457 3V-3Q457 -25 448 -54Q461 -69 464 -92H466Q468 -90 470 -89Q476 -96 476 -112Q474 -134 472 -157Q478 -151 482 -131Q488 -105 500 -101Q516 -116 532 -120L533 -117Q533 -114 527 -106Q519 -95 519 -91L520 -88Q534 -90 556 -112Q562 -118 570 -130Q567 -130 564 -131Q557 -131 549 -124Q544 -120 542 -120H541Q542 -132 550 -138Q558 -143 564 -151Q539 -169 535 -205Q540 -216 567 -216Q605 -215 621 -198Q633 -204 640 -214Q647 -225 654 -235Q649 -250 649 -264Q649 -282 659 -292Q676 -305 700 -305Q717 -305 725 -298Q742 -285 752 -250Q767 -198 768 -196Q732 -180 718 -135Q775 -82 832 -51Q839 -54 839 -62V-64Q842 -63 844 -58Q847 -51 850 -51Q859 -61 862 -78Q864 -95 866 -114Q870 -104 872 -78Q874 -43 883 -34Q884 -39 884 -49Q881 -90 877 -131Q877 -146 880 -158Q887 -157 887 -149Q887 -144 886 -139Q892 -82 898 -25Q905 -28 905 -41Q905 -50 904 -60Q906 -84 906 -98V-106Q921 -16 921 0V2Q920 8 919 14Q925 35 928 57ZM356 80H353Q345 80 338 75Q332 71 330 71L327 72Q296 35 279 9H268Q263 9 263 12V15Q259 13 253 13Q244 13 240 14Q240 4 252 -1Q267 -7 269 -10Q259 -15 244 -15Q229 -15 219 -10Q206 -4 205 6Q206 11 212 11Q218 10 222 12Q215 22 206 29Q196 36 193 50H188Q178 50 169 59V50Q159 47 150 30Q140 12 130 9Q129 -5 126 -11Q122 -20 111 -20Q120 -35 120 -54Q120 -67 111 -112Q102 -164 88 -202Q73 -242 72 -243Q57 -259 49 -276Q47 -288 47 -294Q47 -320 63 -339Q76 -354 103 -369H117Q124 -393 128 -420Q132 -448 145 -466Q144 -469 143 -473V-475Q148 -482 152 -498Q157 -520 164 -525Q167 -517 167 -508Q167 -498 163 -480Q155 -455 151 -425Q151 -418 152 -415Q163 -430 169 -457Q181 -500 195 -544Q202 -562 204 -578Q204 -582 202 -588Q190 -580 184 -567Q179 -553 171 -543Q167 -551 167 -562Q171 -594 180 -621Q178 -627 178 -638Q178 -664 199 -681Q219 -697 248 -697Q257 -697 261 -696Q287 -668 299 -649Q315 -623 324 -588Q329 -563 329 -559Q329 -550 325 -543Q321 -537 303 -525Q291 -517 284 -510Q261 -485 249 -453Q236 -422 223 -393Q225 -392 228 -392Q239 -395 246 -402Q259 -410 287 -421Q325 -436 340 -447Q347 -452 357 -464Q371 -480 380 -484Q380 -481 379 -478Q379 -472 383 -468H389Q407 -470 420 -484Q433 -498 445 -505Q437 -486 434 -466Q434 -462 435 -459Q441 -460 446 -470Q451 -481 460 -481H461V-479Q461 -473 454 -464Q445 -452 445 -442V-439H446Q448 -439 450 -444Q452 -450 455 -450H456Q459 -448 459 -445Q457 -438 454 -432Q456 -417 467 -405Q478 -393 487 -385Q489 -356 500 -351Q521 -360 537 -362Q524 -375 514 -387Q503 -398 493 -417Q479 -439 470 -471Q487 -520 506 -537L508 -535Q507 -532 506 -530L508 -528Q512 -527 516 -527Q532 -527 568 -540Q600 -552 615 -553Q612 -597 610 -640Q606 -670 579 -675V-677Q580 -682 580 -687V-690Q576 -696 569 -696Q557 -693 544 -690Q598 -782 648 -801L651 -802Q658 -802 670 -789Q687 -771 697 -771H700L719 -744Q729 -730 738 -717Q740 -712 740 -701Q740 -685 727 -658Q712 -626 712 -609Q712 -598 715 -588H717Q726 -588 738 -597Q748 -604 753 -606Q759 -608 771 -608Q791 -607 810 -606Q823 -606 832 -610L834 -609Q831 -607 828 -600L829 -597Q831 -595 836 -595Q849 -599 862 -604Q859 -599 849 -595Q841 -592 838 -588V-582Q838 -573 842 -570H844Q849 -571 854 -572Q858 -572 860 -571Q850 -567 850 -547Q850 -532 856 -526Q839 -522 836 -501Q838 -496 843 -496H845Q837 -486 837 -466Q837 -455 839 -451Q776 -429 707 -417Q690 -411 672 -409H667Q686 -433 721 -439Q757 -445 786 -457Q784 -466 766 -466H756Q732 -464 709 -454Q685 -445 660 -436Q634 -429 611 -423Q587 -417 577 -400Q581 -395 589 -395Q606 -399 628 -404Q635 -404 639 -402Q628 -391 593 -376Q569 -366 556 -356Q560 -345 571 -341Q582 -336 592 -331Q603 -339 617 -342H621Q606 -331 606 -318Q606 -313 607 -310L608 -309Q611 -310 613 -312H614Q613 -289 610 -263Q607 -237 585 -230H583Q575 -231 566 -232Q561 -232 556 -229Q512 -252 500 -262Q494 -286 488 -310Q464 -302 448 -272Q439 -256 425 -213Q419 -225 419 -236Q420 -255 431 -273Q441 -290 447 -306Q442 -310 436 -310Q425 -310 415 -296Q406 -283 405 -267Q374 -234 369 -172Q364 -111 364 -51Q380 -70 387 -102Q394 -134 401 -163Q403 -172 405 -181Q407 -191 416 -193V-183Q412 -126 399 -64Q390 2 380 68Q369 79 364 88Q356 86 356 80Z"/>
</svg>