<svg xmlns="http://www.w3.org/2000/svg" viewBox="0 -800 1024 1024">
	<path fill="#000000" d="M852 -137Q844 -133 837 -133Q831 -133 828 -137Q832 -144 842 -144Q851 -144 852 -137ZM560 -676H557Q557 -678 556 -681Q557 -692 566 -693Q570 -693 572 -692Q568 -676 560 -676ZM564 7H560Q545 7 539 -2Q542 -6 547 -6Q560 -4 564 7ZM929 -431Q927 -437 927 -440Q929 -455 939 -456Q946 -456 946 -446Q945 -440 940 -437Q935 -434 929 -431ZM729 116H725Q687 114 668 93Q650 72 629 52L632 51Q639 53 645 55H646Q631 28 576 9Q579 8 585 8Q607 12 628 19Q613 9 523 -41Q545 -40 582 -21Q612 -5 632 -2Q631 -7 605 -21Q608 -24 611 -24Q620 -21 628 -18Q634 -18 645 -25Q654 -31 659 -32Q663 -65 666 -98L662 -99Q658 -99 646 -93Q645 -95 645 -98Q645 -101 650 -106Q655 -111 656 -114Q649 -118 641 -118Q622 -115 602 -108Q586 -105 582 -103Q573 -99 573 -89Q575 -87 576 -86Q595 -90 622 -95Q633 -95 640 -89Q614 -89 607 -78Q592 -77 578 -69Q568 -64 555 -54Q547 -58 535 -60Q523 -62 517 -66Q510 -73 502 -81Q495 -90 483 -93Q480 -102 480 -111Q480 -134 496 -138Q492 -146 492 -154Q492 -176 520 -184H517Q504 -184 495 -193Q492 -196 480 -214Q463 -235 459 -254V-257H460Q464 -255 467 -254H468V-260Q468 -277 449 -297Q435 -312 432 -321Q424 -320 417 -315Q421 -332 436 -334Q452 -336 463 -346Q459 -352 451 -352Q446 -352 425 -344Q390 -330 387 -330Q385 -326 385 -324Q387 -314 388 -305Q387 -292 385 -280V-277Q391 -263 400 -258Q402 -258 404 -262Q407 -267 411 -267H414Q418 -267 418 -264L417 -260Q426 -269 435 -278Q430 -268 430 -252Q430 -241 431 -236Q434 -230 443 -230Q450 -230 453 -233L454 -230Q451 -222 444 -212Q448 -191 463 -189Q446 -163 446 -138V-134L445 -131Q442 -134 438 -137H437Q421 -130 411 -130Q398 -130 387 -142Q384 -133 384 -119Q385 -101 385 -84Q386 -74 386 -65Q386 -55 381 -51Q375 -60 374 -91Q373 -124 364 -132Q359 -128 359 -118Q360 -106 360 -95V-90Q357 -45 357 -37Q357 2 372 16Q377 13 379 -4Q380 -19 385 -23V-17Q388 5 391 26Q391 31 390 33Q387 44 377 48Q366 52 358 59Q329 52 312 26Q296 2 296 -33Q296 -40 298 -54Q291 -68 280 -75Q291 -82 301 -89Q299 -101 299 -108Q299 -119 307 -164Q286 -148 269 -125Q252 -102 235 -78Q204 -35 202 -32Q184 -2 182 27Q178 32 173 35Q167 38 167 46V49Q162 44 151 44Q147 44 137 46Q120 31 105 12Q106 6 106 -4Q106 -23 95 -33Q103 -48 114 -60Q111 -69 102 -82Q90 -99 89 -111Q99 -100 109 -90Q120 -79 137 -78H139Q192 -130 216 -158Q255 -204 281 -251Q233 -230 200 -207Q200 -209 199 -212Q199 -224 213 -233Q246 -250 278 -267Q275 -273 270 -273Q264 -273 250 -266Q235 -261 167 -233Q154 -228 143 -218Q130 -207 130 -197Q130 -189 139 -182Q148 -188 158 -188Q163 -188 167 -185Q159 -172 151 -159Q138 -140 125 -140Q109 -141 96 -159Q83 -177 71 -194Q65 -201 57 -209Q49 -216 47 -224V-227Q50 -241 52 -255V-258Q48 -276 43 -294V-304Q43 -360 71 -368L75 -369Q82 -368 88 -367L92 -368Q121 -369 148 -377Q174 -386 203 -393Q181 -413 164 -435H163Q159 -435 155 -430Q151 -426 150 -426H149Q149 -437 157 -449Q149 -466 129 -466Q121 -466 111 -461Q117 -474 139 -481Q139 -500 134 -509Q132 -514 118 -515Q105 -516 102 -521Q105 -525 113 -525Q122 -524 131 -524H136Q146 -537 146 -556Q146 -566 145 -570Q149 -568 155 -559Q159 -552 164 -550Q179 -550 192 -563Q211 -546 216 -544H218Q225 -545 231 -547Q235 -528 253 -499Q275 -465 275 -438Q275 -430 274 -425Q276 -421 278 -418Q300 -425 321 -432Q319 -442 319 -447Q322 -469 324 -491V-493Q323 -521 311 -543Q300 -565 289 -584Q295 -612 315 -629Q334 -645 360 -645Q372 -645 382 -642Q389 -630 392 -618Q392 -614 390 -611Q385 -611 379 -617Q372 -623 366 -623H363Q360 -623 360 -620Q360 -617 358 -617Q359 -611 372 -582Q385 -553 393 -553Q398 -553 401 -564V-567Q399 -580 396 -593Q396 -595 398 -599Q410 -594 413 -581Q417 -567 422 -554Q428 -569 432 -584Q438 -591 443 -594Q448 -597 449 -606V-608Q449 -616 444 -629Q438 -644 438 -653H440Q455 -653 474 -666Q490 -677 503 -677H506Q526 -676 537 -656Q547 -638 547 -611Q547 -596 542 -579Q559 -593 576 -608V-606Q575 -600 573 -594Q579 -593 592 -593H620Q617 -585 609 -583Q598 -581 597 -570Q597 -566 598 -563Q610 -559 625 -559Q664 -559 718 -593Q711 -601 697 -601Q675 -598 652 -591V-593Q652 -603 668 -609Q669 -610 697 -616Q719 -624 741 -632Q724 -631 706 -631Q674 -631 668 -647Q662 -647 655 -648H652Q653 -650 653 -653Q653 -658 643 -668Q629 -663 622 -657Q623 -675 638 -679Q632 -691 626 -704Q623 -704 620 -705Q600 -701 588 -695Q602 -711 625 -723Q623 -727 622 -732Q622 -737 616 -737H614Q617 -742 626 -749Q636 -758 640 -764Q640 -768 635 -786L637 -787Q639 -787 643 -784Q648 -780 652 -780Q655 -786 658 -792Q693 -784 711 -768Q708 -766 702 -766Q694 -766 686 -767Q680 -767 678 -765Q690 -750 733 -745Q736 -738 738 -729Q739 -720 745 -716Q751 -723 751 -732Q751 -752 733 -770H736Q741 -770 746 -771H749Q755 -755 760 -740Q762 -740 772 -745L773 -743Q773 -740 764 -731Q772 -704 775 -681V-676Q773 -661 762 -651Q752 -642 743 -633Q778 -642 809 -656Q839 -670 872 -685Q870 -682 865 -661Q865 -654 872 -651Q874 -651 880 -657Q886 -664 892 -664Q895 -664 899 -662Q875 -648 875 -634Q875 -630 878 -624Q886 -627 893 -630Q884 -621 884 -603Q885 -584 886 -565Q886 -547 879 -539Q870 -530 853 -526Q835 -522 820 -519Q707 -487 652 -453Q583 -444 563 -405Q561 -404 558 -404Q544 -405 539 -417Q534 -429 530 -440Q517 -455 509 -472Q508 -475 508 -481Q508 -497 519 -521Q530 -545 530 -556V-561Q509 -546 490 -531Q470 -516 459 -492L462 -490Q467 -490 471 -491H474V-488Q474 -485 480 -479Q484 -484 505 -491V-489Q501 -476 492 -467Q498 -455 504 -455L508 -456Q503 -448 503 -428Q503 -410 506 -401Q499 -387 499 -384Q499 -379 503 -375Q487 -367 487 -343V-339Q473 -331 437 -321Q460 -296 475 -296H478Q489 -297 509 -324Q528 -350 540 -350Q543 -350 545 -349Q543 -343 533 -333Q519 -319 519 -309Q519 -303 521 -299Q562 -344 581 -377Q578 -380 574 -380Q566 -377 558 -374Q561 -381 566 -389Q575 -402 576 -410Q594 -425 610 -427Q615 -427 617 -426Q627 -423 638 -400Q649 -378 649 -363V-362Q649 -354 643 -342Q639 -334 639 -330Q639 -324 647 -320Q651 -320 654 -324Q656 -327 659 -327Q657 -317 655 -312Q661 -300 661 -286Q659 -249 634 -234V-231Q635 -227 635 -224Q631 -236 611 -246Q595 -254 590 -260Q549 -235 542 -188Q607 -188 665 -206Q664 -215 664 -236Q665 -274 665 -312V-335Q663 -364 661 -394Q661 -438 690 -446Q706 -452 727 -452H733Q762 -446 762 -375Q762 -366 761 -357Q778 -395 780 -404Q794 -444 794 -456Q792 -470 790 -484Q790 -492 795 -498Q821 -509 841 -509Q869 -464 869 -422Q855 -417 852 -401Q858 -390 872 -386Q885 -382 897 -377Q912 -396 924 -420V-418Q921 -396 912 -375Q917 -380 921 -389Q926 -397 932 -398Q923 -375 923 -366V-363L925 -362Q929 -366 932 -371Q932 -363 931 -355Q931 -331 946 -329V-325Q945 -302 934 -288Q922 -275 912 -261H910Q893 -262 884 -272Q874 -283 864 -297Q854 -308 843 -318Q832 -328 825 -343Q804 -327 797 -269Q794 -268 785 -264Q781 -266 777 -272Q772 -279 769 -280H768Q764 -279 762 -276Q760 -272 759 -272H758Q756 -276 756 -277Q758 -282 760 -288Q757 -291 756 -291Q750 -292 750 -272Q751 -253 752 -235Q752 -231 751 -228Q837 -242 923 -257Q918 -254 910 -250Q901 -247 900 -241Q900 -239 905 -234L907 -233Q915 -236 923 -240Q922 -238 918 -235Q914 -232 914 -228Q920 -225 921 -210Q922 -196 927 -191Q921 -186 921 -176Q921 -173 923 -167Q914 -166 910 -159Q908 -156 905 -145Q885 -141 865 -138Q866 -146 881 -150Q894 -154 896 -161Q892 -164 888 -167Q835 -166 814 -162Q776 -155 761 -134Q767 -132 771 -132Q786 -134 800 -136Q808 -136 813 -132L752 -116Q749 -108 749 -95V-88Q749 -76 748 -71Q742 -72 741 -79Q740 -85 739 -90Q729 -87 729 -70Q730 -61 730 -53Q730 -41 736 13V18Q735 31 734 44Q734 54 743 58Q750 47 750 29Q749 8 747 -14Q747 -28 751 -39Q755 -26 759 2Q765 40 772 56Q760 71 747 83Q734 95 729 116Z"/>
</svg>