<svg xmlns="http://www.w3.org/2000/svg" viewBox="0 -800 1024 1024">
	<path fill="#000000" d="M67 -346V-330Q59 -336 59 -348Q59 -356 62 -358L65 -356Q67 -353 67 -346ZM291 -159Q307 -169 309 -193Q311 -218 316 -238L315 -239Q309 -230 298 -222Q288 -214 285 -202Q285 -199 284 -196Q288 -177 291 -159ZM870 -689V-687Q867 -676 858 -669Q855 -670 851 -671H849Q852 -687 870 -689ZM685 -306V-303Q685 -299 689 -293Q700 -300 721 -300Q747 -300 762 -290Q762 -295 769 -304Q775 -313 775 -317L774 -320Q724 -318 685 -306ZM522 -238V-225Q536 -239 551 -239Q566 -239 577 -225Q597 -237 603 -239Q600 -263 595 -288Q535 -283 518 -254Q522 -250 522 -238ZM691 -86Q692 -115 692 -145Q692 -201 682 -230Q661 -215 661 -167Q662 -139 663 -112Q663 -100 661 -84Q667 -82 670 -82Q681 -84 691 -86ZM614 -363H617Q626 -364 634 -365Q642 -385 651 -406Q659 -426 661 -453H658Q653 -453 651 -450Q648 -447 645 -444V-446Q645 -452 650 -458Q655 -463 655 -468Q599 -456 599 -436Q599 -430 605 -423H606Q608 -423 611 -427Q615 -432 618 -432Q611 -422 611 -404Q611 -402 614 -363ZM442 -345Q462 -338 481 -332Q486 -334 544 -348Q514 -370 514 -395Q514 -409 524 -420Q521 -422 498 -435Q497 -449 481 -466Q465 -484 465 -499Q465 -505 468 -516Q476 -527 483 -539Q485 -550 486 -561Q491 -573 506 -584Q519 -593 532 -597Q532 -592 528 -587Q524 -583 524 -581Q534 -579 539 -579Q553 -579 578 -590Q605 -602 622 -602H624Q620 -636 613 -667Q606 -698 578 -708Q577 -712 577 -719Q579 -746 599 -761Q619 -776 637 -789Q638 -806 667 -806Q679 -806 688 -803Q693 -797 706 -788Q725 -774 731 -764L733 -762Q732 -759 731 -756V-755Q734 -748 747 -735Q748 -731 748 -724Q748 -700 732 -700L728 -701Q730 -713 736 -723Q729 -734 723 -746Q716 -758 706 -765Q697 -760 697 -753Q702 -737 707 -719Q707 -709 700 -693Q692 -674 692 -668Q692 -658 700 -651Q705 -654 709 -668Q715 -687 726 -687Q726 -679 719 -666Q710 -648 710 -636V-632Q730 -640 766 -662L767 -659Q765 -654 763 -649V-647Q766 -642 769 -641Q787 -648 804 -655Q821 -663 842 -666Q839 -659 823 -651Q804 -641 804 -630H805Q821 -634 836 -641V-639Q836 -634 827 -626Q818 -618 818 -612Q818 -609 821 -605Q828 -609 837 -611H840V-609Q840 -604 835 -600Q831 -597 830 -594Q829 -590 829 -581Q829 -564 833 -555Q814 -518 768 -507Q786 -487 786 -450Q764 -443 746 -422Q740 -415 717 -381Q732 -385 768 -387Q795 -390 817 -400Q839 -410 860 -417Q867 -419 880 -419Q895 -419 905 -414L928 -423V-421Q926 -417 924 -413L926 -410Q936 -424 951 -431V-429Q951 -426 946 -417Q938 -403 938 -396V-393Q941 -394 943 -399Q946 -406 952 -406H953Q949 -399 949 -388Q949 -367 966 -335V-332Q966 -321 959 -299Q955 -286 954 -279Q938 -275 922 -272L921 -276Q921 -283 934 -288Q947 -293 948 -299Q947 -302 945 -306H936Q900 -306 870 -286Q840 -266 833 -234Q844 -236 857 -248Q873 -262 884 -262Q890 -262 893 -261Q877 -246 856 -233Q836 -220 825 -197Q810 -200 795 -203Q785 -191 780 -171H779Q775 -171 771 -179Q767 -187 765 -188Q755 -185 755 -168Q756 -159 756 -150V-141Q756 -107 759 -91Q763 -67 777 -60Q784 -64 784 -74Q781 -93 778 -112Q778 -121 784 -126Q789 -109 792 -90Q795 -71 803 -56Q800 -41 781 -20Q768 -6 763 6Q753 8 749 8Q729 7 719 -6Q709 -18 695 -26Q693 -37 687 -44Q681 -51 676 -59H685Q683 -69 663 -74Q660 -68 660 -60Q662 -44 664 -29Q664 -23 663 -20Q654 -22 653 -46Q652 -70 643 -74Q636 -66 636 -34V-4Q636 59 660 76Q664 71 664 61Q661 37 658 13H664Q669 21 669 31Q669 40 671 49Q675 61 679 72V77Q679 98 662 116Q655 124 627 143Q613 137 602 127Q592 118 580 110Q576 96 571 81Q564 65 538 54Q501 38 498 36H500Q511 36 529 43Q548 50 556 51Q547 45 514 29Q481 13 464 1Q481 4 511 15Q546 28 563 31V30Q562 26 556 23Q549 20 545 16Q552 17 565 17Q581 17 587 12Q595 -74 605 -158Q588 -149 587 -129Q562 -113 562 -35Q549 -30 540 -20Q532 -10 521 -1Q519 -5 519 -9Q519 -13 521 -15Q511 -17 508 -17H503Q473 -39 464 -84Q463 -96 462 -108Q462 -120 454 -126Q483 -136 510 -190Q504 -189 494 -189Q472 -189 461 -199V-201Q463 -204 464 -208Q475 -206 481 -199Q487 -202 492 -205Q485 -223 471 -234Q457 -245 443 -254Q440 -252 436 -250Q435 -248 435 -245Q435 -239 442 -233Q447 -229 447 -226Q447 -223 446 -221Q429 -226 414 -255Q379 -207 376 -94Q364 -91 364 -82H352Q328 -82 318 -93Q309 -88 299 -85H297Q292 -75 289 -64Q286 -53 276 -50H273Q262 -50 249 -66Q234 -85 226 -88Q228 -98 228 -100Q228 -109 222 -124Q217 -138 216 -148H218Q225 -148 225 -137V-133Q229 -127 232 -119Q236 -112 242 -111H244Q240 -173 214 -190Q210 -189 210 -182Q212 -172 214 -162Q204 -163 200 -171Q197 -180 190 -187Q191 -186 177 -197Q173 -196 169 -186Q165 -177 162 -171Q149 -148 147 -145Q133 -104 117 -68Q95 -77 85 -85Q70 -98 68 -119L65 -121L61 -120L59 -121Q64 -130 64 -145Q60 -182 55 -229Q55 -237 57 -249Q63 -232 65 -213Q70 -221 70 -235Q68 -270 65 -306V-320Q72 -307 76 -278Q81 -246 86 -236Q108 -252 130 -279Q138 -289 167 -330Q185 -355 206 -378Q226 -402 242 -429Q216 -423 193 -410Q189 -407 181 -398Q171 -385 165 -384H161Q135 -389 117 -412Q111 -425 105 -438Q98 -448 92 -458Q85 -468 85 -485Q85 -493 86 -498Q94 -522 101 -547Q107 -597 139 -618Q152 -631 163 -647Q175 -663 193 -669V-668Q193 -664 183 -654Q168 -639 168 -629Q168 -624 171 -620Q174 -621 178 -629Q182 -638 189 -639V-636Q189 -631 188 -627V-626Q189 -622 198 -622Q199 -622 234 -629Q261 -642 288 -646Q296 -646 301 -644Q287 -635 250 -625Q210 -615 195 -603Q202 -592 212 -592Q230 -595 251 -606Q332 -631 376 -650Q374 -657 367 -657Q358 -656 348 -655H343Q345 -664 358 -670Q362 -672 379 -677Q421 -689 425 -691Q429 -690 431 -686Q433 -683 436 -680Q440 -682 444 -684H447Q447 -665 448 -647Q450 -629 458 -618Q453 -612 453 -597Q453 -579 458 -570Q453 -560 448 -532Q445 -517 442 -507Q418 -497 392 -488Q366 -479 359 -456Q296 -410 262 -337Q274 -342 287 -352Q299 -362 315 -363Q309 -351 286 -339Q258 -324 252 -307Q254 -306 259 -306Q274 -307 286 -316Q299 -325 310 -333L359 -362Q357 -371 353 -374Q339 -369 327 -363Q331 -381 349 -391Q356 -395 383 -403Q389 -402 395 -398Q398 -399 401 -404Q404 -408 407 -408H409Q412 -408 412 -405Q411 -401 410 -398L411 -395Q414 -400 416 -405Q421 -407 426 -415Q431 -423 437 -425V-424Q437 -419 433 -410Q425 -391 425 -383Q425 -380 427 -374H428Q430 -374 431 -379Q432 -384 435 -384H436V-378Q436 -365 442 -345Z"/>
</svg>