<svg xmlns="http://www.w3.org/2000/svg" viewBox="0 -800 1024 1024">
	<path fill="#000000" d="M160 -262Q162 -275 174 -277Q179 -277 181 -275Q176 -261 166 -257Q163 -259 160 -262ZM882 -682H878Q880 -698 893 -700Q898 -700 901 -695Q896 -682 882 -682ZM710 -507Q707 -500 699 -498Q690 -497 681 -495Q680 -497 680 -504Q690 -507 700 -510Q704 -510 710 -507ZM628 -219V-221Q528 -209 482 -182Q486 -167 493 -164Q567 -186 610 -188Q623 -205 628 -219ZM578 -11V-12Q578 -19 585 -37Q593 -58 593 -64Q593 -74 581 -74Q575 -74 570 -67Q566 -62 563 -62H562L561 -66Q565 -74 573 -79Q592 -100 592 -116Q493 -108 467 -77Q471 -71 473 -63V-61Q488 -52 497 -37Q505 -22 516 -8H536Q563 -8 578 -11ZM865 101H863Q839 95 815 88Q734 82 727 82Q727 72 746 71Q759 70 763 67Q746 51 703 49Q691 49 680 52Q670 54 668 64Q672 70 688 71Q701 72 705 76Q703 82 694 82Q692 82 674 79Q663 79 652 78Q609 80 565 81Q548 81 541 80Q551 70 579 70Q599 71 618 71Q643 71 655 62Q649 53 637 53Q621 51 609 51Q591 51 526 56H497Q459 56 452 76Q457 82 464 82Q477 80 489 78Q492 78 498 80V85Q489 91 469 94Q449 97 440 101Q427 109 417 120Q407 131 388 132H383Q336 123 303 104Q289 95 289 73Q289 41 316 33L315 29Q315 16 329 3Q343 -10 354 -10H356Q360 -9 362 -4Q364 1 366 2Q374 5 380 5Q392 4 404 3Q409 3 412 4Q383 -32 383 -77L385 -79Q389 -74 396 -70H397Q415 -81 437 -86Q420 -98 398 -134Q372 -178 347 -188Q342 -185 337 -173Q332 -161 326 -158Q324 -143 316 -134Q308 -124 301 -113Q294 -96 286 -80Q277 -69 267 -58Q262 -48 259 -39Q255 -30 245 -27Q244 -29 244 -32Q244 -37 255 -56Q280 -97 303 -142L304 -145Q281 -135 260 -105Q258 -102 227 -52Q215 -34 201 -12Q187 9 183 30Q183 35 182 40Q182 49 188 55Q195 50 203 35Q213 16 225 13Q226 15 226 20Q226 30 213 49Q204 62 202 70Q202 79 199 83Q196 87 193 93Q181 100 179 102Q172 108 171 117Q166 113 154 113Q142 113 138 117Q129 110 121 101Q112 92 101 91Q95 91 92 93Q95 82 103 73Q102 65 92 52Q81 37 79 26Q71 -17 71 -29Q71 -41 74 -53Q79 -49 80 -41Q80 -33 83 -27Q86 -36 86 -45Q86 -56 82 -76Q77 -101 77 -107Q77 -118 82 -124Q84 -119 94 -83Q98 -70 104 -44Q132 -57 154 -77Q176 -96 197 -116Q195 -118 186 -118H182Q176 -118 174 -119Q164 -126 153 -134Q142 -138 133 -140Q123 -141 120 -152Q119 -155 119 -161Q119 -170 125 -185Q132 -203 132 -212Q146 -222 158 -234Q170 -245 187 -251Q183 -243 183 -237V-233Q224 -240 262 -251Q305 -259 323 -292Q315 -283 291 -283Q280 -279 268 -275Q250 -279 237 -289Q234 -287 231 -284Q228 -281 222 -281Q224 -289 228 -294Q221 -300 214 -300Q198 -296 183 -283Q184 -298 203 -311Q197 -323 194 -335Q191 -347 181 -355Q173 -361 162 -363Q151 -365 148 -377Q172 -369 194 -365Q208 -365 214 -379V-380Q211 -386 208 -393L209 -397Q216 -390 227 -388Q235 -392 237 -403Q238 -413 240 -424Q249 -424 249 -407Q260 -398 270 -389Q272 -390 273 -394Q274 -398 277 -398H279Q284 -391 285 -382Q306 -364 315 -350Q329 -328 329 -300Q366 -352 400 -428H396Q377 -427 363 -418Q348 -408 335 -400H333Q313 -401 303 -415Q293 -429 279 -441Q275 -444 263 -450Q249 -457 245 -463Q239 -473 239 -486Q239 -512 259 -523Q257 -533 257 -538Q257 -561 276 -579Q281 -584 316 -607Q327 -615 340 -623Q352 -630 363 -631Q365 -631 371 -629Q362 -620 350 -614Q338 -608 335 -593H337Q343 -593 351 -599Q358 -604 363 -605L364 -604Q363 -598 361 -592Q361 -587 365 -584Q429 -590 492 -596Q502 -605 502 -625Q502 -652 490 -667Q478 -680 463 -691Q447 -702 443 -719Q447 -725 451 -737Q456 -753 461 -760Q483 -776 502 -796Q521 -816 559 -818H569Q580 -808 593 -799Q605 -790 610 -774H608Q599 -775 595 -780Q590 -786 584 -790Q574 -783 574 -776Q574 -766 598 -745Q614 -731 618 -724Q620 -718 620 -714Q620 -710 627 -707Q635 -712 635 -722Q631 -742 624 -760Q626 -762 628 -762Q631 -761 633 -761Q643 -749 649 -733Q644 -727 644 -719Q645 -708 646 -698V-694Q645 -685 636 -670Q624 -649 624 -635Q624 -628 625 -625Q707 -636 793 -665Q796 -664 802 -664Q816 -667 828 -673H829Q832 -671 832 -667Q852 -673 872 -679V-678Q872 -672 860 -662Q852 -655 849 -650Q851 -642 853 -635Q865 -638 876 -641H878Q878 -635 873 -632Q869 -629 865 -625Q863 -619 863 -615Q863 -614 866 -599Q873 -600 880 -601H883Q871 -591 860 -556Q848 -519 832 -509Q824 -510 809 -510Q767 -507 725 -504Q729 -514 752 -517Q772 -520 776 -527Q769 -534 735 -534Q720 -533 705 -533Q656 -529 611 -517Q565 -505 524 -497Q511 -496 499 -494Q486 -491 482 -476Q489 -469 504 -469Q538 -472 568 -482Q605 -493 618 -493Q628 -493 633 -491Q612 -482 567 -471Q515 -458 496 -449Q497 -447 497 -442Q497 -434 496 -427V-424Q525 -429 553 -435Q571 -443 588 -451H598Q604 -453 613 -460Q622 -467 627 -469Q636 -472 655 -473Q673 -474 680 -476Q682 -469 683 -463Q706 -468 729 -476Q726 -470 710 -462Q697 -455 697 -446Q697 -442 698 -440Q706 -443 713 -447Q719 -452 731 -452H733Q726 -448 720 -443Q713 -438 712 -429Q712 -427 714 -421H715Q720 -423 725 -426Q728 -426 730 -424V-422Q730 -420 726 -417Q721 -412 720 -409Q722 -397 722 -394Q722 -379 709 -361Q699 -347 696 -338Q682 -336 650 -327Q612 -316 593 -316H588Q595 -327 624 -333Q648 -338 656 -346Q654 -357 638 -357Q630 -357 622 -355Q616 -355 592 -346Q574 -342 556 -338Q537 -333 526 -322V-321Q527 -312 536 -310Q545 -309 554 -306Q539 -291 519 -291Q511 -294 502 -297Q499 -298 493 -298Q487 -298 485 -299Q471 -307 462 -326Q454 -344 445 -356Q431 -346 420 -325Q419 -324 404 -286Q418 -273 431 -260Q490 -267 542 -284Q561 -289 716 -328Q730 -345 749 -347H752Q758 -347 769 -342Q778 -338 784 -338H787Q795 -340 802 -347Q810 -355 817 -355H818L819 -352Q819 -350 815 -348Q810 -345 810 -342V-340Q812 -336 813 -332Q827 -338 838 -347Q849 -356 861 -365Q860 -356 846 -343Q834 -332 831 -325H833Q841 -330 850 -335H852Q854 -334 854 -331Q850 -325 846 -319Q845 -316 845 -311Q845 -291 865 -281Q864 -278 864 -272Q867 -256 869 -241Q869 -238 868 -236Q867 -231 857 -222Q847 -213 847 -205Q839 -207 835 -207Q827 -207 811 -200Q800 -195 791 -194Q792 -202 800 -209Q808 -216 809 -220Q805 -226 797 -226Q782 -225 778 -212Q774 -217 770 -221Q731 -205 708 -145H711Q718 -145 729 -155Q738 -164 742 -165Q746 -163 747 -163Q751 -163 757 -167Q765 -172 769 -172Q773 -172 775 -171Q772 -165 761 -153Q744 -133 739 -122Q741 -116 757 -105Q749 -97 749 -81Q749 -72 751 -67Q710 -54 692 -20Q792 -27 824 -33Q840 -59 847 -64V-58Q847 -43 854 -37Q859 -32 872 -32Q880 -32 887 -33Q887 -30 883 -28Q878 -25 878 -21Q879 -10 894 -10H905L906 -8Q906 -7 903 -4Q899 -1 899 2Q902 8 905 14V16Q902 24 898 31V35Q900 47 902 59V61Q901 68 887 84Q872 100 865 101Z"/>
</svg>