<svg xmlns="http://www.w3.org/2000/svg" viewBox="0 -800 1024 1024">
	<path fill="#000000" d="M895 -763Q894 -756 886 -746Q882 -747 882 -753Q883 -764 890 -766Q894 -766 895 -763ZM550 -653H547Q541 -651 534 -650V-652Q536 -667 549 -668Q552 -668 554 -667Q552 -660 550 -653ZM924 -206H928Q926 -183 916 -177Q913 -183 913 -191Q913 -206 924 -206ZM341 -237Q338 -233 328 -227Q317 -220 313 -214Q320 -201 325 -181Q344 -184 344 -221Q344 -232 341 -237ZM283 -102H280Q275 -104 269 -113Q263 -122 259 -124V-128Q260 -134 261 -141Q261 -145 254 -148Q258 -151 279 -159Q277 -165 271 -166Q265 -168 260 -171Q252 -165 243 -158Q234 -151 232 -142V-141Q232 -137 244 -104Q255 -74 265 -44L263 -61Q263 -83 277 -93Q281 -92 288 -92Q307 -92 307 -109Q295 -105 283 -102ZM399 -131V-129Q399 -123 406 -121Q425 -187 441 -300L438 -302Q424 -293 421 -291Q411 -284 408 -277Q423 -269 423 -247Q423 -239 421 -225Q394 -223 383 -199L386 -198Q394 -200 401 -203L405 -202Q404 -201 398 -197Q394 -194 393 -190Q394 -186 402 -182Q395 -179 389 -174Q386 -155 373 -148Q358 -140 347 -128Q350 -126 352 -122Q364 -131 381 -137Q390 -133 395 -130ZM904 -557V-524Q898 -529 889 -554Q882 -557 876 -557Q866 -557 851 -544Q848 -545 848 -552Q848 -557 849 -559Q824 -588 814 -605Q796 -637 796 -674Q796 -695 795 -716Q795 -767 822 -767Q831 -767 836 -765Q840 -764 844 -759Q851 -752 858 -751Q861 -737 870 -733Q876 -736 881 -739H883Q883 -734 882 -730Q882 -723 886 -720Q902 -731 917 -740V-739Q916 -734 908 -725Q900 -715 899 -704Q899 -697 904 -692Q915 -694 933 -703Q954 -714 964 -714H969Q966 -708 951 -703Q940 -699 935 -695Q925 -686 925 -673Q925 -662 932 -645H934Q942 -645 950 -646Q956 -646 957 -641H954Q948 -641 941 -636Q937 -602 932 -568Q932 -563 934 -551Q929 -558 923 -566Q915 -560 904 -557ZM954 34V37Q951 55 942 68Q933 82 923 94Q904 91 891 80Q885 81 879 81Q844 81 809 55Q809 36 794 12Q782 -7 780 -21H781Q789 -20 793 -11Q798 -3 802 5Q817 26 827 31Q832 29 832 23Q830 13 824 5Q814 -16 751 -124Q738 -152 717 -171V-166Q717 -146 737 -113Q753 -85 757 -70H755Q749 -71 745 -79Q741 -88 737 -95Q718 -134 707 -148V-150Q707 -160 699 -172Q689 -188 689 -199Q683 -202 682 -212Q670 -210 670 -197V-194Q590 -13 560 40Q522 34 498 -8Q500 -12 500 -18Q496 -37 491 -56V-58Q493 -66 500 -74Q505 -89 506 -122Q507 -161 513 -176Q517 -174 517 -163V-157Q517 -151 518 -148Q518 -144 525 -121Q546 -135 557 -160Q568 -185 580 -209Q584 -216 588 -225Q593 -233 602 -234Q600 -217 582 -188Q563 -157 563 -136Q563 -131 565 -121Q575 -129 590 -159Q594 -166 612 -202Q637 -256 637 -290V-299Q628 -298 624 -281Q620 -264 612 -263Q610 -271 610 -273Q614 -287 618 -302Q617 -313 602 -330Q585 -350 585 -364Q586 -367 586 -371Q584 -375 581 -378Q575 -384 574 -388Q574 -391 573 -395Q576 -415 578 -436V-441Q577 -451 571 -456Q566 -462 562 -469Q567 -468 577 -468Q613 -468 657 -491Q658 -496 658 -507Q658 -524 657 -541Q657 -551 660 -560Q667 -555 667 -532V-521Q667 -509 670 -500H671Q680 -500 685 -519Q690 -536 690 -561Q690 -587 685 -604Q679 -623 670 -623Q659 -623 659 -609V-599Q659 -586 652 -584Q649 -606 634 -619H628Q611 -618 601 -610Q591 -601 580 -595Q584 -604 606 -635Q618 -655 627 -677Q630 -683 647 -696Q663 -708 670 -717Q678 -727 686 -736Q693 -745 707 -746Q746 -733 768 -673Q781 -638 781 -625V-623Q781 -616 772 -603Q761 -586 760 -576Q760 -571 759 -566Q759 -557 765 -533Q772 -534 782 -541Q792 -548 801 -548H805V-536Q812 -532 819 -532Q826 -532 842 -538Q839 -527 833 -519Q837 -515 841 -515Q844 -515 849 -520Q855 -526 862 -526H863Q863 -521 859 -516Q855 -512 855 -509Q857 -507 860 -507H866Q861 -495 861 -482Q861 -445 880 -434Q876 -423 861 -401Q852 -387 846 -375Q844 -377 836 -377H827Q819 -377 815 -378Q817 -388 827 -389Q836 -390 846 -392Q849 -398 851 -404Q846 -410 840 -415H833Q817 -415 804 -408Q791 -402 775 -395Q760 -390 744 -383Q728 -377 727 -361Q728 -358 728 -355Q737 -355 757 -365Q777 -375 786 -375Q789 -374 792 -374Q789 -363 779 -360Q768 -356 759 -352Q727 -333 723 -332Q728 -314 735 -293Q736 -251 762 -206Q780 -183 798 -161V-160Q797 -157 796 -155V-154Q801 -148 809 -142Q813 -134 816 -127Q833 -107 854 -92Q855 -93 855 -97V-104Q855 -109 858 -109Q864 -94 869 -79Q875 -83 875 -90Q875 -92 872 -107V-145Q869 -174 865 -204Q865 -219 870 -227Q883 -190 891 -99Q896 -101 896 -108Q895 -114 894 -121L891 -182Q887 -212 882 -242Q882 -256 889 -263Q901 -178 908 -71Q912 -79 912 -94Q912 -111 911 -129V-134Q915 -168 916 -171Q921 -167 921 -162Q920 -155 919 -149Q923 -114 926 -80Q927 -60 942 -16Q954 20 954 34ZM250 52L218 49Q204 26 189 2Q182 -7 173 -17Q165 -27 164 -40V-43Q174 -39 185 -22Q195 -7 203 -2Q207 -5 207 -11Q205 -20 202 -30Q192 -47 180 -61Q169 -75 158 -89Q141 -96 124 -102Q119 -105 112 -112Q104 -120 98 -122Q91 -114 91 -105Q93 -90 110 -81Q126 -72 137 -62Q131 -60 127 -60Q103 -60 79 -86Q76 -89 66 -113Q66 -116 63 -116Q62 -116 60 -113Q47 -135 36 -168Q35 -173 35 -182Q35 -220 70 -227Q71 -232 75 -237Q80 -243 81 -247V-248Q78 -260 74 -273Q74 -276 75 -278Q82 -277 86 -264Q90 -253 95 -251Q96 -253 96 -257Q96 -262 92 -273Q86 -290 86 -299V-303Q92 -298 99 -282Q107 -263 115 -259Q112 -268 108 -278L109 -281Q115 -279 121 -270Q127 -260 132 -257Q134 -258 138 -258Q154 -258 173 -228Q187 -206 195 -206Q203 -207 215 -219Q227 -230 233 -236Q237 -239 312 -289Q334 -301 349 -319Q320 -316 279 -287Q237 -257 214 -253Q215 -264 225 -269Q234 -274 242 -277Q290 -307 338 -337V-351Q338 -383 331 -398Q292 -383 257 -362Q255 -357 253 -352V-350Q242 -349 235 -341Q231 -336 226 -323H221Q210 -323 197 -312Q185 -302 180 -302H179Q175 -302 166 -307Q157 -312 151 -312Q148 -312 146 -311Q139 -322 132 -334Q128 -338 118 -342Q106 -347 103 -352Q97 -361 97 -374Q101 -406 113 -434Q105 -445 105 -466Q105 -477 106 -482Q115 -495 138 -512Q158 -527 165 -535Q172 -545 178 -557Q184 -569 199 -570H200Q200 -564 190 -554Q178 -542 177 -533H178Q181 -533 185 -541Q190 -550 197 -550H199Q192 -538 192 -531Q192 -527 195 -524Q208 -526 231 -538Q257 -552 272 -552Q279 -552 283 -551Q281 -540 249 -532Q221 -525 215 -516Q211 -510 211 -503Q211 -493 220 -490Q235 -495 269 -512Q306 -530 327 -536Q328 -538 328 -543Q327 -551 325 -560Q323 -561 320 -561Q312 -559 304 -557Q304 -568 311 -572Q312 -572 327 -578Q325 -608 322 -617Q316 -632 309 -647V-649Q310 -653 310 -657V-659Q306 -681 282 -689Q284 -695 285 -701Q282 -705 276 -707H273Q285 -720 295 -734Q305 -749 319 -761Q347 -784 363 -792Q366 -794 376 -794H392Q408 -785 426 -751Q438 -728 447 -719Q452 -709 452 -697Q452 -685 445 -665Q437 -642 437 -632Q437 -627 439 -617Q444 -618 453 -623Q467 -631 473 -631Q478 -631 483 -626Q489 -628 499 -635Q512 -644 519 -644Q521 -644 527 -642Q518 -635 508 -629Q498 -622 494 -610L497 -609Q501 -609 506 -613Q513 -618 517 -618Q520 -617 522 -617Q509 -608 509 -594Q509 -582 524 -582H528Q518 -578 517 -567Q516 -556 513 -544Q508 -536 500 -526Q501 -522 501 -520V-518Q498 -512 495 -507Q495 -505 497 -501H494Q491 -501 491 -498Q496 -485 500 -473Q489 -462 456 -451Q426 -441 415 -432Q414 -418 412 -405Q412 -399 414 -391Q432 -400 449 -409Q461 -419 472 -431Q483 -443 502 -444H509Q514 -447 518 -459Q523 -476 534 -476Q525 -452 525 -449Q525 -440 533 -435Q535 -436 536 -440Q538 -446 543 -446H545Q546 -435 547 -424Q557 -412 567 -378Q574 -353 581 -341Q576 -335 571 -329Q566 -323 565 -312Q529 -304 515 -284Q501 -256 495 -209Q482 -139 482 -61Q482 17 479 94Q462 104 443 104Q430 104 421 99Q407 76 387 56Q380 28 381 -1Q380 -13 374 -21Q369 -29 363 -36Q367 -38 368 -38Q373 -36 378 -35Q381 -35 384 -38Q388 -42 390 -57Q392 -70 395 -76Q369 -75 355 -59Q363 -53 363 -11Q361 9 352 20Q339 20 330 23Q303 6 303 -26V-36L274 -27L266 -41Q275 -9 275 12Q275 29 271 42Q265 41 259 40H257Q254 41 252 47Q251 51 250 52Z"/>
</svg>