<svg xmlns="http://www.w3.org/2000/svg" viewBox="0 -800 1024 1024">
	<path fill="#000000" d="M721 -183H714Q712 -187 712 -190Q713 -200 723 -201L724 -197Q723 -190 721 -184ZM169 -441H173Q173 -437 176 -437Q170 -424 156 -424Q154 -424 151 -425Q152 -441 169 -441ZM930 -716V-714Q921 -712 911 -710Q908 -710 906 -711Q908 -727 921 -727Q924 -727 928 -725Q929 -720 930 -716ZM484 -135V-131Q484 -126 483 -121L484 -117Q505 -122 535 -133Q578 -149 600 -152Q607 -174 608 -180Q552 -179 484 -135ZM589 -53V-58Q591 -73 592 -89Q539 -74 485 -59Q482 -53 482 -46Q482 -40 485 -36Q538 -38 589 -53ZM616 -299Q610 -297 604 -296L601 -297Q602 -305 613 -311Q621 -316 623 -320Q618 -324 608 -324Q598 -324 564 -312Q527 -300 518 -295Q495 -283 490 -264Q494 -262 502 -262Q511 -262 526 -271Q541 -280 551 -280Q554 -280 562 -278Q550 -269 521 -255Q488 -240 475 -227Q481 -226 486 -226Q519 -227 550 -240Q582 -253 614 -263Q614 -282 616 -299ZM324 -419H321Q312 -415 309 -402Q308 -438 260 -438Q254 -437 247 -437Q246 -439 246 -446V-450Q240 -457 230 -457Q209 -452 188 -447Q199 -459 217 -470Q214 -482 205 -488Q195 -486 185 -485Q188 -494 197 -497Q195 -502 194 -516Q193 -532 188 -537Q191 -547 191 -557Q187 -591 176 -614H178Q183 -614 189 -605Q194 -598 196 -596Q200 -603 216 -608Q235 -614 238 -623Q243 -623 243 -619Q264 -627 285 -627Q307 -627 323 -617Q332 -600 355 -587Q360 -591 366 -594Q367 -592 367 -585V-581Q373 -581 380 -590Q389 -602 398 -602H400Q383 -579 383 -560V-557Q384 -556 388 -556Q392 -556 392 -554Q391 -551 391 -544Q391 -535 399 -519Q407 -503 407 -494Q407 -486 401 -477Q397 -486 395 -497Q393 -508 383 -512Q375 -508 375 -500Q374 -491 373 -482Q372 -476 367 -465Q361 -452 361 -446Q361 -440 363 -437Q369 -438 376 -446Q383 -454 388 -454Q391 -454 395 -452Q382 -422 351 -418Q348 -418 345 -419Q340 -418 337 -413Q334 -409 333 -408Q331 -408 329 -414Q328 -419 324 -419ZM576 33H566Q525 33 497 45Q484 52 473 61Q461 69 446 70Q429 66 419 61Q412 56 405 37Q397 16 389 10H388Q385 11 381 12H379Q388 -2 390 -24Q392 -46 394 -68Q402 -66 402 -49V-47Q402 -31 408 -29Q419 -41 419 -65Q415 -117 391 -149Q385 -147 385 -138Q387 -127 389 -116Q389 -111 386 -108Q377 -111 376 -121Q374 -130 372 -140Q369 -150 345 -204Q321 -201 300 -188Q292 -183 265 -162Q259 -156 253 -149Q247 -142 238 -141Q242 -160 257 -170Q273 -181 288 -189Q301 -199 314 -209Q311 -211 305 -211Q284 -207 265 -195Q234 -178 223 -168Q169 -122 151 -101Q156 -98 160 -98Q167 -98 180 -108Q192 -117 199 -117Q203 -117 205 -116Q198 -105 174 -90Q145 -72 139 -54Q91 -54 66 -81Q68 -97 68 -105Q68 -128 58 -138Q73 -174 78 -225Q82 -224 86 -223L90 -224Q122 -264 145 -332Q155 -361 164 -366V-361Q161 -338 151 -312Q141 -272 141 -261Q142 -256 142 -251Q144 -253 147 -268Q149 -279 158 -279Q159 -277 159 -272Q158 -261 156 -250Q156 -244 160 -240Q196 -251 227 -267Q258 -283 288 -296Q298 -349 350 -353Q357 -353 361 -352Q385 -360 391 -360H394Q458 -392 509 -435Q505 -438 496 -448Q485 -460 476 -464V-466Q475 -480 466 -488Q458 -495 450 -504Q454 -506 458 -506Q465 -506 468 -503Q465 -512 450 -522Q434 -533 431 -544H433Q439 -544 454 -534Q472 -522 483 -522H488Q489 -532 489 -554Q489 -636 453 -657Q447 -687 440 -717Q436 -724 434 -733Q434 -737 435 -740Q441 -748 453 -760Q458 -769 463 -779Q474 -783 485 -788Q503 -798 520 -808Q535 -814 547 -814Q573 -814 594 -788Q596 -786 626 -739V-736Q629 -720 634 -707Q632 -702 629 -697Q629 -695 631 -691Q626 -686 623 -666Q621 -652 617 -647Q610 -650 610 -661Q611 -667 611 -674Q611 -685 603 -686H601Q588 -686 583 -659Q581 -641 581 -624Q581 -556 595 -544Q604 -550 604 -573V-587Q604 -612 614 -616V-608Q613 -575 612 -543Q612 -521 614 -510Q635 -524 659 -541Q682 -559 699 -582Q719 -595 741 -595Q747 -594 752 -594Q743 -601 717 -635Q717 -647 725 -666Q733 -687 733 -702Q738 -700 748 -700Q770 -704 797 -711Q801 -714 804 -722Q808 -733 814 -735Q817 -701 839 -688Q845 -691 850 -694V-692Q849 -687 848 -683Q848 -681 850 -679Q860 -680 874 -691Q889 -703 902 -704Q899 -696 885 -685Q869 -673 868 -659Q869 -654 878 -648Q885 -643 887 -638Q894 -640 901 -642Q904 -642 906 -641Q900 -633 897 -623Q897 -618 899 -616Q903 -613 916 -613H930Q945 -613 950 -608Q946 -601 917 -599Q892 -598 892 -584Q892 -580 893 -578Q894 -571 909 -563Q924 -555 927 -545Q925 -544 921 -544Q913 -544 903 -549Q893 -554 889 -554H888Q881 -552 874 -547Q853 -543 832 -539Q812 -548 789 -554Q797 -534 800 -516Q800 -512 798 -506Q789 -483 762 -477Q735 -471 706 -467Q688 -462 672 -449Q650 -436 627 -422Q604 -408 588 -390Q604 -390 637 -407Q672 -425 693 -428H695Q715 -424 734 -421Q737 -421 740 -422Q747 -424 758 -434Q768 -444 773 -444Q769 -432 765 -421Q765 -416 768 -413Q778 -417 794 -431Q809 -444 817 -447Q816 -439 803 -426Q787 -409 785 -396L787 -394Q789 -394 791 -397Q795 -403 798 -403L801 -402Q798 -393 798 -385Q798 -374 807 -352Q815 -333 816 -321Q810 -315 804 -293Q782 -288 761 -261Q760 -260 729 -210Q725 -214 725 -219Q725 -225 731 -236Q737 -247 737 -251Q737 -256 732 -260Q726 -260 720 -255Q715 -251 712 -251Q685 -180 679 -85Q677 -67 677 -56Q677 -31 687 -19Q693 -36 696 -79Q699 -125 706 -141Q712 -139 712 -130Q709 -113 706 -96Q706 -90 709 -86Q703 -23 696 39Q695 61 695 79Q695 97 685 110Q662 110 657 125Q622 102 586 79Q581 56 576 33Z"/>
</svg>