<svg xmlns="http://www.w3.org/2000/svg" viewBox="0 -800 1024 1024">
	<path fill="#000000" d="M923 -172V-175Q923 -185 934 -191Q937 -191 938 -188Q940 -184 941 -184Q935 -175 923 -172ZM882 -617Q881 -607 870 -596Q868 -600 868 -605Q868 -620 876 -620Q879 -620 882 -617ZM412 -127V-125L414 -124Q418 -124 421 -130Q416 -120 412 -99Q412 -96 414 -88Q405 -77 405 -70Q405 -65 406 -62Q332 -44 241 -7L240 -11Q240 -18 251 -26Q267 -38 319 -53Q359 -65 376 -74Q374 -81 364 -81Q357 -81 349 -79Q304 -74 260 -58Q208 -40 183 -16Q168 -1 168 10V13Q180 8 194 5Q201 5 206 10Q199 20 186 25Q171 39 157 60Q143 81 125 83H123Q111 83 93 72Q70 58 55 58H51Q41 48 41 27Q41 6 50 -8Q47 -20 47 -35Q47 -68 72 -68H76Q99 -96 140 -128Q137 -122 129 -113Q120 -104 119 -92Q119 -88 122 -82Q166 -101 215 -112Q207 -129 199 -146Q191 -163 170 -167V-170Q170 -175 174 -175H176Q170 -191 164 -207Q158 -223 143 -230Q146 -233 150 -233Q154 -233 162 -227V-233H164Q173 -233 178 -237Q183 -242 188 -247Q150 -261 125 -305Q109 -335 109 -350Q109 -362 116 -376Q114 -387 108 -395Q102 -403 97 -412L101 -413Q108 -408 115 -404Q113 -416 99 -431Q90 -441 87 -448Q100 -439 112 -431Q120 -435 120 -439Q120 -442 112 -452Q118 -450 124 -449Q130 -450 137 -460Q144 -469 150 -470H153Q168 -467 182 -464Q194 -464 215 -471Q236 -478 247 -478H248Q251 -479 253 -484Q256 -483 261 -483Q273 -483 285 -497Q279 -538 270 -584Q266 -596 248 -617Q232 -635 230 -646Q230 -650 229 -654Q233 -691 257 -713Q272 -718 287 -724Q312 -734 315 -734H317Q341 -734 361 -704Q357 -702 355 -702Q341 -707 323 -712Q317 -712 312 -707Q340 -667 367 -647Q370 -651 370 -658Q367 -672 364 -686V-688H366L370 -689Q394 -668 394 -621Q394 -598 384 -581H381Q378 -579 374 -577V-575Q374 -567 367 -551Q360 -535 360 -528Q360 -520 364 -515Q382 -524 400 -533Q418 -543 441 -548Q420 -538 414 -521L417 -520Q424 -520 430 -526Q428 -517 426 -508V-506Q430 -499 433 -493Q435 -487 435 -466Q433 -444 424 -418Q421 -407 421 -401Q421 -395 424 -385Q417 -384 401 -376Q387 -369 378 -367V-371Q379 -379 386 -384Q392 -388 399 -392Q395 -404 385 -404Q363 -399 344 -388Q325 -381 294 -368Q263 -355 251 -341Q249 -335 247 -329Q249 -327 251 -326V-325Q263 -326 287 -340Q312 -355 325 -355Q336 -355 343 -350Q287 -326 272 -317Q235 -295 220 -263L221 -261Q225 -263 228 -265H229Q290 -212 290 -159Q290 -146 287 -133L289 -132Q296 -134 302 -137L306 -136Q317 -183 320 -236Q320 -260 313 -278Q308 -277 306 -272Q303 -267 300 -263Q301 -281 308 -298Q316 -316 321 -334Q341 -346 370 -346H381Q392 -338 400 -327Q408 -316 424 -313Q424 -306 421 -305Q438 -298 438 -273Q438 -254 430 -238Q404 -231 393 -209Q383 -188 374 -164Q381 -165 399 -170Q426 -178 444 -178H447Q447 -175 444 -175Q442 -175 439 -176H438Q429 -174 417 -158Q419 -153 423 -153H426Q422 -147 417 -141Q412 -136 412 -127ZM953 -4H959Q953 4 946 23Q940 40 934 48Q924 59 910 64Q896 69 883 77Q871 45 836 43Q836 36 839 31Q817 -32 789 -64Q746 -61 706 -55Q666 -49 652 -16Q654 -15 658 -15Q661 -15 688 -26Q715 -35 729 -35Q740 -35 750 -32Q735 -21 713 -18Q655 2 615 40Q598 37 580 34Q569 19 558 5Q547 -9 541 -29Q525 -10 515 26Q513 32 501 91Q487 89 479 89Q459 89 453 100V99Q453 90 435 80Q421 73 418 67Q415 61 415 40Q415 18 420 14Q416 5 408 -2Q400 -8 393 -16Q408 -11 418 -4Q433 -8 444 -16Q448 -35 454 -52Q460 -58 465 -64Q476 -91 486 -125Q510 -201 534 -277Q515 -264 503 -264Q492 -264 482 -275Q474 -283 455 -312Q438 -338 430 -346V-357Q430 -389 444 -397Q439 -414 439 -424Q439 -449 456 -470Q467 -484 491 -502L492 -499Q492 -497 489 -482Q495 -481 501 -481Q520 -481 561 -492Q587 -499 606 -502Q615 -597 638 -646Q635 -656 626 -656Q621 -656 615 -653Q618 -660 620 -668Q616 -675 609 -675Q601 -674 592 -667Q583 -660 577 -655Q580 -667 589 -674Q597 -682 606 -691Q620 -712 630 -734Q651 -771 692 -793H694Q713 -793 731 -778Q742 -769 762 -743Q773 -731 784 -716Q795 -701 796 -684Q796 -680 795 -677Q787 -654 766 -644Q765 -646 765 -650Q769 -663 775 -674Q776 -678 776 -682Q776 -703 748 -725Q742 -720 742 -715Q745 -703 747 -692V-691Q745 -684 738 -679Q730 -650 721 -622Q724 -619 728 -619Q733 -619 742 -626Q751 -633 755 -633H757V-631Q754 -618 744 -607Q722 -579 718 -572Q704 -549 703 -524Q758 -540 815 -554Q839 -571 864 -586Q857 -574 857 -565Q857 -560 858 -557Q862 -555 869 -555Q876 -555 890 -562Q906 -570 918 -570Q924 -570 928 -569Q915 -562 903 -555Q891 -548 888 -532Q891 -529 893 -529Q900 -531 907 -534L911 -533Q911 -529 906 -527Q901 -525 901 -521Q902 -514 906 -514Q909 -514 911 -515Q904 -510 904 -496Q904 -481 914 -478Q908 -472 908 -462V-448Q906 -441 903 -434Q902 -425 901 -416Q899 -410 893 -403Q884 -391 883 -385Q875 -389 863 -389Q854 -389 843 -386Q843 -397 845 -401Q869 -407 879 -413Q868 -429 843 -429Q826 -429 765 -412Q733 -405 706 -397Q678 -390 667 -367Q679 -367 712 -375Q745 -383 764 -383Q779 -383 790 -379Q771 -369 745 -368Q675 -354 638 -331Q608 -279 593 -209Q588 -213 588 -222Q589 -229 589 -236Q590 -249 598 -273Q608 -305 608 -318V-320Q563 -272 531 -128Q528 -113 528 -112Q528 -105 533 -101Q548 -126 559 -158Q567 -155 569 -155Q572 -155 578 -158Q563 -134 563 -112Q576 -110 589 -109Q617 -158 638 -222Q650 -243 652 -265Q652 -275 646 -287Q659 -307 659 -321Q659 -327 658 -331Q668 -327 670 -325Q678 -331 688 -331Q702 -330 715 -329Q724 -329 728 -331Q740 -324 748 -316Q757 -317 766 -319H769Q760 -314 760 -303Q760 -298 765 -295Q764 -291 764 -284Q768 -258 771 -232V-222Q718 -187 694 -122Q730 -129 766 -136Q765 -141 765 -152Q765 -180 781 -184Q788 -184 794 -185Q831 -185 855 -164Q860 -165 865 -167L867 -166Q865 -160 865 -157Q865 -146 873 -140Q896 -151 919 -163Q905 -145 894 -127Q895 -121 901 -113Q954 -141 959 -143Q948 -133 933 -120Q918 -107 916 -91Q916 -81 925 -71H927Q941 -73 955 -76Q960 -76 963 -73Q945 -70 945 -43Q945 -27 951 -5Z"/>
</svg>