<svg xmlns="http://www.w3.org/2000/svg" viewBox="0 -800 1024 1024">
	<path fill="#000000" d="M821 -717Q812 -707 799 -704Q795 -704 793 -705Q797 -722 812 -722Q816 -722 818 -721Q818 -717 821 -717ZM593 -668V-666Q593 -654 575 -654Q564 -654 559 -657V-666Q568 -669 579 -669Q589 -669 593 -668ZM893 -147H895Q913 -150 931 -154Q936 -154 938 -153Q936 -147 919 -142Q903 -138 902 -128Q911 -126 919 -125Q918 -122 912 -114Q904 -104 904 -97Q904 -93 907 -87Q917 -90 926 -94Q917 -79 909 -62Q901 -45 889 -33Q885 -12 868 3Q850 18 829 18Q819 18 806 13Q791 4 776 -6Q763 -9 750 -9Q736 -9 725 -16Q727 -25 743 -25Q756 -24 769 -24Q780 -24 785 -28Q782 -41 763 -49Q745 -57 724 -57Q698 -57 687 -45Q690 -39 699 -33Q705 -29 707 -27Q703 -21 692 -21H676Q666 -18 655 -15Q629 -13 614 -13Q546 -15 477 -18Q449 -18 422 -15Q425 -30 457 -30H501Q547 -32 592 -34H602Q642 -34 651 -48Q647 -64 617 -64Q597 -63 577 -63H572Q557 -63 542 -64Q511 -64 408 -53Q354 -45 300 -37Q273 -35 261 -32Q239 -27 239 -16Q239 -9 245 -2H248Q287 -7 322 -13Q328 -13 333 -14Q343 -14 347 -9Q345 -3 337 -1Q335 0 325 1Q313 4 301 7Q257 19 243 33Q227 33 198 48Q169 63 155 63H152Q139 62 118 48Q103 38 92 35V32Q89 21 86 9L98 -7Q90 -23 90 -49Q90 -86 112 -93Q121 -113 133 -131Q147 -138 183 -162Q220 -187 246 -198V-197Q245 -191 238 -186Q231 -181 224 -174Q218 -167 214 -151Q221 -141 239 -141Q276 -145 310 -156Q354 -166 389 -169Q426 -171 437 -174V-184Q437 -207 431 -241Q425 -237 402 -236Q382 -235 380 -228V-225Q379 -215 392 -215Q400 -215 408 -216Q419 -216 421 -210Q418 -205 413 -205Q407 -205 402 -203Q391 -199 380 -195Q365 -197 355 -209Q345 -222 334 -229Q328 -249 315 -263Q316 -267 321 -272Q327 -277 327 -282V-284Q326 -295 317 -300Q307 -305 300 -313Q315 -316 320 -328Q325 -341 337 -349Q339 -350 343 -350Q350 -349 356 -349Q397 -356 440 -370Q443 -376 443 -382Q442 -394 435 -404Q428 -413 424 -420Q424 -425 429 -430Q432 -433 433 -436H426Q397 -436 359 -412L357 -411Q359 -408 360 -406V-405Q337 -400 322 -372Q280 -372 261 -382Q254 -390 246 -399Q236 -405 230 -415Q228 -427 226 -439Q223 -446 210 -462Q193 -484 189 -498V-503Q191 -513 192 -523V-525Q192 -536 179 -551Q170 -561 168 -568Q170 -570 172 -570Q180 -565 187 -561V-563Q187 -574 173 -588Q159 -602 157 -612Q173 -609 182 -600Q168 -622 154 -645Q150 -648 145 -651Q139 -654 139 -660V-661Q153 -659 163 -649Q172 -638 183 -628Q195 -623 204 -615Q232 -621 260 -628H265Q282 -627 298 -626Q306 -626 310 -627Q336 -629 362 -631Q432 -644 504 -654V-652Q504 -642 482 -637Q428 -626 422 -625Q351 -615 324 -608Q313 -606 305 -599Q296 -592 296 -584Q296 -578 300 -574Q306 -572 310 -572Q324 -574 344 -583Q383 -596 445 -606Q469 -610 515 -623Q563 -636 586 -640Q608 -642 631 -643Q655 -643 676 -651Q671 -663 654 -662Q637 -661 625 -665Q627 -678 646 -680Q662 -682 666 -688Q672 -686 675 -686Q682 -686 687 -691Q701 -685 714 -685Q746 -689 784 -702H785V-701Q785 -695 765 -687Q735 -676 735 -663V-660Q736 -651 752 -648Q767 -645 771 -640Q765 -636 757 -634Q746 -632 745 -622L746 -618H748Q761 -621 774 -625H779Q752 -608 752 -590Q752 -581 757 -574H759Q764 -575 769 -576L772 -574Q767 -567 760 -561Q753 -556 752 -545Q752 -538 754 -534Q749 -531 746 -524L747 -520L745 -519Q740 -522 735 -525V-521Q734 -514 733 -507Q733 -505 735 -499Q733 -500 729 -500Q722 -500 719 -496V-494Q720 -490 721 -487L720 -486Q603 -479 565 -465Q569 -453 586 -448Q576 -434 575 -424H572Q567 -424 566 -429Q564 -437 563 -438Q554 -450 540 -459Q536 -454 536 -447Q540 -426 550 -410Q549 -408 549 -403Q549 -392 559 -389Q565 -390 566 -396Q567 -402 569 -408H570Q576 -408 578 -402Q581 -394 583 -392Q636 -396 655 -405Q667 -415 678 -418Q670 -397 670 -390Q670 -378 686 -378H689Q678 -372 678 -359Q678 -344 693 -341H694Q704 -344 714 -347Q718 -347 720 -345Q718 -340 708 -337Q698 -334 696 -330Q696 -321 707 -317Q687 -308 685 -282Q685 -274 689 -267H686Q682 -266 678 -266Q671 -243 647 -241Q641 -241 633 -244Q633 -252 641 -255Q649 -258 649 -264Q649 -276 620 -276Q602 -276 587 -271Q571 -266 571 -258V-257Q571 -248 581 -248Q593 -249 604 -250Q611 -250 614 -246Q611 -239 591 -236Q579 -234 574 -231Q562 -220 562 -186V-174Q573 -178 592 -181Q601 -181 605 -177Q619 -183 643 -183H663Q706 -186 748 -189H757Q832 -186 848 -186Q856 -190 861 -210Q867 -231 876 -235V-231Q873 -210 870 -190Q870 -177 879 -172Q901 -176 921 -176Q936 -176 944 -172Q939 -167 915 -163Q895 -160 893 -147Z"/>
</svg>