<svg xmlns="http://www.w3.org/2000/svg" viewBox="0 -800 1024 1024">
	<path fill="#000000" d="M535 -30Q524 -28 512 -27Q488 -27 482 -9Q483 -8 508 -3Q511 -7 520 -15Q533 -26 535 -30ZM91 -126V-123Q80 -128 80 -136V-141H82Q86 -140 90 -139V-136Q91 -131 91 -126ZM364 91Q360 93 356 93Q343 93 341 83Q343 82 349 82Q363 82 364 91ZM897 -247Q894 -238 888 -228Q883 -233 883 -243Q883 -253 892 -253H895Q897 -251 897 -247ZM781 -97Q779 -93 779 -89V-87Q783 -76 786 -65Q780 -60 753 -40Q717 -54 691 -61Q686 -56 678 -51Q670 -46 668 -40Q627 -26 616 -20Q592 -7 581 19Q611 26 640 29Q649 29 652 28Q655 25 659 15Q664 1 671 -2Q669 9 666 20Q666 23 667 25H668Q669 25 671 21Q673 17 676 17H678Q676 27 676 30Q677 48 687 61Q697 74 705 88Q705 93 697 126H696Q688 127 684 132Q680 138 674 142Q658 131 640 122Q621 113 614 99Q631 103 647 106Q629 70 557 53Q560 62 579 73Q600 85 603 98Q591 93 570 81Q544 66 529 61Q504 82 483 124H480Q469 124 467 137Q463 138 457 138Q428 136 412 118Q397 101 373 92Q378 89 382 89Q393 92 403 95Q399 87 378 77Q358 67 352 61Q360 62 377 71Q394 80 404 82Q397 75 372 63Q351 54 343 47Q391 63 414 63Q436 63 451 52Q447 49 443 49Q433 51 422 53H420Q406 52 400 39Q393 25 388 13Q359 16 336 26Q312 37 291 48Q286 45 273 42Q260 39 255 34Q250 21 245 7Q243 1 235 -6Q225 -15 225 -26Q225 -29 227 -41Q228 -48 237 -58Q196 -34 153 18Q132 17 105 17Q102 17 94 19Q97 16 100 12V11Q100 2 94 -6Q89 -13 84 -22Q80 -40 76 -59Q75 -62 70 -69Q63 -79 63 -87V-90Q68 -87 74 -78Q81 -68 87 -64Q86 -80 69 -111Q55 -136 53 -151Q59 -148 61 -143Q63 -137 66 -132Q75 -115 83 -102Q95 -83 105 -75Q104 -85 96 -96Q88 -107 87 -114Q91 -114 102 -103Q106 -97 113 -90Q119 -83 129 -82H130Q147 -82 197 -110Q311 -170 382 -216Q356 -212 283 -180V-182Q283 -190 290 -195Q297 -199 305 -205Q294 -207 285 -205Q278 -205 266 -199Q255 -193 250 -193H246Q232 -195 218 -198Q209 -194 209 -188L210 -185Q212 -172 246 -172Q257 -172 267 -173Q260 -161 240 -161Q211 -161 197 -177Q190 -187 182 -198Q175 -205 165 -212Q155 -219 153 -227Q153 -234 152 -241Q152 -256 170 -283Q168 -291 168 -293Q168 -313 185 -322Q223 -343 264 -351Q263 -347 257 -342Q250 -336 250 -330V-326H255Q281 -328 306 -334Q302 -353 283 -354Q278 -354 276 -353L275 -356Q275 -359 278 -360Q280 -361 282 -362Q279 -377 253 -387Q263 -388 270 -389Q279 -390 279 -398V-402Q278 -407 272 -410Q265 -414 264 -419Q276 -417 283 -412Q290 -413 292 -422Q282 -432 275 -444Q264 -433 255 -418Q243 -415 233 -415Q203 -416 185 -433Q167 -450 148 -464Q146 -470 142 -471Q136 -472 132 -476Q133 -488 130 -501Q130 -518 128 -525Q117 -529 111 -537H123Q130 -541 155 -564Q178 -585 187 -587V-586Q187 -579 173 -564Q159 -549 159 -540Q159 -533 167 -525Q208 -558 232 -585Q261 -618 279 -656Q268 -655 253 -642Q244 -634 238 -633L237 -636Q241 -647 253 -659Q263 -672 272 -685Q269 -698 265 -712Q280 -727 313 -727Q339 -727 368 -718Q377 -702 388 -684Q399 -666 400 -645V-643Q400 -632 392 -616Q383 -597 383 -587V-585Q409 -592 443 -606Q486 -624 503 -627Q500 -624 496 -621Q491 -619 491 -612Q494 -609 495 -609Q500 -611 504 -614H506Q505 -609 503 -605Q503 -600 509 -599Q531 -636 531 -665Q531 -682 522 -694Q508 -693 496 -686Q483 -679 472 -675Q475 -680 505 -715Q504 -718 501 -719Q497 -721 497 -724V-725Q524 -740 540 -754Q553 -765 564 -774Q575 -783 594 -786Q599 -787 608 -787Q630 -787 641 -763Q656 -728 671 -693Q659 -676 647 -660Q631 -642 627 -625Q627 -617 635 -612Q670 -620 705 -628Q741 -635 774 -648Q766 -659 745 -659Q703 -655 669 -646Q670 -658 683 -663Q685 -664 706 -669Q771 -688 827 -715Q827 -710 828 -702Q829 -695 835 -693Q846 -695 857 -697Q847 -694 847 -682Q847 -675 854 -675Q856 -675 862 -677L863 -675Q859 -667 854 -659Q858 -636 865 -614Q852 -610 850 -606Q852 -599 853 -593Q836 -573 792 -566Q738 -558 727 -552Q709 -542 700 -529Q690 -517 675 -501H672Q669 -501 659 -496Q647 -490 638 -490Q635 -490 629 -492Q625 -486 620 -481L618 -492H615Q606 -492 606 -486Q602 -484 597 -483Q605 -504 621 -521Q634 -525 634 -529L632 -531H629Q609 -526 589 -522H586L587 -518Q587 -515 575 -501Q563 -487 562 -482Q551 -478 538 -478Q523 -478 508 -492Q494 -505 489 -520Q453 -518 444 -514Q429 -507 429 -479Q429 -470 432 -458Q421 -441 385 -447Q364 -473 354 -488Q295 -462 278 -447Q285 -443 293 -437Q300 -432 309 -431Q316 -428 321 -431V-447Q327 -445 333 -431Q349 -430 362 -426Q364 -429 365 -433Q366 -437 370 -438Q373 -426 380 -419Q388 -413 395 -404H397Q404 -406 410 -409Q409 -405 409 -398Q411 -382 413 -366Q413 -361 411 -353Q414 -348 420 -348Q431 -349 442 -351Q439 -375 428 -393Q434 -410 457 -452Q488 -458 499 -470Q509 -468 523 -456Q540 -441 552 -440Q552 -437 551 -435Q553 -417 566 -416Q563 -390 559 -365L563 -364Q574 -364 579 -370Q581 -373 589 -389Q591 -394 597 -401Q602 -407 602 -413Q602 -423 589 -429Q590 -431 594 -432Q600 -434 600 -437Q596 -450 575 -456Q581 -464 591 -462Q601 -460 608 -463L609 -464Q608 -466 606 -468V-470Q617 -475 632 -478Q646 -485 662 -486Q669 -482 677 -475Q700 -466 715 -449Q725 -441 735 -444Q741 -445 741 -435V-432Q737 -411 723 -404Q709 -397 693 -384H694Q714 -388 733 -392Q741 -392 745 -386Q723 -382 702 -378Q681 -375 670 -362Q674 -358 681 -358Q696 -361 711 -364Q786 -374 812 -382Q811 -392 777 -394Q785 -403 801 -406Q817 -408 829 -412Q832 -410 832 -409Q831 -406 829 -404Q843 -385 875 -385Q881 -385 886 -386Q884 -382 873 -379Q860 -375 858 -369Q858 -362 867 -362Q871 -362 879 -364Q879 -360 869 -354Q855 -346 855 -339L857 -338Q861 -338 865 -339L868 -338Q859 -333 845 -307Q833 -285 815 -283Q787 -281 769 -281Q753 -281 737 -282Q682 -282 655 -269Q668 -264 674 -254Q692 -251 700 -240L703 -239Q706 -239 708 -240Q717 -231 729 -225Q741 -220 751 -214Q757 -210 763 -206Q769 -202 771 -195Q756 -197 733 -213Q711 -229 694 -230Q703 -212 721 -202Q739 -192 755 -182Q781 -162 787 -159Q806 -148 826 -148H827Q826 -156 817 -162Q808 -167 802 -174H804Q809 -174 824 -167Q837 -161 845 -160Q855 -163 865 -167Q869 -187 874 -196Q878 -215 886 -220V-217Q881 -189 876 -162V-156Q895 -193 905 -237Q906 -252 915 -263Q914 -251 907 -218Q899 -182 899 -160V-151Q904 -157 906 -172Q909 -193 915 -198Q917 -194 917 -188Q915 -174 913 -160Q913 -145 931 -116Q950 -85 950 -66Q950 -49 939 -33Q918 -27 902 -27Q883 -27 862 -39Q850 -48 838 -60Q820 -73 781 -97ZM721 -134Q655 -178 638 -195Q616 -205 592 -222Q572 -236 559 -241Q557 -234 558 -228Q558 -222 552 -219Q549 -226 549 -234V-238Q543 -244 537 -244H533Q527 -228 527 -215Q527 -207 527 -194Q526 -181 532 -177H534Q539 -178 543 -180L549 -205Q549 -206 550 -206Q552 -200 555 -196Q555 -186 555 -177Q549 -169 549 -163Q549 -155 549 -147Q514 -137 489 -141Q472 -147 468 -156Q464 -164 462 -170Q464 -173 468 -201L465 -203Q430 -174 390 -150Q342 -117 293 -84Q307 -71 334 -71Q377 -75 419 -80H425Q426 -84 426 -89L434 -130Q435 -130 444 -137Q453 -144 463 -144Q479 -141 499 -125Q516 -112 517 -107Q512 -102 509 -94V-91Q515 -90 521 -90Q535 -90 575 -101V-106Q576 -119 584 -125Q593 -130 601 -137Q614 -132 641 -130Q668 -127 678 -118Q692 -125 707 -129Q712 -129 714 -127Q717 -128 721 -134Z"/>
</svg>