<svg xmlns="http://www.w3.org/2000/svg" viewBox="0 -800 1024 1024">
	<path fill="#000000" d="M765 -433V-442Q766 -455 766 -469Q766 -481 762 -488Q751 -487 746 -478Q741 -469 741 -457Q741 -442 746 -429L748 -428Q755 -430 762 -433ZM303 -163Q307 -191 311 -219Q310 -215 302 -209Q293 -202 293 -197Q293 -194 294 -192Q276 -184 276 -159Q276 -149 281 -137Q286 -138 290 -149Q295 -162 303 -163ZM809 -275Q841 -282 845 -282Q857 -288 874 -307Q895 -330 912 -336Q895 -309 877 -283Q869 -272 857 -260Q845 -248 841 -234Q839 -226 839 -212Q839 -191 835 -180Q812 -179 724 -147Q761 -122 803 -100Q845 -78 878 -58Q882 -70 881 -86Q880 -102 881 -115Q886 -110 889 -89Q891 -72 896 -65Q897 -72 895 -104L890 -147Q886 -179 891 -193Q898 -156 914 -49Q917 -61 914 -94Q911 -123 914 -137L916 -123Q918 -97 933 -45Q946 3 949 30Q952 46 950 68H949Q939 68 939 77V78H937Q929 82 921 85L920 86Q902 88 879 75Q854 61 851 45Q852 42 853 39Q858 41 867 46Q881 54 890 55Q885 40 873 29Q861 17 848 4Q817 -32 724 -80Q732 -64 783 -30Q822 -4 830 7H828Q825 7 825 10Q800 -7 761 -33Q722 -59 702 -83Q699 -72 699 -61Q699 -47 707 -3Q715 41 715 57Q715 65 714 69Q712 84 702 97Q691 111 677 111Q661 111 645 85Q630 61 630 42Q632 2 633 -38Q610 -28 591 -10Q572 8 553 26Q532 43 483 99H480Q469 99 464 93Q459 88 452 84Q448 86 443 87Q446 81 446 72Q444 49 441 25Q441 7 451 -3Q440 -28 411 -77Q419 -75 428 -66Q429 -64 441 -50L468 -21L469 -23Q467 -26 465 -30V-32Q478 -26 487 -18Q493 -20 501 -26Q512 -34 518 -34H520Q520 -27 509 -16Q499 -6 499 2V4Q515 -1 531 -12Q574 -39 609 -77Q591 -74 569 -58Q549 -43 535 -41Q543 -61 582 -85Q609 -101 618 -112L597 -106Q588 -104 571 -94Q554 -84 544 -84Q537 -84 529 -90Q527 -100 515 -120Q499 -146 499 -164Q499 -175 503 -184Q513 -196 522 -209Q524 -217 526 -226Q530 -231 545 -236Q557 -240 560 -243Q563 -239 565 -235H593Q590 -228 578 -225Q566 -222 566 -213V-209Q567 -202 580 -202Q593 -202 613 -210Q634 -218 637 -226Q636 -230 632 -232Q627 -234 624 -236V-239Q626 -245 630 -249Q629 -253 629 -263Q618 -268 612 -275V-280L611 -284Q608 -291 599 -300Q589 -310 588 -315V-319Q588 -327 594 -344Q600 -361 600 -370Q600 -374 598 -382Q610 -396 622 -410Q633 -425 653 -432Q649 -426 644 -421Q639 -417 639 -408Q646 -404 654 -404Q661 -404 673 -408Q676 -418 678 -449Q681 -490 690 -505Q683 -513 675 -522Q632 -453 576 -350Q577 -348 577 -344Q576 -332 574 -321Q574 -318 576 -310Q562 -306 547 -303Q533 -281 517 -259Q501 -238 493 -209Q483 -194 472 -180Q464 -178 457 -159Q450 -140 442 -138H440Q434 -138 424 -145Q414 -152 407 -153V-157Q407 -166 397 -172Q389 -177 388 -183Q358 -142 355 -80Q351 -77 348 -77Q344 -77 338 -83Q331 -90 327 -90Q323 -90 321 -88L322 -91Q321 -94 320 -97V-99Q303 -97 300 -83Q296 -68 293 -53Q291 -35 271 -33H270Q255 -33 237 -52Q220 -70 220 -86Q227 -84 234 -75Q243 -63 254 -63H257Q233 -108 208 -135Q205 -130 205 -124Q207 -111 208 -98V-96Q196 -101 189 -110Q181 -119 173 -128V-132Q175 -139 176 -146Q149 -108 138 -86Q117 -45 117 -8Q107 1 102 12Q99 13 91 13Q82 13 79 11Q76 12 73 15Q69 20 65 20Q64 18 64 15Q64 13 66 9Q54 -5 46 -11Q37 -42 37 -88Q39 -147 41 -207V-226Q44 -217 45 -193Q47 -162 54 -152Q59 -156 59 -167Q58 -180 57 -193V-195Q60 -186 63 -177Q66 -167 74 -163Q134 -228 169 -278Q147 -268 127 -241Q117 -243 90 -253L84 -270Q65 -282 59 -291Q48 -306 48 -330Q49 -335 49 -341Q57 -374 65 -408Q74 -466 115 -482Q129 -510 151 -530Q157 -538 165 -546Q172 -553 186 -554Q175 -539 161 -527Q147 -515 143 -492Q155 -506 171 -513Q161 -503 161 -493Q161 -489 164 -485Q229 -529 260 -542V-541Q260 -535 244 -522Q231 -513 215 -504Q198 -495 192 -479Q195 -469 203 -469Q211 -469 238 -488Q309 -536 331 -557Q326 -563 319 -563Q314 -563 301 -554Q291 -547 284 -546Q286 -558 295 -565Q304 -572 311 -579Q331 -601 342 -608Q341 -605 341 -601Q341 -591 350 -587Q367 -596 385 -603L386 -601Q386 -599 381 -595Q371 -587 371 -580Q372 -573 381 -568Q394 -561 398 -555Q412 -535 412 -492Q412 -481 411 -476Q405 -459 401 -444Q401 -438 404 -432Q399 -420 391 -412Q383 -404 377 -395Q351 -394 337 -381Q322 -368 306 -356Q301 -331 288 -314Q274 -297 263 -278Q283 -286 316 -320Q346 -351 374 -356Q377 -355 383 -350Q391 -342 395 -341Q398 -345 401 -349Q404 -353 410 -353H414V-351Q411 -337 407 -324Q407 -320 408 -318L409 -317Q412 -318 415 -320L417 -319Q413 -310 413 -294Q414 -282 414 -270Q449 -297 482 -335Q461 -368 453 -408L456 -410Q460 -407 463 -405Q470 -411 479 -416H484Q504 -412 520 -401Q563 -468 567 -476Q553 -470 540 -444Q531 -426 524 -419Q518 -421 509 -429Q496 -441 484 -441H482Q479 -452 478 -453H477Q471 -450 464 -447Q467 -450 469 -453Q461 -472 458 -497Q458 -500 460 -510Q460 -513 456 -516Q452 -519 451 -521Q466 -550 494 -591Q497 -585 497 -580Q497 -572 489 -557Q480 -541 480 -534Q480 -527 484 -522Q497 -527 509 -548Q517 -561 531 -579Q543 -596 543 -613Q543 -629 531 -637Q519 -631 515 -605H505V-613Q508 -649 510 -686Q510 -699 509 -706Q513 -704 516 -693Q520 -677 530 -677H531L532 -680L533 -682Q531 -687 528 -692V-693Q533 -693 537 -688Q542 -682 544 -681Q551 -687 560 -687Q570 -686 577 -676Q585 -666 590 -653Q599 -628 610 -623Q615 -626 620 -630Q626 -630 637 -624Q646 -619 654 -618Q660 -624 665 -629Q669 -635 678 -636Q674 -620 666 -608L668 -607Q669 -607 672 -610Q675 -614 678 -614H679Q679 -607 678 -600Q678 -587 684 -580Q748 -616 765 -626Q761 -672 737 -705V-719Q732 -724 718 -732Q729 -744 759 -762Q790 -780 802 -795Q824 -785 827 -759Q817 -765 806 -772V-767Q807 -748 819 -736Q830 -723 841 -712V-715Q837 -729 833 -743Q833 -747 836 -752Q848 -739 860 -726V-722Q861 -708 862 -695V-690Q829 -689 829 -645Q829 -636 830 -631Q842 -632 857 -636L859 -634Q859 -632 856 -630Q850 -625 850 -622V-621H851Q860 -624 868 -627Q872 -627 876 -624Q859 -615 859 -603Q859 -599 862 -593H864Q868 -593 871 -594L873 -593L875 -591Q869 -585 863 -580Q867 -564 870 -557Q853 -545 853 -525V-519Q840 -514 827 -509L823 -510Q810 -506 810 -476Q810 -458 814 -444Q861 -460 864 -461Q891 -473 900 -495V-491Q901 -484 901 -477V-474Q906 -469 914 -469Q920 -469 924 -471Q923 -468 923 -463Q923 -454 932 -435Q938 -422 940 -414Q935 -406 933 -399Q933 -397 935 -393L931 -394Q926 -393 925 -386Q924 -380 922 -376H915Q877 -376 851 -361Q841 -363 839 -363Q808 -363 808 -320Q808 -282 809 -275ZM749 -263Q746 -320 746 -322Q748 -327 750 -332Q750 -333 747 -335Q732 -324 718 -324H716V-326Q716 -334 732 -342Q748 -349 749 -357Q735 -359 730 -359Q713 -359 699 -352Q695 -350 672 -335Q649 -320 649 -310L650 -306Q661 -312 672 -313Q682 -319 691 -320L692 -315L691 -314Q698 -307 701 -280Q703 -260 706 -254Q728 -258 749 -263Z"/>
</svg>