<svg xmlns="http://www.w3.org/2000/svg" viewBox="0 -800 1024 1024">
	<path fill="#000000" d="M147 -211H152Q155 -202 158 -194Q143 -197 140 -209Q141 -211 147 -211ZM702 -32Q690 -30 684 -30Q677 -30 674 -32Q676 -41 689 -41Q702 -41 702 -32ZM90 -601H92Q94 -590 96 -580Q80 -582 80 -596Q80 -601 81 -604H82Q86 -602 90 -601ZM731 -445Q712 -452 699 -452Q691 -452 685 -449Q692 -460 693 -464Q690 -465 685 -465Q678 -465 669 -459Q661 -454 657 -454L653 -455Q662 -466 667 -474L666 -476Q644 -471 623 -463Q635 -481 651 -494Q668 -508 684 -523Q584 -509 549 -496Q557 -469 567 -445Q602 -439 637 -439Q673 -439 731 -445ZM738 -59H731Q689 -57 638 -55Q586 -54 568 -29Q574 -26 582 -26Q606 -30 629 -34Q637 -34 644 -31Q617 -21 587 -15Q556 -8 535 7Q535 58 543 82Q537 91 531 100Q524 109 521 124Q504 123 492 123Q480 122 473 112Q470 105 466 97Q458 84 449 71Q443 53 438 40Q434 27 417 23Q429 20 440 -2Q448 -19 456 -24Q458 -10 459 5Q460 19 473 22Q484 -3 484 -61V-88Q483 -114 482 -121Q480 -139 473 -148Q465 -137 465 -113Q466 -97 466 -82Q466 -56 459 -47Q454 -56 454 -71Q457 -100 460 -130V-133Q460 -141 450 -169Q447 -166 441 -164Q436 -163 435 -157H430Q418 -157 409 -163Q400 -168 391 -173Q375 -168 360 -154Q345 -140 329 -124Q312 -111 299 -95Q291 -77 281 -59Q271 -42 247 -40H244Q225 -40 205 -56Q200 -56 198 -53Q199 -55 199 -60Q196 -84 182 -106Q185 -115 185 -124Q184 -141 176 -155Q167 -169 161 -184Q174 -172 187 -157Q183 -182 154 -220Q131 -251 124 -271H125Q133 -271 137 -265Q142 -259 145 -253Q172 -207 195 -193Q194 -198 185 -210Q172 -226 172 -241V-244Q181 -240 192 -220Q208 -191 226 -191H231Q256 -195 284 -215Q295 -227 306 -239Q323 -250 340 -262Q346 -267 389 -310Q383 -321 377 -333Q371 -345 357 -347Q363 -355 369 -363Q366 -368 366 -378V-394Q366 -406 363 -412Q334 -405 334 -364Q334 -346 340 -331Q323 -321 309 -306Q296 -291 274 -289Q266 -289 255 -296Q243 -304 235 -304H232Q222 -315 192 -337H191Q187 -337 181 -330Q177 -325 175 -326V-330Q175 -337 179 -341Q174 -352 164 -352Q152 -352 132 -329Q131 -331 131 -334Q131 -339 138 -347Q145 -354 145 -360V-361Q144 -370 136 -373Q128 -377 120 -382Q105 -392 96 -401Q93 -404 83 -423Q77 -435 64 -437Q77 -444 84 -470Q82 -476 75 -482Q67 -489 65 -493H68Q74 -491 80 -490L84 -491Q96 -524 108 -532V-534Q108 -541 103 -552Q100 -560 99 -567Q104 -565 110 -554Q115 -545 120 -542H121Q133 -545 145 -549Q148 -549 152 -547Q163 -553 163 -571Q162 -584 161 -597Q161 -611 166 -617Q169 -577 173 -566Q181 -541 205 -539Q210 -540 213 -548Q217 -556 222 -557Q222 -548 225 -541Q245 -533 268 -508Q326 -520 385 -538Q397 -546 409 -546Q416 -546 419 -544Q382 -525 335 -512Q314 -504 314 -491Q314 -485 320 -479Q353 -497 424 -520Q479 -538 502 -548Q499 -557 489 -557Q480 -556 470 -555Q465 -555 462 -556Q464 -565 470 -566Q476 -567 484 -569Q476 -608 470 -623Q460 -651 443 -664Q443 -690 414 -697Q413 -706 411 -715H407Q394 -711 386 -707Q384 -707 380 -709Q408 -736 437 -761Q438 -774 443 -781Q449 -788 454 -796Q461 -797 467 -799H470L471 -800V-804L472 -805H473Q507 -825 540 -825Q547 -825 559 -823Q567 -819 574 -815Q597 -809 599 -809Q612 -805 617 -797Q617 -789 624 -778Q630 -769 630 -763Q630 -760 628 -754Q623 -754 610 -767Q598 -779 594 -779Q589 -779 586 -769L585 -765Q585 -757 592 -741Q601 -721 601 -713V-709Q601 -698 595 -676Q589 -654 589 -645Q589 -641 591 -633Q605 -646 617 -688Q626 -720 635 -733Q640 -725 640 -716Q639 -702 632 -687Q624 -673 619 -659Q610 -630 601 -602Q674 -618 746 -634Q759 -639 771 -644Q786 -647 802 -650Q817 -653 827 -664H833Q837 -664 838 -665Q847 -668 856 -687Q864 -703 871 -706Q865 -694 865 -685Q865 -664 891 -655Q900 -658 908 -661H912Q912 -657 907 -652Q903 -648 903 -646L904 -643H905Q909 -643 918 -649Q930 -657 935 -657Q938 -657 940 -656Q935 -653 925 -646Q916 -639 915 -626Q915 -614 923 -614Q928 -614 936 -619L938 -618Q936 -613 933 -608V-599Q933 -579 947 -551Q943 -543 934 -509Q915 -506 896 -503Q893 -503 885 -505Q886 -510 900 -512Q913 -513 915 -520Q908 -535 893 -535Q880 -534 865 -527Q850 -520 838 -515Q811 -506 790 -499Q769 -492 762 -466Q774 -467 795 -478Q820 -491 839 -491H847Q836 -483 811 -472Q774 -455 762 -442Q787 -442 811 -448V-447Q811 -445 808 -445Q805 -445 804 -443Q806 -436 813 -430Q821 -434 826 -434H830Q829 -431 824 -426Q819 -420 818 -415V-414L820 -412H824Q819 -394 819 -393Q819 -389 820 -386Q813 -381 810 -371L811 -367Q808 -368 803 -368Q796 -368 791 -363Q767 -371 734 -371Q696 -371 659 -361Q646 -359 633 -358Q614 -351 594 -344Q581 -342 563 -326Q552 -317 548 -316H544Q528 -316 512 -329Q488 -352 488 -407Q488 -448 499 -478H493Q471 -474 450 -464Q457 -452 464 -440Q470 -428 471 -410Q470 -392 468 -374Q468 -359 473 -349Q480 -346 487 -344Q500 -314 512 -278Q536 -288 560 -293Q569 -293 574 -289Q568 -285 550 -279Q529 -272 521 -265V-264Q521 -259 525 -258Q529 -257 533 -254Q545 -261 589 -274Q625 -285 641 -298Q638 -307 630 -307Q616 -304 601 -301Q610 -323 635 -326Q666 -329 687 -343V-334Q695 -328 706 -328Q720 -329 734 -330Q742 -330 746 -329Q745 -326 738 -323Q730 -320 730 -313V-311H731Q736 -313 741 -316L744 -314L745 -312Q744 -306 743 -300Q743 -293 750 -292Q741 -287 738 -261Q736 -238 728 -232Q704 -234 694 -234Q655 -234 611 -222Q591 -217 542 -199Q547 -189 552 -179Q615 -198 668 -209L662 -197Q667 -191 678 -191Q682 -191 688 -193Q684 -189 684 -185Q688 -173 694 -163V-161Q692 -151 690 -141V-139Q677 -129 658 -128Q640 -128 617 -127Q596 -122 579 -115Q557 -112 543 -101V-85Q592 -95 641 -106Q716 -117 737 -133Q739 -134 742 -136Q745 -138 746 -142Q750 -141 750 -134V-130Q755 -122 767 -122Q780 -123 792 -125Q798 -125 800 -124Q797 -122 793 -121Q788 -120 788 -115Q792 -113 794 -113Q809 -117 824 -122Q829 -122 832 -118Q824 -112 812 -109Q800 -106 797 -95Q803 -91 807 -71Q809 -60 813 -53Q809 -51 803 -42Q798 -35 792 -34L791 -32Q792 -29 792 -26L791 -24Q780 -28 758 -28Q727 -29 717 -37Q719 -43 729 -43Q739 -42 748 -41Q756 -41 759 -47Q755 -59 738 -59Z"/>
</svg>