<svg xmlns="http://www.w3.org/2000/svg" viewBox="0 -800 1024 1024">
	<path fill="#000000" d="M436 -569Q436 -554 432 -539Q422 -531 421 -519Q419 -520 416 -520Q407 -517 398 -515H394Q385 -515 367 -520Q349 -525 338 -525Q331 -525 327 -524Q323 -524 320 -517Q318 -512 315 -512L313 -513V-530Q304 -535 292 -542Q280 -549 266 -550H263Q253 -545 244 -539V-541Q244 -546 256 -556Q267 -565 269 -569Q265 -577 262 -584Q259 -591 253 -594Q250 -594 247 -595Q237 -595 212 -584Q193 -575 186 -575Q195 -589 217 -596Q238 -604 256 -613Q256 -623 247 -641H240Q230 -641 226 -642Q235 -648 243 -652Q252 -655 254 -665V-669Q254 -675 246 -688Q239 -699 238 -708Q242 -706 248 -700Q254 -694 260 -692L262 -695Q261 -698 260 -702V-703Q271 -696 280 -696Q299 -696 304 -725Q307 -717 309 -708Q310 -700 316 -694Q322 -690 337 -687Q354 -684 360 -679Q368 -682 373 -699Q377 -714 383 -717Q383 -696 378 -682Q395 -658 415 -632Q434 -606 436 -569ZM888 -70Q881 -52 867 -43Q867 -45 866 -48Q866 -57 871 -64Q876 -71 884 -71ZM858 -257Q858 -248 851 -241Q846 -242 846 -248Q846 -259 857 -261ZM620 -113Q620 -122 620 -132Q620 -162 623 -169Q621 -172 623 -177Q625 -183 624 -186Q624 -188 620 -188Q622 -191 620 -194Q620 -199 617 -205Q610 -201 603 -203Q607 -216 611 -229Q615 -251 620 -267Q633 -288 662 -294Q692 -300 708 -280Q712 -266 719 -253H717Q706 -256 695 -260Q690 -260 687 -254V-251Q688 -244 695 -238Q702 -232 703 -229V-225Q704 -217 699 -204Q693 -187 694 -178Q689 -109 683 -40Q674 -29 602 33Q598 41 589 43H587Q595 24 631 -11Q655 -34 662 -44H658Q649 -43 641 -35Q633 -27 626 -21Q604 -7 594 0Q568 20 554 42Q546 50 546 61Q546 67 548 70Q556 66 563 59Q570 52 582 50V51Q581 59 572 65Q562 71 554 77Q547 87 539 96Q527 105 502 105H493Q476 95 471 78Q466 61 462 42Q458 29 443 10Q432 -4 429 -10Q442 -7 449 1Q455 10 463 17Q467 14 467 11Q465 4 459 -1Q450 -11 442 -25Q434 -38 421 -52Q443 -39 456 -26Q471 -11 484 -2L485 -4Q483 -12 481 -20L482 -21Q487 -21 494 -16Q502 -10 506 -10H508Q518 -10 556 -32Q586 -49 596 -60Q606 -71 617 -82Q619 -108 620 -113ZM462 -278Q456 -264 456 -255Q456 -247 460 -242H461Q468 -244 475 -246Q491 -196 489 -156L453 -129Q442 -149 399 -149Q397 -144 397 -133V-112Q397 -100 395 -95Q389 -103 388 -127Q387 -149 383 -155Q368 -154 368 -129Q368 -117 371 -108V-107Q369 -106 366 -105Q371 -81 374 -41Q377 0 393 16Q399 11 399 0Q398 -14 397 -29Q397 -37 398 -40Q409 -29 409 -2Q407 28 405 57V60H401Q396 60 389 66Q384 70 378 71Q361 70 345 56Q329 43 315 35Q312 22 309 9Q305 -4 296 -11Q297 -14 297 -20Q297 -44 269 -44Q273 -50 280 -53Q288 -55 293 -56Q305 -126 305 -217V-230Q292 -224 286 -211Q281 -199 273 -186Q251 -154 229 -120Q206 -87 190 -48Q173 -4 167 5Q155 9 150 9Q144 9 140 5Q135 6 129 11Q124 16 121 16H119V14Q122 7 125 -1Q120 -9 110 -14Q105 -44 88 -55V-61Q86 -83 73 -98L77 -97Q82 -98 84 -104Q83 -119 75 -128Q67 -137 60 -146Q67 -145 79 -138Q91 -131 101 -131H104Q124 -135 137 -152Q150 -169 162 -185Q243 -271 270 -302Q242 -293 223 -279Q205 -264 179 -249Q132 -254 115 -276H112Q74 -276 58 -307Q58 -311 57 -316Q58 -336 67 -346Q77 -357 87 -368Q86 -373 86 -382Q89 -419 121 -434Q153 -449 181 -463Q181 -458 169 -449Q151 -436 151 -425V-422Q152 -418 158 -410H160Q174 -411 187 -413Q196 -413 200 -408Q197 -403 183 -401Q165 -399 164 -390Q171 -378 185 -378Q191 -378 220 -387Q313 -415 344 -437L343 -440Q339 -441 332 -441Q317 -441 289 -430Q260 -418 244 -418Q252 -432 274 -440Q276 -441 309 -449Q345 -461 381 -473Q390 -482 399 -489Q407 -497 420 -500Q450 -498 457 -496Q475 -492 479 -479Q492 -438 516 -405Q482 -390 433 -356Q380 -319 368 -298Q378 -288 390 -277Q403 -266 419 -265Q429 -265 439 -271Q438 -267 436 -263Q443 -265 460 -282Q452 -300 452 -316Q464 -334 476 -336Q482 -341 489 -361Q500 -391 513 -396Q519 -398 523 -398Q552 -398 564 -383Q592 -387 619 -394Q610 -500 596 -610Q590 -615 548 -647Q545 -656 545 -663Q545 -684 570 -709Q580 -721 589 -732Q599 -742 609 -743Q612 -742 614 -742Q616 -758 627 -764Q638 -771 648 -779Q660 -782 668 -782Q686 -781 694 -768Q702 -754 712 -734Q720 -721 727 -708Q734 -695 737 -677Q720 -632 716 -592Q721 -589 725 -586Q768 -595 858 -652Q854 -644 851 -637Q857 -639 864 -644Q876 -653 882 -653Q887 -653 890 -652Q884 -645 877 -640Q870 -636 867 -626Q872 -616 883 -616Q891 -616 899 -617H902Q892 -597 892 -589Q892 -579 902 -578Q899 -569 896 -560Q897 -558 897 -553Q897 -543 886 -522Q877 -504 875 -496Q852 -496 828 -497H816Q818 -508 841 -510Q864 -512 866 -523Q860 -534 840 -534H833Q797 -534 764 -525Q726 -515 712 -497Q718 -491 726 -491Q733 -491 748 -496Q766 -502 774 -502Q783 -502 787 -500Q785 -491 776 -490Q767 -489 759 -488Q740 -484 728 -475Q693 -447 693 -420Q693 -413 694 -410Q717 -414 753 -431Q800 -453 825 -453Q846 -453 867 -443L869 -442Q875 -445 881 -448L884 -446Q882 -442 879 -438L881 -436Q887 -437 897 -445Q908 -454 917 -455V-454Q917 -450 909 -442Q896 -428 896 -420Q896 -416 899 -410Q904 -418 908 -427Q907 -422 907 -413Q907 -398 916 -376Q925 -354 925 -341Q925 -330 923 -324Q893 -312 875 -280Q870 -284 870 -289Q876 -305 881 -321Q881 -326 879 -328Q863 -328 852 -319Q837 -307 818 -260Q802 -220 793 -185Q790 -176 790 -160Q790 -136 799 -133Q806 -152 812 -172Q817 -193 836 -199Q831 -179 822 -159Q813 -139 811 -115Q807 -73 802 -61Q806 -57 806 -51Q804 -38 802 -26Q815 -23 827 -20Q841 -33 863 -37Q854 -32 854 -22Q854 -10 864 -5Q872 -12 882 -16Q884 -16 888 -14Q877 -5 875 2Q881 11 894 11Q903 11 922 5Q942 -1 950 -1Q938 6 925 11Q911 15 903 26Q905 38 910 46L934 40L935 42Q929 51 913 59Q910 67 910 73Q911 87 924 96Q936 104 946 112Q936 107 923 107Q906 107 875 122Q853 133 844 135Q828 127 811 120Q795 114 783 102V100Q785 95 786 90Q793 90 805 96Q815 101 820 101Q823 101 827 99Q825 83 808 71Q802 67 776 53Q761 42 742 39Q737 39 735 40Q735 46 746 54Q756 62 756 68Q756 73 753 77Q718 60 701 42Q678 17 675 -19Q682 -28 689 -40Q695 -52 711 -57Q697 -107 702 -137Q712 -187 725 -238Q738 -288 741 -333Q736 -334 727 -334Q668 -334 598 -277Q588 -206 601 -72Q592 -68 584 -62Q575 -56 560 -55Q546 -55 533 -68Q530 -78 526 -82Q522 -86 515 -91Q522 -101 522 -113Q522 -123 515 -143Q509 -161 508 -174Q512 -174 513 -176Q515 -179 517 -179H518Q520 -175 525 -145Q529 -123 539 -117Q546 -124 546 -141Q546 -161 539 -193Q531 -229 522 -239Q517 -237 512 -235V-222Q512 -202 502 -201V-202Q501 -231 488 -246Q474 -261 462 -278Z"/>
</svg>