<svg xmlns="http://www.w3.org/2000/svg" viewBox="0 -800 1024 1024">
	<path fill="#000000" d="M42 -443Q46 -441 49 -440Q43 -414 43 -412Q39 -417 39 -428Q39 -437 42 -443ZM906 -515V-516Q907 -528 919 -529Q922 -529 926 -527Q923 -515 906 -515ZM543 -124H541Q535 -124 532 -121Q529 -118 526 -115Q531 -98 533 -73Q536 -49 551 -38Q553 -40 557 -41Q545 -62 543 -124ZM640 -140V-141L638 -142H634L632 -143Q633 -147 634 -151L632 -154Q620 -154 612 -148Q625 -128 627 -90Q626 -74 625 -59Q625 -46 632 -44Q638 -83 641 -123Q641 -134 640 -140ZM767 -179H762Q743 -177 724 -175Q724 -162 733 -142Q699 -106 690 -49Q701 -55 707 -66Q713 -78 719 -90Q757 -153 767 -179ZM360 -142Q357 -148 357 -155Q361 -177 372 -193Q370 -218 363 -239Q281 -147 246 -79Q262 -63 277 -63Q303 -66 325 -94Q346 -122 360 -142ZM965 -38H967Q964 -33 964 -16Q968 -10 972 -4Q973 0 973 7Q971 31 954 46Q937 61 923 73Q893 59 861 55Q841 53 821 51Q801 49 787 37Q789 34 801 34Q811 34 814 31Q807 11 767 11Q751 11 736 16Q739 27 751 29Q763 30 772 34Q763 44 743 44Q719 44 705 34Q655 38 610 45Q610 44 606 42Q602 40 602 37Q624 27 656 27Q688 27 717 25V23Q717 12 704 8Q697 6 678 6Q637 9 596 11Q559 13 539 17Q510 23 501 37Q503 44 514 44Q527 43 540 41Q547 41 551 45Q549 51 544 51Q541 51 537 50H535Q518 53 490 69Q468 82 456 85Q450 87 446 87Q440 87 430 85Q425 78 408 68Q391 58 385 50Q386 46 386 39V28Q386 22 387 20Q388 16 394 14Q399 12 400 10Q402 9 405 -1Q405 -8 409 -11H412Q422 -11 447 -20Q439 -45 430 -70Q409 -45 407 -34Q406 -33 406 -29Q407 -25 407 -21Q407 -18 406 -16Q394 3 378 20Q360 44 351 58Q333 62 326 84Q320 86 309 86Q289 86 273 69Q264 60 249 36Q251 28 251 25Q250 11 240 0Q230 -11 222 -21L225 -22Q237 -19 248 -11Q252 -15 252 -22Q252 -26 245 -44Q250 -48 255 -52V-54Q255 -59 250 -65Q246 -71 245 -76Q197 -9 138 87Q120 85 105 79H103Q99 82 95 84H93L92 81Q92 80 98 71Q83 46 79 16V14Q80 9 80 4V2Q78 -5 67 -14Q55 -24 55 -34Q63 -32 71 -23Q78 -14 84 -13Q80 -29 67 -43Q51 -55 45 -68Q53 -66 68 -54Q87 -39 98 -39Q107 -39 117 -46Q146 -71 173 -109Q280 -237 325 -310Q316 -335 293 -347Q275 -339 259 -308Q242 -274 227 -266Q231 -286 248 -314Q263 -339 267 -353Q247 -350 234 -333Q222 -316 207 -294Q180 -264 170 -236V-230Q170 -221 173 -214Q180 -216 188 -226Q198 -238 207 -239Q203 -226 187 -204Q172 -184 168 -169Q149 -167 132 -165Q114 -162 105 -149V-162Q102 -167 91 -175Q80 -183 77 -190Q76 -197 74 -205Q71 -211 63 -218Q54 -226 52 -230Q48 -239 47 -261Q46 -289 37 -301Q41 -314 41 -333Q41 -354 40 -375Q40 -385 42 -401Q49 -394 50 -366Q51 -336 60 -329Q65 -336 65 -344Q62 -362 59 -381Q59 -385 61 -391Q65 -385 68 -368Q71 -350 77 -344Q82 -345 82 -350Q81 -358 80 -366Q80 -369 81 -371Q84 -370 86 -365Q87 -361 90 -360Q113 -384 138 -418Q152 -437 152 -444Q152 -452 144 -461V-471Q144 -488 153 -515Q162 -525 183 -528Q187 -529 219 -530Q228 -542 236 -554Q242 -566 243 -567Q247 -568 251 -570V-577L252 -581Q255 -586 262 -593Q270 -600 271 -602Q272 -604 272 -609V-616Q275 -618 278 -620V-621Q278 -623 278 -626H283Q285 -630 285 -638Q282 -655 271 -673H272Q279 -673 284 -667Q289 -662 292 -661Q300 -662 300 -672Q300 -679 298 -682H357Q401 -682 422 -679Q436 -665 438 -640Q440 -616 444 -592Q456 -562 460 -538Q460 -522 447 -512Q425 -497 399 -482Q379 -465 358 -448Q349 -431 339 -415Q411 -325 436 -233Q450 -235 455 -235Q479 -235 490 -218Q505 -218 532 -226Q556 -233 573 -233Q573 -238 566 -244Q557 -251 557 -257V-258Q560 -268 563 -278Q561 -288 559 -298Q559 -302 563 -305Q558 -318 552 -332Q558 -330 563 -322Q567 -315 572 -313Q591 -322 618 -353Q577 -350 532 -332Q517 -324 502 -311Q488 -297 469 -296Q458 -296 449 -301Q431 -307 427 -331Q407 -344 405 -370Q405 -385 416 -392V-397Q416 -415 426 -428Q431 -435 447 -448Q460 -460 474 -464H475Q474 -459 467 -452Q461 -446 459 -442Q485 -439 511 -437Q501 -434 491 -430Q481 -427 477 -418Q478 -411 486 -409Q493 -408 498 -404Q513 -411 553 -416Q606 -422 622 -436Q613 -446 598 -446Q573 -443 548 -440Q539 -440 535 -442Q551 -454 584 -454Q610 -454 622 -460Q615 -474 608 -489Q601 -504 600 -521V-526Q601 -536 614 -550Q627 -564 627 -573Q627 -575 625 -581Q604 -572 579 -556Q573 -552 565 -540Q554 -525 545 -523Q541 -522 534 -522Q509 -522 489 -548V-559Q465 -580 465 -614Q465 -636 478 -650Q462 -677 461 -685H462Q468 -685 471 -678Q474 -672 478 -671Q482 -675 482 -681Q482 -690 471 -701Q456 -717 455 -718Q472 -708 495 -702Q499 -701 503 -701Q523 -703 542 -706Q551 -706 558 -702Q555 -697 543 -693Q528 -688 528 -678V-677Q529 -666 540 -666Q549 -666 576 -677Q648 -702 668 -724Q661 -727 654 -727Q644 -727 625 -718Q606 -709 594 -709Q588 -709 584 -710Q592 -721 608 -727Q624 -733 640 -739Q669 -756 692 -772Q700 -775 708 -775Q729 -775 763 -757Q770 -759 776 -762Q779 -762 781 -761L782 -760Q781 -756 779 -753V-751Q787 -743 796 -743Q804 -743 819 -752Q836 -762 846 -763Q835 -755 825 -746Q814 -737 813 -722V-719L815 -717Q819 -720 825 -723L828 -722Q824 -712 819 -703Q814 -693 814 -679V-674L817 -673Q823 -677 828 -682V-679Q824 -665 819 -652L818 -648Q819 -641 820 -635Q820 -632 819 -630Q815 -615 799 -613Q771 -610 766 -608Q758 -604 750 -592Q741 -580 733 -570Q721 -557 709 -545Q697 -533 696 -514V-508Q697 -497 706 -488Q711 -483 723 -476Q747 -483 773 -488Q799 -493 819 -505Q824 -504 829 -504Q859 -507 895 -514Q893 -510 885 -506Q874 -500 874 -493V-491Q877 -481 893 -481Q912 -482 931 -484H936Q901 -475 901 -458Q901 -450 911 -440H914Q917 -440 921 -442L922 -440Q918 -434 914 -428Q911 -409 903 -392Q889 -374 873 -360Q870 -359 866 -359Q857 -359 840 -366Q826 -372 820 -373Q814 -374 801 -374Q761 -372 723 -367Q702 -332 686 -296Q685 -299 685 -305Q685 -312 691 -326Q696 -338 696 -345Q696 -347 695 -350H691Q682 -350 677 -341Q672 -332 665 -320Q659 -311 652 -301Q646 -291 645 -279Q645 -272 649 -265Q654 -266 661 -274Q668 -282 675 -283Q677 -279 677 -276Q677 -271 670 -260Q665 -252 664 -247Q725 -259 805 -265Q822 -282 840 -284H864Q874 -284 878 -289Q878 -283 874 -277Q879 -271 889 -268Q903 -274 911 -286Q920 -299 938 -301Q929 -289 916 -276Q902 -264 901 -248Q901 -246 903 -238Q910 -239 916 -247Q923 -255 929 -256V-255Q929 -250 923 -242Q912 -228 912 -218V-217Q912 -208 922 -193Q932 -178 932 -171V-169Q931 -154 912 -141Q909 -139 881 -124Q884 -136 889 -145Q886 -149 884 -154Q870 -154 861 -146Q854 -139 846 -124Q830 -96 830 -79Q830 -72 831 -68Q844 -74 850 -89Q855 -103 871 -107Q870 -99 862 -87Q853 -73 852 -62H862Q897 -62 918 -68L921 -67Q919 -63 917 -59Q923 -56 928 -56Q947 -60 964 -67V-66Q964 -62 956 -56Q944 -47 944 -38V-34Q948 -32 949 -32Q957 -35 965 -38Z"/>
</svg>