<svg xmlns="http://www.w3.org/2000/svg" viewBox="0 -800 1024 1024">
	<path fill="#000000" d="M845 -785Q839 -773 831 -764Q827 -767 827 -772Q827 -778 831 -782Q835 -786 841 -786ZM454 -120V-116Q472 -134 472 -147V-152Q467 -145 461 -137Q455 -129 454 -120ZM898 -225V-229Q898 -239 897 -250Q897 -261 907 -261H908Q909 -257 909 -249Q909 -229 898 -225ZM250 -357V-366Q248 -367 245 -367Q234 -367 234 -354Q235 -338 245 -335Q250 -335 254 -340Q250 -344 250 -357ZM303 -515V-518Q303 -527 295 -535Q299 -539 299 -544L297 -546Q282 -540 278 -538Q268 -532 266 -524Q272 -515 280 -509Q292 -512 303 -515ZM294 -380V-368Q294 -355 291 -348Q298 -349 305 -351L309 -350Q313 -362 313 -378Q313 -394 309 -406H308Q294 -406 294 -380ZM362 -368H365Q376 -401 386 -434Q382 -436 375 -436Q345 -436 345 -374V-365Q354 -366 362 -368ZM676 -233Q664 -245 655 -260Q647 -276 637 -291Q609 -239 609 -201Q643 -217 676 -233ZM714 -342V-327Q726 -324 730 -297Q733 -275 740 -269Q756 -303 763 -406Q735 -395 708 -377Q681 -360 655 -344Q657 -345 661 -345Q681 -342 701 -339Q708 -339 714 -342ZM923 51H915Q879 47 851 27Q822 14 802 0Q755 -44 740 -152Q710 -138 675 -116Q660 -106 647 -93Q634 -81 619 -75V-78Q619 -95 642 -113Q660 -123 678 -134Q704 -149 707 -161Q632 -146 580 -96Q570 -86 570 -67Q570 -63 572 -57Q582 -61 592 -65Q597 -61 602 -57Q595 -53 572 -22Q554 2 534 3H532Q517 2 506 -10Q496 -21 486 -35Q480 -41 473 -46Q466 -50 463 -59Q456 -52 456 -37Q456 -32 458 -26Q450 -22 386 6Q369 14 350 22Q331 30 310 31Q326 8 358 -4Q389 -16 418 -29Q413 -37 399 -37Q395 -36 390 -36Q354 -29 315 -7Q288 5 265 15Q242 26 229 46Q233 53 236 59Q251 50 268 46Q273 46 279 49Q261 58 244 65Q228 72 215 84Q203 96 193 109Q182 122 167 130Q152 125 138 119Q123 113 118 99H116Q99 99 91 86Q84 75 84 56Q84 36 92 22Q88 8 88 -4V-12Q97 -28 114 -42Q131 -56 147 -69Q152 -74 155 -80Q158 -86 165 -89Q157 -73 152 -56Q152 -50 158 -44Q173 -47 202 -57Q227 -66 244 -69V-105Q215 -95 186 -86Q137 -116 137 -145Q137 -156 144 -167Q136 -175 129 -193Q121 -214 113 -221Q100 -228 86 -240Q122 -234 125 -234Q141 -234 147 -243Q151 -242 160 -242Q177 -242 203 -249Q230 -256 241 -257Q240 -264 238 -271Q238 -274 239 -276H236Q230 -276 219 -267Q208 -258 199 -258Q172 -267 149 -288Q133 -304 133 -322Q133 -327 134 -330Q141 -329 151 -317Q160 -306 167 -306Q172 -306 175 -308Q164 -333 154 -358Q143 -383 125 -401Q117 -396 117 -383Q117 -374 127 -344H126Q123 -343 120 -342H118Q107 -354 104 -372Q99 -383 94 -395V-402Q97 -424 100 -446Q100 -453 97 -461L98 -462Q100 -462 109 -449Q115 -451 120 -453H122Q134 -451 140 -451Q157 -451 186 -464Q210 -475 226 -476Q221 -483 221 -491Q221 -498 224 -501Q204 -497 181 -472Q176 -473 137 -494Q112 -508 111 -509Q95 -520 92 -530Q89 -554 88 -557Q84 -566 79 -576Q77 -586 77 -590Q78 -610 85 -630Q93 -650 98 -667Q109 -663 119 -660Q129 -665 199 -701Q207 -706 217 -708Q221 -708 224 -704Q199 -691 198 -668Q201 -665 204 -663Q237 -673 279 -699Q315 -718 342 -746Q334 -750 326 -750Q313 -750 287 -734Q265 -721 253 -720V-721Q254 -733 266 -740Q278 -746 291 -752Q326 -769 340 -780Q342 -781 346 -781Q358 -781 373 -766Q385 -753 392 -753H395Q415 -758 434 -764Q418 -754 418 -741V-736Q422 -734 423 -734Q430 -736 437 -739Q427 -730 424 -719Q426 -717 430 -717Q437 -718 443 -720Q440 -712 436 -705Q442 -697 442 -693Q442 -689 439 -683V-681Q439 -677 442 -675Q445 -673 445 -671Q444 -669 444 -662Q445 -649 446 -636Q446 -629 443 -623Q380 -611 359 -575Q366 -570 375 -567L376 -563Q376 -558 374 -552Q391 -559 410 -565Q428 -571 439 -584Q443 -575 452 -570Q460 -579 467 -587Q474 -596 488 -599Q470 -584 470 -555Q470 -534 481 -518Q493 -501 512 -500H514Q525 -501 536 -503H541Q524 -492 515 -473Q523 -476 531 -480H534Q517 -469 517 -438Q517 -426 520 -419Q507 -413 507 -399V-396Q492 -394 488 -380Q460 -380 445 -358Q438 -348 426 -312Q424 -312 421 -313Q407 -313 399 -299Q390 -303 384 -312Q383 -312 380 -306Q377 -312 374 -318Q334 -314 312 -302L325 -282Q352 -293 384 -299Q395 -282 408 -266Q417 -269 426 -272Q428 -272 431 -269Q430 -267 425 -264Q418 -260 417 -254Q419 -245 439 -245H451Q444 -237 437 -233Q430 -229 427 -219V-215Q428 -205 429 -195V-192Q427 -183 416 -169Q405 -156 404 -149Q348 -141 347 -141Q312 -132 312 -112Q312 -107 315 -101Q352 -109 381 -127Q410 -144 440 -161Q428 -155 426 -137V-135Q430 -131 435 -131Q441 -131 451 -142Q464 -156 473 -156H475Q497 -194 498 -197H500Q504 -197 508 -198H510Q506 -186 506 -179Q506 -170 513 -164Q524 -167 534 -170Q539 -237 562 -278H566Q568 -273 568 -264Q565 -239 561 -215Q561 -205 563 -200Q583 -235 592 -282Q600 -329 609 -375Q605 -381 601 -381Q591 -378 586 -352Q580 -325 578 -312Q572 -317 572 -326Q572 -332 574 -344Q581 -390 587 -437Q588 -441 588 -450Q588 -460 587 -462Q585 -472 565 -488Q543 -506 541 -518V-525Q545 -546 548 -568Q548 -581 538 -591Q538 -613 548 -629Q554 -639 571 -656Q584 -672 601 -681Q598 -673 595 -665V-663Q597 -660 599 -657Q613 -661 627 -665Q633 -665 637 -660Q630 -654 621 -649Q612 -643 608 -633Q613 -625 624 -625Q643 -628 664 -639Q711 -659 774 -692Q768 -701 756 -701Q745 -701 718 -688Q688 -674 674 -674H672Q668 -679 668 -683Q669 -691 681 -693Q692 -695 698 -699H702Q707 -699 710 -698Q721 -705 757 -721Q799 -740 818 -755Q820 -749 820 -747Q820 -739 812 -734Q838 -747 874 -771Q871 -764 856 -752Q833 -734 833 -718V-713Q845 -718 858 -731Q857 -728 854 -723Q847 -713 846 -707Q846 -701 845 -696Q845 -674 854 -667L857 -665Q862 -668 866 -671H867Q861 -642 854 -613Q848 -584 831 -564Q760 -547 698 -498Q689 -492 677 -483Q664 -475 663 -464Q663 -459 667 -455Q688 -471 723 -494Q751 -508 754 -510Q761 -517 769 -524Q777 -532 789 -533Q794 -533 797 -532Q803 -530 807 -525Q812 -519 817 -515H818Q826 -518 831 -522L833 -521V-513Q836 -513 839 -517Q843 -522 847 -522H848Q841 -514 839 -501Q840 -498 840 -495Q840 -493 845 -489Q850 -485 852 -480Q856 -469 856 -460Q855 -446 848 -435Q840 -424 831 -410Q786 -334 786 -220Q786 -207 788 -179Q790 -152 801 -132Q815 -107 840 -107H845Q851 -116 855 -140Q861 -171 869 -180Q867 -160 867 -145Q867 -135 869 -117Q876 -144 876 -213Q876 -267 880 -291Q885 -245 886 -196Q887 -148 898 -108Q899 -114 899 -120Q898 -151 896 -182Q896 -208 902 -221Q903 -187 905 -150Q907 -112 929 -98Q933 -86 941 -71Q950 -56 952 -39Q955 -15 955 -9Q955 3 952 12Q950 18 938 28Q923 40 923 50Z"/>
</svg>