<svg xmlns="http://www.w3.org/2000/svg" viewBox="0 -800 1024 1024">
	<path fill="#000000" d="M632 44Q629 33 609 24Q604 34 604 36Q628 44 632 44ZM603 -128L604 -122Q543 -37 515 30Q518 33 523 33Q531 32 536 22Q560 -13 576 -49Q609 -98 628 -142Q625 -142 622 -142Q615 -142 609 -138Q602 -134 603 -128ZM635 22Q666 -12 684 -59Q703 -106 721 -147Q717 -155 707 -153Q697 -152 697 -145Q697 -140 702 -136Q643 -74 612 15Q622 21 635 22ZM245 -277V-274Q229 -273 220 -254Q211 -251 204 -251Q180 -255 155 -259H149Q149 -264 153 -270Q147 -284 131 -287H129Q130 -289 130 -292Q130 -308 108 -308Q99 -308 91 -305Q97 -314 107 -317Q118 -321 128 -325L129 -327Q129 -329 126 -331Q121 -335 121 -338V-339Q125 -337 126 -337Q129 -337 132 -338L135 -337Q136 -340 136 -345Q136 -356 122 -379Q136 -370 149 -361Q153 -361 158 -367Q163 -372 167 -373H170Q194 -369 217 -351Q232 -333 242 -320Q240 -314 240 -310Q243 -293 245 -277ZM513 -456Q500 -435 500 -430H502Q503 -430 506 -434Q509 -438 513 -438H515L516 -436Q516 -433 515 -430Q515 -425 519 -422Q530 -422 545 -426Q559 -429 577 -427Q532 -404 528 -402Q536 -396 547 -396Q641 -420 686 -448Q680 -451 650 -448Q629 -446 613 -442Q634 -454 677 -461Q714 -467 746 -467Q761 -467 777 -464Q793 -469 798 -471L799 -470Q796 -468 793 -461L794 -458Q801 -461 810 -466Q819 -470 833 -471H835Q824 -468 815 -460Q806 -452 806 -444V-441Q811 -443 827 -454Q818 -431 818 -426Q818 -419 824 -415H826Q828 -417 831 -419H832Q829 -403 829 -372Q829 -337 821 -316Q816 -302 774 -302Q726 -278 663 -241Q601 -204 564 -184Q589 -187 653 -211Q709 -232 743 -239Q767 -249 796 -257Q807 -258 820 -254Q826 -256 829 -261Q832 -266 836 -269V-268Q835 -255 834 -242Q836 -233 843 -231Q858 -241 873 -251Q866 -233 855 -215Q858 -206 862 -198Q877 -209 883 -211Q872 -198 873 -182Q875 -172 884 -168L886 -150Q891 -124 885 -105Q869 -92 851 -81Q833 -71 821 -55Q819 -50 817 -45Q815 -40 807 -37Q806 -51 811 -60Q816 -70 820 -79Q818 -82 811 -86Q804 -82 795 -72Q787 -63 783 -60Q774 -34 756 -9Q739 15 741 46V51Q756 43 765 28Q768 23 778 -2Q782 -4 786 -6H789Q787 14 771 43Q756 70 754 87Q723 126 695 133Q689 132 679 123Q669 114 660 114Q647 90 621 77Q623 76 625 74Q631 75 636 75Q633 60 623 54Q613 49 605 42Q592 57 588 89Q572 103 551 108Q545 108 538 108Q532 102 525 80Q518 60 511 53L513 52Q517 53 521 54H523Q525 51 523 48Q522 44 513 35Q511 36 507 43Q504 48 501 49L498 48Q501 27 514 7Q528 -12 537 -33Q534 -33 531 -33Q517 -28 508 -12Q496 3 483 18Q453 55 456 80Q456 84 458 90Q466 88 473 79Q480 68 488 67Q485 92 461 133Q458 133 455 133Q444 138 432 142H431Q410 133 373 95Q346 68 335 60H337Q342 59 350 67Q359 75 363 76Q358 64 334 35Q314 11 307 -2Q319 4 338 24Q357 45 367 50Q370 49 373 47Q366 36 340 7Q308 -28 300 -44Q324 -36 360 6Q384 34 394 40Q449 2 515 -107Q493 -94 472 -87Q456 -87 450 -81Q444 -75 429 -65Q415 -73 398 -78Q381 -82 377 -94Q375 -107 380 -130Q378 -137 376 -145V-148Q376 -159 383 -169Q390 -179 399 -180Q467 -213 530 -251Q603 -295 631 -322Q560 -306 484 -252Q448 -253 431 -292Q418 -297 415 -308Q413 -315 413 -332Q413 -345 418 -352Q422 -358 434 -364Q437 -374 442 -381Q442 -398 452 -415Q450 -414 448 -412Q392 -337 377 -313Q342 -251 307 -184L289 -152Q283 -133 277 -115Q267 -99 252 -86Q237 -73 235 -52V-49Q229 -51 229 -60Q229 -67 232 -76Q235 -85 246 -102Q260 -123 260 -133Q246 -125 233 -110Q221 -94 206 -75Q191 -55 183 -40Q172 -12 172 0Q172 12 180 16Q186 13 193 -2Q202 -19 211 -19H212Q200 19 187 56Q183 68 168 88Q156 104 152 114Q134 95 104 89Q96 80 90 70Q84 59 73 53Q78 32 81 28Q71 15 71 -21Q71 -57 78 -89Q82 -89 82 -84Q82 -79 81 -74V-72Q81 -52 90 -38Q112 -54 141 -96Q164 -128 174 -139Q134 -130 128 -101Q126 -100 123 -100Q114 -101 106 -107Q98 -114 90 -118L57 -135Q61 -204 115 -241Q109 -226 109 -224Q112 -220 115 -216Q150 -227 184 -239Q222 -249 253 -267Q272 -282 285 -303Q297 -324 308 -347Q326 -397 361 -431H358Q339 -431 317 -412Q298 -395 283 -395Q284 -399 290 -406Q295 -411 295 -416V-419Q294 -428 284 -428Q276 -428 264 -422Q260 -423 252 -428Q243 -434 235 -434H233Q230 -428 230 -424Q230 -416 246 -405Q261 -395 261 -388V-387Q258 -386 252 -386Q235 -386 220 -397Q205 -408 202 -425Q190 -437 176 -445Q162 -453 161 -470V-473Q161 -489 174 -504Q182 -513 200 -527V-529Q200 -558 226 -576Q242 -587 280 -599Q280 -595 273 -590Q261 -580 261 -572Q266 -566 281 -566Q290 -566 298 -567Q340 -568 455 -596Q448 -650 445 -660Q436 -691 408 -697Q419 -729 432 -747Q462 -759 482 -769Q494 -776 506 -782Q517 -789 530 -790Q541 -790 548 -785V-784Q548 -775 557 -769Q566 -762 566 -755V-753H563Q557 -753 548 -758Q541 -762 537 -762Q532 -762 527 -757Q528 -749 534 -742Q539 -736 545 -727Q552 -712 557 -696Q562 -680 575 -672Q589 -679 589 -694Q585 -719 577 -742Q587 -739 594 -721Q600 -705 608 -701Q602 -697 602 -682V-664Q568 -650 568 -630Q568 -620 574 -613Q622 -625 673 -636Q724 -646 763 -668Q767 -667 772 -660Q776 -654 781 -653Q784 -652 786 -652Q794 -652 814 -661Q834 -670 843 -670Q840 -666 827 -659Q809 -650 809 -642V-639Q810 -631 818 -631Q834 -634 850 -637Q855 -637 857 -636Q848 -635 841 -627Q834 -619 834 -610Q834 -601 844 -601Q848 -601 851 -602Q847 -592 844 -574Q844 -568 846 -566L847 -564Q850 -565 853 -567L854 -566Q852 -561 844 -557Q835 -553 833 -548Q831 -533 828 -519Q826 -514 822 -509Q815 -501 815 -496Q815 -492 816 -490Q787 -492 757 -494Q745 -494 739 -493Q740 -506 754 -506Q768 -507 777 -512Q774 -517 754 -519Q741 -519 727 -520Q609 -520 551 -491Q561 -486 578 -486Q628 -491 678 -497Q696 -497 709 -491Q662 -482 615 -474Q569 -470 522 -459Q518 -457 513 -456Z"/>
</svg>