<svg xmlns="http://www.w3.org/2000/svg" viewBox="0 -800 1024 1024">
	<path fill="#000000" d="M696 -23Q694 -24 688 -24Q669 -21 647 -13Q613 -5 610 -4Q593 3 593 19Q593 23 595 31Q611 24 682 18Q690 3 696 -23ZM733 -153Q721 -158 711 -158Q679 -153 647 -141Q625 -135 621 -134Q607 -129 607 -119V-116H613Q624 -116 644 -122Q667 -129 680 -129Q687 -129 690 -128Q666 -115 635 -110Q602 -105 589 -79Q603 -80 631 -86Q670 -100 711 -105Q716 -104 720 -104Q728 -143 733 -153ZM438 -169Q438 -167 432 -155Q432 -154 437 -147Q425 -121 425 -94L428 -93Q432 -93 433 -92Q420 -72 420 -52V-49Q379 -39 338 -18Q321 -9 266 23Q277 1 300 -17Q319 -32 349 -46Q336 -49 333 -48Q315 -46 298 -37Q281 -28 258 -15Q252 -12 237 -7Q218 -1 211 6Q197 18 197 32Q197 37 202 42Q207 42 219 34Q230 27 236 27Q238 27 244 29Q239 36 222 48Q212 55 206 61Q198 74 189 89Q180 104 162 105Q156 105 152 104Q137 94 127 77Q114 75 103 75Q92 74 84 66Q74 51 74 32Q74 10 84 -2Q74 -16 74 -41Q74 -56 78 -65Q82 -75 92 -85Q101 -96 110 -106Q118 -116 126 -127Q133 -137 143 -139Q139 -129 133 -121Q128 -112 127 -101Q127 -96 130 -90Q135 -84 144 -84Q149 -84 158 -87Q188 -94 192 -96Q225 -108 263 -127Q287 -138 345 -163Q412 -191 430 -194Q427 -183 423 -172Q425 -169 426 -169Q429 -172 434 -175Q436 -175 437 -172ZM441 -262V-260Q436 -256 429 -243Q424 -233 419 -228Q411 -229 404 -213Q396 -197 388 -194Q379 -194 360 -207Q334 -225 320 -222Q325 -234 337 -239Q348 -244 359 -249Q352 -253 343 -253Q316 -245 288 -238Q234 -228 229 -197Q235 -197 247 -204Q263 -213 276 -213Q286 -214 296 -215Q287 -202 270 -193Q254 -185 237 -177Q206 -164 195 -135Q166 -133 161 -131Q149 -143 136 -167Q123 -192 111 -200Q128 -239 153 -267Q177 -296 200 -329Q138 -313 129 -271H124Q99 -271 86 -285Q81 -291 62 -324Q44 -355 42 -363Q37 -378 37 -399Q38 -402 38 -406Q41 -416 52 -426Q64 -437 72 -445Q106 -485 150 -511Q160 -523 172 -525H174V-523Q166 -512 146 -498Q122 -481 115 -460Q137 -479 176 -500Q222 -525 247 -551Q258 -562 265 -570Q273 -577 277 -593H276Q262 -593 250 -579Q239 -566 227 -563Q233 -583 250 -601Q269 -621 275 -635Q273 -643 269 -644Q280 -648 293 -657Q310 -669 324 -669Q337 -669 347 -663Q371 -648 378 -638Q383 -630 390 -592Q399 -561 401 -540Q396 -527 393 -512V-508Q351 -502 325 -480Q318 -474 281 -465Q249 -457 241 -439Q245 -437 255 -437Q275 -437 314 -450Q312 -443 309 -436Q310 -426 321 -412Q331 -399 331 -387V-386Q329 -373 319 -363Q309 -353 296 -343Q266 -325 255 -300Q292 -322 332 -336Q347 -353 380 -357Q388 -355 390 -355Q395 -355 399 -359L403 -353Q406 -348 427 -325Q430 -315 436 -287Q441 -271 441 -262ZM961 -452Q961 -437 949 -411Q918 -407 900 -387Q897 -383 893 -377Q889 -372 881 -371H879Q881 -382 887 -388Q893 -394 897 -402Q895 -408 887 -408Q874 -408 863 -395Q825 -346 817 -279Q829 -289 837 -304Q844 -319 851 -333Q859 -345 866 -345H869Q856 -317 841 -290Q827 -264 816 -234Q823 -221 837 -221Q846 -221 853 -227L854 -223Q853 -216 851 -210Q858 -212 872 -223Q886 -234 894 -237Q887 -229 879 -217Q870 -206 869 -193Q869 -188 870 -186Q874 -186 878 -192Q881 -197 886 -197H887Q883 -190 883 -178Q883 -160 893 -138Q885 -132 885 -108V-102Q849 -98 832 -63Q827 -68 827 -72Q827 -79 836 -92Q844 -104 845 -108V-109Q843 -112 841 -116Q826 -115 817 -103Q812 -97 804 -77Q776 -44 767 12Q767 19 766 26Q766 52 771 52Q776 50 781 31Q786 11 788 3Q793 -9 798 -21Q810 -36 814 -36L816 -35Q806 -6 792 27Q778 60 776 97H772Q770 97 767 96V98Q766 105 764 112V116Q746 119 727 121Q717 121 706 117Q693 98 682 76Q627 80 598 88Q576 108 562 108Q557 108 554 107Q546 105 543 98Q540 92 536 85Q532 82 527 79Q521 72 518 65Q514 58 508 55V53Q510 48 511 43Q505 30 500 0Q493 -42 482 -57Q471 -70 455 -83Q439 -96 437 -119Q437 -142 456 -165Q445 -191 445 -209Q445 -217 446 -221Q451 -210 454 -198Q457 -186 468 -182V-184Q467 -191 465 -198Q476 -190 487 -180H488Q493 -182 497 -185Q505 -183 508 -183Q521 -184 534 -186Q539 -186 542 -185Q549 -182 554 -178Q559 -173 570 -173H575Q605 -177 638 -189L703 -204L697 -234Q656 -228 605 -220Q554 -213 531 -188Q515 -188 499 -197Q490 -219 476 -245Q469 -262 467 -280Q467 -288 469 -291Q475 -277 480 -262Q486 -248 497 -239Q502 -241 502 -252Q499 -276 491 -302Q484 -334 472 -345H470Q466 -346 462 -347Q460 -347 458 -345Q455 -343 455 -339Q456 -335 456 -331Q456 -327 455 -326H454Q446 -326 444 -332Q442 -337 439 -342Q389 -373 389 -418Q389 -426 390 -431Q391 -437 400 -450Q410 -465 410 -472V-474Q410 -480 405 -490Q401 -498 401 -501Q401 -504 402 -506Q417 -485 422 -485Q424 -485 424 -489Q424 -494 423 -498H424Q428 -498 432 -494Q436 -490 439 -489Q449 -495 466 -495H493Q498 -490 507 -474H517Q562 -474 644 -489Q647 -492 649 -497Q650 -502 656 -503Q674 -543 682 -564Q689 -582 692 -587Q699 -600 709 -603Q708 -597 693 -563Q681 -533 681 -527Q681 -522 685 -521Q688 -520 705 -546Q746 -611 752 -635V-644Q752 -649 753 -651Q757 -663 760 -675Q760 -682 752 -687Q743 -686 741 -679Q739 -672 737 -665Q729 -668 729 -674Q732 -686 734 -698V-701Q730 -712 711 -712Q699 -712 693 -711Q699 -717 707 -720Q716 -723 724 -726L725 -727Q723 -731 721 -735V-737Q750 -745 773 -761Q795 -778 819 -794Q839 -792 853 -784Q867 -776 881 -767Q885 -724 902 -694Q896 -646 887 -629Q838 -624 816 -590Q794 -557 773 -522Q810 -523 833 -535Q857 -547 885 -554Q893 -552 896 -549Q899 -550 901 -553Q904 -558 907 -558H909Q911 -558 911 -554Q911 -550 910 -546L911 -543Q915 -545 925 -555Q933 -563 943 -564Q938 -554 931 -547Q924 -540 923 -526Q924 -522 924 -519L927 -518Q929 -518 933 -522Q938 -527 943 -528V-526Q942 -519 941 -512V-510Q942 -497 949 -487Q955 -477 959 -468Q961 -462 961 -452ZM623 -557V-555Q622 -540 616 -529Q609 -519 602 -507Q597 -506 587 -506Q563 -506 533 -530Q502 -555 480 -558V-559Q481 -562 482 -566V-567Q480 -568 476 -568Q474 -568 449 -561Q451 -570 459 -574Q467 -579 474 -584V-585Q474 -591 466 -597Q459 -602 459 -608Q471 -608 475 -606Q482 -614 482 -624Q482 -634 469 -653Q457 -670 456 -680Q465 -676 477 -663Q487 -652 494 -648Q498 -649 498 -653Q496 -660 494 -668L497 -669Q505 -665 512 -659Q514 -658 518 -658Q530 -661 542 -665H545Q550 -664 555 -656Q560 -648 563 -647L566 -646Q571 -646 575 -653Q580 -661 586 -663Q581 -652 577 -640Q577 -639 579 -633L581 -631Q583 -632 585 -633H586Q588 -621 605 -597Q623 -572 623 -557ZM599 -683Q599 -672 588 -672Q586 -676 586 -678V-686Q590 -690 594 -690Q599 -690 599 -683ZM777 -406Q775 -399 773 -392Q766 -378 759 -364Q743 -350 739 -346L725 -331Q701 -302 683 -294Q682 -296 682 -300Q682 -319 687 -357Q707 -379 715 -394Q720 -403 704 -408Q714 -418 749 -426Q759 -424 764 -414Q771 -415 777 -406ZM777 -406Q787 -434 788 -441Q729 -434 694 -418Q696 -412 696 -409Q693 -396 690 -384Q689 -381 687 -357Q677 -347 667 -337Q669 -320 678 -292Q679 -292 683 -294Q683 -291 685 -289Q710 -294 711 -294Q720 -294 722 -293Q728 -306 759 -364Q777 -382 784 -392Q782 -399 777 -406ZM637 -286Q619 -288 600 -291Q593 -294 580 -302Q578 -304 575 -307Q567 -315 564 -319Q567 -301 569 -284Q571 -276 573 -269Q578 -271 601 -273Q634 -276 639 -280Q638 -283 637 -286ZM631 -337L630 -363Q630 -387 618 -396Q612 -392 587 -388Q559 -383 555 -381V-373Q555 -367 560 -350Q563 -363 572 -372Q583 -379 586 -380Q594 -384 602 -388Q599 -383 602 -374Q609 -360 615 -354Z"/>
</svg>