<svg xmlns="http://www.w3.org/2000/svg" viewBox="0 -800 1024 1024">
	<path fill="#000000" d="M862 -690V-691Q862 -694 866 -700Q870 -706 874 -706Q876 -706 878 -704Q873 -693 862 -690ZM541 66V74Q520 72 517 69V65Q521 63 522 63Q530 65 538 66ZM688 -178V-181Q689 -188 690 -195V-198H681Q662 -198 634 -190Q595 -179 595 -164Q642 -171 688 -178ZM723 -259Q711 -259 698 -260Q614 -260 597 -223Q647 -237 712 -242Q718 -250 723 -259ZM623 -448H624Q627 -449 629 -450L631 -448Q622 -434 622 -425Q622 -419 625 -415Q636 -416 656 -422Q667 -459 677 -496Q673 -498 671 -502L672 -505Q617 -500 595 -474Q597 -467 614 -459Q619 -461 626 -470Q634 -480 639 -480H640Q636 -472 630 -465Q625 -459 623 -448ZM372 -172V-167Q375 -164 378 -163Q386 -160 387 -157Q375 -137 354 -126Q332 -116 312 -104Q285 -86 259 -63Q250 -52 244 -51V-55Q245 -69 259 -80Q273 -91 287 -101Q312 -116 327 -133Q294 -123 259 -98Q216 -70 199 -54Q184 -39 184 -22Q185 -19 185 -16Q193 -18 206 -30Q220 -43 230 -43H231Q221 -29 210 -11Q199 7 185 18Q175 25 167 25Q155 25 138 3Q125 -14 116 -19Q117 -22 117 -25Q117 -35 104 -50Q96 -59 93 -66V-77Q93 -107 114 -142Q126 -163 134 -179Q143 -195 163 -204Q157 -188 143 -158Q148 -154 151 -147Q196 -169 267 -198V-220Q260 -229 249 -233L246 -232V-235Q246 -244 240 -247Q234 -250 229 -253Q217 -265 215 -273Q212 -281 210 -291Q209 -300 199 -301H196Q196 -305 200 -305H201Q205 -305 207 -307Q204 -315 193 -315Q188 -315 185 -314Q203 -331 221 -348Q240 -365 268 -370Q266 -399 259 -411Q186 -385 143 -322Q125 -325 113 -337Q105 -345 92 -365Q83 -377 81 -382Q78 -388 77 -405Q76 -416 69 -431Q63 -445 63 -454Q64 -458 64 -462Q80 -543 140 -589Q117 -563 117 -546Q117 -539 120 -532Q121 -541 125 -549Q131 -560 138 -560H140L142 -557Q139 -551 136 -545V-543Q139 -536 144 -536Q152 -536 168 -545Q186 -555 191 -555H194Q193 -547 178 -537Q168 -530 164 -525Q168 -521 174 -521Q189 -524 203 -534Q232 -547 264 -559Q296 -570 317 -590Q292 -588 250 -569Q220 -556 206 -553Q209 -563 219 -569Q221 -570 238 -578Q257 -587 292 -600Q339 -618 360 -629H363Q363 -628 361 -622Q378 -608 392 -577Q394 -572 413 -521Q412 -518 407 -512Q400 -504 400 -496L396 -498Q385 -498 385 -477V-474Q345 -464 332 -446Q338 -422 358 -397Q369 -408 384 -416Q378 -411 376 -390L379 -388Q381 -390 383 -392L385 -391Q387 -387 387 -386Q386 -381 384 -377V-376Q384 -369 391 -354Q397 -342 397 -336V-334Q393 -326 388 -321V-317Q391 -305 398 -295Q379 -285 358 -274Q337 -263 335 -239Q335 -231 338 -221Q361 -237 386 -237Q394 -237 398 -236Q390 -234 383 -232Q376 -230 375 -221Q376 -218 380 -218Q384 -218 388 -219Q392 -219 393 -216Q379 -212 376 -202V-201Q376 -198 379 -198Q382 -198 382 -195Q372 -183 372 -172ZM804 -46H774Q711 -46 685 -35Q682 -27 682 -20Q682 -9 690 18H677Q671 15 671 -4Q671 -21 668 -25Q665 -8 665 18Q665 63 675 80Q687 78 687 65Q686 54 685 43Q685 35 690 32Q698 44 698 60Q692 109 652 130Q637 124 614 105Q581 78 554 75Q556 72 562 72Q568 73 574 73Q577 73 579 72Q562 62 543 58Q524 53 503 46Q507 45 516 45Q527 45 552 51Q573 56 585 56Q582 46 573 44Q564 41 557 37Q559 35 561 35Q568 38 575 40Q592 37 598 18Q602 6 603 -23Q550 -20 509 12Q495 26 486 32H483Q472 32 443 15Q431 8 417 4Q400 -1 393 -7Q392 -11 392 -20Q392 -45 417 -88Q434 -89 452 -104Q472 -121 489 -121H491Q478 -110 473 -98Q477 -87 492 -87Q513 -89 533 -92Q576 -95 622 -106V-109Q622 -117 616 -121Q614 -121 611 -122Q603 -122 591 -112Q582 -104 576 -103H572Q551 -108 530 -113Q519 -147 502 -169Q495 -178 480 -190Q464 -203 459 -210Q454 -217 454 -228Q454 -238 464 -264Q463 -266 460 -266Q456 -265 451 -264H449Q430 -293 404 -317Q404 -342 408 -366Q411 -390 438 -393H440Q452 -390 464 -387Q501 -396 539 -402Q509 -430 494 -436H497Q504 -436 510 -444Q515 -450 520 -451Q512 -461 497 -471Q482 -482 480 -502V-504Q484 -517 488 -531Q488 -539 482 -555Q477 -569 477 -575V-578Q481 -596 499 -603Q516 -611 526 -621Q535 -611 545 -611Q552 -611 569 -618Q589 -626 601 -626H607Q612 -633 612 -649Q612 -678 600 -700Q594 -711 583 -724Q573 -737 572 -752Q572 -761 577 -769Q585 -781 615 -793Q642 -804 663 -807Q668 -808 676 -808Q699 -808 706 -787Q701 -787 692 -792Q685 -796 680 -796Q676 -796 671 -793Q683 -778 698 -766Q714 -755 716 -730Q716 -722 715 -718Q730 -738 730 -748V-751Q729 -757 721 -764Q713 -771 713 -775L714 -779H715Q738 -774 749 -753Q747 -747 745 -741Q745 -736 749 -735Q741 -718 730 -701Q718 -684 717 -663Q717 -657 718 -653Q747 -666 820 -675V-674L819 -670Q837 -675 854 -681Q841 -675 836 -654Q836 -648 841 -641Q850 -645 859 -647Q851 -638 845 -626Q848 -601 860 -586Q846 -570 837 -549Q793 -537 786 -532L788 -529Q792 -531 796 -534H797Q797 -527 804 -527Q806 -527 810 -529Q808 -517 808 -510Q808 -504 810 -490Q778 -475 761 -445Q808 -453 829 -458Q869 -468 891 -481V-465Q897 -461 903 -457Q911 -461 918 -465Q920 -465 923 -462V-461Q923 -458 919 -458H917L914 -457V-456Q914 -443 923 -439Q933 -440 943 -442Q940 -438 933 -434Q946 -412 955 -387Q947 -377 936 -369Q925 -362 923 -346Q876 -351 837 -351Q816 -351 770 -349Q777 -362 804 -362Q819 -361 833 -361Q856 -361 865 -370Q844 -377 814 -377Q763 -373 712 -370Q671 -366 637 -359Q596 -349 592 -348Q571 -341 561 -325Q582 -328 620 -337Q675 -350 702 -352Q720 -355 726 -355Q744 -355 749 -346Q605 -330 530 -293Q536 -289 541 -286Q559 -297 581 -299Q602 -301 623 -304Q666 -312 708 -321Q731 -325 753 -331Q776 -337 801 -338Q809 -338 825 -336Q828 -328 831 -321Q840 -316 850 -314Q851 -314 857 -307Q861 -307 866 -314Q873 -324 881 -324H882Q879 -319 872 -313Q866 -306 865 -296Q866 -292 869 -292Q873 -293 877 -295V-287Q877 -272 885 -256Q878 -242 878 -227V-221Q875 -222 869 -222Q845 -218 826 -207V-209Q826 -217 838 -225Q848 -232 850 -236Q847 -240 843 -245Q810 -241 789 -218Q769 -197 764 -166Q770 -169 780 -182Q795 -201 806 -201Q811 -201 817 -198Q799 -182 768 -130Q746 -138 723 -142Q718 -142 709 -137Q701 -132 697 -132H694Q688 -132 682 -133Q678 -133 675 -130V-129Q679 -121 685 -113Q733 -122 782 -128Q831 -134 866 -152Q868 -141 874 -136Q879 -140 887 -142V-139Q888 -126 898 -121Q907 -116 917 -110Q913 -76 908 -43Q905 -37 896 -32Q887 -28 885 -25Q873 -35 853 -40Q833 -45 820 -48Q822 -54 838 -56Q852 -58 856 -63Q850 -70 840 -70Q822 -73 801 -73Q736 -73 691 -55Q701 -53 708 -53Q738 -55 768 -58Q792 -58 804 -46Z"/>
</svg>