<svg xmlns="http://www.w3.org/2000/svg" viewBox="0 -800 1024 1024">
	<path fill="#000000" d="M670 -108H665V-106Q665 -100 664 -95Q664 -90 667 -89Q670 -96 672 -103Q672 -104 670 -108ZM682 -79Q684 -87 684 -93Q684 -99 682 -101Q678 -101 677 -102Q677 -83 682 -79ZM58 -20H60Q72 -20 76 -2Q58 -4 58 -20ZM938 -478V-485Q938 -498 947 -498H950L953 -488Q946 -480 940 -477ZM788 -456Q781 -454 773 -452Q780 -463 787 -475Q751 -470 735 -450Q753 -406 763 -384Q782 -401 788 -456ZM215 -449Q213 -449 210 -450Q203 -449 198 -445Q194 -441 191 -440Q195 -448 205 -459Q218 -473 221 -481Q200 -475 185 -465Q169 -454 154 -444Q165 -431 174 -390Q180 -361 185 -350Q200 -381 215 -449ZM560 -602V-594Q513 -558 488 -534Q450 -497 430 -458Q422 -459 416 -467Q408 -461 402 -461V-464Q402 -470 405 -473Q401 -476 397 -476Q395 -476 387 -472V-478Q380 -470 370 -464L369 -467Q371 -471 373 -476Q361 -473 355 -464Q348 -455 340 -447Q343 -462 352 -475Q362 -488 370 -501L402 -555Q405 -550 405 -545Q401 -528 396 -511Q396 -505 399 -501Q414 -518 438 -559Q458 -592 470 -608Q466 -619 459 -620Q447 -617 437 -594Q433 -596 429 -596H427Q441 -628 443 -633Q440 -643 434 -651V-674Q442 -692 461 -703Q476 -711 502 -716Q511 -711 514 -702Q560 -690 560 -602ZM208 111H204Q193 113 181 114H178Q162 106 148 87Q136 67 126 46Q119 36 103 23Q87 10 82 0Q105 8 120 24Q93 -7 58 -39Q77 -35 92 -20Q107 -6 123 4V3Q120 -2 116 -11Q120 -10 132 -3Q147 -19 151 -65Q143 -59 134 -54Q119 -58 102 -66Q102 -74 91 -88Q80 -101 79 -110Q77 -120 77 -130Q77 -149 80 -161Q82 -175 91 -180Q98 -184 111 -184H123Q141 -184 150 -188Q156 -196 156 -221Q144 -219 131 -204Q118 -189 105 -188Q89 -194 77 -210Q72 -217 58 -242Q60 -248 61 -254Q55 -267 55 -280Q55 -303 68 -319Q81 -336 102 -338Q102 -333 101 -329V-326H102Q114 -329 126 -332Q96 -377 73 -441Q77 -439 80 -436Q85 -431 89 -431H91L92 -432Q90 -436 88 -440V-441Q90 -440 95 -440Q108 -440 108 -446Q108 -449 101 -453Q76 -468 66 -482Q52 -497 46 -515V-541Q44 -558 42 -576Q42 -587 46 -596Q81 -610 163 -624Q164 -627 164 -632Q164 -647 147 -674Q131 -699 131 -713Q131 -723 140 -737Q163 -766 197 -771Q200 -770 202 -770Q215 -767 232 -740Q248 -715 251 -699Q252 -696 252 -689V-679Q245 -671 238 -663Q231 -656 230 -642Q263 -648 280 -668Q283 -667 283 -662Q283 -656 284 -653Q290 -655 323 -670Q320 -665 311 -658Q303 -651 302 -642Q302 -638 304 -635Q308 -639 317 -641H320Q310 -629 306 -616Q306 -609 311 -607L313 -606Q318 -608 322 -610Q318 -603 314 -596Q317 -591 317 -585Q317 -577 316 -570Q316 -563 320 -560Q317 -549 314 -539Q314 -534 317 -532Q298 -526 283 -507Q286 -499 289 -491Q290 -490 294 -490Q298 -490 299 -485V-484Q309 -494 317 -494Q306 -489 306 -469Q306 -456 313 -447Q309 -442 309 -435Q309 -433 311 -423Q261 -408 252 -368Q279 -372 298 -398Q303 -379 305 -378H307Q313 -379 319 -380L321 -378L320 -374L322 -371L325 -370Q333 -373 341 -377Q339 -373 334 -369Q326 -363 326 -356V-353Q326 -350 329 -349Q332 -348 334 -347Q330 -342 330 -334Q333 -316 341 -299Q333 -289 333 -275Q334 -270 334 -266Q294 -265 276 -260L277 -264Q277 -268 273 -268Q272 -268 268 -266Q273 -277 287 -282Q300 -286 313 -290Q306 -297 288 -297Q270 -297 254 -291Q237 -284 236 -275Q237 -270 245 -266Q253 -263 254 -258Q244 -255 234 -252Q236 -237 237 -222Q254 -226 283 -241Q305 -253 320 -257Q320 -243 325 -231Q329 -233 334 -233Q337 -233 341 -231Q333 -230 333 -220V-213Q333 -208 332 -206Q327 -194 309 -177Q291 -161 281 -152Q255 -125 228 -99V-84Q228 -49 227 -15V0Q217 -5 216 -34Q215 -62 206 -68Q202 -44 202 -20Q202 28 218 43Q226 34 227 18L230 22L231 20V13Q236 31 238 50Q238 55 237 58Q236 63 231 68Q226 73 226 76Q226 77 228 81Q215 92 208 111ZM930 -271H933Q930 -266 920 -262Q906 -257 905 -249V-248Q905 -245 911 -245Q915 -245 917 -243Q913 -238 908 -234Q914 -228 915 -201Q915 -183 918 -176Q913 -173 908 -171Q908 -159 906 -155Q882 -152 880 -152Q872 -152 864 -155Q868 -160 876 -161Q884 -162 890 -165Q880 -178 850 -178Q833 -178 821 -173Q807 -167 807 -157V-156Q812 -153 818 -153Q832 -155 846 -157Q849 -157 855 -155Q848 -149 832 -144Q814 -139 809 -131Q804 -122 804 -108Q806 -82 808 -56Q808 -49 806 -39Q798 -47 796 -60Q794 -73 791 -86Q784 -82 784 -72Q786 -58 788 -45Q789 -26 790 -3Q790 19 800 31Q807 24 807 6Q807 -7 806 -20Q817 -18 820 1Q824 28 825 31Q818 38 811 61Q803 89 791 95Q780 94 764 82Q751 72 739 70Q733 61 731 58Q725 51 718 49Q714 37 714 18Q714 -30 732 -66Q729 -76 729 -90Q730 -100 730 -111Q723 -110 713 -105Q699 -98 693 -98H690V-88Q690 -68 699 -35Q708 -2 708 15Q708 36 694 54Q679 73 661 73Q648 73 628 58Q596 28 582 -24Q569 -77 557 -126Q553 -120 546 -119Q539 -118 536 -116Q524 -124 514 -135Q486 -130 469 -104Q461 -92 446 -50Q443 -49 436 -49Q418 -52 400 -59Q392 -77 384 -96Q366 -61 360 28Q346 35 340 49Q334 63 326 75Q321 74 311 64Q302 55 297 55Q293 55 290 58V56Q291 52 292 48V46Q277 18 261 -11Q272 -27 272 -43Q272 -66 245 -66H243Q277 -71 299 -103Q313 -123 331 -170Q340 -192 347 -228Q357 -280 357 -290Q352 -311 347 -330V-332Q347 -341 352 -354Q358 -370 358 -377Q358 -383 357 -386Q360 -383 364 -375Q367 -376 369 -379Q371 -383 372 -383Q411 -383 425 -340Q432 -318 436 -264Q418 -250 409 -220Q403 -199 399 -161Q423 -167 444 -179Q441 -339 440 -353Q434 -395 427 -438V-444Q430 -467 461 -467Q473 -467 483 -464Q491 -450 501 -432Q512 -414 513 -394V-387Q512 -381 508 -374Q502 -364 502 -359V-356Q494 -360 494 -373Q496 -387 497 -402Q497 -405 496 -409Q493 -431 479 -438Q475 -433 475 -426Q479 -407 483 -389Q478 -352 473 -316Q473 -301 479 -288Q482 -298 483 -310Q484 -322 492 -327Q494 -319 494 -299Q493 -260 491 -221Q492 -211 492 -201H493Q499 -201 499 -219V-237Q502 -234 504 -231Q505 -232 505 -236V-249Q509 -239 519 -235Q529 -230 538 -225Q534 -297 528 -367Q522 -438 502 -495Q501 -499 493 -503Q499 -508 508 -527Q522 -556 535 -560Q538 -561 542 -561Q553 -561 562 -552Q567 -547 576 -535Q578 -536 581 -541Q584 -547 590 -547H593Q590 -535 586 -523Q586 -518 588 -516Q591 -516 592 -519Q593 -522 594 -524Q596 -510 596 -493Q595 -476 602 -465Q591 -448 590 -418Q589 -388 588 -357Q588 -346 587 -335Q587 -291 605 -183Q613 -139 616 -128Q624 -101 638 -89Q638 -113 650 -117V-110Q650 -94 656 -92Q659 -99 659 -111Q659 -133 649 -146V-154Q650 -192 678 -208Q692 -216 741 -227Q739 -237 736 -248V-251Q733 -252 727 -252Q718 -252 707 -243Q695 -233 687 -233Q680 -230 671 -218Q662 -206 655 -203Q637 -208 630 -222Q623 -237 621 -257Q620 -299 608 -332V-333L609 -335H612V-336Q611 -341 605 -345Q598 -349 597 -353Q599 -354 602 -354Q604 -354 625 -347Q639 -356 671 -360Q666 -366 667 -377Q667 -387 665 -396Q662 -402 658 -409Q659 -414 664 -418Q670 -422 671 -428Q661 -440 645 -451Q629 -461 625 -482V-487Q629 -507 632 -528V-558Q635 -574 644 -585Q653 -596 659 -605L660 -602Q660 -596 659 -591Q659 -586 661 -584L732 -593Q732 -637 702 -660Q687 -658 676 -641Q682 -660 699 -677Q697 -682 693 -686Q686 -684 686 -677Q682 -682 682 -690Q682 -705 695 -722Q721 -748 755 -774Q772 -788 787 -788Q806 -788 828 -764Q835 -755 842 -738Q848 -723 852 -717Q847 -701 844 -680Q836 -674 828 -674Q827 -676 827 -679Q827 -684 834 -693Q840 -700 841 -704Q834 -739 804 -754Q798 -749 798 -742Q798 -732 807 -714Q799 -692 799 -667Q799 -646 806 -636Q812 -639 815 -644Q818 -650 822 -656H835V-651Q835 -643 834 -635Q834 -631 835 -629Q848 -631 870 -638Q907 -650 927 -651Q923 -646 918 -642Q912 -638 911 -629L913 -628Q918 -630 922 -632H924Q911 -628 911 -614Q911 -601 921 -593Q917 -589 917 -585V-578Q917 -572 912 -569Q913 -565 913 -558Q912 -543 904 -533Q895 -523 890 -512Q871 -512 868 -504Q876 -475 893 -472Q889 -462 889 -456Q889 -454 891 -446Q874 -438 868 -422Q894 -425 917 -443Q928 -453 937 -466Q933 -461 933 -451Q933 -433 948 -425Q953 -432 960 -432L964 -431V-429Q964 -426 959 -419Q954 -412 954 -406Q955 -402 958 -402Q962 -403 966 -404L969 -403Q963 -395 963 -388Q963 -379 974 -356Q984 -336 984 -325Q984 -316 980 -311Q972 -300 950 -297Q935 -294 930 -294Q918 -294 917 -302Q945 -306 950 -315Q946 -328 923 -328Q900 -326 876 -324Q856 -324 837 -322Q817 -320 816 -303H822Q844 -305 865 -308Q877 -308 884 -302Q874 -297 852 -291Q822 -283 810 -275Q815 -269 819 -261Q818 -255 816 -249Q816 -245 818 -243Q844 -252 873 -264Q883 -262 886 -262Q893 -262 905 -266Q920 -271 930 -271Z"/>
</svg>