<svg xmlns="http://www.w3.org/2000/svg" viewBox="0 -800 1024 1024">
	<path fill="#000000" d="M224 -241H223Q219 -243 217 -247Q219 -257 227 -257Q229 -257 233 -255Q233 -246 224 -241ZM616 -13V-12Q599 -12 594 -22Q597 -28 602 -28Q614 -26 616 -13ZM865 -334Q863 -340 863 -342Q863 -347 867 -352Q870 -356 876 -356Q879 -353 879 -349Q879 -339 865 -334ZM372 -379H370Q355 -376 353 -367L354 -366Q374 -370 386 -370Q412 -423 418 -447Q395 -446 382 -432Q370 -419 370 -397Q370 -391 372 -379ZM696 107H694Q681 98 668 89Q661 82 650 64Q641 48 634 41Q626 32 612 24Q595 14 590 9Q615 17 640 24Q635 16 610 6Q586 -4 578 -12Q615 -1 651 9Q648 3 638 -3Q627 -10 624 -15Q669 -4 677 -4Q692 -29 718 -93Q737 -140 750 -165Q749 -167 749 -170Q752 -177 754 -185V-187Q751 -196 730 -196Q684 -193 667 -180Q672 -175 682 -175Q697 -177 712 -179Q720 -179 725 -175Q696 -165 672 -159Q647 -153 630 -133Q614 -110 600 -82Q585 -56 575 -27Q563 -2 549 22Q534 46 529 74Q518 78 508 78Q492 77 479 69Q467 60 455 50Q455 37 445 32Q437 28 420 27Q421 25 426 25Q434 26 442 27H446L399 3Q405 3 420 10Q432 16 441 16Q446 16 449 15Q457 13 466 -1Q475 -15 482 -15Q477 -10 477 6Q531 -45 554 -103Q544 -99 526 -69Q509 -42 494 -39Q506 -66 523 -90Q541 -113 557 -136Q549 -141 544 -141Q535 -141 519 -131Q501 -120 493 -120Q486 -120 479 -124Q471 -129 468 -139Q465 -148 459 -159Q453 -166 444 -172Q435 -179 433 -186V-189Q433 -196 439 -200Q445 -204 451 -208Q448 -214 448 -221Q448 -231 451 -237Q465 -242 486 -258Q508 -274 520 -279Q508 -269 508 -259L509 -255Q519 -250 537 -250Q574 -250 616 -270V-274Q615 -288 608 -295Q600 -302 593 -310Q593 -316 592 -323Q592 -360 616 -367Q614 -372 611 -378H613Q624 -375 634 -373Q639 -373 643 -376Q635 -387 620 -387Q609 -387 582 -376Q552 -364 536 -364Q521 -364 513 -370V-374Q513 -392 503 -400Q504 -402 504 -405Q501 -414 498 -424Q511 -445 526 -489Q520 -491 516 -491Q498 -491 491 -478Q496 -464 503 -463Q500 -458 500 -452Q501 -447 501 -442Q482 -421 472 -391Q461 -361 452 -330Q460 -318 471 -308Q481 -298 482 -279V-273Q469 -253 440 -248Q411 -242 384 -234Q361 -224 331 -202Q327 -199 282 -163L280 -162V-160Q291 -162 312 -172Q341 -185 357 -185Q367 -185 380 -180Q388 -183 396 -186Q398 -186 402 -184Q399 -181 395 -179L396 -177V-175Q397 -166 408 -165Q412 -151 415 -141V-139Q410 -131 407 -124L408 -120Q365 -109 344 -98Q314 -82 300 -57Q328 -64 365 -70V-72Q366 -92 381 -97Q395 -103 412 -106Q416 -105 418 -99Q427 -102 435 -105Q435 -102 434 -100Q434 -94 438 -91Q439 -90 446 -86Q462 -93 477 -100Q470 -94 463 -88Q457 -81 454 -69Q458 -65 461 -61Q466 -65 473 -67H476Q471 -61 471 -53Q473 -43 474 -33Q474 -21 465 -8Q455 1 443 2H439Q421 -1 403 -4H401Q392 -4 376 2Q363 7 357 7Q355 7 349 5Q354 -5 365 -8Q377 -11 386 -17Q379 -21 369 -21Q355 -21 326 -10Q274 7 261 32Q273 29 289 21Q313 9 331 9H334Q296 35 257 60Q244 69 234 80Q223 92 206 94H204Q179 94 152 60Q136 44 134 35V30Q138 8 144 -13Q207 -34 261 -86H252Q220 -86 192 -68Q175 -57 149 -31Q99 -36 69 -54Q65 -65 63 -78Q61 -92 52 -97Q51 -100 51 -107Q51 -123 64 -135Q66 -137 91 -155Q152 -197 212 -240Q207 -225 192 -212Q189 -209 165 -192Q126 -164 115 -147Q134 -151 156 -167Q159 -169 190 -196Q215 -218 243 -236Q270 -255 291 -280Q285 -283 281 -283Q274 -283 261 -274Q249 -266 241 -265Q254 -289 294 -319Q290 -332 277 -336Q264 -340 250 -343Q251 -360 277 -362Q311 -365 316 -369Q310 -376 300 -379Q292 -381 276 -382Q264 -383 240 -392Q219 -400 206 -400Q199 -400 196 -399Q198 -388 212 -380Q225 -373 227 -367Q224 -365 217 -365Q210 -365 196 -372Q183 -379 175 -379H173Q169 -378 165 -374Q162 -371 159 -371L155 -372Q155 -378 160 -379Q164 -381 168 -384Q166 -395 147 -403H145Q143 -403 140 -399Q138 -396 136 -396L134 -397V-399Q133 -405 132 -412V-414Q122 -425 104 -444Q85 -462 81 -481Q81 -486 80 -491Q82 -530 113 -543Q104 -560 104 -563Q117 -551 135 -551Q138 -551 173 -556Q175 -588 178 -618Q182 -601 185 -583Q189 -565 202 -556Q204 -559 205 -569Q206 -582 212 -583V-577Q212 -560 222 -552Q228 -547 247 -541Q249 -542 251 -552Q257 -536 272 -533Q278 -533 282 -540Q284 -534 291 -534H303Q327 -550 368 -550H377Q395 -563 417 -570Q439 -578 462 -585Q447 -638 421 -667H416Q405 -666 399 -660Q394 -654 387 -649V-651Q387 -663 399 -675Q410 -686 411 -695Q426 -712 446 -724Q456 -732 477 -753Q502 -779 519 -789Q544 -784 562 -774Q581 -765 587 -742Q568 -756 541 -759Q544 -749 563 -731Q583 -712 584 -697V-696Q584 -690 579 -679Q574 -668 574 -660Q574 -654 575 -651Q586 -658 597 -667Q608 -677 609 -690Q609 -698 598 -708Q589 -717 589 -724Q589 -728 590 -730Q593 -731 597 -731Q614 -731 620 -709Q621 -707 625 -667Q616 -659 608 -650Q599 -641 597 -626Q667 -645 738 -661Q808 -678 871 -709V-707Q870 -702 869 -698L870 -695H871Q877 -695 888 -704Q898 -713 905 -714Q888 -699 888 -688Q888 -682 890 -679Q900 -682 910 -685Q907 -680 907 -677Q910 -666 916 -654Q916 -650 911 -643Q916 -625 922 -610Q928 -595 929 -576Q929 -565 926 -552Q917 -542 910 -522Q897 -526 864 -526H843Q849 -536 860 -540Q872 -544 883 -549Q882 -560 870 -560Q864 -560 861 -559Q847 -556 807 -535Q769 -517 769 -503V-499H770Q778 -499 793 -510Q815 -526 827 -526Q830 -525 833 -525Q830 -517 823 -513Q816 -510 810 -507Q774 -484 742 -451Q732 -465 719 -477Q714 -476 707 -469Q703 -465 698 -463V-466Q698 -471 705 -483Q701 -493 694 -493Q687 -492 680 -487Q672 -482 665 -478Q670 -491 680 -497Q691 -503 698 -511H696Q684 -511 671 -499Q659 -487 648 -486Q655 -507 671 -518Q687 -529 703 -540H697Q669 -539 644 -530Q618 -522 596 -514L597 -510Q597 -507 593 -497Q588 -484 588 -475Q588 -469 589 -465Q592 -464 597 -464Q606 -464 620 -470Q638 -478 649 -478H654V-476Q653 -471 652 -466Q655 -467 659 -467Q663 -467 666 -463Q669 -460 674 -459Q669 -454 669 -445Q673 -422 679 -403Q665 -401 639 -393Q661 -388 679 -383Q697 -378 708 -364Q719 -349 729 -334Q742 -317 747 -304Q745 -298 738 -291Q731 -284 729 -279H731Q765 -279 808 -303Q841 -321 861 -325V-324Q862 -313 869 -309Q876 -305 883 -300Q901 -307 919 -315Q902 -294 898 -282Q903 -278 907 -274Q915 -278 923 -282L924 -278Q922 -269 919 -260Q919 -257 920 -255L922 -254Q925 -255 927 -256L929 -255Q927 -251 927 -239Q927 -225 929 -205Q896 -194 878 -169Q859 -143 839 -118Q838 -121 838 -128Q838 -137 846 -154Q850 -163 852 -172Q829 -166 825 -142Q821 -118 815 -97Q807 -80 798 -63Q789 -46 788 -27Q802 -31 813 -63Q824 -95 839 -100Q836 -78 819 -41Q800 -1 798 18Q797 32 796 47Q796 61 788 74Q774 76 750 90Q720 107 696 107Z"/>
</svg>