<svg xmlns="http://www.w3.org/2000/svg" viewBox="0 -800 1024 1024">
	<path fill="#000000" d="M467 -247H468Q471 -247 472 -244Q473 -241 476 -241Q473 -240 468 -233Q463 -226 457 -226L456 -229Q459 -239 467 -247ZM522 -632L507 -626Q505 -628 505 -633Q507 -646 523 -647H525ZM628 -174V-164Q654 -169 680 -174Q689 -174 696 -170Q709 -209 748 -308Q745 -309 741 -310Q737 -311 737 -314Q758 -327 758 -344V-348Q732 -335 691 -313Q649 -291 631 -267Q623 -255 623 -237Q626 -205 628 -174ZM689 -27V-40Q679 -48 673 -64Q619 -64 609 -35Q594 -40 575 -60Q559 -77 548 -82V-85Q548 -97 537 -106Q544 -114 551 -122Q548 -140 544 -158Q544 -164 547 -170Q553 -168 555 -152Q557 -135 563 -135Q569 -138 572 -151Q573 -155 573 -160Q568 -225 547 -257Q536 -254 536 -243Q540 -225 543 -207Q543 -204 542 -202Q535 -202 533 -209Q533 -210 531 -221Q516 -268 508 -285L507 -282V-273Q490 -263 468 -259Q447 -255 426 -250Q388 -244 375 -214Q401 -197 424 -195Q428 -197 435 -205Q444 -215 452 -217Q442 -207 442 -196Q442 -188 448 -184Q456 -190 467 -193Q464 -183 460 -174Q460 -170 464 -167Q472 -169 487 -179Q505 -191 520 -191H522Q508 -182 493 -174Q475 -163 474 -150Q474 -146 478 -136Q492 -138 505 -141V-139Q505 -135 498 -130Q490 -124 490 -119V-117Q491 -105 507 -99Q522 -93 535 -88H531Q520 -88 508 -89Q489 -89 489 -71Q489 -64 490 -60Q488 -58 461 -28Q460 -31 457 -41Q430 -44 416 -59Q402 -74 386 -94Q373 -107 361 -116Q349 -124 341 -138Q331 -121 308 -60Q303 -39 295 -37Q296 -48 304 -76Q311 -91 313 -105Q313 -110 310 -113Q298 -106 291 -90Q285 -73 277 -56Q253 -10 253 8Q253 23 261 32Q265 29 270 16Q276 -1 286 -3V-1Q286 33 243 76Q235 87 228 91Q226 92 222 92Q202 92 186 72Q178 64 170 45Q162 27 157 22V20Q158 15 159 10V8Q154 1 137 -3Q120 -7 116 -12Q132 -14 147 -16Q135 -21 111 -21Q85 -20 58 -19Q50 -19 42 -20Q66 -30 93 -31Q120 -33 142 -37Q166 -44 182 -60Q197 -77 208 -98Q226 -144 252 -184Q231 -180 209 -164Q186 -153 165 -144Q145 -136 135 -113Q83 -128 55 -158Q47 -169 46 -176V-182Q46 -192 53 -208Q59 -221 60 -230Q61 -232 61 -235Q60 -243 59 -251Q60 -253 60 -256Q63 -265 73 -273Q82 -281 91 -289Q107 -307 125 -314Q113 -301 109 -277Q115 -275 119 -275Q145 -280 171 -285Q180 -285 187 -282Q181 -278 152 -269Q129 -262 122 -250Q127 -242 143 -242H150Q167 -245 184 -253Q200 -262 218 -270Q231 -276 253 -281Q281 -287 291 -293L302 -305Q298 -306 290 -306Q279 -306 257 -299Q237 -293 225 -292V-294Q226 -302 233 -304Q241 -305 248 -307Q278 -319 310 -327Q316 -340 320 -377H317Q290 -374 270 -355Q253 -343 239 -336Q225 -328 216 -313Q212 -312 207 -312Q184 -313 173 -327Q162 -341 148 -351V-356Q148 -368 138 -386Q132 -397 129 -408Q121 -422 116 -428Q129 -439 142 -472Q157 -511 175 -520V-516Q175 -511 170 -501Q164 -489 164 -480Q164 -475 165 -472Q186 -483 211 -541Q218 -562 225 -584Q236 -605 239 -626Q239 -636 231 -641Q216 -633 207 -595Q199 -558 186 -549V-552Q186 -577 202 -622Q213 -653 216 -670Q211 -682 206 -694V-698Q210 -715 213 -732Q225 -744 239 -757Q254 -770 277 -771Q280 -771 292 -769Q308 -743 329 -718Q349 -693 351 -660Q351 -644 345 -628Q341 -625 336 -622Q336 -613 327 -605Q317 -596 317 -587V-586Q305 -576 299 -560Q292 -544 286 -529L285 -526Q350 -544 434 -598Q431 -590 427 -583L428 -580Q439 -585 456 -598Q481 -617 493 -622V-621Q492 -616 486 -610Q479 -605 474 -600Q462 -588 455 -571Q461 -564 467 -564Q473 -564 486 -575Q500 -586 508 -587Q501 -578 491 -569Q480 -560 479 -548Q479 -543 480 -541L482 -540Q489 -543 495 -547Q486 -537 486 -518Q488 -492 490 -466V-460Q475 -435 442 -428Q409 -421 386 -403Q397 -394 401 -382Q406 -371 413 -359Q443 -370 466 -383V-382Q466 -376 471 -374Q476 -372 480 -370Q485 -384 489 -398Q493 -412 507 -417Q523 -459 535 -486Q537 -483 537 -477Q536 -467 535 -457Q535 -450 539 -446Q544 -446 546 -455Q548 -462 553 -463V-462Q554 -453 561 -450Q568 -448 575 -443Q581 -431 590 -420Q600 -425 612 -428Q616 -428 618 -427V-425Q618 -421 608 -414Q598 -407 596 -402Q600 -394 609 -394Q620 -394 652 -414Q671 -425 690 -437Q712 -449 734 -459Q755 -468 769 -481Q765 -487 757 -487Q752 -487 737 -481Q727 -477 697 -461Q668 -445 649 -439Q653 -456 681 -470Q696 -478 732 -490Q743 -493 762 -507Q782 -522 797 -524Q812 -527 825 -527Q838 -527 858 -523Q864 -526 870 -531Q875 -536 886 -537Q886 -533 882 -528Q878 -523 878 -518Q885 -520 898 -531Q914 -545 926 -547Q920 -538 910 -529Q900 -520 899 -508Q899 -503 902 -497H903Q909 -497 915 -505Q919 -510 922 -510L926 -509Q923 -498 920 -487Q920 -478 929 -475Q931 -477 931 -479Q931 -481 934 -481H936Q938 -476 938 -466V-452Q938 -446 939 -443Q941 -436 952 -428Q962 -421 964 -415Q962 -399 962 -388Q962 -375 967 -370Q966 -365 961 -359Q955 -351 954 -345Q933 -343 930 -342Q921 -339 916 -328L918 -326H919L922 -325L921 -323Q897 -309 892 -285L889 -286Q885 -284 881 -283V-286Q885 -303 889 -315Q889 -320 887 -323Q867 -318 858 -290L855 -288Q851 -290 847 -293Q830 -277 821 -253Q813 -228 805 -202Q798 -180 789 -157Q781 -134 780 -111Q781 -106 781 -101Q795 -110 801 -127Q807 -144 812 -161Q827 -202 838 -223Q842 -222 845 -221H847Q851 -224 857 -241Q862 -255 873 -256Q869 -230 855 -205Q818 -114 812 -38Q798 -34 792 -22Q787 -10 782 3Q762 7 755 13Q726 0 711 -1Q711 -9 704 -16Q699 -16 695 -11Q691 -6 687 -6Q689 -12 689 -27Z"/>
</svg>