<svg xmlns="http://www.w3.org/2000/svg" viewBox="0 -800 1024 1024">
	<path fill="#000000" d="M904 -135H911V-121Q911 -105 905 -100Q903 -118 903 -124Q903 -131 904 -135ZM946 -669Q941 -665 929 -663Q928 -665 928 -668Q928 -680 946 -682L947 -678Q947 -673 946 -669ZM669 -200Q674 -218 679 -231L678 -235Q665 -234 651 -217Q637 -200 637 -185Q637 -175 645 -169Q649 -172 657 -185Q663 -195 669 -200ZM392 -400V-398H384Q382 -402 382 -405Q382 -418 390 -420Q393 -419 393 -414Q393 -407 392 -400ZM245 -152V-147Q245 -140 249 -122Q282 -130 291 -137Q291 -140 290 -143Q292 -157 294 -171Q294 -177 291 -182Q267 -173 264 -171Q250 -164 245 -152ZM297 -273H300Q302 -292 303 -311Q268 -306 244 -284Q237 -276 237 -262Q237 -253 238 -248Q251 -255 267 -264Q282 -272 297 -273ZM301 -416V-412Q301 -401 309 -401Q313 -443 316 -485L315 -486H313Q298 -479 264 -445Q231 -414 231 -388Q231 -382 232 -379Q247 -384 273 -400Q291 -411 301 -416ZM814 -311Q835 -293 839 -293H841Q844 -294 846 -296Q840 -311 812 -330Q792 -344 763 -358Q765 -348 778 -336Q789 -326 791 -320Q765 -329 752 -345Q738 -361 721 -379Q720 -391 706 -409Q691 -429 691 -440Q691 -446 692 -450H695Q699 -450 699 -453Q700 -456 702 -460Q714 -472 735 -470Q749 -470 815 -437Q837 -455 849 -455Q844 -447 838 -439Q838 -428 848 -425Q854 -429 859 -436Q864 -442 875 -444Q874 -441 858 -420Q862 -416 866 -416Q878 -422 905 -432Q882 -417 880 -400Q879 -397 881 -390Q895 -390 919 -398Q946 -406 965 -407Q948 -398 928 -392Q908 -387 896 -372Q898 -351 918 -350Q904 -334 904 -308Q901 -297 907 -292H904Q901 -292 893 -294H890Q882 -280 861 -275V-265Q861 -260 858 -259Q850 -260 849 -267Q847 -274 845 -280Q813 -296 804 -309Q781 -302 776 -298Q781 -293 785 -281Q790 -268 793 -265Q796 -267 807 -267V-265Q806 -261 802 -258Q814 -263 827 -265H830Q807 -253 809 -227Q810 -200 802 -172H792Q762 -171 747 -154Q732 -136 717 -118Q766 -78 779 -68Q816 -41 852 -28Q863 -37 868 -78V-89Q868 -99 873 -99H875Q877 -95 877 -76Q878 -52 881 -45Q887 -64 887 -90V-100Q885 -127 882 -154Q882 -170 887 -180Q895 -150 896 -81Q897 -32 899 -15Q903 -24 903 -39V-63Q903 -78 907 -87Q911 -80 914 -46Q913 -13 920 15Q927 24 933 33Q942 51 942 75Q942 83 940 93Q936 98 925 105Q908 116 904 125Q875 112 840 109Q831 86 799 76Q786 64 773 51Q760 41 752 24Q771 28 794 49Q818 71 836 75Q823 49 799 31Q775 13 752 -6Q742 -16 730 -25Q718 -34 704 -36Q705 -24 716 -11Q724 -1 726 6Q712 1 691 -18Q677 -30 668 -36Q635 -4 606 31Q577 66 547 99Q531 96 513 88Q484 76 467 75Q474 69 480 63Q477 52 461 27Q461 25 466 23Q471 22 471 18V17Q468 3 448 -6Q433 -14 378 -29Q378 -8 377 3Q369 16 348 21Q321 2 304 -3L303 -2L304 0Q296 -4 293 -19Q290 -34 286 -46Q245 -37 212 9Q205 13 198 13Q184 10 169 -6Q162 -10 155 -14Q154 -17 153 -21Q148 -28 140 -35Q132 -42 129 -52L127 -53H119Q122 -69 122 -86Q122 -119 111 -177Q99 -240 99 -269Q99 -285 100 -293Q108 -285 111 -269Q113 -253 127 -251Q134 -176 156 -116Q163 -118 163 -128Q163 -134 162 -140Q158 -169 153 -198Q151 -228 150 -256Q149 -285 140 -305H139Q136 -305 133 -302Q131 -299 127 -299Q123 -317 119 -335Q115 -354 101 -362Q93 -359 93 -349Q94 -337 95 -326V-323Q84 -325 77 -342Q71 -358 63 -360Q58 -383 30 -419Q36 -451 38 -457Q44 -477 56 -485Q57 -488 57 -495Q55 -511 53 -528V-533Q58 -531 63 -521Q67 -513 70 -511Q59 -549 48 -587Q55 -579 65 -559Q76 -535 86 -527Q81 -543 76 -560Q82 -555 91 -544Q100 -533 104 -529Q108 -530 118 -543Q126 -541 128 -541Q143 -544 158 -548Q182 -548 202 -536Q207 -529 212 -523Q215 -522 241 -549Q269 -573 319 -611Q321 -637 341 -646Q361 -656 380 -664Q380 -651 387 -647Q398 -663 411 -680Q413 -678 413 -672Q411 -658 409 -645V-643L411 -640Q413 -642 420 -645L423 -644Q431 -613 455 -586V-580Q454 -563 446 -552Q437 -541 430 -529Q426 -522 424 -510Q433 -528 438 -534Q447 -547 460 -551Q476 -589 493 -591L494 -588Q490 -577 486 -564Q496 -564 502 -571Q508 -578 514 -585Q547 -621 581 -676Q579 -681 576 -687Q559 -684 552 -671Q545 -658 539 -645Q533 -642 526 -630Q518 -616 510 -613Q518 -634 536 -664Q553 -693 559 -706Q556 -713 551 -717Q543 -716 536 -706Q530 -698 525 -696Q526 -704 534 -717Q547 -738 547 -752V-756Q568 -796 612 -798Q631 -798 649 -786H652Q657 -786 658 -790Q690 -765 705 -741Q725 -709 725 -664V-661Q705 -631 677 -611Q648 -590 622 -568Q680 -579 731 -592Q729 -597 729 -607Q729 -635 760 -646V-667Q763 -667 767 -663Q770 -660 773 -660Q800 -667 806 -670Q823 -677 828 -691V-680Q828 -654 842 -654Q845 -654 847 -655Q854 -644 862 -636Q875 -638 893 -647Q910 -656 920 -658V-657Q920 -652 907 -643Q887 -630 887 -620V-618Q887 -613 895 -603Q901 -607 910 -609H914Q906 -598 903 -586Q903 -579 910 -576Q948 -586 960 -586Q947 -579 934 -573Q920 -566 914 -552Q914 -551 922 -538Q924 -540 930 -540H945Q914 -524 914 -485Q903 -479 901 -477Q895 -471 895 -462Q889 -469 882 -469Q868 -466 853 -463Q839 -464 818 -478Q795 -494 788 -501Q709 -480 634 -446Q628 -442 624 -440Q631 -433 638 -427Q645 -421 647 -411V-408Q648 -397 629 -371Q603 -337 575 -309Q547 -281 532 -241L527 -240Q503 -237 486 -243Q470 -249 453 -254L452 -258Q449 -272 439 -277Q428 -282 418 -286Q428 -290 437 -295Q430 -298 421 -296Q403 -290 384 -285H380Q378 -233 378 -205Q379 -145 379 -86Q379 -62 379 -39Q423 -26 471 -19Q465 -24 452 -28Q437 -33 431 -39Q436 -39 440 -40Q465 -36 490 -33H493Q527 -35 550 -56Q574 -78 594 -96Q592 -102 586 -104Q580 -106 576 -109Q561 -105 561 -88Q561 -84 562 -81Q542 -78 522 -75Q519 -75 511 -77Q501 -81 490 -95Q478 -110 478 -122Q478 -129 483 -134Q480 -144 480 -151Q481 -166 488 -176Q496 -186 505 -195Q511 -202 515 -208Q519 -214 526 -216Q526 -210 517 -198Q510 -188 510 -182Q510 -177 517 -171Q532 -181 552 -210Q565 -229 573 -237Q570 -241 566 -244Q560 -244 553 -239Q547 -235 542 -234Q546 -248 556 -256Q566 -264 576 -272Q585 -268 595 -268Q616 -269 634 -283Q651 -297 668 -307Q707 -323 761 -321Q768 -314 779 -314Q796 -316 812 -318Q819 -318 822 -317Q820 -315 814 -311ZM511 -392L508 -390Q490 -384 474 -381H472Q450 -382 445 -400Q440 -418 431 -441H422V-446Q422 -457 414 -477Q404 -451 402 -434L399 -435Q396 -434 393 -434H392V-438Q397 -459 402 -481Q402 -490 396 -494Q381 -489 373 -464Q368 -449 363 -416Q351 -332 351 -309Q351 -278 360 -251Q370 -261 370 -298Q370 -342 386 -348Q383 -319 380 -290Q419 -311 455 -335Q484 -357 506 -382Q509 -387 511 -392Z"/>
</svg>