<svg xmlns="http://www.w3.org/2000/svg" viewBox="0 -800 1024 1024">
	<path fill="#000000" d="M518 -211H524Q525 -209 525 -204Q525 -200 522 -188Q517 -190 517 -202Q517 -208 518 -211ZM855 -553V-549Q855 -542 851 -539Q848 -537 842 -535Q841 -536 841 -540V-547Q852 -552 855 -553ZM39 -275H30Q28 -279 28 -285Q28 -294 34 -294H36Q39 -288 39 -281ZM541 -638V-636Q541 -628 534 -624Q532 -623 521 -619V-623Q521 -638 541 -638ZM372 -578H379Q381 -572 382 -567Q371 -565 359 -563Q356 -567 356 -570Q356 -578 372 -578ZM316 -96Q327 -100 336 -106Q344 -112 358 -113Q372 -153 380 -200Q359 -193 337 -170Q333 -162 328 -155Q322 -150 315 -146Q308 -138 308 -127Q308 -116 316 -96ZM565 -275H563Q560 -275 556 -276L555 -275V-272Q529 -277 517 -303Q516 -306 500 -358Q492 -378 489 -399Q490 -403 490 -407Q493 -426 507 -437Q521 -447 534 -458Q542 -469 550 -479Q552 -478 553 -473Q554 -464 558 -462H561Q577 -462 583 -453Q590 -444 590 -430Q589 -400 596 -375Q601 -382 605 -382L609 -381V-379Q606 -370 603 -362Q603 -359 606 -355Q593 -329 593 -307V-299Q590 -298 565 -275ZM960 -311L947 -277Q923 -275 919 -266Q909 -273 897 -279Q886 -285 882 -299Q892 -299 906 -289Q910 -291 913 -294Q911 -311 897 -326Q894 -330 869 -349Q861 -357 853 -365Q845 -373 835 -374Q832 -374 826 -372Q828 -361 841 -348Q853 -337 855 -328Q834 -336 824 -344Q776 -384 757 -440Q753 -458 753 -470V-476Q755 -492 767 -495Q781 -499 798 -501Q806 -514 811 -516Q814 -515 817 -510Q821 -504 824 -503Q828 -506 832 -513Q838 -524 845 -525Q842 -514 842 -506Q842 -484 861 -478Q880 -492 894 -510Q909 -527 931 -536Q928 -530 916 -516Q898 -495 894 -485Q889 -472 889 -465Q889 -451 907 -438Q909 -439 913 -443Q917 -448 923 -448L927 -447V-446Q924 -440 921 -434Q921 -431 928 -424Q934 -424 948 -430Q961 -435 968 -435H972Q966 -425 956 -417Q946 -410 945 -396Q945 -388 947 -384Q950 -383 952 -383Q959 -384 965 -386Q969 -386 972 -383Q959 -380 953 -369Q952 -335 960 -311ZM633 42H632Q631 40 631 36Q631 30 638 23Q644 17 645 14Q640 9 633 9Q618 9 601 32Q585 54 583 70H585Q591 70 599 64Q609 56 617 56Q615 70 597 89Q584 103 580 111Q555 114 538 120V108Q525 89 517 64Q508 39 498 16Q498 13 491 11Q486 10 484 7Q489 0 494 -7Q500 -20 501 -55Q502 -77 504 -89Q507 -99 512 -99Q512 -79 516 -74Q522 -114 522 -144V-154Q521 -162 520 -170Q520 -176 525 -179Q530 -158 531 -135Q531 -111 543 -98Q533 -178 533 -203Q533 -222 534 -231Q539 -210 543 -172Q548 -119 555 -101Q559 -116 559 -139Q564 -133 566 -118Q568 -102 571 -98Q611 -121 644 -151Q677 -181 712 -211Q710 -212 706 -212Q694 -209 682 -206Q664 -224 644 -239V-245Q644 -263 629 -266Q632 -270 632 -276Q632 -285 625 -293Q617 -302 608 -302Q637 -315 640 -355Q644 -394 644 -443Q646 -493 646 -522Q646 -679 581 -701Q584 -712 592 -718Q600 -724 608 -731Q608 -733 605 -733Q602 -733 601 -735Q620 -760 638 -785Q659 -809 673 -809H674Q698 -806 718 -776Q737 -747 753 -725Q765 -715 777 -705Q775 -702 775 -695Q778 -681 781 -667Q781 -662 780 -659Q776 -647 764 -629Q754 -615 751 -607Q739 -582 738 -551Q738 -520 737 -481Q735 -481 733 -477Q730 -472 727 -472V-484Q728 -514 729 -544Q729 -572 722 -590Q707 -577 707 -538Q708 -503 709 -468V-456Q707 -418 707 -402Q707 -367 716 -350Q722 -356 722 -372Q722 -384 721 -397L724 -421Q731 -412 731 -385Q731 -377 730 -369Q731 -360 731 -352Q732 -342 739 -321Q746 -300 746 -287V-284Q746 -277 740 -263Q734 -248 734 -239V-237Q748 -247 769 -280V-283Q769 -301 786 -312Q801 -322 821 -322Q851 -322 861 -302Q862 -289 872 -234Q875 -225 877 -217Q876 -203 869 -192Q861 -182 855 -170Q807 -151 775 -118Q741 -84 706 -50Q723 -87 752 -113Q780 -140 811 -165Q805 -168 800 -168Q785 -168 757 -143Q737 -126 722 -106Q707 -86 689 -64Q675 -50 661 -36Q649 -21 649 -13Q649 -5 657 -1Q660 -2 663 -7Q668 -15 675 -15Q679 -15 682 -14Q683 -12 683 -8Q683 -4 678 0Q673 4 673 7L674 11Q665 14 654 28Q643 42 633 42ZM399 -13H391Q387 -17 377 -19Q365 -22 362 -24Q354 -18 346 -13Q339 -8 328 10Q315 31 304 34Q301 35 295 35Q276 35 260 11Q245 -11 242 -33Q248 -32 253 -23Q257 -16 260 -14Q265 -17 269 -21Q257 -74 225 -107Q208 -124 196 -124Q190 -124 190 -116Q190 -115 192 -107Q195 -98 214 -82Q232 -67 233 -55H232Q223 -56 217 -65Q211 -74 202 -82Q189 -90 178 -98Q167 -107 164 -124Q150 -105 137 -84Q124 -63 123 -30V-27Q115 -26 105 -16Q94 -5 82 -5H76Q75 -9 73 -14V-16Q70 -15 65 -10Q60 -5 54 -4V-7Q57 -16 60 -26V-27Q60 -37 50 -60Q38 -87 38 -105V-111Q40 -131 41 -151H51Q48 -178 39 -206Q36 -218 36 -234Q36 -250 41 -259Q41 -229 60 -180L61 -184Q58 -193 55 -202Q55 -204 57 -208Q62 -204 67 -193Q72 -182 76 -179Q125 -206 161 -248Q196 -290 232 -332Q186 -322 162 -280Q154 -278 150 -278Q132 -280 118 -286Q113 -291 108 -306Q104 -319 99 -325Q91 -332 82 -339Q73 -347 72 -363V-366Q76 -395 81 -419V-423Q80 -448 78 -473Q78 -496 93 -509Q120 -527 147 -545Q151 -549 156 -554Q161 -560 168 -560L170 -557Q169 -554 167 -552V-550Q174 -551 185 -565Q200 -584 213 -585V-584Q211 -576 199 -564Q187 -549 185 -538Q187 -527 197 -527Q207 -527 210 -535Q212 -533 214 -533Q217 -533 217 -530Q223 -534 229 -538H230Q233 -537 236 -536Q244 -540 251 -544Q274 -551 288 -551Q290 -553 291 -557H294Q308 -560 322 -564Q329 -564 334 -560Q314 -547 265 -534Q222 -523 205 -513Q191 -506 188 -493Q190 -489 201 -488Q210 -487 213 -485Q232 -496 279 -509Q308 -517 327 -525Q354 -535 381 -545Q408 -555 429 -573Q425 -576 419 -576Q407 -574 395 -573V-585Q401 -590 414 -593Q429 -596 435 -602Q438 -601 441 -601Q449 -601 460 -609Q472 -618 482 -619Q485 -617 485 -616Q483 -611 481 -607L482 -605H484Q495 -609 506 -614Q510 -614 512 -613Q511 -610 505 -607Q498 -603 498 -597Q501 -595 506 -595Q511 -595 519 -600Q531 -607 538 -607H540Q529 -602 518 -591Q505 -578 505 -568Q505 -559 518 -553Q506 -539 506 -507Q506 -485 509 -464Q491 -441 458 -433Q424 -425 395 -412Q352 -389 313 -340Q303 -328 248 -248Q253 -247 254 -243Q260 -250 266 -257Q282 -260 308 -278Q331 -294 347 -296Q365 -310 384 -323Q402 -337 417 -355Q425 -349 430 -349Q438 -349 445 -359Q450 -367 453 -380Q453 -370 454 -356Q456 -342 469 -338Q470 -339 472 -342Q474 -346 478 -346H479Q480 -336 492 -328Q501 -289 516 -259Q516 -258 513 -221Q503 -212 493 -201Q483 -191 470 -185Q468 -188 468 -192Q472 -202 476 -213L475 -217Q446 -216 431 -184Q418 -157 418 -119V-111Q428 -114 434 -134Q441 -155 453 -158Q449 -136 435 -94Q418 -45 415 -14L411 -15Q407 -12 402 -10Q402 -13 399 -13Z"/>
</svg>