<svg xmlns="http://www.w3.org/2000/svg" viewBox="0 -800 1024 1024">
	<path fill="#000000" d="M425 -293Q415 -292 406 -282Q404 -280 393 -264Q394 -263 403 -263H410Q418 -263 420 -261Q420 -278 425 -293ZM512 -192H516V-229H515Q492 -229 492 -202V-189Q502 -190 512 -192ZM665 -121Q624 -127 598 -148H577Q580 -140 579 -114Q578 -91 582 -82Q628 -91 665 -121ZM512 -275Q509 -294 505 -313Q490 -308 475 -304Q481 -286 490 -272Q507 -272 512 -275ZM616 -244Q611 -245 603 -245Q589 -245 579 -233Q569 -221 569 -204V-202Q576 -202 583 -203H587Q591 -215 600 -225Q609 -235 616 -244ZM490 2Q489 18 480 30Q471 42 463 52Q341 56 309 110H306Q297 113 288 118H284Q267 115 249 112H246Q245 106 236 95Q224 80 224 71Q224 63 229 55Q227 48 224 40Q240 8 255 -5L256 -1Q255 6 253 12Q257 16 263 16Q269 16 281 10Q293 4 300 4Q302 4 308 6Q311 -1 311 -17Q311 -54 294 -58Q288 -53 288 -46Q291 -28 294 -10Q294 -5 293 -3Q286 -4 286 -10Q286 -16 285 -21Q279 -41 264 -50Q269 -105 303 -124V-111Q309 -114 314 -114Q326 -113 334 -101Q342 -89 349 -80Q360 -82 378 -90Q400 -100 410 -100Q415 -100 418 -98Q433 -103 448 -108Q446 -101 444 -94V-92L447 -91Q451 -92 455 -93H457Q456 -85 450 -80Q451 -78 454 -76Q458 -73 458 -70Q457 -51 444 -40Q435 -32 416 -25Q399 -20 383 -15Q367 -10 356 2H360Q386 1 412 -10Q438 -22 463 -31V-34Q465 -43 466 -52Q471 -51 471 -44Q471 -38 470 -32Q473 -27 480 -27Q484 -27 488 -28Q485 -22 485 -19Q488 -8 490 2ZM686 102Q684 107 675 107Q668 107 660 106V104Q660 97 670 97Q681 97 686 102ZM938 43Q938 68 921 86Q884 115 801 116Q798 116 771 113Q741 111 726 103Q732 103 738 102Q760 103 782 104Q806 104 821 98Q810 80 775 79Q740 78 711 77Q704 77 697 76Q682 77 666 77H658Q639 75 619 73Q604 73 594 83Q596 93 618 95Q636 97 636 103H617Q521 103 515 52Q501 44 501 18Q501 5 505 -19Q510 -56 510 -61Q510 -81 502 -96H501Q495 -96 492 -88Q489 -80 483 -80Q488 -109 508 -138Q471 -136 434 -127Q423 -123 406 -112Q382 -96 372 -96Q364 -96 355 -102Q345 -120 345 -135Q345 -147 351 -161Q353 -160 355 -160Q358 -160 358 -157Q376 -170 429 -176Q429 -195 425 -209Q410 -208 384 -187Q361 -168 349 -168Q334 -168 322 -185Q313 -176 280 -121Q274 -110 260 -94Q245 -78 241 -71Q234 -54 226 -38Q217 -24 207 -11Q197 4 183 32Q164 71 153 80Q143 87 128 87Q101 87 90 70Q88 63 85 56Q80 48 75 40Q73 33 71 25Q70 18 63 13Q66 -6 66 -25Q66 -67 52 -127Q60 -119 66 -97Q73 -73 79 -67V-74Q79 -87 71 -112Q63 -137 63 -155V-160Q74 -138 81 -112Q89 -87 105 -71Q119 -73 135 -86Q149 -97 156 -99V-95Q156 -86 143 -76Q128 -65 128 -55Q128 -53 130 -47Q134 -47 134 -44Q151 -53 164 -66Q177 -80 191 -95Q229 -135 264 -191Q244 -186 235 -175Q231 -171 216 -151Q205 -136 195 -133Q203 -154 217 -169Q232 -183 244 -199L296 -279Q287 -280 280 -285V-287Q280 -295 269 -307Q260 -317 259 -321Q258 -325 258 -330Q258 -343 272 -359V-364Q272 -377 280 -381Q288 -386 299 -391L306 -403Q324 -409 324 -404Q330 -396 330 -395Q332 -388 342 -388Q355 -389 368 -391Q374 -391 378 -388Q374 -382 359 -380Q342 -377 339 -369Q340 -363 344 -360Q348 -358 352 -356Q365 -360 401 -363Q451 -368 469 -378Q462 -388 444 -388Q426 -386 407 -385H404Q412 -394 427 -394Q443 -395 456 -398Q456 -414 434 -416Q450 -454 478 -460Q490 -480 516 -477Q533 -482 540 -471Q548 -462 545 -447Q553 -440 559 -428Q550 -423 550 -417V-415Q567 -415 598 -422Q619 -427 631 -428Q646 -437 681 -433Q698 -443 716 -441Q717 -436 719 -433Q746 -439 748 -439Q752 -438 756 -438Q752 -434 743 -430Q730 -425 728 -418Q731 -414 734 -414Q740 -415 745 -416Q748 -416 750 -415Q730 -410 730 -380Q730 -366 731 -357Q725 -353 719 -343Q709 -327 699 -324H696Q685 -327 673 -330H669Q632 -326 600 -321Q603 -313 603 -300Q603 -294 598 -287Q633 -290 668 -294Q676 -295 697 -303Q719 -311 731 -311Q747 -311 760 -299Q766 -301 774 -309Q784 -319 792 -321Q774 -300 774 -286Q774 -275 786 -271Q802 -275 817 -280Q810 -274 802 -267Q795 -261 790 -251Q791 -247 791 -240Q788 -223 784 -207Q770 -197 748 -193Q742 -193 736 -196Q739 -200 750 -204Q763 -208 765 -215Q762 -229 738 -229Q724 -229 716 -226Q707 -223 663 -188Q651 -178 651 -164Q656 -161 660 -161Q666 -161 678 -169Q690 -177 698 -177Q702 -177 704 -176Q698 -167 679 -156Q658 -144 652 -133Q678 -146 705 -154Q724 -149 738 -135Q753 -121 756 -104Q754 -78 686 -54Q661 -45 609 -35Q588 -30 583 -27Q573 -21 573 -6Q574 -2 574 2Q578 4 587 4H590Q601 4 604 9Q637 4 707 -2Q778 -8 817 -15Q825 -26 832 -38H833Q836 -38 836 -34Q836 -31 839 -31Q857 -42 860 -96Q863 -138 871 -151Q873 -145 873 -129Q872 -105 871 -82Q871 -62 876 -52Q886 -65 886 -111V-133Q885 -147 884 -161Q884 -176 895 -180Q893 -146 893 -125Q893 -79 901 -52Q907 -63 908 -95Q909 -121 912 -130Q914 -94 916 -59Q918 -42 926 -15Q938 26 938 43ZM913 -616Q906 -612 898 -608V-598Q885 -580 864 -576Q843 -573 822 -567Q809 -563 799 -553Q789 -544 779 -535Q764 -524 748 -512Q731 -500 726 -480Q716 -482 711 -482Q687 -482 676 -461Q678 -469 679 -477Q679 -482 677 -484Q666 -481 653 -456Q644 -497 673 -530Q640 -530 624 -522Q605 -513 597 -488Q583 -465 558 -464Q522 -480 513 -515Q498 -533 467 -507Q438 -482 435 -457Q434 -450 438 -434Q434 -428 426 -428Q423 -428 420 -429Q418 -428 415 -428Q412 -426 408 -424H406Q395 -424 383 -431Q378 -434 370 -449Q363 -462 358 -464Q356 -465 351 -465Q341 -465 321 -454Q309 -448 301 -437Q289 -423 273 -421Q265 -419 258 -407Q251 -395 245 -393Q245 -390 243 -382Q235 -380 221 -380Q188 -381 167 -399Q146 -417 125 -433Q122 -448 108 -461Q111 -474 111 -488Q111 -505 107 -517Q106 -519 100 -521Q92 -523 91 -527L95 -526H101Q113 -535 175 -589L176 -585Q176 -575 160 -559Q147 -546 147 -540Q147 -534 154 -530Q203 -569 216 -581Q247 -611 264 -643Q246 -642 234 -634Q222 -625 213 -619Q214 -635 236 -653Q257 -669 260 -682Q259 -692 254 -703Q272 -722 310 -722Q342 -722 370 -709Q388 -679 402 -645Q403 -642 403 -636Q403 -627 393 -607Q384 -589 383 -577Q448 -595 511 -620L512 -617Q512 -613 508 -610Q504 -606 504 -604V-602L506 -601Q510 -603 514 -606L517 -605V-603Q517 -598 516 -594Q516 -590 521 -590Q532 -599 537 -619Q546 -646 546 -659Q546 -673 539 -686H534Q520 -686 505 -676Q494 -669 489 -668Q494 -678 507 -688Q516 -698 524 -708Q520 -713 517 -718Q529 -724 555 -749Q570 -763 582 -772Q598 -783 623 -783Q650 -783 660 -768Q664 -761 677 -732Q690 -702 700 -689Q688 -672 674 -657Q660 -642 653 -620Q658 -610 666 -605Q738 -619 822 -646Q811 -660 791 -660Q779 -660 750 -652Q724 -645 712 -645H708L706 -648Q709 -654 715 -655Q722 -656 727 -658Q801 -682 874 -712Q873 -703 872 -695V-692Q877 -686 883 -686Q894 -687 905 -689Q901 -686 896 -683Q890 -681 890 -673V-671Q891 -668 898 -668H913Q912 -665 908 -663Q902 -661 902 -659V-655Q902 -642 913 -616ZM899 -213Q896 -202 892 -192Q887 -200 887 -211Q887 -215 889 -221H897Q899 -217 899 -213ZM907 -725Q905 -721 902 -717Q900 -718 895 -718Q889 -717 882 -717H881Q885 -728 898 -728Q903 -728 907 -725Z"/>
</svg>