<svg xmlns="http://www.w3.org/2000/svg" viewBox="0 -800 1024 1024">
	<path fill="#000000" d="M415 -199Q419 -198 423 -198V-197Q423 -195 420 -194H415L416 -191Q416 -188 415 -186V-184Q417 -182 420 -182L428 -183V-181Q432 -171 435 -162Q429 -156 430 -152V-150Q430 -147 434 -147Q437 -147 438 -145Q427 -134 429 -116Q429 -111 405 -67Q316 -49 286 -24Q279 -17 272 -9Q264 -1 254 0H250Q256 -10 276 -32Q293 -51 301 -64H294Q276 -63 245 -32Q228 -17 210 -2Q193 13 193 37Q193 45 195 48Q199 48 205 42Q217 32 225 31H228Q220 46 211 70Q202 95 181 99Q175 100 167 97Q145 90 122 89Q105 88 90 87Q75 85 68 72Q69 52 58 28Q47 4 56 -9Q73 -27 90 -48Q98 -60 105 -71Q112 -82 123 -85Q123 -78 117 -65Q112 -54 112 -49Q150 -58 192 -81Q234 -106 276 -132Q312 -149 358 -173Q403 -197 415 -199ZM186 -509V-506Q186 -491 171 -488Q171 -510 182 -510ZM287 -175Q291 -187 302 -193Q313 -198 323 -206Q319 -206 314 -207Q286 -207 254 -190Q222 -173 210 -152H213Q221 -152 236 -161Q253 -171 261 -171Q268 -171 273 -167Q204 -128 164 -78Q148 -80 136 -99Q121 -123 115 -128Q119 -135 119 -142Q117 -154 114 -167Q116 -196 137 -215Q157 -233 170 -254Q147 -254 123 -241Q113 -235 103 -227Q92 -220 82 -219H81Q69 -219 56 -235Q44 -250 40 -266Q38 -274 38 -291Q39 -310 39 -330Q39 -342 38 -348Q100 -409 161 -482V-480Q161 -462 143 -439Q127 -419 124 -406Q146 -420 167 -447Q168 -449 202 -497Q208 -506 229 -529Q248 -550 259 -566Q272 -582 272 -589V-592Q255 -585 239 -567Q238 -566 213 -535Q209 -529 205 -523Q201 -517 192 -517Q201 -542 220 -566Q231 -580 256 -605Q257 -625 272 -646Q254 -672 253 -674L257 -675Q271 -671 285 -667H287Q290 -670 290 -672Q288 -678 285 -684Q314 -692 339 -696H344Q358 -694 373 -674Q387 -655 401 -652V-649Q401 -642 400 -635Q400 -629 404 -626H407Q416 -626 429 -635Q421 -619 413 -604Q420 -588 430 -569Q411 -555 410 -529Q314 -495 248 -406Q288 -424 314 -425Q317 -425 321 -431Q323 -429 323 -427Q323 -423 322 -420Q322 -418 324 -416Q326 -414 329 -414Q335 -415 340 -416Q338 -408 338 -405Q338 -396 347 -380Q355 -367 356 -359Q349 -342 341 -325Q301 -304 259 -248Q331 -280 406 -310Q405 -299 394 -290Q383 -279 383 -267Q383 -265 390 -265Q387 -261 383 -251Q388 -237 393 -223Q396 -217 395 -213Q394 -208 384 -206Q336 -190 287 -175ZM651 -228Q658 -255 662 -288Q649 -281 635 -270Q616 -255 616 -245Q616 -236 622 -220Q637 -224 651 -228ZM728 -76Q728 -78 725 -81Q640 -73 578 -28Q578 -15 580 -10Q638 -20 695 -30Q721 -68 728 -76ZM743 -473H736Q731 -473 728 -474Q614 -456 572 -421Q576 -420 586 -420Q606 -420 640 -433Q666 -443 677 -444H687Q702 -444 706 -438Q662 -426 619 -414Q576 -401 547 -370L544 -369L540 -370L538 -369V-363Q538 -344 550 -327Q575 -338 602 -347Q629 -357 651 -370Q664 -380 677 -391Q704 -401 726 -408Q738 -416 745 -429Q753 -441 761 -451L757 -452Q750 -451 743 -450L739 -451Q739 -454 745 -459Q751 -464 751 -467L750 -470Q749 -473 743 -473ZM810 0H812Q816 0 819 3Q822 6 824 6Q830 5 839 -2Q850 -10 856 -10L860 -9Q842 20 817 48Q797 80 776 107Q752 105 739 87Q735 87 733 90Q728 84 726 76L725 75Q722 77 719 78H718Q717 68 709 62Q704 63 700 69Q696 75 692 76V74Q695 62 698 50Q677 44 656 44Q636 46 615 47Q603 48 579 57Q558 65 547 65Q535 65 526 60H524Q521 60 521 63Q521 66 519 66H518Q475 36 471 -19Q462 -35 449 -40Q462 -46 475 -52Q486 -105 496 -156Q501 -150 501 -133Q501 -120 500 -108Q500 -93 506 -87H507Q512 -88 516 -90H518V-95Q518 -111 525 -148Q531 -180 531 -197Q531 -225 516 -243Q507 -241 507 -230Q508 -219 509 -208Q509 -202 506 -198Q498 -204 494 -223Q489 -244 482 -249Q482 -261 484 -266Q481 -271 465 -273Q418 -307 401 -332Q390 -351 381 -373Q374 -385 367 -399Q360 -412 359 -431Q359 -439 362 -448Q367 -457 375 -464Q382 -472 383 -486Q388 -486 392 -480Q395 -475 400 -474H401Q404 -474 407 -479Q409 -482 412 -483Q428 -470 447 -470Q472 -472 498 -481Q564 -494 576 -498Q581 -503 583 -510Q578 -527 578 -542Q579 -563 580 -585Q580 -598 578 -604Q561 -625 548 -635Q528 -649 502 -652Q504 -660 512 -661Q519 -662 526 -664L527 -667Q527 -668 519 -673Q526 -690 541 -693Q563 -714 595 -732Q607 -741 618 -751Q627 -754 635 -757Q643 -765 656 -766H659Q673 -751 690 -736Q707 -721 711 -700H708Q700 -700 691 -708Q680 -717 673 -718Q665 -709 665 -699Q665 -687 682 -668Q697 -651 698 -643V-639Q698 -628 689 -611Q678 -590 678 -579Q680 -572 681 -565Q692 -568 697 -579Q702 -589 708 -600Q714 -608 723 -618Q733 -628 735 -637V-640Q735 -645 730 -655Q726 -663 726 -669Q726 -672 728 -678L731 -679Q742 -675 750 -664Q747 -640 743 -616Q708 -581 708 -546Q709 -540 709 -535Q720 -536 738 -540Q770 -547 785 -547Q787 -548 792 -559Q828 -572 860 -586V-576H866Q878 -576 892 -587Q910 -601 925 -601H928Q925 -590 913 -585Q900 -580 898 -569V-565H899Q916 -569 932 -574L933 -570Q933 -565 926 -558Q919 -551 919 -547Q919 -545 921 -539L923 -537Q926 -538 928 -539H929Q925 -530 925 -517Q925 -502 938 -496V-489Q940 -469 941 -449Q941 -423 925 -412Q913 -408 894 -408H885Q875 -408 869 -407Q843 -404 823 -383Q803 -363 790 -346L796 -330L799 -329Q803 -329 806 -330L809 -328Q806 -321 802 -315V-308Q802 -304 803 -303Q786 -271 769 -239Q752 -208 747 -165Q732 -167 722 -168Q712 -168 702 -177Q663 -174 631 -168Q598 -162 592 -131Q626 -135 706 -153Q756 -160 790 -178V-186Q790 -190 792 -191Q797 -191 797 -187Q797 -183 799 -180Q812 -191 829 -191H833Q839 -193 851 -203Q865 -214 877 -216Q862 -197 860 -189L863 -188Q867 -188 870 -192Q872 -195 875 -195H877V-192Q877 -186 876 -180V-177L878 -176Q882 -178 886 -180Q889 -180 891 -178Q887 -171 887 -165Q887 -150 904 -135Q901 -129 901 -122Q901 -107 910 -97Q910 -66 906 -53Q899 -30 876 -27Q873 -31 873 -36Q873 -42 882 -53Q891 -64 891 -72Q891 -76 890 -78Q886 -86 879 -86Q857 -79 845 -57H844Q843 -57 840 -61Q836 -66 834 -66Q828 -65 815 -49Q801 -34 796 -28Q761 14 752 50Q773 47 784 29Q795 11 810 0Z"/>
</svg>