<svg xmlns="http://www.w3.org/2000/svg" viewBox="0 -800 1024 1024">
	<path fill="#000000" d="M889 -143V-141Q885 -142 885 -149Q885 -155 888 -160H897Q896 -156 893 -152Q889 -148 889 -143ZM845 -432V-436Q845 -448 858 -450Q858 -435 845 -432ZM55 -261H66Q68 -259 68 -254Q66 -243 60 -234Q55 -241 55 -261ZM679 -283V-288H677Q647 -286 646 -259Q646 -256 648 -246Q653 -250 663 -250Q668 -249 673 -249Q676 -266 679 -283ZM272 -147V-140Q271 -131 269 -122Q269 -115 275 -112Q278 -116 285 -121Q294 -127 296 -131Q296 -133 290 -198Q272 -191 272 -147ZM599 -234H603Q601 -255 596 -258Q575 -256 564 -243Q548 -244 538 -251Q529 -259 518 -266Q511 -252 505 -236Q498 -220 497 -202V-200Q506 -223 532 -234V-217Q566 -230 599 -234ZM623 -531V-530Q625 -524 626 -518Q626 -517 624 -513Q665 -526 709 -537Q725 -564 735 -588Q704 -577 673 -567Q626 -549 623 -531ZM674 -426H671Q650 -426 609 -408Q566 -390 549 -345H551Q559 -347 567 -349Q569 -349 573 -347Q579 -355 581 -364Q581 -368 580 -370Q594 -385 613 -385Q634 -385 644 -370Q662 -374 680 -378Q681 -383 681 -389Q681 -401 677 -408L675 -409Q673 -407 670 -406L669 -407Q672 -416 674 -426ZM931 69V74Q926 83 914 94Q902 104 894 112Q887 108 870 104Q853 101 845 95Q831 83 818 64Q811 56 803 48Q796 40 794 30Q814 38 829 56Q844 76 868 79Q871 79 874 78Q864 62 831 38Q807 20 796 8Q781 -10 766 -28Q761 -35 754 -43Q748 -51 738 -52L734 -51Q735 -40 750 -23Q766 -4 769 11Q738 -19 706 -47Q672 -76 660 -128Q664 -130 668 -138Q674 -149 682 -151H684Q701 -147 716 -135Q718 -147 731 -160Q722 -163 709 -163Q648 -159 611 -135Q612 -132 612 -126Q610 -105 608 -85Q608 -76 611 -69Q624 -75 661 -99Q655 -93 651 -79Q651 -75 654 -71Q659 -80 661 -80L664 -78Q662 -68 659 -59Q659 -53 663 -49Q656 -35 630 -21Q603 -6 596 9H599Q609 9 624 -3Q640 -16 652 -16Q658 -16 661 -15V-6Q601 29 580 84Q572 83 563 82Q558 82 555 86Q538 71 526 44Q516 27 516 24Q517 16 518 7Q518 -2 510 -9Q521 -18 529 -29Q537 -40 552 -43V-102Q541 -95 529 -95Q496 -95 478 -146Q437 -65 430 -31Q426 -9 421 10Q415 28 401 41Q397 42 389 42Q362 42 335 17H334Q331 17 330 21Q329 26 326 26V24Q328 15 332 8Q329 -2 323 -11Q326 -18 326 -26Q325 -42 323 -59Q323 -68 326 -77Q323 -81 320 -85Q299 -77 286 -57Q277 -44 267 -16Q227 -24 213 -58Q199 -92 187 -129Q165 -107 145 -69Q133 -47 112 3H111Q108 3 105 -1Q103 -5 99 -5Q96 -4 92 -4Q71 -4 58 -31Q49 -50 45 -84Q45 -91 44 -98Q44 -121 53 -171Q60 -210 60 -226Q63 -159 64 -154Q66 -158 66 -168V-179Q66 -192 70 -195Q75 -156 78 -148Q83 -149 83 -154Q81 -161 79 -168Q79 -171 82 -174Q85 -172 86 -167Q88 -160 91 -159Q123 -207 161 -250L159 -253Q156 -251 152 -249H150Q124 -262 114 -269Q94 -283 91 -301V-306Q93 -324 94 -342V-348Q91 -363 87 -378V-385Q88 -423 104 -457Q119 -490 131 -516V-514Q131 -507 126 -491Q120 -471 120 -462Q120 -453 125 -445Q130 -466 140 -483Q139 -481 139 -475Q139 -457 150 -456V-451Q150 -439 158 -435Q247 -494 294 -534Q290 -538 283 -538Q276 -538 260 -531Q235 -521 202 -495Q195 -489 189 -484Q182 -478 174 -477Q174 -489 189 -502Q204 -517 260 -555Q278 -567 296 -581Q313 -594 334 -603Q340 -596 348 -596Q360 -596 367 -611Q365 -602 362 -593Q362 -589 365 -585Q382 -593 402 -599Q401 -597 393 -592Q381 -584 379 -577V-571Q379 -557 385 -555H386Q388 -555 390 -559Q393 -564 395 -564Q397 -564 398 -561L399 -558Q396 -551 393 -545Q392 -542 392 -534Q392 -511 402 -501Q396 -497 396 -490Q399 -476 401 -463V-459Q398 -451 386 -445Q374 -438 365 -433Q343 -421 329 -410Q325 -405 321 -390Q319 -382 315 -375Q301 -354 287 -329Q273 -303 263 -278Q285 -300 315 -335Q334 -354 348 -354H349Q362 -351 366 -337Q369 -323 376 -312L377 -311Q380 -312 382 -314L385 -313Q382 -305 382 -298Q382 -286 392 -264Q399 -248 401 -240Q364 -186 364 -131V-123Q372 -133 389 -161Q411 -197 427 -213V-209Q424 -186 408 -166Q392 -146 387 -126Q387 -118 393 -114Q412 -133 423 -159Q435 -184 447 -209Q461 -233 475 -257Q489 -282 492 -310Q478 -306 467 -277Q456 -249 439 -244Q449 -270 498 -373Q515 -406 516 -453Q521 -457 527 -459H529Q532 -483 541 -499Q538 -500 533 -500Q508 -500 494 -480Q490 -473 485 -466Q480 -460 470 -459Q449 -459 441 -495Q425 -500 417 -517Q409 -533 409 -554Q409 -591 427 -609V-618Q427 -648 449 -669Q461 -680 495 -699Q489 -694 482 -688Q476 -682 475 -670V-666Q476 -665 478 -668Q479 -671 483 -672H485Q484 -668 482 -665Q482 -664 484 -660Q498 -661 522 -672Q552 -686 575 -686H580Q578 -675 553 -668Q529 -661 529 -650Q529 -648 531 -642Q593 -657 653 -683Q683 -695 716 -704Q748 -713 774 -732H771Q734 -732 680 -711Q639 -695 611 -691Q615 -703 627 -707Q638 -710 648 -715H663Q720 -737 777 -760L779 -761Q782 -759 784 -757Q788 -766 799 -766Q804 -766 808 -763Q815 -765 825 -774Q839 -786 847 -786L851 -785Q860 -778 871 -769Q877 -770 883 -772H885V-771Q884 -767 883 -763L885 -760Q897 -766 909 -772V-771Q909 -768 902 -761Q891 -749 891 -743Q891 -739 894 -735Q896 -735 898 -739Q900 -744 904 -744H906Q904 -732 902 -721Q903 -718 903 -715Q904 -710 911 -701Q920 -689 922 -681Q924 -673 924 -656Q923 -629 922 -602Q900 -600 891 -590V-589Q893 -587 895 -585V-583Q887 -581 874 -570Q863 -561 854 -558V-560Q854 -576 865 -595Q874 -611 876 -620Q871 -625 867 -625Q860 -624 855 -617Q850 -609 845 -603Q833 -594 820 -588Q809 -579 802 -566Q795 -553 787 -536Q779 -522 774 -493Q774 -483 781 -477Q796 -498 811 -519Q826 -540 847 -549H849Q844 -534 827 -503Q802 -459 797 -430Q795 -431 792 -431Q785 -431 777 -423H775Q770 -423 766 -427Q762 -431 759 -432Q766 -416 766 -413Q766 -407 762 -402Q798 -411 838 -427Q835 -423 829 -417Q823 -411 822 -400Q822 -396 823 -393L826 -392Q828 -392 831 -395Q836 -401 840 -401H841Q833 -392 830 -380Q830 -375 832 -372L835 -371Q840 -372 845 -373Q836 -362 836 -346Q836 -341 838 -333Q832 -329 826 -325Q820 -320 819 -313L820 -309Q780 -306 738 -298Q730 -279 722 -260Q740 -265 761 -267Q768 -267 772 -266Q768 -259 753 -255Q740 -252 735 -247H742Q803 -247 829 -261Q828 -271 820 -271Q810 -268 799 -265Q797 -265 793 -267V-269Q793 -277 809 -281Q828 -286 833 -291Q836 -291 838 -285Q841 -289 843 -293Q845 -298 851 -298H854V-297Q853 -291 851 -285L852 -282L856 -281Q866 -284 875 -287Q876 -287 880 -285Q872 -279 872 -269Q872 -265 873 -263L875 -262Q882 -264 888 -266H891V-264Q886 -256 881 -246Q881 -243 888 -240Q880 -227 880 -220Q880 -218 882 -212Q864 -207 864 -173V-166Q844 -175 825 -175Q815 -175 811 -174Q812 -169 821 -162Q814 -157 814 -138V-131Q784 -129 761 -100Q781 -85 800 -68Q818 -51 848 -46Q855 -71 861 -97Q865 -93 865 -83Q864 -68 862 -54Q862 -43 868 -40Q870 -76 871 -113Q872 -149 882 -178V-162Q881 -121 880 -80Q880 -47 885 -27V-38Q884 -68 883 -99Q883 -117 886 -132Q894 -90 899 -45Q903 0 925 27V33Q928 51 931 69Z"/>
</svg>