<svg xmlns="http://www.w3.org/2000/svg" viewBox="0 -800 1024 1024">
	<path fill="#000000" d="M301 -473H310Q356 -473 383 -491Q375 -492 366 -492Q319 -492 301 -473ZM238 -363Q238 -376 256 -376H261Q261 -361 241 -355Q238 -361 238 -363ZM943 -500Q941 -498 939 -496Q938 -493 937 -491Q934 -479 926 -476Q924 -481 924 -490Q924 -501 929 -510Q935 -521 946 -521H949Q952 -515 952 -513Q952 -509 943 -500ZM584 -216Q563 -211 546 -194Q550 -172 547 -156Q549 -155 554 -155Q555 -155 582 -161Q589 -185 584 -216ZM490 33Q481 36 475 36Q465 36 465 28H467Q473 28 490 33ZM752 -260Q730 -258 710 -247Q698 -241 678 -224Q678 -230 675 -230Q675 -228 667 -229Q659 -230 659 -229Q652 -214 652 -188Q652 -183 654 -175Q664 -176 698 -185Q745 -197 768 -197Q777 -197 782 -196Q779 -191 776 -186Q794 -189 812 -192Q818 -192 820 -191Q812 -187 803 -183Q795 -180 791 -171Q797 -174 804 -174Q807 -173 810 -173Q792 -158 792 -149Q792 -143 797 -137Q791 -123 784 -98Q777 -95 764 -95Q742 -96 719 -97Q683 -95 655 -85V-70Q656 -46 657 -22Q657 -13 656 -8Q649 -16 648 -31Q648 -47 645 -58Q633 -56 633 -35Q633 -21 634 -13Q636 53 653 64Q660 60 660 46Q659 32 657 17Q657 13 659 7Q663 8 666 17Q668 25 673 28Q671 36 671 40Q673 52 674 64Q668 68 667 78Q666 87 664 95Q657 103 631 118Q602 105 574 89Q562 51 500 36Q505 33 511 33Q529 36 547 39H551Q547 30 524 30Q518 30 481 19Q457 14 440 9Q445 8 453 8Q470 8 498 16Q530 25 545 25Q538 18 523 16Q510 14 503 10H523Q550 10 565 1Q573 -33 577 -74Q546 -68 515 -62Q523 -72 548 -78Q565 -83 575 -88Q572 -96 561 -96H556Q528 -93 504 -83Q475 -71 470 -55Q472 -52 475 -52Q483 -54 490 -56L494 -55Q480 -34 451 -30Q434 -30 428 -48Q428 -51 425 -66Q413 -75 413 -89Q418 -116 430 -139Q437 -142 443 -147Q450 -151 459 -152H461Q461 -151 456 -148Q450 -144 450 -142L451 -140Q454 -139 457 -139Q471 -141 476 -155Q481 -169 490 -177Q489 -197 474 -217Q474 -221 473 -226Q473 -238 479 -248Q486 -259 486 -268Q485 -272 478 -274Q472 -276 471 -280H482Q526 -280 578 -298Q571 -301 570 -314Q569 -325 572 -337Q569 -359 584 -367Q589 -374 597 -377Q590 -384 586 -387Q559 -411 533 -425Q530 -417 530 -413Q530 -407 536 -391Q541 -379 541 -369Q541 -349 533 -330Q530 -324 524 -317Q518 -311 516 -306Q498 -303 498 -286V-281Q491 -284 489 -291Q488 -295 486 -300Q461 -305 447 -317Q441 -326 434 -336Q426 -346 418 -356Q426 -361 427 -370Q428 -378 429 -386Q387 -360 345 -334Q350 -333 357 -330Q364 -328 367 -315Q367 -310 358 -305Q350 -300 349 -298Q349 -297 355 -293Q381 -305 397 -305Q410 -305 417 -299H418Q422 -301 426 -304H428L430 -301Q430 -296 429 -296Q441 -293 438 -283Q440 -280 441 -280Q442 -280 448 -282Q446 -274 446 -272Q446 -264 452 -250Q459 -233 460 -226Q460 -220 459 -214Q459 -206 465 -201Q454 -187 431 -162Q398 -127 385 -105Q390 -91 395 -77Q395 -61 382 -50Q370 -40 353 -40H349Q340 -42 331 -45H329Q316 -45 302 -17Q290 -1 277 11Q264 27 250 37Q243 56 243 63V66Q239 64 231 64Q225 64 221 66Q208 56 194 46H192Q184 48 176 50L173 49Q174 42 179 39Q183 36 187 33Q186 12 176 1Q165 -11 155 -24Q165 -20 174 -16Q177 -20 177 -27Q177 -40 164 -58Q160 -64 143 -82Q129 -98 124 -105Q109 -122 108 -130Q127 -118 154 -86Q179 -56 196 -45Q210 -53 263 -89Q255 -97 245 -103Q235 -109 232 -122Q257 -161 286 -161H290Q297 -160 309 -153Q321 -146 329 -144Q360 -177 390 -217Q370 -214 358 -206Q335 -186 332 -184Q315 -173 296 -173Q293 -173 289 -174Q258 -171 238 -191Q233 -196 229 -209Q225 -221 223 -225Q233 -238 243 -247Q255 -253 265 -257Q275 -260 280 -270L295 -285Q296 -296 309 -306Q319 -314 321 -319Q313 -314 280 -291Q197 -233 145 -175Q138 -176 130 -178Q120 -178 115 -179Q98 -181 94 -191L92 -189Q91 -188 84 -183Q87 -195 87 -196Q87 -205 73 -217Q68 -221 63 -226Q57 -232 56 -237V-240Q56 -246 60 -256Q64 -266 64 -271Q64 -276 59 -284Q66 -297 66 -309Q66 -321 58 -345Q55 -354 52 -364Q49 -382 49 -385Q58 -378 65 -366Q71 -354 76 -342Q89 -312 109 -312H112Q128 -314 164 -333Q186 -345 190 -347Q205 -354 219 -355V-348H223Q216 -340 208 -336Q198 -330 193 -328Q177 -319 171 -307Q175 -305 176 -305Q177 -305 186 -308Q191 -310 195 -313Q235 -335 275 -358Q318 -379 355 -402Q360 -404 366 -408Q372 -411 372 -416V-418Q353 -416 338 -407Q322 -397 307 -387Q296 -381 283 -378V-381L282 -383Q282 -393 300 -404Q306 -406 308 -408L342 -426Q364 -440 375 -450Q391 -462 398 -468Q380 -466 372 -465Q370 -464 313 -453Q279 -448 262 -438Q253 -433 251 -421Q246 -408 238 -404Q228 -405 220 -410Q214 -412 204 -418Q186 -428 169 -429Q158 -438 148 -448Q139 -459 138 -474Q138 -480 139 -483Q139 -487 143 -493Q147 -497 148 -499Q151 -511 154 -523Q158 -536 165 -541Q177 -547 189 -554Q202 -561 207 -575Q211 -577 214 -579Q217 -581 221 -585Q226 -592 238 -597Q238 -593 234 -583Q230 -576 225 -570Q223 -567 216 -552L221 -557Q228 -566 237 -568Q236 -564 235 -561Q235 -557 234 -553Q261 -557 288 -561Q257 -590 249 -617Q249 -623 252 -629V-633Q253 -634 255 -640Q258 -646 261 -652Q266 -662 290 -667L294 -668Q329 -683 345 -666H352Q359 -665 365 -664Q370 -662 371 -654H369Q365 -654 362 -649L360 -646Q362 -639 363 -632Q365 -622 367 -612Q373 -589 374 -577Q382 -578 404 -582Q422 -586 428 -586Q425 -653 381 -663Q385 -672 385 -679Q385 -693 371 -693H366Q370 -701 373 -704Q384 -715 386 -732V-735Q399 -739 413 -749Q431 -764 450 -778Q469 -793 494 -794H499Q524 -791 549 -750Q551 -747 561 -729H557L555 -728Q549 -728 538 -739Q530 -749 523 -749Q518 -749 515 -747Q516 -732 526 -714Q535 -694 535 -677Q535 -666 527 -644Q518 -619 518 -611Q518 -608 520 -598L525 -599Q536 -615 547 -632Q562 -655 562 -678Q562 -690 558 -702Q566 -706 568 -704Q579 -693 575 -665Q572 -642 561 -625Q556 -618 551 -602L574 -605L577 -604V-605Q583 -607 585 -607H590Q595 -625 599 -643Q605 -673 605 -682Q605 -685 607 -689Q608 -692 609 -695Q607 -694 604 -693Q602 -691 599 -690Q597 -690 594 -693V-696Q594 -703 599 -706Q604 -710 606 -712L623 -727Q639 -752 663 -749Q674 -748 698 -739Q727 -728 734 -717L735 -714Q737 -711 738 -708Q742 -700 737 -693Q740 -690 742 -688V-686Q729 -679 704 -652Q682 -629 668 -610H702Q707 -610 729 -613Q740 -614 760 -614Q774 -614 783 -617Q790 -619 800 -629Q810 -639 821 -641Q819 -632 810 -623Q803 -616 803 -609V-608L804 -605Q807 -594 825 -592Q835 -590 842 -590Q858 -587 862 -586Q855 -582 847 -580Q843 -579 833 -577Q821 -574 815 -564Q819 -566 823 -568Q826 -568 828 -569Q832 -569 834 -564Q830 -559 822 -556Q814 -554 812 -549V-544Q812 -540 814 -532Q816 -524 818 -519Q815 -514 807 -507Q802 -501 799 -494Q793 -493 787 -492Q785 -490 782 -489Q779 -487 776 -485Q770 -487 751 -492Q733 -499 727 -504Q732 -510 746 -510H760Q764 -510 767 -511Q742 -529 693 -529Q650 -529 592 -515Q605 -510 623 -510Q641 -510 658 -511Q674 -513 681 -513Q694 -513 698 -503Q689 -498 668 -498H635Q626 -498 616 -498Q627 -492 630 -486Q643 -482 646 -472Q648 -472 654 -469Q660 -465 663 -465Q683 -446 724 -423Q758 -404 791 -385Q802 -376 812 -367Q824 -357 836 -357H837Q848 -357 860 -371Q865 -377 869 -384Q875 -392 883 -399Q882 -391 880 -385Q879 -382 877 -374Q873 -362 872 -352Q877 -356 879 -360Q882 -367 884 -375Q894 -401 900 -419Q912 -447 922 -467Q922 -450 918 -432Q915 -418 911 -405Q901 -373 900 -348Q904 -355 914 -380Q918 -389 922 -399Q928 -409 934 -420V-411Q931 -378 927 -346Q928 -340 928 -335Q934 -308 939 -282Q941 -270 950 -242Q953 -232 956 -222Q960 -211 961 -201Q959 -178 943 -166Q929 -155 907 -155Q901 -159 898 -160Q894 -162 886 -164Q871 -168 866 -176H862Q859 -176 855 -175Q841 -191 816 -211Q795 -227 774 -244Q772 -246 752 -260ZM743 -266Q737 -270 730 -275Q706 -292 689 -314Q707 -310 724 -300Q734 -294 756 -278Q795 -250 822 -244Q799 -264 767 -288Q719 -322 705 -334Q679 -354 652 -375Q627 -397 626 -398Q614 -407 599 -411Q606 -391 634 -367Q639 -362 644 -358Q669 -339 669 -321V-316L672 -314Q689 -306 703 -285Q706 -277 733 -269Q738 -266 743 -266ZM665 -318Q645 -334 633 -344Q631 -346 629 -348Q636 -330 638 -312Q647 -314 654 -320Q659 -320 665 -318Z"/>
</svg>