<svg xmlns="http://www.w3.org/2000/svg" viewBox="0 -800 1024 1024">
	<path fill="#000000" d="M141 -414V-411Q126 -411 124 -428H127Q141 -428 141 -414ZM842 -55H840Q832 -52 824 -49H822V-53Q822 -65 834 -65Q837 -64 840 -64Q841 -60 842 -57ZM295 -498V-494Q299 -480 314 -477Q328 -474 338 -471Q344 -486 364 -510Q387 -539 393 -560Q391 -560 388 -561Q357 -555 338 -532Q336 -530 329 -518Q318 -498 315 -499Q311 -499 311 -504Q312 -514 320 -528Q327 -543 328 -546H327Q315 -546 305 -529Q295 -512 295 -498ZM705 -471H714Q740 -518 766 -566H763Q701 -547 686 -539Q646 -517 646 -480Q646 -475 648 -463Q675 -471 705 -471ZM716 91V88Q717 84 717 79V77Q743 85 768 92Q775 88 783 85Q792 82 794 74Q791 75 784 75Q763 75 734 54Q705 33 686 33Q680 33 677 34Q678 43 691 53Q703 62 704 72Q701 75 698 75Q688 74 674 60Q661 47 649 37Q628 23 604 -10Q595 -22 583 -34Q572 -46 571 -61Q571 -66 572 -69Q575 -78 583 -84Q590 -89 596 -94H600Q615 -94 644 -86Q666 -80 677 -80Q695 -80 707 -92Q709 -86 709 -84V-77Q709 -69 714 -66Q737 -73 757 -88Q777 -103 796 -117Q801 -117 805 -116Q810 -116 810 -112Q753 -92 753 -51V-48H755Q757 -48 764 -52Q772 -57 778 -57L779 -55Q776 -47 772 -40Q772 -36 774 -34Q777 -34 785 -40Q795 -48 801 -48Q806 -48 810 -43Q803 -42 797 -35Q791 -28 791 -22Q791 -11 803 -10H805Q811 -10 829 -19Q847 -28 857 -28Q863 -28 867 -25Q844 -18 831 -11Q810 1 810 17Q811 24 817 33Q824 43 833 44Q817 48 817 75Q817 84 821 94Q816 92 812 88Q799 95 796 108Q790 106 787 106Q773 106 766 117Q741 104 716 91ZM554 48V49Q553 64 539 78Q526 92 518 103Q483 87 478 84Q453 69 449 50V45Q451 32 452 18Q452 10 448 3Q447 2 442 2H435Q459 -24 459 -57Q459 -74 452 -88Q455 -100 455 -103Q455 -112 448 -115Q417 -114 381 -101Q363 -95 346 -86Q329 -78 324 -60H325Q338 -60 366 -72Q398 -86 415 -86Q427 -86 436 -82Q421 -78 405 -73Q390 -68 380 -57Q348 -57 333 -34Q361 -26 375 -5Q390 17 405 38Q397 72 384 89H380Q371 89 368 95Q347 94 315 77Q282 60 257 60H253V56Q253 49 262 40Q255 36 246 36Q225 38 203 40Q210 33 230 29Q251 25 256 20Q256 16 251 14Q245 12 245 9Q253 8 261 3Q264 1 273 -7Q253 -20 241 -40Q230 -60 218 -79Q218 -108 226 -117Q224 -121 224 -130Q226 -159 248 -171Q250 -172 256 -172Q274 -169 291 -167H294Q345 -183 401 -205Q406 -217 415 -221Q400 -224 384 -227Q372 -227 368 -220Q361 -226 351 -232Q341 -238 340 -250Q341 -252 341 -255Q334 -261 322 -264Q322 -270 327 -272Q332 -274 338 -276V-279Q337 -291 336 -304Q336 -314 341 -319Q343 -321 347 -321Q350 -321 352 -319Q357 -330 390 -336Q390 -328 379 -323Q369 -319 369 -312Q418 -328 444 -354Q442 -355 438 -355Q432 -355 420 -347Q409 -339 401 -339Q399 -339 396 -340Q416 -357 438 -372Q417 -382 386 -387H380Q356 -384 338 -355Q321 -329 319 -299Q299 -302 278 -306Q266 -306 260 -299Q261 -301 261 -304Q261 -311 258 -315Q254 -320 248 -320L244 -319Q242 -338 229 -347Q216 -355 205 -366H211Q216 -366 217 -367Q208 -376 184 -386Q152 -399 147 -411Q170 -403 190 -393Q210 -382 236 -381H245Q248 -387 261 -395Q271 -401 275 -406Q263 -404 258 -404Q230 -404 209 -425Q191 -444 184 -474H186Q201 -474 214 -493Q185 -492 164 -478Q142 -463 121 -451Q108 -453 78 -465Q66 -506 39 -532Q47 -630 124 -654Q121 -648 118 -642Q124 -637 145 -634Q163 -631 167 -628Q164 -622 146 -621Q130 -620 130 -610Q130 -601 147 -598H150Q161 -598 211 -610Q252 -621 265 -631Q259 -637 250 -637Q236 -634 221 -632Q197 -628 188 -628H182Q188 -637 201 -640Q214 -643 227 -646Q253 -652 282 -655Q292 -673 292 -691Q292 -720 263 -720H259Q262 -727 276 -727H279Q279 -730 275 -731Q270 -732 269 -733Q277 -739 319 -772Q357 -799 376 -799H381Q388 -798 404 -782Q420 -766 423 -757Q424 -755 424 -752V-747Q433 -736 438 -723Q438 -714 429 -704Q418 -692 418 -681Q475 -691 535 -706V-695Q552 -697 568 -700H571Q565 -694 556 -691Q545 -689 544 -679Q546 -676 548 -676Q554 -677 559 -678Q557 -675 557 -670Q559 -658 572 -657Q569 -654 569 -651Q569 -648 575 -640Q573 -632 568 -626Q578 -620 590 -620Q602 -620 619 -626Q641 -634 651 -634L652 -632Q652 -630 644 -623Q635 -616 634 -610Q662 -617 716 -635Q748 -645 755 -648Q776 -657 786 -673Q757 -671 732 -660Q707 -648 682 -639Q692 -657 713 -666Q735 -675 762 -685Q782 -695 799 -705Q816 -715 838 -716Q845 -716 849 -715Q862 -712 870 -705Q877 -697 887 -690Q891 -691 894 -696Q897 -702 901 -702L905 -701V-693Q905 -692 907 -682Q913 -690 919 -698Q925 -705 937 -708V-707Q937 -703 930 -695Q918 -681 918 -674Q918 -668 922 -664L925 -663Q928 -663 933 -668Q937 -672 940 -673Q942 -671 942 -669Q939 -661 935 -654Q936 -641 952 -624Q968 -606 968 -594V-591Q967 -582 953 -568Q944 -559 919 -545Q897 -533 890 -526V-531Q891 -552 908 -562Q924 -572 938 -582Q937 -594 919 -594Q908 -594 900 -589Q891 -584 891 -575Q891 -572 893 -568Q852 -556 834 -512Q816 -468 802 -427Q823 -447 838 -475Q854 -505 884 -514Q867 -493 837 -438Q826 -417 815 -396Q803 -375 789 -364Q776 -354 762 -354Q739 -354 704 -387H693Q636 -387 630 -356Q618 -351 611 -351Q589 -351 576 -374Q564 -395 564 -425Q564 -436 565 -442Q562 -458 558 -475Q558 -483 562 -487Q569 -481 573 -461Q576 -443 581 -438Q587 -442 587 -452Q587 -457 586 -462Q585 -513 562 -540Q557 -536 557 -522Q558 -515 558 -509Q558 -506 557 -503Q548 -507 548 -512Q548 -518 545 -525Q536 -538 524 -546Q512 -554 511 -572Q511 -574 513 -586Q496 -584 494 -582Q509 -565 509 -533Q509 -510 498 -496Q476 -494 460 -481Q456 -478 435 -454Q445 -449 483 -442Q486 -445 489 -454Q493 -466 498 -468Q497 -465 497 -459Q497 -451 501 -439L503 -438Q506 -441 512 -444V-442Q512 -431 520 -413Q527 -397 527 -391V-388Q527 -382 520 -372Q513 -361 512 -352L497 -348Q499 -333 506 -328Q493 -320 493 -312Q493 -308 495 -306Q492 -307 485 -307Q463 -307 455 -293Q457 -291 458 -289Q467 -288 482 -287Q497 -286 504 -276Q511 -281 522 -296Q534 -312 542 -318Q555 -328 570 -328H574Q583 -327 593 -304Q602 -286 602 -267V-264Q601 -257 587 -251Q574 -245 571 -238Q491 -221 448 -183Q532 -204 624 -217Q624 -221 623 -226Q626 -250 628 -274V-280Q624 -297 620 -314Q620 -319 621 -322Q629 -312 636 -302Q641 -304 650 -304Q666 -304 703 -289Q713 -293 717 -296Q719 -287 720 -279Q721 -270 726 -267Q744 -275 760 -285L761 -283Q761 -280 754 -274Q746 -267 745 -264Q745 -248 748 -240Q752 -229 763 -229H765Q761 -222 761 -215Q765 -195 768 -176V-174Q765 -145 751 -121Q744 -111 727 -107Q720 -107 716 -115Q726 -121 740 -130Q754 -139 755 -155Q755 -163 750 -171Q743 -167 737 -155Q731 -143 725 -141H721Q713 -141 704 -147Q695 -153 690 -153Q687 -153 683 -151Q683 -143 694 -136Q703 -129 704 -121Q698 -119 696 -119Q688 -119 676 -131Q665 -142 660 -144Q596 -130 592 -129Q556 -119 534 -105Q532 -85 532 -75Q532 -36 541 5Q550 30 554 48Z"/>
</svg>