<svg xmlns="http://www.w3.org/2000/svg" viewBox="0 -800 1024 1024">
	<path fill="#000000" d="M543 -278H545Q549 -278 556 -271Q557 -268 557 -266Q555 -257 553 -249Q541 -250 541 -267Q541 -272 543 -278ZM253 -592Q251 -586 244 -580Q236 -572 234 -568Q227 -571 227 -577Q229 -591 246 -594Q249 -594 253 -592ZM453 -666V-665Q452 -661 450 -658Q452 -652 453 -647Q445 -614 437 -581Q424 -574 393 -574Q353 -574 343 -560V-564Q343 -572 337 -575Q331 -578 326 -581Q302 -577 286 -564Q270 -550 256 -538Q263 -549 278 -568Q299 -594 306 -609Q300 -615 295 -615Q288 -615 276 -605Q269 -599 265 -598Q267 -611 275 -620Q284 -630 291 -640L285 -666Q264 -673 254 -673H250Q252 -676 261 -677Q269 -678 272 -680Q283 -700 283 -719Q283 -734 275 -748H278Q281 -748 288 -744Q296 -739 301 -739H302Q307 -739 315 -745Q328 -754 338 -754H340Q345 -751 349 -748L351 -747Q354 -748 356 -749Q378 -739 401 -735H403Q408 -738 420 -757Q421 -756 421 -752Q421 -745 416 -733Q426 -721 436 -721Q442 -721 448 -724Q445 -707 445 -689V-682Q449 -674 453 -666ZM873 -397H875Q862 -381 851 -364Q839 -346 836 -319Q742 -300 659 -229Q648 -244 637 -244Q633 -244 630 -243Q622 -255 614 -268Q606 -280 591 -287Q588 -295 587 -303Q585 -312 579 -316Q574 -314 568 -312H567Q567 -320 572 -323Q577 -326 582 -328Q573 -331 565 -331Q550 -331 539 -322Q551 -335 568 -346Q590 -367 627 -376V-374Q627 -371 617 -365Q604 -357 603 -349Q607 -347 610 -347Q626 -351 638 -361Q664 -373 693 -388Q721 -402 743 -421Q739 -424 733 -424Q715 -420 696 -405Q677 -391 652 -383Q650 -383 648 -385V-386Q648 -390 667 -405Q684 -419 691 -422Q698 -424 705 -427Q738 -462 776 -469Q778 -476 780 -484Q790 -474 796 -465Q813 -464 827 -448Q827 -417 839 -405H853Q849 -398 847 -390Q847 -387 848 -385Q858 -395 873 -397ZM740 -7H739Q750 -25 766 -39Q782 -52 798 -64Q831 -90 857 -123L853 -124Q844 -120 836 -112Q782 -74 728 -36Q694 -9 684 12Q688 14 689 14Q700 10 711 5Q714 5 716 6L717 10Q717 15 712 17Q707 19 703 21Q680 41 650 50V47Q650 42 657 35Q664 27 665 21Q630 31 623 34Q599 45 594 64Q598 69 602 69Q607 69 617 62Q626 56 631 56Q637 56 639 61Q618 75 588 113Q580 110 571 107Q570 107 565 110Q533 84 523 64V58Q523 49 516 34Q509 19 509 9Q509 6 511 -4Q511 -7 505 -10Q500 -13 500 -17Q503 -26 520 -54Q535 -78 536 -96V-98Q535 -108 534 -118Q534 -128 540 -130Q542 -111 544 -104Q547 -91 556 -88V-94Q556 -109 552 -133Q547 -164 547 -178V-189Q556 -182 559 -151Q562 -118 571 -112V-118Q571 -130 570 -136Q566 -156 561 -178Q556 -201 555 -224Q555 -235 556 -240Q564 -229 573 -177Q582 -134 594 -118Q611 -112 613 -111Q673 -137 767 -199Q784 -213 801 -227Q843 -251 871 -281Q879 -291 888 -313Q897 -334 903 -343L904 -339Q903 -326 901 -313Q901 -303 906 -301Q908 -303 908 -306Q908 -311 907 -316Q907 -322 911 -322H912Q916 -322 916 -320Q915 -316 913 -312V-310Q915 -300 916 -290Q918 -288 939 -275Q940 -237 952 -209Q926 -167 891 -132Q857 -98 821 -64Q800 -44 759 -19Q750 -10 740 -7ZM362 -6V-23Q362 -40 371 -42Q373 -27 374 -11Q374 5 380 15Q374 43 356 61Q338 78 320 94Q320 87 313 84Q309 82 300 80Q295 55 279 47Q275 20 255 18V17Q255 15 259 15H263L267 14Q263 7 249 0Q239 -5 235 -8Q238 -12 243 -12Q254 -9 264 -7Q255 -26 219 -36Q223 -36 226 -37Q248 -34 269 -31Q279 -51 280 -110Q281 -153 284 -169Q256 -150 236 -119Q216 -87 194 -58Q203 -94 229 -131Q229 -132 279 -192L276 -193Q270 -193 255 -181Q236 -165 200 -117Q182 -95 164 -73Q148 -55 143 -32Q143 -26 146 -20Q153 -23 160 -32Q171 -46 183 -46H186Q167 -15 151 26Q141 20 130 20Q117 20 111 29V27Q111 1 83 -8Q84 -11 84 -15Q84 -24 79 -37Q74 -49 74 -55V-65Q76 -96 78 -127Q81 -194 81 -198Q87 -176 88 -150Q90 -124 102 -109Q160 -160 211 -217Q262 -275 314 -331Q266 -325 213 -287Q194 -272 178 -253Q161 -235 137 -233H133Q117 -234 109 -246Q101 -257 91 -271Q76 -292 73 -297Q63 -313 63 -324Q63 -338 74 -352Q67 -366 67 -381Q67 -388 68 -393Q70 -405 78 -416Q86 -426 94 -437Q102 -450 117 -488Q129 -518 143 -529Q135 -508 131 -476Q131 -457 145 -450Q221 -478 302 -502Q285 -488 259 -477Q233 -466 210 -457Q191 -451 174 -444Q156 -437 149 -419H155Q182 -423 207 -436Q250 -452 295 -470Q340 -487 379 -511Q375 -515 369 -515Q362 -515 349 -509Q334 -502 328 -502Q322 -502 318 -506Q318 -510 322 -510H326L330 -511Q365 -530 370 -532H378Q382 -532 383 -531Q389 -547 405 -551Q421 -556 435 -562Q448 -551 451 -550Q467 -559 482 -569Q476 -559 472 -541Q475 -539 478 -537L480 -536Q486 -538 491 -541H493Q496 -521 506 -502Q514 -506 517 -515Q516 -518 511 -518H503Q552 -560 567 -575Q592 -600 597 -604Q616 -619 635 -623Q626 -608 598 -587Q570 -566 561 -550Q587 -559 635 -597Q652 -610 669 -623Q687 -637 697 -656H695Q684 -656 673 -646Q662 -636 653 -635Q657 -652 678 -671Q697 -688 702 -700Q699 -704 699 -715V-730Q695 -735 686 -742Q675 -750 672 -755Q692 -751 703 -751H711L713 -752Q712 -754 710 -757L712 -758Q754 -762 795 -766Q800 -766 805 -767H808Q819 -765 831 -749Q840 -738 845 -735Q860 -739 882 -742Q879 -736 879 -731Q879 -725 892 -704Q888 -696 888 -684Q888 -658 901 -638Q891 -629 885 -600Q880 -577 877 -571Q870 -554 859 -547Q840 -542 820 -541Q766 -530 736 -497Q732 -498 728 -500H727Q715 -489 685 -472Q647 -451 633 -434Q611 -444 592 -444Q580 -444 574 -439Q568 -445 563 -454Q557 -462 547 -463L543 -462Q536 -471 530 -482Q525 -492 511 -494Q511 -486 517 -466Q523 -446 523 -435Q523 -428 520 -421Q517 -418 513 -415Q508 -413 508 -407Q509 -404 509 -402Q495 -395 477 -389Q458 -382 444 -373Q430 -362 398 -322Q386 -308 372 -293Q359 -279 358 -262Q358 -251 368 -238Q397 -282 416 -296Q416 -309 410 -318H419Q423 -318 425 -319Q433 -343 480 -343H490Q490 -334 494 -333Q506 -338 517 -343Q509 -330 509 -315Q509 -303 516 -278Q523 -253 523 -240Q493 -228 465 -215Q469 -228 478 -235Q488 -242 497 -249Q493 -253 485 -253Q475 -253 456 -246Q419 -233 395 -199L399 -198Q405 -198 417 -206Q431 -215 439 -215Q444 -215 450 -212Q439 -202 425 -195Q411 -188 398 -180Q407 -177 414 -177Q423 -177 428 -181Q432 -169 453 -157Q477 -143 478 -126V-125Q478 -109 460 -91Q442 -73 426 -73H422Q412 -74 398 -84Q382 -95 371 -96Q369 -84 369 -77Q370 -66 370 -55Q361 -58 360 -69Q359 -81 358 -92Q344 -81 344 -31Q344 -15 345 -8Q347 9 356 12Q362 8 362 -6Z"/>
</svg>