<svg xmlns="http://www.w3.org/2000/svg" viewBox="0 -800 1024 1024">
	<path fill="#000000" d="M770 -372L767 -373Q710 -356 652 -340L644 -299Q698 -309 718 -318Q753 -333 761 -364Q766 -368 770 -372ZM738 -491Q771 -505 805 -508Q817 -508 824 -506Q831 -510 837 -515Q843 -521 854 -521H856Q843 -518 843 -511Q846 -498 867 -496Q870 -496 873 -497Q880 -490 890 -486Q897 -488 907 -496Q917 -504 923 -506Q920 -501 915 -496Q911 -492 910 -485L911 -481Q926 -486 952 -502Q975 -517 982 -520Q943 -495 943 -471Q943 -455 966 -448Q964 -444 964 -436Q967 -417 983 -404Q974 -398 974 -378Q974 -371 976 -361Q969 -358 923 -340Q917 -346 917 -351Q917 -358 934 -367Q953 -377 954 -385Q946 -387 943 -387Q932 -387 913 -375Q910 -381 907 -388Q889 -385 871 -370Q860 -362 843 -343Q807 -305 807 -277Q819 -281 834 -294Q857 -314 874 -314H879Q876 -306 871 -303Q865 -299 860 -296Q827 -269 794 -221Q773 -221 761 -210H760L758 -213V-219Q752 -218 744 -218Q737 -217 735 -212L727 -218Q664 -203 615 -189Q585 -88 566 -37Q534 49 501 99H494Q472 98 459 90Q446 81 432 75Q428 22 406 -11Q408 -19 408 -24Q408 -36 398 -59Q389 -78 388 -89Q397 -80 406 -70Q415 -60 428 -54Q421 -67 413 -80L416 -81Q420 -81 425 -76Q430 -70 433 -70Q448 -77 455 -91Q463 -105 468 -123Q476 -159 497 -182Q498 -178 498 -169Q498 -147 483 -108Q469 -71 468 -54Q480 -57 485 -70Q490 -84 495 -98Q537 -202 539 -269Q534 -266 526 -247Q520 -233 515 -227Q509 -233 509 -239Q509 -247 519 -272Q538 -322 543 -353H541Q509 -353 497 -347Q487 -354 482 -370Q468 -374 465 -382Q463 -387 463 -406Q463 -414 466 -425Q461 -442 461 -453Q464 -483 496 -497Q528 -512 551 -525Q551 -521 534 -506Q509 -484 509 -474Q511 -473 516 -473Q525 -474 534 -476Q547 -481 559 -486Q557 -482 540 -473Q517 -461 516 -454Q531 -453 551 -465Q565 -473 572 -471Q594 -465 598 -468Q606 -473 615 -471Q622 -470 625 -471Q627 -470 650 -470Q636 -541 629 -611Q621 -618 579 -648Q576 -657 576 -664Q576 -677 585 -690Q591 -699 602 -710Q612 -722 622 -733Q632 -743 643 -744Q646 -743 648 -743Q650 -759 662 -765Q673 -772 683 -780Q695 -783 704 -783Q723 -782 732 -769Q740 -755 750 -735Q759 -722 766 -709Q773 -696 776 -678Q771 -665 762 -653Q755 -643 754 -636Q759 -633 763 -630Q808 -639 902 -696Q901 -692 898 -689Q894 -684 894 -681Q899 -682 908 -689Q919 -697 926 -697Q932 -697 935 -696Q929 -689 922 -684Q914 -680 911 -670Q916 -660 928 -660Q936 -660 944 -661H947Q937 -641 937 -633Q937 -623 947 -622Q944 -613 941 -604Q942 -602 942 -597Q942 -588 930 -566Q921 -549 919 -540Q895 -540 870 -541H858Q860 -552 884 -554Q908 -556 910 -567Q904 -578 883 -578H876Q839 -578 804 -569Q764 -559 750 -541Q756 -535 764 -535Q772 -535 787 -540Q805 -546 814 -546Q824 -546 828 -544Q826 -535 817 -534Q807 -533 799 -532Q780 -528 766 -519Q743 -499 738 -491ZM330 -305Q332 -299 334 -293Q325 -289 322 -279Q337 -287 366 -291Q370 -291 382 -293Q400 -295 405 -304Q393 -309 390 -310Q386 -311 370 -311Q353 -311 330 -305ZM327 -136Q333 -88 334 -83Q334 -80 338 -80Q343 -79 343 -78Q340 -74 337 -70Q337 -41 330 -22Q325 -23 323 -28Q320 -34 316 -34H314Q306 -33 306 -17Q306 -4 311 13L314 14Q318 14 322 6Q326 -2 330 -3Q333 5 333 10Q332 22 330 34Q317 43 305 53Q294 46 281 42Q267 37 262 24Q241 15 237 9Q236 4 234 -2Q229 -9 224 -17Q223 -22 223 -34Q224 -50 224 -66V-69Q223 -82 222 -96Q222 -102 223 -105Q228 -114 234 -120Q193 -110 171 -95Q159 -86 148 -76Q136 -67 120 -66Q108 -66 101 -70Q98 -88 79 -92Q59 -97 50 -108Q48 -112 48 -117Q48 -125 53 -137Q60 -154 60 -162V-164Q73 -181 122 -204Q121 -198 119 -192Q146 -198 170 -206Q194 -214 222 -215Q229 -214 236 -214Q220 -206 190 -199Q151 -190 134 -175Q145 -169 155 -170Q181 -172 209 -181Q224 -184 239 -187Q241 -221 241 -223Q245 -260 239 -283Q210 -277 188 -261Q194 -257 200 -258Q210 -260 219 -262Q226 -264 228 -263L230 -261Q231 -255 218 -253L213 -252Q192 -246 170 -233Q163 -227 155 -222H152Q144 -220 130 -228Q119 -234 114 -235Q111 -248 97 -258Q98 -261 96 -268Q95 -273 90 -279Q84 -286 83 -292L82 -293Q86 -296 91 -304Q97 -314 103 -317Q120 -373 137 -430Q134 -431 130 -435Q127 -438 98 -444Q60 -452 59 -457Q58 -460 58 -465Q58 -470 62 -486Q53 -497 53 -515Q53 -531 62 -539Q59 -544 55 -548Q51 -552 51 -560H52Q55 -560 58 -556Q61 -553 65 -552Q72 -554 75 -557Q73 -564 61 -573Q50 -581 49 -586Q62 -586 70 -581Q77 -576 84 -571Q91 -573 97 -575Q103 -570 124 -567Q142 -565 148 -562Q145 -557 132 -557H128Q112 -557 111 -548Q119 -535 143 -535Q156 -535 171 -540Q175 -550 178 -560Q168 -558 165 -558H159Q162 -564 181 -570Q184 -583 177 -625Q171 -664 173 -671Q175 -685 173 -699Q171 -712 180 -725Q198 -736 218 -743Q244 -756 287 -741Q292 -740 301 -731Q310 -723 317 -722Q320 -723 329 -730Q329 -723 328 -716Q328 -708 338 -708Q334 -703 336 -696Q338 -690 339 -684Q334 -678 332 -670L333 -666Q315 -659 286 -595Q328 -603 330 -604Q337 -605 350 -611Q372 -620 385 -621Q379 -614 373 -607L375 -605Q378 -606 381 -607L384 -606Q380 -602 380 -598Q380 -597 382 -589Q388 -591 394 -599Q398 -604 402 -607Q412 -604 425 -602Q438 -601 448 -594Q469 -601 471 -601Q461 -592 454 -587Q447 -582 449 -575Q450 -572 446 -569Q442 -565 442 -564Q443 -563 451 -566Q459 -570 466 -569Q460 -565 454 -563Q448 -561 446 -553Q446 -534 446 -516Q446 -509 439 -504Q433 -500 425 -499Q413 -503 408 -503Q397 -503 396 -494V-493Q400 -487 403 -481L402 -477Q395 -479 387 -484Q375 -492 368 -492H366Q350 -491 335 -483Q320 -475 306 -470Q243 -462 230 -458Q225 -444 219 -430Q223 -432 233 -438Q262 -459 269 -463L278 -458Q280 -454 282 -451Q288 -445 291 -447Q296 -449 305 -448Q310 -436 320 -430H332Q330 -426 330 -423Q330 -417 337 -411Q342 -407 343 -403Q333 -398 333 -388Q333 -386 335 -378Q328 -373 326 -365Q360 -380 353 -402Q364 -401 375 -400Q379 -415 378 -419Q377 -419 377 -418Q377 -419 376 -420Q376 -430 393 -410Q393 -412 388 -442Q384 -453 383 -456Q381 -461 385 -465Q392 -453 398 -435Q403 -419 413 -404Q415 -410 413 -416Q407 -432 400 -449Q399 -455 400 -461Q409 -449 417 -424Q424 -401 431 -394Q441 -383 451 -373Q451 -370 453 -364Q458 -351 462 -339Q463 -333 461 -323Q459 -312 461 -302Q462 -299 464 -295Q445 -286 425 -277Q421 -275 418 -275Q411 -274 404 -277Q391 -279 366 -279Q347 -279 320 -270Q320 -264 322 -230Q345 -246 376 -251Q400 -259 423 -268Q427 -268 427 -266L426 -262V-260Q455 -269 483 -278Q476 -272 466 -267Q456 -262 455 -253Q455 -249 458 -245Q479 -251 482 -251H486Q475 -245 475 -235L476 -232L478 -230Q482 -233 488 -236H490V-234Q487 -228 484 -222Q486 -214 489 -212Q484 -205 478 -190Q471 -172 465 -166L463 -165L459 -166L457 -165L456 -161V-156Q438 -161 413 -160Q381 -160 364 -145Q346 -141 327 -136ZM323 -210Q334 -213 354 -221Q349 -226 338 -226Q330 -226 322 -223Q323 -219 323 -210ZM316 -134Q307 -131 298 -129Q298 -116 300 -98Q301 -83 312 -71Q313 -71 315 -74L316 -73Q323 -90 320 -101Q318 -117 316 -134ZM314 -207Q313 -225 311 -243Q299 -236 301 -214Q301 -208 301 -203Q308 -205 314 -207ZM233 -341Q229 -352 224 -355V-359Q222 -370 214 -373Q208 -373 198 -371Q189 -343 184 -331Q209 -336 233 -341Z"/>
</svg>