<svg xmlns="http://www.w3.org/2000/svg" viewBox="0 -800 1024 1024">
	<path fill="#000000" d="M116 -122Q116 -117 115 -114Q109 -120 105 -125Q100 -130 100 -139Q101 -141 106 -141H112Q114 -131 116 -122ZM756 110Q755 114 753 118L732 115Q733 103 742 103Q749 103 756 110ZM189 -518Q183 -518 165 -523V-535H167Q181 -535 189 -518ZM410 -408Q382 -392 345 -385Q309 -379 298 -384Q285 -399 265 -399Q256 -399 253 -397Q256 -401 256 -406Q256 -416 243 -418H241Q234 -418 224 -411Q216 -405 212 -405L208 -406Q209 -413 224 -421Q236 -427 239 -432Q229 -453 195 -453Q186 -453 180 -452Q187 -460 199 -460Q212 -461 223 -463Q214 -472 181 -474Q153 -475 141 -481Q187 -482 227 -489Q225 -497 212 -502Q198 -508 195 -514Q213 -510 231 -506Q242 -506 247 -514V-515Q247 -520 240 -526Q233 -532 233 -539V-543Q240 -541 251 -531Q262 -522 272 -520H276Q295 -522 314 -525Q338 -521 358 -512Q404 -461 410 -408ZM816 -227Q809 -214 804 -199Q798 -203 798 -213Q798 -228 811 -228Q814 -227 816 -227ZM710 -443V-439Q712 -414 733 -402Q738 -382 738 -367Q738 -341 728 -320H724Q710 -319 701 -313Q693 -306 682 -302V-306Q683 -318 689 -327Q695 -336 700 -345Q698 -348 695 -351Q682 -349 673 -334Q666 -324 660 -305Q645 -271 641 -231Q641 -220 642 -214Q650 -220 657 -253Q663 -281 678 -282Q667 -251 654 -159Q647 -160 647 -172V-175Q647 -185 642 -189Q631 -183 631 -157Q631 -133 639 -127Q644 -129 644 -139Q644 -142 643 -145Q643 -149 645 -155Q649 -151 656 -150V-104Q653 -103 651 -97Q648 -88 642 -87V-85Q642 -80 641 -76V-73Q634 -73 632 -78Q626 -72 624 -67Q618 -73 601 -77Q586 -81 579 -86L577 -87Q573 -84 568 -82Q563 -91 558 -101Q561 -153 561 -170Q563 -183 565 -196Q567 -204 568 -213V-218Q568 -245 577 -301Q584 -343 585 -362Q529 -346 508 -334Q474 -314 470 -311Q450 -295 448 -274Q454 -252 454 -212Q454 -113 456 -109Q464 -127 476 -176Q477 -181 477 -187Q477 -191 479 -197Q480 -199 480 -202V-206Q480 -208 473 -209Q475 -215 475 -217L474 -219L473 -223Q472 -221 470 -220Q465 -215 458 -213V-218Q458 -231 462 -237Q466 -242 469 -247Q471 -252 473 -262Q475 -272 478 -277Q491 -297 518 -296Q551 -290 558 -276Q560 -270 561 -264Q561 -258 569 -247L559 -248Q558 -248 550 -252Q547 -254 544 -256V-254Q544 -252 546 -248Q548 -245 550 -242Q552 -240 552 -235V-232Q552 -223 547 -213Q543 -203 543 -196Q535 -154 526 -112Q526 -105 518 -92Q523 -92 527 -93Q537 -93 550 -86Q561 -69 566 -51Q563 -25 557 2Q564 3 570 3Q621 -1 672 -5Q693 -5 708 -1Q714 -10 725 -14Q729 -14 732 -10Q739 -23 740 -62Q742 -105 750 -119Q751 -88 759 -61Q767 -86 767 -141V-178Q767 -242 778 -267Q779 -258 779 -239Q778 -192 776 -146Q776 -105 784 -81Q790 -159 791 -165Q792 -172 793 -180Q794 -187 801 -190V-179Q800 -150 799 -122Q799 -108 800 -102Q801 -72 819 -42L821 -41Q825 -44 833 -48L837 -47Q837 -42 836 -37Q836 -34 837 -32Q857 -5 884 69Q881 78 870 93Q860 107 857 116Q814 124 805 124Q780 124 769 110Q775 107 783 107Q791 108 799 108Q811 108 815 102Q802 81 745 81H738Q578 81 523 96Q540 100 575 100Q615 100 654 99H674Q707 99 711 113H697Q657 112 617 110Q584 110 566 119Q556 114 542 114Q508 119 475 124H468Q467 115 459 102Q449 87 449 78Q452 69 454 59Q451 44 445 28Q456 13 463 -8Q471 -29 480 -49Q476 -44 471 -43Q427 -22 391 14Q356 50 320 77V75Q320 63 333 50Q341 40 367 20Q394 -1 405 -16Q379 -7 356 8Q333 24 311 40Q273 67 252 93Q244 99 241 108Q241 109 243 113Q253 113 270 101Q289 88 301 88H305Q301 98 292 105Q283 112 274 119Q258 136 242 152Q197 147 188 125Q193 110 193 96Q193 67 172 62Q172 44 181 33Q174 9 153 -35Q132 -78 125 -105Q135 -90 196 14Q196 6 187 -8Q177 -24 177 -36Q189 -21 201 -1Q213 19 233 21Q249 16 270 0Q294 -16 319 -36Q344 -55 368 -67Q357 -89 352 -117Q347 -145 342 -173Q351 -169 355 -148Q359 -127 368 -124Q371 -131 371 -138Q367 -158 363 -179V-188Q364 -200 364 -212Q364 -227 353 -231Q349 -228 348 -212Q347 -189 338 -186Q338 -194 333 -207Q329 -217 329 -225Q310 -239 291 -254Q291 -265 279 -277Q268 -288 268 -296V-297Q273 -310 283 -327Q286 -332 296 -340Q307 -350 310 -356Q310 -368 308 -372Q324 -364 356 -359Q385 -354 394 -350Q400 -352 411 -359Q426 -369 436 -369Q441 -369 443 -368Q441 -363 434 -358Q425 -351 424 -345Q456 -351 485 -366Q514 -380 544 -396Q539 -401 531 -401Q522 -401 499 -387Q471 -373 455 -372Q464 -392 483 -400Q502 -409 520 -416Q530 -420 540 -424Q519 -417 491 -421Q481 -428 464 -434Q448 -441 437 -454Q429 -465 421 -491Q419 -497 419 -500Q419 -516 434 -517L433 -520Q433 -524 437 -528Q442 -532 442 -535Q425 -524 390 -514Q383 -521 364 -530Q335 -545 328 -557Q311 -560 293 -564Q288 -564 285 -563V-566Q285 -570 288 -572Q284 -577 274 -577Q263 -576 251 -575Q247 -575 245 -576Q247 -580 269 -585Q265 -593 255 -593Q238 -589 221 -585Q216 -585 214 -588Q243 -598 299 -629Q347 -656 374 -666Q387 -669 400 -673Q406 -676 412 -681Q418 -686 427 -686Q430 -685 432 -685Q424 -673 409 -666Q394 -659 379 -653Q364 -647 351 -641Q337 -634 328 -623Q331 -621 338 -621Q349 -621 392 -637Q406 -642 439 -659Q465 -671 490 -681Q514 -692 526 -710Q520 -717 512 -717Q505 -717 490 -709Q480 -704 474 -702Q472 -705 472 -707Q473 -713 479 -715Q486 -718 490 -720Q504 -730 519 -743Q533 -757 550 -764H555Q579 -766 603 -768Q619 -768 629 -762Q639 -751 649 -740Q660 -731 671 -724Q682 -716 688 -705V-694Q688 -670 698 -656V-652Q696 -640 693 -628Q696 -625 698 -622Q698 -618 696 -618L694 -620L693 -619L692 -617Q694 -614 695 -612Q687 -601 672 -589Q626 -581 568 -578Q511 -575 477 -549Q514 -548 533 -518Q540 -520 547 -528Q555 -538 562 -538Q551 -519 551 -502Q551 -493 555 -482Q564 -472 566 -463V-460Q566 -451 560 -444Q554 -437 549 -428Q562 -432 575 -437Q596 -462 622 -489Q647 -516 662 -552Q657 -559 643 -559H634Q655 -569 675 -579Q702 -595 723 -595Q741 -595 756 -585Q768 -590 779 -593Q782 -592 784 -592Q780 -585 777 -576V-575Q788 -581 797 -588Q807 -595 821 -599V-598Q821 -594 813 -587Q802 -577 802 -571L803 -570Q806 -570 808 -571L811 -569Q808 -561 808 -557Q808 -542 819 -534Q818 -509 810 -492Q800 -472 782 -472Q776 -472 768 -475Q736 -469 711 -444Z"/>
</svg>