<svg xmlns="http://www.w3.org/2000/svg" viewBox="0 -800 1024 1024">
	<path fill="#000000" d="M670 -553Q651 -547 618 -538Q585 -529 572 -517Q592 -506 612 -496Q616 -501 638 -520Q665 -543 670 -553ZM430 -474Q430 -470 426 -469Q421 -468 418 -467Q407 -463 394 -457Q381 -451 375 -441Q381 -441 391 -446Q404 -452 414 -452Q411 -448 402 -443Q388 -435 388 -429Q388 -426 389 -424L391 -423Q399 -426 407 -429H409Q408 -426 403 -423Q397 -419 396 -415Q396 -413 400 -412Q405 -410 405 -407Q403 -401 400 -396H398Q367 -392 347 -377Q332 -371 318 -365Q303 -359 298 -345Q299 -341 302 -339Q304 -338 306 -336Q309 -337 354 -358Q366 -363 392 -373Q358 -346 338 -335Q309 -329 281 -311Q263 -300 236 -276V-275Q236 -252 222 -236Q208 -220 189 -220Q170 -220 159 -237H155Q117 -237 103 -260V-268Q105 -289 107 -310V-314Q105 -325 103 -337V-339Q104 -349 112 -358Q121 -366 128 -374Q149 -399 169 -424Q173 -429 177 -434Q181 -439 188 -439V-438Q188 -433 181 -424Q173 -413 173 -407Q173 -401 177 -396Q303 -436 428 -477ZM399 -579Q399 -569 393 -539Q386 -520 375 -507Q362 -501 319 -495Q316 -494 312 -494Q301 -494 281 -504Q263 -513 252 -513Q246 -513 238 -510Q233 -544 214 -555Q172 -543 140 -524Q147 -537 173 -551Q194 -562 202 -571Q198 -583 179 -583Q166 -582 152 -581Q156 -589 174 -594Q189 -598 194 -603Q186 -624 170 -624H166Q170 -629 179 -635Q191 -643 194 -648Q193 -653 186 -658Q177 -664 177 -669H179Q184 -669 192 -664Q197 -661 202 -660Q209 -661 209 -669V-677Q217 -670 243 -670Q247 -670 250 -670Q271 -670 283 -665Q289 -677 291 -694H292L294 -693Q300 -651 337 -651H344Q349 -653 353 -656Q359 -638 380 -603Q393 -591 399 -579ZM796 -87Q790 -71 775 -69H773V-71Q775 -88 788 -90Q792 -90 796 -87ZM837 -470V-467Q837 -456 830 -447Q825 -450 825 -461Q825 -473 831 -473Q834 -473 837 -470ZM697 -308Q709 -292 710 -291Q716 -281 723 -278Q728 -263 728 -254Q728 -237 719 -219Q716 -212 701 -189Q692 -174 683 -161Q674 -148 663 -143Q662 -146 662 -151Q666 -170 670 -189Q670 -194 669 -197Q651 -190 644 -164Q643 -159 635 -111Q631 -100 631 -86Q631 -76 637 -70Q644 -78 649 -101Q655 -129 665 -135V-132Q665 -112 655 -74Q646 -40 646 -18Q646 -6 647 0Q658 5 668 9Q682 2 699 -22Q718 -49 735 -55Q726 -38 711 -23Q697 -7 695 13Q695 20 696 23Q707 7 733 -23Q754 -47 764 -61Q765 -59 765 -56Q765 -51 754 -37Q719 12 712 38Q719 36 734 24Q750 12 759 8Q740 29 726 55Q729 63 739 75Q744 74 748 72L751 74Q751 76 747 78Q743 80 742 83V84L741 86Q741 104 730 120Q719 136 704 139Q701 140 695 140Q686 140 665 134Q648 129 638 129H637L638 132L637 134L609 120Q602 117 595 113Q588 110 587 101Q593 102 604 107Q617 113 628 113Q623 94 598 80Q597 80 551 58Q551 66 558 74Q563 80 564 84Q547 77 529 46Q513 18 498 11Q505 11 519 6Q540 -1 552 -1Q560 -1 564 0V-1Q564 -9 553 -39Q543 -66 541 -77Q543 -79 543 -83Q543 -88 542 -93L539 -94Q540 -104 544 -120L527 -136Q523 -139 518 -142Q514 -145 512 -145V-143Q512 -141 514 -137Q516 -133 518 -130Q520 -126 521 -123V-119Q521 -115 516 -98Q514 -90 509 -57Q504 -24 494 -2Q450 20 416 51Q411 59 402 61H400Q408 43 440 23Q466 6 475 -6H471Q458 -6 439 7Q430 12 407 28Q371 50 347 73Q339 81 339 92Q339 98 341 101Q349 97 356 90Q363 83 375 81V82Q374 90 365 96Q355 102 347 108Q340 118 332 127Q322 136 295 136H286Q269 127 264 110Q259 93 255 73Q251 60 236 41Q225 27 222 21Q235 24 242 32Q248 41 256 48Q260 45 260 42Q258 35 252 30Q220 -10 184 -51Q206 -38 232 -12Q264 20 277 29L278 27Q276 24 274 21L275 20Q280 20 287 25Q295 31 299 31H301Q327 31 349 20Q393 -6 400 -11Q422 -26 440 -46Q441 -57 442 -69Q442 -73 444 -79Q444 -83 445 -85V-90Q444 -92 437 -93Q440 -100 440 -102L439 -105L438 -109Q435 -108 434 -105Q431 -101 422 -97V-104Q422 -118 426 -125Q433 -132 433 -136Q435 -140 437 -152Q439 -162 443 -169Q457 -193 485 -190Q518 -187 527 -168Q527 -167 530 -154Q530 -151 545 -125Q560 -160 564 -205Q559 -207 565 -225Q559 -229 557 -229Q554 -229 552 -227Q548 -228 540 -228Q529 -228 511 -223Q414 -203 403 -184Q407 -151 406 -116Q411 -73 409 -35Q397 -30 362 -3Q342 5 327 -12Q323 -26 299 -29Q306 -47 305 -57Q304 -68 299 -85Q294 -102 293 -123Q293 -132 294 -136Q303 -131 308 -106Q312 -85 318 -79Q326 -87 326 -102V-106Q326 -152 290 -178Q282 -174 282 -156Q283 -143 284 -131Q272 -135 265 -161Q258 -187 247 -192Q247 -196 246 -200Q246 -211 254 -225Q261 -237 262 -246Q271 -251 279 -257Q287 -264 288 -274Q288 -276 287 -279Q295 -278 302 -278Q309 -278 313 -281Q329 -280 344 -279Q368 -271 394 -268Q400 -268 410 -270Q569 -294 592 -304Q605 -322 625 -327H627Q637 -325 646 -324Q658 -324 658 -326Q640 -334 625 -341Q616 -356 586 -363Q578 -365 574 -365Q553 -365 539 -349Q528 -336 522 -315Q482 -300 461 -303Q455 -311 436 -324Q431 -339 428 -365Q425 -396 421 -407Q426 -406 429 -398Q431 -392 434 -390Q439 -395 443 -395Q445 -395 448 -392Q497 -427 519 -464Q517 -472 517 -475Q517 -480 520 -486Q516 -485 508 -485Q469 -488 446 -525Q429 -542 426 -563Q427 -566 427 -570Q432 -574 436 -585Q442 -601 451 -603Q449 -597 449 -594Q449 -583 457 -578Q469 -582 479 -616Q489 -640 492 -665Q492 -680 482 -690Q474 -687 470 -677Q466 -666 466 -652Q466 -638 457 -631Q453 -638 453 -644Q453 -650 457 -660Q462 -673 462 -679V-680Q462 -691 447 -705Q431 -720 430 -726V-728Q430 -741 448 -762Q471 -791 491 -797Q509 -803 554 -798Q595 -752 606 -697Q610 -681 610 -680V-678Q610 -668 600 -654Q590 -640 590 -628Q616 -632 636 -637Q652 -640 668 -644Q675 -644 679 -640Q670 -632 637 -628Q610 -625 601 -621Q588 -615 588 -605Q589 -593 605 -592Q610 -592 613 -593Q673 -615 683 -618Q737 -632 751 -644Q748 -648 741 -648Q733 -647 725 -647Q719 -647 717 -648Q722 -656 732 -659Q742 -662 751 -665Q763 -671 776 -678Q789 -684 805 -685Q815 -685 825 -682Q835 -686 845 -691Q844 -685 842 -680Q842 -677 846 -674Q852 -676 859 -684Q870 -696 880 -697Q873 -687 866 -678Q859 -669 858 -653V-651L861 -650Q867 -652 872 -655L875 -654Q872 -648 869 -642Q871 -635 873 -626Q874 -618 881 -616V-610Q882 -596 883 -583Q883 -572 878 -565Q861 -550 839 -547Q816 -543 791 -536Q752 -520 720 -493Q696 -475 689 -468Q679 -458 670 -449Q661 -440 643 -438Q683 -419 785 -396Q790 -400 793 -416Q796 -432 800 -436Q803 -435 803 -425Q803 -417 806 -415V-449Q806 -483 816 -496Q821 -447 824 -398Q827 -402 827 -416Q827 -436 833 -439V-423Q833 -383 848 -352Q868 -313 867 -301Q863 -273 839 -263Q834 -262 823 -262Q795 -262 771 -270Q735 -288 711 -304Q711 -303 697 -308Z"/>
</svg>