<svg xmlns="http://www.w3.org/2000/svg" viewBox="0 -800 1024 1024">
	<path fill="#000000" d="M927 -159V-157Q922 -159 922 -168Q922 -182 930 -182Q933 -180 933 -176Q930 -167 927 -159ZM936 -713Q933 -699 920 -699Q918 -703 918 -704Q920 -714 929 -716Q933 -716 936 -713ZM314 -232V-237Q315 -245 315 -254Q315 -262 311 -265Q263 -246 241 -200Q278 -216 314 -232ZM664 -377H661Q642 -376 624 -365Q606 -354 592 -350Q570 -346 570 -333V-328Q575 -324 580 -324Q594 -327 613 -337Q631 -340 649 -343Q659 -358 664 -377ZM320 -353Q320 -360 319 -368Q321 -396 323 -425Q323 -432 321 -442Q302 -423 283 -391Q257 -353 256 -351Q242 -329 238 -308Q253 -314 277 -329Q307 -348 320 -353ZM700 -451Q710 -455 724 -498Q727 -505 730 -512L729 -514Q674 -491 650 -476Q628 -463 603 -448Q578 -433 566 -412Q579 -416 604 -427Q635 -441 658 -443Q661 -447 665 -449Q671 -450 676 -452Q683 -465 697 -467L698 -464Q698 -460 697 -456Q697 -452 700 -451ZM375 -251V-255Q375 -264 374 -274Q374 -290 384 -295V-184Q391 -186 402 -201Q413 -217 423 -220Q417 -192 416 -178Q424 -172 432 -172Q452 -175 475 -187Q502 -194 514 -208Q507 -214 499 -214Q493 -214 478 -208Q466 -203 460 -203Q454 -203 452 -205Q491 -236 535 -236Q548 -236 560 -233Q567 -219 582 -202Q583 -208 583 -218Q581 -239 579 -260Q560 -254 540 -248Q505 -261 480 -286L477 -288Q474 -287 470 -286L468 -289Q471 -297 474 -305Q460 -353 450 -375Q433 -411 408 -425Q399 -403 394 -374V-363Q394 -351 388 -349Q384 -353 384 -362Q387 -381 389 -401Q389 -411 384 -416Q359 -396 359 -315Q360 -284 360 -254Q360 -243 359 -232Q359 -214 369 -208Q372 -229 375 -251ZM952 63V65Q932 82 906 82Q884 82 866 70Q859 65 849 52Q838 37 834 34Q827 28 818 24Q810 19 809 11L810 7Q821 10 835 26Q851 44 866 46Q855 17 832 -3Q808 -24 783 -44Q749 -74 726 -83Q727 -71 749 -54Q769 -39 771 -28H768Q762 -28 758 -34Q755 -39 751 -43Q738 -51 724 -59Q709 -73 693 -89Q676 -105 656 -116Q654 -109 654 -93V-71Q654 -60 653 -55Q645 -60 645 -79Q646 -87 646 -95Q646 -105 643 -113Q629 -105 629 -68Q629 -55 631 -29Q635 48 652 61Q660 52 660 36Q658 14 655 -8Q655 -15 656 -18Q672 2 672 41Q672 68 663 86Q652 107 632 111Q598 108 581 87Q574 77 567 56Q561 36 558 31Q551 22 546 13H549Q555 13 558 16Q558 9 547 7Q539 5 537 2Q537 -3 543 -3Q548 -2 553 -2H555Q572 -26 572 -61Q571 -96 576 -131Q561 -125 555 -111Q550 -97 543 -79Q536 -67 527 -56Q503 -3 497 29Q496 43 495 59Q494 74 483 83H476Q440 81 427 58Q414 35 403 10L402 8L405 6L408 7L410 5Q409 -7 396 -20Q384 -32 382 -41Q404 -25 422 -23Q444 -50 459 -83Q449 -77 436 -77Q415 -77 410 -98Q397 -99 387 -113Q388 -122 388 -131Q388 -140 384 -145Q379 -37 379 -16Q379 39 387 80Q379 90 378 97Q365 105 351 105Q347 105 339 103Q311 94 300 68Q288 42 275 17Q276 15 278 15Q281 15 281 12V10Q277 -3 263 -5Q283 -8 291 -21Q300 -35 303 -55Q305 -98 310 -139Q295 -135 279 -125Q259 -113 256 -100Q256 -96 255 -92Q255 -83 262 -62Q268 -44 268 -33V-31Q256 4 198 19Q196 19 194 28Q188 24 180 13Q173 4 167 -1Q156 -7 145 -13Q139 -19 133 -27Q127 -34 120 -35L116 -34Q115 -35 115 -40V-45Q115 -54 113 -56H111Q106 -54 101 -52L98 -53Q99 -57 107 -64Q116 -73 117 -82Q118 -85 118 -92Q118 -105 117 -118V-125Q120 -144 122 -164Q121 -178 119 -192Q119 -204 129 -208Q132 -197 132 -185Q131 -166 130 -147Q130 -118 145 -109Q154 -139 154 -188Q154 -220 149 -253Q142 -289 131 -289H129Q119 -288 119 -272Q119 -266 122 -245Q109 -250 106 -264Q104 -278 99 -289Q91 -305 63 -322Q54 -338 43 -353Q32 -368 31 -387V-392Q32 -402 41 -419Q52 -439 52 -451L56 -450Q58 -450 60 -453Q62 -456 63 -457Q57 -475 50 -492Q43 -509 42 -532Q50 -516 58 -499Q66 -481 81 -472Q79 -494 69 -509Q75 -508 85 -497Q93 -487 98 -487L102 -488Q104 -492 104 -493Q102 -499 99 -505V-506L101 -507Q107 -504 114 -497Q125 -492 136 -488Q139 -491 144 -491H146Q152 -491 160 -485Q164 -489 172 -489Q196 -486 212 -464Q216 -466 221 -472Q228 -480 234 -481Q246 -500 275 -528Q311 -561 321 -584Q320 -591 318 -598Q325 -611 328 -615Q335 -624 343 -626Q356 -647 388 -649Q401 -649 410 -643Q417 -646 423 -649Q421 -643 421 -637Q421 -633 422 -632Q426 -632 432 -639Q441 -649 446 -650V-649Q446 -645 441 -637Q432 -623 432 -616Q432 -612 437 -605Q440 -605 441 -608Q442 -612 444 -612L447 -611V-606Q452 -583 456 -560Q456 -552 453 -546Q461 -557 476 -557Q502 -557 526 -529Q552 -543 581 -556Q574 -604 570 -653Q568 -663 558 -681Q545 -704 545 -717V-719Q545 -729 561 -753Q578 -778 591 -785Q598 -786 605 -788Q619 -797 632 -800Q636 -801 643 -801Q687 -801 703 -742H702Q694 -742 685 -758Q677 -772 672 -775Q665 -771 659 -764V-762Q659 -749 672 -730Q684 -713 684 -701Q682 -691 680 -682Q680 -677 684 -673Q699 -687 703 -724Q711 -721 711 -713Q711 -708 709 -702Q707 -691 695 -664Q678 -626 678 -605Q709 -617 740 -630Q771 -642 791 -665Q809 -678 832 -678Q850 -678 860 -667Q872 -673 884 -679L885 -677Q882 -671 878 -665L879 -662Q885 -665 896 -675Q910 -688 917 -691Q913 -680 904 -670Q894 -660 893 -643V-641H894Q899 -645 907 -649H909Q903 -640 903 -633Q903 -623 916 -608Q928 -594 930 -586V-568Q933 -552 935 -536Q935 -523 920 -514Q893 -512 878 -497Q861 -482 849 -464Q846 -468 846 -472Q846 -479 857 -493Q868 -507 868 -515Q868 -520 866 -523Q847 -520 832 -502Q826 -494 810 -466Q780 -417 779 -415Q763 -383 763 -351V-349Q770 -350 773 -356Q776 -363 779 -370L791 -392Q797 -404 804 -415Q810 -427 822 -429Q821 -419 814 -410Q807 -402 801 -394Q792 -375 782 -356Q767 -326 763 -316Q753 -290 752 -265V-260Q741 -253 728 -253Q712 -253 694 -267Q688 -272 668 -293H665Q655 -293 647 -287Q658 -267 662 -245Q659 -228 656 -211V-209Q666 -193 688 -193H693Q706 -196 727 -228Q748 -259 760 -265Q760 -267 759 -270Q760 -282 769 -291Q778 -299 786 -307Q814 -315 838 -319Q853 -319 862 -307Q872 -309 882 -311Q880 -306 878 -302Q881 -302 886 -308Q894 -317 901 -317H902V-316Q902 -312 896 -304Q885 -289 885 -280Q896 -263 896 -238Q896 -198 875 -179Q862 -183 845 -183Q806 -180 771 -167Q765 -165 758 -165Q751 -164 748 -157Q766 -145 785 -128Q797 -123 808 -118Q814 -111 820 -104Q843 -87 878 -82Q883 -82 885 -83Q886 -99 887 -114Q888 -130 894 -139V-122Q894 -94 900 -80Q903 -92 903 -107Q902 -130 901 -153Q901 -180 909 -193Q912 -173 912 -153V-116Q912 -85 918 -67Q921 -76 921 -87Q920 -108 918 -129Q918 -139 921 -148Q931 -82 932 -76Q941 -37 959 -19V-5Q959 13 965 17Q960 24 960 31Q960 34 962 40Q955 50 952 63Z"/>
</svg>