<svg xmlns="http://www.w3.org/2000/svg" viewBox="0 -800 1024 1024">
	<path fill="#000000" d="M634 -577Q626 -577 617 -578Q606 -578 604 -571Q619 -574 634 -577ZM139 -292Q130 -298 123 -307Q126 -313 130 -313Q140 -311 141 -299Q141 -296 139 -292ZM763 -444V-429Q753 -430 742 -432V-435Q742 -444 758 -444ZM475 -63Q474 -71 469 -74Q458 -71 446 -68Q434 -66 430 -57Q448 -60 466 -64Q472 -64 475 -63ZM567 -319Q563 -322 553 -322Q536 -319 518 -317Q463 -309 456 -296Q552 -314 567 -319ZM601 -166Q599 -168 599 -171Q600 -175 600 -179L599 -183Q564 -180 544 -174Q512 -165 505 -146Q553 -156 601 -166ZM570 -379Q541 -373 507 -366Q474 -359 453 -347Q457 -338 468 -338Q479 -338 495 -342Q550 -355 570 -379ZM475 -612H470Q460 -612 458 -602Q453 -603 441 -603Q415 -603 404 -596Q407 -581 412 -568Q404 -552 396 -537Q387 -534 379 -534Q362 -534 347 -547Q338 -555 325 -573H321Q304 -570 287 -568H283Q284 -577 291 -580Q298 -583 305 -586Q300 -588 286 -588Q268 -588 251 -582Q233 -575 228 -564Q232 -562 235 -562Q239 -562 251 -567Q265 -573 275 -573H277Q269 -562 251 -552Q245 -547 237 -538Q228 -530 219 -528Q215 -527 211 -527Q194 -527 174 -536Q154 -545 150 -555Q147 -561 147 -569Q147 -590 159 -600Q156 -612 156 -623Q156 -670 201 -690Q201 -674 206 -671Q245 -676 283 -681Q277 -690 277 -704Q279 -719 280 -734H283Q286 -733 290 -727Q294 -721 299 -720H301Q306 -721 307 -726Q320 -710 348 -693Q391 -701 421 -721Q425 -719 428 -712Q438 -717 441 -717Q459 -712 470 -696Q473 -692 486 -663Q486 -655 481 -642Q476 -626 475 -612ZM884 2V3Q887 8 893 9Q899 9 905 12Q888 22 885 44Q883 67 880 88Q857 101 825 101Q790 101 760 86Q762 80 773 80Q786 81 798 82Q806 82 810 79Q793 67 748 67Q735 67 717 69Q718 75 728 77Q738 78 739 84Q725 86 719 86Q683 83 647 79Q609 77 589 77Q513 80 437 82Q448 72 474 70Q506 68 526 68Q595 70 663 71Q689 71 701 70Q689 62 670 61Q651 59 631 58Q610 56 555 56Q510 56 490 57Q390 61 357 78Q365 81 378 81H398Q410 81 415 82Q374 91 331 99Q288 107 257 128Q239 125 222 107Q218 106 209 106Q192 106 185 101Q174 93 174 74Q174 64 179 56Q184 48 193 47Q189 39 189 31Q189 13 225 4Q247 -4 272 -12Q296 -21 323 -22H332Q323 -16 301 -9Q269 1 261 13Q266 16 271 16Q284 13 296 9L298 10Q296 13 293 16Q317 25 348 25Q367 25 402 21Q446 16 467 16H472Q477 11 478 6Q473 4 463 4Q434 9 402 14Q394 14 390 13Q389 4 377 -4Q366 -11 366 -17Q366 -22 371 -26Q376 -30 378 -33Q381 -40 386 -46Q390 -53 401 -54Q393 -62 384 -66Q385 -68 385 -71Q385 -77 379 -86Q372 -97 372 -102Q372 -106 373 -108Q365 -118 357 -128L360 -129Q365 -127 370 -125Q378 -132 398 -137Q419 -142 425 -147Q423 -148 420 -148Q405 -144 389 -140H385Q384 -144 377 -154Q369 -165 369 -172V-174Q374 -186 401 -192Q427 -198 440 -204Q445 -202 449 -201Q485 -217 536 -229Q577 -241 588 -241Q608 -241 622 -226Q616 -211 610 -197Q638 -191 663 -188Q676 -188 686 -195Q681 -187 681 -185Q681 -184 683 -180Q685 -179 689 -179Q696 -179 708 -187Q723 -197 732 -197Q709 -191 706 -170Q706 -160 715 -153Q739 -164 769 -168Q752 -163 741 -157Q726 -149 720 -138Q721 -130 732 -130Q740 -130 747 -131Q756 -131 758 -126Q751 -129 744 -129Q735 -129 729 -123Q723 -117 723 -108Q723 -93 736 -86L734 -85Q726 -88 721 -94Q715 -88 709 -82Q703 -77 702 -68Q699 -75 685 -77Q669 -80 669 -91L672 -92Q684 -88 696 -85Q702 -85 702 -93V-94Q701 -99 694 -101Q683 -104 680 -106Q676 -108 670 -117Q665 -124 659 -125Q656 -123 656 -120Q659 -111 661 -103V-100Q657 -100 651 -106Q647 -110 643 -111Q640 -111 636 -112Q614 -110 588 -103Q558 -99 540 -90Q547 -88 554 -86Q561 -85 563 -77Q595 -93 615 -93Q629 -93 637 -86Q643 -88 648 -91H650Q661 -72 675 -69Q679 -54 684 -50Q678 -43 670 -37Q662 -32 661 -19V-17H654Q634 -17 613 -18Q584 -18 567 -9V1Q672 4 684 4Q796 4 852 -17Q849 -11 846 -5Q850 3 858 3Q871 1 883 -1Q888 -1 890 0L889 2L885 1ZM932 -255V-250Q911 -235 906 -219Q902 -223 894 -223Q884 -222 873 -221Q867 -221 864 -222Q865 -231 879 -234Q894 -237 897 -246Q893 -254 872 -254Q849 -253 826 -235Q805 -219 794 -200Q808 -205 822 -216Q837 -225 842 -225Q848 -225 852 -218Q819 -198 791 -172Q786 -174 777 -180Q762 -190 756 -190Q753 -190 749 -188Q750 -190 750 -195Q750 -206 743 -207Q732 -203 723 -198Q729 -217 746 -226Q741 -230 735 -230Q725 -230 710 -211Q700 -199 696 -197Q706 -222 724 -238Q742 -254 760 -270Q602 -258 430 -213Q453 -234 489 -241Q525 -249 563 -257Q559 -261 551 -261Q541 -259 531 -257L434 -234Q376 -221 373 -220Q340 -210 322 -192Q327 -189 332 -189Q349 -192 366 -201Q397 -211 415 -213Q408 -201 377 -191Q346 -181 338 -172Q346 -144 347 -134Q332 -129 330 -106H328Q316 -106 298 -96Q284 -89 274 -88H270Q257 -88 231 -100Q206 -112 191 -112Q184 -112 175 -109V-112Q175 -126 163 -126Q145 -126 130 -111Q130 -125 148 -135Q145 -145 129 -159Q118 -169 114 -175Q111 -177 101 -177Q109 -187 113 -201Q100 -212 62 -226Q65 -227 71 -227Q88 -224 101 -219Q113 -227 125 -235Q113 -252 97 -263Q80 -275 65 -288Q84 -285 135 -257Q141 -259 151 -269Q149 -277 147 -286V-288Q159 -282 166 -282Q169 -286 169 -290Q167 -299 164 -309Q164 -311 166 -315Q169 -312 172 -301Q176 -287 185 -284H189Q201 -285 212 -287H215Q228 -286 240 -270Q249 -258 257 -254Q350 -276 390 -282Q390 -285 382 -291Q374 -298 372 -303Q376 -305 377 -305Q385 -301 393 -298H394Q388 -328 357 -341V-339Q361 -330 364 -315V-310Q361 -318 348 -329Q333 -342 332 -351V-354Q332 -362 338 -374Q345 -388 345 -395Q345 -399 342 -407Q354 -391 387 -391Q413 -391 437 -398Q430 -403 422 -407Q413 -411 409 -419V-426Q410 -451 433 -459Q454 -466 475 -473Q474 -477 468 -477Q461 -475 453 -473Q421 -464 365 -441Q322 -423 304 -417Q315 -436 338 -445Q361 -454 385 -462L452 -486Q447 -486 442 -487Q393 -487 281 -436Q259 -425 248 -414Q238 -407 231 -387Q231 -383 236 -381H237Q251 -389 263 -402Q272 -408 282 -408H286Q286 -402 281 -400Q277 -397 272 -393Q260 -378 246 -358Q231 -337 207 -335H203Q185 -337 154 -361V-368Q154 -380 146 -399Q138 -418 138 -428V-433Q139 -450 156 -473Q166 -491 179 -505Q188 -511 205 -515Q224 -520 231 -524Q231 -520 227 -515Q224 -511 224 -508Q226 -508 227 -505Q278 -506 367 -528Q435 -545 475 -548Q472 -575 469 -603Q480 -609 492 -609Q514 -609 534 -597Q537 -585 539 -574Q536 -571 533 -570Q530 -568 530 -563Q531 -560 531 -558H536Q561 -562 585 -567Q577 -573 567 -573Q561 -573 558 -571Q562 -577 587 -605Q583 -610 578 -610Q566 -606 554 -602Q537 -602 517 -620Q506 -674 505 -690Q496 -695 489 -703Q526 -710 563 -718Q588 -720 612 -723Q615 -738 618 -753Q616 -759 605 -759Q599 -758 593 -758Q604 -776 631 -794Q667 -816 680 -816H681Q700 -816 734 -788Q762 -765 776 -762Q772 -756 766 -752Q761 -747 760 -738Q764 -737 771 -737Q781 -737 805 -743Q807 -729 825 -717Q833 -721 850 -721Q860 -721 864 -720Q855 -718 847 -715Q838 -712 837 -702Q837 -698 843 -698Q848 -698 853 -699H855Q852 -695 846 -695Q838 -688 835 -677Q835 -673 838 -673Q841 -673 843 -674Q829 -664 821 -646Q814 -629 807 -611Q781 -612 754 -614L753 -618Q753 -624 770 -625Q789 -626 791 -633Q785 -646 733 -646Q679 -646 669 -633Q676 -627 697 -627H709Q733 -627 739 -617Q728 -614 709 -613Q683 -611 677 -610Q640 -604 637 -579Q720 -587 781 -609Q783 -603 784 -597Q790 -598 795 -599H797L800 -598Q797 -594 794 -591Q801 -590 816 -590Q831 -590 837 -588Q832 -584 825 -582Q817 -580 816 -571Q817 -567 821 -565Q825 -564 829 -562Q827 -558 827 -551Q827 -546 829 -536Q808 -528 807 -504Q767 -513 731 -513H723Q669 -512 616 -509Q563 -506 526 -488Q530 -487 533 -487Q551 -488 568 -489Q603 -489 603 -462V-456Q601 -456 598 -457Q589 -457 584 -451Q579 -445 578 -436Q542 -436 497 -422Q460 -410 449 -402Q481 -406 513 -417Q561 -428 578 -435Q591 -440 609 -457Q626 -473 637 -477Q643 -469 651 -459Q658 -449 670 -448H671Q679 -449 685 -457Q690 -466 696 -473L697 -469Q694 -458 687 -447Q691 -435 700 -435Q709 -436 718 -437Q725 -437 729 -435Q726 -430 715 -428Q703 -425 701 -419Q708 -404 714 -389Q721 -375 721 -357H719Q707 -353 695 -350H692Q693 -355 697 -358Q702 -361 702 -364L698 -372Q656 -368 649 -348Q664 -351 678 -354Q684 -350 686 -347Q684 -345 676 -343Q663 -340 663 -335L664 -333Q692 -338 719 -343Q722 -343 725 -344Q747 -345 768 -347Q774 -347 788 -345Q795 -356 825 -363Q858 -371 867 -384Q871 -389 871 -394Q872 -399 881 -402Q876 -395 876 -380Q876 -374 878 -366Q902 -351 906 -338H915L916 -336Q915 -333 914 -331V-330Q925 -333 935 -336Q931 -325 920 -312Q932 -276 932 -255Z"/>
</svg>