<svg xmlns="http://www.w3.org/2000/svg" viewBox="0 -800 1024 1024">
	<path fill="#000000" d="M518 36H497Q498 29 504 29H515Q517 32 518 35ZM814 -448Q805 -445 800 -445Q796 -445 794 -446Q796 -456 807 -457Q814 -457 814 -448ZM90 -434V-433Q83 -430 75 -428Q71 -428 68 -433V-434Q68 -440 79 -440Q90 -440 90 -434ZM440 -586Q438 -590 438 -602Q438 -616 435 -620Q423 -601 423 -592Q423 -588 425 -582Q437 -584 440 -586ZM466 -194V-192Q469 -193 474 -193Q483 -192 491 -192Q490 -202 488 -213Q475 -209 462 -205Q464 -199 466 -194ZM444 -535Q444 -551 442 -552Q440 -553 435 -553Q424 -553 420 -549Q417 -547 417 -532Q431 -533 444 -535ZM408 -474V-471Q425 -474 441 -478Q443 -484 444 -490Q440 -493 432 -493Q423 -493 416 -488Q408 -482 408 -474ZM608 -499Q599 -495 567 -486Q567 -477 566 -472Q594 -478 600 -481Q608 -485 608 -499ZM496 -57V-60Q476 -54 456 -49Q452 -51 438 -63V-59Q438 -52 437 -46L438 -42Q468 -44 497 -46Q497 -51 496 -57ZM461 -109H471Q487 -109 496 -114Q494 -123 491 -124Q479 -121 466 -118Q460 -124 453 -124Q441 -124 441 -108V-105Q446 -109 461 -109ZM611 -551V-559Q611 -571 607 -574Q583 -565 581 -564Q570 -557 570 -540V-538Q588 -541 611 -551ZM607 -616V-618Q609 -630 610 -642Q610 -648 608 -650Q596 -649 587 -639Q578 -629 578 -618Q578 -613 582 -605Q598 -615 607 -616ZM499 -472Q512 -539 512 -578Q512 -610 506 -629Q492 -602 492 -554Q492 -530 499 -472ZM153 -381H148Q144 -381 143 -379L142 -381Q148 -385 154 -390Q152 -408 137 -409H134Q138 -416 142 -423Q141 -442 115 -442Q106 -442 98 -439L97 -441Q97 -444 102 -446Q107 -448 110 -450Q104 -457 91 -457Q72 -455 52 -453Q52 -460 71 -465Q90 -470 93 -478Q91 -479 86 -479Q57 -473 28 -468Q47 -481 89 -502Q140 -527 161 -544Q158 -527 139 -519Q118 -511 108 -496Q141 -505 166 -520Q192 -536 217 -552Q214 -561 214 -563Q207 -562 197 -555Q186 -548 176 -547Q179 -559 194 -574Q206 -587 210 -595Q208 -603 206 -612Q217 -606 247 -599Q277 -592 290 -584Q297 -537 320 -494Q317 -489 317 -483Q317 -477 321 -471Q313 -465 313 -450Q313 -443 314 -440Q293 -424 241 -402Q192 -381 172 -367Q164 -373 160 -382Q158 -381 153 -381ZM933 -627V-622Q933 -618 928 -612Q924 -607 923 -604Q923 -600 922 -597Q923 -584 924 -571Q924 -559 921 -553Q878 -535 834 -518Q791 -500 759 -468Q722 -469 717 -508Q697 -521 693 -529Q693 -541 694 -554Q695 -568 699 -577Q692 -591 692 -609Q692 -631 704 -651Q716 -670 733 -676V-666Q738 -662 745 -662Q759 -665 773 -669Q764 -660 751 -655Q737 -651 736 -635Q807 -657 850 -694Q835 -694 816 -683Q797 -672 783 -672Q789 -688 805 -693Q821 -699 835 -706Q860 -723 882 -742H887Q884 -739 884 -734Q884 -724 893 -719Q900 -720 916 -728Q931 -736 941 -736H943Q934 -729 924 -723Q915 -718 914 -705V-703H915Q920 -704 924 -706Q926 -706 928 -704Q925 -692 921 -680Q921 -679 923 -673L924 -672Q927 -674 930 -676H931Q928 -671 928 -662Q931 -644 933 -627ZM826 94H825Q813 94 795 75Q782 62 774 59Q773 45 764 35Q762 33 746 18H748Q752 18 755 17Q757 9 757 5Q757 -5 753 -13Q749 -20 745 -27Q747 -30 748 -33Q746 -36 738 -38Q731 -40 729 -43Q729 -46 732 -46Q738 -44 743 -42Q745 -46 745 -52Q745 -66 715 -78Q689 -88 684 -97Q690 -99 693 -99Q701 -99 715 -92Q729 -85 737 -85H742Q726 -104 676 -119Q641 -130 628 -138Q658 -132 687 -124Q712 -116 741 -113Q764 -113 774 -130Q783 -145 786 -208Q790 -263 794 -277Q790 -279 786 -279Q780 -279 774 -274Q768 -269 767 -262Q755 -261 742 -244V-243Q745 -236 748 -230Q744 -227 742 -223Q736 -226 733 -226Q732 -226 720 -220Q684 -246 672 -276Q668 -263 662 -235H636Q627 -235 623 -236Q624 -244 631 -246Q638 -248 644 -250Q641 -259 617 -259Q615 -259 579 -256Q552 -252 549 -241Q572 -243 594 -245Q601 -245 613 -243Q608 -234 581 -233Q554 -232 549 -224Q553 -216 554 -211Q564 -212 574 -214Q581 -214 586 -208Q597 -212 608 -216L610 -214Q610 -211 601 -202Q603 -198 604 -193Q605 -187 611 -187H613Q603 -179 603 -164Q604 -159 604 -155Q578 -150 567 -146Q549 -139 543 -126Q547 -122 552 -122Q566 -126 582 -133Q596 -124 606 -124Q611 -124 614 -127L616 -124Q614 -121 611 -118V-117Q611 -113 613 -113H615L617 -111Q613 -83 608 -73Q592 -72 562 -72H545Q539 -71 539 -59V-52Q551 -49 564 -49Q581 -49 616 -57Q641 -63 652 -64Q656 -80 660 -96Q674 -55 703 -39Q701 -36 701 -30Q705 -12 708 5Q703 12 703 24Q703 32 706 36Q694 53 682 69Q615 44 533 36Q534 29 545 29Q549 28 558 28Q571 28 604 34Q632 39 646 39H649Q634 25 590 19Q569 16 506 14H494Q429 14 429 34Q429 37 431 41Q453 34 476 30Q483 30 490 33Q435 50 422 80H419Q397 79 387 62Q377 45 367 27Q351 6 348 -19Q348 -26 349 -30Q356 -56 372 -78Q375 -73 375 -70Q372 -57 368 -44Q368 -41 370 -37Q384 -58 390 -88Q395 -118 404 -145Q389 -133 381 -94Q378 -101 378 -109Q381 -134 389 -155Q379 -162 368 -167Q356 -173 349 -183H348Q344 -179 340 -176L339 -177Q343 -184 346 -192Q344 -193 340 -193Q324 -193 318 -177L317 -180Q322 -187 327 -195H326Q319 -192 312 -189Q314 -144 320 -66Q307 -73 307 -116Q307 -147 301 -158Q292 -109 292 -56Q292 -34 293 -25Q295 -8 305 -1Q310 -26 314 -51Q317 -33 317 -14Q317 36 290 39H286Q254 39 220 -15Q222 -27 222 -32Q222 -51 213 -63Q211 -66 205 -70Q198 -75 197 -79V-81L199 -83Q203 -82 206 -82H207Q216 -113 223 -151Q201 -146 187 -128Q174 -110 158 -92Q141 -74 126 -60Q111 -46 101 -27Q93 -33 65 -33Q47 -53 44 -77V-79Q48 -89 52 -99V-100Q51 -110 44 -114Q36 -119 31 -126Q28 -138 28 -148Q29 -167 35 -185Q41 -204 46 -226Q56 -287 66 -348V-339Q64 -303 61 -268Q61 -236 78 -224V-230Q77 -258 76 -286Q76 -305 78 -315Q84 -272 95 -236Q148 -275 200 -315Q214 -328 229 -332Q233 -332 235 -331Q229 -321 204 -300Q187 -286 178 -276Q265 -322 293 -362Q291 -363 286 -363Q278 -363 264 -350Q253 -339 246 -337V-340Q246 -354 274 -374Q282 -382 291 -393Q300 -404 308 -406Q310 -407 316 -407Q325 -407 326 -400Q333 -402 346 -402Q385 -397 385 -338Q384 -311 382 -285Q354 -270 323 -246Q307 -230 307 -215Q307 -207 311 -199Q346 -231 379 -267Q383 -272 387 -277Q391 -283 398 -283V-280Q398 -273 387 -259Q375 -244 375 -236Q375 -232 376 -230Q389 -247 407 -269Q425 -290 429 -316Q430 -321 430 -326Q430 -338 422 -339Q419 -334 415 -316Q412 -300 407 -293Q401 -305 401 -320Q401 -349 419 -385Q445 -374 470 -361Q494 -348 499 -315Q496 -303 492 -292Q492 -288 493 -286Q522 -297 548 -301Q543 -307 529 -311Q515 -315 511 -319Q505 -340 503 -367Q511 -378 521 -381Q531 -384 546 -388Q548 -387 548 -384Q547 -380 552 -377Q562 -377 564 -381Q569 -363 571 -358Q579 -358 587 -359H591Q588 -355 574 -349Q576 -345 576 -339Q575 -328 568 -320Q560 -313 555 -304Q574 -313 588 -322Q603 -330 624 -331H637Q647 -331 665 -336Q655 -328 655 -323L656 -319L659 -318Q660 -318 669 -324V-322Q668 -314 667 -307Q667 -302 670 -298Q676 -310 676 -322Q673 -350 669 -378Q669 -388 670 -393Q665 -389 657 -389Q642 -389 613 -418Q571 -417 540 -391Q520 -408 502 -428Q504 -420 504 -417Q503 -404 497 -393Q490 -383 485 -371Q473 -378 467 -378Q464 -377 461 -377Q453 -383 445 -390Q447 -398 447 -401Q444 -412 441 -424Q389 -421 388 -406H391Q406 -409 421 -412Q427 -412 433 -409Q423 -399 409 -395Q394 -390 381 -384Q352 -401 331 -457Q326 -467 321 -477V-478Q321 -494 349 -543Q353 -540 353 -535Q350 -522 347 -510Q347 -506 350 -505Q358 -504 366 -523Q374 -542 374 -563Q374 -584 364 -597Q361 -585 359 -572Q357 -560 349 -553V-559Q349 -571 335 -599Q324 -621 324 -631Q324 -642 336 -649Q336 -652 332 -654Q327 -657 327 -661Q336 -658 343 -655Q340 -662 337 -670L339 -672Q345 -668 351 -662Q347 -666 346 -672Q352 -664 362 -663Q372 -663 382 -661Q391 -657 397 -649Q402 -641 408 -635Q417 -651 426 -668Q435 -685 453 -688Q470 -679 496 -655V-660Q496 -678 508 -679Q505 -683 503 -694L506 -695Q512 -691 518 -687H521Q535 -689 549 -691L550 -689Q550 -686 543 -681Q547 -677 551 -677Q570 -677 589 -698Q607 -710 612 -719L611 -722Q609 -724 605 -724Q600 -724 585 -712Q568 -698 557 -697Q565 -715 593 -737Q622 -760 631 -776Q659 -771 665 -771Q682 -771 693 -779Q696 -779 696 -774V-766Q708 -773 720 -781Q714 -770 708 -760L709 -759Q714 -761 718 -764L721 -762Q714 -757 714 -745Q716 -727 718 -710V-704Q700 -697 697 -679Q697 -673 699 -670Q677 -636 673 -615Q669 -622 669 -631Q671 -648 673 -666Q673 -673 672 -676Q652 -655 652 -582Q653 -558 653 -535Q653 -519 659 -509Q662 -522 663 -547Q664 -587 672 -598Q676 -569 676 -527V-468Q673 -470 670 -475Q665 -482 660 -484Q657 -476 657 -464Q657 -441 663 -431Q668 -439 672 -459Q677 -439 678 -414Q683 -415 692 -422Q701 -429 706 -431Q716 -435 744 -438Q772 -441 786 -446Q779 -433 748 -430Q716 -427 711 -409Q794 -422 899 -466Q866 -462 829 -456Q852 -476 883 -483Q914 -489 947 -500Q935 -492 935 -481Q935 -471 947 -453Q950 -455 956 -455Q964 -455 967 -451Q964 -445 952 -439Q964 -430 964 -423Q964 -416 953 -408Q956 -397 956 -387Q953 -357 949 -327Q901 -324 872 -301V-300Q872 -297 871 -295L873 -293Q869 -287 865 -282Q863 -256 863 -237Q863 -231 866 -147Q868 -124 870 -102Q870 -88 866 -79Q858 -89 857 -128Q857 -166 848 -177Q844 -168 842 -144V-131Q842 -28 862 -1Q868 -7 868 -33Q868 -54 872 -61Q873 -50 879 -29Q888 5 888 20Q887 38 879 51Q870 65 860 77Q854 79 844 86Q833 94 826 94Z"/>
</svg>