<svg xmlns="http://www.w3.org/2000/svg" viewBox="0 -800 1024 1024">
	<path fill="#000000" d="M284 -393Q296 -452 308 -512Q283 -509 258 -480Q233 -451 230 -423Q230 -417 229 -412Q229 -390 239 -372Q249 -379 284 -393ZM658 -25H655Q645 -28 634 -31Q635 -40 640 -40Q653 -36 658 -25ZM464 -433V-438Q464 -459 475 -459H478Q478 -433 464 -433ZM604 -156H603Q604 -170 615 -183Q600 -190 600 -216Q600 -230 607 -241Q623 -249 637 -259Q651 -268 673 -269H678Q691 -251 713 -229Q735 -208 737 -177Q737 -173 735 -163Q734 -157 726 -148Q718 -139 716 -131Q699 -128 682 -125Q671 -125 664 -135Q657 -133 650 -132Q649 -134 649 -142Q629 -122 618 -94Q614 -98 614 -104Q614 -112 623 -129Q632 -146 632 -152Q632 -162 621 -168Q616 -168 610 -161Q606 -156 604 -156ZM749 -119V-141Q752 -207 755 -273Q755 -297 752 -324Q736 -323 707 -304Q678 -284 662 -283H658Q623 -285 612 -322Q597 -331 590 -340Q580 -353 580 -371Q580 -379 581 -384Q582 -392 594 -413Q602 -428 606 -438Q608 -450 610 -462Q620 -475 634 -483Q640 -488 647 -498Q657 -512 664 -513Q661 -502 652 -488Q644 -473 643 -456V-450Q646 -444 649 -439Q651 -438 655 -438Q664 -439 672 -441H674Q676 -446 687 -450Q688 -450 712 -457Q746 -466 745 -478Q745 -486 736 -486Q729 -486 706 -476Q688 -468 682 -468H680V-471Q680 -482 698 -486Q726 -500 745 -507Q735 -555 734 -558Q726 -587 714 -600Q719 -608 719 -617Q719 -630 711 -634Q727 -654 741 -676Q755 -699 778 -712Q780 -716 782 -720Q812 -733 827 -733Q832 -732 837 -732Q849 -721 867 -694Q888 -664 890 -649Q891 -645 891 -636Q888 -598 875 -562Q895 -566 914 -580L915 -577Q913 -571 911 -565Q920 -568 934 -579Q945 -588 954 -592Q954 -586 946 -577Q935 -564 935 -554V-553L939 -552Q942 -552 945 -556Q949 -561 952 -561H954Q951 -550 948 -539Q948 -535 951 -531Q954 -531 955 -536Q956 -540 959 -540H961Q963 -537 963 -533Q962 -526 961 -519V-517Q965 -509 969 -501V-499Q965 -484 961 -469Q960 -461 960 -446V-443Q960 -413 946 -403Q935 -397 920 -395Q905 -393 893 -390Q874 -384 846 -367Q839 -347 838 -298Q837 -259 835 -246Q829 -250 828 -269Q827 -286 823 -291Q811 -279 809 -249Q806 -213 806 -171Q806 -78 829 -46Q835 -61 835 -87Q833 -121 831 -156Q828 -174 828 -175Q828 -183 835 -187Q841 -183 841 -170Q841 -161 840 -153Q846 -54 862 -10Q859 -2 859 5Q861 18 862 31Q862 35 861 38Q856 53 846 69Q835 92 834 101Q820 112 802 119Q773 114 756 97Q739 80 723 60Q720 28 700 13Q680 -2 667 -25Q702 -8 708 -2Q700 -15 671 -36Q638 -60 628 -78Q641 -73 666 -55Q702 -30 719 -28Q712 -43 696 -48Q680 -54 674 -69Q695 -60 721 -58Q732 -58 740 -62Q749 -89 749 -119ZM364 -125Q369 -133 372 -135Q369 -139 386 -187Q403 -235 419 -282Q437 -325 454 -400Q456 -407 456 -415Q457 -423 466 -424Q469 -423 471 -423Q465 -402 457 -380Q449 -359 448 -337Q449 -332 449 -328Q466 -341 473 -364Q480 -387 486 -412Q498 -461 510 -510Q519 -531 523 -553Q523 -562 517 -570Q506 -565 497 -539Q490 -519 484 -513Q489 -572 513 -667Q506 -678 506 -693Q509 -740 551 -766Q566 -774 573 -775Q576 -776 580 -776Q591 -776 605 -765Q617 -756 624 -754Q625 -749 625 -744V-741Q636 -731 646 -699Q654 -674 659 -667Q660 -662 660 -657Q659 -635 648 -621Q638 -608 627 -591Q613 -570 603 -549Q601 -540 599 -532Q595 -525 590 -519Q589 -510 587 -502Q577 -478 567 -454Q562 -437 557 -421V-407Q547 -382 538 -354H540Q558 -354 570 -341Q578 -333 588 -312Q603 -282 603 -270Q600 -244 591 -213Q588 -197 585 -181V-136Q585 -113 579 -100Q574 -108 574 -133Q574 -160 569 -168Q554 -156 554 -113Q554 -66 569 -46Q578 -48 579 -59Q580 -71 584 -79Q592 -63 593 -39Q593 -16 596 6Q591 10 589 19Q589 22 590 24Q564 29 558 50Q554 49 554 42V36Q549 27 526 23Q522 14 514 3Q501 -15 498 -24Q493 -39 491 -55Q488 -71 478 -84Q494 -97 494 -144V-169Q494 -186 495 -193Q481 -163 467 -97Q455 -43 449 -24Q453 -16 453 -13Q453 0 439 13Q427 24 419 24H418Q397 14 378 -7Q371 -17 363 -31Q331 -18 302 -4Q274 9 237 18Q247 4 265 -3Q283 -10 302 -20Q312 -26 322 -33Q322 -39 313 -39Q304 -39 274 -29Q217 -10 202 -3Q164 15 150 40Q153 45 158 45Q170 42 182 39Q189 39 191 45Q175 51 153 62Q131 72 129 100V101Q116 105 103 108H101Q90 108 71 88Q50 66 50 46Q50 34 59 25Q55 17 55 7Q55 -9 68 -28Q72 -34 91 -57Q88 -51 88 -41Q88 -35 90 -27Q120 -32 148 -44Q139 -80 135 -88Q125 -111 108 -119Q105 -132 101 -146V-148Q103 -158 105 -168V-170Q105 -175 98 -182Q92 -188 92 -193V-194Q107 -194 113 -192Q112 -194 112 -198Q112 -216 162 -216Q172 -215 182 -215Q216 -177 216 -98Q216 -79 215 -69Q224 -73 240 -78Q236 -131 231 -185Q231 -194 233 -210Q223 -243 212 -273Q204 -263 200 -249Q197 -250 191 -250Q184 -250 170 -242Q152 -254 149 -256Q137 -266 133 -278H131Q126 -277 120 -276Q123 -285 123 -291Q123 -305 108 -327Q94 -348 93 -360L97 -361Q104 -361 110 -353Q113 -350 119 -338Q135 -312 141 -309Q144 -315 144 -323Q144 -339 127 -371Q110 -405 107 -409Q93 -428 71 -431Q66 -424 66 -419Q66 -413 74 -402Q83 -389 83 -380V-378L81 -377Q76 -379 73 -386Q61 -396 46 -410Q31 -424 27 -441Q26 -447 26 -458Q27 -481 28 -505Q28 -515 27 -521Q33 -530 49 -566Q41 -583 38 -604Q38 -609 39 -611Q46 -601 51 -588Q56 -576 67 -569Q72 -571 76 -573Q76 -589 68 -612Q60 -635 60 -646Q60 -653 61 -657Q70 -620 90 -593Q99 -597 99 -606Q99 -611 93 -624Q87 -637 87 -643V-645Q97 -631 110 -619Q117 -613 129 -606Q144 -598 151 -588Q157 -581 162 -575Q179 -583 200 -599Q293 -661 338 -699Q341 -698 346 -698Q354 -698 366 -704V-701Q366 -696 370 -695Q373 -694 376 -692Q391 -714 406 -722Q396 -707 396 -690Q396 -680 400 -675Q406 -685 407 -686Q412 -692 418 -693Q409 -679 409 -669Q409 -658 425 -640Q444 -619 446 -600Q450 -568 453 -555Q430 -544 427 -521Q381 -472 366 -378Q363 -350 361 -323Q359 -297 344 -278Q326 -281 308 -284V-280Q308 -264 307 -249Q307 -235 311 -228Q323 -233 347 -245Q351 -239 355 -239Q358 -239 360 -240Q359 -237 359 -231Q359 -210 373 -204Q370 -198 369 -178Q368 -156 363 -149Q334 -141 325 -137Q304 -127 304 -113Q304 -108 307 -102Q317 -104 332 -113Q351 -124 364 -125Z"/>
</svg>