<svg xmlns="http://www.w3.org/2000/svg" viewBox="0 -800 1024 1024">
	<path fill="#000000" d="M854 -336V-334Q854 -328 846 -328Q843 -328 839 -330V-332Q839 -339 849 -339H853V-338ZM117 -651V-653Q117 -655 120 -655Q123 -655 124 -658Q130 -657 133 -653Q136 -649 140 -646L136 -645Q132 -645 117 -651ZM953 -162V-160Q951 -157 945 -155Q939 -153 937 -151Q935 -157 935 -159Q935 -171 948 -171H952L951 -168Q952 -165 953 -162ZM383 -275L404 -285Q397 -290 394 -300H393Q391 -299 388 -298L386 -300Q392 -311 392 -313Q388 -315 380 -315Q358 -315 349 -297Q360 -294 370 -291Q372 -292 374 -295Q376 -298 378 -298H379Q381 -296 381 -294Q379 -287 377 -281Q382 -278 383 -275ZM786 -534Q794 -542 796 -558Q781 -556 734 -528Q720 -520 706 -510Q691 -500 688 -490Q687 -487 687 -482Q692 -456 696 -430Q699 -431 708 -439Q716 -446 722 -448Q738 -452 751 -456Q764 -459 773 -471Q782 -485 786 -534ZM694 -303V-330Q684 -319 669 -312Q654 -319 638 -325Q621 -331 618 -354Q614 -356 610 -358Q608 -387 604 -402Q598 -425 583 -432V-420Q579 -408 574 -396Q542 -371 524 -349Q500 -320 493 -285Q500 -281 506 -263Q512 -245 520 -241Q520 -245 519 -249Q520 -268 530 -276Q540 -285 553 -295Q561 -304 568 -312Q575 -320 588 -321Q576 -309 573 -291Q589 -283 606 -283Q630 -284 653 -291Q676 -298 694 -303ZM952 -74V-72Q951 -67 946 -63Q936 -41 934 -9Q931 27 909 39Q896 36 878 22Q859 7 845 4Q838 -19 820 -33Q802 -48 793 -69Q790 -96 786 -123H788Q791 -124 794 -125H796Q794 -132 792 -140V-143H793Q803 -140 812 -137H814Q822 -139 830 -141H832Q838 -141 844 -135Q847 -136 851 -136Q860 -136 886 -123Q898 -129 906 -138V-137Q904 -128 902 -119Q902 -115 903 -114Q916 -132 934 -148Q933 -142 926 -130Q915 -113 915 -105Q915 -98 921 -91Q934 -109 946 -128Q958 -148 975 -162L978 -161L977 -160Q955 -128 950 -119Q936 -93 936 -68H938Q940 -68 952 -74ZM697 67V62Q697 23 671 18Q674 13 677 13H679Q671 7 651 3Q632 26 607 26Q595 26 582 18L568 27L566 24Q568 19 570 13Q569 12 556 4Q548 6 539 14Q529 22 524 24Q536 6 547 -12Q542 -37 524 -68Q532 -72 540 -72Q545 -82 545 -89Q545 -100 533 -118L537 -119Q544 -116 549 -111Q568 -121 589 -125H594Q606 -123 614 -112Q622 -101 629 -93Q639 -102 651 -106V-103Q647 -88 642 -74V-72Q647 -42 651 -13V-5Q668 -7 685 -9Q685 -16 675 -16Q677 -21 684 -26Q691 -31 693 -34Q698 -119 698 -135Q698 -172 694 -200Q657 -200 628 -180Q614 -170 583 -137Q563 -141 546 -150Q543 -155 540 -160Q535 -164 530 -167Q525 -169 524 -174Q498 -154 498 -103Q498 -86 499 -78Q488 -82 487 -102Q485 -131 484 -134Q476 -118 476 -89Q476 -42 493 -28Q495 -42 499 -56Q505 -55 505 -46V-29Q505 3 488 27Q482 25 476 23Q468 24 460 38Q454 24 450 18Q444 9 434 6Q432 -4 424 -14Q413 -27 411 -31V-37Q411 -39 408 -72Q407 -73 401 -74Q394 -75 394 -79V-81Q401 -83 408 -85Q419 -91 425 -123Q435 -203 435 -225Q435 -238 429 -246Q422 -255 412 -255H410Q410 -258 404 -281Q397 -277 397 -269Q400 -257 402 -246V-244Q399 -226 396 -209Q397 -206 397 -203Q378 -190 356 -190Q351 -190 337 -192Q335 -189 335 -185Q335 -176 347 -171Q350 -171 351 -174Q352 -178 354 -178H356Q361 -175 365 -164Q370 -149 380 -148Q377 -137 377 -131V-126Q383 -112 388 -106Q384 -99 380 -89V-88Q360 -75 332 -75Q315 -75 300 -81V-43Q303 -31 305 -19Q305 -12 299 -8Q291 -13 290 -42Q290 -68 282 -74Q276 -48 276 -22Q276 8 284 29Q289 28 292 18Q296 7 303 6Q308 23 309 42Q296 52 290 70Q287 70 284 69Q275 69 267 79Q262 85 257 87Q240 56 223 45Q214 3 197 -13Q210 -46 215 -89Q219 -131 223 -174Q190 -143 178 -130Q154 -104 142 -78Q120 -70 105 -46Q96 -33 82 0H78Q71 1 63 1H59Q40 -7 38 -33Q35 -59 34 -78Q34 -84 28 -84Q34 -95 35 -97V-99Q34 -104 32 -109Q39 -133 43 -160Q47 -187 59 -206Q58 -187 56 -168Q56 -153 62 -148Q80 -156 93 -174Q110 -191 116 -191Q121 -191 123 -189L124 -187Q124 -184 115 -177Q105 -169 103 -166Q98 -158 98 -151Q98 -144 102 -143Q123 -155 140 -174Q155 -192 170 -210Q174 -215 200 -241Q223 -265 232 -279Q219 -276 207 -265Q195 -254 185 -243Q175 -231 164 -220Q154 -208 139 -204Q156 -233 180 -257Q203 -280 226 -304Q147 -295 126 -232Q120 -231 113 -231Q68 -231 62 -264V-267Q63 -274 63 -282Q63 -287 62 -289Q61 -293 54 -299Q47 -305 46 -309Q46 -314 50 -322Q42 -342 42 -362Q42 -380 50 -393Q55 -400 85 -433Q110 -460 127 -465V-464Q126 -459 118 -452Q110 -444 109 -434Q109 -428 112 -424Q119 -429 124 -429Q130 -429 136 -426Q153 -433 171 -440Q188 -447 212 -448H216Q206 -435 169 -424Q135 -414 124 -403Q128 -396 136 -396Q139 -396 170 -408Q188 -415 205 -423Q226 -429 244 -434Q262 -440 272 -451Q268 -455 260 -455Q243 -452 234 -448Q234 -458 248 -464Q260 -469 262 -474Q258 -479 253 -481Q248 -483 247 -491V-492Q240 -493 229 -505Q216 -520 203 -520H202V-524Q202 -528 194 -544Q192 -545 187 -545Q169 -541 160 -526V-527Q164 -545 180 -558Q178 -576 166 -579Q171 -585 176 -591Q174 -595 174 -603V-613Q174 -619 173 -621Q171 -627 164 -631Q156 -636 154 -640L157 -641Q164 -638 171 -636H173Q187 -642 192 -658V-661Q191 -674 183 -687Q176 -701 173 -709Q180 -707 192 -691Q203 -676 210 -672L222 -679V-702Q228 -689 234 -675H237Q254 -672 267 -664Q271 -665 273 -669Q275 -673 278 -673H279Q278 -671 278 -667Q278 -661 283 -652Q288 -644 288 -639Q295 -636 304 -624Q315 -609 327 -607V-605Q327 -594 338 -567Q348 -543 348 -529Q348 -523 347 -520Q350 -517 364 -514Q378 -511 382 -505Q394 -512 397 -516Q395 -508 395 -505Q395 -494 407 -471Q420 -447 420 -431Q420 -422 417 -413Q398 -403 391 -397Q378 -386 376 -370Q365 -360 358 -346Q351 -332 342 -319Q336 -311 324 -302Q310 -291 306 -286L279 -246Q283 -222 287 -210Q303 -225 313 -246Q324 -267 336 -288H334Q327 -285 320 -283Q332 -295 343 -295V-298Q344 -303 344 -308V-310Q354 -322 364 -328Q381 -349 398 -370Q406 -381 413 -393Q421 -405 434 -411Q434 -405 425 -391Q414 -373 414 -362Q414 -356 416 -352Q447 -409 470 -442Q466 -446 461 -446Q455 -446 448 -435Q440 -423 435 -423Q434 -425 434 -428Q437 -440 442 -448Q441 -451 441 -458Q442 -467 442 -476Q442 -479 441 -483Q438 -489 435 -495V-496H437Q441 -494 445 -493Q457 -508 467 -515Q482 -526 501 -526H506Q541 -495 558 -486Q550 -505 550 -531Q550 -581 577 -615Q587 -613 594 -607Q600 -609 607 -620Q612 -629 617 -631V-626Q617 -619 620 -618L622 -617Q623 -617 625 -621Q627 -625 629 -625H630Q637 -609 648 -601Q651 -602 658 -607Q668 -614 674 -614Q677 -614 679 -613Q678 -607 671 -601Q664 -595 663 -592Q731 -616 789 -666Q781 -668 777 -668Q761 -668 737 -650Q713 -631 697 -630Q706 -650 729 -663Q751 -676 773 -690Q800 -708 829 -747Q841 -756 858 -756Q881 -756 900 -742Q907 -746 915 -753Q927 -763 934 -766Q914 -746 914 -731Q914 -720 925 -715Q931 -720 934 -729Q937 -738 949 -739Q945 -720 940 -701Q940 -695 944 -691Q946 -694 948 -697L950 -696Q948 -691 948 -681Q950 -664 952 -647V-645Q950 -629 931 -606Q916 -587 913 -577Q915 -571 921 -571Q913 -567 907 -550Q901 -533 894 -529Q891 -535 891 -541Q896 -560 900 -580Q900 -584 898 -588Q878 -574 859 -520Q844 -473 844 -447Q844 -436 845 -430Q856 -439 864 -470Q874 -506 888 -514Q889 -512 889 -506Q889 -500 878 -463Q865 -429 862 -410Q861 -389 858 -371Q855 -354 841 -345Q829 -338 806 -338H802Q795 -340 788 -348Q784 -353 777 -364Q773 -366 770 -366Q760 -366 758 -360Q763 -345 786 -322Q806 -327 828 -330H832Q829 -324 814 -319Q803 -316 799 -312Q802 -310 809 -310Q818 -310 845 -318Q875 -325 886 -338Q885 -342 879 -342Q869 -340 859 -339Q862 -350 872 -354Q882 -358 889 -363Q891 -363 893 -360Q895 -357 897 -357Q915 -365 946 -370Q941 -364 934 -359Q927 -353 926 -344Q926 -342 928 -336Q937 -337 946 -339H949Q944 -331 944 -326Q945 -316 952 -307Q959 -299 963 -291Q954 -271 946 -243Q938 -215 915 -210H914Q897 -213 876 -222Q833 -230 814 -230Q795 -230 783 -226Q775 -216 775 -191Q776 -178 776 -165Q776 -134 762 -125Q761 -130 761 -140Q762 -151 762 -163Q762 -180 758 -189Q744 -161 744 -105Q744 -46 758 -9Q766 -17 766 -35Q765 -57 763 -79Q763 -96 770 -106Q771 -90 779 -61Q790 -19 790 0Q790 5 789 10Q788 18 782 30Q775 44 775 52Q776 55 776 58Q766 63 756 77Q746 90 741 94Q714 84 697 67Z"/>
</svg>