<svg xmlns="http://www.w3.org/2000/svg" viewBox="0 -800 1024 1024">
	<path fill="#000000" d="M51 -616H50Q41 -618 40 -630Q40 -639 46 -639Q49 -639 51 -638V-636Q52 -629 53 -622Q53 -620 51 -616ZM303 -507H297Q234 -459 226 -441Q220 -426 220 -411Q220 -391 230 -369Q253 -381 282 -387Q285 -410 291 -436Q302 -486 303 -507ZM520 20Q502 20 494 15V6H498Q512 6 520 20ZM763 -592Q795 -609 815 -630Q838 -654 841 -681Q852 -678 863 -678Q879 -678 894 -679Q920 -679 929 -664Q943 -671 957 -678Q947 -667 937 -656Q937 -645 943 -629Q948 -614 949 -609Q945 -582 924 -577Q906 -570 858 -537Q788 -488 750 -472Q745 -442 745 -428Q782 -435 830 -441Q878 -446 898 -476Q901 -474 901 -472Q901 -469 900 -467L901 -464Q908 -469 912 -488Q915 -505 919 -509Q921 -503 921 -499Q920 -488 919 -477Q919 -471 920 -468H921Q924 -468 925 -472Q926 -476 928 -476H929V-470Q929 -458 928 -447Q928 -431 937 -431H939Q936 -425 936 -418Q940 -394 943 -371Q943 -367 942 -363Q938 -349 927 -340Q916 -332 903 -324Q880 -329 858 -330V-332Q858 -339 872 -340Q887 -341 888 -348Q883 -363 853 -363Q840 -363 833 -362Q792 -358 774 -354Q741 -346 738 -329Q746 -326 753 -326Q780 -330 807 -334Q816 -334 821 -333Q813 -326 803 -325Q793 -325 783 -323Q755 -314 727 -302Q727 -294 726 -285Q726 -276 731 -270Q745 -276 758 -276Q791 -276 823 -277Q802 -271 761 -262Q728 -255 724 -239Q728 -236 731 -233Q893 -267 906 -270Q903 -286 882 -286Q869 -286 855 -282Q858 -298 879 -302Q899 -306 919 -310Q920 -301 928 -289Q945 -290 961 -292Q936 -283 936 -249Q936 -240 937 -235L940 -234Q946 -234 952 -235H956V-234Q956 -230 952 -227Q947 -224 947 -220V-217L951 -216Q961 -218 971 -221Q974 -221 976 -220Q970 -212 961 -208Q952 -205 944 -200Q944 -182 940 -174H930Q898 -173 859 -165Q820 -157 794 -152Q750 -144 732 -122Q730 -110 730 -104Q732 -82 733 -61Q733 -45 728 -38Q723 -44 721 -63Q719 -84 714 -89Q705 -81 705 -60Q705 -46 704 -33Q704 40 728 65Q731 58 731 48Q731 34 730 20Q730 12 731 8Q739 15 740 30Q740 44 744 61Q753 79 755 91Q755 98 751 103Q736 104 719 125Q705 142 696 143H694Q684 143 665 128Q647 114 634 112Q632 80 609 78Q615 74 622 71Q606 51 583 43Q559 34 535 25Q539 23 548 23Q574 27 596 34Q536 9 478 -20Q500 -18 540 -3Q574 10 596 14Q568 -3 540 -16H546Q562 -16 588 -7Q614 2 628 2Q639 2 645 0Q649 -68 652 -103Q636 -102 582 -81Q524 -58 509 -58Q491 -58 470 -77V-80Q470 -89 460 -98Q450 -107 449 -114Q449 -117 448 -120Q451 -138 454 -157V-161Q453 -166 447 -176Q439 -189 439 -197Q439 -202 442 -208Q452 -214 465 -231Q482 -254 497 -259Q486 -247 481 -230Q481 -222 491 -218Q487 -202 487 -201Q487 -197 489 -193Q498 -189 510 -189Q527 -189 583 -202Q635 -214 648 -214H649Q650 -219 650 -224Q650 -237 635 -237Q624 -237 600 -230Q576 -223 571 -223Q569 -223 566 -224Q566 -235 579 -240Q581 -241 604 -245Q641 -254 650 -257Q648 -263 648 -269Q649 -277 649 -286Q653 -299 680 -308Q682 -309 688 -309Q664 -324 662 -335V-337Q663 -344 664 -351Q663 -367 661 -383V-389Q665 -410 674 -432Q680 -462 680 -483Q681 -509 681 -535Q681 -650 640 -689Q649 -704 649 -707Q649 -711 645 -714Q638 -712 631 -710L627 -711Q641 -735 662 -753Q684 -770 706 -786H710Q732 -786 747 -773Q751 -769 769 -745Q769 -732 779 -710Q787 -693 787 -682V-677Q787 -670 778 -657Q768 -642 768 -631Q768 -629 763 -592ZM450 -688Q475 -706 498 -725Q503 -726 511 -726Q533 -726 545 -715Q553 -707 563 -684Q579 -659 583 -632Q583 -622 576 -603Q570 -586 570 -576Q570 -570 571 -567Q600 -579 630 -594Q630 -586 634 -582Q647 -591 666 -594H668Q664 -588 658 -584Q652 -580 651 -572Q653 -569 655 -569Q660 -571 665 -573L667 -572Q662 -568 662 -565Q662 -562 669 -558Q677 -554 677 -551Q674 -544 667 -535V-533Q668 -528 668 -524Q664 -501 658 -479Q646 -473 614 -463Q571 -449 554 -437Q554 -430 553 -423Q553 -414 556 -410Q595 -425 633 -441V-429Q647 -431 660 -433Q665 -433 668 -432Q667 -428 659 -424Q648 -418 648 -408V-407L650 -406Q654 -408 658 -410H659Q644 -386 644 -368Q644 -360 645 -356Q609 -340 577 -326Q546 -312 515 -288Q505 -280 498 -274Q490 -269 478 -269H477Q445 -273 439 -298Q437 -312 437 -324Q437 -336 427 -343Q427 -346 426 -350Q428 -369 444 -378Q449 -382 457 -393Q467 -406 472 -408Q468 -395 464 -382Q475 -384 486 -390V-456Q486 -470 485 -485Q485 -507 491 -518Q497 -509 497 -493Q496 -472 494 -451Q495 -446 495 -441Q496 -432 504 -420Q516 -432 516 -467V-476Q516 -555 504 -582Q495 -581 495 -571Q494 -562 491 -555Q481 -561 481 -573Q481 -585 479 -597Q475 -605 470 -614Q464 -634 462 -650Q460 -667 445 -669Q443 -659 442 -653Q463 -631 467 -554Q448 -539 441 -516Q425 -512 420 -496Q415 -480 409 -465Q406 -469 406 -475Q409 -489 411 -504Q407 -508 402 -512Q378 -502 364 -470Q352 -442 352 -404Q352 -385 355 -369Q361 -378 372 -410Q378 -428 380 -432Q386 -443 395 -444Q385 -421 378 -365Q370 -299 356 -276Q342 -278 334 -278Q337 -270 337 -262Q337 -251 336 -241Q336 -228 340 -224Q362 -232 384 -240Q390 -234 393 -234Q396 -235 399 -236V-232Q399 -207 417 -203Q413 -192 413 -178Q413 -172 415 -158Q407 -146 391 -143Q374 -139 358 -136Q333 -132 331 -107V-102Q339 -103 357 -109Q386 -119 402 -120L404 -119Q404 -118 400 -115Q395 -111 395 -109Q395 -107 397 -105H399Q409 -108 418 -111Q408 -105 408 -91Q408 -81 420 -80Q411 -62 411 -30Q382 -22 342 -6Q288 16 260 22Q270 4 304 -6Q339 -17 350 -33Q346 -34 339 -34Q310 -31 283 -21Q236 -6 219 2Q185 18 167 43Q171 47 177 47Q189 45 201 43Q208 43 212 48Q189 57 168 68Q147 78 143 105Q129 111 119 111H116Q106 110 86 94Q64 76 61 64Q61 61 60 58Q61 51 62 44Q62 42 61 39Q63 36 64 33Q66 30 70 30Q66 22 66 12Q66 -16 103 -53Q102 -49 102 -41Q102 -27 110 -23Q139 -31 165 -39Q159 -67 151 -85Q140 -108 124 -117Q118 -137 118 -150Q118 -160 122 -167Q115 -179 107 -191H110Q118 -190 126 -189H129L130 -190Q128 -191 125 -195L126 -197Q137 -210 173 -210H202Q213 -195 224 -178Q236 -162 239 -138Q240 -133 240 -128Q239 -107 237 -87Q237 -73 239 -66H240Q249 -70 263 -74Q258 -127 253 -180V-185Q254 -193 254 -202V-206Q253 -225 246 -240Q239 -256 235 -270Q229 -265 220 -245H215Q210 -245 189 -237Q177 -240 162 -255Q147 -270 137 -272Q139 -277 139 -286Q139 -299 125 -322Q112 -344 110 -359Q124 -353 139 -326Q149 -309 156 -302Q160 -307 160 -316Q160 -330 144 -362Q127 -396 122 -403Q107 -424 88 -424Q81 -424 78 -423V-421Q78 -412 88 -398Q96 -387 96 -378Q96 -375 95 -372Q79 -388 60 -402Q40 -416 33 -443Q34 -448 38 -456Q34 -464 34 -476Q37 -499 39 -522Q56 -539 60 -563Q60 -569 54 -582Q49 -593 49 -599Q49 -604 50 -606Q58 -596 63 -583Q68 -571 79 -564Q82 -567 88 -567V-569Q88 -583 78 -607Q69 -629 69 -643Q69 -649 70 -653Q75 -644 85 -617Q94 -591 107 -588H109Q116 -589 116 -596Q116 -602 109 -616Q101 -633 101 -639V-641Q111 -625 142 -604Q171 -584 181 -570Q243 -603 366 -695Q374 -693 376 -693Q383 -693 395 -699V-697Q396 -691 401 -690Q407 -689 411 -687Q421 -704 437 -717Q430 -701 430 -686Q430 -682 432 -674H433Q436 -674 441 -680Q446 -687 450 -688Z"/>
</svg>