<svg xmlns="http://www.w3.org/2000/svg" viewBox="0 -800 1024 1024">
	<path fill="#000000" d="M542 -371V-383Q498 -378 480 -369Q474 -365 478 -359Q510 -365 542 -371ZM545 -466Q490 -466 490 -437Q490 -431 491 -428Q515 -438 543 -440Q544 -441 544 -445Q544 -451 543 -458Q543 -464 545 -466ZM540 -536H543Q540 -551 525 -551Q499 -545 476 -539H474Q475 -536 482 -533Q488 -530 488 -525V-524Q514 -533 540 -536ZM163 -682H166Q164 -680 164 -670Q163 -659 157 -659H155Q153 -667 153 -672Q153 -682 163 -682ZM860 -307Q858 -297 855 -288Q851 -296 851 -306Q851 -313 853 -316Q860 -315 860 -307ZM646 66V69H644Q639 67 635 62Q635 55 640 55Q645 56 646 66ZM787 -105Q789 -52 790 0Q792 -11 792 -40Q792 -72 797 -87Q797 -20 807 12Q811 22 818 41Q825 59 826 78V85Q821 96 819 106V109Q810 109 773 122Q747 131 740 132H739Q720 129 701 125Q696 125 694 126Q684 115 671 108Q657 101 656 79Q661 79 666 87Q672 95 678 95H681Q681 90 683 89Q673 72 645 42Q618 12 608 -3Q596 -23 593 -26Q584 -37 572 -40Q571 -38 571 -34Q571 -26 577 -21Q582 -16 586 -11Q594 2 601 14Q611 25 614 38Q604 35 600 27Q595 19 590 9L549 -53Q538 -67 525 -79Q512 -92 511 -116V-118Q517 -137 537 -138Q560 -138 566 -128Q581 -146 596 -164Q595 -168 593 -173Q529 -160 518 -156Q476 -142 462 -113Q475 -105 479 -79Q482 -53 485 -30Q521 -50 542 -54Q541 -49 536 -44Q531 -38 530 -33L532 -31Q536 -33 539 -35L542 -34Q533 -27 533 -17Q533 -13 534 -12Q540 -14 545 -17Q548 -17 549 -14Q539 -13 539 1Q539 11 545 23Q523 39 498 56Q474 73 462 102H455Q446 102 443 105Q434 98 423 88Q411 79 408 59V55Q409 49 409 43Q409 40 408 38Q405 30 402 21V19Q403 12 411 6Q417 1 419 -3Q419 -23 423 -38Q427 -37 427 -29Q427 -22 426 -15Q426 -7 432 -6Q439 -14 439 -32Q439 -40 436 -61L434 -63Q433 -59 428 -56H426Q423 -56 423 -61V-65Q408 -51 394 -33Q381 -15 366 3L339 36Q324 52 308 68Q301 77 294 88Q288 99 277 105Q266 94 246 89Q248 75 248 69Q248 52 241 24Q235 0 234 -9H235Q238 -9 240 -5Q243 -1 245 1Q251 -3 254 -8Q253 -28 240 -56Q231 -76 228 -90Q202 -66 194 -61Q191 -60 186 -60Q171 -60 157 -77Q143 -93 132 -93Q127 -93 119 -90Q120 -101 127 -111Q125 -119 119 -120Q120 -122 120 -125Q120 -135 112 -153Q102 -174 102 -184Q113 -173 123 -163Q125 -165 125 -170Q125 -175 116 -190Q95 -230 74 -271Q95 -245 115 -217Q134 -189 167 -175Q180 -180 181 -180Q185 -180 188 -177Q228 -197 268 -217Q260 -228 248 -233Q235 -239 225 -247Q223 -253 223 -255Q223 -261 228 -270Q232 -278 233 -282Q236 -294 238 -304Q240 -314 246 -322Q271 -346 300 -357Q288 -347 284 -335Q289 -330 306 -330H311Q332 -330 336 -322Q333 -321 317 -318Q306 -316 305 -309Q319 -306 334 -306Q388 -310 438 -322Q434 -328 424 -328Q411 -326 398 -324H363Q375 -332 397 -339Q418 -345 426 -350Q418 -357 396 -361Q383 -376 366 -376L368 -379Q368 -381 363 -383Q372 -393 387 -397Q402 -401 416 -406V-411L412 -412Q393 -409 373 -406Q359 -406 354 -414Q352 -422 352 -427Q344 -432 336 -437Q336 -457 352 -496Q378 -498 402 -505V-507Q401 -512 399 -518Q344 -513 330 -484Q333 -478 333 -472Q331 -458 328 -445H326Q322 -444 317 -443H315Q313 -437 313 -431Q311 -431 293 -425Q294 -436 299 -445Q295 -448 289 -448Q278 -446 267 -445H265Q244 -450 222 -455Q214 -455 209 -451Q215 -438 239 -434Q263 -430 272 -419Q265 -416 257 -416Q243 -416 215 -428Q189 -439 177 -439Q163 -439 152 -428V-430Q155 -440 160 -448Q155 -463 135 -463Q105 -460 95 -446Q98 -458 105 -467Q112 -475 120 -484L116 -485Q107 -482 99 -477V-480Q99 -488 108 -493Q99 -502 89 -520Q74 -546 62 -554Q62 -560 74 -560Q71 -569 71 -576Q71 -599 90 -611L86 -628L87 -630Q93 -626 98 -619Q119 -622 139 -625H143Q150 -636 157 -647Q159 -639 161 -631Q178 -625 194 -620Q203 -642 217 -649Q214 -643 214 -629Q214 -615 217 -608Q246 -596 271 -580Q307 -584 379 -605Q427 -619 463 -626Q456 -666 445 -681Q429 -703 393 -703H386Q393 -713 406 -717Q419 -722 429 -727L430 -729Q429 -732 428 -735L429 -738Q441 -745 467 -764Q485 -778 499 -786Q507 -779 521 -779Q531 -779 543 -784Q547 -776 568 -762Q586 -750 589 -735Q586 -735 578 -740Q569 -746 560 -746Q556 -746 554 -745Q552 -741 552 -735Q552 -726 560 -711Q566 -700 567 -696Q562 -684 555 -675Q556 -672 564 -664Q575 -673 585 -684Q596 -694 597 -710Q597 -713 596 -717Q604 -715 608 -708Q611 -700 616 -694Q598 -682 592 -676Q581 -665 580 -649Q596 -656 641 -662Q676 -667 696 -673Q762 -694 801 -695Q807 -694 812 -694H814Q822 -696 834 -707Q845 -717 851 -718Q845 -711 839 -705Q833 -698 832 -686Q835 -682 840 -680Q852 -687 864 -694Q862 -686 859 -679Q859 -675 863 -671Q874 -675 885 -680Q885 -675 880 -668Q875 -661 875 -657V-656Q879 -650 885 -644Q886 -637 887 -631Q889 -614 903 -583Q892 -567 879 -553H874Q863 -552 852 -551Q844 -551 841 -556Q842 -562 852 -566Q863 -570 866 -574Q859 -589 842 -589Q829 -589 787 -568Q747 -547 739 -533H743Q752 -533 769 -543Q785 -553 792 -554H799Q810 -554 811 -546Q780 -538 757 -520Q734 -502 711 -484L712 -487Q709 -498 699 -505Q691 -505 685 -502L684 -504Q684 -506 690 -512Q688 -517 682 -520H681Q677 -520 673 -515Q670 -511 668 -511H666V-512Q666 -518 673 -524Q677 -528 679 -532H675Q666 -529 657 -526Q665 -538 687 -558Q704 -573 712 -584H702Q670 -584 622 -571Q623 -566 629 -560Q634 -555 635 -551Q642 -556 650 -556Q655 -556 657 -554Q657 -551 652 -548Q647 -545 647 -541Q648 -540 652 -540Q657 -540 657 -538Q653 -533 653 -525Q653 -524 656 -500Q614 -487 614 -461Q614 -457 616 -449Q623 -450 629 -452L628 -449Q628 -446 632 -445Q643 -448 654 -451Q653 -446 651 -441V-439Q657 -433 665 -431Q658 -427 647 -424V-421Q647 -414 651 -410Q651 -407 646 -405Q642 -403 642 -400L643 -397L599 -391Q595 -386 593 -377Q607 -371 621 -366Q645 -369 669 -372Q678 -372 685 -369Q678 -361 649 -358Q625 -356 616 -349Q620 -344 627 -344Q632 -344 640 -346Q664 -349 691 -351Q718 -353 733 -364Q728 -367 705 -369Q709 -377 730 -381Q752 -385 757 -393Q756 -390 756 -385Q757 -369 775 -366Q792 -364 808 -363Q785 -361 785 -348Q785 -345 786 -343L788 -342Q793 -343 797 -345Q788 -338 785 -325Q783 -312 779 -301H762Q739 -301 681 -294Q724 -256 828 -203Q835 -214 841 -225Q842 -223 842 -217V-213Q842 -204 844 -200Q849 -211 849 -237Q850 -265 853 -274Q856 -265 858 -241Q860 -213 866 -203Q866 -279 873 -309Q879 -291 879 -244Q879 -190 888 -172Q890 -174 891 -181Q892 -189 896 -190Q897 -176 899 -163Q902 -150 911 -144V-136Q911 -105 895 -86Q880 -68 858 -68Q854 -68 846 -70Q825 -75 787 -105ZM779 -112Q743 -142 732 -148Q714 -158 681 -186Q656 -186 646 -183Q657 -171 671 -167Q672 -167 676 -166Q675 -163 674 -161L675 -158L678 -157Q682 -161 688 -165Q689 -165 693 -163Q692 -157 686 -152Q681 -148 680 -145Q680 -140 686 -129Q691 -120 691 -113V-107Q675 -101 669 -99Q662 -97 654 -83Q668 -63 691 -51Q713 -39 735 -29Q741 -20 750 -17Q753 -17 757 -21Q761 -27 763 -43Q765 -62 769 -67Q772 -64 772 -55Q772 -44 771 -34Q771 -17 775 -9Q778 -24 778 -61V-83Q778 -102 779 -112ZM615 -252Q609 -258 607 -261Q602 -261 595 -268Q563 -264 547 -261Q553 -249 553 -237V-235Q563 -241 615 -252ZM451 -246Q409 -239 393 -223Q391 -220 386 -215Q390 -215 393 -212Q390 -204 373 -202Q365 -194 356 -188Q360 -182 366 -182Q380 -185 393 -189Q428 -194 431 -195Q447 -199 458 -210Q461 -213 461 -216Q461 -219 454 -219Q449 -219 434 -216Q412 -211 409 -211Q406 -211 403 -212Q406 -223 418 -223Q429 -223 439 -226Q444 -228 449 -231H451ZM284 -141Q268 -130 231 -93Q242 -73 251 -49Q260 -26 275 -12Q313 -24 353 -57Q374 -74 421 -121Q387 -119 366 -102Q364 -101 355 -89Q349 -81 343 -80Q341 -79 338 -79Q325 -79 315 -97Q304 -116 293 -119Q287 -128 284 -141Z"/>
</svg>