<svg xmlns="http://www.w3.org/2000/svg" viewBox="0 -800 1024 1024">
	<path fill="#000000" d="M345 17Q340 9 314 -17Q312 -15 312 -12Q314 -4 326 4Q339 12 345 17ZM860 -172V-170Q860 -162 856 -157Q852 -152 849 -146Q847 -150 847 -160Q847 -175 854 -175Q856 -175 860 -172ZM834 -577H833Q825 -575 816 -573Q813 -573 811 -575Q811 -588 826 -588Q829 -587 832 -587Q834 -581 834 -577ZM337 -367Q280 -349 237 -314Q240 -312 252 -310Q273 -324 296 -337Q319 -349 337 -367ZM539 -160V-161H546L549 -163Q544 -164 534 -171Q525 -177 517 -178H516Q505 -178 490 -162Q479 -150 474 -148Q477 -148 478 -145Q460 -141 452 -127Q528 -149 540 -154L541 -156Q540 -158 539 -160ZM593 -92H597Q610 -91 619 -81Q627 -70 632 -64Q626 -56 625 -49Q596 -48 550 -31Q500 -13 469 -13Q453 -31 415 -31H410Q420 -37 428 -38Q420 -42 408 -42Q396 -42 387 -38Q389 -43 395 -44Q400 -46 406 -48Q439 -58 487 -66Q535 -76 593 -92ZM876 -695H879Q877 -684 875 -674Q880 -666 888 -659Q887 -656 880 -654Q874 -652 872 -649Q870 -638 868 -628Q817 -614 711 -602Q680 -599 658 -577Q646 -565 625 -532Q607 -534 597 -534Q580 -534 575 -527Q574 -529 574 -532Q574 -533 579 -543Q577 -545 573 -545Q566 -544 560 -539Q554 -534 549 -530Q557 -554 564 -563Q538 -568 527 -587Q517 -606 502 -622Q503 -625 504 -628Q503 -634 501 -641Q501 -646 500 -651Q501 -659 501 -668Q501 -680 489 -684Q521 -687 550 -694Q579 -702 602 -706Q603 -709 603 -715Q603 -740 573 -740Q558 -740 546 -734Q555 -746 571 -755Q586 -763 602 -770Q619 -779 641 -796Q649 -797 656 -802H673Q720 -802 726 -778H723Q709 -781 695 -785Q690 -785 688 -784Q690 -770 701 -765Q711 -760 718 -751V-749Q716 -740 714 -732V-730Q719 -727 722 -727Q733 -727 737 -736V-739Q733 -751 729 -763L730 -767Q742 -764 746 -753Q750 -743 755 -733Q783 -737 810 -742Q812 -743 813 -749Q814 -756 817 -757Q821 -747 826 -740L881 -746Q876 -741 862 -739Q847 -736 843 -733Q847 -729 854 -729Q867 -731 879 -733Q877 -730 870 -727Q861 -724 860 -718Q863 -713 873 -713V-700Q873 -695 876 -695ZM777 -229V-226Q776 -206 757 -187Q737 -167 734 -154Q717 -161 703 -164Q689 -168 678 -178Q673 -184 670 -191Q666 -198 655 -199Q656 -203 656 -207Q656 -230 638 -235Q656 -239 667 -252Q674 -261 683 -283Q667 -276 647 -258Q623 -236 611 -236H610Q596 -239 588 -253Q580 -267 572 -279Q558 -292 542 -299Q543 -304 547 -304Q555 -301 563 -298Q541 -318 511 -339Q537 -329 570 -329Q642 -330 683 -370Q670 -365 644 -353Q616 -339 609 -339H608Q596 -343 583 -348Q578 -348 573 -342L572 -344Q576 -348 579 -352Q563 -353 546 -355Q547 -357 553 -358Q559 -359 560 -362Q552 -372 537 -375Q523 -379 510 -383Q586 -392 608 -411Q586 -411 563 -435Q539 -460 539 -483Q539 -488 540 -490Q542 -499 553 -506Q571 -517 572 -518Q578 -516 582 -511Q631 -526 653 -535Q692 -551 714 -569Q718 -570 724 -570Q741 -567 758 -564Q762 -564 764 -565Q764 -560 766 -560Q784 -566 804 -571Q790 -557 790 -548Q790 -543 791 -541Q795 -541 801 -548Q806 -553 809 -553H811V-551Q811 -548 805 -543Q798 -537 798 -532V-530Q800 -527 801 -527Q805 -529 809 -531L811 -530Q810 -528 810 -523Q811 -512 816 -504Q821 -496 825 -487Q814 -466 799 -450Q783 -435 770 -418Q767 -422 767 -428Q767 -433 773 -445Q778 -455 778 -461Q778 -463 776 -469Q753 -459 744 -416Q741 -399 737 -337Q737 -329 736 -322Q736 -306 742 -296Q755 -306 756 -351Q757 -385 764 -397Q768 -384 768 -365Q768 -345 767 -326V-295Q772 -262 777 -229ZM865 15H858Q823 14 799 -2Q774 -19 751 -35Q757 -39 761 -39Q770 -39 788 -28Q813 -13 827 -13H828Q828 -25 817 -32Q778 -57 739 -82Q690 -113 658 -127Q666 -113 680 -104Q693 -96 707 -87Q733 -75 739 -41Q716 -54 679 -85Q641 -117 619 -129L618 -127Q619 -122 620 -117V-114Q600 -99 570 -95Q540 -91 510 -82Q493 -72 480 -69H477Q468 -69 454 -76Q440 -83 433 -83Q428 -83 425 -82Q427 -84 429 -85Q432 -87 432 -91Q429 -101 425 -111Q373 -68 320 -25Q338 -7 358 8L359 6Q357 0 354 -6Q373 14 403 14Q425 14 469 3Q571 -23 635 -51Q650 -57 663 -60Q675 -63 681 -75Q684 -72 684 -64Q687 -63 692 -63H696Q700 -45 704 -27Q709 -9 720 3Q717 9 714 15Q702 22 685 25Q668 28 652 32Q633 41 614 49Q601 54 567 65Q522 79 498 92L497 88Q497 82 506 76Q509 74 521 68Q546 58 574 49Q603 40 626 23Q504 44 403 92Q410 100 420 100Q440 97 459 94Q468 94 472 97Q458 106 423 117Q392 126 375 136Q337 119 331 89V77Q327 69 323 60Q320 38 313 32Q316 34 320 34Q325 34 330 29Q321 7 304 -7Q277 14 230 65Q204 60 184 31Q180 34 175 37V36Q177 33 179 29Q167 14 163 -6Q163 -15 170 -22Q171 -37 172 -54Q172 -71 182 -77Q181 -72 181 -61Q181 -42 190 -37Q201 -41 218 -54Q243 -73 263 -75Q257 -65 244 -54Q226 -39 222 -28H225Q242 -29 254 -39Q266 -50 278 -60Q312 -86 348 -110Q384 -134 410 -167Q384 -157 342 -125Q308 -99 287 -89Q288 -101 307 -118Q325 -133 358 -153Q403 -180 419 -196Q405 -205 388 -205L394 -220Q372 -209 343 -173Q322 -147 319 -144Q303 -128 292 -127H291Q280 -127 268 -140Q256 -153 246 -155Q245 -164 232 -177Q219 -189 219 -198Q219 -201 221 -207Q217 -213 212 -215Q215 -217 220 -217Q225 -217 228 -218V-221Q228 -233 223 -239Q219 -246 213 -252Q226 -246 240 -239Q254 -233 271 -232Q280 -232 290 -235Q316 -243 360 -283Q389 -310 403 -317Q403 -324 406 -330Q371 -311 342 -286Q312 -261 281 -239Q270 -242 257 -256Q243 -271 230 -273Q233 -277 241 -279Q235 -301 230 -310Q211 -311 192 -326Q171 -343 157 -345Q152 -353 152 -366Q152 -384 161 -389Q160 -393 154 -399Q148 -405 147 -411Q152 -426 157 -442Q185 -454 230 -454Q227 -448 213 -443Q197 -437 195 -428H201Q238 -432 271 -446Q307 -457 342 -468Q335 -471 327 -471Q316 -471 291 -463Q266 -455 252 -455Q254 -464 262 -469Q304 -481 346 -493Q341 -507 326 -507Q323 -506 320 -506L319 -508Q319 -509 323 -511Q329 -513 329 -517Q321 -519 318 -519Q312 -519 277 -509Q250 -504 227 -497Q203 -490 198 -461Q172 -468 146 -478Q119 -489 117 -517Q117 -525 120 -536Q113 -546 105 -556Q107 -573 107 -588Q106 -604 113 -615Q117 -622 145 -637Q169 -649 182 -652Q165 -638 161 -632Q167 -611 184 -608H190Q237 -613 263 -634Q259 -636 249 -636Q224 -632 198 -628Q190 -628 182 -631Q195 -640 229 -645Q255 -649 263 -652Q262 -656 262 -662Q262 -674 270 -689Q277 -702 277 -708Q277 -713 274 -719H276Q282 -719 284 -709Q286 -699 292 -698L294 -700Q292 -704 290 -709Q295 -704 308 -702Q318 -701 325 -698Q333 -695 344 -684Q353 -675 358 -674H361Q375 -676 389 -679Q395 -679 401 -676Q397 -673 388 -671Q374 -668 372 -661V-660Q375 -656 378 -652Q406 -657 408 -658Q424 -663 432 -674Q428 -676 425 -676Q420 -675 414 -675Q410 -675 409 -676Q414 -690 429 -692Q445 -694 459 -697Q451 -691 448 -683L449 -679L450 -678Q456 -680 461 -682H462Q460 -677 458 -673V-671Q466 -669 474 -654Q481 -641 489 -638Q483 -632 483 -620Q483 -605 492 -604Q483 -602 482 -591Q482 -584 489 -583Q483 -575 461 -566Q441 -558 435 -551V-547Q435 -532 425 -518L423 -515Q435 -519 447 -524Q460 -529 471 -530Q483 -530 493 -521Q501 -525 511 -527Q502 -522 502 -513Q502 -501 511 -497Q517 -500 523 -503V-501Q521 -494 518 -487Q518 -481 527 -469Q537 -455 537 -448Q531 -432 510 -407Q496 -391 490 -380Q483 -384 483 -394Q485 -408 487 -423Q487 -430 483 -434Q468 -430 462 -403Q458 -386 456 -352Q456 -337 455 -322Q455 -289 462 -271Q473 -291 471 -323Q468 -355 486 -367Q487 -358 487 -350Q486 -316 484 -282Q484 -263 487 -250Q506 -277 539 -277Q546 -277 549 -276Q565 -272 576 -258Q586 -243 595 -233Q593 -223 591 -217Q623 -196 664 -176Q705 -157 745 -136Q769 -119 796 -113Q805 -113 811 -120V-117Q811 -110 817 -104Q820 -119 823 -134Q825 -150 834 -158V-155Q833 -137 831 -119Q831 -108 835 -101Q838 -108 840 -117Q841 -126 849 -130Q849 -126 848 -122Q848 -106 865 -83Q880 -63 882 -51V-45Q882 -21 865 15Z"/>
</svg>