<svg xmlns="http://www.w3.org/2000/svg" viewBox="0 -800 1024 1024">
	<path fill="#000000" d="M147 -514V-517Q147 -529 163 -529Q167 -529 169 -528Q160 -515 147 -514ZM244 -665V-669Q244 -675 243 -681L244 -685H246Q253 -683 258 -679Q275 -686 293 -689Q311 -692 320 -706Q326 -704 330 -694Q333 -687 336 -684Q344 -679 351 -675Q363 -662 373 -648Q375 -648 378 -653Q381 -658 386 -658L389 -657Q387 -651 387 -640Q393 -606 414 -587Q423 -558 423 -536Q423 -512 411 -497Q410 -496 392 -483Q382 -473 372 -468Q364 -466 360 -466Q347 -466 321 -487Q301 -504 289 -507Q284 -507 276 -500Q271 -496 268 -496Q267 -498 267 -501Q270 -511 277 -519Q277 -522 274 -522Q271 -522 271 -525Q245 -521 240 -519Q228 -515 211 -502Q196 -490 188 -487Q189 -496 197 -504Q206 -511 215 -519Q246 -544 246 -552Q246 -556 240 -558Q238 -559 233 -559Q220 -559 199 -544Q183 -533 176 -533Q184 -549 204 -556Q223 -563 225 -582Q225 -585 224 -588Q212 -588 203 -591Q213 -599 222 -608Q220 -625 204 -640Q186 -657 182 -668Q197 -655 217 -655Q233 -655 244 -665ZM659 -567Q643 -564 630 -553Q623 -547 608 -530Q620 -525 632 -521Q654 -547 659 -567ZM873 -537Q873 -527 866 -506Q857 -513 857 -528Q857 -539 866 -539Q867 -539 873 -537ZM883 -160V-155Q883 -138 896 -136Q898 -135 902 -135Q908 -136 913 -137Q917 -137 923 -135Q923 -131 918 -131Q913 -131 913 -127Q915 -121 931 -120Q946 -119 949 -112Q949 -109 946 -109Q942 -110 937 -111H936Q929 -110 929 -102Q930 -95 928 -89Q934 -86 946 -86Q960 -86 963 -82Q954 -78 942 -76Q931 -75 926 -68Q926 -65 932 -64Q936 -64 937 -62Q925 -56 923 -42Q920 -29 919 -15Q920 7 900 13H898Q876 11 835 1Q759 -11 690 -4Q706 -20 768 -20Q808 -14 838 -13Q851 -13 861 -19Q833 -46 751 -42Q735 -41 683 -30Q685 83 692 102Q677 122 659 138Q630 123 621 115Q603 99 599 76Q589 68 579 59Q612 48 613 4L612 -16Q587 -16 564 -13Q533 -7 522 -1Q503 9 504 30V33H507Q511 33 524 27Q542 19 553 18Q559 17 567 20Q557 29 540 38Q524 46 520 49Q496 70 479 81Q471 77 465 78Q460 78 458 79Q456 75 444 71Q435 68 430 63Q416 45 403 16L400 18Q387 28 361 54Q355 58 351 56Q361 46 369 35Q379 20 391 8Q383 4 371 13Q356 40 336 48Q328 50 318 58Q305 68 305 77Q305 83 309 82Q318 80 331 71Q342 66 345 65Q336 77 318 86Q302 94 285 87Q256 78 232 73Q230 73 228 70Q226 66 224 66H222Q205 66 191 75V74Q191 67 215 58Q208 44 208 27Q210 -13 221 -24L228 -25Q222 -29 216 -33L217 -34Q224 -34 227 -33Q232 -38 237 -74Q243 -123 255 -125Q255 -52 271 -38Q269 -140 275 -215Q269 -216 265 -200Q261 -183 261 -177Q256 -157 247 -139Q246 -144 246 -165Q245 -196 242 -227Q240 -257 245 -281Q217 -273 197 -249Q160 -235 140 -198Q128 -195 121 -195Q117 -195 109 -197Q99 -205 87 -230Q78 -249 73 -256Q67 -264 61 -273L60 -277Q62 -283 63 -289V-291Q62 -304 61 -318Q61 -322 62 -325Q57 -334 48 -341Q39 -348 34 -354Q36 -356 40 -356Q52 -351 62 -342Q60 -356 38 -372Q20 -385 15 -395Q28 -394 46 -378Q60 -365 69 -363Q70 -371 56 -380Q43 -388 41 -396Q58 -390 74 -379Q80 -376 83 -376H84Q88 -378 91 -381Q95 -383 107 -383Q115 -382 123 -382Q130 -382 132 -383Q150 -385 172 -394Q194 -403 202 -404Q206 -402 210 -401Q203 -393 181 -385Q158 -378 146 -373Q134 -368 132 -361Q132 -354 139 -348Q183 -363 204 -370Q224 -378 265 -400Q263 -404 256 -406Q243 -403 229 -400L225 -401Q227 -413 240 -413H242Q254 -423 268 -430Q273 -429 278 -429Q282 -429 286 -430Q291 -427 296 -425Q301 -427 312 -435Q322 -443 330 -445V-444Q326 -438 315 -430Q310 -423 310 -414Q310 -410 310 -407Q315 -408 323 -414Q333 -422 339 -423Q323 -410 323 -398Q323 -389 332 -385Q337 -388 343 -391H346L347 -390Q345 -386 342 -383L344 -380L346 -378Q349 -379 352 -380Q347 -375 347 -363Q348 -346 349 -330Q349 -323 347 -320H346Q342 -320 340 -324Q338 -327 337 -330Q325 -325 324 -312Q322 -299 316 -288Q315 -286 309 -282Q304 -278 302 -273Q304 -270 306 -267H311Q328 -268 334 -281Q340 -294 350 -305Q354 -298 353 -290Q353 -289 347 -262Q342 -257 336 -259Q320 -258 315 -232Q311 -207 313 -171Q321 -92 317 -52Q333 -63 349 -75Q358 -82 344 -104Q333 -121 330 -136Q334 -133 346 -117Q357 -103 364 -100Q367 -108 346 -140L368 -117L338 -174L379 -122L371 -145Q381 -131 386 -126Q371 -146 367 -160Q372 -159 377 -154Q382 -146 385 -138Q392 -128 399 -118Q407 -108 411 -104Q413 -105 414 -107Q445 -132 489 -156Q488 -150 476 -140Q458 -125 459 -114V-112Q463 -112 467 -118Q471 -124 476 -124Q479 -125 481 -124Q481 -114 485 -102Q545 -120 617 -126V-151H615Q610 -151 599 -145Q590 -140 582 -140H581Q573 -140 554 -148Q547 -149 540 -150Q534 -153 527 -153Q516 -153 512 -160Q511 -161 511 -162Q504 -164 505 -165Q502 -168 497 -171Q488 -176 486 -180Q490 -184 494 -184Q498 -183 501 -183V-184Q501 -192 487 -192H486Q474 -192 474 -198Q494 -199 516 -217Q531 -229 568 -239Q565 -233 570 -230Q599 -238 620 -247Q619 -253 612 -253Q604 -252 595 -251L591 -252V-258Q604 -265 617 -270V-276Q617 -290 607 -294Q610 -317 626 -326Q642 -335 655 -348Q680 -337 700 -314Q699 -311 699 -306Q699 -300 703 -288Q708 -290 716 -290Q725 -289 734 -289Q738 -289 746 -291L747 -289Q745 -282 743 -275Q756 -260 767 -239Q770 -240 779 -240Q792 -240 794 -234Q793 -230 785 -229Q777 -227 776 -224Q775 -213 775 -203Q776 -203 760 -197V-194Q760 -191 759 -189Q760 -187 761 -185H757Q747 -183 742 -177Q736 -178 726 -178Q703 -176 682 -163Q682 -147 681 -132Q712 -138 806 -142Q848 -144 870 -159Q871 -162 872 -166Q854 -177 850 -179Q843 -195 818 -218Q789 -245 783 -268Q796 -261 814 -243Q835 -221 849 -215Q852 -218 852 -222Q852 -228 844 -239Q829 -257 813 -275Q793 -303 783 -315Q771 -327 758 -338Q749 -349 740 -361Q732 -373 718 -378Q716 -372 716 -370Q716 -358 735 -340Q753 -323 755 -311H753Q744 -312 738 -319Q732 -327 726 -335Q717 -347 681 -378Q677 -382 666 -392Q664 -392 637 -360Q617 -336 587 -305Q558 -275 540 -249Q515 -227 485 -221Q478 -225 469 -227Q459 -230 455 -236Q455 -245 459 -255Q453 -258 451 -265Q449 -272 446 -278Q440 -276 434 -275H432L431 -279Q431 -285 436 -288Q441 -291 444 -293Q433 -318 433 -331Q433 -344 444 -350Q429 -370 414 -389Q399 -408 392 -436Q401 -432 407 -420Q414 -409 423 -396Q448 -365 456 -364H460Q465 -364 476 -370Q488 -377 498 -377H500Q497 -370 486 -360Q477 -352 474 -347Q481 -334 488 -334H490Q500 -335 508 -346Q515 -356 544 -382Q590 -423 595 -438Q593 -438 590 -439Q582 -439 571 -425Q559 -410 549 -409Q565 -436 584 -455Q574 -466 567 -489Q559 -488 546 -475Q535 -463 528 -462H526Q495 -470 466 -503Q445 -524 445 -553Q445 -576 459 -593Q447 -632 447 -643Q447 -651 450 -657Q464 -675 484 -698Q500 -720 501 -721Q511 -733 520 -734Q518 -729 511 -718Q504 -707 502 -699Q504 -697 505 -695Q520 -692 524 -692Q529 -692 531 -693Q523 -672 523 -667Q523 -660 527 -656H532Q556 -660 582 -674Q619 -689 655 -702Q690 -715 715 -737Q712 -738 706 -738Q669 -732 634 -717Q590 -701 573 -701H567Q570 -707 578 -710Q586 -714 594 -717Q608 -724 622 -731Q642 -734 662 -738Q682 -748 702 -758Q713 -763 723 -771Q732 -779 746 -780Q760 -779 770 -771Q781 -763 791 -756Q799 -763 812 -765H814Q809 -760 809 -752Q809 -744 816 -741H818Q823 -741 833 -747Q846 -755 851 -755Q855 -755 859 -751Q851 -745 841 -741Q832 -736 831 -723Q833 -720 836 -720Q841 -721 846 -722Q848 -722 850 -720V-717Q850 -715 845 -714Q841 -713 840 -711Q834 -677 830 -641Q826 -605 810 -582Q771 -567 752 -532Q733 -497 711 -464Q773 -410 840 -362Q846 -372 847 -380Q852 -379 854 -369Q856 -361 858 -359Q867 -363 867 -377Q867 -386 861 -409Q854 -436 854 -448Q855 -452 855 -456L885 -360V-367Q885 -386 875 -425Q865 -464 865 -484Q865 -495 866 -501Q875 -494 876 -482Q877 -470 878 -459L888 -417Q893 -394 897 -372Q900 -351 911 -334V-338Q908 -365 904 -392Q904 -399 905 -403Q911 -400 912 -393Q913 -386 914 -380Q917 -367 920 -354Q921 -325 927 -297Q929 -292 937 -283Q947 -272 949 -261Q953 -233 953 -222Q953 -191 940 -165Q929 -150 913 -150Q900 -150 883 -160ZM408 -12Q405 -7 407 -4Q408 -6 408 -11Z"/>
</svg>