<svg xmlns="http://www.w3.org/2000/svg" viewBox="0 -800 1024 1024">
	<path fill="#000000" d="M616 -200Q615 -191 604 -191Q597 -191 589 -195Q590 -203 600 -203Q604 -203 616 -200ZM237 -319V-318Q225 -321 213 -324V-326Q213 -336 219 -336Q234 -333 237 -319ZM860 -482Q865 -485 869 -485Q873 -485 876 -482Q873 -469 870 -456Q863 -459 862 -467Q862 -475 860 -482ZM402 -371Q399 -372 393 -372Q369 -372 366 -353Q368 -352 373 -352Q394 -352 402 -371ZM410 -512Q406 -516 406 -528Q406 -538 408 -548Q390 -544 385 -538Q386 -535 386 -530Q382 -512 368 -501Q398 -507 410 -512ZM591 0H581Q533 0 488 28Q493 31 498 31Q514 28 535 21Q557 19 579 16Q580 13 584 10Q590 4 591 0ZM476 -452Q473 -453 467 -453Q454 -453 427 -442Q408 -434 398 -432Q377 -428 353 -422Q329 -417 324 -399Q360 -406 395 -421Q404 -425 413 -425Q427 -424 436 -416Q446 -408 457 -399Q474 -443 476 -452ZM595 -137Q584 -133 555 -129Q515 -124 502 -114Q499 -115 493 -115Q487 -115 484 -113Q473 -120 463 -128Q465 -133 472 -141Q480 -150 482 -158Q492 -159 517 -168Q542 -177 556 -177Q567 -177 577 -171Q584 -173 590 -175Q591 -175 595 -173Q592 -165 588 -161Q595 -142 595 -137ZM618 -117H622Q621 -114 616 -113Q611 -112 610 -110V-101Q613 -102 615 -104L617 -101Q604 -90 604 -77Q604 -71 607 -65Q597 -68 583 -68Q545 -68 517 -53Q501 -42 482 -40Q475 -40 470 -41Q461 -45 461 -59V-73Q461 -80 460 -83Q472 -95 487 -105Q492 -103 493 -99Q515 -105 535 -113Q556 -121 583 -122H586Q591 -120 595 -116H599Q609 -116 618 -117ZM861 -188H859Q837 -190 823 -208Q808 -226 791 -242Q776 -253 762 -263Q749 -272 744 -290Q759 -286 785 -262Q808 -241 829 -240Q820 -264 801 -279Q783 -295 764 -309Q702 -356 687 -365Q687 -358 696 -347Q705 -335 706 -326Q692 -332 683 -342Q673 -353 662 -363Q642 -358 626 -337Q599 -303 598 -302Q588 -305 580 -305Q577 -305 565 -303L564 -306Q565 -310 565 -315V-318Q556 -331 550 -366Q544 -402 537 -413H539Q548 -409 555 -401L557 -403Q556 -405 554 -408L555 -409Q563 -409 568 -404Q572 -399 577 -396Q589 -409 602 -416Q585 -441 585 -461Q585 -479 605 -479Q611 -479 614 -478Q625 -476 633 -469Q641 -462 648 -458Q669 -472 705 -516Q715 -518 722 -518Q731 -518 738 -515Q739 -507 748 -498Q756 -490 758 -482H759Q764 -483 768 -485H771Q768 -473 764 -462V-459Q765 -451 766 -443Q766 -440 765 -438Q760 -423 744 -418Q727 -414 719 -402Q741 -384 767 -365Q792 -346 821 -344Q825 -344 835 -346V-372Q835 -397 842 -406Q842 -376 848 -363Q849 -371 849 -388Q847 -436 845 -484V-495Q855 -471 857 -409Q858 -367 862 -347Q865 -383 867 -420Q867 -429 865 -447Q873 -443 873 -431Q874 -418 875 -407Q881 -353 891 -320Q893 -321 894 -324Q895 -327 898 -327H900V-324Q900 -310 912 -289Q925 -266 925 -248Q925 -243 924 -239Q923 -231 915 -217Q908 -205 906 -195Q903 -195 900 -196Q881 -192 861 -188ZM725 54V53Q725 45 735 37Q745 29 746 22V19Q746 10 738 0H733Q718 0 709 13L707 14Q702 11 697 6Q669 12 635 55Q629 61 629 74Q629 81 630 84Q651 71 670 58Q675 58 677 61Q678 64 681 66Q689 61 699 58Q702 58 706 60Q705 67 694 74Q685 79 685 83V84Q683 83 681 82Q658 103 635 123Q623 116 617 102Q594 99 577 82Q529 93 509 102Q504 104 489 117Q476 128 469 129H462Q442 129 438 128Q420 121 414 102H416Q427 105 437 108Q442 105 446 99Q443 86 432 79Q420 72 405 61Q400 56 387 44Q375 32 364 31Q356 31 354 43V48Q354 62 374 72Q396 83 399 92Q397 93 393 93Q382 91 370 88Q366 88 364 89Q338 66 324 40Q324 37 320 37Q317 37 315 36V32Q315 -21 351 -35Q350 -40 348 -46Q348 -48 351 -50Q355 -49 358 -44Q361 -39 364 -38Q367 -41 367 -44Q364 -53 361 -62L362 -66Q369 -65 375 -52Q381 -41 388 -39Q399 -43 410 -43Q434 -43 448 -24Q497 -41 555 -49Q613 -58 653 -85Q669 -78 682 -78Q703 -78 713 -92Q718 -92 718 -85V-75Q724 -72 728 -72Q735 -72 746 -79Q758 -87 766 -87H767Q765 -82 754 -73Q740 -61 740 -54Q740 -49 744 -44Q752 -49 759 -54L761 -53L762 -50Q762 -46 757 -40Q753 -35 752 -33V-26Q752 -11 764 9Q758 21 754 36Q749 53 732 55Q728 55 725 54ZM737 -247H744Q749 -247 752 -245Q736 -239 736 -215Q736 -208 737 -204Q731 -201 708 -186Q686 -191 663 -197Q657 -195 649 -195Q629 -195 624 -203Q632 -206 640 -206Q657 -204 673 -203Q683 -203 688 -207Q672 -227 627 -227Q622 -227 577 -224Q546 -221 478 -200Q452 -194 426 -188Q400 -182 383 -171Q373 -164 370 -151Q372 -145 381 -145Q401 -149 420 -159Q504 -189 552 -191Q509 -179 456 -156Q442 -148 415 -140Q377 -128 364 -116Q357 -108 351 -98Q345 -87 336 -83Q333 -82 326 -82Q310 -83 299 -93Q288 -104 280 -113Q274 -118 269 -120Q264 -123 262 -129Q262 -134 261 -140Q261 -151 265 -158Q265 -159 259 -171Q262 -205 281 -224Q300 -243 328 -254L329 -253Q329 -251 326 -249Q320 -244 320 -241V-239H328Q338 -239 407 -245Q397 -264 373 -264Q373 -267 376 -267Q378 -267 379 -269Q365 -276 335 -282Q298 -290 285 -297Q325 -293 373 -284Q355 -291 314 -299Q265 -308 244 -318Q260 -318 300 -308Q344 -297 364 -297Q400 -297 416 -324Q413 -328 410 -328Q404 -325 398 -323H397Q394 -323 390 -324H389Q382 -323 370 -315Q354 -305 345 -305Q340 -305 334 -308Q320 -315 311 -324Q298 -336 285 -368Q279 -366 273 -365L269 -366Q262 -376 254 -385Q246 -394 231 -395Q233 -401 233 -406Q233 -429 220 -437Q251 -462 274 -498L278 -499H282L285 -501H279Q253 -497 220 -482Q198 -474 185 -465Q173 -456 161 -442Q149 -427 136 -426H135Q130 -426 119 -435Q109 -443 102 -446Q90 -449 79 -454Q69 -458 68 -475V-482Q68 -488 74 -498L66 -513V-521Q66 -543 78 -569Q90 -574 109 -597Q126 -618 143 -622L144 -620Q144 -618 138 -613Q132 -607 131 -604Q135 -594 147 -594Q153 -594 174 -601Q195 -608 206 -608Q213 -608 219 -605Q214 -596 198 -594Q182 -591 168 -587Q154 -583 152 -566Q157 -562 164 -562Q184 -566 207 -578Q222 -581 237 -583Q252 -585 265 -591Q246 -601 246 -627Q246 -649 259 -659Q253 -668 250 -677V-679Q263 -678 268 -667Q272 -673 275 -679Q280 -676 284 -676Q294 -677 303 -679Q328 -677 351 -645Q390 -653 431 -665Q438 -686 441 -710Q441 -722 434 -727Q423 -726 418 -718Q414 -711 407 -707Q420 -741 438 -773Q453 -793 483 -798Q493 -798 500 -792Q512 -781 522 -763Q532 -745 553 -742Q552 -730 544 -714Q537 -700 535 -691L538 -690Q548 -693 558 -696H559Q557 -688 557 -683Q557 -670 567 -667Q566 -664 566 -659Q567 -652 567 -646Q567 -642 564 -639Q569 -635 576 -632Q582 -641 585 -654Q588 -666 599 -671Q599 -658 591 -636Q583 -614 583 -602Q583 -592 585 -587Q597 -595 603 -612Q609 -628 616 -647Q623 -662 632 -681Q641 -701 642 -719Q642 -743 620 -755Q615 -754 611 -748Q618 -734 618 -724Q618 -708 605 -702Q605 -703 608 -722Q599 -727 592 -751Q588 -765 582 -773Q586 -792 605 -804Q623 -815 646 -815Q651 -814 656 -814Q673 -812 679 -801Q685 -790 693 -774Q702 -759 711 -744Q720 -729 721 -707Q712 -685 703 -664Q736 -668 771 -677Q776 -679 782 -684Q791 -692 797 -692Q802 -695 807 -703Q813 -714 821 -714V-694Q827 -691 833 -691Q855 -695 876 -700Q879 -699 882 -699Q879 -694 867 -689Q853 -683 851 -674Q852 -670 856 -670Q862 -670 867 -671H869L870 -669Q870 -666 866 -663Q860 -658 860 -654V-651L861 -650Q866 -651 870 -653L873 -651V-650Q873 -647 862 -636Q870 -623 870 -607Q870 -600 863 -567Q851 -569 845 -569Q808 -565 771 -551Q745 -544 719 -538Q699 -528 678 -518Q641 -503 626 -484Q567 -492 567 -577Q567 -594 568 -602Q562 -600 559 -593Q525 -587 495 -576Q463 -565 457 -525Q477 -532 506 -536Q516 -536 523 -532Q528 -532 536 -541Q542 -548 546 -548H547Q539 -524 539 -520Q539 -510 551 -510H555Q559 -478 559 -456Q558 -458 552 -458Q540 -451 535 -437Q531 -423 526 -410Q487 -306 475 -258Q479 -256 481 -256Q491 -258 500 -260H503Q497 -272 497 -288Q497 -306 504 -317Q513 -330 529 -330Q538 -330 547 -326Q556 -316 560 -301Q565 -287 570 -272H574Q588 -272 610 -280Q627 -286 632 -287Q646 -288 658 -290Q671 -292 681 -303Q685 -295 690 -293Q705 -296 707 -296H710L711 -293Q711 -288 706 -283Q712 -272 727 -272H731V-270Q729 -263 726 -256Q726 -253 728 -251Q732 -247 737 -247Z"/>
</svg>