<svg xmlns="http://www.w3.org/2000/svg" viewBox="0 -800 1024 1024">
	<path fill="#000000" d="M142 -524V-527Q142 -539 156 -539Q160 -539 162 -538Q153 -525 142 -524ZM232 -675V-679Q232 -685 231 -691L232 -695H234Q240 -693 245 -689Q260 -696 277 -699Q294 -702 302 -716Q309 -713 311 -706Q313 -700 317 -694Q324 -689 331 -685Q342 -672 352 -658Q354 -658 356 -662Q359 -668 364 -668L367 -667Q365 -661 365 -650Q370 -616 390 -597Q398 -565 398 -546Q398 -522 387 -507Q385 -504 369 -493Q360 -483 351 -478Q343 -476 340 -476Q327 -476 303 -497Q284 -514 274 -517Q268 -517 261 -510Q257 -506 254 -506Q253 -508 253 -511Q256 -521 262 -529Q260 -532 257 -535Q232 -530 228 -529Q217 -525 200 -511Q187 -501 180 -497Q184 -514 205 -529Q209 -533 221 -543Q233 -554 234 -562Q234 -566 228 -568Q226 -569 222 -569Q210 -569 190 -554Q175 -543 169 -543Q172 -554 194 -566Q214 -577 214 -592Q214 -595 213 -598Q202 -598 194 -601Q203 -609 211 -618Q210 -636 192 -653Q177 -667 174 -678Q187 -665 207 -665Q221 -665 232 -675ZM925 -211Q922 -199 915 -187Q911 -190 911 -198Q912 -209 921 -211ZM703 -498Q696 -495 694 -488Q693 -480 691 -472L690 -468Q679 -454 658 -453Q636 -452 616 -451Q599 -458 576 -477Q548 -501 522 -507Q519 -508 517 -513Q516 -517 513 -518Q500 -516 487 -514Q490 -522 497 -525Q504 -527 509 -531Q505 -545 482 -550Q458 -556 431 -550Q457 -563 484 -570Q487 -576 489 -582Q494 -606 477 -612Q479 -614 483 -613Q486 -611 489 -610Q493 -610 496 -611Q498 -625 489 -632Q480 -640 472 -648Q477 -648 480 -647Q499 -639 517 -628Q535 -640 563 -643Q568 -652 573 -662Q576 -654 579 -647L585 -645Q615 -637 641 -627Q647 -626 652 -631Q657 -636 661 -636L660 -634Q659 -630 657 -627L656 -625Q660 -610 675 -597Q677 -591 678 -585Q705 -559 703 -498ZM468 -659Q464 -659 460 -659Q449 -660 449 -673Q453 -676 458 -674Q469 -670 468 -659ZM905 -297Q902 -287 899 -277V-274Q893 -275 893 -287Q893 -303 903 -303H904Q905 -301 905 -297ZM456 -74Q450 -94 433 -110Q416 -126 404 -140Q427 -129 450 -119Q449 -128 438 -134Q426 -140 417 -147Q435 -146 461 -138Q480 -146 514 -202Q529 -227 545 -258Q516 -267 486 -280Q423 -307 402 -334Q394 -347 394 -360Q393 -374 391 -389V-390Q393 -396 397 -400Q396 -404 391 -409Q385 -415 385 -418V-420Q394 -417 401 -417Q413 -417 431 -429Q445 -438 454 -439Q458 -440 466 -440Q506 -440 540 -413Q561 -392 582 -371Q596 -351 609 -331Q620 -337 628 -350Q635 -362 641 -373Q661 -384 668 -395Q675 -407 684 -416L794 -567Q803 -578 786 -600Q770 -621 755 -621Q760 -603 765 -585Q765 -577 757 -574Q754 -624 706 -631Q721 -649 733 -670Q760 -707 815 -712Q824 -713 844 -713Q891 -713 913 -694Q919 -694 924 -701Q928 -706 931 -706H933V-704Q933 -701 929 -696Q921 -685 921 -680Q921 -676 926 -671L927 -670Q931 -673 939 -676H940Q935 -664 935 -656Q935 -643 949 -623Q962 -605 963 -595Q964 -591 964 -584Q960 -562 956 -541Q946 -528 938 -514Q935 -514 931 -515Q927 -498 923 -481Q921 -480 890 -432Q887 -433 883 -435L880 -434Q845 -424 835 -405Q830 -397 824 -386Q818 -375 803 -361V-366Q803 -377 818 -399Q827 -413 830 -421Q818 -419 810 -410Q802 -401 794 -392Q765 -359 760 -351Q749 -333 741 -298Q747 -302 760 -317Q778 -337 794 -345Q792 -333 775 -314Q756 -293 756 -281V-278Q753 -271 731 -258Q710 -244 712 -238Q715 -233 717 -229Q718 -228 734 -216Q772 -189 798 -166Q809 -156 822 -122Q837 -81 853 -76Q873 -83 874 -106Q874 -130 883 -146Q886 -140 886 -126Q886 -108 889 -103Q891 -131 891 -147V-184Q891 -231 899 -258Q902 -237 902 -212Q902 -173 901 -135Q901 -92 906 -67Q909 -121 911 -175Q918 -163 918 -125V-120Q918 -86 924 -73Q926 -74 927 -78Q928 -85 932 -85Q931 -81 931 -72Q931 -50 954 -13Q971 15 971 25V27Q970 33 965 38Q959 43 956 47Q950 57 945 69Q939 81 928 87Q910 85 904 85Q890 85 879 92Q845 71 824 35Q827 34 829 33Q836 36 843 38V33Q842 -4 803 -15Q801 -11 801 -9Q801 -5 805 2Q810 11 810 17V21L808 22Q802 20 798 14Q758 -17 750 -25Q722 -50 714 -71Q727 -67 748 -49Q770 -30 784 -25Q788 -27 791 -30Q771 -60 741 -81Q712 -103 685 -127L684 -123Q684 -119 691 -110Q697 -102 697 -98L696 -94H695Q692 -94 678 -105Q653 -127 629 -153Q605 -126 582 -81Q559 -35 540 -2Q529 7 517 25Q513 31 499 54Q474 48 467 28Q460 9 453 -11Q452 -15 448 -19Q436 -11 431 -15Q433 -17 435 -19Q441 -23 444 -24Q440 -28 434 -32Q429 -31 420 -24Q409 -17 414 -10Q417 -6 422 -7Q427 -8 429 -7Q430 -4 423 2Q418 5 413 8L408 12Q386 29 371 48Q368 50 362 50Q381 26 399 2Q392 -2 381 7Q354 40 336 48Q328 50 319 58Q307 68 307 77Q307 83 311 82Q319 79 331 71Q342 65 344 65Q335 79 319 86Q305 95 288 87Q261 78 239 73Q236 73 236 70Q235 67 232 66H230Q215 66 201 75V74Q201 67 223 58Q217 43 217 27Q217 -11 229 -24L236 -25Q228 -27 215 -33L216 -34Q232 -34 235 -33Q240 -38 244 -73Q250 -123 261 -125Q261 -51 275 -38Q273 -140 279 -215Q274 -216 270 -199Q266 -183 266 -177Q264 -164 253 -139Q252 -144 252 -165Q251 -196 249 -227Q247 -257 252 -281Q214 -268 198 -249Q181 -244 156 -226Q130 -207 124 -192Q112 -189 106 -189Q103 -189 95 -191Q86 -199 75 -224Q67 -242 62 -250Q56 -258 50 -267V-271Q51 -277 52 -283V-285Q51 -298 50 -312Q51 -315 51 -319Q48 -324 36 -336Q28 -343 26 -348Q27 -350 31 -350Q42 -345 51 -336Q49 -350 29 -366Q12 -379 8 -389Q19 -388 35 -373Q49 -359 58 -357Q58 -366 46 -374Q34 -383 32 -390Q47 -384 62 -373Q68 -370 71 -370Q75 -372 78 -375Q82 -377 93 -377Q101 -376 108 -376Q114 -376 116 -377Q135 -379 164 -391Q194 -402 202 -404Q206 -402 210 -401Q202 -393 172 -384Q141 -376 129 -371Q117 -365 117 -355Q117 -347 123 -342Q166 -357 198 -367Q230 -377 270 -400Q268 -404 261 -406Q249 -403 236 -400L233 -401Q235 -413 246 -413H248Q259 -423 272 -430Q277 -429 282 -429Q286 -429 289 -430H290Q294 -427 298 -425H299Q315 -436 330 -445V-444Q327 -438 317 -430Q311 -424 311 -414Q311 -410 312 -407Q316 -407 324 -414Q333 -422 339 -423Q324 -410 324 -398Q324 -389 332 -385Q337 -388 343 -391H345L346 -390Q344 -386 342 -383L343 -380L345 -378Q348 -379 351 -380Q346 -375 346 -363Q347 -346 348 -330Q348 -323 346 -320H345Q342 -320 340 -324Q338 -327 337 -330Q326 -325 324 -312Q323 -299 317 -288Q310 -281 304 -273Q306 -270 308 -267H312Q328 -268 334 -281Q340 -294 349 -305Q352 -300 352 -290Q352 -289 346 -262Q342 -258 336 -259Q321 -258 317 -232Q313 -207 315 -171Q322 -92 319 -52Q340 -67 360 -82Q366 -86 363 -95Q363 -96 356 -111Q346 -127 343 -143Q349 -135 357 -123Q365 -112 374 -107Q376 -115 357 -147L378 -123L349 -181L388 -129L381 -151Q389 -139 394 -133Q380 -155 377 -166Q380 -166 386 -160Q390 -152 394 -145Q401 -134 407 -124Q413 -113 422 -107Q440 -93 451 -81Q453 -78 455 -76Z"/>
</svg>