<svg xmlns="http://www.w3.org/2000/svg" viewBox="0 -800 1024 1024">
	<path fill="#000000" d="M767 -547V-546Q761 -544 754 -542H751Q751 -553 765 -553H768V-552Q768 -549 767 -547ZM711 -164Q712 -171 724 -171Q736 -171 736 -164Q735 -157 724 -157Q713 -157 711 -164ZM938 -187H940Q937 -176 929 -168Q922 -160 914 -153Q918 -187 938 -187ZM581 -258V-260Q585 -270 597 -283Q613 -302 617 -314Q609 -316 607 -316Q594 -315 586 -303Q579 -292 570 -282Q553 -269 533 -260Q533 -256 540 -244Q570 -248 585 -251Q581 -257 581 -258ZM614 -389H602Q565 -389 548 -373Q545 -363 533 -270Q588 -303 617 -373Q609 -373 598 -367Q589 -362 584 -362H581Q584 -370 599 -378Q610 -384 614 -389ZM450 -235Q453 -265 453 -303Q453 -336 450 -349Q423 -346 400 -338Q371 -328 370 -314Q370 -305 396 -274Q402 -278 408 -283Q414 -288 421 -289L425 -288Q407 -260 407 -245Q407 -237 411 -230Q427 -233 443 -236Q447 -236 450 -235ZM514 -691H517Q516 -680 515 -670Q515 -656 523 -652Q519 -651 519 -645Q520 -637 521 -630Q514 -621 514 -609Q514 -604 518 -601Q513 -597 513 -592Q513 -585 523 -575Q436 -550 402 -532Q402 -504 394 -484Q392 -484 389 -485Q380 -485 372 -477Q350 -482 332 -490Q324 -500 313 -501Q308 -501 304 -500Q270 -492 238 -472Q232 -468 223 -457Q209 -442 201 -437H169Q165 -441 155 -446Q142 -452 136 -461Q129 -472 122 -483Q113 -493 105 -505Q97 -518 96 -537Q96 -541 98 -553Q99 -560 108 -571V-577Q108 -591 107 -605V-611Q116 -630 134 -642Q151 -654 166 -668Q171 -678 181 -684Q175 -671 171 -658Q171 -655 172 -653Q175 -643 197 -643Q241 -646 258 -656Q257 -660 257 -666Q257 -674 261 -685Q266 -699 266 -705Q266 -708 265 -712Q270 -711 273 -704Q276 -697 280 -697H281Q279 -713 277 -730V-734H281Q285 -729 287 -721Q289 -713 298 -712H299L300 -714Q299 -721 298 -728V-730Q310 -720 321 -720Q328 -720 332 -721Q355 -701 373 -679Q382 -681 515 -712V-710Q515 -706 509 -705Q504 -704 503 -701Q503 -691 514 -691ZM871 85V90Q868 109 845 116Q838 118 804 121Q776 91 739 66Q735 63 729 59Q724 54 723 47V43Q733 46 745 56Q759 68 768 68H771Q763 37 740 17Q715 -3 688 -21Q641 -57 610 -67Q612 -53 622 -44Q633 -35 643 -26Q664 -7 682 11Q663 6 637 -18Q613 -40 595 -46Q574 -69 543 -84Q539 -79 539 -66Q540 -53 540 -40Q540 -26 535 -21Q531 -27 530 -47Q529 -74 518 -78Q511 -77 511 -67V-53Q505 -2 505 11Q505 49 521 60Q530 59 531 39Q531 21 539 19Q545 44 548 69V72Q546 87 529 105Q510 124 492 124Q486 124 480 121Q455 105 438 87Q437 83 435 78Q431 71 420 65Q411 60 408 56H411Q417 57 422 57Q426 57 426 53V52Q425 44 413 43Q400 42 393 38V37L395 34Q400 35 404 35H407Q433 28 443 14Q446 -16 449 -47Q449 -63 444 -76Q388 -47 345 -3Q302 41 253 80Q248 87 243 94Q235 92 232 92Q220 93 208 94H204Q195 85 187 76Q179 66 167 60V56Q167 46 173 40Q166 35 166 21Q166 11 173 8Q171 2 163 -13Q154 -28 152 -41Q162 -40 168 -27Q175 -12 179 -9Q232 -29 287 -63Q307 -75 385 -128Q381 -129 372 -129Q345 -128 316 -120Q287 -112 265 -107Q271 -118 284 -122Q297 -125 310 -128Q332 -135 354 -142Q350 -150 331 -150Q321 -150 307 -148Q249 -143 210 -124Q195 -116 190 -103Q193 -95 202 -95Q211 -96 219 -97Q226 -97 228 -92Q228 -87 224 -87Q220 -86 216 -85Q209 -84 186 -64Q164 -45 151 -43Q147 -42 140 -42Q125 -42 114 -50Q102 -58 101 -72Q84 -80 77 -87Q68 -96 68 -110Q68 -116 71 -127Q75 -136 78 -145V-169Q78 -181 83 -187Q96 -193 110 -220Q124 -247 139 -253Q126 -234 126 -214Q126 -205 129 -196Q137 -195 152 -195Q190 -196 228 -204Q266 -212 305 -217Q298 -226 290 -236Q282 -246 270 -247Q265 -247 255 -242Q255 -248 263 -256Q270 -264 271 -268Q272 -271 272 -274Q272 -283 266 -290Q261 -296 256 -305H258Q270 -303 278 -296Q282 -298 286 -306Q291 -317 299 -317H302Q301 -323 295 -326Q285 -330 284 -332Q280 -341 275 -351Q270 -354 264 -356Q257 -358 253 -364Q251 -374 251 -382Q251 -407 265 -408Q263 -420 263 -424Q263 -438 271 -448Q274 -451 290 -464Q296 -469 303 -477Q312 -488 318 -490Q316 -484 316 -481Q316 -473 331 -471Q348 -468 351 -464Q349 -461 335 -458Q324 -455 323 -448Q333 -435 356 -435Q377 -435 410 -446Q433 -453 433 -462Q433 -467 420 -470Q417 -470 414 -471Q399 -467 384 -464H382Q385 -476 412 -482Q432 -486 437 -492Q438 -521 465 -542Q477 -553 489 -553Q496 -553 508 -547Q522 -540 545 -520Q544 -515 542 -510V-508H549Q554 -508 555 -509Q555 -514 548 -523Q556 -535 558 -555V-558Q552 -566 539 -582Q527 -598 523 -610V-612Q527 -630 530 -649V-652Q529 -661 527 -671Q528 -684 540 -694Q546 -700 560 -707Q564 -698 578 -698Q595 -698 613 -707V-713Q613 -728 607 -737Q608 -742 609 -747Q609 -750 604 -754Q593 -752 581 -751H576Q597 -765 620 -784Q642 -802 667 -812Q682 -818 691 -818Q695 -818 697 -817Q704 -815 710 -806Q715 -797 721 -791Q731 -783 743 -778Q754 -773 761 -763V-748Q830 -753 859 -765Q861 -755 866 -751Q876 -753 887 -761Q901 -770 908 -772Q891 -755 884 -731Q886 -730 890 -730Q901 -732 911 -734H914V-733Q914 -729 906 -722Q898 -716 897 -713Q899 -705 900 -697H901Q907 -698 913 -699Q916 -699 917 -697Q915 -693 909 -688Q900 -681 899 -674V-673Q899 -670 902 -670Q904 -670 906 -668Q893 -662 886 -652Q879 -641 872 -630Q862 -606 832 -601H827Q812 -601 810 -607Q823 -614 841 -616Q838 -635 812 -635Q799 -635 759 -627Q741 -625 727 -620Q713 -615 709 -601Q714 -597 721 -597Q740 -600 759 -603Q769 -603 776 -599Q727 -590 697 -576Q658 -558 641 -529Q649 -529 661 -534Q672 -539 679 -539Q683 -538 685 -532Q688 -525 690 -524H692Q701 -524 715 -532Q727 -539 736 -539Q741 -539 743 -538Q733 -530 721 -524Q709 -517 708 -503Q708 -498 709 -495Q711 -494 714 -494Q722 -495 730 -496Q734 -496 736 -495Q729 -490 721 -486Q712 -483 711 -472Q712 -468 721 -466Q729 -465 730 -461Q720 -460 712 -458Q703 -456 702 -446Q706 -440 722 -438Q738 -436 743 -430V-428Q744 -409 753 -399Q762 -390 768 -377V-371Q770 -348 771 -326Q771 -308 764 -299H750Q717 -299 690 -287Q674 -280 641 -257Q653 -262 684 -262Q711 -262 727 -266Q757 -277 789 -281Q798 -281 803 -280Q832 -295 837 -295V-294Q837 -288 832 -284Q828 -280 828 -277Q834 -274 842 -274Q870 -278 897 -283Q905 -283 912 -280Q897 -274 879 -269Q862 -264 856 -248Q859 -243 865 -243Q880 -247 894 -251L897 -250Q895 -244 885 -239Q873 -233 872 -223L876 -222Q883 -224 889 -227Q892 -227 894 -222Q890 -217 884 -214Q879 -210 878 -202L877 -200L878 -199Q881 -200 884 -201L887 -199Q881 -194 875 -188Q869 -182 869 -173Q869 -170 871 -164Q847 -147 831 -142Q824 -147 816 -147Q812 -147 810 -144Q804 -151 784 -154Q764 -157 758 -163Q759 -169 766 -169Q778 -167 790 -165Q796 -165 797 -170Q798 -173 787 -180Q777 -187 774 -188Q762 -194 736 -194Q734 -194 659 -188Q643 -187 627 -186Q611 -185 601 -175Q606 -167 620 -167Q637 -168 653 -170Q664 -170 668 -163Q655 -156 636 -156Q617 -155 603 -153Q690 -97 779 -44Q783 -43 786 -43Q811 -46 827 -70Q842 -94 859 -106Q852 -91 840 -75Q828 -59 823 -38Q839 -51 864 -90Q887 -126 905 -141Q900 -125 882 -97Q859 -62 856 -37Q862 -40 873 -54Q886 -71 894 -75Q890 -64 879 -47Q865 -26 862 -10L860 31Q860 44 866 63Q871 79 871 85Z"/>
</svg>