<svg xmlns="http://www.w3.org/2000/svg" viewBox="0 -800 1024 1024">
	<path fill="#000000" d="M128 -514V-517Q128 -529 144 -529Q148 -529 150 -528Q141 -515 128 -514ZM225 -665V-669Q225 -675 224 -681L225 -685H227Q234 -683 239 -679Q256 -686 274 -689Q292 -692 301 -706Q307 -704 311 -694Q314 -687 317 -684Q325 -679 332 -675Q344 -662 354 -648Q356 -648 359 -653Q362 -658 367 -658L370 -657Q368 -651 368 -640Q372 -606 390 -587Q399 -558 399 -536Q399 -512 387 -497Q386 -496 368 -483Q358 -473 348 -468Q340 -466 336 -466Q322 -466 300 -486Q280 -504 270 -507Q265 -507 257 -500Q252 -496 249 -496Q248 -498 248 -501Q251 -511 258 -519Q258 -522 255 -522Q252 -522 252 -525Q226 -521 221 -519Q209 -515 192 -502Q177 -490 169 -487Q170 -496 178 -504Q187 -511 196 -519Q227 -544 227 -552Q227 -556 221 -558Q219 -559 214 -559Q201 -559 180 -544Q164 -533 157 -533Q165 -549 185 -556Q204 -563 206 -582Q206 -585 205 -588Q193 -588 184 -591Q194 -599 203 -608Q201 -625 185 -640Q167 -657 163 -668Q178 -655 198 -655Q214 -655 225 -665ZM665 -296V-293Q665 -282 645 -259Q616 -229 587 -205Q557 -182 539 -145H533Q510 -144 495 -151Q479 -158 465 -165L464 -169Q463 -183 453 -189Q444 -195 434 -200Q444 -203 453 -206Q447 -209 439 -209Q420 -205 401 -202Q396 -202 393 -203Q406 -211 432 -222Q463 -235 475 -243Q512 -266 528 -282Q545 -303 559 -335Q581 -349 617 -345Q627 -344 641 -337Q643 -329 654 -317Q664 -306 665 -296ZM894 -111H896Q899 -109 902 -107Q894 -95 894 -87Q889 -89 889 -98Q889 -108 894 -111ZM603 -407L638 -410Q639 -421 639 -433Q637 -434 634 -434Q621 -433 612 -426Q603 -418 603 -407ZM629 -487V-488Q628 -508 618 -511Q611 -511 598 -504Q584 -497 584 -490Q590 -487 595 -485H601Q615 -486 629 -487ZM701 -459Q699 -460 694 -460Q685 -460 676 -454Q666 -447 666 -438V-418Q681 -421 696 -424Q699 -441 701 -459ZM620 -69V-68Q636 -65 652 -62Q654 -69 662 -79Q670 -88 672 -95Q651 -93 637 -75Q633 -77 630 -77Q620 -77 620 -69ZM622 -15Q612 -27 595 -27Q573 -27 569 -5Q579 2 589 2Q607 2 622 -15ZM680 -511V-507Q696 -511 711 -516Q716 -560 722 -594Q678 -577 657 -538Q664 -534 672 -528Q679 -522 680 -511ZM541 -350Q521 -375 501 -403Q482 -431 469 -464Q484 -454 502 -431Q521 -407 531 -400Q526 -429 496 -471Q485 -489 475 -503Q465 -517 446 -523Q446 -518 453 -503Q460 -488 460 -479V-476Q415 -518 403 -586L405 -588Q408 -587 411 -586Q414 -586 415 -589Q413 -600 401 -613Q391 -624 388 -631Q397 -629 408 -619Q419 -609 427 -607L418 -627H420Q426 -627 437 -617Q444 -611 449 -609L467 -621Q475 -617 495 -615Q523 -611 531 -604Q541 -610 554 -621Q567 -631 582 -633Q580 -627 570 -618Q557 -606 556 -601Q595 -613 615 -630Q636 -647 689 -680Q733 -708 750 -720Q722 -711 692 -691Q662 -672 636 -655Q612 -640 603 -639Q606 -658 638 -678Q715 -721 785 -771Q808 -771 828 -758H831Q835 -758 839 -759Q837 -751 837 -749Q837 -745 839 -744Q856 -754 875 -762Q869 -757 863 -752Q856 -747 855 -735L858 -734Q862 -734 866 -738Q871 -743 874 -743Q866 -740 866 -725Q866 -712 872 -708H873Q877 -710 880 -713H881Q878 -705 878 -700Q878 -688 894 -668Q908 -651 908 -641V-639Q908 -632 900 -621Q895 -614 893 -608H888Q877 -608 867 -596Q858 -585 849 -584Q848 -585 848 -589Q852 -603 856 -618Q835 -615 821 -591Q814 -580 801 -542Q782 -492 781 -488Q772 -459 772 -431V-426Q782 -443 784 -464Q796 -508 806 -530Q822 -566 845 -575Q808 -500 798 -456Q791 -421 784 -386L787 -384H791Q786 -374 783 -364Q779 -353 770 -347Q764 -342 752 -342Q736 -342 705 -357Q618 -361 541 -350ZM807 -189Q806 -186 802 -182Q798 -179 797 -172L798 -168L800 -166Q804 -168 807 -170H808Q806 -162 806 -160Q806 -152 813 -149Q806 -141 806 -125Q806 -119 808 -105Q782 -101 763 -75Q757 -67 736 -27Q747 -18 775 -10Q805 -1 816 7Q817 5 823 5Q830 5 831 3L832 0V-5Q832 -9 834 -9Q840 -2 844 8Q851 6 856 1Q854 -23 854 -43Q854 -66 859 -77Q865 -44 870 -11Q874 -30 874 -58V-92Q874 -120 876 -132Q882 -131 882 -122Q882 -116 881 -111Q885 -50 888 11Q892 2 892 -13Q891 -34 890 -55V-63Q890 -75 896 -75Q898 -30 902 13Q906 12 907 2Q909 -7 912 -9Q912 15 931 43Q946 65 949 80Q942 84 942 96Q942 100 943 102Q904 119 879 134Q841 120 828 113Q801 99 789 79Q797 80 808 85Q820 91 827 91H831Q823 76 807 70Q791 63 776 57Q738 40 718 27L715 25Q722 39 751 55Q770 66 776 73Q773 74 769 74Q749 73 730 58Q711 44 696 31Q669 52 668 79Q646 89 643 93Q627 86 613 79Q599 71 576 69Q577 57 589 24Q580 11 570 11Q552 14 535 37Q518 60 506 72Q496 75 485 75Q449 75 435 42H433Q430 44 426 45Q432 36 432 29Q430 14 427 -2Q427 -8 428 -11Q437 -24 456 -41L486 -72Q526 -114 553 -121Q553 -114 540 -101Q527 -88 513 -77Q499 -65 490 -47Q512 -65 534 -84Q572 -116 584 -138H582Q575 -134 563 -130Q560 -130 558 -131Q563 -143 575 -160Q587 -177 591 -185Q601 -187 606 -187Q614 -187 628 -185Q636 -175 643 -165Q664 -177 685 -188Q707 -198 733 -199Q749 -199 767 -193Q777 -186 786 -180Q791 -180 796 -185Q800 -190 805 -190Q795 -196 794 -205H796Q800 -205 814 -195Q828 -185 832 -185H834Q837 -186 839 -188Q832 -200 803 -217Q777 -232 754 -240Q756 -232 770 -221Q781 -212 784 -206Q758 -213 744 -227Q730 -241 712 -256Q710 -266 694 -283Q678 -301 677 -313Q677 -318 678 -322H681Q687 -325 686 -332Q696 -345 717 -345Q728 -346 797 -321Q816 -340 827 -341Q823 -333 818 -325Q819 -313 829 -312Q834 -317 839 -323Q843 -329 853 -332Q847 -318 840 -308Q845 -305 847 -305Q858 -312 883 -324Q862 -308 862 -291Q863 -286 864 -282Q878 -283 901 -293Q925 -303 943 -305Q927 -295 909 -288Q891 -281 880 -265Q883 -246 903 -246Q891 -231 893 -205Q893 -196 897 -190H894Q889 -190 884 -190H881Q876 -177 855 -170L856 -160Q856 -155 854 -154Q846 -155 844 -161Q842 -167 839 -173Q821 -179 807 -189ZM383 -188Q381 -195 379 -203Q384 -202 389 -197Q394 -189 397 -181Q404 -171 411 -161Q418 -151 427 -144Q447 -130 459 -117Q462 -114 464 -112Q469 -105 472 -98Q480 -88 482 -86Q477 -75 472 -64Q463 -61 454 -54Q445 -47 438 -52Q441 -55 442 -55Q448 -59 454 -63Q456 -64 458 -66L457 -67Q450 -78 425 -61Q416 -52 419 -46Q422 -42 428 -44Q433 -45 435 -44Q437 -39 428 -35Q423 -32 418 -29L412 -25Q390 -8 368 14Q362 18 358 16Q368 6 376 -5Q386 -20 398 -32Q390 -36 378 -27Q363 0 343 8Q335 10 325 18Q312 28 312 37Q312 43 316 42Q325 40 338 31Q349 26 352 25Q343 37 325 46Q309 54 292 47Q263 38 239 33Q237 33 235 30Q233 26 231 26H229Q212 26 198 35V34Q198 27 222 18Q215 4 215 -13Q217 -53 228 -64L235 -65Q229 -69 223 -73L224 -74Q231 -74 234 -73Q240 -78 245 -117Q250 -153 261 -155Q261 -92 278 -78Q275 -175 281 -245Q275 -246 271 -230Q267 -213 267 -207Q262 -187 253 -169Q252 -174 252 -195Q251 -225 249 -247Q247 -268 252 -291Q224 -283 204 -259Q167 -245 147 -208Q135 -205 128 -205Q124 -205 116 -207Q106 -215 94 -240Q85 -259 80 -266Q74 -274 68 -283L67 -287Q69 -293 70 -299V-301Q69 -314 68 -328Q68 -332 69 -335Q64 -344 55 -351Q46 -358 41 -364Q43 -366 47 -366Q59 -361 69 -352Q67 -366 45 -382Q27 -395 22 -405Q35 -404 53 -388Q67 -375 76 -373Q77 -381 63 -390Q50 -398 48 -406Q65 -400 81 -389Q87 -386 90 -386H91Q95 -388 98 -391Q102 -393 114 -393Q122 -392 130 -392Q137 -392 139 -393Q157 -395 179 -404Q201 -413 209 -414Q213 -412 217 -411Q210 -403 188 -395Q165 -388 153 -383Q141 -378 139 -371Q139 -364 146 -358Q190 -373 211 -380Q231 -388 272 -410Q270 -414 263 -416Q250 -413 236 -410L232 -411Q234 -423 247 -423H249Q261 -433 275 -440Q280 -439 285 -439Q289 -439 293 -440Q298 -437 303 -435Q308 -437 319 -445Q329 -453 337 -455V-454Q333 -448 322 -440Q317 -433 317 -424Q317 -420 317 -417Q322 -418 330 -424Q340 -432 346 -433Q330 -420 330 -408Q330 -399 339 -395Q344 -398 350 -401H353L354 -400Q352 -396 349 -393L351 -390L353 -388Q356 -389 359 -390Q354 -385 354 -373Q355 -356 356 -340Q356 -333 354 -330H353Q349 -330 347 -334Q345 -337 344 -340Q332 -335 331 -322Q329 -309 323 -298Q322 -296 316 -292Q311 -288 309 -283Q311 -280 313 -277H318Q335 -278 341 -291Q347 -304 357 -315Q361 -308 360 -300Q360 -299 354 -272Q350 -268 343 -268Q327 -266 323 -245Q319 -224 321 -194Q328 -130 324 -92Q352 -111 361 -118Q370 -125 356 -147Q345 -164 342 -179Q346 -176 358 -160Q369 -146 376 -143Q379 -151 358 -183L380 -160L350 -217L391 -165Z"/>
</svg>