<svg xmlns="http://www.w3.org/2000/svg" viewBox="0 -800 1024 1024">
	<path fill="#000000" d="M674 -102Q674 -104 673 -107Q674 -112 674 -118Q674 -123 671 -125Q648 -120 622 -112Q595 -104 593 -80V-74Q601 -80 618 -83Q632 -85 638 -89Q644 -93 649 -98Q655 -104 663 -105Q668 -105 674 -102ZM676 -238Q676 -251 674 -257Q662 -237 649 -217Q636 -198 629 -174Q647 -184 664 -195L667 -196Q670 -195 673 -194L674 -196V-197Q675 -217 676 -238ZM618 54Q601 49 600 48V39Q618 39 618 54ZM170 -538Q161 -525 148 -524V-527Q148 -539 164 -539Q168 -539 170 -538ZM424 -546Q424 -522 412 -507Q411 -506 393 -493Q383 -483 373 -478Q365 -476 361 -476Q348 -476 322 -497Q302 -514 290 -517Q285 -517 277 -510Q272 -506 269 -506Q268 -508 268 -511Q271 -521 278 -529Q278 -532 275 -532Q272 -532 272 -535Q246 -531 241 -529Q229 -525 212 -512Q197 -500 189 -497Q190 -506 198 -514Q207 -521 216 -529Q247 -554 247 -562Q247 -566 241 -568Q239 -569 234 -569Q221 -569 200 -554Q184 -543 177 -543Q185 -559 205 -566Q224 -573 226 -592Q226 -595 225 -598Q213 -598 204 -601Q214 -609 223 -618Q221 -635 205 -650Q187 -667 183 -678Q198 -665 218 -665Q234 -665 245 -675V-679Q245 -685 244 -691L245 -695H247Q254 -693 259 -689Q276 -696 294 -699Q312 -702 321 -716Q327 -714 331 -704Q334 -697 337 -694Q345 -689 352 -685Q364 -672 374 -658Q376 -658 379 -663Q382 -668 387 -668L390 -667Q388 -661 388 -650Q394 -616 415 -597Q424 -568 424 -546ZM817 -395V-386H815Q808 -385 800 -384Q798 -384 794 -386V-389Q794 -395 803 -395ZM834 -738V-737Q830 -730 826 -723H814Q816 -738 829 -738ZM464 -51Q471 -58 474 -73H476Q481 -75 486 -77H488Q482 -59 482 -47Q482 -35 488 -28Q499 -42 505 -66Q510 -90 517 -111Q527 -135 527 -144Q527 -146 525 -156Q511 -154 504 -132Q497 -109 486 -107Q496 -148 536 -236Q541 -229 557 -229Q568 -229 573 -225Q598 -243 610 -266Q587 -261 556 -255Q525 -249 500 -237Q490 -230 481 -222Q473 -215 462 -214Q453 -214 444 -219Q435 -224 421 -236Q402 -252 401 -259L400 -263Q402 -271 404 -280Q396 -298 392 -315Q392 -319 393 -321Q400 -344 432 -353Q467 -364 496 -372Q495 -368 489 -365Q483 -362 482 -358Q491 -350 511 -350Q521 -350 537 -352Q581 -360 619 -369V-370Q619 -374 613 -374H607L603 -375Q596 -377 586 -384Q574 -393 564 -393V-395Q566 -398 567 -401Q547 -409 519 -410Q524 -419 536 -419Q549 -419 558 -422L560 -425Q558 -428 555 -431L557 -434Q586 -443 610 -459Q609 -461 609 -465Q610 -470 610 -476V-479H607Q597 -479 575 -464Q548 -446 532 -446H530Q514 -446 502 -459Q489 -473 489 -495V-497Q478 -503 478 -518Q479 -533 480 -549V-555Q478 -563 466 -580Q451 -599 450 -608Q460 -608 468 -598Q474 -591 478 -590L479 -593Q477 -598 474 -604L475 -607Q480 -604 485 -604Q502 -608 519 -618Q524 -616 533 -616Q544 -616 570 -627Q586 -634 597 -636Q592 -684 570 -699Q566 -711 566 -723Q566 -767 628 -791Q661 -804 672 -804Q682 -804 692 -801Q700 -792 703 -782Q703 -778 702 -776Q690 -783 684 -783Q676 -783 675 -771V-769Q675 -758 692 -735Q705 -717 705 -709V-708Q713 -711 713 -724Q713 -733 712 -742Q712 -750 714 -753Q726 -744 726 -727Q724 -709 722 -691Q723 -686 723 -682Q730 -689 741 -690Q752 -692 763 -695Q768 -697 778 -704Q791 -714 801 -714H805Q804 -710 798 -706Q791 -701 790 -695Q796 -693 797 -693Q803 -693 815 -701Q828 -710 837 -710Q829 -704 819 -696Q810 -688 809 -676Q810 -673 810 -671H812Q817 -671 823 -675Q827 -678 829 -678L831 -677Q828 -671 828 -665Q828 -650 843 -647Q842 -641 842 -627Q842 -608 847 -602Q823 -554 791 -554V-557Q791 -565 809 -572Q820 -576 820 -580V-581Q819 -587 799 -587H790Q739 -575 702 -545Q704 -539 705 -534Q714 -535 728 -541Q743 -548 751 -548Q757 -548 760 -547Q757 -536 748 -534Q738 -532 727 -530Q705 -525 698 -518Q696 -508 696 -502Q696 -495 699 -489Q719 -500 742 -507Q745 -499 751 -494H753Q765 -498 776 -502L779 -501Q767 -489 767 -479Q767 -475 770 -469Q776 -467 782 -465L752 -416Q709 -411 683 -390V-388Q682 -383 681 -379V-377H686Q715 -380 744 -384Q753 -384 757 -383Q750 -374 723 -371Q691 -367 683 -357Q694 -351 708 -351Q745 -355 790 -366Q843 -370 875 -381Q873 -391 858 -391Q848 -390 838 -390H834Q835 -402 847 -405Q854 -407 874 -407Q882 -410 885 -428Q888 -445 894 -449Q897 -429 903 -412H907Q924 -415 940 -419H942Q939 -409 936 -406Q936 -404 939 -401L941 -400Q947 -400 949 -402L951 -400Q950 -397 948 -395Q951 -392 961 -390Q955 -388 955 -381Q958 -370 960 -360Q956 -346 951 -332Q944 -323 942 -309V-306Q927 -302 907 -302Q874 -303 840 -305Q815 -305 800 -300Q804 -290 811 -290Q814 -290 816 -291Q810 -286 810 -275Q810 -262 816 -255Q788 -241 779 -183Q773 -185 773 -194Q774 -201 774 -209Q774 -216 770 -219H767Q763 -217 758 -213Q755 -143 751 -74Q751 1 772 39Q778 34 778 15Q775 -26 769 -65Q767 -83 767 -92Q767 -113 778 -122Q778 -41 790 16Q797 44 800 68V73Q793 106 767 129Q754 140 727 140Q716 140 709 136Q704 128 698 120Q683 110 668 99Q657 87 648 72Q640 57 622 51Q624 50 627 50Q641 54 653 62Q641 49 622 39Q603 29 584 19H587Q604 20 620 26Q635 32 650 37Q647 31 633 27Q617 22 615 13Q618 13 620 12Q625 12 639 18Q650 23 658 23Q662 23 668 21Q675 4 675 -13V-20Q665 -23 653 -23Q611 -23 573 5Q563 47 563 74Q553 81 543 87Q538 87 532 86Q524 87 516 87Q507 87 499 84Q494 81 488 71Q481 59 473 57Q457 26 457 -20Q449 -15 441 -10Q433 -4 427 -9Q430 -12 431 -12Q437 -16 443 -20Q445 -21 447 -23L446 -24Q439 -35 414 -18Q405 -9 408 -3Q411 1 417 -1Q422 -2 424 -1Q426 4 417 8Q412 11 407 14L401 18Q388 28 362 54Q356 58 352 56Q362 46 370 35Q380 20 392 8Q384 4 372 13Q357 40 337 48Q329 50 319 58Q306 68 306 77Q306 83 310 82Q319 80 332 71Q343 66 346 65Q337 77 319 86Q303 94 286 87Q257 78 233 73Q231 73 229 70Q227 66 225 66H223Q206 66 192 75V74Q192 67 216 58Q209 44 209 27Q211 -13 222 -24L229 -25Q223 -29 217 -33L218 -34Q225 -34 228 -33Q233 -38 238 -74Q244 -123 256 -125Q256 -52 272 -38Q270 -140 276 -215Q270 -216 266 -200Q262 -183 262 -177Q257 -157 248 -139Q247 -144 247 -165Q246 -196 243 -227Q241 -257 246 -281Q218 -273 198 -249Q171 -242 151 -204Q139 -201 132 -201Q128 -201 120 -203Q110 -211 98 -236Q89 -255 84 -262Q78 -270 72 -279L71 -283Q73 -289 74 -295V-297Q73 -310 72 -324Q72 -328 73 -331Q68 -340 59 -347Q50 -354 45 -360Q47 -362 51 -362Q63 -357 73 -348Q71 -362 49 -378Q31 -391 26 -401Q39 -400 57 -384Q71 -371 80 -369Q81 -377 67 -386Q54 -394 52 -402Q69 -396 85 -385Q91 -382 94 -382H95Q99 -384 102 -387Q106 -389 118 -389Q126 -388 134 -388Q141 -388 143 -389Q161 -391 183 -402Q205 -413 213 -414Q217 -412 221 -411Q214 -403 192 -395Q169 -388 157 -383Q145 -377 143 -367Q143 -360 150 -354Q194 -368 210 -373Q225 -378 266 -400Q264 -404 257 -406Q244 -403 230 -400L226 -401Q228 -413 241 -413H243Q255 -423 269 -430Q274 -429 279 -429Q283 -429 287 -430Q292 -427 297 -425Q302 -427 313 -435Q323 -443 331 -445V-444Q327 -438 316 -430Q311 -423 311 -414Q311 -410 311 -407Q316 -408 324 -414Q334 -422 340 -423Q324 -410 324 -398Q324 -389 333 -385Q338 -388 344 -391H347L348 -390Q346 -386 343 -383L345 -380L347 -378Q350 -379 353 -380Q348 -375 348 -363Q349 -346 350 -330Q350 -323 348 -320H347Q343 -320 341 -324Q339 -327 338 -330Q326 -325 325 -312Q323 -299 317 -288Q316 -286 310 -282Q305 -278 303 -273Q305 -270 307 -267H312Q329 -268 335 -281Q341 -294 351 -305Q355 -298 354 -290Q354 -289 348 -262Q343 -257 337 -259Q321 -258 316 -232Q312 -207 314 -171Q322 -92 318 -52Q334 -63 350 -75Q359 -82 345 -104Q334 -121 331 -136Q335 -133 347 -117Q358 -103 365 -100Q368 -108 347 -140L369 -117L339 -174L380 -122L372 -145Q382 -131 387 -126Q372 -146 368 -160Q373 -159 378 -154Q383 -146 386 -138Q393 -128 400 -118Q407 -108 416 -101Q436 -87 448 -74Q451 -71 453 -69Q458 -62 461 -55Q463 -53 464 -51Z"/>
</svg>