<svg xmlns="http://www.w3.org/2000/svg" viewBox="0 -800 1024 1024">
	<path fill="#000000" d="M291 -251Q291 -261 285 -266Q237 -244 214 -203L220 -185Q237 -194 250 -209Q262 -223 287 -225H289Q290 -238 291 -251ZM296 -417Q296 -435 292 -444Q253 -408 242 -338Q269 -352 291 -357Q294 -387 296 -417ZM598 -335H599Q595 -330 595 -324Q595 -322 597 -314Q564 -294 542 -286Q508 -273 475 -273H465Q456 -288 447 -290Q449 -292 449 -296L447 -297H445Q500 -334 587 -353Q586 -351 580 -348Q573 -345 572 -339Q575 -336 578 -336Q589 -339 599 -342Q593 -334 586 -331L588 -330Q593 -332 598 -335ZM939 -156V-152Q939 -137 929 -131Q926 -143 926 -146Q926 -156 936 -156ZM919 -207Q919 -192 907 -192Q905 -198 905 -203Q905 -217 913 -217L917 -216Q919 -210 919 -207ZM910 -769H913Q911 -758 898 -751Q900 -757 902 -763Q903 -769 910 -769ZM781 5Q763 16 758 25V26Q760 29 761 32Q768 30 775 28V29Q775 32 771 33Q767 35 767 37Q768 45 781 45H791Q802 45 805 49Q784 52 772 57Q771 59 771 62Q772 67 772 71Q767 76 762 89Q756 104 751 109L747 108Q743 108 738 115Q721 110 709 108Q696 106 688 92H690Q696 92 708 98Q723 105 729 105Q737 105 742 96Q695 67 669 67H667V69Q667 73 672 77Q677 80 677 84H674Q659 81 636 62Q628 57 617 50Q606 44 604 35V33Q605 26 611 22Q617 17 622 11Q619 6 616 0Q606 -22 606 -47Q609 -81 612 -115Q612 -148 621 -177Q588 -174 562 -164Q532 -152 520 -133Q524 -114 520 -74L518 -59Q516 -44 514 -29Q505 -15 494 -14Q488 -12 479 -21Q481 -35 481 -40Q481 -81 455 -111Q449 -106 449 -101Q451 -91 452 -82Q452 -79 451 -77Q441 -83 428 -101Q418 -115 411 -121Q413 -139 422 -157Q431 -177 443 -185Q425 -189 418 -193Q407 -200 402 -215Q406 -225 414 -225Q413 -228 413 -233Q413 -250 436 -262Q434 -258 432 -255V-252Q436 -247 448 -247H458Q492 -247 533 -263Q545 -268 599 -294Q602 -292 602 -289Q614 -299 633 -301Q626 -297 621 -292Q623 -290 625 -290Q632 -292 639 -295Q637 -288 635 -281Q638 -273 641 -266Q608 -241 564 -227Q519 -213 477 -197H473Q465 -197 458 -190Q466 -192 472 -192Q479 -192 481 -191Q488 -186 495 -184Q496 -184 506 -189Q521 -191 536 -194Q548 -198 562 -205Q626 -223 689 -242Q681 -263 676 -280Q647 -385 644 -399Q605 -396 560 -373Q503 -343 485 -338H484Q482 -340 480 -342Q475 -340 470 -338Q456 -341 442 -348Q438 -354 433 -361Q427 -363 421 -366Q407 -376 407 -411Q407 -462 426 -479Q451 -500 482 -505Q478 -500 472 -497Q467 -493 464 -486Q469 -483 473 -483Q479 -483 488 -487Q502 -493 508 -493Q513 -493 516 -492Q514 -485 504 -480Q492 -475 491 -468H495Q525 -472 556 -486Q608 -502 620 -510Q616 -511 607 -511Q594 -511 568 -502Q546 -494 535 -493Q548 -513 574 -519Q600 -525 624 -533Q622 -562 617 -590Q612 -619 584 -621H578Q578 -624 584 -626Q589 -628 589 -632V-633Q587 -634 583 -634Q576 -634 563 -626Q551 -619 545 -619H544Q549 -627 562 -638Q577 -650 581 -658Q580 -667 575 -674Q594 -698 614 -721Q633 -744 671 -746H676Q680 -740 693 -728Q710 -713 712 -703Q700 -707 688 -712Q684 -712 679 -706Q708 -669 715 -637Q722 -643 722 -651Q718 -667 714 -684Q714 -688 715 -690Q724 -687 730 -676Q736 -664 736 -654Q737 -642 727 -617Q718 -593 718 -581Q718 -569 724 -559Q743 -566 762 -573Q780 -584 799 -591H803Q816 -589 828 -588Q833 -588 836 -589Q803 -610 790 -625Q767 -650 767 -683Q767 -695 768 -702Q788 -726 790 -740Q799 -734 808 -734Q814 -734 821 -738Q819 -748 817 -759Q817 -764 818 -766Q823 -753 848 -743Q868 -735 874 -727Q885 -739 894 -744Q891 -732 888 -720Q895 -714 901 -708Q911 -714 919 -722Q927 -731 941 -734Q934 -726 926 -716Q918 -706 917 -695Q917 -688 920 -684Q934 -688 946 -688H953Q950 -685 942 -683Q935 -682 932 -677Q927 -669 927 -659Q927 -649 936 -622Q940 -619 946 -618Q952 -616 953 -609Q951 -610 948 -612H947Q934 -603 922 -592Q909 -581 908 -563Q908 -560 910 -552Q904 -553 903 -557Q901 -562 898 -565Q875 -573 852 -577L851 -573Q853 -566 858 -561Q863 -563 868 -565L870 -564Q864 -550 864 -536Q864 -516 873 -501Q866 -497 866 -484Q866 -477 868 -474Q862 -471 860 -464V-461H855Q845 -461 845 -453V-452Q769 -441 732 -421Q757 -187 871 -60Q877 -65 880 -84Q883 -103 888 -108Q891 -101 891 -87V-81Q891 -69 892 -63Q898 -78 900 -119Q902 -162 909 -177Q913 -164 913 -142Q911 -101 908 -60Q908 -43 911 -30Q915 -42 918 -71Q922 -109 929 -122Q932 -110 932 -97Q932 -80 931 -63Q931 -43 935 -35Q934 -30 932 -25L944 15Q953 36 956 54Q956 64 947 81Q940 94 939 102Q926 107 915 107Q912 107 867 99Q843 95 831 86Q817 75 817 55V48Q821 49 826 59Q832 70 841 70H842Q833 28 803 10V13Q806 25 812 39H800Q791 22 781 5ZM778 0L777 -2Q765 -25 752 -51Q739 -78 735 -107Q748 -93 766 -54Q784 -14 799 1V-1Q798 -33 788 -46Q777 -59 764 -81Q759 -94 740 -117Q721 -140 717 -156Q697 -145 685 -108Q676 -79 674 -43Q674 -34 673 -25Q673 -18 676 -14V-13Q675 -11 673 -10Q676 -9 681 -9Q694 -11 707 -14Q709 -31 718 -43L719 -40Q718 -31 716 -22Q716 -18 717 -16Q718 -11 728 -4Q732 -8 742 -11H745Q741 -5 741 2Q741 10 748 11Q762 6 778 0ZM407 1Q412 16 412 27Q412 48 391 74Q373 97 353 107Q345 94 319 78Q291 61 283 47V45Q286 38 289 31Q281 10 254 10Q265 6 278 4Q263 -8 232 -9Q245 -14 266 -13Q248 -19 206 -25Q214 -25 221 -26Q234 -25 247 -25Q274 -25 286 -30Q293 -46 293 -81Q293 -106 292 -131V-140Q263 -132 220 -101H217Q213 -101 208 -104Q200 -96 196 -67Q195 -56 192 -21Q192 -11 184 7Q177 25 176 39Q174 38 169 38Q157 40 144 42Q137 42 132 36Q130 36 126 41Q122 46 118 46L116 45Q114 38 105 25Q95 10 93 -2Q74 -15 60 -30Q47 -47 45 -67Q42 -87 38 -110Q37 -114 31 -128Q25 -142 24 -153H25Q32 -149 41 -140Q53 -161 61 -185Q65 -196 70 -207Q75 -219 84 -225Q85 -222 85 -217Q85 -210 81 -197Q76 -181 76 -172V-166Q108 -225 122 -261Q144 -319 144 -376V-387Q126 -370 113 -314Q99 -256 85 -238Q82 -244 82 -249Q85 -265 93 -276Q96 -291 97 -306Q99 -321 107 -330V-332Q106 -336 105 -340V-342Q105 -351 115 -355V-360Q115 -386 132 -461Q125 -487 120 -513Q120 -523 125 -528Q126 -508 137 -496L139 -499Q137 -504 135 -509V-511Q140 -509 146 -503Q152 -497 155 -495Q163 -497 168 -497Q188 -497 202 -483Q221 -519 239 -556Q256 -593 282 -624Q280 -630 280 -640Q280 -661 299 -674Q316 -685 340 -685Q359 -685 377 -677Q383 -680 389 -683Q390 -683 394 -681Q388 -675 388 -668Q388 -661 391 -657Q396 -659 401 -667Q407 -674 417 -675H418Q403 -667 402 -646Q402 -638 406 -633Q410 -639 414 -643L415 -642Q414 -629 412 -617V-614Q418 -600 422 -584Q422 -582 420 -576Q414 -566 406 -559Q387 -527 383 -481Q379 -435 370 -392H369Q365 -392 362 -405Q361 -410 361 -420Q362 -445 363 -470Q363 -482 362 -487Q349 -478 346 -455Q340 -407 340 -339Q340 -288 343 -246Q345 -223 355 -213Q360 -228 360 -256Q359 -291 358 -326Q358 -341 359 -348Q361 -365 371 -366Q374 -200 374 -198Q378 -154 381 -110Q381 -96 380 -90Q368 -104 366 -129Q364 -155 359 -177Q349 -172 349 -153V-141Q352 -71 375 -24Q383 -27 383 -35Q381 -48 378 -62Q378 -65 380 -69Q391 -63 394 -50Q396 -37 399 -24Q401 -19 402 -15Q404 -14 406 -13Q431 2 465 5Q499 8 509 -2Q539 -30 541 -56Q543 -63 544 -64V-71Q544 -73 538 -73Q541 -78 541 -80L540 -82L539 -85L536 -83Q534 -80 526 -77V-82Q526 -89 533 -100Q534 -101 536 -105Q536 -106 539 -116Q540 -120 544 -128Q555 -144 573 -142Q591 -140 599 -126Q600 -121 601 -116Q601 -113 607 -102L598 -103Q595 -105 591 -107Q589 -109 587 -110H586V-109Q586 -106 588 -104Q590 -101 591 -99Q593 -97 593 -93V-91Q593 -78 588 -68Q584 -58 584 -54Q576 5 522 84Q501 104 473 109H472Q469 108 457 99Q452 92 445 90Q443 88 426 102Q437 86 437 79Q438 74 437 74L434 72Q417 64 413 61Q425 60 433 61Q433 58 432 54Q432 49 433 45Q433 44 436 35Q434 23 407 1Z"/>
</svg>