<svg xmlns="http://www.w3.org/2000/svg" viewBox="0 -800 1024 1024">
	<path fill="#000000" d="M943 -104V-107Q943 -119 954 -119Q959 -119 962 -116Q955 -108 943 -104ZM778 -618Q778 -599 760 -599Q762 -604 765 -611Q768 -618 774 -619ZM517 -533H514Q511 -535 507 -537V-539Q510 -554 518 -561Q522 -557 522 -553Q520 -543 517 -533ZM676 -339L673 -360Q659 -359 628 -343V-338Q628 -329 632 -326Q636 -333 655 -334Q671 -335 676 -339ZM665 -272H662Q651 -277 645 -289Q639 -300 631 -309Q625 -292 625 -269V-260H633Q668 -260 681 -269Q678 -273 674 -273Q670 -272 665 -272ZM668 -192H678Q683 -195 683 -205Q683 -213 679 -216Q676 -217 671 -217Q655 -214 641 -201Q623 -210 620 -219Q617 -204 617 -202Q617 -193 622 -186Q650 -192 668 -192ZM674 -468Q673 -477 665 -482Q662 -484 649 -489Q649 -521 636 -524Q610 -502 599 -461Q588 -458 584 -444Q600 -446 623 -455Q655 -467 674 -468ZM782 45V50Q778 53 756 57Q738 60 738 73Q734 70 731 62Q716 57 704 26Q696 5 688 -3Q685 -12 685 -18Q685 -28 693 -42Q702 -58 702 -69V-71Q715 -68 729 -65Q743 -62 752 -56Q755 -45 769 -28Q788 -5 788 13V16Q785 31 782 45ZM666 30V34Q667 43 667 51Q667 55 666 57Q665 63 655 73Q646 82 646 89L647 93L646 95Q641 90 635 85Q633 86 630 86Q624 86 620 82Q616 78 610 75Q606 74 601 73Q581 56 571 38Q567 26 567 3Q567 -9 568 -13Q573 -32 595 -37Q601 -48 609 -48Q625 -43 639 -31Q644 -33 648 -36Q650 -28 658 -15Q669 1 670 9Q668 20 666 30ZM949 66V69Q948 72 944 78Q939 85 939 90L940 94Q926 95 921 106Q913 106 899 110Q882 106 870 95Q859 84 845 75Q842 67 839 59Q839 58 841 54Q853 56 866 73Q879 91 890 91L891 87Q890 78 882 70Q874 61 866 50Q861 40 855 26Q848 12 837 11Q836 11 830 13Q831 23 832 32V36Q824 33 821 24Q819 15 816 6Q792 -13 792 -60V-68Q805 -88 830 -90Q846 -90 854 -78Q860 -81 865 -87Q869 -92 878 -93V-91Q876 -84 873 -78Q874 -71 884 -65Q906 -84 930 -100H931L933 -97Q924 -88 913 -76Q902 -64 901 -51Q901 -42 910 -33Q920 -34 929 -36H933Q927 -28 927 -22Q927 -17 930 -13Q951 -16 971 -19Q943 -12 941 11Q941 22 949 30H955Q962 30 964 33Q962 37 956 39Q952 40 950 44Q948 48 948 52Q949 59 949 66ZM443 -420Q452 -427 470 -464Q479 -490 497 -507Q495 -495 486 -475Q474 -448 474 -431V-427Q507 -462 550 -561Q567 -597 567 -609Q567 -620 560 -628Q545 -626 540 -606Q533 -578 529 -575Q527 -583 527 -587Q531 -611 535 -636Q535 -646 529 -667Q523 -688 523 -700V-705Q564 -733 584 -759Q605 -773 628 -776Q636 -776 640 -774Q669 -760 694 -734Q717 -710 736 -650Q727 -634 721 -616Q717 -609 701 -600Q681 -588 679 -576Q681 -574 695 -572Q711 -570 717 -567Q722 -570 731 -579Q742 -591 751 -594Q747 -587 741 -578Q734 -568 733 -556Q733 -547 738 -540Q741 -543 743 -548Q744 -553 750 -553L754 -552Q744 -540 744 -519Q744 -511 748 -501Q764 -507 789 -512Q814 -517 826 -527L827 -525Q826 -520 824 -516L826 -513Q835 -517 842 -523Q849 -529 860 -531V-530Q860 -528 855 -520Q849 -511 849 -504Q849 -502 851 -496L854 -495Q857 -495 860 -500Q864 -506 869 -506H872L873 -503Q873 -501 870 -498Q865 -493 865 -490V-489Q866 -484 874 -481Q879 -479 881 -477V-474Q884 -462 887 -450Q877 -435 873 -414Q868 -414 863 -415Q844 -413 824 -411H819V-413Q819 -420 836 -422Q850 -424 853 -427Q846 -439 823 -439Q803 -439 779 -429Q755 -419 750 -408Q753 -404 756 -401Q770 -406 783 -411Q788 -411 791 -405Q781 -400 771 -393Q762 -387 761 -373V-369H766Q788 -369 816 -384Q808 -371 805 -361Q807 -358 809 -358Q815 -359 820 -360H821Q815 -351 815 -338Q815 -329 816 -324Q806 -317 798 -308Q783 -306 768 -302Q753 -299 752 -285Q752 -281 753 -279Q767 -287 789 -291H791Q802 -288 812 -285Q816 -285 820 -288Q826 -262 826 -257Q826 -246 824 -239Q803 -235 781 -231Q760 -228 746 -217Q748 -204 755 -201Q774 -207 798 -207Q823 -208 829 -226Q838 -222 847 -219H849Q865 -222 878 -232Q878 -191 896 -188Q900 -179 900 -168Q896 -140 885 -117Q883 -118 879 -118Q868 -116 859 -111Q855 -115 845 -115Q838 -115 838 -110Q835 -111 831 -111Q822 -111 820 -102H813Q796 -102 779 -103Q769 -103 764 -102Q766 -112 779 -113Q791 -114 794 -119Q788 -130 763 -130Q748 -130 740 -129Q649 -124 626 -114Q613 -108 613 -96Q613 -92 614 -90Q627 -90 657 -97Q685 -103 700 -103Q711 -103 721 -100Q692 -92 659 -87Q626 -83 602 -69V-65Q602 -59 598 -45Q576 -36 569 -36Q559 -36 547 -45Q515 -65 509 -122Q507 -133 505 -145V-148Q505 -156 514 -172Q521 -185 523 -191Q534 -224 534 -332Q521 -315 493 -279Q465 -244 447 -232Q437 -234 409 -249Q401 -274 362 -285Q365 -293 367 -302Q366 -302 374 -312Q438 -399 435 -399Q443 -411 443 -420ZM197 -541H195V-543Q195 -560 213 -560Q214 -558 214 -555Q214 -549 203 -538Q200 -539 197 -541ZM422 -561V-545Q416 -537 409 -529Q395 -523 381 -518Q377 -518 372 -524Q374 -528 384 -532Q397 -538 397 -544V-547Q396 -553 390 -553Q381 -551 372 -550Q356 -550 332 -560Q314 -568 307 -568Q307 -565 306 -563Q306 -554 321 -547Q336 -540 337 -532Q332 -532 330 -529Q314 -536 272 -565Q266 -563 259 -561L256 -562Q253 -563 253 -565Q254 -568 255 -572L254 -574Q252 -575 247 -575Q237 -574 232 -568Q227 -561 222 -558Q221 -561 221 -565Q225 -580 236 -589Q236 -591 230 -605H206Q207 -614 219 -618Q216 -625 216 -631Q216 -637 219 -646Q207 -655 188 -657Q168 -659 151 -662Q155 -671 168 -671Q185 -669 202 -667H206Q237 -670 237 -696Q237 -708 228 -722H231Q237 -722 243 -715Q247 -711 251 -709Q266 -714 278 -722V-772H283Q287 -762 290 -753Q293 -743 301 -740Q304 -739 306 -739Q313 -739 324 -747Q335 -755 342 -756Q341 -749 337 -739Q374 -700 392 -672Q417 -632 428 -586Q422 -580 422 -561ZM505 -120Q505 -122 508 -118L510 -116Q501 -97 500 -92Q494 -91 485 -84Q471 -73 466 -78Q468 -80 470 -82Q476 -86 482 -90Q484 -91 485 -93V-94Q469 -102 446 -86Q435 -78 441 -72Q444 -69 449 -70Q454 -71 457 -70Q458 -63 450 -60Q446 -58 444 -56Q446 -52 447 -51Q451 -52 459 -52Q482 -51 493 -38Q504 -26 518 -16Q522 -17 528 -23Q534 -29 540 -30Q540 -20 537 -13Q553 17 553 61Q553 99 541 119Q505 112 490 106Q465 96 454 76H452Q446 79 439 81H437Q437 74 441 66Q432 56 422 50Q413 54 400 57H398Q399 53 408 48Q415 44 417 39V30Q415 6 413 -18Q416 -21 420 -21H423Q427 -37 433 -48Q422 -39 411 -26Q399 -11 386 -2L383 -5Q396 -16 405 -32Q414 -47 425 -59Q416 -63 405 -54Q380 -25 361 -16Q345 -8 340 14Q341 19 351 22Q358 24 367 24H369Q377 23 384 22Q389 22 392 26Q371 33 349 33H344Q332 33 311 25Q285 19 258 13Q256 13 254 10Q253 7 250 7H248Q235 7 217 16V15Q217 10 240 -2Q234 -13 232 -32Q232 -60 253 -83L260 -84Q261 -84 261 -85Q253 -88 248 -92V-94Q254 -93 259 -93Q265 -98 268 -134Q272 -184 284 -186Q286 -112 303 -99Q296 -207 300 -286Q294 -287 291 -270Q288 -254 287 -248Q285 -232 275 -209Q273 -216 273 -235Q270 -266 267 -297Q263 -327 268 -351Q242 -342 221 -318Q191 -308 176 -271Q160 -267 156 -267Q151 -267 145 -268Q132 -279 125 -296Q117 -312 107 -327Q101 -335 94 -343L93 -347Q95 -353 96 -359V-361Q94 -374 92 -388Q92 -392 93 -395Q89 -402 75 -413Q66 -420 64 -423Q66 -425 70 -425Q75 -426 84 -418Q90 -413 93 -412Q88 -429 71 -439Q54 -448 44 -463Q56 -464 75 -447Q89 -435 99 -433Q99 -441 85 -450Q72 -458 70 -465Q87 -459 103 -449Q107 -447 112 -447H113Q117 -449 120 -452Q126 -455 136 -455Q144 -454 152 -454Q158 -454 161 -455Q175 -456 209 -473Q227 -482 230 -482Q233 -483 238 -480Q231 -472 209 -463Q187 -455 175 -450Q162 -443 162 -433Q162 -426 169 -420Q212 -436 228 -442Q244 -448 283 -471Q281 -476 274 -476Q261 -473 247 -470H244Q244 -476 248 -479Q253 -483 258 -483H260Q272 -493 285 -501H296Q300 -501 303 -502H304Q309 -499 313 -497H314Q330 -507 346 -518Q346 -514 341 -510Q337 -507 332 -503Q327 -496 327 -486Q327 -482 328 -480Q333 -481 341 -487Q351 -495 357 -496Q342 -483 342 -471Q342 -462 351 -458Q353 -458 355 -461Q358 -465 362 -465H365V-464Q363 -460 361 -457L363 -454L365 -452Q368 -453 371 -454Q366 -447 366 -437Q368 -420 370 -404Q370 -397 368 -394H367Q363 -394 358 -404Q346 -398 345 -385Q344 -372 338 -361Q331 -354 325 -346Q327 -343 329 -340H334Q351 -341 357 -355Q363 -369 372 -379Q376 -372 376 -365Q376 -363 370 -336Q366 -332 359 -332Q343 -330 340 -303Q337 -276 341 -238Q351 -155 349 -115Q366 -125 380 -141Q386 -146 382 -156Q381 -158 374 -171Q364 -186 359 -202Q367 -195 375 -183Q384 -172 394 -167Q396 -175 374 -206L397 -184L365 -240L408 -190L400 -212Q408 -203 415 -194Q398 -216 395 -227Q400 -226 405 -221Q410 -213 414 -206Q422 -195 429 -186Q438 -174 445 -169Q464 -160 485 -145Q488 -142 490 -140Q498 -127 499 -126Q502 -121 505 -120Z"/>
</svg>