<svg xmlns="http://www.w3.org/2000/svg" viewBox="0 -800 1024 1024">
	<path fill="#000000" d="M807 -263Q808 -266 808 -269Q808 -275 804 -276Q804 -267 807 -263ZM47 -659H49Q50 -651 50 -643Q50 -638 49 -636Q39 -636 39 -651Q39 -657 40 -660H42Q45 -659 47 -659ZM420 -318Q418 -324 418 -330Q418 -345 428 -345Q430 -341 430 -338Q430 -326 420 -318ZM977 -212Q965 -196 964 -189Q960 -193 960 -202Q960 -217 968 -217Q972 -217 977 -212ZM576 -363Q569 -380 558 -395Q546 -378 540 -353Q543 -352 545 -352Q564 -355 576 -363ZM586 -236H588Q584 -225 584 -216Q584 -208 588 -197Q601 -203 613 -209Q615 -242 616 -275Q599 -273 589 -262Q582 -254 573 -237Q576 -237 576 -234Q577 -231 579 -230Q580 -234 586 -236ZM750 -544V-558Q735 -557 735 -544Q737 -531 739 -519Q740 -514 740 -506Q740 -489 734 -478Q731 -472 719 -458Q715 -461 715 -466Q715 -471 719 -481Q724 -494 724 -501Q724 -503 722 -509Q693 -465 693 -427Q693 -418 694 -414Q700 -432 709 -444Q710 -441 710 -436Q708 -423 706 -410L707 -409Q710 -411 713 -413L716 -411Q716 -393 724 -386Q730 -424 740 -464Q749 -503 750 -544ZM651 -468H650Q647 -467 644 -467L642 -468Q651 -486 651 -504Q651 -512 650 -516Q648 -517 645 -518Q627 -510 614 -501Q602 -489 602 -470Q602 -451 620 -408Q623 -412 624 -417Q625 -422 630 -423Q631 -422 631 -418Q629 -404 626 -391Q626 -382 635 -381Q639 -403 645 -423Q650 -443 651 -468ZM294 -408Q306 -467 318 -527Q293 -524 268 -495Q243 -466 240 -438Q240 -432 239 -427Q239 -405 249 -387Q259 -394 294 -408ZM666 -230V-233Q666 -238 670 -239Q674 -241 675 -246V-254Q675 -286 687 -296Q701 -293 714 -291Q716 -266 722 -261Q720 -249 720 -242Q720 -235 722 -223L723 -222Q727 -224 730 -226L731 -225Q730 -196 736 -176Q754 -219 754 -269Q754 -286 753 -294Q754 -292 762 -284Q764 -300 783 -300Q791 -300 795 -296Q795 -280 799 -275Q796 -287 796 -298Q796 -318 807 -353Q778 -335 764 -302Q736 -323 728 -353Q720 -326 709 -309Q699 -311 693 -311Q668 -311 662 -297Q664 -289 664 -274V-248Q664 -235 666 -230ZM371 -123H372Q379 -126 385 -129Q382 -125 378 -110Q378 -101 391 -101Q381 -77 379 -48Q345 -35 315 -20Q285 -6 247 3Q257 -11 275 -18Q293 -25 312 -35Q322 -41 332 -48Q332 -54 323 -54Q314 -54 284 -44Q227 -25 212 -18Q174 0 160 25Q163 30 168 30Q180 27 192 24Q199 24 201 30Q185 36 163 47Q141 57 139 85V86Q126 90 113 93H111Q99 92 81 73Q60 51 60 31Q60 19 69 10Q65 2 65 -8Q65 -24 78 -43Q82 -49 101 -72Q98 -66 98 -56Q98 -50 100 -42Q130 -47 158 -59Q149 -95 145 -103Q135 -126 118 -134Q115 -147 111 -161V-163Q113 -173 115 -183V-185Q115 -190 108 -197Q102 -203 102 -208V-209Q117 -209 123 -207Q122 -209 122 -213Q122 -231 172 -231Q182 -230 192 -230Q226 -192 226 -113Q226 -94 225 -84Q234 -88 250 -93Q246 -146 241 -200Q241 -209 243 -225Q233 -258 222 -288Q214 -278 210 -264Q207 -265 201 -265Q194 -265 180 -257Q162 -269 159 -271Q147 -281 143 -293H141Q136 -292 130 -291Q133 -300 133 -306Q133 -320 118 -342Q104 -363 103 -375L107 -376Q114 -376 120 -368Q123 -365 129 -353Q145 -327 151 -324Q154 -330 154 -338Q154 -350 137 -386Q118 -421 116 -424Q102 -443 81 -446Q76 -439 76 -434Q76 -428 84 -417Q93 -404 93 -395V-393L91 -392Q86 -394 83 -401Q71 -411 56 -425Q41 -439 37 -456Q36 -462 36 -473Q37 -496 38 -520Q38 -530 37 -536Q43 -545 59 -581Q51 -598 48 -619Q48 -624 49 -626Q56 -616 61 -603Q66 -591 77 -584Q82 -586 86 -588Q86 -604 78 -627Q70 -650 70 -661Q70 -668 71 -672Q80 -635 100 -608Q109 -612 109 -621Q109 -626 103 -639Q97 -652 97 -658V-660Q107 -646 120 -634Q127 -628 139 -621Q154 -613 161 -603Q167 -596 172 -590Q189 -598 210 -614Q303 -676 348 -714Q351 -713 356 -713Q364 -713 376 -719V-716Q376 -711 380 -710Q383 -709 386 -707Q401 -729 416 -737Q406 -722 406 -705Q406 -695 410 -690Q416 -700 417 -701Q422 -707 428 -708Q419 -694 419 -684Q419 -673 435 -655Q454 -634 456 -615Q460 -583 463 -570Q440 -559 437 -536Q391 -487 376 -393Q373 -365 371 -338Q369 -312 354 -293Q336 -296 318 -299V-295Q318 -279 317 -264Q317 -250 321 -243Q333 -248 357 -260Q361 -254 365 -254Q368 -254 370 -255Q369 -252 369 -246Q369 -225 383 -219Q380 -213 379 -193Q378 -171 373 -164Q344 -156 335 -152Q314 -142 314 -128Q314 -123 317 -117Q327 -119 342 -128Q361 -139 374 -140Q372 -133 370 -127ZM977 5V7Q971 19 965 31Q960 50 955 68Q950 86 939 96Q933 101 926 104Q919 107 916 116Q905 101 862 27Q868 25 870 25Q880 25 893 42Q902 54 909 57Q907 37 894 16Q891 11 868 -20Q857 -37 845 -54Q833 -72 814 -81Q814 -66 834 -45Q855 -22 855 -6Q855 0 854 4Q820 -43 785 -90Q767 -50 758 -2Q750 48 714 72Q688 36 688 -3Q690 -13 691 -24Q691 -39 684 -48Q677 -58 669 -68Q678 -63 690 -60Q699 -77 708 -95Q689 -101 682 -129Q679 -130 674 -130Q662 -130 658 -122Q653 -114 652 -103Q652 -79 644 -63Q640 -66 640 -74V-77Q640 -85 638 -87Q619 -40 619 15Q620 23 620 31Q627 23 630 -6Q634 -42 648 -48Q641 44 625 93Q604 93 595 98Q587 82 579 66Q574 59 561 50Q547 41 543 33H544Q558 35 571 37H576Q576 26 558 22Q552 16 521 -1Q497 -14 491 -32Q506 -24 522 -15Q538 -5 557 -4Q561 -4 571 -6Q581 -19 584 -38Q588 -58 591 -77Q572 -62 561 -27H558Q539 -27 523 -47Q523 -58 517 -84Q512 -107 512 -122V-125Q513 -144 527 -172Q538 -193 540 -203Q539 -207 531 -213Q523 -219 521 -227V-229Q522 -235 523 -241V-243Q519 -258 514 -273V-275Q506 -254 499 -201Q492 -149 484 -128Q476 -129 476 -138Q476 -141 479 -156Q483 -180 488 -203Q493 -227 494 -252Q481 -208 468 -164Q455 -118 450 -74Q457 -78 463 -89Q469 -100 475 -110V-107Q475 -94 460 -42Q449 -3 438 6Q430 2 422 -3Q418 0 416 4L415 1Q417 -4 419 -9Q391 -49 391 -133Q391 -224 416 -297Q417 -293 417 -285Q416 -267 414 -249V-245Q430 -319 440 -341Q440 -330 434 -302Q428 -274 428 -259Q429 -253 429 -248Q462 -316 511 -452Q504 -457 496 -459Q490 -474 483 -485Q477 -497 475 -518Q470 -536 465 -555Q465 -560 464 -566Q470 -628 506 -663Q518 -677 528 -677H529Q522 -667 517 -648H521Q532 -648 556 -658Q580 -668 592 -668Q602 -668 611 -662Q574 -653 543 -630Q544 -626 549 -624Q552 -623 553 -621Q674 -661 785 -708Q781 -714 772 -714Q768 -714 747 -707Q720 -696 693 -685Q667 -675 638 -672Q645 -684 658 -689Q671 -693 684 -697Q699 -702 748 -722Q801 -743 833 -753V-755Q833 -758 832 -761H835L836 -758Q870 -784 903 -801Q899 -785 899 -774Q899 -761 903 -753Q910 -755 920 -763Q932 -773 942 -774Q932 -760 922 -748Q911 -736 909 -717Q917 -727 930 -731Q930 -726 924 -714Q917 -700 917 -693Q917 -686 924 -680L923 -678L919 -679L918 -678V-677Q911 -663 909 -641Q907 -624 901 -611Q893 -595 857 -590Q834 -587 826 -581Q819 -576 819 -566Q820 -555 820 -545V-540Q813 -525 809 -508Q809 -504 810 -501Q822 -505 850 -530Q851 -528 851 -525Q851 -517 838 -507Q827 -498 827 -492Q827 -489 829 -485Q858 -512 887 -540H885Q873 -535 861 -531H859Q859 -533 858 -536Q861 -552 869 -569Q871 -568 876 -568Q884 -569 892 -571Q896 -571 898 -570Q901 -562 913 -540Q928 -553 937 -572Q934 -561 927 -548Q921 -535 920 -519Q920 -516 922 -506Q927 -507 929 -513Q932 -521 937 -521Q934 -507 934 -492Q936 -459 937 -426Q937 -393 924 -375L922 -374Q918 -377 913 -381Q881 -350 865 -323Q844 -289 838 -245Q834 -245 834 -251Q835 -253 835 -256Q835 -259 833 -261L830 -260Q822 -262 814 -264Q810 -264 808 -263Q812 -196 853 -159Q886 -129 916 -99Q923 -120 923 -171Q924 -228 931 -248Q932 -233 932 -204V-175Q932 -136 936 -107Q939 -219 945 -332Q949 -296 949 -247Q949 -202 948 -157Q948 -110 950 -87Q956 -128 961 -170Q966 -113 967 -51Q972 -23 977 5Z"/>
</svg>