<svg xmlns="http://www.w3.org/2000/svg" viewBox="0 -800 1024 1024">
	<path fill="#000000" d="M907 -742H910Q906 -729 893 -721Q893 -742 907 -742ZM77 -379H79Q77 -358 70 -353Q69 -362 68 -372Q68 -378 70 -381Q74 -380 77 -379ZM548 -106V-108Q495 -98 458 -73Q466 -61 473 -49Q489 -54 505 -59Q521 -64 531 -76Q536 -85 540 -94Q548 -105 548 -106ZM520 -415H516Q491 -407 484 -393Q463 -360 458 -305Q481 -310 498 -319Q508 -368 520 -415ZM706 -172H708Q694 -158 690 -132Q691 -131 695 -129Q698 -127 698 -124Q698 -120 697 -117Q699 -103 701 -89Q701 -86 699 -80Q709 -74 723 -56Q738 -37 746 -33Q733 -49 725 -71Q741 -56 760 -45Q776 -142 781 -243Q773 -238 722 -214Q711 -220 704 -245Q698 -265 692 -271Q693 -265 693 -252Q693 -243 692 -238Q687 -237 681 -233Q674 -228 671 -227H668Q652 -229 636 -232Q597 -231 562 -218Q527 -206 493 -198Q503 -212 519 -217Q534 -222 550 -226Q578 -234 612 -249Q577 -249 501 -229Q468 -222 434 -211Q399 -200 387 -169Q401 -170 425 -181Q451 -193 466 -193Q473 -193 477 -192Q460 -178 434 -171Q417 -162 416 -161Q407 -155 407 -147Q407 -142 409 -139Q513 -163 573 -189Q616 -209 627 -209Q635 -205 642 -202Q645 -202 647 -204Q658 -184 665 -164H667Q674 -166 681 -169Q681 -165 680 -161Q680 -158 683 -157Q687 -159 692 -164Q699 -172 706 -172ZM735 -424H732Q720 -424 709 -435Q698 -446 698 -461V-463Q671 -473 670 -508Q670 -523 678 -537Q669 -553 669 -576Q669 -588 671 -594Q677 -607 689 -618Q701 -629 708 -637Q712 -630 716 -623Q750 -632 803 -655V-653Q802 -643 793 -637Q783 -632 775 -628Q748 -611 739 -604Q743 -596 752 -596Q762 -597 774 -604Q786 -611 797 -616Q826 -628 837 -635Q858 -648 865 -664Q863 -665 859 -665Q853 -665 843 -660Q833 -655 825 -655H821Q831 -674 851 -683Q873 -692 884 -712Q889 -712 890 -715Q892 -709 893 -700Q893 -691 901 -686Q914 -690 925 -696Q935 -703 951 -704Q943 -698 933 -692Q923 -686 922 -675Q922 -670 923 -667L925 -666Q929 -669 933 -673V-672Q931 -660 928 -648Q928 -646 930 -640L932 -638Q935 -639 938 -641H939Q936 -633 936 -626Q936 -624 944 -589Q933 -577 933 -561Q933 -545 930 -525Q923 -520 920 -511Q888 -505 883 -494Q832 -491 766 -445Q749 -430 735 -424ZM141 -412H140Q136 -410 132 -408H131V-413Q131 -424 124 -429Q122 -430 109 -437H107Q100 -433 98 -430L97 -431L98 -435Q98 -440 92 -446Q87 -451 86 -454Q66 -448 63 -448Q66 -465 79 -471Q75 -478 68 -478Q48 -474 39 -459Q46 -479 63 -497Q95 -536 141 -580Q146 -588 156 -591L159 -590Q154 -569 136 -557Q115 -544 109 -515Q126 -532 166 -562Q226 -607 248 -635Q244 -651 240 -655Q221 -643 206 -624Q191 -605 166 -603H165Q179 -623 198 -639Q216 -655 224 -682V-683Q221 -689 217 -693L218 -694Q228 -692 234 -692Q260 -696 286 -700Q298 -700 310 -694Q312 -677 320 -664Q328 -651 335 -637Q340 -625 346 -593Q352 -560 359 -547Q351 -531 344 -515Q336 -506 320 -499Q305 -493 292 -487Q263 -472 240 -457Q201 -426 178 -381Q154 -386 141 -412ZM966 -304H960Q921 -304 879 -284Q885 -265 890 -246Q869 -235 868 -203Q868 -171 864 -143Q856 -148 856 -168Q857 -180 857 -193Q857 -209 852 -215Q839 -180 839 -120Q839 -65 850 -33Q858 -40 858 -60Q857 -78 856 -96Q856 -120 867 -124Q866 -117 866 -105Q866 -81 876 -49Q889 -26 893 -7Q893 2 888 16Q882 33 882 42Q883 46 883 50Q862 56 850 71Q838 86 827 100Q783 79 767 64Q764 62 749 38Q734 10 699 -36Q709 -35 723 -20Q735 -8 741 -5Q736 -15 722 -32Q703 -55 698 -67Q693 -64 693 -56V-46L692 -43Q688 -45 684 -48Q679 -35 654 -28Q636 -23 630 -17V-21Q630 -31 645 -41Q656 -49 659 -54H653Q618 -51 599 -21Q580 10 564 38Q571 35 593 15Q599 9 604 2Q609 -5 618 -6Q622 -6 624 -5Q602 14 585 38Q568 62 550 84Q546 80 543 75Q539 69 535 69Q531 69 528 72Q527 67 525 62Q500 56 489 23Q458 26 452 50H428Q424 47 422 43Q419 38 413 38H409Q407 34 397 22Q384 7 384 -3V-7Q391 -3 397 5Q406 16 410 18Q402 0 392 -25Q382 -51 363 -54Q356 -54 348 -49Q349 -40 362 -34Q377 -27 377 -16V-13H375Q367 -15 362 -22Q355 -24 346 -26Q338 -28 332 -36Q326 -46 326 -76Q326 -96 329 -108Q333 -120 344 -126Q355 -133 363 -136Q359 -144 350 -155Q337 -170 337 -181Q340 -191 342 -201Q336 -217 326 -229Q327 -224 327 -213Q323 -167 318 -121Q319 -113 319 -106Q306 -109 306 -125Q309 -149 312 -173Q312 -182 310 -186Q297 -168 292 -126Q289 -98 289 -49Q289 -24 296 0Q306 -9 307 -46Q308 -76 314 -86Q323 -54 322 -20Q323 -15 323 -8Q323 3 311 27Q297 59 283 68Q217 28 201 -20Q200 -22 200 -27Q201 -37 201 -47Q201 -61 192 -63Q222 -124 222 -225V-235Q143 -162 110 -34Q92 -39 75 -58Q53 -83 45 -88Q46 -92 46 -99Q44 -127 37 -154Q43 -168 44 -188Q44 -207 46 -226L48 -227Q50 -227 52 -222Q54 -217 57 -217Q66 -280 66 -313V-315Q66 -321 65 -327Q65 -333 70 -337Q75 -327 75 -306V-289Q75 -261 83 -252Q88 -254 88 -263Q86 -276 84 -290Q84 -292 86 -298Q92 -268 98 -256Q154 -310 209 -371Q246 -417 254 -431Q261 -443 268 -458Q275 -472 289 -473Q291 -473 299 -471Q307 -471 308 -474Q335 -470 349 -450Q363 -431 363 -403Q363 -384 357 -365Q345 -359 332 -353Q318 -347 316 -330H314Q285 -327 267 -295H268Q286 -295 299 -278Q306 -269 317 -246Q322 -268 344 -279Q359 -286 391 -290Q388 -305 388 -319Q388 -341 396 -356Q393 -364 384 -375Q370 -392 369 -403V-409Q370 -421 370 -434Q370 -444 366 -451Q376 -445 385 -440Q406 -455 431 -464Q459 -474 467 -505Q464 -508 460 -508Q455 -508 448 -499Q442 -491 440 -490Q422 -493 421 -493Q417 -502 403 -516Q390 -530 385 -540Q382 -560 378 -581Q375 -589 370 -597Q366 -604 365 -614V-619L368 -617L369 -619Q369 -629 360 -642Q352 -653 351 -661Q356 -661 358 -658Q359 -655 362 -652Q376 -660 384 -675Q407 -681 454 -697Q450 -689 425 -677Q403 -666 403 -654Q403 -649 406 -643Q444 -661 485 -680Q526 -698 554 -727Q551 -728 545 -728Q532 -728 507 -712Q483 -696 468 -696Q463 -696 461 -697Q489 -714 516 -731Q557 -754 576 -754Q587 -754 593 -748Q601 -751 621 -755Q620 -753 614 -750Q606 -747 605 -742H608Q615 -742 626 -747Q641 -754 649 -754H652Q643 -746 633 -740Q622 -734 616 -724Q617 -719 621 -719Q625 -720 629 -722L631 -721Q628 -713 623 -706Q619 -698 618 -688Q618 -681 619 -678L620 -677Q623 -678 625 -679L627 -678Q623 -671 623 -664Q624 -653 625 -643V-641Q624 -638 619 -625Q612 -609 612 -597Q612 -591 613 -587Q550 -575 523 -543Q528 -530 532 -517Q547 -539 582 -542Q599 -542 609 -532Q616 -537 623 -540H624Q622 -530 622 -527Q622 -515 628 -508Q641 -517 650 -531L651 -528Q651 -525 646 -520Q638 -512 638 -506L639 -502L641 -500Q645 -502 649 -504L652 -503Q644 -496 644 -474Q644 -446 655 -437Q653 -422 650 -408Q645 -408 638 -401Q633 -396 629 -396H627V-397Q632 -416 636 -436Q636 -448 627 -453Q614 -450 610 -440Q607 -432 605 -413Q604 -400 595 -376Q587 -354 587 -345V-343Q593 -345 601 -362Q612 -385 624 -385V-382Q624 -371 603 -337Q629 -340 644 -355Q658 -369 673 -382Q675 -375 675 -367Q676 -358 681 -355Q684 -355 685 -358Q687 -362 689 -362H691Q695 -362 695 -357V-353Q708 -368 720 -384Q721 -381 722 -379L725 -381Q734 -382 769 -394Q785 -403 803 -406Q806 -405 808 -405Q797 -390 768 -381Q740 -372 731 -361Q853 -382 901 -419Q897 -425 888 -425Q877 -425 850 -413Q830 -404 825 -403Q823 -405 823 -409Q823 -415 824 -418Q840 -423 862 -440Q886 -459 898 -465Q911 -456 924 -448Q927 -449 933 -453Q940 -458 945 -458Q947 -458 951 -456Q948 -451 942 -447Q933 -441 932 -436Q935 -429 938 -429Q946 -431 954 -433L955 -432Q954 -428 952 -425Q969 -397 979 -364Q966 -331 966 -312Z"/>
</svg>