<svg xmlns="http://www.w3.org/2000/svg" viewBox="0 -800 1024 1024">
	<path fill="#000000" d="M469 -141H467Q467 -145 466 -149V-152Q470 -153 473 -155Q476 -155 476 -150Q476 -141 469 -141ZM893 -298H896Q897 -296 898 -294Q898 -285 889 -274Q882 -281 882 -295Q887 -298 893 -298ZM128 -524V-527Q128 -539 144 -539Q148 -539 150 -538Q141 -525 128 -524ZM225 -675V-679Q225 -685 224 -691L225 -695H227Q234 -693 239 -689Q256 -696 274 -699Q292 -702 301 -716Q307 -714 311 -704Q314 -697 317 -694Q325 -689 332 -685Q344 -672 354 -658Q356 -658 359 -663Q362 -668 367 -668L370 -667Q368 -661 368 -650Q374 -616 395 -597Q404 -568 404 -546Q404 -522 392 -507Q391 -506 373 -493Q363 -483 353 -478Q345 -476 341 -476Q328 -476 302 -497Q282 -514 270 -517Q265 -517 257 -510Q252 -506 249 -506Q248 -508 248 -511Q251 -521 258 -529Q258 -532 255 -532Q252 -532 252 -535Q226 -531 221 -529Q209 -525 192 -512Q177 -500 169 -497Q170 -506 178 -514Q187 -521 196 -529Q227 -554 227 -562Q227 -566 221 -568Q219 -569 214 -569Q201 -569 180 -554Q164 -543 157 -543Q165 -559 185 -566Q204 -573 206 -592Q206 -595 205 -598Q193 -598 184 -601Q194 -609 203 -618Q201 -635 185 -650Q167 -667 163 -678Q178 -665 198 -665Q214 -665 225 -675ZM745 -325Q741 -290 729 -230L730 -229L729 -228H725L724 -227V-226Q724 -212 718 -175Q713 -144 713 -127V-118Q733 -115 752 -115Q798 -117 848 -124Q861 -147 862 -157V-159Q860 -178 858 -198Q858 -211 866 -218Q871 -206 872 -178Q874 -144 879 -133Q882 -140 882 -150Q878 -174 874 -199Q869 -234 864 -270Q863 -279 862 -288Q862 -302 868 -310Q877 -241 901 -141Q902 -145 902 -155Q902 -168 895 -202Q889 -231 889 -246V-249Q891 -253 891 -258Q892 -264 898 -267Q903 -231 909 -195Q915 -160 929 -132Q932 -135 932 -136Q931 -138 930 -140Q932 -142 934 -144H936Q940 -129 957 -100Q956 -96 955 -92L956 -88Q964 -76 970 -49Q976 -25 980 -16Q969 -6 969 20V31Q961 33 961 44V46Q944 48 936 53Q901 44 820 44H784Q787 34 803 34Q812 36 820 37H850Q898 37 921 31Q912 12 869 12Q839 14 808 15Q790 14 772 13Q732 13 721 29Q724 35 739 37Q754 38 762 41Q756 49 734 53Q718 56 699 56Q687 56 679 53Q668 49 638 28Q635 15 621 -8Q602 -40 602 -60V-64Q602 -75 611 -93Q620 -111 621 -118Q633 -178 645 -238Q647 -248 648 -258Q629 -260 622 -259Q592 -253 591 -248L589 -250Q589 -252 603 -257Q614 -261 614 -262Q590 -282 566 -303Q588 -294 594 -295Q591 -311 580 -320Q569 -329 556 -339Q572 -338 595 -328Q596 -330 596 -333Q595 -339 565 -353Q562 -349 556 -343Q552 -339 549 -337Q545 -334 545 -328V-324Q545 -319 550 -315Q555 -310 557 -307Q562 -296 567 -286Q586 -263 589 -232Q589 -220 583 -205Q552 -184 552 -123Q553 -113 553 -103V-101Q555 -97 557 -93V-92Q556 -88 556 -78Q560 -40 564 -3Q564 5 563 9Q561 22 554 31Q547 39 541 49Q536 49 530 48Q512 48 509 62Q506 46 480 27Q458 11 453 0Q448 -11 446 -33Q442 -24 441 -21Q432 -18 423 -11Q414 -4 407 -9Q410 -12 411 -12Q417 -16 423 -20Q425 -21 427 -23L426 -24Q419 -35 394 -18Q385 -9 388 -3Q391 1 397 -1Q402 -2 404 -1Q406 4 397 8Q392 11 387 14L381 18Q368 28 342 54Q336 58 332 56Q342 46 350 35Q360 20 372 8Q364 4 352 13Q337 40 317 48Q309 50 299 58Q286 68 286 77Q286 83 290 82Q299 80 312 71Q323 66 326 65Q317 77 299 86Q283 94 266 87Q237 78 213 73Q211 73 209 70Q207 66 205 66H203Q186 66 172 75V74Q172 67 196 58Q189 44 189 27Q191 -13 202 -24L209 -25Q203 -29 197 -33L198 -34Q205 -34 208 -33Q213 -38 218 -74Q224 -123 236 -125Q236 -52 252 -38Q250 -140 256 -215Q250 -216 246 -200Q242 -183 242 -177Q237 -157 228 -139Q227 -144 227 -165Q226 -196 223 -227Q221 -257 226 -281Q198 -273 178 -249Q151 -242 131 -204Q119 -201 112 -201Q108 -201 100 -203Q90 -211 78 -236Q69 -255 64 -262Q58 -270 52 -279L51 -283Q53 -289 54 -295V-297Q53 -310 52 -324Q52 -328 53 -331Q48 -340 39 -347Q30 -354 25 -360Q27 -362 31 -362Q43 -357 53 -348Q51 -362 29 -378Q11 -391 6 -401Q19 -400 37 -384Q51 -371 60 -369Q61 -377 47 -386Q34 -394 32 -402Q49 -396 65 -385Q71 -382 74 -382H75Q79 -384 82 -387Q86 -389 98 -389Q106 -388 114 -388Q121 -388 123 -389Q141 -391 163 -402Q185 -413 193 -414Q197 -412 201 -411Q194 -403 172 -395Q149 -388 137 -383Q125 -377 123 -367Q123 -360 130 -354Q174 -368 190 -373Q205 -378 246 -400Q244 -404 237 -406Q224 -403 210 -400L206 -401Q208 -413 221 -413H223Q235 -423 249 -430Q254 -429 259 -429Q263 -429 267 -430Q272 -427 277 -425Q282 -427 293 -435Q303 -443 311 -445V-444Q307 -438 296 -430Q291 -423 291 -414Q291 -410 291 -407Q296 -408 304 -414Q314 -422 320 -423Q304 -410 304 -398Q304 -389 313 -385Q318 -388 324 -391H327L328 -390Q326 -386 323 -383L325 -380L327 -378Q330 -379 333 -380Q328 -375 328 -363Q329 -346 330 -330Q330 -323 328 -320H327Q323 -320 321 -324Q319 -327 318 -330Q306 -325 305 -312Q303 -299 297 -288Q296 -286 290 -282Q285 -278 283 -273Q285 -270 287 -267H292Q309 -268 315 -281Q321 -294 331 -305Q335 -298 334 -290Q334 -289 328 -262Q323 -257 317 -259Q301 -258 296 -232Q292 -207 294 -171Q302 -92 298 -52Q314 -63 330 -75Q339 -82 325 -104Q314 -121 311 -136Q315 -133 327 -117Q338 -103 345 -100Q348 -108 327 -140L349 -117L319 -174L360 -122L352 -145Q362 -131 367 -126Q352 -146 348 -160Q353 -159 358 -154Q363 -146 366 -138Q373 -128 380 -118Q387 -108 396 -101Q416 -87 428 -74Q431 -71 433 -69Q438 -62 441 -55Q443 -52 444 -50Q442 -70 430 -82Q438 -85 445 -88Q448 -96 450 -106Q451 -117 464 -120Q467 -115 467 -103Q467 -86 476 -82Q498 -116 498 -177Q498 -184 496 -198Q496 -202 495 -206Q496 -213 496 -220Q496 -230 492 -237Q481 -231 480 -201Q479 -177 473 -169Q468 -174 468 -187Q470 -210 472 -233Q472 -243 469 -246Q475 -260 474 -277Q468 -282 462 -287Q457 -292 447 -292H445Q441 -305 437 -317V-319Q435 -324 423 -329Q409 -335 408 -343L407 -344Q403 -343 398 -342L394 -343V-345Q394 -350 399 -353Q404 -356 404 -358H398Q380 -357 369 -351Q358 -345 346 -339Q351 -355 365 -363Q379 -371 391 -381Q394 -384 416 -413Q432 -434 447 -441Q452 -454 459 -466Q466 -478 481 -483L482 -480Q482 -476 478 -472Q474 -469 471 -466Q462 -450 452 -435Q443 -423 435 -413Q427 -404 427 -391Q477 -426 535 -514Q530 -526 527 -528Q520 -527 512 -519Q506 -512 500 -511Q494 -515 494 -523Q494 -528 503 -549V-550Q503 -555 496 -561Q492 -565 492 -567V-568Q494 -569 498 -569Q505 -569 506 -565Q520 -576 533 -586Q546 -597 564 -598H572Q583 -597 609 -581Q635 -565 649 -565Q650 -555 663 -544Q664 -551 664 -565Q661 -610 645 -648H608Q612 -658 641 -668Q664 -676 670 -682Q672 -684 688 -707Q699 -722 710 -723Q726 -719 738 -708Q748 -703 758 -699Q768 -695 774 -687Q782 -675 787 -662Q792 -650 805 -643V-636Q805 -623 791 -597Q782 -581 780 -570V-566Q781 -558 782 -550Q782 -539 771 -538Q770 -543 770 -551Q770 -561 776 -585Q784 -606 787 -625V-627Q786 -640 775 -650Q764 -661 753 -670Q749 -668 745 -667Q742 -661 742 -655Q746 -638 749 -622V-610Q749 -590 740 -542Q733 -502 732 -481Q732 -451 741 -442Q773 -484 775 -533Q786 -531 797 -534Q799 -534 800 -534Q800 -530 799 -526Q800 -526 802 -526Q814 -529 835 -534Q856 -538 865 -530Q867 -533 873 -533Q873 -525 874 -522Q875 -512 885 -491Q890 -480 893 -470Q887 -460 881 -441Q876 -423 865 -416Q860 -413 848 -412Q833 -410 827 -403Q791 -374 745 -325ZM665 -378Q664 -408 662 -438Q618 -409 573 -362Q624 -355 665 -378Z"/>
</svg>