<svg xmlns="http://www.w3.org/2000/svg" viewBox="0 -800 1024 1024">
	<path fill="#000000" d="M295 -397V-398Q297 -409 307 -410Q311 -410 314 -407Q310 -396 299 -396ZM695 -418V-424Q695 -428 696 -429H719Q717 -418 695 -418ZM884 -482V-490Q893 -493 901 -496Q904 -496 907 -493Q906 -488 899 -485Q893 -482 892 -479Q888 -480 884 -482ZM533 -155H535Q544 -155 550 -161Q551 -162 559 -174Q556 -175 550 -175Q532 -175 532 -160Q533 -157 533 -155ZM464 -137V-139Q465 -143 465 -147V-149Q462 -149 458 -150Q435 -150 427 -133Q429 -132 433 -132Q447 -134 460 -137ZM465 -205V-218Q444 -215 426 -211Q408 -206 403 -188Q456 -201 465 -205ZM604 -261V-263Q539 -255 539 -237Q539 -232 541 -230H544Q552 -231 559 -233Q561 -225 568 -223Q575 -221 581 -218Q583 -225 594 -241Q604 -255 604 -261ZM807 -13H812Q801 -5 801 7Q801 19 812 28Q804 48 797 69Q790 89 775 102Q745 96 741 96Q731 96 727 99Q711 92 673 88Q642 85 631 82V81Q631 73 643 73H649Q655 73 657 72Q642 54 608 52Q590 52 581 62Q582 68 597 70Q610 72 612 78Q609 81 605 81Q599 80 592 79Q564 79 536 78Q500 78 468 81Q456 83 449 83Q442 83 439 81Q455 68 509 66Q552 64 567 58Q564 52 557 51Q550 50 544 50Q532 49 506 49Q413 49 374 73Q391 81 413 82Q401 90 368 91Q343 92 332 96Q327 98 313 107Q296 118 287 118H286Q276 116 270 106Q264 96 258 89Q253 84 243 80Q230 74 225 68Q224 65 224 60Q225 47 232 40Q239 33 245 22Q250 13 252 5Q255 -3 264 -7Q282 -16 292 -23Q305 -33 320 -35H324Q311 -27 302 -13Q308 -3 323 -3Q338 -2 350 1Q371 -5 415 -7Q453 -9 465 -11V-13Q466 -22 454 -22H452Q447 -22 445 -23Q425 -29 404 -36V-37Q404 -42 409 -43Q413 -44 418 -44Q417 -46 414 -46Q410 -46 410 -49V-50Q411 -51 430 -59Q434 -66 449 -74Q465 -82 467 -89H464Q452 -89 442 -82Q431 -75 430 -63Q419 -56 405 -56Q360 -62 344 -99H347Q351 -99 358 -92Q365 -85 370 -85Q374 -85 378 -89Q368 -117 341 -142Q328 -153 315 -153Q306 -153 302 -146Q304 -139 314 -131Q324 -124 326 -117H323Q307 -117 297 -125Q294 -127 279 -146Q272 -154 267 -161Q261 -167 261 -179Q261 -185 262 -188Q262 -194 269 -205Q274 -214 276 -221Q289 -229 291 -234Q298 -238 317 -243Q337 -248 345 -254Q351 -253 357 -253Q385 -254 412 -262Q439 -270 462 -277Q459 -283 459 -293Q365 -277 256 -231Q236 -222 224 -209Q211 -197 197 -185Q184 -175 162 -175Q148 -175 138 -182Q134 -185 128 -194Q119 -207 113 -211Q97 -220 81 -227Q64 -233 61 -255V-259Q63 -285 80 -296Q97 -308 100 -335L110 -347Q122 -350 137 -361Q157 -375 168 -375Q163 -368 159 -360Q161 -354 165 -349Q234 -354 304 -367Q374 -381 440 -390H437Q430 -390 420 -397Q408 -405 401 -406Q403 -410 406 -413H401Q392 -413 381 -408Q370 -403 363 -403H359Q361 -413 373 -416Q385 -418 395 -422Q391 -423 382 -423Q370 -423 348 -416Q333 -411 324 -410Q336 -423 356 -427Q375 -432 392 -440Q379 -441 368 -451Q366 -453 350 -470Q339 -469 324 -463Q306 -456 296 -455V-456Q297 -465 304 -468Q311 -471 318 -473Q335 -483 339 -490Q332 -494 324 -494Q310 -494 285 -484Q258 -476 257 -475Q242 -468 237 -456Q237 -453 241 -451Q244 -449 245 -447Q258 -452 263 -452Q268 -452 271 -449Q264 -444 252 -439Q234 -431 227 -424Q222 -419 209 -395Q160 -397 147 -421Q143 -434 139 -447Q138 -451 130 -460Q122 -470 121 -476Q121 -479 120 -483Q120 -494 130 -517Q136 -532 138 -542Q139 -545 139 -549Q139 -555 138 -561Q138 -568 142 -575Q147 -583 166 -591Q183 -599 190 -608V-611Q190 -632 209 -635V-633Q207 -621 205 -609Q205 -603 208 -599Q212 -599 213 -607Q214 -615 219 -616Q222 -595 242 -595Q271 -599 294 -607Q282 -633 282 -644Q282 -650 283 -653Q285 -661 297 -675Q311 -691 311 -701V-704Q313 -706 315 -706Q321 -703 324 -697H325Q330 -697 330 -702Q331 -707 333 -710Q335 -710 377 -704Q401 -674 424 -644Q438 -647 464 -659H465L467 -657V-651Q482 -658 497 -662H501Q500 -657 492 -652Q485 -648 485 -643Q485 -640 486 -638L489 -637Q494 -639 498 -642Q500 -642 501 -639V-638Q501 -636 497 -631Q491 -624 490 -619Q490 -615 489 -612Q489 -600 496 -584Q484 -552 484 -528V-522Q462 -515 440 -506Q439 -486 437 -466Q456 -469 474 -478Q493 -488 510 -497V-510Q526 -512 541 -515Q543 -515 551 -513Q543 -531 528 -551Q513 -571 511 -596Q511 -608 517 -623Q526 -628 538 -645Q550 -663 563 -667Q573 -665 595 -665Q607 -701 610 -722Q609 -724 607 -727H602Q590 -726 582 -720Q574 -713 567 -711V-712Q567 -719 584 -735Q597 -747 600 -754V-756Q601 -760 601 -764V-767Q621 -773 631 -788Q643 -804 665 -808H667Q684 -808 704 -787Q724 -766 743 -764V-760Q743 -746 760 -733Q757 -727 752 -722Q747 -717 746 -708Q765 -712 784 -722Q803 -732 822 -739V-735Q822 -727 827 -722Q852 -729 880 -736Q877 -731 868 -726Q854 -717 852 -708Q854 -706 856 -706Q865 -708 874 -711H875Q871 -704 866 -699Q861 -694 860 -684V-679L863 -677Q867 -678 871 -679Q874 -679 875 -676Q870 -671 865 -667Q863 -648 848 -627Q831 -603 831 -585V-581H829Q817 -581 817 -571Q817 -568 818 -566Q815 -566 811 -567Q786 -563 760 -559H757Q761 -567 779 -572Q796 -577 800 -584Q796 -590 788 -590Q785 -590 773 -588Q684 -582 674 -551Q676 -549 681 -549Q692 -551 703 -553Q708 -553 711 -550Q704 -545 662 -529Q629 -516 618 -497Q616 -484 607 -475Q619 -459 619 -447Q619 -442 615 -432Q567 -428 548 -415Q550 -411 551 -407Q564 -407 601 -415Q640 -423 662 -423Q669 -423 683 -421Q670 -412 620 -406Q574 -400 562 -383Q565 -378 570 -378Q578 -381 585 -384Q634 -394 695 -398Q756 -403 797 -428Q792 -434 777 -434Q768 -433 759 -433Q754 -433 746 -435Q759 -445 769 -445Q771 -445 775 -443Q787 -449 800 -456Q812 -462 819 -473Q821 -471 821 -464Q824 -463 829 -463Q839 -463 854 -470Q872 -478 879 -478H883Q882 -474 876 -470Q868 -465 868 -459V-456Q869 -454 874 -454Q883 -455 892 -456Q888 -448 884 -440Q897 -418 911 -409Q910 -398 903 -384Q894 -366 894 -353Q894 -345 895 -340Q879 -335 878 -334Q845 -344 788 -344Q765 -344 754 -343Q677 -340 545 -311L544 -307V-304Q544 -300 547 -297Q561 -302 599 -310Q652 -321 672 -334Q680 -333 687 -332Q695 -337 704 -337Q713 -337 728 -329Q743 -321 752 -321Q759 -321 766 -324V-323Q763 -316 760 -309Q769 -310 782 -317Q801 -328 812 -328Q803 -319 790 -312Q777 -306 776 -294V-293L779 -292Q785 -296 795 -300H797L798 -298Q795 -292 791 -286L790 -283Q792 -278 794 -274Q793 -270 791 -266Q793 -260 795 -254Q797 -238 797 -234Q797 -204 776 -194Q771 -195 763 -195Q744 -194 729 -186Q714 -178 701 -171Q703 -183 721 -195Q743 -210 748 -217Q738 -223 728 -223Q713 -223 695 -208Q684 -199 668 -182Q634 -148 634 -124V-120Q644 -123 657 -136Q671 -150 684 -152Q683 -145 678 -141Q672 -137 668 -133Q647 -111 634 -80H633Q630 -81 626 -82L624 -79V-77Q606 -80 590 -91Q575 -102 557 -114H550Q533 -114 527 -101H532Q546 -100 559 -92Q572 -83 585 -77L584 -73Q584 -65 589 -62Q580 -56 580 -42Q581 -38 581 -35Q563 -31 548 -29Q534 -27 524 -17Q527 -11 533 -11Q542 -12 550 -14Q595 -16 646 -18Q697 -21 732 -29Q737 -32 741 -46Q745 -60 752 -63V-60Q752 -49 751 -39Q751 -30 754 -27Q782 -27 794 -32V-30Q794 -28 788 -24Q781 -20 781 -14V-11L785 -10Q796 -11 807 -13Z"/>
</svg>