<svg xmlns="http://www.w3.org/2000/svg" viewBox="0 -800 1024 1024">
	<path fill="#000000" d="M374 -150H375Q381 -150 381 -156L379 -159Q376 -155 373 -152ZM970 -602Q966 -594 955 -592L954 -596Q955 -607 964 -608Q969 -608 970 -602ZM699 -530Q688 -526 673 -526Q678 -537 691 -540Q698 -540 699 -530ZM651 -314Q646 -327 640 -341Q580 -323 561 -308Q566 -290 577 -279Q591 -284 651 -314ZM282 -464Q285 -480 294 -514Q304 -550 306 -567Q278 -548 250 -529Q220 -510 208 -472Q196 -469 196 -452Q196 -444 202 -420Q221 -432 240 -444Q259 -456 282 -464ZM738 -305V-228Q738 -167 750 -138Q765 -140 771 -143Q795 -253 808 -368Q770 -339 738 -305ZM481 -252H473Q455 -252 436 -266Q422 -277 413 -279Q406 -291 397 -302Q388 -313 386 -329V-335Q387 -362 399 -390Q411 -419 422 -443Q448 -504 458 -557Q470 -617 470 -631Q470 -651 463 -665Q461 -666 459 -667V-663Q459 -657 466 -638Q449 -608 428 -579Q411 -547 398 -512Q357 -418 354 -329Q332 -322 323 -318Q304 -333 290 -334Q288 -353 273 -355Q268 -355 263 -351Q266 -337 284 -325Q282 -315 282 -304Q282 -293 284 -279Q292 -280 311 -293Q327 -305 336 -309Q339 -309 341 -304Q344 -297 349 -297Q352 -307 360 -307L364 -306Q360 -300 358 -291Q361 -284 369 -281Q368 -278 368 -272Q371 -258 376 -245Q372 -237 372 -233Q372 -231 374 -227Q358 -220 358 -201V-197H356Q332 -196 314 -185Q296 -173 281 -161Q280 -152 278 -144L279 -140Q301 -145 335 -160Q371 -176 389 -180Q388 -183 388 -190Q388 -206 399 -220Q404 -226 420 -240V-236Q420 -230 428 -224Q467 -242 505 -257Q499 -265 492 -267Q489 -267 487 -266Q483 -262 481 -252ZM848 45H843Q770 42 762 -33Q752 -32 743 -20Q741 -17 730 5Q718 1 696 -11Q669 -65 669 -98Q671 -108 673 -119Q673 -134 666 -170Q661 -198 660 -216H657Q645 -214 634 -210V-212Q634 -220 640 -224Q644 -227 654 -231Q650 -242 634 -242Q586 -235 567 -209Q571 -202 577 -202Q591 -206 605 -210Q610 -210 614 -207Q607 -200 587 -190Q562 -177 555 -165Q571 -157 595 -156Q603 -164 605 -172V-170Q605 -164 604 -159Q604 -153 611 -150Q625 -173 643 -180Q638 -173 631 -164Q624 -155 623 -145Q623 -139 625 -136L628 -135Q630 -135 633 -138Q638 -143 641 -143H644V-142Q641 -135 638 -128V-127Q650 -108 650 -79Q650 -62 644 -32Q633 -29 613 -18Q579 -21 557 -42Q540 -58 524 -90Q501 -57 494 30Q494 32 490 35Q486 38 486 41L487 45Q484 46 479 46Q465 43 450 39Q437 5 420 -27V-28L422 -30H424L426 -31V-32Q420 -57 414 -83Q419 -72 435 -58Q437 -63 438 -68Q461 -83 479 -134Q481 -136 481 -138Q467 -132 458 -122Q449 -112 440 -102Q426 -103 410 -111Q408 -125 397 -130Q386 -135 380 -146Q374 -143 374 -123H375Q376 -123 378 -126Q379 -130 383 -130H385Q382 -121 382 -109Q383 -98 383 -87Q375 -81 373 -67V-62Q296 -43 208 13Q217 -18 251 -30Q284 -42 308 -61H302Q266 -61 207 -29Q150 3 136 37Q138 40 139 42H141Q151 38 163 34Q167 34 170 36Q166 43 153 53Q143 60 140 64Q138 80 131 88Q123 98 112 98H109Q100 92 87 81Q79 75 61 68Q41 61 38 52Q38 48 37 44Q37 36 44 15Q49 -1 50 -12V-15Q49 -27 47 -40V-44Q52 -60 66 -69Q79 -77 93 -86L94 -82Q91 -73 88 -65L89 -61Q119 -73 158 -86Q153 -106 126 -138Q100 -169 95 -192Q91 -229 74 -259Q85 -250 95 -242Q94 -246 92 -251L93 -254Q107 -252 114 -246Q120 -257 132 -261Q143 -265 155 -269Q186 -247 207 -215V-190Q207 -134 214 -105L235 -114Q234 -117 225 -211Q219 -269 204 -296V-312Q191 -304 187 -296Q183 -297 177 -297Q164 -297 158 -290Q151 -300 144 -310Q136 -321 121 -325Q114 -353 106 -380Q116 -379 126 -363Q137 -345 145 -341Q146 -344 146 -349Q143 -372 127 -404Q122 -419 116 -435Q109 -451 102 -454Q100 -455 96 -455Q86 -455 86 -443Q86 -439 95 -408H93Q85 -411 77 -422Q66 -429 55 -437Q43 -450 36 -468Q30 -486 23 -504Q31 -556 52 -564V-571Q49 -592 46 -614Q56 -600 65 -587Q70 -589 70 -591Q66 -597 62 -604Q54 -624 50 -644Q58 -633 64 -621Q70 -609 81 -602V-603Q81 -607 76 -615Q70 -624 70 -629L71 -633Q78 -630 83 -623Q87 -617 93 -611Q101 -618 112 -618Q126 -618 161 -596Q201 -626 238 -648Q255 -659 260 -659Q264 -659 266 -658Q257 -646 244 -639Q231 -631 219 -623Q199 -607 182 -578Q185 -573 190 -573Q211 -579 228 -596Q278 -636 327 -676Q327 -686 318 -686Q306 -686 297 -677Q297 -684 293 -686Q306 -694 322 -713Q340 -734 360 -740Q363 -741 368 -741Q382 -741 392 -731Q400 -733 407 -736V-725H408Q410 -725 414 -731Q419 -738 423 -739V-737Q421 -729 419 -721V-719Q420 -711 434 -698Q451 -682 452 -673Q460 -683 465 -704Q470 -724 475 -730Q490 -750 521 -750Q531 -750 536 -749Q553 -746 580 -716Q609 -684 610 -667Q609 -656 602 -643Q594 -630 588 -620Q569 -587 550 -553Q532 -520 524 -477Q513 -466 513 -449Q514 -445 514 -441Q559 -457 604 -473Q599 -485 587 -485Q580 -485 563 -478Q548 -472 540 -472Q552 -494 578 -502Q604 -510 631 -516L633 -515Q630 -512 626 -506V-504Q633 -508 643 -515Q653 -522 666 -523Q652 -512 651 -511Q643 -503 643 -493Q643 -486 645 -483Q656 -493 672 -495H675Q653 -485 653 -469Q653 -464 656 -458L659 -457Q664 -460 669 -463L672 -461L673 -459Q669 -452 665 -446Q663 -438 663 -431Q663 -413 670 -403Q674 -408 678 -413Q696 -415 707 -425Q718 -435 730 -443Q732 -437 732 -436Q732 -429 723 -420Q714 -411 714 -402V-400Q737 -407 761 -427Q769 -434 801 -467Q827 -492 826 -494Q825 -498 821 -498Q809 -498 791 -480Q770 -462 755 -460Q762 -478 778 -491Q794 -504 810 -516Q825 -529 839 -544Q853 -560 869 -570Q872 -569 875 -569Q893 -573 910 -578L912 -577Q910 -572 908 -567L909 -564Q916 -559 919 -559Q925 -559 935 -568Q946 -578 952 -578V-577Q951 -572 943 -562Q934 -553 933 -541V-539Q934 -533 944 -526Q947 -529 950 -534Q953 -539 959 -539Q957 -536 955 -533V-532Q955 -518 965 -489Q974 -462 974 -443Q974 -436 973 -432Q961 -419 947 -407Q933 -396 928 -377Q926 -365 926 -353Q926 -340 919 -329Q911 -333 911 -343Q915 -360 919 -378Q919 -382 918 -384Q900 -384 893 -368Q892 -365 885 -334Q881 -334 879 -337Q863 -323 855 -292Q850 -273 845 -234Q834 -167 831 -96Q832 -85 832 -75Q848 -100 855 -135Q862 -169 868 -204Q876 -265 909 -300V-297Q909 -290 899 -248Q892 -222 879 -130Q867 -68 866 -51Q863 0 863 3Q860 31 848 45Z"/>
</svg>