<svg xmlns="http://www.w3.org/2000/svg" viewBox="0 -800 1024 1024">
	<path fill="#000000" d="M218 -689V-686Q212 -688 206 -689Q200 -691 200 -698V-702Q201 -703 205 -703Q216 -703 218 -689ZM893 -632Q890 -622 877 -621Q875 -621 869 -623Q871 -635 885 -635Q890 -635 893 -632ZM795 -329V-326Q793 -325 790 -325Q784 -325 780 -330Q777 -335 773 -338Q774 -343 780 -343Q793 -342 795 -329ZM942 -432H946Q937 -406 932 -398Q928 -406 928 -413Q928 -432 942 -432ZM570 -30Q482 -27 423 7L422 10Q422 12 426 20Q487 5 554 -4Q555 -10 563 -19Q569 -25 570 -30ZM455 -338V-341Q455 -356 437 -366Q422 -374 420 -383Q407 -383 401 -376Q394 -370 385 -363Q372 -354 357 -345Q342 -337 337 -323H345Q375 -324 404 -329Q432 -335 455 -338ZM542 -370V-360Q593 -371 608 -377Q604 -388 585 -402Q560 -420 560 -443Q560 -451 561 -455Q552 -461 549 -461Q546 -461 545 -457Q485 -452 443 -435Q442 -430 440 -425V-423Q469 -436 474 -438Q492 -444 515 -444H520Q531 -438 537 -426Q543 -415 549 -403Q542 -396 542 -370ZM563 -190V-187Q533 -178 499 -172Q485 -167 467 -160Q450 -153 430 -152Q418 -152 407 -156Q406 -165 399 -171Q397 -172 384 -179Q389 -207 396 -216Q405 -229 428 -230Q450 -231 491 -241Q530 -251 548 -253L550 -251Q547 -246 543 -242Q546 -236 554 -236Q561 -236 563 -231Q572 -232 581 -234H585Q563 -225 563 -190ZM581 -122V-119Q565 -116 563 -106H558Q542 -105 527 -99Q511 -93 495 -89Q491 -88 483 -88Q475 -88 471 -87Q460 -86 447 -80Q431 -73 425 -73H423Q412 -75 402 -83Q392 -92 382 -100Q387 -112 387 -117Q387 -124 382 -137Q388 -135 393 -133Q410 -144 436 -147Q462 -150 487 -155Q525 -168 561 -175Q564 -169 584 -165L586 -164Q582 -159 578 -155L579 -153L581 -150Q585 -148 590 -148Q599 -148 607 -149H611Q608 -145 593 -138Q581 -132 581 -122ZM543 -605V-601Q521 -589 471 -586Q430 -614 410 -656Q410 -664 409 -673Q409 -711 431 -716V-720Q431 -732 438 -739Q441 -738 443 -730Q444 -725 447 -723Q451 -725 458 -737Q472 -731 502 -731Q527 -690 539 -679Q543 -680 548 -684Q554 -689 561 -689Q549 -665 549 -658Q551 -648 552 -638Q546 -621 543 -605ZM721 25H719Q709 25 698 32Q686 40 678 40V38Q680 21 695 15Q715 8 723 -8Q718 -18 705 -18Q699 -18 696 -17Q682 -13 670 0Q657 14 646 25Q618 53 618 72Q618 79 620 83Q628 82 635 72Q643 61 652 61H656Q646 87 629 104Q607 127 582 127Q576 127 573 126Q561 102 543 93Q538 92 533 91Q530 89 528 85Q525 80 521 79Q519 78 513 78Q483 78 435 97Q434 101 434 113Q425 115 416 123Q407 132 400 133H396Q383 133 361 117Q340 101 327 100Q331 95 331 91Q328 81 325 70V67H327Q332 67 337 72Q342 77 347 77H349Q351 74 351 67Q351 49 336 29Q321 9 305 7Q297 10 295 17Q296 24 305 31Q316 40 316 50V51Q309 48 296 38Q278 24 264 22Q261 4 258 -15V-20Q259 -26 268 -38Q279 -53 279 -63Q279 -65 278 -68Q285 -72 292 -77Q291 -89 289 -102V-107Q293 -106 300 -99Q309 -90 320 -90H322Q322 -98 311 -113Q299 -130 299 -139Q323 -123 339 -100H340Q348 -100 357 -94Q366 -88 371 -88Q374 -88 376 -89Q388 -81 388 -68Q396 -65 403 -65Q434 -69 471 -77Q502 -83 533 -90Q593 -101 603 -104Q638 -114 652 -136L656 -137H662Q668 -144 674 -159Q681 -176 686 -181Q687 -179 687 -175Q687 -170 681 -140Q683 -139 687 -139Q693 -139 699 -149Q705 -159 711 -159H712V-157Q710 -146 708 -136Q712 -132 717 -132Q727 -136 742 -140L743 -139Q739 -135 735 -126V-125Q736 -117 746 -111Q755 -104 760 -98Q767 -100 773 -102L777 -101L778 -99Q778 -96 773 -92Q768 -88 767 -86Q771 -77 771 -56Q771 -23 761 -1Q750 4 737 7Q723 10 721 25ZM942 -329V-324Q938 -291 934 -258Q934 -241 942 -230Q939 -219 939 -210Q939 -194 946 -169Q954 -140 954 -127Q954 -119 953 -115Q938 -97 906 -97Q875 -97 855 -115Q839 -132 822 -156Q800 -181 745 -236Q699 -282 674 -310Q670 -306 670 -299Q671 -292 671 -285Q652 -283 641 -263Q627 -266 592 -266Q565 -266 551 -269Q553 -278 572 -280Q587 -282 591 -287Q586 -298 565 -298Q558 -297 551 -297Q529 -295 461 -280Q436 -276 414 -272Q391 -269 382 -253Q388 -244 401 -244Q413 -244 437 -252Q468 -262 480 -262Q488 -262 495 -259Q477 -246 430 -237Q385 -228 369 -218Q361 -211 349 -200Q338 -190 324 -189Q319 -189 316 -190Q314 -190 305 -202Q296 -209 283 -218Q270 -227 269 -240Q269 -242 271 -248Q255 -237 236 -209Q217 -182 206 -173Q208 -196 232 -222Q256 -248 258 -266Q215 -244 164 -178Q139 -147 139 -119Q139 -110 142 -101Q151 -105 161 -118Q172 -133 181 -136Q178 -130 144 -44Q139 -44 133 -45Q107 -45 101 -29Q98 -32 98 -36Q99 -41 99 -46Q88 -51 74 -52Q59 -53 54 -65V-69Q56 -83 58 -97V-101Q55 -109 52 -118V-124Q55 -148 57 -172V-190Q57 -215 56 -241Q56 -267 62 -290Q64 -256 67 -224Q69 -192 93 -182Q195 -283 295 -394Q257 -388 237 -365Q229 -366 218 -367Q207 -367 200 -372Q195 -375 189 -386Q182 -398 178 -401Q165 -408 157 -413Q153 -421 153 -432Q153 -453 164 -464Q163 -476 161 -488Q161 -491 163 -497Q169 -511 197 -525Q201 -527 240 -544L242 -542Q242 -541 238 -538Q233 -534 233 -531L234 -527Q240 -524 248 -524Q260 -524 283 -531Q304 -537 311 -538Q305 -544 271 -555Q272 -558 272 -561Q272 -569 265 -574Q258 -579 249 -579Q243 -579 231 -575Q232 -580 239 -585Q245 -589 246 -593Q242 -609 214 -612Q176 -615 170 -619Q177 -623 185 -623Q198 -622 211 -621Q221 -621 225 -624Q236 -631 236 -646Q236 -661 224 -685Q235 -679 247 -671Q257 -679 268 -687Q279 -695 292 -696Q289 -729 289 -730Q293 -730 299 -719Q304 -710 307 -708Q309 -709 314 -709Q332 -705 344 -701H345Q349 -701 353 -707Q357 -712 364 -713Q361 -705 361 -699Q362 -689 369 -682Q377 -676 384 -665Q386 -660 388 -655Q395 -646 401 -639Q408 -632 410 -619L412 -618Q419 -621 426 -624L429 -623Q421 -613 412 -584Q404 -559 396 -547L496 -564Q527 -567 543 -586Q557 -606 567 -626Q577 -645 600 -651Q596 -639 583 -622Q570 -606 567 -595Q575 -593 577 -593Q592 -594 601 -608Q611 -623 619 -636Q626 -645 639 -659Q660 -680 665 -692Q659 -704 652 -704Q646 -704 633 -689Q622 -676 616 -674V-678Q616 -688 624 -702Q632 -715 632 -722V-724Q632 -756 579 -774Q584 -777 590 -777Q607 -775 623 -773Q638 -773 643 -783Q639 -790 633 -791Q626 -793 619 -794Q623 -803 647 -806Q664 -809 680 -809Q706 -808 732 -807Q746 -807 754 -808Q792 -784 804 -739Q805 -736 810 -736H814Q807 -725 807 -706Q807 -692 808 -685Q762 -661 748 -652Q717 -631 702 -604Q731 -609 760 -614Q769 -605 784 -605Q794 -605 816 -612Q838 -619 849 -619Q853 -619 861 -617Q859 -615 827 -604Q806 -597 801 -582Q806 -579 809 -579Q814 -579 822 -583Q834 -589 840 -589H843Q833 -583 823 -576Q813 -570 808 -558H809Q816 -561 829 -565Q832 -564 834 -564Q831 -559 824 -555Q815 -550 813 -544Q814 -532 814 -520Q814 -498 809 -488Q803 -476 785 -472Q773 -470 765 -470Q726 -472 687 -475Q661 -475 649 -469Q665 -445 689 -427Q714 -408 730 -380Q721 -383 706 -396Q689 -411 675 -413Q673 -409 673 -406Q673 -403 681 -392Q705 -366 735 -344Q757 -323 780 -298Q803 -274 835 -268Q836 -271 836 -275Q836 -287 821 -299Q806 -312 804 -322Q822 -317 834 -306Q846 -295 859 -285Q874 -288 881 -307Q888 -329 902 -337Q900 -326 896 -315Q888 -294 888 -281Q898 -298 912 -341Q922 -371 930 -388Q929 -376 921 -342Q911 -299 911 -276Q911 -265 912 -260Q922 -274 932 -308Q933 -314 933 -320Q933 -328 942 -329Z"/>
</svg>