<svg xmlns="http://www.w3.org/2000/svg" viewBox="0 -800 1024 1024">
	<path fill="#000000" d="M81 -301Q67 -304 65 -317Q65 -322 70 -323Q82 -317 82 -305ZM899 -636H904Q896 -623 879 -616V-628Q888 -634 899 -636ZM925 -154Q922 -141 919 -129Q911 -129 911 -142Q911 -156 920 -156Q921 -156 925 -154ZM219 7V4Q219 -8 234 -8Q244 -8 247 -2Q242 8 227 8Q221 8 219 7ZM329 -509Q316 -506 304 -494Q291 -481 278 -470Q266 -462 253 -455Q245 -446 245 -433Q245 -421 253 -408Q262 -410 277 -420Q294 -431 308 -432Q323 -476 329 -509ZM903 -80V-75Q903 -65 902 -56Q902 -38 910 -27Q914 -38 914 -56Q913 -75 912 -95Q912 -113 916 -122Q922 -86 925 -48Q929 -10 946 15Q945 19 945 27Q945 38 950 50Q938 84 925 112Q912 114 896 115Q879 117 867 124Q835 113 810 75Q794 50 774 0Q765 -18 761 -36Q761 -40 762 -42Q771 -32 785 -7Q804 28 820 38Q823 35 826 32Q805 -16 780 -59Q755 -103 731 -148Q726 -144 726 -136Q726 -131 732 -115Q737 -102 737 -95V-91H736Q729 -91 723 -98Q721 -101 715 -111Q705 -130 693 -150Q682 -169 662 -180Q648 -166 638 -131Q612 -37 583 57Q565 61 547 64Q535 64 527 56Q518 60 509 63L508 59Q508 52 516 47Q506 27 497 6Q487 -16 475 -28L479 -29Q484 -28 489 -27H491Q493 -35 493 -38Q493 -55 467 -74Q449 -88 444 -97Q477 -79 507 -60Q527 -75 539 -96Q550 -118 561 -140L558 -141Q553 -141 543 -135Q528 -126 519 -126H518Q514 -127 499 -135Q496 -138 496 -144V-147Q468 -162 468 -190Q468 -196 469 -200Q473 -210 476 -220V-223Q476 -229 475 -236V-238Q475 -269 507 -291Q510 -284 513 -277Q569 -292 618 -314Q626 -342 633 -371Q605 -363 582 -344Q566 -331 546 -304Q530 -302 518 -298Q449 -327 449 -379Q449 -384 451 -398Q459 -431 467 -449Q475 -461 482 -473Q487 -491 493 -512Q498 -533 510 -545Q511 -540 511 -536Q507 -511 503 -486Q503 -477 506 -470Q514 -472 516 -480Q518 -489 519 -496Q527 -527 538 -558Q548 -585 548 -595Q548 -608 537 -618Q531 -607 528 -592Q525 -578 513 -573Q515 -587 515 -597Q515 -606 512 -612Q500 -568 500 -566Q485 -556 470 -531Q464 -520 444 -481Q415 -419 415 -387Q418 -377 420 -367Q419 -345 401 -321Q381 -295 362 -295Q347 -295 337 -311V-307Q337 -301 332 -291Q328 -283 328 -278Q328 -274 329 -272L332 -270Q382 -288 433 -304Q431 -299 429 -295L430 -291L433 -289Q439 -290 444 -291Q441 -285 441 -281Q441 -274 447 -264Q453 -254 453 -249V-248Q450 -232 446 -216Q446 -210 450 -203Q432 -187 427 -180Q422 -180 416 -181Q403 -181 375 -172Q360 -167 347 -165Q346 -154 341 -145Q354 -147 386 -156Q435 -169 457 -171Q450 -166 441 -161Q431 -156 430 -147Q430 -141 432 -138Q442 -140 451 -142Q456 -142 459 -138Q456 -133 442 -127Q430 -122 430 -111V-110Q430 -105 438 -105Q431 -93 431 -78Q431 -67 436 -62Q362 -38 284 -19Q292 -41 316 -43Q341 -44 361 -62Q354 -65 344 -65Q329 -65 312 -60Q291 -52 270 -45Q239 -36 209 -28Q179 -19 164 9Q169 14 175 14Q187 12 198 10Q201 10 207 12Q202 20 189 27Q176 34 170 41Q160 57 153 71Q146 85 123 89H121Q116 89 111 88Q108 88 106 89Q93 83 88 82Q80 67 65 62Q49 57 44 42V39Q46 29 47 19Q45 12 43 4Q42 -1 42 -9Q42 -38 65 -63Q77 -76 108 -97Q105 -91 99 -71Q99 -66 102 -63Q130 -74 161 -82Q157 -107 142 -131Q87 -134 87 -206V-222Q87 -244 100 -249V-251Q100 -261 92 -276Q86 -286 85 -294H86Q94 -294 103 -279Q110 -267 115 -264Q121 -268 121 -273Q121 -276 117 -282Q111 -291 111 -295Q135 -279 196 -269Q198 -260 209 -246Q221 -231 222 -220Q221 -209 219 -198V-190Q219 -157 229 -105Q243 -111 256 -117Q251 -125 251 -141Q251 -154 257 -159Q253 -165 253 -176Q253 -195 263 -198Q267 -192 267 -171Q267 -142 278 -137Q286 -148 286 -173Q286 -188 284 -216V-244Q284 -266 272 -272Q266 -268 265 -259Q264 -250 261 -243Q251 -246 249 -269Q247 -288 242 -292Q236 -295 232 -295Q226 -295 217 -290Q208 -285 204 -285Q192 -285 179 -300Q169 -312 162 -315Q164 -321 164 -325Q162 -338 160 -352Q160 -357 161 -360Q166 -355 170 -348Q174 -340 181 -339Q185 -339 189 -342V-344Q185 -375 170 -404Q166 -417 162 -430Q158 -443 143 -444H139Q134 -436 134 -431Q134 -423 144 -410Q156 -394 156 -383V-378Q145 -383 134 -404Q127 -418 121 -424Q112 -433 78 -449Q66 -471 58 -534Q64 -544 73 -550Q81 -557 82 -571Q82 -576 81 -579Q96 -580 103 -596L96 -638Q100 -636 105 -627Q110 -619 114 -616Q117 -616 118 -619Q118 -622 121 -622Q118 -630 111 -642Q101 -658 99 -669Q109 -666 120 -650Q131 -634 142 -630Q140 -643 124 -665Q110 -685 106 -697Q127 -679 142 -656Q158 -633 193 -630Q199 -596 210 -562Q228 -572 275 -604Q327 -639 361 -656Q368 -675 374 -694Q388 -700 404 -711Q420 -722 436 -723Q448 -723 459 -713Q483 -721 504 -732Q503 -726 495 -719Q485 -709 485 -702Q485 -701 487 -693L489 -692Q492 -695 494 -698L496 -697Q498 -681 515 -657Q528 -671 541 -690Q553 -708 575 -710H580Q594 -708 609 -694Q615 -689 635 -666Q668 -631 670 -603Q670 -595 665 -583Q660 -570 660 -564V-562Q623 -543 618 -507Q624 -507 633 -512Q640 -516 646 -516H650Q660 -528 670 -528Q678 -593 682 -663Q682 -704 670 -731Q673 -735 673 -741Q673 -750 667 -762L669 -763Q672 -761 675 -760H676Q674 -774 669 -785Q683 -772 704 -772Q719 -772 740 -780Q764 -764 779 -743Q799 -716 799 -687Q799 -682 798 -677Q798 -671 791 -658Q785 -646 785 -637Q785 -633 786 -630Q775 -623 772 -608Q768 -593 765 -578Q775 -580 795 -590Q815 -601 826 -603L828 -602Q821 -601 821 -598V-596Q828 -596 840 -604Q856 -614 866 -614H871Q852 -603 850 -601Q839 -593 836 -581Q838 -578 839 -576H842Q856 -580 870 -584Q866 -577 860 -571Q855 -565 854 -557Q854 -552 855 -549H856Q863 -552 869 -555Q870 -555 874 -553Q861 -543 861 -517Q861 -501 864 -486Q851 -476 848 -472Q840 -463 838 -453Q807 -446 765 -436Q723 -426 706 -399Q699 -376 695 -342H698Q704 -342 718 -348Q736 -356 747 -356Q750 -355 753 -355V-354Q752 -348 742 -343Q732 -339 724 -335Q711 -329 705 -325Q696 -319 694 -311Q699 -307 704 -304Q769 -331 826 -366Q821 -372 810 -372Q793 -369 775 -366V-368Q775 -374 782 -379Q789 -384 796 -384Q810 -402 838 -415V-414Q838 -407 844 -403Q853 -397 854 -396Q866 -406 885 -408Q871 -401 868 -385Q868 -376 877 -372H878Q882 -372 887 -377Q891 -381 892 -381L895 -380Q891 -372 891 -365Q891 -356 895 -349Q899 -342 906 -342Q903 -336 903 -330Q903 -322 909 -309Q915 -295 915 -289V-286Q912 -267 877 -254Q852 -248 827 -242Q795 -231 761 -201Q770 -179 785 -159Q799 -139 812 -119Q839 -74 864 -37Q875 -43 876 -71Q878 -101 885 -108Q883 -98 883 -93Q883 -84 888 -59Q893 -72 893 -89Q892 -117 890 -146Q890 -175 900 -186Q898 -168 898 -160Q901 -120 903 -80Z"/>
</svg>