<svg xmlns="http://www.w3.org/2000/svg" viewBox="0 -800 1024 1024">
	<path fill="#000000" d="M63 -371V-372Q63 -380 71 -380Q81 -380 83 -372Q80 -369 71 -369Q65 -369 63 -371ZM921 -692H912Q912 -713 927 -713Q924 -702 921 -692ZM223 -588Q213 -572 200 -569Q202 -588 217 -590Q219 -590 223 -588ZM912 -240V-236Q912 -223 903 -212Q899 -215 899 -224Q899 -235 903 -245Q908 -243 912 -240ZM704 -347H706Q713 -360 717 -371H714Q680 -371 637 -346Q631 -343 625 -341Q619 -339 619 -333V-331H624Q636 -331 659 -338Q689 -347 704 -347ZM242 -361H244Q231 -347 229 -306Q258 -331 287 -356Q278 -357 272 -365Q270 -367 262 -381H253Q249 -381 247 -383Q251 -390 252 -397Q240 -409 240 -435V-440Q197 -410 191 -404Q200 -395 210 -379Q223 -359 229 -353Q235 -359 242 -361ZM396 -173H394Q346 -128 325 -105Q289 -66 266 -26Q269 -24 276 -24Q292 -24 315 -47Q378 -107 398 -170ZM730 -460V-457Q730 -453 729 -449L730 -446Q733 -449 734 -449Q738 -445 742 -441Q758 -488 759 -500Q733 -500 681 -476Q661 -469 640 -460Q620 -452 610 -433Q612 -431 612 -427Q612 -420 611 -414Q611 -410 614 -407Q643 -420 674 -432Q704 -444 730 -460ZM176 -178V-176Q174 -170 172 -164Q180 -152 187 -152Q197 -153 207 -164Q217 -175 225 -184Q288 -255 320 -286Q316 -290 311 -295Q281 -278 226 -223Q220 -217 214 -211Q208 -204 200 -202V-206Q200 -217 208 -217H210Q215 -229 233 -246Q250 -262 255 -274Q227 -266 203 -243Q179 -220 157 -203Q135 -187 129 -179Q117 -165 117 -152Q117 -147 122 -140Q133 -142 146 -159Q160 -177 176 -178ZM442 -73H443Q442 -59 430 -40Q421 -27 419 -16Q447 -33 478 -76Q518 -132 529 -143Q530 -148 547 -169Q574 -202 574 -216Q574 -229 554 -232Q545 -239 540 -249Q535 -260 529 -269Q534 -274 536 -287Q538 -300 540 -303Q545 -303 547 -295Q549 -287 554 -287Q564 -291 564 -308V-313Q564 -342 552 -366Q538 -394 518 -394H517Q517 -391 516 -389Q516 -379 527 -362Q538 -345 538 -336Q538 -334 536 -328Q528 -333 520 -349Q512 -367 506 -372Q479 -373 474 -404Q405 -395 387 -358Q399 -350 410 -343Q428 -321 445 -282Q464 -239 465 -205Q465 -134 450 -131Q449 -135 449 -144Q451 -169 452 -194Q452 -216 443 -226Q432 -213 432 -194Q431 -175 429 -152Q427 -133 411 -95Q398 -64 397 -49V-41Q397 -31 404 -26Q407 -27 413 -36Q421 -47 426 -50Q428 -73 442 -73ZM937 90H930Q922 90 906 97Q900 96 887 96Q845 99 803 101Q793 101 777 99Q788 86 825 86H855Q889 86 899 76Q891 64 867 64Q839 66 811 68H802Q796 68 751 65Q740 65 728 64Q710 64 702 73Q704 85 717 86Q729 88 740 93Q736 102 727 102Q718 102 708 97Q650 81 644 13V8Q644 -21 661 -87Q678 -153 678 -181Q677 -198 675 -216V-223Q676 -232 682 -243Q687 -253 688 -257H691Q695 -257 697 -253Q698 -250 699 -247Q710 -253 719 -253Q740 -253 770 -221Q768 -211 768 -208Q768 -200 773 -185Q777 -173 777 -164V-160Q775 -149 765 -138Q754 -127 746 -119Q729 -101 723 -92Q712 -76 712 -60Q712 -48 717 -37Q784 -39 850 -41Q875 -71 879 -136V-151Q879 -171 890 -173Q886 -137 884 -49Q893 -66 893 -119V-127Q893 -184 905 -203Q904 -144 902 -85Q902 -59 903 -46Q909 -57 909 -80V-101Q911 -146 920 -160Q922 -152 922 -135Q921 -106 920 -77Q920 -37 940 -26V-21Q940 -9 952 18Q962 40 962 53V56Q960 67 951 74Q943 81 937 90ZM441 71V70Q441 59 427 42Q415 27 414 19V17Q416 9 418 1Q418 -1 416 -5Q399 9 382 36Q365 63 349 83Q340 95 322 95Q311 95 293 90Q288 85 281 68Q273 49 265 43V38Q265 29 259 20Q253 11 253 5H254Q259 5 261 8Q263 11 265 11H266Q269 7 269 2Q269 -7 259 -22Q241 -3 224 16Q206 35 197 64Q181 65 164 65Q147 35 142 26Q146 21 146 14Q143 -1 139 -17L141 -19Q143 -18 146 -12Q149 -6 154 -5Q147 -31 139 -58Q145 -54 152 -42Q160 -28 167 -25Q219 -65 276 -124Q307 -156 376 -232Q341 -222 311 -193Q281 -164 256 -136Q242 -120 240 -116Q235 -106 228 -93Q222 -79 210 -76H204Q183 -78 176 -99Q170 -121 164 -142H166Q171 -140 175 -139H176V-141Q176 -142 170 -160Q152 -152 141 -138Q129 -125 117 -110Q99 -119 81 -128Q80 -141 73 -148Q66 -155 60 -163Q68 -171 68 -183Q68 -198 55 -220H57Q63 -218 68 -214Q54 -260 46 -281Q54 -276 66 -251Q78 -226 89 -220Q148 -251 203 -286H201Q192 -286 176 -294Q162 -301 156 -301Q148 -301 143 -295Q141 -296 141 -299Q142 -306 143 -313V-315Q140 -321 136 -323Q134 -324 130 -324Q122 -324 111 -314Q103 -306 98 -305Q98 -311 110 -321Q122 -330 122 -338V-339Q121 -351 110 -357Q99 -364 89 -371Q91 -373 95 -373Q100 -372 105 -372Q113 -377 113 -387Q113 -392 111 -395Q128 -398 128 -409Q128 -417 119 -424Q109 -432 98 -432Q91 -432 87 -430Q93 -435 96 -443Q95 -451 84 -455Q79 -454 70 -449Q59 -443 55 -443Q51 -443 49 -444Q50 -451 60 -459Q70 -467 70 -473Q70 -475 69 -478Q67 -479 63 -479Q51 -474 39 -470Q36 -470 31 -473Q32 -480 38 -483Q44 -485 49 -487Q100 -515 148 -547Q170 -563 188 -563H190Q178 -548 156 -538Q131 -527 130 -510Q130 -505 131 -502Q151 -508 187 -533Q261 -583 264 -586Q308 -618 333 -648Q328 -652 322 -652Q313 -652 297 -639Q286 -630 280 -628Q284 -646 308 -665Q332 -684 336 -701Q331 -706 320 -706Q310 -705 300 -704H298Q303 -716 319 -719Q335 -723 352 -728Q367 -734 380 -741Q393 -748 408 -749Q417 -749 426 -746Q435 -743 441 -735Q443 -732 450 -717H455Q474 -717 485 -704Q495 -692 496 -674Q493 -660 490 -647Q494 -628 497 -610V-608Q494 -593 491 -578Q462 -563 432 -557Q410 -550 381 -532Q331 -503 287 -470Q300 -464 309 -452Q317 -440 326 -428Q333 -430 340 -433Q338 -422 335 -412Q335 -407 339 -403Q381 -445 402 -479Q400 -490 372 -490Q374 -496 381 -498Q388 -501 397 -506Q414 -517 419 -519Q435 -527 450 -527Q454 -527 466 -525Q475 -522 481 -515Q486 -519 492 -534Q499 -551 508 -556Q510 -546 511 -536Q518 -538 524 -540Q527 -540 529 -539Q543 -546 560 -587Q566 -603 570 -617Q575 -631 591 -634Q588 -621 580 -604Q568 -578 566 -562H569Q576 -563 580 -569Q584 -575 588 -581Q614 -620 631 -666Q628 -673 627 -678Q625 -684 619 -685H618Q611 -685 607 -674Q603 -662 597 -660Q594 -664 594 -670Q597 -683 600 -696Q600 -698 599 -701Q596 -713 580 -713H568Q561 -713 557 -714Q560 -721 575 -726Q587 -730 591 -735Q590 -742 584 -742Q582 -742 574 -740Q588 -748 610 -768Q642 -797 659 -804Q678 -811 692 -811Q696 -810 700 -810Q717 -808 725 -796Q733 -785 742 -772Q754 -759 766 -746Q778 -734 779 -712V-706Q777 -683 765 -669Q753 -658 735 -652Q714 -646 712 -620Q697 -613 689 -598Q681 -583 672 -569Q686 -576 712 -582Q753 -592 757 -593Q808 -608 817 -644Q821 -643 822 -638Q823 -634 823 -629Q827 -628 835 -628Q867 -631 881 -654Q894 -675 914 -683Q906 -667 896 -653Q886 -640 882 -619Q888 -608 900 -608Q915 -608 933 -619Q933 -616 926 -610Q918 -603 917 -596L916 -592Q917 -585 918 -578V-576Q924 -577 925 -581Q927 -586 933 -587H934Q930 -570 926 -556V-554Q929 -543 931 -533V-532Q931 -518 915 -504Q901 -492 897 -482V-481Q901 -482 904 -483L906 -481Q906 -475 901 -474Q896 -472 893 -470Q886 -460 874 -434Q858 -398 845 -386V-390Q845 -403 857 -426Q867 -445 867 -454Q867 -464 860 -472Q847 -466 840 -451Q834 -435 828 -419Q810 -376 807 -356Q805 -346 805 -339Q805 -329 810 -323Q815 -325 819 -335Q825 -349 835 -349H837Q828 -334 826 -302Q822 -267 814 -257Q798 -237 779 -237Q763 -237 742 -257Q727 -272 718 -275H706Q650 -275 628 -254V-253Q628 -249 635 -249H637Q642 -249 643 -248Q644 -241 656 -233Q669 -224 670 -217L671 -214Q669 -207 667 -200Q668 -189 668 -179Q668 -168 664 -160Q643 -153 623 -127Q598 -95 588 -88Q580 -73 562 -48Q539 -16 531 1Q529 15 517 34Q512 56 506 71Q494 87 478 91Q470 91 462 82Q452 71 441 71Z"/>
</svg>