<svg xmlns="http://www.w3.org/2000/svg" viewBox="0 -800 1024 1024">
	<path fill="#000000" d="M602 -204H594Q611 -192 623 -192Q626 -192 628 -193Q627 -204 602 -204ZM905 -526Q902 -516 884 -508Q882 -514 882 -516Q884 -531 896 -533Q901 -533 905 -526ZM594 -214H599Q626 -216 652 -219Q685 -272 730 -352H727Q695 -346 669 -341Q643 -335 626 -315Q615 -310 603 -305Q591 -300 588 -289V-286Q593 -269 597 -247Q595 -234 593 -222Q593 -217 594 -214ZM470 -497H467Q463 -497 458 -494Q457 -490 457 -483Q457 -472 462 -450Q455 -435 448 -421Q442 -407 428 -403Q425 -402 419 -402Q403 -402 383 -424Q365 -444 352 -447Q349 -447 345 -448Q317 -448 277 -423Q262 -414 258 -399Q237 -396 224 -390Q219 -395 219 -400Q219 -404 226 -408Q228 -409 239 -414Q243 -416 251 -427Q260 -439 267 -444Q275 -449 288 -452Q304 -456 308 -462Q304 -463 297 -463Q281 -463 257 -450Q236 -439 226 -439H224Q217 -439 207 -448Q196 -457 184 -459Q181 -453 181 -449Q182 -439 192 -430Q202 -422 209 -414Q208 -407 201 -402Q185 -407 176 -420Q167 -434 156 -444Q147 -449 139 -452Q130 -456 125 -465Q124 -469 124 -477Q125 -496 133 -507Q141 -517 150 -528Q142 -539 142 -557Q142 -572 148 -588Q178 -603 212 -624L213 -620Q213 -617 210 -614Q206 -610 206 -606V-603Q212 -600 218 -600Q244 -604 265 -613Q259 -621 259 -633Q262 -651 265 -670V-672Q262 -690 259 -708Q259 -713 262 -718Q267 -714 272 -702Q278 -688 284 -685L285 -689Q283 -696 281 -703Q281 -706 284 -709Q288 -706 295 -693Q301 -682 310 -681L311 -684V-693Q317 -690 326 -681Q338 -669 347 -667Q352 -664 354 -658H356Q365 -658 375 -646Q387 -649 397 -649Q412 -649 434 -644V-642Q433 -636 431 -631Q432 -621 446 -606Q455 -596 459 -589Q463 -582 467 -559Q474 -533 474 -531Q474 -522 465 -513L464 -511Q464 -510 467 -507Q471 -503 471 -500ZM817 -588H806Q801 -573 801 -572Q801 -567 803 -565Q800 -567 797 -569L798 -565Q796 -557 793 -549Q794 -546 794 -544Q772 -542 765 -542Q755 -542 745 -543Q744 -545 744 -549Q744 -556 759 -560Q773 -563 775 -569Q776 -571 776 -574Q776 -582 767 -582Q747 -578 732 -572Q707 -565 674 -556Q646 -548 644 -531V-529H652Q666 -529 695 -537Q711 -541 724 -543Q720 -529 708 -525Q696 -521 684 -519Q657 -513 635 -502Q619 -490 613 -470Q607 -451 600 -430Q593 -427 582 -427Q561 -427 561 -442Q561 -444 563 -450Q550 -459 525 -459Q509 -459 492 -456Q508 -466 524 -477Q540 -488 548 -508Q530 -528 519 -555Q508 -582 495 -607Q491 -608 487 -609L485 -608Q496 -633 528 -643Q560 -652 593 -660Q602 -690 606 -719Q603 -722 598 -722Q596 -722 584 -718Q578 -715 570 -702Q562 -689 555 -687Q572 -754 597 -782Q631 -819 655 -819H656Q677 -819 721 -784Q748 -760 775 -736Q772 -728 772 -721V-716Q769 -717 765 -717Q747 -717 747 -705Q747 -702 748 -700Q752 -703 784 -716Q799 -723 815 -726Q820 -726 822 -724Q810 -716 794 -711Q777 -706 776 -688H780Q791 -688 809 -697Q807 -692 799 -688Q791 -683 790 -674V-673Q794 -665 804 -665Q813 -666 821 -667H823L825 -665Q821 -662 817 -656V-654Q818 -649 826 -645Q833 -642 834 -640Q822 -636 818 -624Q814 -612 807 -603Q812 -595 817 -588ZM346 -1H344Q347 -5 352 -6Q349 -9 331 -18Q337 -23 350 -27Q367 -32 372 -39Q380 -54 382 -79Q369 -78 341 -61Q331 -55 321 -49Q310 -43 299 -42Q306 -62 326 -69Q346 -77 364 -88Q360 -89 353 -89Q321 -85 290 -63Q270 -54 254 -45Q237 -37 236 -11V-9H238Q246 -9 260 -22Q272 -34 280 -34Q284 -34 286 -33Q285 -23 270 -9Q252 8 252 24Q245 21 236 21Q226 22 216 22Q209 22 206 21Q197 19 185 4Q172 -12 162 -13Q159 -33 151 -47Q143 -61 136 -75Q153 -99 167 -124Q175 -125 182 -126H185Q184 -133 174 -146Q162 -161 160 -172Q162 -173 165 -173Q173 -173 184 -154Q192 -141 196 -141H197Q201 -141 201 -145Q201 -153 188 -166Q151 -219 131 -235Q129 -227 129 -225Q129 -215 140 -201Q153 -185 153 -174Q128 -185 112 -219Q111 -220 89 -283Q90 -296 90 -310Q90 -323 99 -330Q82 -366 78 -405Q82 -404 87 -390Q96 -371 101 -364Q112 -349 125 -348Q117 -369 113 -391V-396Q120 -393 123 -384Q125 -374 129 -367Q136 -359 144 -357Q146 -357 150 -359L151 -360Q150 -364 148 -368Q148 -370 150 -372Q161 -354 185 -343Q197 -340 205 -340Q221 -341 236 -343Q289 -374 328 -438Q408 -386 418 -293Q402 -293 400 -273Q397 -273 394 -274Q387 -274 377 -268Q366 -262 360 -261H356Q341 -263 325 -265H320Q288 -261 288 -228Q288 -202 305 -178H306Q310 -179 313 -180L316 -178Q325 -189 349 -196Q361 -195 366 -201V-202Q365 -206 359 -211Q352 -216 348 -219Q369 -269 437 -269Q451 -269 459 -268Q485 -240 495 -217Q492 -207 480 -192Q465 -172 462 -157Q457 -161 457 -169Q460 -189 468 -204Q466 -207 464 -210Q449 -207 444 -190Q442 -184 440 -154Q435 -122 432 -91Q432 -85 434 -73Q440 -90 442 -111Q445 -132 459 -139Q450 -107 450 -61Q450 -22 456 12Q448 19 440 25Q432 32 427 41Q406 34 387 27Q368 20 358 3Q352 1 346 -1ZM563 131H561Q554 131 544 124Q536 118 529 117Q503 98 494 63Q485 28 472 -3Q476 -7 480 -9Q473 -22 461 -31H464Q471 -31 481 -27Q508 -66 510 -132Q513 -197 522 -255Q510 -264 496 -271Q495 -274 495 -279V-283Q479 -289 476 -310Q471 -346 470 -348Q468 -356 456 -366Q446 -375 444 -382Q447 -381 487 -370Q504 -377 522 -384Q539 -391 563 -392Q570 -391 576 -391Q572 -386 559 -382Q544 -377 540 -372Q544 -371 552 -371Q592 -375 626 -393Q700 -419 712 -423Q708 -428 701 -428Q696 -428 683 -423Q660 -416 638 -408Q616 -400 591 -396Q599 -410 616 -416Q632 -423 646 -428Q676 -438 707 -447Q739 -456 769 -472Q802 -487 831 -505Q837 -510 848 -525Q862 -544 873 -549H876Q871 -538 863 -525Q855 -512 854 -498Q854 -493 858 -483Q863 -487 868 -492Q872 -498 882 -499Q877 -484 871 -469Q878 -459 887 -449Q895 -440 906 -439Q914 -439 921 -445Q916 -428 915 -424Q915 -421 921 -420Q925 -419 926 -418Q930 -382 933 -346Q933 -336 932 -331Q926 -316 922 -299Q922 -294 923 -292Q915 -294 911 -294Q897 -294 878 -279Q864 -268 856 -265Q855 -268 855 -273Q855 -285 875 -298Q890 -308 890 -314Q890 -321 881 -327Q869 -325 861 -315Q860 -313 849 -296L845 -297Q840 -296 835 -295Q809 -281 791 -238Q772 -190 772 -161V-157Q811 -224 822 -238Q831 -238 839 -248Q847 -258 858 -258H859V-257Q859 -253 849 -243L835 -226Q824 -206 813 -187Q807 -182 800 -177Q787 -160 769 -122Q748 -78 732 -60V-49Q729 -48 725 -48Q714 -48 702 -60Q693 -69 686 -69H683Q661 -92 641 -117Q627 -150 620 -159Q619 -160 610 -166Q603 -171 603 -176V-177H605Q615 -173 623 -168Q620 -177 610 -183Q602 -188 594 -189Q592 -157 592 -137Q593 -118 593 -99Q595 -80 596 -61Q596 -42 588 -33Q582 -49 582 -88V-108Q582 -144 576 -163Q568 -121 568 -69Q568 -1 581 41Q585 35 586 16Q587 -5 591 -10Q597 -6 597 0Q597 6 596 11Q603 34 609 59V60Q609 79 594 104Q578 130 563 131Z"/>
</svg>