<svg xmlns="http://www.w3.org/2000/svg" viewBox="0 -800 1024 1024">
	<path fill="#000000" d="M88 26V23Q88 17 91 14H95Q102 14 109 13Q114 13 115 18Q103 24 88 26ZM629 -31Q620 -31 615 -36Q613 -38 608 -48Q611 -52 614 -52Q619 -52 625 -46Q630 -41 630 -35ZM860 -147Q857 -135 851 -124Q845 -125 845 -136Q845 -153 853 -153Q857 -153 860 -147ZM534 -655H537Q533 -650 533 -643Q537 -626 541 -610Q539 -599 536 -589Q536 -583 540 -579Q531 -561 531 -557Q531 -554 532 -552Q517 -537 512 -520Q487 -514 466 -509Q446 -504 435 -484Q438 -481 438 -475Q436 -466 434 -457Q434 -456 436 -450Q430 -435 424 -420Q409 -414 392 -414Q357 -414 344 -435Q339 -433 334 -431Q335 -434 335 -439Q332 -452 329 -465Q302 -459 278 -454V-456Q278 -462 299 -469Q314 -474 318 -478Q314 -488 296 -488Q274 -488 249 -478Q223 -468 221 -459V-457Q222 -452 223 -447Q227 -445 230 -445Q241 -447 251 -450Q252 -450 258 -448Q252 -440 235 -434Q223 -430 217 -425Q211 -421 205 -413Q200 -406 193 -405Q190 -404 187 -404Q157 -410 147 -425Q137 -442 126 -460Q117 -468 110 -474Q102 -481 102 -494Q102 -501 103 -505Q106 -517 112 -528Q121 -537 126 -544V-549Q126 -558 115 -576Q106 -591 106 -599V-600H109Q114 -600 118 -593Q122 -586 128 -586H129V-589Q129 -596 120 -605Q110 -616 110 -622Q110 -625 111 -627Q117 -625 125 -616Q136 -605 146 -603V-604Q146 -606 141 -612Q136 -618 135 -624Q173 -605 216 -601Q232 -601 247 -607Q255 -642 271 -668Q288 -694 304 -720Q309 -720 310 -713Q311 -708 314 -708H316Q319 -708 319 -712Q319 -717 321 -717Q332 -713 342 -713Q350 -713 358 -714Q367 -714 377 -711Q387 -706 394 -699V-693Q400 -686 412 -675Q425 -665 426 -651V-648Q428 -647 433 -647Q440 -647 454 -654Q463 -658 470 -660Q485 -663 501 -665Q517 -667 532 -676L533 -674Q528 -668 523 -658L524 -655L526 -654Q530 -654 534 -655ZM894 29V37Q894 120 811 120Q804 120 796 119Q751 91 723 69Q685 38 664 5Q674 8 690 24Q713 47 734 49Q723 24 697 -3Q684 -16 647 -49Q630 -65 613 -82Q596 -99 574 -105Q574 -97 589 -82Q602 -68 603 -60Q584 -64 574 -77Q563 -91 550 -106Q502 -152 492 -159Q476 -152 467 -133Q458 -115 450 -93Q402 20 382 88Q374 89 364 97Q355 105 349 106Q347 107 343 107Q326 104 309 100Q304 100 302 101Q294 89 283 79Q272 70 267 54Q257 38 235 35Q213 32 196 24Q202 25 213 25Q225 25 253 21Q238 14 213 14Q184 15 154 16Q139 16 132 15Q163 6 198 1Q232 -4 261 -21Q278 -33 290 -48Q303 -63 315 -78Q343 -106 364 -139Q362 -140 357 -140Q342 -137 329 -130Q311 -125 293 -120Q282 -115 264 -99Q241 -78 224 -77Q196 -77 174 -96Q171 -105 171 -106Q161 -112 151 -116Q140 -121 137 -132Q136 -135 136 -140Q136 -163 158 -181Q156 -189 156 -191Q158 -210 175 -220Q193 -229 207 -238Q231 -259 253 -267V-266Q253 -263 247 -256Q237 -244 236 -238Q242 -230 256 -230Q269 -230 281 -231Q292 -231 297 -228Q307 -236 323 -236Q335 -236 338 -228Q329 -221 290 -220Q255 -219 248 -204Q254 -194 271 -194Q282 -194 306 -198Q379 -208 394 -224Q391 -231 382 -232Q373 -232 365 -234Q373 -243 388 -243Q403 -243 418 -247Q424 -258 430 -270Q412 -269 385 -258Q364 -249 355 -249Q346 -249 337 -255Q331 -259 323 -277Q316 -294 306 -301Q305 -303 305 -308Q305 -314 311 -324Q316 -332 316 -336V-339Q315 -353 306 -362Q296 -372 288 -382Q290 -383 294 -383Q307 -380 318 -375Q338 -397 378 -397Q421 -396 450 -408Q447 -418 447 -432V-442Q468 -463 494 -472Q498 -473 506 -473Q526 -472 538 -459Q549 -446 561 -433Q568 -437 586 -441Q602 -444 609 -448Q596 -463 574 -463Q574 -479 557 -479Q547 -479 537 -474Q545 -488 554 -498Q564 -509 565 -523Q565 -532 559 -544Q556 -549 552 -554Q550 -562 550 -567V-579Q547 -598 543 -617Q543 -624 544 -627Q546 -633 555 -643Q564 -653 567 -663Q571 -660 579 -660Q589 -661 598 -662Q602 -661 605 -661Q616 -689 621 -724Q621 -739 614 -747Q609 -746 600 -740Q591 -734 586 -734Q584 -734 581 -735Q590 -747 603 -758Q616 -770 629 -783Q647 -801 655 -807Q672 -820 687 -820H689Q700 -820 735 -805Q761 -791 783 -774Q785 -764 786 -755V-754Q783 -755 774 -761Q766 -767 759 -767Q755 -767 750 -764Q750 -752 760 -738Q755 -721 749 -705Q749 -701 753 -699Q766 -700 775 -715Q777 -719 787 -744Q796 -739 796 -734Q796 -729 789 -720Q782 -710 781 -706Q797 -707 822 -717Q841 -724 851 -727V-726Q849 -721 845 -717Q857 -719 875 -728Q890 -736 900 -738Q897 -733 878 -721Q863 -711 863 -699Q863 -695 864 -693Q870 -693 878 -700Q885 -705 891 -706Q890 -702 885 -696Q879 -689 879 -682V-679H880Q883 -682 891 -685H892Q884 -673 882 -661V-659Q885 -648 888 -637Q888 -630 880 -618Q872 -605 872 -596Q873 -593 873 -591Q850 -583 839 -568Q831 -570 828 -570Q808 -567 787 -561Q738 -555 721 -551Q684 -542 673 -526Q668 -518 663 -507Q659 -497 650 -495V-498Q652 -516 664 -525Q658 -527 654 -527Q637 -525 629 -508Q621 -490 614 -475Q619 -468 623 -468Q628 -472 632 -477Q635 -482 643 -483H644L645 -480Q645 -477 640 -470Q636 -464 635 -459H637Q657 -463 676 -468V-467Q676 -463 672 -460Q668 -456 668 -453V-450Q679 -451 695 -461Q718 -475 734 -475Q721 -465 706 -458Q691 -451 686 -435H687Q691 -435 697 -440Q705 -447 709 -447Q711 -447 715 -445Q713 -441 707 -436Q697 -429 697 -420L699 -417Q703 -419 707 -422L709 -420Q703 -412 700 -402V-396Q702 -381 703 -366Q692 -351 683 -333Q608 -321 544 -298Q525 -277 522 -262Q566 -269 616 -274Q629 -274 639 -271Q637 -266 629 -266Q620 -265 612 -264Q559 -256 547 -249Q558 -240 573 -240Q580 -240 617 -247Q648 -251 685 -257Q722 -263 752 -278Q744 -286 731 -286Q705 -282 678 -278Q671 -278 668 -279Q671 -292 691 -292Q696 -292 698 -291Q713 -298 739 -303Q763 -307 774 -312H775L776 -311Q776 -308 775 -305V-303Q788 -304 830 -318Q829 -314 821 -308Q811 -301 811 -294V-293Q811 -279 828 -279Q832 -279 842 -281Q838 -273 833 -265Q835 -255 843 -244Q836 -230 836 -205Q820 -200 802 -178Q716 -192 658 -192Q630 -192 603 -189Q613 -174 641 -155Q668 -137 677 -123Q688 -119 734 -92Q746 -85 759 -76Q772 -68 788 -67H790Q797 -85 806 -103Q810 -99 810 -91Q809 -77 808 -64Q808 -54 812 -49Q817 -77 819 -108Q821 -140 829 -165Q835 -163 835 -157Q834 -148 832 -139Q831 -131 831 -112Q831 -79 836 -54Q838 -59 846 -118Q854 -115 854 -84Q855 -65 855 -48Q855 -30 861 -18Q869 -27 870 -40Q876 -38 876 -26V-11Q879 12 894 29Z"/>
</svg>