<svg xmlns="http://www.w3.org/2000/svg" viewBox="0 -800 1024 1024">
	<path fill="#000000" d="M618 -366H613Q597 -366 584 -355Q571 -344 571 -330Q571 -318 579 -310Q596 -319 619 -322Q616 -329 616 -340Q616 -350 618 -366ZM693 -408V-403Q692 -382 691 -361Q691 -351 692 -346Q701 -353 733 -362Q759 -369 767 -384Q772 -392 776 -410Q780 -428 784 -436Q728 -432 693 -408ZM704 -1V5Q703 31 692 54Q680 78 674 99Q659 98 643 96Q629 84 599 44Q597 9 579 -10Q561 -30 546 -52H547Q554 -51 565 -43Q576 -35 585 -30Q567 -60 508 -102H511Q528 -97 544 -82L581 -57Q581 -59 573 -64Q562 -71 561 -79Q581 -68 602 -60Q616 -78 616 -122Q616 -149 615 -176Q615 -194 616 -202H614Q599 -202 583 -191Q581 -189 558 -171Q522 -189 504 -190V-202Q492 -231 476 -265Q464 -285 450 -301Q435 -317 433 -337Q431 -353 431 -364Q431 -374 434 -385Q443 -402 455 -418Q459 -426 461 -434Q462 -442 470 -447V-440Q470 -432 473 -430Q476 -438 501 -441Q506 -441 510 -442Q528 -441 536 -431Q544 -420 554 -406Q570 -415 587 -422Q605 -428 616 -442H611Q599 -442 581 -432Q564 -422 554 -421Q560 -436 583 -445Q616 -459 621 -462V-472Q621 -557 614 -597Q603 -660 570 -684Q577 -691 587 -696L588 -697Q587 -699 586 -702L587 -703Q598 -712 619 -738Q631 -753 641 -763Q649 -761 651 -761Q655 -761 665 -765Q677 -764 690 -752Q704 -739 715 -739Q713 -733 713 -731Q713 -721 726 -695Q738 -671 738 -661V-657Q737 -644 731 -633Q724 -622 718 -609Q713 -613 713 -620Q717 -640 721 -660V-661Q721 -670 716 -678Q710 -688 703 -688H702Q694 -685 694 -674Q696 -660 698 -646Q697 -633 692 -605Q684 -562 684 -542Q684 -526 686 -519Q692 -526 694 -553Q696 -585 708 -591Q709 -586 709 -577Q706 -540 702 -503V-499Q718 -507 759 -522Q812 -541 834 -554Q842 -550 849 -547Q855 -550 862 -559Q872 -571 882 -573Q880 -566 877 -559Q884 -563 896 -575Q912 -592 927 -594Q924 -584 914 -575Q904 -566 903 -547V-544H904Q906 -544 909 -549Q914 -556 918 -556Q914 -547 914 -536Q914 -517 927 -502Q929 -503 932 -508Q935 -514 941 -514H942V-508Q942 -493 950 -463Q959 -429 959 -415Q959 -409 957 -399H953Q945 -399 936 -391Q928 -384 923 -384Q919 -384 917 -385Q919 -394 926 -406Q933 -418 935 -423Q929 -426 922 -426Q909 -426 897 -414Q887 -404 882 -390H867Q842 -374 831 -329Q827 -314 819 -244Q827 -257 834 -289Q842 -324 853 -337Q879 -365 904 -370Q904 -366 910 -366L912 -367V-366Q912 -360 893 -352Q873 -334 861 -308Q850 -281 841 -252Q828 -192 798 -150V-153Q798 -156 796 -160Q793 -156 790 -156Q782 -158 774 -160Q769 -160 766 -154Q730 -176 712 -232H709Q692 -232 692 -204Q693 -190 693 -177Q692 -149 690 -122Q690 -103 695 -94Q679 -100 679 -128Q679 -156 673 -175Q664 -170 664 -145Q664 -110 663 -76Q663 -39 667 -27Q670 -14 683 -12Q685 -18 685 -24Q685 -36 684 -49Q684 -64 689 -69Q694 -66 694 -62Q694 -58 693 -54V-52Q699 -26 704 -1ZM290 -225Q273 -233 264 -249Q255 -266 247 -282Q239 -274 239 -249Q239 -215 250 -204Q270 -220 290 -225ZM276 -323H279Q303 -322 311 -304Q319 -286 329 -270Q335 -342 335 -382Q335 -408 334 -420Q292 -386 276 -323ZM400 -139Q404 -84 408 -30Q408 -15 407 -8Q407 0 401 4Q395 -18 391 -65Q387 -113 383 -128Q379 -82 379 -52Q379 31 398 74Q404 69 404 59Q403 45 401 31Q401 25 404 20H406Q414 21 415 29Q416 37 417 44Q418 51 418 65Q418 91 414 108Q395 124 376 126Q370 126 358 121Q339 111 327 94Q314 77 300 61Q287 49 270 47Q254 45 234 41Q242 40 259 40H264Q294 40 309 32Q308 26 302 26Q295 25 288 25Q302 17 315 8Q318 -14 321 -37V-43Q310 -45 298 -47Q292 -47 287 -43Q285 -47 285 -49Q287 -53 288 -58Q283 -66 271 -71Q269 -79 269 -82Q269 -105 293 -105Q314 -105 324 -89Q327 -99 327 -112Q327 -126 324 -140Q298 -137 278 -115Q259 -94 259 -67Q259 -45 274 -26Q272 -24 272 -19Q272 -16 274 -6Q267 6 259 17Q250 28 237 29Q227 29 207 17Q185 4 180 -8Q178 -20 176 -32Q162 -28 152 -16Q142 -4 132 10Q116 39 85 43Q77 43 68 40V38Q67 27 61 23Q54 18 47 13V8Q47 -5 41 -13Q36 -20 31 -29Q30 -32 30 -38Q30 -42 38 -71Q41 -84 43 -97Q46 -106 62 -123Q82 -144 84 -160V-148Q84 -133 91 -132Q122 -142 152 -152Q132 -207 123 -239Q138 -236 145 -214Q154 -186 159 -181Q163 -186 163 -194Q163 -199 152 -229Q145 -247 139 -267Q134 -286 123 -301H116Q103 -302 103 -292Q103 -286 108 -274Q115 -257 115 -250V-248Q106 -251 100 -261Q93 -270 85 -281Q66 -297 59 -317V-321Q62 -342 69 -363Q57 -385 57 -418Q57 -427 58 -432Q61 -429 67 -411Q72 -397 82 -395V-399Q82 -408 74 -426Q64 -448 64 -461V-464Q72 -450 78 -433Q84 -415 97 -411V-413Q92 -426 87 -448V-451Q97 -434 112 -425Q145 -444 171 -444Q182 -444 192 -439Q197 -437 201 -430Q206 -423 211 -422Q226 -433 237 -448Q244 -455 253 -465Q261 -474 262 -485V-493Q261 -539 244 -573Q234 -588 223 -606Q212 -624 211 -642V-647Q214 -659 225 -667Q236 -675 244 -683Q250 -700 272 -713Q294 -726 314 -726Q349 -726 356 -693H353Q348 -693 340 -699Q330 -707 325 -707Q322 -707 317 -704Q319 -699 342 -671Q358 -651 358 -628V-624Q367 -631 367 -647Q367 -660 358 -683Q381 -669 382 -639Q378 -627 374 -616Q374 -611 376 -609Q391 -612 414 -621Q416 -617 427 -616Q441 -614 442 -608Q447 -611 448 -612L450 -610Q448 -608 445 -601Q448 -584 460 -581Q464 -581 465 -588Q466 -574 479 -551Q491 -530 491 -518Q491 -512 490 -509Q480 -491 463 -474Q446 -449 442 -435Q437 -442 437 -448Q437 -455 444 -471Q451 -486 451 -492Q447 -494 444 -494Q436 -494 427 -483V-479Q426 -459 417 -444Q408 -430 401 -413Q391 -386 391 -340V-317Q396 -319 396 -327Q396 -333 395 -339V-341Q403 -408 436 -425Q427 -397 417 -362Q407 -327 406 -291Q403 -215 400 -139Z"/>
</svg>