<svg xmlns="http://www.w3.org/2000/svg" viewBox="0 -800 1024 1024">
	<path fill="#000000" d="M568 53H565Q554 56 542 58Q536 58 533 54V51Q533 43 542 43Q558 43 568 53ZM870 -642Q856 -631 856 -607Q856 -594 862 -585Q860 -579 858 -574Q863 -564 868 -554Q854 -550 843 -540Q832 -544 821 -544Q798 -542 772 -535Q729 -530 710 -525Q676 -517 650 -510Q624 -503 616 -474L595 -425H582Q577 -423 571 -421H570Q565 -421 559 -427Q552 -433 550 -434Q540 -436 536 -436Q527 -436 502 -422L501 -425Q501 -430 512 -437Q519 -441 521 -444Q507 -442 486 -432Q471 -424 460 -422Q470 -443 490 -453Q509 -463 522 -494Q514 -497 472 -488Q448 -482 446 -468V-465L444 -464Q442 -465 440 -466H439Q440 -460 440 -450Q440 -427 428 -406H454Q470 -406 478 -399Q485 -402 491 -406L495 -405L496 -403Q492 -395 487 -387V-375Q487 -338 477 -311Q470 -292 447 -253Q475 -236 493 -203Q511 -170 508 -141Q506 -112 470 -110H455Q444 -110 438 -109Q422 -107 396 -95Q379 -87 366 -85Q362 -39 354 11V17Q355 34 355 50Q355 57 354 60Q352 79 341 98Q330 118 318 121Q315 122 310 122Q292 122 271 106Q255 94 243 78Q234 67 234 32Q234 -3 225 -17H228Q230 -17 236 -19Q232 -30 223 -36Q213 -42 206 -50Q209 -55 212 -55Q222 -51 231 -47Q245 -74 258 -101Q261 -108 264 -116Q268 -123 276 -124V-120Q276 -111 268 -93Q258 -70 258 -61Q258 -50 265 -43Q276 -47 279 -61Q282 -75 284 -91Q294 -113 297 -133Q297 -140 293 -147H291Q289 -147 288 -142Q287 -138 284 -138H283Q281 -148 281 -152Q281 -172 302 -187Q308 -191 341 -207V-205Q340 -201 339 -197Q349 -188 354 -175Q358 -163 365 -151Q393 -163 421 -176Q390 -204 356 -227Q286 -196 224 -152Q220 -149 210 -139Q194 -122 190 -121Q187 -120 181 -120Q166 -121 154 -132Q142 -143 133 -152Q98 -164 92 -168Q73 -180 73 -206V-215Q78 -227 83 -239Q84 -244 84 -253Q84 -262 85 -265Q88 -278 97 -292Q104 -303 105 -307Q113 -310 125 -310H133Q150 -325 167 -341Q183 -357 206 -365V-364Q206 -358 191 -347Q180 -339 176 -333Q174 -326 171 -319H172Q177 -319 185 -329Q194 -340 201 -340H204L205 -338Q205 -336 198 -334Q187 -330 187 -326V-324Q214 -329 240 -334Q248 -334 254 -331Q246 -323 233 -319Q215 -315 212 -296Q217 -292 225 -292Q244 -295 262 -305Q294 -317 302 -319Q353 -334 362 -353Q359 -358 354 -362Q333 -360 312 -350Q294 -341 277 -340Q298 -363 326 -372Q353 -382 382 -393Q377 -393 367 -400Q357 -406 350 -408V-411Q349 -423 341 -430H340Q316 -430 292 -421Q271 -412 247 -403Q224 -393 196 -389Q178 -387 163 -392Q145 -398 145 -411Q145 -416 148 -424Q145 -434 131 -444Q115 -455 115 -469Q115 -475 116 -478Q118 -491 136 -512Q146 -526 154 -542Q161 -559 175 -567L176 -564Q176 -559 175 -555V-552Q176 -551 180 -551Q188 -551 195 -552Q202 -552 204 -549Q198 -545 192 -541Q186 -536 184 -527Q191 -522 198 -522Q210 -523 230 -533Q249 -544 259 -548Q258 -559 250 -561Q241 -564 234 -568V-570Q235 -579 245 -580Q234 -599 231 -619Q231 -627 242 -642Q251 -655 252 -663Q250 -670 248 -678Q248 -681 252 -685Q257 -683 259 -671Q261 -659 267 -657Q267 -665 266 -673L267 -676H269Q275 -676 287 -664Q312 -647 333 -623Q340 -625 354 -583L560 -632Q562 -656 562 -661Q562 -675 557 -683Q543 -683 530 -671Q514 -657 507 -654Q511 -670 526 -685Q549 -711 569 -744Q585 -775 589 -780Q603 -798 625 -798Q632 -795 638 -793H653Q658 -793 660 -792Q672 -783 689 -767Q704 -756 719 -747Q734 -738 745 -724Q728 -698 710 -672L709 -671H710Q715 -671 719 -672Q726 -672 726 -666Q724 -664 715 -660Q707 -657 707 -651V-648Q711 -647 717 -647Q730 -647 747 -650Q769 -654 773 -660Q773 -663 767 -666Q762 -669 761 -673Q762 -676 763 -679Q768 -682 770 -682Q774 -682 778 -678Q784 -673 787 -672H789Q798 -672 823 -682Q848 -692 859 -692Q864 -692 867 -691Q866 -686 862 -685Q857 -684 853 -683Q825 -669 821 -654Q826 -649 829 -649Q832 -649 839 -653Q848 -658 853 -658H855V-656Q854 -653 850 -651Q846 -648 845 -642L846 -638L850 -637Q860 -639 870 -642ZM728 -285Q732 -321 732 -338Q732 -350 731 -356Q682 -323 678 -321Q648 -300 633 -281Q616 -259 615 -248V-247Q677 -268 717 -293Q727 -285 728 -285ZM724 -206Q642 -180 614 -165Q614 -151 614 -137Q680 -162 721 -173Q723 -189 724 -206ZM713 -103Q650 -88 643 -85Q629 -79 621 -72Q623 -64 623 -59Q622 -51 621 -44Q624 -34 626 -25Q623 -10 610 2Q597 13 587 22Q571 21 554 19Q552 8 545 4Q535 5 529 11Q524 17 516 21Q519 16 525 9Q535 -2 537 -10L533 -12Q527 -9 519 -3Q526 -27 526 -57Q523 -110 519 -164V-170Q532 -162 531 -141Q531 -120 536 -104Q544 -123 544 -155Q544 -197 531 -222Q526 -220 525 -205Q524 -190 518 -187Q506 -276 506 -309Q506 -339 512 -366L514 -367Q518 -363 522 -360Q527 -361 533 -370Q538 -377 544 -380Q550 -383 558 -383Q567 -382 576 -382H581Q597 -383 609 -390Q620 -397 631 -400V-399Q631 -391 623 -384Q616 -378 615 -371Q620 -368 625 -368Q632 -368 652 -382Q686 -403 751 -455H747Q734 -455 704 -434Q683 -416 657 -407Q668 -426 693 -441Q718 -456 740 -474Q755 -488 771 -502Q787 -517 811 -518Q824 -518 840 -512Q849 -514 857 -517Q855 -515 855 -510Q855 -503 863 -495Q890 -510 905 -523Q901 -516 894 -506Q886 -497 885 -484Q885 -479 886 -477H887Q890 -477 893 -482Q898 -489 901 -489L902 -485Q899 -475 895 -465V-463Q908 -450 913 -429Q913 -422 907 -412Q899 -398 899 -391V-388Q858 -345 842 -311Q839 -303 837 -295Q835 -287 828 -281Q823 -288 823 -294Q823 -301 830 -318Q836 -332 836 -339Q836 -344 831 -351Q818 -349 809 -336Q801 -317 795 -260Q790 -210 790 -170Q790 -162 789 -154Q789 -146 795 -141Q803 -154 807 -201Q810 -244 824 -256Q818 -179 809 -107Q810 -101 810 -95Q810 -88 804 -88H802Q799 -90 799 -98Q800 -107 800 -117Q800 -126 795 -127H794Q783 -127 783 -65Q783 -52 792 -37Q798 -40 799 -54Q800 -70 806 -72Q812 -71 812 -65Q812 -61 809 -52V-45Q809 21 833 69Q825 91 809 105Q792 119 778 137Q742 134 711 115Q680 95 643 85Q627 83 610 81Q614 80 624 80Q652 83 680 85Q685 85 689 84Q674 74 632 69Q587 64 574 54Q621 58 668 61Q677 61 685 60Q653 52 593 50Q597 44 605 44Q613 45 621 45H623Q673 45 690 18Q702 -1 709 -66Q711 -84 713 -103Z"/>
</svg>