<svg xmlns="http://www.w3.org/2000/svg" viewBox="0 -800 1024 1024">
	<path fill="#000000" d="M880 -696H878V-698Q878 -703 883 -703Q888 -704 892 -706L893 -703Q893 -696 880 -696ZM863 -109Q862 -100 854 -88Q851 -92 851 -99Q851 -110 859 -110ZM411 -689V-693Q420 -697 429 -701Q432 -701 434 -696Q429 -683 417 -682Q412 -682 410 -684Q411 -685 411 -689ZM386 -352Q338 -345 320 -328Q323 -322 325 -315Q327 -308 333 -303Q346 -313 371 -313Q378 -334 386 -352ZM676 -490H685Q694 -520 711 -552Q673 -552 654 -529Q660 -514 672 -508Q670 -502 667 -496Q667 -494 669 -492Q673 -490 676 -490ZM417 -556Q349 -542 321 -520Q328 -508 334 -496Q343 -504 367 -509Q390 -513 398 -519Q406 -526 409 -537Q412 -547 417 -556ZM426 -426Q422 -432 405 -437Q387 -442 383 -450Q380 -450 377 -451Q363 -451 351 -439Q316 -430 302 -423Q277 -411 270 -388Q297 -392 324 -397Q326 -397 426 -426ZM620 -176V-177Q613 -179 600 -179Q595 -179 555 -174Q541 -172 533 -165Q524 -159 515 -154Q507 -150 494 -146Q477 -141 470 -137Q449 -126 435 -109Q448 -81 460 -54Q481 -63 497 -75Q490 -85 490 -111V-125Q498 -133 513 -133Q526 -133 571 -117Q606 -134 620 -153Q617 -156 617 -161Q619 -168 620 -176ZM879 51V54Q879 60 874 72Q869 84 869 92Q869 98 872 104Q856 115 801 135Q748 106 709 78Q702 74 695 69Q688 63 687 54Q690 54 692 53Q703 53 722 66Q746 82 761 82H762Q751 62 728 44Q714 33 684 15Q652 -4 586 -37Q604 -11 634 4Q661 18 672 42Q627 16 585 -14Q543 -45 500 -74Q493 -69 493 -63Q495 -60 497 -60Q502 -62 507 -64Q508 -64 512 -62Q511 -58 504 -54Q496 -49 496 -43L498 -41Q501 -42 504 -44L506 -43Q503 -32 496 -25L499 -24Q501 -24 506 -28Q512 -33 517 -33H518Q514 -29 514 -23Q516 -14 517 -6Q488 8 454 47Q410 97 399 107Q374 100 359 83Q345 65 330 48V42Q330 29 340 5Q348 -15 348 -26Q348 -37 343 -46Q318 -27 290 -11V-13Q291 -23 299 -30Q308 -37 314 -45Q259 -25 224 -5Q174 24 152 60Q175 54 209 29Q243 5 266 -2Q239 27 204 49Q166 72 149 113Q137 112 115 110Q93 107 83 94Q77 84 77 54V51Q77 30 91 7Q97 9 103 10Q118 -3 143 -34Q179 -78 205 -94Q199 -80 185 -62Q168 -41 164 -30Q167 -28 175 -28Q190 -28 237 -53Q282 -78 296 -82Q282 -87 266 -109Q253 -126 244 -132Q246 -142 246 -154Q246 -166 256 -168Q256 -172 255 -177Q255 -199 272 -210Q285 -218 311 -222V-221Q310 -218 308 -215Q311 -211 315 -211Q325 -213 335 -216Q338 -216 340 -215Q338 -207 323 -202Q309 -197 306 -190Q311 -181 319 -181Q339 -185 358 -192Q376 -194 393 -197Q410 -200 420 -210Q415 -213 402 -213Q381 -211 359 -210H356Q359 -225 382 -225Q394 -224 405 -224Q413 -224 417 -225Q433 -229 449 -234H453V-240Q453 -259 462 -276Q473 -297 493 -300Q498 -301 509 -301Q530 -301 545 -292Q561 -283 561 -266Q561 -259 558 -250H564Q600 -254 636 -259H639Q643 -290 650 -303Q644 -306 639 -306Q630 -306 612 -296Q594 -286 585 -286H582Q565 -284 555 -300Q544 -312 541 -338V-339Q538 -342 535 -346V-347Q536 -363 546 -370Q555 -376 565 -382Q579 -374 588 -372Q615 -382 653 -382Q652 -389 650 -397Q650 -400 653 -403Q646 -404 633 -404Q596 -404 564 -384Q538 -398 533 -401Q517 -412 511 -427Q515 -432 515 -438Q512 -450 509 -462Q510 -481 527 -489Q543 -497 556 -507L557 -504Q555 -498 553 -492V-490Q557 -484 566 -484Q579 -485 591 -486H595Q588 -500 585 -518Q586 -521 586 -525Q575 -531 559 -535Q554 -544 552 -564Q500 -531 476 -439Q486 -433 489 -433Q493 -433 496 -436Q501 -424 516 -408Q529 -394 533 -387Q524 -361 517 -352Q506 -336 487 -333V-334Q487 -341 494 -350Q500 -358 500 -364Q500 -368 499 -370Q472 -358 459 -345Q441 -326 441 -297V-292Q447 -295 453 -308Q461 -325 471 -325L475 -324Q469 -305 457 -286Q451 -268 443 -251Q435 -233 417 -229H412Q401 -229 378 -239Q356 -249 344 -249H340Q332 -248 318 -237Q303 -225 297 -225H294Q284 -225 266 -239Q250 -252 240 -252Q240 -258 246 -266Q234 -282 223 -303Q189 -270 179 -225Q166 -221 146 -221Q121 -221 97 -229Q90 -248 71 -256Q73 -262 73 -265Q71 -278 65 -289Q68 -294 75 -294Q58 -310 47 -325H48Q58 -325 70 -314Q79 -306 86 -306H87Q96 -307 112 -325Q130 -345 137 -348L138 -344Q138 -339 132 -330Q125 -320 125 -315Q125 -310 128 -306Q153 -326 176 -357Q184 -368 216 -417Q201 -414 180 -389Q163 -369 152 -363Q162 -389 193 -425Q223 -460 232 -480Q229 -484 224 -484Q215 -484 207 -474Q186 -480 161 -501Q133 -525 118 -531Q117 -534 117 -542Q117 -564 123 -576Q114 -591 114 -604Q114 -639 166 -672L167 -669Q163 -662 158 -655Q162 -653 163 -651Q173 -654 191 -672Q205 -686 214 -689Q214 -684 203 -671Q191 -656 191 -650Q191 -643 202 -642H205Q209 -642 246 -652Q355 -674 391 -687V-686Q390 -676 377 -671Q364 -666 352 -663Q319 -653 283 -647Q246 -641 217 -625Q223 -615 239 -615Q255 -615 300 -630Q423 -663 485 -694Q482 -702 474 -702Q459 -698 444 -694V-696Q444 -705 470 -718Q505 -738 530 -738Q549 -738 561 -726Q581 -732 583 -732Q579 -726 579 -715Q579 -700 588 -700Q590 -700 594 -702Q593 -699 593 -694Q593 -681 611 -655Q614 -651 619 -651Q631 -653 642 -655Q637 -675 635 -699Q633 -723 623 -739Q606 -733 604 -723Q604 -727 603 -731Q603 -763 632 -787Q659 -809 692 -809Q729 -809 746 -780Q744 -779 741 -779Q734 -779 724 -786Q716 -792 712 -793Q709 -788 709 -786Q709 -780 719 -769Q729 -758 730 -750V-746Q728 -734 725 -723Q725 -717 728 -714Q732 -718 738 -727Q745 -738 750 -741Q747 -759 747 -762Q747 -767 750 -772Q757 -769 759 -761Q762 -752 765 -745Q757 -731 747 -717Q737 -703 734 -681Q750 -681 779 -690Q803 -697 814 -699V-696Q814 -690 818 -684Q836 -688 853 -692Q861 -692 866 -687Q859 -684 851 -681Q844 -679 841 -672L845 -671Q851 -671 857 -672H860Q855 -668 850 -664Q845 -660 845 -651Q846 -646 857 -646Q852 -642 852 -636Q853 -630 853 -624V-620Q851 -613 841 -603Q831 -592 829 -585Q826 -585 822 -586Q817 -586 811 -583Q817 -557 817 -541V-535Q784 -534 765 -504Q789 -505 891 -523V-520Q891 -516 890 -513Q895 -507 920 -506Q945 -506 950 -498H945Q935 -498 930 -489Q937 -482 946 -479Q936 -476 931 -466V-463Q929 -442 911 -433Q892 -424 878 -413Q854 -417 832 -424Q832 -434 848 -434Q853 -433 858 -433Q863 -433 869 -435Q868 -449 845 -451Q825 -453 814 -453Q746 -453 719 -432Q727 -429 736 -429Q761 -432 786 -435Q802 -435 811 -427Q803 -424 777 -422Q747 -419 734 -413Q739 -402 744 -391Q784 -398 823 -405V-403Q823 -384 852 -384Q862 -384 872 -385Q856 -379 853 -372L856 -371Q859 -371 862 -372Q864 -372 866 -370Q862 -366 857 -362Q851 -358 851 -349V-344Q836 -341 827 -319Q811 -322 792 -322Q773 -322 722 -315Q718 -311 718 -298Q719 -288 719 -278Q732 -282 734 -286Q737 -280 746 -273Q760 -283 791 -288Q782 -281 772 -277Q762 -272 761 -259V-258L765 -257Q779 -259 792 -262H794Q788 -257 782 -253Q783 -252 787 -251Q791 -250 792 -247Q790 -244 786 -242Q780 -239 779 -235Q780 -231 780 -227Q780 -217 773 -206Q766 -195 765 -187Q758 -185 742 -185Q729 -185 709 -187L708 -184Q712 -171 733 -169V-163H735Q743 -164 750 -166Q753 -166 755 -165Q753 -161 750 -158V-156Q752 -140 758 -138Q753 -128 753 -122Q753 -117 756 -111Q747 -109 747 -90H724Q681 -90 662 -71Q714 -33 767 -19Q777 -21 783 -36Q788 -48 792 -51Q795 -48 796 -39Q797 -27 801 -25Q810 -36 810 -83V-122Q810 -152 812 -163Q812 -178 821 -178Q819 -169 819 -153Q822 -119 824 -85V-81Q823 -55 821 -30Q821 -12 826 0Q831 -11 831 -30Q829 -61 827 -92Q827 -114 835 -126Q836 -117 836 -97V-54Q836 -3 850 16Q853 5 853 -19V-37Q853 -61 857 -78Q861 -53 862 -20Q863 13 872 36Q876 44 879 51Z"/>
</svg>