<svg xmlns="http://www.w3.org/2000/svg" viewBox="0 -800 1024 1024">
	<path fill="#000000" d="M668 -49Q651 -51 645 -67Q641 -77 639 -106L637 -135Q620 -135 614 -120Q620 -110 630 -76Q636 -54 641 -44Q655 -46 668 -49ZM692 -49H704V-63Q692 -63 692 -51ZM709 -147Q700 -148 695 -167Q686 -162 677 -157Q678 -148 687 -141Q690 -147 692 -154H698Q693 -145 693 -126Q702 -120 702 -92Q702 -71 705 -66Q705 -95 709 -147ZM809 -201Q776 -201 756 -189L781 -166Q776 -163 774 -150Q772 -135 767 -133H766Q764 -134 761 -135Q735 -110 731 -51Q733 -49 739 -49H746Q795 -158 809 -201ZM476 -78Q472 -67 467 -57Q463 -56 449 -45Q428 -29 422 -34Q425 -37 426 -37Q446 -53 449 -55Q451 -56 452 -58V-59Q444 -69 420 -53Q405 -41 404 -29Q407 -25 413 -26Q418 -27 420 -26Q422 -21 413 -17Q408 -14 403 -11L397 -7Q384 3 358 29Q354 31 347 31Q358 21 366 10Q377 -6 388 -17Q380 -21 368 -12Q337 24 317 32Q309 34 299 42Q286 52 286 61Q286 67 290 66Q299 64 312 55Q323 50 326 49Q317 61 299 70Q283 78 266 71Q237 62 213 57Q211 57 209 54Q207 50 205 50H203Q186 50 172 59V58Q172 51 196 42Q189 28 189 11Q191 -29 202 -40L209 -41Q203 -45 197 -49L198 -50Q205 -50 208 -49Q213 -54 218 -90Q224 -139 236 -141Q236 -68 252 -54Q250 -166 256 -251Q250 -250 246 -225Q242 -200 242 -193Q237 -173 228 -155Q227 -160 227 -181Q226 -213 223 -253Q221 -292 226 -317Q198 -309 178 -285Q151 -278 131 -240Q119 -237 112 -237Q108 -237 100 -239Q90 -247 78 -272Q69 -291 64 -298Q58 -306 52 -315L51 -319Q53 -325 54 -331V-333Q53 -346 52 -360Q52 -364 53 -367Q48 -376 39 -383Q30 -390 25 -396Q27 -398 31 -398Q43 -393 53 -384Q51 -398 29 -414Q11 -427 6 -437Q19 -436 37 -420Q51 -407 60 -405Q61 -413 47 -422Q34 -430 32 -438Q49 -432 65 -421Q71 -418 74 -418H75Q79 -420 82 -423Q86 -425 98 -425Q106 -424 114 -424Q121 -424 123 -425Q141 -427 163 -438Q185 -449 193 -450Q197 -448 201 -447Q194 -439 172 -431Q149 -424 137 -419Q125 -413 123 -403Q123 -396 130 -390Q174 -404 190 -409Q205 -414 246 -436Q244 -440 237 -442Q224 -439 210 -436L206 -437Q208 -449 221 -449H223Q235 -459 249 -466Q254 -465 259 -465Q263 -465 267 -466Q272 -463 277 -461Q282 -463 293 -471Q303 -479 311 -481V-480Q307 -474 296 -466Q291 -459 291 -450Q291 -446 291 -443Q296 -444 304 -450Q314 -458 320 -459Q304 -446 304 -434Q304 -425 313 -421Q318 -424 324 -427H327L328 -426Q326 -422 323 -419L325 -416L327 -414Q330 -415 333 -416Q328 -411 328 -399Q329 -382 330 -366Q330 -359 328 -356H327Q323 -356 321 -360Q319 -363 318 -366Q306 -361 305 -348Q303 -335 297 -324Q296 -322 290 -318Q285 -314 283 -309Q285 -306 287 -303H292Q309 -304 315 -317Q321 -330 331 -341Q335 -334 334 -326Q334 -325 328 -298Q323 -293 317 -295Q301 -294 296 -265Q292 -237 294 -197Q302 -109 298 -68Q322 -84 356 -110Q361 -114 358 -124Q358 -125 351 -140Q340 -156 337 -172Q344 -164 353 -152Q361 -141 371 -136Q373 -143 352 -175L375 -152L344 -210L386 -158L378 -180Q385 -171 392 -162Q376 -187 374 -195Q379 -195 383 -189Q388 -181 392 -174Q399 -163 406 -153Q415 -141 422 -136Q442 -122 454 -110Q456 -107 458 -105Q462 -100 467 -90Q470 -84 476 -78ZM663 46L662 49Q658 52 650 52Q642 52 640 49V47Q640 38 654 38H661V40Q662 43 663 46ZM130 -554Q121 -541 108 -540V-543Q108 -555 124 -555Q128 -555 130 -554ZM423 -387V-383Q417 -371 413 -365Q409 -368 409 -375Q409 -388 418 -393Q421 -390 423 -387ZM384 -562Q384 -538 372 -523Q371 -522 353 -509Q343 -499 333 -494Q325 -492 321 -492Q308 -492 282 -513Q262 -530 250 -533Q245 -533 237 -526Q232 -522 229 -522Q228 -524 228 -527Q231 -537 238 -545Q238 -548 235 -548Q232 -548 232 -551Q206 -547 201 -545Q189 -541 172 -528Q157 -516 149 -513Q150 -522 158 -530Q167 -537 176 -545Q207 -570 207 -578Q207 -582 201 -584Q199 -585 194 -585Q181 -585 160 -570Q144 -559 137 -559Q145 -575 165 -582Q184 -589 186 -608Q186 -611 185 -614Q173 -614 164 -617Q174 -625 183 -634Q181 -651 165 -666Q147 -683 143 -694Q158 -681 178 -681Q194 -681 205 -691V-695Q205 -701 204 -707L205 -711H207Q214 -709 219 -705Q236 -712 254 -715Q272 -718 281 -732Q287 -730 291 -720Q294 -713 297 -710Q305 -705 312 -701Q324 -688 334 -674Q336 -674 339 -679Q342 -684 347 -684L350 -683Q348 -677 348 -666Q354 -632 375 -613Q384 -584 384 -562ZM515 -452Q513 -445 511 -438V-436Q512 -428 513 -421Q513 -420 511 -414Q502 -414 501 -409Q501 -405 499 -398H497Q485 -399 472 -401Q460 -401 460 -390Q452 -405 436 -409Q433 -408 430 -405Q426 -399 422 -399Q425 -408 428 -417V-418Q428 -420 425 -421Q422 -421 422 -424V-425Q404 -424 391 -404Q391 -416 398 -425Q402 -430 413 -438Q412 -445 400 -457Q397 -456 393 -455H392Q395 -463 402 -466Q397 -480 397 -501Q397 -523 403 -531Q408 -539 413 -556Q416 -554 416 -549Q415 -541 414 -534Q414 -528 416 -526Q423 -532 425 -541Q428 -538 435 -526Q446 -531 456 -536Q456 -530 458 -528Q466 -522 475 -521Q484 -520 493 -511Q494 -513 494 -515Q495 -518 498 -518H501V-511Q501 -500 509 -477Q514 -461 515 -452ZM644 -645Q639 -642 632 -638Q626 -634 623 -626Q627 -618 627 -610Q625 -591 622 -573L621 -570Q619 -572 616 -574Q602 -572 597 -572Q561 -572 538 -590Q513 -609 513 -641Q513 -655 519 -672H522Q530 -672 542 -680Q552 -687 560 -687H563Q574 -687 590 -666Q605 -646 619 -646H620V-644Q619 -642 617 -641V-640H620Q629 -643 638 -646Q642 -646 644 -645ZM815 -490L816 -489Q829 -480 841 -471Q853 -465 865 -460Q877 -456 885 -447Q891 -440 901 -421Q913 -399 912 -389V-388Q911 -380 897 -370Q892 -366 876 -356Q836 -329 820 -322Q793 -310 752 -308L751 -312Q751 -317 763 -321Q777 -325 778 -330L777 -334Q747 -332 717 -330Q718 -325 731 -321Q742 -318 744 -312Q741 -309 732 -309Q717 -312 702 -316Q679 -320 656 -329Q632 -335 625 -355Q659 -339 667 -336Q688 -325 704 -330Q661 -344 621 -371Q578 -307 564 -288Q542 -258 531 -227Q536 -215 546 -209Q549 -208 555 -208Q560 -208 563 -206Q579 -199 584 -196Q620 -202 670 -226Q715 -242 759 -259Q755 -267 745 -267Q740 -267 728 -264Q666 -243 603 -223Q604 -236 612 -240Q621 -245 632 -249Q717 -281 797 -299Q825 -304 842 -319Q848 -319 851 -316Q854 -313 857 -310Q862 -312 869 -320Q876 -328 882 -330V-328Q882 -323 877 -316Q870 -306 870 -301Q870 -297 873 -293Q882 -297 893 -312Q905 -329 916 -333Q909 -321 901 -311Q892 -301 889 -284Q899 -279 913 -276Q916 -247 936 -235Q944 -237 951 -239Q955 -239 956 -238Q954 -234 948 -231Q938 -226 938 -218V-216Q940 -214 945 -214Q955 -216 964 -218Q967 -217 969 -217Q967 -212 956 -209Q946 -206 944 -201Q949 -181 949 -164Q949 -156 947 -130Q944 -126 938 -126Q934 -126 930 -127Q928 -126 925 -126Q908 -118 893 -114Q889 -114 884 -117Q885 -124 899 -129Q916 -135 919 -141Q921 -157 921 -167Q921 -186 913 -193Q902 -192 895 -180Q894 -179 886 -158H883Q867 -158 857 -145Q856 -144 842 -117Q827 -87 827 -73Q828 -70 828 -67Q835 -71 844 -81Q853 -91 857 -94Q856 -83 848 -71Q840 -60 839 -54Q842 -49 847 -49Q856 -51 865 -53L866 -51Q874 -59 888 -59Q898 -59 903 -54Q908 -56 913 -67Q918 -79 924 -81Q922 -66 919 -52V-49Q920 -44 928 -44Q935 -44 942 -45Q948 -45 952 -41Q940 -41 936 -35Q936 -31 942 -23Q948 -15 949 -7Q951 -4 962 -1Q971 2 974 6Q968 9 961 8Q955 8 950 15Q952 22 954 28Q950 30 948 39Q946 49 942 50Q944 57 946 64V66Q940 67 938 72Q935 78 931 83Q925 77 918 76Q910 75 898 74Q879 68 860 62Q802 53 731 49Q715 49 706 41Q714 35 724 35Q726 35 753 38Q799 42 836 43Q844 45 849 45Q856 45 860 40Q841 24 803 19Q783 16 731 14Q711 12 702 12H695Q648 16 603 25Q585 28 573 41Q576 50 585 50Q597 48 609 46Q617 46 620 54Q613 58 594 61Q578 64 569 69Q553 76 537 98Q484 90 475 59Q474 56 474 50Q474 43 473 41Q471 36 466 30Q460 24 460 21V20Q460 9 470 -9Q479 -22 491 -31Q503 -41 513 -51V-47Q513 -32 528 -32Q531 -32 539 -34Q519 -75 498 -117Q498 -126 485 -179Q474 -171 472 -169L450 -173Q425 -191 406 -230Q401 -248 396 -267Q391 -278 377 -288Q367 -295 362 -302H364Q370 -302 383 -298Q398 -293 405 -294H407Q400 -302 380 -311Q353 -323 346 -334Q357 -334 379 -327Q407 -318 423 -320Q433 -322 438 -324Q445 -326 468 -345Q496 -368 507 -370Q496 -355 487 -341Q478 -328 473 -306Q474 -306 554 -409Q520 -457 522 -511Q524 -536 532 -558Q534 -548 538 -543Q543 -544 548 -545H550Q575 -513 602 -474Q655 -546 656 -559Q640 -553 620 -532Q601 -512 587 -506Q613 -541 639 -577Q660 -612 674 -631Q678 -642 688 -646Q684 -646 684 -649Q686 -656 687 -663L684 -676Q682 -686 683 -689Q684 -699 701 -718Q719 -738 734 -744Q736 -745 744 -748Q776 -756 792 -738Q795 -739 798 -741L800 -742L807 -715L809 -714Q812 -718 815 -723L817 -724Q819 -710 820 -704Q826 -687 831 -670Q835 -655 831 -641L830 -640Q821 -638 821 -625L816 -623Q796 -619 795 -607L793 -606Q724 -523 661 -429Q680 -422 698 -422H709Q741 -425 752 -428Q773 -433 776 -446V-449Q776 -457 768 -471Q758 -487 758 -497V-500Q772 -480 791 -469Q770 -504 755 -539Q762 -537 766 -530Q769 -524 773 -518Q791 -489 816 -468Q815 -472 808 -484Q799 -498 798 -507H799Q807 -505 814 -492Q837 -499 854 -501Q853 -504 845 -505Q841 -505 839 -507V-508Q841 -511 848 -511Q839 -523 827 -536Q815 -549 814 -569Q814 -575 815 -579Q816 -585 821 -591L816 -611Q842 -625 864 -625Q890 -625 899 -606H901Q905 -607 908 -608Q909 -602 912 -598Q916 -595 919 -591Q924 -591 925 -595Q927 -599 932 -600Q932 -588 945 -571Q957 -555 957 -542Q957 -535 956 -531Q951 -533 946 -544Q942 -553 938 -556Q934 -553 934 -548Q939 -531 944 -512V-511Q944 -507 939 -501Q935 -496 935 -492V-490Q937 -488 938 -487Q947 -488 950 -504Q952 -516 956 -519Q963 -515 968 -510Q947 -469 919 -464Q906 -471 892 -475Q877 -479 867 -490Q859 -492 857 -492Q846 -491 835 -490Z"/>
</svg>