<svg xmlns="http://www.w3.org/2000/svg" viewBox="0 -800 1024 1024">
	<path fill="#000000" d="M736 -168L735 -170Q685 -170 659 -164Q621 -154 621 -135V-134Q653 -145 733 -152V-155Q735 -161 736 -168ZM738 -227V-239Q661 -237 627 -216V-211Q627 -206 626 -203H630Q651 -207 675 -218Q706 -219 738 -227ZM733 -297Q730 -300 730 -312Q726 -313 719 -313Q685 -313 660 -306Q641 -301 636 -299Q621 -293 620 -287V-285Q623 -272 633 -269H634Q651 -273 674 -282Q704 -289 733 -297ZM747 -613Q705 -603 654 -584Q606 -566 602 -528Q602 -519 605 -509Q621 -517 665 -526Q698 -533 717 -540Q734 -578 747 -613ZM984 -190Q973 -190 966 -185Q958 -180 958 -172Q958 -168 959 -166L963 -165Q968 -166 972 -167Q975 -167 976 -164V-163Q970 -155 964 -148Q962 -140 962 -135V-125Q956 -105 943 -95Q932 -86 905 -86H884Q855 -86 839 -76V-71Q840 -54 840 -38Q840 -24 836 -16Q828 -18 827 -39Q826 -60 817 -62Q813 -38 809 -14Q806 7 803 28Q803 40 809 46Q818 43 825 28Q832 12 839 10V15Q840 32 841 48V53Q799 102 783 114Q758 100 720 59Q694 31 679 19Q689 19 699 26Q709 33 716 34Q712 23 702 14Q691 5 681 -2Q650 -26 645 -37Q678 -17 714 1V-2Q714 -10 699 -19Q688 -26 685 -31Q710 -26 728 -19Q741 -34 741 -63V-67Q716 -65 691 -64Q680 -61 670 -53Q642 -45 613 -38Q593 -32 575 -26Q556 -21 544 -7H540Q527 -6 518 3Q510 13 502 22Q487 27 473 27Q446 27 438 11V-2Q426 -9 420 -16Q413 -24 413 -36Q413 -42 414 -46Q417 -53 420 -61V-63Q420 -70 419 -71L415 -76Q461 -99 484 -104Q521 -112 557 -120V-136Q557 -204 545 -231Q540 -222 540 -209Q544 -179 547 -150Q547 -136 541 -126Q533 -151 531 -180Q528 -209 523 -237Q520 -235 520 -233Q520 -231 514 -231Q490 -231 490 -254V-256Q488 -258 477 -265L473 -291Q472 -298 475 -302Q470 -309 470 -321Q470 -351 483 -364Q496 -395 513 -398Q508 -388 505 -376Q505 -374 507 -368Q515 -366 522 -366Q543 -366 556 -374Q561 -371 567 -371Q589 -373 610 -376Q621 -376 626 -374Q620 -371 609 -370Q598 -369 595 -359Q600 -354 609 -354Q616 -354 633 -359Q697 -369 749 -391Q742 -394 733 -394Q722 -394 697 -388Q673 -382 661 -382Q652 -382 643 -385Q690 -400 695 -401Q726 -409 750 -409Q760 -416 773 -419Q776 -419 778 -418Q770 -426 761 -434Q675 -429 657 -421Q649 -417 635 -406Q613 -389 601 -385Q551 -409 541 -424Q532 -480 520 -510Q503 -552 473 -572Q470 -581 470 -588Q471 -604 479 -618Q486 -632 491 -646Q493 -644 497 -644Q501 -644 509 -652V-655Q508 -662 507 -670V-673Q516 -669 522 -666L526 -667V-668Q526 -674 521 -684Q515 -696 514 -701Q522 -689 555 -677Q590 -664 596 -652Q613 -662 631 -667Q649 -672 667 -679Q684 -686 703 -695Q721 -703 741 -704H744Q729 -689 686 -671Q643 -653 627 -637Q629 -636 632 -636Q644 -639 654 -646Q689 -661 726 -676Q763 -690 798 -709Q794 -715 786 -715Q774 -713 761 -711Q759 -711 756 -712Q768 -722 792 -732Q816 -742 824 -748Q838 -764 854 -775Q860 -777 862 -777Q874 -775 885 -773H888Q897 -773 905 -774Q912 -774 919 -770Q934 -779 952 -785V-784Q952 -782 947 -779Q940 -775 938 -770Q935 -765 935 -758Q935 -749 941 -746H942Q944 -746 949 -752Q956 -761 961 -761Q956 -746 952 -733Q952 -730 953 -728L955 -727Q956 -727 957 -730Q958 -733 962 -733H964V-731Q962 -726 959 -721V-718Q959 -710 966 -697Q973 -683 973 -677V-671Q969 -645 953 -625H949Q932 -624 925 -611Q918 -598 906 -590Q904 -592 904 -597Q904 -603 910 -613Q916 -623 916 -628V-631Q914 -631 911 -632Q901 -632 885 -615Q872 -601 863 -599Q856 -578 845 -558Q834 -538 833 -513V-509Q850 -525 860 -549Q870 -575 897 -578H900Q882 -552 863 -523Q859 -514 856 -495Q854 -480 851 -472Q847 -463 841 -455Q836 -447 835 -433V-431Q866 -433 886 -444Q907 -456 928 -467Q923 -459 919 -449Q919 -446 924 -442Q928 -438 929 -434Q940 -442 961 -442H968Q962 -438 956 -435Q950 -431 949 -422V-419Q955 -414 973 -412Q959 -403 959 -395Q959 -394 961 -388L962 -386Q965 -388 968 -390L970 -389Q955 -329 869 -329H864Q870 -318 870 -309Q870 -296 856 -271Q840 -243 838 -227L836 -179Q883 -190 929 -202H930Q934 -202 935 -199Q935 -196 938 -196Q945 -199 952 -203L953 -201Q951 -196 949 -191H967Q978 -191 984 -190ZM954 -487Q947 -474 937 -472V-474Q937 -479 940 -484Q943 -489 948 -489Q952 -489 954 -487ZM330 -319Q339 -325 346 -336Q356 -342 365 -349Q369 -364 368 -370Q367 -370 367 -369Q367 -370 366 -371Q366 -381 383 -360Q383 -361 378 -396Q375 -403 373 -411Q371 -417 375 -421Q382 -407 388 -388Q394 -369 403 -353Q404 -360 403 -367Q397 -385 390 -403Q389 -410 390 -416Q398 -405 410 -378Q422 -350 431 -342Q440 -334 451 -319Q451 -315 453 -309Q458 -295 462 -281Q463 -275 461 -263Q459 -251 461 -240Q463 -236 464 -232Q440 -222 415 -212Q411 -210 408 -210Q406 -210 394 -212Q372 -216 356 -214Q345 -214 329 -210Q328 -194 328 -162Q339 -165 350 -168Q376 -182 408 -190Q414 -191 423 -197Q434 -204 443 -204H445Q447 -205 450 -213Q453 -220 457 -222V-220Q459 -210 461 -201Q468 -203 475 -205V-203Q477 -194 483 -187Q488 -188 493 -189Q495 -189 497 -187Q489 -173 480 -160Q484 -153 484 -146Q484 -139 483 -132Q483 -128 485 -120Q463 -112 441 -108H435L434 -112Q434 -119 446 -124Q458 -129 460 -135Q454 -136 451 -141Q405 -133 370 -113Q360 -107 358 -106Q351 -101 350 -96Q357 -96 370 -101Q386 -107 392 -107Q402 -107 409 -99Q389 -97 350 -73Q341 -71 330 -67Q332 -7 332 0Q332 13 334 37Q336 51 336 58Q336 80 315 84Q312 85 308 85Q281 82 266 48Q250 14 250 -17V-30Q165 15 162 46Q157 47 151 47Q139 47 115 43Q106 23 73 0Q72 -2 72 -6Q75 -18 77 -31Q77 -36 72 -46Q68 -54 68 -60V-62Q69 -79 81 -92Q93 -105 105 -117Q121 -139 142 -146Q133 -154 124 -156Q121 -170 107 -182Q108 -185 106 -192Q105 -199 100 -205Q94 -213 93 -219L92 -220Q95 -223 101 -233Q107 -243 113 -247Q118 -264 136 -384Q132 -382 131 -381Q126 -383 110 -387Q87 -392 79 -399Q77 -404 75 -410V-412Q35 -433 35 -460V-463Q37 -474 38 -486V-493Q37 -506 36 -520Q36 -529 40 -536Q48 -552 72 -568Q94 -583 102 -593Q110 -581 128 -581Q141 -581 166 -590Q167 -593 170 -613Q172 -625 156 -650Q141 -674 143 -683Q145 -699 143 -714Q141 -729 150 -743Q169 -757 188 -763Q214 -778 257 -761Q263 -759 271 -751Q281 -741 287 -740Q293 -744 299 -749Q299 -741 298 -733Q298 -724 308 -725Q305 -718 306 -711Q308 -704 309 -698Q304 -691 302 -682L303 -678Q289 -672 273 -621Q338 -641 354 -646Q380 -654 397 -660Q417 -666 436 -673Q433 -669 430 -665Q441 -640 446 -620Q453 -583 453 -578Q453 -559 439 -545Q441 -539 441 -538Q440 -530 438 -522Q438 -517 439 -514Q420 -507 400 -500V-503Q401 -513 407 -517Q413 -521 418 -526Q407 -537 398 -537Q393 -537 391 -536Q373 -532 354 -524Q329 -514 324 -506Q321 -501 321 -485H324Q346 -490 365 -495Q373 -495 378 -491Q371 -485 332 -472Q261 -449 231 -429Q230 -418 226 -401Q278 -424 295 -443Q312 -438 327 -432Q332 -417 337 -408Q344 -395 348 -376Q339 -357 330 -339V-324Q330 -321 330 -319ZM329 -239Q329 -231 329 -223Q337 -226 356 -228Q360 -228 372 -230Q390 -233 400 -252Q372 -250 329 -239ZM255 -138Q255 -167 254 -196V-218Q217 -204 198 -185Q202 -178 210 -182Q220 -184 229 -186Q236 -188 243 -190Q242 -179 228 -175L223 -174Q202 -168 180 -153Q173 -147 165 -141H162Q154 -139 143 -146Q133 -138 133 -122Q133 -112 138 -107Q172 -110 255 -138ZM249 -288Q241 -330 217 -356Q202 -294 194 -272Q226 -279 249 -288Z"/>
</svg>