<svg xmlns="http://www.w3.org/2000/svg" viewBox="0 -800 1024 1024">
	<path fill="#000000" d="M139 -451V-455Q139 -470 150 -470Q154 -470 156 -469Q150 -452 139 -451ZM432 -403H434Q433 -391 425 -383Q420 -383 418 -385L416 -388Q419 -393 422 -398Q425 -403 432 -403ZM914 -345V-343Q900 -334 896 -332V-336Q896 -354 913 -355V-353Q914 -349 914 -345ZM947 -205H949Q952 -200 952 -197Q949 -188 945 -179Q936 -183 936 -195Q936 -205 947 -205ZM625 -431H624Q573 -412 559 -391Q577 -378 594 -365Q607 -400 627 -427ZM285 -523V-511Q272 -479 223 -479Q197 -479 175 -490Q171 -489 166 -484Q160 -478 154 -478H153Q157 -486 157 -493Q156 -506 148 -515Q139 -524 132 -533Q117 -532 108 -525Q98 -519 91 -515Q92 -525 107 -539Q117 -548 120 -554Q117 -570 108 -581H105Q97 -578 88 -575H86V-577Q86 -583 95 -591Q105 -599 105 -605Q90 -677 86 -688Q96 -683 104 -676Q116 -685 134 -688Q138 -688 144 -686Q157 -699 162 -722H163L166 -721Q165 -717 165 -710Q165 -684 189 -675Q203 -670 240 -670Q244 -672 252 -681Q259 -689 264 -689L265 -685Q265 -681 260 -676Q254 -671 254 -670Q253 -666 253 -660Q257 -635 271 -617Q280 -623 281 -623L285 -622Q280 -599 280 -596Q280 -587 285 -581Q288 -576 296 -574Q304 -571 307 -568Q285 -562 285 -523ZM945 89V94Q937 101 926 103Q915 105 908 108Q865 88 713 30H709Q692 30 692 21L693 17H695Q704 19 713 20Q720 20 723 17Q721 6 708 -1Q701 -5 680 -11Q659 -18 650 -18Q642 -18 636 -11Q636 -2 653 2Q666 5 666 11L665 14Q663 15 660 15Q656 15 633 10Q574 -5 505 -13Q460 -15 436 -24Q441 -32 452 -32Q453 -32 477 -29Q544 -18 610 -7Q612 -11 612 -13Q612 -25 588 -32Q567 -36 545 -40Q499 -49 443 -55Q412 -58 380 -61Q372 -61 360 -59Q344 -56 344 -46V-44Q345 -35 359 -35Q364 -35 368 -36Q381 -36 381 -28V-27Q332 -22 279 -22Q225 -21 194 -1H192Q181 -1 165 13Q153 24 145 25Q142 26 138 26Q112 26 102 1Q82 -7 71 -30V-36Q71 -60 83 -71Q81 -77 81 -82Q81 -97 89 -102Q83 -108 83 -111V-113Q85 -112 89 -112Q92 -112 110 -121Q124 -118 138 -118Q166 -119 194 -125Q221 -132 248 -136Q240 -152 209 -166Q178 -180 171 -194V-242Q165 -240 153 -224Q140 -206 130 -203Q120 -201 116 -201Q91 -201 83 -221Q66 -226 57 -236Q46 -248 46 -264Q46 -272 49 -281Q35 -302 35 -324Q35 -335 39 -343Q47 -351 55 -359Q67 -375 77 -390Q88 -405 98 -410Q92 -389 92 -370Q92 -354 99 -347Q126 -355 152 -370Q178 -385 203 -398Q199 -406 188 -406Q178 -406 154 -394Q134 -384 126 -383V-386Q127 -397 144 -402Q161 -407 177 -415Q182 -419 188 -425Q196 -434 200 -436Q214 -442 230 -446H231Q237 -445 243 -438Q249 -432 252 -431Q257 -433 264 -442Q271 -451 280 -452Q273 -437 269 -422Q269 -417 270 -415L273 -413Q277 -415 280 -417L282 -416V-408Q282 -397 286 -373Q291 -360 295 -347Q294 -338 287 -327Q279 -317 274 -308Q260 -283 257 -263Q285 -238 311 -211Q340 -178 339 -139V-133Q346 -129 356 -129Q365 -129 374 -130Q379 -130 387 -128H388Q390 -128 390 -130Q390 -133 393 -133Q409 -128 431 -128Q442 -128 453 -129Q461 -128 468 -128Q479 -127 555 -112Q610 -103 659 -101Q713 -90 769 -85Q767 -92 751 -104Q732 -118 729 -131Q735 -131 747 -122Q761 -112 773 -112H775V-115Q775 -125 757 -143Q724 -179 718 -184Q693 -206 665 -211Q668 -196 686 -181Q705 -166 707 -152Q693 -157 677 -175Q659 -195 645 -199Q631 -178 619 -152V-147Q619 -136 613 -124Q594 -120 574 -117Q571 -117 567 -118Q561 -119 553 -127Q543 -137 537 -137H535Q531 -146 524 -152Q517 -158 511 -165Q512 -169 512 -175Q512 -186 502 -197Q495 -205 493 -211L495 -214Q498 -211 501 -209V-210Q501 -223 488 -232Q477 -240 475 -247Q477 -248 481 -248Q487 -248 497 -240Q507 -232 512 -232L516 -233Q527 -243 538 -260Q542 -269 545 -278Q547 -288 554 -292Q548 -304 529 -317Q514 -327 510 -332Q494 -302 466 -233Q460 -215 454 -197Q449 -192 443 -187Q440 -182 430 -149Q416 -151 406 -151Q389 -151 381 -146Q375 -160 357 -176Q343 -188 339 -194Q341 -202 341 -205Q338 -220 335 -236V-239Q336 -246 336 -253Q334 -267 314 -287Q300 -301 296 -310Q305 -308 319 -296Q334 -282 344 -280Q355 -287 361 -299Q368 -311 375 -323Q382 -335 389 -347Q396 -359 412 -362Q409 -352 397 -334Q381 -310 381 -292V-287Q426 -329 452 -398Q462 -425 462 -434Q462 -440 461 -443Q454 -442 448 -430Q442 -417 434 -416Q436 -435 450 -463Q462 -486 465 -502Q452 -500 436 -482Q421 -465 409 -464H407Q382 -464 363 -484Q358 -498 353 -509Q343 -513 333 -518Q318 -531 318 -560Q318 -586 330 -607Q322 -626 322 -638Q323 -661 341 -676Q358 -690 377 -704Q388 -713 398 -722Q407 -732 419 -733Q418 -728 410 -720Q402 -712 401 -703L403 -699Q409 -698 420 -698Q451 -698 507 -715Q565 -732 600 -733Q555 -714 529 -707Q511 -702 493 -698Q471 -692 461 -679Q465 -671 480 -671Q487 -671 535 -683Q563 -693 591 -704Q672 -724 698 -746Q697 -752 689 -752Q679 -750 668 -749H665Q670 -761 704 -772Q719 -775 734 -778Q748 -780 757 -790Q770 -791 788 -803Q792 -803 792 -796Q792 -790 791 -784V-782Q797 -780 810 -780Q840 -782 867 -791Q863 -784 846 -777Q824 -768 822 -754Q824 -753 827 -753Q830 -753 841 -758Q852 -763 860 -763H864Q862 -758 850 -752Q836 -745 836 -737L837 -733L840 -732Q847 -735 854 -739Q856 -739 858 -737Q856 -731 850 -721Q845 -710 844 -699Q844 -692 846 -689L848 -688Q851 -690 853 -693L855 -691L856 -688Q853 -679 846 -671Q842 -659 840 -647Q838 -634 831 -623Q819 -612 800 -602Q790 -605 778 -605Q751 -604 724 -594Q696 -583 668 -575L587 -553Q572 -548 567 -541V-540Q567 -534 573 -530Q582 -525 582 -524V-522Q585 -506 587 -491Q587 -483 582 -478Q609 -490 642 -512Q660 -523 675 -536Q691 -549 710 -550Q726 -550 742 -539Q750 -542 760 -555Q770 -569 781 -571Q779 -563 770 -552Q758 -537 758 -525V-523H760Q765 -526 775 -530H778Q772 -521 770 -508V-505Q772 -502 773 -502Q776 -504 779 -506L781 -505V-499Q780 -481 778 -463Q778 -453 782 -448Q777 -441 774 -432Q774 -429 775 -427Q723 -387 687 -305Q693 -296 705 -289Q717 -283 729 -277Q751 -263 772 -250Q784 -242 793 -242H797Q820 -244 830 -264Q840 -283 856 -296Q853 -283 839 -261Q825 -239 822 -221Q839 -244 856 -272Q873 -301 895 -323Q888 -304 870 -273Q846 -232 840 -205Q845 -208 852 -223Q862 -244 872 -248Q848 -182 843 -83Q870 -87 890 -98V-92Q890 -84 893 -83Q901 -89 910 -110Q918 -127 925 -134Q919 -101 919 -84Q920 -77 920 -70Q931 -83 935 -122Q938 -152 942 -162V-149Q942 -116 941 -84Q941 -43 948 -8Q954 11 960 30V34Q960 44 952 63Q945 79 945 89Z"/>
</svg>