<svg xmlns="http://www.w3.org/2000/svg" viewBox="0 -800 1024 1024">
	<path fill="#000000" d="M439 -42Q435 -31 431 -21Q422 -18 413 -11Q404 -4 397 -9Q400 -12 401 -12Q407 -16 413 -20Q415 -21 417 -23L416 -24Q409 -35 384 -18Q375 -9 378 -3Q381 1 387 -1Q392 -2 394 -1Q396 4 387 8Q382 11 377 14L371 18Q358 28 332 54Q326 58 322 56Q332 46 340 35Q350 20 362 8Q354 4 342 13Q327 40 307 48Q299 50 289 58Q276 68 276 77Q276 83 280 82Q289 80 302 71Q313 66 316 65Q307 77 289 86Q273 94 256 87Q227 78 203 73Q201 73 199 70Q197 66 195 66H193Q176 66 162 75V74Q162 67 186 58Q179 44 179 27Q181 -13 192 -24L199 -25Q193 -29 187 -33L188 -34Q195 -34 198 -33Q203 -38 208 -74Q214 -123 226 -125Q226 -52 242 -38Q240 -140 246 -215Q240 -216 236 -200Q232 -183 232 -177Q227 -157 218 -139Q217 -144 217 -165Q216 -196 213 -227Q211 -257 216 -281Q179 -269 151 -211Q139 -208 132 -208Q128 -208 120 -210Q110 -218 98 -243Q89 -262 84 -269Q78 -277 72 -286L71 -290Q73 -296 74 -302V-304Q73 -317 72 -331Q72 -335 73 -338Q68 -347 59 -354Q50 -361 45 -367Q47 -369 51 -369Q63 -364 73 -355Q71 -369 49 -385Q31 -398 26 -408Q39 -407 57 -391Q71 -378 80 -376Q81 -384 67 -393Q54 -401 52 -409Q69 -403 85 -392Q91 -389 94 -389H95Q99 -391 102 -394Q106 -396 118 -396Q126 -395 134 -395Q141 -395 143 -396Q170 -400 176 -402Q180 -400 184 -399Q180 -392 173 -391Q167 -390 157 -386Q145 -381 143 -374Q143 -367 150 -361Q191 -371 236 -400Q234 -404 227 -406Q214 -403 200 -400L196 -401Q198 -413 211 -413H213Q225 -423 239 -430Q244 -429 249 -429Q253 -429 257 -430Q262 -427 267 -425Q272 -427 283 -435Q293 -443 301 -445V-444Q297 -438 286 -430Q281 -423 281 -414Q281 -410 281 -407Q286 -408 294 -414Q304 -422 310 -423Q294 -410 294 -398Q294 -389 303 -385Q308 -388 314 -391H317L318 -390Q316 -386 313 -383L315 -380L317 -378Q320 -379 323 -380Q318 -375 318 -363Q319 -346 320 -330Q320 -323 318 -320H317Q313 -320 311 -324Q309 -327 308 -330Q296 -325 295 -312Q293 -299 287 -288Q286 -286 280 -282Q275 -278 273 -273Q275 -270 277 -267H282Q299 -268 305 -281Q311 -294 321 -305Q325 -298 324 -290Q324 -289 318 -262Q313 -257 307 -259Q291 -258 286 -232Q282 -207 284 -171Q292 -92 288 -52Q304 -63 320 -75Q329 -82 315 -104Q304 -121 301 -136Q305 -133 317 -117Q328 -103 335 -100Q338 -108 317 -140L339 -117L309 -174L350 -122L342 -145Q352 -131 357 -126Q342 -146 338 -160Q343 -159 348 -154Q353 -146 356 -138Q363 -128 370 -118Q378 -106 385 -101Q400 -91 416 -73Q419 -70 421 -68Q426 -61 429 -54Q437 -44 439 -42ZM98 -514V-517Q98 -529 114 -529Q118 -529 120 -528Q111 -515 98 -514ZM195 -665V-669Q195 -675 194 -681L195 -685H197Q204 -683 209 -679Q226 -686 244 -689Q262 -692 271 -706Q277 -704 281 -694Q284 -687 287 -684Q295 -679 302 -675Q314 -662 324 -648Q326 -648 329 -653Q332 -658 337 -658L340 -657Q338 -651 338 -640Q344 -606 365 -587Q374 -558 374 -536Q374 -512 362 -497Q361 -496 343 -483Q333 -473 323 -468Q315 -466 311 -466Q298 -466 272 -487Q252 -504 240 -507Q235 -507 227 -500Q222 -496 219 -496Q218 -498 218 -501Q221 -511 228 -519Q228 -522 225 -522Q222 -522 222 -525Q196 -521 191 -519Q179 -515 162 -502Q147 -490 139 -487Q140 -496 148 -504Q157 -511 166 -519Q197 -544 197 -552Q197 -556 191 -558Q189 -559 184 -559Q171 -559 150 -544Q134 -533 127 -533Q135 -549 155 -556Q174 -563 176 -582Q176 -585 175 -588Q163 -588 154 -591Q164 -599 173 -608Q171 -625 155 -640Q137 -657 133 -668Q148 -655 168 -655Q184 -655 195 -665ZM700 -13V-15Q692 -15 683 -16Q606 -16 587 32Q590 36 595 36Q610 31 628 22Q655 17 685 14Q700 -3 700 -13ZM736 -135Q732 -138 723 -138Q715 -138 710 -132Q707 -135 706 -135L702 -134Q664 -119 630 -107Q596 -94 569 -68Q569 -58 577 -58Q579 -58 598 -65Q647 -82 674 -94Q680 -88 683 -80Q696 -87 709 -95Q702 -89 702 -79Q702 -69 709 -60Q707 -50 705 -40Q705 -36 706 -34Q711 -59 736 -135ZM531 -188H533Q517 -197 501 -207Q503 -211 503 -214Q500 -225 496 -236Q507 -261 519 -285Q530 -310 531 -341L529 -342H528Q484 -263 463 -187Q472 -192 486 -192Q509 -190 531 -188ZM729 -209Q725 -220 711 -220Q701 -220 688 -215V-218Q689 -224 694 -226Q699 -227 703 -230Q700 -233 695 -233Q683 -233 673 -223Q655 -226 626 -236Q590 -226 569 -197Q618 -210 660 -213V-204Q618 -198 600 -192Q569 -182 558 -160Q563 -152 569 -152Q579 -154 589 -161Q607 -169 652 -182Q710 -199 729 -209ZM524 -549Q524 -559 522 -563Q509 -553 508 -546Q515 -535 515 -531Q515 -522 500 -507Q485 -492 485 -483Q485 -479 486 -477Q501 -487 516 -497Q520 -523 524 -549ZM725 -401Q725 -405 724 -407Q717 -390 704 -382Q708 -410 723 -427H714Q709 -427 709 -433Q713 -439 715 -446V-448Q701 -445 687 -442Q674 -440 665 -431Q665 -421 676 -416Q692 -424 695 -424Q701 -424 702 -419Q691 -408 676 -399Q661 -404 652 -412Q641 -422 639 -437Q634 -432 630 -432L627 -434Q636 -440 642 -451Q607 -444 606 -444Q585 -437 581 -422Q593 -424 604 -427Q612 -427 615 -420Q605 -418 595 -416Q585 -414 584 -402V-401Q584 -393 595 -381Q608 -367 608 -355V-351Q605 -336 595 -322Q589 -307 583 -292Q592 -295 602 -301Q618 -311 626 -313Q622 -307 618 -301L621 -300Q625 -301 629 -303L630 -302L628 -295Q646 -307 659 -324Q671 -342 685 -359Q688 -356 688 -352Q684 -338 674 -322Q663 -296 663 -287V-284Q669 -287 683 -308Q699 -333 715 -373Q722 -385 725 -401ZM782 -395H781L780 -396V-399L779 -401H778Q758 -361 737 -321Q715 -281 704 -230Q731 -243 762 -251Q760 -267 744 -279Q746 -286 751 -288Q744 -294 740 -307Q773 -362 782 -395ZM840 -741Q849 -742 858 -744H863V-743Q863 -741 861 -741Q858 -741 858 -738Q859 -731 874 -731Q886 -731 889 -727Q887 -724 881 -724H880Q873 -724 873 -719Q875 -716 879 -716Q886 -716 892 -717Q897 -717 899 -715Q898 -711 893 -709Q888 -707 888 -704Q895 -687 898 -673L897 -669Q894 -662 880 -653Q873 -647 869 -641Q864 -634 854 -634H853Q840 -619 840 -601Q840 -595 843 -589Q851 -595 870 -602Q897 -613 906 -623Q908 -621 913 -609Q926 -613 936 -614Q935 -612 931 -611Q926 -610 926 -606Q929 -602 936 -602Q944 -602 951 -603Q945 -598 941 -590Q941 -587 944 -586Q948 -585 949 -584Q941 -575 937 -571Q941 -567 941 -560Q939 -544 936 -528Q936 -521 937 -518Q925 -513 905 -513Q897 -513 885 -515Q888 -518 898 -523Q911 -529 914 -536Q912 -540 903 -540H894Q871 -540 845 -524Q825 -511 808 -492Q813 -493 827 -500Q848 -511 857 -511Q863 -511 870 -506Q854 -497 838 -489Q821 -482 811 -467Q826 -449 827 -448Q837 -438 846 -437V-432Q846 -418 857 -411Q855 -393 842 -370Q830 -349 827 -336Q833 -333 839 -333Q854 -334 869 -336Q875 -342 881 -360Q887 -381 896 -386Q892 -362 892 -360Q892 -351 896 -348Q900 -373 900 -402Q900 -431 913 -446Q909 -416 909 -391Q909 -379 911 -361Q915 -367 917 -385Q919 -406 925 -411Q926 -406 926 -401Q926 -385 925 -369Q925 -341 936 -335Q941 -340 943 -350Q947 -330 967 -317V-313Q967 -303 972 -297Q976 -292 979 -285Q965 -246 932 -246Q923 -246 917 -248Q919 -251 927 -254Q934 -257 937 -261Q929 -277 907 -279Q884 -281 858 -281Q844 -283 835 -283Q824 -283 818 -278Q826 -271 854 -269Q886 -267 893 -256H889Q866 -259 843 -262Q838 -262 832 -260Q840 -242 846 -234Q856 -220 866 -220L870 -221L872 -218Q871 -214 870 -211V-210H871Q876 -212 881 -214Q883 -214 885 -212V-210Q885 -207 881 -204Q876 -200 875 -197V-193Q875 -186 886 -167Q881 -155 878 -141Q878 -138 880 -132Q859 -120 847 -108Q831 -92 826 -72Q818 -77 818 -85Q818 -91 825 -104Q832 -117 832 -123Q832 -127 830 -131Q806 -128 799 -108Q792 -88 784 -60Q766 -21 759 23Q759 28 759 33Q759 46 764 52Q772 43 781 11Q792 -28 805 -35Q804 -18 796 13Q785 53 785 72Q787 88 788 103Q788 108 787 111Q782 137 746 154Q745 153 743 151Q741 150 739 149Q726 148 712 140Q697 127 689 109Q687 101 688 94Q688 87 682 83Q647 90 617 94Q589 98 581 129Q575 130 569 130Q542 129 528 114Q513 99 496 88Q499 69 504 60Q499 48 495 34Q495 29 499 26Q504 29 508 40Q515 28 515 12Q513 -30 489 -52Q482 -46 482 -39Q482 -32 487 -19Q493 -4 493 3V7L481 4Q472 -29 453 -53Q435 -67 419 -83Q413 -92 408 -102Q402 -112 391 -118Q399 -148 434 -169Q427 -174 422 -180Q417 -186 407 -187H405Q405 -195 401 -203Q383 -206 381 -206Q381 -209 387 -209V-210Q385 -221 375 -221Q372 -221 368 -219Q378 -254 419 -269Q416 -254 416 -253Q416 -250 417 -248Q429 -256 449 -282Q468 -311 470 -329Q456 -325 448 -311Q441 -297 434 -290Q441 -330 460 -359Q452 -358 443 -347Q435 -337 429 -336H425Q414 -336 404 -349Q403 -351 390 -373Q393 -377 393 -383Q393 -398 382 -404Q390 -434 413 -457Q424 -464 430 -488Q432 -496 437 -533V-534Q435 -537 432 -541V-542Q433 -549 443 -555Q450 -559 452 -563Q450 -569 447 -573Q443 -578 438 -578H436Q426 -598 414 -615Q401 -632 397 -653Q407 -651 413 -649Q430 -661 468 -670Q497 -677 511 -684Q533 -690 587 -701Q612 -705 636 -709Q636 -706 632 -702Q629 -699 628 -695L629 -694Q633 -696 636 -698H637Q633 -692 631 -684Q632 -680 637 -676Q645 -669 645 -661V-656Q645 -653 651 -653Q646 -644 643 -606Q638 -606 637 -608Q634 -597 621 -591Q618 -590 598 -583Q582 -567 580 -521H581Q592 -521 602 -534Q612 -548 623 -548Q624 -535 637 -520L657 -523L659 -522Q655 -518 651 -514H652Q655 -515 658 -517L660 -515L659 -512L660 -511Q668 -514 676 -518Q681 -535 681 -549Q681 -568 668 -614Q680 -617 690 -617Q734 -617 753 -581V-578Q752 -567 751 -556V-552H752Q767 -552 767 -581Q767 -600 762 -615Q750 -615 748 -608Q743 -615 738 -617Q736 -617 732 -615Q722 -643 686 -659Q689 -669 694 -677Q689 -694 680 -709Q716 -717 751 -725Q776 -731 796 -737Q816 -743 840 -741ZM939 -445Q937 -426 925 -419Q922 -423 922 -430Q922 -447 932 -447Q935 -447 939 -445Z"/>
</svg>