<svg xmlns="http://www.w3.org/2000/svg" viewBox="0 -800 1024 1024">
	<path fill="#000000" d="M778 -163Q672 -141 604 -79Q606 -77 607 -67Q609 -57 613 -54L617 -53Q623 -54 629 -56Q630 -56 634 -54Q650 -64 675 -74Q698 -83 715 -93Q730 -93 740 -90Q741 -96 750 -108Q760 -121 760 -130Q760 -136 756 -141Q765 -142 770 -149Q771 -150 778 -163ZM758 -576Q755 -576 751 -577Q729 -574 709 -562Q699 -558 686 -552Q672 -547 669 -536Q669 -527 678 -509Q683 -487 683 -477Q683 -467 678 -449Q677 -445 668 -439Q660 -434 660 -430V-429Q680 -423 693 -423H700Q751 -516 758 -576ZM971 -143Q961 -127 943 -117Q925 -107 913 -96V-100Q914 -110 921 -118Q928 -127 933 -134Q927 -146 918 -146Q908 -146 898 -134Q889 -123 888 -111Q883 -111 883 -120H879Q864 -120 854 -106Q836 -76 820 -39Q810 -20 804 -3Q798 21 798 24Q798 32 801 35Q813 22 831 -18Q848 -55 864 -68V-66Q863 -59 862 -53Q862 -50 863 -48Q870 -49 876 -60Q883 -72 890 -72L894 -71L895 -68Q895 -65 890 -62Q886 -60 885 -57Q879 -39 865 -13Q845 22 841 41Q833 42 829 52Q823 65 821 67Q823 73 823 76Q823 82 816 96Q811 106 810 112Q807 112 806 109Q806 106 805 103Q800 103 796 104Q790 105 790 110Q760 99 730 87Q727 77 712 60Q710 34 703 26Q691 24 686 24Q675 24 655 33Q634 42 628 51Q625 62 616 72Q604 70 591 68Q586 68 583 69Q568 65 553 47Q536 26 521 24Q522 21 522 15Q522 4 506 -33Q499 -34 491 -45Q485 -53 481 -56Q468 -65 459 -79Q452 -89 450 -101Q449 -108 448 -131Q446 -139 444 -148Q445 -150 445 -153Q449 -176 484 -195Q485 -200 483 -208Q480 -218 482 -223Q493 -208 513 -201Q532 -194 549 -185Q626 -220 707 -245Q715 -247 720 -247Q729 -247 733 -241Q655 -218 623 -186Q631 -180 641 -180Q662 -183 724 -207Q786 -232 808 -241V-243Q807 -252 799 -252Q790 -253 783 -257Q787 -266 796 -267Q806 -268 815 -270Q827 -275 833 -281Q856 -286 878 -291Q886 -297 896 -309Q906 -322 912 -326L913 -322Q913 -317 906 -306Q898 -293 898 -285Q898 -282 900 -276L902 -275Q907 -279 915 -283H916Q915 -280 915 -274Q915 -264 921 -260Q924 -261 928 -266Q932 -271 937 -272Q934 -260 934 -247Q934 -223 953 -219Q962 -181 971 -143ZM960 -603Q960 -580 942 -548Q908 -544 889 -512Q875 -483 857 -455Q856 -458 856 -465Q856 -482 874 -510Q891 -536 892 -551Q890 -553 888 -553Q879 -553 859 -527Q845 -507 831 -472Q814 -430 814 -404Q814 -396 815 -393Q821 -379 827 -375Q835 -376 837 -399Q839 -426 848 -427Q849 -422 849 -412Q849 -397 848 -382Q848 -376 850 -364Q842 -361 838 -353Q835 -346 830 -336Q819 -322 808 -309Q786 -270 766 -270Q761 -270 753 -273Q744 -281 737 -291Q726 -297 715 -304Q709 -310 704 -325Q698 -342 692 -348Q685 -354 677 -357Q669 -360 668 -370Q672 -372 673 -372Q681 -369 688 -366Q686 -379 666 -388Q646 -397 644 -408Q651 -408 662 -403Q672 -399 681 -398Q659 -420 649 -420H648Q640 -419 637 -411Q634 -404 630 -395Q619 -379 608 -364Q592 -339 566 -301Q539 -263 526 -238Q526 -232 525 -226V-223Q505 -217 503 -217Q498 -226 478 -235Q454 -246 449 -259Q445 -267 445 -285Q439 -327 433 -369Q445 -356 460 -346Q529 -411 585 -493Q574 -490 558 -479Q542 -468 533 -463Q515 -464 511 -465Q498 -468 494 -476Q493 -477 493 -482Q494 -488 494 -494Q494 -497 493 -500Q491 -509 478 -523Q459 -544 459 -561Q459 -569 460 -571Q465 -586 469 -601Q471 -629 481 -649Q488 -649 499 -659Q508 -667 515 -667Q520 -667 526 -662Q533 -656 536 -656H539Q553 -659 566 -663Q571 -663 573 -662Q571 -653 557 -650Q543 -647 543 -638V-635Q544 -625 557 -625Q577 -627 610 -642Q644 -656 656 -662Q678 -671 697 -678Q716 -685 725 -696Q716 -699 708 -699Q693 -699 666 -688Q646 -680 639 -680H638Q642 -691 652 -695Q662 -699 672 -701Q699 -708 713 -714Q773 -738 787 -749Q798 -759 806 -769Q815 -779 829 -783Q849 -781 865 -761Q889 -731 892 -729Q900 -732 905 -736L907 -735L908 -732Q905 -724 902 -716Q902 -714 904 -710Q913 -715 922 -727Q932 -740 936 -743V-740Q936 -734 930 -723Q922 -708 921 -702V-698Q921 -695 925 -681H927Q929 -681 932 -686Q936 -693 941 -693H942V-690Q941 -677 939 -665Q940 -657 948 -642Q958 -624 959 -615Q960 -611 960 -603ZM313 -310Q324 -320 328 -326Q338 -332 347 -339Q351 -354 350 -360Q349 -360 349 -359Q349 -360 348 -361Q348 -371 365 -350Q365 -351 360 -386Q357 -393 355 -401Q353 -407 357 -411Q364 -397 370 -378Q376 -359 385 -343Q386 -350 385 -357Q379 -375 372 -393Q371 -400 372 -406Q381 -394 389 -365Q396 -340 403 -332Q413 -320 423 -309Q423 -305 425 -299Q430 -285 434 -271Q435 -265 433 -253Q431 -241 433 -230Q435 -226 436 -222Q417 -212 397 -202Q393 -200 390 -200Q388 -200 376 -202Q365 -204 338 -204Q322 -204 312 -203Q310 -157 312 -148Q326 -149 350 -159Q375 -169 393 -171Q396 -172 409 -183H414Q431 -185 447 -188Q451 -187 455 -187Q432 -176 426 -163L428 -162Q429 -162 432 -166Q436 -172 441 -172L445 -171L421 -147Q430 -140 435 -131Q420 -117 417 -93Q402 -85 387 -78V-81Q387 -88 392 -94Q396 -100 397 -102V-103Q395 -107 392 -111Q320 -97 311 -65H314Q333 -70 352 -75Q358 -75 364 -72Q353 -66 337 -59Q321 -52 311 -39Q310 -18 308 2Q309 9 309 15Q317 41 320 62Q318 80 306 92Q293 104 284 116H280Q269 115 258 113Q235 89 224 56Q235 25 239 -10Q239 -20 236 -28Q201 -19 173 -3Q144 13 115 29Q112 35 112 40Q112 54 125 60Q142 47 158 33Q175 19 198 12V13Q198 18 186 30Q176 39 165 47Q153 61 142 76Q130 92 113 93Q102 93 87 84Q75 54 52 45Q48 33 48 18Q48 -19 73 -28Q80 -72 128 -103Q121 -96 121 -84Q121 -76 125 -70Q169 -75 229 -108Q236 -112 236 -126Q236 -160 236 -194Q208 -183 190 -165Q195 -163 211 -166Q218 -168 225 -170Q225 -162 204 -151Q183 -140 172 -133Q165 -127 157 -121H154Q144 -120 135 -126Q126 -132 116 -136Q113 -150 99 -162Q100 -165 98 -172Q97 -179 92 -185Q86 -193 85 -199L84 -200Q87 -203 93 -213Q99 -223 105 -227Q109 -242 128 -367Q104 -354 98 -354Q87 -356 80 -369Q74 -383 68 -397Q59 -412 55 -421Q49 -436 50 -453Q39 -464 32 -482Q36 -480 41 -475Q49 -466 53 -466Q56 -466 58 -467Q54 -473 45 -483Q31 -497 28 -507Q44 -498 57 -487Q61 -488 62 -491Q63 -494 65 -495Q59 -500 54 -503Q48 -507 46 -514H48Q53 -514 59 -508Q61 -524 71 -537Q82 -551 96 -550Q107 -548 113 -542V-540Q111 -530 109 -520Q109 -518 111 -512Q124 -518 152 -528Q154 -538 156 -556Q148 -554 144 -554V-555Q145 -566 159 -575Q161 -585 162 -593Q164 -605 148 -630Q133 -654 135 -663Q137 -679 135 -694Q133 -709 142 -723Q161 -737 180 -743Q206 -758 249 -741Q255 -739 263 -731Q273 -721 279 -720Q285 -724 291 -729Q291 -721 290 -713Q290 -704 300 -705Q297 -698 298 -691Q300 -684 301 -678Q296 -671 294 -662L295 -658Q284 -653 269 -615Q407 -667 418 -669Q412 -662 403 -659Q393 -657 391 -645V-644Q393 -642 395 -642Q403 -644 410 -646Q398 -642 396 -629Q396 -621 401 -615Q407 -608 416 -608H422Q415 -606 413 -592Q413 -573 420 -559Q411 -547 402 -535Q392 -524 388 -506Q370 -502 316 -474Q255 -442 221 -415Q217 -393 214 -382Q252 -409 262 -421Q271 -425 278 -425Q289 -425 303 -406Q312 -396 315 -392Q321 -384 321 -375V-370Q314 -371 307 -381Q301 -389 297 -392Q290 -385 290 -377Q290 -369 300 -353Q310 -336 312 -326Q313 -322 313 -315Q313 -312 313 -310ZM312 -221Q312 -217 312 -213Q321 -216 338 -218Q342 -218 354 -220Q372 -223 382 -242Q364 -241 312 -221ZM226 -264V-296Q226 -307 225 -309Q224 -318 206 -338Q194 -280 186 -252Q203 -255 226 -264Z"/>
</svg>