<svg xmlns="http://www.w3.org/2000/svg" viewBox="0 -800 1024 1024">
	<path fill="#000000" d="M792 -608V-600Q790 -601 787 -601Q780 -598 772 -596V-605Q780 -608 792 -608ZM811 -443V-444H820Q817 -429 813 -414Q807 -416 807 -422Q809 -432 811 -443ZM79 -255H83Q84 -252 89 -246Q95 -240 95 -233Q76 -239 73 -249V-250Q73 -255 79 -255ZM412 -320Q372 -308 342 -282Q349 -275 360 -272Q367 -282 385 -295Q407 -311 412 -320ZM579 -572V-575Q579 -579 572 -591Q563 -607 563 -617V-620H560Q549 -620 549 -609L550 -608L553 -609L555 -606Q550 -601 545 -596Q546 -594 546 -590Q544 -582 541 -574Q541 -570 543 -567Q492 -559 456 -537Q458 -531 458 -529Q458 -524 453 -513Q449 -505 449 -501V-498Q492 -509 554 -518Q560 -531 569 -544Q578 -557 579 -572ZM607 92H609Q613 88 613 75V61Q613 47 617 42Q624 49 624 64Q623 83 621 102Q621 109 622 112Q604 127 577 127Q560 127 549 120Q532 109 521 70Q508 24 502 15H504Q507 15 511 20Q517 26 521 27V23Q521 14 510 2Q497 -12 496 -20Q503 -19 511 -10Q520 -1 528 0Q532 -10 539 -56Q508 -50 477 -45Q473 -34 472 -14Q471 16 462 24H458Q451 24 440 29Q431 33 427 33H424Q397 33 376 -8H369Q348 -7 335 2Q322 12 310 22H293Q288 17 278 15Q275 6 254 -8Q227 -27 227 -42Q227 -53 237 -66Q237 -76 236 -87Q236 -93 239 -101Q255 -123 268 -131Q276 -133 283 -135Q289 -139 294 -144Q298 -149 305 -149L308 -147Q307 -143 305 -139V-138Q311 -137 316 -137Q331 -137 364 -145Q393 -152 410 -152H413V-158Q416 -175 418 -192Q418 -198 416 -201Q404 -199 399 -187Q396 -180 394 -162Q388 -166 388 -174Q392 -202 407 -215Q410 -218 424 -221Q428 -230 431 -240Q433 -251 443 -254Q441 -244 441 -240Q441 -222 456 -221Q462 -180 474 -164Q530 -175 548 -176Q547 -185 545 -195V-198Q556 -208 569 -216Q556 -207 541 -207Q520 -207 505 -223Q490 -239 490 -262V-266Q491 -277 503 -293Q514 -309 517 -317Q523 -342 524 -364Q525 -387 537 -402Q543 -396 557 -390Q578 -382 582 -372Q592 -384 602 -395Q612 -406 613 -428V-430Q617 -432 629 -432Q626 -433 619 -433Q611 -433 592 -427Q577 -422 568 -422H563Q567 -434 580 -437Q593 -440 603 -446Q597 -453 580 -453Q543 -453 511 -437Q460 -428 456 -427Q427 -418 422 -399H429Q442 -399 467 -406Q492 -413 504 -413Q509 -413 519 -411Q493 -404 461 -395Q430 -387 412 -365Q425 -369 440 -378Q456 -387 477 -388Q485 -388 489 -387Q506 -364 513 -344Q508 -323 491 -314Q474 -305 457 -295Q427 -275 409 -259Q382 -236 370 -212H367Q364 -212 360 -210Q326 -191 275 -146Q229 -108 221 -65Q210 -51 191 -51Q177 -51 165 -59Q153 -67 151 -81V-84Q153 -95 154 -107Q153 -119 142 -136Q134 -148 133 -155Q138 -155 144 -148Q149 -143 153 -143L156 -144Q149 -169 132 -187Q114 -205 101 -225Q113 -222 122 -213Q131 -204 141 -194Q150 -185 161 -175Q172 -165 185 -164H186Q199 -168 215 -179Q256 -200 259 -202Q283 -216 296 -233Q289 -239 283 -246Q276 -253 266 -254Q264 -255 258 -263Q251 -272 243 -275Q245 -280 250 -284Q245 -290 239 -297Q233 -294 227 -292Q226 -292 222 -294Q225 -300 239 -305Q249 -308 253 -312Q251 -315 245 -315Q230 -311 214 -308Q207 -308 204 -315Q249 -324 311 -368Q301 -395 298 -410Q291 -427 289 -442V-446Q291 -468 318 -470Q327 -484 355 -484H379Q392 -484 398 -485Q384 -500 370 -516Q333 -507 296 -498Q302 -507 324 -513Q349 -520 355 -531Q354 -538 344 -538Q340 -537 336 -537Q316 -533 283 -521Q238 -505 238 -492Q238 -486 242 -482Q248 -485 268 -485Q266 -478 259 -476Q252 -474 245 -471Q238 -467 226 -448Q216 -433 204 -432H200Q177 -435 161 -455Q146 -476 124 -483Q122 -493 120 -504V-506Q120 -513 128 -529Q135 -543 136 -551V-554Q136 -561 135 -569V-572Q139 -592 159 -608Q178 -623 195 -636Q220 -657 230 -659Q223 -647 214 -640Q204 -633 203 -616V-614Q266 -619 314 -644V-645Q314 -677 340 -694Q362 -708 397 -708Q405 -708 421 -706Q426 -702 433 -688Q441 -673 449 -668Q460 -669 474 -680Q489 -691 501 -692H502Q503 -692 505 -688Q506 -685 510 -684Q518 -684 529 -689Q537 -693 542 -693Q540 -688 537 -684V-683Q540 -683 548 -674Q556 -665 558 -665H559Q563 -665 565 -672Q567 -677 570 -680Q582 -684 594 -689Q603 -684 614 -683H619Q629 -726 629 -732Q629 -754 613 -758Q613 -762 622 -762Q618 -769 609 -770Q599 -772 592 -776Q620 -784 653 -797Q665 -803 680 -812Q694 -821 707 -822Q710 -821 712 -821Q725 -818 735 -803Q745 -789 752 -779Q756 -774 764 -768Q767 -757 767 -747V-741Q755 -730 749 -713Q778 -720 813 -737Q816 -740 819 -746Q823 -754 826 -756Q830 -756 830 -753Q828 -748 826 -743Q830 -734 843 -723Q853 -725 867 -733Q881 -741 888 -743Q887 -735 875 -727Q863 -719 862 -709L866 -708Q873 -709 879 -711Q880 -711 884 -709Q879 -703 874 -697Q869 -692 869 -680V-678L871 -676Q875 -677 879 -679L882 -677Q872 -668 864 -643Q855 -617 847 -609H841Q823 -607 804 -606Q806 -614 823 -614H829Q836 -618 836 -623Q836 -634 797 -634H792Q769 -627 745 -620Q718 -613 704 -608Q684 -600 681 -591Q686 -588 692 -588Q711 -592 730 -596Q737 -596 740 -594Q733 -588 683 -576Q642 -566 638 -546Q642 -544 645 -544Q649 -544 657 -549Q666 -555 673 -555H676Q679 -555 680 -551Q680 -548 683 -548Q699 -550 705 -554Q704 -547 703 -540Q703 -531 711 -528Q721 -534 734 -534Q741 -534 745 -531Q737 -527 728 -523Q719 -519 718 -512V-510L722 -509Q728 -510 734 -512H737Q722 -495 715 -476Q709 -470 703 -464Q696 -458 695 -447Q680 -446 666 -445Q651 -444 643 -437Q646 -431 652 -431Q658 -431 665 -430Q673 -424 683 -422Q689 -422 696 -427Q704 -433 708 -433H709Q708 -427 703 -425Q697 -422 696 -416Q701 -406 708 -398Q715 -391 716 -377Q716 -371 715 -368Q706 -357 702 -342Q697 -343 687 -343Q656 -343 630 -334Q600 -324 591 -306H605Q652 -306 700 -309Q732 -310 738 -311Q756 -314 764 -324Q769 -331 770 -346Q771 -364 775 -371Q777 -365 778 -346Q778 -329 782 -321Q788 -338 788 -369Q787 -405 786 -442Q786 -466 788 -477Q793 -459 796 -413Q799 -360 807 -339Q808 -342 808 -350Q807 -368 806 -387Q806 -403 813 -410V-401Q813 -358 835 -318H840Q854 -318 856 -332Q857 -315 869 -307Q880 -299 894 -291Q896 -269 898 -247Q898 -228 888 -219H884Q877 -219 856 -212Q837 -218 817 -224Q808 -225 798 -225Q788 -225 784 -234Q786 -235 791 -235Q802 -233 812 -232Q814 -232 820 -234Q813 -260 748 -260Q736 -260 718 -258Q691 -260 664 -262Q617 -262 607 -243Q619 -240 634 -240Q665 -241 695 -243Q720 -243 733 -236Q732 -229 726 -229Q719 -231 712 -233Q703 -233 694 -234Q646 -234 603 -224Q621 -218 626 -201Q631 -189 644 -185H649Q681 -189 715 -201Q726 -205 736 -209H739Q748 -207 757 -206Q762 -206 766 -209V-207Q765 -204 764 -201L766 -198Q770 -196 771 -196Q778 -198 785 -201L789 -200Q791 -198 791 -196Q788 -192 784 -188Q799 -191 813 -194Q818 -194 822 -191Q820 -186 809 -181Q796 -174 796 -167Q799 -160 802 -153Q807 -154 812 -155H814Q807 -148 807 -129Q807 -117 811 -110Q809 -93 795 -83Q787 -78 766 -69Q761 -75 741 -76Q724 -77 718 -81Q721 -86 735 -87Q750 -88 752 -95Q746 -105 703 -107H697Q651 -107 647 -89Q652 -84 662 -84Q673 -85 684 -86Q694 -86 698 -81Q691 -75 677 -75Q664 -76 650 -77Q639 -77 631 -72Q622 -66 622 -47Q623 -33 623 -19Q623 -13 622 -8H621Q611 -8 611 -25V-34Q611 -44 609 -47Q597 -42 596 -29Q595 -17 595 -3Q593 19 593 33Q593 77 600 95Q604 94 607 92Z"/>
</svg>