<svg xmlns="http://www.w3.org/2000/svg" viewBox="0 -800 1024 1024">
	<path fill="#000000" d="M555 -267V-263Q555 -252 541 -249L540 -253Q542 -264 555 -267ZM913 -560V-559Q913 -550 900 -550H897V-552Q900 -564 908 -565Q913 -565 913 -560ZM273 -26L253 -19Q251 -23 251 -25Q253 -36 264 -36Q273 -36 273 -26ZM404 -190Q406 -196 407 -202Q408 -209 414 -211Q405 -216 398 -224Q390 -231 378 -232Q371 -232 367 -230Q363 -220 363 -207Q363 -193 362 -183Q378 -188 396 -191Q400 -190 404 -190ZM291 -301Q293 -309 293 -326Q293 -351 288 -376Q279 -368 269 -362Q259 -356 256 -344Q257 -336 261 -330Q260 -325 259 -321Q259 -320 268 -296Q281 -300 291 -301ZM364 -333H366Q372 -335 377 -337Q403 -433 408 -472H405Q386 -464 382 -462Q371 -455 368 -444V-441Q369 -434 370 -427Q368 -419 365 -412Q362 -391 362 -368Q362 -353 364 -333ZM962 -75V-73Q937 -64 930 -54Q902 -69 849 -74Q843 -75 746 -80Q755 -87 787 -87Q804 -86 820 -86Q848 -82 876 -79Q887 -79 894 -83Q885 -104 841 -108Q819 -111 791 -111Q743 -111 685 -103Q661 -99 656 -86Q657 -78 672 -77Q684 -76 687 -73Q678 -65 666 -65Q658 -65 653 -64Q639 -61 617 -43Q601 -30 592 -28Q589 -27 585 -27Q564 -29 555 -52Q546 -75 537 -92Q535 -70 531 -53Q526 -35 509 -31H507Q491 -31 481 -37Q470 -42 457 -62Q443 -84 438 -88Q381 -73 340 -55Q329 -48 316 -46Q313 -46 309 -48Q318 -63 354 -72Q388 -81 401 -94Q396 -95 387 -95Q343 -90 299 -70Q243 -51 240 -50Q209 -36 198 -14Q201 -11 207 -11Q218 -14 229 -17Q235 -17 238 -14Q213 -4 193 16Q185 25 160 56H152Q125 55 112 40Q99 24 86 9Q71 9 62 -3Q54 -14 54 -30Q54 -60 72 -73Q75 -109 99 -124Q122 -139 148 -154Q144 -148 137 -141Q131 -134 130 -127Q130 -122 133 -118Q168 -120 226 -140Q276 -157 300 -161Q299 -164 299 -173V-184Q299 -194 297 -198Q276 -187 262 -172Q248 -156 218 -155H214Q204 -163 196 -174Q189 -186 173 -189Q175 -195 176 -201Q175 -208 160 -238Q152 -249 149 -262Q149 -268 155 -271Q164 -259 171 -242Q177 -225 192 -223Q193 -226 193 -231Q193 -249 181 -268Q172 -288 161 -306Q150 -325 130 -333Q124 -329 120 -325Q120 -318 127 -312Q134 -306 134 -300V-296H133Q122 -297 117 -304Q112 -312 106 -318Q95 -326 75 -331Q70 -352 58 -365Q59 -370 59 -381Q58 -398 57 -416Q57 -433 65 -444Q62 -451 52 -468Q40 -488 37 -502Q45 -498 53 -485Q62 -471 69 -468Q67 -476 54 -498Q37 -527 34 -547Q40 -541 51 -523Q64 -502 75 -494Q70 -511 65 -523L67 -524Q71 -524 77 -515Q86 -502 92 -502H93Q101 -504 103 -516Q115 -514 120 -514Q134 -514 148 -515Q162 -515 170 -513Q193 -495 225 -462Q237 -467 256 -484Q271 -497 279 -502Q278 -552 276 -567Q272 -607 258 -625Q258 -649 272 -672Q285 -693 302 -705Q314 -713 331 -713Q336 -713 339 -712Q349 -706 361 -688Q373 -676 386 -661Q398 -646 399 -623Q399 -618 398 -614Q395 -601 392 -589V-585Q410 -590 427 -606Q443 -623 459 -639Q475 -653 494 -653Q513 -653 530 -640Q543 -645 556 -651Q556 -643 553 -639Q560 -642 573 -657Q590 -677 604 -678Q597 -667 584 -655Q571 -644 568 -626L570 -625Q571 -625 575 -629Q579 -634 583 -634Q580 -628 580 -620Q580 -606 589 -592Q592 -592 593 -596Q594 -601 597 -601Q611 -570 620 -534Q607 -509 594 -485H591Q578 -484 572 -471Q566 -458 558 -450Q556 -453 556 -458Q559 -470 561 -482Q561 -490 550 -493Q532 -486 527 -460H526Q523 -462 519 -465H518Q500 -448 491 -414Q482 -381 475 -352Q465 -316 465 -296Q465 -281 469 -270Q485 -294 493 -326Q501 -357 509 -388Q512 -387 516 -387Q524 -387 530 -402Q536 -417 544 -418Q526 -375 515 -324Q503 -274 491 -224Q490 -223 485 -219Q479 -215 476 -209Q478 -205 483 -204Q487 -203 490 -201Q499 -205 510 -220Q524 -238 537 -241Q529 -229 519 -220Q509 -212 508 -194V-190H509Q510 -190 515 -194Q521 -199 526 -199H527Q519 -191 519 -176Q519 -166 520 -161H521Q525 -163 528 -166L529 -163Q523 -156 523 -145Q525 -127 532 -108Q532 -145 551 -171Q567 -193 595 -204Q594 -196 592 -189Q600 -181 615 -181Q644 -185 673 -190Q676 -208 676 -226Q676 -248 675 -270V-281Q666 -280 651 -273Q633 -265 623 -265Q621 -265 613 -267Q595 -274 580 -304Q565 -305 556 -319Q548 -331 548 -349Q548 -372 561 -382Q559 -392 559 -395Q561 -422 582 -436Q603 -451 620 -466Q623 -455 626 -453Q639 -452 652 -452Q660 -452 665 -453Q665 -446 654 -443Q641 -440 641 -430Q651 -425 661 -425Q680 -425 734 -448Q756 -455 775 -462Q794 -468 804 -482Q799 -484 790 -484Q777 -484 748 -473Q722 -463 706 -462Q711 -471 720 -473Q729 -476 743 -479Q764 -491 788 -500Q812 -509 827 -528Q830 -527 830 -522V-519Q830 -515 833 -514Q846 -514 862 -526Q878 -537 891 -538Q860 -516 860 -501Q860 -492 869 -487Q873 -488 881 -494Q889 -500 897 -500V-499Q896 -497 892 -491Q887 -485 886 -477Q886 -471 889 -468Q898 -471 903 -474H904Q902 -469 898 -465Q901 -444 901 -423Q901 -370 878 -346Q864 -348 858 -348Q815 -344 780 -330Q780 -328 786 -298Q780 -282 773 -267Q770 -252 767 -236Q765 -221 755 -212V-217Q759 -241 762 -266Q762 -272 761 -275Q747 -272 742 -250Q742 -249 737 -208Q749 -202 764 -202Q776 -202 787 -203Q797 -203 802 -201Q835 -211 870 -213Q906 -216 919 -243Q919 -228 928 -215Q939 -219 952 -221Q944 -216 944 -198Q947 -195 950 -195Q955 -197 959 -199V-192Q959 -183 968 -161Q961 -155 961 -145Q965 -124 968 -103V-101Q965 -88 962 -75Z"/>
</svg>