<svg xmlns="http://www.w3.org/2000/svg" viewBox="0 -800 1024 1024">
	<path fill="#000000" d="M580 -59Q571 -60 565 -61Q558 -63 558 -69Q558 -73 559 -75Q573 -74 580 -59ZM242 -40Q241 -34 232 -34Q223 -34 221 -42Q223 -47 231 -47Q240 -47 242 -40ZM643 -375Q635 -369 620 -362Q595 -350 586 -341Q590 -336 597 -336Q605 -337 611 -335Q619 -345 629 -354Q640 -364 643 -375ZM291 -275V-272Q319 -280 346 -291Q349 -303 349 -308Q349 -312 347 -316Q333 -307 314 -301Q293 -295 291 -275ZM353 -399V-406Q354 -434 355 -462V-474Q347 -470 344 -461Q342 -453 337 -445Q321 -427 303 -411Q285 -394 284 -368V-366Q329 -385 349 -404Q350 -401 353 -399ZM732 -333H727Q692 -333 649 -300Q652 -291 665 -282Q666 -278 666 -275Q666 -264 656 -253Q648 -244 646 -238Q634 -236 628 -236Q609 -236 596 -243Q583 -238 574 -216Q604 -223 629 -230Q654 -237 682 -240Q684 -253 692 -274Q701 -299 703 -313Q705 -304 707 -293Q708 -283 716 -279Q721 -285 722 -295Q735 -273 748 -252Q753 -254 758 -257Q760 -257 762 -255Q757 -250 757 -245Q760 -227 771 -223Q773 -260 788 -324Q803 -390 806 -423Q754 -416 722 -399Q724 -398 724 -392Q724 -387 725 -385Q729 -383 736 -382Q748 -381 750 -378Q745 -375 739 -372Q740 -363 740 -355Q740 -340 732 -333ZM402 45V42Q381 41 368 31Q356 21 346 8Q331 -17 298 -24Q299 -29 303 -29Q309 -28 314 -28H316Q308 -39 277 -39H257Q263 -46 291 -48Q313 -49 321 -54Q335 -86 337 -128Q340 -171 343 -212Q330 -210 319 -204Q305 -196 301 -186V-176Q302 -147 303 -119Q303 -92 295 -78Q280 -68 275 -57Q268 -60 251 -65Q231 -70 223 -77Q218 -81 205 -101Q194 -117 182 -120V-122Q183 -125 184 -128L183 -131Q183 -134 178 -135Q173 -136 170 -138V-139Q170 -144 176 -144H180Q187 -159 187 -180Q182 -232 176 -270Q189 -267 194 -241Q199 -218 208 -213Q212 -229 212 -250Q212 -267 209 -282Q204 -304 187 -315Q170 -327 153 -338Q142 -346 133 -365Q126 -379 122 -384H115Q110 -384 105 -379V-373Q106 -341 124 -326Q142 -311 159 -295Q154 -293 149 -291Q121 -306 111 -316Q93 -333 88 -358Q73 -379 56 -399Q40 -419 28 -444Q41 -489 108 -513Q108 -524 112 -546Q118 -544 120 -532Q123 -519 128 -517Q131 -521 131 -532Q130 -548 129 -564Q129 -580 134 -586Q138 -568 140 -548Q143 -527 155 -517V-519Q152 -532 149 -545Q149 -551 152 -554Q157 -549 163 -536Q170 -519 180 -516Q193 -514 205 -514Q217 -514 223 -501L225 -502L224 -506L225 -508H226L229 -509Q231 -509 233 -506Q236 -502 239 -502Q257 -516 278 -539L280 -540L282 -539H284Q291 -552 320 -574Q346 -594 355 -606Q360 -613 367 -631Q375 -652 381 -658Q397 -676 430 -676Q443 -676 450 -672Q454 -673 458 -680Q461 -685 465 -687L467 -684Q465 -676 463 -669V-666L465 -665Q468 -667 471 -670L474 -669Q473 -665 473 -657Q473 -629 498 -600H501Q506 -600 510 -602Q506 -595 501 -589Q502 -583 502 -571Q502 -548 489 -531Q475 -526 461 -522Q438 -484 430 -403Q429 -391 423 -261V-253Q423 -236 426 -220Q423 -215 423 -205Q423 -196 418 -191Q409 -200 409 -229Q410 -249 410 -269Q410 -288 406 -300Q397 -290 395 -268Q394 -260 393 -228Q391 -179 389 -130Q389 -56 412 -33Q417 -38 417 -48Q414 -69 411 -91Q409 -107 409 -117Q409 -140 420 -150Q425 -66 441 7Q436 18 436 32Q434 32 431 31Q424 33 417 35Q415 36 413 44Q411 53 406 55Q402 51 402 45ZM703 97V90Q703 65 680 51Q683 39 685 26V21Q676 12 645 2Q617 -7 606 -16Q646 -9 685 -3Q678 -11 654 -18Q631 -25 624 -34Q659 -30 688 -21Q676 -31 638 -40Q597 -50 584 -59Q588 -61 595 -61Q613 -58 627 -49Q636 -46 659 -45Q682 -44 694 -40Q698 -47 704 -49Q711 -52 716 -55Q730 -66 734 -82Q739 -98 745 -115H741Q734 -115 724 -124Q714 -133 706 -134Q699 -153 692 -172Q688 -173 680 -173Q657 -172 635 -164Q612 -155 589 -146Q568 -140 550 -128Q541 -122 538 -119Q531 -113 531 -108Q531 -102 538 -96Q564 -106 587 -120Q610 -134 641 -135H648Q641 -128 619 -121Q591 -112 584 -99Q565 -96 559 -80Q540 -75 526 -57V-40Q524 -37 514 -34Q503 -31 501 -25Q481 -37 470 -47Q455 -61 447 -81Q432 -122 432 -178Q431 -188 430 -198V-201Q440 -254 474 -276Q471 -263 470 -260Q489 -257 507 -237Q507 -219 522 -204L526 -203Q531 -204 535 -206H537V-207Q537 -209 532 -212Q523 -218 522 -222V-226Q522 -250 506 -286H508Q512 -286 519 -277Q526 -267 532 -266Q546 -267 559 -278Q549 -293 541 -310Q514 -317 500 -346Q487 -372 487 -409Q487 -430 491 -447Q497 -450 505 -459Q512 -467 516 -470Q517 -475 531 -511Q534 -521 537 -531Q541 -541 551 -543Q549 -528 547 -513Q547 -506 550 -502Q570 -518 579 -551Q587 -585 596 -617Q606 -638 612 -658Q612 -669 605 -678Q598 -687 589 -687H586Q578 -685 576 -671Q575 -666 574 -645Q570 -596 556 -576Q554 -584 554 -588Q559 -617 564 -649Q564 -653 562 -663Q543 -661 532 -648Q522 -635 510 -628Q513 -636 524 -653Q540 -677 540 -691Q540 -697 537 -705Q550 -709 556 -720Q561 -731 568 -741Q575 -750 593 -764Q614 -780 621 -792H629Q671 -792 700 -768Q707 -747 713 -724Q719 -702 733 -687Q734 -683 734 -679Q733 -664 725 -655Q717 -646 707 -636Q698 -620 692 -594Q678 -566 664 -539Q657 -525 650 -509Q642 -493 641 -480Q641 -476 642 -474Q648 -468 657 -468Q667 -468 689 -477Q708 -485 713 -486Q738 -492 746 -496Q762 -503 763 -516Q759 -517 752 -517Q739 -517 717 -508Q695 -499 684 -499H679V-501Q679 -512 706 -520Q763 -535 783 -539Q798 -555 802 -559Q815 -571 827 -573H829Q839 -571 849 -570Q852 -570 854 -571Q857 -574 859 -577Q861 -580 867 -580L869 -578Q866 -572 863 -567L864 -565Q866 -564 869 -564Q875 -564 886 -573Q896 -582 901 -583Q901 -577 895 -571Q889 -564 889 -558V-556Q895 -561 906 -573Q925 -595 936 -600Q930 -589 921 -577Q912 -564 911 -551Q911 -544 914 -537L918 -536Q922 -538 925 -540L926 -539Q928 -537 928 -535Q928 -533 925 -530Q933 -517 948 -514Q947 -510 947 -502Q951 -478 954 -454Q954 -446 951 -436Q944 -434 934 -423Q922 -409 908 -408V-410Q909 -421 914 -427Q919 -432 922 -439Q917 -443 909 -443Q896 -443 884 -428Q873 -414 873 -399Q873 -386 883 -379Q886 -380 890 -385Q895 -391 899 -391Q902 -391 904 -390Q889 -347 879 -301Q877 -300 874 -300L870 -301Q875 -316 878 -343Q878 -355 873 -361Q855 -344 846 -307Q845 -301 834 -235Q829 -198 822 -166Q812 -116 812 -107Q812 -87 821 -77Q832 -92 835 -114Q838 -135 840 -157Q847 -198 857 -240Q859 -256 868 -261V-256Q868 -241 862 -213Q854 -175 854 -157V-153Q857 -148 860 -143Q838 -80 824 63Q805 72 790 86Q776 100 762 115Q745 114 736 105Q727 96 716 89L714 88Q712 88 709 92Q705 97 703 97Z"/>
</svg>