<svg xmlns="http://www.w3.org/2000/svg" viewBox="0 -800 1024 1024">
	<path fill="#000000" d="M290 -283Q290 -320 288 -335Q262 -313 259 -268Q259 -237 278 -222Q279 -224 288 -230Q290 -246 290 -283ZM368 -412Q336 -403 336 -329Q338 -291 339 -254Q360 -260 362 -285Q365 -348 368 -412ZM754 -562Q754 -566 753 -568Q720 -551 686 -536Q651 -522 627 -496Q635 -456 640 -446Q650 -458 686 -466Q726 -475 733 -488Q738 -497 741 -512Q743 -525 748 -535V-537Q746 -540 744 -543Q751 -550 754 -562ZM738 -46Q736 -45 732 -45Q723 -45 715 -51V-58H720Q730 -58 738 -46ZM816 -240Q817 -253 816 -262Q816 -269 812 -277H809Q796 -274 783 -271Q774 -271 769 -275Q771 -281 787 -284Q804 -287 806 -295Q799 -299 785 -299Q770 -295 755 -292Q742 -288 728 -285Q725 -277 722 -273Q722 -253 745 -239Q759 -229 773 -220Q777 -222 782 -227Q789 -234 794 -235V-233Q790 -220 786 -213V-210Q794 -212 804 -226Q812 -237 816 -240ZM816 -227Q802 -211 802 -202Q802 -199 804 -193H806Q808 -193 814 -199Q815 -213 816 -227ZM795 -79Q775 -82 765 -91Q751 -103 751 -117Q757 -116 762 -109Q767 -103 773 -97Q779 -93 782 -93Q786 -93 790 -96Q784 -112 760 -141Q752 -151 743 -161Q733 -171 720 -174Q715 -173 715 -169Q716 -162 726 -153Q736 -144 736 -138L735 -134L733 -133Q731 -133 726 -141Q711 -157 695 -173Q682 -159 673 -117Q660 -54 659 -51L655 -52Q651 -52 647 -47Q643 -42 639 -41H637Q628 -41 615 -52Q603 -62 596 -63V-67Q596 -76 589 -88Q583 -98 583 -103Q583 -107 584 -110Q580 -115 572 -117Q572 -82 575 -43V-39Q576 -20 576 -1Q576 8 581 18Q577 30 575 44V46H572Q565 47 561 54Q559 58 557 68Q554 68 553 63Q552 58 550 56Q505 55 489 3Q479 9 491 -72Q493 -100 491 -114Q488 -145 477 -168Q470 -183 450 -207L446 -246Q454 -247 458 -258Q505 -289 544 -296Q592 -315 648 -333Q650 -347 650 -368Q616 -357 591 -354H580Q576 -356 569 -362Q561 -370 555 -370H554Q550 -387 536 -393Q535 -418 528 -427Q521 -435 501 -439Q501 -437 499 -435Q447 -367 417 -172Q411 -173 405 -178Q400 -183 397 -184L395 -185Q393 -182 388 -179H387Q383 -186 372 -186Q352 -186 338 -182Q335 -176 335 -163Q336 -148 336 -133Q344 -136 345 -146Q346 -156 348 -165Q354 -174 369 -174Q381 -174 392 -170Q405 -165 408 -158Q414 -160 419 -162Q419 -157 418 -153Q418 -147 422 -146H423Q427 -146 437 -153Q446 -159 453 -161Q446 -147 439 -134Q440 -126 447 -121Q455 -123 463 -125Q467 -125 469 -124Q468 -118 459 -114Q453 -111 452 -109Q452 -93 465 -93H469L470 -92Q467 -88 464 -84Q464 -71 452 -49Q441 -28 441 -17V-12Q435 -18 430 -25Q425 -32 414 -33Q411 -32 408 -32Q401 -37 396 -44H393Q388 -44 380 -38L379 -41Q380 -46 381 -51V-52Q379 -57 372 -57Q354 -54 336 -43Q286 -21 256 2Q263 -19 293 -34Q329 -52 338 -64Q257 -33 207 4Q173 30 173 46V48Q175 49 180 49Q194 48 205 34Q218 14 240 10H245V11Q239 23 222 37V38Q221 42 219 46Q210 53 198 73Q183 98 169 105Q158 101 146 97Q142 86 122 64Q103 42 98 31Q97 29 97 24Q102 8 107 -9Q108 -13 108 -19Q108 -32 113 -37Q117 -38 121 -39L125 -38Q140 -70 144 -77Q156 -97 173 -104Q159 -84 153 -53Q189 -74 276 -107V-111Q276 -117 275 -119Q263 -116 252 -116Q242 -116 227 -121Q220 -129 215 -140Q209 -150 196 -152Q197 -155 197 -159Q197 -174 178 -198Q165 -214 163 -225H165Q174 -224 180 -216Q185 -207 191 -200Q208 -179 218 -172Q219 -175 219 -180Q217 -201 198 -221Q178 -242 163 -257Q155 -268 147 -279Q138 -290 124 -291Q118 -291 110 -288Q100 -284 96 -275Q95 -273 95 -269Q96 -259 105 -255Q110 -253 127 -251Q157 -251 156 -234V-230Q146 -236 128 -236H118Q96 -236 86 -244Q79 -249 75 -265Q72 -279 68 -285Q61 -295 54 -301Q47 -307 47 -320V-325Q47 -384 75 -397Q69 -415 62 -434Q65 -434 71 -424Q79 -410 89 -410Q85 -423 78 -438Q71 -453 69 -472L87 -443Q90 -436 94 -429Q98 -423 105 -422H107Q100 -437 93 -452Q101 -452 112 -438Q120 -427 125 -425Q149 -425 164 -414Q168 -411 178 -399Q190 -385 195 -385H196Q199 -385 202 -389Q207 -395 210 -395H213Q217 -399 221 -403Q225 -407 233 -407H236Q234 -400 224 -390Q210 -377 210 -367V-365Q223 -366 241 -386Q258 -403 276 -436Q271 -436 263 -428Q253 -418 245 -416Q248 -430 259 -440Q270 -449 283 -458Q281 -526 279 -595L275 -596Q266 -593 262 -586L261 -589Q264 -597 267 -605H266Q255 -605 248 -591Q242 -579 237 -577Q242 -622 273 -653Q295 -675 315 -675Q322 -675 330 -670Q353 -653 376 -598Q369 -584 360 -574Q361 -572 361 -568Q357 -546 353 -524Q353 -522 355 -514Q372 -559 420 -566Q428 -566 438 -563H439Q442 -563 444 -566Q446 -569 450 -569H452V-554Q452 -551 455 -551Q458 -551 460 -552L462 -551Q464 -533 472 -517Q474 -543 481 -560Q491 -588 521 -620L525 -624Q528 -628 532 -634Q536 -640 543 -643V-640Q543 -637 549 -631L550 -630Q553 -630 554 -633Q556 -637 558 -637H560Q565 -628 570 -620Q575 -613 584 -612Q588 -612 595 -617Q603 -623 608 -623Q609 -623 615 -621V-620Q615 -619 609 -612Q599 -601 599 -596Q599 -592 606 -589L610 -588Q629 -593 644 -607Q695 -640 698 -642Q730 -665 739 -681H736Q717 -681 690 -663Q667 -648 653 -645Q677 -671 708 -689Q739 -708 770 -726Q779 -737 789 -747Q799 -757 805 -771Q811 -771 816 -772Q841 -772 877 -756Q889 -763 900 -773Q911 -782 923 -784Q922 -779 917 -774Q910 -768 910 -761Q899 -758 899 -746Q900 -732 913 -729Q918 -731 925 -744Q931 -754 939 -754Q935 -733 931 -713Q931 -706 933 -703L934 -702Q935 -702 937 -705Q939 -709 942 -709H943Q938 -694 938 -681Q938 -668 945 -658Q940 -633 925 -618Q911 -603 899 -586L901 -585L905 -586L907 -583V-582Q890 -567 881 -548Q873 -529 861 -509Q859 -515 859 -519Q859 -527 865 -537Q871 -547 871 -553Q871 -559 867 -564Q850 -561 844 -551Q842 -547 834 -520Q832 -512 827 -505Q822 -497 822 -486Q822 -473 825 -466Q834 -468 841 -483Q847 -497 854 -499Q855 -496 855 -491Q855 -483 848 -465Q841 -447 840 -433Q840 -416 837 -408Q833 -401 818 -398H813Q804 -398 795 -399Q786 -399 782 -394Q765 -396 757 -412L754 -413Q752 -401 751 -397Q750 -393 746 -371Q781 -384 814 -394Q838 -401 855 -403Q861 -403 866 -403Q869 -404 871 -410Q874 -416 879 -416L880 -417Q882 -417 883 -414Q883 -409 882 -405L883 -402Q892 -409 901 -425Q912 -444 921 -450Q915 -436 908 -425Q901 -413 901 -395Q905 -398 907 -407Q910 -417 919 -419Q917 -405 914 -391Q916 -383 919 -380H920Q922 -381 922 -384Q922 -387 925 -388H926Q926 -384 926 -380Q927 -364 945 -344Q959 -328 961 -319L962 -315Q961 -297 959 -279Q924 -254 917 -177L918 -163Q920 -148 911 -143Q909 -155 908 -162Q906 -190 918 -243Q914 -243 909 -244Q894 -242 887 -174Q882 -122 883 -88Q885 -54 899 -48Q906 -53 904 -77Q903 -100 908 -107Q912 -107 913 -97Q914 -89 916 -87Q912 -74 914 -51Q916 -29 923 -14Q914 -4 911 23Q908 48 903 57Q891 73 879 88Q875 88 869 90Q853 91 842 85Q831 79 822 69Q806 48 778 39H775Q778 36 780 32Q766 12 743 4Q719 -4 696 -14Q700 -14 703 -15Q714 -17 733 -11Q755 -5 768 -6H770Q753 -16 734 -20Q714 -25 694 -31Q675 -34 673 -42Q689 -42 716 -36Q749 -28 769 -29V-30Q769 -34 757 -37Q745 -40 743 -45Q767 -45 776 -46H783Q788 -53 795 -79ZM641 -220Q634 -216 622 -210Q616 -181 606 -171V-175Q606 -180 613 -206Q591 -197 581 -186Q575 -179 572 -164Q572 -148 572 -132Q587 -138 597 -155L599 -154H601Q604 -154 604 -151Q601 -146 601 -136Q601 -125 607 -125Q611 -125 620 -148Q629 -187 641 -220ZM625 -246Q596 -233 597 -216Q601 -214 605 -215Q609 -215 617 -219Q620 -231 625 -246Z"/>
</svg>