<svg xmlns="http://www.w3.org/2000/svg" viewBox="0 -800 1024 1024">
	<path fill="#000000" d="M685 -530V-531Q686 -533 686 -536V-538H685Q683 -538 680 -539H679L678 -537Q678 -532 685 -530ZM60 -661V-648Q60 -640 57 -638Q49 -639 49 -653Q49 -659 50 -662H52Q55 -661 58 -661ZM926 68V70Q920 67 914 64Q907 61 905 52Q907 51 910 51Q921 54 928 59V61Q927 65 926 68ZM845 -64V-61Q845 -54 836 -50Q830 -47 828 -44Q824 -47 824 -52Q826 -65 838 -67Q842 -67 845 -64ZM464 -589H470Q482 -589 483 -596Q478 -596 477 -598Q479 -599 481 -600Q483 -601 483 -604Q477 -607 471 -607Q460 -606 449 -605H446Q455 -609 464 -614V-626Q457 -631 448 -631Q443 -631 440 -630Q442 -608 444 -587Q444 -573 437 -567Q449 -579 464 -589ZM621 -196V-202Q622 -217 623 -233Q623 -238 622 -240Q591 -235 554 -222Q530 -214 512 -206Q494 -198 488 -183L489 -182Q491 -185 496 -188H510Q566 -192 621 -196ZM295 -529H292Q278 -529 263 -518Q216 -479 216 -430Q216 -409 226 -389Q243 -403 273 -409Q290 -494 295 -529ZM866 102H862Q843 102 822 116Q791 100 757 87V85Q754 78 751 67V65Q765 71 775 79Q758 -1 698 -50Q702 -36 718 -11Q740 23 740 47V51Q725 31 700 -10Q678 -47 667 -62Q638 -35 622 7Q607 49 591 90Q576 83 555 80Q534 76 529 58Q508 51 480 37Q482 36 485 36Q497 38 509 40Q512 40 514 39Q503 26 482 21Q461 17 442 12Q448 9 455 9Q461 9 475 14Q489 19 500 19H506Q490 3 435 -8Q395 -16 380 -23Q385 -24 394 -24Q420 -24 463 -10Q503 3 522 3Q532 3 537 2Q553 -28 571 -54Q533 -49 517 -29H514Q509 -27 503 -26Q497 -36 485 -38Q482 -51 466 -56Q464 -66 458 -77Q448 -96 448 -107Q453 -132 461 -158L457 -159Q451 -157 445 -156Q449 -170 466 -179Q447 -192 426 -205Q406 -218 404 -249V-252Q399 -260 393 -268Q395 -274 395 -277Q395 -285 385 -298Q379 -306 377 -312Q393 -304 408 -297Q408 -303 415 -308Q433 -308 440 -303Q453 -307 490 -315Q535 -325 557 -334Q554 -337 546 -337Q531 -337 528 -331Q510 -334 492 -338Q489 -349 481 -362Q474 -373 472 -380Q469 -392 469 -406Q469 -425 477 -435Q485 -444 498 -444Q511 -444 528 -447Q541 -450 569 -474Q596 -497 612 -500Q603 -483 589 -473Q575 -463 563 -452Q582 -458 607 -478Q609 -479 646 -512Q644 -515 642 -518H641Q636 -518 629 -513Q623 -509 620 -509H618Q625 -525 640 -541Q637 -551 633 -561Q642 -551 675 -541Q668 -566 661 -592H673L674 -593Q673 -595 673 -597V-599Q696 -605 717 -605Q748 -605 772 -593Q781 -576 796 -566Q804 -569 811 -575Q810 -578 805 -578Q802 -578 796 -576Q805 -582 805 -593Q805 -606 781 -636Q792 -632 802 -629Q823 -639 828 -641L829 -645Q827 -650 825 -655Q755 -648 704 -626Q652 -604 597 -587Q607 -578 607 -569Q606 -559 595 -549Q583 -540 571 -532Q522 -500 504 -450Q491 -449 476 -448Q460 -447 449 -441Q451 -445 452 -449H449Q437 -448 431 -441Q425 -433 419 -431V-432Q419 -438 425 -443Q429 -447 430 -450H428Q414 -449 407 -440Q401 -430 395 -419Q398 -458 427 -498Q438 -514 445 -514L448 -513V-512Q443 -497 438 -483Q438 -477 443 -475Q465 -510 472 -538H469Q462 -538 456 -530Q451 -524 448 -523Q447 -525 447 -528Q450 -541 453 -555Q453 -561 451 -564Q444 -564 430 -558L424 -541Q409 -538 400 -513Q393 -493 386 -489V-495Q388 -511 392 -526Q388 -529 384 -533Q364 -523 351 -490Q340 -463 337 -426V-417Q337 -397 344 -389Q353 -397 358 -425Q364 -460 378 -466Q366 -364 345 -297Q336 -298 326 -299H322Q322 -285 321 -271Q321 -256 325 -245Q341 -248 371 -260Q372 -255 375 -255Q380 -255 383 -256Q382 -253 382 -247Q382 -228 396 -221Q394 -215 394 -204Q395 -190 395 -177L383 -164Q361 -162 340 -155Q319 -149 318 -129Q318 -123 319 -119Q363 -141 387 -143Q385 -137 382 -131L383 -128L386 -127Q392 -130 398 -133H399V-132Q395 -126 390 -111Q390 -103 404 -102Q393 -89 393 -51Q376 -47 336 -28Q284 -4 252 2Q261 -13 296 -26Q328 -38 337 -50Q284 -48 239 -29Q192 -9 165 25Q169 30 174 30Q186 27 198 24Q205 24 209 31Q187 39 167 50Q147 60 144 87Q134 93 125 93Q106 93 80 65Q67 52 67 33Q67 20 76 9Q74 -3 74 -7Q75 -28 87 -43Q99 -59 109 -74Q108 -63 106 -52Q106 -43 112 -41H113Q117 -41 138 -47Q152 -51 165 -56Q155 -101 142 -119Q132 -127 125 -137Q122 -146 122 -158V-178Q122 -201 110 -208Q114 -210 121 -210Q127 -210 131 -208L132 -209Q130 -212 128 -216V-218L148 -233H174Q191 -233 198 -231Q233 -196 233 -113Q233 -94 232 -84Q241 -90 255 -92Q251 -148 247 -205Q247 -220 248 -227Q247 -234 239 -254Q230 -277 230 -291Q221 -278 214 -263H209Q199 -263 187 -257Q156 -274 148 -294H146Q143 -293 140 -293H138Q140 -301 140 -305Q140 -319 126 -344Q113 -366 113 -378Q129 -373 138 -354Q151 -324 157 -325Q163 -325 163 -333Q158 -359 150 -375Q134 -414 128 -423Q113 -446 88 -449Q86 -447 83 -446V-443Q83 -432 93 -419Q102 -407 102 -400Q102 -397 101 -394Q86 -408 66 -423Q46 -438 42 -463Q42 -469 41 -476Q44 -509 47 -542Q66 -570 66 -586Q62 -603 57 -620Q57 -623 59 -629Q70 -606 83 -587Q89 -589 94 -592Q93 -608 85 -631Q76 -655 76 -671V-674Q84 -658 91 -641Q98 -624 109 -610Q118 -614 118 -622Q118 -628 113 -640Q107 -655 107 -662V-664Q115 -646 148 -623Q171 -607 180 -595Q272 -650 351 -718Q355 -716 362 -716Q370 -716 375 -721Q385 -711 392 -710Q401 -730 421 -742Q412 -731 412 -709Q412 -699 414 -695Q420 -704 428 -711V-708Q425 -692 422 -677V-674Q422 -669 430 -660Q437 -652 437 -645Q526 -691 616 -724Q609 -710 595 -704Q581 -698 568 -693Q527 -673 519 -662Q575 -678 680 -733Q675 -741 666 -741Q647 -736 628 -731Q643 -744 661 -755Q661 -777 680 -786Q695 -793 724 -793Q747 -792 770 -792Q782 -792 787 -793Q794 -789 810 -776Q826 -762 839 -757Q836 -754 836 -748Q836 -740 840 -737H842Q848 -740 851 -744L852 -743Q849 -734 849 -717Q849 -697 855 -688Q852 -674 834 -658Q837 -654 840 -654Q843 -654 848 -660Q853 -666 858 -667Q858 -660 863 -653Q871 -653 887 -647Q896 -651 901 -656H902L901 -652Q903 -646 904 -641Q906 -640 909 -640Q916 -640 917 -644Q934 -620 953 -598Q951 -597 948 -597Q943 -597 936 -603Q927 -611 921 -611H917Q919 -601 930 -585Q944 -565 944 -551Q944 -545 943 -541Q947 -535 951 -535Q960 -540 960 -550Q956 -568 951 -586V-587Q964 -583 967 -570Q971 -557 976 -545Q976 -541 971 -534Q966 -527 966 -520V-518Q949 -517 935 -506Q923 -508 905 -516Q878 -528 865 -528Q860 -528 857 -527Q859 -531 861 -536Q852 -543 839 -543Q829 -543 824 -539L822 -541Q828 -546 833 -551Q832 -563 814 -563Q804 -563 799 -558V-545Q783 -529 774 -526Q748 -516 722 -516H719Q706 -522 695 -525Q690 -525 688 -523Q705 -506 705 -465V-454Q682 -441 648 -431Q639 -429 630 -428Q621 -427 616 -419Q623 -413 641 -413Q654 -413 666 -414Q685 -414 692 -407Q703 -414 720 -434Q738 -455 751 -463V-489L753 -490Q755 -490 757 -487Q760 -482 763 -481Q778 -476 791 -469Q818 -446 824 -413V-410Q821 -392 766 -372Q738 -362 731 -359Q714 -351 705 -338Q753 -341 772 -350Q777 -350 781 -346Q790 -350 805 -352Q821 -354 831 -359Q827 -368 827 -379Q827 -405 846 -415Q896 -408 910 -380L935 -389Q935 -386 932 -383Q928 -379 928 -376V-374Q930 -370 932 -369Q933 -369 939 -373Q947 -379 954 -379Q956 -379 962 -377Q957 -373 951 -369Q946 -365 943 -359Q948 -344 961 -344H966V-343Q964 -341 962 -339V-337Q966 -326 966 -315Q966 -299 957 -280Q954 -274 940 -251Q932 -257 922 -257Q913 -256 904 -256Q897 -256 893 -257Q884 -259 874 -270Q864 -281 852 -281H848Q790 -277 763 -272Q764 -284 775 -286Q788 -289 800 -291L846 -297Q834 -303 815 -303Q791 -303 763 -296Q747 -293 732 -289Q717 -286 708 -275Q716 -277 722 -277Q740 -277 744 -268Q737 -262 725 -261Q712 -260 702 -257Q710 -215 723 -205Q773 -212 822 -219Q833 -220 857 -226Q888 -234 904 -234Q917 -234 928 -230V-225Q925 -220 916 -219Q908 -218 905 -214Q903 -212 903 -207Q903 -206 908 -189Q911 -190 916 -190Q922 -190 932 -188Q931 -180 922 -180H916Q913 -175 913 -173Q915 -165 923 -159H917Q923 -135 928 -111H924Q920 -111 908 -104Q891 -109 876 -109Q847 -109 827 -98Q819 -101 811 -105Q796 -98 737 -96Q748 -75 767 -62Q787 -50 802 -35Q812 -37 821 -39V-37Q821 -33 820 -32Q820 -29 819 -27Q828 -17 839 -17Q847 -17 866 -25Q885 -33 897 -33Q904 -33 910 -30Q897 -26 871 -18Q846 -11 843 2V3Q843 14 859 14Q870 14 887 9Q882 15 870 18Q857 21 855 36Q855 53 881 53Q892 53 898 52Q887 58 872 62Q857 65 855 82V84Q855 88 860 92Q864 96 866 102Z"/>
</svg>