<svg xmlns="http://www.w3.org/2000/svg" viewBox="0 -800 1024 1024">
	<path fill="#000000" d="M880 -519V-522Q882 -540 897 -540Q900 -540 906 -538Q894 -524 880 -519ZM485 41V48Q473 52 468 52Q461 52 453 47Q460 40 473 40Q481 40 485 41ZM475 -111V-112Q478 -120 481 -128Q481 -131 479 -132Q457 -130 452 -128Q439 -124 438 -111Q444 -109 447 -109Q459 -110 470 -112Q473 -112 475 -111ZM516 -222H509Q460 -217 441 -183Q455 -189 473 -190Q490 -191 507 -193Q512 -207 516 -222ZM570 -46H566Q558 -46 544 -40Q532 -35 524 -35Q521 -35 513 -37H512Q507 -35 503 -31Q490 -59 469 -59Q465 -59 453 -55Q443 -50 430 -37Q418 -24 404 -22H402Q385 -30 370 -45Q345 -66 340 -69Q341 -72 341 -78Q338 -95 334 -113V-118Q330 -129 326 -140Q326 -145 331 -148Q339 -146 345 -128Q350 -113 358 -109Q359 -111 359 -114Q357 -122 355 -130Q352 -153 350 -174Q347 -195 331 -201Q329 -198 329 -189V-173Q329 -166 328 -163Q320 -165 319 -171Q317 -179 315 -186Q309 -198 300 -208Q292 -219 291 -233V-235Q294 -262 321 -267Q349 -273 382 -277Q387 -274 393 -271Q405 -273 430 -284Q463 -298 481 -298H488Q512 -308 539 -320Q566 -332 595 -333Q617 -333 638 -322H639Q645 -324 650 -327Q653 -327 654 -324Q662 -333 675 -335Q679 -334 682 -334Q676 -328 670 -321Q663 -315 663 -303V-301L665 -299Q669 -300 673 -302L676 -301Q670 -292 670 -284Q675 -265 679 -246V-243Q677 -226 656 -212Q629 -194 624 -186Q623 -189 623 -194Q623 -203 636 -215Q648 -226 648 -236Q648 -240 647 -243Q636 -242 628 -233Q625 -229 618 -216Q586 -215 573 -179Q570 -172 558 -109Q566 -113 570 -123Q574 -132 579 -143Q585 -167 611 -171V-169Q611 -164 603 -156Q570 -106 570 -54ZM674 125H667Q632 124 611 108Q589 92 568 75Q542 56 494 44Q504 42 512 42Q543 45 573 47Q549 38 492 33Q434 28 411 21Q418 20 432 20Q493 25 553 30Q562 30 570 29Q546 22 522 15Q529 11 550 8Q574 4 583 -3Q601 -19 611 -46Q621 -74 630 -97Q641 -121 672 -195Q692 -249 710 -299Q728 -350 750 -391Q748 -398 735 -398Q730 -397 724 -397Q690 -395 655 -386Q620 -378 584 -370Q519 -354 453 -339Q378 -323 332 -294Q276 -259 260 -202Q237 -185 216 -185Q205 -185 199 -187Q193 -189 184 -196Q172 -206 166 -206Q161 -206 158 -204Q159 -206 159 -209Q159 -221 149 -231Q140 -240 129 -240Q121 -240 115 -234Q127 -260 128 -277Q124 -279 117 -279Q105 -278 95 -270Q86 -263 76 -258Q105 -301 152 -331Q158 -344 172 -346H174Q172 -338 162 -328Q152 -318 150 -309Q163 -311 174 -318Q185 -326 195 -334Q211 -346 226 -359Q241 -373 251 -391Q245 -398 238 -398Q228 -398 205 -376Q186 -358 179 -357Q181 -372 208 -402Q224 -421 232 -428Q248 -441 264 -441Q268 -441 276 -439Q284 -441 287 -441Q303 -441 317 -425Q318 -424 337 -397Q341 -395 348 -395Q366 -398 383 -405Q325 -449 294 -491Q279 -494 265 -494Q211 -494 190 -463Q196 -461 207 -461Q219 -461 243 -469Q261 -475 271 -475Q283 -475 293 -469Q281 -462 253 -455Q221 -447 208 -438Q204 -435 197 -428Q187 -418 180 -415Q176 -414 170 -414Q141 -414 133 -450Q114 -465 93 -478Q89 -490 89 -502Q89 -521 103 -552Q113 -574 115 -585Q143 -603 168 -625Q176 -622 188 -613Q200 -604 207 -601L260 -613V-616Q260 -650 287 -664Q284 -674 284 -685V-691Q288 -686 291 -680Q294 -675 300 -672Q301 -674 301 -677Q298 -691 295 -705Q295 -710 296 -713Q301 -706 305 -697Q309 -689 318 -685Q321 -686 321 -688Q319 -694 317 -701L318 -704L321 -705Q329 -701 337 -692Q351 -698 362 -698Q394 -698 424 -661Q446 -664 490 -683Q483 -673 481 -661Q481 -657 485 -657Q489 -657 492 -658H493Q490 -628 487 -598V-593Q491 -574 494 -555V-553Q493 -546 488 -539Q482 -531 482 -528Q470 -526 457 -524Q445 -522 438 -514Q437 -509 437 -498Q437 -484 445 -439Q436 -428 436 -422V-418Q451 -425 499 -434Q545 -443 564 -450Q546 -461 521 -461Q504 -461 496 -454Q501 -466 516 -476Q530 -486 541 -496Q533 -532 506 -563Q509 -575 509 -588Q508 -611 506 -635Q512 -645 522 -652Q530 -660 538 -669Q544 -665 550 -661Q554 -660 562 -660Q589 -663 614 -669Q605 -700 580 -700H574Q581 -709 604 -723Q634 -741 641 -761Q660 -768 678 -776Q695 -784 714 -785Q726 -785 741 -779Q746 -770 769 -747Q772 -729 775 -711Q775 -707 774 -704Q808 -713 844 -726Q843 -722 841 -718V-717Q870 -726 898 -736Q886 -730 880 -725Q870 -717 870 -707Q870 -702 871 -700L875 -699Q883 -703 891 -707Q890 -703 885 -698Q880 -693 879 -688L883 -687Q891 -689 898 -691H901Q896 -684 896 -678Q899 -663 907 -648Q896 -612 896 -604Q896 -596 897 -592Q887 -590 872 -584Q847 -574 836 -574Q827 -574 823 -576Q827 -584 844 -590Q863 -597 867 -607Q857 -614 838 -614Q815 -614 769 -601Q729 -590 704 -573Q714 -571 718 -571Q741 -574 763 -577Q771 -577 779 -578Q798 -578 803 -573Q762 -562 720 -553Q678 -543 653 -517Q646 -504 637 -493Q627 -483 624 -465Q692 -478 725 -490Q757 -503 782 -506Q803 -506 820 -485Q827 -495 828 -496Q833 -501 841 -501L842 -499Q839 -492 835 -485Q842 -491 852 -500Q862 -510 877 -513Q876 -511 863 -498Q854 -489 854 -477V-474H855Q858 -474 861 -478Q866 -484 871 -484H873Q872 -481 872 -475Q875 -458 882 -445H883Q889 -448 895 -451Q892 -439 892 -420Q892 -391 904 -382Q901 -376 901 -368Q901 -362 903 -350Q888 -344 884 -341Q873 -334 873 -324V-322Q859 -321 850 -313Q842 -304 836 -294Q827 -275 811 -270Q810 -272 810 -275Q814 -290 826 -304Q837 -322 848 -334Q845 -340 841 -346Q792 -327 766 -256Q735 -173 735 -105V-90Q744 -96 753 -123Q762 -153 771 -186Q780 -218 797 -241V-238Q796 -211 787 -184Q777 -157 769 -132Q763 -108 756 -85Q755 -72 753 -59Q752 -46 741 -39Q736 -41 736 -53Q736 -64 734 -66Q716 -58 716 -18Q716 2 719 17Q727 14 731 -6Q735 -24 747 -24H749Q746 31 743 86Q723 87 704 100Q701 102 674 125Z"/>
</svg>