<svg xmlns="http://www.w3.org/2000/svg" viewBox="0 -800 1024 1024">
	<path fill="#000000" d="M54 -455V-453Q55 -448 56 -443Q48 -443 44 -455L46 -457Q50 -456 53 -455ZM433 -133V-145Q433 -154 430 -154Q425 -151 425 -144Q425 -134 433 -133ZM935 -503H943Q945 -499 945 -496Q945 -484 938 -481Q933 -481 933 -487Q934 -495 935 -503ZM962 -110V-108Q961 -100 953 -99Q945 -98 938 -96Q938 -103 943 -107Q948 -111 955 -111Q960 -111 962 -110ZM257 -263V-282Q258 -314 258 -346Q258 -360 257 -366Q226 -346 224 -299Q224 -269 244 -256Q246 -263 254 -263ZM325 -296Q334 -367 343 -438Q306 -431 306 -349Q306 -341 309 -284Q317 -288 325 -296ZM737 -443V-445Q735 -449 733 -454Q691 -519 666 -544Q647 -537 639 -524Q621 -496 595 -412Q664 -426 712 -452Q714 -446 723 -446Q731 -445 737 -443ZM604 -271H602Q588 -274 578 -288Q577 -290 563 -314Q553 -308 548 -297Q543 -287 539 -275Q533 -260 528 -255Q519 -246 504 -247H501Q492 -253 484 -259Q476 -266 462 -268H461Q457 -264 453 -261L450 -263V-266Q450 -272 453 -275Q447 -282 439 -289Q431 -296 427 -308Q425 -321 425 -335Q425 -350 418 -362Q418 -354 412 -341Q407 -330 407 -325Q407 -320 411 -316Q397 -305 392 -258Q388 -219 377 -206Q367 -215 356 -224Q355 -223 353 -218Q352 -215 349 -215Q347 -215 345 -218Q343 -221 341 -221H340Q329 -220 318 -219Q307 -218 303 -211V-170Q314 -172 316 -183Q318 -193 324 -202Q331 -210 342 -210Q364 -210 377 -193Q385 -199 387 -199Q385 -193 385 -190Q385 -183 392 -182Q398 -186 405 -191Q411 -196 420 -197Q424 -197 426 -196Q411 -178 409 -174Q415 -162 421 -159Q431 -164 435 -164Q433 -166 433 -170Q435 -176 436 -183V-185Q430 -198 426 -209Q426 -223 440 -235Q441 -236 466 -253Q462 -248 460 -242V-239Q464 -237 468 -237Q481 -238 493 -240Q500 -240 506 -237Q500 -234 492 -230Q484 -227 480 -220Q483 -215 500 -208Q532 -218 566 -227Q582 -230 597 -231Q612 -233 618 -247Q614 -248 605 -248Q567 -243 528 -239H525Q532 -248 545 -251Q557 -254 569 -257Q597 -261 624 -266Q623 -272 616 -272Q610 -271 604 -271ZM934 -5H932Q909 -1 889 40Q885 40 880 39Q864 39 855 56V46Q849 39 830 26Q808 11 798 -1Q792 -10 768 -52Q747 -89 747 -106V-110Q751 -136 805 -143Q809 -162 817 -165Q817 -161 816 -157Q816 -137 836 -130Q850 -139 858 -148Q853 -139 849 -126Q849 -120 855 -116Q867 -129 879 -144Q892 -158 912 -164Q900 -152 886 -138Q872 -123 871 -109Q871 -95 892 -85Q901 -88 908 -93Q915 -98 926 -99H932Q926 -94 916 -91Q905 -88 904 -75V-70Q906 -68 911 -68H923Q911 -54 911 -34Q911 -28 915 -16Q920 -11 930 -10Q939 -9 948 -7Q947 -4 942 -4Q938 -4 934 -5ZM689 98H688Q662 98 648 85Q633 73 626 53Q614 12 601 -29Q601 -30 605 -30H615Q630 -57 630 -115Q630 -136 629 -146Q563 -144 534 -115Q553 -97 571 -79Q579 -80 583 -85V-77Q585 -51 586 -25Q586 -18 584 -2Q578 3 572 8Q566 14 565 24Q557 22 553 22Q537 22 521 30Q507 21 489 14Q483 18 476 22Q481 17 481 10Q477 -9 460 -17Q438 -15 421 -8Q438 -19 454 -30Q450 -47 444 -61Q447 -60 451 -60Q463 -61 470 -71Q477 -81 483 -92H482Q471 -90 460 -88Q453 -88 450 -93Q448 -97 448 -100Q448 -104 454 -112Q452 -112 448 -119Q443 -127 441 -127Q437 -126 427 -110Q420 -99 417 -96Q406 -89 384 -87Q365 -85 356 -80Q357 -83 357 -87Q357 -94 352 -99Q307 -89 276 -73Q240 -54 208 -33Q210 -47 224 -58Q228 -61 251 -74Q284 -89 307 -107Q272 -103 226 -80Q201 -68 152 -39Q114 -14 114 8Q114 20 124 30Q138 27 153 5Q170 -19 187 -19H191Q160 31 150 42Q135 57 120 57Q113 57 103 52Q92 40 79 19Q66 5 53 -10Q53 -14 52 -19Q52 -27 58 -43Q63 -56 63 -68V-70Q75 -78 93 -104Q114 -134 133 -142Q113 -116 110 -95Q117 -98 242 -146V-148Q242 -158 235 -158Q226 -155 217 -152Q199 -152 179 -171Q164 -185 156 -188Q158 -198 158 -203Q158 -222 142 -250Q129 -273 128 -287Q141 -282 153 -260Q165 -238 177 -233Q160 -298 109 -356Q105 -352 105 -347Q105 -342 113 -332Q123 -320 123 -311Q123 -308 122 -306Q116 -315 88 -332Q51 -354 45 -369Q41 -378 41 -388Q44 -412 56 -440Q59 -439 62 -435Q67 -429 73 -429H75Q70 -441 62 -455Q53 -468 51 -487Q62 -473 72 -460Q82 -440 90 -440L94 -441Q92 -445 86 -453Q81 -460 80 -468L81 -472Q88 -469 95 -458Q103 -447 109 -444Q117 -446 121 -446Q137 -445 149 -437Q160 -428 170 -419Q174 -420 183 -427Q193 -435 199 -435Q203 -435 207 -432Q206 -427 199 -420Q193 -414 192 -407Q203 -409 211 -417Q218 -426 226 -434Q244 -445 260 -460Q258 -461 253 -461Q245 -461 234 -452Q220 -441 211 -441Q216 -452 239 -467Q253 -476 260 -484Q257 -525 253 -614Q248 -614 243 -608Q239 -602 235 -602V-605Q239 -613 242 -622Q229 -620 223 -611Q217 -602 209 -595Q219 -632 259 -668Q280 -687 294 -687Q308 -687 324 -671Q348 -649 361 -616Q346 -594 343 -586Q336 -569 336 -544Q344 -547 345 -553Q345 -558 347 -563Q360 -583 383 -583Q405 -583 432 -587L433 -583Q433 -579 432 -576L433 -573L436 -571Q439 -572 442 -573L444 -572Q447 -556 462 -531Q480 -502 480 -478Q466 -464 454 -441Q452 -437 449 -431Q446 -426 442 -425H441Q439 -428 439 -434Q439 -441 445 -456Q450 -468 450 -474Q450 -483 442 -488Q430 -487 422 -472Q420 -468 411 -443Q380 -365 380 -317Q381 -311 381 -305Q396 -328 402 -363Q415 -405 432 -409V-407Q432 -401 427 -391Q421 -380 421 -373V-368Q467 -406 493 -466Q519 -525 552 -578V-572Q551 -555 543 -540Q535 -524 528 -510Q508 -466 503 -441Q520 -449 528 -471Q537 -493 547 -516Q583 -593 592 -638Q586 -637 579 -621Q571 -604 565 -604Q573 -640 581 -676Q575 -686 562 -691Q565 -700 571 -705V-706Q570 -709 568 -712V-714Q600 -788 655 -788H657Q680 -787 696 -767Q704 -757 718 -724Q732 -692 732 -669Q732 -648 724 -632Q765 -576 805 -521Q824 -497 824 -484V-479Q809 -490 787 -519Q768 -543 757 -553Q771 -510 804 -460Q841 -405 872 -397Q869 -406 854 -423Q833 -446 833 -462V-463H834Q839 -463 841 -458Q843 -453 846 -449Q852 -441 892 -409Q893 -437 898 -461Q900 -456 902 -443Q905 -425 910 -418Q914 -427 914 -441Q913 -465 911 -490Q911 -512 918 -520Q919 -455 929 -400Q932 -432 934 -464Q939 -459 939 -451Q939 -445 938 -440Q948 -368 963 -296Q968 -274 972 -252V-250Q971 -235 960 -224Q949 -214 938 -205Q900 -209 875 -227Q850 -245 832 -272Q802 -324 772 -377Q763 -362 757 -346Q751 -330 736 -320Q731 -317 718 -315Q700 -313 694 -305Q699 -291 706 -284Q751 -299 795 -314V-303Q801 -299 821 -271Q831 -260 834 -251V-250Q834 -245 829 -235Q823 -224 823 -217Q823 -213 824 -211Q824 -208 819 -207Q814 -205 814 -202L813 -199Q816 -195 819 -194L818 -193Q805 -188 758 -184Q720 -181 712 -167Q701 -149 701 -105Q702 -82 702 -60Q702 -47 700 -27Q689 -39 689 -70Q690 -89 690 -109Q690 -126 688 -133Q673 -109 673 -36V-4Q675 22 688 30Q695 28 695 17Q695 10 694 2Q694 -11 704 -11Q707 24 715 55Q704 77 689 98Z"/>
</svg>