<svg xmlns="http://www.w3.org/2000/svg" viewBox="0 -800 1024 1024">
	<path fill="#000000" d="M944 -167V-164Q944 -157 936 -150Q929 -145 929 -139Q927 -145 927 -149Q927 -167 941 -167ZM837 -393V-388Q832 -396 826 -405Q820 -414 809 -415Q805 -415 797 -412Q794 -411 794 -405Q793 -397 790 -397Q789 -400 789 -406Q789 -410 791 -412Q756 -454 725 -472Q715 -498 705 -524H708Q716 -525 723 -526Q727 -534 744 -543Q758 -550 763 -557Q769 -552 786 -548Q801 -545 806 -542Q819 -550 831 -559V-558Q827 -547 823 -531V-526Q828 -522 832 -518Q840 -520 847 -523H849Q843 -514 843 -506Q843 -492 858 -482Q864 -484 868 -484Q870 -484 876 -482Q874 -475 869 -473Q864 -471 861 -463Q860 -461 860 -457Q862 -446 863 -435Q863 -430 862 -428Q860 -420 853 -417Q847 -414 840 -410Q837 -401 837 -393ZM871 127H865Q854 123 843 118Q841 117 836 117H826Q825 117 790 91Q780 86 771 80Q761 74 760 64V62Q773 64 787 76Q801 88 812 90Q813 88 813 84Q813 72 791 52Q759 21 677 -35Q678 -15 702 7Q711 14 721 22Q731 29 733 42Q704 28 680 2Q675 -4 639 -50Q605 -22 600 19Q583 24 571 24Q548 24 526 13H524Q520 13 518 16Q516 19 514 19Q514 -2 501 -20Q491 -22 487 -22Q480 -22 476 -16Q483 -30 483 -47Q483 -69 464 -110Q451 -138 448 -151Q455 -145 464 -133Q478 -115 487 -109Q511 -118 531 -140Q540 -150 563 -184Q551 -216 537 -247Q523 -278 514 -314Q475 -309 466 -307Q441 -301 434 -284Q436 -276 436 -272Q435 -255 423 -242Q411 -230 400 -215Q376 -178 331 -89Q323 -70 316 -67V-73Q317 -89 325 -103Q333 -118 340 -131Q361 -161 367 -194Q347 -185 333 -162Q319 -139 305 -115Q291 -95 279 -76Q267 -56 264 -34Q264 -29 263 -24Q263 -13 270 -7Q279 -10 286 -26Q294 -43 305 -44Q292 -6 284 37Q274 42 262 61Q248 84 231 84H230Q221 84 209 74Q197 64 186 64H180Q167 50 162 19Q159 6 156 -8V-13Q157 -18 157 -24Q155 -35 141 -49Q128 -62 128 -71Q134 -71 140 -65Q146 -59 150 -58Q146 -69 132 -84Q117 -100 113 -113Q130 -106 138 -92Q150 -80 162 -68Q157 -84 132 -111Q111 -134 104 -149Q113 -148 129 -130Q153 -103 154 -102Q169 -87 184 -80Q200 -87 211 -104Q224 -122 244 -161Q268 -207 283 -227Q251 -231 243 -262Q212 -270 212 -300Q212 -308 213 -313Q213 -316 219 -326Q226 -338 227 -346Q229 -371 234 -380Q238 -381 264 -400H265Q271 -397 276 -394H280Q289 -394 295 -398Q301 -396 305 -394Q318 -400 330 -402Q339 -403 362 -404Q357 -409 342 -409Q327 -409 322 -413Q307 -428 295 -446Q278 -441 260 -437Q250 -432 237 -415Q222 -395 208 -394H206Q180 -397 166 -413Q165 -414 157 -442Q149 -461 111 -503Q112 -506 112 -512Q110 -523 102 -535L105 -536Q110 -533 115 -531Q117 -531 120 -535Q118 -544 108 -555Q97 -567 95 -577Q99 -575 108 -567Q120 -556 129 -556H131Q130 -572 113 -589Q93 -609 89 -619Q122 -601 154 -580Q156 -581 157 -584Q157 -587 160 -587H168Q184 -587 195 -592Q207 -597 221 -601V-605Q222 -644 240 -674H241Q244 -674 245 -670Q245 -667 248 -667Q263 -678 269 -686Q278 -698 279 -716Q297 -706 305 -705H318Q326 -705 328 -698Q326 -695 316 -693Q305 -691 302 -686Q303 -671 331 -667Q355 -664 359 -655Q364 -660 364 -667Q360 -687 341 -695Q341 -703 348 -703Q358 -703 366 -695Q366 -668 384 -655Q419 -661 467 -688Q467 -681 470 -680Q481 -686 489 -693Q498 -700 511 -702V-700Q511 -693 499 -683Q487 -673 487 -666V-665H489Q491 -665 494 -668Q499 -674 503 -674L507 -673Q504 -664 501 -655Q503 -648 507 -643Q506 -636 505 -629Q511 -598 516 -554Q513 -548 504 -540Q492 -530 490 -520Q429 -507 406 -491Q408 -482 408 -462Q408 -437 405 -418Q420 -418 425 -413Q400 -398 363 -397Q325 -396 307 -371Q318 -365 334 -365Q353 -366 372 -372Q391 -379 411 -383Q452 -385 477 -404Q474 -410 457 -411Q443 -412 439 -415Q442 -422 452 -424Q461 -426 470 -427V-429Q470 -432 464 -439Q458 -445 458 -450Q458 -453 459 -455Q458 -457 453 -457Q447 -457 446 -458Q461 -477 476 -496Q495 -517 520 -518H528Q532 -521 535 -524Q529 -547 516 -563Q517 -569 517 -576Q516 -603 514 -631Q514 -667 535 -677Q537 -671 540 -670Q583 -676 615 -692Q613 -706 611 -721L607 -722Q604 -721 600 -721Q603 -735 609 -746Q607 -747 602 -747Q584 -743 564 -737V-738Q565 -748 573 -752Q581 -756 588 -760Q603 -775 619 -788Q633 -795 649 -800Q665 -805 673 -818Q685 -821 694 -821Q722 -820 737 -801Q751 -782 766 -763Q763 -748 760 -734Q773 -736 798 -747Q818 -756 829 -758L832 -759Q830 -755 828 -751V-749H830Q835 -749 846 -757Q857 -765 865 -765Q867 -765 873 -763Q866 -757 857 -751Q848 -744 847 -736Q849 -734 851 -734Q857 -736 863 -739Q865 -739 867 -737L869 -736Q867 -731 864 -727V-725Q867 -724 874 -724Q893 -726 912 -728H918Q905 -722 891 -716Q877 -710 870 -697Q871 -695 874 -695Q881 -697 887 -700Q888 -700 892 -698Q874 -682 874 -664Q874 -657 877 -650Q858 -617 852 -610Q835 -590 811 -590Q806 -590 796 -592Q797 -601 813 -603Q827 -605 828 -613Q821 -621 805 -621Q795 -621 758 -613Q738 -610 722 -607Q706 -603 701 -587Q708 -582 714 -582Q734 -586 754 -590Q760 -590 764 -587Q752 -578 720 -572Q696 -567 682 -560Q662 -550 646 -530Q643 -526 619 -491Q612 -488 610 -484L611 -481Q604 -481 601 -476Q599 -471 597 -466Q612 -469 643 -480Q681 -494 702 -497V-493Q702 -487 701 -481Q701 -478 702 -476L705 -475Q711 -477 716 -479Q714 -477 714 -472Q716 -459 728 -457H731Q736 -445 743 -429Q750 -412 751 -395Q751 -381 741 -368Q707 -356 696 -355Q636 -347 593 -331Q601 -286 619 -259V-254Q620 -240 625 -230Q631 -220 636 -211Q644 -223 665 -244Q685 -265 687 -285Q687 -292 682 -299Q666 -290 656 -272Q652 -265 646 -257Q640 -249 633 -248Q635 -263 649 -283Q659 -297 662 -305Q661 -310 650 -310H640Q667 -328 673 -343Q690 -351 715 -351Q753 -351 776 -332Q796 -338 811 -347Q793 -327 793 -310Q793 -301 799 -292H801Q808 -293 814 -295L818 -294Q817 -289 811 -285Q806 -282 805 -278Q807 -268 807 -264Q807 -257 806 -250Q806 -246 808 -236Q788 -225 768 -215Q748 -206 729 -188Q693 -152 693 -138V-137Q694 -122 745 -85Q779 -58 808 -43Q817 -39 827 -39Q846 -40 860 -55Q873 -70 886 -88Q886 -82 878 -70Q868 -54 868 -40V-35Q879 -48 894 -80Q910 -115 923 -128Q895 -51 888 -17Q894 -19 895 -25Q896 -31 898 -37Q906 -59 908 -65Q916 -82 926 -86Q907 -33 907 -2Q907 17 911 34Q921 62 925 88Q925 99 921 108Q912 108 901 116Q885 127 871 127Z"/>
</svg>