<svg xmlns="http://www.w3.org/2000/svg" viewBox="0 -800 1024 1024">
	<path fill="#000000" d="M294 -231V-262Q278 -261 247 -237Q238 -230 229 -223Q220 -216 219 -206Q219 -201 220 -199Q232 -201 250 -213Q276 -230 294 -231ZM303 -402Q307 -440 307 -462L304 -463Q284 -441 265 -418Q240 -385 239 -361Q251 -363 270 -373Q284 -381 294 -383L293 -387Q296 -397 303 -402ZM894 -477H892Q868 -475 844 -474Q840 -474 818 -471Q796 -468 754 -470Q774 -478 824 -486Q855 -491 858 -494Q858 -497 853 -501Q849 -504 848 -506Q773 -515 527 -440Q526 -435 524 -431Q522 -426 527 -421Q545 -422 597 -440Q670 -465 701 -461H703Q672 -444 635 -437Q543 -414 527 -402Q519 -395 507 -386Q495 -377 481 -378Q476 -378 474 -380Q458 -391 441 -411Q436 -415 425 -422Q411 -430 405 -438Q404 -441 404 -446V-450Q408 -466 416 -480Q408 -485 410 -511L414 -538Q419 -545 429 -549Q439 -554 446 -558L445 -561Q446 -567 446 -574L447 -577Q454 -576 456 -569Q458 -563 460 -558Q470 -559 508 -572Q553 -588 567 -587Q568 -588 570 -597Q570 -622 566 -651Q565 -653 552 -663L553 -665Q555 -671 556 -677L555 -680Q554 -686 539 -688Q544 -707 556 -712Q571 -731 594 -758Q617 -784 644 -791H654Q670 -789 685 -774Q699 -760 702 -743H698Q694 -743 687 -750Q681 -756 676 -757Q672 -758 667 -754Q666 -732 678 -721Q690 -709 698 -694Q709 -692 714 -695V-698Q712 -705 710 -713V-714Q713 -715 718 -715Q729 -713 734 -687Q727 -673 717 -658Q707 -643 704 -626Q704 -624 705 -617Q759 -629 797 -638Q836 -647 874 -646Q861 -630 859 -627H861Q868 -626 879 -630Q895 -636 905 -634H910Q899 -626 886 -622Q873 -617 866 -604Q871 -603 875 -602Q880 -601 911 -604Q908 -601 897 -597Q881 -592 878 -583Q883 -576 884 -554Q885 -527 894 -518Q892 -515 892 -511Q894 -496 896 -481Q895 -479 894 -477ZM511 -176H509Q509 -127 515 -107Q529 -107 547 -113Q538 -119 528 -141Q520 -158 513 -165Q513 -167 517 -168Q520 -169 520 -172Q514 -176 511 -176ZM368 -333Q379 -325 381 -325L383 -328Q382 -332 381 -337V-338Q389 -333 402 -333Q419 -334 436 -336Q441 -336 449 -334Q462 -331 476 -307Q487 -287 495 -282Q505 -249 505 -212Q505 -201 504 -191H506Q524 -191 548 -211Q555 -218 562 -225Q569 -233 579 -234Q577 -222 560 -209Q542 -195 542 -182Q543 -178 543 -175Q562 -183 574 -198Q587 -214 599 -230Q587 -245 577 -264Q567 -283 557 -300Q550 -319 545 -337Q540 -342 534 -346Q528 -351 527 -358H531Q539 -355 547 -353L548 -355Q548 -361 543 -366Q564 -374 566 -374Q571 -374 575 -375Q594 -374 609 -360Q623 -345 634 -333Q651 -364 654 -405V-407Q665 -423 670 -428Q681 -439 691 -439Q703 -444 721 -441Q734 -439 740 -436Q749 -410 761 -384Q772 -358 773 -323Q773 -310 772 -304Q764 -296 752 -296Q742 -296 732 -297Q725 -296 719 -285Q714 -274 709 -265Q716 -247 725 -228Q733 -210 734 -188Q734 -173 729 -161Q709 -154 691 -154Q661 -154 643 -176Q626 -167 616 -129Q660 -134 715 -138Q717 -138 744 -135Q758 -190 774 -244Q782 -270 791 -298Q800 -327 801 -356V-361Q800 -377 799 -394Q799 -404 802 -413Q822 -445 862 -451Q880 -451 891 -436Q901 -441 911 -447H912Q914 -448 914 -444V-439Q921 -443 930 -455Q940 -468 946 -472Q934 -446 927 -420Q932 -421 936 -430Q939 -438 943 -439L944 -436Q940 -424 936 -405Q936 -398 939 -394H940Q944 -394 946 -398Q949 -403 952 -403Q951 -398 951 -389Q951 -371 960 -364Q957 -356 957 -348Q959 -324 961 -300Q961 -289 960 -284Q945 -260 921 -239Q921 -248 928 -267Q925 -276 918 -276Q903 -273 900 -254H898Q896 -254 893 -255H891Q868 -236 861 -206Q854 -176 844 -143Q836 -124 826 -102Q815 -80 814 -48V-37Q830 -54 848 -111Q863 -159 874 -176Q880 -179 886 -179Q890 -189 895 -199Q900 -210 908 -211H909Q905 -195 897 -182Q861 -104 835 -12Q828 14 823 38Q817 62 802 77Q797 74 785 73Q770 71 763 64H762Q758 66 753 67H751Q742 48 731 26Q720 3 719 -22Q719 -37 723 -46Q716 -57 700 -57Q690 -56 679 -56Q560 -56 518 -21Q524 -11 535 -11Q554 -15 580 -24Q628 -33 642 -33Q655 -33 668 -30Q628 -23 584 -14Q539 -6 510 23Q507 32 507 35Q501 35 490 42Q479 49 471 49H469Q444 46 435 18Q425 -12 411 -34Q416 -42 416 -48Q416 -55 412 -59Q424 -72 424 -98Q424 -133 403 -188Q388 -227 362 -261Q353 -161 350 -55Q341 -56 341 -65Q342 -71 342 -78Q343 -99 343 -120Q343 -148 341 -180Q327 -131 327 -54Q327 -23 329 -10Q331 7 341 14Q345 1 344 -17Q343 -35 356 -39Q358 -7 359 24Q364 44 369 63V64Q369 78 355 93Q337 112 334 118Q320 114 316 114Q313 114 307 116Q286 94 265 72Q266 66 266 57Q265 31 255 14Q245 -2 235 -18Q247 -14 254 -14Q266 -14 273 -21Q278 -81 288 -133Q268 -133 248 -119Q227 -104 223 -84Q222 -78 222 -66Q223 -37 224 -8Q224 15 221 25Q220 28 215 31Q208 36 208 42Q201 39 190 39Q174 39 171 50Q166 41 161 30Q157 18 148 17Q145 17 143 18Q141 17 141 12V2H123Q134 -39 140 -55Q127 -121 125 -154Q133 -148 137 -133Q137 -132 143 -105Q145 -74 156 -54Q160 -62 160 -74Q160 -79 150 -132Q144 -179 138 -228Q132 -277 109 -304Q108 -300 108 -292Q111 -264 119 -234Q128 -195 128 -192Q128 -176 119 -170Q107 -213 101 -260Q95 -306 73 -342Q43 -385 39 -427V-439Q39 -463 47 -471Q25 -527 23 -555Q30 -538 37 -521Q45 -503 60 -493Q60 -501 51 -513Q40 -528 39 -537H40Q44 -537 51 -527Q61 -513 69 -513L70 -516Q70 -521 64 -526Q57 -532 57 -537V-538Q65 -533 76 -528Q90 -543 113 -543Q161 -538 187 -508Q258 -556 298 -616Q283 -610 271 -597Q258 -585 245 -573Q226 -556 218 -550Q201 -537 187 -532Q202 -551 236 -583Q267 -618 303 -646L304 -648Q302 -651 299 -655L300 -657Q303 -684 319 -703Q337 -725 362 -725Q367 -725 377 -723Q387 -720 394 -713Q400 -705 408 -697Q416 -698 423 -700Q419 -699 419 -693Q419 -688 421 -682L423 -681Q427 -684 431 -688L433 -687Q437 -670 440 -654Q447 -645 454 -639Q461 -632 462 -621Q462 -608 448 -583Q437 -564 436 -558Q416 -557 409 -542Q402 -528 394 -513Q385 -513 385 -526Q386 -529 386 -532Q387 -544 405 -563Q418 -577 420 -582Q417 -590 411 -590Q400 -590 386 -576Q352 -534 342 -367Q341 -360 341 -348Q341 -326 351 -317L366 -429Q370 -463 371 -469Q375 -491 386 -501Q376 -420 368 -333ZM367 -321Q365 -306 363 -276Q373 -291 377 -304Q376 -309 367 -321Z"/>
</svg>