<svg xmlns="http://www.w3.org/2000/svg" viewBox="0 -800 1024 1024">
	<path fill="#000000" d="M862 -672V-675Q862 -687 873 -693Q875 -691 875 -689Q875 -677 862 -672ZM795 -38V-33Q787 -34 784 -41Q782 -48 779 -56H780Q795 -56 795 -38ZM95 -303Q79 -303 77 -321Q79 -323 83 -323Q93 -317 95 -303ZM926 -197V-194Q924 -181 921 -169Q913 -171 913 -185Q913 -198 921 -198Q924 -198 926 -197ZM256 -2Q254 5 234 9Q232 5 232 3Q234 -7 247 -8Q255 -8 256 -2ZM338 -509Q330 -506 313 -490Q297 -475 289 -470Q254 -449 254 -430Q254 -419 262 -408Q272 -410 288 -420Q307 -431 322 -432Q332 -461 341 -507ZM449 -141V-131Q429 -126 426 -114Q428 -106 435 -105Q428 -94 428 -83Q428 -75 434 -69Q404 -52 368 -40Q367 -40 296 -19Q306 -33 334 -41Q361 -49 372 -62Q365 -66 355 -66Q346 -66 330 -62Q295 -51 259 -40Q217 -27 210 -23Q185 -11 175 9Q178 15 185 15Q197 13 209 11Q214 11 216 12L217 14Q217 17 200 27Q190 32 179 42Q170 58 161 73Q152 88 128 89Q121 89 116 88Q107 85 98 82Q94 71 74 62Q56 54 54 39V37Q56 28 57 19Q53 8 49 -3Q48 -7 48 -14Q50 -46 72 -63Q94 -81 119 -99Q118 -94 113 -87Q109 -79 108 -69Q111 -66 113 -63Q164 -80 169 -81Q165 -108 149 -131Q95 -135 95 -206Q95 -221 98 -238Q101 -244 110 -246V-251Q110 -261 102 -275Q96 -286 96 -293V-294Q103 -294 112 -279Q119 -267 125 -264Q129 -269 132 -275Q132 -278 126 -282Q120 -286 120 -292V-295Q138 -283 206 -269Q223 -245 236 -220Q233 -203 233 -184Q233 -152 241 -108H242Q244 -108 265 -117Q261 -127 261 -141Q261 -155 267 -159Q263 -163 263 -175Q263 -190 268 -198Q277 -193 277 -173V-164Q277 -140 289 -138Q299 -148 299 -171Q299 -173 296 -212V-244Q296 -269 281 -272Q275 -268 274 -259Q272 -250 270 -243Q259 -253 260 -271Q260 -288 249 -294Q247 -295 244 -295Q239 -295 231 -291Q221 -286 216 -286H215Q202 -286 189 -301Q179 -313 172 -315Q174 -318 174 -324Q171 -338 167 -353Q167 -356 169 -360Q175 -359 181 -349Q187 -339 192 -339Q196 -339 200 -342Q193 -374 185 -404Q177 -435 148 -446Q145 -438 145 -433Q145 -424 154 -409Q164 -393 164 -382V-378Q150 -384 147 -394Q145 -403 137 -416Q131 -427 111 -440Q94 -446 81 -456Q77 -470 77 -486Q69 -506 66 -528Q67 -531 67 -534Q74 -542 82 -549Q90 -556 91 -570Q91 -576 90 -579Q111 -580 111 -603Q111 -606 105 -639Q109 -636 123 -615Q129 -619 129 -626Q129 -633 119 -647Q108 -662 108 -669Q119 -666 131 -649Q141 -635 148 -631Q147 -645 131 -670Q119 -688 116 -699Q137 -683 150 -659Q163 -634 199 -631H203Q210 -594 222 -562Q258 -588 296 -609Q331 -636 372 -656Q380 -675 387 -694Q396 -697 412 -707Q437 -723 450 -723Q462 -723 473 -713Q498 -721 514 -732L515 -730Q515 -727 508 -720Q498 -709 498 -702Q498 -698 501 -694L503 -693Q507 -696 510 -699H511Q510 -696 510 -692Q510 -682 522 -667Q531 -656 532 -651Q533 -648 533 -642Q533 -629 524 -605Q515 -581 515 -570V-568Q501 -559 487 -551Q471 -534 462 -504Q456 -490 449 -477Q425 -421 425 -390V-387Q427 -378 428 -369Q427 -349 413 -324Q398 -297 379 -294Q370 -295 363 -301Q356 -307 348 -311V-307Q345 -292 341 -278Q341 -273 342 -270Q358 -274 388 -286Q417 -298 431 -301L433 -300Q431 -295 429 -291V-289Q431 -286 433 -286Q437 -287 441 -288Q440 -286 440 -281Q445 -259 449 -238Q449 -229 443 -220Q445 -209 447 -198Q439 -195 429 -179Q345 -177 345 -144Q360 -145 392 -158Q426 -172 448 -172H456Q454 -167 443 -162Q427 -154 427 -146Q427 -141 429 -138Q438 -139 446 -141ZM798 -24H799Q803 -23 807 -17Q811 -11 815 -5Q828 10 840 12Q842 8 842 4Q838 -16 825 -34Q784 -98 735 -151Q733 -147 733 -140Q734 -127 741 -117Q748 -106 752 -96H750Q746 -96 739 -103Q720 -125 703 -153Q686 -181 662 -200Q652 -197 641 -194Q629 -191 622 -183Q613 -170 612 -151Q611 -131 607 -111Q591 -41 590 -33Q584 25 570 44Q566 50 556 55Q542 62 539 75Q534 73 534 67Q534 64 536 60Q527 56 514 45Q499 32 489 29Q488 19 480 7Q472 -6 471 -12V-15Q472 -23 473 -32V-34Q471 -48 457 -75Q441 -104 440 -117Q448 -112 459 -97Q471 -80 481 -75Q499 -89 508 -111Q516 -133 526 -154Q525 -156 522 -156Q517 -155 512 -154H511Q505 -164 499 -174Q489 -183 475 -192Q461 -201 460 -220Q460 -229 462 -234Q469 -247 476 -261Q481 -280 486 -300Q490 -319 509 -321H510Q516 -318 521 -315Q524 -314 526 -314Q532 -314 542 -318Q555 -323 564 -323Q575 -351 579 -383Q569 -388 555 -390Q553 -404 534 -419Q515 -435 513 -449V-454Q517 -473 520 -492V-499Q519 -519 517 -539V-546Q528 -562 552 -588Q554 -579 558 -573Q594 -577 623 -591Q630 -605 630 -626Q630 -644 625 -653H624Q611 -653 611 -628Q610 -597 607 -591Q600 -593 600 -605Q601 -614 601 -623Q601 -629 600 -631Q598 -639 593 -640Q589 -642 585 -647V-648Q588 -653 590 -659Q587 -665 584 -671Q574 -669 563 -657Q554 -648 548 -645Q550 -653 561 -668Q573 -685 575 -697Q574 -705 573 -713V-716Q578 -740 617 -768Q626 -775 634 -782Q642 -786 652 -786Q682 -781 712 -773Q731 -762 736 -734Q747 -708 747 -704V-702Q747 -694 740 -673Q732 -649 732 -637V-631H733Q735 -631 739 -635Q745 -641 750 -641Q751 -641 755 -639Q762 -648 783 -655Q802 -661 809 -668V-666Q809 -662 804 -656Q798 -648 798 -644H800Q812 -644 831 -657Q846 -667 856 -669Q853 -664 842 -656Q823 -643 823 -633Q823 -628 828 -620Q834 -623 839 -628Q843 -633 852 -633L837 -609Q839 -600 847 -600Q853 -600 864 -608Q855 -578 855 -575Q855 -566 859 -561Q840 -546 840 -507V-499Q838 -500 833 -500Q827 -500 812 -492Q797 -484 786 -483Q786 -497 804 -504Q817 -509 820 -515Q812 -522 801 -522Q788 -521 775 -514Q762 -507 747 -501Q718 -490 713 -487Q697 -477 697 -458V-455Q706 -457 720 -465Q742 -477 755 -477H760V-475Q760 -471 751 -466Q742 -461 741 -456Q728 -456 724 -455Q706 -443 688 -432Q672 -389 670 -367Q748 -396 781 -411Q839 -437 880 -467Q879 -461 877 -455V-453Q884 -455 894 -463Q907 -473 915 -473H918Q917 -466 908 -456Q898 -445 898 -439Q898 -434 902 -429L904 -428Q906 -428 908 -433Q911 -440 916 -440H918Q913 -425 913 -412Q913 -405 914 -402L916 -401Q920 -404 923 -407H924Q923 -396 922 -386Q922 -375 930 -374Q927 -325 908 -297Q898 -295 880 -288Q854 -278 840 -276Q844 -289 865 -296Q880 -301 885 -306V-309Q883 -314 878 -318Q832 -307 795 -292Q776 -287 755 -279Q735 -272 724 -252Q734 -250 737 -250Q750 -250 772 -260Q791 -269 801 -269Q808 -269 815 -266Q804 -258 782 -250Q759 -242 752 -237Q790 -180 871 -108Q881 -110 883 -131Q885 -147 888 -151Q891 -144 891 -127Q891 -103 897 -97Q899 -111 899 -118Q897 -150 895 -183Q895 -201 899 -213Q909 -187 909 -151Q913 -103 918 -81Q920 -86 920 -97Q919 -117 917 -138Q917 -151 923 -160Q928 -76 976 36Q967 55 959 73Q951 92 933 101Q920 103 915 109Q878 95 844 53Q836 41 828 29Q809 7 801 -9Q799 -14 797 -20Z"/>
</svg>