<svg xmlns="http://www.w3.org/2000/svg" viewBox="0 -800 1024 1024">
	<path fill="#000000" d="M496 -602Q494 -604 492 -604Q486 -604 486 -597Q486 -595 488 -593Q488 -595 492 -597Q496 -599 496 -602ZM592 52H590Q582 54 573 56H570Q570 45 584 45H590Q591 48 592 51ZM888 -99V-113Q888 -118 889 -119Q891 -121 894 -121Q899 -121 901 -116Q898 -112 896 -107Q894 -102 888 -99ZM242 25Q233 29 224 32Q219 32 217 30Q232 15 237 15Q242 15 242 25ZM510 -722Q508 -715 501 -712Q495 -708 491 -705Q490 -707 490 -710Q490 -715 494 -721Q498 -727 502 -727Q507 -727 510 -722ZM579 -208H589Q592 -217 592 -223Q592 -226 590 -230Q575 -228 573 -222Q576 -215 579 -208ZM589 -281V-285Q591 -294 592 -303H588Q568 -303 556 -284Q558 -278 566 -278Q577 -279 587 -281ZM669 -227H672Q681 -228 689 -230Q694 -244 703 -256Q678 -256 669 -248ZM599 -397Q593 -397 587 -398Q554 -398 528 -380Q522 -376 488 -343Q494 -340 500 -338Q506 -359 550 -367Q573 -372 581 -376Q596 -383 599 -397ZM765 -345V-346Q747 -349 727 -349Q673 -349 673 -314V-308Q700 -320 733 -324Q743 -324 753 -321Q754 -324 760 -333Q765 -340 765 -345ZM568 -527Q560 -531 555 -539L557 -543L556 -545Q552 -547 548 -556Q545 -563 543 -564Q539 -567 533 -567Q523 -566 515 -558Q506 -550 499 -545Q501 -550 509 -557Q517 -565 519 -570Q515 -584 499 -584Q491 -584 481 -579Q476 -570 469 -564Q462 -557 461 -544Q444 -531 436 -501Q475 -522 481 -524L480 -520Q482 -514 487 -509Q496 -511 506 -511Q517 -511 524 -509Q527 -518 547 -519Q566 -520 568 -527ZM238 -420H234Q229 -420 226 -419Q223 -410 223 -400Q223 -378 230 -366Q241 -373 259 -379Q281 -387 291 -394Q307 -408 312 -440Q317 -472 321 -497Q323 -500 324 -503Q324 -506 321 -506V-507H320Q294 -490 270 -472Q247 -453 238 -420ZM944 18V19Q943 31 935 40Q927 49 921 61Q830 55 808 52Q782 48 756 43Q732 44 707 45H690Q667 46 644 47Q637 47 630 46Q651 31 708 31H718Q729 34 740 36Q750 34 759 31Q778 34 796 37Q802 38 807 38Q816 38 820 33Q810 14 774 10Q750 8 734 8Q666 12 597 15Q560 16 551 18Q528 23 522 40Q524 47 538 50Q551 52 553 58Q495 62 491 99Q480 106 469 106Q453 106 432 81Q421 67 412 56Q403 44 402 31Q402 21 411 7V1Q412 -24 434 -41Q453 -55 472 -70Q461 -59 461 -50Q461 -45 464 -41Q476 -44 482 -47H486Q483 -44 479 -42Q479 -36 496 -36H502Q584 -45 590 -51V-52Q590 -56 583 -56Q577 -56 577 -52V-51Q565 -62 555 -76Q544 -90 529 -98Q533 -102 535 -102H537Q536 -109 528 -111Q534 -116 566 -121Q593 -127 592 -141Q592 -147 589 -155Q559 -155 559 -127Q555 -126 551 -126Q527 -126 502 -152Q495 -159 467 -196Q439 -234 435 -240Q427 -250 417 -262Q406 -275 404 -284Q404 -287 403 -290Q404 -302 410 -311Q417 -321 421 -328Q419 -335 417 -343V-346Q426 -336 441 -336Q464 -340 487 -344Q453 -356 436 -384Q426 -399 421 -415V-420Q425 -439 428 -458Q428 -466 424 -473Q405 -420 399 -396Q388 -352 388 -305V-300Q384 -297 379 -296Q374 -295 373 -290V-287Q369 -286 361 -286Q347 -286 327 -298Q312 -307 302 -309V-307Q303 -289 311 -273Q319 -258 326 -242Q339 -246 356 -259Q381 -278 401 -280Q389 -275 389 -266Q389 -264 391 -260L392 -259Q398 -261 404 -264L407 -263Q404 -260 404 -250V-237L405 -236Q408 -237 411 -239H412Q410 -233 410 -229Q414 -209 417 -190Q417 -183 414 -176Q350 -156 328 -139Q314 -129 310 -125Q300 -115 300 -105Q300 -102 302 -96Q334 -107 365 -118Q396 -129 418 -150Q416 -142 416 -136Q416 -102 432 -84Q420 -73 420 -49V-39Q368 -32 296 1Q274 12 268 12Q263 12 260 10Q272 -7 311 -25Q339 -38 350 -47H344Q313 -46 286 -35Q260 -23 227 -10Q184 6 173 13Q147 30 142 59Q144 61 150 61Q156 61 166 56Q180 49 187 49Q194 49 198 51Q184 62 160 85Q136 109 122 119Q105 117 95 106Q85 95 75 84Q66 77 53 69Q40 61 37 48V44Q37 35 42 27Q47 19 50 9Q52 2 54 -9Q57 -27 61 -33Q64 -37 84 -54Q98 -70 109 -70H112Q102 -57 102 -47Q102 -39 109 -36Q144 -47 164 -51Q158 -80 139 -99Q120 -118 102 -137Q92 -150 91 -156Q91 -160 90 -165Q91 -170 91 -176Q91 -183 88 -191Q85 -198 78 -206Q66 -219 64 -228Q68 -227 79 -218Q91 -208 99 -208Q104 -208 108 -211Q100 -229 100 -230H103Q115 -228 125 -224Q136 -230 148 -230Q166 -230 198 -218Q215 -186 222 -176Q221 -172 221 -163Q224 -136 230 -114Q224 -96 224 -87Q224 -78 229 -71Q232 -72 238 -76Q245 -81 251 -81Q244 -197 217 -248Q212 -247 207 -247Q193 -247 161 -259Q151 -277 140 -295Q130 -312 124 -334Q130 -334 131 -337Q136 -327 141 -318Q146 -308 156 -305Q159 -305 160 -309Q161 -313 162 -314Q149 -344 137 -375Q125 -406 96 -422Q93 -421 88 -416V-414Q89 -397 97 -388Q105 -378 111 -366H109Q100 -367 94 -375Q88 -384 81 -391Q69 -400 55 -411Q40 -422 39 -437Q39 -447 46 -457Q37 -473 34 -495Q30 -516 25 -536L28 -537Q31 -537 33 -533Q37 -527 40 -527H41Q40 -536 29 -556Q18 -576 16 -589Q25 -585 33 -571Q41 -557 47 -553Q41 -564 37 -578Q50 -570 63 -563Q92 -589 127 -589H133Q147 -587 154 -579Q160 -571 170 -563Q184 -554 196 -551Q201 -551 212 -556Q220 -560 226 -560Q233 -560 238 -555Q235 -549 222 -543Q206 -535 205 -524Q207 -523 211 -523Q226 -527 238 -538Q300 -579 332 -614H329Q314 -614 286 -595Q267 -582 258 -581V-583Q259 -592 273 -600Q286 -608 294 -614Q299 -617 305 -626Q310 -627 317 -632Q325 -638 331 -639Q364 -688 403 -688Q414 -688 420 -686Q432 -690 438 -690H442Q442 -686 437 -681Q434 -678 433 -673Q438 -670 439 -667Q443 -669 453 -682Q466 -698 476 -699V-697Q476 -692 469 -687Q462 -682 461 -680Q455 -672 455 -660Q455 -656 457 -648H459Q462 -648 467 -654Q472 -660 474 -660L476 -659Q474 -653 474 -649Q474 -636 484 -614Q503 -629 535 -657Q585 -701 612 -719Q605 -693 581 -678Q560 -665 549 -642H551Q560 -642 584 -659Q625 -685 679 -730Q677 -747 661 -747Q653 -747 648 -742V-743Q648 -749 655 -754Q660 -757 662 -761Q660 -768 657 -775V-777Q668 -778 690 -786Q709 -793 721 -793H727Q752 -789 767 -772Q782 -754 796 -737H799Q806 -738 812 -739H814Q802 -735 802 -726Q806 -712 809 -699Q810 -695 810 -686V-679Q810 -665 814 -661Q805 -648 805 -633V-629Q732 -606 679 -564Q682 -556 695 -547Q721 -558 758 -560Q795 -561 830 -567Q837 -568 852 -574Q869 -580 879 -581Q910 -584 935 -595Q934 -592 931 -591Q928 -591 928 -588V-586Q939 -570 960 -570Q954 -564 954 -557Q955 -553 960 -553H965Q964 -550 964 -545Q964 -537 971 -523Q961 -516 961 -500Q961 -492 965 -478Q951 -460 950 -452Q916 -453 882 -454Q889 -464 924 -464Q923 -476 915 -479Q910 -481 895 -481Q880 -483 865 -485Q860 -484 854 -484Q751 -479 724 -461Q717 -456 712 -449Q716 -443 725 -443Q737 -445 749 -447Q772 -452 811 -455Q816 -451 820 -447Q794 -442 763 -439Q733 -436 706 -428Q699 -426 692 -423Q685 -421 684 -413Q684 -409 685 -407Q714 -413 756 -426Q799 -439 839 -441Q851 -441 857 -440Q860 -440 867 -433Q875 -425 882 -425Q881 -423 881 -420Q881 -415 886 -410Q892 -404 892 -401Q900 -408 907 -414Q914 -421 928 -422Q921 -415 914 -409Q907 -402 907 -390V-388L909 -385Q913 -387 917 -390L919 -389Q918 -386 918 -379Q918 -368 924 -351Q930 -334 930 -326V-321Q929 -312 922 -301Q912 -286 912 -277V-275Q909 -276 903 -276Q891 -276 876 -267Q863 -259 858 -259V-260Q859 -275 869 -280Q880 -286 888 -294Q884 -305 872 -305Q849 -303 842 -287H841Q838 -290 834 -293H833Q796 -276 771 -221Q759 -197 756 -172Q756 -168 758 -158Q787 -206 800 -224Q803 -223 805 -220Q807 -216 808 -216Q814 -218 821 -227Q829 -238 838 -239V-238Q834 -226 821 -212Q787 -161 777 -110Q751 -117 727 -125Q723 -135 717 -145Q712 -155 703 -156H701Q700 -172 689 -172Q671 -170 667 -157Q667 -151 679 -151Q684 -151 688 -152Q713 -138 719 -96Q708 -94 689 -68H684Q674 -68 669 -59Q672 -51 678 -47Q773 -53 793 -56Q854 -65 888 -87Q885 -79 885 -72Q885 -56 894 -53H896Q900 -53 904 -54H906L908 -53Q905 -51 901 -47Q905 -44 916 -44Q928 -44 940 -45Q949 -45 952 -42Q950 -43 944 -43Q929 -43 922 -33Q923 -24 937 -21Q932 -17 932 -11Q932 -6 938 4Q944 13 944 18Z"/>
</svg>