<svg xmlns="http://www.w3.org/2000/svg" viewBox="0 -800 1024 1024">
	<path fill="#000000" d="M140 -508V-511Q140 -523 156 -523Q160 -523 162 -522Q153 -509 140 -508ZM237 -659V-663Q237 -669 236 -675L237 -679H239Q246 -677 251 -673Q268 -680 286 -683Q304 -686 313 -700Q319 -698 323 -688Q326 -681 329 -678Q337 -673 344 -669Q356 -656 366 -642Q368 -642 371 -647Q374 -652 379 -652L382 -651Q380 -645 380 -634Q386 -600 407 -581Q416 -552 416 -530Q416 -506 404 -491Q403 -490 385 -477Q375 -467 365 -462Q357 -460 353 -460Q340 -460 314 -481Q294 -498 282 -501Q277 -501 269 -494Q264 -490 261 -490Q260 -492 260 -495Q263 -505 270 -513Q270 -516 267 -516Q264 -516 264 -519Q238 -515 233 -513Q221 -509 204 -496Q189 -484 181 -481Q182 -490 190 -498Q199 -505 208 -513Q239 -538 239 -546Q239 -550 233 -552Q231 -553 226 -553Q213 -553 192 -538Q176 -527 169 -527Q177 -543 197 -550Q216 -557 218 -576Q218 -579 217 -582Q205 -582 196 -585Q206 -593 215 -602Q213 -619 197 -634Q179 -651 175 -662Q190 -649 210 -649Q226 -649 237 -659ZM888 -384V-389Q888 -406 901 -406Q905 -406 908 -405Q902 -390 888 -384ZM439 3V0Q462 0 464 12Q458 15 450 15Q439 15 439 3ZM721 -73V-72Q723 -79 732 -91Q739 -101 742 -109Q740 -108 736 -108Q720 -111 709 -120Q710 -106 721 -99Q718 -97 718 -91Q720 -82 721 -73ZM700 -128Q690 -134 664 -156Q648 -138 646 -115Q653 -118 672 -121Q692 -124 700 -128ZM595 -392V-388Q621 -392 682 -412Q678 -431 673 -446Q653 -442 626 -426Q595 -407 595 -392ZM677 -523V-531Q678 -545 678 -560Q678 -572 674 -579Q639 -563 618 -545Q618 -541 621 -537Q614 -530 608 -523Q600 -514 600 -507Q600 -502 603 -496Q642 -512 677 -523ZM600 -117Q603 -120 603 -123Q602 -129 600 -135Q604 -152 622 -177Q638 -200 643 -214Q639 -216 638 -216Q627 -211 616 -207Q619 -201 621 -195Q566 -168 565 -94Q569 -95 629 -114Q623 -119 614 -119Q610 -119 600 -117ZM740 -314H733Q719 -314 715 -321Q713 -313 712 -313Q708 -316 704 -330Q701 -339 697 -345Q685 -342 659 -334Q632 -327 623 -318V-316Q626 -301 629 -287Q629 -282 628 -280Q690 -291 758 -309Q753 -314 740 -314ZM752 -159V-153Q758 -150 764 -147Q786 -188 800 -243Q796 -245 795 -247Q769 -242 743 -239Q716 -237 693 -225Q703 -205 703 -198Q702 -194 697 -191Q690 -187 690 -183Q711 -176 724 -169Q735 -183 748 -191Q747 -186 745 -181Q745 -183 752 -183Q750 -181 745 -163H746Q750 -164 753 -166H754Q752 -165 752 -159ZM472 -32Q468 -23 467 -20Q458 -17 449 -10Q440 -3 433 -8Q436 -11 437 -11Q443 -15 449 -19Q451 -20 453 -22L452 -23Q445 -34 420 -17Q411 -8 414 -2Q417 2 423 0Q428 -1 430 0Q432 5 423 9Q418 12 413 15L407 19Q381 37 362 54Q356 58 352 56Q361 47 398 9Q381 7 362 16Q357 40 337 48Q329 50 319 58Q306 68 306 77Q306 83 310 82Q319 80 332 71Q343 66 346 65Q337 77 319 86Q303 94 286 87Q257 78 233 73Q231 73 229 70Q227 66 225 66H223Q206 66 192 75V74Q192 67 216 58Q209 44 209 27Q211 -13 222 -24L229 -25Q223 -29 217 -33L218 -34Q225 -34 228 -33Q233 -38 238 -74Q244 -123 256 -125Q256 -52 272 -38Q270 -140 276 -215Q270 -216 266 -200Q262 -183 262 -177Q257 -157 248 -139Q247 -144 247 -165Q246 -196 243 -227Q241 -257 246 -281Q218 -273 198 -249Q161 -235 141 -198Q129 -195 122 -195Q118 -195 110 -197Q100 -205 88 -230Q79 -249 74 -256Q68 -264 62 -273L61 -277Q63 -283 64 -289V-291Q63 -304 62 -318Q62 -322 63 -325Q58 -334 49 -341Q40 -348 35 -354Q37 -356 41 -356Q53 -351 63 -342Q61 -356 39 -372Q21 -385 16 -395Q29 -394 47 -378Q61 -365 70 -363Q71 -371 57 -380Q44 -388 42 -396Q59 -390 75 -379Q81 -376 84 -376H85Q89 -378 92 -381Q96 -383 108 -383Q116 -382 124 -382Q131 -382 133 -383Q151 -385 173 -394Q195 -403 203 -404Q207 -402 211 -401Q204 -393 182 -385Q159 -378 147 -373Q135 -368 133 -361Q133 -354 140 -348Q184 -363 205 -370Q225 -378 266 -400Q264 -404 257 -406Q244 -403 230 -400L226 -401Q228 -413 241 -413H243Q255 -423 269 -430Q274 -429 279 -429Q283 -429 287 -430Q292 -427 297 -425Q302 -427 313 -435Q323 -443 331 -445V-444Q327 -438 316 -430Q311 -423 311 -414Q311 -410 311 -407Q316 -408 324 -414Q334 -422 340 -423Q324 -410 324 -398Q324 -389 333 -385Q338 -388 344 -391H347L348 -390Q346 -386 343 -383L345 -380L347 -378Q350 -379 353 -380Q348 -375 348 -363Q349 -346 350 -330Q350 -323 348 -320H347Q343 -320 341 -324Q339 -327 338 -330Q326 -325 325 -312Q323 -299 317 -288Q316 -286 310 -282Q305 -278 303 -273Q305 -270 307 -267H312Q329 -268 335 -281Q341 -294 351 -305Q355 -298 354 -290Q354 -289 348 -262Q343 -257 337 -259Q321 -258 316 -232Q312 -207 314 -171Q322 -92 318 -52Q337 -63 356 -74Q365 -81 351 -103Q340 -120 337 -135Q341 -132 353 -116Q364 -102 371 -99Q374 -107 353 -139L375 -116L345 -173L386 -121L378 -144Q388 -130 393 -125Q377 -149 374 -159Q379 -158 384 -153Q389 -145 392 -137Q394 -134 396 -132Q408 -151 440 -184Q459 -203 459 -207Q455 -209 451 -209Q431 -204 410 -199Q470 -253 479 -260Q503 -284 529 -307Q526 -317 511 -328Q494 -340 492 -354V-357Q493 -364 493 -372V-377Q488 -399 483 -425Q483 -432 484 -435Q493 -435 497 -412Q500 -395 504 -390Q508 -405 508 -422Q508 -458 492 -493Q474 -537 462 -537Q460 -537 456 -535Q457 -528 467 -513Q474 -502 477 -496Q483 -482 483 -470Q483 -459 478 -453Q473 -468 465 -486Q458 -504 443 -506Q438 -506 428 -501Q428 -517 427 -534Q427 -620 452 -637Q459 -639 465 -642Q490 -657 517 -661Q524 -661 527 -660Q534 -658 542 -650Q553 -639 557 -636Q575 -656 625 -695Q678 -736 717 -774Q722 -775 735 -781Q752 -789 763 -789Q766 -789 776 -787L792 -766Q801 -770 809 -775Q807 -766 804 -758Q804 -756 806 -754Q812 -758 819 -767Q826 -775 838 -777Q829 -757 819 -738Q822 -732 825 -727Q837 -735 849 -735H853Q842 -732 840 -722V-720L842 -718Q847 -720 851 -722L854 -721Q844 -704 844 -701Q844 -695 850 -691Q843 -690 843 -682Q845 -672 846 -662Q846 -657 845 -655Q834 -648 822 -641Q811 -634 809 -618L810 -616Q813 -617 815 -619H816Q797 -590 797 -555Q787 -557 787 -580Q787 -590 789 -608Q791 -630 794 -639Q803 -655 808 -667Q808 -668 806 -672Q774 -656 767 -584Q765 -563 765 -454V-441Q765 -417 773 -404Q782 -424 782 -493V-496Q782 -504 781 -513Q781 -531 794 -532Q792 -498 792 -474Q792 -446 794 -398Q796 -366 796 -353Q796 -338 794 -330Q787 -329 781 -322Q776 -317 773 -315Q783 -315 807 -321Q826 -324 844 -327Q855 -330 865 -348Q874 -364 881 -367Q881 -359 875 -346Q869 -333 869 -327Q869 -322 872 -316L875 -315Q877 -315 879 -319Q882 -324 887 -324Q885 -316 885 -312Q888 -282 911 -279H912Q918 -279 925 -284Q934 -290 939 -290Q943 -290 945 -289Q925 -278 925 -264Q925 -260 926 -258L928 -257Q933 -259 938 -261Q939 -261 943 -259V-257Q943 -254 938 -250Q933 -246 933 -243Q937 -228 956 -225Q955 -222 955 -218Q958 -204 964 -191Q948 -186 933 -159Q931 -160 928 -160Q915 -158 906 -141Q896 -125 889 -123H888Q881 -124 881 -130Q881 -135 893 -155Q901 -167 900 -171Q897 -175 892 -175Q882 -175 872 -162Q867 -154 861 -132Q856 -112 850 -102Q835 -81 820 -60Q806 -33 797 -12Q791 3 775 33Q757 66 751 85Q773 73 787 47Q802 21 816 -7Q835 -44 854 -82Q868 -100 878 -100H880Q826 48 751 130H748Q736 129 723 128Q711 128 708 137Q699 125 690 114Q682 103 666 99Q653 76 616 71Q583 67 552 59Q560 57 578 57Q618 60 658 63Q636 45 592 44Q549 42 511 36Q527 32 547 32Q587 34 626 36H638Q606 29 548 25Q493 21 470 15Q478 14 493 14Q543 15 592 16H597Q649 16 664 4Q681 -13 697 -37Q691 -39 686 -39Q674 -37 662 -36V-39Q662 -46 681 -49Q694 -51 697 -54Q695 -61 685 -61Q679 -60 672 -60Q617 -55 610 -54Q572 -47 563 -33Q593 -37 622 -42Q630 -44 638 -44Q649 -44 649 -37Q544 -16 504 10Q490 6 484 -6Q477 -19 472 -32ZM458 -81Q469 -99 486 -134Q502 -168 510 -181Q498 -182 486 -184Q482 -187 481 -190Q480 -193 476 -193Q472 -191 451 -168Q429 -145 401 -124Q405 -118 406 -117Q413 -107 422 -100Q438 -93 458 -81Z"/>
</svg>