<svg xmlns="http://www.w3.org/2000/svg" viewBox="0 -800 1024 1024">
	<path fill="#000000" d="M820 -763V-756Q812 -755 804 -750L802 -753Q803 -757 804 -761V-762H806Q812 -763 817 -764ZM922 -385H926Q924 -382 922 -373Q920 -360 914 -359Q914 -367 913 -375Q913 -385 922 -385ZM635 -430H637Q642 -443 646 -457Q631 -456 621 -449Q610 -441 610 -430V-427Q611 -426 615 -426Q625 -428 635 -430ZM588 -202H587Q584 -200 580 -198H578Q576 -205 567 -214Q560 -220 558 -224V-226Q558 -228 563 -238Q556 -242 546 -244Q554 -252 563 -262Q572 -272 583 -273H587Q586 -269 580 -263Q573 -256 573 -251V-248Q607 -262 622 -282L618 -283Q608 -279 598 -276Q596 -276 594 -279Q594 -282 600 -287Q606 -292 606 -294Q606 -295 603 -298Q578 -287 561 -282Q530 -238 514 -181Q517 -182 522 -182Q529 -182 539 -177Q580 -188 597 -190Q593 -201 588 -202ZM726 -272V-268Q714 -279 705 -293Q696 -308 687 -322Q684 -319 678 -318Q685 -297 706 -264Q705 -245 700 -230Q684 -229 675 -228Q666 -227 658 -216Q661 -209 664 -202Q713 -219 755 -219Q738 -238 732 -258Q740 -257 748 -245Q755 -235 763 -233Q762 -257 746 -278Q735 -292 712 -310Q713 -301 719 -290Q726 -278 726 -272ZM825 65H824Q818 65 814 77Q808 78 801 78Q794 79 793 84Q764 77 739 59Q733 53 721 34Q708 14 700 5Q691 -4 682 -11Q673 -18 668 -32Q665 -30 665 -22Q666 -11 667 0V3Q659 1 659 -8Q658 -18 656 -26Q648 -15 648 10Q648 38 656 54Q664 53 665 37Q666 22 671 20Q679 31 679 46Q679 53 674 83Q666 84 662 95Q662 96 657 98Q651 100 650 105Q606 81 600 78Q586 46 586 10Q586 -7 591 -22Q542 2 514 23Q478 50 455 85Q446 89 435 89Q415 87 394 85H391Q391 80 395 80L397 81Q388 68 384 50Q384 45 385 43Q382 39 372 34Q365 31 361 27Q364 28 367 28Q376 27 385 26H388Q383 14 354 -1Q334 -12 326 -19Q338 -19 361 -7Q385 6 399 6H403Q410 5 419 -1Q430 -9 437 -9H441Q441 -4 432 6Q425 14 425 18Q425 21 428 24Q456 9 485 -8Q513 -24 533 -49Q519 -45 495 -31Q466 -14 449 -12Q452 -21 460 -25Q467 -30 475 -34Q496 -47 502 -54Q494 -57 486 -61Q484 -68 479 -84Q474 -100 467 -101Q461 -101 458 -86Q455 -71 450 -67Q446 -64 440 -64H434Q428 -64 424 -61Q414 -67 402 -85Q393 -99 388 -104Q388 -106 393 -115Q393 -119 389 -121Q384 -124 384 -127Q394 -128 403 -139Q397 -146 393 -154Q398 -162 411 -169Q423 -176 427 -180Q436 -194 443 -213Q453 -228 462 -244H446Q436 -258 421 -269Q406 -279 404 -300V-304Q409 -323 419 -340Q416 -350 416 -359Q419 -395 455 -400Q459 -403 462 -407Q464 -412 471 -412L475 -411V-410Q475 -406 467 -398Q458 -390 458 -383V-380Q461 -372 472 -372Q503 -377 525 -383H527Q524 -391 515 -391Q499 -388 483 -385Q479 -385 477 -386Q484 -395 497 -399Q510 -402 522 -406Q508 -412 491 -433Q474 -454 462 -460Q466 -465 481 -469L482 -471Q480 -475 478 -479V-480Q494 -488 518 -494Q541 -499 554 -514Q551 -516 545 -516Q533 -516 516 -505Q507 -517 474 -532Q443 -546 434 -562Q435 -575 435 -589Q419 -582 415 -546Q418 -540 420 -540L424 -541Q420 -533 415 -525Q409 -518 409 -506V-499Q389 -489 337 -471Q275 -450 246 -434Q249 -426 249 -420Q246 -404 242 -388Q243 -385 243 -383Q223 -373 221 -359Q231 -363 241 -367Q244 -367 246 -365Q244 -360 232 -353Q215 -344 213 -334Q251 -347 286 -365Q282 -369 276 -369Q265 -367 253 -365Q255 -377 277 -377Q274 -386 274 -392Q275 -408 285 -420Q295 -433 302 -445Q305 -445 308 -446Q317 -446 331 -440Q340 -436 345 -436Q351 -436 355 -439V-437Q355 -434 360 -424Q368 -433 378 -437V-436Q375 -425 372 -415Q372 -411 373 -409L376 -408H382Q381 -404 381 -393Q386 -377 407 -354Q409 -342 409 -337Q409 -316 398 -302Q387 -288 369 -288H364Q354 -292 344 -296Q319 -292 299 -280Q272 -269 262 -259Q273 -244 283 -230Q289 -242 324 -244Q351 -246 360 -253V-252Q357 -245 354 -238Q354 -233 360 -230Q368 -233 375 -236Q365 -219 361 -213Q365 -202 372 -201Q364 -190 364 -177Q364 -168 366 -163Q331 -152 300 -139Q268 -125 258 -91Q304 -102 354 -133Q363 -140 370 -151Q376 -162 391 -163Q379 -150 379 -132Q379 -120 386 -97Q394 -71 394 -60Q394 -45 384 -32Q324 -30 286 -15Q251 2 210 12Q229 -9 260 -18Q291 -28 320 -38Q317 -39 311 -39Q303 -39 274 -31Q190 -6 156 26Q159 29 162 29Q165 29 172 25Q181 20 188 20Q192 20 194 21Q181 31 169 42Q157 53 151 71H147Q132 71 106 58Q89 50 78 47Q77 24 76 1Q76 -46 105 -51Q108 -51 111 -46Q114 -42 117 -42Q159 -54 201 -67V-82Q179 -82 173 -67Q171 -68 168 -68Q161 -66 153 -61Q109 -76 103 -120Q103 -135 113 -148Q109 -157 104 -167Q117 -175 151 -183Q186 -191 201 -199Q199 -217 190 -222Q171 -219 156 -196Q119 -204 102 -214Q76 -229 76 -255Q76 -265 78 -271Q76 -276 69 -283Q60 -293 58 -299Q117 -316 148 -382H146Q141 -382 129 -374Q116 -365 107 -365Q88 -369 77 -383Q53 -411 45 -440Q43 -456 43 -464Q43 -563 200 -571Q194 -565 180 -559Q163 -552 159 -544Q165 -541 170 -541Q173 -541 203 -550Q266 -574 326 -603Q302 -602 267 -589Q235 -577 216 -575Q251 -598 329 -624Q351 -634 370 -636Q374 -636 382 -634Q395 -637 416 -648Q430 -655 437 -658Q428 -648 415 -642Q403 -635 400 -618Q415 -623 430 -628Q412 -613 412 -601Q412 -595 418 -589Q424 -591 430 -594Q431 -594 435 -592Q443 -604 447 -620Q452 -637 457 -652Q464 -679 493 -685Q495 -684 495 -679V-672Q531 -687 558 -687Q551 -701 551 -707V-708Q551 -743 580 -769Q608 -794 647 -794Q658 -794 664 -793Q681 -766 693 -736Q714 -743 738 -754Q736 -748 736 -743Q736 -738 739 -734Q749 -734 762 -741Q775 -748 783 -748Q787 -748 790 -747Q784 -742 777 -737Q770 -733 767 -724L770 -718Q777 -720 783 -723Q786 -723 788 -722Q777 -717 777 -702Q777 -687 791 -682Q789 -678 789 -675Q789 -668 794 -661Q785 -656 785 -632V-624Q776 -623 771 -608Q767 -598 764 -595Q762 -595 733 -590Q736 -599 744 -603Q752 -607 758 -612Q753 -613 742 -613Q720 -613 686 -601Q665 -594 663 -593Q652 -587 652 -577Q677 -587 705 -591Q715 -591 720 -589Q706 -582 683 -576Q660 -569 652 -549Q662 -551 681 -559Q710 -571 727 -572Q723 -570 721 -566V-563Q724 -558 725 -558Q731 -560 737 -562H738Q735 -558 735 -547Q737 -527 738 -507Q738 -498 735 -489Q706 -474 671 -466Q692 -460 706 -449Q761 -466 806 -490Q809 -487 811 -484V-483Q833 -495 873 -506Q862 -499 849 -493Q837 -487 834 -472Q837 -468 840 -465Q850 -468 860 -472Q863 -472 865 -471Q863 -465 858 -463Q852 -460 850 -454Q852 -444 863 -444Q866 -444 868 -445Q867 -442 867 -435Q867 -428 873 -412Q877 -402 877 -395V-394Q876 -389 861 -374Q833 -356 798 -342Q849 -286 864 -273Q878 -259 888 -259H891Q891 -268 892 -280Q894 -293 902 -296Q903 -295 903 -290Q903 -277 902 -265Q902 -256 903 -253Q907 -264 908 -295Q909 -329 915 -340Q916 -329 916 -304V-289Q916 -238 926 -217Q929 -259 929 -304Q937 -296 937 -279Q937 -263 938 -247Q948 -185 948 -184Q959 -149 963 -127Q963 -121 957 -108Q951 -94 951 -85Q951 -79 952 -76Q940 -71 930 -66Q920 -61 917 -48Q912 -52 906 -52Q900 -51 894 -51H890Q884 -52 874 -61Q861 -72 852 -72Q849 -72 843 -70Q823 -108 819 -123Q835 -113 847 -98Q858 -84 881 -81Q853 -145 801 -169V-168Q801 -159 808 -149Q814 -140 814 -136V-133Q812 -131 810 -130Q802 -135 798 -142Q794 -150 788 -157Q784 -148 781 -147Q782 -139 782 -131V-126Q769 -125 756 -124Q747 -124 745 -126Q747 -128 769 -136Q766 -144 754 -144Q750 -144 720 -138Q708 -137 705 -136Q698 -134 698 -127Q701 -126 703 -126Q715 -127 727 -129Q730 -129 736 -127Q731 -122 713 -120Q697 -118 692 -114Q720 -82 760 -60Q764 -62 766 -62Q773 -61 779 -61H782Q786 -63 789 -73Q792 -85 800 -85V-81Q799 -68 798 -55Q798 -48 801 -42Q803 -43 806 -47Q810 -53 812 -53L813 -52Q817 -10 829 0Q825 10 825 37Z"/>
</svg>