<svg xmlns="http://www.w3.org/2000/svg" viewBox="0 -800 1024 1024">
	<path fill="#000000" d="M736 -243Q736 -249 735 -251Q691 -243 642 -226Q583 -205 563 -184L566 -173Q644 -192 718 -222Q723 -221 728 -220H733Q736 -241 736 -243ZM749 -358Q749 -363 746 -366Q709 -359 662 -341Q615 -323 584 -310Q583 -302 581 -294L582 -290Q658 -312 726 -335Q728 -332 730 -329H732Q739 -330 746 -332Q746 -334 745 -337Q747 -347 749 -358ZM461 -43Q457 -32 452 -21Q443 -18 434 -11Q425 -4 418 -9Q421 -12 422 -12Q428 -16 434 -20Q436 -21 438 -23L437 -24Q430 -35 406 -18Q396 -10 400 -3Q403 1 409 -1Q414 -2 416 -1Q417 4 409 8Q404 11 399 14L393 18Q370 36 355 54Q348 58 345 56Q360 38 384 8Q377 4 365 13Q349 40 330 48Q322 50 312 58Q300 68 299 77Q300 84 307 82Q315 78 325 71Q332 68 339 65Q330 77 312 86Q298 95 280 87Q252 78 229 73Q227 73 225 70Q223 67 221 66H219Q202 66 188 75V74Q189 67 212 58Q205 44 205 27Q205 -11 218 -24L224 -25Q218 -29 212 -33L213 -34Q220 -34 224 -33Q229 -38 233 -73Q239 -123 251 -125Q251 -51 267 -38Q263 -140 270 -215Q264 -218 256 -177Q254 -161 243 -139Q242 -144 242 -165Q241 -196 238 -227Q236 -257 241 -281Q214 -273 194 -249Q166 -241 148 -204Q136 -201 129 -201Q126 -201 118 -203Q106 -213 99 -230Q92 -247 83 -262Q74 -272 71 -279L70 -283Q72 -289 73 -295V-297Q72 -310 71 -324Q71 -328 72 -331Q68 -339 56 -349Q47 -357 45 -360Q46 -362 50 -362Q62 -357 72 -348Q70 -362 48 -378Q31 -391 26 -401Q39 -400 56 -384Q70 -371 79 -369Q79 -377 66 -386Q53 -394 51 -402Q68 -396 83 -385Q89 -382 92 -382H93Q97 -384 100 -387Q104 -389 116 -389Q124 -388 131 -388Q138 -388 140 -389Q158 -391 180 -402Q201 -413 208 -414Q213 -412 217 -411Q210 -403 188 -395Q166 -388 153 -383Q141 -376 141 -367Q140 -360 147 -354Q189 -368 205 -373Q221 -378 261 -400Q259 -404 252 -406Q239 -403 225 -400L222 -401Q224 -413 236 -413H238Q250 -423 263 -430Q268 -429 274 -429Q278 -429 281 -430H282Q287 -427 291 -425Q308 -436 324 -445V-444Q321 -438 310 -430Q304 -424 304 -414Q304 -410 305 -407Q310 -408 318 -414Q328 -422 333 -423Q318 -410 318 -398Q318 -389 326 -385Q331 -388 337 -391H340L341 -390Q339 -386 337 -383L338 -380L340 -378Q343 -379 346 -380Q341 -375 341 -363Q342 -346 343 -330Q343 -323 341 -320H340Q336 -320 335 -324Q333 -327 331 -330Q321 -327 317 -307Q314 -294 310 -288Q303 -281 297 -273Q299 -270 301 -267H305Q322 -268 328 -281Q334 -294 344 -305Q347 -300 347 -290Q347 -289 341 -262Q336 -257 330 -259Q314 -258 310 -232Q307 -207 309 -171Q316 -92 312 -52Q327 -63 343 -75Q352 -82 338 -104Q328 -121 325 -136Q332 -129 340 -117Q348 -105 358 -100Q360 -108 340 -140L362 -117L332 -174L372 -122L365 -145Q376 -130 379 -126Q366 -143 361 -160Q367 -158 370 -154Q375 -146 378 -138Q385 -128 392 -118Q401 -106 408 -101Q428 -87 439 -74Q442 -71 444 -69Q448 -62 452 -55Q455 -49 461 -43ZM591 33H587Q572 33 563 24Q566 18 571 18Q586 20 591 33ZM154 -537Q145 -524 132 -523V-526Q132 -538 148 -538Q152 -538 154 -537ZM403 -546Q403 -520 392 -507Q391 -506 373 -493Q363 -483 354 -478Q346 -476 342 -476Q329 -476 304 -497Q284 -514 272 -517Q267 -517 259 -510Q255 -506 252 -506Q251 -508 251 -511Q251 -514 260 -529Q258 -532 255 -535Q229 -531 224 -529Q215 -526 197 -512Q183 -501 173 -497Q174 -506 182 -514Q191 -521 200 -529Q205 -533 217 -543Q229 -554 230 -562Q230 -566 224 -568Q222 -569 217 -569Q206 -569 185 -554Q169 -543 161 -543Q165 -554 188 -566Q209 -577 209 -592Q209 -595 208 -598Q197 -598 188 -601Q198 -609 207 -618Q205 -635 189 -650Q171 -667 167 -678Q182 -665 202 -665Q217 -665 228 -675V-679Q228 -685 227 -691L228 -695H230Q237 -693 242 -689Q258 -696 276 -699Q294 -702 303 -716Q308 -714 312 -705Q315 -697 318 -694Q326 -689 333 -685Q345 -672 354 -658Q356 -658 359 -663Q362 -668 367 -668L370 -667Q368 -661 368 -650Q374 -616 395 -597Q403 -571 403 -546ZM941 -549Q941 -542 939 -530Q919 -521 911 -521H908Q908 -526 917 -533Q926 -540 927 -547V-550Q924 -570 908 -572Q901 -571 898 -564Q895 -557 891 -550Q880 -538 862 -528Q843 -517 841 -502Q844 -501 846 -501Q851 -501 865 -508Q879 -515 887 -515H888V-513Q887 -509 881 -506Q874 -503 869 -499Q857 -491 845 -483Q848 -475 864 -469Q879 -463 885 -459Q888 -460 895 -467Q903 -475 908 -475L912 -474Q912 -470 904 -462Q893 -450 893 -443Q893 -440 894 -438Q896 -436 898 -436Q900 -436 903 -439Q908 -443 911 -443H914Q910 -436 908 -429V-424Q912 -401 915 -378Q912 -369 909 -360Q909 -359 911 -355Q888 -348 879 -328Q869 -308 860 -288Q854 -288 854 -293Q854 -297 859 -307Q859 -308 853 -314Q834 -303 826 -245Q815 -192 811 -128Q811 -86 826 -60Q835 -64 835 -78Q834 -90 833 -103V-115Q833 -202 851 -241Q844 -139 844 -43Q845 -37 845 -32Q845 -27 841 -24Q836 -26 834 -37Q832 -47 826 -48H825Q816 -48 816 -28Q820 19 832 30Q840 30 840 21V11Q840 3 844 1Q850 1 850 11V16Q855 24 855 31Q853 46 844 60Q843 73 841 86Q835 92 829 98Q821 110 813 121Q809 126 801 131Q793 136 791 140Q770 131 748 122Q726 112 712 96Q707 89 703 79Q699 70 690 66Q661 57 604 32Q642 39 685 42Q672 37 639 29Q588 17 568 4H573Q588 4 621 14Q657 25 676 25Q684 25 688 24Q669 11 638 1Q642 0 650 0Q667 1 684 2Q705 2 712 -9Q714 -24 717 -57Q721 -104 726 -125Q688 -121 644 -109Q592 -94 573 -77Q571 -75 571 -69Q574 -55 576 -42V-40Q574 -27 565 -13Q555 2 543 2Q536 2 529 -5Q525 -3 518 -3Q497 -3 474 -41L471 -53Q478 -66 478 -76Q478 -85 477 -102V-116Q473 -145 468 -175Q468 -184 471 -190Q476 -181 480 -150Q484 -121 491 -109Q501 -125 501 -146Q501 -157 489 -215Q487 -230 485 -245Q483 -260 474 -269Q468 -268 468 -256V-240Q468 -230 465 -228H463Q457 -229 456 -236Q456 -243 455 -250Q451 -261 447 -272V-287Q446 -294 436 -307Q428 -318 427 -325L443 -395Q460 -408 479 -425Q495 -415 511 -415Q531 -416 559 -428Q587 -440 611 -447Q607 -462 593 -465Q596 -478 596 -493Q594 -530 591 -568Q591 -582 594 -596Q602 -587 602 -562V-535Q602 -508 612 -499Q621 -503 621 -537Q621 -616 618 -642Q615 -664 605 -672Q597 -671 597 -658Q596 -645 596 -638Q585 -642 585 -656Q585 -669 583 -681Q580 -693 571 -707Q557 -729 557 -744V-746Q601 -761 640 -794H644Q654 -794 658 -792Q677 -781 699 -744Q715 -717 726 -707Q725 -705 725 -702Q728 -691 730 -680Q730 -677 729 -675Q727 -671 720 -665Q714 -660 712 -657Q696 -635 691 -573Q688 -541 688 -473Q691 -472 693 -472Q701 -476 709 -480H720Q731 -516 745 -575Q754 -613 754 -618Q754 -629 741 -640Q732 -648 729 -654Q772 -667 814 -681Q838 -694 859 -698H860Q872 -695 879 -682Q886 -670 894 -660H896Q900 -661 903 -662H905V-651Q913 -654 921 -657L925 -656V-655Q922 -644 918 -634Q936 -597 941 -549ZM429 -586Q425 -584 422 -584Q410 -584 410 -595H414Q428 -595 429 -586ZM581 -496Q581 -484 575 -473Q568 -460 556 -456Q553 -455 549 -455Q537 -458 524 -461H519Q513 -460 510 -454Q507 -448 503 -446Q504 -448 504 -454V-464Q481 -496 458 -509V-512Q458 -531 435 -549Q437 -555 442 -558V-562Q439 -576 432 -585H434Q440 -584 445 -584H447Q453 -590 453 -602Q450 -624 447 -647V-650Q453 -649 458 -633Q463 -618 467 -615Q468 -623 471 -630Q478 -624 493 -617Q515 -607 522 -597Q544 -608 545 -609Q545 -604 544 -600Q544 -582 562 -551Q581 -518 581 -496Z"/>
</svg>