<svg xmlns="http://www.w3.org/2000/svg" viewBox="0 -800 1024 1024">
	<path fill="#000000" d="M452 -4V-1Q449 -4 439 -4H431Q430 -6 430 -11V-20Q437 -18 444 -16Q451 -13 452 -4ZM893 -773Q885 -760 871 -757Q869 -761 869 -763Q871 -776 884 -778Q890 -778 893 -773ZM926 -504V-501Q927 -497 927 -494Q917 -487 906 -487H902Q906 -505 919 -505Q924 -505 926 -504ZM399 -655H394V-658Q394 -673 410 -673Q413 -673 421 -671Q421 -666 424 -662Q408 -655 399 -655ZM502 -115V-119Q502 -126 508 -127Q514 -129 520 -131Q503 -135 485 -140Q479 -140 473 -137Q472 -133 472 -125Q472 -115 475 -108Q489 -111 502 -115ZM408 -206H406Q387 -205 378 -190Q388 -175 400 -167Q407 -170 413 -171Q413 -188 408 -206ZM390 -487Q387 -502 380 -514Q371 -529 361 -529Q352 -529 344 -515Q355 -496 360 -481Q380 -481 390 -487ZM510 -245H506Q489 -245 472 -234Q469 -204 469 -203Q469 -194 472 -187Q489 -190 499 -211Q500 -213 510 -245ZM403 -268Q399 -284 394 -293Q352 -281 311 -245Q315 -244 324 -244Q345 -245 364 -252Q383 -260 403 -268ZM484 -507H486Q486 -517 492 -539Q497 -558 497 -567Q497 -573 496 -575Q493 -586 484 -586Q471 -586 446 -567L473 -504H475Q480 -505 484 -507ZM538 -61H532Q520 -61 483 -53Q460 -47 436 -41Q486 -21 556 -18Q545 -31 526 -35Q506 -39 496 -45Q510 -42 528 -42Q550 -42 560 -39Q567 -44 576 -49Q585 -54 587 -61Q575 -54 560 -51Q557 -51 554 -52Q546 -56 538 -61ZM594 -523Q607 -542 640 -580Q679 -624 695 -653Q690 -653 685 -654Q640 -652 606 -627Q604 -628 600 -628Q589 -628 575 -616Q588 -615 594 -608Q608 -615 610 -615Q614 -615 615 -614Q599 -605 599 -596L600 -592L601 -591Q604 -592 607 -594L609 -592Q606 -587 606 -572Q565 -561 559 -523Q565 -526 573 -526Q584 -524 594 -523ZM642 -432Q603 -453 552 -453Q488 -453 387 -416Q388 -409 395 -399Q402 -388 403 -380Q483 -402 517 -410Q586 -427 642 -432ZM578 -109V-107Q585 -101 593 -95Q601 -89 602 -76Q645 -140 675 -217Q705 -295 735 -371Q728 -371 720 -372Q679 -372 603 -352Q515 -331 484 -316Q489 -311 495 -299Q492 -298 489 -297Q486 -296 486 -292V-291Q556 -310 584 -332Q584 -325 585 -323Q597 -319 602 -319Q605 -319 608 -320Q617 -309 629 -300Q641 -292 642 -272Q650 -267 652 -240Q629 -225 605 -212Q592 -202 573 -174Q553 -144 538 -134Q536 -134 533 -135Q528 -135 525 -130H530Q548 -130 554 -121Q567 -126 570 -126Q573 -126 575 -125Q572 -116 572 -115H574Q578 -115 578 -109ZM596 99V96Q597 91 597 86V84Q552 25 501 11Q491 9 479 7Q468 4 463 -7L541 5Q524 -5 480 -17Q442 -27 425 -36Q398 -31 390 -30Q395 -43 409 -46Q423 -50 437 -53Q471 -63 484 -74Q479 -75 469 -75Q429 -72 390 -52Q366 -43 346 -36Q327 -29 313 -11Q317 -7 324 -7Q331 -7 344 -14Q361 -23 368 -23Q374 -23 378 -20Q376 -18 351 -6Q334 2 332 16Q319 23 306 23Q288 22 272 13Q256 3 242 -5Q240 -15 240 -23Q240 -35 243 -41Q243 -44 238 -48Q234 -51 233 -56Q242 -76 268 -87Q282 -93 317 -99Q311 -95 304 -91Q296 -88 295 -77H298Q346 -81 399 -95H408Q415 -95 419 -99V-121H417Q411 -121 410 -117Q408 -114 406 -110Q391 -105 379 -105Q365 -105 347 -110Q339 -111 332 -112Q325 -114 323 -121Q328 -124 333 -124Q346 -122 358 -120Q362 -120 366 -122Q303 -157 288 -168Q287 -166 287 -162Q287 -155 298 -146Q310 -137 310 -127Q299 -130 283 -142Q269 -152 261 -156V-159Q260 -176 259 -194Q259 -212 266 -218Q262 -219 254 -224Q242 -231 236 -231Q233 -231 231 -230Q222 -248 212 -257Q180 -254 160 -247Q160 -260 146 -260Q143 -260 122 -254Q125 -259 136 -265Q145 -270 148 -275Q131 -274 110 -264Q90 -254 79 -253V-255Q79 -258 89 -266Q117 -284 147 -300Q165 -313 182 -327Q200 -341 222 -346Q215 -333 195 -317Q177 -302 171 -294Q194 -298 236 -328Q269 -350 294 -375Q288 -378 282 -378Q273 -378 258 -369Q243 -360 236 -360H233Q242 -374 256 -383Q270 -393 283 -404Q269 -416 256 -427Q243 -439 236 -457Q245 -456 257 -446Q265 -439 273 -437Q278 -439 282 -441Q270 -473 237 -501Q204 -530 174 -530Q166 -530 162 -529V-524Q162 -513 172 -506Q175 -503 193 -496Q224 -483 224 -461Q191 -478 157 -495Q123 -511 107 -545Q109 -551 109 -552Q106 -564 103 -576Q103 -597 131 -610Q127 -644 123 -661Q129 -658 133 -647Q138 -633 147 -632Q143 -650 139 -668Q139 -674 142 -679Q147 -670 150 -661Q153 -652 162 -648Q165 -649 165 -653Q164 -659 163 -665Q173 -660 183 -656Q195 -667 214 -667H240Q251 -668 262 -670H264Q276 -668 294 -654Q308 -642 317 -641H322Q330 -641 344 -646Q358 -651 365 -651H368L369 -647Q369 -639 354 -633Q339 -627 337 -620Q342 -612 352 -612Q354 -612 378 -619Q396 -626 432 -645Q468 -664 487 -671L566 -701Q585 -707 606 -712Q626 -718 640 -733Q577 -725 487 -692Q465 -680 441 -677H439Q457 -696 486 -706Q515 -715 544 -727Q603 -748 659 -758Q681 -764 703 -774Q724 -784 751 -785H758Q782 -783 805 -772Q812 -769 846 -748Q853 -750 859 -753Q862 -752 864 -752Q856 -744 856 -737Q856 -730 865 -727Q878 -730 890 -733H893L895 -731Q891 -727 887 -718V-717Q897 -721 910 -728Q922 -735 940 -736H944Q933 -726 920 -720Q906 -713 904 -695L907 -694Q912 -697 922 -701H924Q911 -681 911 -665Q911 -651 924 -642Q922 -630 922 -623V-617Q917 -611 912 -606Q907 -600 907 -590H902Q890 -590 874 -585Q858 -580 851 -580Q848 -580 844 -581Q844 -590 865 -599Q889 -609 889 -622Q889 -627 886 -635Q883 -635 879 -636Q859 -636 846 -619H838Q799 -616 779 -581Q758 -545 738 -516Q749 -520 764 -537Q783 -558 798 -558H800Q805 -559 811 -563Q823 -570 827 -570Q832 -570 835 -567Q826 -560 808 -549Q785 -535 776 -526Q749 -500 722 -452Q737 -457 763 -457Q782 -460 800 -464Q810 -464 822 -458Q831 -464 841 -467Q844 -467 846 -466L849 -464Q847 -461 845 -459L846 -457Q864 -472 890 -479Q880 -472 869 -462Q858 -453 857 -440Q857 -435 858 -432Q866 -448 883 -451Q878 -438 878 -426Q878 -412 887 -407Q890 -411 891 -415Q893 -419 897 -419H899Q895 -411 895 -403Q895 -394 905 -376Q914 -360 914 -350Q914 -338 897 -317Q882 -299 871 -290Q851 -278 830 -266V-269Q830 -285 853 -302Q871 -315 871 -325Q871 -331 867 -338Q813 -322 775 -245Q733 -159 732 -93Q746 -112 765 -156Q793 -222 819 -242V-240Q815 -216 796 -188Q757 -108 746 -70Q743 -51 735 -47Q730 -49 730 -60Q730 -70 726 -73Q715 -64 708 -38Q703 -18 703 -9Q703 2 708 7Q709 6 719 -16Q725 -29 737 -30Q727 -13 724 10Q721 34 717 56Q699 61 686 77Q674 93 661 107Q637 95 618 95Q610 95 596 99Z"/>
</svg>