<svg xmlns="http://www.w3.org/2000/svg" viewBox="0 -800 1024 1024">
	<path fill="#000000" d="M478 -34H474Q465 -34 457 -40Q459 -44 460 -48Q469 -45 478 -43ZM744 -136H741Q730 -136 730 -151Q730 -167 740 -167L743 -166Q744 -164 744 -158Q744 -150 743 -142Q743 -138 744 -136ZM554 -177V-180Q552 -175 545 -169Q533 -158 533 -151Q533 -146 536 -142Q553 -151 554 -177ZM579 -103H576Q557 -102 549 -91Q540 -80 533 -69L529 -71Q522 -67 514 -64H512Q492 -65 485 -84H475Q470 -94 466 -104Q461 -115 450 -120Q449 -129 443 -145Q435 -166 435 -177V-183Q438 -203 470 -235V-232Q468 -222 466 -213V-211Q472 -208 478 -208Q485 -208 498 -217Q510 -226 517 -229Q540 -238 561 -249Q571 -255 580 -259H582Q595 -256 607 -249Q612 -256 621 -259H623Q616 -243 616 -238L618 -235Q621 -236 623 -237L625 -236V-222Q637 -209 637 -195Q637 -178 613 -147Q592 -120 589 -108L586 -109Q583 -107 579 -103ZM372 60H369Q363 59 351 46Q340 34 329 34Q324 34 322 35Q321 23 311 16Q301 8 290 2V-10Q285 -14 281 -20Q277 -27 268 -28Q270 -36 278 -39Q275 -45 275 -49Q276 -58 281 -64Q286 -70 290 -76Q294 -85 297 -102Q302 -127 308 -136Q277 -126 255 -104Q233 -82 210 -61Q185 -41 133 15Q120 2 108 0Q102 -6 97 -11Q92 -17 83 -19Q77 -47 74 -72Q78 -81 84 -99V-100Q83 -104 81 -109Q83 -117 85 -125Q85 -128 83 -132Q80 -136 75 -137Q68 -139 66 -142Q70 -143 80 -147Q98 -164 122 -217Q145 -267 167 -283Q169 -279 169 -277Q167 -268 160 -261Q135 -229 122 -186L121 -183Q128 -187 133 -204Q139 -225 151 -226Q150 -218 145 -205Q139 -189 139 -177V-171Q150 -174 165 -184Q187 -199 206 -199H210Q198 -189 182 -178Q166 -167 164 -149Q164 -143 167 -136Q209 -165 251 -194Q292 -223 328 -258Q320 -260 316 -260Q303 -260 285 -246Q269 -234 260 -232Q265 -249 279 -258Q293 -268 306 -276Q315 -283 329 -299Q345 -318 354 -324H371Q412 -324 419 -304Q421 -271 437 -253Q434 -250 434 -246Q436 -238 437 -230Q436 -218 428 -209Q426 -207 413 -195Q385 -195 372 -187Q411 -136 411 -89Q411 -82 410 -75Q404 -79 400 -96Q395 -116 386 -120Q381 -111 381 -93Q382 -78 382 -64V-57Q380 -36 378 -15Q378 1 385 9Q399 6 403 -12Q407 -30 411 -46Q423 -38 423 -23Q423 -10 409 19Q397 43 396 54Q384 57 372 60ZM435 -344V-340Q431 -339 422 -332Q411 -324 404 -324H403Q394 -324 377 -335Q363 -344 354 -345Q353 -358 343 -362Q333 -366 325 -371Q320 -369 304 -365Q287 -361 280 -354Q272 -345 268 -333Q264 -320 250 -316Q231 -319 209 -339Q187 -359 169 -362Q166 -366 159 -369Q153 -372 151 -374Q143 -384 143 -407Q143 -413 145 -421Q146 -424 151 -432Q157 -441 157 -447Q153 -459 148 -471V-472Q148 -490 170 -528Q176 -537 192 -553Q197 -560 202 -567Q207 -574 214 -574L215 -571Q211 -561 206 -552Q207 -549 207 -547Q205 -533 202 -519Q202 -507 214 -503Q237 -511 260 -518Q283 -526 300 -540Q296 -549 290 -553H287Q268 -549 248 -546H243Q245 -555 262 -561Q274 -565 278 -569Q272 -587 272 -604Q272 -620 278 -634Q285 -637 291 -652Q297 -667 302 -670Q305 -669 305 -660Q305 -650 311 -650Q314 -652 314 -658Q314 -664 317 -664H318Q324 -662 325 -655Q326 -649 328 -644Q342 -641 353 -617Q362 -596 372 -592Q377 -597 382 -597Q394 -597 401 -586Q406 -586 411 -590Q417 -594 421 -594H423V-592Q423 -590 417 -575Q418 -566 426 -561Q433 -556 438 -550Q444 -539 450 -529Q464 -518 466 -502Q468 -494 470 -487V-486Q468 -476 466 -466Q466 -460 470 -456Q459 -451 459 -436Q460 -431 460 -427Q445 -416 440 -414Q441 -410 441 -403Q438 -373 435 -344ZM669 118H663Q654 98 638 87Q622 75 608 62Q610 51 611 40Q605 32 593 27Q601 26 605 23Q599 8 581 4Q563 0 548 -6Q553 -10 562 -10Q581 -6 599 -3H601Q583 -12 561 -16Q538 -20 515 -26Q495 -31 493 -39Q501 -41 505 -41Q514 -41 533 -36Q556 -30 569 -30Q576 -30 580 -31Q549 -40 521 -45Q493 -50 465 -63Q469 -64 476 -64Q486 -64 511 -56Q528 -51 540 -49Q547 -48 553 -48Q586 -48 647 -73Q651 -113 652 -200Q653 -270 654 -296Q652 -297 647 -297Q627 -293 608 -282Q585 -274 561 -267Q547 -260 535 -251Q523 -242 506 -238Q474 -261 446 -274Q447 -278 447 -286Q444 -308 441 -331Q441 -335 443 -343Q444 -347 454 -354Q460 -358 463 -362Q465 -365 468 -375Q472 -387 478 -391Q484 -384 491 -381Q506 -387 520 -393Q517 -410 514 -427H511Q505 -427 499 -428H496Q503 -437 514 -440V-446Q515 -460 515 -474V-480Q506 -483 497 -496V-497Q497 -504 487 -517Q478 -528 478 -535Q478 -541 485 -547Q483 -560 473 -564Q463 -568 456 -575Q474 -579 487 -589Q500 -599 514 -607H518Q559 -607 581 -637Q602 -666 602 -714V-724Q594 -723 587 -714Q580 -705 574 -704Q574 -715 580 -720Q586 -726 592 -732Q590 -733 585 -733Q573 -733 560 -710Q551 -695 546 -693Q543 -696 543 -699Q546 -709 552 -716Q564 -740 582 -755Q600 -771 620 -790Q627 -798 632 -804Q638 -811 647 -816Q719 -808 723 -775L720 -774Q712 -777 703 -781Q701 -781 697 -779L696 -776Q700 -768 708 -759Q718 -743 718 -727Q718 -721 713 -711Q707 -700 707 -696Q707 -689 714 -685Q716 -689 728 -700Q749 -719 750 -727V-730Q746 -743 741 -756V-760H746Q761 -759 765 -748Q769 -737 773 -726Q765 -714 750 -701Q736 -689 734 -674Q734 -669 737 -663Q749 -665 753 -665Q763 -665 768 -660Q781 -663 798 -673Q818 -685 830 -687Q823 -678 813 -672Q803 -666 802 -651V-649H805Q817 -652 829 -655Q833 -655 835 -654Q833 -652 827 -648Q819 -643 817 -638Q818 -635 818 -630Q818 -625 813 -618Q819 -595 821 -569Q821 -560 820 -556Q817 -545 814 -535Q814 -530 816 -528Q801 -513 801 -504V-503Q758 -496 706 -484Q686 -481 638 -460Q635 -452 631 -434Q651 -436 681 -445Q722 -457 741 -457H744Q731 -448 692 -435Q667 -426 653 -420Q641 -415 632 -411Q623 -406 620 -394Q623 -392 630 -392Q650 -395 669 -403Q709 -412 751 -424Q792 -435 820 -460Q818 -465 810 -465Q798 -463 786 -461Q782 -461 780 -462Q782 -472 788 -477Q795 -481 805 -481Q810 -480 814 -480Q818 -480 821 -481Q829 -484 834 -494Q838 -503 844 -505Q843 -500 843 -489Q843 -480 845 -477Q866 -481 887 -486Q894 -486 900 -483Q893 -480 886 -476Q879 -472 879 -462V-457Q880 -453 886 -452Q888 -452 890 -454V-453Q886 -448 878 -443Q885 -436 885 -427V-424Q892 -428 903 -428Q909 -428 912 -427Q911 -421 898 -418Q887 -415 885 -409Q888 -398 899 -393Q890 -386 890 -376Q890 -371 891 -368L887 -369Q882 -369 875 -361Q868 -353 863 -351Q855 -348 833 -348Q808 -348 798 -343Q792 -339 788 -333Q785 -331 779 -329Q772 -327 771 -322V-319Q774 -310 782 -302Q758 -286 753 -252Q749 -217 738 -187Q736 -192 736 -204V-217Q736 -232 730 -238Q713 -209 713 -143V-113Q713 -90 712 -79V-73Q712 -59 719 -32Q723 -15 724 -3V4Q723 20 722 35Q722 47 727 54H728Q736 54 741 30Q749 6 749 0Q749 -9 741 -30Q732 -55 732 -69Q732 -84 740 -95Q741 -93 749 -54Q760 -24 764 2Q764 13 756 37Q748 61 748 75Q748 82 749 86Q743 100 730 107Q715 114 706 127Q689 120 669 118Z"/>
</svg>