<svg xmlns="http://www.w3.org/2000/svg" viewBox="0 -800 1024 1024">
	<path fill="#000000" d="M790 -692V-695Q790 -706 800 -706Q805 -706 806 -700Q798 -696 790 -692ZM79 -67V-70Q91 -69 94 -57Q93 -56 89 -56Q79 -56 79 -67ZM820 -101V-99Q810 -102 808 -124Q817 -127 818 -127Q821 -125 821 -118Q821 -109 820 -101ZM553 -289V-290Q499 -283 473 -273Q439 -260 415 -232Q482 -242 541 -259Q548 -278 553 -289ZM879 74V75Q870 96 852 113Q842 120 832 127Q805 118 800 118Q797 118 789 120Q775 109 771 107Q759 100 747 100H744Q741 84 716 70Q697 59 691 50Q695 49 702 49Q714 49 733 63Q749 75 761 75Q768 75 771 74Q751 50 722 37Q693 25 664 12L549 -42Q569 -22 596 -7Q622 8 648 23Q656 27 666 33Q675 38 676 49Q628 28 564 -11Q535 -25 505 -41Q476 -56 466 -83Q464 -88 464 -96Q464 -121 500 -121Q532 -121 553 -106Q585 -119 609 -140Q634 -160 659 -180Q654 -185 654 -193Q654 -195 656 -201Q666 -206 696 -206Q715 -206 724 -208Q738 -192 752 -177Q757 -178 762 -180Q764 -180 766 -178Q760 -172 760 -164Q760 -148 775 -141Q764 -139 760 -120Q757 -102 749 -100Q746 -99 740 -99Q721 -101 701 -103H698Q656 -100 632 -76Q704 -41 778 -17Q788 -21 792 -45Q795 -61 800 -67Q801 -63 801 -53V-44Q801 -28 803 -23Q805 -30 806 -53Q807 -82 814 -91Q818 -90 818 -84Q818 -78 817 -72V-70Q819 -56 821 -42V-39Q825 -60 827 -107Q830 -165 836 -189V-94Q836 -45 841 -16Q844 -25 844 -38Q843 -52 852 -55Q854 -9 864 29Q875 55 879 74ZM753 -286H750Q750 -293 759 -303Q767 -312 767 -317Q767 -322 765 -325Q760 -333 753 -333Q742 -333 732 -323Q722 -313 722 -302V-301Q668 -294 635 -233Q651 -242 669 -258Q687 -275 708 -277Q715 -277 718 -276V-274Q718 -267 705 -260Q692 -253 691 -244H689Q676 -243 669 -235Q662 -226 653 -217Q642 -208 634 -201Q626 -194 623 -178Q615 -178 609 -172Q582 -178 571 -192H548Q518 -192 509 -184V-181Q506 -162 496 -138H495Q487 -137 482 -132Q477 -127 472 -124Q461 -119 451 -114Q441 -108 436 -99Q446 -89 454 -77L438 -36Q444 -36 452 -43Q465 -53 476 -53Q481 -53 484 -52Q462 -44 451 -25H453Q463 -28 472 -32Q474 -32 478 -30Q477 -24 469 -19Q461 -14 460 -10Q462 -6 466 -2Q473 4 473 8Q448 20 436 46Q424 71 414 97Q404 99 393 101Q370 91 356 71Q342 52 329 32Q347 11 347 -30Q316 -14 258 34Q217 68 192 84Q187 83 180 77Q173 71 165 71H161Q163 65 163 63Q163 55 151 46Q141 39 139 33Q139 30 142 30Q144 30 144 28V26Q141 2 127 -17Q117 -29 96 -46H98Q107 -46 123 -38Q141 -28 152 -28Q151 -33 141 -40Q129 -49 127 -54Q153 -45 179 -36L208 -48Q207 -37 192 -28Q178 -20 177 -10Q266 -33 338 -106Q308 -89 278 -73Q263 -65 249 -57Q234 -48 219 -45Q223 -55 232 -62Q242 -68 251 -73Q313 -112 367 -142Q363 -147 350 -157Q334 -169 332 -178H333Q338 -178 349 -172Q359 -167 367 -166Q359 -190 348 -203Q333 -220 311 -223L309 -220V-219Q309 -213 317 -206Q327 -197 327 -188Q327 -184 326 -181Q304 -203 280 -203Q269 -203 264 -201Q267 -207 267 -211Q265 -223 257 -233Q247 -235 244 -235H241Q257 -240 262 -255Q268 -270 276 -284Q295 -305 326 -312H329Q341 -310 352 -309H355Q370 -312 391 -319Q496 -347 611 -373Q632 -381 666 -385Q686 -386 706 -388Q722 -388 728 -381Q734 -386 742 -388H744L743 -385Q749 -366 763 -358H765Q769 -358 774 -362Q780 -367 783 -367Q787 -367 789 -365V-364Q789 -361 782 -356Q774 -350 772 -345Q773 -335 786 -333V-327Q786 -309 777 -298Q768 -286 753 -286ZM903 -445V-437Q890 -436 887 -424Q884 -411 880 -400Q831 -413 769 -413Q697 -413 568 -393Q558 -391 548 -389Q542 -389 538 -393Q547 -402 576 -409Q600 -414 608 -419Q600 -423 589 -423Q561 -420 535 -412Q498 -406 493 -393L496 -390L500 -389Q511 -391 522 -393H524Q526 -387 529 -385Q474 -377 346 -340Q326 -333 306 -330Q303 -330 299 -331Q303 -340 314 -345Q325 -350 335 -353Q398 -373 429 -379Q441 -381 452 -381Q464 -382 472 -390H459Q391 -386 329 -368Q292 -361 257 -355Q222 -348 196 -327Q204 -320 214 -320Q223 -320 238 -325Q259 -332 268 -332Q277 -332 282 -330Q281 -320 269 -319Q257 -319 248 -318Q224 -312 206 -296Q187 -280 168 -265Q146 -273 117 -287Q93 -302 89 -306Q76 -318 76 -334Q76 -344 82 -356Q76 -368 76 -379Q76 -385 79 -391Q105 -410 139 -427Q156 -438 173 -450Q189 -462 214 -463H222Q211 -459 200 -453Q188 -447 187 -434Q187 -430 188 -428H190Q193 -428 197 -432Q203 -437 207 -437L209 -436Q207 -432 205 -429L207 -427Q214 -423 224 -423Q234 -423 279 -433Q419 -457 482 -462Q485 -468 485 -473Q484 -483 483 -494Q483 -499 484 -502Q450 -501 417 -493Q404 -490 382 -477Q360 -464 349 -463Q330 -463 309 -477Q298 -485 282 -513Q269 -536 260 -544V-553Q260 -577 273 -589Q271 -595 271 -598Q273 -609 275 -621Q275 -626 272 -632Q282 -630 291 -626V-627Q287 -639 276 -650H277Q283 -650 295 -642Q305 -635 311 -634L312 -637Q309 -640 306 -646Q319 -642 339 -639Q369 -635 377 -628Q349 -624 343 -623Q325 -619 318 -609Q323 -597 352 -597Q372 -598 414 -607Q454 -617 464 -629Q458 -632 452 -632Q430 -627 407 -622Q399 -622 391 -628Q392 -635 400 -635Q406 -635 409 -632Q437 -639 467 -644Q465 -676 454 -700Q436 -707 435 -725Q435 -740 451 -741Q454 -748 456 -755Q479 -773 492 -780Q513 -791 536 -791H544Q564 -788 582 -771Q599 -755 617 -742V-737Q621 -716 625 -701Q625 -694 623 -691Q606 -682 602 -672Q608 -671 618 -671Q642 -672 661 -681Q680 -689 698 -697Q708 -691 718 -685Q727 -689 733 -689Q738 -689 740 -688Q738 -682 735 -679Q758 -686 780 -691Q779 -687 765 -681Q743 -671 743 -660V-656H744Q752 -658 760 -661Q761 -661 765 -659Q763 -655 755 -650Q746 -644 744 -638L745 -637Q750 -639 755 -642Q757 -642 759 -640Q746 -631 746 -614Q746 -605 750 -600Q735 -587 735 -566Q735 -558 740 -551Q678 -546 656 -542Q615 -535 589 -521Q586 -491 586 -490V-484Q594 -483 609 -483Q663 -487 721 -497Q811 -505 842 -520L844 -517Q844 -513 842 -511Q856 -505 869 -496Q883 -488 899 -487H903V-485Q903 -483 899 -482Q896 -481 895 -477V-475Q895 -466 910 -459Q903 -458 903 -445Z"/>
</svg>