<svg xmlns="http://www.w3.org/2000/svg" viewBox="0 -800 1024 1024">
	<path fill="#000000" d="M926 -175V-173Q921 -175 921 -186Q921 -199 927 -202Q932 -197 933 -193Q926 -179 926 -175ZM882 -642H880Q869 -640 858 -638H856Q859 -649 873 -652Q882 -652 882 -642ZM350 -234H346Q342 -220 342 -209Q342 -194 348 -185Q362 -189 375 -193Q376 -202 383 -211Q390 -219 391 -223Q384 -223 371 -229Q360 -234 350 -234ZM289 -289Q285 -337 281 -386Q260 -382 252 -359Q257 -350 263 -328Q271 -297 281 -286Q283 -289 289 -289ZM367 -437H366Q331 -437 331 -383Q331 -349 342 -325Q344 -342 354 -373Q367 -414 367 -437ZM521 -180H515Q502 -180 500 -188Q497 -196 493 -208Q477 -233 464 -250Q461 -257 461 -265Q462 -278 469 -288Q476 -299 480 -306Q487 -326 495 -348Q503 -371 530 -374Q526 -366 522 -358L523 -355Q527 -353 536 -353Q547 -353 568 -359Q596 -367 609 -367Q614 -366 619 -366Q637 -372 638 -394Q638 -402 632 -410Q619 -409 597 -397Q578 -387 572 -385Q542 -394 526 -419Q524 -413 521 -412Q519 -413 517 -415Q515 -418 512 -418Q488 -415 474 -394Q466 -382 455 -346Q448 -327 440 -307Q431 -287 430 -263Q430 -249 432 -242Q422 -240 417 -236Q410 -230 410 -220L413 -219Q418 -220 420 -225Q422 -230 424 -231H425V-229Q425 -217 430 -210Q435 -204 441 -197Q446 -201 452 -203H453Q453 -197 452 -192Q452 -187 456 -184Q459 -185 463 -190Q468 -196 472 -196Q474 -196 478 -194Q469 -189 469 -177Q472 -153 493 -145Q490 -115 487 -86Q503 -103 535 -130Q574 -163 588 -179Q607 -195 614 -215Q601 -213 571 -198Q539 -182 521 -180ZM955 -44H956Q965 -4 965 22Q965 44 959 65Q948 67 934 78Q918 90 905 91Q875 83 852 55Q838 37 820 1Q833 4 846 21Q858 37 868 40V37Q867 24 861 14Q854 4 847 -4Q830 -26 819 -44Q803 -57 783 -82Q762 -108 754 -115L751 -116Q756 -97 775 -71Q792 -48 797 -35Q768 -52 751 -81Q733 -110 717 -140Q712 -114 712 -67V-17Q701 -24 701 -54V-66Q701 -89 696 -96Q686 -75 686 -34Q686 24 705 44Q709 39 709 24Q709 11 712 7Q726 28 726 58Q726 69 723 79L682 98Q665 91 647 84Q608 30 608 -30V-33Q611 -55 614 -78Q614 -85 613 -89Q597 -85 587 -72Q577 -59 566 -49Q557 -43 550 -36Q543 -30 540 -17Q491 12 475 56Q473 58 464 58Q460 70 456 74Q410 70 399 -13Q398 -17 393 -21Q388 -25 387 -30Q397 -26 406 -23Q404 -37 390 -44Q375 -50 366 -59Q375 -59 391 -53Q408 -47 417 -47H419Q437 -49 452 -61Q467 -74 482 -82Q471 -80 462 -77Q452 -75 450 -64Q445 -67 441 -75Q437 -83 430 -83H429Q424 -83 417 -76Q409 -68 404 -67Q403 -69 403 -72Q407 -83 413 -95Q412 -102 402 -110Q354 -97 298 -71Q287 -64 275 -62Q270 -62 265 -65Q309 -98 367 -118Q359 -122 350 -122Q323 -118 298 -105Q273 -97 238 -89Q203 -81 185 -64Q177 -54 177 -44Q177 -41 179 -35Q196 -44 213 -53Q229 -62 252 -64V-53Q223 -51 210 -31Q197 -11 175 -1Q162 -4 142 -14Q118 -23 105 -36Q101 -41 101 -54Q101 -73 111 -83Q107 -92 107 -103Q107 -126 131 -145Q143 -154 175 -171Q165 -164 163 -150V-148Q262 -164 275 -165Q288 -185 288 -210Q288 -219 287 -223Q272 -223 257 -203Q244 -186 232 -186Q228 -186 226 -187Q221 -188 216 -196Q209 -208 197 -208H193Q195 -214 195 -215Q193 -229 180 -241Q167 -253 160 -263H164Q172 -263 182 -253Q193 -242 204 -242Q191 -263 174 -288Q158 -313 136 -331Q125 -339 111 -339Q105 -339 102 -338Q104 -322 125 -305Q148 -286 148 -269Q86 -313 59 -346Q50 -358 50 -376Q50 -413 77 -440Q65 -456 65 -472Q65 -479 66 -482Q72 -475 75 -465Q79 -456 89 -454V-457Q89 -463 83 -475Q76 -488 76 -495Q76 -497 78 -503Q84 -494 89 -484Q94 -475 102 -469Q105 -472 105 -485H107Q112 -484 116 -479Q120 -473 125 -469Q136 -463 152 -460Q171 -449 184 -446Q194 -447 206 -456Q217 -466 226 -473Q240 -483 269 -500Q267 -518 264 -536Q264 -542 267 -548Q254 -554 252 -590Q251 -616 246 -623Q236 -622 231 -615Q227 -608 221 -602Q228 -669 290 -697Q297 -696 306 -690Q319 -682 329 -682Q335 -665 366 -647Q363 -642 363 -636Q363 -628 370 -616Q360 -613 360 -601Q359 -590 358 -578Q348 -574 343 -570V-572Q346 -597 349 -623Q349 -645 333 -651Q325 -647 325 -639Q329 -623 332 -608V-605Q332 -600 326 -591Q319 -581 318 -576Q317 -572 317 -564Q317 -548 329 -541Q332 -542 332 -547Q332 -552 331 -558Q331 -565 337 -565H339Q342 -565 342 -562Q341 -558 340 -554Q340 -552 342 -550Q361 -558 381 -567Q400 -576 413 -592Q418 -587 422 -579Q428 -581 432 -581Q442 -581 444 -576Q463 -591 486 -604V-602Q486 -599 479 -592Q468 -581 468 -570V-565L471 -564Q473 -564 475 -567Q478 -571 480 -571L483 -570Q481 -560 481 -557Q481 -543 496 -523Q506 -509 509 -501Q511 -505 511 -511Q510 -520 509 -530Q512 -544 515 -559V-561Q515 -573 507 -598Q500 -620 499 -632Q499 -641 498 -650Q499 -659 499 -668Q499 -687 495 -704H496Q501 -699 503 -686Q507 -688 508 -695Q514 -688 529 -679Q543 -670 549 -664Q557 -655 565 -635Q576 -609 586 -601Q585 -599 585 -595Q585 -590 592 -576Q617 -579 635 -585Q640 -608 640 -632Q640 -693 613 -719Q611 -725 611 -729Q611 -748 630 -769Q646 -787 662 -793Q671 -796 678 -796Q696 -796 711 -778Q716 -771 733 -742Q755 -705 755 -686V-680Q752 -673 749 -667Q749 -665 751 -661Q726 -648 726 -625Q726 -618 727 -614H729Q745 -614 765 -625Q785 -636 800 -636H804L806 -633Q802 -628 797 -620V-619Q824 -628 850 -638Q841 -629 830 -621Q820 -614 814 -602Q817 -597 822 -597Q836 -602 850 -608Q833 -603 833 -581Q833 -567 843 -560Q837 -552 837 -543Q837 -532 844 -520Q838 -514 838 -506Q838 -500 847 -482Q841 -476 801 -467V-468Q801 -478 817 -482Q828 -485 831 -490Q824 -493 812 -493Q802 -493 762 -485Q726 -477 708 -460Q713 -459 717 -459Q754 -463 783 -470V-469Q782 -460 770 -457Q758 -454 746 -452Q717 -447 711 -435V-427Q711 -410 714 -397Q747 -407 780 -418Q812 -429 853 -432Q859 -437 862 -444Q871 -426 872 -425Q888 -432 905 -434Q899 -429 892 -424Q886 -420 885 -411Q885 -410 887 -404L889 -403Q896 -406 902 -409Q904 -409 906 -407Q901 -400 895 -395Q889 -390 888 -381V-378Q889 -375 894 -370Q901 -364 902 -361V-347Q904 -328 906 -310Q906 -302 905 -299Q869 -280 848 -280Q841 -280 838 -281Q841 -291 857 -295Q868 -298 872 -303Q869 -311 858 -311H849Q788 -305 746 -281Q738 -276 735 -269H738Q759 -272 780 -275Q803 -280 808 -280Q818 -280 822 -275Q820 -270 809 -270Q803 -270 801 -269Q784 -264 766 -260Q747 -256 733 -248Q753 -231 788 -188Q811 -160 825 -145Q853 -114 854 -113Q860 -106 868 -97Q875 -89 887 -88H888Q891 -92 891 -106V-121Q891 -137 897 -142Q898 -129 899 -117Q900 -104 906 -95V-107Q905 -140 903 -173Q903 -201 911 -217Q912 -177 913 -136Q914 -96 926 -65V-72Q923 -111 920 -151Q920 -162 921 -167Q927 -166 927 -156V-146Q933 -95 950 -42L951 -41Q953 -42 955 -44Z"/>
</svg>