<svg xmlns="http://www.w3.org/2000/svg" viewBox="0 -800 1024 1024">
	<path fill="#000000" d="M562 -266V-267Q554 -260 550 -254L551 -252Q552 -255 557 -260Q562 -264 562 -266ZM906 -435H907Q910 -430 910 -427Q910 -416 896 -412Q894 -418 894 -421Q894 -435 906 -435ZM161 15Q157 18 151 18Q136 18 132 8Q135 1 140 1Q150 1 161 15ZM707 -63H741Q747 -107 755 -152Q762 -198 763 -244Q746 -234 729 -225Q711 -216 703 -198H700Q692 -196 688 -190Q687 -185 687 -176Q687 -162 692 -147Q689 -138 689 -126Q689 -86 707 -63ZM908 -649H910Q915 -650 919 -652Q911 -640 911 -624Q911 -620 913 -610Q904 -604 904 -595Q904 -585 913 -579Q909 -565 904 -552Q836 -543 790 -532Q796 -550 829 -554Q857 -556 876 -568Q871 -573 860 -573Q847 -571 833 -569Q805 -565 775 -560Q744 -555 725 -538Q728 -533 735 -533Q748 -534 760 -536Q765 -536 771 -534Q758 -524 735 -521Q716 -518 704 -510Q684 -495 663 -451Q644 -411 628 -400Q621 -395 611 -395Q600 -395 581 -402Q559 -410 549 -410Q545 -410 537 -408Q537 -412 550 -417Q559 -420 560 -422Q553 -426 542 -426Q520 -426 504 -417Q509 -426 519 -430Q529 -435 539 -439Q574 -456 583 -481Q551 -517 551 -555V-563Q554 -590 554 -596Q554 -615 546 -626Q558 -628 580 -634Q608 -642 623 -642Q638 -651 641 -651Q643 -651 649 -649Q652 -659 659 -675Q672 -702 672 -714Q672 -723 666 -732H620Q664 -753 712 -772Q724 -778 738 -785Q751 -791 767 -792Q770 -792 780 -790Q784 -779 791 -769Q798 -760 799 -745Q786 -747 775 -763Q772 -759 769 -756Q770 -745 784 -732Q798 -719 798 -710V-709Q798 -703 793 -696Q786 -687 786 -679Q798 -680 805 -692Q812 -705 818 -717Q813 -725 808 -734L809 -736H812Q829 -731 842 -715Q840 -709 833 -701Q823 -690 822 -679H826Q845 -679 863 -689Q866 -691 892 -709V-703Q892 -686 901 -682Q914 -683 927 -684H932Q929 -680 918 -676Q909 -673 905 -669Q907 -660 908 -652ZM837 104H830Q817 104 800 93Q786 84 775 83Q770 71 763 61Q759 63 755 64H753Q755 58 755 54Q755 44 748 37Q740 29 730 29Q725 29 723 30Q716 32 707 46Q699 58 694 60Q623 47 608 -19Q601 -24 592 -27Q605 -37 605 -56Q605 -67 599 -90Q592 -117 592 -131V-136Q603 -130 610 -103Q617 -76 627 -69Q629 -87 629 -96Q629 -128 620 -150Q610 -176 590 -184Q589 -182 589 -179Q590 -169 591 -160Q591 -154 589 -151Q583 -154 577 -165Q570 -179 560 -181Q545 -205 545 -230Q545 -240 548 -249Q485 -241 396 -201Q371 -172 359 -126Q344 -118 340 -114Q338 -110 336 -104Q335 -98 328 -97V-102Q332 -124 349 -146Q366 -169 371 -193Q356 -181 343 -159Q320 -133 313 -96Q349 -78 369 -74Q377 -92 399 -123Q418 -150 426 -166Q422 -175 422 -182Q422 -190 439 -199Q467 -215 488 -216Q511 -212 519 -188Q528 -162 535 -136Q533 -125 525 -105Q495 -98 474 -49Q506 -34 512 -28Q519 -33 520 -45Q520 -57 522 -67Q525 -47 528 -27Q534 -28 534 -36Q534 -40 533 -45Q533 -51 537 -54Q541 -37 557 -4Q575 31 578 57Q570 70 563 80Q555 90 541 91H537Q520 89 474 55Q476 54 480 54Q488 54 499 61Q513 70 522 70Q503 33 441 15Q442 24 456 31Q469 38 469 44Q469 45 467 51Q460 49 449 38Q435 24 423 24H421Q410 25 399 38Q393 45 381 67Q357 111 346 115Q340 110 324 104Q310 99 303 94Q289 84 278 73Q267 62 250 57Q239 55 229 54Q219 53 209 44H213Q241 48 269 51Q252 44 224 38Q189 30 170 21Q190 22 225 29Q262 37 276 38Q274 35 265 31Q256 27 254 23Q258 24 264 24Q280 23 291 15Q303 6 312 -2Q307 -6 297 -6Q282 -6 277 6Q271 8 260 8Q235 8 221 -17Q214 -29 203 -66Q211 -82 211 -94Q240 -117 260 -154Q216 -152 197 -132Q194 -129 186 -113Q180 -101 173 -100H170Q131 -109 109 -138Q96 -146 79 -152Q63 -158 57 -174Q56 -178 56 -185Q56 -202 70 -228Q69 -235 69 -249Q69 -274 78 -288Q85 -298 99 -303Q112 -309 124 -316Q142 -328 158 -341Q175 -354 193 -355Q180 -344 165 -334Q149 -325 147 -307Q155 -310 176 -324L177 -322Q177 -321 173 -317Q168 -313 168 -309Q171 -304 174 -300Q198 -304 222 -306Q246 -309 264 -319Q280 -319 298 -325Q301 -335 301 -345Q301 -377 269 -393Q275 -394 280 -397L282 -401Q281 -405 279 -409Q310 -426 340 -445Q334 -447 328 -447Q308 -446 284 -436Q260 -426 247 -421Q253 -440 274 -444Q295 -449 310 -459Q304 -461 300 -461Q285 -457 270 -454Q204 -441 138 -396Q146 -378 159 -378Q170 -378 195 -400Q222 -423 235 -423L239 -422Q223 -409 209 -388Q194 -362 163 -359Q159 -359 149 -361Q132 -366 122 -379Q113 -392 103 -405Q71 -414 61 -430Q59 -438 59 -442Q60 -455 66 -466Q71 -476 75 -484Q78 -499 79 -512Q80 -525 87 -535Q103 -555 126 -569Q150 -584 174 -597Q164 -589 153 -581Q143 -573 140 -557Q144 -548 155 -548Q169 -550 182 -552H185Q198 -550 210 -549H212Q218 -550 231 -558Q250 -569 262 -569Q267 -569 269 -568Q272 -569 273 -575Q275 -582 279 -582Q273 -589 273 -600Q277 -628 285 -651Q288 -639 294 -632Q296 -636 296 -639Q294 -650 292 -661Q292 -664 294 -670Q298 -668 300 -657Q302 -644 310 -643Q312 -644 312 -649V-657L313 -661Q316 -661 319 -656Q321 -653 324 -652Q352 -645 372 -616Q375 -611 377 -606Q382 -604 386 -603L387 -600V-599L390 -597Q400 -601 406 -607Q412 -610 429 -613Q455 -618 463 -625Q471 -622 476 -622Q484 -622 498 -629Q514 -637 524 -637Q518 -632 511 -625Q505 -619 504 -611V-607L507 -606Q512 -609 516 -612Q511 -605 511 -597Q511 -589 518 -586Q516 -554 513 -522Q506 -517 504 -508V-505Q474 -501 464 -498Q442 -492 433 -481Q434 -477 434 -474Q434 -465 427 -451Q422 -441 422 -434Q423 -431 423 -429H417Q436 -410 436 -387Q436 -372 429 -358H433Q449 -359 464 -361H470Q465 -356 452 -352Q433 -346 430 -336Q433 -328 441 -328Q451 -330 460 -333Q510 -345 554 -367Q546 -371 537 -371Q530 -371 514 -366Q495 -360 482 -360Q485 -370 495 -373Q504 -376 513 -378Q554 -391 592 -397Q573 -385 573 -376Q573 -370 577 -366Q588 -369 596 -375V-374Q596 -372 591 -366Q584 -357 584 -350Q584 -347 586 -343L588 -341Q592 -341 595 -342H596Q589 -332 582 -323Q575 -314 574 -297V-291Q568 -283 568 -276Q568 -272 569 -270Q591 -279 598 -286Q604 -284 609 -280Q615 -283 621 -286L624 -285Q682 -321 745 -349Q787 -370 809 -393H815Q831 -390 846 -388Q852 -388 855 -390V-388Q854 -385 853 -383L854 -381Q884 -403 892 -408Q890 -401 883 -393Q873 -381 873 -371V-369L876 -367Q884 -369 889 -374Q894 -379 899 -385Q891 -365 891 -359Q891 -351 896 -346Q899 -349 900 -352Q901 -355 905 -355H907Q908 -337 924 -314Q941 -288 941 -266V-259Q927 -243 925 -232Q916 -227 906 -209Q894 -188 883 -184V-187Q883 -199 895 -218Q905 -234 905 -242Q905 -250 896 -259Q872 -254 872 -228Q873 -224 873 -220Q854 -214 846 -191Q840 -173 840 -141Q841 -119 841 -97Q841 -83 839 -63Q849 -70 850 -89Q852 -108 855 -124Q869 -158 889 -178V-176Q889 -166 881 -144Q874 -126 873 -115Q862 -60 855 -2V5Q856 18 856 31Q856 38 855 42Q854 52 846 70Q837 92 837 102Z"/>
</svg>