<svg xmlns="http://www.w3.org/2000/svg" viewBox="0 -800 1024 1024">
	<path fill="#000000" d="M915 -496Q910 -488 897 -485Q896 -487 896 -490Q898 -500 908 -501Q912 -501 915 -496ZM537 1Q528 1 518 -11Q521 -15 524 -19Q533 -15 537 1ZM501 -563Q509 -576 513 -605Q515 -605 517 -602Q520 -598 522 -598Q522 -618 530 -628Q530 -604 538 -600Q542 -600 544 -607Q545 -612 548 -613Q554 -613 565 -592Q574 -576 576 -574Q581 -575 586 -577Q584 -571 584 -567Q585 -561 585 -556Q589 -558 594 -567Q599 -577 606 -578Q595 -558 595 -536Q595 -520 602 -514Q601 -490 599 -465Q598 -440 586 -428Q583 -427 580 -427Q577 -427 574 -428Q567 -428 566 -422Q553 -423 536 -434Q523 -443 516 -445H515Q511 -442 506 -439L505 -442Q507 -446 509 -451Q508 -454 504 -460Q484 -456 472 -444Q473 -451 484 -461Q494 -470 497 -476Q493 -509 490 -517Q493 -543 501 -563ZM273 28H277V29L278 31Q277 41 255 43V32Q265 28 273 28ZM350 -346H347Q316 -336 302 -324Q305 -315 316 -304Q327 -292 329 -282Q330 -278 330 -274Q327 -246 320 -214Q312 -134 312 -121Q322 -128 325 -134Q338 -240 350 -346ZM253 -265H259Q270 -232 270 -169Q270 -124 275 -105Q276 -105 286 -110Q284 -205 274 -299Q277 -304 281 -307L279 -308Q271 -302 242 -286Q213 -271 201 -259Q222 -148 242 -89Q246 -92 246 -103Q242 -136 234 -175Q225 -231 213 -255Q219 -251 224 -247V-260Q239 -262 253 -265ZM459 -115Q458 -112 458 -105V-98Q465 -96 471 -95Q464 -79 464 -75Q464 -71 467 -67Q456 -46 452 -42Q449 -38 434 -30Q332 6 286 30Q287 15 308 4Q313 2 348 -12Q377 -25 406 -38H402Q377 -38 335 -20Q304 -8 270 4Q237 15 207 36Q192 48 185 57Q174 71 174 87V93Q183 89 208 65Q228 46 247 46H251Q247 53 227 68Q202 89 169 145Q140 138 119 125Q97 111 76 97Q78 89 78 76Q78 52 61 37V29Q62 -13 79 -40Q96 -67 112 -93Q104 -57 104 -53Q104 -40 109 -33Q122 -35 148 -48Q164 -56 177 -60Q156 -114 146 -173Q160 -162 165 -143Q170 -123 175 -104Q180 -108 180 -118Q180 -128 175 -148Q168 -181 155 -214Q140 -252 125 -265Q115 -273 102 -273Q91 -273 87 -268Q99 -253 115 -240Q131 -227 139 -205Q144 -197 144 -192Q144 -187 138 -184Q129 -191 124 -203Q119 -215 115 -219Q109 -226 92 -235Q75 -244 69 -252Q62 -271 49 -285V-345Q54 -373 58 -402Q58 -410 54 -420Q49 -433 49 -439V-443Q53 -438 58 -428Q65 -412 72 -409L73 -412Q73 -415 69 -421Q64 -428 64 -433Q71 -431 77 -423Q83 -415 88 -414H91Q115 -414 144 -446Q156 -459 180 -493Q209 -534 223 -546V-541Q223 -525 203 -503Q183 -481 183 -462Q196 -474 209 -495Q227 -517 250 -542Q273 -567 288 -592Q297 -608 297 -624Q297 -638 287 -638Q280 -638 275 -634Q267 -595 250 -573Q238 -558 233 -558L230 -559Q232 -570 246 -592Q262 -617 262 -632V-633Q261 -647 252 -660Q242 -672 233 -682Q249 -676 267 -663L269 -666Q269 -667 265 -671Q259 -677 259 -681Q275 -677 282 -677Q290 -677 294 -679Q294 -682 289 -683Q285 -684 285 -687V-690Q293 -687 298 -687Q319 -690 339 -694H341Q356 -693 369 -687Q382 -680 397 -676Q398 -666 407 -661Q407 -643 420 -607Q433 -570 433 -550Q432 -539 430 -528Q417 -521 411 -515Q402 -507 400 -495Q396 -496 391 -498Q338 -467 312 -444Q293 -429 292 -409Q309 -417 339 -437L340 -433Q339 -423 327 -417Q316 -411 307 -406Q277 -385 272 -374Q343 -407 364 -432Q362 -434 360 -434Q356 -432 351 -430Q362 -462 395 -465Q399 -465 407 -463Q408 -464 410 -468Q412 -472 415 -472H417Q420 -470 421 -462Q422 -455 424 -453Q436 -472 451 -486Q437 -472 437 -445Q437 -437 438 -433Q441 -433 443 -438Q445 -442 447 -442L449 -441Q449 -436 448 -432Q449 -413 456 -397Q464 -381 469 -364Q452 -333 434 -302Q430 -307 430 -314Q430 -321 438 -337Q445 -351 446 -358Q440 -360 437 -360Q422 -360 414 -336Q413 -333 404 -291Q390 -241 387 -195V-186Q397 -212 406 -242Q414 -272 431 -286Q429 -268 419 -238Q406 -199 406 -176Q407 -170 407 -164Q415 -167 432 -177L433 -180Q434 -184 442 -198Q453 -217 453 -228V-231Q459 -235 485 -253Q488 -252 492 -246Q496 -241 499 -240H501Q513 -243 524 -246H541Q557 -249 572 -253Q575 -252 578 -252H580Q585 -255 590 -258Q609 -258 625 -262Q627 -284 627 -295V-303Q597 -297 580 -292Q569 -289 554 -279Q532 -265 521 -265H517Q497 -265 488 -301Q474 -307 466 -322Q464 -330 464 -333Q465 -347 473 -358Q482 -369 487 -379Q488 -391 492 -403Q500 -415 521 -415Q543 -415 563 -406Q561 -401 551 -400Q539 -399 538 -393Q546 -379 563 -379Q573 -379 599 -387Q617 -392 627 -393V-398Q627 -405 625 -413Q619 -415 617 -415Q604 -411 590 -408Q585 -408 583 -410Q589 -420 604 -421Q618 -422 630 -425Q629 -483 627 -539Q625 -595 611 -637Q601 -654 597 -675Q597 -678 599 -686Q605 -709 631 -729Q646 -741 678 -757Q681 -752 683 -752Q688 -754 693 -757Q700 -751 712 -746Q718 -722 730 -692Q735 -681 741 -672Q747 -662 748 -647Q747 -630 738 -614Q728 -598 720 -580Q712 -561 712 -523V-503Q723 -507 729 -519Q735 -531 741 -541Q759 -564 776 -588Q783 -600 792 -613Q800 -625 801 -641Q799 -642 795 -642Q784 -641 779 -631Q773 -621 765 -610Q760 -604 750 -585Q740 -567 731 -557L730 -560Q733 -565 736 -571V-582Q744 -593 752 -604Q759 -616 765 -629Q768 -631 771 -634Q783 -664 783 -666Q783 -681 760 -689Q763 -694 772 -697Q781 -700 783 -704Q781 -707 776 -707Q786 -717 802 -733Q817 -748 833 -754Q856 -758 879 -763H880Q883 -763 890 -758Q898 -752 901 -752H902Q918 -713 939 -679Q945 -647 945 -633Q945 -604 934 -577Q911 -577 891 -567Q878 -560 857 -544Q837 -527 822 -508Q807 -488 790 -469Q817 -476 844 -484L847 -482Q845 -477 843 -473V-472Q865 -481 889 -485Q879 -477 868 -471Q856 -464 852 -448L855 -447Q858 -447 863 -451Q869 -456 873 -456H876V-455Q876 -451 869 -444Q856 -432 856 -422Q856 -417 859 -410L861 -409Q862 -409 864 -412Q866 -416 869 -416L873 -415Q860 -402 855 -379Q851 -356 843 -338H837Q778 -338 699 -315V-272H702Q719 -273 735 -275H741Q748 -282 763 -282Q768 -282 776 -280Q770 -272 740 -268Q711 -264 704 -250Q708 -243 718 -243Q736 -246 754 -250Q814 -257 867 -272Q863 -284 848 -284Q836 -283 824 -282Q821 -282 813 -284Q820 -296 846 -301H857Q864 -306 870 -310Q877 -312 889 -313Q907 -314 915 -319Q912 -311 912 -306Q912 -301 915 -295Q923 -300 926 -300H928Q925 -291 925 -283Q925 -257 947 -237Q940 -222 937 -201Q934 -180 918 -171Q905 -167 892 -163Q880 -157 867 -152Q861 -152 844 -158Q826 -164 816 -165Q808 -166 793 -166Q766 -166 701 -159Q699 -149 699 -127Q702 -86 705 -46Q695 -53 693 -86Q691 -117 682 -124Q676 -120 676 -106Q677 -95 677 -85Q677 -7 680 20Q682 43 696 51Q705 42 704 22Q704 2 706 -11Q712 -4 713 9Q713 22 714 33Q716 45 717 56Q716 72 696 92Q679 109 678 121H676Q666 124 656 127Q643 127 627 110Q609 92 601 89Q593 68 565 36Q547 15 541 5Q554 8 570 28Q585 46 598 50Q585 30 555 -1Q528 -29 518 -43L522 -44Q533 -40 540 -30Q582 8 601 20Q599 11 589 5Q581 0 578 -5L581 -6Q590 -3 598 2Q607 -4 608 -16Q608 -28 608 -40Q612 -57 616 -74Q619 -109 622 -145Q619 -146 613 -146Q590 -144 566 -134Q523 -120 497 -90Q494 -89 490 -89Q472 -89 459 -115Z"/>
</svg>