<svg xmlns="http://www.w3.org/2000/svg" viewBox="0 -800 1024 1024">
	<path fill="#000000" d="M919 -508Q917 -503 910 -500Q903 -497 902 -493Q901 -494 901 -498Q901 -503 904 -507Q908 -512 912 -512Q916 -512 919 -508ZM128 -28H127Q118 -28 118 -40Q118 -52 125 -52Q128 -52 131 -49ZM260 -123V-125Q262 -130 272 -142Q282 -154 282 -159V-160Q263 -154 237 -137Q216 -125 215 -116H232Q252 -116 258 -112Q259 -117 260 -123ZM889 -728H896Q863 -717 855 -698Q858 -693 861 -693Q869 -696 882 -700Q887 -700 889 -698Q874 -696 874 -683Q874 -672 884 -672Q888 -672 890 -673Q884 -664 882 -643Q880 -627 877 -620Q872 -608 862 -600Q853 -593 846 -584Q838 -585 821 -585Q723 -585 667 -550Q646 -536 627 -520Q608 -503 587 -499Q583 -498 576 -498Q560 -499 548 -508Q537 -505 526 -503Q523 -503 517 -505Q520 -528 535 -559Q534 -563 528 -567Q525 -569 523 -572Q524 -578 524 -588Q523 -607 522 -627Q522 -647 528 -661H535Q557 -664 578 -667Q579 -678 589 -692Q599 -706 599 -718V-724H576Q591 -741 609 -763Q627 -784 654 -790H687Q712 -790 714 -766Q696 -779 683 -779Q675 -779 667 -770Q684 -757 702 -748Q724 -738 726 -707Q737 -714 737 -723Q732 -743 719 -761H720Q730 -760 737 -752Q744 -744 751 -737Q749 -724 747 -712Q751 -711 754 -711Q781 -716 808 -721Q820 -721 827 -716Q838 -717 856 -722Q878 -728 889 -728ZM400 -533V-529Q400 -518 399 -507Q399 -493 405 -488Q395 -480 395 -474L396 -470Q382 -459 366 -459Q335 -459 300 -499Q275 -498 231 -481Q218 -478 218 -466H213Q201 -466 182 -452Q166 -440 157 -439H153Q135 -439 116 -453Q97 -467 94 -483Q70 -501 70 -527Q70 -537 74 -545V-546Q74 -550 77 -550Q80 -550 80 -553Q78 -560 78 -574Q78 -617 107 -658Q110 -655 110 -649Q110 -642 109 -635V-632Q113 -615 132 -615Q149 -617 166 -620V-618Q166 -608 146 -600Q127 -593 125 -583Q128 -579 134 -579Q141 -579 151 -583Q209 -604 234 -607Q233 -617 221 -617Q207 -615 192 -614Q184 -614 180 -618Q184 -629 199 -630Q213 -631 224 -635Q222 -643 222 -645Q222 -654 231 -668Q240 -682 240 -692Q240 -697 239 -700Q244 -699 249 -691Q254 -684 257 -684L260 -685V-688Q260 -694 255 -704Q249 -715 249 -721V-724Q254 -722 260 -706Q265 -693 274 -691Q277 -693 280 -695Q280 -699 275 -703Q270 -707 270 -712V-713H273Q278 -713 284 -706Q288 -701 291 -700Q299 -702 303 -702Q309 -702 329 -692Q338 -688 347 -684Q351 -681 361 -659Q370 -640 380 -640H381Q401 -644 421 -649Q451 -654 458 -659Q450 -667 437 -667Q412 -662 387 -658Q378 -658 374 -662Q389 -674 411 -680Q433 -685 454 -692Q455 -689 455 -682V-677Q463 -674 469 -674Q478 -674 490 -679Q504 -685 512 -685H514Q507 -681 500 -676Q492 -670 491 -662Q491 -659 493 -655Q500 -660 506 -663L510 -662V-653Q509 -626 508 -599Q508 -580 511 -571Q487 -568 481 -547Q432 -545 400 -533ZM935 -23V-22Q937 -9 948 -9Q934 -6 934 12Q934 21 939 28Q935 37 929 47Q923 56 911 59Q899 56 887 53Q866 51 844 49Q839 50 834 50Q825 50 824 41Q829 37 848 36Q863 35 870 32Q848 20 813 20Q788 20 776 28Q777 32 790 34Q803 36 803 41V43Q779 46 753 46Q733 46 712 45Q698 46 683 46Q606 51 596 51Q587 51 578 50Q605 37 660 34Q669 33 752 32Q730 22 685 22Q657 22 643 23Q572 26 555 29Q511 36 490 55Q496 57 500 57Q521 54 541 50Q552 50 559 55Q520 64 481 80Q468 87 450 98Q431 110 415 111Q409 111 403 108Q398 99 392 90Q387 84 376 76Q360 64 356 56V50Q357 37 363 30Q370 22 375 13Q375 9 374 4Q374 -12 386 -19Q394 -23 416 -28Q435 -32 458 -39Q481 -46 501 -47Q506 -46 510 -46Q500 -41 489 -37Q478 -32 475 -20Q483 -14 506 -14H525Q534 -41 537 -91Q517 -88 504 -79Q491 -69 475 -62Q454 -70 449 -73Q436 -80 431 -92Q438 -148 466 -160H467Q470 -160 470 -157Q470 -154 473 -154Q484 -156 508 -166Q530 -175 540 -176V-188H537Q524 -184 513 -176Q510 -175 505 -175Q477 -178 460 -202Q463 -211 466 -220Q463 -226 463 -234Q463 -250 475 -260Q489 -265 514 -269Q522 -272 529 -277Q535 -282 547 -283Q549 -292 551 -301H550Q538 -301 517 -287Q501 -276 492 -275H487Q471 -275 458 -288Q449 -298 440 -316Q440 -324 442 -326Q436 -336 428 -343Q375 -340 328 -311Q330 -305 330 -303Q330 -297 324 -288Q316 -276 316 -268V-265Q342 -276 350 -280Q360 -291 372 -296Q376 -297 384 -297Q408 -297 423 -288Q440 -278 440 -259V-257Q439 -246 418 -206Q406 -186 370 -140Q338 -100 328 -82Q330 -76 334 -74Q339 -73 342 -70Q339 -68 339 -62Q339 -60 347 -40Q351 -38 362 -38Q357 -34 347 -34Q321 20 319 32Q314 24 294 16Q281 10 274 5Q268 8 260 21Q249 38 237 40Q242 24 249 11Q231 22 210 37Q190 52 186 82H187Q197 82 206 66Q217 47 231 47H234Q206 96 201 109Q178 109 166 114Q164 115 154 121Q148 121 141 112Q132 101 125 100Q116 85 116 63Q121 25 125 -13Q129 -9 132 5Q134 18 139 22Q149 15 172 -12Q185 -28 195 -37Q191 -46 183 -50Q175 -55 168 -61Q170 -64 170 -68Q170 -72 166 -80Q168 -84 178 -97Q171 -101 160 -113Q148 -127 138 -130Q132 -150 115 -158Q120 -165 126 -170Q123 -179 103 -179H89Q99 -185 127 -205Q156 -227 177 -236Q176 -224 163 -211Q154 -201 151 -194Q192 -215 216 -262H212Q205 -262 194 -252Q185 -244 181 -244H180Q180 -251 187 -261Q192 -268 193 -275Q180 -292 159 -317Q139 -342 137 -370Q137 -374 139 -382Q146 -403 169 -410Q193 -417 218 -424L220 -422Q216 -418 212 -411V-410Q217 -406 225 -406Q239 -409 252 -412Q251 -403 236 -399Q220 -394 219 -386Q220 -380 227 -380H231Q247 -381 265 -389Q284 -397 302 -404Q355 -423 369 -433Q365 -433 360 -434Q343 -434 313 -424Q283 -414 267 -412Q274 -425 289 -430Q303 -435 319 -439Q375 -454 406 -454Q406 -452 402 -446Q408 -440 416 -437Q430 -444 447 -448Q453 -448 457 -443H455Q444 -443 436 -434Q429 -426 429 -416Q429 -406 439 -400Q448 -403 457 -408Q467 -412 478 -413Q483 -413 486 -412Q476 -403 463 -397Q450 -392 446 -377Q499 -392 545 -414Q533 -440 523 -473Q528 -466 535 -463L538 -464L539 -468Q539 -471 533 -478Q525 -487 525 -495V-496Q538 -486 550 -476L551 -479Q549 -485 546 -491L547 -493Q558 -491 565 -483Q573 -492 591 -492Q616 -492 630 -478Q652 -453 659 -412V-409Q658 -395 647 -362Q635 -325 633 -311Q630 -287 621 -275Q616 -281 616 -291Q618 -306 620 -322Q620 -327 619 -329Q591 -296 589 -234Q587 -173 584 -113Q599 -134 598 -172Q598 -210 603 -241Q608 -257 619 -257V-247Q616 -211 613 -175Q613 -162 616 -149Q607 -125 607 -75Q608 -46 608 -17Q634 -20 660 -23H665V-38Q665 -63 670 -119Q676 -186 676 -218V-245Q677 -273 678 -301Q678 -310 677 -319Q671 -355 665 -391V-395Q669 -402 677 -407Q673 -468 672 -473Q666 -508 649 -520Q660 -558 718 -558Q726 -557 734 -557Q745 -549 758 -534Q774 -515 775 -505V-504Q775 -495 763 -476Q751 -457 751 -447Q751 -440 757 -431Q794 -454 840 -469L842 -468Q839 -463 836 -459L837 -457Q865 -474 893 -491V-489Q893 -485 876 -473Q861 -462 859 -452H862Q868 -452 875 -457Q884 -464 889 -464Q872 -452 872 -443Q872 -440 874 -436L876 -435Q878 -435 881 -438Q885 -442 890 -442H892Q887 -432 887 -421Q887 -407 896 -400Q888 -394 888 -381Q889 -377 889 -373Q879 -363 874 -346Q830 -334 794 -319Q796 -331 814 -341Q829 -349 833 -356H827Q804 -355 787 -343Q770 -332 751 -325Q751 -321 748 -320Q744 -318 744 -314V-313Q746 -311 749 -311Q762 -315 774 -320Q779 -320 782 -316Q779 -308 762 -301Q740 -292 740 -281Q740 -277 741 -274Q760 -280 780 -288Q799 -296 819 -297Q824 -297 834 -295Q846 -298 858 -301Q849 -297 849 -288V-287Q851 -284 852 -284Q856 -286 860 -288L862 -287Q856 -281 856 -271Q856 -260 859 -250Q853 -244 848 -239Q842 -233 841 -223H838Q768 -221 737 -175Q741 -171 748 -171Q753 -171 770 -176Q797 -181 827 -187Q856 -192 874 -208Q874 -199 884 -199Q888 -199 890 -200Q902 -179 923 -175H926Q925 -172 925 -164Q929 -133 933 -103Q929 -98 922 -97L921 -93Q922 -90 922 -87Q922 -84 920 -82Q890 -82 858 -91Q860 -97 873 -97H884Q897 -97 898 -103Q898 -109 873 -115Q857 -117 847 -117Q815 -117 785 -109Q753 -101 747 -88Q775 -94 817 -98Q839 -98 850 -88H838Q774 -88 741 -67V-63Q741 -50 748 -34Q766 -45 825 -50Q838 -51 860 -60Q884 -70 896 -70H901Q901 -63 900 -56Q900 -50 904 -46Q909 -47 920 -47H927L928 -45Q928 -44 926 -44Q923 -44 923 -41V-40Q924 -36 933 -35Q941 -35 942 -32V-31Q942 -28 939 -27Q935 -25 935 -23Z"/>
</svg>