<svg xmlns="http://www.w3.org/2000/svg" viewBox="0 -800 1024 1024">
	<path fill="#000000" d="M753 -309V-308Q747 -305 741 -303Q737 -303 735 -305Q735 -316 747 -316H751V-315Q752 -312 753 -309ZM867 -518V-510Q859 -505 849 -502L848 -506Q850 -518 862 -520Q865 -520 867 -518ZM906 -195L908 -194Q910 -191 910 -185Q905 -172 895 -161Q893 -174 894 -181Q896 -196 906 -195ZM867 -51V-38Q877 -67 889 -94Q891 -91 891 -84Q888 -68 884 -53Q877 -30 877 -11Q877 0 880 9Q877 17 877 25Q879 46 881 67Q881 73 880 75Q878 92 867 103Q860 110 841 121Q788 89 780 83Q745 57 736 30Q746 33 763 49Q779 64 788 68Q791 68 792 64Q793 60 795 60Q778 35 756 17Q734 0 709 -20Q686 -38 678 -38Q674 -38 672 -37Q676 -22 698 -6Q720 11 724 28Q701 13 683 -5Q664 -24 645 -42Q629 -33 598 0Q567 35 558 49Q549 61 545 65Q536 73 525 73Q518 73 507 70Q502 72 496 74H495Q497 70 498 66V65Q489 52 480 39Q471 28 471 27V24Q473 13 483 3Q482 -2 477 -15V-17Q481 -19 484 -22Q483 -32 477 -49V-50L484 -53Q493 -39 498 -34Q518 -44 540 -65Q570 -94 579 -100Q567 -116 553 -130Q538 -145 537 -170Q537 -184 539 -192Q551 -209 567 -209Q586 -208 605 -193Q624 -179 639 -169Q648 -177 657 -184Q665 -192 666 -206Q666 -207 664 -217Q660 -219 656 -219Q648 -218 639 -217Q646 -231 689 -262Q696 -269 706 -276Q716 -283 729 -284Q738 -284 742 -282Q755 -277 765 -249Q774 -240 783 -233Q792 -225 795 -212Q792 -199 791 -188Q790 -178 783 -170Q778 -164 763 -155Q750 -147 745 -143Q730 -126 717 -107Q727 -97 751 -85Q772 -75 783 -66Q804 -50 809 -50Q813 -50 818 -54Q822 -57 824 -57H825V-43Q844 -59 856 -110Q858 -116 860 -123Q861 -130 867 -133V-123Q867 -112 860 -85Q854 -62 854 -50Q855 -46 855 -42Q868 -86 880 -130Q887 -151 893 -155V-152Q893 -137 880 -101Q869 -71 867 -51ZM114 -272V-258H106V-262Q106 -269 105 -276V-280Q106 -281 107 -281Q109 -281 109 -284Q114 -283 114 -272ZM476 -212L472 -152V-143Q472 -122 482 -117Q485 -122 486 -140Q487 -160 493 -165Q499 -139 499 -116Q499 -92 493 -77Q474 -70 454 -68Q433 -68 425 -73Q420 -71 420 -64Q419 -58 417 -53Q400 -81 401 -131Q402 -181 397 -221Q392 -236 386 -252Q385 -256 385 -264Q385 -292 408 -308Q424 -319 457 -327Q462 -311 487 -289Q513 -266 517 -249Q509 -220 499 -195Q497 -198 497 -208V-221Q497 -232 494 -235Q478 -233 476 -212ZM715 -539Q720 -522 720 -511L721 -497Q716 -485 702 -470Q687 -453 677 -447Q668 -442 663 -415Q691 -425 721 -437Q752 -449 772 -469Q779 -465 788 -465Q802 -466 815 -477Q827 -487 841 -496Q839 -490 830 -480Q819 -467 819 -462Q819 -456 828 -452Q833 -454 846 -462Q860 -471 869 -472Q862 -463 850 -455Q838 -448 837 -436Q837 -431 841 -426Q851 -431 860 -436Q859 -430 852 -422Q843 -411 843 -404V-400Q843 -396 850 -396Q857 -396 861 -395Q860 -391 851 -383Q845 -378 843 -373Q839 -366 837 -356Q833 -339 828 -334Q807 -317 767 -316Q770 -326 779 -327Q789 -329 796 -332Q795 -344 785 -344Q783 -345 777 -345Q758 -345 710 -325Q682 -315 658 -305Q634 -295 629 -272L633 -271Q638 -274 643 -279Q655 -283 667 -287Q687 -296 699 -296H705Q700 -287 690 -284Q681 -282 669 -279Q650 -266 627 -254Q620 -243 606 -236L602 -235Q598 -235 597 -234Q591 -228 584 -225H582Q575 -226 570 -232Q565 -239 559 -243Q551 -247 543 -250Q534 -253 531 -264Q529 -282 529 -290Q530 -331 543 -367Q548 -386 555 -401Q566 -423 577 -424Q576 -410 571 -390Q566 -372 566 -360V-357Q600 -382 606 -431V-440Q606 -446 603 -450Q590 -454 589 -448Q588 -441 585 -433Q576 -443 583 -474Q560 -476 559 -497Q559 -523 557 -523Q529 -521 502 -514Q465 -505 456 -492Q458 -482 458 -478Q458 -448 422 -443Q445 -392 445 -368Q445 -355 441 -344Q421 -334 404 -319Q388 -304 370 -291Q332 -265 319 -246Q373 -208 374 -139Q363 -127 361 -89Q362 -81 363 -73Q363 -65 357 -64Q351 -70 351 -84Q353 -104 355 -124Q355 -130 354 -133Q335 -126 335 -82Q336 -31 352 -4Q354 -7 355 -17Q356 -30 361 -32Q362 -26 363 -9Q364 12 368 20Q364 26 358 31Q353 37 352 47Q346 50 338 50Q333 50 328 47Q320 49 316 65Q313 48 299 39Q285 29 275 18Q269 7 263 -4Q253 -16 248 -28Q242 -64 242 -84Q248 -102 253 -120Q263 -159 268 -168Q266 -173 264 -179L265 -183Q230 -147 200 -110Q169 -73 154 -15Q144 -10 133 -5Q112 -26 88 -26H83Q85 -31 87 -36V-38Q74 -69 74 -101Q74 -141 95 -167Q83 -239 83 -268V-280Q91 -267 90 -251Q99 -224 108 -197Q111 -186 112 -184Q115 -177 121 -176V-181Q121 -189 117 -204Q112 -223 112 -232Q112 -235 114 -245Q118 -230 121 -215Q130 -194 136 -192Q147 -200 157 -208Q188 -233 210 -260Q232 -287 257 -318Q264 -330 276 -333H278Q262 -298 220 -251Q187 -214 176 -197H177Q184 -197 189 -203Q194 -209 200 -215Q233 -244 270 -293Q295 -326 333 -381Q321 -380 309 -366Q298 -352 286 -351Q321 -424 373 -447Q361 -451 341 -451Q305 -451 264 -436Q222 -421 209 -401Q205 -392 201 -383H193Q152 -385 135 -412Q118 -438 103 -468Q104 -480 113 -498Q121 -514 121 -527Q120 -534 118 -541V-543Q121 -558 134 -567Q147 -575 158 -583Q169 -593 179 -604Q188 -616 202 -617H203Q195 -597 195 -594Q195 -587 201 -583Q206 -585 208 -590Q209 -595 212 -599Q213 -590 228 -575Q224 -571 209 -569Q190 -567 189 -557Q191 -549 199 -548Q206 -546 213 -543Q236 -551 261 -556Q287 -561 306 -572Q302 -577 294 -577Q274 -573 253 -569Q245 -569 241 -572Q250 -582 263 -584Q277 -585 292 -589Q287 -606 284 -627V-629Q284 -641 301 -662Q314 -678 316 -688H319Q328 -686 333 -681Q335 -683 335 -685Q335 -687 334 -690Q334 -692 336 -694Q361 -691 386 -688Q402 -669 420 -652Q438 -635 445 -607L448 -605H450Q464 -605 535 -629Q591 -648 598 -647Q601 -653 604 -658Q607 -663 614 -664Q613 -667 613 -674Q615 -691 620 -707Q620 -709 618 -709Q615 -709 615 -712V-713H609Q595 -713 587 -709Q578 -700 571 -697H569Q584 -717 609 -736V-752Q620 -755 639 -772Q663 -794 684 -794H691Q707 -792 722 -779Q730 -772 747 -753Q753 -753 763 -749Q768 -739 768 -737Q768 -735 766 -731Q752 -731 739 -744Q726 -757 715 -758Q716 -748 727 -733Q742 -712 742 -696V-691Q747 -689 748 -688Q753 -691 760 -705Q769 -723 777 -723Q782 -723 787 -719Q786 -714 781 -709Q774 -702 774 -695Q830 -703 881 -725Q887 -719 894 -707Q921 -718 953 -721Q945 -716 935 -712Q925 -708 922 -697Q925 -693 928 -693Q936 -695 944 -698Q947 -698 949 -697Q930 -683 930 -672Q930 -667 931 -664L934 -663Q938 -663 941 -664Q945 -664 946 -661Q933 -657 933 -632V-625Q916 -620 909 -609Q906 -604 896 -578Q894 -579 891 -579Q885 -576 879 -574V-572Q880 -567 881 -562Q858 -560 814 -557Q770 -554 727 -542Q723 -540 715 -539Z"/>
</svg>