<svg xmlns="http://www.w3.org/2000/svg" viewBox="0 -800 1024 1024">
	<path fill="#000000" d="M555 -185Q537 -174 529 -167Q515 -155 510 -140Q518 -138 526 -136H529Q532 -146 542 -160Q554 -177 555 -185ZM842 -348Q825 -363 809 -379Q793 -394 772 -406Q750 -385 746 -307Q764 -311 792 -327Q824 -345 842 -348ZM436 -336V-333Q435 -330 430 -327Q422 -322 422 -316V-315Q357 -278 306 -198Q309 -189 310 -178Q312 -167 322 -165Q333 -185 343 -208Q343 -210 339 -210H332Q341 -233 359 -245Q373 -254 401 -262Q410 -240 410 -187Q410 -171 404 -156H383Q375 -156 374 -155Q373 -153 370 -149Q382 -139 394 -139Q399 -139 402 -140Q405 -126 405 -118Q402 -95 399 -73Q381 -71 373 -58Q367 -58 355 -63Q343 -68 336 -68Q332 -68 329 -67Q327 -59 327 -54Q327 -43 332 -23Q327 -23 325 -20Q320 -25 320 -37V-55Q320 -66 317 -70Q304 -60 304 -24V0Q304 40 316 47Q318 44 321 24Q323 8 334 6Q337 9 337 15Q336 26 335 37Q337 45 338 53V54Q336 71 325 86Q307 104 304 104Q302 104 293 96Q280 84 272 84H268Q259 63 226 20Q223 20 220 19H217Q236 0 240 -18Q240 -22 235 -25Q231 -27 231 -30Q239 -35 249 -39V-127Q227 -109 208 -86Q190 -63 169 -42Q170 -63 197 -96Q216 -119 220 -131Q209 -129 189 -107Q139 -67 110 -7Q112 -3 114 0Q122 -2 131 -16Q141 -30 149 -30H153L154 -27Q154 -23 145 -14Q136 -1 127 14Q118 29 114 47Q97 40 82 40Q63 40 53 54Q54 44 61 39Q67 35 73 29Q65 15 58 -2Q51 -19 37 -27Q35 -61 29 -72Q35 -84 35 -106Q32 -147 28 -189V-207Q35 -196 40 -160Q44 -130 50 -118Q55 -122 55 -128Q52 -142 49 -157Q49 -162 50 -164Q57 -156 65 -136Q72 -119 76 -113Q127 -163 178 -212Q230 -262 271 -323Q238 -309 223 -295Q202 -276 199 -244Q178 -236 155 -236Q125 -236 108 -250Q92 -261 92 -290Q92 -310 101 -324Q94 -344 92 -366Q92 -375 96 -382Q99 -389 123 -410Q138 -436 153 -456Q167 -467 180 -479Q187 -485 193 -492Q199 -498 206 -499Q209 -499 211 -498Q209 -491 202 -483Q192 -471 192 -460V-455H194Q207 -455 227 -469Q242 -479 252 -482Q251 -471 242 -463Q237 -459 221 -451Q191 -437 189 -417Q194 -414 198 -414Q205 -414 223 -427Q239 -437 266 -460Q300 -488 316 -498Q312 -501 307 -501Q302 -501 290 -494Q278 -487 272 -487H271V-490Q271 -496 276 -499Q281 -502 285 -505Q315 -522 340 -543Q346 -538 355 -537Q354 -534 354 -529Q354 -520 361 -520Q368 -520 392 -534Q411 -545 416 -546L418 -545L417 -543Q397 -532 390 -526Q375 -514 375 -500Q375 -495 376 -492Q400 -508 405 -510V-509Q405 -505 399 -499Q391 -491 391 -484V-482L394 -480Q400 -482 406 -484H408Q404 -473 401 -457Q402 -453 402 -449Q406 -436 413 -428Q411 -420 411 -415Q411 -403 422 -382Q436 -355 436 -336ZM677 -245Q677 -221 662 -209Q655 -206 647 -203Q624 -189 609 -165Q595 -142 583 -121Q587 -113 594 -113Q605 -113 617 -127L618 -124Q615 -115 612 -107Q617 -107 623 -117Q631 -131 640 -131H641Q640 -125 633 -115Q625 -103 625 -97Q625 -91 627 -88Q630 -88 632 -94Q635 -100 640 -100H641L642 -96Q641 -89 639 -82Q639 -76 646 -59Q652 -45 653 -35Q654 -29 654 -17Q654 27 635 40Q626 46 616 46Q585 43 568 19Q552 13 542 1Q532 -11 521 -23Q484 11 475 56Q467 61 457 65Q445 62 444 62Q442 57 432 48Q419 37 417 26Q416 22 416 11Q416 -7 417 -16Q416 -56 423 -80Q425 -68 425 -54Q424 -40 433 -35Q449 -41 460 -52Q470 -64 481 -74Q469 -100 469 -109Q469 -116 470 -119Q460 -124 445 -140Q430 -156 418 -161Q414 -165 414 -173Q418 -190 421 -208V-214Q421 -228 420 -242Q420 -262 435 -265Q438 -265 441 -266Q450 -266 457 -262Q468 -268 481 -271Q487 -271 490 -269Q489 -266 480 -259Q470 -251 470 -247Q470 -243 478 -238Q532 -259 580 -289L579 -292L580 -293Q576 -296 569 -296Q562 -296 546 -288Q534 -282 529 -282Q527 -284 527 -286Q527 -289 537 -296Q554 -300 574 -307Q577 -312 580 -317Q599 -329 620 -329Q642 -329 651 -313H655Q665 -313 668 -308Q659 -303 659 -297Q659 -295 662 -292L664 -290Q667 -292 669 -294L671 -293Q674 -269 677 -245ZM660 -150V-148Q659 -142 653 -139Q647 -137 641 -134Q641 -136 640 -139Q643 -156 654 -157Q660 -157 660 -150ZM343 -650H347Q338 -641 325 -634Q312 -627 311 -611Q315 -600 320 -592Q310 -580 310 -563Q310 -554 313 -548Q296 -537 295 -520Q266 -524 256 -527Q234 -532 225 -543H224Q222 -542 219 -541Q219 -557 210 -568Q201 -579 189 -579Q181 -579 174 -574Q182 -585 196 -592V-596Q196 -614 186 -626Q176 -627 165 -629H162Q168 -638 174 -645Q174 -651 173 -658Q173 -673 188 -690Q204 -709 205 -724Q209 -724 211 -716Q213 -708 217 -707Q224 -717 231 -740Q239 -763 244 -773Q246 -770 246 -762Q243 -742 240 -723Q240 -715 244 -710Q252 -709 271 -699H272Q275 -699 279 -704Q284 -709 286 -709H288Q286 -697 283 -685Q283 -680 286 -676Q309 -689 337 -697Q322 -686 315 -679Q303 -667 303 -654Q303 -646 307 -638Q312 -639 322 -644Q333 -650 343 -650ZM938 -150Q938 -137 931 -134Q929 -140 929 -146Q929 -158 934 -161Q938 -160 938 -150ZM742 -617Q742 -590 721 -571Q678 -560 656 -529Q633 -496 609 -464Q608 -460 608 -453Q608 -441 617 -437Q622 -446 632 -451Q631 -438 629 -426Q629 -413 642 -410Q636 -404 636 -398Q639 -385 641 -372V-368Q633 -348 615 -341Q612 -340 606 -340Q584 -340 550 -364Q539 -350 529 -334Q519 -318 518 -293V-290H516Q510 -290 503 -284Q497 -279 495 -278Q471 -282 457 -307Q444 -331 444 -364Q444 -384 448 -400Q453 -399 454 -391Q456 -382 461 -382Q480 -398 498 -415Q498 -423 479 -430Q462 -437 462 -443V-444Q462 -451 471 -467Q476 -476 478 -482Q488 -487 499 -487Q547 -487 550 -486Q562 -509 573 -532Q562 -522 496 -495Q460 -504 446 -526Q445 -529 444 -533Q417 -572 417 -611Q418 -615 418 -620Q421 -641 449 -667Q450 -655 452 -643Q454 -632 462 -627Q547 -663 618 -713Q609 -719 602 -719Q589 -719 568 -702Q546 -684 534 -684Q542 -699 556 -707Q571 -715 586 -722Q593 -724 602 -737Q608 -746 614 -750Q623 -758 641 -758Q666 -758 688 -742H701V-729Q701 -724 703 -718L705 -717Q709 -718 713 -720L716 -719Q715 -715 713 -711V-709Q720 -692 724 -671Q728 -650 740 -637Q742 -623 742 -617ZM964 22Q964 28 963 34Q961 49 947 70Q932 92 919 94Q916 95 913 95Q902 94 895 87Q887 79 880 73Q869 66 860 60Q851 55 848 43Q860 44 867 50Q874 57 882 61Q885 59 888 56H889Q883 35 867 20Q850 5 835 -8Q817 -26 786 -46Q784 -38 784 -36Q784 -26 800 -14Q816 -1 817 11Q800 2 787 -10Q774 -23 760 -34Q748 -29 748 -11Q749 -6 749 -2Q740 8 733 22Q726 38 712 40Q704 40 697 30Q690 20 682 19Q674 -45 657 -82Q666 -78 677 -61Q684 -50 689 -46Q701 -59 712 -73Q686 -94 682 -136Q682 -157 695 -169H700Q718 -168 729 -161Q741 -154 752 -147Q761 -155 763 -173Q751 -168 744 -168Q729 -168 706 -185Q705 -192 695 -202Q691 -240 683 -259Q684 -261 684 -265Q684 -270 683 -276Q683 -279 685 -285Q686 -288 693 -292Q697 -294 697 -296Q690 -305 682 -314Q674 -325 674 -342V-364Q674 -379 666 -411Q660 -435 659 -449Q665 -444 673 -428Q678 -416 682 -412Q695 -420 703 -434Q710 -447 718 -460Q702 -476 694 -500Q700 -513 707 -529Q715 -545 737 -547Q743 -547 746 -546Q753 -542 759 -538Q772 -563 784 -589Q770 -594 761 -609Q755 -618 746 -641Q733 -664 730 -682Q731 -685 731 -688Q732 -700 749 -716Q764 -730 781 -739Q796 -748 808 -760Q821 -772 841 -773H846Q849 -773 870 -764Q875 -766 880 -769H883L885 -766Q884 -762 883 -759L885 -757L888 -756Q894 -756 905 -767Q915 -777 921 -779Q921 -774 914 -766Q905 -755 905 -749L906 -745H908Q911 -746 915 -750Q918 -755 924 -756Q914 -734 914 -724Q914 -721 916 -713H917Q922 -716 924 -720L925 -719Q923 -695 923 -674Q923 -653 915 -640Q913 -636 895 -619Q879 -605 876 -604Q875 -606 875 -610Q875 -618 888 -629Q898 -637 900 -644Q895 -649 887 -649Q873 -649 855 -629Q841 -606 827 -577Q812 -556 808 -534Q808 -526 812 -521Q824 -524 832 -547Q841 -572 857 -574Q853 -561 840 -539Q828 -519 824 -506Q848 -474 891 -464Q900 -469 903 -493Q906 -519 915 -523Q911 -501 911 -485Q911 -465 916 -454Q919 -457 920 -465Q922 -478 928 -479Q927 -474 927 -464Q927 -447 931 -434Q941 -418 947 -401V-377Q951 -360 954 -344Q952 -329 941 -318Q928 -305 911 -305Q903 -305 898 -307Q910 -279 910 -263V-260Q908 -237 889 -224Q869 -212 852 -200Q822 -155 808 -121Q831 -101 842 -95Q862 -83 888 -82Q896 -89 899 -114Q902 -137 907 -143Q910 -135 910 -126Q909 -111 908 -96Q908 -89 909 -86Q919 -179 919 -191Q918 -198 916 -205Q916 -209 922 -211Q923 -145 928 -82Q930 -91 930 -103Q929 -115 938 -118Q934 -107 934 -95Q934 -74 948 -39Q964 2 964 22ZM923 -555Q923 -547 916 -538Q911 -540 911 -549Q911 -560 918 -563Q923 -560 923 -555Z"/>
</svg>