<svg xmlns="http://www.w3.org/2000/svg" viewBox="0 -800 1024 1024">
	<path fill="#000000" d="M729 19H718Q711 19 709 20L707 16Q707 8 724 8Q740 8 740 16Q737 19 729 19ZM556 -191V-179Q547 -173 535 -170Q531 -173 531 -178Q531 -184 536 -190Q541 -196 547 -196Q551 -196 556 -191ZM382 -308Q404 -312 404 -367Q404 -374 403 -382Q381 -372 381 -326Q381 -314 382 -308ZM313 -266V-271Q314 -289 315 -307Q315 -321 310 -331Q249 -297 249 -254Q249 -248 253 -232Q265 -236 283 -249Q302 -262 313 -266ZM933 -94H945Q955 -94 956 -86Q937 -86 932 -80Q936 -75 943 -75Q952 -76 960 -77L959 -73Q962 -63 965 -53Q960 -42 954 -32Q952 -22 952 -18Q953 -9 953 0Q953 12 947 17Q936 18 931 23Q926 28 919 32Q858 19 802 19H792Q783 20 773 21Q762 21 759 13Q777 8 795 8Q842 12 889 15Q905 15 913 13Q896 -12 810 -12Q774 -12 718 -8Q680 -6 666 -2Q641 5 641 22Q642 25 642 28Q654 21 672 19H677Q661 32 647 53Q633 69 623 69Q614 69 605 61Q603 60 599 52Q585 41 572 29Q564 19 558 -28Q557 -32 557 -40Q557 -62 575 -103Q584 -90 603 -90Q635 -94 663 -107V-108Q664 -113 665 -118Q665 -121 663 -122H660Q654 -120 647 -118Q632 -139 611 -154V-155Q614 -162 618 -167Q613 -180 606 -192Q599 -204 581 -206Q585 -211 595 -212Q604 -213 611 -215Q618 -228 635 -235Q645 -239 671 -244Q672 -248 672 -252Q672 -267 668 -274Q645 -267 623 -259Q602 -250 590 -232Q573 -235 557 -248Q541 -261 538 -277Q538 -281 537 -285Q539 -301 547 -314Q549 -320 550 -335Q551 -353 556 -361Q570 -364 583 -367Q582 -363 577 -356Q572 -349 572 -344Q572 -343 574 -337Q577 -336 583 -336Q600 -336 633 -354Q662 -370 677 -373Q671 -382 658 -382Q649 -382 629 -375Q607 -367 597 -367H596Q608 -383 627 -388Q646 -393 663 -403Q658 -416 647 -424Q617 -431 581 -475Q575 -482 569 -507Q563 -532 556 -541Q552 -544 547 -545Q541 -547 541 -553Q545 -555 546 -555Q554 -551 561 -548V-550Q561 -562 543 -573Q530 -581 527 -586L531 -587Q537 -587 546 -581Q559 -572 568 -572H572Q593 -573 612 -583Q630 -594 644 -601Q652 -615 652 -636Q652 -652 646 -662Q639 -674 626 -674Q620 -674 611 -671Q613 -678 624 -688Q633 -697 636 -704Q631 -714 623 -722Q625 -734 635 -744Q646 -754 656 -764Q674 -781 692 -799Q735 -777 738 -742Q731 -743 722 -752Q715 -760 709 -761Q704 -754 704 -750Q704 -743 715 -730Q723 -720 725 -715Q728 -706 727 -697Q727 -688 735 -682Q749 -687 749 -710Q749 -723 746 -734H748Q755 -734 759 -729Q763 -725 768 -722Q767 -705 758 -681Q751 -663 749 -650Q754 -650 763 -656Q777 -665 784 -665Q787 -664 789 -664Q788 -660 784 -657Q778 -653 778 -649V-646L781 -645Q787 -647 793 -650L796 -649L798 -646Q797 -644 795 -642V-641Q805 -643 824 -652Q846 -663 860 -665Q850 -656 831 -646Q812 -635 810 -620Q810 -613 815 -607Q821 -609 826 -611H830Q824 -604 820 -586Q821 -583 821 -581Q829 -573 829 -556Q828 -539 827 -522Q827 -512 829 -508H828Q822 -508 819 -501Q815 -492 814 -491Q778 -477 741 -463Q738 -456 738 -434V-418Q756 -421 773 -424H778Q773 -417 752 -407Q732 -398 728 -385H731Q756 -389 781 -397Q823 -406 833 -413Q829 -422 819 -423Q808 -423 798 -424L797 -428Q800 -433 803 -439Q805 -438 808 -438Q814 -438 821 -446Q830 -457 833 -458V-469Q833 -474 835 -478Q843 -468 848 -455Q874 -459 900 -464Q892 -458 884 -453Q875 -449 874 -436H875Q881 -437 886 -439Q889 -439 891 -437Q877 -426 876 -422L875 -418Q878 -409 880 -400Q880 -393 879 -386V-383Q883 -374 886 -365V-359Q886 -349 879 -336Q872 -323 871 -320Q776 -308 743 -287Q743 -284 747 -284H749Q752 -284 753 -281Q751 -271 749 -262H752Q768 -266 784 -270Q787 -270 789 -269Q792 -269 796 -274Q801 -280 807 -280H808Q808 -278 805 -235Q806 -228 815 -228Q820 -228 823 -229Q808 -220 808 -185V-179Q797 -169 780 -167Q763 -165 749 -161Q738 -142 735 -118Q771 -114 801 -114Q831 -114 845 -116Q882 -120 895 -128Q902 -133 906 -146Q910 -160 919 -164V-161Q915 -143 910 -125Q910 -116 916 -112H929Q936 -112 938 -110Q938 -105 931 -104Q924 -102 924 -99V-98Q927 -94 933 -94ZM476 11V14Q472 2 451 -35Q429 -28 392 -6Q357 15 334 22Q335 13 343 6Q345 5 359 -4Q374 -13 389 -23Q402 -28 415 -33Q428 -38 436 -49Q432 -50 424 -50Q405 -50 380 -38Q364 -30 338 -14Q310 -1 280 12Q250 24 238 53Q244 56 249 56Q258 56 272 46Q287 35 294 35H296Q293 46 284 52Q276 58 269 64Q263 70 248 100H247Q226 99 215 90Q203 80 194 69Q180 47 147 44H140Q128 36 128 25Q128 17 137 0Q144 -13 144 -19V-20Q144 -32 129 -45Q114 -59 114 -73V-74Q123 -71 135 -55Q145 -41 149 -38V-39Q149 -43 144 -50Q138 -59 138 -63V-65Q144 -62 154 -53Q168 -40 179 -38Q245 -66 309 -98Q315 -111 315 -137Q315 -156 313 -164Q280 -145 280 -118Q280 -110 281 -106Q281 -102 276 -100Q270 -98 270 -93Q266 -97 260 -97Q252 -96 243 -95H239Q228 -99 217 -103Q215 -103 211 -101Q195 -117 186 -121H185Q181 -119 177 -118H176Q182 -127 182 -135Q182 -146 174 -164Q165 -185 165 -193V-196Q176 -192 184 -170Q192 -147 204 -143V-145Q202 -197 170 -225Q136 -254 102 -280Q90 -278 80 -278Q71 -277 69 -268V-263Q70 -251 80 -245Q87 -241 103 -237Q118 -233 127 -230Q139 -225 141 -218Q138 -217 132 -217Q112 -221 92 -226Q88 -226 82 -224Q65 -239 46 -255Q27 -271 25 -297Q26 -326 43 -344Q60 -363 75 -383Q68 -400 65 -417Q65 -425 67 -428Q73 -416 78 -402Q83 -389 94 -382Q84 -408 80 -440Q80 -450 81 -455Q87 -438 92 -419Q98 -401 112 -392Q111 -397 106 -405Q99 -417 99 -424Q99 -428 100 -430Q106 -426 115 -412Q121 -402 127 -397Q131 -398 137 -398Q154 -397 162 -387Q170 -377 180 -368Q242 -406 303 -448Q300 -456 300 -475V-488Q300 -500 297 -512Q289 -522 286 -532L287 -536Q274 -532 263 -519Q261 -516 245 -494Q249 -514 260 -532Q285 -583 316 -629L319 -631Q322 -633 327 -633Q336 -632 345 -631H347Q364 -614 381 -597Q397 -580 420 -569Q410 -547 408 -520V-512Q421 -517 440 -522Q460 -526 470 -538Q470 -526 467 -517Q475 -519 487 -530Q501 -543 513 -544Q506 -535 503 -524Q503 -520 504 -518Q506 -520 514 -524L518 -523Q514 -516 514 -510Q517 -494 535 -479Q542 -470 547 -461Q553 -452 565 -449Q567 -428 568 -407Q568 -363 537 -358Q548 -382 552 -408Q552 -425 537 -433Q521 -431 515 -409Q507 -380 504 -376Q501 -373 496 -373H494Q482 -362 476 -342Q469 -322 460 -305Q449 -288 445 -265Q445 -258 448 -251Q467 -264 475 -287Q483 -309 492 -329Q498 -330 507 -336Q517 -342 524 -343Q507 -317 494 -285Q481 -254 467 -224V-214Q467 -208 466 -206Q464 -205 459 -205Q450 -207 442 -214Q427 -215 411 -224Q381 -215 374 -205Q374 -157 377 -137Q419 -144 421 -191Q428 -185 443 -174Q457 -162 468 -161H469Q480 -163 485 -175Q491 -189 504 -194Q504 -187 496 -173Q489 -160 489 -153Q489 -149 492 -145Q502 -149 511 -156Q519 -162 532 -164Q531 -158 524 -151Q520 -147 518 -143Q518 -139 517 -135Q517 -109 539 -109Q544 -109 556 -113V-112Q556 -108 547 -101Q539 -95 538 -93Q545 -59 549 -28Q549 -14 543 -1Q539 0 524 7Q523 17 519 23Q514 14 503 9Q492 5 482 1Q476 5 476 11Z"/>
</svg>