<svg xmlns="http://www.w3.org/2000/svg" viewBox="0 -800 1024 1024">
	<path fill="#000000" d="M571 4Q570 14 553 14Q548 9 548 6Q550 -2 560 -3Q568 -3 571 4ZM823 -55L819 -54Q808 -54 808 -68Q808 -79 815 -80Q824 -79 824 -63Q824 -57 823 -55ZM94 -205H88Q86 -211 86 -214Q87 -232 97 -235Q101 -235 103 -233Q102 -221 94 -205ZM470 -649Q465 -657 449 -657Q437 -657 427 -652Q417 -647 417 -640Q417 -638 421 -632Q434 -635 449 -637Q463 -640 470 -649ZM376 -326Q353 -321 334 -310Q314 -299 297 -291Q310 -278 322 -266Q346 -278 370 -291Q369 -294 369 -299Q369 -308 376 -326ZM495 10H493Q463 9 448 -5Q432 -19 417 -34V-40Q417 -58 430 -71Q442 -83 458 -83Q476 -83 485 -68Q497 -73 509 -79Q509 -73 504 -69Q499 -65 499 -61Q499 -58 500 -56Q502 -53 508 -53H511Q516 -53 518 -52V-51Q518 -47 512 -44Q508 -42 507 -38Q510 -30 510 -22Q510 0 495 10ZM297 42H287Q272 42 270 50Q259 37 250 34H249Q241 38 237 42H235Q238 34 244 28Q225 10 211 -32L213 -34Q215 -34 220 -29Q222 -32 224 -35H227Q231 -34 235 -34Q239 -34 251 -38Q272 -45 282 -45Q290 -45 297 -41Q325 -22 325 12Q325 17 324 22Q304 27 297 42ZM658 -83H656Q645 -85 634 -88L630 -87Q620 -82 616 -72Q613 -62 608 -46Q604 -47 604 -55Q607 -72 609 -89Q609 -101 601 -101Q597 -101 596 -96Q594 -92 592 -89Q580 -115 565 -115Q559 -115 556 -113L554 -114Q557 -118 559 -123V-124Q555 -144 544 -159Q552 -162 568 -172Q588 -185 599 -187Q602 -188 608 -188Q620 -188 629 -183Q638 -178 649 -175Q670 -154 689 -131Q690 -127 690 -120Q690 -89 658 -83ZM411 -34H410Q401 -34 400 -50Q399 -68 393 -71Q386 -44 386 5Q386 30 387 40Q398 34 401 21Q404 7 408 -5Q416 3 416 19Q412 57 392 77Q386 76 379 71Q374 67 370 67Q367 67 361 70Q354 53 345 40Q336 27 335 10V6Q335 -2 339 -19Q344 -40 344 -52Q344 -60 341 -71Q326 -68 320 -65Q310 -60 309 -49Q302 -45 294 -45Q277 -45 262 -59Q248 -72 247 -85V-87Q251 -107 266 -125Q273 -118 283 -118Q303 -120 328 -128Q369 -138 374 -139Q453 -150 470 -158Q482 -167 491 -176L493 -173Q491 -166 489 -159Q494 -158 498 -158Q503 -158 507 -159V-156Q505 -152 503 -149Q511 -135 518 -122Q516 -117 509 -110Q500 -101 498 -93Q486 -96 472 -96Q440 -96 414 -85Q415 -82 415 -76Q413 -57 411 -38ZM900 -699V-698Q906 -680 912 -662Q909 -659 909 -655Q911 -645 913 -636Q913 -632 910 -631Q912 -628 916 -628Q915 -626 910 -623Q905 -620 905 -618Q905 -615 907 -613Q895 -613 885 -599Q861 -592 805 -580Q725 -563 689 -548Q645 -496 615 -433Q606 -434 602 -445Q633 -488 657 -538Q655 -541 652 -544Q641 -542 635 -531Q630 -520 623 -511Q618 -507 612 -503Q599 -485 590 -469Q580 -453 561 -452Q557 -452 547 -454Q543 -458 536 -460Q534 -460 530 -458Q524 -468 518 -479Q515 -480 510 -480Q500 -480 490 -473Q483 -468 480 -468L476 -469Q479 -474 492 -484Q514 -502 524 -512Q541 -529 549 -548Q532 -595 532 -628Q532 -638 533 -643Q536 -660 559 -668Q573 -673 606 -676Q616 -688 616 -707Q616 -727 601 -731H600Q596 -731 590 -724Q586 -719 582 -719H581L580 -722Q585 -734 596 -740Q613 -758 635 -780Q657 -802 682 -805H684Q719 -805 749 -780Q775 -758 789 -725Q783 -710 780 -693Q818 -694 852 -712V-713Q852 -728 836 -728Q821 -728 805 -718V-721Q805 -731 817 -739Q828 -746 841 -746Q848 -746 851 -745Q857 -744 863 -737Q869 -730 873 -730Q883 -735 895 -735Q906 -735 909 -730Q903 -727 896 -724Q890 -722 889 -716Q889 -714 891 -710L894 -708Q897 -708 900 -709Q902 -709 904 -707L905 -705Q905 -704 903 -703Q900 -702 900 -699ZM824 23V59Q821 78 799 99Q778 119 763 120Q757 120 747 114Q738 108 731 107Q728 100 719 90Q709 80 707 74Q699 74 685 70V68Q685 66 690 65Q694 65 695 62Q687 43 663 39Q639 35 621 26H623Q640 29 657 31Q666 31 670 26Q656 19 622 14Q595 10 578 4Q586 1 594 1Q624 5 653 9Q657 9 661 8Q642 -3 592 -10Q553 -16 538 -21Q539 -28 548 -28Q556 -27 563 -26Q647 -17 656 -17Q690 -17 709 -26Q713 -123 716 -221V-247Q702 -247 680 -239Q658 -231 642 -231H639Q647 -243 679 -252Q711 -261 719 -274Q715 -281 706 -281Q703 -281 682 -275Q663 -268 644 -262Q615 -254 587 -246Q560 -239 546 -217Q553 -207 561 -207Q568 -207 582 -215Q598 -224 605 -224Q611 -224 614 -222V-220Q613 -211 599 -211Q593 -209 581 -199Q569 -188 560 -188H559Q549 -193 543 -200Q534 -205 519 -211Q504 -216 498 -228Q496 -236 496 -239Q500 -257 503 -275Q503 -283 498 -291Q501 -312 516 -321Q532 -330 547 -340Q558 -351 566 -363Q574 -375 587 -379V-376Q587 -372 579 -364Q567 -352 567 -340Q568 -337 568 -334H569Q571 -334 575 -341Q580 -351 586 -352Q589 -350 589 -348Q589 -344 588 -341Q588 -338 590 -337Q656 -346 719 -364V-369Q719 -410 695 -443H693Q686 -443 682 -434Q677 -422 673 -419Q671 -423 671 -425Q673 -432 674 -440Q677 -451 679 -463Q683 -474 700 -491Q717 -508 722 -517Q730 -532 736 -543Q743 -554 756 -559Q760 -559 763 -560Q786 -556 808 -548Q812 -531 829 -511Q849 -487 852 -469Q835 -440 834 -437Q825 -417 824 -397Q852 -402 880 -407Q888 -423 892 -440Q898 -434 900 -416Q902 -401 904 -397H906Q913 -399 920 -401Q923 -400 925 -400V-398Q925 -395 921 -393Q917 -391 917 -388Q920 -384 923 -384Q927 -384 931 -385Q928 -376 928 -364Q928 -345 935 -328L939 -327Q945 -328 951 -329Q954 -329 956 -328Q953 -323 944 -319Q931 -313 931 -303V-299Q914 -297 897 -296V-298Q897 -304 905 -310Q911 -314 912 -319Q904 -327 887 -327Q882 -327 880 -326Q824 -313 820 -308Q819 -301 817 -294Q822 -291 829 -291Q850 -294 870 -298Q880 -298 885 -294Q884 -289 877 -289Q872 -289 867 -290H866Q845 -280 823 -275Q817 -249 817 -198V-179Q817 -137 814 -118Q803 -127 803 -150Q804 -164 804 -178V-184Q805 -204 806 -225Q806 -241 801 -251Q787 -238 787 -210Q789 -184 790 -159Q787 -117 784 -76Q789 -45 793 -14V-9Q792 9 791 26Q791 42 799 50Q814 37 814 12Q814 -13 818 -34Q829 -28 829 -13Q827 5 824 23ZM441 -167H429Q421 -167 421 -161V-158Q374 -142 326 -138Q310 -138 297 -142L295 -143Q298 -147 301 -152Q295 -163 292 -176Q292 -178 294 -184Q272 -173 259 -152Q246 -131 233 -109Q208 -74 195 -37Q192 -36 188 -28Q183 -17 177 -16V-20Q178 -39 188 -56Q198 -74 209 -89Q233 -120 247 -159Q229 -148 210 -124Q203 -114 179 -79Q164 -57 148 -35Q132 -12 122 14Q128 24 134 24Q139 24 150 13Q160 3 165 2Q166 5 166 7Q165 18 158 29Q151 40 147 50Q136 56 125 58Q124 46 115 40Q107 34 95 34H90Q87 24 79 15Q74 10 63 2Q58 -28 48 -41Q58 -57 65 -91Q67 -99 75 -149Q76 -165 78 -179Q80 -193 91 -199Q87 -167 82 -124Q82 -100 94 -89Q93 -109 91 -130Q91 -154 103 -161V-147Q103 -118 111 -103Q158 -148 178 -170Q213 -208 235 -247Q232 -252 226 -253Q220 -254 214 -257Q211 -259 183 -287Q179 -294 179 -302Q180 -311 180 -321Q180 -328 179 -331Q177 -338 167 -346Q156 -355 153 -364Q163 -362 172 -361H176Q174 -372 165 -376Q156 -379 152 -388Q172 -382 192 -377Q197 -381 206 -381Q216 -380 226 -380H233Q248 -383 260 -391Q291 -399 322 -407Q354 -416 379 -436Q375 -443 358 -447Q345 -450 340 -455Q330 -464 325 -481Q310 -480 267 -466Q254 -462 234 -446Q214 -430 204 -430Q191 -430 176 -448H169Q142 -448 125 -461Q107 -475 107 -499Q107 -513 114 -530Q122 -542 127 -559Q134 -595 141 -602Q149 -611 186 -632Q186 -624 181 -612Q175 -597 175 -590Q176 -587 176 -584Q180 -569 197 -569Q201 -569 233 -577Q254 -578 269 -589H267L265 -590V-594L263 -593L261 -595Q264 -597 267 -599Q260 -607 251 -607Q245 -607 233 -602Q218 -596 211 -596H207Q205 -598 205 -604V-610Q228 -617 253 -623Q251 -633 251 -639Q251 -655 259 -665Q267 -676 282 -677Q283 -681 283 -686Q282 -695 281 -705Q282 -708 282 -712Q287 -712 290 -703Q293 -694 298 -694H301L302 -698Q302 -702 301 -707V-710H304Q310 -708 313 -704Q329 -720 345 -720Q365 -720 384 -700Q400 -683 409 -659Q440 -671 476 -675Q484 -675 488 -674Q496 -669 506 -665Q513 -646 524 -632Q516 -620 516 -602L518 -601H522L524 -599L512 -545Q466 -536 429 -514Q423 -490 421 -467Q424 -463 429 -463H439Q458 -457 477 -451Q486 -449 494 -448Q501 -437 507 -426Q517 -414 526 -402Q534 -390 535 -374Q535 -362 530 -352Q503 -336 482 -303Q468 -281 450 -238Q353 -228 313 -197Q324 -197 353 -209Q385 -222 399 -222Q417 -222 423 -208Q429 -210 434 -210Q439 -210 441 -208V-205Q441 -201 435 -197Q437 -187 441 -181Q440 -179 435 -179V-178Q435 -176 438 -174Q441 -172 441 -168Z"/>
</svg>