<svg xmlns="http://www.w3.org/2000/svg" viewBox="0 -800 1024 1024">
	<path fill="#000000" d="M750 -292V-294Q750 -298 754 -301Q758 -304 761 -304Q768 -304 769 -300Q765 -291 754 -291ZM597 -444V-436Q589 -434 582 -434Q576 -434 574 -436Q576 -444 589 -444ZM218 -629V-623Q208 -616 197 -616Q198 -632 217 -634Q218 -633 218 -629ZM587 -155H589Q591 -164 592 -173V-177L589 -178Q571 -175 556 -168Q541 -160 526 -154Q517 -152 508 -151Q495 -144 485 -136Q474 -128 459 -127Q455 -127 445 -129L433 -136V-135Q430 -127 426 -122L427 -120Q433 -119 444 -119Q469 -119 511 -129Q547 -138 568 -138Q571 -144 575 -149Q578 -155 587 -155ZM803 -591V-585Q803 -577 797 -567Q793 -560 792 -554Q783 -560 773 -560Q754 -556 734 -553Q731 -553 727 -554Q732 -563 753 -570Q767 -575 773 -580Q771 -587 757 -587Q750 -586 742 -586Q707 -583 677 -572Q642 -560 628 -543H632Q663 -548 693 -553Q700 -553 706 -554Q713 -554 714 -550Q712 -544 707 -544Q701 -544 696 -543Q652 -537 616 -516Q579 -496 575 -445Q522 -457 498 -481Q496 -480 465 -477Q476 -485 502 -493V-496Q502 -501 507 -514Q491 -540 477 -571Q480 -577 480 -583Q480 -598 465 -628Q468 -627 474 -627Q486 -627 511 -638Q531 -647 540 -647H544Q553 -655 562 -681Q569 -699 574 -707Q567 -723 545 -723Q527 -723 514 -713Q530 -737 572 -761Q619 -788 633 -804H641Q665 -803 678 -792Q691 -781 699 -766Q711 -738 735 -721Q721 -711 719 -688Q728 -695 737 -702Q745 -710 760 -711Q764 -710 767 -710Q776 -697 790 -689Q827 -697 836 -697Q845 -697 851 -694Q835 -686 818 -679Q805 -670 805 -663Q805 -658 807 -655Q813 -658 819 -663Q824 -668 833 -668Q836 -667 839 -667Q835 -662 825 -655Q809 -645 807 -634L808 -633Q813 -635 817 -637Q820 -637 821 -635Q813 -626 807 -616Q807 -612 813 -606Q818 -601 818 -595Q805 -592 803 -591ZM737 74H748Q733 52 698 50Q681 50 673 58Q674 63 685 65Q695 66 696 72Q666 75 630 75Q558 73 485 71Q501 60 540 60Q574 61 607 62Q643 62 658 52Q646 42 624 42Q601 44 578 45Q571 46 556 46Q531 46 506 45H494Q449 50 403 54Q378 58 369 72Q373 78 381 78Q396 76 411 74Q421 74 424 81Q407 83 390 87Q373 90 368 106Q366 106 363 105Q349 109 335 112Q320 141 306 146H288Q282 146 280 145Q257 129 253 122Q242 111 234 81Q233 66 231 54Q229 41 215 38V36Q215 35 220 34Q224 34 224 30Q220 23 205 23Q210 20 225 16Q243 11 249 5H259Q262 -1 265 -7Q283 -13 292 -27Q300 -41 310 -55Q313 -52 313 -47Q312 -37 310 -28Q310 -23 313 -22Q353 -84 354 -114V-124Q354 -185 335 -192Q328 -186 328 -173Q332 -144 335 -115Q335 -90 319 -83Q321 -95 321 -102Q321 -124 313 -152Q305 -166 297 -180Q293 -191 289 -202Q281 -213 277 -222V-223Q286 -221 294 -220H298Q307 -237 321 -240Q303 -248 286 -258V-261Q286 -271 272 -287Q262 -299 262 -305Q262 -311 271 -319Q271 -329 261 -335Q244 -345 243 -346Q247 -348 248 -348Q255 -346 262 -344H264Q262 -360 248 -364Q234 -369 220 -373Q225 -376 232 -376Q247 -374 262 -373Q260 -379 255 -382Q249 -385 243 -388Q238 -387 229 -387Q196 -389 174 -410Q152 -432 129 -450V-458Q129 -480 122 -493Q129 -517 133 -538Q137 -560 150 -575Q169 -592 188 -610Q182 -602 177 -595Q171 -587 171 -574V-571H172Q175 -571 180 -578Q187 -588 194 -589V-587Q194 -582 193 -578V-575Q213 -578 230 -591Q246 -597 270 -604Q263 -623 263 -643Q263 -662 269 -674Q276 -688 289 -688Q292 -688 300 -686L303 -685Q307 -687 311 -689H312Q330 -683 356 -659Q381 -636 399 -629Q402 -630 405 -633Q410 -638 413 -638H417L418 -636Q418 -632 417 -628L419 -625Q436 -615 448 -601Q461 -587 474 -575V-571Q474 -563 478 -548Q483 -530 483 -520V-513Q469 -506 458 -502Q447 -499 439 -487Q434 -478 429 -458Q423 -432 412 -424Q403 -420 393 -416Q375 -421 359 -421H353Q351 -430 342 -439Q330 -441 325 -441Q303 -441 288 -431V-432Q288 -439 301 -447Q313 -454 315 -460Q249 -458 242 -427L246 -426Q257 -428 268 -431Q271 -430 273 -430Q271 -421 261 -411Q251 -401 249 -394Q256 -387 268 -387Q289 -387 310 -408Q325 -407 339 -407Q347 -407 359 -409Q358 -407 356 -406Q396 -411 437 -420Q478 -428 519 -429Q527 -428 535 -428Q517 -418 456 -405Q428 -401 401 -397Q375 -393 360 -379Q369 -373 380 -373Q385 -373 418 -382Q451 -392 547 -410Q621 -424 662 -434Q658 -442 648 -442Q639 -441 629 -440Q622 -440 619 -445Q623 -453 643 -455Q660 -457 665 -463Q670 -463 675 -464Q694 -464 704 -454Q723 -461 747 -463H751Q743 -458 734 -455Q725 -452 724 -441V-439H725Q732 -442 739 -445L741 -444Q737 -437 735 -429V-425L736 -423L740 -424Q742 -424 744 -422Q741 -419 741 -415Q741 -406 748 -399Q732 -389 730 -369Q730 -360 735 -355Q732 -348 726 -344Q720 -340 716 -336Q658 -327 592 -321Q576 -316 559 -312H538Q514 -304 489 -296Q473 -292 457 -290Q442 -288 433 -278Q431 -279 426 -279Q412 -278 399 -269Q386 -261 375 -253Q398 -240 424 -240Q439 -240 458 -243Q471 -245 497 -253Q532 -264 547 -264Q551 -264 554 -265Q562 -265 566 -259Q559 -253 520 -246Q488 -240 486 -223Q514 -231 542 -240Q560 -243 576 -246Q593 -248 604 -261Q600 -266 598 -278Q600 -281 609 -286Q620 -292 622 -300Q627 -295 646 -294Q673 -293 677 -281H679Q684 -283 689 -286L692 -284L693 -281V-274Q693 -266 696 -264Q704 -266 718 -274Q732 -282 741 -284Q739 -280 730 -274Q722 -269 719 -262Q724 -263 736 -270Q754 -280 766 -281Q762 -275 746 -267Q728 -258 724 -247L726 -246Q733 -247 739 -249H742Q730 -244 730 -232Q730 -223 741 -220Q739 -218 739 -213Q739 -202 748 -193Q738 -183 736 -165V-162Q716 -160 702 -151Q688 -142 677 -135Q684 -158 696 -168Q700 -171 710 -178Q720 -185 721 -191Q721 -197 710 -198H707Q698 -198 687 -190Q675 -181 661 -156Q645 -127 645 -107Q646 -103 646 -100H648Q651 -100 656 -107Q662 -114 667 -115V-108Q667 -94 658 -67H653Q632 -64 619 -52Q618 -59 611 -59Q607 -59 603 -57Q596 -69 583 -69Q567 -66 550 -63Q517 -58 513 -57Q497 -50 483 -42Q468 -35 453 -34H449Q442 -35 434 -39Q423 -45 417 -45H413Q412 -50 412 -56Q412 -62 407 -64Q395 -56 387 -43Q379 -30 372 -16Q386 -18 398 -18Q415 -17 431 -17Q442 -17 464 -19Q480 -21 495 -24Q501 -23 514 -23Q530 -23 539 -24Q554 -27 569 -31Q574 -29 578 -27Q584 -26 589 -26Q595 -26 601 -27Q644 -29 687 -31Q704 -29 720 -28H724Q751 -30 762 -66V-72Q762 -83 769 -83H770Q771 -80 771 -73Q771 -62 770 -52Q770 -45 772 -42Q774 -42 775 -47Q776 -52 779 -52H781Q781 -48 780 -45Q780 -31 789 -23Q797 -16 810 -16H816Q817 -2 823 6Q829 15 834 24Q828 34 821 42Q822 46 822 53Q821 69 810 76Q799 83 788 89Q774 89 755 85Q731 80 720 80Q724 74 737 74Z"/>
</svg>