<svg xmlns="http://www.w3.org/2000/svg" viewBox="0 -800 1024 1024">
	<path fill="#000000" d="M961 -737H963Q964 -734 965 -731Q965 -727 959 -721Q955 -717 954 -714Q951 -717 951 -724Q951 -737 961 -737ZM329 -196V-199Q331 -211 332 -224V-227Q315 -224 290 -210Q273 -201 263 -197V-179Q263 -173 264 -171Q297 -183 329 -196ZM334 -309V-342Q304 -334 289 -325Q264 -310 264 -284V-279Q301 -293 334 -309ZM305 -429H307Q315 -427 323 -425Q327 -425 329 -426Q316 -442 316 -466Q316 -473 317 -477Q256 -452 233 -426Q244 -414 251 -397Q261 -399 278 -413Q296 -428 305 -429ZM904 -153V-149Q900 -141 895 -137Q890 -124 884 -111Q874 -98 861 -89Q848 -80 838 -72Q822 -79 815 -91Q808 -104 799 -122Q789 -133 779 -144Q778 -151 776 -159Q774 -164 765 -171Q758 -177 755 -182Q759 -184 762 -184Q764 -184 773 -181Q788 -224 791 -274Q794 -325 802 -377Q807 -400 809 -470H804Q787 -470 771 -456Q766 -452 748 -431Q758 -402 767 -371Q747 -330 747 -247Q749 -175 751 -104Q751 -73 748 -46Q738 -58 738 -93V-121Q738 -149 732 -162Q721 -150 721 -119Q722 -95 723 -72Q723 -44 722 -16Q722 36 736 57Q747 48 747 27Q747 10 746 -7Q746 -23 751 -32Q755 -24 758 3Q761 29 767 39Q757 64 741 82Q725 101 710 119Q693 110 686 91Q678 73 671 55Q662 27 637 17L639 16Q644 18 649 19H650Q645 7 630 0Q615 -8 603 -17Q611 -17 644 -6Q643 -10 634 -12Q659 -14 669 -42Q676 -62 678 -105Q680 -147 682 -189Q682 -218 677 -236V-238Q677 -240 680 -242Q683 -244 683 -246Q683 -268 675 -323Q668 -374 668 -400V-404Q668 -409 671 -410Q663 -419 660 -432Q660 -435 661 -437Q629 -452 629 -480Q630 -484 630 -489Q635 -503 640 -518Q641 -525 641 -539Q641 -562 652 -567Q674 -568 706 -588Q738 -608 761 -608H764Q756 -600 733 -589Q702 -575 695 -560Q697 -559 701 -559Q707 -559 733 -572Q762 -584 792 -599Q822 -614 835 -638Q828 -638 811 -628Q794 -618 784 -618Q782 -618 776 -620Q781 -629 806 -642Q812 -647 819 -661Q831 -683 841 -687Q850 -690 860 -690Q887 -690 906 -676Q917 -684 926 -693Q934 -703 948 -707V-706Q948 -703 940 -697Q933 -691 930 -686Q927 -678 927 -673Q930 -656 942 -641H944Q951 -644 957 -647Q959 -646 961 -645L962 -642Q962 -639 958 -634Q952 -627 952 -622V-621Q954 -618 955 -618Q959 -619 963 -620H964Q961 -614 961 -609Q961 -601 967 -588Q972 -577 972 -572Q971 -567 967 -561Q962 -554 962 -550Q962 -547 964 -543Q946 -537 939 -509Q927 -512 927 -522Q927 -540 949 -558Q945 -572 936 -572Q928 -572 921 -562Q914 -553 914 -542Q914 -536 917 -530Q897 -519 892 -495Q886 -471 881 -434Q867 -364 867 -305Q867 -278 870 -253Q882 -275 883 -304Q885 -332 887 -362Q894 -446 930 -485V-481Q930 -471 925 -462Q920 -454 917 -444Q913 -432 909 -392Q900 -336 896 -269V-215Q900 -184 904 -153ZM566 14H562Q544 14 534 0Q530 -5 520 -30Q517 -37 513 -44V-65Q513 -72 511 -75Q509 -80 501 -83Q494 -86 492 -89Q494 -91 496 -91Q502 -88 508 -86Q536 -100 549 -162Q530 -154 517 -133Q515 -136 515 -142Q515 -151 527 -163Q536 -173 538 -178Q504 -163 478 -140Q470 -132 470 -125L471 -121L475 -120Q481 -120 488 -125Q495 -130 498 -130Q502 -130 504 -128Q502 -116 490 -103Q489 -101 467 -83Q448 -90 439 -107Q426 -108 417 -119Q408 -130 408 -142Q408 -154 416 -162Q407 -175 407 -188Q407 -219 442 -234Q447 -242 451 -265Q454 -283 457 -290Q438 -346 410 -360Q401 -289 401 -162Q401 -88 402 -56Q403 -46 409 -24Q413 -8 416 7Q413 20 399 30Q386 39 379 48Q347 31 338 24Q317 7 317 -18V-24Q308 -31 295 -33Q296 -41 303 -42Q310 -43 317 -44V-77Q287 -73 264 -59Q241 -45 219 -36V-39Q219 -50 233 -59Q242 -66 265 -75Q288 -84 295 -89Q253 -89 213 -72Q169 -53 154 -24Q156 -23 161 -23Q166 -23 176 -28Q188 -34 196 -34Q199 -34 207 -32Q202 -26 193 -21Q180 -14 177 -9Q171 10 163 25Q158 26 152 31Q145 37 141 37Q126 33 116 25Q92 19 68 11Q44 3 42 -30Q43 -35 43 -41Q51 -62 58 -84V-89Q57 -101 56 -114Q56 -121 57 -124Q69 -130 81 -135Q92 -140 102 -149Q110 -158 119 -168Q128 -178 144 -179Q124 -166 119 -141Q119 -132 126 -128Q128 -127 131 -127Q145 -132 165 -137Q159 -165 159 -199Q159 -234 157 -266Q167 -261 170 -236Q173 -215 178 -209Q186 -225 186 -254Q186 -301 168 -335Q163 -332 161 -318Q159 -302 151 -300Q145 -340 136 -354Q79 -365 79 -407Q80 -411 80 -416Q66 -429 55 -446Q54 -448 54 -452Q56 -466 58 -480V-482Q57 -489 54 -497Q48 -512 48 -521V-526Q50 -553 79 -582Q104 -609 122 -621Q120 -612 118 -604Q118 -600 120 -598Q122 -599 123 -606Q125 -616 131 -617Q134 -615 134 -611V-606Q134 -600 138 -599Q212 -629 267 -638Q266 -629 257 -627Q249 -625 242 -623Q158 -590 156 -589H163Q188 -589 258 -611Q311 -628 357 -647Q353 -653 344 -653Q338 -653 319 -645Q308 -642 296 -640Q289 -640 286 -642Q290 -649 313 -659Q361 -682 410 -693Q413 -693 413 -688V-684Q420 -687 426 -692Q432 -697 441 -697Q446 -697 449 -696Q425 -683 425 -672Q425 -668 428 -662L432 -661Q438 -663 444 -665H445Q436 -655 432 -644L433 -641V-640Q434 -635 443 -636Q439 -632 439 -625Q439 -614 449 -604Q441 -592 432 -567Q423 -541 418 -533V-531Q419 -526 419 -521V-518H417Q406 -518 394 -509Q385 -502 378 -501Q399 -488 407 -463Q449 -518 480 -573Q485 -583 490 -593Q495 -604 504 -611V-607Q504 -589 495 -569Q477 -538 467 -504Q475 -507 480 -516Q486 -525 492 -535Q516 -573 524 -589Q543 -626 546 -650Q546 -681 534 -681Q525 -681 525 -670Q527 -655 529 -640V-639Q524 -632 521 -629Q515 -624 508 -623Q515 -635 515 -663Q515 -690 519 -702Q533 -716 544 -734Q538 -745 516 -753Q497 -760 492 -768Q526 -759 560 -750V-751Q560 -755 553 -758Q547 -761 547 -763L548 -765Q552 -766 559 -766Q587 -762 615 -758Q622 -750 629 -749Q635 -749 643 -746Q654 -741 661 -717Q668 -693 680 -687V-680Q683 -658 685 -637Q685 -624 677 -615Q672 -609 654 -595Q642 -585 633 -576Q608 -549 564 -483Q552 -467 541 -450Q530 -434 529 -409V-404Q533 -384 537 -364V-362Q537 -355 531 -342Q523 -324 523 -313Q523 -304 525 -299Q550 -315 572 -335V-346Q572 -384 554 -388Q555 -390 555 -394Q553 -403 551 -413V-414Q552 -433 568 -449Q584 -465 603 -465Q615 -465 625 -458Q637 -449 644 -424Q650 -403 656 -394Q640 -365 635 -327Q629 -290 622 -250Q615 -215 599 -71Q597 -50 581 -20Q569 3 566 14Z"/>
</svg>