<svg xmlns="http://www.w3.org/2000/svg" viewBox="0 -800 1024 1024">
	<path fill="#000000" d="M860 -674V-677Q860 -688 872 -688Q877 -688 879 -687Q878 -674 860 -674ZM420 -162H421Q423 -156 423 -149Q423 -144 421 -136Q413 -141 411 -154Q411 -162 420 -162ZM279 -239Q280 -248 280 -262Q280 -276 278 -284Q234 -269 202 -219Q205 -209 207 -200Q218 -203 236 -220Q257 -240 272 -240Q276 -239 279 -239ZM279 -378Q285 -408 285 -433Q285 -450 282 -464Q244 -432 233 -362Q266 -376 279 -378ZM777 -317Q709 -317 670 -290Q673 -287 675 -274Q676 -264 679 -260Q702 -270 756 -282L755 -285Q755 -291 766 -303Q775 -313 777 -317ZM490 -230V-228Q499 -223 511 -223Q523 -223 555 -233Q585 -242 603 -243Q588 -264 584 -274Q520 -263 491 -240V-238Q491 -234 490 -230ZM700 -52Q694 -54 691 -54Q682 -54 667 -46Q654 -39 648 -39Q642 -40 636 -45Q630 -50 624 -52Q572 -24 559 19Q591 25 623 31Q667 11 700 -52ZM616 -418V-399Q616 -384 621 -375Q639 -375 655 -398Q671 -422 683 -422Q682 -417 674 -408Q667 -401 667 -396Q667 -392 670 -389Q709 -421 715 -461Q711 -465 707 -465Q700 -465 693 -448Q686 -432 680 -432Q685 -457 685 -459Q679 -456 672 -453Q670 -454 668 -455Q671 -469 674 -483Q622 -483 596 -458Q597 -452 605 -445Q613 -438 615 -431Q616 -427 616 -418ZM282 -99V-156Q242 -142 210 -114Q203 -115 196 -117Q188 -113 187 -105Q187 -98 186 -90Q173 -9 165 28Q161 26 157 26Q146 28 135 30Q128 30 123 25H122Q118 25 114 30Q111 34 108 34Q106 28 97 16Q85 0 85 -15Q33 -49 29 -99V-117Q28 -124 22 -141Q16 -157 16 -167H17Q24 -164 31 -156Q49 -185 63 -225Q65 -231 67 -234Q70 -240 74 -240H76Q77 -238 77 -234Q72 -214 67 -189V-185Q88 -211 102 -248Q135 -333 135 -388Q135 -402 134 -409Q116 -387 102 -326Q90 -273 79 -254Q74 -259 74 -266Q78 -283 85 -294Q89 -309 89 -326Q90 -343 99 -354Q96 -358 96 -363V-366Q98 -372 105 -377Q105 -381 104 -386Q108 -410 111 -434Q118 -460 121 -483V-485Q121 -494 115 -514Q110 -530 110 -540Q110 -547 111 -551Q115 -546 118 -536Q122 -523 126 -519Q129 -520 129 -523Q128 -528 126 -533Q133 -531 137 -527Q141 -522 146 -519Q150 -520 157 -520Q175 -520 191 -506Q211 -543 230 -580Q248 -618 272 -651Q269 -660 269 -668Q269 -690 287 -701Q302 -710 329 -710Q347 -710 365 -705Q371 -707 377 -710H380Q376 -694 376 -693Q376 -688 377 -685Q383 -689 388 -695Q392 -701 402 -702H405Q388 -696 388 -671Q388 -664 389 -660L391 -659Q393 -659 395 -663Q399 -669 402 -669Q398 -662 398 -654Q398 -647 404 -631Q409 -618 409 -609Q409 -603 406 -597Q403 -592 396 -584Q386 -573 383 -566Q375 -542 369 -485Q364 -439 358 -414Q349 -417 349 -450Q351 -471 352 -493Q352 -499 350 -509Q339 -500 336 -480Q335 -475 334 -443Q328 -373 328 -328Q328 -256 343 -221Q348 -235 348 -260Q346 -301 344 -343Q344 -358 347 -372Q350 -386 359 -386Q359 -271 365 -162Q368 -140 370 -119Q370 -109 368 -104Q359 -115 355 -151Q351 -183 346 -193Q338 -186 338 -172Q339 -161 340 -150Q344 -63 364 -36Q371 -39 371 -47Q369 -61 366 -75Q366 -81 367 -83Q378 -80 380 -68Q382 -55 383 -44Q393 -3 401 16Q378 79 340 99Q337 84 323 79Q310 74 299 67Q294 62 286 51Q279 40 273 36Q275 26 279 19Q269 -1 244 -2Q253 -8 267 -11Q251 -20 220 -23Q235 -25 250 -27Q223 -34 194 -39Q215 -38 235 -38Q260 -38 276 -42Q282 -61 282 -99ZM698 80V82Q697 92 691 103Q684 114 680 125Q672 123 669 123Q657 123 654 132Q639 128 625 103Q614 82 603 77V72Q603 68 601 67Q598 61 583 55L587 54H596Q593 45 577 41Q561 38 555 36Q559 34 566 34Q579 37 592 39Q578 29 557 24H556Q545 25 530 43Q516 60 512 74Q509 73 504 73Q491 73 475 87Q427 68 423 42V40Q424 34 424 27V22Q421 7 418 -9Q418 -11 420 -17Q408 -54 398 -98Q409 -73 423 -53Q415 -84 392 -158Q405 -146 416 -107Q426 -72 438 -59Q431 -79 420 -127Q440 -87 463 -48Q472 -50 485 -60Q498 -69 507 -71Q507 -64 498 -57Q489 -49 488 -41Q557 -63 595 -125Q579 -124 559 -104Q537 -83 521 -80V-81Q524 -89 538 -98Q572 -126 605 -155Q573 -152 550 -138Q528 -125 504 -113Q483 -122 474 -130Q459 -143 459 -161Q459 -167 460 -171Q446 -178 432 -185Q418 -192 411 -206L408 -207Q401 -204 399 -201L397 -202Q402 -207 402 -217Q402 -227 395 -238Q388 -249 381 -249L377 -248Q380 -274 380 -306Q380 -338 389 -366L391 -367Q393 -367 396 -362Q399 -357 402 -356Q405 -359 405 -361Q401 -372 397 -383Q405 -372 433 -365Q459 -358 467 -350Q483 -363 544 -371Q536 -398 518 -399Q520 -412 521 -426Q505 -431 489 -437Q473 -443 472 -463Q473 -466 473 -470Q447 -498 447 -525Q447 -540 456 -552Q448 -569 445 -590L447 -592Q451 -591 454 -590Q456 -590 457 -593Q456 -602 450 -607Q444 -612 439 -618Q462 -612 481 -603Q485 -610 518 -612Q516 -608 502 -602Q490 -597 490 -590Q490 -586 493 -582Q548 -592 596 -611Q591 -615 583 -615Q567 -612 550 -610Q544 -610 541 -612Q544 -618 552 -619Q561 -621 568 -623Q582 -626 595 -630Q593 -691 561 -691Q557 -691 547 -689Q550 -696 553 -704Q548 -708 537 -708Q531 -707 524 -707Q549 -743 569 -761Q601 -791 636 -794H643Q671 -793 685 -775Q698 -757 716 -740Q720 -731 720 -721Q720 -710 713 -691Q705 -669 705 -659Q705 -650 707 -645Q745 -666 811 -680V-678Q811 -673 806 -663Q810 -655 816 -655Q819 -655 829 -660Q841 -666 849 -666H852Q847 -663 842 -659Q837 -655 835 -648L839 -639Q861 -641 883 -644H888V-643Q888 -637 882 -637Q878 -637 874 -638H873Q845 -631 845 -614V-609L847 -608Q852 -610 857 -613Q859 -613 861 -611Q840 -603 836 -579Q836 -570 845 -563Q832 -562 828 -545Q822 -522 820 -519Q812 -519 804 -520Q797 -520 793 -515Q802 -510 812 -506Q818 -483 824 -461Q821 -445 798 -429Q775 -413 771 -398Q798 -401 825 -404Q851 -408 863 -426Q885 -428 895 -443Q905 -457 915 -472Q912 -463 912 -450Q912 -420 930 -409Q936 -410 944 -419Q952 -428 957 -428H960Q960 -422 953 -413Q945 -402 945 -395Q948 -383 957 -374Q961 -376 965 -378Q962 -373 962 -368Q962 -360 967 -354Q973 -347 981 -347H984Q970 -344 970 -325Q970 -312 975 -302Q967 -288 960 -269H953Q924 -265 903 -254Q904 -269 917 -277Q919 -278 944 -288Q935 -291 927 -291Q909 -291 890 -280Q874 -270 863 -257Q852 -242 846 -213Q857 -222 867 -234Q876 -247 891 -248Q894 -248 900 -246Q887 -234 873 -222Q858 -210 849 -193Q843 -201 829 -201Q820 -201 815 -196Q817 -202 818 -208Q811 -218 799 -224Q797 -223 797 -219Q798 -211 799 -204V-202Q799 -199 795 -198Q790 -197 789 -196Q791 -192 792 -188H790Q776 -185 761 -177Q753 -176 737 -176H714Q681 -176 668 -164L674 -147Q680 -145 690 -145Q706 -145 732 -156Q757 -167 771 -168Q782 -158 792 -146Q802 -134 817 -127Q813 -107 809 -87V-83Q813 -70 817 -61Q813 -37 787 -26Q760 -14 744 -1Q731 11 721 38Q712 62 701 73Q699 63 699 60Q699 43 715 23Q735 -2 738 -11Q720 -6 709 11Q697 27 686 45Q668 69 668 86Q668 90 670 96Q676 95 682 88Q689 80 697 80Z"/>
</svg>