<svg xmlns="http://www.w3.org/2000/svg" viewBox="0 -800 1024 1024">
	<path fill="#000000" d="M535 -15Q498 -7 464 7Q418 20 418 40Q419 43 419 45Q499 24 520 15V14Q520 8 529 -3Q535 -10 535 -15ZM722 -100Q706 -84 706 -61Q706 -47 717 -40Q716 -37 716 -30Q718 -8 720 14Q720 25 717 34Q693 38 669 41Q670 31 688 25Q701 20 705 14Q704 2 690 2Q684 2 674 4Q651 12 632 28Q610 47 610 68V71Q620 61 628 50Q637 40 655 38Q657 43 658 47Q626 63 607 102Q595 97 580 97Q572 97 558 100Q547 91 536 82Q449 82 419 130Q415 131 408 131Q395 131 379 123Q367 117 362 116Q360 108 350 96Q338 81 336 68Q347 72 354 81Q360 91 368 98Q359 73 345 41Q332 10 310 1Q302 -1 297 -1Q284 -1 282 7V9Q282 16 300 26Q324 40 324 52Q324 57 322 61Q310 55 301 47Q291 40 275 39H273Q266 18 266 -9Q266 -41 279 -102Q279 -96 280 -88Q281 -80 287 -76Q295 -76 299 -81Q303 -86 308 -90Q334 -89 353 -73Q365 -63 381 -38Q391 -36 394 -33Q411 -38 425 -38Q432 -40 439 -43L443 -44Q449 -43 454 -42L458 -43Q477 -49 495 -56Q521 -65 547 -74Q573 -84 601 -88Q616 -115 643 -115Q648 -121 661 -144V-134Q661 -106 680 -94Q689 -97 698 -100Q696 -98 696 -93V-88Q709 -94 722 -100ZM576 -102Q564 -95 551 -87H550Q546 -88 541 -90Q537 -90 516 -84Q479 -77 433 -63Q411 -79 403 -90V-95Q403 -111 388 -119Q400 -128 413 -135Q426 -135 434 -131Q489 -142 516 -159L520 -160Q535 -160 552 -153Q566 -143 573 -131Q575 -128 575 -121V-113Q575 -106 576 -102ZM573 -212Q569 -200 569 -193Q569 -187 570 -185Q502 -164 434 -144Q421 -151 405 -174Q388 -200 372 -206Q384 -207 394 -209Q405 -212 407 -221Q427 -221 484 -238Q512 -245 527 -245Q536 -245 541 -244Q542 -243 542 -238Q552 -240 561 -242Q566 -242 570 -238Q565 -237 565 -231Q565 -223 573 -212ZM864 -271Q864 -253 855 -240V-238Q856 -234 856 -230Q850 -232 846 -232Q839 -232 838 -224Q780 -258 656 -258Q611 -258 529 -254Q463 -251 409 -232Q372 -219 316 -189Q307 -180 294 -178H288Q312 -204 331 -216Q342 -223 379 -238Q376 -239 369 -239Q355 -239 317 -230Q227 -206 188 -164Q180 -156 180 -145Q180 -134 194 -134H195Q204 -134 222 -150Q246 -171 261 -171Q268 -169 275 -168Q268 -161 252 -152Q233 -142 227 -133Q221 -124 216 -115Q212 -106 201 -100Q155 -119 106 -135Q92 -148 92 -175Q93 -180 93 -185Q94 -198 102 -206Q110 -213 118 -224Q125 -233 133 -238Q141 -243 145 -247Q150 -249 158 -249H162Q168 -249 171 -250Q194 -257 218 -259H223Q220 -253 212 -249Q205 -246 203 -242Q205 -239 218 -239Q223 -239 234 -251Q247 -264 254 -266Q303 -278 460 -303Q458 -311 448 -325Q437 -341 434 -349Q437 -355 445 -359Q448 -361 454 -364Q480 -372 517 -369Q520 -361 536 -345Q551 -330 552 -316Q607 -320 669 -322Q732 -324 782 -336Q794 -334 797 -332Q811 -343 826 -344Q825 -338 823 -332Q830 -325 837 -325Q842 -325 846 -328L847 -326Q845 -323 843 -321Q864 -300 864 -271ZM541 -550Q541 -527 528 -508Q498 -498 464 -490Q440 -483 435 -457Q465 -468 504 -477Q484 -464 480 -455Q484 -453 485 -453Q491 -455 497 -458Q485 -449 485 -441Q485 -437 492 -437H495Q488 -429 480 -421Q482 -414 483 -408Q483 -396 480 -384Q403 -356 331 -323Q270 -301 236 -277Q243 -295 257 -302Q271 -309 286 -320H283Q209 -320 183 -298Q177 -293 161 -291Q151 -290 149 -286Q150 -283 150 -281Q153 -272 164 -276Q167 -276 169 -277Q176 -278 186 -286Q197 -295 204 -295H206Q198 -266 159 -260Q141 -258 135 -260Q129 -267 111 -264Q95 -261 92 -270V-273Q94 -277 95 -282Q95 -293 85 -297Q84 -304 80 -306Q77 -308 77 -313Q77 -320 79 -323Q84 -334 109 -350Q129 -363 140 -374Q148 -383 154 -392Q160 -402 174 -405Q162 -392 158 -374Q158 -367 162 -362Q175 -364 202 -376Q231 -388 247 -389Q242 -424 233 -441Q221 -465 197 -471Q179 -498 161 -526L164 -528H169Q166 -538 151 -550Q139 -559 135 -566Q147 -559 162 -559Q170 -559 170 -563Q170 -567 161 -572Q164 -575 170 -575Q181 -573 192 -572H197Q202 -573 214 -580Q227 -588 239 -588Q245 -588 248 -587Q263 -582 277 -578Q289 -558 304 -536Q319 -515 320 -486Q320 -481 319 -477Q318 -468 313 -451Q306 -428 306 -415Q322 -419 337 -424Q335 -441 333 -459Q333 -469 337 -474Q341 -464 342 -450Q343 -437 353 -436H356Q364 -437 364 -454Q360 -485 356 -517Q355 -532 353 -548Q349 -562 344 -562Q336 -562 336 -525Q336 -515 337 -511Q330 -511 330 -517Q331 -522 331 -527V-528Q323 -569 294 -590Q289 -599 289 -611Q290 -618 290 -626Q290 -632 289 -638Q285 -658 280 -679Q280 -686 283 -694Q286 -700 293 -704Q300 -708 306 -713Q311 -720 315 -727Q334 -740 368 -740Q376 -739 383 -739Q385 -735 394 -731Q404 -726 406 -719H417Q446 -655 455 -619Q486 -622 509 -632L510 -630Q510 -629 507 -623Q513 -625 519 -627Q522 -627 524 -626V-625Q520 -620 516 -612Q516 -611 518 -607L520 -604Q524 -605 528 -607L531 -606Q528 -600 525 -595Q541 -575 541 -550ZM683 -171Q680 -167 677 -162Q674 -157 670 -156H668Q667 -159 667 -162Q667 -174 676 -174Q679 -174 683 -171ZM921 -376Q921 -372 920 -370Q918 -360 899 -350Q886 -343 881 -337Q862 -342 842 -347Q832 -349 822 -351Q812 -353 807 -361Q809 -365 821 -366Q830 -367 833 -370Q828 -381 807 -385Q797 -387 772 -388Q767 -385 767 -378L768 -374Q772 -371 779 -370Q786 -369 787 -362Q782 -358 769 -358Q749 -359 728 -361V-363Q728 -370 740 -372Q751 -374 753 -379Q749 -391 714 -391H707Q684 -388 660 -386H649Q615 -386 608 -370Q614 -361 627 -361Q650 -364 672 -368Q682 -368 689 -364Q688 -354 680 -354Q673 -355 666 -356Q632 -353 597 -350Q577 -350 566 -356Q556 -361 546 -377Q538 -390 531 -394Q529 -402 529 -417Q531 -451 541 -493L545 -518Q546 -524 548 -530Q549 -536 554 -538Q556 -535 556 -527Q555 -513 553 -499Q553 -489 559 -484Q571 -502 573 -531Q576 -559 578 -590Q584 -659 584 -664Q584 -689 578 -712Q563 -704 563 -657Q564 -643 564 -630Q564 -595 557 -581Q552 -583 552 -588Q553 -593 554 -598Q555 -623 555 -648Q555 -687 545 -710Q537 -726 528 -742Q525 -760 525 -761Q523 -767 513 -775Q505 -782 503 -788H506Q520 -786 532 -781Q540 -786 541 -794Q546 -789 553 -789Q559 -789 569 -794Q583 -801 590 -801H595Q608 -800 621 -799Q629 -799 633 -802Q645 -794 657 -777Q672 -757 673 -742V-741Q673 -728 663 -704Q652 -678 652 -665Q652 -661 654 -653Q670 -664 687 -673Q704 -682 705 -707V-712Q711 -713 722 -713H744Q767 -713 780 -721L783 -719Q782 -715 781 -712V-710Q790 -712 803 -723Q817 -734 828 -736V-735Q828 -733 816 -719Q807 -706 807 -697Q808 -693 810 -693Q814 -694 818 -696L819 -695Q817 -682 813 -672Q821 -659 821 -641Q819 -611 810 -581Q807 -580 796 -569Q771 -566 745 -563Q728 -560 704 -550Q681 -540 667 -538Q645 -535 634 -514Q626 -500 621 -468Q663 -472 714 -473Q764 -474 807 -482Q813 -485 817 -498Q821 -509 825 -512Q828 -511 828 -506V-500Q828 -496 830 -494Q835 -501 836 -526Q837 -556 846 -562V-554Q846 -536 845 -518Q845 -505 848 -496Q852 -500 852 -509Q852 -513 851 -517Q852 -520 852 -524Q857 -520 859 -507Q860 -498 864 -493Q869 -487 881 -484Q892 -481 896 -478Q905 -471 908 -451Q911 -430 919 -422Q916 -414 916 -408Q919 -392 921 -376ZM861 -553Q861 -546 855 -538Q852 -539 852 -544Q853 -552 858 -554Z"/>
</svg>