<svg xmlns="http://www.w3.org/2000/svg" viewBox="0 -800 1024 1024">
	<path fill="#000000" d="M287 -500Q287 -507 286 -510Q252 -500 230 -473Q207 -445 207 -409Q207 -391 215 -369Q224 -373 236 -380Q247 -388 262 -389Q270 -405 273 -425Q275 -444 280 -464Q287 -494 287 -500ZM686 -280L692 -302Q655 -301 626 -292Q598 -283 569 -273V-268Q569 -260 572 -254Q592 -264 634 -270Q671 -275 686 -280ZM729 -387Q659 -384 633 -378Q584 -367 569 -336Q603 -343 641 -355Q679 -366 718 -368Q726 -380 729 -387ZM52 -642V-630Q52 -621 49 -619Q41 -622 41 -635Q41 -642 43 -644Q47 -643 50 -642ZM878 -66V-64Q874 -66 867 -67Q855 -68 853 -72Q854 -77 861 -77Q867 -78 874 -78Q876 -72 878 -66ZM932 -687Q924 -673 905 -673Q903 -675 903 -677V-682Q911 -688 923 -688Q929 -688 932 -687ZM383 -83L386 -112Q393 -124 397 -136Q401 -149 412 -158Q424 -164 435 -170Q449 -183 468 -186Q472 -185 475 -185Q474 -179 466 -174Q455 -167 455 -160V-158Q457 -149 466 -147Q477 -144 491 -144Q508 -144 536 -149Q564 -154 576 -154Q581 -153 585 -153Q587 -173 594 -189Q588 -192 584 -192Q574 -191 567 -181Q560 -171 554 -165Q534 -170 521 -181Q507 -192 493 -202Q495 -207 495 -216V-234Q495 -245 501 -249Q506 -244 511 -230Q517 -213 523 -208Q528 -213 528 -225Q528 -233 527 -242Q523 -309 498 -317Q491 -313 491 -303Q493 -291 495 -280H494Q492 -280 490 -277Q488 -274 484 -274Q477 -298 475 -320Q471 -326 466 -332Q463 -340 459 -349Q451 -361 439 -368Q427 -375 416 -381Q406 -397 406 -416Q406 -453 430 -475Q420 -487 420 -510Q420 -516 422 -522Q432 -518 435 -507Q437 -495 441 -486Q443 -488 443 -492Q441 -503 438 -515V-519Q441 -516 446 -507Q452 -496 458 -492Q461 -493 461 -495Q460 -501 458 -507L459 -509Q503 -492 522 -478Q521 -475 521 -471Q522 -461 529 -455Q536 -449 542 -443Q547 -445 607 -455Q607 -459 599 -469Q592 -478 590 -484Q589 -487 589 -496Q589 -522 604 -522Q606 -512 607 -502Q609 -493 619 -492H620Q617 -508 617 -533Q618 -551 618 -570Q618 -628 604 -647Q591 -641 591 -610Q592 -587 593 -564Q589 -563 584 -562L581 -563Q575 -616 567 -643Q555 -683 531 -701Q534 -708 539 -713Q544 -719 544 -728Q544 -731 543 -734Q569 -756 588 -767Q618 -784 646 -784Q654 -784 674 -780Q696 -757 708 -681Q701 -662 701 -641Q701 -631 702 -626Q703 -625 707 -625Q711 -625 723 -630Q737 -636 744 -636Q750 -636 754 -633Q749 -627 736 -620Q719 -611 714 -603Q807 -630 813 -632Q810 -644 797 -644Q786 -644 778 -638V-654Q795 -665 821 -665Q833 -665 838 -663Q865 -672 882 -672Q888 -672 891 -671Q890 -670 871 -662Q858 -656 858 -645Q869 -649 887 -653H891Q885 -648 878 -644Q872 -639 871 -629V-626Q873 -623 876 -623Q880 -624 884 -625L888 -624Q880 -610 878 -583Q876 -557 871 -534H867Q847 -530 828 -521Q812 -519 804 -519Q793 -519 781 -520Q757 -520 743 -513Q735 -509 721 -500Q704 -489 695 -486Q691 -487 687 -488Q678 -483 672 -467H675Q700 -467 750 -483Q797 -498 823 -498H828Q854 -495 879 -492Q889 -492 894 -494L896 -492Q894 -487 891 -483V-481Q894 -482 901 -488Q911 -497 918 -498Q904 -491 904 -471Q904 -466 906 -458H907Q910 -458 912 -462Q914 -466 915 -466L917 -465Q918 -455 924 -433Q931 -408 931 -395Q931 -378 923 -366Q887 -362 864 -332Q857 -334 850 -336L849 -338Q849 -343 865 -355Q878 -365 878 -368Q877 -374 868 -374Q858 -374 841 -365Q825 -356 826 -351Q820 -353 820 -356Q788 -333 771 -311Q748 -282 742 -246L745 -245Q753 -247 759 -255Q765 -263 772 -271Q790 -293 795 -302Q805 -301 810 -297Q811 -298 816 -307Q820 -314 827 -314H831Q802 -249 772 -186Q768 -189 760 -189Q751 -189 748 -183Q739 -183 722 -192Q705 -201 694 -201Q688 -201 680 -198Q680 -171 693 -162Q743 -169 802 -175Q861 -182 902 -207Q910 -198 940 -183Q948 -186 956 -189L960 -188V-187Q960 -185 957 -182Q953 -178 953 -173Q953 -170 954 -168Q954 -165 959 -165Q964 -165 968 -167Q962 -153 962 -140Q962 -119 976 -108Q958 -102 958 -75Q933 -67 908 -60Q905 -66 905 -72Q910 -76 916 -79Q921 -82 924 -89Q899 -115 818 -115Q771 -113 724 -111Q722 -105 720 -100V-98Q749 -94 781 -93Q814 -92 835 -81Q835 -77 834 -74V-72Q819 -71 804 -71Q785 -71 766 -72Q717 -72 689 -66Q684 -51 684 -24Q684 15 693 46Q687 49 681 51Q676 43 672 18Q668 -8 662 -17Q654 -14 654 -4Q655 6 655 15V63Q655 102 668 111Q683 98 684 68Q695 79 695 95Q695 113 683 129Q671 144 657 144Q652 144 650 143Q629 135 606 114Q579 89 576 65Q577 58 578 50V48Q576 37 566 28Q562 24 548 15Q549 12 552 12Q559 14 565 15H566Q585 -2 585 -34Q585 -45 582 -54H570Q527 -54 495 -38Q476 -29 442 0Q421 -9 408 -27Q395 -44 381 -60Q380 -43 379 -27Q351 -22 302 2Q263 21 243 27Q254 2 282 -6Q311 -15 332 -30Q327 -34 319 -34Q313 -34 293 -29Q230 -15 185 12Q167 22 157 43Q158 49 164 49Q175 46 185 42Q191 42 194 49Q166 58 153 67Q135 81 132 105Q123 111 114 111Q75 106 57 66Q55 60 55 57Q58 42 61 27V24Q61 18 60 11V9Q61 -14 73 -29Q86 -44 95 -54Q95 -46 94 -39Q94 -27 98 -23Q118 -24 154 -41Q145 -92 114 -116Q111 -121 111 -130Q113 -145 114 -160V-165Q113 -170 106 -177Q99 -184 98 -191Q100 -192 103 -192Q112 -190 120 -188L122 -190Q119 -192 116 -195Q121 -208 147 -216H152Q168 -214 183 -213H187Q190 -202 203 -182Q219 -158 221 -143V-138Q218 -110 215 -83Q215 -72 218 -62Q232 -66 245 -70V-82Q243 -130 240 -178Q240 -187 242 -205Q234 -234 216 -269Q205 -252 203 -245Q180 -245 175 -239Q159 -246 136 -273L134 -274Q131 -272 128 -271Q131 -280 131 -288Q131 -301 119 -322Q108 -341 107 -354Q124 -349 130 -331Q136 -314 150 -305L153 -306Q148 -329 134 -362Q118 -402 105 -414Q95 -422 85 -422Q79 -422 77 -420V-415Q77 -407 86 -396Q95 -385 95 -375Q78 -385 58 -400Q38 -415 34 -437Q33 -443 33 -458Q33 -505 39 -525Q41 -532 48 -542Q58 -557 58 -566Q58 -572 54 -582Q48 -598 48 -605Q48 -610 49 -613Q54 -606 59 -593Q67 -571 76 -566Q82 -572 82 -581Q82 -589 73 -612Q64 -635 64 -647V-651Q73 -634 81 -618Q84 -609 89 -600Q94 -592 105 -591Q109 -598 109 -604Q109 -611 102 -624Q96 -635 95 -642Q110 -632 121 -616Q132 -601 153 -596Q161 -582 172 -572Q286 -644 341 -696Q344 -695 352 -695Q362 -695 367 -699Q375 -692 384 -688Q391 -697 398 -707Q406 -716 415 -720Q408 -699 408 -685Q408 -678 409 -674H410Q413 -674 418 -682Q422 -688 425 -690Q418 -667 418 -657Q418 -651 419 -647Q420 -641 427 -630Q433 -621 434 -616Q436 -604 436 -598Q434 -572 431 -547Q403 -512 379 -471Q377 -474 377 -480Q377 -488 376 -515Q351 -496 342 -468Q329 -425 329 -401Q329 -385 334 -372Q350 -411 367 -447H368L372 -445L374 -446Q365 -420 342 -293Q337 -284 331 -276H317Q310 -276 308 -278Q311 -270 311 -261Q311 -251 310 -242Q310 -232 314 -225Q334 -236 360 -242Q361 -241 363 -237Q365 -233 368 -233L372 -234Q372 -231 371 -229Q371 -218 381 -210Q386 -187 390 -164Q389 -154 375 -145Q356 -142 341 -136Q307 -123 307 -106V-101Q348 -118 375 -125L376 -122Q373 -115 370 -108V-107Q371 -106 381 -106L378 -98Q378 -84 383 -83Z"/>
</svg>