<svg xmlns="http://www.w3.org/2000/svg" viewBox="0 -800 1024 1024">
	<path fill="#000000" d="M646 -86Q647 -91 646 -98Q644 -110 646 -114Q623 -107 600 -101Q577 -98 554 -96Q545 -95 523 -97Q498 -99 485 -96Q472 -93 416 -68Q419 -56 428 -42Q448 -24 455 -21Q477 -9 478 -8Q485 -9 498 -16Q511 -23 517 -24Q527 -26 540 -21Q553 -17 560 -17Q578 -23 596 -32Q610 -43 624 -56Q638 -71 646 -86ZM374 -282Q366 -262 367 -250H373Q369 -242 364 -224L354 -221Q320 -210 302 -197Q284 -183 257 -167Q265 -186 277 -194Q294 -204 310 -214H298Q278 -212 271 -204Q264 -197 249 -187Q246 -185 232 -181Q219 -177 214 -172Q205 -163 205 -155Q207 -151 210 -150Q223 -156 235 -162Q239 -162 241 -161Q228 -149 214 -139Q209 -130 203 -120Q197 -110 183 -108Q179 -108 175 -108Q163 -112 154 -122Q134 -118 121 -125Q113 -132 111 -144Q110 -155 116 -166Q109 -173 107 -188Q106 -193 108 -203Q116 -216 131 -230Q136 -237 141 -244Q146 -251 153 -253Q146 -242 143 -229Q143 -226 146 -223Q149 -220 157 -220Q163 -221 168 -223Q192 -231 194 -232Q220 -244 246 -257Q276 -270 305 -289Q335 -300 364 -311Q362 -304 359 -297L361 -295Q365 -297 368 -299L370 -298L371 -296Q371 -293 367 -287Q371 -284 374 -282ZM849 -166H854Q833 -153 825 -130V-128Q827 -119 828 -111V-109Q824 -92 820 -75V-73Q783 -57 742 -46Q748 -65 778 -76Q778 -83 772 -93Q747 -92 733 -80Q720 -67 707 -52Q676 -11 662 42Q664 47 666 52Q675 49 689 32Q708 9 727 7Q692 53 656 98Q648 89 642 77L638 78Q629 75 626 68Q606 68 602 74L601 70V59Q592 54 579 54Q560 55 541 63Q522 71 507 76Q495 92 483 108Q447 105 414 95Q403 75 381 58Q371 50 337 30Q342 28 350 28Q364 28 383 44Q401 59 413 59H417Q411 33 391 15Q377 3 345 -14Q332 -21 319 -30Q307 -39 292 -41Q288 -34 288 -27Q288 -17 301 1Q308 11 311 19Q299 19 288 9Q283 4 269 -14Q262 -23 253 -34Q245 -45 244 -57Q244 -65 248 -70Q247 -75 247 -84Q247 -130 299 -155V-167Q314 -161 337 -159H339Q351 -161 363 -164H365Q373 -163 392 -170Q405 -175 414 -175Q423 -175 430 -182L439 -179Q456 -182 475 -190Q482 -191 497 -191H505Q521 -191 534 -194Q548 -199 571 -202H574V-203Q582 -206 589 -210L590 -206Q592 -205 600 -205H620Q599 -194 534 -185Q457 -175 432 -157Q435 -148 451 -146H456Q471 -146 502 -155Q535 -165 552 -166Q600 -170 663 -184Q670 -189 670 -205V-213Q682 -222 720 -227Q751 -231 764 -237V-223Q776 -210 788 -197Q799 -185 805 -166H819L821 -165Q819 -161 816 -157V-156Q831 -163 849 -166ZM375 -351Q375 -348 372 -338Q365 -329 356 -329Q335 -329 318 -332Q283 -313 248 -300Q236 -297 216 -277Q199 -260 193 -257Q184 -251 179 -259Q176 -265 170 -289Q165 -313 160 -320V-321Q162 -323 164 -326Q155 -331 156 -336Q164 -355 180 -373Q195 -392 206 -408H200Q146 -408 117 -359Q104 -367 90 -376Q87 -388 80 -391Q73 -394 67 -401V-406Q68 -417 68 -429Q68 -442 63 -445V-491Q72 -507 93 -518Q122 -534 128 -539Q143 -553 158 -567Q167 -577 176 -585Q184 -594 198 -594H202Q194 -579 168 -560Q141 -540 133 -522Q135 -521 138 -521Q151 -525 160 -538Q188 -559 216 -580Q225 -589 233 -605Q241 -621 252 -631Q248 -642 241 -642Q235 -642 224 -634Q210 -624 205 -624Q209 -640 219 -647Q229 -654 238 -663L239 -666Q236 -671 233 -677V-679L236 -680Q241 -678 246 -676Q248 -676 249 -679Q248 -687 243 -689Q237 -691 233 -695Q236 -698 243 -698Q249 -697 254 -697H257Q265 -697 276 -703Q289 -710 294 -710Q302 -710 308 -704Q319 -697 327 -663Q340 -620 340 -594V-585Q340 -582 337 -579Q334 -576 334 -571V-567Q329 -565 318 -554Q306 -556 301 -556Q275 -555 265 -538Q255 -521 237 -503Q270 -506 303 -509Q318 -509 326 -505Q340 -483 337 -472Q326 -445 307 -422Q287 -398 265 -373Q306 -384 356 -407Q373 -385 375 -351ZM707 -376Q702 -368 702 -366Q702 -361 704 -359Q709 -354 715 -354Q722 -354 727 -355Q748 -357 754 -359Q774 -363 869 -393Q901 -398 933 -403Q930 -396 926 -390L928 -388Q932 -389 935 -391L937 -389L938 -387Q936 -383 933 -379Q935 -374 939 -372Q927 -354 926 -342L932 -340Q922 -332 919 -316L918 -314Q868 -306 808 -281Q828 -302 862 -317Q837 -316 804 -303Q782 -300 765 -295Q753 -288 753 -280Q753 -276 756 -273Q771 -277 785 -281Q788 -280 791 -279Q776 -269 759 -261Q753 -254 745 -245Q737 -236 722 -237Q717 -237 714 -238Q708 -240 695 -256Q674 -257 661 -265Q654 -276 655 -287Q655 -300 664 -307Q657 -315 657 -331Q659 -342 662 -346Q665 -352 674 -357Q682 -363 689 -369Q694 -373 698 -378Q690 -380 684 -380Q680 -390 672 -404Q664 -418 661 -436Q661 -442 660 -448Q661 -453 661 -459Q663 -466 675 -473Q687 -480 690 -487Q694 -487 698 -488H701Q711 -496 723 -514Q737 -535 749 -543Q735 -564 708 -568Q705 -574 697 -583Q685 -596 682 -604Q674 -622 672 -646V-647Q674 -671 693 -684Q713 -697 728 -710Q729 -709 729 -705Q729 -699 718 -690Q708 -682 708 -676Q708 -671 712 -667Q747 -685 773 -716Q771 -725 765 -732Q754 -728 743 -724V-730Q744 -741 750 -749Q750 -755 743 -761Q736 -768 735 -775H738Q745 -775 755 -767Q762 -761 767 -760Q770 -759 776 -759H784Q791 -759 795 -757Q809 -748 827 -728Q839 -715 853 -702Q867 -688 868 -670Q868 -659 864 -647Q849 -639 832 -633Q815 -627 802 -616Q814 -607 825 -599Q836 -591 855 -590Q852 -584 849 -579Q853 -571 853 -561Q853 -541 837 -518Q817 -514 801 -491Q817 -495 834 -501Q851 -507 866 -509Q880 -516 892 -526Q904 -535 923 -538Q911 -529 898 -520Q884 -512 883 -493H884Q893 -497 901 -501Q898 -490 894 -479Q894 -472 898 -469H907Q913 -469 914 -467L908 -452Q891 -441 857 -432Q823 -423 811 -415L787 -404Q732 -386 722 -376H715Q711 -376 707 -376ZM565 -510Q583 -523 583 -533Q589 -528 595 -524Q599 -535 597 -545Q601 -538 605 -532Q606 -540 602 -560Q601 -566 600 -572Q598 -577 601 -580Q609 -553 617 -527Q618 -532 617 -538Q613 -552 609 -566V-576Q614 -567 618 -549Q622 -532 626 -526Q632 -509 638 -493V-485Q641 -474 644 -463Q644 -447 643 -431Q644 -428 644 -425Q634 -417 623 -410Q619 -408 618 -408Q615 -407 610 -410Q604 -412 589 -412Q573 -410 563 -409Q563 -380 564 -368Q585 -373 605 -379Q623 -381 633 -393Q644 -406 655 -417Q652 -410 647 -404Q643 -399 642 -388V-384Q646 -391 647 -399Q649 -399 649 -388Q646 -382 646 -369Q646 -359 648 -339Q645 -337 645 -327Q602 -326 564 -307Q574 -284 571 -264Q567 -245 556 -231Q544 -218 536 -207L533 -206Q524 -206 508 -229Q504 -234 500 -239Q493 -254 488 -255V-256Q490 -267 494 -280Q494 -289 493 -294Q477 -289 471 -278Q456 -253 455 -252Q450 -244 443 -234Q436 -223 427 -222H426Q414 -222 404 -241Q391 -265 385 -269Q386 -286 388 -307Q390 -328 403 -334Q430 -344 456 -354Q446 -344 442 -338Q442 -335 443 -333Q447 -331 449 -332Q470 -338 493 -351Q493 -381 493 -412Q473 -402 458 -387Q464 -389 470 -391Q473 -392 481 -394Q483 -395 486 -395L487 -393Q487 -388 480 -386L477 -385Q460 -375 451 -366Q448 -359 443 -356H442Q436 -355 431 -360Q426 -365 420 -368Q418 -376 409 -382Q401 -387 397 -391V-399Q396 -406 396 -412Q396 -419 389 -420L381 -421Q390 -432 398 -443Q404 -465 416 -531Q402 -524 387 -519Q379 -520 374 -528Q355 -537 355 -559V-561Q357 -569 358 -577V-578Q357 -585 352 -592Q348 -597 348 -602Q350 -602 353 -598Q355 -595 358 -595Q358 -601 351 -610Q345 -618 344 -623H345Q351 -619 357 -616Q360 -616 361 -619Q361 -622 359 -622Q357 -623 355 -625Q361 -626 369 -636Q377 -647 386 -647H389Q392 -647 392 -650Q392 -652 394 -653Q399 -652 406 -652Q409 -652 432 -659Q432 -668 433 -671Q434 -684 433 -696Q432 -707 438 -718Q445 -725 477 -741Q487 -747 494 -750Q502 -753 516 -747Q523 -741 532 -738Q536 -741 539 -744Q539 -738 538 -732Q538 -726 544 -726Q542 -720 543 -715Q544 -710 544 -705V-704Q546 -705 547 -706Q568 -708 587 -707Q592 -713 607 -716Q620 -719 624 -722Q627 -720 627 -713H629Q634 -715 638 -717H640Q632 -701 632 -696V-691H633Q638 -693 643 -696H645Q642 -691 637 -685Q632 -680 631 -672Q631 -667 632 -665L633 -664L637 -666H638Q635 -647 631 -629Q623 -616 619 -612Q611 -603 602 -603L598 -604Q599 -609 606 -612Q614 -615 615 -619Q615 -621 614 -624V-625Q608 -629 606 -629Q569 -621 542 -602H543Q555 -605 569 -612Q570 -612 574 -610Q573 -603 568 -602Q562 -600 558 -600Q544 -593 540 -590Q539 -587 535 -583Q530 -578 530 -575Q512 -571 490 -561Q477 -521 466 -471Q481 -475 490 -478Q490 -481 490 -484Q490 -509 483 -524Q480 -529 489 -541Q497 -551 506 -559Q537 -565 563 -548Q565 -539 565 -517Q565 -513 565 -510ZM564 -435Q563 -429 563 -415Q567 -419 574 -421Q582 -421 589 -422Q590 -422 598 -424Q608 -426 611 -433Q603 -439 591 -439Q579 -439 564 -435Z"/>
</svg>