<svg xmlns="http://www.w3.org/2000/svg" viewBox="0 -800 1024 1024">
	<path fill="#000000" d="M307 -271V-281Q307 -287 304 -288H301Q285 -277 268 -267Q245 -253 245 -240Q256 -242 276 -252Q297 -263 308 -265Q307 -266 307 -271ZM313 -378Q311 -390 311 -397Q313 -419 314 -442Q314 -450 313 -454Q298 -437 284 -419Q269 -400 264 -372Q258 -370 255 -365Q253 -360 251 -355Q266 -360 282 -368Q298 -376 313 -378ZM933 -605V-599Q925 -593 916 -591Q914 -591 910 -593Q911 -605 932 -609ZM942 -212H940Q931 -212 931 -225Q931 -242 942 -242H945V-238Q944 -225 942 -212ZM398 -32Q400 -24 404 -10Q391 17 382 50Q367 54 348 77Q334 70 316 49Q293 21 273 17Q278 13 286 12Q283 3 268 3Q250 5 232 6H230Q239 -7 274 -9Q273 -12 266 -12H263Q257 -12 255 -13Q271 -21 294 -27Q301 -92 301 -166Q280 -157 255 -142V-123Q255 -70 262 -31V-30Q262 -28 258 -28H254L251 -27Q249 -23 249 -22Q249 -21 251 -15Q238 -10 224 -1Q192 -13 169 -25Q162 -75 126 -79Q129 -80 135 -80H142Q148 -80 151 -81Q158 -95 158 -114Q153 -157 147 -193H148Q154 -193 156 -186Q158 -179 160 -172Q165 -137 178 -105Q181 -121 181 -139Q181 -157 169 -243Q162 -302 133 -324Q123 -332 112 -332Q106 -332 103 -330Q115 -309 128 -286Q142 -262 143 -233Q143 -228 141 -216Q136 -225 129 -247Q121 -273 110 -286Q89 -306 70 -330Q41 -373 41 -397Q41 -404 42 -408Q49 -421 55 -435V-437Q54 -444 52 -452V-453Q59 -464 67 -476Q60 -492 57 -510Q57 -518 62 -522Q67 -500 77 -486Q81 -490 81 -497Q76 -517 71 -538Q71 -541 73 -547Q80 -543 80 -534Q81 -524 83 -517Q89 -509 95 -502L96 -505Q95 -510 94 -516Q94 -520 97 -522Q106 -515 115 -511Q135 -520 155 -520Q162 -520 165 -519Q179 -516 186 -504Q194 -492 202 -484Q209 -488 224 -505Q239 -522 249 -526Q249 -518 240 -506Q231 -494 231 -482V-480Q249 -488 262 -504Q275 -519 288 -535Q311 -562 316 -580Q302 -575 285 -556Q270 -540 262 -535V-538Q262 -542 273 -556Q287 -572 319 -604V-607Q319 -634 336 -666Q347 -672 356 -681Q366 -691 381 -692Q385 -691 388 -691Q399 -686 409 -681Q412 -682 415 -687Q419 -694 425 -694L426 -691Q425 -685 424 -679Q424 -675 428 -672Q433 -677 437 -683Q440 -690 448 -691Q446 -677 444 -664Q444 -659 445 -657L447 -656Q450 -658 453 -661L455 -660Q458 -645 466 -634Q474 -623 481 -611Q441 -534 421 -472Q394 -389 390 -301Q386 -221 386 -171Q386 -102 394 -54Q430 -65 439 -75Q451 -89 458 -104Q466 -120 483 -128Q481 -119 466 -87Q469 -82 472 -77Q504 -106 521 -147Q539 -188 558 -232Q557 -235 557 -239Q560 -253 562 -268V-276Q545 -254 535 -225Q529 -211 522 -198Q516 -185 505 -176V-180Q508 -190 513 -200Q542 -266 546 -279Q533 -278 526 -266Q520 -256 511 -251Q496 -242 494 -242H492Q475 -244 463 -263Q451 -282 438 -294Q423 -298 413 -306Q406 -316 406 -334Q406 -366 422 -375V-378Q419 -385 416 -392V-394Q417 -423 435 -436Q453 -450 472 -464Q499 -491 523 -501Q521 -496 514 -487Q507 -479 506 -470Q506 -463 514 -458Q530 -459 547 -470Q562 -480 576 -480H578Q587 -520 587 -579Q587 -609 569 -636Q559 -651 535 -674Q549 -677 561 -683Q561 -698 559 -703Q600 -726 649 -780Q701 -776 701 -747H699Q690 -751 681 -755Q676 -753 672 -744Q674 -731 693 -713Q710 -697 714 -684Q715 -681 715 -672V-668Q715 -653 720 -647Q735 -653 735 -673Q735 -687 728 -703Q717 -715 714 -728V-729Q720 -729 731 -719Q739 -712 742 -710Q741 -707 741 -702Q744 -681 747 -661Q747 -656 745 -648Q726 -628 720 -595Q713 -563 707 -528Q767 -543 843 -587L844 -585Q841 -577 838 -570Q838 -567 839 -565Q845 -562 849 -562Q856 -562 873 -573Q891 -585 903 -585H904Q900 -579 886 -570Q876 -564 871 -558L874 -557Q884 -561 894 -566Q896 -566 898 -564Q898 -562 893 -557Q884 -549 884 -543Q884 -539 886 -536L890 -535Q896 -537 902 -540Q896 -528 896 -518Q896 -508 903 -504Q896 -490 894 -471V-468L896 -467Q900 -469 904 -471L907 -470Q905 -464 896 -455Q887 -445 884 -438Q886 -424 886 -420Q886 -400 871 -390Q859 -382 838 -382Q833 -382 819 -384Q821 -394 843 -397Q861 -399 865 -405Q859 -418 835 -418Q829 -418 813 -416Q761 -409 706 -371Q713 -367 721 -367Q729 -367 747 -373Q765 -379 774 -379Q781 -379 784 -378Q775 -370 749 -362Q726 -355 717 -348Q755 -260 807 -183Q821 -160 835 -136Q850 -113 874 -101Q879 -112 882 -145Q885 -182 892 -194V-153Q892 -125 897 -111Q900 -131 913 -279Q921 -267 921 -228V-217Q919 -165 916 -113Q916 -92 918 -82Q924 -99 926 -143Q928 -185 933 -201Q938 -194 938 -170Q938 -146 941 -138Q938 -129 938 -106Q938 -93 939 -88Q939 -72 955 -36Q961 -21 966 -6Q979 11 980 18Q981 23 981 27Q981 45 972 64Q963 83 950 88Q946 93 941 97Q927 101 913 104Q892 99 874 96Q866 91 860 84Q841 78 822 72Q815 50 807 27Q795 8 791 -18Q799 -16 808 3Q817 23 827 27Q828 21 828 15Q828 -10 808 -50Q803 -60 778 -104Q762 -134 749 -161Q735 -189 716 -209Q719 -183 739 -144Q756 -111 760 -88H759Q750 -88 743 -108L742 -110Q700 -206 655 -300Q634 -273 619 -208Q614 -184 614 -147V-141Q618 -143 623 -149Q627 -154 635 -154H637Q644 -153 659 -142Q672 -132 680 -132Q687 -132 693 -137Q724 -97 734 -56Q728 -41 728 -37V-31Q717 -12 684 1Q678 -2 669 -2Q655 -2 647 4Q644 -10 637 -10Q631 -10 620 -3Q610 3 607 3Q609 -2 616 -10Q623 -18 625 -24Q623 -26 591 -68Q577 -56 572 -37Q566 -18 559 3Q548 35 547 41Q542 80 520 97Q490 85 469 81Q461 51 433 46Q430 46 422 48V45Q422 36 428 33Q433 29 437 25Q430 0 408 -3V-5Q410 -11 414 -15Q409 -26 398 -32Z"/>
</svg>