<svg xmlns="http://www.w3.org/2000/svg" viewBox="0 -800 1024 1024">
	<path fill="#000000" d="M108 -524V-527Q108 -539 124 -539Q128 -539 130 -538Q121 -525 108 -524ZM205 -675V-679Q205 -685 204 -691L205 -695H207Q214 -693 219 -689Q236 -696 254 -699Q272 -702 281 -716Q287 -714 291 -704Q294 -697 297 -694Q305 -689 312 -685Q324 -672 334 -658Q336 -658 339 -663Q342 -668 347 -668L350 -667Q348 -661 348 -650Q354 -616 375 -597Q384 -568 384 -546Q384 -522 372 -507Q371 -506 353 -493Q343 -483 333 -478Q325 -476 321 -476Q308 -476 282 -497Q262 -514 250 -517Q245 -517 237 -510Q232 -506 229 -506Q228 -508 228 -511Q231 -521 238 -529Q238 -532 235 -532Q232 -532 232 -535Q206 -531 201 -529Q189 -525 172 -512Q157 -500 149 -497Q150 -506 158 -514Q167 -521 176 -529Q207 -554 207 -562Q207 -566 201 -568Q199 -569 194 -569Q181 -569 160 -554Q144 -543 137 -543Q145 -559 165 -566Q184 -573 186 -592Q186 -595 185 -598Q173 -598 164 -601Q174 -609 183 -618Q181 -635 165 -650Q147 -667 143 -678Q158 -665 178 -665Q194 -665 205 -675ZM827 -544H831V-543Q831 -537 826 -533Q821 -529 816 -529H813L812 -533Q812 -544 827 -544ZM957 -304Q959 -285 951 -276Q946 -281 946 -295Q946 -304 949 -307Q953 -305 957 -304ZM594 -19H599Q596 -30 593 -41Q590 -51 581 -57L587 -84Q559 -81 559 -57Q559 -43 569 -31Q579 -19 594 -19ZM690 -43V-30H709Q719 -116 727 -157Q723 -159 716 -159Q701 -157 700 -148Q700 -139 713 -139H714Q715 -133 715 -122V-114Q690 -96 690 -43ZM648 -31V-40Q659 -97 660 -111Q658 -113 648 -121Q651 -124 653 -129Q647 -131 645 -131Q632 -127 621 -118V-113Q623 -92 627 -76Q631 -78 634 -84Q637 -90 639 -91Q634 -58 634 -52Q634 -36 642 -25Q648 -25 648 -31ZM592 80Q596 73 608 71Q612 70 630 69Q683 71 725 62Q706 50 659 50Q631 51 603 51H599Q522 51 508 81H510Q541 77 571 73Q584 73 593 77ZM591 83Q586 87 576 87H566Q487 97 473 130Q470 122 459 115Q454 112 438 104Q409 90 406 74Q404 60 404 53Q409 -9 453 -23Q457 -18 460 -13Q462 -15 467 -15H476Q455 -45 449 -51Q435 -38 426 -44Q429 -47 430 -47Q436 -51 442 -55L443 -56Q438 -59 432 -62Q425 -61 413 -53Q404 -44 407 -38Q410 -34 416 -36Q421 -37 423 -36Q425 -31 416 -27Q411 -24 406 -21L400 -17Q387 -7 361 19Q355 23 351 21Q361 11 369 0Q379 -15 391 -27Q383 -31 371 -22Q356 5 336 13Q328 15 318 23Q305 33 305 42Q305 48 309 47Q318 45 331 36Q342 31 345 30Q336 42 318 51Q302 59 285 52Q256 43 232 38Q230 38 228 35Q226 31 224 31H222Q205 31 191 40V39Q191 32 215 23Q208 9 208 -8Q210 -48 221 -59L228 -60Q222 -64 216 -68L217 -69Q224 -69 227 -68Q232 -73 237 -105Q243 -148 255 -150Q255 -87 271 -73Q267 -173 275 -230Q269 -231 266 -221Q261 -208 261 -202Q256 -182 247 -164Q246 -169 246 -190Q245 -221 242 -247Q240 -273 245 -296Q208 -284 180 -226Q168 -223 161 -223Q157 -223 149 -225Q139 -233 127 -258Q118 -277 113 -284Q107 -292 101 -301L100 -305Q102 -311 103 -317V-319Q102 -332 101 -346Q101 -350 102 -353Q97 -362 88 -369Q79 -376 74 -382Q76 -384 80 -384Q92 -379 102 -370Q100 -384 78 -400Q60 -413 55 -423Q68 -422 86 -406Q100 -393 109 -391Q110 -399 96 -408Q83 -416 81 -424Q98 -418 114 -407Q120 -404 123 -404H124Q128 -406 131 -409Q135 -411 147 -411Q155 -410 163 -410Q170 -410 172 -411Q199 -415 205 -417Q209 -415 213 -414Q209 -407 202 -406Q196 -405 186 -401Q174 -396 172 -389Q172 -382 179 -376Q220 -386 265 -415Q263 -419 256 -421Q243 -418 229 -415L225 -416Q227 -428 240 -428H242Q254 -438 268 -445Q273 -444 278 -444Q282 -444 286 -445Q291 -442 296 -440Q301 -442 312 -450Q322 -458 330 -460V-459Q326 -453 315 -445Q310 -438 310 -429Q310 -425 310 -422Q315 -423 323 -429Q333 -437 339 -438Q323 -425 323 -413Q323 -404 332 -400Q337 -403 343 -406H346L347 -405Q345 -401 342 -398L344 -395L346 -393Q349 -394 352 -395Q347 -390 347 -378Q348 -361 349 -345Q349 -338 347 -335H346Q342 -335 340 -339Q338 -342 337 -345Q325 -340 324 -327Q322 -314 316 -303Q315 -301 309 -297Q304 -293 302 -288Q304 -285 306 -282H311Q328 -283 334 -296Q340 -309 350 -320Q354 -313 353 -305Q353 -304 347 -277Q342 -272 336 -274Q320 -273 315 -251Q311 -228 313 -196Q321 -126 317 -87Q333 -98 349 -110Q358 -117 344 -139Q333 -156 330 -171Q334 -168 346 -152Q357 -138 364 -135Q367 -143 346 -175L368 -152L338 -209L379 -157L371 -180Q381 -166 386 -161Q371 -181 367 -195Q372 -194 377 -189Q382 -181 385 -173Q392 -163 399 -153Q406 -143 415 -136Q429 -126 436 -120Q439 -135 449 -139Q453 -137 456 -137Q418 -169 418 -207V-209Q422 -222 425 -235Q425 -246 415 -266Q406 -284 406 -294Q406 -301 409 -307Q415 -304 419 -292Q423 -279 428 -268Q436 -256 441 -256Q446 -256 449 -265Q457 -259 462 -259Q472 -260 479 -272Q486 -284 492 -292Q468 -316 442 -336Q442 -344 440 -346Q436 -355 422 -355Q412 -364 412 -379Q413 -391 414 -404Q414 -415 409 -421Q415 -442 438 -453Q460 -465 478 -476Q476 -483 469 -486Q463 -489 456 -494Q444 -506 435 -520Q426 -533 411 -534Q406 -534 404 -533Q412 -540 419 -547Q418 -559 417 -570Q415 -581 407 -586Q435 -602 435 -651V-656Q440 -638 454 -638Q467 -638 471 -653H473Q475 -653 477 -650Q479 -647 481 -646H488Q507 -646 520 -637Q530 -630 542 -614Q547 -617 550 -622Q553 -627 561 -628Q554 -598 554 -595V-589Q557 -582 560 -576V-573Q560 -567 559 -562Q559 -559 560 -557Q561 -550 568 -537Q574 -526 574 -521V-520Q571 -510 568 -500Q568 -496 571 -493H573Q580 -493 592 -503L644 -625Q657 -647 661 -665Q659 -679 640 -679H631Q623 -679 620 -680Q623 -687 638 -693Q651 -699 653 -707Q710 -737 761 -770Q799 -761 826 -730Q834 -721 869 -667Q863 -631 861 -623Q853 -598 838 -598Q834 -598 826 -601Q851 -616 853 -650Q853 -663 848 -673Q845 -674 841 -674Q819 -674 819 -637Q786 -624 767 -607Q742 -585 741 -554Q751 -565 762 -576Q772 -587 788 -592Q785 -581 777 -574Q769 -566 762 -559Q743 -538 739 -527Q750 -529 760 -532Q770 -532 788 -542Q799 -548 806 -550Q803 -545 791 -537Q776 -528 773 -523Q776 -518 779 -518Q789 -522 799 -526Q801 -526 805 -524Q792 -514 787 -499Q788 -495 790 -495Q793 -495 796 -496H797Q794 -484 794 -466Q794 -455 796 -439Q790 -436 790 -426Q790 -420 791 -418H789Q784 -415 779 -413H767L765 -411V-406Q767 -394 769 -384Q772 -373 767 -367Q770 -363 803 -330Q812 -321 822 -312Q831 -303 832 -288V-286Q817 -288 805 -305Q792 -324 781 -327Q790 -265 868 -229Q871 -233 871 -238Q871 -245 857 -255Q840 -267 840 -276Q840 -280 841 -282Q848 -281 862 -270Q874 -260 880 -258Q886 -255 889 -255Q897 -255 901 -264Q903 -268 903 -276Q903 -287 897 -308Q890 -332 890 -341Q890 -352 896 -361Q902 -339 907 -297Q912 -255 914 -244V-259Q911 -329 907 -400Q923 -354 926 -297Q926 -295 931 -293Q934 -292 935 -289V-283Q938 -253 946 -228Q948 -232 948 -235Q947 -244 946 -253Q946 -258 949 -261Q953 -251 956 -222Q960 -186 969 -174L966 -160V-157Q966 -148 971 -133Q975 -121 975 -115V-109Q975 -70 917 -51Q907 -62 890 -72Q882 -78 870 -95Q855 -117 844 -123L843 -120Q845 -114 847 -108Q829 -86 820 -42Q838 -45 855 -48Q858 -49 862 -54Q867 -59 872 -60Q870 -54 870 -50Q870 -42 876 -37Q882 -32 891 -32Q898 -32 901 -33Q898 -30 895 -29Q892 -28 892 -24V-22Q899 -15 904 -15H908Q907 -13 907 -8Q907 -2 915 14Q912 17 912 22Q914 32 915 42V45L912 44H911Q913 52 915 60V62Q909 67 909 79Q908 91 907 98Q863 95 815 89Q815 79 833 77Q848 75 850 69V68Q850 58 826 56Q818 55 798 55Q765 55 754 60Q755 70 772 74Q787 78 790 83Q786 88 779 88Q768 86 757 84Q732 81 702 81Q653 82 604 83ZM504 -146Q625 -201 729 -243Q701 -286 698 -289Q691 -301 682 -315Q673 -329 662 -334Q656 -336 653 -336Q638 -335 626 -324Q613 -313 601 -304Q592 -285 579 -273Q566 -261 554 -247Q538 -223 522 -199Q525 -226 538 -243Q551 -262 561 -283Q549 -277 536 -261Q527 -249 516 -231Q503 -208 500 -203Q491 -185 491 -171Q491 -165 492 -162Q500 -163 507 -173Q513 -181 516 -181H517Q517 -173 511 -162Q506 -152 505 -149Z"/>
</svg>