<svg xmlns="http://www.w3.org/2000/svg" viewBox="0 -800 1024 1024">
	<path fill="#000000" d="M894 -511H885Q887 -527 897 -527L900 -526V-524Q897 -517 894 -511ZM541 -6V-12H543Q550 -12 555 -6Q556 -4 561 5Q550 2 541 -6ZM102 -390H94Q90 -390 88 -391Q90 -398 96 -401Q102 -403 108 -406L110 -404Q106 -397 102 -390ZM330 -101V-95Q343 -97 363 -104Q392 -113 408 -115Q416 -131 417 -139Q362 -132 359 -131Q330 -123 330 -101ZM743 -460H740Q732 -460 721 -454Q714 -450 711 -450H710Q713 -459 732 -474Q748 -484 752 -495V-496Q699 -486 669 -445Q685 -436 692 -398Q697 -368 705 -357Q728 -393 743 -460ZM862 -129H858Q844 -129 844 -121V-118Q821 -113 789 -112Q757 -110 743 -94Q738 -85 738 -69V-52Q738 -34 735 -26Q727 -32 727 -53V-59Q727 -78 722 -84Q708 -73 708 -38Q708 -16 716 37Q718 64 725 78Q737 73 737 57Q735 38 733 18Q733 9 735 6Q741 7 742 14Q742 20 743 26Q746 46 753 72Q752 75 747 81Q742 86 742 91Q742 95 743 97Q729 106 715 131Q691 130 672 115Q664 108 644 84Q632 57 609 40Q585 24 564 6Q587 9 601 21Q616 32 632 41Q617 24 578 -4Q551 -23 538 -35Q565 -29 588 -11Q610 6 632 21V20Q632 16 623 10Q615 4 613 -1H616Q626 1 632 6Q649 0 652 -21Q655 -42 657 -64Q644 -58 632 -49Q623 -52 613 -54Q602 -56 595 -63Q592 -69 588 -75Q581 -84 573 -92Q565 -100 564 -107V-109Q564 -112 567 -124V-151Q567 -175 579 -183Q587 -188 600 -188Q615 -187 629 -187Q646 -187 657 -192Q665 -197 665 -212Q665 -216 663 -224Q639 -211 624 -196Q612 -190 602 -190Q582 -192 568 -209Q554 -226 540 -239Q542 -245 542 -248Q542 -255 536 -264Q530 -273 530 -278Q530 -280 532 -286Q507 -283 481 -283Q454 -284 435 -273Q426 -267 423 -246Q420 -230 416 -222Q425 -224 442 -232Q467 -244 485 -246Q489 -248 493 -254Q500 -264 508 -264Q504 -259 504 -252Q505 -242 512 -236Q520 -229 526 -224H528Q533 -226 537 -229V-226Q537 -218 543 -210Q546 -210 546 -213Q546 -216 549 -216H550Q554 -189 565 -181Q564 -165 562 -150V-147Q556 -134 539 -128Q523 -123 509 -114Q476 -87 460 -48V-46Q457 -28 447 -18Q426 -26 422 -26Q412 -26 408 -16Q407 -18 407 -22Q407 -29 410 -32Q392 -34 386 -34Q359 -34 346 -18Q342 -9 337 -1Q331 5 314 9Q303 12 297 15Q286 7 274 7Q270 8 266 8Q267 6 267 3Q267 -3 259 -8Q252 -13 252 -16L253 -19Q255 -20 258 -20Q262 -20 268 -15Q274 -10 279 -10Q281 -10 281 -12Q281 -15 284 -15Q257 -72 201 -79Q200 -77 200 -73Q200 -61 220 -49Q237 -39 238 -32Q211 -34 186 -55Q161 -76 158 -98Q157 -102 157 -109Q158 -132 172 -147Q185 -162 198 -178H200Q210 -178 216 -183Q221 -188 228 -192H232Q241 -192 254 -186Q267 -180 273 -180H275Q288 -180 318 -192Q348 -204 365 -205Q364 -214 349 -249Q323 -249 311 -236Q216 -215 146 -151Q144 -150 138 -150Q128 -150 105 -160Q85 -169 77 -170Q53 -174 45 -178Q32 -185 32 -202V-208Q33 -211 38 -220Q37 -226 31 -235Q26 -243 25 -249V-252Q26 -268 35 -285Q44 -302 49 -315Q74 -322 118 -345Q147 -360 164 -367Q160 -360 147 -354Q130 -346 128 -336Q140 -333 151 -333Q165 -333 191 -340Q217 -347 233 -347Q239 -346 244 -346Q236 -334 195 -331Q144 -327 133 -310Q139 -297 159 -297Q163 -297 167 -298Q201 -305 244 -321L284 -331Q298 -334 309 -335Q319 -337 327 -346Q325 -356 309 -356Q299 -355 288 -354Q291 -367 306 -368Q320 -369 334 -371Q330 -384 327 -407Q328 -411 328 -415Q308 -410 294 -400Q280 -389 266 -379Q258 -398 240 -401Q237 -401 235 -400V-404Q235 -410 234 -412H230Q217 -409 208 -402L206 -404Q209 -411 211 -418Q207 -428 196 -428Q181 -428 164 -417Q165 -424 174 -430Q184 -436 186 -441H184Q168 -440 153 -430Q138 -420 121 -412Q142 -437 168 -454Q195 -472 220 -490L272 -528Q284 -538 297 -548Q310 -558 327 -561Q319 -545 288 -525Q255 -503 246 -483Q248 -482 253 -482Q266 -482 285 -497Q302 -509 318 -522Q370 -552 405 -597Q401 -604 395 -604Q389 -604 377 -595Q366 -586 361 -586Q361 -595 375 -610Q388 -624 388 -633Q388 -642 380 -651Q404 -651 422 -664Q424 -663 428 -663Q430 -663 448 -669Q459 -664 470 -663Q501 -628 517 -616Q523 -600 529 -584Q535 -567 546 -555Q545 -553 545 -549Q549 -535 555 -522Q548 -513 548 -503Q548 -496 549 -493Q534 -488 522 -477H520Q517 -477 514 -478H512Q499 -471 474 -471H451Q420 -471 408 -459Q422 -453 432 -431Q445 -402 450 -396Q466 -398 490 -408Q514 -418 526 -420Q528 -421 537 -437L539 -435Q539 -431 535 -427Q541 -418 550 -411Q559 -404 567 -397Q573 -377 573 -366Q573 -362 571 -336H572Q582 -340 592 -345L594 -344Q591 -343 588 -337L589 -334H594Q612 -335 629 -340Q624 -349 617 -355Q609 -361 602 -367L603 -371Q603 -378 591 -388Q581 -396 579 -402Q578 -404 578 -409V-415Q578 -418 577 -420Q576 -427 567 -436Q559 -445 558 -453Q567 -446 577 -441L578 -442Q576 -448 573 -454Q588 -451 593 -451Q602 -451 607 -456Q600 -464 592 -471Q583 -478 582 -493V-496Q576 -502 568 -509Q561 -517 559 -529Q562 -542 564 -556V-560Q563 -575 562 -590Q562 -604 570 -613Q586 -625 617 -627Q629 -629 641 -632Q651 -632 654 -625Q640 -623 628 -617Q614 -610 614 -600Q614 -594 618 -589Q655 -599 688 -612Q681 -627 681 -651Q681 -674 678 -684Q676 -692 662 -708Q642 -732 642 -752V-760Q645 -777 661 -793Q667 -799 691 -816Q693 -815 697 -815Q708 -817 719 -820H721Q737 -820 749 -805Q760 -792 764 -774Q753 -781 741 -789Q738 -786 734 -784V-782Q735 -770 742 -762Q750 -753 755 -744Q758 -735 760 -726Q762 -718 770 -712Q776 -717 776 -730Q776 -742 773 -751Q791 -751 791 -717Q791 -711 789 -701Q780 -695 772 -687Q764 -680 762 -667Q776 -672 796 -677Q815 -682 829 -690Q831 -690 831 -685V-681Q831 -677 833 -675Q845 -676 860 -683Q877 -691 888 -691Q880 -683 870 -677Q859 -670 858 -658Q859 -655 859 -652Q865 -652 869 -656Q875 -661 879 -661H882Q881 -657 874 -650Q863 -639 863 -634Q863 -628 870 -624Q875 -626 879 -629Q882 -629 883 -627L884 -625Q880 -618 875 -612Q875 -609 874 -607Q877 -592 880 -577V-573Q873 -568 872 -556V-555Q875 -551 877 -547Q868 -544 855 -535Q840 -525 830 -522Q834 -515 838 -508Q841 -502 849 -501Q852 -501 854 -502Q853 -500 851 -499H853Q866 -503 879 -507Q878 -504 872 -500Q865 -495 863 -490Q869 -463 869 -443V-433Q821 -425 795 -378Q858 -378 904 -421Q906 -413 907 -405Q911 -401 917 -401Q922 -401 934 -403Q931 -399 928 -395L930 -393Q943 -396 956 -399H958Q952 -394 946 -390Q940 -386 940 -376Q942 -368 947 -368Q945 -362 943 -357Q946 -352 947 -342Q952 -332 956 -322V-320Q953 -304 950 -289V-285Q936 -282 935 -276Q930 -278 921 -278Q903 -276 885 -275Q876 -275 873 -277Q879 -286 891 -286Q895 -285 899 -285Q908 -285 915 -288V-290Q915 -302 899 -302Q891 -301 882 -301Q870 -301 857 -302H851Q846 -301 802 -289Q777 -285 763 -283Q748 -282 734 -271Q730 -268 730 -266Q730 -262 749 -262Q787 -269 823 -277L835 -271Q823 -263 792 -258Q760 -253 750 -247Q754 -233 758 -220Q817 -235 857 -247Q854 -242 854 -238Q856 -224 871 -222Q874 -222 880 -224L881 -222Q879 -213 876 -204Q876 -198 884 -198H886Q880 -174 880 -173Q880 -165 885 -160Q863 -152 862 -129Z"/>
</svg>