<svg xmlns="http://www.w3.org/2000/svg" viewBox="0 -800 1024 1024">
	<path fill="#000000" d="M135 -124V-122Q129 -125 124 -129Q119 -134 119 -143L131 -146V-144Q133 -134 135 -124ZM705 -240H703Q701 -241 698 -243Q699 -250 701 -257Q704 -264 713 -264H714V-261Q714 -253 705 -240ZM814 -537H815Q818 -536 820 -526Q809 -523 803 -514Q799 -517 799 -523Q800 -535 814 -537ZM870 -63Q870 -54 859 -51Q842 -47 841 -46Q844 -64 862 -64Q867 -64 870 -63ZM407 -100Q433 -134 447 -205Q444 -210 439 -217Q435 -224 426 -225Q427 -227 427 -231Q428 -234 425 -243Q419 -243 412 -237Q404 -231 397 -230V-231Q398 -241 411 -254Q421 -264 423 -268Q425 -272 429 -284Q433 -297 439 -303Q454 -320 502 -317Q535 -315 547 -296Q550 -283 556 -268L553 -269Q542 -273 530 -278Q523 -278 521 -274V-271Q520 -265 528 -257Q534 -251 534 -247V-243Q528 -171 461 -37Q433 -19 417 1Q417 -12 434 -29Q449 -44 451 -56Q431 -52 408 -33Q397 -24 368 5Q350 22 329 41Q308 60 299 82Q296 87 296 92Q296 96 299 100Q316 92 342 61Q366 32 388 25Q380 42 365 55Q350 68 337 82Q328 96 318 110Q309 124 296 129H295Q287 129 271 121Q253 112 240 112L251 102Q244 88 227 85Q211 83 200 77L216 68Q217 63 200 50Q184 36 180 10L208 43Q212 48 220 48L221 44Q218 29 207 17Q198 4 177 -18Q149 -47 140 -64Q154 -53 183 -26Q210 0 222 9Q221 6 225 4Q229 2 228 0Q218 -17 193 -48Q155 -96 144 -120Q175 -102 217 -55Q248 -20 264 -8Q342 -48 358 -58Q350 -59 323 -65Q313 -74 306 -95Q304 -102 296 -133Q293 -143 289 -153Q289 -158 293 -162Q297 -160 302 -150Q307 -139 314 -137Q321 -141 321 -151Q321 -155 320 -159Q320 -164 308 -199Q297 -233 281 -238Q276 -233 276 -225Q276 -219 283 -204Q289 -191 289 -185Q289 -180 286 -177Q281 -183 262 -223Q248 -252 228 -258Q196 -277 172 -304Q168 -312 168 -322Q172 -345 181 -372Q179 -385 168 -402Q154 -425 153 -442Q161 -432 169 -420Q176 -408 188 -402Q181 -417 173 -430H175Q179 -430 187 -421Q198 -408 208 -408H212Q210 -415 199 -424Q192 -430 190 -433Q192 -434 196 -434Q201 -434 208 -430Q218 -424 224 -424H227Q237 -424 261 -433Q282 -441 294 -441Q303 -441 307 -439Q315 -436 324 -420Q331 -408 338 -402Q393 -418 436 -422Q433 -475 429 -528Q429 -541 430 -547Q442 -543 442 -521Q442 -509 441 -498V-494Q441 -463 453 -442Q463 -456 463 -483Q463 -493 461 -517Q457 -574 455 -589Q449 -628 433 -640Q423 -636 423 -626Q427 -609 431 -592Q431 -584 425 -582Q418 -589 413 -612Q407 -640 396 -646Q387 -682 387 -694Q387 -703 390 -712Q390 -714 396 -719Q403 -725 405 -730Q416 -752 427 -763Q439 -769 450 -775Q462 -783 470 -791Q479 -799 489 -801Q494 -802 505 -802Q531 -802 541 -796Q549 -791 556 -779Q562 -767 567 -760Q574 -757 581 -754V-749Q585 -730 597 -715Q599 -701 599 -696Q599 -690 597 -672Q577 -652 577 -627Q577 -623 579 -613Q635 -635 684 -661V-663Q684 -667 690 -673Q694 -677 695 -679Q700 -678 700 -672Q699 -666 698 -660Q698 -657 699 -655Q731 -663 749 -672Q756 -677 763 -683Q770 -689 779 -690Q783 -690 785 -689Q779 -679 756 -668Q733 -657 727 -645H729Q733 -645 741 -651Q750 -658 758 -658H761V-657Q761 -654 751 -646Q738 -636 738 -630Q738 -627 742 -623Q753 -630 763 -632H767Q756 -623 756 -611Q756 -604 763 -598Q750 -589 750 -570Q750 -567 752 -559L739 -553Q734 -535 719 -524Q704 -513 686 -513Q683 -513 679 -514Q681 -525 693 -526Q705 -527 712 -532Q712 -543 698 -543Q687 -542 676 -541Q643 -539 615 -530Q580 -519 575 -499Q579 -497 582 -497Q587 -497 599 -502Q616 -509 628 -509Q635 -509 638 -508V-507Q637 -503 635 -499V-497Q602 -490 596 -488Q576 -482 564 -468Q538 -464 538 -448Q565 -453 601 -457Q636 -460 665 -469Q677 -473 688 -480Q700 -486 717 -487Q741 -487 758 -497Q753 -490 750 -479Q750 -476 752 -472Q762 -476 774 -491Q787 -506 796 -510Q789 -498 781 -487Q773 -477 770 -462Q773 -473 784 -475Q782 -463 782 -458Q783 -437 793 -422Q802 -407 809 -390Q801 -373 798 -348Q763 -339 739 -301Q736 -293 731 -284Q727 -275 717 -274V-278Q717 -286 724 -297Q729 -305 729 -309Q729 -313 726 -318Q714 -317 703 -304Q682 -267 664 -223Q639 -169 639 -140Q640 -134 640 -129Q652 -139 664 -167Q677 -196 687 -205Q682 -183 663 -134Q641 -78 635 -45Q640 -41 649 -41Q661 -43 673 -45Q680 -50 686 -71Q693 -94 703 -99Q697 -85 697 -69Q697 -37 715 -34Q722 -38 732 -48Q747 -64 758 -64Q757 -59 748 -51Q733 -38 732 -28Q732 -25 737 -21Q741 -18 742 -14Q757 -17 782 -28Q815 -42 834 -43Q831 -34 822 -32Q813 -31 806 -30Q773 -18 763 6Q763 12 766 15Q769 18 772 21Q782 20 792 18H796Q795 21 791 24Q787 26 787 29L788 33Q792 34 798 34Q830 30 861 26H867Q862 33 853 34Q843 35 834 36Q788 44 788 72Q788 81 790 87Q792 94 809 94Q825 94 828 99Q822 98 812 98Q788 100 775 108Q764 114 752 131H731Q692 131 677 124Q675 117 664 110Q651 102 650 93Q658 93 668 101Q676 107 680 107Q685 107 690 103Q686 84 649 60Q622 42 609 42H605Q605 44 603 46Q605 56 619 65Q631 73 634 80Q631 81 625 81Q616 81 611 77Q605 72 605 64V63Q589 49 571 33Q553 18 551 -6Q551 -18 558 -31H581V-32Q581 -35 573 -40Q566 -44 564 -48Q562 -47 558 -47Q552 -47 544 -52Q534 -58 529 -58H526Q516 -94 529 -144Q529 -149 547 -188Q566 -230 566 -237Q594 -325 619 -375H615Q530 -355 444 -336Q419 -329 394 -310H392Q384 -308 376 -306Q377 -258 383 -212Q389 -166 393 -124Q402 -116 407 -100Z"/>
</svg>