<svg xmlns="http://www.w3.org/2000/svg" viewBox="0 -800 1024 1024">
	<path fill="#000000" d="M942 -127V-131Q942 -144 952 -144H954Q952 -130 942 -127ZM472 22V13H481Q501 13 508 19Q506 19 472 22ZM720 -125H721Q724 -124 726 -124Q727 -112 728 -101Q728 -94 726 -91Q717 -92 717 -110Q717 -120 720 -125ZM646 -455V-461Q646 -467 643 -467Q631 -457 618 -451Q618 -447 617 -443Q617 -440 619 -439Q625 -439 633 -445Q640 -450 647 -451ZM607 -532V-530Q624 -536 641 -542Q643 -550 643 -556Q643 -560 641 -566Q607 -558 607 -532ZM736 -502V-511Q734 -512 729 -512Q719 -510 711 -505V-470Q715 -471 734 -479Q736 -499 736 -502ZM719 -575Q747 -578 747 -620Q747 -632 746 -638Q711 -623 702 -610Q713 -601 714 -599Q720 -592 720 -582Q720 -578 719 -575ZM560 -9H557Q542 -10 531 -18Q521 -27 511 -34H510Q507 -33 504 -32H502Q502 -39 505 -41Q496 -49 487 -73Q477 -102 474 -107Q479 -107 487 -103Q495 -108 496 -118L495 -122Q516 -134 544 -134Q553 -134 563 -132Q567 -123 576 -118Q584 -113 591 -107Q595 -110 601 -119Q608 -131 615 -133Q607 -114 604 -93V-88Q607 -74 612 -64V-62Q612 -47 604 -37Q597 -27 587 -16L583 -17Q572 -13 560 -9ZM646 -357V-368Q624 -363 624 -342Q620 -338 604 -337Q592 -336 588 -334Q572 -343 561 -356Q549 -370 536 -382Q541 -389 541 -397Q538 -419 532 -439Q536 -440 540 -442H542Q544 -423 555 -422Q560 -435 560 -451Q560 -500 533 -506Q528 -503 528 -496Q528 -489 526 -483H519Q513 -492 508 -503Q511 -484 513 -466V-460Q504 -448 496 -434Q494 -437 488 -439H487Q463 -432 451 -422Q437 -409 413 -374Q398 -351 388 -340Q374 -324 358 -311Q343 -297 333 -279Q341 -263 348 -248Q353 -259 368 -277Q385 -297 388 -307Q381 -304 373 -302Q370 -302 368 -304Q379 -318 398 -328Q409 -337 419 -345Q430 -353 447 -354Q454 -354 458 -353Q479 -329 489 -289Q509 -322 520 -332Q517 -318 514 -305V-301Q518 -294 528 -294H533Q544 -294 545 -287Q539 -283 532 -280Q524 -277 523 -268Q529 -259 540 -259Q551 -261 561 -263Q583 -266 606 -271Q629 -277 640 -289Q639 -297 628 -297Q622 -296 616 -296Q600 -293 583 -291Q579 -291 573 -293Q583 -305 603 -306Q624 -308 641 -311Q646 -334 646 -357ZM829 -10H826Q820 -10 810 -4Q803 0 799 0L798 -3Q802 -14 810 -26Q791 -46 768 -67Q746 -89 744 -118Q744 -133 749 -144H750Q755 -146 760 -148V-150Q760 -153 759 -157L760 -160Q771 -163 783 -163Q805 -163 834 -154Q836 -155 839 -159Q842 -164 847 -164H850Q861 -147 872 -144Q877 -146 882 -153Q889 -163 896 -164V-163Q893 -150 889 -138Q889 -132 895 -128Q904 -133 915 -152Q923 -166 930 -172Q930 -164 923 -148Q914 -126 914 -115Q914 -109 915 -106H917Q919 -106 922 -110Q927 -117 932 -117Q935 -117 937 -116Q927 -102 927 -91Q927 -83 933 -76Q953 -76 967 -83Q966 -79 955 -73Q940 -65 939 -56Q941 -42 941 -36Q941 -11 930 5Q918 22 899 22Q892 21 864 10Q845 -4 829 -10ZM687 125H682Q669 125 655 108Q641 91 630 90Q623 70 596 58Q594 57 547 41Q551 39 559 39Q582 42 604 44H612Q598 36 563 30Q535 25 522 20Q527 18 537 18Q564 21 590 23Q601 23 610 20Q608 15 594 15Q584 15 579 13Q606 6 628 -4Q642 -84 645 -171Q645 -190 644 -199Q593 -195 578 -187Q563 -177 549 -162Q535 -147 517 -145H516Q494 -151 478 -173Q472 -193 458 -208Q457 -212 457 -220V-226Q433 -226 397 -211Q360 -199 350 -185H354Q370 -184 386 -183Q393 -183 401 -185Q401 -170 413 -169Q420 -173 424 -180Q428 -187 439 -188Q431 -171 427 -155Q427 -146 436 -139Q444 -141 451 -144Q446 -135 446 -124Q449 -105 451 -86Q451 -75 448 -69Q441 -53 422 -53Q397 -53 348 -83Q347 -81 347 -78Q349 -68 350 -58Q341 -58 339 -74Q337 -86 333 -89Q319 -86 319 -59Q320 -49 320 -40V-29Q320 -9 319 10Q319 40 335 50Q343 43 343 11Q343 -12 347 -22Q354 -10 354 21V38Q354 60 356 69Q341 83 338 85Q327 94 317 94H316Q311 93 305 88Q298 82 294 82Q291 82 289 83Q283 77 277 71Q271 64 262 60V53Q261 33 253 21Q244 9 236 -3H238Q242 -2 246 -1H248Q245 -12 232 -17Q224 -20 207 -22Q244 -57 261 -78Q264 -111 271 -197Q253 -185 221 -137Q197 -101 183 -86Q177 -80 169 -75Q165 -70 144 -32Q139 -22 132 -9Q125 4 112 5H111Q106 1 100 -4Q95 -7 85 -8Q74 -9 71 -12H70Q64 -8 61 -4L59 -6Q62 -12 62 -17Q62 -25 51 -43Q41 -60 39 -72Q41 -83 42 -95Q41 -101 39 -107V-110Q44 -154 54 -202V-215Q54 -224 59 -229Q61 -217 61 -209Q61 -192 60 -176Q60 -146 73 -138Q98 -152 141 -193Q223 -277 239 -296Q256 -312 273 -329Q299 -361 325 -394Q258 -371 225 -339Q197 -332 169 -313Q160 -307 123 -277H116Q83 -277 64 -314Q58 -325 42 -341Q30 -353 28 -358Q25 -365 25 -374Q25 -393 39 -414Q36 -426 36 -436Q36 -458 49 -478Q57 -490 79 -511Q91 -523 102 -534Q114 -546 127 -552L128 -549Q128 -545 123 -538Q116 -528 116 -523V-520Q119 -509 131 -509Q146 -511 160 -513Q163 -513 169 -511Q162 -502 148 -500Q134 -499 132 -484V-481Q142 -476 152 -476Q169 -477 187 -484Q204 -492 219 -499Q291 -528 313 -546Q309 -551 299 -551Q293 -550 287 -550Q274 -549 249 -538Q224 -528 212 -527V-529Q212 -537 225 -542Q235 -546 245 -546Q271 -559 279 -560Q276 -568 262 -577Q248 -586 245 -595L242 -596Q235 -593 227 -590H224Q236 -607 236 -613Q236 -621 227 -626Q214 -624 195 -614Q180 -606 171 -604Q181 -618 197 -625Q215 -632 221 -649V-654Q219 -667 217 -681Q217 -691 222 -697Q220 -702 209 -707Q198 -712 195 -718H200Q215 -718 225 -713Q233 -716 246 -731Q243 -746 239 -761H240Q248 -760 251 -755Q254 -749 258 -745Q269 -751 279 -751Q297 -750 312 -737Q327 -724 338 -713Q344 -718 353 -721V-704Q353 -689 357 -684Q359 -681 360 -681Q363 -682 366 -683L369 -682Q377 -647 388 -613Q399 -617 410 -622Q421 -616 431 -614Q436 -615 442 -621Q450 -629 455 -629Q458 -629 460 -628Q453 -621 453 -615Q454 -606 464 -599Q474 -593 481 -587Q497 -608 497 -632Q497 -647 490 -661H491Q498 -661 502 -653Q505 -647 508 -646Q509 -649 509 -654Q509 -664 502 -679Q496 -692 495 -697Q506 -693 512 -685Q518 -677 526 -670Q538 -662 555 -660Q571 -658 587 -653Q604 -665 623 -669Q628 -669 631 -668Q631 -661 621 -655Q610 -648 610 -639V-637Q612 -635 618 -635Q631 -636 647 -646Q663 -656 677 -664Q720 -691 732 -700Q746 -710 746 -718V-719Q740 -722 735 -722Q716 -718 699 -706Q676 -691 655 -680Q661 -698 676 -707Q691 -715 707 -722Q748 -742 779 -779Q798 -788 817 -792Q821 -792 823 -791Q825 -791 825 -793Q825 -796 827 -796H828Q841 -795 848 -787Q854 -780 862 -773Q880 -788 898 -802L901 -800Q900 -795 890 -785Q879 -774 878 -766Q878 -763 877 -761Q878 -742 886 -736H887Q890 -736 895 -746Q904 -763 911 -763Q911 -759 906 -746Q900 -731 900 -723Q900 -716 905 -709Q908 -709 912 -714Q915 -718 918 -719Q916 -713 916 -703Q916 -692 923 -668Q929 -648 929 -636Q929 -623 924 -613Q902 -606 884 -584Q872 -570 856 -538Q835 -495 832 -452Q833 -438 834 -425Q833 -402 818 -383Q806 -367 787 -356Q751 -368 750 -368Q732 -377 728 -394Q717 -391 717 -358V-326Q742 -334 770 -338Q783 -338 790 -331Q774 -327 756 -324Q738 -322 729 -310Q740 -302 758 -302Q768 -302 823 -313Q864 -319 887 -334Q882 -345 868 -345Q854 -343 839 -342Q834 -342 832 -343Q835 -357 855 -358Q874 -362 897 -368Q920 -375 939 -376Q944 -376 952 -374Q943 -369 934 -364Q925 -359 921 -348L925 -347Q934 -350 942 -354L945 -353Q936 -332 936 -327Q936 -320 940 -316L942 -315Q945 -317 948 -319L951 -317Q946 -311 946 -301Q950 -278 954 -256V-253Q953 -243 944 -229Q937 -218 935 -210Q925 -207 909 -207Q885 -207 877 -214L867 -211Q834 -223 792 -223Q743 -223 717 -207Q720 -171 723 -135Q715 -136 712 -154Q709 -170 702 -173Q695 -172 695 -164Q696 -157 696 -151Q698 -57 698 -46Q701 20 711 49Q727 39 727 4Q727 -15 726 -35V-40Q734 -37 738 -25Q739 -21 742 -4Q743 3 743 9Q739 73 714 111Q707 112 699 118Q692 124 687 125Z"/>
</svg>