<svg xmlns="http://www.w3.org/2000/svg" viewBox="0 -800 1024 1024">
	<path fill="#000000" d="M774 -126V-125Q774 -119 763 -119Q751 -119 751 -125V-126Q759 -128 763 -128H766Q761 -130 756 -132L759 -133Q771 -133 774 -126ZM51 -631H50Q41 -633 40 -645Q40 -654 46 -654Q49 -654 51 -653V-651Q52 -644 53 -637Q53 -635 51 -631ZM941 -125V-123Q940 -115 934 -109Q927 -103 920 -99Q922 -108 924 -116Q925 -124 936 -125ZM683 -387V-389Q638 -381 606 -369Q607 -360 613 -350Q619 -339 620 -335Q644 -340 668 -345Q669 -353 678 -373Q683 -383 683 -387ZM545 -470V-465Q531 -449 488 -449Q488 -457 486 -459H485Q483 -459 480 -455Q478 -451 474 -451L471 -452Q474 -458 477 -464Q475 -471 466 -482Q455 -496 454 -506V-509Q454 -526 464 -537Q474 -548 488 -548H491Q499 -548 518 -533Q536 -519 538 -510Q543 -511 547 -513Q544 -508 544 -497Q545 -483 545 -470ZM303 -522H302Q283 -522 257 -496Q234 -473 226 -456Q220 -441 220 -426Q220 -406 230 -384Q253 -396 282 -402Q285 -425 291 -451Q302 -501 303 -522ZM813 -41H816Q825 -41 838 -50Q848 -57 854 -59Q854 -52 848 -46Q842 -40 842 -36Q842 -32 843 -30Q849 -33 880 -62Q888 -71 897 -81Q905 -91 919 -93Q907 -75 890 -56Q873 -37 864 -11Q883 -23 913 -61Q936 -90 948 -101L951 -100L950 -99Q932 -71 911 -47Q890 -23 877 10Q884 9 893 -2Q905 -16 914 -17Q906 -2 897 12Q887 26 885 46Q886 49 889 49Q894 48 898 47Q900 47 902 49Q902 55 897 56Q893 57 889 60Q876 95 843 114Q841 112 832 112Q820 111 819 105Q822 102 826 102Q831 102 837 104Q839 98 839 96Q838 87 829 83Q819 78 811 75Q791 64 771 52Q768 58 768 63Q769 75 782 83Q794 92 801 101Q779 99 765 83Q750 67 736 52Q715 33 694 16Q678 -30 657 -48Q669 -49 683 -56Q695 -62 701 -63Q705 -64 713 -64Q733 -64 768 -52Q800 -41 813 -41ZM397 -120H399Q409 -123 418 -126Q408 -120 408 -106Q408 -96 420 -95Q411 -77 411 -45Q382 -37 342 -21Q288 1 260 7Q270 -11 304 -21Q339 -32 350 -48Q346 -49 339 -49Q310 -46 283 -36Q236 -21 219 -13Q185 3 167 28Q171 32 177 32Q189 30 201 28Q208 28 212 33Q189 42 168 53Q147 63 143 90Q129 96 119 96H116Q106 95 86 79Q64 61 61 49Q61 46 60 43Q61 36 62 29Q62 27 61 24Q63 21 64 18Q66 15 70 15Q66 7 66 -3Q66 -31 103 -68Q102 -64 102 -56Q102 -42 110 -38Q139 -46 165 -54Q159 -82 151 -100Q140 -123 124 -132Q118 -152 118 -165Q118 -175 122 -182Q115 -194 107 -206H110Q118 -205 126 -204H129L130 -205Q128 -206 125 -210L126 -212Q137 -225 173 -225H202Q213 -210 224 -193Q236 -177 239 -153Q240 -148 240 -143Q239 -122 237 -102Q237 -88 239 -81H240Q249 -85 263 -89Q258 -142 253 -195V-200Q254 -208 254 -217V-221Q252 -240 245 -255Q239 -271 235 -285Q229 -280 220 -260H215Q210 -260 189 -252Q177 -255 162 -270Q147 -285 137 -287Q139 -292 139 -301Q139 -314 125 -337Q112 -359 110 -374Q124 -368 139 -341Q149 -324 156 -317Q160 -322 160 -331Q160 -345 144 -377Q127 -411 122 -418Q107 -439 88 -439Q81 -439 78 -438V-436Q78 -427 88 -413Q96 -402 96 -393Q96 -390 95 -387Q79 -403 60 -417Q40 -431 33 -458Q34 -463 38 -471Q34 -479 34 -491Q37 -514 39 -537Q56 -554 60 -578Q60 -584 54 -597Q49 -608 49 -614Q49 -619 50 -621Q58 -611 63 -598Q68 -586 79 -579Q82 -582 88 -582V-584Q88 -598 78 -622Q69 -644 69 -658Q69 -664 70 -668Q75 -659 85 -632Q94 -606 107 -603H109Q116 -604 116 -611Q116 -617 109 -631Q101 -648 101 -654V-656Q111 -640 142 -619Q171 -599 181 -585Q243 -618 366 -710Q374 -708 376 -708Q383 -708 395 -714V-712Q396 -706 401 -705Q407 -704 411 -702Q421 -719 437 -732Q430 -716 430 -701Q430 -697 432 -689H433Q435 -689 440 -695Q446 -703 452 -703H453Q446 -693 442 -668Q463 -646 467 -569Q448 -554 441 -531Q425 -527 420 -511Q415 -495 409 -480Q406 -484 406 -490Q409 -504 411 -519Q407 -523 402 -527Q378 -517 364 -485Q352 -457 352 -419Q352 -400 355 -384Q361 -393 372 -425Q378 -443 380 -447Q386 -458 395 -459Q385 -436 378 -380Q370 -314 356 -291Q342 -293 334 -293Q337 -285 337 -277Q337 -266 336 -256Q336 -243 340 -239Q362 -247 384 -255Q390 -249 393 -249Q396 -250 399 -251V-247Q399 -222 417 -218Q413 -207 413 -193Q413 -187 415 -173Q407 -161 391 -158Q374 -154 358 -151Q333 -147 331 -122V-117Q339 -118 357 -124Q386 -134 402 -135L404 -134Q404 -133 400 -130Q395 -126 395 -124Q395 -122 397 -120ZM845 -116H836Q825 -116 801 -120V-121Q801 -130 814 -134Q826 -138 827 -144Q813 -157 792 -157Q758 -153 720 -144Q695 -141 685 -138Q667 -133 661 -122Q667 -120 671 -120Q696 -123 720 -127Q733 -127 739 -122Q707 -113 676 -110Q645 -106 627 -84Q618 -73 608 -39Q600 -14 593 1Q574 48 562 86Q554 90 546 90Q535 90 522 79Q506 66 494 66Q496 63 496 59Q493 50 489 40Q489 36 491 34Q458 16 418 4H421Q457 9 492 13V12Q492 10 487 7Q480 3 480 0Q482 -2 485 -2Q488 -2 494 1Q523 -30 544 -72Q530 -65 509 -59V-60Q509 -64 514 -68Q519 -72 519 -77Q516 -84 511 -84Q499 -79 486 -75H484Q477 -75 469 -76Q459 -76 458 -69Q460 -57 476 -55Q499 -52 500 -51Q497 -46 484 -43Q474 -41 470 -38Q449 -54 442 -61Q426 -78 426 -94Q426 -105 433 -116Q435 -147 458 -157Q480 -167 503 -177Q503 -172 498 -167Q493 -162 492 -159Q499 -152 510 -152Q533 -155 559 -164L602 -174V-181Q602 -185 603 -186Q595 -186 586 -179Q580 -174 575 -173Q571 -178 560 -181Q550 -184 547 -186Q546 -190 546 -199Q546 -227 563 -239Q566 -238 571 -238Q580 -238 593 -244Q606 -250 611 -251Q610 -255 608 -259V-260Q605 -260 601 -261Q584 -261 558 -238Q537 -219 524 -219H522Q512 -220 502 -234Q490 -251 485 -254Q487 -282 490 -293Q495 -312 510 -320V-318Q509 -313 507 -309Q524 -314 540 -320Q536 -330 534 -342H532Q515 -342 491 -320Q473 -303 463 -302Q460 -301 457 -301Q446 -301 434 -314Q422 -327 413 -327H411Q411 -330 405 -337Q399 -345 399 -350V-351Q403 -363 408 -374V-376Q407 -385 405 -394V-396Q406 -410 420 -424Q427 -431 444 -443Q440 -431 435 -420L439 -419Q455 -423 471 -427Q477 -427 479 -425Q471 -421 460 -416Q448 -410 447 -402Q447 -398 453 -392Q486 -398 514 -411Q542 -424 569 -437Q565 -444 557 -444Q552 -444 537 -438Q525 -433 518 -433Q513 -433 510 -437Q532 -452 565 -459Q562 -498 545 -530Q533 -545 521 -557Q508 -570 507 -587V-588Q507 -595 512 -605Q517 -615 518 -621Q528 -627 537 -633Q534 -640 531 -647L532 -650L535 -652Q542 -649 549 -647H550Q555 -647 564 -652Q573 -657 581 -657H583Q602 -652 614 -637Q635 -602 639 -581Q640 -578 640 -571Q640 -558 631 -531Q623 -507 623 -495Q623 -481 630 -470Q639 -474 648 -479V-485Q648 -495 647 -506Q647 -521 655 -522Q659 -521 660 -510Q660 -501 664 -499Q671 -502 671 -516V-537Q676 -597 676 -614Q676 -642 671 -657Q654 -656 654 -628V-601Q655 -588 655 -576Q655 -561 649 -554Q644 -573 641 -614Q638 -654 631 -675Q629 -683 618 -696Q608 -709 606 -717V-729Q599 -739 592 -750H600Q617 -750 618 -756V-757Q618 -762 604 -766Q587 -771 587 -779V-780Q592 -779 602 -779Q622 -779 653 -791Q684 -803 700 -803Q709 -803 718 -800Q731 -783 746 -763Q761 -743 762 -719Q762 -706 756 -693Q740 -669 729 -637Q712 -567 712 -502V-495H715Q723 -496 725 -505Q727 -514 729 -521L742 -551Q757 -581 762 -609V-612Q756 -612 750 -606Q744 -600 738 -600Q766 -662 821 -689Q852 -682 883 -675Q895 -637 895 -603Q895 -588 892 -576Q870 -567 848 -528Q863 -530 888 -539Q917 -550 931 -552V-551Q931 -548 922 -541Q910 -532 911 -528L915 -527Q923 -529 930 -532L934 -531Q934 -530 930 -525Q925 -520 925 -516Q925 -513 928 -510L930 -509Q934 -509 937 -510H939Q937 -504 934 -499Q948 -495 962 -489Q936 -477 936 -453Q936 -449 938 -441Q919 -438 908 -422Q900 -421 883 -421H845Q794 -421 774 -408V-407Q777 -400 781 -393Q774 -383 766 -374L795 -380L796 -378Q796 -376 791 -373Q788 -371 787 -369Q791 -365 806 -364Q821 -364 824 -360Q816 -356 807 -354Q798 -352 796 -342Q798 -339 800 -339Q806 -340 811 -342L814 -341Q812 -335 804 -330Q795 -325 795 -320Q795 -317 796 -315Q787 -308 783 -299H777Q741 -299 689 -281Q691 -276 695 -272Q705 -279 725 -279Q741 -279 763 -275Q762 -272 755 -271Q748 -270 747 -266Q748 -262 751 -262Q756 -263 761 -265L763 -264Q763 -260 758 -254Q750 -244 750 -236Q751 -233 751 -230Q747 -220 736 -216Q735 -216 713 -211Q683 -205 683 -184V-183Q704 -187 742 -201Q782 -216 799 -219Q829 -221 857 -231V-229Q854 -226 851 -217V-216Q852 -204 870 -204Q886 -205 902 -206Q911 -206 914 -204Q910 -200 889 -195Q871 -191 869 -179L871 -178Q878 -180 885 -182Q889 -182 891 -180Q885 -176 876 -173Q868 -170 867 -160V-158Q867 -155 871 -155Q874 -155 874 -152V-150Q861 -147 857 -136Q852 -124 845 -116Z"/>
</svg>