<svg xmlns="http://www.w3.org/2000/svg" viewBox="0 -800 1024 1024">
	<path fill="#000000" d="M466 -32V-34Q467 -37 467 -41Q483 -41 483 -18Q474 -24 466 -32ZM304 -233V-236Q306 -250 307 -265Q307 -271 306 -274Q272 -261 259 -253Q232 -235 232 -210Q232 -204 233 -200Q247 -201 265 -218Q282 -234 297 -234Q301 -233 304 -233ZM312 -360Q319 -393 319 -422Q319 -437 318 -443Q281 -419 267 -346Q290 -357 312 -360ZM889 -509H884Q873 -509 845 -524Q835 -529 825 -533Q815 -538 811 -548H813Q827 -544 847 -540Q852 -540 855 -541Q854 -554 844 -562Q834 -570 825 -576Q805 -589 790 -605Q788 -599 788 -598Q788 -590 796 -580Q804 -570 804 -565L803 -561Q757 -587 738 -654Q741 -656 744 -657Q748 -658 748 -661V-663Q748 -667 743 -670Q737 -673 737 -677H742Q753 -677 760 -674Q769 -683 784 -683Q803 -683 836 -665Q841 -670 849 -673Q848 -670 847 -667Q847 -664 852 -659Q855 -658 861 -658Q873 -659 883 -664Q892 -670 902 -674V-673Q898 -663 886 -654Q889 -652 894 -652Q901 -652 912 -665Q925 -681 934 -682Q929 -674 922 -665Q914 -656 913 -646Q913 -639 919 -633Q942 -667 972 -677Q958 -662 945 -646Q931 -630 929 -602H931Q935 -602 940 -607Q947 -613 950 -614Q938 -601 933 -580Q929 -560 924 -542Q918 -514 889 -509ZM414 13V18Q401 69 350 89Q345 86 341 76Q326 72 311 57Q292 36 286 33Q290 26 294 19Q290 -1 261 -8Q262 -11 271 -11Q279 -11 282 -14Q267 -27 238 -29Q254 -30 270 -32Q217 -45 212 -47Q217 -48 227 -48Q250 -46 272 -45Q285 -45 291 -47Q299 -68 300 -95Q301 -123 304 -149Q272 -142 230 -111Q226 -115 220 -117Q211 -114 210 -106Q209 -98 208 -89Q193 -38 183 14Q181 15 178 15Q171 15 164 14Q158 14 155 19Q150 15 142 15Q133 15 125 19Q124 11 116 1Q106 -12 106 -24V-26Q95 -40 81 -52Q67 -64 59 -83Q54 -96 53 -128Q51 -163 45 -180Q50 -171 57 -165Q68 -178 82 -210Q93 -236 100 -246Q116 -318 137 -356V-348Q137 -322 119 -273Q103 -231 101 -206Q123 -228 150 -303Q175 -370 175 -418V-423Q166 -422 158 -399Q150 -375 141 -374Q147 -397 151 -422Q154 -447 164 -466Q159 -502 153 -538Q160 -521 167 -504Q169 -505 169 -508Q168 -512 167 -516Q177 -510 186 -501Q191 -502 199 -502Q217 -502 230 -492Q245 -510 255 -532Q266 -554 286 -567Q283 -551 269 -528Q257 -509 254 -497Q280 -521 294 -541Q314 -568 321 -599Q314 -599 306 -590Q299 -582 295 -582H292Q300 -595 318 -621Q317 -625 317 -633Q317 -654 336 -667Q353 -679 376 -679Q399 -679 414 -667H416Q421 -668 425 -670H426Q424 -662 422 -654Q422 -648 426 -644Q438 -652 450 -661Q434 -650 434 -634Q434 -627 439 -620Q441 -622 441 -625Q442 -630 446 -630H448Q445 -618 445 -607Q445 -575 467 -566Q471 -569 471 -570Q468 -575 465 -580L466 -582Q474 -578 484 -578Q507 -581 530 -584Q544 -584 556 -576Q563 -567 568 -540Q574 -509 583 -500L566 -510Q546 -499 526 -480Q506 -462 482 -460Q469 -460 452 -472Q450 -472 450 -469Q450 -466 448 -466H446Q447 -468 447 -471Q446 -478 445 -486Q430 -493 430 -521Q430 -539 438 -547Q440 -550 446 -550Q453 -550 455 -557Q452 -563 449 -569Q412 -539 408 -478Q396 -404 387 -318Q386 -276 384 -234Q385 -226 385 -218Q385 -205 378 -199Q372 -219 372 -258Q373 -300 374 -342Q374 -355 372 -377Q357 -317 357 -236Q357 -146 374 -64Q379 -71 379 -88Q377 -116 375 -145Q375 -163 381 -173Q390 -120 398 -67Q411 -23 414 13ZM657 95H655Q652 95 646 101Q641 106 636 107H634Q623 106 614 96Q605 87 598 81Q592 76 582 70Q568 61 562 54Q557 46 551 37Q542 27 521 12Q496 -6 489 -18Q505 -13 529 5Q549 20 562 25Q551 10 520 -14Q479 -46 467 -68Q515 -30 568 2V1Q568 -6 556 -13Q543 -21 541 -29Q561 -21 562 -21Q567 -23 575 -29Q575 -34 590 -165Q580 -168 568 -168Q551 -168 532 -161Q516 -149 500 -137Q479 -123 459 -120Q447 -120 435 -133Q431 -141 427 -150Q418 -163 408 -173Q398 -184 397 -200Q397 -210 401 -221Q421 -262 430 -269Q432 -271 460 -282H461L463 -279V-275L464 -272Q471 -268 482 -268Q512 -272 548 -280Q551 -281 556 -281Q564 -280 571 -280Q579 -283 587 -287Q588 -287 592 -285L596 -323Q591 -328 582 -328Q576 -328 568 -326Q548 -324 513 -309Q485 -293 459 -289Q445 -289 433 -302Q427 -314 421 -326Q416 -333 409 -339Q401 -345 399 -353V-357Q400 -371 408 -382Q417 -394 423 -406Q425 -422 433 -434Q441 -439 452 -439Q471 -436 489 -434H501Q509 -434 513 -429Q510 -424 496 -422Q481 -420 477 -415Q490 -405 509 -405Q530 -406 554 -414Q577 -421 596 -426Q589 -433 577 -433Q558 -430 538 -428Q531 -428 528 -429Q541 -443 561 -445Q580 -446 596 -452Q592 -507 588 -563Q584 -620 569 -665Q558 -684 554 -698V-701Q554 -724 588 -748Q616 -768 648 -777H650Q654 -775 658 -773Q669 -774 679 -776Q687 -776 692 -771Q699 -743 711 -722Q724 -700 735 -677Q732 -673 728 -662Q724 -650 719 -645Q716 -649 711 -673Q707 -691 698 -692Q688 -692 688 -677Q689 -666 689 -656Q688 -642 682 -620Q673 -586 673 -573Q673 -564 676 -555Q684 -578 691 -602Q696 -617 699 -623Q706 -635 716 -636Q692 -585 692 -518Q692 -498 695 -479Q784 -498 849 -510V-508Q848 -504 846 -501V-500Q848 -499 854 -499Q876 -503 898 -507Q887 -501 875 -496Q862 -491 860 -475Q865 -472 867 -472Q878 -477 889 -482Q866 -461 866 -445Q866 -438 867 -435L869 -434Q870 -434 872 -437Q873 -441 876 -441L879 -440Q867 -425 861 -404Q855 -384 849 -363Q827 -365 816 -365Q752 -365 679 -340Q677 -318 675 -297Q680 -296 684 -296Q717 -300 749 -304Q761 -304 772 -300Q764 -292 735 -291Q705 -289 694 -282Q698 -276 706 -276Q713 -276 719 -277Q809 -284 840 -294Q836 -303 821 -303Q809 -302 797 -302Q790 -302 787 -303Q798 -316 815 -316Q833 -316 849 -321Q860 -326 870 -333Q881 -340 894 -341H899V-339Q898 -333 897 -327Q897 -320 902 -318Q908 -319 914 -321Q911 -315 911 -307Q915 -275 938 -258Q929 -251 928 -238Q927 -226 923 -216Q915 -200 882 -189Q856 -181 848 -173Q820 -189 765 -189Q720 -189 685 -180Q681 -168 681 -146Q681 -141 685 -89Q672 -96 669 -130Q667 -155 663 -162Q654 -148 654 -112V-92Q654 -9 682 13Q690 6 690 -21V-36Q690 -46 692 -58Q705 -45 707 1Q708 11 708 21Q708 27 707 30Q704 44 681 63Q658 82 657 95Z"/>
</svg>