<svg xmlns="http://www.w3.org/2000/svg" viewBox="0 -800 1024 1024">
	<path fill="#000000" d="M534 -24H528Q524 -24 522 -23L521 -27Q522 -33 522 -40Q528 -38 534 -36Q540 -34 542 -28Q541 -26 534 -24ZM159 -306H164Q166 -304 166 -296Q166 -280 159 -279Q157 -283 157 -289Q157 -292 159 -306ZM733 -355H732Q721 -353 710 -351L711 -360Q719 -366 732 -367H735V-363Q735 -357 733 -355ZM774 -424L773 -423Q734 -424 673 -402Q621 -383 582 -360Q564 -369 540 -377Q516 -386 510 -401Q506 -405 502 -408Q497 -411 497 -417Q495 -425 491 -424Q486 -423 484 -424Q483 -425 485 -435Q490 -447 494 -459Q495 -467 496 -476Q500 -489 510 -497Q519 -504 527 -510Q530 -507 537 -505Q553 -503 569 -502Q566 -498 552 -496Q536 -494 534 -486L532 -480Q530 -469 537 -466Q556 -468 577 -477Q607 -486 657 -499Q708 -512 733 -524Q730 -525 720 -528Q692 -533 649 -521Q605 -508 580 -502V-503Q584 -518 637 -532Q700 -549 719 -546Q740 -553 754 -567Q752 -563 756 -558Q760 -552 759 -548Q756 -539 763 -531Q784 -536 804 -538L803 -535Q801 -529 790 -524Q780 -519 777 -515L779 -514Q783 -516 793 -517H794L795 -515Q794 -513 787 -509Q781 -506 779 -499L778 -497Q778 -493 782 -491Q786 -490 789 -487Q781 -487 781 -485Q779 -478 788 -477Q805 -475 808 -474L812 -473Q802 -467 798 -453Q795 -446 786 -439Q775 -430 774 -424ZM389 97H385Q380 98 374 98Q363 88 348 64Q333 39 324 31Q324 -17 303 -31Q320 -73 325 -122Q325 -126 324 -130Q330 -132 330 -148V-155Q302 -132 295 -124Q276 -102 257 -81Q247 -73 236 -65Q222 -43 213 -20Q210 -19 204 -19Q192 -19 181 -26Q175 -43 165 -54Q154 -66 145 -80Q146 -84 146 -91Q146 -102 140 -118Q134 -134 134 -140Q134 -148 136 -152Q141 -162 149 -164Q156 -183 156 -226V-236Q156 -250 159 -271Q167 -248 167 -226Q168 -205 187 -194Q188 -196 188 -201Q186 -219 183 -237Q183 -246 187 -250Q192 -239 194 -226Q197 -214 207 -209Q211 -214 222 -216Q235 -218 239 -221Q274 -252 304 -284Q309 -289 320 -294Q331 -299 337 -306Q358 -327 378 -349Q401 -365 426 -380H429L432 -378Q431 -374 429 -370V-369Q433 -365 437 -365Q449 -368 461 -372Q466 -314 440 -281Q411 -236 402 -227Q400 -225 381 -213Q368 -205 366 -194Q398 -194 407 -181Q412 -174 415 -156Q419 -130 429 -124Q426 -109 422 -98Q416 -103 410 -123Q404 -142 396 -148Q390 -141 390 -125Q392 -89 393 -53Q391 -17 388 18Q388 45 396 60Q411 48 411 -5V-8Q411 -14 410 -21Q410 -30 417 -31Q424 -6 424 28Q424 65 416 89Q408 97 389 97ZM752 -229Q737 -194 740 -138Q735 -140 733 -142Q732 -143 732 -149Q732 -165 731 -182Q731 -195 724 -202Q707 -177 714 -135L715 -112Q720 -36 737 -6Q742 -16 740 -35Q740 -37 737 -73Q736 -89 740 -101Q745 -66 750 -30Q755 7 766 36Q758 56 742 71Q726 86 711 103Q691 96 670 89Q649 83 637 65Q640 59 639 55Q639 48 632 38Q626 29 625 25Q622 19 611 19Q611 15 616 15Q620 14 625 14Q617 -3 573 -13Q574 -16 581 -18Q596 -15 610 -13Q600 -22 583 -24Q566 -25 551 -29Q555 -33 568 -35Q588 -34 607 -34L615 -35Q602 -39 527 -50Q520 -50 511 -51Q503 -52 498 -59Q507 -60 516 -62Q532 -63 565 -59Q598 -55 614 -56Q636 -58 652 -67Q650 -132 651 -198Q625 -190 611 -186Q595 -181 562 -159Q529 -137 512 -132Q493 -138 476 -159Q456 -182 455 -204V-208Q456 -215 459 -217Q463 -220 463 -226Q464 -232 460 -241Q456 -253 456 -259V-262Q457 -267 464 -279Q467 -290 470 -299Q472 -309 482 -314Q490 -312 497 -311Q525 -310 617 -344Q650 -352 687 -351Q676 -341 649 -332Q636 -328 597 -318Q528 -301 513 -279Q521 -276 528 -276Q548 -275 624 -300Q824 -371 842 -377Q836 -386 825 -386Q819 -386 782 -373Q755 -363 748 -363Q745 -364 741 -365Q749 -376 766 -384Q783 -393 802 -401Q835 -415 845 -437H853Q851 -429 848 -422Q849 -419 849 -416Q860 -413 864 -405Q881 -412 897 -416Q899 -416 903 -414Q902 -413 889 -405Q879 -399 877 -391Q879 -388 881 -388Q889 -392 896 -396Q898 -394 899 -393V-391Q899 -388 893 -385Q886 -382 885 -376Q885 -368 897 -366Q889 -358 887 -346Q887 -338 895 -332Q883 -329 882 -328Q877 -325 877 -316Q877 -312 878 -311Q880 -311 883 -309Q877 -303 877 -298Q879 -291 880 -285Q877 -277 870 -272Q864 -267 857 -262Q840 -262 802 -247Q777 -238 752 -229ZM414 -501Q414 -496 414 -491Q418 -461 432 -455H433Q423 -416 396 -398Q382 -391 368 -381Q361 -372 354 -363Q334 -346 315 -335Q295 -324 294 -301Q291 -302 287 -302Q280 -302 271 -297Q263 -293 260 -292Q248 -296 238 -303Q227 -311 216 -311V-312Q216 -317 220 -318Q224 -320 227 -323Q222 -327 207 -327Q191 -327 183 -331Q174 -326 164 -323Q165 -327 172 -333Q181 -342 181 -351V-355Q163 -350 149 -340Q149 -343 162 -356Q174 -363 180 -371Q180 -376 176 -376Q160 -370 149 -362Q124 -345 119 -343Q134 -364 158 -381Q220 -432 294 -470V-468Q294 -463 281 -453Q230 -412 217 -395H219Q240 -396 255 -411Q269 -425 285 -440Q293 -446 316 -459Q347 -476 358 -489Q353 -494 340 -496Q337 -496 335 -497Q329 -492 319 -488Q324 -499 341 -512Q329 -518 328 -518Q305 -516 281 -508Q253 -500 232 -483Q206 -462 203 -434Q177 -441 150 -450Q124 -459 120 -487Q120 -491 122 -505Q115 -515 108 -525Q107 -534 105 -543Q104 -562 128 -576Q150 -589 159 -583Q188 -585 214 -591Q250 -599 259 -610L260 -629Q259 -633 259 -640Q258 -661 271 -680L266 -696H268Q272 -695 276 -695Q277 -689 279 -683Q281 -678 287 -678L288 -679Q286 -682 284 -686V-687Q293 -680 301 -680Q310 -680 320 -677Q325 -675 335 -666Q346 -656 353 -655H356Q360 -655 363 -650Q365 -646 369 -643Q369 -641 374 -634Q461 -661 594 -693Q595 -697 595 -703Q594 -726 566 -726Q548 -724 537 -718Q549 -733 571 -745Q593 -757 612 -769Q645 -794 671 -795Q687 -795 690 -794Q705 -793 716 -771H713Q699 -774 685 -777Q681 -777 677 -773Q679 -762 691 -756Q708 -747 711 -744Q706 -724 706 -723Q709 -720 713 -720Q725 -722 729 -731V-733Q725 -745 720 -757V-761Q731 -758 736 -747Q741 -737 746 -728Q774 -734 801 -740Q804 -747 806 -755Q810 -754 812 -747Q814 -739 818 -738Q845 -742 872 -747Q868 -744 856 -741Q841 -737 836 -732Q838 -729 845 -729Q858 -731 870 -734Q868 -730 861 -726Q854 -722 852 -719Q853 -712 867 -714Q866 -707 865 -701Q866 -688 884 -678Q873 -677 866 -670V-668Q865 -661 864 -654L865 -652Q820 -631 767 -626Q748 -621 729 -616L713 -615Q704 -615 700 -613Q674 -606 654 -582Q647 -574 622 -533Q602 -535 592 -535Q577 -533 572 -525V-528Q571 -535 576 -542Q572 -544 571 -544Q566 -543 556 -535Q551 -531 548 -530Q554 -552 565 -570H562Q556 -570 550 -571H547Q511 -576 435 -554Q436 -546 436 -538Q430 -515 414 -501Z"/>
</svg>