<svg xmlns="http://www.w3.org/2000/svg" viewBox="0 -800 1024 1024">
	<path fill="#000000" d="M899 -573H901Q901 -566 892 -557Q889 -560 889 -563Q889 -573 899 -573ZM224 -722H226Q235 -722 239 -707Q227 -708 224 -722ZM747 -395V-402Q753 -404 761 -404Q771 -404 771 -398Q770 -392 762 -392Q756 -392 747 -395ZM554 -8H556Q558 -22 560 -36Q560 -42 557 -47Q518 -40 497 -33Q460 -20 447 0L448 4V6Q512 6 544 -13Q549 -10 554 -8ZM442 -188H447Q458 -188 500 -201Q540 -214 556 -224Q558 -223 560 -219Q562 -215 565 -214Q569 -218 578 -220Q582 -213 589 -211Q590 -214 590 -217Q590 -225 589 -233Q589 -242 592 -248Q537 -248 473 -222Q443 -209 442 -188ZM445 -101V-87Q474 -89 496 -97Q518 -105 544 -113Q546 -113 553 -108Q560 -113 563 -113Q566 -113 569 -110Q575 -140 575 -143Q575 -148 574 -151Q546 -146 499 -133Q454 -122 445 -101ZM562 96H560V93Q558 81 551 69V67Q552 61 552 54Q552 50 549 45Q524 48 497 48Q471 48 462 66V67Q464 74 471 78Q496 74 520 70Q524 70 532 72Q516 80 496 83Q477 86 456 90Q448 92 435 101Q421 111 415 111H411Q385 109 371 93Q365 84 363 72Q360 60 349 55Q356 34 356 8Q352 -54 334 -111Q322 -116 310 -119Q284 -154 260 -197Q262 -207 262 -211Q260 -227 258 -244Q259 -247 259 -251Q262 -265 283 -280Q302 -293 306 -305Q310 -304 321 -304Q343 -305 365 -306Q396 -306 405 -290Q408 -289 413 -289Q431 -293 449 -297H451Q461 -308 461 -327Q461 -344 454 -360Q402 -357 355 -342Q308 -327 263 -315Q265 -329 279 -333Q294 -337 309 -340Q342 -346 361 -363Q356 -368 347 -368Q342 -368 332 -366Q311 -364 259 -349Q226 -341 213 -334Q191 -323 185 -302Q187 -299 189 -296Q200 -301 226 -305Q224 -297 217 -292Q210 -287 203 -282Q185 -274 182 -254Q166 -243 147 -243Q131 -243 119 -252Q115 -255 108 -267Q101 -280 94 -284Q87 -289 74 -293Q60 -297 53 -303Q47 -314 47 -326V-340Q46 -349 44 -359Q46 -368 51 -374Q57 -380 60 -386Q64 -399 65 -411Q66 -422 75 -432Q86 -442 101 -447Q116 -452 131 -458Q143 -465 153 -473Q163 -481 177 -482Q175 -479 159 -466Q147 -457 146 -444Q152 -443 165 -443H205Q219 -451 251 -454Q279 -457 291 -462H295Q305 -462 315 -463Q323 -463 327 -461Q333 -465 351 -466Q371 -467 377 -470Q368 -479 357 -485Q345 -492 341 -507L339 -508L335 -507H334Q326 -517 314 -527Q299 -540 288 -541H283Q273 -541 256 -530Q243 -521 235 -521Q236 -527 242 -530Q247 -533 251 -536Q266 -546 272 -547V-550Q269 -583 240 -583Q233 -583 230 -582V-583Q231 -592 241 -591Q250 -591 256 -594Q256 -599 259 -604Q247 -614 208 -620Q170 -626 158 -635Q163 -636 173 -636Q211 -632 248 -629Q259 -629 264 -630Q264 -635 259 -638Q253 -642 253 -646V-647Q257 -643 262 -643Q270 -643 282 -653Q280 -665 266 -678Q251 -691 248 -702Q260 -694 272 -686Q283 -677 298 -674Q301 -675 301 -680Q301 -685 300 -690V-692Q309 -687 318 -683Q325 -686 327 -696Q336 -691 346 -691Q355 -691 364 -692Q371 -692 377 -689Q385 -698 401 -698Q416 -698 430 -691Q441 -676 457 -665Q460 -659 463 -654Q497 -624 497 -593V-591Q493 -572 489 -554L486 -484Q531 -494 544 -494Q539 -512 509 -515Q516 -523 528 -532Q545 -545 550 -551Q563 -574 595 -616Q637 -671 652 -704Q646 -716 639 -728H632Q616 -726 599 -725H595Q618 -737 640 -746Q656 -774 707 -791Q713 -797 718 -803Q758 -815 775 -815Q781 -814 786 -814Q806 -808 825 -794Q838 -781 839 -760Q848 -739 857 -719Q860 -710 863 -702Q859 -671 842 -653Q837 -648 806 -633Q776 -616 768 -614Q770 -626 782 -635Q787 -639 806 -648Q838 -664 838 -685Q838 -690 834 -704Q831 -705 825 -705Q812 -705 802 -684Q794 -668 787 -663Q768 -656 750 -644Q716 -612 706 -601Q682 -573 674 -545Q686 -547 701 -565Q715 -582 725 -582Q729 -582 731 -581Q700 -543 666 -509H683Q779 -509 874 -522Q878 -525 882 -536Q885 -544 889 -548Q891 -546 891 -534Q892 -518 895 -513Q923 -515 951 -518Q946 -514 933 -511Q919 -508 916 -506Q919 -502 925 -502Q933 -503 940 -504L944 -503Q944 -498 936 -497Q928 -496 928 -492L927 -490Q931 -484 935 -479V-478Q931 -471 926 -465Q933 -456 942 -447Q950 -438 951 -425Q951 -415 942 -403Q935 -394 935 -387Q914 -381 908 -372Q884 -381 855 -385Q827 -389 799 -395Q805 -401 816 -401Q835 -399 853 -397Q864 -397 869 -401Q852 -419 821 -420Q791 -422 754 -422Q714 -424 690 -424Q668 -424 624 -422H594Q571 -422 563 -407Q569 -398 590 -398Q620 -400 649 -403Q670 -403 677 -392Q598 -392 556 -381Q560 -380 565 -375Q572 -368 578 -368Q571 -348 569 -326H572Q586 -327 598 -336Q609 -345 618 -353Q627 -353 635 -362Q649 -362 689 -360Q700 -341 719 -337Q724 -337 726 -338V-336Q724 -331 722 -326Q730 -331 736 -338Q743 -344 753 -347V-346Q753 -343 745 -334Q730 -318 730 -309Q730 -307 732 -303Q738 -306 744 -309H747Q744 -297 741 -286V-284Q746 -275 751 -264V-261Q749 -251 747 -241Q748 -238 748 -236Q723 -225 712 -201Q701 -175 686 -152Q681 -159 681 -164Q681 -170 687 -184Q692 -195 692 -201Q692 -210 682 -214Q659 -203 655 -172Q650 -142 645 -110Q630 -37 630 -7Q630 11 633 24Q640 10 647 -33Q656 -91 673 -104Q671 -89 661 -44Q648 14 648 45Q648 58 649 64Q652 74 655 84Q655 94 639 129Q634 130 626 130Q609 130 594 117Q590 114 571 92Q567 94 562 96Z"/>
</svg>