<svg xmlns="http://www.w3.org/2000/svg" viewBox="0 -800 1024 1024">
	<path fill="#000000" d="M495 -586L493 -588Q496 -591 498 -591Q506 -588 514 -585H517Q544 -625 600 -676Q621 -697 647 -719Q673 -741 706 -743Q719 -743 734 -737Q742 -743 755 -745H760Q754 -740 754 -735Q754 -728 767 -715Q780 -701 782 -695Q791 -705 808 -707V-705Q808 -702 804 -699Q799 -695 799 -691V-689H800Q805 -689 812 -698Q820 -708 825 -708Q828 -708 830 -707V-706Q824 -695 818 -685Q813 -670 808 -655Q818 -642 821 -623Q808 -613 808 -586Q780 -577 775 -574Q769 -570 765 -565Q760 -560 754 -559Q760 -590 785 -602L782 -611Q778 -612 770 -612Q743 -612 727 -590Q718 -578 704 -538Q683 -483 683 -456Q683 -444 684 -438Q693 -445 704 -475Q713 -501 731 -505Q721 -479 711 -452Q701 -425 699 -391Q724 -371 761 -367Q822 -357 882 -325Q923 -301 933 -292Q968 -260 970 -241V-239Q965 -202 959 -165Q956 -150 939 -138Q849 -141 836 -141Q785 -141 744 -135Q733 -132 722 -130Q716 -130 712 -135Q737 -148 774 -152Q811 -157 836 -162Q829 -172 790 -172Q767 -172 757 -171Q647 -167 619 -135Q620 -128 633 -128Q641 -128 649 -129Q655 -129 657 -128Q652 -119 635 -113Q616 -106 612 -96V-87Q612 -66 611 -46Q611 -34 612 -28Q616 -12 622 0Q623 3 623 9Q623 16 622 23Q622 35 628 41Q624 62 605 92Q589 118 584 134Q542 123 526 85Q510 46 498 2V0L500 -1Q502 -1 505 2Q504 -11 498 -18Q491 -25 486 -33H489Q496 -33 511 -28Q525 -56 527 -96Q529 -136 534 -172Q535 -177 537 -183Q538 -190 543 -191L544 -190Q543 -186 542 -182L543 -178L544 -177L543 -175Q543 -172 542 -170Q543 -156 544 -142Q541 -102 537 -62Q537 -31 551 -22Q560 -110 564 -199Q564 -239 557 -274Q549 -273 548 -257Q547 -241 540 -240Q530 -280 530 -302Q530 -319 536 -331Q533 -340 533 -348Q534 -365 541 -379Q549 -393 557 -406Q559 -402 559 -400Q559 -395 558 -390Q558 -388 560 -384L562 -383Q563 -383 564 -386Q565 -389 568 -389H569Q582 -378 592 -363Q601 -349 612 -334Q610 -326 610 -321Q613 -300 615 -280V-277Q612 -249 609 -221Q609 -208 613 -199Q696 -225 808 -234Q785 -244 749 -250Q734 -252 685 -257Q648 -261 631 -286Q617 -307 613 -352V-353Q615 -358 618 -361Q615 -373 615 -386Q619 -429 628 -469Q623 -468 615 -460Q606 -451 603 -450H594Q571 -450 559 -464V-466Q559 -476 544 -488Q531 -498 529 -507V-510Q531 -521 533 -532Q532 -548 520 -562Q518 -564 495 -586ZM495 -586Q474 -572 464 -546L467 -545Q476 -548 485 -551H488Q480 -539 477 -525Q477 -521 478 -518Q482 -511 491 -512V-504Q492 -483 493 -463Q493 -447 488 -437Q453 -433 427 -423Q402 -413 375 -403Q383 -392 398 -391V-382Q398 -367 402 -359Q389 -337 389 -322Q389 -316 390 -313Q403 -316 447 -331Q502 -350 527 -354Q512 -346 496 -337Q479 -329 475 -314Q477 -312 479 -312Q490 -315 500 -319H502Q497 -312 488 -305Q480 -299 479 -289L480 -285Q482 -282 487 -282H496Q489 -278 487 -263Q488 -261 491 -261Q497 -261 503 -262H506Q493 -255 493 -236Q493 -232 495 -224Q477 -220 477 -206Q477 -202 478 -200Q423 -187 366 -164Q310 -141 260 -121Q261 -134 271 -139Q281 -144 291 -148Q309 -155 327 -162Q346 -170 360 -184Q354 -186 343 -186Q308 -181 275 -166Q259 -160 239 -149Q224 -136 207 -125Q198 -122 190 -119Q181 -117 178 -106Q178 -102 181 -101Q183 -100 184 -98Q191 -98 201 -103Q211 -108 216 -108Q221 -108 224 -107V-105Q223 -101 221 -97V-95H220Q210 -95 202 -85Q200 -82 191 -64Q176 -34 159 -34Q156 -34 153 -35Q146 -41 134 -49Q125 -53 106 -53Q79 -54 71 -62Q63 -71 61 -81Q58 -91 54 -100Q66 -121 70 -146Q70 -154 66 -161V-166Q67 -191 82 -205Q97 -219 112 -232Q125 -246 139 -261Q153 -277 171 -285V-284Q168 -276 158 -265Q148 -253 146 -238Q149 -234 152 -230Q218 -257 286 -275Q289 -287 289 -299Q289 -325 269 -367Q242 -360 215 -345Q206 -337 197 -327Q188 -317 172 -316Q169 -316 165 -317Q156 -319 148 -331Q142 -340 139 -342Q128 -345 116 -348Q96 -359 85 -382Q85 -385 84 -389Q84 -395 89 -413Q93 -425 97 -438V-439Q96 -447 85 -453Q73 -459 71 -466L75 -467Q79 -467 86 -461Q91 -457 94 -457L98 -458Q95 -468 80 -475Q65 -482 62 -489Q66 -491 69 -491Q75 -491 83 -486Q91 -481 95 -481Q99 -481 101 -483Q93 -493 77 -495Q78 -497 83 -497H101Q112 -504 137 -529Q145 -525 153 -525Q163 -525 182 -533Q199 -540 207 -540Q214 -540 221 -536Q207 -527 203 -524Q193 -516 193 -509Q193 -503 196 -499Q219 -500 237 -509Q255 -518 272 -526Q292 -534 311 -539Q331 -544 350 -555Q342 -567 328 -567Q319 -567 296 -559Q273 -551 262 -551H261Q266 -566 280 -569Q294 -572 309 -577Q325 -583 340 -590Q356 -594 367 -597Q378 -601 386 -612H389Q396 -612 403 -617Q412 -623 418 -623H421Q425 -613 434 -608Q448 -615 458 -617H461V-615Q461 -611 456 -609Q451 -607 451 -604Q453 -595 460 -590Q467 -586 472 -580Q481 -584 495 -586Z"/>
</svg>