<svg xmlns="http://www.w3.org/2000/svg" viewBox="0 -800 1024 1024">
	<path fill="#000000" d="M934 -180L888 -190Q865 -196 842 -197Q837 -197 835 -196Q830 -194 827 -187Q824 -179 821 -177Q819 -186 817 -196Q733 -189 687 -169Q685 -138 684 -108Q676 -113 672 -139Q669 -161 662 -167Q652 -130 657 -68Q661 -15 674 36Q686 29 684 8Q681 -19 681 -21Q680 -31 683 -40Q687 -34 693 -15Q700 6 706 13Q696 31 698 55Q699 79 689 97Q677 115 658 116Q648 118 637 110Q612 84 602 47Q603 23 608 -5Q611 -50 612 -168Q613 -326 623 -390Q626 -359 642 -360H646Q655 -343 661 -336Q675 -327 683 -319Q680 -311 676 -304L677 -298Q680 -282 682 -267V-263Q712 -272 771 -280Q827 -288 847 -293Q835 -316 797 -325Q760 -335 739 -339Q725 -341 720 -341Q713 -340 699 -336Q683 -351 669 -368Q669 -372 669 -376Q668 -386 659 -398Q650 -409 650 -418V-428Q650 -430 654 -432Q657 -433 657 -436Q656 -464 671 -506Q683 -540 684 -561Q663 -551 655 -533Q646 -515 634 -496Q608 -497 597 -500Q578 -505 571 -519Q572 -526 573 -533Q564 -542 556 -545Q546 -571 544 -603Q540 -653 552 -670Q560 -667 568 -664Q572 -666 573 -666Q567 -662 569 -654Q571 -638 579 -636Q589 -646 598 -660Q618 -680 639 -700Q660 -721 671 -740Q638 -735 620 -713Q601 -691 581 -673Q581 -691 616 -730Q652 -769 671 -773Q680 -776 688 -776Q712 -778 743 -763Q748 -765 753 -768H755Q755 -763 755 -759Q755 -753 760 -753Q769 -761 777 -769Q784 -777 798 -780Q783 -765 780 -761Q770 -748 771 -736L772 -733Q780 -740 794 -746H795Q782 -736 784 -708Q786 -688 799 -681Q804 -685 822 -687Q816 -678 809 -670Q814 -665 814 -656Q814 -651 814 -646Q814 -644 817 -635Q783 -625 762 -572Q740 -523 740 -522Q729 -492 728 -466Q751 -455 778 -447Q806 -440 824 -421Q815 -421 791 -428Q767 -435 755 -434Q746 -434 741 -430Q778 -410 819 -396Q861 -382 891 -352Q897 -346 905 -326Q916 -298 929 -290Q934 -298 932 -314Q927 -355 901 -381Q899 -383 892 -386Q884 -390 882 -395Q884 -397 886 -397Q895 -392 904 -388Q907 -390 907 -393Q907 -396 910 -396L913 -395V-392Q913 -387 912 -382L913 -379Q917 -370 926 -371Q927 -359 941 -338Q956 -317 957 -304Q956 -292 955 -280Q955 -233 954 -225Q950 -194 934 -180ZM416 -426V-435Q416 -473 412 -507Q383 -504 364 -488Q344 -472 327 -454Q330 -445 332 -436Q337 -433 342 -430H343Q346 -430 349 -431L351 -430Q354 -428 358 -422Q363 -415 369 -414H373Q381 -414 392 -419Q408 -426 416 -426ZM515 -40V-38Q513 -23 503 -13Q493 -3 485 7Q480 5 473 4Q467 3 466 -4L451 1Q441 -7 423 -35Q412 -53 401 -64H403Q407 -64 409 -68V-75Q411 -100 413 -125Q411 -143 409 -161V-164Q412 -183 415 -202Q417 -222 417 -234Q417 -251 416 -268Q416 -280 418 -304Q379 -301 367 -277Q367 -259 353 -206Q342 -166 340 -148Q339 -141 339 -124V-111Q339 -59 320 -56H317Q299 -61 281 -66Q273 -66 267 -56Q266 -70 255 -79Q249 -84 234 -92Q233 -99 231 -107Q229 -110 217 -110Q204 -110 203 -116H206Q219 -116 226 -127Q220 -134 209 -134Q191 -131 172 -129Q163 -129 158 -133Q175 -139 193 -144Q211 -149 222 -161Q227 -196 232 -231V-234Q205 -228 198 -219H196Q180 -218 171 -208Q162 -198 154 -186Q143 -160 115 -157H110Q100 -158 95 -164Q90 -170 84 -174L80 -175Q78 -174 75 -174L71 -175Q49 -188 38 -213Q37 -216 37 -222Q38 -235 39 -248Q39 -253 38 -258Q32 -278 28 -299V-301Q34 -316 45 -330Q68 -347 86 -370Q101 -388 103 -390Q114 -401 124 -401H129Q121 -392 110 -381Q99 -370 98 -357Q98 -352 101 -346Q114 -349 127 -352Q135 -352 138 -345Q130 -339 121 -336Q112 -334 111 -322V-321Q113 -307 132 -303Q141 -306 150 -315Q166 -323 209 -333Q246 -341 256 -345Q273 -350 277 -369V-372Q272 -374 264 -374Q254 -374 233 -366Q214 -359 202 -359Q194 -359 189 -361Q192 -372 206 -374Q220 -376 229 -376Q252 -385 283 -390Q289 -398 292 -408Q292 -431 291 -432Q270 -420 253 -420Q250 -420 246 -421Q232 -425 224 -436Q217 -447 209 -459Q206 -463 199 -469Q189 -477 187 -481Q185 -490 183 -500Q174 -512 165 -524Q163 -533 161 -542Q157 -550 147 -561Q135 -573 135 -582Q145 -572 158 -564Q160 -566 160 -569Q157 -577 147 -584Q140 -593 132 -602Q128 -605 124 -607Q119 -609 119 -614Q122 -614 124 -615Q132 -615 145 -605Q159 -595 166 -595Q168 -595 174 -597Q171 -603 160 -608Q150 -613 147 -617H150Q165 -614 180 -611H184Q189 -612 200 -620Q218 -634 231 -635Q234 -634 237 -633Q258 -637 278 -642Q284 -642 290 -639Q288 -628 266 -623Q246 -618 246 -607V-605Q247 -596 258 -593Q268 -590 279 -587Q306 -612 375 -634Q447 -657 472 -683Q465 -688 453 -688Q439 -688 421 -682Q395 -672 375 -661Q356 -651 322 -647Q332 -659 359 -669Q386 -679 397 -692H400Q405 -692 407 -688Q443 -703 471 -722Q478 -701 498 -701Q517 -704 535 -708Q523 -702 520 -699Q512 -693 512 -685Q512 -681 513 -679H514Q523 -682 531 -685H534Q518 -675 518 -656Q519 -635 539 -630Q533 -620 530 -608V-605Q521 -591 520 -584Q520 -579 523 -579Q527 -578 527 -574V-573Q518 -571 514 -551Q508 -550 505 -546Q502 -541 498 -538Q512 -522 514 -459Q539 -464 545 -464H551Q554 -465 557 -470Q561 -476 563 -476L566 -475Q568 -473 568 -471Q567 -465 565 -459V-458Q570 -445 587 -445V-441Q585 -423 583 -405Q583 -399 584 -396Q582 -395 579 -393Q577 -392 577 -388Q581 -374 584 -361Q584 -357 581 -351Q578 -352 574 -352Q555 -349 532 -340Q519 -338 509 -337Q499 -336 491 -327V-323Q490 -310 488 -298V-292Q489 -272 489 -252Q489 -234 485 -225Q480 -232 480 -250Q481 -263 481 -276Q481 -299 469 -304Q460 -268 460 -222Q462 -117 485 -38Q493 -40 494 -49Q494 -58 497 -64Q489 -103 486 -143Q487 -149 487 -155Q499 -142 500 -109Q510 -73 515 -40Z"/>
</svg>