<svg xmlns="http://www.w3.org/2000/svg" viewBox="0 -800 1024 1024">
	<path fill="#000000" d="M873 -436H876Q880 -434 884 -433Q882 -423 875 -417Q874 -426 873 -436ZM367 -366H369Q373 -366 376 -371Q378 -376 381 -376Q395 -379 407 -384Q399 -388 384 -403Q382 -396 367 -366ZM681 -411Q674 -416 662 -416Q643 -416 634 -409Q644 -402 656 -397Q669 -404 681 -411ZM579 -463V-469Q580 -478 580 -487Q580 -491 579 -493Q566 -493 558 -485Q550 -477 550 -465Q550 -459 551 -456H553Q555 -456 579 -463ZM631 -475V-468H636Q659 -468 678 -496Q671 -502 657 -502Q656 -502 635 -499Q631 -485 631 -475ZM542 -538H544Q560 -542 576 -550Q574 -559 559 -559H546Q497 -559 472 -538Q474 -537 478 -537Q486 -537 498 -543Q511 -549 517 -549H520Q524 -548 529 -544Q537 -538 542 -538ZM334 -272L370 -280Q368 -322 352 -331Q345 -317 341 -304L342 -300Q338 -296 336 -291Q335 -281 334 -272ZM443 -450L420 -462Q419 -457 411 -447Q404 -439 404 -433V-432Q411 -438 426 -440Q438 -442 444 -444Q444 -443 449 -436Q471 -442 492 -448Q489 -463 476 -463Q459 -463 443 -450ZM276 -137H275Q273 -138 273 -147Q284 -149 294 -152Q290 -141 276 -137ZM652 -263Q677 -252 702 -242Q702 -239 700 -239Q697 -239 697 -236V-235Q697 -231 703 -231Q712 -231 717 -232Q709 -225 709 -213Q710 -199 711 -185Q711 -176 709 -171H706Q696 -167 686 -164Q679 -167 672 -171Q669 -172 662 -172Q653 -172 637 -170Q634 -170 593 -155Q593 -135 627 -135Q645 -136 663 -137Q663 -131 647 -128Q632 -125 629 -121Q634 -120 639 -120Q668 -123 697 -126Q748 -132 767 -144Q757 -147 748 -147Q737 -147 715 -141Q695 -135 685 -135Q691 -151 726 -157Q755 -162 763 -171H771L775 -170Q781 -173 784 -179Q791 -169 803 -169Q811 -169 829 -175Q849 -182 859 -182Q867 -182 871 -180Q863 -176 852 -173Q842 -171 838 -161Q841 -158 846 -158Q858 -159 870 -161H874Q873 -159 868 -157Q862 -154 861 -149Q862 -144 867 -144Q868 -144 877 -147Q876 -144 876 -136Q877 -120 878 -105Q878 -97 877 -92Q862 -86 848 -80Q833 -74 812 -73H808Q789 -73 769 -74Q712 -74 677 -65Q703 -47 741 -32Q758 -25 813 -7Q817 -12 822 -28Q826 -41 830 -48Q833 -37 834 -23Q834 -9 841 -1Q845 -15 846 -30Q850 -11 875 23Q898 54 898 78Q898 83 896 95Q882 97 868 113Q845 112 823 103Q801 95 779 87Q784 79 793 79Q812 84 830 88Q835 88 841 85Q751 38 660 -10Q673 7 708 32Q721 40 736 47Q751 53 756 71Q713 54 678 30Q644 5 607 -18Q611 28 611 51Q611 101 592 123Q550 124 531 100Q528 95 528 86V80Q528 74 527 71Q525 54 522 36Q522 23 527 14Q501 28 471 53Q441 78 411 100Q377 127 356 127Q350 127 347 126Q333 122 326 111Q318 99 312 85Q303 63 281 54Q289 53 296 52H299Q293 45 275 45H255Q279 31 310 27Q342 24 368 21Q365 31 357 34Q349 38 342 43Q348 45 352 45Q370 45 418 21Q459 -1 478 -17Q461 -15 431 0Q404 14 386 17Q396 1 432 -14Q456 -24 467 -33Q393 -29 325 -3Q312 4 299 11H298Q286 11 270 -5Q256 -19 245 -20Q238 -27 238 -38Q239 -64 259 -72V-76Q259 -97 275 -107Q285 -113 310 -118Q306 -115 300 -113Q294 -111 293 -105Q301 -96 327 -96H334Q366 -96 439 -108Q488 -116 515 -118Q514 -122 512 -127Q485 -122 457 -117Q454 -123 441 -130Q426 -138 423 -149Q409 -146 395 -144Q396 -147 403 -150Q407 -151 409 -154Q403 -161 387 -161Q370 -161 356 -154L355 -157Q355 -161 366 -164Q376 -167 378 -170H375Q362 -170 340 -163Q317 -156 307 -155Q361 -186 443 -220Q471 -230 479 -230Q486 -230 493 -226Q483 -217 454 -206Q429 -197 418 -188H423Q444 -189 467 -197Q489 -205 513 -212Q560 -228 573 -239Q570 -242 565 -242Q546 -237 527 -232Q520 -232 515 -236Q524 -248 545 -252Q548 -255 548 -260V-264H551Q553 -264 568 -261Q571 -263 574 -266L575 -268H576L579 -269Q581 -270 582 -272Q574 -277 574 -286Q578 -303 581 -320V-321Q581 -329 574 -345Q566 -363 566 -373V-375Q566 -397 587 -409H580Q513 -409 475 -384Q452 -371 452 -361V-360H455Q469 -360 511 -375Q512 -370 524 -363Q532 -368 539 -368Q542 -368 546 -366Q541 -360 540 -346Q538 -331 532 -324Q511 -319 484 -314Q457 -310 448 -293Q469 -297 494 -304Q519 -311 546 -312Q557 -312 562 -311Q540 -311 535 -299Q539 -295 539 -289Q539 -286 537 -278H536Q531 -278 519 -264Q490 -264 422 -238Q419 -241 358 -217Q307 -197 303 -199Q275 -170 250 -131Q245 -123 206 -57Q182 -19 163 21Q154 42 146 62Q137 83 122 100Q113 96 105 91Q96 86 85 85Q80 85 78 86V81Q77 69 69 61Q61 53 54 44Q59 37 59 24Q57 3 54 -18V-25Q56 -34 62 -44Q68 -54 69 -68Q69 -78 64 -104Q59 -128 59 -142V-156Q59 -187 66 -203Q75 -119 84 -78Q91 -82 91 -93Q90 -108 88 -124Q88 -128 90 -136Q93 -131 95 -118Q98 -100 105 -97Q129 -121 170 -176Q200 -217 218 -237Q220 -233 220 -231Q220 -224 204 -200Q167 -147 136 -93Q139 -84 142 -84Q147 -85 151 -93Q156 -102 160 -109Q231 -213 280 -298Q276 -302 271 -302Q265 -302 256 -290Q246 -277 238 -276Q261 -337 290 -390Q319 -444 346 -501Q344 -502 340 -502Q329 -502 322 -486Q316 -483 310 -481Q295 -487 280 -491Q265 -494 246 -507Q233 -515 218 -524Q202 -534 201 -550Q201 -553 203 -559Q212 -575 221 -592Q226 -610 232 -626Q238 -642 252 -651Q262 -649 266 -649Q280 -649 291 -656Q303 -663 316 -671Q339 -685 363 -690Q362 -686 353 -680Q338 -670 337 -661Q339 -656 348 -652Q355 -649 357 -646Q378 -654 437 -659Q480 -663 502 -668Q497 -697 488 -712Q476 -732 453 -735Q458 -747 471 -747H475Q480 -758 489 -763Q498 -768 512 -775Q542 -792 554 -792Q567 -792 579 -783Q578 -779 573 -779Q566 -779 559 -780Q555 -780 552 -777Q561 -761 578 -752Q595 -743 610 -730Q615 -732 620 -735V-738Q617 -756 607 -766Q608 -770 612 -770Q620 -768 628 -766Q630 -750 638 -744Q632 -738 632 -720Q624 -712 612 -705Q600 -698 599 -684Q600 -681 600 -679Q610 -680 628 -684Q656 -691 668 -691Q678 -691 687 -688Q676 -680 647 -675Q615 -669 605 -660Q612 -656 623 -656Q639 -656 678 -667Q705 -675 717 -676Q757 -677 788 -685Q780 -694 764 -695Q747 -695 736 -699V-700Q740 -711 760 -714Q769 -714 773 -708Q789 -714 805 -720L807 -717Q805 -713 803 -709Q825 -718 847 -726V-725Q847 -723 841 -716Q833 -707 833 -701L834 -697Q837 -689 847 -689Q857 -690 866 -691Q866 -688 861 -684Q856 -679 856 -676V-675Q856 -672 859 -672Q865 -672 866 -675V-671Q867 -661 868 -651Q868 -643 863 -637Q866 -630 869 -623V-621L865 -619Q860 -621 855 -624Q833 -613 829 -586Q819 -591 801 -591Q781 -589 760 -588H722Q689 -588 672 -577Q673 -572 674 -567V-565Q682 -563 688 -563Q716 -565 743 -567Q764 -567 775 -559Q787 -559 813 -567Q806 -560 803 -550Q803 -548 805 -544L807 -543Q810 -545 813 -547H814V-543Q817 -514 828 -495Q821 -488 821 -480Q822 -477 822 -474Q808 -469 778 -463Q779 -472 790 -480Q798 -485 800 -490Q796 -498 785 -498Q778 -498 760 -492Q721 -476 711 -442Q724 -450 744 -456Q752 -456 754 -450Q732 -444 720 -423Q727 -410 744 -410Q753 -410 760 -414Q758 -410 758 -409L760 -406Q783 -411 788 -411H792Q780 -396 780 -391Q780 -384 788 -381Q785 -377 782 -374Q778 -372 778 -367Q778 -363 779 -361Q750 -350 720 -345Q698 -342 678 -338Q658 -335 650 -319Q737 -321 823 -324Q829 -333 834 -358Q838 -380 843 -388V-383Q843 -372 842 -361Q842 -349 847 -345Q850 -353 850 -372Q849 -396 848 -421Q848 -428 850 -442Q854 -427 857 -388Q859 -358 862 -343Q870 -349 870 -375Q870 -403 878 -409V-387Q878 -367 881 -357Q885 -344 897 -335Q898 -334 926 -320Q944 -311 946 -298V-296Q944 -288 942 -280Q942 -275 946 -271Q917 -266 911 -250Q902 -255 882 -257Q860 -259 850 -265V-271Q853 -276 861 -276Q870 -275 878 -275Q885 -275 888 -279Q874 -301 815 -301Q792 -301 766 -297Q771 -285 796 -285Q817 -285 822 -276Q814 -274 809 -274Q792 -275 775 -277Q769 -277 766 -276Z"/>
</svg>