<svg xmlns="http://www.w3.org/2000/svg" viewBox="0 -800 1024 1024">
	<path fill="#000000" d="M710 -21H711Q714 -21 715 -18Q715 -16 718 -15Q718 -1 710 0Q707 -3 707 -10Q707 -18 710 -21ZM903 -91Q899 -99 899 -110Q899 -120 907 -120Q911 -112 911 -105Q911 -94 903 -91ZM801 -759V-750Q799 -749 795 -749Q788 -749 781 -750H777V-751Q779 -761 793 -763Q798 -763 801 -759ZM202 -554Q194 -539 182 -536Q181 -539 181 -543Q181 -559 192 -559Q197 -559 202 -554ZM550 -772V-771Q550 -758 536 -758Q534 -758 519 -761Q520 -774 539 -774Q542 -774 550 -772ZM934 69V72Q932 80 929 88Q929 91 931 93Q922 97 901 113Q864 104 837 85Q811 65 790 39Q757 -6 716 -45Q713 -44 713 -38V-31Q713 -26 712 -25Q706 -29 705 -37Q703 -46 700 -53Q686 -46 686 -11Q686 36 701 57Q710 51 711 36Q712 21 715 9Q725 18 725 37Q725 56 717 72Q708 90 697 92H694Q676 92 655 79Q649 75 640 59Q633 46 626 41V35Q627 25 627 15Q627 1 621 -6Q635 -24 636 -39Q564 -12 543 42Q536 45 529 45Q517 44 508 38Q498 32 489 27Q492 3 492 -2Q492 -13 489 -17Q501 -31 513 -45L514 -41V-35L515 -31Q565 -62 612 -97H606Q593 -97 574 -88Q557 -80 544 -80H540Q519 -111 501 -143Q462 -141 441 -125Q451 -109 465 -109H469Q472 -110 475 -114Q480 -120 484 -120H486L488 -119Q486 -114 483 -110Q483 -107 485 -106L488 -105Q491 -105 494 -110Q498 -117 501 -117Q492 -109 492 -95Q492 -74 509 -68Q489 -52 483 -22H476Q464 -22 451 -23Q444 -23 441 -22V-19Q442 -10 442 -2Q442 7 436 9Q431 3 431 -16Q431 -36 423 -40Q409 -31 409 4Q409 35 420 44Q428 42 428 33Q429 23 432 16Q445 23 445 44Q445 51 444 55Q430 60 427 63Q426 71 424 79Q418 81 414 81Q401 80 388 73Q375 66 361 60Q357 46 352 39L337 36Q343 19 348 1Q348 -7 344 -12Q316 4 281 35Q270 45 223 92Q218 98 212 106Q206 115 201 116Q199 117 194 117Q179 117 164 92Q157 94 150 95Q151 87 159 75V73Q158 51 143 42Q129 33 115 22Q129 29 144 29Q168 29 206 4Q227 -9 273 -48Q316 -84 340 -99Q276 -93 231 -64Q187 -34 146 -2Q134 -4 115 -18Q97 -32 84 -34Q65 -32 54 -42Q52 -48 52 -51Q56 -67 59 -84Q60 -88 60 -93Q57 -116 53 -139Q53 -152 64 -160Q81 -168 99 -174Q120 -185 143 -201Q166 -216 193 -218H196Q169 -209 152 -182H153Q169 -186 185 -198L186 -196Q183 -190 179 -185Q180 -183 185 -183Q193 -183 201 -184Q211 -184 212 -177Q202 -177 189 -172Q174 -166 174 -159Q174 -154 180 -150Q217 -160 287 -185Q282 -190 273 -190Q253 -186 235 -180V-184Q235 -192 243 -196Q244 -196 259 -201Q306 -217 362 -226Q359 -235 359 -243Q359 -261 370 -270Q366 -272 364 -272Q356 -271 349 -264Q342 -257 337 -255Q341 -267 352 -278Q344 -290 333 -298Q322 -307 321 -325Q321 -332 322 -336Q337 -355 361 -355Q391 -355 406 -332Q409 -334 416 -341Q423 -349 429 -351Q421 -342 421 -321Q421 -303 427 -288L428 -286Q425 -282 421 -279Q436 -262 450 -246Q465 -256 483 -261Q481 -256 479 -252Q506 -225 516 -198Q548 -216 575 -235L576 -233Q574 -228 571 -224V-222Q576 -212 589 -212Q614 -217 638 -222H641Q620 -249 620 -268Q620 -281 629 -287Q612 -294 605 -294Q596 -294 593 -287L592 -291Q592 -297 595 -303Q586 -311 574 -318Q562 -326 561 -336Q561 -343 568 -351Q580 -364 605 -364Q639 -364 648 -345Q658 -350 672 -354Q655 -348 655 -328Q655 -318 661 -312Q661 -309 658 -307Q654 -305 654 -303Q663 -307 671 -312Q681 -314 683 -314Q709 -312 715 -286Q721 -257 733 -235Q772 -244 790 -252Q818 -265 827 -288Q836 -283 849 -264Q853 -264 856 -269Q859 -273 863 -273H864L874 -255H878Q890 -256 901 -257Q893 -252 893 -242Q893 -231 904 -231Q902 -227 902 -223Q905 -212 907 -201Q898 -174 885 -152H883Q872 -151 861 -150Q853 -150 849 -156Q860 -162 873 -175Q868 -180 863 -183Q838 -176 817 -176Q796 -175 781 -160Q784 -155 799 -155H803Q821 -155 823 -147Q809 -142 780 -138Q746 -133 734 -128Q747 -115 762 -104Q776 -92 786 -77Q776 -77 758 -91Q740 -105 728 -105Q739 -84 767 -65Q782 -55 820 -34V-36Q820 -45 807 -55Q797 -63 795 -69Q815 -66 830 -56Q835 -52 855 -34Q861 -51 867 -69Q872 -68 872 -60Q872 -54 871 -48Q871 -40 877 -39Q881 -47 881 -61Q880 -80 879 -99Q879 -110 882 -119Q885 -97 887 -74Q889 -51 897 -34Q901 -58 903 -84Q908 -76 910 -45Q911 -27 922 0Q933 26 934 39Q931 44 931 48Q933 59 934 69ZM929 -576H931Q925 -567 925 -559Q926 -545 934 -532Q942 -520 947 -508Q944 -503 937 -499Q915 -461 904 -450Q886 -434 872 -434Q870 -434 867 -435Q868 -442 877 -450Q885 -457 886 -462Q885 -468 877 -476Q829 -449 821 -444Q791 -423 778 -398Q787 -398 804 -408Q821 -418 832 -418Q836 -417 839 -417Q839 -411 833 -409Q828 -407 824 -405Q784 -383 768 -356Q756 -368 738 -368Q726 -368 718 -360Q724 -368 725 -375Q720 -380 713 -380Q705 -380 697 -372V-375Q695 -388 677 -389Q673 -389 667 -387Q672 -394 672 -403Q672 -406 670 -420Q667 -420 663 -421Q645 -421 639 -413Q639 -411 644 -401Q636 -388 627 -375Q612 -378 610 -378Q603 -378 598 -375L581 -390Q576 -388 571 -386V-389Q571 -396 574 -399Q557 -409 557 -431Q557 -449 567 -462Q578 -468 589 -468Q625 -463 636 -429Q652 -443 695 -488Q684 -489 659 -489Q583 -489 556 -468Q549 -454 547 -413Q545 -379 541 -366Q535 -371 535 -392Q535 -414 525 -414H524Q512 -414 512 -382Q515 -332 525 -310Q536 -313 536 -326Q535 -339 538 -350Q548 -347 548 -334Q548 -322 552 -313Q545 -311 540 -306Q535 -288 522 -280Q509 -272 498 -261Q483 -265 466 -287Q453 -304 444 -309L443 -310L445 -312H448L450 -313Q456 -341 456 -372Q456 -406 450 -441Q447 -441 415 -429Q419 -418 423 -407Q431 -417 433 -423Q434 -419 434 -415Q433 -381 415 -361Q405 -356 398 -356Q385 -356 361 -368Q336 -381 324 -381H319Q302 -376 287 -360Q290 -349 290 -339Q289 -320 288 -302V-294Q264 -260 233 -260H229Q230 -270 243 -277Q256 -283 259 -291Q257 -293 252 -293Q245 -292 238 -291H236Q222 -294 207 -298Q202 -298 198 -294Q201 -287 215 -281V-278Q215 -272 214 -267V-264Q206 -269 200 -269Q190 -269 189 -258Q188 -269 180 -276Q172 -283 162 -283Q150 -283 146 -270Q144 -274 144 -275Q147 -281 150 -287Q149 -309 127 -309Q106 -309 91 -287Q95 -297 103 -308Q111 -318 118 -329Q114 -342 96 -357Q78 -373 75 -386Q75 -388 74 -391Q78 -403 82 -422Q78 -436 73 -451H75Q78 -451 80 -447Q82 -444 85 -444Q91 -447 93 -454Q96 -462 99 -468Q93 -479 78 -497Q62 -516 56 -528Q66 -520 82 -503Q98 -487 111 -485Q123 -485 124 -511Q131 -504 137 -495H155Q159 -501 174 -525Q175 -524 175 -520Q173 -509 170 -499Q185 -482 205 -470Q250 -476 333 -501Q407 -523 445 -530V-537Q445 -556 430 -556Q419 -556 393 -544Q373 -535 367 -534H359Q340 -534 329 -543Q316 -554 316 -574V-576Q283 -594 283 -632Q283 -639 284 -643Q268 -663 253 -683Q259 -681 269 -673Q280 -664 288 -664Q290 -664 296 -666Q290 -680 265 -697Q241 -714 233 -728L294 -693Q299 -700 304 -700Q303 -708 292 -717Q284 -723 282 -729Q300 -726 304 -726Q308 -726 316 -728Q327 -739 333 -744Q345 -754 354 -754Q362 -754 368 -749Q376 -749 384 -750Q396 -750 429 -747Q442 -755 462 -755Q470 -757 478 -759Q483 -759 483 -752Q465 -744 427 -737Q401 -732 382 -726Q380 -718 379 -717Q387 -715 392 -715Q417 -718 445 -729Q483 -737 526 -745Q568 -754 605 -768Q603 -774 594 -774Q583 -772 571 -771H568Q570 -784 581 -786Q593 -788 606 -789Q627 -792 647 -796Q654 -796 658 -795Q672 -803 684 -803H688V-790Q700 -786 712 -786Q739 -788 777 -797Q764 -789 744 -781Q725 -774 723 -757Q723 -750 725 -746Q741 -749 757 -753Q763 -753 766 -752Q734 -743 734 -722Q734 -715 736 -711L745 -714Q745 -711 739 -702Q730 -688 730 -680Q730 -674 734 -669Q725 -658 716 -647Q706 -637 703 -620Q665 -618 628 -615Q592 -612 571 -594Q579 -586 582 -573Q582 -571 580 -565Q651 -577 722 -589Q793 -601 845 -639Q851 -631 871 -624Q887 -619 892 -614Q900 -618 906 -624Q913 -630 924 -631Q910 -619 907 -597V-594Q911 -594 917 -600Q921 -604 926 -605Q917 -591 917 -580Q917 -575 918 -573L921 -572Q925 -574 929 -576Z"/>
</svg>