<svg xmlns="http://www.w3.org/2000/svg" viewBox="0 -800 1024 1024">
	<path fill="#000000" d="M795 -228Q795 -220 788 -215Q783 -216 783 -224Q783 -232 790 -236Q795 -233 795 -228ZM674 -492Q622 -481 598 -461Q611 -451 629 -446Q649 -471 674 -492ZM941 -479Q933 -465 919 -458Q920 -468 923 -475Q927 -484 933 -484Q936 -484 941 -479ZM894 -698Q880 -694 865 -690H864Q870 -705 884 -708Q891 -708 894 -698ZM649 -136Q653 -137 661 -137Q693 -139 707 -143Q727 -149 738 -165Q740 -164 743 -164Q745 -164 753 -170Q756 -171 760 -171L763 -172Q768 -176 772 -186Q778 -200 785 -203L786 -199Q783 -187 780 -176L781 -175Q782 -175 783 -178Q783 -181 787 -181H790Q791 -179 791 -176Q790 -169 789 -162Q789 -158 790 -157L791 -156Q793 -158 798 -161L800 -160Q799 -157 799 -152Q799 -140 814 -113Q830 -84 831 -70Q827 -50 814 -39Q802 -28 790 -17L787 -18Q784 -17 781 -17H778L777 -21Q777 -28 787 -32Q794 -35 796 -38Q796 -51 783 -51Q774 -51 766 -47Q756 -42 739 16Q727 57 722 84V90Q722 101 729 103Q736 100 744 87Q755 68 768 68Q773 68 776 69Q748 85 733 131Q715 135 696 139Q683 126 665 126Q659 126 653 129Q643 114 608 99Q574 85 559 75Q570 77 575 71Q581 63 570 55V57Q569 59 562 61Q558 62 557 69Q533 57 495 62Q491 62 481 64Q474 59 463 56V55Q463 48 468 48H472Q476 48 477 45Q477 36 467 30Q457 24 445 24Q433 24 428 32Q430 42 438 43Q446 44 453 47Q453 51 452 54V56Q442 54 421 54Q379 54 329 66Q333 51 345 50Q358 48 371 47Q382 45 392 42H395Q401 43 407 43Q415 43 418 35Q417 26 406 26Q401 25 392 25Q379 25 326 33Q281 41 270 66Q275 71 279 71Q290 69 300 66Q303 66 305 67Q297 81 271 88Q251 94 242 101Q238 106 234 113Q230 121 223 122H222Q216 122 197 103Q183 91 160 89Q152 78 152 56Q152 42 155 40Q158 38 163 30Q162 27 162 17Q162 2 164 -1Q186 -11 203 -24Q212 -34 225 -50Q238 -66 249 -73Q215 -25 211 -15Q217 -6 228 -6Q247 -10 265 -15Q295 -17 303 -21Q332 -25 361 -30H363Q410 -33 456 -36Q473 -37 489 -38Q497 -38 509 -45Q521 -52 528 -52Q530 -58 532 -64Q522 -66 519 -66Q506 -66 485 -59Q475 -58 464 -57Q450 -57 408 -44Q406 -42 401 -41Q381 -42 362 -42Q353 -58 340 -62Q336 -98 336 -115Q340 -121 346 -118Q352 -115 356 -114Q360 -114 360 -123Q360 -139 355 -147Q348 -145 346 -143Q343 -142 342 -134L340 -130Q334 -118 334 -123Q336 -123 337 -123Q336 -124 331 -137L335 -144Q327 -147 318 -150Q309 -153 307 -162L303 -161Q291 -164 279 -171Q274 -182 274 -224Q288 -238 302 -253Q316 -267 335 -276Q328 -277 321 -281Q308 -300 306 -303Q295 -317 284 -322L288 -323H298Q295 -332 287 -337Q279 -342 273 -348Q281 -345 292 -345Q298 -345 306 -347V-388Q236 -350 197 -285H190Q166 -285 155 -305Q151 -313 141 -350Q129 -373 125 -391H128Q133 -391 134 -388Q135 -385 137 -382Q141 -376 156 -363Q223 -391 297 -451V-457Q297 -466 305 -478Q310 -485 312 -492Q316 -496 336 -498Q359 -500 362 -509H359Q331 -508 303 -499Q274 -490 242 -482Q193 -471 158 -438Q151 -431 144 -422Q136 -413 124 -411Q108 -411 97 -419Q91 -428 84 -437Q77 -443 71 -446Q64 -450 64 -461V-465Q68 -488 71 -511Q71 -519 70 -523Q102 -549 135 -574Q134 -566 125 -558Q116 -550 115 -543Q120 -542 131 -542Q144 -542 157 -543Q168 -543 177 -540Q172 -536 156 -532Q136 -527 132 -518Q137 -512 159 -512H171Q202 -512 237 -523Q251 -528 297 -546Q288 -551 275 -551Q247 -547 218 -543Q213 -543 205 -545Q229 -558 257 -563Q285 -567 312 -572Q299 -587 287 -589Q288 -591 288 -594Q288 -599 281 -606Q276 -611 276 -615V-616Q277 -629 291 -637Q305 -645 316 -652H310Q286 -652 253 -621Q228 -598 214 -598Q200 -598 185 -612Q182 -629 164 -636Q162 -644 162 -649Q162 -660 173 -699Q171 -704 163 -710Q155 -716 155 -720V-721L158 -722Q161 -722 169 -716Q178 -709 185 -709H187Q195 -711 203 -713H207Q224 -711 241 -710H245Q268 -711 289 -718Q311 -726 331 -733Q356 -741 380 -750Q403 -758 429 -759Q446 -759 459 -755Q461 -748 463 -741Q467 -742 471 -744H473Q472 -740 472 -734Q472 -724 478 -710Q483 -698 483 -692Q482 -680 467 -665Q458 -657 441 -644Q427 -633 416 -621Q404 -610 390 -605Q395 -596 413 -596H418Q427 -609 453 -609Q459 -615 462 -624Q465 -632 476 -633H477Q474 -620 470 -607Q470 -601 474 -598L476 -601V-608Q486 -592 497 -560Q503 -568 509 -588Q515 -610 521 -617Q525 -613 525 -604Q525 -593 524 -583V-577Q535 -584 540 -597Q545 -610 550 -623Q564 -657 569 -675Q568 -679 563 -681Q554 -678 547 -660Q540 -641 531 -638V-640Q536 -665 540 -690Q536 -697 530 -697Q524 -697 519 -699Q520 -701 520 -705Q520 -710 509 -725Q524 -750 549 -766Q576 -783 608 -783Q622 -783 629 -781Q642 -777 644 -764Q647 -751 652 -738Q657 -729 666 -717Q674 -706 675 -691Q675 -686 674 -683Q665 -667 651 -650Q645 -639 635 -614H640Q674 -618 707 -636Q746 -647 778 -667H780Q783 -667 786 -663Q788 -660 790 -659Q801 -663 855 -686Q849 -679 837 -673Q826 -668 825 -658Q825 -655 828 -649Q833 -650 838 -653Q845 -658 849 -658H851Q850 -653 845 -648Q838 -640 838 -636Q838 -632 840 -630Q854 -637 882 -641Q873 -637 860 -630Q847 -623 846 -612V-609Q848 -601 855 -601Q859 -601 863 -605Q855 -591 851 -569Q851 -560 855 -555Q838 -555 837 -539Q794 -536 756 -518Q759 -515 780 -501V-495Q780 -487 789 -467Q784 -456 778 -445Q733 -440 706 -402Q736 -381 801 -357Q829 -347 834 -347H837Q846 -349 856 -367Q866 -385 877 -389Q867 -376 864 -358V-353Q873 -364 887 -394Q901 -422 911 -435Q910 -422 901 -400Q888 -368 888 -351Q888 -343 889 -339Q903 -375 923 -407V-404Q923 -394 916 -375Q906 -348 906 -334Q906 -326 907 -322Q910 -319 916 -319H920Q918 -315 918 -309Q918 -301 925 -286Q934 -267 934 -255Q934 -248 931 -239Q913 -224 892 -224Q869 -224 823 -247Q784 -262 762 -281Q781 -277 805 -268Q835 -256 854 -254Q851 -266 838 -276Q831 -282 815 -290Q784 -304 753 -319Q724 -340 691 -345Q695 -331 715 -319Q737 -306 742 -296Q711 -304 688 -320Q665 -336 642 -353Q635 -347 624 -335Q592 -300 564 -297Q541 -294 515 -317Q491 -333 491 -355V-359Q493 -365 498 -372Q502 -386 502 -402Q503 -418 512 -426V-401Q512 -388 515 -383Q549 -395 565 -404Q561 -411 555 -418Q549 -426 548 -436Q548 -440 549 -443Q530 -451 512 -460Q494 -469 489 -491Q495 -498 495 -504Q495 -509 494 -512Q490 -513 482 -513Q455 -513 432 -494Q422 -486 396 -455Q401 -448 406 -442Q398 -433 396 -404Q394 -379 390 -371Q385 -376 384 -394Q382 -419 373 -422Q362 -398 362 -365Q362 -333 377 -323Q379 -325 382 -335Q385 -345 389 -348Q395 -340 395 -334Q395 -321 384 -291Q375 -271 347 -273Q341 -269 341 -265Q352 -262 364 -262Q398 -265 434 -272Q424 -276 423 -281Q418 -293 418 -300Q420 -326 441 -333Q444 -333 447 -334Q459 -334 479 -323Q496 -314 503 -313Q501 -309 501 -305Q501 -302 503 -292Q501 -290 498 -289Q511 -292 509 -289Q514 -285 523 -285Q542 -289 560 -293H578Q583 -295 590 -303Q596 -310 603 -312Q608 -314 616 -314Q623 -317 628 -312Q636 -309 646 -302Q653 -299 659 -297Q662 -296 667 -296Q668 -297 666 -299Q665 -300 664 -302Q663 -306 666 -306Q669 -307 672 -304Q676 -300 679 -301Q681 -297 681 -296L680 -292L681 -288Q690 -284 698 -280L697 -279V-278Q701 -276 704 -274L706 -272L705 -270Q709 -267 712 -264V-263Q710 -258 708 -254L709 -251Q702 -250 702 -249Q702 -247 697 -246Q658 -224 653 -215Q652 -213 654 -207Q652 -206 649 -205L648 -203L649 -201V-200L646 -198Q642 -199 642 -202Q643 -204 643 -207Q647 -218 647 -221Q634 -213 634 -192Q648 -194 650 -195Q655 -184 659 -173H658Q651 -173 649 -178Q648 -182 644 -183Q639 -180 639 -175Q639 -165 651 -162L653 -165V-166Q653 -169 657 -169Q662 -167 664 -159Q665 -153 669 -150Q667 -144 649 -136ZM585 -133Q573 -137 560 -142Q560 -144 559 -146Q557 -149 555 -153Q546 -158 533 -161Q530 -155 530 -148V-146Q525 -141 520 -137Q493 -134 491 -134Q478 -134 472 -140Q459 -138 451 -134Q451 -137 456 -140Q460 -143 461 -146Q458 -154 451 -157H449Q430 -155 415 -151Q416 -126 415 -110Q498 -126 585 -133ZM578 37Q594 39 602 39Q613 39 618 38Q612 30 599 30Q642 26 654 -73Q627 -71 600 -69Q562 -63 538 -63Q539 -57 540 -52Q544 -45 550 -45Q560 -47 569 -49H570Q562 -43 562 -33Q562 -26 568 -22Q576 -23 583 -25H586Q581 -15 575 -6Q576 1 586 5Q578 23 580 33Q580 37 578 37ZM575 44Q574 47 571 53H577Q590 55 603 56Q607 56 610 53Q603 48 575 44ZM531 -163Q540 -162 549 -161Q553 -161 554 -162Q554 -164 540 -168Q536 -169 526 -169Q529 -166 531 -163ZM523 -173H535Q545 -173 549 -174Q556 -199 562 -226Q509 -223 459 -210Q464 -207 469 -205Q482 -207 506 -197L536 -215L514 -185Q519 -179 523 -173ZM456 -210Q450 -208 444 -207Q450 -202 459 -201V-204Q458 -207 456 -210ZM438 -205L435 -204Q419 -200 413 -190Q414 -170 415 -151Q435 -160 450 -170Q442 -182 431 -183Q437 -185 444 -185Q451 -186 452 -191V-192Q452 -196 447 -199Q442 -202 438 -205Z"/>
</svg>