<svg xmlns="http://www.w3.org/2000/svg" viewBox="0 -800 1024 1024">
	<path fill="#000000" d="M595 -353Q595 -359 593 -365Q577 -360 568 -331Q583 -334 593 -334Q595 -342 595 -353ZM699 -353V-360Q699 -365 693 -365Q688 -366 684 -368Q682 -378 682 -380Q682 -386 684 -389Q668 -389 650 -384Q645 -376 645 -365Q645 -364 648 -343Q674 -348 699 -353ZM594 -449V-462Q594 -482 589 -491Q581 -485 571 -476Q561 -466 560 -455Q560 -447 566 -441Q572 -441 594 -449ZM729 -549Q701 -544 671 -527Q662 -500 656 -464Q676 -469 699 -470Q716 -509 729 -549ZM666 -132L656 -134Q652 -134 648 -138Q644 -142 643 -142L642 -141V-140Q642 -138 644 -134Q646 -131 648 -128Q650 -126 650 -121V-118Q650 -105 645 -90Q641 -77 640 -72Q631 -1 570 97Q545 122 514 129H513Q507 127 496 116Q486 106 482 105Q480 103 460 120Q473 100 473 92Q474 86 473 85Q471 84 469 83Q458 76 446 69Q450 67 460 69Q466 70 468 69Q468 63 467 61Q467 54 468 50Q470 42 472 37Q469 25 448 5Q429 -14 415 -21Q406 -28 401 -41Q415 -33 428 -26Q436 -23 438 -22Q464 -5 506 -1Q545 3 555 -8Q588 -39 592 -76Q592 -79 594 -85Q594 -88 595 -90V-94Q595 -96 588 -97Q591 -103 591 -105L590 -107L589 -111Q588 -109 586 -108Q582 -103 574 -101V-107Q574 -118 582 -129Q585 -132 585 -135Q587 -140 589 -150Q594 -163 595 -164Q608 -184 628 -182Q650 -178 657 -162Q659 -154 659 -149Q663 -138 666 -132ZM806 -92Q802 -83 798 -74Q791 -75 791 -84Q791 -98 799 -98Q803 -98 806 -92ZM425 -452Q415 -444 415 -433Q415 -428 420 -420L423 -419Q427 -420 431 -421L433 -420Q427 -410 427 -393Q428 -380 428 -367Q428 -349 423 -338Q411 -340 405 -331Q402 -333 393 -333Q386 -333 384 -335Q347 -317 330 -278H324Q298 -278 297 -291Q293 -289 289 -287L286 -288Q285 -293 283 -298H277Q271 -298 265 -296Q280 -277 290 -249Q301 -189 301 -140Q301 -136 284 -120Q270 -107 270 -105Q271 -102 271 -100Q351 -140 433 -183Q425 -174 405 -157Q385 -140 383 -126Q383 -119 385 -115Q390 -115 403 -127Q416 -139 420 -139Q397 -120 390 -93Q391 -85 391 -77V-72Q388 -52 385 -33V-31Q374 -28 299 4Q280 12 277 14Q266 21 266 34Q269 36 271 38Q288 32 311 20Q350 7 357 7Q365 7 371 13Q253 55 219 119Q216 120 212 120Q200 120 194 113Q188 106 180 97Q166 85 152 74Q137 63 136 41V38Q126 53 115 68Q113 60 113 56Q113 42 125 22Q140 -3 140 -20V-28Q139 -28 138 -28Q133 -32 155 -70Q176 -106 180 -95Q179 -89 173 -79H175Q178 -79 179 -73Q180 -66 182 -64Q187 -71 202 -73V-96Q202 -105 204 -119Q209 -118 211 -104Q212 -92 217 -89Q229 -122 229 -173Q229 -226 217 -262Q208 -247 209 -228Q211 -208 212 -191Q212 -172 204 -161Q191 -186 191 -229Q191 -233 194 -266Q195 -286 205 -309Q218 -314 237 -314Q249 -314 261 -300Q278 -341 297 -379H295Q263 -379 211 -340Q197 -331 181 -322Q166 -314 157 -303Q153 -297 147 -280Q142 -265 136 -257Q122 -257 108 -247Q110 -255 110 -259Q110 -279 93 -282H90Q80 -281 76 -274Q71 -267 65 -262Q71 -296 94 -381Q113 -451 122 -495Q129 -523 132 -549Q132 -566 121 -574Q103 -568 100 -545Q97 -523 95 -499Q89 -510 89 -534Q89 -537 92 -582L90 -583Q87 -583 85 -577Q82 -570 81 -570V-578Q81 -596 89 -611Q94 -620 108 -639Q127 -665 135 -673Q153 -691 172 -691H174Q205 -691 241 -655Q266 -630 266 -608Q260 -580 240 -567Q241 -582 241 -598Q241 -627 222 -627H216Q218 -620 218 -605Q218 -585 208 -544Q200 -511 199 -495Q208 -498 215 -521Q224 -552 241 -553Q229 -516 217 -479Q232 -480 251 -488Q266 -495 272 -496Q270 -485 249 -476Q229 -468 226 -458Q276 -472 325 -495Q323 -502 315 -502Q301 -498 287 -494Q284 -494 280 -496Q280 -503 285 -506Q290 -510 294 -514Q308 -528 312 -529H316Q322 -529 329 -523Q334 -518 341 -517Q350 -517 356 -523L355 -519Q357 -515 359 -511Q375 -523 391 -535V-533Q391 -528 384 -519Q377 -510 377 -504Q377 -501 378 -499L380 -498Q383 -498 386 -499H388Q385 -494 385 -488Q385 -478 391 -469Q397 -459 406 -458Q409 -457 411 -457Q414 -457 422 -459Q414 -471 408 -475Q410 -491 410 -496V-508Q410 -521 412 -528Q414 -536 424 -550Q434 -565 434 -573V-576Q433 -583 432 -591Q432 -596 434 -598Q439 -595 442 -584Q445 -575 447 -573Q452 -575 452 -583Q450 -595 448 -608Q448 -617 454 -620Q456 -591 468 -585Q472 -586 472 -591Q470 -599 467 -608Q467 -612 471 -613Q474 -610 478 -601Q483 -590 488 -587L491 -586Q494 -587 497 -588Q506 -575 520 -567Q533 -568 555 -577Q571 -584 580 -585Q582 -595 582 -599Q582 -611 566 -639Q547 -672 547 -692V-696Q547 -707 552 -716Q558 -728 569 -733Q575 -749 592 -769Q610 -791 622 -794Q625 -795 629 -795Q645 -795 658 -783Q668 -774 675 -759L671 -758Q664 -760 656 -765L648 -761Q650 -750 661 -731Q671 -714 673 -701Q674 -698 674 -696Q674 -693 673 -691Q673 -684 678 -683Q690 -692 690 -709Q690 -721 682 -745H685Q690 -745 695 -740Q701 -734 702 -733Q699 -727 699 -722Q700 -712 701 -703V-701Q700 -687 689 -667Q678 -647 678 -636V-633Q709 -639 737 -653Q751 -662 762 -676Q773 -690 790 -692Q793 -694 796 -699Q799 -704 803 -705L807 -706Q814 -706 829 -695Q841 -686 847 -686H848Q857 -689 866 -692L867 -691L866 -687Q875 -690 886 -701Q897 -712 906 -714Q905 -709 895 -699Q881 -685 881 -674Q881 -669 884 -662Q889 -663 891 -673Q894 -686 902 -686V-681Q902 -668 901 -655Q901 -641 905 -633L906 -632L910 -633L912 -632Q914 -607 929 -561Q925 -548 920 -535Q911 -534 897 -526Q886 -519 880 -519L879 -523Q880 -532 887 -537Q894 -543 898 -549Q893 -558 885 -558Q872 -558 849 -532Q846 -536 840 -536Q821 -531 809 -512Q797 -486 784 -460Q767 -426 767 -407V-404Q780 -412 798 -444Q812 -469 820 -478Q824 -475 828 -473Q834 -476 841 -488Q850 -504 859 -504Q863 -504 865 -503Q863 -495 858 -491Q853 -488 849 -483Q834 -464 825 -441Q815 -418 805 -395Q791 -385 781 -371H786Q803 -371 826 -380Q849 -389 861 -389H863Q867 -390 871 -396Q876 -404 883 -404V-396Q883 -387 886 -384Q895 -385 903 -387L906 -386Q904 -382 902 -379L903 -377Q907 -370 918 -370Q928 -371 938 -372Q938 -367 931 -363Q923 -358 923 -351V-350Q928 -344 929 -344Q931 -344 934 -347Q931 -339 931 -332Q932 -322 932 -312Q932 -306 931 -302Q926 -300 922 -291Q917 -281 913 -281H911Q911 -278 914 -275Q914 -273 910 -273Q907 -273 905 -275L903 -273V-268Q875 -277 846 -287Q852 -289 853 -289Q869 -285 885 -282Q892 -282 897 -288Q892 -303 869 -309Q853 -313 823 -314Q799 -316 786 -316Q761 -316 756 -305Q763 -301 789 -299Q808 -298 818 -294Q816 -288 802 -288H788Q781 -288 778 -287Q778 -285 784 -278Q792 -268 792 -262L794 -261Q799 -264 803 -267L806 -265Q804 -254 801 -248Q802 -243 806 -237Q812 -228 812 -221Q812 -217 811 -215Q790 -207 789 -193Q763 -185 752 -141Q745 -113 743 -59Q741 -43 741 -37Q741 -29 745 -24V-22Q743 -20 741 -18Q745 -17 750 -17Q766 -20 781 -23Q781 -45 792 -59L793 -55Q792 -44 791 -33Q791 -28 792 -26Q795 -15 804 -11Q807 -11 810 -15Q814 -20 820 -20H823Q819 -12 819 -4Q819 5 827 8Q845 -1 862 -11Q879 -20 902 -24Q885 -13 867 -2Q849 8 838 25V26Q840 30 841 33Q850 31 858 28V30Q858 33 854 35Q849 37 849 40Q850 50 864 50Q874 50 884 49Q897 49 899 54Q866 58 854 64Q853 67 853 70Q854 76 854 82Q849 88 842 105Q836 121 830 128L826 127Q821 127 816 136Q797 130 782 127Q767 124 758 107H760Q767 107 781 115Q797 124 804 124Q815 124 820 113Q768 76 736 76H734V79Q734 85 740 89Q746 93 746 97H743Q725 94 699 71Q689 64 677 56Q665 48 663 37V35Q664 26 670 20Q677 15 683 7Q680 1 676 -6Q665 -35 665 -64Q669 -106 672 -148Q672 -191 682 -225Q647 -222 616 -208Q581 -192 568 -170Q572 -147 568 -98L565 -79Q563 -60 560 -42Q552 -26 538 -23Q530 -21 521 -32Q523 -50 523 -56Q523 -109 493 -143Q487 -139 487 -131Q489 -119 490 -107Q490 -103 488 -101Q477 -109 462 -131Q450 -149 443 -156Q450 -205 480 -234Q493 -243 512 -243Q521 -243 523 -242Q531 -235 539 -233Q545 -234 551 -239Q568 -242 585 -245Q601 -252 616 -259Q647 -269 671 -284Q531 -273 471 -234Q459 -226 448 -216Q436 -206 425 -205Q416 -205 406 -215Q402 -223 400 -233Q394 -238 387 -242Q380 -246 378 -254Q377 -257 377 -263Q377 -276 386 -286Q390 -290 404 -302Q404 -314 405 -318Q416 -328 425 -336Q434 -344 450 -343Q449 -340 441 -335Q432 -329 431 -321Q436 -314 454 -314H460Q502 -319 544 -328Q528 -329 513 -340Q503 -347 488 -363Q481 -361 474 -360Q476 -366 476 -378Q476 -410 437 -449H426Z"/>
</svg>