<svg xmlns="http://www.w3.org/2000/svg" viewBox="0 -800 1024 1024">
	<path fill="#000000" d="M850 -437H853Q852 -426 838 -418Q836 -420 836 -424Q837 -436 850 -437ZM853 -220H858Q861 -217 861 -211Q861 -203 860 -195Q860 -191 861 -189Q851 -190 851 -206Q851 -212 853 -220ZM92 -442V-440Q92 -423 74 -417Q73 -420 73 -426Q73 -442 90 -442ZM527 -242L529 -250Q529 -258 521 -258Q513 -258 505 -251Q496 -244 496 -236V-235Q512 -238 527 -242ZM530 -181H526Q515 -181 508 -176Q499 -170 499 -158Q503 -156 506 -156Q518 -158 529 -161Q531 -165 531 -169Q531 -175 530 -181ZM634 -217H627Q614 -217 594 -207Q592 -191 590 -175Q610 -177 618 -191Q625 -205 634 -217ZM649 -75Q639 -86 623 -98Q608 -101 592 -101Q570 -101 520 -92Q588 -82 649 -75ZM677 -297V-299Q620 -295 597 -285Q601 -282 601 -278Q599 -272 597 -266V-264Q631 -272 671 -277Q674 -287 677 -297ZM641 -499V-500Q613 -495 558 -472Q538 -463 524 -454Q507 -444 501 -428Q558 -439 614 -451Q627 -476 628 -478Q641 -496 641 -499ZM247 -433H244Q224 -436 203 -440Q193 -441 164 -454Q145 -467 133 -472H132Q122 -472 113 -461Q102 -448 98 -446V-447Q98 -457 109 -472Q117 -483 119 -490Q109 -513 95 -524Q83 -520 68 -517H66Q69 -522 83 -530Q93 -536 98 -541Q91 -549 91 -563V-568Q91 -576 90 -580Q87 -591 67 -602Q49 -612 45 -622H49Q57 -622 71 -614Q85 -606 93 -606H95Q116 -611 136 -625Q139 -629 141 -659Q145 -650 149 -641Q153 -632 164 -628H165Q169 -628 171 -633Q173 -637 176 -637Q180 -616 201 -613Q208 -618 218 -637Q227 -653 234 -659Q235 -657 235 -653Q230 -637 225 -613V-610Q229 -606 233 -603Q242 -606 250 -609Q252 -561 278 -546Q280 -534 285 -527Q291 -520 295 -511V-507Q297 -487 298 -468Q298 -457 296 -452Q281 -445 272 -439Q263 -434 247 -433ZM801 -778H804Q800 -771 794 -764Q787 -756 786 -746Q786 -740 789 -734L793 -733Q797 -734 801 -735L804 -734Q794 -709 781 -687Q768 -664 763 -635Q653 -615 611 -604Q533 -583 483 -550Q465 -536 452 -529H448Q431 -529 412 -543Q392 -558 391 -575Q382 -583 372 -590Q361 -597 358 -612V-620Q358 -646 378 -670Q375 -679 375 -686Q375 -710 398 -725Q419 -738 448 -738Q462 -738 477 -733Q496 -735 514 -737Q513 -731 497 -726Q477 -719 475 -709Q483 -700 497 -700H501Q527 -702 607 -724L656 -739Q669 -742 681 -746Q693 -750 699 -759Q687 -762 675 -762Q654 -762 616 -751Q575 -739 555 -739H549V-740Q549 -748 558 -751Q559 -751 573 -753Q595 -758 617 -765Q639 -772 656 -773Q664 -781 684 -781H687Q697 -786 706 -791Q709 -789 715 -789Q729 -790 742 -792Q748 -792 751 -791H752L754 -789V-784Q771 -793 792 -797Q787 -791 780 -786Q773 -780 772 -769H775Q788 -773 801 -778ZM887 108H885Q852 104 817 87Q766 71 715 51Q719 47 725 47Q734 48 743 49Q750 49 754 44Q747 30 731 25Q715 20 699 15Q672 5 665 5Q655 5 650 14Q653 22 669 27Q684 31 687 38Q679 40 675 40Q664 40 642 31Q626 24 616 23Q573 12 521 5Q489 2 456 -6Q441 -8 435 -16Q522 -9 552 -3Q588 8 623 12Q630 12 634 11Q615 -12 581 -19Q547 -25 511 -29Q476 -35 441 -41Q419 -44 396 -47Q386 -49 378 -49Q359 -49 352 -41Q358 -33 379 -30Q399 -27 407 -19Q394 -16 366 -16H345Q327 -17 308 -18H296Q286 -18 233 -13Q178 -9 144 15Q127 14 108 1Q90 -11 78 -13Q72 -26 68 -38Q68 -41 71 -46Q65 -54 59 -54H57Q58 -62 72 -66Q87 -92 120 -95Q152 -97 185 -103Q202 -107 227 -121Q251 -134 261 -136Q191 -172 173 -226Q165 -223 148 -206Q133 -190 117 -189H114Q100 -190 91 -199Q82 -208 71 -216Q62 -221 54 -224Q45 -227 42 -235Q41 -238 41 -244Q41 -249 46 -274Q37 -290 37 -305Q37 -342 78 -370H85Q98 -370 111 -371Q119 -371 126 -368Q119 -358 107 -356Q94 -354 93 -340V-339Q102 -335 115 -335Q161 -335 206 -382Q202 -384 194 -384Q185 -384 168 -376Q153 -369 145 -368Q147 -379 152 -385Q163 -387 185 -400Q220 -420 237 -420Q253 -420 265 -409Q277 -416 289 -424Q285 -413 281 -402Q281 -400 283 -396L285 -395Q286 -395 287 -398Q288 -401 292 -401L295 -400Q292 -392 292 -383Q292 -361 307 -351Q298 -292 278 -244Q300 -225 322 -207Q352 -183 357 -142Q357 -117 334 -103Q372 -99 409 -96Q417 -96 431 -98Q422 -116 409 -134Q397 -152 396 -176V-178Q406 -173 415 -152Q424 -130 435 -126Q439 -131 439 -139Q439 -149 425 -182Q421 -193 414 -211Q407 -230 398 -232Q387 -232 387 -217Q388 -208 388 -199Q384 -204 364 -223Q348 -238 346 -251Q345 -253 345 -258Q348 -273 351 -288Q349 -305 347 -323Q347 -333 351 -337Q356 -335 357 -325Q359 -314 363 -313L364 -317V-327L365 -329Q369 -325 373 -322Q383 -333 406 -333Q428 -333 444 -325Q487 -331 564 -350Q633 -367 669 -373Q663 -373 655 -380Q650 -385 646 -386Q642 -388 626 -388H613Q526 -381 481 -336Q448 -342 432 -361Q420 -379 404 -396Q389 -403 373 -411Q353 -427 346 -468Q349 -471 353 -479Q358 -490 363 -493Q361 -508 358 -523V-527Q363 -525 367 -516Q371 -507 375 -505Q379 -506 379 -511Q379 -515 378 -517Q387 -514 393 -509Q407 -521 422 -521Q430 -521 437 -517Q548 -547 662 -583Q678 -587 691 -597Q703 -607 715 -616H720Q736 -617 751 -618Q756 -618 764 -616Q767 -616 774 -609Q779 -604 782 -604H783Q792 -605 800 -622Q809 -641 816 -644Q817 -642 817 -638Q813 -620 809 -602Q809 -598 810 -596H811Q814 -596 815 -601Q816 -606 819 -606H820Q823 -604 823 -601Q823 -597 822 -594V-592Q824 -583 836 -567Q850 -548 852 -537Q848 -531 847 -516Q846 -505 843 -500Q837 -492 825 -490Q814 -488 804 -483Q799 -481 794 -476Q787 -470 782 -469Q780 -475 780 -476Q780 -483 789 -491Q797 -498 798 -502Q796 -506 794 -511H790Q765 -511 746 -481Q729 -458 727 -454Q717 -437 717 -421Q730 -426 736 -438Q743 -452 757 -454Q760 -454 766 -452Q753 -439 739 -426Q725 -413 720 -391H724Q744 -393 764 -396Q777 -396 783 -389Q791 -392 798 -396V-386Q804 -388 812 -398Q821 -409 829 -411V-410Q829 -404 822 -395Q815 -386 814 -382L816 -381Q819 -382 821 -383H823Q823 -366 836 -342Q849 -318 849 -304Q849 -296 846 -286Q831 -277 825 -261Q802 -261 795 -248L797 -247H803L805 -245V-244H804Q794 -244 787 -235Q781 -227 776 -226Q775 -228 775 -233Q775 -240 781 -252Q786 -262 786 -267Q786 -273 779 -279Q758 -275 755 -250Q750 -252 745 -254H743Q730 -247 724 -233Q718 -218 712 -202Q705 -186 698 -170Q690 -155 689 -135Q689 -128 690 -124Q706 -140 716 -161Q726 -183 739 -202H740Q745 -200 746 -196Q750 -197 755 -203Q762 -211 769 -211H772Q760 -192 740 -149Q714 -94 697 -70Q735 -60 775 -60Q784 -57 793 -55H795Q814 -57 821 -81Q831 -119 834 -123V-115Q834 -106 840 -82Q842 -110 842 -131Q842 -151 840 -185Q839 -196 837 -207Q837 -212 841 -216Q847 -212 848 -202Q849 -192 849 -182Q856 -128 862 -75Q865 -81 865 -90Q862 -112 859 -135V-181Q865 -166 870 -134Q878 -86 890 -69L891 -68Q895 -69 898 -70H900Q915 -47 937 -15Q959 17 961 56Q961 62 959 72Q954 89 934 99Q913 108 887 108Z"/>
</svg>