<svg xmlns="http://www.w3.org/2000/svg" viewBox="0 -800 1024 1024">
	<path fill="#000000" d="M621 -3V-4H625Q638 -4 639 5Q637 6 634 6Q621 6 621 -3ZM843 -318Q839 -318 834 -323Q830 -327 827 -328Q826 -326 826 -321Q826 -317 827 -314Q838 -313 843 -318ZM954 -554Q951 -572 951 -577Q951 -585 953 -587Q960 -586 960 -577Q957 -565 954 -554ZM106 -184H104Q108 -208 124 -208Q124 -202 119 -195Q115 -189 115 -183L112 -182Q109 -183 106 -184ZM396 -313H394Q385 -313 380 -306Q375 -299 375 -291Q375 -286 377 -282Q384 -285 389 -299Q393 -310 396 -313ZM763 -197V-199Q761 -200 757 -200Q751 -200 746 -193Q741 -186 741 -178Q741 -171 744 -167Q745 -170 754 -171Q761 -172 763 -175Q761 -179 761 -182Q762 -189 763 -197ZM319 -271V-268Q321 -267 324 -267Q333 -267 342 -274Q342 -283 344 -301Q342 -302 339 -302Q330 -302 325 -292Q319 -283 319 -271ZM341 -376V-379Q338 -389 335 -399Q335 -401 338 -406Q278 -404 261 -352Q273 -355 280 -360V-363Q280 -365 283 -377Q291 -382 302 -382Q318 -382 325 -370Q332 -374 341 -376ZM802 -351H805Q784 -373 763 -396Q743 -418 719 -439L717 -440L716 -439Q719 -416 720 -390Q721 -363 728 -342Q722 -332 713 -317Q704 -302 695 -299Q693 -298 689 -298Q679 -299 669 -305Q660 -312 651 -316Q650 -327 643 -335Q640 -339 628 -346Q629 -348 633 -348H642Q649 -361 649 -390Q649 -402 648 -408Q636 -405 624 -392Q619 -387 606 -370Q583 -347 574 -319Q580 -324 586 -328Q589 -329 593 -329Q607 -329 616 -308Q626 -285 633 -282Q648 -292 671 -294H677Q682 -291 687 -288Q728 -289 760 -305Q758 -311 758 -314Q758 -330 773 -341Q786 -351 802 -351ZM791 110H788Q750 110 732 57Q716 46 696 35Q712 39 728 42Q723 30 687 23Q658 17 649 9H655Q685 14 726 19Q732 19 738 18Q745 3 750 -37Q753 -63 757 -76Q753 -76 748 -77Q724 -73 705 -64Q708 -78 733 -85Q754 -91 759 -98V-99Q759 -102 756 -103Q753 -103 753 -106Q720 -101 694 -94Q667 -88 655 -55Q660 -49 664 -49Q676 -53 688 -57H689Q675 -35 672 -31Q661 -18 649 -18Q643 -19 636 -29Q630 -37 625 -41Q616 -47 606 -54Q601 -62 601 -74Q601 -91 609 -97Q605 -106 605 -114Q606 -125 613 -131Q620 -138 627 -145Q633 -154 638 -164Q643 -174 652 -175Q650 -168 648 -162Q654 -153 666 -153Q677 -153 684 -159Q685 -162 685 -167Q685 -178 676 -189Q666 -201 666 -211V-216Q648 -210 639 -191Q631 -172 621 -150Q601 -120 588 -94Q577 -65 562 -34Q546 -2 538 31Q525 47 511 47Q493 47 479 26Q476 11 476 -2Q478 -26 483 -45Q489 -66 494 -88Q496 -73 498 -58Q503 -61 511 -72Q517 -80 522 -84Q514 -106 494 -110Q489 -117 489 -128V-150H492Q498 -150 501 -156Q505 -165 507 -166Q513 -169 520 -169Q542 -169 563 -148Q588 -180 609 -214Q575 -209 560 -175Q553 -172 546 -172Q536 -172 519 -182Q504 -191 494 -191Q486 -191 482 -189Q489 -226 509 -251Q529 -275 550 -301Q531 -306 523 -322Q487 -297 475 -284Q452 -259 448 -226Q426 -216 409 -213Q406 -213 403 -214Q393 -220 380 -224Q374 -224 369 -220Q382 -208 385 -204Q392 -194 392 -179Q432 -194 471 -199H473Q471 -194 469 -190L470 -186Q471 -181 475 -177Q479 -173 480 -170Q482 -156 482 -151Q481 -121 459 -112Q438 -102 415 -95Q385 -87 381 -52Q397 -56 430 -70Q467 -85 486 -90V-89Q486 -84 477 -74Q468 -64 468 -60Q468 -54 479 -49Q470 -44 468 -31Q468 -23 476 -22Q467 -19 460 -15Q458 -7 458 -6Q458 -5 460 -1Q397 12 383 44Q373 49 363 54Q350 51 336 50Q323 50 318 34Q320 31 320 25Q316 10 312 -5V-7Q312 -12 318 -18Q324 -24 324 -25Q329 -37 329 -56Q329 -74 328 -93Q328 -104 329 -110Q338 -107 338 -89Q338 -75 337 -62Q337 -45 347 -40Q354 -99 354 -105Q354 -144 336 -154Q328 -152 328 -136V-130Q315 -132 315 -154Q316 -162 316 -170Q316 -179 313 -187Q316 -196 324 -200Q331 -205 338 -211Q310 -208 291 -199Q272 -190 252 -178Q239 -184 226 -190Q212 -197 211 -211Q212 -223 220 -231Q229 -239 235 -248Q241 -246 245 -246Q254 -246 276 -256Q276 -270 274 -274Q260 -268 247 -259Q234 -251 221 -250H217Q194 -223 181 -179Q184 -180 190 -180Q211 -180 236 -159Q268 -169 306 -192L307 -188Q304 -180 300 -173V-172Q300 -166 307 -156Q315 -144 315 -136V-132Q306 -114 300 -93Q287 -93 262 -77Q243 -64 235 -64Q235 -59 234 -54Q234 -50 236 -48Q253 -51 284 -65Q306 -75 322 -79L323 -75Q323 -72 317 -66Q311 -60 310 -55Q310 -52 314 -52H319L322 -51Q319 -43 314 -36Q309 -29 308 -17Q309 -13 309 -10Q283 0 257 11Q231 21 208 37Q195 48 185 59Q174 70 158 71Q152 71 143 68Q142 64 131 52Q117 36 117 26Q117 18 124 11V7Q124 -10 134 -21Q140 -28 156 -37L159 -35Q158 -31 157 -27V-25Q169 -28 181 -31V-67Q181 -124 168 -142Q147 -105 134 -61Q120 -16 104 26H98Q90 26 85 29Q64 16 42 2Q41 -9 35 -28Q27 -55 27 -68Q27 -86 39 -101Q41 -129 41 -146Q41 -163 39 -195Q38 -206 37 -218Q37 -231 44 -238Q48 -150 56 -121Q64 -128 74 -145Q89 -171 103 -176Q104 -174 104 -171Q101 -161 91 -151Q78 -131 78 -116Q78 -108 82 -101Q97 -109 113 -141Q125 -165 137 -189Q148 -207 160 -225Q173 -243 175 -267Q169 -264 159 -253Q146 -238 140 -235Q143 -249 151 -264Q172 -302 195 -351Q174 -345 157 -343H154Q142 -345 131 -354Q119 -365 118 -379V-380Q119 -385 119 -390V-391Q117 -398 103 -408Q91 -417 89 -424Q89 -466 106 -477Q102 -483 90 -493Q75 -506 70 -515Q94 -505 113 -490V-493Q112 -502 105 -507Q98 -512 91 -518Q79 -529 56 -558Q69 -555 89 -536Q106 -519 116 -515Q119 -517 122 -520Q119 -527 111 -533Q100 -542 98 -544Q116 -539 132 -532L143 -538H150Q173 -538 215 -549Q251 -558 277 -559Q277 -565 277 -571Q278 -575 278 -584Q278 -672 233 -672Q229 -672 221 -670Q239 -688 266 -716Q292 -744 324 -750Q329 -750 333 -751Q349 -751 356 -742Q362 -734 372 -724Q379 -718 388 -714Q396 -710 397 -701Q397 -699 395 -693H394Q386 -693 377 -704Q370 -713 365 -713Q361 -713 356 -710Q357 -696 363 -687Q369 -679 374 -669Q372 -658 370 -647Q370 -640 375 -637Q388 -642 393 -656Q397 -670 402 -684Q410 -683 410 -673Q408 -661 406 -650Q384 -631 375 -586Q379 -582 386 -582Q393 -582 408 -587Q454 -598 503 -615L504 -613Q504 -610 500 -606Q492 -597 492 -592V-589Q499 -594 508 -597H510Q502 -589 502 -574Q502 -558 513 -534Q509 -523 509 -510Q509 -500 511 -478Q493 -458 491 -440H488Q475 -438 461 -437H457Q458 -446 472 -451Q483 -455 485 -459Q483 -460 483 -465Q476 -467 460 -467Q397 -464 360 -443Q365 -429 378 -429Q399 -434 424 -439Q431 -439 437 -436Q430 -427 416 -424Q403 -421 390 -417V-401Q390 -396 389 -394Q411 -402 431 -411Q451 -419 479 -423Q482 -422 483 -418Q485 -413 488 -412Q491 -417 494 -423Q497 -429 505 -430Q502 -422 502 -416Q505 -395 516 -374Q524 -383 524 -404Q524 -411 523 -419Q523 -426 525 -436Q528 -432 528 -417Q528 -392 539 -390Q547 -399 562 -411Q582 -428 590 -437H588Q579 -435 569 -434Q563 -434 560 -436Q548 -441 531 -463Q515 -484 513 -495Q513 -502 512 -510Q513 -517 513 -525Q518 -537 522 -549V-552Q521 -562 520 -572Q522 -587 531 -597Q540 -607 547 -616H549Q552 -616 552 -612Q553 -607 554 -606H564Q572 -606 581 -609Q568 -629 556 -631V-644H551Q549 -644 519 -641L518 -643Q518 -647 539 -661Q530 -683 526 -687Q527 -690 536 -696Q542 -701 545 -706Q544 -711 540 -716Q534 -722 534 -726H536Q545 -723 553 -716Q565 -725 573 -725Q585 -724 594 -713Q603 -701 613 -688Q632 -663 632 -635Q632 -627 631 -622H632Q640 -625 648 -628H649Q651 -644 651 -652Q651 -690 631 -722Q628 -729 623 -729H621Q627 -735 633 -742Q631 -744 629 -744Q626 -743 623 -743Q621 -743 619 -745Q631 -754 645 -767Q658 -780 673 -788Q685 -794 703 -794Q712 -794 716 -791Q722 -785 728 -773Q743 -756 754 -742V-738Q754 -726 747 -707Q740 -688 740 -678Q740 -671 741 -667Q756 -670 765 -686Q770 -695 779 -721Q790 -742 794 -762Q794 -776 774 -776Q807 -803 837 -813Q840 -811 846 -811H848Q852 -811 854 -810Q861 -802 870 -795Q878 -793 886 -791Q904 -779 904 -740Q904 -706 890 -690Q875 -677 857 -676Q839 -676 830 -660H832Q848 -661 863 -663Q856 -651 856 -644Q856 -638 861 -634Q888 -639 914 -644Q920 -644 923 -643Q908 -636 890 -631Q873 -626 868 -609Q870 -608 873 -608Q883 -611 893 -614Q896 -614 898 -612Q889 -606 879 -600Q870 -595 868 -581Q870 -579 873 -579Q879 -580 885 -582Q888 -582 889 -578Q855 -558 854 -526Q843 -517 807 -513Q781 -510 771 -506Q777 -494 796 -479Q819 -461 824 -446Q807 -455 793 -469Q775 -485 767 -485L763 -484Q765 -465 780 -451Q794 -436 809 -424Q822 -411 836 -398Q850 -384 868 -379Q872 -381 876 -383H878Q877 -392 864 -403Q851 -414 851 -427Q857 -424 870 -415Q883 -405 892 -402Q900 -412 908 -448Q911 -440 911 -424Q911 -404 914 -399Q920 -400 920 -407Q920 -411 919 -415Q924 -455 929 -496Q933 -488 933 -473Q933 -455 932 -437Q932 -419 935 -412Q944 -427 944 -465V-490Q944 -525 951 -540Q952 -529 952 -505Q952 -474 951 -443Q951 -407 958 -382Q961 -386 962 -399Q963 -411 966 -415Q969 -410 969 -399V-379Q973 -336 977 -293Q977 -264 964 -250Q951 -247 937 -244H932Q906 -246 891 -264Q876 -282 858 -299Q860 -291 862 -284Q865 -277 874 -277H875Q865 -265 859 -249Q853 -232 833 -228Q821 -218 821 -197Q821 -189 822 -186Q830 -190 848 -192Q862 -194 868 -196Q882 -205 893 -210Q896 -210 899 -211Q912 -209 925 -207Q931 -207 934 -208Q930 -203 928 -196Q931 -188 941 -186Q951 -185 961 -184Q961 -178 954 -174Q947 -170 947 -165Q947 -162 948 -160L950 -157Q954 -158 957 -159H958Q955 -151 955 -144Q955 -137 960 -127Q959 -123 954 -113Q948 -102 948 -92V-90Q936 -88 928 -88Q894 -90 859 -92Q836 -92 821 -87Q818 -78 818 -67Q819 -50 819 -33Q819 -23 818 -18Q811 -22 809 -40Q807 -57 802 -61Q793 -60 790 -42Q788 -31 787 -7Q787 8 786 22Q786 35 788 47Q796 63 800 63H801Q808 63 809 55Q811 48 811 38Q809 17 821 12Q825 24 825 37Q825 57 813 78Q811 81 791 110Z"/>
</svg>