<svg xmlns="http://www.w3.org/2000/svg" viewBox="0 -800 1024 1024">
	<path fill="#000000" d="M265 -183Q264 -198 256 -205Q244 -196 240 -185Q240 -180 243 -176Q254 -179 265 -183ZM299 -199H312Q320 -219 324 -235V-238Q322 -239 319 -239Q312 -239 306 -225Q301 -213 299 -199ZM253 -245V-264Q253 -274 251 -277Q246 -274 199 -255Q206 -239 214 -232Q233 -240 253 -245ZM354 -305Q349 -309 340 -309Q321 -305 300 -296Q303 -289 303 -267Q320 -270 336 -273Q344 -290 354 -305ZM945 -492Q943 -485 927 -474Q926 -476 926 -480Q928 -495 938 -496Q942 -496 945 -492ZM657 -18V-22Q656 -32 655 -43V-47Q632 -43 632 -29Q632 -24 635 -20Q640 -17 648 -17Q653 -17 657 -18ZM651 -126Q651 -151 636 -151Q622 -149 619 -133Q619 -125 625 -118Q637 -123 651 -126ZM715 -27H752Q769 -59 773 -78Q745 -73 721 -65Q718 -46 715 -27ZM816 -206Q738 -200 716 -184Q719 -181 734 -171Q729 -163 729 -150Q754 -158 771 -167Q774 -160 784 -160Q793 -159 804 -159Q812 -182 817 -202ZM610 85H609Q603 83 596 81Q593 81 591 84Q575 71 569 47Q568 43 561 -5Q552 -43 539 -81Q527 -122 516 -144Q501 -168 496 -188V-189Q496 -207 510 -231Q524 -254 538 -261Q540 -278 543 -281Q547 -280 549 -272Q550 -264 553 -263Q558 -263 558 -271V-275Q585 -255 623 -256Q601 -246 601 -234Q601 -228 610 -222Q671 -241 737 -258Q733 -267 720 -267Q706 -265 692 -263Q675 -259 657 -256Q654 -256 648 -258Q661 -270 700 -278Q743 -285 790 -293Q837 -301 873 -318Q830 -357 762 -398V-403Q757 -430 752 -464Q752 -476 758 -485Q726 -478 703 -452Q717 -448 731 -445Q736 -445 740 -449Q739 -446 739 -441Q744 -419 749 -395V-392Q745 -370 740 -350Q734 -347 732 -347Q725 -348 719 -354Q714 -361 707 -366Q685 -382 667 -382Q657 -382 651 -377Q609 -402 607 -459V-465Q608 -481 616 -489Q625 -498 636 -506Q654 -521 677 -552Q708 -595 710 -597Q728 -577 751 -563Q752 -556 759 -539Q768 -516 768 -503Q768 -497 767 -493Q781 -524 804 -550Q827 -576 830 -614Q830 -627 825 -645H835Q839 -645 842 -647Q844 -652 846 -658Q857 -663 870 -663Q889 -663 902 -646Q910 -636 921 -609Q935 -580 939 -557Q937 -546 935 -535Q935 -531 936 -529Q929 -523 911 -512Q888 -498 879 -488Q878 -490 878 -494Q878 -502 890 -513Q900 -522 900 -528Q900 -532 899 -534Q859 -518 835 -483Q838 -475 843 -468Q857 -469 864 -474Q866 -472 866 -470Q865 -464 864 -459V-457Q871 -450 883 -449Q895 -448 905 -444Q910 -447 913 -458Q916 -467 918 -470Q921 -467 921 -463Q919 -452 917 -442Q917 -439 918 -437Q920 -440 921 -444Q921 -449 926 -449Q924 -444 924 -432Q924 -410 934 -395Q925 -385 925 -363Q926 -346 926 -330V-326H927Q930 -326 937 -333Q945 -341 952 -342Q944 -325 936 -308L937 -306Q940 -308 942 -310L943 -309Q948 -283 967 -246Q965 -207 958 -186Q945 -178 926 -154Q914 -139 906 -132L905 -135Q910 -151 915 -168Q915 -176 905 -176Q896 -175 894 -166Q892 -157 890 -152Q888 -149 879 -143Q872 -139 868 -134Q857 -118 851 -96Q845 -74 838 -53Q822 -5 822 19Q822 31 824 37Q835 22 848 -20Q859 -55 868 -71Q873 -73 879 -84Q887 -98 899 -99Q879 -55 868 -6Q860 38 854 78Q847 118 816 137Q756 114 737 52Q724 48 705 48Q665 48 634 67Q620 79 610 85ZM460 -390Q456 -383 455 -381Q460 -373 465 -365V-358Q465 -346 473 -318Q480 -294 480 -279Q480 -268 477 -258Q440 -248 420 -217Q399 -186 378 -160Q372 -162 369 -166Q366 -170 363 -173Q356 -161 356 -147Q333 -140 308 -133Q283 -127 268 -110V-104Q268 -97 264 -92Q276 -100 275 -96L279 -95Q287 -95 293 -97Q322 -118 352 -123Q379 -137 423 -152Q466 -166 487 -173Q491 -164 483 -147Q477 -134 478 -130Q474 -128 470 -113Q470 -109 474 -107Q479 -104 479 -100H476Q473 -100 473 -97Q476 -89 479 -81Q455 -67 383 -35Q300 2 281 13Q284 -2 307 -20Q326 -35 344 -43Q356 -48 387 -59Q417 -70 424 -78Q372 -68 310 -37Q242 -3 218 31H219Q231 26 247 23Q255 23 260 27Q243 39 226 51Q209 63 201 84L164 76Q158 66 152 55Q124 52 106 33Q106 25 105 17Q105 -3 114 -7Q113 -12 113 -22Q114 -49 130 -64Q146 -78 162 -91Q167 -72 177 -68Q200 -73 223 -78Q216 -82 208 -86H199Q187 -90 170 -102Q151 -115 150 -123Q165 -116 191 -114Q187 -132 177 -139Q166 -147 156 -158Q147 -161 122 -189Q99 -214 81 -214Q75 -214 67 -211Q69 -200 77 -197Q86 -193 93 -189Q112 -177 120 -169Q132 -157 138 -138H121Q110 -161 99 -169Q86 -179 59 -179H54Q44 -212 30 -232L46 -268Q39 -282 31 -295Q23 -307 22 -327Q36 -310 51 -293Q34 -313 25 -342Q37 -342 44 -327Q49 -316 55 -313V-315Q55 -317 51 -322Q46 -329 46 -335V-337Q54 -333 65 -322Q73 -327 82 -327Q101 -324 120 -321H123Q133 -322 144 -328Q154 -335 164 -339Q178 -347 193 -350Q200 -350 205 -346Q202 -344 184 -338Q172 -334 172 -324Q180 -322 186 -322Q217 -322 245 -344Q242 -354 232 -355Q222 -356 214 -358L218 -367L216 -368Q212 -367 207 -366L203 -367Q215 -390 249 -429Q274 -458 285 -474Q249 -469 222 -447Q207 -435 180 -399Q159 -395 138 -391V-393Q140 -396 141 -400Q135 -406 129 -411Q123 -416 120 -424H116Q111 -424 106 -418Q102 -413 97 -413H96Q102 -427 113 -439Q105 -452 104 -453Q86 -446 68 -440Q82 -455 96 -471Q93 -472 86 -472Q73 -472 55 -458Q39 -446 31 -445Q57 -481 94 -514Q131 -548 149 -595Q150 -598 150 -608V-623Q172 -641 178 -648Q193 -664 197 -682Q210 -675 221 -672Q224 -672 226 -673Q251 -642 302 -631Q309 -607 311 -584Q311 -570 305 -562Q309 -561 312 -561Q323 -561 341 -571Q357 -580 365 -580Q376 -580 387 -568Q392 -571 400 -574Q398 -560 398 -556Q398 -547 404 -541H405Q408 -541 412 -545Q415 -548 417 -548L419 -547V-544Q419 -536 414 -533Q410 -530 407 -525Q416 -500 416 -483Q416 -471 411 -454Q403 -448 393 -443Q384 -438 378 -428Q369 -431 361 -431Q341 -430 328 -418Q314 -405 303 -393L306 -392Q312 -392 317 -393Q323 -393 324 -390Q321 -382 299 -376Q279 -371 279 -356V-355Q293 -356 317 -363Q349 -373 365 -373V-376Q365 -392 353 -392Q349 -391 345 -391Q347 -407 363 -408Q378 -410 386 -419Q409 -403 413 -400Q429 -390 443 -390Q452 -390 459 -393Q439 -443 449 -498Q455 -517 463 -523Q465 -521 465 -518Q462 -506 458 -495Q458 -491 459 -489Q469 -498 482 -525Q500 -561 519 -569Q512 -557 498 -529Q486 -505 486 -498Q486 -492 489 -488Q559 -600 580 -635Q578 -636 574 -636Q563 -636 550 -620Q541 -609 536 -608V-610Q536 -625 543 -633Q549 -641 555 -650Q547 -668 544 -690Q549 -686 553 -683Q550 -702 541 -715Q532 -728 523 -743Q529 -741 538 -736Q550 -729 560 -729H564L565 -731V-736Q610 -745 619 -745Q641 -745 652 -733Q655 -716 670 -685Q691 -641 691 -616V-609Q685 -584 675 -560Q640 -539 607 -516Q573 -493 553 -456Q565 -440 592 -415Q623 -386 635 -369V-363Q635 -354 640 -322Q633 -309 631 -291Q624 -274 603 -274Q595 -274 591 -275Q579 -296 563 -317Q546 -338 516 -340Q505 -340 498 -338Q485 -345 477 -357Q465 -378 460 -390Z"/>
</svg>