<svg xmlns="http://www.w3.org/2000/svg" viewBox="0 -800 1024 1024">
	<path fill="#000000" d="M217 -646H215V-650Q215 -664 226 -664H230Q227 -659 226 -653Q225 -647 217 -646ZM901 -206H904Q904 -200 900 -193Q896 -186 896 -181Q891 -184 891 -193Q891 -206 901 -206ZM840 -640V-641Q842 -656 856 -657L860 -656Q857 -642 840 -640ZM618 -348V-340Q592 -334 578 -320Q563 -306 548 -289Q506 -246 489 -205Q526 -241 563 -276Q601 -310 633 -351Q628 -353 622 -356L619 -355Q618 -354 618 -348ZM545 -163V-164Q536 -169 535 -176Q568 -177 589 -206Q595 -214 615 -260Q580 -234 550 -202Q531 -176 509 -153Q487 -130 473 -100Q521 -88 546 -88Q557 -88 562 -89Q555 -98 549 -128Q544 -155 538 -163Q541 -162 543 -162ZM957 -16V-12Q957 -4 964 19Q960 41 958 64Q955 87 945 103Q925 128 905 129Q882 124 854 109Q836 103 759 73Q745 69 732 65Q719 62 713 49L717 48Q724 50 731 52Q735 52 738 48Q716 17 671 12Q661 12 657 14V18Q658 27 664 31Q667 33 677 35Q696 39 696 49Q688 47 679 45Q676 45 674 46Q623 27 562 17Q501 7 451 -2Q454 -7 462 -7Q468 -7 476 -5Q527 -2 603 14Q617 17 630 20Q638 20 643 16Q633 1 610 -5Q587 -10 563 -14Q481 -33 392 -34Q386 -29 386 -25Q387 -20 394 -15Q402 -11 408 -8Q396 -7 384 -7Q339 -8 294 -9Q231 -9 199 2Q191 5 183 12Q170 23 163 23H162Q156 23 153 18Q151 13 146 8H138Q133 3 127 -2Q100 -17 85 -38H82Q75 -39 68 -40H65Q72 -46 83 -47Q85 -89 118 -101Q125 -105 132 -109H135Q143 -108 150 -107Q164 -112 177 -118H180Q193 -116 205 -115H208Q233 -116 280 -133Q275 -141 267 -143Q259 -146 251 -150Q235 -163 227 -183Q218 -204 209 -224H207Q199 -224 190 -209Q176 -209 166 -186Q156 -163 138 -163H135Q120 -167 97 -181Q77 -188 60 -192Q41 -197 36 -216Q36 -219 35 -223Q40 -244 44 -265Q38 -277 38 -289Q38 -305 49 -325Q56 -338 68 -355Q71 -354 72 -347Q73 -341 76 -340Q81 -340 85 -346Q88 -351 92 -351L91 -348Q91 -345 96 -343Q100 -341 101 -340Q114 -345 120 -345Q128 -345 132 -341Q127 -336 121 -333Q114 -330 112 -322Q120 -317 131 -317Q153 -319 176 -332Q198 -346 217 -354L216 -356Q217 -358 217 -361Q214 -363 207 -363Q201 -363 188 -357Q177 -352 170 -352Q167 -352 163 -354Q174 -368 214 -384Q241 -395 251 -403Q235 -405 208 -424Q176 -446 153 -446H147Q145 -457 143 -463Q127 -461 108 -448Q91 -436 79 -434Q84 -447 103 -460Q122 -473 127 -484Q123 -500 102 -500H98Q98 -503 104 -507Q108 -510 109 -514Q101 -535 97 -557V-563Q99 -569 101 -575Q100 -587 93 -595Q85 -602 77 -610L81 -611Q85 -611 94 -606Q105 -600 109 -600Q115 -600 119 -609Q116 -616 116 -628H117Q127 -625 132 -615Q143 -616 146 -625Q149 -634 151 -643Q155 -629 159 -616Q165 -614 184 -609Q191 -612 199 -624Q208 -638 215 -640Q213 -625 211 -610V-604Q215 -593 229 -583Q242 -566 255 -549Q280 -521 290 -504Q307 -475 307 -445Q307 -433 304 -420Q292 -417 286 -407Q295 -402 305 -402Q313 -402 318 -404L319 -400Q319 -396 318 -392Q318 -387 321 -386Q328 -389 335 -392H338Q337 -388 337 -381Q337 -363 351 -355Q351 -347 357 -330Q362 -315 362 -306V-302Q356 -278 335 -264Q313 -250 310 -228V-223Q312 -214 321 -209Q330 -204 339 -197Q368 -173 374 -127Q374 -117 371 -110Q373 -107 381 -107H396Q402 -107 405 -106Q410 -130 414 -154Q413 -168 394 -198Q373 -231 372 -250Q382 -241 396 -214Q417 -175 437 -167Q447 -170 460 -181Q474 -193 482 -197Q470 -203 461 -203Q460 -212 454 -217Q449 -221 443 -227Q444 -229 444 -233Q444 -239 436 -249Q429 -257 428 -262L432 -263Q435 -263 442 -256Q441 -265 423 -274Q408 -281 405 -286H407Q414 -286 426 -281Q440 -275 447 -275H451Q457 -276 468 -284Q478 -292 486 -292Q498 -310 530 -339Q557 -363 569 -379Q567 -387 559 -389Q534 -373 516 -351Q506 -334 496 -318Q481 -298 465 -299H464Q450 -299 437 -313Q426 -325 421 -343Q419 -343 416 -344Q409 -342 402 -341L401 -343Q404 -351 416 -352H419Q417 -357 411 -357Q401 -354 390 -352Q377 -350 363 -349Q371 -359 385 -363Q398 -368 411 -374Q419 -379 425 -385Q432 -390 444 -391H448V-389Q448 -386 443 -382Q437 -377 437 -372V-370Q442 -367 445 -367Q461 -370 473 -377L474 -378L471 -380Q480 -385 487 -397Q493 -410 500 -421H498Q488 -420 481 -411Q469 -402 463 -401V-402Q463 -413 475 -421Q484 -427 486 -431Q467 -424 448 -417Q430 -410 422 -394Q420 -395 417 -395Q411 -392 405 -389Q369 -396 359 -412V-427Q339 -445 339 -470Q339 -487 350 -499Q346 -508 346 -518Q347 -539 364 -549Q380 -559 395 -566Q400 -551 419 -551Q448 -555 476 -560H479Q464 -581 442 -586Q432 -603 418 -618Q416 -619 411 -619H405Q398 -619 396 -621Q397 -626 402 -628Q407 -631 411 -634Q402 -646 402 -664Q402 -689 421 -693Q421 -701 415 -709Q409 -717 409 -723V-725Q422 -717 433 -707Q439 -710 439 -721Q446 -714 455 -714Q465 -714 470 -722Q484 -711 494 -711Q497 -711 503 -713Q519 -685 541 -659Q547 -663 552 -668Q556 -674 565 -675V-673Q565 -669 560 -663Q554 -655 553 -649V-647Q558 -628 562 -610Q561 -601 550 -580Q556 -578 559 -578Q579 -578 590 -595Q595 -606 600 -618Q625 -665 640 -675Q640 -664 629 -647Q615 -625 615 -608V-606Q632 -614 643 -634Q653 -654 664 -675Q671 -687 680 -701Q688 -714 689 -728Q689 -736 684 -744Q677 -743 673 -734Q669 -726 666 -724Q662 -727 662 -731Q665 -742 668 -753Q668 -756 666 -760Q660 -763 653 -763Q647 -763 646 -759V-760Q646 -764 652 -768Q659 -773 659 -778Q659 -782 658 -784Q675 -792 692 -801Q722 -813 726 -813H728Q735 -813 752 -802Q767 -792 777 -791Q779 -784 790 -770Q805 -750 806 -735Q805 -728 803 -721Q811 -704 814 -686Q814 -679 810 -672Q788 -661 766 -654Q744 -647 734 -621Q761 -626 788 -632L791 -630Q789 -625 787 -621Q798 -621 813 -630Q827 -638 833 -638H834Q834 -634 823 -629Q808 -621 807 -610Q811 -603 819 -603Q829 -604 839 -606Q837 -602 832 -597Q828 -592 827 -583Q827 -579 828 -577L831 -575Q835 -576 839 -577H840Q836 -574 836 -569Q836 -560 843 -555Q838 -545 838 -539Q838 -536 840 -532Q828 -524 828 -514Q816 -514 799 -507Q782 -500 772 -500Q769 -500 759 -502Q761 -509 774 -510Q788 -512 788 -518V-519Q788 -529 770 -529Q758 -528 745 -527Q685 -520 637 -505Q628 -503 620 -502Q611 -501 607 -494Q618 -491 629 -491Q670 -496 710 -501Q716 -501 726 -499Q715 -489 696 -486Q678 -484 658 -482Q627 -481 618 -458Q640 -442 666 -429Q692 -416 701 -385Q728 -420 748 -463Q745 -472 745 -474Q771 -488 795 -488Q803 -488 807 -487Q830 -477 840 -451Q847 -432 851 -392Q842 -381 842 -373Q768 -360 735 -314Q746 -303 764 -288Q781 -273 801 -272H807Q811 -273 816 -278Q823 -285 830 -285V-283Q828 -275 825 -267Q825 -263 827 -260Q845 -262 866 -278Q886 -293 899 -296Q884 -282 868 -270Q852 -258 843 -239Q849 -239 856 -246Q860 -250 863 -250H864Q864 -245 858 -239Q851 -232 851 -227V-224Q853 -216 854 -209Q852 -199 849 -189V-187Q853 -177 857 -167V-160Q854 -133 839 -110Q825 -106 813 -100Q807 -101 800 -102Q796 -102 794 -100Q783 -108 768 -113Q752 -119 748 -136Q731 -148 719 -163Q706 -178 693 -193Q688 -187 684 -170Q680 -151 674 -145Q671 -149 671 -155Q676 -171 680 -187Q680 -192 677 -197Q653 -169 646 -156Q632 -131 630 -100Q632 -99 634 -98Q640 -99 646 -107Q652 -116 660 -116H661Q661 -108 653 -96Q646 -85 645 -76Q664 -71 760 -58Q803 -48 839 -43Q845 -43 848 -44Q867 -51 869 -75Q872 -99 878 -121Q882 -105 884 -67Q886 -78 888 -112Q890 -149 895 -167Q900 -152 900 -124Q900 -102 899 -81Q899 -72 901 -58Q904 -67 904 -81V-103Q904 -116 905 -121Q911 -113 913 -85Q915 -61 920 -52H922L924 -55H926Q930 -41 939 -33Q948 -25 957 -16Z"/>
</svg>