<svg xmlns="http://www.w3.org/2000/svg" viewBox="0 -800 1024 1024">
	<path fill="#000000" d="M647 18Q645 19 640 19Q627 19 620 10Q624 6 629 6Q637 6 647 18ZM104 -607V-603Q92 -607 92 -627Q94 -629 102 -629Q103 -618 104 -607ZM320 -125V-128H317Q306 -128 298 -120Q300 -115 302 -111V-110Q310 -111 317 -113Q319 -119 320 -125ZM316 -60V-63Q317 -68 317 -74V-77Q315 -78 311 -78Q298 -77 296 -60ZM394 -137H397Q398 -144 408 -153Q415 -159 415 -162Q398 -161 389 -156Q378 -150 378 -136V-132Q391 -137 394 -137ZM394 -273V-287Q377 -287 366 -282Q354 -278 351 -260Q365 -260 374 -265Q384 -270 394 -273ZM397 -377V-387Q395 -386 390 -386Q371 -389 352 -393Q340 -393 332 -383Q335 -366 355 -366Q370 -366 397 -377ZM701 -189V-194Q674 -189 648 -181Q622 -173 620 -147V-146Q632 -148 658 -157Q684 -166 701 -167Q702 -169 702 -173Q702 -181 701 -189ZM701 -260Q705 -296 705 -297Q705 -307 702 -315Q673 -299 659 -287Q637 -268 634 -245Q642 -246 657 -254Q676 -265 686 -265Q693 -265 701 -260ZM521 -203H522Q523 -205 523 -211V-224Q523 -237 530 -237Q532 -221 534 -204Q536 -188 548 -180Q551 -184 554 -189Q552 -199 552 -204Q555 -233 558 -263Q558 -286 545 -296Q534 -294 534 -283Q534 -271 532 -261Q526 -263 525 -269Q525 -275 523 -281Q514 -296 511 -312V-314Q512 -321 520 -339Q533 -368 533 -379Q533 -384 532 -386Q530 -380 521 -380Q512 -381 502 -382Q492 -382 492 -372V-371Q496 -366 499 -362Q496 -344 493 -327Q493 -321 496 -315Q492 -307 483 -304Q474 -302 465 -297Q450 -286 450 -260Q450 -248 453 -236Q447 -233 445 -224Q443 -215 440 -206Q384 -204 363 -189Q365 -183 370 -182Q375 -181 378 -179Q396 -186 431 -194Q444 -200 457 -209Q470 -217 487 -218Q491 -218 501 -216Q512 -207 521 -203ZM806 -70V-63Q813 -30 819 2Q829 36 832 61Q832 65 831 68Q828 82 807 97Q786 111 782 124Q758 123 736 119Q727 116 712 98Q701 85 692 81Q693 77 693 71Q691 50 676 39Q661 28 650 15Q669 19 681 28Q678 18 658 7Q636 -5 632 -15Q653 -5 673 4Q648 -16 623 -36Q654 -27 684 -10Q690 -12 696 -15Q699 -53 701 -92Q652 -90 615 -71Q612 -44 612 15Q596 22 582 28Q567 33 560 49Q533 34 522 24Q504 7 499 -17Q497 -20 494 -22Q488 -26 487 -30Q504 -65 514 -122Q510 -123 502 -123Q479 -121 461 -107Q444 -93 425 -84Q406 -91 390 -91Q369 -91 364 -79Q371 -75 380 -75Q397 -77 413 -79Q454 -83 502 -98Q498 -94 490 -92Q481 -90 480 -81Q481 -78 481 -76L483 -74Q486 -75 488 -76H489Q479 -65 478 -50Q477 -35 474 -20Q474 -17 478 -15Q481 -14 481 -11V-10Q405 6 372 18Q371 20 371 24Q375 42 379 54V58Q378 63 370 68Q362 73 362 78Q362 82 363 84Q355 88 347 88Q330 88 320 70Q316 62 307 34Q287 35 259 44Q237 51 231 52V50Q231 35 257 30Q287 24 292 19L286 9Q261 14 223 20Q186 26 170 39Q165 44 165 54Q165 64 172 67H174Q184 63 193 59Q197 59 200 61Q202 65 203 68Q196 76 188 85Q180 94 170 95H169Q151 90 134 76Q125 71 113 64Q101 57 98 48Q97 46 97 40Q97 23 116 -15Q126 -34 133 -42Q143 -54 159 -60V-50Q173 -44 188 -44Q223 -47 258 -51Q248 -67 229 -73Q209 -79 194 -89Q167 -111 167 -132V-150Q167 -163 161 -171L164 -172Q166 -172 171 -167Q178 -159 184 -159H187L188 -161Q185 -166 181 -172V-174H183Q189 -174 197 -168Q209 -177 222 -177Q233 -177 255 -168Q277 -159 290 -159Q299 -159 311 -164Q300 -174 281 -180Q275 -202 270 -222Q270 -231 277 -239H275Q259 -238 248 -228Q237 -219 225 -211Q213 -216 193 -230Q164 -250 145 -254Q145 -263 144 -273V-278L155 -297Q160 -307 164 -318Q180 -337 200 -345H204Q219 -341 234 -338Q251 -341 268 -344L270 -346Q267 -349 264 -355V-356Q280 -386 310 -386Q318 -386 325 -383Q332 -392 338 -401Q332 -411 323 -422Q321 -432 321 -435Q321 -465 354 -465Q388 -463 405 -441Q412 -446 421 -446H424Q419 -438 416 -431V-428Q454 -425 458 -423Q463 -453 463 -478Q463 -490 461 -512Q437 -511 419 -501Q424 -496 429 -491H430Q435 -493 440 -495Q434 -486 431 -476Q431 -472 432 -470Q422 -459 402 -459Q375 -459 349 -477Q315 -469 286 -449Q287 -442 291 -434Q296 -425 296 -420V-419Q296 -407 278 -389Q262 -376 245 -374H241Q225 -374 195 -389Q169 -402 156 -402H150Q140 -401 134 -394Q128 -388 123 -384V-386Q123 -392 138 -407Q130 -412 121 -418Q112 -424 102 -425Q92 -424 87 -417Q82 -410 77 -405V-408Q81 -424 90 -437Q89 -441 83 -452Q76 -466 75 -476V-482Q78 -501 80 -520Q80 -530 75 -536Q99 -547 105 -551Q102 -564 98 -590Q106 -586 109 -578Q112 -570 117 -563Q141 -565 150 -570Q153 -599 155 -629Q162 -625 162 -613Q162 -604 161 -596Q164 -569 176 -546Q184 -548 186 -556Q188 -565 191 -572Q193 -546 208 -541Q225 -535 245 -530Q217 -526 209 -512Q213 -508 216 -504Q236 -510 299 -523Q372 -538 405 -551Q403 -556 399 -556Q393 -553 387 -551Q317 -539 298 -539Q300 -547 312 -551Q314 -552 331 -556Q413 -577 453 -584Q448 -593 443 -603Q382 -597 358 -590Q336 -579 316 -575H314Q309 -575 299 -580Q289 -585 283 -585V-589Q283 -603 264 -620Q249 -633 246 -642Q244 -655 242 -668Q239 -676 229 -683Q219 -690 216 -696Q224 -696 234 -690Q243 -685 248 -684Q238 -702 222 -713Q205 -723 191 -737Q200 -737 216 -725Q232 -713 244 -713Q249 -713 252 -714Q250 -723 234 -731Q236 -733 239 -733Q244 -732 248 -732Q256 -733 273 -741Q292 -750 305 -750H311Q323 -746 335 -743H346Q375 -745 403 -747Q400 -738 382 -734Q363 -730 360 -723Q368 -718 378 -718Q397 -721 422 -728Q464 -735 510 -739Q557 -743 596 -755Q590 -760 580 -760Q566 -758 552 -756Q505 -752 458 -749Q459 -757 467 -759Q474 -760 481 -760Q612 -791 677 -797H682Q693 -797 707 -792Q722 -787 729 -786H735Q759 -789 783 -792Q790 -792 793 -791Q789 -786 780 -784Q772 -783 764 -780Q749 -771 749 -763Q749 -758 754 -753Q764 -755 774 -758Q779 -758 782 -756Q773 -750 761 -745Q749 -740 748 -725V-720H749Q754 -722 758 -725Q760 -725 761 -722Q758 -715 749 -708Q741 -689 738 -666Q646 -641 546 -627Q547 -620 556 -613Q565 -605 566 -597Q592 -608 624 -612Q656 -616 689 -620Q748 -625 781 -659Q794 -664 812 -664H838Q860 -664 870 -671Q870 -665 874 -662Q878 -660 883 -657Q897 -669 923 -675Q916 -663 908 -653V-644Q908 -616 923 -596H944V-594Q944 -592 935 -579Q930 -568 923 -524Q884 -509 874 -489Q865 -494 852 -497Q850 -497 844 -495Q843 -498 843 -503Q844 -515 852 -519Q860 -523 867 -530Q860 -536 849 -536Q828 -536 798 -518Q771 -502 767 -499Q753 -488 748 -473H749Q758 -473 776 -483Q796 -494 805 -494Q812 -494 816 -492Q799 -480 781 -469Q764 -458 751 -443Q729 -446 707 -450Q701 -450 698 -449L697 -453Q698 -457 699 -461Q695 -465 691 -465Q682 -461 673 -458V-460Q676 -470 683 -477Q680 -479 675 -479Q666 -479 653 -461Q661 -483 676 -504Q690 -526 702 -548Q689 -551 669 -551Q644 -551 634 -542Q640 -538 645 -533Q650 -528 658 -527Q662 -527 665 -528Q657 -518 655 -503Q652 -488 647 -473H634Q627 -473 625 -470Q661 -447 661 -420Q661 -407 649 -392Q644 -391 639 -391Q618 -392 606 -402Q593 -412 581 -423H579Q577 -423 573 -419L572 -421Q575 -424 578 -428Q568 -450 567 -458Q591 -469 612 -470Q596 -493 581 -493Q579 -493 573 -491Q574 -493 574 -496Q570 -510 566 -524Q566 -529 570 -533H568Q555 -534 550 -524Q546 -516 546 -501Q547 -495 547 -490Q547 -471 541 -464Q533 -480 530 -500H529Q517 -500 517 -468Q517 -449 521 -436Q526 -420 533 -420L536 -422Q537 -438 546 -447Q550 -442 550 -434Q547 -415 543 -397Q543 -388 549 -384H550L552 -386V-393Q580 -378 608 -363Q614 -364 626 -371Q642 -380 650 -380Q652 -380 658 -378Q646 -371 633 -365Q620 -359 615 -344Q617 -338 622 -335Q639 -342 666 -363Q688 -380 701 -387Q701 -395 688 -395H680Q686 -414 702 -420Q718 -426 741 -434Q767 -446 792 -449Q797 -449 807 -447Q813 -446 823 -436Q832 -428 838 -426Q861 -427 883 -438Q866 -421 866 -407Q866 -400 870 -395Q873 -395 877 -399Q882 -404 888 -404Q888 -400 887 -397Q887 -389 894 -370Q902 -349 902 -334V-326Q896 -321 890 -316Q884 -311 883 -302V-299Q878 -300 869 -300Q822 -300 816 -224Q807 -224 807 -233Q808 -240 808 -247Q808 -256 801 -257Q784 -256 784 -228V-221Q764 -208 764 -161Q764 -147 766 -113V-99Q766 -76 765 -54Q765 -19 779 -2Q787 -21 787 -65Q787 -82 786 -99Q786 -134 791 -153Q801 -166 804 -183Q812 -171 812 -148Q809 -109 806 -70Z"/>
</svg>