<svg xmlns="http://www.w3.org/2000/svg" viewBox="0 -800 1024 1024">
	<path fill="#000000" d="M121 -644H117Q111 -644 111 -655V-665H116Q120 -665 121 -663ZM907 -360Q906 -359 906 -354Q902 -352 899 -352Q892 -353 884 -354Q884 -363 894 -363Q903 -363 907 -360ZM874 -197Q872 -207 872 -215Q872 -228 875 -234Q887 -231 887 -216Q887 -200 874 -197ZM223 -369H221Q215 -369 206 -364Q197 -359 192 -359H189Q172 -360 157 -372Q143 -384 130 -393H129Q124 -393 122 -388Q120 -383 117 -383Q117 -396 121 -403Q114 -421 96 -421Q89 -421 82 -417L81 -418Q82 -422 89 -426Q96 -431 100 -434Q100 -454 92 -467Q83 -482 66 -482Q61 -482 58 -481L57 -484Q61 -495 72 -501Q67 -509 67 -515Q67 -522 74 -538Q78 -548 79 -554Q79 -561 73 -568Q66 -576 65 -581Q74 -581 79 -576Q84 -572 90 -569Q120 -578 120 -617Q120 -622 118 -636H121Q130 -630 131 -621Q131 -613 135 -604Q140 -597 153 -592Q166 -587 170 -581Q186 -582 203 -602Q216 -617 226 -621Q212 -599 194 -575Q195 -552 214 -533Q234 -538 253 -544Q248 -538 237 -532Q226 -526 223 -519Q221 -511 221 -504Q221 -480 228 -459Q231 -449 236 -439Q241 -429 241 -415Q241 -411 240 -407Q233 -401 230 -390Q226 -380 223 -369ZM577 -591Q565 -584 551 -579Q536 -574 527 -563Q535 -559 542 -555Q560 -573 577 -591ZM530 -44V-76Q518 -78 512 -78Q481 -78 481 -54V-53Q475 -50 469 -48Q492 -48 530 -44ZM943 41V42Q943 53 927 70Q916 82 913 89Q889 95 863 98H855Q808 98 776 73V72Q776 68 782 68Q786 69 790 69Q795 69 796 66Q790 52 760 42Q733 33 707 33H703Q693 33 691 40Q697 51 726 56Q754 60 759 73Q694 58 623 47Q552 36 491 25Q502 22 515 22Q522 22 567 27Q607 35 643 40Q654 40 663 37Q661 33 653 28Q646 24 644 21Q577 12 497 0Q452 -7 411 -10Q404 -10 388 -8Q383 -7 378 -7Q358 -8 338 -10Q327 -10 318 -7Q308 -4 308 3Q308 13 326 15Q340 13 353 10Q362 9 382 9Q436 9 441 27Q393 19 325 19Q294 19 238 21Q205 22 183 31Q166 40 152 43H151Q143 43 129 36Q113 28 106 28Q103 28 97 30Q87 25 78 18Q70 6 68 -14Q69 -29 79 -39Q89 -48 99 -56Q121 -58 135 -58Q158 -57 181 -57Q258 -57 274 -89Q260 -101 235 -116Q223 -127 214 -138Q204 -148 187 -149H185Q178 -148 165 -143Q150 -137 148 -132Q146 -156 120 -174Q99 -188 96 -201H93Q87 -202 80 -203H78Q60 -218 60 -249Q60 -281 79 -302Q83 -302 86 -298Q89 -294 91 -294Q112 -304 133 -314Q143 -319 151 -325Q160 -331 170 -332H174Q172 -323 165 -319Q159 -314 151 -310Q132 -305 130 -289V-288H133Q156 -288 187 -301Q220 -315 220 -328V-329Q219 -337 209 -337Q201 -336 193 -336Q188 -336 186 -337Q189 -352 204 -358Q219 -363 234 -372Q240 -377 244 -383Q248 -388 254 -389H257Q251 -373 251 -364Q251 -342 274 -341Q284 -318 289 -311Q299 -297 317 -296Q317 -293 316 -290Q320 -270 327 -251Q310 -237 310 -210Q310 -190 320 -176Q337 -156 356 -136Q375 -116 377 -90V-89Q377 -75 362 -56Q407 -53 408 -53H416Q414 -57 403 -63Q394 -68 391 -74Q393 -82 393 -84Q392 -95 387 -100Q381 -105 379 -111Q378 -113 378 -118Q378 -143 400 -158Q410 -161 420 -164Q432 -172 441 -183Q451 -194 468 -197Q466 -190 463 -183Q469 -180 477 -180Q494 -181 511 -183H516Q508 -194 500 -211Q491 -228 477 -237Q479 -254 491 -261Q504 -267 516 -274Q509 -285 485 -291Q478 -304 475 -318Q475 -326 484 -329Q481 -335 478 -342Q478 -344 481 -347H479Q476 -347 471 -339Q468 -334 465 -332Q465 -335 464 -338Q464 -354 477 -374Q485 -384 495 -392Q505 -400 515 -409Q523 -418 530 -428Q537 -437 549 -438Q532 -412 514 -390Q523 -385 536 -384Q541 -396 545 -409Q549 -423 562 -428Q579 -426 595 -413Q597 -411 602 -401Q607 -391 612 -391Q614 -391 621 -396Q608 -409 578 -431Q557 -447 546 -456Q520 -443 493 -409Q493 -408 448 -347Q443 -340 436 -331Q430 -322 429 -311Q429 -305 432 -299Q436 -301 442 -311Q448 -320 456 -321Q455 -314 450 -300Q444 -284 444 -272Q439 -264 419 -264H415Q400 -264 394 -261Q392 -257 390 -247Q388 -235 385 -231Q382 -237 382 -242Q384 -254 386 -267V-272Q384 -283 370 -294Q358 -304 355 -311Q355 -328 352 -333Q350 -336 341 -339Q332 -341 330 -346V-347Q330 -352 335 -355Q339 -357 339 -360Q333 -380 317 -392Q301 -405 290 -417H292Q305 -417 318 -405Q329 -395 336 -393Q330 -403 302 -422Q292 -428 280 -433Q269 -438 263 -447Q293 -442 315 -432Q323 -428 333 -421Q348 -410 355 -409H359Q379 -410 396 -423Q413 -437 427 -447Q460 -470 491 -494Q486 -504 474 -512Q458 -504 449 -490Q440 -474 422 -469H415Q394 -470 383 -482Q371 -494 355 -503Q353 -515 343 -536Q331 -560 331 -571Q331 -583 341 -594Q355 -599 368 -625Q382 -652 398 -656Q401 -650 403 -645Q414 -650 439 -674Q460 -694 478 -695Q455 -671 444 -667Q444 -664 438 -659Q434 -656 434 -653L435 -651Q420 -649 419 -636Q419 -629 427 -626Q461 -629 485 -665Q496 -666 500 -677Q503 -688 505 -695Q504 -704 496 -704Q493 -704 487 -702V-706Q488 -714 494 -718Q500 -722 506 -726Q520 -741 527 -747Q541 -759 556 -762V-761Q556 -756 553 -753Q549 -748 549 -745Q554 -739 560 -739Q564 -739 570 -742Q564 -731 560 -711Q560 -707 562 -701Q579 -707 647 -736Q649 -737 649 -743Q649 -748 650 -749Q659 -751 671 -758Q687 -767 694 -767Q701 -767 710 -761Q722 -753 730 -736Q734 -726 736 -714Q738 -703 748 -699Q755 -700 762 -702L765 -701L768 -699Q766 -695 764 -692V-690Q779 -695 797 -698H802Q800 -694 788 -688Q770 -678 770 -671V-670Q770 -662 775 -662L779 -663Q764 -619 742 -599Q726 -601 720 -601Q701 -601 689 -588V-589Q689 -601 701 -608Q712 -614 728 -614Q735 -614 739 -613Q740 -615 740 -618Q740 -625 731 -632Q726 -632 721 -633Q696 -633 676 -617Q665 -609 645 -584Q634 -573 623 -563Q611 -553 610 -539V-535Q622 -538 629 -545Q637 -553 643 -561Q653 -581 678 -585Q671 -574 654 -557Q632 -536 626 -522Q645 -509 660 -500Q670 -495 679 -490Q689 -486 692 -478Q690 -476 687 -476Q674 -480 661 -484Q658 -484 654 -482Q661 -463 686 -448Q693 -444 733 -426Q745 -419 758 -411Q770 -404 787 -403Q795 -403 799 -404V-405Q798 -421 783 -425Q767 -430 753 -435Q742 -442 731 -449Q726 -452 721 -455Q715 -458 715 -465V-467Q754 -453 787 -435Q820 -418 871 -413Q907 -410 910 -410H914Q929 -410 943 -411Q963 -411 968 -401Q900 -397 841 -387Q863 -381 891 -381H930Q918 -376 888 -373Q854 -369 844 -366Q846 -362 855 -362H865Q873 -362 877 -359Q863 -354 848 -353Q834 -352 829 -338Q828 -336 828 -331Q830 -318 831 -306Q831 -300 830 -297Q828 -293 823 -289Q815 -283 815 -279L816 -275Q793 -275 784 -270Q764 -281 737 -307Q708 -335 691 -344Q685 -343 685 -332Q644 -317 603 -302Q602 -293 600 -285Q637 -298 677 -308Q676 -304 671 -299Q665 -293 665 -287V-285L668 -284Q675 -285 681 -287H684Q683 -284 683 -276Q683 -273 689 -222Q652 -202 606 -192Q614 -190 618 -190Q638 -193 657 -197H686Q691 -198 704 -205Q721 -214 732 -214Q741 -214 748 -209Q752 -210 758 -216Q764 -222 771 -222V-220Q770 -212 765 -208Q778 -179 789 -143Q799 -138 808 -134V-133Q808 -129 802 -129Q799 -129 795 -130Q793 -129 790 -129Q785 -127 782 -113Q780 -102 776 -99Q751 -104 715 -104Q698 -104 623 -99Q632 -113 668 -113Q689 -112 709 -112Q733 -112 746 -119Q745 -130 719 -132Q699 -134 688 -134Q623 -134 606 -113Q608 -103 608 -97Q607 -81 606 -65Q606 -48 613 -41Q643 -38 681 -38Q775 -38 816 -62Q817 -76 818 -91Q818 -107 826 -114Q829 -111 829 -105Q828 -96 827 -88Q827 -82 830 -78Q839 -104 841 -173Q843 -238 850 -263Q855 -262 855 -251Q855 -242 854 -233Q854 -188 853 -144Q853 -105 856 -74Q860 -88 862 -129Q864 -163 868 -180Q873 -177 873 -165Q873 -151 872 -137V-129Q873 -104 874 -77Q875 -49 888 -35Q892 -35 893 -43Q895 -50 898 -51Q902 -48 902 -44Q902 -38 901 -32V-29Q903 -19 910 -17Q917 -15 925 -11V-8Q925 2 935 19Q943 32 943 41Z"/>
</svg>