<svg xmlns="http://www.w3.org/2000/svg" viewBox="0 -800 1024 1024">
	<path fill="#000000" d="M397 -156Q385 -138 388 -106Q392 -74 391 -66Q375 -39 356 -27Q350 -23 344 -15Q338 -8 330 -5Q332 -10 345 -27Q340 -31 333 -26Q327 -21 322 -19Q320 -19 297 1Q300 6 304 6Q312 5 319 3H321V4Q321 10 317 13Q313 16 305 21Q294 32 282 42Q262 59 248 59Q232 59 228 40Q216 40 209 30Q202 20 202 6Q202 -29 211 -39Q208 -46 208 -55Q208 -83 239 -97Q236 -89 233 -81Q233 -78 234 -76Q236 -76 249 -83Q248 -100 246 -118V-130Q246 -164 241 -169Q235 -163 235 -142V-131Q235 -108 227 -102Q222 -125 219 -152H213Q185 -134 156 -117Q128 -105 112 -119Q106 -146 96 -157L102 -178Q99 -185 87 -197Q76 -208 72 -217Q87 -209 102 -202L103 -204Q102 -207 101 -211L100 -213Q106 -210 110 -210Q129 -212 173 -233Q202 -247 216 -251Q216 -273 210 -282Q198 -274 171 -266Q164 -262 147 -257Q144 -255 137 -259Q118 -282 89 -282Q89 -295 100 -302Q99 -305 99 -312Q99 -328 114 -340Q127 -350 146 -354Q171 -371 176 -373Q217 -386 263 -405Q295 -415 328 -431V-430Q329 -428 327 -428Q324 -428 324 -427L327 -426Q336 -429 345 -433H346Q338 -423 339 -413Q339 -408 343 -404Q347 -408 353 -409Q349 -405 349 -396Q350 -389 359 -374Q348 -357 351 -330Q347 -332 345 -331Q340 -328 338 -321Q326 -317 315 -315Q315 -320 322 -327Q327 -333 328 -339Q323 -343 316 -343Q301 -337 286 -323Q277 -319 269 -315Q261 -311 260 -303Q265 -301 267 -302Q274 -306 291 -319Q289 -296 287 -274Q323 -290 359 -306Q375 -316 391 -317Q384 -310 377 -299Q386 -301 395 -304Q389 -295 382 -286Q389 -254 379 -227Q366 -210 344 -203Q314 -198 290 -182Q281 -159 281 -100Q321 -124 367 -156Q379 -166 397 -174Q397 -171 387 -161Q378 -152 378 -151L379 -148L381 -147Q388 -154 397 -156ZM393 -644Q393 -635 379 -626L377 -629Q378 -642 387 -647Q390 -647 393 -644ZM651 -127Q651 -137 643 -137Q625 -134 599 -127Q574 -120 566 -102Q583 -104 609 -111Q618 -113 632 -114Q649 -116 651 -127ZM627 -205Q626 -208 625 -212V-214H622Q605 -213 603 -203Q618 -206 619 -206Q624 -206 627 -205ZM573 -441H575L574 -442Q569 -447 566 -454V-463Q558 -466 558 -477Q558 -482 561 -497Q546 -490 537 -474Q527 -459 518 -444Q521 -443 525 -443Q541 -445 557 -448Q567 -448 573 -441ZM709 -419Q703 -422 695 -422Q683 -422 682 -410Q681 -412 681 -415Q681 -418 678 -418Q643 -410 636 -407Q616 -399 605 -378Q609 -367 612 -356Q651 -364 689 -373Q699 -396 709 -419ZM753 -476Q751 -489 736 -508Q732 -513 711 -534V-535H710Q704 -518 701 -495V-493Q681 -481 654 -477Q626 -474 613 -450Q627 -452 662 -463Q709 -478 733 -478Q741 -478 753 -476ZM684 -571Q658 -597 645 -604Q624 -587 599 -551Q644 -560 684 -571ZM546 32L542 33H534Q530 28 530 24Q530 20 534 20Q542 20 546 32ZM824 -522Q821 -519 817 -517Q812 -522 807 -528Q809 -534 812 -534Q823 -532 824 -522ZM919 -545H921Q920 -534 919 -523Q914 -525 914 -537Q914 -545 919 -545ZM367 -477Q376 -475 381 -470Q383 -468 390 -472Q395 -475 397 -475Q402 -475 411 -488Q420 -501 427 -501H430Q429 -494 422 -485Q414 -475 414 -467V-464Q429 -470 435 -477Q442 -485 456 -500Q485 -524 513 -550H509Q498 -550 474 -528Q459 -510 442 -506Q437 -506 435 -507Q466 -541 501 -566Q525 -586 554 -628Q565 -644 601 -701Q601 -705 600 -709Q600 -715 603 -723Q598 -747 591 -761Q595 -762 605 -784Q632 -789 655 -789Q706 -789 713 -749Q716 -722 716 -717Q715 -708 708 -695Q699 -678 699 -671V-669Q700 -662 708 -655Q716 -649 722 -642Q734 -629 745 -617Q758 -601 770 -582Q783 -563 798 -550Q795 -547 791 -547Q782 -547 764 -567Q744 -589 733 -589Q745 -569 763 -553Q781 -537 798 -520Q822 -493 832 -484Q852 -464 868 -457Q865 -469 852 -481Q839 -493 836 -504Q843 -502 855 -491Q869 -478 877 -476Q879 -478 879 -486V-496Q879 -503 880 -505Q886 -493 889 -478Q891 -486 891 -491Q889 -520 886 -549Q886 -560 889 -571Q895 -529 900 -488Q899 -510 899 -567V-595Q904 -595 904 -587V-576Q904 -512 916 -457Q917 -460 917 -468Q917 -480 916 -493Q916 -507 920 -514Q923 -492 924 -468Q925 -443 935 -432Q936 -420 941 -402Q948 -379 948 -369Q948 -356 943 -347Q930 -324 906 -318Q902 -317 897 -317Q854 -319 828 -358Q823 -370 820 -381Q817 -393 809 -402Q807 -380 804 -359H782Q784 -367 789 -370Q794 -373 798 -378Q791 -410 781 -410H780Q770 -408 763 -391Q757 -374 749 -364Q746 -366 740 -366Q732 -366 721 -355Q701 -331 699 -307Q713 -317 728 -334Q743 -352 761 -356V-354Q758 -350 754 -341V-340Q733 -324 710 -275Q705 -277 699 -280H697Q696 -281 696 -285L697 -289Q690 -289 687 -292Q696 -268 696 -249Q691 -243 689 -232Q677 -232 674 -223Q698 -227 724 -238Q749 -249 770 -258L771 -256Q769 -251 767 -247Q773 -237 777 -234Q787 -239 789 -239Q792 -239 793 -234Q793 -230 789 -230Q784 -230 784 -229Q783 -221 782 -213Q782 -205 787 -205Q781 -200 781 -188V-185Q781 -178 780 -174Q775 -154 751 -154Q736 -155 720 -156Q707 -156 701 -151V-145Q701 -135 703 -130Q740 -138 776 -146Q781 -146 786 -147Q792 -147 792 -142Q792 -139 791 -137Q772 -132 753 -130Q733 -127 721 -112Q724 -105 731 -105Q740 -107 749 -109Q798 -116 803 -117Q834 -123 850 -136Q844 -145 828 -145H821Q821 -152 817 -152Q832 -161 850 -165Q853 -166 855 -173Q857 -180 860 -181Q866 -174 867 -162Q878 -163 889 -165Q885 -158 881 -152Q883 -146 885 -140Q892 -145 897 -145H900Q893 -139 893 -125Q893 -107 901 -93Q892 -72 882 -51Q840 -58 791 -58Q742 -58 711 -51Q706 0 696 42Q689 68 678 72V70Q678 58 684 34Q691 7 691 -6Q691 -12 689 -24Q678 -2 672 29Q661 52 650 75Q647 83 647 91Q647 99 650 103Q658 96 667 92Q670 92 673 95Q668 112 659 123Q649 135 640 148H639Q627 148 616 136Q603 122 596 120Q594 109 588 102Q582 96 577 89Q580 88 582 87Q579 74 566 57Q555 44 552 33Q562 43 575 52Q570 42 558 29Q545 14 542 8Q553 11 567 22Q582 34 590 36Q606 20 629 -28Q626 -30 618 -30Q601 -27 586 -20Q542 -8 520 2Q486 17 467 41V33Q467 23 479 14Q488 7 490 -1Q487 -6 483 -6Q474 -3 459 8Q449 13 441 16Q434 20 431 32Q435 45 450 45H454Q455 50 456 55Q452 57 444 57Q434 57 426 51Q418 45 418 33Q403 33 390 16Q377 -1 377 -22Q377 -39 387 -52Q390 -56 400 -60Q400 -76 401 -82Q405 -90 421 -95Q435 -100 441 -105Q447 -112 453 -120Q458 -129 467 -130L470 -129V-127Q470 -124 464 -117Q454 -106 454 -96Q455 -93 455 -91L457 -90Q463 -93 468 -97H469V-95Q469 -91 468 -87L469 -83Q500 -89 531 -96Q529 -104 519 -119Q507 -136 507 -150Q508 -155 508 -160Q511 -164 516 -165H518Q524 -195 542 -205V-202Q541 -198 540 -194V-193Q543 -191 549 -191Q555 -191 569 -197Q583 -203 591 -203H595Q588 -218 579 -218Q574 -218 572 -217L570 -218Q574 -221 577 -224Q574 -226 569 -226Q562 -224 555 -223H552Q566 -231 578 -244Q590 -257 603 -269Q629 -301 657 -302Q663 -302 677 -298Q676 -304 668 -306Q659 -308 658 -312Q642 -312 634 -308Q624 -303 618 -289H616Q613 -289 608 -286Q605 -280 601 -274Q593 -274 578 -287Q563 -300 563 -310Q564 -321 569 -321Q571 -321 578 -316Q587 -309 591 -309L594 -310Q570 -354 527 -381Q525 -377 525 -370Q525 -350 555 -338Q554 -334 552 -333Q549 -332 547 -330Q506 -355 496 -396Q501 -408 501 -416Q501 -422 499 -425Q473 -400 460 -377Q447 -353 426 -320Q404 -330 393 -343Q385 -353 369 -382H362V-392Q360 -406 357 -421Q357 -434 353 -446H354Q358 -446 364 -440Q368 -447 371 -455Q367 -465 362 -476Q360 -475 357 -475Q347 -473 344 -480Q359 -486 373 -494Q361 -506 338 -503Q314 -496 293 -487Q279 -482 279 -467Q285 -464 290 -465Q304 -469 318 -473Q323 -474 327 -473Q321 -465 304 -459Q292 -455 286 -450Q244 -433 203 -414L193 -409Q173 -399 148 -384Q122 -370 113 -351Q102 -344 88 -349Q68 -357 60 -363Q53 -370 50 -401V-422Q50 -439 48 -447Q48 -451 47 -455Q47 -483 71 -499Q73 -503 89 -536Q92 -545 96 -555Q100 -565 111 -566Q103 -536 95 -507Q99 -501 103 -496Q118 -525 133 -554Q153 -588 163 -611Q165 -617 165 -621Q165 -640 154 -642H152Q142 -642 135 -618Q129 -597 123 -593Q120 -595 120 -605Q120 -622 131 -622Q130 -624 130 -627Q131 -633 131 -639V-641L128 -642Q121 -639 113 -637H112Q115 -642 119 -655Q124 -670 130 -677Q141 -687 157 -695Q163 -700 171 -711Q179 -722 185 -726Q206 -726 214 -723Q228 -704 245 -680Q262 -656 263 -623Q263 -615 262 -610Q261 -604 254 -594Q244 -580 244 -568Q258 -572 274 -579Q283 -580 293 -589Q310 -603 327 -605L331 -606Q343 -607 371 -619Q361 -609 358 -594Q361 -591 366 -591Q379 -597 391 -603Q394 -603 396 -603Q394 -597 387 -592Q376 -584 377 -575L380 -573Q383 -576 391 -581Q394 -581 396 -579Q391 -570 386 -562Q393 -533 402 -514Q396 -500 393 -488Q393 -487 395 -483Q392 -485 387 -483Q377 -481 367 -477Z"/>
</svg>