<svg xmlns="http://www.w3.org/2000/svg" viewBox="0 -800 1024 1024">
	<path fill="#000000" d="M853 -752L834 -742Q832 -746 832 -748Q833 -760 846 -761H850Q852 -761 852 -757Q852 -753 853 -752ZM437 -150Q428 -151 428 -163Q428 -173 432 -177Q441 -174 441 -164Q441 -158 437 -150ZM450 5V6Q451 9 452 12Q500 18 503 18Q510 18 514 17Q485 10 450 5ZM453 23V32Q486 41 527 41Q515 27 497 26Q479 25 453 23ZM337 -277H339Q340 -292 340 -307Q340 -336 334 -349Q311 -345 291 -341Q271 -338 258 -325Q253 -319 251 -307Q250 -302 249 -287Q243 -272 239 -255Q239 -251 240 -249Q262 -253 282 -264Q302 -276 323 -284Q329 -279 337 -277ZM329 -105V-114Q331 -143 333 -172Q333 -181 332 -186Q306 -186 270 -167Q246 -154 229 -151Q217 -123 215 -85Q225 -83 230 -83Q247 -83 274 -93Q307 -105 325 -105ZM673 46V48Q671 57 646 88Q626 108 619 127Q590 114 557 109Q552 100 542 91Q533 82 532 70Q533 68 533 65Q510 49 456 42Q460 53 460 66Q460 88 446 98Q383 98 364 75Q357 66 352 56Q348 45 337 39V26Q337 20 339 14Q327 8 311 8Q281 10 253 17Q237 19 223 23Q209 26 208 37Q208 43 212 50Q243 38 279 34Q295 34 305 39Q296 43 269 49Q235 57 219 68Q208 81 196 84Q175 78 160 63Q139 44 125 18Q120 8 118 -2Q115 -12 107 -16V-18Q109 -24 110 -30Q109 -34 100 -34H90Q97 -55 111 -71Q116 -80 120 -90Q124 -100 133 -106Q134 -98 140 -90Q157 -103 161 -128Q165 -153 172 -175Q169 -181 167 -190Q164 -198 158 -202Q148 -189 145 -169Q142 -150 140 -129Q132 -137 132 -150Q135 -170 137 -190V-195Q138 -213 138 -232Q138 -246 136 -252Q122 -272 89 -290Q79 -295 68 -300Q47 -324 43 -364V-371Q43 -433 84 -454Q81 -448 81 -442Q81 -437 84 -434Q93 -437 102 -441V-444Q104 -470 121 -485Q137 -499 148 -517Q151 -523 153 -535Q156 -552 161 -560Q163 -551 163 -540Q163 -528 169 -523Q174 -529 175 -541Q178 -528 189 -525Q199 -522 209 -517Q214 -514 222 -500Q231 -484 241 -481Q269 -484 290 -497Q292 -496 295 -496Q305 -499 314 -502Q320 -502 323 -500Q327 -506 330 -506H332Q335 -554 335 -558Q335 -611 308 -622V-625Q308 -626 311 -635H302Q285 -635 278 -629Q301 -648 326 -664Q323 -670 320 -677Q345 -697 369 -722Q396 -731 419 -731Q436 -731 449 -727Q452 -711 470 -687Q493 -655 493 -632Q493 -620 491 -613Q490 -608 483 -600Q477 -594 475 -589Q471 -580 471 -569Q472 -558 472 -547Q484 -551 496 -556L498 -554Q496 -549 493 -544H497Q510 -545 520 -550Q529 -556 537 -559V-558Q537 -552 524 -543Q508 -532 508 -523Q511 -517 514 -511H515Q521 -515 526 -520L527 -519Q520 -507 520 -490Q520 -478 527 -478H530Q525 -458 523 -437Q523 -430 524 -427Q523 -423 518 -420Q513 -417 512 -415V-413Q512 -407 507 -400Q503 -394 503 -389V-387Q498 -388 489 -388Q469 -388 455 -380Q440 -371 440 -357Q440 -348 446 -338Q441 -327 441 -297V-290Q441 -251 429 -241Q428 -262 427 -293Q425 -325 416 -328Q411 -328 404 -316V-302Q404 -272 403 -242Q403 -223 404 -214V-198Q404 -169 403 -140Q403 -86 429 -73Q432 -79 432 -88Q431 -102 430 -116Q430 -126 435 -130Q439 -125 446 -100Q449 -83 456 -71Q453 -68 453 -67Q453 -64 456 -58Q446 -50 446 -34Q446 -22 449 -9Q491 4 508 4Q513 4 523 2Q542 -4 549 -26Q555 -49 557 -78Q556 -133 572 -166Q570 -170 567 -175V-178L568 -179H570L572 -181V-188Q571 -209 570 -231V-237Q573 -246 575 -255V-260Q575 -277 566 -314Q557 -351 557 -373V-381Q565 -398 586 -402Q594 -402 600 -394Q602 -394 604 -398Q607 -403 610 -403Q641 -370 644 -365Q661 -342 664 -313Q657 -295 657 -279Q657 -267 659 -261Q654 -254 654 -243Q654 -227 661 -222Q683 -234 723 -242Q733 -244 794 -253Q791 -265 768 -265Q763 -265 758 -266Q725 -263 699 -258Q700 -267 707 -270Q715 -272 721 -274Q762 -283 804 -287Q796 -305 763 -305Q747 -304 730 -304H720Q671 -309 671 -381Q671 -412 679 -444L696 -456Q700 -496 724 -562Q722 -563 718 -563Q694 -563 694 -526Q672 -514 664 -505Q648 -513 630 -520Q612 -526 608 -548Q604 -549 600 -551L597 -550Q585 -573 574 -598Q564 -623 548 -641L551 -643H558Q555 -660 547 -672Q539 -684 532 -698Q552 -689 560 -680Q596 -700 637 -724Q657 -731 676 -739Q715 -768 744 -768Q760 -768 771 -758Q776 -752 780 -745Q785 -738 795 -737Q798 -737 804 -739V-738Q802 -733 800 -729V-728Q815 -733 829 -739Q818 -728 818 -710Q818 -696 825 -668Q832 -639 832 -627V-625Q809 -588 786 -551Q762 -513 760 -459V-457Q765 -451 783 -446Q804 -440 810 -431H809L808 -430Q805 -427 800 -427Q793 -428 785 -429Q779 -429 776 -424Q786 -409 806 -397Q811 -394 843 -378Q887 -357 920 -316Q926 -320 926 -329Q926 -343 905 -367Q893 -378 872 -391Q863 -397 854 -403Q844 -409 843 -418Q850 -417 858 -417Q865 -416 868 -410H869Q874 -412 879 -415H882Q883 -414 883 -410V-406Q883 -402 885 -400Q893 -392 906 -388Q911 -379 923 -369Q936 -358 940 -352Q945 -345 949 -328Q954 -308 961 -300Q954 -247 943 -192Q929 -185 908 -185Q888 -185 867 -186H856Q735 -179 659 -150V-129Q659 -96 653 -28Q646 -29 646 -40Q646 -49 649 -55Q644 -66 644 -88V-103Q644 -130 637 -139Q624 -129 624 -101Q626 -74 628 -48V2Q628 42 643 56Q654 36 656 1Q671 21 673 46Z"/>
</svg>