<svg xmlns="http://www.w3.org/2000/svg" viewBox="0 -800 1024 1024">
	<path fill="#000000" d="M923 -256H921Q922 -261 923 -266Q924 -272 930 -273L934 -272Q932 -267 931 -262Q930 -256 923 -256ZM931 -464V-466Q931 -477 943 -477Q946 -477 950 -475Q949 -469 943 -467Q937 -465 931 -464ZM756 -128H755Q706 -110 657 -86L655 -88Q651 -86 647 -85Q656 -53 675 -31Q691 -38 718 -40Q725 -59 748 -91Q763 -112 770 -125Q763 -126 756 -128ZM310 -128V-136Q273 -130 268 -91Q276 -95 283 -102Q290 -108 302 -109H306Q310 -116 310 -128ZM326 -215Q325 -228 318 -236Q310 -230 299 -222Q287 -215 285 -202Q306 -208 326 -215ZM105 -365Q105 -361 100 -346Q94 -349 94 -359Q94 -370 102 -370H104Q105 -368 105 -365ZM384 -17V-7Q392 19 397 38V42Q397 77 359 99Q349 97 338 94H335Q318 86 309 59Q295 16 292 11Q287 4 282 0Q277 -5 276 -13H279Q285 -11 291 -7Q303 -16 303 -36V-40Q289 -37 283 -34Q274 -29 271 -20Q265 -20 259 -21Q256 -21 252 -19Q246 -11 246 2Q246 5 249 23Q242 31 240 44V46Q235 47 232 52Q230 56 227 62Q221 64 217 64Q208 64 193 53Q182 44 175 44Q166 16 157 -12H148L144 -13V-15Q144 -19 150 -19Q155 -19 156 -20Q156 -28 142 -28Q131 -28 130 -32H132Q157 -31 175 -54Q189 -74 197 -109Q213 -167 213 -189Q213 -204 209 -216Q224 -235 238 -235Q243 -235 245 -234Q270 -252 288 -277Q244 -273 199 -238Q202 -226 202 -216Q196 -158 148 -155Q129 -155 115 -168Q111 -168 110 -165Q108 -161 104 -161V-165Q104 -185 90 -185Q76 -184 70 -168Q71 -175 71 -182Q71 -197 61 -201Q61 -220 29 -238L31 -241H33Q36 -241 37 -243Q40 -253 42 -264Q44 -274 51 -280Q47 -293 42 -306Q48 -305 54 -298Q61 -289 68 -289V-291Q68 -307 55 -326Q45 -340 43 -348H45Q55 -348 69 -326Q79 -310 83 -310H84Q92 -310 93 -323Q94 -336 100 -339Q103 -333 104 -325Q105 -317 110 -313H113Q119 -315 125 -318Q127 -311 133 -301Q162 -305 196 -313Q188 -330 177 -342V-347Q177 -356 172 -368Q167 -380 167 -385Q167 -387 169 -393Q174 -391 181 -372Q188 -354 199 -352Q200 -355 200 -360Q200 -368 187 -402Q176 -433 170 -444Q158 -465 139 -471Q136 -466 136 -462Q136 -455 143 -444Q150 -433 151 -427Q138 -431 122 -452Q107 -472 100 -493Q95 -505 95 -522Q95 -529 97 -543Q102 -546 107 -558Q111 -568 115 -571Q105 -604 105 -611Q105 -620 110 -627V-622Q110 -600 126 -595L127 -597Q125 -602 123 -608Q123 -611 125 -612Q130 -611 136 -604Q141 -598 145 -597Q154 -607 168 -607Q196 -605 209 -588Q251 -615 289 -649Q303 -658 317 -667Q337 -688 357 -711Q377 -734 412 -736Q423 -736 436 -733Q440 -735 443 -740Q447 -747 451 -747Q450 -744 449 -741V-739Q451 -739 457 -746Q466 -756 474 -756Q465 -747 465 -721Q465 -699 476 -699H477Q479 -699 481 -703Q484 -709 489 -709V-704Q493 -669 508 -642Q502 -636 501 -622Q500 -609 499 -604Q499 -601 483 -583Q458 -551 445 -494Q442 -481 427 -382H453Q473 -382 483 -376Q488 -373 500 -360Q508 -333 512 -307V-301Q503 -286 458 -262Q417 -240 412 -223Q378 -199 377 -140Q378 -123 378 -107Q378 -84 375 -66Q368 -80 368 -102Q369 -124 370 -146Q370 -163 366 -174Q349 -165 349 -130Q350 -108 351 -86Q351 -71 350 -56Q350 -14 371 -6Q374 -9 374 -17V-29Q374 -37 375 -39Q384 -36 384 -22V-19Q410 -17 413 -17Q437 -17 462 -80Q484 -136 484 -167V-173Q485 -173 488 -179Q493 -179 514 -190Q523 -229 536 -271Q548 -313 549 -357Q549 -371 548 -378Q546 -392 527 -419Q506 -448 505 -466Q507 -472 508 -478V-481Q508 -490 507 -500Q507 -507 511 -511H512Q520 -515 527 -520L529 -517Q541 -524 555 -536Q561 -542 567 -547Q573 -553 585 -553Q585 -550 580 -538Q582 -535 583 -533Q597 -536 617 -556Q629 -568 675 -626V-627Q673 -630 669 -634Q649 -632 630 -605Q615 -583 604 -580Q603 -582 603 -585Q604 -592 609 -598Q615 -603 619 -610Q628 -625 634 -633Q643 -645 654 -651Q655 -657 655 -668Q655 -690 638 -694Q641 -702 654 -702Q660 -702 663 -703Q679 -710 694 -723Q709 -736 734 -738Q739 -738 749 -736Q762 -724 774 -711Q786 -698 802 -689V-685Q803 -672 815 -665Q826 -659 837 -654Q832 -642 828 -609Q824 -570 815 -557L814 -555Q814 -553 816 -551Q736 -538 673 -490Q663 -483 652 -474Q640 -466 639 -453Q639 -447 643 -440Q640 -435 640 -426Q640 -399 653 -393Q655 -392 659 -392H669Q677 -392 682 -387Q677 -383 670 -377Q664 -372 663 -364Q663 -360 666 -356Q689 -366 736 -380Q813 -403 844 -421Q836 -428 821 -428Q798 -428 767 -416Q745 -406 741 -406Q737 -406 732 -409Q745 -426 792 -436Q830 -444 841 -453H851Q856 -456 861 -470Q865 -480 869 -484Q871 -475 872 -466Q873 -457 879 -453Q908 -461 928 -463Q920 -457 912 -453Q903 -449 902 -437V-434H904Q909 -434 927 -437Q921 -429 912 -424Q915 -417 917 -408Q920 -399 928 -398Q923 -390 923 -375Q923 -356 928 -346Q926 -342 925 -338Q924 -332 918 -331H917L918 -328Q918 -325 914 -321Q910 -317 910 -313L911 -309Q907 -307 896 -307Q879 -307 876 -302Q873 -303 865 -303Q844 -303 816 -293Q761 -276 706 -264Q650 -253 616 -221Q607 -223 597 -226Q587 -208 580 -178L584 -177Q594 -179 603 -181Q606 -181 610 -179Q618 -183 623 -189Q654 -192 678 -200Q702 -207 730 -215Q763 -222 792 -229Q822 -237 839 -256Q854 -254 885 -242Q890 -247 898 -261Q909 -281 921 -286Q919 -277 911 -263Q900 -243 900 -232H901Q904 -232 907 -238Q912 -247 918 -247H920Q916 -238 912 -220Q917 -211 924 -205Q929 -207 933 -209Q934 -207 934 -201V-199Q934 -189 939 -187H940Q943 -187 945 -191Q947 -195 950 -195L953 -194Q952 -186 947 -181Q956 -144 973 -113Q961 -104 949 -78Q938 -56 933 -49Q931 -50 927 -50Q923 -50 913 -44Q905 -39 900 -39Q898 -39 894 -41Q898 -46 908 -61Q917 -75 918 -87Q918 -95 909 -98L905 -99Q893 -98 883 -85Q874 -72 866 -64H865Q861 -67 857 -70Q799 -32 777 59Q789 51 807 22Q829 -12 844 -22Q844 -15 847 -14Q863 -19 875 -28V-27Q874 -16 867 -9Q860 -1 853 5Q841 20 829 40Q818 57 806 74Q793 91 788 112H785Q778 112 771 121Q767 127 764 127Q760 127 752 119Q744 111 733 110Q729 110 727 111Q729 107 729 105Q726 96 723 86Q723 82 724 80Q717 73 709 73Q705 73 702 74L699 73Q701 70 702 67V65L698 64Q689 68 680 71H679Q676 84 672 97Q664 101 653 101Q633 98 613 95Q594 58 574 24Q553 -10 540 -51Q531 -35 521 -19Q517 -20 517 -25Q519 -33 521 -42Q521 -45 518 -47Q509 -28 499 1Q484 25 479 47Q479 55 485 59Q497 55 503 33Q509 9 518 5V11Q518 23 513 41Q508 59 508 70V73Q484 82 475 88Q459 98 453 112Q439 105 429 77Q418 47 402 40Q406 27 412 19Q411 13 413 6Q415 0 411 -4Q396 -9 384 -17ZM320 -349Q333 -353 337 -354Q340 -397 347 -432Q360 -496 362 -566Q362 -576 358 -583Q313 -555 290 -530Q258 -496 251 -453Q263 -461 269 -464Q280 -472 293 -476H296Q298 -474 298 -465Q302 -467 310 -475Q319 -485 329 -486V-485Q328 -481 322 -472Q315 -463 314 -452V-449Q319 -449 324 -454Q328 -459 332 -459Q326 -446 320 -433Q322 -411 321 -383Q321 -366 320 -349ZM282 -338Q282 -366 281 -371Q281 -384 277 -387Q273 -387 255 -378Q259 -358 259 -346Q259 -336 258 -331Q270 -334 282 -338Z"/>
</svg>