<svg xmlns="http://www.w3.org/2000/svg" viewBox="0 -800 1024 1024">
	<path fill="#000000" d="M901 -736V-738Q901 -752 916 -752Q921 -752 925 -749Q922 -742 901 -736ZM447 -717Q438 -709 426 -704Q425 -706 425 -710Q428 -725 439 -726Q446 -726 447 -717ZM220 -115Q205 -126 190 -137Q188 -134 188 -125Q188 -106 196 -100Q209 -107 220 -115ZM288 -389V-397Q288 -411 284 -439H281Q274 -439 261 -431Q269 -425 278 -406Q284 -394 288 -389ZM185 -155Q191 -167 198 -179Q204 -191 205 -207Q205 -211 204 -216Q192 -215 185 -204Q179 -194 179 -180Q179 -165 185 -155ZM632 -376L648 -385Q646 -396 643 -408Q643 -418 654 -419Q642 -421 635 -421Q620 -421 615 -412Q617 -379 632 -376ZM343 -245H347Q353 -270 359 -295Q356 -296 351 -296Q338 -296 330 -283Q323 -271 323 -253Q323 -248 325 -238Q332 -245 343 -245ZM774 -448Q771 -449 767 -449Q753 -446 744 -440Q736 -438 721 -437Q696 -436 686 -431Q698 -414 713 -404Q714 -420 739 -420Q749 -419 759 -419Q763 -439 774 -448ZM713 -88L709 -89Q671 -70 650 -49Q639 -37 627 -25Q615 -15 604 -7Q592 0 589 16Q625 0 657 -30Q664 -37 713 -88ZM318 -63V-64Q320 -71 321 -78Q321 -81 318 -82Q273 -74 260 -70Q230 -60 217 -41Q207 -46 204 -46Q197 -41 197 -34Q197 -29 199 -26H211Q218 -35 222 -37Q267 -53 318 -63ZM320 -134V-112Q320 -95 323 -88Q329 -124 335 -161Q311 -146 295 -146Q281 -146 273 -157Q265 -168 265 -186Q268 -215 270 -244V-251Q250 -208 250 -149V-133Q256 -133 265 -137Q276 -142 282 -142Q285 -141 287 -141Q299 -136 313 -132Q314 -132 320 -134ZM642 -106H640Q630 -105 626 -99Q621 -93 615 -88Q607 -96 589 -96Q582 -96 579 -95L578 -98Q578 -102 585 -108Q589 -111 589 -113L588 -115Q585 -116 580 -116Q566 -115 554 -108Q542 -101 534 -97Q549 -114 580 -130Q585 -133 635 -157Q630 -157 624 -158Q596 -158 582 -139Q577 -140 567 -141Q557 -142 552 -148V-150Q548 -174 543 -193Q543 -205 556 -210V-212Q556 -232 573 -241Q582 -246 609 -251Q613 -245 623 -244Q633 -244 642 -242V-241Q643 -238 644 -235Q619 -230 617 -210Q622 -207 627 -207Q639 -209 650 -211L686 -220Q735 -230 753 -242Q743 -247 733 -247Q723 -247 697 -241Q675 -236 663 -236H657Q668 -245 704 -252Q738 -258 750 -268Q708 -261 672 -251Q655 -255 649 -275Q647 -282 644 -310Q614 -304 591 -285Q585 -287 579 -290Q557 -274 550 -250Q537 -204 518 -161Q496 -109 493 -40Q501 -32 503 -31Q560 -55 645 -98Q644 -102 642 -106ZM901 57H899Q893 57 885 52Q877 48 870 47V41Q844 35 811 6Q773 31 758 78Q758 81 762 84Q766 87 767 90Q776 79 784 67Q793 54 812 53H815Q806 61 797 71Q788 81 787 95Q787 101 790 108H783Q750 108 734 121V118Q733 112 732 105Q720 99 709 95Q704 95 701 99Q691 89 689 72Q686 70 683 69Q680 67 680 63L681 59V58Q681 55 686 55Q690 55 691 54Q688 32 682 16Q691 17 709 23Q725 7 741 -17Q762 -46 764 -63Q707 -22 686 -1Q646 40 636 91Q623 94 612 94Q600 94 589 90Q576 79 576 55Q576 38 586 31Q584 25 577 20Q551 30 534 48Q516 67 499 84Q468 69 463 34Q458 40 456 61Q454 78 451 84Q433 88 414 92Q411 92 405 90Q394 85 390 75Q385 65 380 54Q376 55 370 55Q352 54 341 41Q330 28 318 16Q212 24 201 91Q171 84 160 79Q140 70 133 53Q126 51 118 49Q119 44 130 25Q117 -36 100 -92Q116 -86 124 -55Q133 -22 142 -13Q145 -19 145 -28Q141 -62 130 -95Q116 -145 108 -158Q104 -155 102 -144Q100 -132 96 -130H95Q91 -130 91 -136Q91 -141 88 -142Q78 -156 66 -158Q20 -230 20 -272Q20 -298 32 -317Q29 -328 24 -337Q19 -346 19 -359V-362Q25 -350 31 -338Q37 -325 49 -323Q47 -334 39 -354Q26 -386 25 -403Q46 -375 66 -347V-352Q63 -364 60 -377Q74 -365 84 -347H85Q99 -347 116 -332Q133 -317 146 -317H148Q169 -318 186 -331Q203 -343 220 -355Q219 -366 204 -403Q167 -396 162 -370Q108 -375 85 -403Q83 -411 83 -423V-430Q83 -438 82 -443Q81 -453 72 -468Q63 -483 63 -491V-493Q63 -500 70 -517Q75 -529 76 -538Q77 -546 77 -560Q77 -585 85 -596Q94 -609 125 -625Q147 -636 159 -646L161 -643Q157 -636 153 -623V-622Q157 -620 169 -620H180Q189 -620 193 -619Q192 -618 175 -610Q164 -605 164 -594V-590Q171 -585 179 -585Q203 -588 229 -598Q313 -620 368 -649Q364 -655 354 -655Q352 -655 334 -652Q319 -650 300 -644Q283 -638 267 -631Q251 -623 237 -622V-624Q238 -634 246 -636Q254 -639 263 -641Q284 -649 305 -658Q334 -667 362 -676Q401 -694 417 -696Q415 -686 412 -677Q412 -673 413 -671Q421 -672 434 -678Q449 -685 461 -685Q450 -679 440 -673Q431 -667 430 -652V-650H431Q439 -651 446 -653H447Q435 -648 434 -632Q434 -621 442 -616Q447 -616 451 -617H454L457 -616Q454 -611 450 -607Q454 -563 454 -532Q454 -513 453 -505Q385 -464 340 -454Q341 -450 345 -446Q349 -442 350 -440Q348 -428 348 -420Q348 -409 352 -404Q375 -434 414 -434Q424 -434 430 -433H432Q437 -435 442 -437L445 -436Q444 -433 444 -428Q444 -410 466 -383Q485 -360 487 -346V-340Q486 -326 480 -313Q474 -300 470 -287Q464 -281 454 -278Q453 -277 453 -269Q419 -252 415 -161Q398 -119 398 -60Q425 -86 441 -121Q456 -157 472 -194Q482 -220 488 -247Q501 -274 510 -304Q514 -335 529 -365Q514 -373 497 -379Q495 -389 483 -402Q471 -414 470 -422Q469 -425 469 -431Q470 -452 486 -467Q501 -482 512 -497Q527 -490 544 -490Q571 -493 597 -497Q604 -501 604 -510Q601 -526 597 -542Q597 -545 599 -551Q604 -549 609 -538Q615 -525 623 -524Q628 -529 628 -540Q626 -557 624 -574Q623 -597 621 -619Q618 -641 605 -650Q597 -643 597 -620Q597 -606 599 -590Q591 -592 590 -602Q589 -611 585 -617Q587 -625 587 -629Q587 -645 570 -673Q555 -698 555 -712V-715Q558 -748 592 -782Q611 -801 647 -801Q665 -801 675 -800Q703 -799 721 -774Q738 -751 738 -718Q738 -701 732 -683Q824 -720 848 -730L850 -729Q848 -724 846 -720L848 -717Q854 -718 862 -722Q877 -730 884 -730H886Q867 -714 867 -706Q867 -700 873 -696Q878 -697 886 -702L887 -699Q885 -689 882 -679V-676Q886 -669 889 -662Q885 -639 880 -616Q880 -613 882 -607Q857 -585 854 -583H850Q758 -583 691 -530V-521L687 -522Q684 -522 683 -518Q685 -516 688 -516Q700 -519 711 -523Q716 -523 718 -521Q726 -529 737 -529Q748 -529 764 -532Q770 -535 775 -538Q800 -542 824 -547Q839 -554 851 -563Q863 -572 877 -574Q902 -574 922 -556Q934 -569 959 -580V-579Q959 -575 953 -568Q941 -553 941 -545Q944 -542 946 -539Q954 -544 966 -547H968Q967 -545 963 -539Q958 -532 958 -528L959 -524H960Q962 -527 966 -530L968 -529Q967 -523 967 -510Q968 -491 968 -473Q968 -447 962 -433Q931 -430 912 -415V-419Q913 -429 923 -434Q933 -439 940 -445Q938 -450 934 -454H930Q886 -454 851 -426Q821 -400 818 -376Q828 -377 844 -390Q865 -407 879 -407Q883 -406 886 -406Q849 -378 815 -346Q807 -362 791 -364Q778 -364 775 -346Q748 -344 729 -341Q711 -338 701 -316Q732 -328 772 -332Q805 -332 812 -305Q806 -291 800 -278Q805 -277 814 -277Q830 -277 845 -278H853L855 -277Q853 -273 850 -269V-268Q858 -252 861 -232Q837 -208 812 -208Q802 -208 789 -213Q787 -211 784 -210L783 -206Q783 -203 787 -193Q787 -187 782 -183Q777 -179 777 -178Q788 -172 801 -167Q814 -163 821 -154Q831 -168 846 -179Q860 -190 861 -207Q861 -213 860 -217Q865 -218 873 -218Q907 -218 918 -191H935Q933 -188 933 -182Q933 -173 941 -167Q936 -157 936 -142Q937 -135 937 -128Q916 -125 915 -109Q908 -113 900 -113Q869 -109 856 -85Q863 -76 884 -69Q899 -64 904 -60Q906 -61 908 -64Q911 -69 915 -69H916Q919 -67 919 -65Q918 -61 917 -58L919 -55Q924 -58 932 -65Q939 -72 950 -73Q955 -73 959 -70Q949 -68 940 -61Q930 -53 930 -44Q930 -36 935 -31Q944 -33 953 -36Q955 -36 959 -34H958Q939 -34 939 -12Q940 -1 940 9Q940 21 938 26Q927 51 901 57Z"/>
</svg>