<svg xmlns="http://www.w3.org/2000/svg" viewBox="0 -800 1024 1024">
	<path fill="#000000" d="M100 -330Q77 -341 71 -349Q62 -361 59 -392V-413Q59 -430 57 -438Q57 -442 56 -446Q56 -475 82 -490Q85 -499 101 -527Q104 -536 108 -546Q113 -556 124 -557Q116 -527 107 -498Q112 -492 116 -487Q132 -516 148 -545Q169 -579 180 -602Q181 -607 181 -612Q181 -631 170 -633H168Q158 -633 151 -612Q143 -588 137 -584Q133 -587 133 -596Q133 -613 145 -613Q144 -615 144 -618Q145 -624 145 -630V-632L142 -633Q134 -630 126 -628H125Q128 -633 133 -647Q138 -661 144 -668Q164 -699 173 -706Q179 -711 188 -722Q197 -733 203 -737Q225 -737 234 -734Q250 -715 276 -696Q302 -676 305 -644Q305 -636 304 -631Q303 -624 288 -603Q265 -570 265 -559Q287 -564 318 -580Q343 -593 352 -596Q355 -608 355 -610Q361 -600 375 -600Q384 -600 391 -604Q399 -585 409 -585H413Q416 -563 434 -551Q427 -524 436 -492Q424 -474 424 -460Q416 -461 408 -462Q401 -462 401 -456Q398 -457 392 -457Q378 -457 353 -445Q327 -432 311 -431Q266 -414 223 -395L212 -390Q176 -372 164 -365Q134 -347 127 -332Q115 -325 100 -330ZM788 -76Q785 -66 781 -56Q772 -56 772 -63Q774 -76 784 -81Q786 -78 788 -76ZM680 -56H674Q637 -52 606 -37V-29Q606 -20 611 -15Q640 -20 668 -26Q673 -44 680 -56ZM688 -121H691Q686 -114 686 -107Q686 -100 692 -98Q692 -107 698 -124Q702 -138 703 -148Q645 -142 620 -121Q605 -109 604 -97Q620 -98 635 -106Q650 -114 664 -121Q668 -115 674 -115Q686 -121 688 -121ZM635 -410H633Q618 -410 618 -359Q619 -313 629 -301Q643 -302 656 -304Q662 -397 662 -404Q662 -454 648 -481Q629 -477 626 -470Q642 -439 654 -403Q650 -385 649 -364Q647 -343 639 -329Q637 -335 637 -344Q639 -369 641 -395Q641 -408 635 -410ZM425 -338V-360Q425 -385 419 -398Q428 -391 439 -388Q443 -392 443 -400Q461 -400 478 -401Q493 -401 499 -400Q505 -389 513 -383Q517 -385 524 -394Q529 -400 533 -403Q528 -391 528 -379Q532 -353 535 -328Q533 -321 531 -314Q531 -310 533 -308Q523 -291 505 -291Q488 -291 461 -310Q450 -318 425 -338ZM890 -377H886V-380Q886 -389 902 -392Q914 -394 915 -400Q912 -407 901 -412Q898 -412 895 -413Q876 -413 842 -394Q815 -378 803 -355H804Q815 -355 831 -365Q850 -377 863 -377H870Q862 -371 840 -359Q813 -344 801 -332Q790 -338 778 -340V-343Q778 -350 776 -352H774Q770 -351 766 -350L762 -351Q764 -359 766 -368Q763 -372 759 -376Q737 -370 717 -359Q728 -385 750 -406Q773 -428 792 -451Q812 -475 812 -489Q812 -496 808 -503H810Q816 -503 829 -510Q842 -517 851 -517Q857 -517 863 -514Q872 -520 881 -520Q897 -520 915 -500Q924 -503 941 -505Q941 -500 935 -496Q929 -492 929 -487L930 -486Q935 -488 940 -491L943 -489Q937 -480 937 -470Q941 -446 950 -428Q944 -377 890 -377ZM676 -215Q704 -220 732 -225Q760 -229 788 -227Q794 -224 799 -219Q803 -214 812 -214Q816 -214 819 -215Q817 -212 815 -210V-208L817 -207Q824 -211 835 -215Q830 -209 830 -200Q830 -193 836 -181Q840 -172 842 -164Q835 -148 835 -141V-136Q824 -130 813 -125Q805 -123 800 -107Q795 -92 789 -92H787V-94Q789 -105 790 -116Q790 -121 788 -124Q767 -118 759 -94Q751 -70 744 -44Q737 -25 731 -6Q724 12 723 29Q723 40 727 47Q735 38 746 6Q756 -23 767 -29Q761 -1 751 28Q740 57 739 94Q737 101 726 108Q717 114 717 124Q712 123 708 120Q703 116 700 116Q697 117 694 118Q671 97 664 87Q650 67 648 41Q644 40 638 40Q619 41 606 51Q593 61 581 69Q541 60 533 23Q529 22 524 20Q527 14 527 7Q523 -9 519 -26Q519 -30 522 -35Q528 -32 532 -16Q536 1 544 4Q550 -3 550 -18Q545 -67 524 -92Q515 -89 515 -79Q516 -71 516 -63V-60Q510 -61 507 -69Q503 -77 497 -86Q484 -96 477 -108V-116Q481 -133 484 -151H485Q489 -151 492 -157Q496 -163 499 -163L501 -162Q502 -173 513 -181Q527 -191 529 -195H541Q555 -195 560 -189Q618 -202 676 -215ZM414 -240Q417 -248 428 -259Q430 -265 431 -271Q439 -277 447 -284Q454 -291 466 -292L468 -289V-283L470 -280Q520 -281 584 -295Q577 -320 570 -346Q536 -382 536 -415Q536 -425 541 -437Q537 -437 526 -432Q510 -425 504 -426Q492 -429 481 -463Q480 -468 473 -475Q466 -482 466 -489V-492Q468 -505 470 -519Q469 -526 463 -538Q456 -551 455 -558Q463 -555 470 -553L472 -556Q472 -559 471 -562Q479 -562 480 -561Q487 -569 508 -576Q530 -582 542 -585Q535 -599 517 -608Q497 -617 492 -641Q489 -644 481 -644Q471 -642 460 -641Q461 -649 474 -652Q485 -655 488 -659Q484 -663 484 -667Q487 -675 489 -683Q488 -692 478 -702Q470 -710 467 -716Q480 -712 492 -708H495Q499 -709 502 -714Q505 -718 506 -719H517Q522 -720 528 -727Q534 -734 538 -734Q558 -719 580 -708Q591 -683 604 -661Q617 -639 618 -603Q624 -604 629 -605Q645 -615 655 -634Q664 -654 677 -678Q686 -692 696 -709Q706 -726 707 -739Q707 -755 683 -758Q695 -768 728 -785Q755 -799 765 -807H767Q792 -805 810 -786Q821 -789 832 -793H836Q831 -788 831 -778Q831 -767 838 -767Q841 -768 844 -769Q841 -764 841 -760Q845 -747 849 -735V-731Q846 -712 843 -694Q844 -690 844 -687Q831 -683 825 -672Q787 -664 769 -637Q781 -643 794 -647H796V-646Q795 -643 793 -641V-640Q808 -646 818 -652Q829 -658 842 -658Q834 -650 824 -644Q814 -638 810 -625L814 -623Q826 -628 836 -637Q836 -632 828 -623Q819 -612 819 -606Q819 -604 821 -598L824 -597Q828 -597 832 -598Q835 -598 837 -596Q827 -580 818 -564Q808 -547 804 -523Q777 -522 742 -509Q751 -489 759 -470Q755 -460 752 -448Q748 -437 738 -433Q730 -410 722 -387Q714 -364 713 -335Q713 -321 714 -314Q755 -316 792 -324Q829 -333 863 -340Q885 -341 906 -343L909 -342Q908 -338 906 -335V-334Q919 -337 932 -341Q929 -337 924 -334Q919 -331 918 -323Q919 -319 923 -319Q930 -320 936 -322Q931 -317 931 -313Q935 -302 938 -292V-290Q938 -272 927 -251Q915 -229 903 -229H902Q897 -231 892 -233H890Q887 -232 884 -232H883Q877 -235 871 -238H849Q826 -241 802 -245Q684 -245 578 -216Q581 -229 590 -230Q599 -232 609 -233Q661 -242 688 -254Q675 -261 661 -261Q656 -261 611 -253Q577 -249 543 -242Q508 -235 489 -211Q492 -205 497 -202Q511 -208 523 -208Q527 -208 535 -206Q518 -198 502 -190Q485 -183 472 -167Q457 -174 451 -175Q449 -183 432 -194Q418 -203 414 -210Q413 -213 411 -217Q410 -212 408 -208Q394 -190 371 -183Q361 -182 341 -175Q319 -168 314 -162Q301 -115 304 -81Q346 -104 395 -136Q414 -151 427 -154Q417 -142 407 -132L408 -129L411 -128Q417 -134 428 -137Q415 -119 418 -92Q422 -64 421 -56Q403 -28 384 -17Q377 -12 371 -4Q365 3 356 6Q361 -5 372 -16Q366 -20 359 -15Q353 -10 348 -8Q343 -7 340 -4Q332 4 321 12Q325 16 329 16Q337 15 344 13H347V14Q347 20 342 23Q338 26 330 31Q306 52 305 53Q279 69 269 69Q252 69 248 50Q223 50 219 21Q216 -5 229 -19Q226 -26 226 -35Q226 -62 259 -78Q256 -69 253 -61L254 -57Q262 -59 270 -63Q269 -80 267 -98V-111Q267 -144 261 -150Q255 -143 255 -123V-112Q255 -88 246 -82Q241 -106 238 -132H232Q215 -122 171 -98Q141 -85 124 -100Q120 -124 107 -138L114 -158Q110 -167 98 -178Q85 -190 81 -198Q108 -184 114 -183L115 -185Q114 -188 112 -192V-193Q118 -190 122 -191Q144 -193 187 -212Q223 -228 235 -231Q235 -255 228 -262Q216 -254 187 -247Q180 -243 162 -237Q155 -237 151 -239Q133 -262 100 -262Q100 -277 112 -282Q111 -286 111 -292Q111 -308 127 -320Q140 -330 160 -334Q180 -348 192 -353Q242 -368 285 -386Q296 -388 322 -399Q343 -408 354 -411V-410Q354 -409 353 -408Q350 -408 349 -407H353Q363 -410 372 -413H373Q364 -402 365 -394Q365 -389 370 -384Q376 -387 381 -390Q375 -386 377 -377Q377 -366 387 -354Q375 -338 378 -311Q375 -311 372 -312Q368 -311 365 -301Q356 -299 340 -295Q341 -300 347 -307Q354 -313 354 -319Q347 -324 341 -323Q325 -317 309 -304Q299 -299 291 -295Q283 -291 282 -284Q286 -281 289 -283Q294 -285 315 -300Q313 -277 310 -255Q322 -259 386 -287Q415 -296 421 -297Q408 -284 406 -280Q407 -279 425 -285Q419 -276 412 -267Q414 -251 414 -240Z"/>
</svg>