<svg xmlns="http://www.w3.org/2000/svg" viewBox="0 -800 1024 1024">
	<path fill="#000000" d="M936 -767V-765Q929 -755 915 -755Q917 -771 932 -771H935ZM813 -194V-196Q814 -214 827 -216Q830 -216 832 -215Q832 -206 828 -201Q823 -197 820 -191Q817 -192 813 -194ZM514 -288V-306H509Q481 -302 462 -296Q463 -285 475 -275Q495 -281 514 -288ZM511 -221Q486 -218 477 -214Q460 -207 460 -192Q461 -189 461 -186Q480 -192 510 -195Q510 -198 509 -202Q510 -211 511 -221ZM505 -118V-122Q494 -121 479 -118Q463 -116 455 -109V-107Q454 -98 452 -89Q452 -86 453 -84Q457 -83 464 -83Q484 -86 504 -89Q504 -92 503 -96Q504 -107 505 -118ZM339 -63H344Q352 -63 384 -68Q382 -86 373 -100Q378 -118 378 -138Q376 -200 349 -238Q348 -241 348 -247V-252Q344 -260 334 -260Q313 -257 304 -241Q302 -241 299 -242Q289 -242 289 -229Q296 -195 307 -171Q323 -110 339 -63ZM619 -103H622Q670 -193 714 -288Q710 -290 705 -289Q700 -289 699 -294Q702 -294 717 -299Q724 -319 730 -339Q658 -339 613 -324V-319Q616 -301 625 -288Q578 -233 576 -100Q579 -99 585 -99Q602 -101 619 -103ZM634 39H631Q620 39 607 48Q609 43 609 35Q609 24 596 13Q579 14 564 7Q566 2 579 0Q589 -1 593 -5Q590 -18 563 -20H492Q394 -16 378 9Q382 17 391 17Q394 17 416 12Q470 2 510 2Q531 2 540 4Q534 11 525 12Q516 13 507 13Q443 17 422 21Q371 31 355 55Q345 55 335 54Q316 54 310 60Q297 51 280 46Q262 12 242 12H240Q244 6 247 0Q245 -35 232 -59Q220 -83 209 -109Q219 -102 230 -83Q244 -58 258 -53Q260 -59 260 -62Q260 -71 246 -99Q232 -126 225 -136Q211 -156 194 -164Q188 -159 188 -156Q188 -152 194 -143Q201 -133 201 -127V-123Q190 -124 187 -131Q183 -138 178 -146Q170 -157 143 -168Q124 -176 114 -183Q104 -202 95 -224Q97 -233 99 -258Q102 -290 108 -306Q98 -320 95 -329Q99 -331 100 -331Q103 -331 108 -326Q113 -321 116 -321Q118 -322 120 -323V-326Q120 -336 105 -345Q89 -355 86 -363Q98 -363 117 -353Q138 -342 149 -342Q157 -342 169 -347Q174 -352 182 -356H186Q198 -353 210 -350Q218 -350 258 -360Q330 -376 401 -392Q401 -402 407 -425Q413 -448 413 -459Q413 -476 403 -485L402 -488Q402 -490 406 -494Q372 -492 304 -468Q281 -460 257 -454Q234 -447 213 -434Q197 -423 182 -410Q167 -397 145 -396H142Q130 -397 116 -403Q101 -410 96 -419Q91 -435 81 -453Q71 -465 63 -479Q55 -492 54 -514Q54 -520 56 -534Q64 -549 74 -564Q76 -576 77 -588Q84 -597 90 -609Q91 -612 91 -616Q91 -622 86 -631Q81 -640 81 -649H82Q90 -648 95 -638Q100 -626 110 -623Q109 -637 97 -658Q86 -677 84 -687Q95 -680 109 -660Q123 -640 132 -633Q125 -656 112 -678Q99 -701 89 -723Q121 -681 152 -639Q159 -639 171 -631Q187 -621 197 -620Q209 -624 243 -626Q284 -629 299 -636L303 -635Q312 -636 320 -638Q326 -638 328 -632Q322 -625 300 -622Q271 -618 268 -603Q270 -596 284 -596Q290 -596 295 -597Q364 -605 435 -624Q472 -631 509 -636Q546 -641 576 -657Q570 -664 558 -664Q540 -660 521 -657Q495 -654 468 -652Q440 -645 412 -643Q399 -643 393 -645Q412 -657 456 -660Q517 -667 581 -680Q604 -683 627 -687Q635 -687 640 -686Q629 -678 612 -675Q596 -673 593 -657Q602 -654 612 -654Q641 -657 667 -666Q691 -672 692 -672Q705 -676 708 -686Q704 -690 698 -690Q684 -688 669 -686Q664 -686 662 -687Q668 -698 678 -701Q681 -702 705 -704Q741 -715 781 -726Q832 -734 847 -744L849 -741Q846 -739 843 -735V-734Q851 -732 854 -732Q869 -733 882 -742Q895 -751 908 -756H909L911 -753V-751L912 -749Q903 -742 892 -735Q881 -728 880 -716V-715H883Q891 -715 905 -722Q922 -731 933 -731Q929 -726 907 -712Q890 -701 890 -688V-687Q894 -687 902 -693Q909 -698 914 -698Q917 -698 921 -695Q912 -689 902 -681Q893 -673 892 -659Q892 -654 893 -652Q896 -647 903 -647Q911 -647 917 -645Q910 -644 903 -638Q896 -631 896 -625Q896 -618 902 -614Q894 -607 888 -599Q890 -591 890 -588Q886 -557 855 -549Q852 -548 848 -548Q826 -550 803 -552H782Q676 -552 579 -524Q583 -500 594 -486Q592 -483 579 -455Q576 -446 573 -437Q570 -429 561 -426Q561 -429 560 -433Q565 -459 570 -478Q570 -485 564 -491Q548 -484 541 -464Q537 -454 532 -422Q534 -417 539 -416Q563 -422 610 -429Q627 -433 645 -438Q663 -443 680 -444Q700 -445 717 -451Q734 -458 754 -465Q761 -466 767 -467Q772 -469 781 -478Q789 -486 794 -488Q797 -472 825 -472Q830 -472 835 -473Q839 -472 841 -467Q843 -463 844 -462Q861 -465 872 -475Q883 -484 897 -491V-490Q897 -485 885 -473Q875 -461 871 -452Q877 -449 879 -444Q882 -439 885 -435Q891 -437 898 -444Q907 -453 912 -453H915Q915 -448 910 -443Q904 -437 904 -432Q904 -428 905 -426L907 -425Q908 -425 910 -429Q912 -433 915 -433L918 -432Q915 -417 915 -408Q915 -391 926 -389V-372Q933 -362 939 -351Q946 -341 946 -327Q946 -321 945 -318Q943 -310 934 -298Q925 -286 924 -281H921Q901 -281 884 -266Q886 -264 890 -263Q861 -244 837 -221Q836 -223 836 -228Q836 -237 844 -249Q851 -260 852 -264Q851 -266 849 -269Q823 -262 800 -230Q790 -216 766 -169Q756 -151 744 -131Q731 -111 730 -86Q730 -81 732 -71Q751 -91 764 -119Q785 -155 798 -161Q776 -117 769 -102Q753 -66 749 -33Q730 1 724 46Q715 46 699 54Q685 60 677 61Q662 57 649 53Q645 53 643 54Q641 46 634 39Z"/>
</svg>