<svg xmlns="http://www.w3.org/2000/svg" viewBox="0 -800 1024 1024">
	<path fill="#000000" d="M694 -250Q671 -237 648 -224Q657 -205 671 -200Q677 -213 684 -225Q692 -238 694 -250ZM477 -513Q471 -502 461 -494Q461 -486 464 -485L462 -483Q460 -484 458 -486V-474Q455 -475 450 -475Q442 -474 433 -473Q429 -473 427 -474V-475Q427 -481 435 -487Q440 -491 442 -494Q435 -500 418 -500Q397 -500 366 -490Q333 -479 330 -469Q332 -463 342 -463Q352 -464 362 -465Q365 -464 368 -464Q367 -460 365 -456V-454Q348 -451 331 -448Q328 -446 290 -434Q247 -420 240 -415L219 -407Q198 -398 173 -390Q147 -382 141 -359Q129 -351 114 -357Q92 -365 84 -371Q75 -378 72 -409V-430Q72 -447 70 -455Q70 -459 69 -463Q69 -492 95 -507Q98 -515 115 -544Q118 -553 123 -563Q127 -573 139 -574Q130 -544 121 -515Q126 -509 130 -504Q147 -533 163 -562Q183 -595 196 -619Q197 -624 198 -629Q198 -648 186 -650H184Q172 -650 165 -626Q159 -605 152 -601Q148 -604 148 -613Q148 -630 160 -630Q159 -632 159 -635Q160 -641 160 -647V-649L157 -650Q149 -647 141 -645H140Q143 -650 148 -664Q153 -678 159 -685Q171 -694 189 -703Q196 -708 205 -719Q214 -731 220 -734Q243 -734 252 -731Q267 -712 285 -688Q303 -664 305 -631Q305 -624 304 -618Q303 -612 295 -602Q284 -588 284 -576Q298 -579 338 -595Q377 -611 419 -617Q422 -614 423 -609Q424 -604 430 -602Q440 -605 449 -608L450 -605Q448 -600 442 -596Q450 -597 457 -602Q466 -609 473 -609Q468 -602 461 -596Q455 -589 454 -580Q454 -576 455 -573L457 -572Q463 -574 468 -577L471 -576Q469 -567 467 -558V-556Q469 -549 473 -542V-540Q473 -532 472 -525Q472 -517 477 -513ZM906 -157Q903 -140 894 -130Q890 -134 890 -141Q890 -158 901 -158Q904 -158 906 -157ZM496 -625Q494 -616 480 -614L479 -618Q481 -629 489 -630Q494 -630 496 -625ZM789 -396V-394Q789 -384 775 -384H771L770 -388Q772 -397 782 -398Q785 -398 789 -396ZM963 -696Q953 -694 948 -672Q945 -658 941 -653Q936 -665 935 -681Q934 -697 920 -701Q918 -695 918 -693Q923 -673 927 -653Q927 -646 923 -641Q905 -638 899 -633Q900 -625 914 -625Q922 -625 925 -626Q929 -631 933 -639Q937 -646 945 -647Q949 -647 953 -644V-642Q953 -628 946 -621Q939 -615 931 -609H924Q914 -609 898 -616Q884 -622 875 -622Q869 -622 866 -621Q860 -636 844 -636Q831 -636 822 -623L834 -644Q833 -652 824 -659Q816 -657 778 -642Q781 -653 798 -662Q812 -669 816 -676Q816 -683 809 -692Q805 -697 804 -702H792Q806 -705 806 -729Q806 -741 805 -753Q813 -749 829 -749Q861 -749 870 -758V-755Q870 -751 873 -748Q880 -750 883 -755Q886 -760 889 -764L891 -762Q890 -757 888 -753L889 -750Q893 -739 903 -739Q908 -739 913 -744Q932 -722 947 -695Q956 -698 958 -698Q959 -698 963 -696ZM453 -323Q448 -320 446 -311Q454 -301 454 -300Q446 -289 448 -276Q451 -253 457 -242Q418 -232 380 -225Q376 -222 343 -211Q344 -201 344 -187Q343 -167 342 -148Q343 -145 343 -143Q410 -175 476 -207Q468 -199 448 -183Q428 -168 426 -156Q426 -149 428 -146Q435 -147 444 -154Q453 -160 463 -157Q433 -141 433 -126Q434 -119 434 -112V-107Q432 -92 428 -84Q439 -91 454 -119Q471 -150 486 -157Q482 -147 477 -138Q472 -128 471 -116Q471 -113 473 -105Q499 -132 516 -168Q533 -205 550 -241Q563 -261 566 -283V-289Q550 -279 533 -243Q514 -202 502 -189V-193Q503 -212 515 -238Q527 -264 536 -282Q520 -275 512 -271Q505 -266 497 -273Q495 -275 479 -296Q463 -309 453 -323ZM450 -328Q447 -335 447 -346Q448 -351 448 -356Q449 -361 461 -396Q466 -412 472 -427Q477 -441 491 -446Q495 -446 499 -447Q513 -445 527 -444H529Q543 -445 570 -462Q600 -480 618 -481Q627 -520 633 -558Q621 -576 608 -591Q609 -593 609 -596Q605 -610 599 -621V-622Q600 -637 613 -650Q626 -663 639 -678Q648 -690 658 -704Q669 -718 688 -719H689Q702 -719 714 -708Q726 -697 728 -681H725Q718 -681 710 -688Q703 -694 699 -694Q696 -694 694 -693Q696 -680 716 -663Q738 -644 740 -627Q736 -608 732 -589Q732 -581 737 -579Q743 -579 754 -604V-610Q754 -621 745 -640Q737 -657 737 -666V-670Q751 -661 759 -642Q766 -622 774 -604Q767 -595 763 -569Q753 -558 742 -547Q731 -537 723 -522Q743 -528 863 -578Q862 -573 861 -568V-566Q890 -580 897 -585Q892 -579 884 -570Q875 -562 873 -549Q875 -547 878 -547Q886 -550 893 -553H894L895 -552Q892 -550 886 -541Q885 -539 885 -534Q885 -522 891 -516Q896 -519 901 -523L902 -522Q895 -499 895 -489Q895 -473 905 -464Q897 -444 897 -427V-421Q882 -420 870 -411Q866 -408 852 -393Q846 -396 840 -396Q822 -393 804 -390H801V-392Q801 -402 819 -408Q839 -414 842 -421Q838 -425 830 -425Q822 -425 810 -421Q736 -406 722 -402Q670 -387 652 -363H656Q675 -363 708 -376Q736 -387 753 -387Q758 -386 762 -386Q720 -358 666 -337Q651 -327 630 -304Q712 -327 779 -366H802Q813 -366 818 -365Q823 -369 830 -372H832Q831 -365 829 -359L830 -357Q839 -361 850 -375Q860 -388 868 -392Q868 -384 857 -371Q846 -358 846 -348H848Q851 -348 853 -352Q857 -358 860 -358H862Q855 -344 855 -329Q855 -318 860 -314Q862 -313 876 -309Q871 -297 872 -276Q832 -258 801 -233Q759 -194 737 -138Q787 -72 846 -50Q852 -53 852 -74Q852 -92 858 -94Q862 -65 866 -37Q875 -82 874 -140Q874 -165 880 -173Q884 -154 884 -129Q883 -92 882 -56Q882 -36 883 -27Q888 -37 888 -60Q888 -76 887 -92Q887 -106 888 -108Q888 -121 892 -121H893Q897 -120 897 -117Q896 -112 894 -108Q897 -79 900 -50Q902 -20 904 -16Q921 13 929 44Q921 125 871 125Q867 125 862 124Q857 123 847 117Q836 110 828 110H827Q820 96 801 77Q778 54 772 38Q783 38 795 54Q807 70 817 70H818Q811 47 776 6Q760 -13 751 -22Q735 -38 720 -42Q723 -28 738 -10Q753 7 756 17Q745 15 732 -2Q721 -16 715 -19V-20Q714 -23 712 -27Q702 -32 693 -49Q678 -31 661 16Q648 51 640 66Q638 74 638 77V81Q629 85 618 85Q592 85 577 53Q566 29 559 -13V-14Q561 -16 566 -18Q564 -31 558 -51Q549 -79 549 -91Q557 -88 563 -70Q569 -53 580 -50Q594 -63 629 -117Q622 -131 598 -151Q581 -165 574 -174Q563 -167 558 -153Q553 -139 548 -124Q524 -75 504 -15Q501 1 498 17Q495 33 487 43Q473 57 459 57Q438 53 416 39Q406 29 400 13V11Q403 5 406 -2V-6Q402 -27 388 -45Q388 -49 393 -51Q397 -53 397 -54Q396 -63 390 -67Q354 -53 342 -48Q325 -42 320 -39Q309 -32 309 -21Q312 -19 314 -17Q330 -23 345 -28Q360 -33 377 -29Q338 -12 317 1Q287 19 262 46Q259 47 255 47Q243 47 237 45Q231 43 223 36Q210 26 196 20Q180 14 179 -6V-8Q177 -40 183 -61V-68Q207 -117 233 -119Q220 -99 220 -91Q254 -108 270 -114Q276 -136 272 -179Q266 -175 260 -171V-170Q260 -148 256 -143Q252 -149 249 -165Q207 -140 178 -138Q153 -135 128 -148Q119 -187 111 -196L118 -216Q114 -223 101 -235Q88 -246 84 -255Q115 -241 118 -240V-242Q117 -245 116 -249L115 -251Q123 -248 126 -248Q133 -249 144 -259Q153 -268 158 -269H162Q167 -270 189 -263Q205 -262 217 -257Q215 -253 202 -251Q188 -249 186 -245Q191 -236 209 -238L220 -239Q236 -241 243 -243Q243 -252 243 -261Q229 -259 227 -260Q237 -265 243 -267Q244 -283 245 -300Q228 -291 210 -288Q203 -288 199 -290Q191 -298 178 -301Q168 -303 146 -303Q146 -316 158 -323Q157 -327 157 -333Q157 -350 173 -361Q187 -371 208 -375Q281 -402 356 -423Q371 -427 386 -432Q389 -432 391 -431Q382 -426 382 -417Q382 -413 384 -410H387Q392 -410 397 -411Q396 -408 394 -406V-405Q403 -405 404 -397Q406 -386 409 -383Q402 -376 402 -368Q403 -364 403 -361L400 -362Q398 -360 395 -359L394 -355Q395 -352 396 -349L395 -347H386Q373 -347 337 -330Q323 -324 285 -311Q291 -307 294 -307Q308 -305 331 -315Q333 -303 334 -296Q339 -297 343 -298Q368 -311 392 -313Q398 -324 409 -333Q411 -327 424 -325Q433 -324 435 -322Q447 -328 449 -328Z"/>
</svg>