<svg xmlns="http://www.w3.org/2000/svg" viewBox="0 -800 1024 1024">
	<path fill="#000000" d="M572 -191Q569 -187 558 -182Q544 -176 542 -170Q543 -167 546 -167Q550 -166 550 -165Q568 -165 595 -174Q616 -181 632 -182Q620 -174 606 -168Q591 -162 585 -151H587Q590 -151 596 -154Q605 -159 614 -158H619Q617 -156 610 -150Q599 -142 598 -135Q596 -133 598 -129L601 -128Q606 -129 610 -130Q612 -129 614 -128Q609 -121 593 -112Q573 -100 571 -91Q505 -77 432 -72Q416 -71 384 -60Q358 -51 344 -50Q352 -61 381 -70Q403 -77 411 -82Q408 -91 392 -91Q384 -90 375 -90Q313 -77 259 -53Q256 -47 256 -39V-35Q259 -33 263 -33Q290 -39 316 -45V-44Q314 -35 293 -30Q270 -25 260 -21Q241 -9 240 15Q233 21 227 30Q207 32 198 32Q168 32 150 19Q142 9 133 -2Q128 -7 107 -18Q91 -26 89 -42Q89 -45 88 -49Q89 -66 98 -76Q107 -86 117 -96Q131 -117 144 -139Q173 -143 215 -163Q249 -179 263 -183Q258 -179 244 -168Q231 -157 229 -147Q229 -140 241 -137H259Q264 -138 490 -173Q527 -184 572 -191ZM414 -643Q403 -630 379 -626Q369 -624 365 -627V-628Q364 -638 390 -642Q409 -644 414 -643ZM708 -351Q757 -362 777 -362Q793 -362 813 -357Q835 -373 861 -389Q848 -372 837 -354Q837 -344 848 -341Q854 -341 866 -347L889 -359L871 -345Q864 -340 860 -332Q878 -307 881 -287Q882 -281 889 -271Q896 -261 896 -258Q891 -226 850 -191Q806 -155 783 -128Q772 -130 772 -137Q772 -144 783 -152Q790 -157 816 -194Q843 -232 843 -240Q843 -245 828 -248Q825 -248 821 -249Q805 -249 795 -244Q771 -229 751 -183Q731 -138 717 -107Q702 -79 690 -53Q678 -28 677 3Q677 14 679 19Q699 10 711 -6Q723 -23 731 -43Q744 -80 772 -101Q776 -100 777 -93Q778 -88 780 -86Q737 -33 701 83Q692 84 674 97H664Q617 95 599 77Q581 59 553 48V45Q553 33 537 28V27Q537 24 540 24Q544 23 544 20V19Q535 9 494 3Q465 -1 455 -6Q474 -6 493 -7Q506 -7 518 -5Q471 -16 421 -24Q428 -28 443 -28Q478 -25 512 -23H518Q473 -33 423 -38Q401 -38 394 -48Q487 -39 510 -39H527Q578 -42 601 -64Q614 -76 633 -116Q653 -180 676 -242Q670 -245 665 -245Q645 -240 624 -236Q532 -225 524 -218Q510 -212 492 -211Q473 -210 450 -207Q439 -205 423 -198Q412 -193 404 -191Q392 -181 371 -178Q350 -176 325 -174Q301 -188 272 -195Q261 -213 254 -230Q247 -248 216 -254Q218 -256 231 -257Q243 -257 245 -260L246 -262Q241 -266 236 -271Q236 -272 240 -274Q244 -278 255 -278Q266 -278 275 -280Q286 -296 294 -309Q302 -322 313 -330Q316 -323 317 -315Q318 -307 330 -304Q337 -314 338 -316Q340 -318 340 -339Q340 -346 338 -357Q337 -367 329 -374Q324 -388 320 -397Q316 -406 322 -408Q344 -424 366 -424Q393 -435 413 -426H414Q434 -428 453 -430Q469 -433 476 -421Q478 -414 484 -408Q493 -398 495 -388Q488 -373 475 -365Q464 -358 458 -349L429 -309Q441 -307 443 -307Q453 -307 470 -311Q491 -316 501 -316H510Q532 -319 553 -322Q566 -353 566 -382Q581 -466 599 -503Q568 -498 497 -475Q440 -456 418 -451Q313 -429 240 -381Q202 -384 177 -414Q129 -438 118 -457Q107 -476 116 -526Q117 -531 113 -541Q110 -549 110 -555Q110 -561 112 -564Q123 -586 191 -621Q235 -643 300 -655V-654Q300 -649 276 -639Q248 -627 246 -621Q241 -616 244 -608Q274 -618 299 -625Q317 -627 335 -630Q350 -630 355 -626Q324 -622 293 -610Q256 -596 251 -581Q251 -576 256 -571L262 -568Q375 -606 509 -647Q500 -650 491 -650Q460 -647 428 -645Q447 -660 479 -666Q510 -672 545 -677Q569 -705 701 -724Q720 -727 728 -724Q731 -723 749 -710Q761 -717 764 -718L771 -719L773 -716Q772 -710 771 -704Q774 -701 775 -701Q788 -703 804 -716Q824 -732 843 -735Q837 -722 822 -712Q807 -701 811 -686L813 -681Q820 -683 827 -689Q836 -696 844 -698Q830 -674 836 -660Q839 -650 855 -644Q868 -614 867 -593Q842 -590 822 -575Q811 -579 810 -582Q808 -587 819 -599Q831 -612 828 -619Q828 -620 818 -627Q791 -618 785 -604Q779 -590 768 -574Q747 -550 728 -483Q707 -411 708 -351Z"/>
</svg>