<svg xmlns="http://www.w3.org/2000/svg" viewBox="0 -800 1024 1024">
	<path fill="#000000" d="M386 -593V-597Q386 -618 407 -618H410Q408 -603 386 -593ZM74 -453Q86 -472 100 -513Q113 -549 121 -565Q125 -564 125 -560Q123 -554 121 -548Q113 -522 113 -502Q113 -493 116 -486Q128 -495 133 -513Q139 -529 145 -545Q155 -566 157 -589Q157 -598 154 -607H151Q142 -607 137 -594Q130 -578 127 -576Q123 -580 123 -586Q125 -596 127 -607Q126 -617 115 -627Q107 -635 104 -641H102Q83 -640 70 -633Q58 -626 43 -621L42 -624Q42 -628 48 -632Q53 -635 58 -638Q76 -652 81 -653Q83 -657 88 -663Q94 -670 95 -675L92 -676Q85 -674 77 -673H74Q80 -677 117 -714Q143 -740 164 -749Q175 -754 189 -754Q205 -753 219 -746Q233 -738 249 -731Q266 -725 281 -714Q295 -672 295 -653Q295 -639 289 -627Q279 -613 265 -598Q247 -578 231 -560Q215 -543 213 -513H215Q217 -513 230 -521Q248 -528 262 -527Q273 -526 295 -544Q307 -551 315 -562Q322 -572 333 -579Q334 -572 348 -568Q362 -576 376 -584Q375 -580 369 -573Q365 -569 364 -564Q366 -561 368 -558Q383 -563 406 -577Q429 -590 441 -595Q427 -579 410 -565Q393 -552 391 -529V-527Q394 -527 404 -533Q416 -540 422 -540H425Q423 -533 414 -527Q402 -520 402 -512Q403 -511 413 -508Q396 -502 405 -487Q413 -471 407 -457Q389 -430 345 -420Q312 -418 294 -404Q253 -384 201 -373Q186 -372 165 -352Q141 -330 123 -330H121Q103 -331 91 -342Q78 -352 65 -363Q50 -390 55 -414Q58 -429 74 -453ZM768 -365Q765 -372 759 -374Q752 -376 746 -378Q745 -385 736 -391Q729 -396 727 -403H725Q712 -400 699 -398H698Q700 -385 710 -367Q716 -356 719 -348Q744 -356 768 -365ZM753 -605L751 -608Q708 -588 669 -559Q624 -526 599 -490Q600 -472 604 -453Q615 -460 628 -463V-469Q631 -466 633 -464Q646 -474 679 -486Q714 -499 729 -512Q733 -535 745 -575Q745 -578 742 -580Q739 -582 739 -585V-587Q745 -590 751 -594Q752 -599 753 -605ZM431 -126Q418 -108 421 -76Q425 -44 424 -36Q404 -9 381 3Q378 5 371 12Q360 23 353 25Q356 17 369 3Q363 -1 356 4Q350 9 345 11Q342 11 318 31Q321 36 326 36Q334 35 341 33H344V34Q344 40 339 43Q334 46 327 51Q314 62 301 72Q285 85 265 89Q248 89 244 70Q230 70 222 60Q215 51 215 36Q215 3 224 -9Q222 -14 222 -25Q222 -53 255 -67Q252 -59 248 -51Q248 -48 249 -46Q250 -46 266 -53Q265 -70 263 -88V-100Q263 -134 257 -139Q250 -133 250 -112V-101Q250 -78 242 -72Q238 -97 233 -122H227Q210 -112 165 -87Q136 -75 118 -89Q112 -115 101 -127L108 -148Q104 -156 92 -167Q78 -179 75 -187Q92 -179 108 -172L109 -174Q108 -177 106 -181V-183Q112 -180 116 -180Q136 -182 183 -203Q213 -216 230 -221Q230 -244 223 -252Q212 -244 182 -236Q174 -232 156 -227Q153 -225 146 -229Q125 -252 94 -252Q94 -266 105 -272Q104 -275 104 -282Q104 -298 120 -310Q133 -320 154 -324Q171 -333 187 -343Q223 -353 281 -375Q295 -377 322 -389Q344 -399 351 -401V-400Q352 -398 350 -398Q347 -398 346 -397L350 -396Q360 -399 369 -403H371Q361 -393 362 -383Q364 -377 367 -374Q371 -378 378 -379Q373 -373 374 -366Q375 -359 384 -344Q372 -326 375 -300Q371 -302 369 -301Q365 -301 362 -291Q348 -286 336 -285Q337 -290 344 -297Q350 -303 351 -309Q346 -313 338 -313Q332 -312 322 -305Q309 -296 305 -293Q296 -289 287 -285Q279 -281 278 -273Q284 -271 286 -272Q289 -274 311 -289Q309 -267 306 -244Q341 -259 376 -275Q396 -285 411 -286Q404 -277 396 -268Q406 -270 415 -273Q409 -264 402 -256Q409 -222 398 -196Q385 -179 361 -172Q325 -167 310 -152Q297 -105 301 -70Q343 -94 398 -126Q410 -136 430 -144Q430 -141 419 -131Q410 -123 410 -121L411 -118L414 -117Q421 -124 431 -126ZM733 -121Q729 -123 725 -125Q721 -127 721 -134Q732 -134 733 -121ZM947 -258Q947 -255 946 -252Q943 -240 931 -237Q920 -235 910 -230V-229Q910 -226 913 -226Q915 -226 916 -224Q908 -213 899 -203Q897 -200 896 -196Q895 -191 892 -191Q890 -193 890 -195Q893 -207 899 -218Q895 -221 890 -225Q873 -214 861 -177Q851 -147 848 -107Q846 -99 846 -92Q846 -84 849 -77Q860 -83 866 -122Q871 -154 878 -162V-156Q876 -142 873 -128V-116Q873 -108 872 -104Q864 -78 860 -49V-47Q848 -13 832 -11H830Q824 -12 818 -14H817Q814 -13 810 -5Q806 3 802 4V2Q803 -4 804 -11Q802 -17 794 -24Q786 -31 784 -36Q782 -35 779 -35H776Q769 -46 763 -61V-65Q763 -78 754 -89Q747 -97 746 -105Q737 -107 737 -115V-117Q747 -114 758 -108Q755 -121 739 -137Q721 -154 718 -168Q724 -166 736 -155Q750 -142 757 -139Q748 -155 715 -196Q720 -195 729 -187Q736 -181 739 -179Q752 -170 761 -168Q772 -168 777 -180Q790 -226 802 -272Q802 -274 807 -284Q805 -287 805 -293Q805 -294 808 -306Q781 -303 760 -292Q739 -281 718 -272Q715 -187 710 -128Q707 -147 704 -167Q694 -161 694 -135Q695 -120 695 -105Q695 -75 694 -45Q694 25 706 49Q712 38 712 10Q710 -24 708 -58Q707 -64 706 -71Q706 -80 711 -80Q719 -45 723 31Q723 40 722 49Q722 58 725 62Q725 68 724 73Q725 90 726 106Q726 113 725 116Q724 120 715 125Q706 130 703 135Q700 133 679 130Q654 117 641 88Q640 75 638 62Q633 38 621 16Q615 6 597 -20Q603 -20 613 -8Q623 3 630 5Q635 -1 637 -23Q639 -43 641 -48Q639 -74 639 -90Q640 -140 641 -191V-243Q610 -234 592 -216Q577 -201 575 -195V-194Q575 -177 587 -134Q591 -127 594 -120Q594 -108 596 -102Q599 -88 599 -76Q599 -66 598 -59Q592 -55 586 -49Q580 -43 579 -31V-29L578 -28Q577 -28 575 -31Q574 -35 571 -35H570Q568 -34 568 -27Q568 -20 570 -14L568 -13Q562 -13 560 -26H556Q547 -28 538 -30Q534 -30 531 -27Q524 -41 510 -44Q512 -56 512 -60Q512 -72 504 -92Q497 -109 496 -119Q504 -117 510 -99Q515 -81 523 -80Q524 -83 524 -86Q524 -97 512 -131Q490 -190 453 -193L452 -190Q453 -179 464 -169Q474 -160 475 -152Q469 -153 462 -155Q440 -177 432 -200Q423 -227 423 -252Q421 -263 419 -275Q425 -289 429 -302Q429 -311 422 -325Q414 -341 414 -349V-351Q420 -348 427 -332Q431 -322 435 -318L436 -321Q433 -334 429 -347Q434 -345 439 -336Q445 -325 452 -325V-326Q450 -331 447 -337V-340Q458 -334 468 -329H473Q490 -331 506 -334Q508 -334 514 -332Q523 -327 534 -313Q539 -308 552 -282Q593 -295 630 -312Q634 -317 634 -330Q633 -347 632 -364V-369Q621 -368 612 -351Q603 -335 595 -332Q591 -334 579 -343Q563 -356 553 -356H552Q547 -412 513 -474Q482 -483 464 -511Q444 -542 444 -587Q444 -597 445 -602Q449 -624 453 -647Q449 -657 449 -672Q449 -677 451 -683Q455 -675 457 -665Q460 -655 466 -651Q465 -662 464 -674Q474 -668 483 -660Q496 -665 505 -674H512Q528 -674 540 -668Q543 -663 552 -655Q562 -646 566 -638Q577 -641 582 -654H587L591 -653Q594 -658 597 -663H599Q602 -662 604 -662Q611 -673 623 -675H626Q632 -681 636 -687Q641 -693 649 -694Q657 -703 668 -707Q672 -707 675 -704Q659 -690 640 -679Q621 -668 608 -647Q613 -643 619 -643Q629 -644 640 -652Q650 -661 661 -668Q689 -683 721 -696Q752 -709 779 -733Q776 -736 774 -736Q764 -731 754 -727Q751 -727 748 -731Q754 -744 776 -754Q797 -764 802 -779H804L807 -778L809 -779Q817 -793 819 -794H821Q825 -793 828 -792Q830 -792 832 -797Q837 -791 844 -789Q847 -789 849 -791Q860 -782 870 -770Q879 -777 890 -782Q887 -773 883 -765Q887 -766 894 -774Q904 -785 908 -785Q910 -785 912 -783Q894 -765 894 -753Q894 -745 899 -739Q902 -739 903 -745Q905 -752 907 -752H909Q908 -747 908 -737Q908 -720 914 -713Q915 -715 916 -718Q917 -721 920 -721L922 -720Q919 -709 919 -696Q919 -686 920 -680Q926 -654 931 -629V-627Q928 -599 918 -578Q914 -578 909 -579Q888 -578 876 -563Q864 -548 849 -536V-539Q849 -547 857 -557Q866 -567 866 -576Q864 -580 864 -581Q818 -558 804 -469Q800 -457 800 -447Q800 -439 804 -435Q805 -437 819 -473Q822 -483 826 -493Q830 -503 838 -507Q839 -505 839 -502Q837 -487 830 -476Q804 -412 797 -380Q800 -379 803 -379Q809 -379 819 -389Q827 -397 832 -398Q834 -411 851 -415Q863 -418 867 -423Q874 -418 876 -414Q879 -415 882 -420Q885 -426 890 -426L891 -424Q889 -417 887 -411L888 -407Q893 -410 902 -423Q912 -438 918 -441Q914 -431 907 -419Q901 -408 900 -395Q900 -387 906 -378H907Q912 -378 915 -389Q918 -400 922 -400Q918 -382 918 -375Q918 -357 930 -332Q943 -304 945 -287Q946 -272 947 -258ZM934 -463Q931 -452 922 -447V-451Q922 -460 931 -469Q933 -466 934 -463ZM733 -713Q725 -710 716 -707H714V-716Q722 -721 729 -723Q732 -717 733 -713Z"/>
</svg>