<svg xmlns="http://www.w3.org/2000/svg" viewBox="0 -800 1024 1024">
	<path fill="#000000" d="M100 92Q98 98 95 104Q92 111 83 112Q82 110 82 107Q82 100 87 96Q92 92 100 92ZM220 -449V-448Q222 -450 224 -450Q226 -450 231 -443Q236 -436 239 -435Q239 -438 242 -438Q239 -454 230 -463Q225 -456 220 -449ZM289 -367V-355Q305 -362 310 -381Q315 -400 318 -416Q312 -412 307 -402Q299 -386 291 -384Q289 -379 289 -367ZM242 -337Q237 -351 226 -358Q216 -366 207 -375L203 -376L202 -375Q208 -347 213 -319Q237 -332 242 -337ZM364 -550Q310 -549 268 -498Q278 -494 279 -481Q281 -469 285 -459Q289 -468 295 -480Q301 -492 302 -504Q302 -510 296 -518Q314 -530 338 -536Q343 -530 349 -527Q358 -535 364 -550ZM410 0V2Q409 17 391 20Q374 23 358 28Q349 18 327 -7Q305 -32 300 -47Q300 -50 299 -53Q299 -66 309 -76Q313 -79 330 -92H331Q334 -92 336 -88Q338 -84 341 -83Q364 -83 373 -72Q394 -40 410 0ZM314 18V21Q304 30 293 41Q283 52 256 54Q250 54 247 53Q236 50 221 31Q204 10 204 -3Q204 -20 210 -30Q218 -43 231 -43H236Q239 -46 242 -63Q244 -77 253 -78Q251 -68 251 -61Q251 -48 257 -44Q259 -48 261 -53V-52Q261 -40 289 -14Q314 9 314 18ZM916 -142Q914 -131 911 -121V-120Q905 -124 905 -134Q906 -147 914 -149Q916 -146 916 -142ZM957 -558V-556Q956 -547 950 -548Q943 -548 935 -548L936 -550Q938 -560 950 -561Q953 -560 957 -558ZM921 -707Q916 -698 897 -698Q897 -710 911 -710Q917 -710 921 -707ZM771 -130Q800 -107 815 -94Q836 -75 848 -75Q857 -75 862 -83Q873 -100 875 -134Q880 -99 887 -67Q891 -78 891 -98Q887 -133 893 -156Q896 -140 897 -108Q899 -68 906 -40Q908 -45 908 -57Q907 -76 906 -95Q906 -106 908 -110Q914 -96 918 -64Q922 -35 927 -20Q934 -3 942 14Q950 31 951 47Q951 53 950 59V64Q950 90 930 110Q909 131 882 131Q868 131 857 126Q852 121 846 116Q828 104 823 99Q813 90 805 74Q802 69 793 59Q782 47 781 40Q795 41 809 64Q824 88 840 89Q810 19 722 -65Q721 -62 721 -56Q721 -43 739 -27Q757 -11 757 1V2Q744 -1 721 -32Q711 -46 701 -60Q687 -33 675 -17Q650 13 620 49Q590 85 538 120Q516 125 513 125H509Q499 115 490 102Q482 89 465 88Q462 89 459 89L458 85Q458 80 465 74Q471 69 472 65V60Q469 47 450 25Q430 3 424 -8Q426 -10 449 4Q467 14 469 14Q461 -13 441 -44Q431 -40 428 -37Q417 -46 404 -57Q392 -68 391 -85Q391 -94 395 -103Q408 -111 419 -120Q428 -112 445 -109Q449 -110 454 -117Q457 -122 461 -124Q461 -132 461 -140Q461 -157 455 -191H456Q469 -187 477 -180H479Q488 -181 497 -182H501Q516 -176 534 -174Q542 -174 551 -177Q551 -168 532 -164Q514 -160 514 -151V-148Q574 -156 637 -184Q634 -185 626 -185Q618 -185 595 -180Q593 -177 590 -175Q582 -169 571 -171Q561 -173 549 -181Q539 -187 532 -187Q530 -187 524 -185Q526 -190 527 -196Q519 -202 512 -207Q505 -212 502 -222V-228Q502 -244 514 -255Q525 -265 543 -266Q562 -255 580 -245Q586 -239 591 -233Q594 -233 597 -238Q600 -243 601 -243L603 -242L604 -240Q601 -230 598 -221V-218Q601 -213 603 -208Q603 -201 601 -191Q619 -197 680 -208Q689 -231 691 -238Q694 -250 698 -263Q702 -276 689 -280Q687 -280 684 -280Q682 -276 682 -273Q682 -257 681 -242Q679 -233 676 -230Q671 -235 672 -244Q673 -254 674 -263Q674 -284 667 -297Q659 -309 648 -326Q654 -335 670 -349Q688 -364 694 -377Q714 -393 750 -386L756 -384Q778 -377 789 -357Q800 -336 821 -327Q820 -324 819 -321Q818 -313 814 -312Q810 -311 808 -303L807 -300Q805 -281 797 -268Q795 -264 785 -259Q770 -251 766 -243Q763 -235 759 -223Q806 -232 852 -242Q856 -245 865 -264Q872 -279 884 -280Q877 -266 875 -251V-246H876Q883 -247 890 -249H893L895 -247Q898 -247 900 -243L901 -241Q907 -235 909 -235Q916 -237 922 -239H925Q920 -233 920 -219Q920 -200 928 -192Q922 -171 898 -162Q894 -161 852 -151Q828 -145 771 -130ZM751 -665Q796 -679 811 -684H812Q815 -684 814 -680Q814 -676 816 -675Q857 -689 892 -696Q889 -693 878 -689Q864 -684 861 -676Q864 -673 866 -670Q883 -676 902 -678Q891 -671 883 -661L887 -659Q892 -660 900 -666L901 -663Q899 -655 896 -648Q899 -644 902 -641Q909 -642 915 -644Q909 -633 899 -624Q891 -589 872 -576Q859 -569 839 -568Q819 -568 801 -566Q779 -563 732 -549Q733 -540 733 -508Q743 -510 745 -510Q799 -524 840 -532Q848 -547 866 -550Q884 -554 901 -557H902L903 -556Q901 -552 898 -549Q905 -538 911 -527Q915 -530 932 -544Q923 -526 922 -513V-511L928 -509Q934 -512 939 -515H941V-514Q941 -509 936 -504Q931 -499 930 -496Q926 -489 926 -479Q927 -453 928 -427Q919 -405 918 -403H913Q893 -404 883 -396Q872 -388 864 -376Q853 -357 830 -346Q834 -361 847 -380Q857 -395 861 -407Q842 -403 835 -385Q827 -368 813 -355Q811 -355 811 -359V-362L810 -365H808Q805 -364 801 -363L800 -367V-370Q802 -374 799 -377Q793 -376 786 -375Q788 -397 796 -407Q803 -418 809 -431Q776 -425 716 -399Q655 -372 603 -353Q612 -345 621 -337Q624 -342 630 -345H631Q631 -340 631 -336Q631 -330 638 -316Q645 -300 646 -288L647 -284Q640 -273 632 -262Q622 -259 614 -259Q601 -257 569 -268V-271Q569 -275 567 -275H566Q560 -272 553 -269Q553 -273 558 -278Q557 -286 548 -294Q541 -300 540 -303Q538 -306 538 -313V-315Q537 -318 537 -323Q484 -290 473 -274Q458 -278 443 -292Q443 -303 433 -322Q423 -340 424 -350Q424 -356 431 -367Q425 -378 427 -391Q427 -405 437 -418Q467 -459 513 -482Q512 -478 505 -471Q495 -460 493 -453H494Q497 -453 503 -459Q509 -465 513 -465Q505 -459 505 -453Q504 -449 509 -445Q513 -442 518 -441Q527 -441 532 -445V-443Q532 -437 519 -434Q505 -430 504 -423Q515 -424 556 -440Q593 -454 602 -456Q634 -461 662 -474Q655 -476 621 -469Q598 -465 592 -465Q589 -465 585 -466Q608 -475 661 -490V-525Q581 -497 563 -488Q550 -492 543 -502Q536 -512 528 -520Q521 -525 515 -531Q509 -536 509 -546Q509 -550 512 -556Q472 -520 472 -527Q472 -532 465 -533H464Q456 -533 450 -524Q444 -515 444 -505Q444 -501 445 -499Q418 -493 410 -466Q401 -439 395 -406Q384 -378 382 -343Q402 -292 353 -268Q352 -279 340 -288Q328 -297 315 -297Q301 -297 297 -285H301Q308 -285 324 -292V-290Q324 -286 323 -283L324 -281Q328 -277 331 -277Q338 -278 344 -280Q342 -273 340 -267Q341 -264 341 -262H342Q345 -262 348 -263L352 -262Q346 -260 344 -246Q342 -234 338 -229Q296 -222 296 -205Q397 -231 448 -272Q442 -251 442 -249Q442 -242 448 -238Q437 -214 437 -186Q437 -171 440 -155Q402 -135 322 -108Q263 -88 244 -80Q250 -97 272 -104Q294 -111 311 -116Q345 -131 378 -146Q376 -151 368 -151Q360 -151 356 -149Q297 -136 236 -110Q212 -99 187 -89Q172 -80 167 -63Q167 -57 173 -54Q180 -56 193 -63Q209 -72 219 -72H223Q216 -63 198 -47Q175 -26 167 -13Q171 -11 172 -11Q179 -13 186 -15L187 -12Q186 -4 184 4Q185 13 189 28Q196 51 196 61Q196 72 192 80Q187 96 153 96Q149 97 149 99L150 101Q144 96 135 94Q131 94 129 95Q123 90 119 79Q113 80 107 86V85Q110 75 113 65Q113 62 108 57Q98 57 82 65Q69 71 59 72Q62 68 85 51Q100 41 105 30Q105 23 91 23Q96 16 104 14Q115 12 116 1V0Q127 -3 134 -13Q121 -24 102 -39Q84 -54 82 -73Q82 -84 90 -95Q88 -99 86 -104V-110Q86 -148 113 -172Q137 -200 160 -205Q156 -199 149 -189Q142 -180 141 -171Q141 -163 156 -163H164Q217 -175 242 -193Q240 -192 235 -192Q222 -194 208 -196Q206 -196 198 -194Q190 -204 180 -211Q181 -216 185 -220Q191 -226 191 -231V-234Q200 -237 219 -247Q238 -257 251 -260V-269H249Q224 -266 210 -244Q195 -248 181 -272L178 -271Q176 -273 173 -275H172V-277Q172 -291 157 -307Q146 -318 143 -327Q157 -326 164 -318Q171 -310 181 -305Q182 -307 182 -312Q178 -333 158 -356Q153 -367 145 -382Q136 -397 125 -399H124Q116 -398 116 -391Q116 -387 124 -370Q131 -356 131 -349Q131 -346 129 -342Q61 -389 56 -455Q56 -472 55 -489Q55 -519 56 -534Q58 -567 70 -578V-584Q69 -596 68 -609Q68 -618 72 -622V-614Q72 -597 80 -590V-595Q78 -612 76 -629Q76 -639 80 -643Q82 -638 84 -623Q86 -606 91 -600Q93 -603 93 -609V-624Q96 -621 96 -616Q101 -610 111 -604Q122 -598 125 -594Q127 -595 131 -595Q146 -592 158 -587Q164 -589 167 -594L169 -595L173 -593H174Q293 -659 350 -680Q406 -702 428 -730Q436 -730 439 -723Q440 -722 443 -707Q448 -697 455 -686Q463 -676 464 -664Q469 -669 473 -674Q477 -679 484 -681Q479 -665 473 -650L476 -648Q480 -650 484 -653Q479 -642 475 -630L477 -629Q480 -631 483 -634L484 -633V-632Q483 -627 481 -623Q484 -626 494 -630H495Q484 -621 484 -603Q484 -582 514 -560Q511 -567 511 -582Q515 -617 542 -626Q548 -621 554 -617Q609 -624 644 -632Q635 -651 630 -657Q628 -658 624 -658H620L627 -693Q626 -698 621 -700Q622 -720 630 -731Q639 -743 650 -756Q665 -780 687 -790Q700 -786 718 -769Q731 -758 738 -753Q736 -752 733 -752Q725 -755 711 -759H708Q717 -741 729 -728Q740 -715 741 -691V-687Q750 -690 750 -699Q746 -717 741 -736Q741 -739 743 -743Q757 -723 761 -696Q752 -682 751 -665ZM619 -91Q614 -90 606 -88Q592 -88 547 -68Q513 -53 503 -53Q490 -53 483 -76Q479 -78 473 -82Q473 -72 472 -62Q472 -55 475 -49Q464 -47 453 -46Q469 -24 479 -12Q536 -16 573 -42Q594 -57 617 -89Z"/>
</svg>