<svg xmlns="http://www.w3.org/2000/svg" viewBox="0 -800 1024 1024">
	<path fill="#000000" d="M937 -660H936Q931 -660 928 -654Q925 -648 921 -648V-651Q922 -657 923 -664Q923 -666 922 -669L925 -668Q929 -668 932 -669H934Q937 -664 937 -660ZM487 -519V-517Q487 -502 473 -496Q472 -498 472 -502Q473 -517 482 -520Q485 -520 487 -519ZM71 98Q68 109 65 113Q60 119 50 119Q50 100 71 98ZM765 -131V-129Q759 -129 752 -134Q744 -140 743 -148H747Q765 -148 765 -131ZM178 -471V-470Q192 -473 194 -474Q201 -465 210 -459Q210 -476 199 -489Q194 -485 187 -481Q179 -477 178 -471ZM258 -391V-374Q272 -379 279 -401Q281 -407 287 -437Q280 -430 276 -420Q272 -410 259 -408Q258 -403 258 -391ZM213 -354Q208 -370 194 -380Q180 -390 170 -398Q173 -382 175 -366Q177 -350 184 -339Q205 -345 213 -354ZM275 -537Q271 -544 265 -547Q272 -549 285 -557Q297 -565 305 -566Q314 -557 317 -556Q329 -563 336 -581Q305 -578 279 -562Q263 -552 238 -527Q245 -520 247 -507Q249 -494 252 -483Q257 -497 265 -508Q273 -520 275 -537ZM288 -79H291Q310 -79 317 -69Q329 -43 331 -27Q328 -9 311 -6Q293 -2 278 3Q272 -10 264 -23Q256 -36 255 -51Q255 -57 258 -65Q260 -70 269 -76Q278 -82 281 -88H282Q286 -88 288 -79ZM405 -68V-61Q405 -48 407 -44Q383 -39 364 -31Q362 -38 350 -47Q338 -55 336 -62Q333 -69 333 -77Q333 -100 360 -119Q369 -111 379 -105Q385 -107 390 -115Q395 -123 399 -125Q401 -124 401 -118Q401 -111 398 -96Q405 -91 405 -68ZM205 -37H208Q209 -47 210 -57Q210 -67 216 -73Q218 -71 218 -65Q218 -59 217 -53Q217 -41 222 -39Q224 -40 226 -47Q226 -33 241 -14Q253 1 253 12Q253 19 245 31Q238 41 238 48Q238 53 241 59Q234 55 226 50Q217 53 210 53Q192 53 181 38Q171 24 171 5Q171 -13 179 -24Q188 -37 205 -37ZM767 -126Q776 -123 786 -118Q795 -113 808 -113Q813 -140 832 -254Q849 -323 853 -393Q853 -419 848 -437Q839 -432 824 -428Q808 -424 806 -414Q806 -411 811 -404L815 -403Q827 -406 838 -410Q840 -410 844 -408Q838 -398 820 -386Q803 -374 795 -364Q780 -344 767 -286Q753 -207 737 -134Q750 -125 762 -113Q775 -102 788 -97Q774 -111 767 -126ZM919 -367V-368Q883 -318 882 -226Q882 -214 884 -194Q891 -204 896 -232Q902 -269 915 -277Q908 -242 904 -205Q900 -167 890 -138Q884 -140 884 -153Q884 -166 879 -168Q864 -159 864 -123Q864 -101 872 -93Q878 -96 879 -104Q880 -112 882 -119Q888 -118 888 -111Q888 -105 887 -99Q886 -49 885 -39Q883 -2 876 15Q862 23 842 48Q828 66 819 73Q801 40 788 0Q777 -51 761 -73Q750 -82 744 -96Q763 -87 777 -76Q768 -103 733 -123Q723 -55 709 13Q690 22 688 27Q667 18 654 -18Q638 -62 628 -72Q638 -67 648 -62Q631 -86 610 -107Q615 -106 626 -98Q639 -88 648 -87Q652 -89 652 -94Q653 -99 653 -104Q658 -111 662 -133Q667 -164 679 -169Q675 -158 675 -138V-126Q695 -164 705 -213Q715 -262 724 -312Q713 -293 705 -260Q702 -246 699 -232Q696 -217 685 -210Q686 -245 697 -277Q707 -309 714 -343Q701 -340 679 -323Q664 -325 660 -337Q656 -348 651 -363Q645 -375 640 -385Q634 -395 634 -410Q634 -418 635 -423Q642 -437 647 -452V-456Q645 -471 642 -486Q642 -491 643 -493Q655 -510 664 -530Q674 -551 693 -561Q686 -549 686 -534Q686 -515 700 -512Q716 -520 735 -526Q754 -531 758 -550V-553Q758 -560 751 -577Q744 -594 743 -605Q742 -613 742 -631Q742 -686 762 -702Q758 -708 756 -718V-720H758Q767 -717 776 -714Q778 -714 782 -716Q778 -729 769 -736Q759 -743 752 -753Q780 -745 794 -738Q817 -727 829 -710Q850 -675 859 -632Q861 -620 861 -616Q861 -602 848 -567Q858 -569 873 -588Q887 -606 900 -609Q908 -617 914 -626Q913 -622 913 -615Q913 -594 925 -582Q932 -586 939 -593Q945 -599 952 -600Q939 -578 939 -560Q939 -547 944 -540Q950 -546 955 -552H956Q954 -536 952 -521Q952 -515 953 -512L955 -511Q957 -513 958 -516H959Q959 -504 956 -500Q970 -494 970 -470Q969 -451 968 -433V-430Q951 -409 941 -380Q932 -351 921 -323Q915 -327 915 -337Q917 -352 919 -367ZM574 -116H580Q560 -102 540 -89Q519 -75 506 -53Q501 -37 497 -15Q489 -1 481 13Q458 13 455 -9Q429 -16 429 -55Q432 -92 435 -129Q462 -153 480 -186Q497 -219 514 -252Q486 -241 470 -217Q454 -193 440 -168Q400 -174 395 -222Q390 -214 390 -198Q391 -181 391 -164V-159Q351 -133 305 -117Q258 -102 214 -82Q221 -101 240 -107Q259 -114 278 -120Q282 -122 312 -138Q321 -141 331 -144Q341 -147 345 -156Q337 -158 333 -158Q315 -156 299 -148Q188 -110 154 -91Q138 -82 133 -62Q135 -59 137 -56Q147 -56 163 -66Q178 -75 186 -75Q192 -75 196 -73Q161 -47 134 -12Q137 -9 140 -9Q148 -11 156 -13H157Q155 -3 155 1Q160 33 165 67Q165 79 161 90Q156 99 140 100Q124 100 118 109Q112 101 102 99Q99 100 96 100Q90 90 89 84Q85 84 82 88Q79 92 77 92Q82 75 82 72Q82 65 78 60Q69 61 53 69Q43 74 35 76L34 74Q34 70 53 56Q76 39 76 33Q76 26 58 25Q61 21 72 17Q80 14 84 10V-1Q91 -1 95 -5Q98 -9 103 -12Q98 -13 92 -23Q87 -30 84 -33Q78 -36 71 -39Q51 -54 51 -79Q51 -88 56 -100Q54 -114 54 -121Q54 -153 79 -179Q94 -194 128 -216Q124 -210 116 -201Q108 -193 107 -184Q107 -177 115 -173Q119 -171 123 -171Q138 -174 157 -182Q176 -186 194 -190Q212 -193 213 -204Q161 -204 149 -222Q157 -230 161 -242L160 -245Q176 -254 193 -261Q201 -264 209 -268Q218 -272 219 -281V-283H218Q204 -283 181 -257Q171 -260 163 -269Q158 -275 151 -288H148L145 -287V-285Q143 -290 139 -291H136Q137 -294 137 -298Q137 -309 124 -324Q112 -338 112 -347V-348Q123 -347 133 -334Q142 -321 152 -320Q151 -335 128 -377Q123 -387 114 -403Q106 -418 95 -420H92Q85 -417 85 -411Q85 -404 92 -389Q100 -372 100 -366Q100 -363 99 -361Q80 -379 60 -398Q27 -438 27 -524Q27 -564 31 -596Q34 -599 40 -609Q37 -639 37 -640Q37 -650 41 -657Q43 -637 49 -622Q50 -624 50 -630Q48 -647 46 -664Q46 -673 52 -679Q52 -674 51 -670Q51 -662 58 -636Q62 -642 62 -660Q67 -652 69 -642Q82 -640 95 -627Q97 -628 100 -628Q112 -626 123 -621Q133 -624 138 -627Q139 -627 143 -625Q168 -639 198 -650Q221 -664 240 -667Q245 -667 247 -666Q239 -659 207 -641Q196 -635 185 -629Q174 -623 167 -613H172Q188 -613 208 -624Q223 -632 327 -695Q321 -698 316 -698Q309 -698 296 -688Q284 -678 276 -678L272 -679Q275 -692 311 -713Q327 -721 345 -728Q362 -735 375 -747H377Q386 -747 391 -754Q395 -760 399 -767Q406 -762 412 -745Q419 -726 428 -722V-720Q430 -711 432 -702Q440 -712 450 -720L451 -717Q451 -713 447 -707Q441 -698 441 -692V-691Q441 -688 444 -688H447L450 -687Q446 -680 446 -675Q448 -666 449 -657H450Q451 -658 452 -662Q453 -666 458 -667L461 -666Q454 -656 454 -644Q454 -616 482 -606Q483 -601 483 -591Q483 -573 473 -558Q469 -553 452 -534Q425 -505 420 -498Q419 -501 419 -507Q419 -516 429 -535Q437 -549 438 -558Q435 -562 431 -562Q415 -559 412 -532Q412 -527 413 -525Q393 -522 382 -496Q378 -487 369 -446Q357 -402 354 -364V-360Q371 -387 380 -423Q390 -460 414 -481Q397 -427 383 -369Q369 -311 326 -282Q304 -312 280 -312Q275 -312 269 -309V-308Q268 -305 267 -302L268 -300L270 -299Q283 -303 291 -308Q294 -306 294 -302V-298Q294 -292 297 -291H300Q305 -292 309 -294H311Q309 -288 306 -283Q308 -277 315 -277H318Q314 -273 311 -259Q308 -246 305 -242Q292 -238 280 -234Q267 -230 265 -216Q297 -221 326 -235Q355 -250 385 -261Q383 -275 383 -282Q384 -311 394 -335Q405 -359 417 -384Q426 -408 436 -430Q446 -453 462 -464Q460 -451 449 -427Q436 -399 436 -384Q436 -375 437 -371Q485 -466 533 -562H530Q511 -562 494 -530Q490 -531 490 -537Q492 -544 494 -552Q502 -568 515 -588Q528 -607 529 -628V-630Q528 -642 522 -652Q515 -661 509 -672Q520 -669 529 -669Q538 -669 545 -674Q543 -679 540 -684V-685Q561 -691 605 -716Q659 -664 666 -573V-567Q664 -532 639 -513Q612 -493 589 -470Q574 -445 558 -421Q531 -383 527 -371L526 -368Q550 -383 573 -409Q593 -401 595 -399H596Q601 -400 604 -403Q607 -407 609 -408H610Q607 -400 607 -395Q607 -388 614 -372Q622 -354 622 -342Q620 -313 601 -299Q582 -285 565 -267Q548 -242 543 -200Q548 -202 561 -213Q576 -225 586 -229Q586 -263 597 -271Q603 -274 609 -275Q616 -275 619 -282Q620 -275 626 -275Q628 -275 634 -277V-272Q634 -257 642 -257Q651 -257 665 -274Q655 -251 651 -224Q651 -220 653 -210Q655 -211 656 -215Q658 -220 661 -220H662Q660 -206 660 -199Q661 -177 662 -155Q662 -121 641 -111Q633 -115 625 -122Q617 -128 607 -129Q601 -129 595 -126Q596 -132 601 -139Q607 -146 607 -151Q603 -154 597 -154Q590 -154 570 -144Q543 -131 537 -126Q520 -114 517 -96Q519 -92 521 -91Q530 -92 542 -102Q560 -116 574 -116Z"/>
</svg>