<svg xmlns="http://www.w3.org/2000/svg" viewBox="0 -800 1024 1024">
	<path fill="#000000" d="M420 -136Q407 -118 410 -86Q414 -54 413 -46Q396 -19 375 -7Q369 -3 363 5Q356 12 348 15Q350 10 363 -7Q357 -11 351 -6Q344 -1 340 1Q337 1 313 21Q316 26 320 26Q328 25 336 23H339V24Q339 30 334 33Q329 36 321 41Q309 52 297 62Q274 79 260 79Q243 79 239 60Q225 60 217 50Q210 41 210 26Q210 -8 220 -19Q217 -26 217 -35Q217 -69 238 -77Q236 -69 234 -61Q234 -58 235 -56Q259 -62 261 -63Q260 -89 258 -98V-110Q258 -144 253 -149Q246 -145 246 -132V-121Q246 -98 237 -92Q233 -112 229 -132H223Q206 -122 161 -97Q132 -84 115 -99Q109 -125 98 -137L104 -158Q100 -166 88 -177Q75 -189 71 -197Q88 -189 104 -182L105 -184Q104 -187 102 -191V-193Q108 -190 112 -190Q132 -192 179 -213Q209 -226 226 -231Q226 -254 219 -262Q208 -254 178 -246Q170 -242 152 -237Q149 -235 142 -239Q121 -262 90 -262Q90 -275 102 -282Q101 -285 101 -292Q101 -324 151 -334Q182 -353 183 -353Q229 -367 276 -385Q293 -388 311 -396Q328 -405 345 -411V-410Q346 -408 344 -408Q342 -408 341 -407L345 -406Q354 -409 363 -413H365Q356 -402 357 -393Q357 -389 362 -384Q370 -389 373 -389Q368 -385 368 -376Q369 -366 379 -354Q367 -338 370 -310Q366 -312 364 -311Q360 -311 357 -301Q343 -296 331 -295Q332 -300 339 -307Q345 -313 346 -319Q341 -323 333 -323Q327 -322 317 -315Q304 -306 300 -303Q291 -299 283 -295Q274 -291 273 -283Q279 -281 281 -282Q292 -288 306 -299Q304 -277 301 -254Q317 -259 378 -286Q398 -296 413 -297Q406 -290 398 -279Q408 -281 417 -284Q409 -274 404 -266Q410 -230 400 -207Q387 -190 362 -183Q319 -176 305 -162Q292 -115 296 -80Q338 -104 387 -136Q399 -146 419 -154Q419 -151 408 -141Q399 -133 399 -131L400 -128L403 -127Q410 -134 420 -136ZM405 -495Q399 -481 396 -469Q396 -466 397 -464Q394 -466 390 -464Q374 -460 357 -456Q346 -454 343 -461Q359 -467 374 -475Q360 -487 337 -484Q326 -482 316 -476Q306 -470 299 -468Q284 -463 284 -448Q291 -445 296 -446Q311 -450 325 -454Q331 -455 335 -454Q329 -446 310 -440Q299 -436 291 -431Q251 -414 213 -395L201 -390Q180 -380 153 -365Q126 -351 116 -332Q104 -325 89 -330Q68 -338 60 -344Q52 -351 49 -382V-403Q49 -420 47 -428Q47 -432 46 -436Q46 -465 72 -480Q77 -493 91 -517Q94 -526 99 -536Q103 -546 115 -547Q106 -517 97 -488Q102 -482 106 -477Q122 -506 138 -535Q159 -569 170 -592Q172 -598 172 -602Q172 -621 160 -623H159Q147 -623 140 -599Q134 -578 127 -574Q123 -577 123 -586Q123 -603 135 -603Q134 -605 134 -608Q135 -614 135 -620V-622L132 -623Q125 -620 117 -618H116Q119 -623 123 -636Q128 -651 134 -658Q144 -671 163 -686Q168 -690 178 -702Q187 -713 194 -717Q216 -717 225 -714Q241 -695 267 -676Q294 -656 297 -624Q297 -616 296 -611Q295 -604 279 -586Q256 -560 256 -549Q275 -554 293 -573Q305 -586 312 -587Q319 -586 325 -586L329 -587Q342 -588 372 -600Q360 -588 358 -575Q361 -572 366 -572Q380 -578 393 -584Q396 -584 398 -584Q397 -579 388 -573Q377 -565 378 -556L381 -554Q387 -558 393 -562Q396 -562 398 -560Q393 -551 388 -543Q395 -514 405 -495ZM654 -46V-49Q633 -44 610 -36Q586 -29 573 -14Q579 -6 583 -4Q618 -15 652 -26Q653 -36 654 -46ZM654 -117Q652 -119 652 -122Q653 -127 654 -132V-134Q619 -124 602 -102Q595 -100 595 -99L597 -98Q604 -100 611 -102Q616 -102 617 -97Q597 -91 580 -83Q575 -82 561 -75Q545 -67 546 -63Q546 -58 553 -58Q563 -60 573 -63Q586 -68 599 -73Q626 -81 628 -82Q642 -88 648 -98Q639 -105 636 -106Q637 -112 643 -114Q648 -115 654 -117ZM765 -87Q762 -87 758 -88Q743 -88 712 -76Q711 -71 711 -58Q711 -49 712 -45Q718 -46 743 -53Q758 -71 765 -87ZM655 -209Q655 -220 652 -224Q611 -203 611 -185Q611 -179 616 -174Q636 -176 655 -186ZM755 -145L715 -163Q714 -153 713 -144Q713 -140 715 -134Q729 -134 755 -145ZM748 -274Q726 -265 720 -258Q718 -237 716 -217Q717 -212 717 -207Q733 -220 748 -274ZM899 -186H898Q892 -183 886 -181H884Q886 -189 890 -195Q897 -195 899 -186ZM892 -701Q891 -697 882 -686Q878 -690 880 -697Q881 -702 890 -711Q894 -707 892 -701ZM879 -512Q885 -512 887 -510Q876 -502 862 -496Q855 -485 855 -479Q855 -477 857 -469Q873 -470 895 -478Q923 -488 940 -489Q923 -479 904 -473Q884 -466 873 -451Q874 -432 896 -430Q883 -415 883 -388Q881 -377 887 -372H884Q879 -372 873 -373H870Q869 -371 868 -369Q870 -366 871 -363H875Q883 -363 895 -370Q905 -376 910 -376Q908 -372 896 -365Q887 -359 885 -352H886Q888 -352 891 -355Q896 -360 900 -360Q903 -360 905 -359Q901 -355 899 -349V-342Q898 -333 897 -324Q897 -317 903 -313Q901 -309 901 -306Q901 -299 905 -289Q903 -286 901 -274Q900 -264 896 -260Q894 -261 890 -261Q874 -258 860 -250V-254Q860 -262 874 -267Q888 -272 888 -280V-282Q888 -292 880 -294Q879 -295 875 -295Q860 -293 847 -279Q835 -264 827 -254Q797 -221 792 -198Q799 -200 813 -214Q833 -233 847 -234Q838 -220 816 -194Q809 -185 801 -175Q793 -165 792 -150Q813 -165 842 -165H849Q861 -163 864 -163Q869 -163 879 -173Q879 -165 878 -158Q878 -142 890 -141H891Q897 -141 907 -147Q919 -154 925 -154H927Q919 -149 911 -144Q904 -139 903 -127V-123Q907 -121 911 -119V-117Q911 -101 919 -83Q915 -79 915 -66V-45Q902 -41 888 -37Q882 -37 878 -42Q894 -45 897 -64Q897 -73 888 -74H885Q880 -74 875 -68Q870 -62 865 -61Q862 -61 860 -64Q858 -68 855 -68Q815 -57 807 -18Q817 -23 827 -28Q831 -24 833 -21Q846 -31 858 -31Q863 -31 866 -27Q861 -20 849 -16Q832 -10 829 -1Q817 5 814 7Q806 12 805 20Q798 15 780 8Q760 0 751 -8Q732 -3 713 2Q711 10 711 32Q715 53 718 74V75Q717 89 709 99Q701 108 694 119Q686 115 681 109Q676 103 665 102H663Q660 96 658 91Q657 86 651 85Q645 88 638 91L635 90Q637 84 644 76Q651 68 652 58Q652 33 649 27Q598 40 591 76Q543 67 514 44Q495 39 476 18Q459 -1 442 -8Q439 -15 431 -20Q430 -23 430 -30Q430 -46 442 -56Q441 -65 436 -73Q440 -70 472 -58Q491 -68 530 -78Q563 -87 572 -90Q562 -95 552 -95Q543 -103 531 -109Q527 -130 508 -135Q490 -141 475 -150Q471 -156 467 -163Q459 -168 448 -172Q437 -176 432 -183Q422 -203 422 -230V-231Q422 -235 426 -241Q430 -248 430 -253V-255Q430 -263 424 -275Q419 -285 419 -291V-298Q423 -295 427 -286Q432 -275 437 -272Q437 -283 430 -297Q423 -311 423 -319Q423 -325 424 -327Q429 -322 435 -309Q444 -292 451 -287L452 -290Q450 -298 447 -307V-308Q454 -307 461 -299Q469 -290 474 -289H475Q482 -290 489 -291Q492 -291 499 -286H503Q519 -285 531 -280Q543 -274 555 -270Q564 -275 575 -278H579Q583 -278 583 -284Q605 -289 644 -308Q643 -330 643 -352Q643 -375 634 -389Q627 -382 620 -376Q605 -363 585 -350Q565 -337 559 -321Q550 -308 536 -294Q533 -296 528 -296Q521 -293 514 -291Q511 -291 500 -296Q490 -301 484 -300Q477 -298 476 -297L475 -300Q477 -304 478 -309Q478 -315 458 -337Q441 -357 439 -364H445Q449 -362 453 -360Q439 -391 430 -423Q439 -415 449 -399Q462 -378 470 -372Q480 -378 496 -391Q484 -400 470 -403H467Q460 -412 451 -416Q449 -417 446 -416Q449 -419 449 -425Q449 -443 431 -446Q427 -446 425 -445L424 -447Q427 -451 429 -456Q425 -458 423 -458Q419 -462 415 -488Q412 -514 410 -520Q412 -522 426 -544Q448 -579 452 -579Q453 -579 457 -577Q459 -580 465 -597Q469 -610 477 -612Q477 -606 475 -598Q475 -583 481 -580Q488 -581 491 -587Q494 -593 497 -598Q502 -589 506 -581Q510 -573 518 -568Q557 -585 593 -587Q592 -623 591 -659Q578 -670 569 -680Q560 -690 561 -716L562 -722Q563 -738 573 -749Q579 -756 596 -765Q608 -773 618 -779Q628 -784 643 -784Q650 -783 656 -782Q683 -772 706 -760Q708 -752 721 -728Q739 -696 738 -681Q738 -669 727 -660Q722 -661 722 -667L723 -681Q720 -691 709 -713Q707 -719 704 -729Q700 -739 692 -741H690Q684 -741 684 -733Q684 -726 691 -715Q700 -702 699 -690Q693 -661 692 -647Q712 -655 719 -656Q716 -648 710 -642Q701 -634 700 -621Q717 -625 743 -629Q784 -635 801 -642Q814 -648 826 -656Q838 -664 853 -665Q859 -666 866 -674Q874 -681 879 -683Q877 -676 875 -670Q875 -667 878 -664Q881 -663 883 -662Q889 -665 898 -666H900V-663Q899 -655 906 -648Q916 -651 923 -661Q930 -671 941 -672Q937 -662 930 -653Q922 -643 921 -631Q921 -628 921 -625Q929 -630 939 -640Q936 -626 933 -613Q933 -601 944 -596Q943 -593 943 -586Q942 -578 946 -559Q949 -547 948 -538Q948 -527 940 -519Q937 -521 932 -521Q914 -519 897 -515Q900 -520 906 -526Q915 -534 916 -539L917 -540Q917 -544 914 -545Q911 -546 908 -549Q864 -538 846 -516Q842 -510 834 -500Q841 -500 856 -506Q872 -512 879 -512ZM818 -385Q807 -397 759 -417Q761 -408 775 -396Q786 -386 789 -380Q765 -387 751 -401Q738 -415 723 -430V-427Q723 -423 722 -421Q709 -430 698 -440Q689 -437 689 -431Q693 -421 703 -410Q707 -403 710 -388Q712 -377 715 -371Q722 -375 724 -392Q726 -404 729 -410Q733 -409 735 -402Q736 -397 739 -395Q729 -377 727 -354V-345Q771 -363 774 -364Q787 -371 799 -378Q811 -384 818 -385ZM750 -525Q754 -530 762 -542Q730 -542 704 -534Q679 -526 646 -517Q619 -509 602 -499Q567 -478 558 -455Q552 -443 547 -432Q570 -450 593 -468Q602 -483 618 -483Q643 -485 652 -460V-457Q666 -467 674 -471H686Q697 -458 714 -445Q709 -458 701 -469Q694 -480 693 -494Q693 -500 694 -504H697Q701 -504 701 -507Q702 -511 703 -514Q714 -526 736 -526Q746 -526 750 -525Z"/>
</svg>