<svg xmlns="http://www.w3.org/2000/svg" viewBox="0 -800 1024 1024">
	<path fill="#000000" d="M421 -13L420 -15Q422 -17 424 -20Q434 -20 445 -24Q444 -18 439 -14Q433 -11 429 -7Q422 -12 421 -13ZM651 -306V-303Q651 -295 646 -274Q640 -253 641 -241Q641 -231 649 -218Q779 -260 791 -263Q768 -276 717 -287Q670 -297 651 -306ZM248 -223V-231Q248 -238 245 -241Q235 -235 224 -233Q219 -233 214 -234L215 -227Q215 -220 219 -208Q225 -209 230 -210H233Q246 -210 250 -215Q249 -219 248 -223ZM251 -25V-24H253Q260 -26 266 -29Q294 -33 319 -38Q331 -43 337 -55Q343 -66 349 -75Q313 -68 282 -56Q251 -44 251 -25ZM375 -278H366Q347 -277 317 -264Q311 -255 311 -225Q317 -222 324 -222Q338 -224 352 -227Q354 -235 363 -249Q375 -268 375 -278ZM395 -150L369 -149Q255 -143 190 -116Q198 -100 224 -102Q228 -102 258 -108Q350 -134 380 -139Q381 -142 388 -145Q393 -147 395 -150ZM585 -168V-166Q585 -134 585 -103Q587 -76 596 -67Q612 -106 607 -173Q604 -239 585 -281Q578 -275 578 -264Q578 -253 576 -243Q582 -243 587 -244Q583 -233 584 -230Q584 -227 585 -224Q589 -215 592 -207L593 -182Q593 -181 585 -168ZM571 -148Q564 -145 562 -144Q519 -160 485 -150Q498 -133 506 -120H509Q515 -121 521 -122H524Q521 -118 518 -115V-114Q528 -116 538 -119Q541 -119 543 -118Q524 -109 521 -90Q517 -72 516 -51Q468 -33 454 -25L453 -28Q453 -35 466 -42Q479 -49 479 -54Q479 -59 470 -61Q461 -64 452 -63Q449 -62 446 -62Q429 -59 408 -36Q383 -11 376 -2Q370 8 370 16Q371 18 372 20Q379 18 388 8Q396 -1 410 -2Q414 -2 418 -2Q400 13 388 25Q376 37 370 61L360 62Q341 62 331 56Q321 50 306 43L305 40Q306 37 306 34L300 35Q275 36 256 55Q245 59 234 59Q194 61 168 18Q176 19 186 28Q197 38 204 38Q207 38 209 37Q203 16 185 0Q166 -17 146 -16H142L141 -12Q141 -7 148 -3Q155 2 156 8Q127 -1 98 -11Q94 -18 92 -28Q92 -42 99 -56Q106 -70 111 -82H105Q73 -79 58 -103Q28 -128 51 -174Q54 -180 74 -189Q90 -196 98 -204L99 -201Q96 -195 93 -189Q96 -185 104 -185Q117 -187 129 -190H132Q131 -194 123 -201Q116 -207 115 -214V-215Q115 -222 123 -237Q133 -255 132 -265Q132 -270 131 -272Q137 -273 149 -269Q164 -264 173 -265L176 -266Q181 -274 182 -286Q189 -289 208 -293Q232 -298 244 -305Q244 -313 241 -316L192 -320Q188 -329 181 -333Q174 -337 167 -342H169Q175 -344 181 -346L180 -348Q180 -354 183 -358Q209 -373 234 -381Q233 -391 226 -391Q219 -388 212 -386Q192 -380 171 -371Q160 -363 149 -356H143Q127 -355 114 -363Q99 -372 98 -386V-388Q80 -395 76 -418Q76 -430 83 -438Q78 -447 78 -456Q79 -479 103 -493Q129 -507 148 -521Q143 -512 140 -503L141 -499Q145 -497 148 -497Q157 -497 166 -506Q174 -504 177 -504Q195 -509 219 -517Q200 -518 189 -525Q177 -533 164 -540Q165 -542 165 -545Q165 -551 158 -556H155Q151 -555 147 -554L143 -555Q143 -562 146 -566Q150 -570 152 -574Q150 -587 139 -598Q140 -602 140 -608Q139 -616 133 -627Q148 -629 148 -650Q146 -667 140 -678Q145 -676 150 -664Q155 -652 162 -650Q165 -651 168 -658Q171 -664 174 -666Q179 -664 193 -664Q204 -664 210 -662Q216 -665 220 -672Q227 -683 233 -684Q230 -672 227 -654Q227 -646 232 -642Q234 -643 234 -648Q234 -654 238 -654Q242 -650 242 -645L243 -633Q244 -625 253 -612Q262 -597 263 -588Q264 -549 230 -518Q254 -527 275 -531Q285 -560 296 -590Q307 -620 327 -643Q326 -632 316 -614Q304 -593 305 -581Q307 -576 308 -571Q328 -597 355 -659Q367 -685 366 -691Q366 -700 361 -705Q353 -703 348 -694Q342 -682 341 -681Q339 -685 339 -690Q341 -709 343 -728Q341 -741 333 -746Q359 -758 381 -774Q403 -790 426 -805Q451 -780 477 -758Q504 -736 509 -690Q502 -683 504 -671L505 -650Q473 -641 449 -619Q437 -608 411 -573Q436 -586 479 -594Q477 -584 471 -576H473Q489 -581 513 -587H515Q486 -574 486 -559Q486 -554 491 -549H498L500 -551Q500 -547 493 -534Q483 -517 484 -509Q484 -502 495 -497Q474 -478 465 -457H461Q446 -454 430 -452Q419 -452 416 -456Q428 -466 450 -468V-470Q450 -472 448 -478V-480Q439 -480 429 -481Q407 -479 377 -469Q353 -465 334 -459Q314 -454 302 -438Q306 -437 314 -437Q334 -441 352 -448Q377 -453 382 -453Q393 -454 400 -450Q382 -443 361 -439Q340 -435 329 -423V-422L330 -418H334Q350 -422 365 -427Q368 -427 369 -424Q370 -422 371 -419Q386 -422 401 -425Q395 -422 388 -418Q381 -414 380 -405Q381 -404 386 -404L397 -405Q384 -397 385 -378L386 -372Q376 -363 346 -355Q326 -349 318 -345Q319 -342 320 -340Q319 -334 318 -329L319 -326Q336 -327 346 -334Q355 -341 366 -346L391 -339V-336Q391 -330 391 -324Q391 -320 395 -316Q419 -331 430 -335Q433 -335 435 -343Q437 -350 441 -352Q446 -334 452 -332H453Q458 -334 463 -337H464Q466 -336 466 -333V-329Q468 -321 474 -311Q484 -295 484 -289Q480 -277 480 -274Q480 -271 483 -265Q468 -259 454 -255Q439 -251 430 -238Q443 -240 455 -243Q464 -245 467 -237Q447 -233 427 -230Q407 -228 400 -213Q408 -208 423 -208Q476 -215 517 -232Q511 -243 472 -240Q474 -251 497 -256Q520 -262 542 -266L544 -265Q545 -263 541 -261L546 -262Q553 -262 565 -266Q566 -269 566 -276L565 -291Q563 -311 561 -332Q561 -357 563 -371L565 -372Q573 -366 581 -360Q583 -361 584 -364Q585 -369 587 -369Q604 -367 621 -365Q621 -370 620 -375Q619 -397 637 -424Q652 -446 655 -461Q658 -476 666 -492Q672 -504 676 -521Q647 -512 635 -481Q633 -481 630 -482Q619 -478 616 -469Q563 -474 556 -492Q554 -507 551 -522Q548 -535 537 -551Q524 -570 523 -582Q523 -591 525 -596Q526 -602 533 -612Q539 -621 540 -627Q539 -634 534 -643Q527 -653 527 -659V-662Q547 -637 581 -636Q597 -638 606 -644L607 -642Q607 -640 603 -635Q599 -631 599 -627V-626Q605 -620 613 -620Q622 -620 643 -639Q681 -670 681 -692H678Q666 -691 645 -674Q631 -663 623 -660Q627 -676 645 -689Q663 -703 679 -716Q689 -726 700 -738Q710 -749 726 -751Q735 -752 745 -748L746 -749Q751 -752 755 -755H756Q772 -736 779 -734Q783 -737 791 -749Q797 -758 802 -762Q803 -760 803 -755Q801 -735 799 -716Q799 -704 811 -699Q821 -702 830 -706Q833 -706 835 -705Q831 -701 825 -696Q819 -691 818 -684V-681L820 -678Q824 -680 828 -682H829Q826 -677 826 -667Q829 -652 832 -638Q833 -634 832 -630Q829 -619 811 -594Q795 -572 791 -560L794 -558Q798 -559 801 -560L803 -561Q742 -502 731 -397L799 -361Q829 -346 848 -332Q834 -333 805 -349Q772 -367 753 -366Q747 -366 744 -365Q757 -346 778 -337Q799 -327 819 -318Q839 -307 858 -294Q878 -281 900 -281Q897 -286 886 -296Q869 -311 867 -319L871 -320Q883 -317 894 -306Q918 -292 921 -290Q936 -280 941 -266Q944 -257 946 -235Q948 -206 956 -194Q947 -185 938 -174Q929 -164 915 -160H907Q892 -159 867 -162Q836 -166 825 -165H817Q770 -161 730 -146Q690 -132 654 -119Q654 -96 654 -74Q661 -27 667 19V35Q665 53 653 68Q649 73 630 91Q586 71 559 34Q540 31 520 27Q492 25 485 20Q490 21 512 21L528 20Q539 20 550 20Q540 11 494 13L465 15Q478 8 498 8Q508 7 528 7Q536 6 550 4Q543 0 522 1Q509 1 502 0Q538 -12 544 -15Q565 -25 569 -45Q575 -91 571 -148ZM568 -242Q565 -248 565 -255V-258Q559 -254 559 -250V-248Q560 -242 568 -242Z"/>
</svg>