<svg xmlns="http://www.w3.org/2000/svg" viewBox="0 -800 1024 1024">
	<path fill="#000000" d="M454 -136Q441 -118 444 -86Q448 -54 447 -46Q429 -19 409 -7Q402 -3 396 5Q389 12 380 15Q381 13 396 -7Q390 -11 384 -6Q377 -1 372 1Q369 1 344 21Q347 26 352 26Q360 25 368 23H371V24Q371 30 366 33Q361 36 353 41Q341 52 328 62Q305 79 290 79Q273 79 269 60Q255 60 247 50Q239 40 239 26Q239 -8 249 -19Q246 -26 246 -35Q246 -63 281 -77Q278 -69 274 -61Q274 -58 275 -56Q277 -56 292 -63Q290 -80 288 -98V-110Q288 -144 283 -149Q276 -143 276 -122V-111Q276 -88 267 -82Q263 -107 258 -132H252Q221 -114 189 -97Q160 -84 141 -99Q135 -125 124 -137L131 -158Q127 -165 114 -177Q101 -188 97 -197Q114 -189 131 -182L132 -184Q129 -190 129 -191V-193Q135 -190 139 -190Q160 -192 208 -213Q240 -227 255 -231Q255 -254 248 -262Q236 -254 206 -246Q198 -242 180 -237Q176 -236 169 -239Q148 -262 116 -262Q116 -275 128 -282Q127 -285 127 -292Q127 -309 143 -320Q157 -330 178 -334Q195 -343 211 -353Q248 -364 307 -385Q342 -395 378 -411V-410Q379 -408 377 -408Q374 -408 373 -407L377 -406Q387 -409 396 -413H398Q389 -402 390 -393Q390 -388 395 -384Q403 -389 406 -389Q401 -385 401 -376Q402 -366 412 -354Q400 -338 403 -310Q399 -312 397 -311Q393 -311 392 -307Q390 -304 389 -301Q377 -297 363 -295Q364 -300 371 -307Q377 -313 378 -319Q373 -323 365 -323Q356 -322 348 -315Q340 -309 332 -303Q322 -299 313 -295Q304 -291 303 -283Q310 -281 311 -282Q323 -288 337 -299Q335 -276 333 -254Q335 -254 411 -286Q431 -296 447 -297Q440 -290 432 -279Q442 -281 451 -284Q444 -275 437 -266Q444 -231 433 -207Q420 -190 395 -183Q384 -181 364 -175Q342 -168 336 -162Q333 -151 329 -130Q325 -109 327 -80Q370 -104 421 -136Q431 -144 453 -154Q453 -151 442 -141Q432 -132 432 -131L433 -128L436 -127Q443 -134 454 -136ZM521 -52H519Q515 -52 508 -57Q498 -64 493 -64Q496 -73 500 -73Q506 -72 512 -64Q518 -56 521 -52ZM472 -492Q460 -474 460 -460Q452 -461 444 -462Q436 -462 436 -456Q433 -457 427 -457Q412 -457 386 -445Q359 -432 343 -431Q297 -414 252 -395L241 -390Q220 -381 192 -370Q164 -360 153 -342Q141 -335 126 -340Q104 -348 96 -354Q87 -361 84 -392V-413Q84 -430 82 -438Q82 -442 81 -446Q81 -475 107 -490Q110 -498 127 -527Q130 -536 135 -546Q139 -556 151 -557Q142 -527 133 -498Q138 -492 142 -487Q159 -516 175 -545Q195 -579 208 -602Q209 -607 210 -612Q210 -631 198 -633H196Q184 -633 177 -609Q171 -588 164 -584Q160 -587 160 -596Q160 -613 172 -613Q171 -615 171 -618Q172 -624 172 -630V-632L169 -633Q161 -630 153 -628H152Q171 -660 191 -688Q203 -698 221 -706Q226 -710 236 -722Q245 -733 252 -737Q275 -737 284 -734Q299 -715 317 -691Q335 -667 337 -634Q337 -627 336 -621Q335 -614 319 -596Q296 -570 296 -559Q319 -564 351 -580Q377 -593 386 -596Q389 -608 389 -610Q395 -600 410 -600Q419 -600 426 -604Q434 -585 445 -585H449Q452 -563 470 -551Q461 -524 472 -492ZM940 -462H946Q936 -447 934 -431Q936 -422 937 -414Q935 -400 920 -378Q906 -359 904 -348H900Q882 -347 863 -346Q850 -346 842 -350Q844 -357 864 -358Q880 -359 885 -362Q879 -378 847 -378Q833 -378 825 -377Q795 -376 772 -375Q750 -373 739 -358Q744 -350 754 -350Q774 -355 802 -360Q811 -360 815 -358Q807 -349 794 -347Q781 -344 768 -343Q741 -343 734 -322V-320Q736 -310 737 -300V-298Q735 -291 733 -285Q735 -278 736 -271Q735 -260 733 -250V-244Q735 -212 736 -181Q736 -164 733 -159Q725 -170 725 -202V-233Q725 -265 717 -276Q705 -266 705 -240Q706 -231 706 -223V-206Q705 -168 704 -131Q704 -63 731 -46Q733 -50 733 -60V-78Q733 -87 734 -90Q742 -79 744 -65Q746 -51 748 -37Q759 -10 764 20V26Q758 41 752 55Q737 94 700 120Q674 109 619 77Q613 52 604 44Q596 13 569 -5Q540 -23 526 -49Q535 -44 597 0Q594 -11 573 -30Q550 -48 527 -67Q503 -87 487 -114Q504 -104 540 -70Q572 -40 597 -30Q592 -38 575 -47Q553 -59 549 -72Q561 -71 580 -56Q600 -41 613 -39Q638 -89 638 -220V-295Q616 -292 608 -287Q605 -285 584 -267L582 -266L579 -267L576 -265Q564 -255 559 -243Q553 -240 539 -240Q526 -240 518 -244Q507 -257 495 -270Q483 -279 468 -288Q453 -296 447 -312Q445 -322 445 -328Q445 -350 454 -363Q446 -372 446 -392Q446 -421 463 -436Q485 -448 507 -460Q524 -472 540 -483Q556 -494 578 -495H580Q570 -485 558 -476Q547 -468 540 -454Q545 -453 554 -453Q591 -456 642 -463Q650 -491 650 -535Q649 -567 647 -600V-628Q644 -638 630 -654Q618 -667 615 -676Q608 -693 608 -716Q608 -722 610 -732Q617 -756 647 -778Q679 -801 709 -801H711Q732 -801 747 -781Q758 -767 771 -736Q761 -737 754 -748Q747 -759 740 -760Q732 -759 732 -748Q733 -744 733 -741Q734 -730 750 -713Q769 -692 771 -678V-673Q767 -652 763 -626Q779 -639 794 -670Q787 -691 783 -715V-718Q792 -717 800 -701Q807 -687 807 -676V-674Q805 -662 803 -650V-646Q773 -630 761 -584Q756 -565 748 -493Q787 -495 791 -497Q794 -498 825 -507Q828 -508 834 -508Q841 -508 843 -509Q858 -515 875 -519H878L881 -517Q878 -512 875 -508V-507H877Q892 -507 908 -515Q927 -524 938 -524H946Q935 -515 922 -508Q909 -501 904 -486Q908 -480 915 -480Q929 -484 943 -488V-487Q943 -484 938 -481Q929 -475 929 -470V-468Q932 -462 940 -462Z"/>
</svg>