<svg xmlns="http://www.w3.org/2000/svg" viewBox="0 -800 1024 1024">
	<path fill="#000000" d="M861 -279V-282Q861 -292 872 -292Q875 -292 877 -291Q877 -281 861 -279ZM904 -121V-118Q902 -106 899 -94Q895 -98 895 -112Q895 -119 896 -121ZM138 -586H137Q133 -586 128 -591Q124 -595 124 -599Q124 -605 132 -605H133Q136 -602 138 -586ZM624 -364Q618 -385 619 -407Q611 -402 611 -385Q611 -365 624 -364ZM558 -373H556Q542 -373 542 -352Q542 -341 547 -334Q548 -338 553 -339Q557 -340 561 -341Q560 -348 556 -348Q552 -349 547 -350Q548 -354 552 -359Q558 -366 558 -373ZM680 -357H676Q657 -357 657 -340Q657 -333 662 -325Q677 -344 680 -357ZM631 -482Q629 -492 627 -502Q610 -502 603 -495Q608 -479 621 -479Q625 -479 631 -482ZM702 -426H698Q691 -426 671 -421L665 -406Q671 -404 675 -404Q685 -404 692 -409Q701 -415 702 -426ZM655 -308H646Q638 -308 633 -307Q617 -305 595 -296Q576 -288 569 -288Q557 -288 550 -301V-296Q550 -287 554 -279Q606 -293 627 -294Q629 -301 642 -301Q655 -303 655 -308ZM616 -250H609Q588 -250 570 -244Q547 -234 547 -224V-223Q594 -229 634 -238Q648 -241 649 -250Q647 -252 633 -252Q619 -252 616 -250ZM911 -10H914Q918 -9 921 -9Q933 4 945 19Q956 34 957 53Q957 56 955 66Q953 73 951 85Q949 101 945 106Q933 122 911 122Q892 121 871 113Q850 104 834 97Q808 87 767 77Q765 72 753 70Q736 67 736 57H737Q749 60 760 62Q767 62 769 56Q761 47 726 35Q694 25 684 25Q673 25 669 32Q671 40 686 44Q700 48 702 57Q563 34 480 25Q463 27 449 19Q454 12 468 12Q478 12 492 14Q540 18 619 31Q633 35 641 35Q650 35 655 29Q622 6 508 4Q453 -2 403 -9H395Q381 -9 375 -3Q377 5 395 6Q413 7 418 16H407Q346 15 285 14Q244 14 228 16Q215 18 206 27Q196 35 187 41Q185 40 181 40Q168 44 157 48H156Q145 48 128 32Q114 18 104 16Q103 6 96 -10Q90 -23 90 -30Q91 -32 91 -35Q90 -39 83 -42Q77 -44 76 -47Q89 -49 108 -56Q134 -66 150 -67Q182 -69 189 -72Q195 -70 198 -67Q220 -69 235 -79Q251 -90 270 -98Q261 -108 237 -126Q209 -148 197 -163Q186 -159 174 -141Q163 -125 150 -124Q140 -124 119 -130Q100 -136 83 -160Q66 -183 64 -205Q62 -222 54 -235Q46 -245 39 -256V-261Q39 -282 59 -313Q78 -345 91 -354Q89 -340 86 -326Q95 -326 107 -336Q122 -349 135 -349H141Q139 -338 118 -328Q98 -319 98 -306V-302Q101 -299 107 -299Q122 -299 154 -325Q179 -344 191 -364Q188 -367 185 -367Q176 -365 167 -363L163 -364Q165 -377 177 -379Q188 -382 197 -389Q189 -397 178 -397Q172 -397 169 -395Q156 -425 129 -434V-435Q131 -439 133 -443V-445Q132 -450 125 -450Q121 -450 113 -448Q118 -455 122 -463Q118 -473 107 -473Q89 -470 73 -464Q80 -475 92 -482Q103 -489 114 -496V-498Q112 -504 110 -510V-512Q112 -520 112 -524Q112 -537 100 -560Q92 -575 91 -583Q99 -578 110 -563Q120 -549 125 -545Q141 -550 141 -564Q141 -566 139 -574Q144 -566 157 -566H166Q173 -566 177 -565Q196 -558 212 -550Q215 -551 217 -558Q220 -566 225 -568V-563Q225 -530 248 -523Q250 -523 252 -528Q254 -533 257 -533H258V-530Q258 -518 264 -511Q269 -504 277 -496Q282 -487 287 -479Q293 -474 299 -469Q307 -459 312 -438Q316 -420 320 -412Q316 -399 313 -388Q310 -378 301 -370Q310 -352 344 -334Q345 -321 352 -300Q358 -283 358 -275Q358 -262 347 -250Q338 -242 328 -235Q324 -228 320 -222L316 -221Q312 -221 311 -220Q305 -209 298 -199Q301 -190 315 -174Q330 -157 335 -147Q350 -113 350 -94Q350 -80 342 -69Q353 -64 368 -64H397Q523 -54 641 -40Q636 -47 630 -72Q622 -107 612 -115H616Q630 -116 631 -131Q633 -146 636 -161Q591 -153 578 -147Q606 -135 609 -106V-101Q599 -83 585 -67Q581 -64 576 -62Q570 -67 553 -70Q531 -74 525 -84H524Q521 -84 517 -80Q514 -77 512 -77L510 -78L509 -81Q509 -84 514 -86Q520 -88 520 -91Q513 -95 507 -95Q498 -95 483 -85Q471 -77 466 -76V-77Q466 -82 482 -91Q502 -102 505 -110Q505 -113 500 -113H496Q496 -115 502 -116Q507 -116 507 -120V-121Q504 -125 498 -125Q491 -123 483 -121Q463 -116 457 -113Q445 -107 433 -99Q421 -91 408 -90Q403 -90 400 -91Q392 -96 385 -104Q377 -112 363 -113H360Q350 -123 350 -142Q350 -159 360 -194Q408 -229 433 -238Q426 -227 416 -217Q419 -208 432 -208Q440 -208 448 -209Q454 -209 457 -208Q455 -204 444 -200Q432 -196 430 -190Q430 -184 433 -182Q436 -180 440 -178Q461 -188 516 -195Q569 -202 590 -213Q585 -217 577 -217Q564 -215 551 -213Q524 -210 496 -208Q489 -208 477 -210Q481 -217 501 -217Q498 -226 482 -237Q463 -250 459 -262Q457 -283 446 -302Q430 -321 410 -328Q410 -332 404 -339Q399 -345 398 -349V-351Q400 -361 401 -371V-373Q400 -385 395 -392Q389 -400 385 -409Q394 -408 398 -403Q402 -398 407 -395Q407 -403 409 -404H412L416 -403Q432 -423 442 -431Q459 -445 478 -448H508Q533 -454 558 -461Q558 -467 551 -481Q518 -475 492 -470Q495 -482 519 -488Q538 -493 544 -500Q539 -508 527 -508Q519 -508 495 -500Q476 -493 458 -487Q441 -482 433 -466Q434 -461 439 -461Q447 -463 454 -465Q456 -465 458 -463Q455 -456 449 -453Q443 -449 437 -446Q427 -438 419 -431Q412 -424 398 -424H393Q360 -428 348 -476L336 -484Q330 -499 330 -515Q330 -546 351 -574Q359 -580 367 -587Q375 -597 381 -604Q387 -612 398 -613Q415 -603 447 -603Q462 -603 486 -607Q482 -615 470 -628Q455 -644 451 -655Q450 -656 446 -656H440Q443 -667 446 -679Q442 -684 437 -688Q445 -720 445 -739Q448 -737 454 -737Q466 -737 472 -752Q478 -750 484 -749Q496 -757 515 -757Q552 -757 578 -733Q580 -734 582 -739Q584 -744 588 -745Q590 -743 590 -739Q589 -731 588 -724Q589 -708 601 -682Q599 -676 597 -671Q602 -662 602 -648Q602 -637 601 -631H607Q637 -634 649 -660Q661 -686 680 -704Q679 -694 669 -677Q660 -662 660 -653Q661 -650 661 -647H663Q673 -648 679 -661Q685 -674 693 -688Q699 -697 709 -712Q719 -726 720 -737Q720 -744 713 -745H710Q705 -745 700 -737Q696 -730 690 -728V-731Q693 -741 695 -752Q691 -756 690 -758H686Q674 -755 662 -748Q667 -760 676 -766Q684 -773 692 -781Q689 -783 685 -785L686 -787Q689 -794 696 -796Q703 -797 711 -800Q721 -805 732 -812Q743 -819 757 -820Q761 -820 769 -818Q773 -817 796 -803Q828 -779 838 -736V-734Q837 -720 831 -708Q824 -697 819 -685Q785 -681 778 -667Q814 -675 850 -683Q847 -680 847 -676Q847 -670 853 -664Q866 -669 881 -672Q888 -672 890 -670Q882 -665 872 -660Q862 -655 861 -646V-643L863 -642Q870 -645 876 -648Q878 -648 880 -646Q876 -639 869 -633Q863 -628 862 -617V-616L865 -614H871Q863 -604 863 -590Q863 -580 867 -575Q865 -569 857 -563Q849 -556 847 -551Q788 -546 680 -515Q680 -504 677 -495Q690 -495 716 -509Q746 -525 763 -525Q773 -525 778 -523Q784 -521 792 -512Q800 -503 807 -500Q816 -503 825 -506Q818 -494 818 -487V-482Q827 -489 836 -497Q845 -506 853 -509V-507Q853 -502 845 -495Q831 -482 831 -469Q832 -466 832 -463L834 -462Q835 -462 838 -465Q841 -469 845 -469H847Q840 -463 840 -450Q840 -437 847 -418Q838 -409 838 -395V-392H834Q816 -391 804 -384Q791 -377 782 -371Q782 -380 791 -387Q799 -393 800 -398Q798 -403 791 -403Q788 -403 779 -400Q766 -395 748 -364Q739 -351 731 -339Q724 -328 723 -314Q723 -310 725 -302Q736 -305 746 -325Q754 -343 764 -346Q760 -330 746 -301Q732 -273 728 -254Q731 -253 737 -253Q746 -253 769 -260Q795 -268 809 -268Q819 -268 826 -265Q840 -269 853 -274Q850 -265 846 -256Q846 -252 847 -250H850Q860 -252 870 -255Q872 -255 878 -253Q877 -251 871 -249Q861 -246 861 -239V-233Q865 -231 868 -230Q866 -223 858 -209Q848 -192 848 -182Q848 -177 849 -175Q820 -182 778 -182Q752 -182 728 -179Q724 -175 724 -165Q725 -154 725 -144Q725 -130 719 -128Q714 -130 714 -141V-155Q714 -165 710 -166Q701 -166 698 -148Q697 -142 697 -129Q697 -68 717 -58Q723 -62 723 -71Q721 -86 718 -101Q718 -103 720 -107Q728 -106 729 -97Q729 -88 732 -82Q739 -76 739 -67Q739 -53 723 -32Q763 -13 797 -13Q815 -13 831 -21Q831 -38 834 -52H836Q839 -52 839 -49Q839 -46 841 -44Q848 -52 848 -72Q848 -86 847 -101Q847 -119 853 -127Q857 -113 857 -78Q857 -49 861 -34Q869 -45 870 -72Q871 -100 872 -124V-132Q872 -170 884 -178V-165Q882 -115 880 -66Q880 -38 883 -25Q886 -33 889 -53Q892 -76 896 -84Q901 -80 901 -72Q900 -62 899 -52V-49Q900 -32 911 -10Z"/>
</svg>