<svg xmlns="http://www.w3.org/2000/svg" viewBox="0 -800 1024 1024">
	<path fill="#000000" d="M119 -342Q107 -335 92 -340Q68 -351 62 -359Q54 -370 50 -402V-423Q50 -440 48 -448Q48 -452 47 -456Q47 -485 73 -500Q76 -508 93 -537Q96 -546 101 -556Q105 -566 117 -567Q108 -537 99 -508Q104 -502 108 -497Q125 -526 141 -555Q161 -589 174 -612Q175 -617 176 -622Q176 -641 164 -643H162Q150 -643 143 -619Q137 -598 130 -594Q126 -597 126 -606Q126 -623 138 -623Q137 -625 137 -628Q138 -634 138 -640V-642L135 -643Q127 -640 119 -638H118Q121 -643 126 -657Q131 -671 137 -678Q148 -693 167 -706Q172 -710 182 -722Q191 -733 198 -737Q221 -737 230 -734Q246 -716 273 -701Q300 -685 303 -654Q303 -647 302 -641Q301 -635 285 -613Q262 -581 262 -569Q324 -580 374 -619Q376 -610 378 -609L409 -629Q410 -621 400 -610Q388 -597 390 -586V-581Q392 -580 396 -580Q405 -583 414 -587H417Q405 -563 405 -559Q407 -551 417 -550Q421 -530 410 -514Q403 -514 396 -514Q366 -510 327 -499Q313 -495 300 -487Q287 -480 287 -467Q287 -463 289 -461Q302 -463 326 -472Q357 -483 376 -485Q392 -487 400 -486Q400 -480 396 -478Q392 -476 388 -475Q358 -466 328 -457Q237 -420 175 -387Q129 -363 119 -342ZM345 5Q346 3 361 -17Q355 -21 349 -16Q342 -11 337 -9Q334 -9 309 11Q312 16 317 16Q325 15 333 13H336V14Q336 20 331 23Q326 26 318 31Q306 42 293 52Q270 69 255 69Q238 69 234 50Q220 50 212 40Q204 30 204 16Q204 -18 214 -29Q211 -36 211 -45Q211 -73 246 -87Q243 -79 239 -71Q239 -68 240 -66Q242 -66 257 -73Q255 -90 253 -108V-120Q253 -154 248 -159Q241 -153 241 -132V-121Q241 -98 232 -92Q228 -117 223 -142H217Q186 -124 154 -107Q125 -94 106 -109Q100 -135 89 -147L96 -168Q92 -175 79 -187Q66 -198 62 -207Q79 -199 96 -192L97 -194Q94 -200 94 -201V-203Q100 -200 104 -200Q125 -202 173 -223Q205 -237 220 -241Q220 -264 213 -272Q201 -264 171 -256Q163 -252 145 -247Q141 -246 134 -249Q113 -272 81 -272Q81 -285 93 -292Q92 -295 92 -302Q92 -319 108 -330Q122 -340 143 -344Q160 -353 176 -363Q213 -374 272 -395Q307 -405 343 -421V-420Q344 -418 342 -418Q339 -418 338 -417L342 -416Q352 -419 361 -423H363Q354 -412 355 -403Q355 -398 360 -394Q368 -399 371 -399Q366 -395 366 -386Q367 -376 377 -364Q365 -348 368 -320Q364 -322 362 -321Q358 -321 357 -317Q355 -314 354 -311Q342 -307 328 -305Q329 -310 336 -317Q342 -323 343 -329Q338 -333 330 -333Q321 -332 313 -325Q305 -319 297 -313Q287 -309 278 -305Q269 -301 268 -293Q275 -291 276 -292Q288 -298 302 -309Q300 -286 298 -264Q340 -286 381 -308Q410 -317 416 -318Q409 -309 401 -301Q411 -303 421 -305Q414 -296 407 -288Q414 -252 403 -228Q396 -219 367 -203Q339 -187 327 -184Q311 -184 301 -172Q298 -161 294 -140Q290 -119 292 -90Q345 -118 393 -136V-134Q393 -132 387 -123Q378 -110 378 -102L379 -98Q384 -98 388 -103Q392 -108 395 -108Q396 -108 400 -106Q390 -98 390 -86Q390 -80 397 -80H400Q392 -63 392 -33Q390 -29 374 -14Q362 -2 345 5ZM924 -254Q926 -256 934 -256Q935 -254 935 -251Q932 -242 928 -233Q926 -238 924 -254ZM725 -215H724V-220Q724 -237 736 -237H739Q740 -234 740 -232Q738 -216 725 -215ZM917 -653Q916 -641 904 -629Q901 -633 901 -641Q901 -655 910 -655Q911 -655 917 -653ZM585 94H584Q577 91 569 88H568Q556 69 544 50Q531 31 529 2Q528 -4 523 -5H522Q524 -7 526 -8Q528 -9 528 -12V-14Q524 -20 516 -23Q508 -26 502 -29Q505 -32 509 -32Q519 -30 529 -28Q522 -38 510 -43Q498 -48 488 -55Q490 -57 495 -57Q507 -54 518 -52H519Q526 -52 534 -57Q541 -61 545 -62Q550 -168 556 -263Q542 -257 537 -257Q530 -257 522 -262Q509 -239 509 -213Q509 -187 504 -153Q503 -147 490 -103Q486 -89 478 -80Q469 -70 460 -70Q449 -70 442 -84Q437 -83 436 -78Q435 -74 433 -70L432 -73Q432 -81 436 -85Q433 -95 423 -108Q414 -119 412 -127Q410 -133 410 -147Q411 -166 412 -185Q412 -202 407 -213L408 -215Q412 -209 416 -204Q412 -232 412 -234V-240Q419 -231 431 -217Q442 -237 444 -256Q445 -276 452 -308Q461 -332 463 -351V-353Q461 -359 452 -370Q442 -382 436 -382H435Q429 -395 422 -409Q438 -461 481 -535Q486 -545 491 -556Q496 -567 506 -572Q505 -560 495 -540Q482 -515 482 -502Q482 -496 483 -493Q499 -506 512 -537Q524 -568 537 -595Q548 -613 552 -632Q552 -643 541 -647Q533 -641 527 -622Q521 -604 517 -599Q515 -605 515 -609Q519 -623 522 -638Q522 -648 508 -674Q535 -713 559 -713H562Q568 -711 573 -706Q580 -704 586 -703Q594 -698 601 -691Q608 -684 617 -683Q618 -667 628 -635Q637 -605 637 -588Q637 -584 635 -572Q631 -560 620 -552Q608 -544 597 -535Q591 -530 571 -503Q558 -486 545 -470Q534 -452 534 -440Q534 -430 541 -424Q550 -427 560 -435Q576 -448 590 -449Q587 -439 571 -429Q551 -416 550 -400Q566 -408 589 -425Q623 -450 638 -457Q635 -465 628 -465Q622 -465 612 -461V-463Q613 -475 624 -481Q635 -487 643 -496Q648 -503 650 -513Q652 -522 660 -524Q658 -512 655 -501Q655 -497 656 -494L658 -493Q661 -496 663 -499H664V-497Q663 -492 662 -487V-485H663Q675 -477 680 -460V-458Q678 -444 676 -430V-427Q679 -421 681 -416V-413Q681 -407 680 -401Q682 -392 684 -383V-382Q684 -361 648 -320Q618 -284 614 -260Q614 -233 608 -199Q601 -202 601 -215Q602 -226 602 -237Q602 -245 599 -251Q583 -243 583 -211V-203Q584 -193 584 -171V-137Q584 -72 594 -50Q603 -63 603 -100V-119Q603 -145 606 -155Q617 -130 618 -87Q619 -45 620 -5Q621 3 621 16Q621 27 618 43Q616 58 605 75Q594 93 585 94ZM963 55V57Q964 62 964 67Q961 91 944 103Q940 104 934 104Q914 101 903 94Q857 52 845 -1Q856 4 869 26Q883 49 895 52Q897 50 897 45Q897 36 884 20Q855 -27 822 -70Q819 -65 819 -62Q823 -46 831 -35L829 -34Q825 -35 821 -37Q819 -37 817 -35Q799 -63 781 -92Q769 -89 769 -68Q727 -35 720 11Q712 16 709 27Q710 30 710 32Q697 29 688 22H686Q682 26 677 29L676 28Q675 8 653 -1Q653 -9 644 -21Q637 -31 636 -38V-42Q639 -55 641 -68V-76Q640 -101 638 -126V-134Q643 -132 645 -120Q645 -143 633 -205Q641 -199 648 -163Q657 -125 662 -116Q678 -138 692 -163Q700 -179 705 -187Q713 -200 723 -205Q720 -190 709 -169Q696 -146 694 -131Q713 -144 730 -173Q737 -185 757 -230Q766 -245 768 -260Q768 -262 766 -268H764Q759 -268 755 -260Q749 -250 743 -250H741Q749 -279 749 -286Q749 -295 743 -301Q758 -343 807 -347Q814 -356 824 -382Q832 -403 839 -413Q803 -406 785 -381Q767 -355 749 -328Q741 -329 729 -338Q718 -346 714 -346L710 -345Q708 -357 700 -386Q688 -428 688 -451Q689 -459 689 -467Q693 -476 697 -486Q702 -518 706 -551Q710 -576 715 -586Q718 -578 718 -569Q716 -544 713 -519Q713 -508 717 -500Q725 -514 731 -543Q736 -572 741 -598Q749 -630 749 -632V-635Q749 -646 746 -655Q742 -667 735 -667H734Q727 -666 727 -644Q726 -620 721 -618Q715 -618 715 -624Q715 -629 718 -638Q715 -645 715 -662Q703 -659 698 -648Q693 -638 688 -626Q686 -634 686 -637Q690 -658 700 -674Q709 -701 721 -733Q733 -764 754 -769H758Q774 -769 792 -749Q819 -718 820 -718V-713Q820 -704 827 -693Q833 -684 833 -679V-674Q828 -642 810 -610Q801 -589 791 -571Q782 -554 778 -530H782Q790 -530 802 -540Q819 -554 832 -554Q842 -568 853 -581Q864 -594 884 -596Q895 -609 903 -623Q904 -622 904 -618Q903 -609 902 -600Q902 -596 904 -592Q909 -596 917 -608Q925 -620 931 -624L932 -621Q927 -610 922 -593Q922 -587 928 -584H929Q931 -584 932 -588Q933 -593 937 -593H940L942 -591Q938 -584 934 -577Q949 -562 950 -540Q950 -519 952 -493Q956 -471 960 -449Q960 -442 957 -436Q945 -424 944 -413Q937 -417 929 -417Q914 -417 895 -391Q866 -353 843 -279Q858 -261 858 -235Q858 -224 855 -215Q843 -212 835 -205Q828 -198 820 -190Q821 -172 829 -162Q836 -152 843 -141H844Q848 -141 854 -134Q859 -128 862 -127Q872 -95 905 -82Q909 -94 911 -124Q914 -154 917 -166Q921 -155 921 -126V-118Q921 -95 923 -85Q927 -117 929 -226Q934 -201 934 -159V-133Q934 -99 938 -75Q943 -91 943 -133Q943 -177 949 -194Q954 -143 954 -61V-59Q956 -57 958 -56V-55Q958 -38 964 -9Q970 20 970 32V38Q967 47 963 55Z"/>
</svg>