<svg xmlns="http://www.w3.org/2000/svg" viewBox="0 -800 1024 1024">
	<path fill="#000000" d="M494 73Q492 80 480 80Q466 80 462 78V76Q462 71 483 71Q488 71 494 73ZM873 -288Q869 -296 869 -306Q869 -313 871 -316Q879 -315 879 -307Q876 -297 873 -288ZM166 -649H164Q162 -657 162 -662Q162 -672 172 -672H175Q173 -670 173 -660Q172 -649 166 -649ZM567 -351V-373Q526 -368 500 -344Q550 -348 567 -351ZM564 -526H568Q564 -541 549 -541Q521 -535 498 -529H496Q497 -526 504 -523Q510 -520 510 -515V-514Q538 -523 564 -526ZM570 -456Q512 -456 512 -427Q512 -421 513 -418Q538 -428 568 -430Q569 -431 569 -435Q569 -441 568 -448Q568 -454 570 -456ZM666 -205Q647 -189 646 -187Q650 -184 653 -175Q656 -167 660 -163Q652 -162 651 -159Q650 -155 646 -150H650Q657 -150 664 -151Q669 -151 671 -150Q668 -147 653 -144Q634 -140 632 -134Q634 -132 603 -112Q579 -108 575 -99Q572 -93 722 -117Q745 -116 755 -111Q762 -113 768 -116Q766 -106 766 -99Q766 -73 788 -73H790Q789 -69 789 -59Q789 -57 795 -3Q787 -1 756 19Q736 32 730 34V32Q732 23 747 9Q762 -6 768 -13Q769 -16 769 -22V-32Q766 -34 763 -36Q734 -30 698 10Q688 22 683 44Q680 57 677 83Q691 80 701 68Q705 63 708 57Q712 51 721 50Q719 59 708 71Q698 82 696 86Q689 101 672 123Q665 118 641 116Q619 114 612 110Q611 100 597 98Q598 95 602 93Q595 89 584 89Q575 90 566 90Q558 90 552 87Q558 81 576 81Q585 82 593 82Q590 76 584 76Q576 77 567 77L503 73Q515 69 546 67Q573 66 583 63Q563 61 550 61Q513 61 480 64Q466 67 451 69Q422 69 417 64Q434 60 492 55Q563 49 586 40Q593 33 597 25Q593 27 592 30Q579 27 529 31Q521 33 516 33Q507 32 497 31V30Q497 27 502 27L506 26Q509 26 511 24Q509 15 477 17Q465 17 460 22Q463 27 471 27Q479 27 486 27V32Q466 32 455 33Q410 37 384 42Q388 36 405 34Q415 32 425 30L428 29H440Q448 29 450 24Q449 19 438 21H424Q353 26 337 50Q341 51 344 50Q362 50 365 52Q357 56 310 56Q305 61 303 70Q301 79 291 85Q264 95 233 102H232Q232 101 233 100Q251 91 246 90Q191 74 158 88Q150 84 148 73Q147 57 157 42Q140 32 119 39Q97 45 81 47Q80 47 80 46Q120 30 161 14Q185 -15 196 -22Q205 -27 212 -21Q230 -9 241 -16Q266 -41 284 -44Q272 -28 259 -13Q264 -10 287 -10Q311 -6 335 -2Q386 -5 389 -3H391Q438 -8 484 -14Q490 -14 517 -17Q536 -22 555 -27Q558 -34 561 -41Q564 -34 567 -28Q572 -25 577 -25Q587 -27 596 -29H597Q590 -25 590 -20Q591 -18 597 -15Q604 -16 611 -18H614Q610 -13 605 -8Q606 -4 612 -4Q625 -34 638 -46L630 -60Q628 -59 617 -57V-51H615Q569 -51 567 -49L553 -48Q549 -48 544 -48Q518 -44 491 -40Q486 -40 481 -41Q492 -50 512 -54V-59H500Q484 -59 476 -55Q470 -52 455 -51Q437 -50 433 -42Q433 -40 437 -37H439Q449 -39 459 -42Q470 -44 475 -39Q444 -31 428 -21Q417 -21 399 -12Q396 -12 392 -13Q388 -13 376 -11Q368 -18 358 -26Q348 -34 347 -45Q347 -69 356 -77Q361 -88 390 -110V-114Q387 -117 380 -117Q378 -117 375 -117Q373 -115 371 -113Q358 -115 337 -117Q317 -119 311 -127Q311 -130 308 -135Q302 -131 300 -133Q297 -136 301 -145L299 -146Q286 -135 284 -131Q265 -94 237 -81Q208 -67 186 -58Q182 -59 177 -60Q162 -60 147 -77Q133 -93 121 -93Q116 -93 108 -90Q109 -101 116 -111Q114 -119 108 -120Q109 -122 109 -125Q109 -134 100 -153Q91 -173 90 -184Q108 -166 112 -163Q114 -165 114 -170Q111 -181 105 -190Q82 -230 61 -271Q83 -245 103 -217Q123 -189 158 -175Q171 -180 172 -180Q176 -180 179 -177Q221 -197 263 -217Q254 -228 242 -233Q229 -239 218 -247Q216 -253 216 -255Q216 -261 221 -270Q225 -278 226 -282Q230 -294 232 -304Q233 -314 240 -322Q264 -347 296 -357Q282 -345 279 -335Q285 -330 302 -330H307Q329 -330 333 -322Q325 -319 314 -318Q303 -318 301 -309Q316 -306 331 -306Q388 -310 440 -322Q435 -328 425 -328Q412 -326 398 -324H362Q372 -331 406 -336Q435 -340 446 -346Q434 -351 415 -351Q400 -366 383 -366L385 -369Q385 -371 380 -373Q390 -383 405 -387Q421 -391 435 -396V-401L431 -402Q411 -399 391 -396Q376 -396 371 -404Q369 -412 369 -417Q361 -422 352 -427Q355 -462 369 -486Q395 -487 421 -495V-497Q420 -502 418 -508Q360 -503 346 -474Q349 -468 349 -462Q347 -448 344 -435H342Q337 -434 332 -433H330Q328 -427 328 -421Q316 -419 307 -415Q310 -427 314 -435Q310 -438 303 -438Q292 -436 280 -435H278Q256 -440 234 -445Q225 -445 220 -441Q226 -429 252 -424Q277 -420 286 -409Q277 -406 270 -406Q256 -406 227 -418Q200 -429 187 -429Q172 -429 161 -418V-420Q164 -430 169 -438Q164 -453 143 -453Q112 -450 101 -436Q110 -459 127 -474L123 -475Q114 -472 106 -467V-470Q106 -478 115 -483Q109 -489 93 -515Q81 -536 67 -544Q67 -550 80 -550Q76 -562 76 -566Q76 -588 96 -601L92 -618L93 -620Q94 -620 105 -609Q126 -612 147 -615H151Q160 -625 166 -637Q168 -629 170 -621Q187 -615 204 -610Q215 -633 228 -639Q225 -633 225 -619Q225 -605 228 -598Q259 -586 285 -570Q327 -575 396 -594Q456 -611 484 -616Q476 -658 465 -676Q448 -703 412 -703H404Q411 -713 425 -717Q438 -722 449 -727L450 -729Q449 -732 448 -735L449 -738Q486 -761 522 -786Q530 -779 545 -779Q555 -779 568 -784Q572 -776 593 -762Q612 -749 615 -735Q610 -735 604 -739Q593 -746 585 -746Q581 -746 579 -745Q577 -741 577 -735Q582 -714 593 -696Q587 -685 580 -675Q581 -672 589 -664Q600 -673 612 -684Q623 -694 624 -710Q624 -713 623 -717Q631 -715 635 -708Q639 -700 644 -694Q613 -675 606 -639Q623 -646 670 -652Q706 -657 727 -663Q795 -684 836 -685Q842 -684 847 -684H850Q858 -686 869 -696Q881 -707 888 -708Q882 -701 875 -695Q869 -688 868 -676Q871 -672 877 -670Q888 -677 902 -684Q899 -676 896 -669Q896 -665 900 -661Q912 -665 923 -670Q923 -665 918 -658Q913 -651 913 -647V-646Q917 -640 923 -634Q925 -630 925 -621Q928 -604 942 -573Q930 -557 917 -543H912Q901 -542 889 -541Q881 -541 878 -546Q879 -554 892 -558Q902 -561 904 -564Q896 -579 879 -579Q849 -574 821 -558Q780 -538 771 -523H776Q785 -523 802 -533Q819 -543 827 -544H834Q845 -544 846 -536Q814 -528 791 -510Q767 -492 742 -474L743 -477Q740 -488 730 -495Q721 -495 715 -492L714 -494Q714 -497 721 -502Q717 -506 712 -510H711Q707 -510 703 -505Q700 -501 698 -501H696V-502Q696 -508 703 -514Q707 -518 709 -522H705Q696 -519 686 -516Q694 -528 716 -547Q735 -564 743 -574H733Q700 -574 650 -561Q651 -556 657 -550Q662 -545 663 -541Q670 -546 679 -546Q684 -546 686 -544Q686 -541 681 -538Q676 -535 676 -531Q677 -530 681 -530Q686 -530 686 -528Q682 -523 682 -515Q682 -514 685 -490Q641 -477 641 -451Q641 -445 644 -439Q651 -440 657 -442L656 -439Q656 -436 660 -435Q672 -438 683 -441Q682 -436 680 -431V-429Q686 -423 694 -421Q687 -417 676 -414V-411Q676 -404 680 -400Q680 -397 675 -395Q671 -393 671 -390L672 -387L626 -381Q622 -376 620 -367Q623 -366 630 -366Q655 -369 680 -372Q688 -372 697 -369Q690 -361 659 -358Q634 -356 625 -349Q629 -344 636 -344Q642 -344 650 -346Q675 -349 703 -351Q731 -353 747 -364Q741 -367 717 -369Q721 -377 743 -381Q766 -385 771 -393Q770 -390 770 -385Q771 -369 790 -366Q808 -364 825 -363Q801 -361 801 -348Q801 -345 802 -343L804 -342Q809 -343 813 -345Q804 -338 801 -325Q799 -312 794 -301H777Q764 -301 703 -294Q764 -243 845 -203Q852 -214 859 -225Q860 -223 860 -217V-213Q860 -204 862 -200Q867 -211 867 -237Q868 -265 871 -274Q876 -264 877 -241Q879 -212 885 -203Q885 -279 892 -309Q898 -292 898 -244Q898 -191 908 -172Q910 -174 911 -181Q912 -189 916 -190Q918 -171 920 -163Q924 -148 932 -144V-136Q932 -105 915 -86Q899 -68 877 -68Q872 -68 864 -70Q840 -76 802 -106Q756 -142 745 -148Q714 -156 693 -180Q683 -192 666 -205ZM660 -210Q652 -217 641 -223Q632 -216 632 -209Q632 -204 641 -198H643Q645 -198 648 -204Q652 -211 654 -211Q657 -211 660 -210ZM638 -226Q623 -236 608 -246Q612 -253 615 -261Q610 -261 603 -268Q554 -260 505 -253Q468 -248 440 -243Q411 -239 393 -223Q374 -216 343 -198Q361 -197 378 -197Q386 -197 400 -201Q412 -204 414 -204Q418 -204 419 -200Q401 -196 399 -189Q402 -188 408 -188Q421 -188 431 -191Q480 -204 528 -218Q503 -220 504 -223Q506 -225 508 -227Q524 -232 540 -238Q550 -243 571 -243Q583 -243 600 -236Q615 -230 625 -230Q620 -223 625 -220Q632 -221 638 -226ZM457 -134Q474 -109 465 -89Q482 -100 492 -101H495Q501 -102 507 -104V-114Q509 -121 518 -133Q530 -149 531 -156Q510 -154 457 -134Z"/>
</svg>