<svg xmlns="http://www.w3.org/2000/svg" viewBox="0 -800 1024 1024">
	<path fill="#000000" d="M869 -483V-482Q869 -470 857 -470Q853 -470 850 -473Q854 -484 863 -484Q867 -484 869 -483ZM712 -310Q709 -303 688 -303Q692 -313 703 -315Q710 -315 712 -310ZM63 -320H62V-333Q72 -339 80 -339Q77 -333 74 -326Q71 -320 63 -320ZM706 -597Q702 -592 693 -592Q685 -592 681 -596Q685 -604 697 -605Q706 -605 706 -597ZM287 73Q281 75 274 75Q262 75 259 70Q261 62 269 62Q282 64 287 73ZM500 16Q484 16 468 17Q453 18 446 27Q458 31 473 31Q496 31 500 16ZM690 -522Q625 -520 607 -505Q617 -502 631 -489Q641 -480 648 -476Q653 -490 666 -502Q669 -505 690 -522ZM574 -62Q571 -68 571 -71Q571 -74 574 -76Q518 -76 493 -69Q496 -49 525 -49Q555 -49 574 -62ZM469 -120H503Q505 -127 513 -139Q521 -151 523 -159Q516 -162 508 -162Q513 -169 517 -177Q467 -176 441 -163Q444 -156 454 -146Q469 -131 469 -121ZM653 -361V-358Q654 -344 661 -337Q668 -330 673 -321Q662 -330 648 -330Q634 -330 634 -317Q613 -329 589 -338Q564 -347 549 -367Q551 -377 551 -381Q551 -384 549 -392Q561 -407 588 -407Q624 -407 634 -386Q649 -389 651 -389Q649 -383 647 -378Q650 -375 661 -375H670Q662 -368 653 -361ZM697 132H692Q673 132 628 115Q632 110 642 110Q652 111 662 111Q671 111 675 107Q649 77 580 77Q570 78 559 78Q576 86 592 92Q587 97 578 97Q569 97 552 91Q532 84 525 84H524Q507 89 499 108Q491 126 473 134Q470 131 465 131Q452 132 450 147V149Q446 140 441 131H439Q431 131 416 119Q396 103 380 103H377V102Q379 100 380 97Q371 94 344 88Q311 81 297 73Q323 74 353 80Q383 86 398 87Q397 85 393 85Q389 86 389 83V82Q394 83 404 83Q423 83 431 70Q425 67 419 67Q398 71 377 75H373Q365 72 353 58Q337 40 324 39H322Q314 39 296 48Q284 54 275 56Q259 51 243 45Q242 33 224 26Q210 21 208 13V11Q208 0 217 -9Q246 -33 308 -34Q370 -35 414 -44Q414 -51 413 -53Q407 -54 395 -54Q369 -54 315 -43Q266 -33 242 -33H234Q241 -44 284 -53Q317 -57 343 -65Q342 -72 334 -72Q328 -71 321 -71Q248 -71 160 -33Q163 -29 168 -29Q175 -29 181 -30H184L187 -15Q179 -13 167 -8Q153 -2 145 -2H143Q137 -3 122 -11Q106 -20 96 -20Q91 -20 89 -19Q82 -25 75 -31Q75 -33 74 -36Q74 -43 81 -52Q87 -59 87 -63V-66Q87 -72 86 -78Q86 -85 95 -93Q117 -104 151 -114Q180 -126 208 -128Q202 -123 187 -115Q170 -106 164 -100Q169 -90 184 -90Q192 -90 196 -91Q332 -106 379 -114Q370 -122 361 -131V-133Q361 -135 366 -145H364Q359 -144 354 -144H352Q322 -145 308 -164Q295 -183 281 -203V-205Q283 -209 284 -214Q280 -224 263 -231Q266 -234 270 -234Q283 -230 295 -226H297Q291 -232 281 -239Q266 -249 262 -254Q268 -253 279 -247Q295 -239 302 -239Q307 -239 309 -240Q309 -246 287 -251Q289 -254 292 -254Q301 -250 309 -247Q312 -260 336 -260Q360 -260 360 -246Q345 -246 340 -234Q341 -227 354 -227H361Q365 -227 367 -225Q409 -234 444 -247Q440 -250 429 -250Q414 -249 398 -248Q386 -248 382 -254Q397 -264 424 -263Q447 -262 453 -279Q444 -293 428 -309Q430 -313 430 -314Q428 -320 425 -326Q430 -340 432 -344Q438 -354 447 -357Q444 -416 441 -476Q405 -472 389 -462Q402 -457 417 -456Q406 -453 406 -443Q406 -435 412 -428Q418 -421 426 -421H428Q418 -416 407 -414Q404 -409 404 -405V-402Q390 -397 376 -393Q386 -374 410 -367L411 -365Q407 -359 402 -354Q400 -346 400 -343Q400 -336 402 -326H397Q377 -322 356 -319Q354 -319 351 -320Q344 -322 330 -338Q315 -355 306 -358Q306 -362 310 -363Q314 -364 315 -366V-368Q315 -373 314 -378V-381Q322 -383 331 -389Q343 -397 351 -398Q346 -407 330 -421Q314 -435 309 -442Q290 -435 288 -417Q291 -407 297 -398Q298 -396 298 -392V-385Q298 -381 300 -379H292Q288 -379 285 -378Q280 -389 277 -390Q265 -387 256 -381Q247 -375 237 -370Q195 -376 192 -376Q183 -376 179 -375Q186 -362 203 -359Q219 -355 232 -349Q243 -349 259 -357Q273 -364 283 -364H285Q277 -333 236 -333Q213 -333 163 -348Q158 -347 154 -340Q150 -334 148 -334L145 -335L144 -338Q144 -340 147 -343Q151 -347 151 -351Q144 -366 128 -366Q98 -362 86 -345Q89 -361 112 -376Q100 -394 83 -394Q75 -394 69 -389L68 -391Q72 -396 78 -402Q74 -412 70 -422Q66 -432 53 -433H50Q53 -442 53 -455Q53 -475 60 -483Q51 -498 38 -510L42 -511Q48 -511 60 -505Q63 -509 65 -523Q67 -542 78 -543Q66 -573 47 -619Q57 -611 69 -590Q84 -564 98 -558Q95 -567 91 -577L92 -580Q101 -578 113 -567Q128 -553 142 -552Q145 -554 152 -571Q159 -540 180 -540H182Q186 -547 188 -554Q190 -562 198 -565V-564Q195 -553 192 -542Q193 -539 193 -537Q195 -528 204 -523Q213 -519 220 -514Q269 -527 315 -533Q361 -539 413 -549Q417 -557 419 -567Q420 -578 428 -582Q424 -583 417 -583Q404 -583 382 -574Q362 -566 353 -566Q339 -566 327 -577Q319 -588 309 -599Q299 -607 290 -615Q281 -623 280 -640Q280 -647 281 -652Q287 -663 293 -675Q291 -689 291 -695Q291 -730 320 -751Q331 -759 379 -780Q374 -775 371 -760Q369 -746 363 -740Q368 -727 382 -717Q514 -732 628 -763Q625 -771 618 -773Q616 -774 602 -775H597Q566 -775 505 -759Q450 -744 425 -744Q431 -755 444 -759Q457 -763 470 -765Q512 -774 524 -775Q530 -778 536 -781H541Q556 -781 579 -791Q602 -801 616 -801H620Q638 -809 657 -809Q693 -809 703 -786Q716 -789 729 -792Q737 -792 743 -787Q741 -785 729 -781Q714 -776 712 -768Q713 -762 721 -762Q726 -762 731 -763L735 -762Q733 -759 726 -757Q716 -755 715 -747Q715 -738 726 -738Q713 -728 713 -689Q713 -672 715 -654Q704 -643 686 -639Q669 -636 648 -634Q623 -627 598 -621Q576 -618 557 -616Q537 -613 524 -600Q528 -585 537 -574Q548 -578 617 -590Q629 -592 641 -594Q647 -594 651 -590Q628 -582 597 -577Q566 -572 545 -556Q549 -555 557 -555Q586 -559 619 -568Q647 -572 675 -576Q686 -579 696 -582Q702 -583 714 -583H733Q755 -583 767 -590Q766 -597 750 -597Q738 -597 735 -600Q737 -610 745 -610Q753 -610 759 -611Q787 -616 801 -627Q807 -631 812 -641Q819 -653 826 -657V-654Q827 -648 827 -642Q835 -637 845 -637Q861 -638 874 -649Q887 -660 899 -669Q899 -666 893 -658Q885 -648 885 -642Q885 -638 888 -634Q899 -641 909 -649Q902 -642 902 -635Q902 -630 908 -627H909Q915 -631 918 -635L919 -634Q916 -628 916 -620Q916 -607 921 -599Q927 -589 938 -588Q935 -582 935 -577Q935 -568 943 -549Q950 -533 950 -525V-524Q949 -516 941 -504Q936 -496 933 -489L918 -487Q902 -483 886 -480Q880 -480 876 -484Q881 -491 895 -499Q912 -508 915 -517Q911 -532 884 -536Q873 -528 864 -517Q855 -506 841 -504H839Q835 -504 831 -505H829Q790 -498 741 -420Q754 -424 784 -448Q811 -469 836 -471Q811 -441 780 -417Q748 -393 717 -367Q720 -373 720 -377Q720 -388 706 -388Q689 -388 684 -378L683 -382Q683 -386 688 -391Q694 -396 694 -399Q670 -416 657 -417H655Q638 -412 620 -407Q597 -407 570 -432Q557 -430 543 -424V-427Q543 -431 549 -437Q554 -442 555 -445Q545 -459 539 -476Q555 -490 571 -504Q568 -505 562 -505Q520 -505 520 -429Q521 -403 521 -378V-373Q538 -364 558 -353Q578 -342 580 -320V-318Q580 -312 573 -304Q565 -294 565 -285V-282Q582 -282 616 -291Q648 -299 666 -299Q677 -299 682 -298Q673 -293 664 -289V-287Q664 -284 668 -284Q671 -284 672 -282Q698 -294 718 -295H730Q729 -294 724 -294Q695 -289 687 -270Q700 -272 712 -275Q710 -272 704 -270Q698 -267 697 -259V-258Q697 -254 701 -254Q704 -254 706 -255Q703 -251 701 -242Q699 -232 694 -228Q696 -222 696 -220Q696 -216 691 -204Q652 -204 617 -198V-197Q619 -190 631 -189Q634 -189 640 -191L642 -190Q641 -188 640 -186V-185L643 -184Q646 -185 648 -186H650Q651 -183 651 -179Q651 -173 646 -165Q642 -159 642 -154Q604 -152 589 -129Q655 -130 720 -132Q786 -133 832 -154Q830 -148 827 -143V-142Q832 -135 849 -135H867Q862 -133 862 -129Q862 -125 867 -120H881Q886 -120 887 -119Q882 -114 876 -114Q880 -105 880 -95Q880 -87 879 -79Q868 -65 846 -65Q820 -68 794 -71Q778 -73 763 -73Q748 -73 737 -81Q742 -86 753 -86Q762 -85 771 -85Q796 -82 821 -79Q835 -79 845 -84Q833 -98 795 -102Q765 -104 744 -104Q671 -104 635 -93Q643 -88 668 -88Q697 -88 705 -81Q700 -76 688 -76Q675 -76 661 -77Q652 -77 648 -76Q658 -56 693 -56Q695 -56 737 -59Q737 -55 731 -53Q727 -52 727 -50Q733 -47 740 -47Q751 -48 761 -50Q755 -44 746 -40Q754 -37 758 -16H756Q751 -16 747 -12Q745 -10 740 -3Q719 1 702 13Q681 6 657 6Q596 7 571 50Q613 55 653 63Q661 56 670 51L669 54Q669 57 672 57Q675 42 678 27Q682 32 685 47Q688 62 690 66Q695 56 696 44Q696 53 710 64Q722 73 724 79Q726 87 726 91Q726 106 718 118Q709 130 697 132Z"/>
</svg>