<svg xmlns="http://www.w3.org/2000/svg" viewBox="0 -800 1024 1024">
	<path fill="#000000" d="M498 -221V-215Q498 -201 491 -195Q486 -197 486 -207Q486 -222 494 -222ZM580 -138Q576 -138 575 -136Q563 -143 560 -157Q560 -159 562 -163Q570 -160 573 -153Q577 -145 580 -138ZM276 -132H278Q274 -137 259 -146Q245 -155 238 -163Q241 -141 247 -123H249Q256 -123 265 -128Q272 -132 276 -132ZM349 -425Q345 -456 344 -469L340 -470Q325 -469 321 -458Q322 -456 327 -453Q333 -450 334 -446Q332 -438 332 -431Q332 -422 335 -418Q344 -421 349 -425ZM259 -245L260 -246L257 -247Q229 -216 229 -199Q229 -189 236 -181Q252 -211 259 -245ZM378 -85Q348 -77 315 -65Q281 -54 266 -34Q316 -53 371 -67Q375 -76 378 -85ZM418 -290Q421 -312 424 -334Q397 -326 389 -321Q372 -311 372 -292Q372 -282 374 -276Q401 -287 418 -290ZM399 -173V-176Q399 -186 402 -190H399Q382 -190 367 -175Q363 -177 358 -177Q353 -177 347 -175Q323 -190 323 -231Q323 -256 332 -285Q332 -287 328 -287Q313 -258 308 -215Q304 -172 298 -136Q312 -142 325 -150Q337 -157 356 -158Q362 -169 380 -169H384Q388 -162 395 -160Q399 -163 399 -173ZM750 81H747Q724 79 709 72Q700 67 680 34Q663 7 654 -1Q642 -7 633 -17Q635 -20 636 -20Q644 -15 651 -10Q648 -23 630 -44Q610 -66 609 -79H610Q614 -79 626 -64Q634 -51 644 -45Q637 -59 615 -88Q594 -116 586 -130Q606 -117 620 -98Q634 -80 649 -63V-66Q649 -79 632 -95Q621 -105 618 -112Q608 -132 586 -167Q566 -198 558 -214L560 -215Q561 -212 562 -210Q570 -203 578 -196Q583 -188 587 -180Q596 -171 605 -163Q619 -143 632 -123Q646 -104 666 -92Q666 -97 659 -102Q652 -106 652 -112Q655 -112 669 -106Q696 -145 696 -256Q696 -294 695 -311V-339Q695 -372 686 -388Q667 -382 648 -377Q640 -374 626 -361Q612 -349 605 -348H603Q586 -348 563 -371Q556 -366 547 -354Q535 -338 528 -334Q520 -310 507 -290Q505 -296 505 -299Q505 -305 510 -317Q514 -327 514 -332Q514 -338 510 -342Q484 -330 474 -268Q463 -210 457 -138Q456 -127 455 -117Q455 -106 462 -100Q471 -109 476 -142Q480 -166 485 -176Q493 -173 493 -163Q492 -155 491 -148Q481 -104 474 -55Q474 3 468 66Q457 73 456 80L435 83Q428 80 419 71Q404 57 393 54Q393 45 385 33Q379 25 378 18Q279 21 236 77Q223 73 206 57Q190 42 180 38Q183 32 183 24Q179 -4 165 -29Q157 -55 149 -81Q144 -93 144 -97Q144 -104 152 -108Q160 -80 165 -64Q171 -49 174 -43Q180 -32 188 -32H189Q189 -62 170 -109Q164 -126 155 -148Q148 -167 134 -169H131Q127 -166 127 -161Q129 -151 131 -141Q131 -135 125 -133Q117 -150 109 -167Q89 -181 73 -198Q56 -216 38 -233Q32 -249 32 -270Q32 -311 48 -333Q40 -361 37 -394Q37 -406 39 -411Q49 -398 50 -379Q55 -362 59 -346Q64 -350 64 -355Q60 -367 55 -383Q55 -387 56 -389Q60 -388 65 -378Q69 -369 74 -369L78 -370L80 -372Q78 -377 76 -383V-385Q83 -385 87 -380Q90 -376 94 -373Q113 -379 135 -382Q138 -380 167 -348Q172 -342 177 -337Q188 -342 199 -348Q213 -356 229 -369Q245 -381 262 -386Q257 -401 254 -417Q222 -393 207 -393Q193 -393 177 -409Q167 -424 162 -452Q158 -468 143 -485Q128 -503 127 -521Q129 -528 130 -535L129 -538Q126 -547 106 -557Q87 -566 84 -574H89Q106 -573 122 -572H127V-575Q127 -582 116 -586Q107 -589 105 -593Q114 -592 122 -592Q133 -592 140 -602Q135 -605 127 -605Q149 -615 164 -632Q180 -648 194 -665Q203 -662 212 -662Q234 -664 256 -667Q265 -667 270 -665Q268 -658 253 -654Q236 -649 236 -638V-637Q245 -632 257 -632Q280 -633 303 -646Q327 -659 346 -668Q396 -688 430 -713Q424 -715 413 -715Q394 -715 363 -699Q334 -684 318 -683Q327 -701 345 -708Q364 -714 381 -721Q415 -737 448 -754Q448 -738 458 -738Q468 -739 480 -749Q493 -759 501 -763Q504 -763 504 -759Q485 -751 485 -732Q486 -729 486 -727Q492 -728 499 -735Q506 -742 510 -743V-741Q506 -728 501 -716Q501 -711 503 -709Q506 -717 515 -719H519Q514 -711 514 -701Q515 -688 521 -675Q527 -662 533 -646Q542 -627 546 -610Q546 -594 530 -573Q516 -555 513 -541Q437 -518 409 -497Q413 -489 413 -483Q410 -469 406 -455Q445 -474 457 -493Q465 -494 478 -500Q493 -507 500 -507Q508 -507 512 -505Q516 -506 517 -512Q519 -520 524 -520H525Q524 -517 524 -510Q524 -485 543 -481Q560 -518 592 -555Q594 -554 596 -550Q598 -546 602 -546H603Q608 -545 613 -545Q627 -545 654 -554Q675 -561 688 -561Q696 -561 700 -560Q699 -551 684 -546Q668 -540 667 -530Q673 -527 680 -527Q700 -529 716 -536Q738 -543 760 -550Q784 -558 808 -566Q832 -573 852 -586Q839 -592 826 -592Q808 -592 774 -579Q747 -569 734 -568V-569Q735 -578 748 -582Q760 -587 772 -590Q795 -597 817 -604Q840 -612 858 -628H862Q871 -628 884 -639Q895 -649 903 -650Q902 -648 902 -643Q902 -633 912 -625H916Q924 -625 937 -632Q948 -638 953 -638Q958 -638 962 -635Q955 -630 946 -625Q937 -619 936 -610Q936 -606 937 -604L940 -603Q947 -606 954 -609Q957 -609 959 -608Q954 -601 952 -592Q952 -588 954 -586L957 -584Q961 -584 964 -585L966 -584Q964 -576 964 -573Q967 -558 969 -543V-541Q963 -527 959 -512Q959 -508 960 -506Q943 -471 942 -455Q865 -449 811 -430Q816 -416 820 -409Q826 -400 836 -397Q830 -391 830 -382Q830 -380 833 -365Q805 -339 798 -314Q797 -301 795 -289Q793 -283 790 -277Q787 -266 786 -235Q784 -199 780 -181Q773 -196 773 -218Q775 -251 777 -285Q777 -301 775 -308Q756 -300 756 -250V-213Q755 -192 754 -171Q754 -138 768 -129Q770 -131 771 -139Q772 -152 777 -154Q783 -142 783 -110V-98H781Q776 -98 775 -106Q774 -113 771 -114Q757 -111 757 -91Q757 -68 768 -43Q772 -45 775 -45Q778 -47 778 -57Q778 -69 784 -70Q790 -66 791 -49Q792 -33 796 -29Q795 -4 789 21Q767 78 750 81Z"/>
</svg>