<svg xmlns="http://www.w3.org/2000/svg" viewBox="0 -800 1024 1024">
	<path fill="#000000" d="M859 -414V-412Q857 -404 855 -396Q849 -396 849 -408Q849 -415 852 -420Q854 -419 859 -414ZM879 18V16Q879 7 891 7Q902 7 903 14Q888 19 885 19Q882 19 879 18ZM372 -346H374Q379 -346 380 -350Q381 -354 382 -357Q396 -361 410 -366Q407 -368 400 -375Q393 -383 387 -385Q380 -365 372 -346ZM575 -453V-484H571Q560 -484 554 -475Q549 -468 549 -457Q549 -453 551 -447Q563 -450 575 -453ZM471 -532H487Q495 -544 508 -544Q524 -544 540 -532Q556 -538 572 -544Q569 -547 567 -555Q527 -555 512 -552Q489 -548 471 -532ZM670 -490Q662 -497 646 -497Q636 -497 631 -496Q622 -480 622 -467Q622 -463 624 -457Q627 -456 630 -456Q651 -456 670 -490ZM405 -418V-416Q411 -423 422 -425Q433 -427 442 -430Q446 -425 454 -425Q460 -425 490 -435Q488 -437 486 -443Q484 -452 480 -453Q473 -453 459 -447Q446 -442 439 -442Q431 -442 422 -451Q418 -443 412 -435Q406 -427 405 -418ZM405 -264Q402 -316 389 -316Q387 -316 379 -312Q385 -285 385 -281Q385 -276 384 -273Q380 -271 378 -271Q376 -294 357 -313Q350 -295 338 -276Q345 -276 345 -274Q338 -269 338 -262Q338 -257 342 -253Q374 -258 405 -264ZM790 98H785Q773 98 773 91Q774 88 781 88H790Q795 88 797 86Q796 78 784 73Q773 69 756 69Q739 69 730 74Q732 78 743 80Q754 82 755 88H743Q699 86 655 84H641Q613 85 552 85Q556 72 597 72Q608 71 631 71Q647 71 719 74Q710 62 683 62H662Q622 60 598 60Q495 60 449 85Q453 87 458 87Q476 85 494 83Q509 83 513 92Q446 100 390 127Q370 137 351 140H348Q334 139 319 130Q304 120 290 112Q279 110 274 103Q274 82 290 56Q302 53 344 29Q367 12 390 8H394V9Q394 12 385 17Q373 23 373 32L375 33Q379 31 383 29H385L387 32Q386 35 384 38Q390 39 403 39Q428 39 476 32Q515 26 526 26H532Q545 26 545 18Q545 14 544 11H542Q537 11 527 16Q519 20 513 20Q494 17 480 0Q465 -17 452 -28Q458 -25 464 -22L467 -23L468 -24Q465 -27 461 -30V-31H462Q469 -31 471 -43Q483 -51 500 -54Q518 -57 534 -60Q529 -71 528 -83Q518 -85 514 -85Q493 -85 457 -65Q429 -49 415 -49Q390 -51 377 -68Q364 -86 344 -96V-105Q344 -123 343 -141Q343 -151 344 -155Q348 -171 366 -173Q383 -176 397 -183Q413 -166 451 -166Q457 -166 520 -172Q517 -187 511 -234Q519 -233 525 -228Q537 -238 564 -238Q590 -238 599 -228V-226Q600 -212 608 -205Q616 -198 624 -190H626Q647 -193 667 -196Q674 -196 680 -193Q675 -187 656 -183Q634 -178 630 -169Q649 -169 688 -180Q732 -192 760 -192H763Q759 -198 748 -198Q733 -196 717 -195Q707 -195 704 -198Q734 -210 757 -211Q760 -218 763 -226Q766 -218 772 -211Q791 -215 815 -218Q812 -214 800 -210Q790 -207 787 -202Q787 -198 794 -198Q799 -198 808 -201V-199Q804 -194 793 -192V-191Q793 -188 799 -188Q805 -188 805 -184H803Q795 -184 787 -174Q790 -166 790 -160Q788 -147 786 -135Q787 -131 787 -127Q725 -127 634 -100Q635 -96 637 -75H638Q652 -79 665 -83Q670 -83 673 -79Q683 -82 693 -85Q695 -85 699 -83Q698 -79 691 -77Q685 -75 683 -72L685 -69Q689 -69 692 -70H695Q692 -65 692 -62Q692 -58 696 -52Q705 -54 713 -57Q710 -54 705 -51Q696 -46 695 -42Q697 -35 699 -28Q690 -25 681 -23Q677 -19 677 -11Q663 -13 656 -13Q616 -13 615 12Q681 15 746 17Q778 17 805 14Q820 13 829 5H830L831 7V12Q857 18 873 18Q856 28 853 35Q856 39 861 39Q867 39 873 36L875 38Q870 44 865 50Q869 52 873 53Q870 58 870 62Q870 67 877 74Q882 80 884 83Q877 92 844 115Q834 110 790 98ZM921 -247V-244Q899 -233 895 -223Q885 -229 856 -233Q822 -237 809 -247Q812 -252 820 -252Q830 -251 839 -250Q844 -250 847 -253V-254Q847 -277 793 -279Q784 -280 763 -280Q689 -280 653 -264Q654 -257 661 -257Q668 -258 674 -259Q701 -260 728 -261Q765 -261 779 -252Q764 -250 732 -250H700Q660 -250 643 -246Q622 -238 605 -234H601Q574 -237 570 -259V-261Q573 -277 576 -293V-295Q576 -304 569 -321Q560 -342 560 -352V-355Q560 -377 582 -396Q517 -390 490 -378Q452 -360 452 -345Q452 -340 455 -337Q482 -346 508 -355Q515 -350 520 -343Q531 -350 539 -350Q544 -350 546 -349Q537 -344 532 -336Q537 -331 537 -327Q535 -316 532 -306V-301Q511 -296 489 -295Q467 -293 455 -277Q503 -294 560 -298Q558 -297 550 -295Q538 -293 537 -287Q541 -273 541 -267Q541 -261 540 -258Q527 -255 522 -244Q491 -243 462 -232Q433 -222 405 -211Q386 -205 368 -190Q347 -171 326 -169Q314 -169 302 -177Q284 -143 264 -108Q244 -74 228 -37Q186 69 162 109Q144 86 129 86Q125 86 119 88Q117 86 117 83Q117 78 120 75Q118 71 110 63Q98 51 96 43V40Q98 28 99 15V12Q96 -4 92 -21V-23Q93 -31 99 -41Q108 -56 108 -63V-73Q106 -101 104 -130Q101 -214 101 -215Q112 -145 123 -76Q130 -82 130 -95Q129 -114 127 -134Q127 -142 128 -145H129Q134 -145 134 -139V-129Q137 -112 144 -102Q162 -122 180 -146Q189 -157 198 -168Q206 -180 216 -187V-183Q215 -170 207 -158Q199 -146 191 -133Q184 -119 177 -106Q168 -92 168 -88Q168 -84 171 -80Q232 -168 278 -252Q272 -254 271 -254Q261 -254 248 -234Q239 -220 234 -217Q243 -255 259 -290Q274 -324 290 -358Q318 -426 350 -495Q344 -497 343 -497Q335 -497 330 -489Q325 -481 325 -472H318Q286 -472 236 -510Q223 -520 218 -525Q209 -534 209 -544Q209 -552 213 -561Q219 -570 224 -580Q231 -603 239 -629Q246 -654 266 -656Q273 -656 281 -652Q322 -674 363 -697Q360 -690 350 -682Q340 -674 337 -669Q343 -660 352 -658Q361 -657 369 -654Q382 -659 428 -662Q480 -665 499 -672Q496 -730 454 -750V-752Q454 -757 458 -758Q462 -759 467 -759Q473 -764 478 -772Q488 -774 508 -787Q540 -807 554 -807Q568 -807 578 -793H569Q555 -793 551 -789Q557 -781 575 -766Q592 -751 600 -741Q607 -745 607 -752Q603 -766 598 -781Q598 -784 599 -786Q601 -786 616 -781Q620 -764 630 -752H628Q624 -752 624 -743Q624 -737 622 -735Q618 -727 608 -718Q592 -703 590 -690Q598 -688 602 -688Q629 -691 656 -695Q664 -695 667 -694Q662 -684 650 -683Q638 -681 627 -679Q598 -674 587 -664Q593 -658 603 -658Q614 -658 638 -666Q671 -677 686 -678Q713 -680 718 -681Q735 -684 744 -691Q742 -701 726 -701Q712 -700 698 -699H693Q701 -712 717 -714Q732 -715 748 -721Q753 -719 758 -718Q775 -725 791 -732Q790 -729 790 -723V-718Q808 -730 831 -738V-737Q830 -734 825 -726Q820 -718 819 -709V-706Q822 -699 829 -696Q835 -698 849 -700Q838 -696 838 -684Q838 -676 845 -676Q847 -676 853 -678Q852 -673 847 -667Q852 -664 852 -657Q851 -646 850 -636Q850 -627 853 -624Q850 -625 846 -625Q824 -625 816 -591Q803 -594 783 -594H745V-586L744 -589V-592Q698 -590 664 -577Q664 -564 668 -559Q698 -561 727 -564Q752 -564 761 -555Q763 -556 767 -556H770Q775 -556 779 -559L781 -558L778 -556L779 -555Q786 -559 797 -564L798 -561Q798 -558 794 -553Q789 -546 789 -542Q789 -539 790 -537L792 -536Q796 -539 799 -542L800 -541V-533Q800 -504 815 -486Q806 -481 806 -467V-462Q763 -461 739 -441Q716 -420 693 -396Q679 -401 659 -401Q649 -401 625 -399Q632 -383 651 -383Q686 -388 717 -400Q729 -398 735 -398Q744 -398 748 -400V-397Q748 -394 752 -390Q765 -398 774 -398Q776 -398 782 -396Q769 -389 767 -374Q767 -366 776 -363Q768 -358 766 -348Q766 -344 767 -342Q763 -344 760 -344Q755 -344 747 -337Q739 -330 732 -328Q706 -323 679 -321Q651 -319 643 -298L809 -303Q818 -325 822 -372Q826 -366 827 -347Q828 -329 832 -324Q835 -336 835 -350Q834 -376 832 -403Q832 -415 835 -427Q839 -415 840 -381Q842 -340 850 -325Q856 -334 856 -347Q855 -366 853 -385V-390Q861 -384 862 -374Q863 -364 865 -355Q877 -317 907 -306Q918 -294 926 -271Q924 -259 921 -247Z"/>
</svg>