<svg xmlns="http://www.w3.org/2000/svg" viewBox="0 -800 1024 1024">
	<path fill="#000000" d="M706 -107Q634 -104 588 -64Q588 -43 594 -28Q624 -36 653 -38Q665 -38 678 -35Q696 -67 706 -107ZM699 -391Q687 -411 633 -474Q592 -409 580 -352Q607 -353 646 -372Q678 -388 699 -391ZM482 -537Q479 -528 476 -519Q477 -517 477 -512Q477 -491 468 -448Q441 -436 408 -436H396Q398 -447 421 -449Q444 -451 446 -462Q440 -473 420 -473H413Q376 -473 340 -464Q298 -453 284 -436Q290 -430 298 -430Q305 -430 320 -435Q338 -441 346 -441Q355 -441 359 -439Q357 -430 348 -429Q339 -428 331 -427Q312 -423 284 -406Q255 -390 235 -380Q199 -364 187 -358Q157 -343 147 -331Q135 -324 120 -329Q98 -337 85 -344Q72 -350 68 -382V-403Q68 -420 66 -428Q66 -432 65 -436Q65 -465 91 -480Q94 -488 111 -517Q114 -526 119 -536Q123 -546 135 -547Q126 -517 117 -488Q122 -482 126 -477Q143 -506 159 -535Q179 -569 192 -592Q193 -597 194 -602Q194 -621 182 -623H180Q168 -623 161 -599Q155 -578 148 -574Q144 -577 144 -586Q144 -603 156 -603Q155 -605 155 -608Q156 -614 156 -620V-622L153 -623Q145 -620 137 -618H136Q139 -623 144 -637Q149 -651 155 -658Q167 -678 185 -696Q190 -700 204 -716Q219 -733 226 -737Q249 -737 258 -734Q274 -714 296 -686Q319 -657 321 -624Q321 -617 320 -611Q306 -576 291 -549Q324 -562 365 -577Q406 -592 438 -611Q434 -603 431 -596Q437 -598 444 -603Q456 -612 462 -612Q467 -612 470 -611Q464 -604 457 -599Q450 -595 447 -585Q452 -575 463 -575Q471 -575 479 -576H482Q472 -556 472 -548Q472 -538 482 -537ZM922 -464V-459Q922 -449 916 -437Q910 -440 910 -451Q910 -458 913 -467H915Q919 -465 922 -464ZM394 -268Q434 -380 485 -422Q489 -423 493 -419Q480 -387 473 -363Q472 -352 475 -341Q491 -353 510 -380Q525 -401 532 -416Q564 -480 574 -517Q583 -540 586 -564Q586 -567 585 -571Q539 -518 503 -451Q496 -457 496 -466Q496 -469 505 -499Q512 -521 537 -564Q568 -617 574 -643Q555 -658 548 -689V-691Q548 -698 579 -738Q600 -768 636 -768Q644 -768 649 -767Q660 -764 667 -756Q674 -748 679 -737Q687 -714 706 -701Q707 -688 714 -667Q722 -645 722 -635V-631Q721 -621 705 -593Q695 -576 692 -566Q792 -441 867 -368Q870 -376 871 -399Q872 -432 881 -440V-428Q881 -386 890 -358Q892 -370 892 -395Q891 -440 889 -485Q890 -497 890 -509Q900 -483 903 -422Q906 -354 912 -331Q915 -343 915 -357Q914 -377 913 -398Q913 -413 916 -425Q923 -404 928 -361Q933 -317 938 -301Q955 -250 955 -227Q955 -217 954 -212V-198Q954 -190 952 -187Q949 -178 927 -163Q912 -152 907 -147Q902 -148 893 -154Q882 -161 872 -161Q868 -162 863 -168Q857 -174 853 -174L849 -173Q838 -192 826 -210Q814 -229 808 -248Q822 -246 838 -226Q856 -202 867 -197Q869 -201 872 -203H873Q817 -308 756 -356Q755 -354 755 -349Q755 -339 769 -323Q782 -308 782 -299Q782 -292 778 -287Q775 -287 773 -291Q770 -295 767 -296Q763 -294 763 -283Q763 -272 768 -270Q764 -266 759 -263Q754 -260 754 -253V-250Q652 -242 585 -188Q553 -199 532 -244Q510 -210 506 -171Q507 -173 514 -173Q529 -173 545 -160Q545 -142 541 -127Q589 -137 613 -147Q662 -163 706 -184Q701 -184 696 -185Q666 -184 636 -172Q605 -161 577 -152Q580 -165 595 -173Q603 -177 623 -184Q656 -194 695 -203Q733 -213 762 -235H776Q779 -236 782 -243Q785 -251 791 -251H792L794 -250Q792 -243 790 -236L791 -232Q791 -228 794 -228Q798 -228 801 -229H802Q816 -185 838 -157Q838 -154 837 -152L838 -149Q845 -142 848 -114Q850 -96 854 -87Q844 -81 841 -68Q841 -64 842 -62Q834 -60 828 -56Q827 -59 827 -65Q828 -78 829 -91Q829 -108 816 -109H814Q798 -109 787 -77Q780 -80 774 -80Q761 -80 751 -62Q748 -56 737 -28Q722 8 715 34Q713 42 713 47Q713 54 717 60Q729 48 743 16Q757 -15 767 -26H771Q778 -26 784 -33Q791 -41 797 -41H802Q805 -38 805 -34Q799 -14 784 4Q744 66 735 123H731Q718 123 711 108H710Q697 108 686 96Q674 83 663 83Q663 65 656 58Q645 62 631 62Q611 62 601 69Q594 74 586 93Q577 115 567 116H564Q549 116 532 91Q518 71 509 69Q503 31 482 -2Q468 -24 439 -56Q446 -79 446 -100Q447 -114 446 -125Q445 -136 437 -143V-145Q437 -148 438 -151Q438 -154 435 -154Q409 -146 394 -161Q393 -169 389 -185Q387 -179 386 -177Q375 -161 349 -154Q339 -153 337 -150Q335 -148 329 -142Q326 -131 322 -109Q318 -87 320 -56Q363 -81 372 -86Q397 -106 421 -120Q421 -117 411 -106Q403 -97 403 -95Q399 -89 394 -83Q406 -92 417 -101Q412 -90 418 -89Q408 -64 414 -48Q419 -33 419 -28Q417 -14 407 -6Q383 15 374 17Q376 13 390 -6Q385 -11 374 -5Q365 0 361 5Q343 26 337 32Q340 37 345 37Q353 36 361 34H364V35Q364 41 359 44Q354 47 346 53Q334 65 321 76Q301 88 277 93Q260 93 256 73Q242 73 234 62Q226 52 226 38Q226 20 236 9Q233 2 233 -8Q238 -40 253 -51Q251 -37 251 -35L252 -31Q256 -32 284 -44Q283 -59 281 -74V-88Q281 -123 276 -129Q262 -115 262 -100V-89Q262 -64 253 -57Q248 -76 244 -110H238Q234 -109 222 -100Q196 -80 182 -74Q152 -60 134 -76Q128 -104 117 -116L124 -138Q120 -146 107 -158Q94 -170 90 -179Q106 -170 124 -164L125 -166Q122 -169 122 -173V-175Q126 -172 132 -172Q152 -174 200 -196Q232 -210 248 -215Q248 -240 241 -247Q229 -239 199 -231Q186 -226 173 -221Q166 -221 162 -223Q141 -248 109 -248Q109 -262 121 -269Q120 -272 120 -279Q120 -312 171 -324Q188 -333 204 -343Q267 -364 300 -378Q312 -380 341 -393Q359 -401 371 -405V-404Q372 -402 370 -402Q367 -402 366 -401L370 -400Q380 -403 389 -407H391Q382 -396 383 -386Q383 -381 388 -376Q396 -382 399 -382Q394 -378 394 -368Q395 -359 405 -344Q393 -327 396 -299Q393 -299 390 -300Q387 -299 382 -289Q374 -286 356 -282Q357 -288 364 -295Q370 -302 371 -308Q366 -312 358 -312Q341 -306 325 -291Q315 -286 306 -282Q297 -278 296 -270Q303 -268 304 -269Q312 -273 330 -287Q328 -263 326 -240Q348 -249 370 -259Q379 -263 394 -268Z"/>
</svg>