<svg xmlns="http://www.w3.org/2000/svg" viewBox="0 -800 1024 1024">
	<path fill="#000000" d="M911 -126Q908 -120 906 -115Q903 -109 896 -108Q896 -111 895 -115Q895 -130 904 -130Q905 -130 911 -126ZM890 -363V-370Q901 -375 916 -376Q916 -362 896 -362Q893 -362 890 -363ZM696 -413V-415Q699 -424 701 -433V-435Q654 -431 640 -427Q614 -419 603 -396Q607 -395 615 -395Q630 -395 659 -404Q684 -412 696 -413ZM600 -508H615Q620 -508 621 -507Q603 -504 600 -484Q600 -478 604 -473Q637 -476 720 -508L719 -504Q719 -492 732 -490Q743 -513 753 -537Q749 -538 741 -538Q724 -538 690 -528Q664 -521 649 -520Q653 -535 681 -541Q704 -546 710 -553Q633 -553 600 -508ZM917 98H914Q889 95 875 82Q878 79 885 79Q890 80 895 80Q907 80 908 73Q896 47 842 47Q837 50 834 56Q837 62 848 66Q862 71 862 81V84Q803 68 724 68Q654 68 606 81Q609 66 638 59Q656 55 698 53H717Q751 54 785 54Q805 54 815 53Q804 34 761 34Q739 35 716 36Q661 36 597 44Q559 51 541 57Q511 67 502 84Q508 90 514 90Q532 85 550 80Q557 80 562 84Q555 95 539 104Q526 116 513 122Q510 123 506 123Q490 122 478 112Q466 102 454 94V92Q454 81 443 61Q433 43 433 34Q433 24 442 15Q426 -6 410 -27Q417 -26 427 -20Q441 -12 451 -12V-15Q451 -18 447 -21Q443 -24 443 -29V-30Q449 -27 456 -27Q470 -29 483 -31Q505 -29 527 -27H532Q577 -31 622 -36Q621 -38 621 -44V-54Q621 -60 618 -63Q608 -61 598 -59H596Q589 -60 582 -66Q576 -72 568 -78Q567 -79 562 -79H557Q545 -88 545 -106Q544 -110 536 -114Q528 -118 526 -123Q543 -125 570 -137Q594 -148 610 -150Q609 -172 594 -178Q591 -178 587 -179Q574 -179 552 -163Q529 -146 516 -146Q510 -146 507 -147Q488 -178 463 -204V-209Q463 -290 517 -306Q517 -303 516 -301Q516 -296 523 -289Q537 -298 552 -298H559V-296Q559 -293 560 -291V-285Q548 -285 542 -276Q543 -269 553 -261Q586 -275 632 -284Q678 -292 722 -303Q719 -310 711 -315H700Q678 -315 643 -306Q612 -298 598 -298H591Q611 -313 665 -321Q710 -328 729 -338Q724 -337 718 -337Q692 -337 687 -355Q633 -348 569 -315Q551 -317 536 -327Q527 -333 511 -349Q514 -356 517 -363Q507 -389 498 -418Q489 -446 470 -465Q471 -462 471 -455Q471 -443 470 -431V-424Q424 -414 392 -380Q366 -353 344 -306Q353 -299 381 -287Q421 -270 434 -253Q445 -240 449 -198Q450 -192 450 -182Q450 -161 431 -153Q420 -147 392 -145Q314 -135 277 -97Q273 -85 273 -70Q273 -51 281 -20Q289 11 289 25V33Q285 54 269 68Q252 82 246 106Q243 106 242 100Q241 96 240 95H234Q225 96 215 96Q210 96 208 95Q185 83 166 63Q158 50 152 36Q147 22 135 15Q136 13 136 8Q135 -1 127 -9Q123 -9 119 -5Q116 -2 113 -2Q151 -37 159 -87Q166 -81 166 -71Q161 -47 156 -24Q156 -15 162 -9Q178 -26 187 -59Q202 -87 206 -113Q206 -124 199 -132H196Q195 -132 183 -129Q178 -122 178 -112V-109Q170 -113 163 -126Q175 -158 183 -193Q190 -229 208 -255Q208 -245 212 -229Q215 -230 216 -234Q217 -238 219 -238Q225 -237 228 -231Q230 -225 233 -220Q245 -202 257 -184Q280 -196 306 -204Q296 -217 271 -228Q262 -259 262 -291Q262 -331 280 -348H275Q259 -348 219 -327Q199 -318 184 -301Q174 -287 164 -273Q155 -259 141 -257Q126 -260 103 -270Q88 -274 74 -276Q60 -279 52 -289Q44 -301 44 -322Q44 -343 51 -364Q41 -377 41 -405Q41 -437 55 -448Q54 -452 54 -459Q54 -489 89 -505Q88 -503 88 -499Q88 -488 98 -480Q123 -490 152 -494Q159 -494 163 -493Q159 -485 137 -477Q110 -467 110 -455V-454Q110 -448 121 -442Q148 -454 176 -464Q204 -475 228 -490Q226 -499 221 -502Q208 -499 195 -496Q189 -496 186 -501Q216 -521 293 -551Q349 -573 378 -588V-583Q378 -577 380 -576Q384 -574 388 -574Q401 -575 414 -577Q424 -577 427 -568Q443 -578 458 -589V-588Q458 -585 453 -580Q446 -573 446 -566V-562Q449 -562 453 -568Q458 -576 462 -576Q464 -576 468 -574L485 -597Q491 -594 507 -592Q521 -590 526 -588Q543 -603 556 -625Q575 -658 575 -669Q575 -686 548 -690Q551 -695 559 -699Q567 -703 569 -706Q563 -712 554 -712Q538 -709 522 -706Q527 -717 543 -726Q558 -734 575 -746Q595 -762 611 -775Q627 -787 655 -788Q665 -788 671 -787Q706 -776 734 -741Q744 -728 744 -713Q744 -701 734 -669Q703 -658 687 -645Q666 -628 660 -600Q685 -613 741 -625Q782 -633 797 -639Q810 -644 823 -653Q836 -661 852 -662Q862 -662 875 -655Q906 -670 911 -672Q900 -661 900 -647Q900 -634 911 -630Q919 -634 928 -637H931Q925 -631 925 -623Q925 -608 938 -595Q947 -602 955 -604Q959 -604 961 -603Q944 -597 941 -577Q941 -571 943 -568Q932 -551 928 -530Q907 -527 887 -510Q878 -514 878 -526Q878 -543 893 -561Q891 -564 889 -568Q869 -562 856 -543Q851 -536 837 -505H835Q827 -505 821 -499Q811 -491 799 -464Q788 -438 787 -424V-421Q789 -404 791 -388Q800 -398 804 -412Q808 -426 813 -439Q815 -441 824 -441Q836 -465 838 -468Q848 -483 861 -487Q851 -461 838 -433Q824 -405 821 -369Q803 -357 797 -355L800 -354Q806 -356 812 -359L815 -358Q818 -357 822 -351Q825 -345 828 -344Q847 -358 877 -361H880Q869 -354 858 -348Q847 -342 845 -326Q849 -321 853 -321Q863 -322 873 -324H877Q865 -318 862 -303Q863 -298 874 -294Q867 -287 860 -270Q852 -252 846 -246Q846 -236 847 -232H841Q829 -232 827 -225Q814 -228 802 -228Q789 -228 753 -219Q738 -216 724 -216Q711 -215 704 -203V-201Q704 -183 721 -183Q729 -183 741 -188L743 -187Q740 -183 737 -180Q761 -184 785 -189V-188Q785 -185 776 -177Q767 -169 767 -166Q770 -160 778 -156Q780 -156 784 -160Q789 -166 793 -166L797 -165Q792 -154 788 -134Q788 -131 790 -123Q773 -112 767 -90H764Q757 -89 750 -88H747Q749 -92 756 -97Q761 -100 763 -103Q757 -115 731 -115Q716 -115 704 -110Q691 -105 690 -96Q692 -95 697 -95Q706 -95 714 -96H719L728 -82Q726 -79 708 -75Q701 -65 699 -48Q711 -45 726 -45Q769 -48 812 -52Q823 -52 828 -51Q849 -59 870 -66Q890 -73 898 -96Q901 -92 901 -80V-76Q901 -69 902 -66Q906 -57 917 -57Q930 -58 943 -60Q950 -60 954 -57Q949 -53 941 -49Q933 -44 932 -36V-33Q934 -25 942 -25Q947 -25 949 -27Q946 -19 946 -12Q946 -4 951 12Q955 25 955 31V33Q955 42 945 62Q937 78 936 89L933 88Q930 88 925 93Q921 98 917 98Z"/>
</svg>