<svg xmlns="http://www.w3.org/2000/svg" viewBox="0 -800 1024 1024">
	<path fill="#000000" d="M168 -542Q168 -531 163 -521Q157 -524 157 -532Q157 -543 165 -543ZM782 -757H780V-760Q780 -775 792 -775Q794 -775 798 -773Q795 -758 782 -757ZM444 -19V-24Q445 -31 445 -38Q445 -43 442 -46Q410 -41 410 -27Q410 -21 414 -16Q436 -16 444 -19ZM442 -107V-121Q442 -132 438 -136Q434 -133 411 -124Q393 -117 392 -107Q396 -100 399 -94Q421 -100 442 -107ZM564 -61Q558 -63 548 -63Q544 -63 514 -58Q508 -50 508 -39Q508 -34 509 -31Q519 -29 523 -29Q555 -29 564 -61ZM521 -124V-122Q565 -129 608 -136Q616 -152 623 -169Q550 -165 520 -148Q525 -145 525 -141Q523 -132 521 -124ZM642 -266H640Q622 -269 603 -273Q594 -273 588 -266Q588 -273 592 -283Q574 -294 559 -314Q560 -330 574 -340Q587 -349 604 -349Q620 -349 630 -342H644Q646 -334 650 -331Q655 -332 661 -336Q668 -342 673 -342Q662 -330 657 -306Q657 -297 662 -291Q654 -277 642 -266ZM423 -273V-270Q421 -255 397 -250Q367 -244 361 -238Q362 -240 362 -243Q362 -249 356 -249Q343 -249 324 -233Q333 -245 342 -257Q332 -268 321 -276Q309 -285 308 -301Q308 -308 311 -317Q334 -338 360 -338Q384 -338 398 -314Q403 -316 410 -325Q418 -335 423 -335Q420 -319 416 -304V-302Q420 -287 423 -273ZM607 112H602Q595 112 586 108Q575 103 568 103Q567 93 552 80Q537 67 537 57V56Q507 50 485 50Q429 50 417 80Q401 89 384 89Q362 89 343 72Q318 52 318 51Q318 47 327 38V36Q327 27 316 9Q305 -9 305 -19V-23Q313 -19 320 -6Q329 10 337 13Q342 10 346 6Q345 -8 340 -18Q335 -28 331 -40Q325 -47 316 -64Q307 -80 293 -82H290Q285 -81 279 -73Q286 -59 290 -46V-44Q280 -44 266 -59Q252 -74 240 -76Q237 -83 232 -89Q226 -96 225 -101Q224 -104 224 -109Q224 -122 236 -145Q247 -165 247 -176V-178Q247 -187 240 -199Q231 -213 231 -222Q244 -217 250 -203Q257 -190 269 -188Q272 -188 278 -190Q272 -200 269 -214L273 -215Q278 -215 281 -210Q284 -205 287 -204Q306 -212 327 -215Q335 -215 339 -214Q350 -207 361 -201H365Q390 -204 422 -214Q455 -218 487 -223Q519 -234 553 -241Q576 -245 599 -250Q622 -253 645 -257Q662 -263 686 -279Q710 -295 721 -299Q722 -288 742 -282Q755 -278 759 -274Q770 -281 779 -290Q788 -299 803 -302V-300Q803 -297 794 -289Q785 -281 782 -276Q780 -268 780 -266Q780 -257 795 -242Q798 -243 804 -248Q810 -253 814 -253Q816 -253 820 -251Q813 -243 806 -236Q806 -222 811 -213H813Q816 -213 817 -216Q819 -220 821 -220H824Q819 -212 819 -204Q824 -181 829 -159V-157Q828 -150 822 -141Q815 -132 814 -128Q799 -127 781 -113Q766 -101 756 -100V-102Q759 -115 767 -124Q763 -131 758 -138Q740 -132 725 -112Q721 -114 716 -116Q678 -81 636 0Q624 18 620 39Q621 42 621 44Q648 26 666 -3Q683 -31 703 -56Q708 -54 712 -53Q716 -55 720 -62Q727 -73 733 -73Q736 -73 738 -72V-70Q736 -61 727 -53Q707 -21 687 10Q672 43 657 74Q642 105 607 112ZM956 -497V-495Q956 -489 940 -458Q928 -442 916 -427Q913 -427 910 -428Q894 -425 882 -418Q882 -420 881 -423Q881 -431 894 -437Q904 -442 906 -446Q905 -455 894 -457H889Q869 -457 838 -433Q826 -424 796 -397Q782 -387 778 -374L779 -370H780Q792 -370 811 -386Q830 -402 843 -402Q847 -402 853 -400Q832 -385 810 -371Q788 -357 771 -339Q760 -350 742 -350Q729 -350 721 -342Q722 -347 730 -357Q725 -361 717 -361Q705 -361 696 -352Q698 -357 700 -362Q693 -374 680 -374Q675 -374 669 -371Q671 -385 673 -400Q671 -405 663 -405Q657 -405 642 -400Q644 -396 644 -387Q644 -374 633 -365Q623 -357 609 -357Q586 -357 577 -377Q574 -377 574 -374Q574 -371 571 -371H570V-374Q570 -379 573 -382Q567 -390 560 -398Q553 -406 550 -418Q556 -431 562 -443Q567 -455 582 -457H584Q596 -455 607 -454H610Q619 -445 629 -435Q638 -426 644 -412Q672 -443 694 -477Q691 -479 688 -481Q653 -474 615 -472Q576 -470 553 -452Q543 -400 543 -394V-390Q544 -379 544 -369Q544 -359 540 -352Q531 -356 531 -376V-387Q531 -405 526 -411Q521 -410 511 -403V-397Q510 -368 508 -339Q508 -300 527 -292Q533 -296 533 -304Q533 -311 532 -318Q532 -326 537 -329Q548 -318 548 -302Q548 -297 547 -295Q547 -294 537 -279Q533 -269 528 -260Q524 -253 511 -246Q501 -240 499 -238Q483 -238 463 -262Q446 -282 435 -286Q436 -289 442 -290Q448 -291 448 -295Q452 -320 452 -359Q452 -400 447 -424Q435 -422 410 -411Q416 -404 417 -392H418Q421 -392 424 -399Q428 -407 432 -407L435 -406Q424 -375 408 -340Q399 -337 392 -337Q377 -337 353 -350Q330 -362 320 -362Q310 -362 296 -352Q284 -344 279 -342Q284 -317 284 -298Q284 -284 281 -274Q278 -263 258 -249Q237 -235 223 -235Q206 -239 189 -243Q179 -243 174 -233Q172 -259 151 -259Q138 -259 129 -247Q133 -257 133 -264Q133 -283 117 -288Q115 -288 112 -289Q102 -289 88 -273Q79 -262 73 -262Q75 -270 87 -285Q99 -301 103 -311Q92 -327 76 -342Q59 -356 57 -380V-386Q57 -398 68 -406Q58 -416 53 -436H55Q63 -434 68 -431Q80 -438 80 -448Q78 -464 61 -482Q43 -501 35 -514Q47 -512 62 -494Q82 -470 102 -470Q109 -478 109 -493Q109 -498 108 -500Q117 -487 118 -486Q123 -480 130 -480L134 -481Q141 -483 147 -496Q153 -508 159 -508H161Q158 -498 155 -488V-486Q174 -471 192 -454Q203 -455 218 -460Q240 -467 251 -467Q259 -467 264 -466V-465Q262 -460 260 -455H257Q235 -455 222 -436Q226 -428 236 -428Q259 -432 284 -442Q376 -466 428 -489Q426 -499 405 -499Q395 -498 366 -488Q332 -477 312 -475Q317 -489 348 -495Q397 -504 399 -505Q418 -515 441 -520V-525Q441 -538 434 -547Q431 -547 427 -548Q413 -548 389 -534Q368 -522 359 -521H355Q337 -521 323 -534Q309 -547 306 -568Q273 -596 273 -621Q273 -629 276 -638Q271 -646 259 -656Q244 -669 240 -677H241Q247 -677 258 -668Q270 -658 278 -658Q282 -658 288 -661Q281 -679 250 -699Q227 -715 219 -725Q234 -722 255 -707Q272 -695 281 -691Q289 -692 296 -697Q294 -705 284 -712Q274 -719 272 -725Q284 -723 296 -722Q300 -722 306 -724Q317 -739 346 -756L364 -748Q370 -751 383 -751Q397 -751 407 -748Q413 -752 422 -752Q434 -752 434 -742Q395 -738 388 -724Q396 -712 415 -712Q449 -716 485 -727Q577 -745 635 -765V-767Q635 -776 618 -776Q610 -775 601 -775Q587 -773 558 -766Q518 -756 501 -756Q496 -756 491 -757Q509 -778 564 -778H571Q579 -785 591 -785Q602 -785 614 -787Q619 -790 623 -793Q626 -792 629 -791H630Q641 -796 651 -802H657Q667 -801 676 -801Q685 -801 690 -806L691 -803V-794Q701 -788 716 -788Q727 -788 750 -794Q771 -799 783 -800Q770 -789 749 -782Q728 -775 726 -756Q726 -751 727 -748Q748 -751 768 -754H771Q768 -749 754 -743Q740 -737 738 -721V-718Q740 -715 741 -712V-710L743 -709Q748 -711 753 -713Q736 -682 735 -670Q735 -667 741 -665Q732 -658 721 -641Q706 -619 696 -613Q629 -613 568 -589Q569 -586 574 -580Q581 -572 581 -565Q581 -562 579 -556Q605 -558 715 -578Q765 -586 794 -597Q832 -612 853 -637Q864 -619 875 -619Q877 -619 883 -621Q890 -608 899 -608Q908 -609 917 -616Q926 -623 934 -628V-625Q934 -621 927 -612Q919 -602 919 -593V-589H920Q922 -589 927 -593Q934 -598 938 -599Q938 -595 934 -587Q929 -577 929 -569Q929 -564 930 -561H931Q938 -564 944 -568Q939 -560 939 -551Q939 -543 948 -524Q956 -508 956 -497Z"/>
</svg>