<svg xmlns="http://www.w3.org/2000/svg" viewBox="0 -800 1024 1024">
	<path fill="#000000" d="M86 -395H84V-399Q84 -410 99 -413Q98 -406 96 -401Q93 -395 86 -395ZM759 -239Q766 -239 768 -237Q765 -226 762 -216Q756 -217 756 -223Q758 -231 759 -239ZM916 -625V-615Q909 -612 901 -609Q900 -611 900 -614Q900 -625 914 -625ZM867 -207H872Q876 -203 876 -196Q874 -184 872 -173Q865 -177 865 -194Q865 -201 867 -207ZM590 -50H595Q627 -47 659 -44Q658 -59 631 -59Q608 -59 590 -50ZM641 -137Q608 -137 595 -134Q573 -129 567 -113Q570 -112 578 -112Q606 -115 633 -119Q633 -121 637 -126Q641 -131 641 -137ZM657 -209Q624 -209 604 -202Q582 -194 568 -174Q617 -184 638 -197Q641 -196 644 -196Q654 -197 657 -209ZM574 -241V-239Q591 -246 612 -255Q633 -265 652 -266Q657 -266 665 -264Q669 -275 672 -287Q672 -291 669 -294Q656 -286 626 -273Q595 -260 583 -252Q574 -247 574 -241ZM580 -501Q579 -513 571 -529Q565 -541 564 -546Q561 -542 550 -537Q536 -531 534 -524L533 -520Q536 -504 543 -488Q562 -494 580 -501ZM596 -341Q594 -343 593 -355Q592 -369 587 -371Q565 -363 543 -355Q536 -352 524 -343Q508 -331 499 -331Q490 -331 481 -339Q463 -308 463 -296Q493 -306 529 -316Q564 -326 596 -341ZM486 -65Q483 -78 470 -86Q480 -95 480 -118Q480 -127 475 -165Q468 -204 445 -236Q443 -242 441 -248L439 -249Q386 -140 371 -68Q413 -65 455 -63Q466 -63 486 -65ZM223 -390H220Q212 -392 203 -395Q201 -395 199 -393Q185 -400 168 -412Q151 -424 133 -425Q119 -425 109 -416L108 -420Q108 -425 115 -432Q122 -439 123 -443Q116 -461 98 -461Q72 -457 50 -446Q57 -452 73 -462Q92 -474 100 -482Q96 -486 96 -495Q97 -503 97 -511Q97 -518 94 -521Q86 -520 77 -519H73Q75 -526 89 -529Q99 -531 102 -534V-537Q104 -545 105 -554L134 -566Q131 -580 122 -600Q112 -624 109 -638Q116 -633 132 -606Q145 -584 160 -584Q166 -584 173 -587Q175 -594 175 -602Q176 -611 183 -612Q183 -599 191 -581H195Q196 -581 211 -578Q221 -584 228 -594Q234 -605 247 -608Q233 -594 230 -573Q230 -571 232 -563Q236 -564 238 -572Q241 -581 247 -581Q244 -573 244 -568Q244 -557 251 -551Q258 -544 265 -534Q270 -523 275 -513Q283 -503 290 -497Q294 -482 297 -468Q306 -448 306 -444Q302 -426 297 -408Q291 -395 279 -390Q267 -385 254 -378Q250 -381 238 -384Q227 -386 223 -390ZM948 80V84Q930 105 883 117Q818 88 731 72Q709 68 706 57Q710 55 713 55Q724 57 734 58Q740 58 744 55Q739 45 715 35Q692 26 674 24H669Q657 24 653 31Q655 37 669 42Q681 46 682 55Q591 38 478 18H468Q459 18 457 12Q464 8 473 8Q487 10 501 12Q516 14 633 36Q637 33 641 30Q626 9 594 4Q561 -1 525 -5Q411 -22 388 -24Q365 -24 359 -14Q361 -4 380 -3Q396 -2 400 3Q393 8 380 8Q372 8 356 6Q312 4 289 4Q200 4 146 22Q121 31 109 31Q102 31 91 28Q86 19 78 12Q70 6 69 -8Q62 -14 53 -15Q56 -21 59 -27V-30Q58 -35 51 -37Q44 -39 43 -42Q78 -58 131 -60Q183 -61 233 -66Q207 -84 179 -100Q150 -116 138 -149Q132 -147 122 -147Q104 -148 93 -158Q82 -168 69 -177Q67 -195 58 -222Q45 -263 45 -285V-296Q62 -309 72 -324H74Q78 -322 81 -320H83Q89 -321 94 -322Q98 -322 99 -318Q94 -314 88 -310Q82 -306 81 -300L82 -296H86Q143 -299 170 -345Q164 -347 161 -347Q152 -347 136 -336Q121 -326 113 -326H112Q125 -341 147 -355Q173 -371 193 -371Q216 -371 229 -350Q236 -354 242 -358V-352Q242 -337 251 -321H253Q257 -322 261 -324H262Q258 -312 258 -304Q258 -294 265 -287Q248 -264 235 -236Q219 -200 219 -173Q219 -127 267 -116Q269 -124 269 -128Q268 -142 266 -156Q266 -163 269 -171Q274 -176 281 -186Q282 -189 282 -197Q280 -220 278 -244Q278 -258 282 -267Q286 -264 286 -259Q286 -253 285 -247V-245Q290 -225 297 -210Q310 -219 319 -236Q327 -247 338 -251Q341 -251 344 -248Q328 -229 328 -214Q328 -206 334 -200Q344 -207 351 -219Q358 -230 365 -242Q382 -268 414 -338Q425 -357 429 -380Q429 -384 427 -390Q418 -390 413 -381Q413 -380 406 -363Q387 -316 368 -290Q367 -292 367 -297Q367 -308 381 -330Q390 -344 394 -355Q396 -359 409 -404Q421 -433 426 -451V-452Q425 -463 403 -470Q388 -475 383 -480V-482Q381 -503 366 -504H362Q364 -515 367 -516Q361 -528 361 -538Q362 -554 369 -568Q377 -582 383 -594Q450 -638 466 -651Q474 -660 484 -664Q487 -664 491 -660Q485 -644 457 -628Q433 -614 426 -602Q432 -600 435 -600Q449 -601 462 -611Q474 -621 485 -629Q506 -645 529 -659Q552 -673 565 -697Q559 -700 555 -700Q549 -700 537 -692Q528 -686 522 -685Q525 -702 537 -710Q549 -718 558 -728Q553 -740 547 -752H551Q557 -752 565 -758V-759Q564 -763 562 -768V-771Q597 -810 673 -810H686Q696 -803 710 -800Q737 -773 760 -770Q771 -739 778 -732Q783 -734 788 -737H790Q783 -721 783 -715V-710L784 -709Q788 -711 791 -714L793 -713Q789 -705 789 -696Q791 -683 792 -670V-668Q787 -632 751 -622Q738 -621 724 -620Q702 -616 662 -588Q668 -575 676 -563Q684 -550 685 -535V-533Q769 -553 842 -594L845 -593Q844 -588 842 -584V-582Q856 -589 869 -596Q880 -604 890 -607L894 -606Q883 -597 872 -587Q861 -578 860 -559Q866 -560 875 -569Q884 -577 892 -579Q883 -566 879 -549Q879 -544 882 -537L883 -536Q884 -536 886 -539Q888 -543 891 -543H892Q890 -535 890 -528Q892 -505 894 -483Q858 -443 811 -443H808Q811 -453 823 -455Q835 -457 842 -461Q837 -472 816 -472Q807 -472 789 -468Q767 -462 744 -456Q716 -449 705 -444Q688 -436 680 -422Q684 -417 691 -417Q709 -421 728 -431Q739 -432 750 -434Q754 -434 760 -432Q745 -422 726 -418Q708 -414 691 -409Q663 -403 659 -371H661Q665 -371 672 -376Q681 -383 685 -383Q694 -395 710 -401Q724 -408 744 -410Q767 -410 775 -396Q780 -398 784 -400L787 -399V-398Q786 -393 785 -388L786 -386Q791 -387 801 -397Q809 -405 815 -408L816 -404Q816 -398 809 -390Q799 -378 799 -370V-365Q800 -363 803 -363Q808 -366 813 -370L814 -369Q812 -361 812 -356Q816 -333 820 -311Q816 -302 801 -290Q790 -281 786 -276Q781 -269 778 -260Q774 -252 765 -248V-252Q765 -262 771 -278Q767 -284 763 -285Q746 -281 740 -261Q721 -202 721 -147Q721 -113 733 -102Q739 -110 739 -140Q739 -179 753 -186Q748 -161 748 -140Q748 -116 756 -68Q739 -62 734 -35Q805 -26 827 -21Q843 -33 849 -56Q854 -79 860 -102V-90Q860 -63 869 -53Q873 -64 873 -80Q871 -109 869 -139Q869 -155 873 -164Q880 -140 883 -91Q886 -48 889 -33Q894 -35 894 -44Q893 -56 891 -69Q891 -81 890 -94Q890 -118 897 -126Q901 -98 902 -76Q902 -54 912 -36Q924 -22 938 -11Q957 9 962 33Q962 39 956 52Q948 70 948 80Z"/>
</svg>