<svg xmlns="http://www.w3.org/2000/svg" viewBox="0 -800 1024 1024">
	<path fill="#000000" d="M842 -108V-104Q842 -93 839 -87Q833 -87 833 -99Q833 -109 839 -109ZM428 6Q418 12 413 12Q409 12 407 11Q405 5 405 4Q405 -1 411 -1Q419 -1 428 6ZM595 -38V-40Q586 -46 573 -49Q567 -40 567 -39L568 -36Q577 -36 594 -31Q595 -34 595 -38ZM608 -450V-453Q608 -455 603 -463H600Q574 -463 562 -441Q568 -438 575 -438Q589 -438 608 -450ZM693 -147V-149Q694 -153 694 -157V-159Q683 -163 673 -163Q652 -162 642 -146Q631 -131 619 -117Q613 -111 607 -107Q601 -103 601 -95V-91Q624 -84 647 -78Q669 -114 693 -147ZM733 46V47Q706 32 679 17Q649 29 627 55Q605 80 583 105L579 106Q573 106 566 100Q559 94 555 94Q552 94 550 95Q545 91 541 86Q537 81 529 80Q526 62 508 53Q499 49 472 42Q475 39 484 39Q500 41 515 42H517Q504 32 470 23Q445 17 438 12Q442 11 450 11Q485 15 517 24Q501 13 476 7Q451 1 426 -7Q420 -9 412 -12Q404 -16 402 -24Q434 -15 466 -6Q516 7 531 7Q561 7 579 -15Q578 -19 576 -24Q575 -27 569 -27H558Q555 -23 553 -19Q544 -15 533 -15Q513 -15 499 -29Q492 -54 485 -79Q486 -83 489 -85Q493 -88 493 -93Q502 -102 511 -110Q521 -117 526 -130Q502 -140 495 -144Q477 -153 470 -165Q469 -168 469 -172Q472 -186 479 -195Q479 -198 473 -200Q466 -202 466 -207V-208Q472 -207 483 -207Q520 -210 556 -214Q556 -235 549 -249Q545 -248 541 -247H539Q542 -261 551 -268Q560 -276 567 -285Q530 -289 505 -316Q480 -343 449 -357Q435 -374 420 -388H407Q423 -392 423 -416Q423 -429 417 -441Q439 -446 439 -454Q439 -456 437 -460Q444 -460 454 -473Q462 -484 470 -486Q472 -487 475 -487Q484 -485 493 -484Q500 -484 503 -491Q512 -463 541 -463Q575 -467 611 -480Q606 -508 604 -539Q602 -570 583 -585Q571 -584 570 -571Q568 -558 565 -547Q563 -554 563 -569Q564 -594 565 -619Q565 -638 562 -646Q585 -685 619 -695Q645 -729 671 -729Q682 -729 693 -721Q703 -710 717 -687Q742 -656 746 -627Q732 -598 718 -570Q703 -542 696 -507H697Q702 -507 714 -512Q728 -518 736 -518Q740 -518 746 -516Q736 -502 717 -499Q696 -496 693 -474V-473Q695 -471 697 -469Q762 -490 819 -510Q819 -519 813 -523Q811 -523 808 -524Q797 -522 786 -521Q782 -521 780 -522Q787 -535 801 -539Q816 -544 829 -549Q833 -567 848 -572Q862 -577 881 -583Q884 -584 891 -590Q898 -596 903 -596L907 -595L908 -593Q904 -587 900 -579Q900 -574 905 -569Q910 -565 910 -561Q916 -563 925 -569Q939 -578 946 -579Q946 -574 938 -568Q931 -563 931 -556L934 -554Q940 -556 946 -558H947Q942 -550 939 -541V-540Q939 -535 944 -531Q949 -527 949 -525Q951 -504 968 -475Q969 -454 964 -432Q961 -431 953 -427Q944 -422 937 -422Q933 -422 930 -423Q908 -405 882 -391Q851 -370 821 -335Q806 -317 771 -268H770Q760 -271 750 -275L747 -274Q739 -295 725 -295Q720 -295 717 -294Q719 -297 719 -304Q719 -311 718 -318Q718 -323 720 -325Q710 -323 702 -314Q696 -307 690 -297Q687 -303 687 -310Q687 -319 697 -337Q709 -353 722 -368Q734 -383 743 -400Q685 -392 639 -362Q625 -355 613 -348Q600 -341 599 -329Q599 -320 607 -309Q606 -306 602 -305Q597 -303 597 -301Q615 -308 628 -319Q652 -317 663 -301Q674 -280 696 -268Q696 -264 695 -261Q695 -258 699 -255Q693 -248 687 -241Q690 -240 696 -240Q707 -240 724 -250Q743 -261 753 -261H755Q768 -257 780 -253Q811 -262 838 -282Q840 -284 842 -290Q845 -298 850 -300Q853 -297 853 -290V-279Q859 -248 903 -248Q908 -248 913 -249Q912 -245 906 -242Q901 -239 900 -237Q900 -236 902 -232Q904 -230 907 -230Q913 -230 919 -231Q925 -231 927 -228Q923 -226 918 -225Q912 -225 912 -219Q915 -216 921 -216Q912 -210 902 -189Q890 -164 878 -159Q874 -159 858 -165Q841 -171 832 -171Q824 -171 816 -165V-163Q816 -160 820 -155Q823 -152 823 -147Q806 -135 789 -123Q787 -125 787 -130Q787 -136 791 -144Q786 -148 781 -148Q771 -147 763 -136Q755 -125 747 -114Q724 -86 724 -74Q724 -72 726 -66Q739 -69 752 -89Q765 -108 779 -111Q772 -99 760 -84Q744 -64 739 -55Q746 -50 765 -49Q783 -48 788 -45Q801 -53 811 -67Q813 -63 813 -60Q812 -51 811 -42Q811 -37 814 -34Q818 -47 818 -78Q818 -107 821 -118Q827 -113 827 -101V-87Q831 -58 832 -33Q834 -35 834 -43Q834 -54 833 -65Q833 -79 839 -81Q843 -25 844 -18Q849 17 863 30Q858 37 853 44Q855 56 857 68Q854 74 849 78Q844 82 844 91Q820 93 801 100Q784 93 772 81Q761 69 749 57Q751 56 755 56Q762 56 775 64Q786 71 793 71Q797 71 803 68Q801 47 783 38Q766 29 747 21Q726 7 705 4Q698 4 694 6Q697 15 713 22Q733 31 733 46ZM363 -306Q357 -303 352 -303Q339 -306 326 -313Q329 -306 339 -294Q341 -297 350 -299Q361 -301 363 -306ZM323 -415Q325 -423 327 -431Q327 -435 323 -438Q312 -435 300 -430Q288 -426 287 -416Q287 -412 290 -406Q303 -413 323 -415ZM264 -108V-110Q266 -118 268 -127Q264 -130 259 -130Q244 -126 231 -118Q229 -110 229 -105Q219 -100 217 -97Q255 -104 264 -108ZM269 -195V-225Q246 -224 235 -208Q246 -196 249 -188V-186Q258 -189 269 -195ZM360 -214Q363 -227 375 -244Q368 -247 361 -247Q337 -245 335 -223Q335 -219 337 -213L340 -212Q348 -214 355 -216Q356 -216 360 -214ZM346 50V53Q346 70 328 87Q310 104 294 104Q291 104 288 103Q283 102 281 98Q280 94 277 91Q269 86 261 84Q252 82 247 75Q244 69 244 64V61Q244 55 243 51Q236 35 231 20L230 18Q230 16 234 13Q240 9 240 6Q239 3 234 3Q226 5 218 6L214 5Q217 -3 230 -8Q242 -13 246 -21Q243 -26 240 -31Q175 -14 172 -13Q137 0 124 23Q131 23 151 15Q171 7 183 7Q187 7 195 9Q176 21 153 30Q130 39 117 59Q103 55 89 45Q75 38 59 33Q42 28 38 15Q38 12 37 8Q40 -12 43 -32Q43 -42 41 -48Q49 -59 74 -70Q94 -79 102 -85Q111 -94 120 -102Q128 -110 140 -115Q140 -107 132 -100Q124 -93 123 -87H124Q127 -90 135 -94L139 -93Q138 -87 136 -82Q177 -86 211 -94Q186 -101 171 -116Q157 -132 143 -148Q109 -150 92 -170Q76 -190 59 -210Q60 -229 69 -242Q74 -249 89 -262Q90 -264 90 -269Q88 -284 85 -299Q85 -304 86 -307Q93 -294 99 -282Q101 -284 104 -284Q111 -281 118 -279Q128 -288 144 -288Q178 -285 195 -259Q203 -260 249 -271Q230 -278 219 -292Q214 -311 205 -324V-332Q205 -348 201 -359Q204 -363 204 -372Q204 -383 199 -388Q187 -384 174 -381Q171 -381 169 -382V-383Q169 -387 176 -393Q181 -397 181 -401V-403Q180 -409 173 -409Q170 -408 166 -408Q155 -407 136 -395Q121 -386 115 -384Q107 -391 99 -391Q89 -391 89 -378Q89 -369 96 -360Q103 -351 114 -351Q124 -351 137 -361Q148 -370 154 -370H155V-368Q155 -347 127 -339Q122 -337 113 -337Q81 -337 65 -370Q59 -388 53 -406Q45 -436 45 -444Q45 -464 62 -478Q72 -532 98 -549Q100 -547 100 -545Q99 -541 98 -537L99 -534H104Q115 -534 126 -535H131Q136 -539 136 -544Q135 -552 134 -560V-564Q137 -573 140 -582V-586Q137 -599 134 -613Q140 -612 144 -603Q148 -595 152 -594L153 -598Q153 -604 145 -617Q137 -629 137 -637Q137 -642 140 -648Q146 -636 153 -625Q159 -613 170 -607Q165 -625 157 -642Q163 -641 170 -632Q176 -625 182 -623Q195 -630 209 -630Q262 -624 281 -577Q284 -575 290 -575Q303 -579 321 -583H324Q330 -593 330 -622Q330 -678 308 -684Q310 -688 311 -692Q311 -694 309 -696L305 -697Q298 -697 288 -689Q279 -682 274 -681Q273 -683 273 -687Q274 -696 280 -701Q286 -706 291 -712Q296 -719 306 -738Q316 -759 324 -768Q332 -778 361 -795Q393 -811 403 -811H407Q424 -809 436 -790Q447 -773 450 -753H449Q439 -753 432 -766Q426 -777 420 -778H419Q407 -778 407 -763Q407 -737 422 -717Q419 -703 410 -681Q396 -648 396 -628Q397 -622 397 -616Q410 -624 417 -640Q424 -655 432 -670Q454 -704 458 -709Q452 -733 452 -735Q452 -739 453 -741Q475 -727 475 -711V-709Q475 -701 463 -688Q453 -677 450 -672Q446 -661 441 -651Q437 -644 433 -639Q428 -633 428 -624V-619Q450 -625 471 -635Q491 -644 515 -645H520Q512 -639 503 -634Q495 -629 494 -616L495 -615Q501 -617 507 -619L511 -618Q510 -613 504 -609Q500 -606 499 -603Q497 -597 497 -594Q500 -579 508 -561Q503 -553 503 -538Q503 -531 505 -523Q492 -520 484 -513L483 -509Q484 -503 485 -498V-494Q457 -485 425 -474Q393 -463 369 -447Q360 -409 360 -391Q360 -373 367 -360Q381 -372 380 -399Q379 -428 394 -441Q395 -434 395 -419Q395 -364 383 -313H378Q367 -313 366 -306Q379 -309 403 -323Q423 -335 429 -337Q437 -340 444 -340Q460 -340 475 -324Q483 -315 500 -289Q501 -277 501 -265Q501 -250 494 -238Q469 -232 455 -216Q441 -199 428 -181Q410 -153 370 -148Q364 -152 361 -157Q350 -157 342 -152Q334 -147 334 -138Q334 -132 337 -126Q398 -139 461 -156Q470 -136 490 -127Q489 -110 470 -97Q471 -95 471 -92Q471 -87 467 -80Q461 -70 461 -64Q461 -59 462 -57Q447 -51 446 -42Q440 -43 430 -43Q414 -43 393 -37Q376 -32 370 -32Q367 -32 364 -33Q367 -40 383 -44Q399 -48 402 -55Q395 -59 385 -59Q359 -55 339 -48V-43Q337 -16 335 11Q335 20 336 24Q341 37 346 50Z"/>
</svg>