<svg xmlns="http://www.w3.org/2000/svg" viewBox="0 -800 1024 1024">
	<path fill="#000000" d="M904 -199V-197Q897 -197 897 -207Q897 -219 906 -219L910 -218Q907 -208 904 -199ZM71 -171H73Q74 -168 74 -163Q74 -158 69 -146Q63 -152 63 -162Q63 -171 71 -171ZM541 -2V7Q529 9 525 9H521V8Q521 -3 534 -3Q539 -3 541 -2ZM501 -630L497 -629Q485 -629 485 -644Q485 -654 495 -654Q498 -642 501 -630ZM316 -240Q317 -243 317 -247Q317 -254 312 -254Q306 -254 295 -246Q294 -244 294 -241Q296 -234 297 -228Q309 -233 316 -240ZM438 -89H453Q460 -89 462 -92Q456 -101 450 -108Q444 -116 441 -126Q438 -93 438 -89ZM388 -272H393Q397 -286 401 -296V-298Q390 -294 379 -291Q369 -287 368 -273V-269H369Q379 -270 388 -272ZM316 -324Q315 -329 311 -334Q304 -343 304 -351Q294 -346 285 -337Q274 -326 274 -316Q274 -308 279 -303Q288 -309 300 -311Q312 -314 316 -324ZM378 -384H383Q386 -372 388 -361Q388 -356 387 -354Q404 -360 420 -366Q427 -386 431 -408Q431 -414 430 -416Q381 -403 359 -387Q368 -384 378 -384ZM650 -307H646Q638 -311 626 -325Q609 -345 594 -345Q586 -345 577 -342Q579 -351 589 -351H592V-356Q589 -373 580 -382Q589 -389 598 -397Q606 -406 611 -419H612Q625 -422 637 -426Q641 -426 643 -425Q664 -417 681 -394Q699 -369 699 -344Q699 -322 685 -307Q677 -305 674 -305Q662 -306 650 -307ZM672 -606V-602Q672 -597 673 -594Q707 -555 707 -487Q707 -465 703 -448Q683 -436 676 -426Q667 -432 658 -432Q652 -432 645 -428Q622 -437 594 -471Q573 -496 560 -505Q548 -534 524 -552Q527 -555 535 -555Q546 -556 549 -560Q548 -580 531 -597Q509 -617 506 -626Q511 -626 520 -618Q532 -608 542 -608H544L545 -610Q542 -616 539 -622L540 -626Q549 -616 560 -609Q565 -610 565 -618Q565 -621 562 -636Q573 -624 589 -611Q603 -612 614 -618Q615 -619 633 -632Q633 -621 646 -608Q649 -609 655 -609Q665 -609 672 -606ZM418 -197H415L414 -200Q415 -204 415 -208L414 -212Q402 -212 399 -209Q392 -212 375 -212Q362 -183 355 -157Q347 -131 318 -99Q284 -75 241 -27Q208 10 182 30Q171 53 150 64Q155 43 182 16Q207 -9 211 -27Q190 -24 159 12Q118 59 116 61H108Q105 66 105 71Q106 85 119 88Q124 87 129 83Q134 78 139 78H141Q141 83 134 91Q127 99 127 107Q79 101 59 57Q52 53 45 48Q47 34 47 32Q47 24 42 16Q44 9 54 0Q68 -14 70 -27Q73 -57 73 -95Q73 -115 72 -135Q78 -123 81 -89Q85 -40 100 -30Q101 -34 101 -39Q99 -63 96 -87Q97 -91 97 -96Q105 -88 106 -75Q107 -61 109 -51Q112 -40 124 -30Q180 -63 222 -97Q280 -144 286 -171Q268 -159 257 -148Q246 -138 230 -161Q220 -189 209 -216Q198 -243 177 -260Q170 -264 162 -266Q153 -268 150 -278Q152 -279 156 -279Q169 -276 179 -266Q192 -256 205 -246Q213 -238 227 -216Q237 -200 244 -192Q241 -221 227 -258Q221 -264 215 -270Q190 -300 168 -306Q157 -310 140 -324L141 -326Q143 -325 145 -324H146Q144 -351 126 -351Q109 -351 107 -328Q108 -324 108 -321Q110 -313 117 -304Q125 -294 125 -288V-285H123Q113 -288 102 -291Q97 -291 94 -288Q85 -297 85 -308Q85 -309 93 -338Q95 -361 97 -384Q106 -403 108 -414V-416Q107 -423 99 -431Q90 -440 90 -448Q91 -450 91 -453Q97 -451 104 -443Q111 -435 116 -433Q112 -441 105 -450Q98 -459 97 -469Q97 -471 99 -477Q114 -460 128 -444L129 -448Q129 -451 122 -457Q115 -463 115 -468L116 -471Q126 -465 138 -457Q149 -450 162 -449Q169 -449 179 -454Q185 -448 202 -440Q226 -429 232 -417L298 -451Q295 -492 290 -505Q280 -531 254 -533V-543Q254 -550 253 -552Q247 -559 230 -562Q212 -565 206 -573Q211 -579 217 -593Q225 -611 230 -617Q242 -626 259 -637Q267 -643 286 -663Q309 -688 318 -690Q321 -691 326 -691Q347 -689 363 -671Q378 -653 390 -637Q398 -628 410 -617Q422 -605 424 -596V-594Q424 -585 410 -566Q401 -554 398 -546Q395 -525 387 -507Q385 -511 385 -518Q385 -527 393 -548Q402 -571 402 -584V-588Q401 -599 393 -610Q385 -621 374 -621Q367 -621 361 -615Q361 -605 362 -595Q364 -585 375 -582Q369 -550 366 -513Q366 -495 371 -483Q433 -516 470 -542Q478 -514 497 -505Q502 -505 506 -510Q511 -516 515 -516V-512Q515 -499 524 -493Q531 -488 542 -488H544V-483Q544 -458 555 -448Q547 -439 547 -426Q550 -407 552 -388Q552 -378 546 -369Q506 -359 489 -319Q470 -272 454 -228Q441 -207 436 -186Q430 -186 425 -192Q421 -197 418 -197ZM954 -60V-58Q954 -53 951 -49Q952 -45 959 -37Q966 -30 968 -23Q972 -12 972 4Q970 31 968 58Q957 66 953 78Q941 77 929 75Q924 75 922 76Q920 69 912 69Q909 69 907 70Q894 53 872 48Q850 43 821 38Q765 27 709 18Q679 16 651 14Q624 11 598 3Q602 -2 611 -2Q620 -2 630 0Q676 5 725 9Q774 13 814 24V22L815 21Q811 9 781 -2Q728 -22 615 -28Q600 -28 584 -29Q532 -29 454 -24Q445 -24 431 -15Q417 -6 417 1V2Q417 12 429 12Q437 12 458 6Q483 -1 493 -1Q502 -1 507 3Q495 9 457 18Q428 25 418 30Q413 36 401 70L398 69Q395 69 388 74Q382 78 377 79Q374 80 371 80Q361 80 353 72Q348 67 340 55Q342 45 342 42Q342 30 330 11Q319 -6 318 -17V-32Q318 -43 310 -48Q319 -53 333 -67Q348 -82 358 -87Q359 -102 366 -114Q373 -127 380 -138Q385 -147 389 -162Q396 -186 402 -194Q407 -194 407 -189V-185Q407 -181 409 -180Q415 -182 418 -182Q433 -179 442 -169Q449 -181 462 -189V-192Q462 -202 471 -221Q478 -236 479 -246V-249Q478 -260 477 -272Q477 -280 479 -284Q487 -286 495 -288Q505 -282 509 -278Q527 -284 530 -284Q542 -271 547 -252Q532 -241 525 -222Q517 -203 512 -183H514Q522 -184 522 -191Q522 -199 524 -206Q526 -205 529 -205Q537 -205 546 -221Q549 -219 550 -213Q552 -205 555 -204L572 -213Q573 -200 586 -181Q602 -156 602 -140Q602 -133 601 -129Q589 -107 553 -105Q552 -111 543 -119Q536 -125 534 -132Q522 -129 512 -118Q508 -113 495 -96Q539 -98 559 -98Q623 -98 700 -90V-92Q699 -114 682 -122Q685 -127 689 -127Q693 -126 697 -126Q717 -143 717 -183Q717 -189 716 -195Q703 -191 690 -168Q681 -152 672 -146Q670 -148 666 -148Q662 -146 658 -144Q652 -153 641 -154Q630 -156 620 -158Q610 -163 605 -171Q599 -179 593 -186V-191Q592 -207 584 -214Q575 -221 568 -231Q569 -236 569 -244Q568 -261 561 -273Q554 -284 550 -298Q566 -286 578 -272L580 -275Q579 -278 578 -282Q586 -280 593 -278Q597 -281 605 -281H620Q630 -283 647 -291Q676 -305 692 -305H694Q677 -290 651 -279Q639 -276 624 -273Q609 -271 605 -260Q605 -248 615 -246Q621 -244 624 -244Q638 -245 654 -256Q669 -267 685 -276Q696 -281 706 -285Q717 -290 724 -301Q727 -322 727 -342Q726 -372 725 -403Q725 -414 727 -436Q734 -485 738 -600Q740 -623 741 -646Q741 -674 730 -686Q717 -684 706 -673Q691 -658 686 -655Q689 -666 701 -681Q715 -699 718 -712Q716 -714 714 -714Q710 -712 705 -711H703Q703 -717 710 -729Q707 -739 703 -749Q713 -767 728 -786Q748 -806 763 -809H766Q790 -809 804 -797Q814 -790 830 -763Q850 -730 866 -724Q863 -718 863 -710Q865 -695 867 -680Q837 -637 814 -533V-547Q814 -595 828 -627Q845 -658 849 -681V-682Q846 -709 824 -710Q810 -710 805 -695Q804 -693 804 -689Q808 -672 815 -658Q815 -655 805 -615Q788 -532 786 -480Q786 -467 785 -455Q785 -434 790 -420Q797 -439 804 -459Q801 -414 797 -370Q797 -356 798 -350Q814 -352 840 -365Q868 -379 885 -379Q892 -386 897 -395Q903 -403 914 -405Q907 -396 907 -386Q907 -369 923 -369Q928 -369 931 -370Q931 -365 927 -361Q922 -356 922 -352L923 -348L924 -347Q927 -348 929 -350L932 -348Q924 -340 924 -326Q924 -314 931 -307Q915 -295 914 -278Q904 -278 890 -277Q877 -276 869 -270H863Q825 -265 792 -247Q791 -233 791 -205Q791 -120 814 -74H818Q839 -72 859 -71H864Q867 -75 867 -81Q867 -88 866 -96V-100Q871 -99 873 -89Q875 -79 879 -77V-82Q879 -100 873 -132Q870 -147 870 -150Q870 -158 876 -159Q882 -122 898 -99Q884 -163 876 -227Q891 -199 898 -164Q904 -128 914 -96Q914 -108 907 -139Q900 -172 900 -189Q910 -186 910 -175Q910 -164 911 -155Q927 -86 954 -60Z"/>
</svg>