<svg xmlns="http://www.w3.org/2000/svg" viewBox="0 -800 1024 1024">
	<path fill="#000000" d="M870 -700H869Q869 -715 885 -717Q882 -711 880 -706Q877 -700 870 -700ZM570 62V68Q568 69 565 69Q557 68 548 67V59Q567 61 570 62ZM306 -553Q297 -544 283 -540Q283 -544 280 -544Q284 -554 298 -556Q303 -556 306 -553ZM620 -175H623Q660 -178 702 -187Q704 -195 706 -204Q700 -206 696 -206Q675 -202 656 -194Q646 -193 634 -190Q622 -188 620 -175ZM737 -268Q734 -269 727 -269Q707 -266 685 -259Q663 -255 645 -251Q627 -247 620 -233Q675 -243 730 -253Q734 -260 737 -268ZM644 -431V-426Q667 -430 678 -437Q679 -448 686 -468Q694 -489 694 -499Q694 -506 691 -512L692 -513L691 -514Q671 -508 651 -504Q631 -500 622 -483Q628 -471 635 -469Q636 -470 646 -483Q652 -491 662 -492Q651 -479 645 -462L647 -460H653V-459Q646 -446 644 -431ZM275 55V60Q272 60 271 55Q270 51 269 50Q263 48 261 48Q253 49 244 50H240Q219 39 201 19Q195 12 186 -7Q177 -28 166 -35Q167 -40 168 -45Q168 -49 163 -52L160 -53Q154 -50 147 -47H146Q150 -55 162 -65Q176 -76 179 -84V-89Q179 -107 189 -107H192Q192 -97 191 -88Q191 -56 205 -46Q216 -56 216 -96Q216 -127 220 -136Q222 -134 223 -129Q224 -122 226 -122Q238 -125 239 -148Q240 -176 244 -181Q242 -186 241 -192Q241 -198 235 -199H234Q228 -199 226 -184Q225 -171 219 -171Q216 -171 214 -172Q208 -169 205 -154Q202 -137 194 -135Q193 -139 193 -148Q193 -166 199 -184Q204 -193 208 -202Q211 -219 214 -236Q224 -265 237 -289Q239 -277 241 -265L242 -264Q243 -264 245 -268Q247 -273 250 -273Q258 -267 267 -248Q277 -228 287 -222Q309 -236 331 -242Q314 -251 296 -261Q290 -269 290 -288V-308Q288 -321 285 -334V-337Q286 -344 294 -355Q303 -367 303 -374H301Q289 -374 269 -360Q252 -354 235 -348Q203 -329 175 -305Q163 -293 153 -282Q142 -271 125 -270Q117 -270 108 -273Q99 -278 90 -283Q76 -288 65 -290Q53 -292 44 -302Q37 -317 37 -336Q37 -355 43 -373Q33 -384 33 -409Q33 -439 47 -451Q46 -453 46 -458V-468Q54 -479 62 -489Q70 -499 83 -505Q84 -503 84 -499V-493Q84 -485 87 -483Q117 -484 166 -503Q180 -508 195 -515Q211 -521 227 -522Q231 -521 235 -521Q208 -503 172 -492Q154 -487 137 -480Q119 -473 114 -454Q123 -449 134 -449Q150 -450 166 -459Q181 -468 196 -477Q225 -490 253 -503Q282 -517 311 -531Q352 -544 366 -559Q362 -565 353 -565Q340 -562 327 -560L323 -561Q332 -571 362 -583Q389 -594 399 -604H400L402 -601V-596Q402 -593 404 -592Q408 -590 416 -590Q423 -590 444 -597V-592Q444 -587 449 -583Q456 -585 464 -593Q475 -603 484 -604Q480 -597 474 -591Q468 -585 467 -577V-574H470Q473 -574 474 -577Q476 -581 479 -581H482L484 -579Q481 -574 478 -569Q489 -521 492 -468Q492 -453 491 -446Q448 -438 416 -407Q391 -383 369 -339Q389 -326 417 -315Q444 -303 459 -285Q475 -266 475 -228V-220Q473 -203 460 -195Q448 -187 430 -184Q391 -180 360 -169Q315 -146 305 -139Q304 -134 304 -123Q304 -104 311 -70Q318 -36 318 -22Q318 -16 317 -10Q313 10 297 21Q278 32 275 55ZM921 -121V-116Q919 -87 912 -52Q888 -38 884 -34Q882 -46 857 -49Q838 -51 833 -56Q838 -61 850 -61Q857 -61 863 -59Q863 -62 866 -64Q854 -86 802 -86Q748 -86 721 -69Q724 -60 740 -60Q759 -61 777 -63Q789 -63 794 -59Q783 -51 749 -51Q713 -50 703 -44V-22Q703 -14 702 -12L698 -11Q694 -11 693 -15Q691 -21 691 -28Q681 -26 678 -19L685 88Q707 79 707 48Q707 36 703 14Q715 18 718 41V49Q718 73 703 96Q688 118 670 122Q643 113 627 93Q611 73 576 70Q585 67 597 67H605Q587 60 567 54Q547 48 531 38Q534 37 540 37Q551 37 571 44Q591 51 605 51H610Q608 45 597 41Q587 36 579 32Q580 28 584 28Q592 31 599 34Q605 33 620 25Q627 3 629 -26V-31H622Q586 -29 563 -10Q539 10 515 25Q502 22 483 12Q458 -1 441 -3Q427 -11 427 -27Q428 -45 438 -64Q448 -83 452 -97H467Q485 -122 521 -130V-129Q521 -125 515 -121Q506 -115 506 -110V-109Q506 -96 520 -96Q533 -98 545 -100Q604 -103 641 -113Q642 -116 642 -121Q642 -126 638 -129Q626 -128 619 -122Q612 -116 604 -112H599Q590 -112 581 -113Q576 -113 574 -112Q566 -119 556 -124Q544 -174 511 -202Q485 -210 485 -243V-250Q494 -268 494 -276L491 -277Q487 -275 482 -274Q472 -282 459 -302Q447 -321 440 -327Q442 -333 442 -339Q442 -349 441 -360V-365Q444 -391 470 -402H473Q485 -400 497 -399H500Q527 -405 565 -409Q554 -425 549 -429Q538 -439 523 -440Q523 -446 532 -446H537Q539 -449 540 -454Q540 -458 545 -459Q535 -470 523 -481Q510 -493 509 -512V-515Q514 -525 517 -537V-540Q517 -548 512 -563Q506 -581 506 -587Q506 -589 508 -595Q515 -608 529 -617Q543 -625 555 -633Q562 -627 568 -621Q579 -622 597 -629Q619 -637 631 -638Q635 -643 635 -659Q635 -675 632 -684Q629 -697 611 -723Q596 -746 595 -756Q599 -778 617 -795Q639 -812 667 -819Q678 -822 687 -822Q718 -822 723 -799H720Q717 -799 705 -802Q697 -797 697 -790Q698 -780 709 -771Q721 -762 727 -756V-747Q727 -730 732 -724Q747 -734 747 -755Q747 -769 740 -787Q750 -786 753 -777Q756 -768 761 -762Q758 -759 758 -754Q758 -749 761 -745Q754 -731 745 -715Q736 -699 735 -680Q735 -670 737 -664Q773 -678 827 -685L830 -684Q827 -681 824 -678H826Q832 -678 842 -684Q854 -691 859 -691H862Q862 -689 854 -681Q846 -674 845 -664Q845 -659 848 -655H853Q865 -655 866 -658L867 -656Q862 -648 856 -640Q859 -628 861 -617Q863 -605 870 -598Q868 -590 859 -581Q847 -569 847 -557V-555Q840 -554 798 -543Q800 -540 801 -540Q806 -542 811 -544H813Q810 -542 810 -541Q814 -538 823 -537Q822 -532 822 -522Q822 -509 823 -502Q795 -480 774 -452Q822 -464 879 -474Q883 -478 887 -485Q891 -491 896 -492Q899 -490 899 -486V-474Q902 -469 906 -469Q914 -471 922 -474Q926 -474 927 -471V-470Q923 -464 918 -459Q921 -453 924 -448Q932 -450 940 -453Q944 -453 946 -451Q945 -447 938 -445Q940 -437 947 -424Q956 -407 956 -398V-396Q955 -386 940 -374Q926 -363 924 -354Q883 -356 841 -358Q823 -358 814 -357V-360Q814 -370 836 -370H848Q867 -369 886 -368H891Q888 -391 827 -391H810Q801 -391 785 -389Q691 -381 622 -349H613Q598 -349 594 -337Q598 -334 606 -334Q608 -334 635 -340Q718 -357 765 -358Q758 -349 745 -349Q733 -349 721 -348Q646 -341 561 -299Q562 -296 567 -295Q572 -294 573 -292Q612 -307 656 -315Q701 -322 747 -333Q776 -345 802 -349Q816 -347 829 -346H833Q838 -341 838 -336V-333Q840 -328 851 -326Q862 -324 863 -317Q875 -328 888 -336L889 -332Q889 -326 880 -318Q872 -311 872 -306L873 -302L875 -299Q879 -301 882 -304L885 -302Q887 -278 889 -254Q889 -240 885 -228Q877 -230 873 -230Q863 -230 848 -221Q837 -214 830 -213V-215Q831 -224 838 -230Q846 -236 851 -242Q850 -244 850 -251H847Q817 -251 798 -225Q782 -203 780 -170Q788 -172 797 -185Q806 -198 815 -198H816Q814 -187 799 -167Q787 -150 783 -141Q769 -147 746 -147Q721 -145 696 -144L695 -140Q699 -132 702 -124Q717 -129 757 -133Q810 -139 830 -150Q837 -148 844 -147Q848 -148 873 -163Q878 -149 879 -148H880Q886 -151 892 -154H893Q892 -152 892 -147Q892 -129 921 -121Z"/>
</svg>