<svg xmlns="http://www.w3.org/2000/svg" viewBox="0 -800 1024 1024">
	<path fill="#000000" d="M255 -197H260V-216Q257 -216 253 -217Q243 -217 235 -212Q227 -207 227 -200Q227 -194 231 -190Q240 -197 255 -197ZM253 -269Q252 -274 250 -280V-282Q221 -273 208 -259H211Q221 -259 234 -264Q246 -269 253 -269ZM368 -239V-241Q359 -244 350 -244Q336 -244 326 -237Q316 -230 316 -218Q316 -212 317 -209Q330 -216 352 -216H361V-219Q365 -233 368 -239ZM411 -314Q401 -317 389 -317Q361 -317 328 -305V-293Q328 -287 330 -285Q345 -296 362 -296Q373 -296 382 -291Q386 -281 395 -273Q396 -276 411 -314ZM361 -368Q353 -379 333 -379Q311 -379 285 -365Q259 -351 258 -338Q276 -348 316 -356Q346 -362 361 -368ZM358 -448V-461Q358 -468 356 -470Q348 -460 335 -460Q323 -460 306 -457Q293 -454 279 -445Q263 -434 263 -422Q264 -419 264 -417Q312 -432 358 -448ZM371 -609V-618Q351 -617 334 -605Q288 -597 275 -560Q311 -575 349 -596V-592Q349 -585 358 -581L357 -577Q359 -564 361 -551Q361 -548 359 -540Q334 -531 308 -522Q282 -513 267 -492Q290 -498 308 -508Q326 -518 346 -527V-525Q346 -519 353 -505Q359 -493 359 -487V-486Q371 -568 371 -609ZM288 17Q278 17 276 0Q280 -2 284 -2Q286 8 288 17ZM518 -101Q515 -89 511 -78L512 -74Q502 -60 465 -60Q450 -60 435 -61Q412 -61 398 -56Q396 -44 396 -39Q398 -19 399 1Q399 14 395 23Q389 18 385 -4Q382 -18 379 -24Q369 -18 369 8Q370 27 370 46V54Q370 61 369 68Q369 77 376 80Q384 77 388 62Q392 48 398 45Q401 54 401 63Q398 100 374 117Q371 117 368 116Q360 116 353 123Q330 109 309 63Q295 43 291 18V16Q294 17 297 23Q300 28 303 29Q291 4 281 -23Q285 -19 292 -8Q300 4 306 9L294 -20H295Q306 -14 318 -3Q327 -18 330 -47Q323 -51 307 -51Q282 -51 266 -44V-37Q267 -7 268 22Q268 49 263 61Q259 71 251 80Q242 90 234 91H232Q223 91 211 83Q197 74 189 74Q183 74 179 76Q182 70 185 64H184Q174 64 165 75Q158 83 155 83Q162 59 180 46Q175 39 175 34Q180 15 184 -5Q184 -13 182 -17Q166 -15 140 4Q106 28 87 28H82Q49 16 26 -15V-20Q26 -37 36 -58Q46 -79 47 -92Q65 -107 84 -121Q102 -135 130 -140Q104 -124 100 -109L102 -108Q107 -112 114 -116Q112 -110 109 -104Q116 -100 125 -100Q146 -102 167 -105Q176 -105 183 -102Q176 -97 157 -93Q134 -89 128 -81Q131 -73 139 -69Q201 -85 266 -99Q260 -106 246 -106Q230 -104 213 -103Q209 -103 205 -104Q214 -115 240 -119Q300 -128 362 -138Q424 -149 466 -167Q470 -173 474 -180Q478 -187 484 -191Q479 -186 479 -178Q479 -170 484 -167Q488 -172 491 -178Q492 -176 492 -173V-165Q492 -160 494 -158Q499 -160 504 -162H505L507 -161Q503 -159 503 -156V-155Q509 -149 511 -143Q512 -139 512 -126Q515 -113 518 -101ZM788 55V56Q788 62 779 62H762L759 52Q764 49 772 49Q784 49 788 55ZM913 -248H922Q921 -246 921 -241V-235Q921 -229 919 -227Q912 -236 912 -243Q912 -247 913 -248ZM530 -342Q535 -365 546 -385Q547 -385 551 -390Q555 -396 558 -397Q562 -393 565 -389Q571 -394 589 -398Q614 -404 620 -412Q627 -422 627 -435Q627 -453 617 -466Q607 -479 594 -479Q582 -479 573 -466Q588 -499 589 -530Q601 -536 619 -561Q635 -583 647 -590Q655 -595 667 -599Q686 -605 694 -611Q714 -604 725 -588Q736 -572 747 -554Q747 -534 756 -507Q763 -484 765 -473Q779 -478 795 -484Q812 -491 824 -503Q834 -482 853 -482Q859 -482 869 -490Q879 -498 887 -498L891 -497Q880 -488 878 -485Q871 -477 871 -468Q871 -463 872 -460H873Q880 -462 887 -465L891 -464Q871 -428 871 -401Q876 -385 881 -369Q880 -356 873 -346Q866 -336 862 -326H859Q840 -324 837 -309Q833 -293 823 -281Q822 -284 822 -290Q822 -308 842 -335Q860 -360 860 -374Q860 -387 850 -401H848Q827 -399 822 -375Q816 -351 811 -331Q796 -289 777 -245Q757 -202 755 -152Q770 -157 780 -191Q791 -228 802 -236Q797 -207 777 -150Q761 -107 756 -85Q794 -77 825 -77Q864 -77 881 -90Q881 -106 884 -112Q891 -104 892 -90Q895 -102 895 -115Q894 -138 893 -161Q893 -173 894 -179Q906 -154 906 -98Q908 -108 908 -129Q903 -191 898 -260Q908 -223 913 -180Q918 -138 924 -98Q927 -110 927 -124Q923 -168 919 -213V-220Q935 -172 940 -115L941 -113Q943 -115 944 -117L946 -116Q951 -77 964 -58Q959 -50 959 -42Q961 -27 967 -13V-11Q966 -7 965 -4Q970 5 973 15V17Q965 31 962 50Q949 57 947 68H937Q883 64 829 59Q831 60 833 61L829 62Q819 61 818 50Q830 45 843 45Q870 47 897 49Q915 49 925 43Q917 35 887 32Q880 31 827 29Q773 22 730 18Q720 18 715 19Q708 20 701 24Q694 28 694 34V35Q695 44 716 46Q736 48 736 61V62Q694 62 668 50Q643 29 642 -17Q642 -35 648 -52Q657 -66 665 -80L676 -116Q689 -149 702 -182Q722 -258 744 -323H743Q713 -320 688 -294Q679 -272 672 -239Q653 -186 633 -134Q618 -92 614 -64Q609 -53 601 -37Q592 -22 588 -2V16Q588 25 586 29Q576 47 558 59H556Q544 55 531 51Q525 51 521 53Q520 52 520 47Q520 41 521 40Q503 32 495 14Q486 -6 463 -11Q466 -14 469 -14Q476 -13 482 -12Q485 -12 487 -13Q480 -23 458 -32Q433 -42 428 -52Q437 -52 455 -44Q476 -35 491 -35Q495 -40 504 -57Q513 -74 520 -82Q529 -105 537 -128Q545 -152 561 -167Q558 -148 544 -116Q527 -78 527 -53V-46Q544 -58 556 -83Q563 -97 573 -130Q581 -154 591 -177Q601 -200 605 -224Q602 -225 598 -225Q589 -224 584 -216Q579 -208 574 -202Q572 -204 572 -210Q576 -224 580 -239Q567 -246 553 -254Q551 -264 543 -269Q535 -275 528 -281Q491 -257 468 -220Q444 -183 416 -152Q406 -151 398 -156Q339 -154 279 -152Q260 -150 232 -134Q211 -122 202 -122H199Q185 -129 173 -143Q155 -158 152 -167L156 -168Q162 -168 173 -161Q184 -154 189 -154Q194 -154 198 -159Q185 -179 172 -200Q158 -220 133 -222Q130 -217 130 -213Q130 -206 138 -195Q146 -184 146 -179V-178H144Q135 -179 129 -186Q123 -194 117 -201Q92 -222 88 -227Q73 -245 73 -267V-271Q73 -281 80 -292Q87 -303 88 -311Q89 -314 89 -318Q88 -331 86 -345Q86 -354 90 -359Q90 -345 99 -332Q101 -338 101 -341Q101 -345 96 -358Q91 -371 91 -380V-385Q99 -359 117 -344L118 -348Q118 -352 112 -360Q108 -366 106 -371Q119 -362 131 -353Q140 -356 144 -356Q150 -355 155 -355Q159 -355 162 -356Q178 -342 185 -329Q190 -328 194 -328Q213 -331 232 -335Q223 -352 204 -367Q205 -369 205 -372Q205 -382 196 -386Q198 -404 201 -417Q204 -411 206 -403Q208 -394 216 -392Q220 -424 220 -448Q220 -484 210 -503Q199 -499 199 -481Q200 -467 201 -454Q201 -450 199 -442Q184 -475 184 -485Q184 -490 185 -492Q170 -521 151 -554Q141 -572 140 -575Q140 -579 139 -583Q140 -602 148 -619Q156 -637 162 -653Q167 -650 168 -644Q180 -648 188 -656Q196 -663 204 -672H206Q227 -672 240 -649Q258 -654 275 -659Q261 -683 250 -683Q247 -683 243 -681L242 -684Q245 -690 250 -695V-698Q249 -715 238 -721Q228 -728 217 -735Q234 -736 250 -738Q259 -747 259 -760Q259 -770 253 -781Q270 -773 273 -770Q284 -781 300 -781Q322 -781 339 -763Q356 -746 359 -721V-718Q358 -708 357 -699Q357 -692 359 -689Q386 -702 407 -722H414Q429 -722 439 -712Q445 -718 451 -718H453L456 -716Q456 -715 451 -710Q455 -710 461 -716Q466 -720 470 -721L471 -719Q471 -717 467 -712Q460 -703 460 -699L461 -695H462Q463 -695 470 -706Q467 -697 467 -690Q467 -679 474 -661Q483 -638 483 -626Q483 -618 482 -614Q466 -604 456 -585Q447 -567 436 -551Q431 -570 432 -589Q411 -577 404 -540Q399 -514 399 -465V-426Q408 -433 414 -471Q415 -485 417 -498Q418 -511 430 -514Q429 -498 424 -466Q417 -420 417 -392V-386Q434 -388 445 -396Q457 -403 470 -410L473 -408Q471 -404 468 -401L469 -398Q477 -399 493 -414Q503 -424 508 -426V-423Q508 -418 503 -410Q497 -401 497 -394V-392Q500 -388 503 -388Q512 -390 521 -393L525 -392Q518 -384 518 -371Q518 -352 530 -342Z"/>
</svg>