<svg xmlns="http://www.w3.org/2000/svg" viewBox="0 -800 1024 1024">
	<path fill="#000000" d="M698 -89V-79Q680 -56 680 -48Q626 -3 610 8Q566 37 522 42Q515 43 498 43Q451 43 436 22Q467 25 498 27Q520 27 531 22Q525 12 510 8Q508 7 483 3Q424 -6 386 -33Q372 -48 354 -52Q348 -52 344 -48Q347 -34 364 -18Q376 -6 380 3Q364 2 352 -8Q340 -18 327 -30Q317 -38 306 -47Q295 -56 293 -64Q293 -66 292 -69Q297 -84 301 -100Q301 -105 298 -111Q299 -115 301 -115Q305 -113 309 -111Q311 -114 311 -120Q311 -126 305 -136Q300 -144 300 -148V-150H301Q305 -150 312 -140Q320 -129 325 -129V-132Q324 -143 318 -153Q311 -162 306 -171L308 -173Q316 -169 322 -162Q319 -176 315 -190V-193Q322 -192 325 -186Q328 -179 331 -173Q357 -142 406 -110Q460 -75 495 -72Q503 -71 510 -71Q553 -71 575 -93Q582 -101 587 -110Q592 -118 602 -124Q603 -134 611 -150Q621 -171 621 -184Q621 -191 620 -195H619Q614 -195 604 -188Q593 -180 586 -180H585Q567 -184 539 -199Q530 -200 521 -202Q512 -205 503 -210Q494 -215 480 -216Q476 -215 472 -215Q459 -213 443 -203Q420 -189 405 -189Q399 -189 395 -190H394Q391 -193 390 -198Q387 -199 382 -199Q374 -199 370 -198V-208Q369 -209 367 -209Q362 -206 356 -204H355Q360 -232 385 -256Q408 -279 438 -290Q455 -296 471 -296Q490 -296 531 -284Q569 -273 590 -273Q603 -273 620 -278Q617 -318 583 -351Q549 -383 507 -388H499Q454 -388 444 -350Q435 -345 411 -342Q389 -340 382 -336Q378 -347 364 -350Q362 -350 362 -346Q362 -342 360 -342H359Q356 -344 354 -353Q352 -363 346 -363Q342 -363 342 -359V-353Q342 -350 341 -348Q332 -358 330 -372Q323 -385 321 -399Q315 -399 315 -393Q314 -397 314 -404Q314 -429 331 -452Q368 -495 427 -513Q442 -518 456 -518Q473 -518 482 -507Q440 -500 437 -499Q412 -493 401 -479Q407 -478 417 -478Q448 -480 479 -483H489Q500 -482 524 -476Q540 -472 555 -469Q565 -469 571 -474Q567 -486 542 -494Q520 -501 515 -510H517Q552 -509 577 -493Q603 -478 626 -462Q628 -458 630 -454V-452Q640 -451 649 -440Q657 -429 664 -428Q674 -409 687 -390Q700 -371 710 -348Q734 -286 734 -213Q734 -131 698 -89ZM294 -159Q279 -159 279 -177Q281 -177 283 -178Q294 -178 294 -159ZM420 27Q398 23 398 13Q399 11 399 8Q410 12 420 15Q420 19 419 23Q419 25 420 27ZM528 -673H527Q529 -684 549 -694Q568 -704 570 -718Q576 -715 582 -712Q593 -721 604 -721Q622 -721 651 -700Q659 -683 668 -664Q677 -644 678 -622Q678 -610 674 -599Q648 -594 622 -590Q555 -585 475 -536Q459 -539 439 -539Q428 -539 424 -538Q424 -542 428 -544Q432 -545 435 -547Q430 -558 415 -558Q399 -555 382 -553Q384 -560 391 -561Q398 -563 403 -567H398Q390 -567 358 -559Q358 -570 374 -576Q387 -581 389 -586Q382 -589 373 -589Q357 -588 340 -581Q323 -573 305 -568Q307 -580 318 -584Q329 -589 339 -592Q451 -635 463 -640Q481 -649 484 -649Q487 -649 489 -648Q486 -642 479 -640Q472 -637 466 -634Q454 -628 441 -621Q429 -615 421 -604Q427 -598 437 -598Q448 -598 466 -607Q544 -643 576 -676Q571 -684 563 -684Q558 -684 545 -678Q534 -673 528 -673ZM351 -560Q348 -550 333 -550Q332 -552 332 -554Q332 -562 343 -562Q347 -562 351 -560Z"/>
</svg>