<svg xmlns="http://www.w3.org/2000/svg" viewBox="0 -800 1024 1024">
	<path fill="#000000" d="M921 -236H925Q927 -234 927 -230Q927 -228 921 -216Q918 -220 918 -226Q918 -234 921 -236ZM882 -471H874Q872 -475 872 -476Q872 -483 884 -483L888 -482V-481Q888 -477 882 -471ZM70 -58Q65 -49 49 -48L48 -51Q48 -61 62 -61Q67 -61 70 -58ZM467 27L474 28Q489 30 530 23Q562 17 579 17Q588 4 592 -10Q556 -4 518 5Q491 11 487 12Q470 17 467 27ZM626 -72H617Q592 -69 567 -64Q539 -61 514 -57Q489 -54 475 -44Q468 -39 468 -33Q468 -25 469 -24Q548 -39 592 -53Q604 -48 614 -41Q624 -61 626 -72ZM500 -109H494Q513 -120 540 -125Q567 -130 592 -135Q560 -146 550 -153H556L559 -155Q553 -161 553 -166Q553 -169 556 -171Q539 -189 529 -210Q545 -200 565 -196Q575 -205 582 -216Q573 -227 568 -238Q502 -229 448 -213Q464 -201 472 -199Q475 -200 479 -205Q484 -211 491 -211V-208Q490 -201 489 -195Q489 -192 491 -190Q494 -190 502 -194Q512 -199 519 -199H521Q502 -192 502 -177Q502 -168 512 -162Q499 -160 499 -141V-137Q485 -128 470 -120Q445 -126 419 -129Q409 -142 389 -157Q362 -184 355 -183Q347 -182 343 -161Q338 -136 327 -136H326L325 -139Q325 -144 332 -157Q338 -168 338 -174Q338 -178 337 -179Q323 -178 317 -169Q311 -160 306 -150Q291 -127 291 -117Q291 -109 297 -102Q304 -103 309 -112Q315 -122 325 -122H326V-120Q326 -115 322 -109Q319 -105 319 -103L320 -100Q329 -102 341 -110Q361 -123 376 -123Q382 -123 385 -122Q396 -120 404 -114Q412 -108 421 -103Q439 -106 446 -106Q456 -106 459 -102Q448 -98 439 -93Q445 -83 459 -83Q480 -85 500 -91Q616 -115 621 -116Q618 -124 600 -124Q593 -123 586 -123Q573 -122 546 -116Q515 -109 500 -109ZM842 -641Q828 -627 821 -604Q814 -580 807 -559Q779 -559 754 -563L753 -567Q753 -575 771 -576Q789 -577 791 -585Q782 -608 733 -608Q683 -608 669 -585Q676 -578 697 -578H709Q734 -578 739 -566Q699 -555 677 -543Q640 -522 637 -491Q612 -476 585 -476Q578 -483 567 -483Q541 -483 538 -481Q567 -539 577 -552Q573 -558 568 -558Q556 -554 544 -548Q529 -548 515 -562V-560H470Q460 -560 458 -548Q453 -549 441 -549Q422 -549 411 -541Q419 -520 427 -500Q439 -499 445 -494Q447 -493 457 -480Q460 -476 476 -464Q487 -455 490 -445Q503 -448 516 -452Q519 -448 521 -444Q523 -440 529 -438Q549 -441 568 -445Q562 -441 554 -437Q546 -433 545 -427L546 -423L548 -421Q552 -422 556 -423Q555 -419 553 -415Q553 -407 558 -402Q548 -394 548 -379Q548 -368 553 -355Q537 -339 513 -339H505Q506 -345 518 -348Q528 -351 531 -354Q529 -361 505 -361Q467 -361 447 -352Q441 -349 436 -337Q439 -335 445 -335Q460 -337 475 -339Q480 -339 482 -338Q467 -331 449 -326Q425 -321 423 -300V-295Q457 -297 487 -308Q516 -319 544 -327Q550 -322 556 -317H557Q563 -319 568 -321L571 -319Q565 -313 565 -306Q567 -296 577 -286Q591 -291 632 -295Q640 -304 647 -314H644Q626 -316 608 -319Q588 -336 567 -354V-374Q573 -378 575 -395Q577 -407 580 -413Q589 -426 603 -430Q618 -434 635 -441L636 -440Q631 -434 626 -426Q651 -429 675 -432Q688 -441 688 -456Q688 -475 666 -499Q666 -502 670 -504Q675 -507 676 -508Q669 -516 659 -523L663 -524Q672 -521 681 -519Q691 -524 702 -529Q713 -535 730 -535Q735 -534 740 -534V-533L741 -529V-528Q792 -510 792 -485Q792 -477 787 -469H790Q795 -469 807 -474Q819 -479 829 -479Q824 -472 817 -466Q821 -461 828 -461Q845 -465 862 -469H865Q864 -466 855 -461Q844 -455 844 -450Q844 -447 845 -445H847Q853 -446 859 -448L863 -447Q855 -444 855 -433Q855 -422 862 -415Q860 -412 857 -411Q852 -409 852 -405Q852 -402 854 -400Q842 -379 812 -372Q782 -366 754 -358Q720 -350 716 -317Q762 -328 789 -331Q787 -325 759 -317Q740 -314 727 -306Q737 -299 748 -299Q774 -302 803 -315Q843 -325 850 -332Q846 -337 837 -337Q827 -336 816 -335L812 -336V-337Q813 -345 823 -348Q833 -350 844 -353Q861 -362 878 -365H880V-364Q880 -361 877 -359Q873 -356 873 -354V-353Q879 -350 886 -350Q907 -354 930 -361V-359Q930 -357 921 -353Q906 -346 906 -341L907 -338L910 -337Q916 -339 922 -342Q925 -342 927 -341Q918 -336 918 -323Q919 -311 920 -300Q920 -292 918 -288Q901 -271 891 -262Q879 -265 868 -265Q831 -261 802 -253Q837 -227 877 -213Q885 -220 889 -240Q892 -255 895 -260Q898 -255 898 -249Q898 -239 897 -230Q897 -219 901 -214Q902 -216 903 -228Q903 -237 906 -238Q908 -221 915 -205L917 -208Q917 -210 916 -213L918 -216Q926 -203 931 -187Q941 -179 947 -166Q950 -155 950 -145Q950 -113 930 -100Q912 -99 893 -98H885Q867 -105 853 -115H850Q839 -115 834 -121Q829 -127 824 -133Q817 -140 809 -145Q802 -150 801 -157Q801 -161 802 -163Q812 -160 826 -145Q839 -131 853 -131Q851 -157 812 -185Q772 -214 744 -216Q746 -209 760 -199Q772 -191 773 -181Q740 -203 703 -221L695 -228Q661 -222 652 -197Q643 -167 630 -140H633Q643 -140 666 -147Q699 -157 714 -157Q733 -157 743 -150L759 -153L758 -149V-147Q763 -148 769 -152Q776 -157 783 -157H784Q772 -145 772 -138Q772 -134 776 -130H777Q785 -134 793 -141Q796 -139 796 -136Q795 -130 793 -125V-123Q794 -117 804 -106Q814 -96 815 -90Q816 -85 816 -81Q816 -67 808 -58Q793 -49 774 -44Q763 -37 752 -31L751 -34Q751 -39 759 -46Q768 -54 768 -60V-61Q762 -64 755 -64Q742 -64 730 -56Q717 -48 716 -37H715Q712 -39 709 -42Q684 -31 670 9Q664 23 656 37Q648 51 647 66Q647 74 650 81Q665 69 679 36Q690 10 698 1Q705 1 709 4Q714 3 718 -4Q723 -13 732 -13H735Q735 -12 700 50Q678 89 673 117Q665 115 662 115Q649 118 635 121Q629 121 622 121Q600 121 586 110Q571 99 570 81H563Q488 81 467 111Q459 115 450 118Q440 117 429 110Q418 103 411 102Q410 87 391 84V78Q391 66 377 42Q361 16 356 6Q309 -13 296 -64Q271 -71 232 -75Q216 -75 207 -70L206 -72Q206 -75 210 -78Q214 -81 214 -82Q211 -83 205 -83Q190 -83 166 -72Q152 -65 143 -64Q147 -72 168 -80Q184 -86 190 -92Q170 -91 135 -77Q106 -66 85 -64Q122 -86 166 -104Q209 -122 228 -156Q162 -149 153 -124Q140 -118 127 -113Q111 -121 96 -128Q81 -136 57 -138Q52 -142 46 -145Q40 -149 38 -155V-157Q41 -168 43 -179V-180Q41 -194 38 -208V-211Q41 -223 57 -234Q68 -241 91 -251Q118 -265 153 -268Q150 -263 142 -258Q130 -250 128 -245H135Q155 -245 184 -250Q207 -254 220 -254H234Q226 -248 190 -244Q142 -239 133 -228Q142 -219 157 -219Q185 -222 219 -232Q260 -239 282 -244Q290 -252 294 -260Q290 -262 289 -262Q282 -260 275 -259H272Q275 -267 285 -269Q296 -271 306 -273Q318 -282 324 -295Q301 -287 278 -280Q272 -276 264 -269Q255 -263 244 -262Q239 -263 234 -266Q226 -271 221 -271H220Q210 -282 199 -301Q196 -305 179 -316Q167 -324 167 -335Q167 -340 168 -343Q174 -353 185 -364Q165 -389 165 -390H166Q172 -390 177 -385Q182 -380 185 -380Q188 -380 190 -381Q188 -386 176 -395Q161 -406 159 -415Q166 -415 179 -405Q191 -396 199 -396Q204 -396 210 -399Q209 -401 206 -403Q200 -406 200 -408L201 -410Q223 -408 237 -408Q295 -408 367 -426V-427Q367 -433 361 -443Q355 -453 355 -458Q355 -463 358 -466Q336 -492 325 -513H321Q304 -510 287 -507H283Q284 -518 291 -522Q298 -525 305 -529Q300 -531 286 -531Q268 -531 251 -524Q233 -516 228 -503Q231 -500 235 -500Q239 -500 251 -506Q265 -513 275 -513H277Q269 -500 251 -488Q245 -482 237 -472Q228 -462 219 -459Q215 -458 211 -458Q194 -458 174 -469Q153 -480 150 -492Q147 -499 147 -509Q147 -534 159 -546Q156 -559 156 -573Q160 -637 201 -661Q201 -642 206 -638Q244 -643 283 -650Q277 -660 277 -678Q279 -696 280 -714H283Q287 -713 290 -706Q294 -698 299 -697H301Q311 -697 314 -704Q327 -685 355 -664Q403 -680 421 -698Q424 -698 425 -694Q426 -690 428 -687Q459 -692 491 -693Q500 -691 510 -681Q535 -689 563 -694Q588 -697 612 -700Q615 -718 618 -737Q616 -744 605 -744Q599 -743 593 -743Q604 -764 631 -786Q665 -812 680 -812H681Q700 -812 735 -778Q763 -751 776 -747Q772 -741 766 -735Q761 -730 760 -719Q764 -717 771 -717Q784 -717 805 -725Q807 -707 825 -693Q833 -698 850 -698Q860 -698 864 -697Q855 -694 847 -690Q838 -687 837 -675Q837 -670 843 -670Q848 -671 853 -672H855Q853 -667 846 -667Q838 -658 835 -645Q835 -640 838 -640Z"/>
</svg>