<svg xmlns="http://www.w3.org/2000/svg" viewBox="0 -800 1024 1024">
	<path fill="#000000" d="M811 -28H810Q810 -40 823 -54Q834 -66 834 -73Q830 -76 826 -76Q820 -76 802 -64Q781 -48 762 -31Q743 -13 717 0Q680 18 647 30Q618 39 590 48Q562 56 549 80Q557 83 566 83Q579 83 622 71Q649 61 677 56Q672 61 659 68Q622 83 576 98Q574 97 571 97Q560 99 549 100Q544 100 542 97Q520 108 478 108Q418 105 378 101Q241 60 157 -22Q107 -94 93 -126Q64 -192 52 -252Q44 -292 44 -344Q44 -460 86 -532V-534Q85 -538 84 -543Q85 -544 85 -546Q118 -609 157 -658Q178 -684 198 -684H200Q199 -676 188 -667Q176 -657 176 -648Q176 -646 178 -640H181Q188 -640 203 -655Q240 -687 274 -709Q326 -739 385 -763Q374 -768 359 -768Q330 -766 301 -752Q273 -737 249 -727V-729Q249 -736 257 -741Q260 -743 270 -748Q358 -798 484 -807Q493 -808 512 -808Q677 -808 809 -678Q815 -676 820 -675Q844 -637 872 -604Q884 -586 896 -568Q904 -553 910 -536Q916 -520 927 -508Q941 -456 951 -396Q956 -358 956 -355Q956 -349 955 -343V-307Q955 -251 918 -164Q913 -153 903 -138Q888 -116 884 -102Q857 -77 835 -48Q830 -41 825 -35Q819 -28 811 -28ZM768 -214V-216Q771 -221 773 -226V-227H768Q764 -227 764 -228V-231Q765 -238 770 -241Q775 -244 779 -247Q758 -245 746 -241Q744 -247 744 -254Q745 -266 745 -279V-281Q741 -268 736 -256Q731 -244 717 -240H708Q688 -242 667 -245H666Q663 -244 660 -243Q625 -243 589 -244Q552 -244 519 -241Q504 -239 487 -234H480Q468 -232 456 -231Q419 -231 382 -224Q378 -225 371 -225Q348 -225 314 -217Q302 -217 299 -221Q298 -222 298 -224Q301 -229 303 -234Q294 -229 285 -224Q289 -236 312 -247Q331 -257 338 -266Q329 -263 302 -249Q281 -238 266 -233Q259 -230 248 -221Q239 -214 234 -211Q225 -206 216 -201Q206 -196 202 -187Q201 -184 201 -177Q204 -162 209 -150V-149Q206 -137 203 -126Q204 -125 204 -123Q207 -112 217 -110Q226 -107 236 -103Q240 -103 252 -93Q270 -85 282 -76Q291 -84 300 -88Q304 -95 307 -102Q312 -109 327 -115Q342 -121 348 -128H335Q329 -128 326 -130Q332 -146 361 -153Q406 -163 407 -164Q410 -160 412 -157Q409 -149 389 -146Q370 -143 369 -132Q375 -136 400 -140L412 -146Q424 -148 437 -147Q449 -147 458 -154Q455 -154 451 -155Q445 -154 438 -154Q431 -154 427 -159Q453 -179 527 -179H561Q582 -179 602 -180Q644 -180 660 -164Q654 -161 650 -158Q602 -166 567 -166Q527 -166 492 -154Q520 -159 558 -159Q626 -159 686 -146Q685 -149 678 -152Q670 -156 669 -161Q676 -166 681 -166Q700 -166 711 -149Q710 -148 705 -148H700Q698 -148 694 -146Q702 -137 714 -132Q736 -120 758 -119Q785 -132 785 -154Q785 -164 781 -171Q782 -172 782 -176Q780 -189 777 -203Q777 -207 778 -209Q775 -210 772 -210Q768 -211 768 -214ZM633 -451H635Q634 -452 634 -455Q634 -460 643 -460Q645 -466 647 -472Q650 -489 652 -506Q654 -511 664 -521Q671 -528 674 -534Q666 -539 666 -546Q672 -565 689 -576Q677 -573 664 -570H660Q662 -575 663 -581H660Q655 -580 650 -579L647 -585Q647 -587 652 -590Q657 -593 658 -597Q649 -594 639 -591H637Q631 -595 625 -600Q623 -601 619 -601Q609 -599 598 -597H596Q590 -591 572 -587Q555 -583 549 -579V-576Q550 -575 552 -575Q559 -576 566 -577Q575 -577 575 -571V-570Q547 -561 473 -552Q445 -547 417 -542Q410 -542 405 -545Q405 -555 412 -557Q420 -560 447 -561Q484 -562 494 -571Q491 -572 487 -572Q475 -571 463 -570Q457 -570 455 -571Q429 -565 405 -562H400Q386 -566 372 -570Q370 -570 368 -571Q359 -571 352 -564Q346 -558 342 -557H339Q326 -558 312 -570Q298 -582 291 -589Q277 -596 275 -596Q277 -588 283 -584Q288 -580 293 -574Q298 -572 299 -568Q307 -560 317 -554Q327 -548 328 -538V-534Q323 -536 313 -544Q300 -555 290 -555Q294 -548 305 -539Q321 -526 324 -515Q314 -518 304 -522Q307 -515 316 -508Q324 -501 326 -498V-491Q326 -479 336 -469V-466Q336 -460 335 -455Q335 -450 336 -449Q339 -439 349 -427Q360 -414 371 -412Q374 -411 379 -411Q391 -412 401 -418Q410 -424 420 -430Q436 -439 464 -442Q512 -446 574 -454H581Q595 -453 609 -452Q617 -452 623 -455Q628 -453 633 -451ZM610 -347H609Q595 -347 595 -360Q595 -372 605 -375Q603 -376 602 -376Q598 -375 593 -374Q592 -374 592 -375Q592 -381 603 -383Q610 -384 613 -387H608Q600 -386 592 -386Q589 -386 585 -387Q585 -389 584 -392Q587 -401 590 -410Q590 -413 589 -414Q585 -406 572 -406Q562 -406 552 -407Q541 -407 535 -400Q537 -398 543 -397Q550 -396 550 -392Q542 -384 529 -384Q515 -384 500 -382Q479 -378 457 -375Q449 -375 443 -381Q451 -394 472 -394Q494 -394 510 -398Q501 -401 490 -401Q469 -399 447 -398H444Q438 -402 428 -404H427Q422 -400 416 -396Q416 -395 414 -395Q412 -395 410 -396H408Q382 -391 379 -360Q379 -354 380 -351Q370 -347 363 -341Q369 -338 375 -337Q380 -337 382 -331V-322Q383 -310 400 -297Q416 -285 427 -285Q430 -285 437 -290Q445 -296 450 -297H456Q476 -303 496 -309Q502 -308 507 -308Q511 -308 513 -309Q518 -310 522 -312H527Q555 -308 582 -304Q597 -320 602 -344Q606 -345 610 -347ZM755 -302H752Q745 -302 745 -293Q745 -290 747 -286Q753 -292 755 -302ZM694 -577H695Q702 -577 707 -584Q705 -586 703 -589Q699 -586 694 -584ZM535 -571V-573Q535 -575 533 -579H532Q528 -578 524 -577H523V-573Q523 -570 524 -569Q530 -570 535 -571Z"/>
</svg>