<svg xmlns="http://www.w3.org/2000/svg" viewBox="0 -800 1024 1024">
	<path fill="#000000" d="M811 -28H810Q810 -40 823 -54Q834 -66 834 -73Q830 -76 826 -76Q820 -76 802 -64Q781 -48 762 -31Q743 -13 717 0Q680 18 647 30Q618 39 590 48Q562 56 549 80Q557 83 566 83Q579 83 622 71Q649 61 677 56Q672 61 659 68Q622 83 576 98Q574 97 571 97Q560 99 549 100Q544 100 542 97Q520 108 478 108Q418 105 378 101Q241 60 157 -22Q107 -94 93 -126Q64 -192 52 -252Q44 -292 44 -344Q44 -460 86 -532V-534Q85 -538 84 -543Q85 -544 85 -546Q118 -609 157 -658Q178 -684 198 -684H200Q199 -676 188 -667Q176 -657 176 -648Q176 -646 178 -640H181Q188 -640 203 -655Q240 -687 274 -709Q326 -739 385 -763Q374 -768 359 -768Q330 -766 301 -752Q273 -737 249 -727V-729Q249 -736 257 -741Q260 -743 270 -748Q358 -798 484 -807Q493 -808 512 -808Q677 -808 809 -678Q815 -676 820 -675Q844 -637 872 -604Q884 -586 896 -568Q904 -553 910 -536Q916 -520 927 -508Q941 -456 951 -396Q956 -358 956 -355Q956 -349 955 -343V-307Q955 -251 918 -164Q913 -153 903 -138Q888 -116 884 -102Q857 -77 835 -48Q830 -41 825 -35Q819 -28 811 -28ZM799 -362V-363Q802 -371 805 -380Q807 -385 807 -397Q807 -419 789 -466Q792 -471 795 -476H794Q788 -474 782 -470L778 -479Q777 -481 777 -484Q777 -492 786 -502Q794 -511 794 -516Q791 -515 781 -507Q769 -497 762 -497V-498Q764 -503 766 -508Q766 -509 765 -510H764Q757 -507 752 -503Q751 -506 743 -513Q736 -520 735 -525V-526Q735 -532 744 -541Q752 -549 754 -553Q744 -552 736 -542Q730 -534 726 -533Q723 -535 700 -550H690Q680 -542 651 -538Q622 -534 616 -525H617Q625 -526 633 -527Q646 -527 647 -517Q595 -503 543 -488Q503 -475 465 -460Q452 -454 437 -452Q434 -452 431 -453Q436 -465 450 -472Q457 -475 479 -482Q491 -486 505 -493Q519 -497 532 -501Q531 -504 528 -504Q526 -504 520 -501Q414 -469 312 -425Q306 -429 294 -444Q282 -459 271 -465Q268 -463 264 -463Q255 -465 245 -467H242Q238 -469 234 -477Q229 -486 224 -489V-486Q226 -480 227 -474Q227 -471 225 -470Q214 -474 211 -486Q207 -498 202 -508Q201 -505 201 -501Q205 -483 209 -466Q209 -461 208 -458Q204 -460 202 -467Q200 -474 197 -476V-473Q199 -458 201 -443V-441Q193 -433 184 -422Q175 -412 174 -398Q174 -393 175 -390Q175 -388 180 -383Q186 -376 187 -372V-370Q185 -361 182 -352Q183 -330 209 -295Q228 -276 239 -276Q242 -276 246 -278Q241 -282 233 -287Q226 -292 225 -301Q225 -303 227 -307Q256 -306 275 -283Q286 -270 300 -236Q303 -228 305 -221Q305 -217 303 -215Q291 -218 284 -238Q277 -257 267 -260Q269 -247 281 -227Q296 -201 296 -184Q311 -168 325 -153H327Q333 -153 342 -148Q353 -142 359 -142Q365 -142 369 -146Q374 -170 387 -179Q409 -192 476 -199H487Q497 -199 502 -205Q498 -210 488 -210Q482 -209 475 -209Q467 -208 432 -203Q423 -200 414 -198Q409 -198 407 -203Q410 -217 437 -219Q474 -223 510 -227H520Q536 -227 540 -221V-219Q541 -204 549 -196Q557 -189 563 -179Q562 -174 561 -170Q564 -170 565 -173Q565 -175 567 -176Q569 -175 582 -165Q586 -169 589 -170Q589 -166 594 -162Q596 -160 597 -157Q596 -153 595 -149V-147Q604 -148 612 -150Q618 -150 628 -146Q631 -149 633 -149Q646 -199 673 -237Q701 -275 725 -314H722Q714 -313 711 -307Q708 -302 703 -298Q703 -301 696 -301Q682 -275 652 -229Q648 -223 645 -217Q641 -211 635 -208Q636 -227 647 -249Q652 -260 667 -285Q680 -309 683 -313Q693 -329 705 -335Q709 -335 709 -329Q715 -336 722 -346Q730 -356 740 -357Q746 -357 751 -352Q742 -334 742 -333H744Q750 -333 753 -337Q755 -341 758 -344Q763 -348 799 -362ZM579 -306L561 -272Q558 -272 550 -274Q453 -260 356 -247Q345 -293 344 -300Q363 -300 369 -294Q368 -291 363 -290Q359 -289 357 -286Q373 -284 380 -274Q388 -265 397 -258Q400 -259 403 -259Q412 -257 421 -256Q428 -269 435 -305Q442 -344 452 -357Q451 -359 451 -363Q451 -373 460 -380Q457 -385 454 -390Q467 -400 471 -400Q474 -399 476 -399Q473 -382 470 -365Q462 -353 459 -341Q459 -337 460 -335Q466 -316 473 -307Q480 -294 498 -294H499Q507 -294 525 -305Q541 -314 550 -316Q547 -319 540 -319Q525 -314 510 -309Q511 -333 561 -335H570Q579 -335 579 -329Q578 -325 569 -325V-323Q568 -321 567 -319V-318Q568 -317 572 -317H584V-315Q584 -311 579 -306ZM653 -448H658Q633 -401 610 -355Q603 -358 603 -363Q603 -366 610 -370Q605 -372 599 -374Q598 -377 598 -383Q598 -391 610 -408Q601 -407 594 -396Q589 -388 584 -386Q544 -381 530 -378Q534 -395 540 -400Q539 -401 539 -403Q541 -410 542 -417V-419Q554 -428 572 -431Q589 -434 608 -439Q631 -446 653 -448ZM379 -363H382Q379 -322 341 -316Q337 -320 337 -328Q337 -335 347 -344Q353 -350 360 -356Q367 -363 379 -363ZM366 -310Q365 -306 355 -305Q349 -304 346 -302Q341 -304 341 -306Q341 -312 354 -312Q360 -312 366 -310ZM764 -574V-578H761Q754 -578 754 -568Q754 -565 755 -563Q764 -563 764 -574ZM599 -518V-520Q599 -525 594 -525Q585 -525 583 -518Q584 -517 589 -517Q594 -517 599 -518Z"/>
</svg>