<svg xmlns="http://www.w3.org/2000/svg" viewBox="0 -800 1024 1024">
	<path fill="#000000" d="M811 -27H808Q807 -28 807 -31Q807 -37 819 -49Q832 -62 832 -70V-72Q826 -74 824 -74Q811 -74 789 -55Q764 -30 738 -9Q694 20 602 48Q576 55 568 59Q550 68 546 83Q552 84 557 84Q577 84 612 72Q647 60 667 60H671Q662 73 619 83Q583 92 571 101Q569 100 566 100Q555 103 543 105Q538 105 537 101Q531 106 525 107Q503 110 472 110Q420 110 376 104Q289 75 251 58Q215 40 187 12Q159 -16 131 -45Q111 -76 90 -110Q69 -144 57 -184Q37 -256 37 -342Q37 -409 50 -462Q63 -496 76 -531Q77 -534 77 -540Q77 -546 78 -548Q85 -558 91 -568Q107 -603 132 -633Q146 -651 158 -667Q170 -683 194 -684Q192 -676 182 -669Q169 -660 169 -649Q170 -645 170 -642H173Q179 -642 198 -654Q230 -683 270 -709Q336 -747 382 -762Q379 -769 366 -769Q360 -768 353 -768Q328 -766 284 -745Q255 -731 242 -728Q247 -741 260 -748Q272 -754 285 -759Q371 -799 460 -806Q488 -808 500 -808Q597 -808 679 -770Q750 -737 806 -678Q807 -676 810 -676H814Q817 -676 818 -675Q830 -658 877 -596Q888 -581 903 -550Q917 -521 926 -508Q928 -495 942 -445Q951 -400 962 -357Q956 -345 956 -313Q956 -288 953 -275Q931 -182 909 -144Q901 -134 892 -125Q883 -116 882 -99Q872 -91 857 -72Q842 -53 833 -46Q828 -40 824 -34Q820 -28 811 -27ZM432 20H434Q459 16 483 11Q492 11 500 15Q513 6 530 6Q558 0 624 -24Q654 -34 683 -49Q708 -63 728 -80Q747 -97 766 -114Q784 -127 798 -140Q841 -192 863 -263Q872 -297 872 -334Q872 -372 861 -423Q859 -439 857 -455Q852 -471 843 -484Q833 -498 832 -521L778 -588Q766 -604 752 -622Q739 -640 721 -653Q703 -665 677 -678Q636 -700 618 -707Q585 -720 547 -723Q499 -727 476 -727Q434 -727 403 -719Q387 -712 371 -705Q360 -702 352 -702Q344 -702 340 -692Q303 -681 276 -660Q240 -636 218 -605Q162 -542 144 -471Q124 -384 124 -345V-330Q124 -200 218 -80Q227 -77 236 -75Q236 -69 239 -66Q259 -55 279 -45Q283 -40 287 -36Q321 -16 358 -2Q408 20 432 20ZM789 -225H791Q797 -225 798 -224Q788 -217 784 -204Q790 -194 796 -184Q788 -173 787 -171Q789 -163 789 -159Q789 -134 759 -117Q710 -124 662 -133Q613 -142 561 -143H556Q560 -153 576 -153Q593 -151 609 -149Q622 -148 647 -148Q664 -148 671 -149Q662 -170 624 -170Q607 -169 589 -169H580Q551 -169 521 -170H505Q494 -170 489 -169L430 -158Q406 -155 389 -151Q373 -147 367 -131Q372 -130 382 -130Q398 -130 437 -138Q471 -145 488 -145Q503 -145 512 -141Q497 -133 473 -131Q449 -129 429 -126Q394 -116 359 -103Q335 -96 324 -90Q297 -75 294 -75Q281 -75 254 -87Q239 -95 229 -103Q215 -115 213 -126Q212 -129 212 -134Q214 -148 216 -162Q215 -181 213 -201Q213 -220 226 -228Q234 -231 242 -235Q258 -242 281 -258Q312 -279 327 -284Q320 -276 309 -267Q290 -252 285 -243H286Q293 -246 299 -249H300Q294 -243 291 -234Q295 -228 301 -228Q313 -230 325 -232Q328 -233 335 -233Q345 -232 355 -232H359Q365 -234 370 -237Q406 -240 442 -246Q444 -256 444 -263Q442 -287 440 -311Q440 -327 448 -336Q452 -319 452 -299Q453 -279 462 -267Q470 -280 470 -303Q470 -318 469 -333Q470 -371 470 -409Q470 -459 462 -483Q447 -474 447 -442Q448 -418 449 -395Q449 -383 448 -378Q436 -386 438 -411Q431 -509 399 -557Q404 -574 404 -594Q404 -608 403 -614Q401 -627 388 -646Q378 -660 377 -668Q384 -665 393 -655Q402 -645 408 -642Q403 -653 395 -665H396Q402 -665 411 -654Q417 -647 421 -645L423 -647Q422 -650 420 -654Q420 -656 421 -656H422Q429 -651 436 -647H439Q443 -648 447 -653Q453 -652 465 -652Q487 -653 509 -654Q529 -654 543 -647Q568 -613 580 -581Q572 -539 564 -497Q562 -469 559 -464Q582 -467 610 -479Q638 -490 660 -498Q661 -497 661 -495Q659 -491 657 -488V-486Q679 -493 697 -504Q697 -498 686 -489Q673 -478 673 -468V-467H675Q685 -470 695 -473H697Q694 -468 689 -464Q680 -457 679 -453Q680 -452 681 -452Q686 -454 691 -456Q693 -456 694 -455Q693 -453 685 -439Q687 -433 687 -422Q687 -407 686 -393V-387Q684 -382 681 -377Q681 -375 683 -373Q677 -372 676 -366Q675 -360 673 -354Q637 -353 604 -339Q597 -336 546 -310V-303Q545 -285 543 -267Q543 -258 546 -252Q621 -259 662 -259Q675 -258 688 -258Q707 -255 725 -253Q740 -253 748 -267H750Q751 -267 751 -265V-261Q755 -265 756 -275Q758 -288 763 -290Q762 -285 762 -276Q762 -259 769 -243Q772 -242 781 -242Q789 -242 792 -243Q791 -240 787 -238Q781 -235 781 -229V-228Q783 -225 789 -225ZM777 -2Q768 10 759 21Q754 18 754 12Q756 -1 771 -3Q775 -3 777 -2ZM757 -321Q760 -324 762 -324Q765 -324 771 -316Q770 -312 763 -300Q757 -306 757 -321ZM725 -521Q719 -507 708 -507Q706 -507 704 -508Q712 -523 719 -523Q721 -523 725 -521Z"/>
</svg>