<svg xmlns="http://www.w3.org/2000/svg" viewBox="0 -800 1024 1024">
	<path fill="#000000" d="M956 -676H953V-678Q953 -681 957 -687Q961 -693 965 -693Q967 -693 970 -689Q968 -676 956 -676ZM714 -279H711Q711 -281 710 -284Q713 -301 726 -301H727V-296Q727 -279 714 -279ZM942 -555V-554Q948 -548 957 -547Q944 -545 931 -528Q921 -515 914 -511Q910 -514 910 -518Q915 -531 923 -544Q923 -547 920 -547Q917 -547 917 -549Q891 -536 884 -536Q876 -536 868 -540Q865 -534 861 -529Q863 -524 876 -517Q887 -511 887 -505V-503H883Q873 -503 858 -513Q840 -525 825 -525H822V-526Q826 -534 830 -540Q829 -542 828 -544Q816 -539 803 -535Q805 -545 812 -549Q819 -553 825 -559Q821 -565 821 -575Q821 -584 819 -588Q816 -596 802 -604Q789 -611 786 -618H790Q802 -616 809 -610Q824 -621 824 -633Q824 -638 821 -641H830Q838 -652 838 -674Q838 -695 833 -710Q838 -705 846 -688Q852 -676 856 -670H861Q871 -670 885 -660Q896 -652 903 -652H904Q911 -652 923 -662Q936 -672 947 -673V-672Q947 -668 937 -660Q921 -647 920 -638Q921 -634 925 -630Q930 -626 930 -623Q949 -631 969 -637Q967 -632 957 -625Q940 -614 940 -602Q940 -599 942 -591Q947 -586 962 -583Q977 -580 981 -576Q967 -575 955 -573Q943 -571 942 -555ZM665 -157V-155Q657 -145 654 -133Q652 -120 647 -105Q642 -92 633 -72Q624 -52 623 -33Q623 -24 627 -17Q623 -12 621 1Q618 15 613 20Q586 19 565 3Q558 -3 533 -31Q530 -40 530 -49Q531 -65 532 -82V-85Q531 -123 520 -158Q508 -193 502 -223Q520 -210 526 -185Q532 -161 541 -139Q547 -145 547 -153Q547 -157 541 -178Q522 -273 486 -304Q482 -299 482 -293Q482 -283 497 -262Q492 -258 487 -258Q478 -259 471 -270Q464 -281 456 -290Q443 -301 429 -307Q429 -321 423 -344Q417 -367 417 -377Q417 -392 424 -403Q415 -436 412 -472V-480Q423 -445 438 -430Q428 -462 428 -472Q441 -449 452 -444Q453 -445 453 -446Q449 -453 445 -460Q445 -461 446 -462Q452 -461 456 -455Q460 -449 464 -448Q476 -453 485 -462Q489 -463 498 -463Q532 -463 553 -434Q566 -417 581 -375V-370Q585 -335 588 -300Q593 -274 597 -249V-241Q597 -233 600 -228Q605 -240 613 -268Q617 -282 620 -289Q625 -300 632 -304V-319Q640 -332 650 -340Q658 -364 664 -389Q670 -414 684 -431Q694 -471 730 -477Q741 -484 751 -493Q753 -493 753 -492Q751 -486 749 -481Q749 -479 751 -477Q761 -478 770 -488Q779 -498 786 -499Q778 -483 778 -459Q778 -448 779 -442L780 -441Q784 -443 788 -446Q790 -445 791 -445Q787 -438 787 -429Q791 -408 794 -387V-384Q792 -365 779 -345Q775 -343 771 -342Q764 -334 757 -325Q750 -316 742 -315Q740 -317 740 -322Q742 -333 743 -345Q743 -347 741 -353Q719 -346 708 -324Q697 -302 686 -280Q673 -258 659 -228Q659 -226 658 -224Q651 -203 642 -183Q632 -162 631 -136Q632 -131 632 -126Q640 -137 652 -167Q668 -207 684 -221Q684 -207 675 -190Q665 -171 665 -157ZM918 -134V-154Q918 -190 926 -204Q932 -197 932 -182V-157Q935 -115 937 -74Q937 -31 927 -4Q907 7 895 11Q833 -18 825 -82Q825 -86 824 -91Q827 -117 834 -148Q836 -159 836 -183Q835 -225 833 -267Q834 -277 834 -287Q835 -297 835 -308Q835 -322 831 -334Q827 -342 822 -350Q818 -365 816 -403Q815 -437 809 -453Q816 -452 820 -440Q823 -430 828 -428Q837 -435 837 -448V-451Q845 -449 853 -448Q855 -449 862 -462Q866 -460 874 -460Q889 -462 903 -464Q907 -464 913 -462Q925 -457 933 -430Q937 -416 954 -370Q951 -366 949 -352Q946 -336 941 -331V-329Q942 -326 942 -323V-321Q936 -313 935 -288Q933 -259 927 -252Q922 -257 922 -276V-278Q922 -299 916 -304Q906 -295 902 -259Q900 -229 900 -211Q900 -133 913 -93Q918 -107 918 -134ZM333 -229H334Q333 -215 331 -202Q325 -203 325 -217Q325 -229 333 -229ZM356 -7H355Q352 -9 352 -13Q338 10 307 10Q303 10 298 9Q286 7 269 -10Q256 -22 250 -25Q237 -52 189 -133Q171 -123 146 -88Q138 -74 131 -59Q124 -45 112 -37Q113 -55 127 -79Q137 -96 140 -108Q118 -95 94 -55Q81 -38 77 -17Q77 -9 81 -4Q91 -14 106 -19V-16Q102 1 94 20Q86 21 83 27Q79 33 75 39Q73 40 70 40Q60 37 50 33H47Q42 19 34 7Q26 -6 25 -26Q25 -33 26 -37Q26 -39 25 -39Q23 -38 21 -38L20 -39V-40Q20 -44 19 -49Q23 -84 32 -115Q33 -120 33 -132Q32 -154 31 -177Q31 -196 36 -207Q39 -163 52 -127Q122 -180 147 -231Q139 -246 130 -263Q121 -279 105 -284Q106 -275 118 -261Q135 -241 135 -227Q135 -224 134 -221Q124 -225 117 -239Q112 -248 108 -252Q96 -257 79 -261Q65 -268 52 -282Q38 -297 26 -307V-309Q29 -328 32 -348Q32 -356 26 -364Q26 -367 28 -367Q32 -365 36 -364H38Q36 -370 30 -377Q21 -388 20 -396Q25 -396 30 -389Q35 -382 42 -382H44Q45 -383 45 -385Q45 -391 33 -400Q35 -403 37 -403Q38 -403 44 -400Q63 -437 102 -442Q119 -442 126 -436Q132 -430 134 -422Q157 -398 180 -375Q196 -341 218 -312Q252 -345 295 -421Q290 -430 270 -430Q276 -443 296 -455Q324 -472 328 -475Q336 -473 338 -473Q350 -474 361 -476Q365 -476 367 -475Q387 -460 400 -436Q403 -424 403 -415Q403 -393 385 -364Q374 -344 367 -344Q364 -344 362 -345Q366 -358 369 -371Q369 -373 368 -375Q367 -377 365 -379Q348 -377 338 -365Q329 -353 318 -339Q305 -326 295 -317Q284 -307 281 -289Q289 -291 307 -306Q332 -326 347 -327Q340 -316 329 -307Q319 -297 307 -287Q306 -286 269 -246Q295 -181 323 -155Q323 -170 329 -192Q332 -173 334 -154Q337 -166 338 -196Q339 -224 341 -235Q347 -231 347 -223Q347 -216 346 -210V-207Q346 -141 364 -102Q364 -98 363 -94Q363 -90 368 -73Q355 -40 355 -20Q356 -13 356 -7Z"/>
</svg>