<svg xmlns="http://www.w3.org/2000/svg" viewBox="0 -800 1024 1024">
	<path fill="#000000" d="M511 -488V-481Q508 -478 504 -478Q496 -480 487 -482V-484Q487 -492 498 -492Q505 -492 511 -488ZM683 35H677Q653 34 645 16Q636 -2 629 -23Q586 -128 574 -148Q565 -150 556 -152Q553 -152 551 -151Q547 -157 534 -161Q521 -165 518 -169Q477 -124 436 -71Q395 -19 355 31Q343 32 334 37Q327 41 324 41Q322 41 320 40Q260 23 260 -22V-26Q260 -44 269 -73Q278 -101 278 -113Q283 -107 287 -83Q292 -91 293 -119Q294 -143 299 -152Q298 -158 297 -164Q297 -170 302 -170Q305 -162 305 -154Q304 -134 302 -115Q303 -109 303 -104Q306 -114 307 -124Q308 -135 315 -139V-128Q315 -113 318 -100Q324 -102 331 -110Q341 -121 350 -122Q349 -114 341 -103Q332 -89 332 -81Q332 -76 333 -73Q342 -76 358 -92Q408 -149 419 -164Q416 -167 412 -167Q400 -163 392 -152Q374 -134 367 -131Q370 -152 395 -174Q413 -190 419 -203Q371 -224 328 -251Q285 -277 275 -335V-359Q282 -417 327 -456Q372 -494 433 -494Q450 -494 466 -491Q465 -484 440 -483Q412 -482 409 -472Q462 -466 514 -461Q527 -460 549 -454Q575 -447 587 -447Q600 -447 609 -451Q600 -466 571 -471Q536 -477 528 -482Q530 -489 545 -489Q552 -488 558 -488Q586 -485 638 -464Q679 -447 702 -442Q704 -445 704 -449Q704 -455 699 -462Q693 -471 693 -476Q701 -472 722 -442Q732 -431 742 -419Q752 -406 753 -393Q753 -383 743 -373Q745 -357 745 -351Q745 -308 710 -305Q696 -288 666 -288Q644 -288 630 -298Q628 -288 628 -285Q631 -268 639 -243Q642 -240 642 -236L659 -188Q649 -191 639 -210Q633 -222 627 -227Q622 -222 622 -214Q623 -203 630 -193Q637 -183 642 -174Q648 -163 653 -152Q658 -142 666 -136Q670 -140 670 -144Q665 -158 660 -176V-179Q667 -179 672 -169Q675 -162 678 -161V-159Q678 -154 683 -148Q687 -143 687 -140Q687 -138 686 -136Q703 -114 717 -88Q730 -63 754 -48Q760 -45 767 -44Q773 -43 777 -35Q775 -34 773 -34Q768 -34 762 -35Q755 -35 754 -29Q753 -28 753 -26Q753 -24 757 -24Q760 -23 761 -19Q745 -16 740 7Q718 12 683 35ZM275 -139H287Q288 -137 288 -134Q288 -129 281 -117Q276 -125 275 -139ZM549 -338Q537 -346 523 -356Q508 -365 487 -371Q452 -378 435 -378Q416 -378 407 -373Q389 -365 389 -342Q389 -321 401 -308Q424 -283 502 -269Q504 -293 514 -308Q524 -322 534 -335Q536 -337 542 -337Q548 -337 549 -338ZM558 -673H557Q559 -684 579 -694Q598 -704 600 -718Q606 -715 612 -712Q623 -721 634 -721Q652 -721 681 -700Q689 -683 698 -664Q707 -644 708 -622Q708 -610 704 -599Q678 -594 652 -590Q585 -585 505 -536Q489 -539 469 -539Q458 -539 454 -538Q454 -542 458 -544Q462 -545 465 -547Q460 -558 445 -558Q429 -555 412 -553Q414 -560 421 -561Q428 -563 433 -567H428Q420 -567 388 -559Q388 -570 404 -576Q417 -581 419 -586Q412 -589 403 -589Q387 -588 370 -581Q353 -573 335 -568Q337 -580 348 -584Q359 -589 369 -592Q481 -635 493 -640Q511 -649 514 -649Q517 -649 519 -648Q516 -642 509 -640Q502 -637 496 -634Q484 -628 471 -621Q459 -615 451 -604Q457 -598 467 -598Q478 -598 496 -607Q574 -643 606 -676Q601 -684 593 -684Q588 -684 575 -678Q564 -673 558 -673ZM381 -560Q378 -550 363 -550Q362 -552 362 -554Q362 -562 373 -562Q377 -562 381 -560Z"/>
</svg>