<svg xmlns="http://www.w3.org/2000/svg" viewBox="0 -800 1024 1024">
	<path fill="#000000" d="M833 -763V-761Q833 -756 826 -752Q821 -749 820 -746Q819 -748 819 -750Q819 -758 833 -763ZM818 -646V-638Q818 -615 796 -594Q774 -572 774 -551Q770 -561 767 -572Q752 -567 739 -567Q711 -567 694 -584Q688 -584 679 -577Q672 -571 664 -571Q669 -580 681 -596Q664 -620 660 -656Q661 -662 661 -668Q656 -676 647 -679Q637 -683 629 -688Q632 -687 635 -687Q656 -687 673 -698Q683 -709 695 -713Q698 -713 700 -712Q693 -701 685 -691Q689 -687 696 -687Q723 -692 740 -715Q737 -721 727 -721Q724 -721 718 -719Q718 -721 717 -723Q718 -730 724 -734Q730 -737 734 -742Q735 -745 735 -751Q735 -762 734 -773Q734 -780 735 -784Q739 -781 741 -765Q742 -752 746 -746Q751 -738 758 -734Q766 -730 776 -725Q779 -726 787 -732Q796 -739 805 -739H808Q799 -726 790 -715Q796 -701 801 -687Q807 -672 818 -667Q820 -666 825 -666Q835 -667 845 -668Q851 -668 858 -665Q848 -660 835 -658Q823 -655 818 -646ZM882 -275H875Q850 -275 834 -261Q818 -247 818 -221Q803 -212 786 -185Q772 -182 765 -166Q760 -154 756 -133Q752 -160 738 -178Q716 -180 704 -185Q699 -188 691 -194Q681 -202 676 -202Q671 -202 661 -194Q661 -202 665 -205Q669 -208 672 -213Q665 -228 665 -250Q666 -268 667 -287Q663 -292 657 -298Q647 -307 645 -311Q656 -305 665 -305Q679 -305 699 -322Q720 -339 733 -339Q740 -339 743 -338Q730 -331 715 -324Q700 -317 699 -301Q699 -296 700 -293H702Q709 -293 722 -301Q734 -309 741 -310Q745 -311 752 -311Q766 -311 771 -316Q770 -320 765 -325Q759 -330 759 -333V-335Q760 -339 764 -339Q772 -337 779 -335Q782 -336 784 -344Q786 -352 791 -353Q795 -352 795 -344Q794 -336 793 -328Q801 -317 808 -305H810Q824 -308 838 -312Q840 -312 844 -310Q841 -305 832 -297Q824 -290 821 -284Q821 -283 826 -276Q831 -279 847 -279H866Q872 -279 877 -280Q882 -280 882 -275Z"/>
</svg>