<svg xmlns="http://www.w3.org/2000/svg" viewBox="0 -800 1024 1024">
	<path fill="#000000" d="M811 -28H810Q810 -40 823 -54Q834 -66 834 -73Q830 -76 826 -76Q820 -76 802 -64Q781 -48 762 -31Q743 -13 717 0Q680 18 647 30Q618 39 590 48Q562 56 549 80Q557 83 566 83Q579 83 622 71Q649 61 677 56Q672 61 659 68Q622 83 576 98Q574 97 571 97Q560 99 549 100Q544 100 542 97Q520 108 478 108Q418 105 378 101Q241 60 157 -22Q107 -94 93 -126Q64 -192 52 -252Q44 -292 44 -344Q44 -460 86 -532V-534Q85 -538 84 -543Q85 -544 85 -546Q118 -609 157 -658Q178 -684 198 -684H200Q199 -676 188 -667Q176 -657 176 -648Q176 -646 178 -640H181Q188 -640 203 -655Q240 -687 274 -709Q326 -739 385 -763Q374 -768 359 -768Q330 -766 301 -752Q273 -737 249 -727V-729Q249 -736 257 -741Q260 -743 270 -748Q358 -798 484 -807Q493 -808 512 -808Q677 -808 809 -678Q815 -676 820 -675Q844 -637 872 -604Q884 -586 896 -568Q904 -553 910 -536Q916 -520 927 -508Q941 -456 951 -396Q956 -358 956 -355Q956 -349 955 -343V-307Q955 -251 918 -164Q913 -153 903 -138Q888 -116 884 -102Q857 -77 835 -48Q830 -41 825 -35Q819 -28 811 -28ZM513 -715H511Q490 -716 484 -721Q478 -719 474 -719Q465 -719 456 -720H452Q414 -712 379 -699Q337 -685 305 -664Q288 -655 271 -647Q250 -625 228 -604Q193 -574 185 -559Q177 -542 169 -526Q160 -509 151 -493Q142 -472 141 -447Q136 -429 130 -412Q123 -381 123 -344Q128 -217 178 -133Q204 -90 221 -76Q231 -71 240 -66Q248 -57 255 -49Q264 -45 273 -42Q281 -34 286 -31Q308 -15 356 2Q414 23 439 23Q459 21 478 19Q488 19 493 21Q510 13 527 12Q544 10 564 8Q608 1 678 -37Q831 -118 867 -262Q871 -296 881 -333Q874 -340 874 -359Q875 -370 875 -382Q875 -390 874 -393Q864 -437 849 -480Q841 -498 832 -517Q831 -523 829 -529Q799 -564 768 -603Q737 -642 693 -664Q685 -666 677 -669Q667 -673 645 -686Q614 -705 596 -707Q594 -707 592 -708Q586 -707 579 -706Q577 -706 575 -707Q557 -712 539 -717Q529 -715 518 -714Q516 -714 513 -715ZM487 -237H489Q496 -240 502 -243Q502 -239 499 -236Q495 -233 495 -230Q500 -225 500 -220Q498 -215 495 -199Q440 -176 384 -153Q372 -147 359 -145Q354 -145 351 -147Q361 -159 393 -173Q416 -183 425 -190Q423 -192 421 -194Q421 -195 422 -195H420Q394 -195 361 -176Q321 -153 310 -150Q281 -130 252 -120Q256 -100 266 -100Q273 -100 291 -115Q312 -133 323 -133Q326 -133 328 -132Q325 -125 313 -116Q305 -110 302 -105Q300 -96 298 -87Q290 -74 273 -74Q257 -74 231 -87Q209 -101 206 -109Q204 -117 204 -120Q208 -136 215 -150V-156Q215 -168 214 -181Q214 -195 225 -199Q228 -209 231 -221Q233 -233 242 -238H243Q245 -238 245 -234Q245 -230 244 -226Q245 -224 245 -223Q250 -234 252 -247Q253 -260 265 -264Q264 -260 264 -251Q264 -237 271 -230Q295 -238 302 -244Q300 -254 297 -265Q297 -267 299 -271Q305 -271 308 -266Q310 -261 313 -258Q316 -261 316 -267Q312 -284 308 -301Q309 -308 309 -315Q309 -319 307 -325Q303 -334 295 -340Q287 -346 281 -351Q274 -349 273 -345Q281 -332 291 -319Q301 -305 302 -289Q302 -285 301 -282H299Q294 -282 294 -287Q293 -292 292 -295Q287 -305 281 -315Q260 -322 245 -351Q238 -354 230 -357Q230 -363 237 -378Q242 -389 242 -394Q242 -402 230 -406Q230 -419 222 -427Q211 -423 200 -420H198Q204 -429 215 -433Q211 -438 209 -444Q193 -433 187 -433Q184 -433 182 -434V-435Q182 -440 192 -445Q201 -450 203 -453Q200 -454 195 -454Q179 -454 160 -437Q167 -459 182 -471Q249 -524 310 -550Q305 -540 289 -529Q273 -517 268 -509H272Q283 -509 301 -523Q325 -540 350 -556Q375 -573 396 -592Q400 -593 404 -595Q405 -597 413 -604Q421 -612 424 -619Q410 -617 394 -605Q378 -592 366 -591Q372 -603 391 -618Q411 -634 418 -644Q415 -655 394 -660Q420 -694 434 -694H440Q448 -694 470 -687Q492 -680 507 -680Q513 -680 516 -681Q519 -663 538 -640Q554 -621 558 -609Q530 -531 510 -506Q505 -507 499 -513Q457 -499 418 -471Q379 -443 342 -418Q348 -410 360 -409V-405Q360 -398 366 -390Q406 -403 442 -417Q443 -416 443 -414Q440 -409 437 -404V-402L438 -401Q442 -401 445 -402Q448 -402 450 -400Q449 -397 449 -391Q451 -374 453 -357H452Q442 -357 442 -334V-313Q430 -306 418 -299Q406 -292 404 -274Q480 -298 528 -301Q523 -295 507 -290Q489 -284 486 -276H489Q501 -277 513 -279H516Q482 -262 482 -249Q482 -242 487 -237ZM577 -12H576Q559 -24 543 -46Q538 -54 536 -62Q533 -70 526 -75Q529 -79 529 -85Q525 -103 514 -118Q523 -122 532 -127Q540 -188 543 -252Q545 -284 547 -316Q547 -334 542 -349Q533 -343 524 -343Q514 -343 496 -353Q486 -359 480 -360Q472 -370 472 -387Q472 -400 477 -408Q472 -417 472 -427Q473 -441 483 -452Q492 -463 502 -474Q506 -480 508 -486Q510 -492 517 -492Q516 -488 516 -480Q516 -467 522 -462Q539 -463 573 -474Q607 -485 625 -485Q630 -484 635 -484Q632 -477 616 -473Q601 -469 597 -463Q603 -456 613 -456Q619 -456 637 -462Q657 -471 681 -477Q689 -478 704 -478H712Q729 -478 745 -481Q736 -491 715 -491Q692 -489 669 -488Q660 -488 656 -489Q669 -498 688 -502Q708 -505 727 -508Q732 -509 742 -509H749Q760 -509 763 -511Q771 -515 778 -527Q785 -537 790 -541Q791 -540 791 -538Q786 -524 781 -506Q781 -499 788 -495Q792 -495 797 -500Q801 -504 804 -504Q807 -504 809 -503Q809 -499 803 -492Q798 -487 798 -483Q798 -481 800 -477Q805 -474 808 -474Q818 -475 827 -477H831Q832 -477 832 -475Q828 -469 819 -463V-455Q819 -451 820 -450Q821 -449 822 -449Q827 -451 832 -453H834Q832 -450 832 -443Q832 -427 852 -417Q850 -411 850 -408Q852 -397 853 -387V-383Q853 -332 825 -294Q816 -298 807 -298Q796 -298 785 -291Q788 -304 801 -307Q814 -310 825 -315V-319Q827 -326 829 -334Q824 -346 816 -346Q808 -346 790 -325Q774 -310 758 -295Q744 -284 728 -274Q711 -263 710 -244Q725 -246 741 -262Q755 -276 766 -279Q760 -261 737 -239Q713 -216 707 -199Q700 -200 693 -206Q683 -214 674 -214H669Q672 -218 683 -223Q676 -234 670 -245Q664 -255 649 -258Q651 -262 651 -263Q651 -266 642 -270Q634 -273 632 -276Q632 -279 635 -279Q640 -278 644 -277Q645 -277 647 -279Q645 -288 625 -288H619Q618 -282 618 -268Q620 -233 621 -198Q621 -167 613 -148Q604 -156 604 -176Q605 -197 606 -218Q606 -231 604 -237Q595 -224 595 -199Q596 -181 596 -164V-156Q593 -132 590 -109V-108Q592 -100 593 -93V-91Q591 -79 589 -67Q589 -59 594 -54Q605 -67 608 -88Q610 -110 612 -132Q620 -114 620 -87Q620 -67 615 -49Q611 -38 600 -26Q587 -12 577 -12ZM727 -407V-409Q656 -405 619 -384Q626 -373 626 -358Q623 -335 619 -313Q677 -342 710 -382Q727 -401 727 -407ZM621 -298H624Q631 -297 637 -297Q646 -297 647 -302Q645 -307 633 -307Q622 -307 621 -298ZM337 -564H336Q334 -566 334 -570Q334 -577 347 -585Q350 -582 350 -579Q349 -566 337 -564ZM186 -408H181V-410Q181 -417 190 -417Q194 -417 198 -415Q198 -408 186 -408Z"/>
</svg>