<svg xmlns="http://www.w3.org/2000/svg" viewBox="0 -800 1024 1024">
	<path fill="#000000" d="M779 -160H778Q774 -165 771 -164Q766 -162 764 -171Q760 -170 755 -170H752Q746 -173 740 -176H735Q720 -177 709 -187Q699 -197 689 -205V-209Q686 -224 680 -242Q714 -413 715 -573Q712 -581 709 -590V-591Q712 -592 714 -594V-595Q709 -630 709 -645Q709 -671 720 -682Q726 -685 731 -688Q745 -702 758 -715Q770 -727 790 -733Q793 -732 797 -732Q805 -734 813 -736Q814 -736 820 -734Q830 -740 839 -744Q841 -744 843 -742Q847 -745 851 -749Q854 -754 862 -754H865Q861 -749 861 -742Q861 -727 875 -725H876Q879 -725 879 -730Q879 -734 881 -734H883V-727Q892 -713 911 -692Q934 -667 942 -653Q943 -649 943 -643Q941 -619 922 -606Q902 -593 888 -576Q879 -559 878 -544Q876 -530 858 -524V-527Q858 -535 863 -547Q868 -559 868 -563Q868 -567 865 -572Q846 -567 832 -543Q823 -527 811 -494Q805 -479 799 -437Q791 -403 788 -378Q788 -359 799 -356Q806 -369 813 -408Q821 -458 838 -472V-469Q838 -459 832 -437Q822 -403 816 -358Q815 -348 814 -338Q814 -328 808 -320Q806 -322 804 -329Q802 -340 795 -341Q780 -338 780 -304Q780 -280 790 -274Q795 -275 799 -285Q803 -295 810 -295V-286Q805 -236 800 -187Q800 -175 801 -170Q793 -167 785 -164Q782 -164 781 -168Q779 -168 779 -166ZM826 -124V-125Q828 -137 839 -138Q846 -138 846 -130Q838 -125 826 -124ZM817 5H815Q807 4 799 -1Q791 -6 784 -10Q775 -4 771 -1Q763 5 761 11Q759 10 755 10Q751 10 743 15Q735 20 729 20H726Q723 23 722 33Q721 45 717 47V44Q714 32 711 19Q689 12 669 1Q659 2 652 9Q645 15 640 17Q639 15 639 11Q640 3 646 -2Q653 -8 658 -13Q653 -22 640 -22Q626 -21 611 -14Q596 -7 582 -2Q594 -14 616 -26Q638 -38 641 -53Q641 -64 629 -73Q634 -81 638 -89Q635 -108 610 -119Q614 -121 617 -121Q633 -117 649 -111Q652 -118 655 -125Q671 -126 671 -143Q670 -151 669 -160Q676 -149 687 -143Q687 -144 690 -154Q698 -152 702 -148Q714 -150 720 -150Q767 -150 782 -113Q800 -117 817 -122Q805 -110 793 -98Q798 -80 798 -66Q798 -46 790 -25Q793 -19 804 -10Q814 -2 817 5Z"/>
</svg>