<svg xmlns="http://www.w3.org/2000/svg" viewBox="0 -800 1024 1024">
	<path fill="#000000" d="M934 -723L941 -705L938 -696Q932 -689 927 -664Q927 -658 928 -657Q925 -639 925 -622V-611Q925 -605 926 -602Q923 -581 920 -561Q920 -555 921 -554L927 -505Q927 -501 928 -498Q930 -486 930 -483Q930 -477 923 -463Q916 -449 916 -439Q920 -431 923 -408Q916 -388 922 -368V-322Q918 -287 913 -252Q913 -231 914 -222V-191Q917 -183 919 -176L921 -171Q925 -162 925 -149Q925 -133 920 -113Q914 -92 914 -75Q919 -45 924 -18Q924 -7 925 2Q925 33 920 50Q915 60 907 60Q900 60 885 55Q870 50 861 50H834Q824 51 807 51H768Q738 51 720 50H665Q591 50 558 61Q514 63 487 63Q475 64 446 64H392Q368 62 344 60L319 62H293Q293 64 284 64H277Q226 68 214 75H212Q198 77 187 77Q166 73 144 68Q98 66 80 13Q78 -2 69 -23Q59 -45 59 -57Q63 -85 67 -106Q64 -135 60 -165Q60 -185 63 -197Q66 -206 66 -216Q66 -233 63 -253Q59 -264 59 -301Q59 -317 60 -327V-349Q64 -371 68 -394V-410Q67 -415 67 -425L71 -629Q75 -653 78 -677V-686Q78 -699 80 -709Q80 -721 87 -728Q92 -733 92 -738V-746Q90 -748 90 -752Q99 -774 128 -777Q168 -777 185 -776Q200 -775 214 -774Q294 -769 361 -769Q383 -769 402 -772H405L419 -774Q424 -775 437 -775Q523 -775 569 -772Q590 -768 618 -768Q633 -768 642 -769Q690 -769 714 -766Q738 -777 754 -778Q775 -774 795 -771L853 -766H859Q876 -766 901 -752Q928 -737 934 -723ZM586 -106V-107Q583 -125 572 -143Q569 -149 566 -164Q562 -181 557 -188Q555 -186 555 -182Q557 -171 559 -161Q559 -156 556 -153Q534 -172 534 -240V-290Q534 -317 542 -325Q542 -322 544 -316Q546 -298 546 -288V-265Q546 -225 557 -211Q553 -243 553 -281Q553 -314 557 -346Q596 -365 684 -365Q721 -364 757 -364Q770 -377 774 -398Q778 -420 783 -440H782Q776 -440 774 -447Q776 -453 786 -458H766Q757 -458 757 -467Q760 -473 773 -477Q783 -480 786 -484H783Q770 -482 757 -481Q751 -481 747 -483Q748 -486 748 -489V-491Q743 -491 731 -487Q726 -491 722 -499Q721 -501 721 -503V-506Q721 -510 719 -510H718V-511Q716 -511 716 -502Q707 -491 673 -486Q668 -486 664 -485Q659 -485 659 -480Q660 -478 660 -477Q661 -476 664 -476Q678 -478 691 -480Q702 -478 702 -476Q702 -473 688 -466Q675 -460 667 -458Q647 -455 627 -452Q613 -452 611 -458Q613 -466 623 -468Q632 -470 640 -474Q638 -476 633 -476Q628 -475 623 -475Q596 -471 568 -467Q576 -520 586 -575Q588 -579 590 -583V-591Q596 -600 596 -618Q596 -629 587 -629Q588 -625 588 -621Q584 -589 572 -555Q567 -561 567 -574Q568 -589 569 -605V-611Q569 -619 561 -636Q554 -652 554 -661Q558 -662 561 -663Q568 -663 574 -654Q581 -645 586 -645Q587 -647 587 -649Q587 -668 568 -676Q550 -705 514 -705Q495 -705 480 -695Q471 -688 462 -665Q455 -647 447 -640Q458 -639 461 -625Q466 -602 466 -601Q468 -596 476 -586Q484 -576 486 -569Q487 -559 487 -533Q488 -522 488 -500Q488 -472 487 -444Q448 -438 413 -431Q407 -429 402 -425Q392 -423 380 -422Q368 -421 364 -412Q372 -413 399 -420Q432 -429 451 -429Q455 -429 465 -427Q432 -411 396 -402Q359 -394 324 -384Q302 -375 291 -375Q289 -375 286 -376Q288 -391 317 -400H325Q331 -400 331 -405Q325 -407 322 -407Q304 -403 286 -399Q279 -399 272 -406Q277 -413 281 -420Q275 -416 268 -413Q268 -414 267 -414Q269 -428 287 -444Q296 -451 298 -457V-458Q282 -451 257 -429Q230 -405 215 -399Q202 -396 194 -387Q192 -385 192 -376V-355Q187 -342 181 -329Q181 -322 180 -316Q181 -298 191 -292Q201 -285 212 -278Q219 -273 232 -254Q241 -241 254 -240H261Q279 -241 287 -251Q296 -261 306 -271Q317 -282 332 -287Q347 -292 362 -298Q391 -311 396 -313Q399 -314 428 -322Q436 -324 450 -330Q470 -338 480 -339Q482 -286 483 -233Q483 -186 476 -152Q475 -151 473 -151Q467 -152 461 -153H460Q469 -148 470 -141Q456 -146 434 -163Q408 -183 391 -188Q411 -171 432 -154Q453 -137 468 -118Q457 -127 447 -136Q437 -146 426 -150Q430 -138 452 -122Q470 -109 474 -99Q463 -108 451 -115Q465 -101 490 -66Q509 -40 517 -30Q525 -26 533 -22Q561 -37 573 -63Q586 -89 586 -106ZM774 -494Q772 -500 772 -503H767Q755 -503 755 -494Q755 -493 756 -492Q765 -493 774 -494ZM362 -205V-204Q362 -195 375 -195Q379 -195 382 -196Q380 -196 375 -201Q370 -206 366 -206Q364 -206 362 -205Z"/>
</svg>