<svg xmlns="http://www.w3.org/2000/svg" viewBox="0 -800 1024 1024">
	<path fill="#000000" d="M954 -38V-32Q953 -10 941 2Q929 14 919 29Q899 23 877 15Q855 7 832 5Q828 4 819 4Q793 7 766 9Q748 11 713 11Q687 11 643 9Q649 1 673 1H677Q687 1 691 0Q695 0 766 -10Q765 -17 757 -20Q750 -24 742 -25Q736 -26 722 -26Q668 -22 613 -19H604Q596 -20 587 -21Q576 -21 575 -12V-10Q576 2 591 3Q605 3 618 6Q612 14 601 16Q590 17 579 19Q555 32 530 36Q520 36 515 34Q494 27 482 -12Q473 -41 464 -51V-58Q464 -83 483 -100Q482 -104 482 -111Q484 -135 499 -144Q515 -153 525 -169Q526 -168 526 -164Q524 -153 522 -143V-139Q526 -134 537 -134Q547 -134 551 -138Q549 -182 549 -203Q551 -300 553 -397Q553 -470 546 -527Q508 -530 506 -570Q489 -599 489 -615Q489 -621 492 -629Q487 -640 481 -649Q475 -658 474 -673V-676Q478 -666 499 -660Q491 -671 482 -691Q492 -683 503 -679V-682Q502 -694 497 -703L499 -705Q505 -703 510 -701Q514 -702 520 -708Q524 -712 528 -713H545Q576 -715 607 -718Q613 -716 618 -715Q621 -717 624 -719Q635 -722 649 -722Q682 -720 715 -718Q723 -718 730 -719Q746 -721 757 -721Q773 -721 782 -716Q771 -705 727 -705H719Q671 -705 660 -688Q662 -676 677 -676Q686 -676 694 -677Q736 -678 785 -680Q835 -682 859 -697Q858 -708 836 -708H833Q813 -708 809 -715Q820 -724 835 -724Q849 -724 863 -727Q869 -729 880 -737Q888 -743 895 -744Q898 -744 898 -742Q896 -737 893 -733Q900 -733 911 -740Q922 -746 932 -747V-746Q932 -741 926 -732Q917 -719 917 -713Q917 -710 922 -703Q925 -702 930 -708Q937 -716 941 -716Q943 -716 944 -715Q944 -712 938 -703Q930 -691 930 -683Q930 -677 932 -674Q933 -673 934 -673Q936 -676 942 -679H944Q937 -671 937 -650Q937 -631 941 -620Q931 -608 931 -588Q932 -584 932 -580Q921 -570 903 -568H898Q899 -550 908 -536Q908 -516 899 -485Q897 -478 896 -471Q894 -464 888 -463H887V-466Q888 -482 889 -498Q889 -511 885 -516Q866 -494 865 -451Q865 -408 863 -368V-298Q863 -282 869 -275Q878 -290 878 -325Q878 -340 877 -355Q877 -391 885 -406Q888 -392 888 -377Q888 -357 887 -337V-326Q890 -306 892 -286Q890 -267 887 -248Q886 -242 886 -229Q887 -200 888 -171Q888 -154 887 -145Q892 -142 899 -142Q907 -142 929 -151Q932 -151 932 -149Q929 -143 925 -137V-136Q927 -135 928 -135Q937 -137 946 -140Q949 -140 951 -139Q949 -133 945 -129Q940 -125 937 -121Q937 -117 941 -107H942Q946 -109 950 -112Q951 -112 953 -110V-108Q949 -100 945 -92Q944 -88 944 -81Q948 -57 954 -38ZM422 2H408Q388 2 380 6Q367 -5 349 -5Q339 -5 335 -3Q331 -6 328 -11Q323 -19 319 -21Q308 -19 296 -18Q301 -20 301 -25Q299 -33 296 -41Q296 -45 301 -49Q295 -52 289 -56Q290 -62 297 -70Q303 -77 304 -81V-84Q302 -102 293 -124Q286 -145 251 -233Q237 -215 220 -174Q214 -158 209 -141Q204 -124 190 -114Q190 -118 189 -123Q189 -137 201 -161Q211 -182 213 -197Q179 -154 152 -51Q160 -53 166 -64Q173 -77 181 -78V-76Q181 -55 165 -30Q155 -14 152 -3Q138 5 129 17Q120 30 109 40Q95 36 81 31Q55 -15 55 -69Q55 -90 61 -110Q53 -125 41 -132H43Q55 -130 66 -128Q69 -128 73 -130Q75 -130 75 -132Q73 -136 71 -140Q71 -141 72 -142Q82 -142 85 -139Q137 -230 190 -330Q202 -346 206 -357Q205 -370 195 -388Q186 -406 180 -418Q169 -451 154 -474Q156 -453 173 -413Q186 -383 190 -363Q169 -378 158 -409Q143 -449 126 -490Q110 -531 87 -554Q75 -566 57 -566Q42 -566 39 -551Q38 -553 38 -558Q39 -568 40 -578Q40 -584 38 -586Q45 -599 49 -639Q53 -681 63 -695Q76 -712 96 -718H97Q116 -714 134 -711H138Q146 -712 152 -716Q152 -702 162 -694Q166 -700 169 -707Q187 -677 208 -667V-663Q208 -640 219 -629Q215 -613 215 -594Q216 -555 228 -521Q240 -486 251 -457Q254 -459 271 -492Q291 -526 307 -565Q320 -591 320 -606Q320 -611 317 -616Q311 -623 301 -623Q279 -623 258 -610Q266 -625 283 -631Q300 -638 317 -643V-649Q315 -650 312 -650Q300 -646 286 -640Q290 -656 302 -662Q315 -669 326 -677V-681Q326 -687 325 -689Q337 -691 368 -706Q400 -722 416 -722H417Q436 -721 442 -705Q449 -687 455 -668Q459 -670 471 -670Q470 -667 465 -664Q459 -660 458 -655Q458 -654 457 -653Q460 -651 463 -649V-648Q456 -638 456 -623Q458 -594 476 -580Q465 -564 447 -557Q429 -550 413 -541Q405 -536 397 -523Q389 -511 383 -506Q381 -512 381 -513Q385 -523 388 -533Q386 -534 383 -534Q374 -533 368 -525Q361 -518 356 -511Q334 -475 315 -432Q304 -416 301 -400Q301 -396 302 -394Q340 -446 351 -466Q353 -470 357 -476Q361 -482 368 -483H371Q360 -453 332 -407Q307 -367 299 -348Q347 -210 426 -135Q438 -79 438 -50Q438 -33 437 -25Q426 -16 422 2ZM672 -138H680Q686 -168 686 -199Q686 -228 685 -258V-277Q686 -317 687 -357Q687 -390 685 -452Q684 -485 683 -519Q683 -536 674 -553Q659 -553 650 -550Q653 -546 653 -532V-519Q653 -509 654 -504Q657 -497 660 -491Q655 -479 647 -468Q645 -461 645 -442Q643 -436 640 -430Q642 -425 643 -421Q640 -402 633 -387Q630 -367 630 -348Q632 -307 633 -267V-259Q632 -219 631 -180Q631 -158 634 -133Q653 -135 672 -138ZM796 -142H802Q806 -268 806 -334Q806 -469 793 -563H791Q785 -563 779 -564Q774 -564 774 -561Q774 -560 775 -559V-557Q780 -537 784 -517V-513Q780 -498 775 -485Q774 -481 774 -474Q775 -462 775 -451V-445Q771 -333 766 -221Q766 -170 767 -144Q782 -143 796 -142ZM940 -751V-760Q950 -764 953 -764Q958 -764 962 -760Q953 -754 940 -751Z"/>
</svg>