<svg xmlns="http://www.w3.org/2000/svg" viewBox="0 -800 1024 1024">
	<path fill="#000000" d="M415 -630Q407 -620 390 -613Q388 -617 388 -619Q388 -624 394 -630Q400 -636 406 -636Q412 -636 415 -630ZM708 -77H707Q683 -76 667 -59Q651 -42 633 -28Q624 -22 597 -12Q562 1 550 16Q558 20 568 20Q589 20 632 -4Q665 -22 677 -25Q622 40 510 40Q448 40 392 18Q314 -13 263 -76Q208 -145 202 -232Q200 -260 200 -271Q200 -315 212 -363Q221 -400 227 -415Q237 -440 254 -451V-448Q250 -433 246 -419Q246 -413 251 -408Q256 -415 285 -463Q282 -467 279 -472Q274 -472 269 -466Q263 -460 257 -459Q255 -465 255 -468Q259 -486 271 -502Q312 -573 360 -595V-594Q360 -589 347 -576Q329 -559 312 -541Q295 -522 291 -492Q303 -498 311 -509Q318 -519 326 -529Q360 -563 400 -588Q441 -614 480 -642Q475 -648 466 -648Q460 -648 445 -642Q433 -637 427 -637H425Q444 -660 496 -675Q493 -686 474 -695Q454 -704 449 -711Q468 -710 483 -702Q499 -693 513 -687Q510 -692 500 -699Q490 -706 487 -712Q521 -700 554 -685Q556 -686 556 -690Q555 -694 558 -694H559Q572 -692 585 -690Q597 -684 610 -662Q620 -644 628 -639Q642 -631 655 -624Q665 -615 675 -604Q685 -593 698 -586Q742 -532 769 -462Q800 -381 800 -298V-294Q800 -225 774 -157Q749 -91 711 -54Q703 -48 695 -43Q695 -50 702 -61Q707 -70 708 -77ZM696 -341V-351Q696 -411 674 -467Q652 -524 618 -549Q612 -535 605 -522Q598 -509 584 -505Q576 -503 572 -503Q561 -504 550 -505H547Q490 -497 448 -448Q384 -369 369 -289Q365 -263 365 -249Q365 -185 395 -144Q432 -95 510 -90Q522 -90 529 -91Q564 -95 597 -120Q636 -148 666 -214Q696 -280 696 -341Z"/>
</svg>