<svg xmlns="http://www.w3.org/2000/svg" viewBox="0 -800 1024 1024">
	<path fill="#000000" d="M294 -151H291Q286 -151 274 -155Q259 -160 250 -160Q217 -160 210 -137Q216 -130 227 -130Q242 -132 256 -134H258Q275 -133 286 -120Q297 -108 309 -100Q315 -103 315 -108Q311 -124 306 -133Q342 -112 342 -62Q339 1 302 40Q280 59 252 68Q224 76 197 84Q215 70 237 60Q260 50 270 26Q259 35 247 44Q224 63 161 85Q170 73 197 60Q216 51 225 44Q247 27 252 1Q237 8 221 8Q191 8 172 -19Q154 -44 154 -80Q154 -111 170 -136Q196 -169 249 -172Q281 -172 294 -151Z"/>
</svg>