<svg xmlns="http://www.w3.org/2000/svg" viewBox="0 -800 1024 1024">
	<path fill="#000000" d="M601 -657V-660Q601 -668 613 -668Q626 -668 629 -663Q624 -656 609 -656Q603 -656 601 -657ZM720 0H726Q721 8 713 15Q706 21 705 33Q706 34 707 34Q710 32 713 30Q714 30 715 31Q713 39 703 52Q692 67 690 79Q666 83 634 83H605Q535 83 511 103Q474 100 461 70V69Q461 66 464 66H465Q457 47 457 12Q457 -2 459 -18V-19Q457 -23 455 -27V-28Q457 -34 457 -38Q457 -47 456 -56Q456 -66 461 -71Q458 -74 455 -78Q457 -80 457 -85Q456 -92 455 -100Q455 -105 458 -108L455 -117Q458 -122 458 -133Q458 -145 461 -150Q456 -220 456 -232Q456 -257 458 -270Q458 -278 455 -281Q458 -294 458 -307Q458 -324 457 -341Q457 -353 458 -360Q458 -365 455 -366Q457 -369 459 -372Q457 -379 455 -387V-389Q456 -402 457 -415Q457 -419 455 -429V-432Q457 -436 459 -440V-441L455 -458Q462 -488 462 -522Q462 -552 456 -575L459 -581V-582Q457 -585 455 -589V-590Q457 -595 457 -608Q455 -637 452 -666Q452 -674 453 -677Q442 -696 442 -728Q442 -774 461 -797Q491 -799 521 -801Q527 -795 533 -794Q599 -804 674 -804H675Q677 -804 677 -801V-798Q691 -800 704 -803H709Q708 -801 701 -798Q694 -794 693 -789Q696 -788 698 -788Q715 -791 732 -794H737Q727 -787 715 -781Q703 -776 702 -759H704Q712 -762 726 -766Q728 -765 730 -765Q720 -757 709 -750V-738Q709 -735 708 -734Q708 -733 710 -733Q714 -734 718 -736Q719 -736 721 -734Q719 -726 711 -716V-714Q710 -699 702 -686Q694 -673 689 -660Q674 -657 671 -657Q663 -657 659 -662Q660 -665 668 -669Q676 -673 678 -678V-679Q678 -687 672 -690Q667 -693 662 -696Q646 -694 635 -694Q612 -694 588 -695Q547 -695 533 -681Q533 -668 554 -666Q576 -664 579 -656Q561 -651 549 -647Q537 -642 536 -620V-618Q536 -608 538 -578Q539 -572 539 -566Q536 -534 533 -503V-467Q532 -436 531 -405Q531 -360 536 -333V-332Q534 -328 532 -325V-313Q533 -281 533 -249Q533 -221 529 -197Q521 -202 521 -220V-262Q521 -317 514 -335Q501 -330 501 -312Q501 -302 502 -297Q503 -290 503 -283Q501 -250 499 -217Q500 -209 500 -201V-189Q500 -167 499 -145Q499 -97 514 -81Q521 -83 522 -100Q524 -118 532 -120Q534 -116 534 -104Q533 -85 532 -66Q532 -51 536 -42Q552 -31 589 -31Q607 -31 654 -36Q658 -38 662 -44Q667 -52 671 -53Q671 -42 672 -38Q680 -43 702 -43Q710 -43 718 -41Q716 -36 711 -34Q706 -33 702 -30Q700 -26 700 -20Q700 -9 708 1Q712 0 720 0Z"/>
</svg>