<svg xmlns="http://www.w3.org/2000/svg" viewBox="0 -800 1024 1024">
	<path fill="#000000" d="M644 -210H653Q654 -203 654 -197Q654 -193 653 -192Q650 -192 648 -189Q642 -190 642 -200Q642 -206 644 -210ZM679 -28V-22Q678 -10 676 2Q667 2 664 7Q660 12 657 18Q638 26 624 26Q602 25 585 15Q568 5 552 -6Q546 -25 535 -39Q524 -54 514 -67Q484 -110 470 -121H469Q465 -121 465 -114Q450 -110 426 -86Q409 -69 401 -64Q404 -82 427 -102Q443 -116 448 -127Q445 -129 440 -129Q431 -128 424 -120Q417 -112 410 -105Q392 -90 374 -72Q355 -54 354 -31Q354 -27 356 -17Q362 -20 370 -34Q378 -47 388 -48Q371 -4 350 35Q338 36 334 54Q331 55 325 55Q294 55 270 11Q272 5 272 -1Q272 -25 262 -27V-34Q262 -69 278 -106Q276 -132 276 -149V-193Q282 -181 287 -154Q293 -123 299 -112Q352 -139 428 -217Q411 -246 407 -251Q393 -268 373 -271Q373 -268 372 -265Q372 -253 390 -238Q407 -224 407 -213V-210Q393 -213 381 -229Q369 -245 356 -247H340Q330 -254 320 -262Q308 -267 296 -273Q291 -278 286 -285Q281 -293 273 -295Q279 -315 284 -336Q283 -339 279 -343Q273 -348 273 -354H275Q281 -352 286 -351H288Q284 -362 276 -369Q267 -376 260 -384Q261 -385 264 -385Q269 -385 277 -379Q289 -370 296 -370H297Q298 -372 298 -374Q298 -377 292 -381Q285 -385 285 -390Q285 -393 287 -393Q291 -391 295 -390H296Q330 -430 367 -430Q377 -430 389 -427Q449 -385 509 -300Q528 -313 573 -365Q584 -376 596 -386Q608 -396 614 -411Q612 -416 600 -417Q590 -418 588 -420Q623 -447 657 -466Q673 -464 679 -464Q691 -464 702 -468Q729 -456 729 -427Q729 -417 727 -412Q731 -386 740 -362Q736 -343 730 -324Q724 -324 717 -317Q709 -309 705 -309Q703 -308 698 -308Q691 -308 683 -309H679Q662 -303 645 -298Q648 -305 659 -314Q669 -322 672 -328Q670 -331 668 -334Q599 -309 580 -267Q586 -267 597 -276Q612 -287 621 -287Q624 -287 630 -285Q614 -273 597 -262Q579 -252 567 -237Q593 -182 639 -141Q645 -160 650 -180Q652 -163 656 -142Q660 -152 660 -180V-184Q660 -212 666 -224Q669 -206 670 -170Q671 -132 675 -114Q676 -106 684 -90Q692 -72 693 -63Q691 -42 679 -28Z"/>
</svg>