<svg xmlns="http://www.w3.org/2000/svg" viewBox="0 -800 1024 1024">
	<path fill="#000000" d="M780 -193H785Q787 -187 787 -184Q785 -172 782 -161Q777 -162 777 -175Q777 -188 780 -193ZM354 -613H351Q342 -609 332 -606Q329 -606 327 -607Q329 -616 337 -618Q346 -620 352 -624Q354 -624 354 -620ZM815 -27V-20Q815 -15 813 -5Q806 18 785 35Q762 54 736 55Q729 50 722 45Q715 39 703 39Q662 -6 596 -94Q520 -195 492 -230Q480 -226 472 -218H468Q447 -218 437 -206Q433 -208 425 -208Q410 -208 398 -190Q391 -180 382 -155Q372 -125 361 -96Q349 -63 341 -31Q332 0 316 16Q299 26 283 26Q279 26 275 25Q270 24 264 18Q256 11 246 10Q242 -3 219 -11Q214 -20 210 -31Q206 -42 197 -49V-51Q199 -56 201 -61V-62Q200 -69 193 -69Q188 -68 182 -68Q180 -68 178 -69Q179 -77 186 -80Q193 -83 200 -86Q218 -99 231 -118Q244 -137 258 -156Q260 -154 260 -149Q258 -135 255 -122Q255 -118 256 -116Q287 -138 309 -187Q324 -221 339 -284H336Q331 -284 320 -273Q312 -262 299 -227Q288 -198 280 -185Q273 -189 273 -197Q273 -206 281 -218Q295 -243 298 -245Q296 -247 296 -255Q305 -267 317 -300Q327 -329 337 -342Q335 -348 335 -350Q335 -356 339 -365Q344 -376 344 -382Q344 -386 343 -389H342Q335 -389 329 -379Q323 -369 317 -366Q307 -360 295 -360Q262 -360 240 -386Q215 -387 201 -407Q188 -425 188 -449V-452Q191 -461 193 -471V-473Q193 -480 188 -491Q182 -504 182 -512Q182 -516 184 -524Q188 -535 200 -550Q211 -565 219 -575Q230 -588 237 -599Q240 -606 244 -612Q247 -619 255 -620H258Q254 -611 249 -603Q244 -594 243 -584Q243 -579 246 -573Q258 -576 274 -587Q298 -603 317 -603H319Q316 -595 302 -587Q285 -578 285 -567Q285 -561 286 -558Q308 -563 326 -575Q344 -588 364 -599Q404 -618 444 -632Q484 -646 518 -660Q509 -665 497 -665Q489 -665 450 -654Q423 -643 388 -636Q441 -667 501 -681Q584 -699 624 -699Q632 -698 640 -698Q717 -693 768 -645Q822 -594 822 -516V-503Q822 -415 735 -353Q718 -341 716 -339Q704 -331 694 -331V-333Q696 -341 706 -348Q735 -370 761 -395H757Q735 -395 711 -377Q673 -349 671 -348Q651 -339 632 -331Q613 -324 605 -305Q610 -302 614 -302Q618 -302 630 -308Q644 -315 653 -315Q656 -314 659 -314Q652 -301 635 -294Q618 -288 604 -281Q618 -259 638 -237Q651 -224 675 -196Q684 -189 693 -182Q704 -170 714 -156Q724 -142 742 -138Q747 -145 749 -167Q750 -182 752 -188Q757 -181 757 -159Q757 -134 764 -128Q762 -166 759 -204Q759 -224 763 -237Q769 -217 769 -190Q769 -163 771 -140Q776 -125 780 -111Q784 -120 784 -131Q785 -142 785 -153Q791 -124 798 -96Q805 -67 819 -46Q815 -42 815 -27ZM493 -368Q516 -376 591 -408Q662 -436 684 -455Q710 -478 710 -502Q710 -507 709 -510Q700 -546 609 -546Q590 -546 582 -545Q540 -541 489 -513Q455 -495 449 -492Q426 -479 415 -467Q417 -467 443 -461Q456 -438 472 -419Q488 -399 493 -368Z"/>
</svg>