<svg xmlns="http://www.w3.org/2000/svg" viewBox="0 -800 1024 1024">
	<path fill="#000000" d="M720 -150H718Q707 -149 703 -140Q700 -132 697 -124Q692 -114 678 -93Q657 -64 635 -38Q625 -29 601 -17Q576 -5 566 5Q570 9 576 9Q594 5 611 0Q618 0 621 2Q612 15 583 19Q549 27 514 27H504Q370 27 295 -57Q223 -138 217 -286Q217 -301 216 -317Q216 -338 218 -388Q223 -386 225 -372Q227 -345 228 -315Q228 -285 243 -271Q248 -282 248 -304Q246 -337 244 -370Q244 -384 243 -398Q244 -430 244 -462Q244 -518 235 -543Q219 -542 219 -519Q221 -498 223 -477Q223 -467 218 -462Q209 -463 209 -472Q210 -479 211 -486Q205 -555 205 -558V-576Q200 -584 196 -606Q193 -624 191 -629Q202 -654 222 -670Q242 -686 261 -703Q262 -702 262 -700Q261 -693 259 -687V-684Q266 -695 270 -707Q275 -719 287 -724Q288 -723 288 -722Q283 -712 278 -697Q278 -692 280 -689Q281 -689 281 -688Q284 -688 287 -696Q290 -703 293 -704Q295 -699 297 -682Q322 -680 347 -656Q357 -646 360 -641Q364 -634 364 -625Q364 -615 363 -608Q359 -582 346 -551Q331 -511 331 -440Q331 -403 332 -385Q334 -321 336 -260Q338 -199 355 -150Q382 -78 437 -55Q471 -39 501 -39H508Q540 -43 585 -90Q627 -131 646 -211V-220Q649 -224 652 -229Q656 -280 659 -332Q659 -346 658 -352V-361Q662 -406 665 -451Q664 -466 663 -482Q663 -493 665 -498V-500Q663 -504 661 -508Q664 -527 664 -556Q662 -586 659 -617Q659 -626 661 -640Q663 -649 674 -660Q684 -671 686 -676Q703 -677 712 -687Q721 -698 729 -708Q731 -706 731 -703Q731 -698 730 -694Q730 -686 735 -684Q741 -690 745 -706Q750 -725 756 -730Q757 -723 757 -717Q757 -708 756 -699Q756 -685 762 -680Q766 -681 768 -687Q770 -694 774 -694V-692Q775 -676 786 -670Q797 -664 805 -656Q804 -653 804 -647Q804 -641 809 -624Q800 -606 798 -584Q796 -563 792 -542Q785 -524 778 -506Q773 -442 773 -375Q772 -351 771 -328Q768 -317 765 -306Q763 -273 761 -240Q754 -182 732 -127Q727 -115 722 -102Q716 -88 703 -83Q705 -94 712 -111Q721 -132 721 -141Q721 -147 720 -150ZM677 -42V-44Q678 -66 692 -68Q694 -68 698 -66Q693 -59 690 -51Q687 -43 677 -42Z"/>
</svg>