<svg xmlns="http://www.w3.org/2000/svg" viewBox="0 -800 1024 1024">
	<path fill="#000000" d="M343 -687L396 -606L386 -599Q376 -610 364 -605L250 -563L364 -509Q375 -503 388 -514L398 -507L340 -426L330 -434Q339 -446 328 -456L234 -538L250 -420Q251 -407 268 -404V-391H168V-404Q185 -407 185 -420L202 -538L104 -456Q96 -447 102 -434L92 -426L37 -508L48 -515Q59 -504 71 -510L187 -562L71 -606Q60 -611 49 -599L38 -605L92 -688L102 -682Q98 -667 108 -660L201 -589L184 -705Q183 -719 167 -721V-735H267V-721Q252 -720 251 -705L233 -589L327 -659Q337 -666 332 -681Z"/>
</svg>