<svg xmlns="http://www.w3.org/2000/svg" viewBox="0 -800 1024 1024">
	<path fill="#000000" d="M760 -506Q742 -524 724 -506L689 -471Q720 -420 720 -359Q719 -291 680 -237L713 -206Q730 -187 748 -203L758 -193L675 -109L665 -119Q682 -137 663 -155L631 -186Q577 -145 505 -145Q429 -146 370 -189L336 -157Q318 -137 335 -121L325 -111L242 -195L252 -205Q268 -189 287 -207L322 -241Q286 -294 285 -359Q285 -417 315 -469L276 -508Q258 -526 240 -508L230 -517L313 -600L324 -591Q309 -573 328 -556L362 -523Q422 -573 500 -574Q580 -573 641 -525L672 -554Q691 -571 676 -590L687 -599L770 -515ZM500 -206Q570 -207 616 -254Q658 -299 659 -359Q658 -420 616 -465Q568 -514 507 -514Q438 -512 391 -466Q348 -422 347 -359Q348 -299 390 -254Q435 -207 500 -206Z"/>
</svg>