<svg xmlns="http://www.w3.org/2000/svg" viewBox="0 -800 1024 1024">
	<path fill="#000000" d="M84 -476V-479Q84 -486 77 -495Q69 -505 68 -513V-516Q71 -544 74 -572Q73 -580 72 -589Q74 -599 74 -603Q74 -608 71 -614Q73 -625 73 -653Q73 -712 60 -745Q64 -758 68 -772Q90 -779 105 -793Q113 -787 126 -787Q151 -787 155 -802Q165 -792 175 -792H178Q179 -793 179 -797Q178 -805 177 -813Q177 -817 178 -818Q184 -815 190 -804Q195 -794 198 -792H201Q226 -792 226 -767Q224 -743 222 -719Q222 -696 221 -673Q221 -641 225 -624Q340 -625 455 -626Q535 -626 573 -624Q591 -623 609 -623Q641 -623 673 -624Q692 -624 728 -622Q756 -620 777 -620Q801 -620 839 -622Q853 -622 866 -623Q886 -623 896 -611Q896 -607 895 -604Q895 -590 903 -587Q887 -573 887 -547Q887 -534 893 -524Q902 -515 911 -507Q917 -499 939 -495V-492Q938 -489 932 -489Q926 -489 919 -490Q915 -490 914 -489Q915 -486 924 -485Q932 -484 933 -482Q903 -469 881 -451Q849 -457 817 -457Q785 -456 753 -458V-462Q753 -470 750 -476Q743 -482 727 -482Q717 -482 695 -480H683Q622 -483 560 -487Q546 -487 539 -486Q510 -482 510 -464H500Q496 -479 481 -479Q467 -480 450 -483Q437 -478 435 -468Q406 -468 377 -469Q360 -469 336 -467Q332 -466 323 -466Q292 -468 260 -471Q210 -470 160 -469Q110 -469 84 -476ZM140 -728V-706Q140 -644 134 -536Q585 -528 676 -528Q758 -528 798 -529Q811 -529 822 -530Q833 -532 834 -541Q834 -543 833 -545Q833 -547 828 -547H811Q737 -550 662 -554H536Q432 -554 383 -557Q366 -558 333 -558Q286 -557 238 -557Q203 -557 173 -560Q174 -604 174 -648Q174 -693 170 -726Q166 -728 158 -728Z"/>
</svg>