<svg xmlns="http://www.w3.org/2000/svg" viewBox="0 -800 1024 1024">
	<path fill="#000000" d="M409 -251V-249Q383 -248 374 -218Q310 -149 242 -50Q211 -6 179 37Q147 81 122 129Q105 129 103 110Q98 107 91 96Q82 83 75 80Q75 77 79 76Q82 75 83 73Q82 68 75 68Q67 68 63 66Q67 58 75 55Q83 52 89 48Q103 37 123 7Q144 -22 157 -34Q164 -28 171 -23Q191 -52 231 -101Q289 -174 314 -213V-214Q311 -219 308 -224V-225Q342 -271 376 -315Q358 -354 310 -429Q265 -500 245 -539Q214 -599 144 -705Q121 -736 111 -765Q112 -771 112 -778Q112 -781 111 -783Q110 -790 101 -804Q93 -817 92 -827Q99 -825 105 -817Q111 -809 116 -807V-810Q114 -817 111 -824V-825Q115 -821 120 -821Q129 -823 137 -825H140Q150 -823 155 -815Q160 -807 168 -800Q180 -776 192 -752Q205 -730 218 -708Q223 -695 228 -681Q233 -667 245 -660Q268 -604 298 -552Q328 -500 359 -447Q375 -421 391 -396Q398 -382 405 -369Q414 -357 423 -342Q432 -328 433 -307Q423 -273 422 -269Q417 -266 413 -262Q409 -258 409 -251ZM193 -471V-473Q195 -479 199 -483Q167 -556 148 -579H145Q140 -577 135 -576Q120 -602 104 -626Q93 -639 89 -646Q80 -661 80 -674Q75 -680 70 -686Q75 -691 75 -695Q71 -706 64 -719Q70 -719 76 -712Q80 -707 85 -706Q88 -708 88 -717Q98 -712 107 -710H110Q147 -672 172 -617Q196 -563 224 -512Q243 -478 260 -443Q277 -409 299 -377Q310 -363 319 -350Q328 -337 328 -319Q328 -310 325 -300Q324 -296 314 -291Q271 -246 198 -144Q147 -73 122 -42Q118 -37 110 -21Q103 -1 88 12Q82 8 77 -1Q73 -8 69 -11Q64 -28 64 -41Q68 -77 72 -114Q77 -104 82 -89Q91 -98 110 -124Q136 -160 156 -174Q166 -196 199 -232Q220 -255 230 -270Q235 -271 240 -273Q243 -282 254 -295Q270 -314 270 -326Q270 -331 252 -364Q223 -417 193 -471Z"/>
</svg>