<svg xmlns="http://www.w3.org/2000/svg" viewBox="0 -800 1024 1024">
	<path fill="#000000" d="M629 -588H631Q642 -585 654 -577Q656 -581 656 -584Q656 -591 645 -605Q638 -614 635 -621Q631 -630 629 -638Q626 -646 618 -651Q612 -645 612 -634Q612 -632 615 -611Q598 -618 598 -656V-666Q599 -694 618 -726Q636 -756 659 -771Q677 -781 697 -785Q717 -789 736 -794Q738 -793 740 -792Q735 -784 714 -777Q694 -770 689 -759Q710 -766 731 -778Q753 -791 781 -794Q773 -782 747 -771Q719 -759 712 -747Q735 -742 750 -714Q764 -687 764 -654Q764 -624 754 -603Q743 -580 722 -571Q713 -569 704 -567Q695 -566 689 -555Q686 -554 681 -554Q657 -558 642 -571Q637 -574 632 -576Q627 -579 627 -583Q627 -584 629 -588ZM953 -656V-650Q953 -627 935 -593Q915 -585 912 -574Q892 -569 872 -565Q864 -565 858 -571Q859 -575 869 -577Q877 -578 879 -581Q875 -591 858 -600Q847 -606 842 -611Q838 -616 834 -626Q829 -638 824 -643Q815 -637 815 -628Q815 -621 821 -608Q829 -591 829 -583V-582Q796 -601 796 -650V-663Q796 -715 823 -750Q850 -785 895 -788Q894 -780 882 -775Q870 -770 869 -763Q885 -771 904 -781Q922 -792 947 -794Q930 -784 913 -774Q897 -764 888 -746H891Q918 -746 931 -725Q949 -698 953 -656Z"/>
</svg>