<svg xmlns="http://www.w3.org/2000/svg" viewBox="0 -800 1024 1024">
	<path fill="#000000" d="M638 -361Q636 -500 574 -597Q508 -693 397 -695Q275 -696 209 -582Q156 -488 155 -361Q156 -227 219 -127Q285 -26 397 -25Q507 -24 575 -127Q636 -226 638 -361ZM743 -361Q742 -194 654 -94Q585 -14 470 5L539 128Q562 168 612 170Q645 171 669 151Q691 135 694 103H708V167Q683 187 655 198Q613 212 571 211Q517 211 484 198Q447 182 425 141L351 9Q213 -5 134 -98Q51 -198 50 -361Q51 -525 140 -627Q233 -731 397 -732Q547 -732 640 -643Q742 -541 743 -361Z"/>
</svg>