<svg xmlns="http://www.w3.org/2000/svg" viewBox="0 -800 1024 1024">
	<path fill="#000000" d="M982 -13V0H858V-13Q880 -16 878 -38V-82Q880 -107 858 -106V-120H982V-106Q960 -104 961 -82V-38Q959 -16 982 -13ZM424 -100V20H412Q408 2 394 0H18V-14Q40 -14 39 -53Q39 -141 55 -201Q70 -255 113 -296Q141 -323 211 -365Q218 -369 222 -371Q277 -403 307 -452Q331 -492 330 -554Q329 -624 289 -666Q257 -696 204 -696Q159 -695 124 -668Q106 -654 84 -616Q72 -595 64 -552H50V-630Q72 -677 108 -701Q149 -730 210 -732Q296 -735 348 -700Q416 -654 420 -549Q423 -481 399 -432Q368 -368 285 -329Q209 -293 170 -263Q113 -220 94 -177Q75 -136 75 -79H394Q410 -83 412 -100ZM766 -359Q765 -499 741 -591Q712 -697 660 -697Q606 -697 578 -589Q555 -497 554 -359Q555 -230 574 -143Q603 -23 660 -24Q716 -24 743 -140Q763 -224 766 -359ZM854 -359Q853 -221 816 -123Q765 9 660 11Q555 12 503 -123Q466 -221 465 -359Q466 -506 508 -608Q562 -732 660 -733Q756 -732 810 -609Q853 -509 854 -359Z"/>
</svg>