<svg xmlns="http://www.w3.org/2000/svg" viewBox="0 -800 1024 1024">
	<path fill="#000000" d="M973 -349Q974 -202 929 -84Q905 -15 853 69Q844 82 865 85V97H800V85Q817 81 825 65Q860 0 879 -90Q906 -213 907 -352Q907 -486 878 -605Q856 -691 824 -764Q816 -781 799 -784V-797H864V-784Q844 -782 852 -768Q854 -763 859 -754Q904 -666 921 -622Q974 -492 973 -349ZM200 -797V-784Q183 -781 175 -764Q143 -691 121 -605Q92 -486 92 -352Q93 -213 120 -90Q139 0 174 65Q182 81 199 85V97H134V85Q155 82 146 69Q95 -13 69 -84Q26 -204 26 -349Q25 -492 78 -622Q91 -655 125 -724Q140 -753 147 -768Q155 -782 135 -784V-797ZM379 -686V-672Q350 -666 348 -644V-58Q347 -31 378 -25V-12H229V-25Q260 -30 260 -58V-650H205Q188 -647 183 -629H170V-707H183Q187 -687 205 -686ZM728 -346Q727 -474 705 -559Q680 -664 627 -662Q575 -664 550 -559Q528 -474 527 -346Q528 -222 548 -139Q575 -31 627 -33Q680 -31 707 -139Q727 -226 728 -346ZM819 -346Q818 -220 780 -123Q730 2 628 3Q525 2 474 -123Q438 -215 437 -346Q438 -487 480 -581Q531 -698 627 -698Q723 -697 774 -583Q816 -487 819 -346Z"/>
</svg>