<svg xmlns="http://www.w3.org/2000/svg" viewBox="0 -800 1024 1024">
	<path fill="#000000" d="M874 -13V0H741V-13Q765 -17 763 -38V-82Q766 -107 741 -106V-120H874V-106Q849 -103 851 -82V-38Q849 -17 874 -13ZM631 -190Q631 -91 554 -37Q480 14 353 11Q258 10 199 -22Q159 -42 126 -84V-162H139Q145 -128 164 -105Q186 -74 227 -54Q280 -27 353 -25Q434 -24 482 -67Q529 -112 531 -192Q534 -272 494 -317Q452 -362 372 -362H268Q252 -359 247 -341H234V-419H247Q251 -398 268 -398H370Q452 -398 490 -452Q517 -491 516 -556Q514 -621 472 -657Q430 -693 356 -695Q290 -697 242 -670Q211 -654 186 -626Q170 -606 162 -571H149V-649Q188 -686 226 -704Q275 -729 354 -731Q454 -734 520 -700Q606 -659 614 -566Q622 -483 562 -430Q515 -391 440 -380Q516 -373 566 -336Q632 -287 631 -190Z"/>
</svg>