<svg xmlns="http://www.w3.org/2000/svg" viewBox="0 -800 1024 1024">
	<path fill="#000000" d="M533 -720Q565 -717 568 -741H582V-621H568Q566 -644 533 -642H231L204 -388Q233 -417 276 -433Q323 -451 382 -451Q480 -450 543 -405Q629 -346 630 -226Q631 -125 561 -57Q485 11 354 10Q257 10 204 -21Q166 -40 126 -80V-157H140Q147 -121 171 -94Q198 -65 232 -49Q288 -22 356 -26Q446 -34 490 -88Q532 -143 531 -228Q531 -317 482 -368Q440 -412 364 -417Q305 -419 267 -399Q216 -376 202 -330H135V-342Q163 -346 168 -381L199 -674Q203 -703 167 -707V-720ZM740 -120H873V-106Q848 -105 850 -82V-38Q848 -16 873 -13V0H740V-13Q764 -16 762 -38V-82Q765 -109 740 -106Z"/>
</svg>