<svg xmlns="http://www.w3.org/2000/svg" viewBox="0 -800 1024 1024">
	<path fill="#000000" d="M248 -59V-72Q274 -77 274 -105Q277 -168 285 -196Q303 -268 369 -304Q417 -333 533 -370Q604 -393 623 -428Q640 -456 638 -505Q637 -563 589 -594Q553 -619 494 -619Q432 -622 387 -599Q349 -580 327 -552Q309 -529 302 -493H288V-562Q316 -605 365 -628Q424 -656 499 -655Q582 -651 638 -627Q723 -591 731 -501Q735 -442 709 -402Q675 -349 581 -317Q484 -288 422 -264Q365 -241 331 -192Q310 -162 310 -127H707Q725 -130 728 -145H741V-42H728Q724 -57 707 -59ZM505 69Q696 66 820 -73Q922 -191 923 -350Q920 -534 791 -658Q671 -769 505 -771Q315 -768 186 -628Q83 -509 82 -350Q83 -199 177 -83Q307 66 505 69ZM159 -43Q43 -175 41 -350Q43 -530 165 -665Q304 -809 505 -812Q693 -810 829 -679Q963 -542 965 -350Q963 -172 845 -38Q706 110 505 111Q299 107 159 -43Z"/>
</svg>