<svg xmlns="http://www.w3.org/2000/svg" viewBox="0 -800 1024 1024">
	<path fill="#000000" d="M627 -499Q628 -554 593 -588Q559 -620 507 -619Q451 -617 419 -587Q385 -554 387 -499Q389 -456 405 -429Q436 -381 507 -379Q568 -379 600 -420Q624 -449 627 -499ZM647 -208Q647 -265 612 -303Q573 -345 507 -346Q443 -345 402 -302Q367 -262 367 -208Q367 -153 400 -117Q441 -74 507 -73Q572 -74 611 -115Q647 -153 647 -208ZM739 -208Q741 -122 656 -74Q590 -40 507 -39Q406 -40 342 -82Q276 -127 274 -208Q273 -283 333 -326Q374 -354 428 -363Q367 -376 332 -409Q295 -446 296 -494Q296 -575 364 -618Q419 -651 507 -653Q595 -652 651 -618Q718 -576 718 -494Q718 -439 670 -401Q634 -373 585 -363Q641 -356 679 -329Q738 -289 739 -208ZM505 69Q696 66 820 -73Q922 -191 923 -350Q920 -534 791 -658Q671 -769 505 -771Q315 -768 186 -628Q83 -509 82 -350Q83 -199 177 -83Q307 66 505 69ZM159 -43Q43 -175 41 -350Q43 -530 165 -665Q304 -809 505 -812Q693 -810 829 -679Q963 -542 965 -350Q963 -172 845 -38Q706 110 505 111Q299 107 159 -43Z"/>
</svg>