<svg xmlns="http://www.w3.org/2000/svg" viewBox="0 -800 1024 1024">
	<path fill="#000000" d="M78 -622Q97 -671 147 -770Q155 -784 135 -786V-797H199V-786Q182 -783 174 -766Q141 -688 121 -606Q91 -489 91 -352Q92 -215 119 -92Q140 4 173 65Q181 81 198 85V97H134V85Q155 82 146 69Q95 -16 69 -85Q26 -205 26 -349Q25 -492 78 -622ZM793 -119Q810 -121 813 -139H826V-64H813Q808 -84 793 -84H207Q191 -82 186 -64H174V-139H186Q192 -119 207 -119ZM735 -616Q753 -618 756 -636H768V-560H756Q751 -580 735 -580H264Q248 -578 243 -560H230V-636H243Q249 -616 264 -616ZM973 -349Q974 -203 929 -85Q904 -15 852 69Q843 82 864 85V97H800V85Q818 81 826 65Q857 5 880 -92Q906 -217 907 -352Q907 -487 878 -606Q861 -679 825 -766Q817 -783 799 -786V-797H863V-786Q843 -784 851 -770Q901 -671 920 -622Q974 -490 973 -349Z"/>
</svg>