<svg xmlns="http://www.w3.org/2000/svg" viewBox="0 -800 1024 1024">
	<path fill="#000000" d="M191 52Q168 40 183 20Q372 -43 520 -185Q426 -266 315 -332Q303 -344 308 -355Q316 -368 331 -364Q468 -302 570 -241Q660 -350 691 -468Q691 -471 691 -475Q692 -487 683 -488Q472 -463 371 -420Q349 -406 339 -404Q295 -433 291 -488Q420 -570 467 -740Q452 -794 483 -792Q544 -754 567 -712Q567 -696 534 -680Q529 -677 527 -676Q500 -647 463 -590Q419 -522 383 -488Q734 -558 695 -568Q701 -572 707 -572Q771 -551 823 -476Q823 -464 798 -447Q780 -436 775 -428Q715 -293 634 -202Q719 -146 763 -100Q821 -37 812 17Q790 77 735 32Q657 -58 572 -140Q424 -8 191 52Z"/>
</svg>