<svg xmlns="http://www.w3.org/2000/svg" viewBox="0 -800 1024 1024">
	<path fill="#000000" d="M237 -467Q238 -498 209 -498V-511H359V-498Q330 -494 331 -467V-229H536V-575H163Q147 -573 143 -556H130V-629H143Q147 -610 163 -610H536V-741Q537 -772 508 -773V-786H660V-773Q632 -769 632 -741V-610H835Q853 -612 856 -629H869V-556H856Q852 -574 835 -575H632V-229H885Q902 -231 905 -248H918V-175H905Q900 -193 885 -194H632V-26Q630 1 660 5V18H508V5Q537 1 536 -26V-194H114Q99 -192 94 -175H81V-248H94Q99 -228 114 -229H237Z"/>
</svg>