<svg xmlns="http://www.w3.org/2000/svg" viewBox="0 -800 1024 1024">
	<path fill="#000000" d="M298 -388Q304 -362 326 -358V-344H184V-358Q208 -361 202 -388L115 -744Q110 -770 86 -773V-786H227V-773Q206 -769 211 -744ZM761 -151Q741 -63 668 -18Q604 21 494 22Q424 24 363 11Q308 -1 255 -29V-95H269Q283 -55 345 -34Q394 -16 458 -14Q543 -17 593 -48Q654 -82 669 -158L791 -753Q793 -764 767 -773V-786H912V-773Q888 -768 885 -753ZM602 -388Q608 -362 629 -358V-344H488V-358Q512 -361 506 -388L418 -744Q414 -770 390 -773V-786H530V-773Q509 -768 515 -744Z"/>
</svg>