<svg xmlns="http://www.w3.org/2000/svg" viewBox="0 -800 1024 1024">
	<path fill="#000000" d="M492 -348V-356Q714 -572 716 -696Q719 -718 744 -720Q803 -676 824 -628Q825 -614 807 -609Q786 -602 776 -588Q693 -473 548 -348Q828 -118 824 -32Q827 18 772 32Q751 28 728 -12Q626 -215 492 -348ZM440 -740Q506 -711 524 -664Q524 -654 510 -645Q509 -644 508 -644Q491 -636 411 -532Q293 -379 228 -316Q289 -256 376 -178Q509 -71 496 -8Q492 30 448 40Q423 43 388 -20Q321 -139 176 -313Q175 -317 176 -321Q371 -542 420 -716Q418 -740 440 -740Z"/>
</svg>