<svg xmlns="http://www.w3.org/2000/svg" viewBox="0 -800 1024 1024">
	<path fill="#000000" d="M262 -519Q248 -477 209 -461Q170 -448 125 -458Q86 -466 59 -487V-544H72Q81 -509 114 -497Q161 -479 173 -516L246 -747Q252 -764 224 -769V-781H362V-769Q342 -766 335 -749ZM258 31Q256 58 286 62V75H142V62Q171 58 170 31V-357Q171 -388 142 -388V-401H286V-388Q257 -384 258 -357ZM781 -434Q819 -436 821 -476V-686Q820 -724 781 -725H507V-434ZM475 13Q469 56 437 74Q405 92 360 70Q332 59 316 31V-18H328Q335 14 357 29Q388 43 394 10L429 -261Q431 -278 408 -280V-293H534V-280Q512 -278 511 -261L489 -95L631 15L639 21V-402H390V-414Q415 -420 418 -445V-716Q417 -738 392 -745V-757H813Q871 -757 892 -734Q910 -715 910 -675V-489Q910 -447 891 -426Q869 -402 814 -402H726V-206H892Q911 -208 912 -224H925V-155H912Q908 -173 892 -174H726V30H917Q935 29 936 12H949V81H936Q933 63 917 62H684Q632 64 604 39L483 -52Z"/>
</svg>