<svg xmlns="http://www.w3.org/2000/svg" viewBox="0 -800 1024 1024">
	<path fill="#000000" d="M502 -411Q507 -392 526 -390V-377H411V-390Q433 -393 428 -411L376 -650Q372 -668 354 -669V-682H469V-669Q448 -663 450 -650ZM852 -649Q856 -663 834 -669V-682H948V-669Q931 -666 927 -649L875 -411Q869 -393 892 -390V-377H777V-390Q795 -392 800 -411ZM219 -747Q223 -764 197 -769V-781H337V-769Q317 -766 311 -750L253 -528Q242 -485 206 -466Q171 -446 122 -455Q86 -462 59 -487V-547H72Q74 -510 107 -492Q145 -480 158 -516ZM262 31Q260 58 290 62V75H146V62Q175 58 174 31V-357Q174 -387 146 -388V-401H290V-388Q261 -384 262 -357ZM607 -738Q608 -768 581 -769V-781H722V-769Q695 -765 696 -738V-358Q696 -334 693 -313H767V-300Q745 -295 751 -280L865 22Q881 56 911 32Q929 15 936 -17H949V37Q931 63 903 75Q863 93 828 75Q794 61 780 24L672 -259L525 28Q507 63 481 73Q443 93 395 75Q363 61 345 36V-18H358Q366 21 393 36Q420 49 433 25L596 -293Q608 -316 607 -357Z"/>
</svg>