<svg xmlns="http://www.w3.org/2000/svg" viewBox="0 -800 1024 1024">
	<path fill="#000000" d="M259 -434Q242 -406 209 -390Q178 -377 139 -382Q86 -389 58 -419V-482H72Q82 -438 117 -424Q146 -420 162 -443L344 -749Q351 -763 321 -769V-781H485V-769Q459 -763 448 -749L371 -621H682Q734 -621 751 -593Q768 -563 742 -524L558 -253H681V-240Q655 -237 660 -221L821 17Q843 48 877 43Q898 40 916 21Q927 9 936 -20H949V42Q919 75 855 82Q811 87 776 71Q743 56 725 26L557 -221Q556 -222 555 -223Q549 -230 544 -232L378 13Q348 56 306 70Q270 86 203 84Q108 79 58 42V-20H71Q83 9 109 27Q142 47 187 48Q246 49 281 -5L654 -554Q670 -582 634 -585H349Z"/>
</svg>