<svg xmlns="http://www.w3.org/2000/svg" viewBox="0 -800 1024 1024">
	<path fill="#000000" d="M592 -298Q593 -307 593 -318V-503H440V-298ZM796 -298Q834 -300 836 -339V-466Q835 -502 798 -503H679V-322Q679 -310 678 -298ZM237 -519Q224 -479 188 -462Q151 -447 113 -458Q77 -469 59 -487V-544H72Q75 -511 100 -494Q136 -479 149 -516L213 -747Q219 -764 191 -769V-781H328V-769Q308 -766 301 -749ZM241 31Q239 58 269 62V75H129V62Q158 58 157 31V-357Q158 -388 129 -388V-401H269V-388Q240 -384 241 -357ZM593 -737Q594 -767 565 -769V-781H707V-769Q679 -765 679 -737V-681H915Q933 -683 936 -699H949V-630H936Q933 -648 915 -648H679V-537H823Q879 -537 901 -515Q920 -497 919 -459V-351Q919 -310 900 -290Q878 -265 825 -265H673Q670 -254 664 -244L625 -175H701Q745 -176 762 -165Q786 -152 796 -123L850 20Q866 53 904 38Q931 24 936 -7H949V45Q936 62 899 75Q853 89 813 78Q777 67 764 29L708 -117Q700 -142 669 -140H606L517 20Q495 59 469 73Q435 92 384 78Q345 69 318 44V-11H330Q336 17 369 37Q406 53 429 16L515 -140H369Q352 -139 348 -124H336V-193H348Q352 -175 369 -175H535L580 -257L584 -265H333V-278Q357 -281 357 -302V-500Q357 -520 333 -523V-537H593V-648H364Q347 -647 343 -630H331V-699H343Q347 -681 364 -681H593Z"/>
</svg>