<svg xmlns="http://www.w3.org/2000/svg" viewBox="0 -800 1024 1024">
	<path fill="#000000" d="M254 -519Q241 -478 206 -461Q170 -448 126 -458Q87 -468 59 -487V-544H72Q79 -511 110 -496Q153 -478 165 -516L229 -747Q234 -765 208 -769V-781H345V-769Q325 -766 318 -749ZM259 31Q257 58 287 62V75H144V62Q173 58 172 31V-357Q173 -388 144 -388V-401H287V-388Q258 -384 259 -357ZM899 -403Q917 -405 920 -422H933V-352H920Q915 -371 899 -371H799L838 -1Q846 50 886 29Q931 2 935 -45H948V20Q925 50 886 71Q830 98 790 71Q758 47 753 -5L714 -371H474V-1Q475 36 513 20Q558 -3 598 -39L577 -172Q574 -185 556 -189V-202H657V-189Q639 -184 641 -172L676 44Q679 59 699 62V75H594V62Q613 58 612 44L604 -4Q560 38 509 66Q467 86 434 83Q387 74 387 6V-668Q387 -696 363 -700V-713H741Q776 -713 790 -731L806 -753Q813 -765 790 -769V-781H936V-769Q918 -765 909 -754L882 -717Q867 -698 843 -688Q827 -681 789 -681H474V-403H710L690 -593Q687 -612 661 -617V-630H798V-617Q773 -610 776 -593L796 -403Z"/>
</svg>