<svg xmlns="http://www.w3.org/2000/svg" viewBox="0 -800 1024 1024">
	<path fill="#000000" d="M658 -254H803V-241Q777 -238 780 -221L847 -42Q859 -9 899 -20Q934 -33 936 -65H949V-13Q929 9 885 17Q848 25 813 14Q774 1 761 -33L689 -222Q683 -239 658 -241ZM58 -65H71Q75 -32 108 -20Q148 -9 160 -42L227 -221Q230 -239 204 -241V-254H349V-241Q324 -239 318 -222L246 -33Q233 1 194 14Q159 25 122 17Q80 9 58 -13ZM84 -333V-346Q110 -350 120 -372L231 -635H107Q92 -633 87 -616H74V-687H87Q91 -667 107 -668H245L278 -744Q282 -764 257 -769V-781H406V-769Q382 -762 372 -744L339 -668H900Q917 -670 920 -687H933V-616H920Q915 -634 900 -635H325L211 -366H458V-500Q458 -529 430 -532V-545H576V-532Q548 -526 548 -500V-366H869Q886 -367 890 -385H902V-314H890Q886 -332 869 -333H548V-17Q548 34 518 59Q487 85 433 84Q357 80 305 48V-5H318Q347 47 404 49Q458 50 458 -4V-333Z"/>
</svg>