<svg xmlns="http://www.w3.org/2000/svg" viewBox="0 -800 1024 1024">
	<path fill="#000000" d="M242 -414Q245 -430 219 -435V-448H363V-435Q336 -429 333 -414L239 5Q229 46 191 69Q156 90 109 79Q78 72 59 52V1H71Q78 38 107 45Q136 46 146 15ZM322 -314H444V-301Q424 -298 427 -283L482 -68Q489 -51 507 -48V-36H384V-48Q405 -50 403 -68L348 -279Q344 -297 322 -301ZM625 -5Q612 45 567 69Q529 88 468 80Q416 73 395 52V-6H408Q412 39 467 48Q519 49 536 -9L633 -414Q637 -430 610 -435V-448H755V-435Q729 -429 724 -414ZM733 -278Q730 -296 705 -300V-313H830V-300Q807 -297 812 -278L869 9Q879 49 909 41Q933 30 936 -8H949V49Q933 69 908 77Q872 89 838 77Q801 62 794 24ZM626 -757Q667 -757 689 -747Q704 -741 729 -712L896 -518Q920 -491 949 -486V-473H774V-486Q805 -491 797 -509L635 -699Q613 -726 572 -725H388L203 -509Q194 -494 226 -486V-473H58V-486Q80 -489 105 -518L279 -721Q286 -737 255 -745V-757Z"/>
</svg>