<svg xmlns="http://www.w3.org/2000/svg" viewBox="0 -800 1024 1024">
	<path fill="#000000" d="M750 -464Q795 -465 796 -506V-612Q797 -653 750 -652H548V-464ZM210 -652V-464H458V-652ZM776 -98Q822 -99 823 -140V-255Q824 -295 776 -294H548V-98ZM184 -294V-98H458V-294ZM548 31Q546 56 576 62V75H430V62Q458 58 458 31V-64H66V-77Q93 -82 94 -104V-291Q93 -310 66 -316V-328H458V-430H92V-443Q118 -448 120 -472V-648Q120 -667 92 -673V-686H458V-737Q459 -767 430 -769V-781H576V-769Q549 -765 548 -737V-686H783Q832 -686 857 -668Q886 -647 886 -601V-519Q886 -472 858 -450Q832 -430 783 -430H548V-328H810Q861 -328 883 -311Q912 -290 912 -243V-153Q912 -106 884 -84Q857 -63 810 -64H548Z"/>
</svg>