<svg xmlns="http://www.w3.org/2000/svg" viewBox="0 -800 1024 1024">
	<path fill="#000000" d="M126 -687Q110 -685 106 -668H93V-738H106Q109 -719 126 -719H764Q782 -719 788 -732L798 -752Q803 -766 782 -769V-781H931V-769Q908 -765 902 -752L887 -722Q875 -700 858 -693Q844 -687 811 -687H551V-513H855Q872 -514 875 -531H888V-460H875Q870 -478 855 -479H551V-301H915Q933 -303 936 -319H949V-248H936Q932 -266 915 -267H423L205 6Q191 32 219 36Q459 32 771 -2L674 -160Q663 -176 637 -180V-193H793V-180Q768 -174 773 -160L896 42Q907 58 934 62V75H775V62Q802 56 798 42L788 26Q490 66 174 75Q124 76 107 42Q94 7 124 -31L313 -267H92Q76 -266 71 -248H58V-319H71Q76 -301 92 -301H456V-479H152Q137 -477 132 -460H119V-531H132Q137 -512 152 -513H456V-687Z"/>
</svg>