<svg xmlns="http://www.w3.org/2000/svg" viewBox="0 -800 1024 1024">
	<path fill="#000000" d="M587 -639L533 -513H763L709 -639ZM258 -519Q247 -479 210 -462Q178 -449 131 -458Q84 -471 59 -487V-544H72Q75 -510 119 -493Q155 -482 168 -516L230 -747Q236 -764 208 -769V-781H348V-769Q328 -766 321 -749ZM261 31Q259 58 289 62V75H146V62Q175 58 174 31V-357Q175 -388 146 -388V-401H289V-388Q260 -384 261 -357ZM404 -159V-171Q422 -173 434 -196L485 -312H396Q380 -310 376 -293H363V-364H376Q379 -345 396 -345H899Q917 -347 919 -364H932V-293H919Q915 -311 899 -312H580L527 -191H789Q837 -191 860 -174Q884 -155 884 -116V-21Q884 27 852 52Q825 77 758 82Q687 85 624 79Q537 71 468 39V-18H481Q503 30 592 44Q657 55 727 48Q795 42 794 -12V-120Q794 -159 752 -159ZM899 -671Q917 -673 919 -690H932V-620H919Q916 -638 899 -639H800L875 -462Q894 -425 921 -447Q932 -458 936 -490H949V-435Q929 -412 901 -402Q860 -389 825 -410Q798 -430 785 -463L778 -479H519L511 -460Q494 -421 461 -406Q422 -390 384 -405Q359 -416 345 -435V-490H358Q360 -461 373 -447Q400 -424 419 -462L495 -639H396Q380 -638 375 -620H363V-690H375Q380 -671 396 -671H508L541 -747Q547 -764 522 -769V-781H662V-769Q643 -765 634 -747L601 -671Z"/>
</svg>