<svg xmlns="http://www.w3.org/2000/svg" viewBox="0 -800 1024 1024">
	<path fill="#000000" d="M915 32Q933 30 936 13H949V83H936Q932 65 915 64H92Q76 65 71 83H58V13H71Q76 32 92 32ZM172 -177H255Q288 -178 289 -210V-524Q288 -552 255 -553H172ZM883 -113Q898 -92 916 -104Q932 -118 936 -143H949V-88Q935 -68 905 -61Q881 -54 858 -63Q831 -71 819 -92L780 -147L746 -96Q729 -72 705 -64Q681 -56 654 -61Q625 -67 603 -88V-143H615Q619 -117 640 -103Q661 -91 676 -113L739 -207L660 -323Q640 -352 640 -388V-439Q638 -454 617 -457V-470H736V-457Q715 -454 714 -439V-387Q713 -359 725 -345L779 -265L835 -348Q847 -362 846 -390V-499Q846 -525 816 -525H664Q648 -524 643 -506H631V-577H643Q648 -558 664 -558H841Q876 -558 897 -545Q920 -529 920 -492V-394Q921 -355 900 -324L820 -205ZM829 -757Q875 -756 884 -725Q889 -692 851 -674L567 -569Q546 -560 545 -530V-135Q545 -82 513 -53Q484 -27 417 -26Q309 -26 229 -60V-116H242Q252 -92 287 -77Q340 -59 401 -61Q458 -66 457 -121V-537Q457 -567 470 -587Q484 -611 511 -619L753 -709Q760 -711 759 -718Q757 -725 750 -725H150Q136 -724 130 -706H117V-776H130Q134 -757 150 -757ZM99 -550Q98 -570 71 -573V-585H281Q320 -585 340 -569Q362 -553 362 -518V-216Q362 -181 343 -163Q323 -144 281 -144H71V-157Q98 -160 99 -179Z"/>
</svg>