<svg xmlns="http://www.w3.org/2000/svg" viewBox="0 -800 1024 1024">
	<path fill="#000000" d="M700 -579H838V-566Q813 -563 822 -545L883 -427Q894 -406 915 -416Q934 -429 936 -454H948V-401Q930 -386 905 -380Q874 -371 845 -378Q810 -388 794 -420L730 -545Q720 -565 700 -566ZM349 -454H363Q364 -432 376 -420Q401 -404 415 -427L475 -545Q485 -563 459 -566V-579H597V-566Q578 -565 568 -545L503 -420Q488 -389 456 -379Q429 -371 395 -379Q370 -385 349 -401ZM899 -665Q917 -667 920 -684H933V-613H920Q916 -631 899 -632H399Q383 -631 378 -613H364V-684H378Q383 -665 399 -665H604V-738Q605 -766 574 -769V-781H723V-769Q694 -765 694 -738V-665ZM256 -519Q244 -480 205 -462Q173 -449 129 -458Q96 -464 59 -487V-544H72Q74 -516 115 -495Q152 -480 165 -516L231 -747Q237 -764 209 -769V-781H348V-769Q329 -767 322 -749ZM259 31Q257 58 287 62V75H145V62Q174 58 173 31V-357Q174 -388 145 -388V-401H287V-388Q258 -384 259 -357ZM430 -310Q414 -327 394 -330V-343H553V-330Q527 -323 536 -310L648 -194L760 -310Q769 -323 743 -330V-343H902V-330Q882 -327 866 -310L701 -139L855 21Q881 48 906 41Q934 31 936 -7H949V55Q926 71 902 78Q864 87 826 77Q796 69 769 42L647 -84L526 42Q500 69 467 78Q434 88 394 78Q364 69 346 55V-7H359Q365 31 389 40Q413 48 440 22L595 -138Z"/>
</svg>