<svg xmlns="http://www.w3.org/2000/svg" viewBox="0 -800 1024 1024">
	<path fill="#000000" d="M271 31Q269 58 299 62V75H156V62Q185 58 184 31V-357Q184 -387 156 -388V-401H299V-388Q270 -384 271 -357ZM252 -519Q239 -483 205 -464Q172 -448 125 -458Q85 -466 59 -487V-540H72Q75 -503 108 -495Q151 -487 164 -516L248 -747Q253 -764 226 -769V-781H362V-769Q343 -766 336 -750ZM795 -445Q846 -445 866 -422Q883 -404 883 -365V-211Q883 -152 833 -123Q788 -98 727 -108Q679 -116 631 -147V-200H644Q664 -153 720 -143Q789 -140 794 -201V-374Q793 -411 758 -412H510V-40Q510 37 616 49Q709 55 814 32Q924 5 936 -52H948V8Q903 43 802 64Q713 82 600 82Q509 81 470 55Q420 23 420 -49V-406Q419 -427 394 -432V-445ZM741 -757Q781 -757 802 -744Q821 -735 835 -700L920 -521Q927 -499 949 -497V-484H805V-497Q835 -502 828 -520L745 -695Q729 -725 698 -725H570L474 -521Q467 -501 498 -497V-484H350V-497Q373 -499 382 -521L476 -719Q484 -739 454 -745V-757Z"/>
</svg>