<svg xmlns="http://www.w3.org/2000/svg" viewBox="0 -800 1024 1024">
	<path fill="#000000" d="M264 31Q262 58 291 62V75H147V62Q176 58 175 31V-357Q176 -388 147 -388V-401H292V-388Q263 -384 264 -357ZM455 -370Q456 -393 427 -397V-410H571V-397Q543 -395 543 -370L531 4Q529 47 502 68Q473 89 422 83Q379 79 344 44V-15H357Q368 29 407 42Q440 47 443 17ZM258 -519Q245 -477 209 -462Q180 -450 139 -453Q88 -461 58 -487V-540H71Q76 -504 117 -492Q155 -485 167 -516L240 -749Q245 -768 219 -769V-781H361V-769Q339 -766 330 -750ZM850 31Q848 57 878 61V75H734V61Q763 58 762 31V-368Q761 -392 734 -397V-410H878V-397Q851 -393 850 -368ZM748 -757Q787 -757 808 -745Q831 -732 843 -701L921 -488Q927 -467 949 -464V-451H808V-464Q837 -468 830 -487L754 -697Q742 -724 712 -725H551L464 -488Q459 -468 486 -464V-451H343V-464Q364 -469 372 -487L457 -719Q464 -740 436 -745V-757Z"/>
</svg>