<svg xmlns="http://www.w3.org/2000/svg" viewBox="0 -800 1024 1024">
	<path fill="#000000" d="M244 -519Q233 -479 195 -462Q159 -449 122 -457Q82 -466 59 -487V-544H72Q74 -516 106 -497Q142 -478 156 -516L218 -747Q223 -765 196 -769V-781H332V-769Q312 -766 305 -749ZM376 -203H521V-190Q493 -187 493 -158V-1Q495 47 560 42Q646 31 657 -22H670V39Q635 63 576 76Q501 90 456 76Q404 56 404 -13V-158Q405 -186 376 -190ZM246 31Q244 58 274 62V75H132V62Q161 58 160 31V-357Q161 -388 132 -388V-401H274V-388Q245 -384 246 -357ZM591 -555Q605 -578 604 -618V-642H448V-522Q448 -499 471 -497V-484H342V-497Q365 -499 366 -522V-638Q366 -658 343 -662V-675H604V-737Q605 -769 576 -769V-781H717V-769Q688 -765 689 -737V-675H856Q895 -675 910 -657Q927 -640 927 -611V-522Q927 -498 948 -497V-484H822V-497Q846 -503 845 -522V-613Q846 -643 814 -642H689V-617Q690 -565 675 -542L610 -438H705V-425Q682 -423 686 -408L753 -244H793Q822 -243 827 -268L848 -401Q848 -420 829 -424V-436H940V-424Q923 -420 918 -401L898 -272Q894 -240 874 -225Q858 -210 812 -211H766L857 10Q876 52 909 29Q933 13 936 -22H949V40Q928 64 896 75Q855 91 820 75Q790 61 775 24L598 -408L595 -413L524 -301Q502 -263 476 -249Q436 -229 389 -242Q359 -249 328 -278V-339H341Q350 -305 375 -287Q411 -268 437 -307Z"/>
</svg>