<svg xmlns="http://www.w3.org/2000/svg" viewBox="0 -800 1024 1024">
	<path fill="#000000" d="M395 30Q352 61 311 71Q266 85 200 83Q113 80 58 57V-2H71Q89 46 171 48Q233 49 287 14L718 -301Q730 -314 701 -322V-334H899V-322Q871 -317 851 -302L619 -133H733V-120Q706 -115 716 -97L807 21Q830 50 869 46Q922 40 936 -2H949V57Q910 81 841 84Q793 84 766 73Q736 61 713 32L613 -98Q605 -107 593 -114ZM184 -374Q139 -375 125 -405Q113 -440 148 -468L378 -639H108Q92 -637 88 -620H75V-691H88Q92 -672 108 -672H456V-741Q457 -765 428 -769V-781H579V-769Q552 -767 551 -741V-672H899Q917 -674 919 -691H932V-620H919Q915 -638 899 -639H502L234 -438Q226 -432 228 -425Q230 -418 240 -418Q382 -417 515 -429L667 -539Q677 -551 650 -560V-573H847V-560Q824 -556 799 -540L392 -243Q351 -213 310 -202Q268 -188 197 -190Q116 -192 58 -216V-276H71Q89 -227 169 -225Q234 -224 284 -261L464 -392Q331 -376 184 -374Z"/>
</svg>