<svg xmlns="http://www.w3.org/2000/svg" viewBox="0 -800 1024 1024">
	<path fill="#000000" d="M227 40Q207 66 174 77Q144 87 107 79Q82 74 58 57V6H71Q79 38 100 43Q127 49 148 23L400 -293Q409 -308 384 -313V-326H528V-313Q508 -311 494 -294L373 -143H446V-131Q424 -128 430 -108L467 31Q470 43 477 43Q485 43 492 32Q500 19 501 6H514V56Q500 73 483 79Q454 89 429 79Q400 67 394 42L355 -107Q354 -112 351 -115ZM87 -414Q67 -450 101 -492L223 -636H96Q80 -634 76 -617H63V-688H76Q79 -669 96 -669H261V-744Q261 -766 234 -769V-781H369V-769Q342 -765 342 -744V-669H510Q527 -671 530 -688H543V-617H530Q525 -636 510 -636H316L167 -462Q156 -448 158 -438Q161 -428 176 -429Q220 -430 301 -441L364 -520Q373 -536 348 -542V-554H492V-542Q474 -539 458 -521L213 -215Q192 -189 166 -178Q138 -168 105 -174Q79 -179 58 -194V-250H71Q78 -218 96 -212Q113 -208 131 -229L272 -405Q215 -394 152 -389Q105 -386 87 -414ZM640 -737Q641 -766 612 -769V-781H750V-769Q723 -765 722 -737L718 -573H823Q886 -573 911 -545Q932 -521 932 -480V-3Q932 41 904 64Q878 87 830 82Q789 80 749 49V-9H762Q768 31 807 40Q851 44 853 1V-491Q852 -539 802 -540H717L706 3Q704 50 675 69Q642 92 598 79Q566 70 543 44V-11H556Q564 30 591 38Q621 40 624 1L635 -540H588Q572 -539 568 -521H555V-592H568Q571 -575 588 -573H636Z"/>
</svg>