<svg xmlns="http://www.w3.org/2000/svg" viewBox="0 -800 1024 1024">
	<path fill="#000000" d="M268 -493Q275 -472 303 -468V-455H161V-468Q189 -471 179 -493L95 -743Q86 -766 59 -769V-781H203V-769Q175 -764 183 -743ZM190 -316Q193 -334 168 -340V-353H305V-340Q280 -333 277 -316L221 15Q215 46 188 68Q163 86 122 83Q83 78 58 49V-10H71Q77 32 98 42Q125 49 134 17ZM452 -190H733L782 -472Q787 -501 758 -501H509ZM915 32Q932 30 936 11H949V83H936Q932 65 915 64H318Q302 65 297 83H285V11H297Q301 32 318 32H694L727 -157H332V-170Q360 -177 365 -203L459 -725H344Q328 -724 323 -706H310V-776H323Q327 -757 344 -757H898Q916 -759 919 -776H931V-706H919Q915 -724 898 -725H550L515 -533H794Q838 -533 856 -516Q878 -497 871 -456L786 32Z"/>
</svg>