<svg xmlns="http://www.w3.org/2000/svg" viewBox="0 -800 1024 1024">
	<path fill="#000000" d="M412 -659H545V-646Q519 -642 529 -624L565 -544Q573 -526 600 -521V-508H461V-521Q488 -523 479 -544L443 -624Q436 -642 412 -647ZM134 -659H271V-646Q245 -642 255 -624L302 -544Q311 -526 338 -521V-508H198V-521Q226 -523 216 -544L169 -624Q159 -641 134 -647ZM680 -521Q707 -526 717 -544L764 -623Q774 -641 747 -646V-659H885V-647Q860 -641 850 -624L803 -544Q792 -524 821 -521V-508H680ZM129 -691Q113 -689 108 -672H95V-743H108Q112 -724 129 -724H766Q782 -724 787 -732L798 -752Q804 -766 784 -769V-781H925V-769Q906 -766 900 -752L882 -721Q873 -703 858 -697Q846 -691 811 -691ZM849 -473Q885 -473 906 -459Q925 -446 925 -413V-381Q924 -359 949 -355V-342H813V-355Q837 -359 836 -381V-410Q835 -439 804 -440H172V-380Q171 -360 197 -355V-342H59V-355Q83 -357 82 -380V-436Q83 -456 59 -460V-473ZM821 -310Q863 -309 872 -278Q879 -243 836 -218L585 -85L795 27Q849 52 893 34Q928 21 935 -19H949V34Q931 57 898 69Q862 82 814 82Q757 83 720 64L514 -47L301 65Q263 84 199 83Q155 83 114 69Q77 56 58 32V-19H71Q83 29 129 39Q174 48 223 24L437 -89L210 -212Q179 -230 157 -228V-241H371V-229Q337 -224 349 -212L508 -126L771 -265Q776 -268 776 -273Q775 -278 769 -278H169Q154 -277 150 -259H137V-329H150Q152 -312 170 -310Z"/>
</svg>