<svg xmlns="http://www.w3.org/2000/svg" viewBox="0 -800 1024 1024">
	<path fill="#000000" d="M916 -757Q934 -758 936 -776H949V-706H936Q930 -725 916 -725H178V32H915Q933 30 936 13H949V83H935Q933 65 915 64H65V51Q87 49 88 27V-720Q88 -740 65 -745V-757ZM433 -89Q433 -51 410 -28Q381 -3 337 -6Q290 -10 256 -43V-99H269Q273 -63 304 -51Q342 -38 344 -80V-559Q344 -585 318 -589V-602H740Q777 -601 787 -619L807 -655Q812 -666 789 -668V-681H933V-668Q913 -666 907 -656L880 -606Q869 -587 845 -577Q820 -568 780 -569H433V-380H906Q925 -382 926 -399H939V-328H926Q923 -346 906 -347H750V-59Q749 -32 778 -27V-14H633V-27Q662 -31 661 -59V-347H433Z"/>
</svg>