<svg xmlns="http://www.w3.org/2000/svg" viewBox="0 -800 1024 1024">
	<path fill="#000000" d="M755 -249H546V-177H789V-217Q789 -250 755 -249ZM218 -249V-177H461V-249ZM755 -75Q787 -77 789 -109V-148H546V-75ZM788 82Q727 79 686 54L610 7Q596 -2 572 -5V-18H750V-5Q726 -2 735 7L772 31Q796 43 833 48Q866 53 899 40Q930 28 936 2H949V52Q925 69 891 76Q839 86 788 82ZM435 -18V-5Q411 -2 397 7L321 54Q280 79 219 82Q165 87 112 75Q79 66 58 52V2H71Q77 28 109 40Q141 53 174 48Q211 43 235 31L272 7Q281 -2 257 -5V-18ZM218 -148V-75H461V-148ZM860 -460Q890 -460 905 -451Q925 -438 925 -411V-364Q924 -344 949 -341V-329H815V-341Q840 -341 839 -363V-410Q839 -430 814 -430H169V-364Q167 -345 192 -341V-329H59V-341Q84 -341 82 -364V-423Q83 -444 59 -447V-460H459V-472Q460 -496 435 -498V-510H573V-498Q548 -496 549 -472V-460ZM304 -693Q268 -678 214 -678Q166 -678 131 -690Q102 -700 81 -725V-765H94Q108 -727 146 -715Q188 -703 231 -723L306 -757Q316 -765 290 -769V-781H480V-769Q478 -769 475 -768Q454 -764 446 -760L405 -741H831Q873 -739 883 -708Q887 -673 850 -658L514 -543Q427 -513 300 -514Q213 -514 143 -533Q85 -552 58 -576V-635H71Q85 -590 139 -570Q193 -551 267 -552Q352 -553 410 -572L464 -590H376Q350 -590 332 -596Q319 -601 299 -615L250 -646Q236 -656 222 -657V-670H370V-657Q351 -656 358 -649L388 -630Q405 -619 427 -619H551L758 -688Q777 -695 777 -702Q775 -710 755 -710H340ZM793 -279Q836 -279 854 -262Q874 -245 874 -210V-113Q874 -82 853 -64Q831 -46 795 -45H107V-58Q132 -61 133 -85V-241Q132 -262 107 -266V-279H461V-338H253Q237 -336 233 -319H220V-388H233Q236 -369 253 -369H755Q772 -371 775 -388H788V-319H775Q770 -337 755 -338H546V-279Z"/>
</svg>