<svg xmlns="http://www.w3.org/2000/svg" viewBox="0 -800 1024 1024">
	<path fill="#000000" d="M535 -224Q523 -237 501 -240V-252H660V-240Q634 -236 643 -223L816 10Q849 51 889 29Q924 13 936 -40H949V24Q923 59 899 70Q843 94 790 77Q750 66 710 15ZM71 -517H83Q93 -477 122 -467Q156 -457 164 -486L206 -692Q209 -707 183 -714V-727H319V-714Q296 -708 295 -695L279 -618H457V-737Q458 -769 429 -769V-781H578V-769Q549 -766 550 -737V-618H872Q889 -620 892 -637H905V-566H892Q888 -584 872 -585H550V-362H904Q921 -364 924 -381H937V-310H924Q920 -328 904 -329H544Q541 -313 533 -304L294 19Q257 66 205 79Q148 93 104 68Q78 53 58 24V-40H71Q84 9 117 28Q157 52 192 9L436 -319Q437 -320 438 -322Q442 -326 443 -329H104Q88 -328 83 -310H70V-381H83Q88 -362 104 -362H456Q457 -365 457 -369V-585H272L251 -479Q242 -442 192 -426Q158 -416 117 -429Q86 -439 71 -463Z"/>
</svg>