<svg xmlns="http://www.w3.org/2000/svg" viewBox="0 -800 1024 1024">
	<path fill="#000000" d="M59 -6H72Q79 29 104 42Q134 52 138 14L148 -174Q149 -192 129 -197V-210H252V-197Q227 -194 227 -173L216 19Q213 56 174 76Q139 91 101 76Q77 67 59 45ZM512 -6H525Q532 29 557 42Q589 52 594 14L604 -174Q605 -192 585 -197V-210H708V-197Q683 -194 683 -173L672 19Q669 56 630 76Q594 91 554 76Q527 66 512 45ZM175 -287H346Q383 -289 385 -328V-451Q384 -489 346 -490H175ZM631 -287H802Q839 -289 841 -328V-451Q840 -489 802 -490H631ZM671 -781H811V-769Q783 -763 781 -737L776 -675H907Q924 -677 927 -694H940V-623H927Q921 -642 907 -642H773L763 -522H828Q884 -522 903 -499Q921 -480 921 -440V-342Q921 -300 902 -279Q882 -258 846 -255V-5Q850 54 895 41Q930 27 936 -12H949V42Q918 79 869 83Q825 86 800 70Q766 47 766 -11V-254H528V-267Q551 -271 552 -294V-484Q551 -505 528 -510V-522H678L688 -642H554Q538 -640 534 -623H521V-694H534Q537 -675 554 -675H691L697 -737Q699 -768 671 -769ZM215 -781H355V-769Q327 -763 325 -737L320 -675H462Q480 -677 483 -694H496V-623H483Q478 -642 462 -642H317L307 -522H373Q429 -522 447 -499Q465 -480 465 -440V-342Q465 -300 446 -279Q426 -258 390 -255V-5Q394 54 441 41Q477 27 483 -12H496V42Q464 79 414 83Q370 86 344 70Q310 47 310 -11V-254H73V-267Q96 -270 96 -294V-484Q96 -506 73 -510V-522H222L232 -642H101Q85 -641 80 -623H67V-694H80Q85 -675 101 -675H235L241 -737Q243 -768 215 -769Z"/>
</svg>