<svg xmlns="http://www.w3.org/2000/svg" viewBox="0 -800 1024 1024">
	<path fill="#000000" d="M333 -556Q351 -569 351 -586V-665H212V-586Q212 -570 229 -557L282 -515ZM864 -395Q892 -372 918 -387Q930 -394 936 -424H949V-374Q931 -356 910 -349Q887 -340 856 -345Q824 -350 797 -373L721 -438L660 -390Q639 -373 610 -367Q581 -361 552 -368Q529 -374 512 -391V-441H524Q529 -417 547 -407Q568 -397 592 -413L675 -478L589 -553Q562 -575 562 -610V-657Q560 -673 540 -674V-687H661V-674Q641 -673 639 -657V-608Q640 -591 651 -580L723 -517L802 -579Q816 -589 815 -611V-703Q814 -724 791 -725H566Q549 -724 545 -707H532V-775H545Q549 -757 566 -757H818Q861 -757 878 -741Q892 -726 892 -697V-610Q890 -573 864 -551L770 -476ZM166 -527Q133 -549 134 -587V-665H105Q89 -664 84 -646H72V-716H84Q88 -697 105 -697H134V-747Q134 -768 110 -769V-781H235V-769Q211 -767 212 -747V-697H351V-747Q352 -767 327 -769V-781H452V-769Q429 -768 429 -747V-697H455Q473 -699 475 -716H488V-646H475Q472 -664 455 -665H429V-587Q430 -553 397 -527L333 -476L416 -413Q438 -396 456 -406Q469 -413 474 -440H487V-388Q472 -375 453 -366Q425 -358 406 -361Q381 -363 361 -378L284 -437L197 -367Q173 -350 146 -345Q126 -341 105 -344Q79 -348 58 -368V-420H71Q77 -388 97 -383Q112 -378 130 -393L233 -476ZM549 31Q547 58 577 62V75H430V62Q460 58 459 31V-244H217V-12Q218 9 243 11V24H103V11Q128 8 129 -12V-241Q129 -256 103 -264V-277H459V-294Q460 -324 430 -325V-338H577V-325Q549 -322 549 -294V-277H784Q834 -277 856 -258Q878 -240 878 -200V-54Q878 -2 833 20Q797 37 738 28Q695 22 661 1V-55H674Q682 -14 729 -7Q787 -5 790 -52V-209Q789 -243 750 -244H549Z"/>
</svg>