<svg xmlns="http://www.w3.org/2000/svg" viewBox="0 -800 1024 1024">
	<path fill="#000000" d="M259 -173H459V-194Q460 -225 432 -225V-238H575V-225Q547 -221 548 -194V-173H747L624 -290H386ZM864 -757Q899 -757 911 -746Q925 -737 925 -713V-694Q923 -677 949 -674V-661H815V-674Q841 -674 839 -694V-709Q838 -725 817 -726H168V-696Q166 -678 193 -674V-661H59V-674Q84 -674 82 -696V-720Q83 -741 59 -745V-757ZM233 -607V-531H774V-578Q775 -608 739 -607ZM738 -420Q773 -422 774 -451V-500H233V-420ZM898 -323Q916 -325 919 -342H932V-271H919Q914 -290 898 -290H732L835 -191Q857 -173 896 -173Q930 -175 936 -210H949V-162Q928 -146 896 -142Q871 -138 837 -141Q846 -126 846 -102V-43Q846 6 806 26Q773 41 732 37Q674 34 636 12V-39H648Q659 -8 695 4Q757 15 760 -34V-106Q759 -139 721 -141H548V31Q547 57 577 62V75H431V62Q460 58 459 31V-141H254V0Q256 20 280 23V35H142V23Q167 20 168 0V-140Q145 -137 119 -141Q79 -148 59 -162V-210H72Q76 -182 104 -175Q143 -169 171 -191L278 -290H109Q93 -289 88 -271H75V-342H88Q93 -323 109 -323H314L385 -388H120V-401Q145 -406 146 -427V-602Q145 -623 120 -627V-640H786Q824 -640 842 -627Q861 -610 861 -579V-449Q861 -416 838 -401Q820 -388 786 -388H493L422 -323Z"/>
</svg>