<svg xmlns="http://www.w3.org/2000/svg" viewBox="0 -800 1024 1024">
	<path fill="#000000" d="M399 -618H332V-551H424V-598Q425 -619 399 -618ZM166 -618V-551H258V-618ZM399 -452Q424 -452 424 -474V-521H332V-452ZM166 -452H258V-521H166ZM789 -757Q833 -757 849 -743Q866 -728 866 -694V-598Q869 -572 904 -578Q935 -585 936 -613H949V-570Q929 -553 896 -546Q859 -540 827 -551Q789 -565 789 -605V-704Q790 -728 762 -727H666V-605Q666 -566 630 -550Q599 -539 564 -545Q530 -552 514 -569V-606H527Q530 -580 563 -574Q587 -573 588 -598V-723Q588 -740 564 -745V-757ZM808 -366Q820 -374 820 -389V-451Q821 -469 800 -468H580Q563 -467 560 -453H547V-516H560Q564 -499 580 -500H827Q863 -500 879 -490Q897 -477 897 -450V-386Q898 -352 868 -336L791 -292L880 -242Q903 -230 921 -243Q934 -252 936 -275H949V-232Q931 -214 909 -207Q882 -198 844 -206Q819 -211 802 -221L733 -259L653 -214Q630 -201 604 -201Q574 -199 553 -209Q535 -217 522 -232V-275H535Q539 -248 557 -240Q573 -233 592 -244L676 -291L601 -334Q573 -346 575 -375V-405Q574 -419 553 -421V-433H675V-421Q654 -420 654 -406V-382Q655 -370 665 -364L734 -324ZM431 -173H577V-160Q550 -157 549 -131V-107H858Q875 -109 878 -126H891V-55H878Q874 -73 858 -74H549V32H915Q933 30 936 13H949V82H936Q932 64 915 63H92Q76 64 71 82H58V13H71Q75 32 92 32H459V-74H150Q134 -72 130 -55H117V-126H130Q134 -107 150 -107H459V-131Q459 -158 431 -160ZM258 -739Q259 -767 232 -769V-781H358V-769Q332 -764 332 -739V-726H495Q513 -727 516 -745H529V-677H516Q511 -696 495 -696H332V-648H418Q454 -648 471 -637Q490 -624 490 -594V-477Q490 -448 471 -434Q455 -423 418 -423H332V-374H491Q509 -375 512 -392H525V-327H512Q507 -345 491 -345H332V-228H406Q421 -229 422 -242V-282Q422 -296 404 -296V-309H506V-296Q489 -294 489 -281V-237Q489 -217 473 -208Q459 -200 429 -200H83V-212Q100 -214 99 -236V-281Q99 -296 83 -296V-309H182V-296Q167 -296 166 -282V-228H258V-345H93Q76 -343 73 -327H60V-392H72Q76 -374 93 -374H258V-423H77V-436Q99 -438 100 -461V-609Q100 -630 77 -635V-648H258V-696H93Q77 -695 72 -677H60V-745H72Q77 -726 93 -726H258Z"/>
</svg>