<svg xmlns="http://www.w3.org/2000/svg" viewBox="0 -800 1024 1024">
	<path fill="#000000" d="M796 -762H896V-749Q878 -744 880 -733L888 -697Q891 -684 911 -680V-667H809V-680Q827 -682 826 -697L817 -733Q814 -747 796 -749ZM577 -501Q595 -503 598 -520H611V-449H598Q593 -468 577 -468H281Q266 -466 261 -449H248V-520H261Q265 -500 281 -501ZM351 -32H480Q516 -33 517 -67V-298Q516 -333 480 -334H351ZM275 -330Q275 -350 251 -354V-367H499Q548 -367 570 -349Q592 -330 592 -289V-78Q592 -35 566 -17Q546 1 499 1H251V-12Q275 -16 275 -35ZM867 -471Q868 -491 847 -494V-507H951V-494Q928 -489 929 -473L907 -237Q902 -195 878 -177Q860 -159 801 -160H774L793 -16Q802 44 861 40Q926 29 936 -20H949V32Q927 62 879 76Q821 91 776 74Q717 50 709 -14L690 -160H647Q631 -159 626 -141H613V-212H626Q631 -193 647 -193H686L634 -604H202V3Q202 54 169 74Q138 90 100 77Q71 67 58 46V-11H71Q77 30 95 37Q115 44 117 14V-601Q116 -621 91 -627V-639H630L618 -736Q616 -768 591 -768V-781H727V-768Q699 -765 702 -736L714 -639H912Q930 -641 932 -658H945V-585H932Q929 -603 912 -604H719L770 -193H799Q843 -192 845 -227Z"/>
</svg>