<svg xmlns="http://www.w3.org/2000/svg" viewBox="0 -800 1024 1024">
	<path fill="#000000" d="M718 -757H838V-744Q820 -739 824 -729L847 -689Q856 -675 875 -671V-658H753V-671Q774 -676 769 -689L746 -729Q737 -741 718 -744ZM103 -386Q105 -400 86 -403V-415H173V-403Q156 -398 155 -386L128 -30Q127 -17 146 -13V0H58V-12Q77 -16 77 -29ZM402 -29Q401 -16 420 -12V0H330V-13Q348 -16 348 -30L321 -386Q320 -398 303 -403V-415H392V-403Q373 -401 375 -386ZM119 -670Q103 -669 98 -651H85V-721H98Q101 -702 118 -702H253Q271 -701 278 -714L297 -750Q303 -766 284 -769V-781H410V-769Q390 -765 384 -750L360 -705Q351 -687 333 -678Q318 -669 286 -670H277V-516H368Q386 -518 389 -535H402V-464H389Q385 -482 368 -483H277V37Q276 57 301 62V75H177V62Q203 59 201 37V-483H107Q91 -481 87 -464H74V-535H87Q90 -516 107 -516H201V-670ZM898 -625Q916 -627 919 -644H932V-573H919Q914 -592 898 -592H806V-402Q811 -338 886 -356Q928 -371 936 -411H949V-355Q914 -331 877 -323Q819 -309 772 -328Q723 -349 724 -416V-592H621L598 -387Q594 -350 562 -328Q531 -308 486 -314Q448 -321 424 -349V-407H437Q442 -372 470 -359Q507 -348 516 -387L539 -592H468Q453 -590 448 -573H435V-644H448Q452 -624 468 -625H543L557 -741Q554 -762 530 -769V-781H665V-769Q641 -764 638 -741L625 -625ZM433 75V62Q459 57 459 39V-204Q460 -225 433 -228V-241H551V-228Q527 -225 526 -204V42H645V-243Q646 -274 619 -275V-288H757V-275Q731 -272 731 -243V42H821Q850 43 850 13V-204Q850 -226 825 -228V-241H942V-228Q919 -224 918 -204V9Q918 43 898 60Q880 75 841 75Z"/>
</svg>