<svg xmlns="http://www.w3.org/2000/svg" viewBox="0 -800 1024 1024">
	<path fill="#000000" d="M769 -586Q786 -586 793 -603L815 -645Q822 -660 800 -663V-676H910V-663Q894 -663 888 -648L865 -603Q858 -587 882 -586V-573H769ZM394 -676H506V-663Q484 -659 491 -645L513 -603Q520 -587 538 -586V-573H423V-586Q448 -587 441 -603L418 -648Q411 -664 394 -663ZM578 -676H689V-663Q668 -660 675 -645L697 -603Q704 -586 721 -586V-573H607V-586Q631 -587 624 -603L601 -648Q594 -664 578 -663ZM549 -119Q579 -121 580 -148V-196H458V-119ZM458 -303V-225H580V-275Q579 -302 548 -303ZM682 -189H775V-176Q755 -172 758 -160L780 -61Q783 -48 804 -43V-30H712V-43Q731 -46 728 -61L706 -160Q703 -174 682 -176ZM814 -406Q846 -405 845 -436V-490Q845 -519 813 -519H757V-406ZM611 -519V-406H697V-519ZM463 -519V-406H550V-519ZM799 -732Q816 -732 825 -745L831 -754Q840 -767 820 -769V-781H947V-769Q931 -766 921 -751L908 -731Q896 -714 881 -708Q865 -701 834 -701H404Q389 -699 384 -682H371V-751H384Q387 -732 404 -732ZM826 -307Q825 -332 800 -334V-347H925V-334Q900 -329 899 -307V-266H915Q933 -268 936 -286H949V-216H935Q932 -234 915 -235H899V-4Q899 46 862 69Q821 93 769 77Q740 69 719 49V1H732Q744 43 785 49Q824 50 826 8V-235H716Q699 -233 696 -216H683V-286H696Q699 -266 716 -266H826ZM153 1H208Q245 -1 247 -38V-688Q246 -724 209 -725H153ZM536 -56H645V-43Q620 -39 627 -24L654 41Q655 43 656 46Q659 59 676 62V75H566V62Q594 60 587 42L581 29Q542 58 499 75Q446 91 414 71Q383 51 383 -2V-293Q381 -316 360 -320V-332H571Q614 -332 631 -317Q650 -303 650 -269V-157Q650 -122 629 -104Q611 -89 571 -89H458V-1Q457 51 505 35Q541 24 570 4L558 -25Q553 -42 536 -43ZM364 -375V-388Q387 -390 388 -411V-513Q387 -533 364 -535V-548H837Q879 -548 897 -537Q920 -523 920 -489V-435Q920 -402 900 -389Q880 -375 840 -375ZM83 -719Q83 -739 60 -745V-757H224Q278 -757 299 -735Q317 -715 317 -677V-52Q317 -8 295 11Q274 35 221 34H60V21Q83 17 83 -4Z"/>
</svg>