<svg xmlns="http://www.w3.org/2000/svg" viewBox="0 -800 1024 1024">
	<path fill="#000000" d="M605 -537Q587 -532 597 -521L603 -515ZM193 -539H366Q395 -540 395 -563V-590Q396 -615 366 -613H193ZM479 -725Q497 -726 500 -744H513V-674H500Q496 -692 479 -693H92Q76 -692 71 -674H58V-744H71Q76 -725 92 -725H251V-744Q251 -766 224 -769V-781H364V-769Q337 -765 338 -744V-725ZM755 -626H693L674 -445L793 -329L796 -326V-588Q796 -626 755 -626ZM414 -645Q446 -645 462 -635Q480 -623 479 -596V-558Q479 -538 465 -524Q451 -507 414 -507H87V-520Q109 -523 110 -543V-609Q111 -629 87 -632V-645ZM423 -458Q465 -457 473 -432Q478 -405 446 -385L395 -358L490 -362Q508 -364 510 -382H523V-311H510Q506 -329 490 -330L337 -323Q333 -315 333 -304V-273Q333 -233 300 -211Q259 -186 194 -194Q147 -201 124 -226V-279H137Q148 -231 203 -225Q247 -225 248 -260V-319L90 -312Q76 -311 71 -293H58V-364H71Q76 -343 90 -345L268 -352L277 -358L376 -413Q383 -417 382 -421Q381 -425 374 -425H108Q92 -424 89 -406H76V-477H89Q91 -458 108 -458ZM431 -198H577V-185Q550 -182 549 -156V-128H858Q875 -130 878 -147H891V-76H878Q874 -94 858 -95H549V32H915Q933 30 936 13H949V82H936Q932 64 915 63H92Q76 64 71 82H58V13H71Q75 32 92 32H459V-95H150Q134 -93 130 -76H117V-147H130Q134 -128 150 -128H459V-156Q459 -182 431 -185ZM626 -741Q629 -768 599 -769V-781H731V-769Q706 -767 705 -741L696 -659H784Q832 -659 854 -638Q877 -617 877 -576V-262Q877 -235 899 -238Q928 -247 936 -293H948V-237Q930 -211 902 -201Q859 -188 829 -204Q796 -223 796 -271V-301H726V-314Q743 -316 737 -325L669 -392L660 -306Q656 -263 620 -242Q583 -218 529 -227Q488 -234 465 -259V-306H477Q492 -263 540 -260Q578 -264 582 -302L598 -462L539 -521Q529 -534 510 -537V-550H607L614 -626H564Q549 -625 544 -607H531V-678H544Q549 -659 564 -659H618Z"/>
</svg>