<svg xmlns="http://www.w3.org/2000/svg" viewBox="0 -800 1024 1024">
	<path fill="#000000" d="M363 -35H376Q379 -7 401 0Q418 4 427 -12L464 -102Q470 -119 446 -121V-134H568V-121Q552 -122 544 -102L506 -13Q496 17 465 29Q438 41 406 33Q380 27 363 10ZM744 -134H867V-121Q843 -120 849 -102L886 -13Q892 3 911 -1Q932 -8 936 -35H949V10Q929 27 905 33Q869 40 846 29Q819 19 806 -13L768 -102Q760 -122 744 -121ZM154 1H229Q266 0 267 -40V-686Q267 -725 229 -725H154ZM615 -741Q617 -768 587 -769V-781H728V-769Q700 -767 701 -741V-701H886Q904 -703 907 -720H920V-649H907Q903 -667 886 -668H701V-598H860Q877 -600 880 -617H893V-547H880Q876 -565 860 -566H701V-494H907Q925 -496 927 -513H940V-444H927Q924 -462 907 -463H699L503 -356Q496 -352 497 -348Q500 -343 509 -343Q566 -343 631 -352L702 -387Q710 -391 707 -397Q702 -403 691 -403V-416H885V-403Q867 -403 839 -388L498 -218Q492 -214 492 -212Q493 -210 501 -210Q638 -212 794 -230L773 -259Q761 -278 742 -280V-293H873V-280Q847 -275 858 -259L907 -191Q919 -173 938 -171V-158H806V-171Q832 -176 823 -191L815 -202Q780 -197 713 -188Q703 -187 698 -186V5Q698 45 673 64Q647 85 605 82Q554 76 530 46V2H543Q549 42 585 46Q613 44 614 13V-178Q529 -170 442 -169Q400 -169 390 -197Q383 -226 419 -246L556 -314Q553 -314 547 -313Q482 -308 462 -308Q412 -308 401 -340Q399 -368 434 -388L579 -463H408Q392 -462 387 -444H374V-513H387Q392 -494 408 -494H615V-566H455Q439 -565 434 -547H421V-617H434Q439 -598 455 -598H615V-668H428Q412 -666 408 -649H395V-720H408Q411 -701 428 -701H615ZM81 -719Q82 -739 58 -745V-758H246Q301 -758 322 -734Q340 -715 340 -675V-54Q340 -11 320 9Q299 34 244 34H58V21Q81 18 81 -6Z"/>
</svg>