<svg xmlns="http://www.w3.org/2000/svg" viewBox="0 -800 1024 1024">
	<path fill="#000000" d="M375 5Q308 -9 281 -36V-83H294Q310 -31 378 -30Q466 -29 466 -77V-549Q466 -574 475 -589Q484 -609 509 -620L727 -707Q734 -711 732 -718Q730 -724 721 -724H158Q142 -723 135 -705H122V-775H135Q140 -756 158 -756H776Q820 -756 829 -726Q835 -691 804 -677L572 -582Q543 -571 544 -541V-87Q546 -34 488 -9Q434 13 375 5ZM207 -165H219Q224 -141 236 -131Q259 -119 270 -151L309 -301Q312 -315 293 -320V-333H400V-320Q383 -314 378 -300L340 -152Q330 -113 307 -101Q277 -86 245 -95Q221 -104 207 -119ZM61 75V62Q82 58 81 39V-565Q80 -584 58 -589V-602H188V-589Q166 -584 165 -565V42H804Q845 43 844 1V-564Q843 -584 821 -588V-602H949V-588Q928 -586 927 -564V-8Q927 33 906 54Q885 75 842 75ZM217 -573H328V-560Q304 -556 311 -541L373 -408Q384 -390 400 -388V-376H287V-388Q310 -391 304 -409L240 -542Q233 -557 217 -560ZM607 -333H715V-320Q696 -315 699 -301L738 -151Q749 -119 772 -131Q784 -141 789 -165H801V-119Q787 -104 763 -95Q730 -86 700 -101Q677 -114 668 -152L630 -300Q626 -313 607 -320ZM608 -388Q624 -390 635 -408L697 -541Q704 -556 680 -560V-573H791V-560Q775 -557 768 -542L704 -409Q698 -391 721 -388V-376H608Z"/>
</svg>