<svg xmlns="http://www.w3.org/2000/svg" viewBox="0 -800 1024 1024">
	<path fill="#000000" d="M794 -367Q792 -385 770 -391V-404H885V-391Q862 -386 864 -367L895 -74Q896 -59 906 -56Q916 -54 925 -65Q934 -76 936 -96H949V-48Q938 -33 917 -24Q883 -10 858 -25Q830 -42 825 -78ZM524 -78Q519 -44 495 -26Q472 -12 437 -20Q414 -27 398 -48V-96H411Q414 -76 422 -65Q432 -52 442 -56Q452 -61 455 -79L488 -367Q491 -386 467 -391V-404H585V-391Q563 -384 559 -367ZM538 -510Q530 -470 496 -453Q469 -439 431 -450Q409 -456 389 -477V-527H402Q405 -505 419 -493Q447 -472 456 -506L501 -746Q504 -766 479 -769V-781H610V-769Q588 -764 583 -746L571 -682H822Q874 -683 892 -666Q912 -649 912 -609V-509Q912 -484 938 -479V-466H809V-479Q835 -482 835 -509V-617Q835 -649 801 -649H564ZM634 -520Q634 -548 609 -549V-562H744V-549Q718 -545 719 -520V-9Q719 41 685 65Q655 84 608 83Q547 79 510 41V-6H523Q534 33 577 44Q632 54 634 5ZM59 -261V-273Q83 -277 85 -306L104 -473Q108 -501 78 -505V-518H246Q283 -517 282 -553V-692Q282 -725 247 -725H108Q94 -725 88 -706H75V-776H88Q91 -759 108 -757H281Q330 -758 347 -743Q368 -728 368 -689V-560Q368 -521 345 -503Q324 -485 282 -485H190L169 -294H283Q330 -294 351 -274Q370 -258 370 -212V-34Q370 27 336 55Q305 85 237 83Q184 82 146 67Q111 53 81 27V-30H93Q107 11 146 31Q194 54 235 47Q286 34 286 -21V-225Q286 -261 251 -261Z"/>
</svg>