<svg xmlns="http://www.w3.org/2000/svg" viewBox="0 -800 1024 1024">
	<path fill="#000000" d="M942 -645H941Q937 -645 934 -639Q931 -633 928 -633V-636Q929 -642 930 -649Q930 -651 929 -654L931 -653Q935 -653 938 -654H940Q942 -648 942 -645ZM788 -116V-114Q782 -114 776 -119Q769 -125 768 -133H771Q788 -133 788 -116ZM789 -111Q805 -101 826 -98Q837 -168 848 -239Q863 -308 867 -378Q867 -404 862 -422Q853 -417 839 -413Q825 -408 824 -399Q824 -396 829 -389L832 -388Q843 -391 853 -395Q855 -395 859 -393Q852 -381 836 -369Q819 -356 814 -349Q802 -331 789 -271Q776 -192 762 -119Q774 -110 785 -98Q796 -87 808 -82Q796 -96 789 -111ZM552 -412V-424Q552 -438 547 -442V-441Q547 -436 535 -435Q526 -434 525 -432Q519 -426 519 -410V-402Q536 -407 552 -412ZM550 -326V-329Q550 -336 549 -344V-348Q509 -339 507 -315Q511 -317 524 -319Q544 -322 550 -326ZM486 -114H484Q482 -86 479 -59Q488 -60 502 -65Q520 -71 530 -72Q522 -81 495 -87Q492 -86 491 -80Q489 -73 485 -73Q488 -87 490 -102Q490 -110 486 -114ZM554 -269V-274H551Q538 -273 526 -264Q515 -254 505 -248Q506 -239 507 -231Q530 -238 555 -244Q553 -246 553 -251Q554 -260 554 -269ZM671 -64Q669 -60 667 -56Q675 -51 682 -47Q681 -49 671 -64ZM670 -65Q667 -68 664 -72Q663 -69 662 -66L664 -64Q667 -64 669 -65ZM669 -78Q675 -73 682 -72Q686 -74 686 -79Q687 -84 687 -89Q692 -97 695 -117Q699 -149 710 -154Q707 -146 707 -123V-111Q725 -149 734 -198Q743 -247 751 -297Q741 -279 734 -245Q731 -231 728 -217Q725 -202 716 -195Q717 -230 726 -262Q735 -294 742 -328Q729 -325 710 -308Q697 -310 693 -322Q689 -333 685 -348Q680 -360 675 -370Q670 -380 670 -395Q670 -403 671 -408Q676 -422 681 -437V-441Q679 -456 677 -471Q677 -476 678 -478Q688 -495 697 -515Q705 -536 723 -546Q716 -534 716 -519Q716 -500 729 -497Q731 -499 760 -511Q779 -519 781 -535V-538Q776 -560 768 -590Q767 -598 767 -616Q767 -672 785 -687Q781 -693 779 -703V-705H781Q789 -702 797 -699Q799 -699 803 -701Q801 -712 788 -724Q779 -733 776 -738Q802 -729 814 -723Q834 -712 845 -695Q864 -660 872 -617Q874 -605 874 -601Q874 -584 862 -552Q871 -554 883 -571Q897 -591 909 -594Q916 -602 922 -611Q921 -607 921 -600Q921 -579 931 -567Q935 -569 942 -576Q951 -585 956 -585Q944 -565 944 -545Q944 -532 949 -525Q954 -531 958 -537H959Q958 -521 956 -506Q956 -500 957 -497L958 -496Q960 -498 961 -501H962Q962 -489 959 -485Q972 -479 972 -455Q971 -436 970 -418V-415Q955 -394 946 -365Q937 -336 928 -308Q922 -312 922 -322Q924 -337 926 -352V-353Q893 -303 893 -211Q893 -199 895 -179Q901 -188 905 -217Q910 -253 922 -262Q918 -243 914 -204Q908 -145 900 -123Q895 -124 895 -138Q895 -151 890 -153Q877 -144 877 -108Q877 -85 884 -78Q889 -81 890 -89Q890 -97 893 -104Q898 -103 898 -96Q898 -90 897 -84Q896 -36 895 -24Q893 13 887 30Q874 38 857 62Q843 82 836 88Q820 55 808 15Q796 -40 784 -58Q774 -67 769 -81Q785 -72 798 -61Q788 -90 759 -108Q750 -40 737 28Q725 32 718 42Q696 29 688 -1Q681 -30 667 -54Q665 -44 665 -38Q666 -21 667 -5V0Q635 5 598 21Q550 38 542 42Q535 48 528 50H525Q529 32 544 26Q558 21 572 16Q620 -7 625 -10V-11Q623 -16 620 -19Q586 -19 534 10Q514 20 495 29Q475 39 462 59Q463 66 468 72Q483 67 486 67H489Q486 79 469 89Q455 98 451 106H445Q429 106 409 93Q401 50 384 18Q388 8 388 1Q388 -6 386 -10Q409 -27 432 -78Q419 -75 411 -65Q404 -56 393 -45Q377 -33 364 -21Q359 -12 354 -1Q349 10 340 13H336Q318 11 308 -11Q297 -33 288 -45Q289 -70 290 -74Q292 -92 300 -99Q292 -113 292 -120Q292 -132 298 -143L300 -146Q210 -90 173 -54Q166 -46 160 -26Q152 -1 142 6Q113 5 87 -9Q81 -12 46 -37Q43 -43 43 -49Q44 -63 52 -75Q60 -88 63 -96Q60 -106 56 -117V-120Q63 -137 78 -156Q91 -182 99 -182L103 -181Q98 -173 96 -166Q96 -162 97 -160Q103 -158 108 -156V-152Q108 -127 127 -126Q149 -144 175 -158Q201 -172 225 -187Q219 -192 210 -192Q199 -192 174 -177Q154 -165 143 -163Q150 -178 169 -188Q176 -192 205 -204Q207 -218 207 -227Q206 -250 205 -273Q193 -271 185 -260Q177 -249 168 -241Q150 -250 126 -262Q101 -274 88 -291Q83 -297 83 -306Q85 -320 86 -334Q86 -342 84 -347Q71 -353 58 -358Q45 -364 38 -375H42Q52 -373 61 -371L65 -372Q63 -377 48 -384Q31 -392 28 -399Q29 -400 33 -400Q45 -397 57 -394Q62 -394 68 -397Q67 -402 59 -405Q54 -407 52 -410Q64 -411 78 -422Q92 -433 104 -433H108Q108 -428 107 -423Q107 -402 121 -402Q134 -402 164 -427Q184 -444 205 -453Q204 -457 204 -462Q203 -467 199 -469Q190 -467 175 -457Q155 -444 137 -444Q140 -454 149 -460Q159 -466 167 -471Q186 -481 201 -495Q198 -504 198 -511Q199 -519 199 -527V-531Q197 -542 184 -554Q175 -562 173 -567Q170 -574 170 -581Q170 -592 183 -613Q199 -639 199 -655Q217 -654 235 -654Q247 -654 256 -655Q281 -641 298 -618Q314 -595 333 -574Q327 -563 320 -552Q313 -542 312 -527Q312 -518 314 -513H315Q321 -515 327 -518L331 -517L332 -515Q328 -510 324 -504Q326 -503 336 -496Q343 -491 348 -491Q349 -491 355 -493Q354 -499 344 -502Q335 -505 333 -511Q336 -513 340 -513Q351 -511 361 -509Q368 -509 372 -516Q375 -515 380 -515Q387 -515 400 -522Q411 -528 420 -530Q419 -545 417 -560Q417 -569 419 -573Q426 -575 429 -580V-582Q427 -590 424 -599V-602Q432 -596 444 -596Q457 -596 469 -595Q490 -595 497 -571Q521 -579 545 -588Q544 -623 541 -657Q539 -691 517 -700Q534 -711 553 -737Q573 -764 592 -767Q601 -767 609 -756Q617 -743 625 -727Q633 -712 643 -702Q634 -675 630 -645Q630 -638 631 -634Q643 -638 665 -658Q663 -642 663 -640Q663 -632 666 -627Q679 -631 692 -636L693 -633Q693 -630 686 -625Q676 -618 675 -611Q678 -603 687 -603Q680 -582 678 -565V-561Q680 -559 685 -559Q690 -559 694 -560Q703 -560 703 -553H700Q692 -553 689 -550Q685 -545 685 -535Q686 -523 687 -511Q677 -504 655 -495Q624 -483 614 -471V-457Q615 -433 615 -410Q615 -385 611 -369Q605 -380 603 -410Q601 -434 599 -441Q594 -422 594 -385Q594 -340 601 -315Q604 -316 605 -325Q606 -333 609 -335Q615 -334 615 -320Q615 -309 614 -298V-295Q616 -282 618 -269Q651 -281 679 -297Q683 -295 688 -285Q692 -277 695 -274Q692 -259 688 -245Q688 -240 692 -237Q688 -231 688 -230Q690 -225 691 -220Q681 -215 680 -211Q682 -207 687 -207Q678 -189 626 -171Q636 -165 645 -150Q649 -152 652 -155Q652 -151 651 -148Q655 -136 659 -122Q659 -119 658 -117Q640 -103 612 -103Q608 -106 601 -107Q596 -114 590 -117H589V-118Q589 -126 582 -133Q576 -139 575 -143Q579 -147 579 -151L578 -155Q553 -145 546 -141Q548 -129 548 -123Q548 -105 542 -75H543Q551 -78 559 -81Q560 -81 564 -79Q583 -92 637 -102Q644 -104 656 -111Q672 -121 681 -121L685 -120Q683 -114 673 -108Q663 -102 661 -94Q662 -90 665 -90Q671 -94 677 -98L680 -96Q679 -90 669 -78ZM356 -198Q374 -219 388 -223V-222Q388 -218 379 -209Q373 -203 370 -198Q363 -186 360 -167Q358 -167 354 -161V-155Q354 -144 358 -141Q361 -139 369 -139Q382 -140 397 -148Q412 -155 422 -160Q455 -171 468 -180Q463 -186 452 -186Q442 -186 425 -179Q408 -172 402 -172Q396 -172 392 -176Q392 -185 398 -187Q403 -188 409 -189Q436 -201 462 -213Q458 -220 453 -228Q455 -243 455 -279Q455 -313 453 -373Q445 -370 436 -367L435 -371Q436 -377 437 -384Q437 -387 436 -390Q430 -387 423 -381Q416 -375 408 -374L404 -375Q398 -378 397 -382Q395 -387 393 -389L389 -390Q377 -390 377 -374V-372Q378 -365 386 -356Q395 -346 403 -346H405Q410 -346 415 -351Q421 -357 425 -357H428Q427 -346 426 -336Q419 -336 415 -331Q412 -326 407 -323Q383 -327 372 -336Q358 -347 355 -370V-373Q356 -390 357 -407V-411Q354 -426 350 -441Q338 -456 325 -474Q323 -461 321 -449V-447Q321 -440 327 -423Q335 -401 335 -388V-381Q326 -380 324 -372Q322 -363 320 -354Q317 -350 307 -346Q297 -342 293 -336Q283 -320 281 -293Q280 -266 275 -244H276Q287 -247 297 -250Q317 -264 344 -270Q358 -279 372 -283Q377 -283 380 -281Q376 -276 365 -271Q348 -264 346 -255Q350 -253 351 -253Q357 -254 362 -256Q366 -256 367 -253Q364 -247 357 -241Q346 -231 344 -225Q349 -218 353 -212Q350 -204 346 -200Q351 -199 356 -198ZM327 -489V-488Q327 -481 326 -478H328Q331 -478 337 -470Q342 -463 346 -463L349 -464Q347 -475 327 -489Z"/>
</svg>