<svg xmlns="http://www.w3.org/2000/svg" viewBox="0 -800 1024 1024">
	<path fill="#000000" d="M211 -582Q183 -598 164 -599V-613H368V-600Q341 -595 354 -580L493 -499L733 -648H103Q87 -647 82 -629H70V-699H82Q87 -680 103 -680H458V-744Q459 -766 430 -769V-781H576V-769Q547 -766 548 -744V-680H904Q921 -682 924 -699H937V-629H924Q918 -648 904 -648H867L562 -459L718 -370Q775 -341 843 -342Q918 -348 935 -403H949V-350Q916 -324 869 -314Q807 -299 740 -308Q668 -317 620 -345L494 -417L382 -348Q338 -320 273 -312Q210 -302 144 -315Q89 -327 58 -350V-403H72Q84 -353 155 -345Q225 -340 284 -370L425 -457ZM739 42Q777 40 779 2V-169Q778 -206 739 -207H228V42ZM776 -240Q826 -240 848 -222Q871 -204 871 -161V-6Q871 33 847 54Q823 75 773 75H107V62Q132 57 135 32V-199Q133 -223 107 -227V-240Z"/>
</svg>