<svg xmlns="http://www.w3.org/2000/svg" viewBox="0 -800 1024 1024">
	<path fill="#000000" d="M342 -742H472V-730Q447 -724 453 -710L500 -591Q508 -574 530 -570V-557H398V-570Q424 -573 420 -591L373 -710Q365 -727 342 -730ZM758 -570Q781 -574 787 -591L836 -710Q841 -724 816 -730V-742H946V-730Q923 -727 916 -710L868 -591Q863 -573 891 -570V-557H758ZM58 -444H71Q77 -411 105 -403Q142 -394 156 -426L197 -518Q205 -534 180 -538V-551H313V-538Q294 -535 285 -518L244 -423Q226 -384 189 -367Q154 -352 113 -363Q83 -372 58 -397ZM58 -675H71Q77 -641 110 -631Q147 -623 165 -656L206 -748Q212 -766 189 -769V-781H322V-769Q302 -768 294 -749L253 -654Q236 -617 199 -600Q158 -582 114 -593Q79 -602 58 -627ZM236 31Q235 58 263 62V75H124V62Q152 58 151 31V-273Q152 -304 124 -304V-317H263V-304Q236 -300 236 -273ZM583 -65H678Q704 -67 706 -92V-335Q705 -360 678 -360H583ZM781 -323V-105Q781 -67 762 -51Q743 -35 702 -35H492V-47Q516 -50 516 -71V-351Q517 -371 492 -375V-387H704Q744 -387 763 -373Q781 -358 781 -323ZM441 32Q439 58 469 62V75H333V62Q360 59 359 32V-462Q359 -482 333 -485V-498H599V-737Q600 -767 570 -768V-781H716V-768Q686 -764 687 -737V-498H832Q891 -498 912 -475Q931 -458 931 -416V-15Q931 40 887 65Q839 91 773 79Q716 69 684 45V-5H697Q700 25 745 39Q787 52 815 41Q849 29 848 -5V-427Q847 -464 806 -465H441Z"/>
</svg>