<svg xmlns="http://www.w3.org/2000/svg" viewBox="0 -800 1024 1024">
	<path fill="#000000" d="M895 18Q896 35 904 39Q914 42 923 29Q929 21 936 -16H949V43Q932 67 902 77Q868 90 843 72Q820 53 819 13L793 -573Q793 -597 771 -599V-612H892V-599Q867 -595 869 -573ZM717 -143H785V-130Q770 -128 770 -116L785 48Q786 61 800 61V74H731V61Q747 59 746 48L742 6Q728 30 707 57Q677 88 648 79Q616 67 615 20V-573Q616 -597 591 -599V-612H709V-599Q685 -596 686 -573V14Q686 25 690 26Q694 28 701 21Q723 -6 738 -33L731 -116Q732 -127 717 -130ZM502 1Q502 45 470 67Q439 88 395 82Q355 73 330 46V-13H343Q352 34 386 41Q418 44 420 10V-662Q421 -688 398 -691V-704H752Q794 -702 805 -724L823 -753Q829 -764 804 -769V-781H943V-769Q926 -766 919 -754L891 -707Q879 -687 850 -678Q830 -672 791 -672H502ZM265 -9Q265 44 230 67Q196 91 144 81Q92 72 74 43V-16H87Q93 30 136 42Q182 48 184 1V-320L92 -289Q76 -282 71 -266H58V-339H71Q76 -318 92 -323L184 -354V-472Q184 -474 184 -478Q182 -517 195 -542L277 -703Q285 -724 266 -725H114Q99 -723 93 -706H81V-776H93Q97 -757 114 -757H316Q350 -757 362 -735Q372 -714 359 -687L273 -520Q264 -503 265 -471V-382L350 -412Q368 -418 370 -435H383V-362H370Q365 -381 350 -377L265 -348Z"/>
</svg>