<svg xmlns="http://www.w3.org/2000/svg" viewBox="0 -800 1024 1024">
	<path fill="#000000" d="M428 -32Q405 43 337 69Q283 91 194 82Q98 71 58 42V-9H71Q77 27 135 44Q208 62 265 40Q321 19 338 -35L387 -203H124Q108 -202 103 -184H91V-254H103Q106 -237 124 -236H396L412 -288Q416 -304 393 -308V-321H532V-308Q510 -305 505 -289L489 -236H792Q839 -236 864 -213Q889 -191 889 -146V-37Q889 22 846 52Q809 82 733 83Q672 83 635 77Q578 66 542 42V-9H555Q565 32 632 45Q697 55 745 40Q798 21 799 -30V-153Q796 -200 750 -203H479ZM122 -607Q86 -616 58 -641V-697H71Q81 -660 111 -647Q144 -639 170 -658L283 -747Q292 -753 287 -760Q282 -766 267 -769V-781H439V-769Q422 -766 399 -750L357 -717H793Q856 -716 868 -670Q872 -621 828 -594L574 -472L768 -388Q830 -364 872 -369Q925 -379 936 -431H949V-368Q924 -345 878 -333Q838 -324 783 -329Q723 -336 675 -357L495 -435L338 -360Q282 -334 229 -328Q172 -321 126 -334Q93 -341 58 -368V-431H71Q83 -378 137 -370Q185 -366 246 -394L409 -472L222 -553Q195 -565 165 -569V-582H406V-569Q380 -558 394 -551L488 -509L764 -641Q781 -651 778 -668Q773 -685 753 -685H316L269 -648Q238 -622 210 -612Q165 -598 122 -607Z"/>
</svg>