<svg xmlns="http://www.w3.org/2000/svg" viewBox="0 -800 1024 1024">
	<path fill="#000000" d="M566 42H785Q822 40 824 2V-274Q823 -312 785 -313H566ZM135 3H203V-737Q204 -769 176 -769V-781H308V-769Q281 -764 282 -737V3H309Q348 2 350 -34V-590Q350 -616 329 -618V-631H427V-618Q404 -615 404 -590V-42Q404 0 382 17Q360 35 314 35H60V22Q81 20 81 -1V-590Q83 -618 60 -618V-631H158V-618Q135 -615 135 -590ZM651 -737Q652 -768 623 -769V-781H767V-769Q739 -765 739 -737V-582H915Q933 -584 936 -601H949V-530H936Q931 -549 915 -549H739V-346H820Q874 -346 895 -322Q913 -302 913 -263V-12Q913 30 893 50Q871 75 817 75H450V62Q477 57 478 35V-307Q477 -327 450 -333V-346H651V-549H473Q457 -547 453 -530H440V-601H453Q458 -582 473 -582H651Z"/>
</svg>