<svg xmlns="http://www.w3.org/2000/svg" viewBox="0 -800 1024 1024">
	<path fill="#000000" d="M746 -360H547V-176H785V-321Q785 -360 746 -360ZM223 -360V-176H460V-360ZM746 42Q783 40 785 2V-143H547V42ZM223 -143V42H460V-143ZM901 -676Q919 -678 922 -695H934V-625H922Q917 -644 901 -644H718L845 -487Q867 -462 899 -471Q928 -481 936 -513H949V-460Q930 -443 904 -434Q866 -421 827 -428Q781 -438 754 -472L615 -644H386L256 -473Q229 -438 179 -427Q138 -419 101 -431Q74 -442 58 -461V-513H71Q83 -475 114 -467Q142 -459 162 -484L283 -644H106Q91 -642 86 -625H73V-695H86Q90 -675 106 -676H307L362 -748Q371 -763 343 -769V-781H504V-768Q480 -765 467 -749L411 -676ZM779 -393Q833 -393 854 -369Q875 -348 875 -308V-15Q875 28 852 51Q829 76 776 75H108V62Q133 58 134 35V-354Q133 -375 108 -380V-393Z"/>
</svg>