<svg xmlns="http://www.w3.org/2000/svg" viewBox="0 -800 1024 1024">
	<path fill="#000000" d="M58 -444H72Q73 -427 85 -413Q97 -399 117 -397Q150 -398 164 -426L206 -518Q214 -534 188 -538V-551H325V-538Q306 -535 297 -518L255 -423Q237 -384 198 -368Q159 -352 111 -365Q81 -374 58 -397ZM58 -675H72Q73 -658 87 -644Q100 -631 121 -629Q158 -629 174 -656L214 -748Q222 -766 197 -769V-781H334V-769Q314 -767 307 -749L265 -654Q248 -618 213 -602Q174 -585 122 -596Q84 -604 58 -627ZM239 31Q238 57 267 62V75H125V62Q153 58 152 31V-273Q153 -303 125 -304V-317H267V-304Q239 -300 239 -273ZM598 -739Q598 -763 570 -769V-781H715V-769Q687 -765 687 -739V-630H877Q895 -632 898 -649H910V-578H898Q894 -596 877 -597H687V-417H915Q933 -419 936 -435H949V-365H936Q931 -384 915 -384H705V-203H889Q907 -204 910 -222H922V-151H910Q905 -170 889 -170H705V32H917Q934 30 936 13H949V83H936Q933 65 917 64H656Q626 64 609 58Q589 51 576 39L484 -39L479 11Q476 42 454 63Q431 83 400 83Q370 84 344 67Q323 53 312 33V-16H325Q331 15 350 28Q386 49 395 10L425 -257Q426 -277 404 -280V-293H533V-280Q511 -275 509 -257L489 -84L604 16Q610 21 616 24V-384H353Q337 -383 332 -365H320V-435H332Q336 -417 353 -417H598V-597H399Q382 -595 379 -578H366V-649H379Q382 -630 399 -630H598Z"/>
</svg>