<svg xmlns="http://www.w3.org/2000/svg" viewBox="0 -800 1024 1024">
	<path fill="#000000" d="M316 -338Q333 -338 339 -354L377 -456Q384 -470 365 -473V-486H461V-473Q443 -473 439 -456L402 -354Q394 -339 416 -338V-325H316ZM313 -286H413V-273Q392 -270 395 -257L412 -138Q420 -112 441 -124Q452 -132 457 -157H469V-110Q454 -94 436 -88Q403 -74 378 -89Q355 -105 351 -135L333 -257Q331 -270 313 -273ZM296 -603Q304 -621 284 -623H107Q91 -622 86 -604H73V-675H86Q91 -656 107 -656H185V-740Q186 -762 158 -769V-781H299V-769Q272 -765 271 -740V-656H332Q370 -656 380 -633Q392 -609 378 -586L261 -411V31Q259 56 289 62V75H149V62Q176 58 176 31V-306Q175 -306 174 -305Q173 -304 172 -304Q137 -287 100 -301Q73 -311 58 -329V-382H71Q77 -352 90 -343Q112 -327 134 -357ZM842 -678Q844 -727 798 -725H666L617 1Q614 49 570 71Q524 91 472 79Q436 71 400 43V-14H412Q417 14 441 32Q463 48 490 44Q522 38 526 6L574 -725H452Q436 -724 432 -706H419V-776H432Q435 -758 452 -757H845Q896 -757 915 -735Q933 -714 932 -673V-17Q932 35 895 61Q858 86 801 83Q732 78 694 41V-15H707Q714 24 758 40Q794 50 819 36Q842 25 842 -11Z"/>
</svg>