<svg xmlns="http://www.w3.org/2000/svg" viewBox="0 -800 1024 1024">
	<path fill="#000000" d="M465 -69Q464 -42 493 -37V-24H358V-37Q387 -41 386 -69V-175L244 -160Q228 -157 224 -141H209V-212H224Q229 -190 244 -193L386 -208V-317H213V-332Q229 -334 234 -351L293 -548H252Q236 -547 231 -529H219V-600H231Q236 -581 252 -581H303L321 -638Q328 -657 302 -658V-672H416V-658Q394 -658 389 -638L372 -581H505Q523 -583 526 -600H538V-529H526Q521 -548 505 -548H362L302 -350H386V-433Q387 -465 358 -464V-478H493V-464Q465 -461 465 -433V-350H515Q534 -352 535 -369H549V-298H535Q532 -316 515 -317H465V-217L527 -224Q546 -227 548 -243H561V-172H548Q542 -192 527 -191L465 -184ZM644 -630Q645 -653 618 -656V-668H745V-656Q720 -653 720 -630L716 -529H797Q843 -529 864 -508Q886 -487 886 -446V-79Q886 -60 898 -55Q911 -52 924 -66Q936 -81 937 -100H949V-52Q932 -24 902 -15Q867 -4 839 -25Q810 -47 810 -89V-458Q810 -496 770 -496H715L700 -101Q698 -58 665 -34Q630 -11 584 -18Q547 -27 527 -48V-100H540Q551 -61 586 -57Q622 -54 624 -91L639 -496H586Q570 -495 567 -477H554V-548H567Q570 -529 586 -529H640ZM916 -757Q934 -758 936 -776H949V-706H936Q930 -725 916 -725H174V33H915Q933 31 936 13H949V83H935Q933 65 915 64H65V52Q87 49 88 28V-720Q88 -740 65 -745V-757Z"/>
</svg>