<svg xmlns="http://www.w3.org/2000/svg" viewBox="0 -800 1024 1024">
	<path fill="#000000" d="M801 -657H700V-520H841V-618Q840 -656 801 -657ZM476 -657V-520H617V-657ZM700 -344H801Q839 -346 841 -386V-487H700ZM616 -344Q617 -348 617 -356V-487H476V-344ZM769 31Q767 58 797 62V75H655V62Q684 58 683 31V-96H386Q370 -95 365 -77H352V-148H365Q370 -129 386 -129H683V-206Q684 -237 655 -237V-250H797V-237Q768 -233 769 -206V-129H915Q933 -131 936 -148H949V-77H936Q931 -96 915 -96H769ZM58 -13H71Q77 6 92 0L165 -31V-507H106Q90 -505 86 -488H73V-559H86Q90 -540 106 -540H165V-737Q166 -769 137 -768V-781H277V-768Q248 -766 249 -737V-540H309Q326 -542 329 -559H342V-488H329Q325 -506 309 -507H249V-66L299 -88Q319 -96 320 -109H332V-35H320Q314 -55 299 -51L92 35Q76 44 71 60H58ZM820 -689Q877 -689 900 -666Q918 -645 917 -607V-399Q917 -357 898 -336Q876 -312 822 -312H685Q685 -311 684 -311Q684 -310 683 -310L564 -202Q540 -179 506 -169Q465 -158 418 -172Q389 -181 369 -202V-250H381Q393 -212 427 -203Q460 -197 488 -221L590 -312H375V-324Q399 -329 401 -351V-652Q400 -672 375 -677V-689H572L591 -743Q600 -766 571 -769V-781H710V-769Q687 -766 681 -743L661 -689Z"/>
</svg>