<svg xmlns="http://www.w3.org/2000/svg" viewBox="0 -800 1024 1024">
	<path fill="#000000" d="M707 -374Q736 -374 736 -402V-493H488V-374ZM828 -275Q874 -274 883 -243Q887 -209 850 -181L676 -54L797 27Q832 48 865 43Q921 35 936 -15H949V36Q921 63 891 72Q854 87 803 80Q744 73 704 47L617 -11L526 55Q492 78 422 82Q368 85 325 70Q289 57 271 34V-15H284Q300 34 356 45Q403 53 444 27L554 -54L377 -174Q375 -175 372 -177Q357 -189 335 -189V-202H508V-189Q498 -189 496 -184Q494 -178 502 -173L613 -97L790 -226Q797 -231 797 -237Q796 -242 787 -242H367Q352 -241 347 -223H334V-294H347Q350 -277 367 -275ZM377 -341V-354Q403 -359 403 -377V-493H316Q300 -492 295 -474H283V-544H295Q300 -525 316 -525H403V-577Q403 -596 378 -599V-611H513V-599Q487 -595 488 -577V-525H736V-577Q736 -596 711 -599V-611H845V-599Q820 -595 820 -577V-525H906Q923 -527 926 -544H939V-474H926Q921 -493 906 -493H820V-408Q820 -372 801 -357Q784 -341 742 -341ZM915 -693Q933 -695 936 -712H948V-641H936Q932 -659 915 -660H227V-4Q227 47 196 67Q169 87 121 82Q77 77 58 42V-8H71Q77 40 110 40Q138 37 140 7V-655Q140 -676 115 -680V-693H502V-744Q502 -766 475 -769V-781H619V-769Q592 -766 592 -744V-693Z"/>
</svg>