<svg xmlns="http://www.w3.org/2000/svg" viewBox="0 -800 1024 1024">
	<path fill="#000000" d="M219 -580V-508H788V-545Q787 -579 753 -580ZM753 -404Q788 -404 788 -437V-476H219V-404ZM251 -781H396V-769Q369 -764 369 -737V-726H638V-737Q638 -767 611 -769V-781H756V-769Q729 -764 729 -737V-726H915Q933 -728 936 -744H949V-675H936Q931 -694 915 -694H729V-677Q728 -650 756 -645V-632H611V-645Q638 -649 638 -677V-694H369V-677Q368 -650 396 -645V-632H251V-645Q278 -649 278 -677V-694H92Q76 -693 71 -675H58V-744H71Q75 -726 92 -726H278V-737Q278 -767 251 -769ZM900 -306Q918 -308 921 -325H934V-255H921Q917 -273 900 -274H715L799 -214Q833 -191 882 -195Q930 -204 936 -243H949V-192Q924 -173 883 -165Q837 -156 789 -164Q748 -170 711 -197L604 -274H386L266 -196Q233 -177 189 -168Q153 -159 116 -166Q83 -171 58 -191V-239H71Q77 -201 114 -197Q146 -197 183 -218L269 -274H107Q91 -273 86 -255H73V-325H86Q90 -306 107 -306H318L343 -322Q353 -336 325 -339V-352H503V-339Q488 -336 467 -326Q464 -324 462 -323L436 -306ZM424 -8Q392 53 321 72Q274 87 199 82Q107 71 70 45V-6H83Q88 29 147 46Q196 57 243 50Q307 38 334 -11L383 -101H143Q127 -101 122 -83H109V-151H122Q124 -135 143 -134H401L426 -179Q431 -194 409 -198V-211H547V-198Q528 -196 519 -179L494 -134H778Q818 -134 840 -121Q867 -107 867 -75V-4Q867 42 818 66Q783 81 721 83Q661 83 625 77Q562 66 528 45V-6H541Q550 35 626 47Q675 55 716 50Q776 43 777 3V-68Q778 -102 737 -101H475ZM796 -610Q841 -611 859 -593Q879 -573 879 -540V-441Q879 -405 857 -390Q836 -373 796 -373H102V-387Q127 -391 128 -416V-571Q127 -593 102 -597V-610Z"/>
</svg>