<svg xmlns="http://www.w3.org/2000/svg" viewBox="0 -800 1024 1024">
	<path fill="#000000" d="M505 -417H634V-404Q615 -399 619 -387L723 -157Q732 -139 755 -137V-124H614V-137Q638 -144 633 -157L530 -387Q525 -402 505 -404ZM299 -302Q316 -329 315 -380V-587H196V-380Q194 -335 216 -302L257 -229ZM844 -579Q846 -621 805 -619H619L597 -524Q589 -488 559 -473Q532 -458 492 -466Q464 -471 445 -488V-531H458Q460 -508 477 -498Q499 -489 506 -512L561 -746Q566 -763 540 -769V-781H678V-768Q654 -763 649 -746L627 -652H827Q887 -653 909 -633Q933 -614 932 -560V-55Q932 22 872 58Q806 95 693 79Q622 68 565 29V-29H578Q600 23 679 42Q742 56 792 39Q843 18 844 -41ZM402 26Q420 53 436 30Q448 12 451 -8H463V53Q449 68 432 76Q407 87 381 82Q349 75 331 45L257 -84L183 45Q168 70 149 77Q125 88 93 79Q75 72 58 53V-8H71Q74 17 82 28Q96 47 111 26L216 -157L144 -283Q117 -330 119 -389V-587H97Q81 -586 76 -568H64V-639H76Q81 -620 97 -620H119V-739Q119 -765 93 -769V-781H218V-769Q196 -765 196 -739V-620H315V-739Q315 -765 293 -769V-781H418V-769Q393 -764 392 -739V-620H415Q433 -622 436 -639H449V-568H436Q431 -587 415 -587H392V-389Q393 -319 372 -283L299 -156Z"/>
</svg>