<svg xmlns="http://www.w3.org/2000/svg" viewBox="0 -800 1024 1024">
	<path fill="#000000" d="M528 -127Q565 -129 568 -169V-359Q567 -397 528 -398H208V-127ZM566 -431Q620 -431 641 -407Q659 -386 658 -348V-182Q658 -140 639 -120Q617 -94 564 -95H90V-107Q117 -112 118 -137V-391Q117 -412 90 -418V-431ZM145 -725Q130 -723 125 -706H112V-776H125Q129 -756 145 -757H815Q882 -758 906 -737Q932 -718 932 -666V-63Q932 -8 888 29Q842 64 750 76Q676 86 579 81Q482 73 423 54V-9H436Q455 38 593 48Q690 52 763 28Q842 -3 842 -65V-678Q842 -725 794 -725ZM687 -594Q705 -596 708 -613H721V-542H708Q704 -560 687 -561H92Q76 -560 71 -542H58V-613H71Q76 -594 92 -594Z"/>
</svg>