<svg xmlns="http://www.w3.org/2000/svg" viewBox="0 -800 1024 1024">
	<path fill="#000000" d="M774 -621Q792 -623 795 -640H808V-570H795Q790 -589 774 -589H543Q528 -587 523 -570H509V-640H522Q527 -621 543 -621ZM605 -91H686Q713 -91 713 -116V-423Q714 -446 686 -445H605ZM58 -14H71Q77 5 92 -1L166 -28V-507H106Q90 -505 86 -488H73V-559H86Q90 -540 106 -540H166V-737Q167 -769 138 -768V-781H275V-768Q247 -765 247 -737V-540H302Q321 -542 322 -559H335V-488H322Q319 -506 302 -507H247V-57L316 -82Q334 -89 336 -103H349V-29H336Q330 -49 316 -45L92 35Q76 42 71 59H58ZM544 -443Q544 -462 523 -465V-478H706Q743 -479 756 -468Q775 -457 775 -426V-118Q775 -90 757 -74Q738 -58 706 -58H523V-71Q544 -74 544 -94ZM466 32Q464 58 493 62V75H360V62Q387 59 386 32V-721Q386 -741 360 -745V-757H838Q896 -758 914 -735Q931 -717 931 -675V-15Q931 45 882 71Q843 90 776 81Q722 74 686 47V-7H698Q708 38 778 48Q847 51 851 -5V-686Q850 -724 812 -725H466Z"/>
</svg>