<svg xmlns="http://www.w3.org/2000/svg" viewBox="0 -800 1024 1024">
	<path fill="#000000" d="M507 -569Q534 -569 534 -597V-665H434V-569ZM409 -222H463V-434H409ZM540 -434H514V-222H540Q569 -223 569 -245V-412Q570 -436 540 -434ZM146 1H197Q233 -1 235 -40V-686Q234 -725 197 -725H146ZM866 -496Q869 -542 824 -540H769L752 -3Q751 40 725 64Q697 85 664 82Q625 79 594 47V-6H607Q613 27 637 43Q678 60 683 7L700 -540H661Q645 -539 641 -521H628V-592H641Q645 -574 661 -573H701L706 -737Q708 -766 681 -769V-781H802V-769Q776 -764 776 -737L770 -573H839Q890 -573 913 -553Q932 -531 932 -487V4Q931 44 907 65Q880 88 845 80Q816 75 795 50V-6H807Q813 26 839 41Q865 49 866 11ZM349 -536V-549Q372 -553 372 -572V-665H358Q343 -664 338 -646H325V-717H338Q342 -697 358 -698H372V-747Q373 -767 350 -769V-781H456V-769Q433 -766 434 -747V-698H534V-747Q535 -767 512 -769V-781H618V-769Q596 -766 597 -747V-698H611Q627 -699 630 -717H642V-648H630Q625 -665 611 -665H597V-603Q597 -569 578 -552Q562 -536 523 -536V-466H554Q593 -466 608 -452Q626 -436 626 -401V-256Q626 -222 608 -206Q593 -192 554 -192H523V-118H607Q624 -120 626 -137H640V-66H626Q622 -84 607 -85H523V31Q522 59 549 62V75H427V62Q455 58 454 31V-85H360Q344 -83 340 -66H327V-137H340Q343 -118 360 -118H454V-192H330V-205Q351 -207 352 -227V-430Q352 -449 330 -453V-466H454V-536ZM81 -719Q82 -739 58 -745V-757H205Q260 -757 281 -734Q299 -715 299 -675V-54Q299 -12 280 9Q258 34 203 34H58V21Q81 18 81 -6Z"/>
</svg>