<svg xmlns="http://www.w3.org/2000/svg" viewBox="0 -800 1024 1024">
	<path fill="#000000" d="M565 -582Q548 -594 528 -597V-610H691V-597Q682 -595 680 -592Q677 -589 682 -585L810 -498Q844 -477 879 -487Q922 -502 930 -549H942V-492Q928 -473 897 -459Q859 -443 810 -446Q755 -451 712 -481ZM471 -51Q504 -52 505 -85V-225Q504 -256 471 -257H232V-51ZM300 -481Q258 -451 200 -446Q150 -443 112 -460Q85 -471 67 -492V-549H80Q90 -502 131 -489Q172 -481 206 -502L427 -653H117Q101 -651 97 -634H84V-705H97Q100 -686 117 -686H461Q462 -688 462 -695V-737Q463 -769 434 -769V-781H579V-769Q550 -766 551 -737V-686H892Q910 -688 913 -705H925V-634H913Q909 -652 892 -653H542Q536 -644 529 -639ZM915 -395Q933 -397 936 -414H949V-343H936Q932 -361 915 -362H836V-33Q836 38 763 67Q700 92 604 80Q543 72 493 47V-3H506Q524 28 585 42Q641 53 690 41Q745 24 746 -21V-362H92Q76 -361 71 -343H58V-414H71Q76 -395 92 -395ZM502 -289Q547 -289 566 -276Q590 -259 590 -220V-88Q590 -49 567 -35Q547 -18 503 -18H120V-31Q145 -34 146 -55V-254Q146 -271 120 -277V-289Z"/>
</svg>