<svg xmlns="http://www.w3.org/2000/svg" viewBox="0 -800 1024 1024">
	<path fill="#000000" d="M68 -781H230V-769Q205 -764 214 -750L273 -693Q290 -676 317 -674V-661H156V-674Q170 -675 175 -681Q179 -687 172 -694L113 -752Q94 -768 68 -769ZM68 -632H225V-619Q201 -615 208 -601L269 -532Q283 -517 313 -513V-501H155V-513Q183 -517 172 -533L111 -603Q96 -618 68 -619ZM465 -689V-562H606V-689ZM58 -376H71Q76 -342 104 -334Q123 -329 134 -347L184 -437Q192 -454 165 -461V-474H313V-461Q289 -457 274 -437L214 -329Q199 -301 158 -294Q125 -292 100 -300Q74 -309 58 -328ZM688 -99Q728 -115 728 -153V-175H280V-153Q280 -115 320 -99L504 -45ZM528 -473Q510 -484 490 -486V-499H661V-486Q648 -485 643 -480Q639 -475 646 -470L714 -424L832 -502Q844 -511 842 -521Q840 -530 825 -530H465V-382Q465 -332 438 -308Q411 -283 364 -286Q321 -291 292 -327V-375H304Q314 -335 342 -328Q376 -322 377 -363V-685Q377 -705 354 -709V-721H606V-737Q606 -766 578 -769V-781H721V-769Q693 -765 693 -737V-721H843Q878 -721 898 -707Q917 -696 916 -665V-629Q917 -602 941 -602V-589H808V-602Q834 -603 835 -629V-662Q836 -690 805 -689H693V-562H866Q914 -561 925 -526Q934 -492 892 -462L774 -383L845 -336Q877 -316 908 -330Q934 -342 936 -377H949V-338Q940 -311 918 -300Q891 -284 851 -284Q806 -285 765 -313L717 -345L677 -318Q638 -292 599 -289Q558 -288 534 -302Q510 -316 500 -335V-380H513Q521 -344 545 -336Q569 -327 596 -345L657 -385ZM59 -9H73Q86 38 142 46Q173 54 260 26L393 -13L239 -55Q211 -68 199 -92Q189 -113 189 -144V-175H104Q88 -174 83 -156H71V-227H83Q88 -208 104 -208H189V-231Q187 -247 166 -250V-264H303V-249Q280 -247 280 -230V-208H728V-230Q728 -247 705 -249V-264H842V-250Q821 -247 819 -231V-208H904Q921 -210 924 -227H937V-156H924Q918 -175 904 -175H819V-144Q819 -113 809 -92Q797 -68 769 -55L614 -13L748 26Q800 42 821 45Q847 50 866 46Q922 38 935 -9H949V45Q924 69 874 80Q829 88 782 85Q746 82 684 66L504 17L324 66Q262 82 226 85Q179 88 134 80Q85 69 59 45Z"/>
</svg>