<svg xmlns="http://www.w3.org/2000/svg" viewBox="0 -800 1024 1024">
	<path fill="#000000" d="M534 -528H515V-312H534Q569 -312 569 -347V-497Q570 -529 534 -528ZM415 -312H469V-528H415ZM554 -235H642V-223Q621 -219 623 -201L643 -46Q645 -29 668 -25V-12H576V-25Q599 -29 597 -46L576 -201Q575 -218 554 -223ZM315 -25Q338 -29 341 -46L360 -201Q362 -219 342 -223V-235H430V-223Q408 -218 407 -201L387 -46Q386 -28 407 -25V-12H315ZM218 -302Q230 -334 229 -386V-587H158V-386Q157 -334 169 -302L193 -232ZM717 -747Q718 -764 694 -768V-781H813V-768Q789 -765 785 -747L772 -628H908Q925 -630 928 -647H941V-576H928Q923 -594 908 -595H904V-326Q905 -286 889 -249L829 -109L890 22Q899 40 908 42Q917 44 927 29Q936 14 937 0H949V48Q937 67 921 75Q897 90 866 78Q844 68 826 34L796 -31L768 34Q755 61 735 74Q709 90 677 77Q660 70 642 47V5H655Q657 20 669 36Q688 54 701 27L759 -110L695 -249Q678 -280 680 -327V-397Q679 -413 659 -418V-430H767V-418Q747 -413 746 -397V-319Q746 -290 755 -272L793 -189L827 -270Q837 -294 837 -321V-595H768L761 -528Q757 -489 734 -471Q708 -455 681 -464Q664 -471 651 -490V-531H662Q666 -503 678 -500Q690 -499 692 -520ZM335 -279V-292Q357 -296 358 -320V-524Q358 -545 337 -548V-561H455V-642H378Q363 -640 358 -623H345V-694H358Q363 -674 378 -675H455V-737Q456 -769 428 -769V-781H556V-769Q528 -765 529 -737V-675H607Q625 -677 628 -694H641V-623H628Q624 -641 607 -642H529V-561H540Q588 -561 608 -543Q628 -527 626 -486V-367Q626 -324 610 -304Q591 -278 541 -279H529V31Q528 59 556 62V75H428V62Q455 59 455 31V-279ZM313 -778V-766Q288 -761 287 -736V-620H296Q313 -622 316 -639H328V-568H316Q312 -586 296 -587H287V-393Q288 -321 271 -282L223 -147L287 31Q303 55 310 2H325V54Q312 78 289 82Q250 86 234 50L194 -63L154 50Q138 86 99 82Q74 77 61 54V-5H78Q84 53 101 31L164 -148L117 -282Q100 -328 101 -393V-587H95Q80 -585 75 -568H63V-639H75Q80 -620 95 -620H101V-736Q100 -761 75 -766V-778H184V-767Q158 -763 158 -737V-620H229V-737Q229 -763 203 -767V-778Z"/>
</svg>