<svg xmlns="http://www.w3.org/2000/svg" viewBox="0 -800 1024 1024">
	<path fill="#000000" d="M446 -193V-92H810V-153Q811 -194 765 -193ZM765 42Q810 42 810 3V-59H446V42ZM227 -725V-610H786Q817 -610 817 -641V-698Q817 -725 784 -725ZM227 4Q226 54 188 73Q155 91 109 76Q79 68 58 45V-12H72Q76 18 97 35Q136 56 138 11V-719Q138 -740 113 -745V-757H821Q866 -757 884 -745Q905 -731 905 -696V-646Q905 -611 889 -597Q873 -577 826 -578H227ZM736 -467Q753 -469 756 -486H769V-415H756Q751 -433 736 -434H628V-343H733L827 -486Q836 -503 809 -506V-519H943V-506Q928 -504 916 -486L822 -343H915Q933 -345 936 -362H949V-291H936Q932 -309 915 -310H526L467 -226H796Q852 -226 875 -207Q898 -186 898 -144V-6Q898 37 873 55Q849 75 797 75H330V62Q357 57 358 35V-100Q325 -90 298 -99Q272 -107 257 -124V-168H270Q273 -149 284 -140Q302 -122 318 -147L433 -310H313Q297 -309 292 -291H280V-362H292Q297 -343 313 -343H539V-434H358Q343 -432 338 -415H325V-486H338Q343 -466 358 -467H539V-500Q539 -531 511 -532V-544H655V-532Q628 -528 628 -500V-467Z"/>
</svg>