<svg xmlns="http://www.w3.org/2000/svg" viewBox="0 -800 1024 1024">
	<path fill="#000000" d="M374 -592Q402 -592 402 -621V-671H229V-592ZM427 -316Q465 -318 467 -355V-424Q466 -460 427 -461H357V-316ZM164 -461V-316H274V-461ZM858 -491Q857 -539 810 -540H737L728 3Q728 42 702 67Q669 91 624 80Q592 72 572 49V-11H584Q592 31 618 37Q645 40 648 1L657 -540H597Q582 -539 577 -521H565V-592H577Q582 -575 597 -573H657L660 -737Q662 -766 633 -769V-781H767V-769Q739 -765 740 -737L737 -573H828Q889 -573 913 -545Q933 -523 933 -480V-3Q933 40 906 64Q880 87 835 82Q796 79 757 49V-9H769Q777 33 814 42Q855 45 858 1ZM123 -559V-572Q147 -575 147 -594V-671H91Q76 -669 71 -652H59V-722H71Q75 -703 91 -703H147V-745Q146 -765 122 -769V-781H254V-769Q229 -764 229 -745V-703H402V-745Q402 -766 378 -769V-781H509V-769Q485 -764 485 -745V-703H539Q556 -705 559 -722H572V-652H559Q555 -670 539 -671H485V-625Q485 -591 466 -574Q448 -559 409 -559H357V-494H453Q494 -494 514 -478Q538 -461 538 -422V-359Q538 -320 518 -302Q498 -283 453 -283H357V-218H517Q534 -220 537 -237H550V-166H537Q533 -184 517 -185H357V-108H490Q507 -110 510 -127H523V-57H510Q505 -75 490 -76H357V6L516 -9Q534 -12 536 -27H549V42H536Q531 23 516 24L91 64Q75 67 72 83H59V14H71Q74 32 91 32L274 14V-76H138Q122 -74 118 -57H105V-127H118Q121 -108 138 -108H274V-185H110Q94 -183 90 -166H77V-237H90Q93 -218 110 -218H274V-283H70V-296Q93 -299 93 -323V-456Q92 -476 70 -481V-494H274V-559Z"/>
</svg>