<svg xmlns="http://www.w3.org/2000/svg" viewBox="0 -800 1024 1024">
	<path fill="#000000" d="M517 -674H596V-662Q577 -659 581 -640L594 -518Q595 -499 613 -495V-483H534V-495Q556 -498 551 -518L539 -640Q538 -661 517 -662ZM716 -495Q735 -498 737 -518L749 -640Q754 -659 734 -662V-674H813V-662Q793 -661 792 -640L779 -518Q775 -498 796 -495V-483H716ZM825 -112H926V-99Q908 -95 909 -83L929 44Q930 58 948 62V75H847V62Q865 58 864 44L844 -83Q842 -96 825 -99ZM680 -112H782V-99Q764 -96 764 -83L782 44Q784 59 802 62V75H700V62Q718 58 717 44L699 -83Q698 -95 680 -99ZM536 -112H638V-99Q620 -95 620 -83L638 44Q641 59 658 62V75H555V62Q574 58 573 44L555 -83Q553 -96 536 -99ZM359 62Q376 59 382 44L419 -83Q423 -95 403 -99V-112H510V-99Q494 -95 490 -83L454 44Q449 58 471 62V75H359ZM795 -432Q832 -434 834 -473V-686Q833 -724 795 -725H695V-432ZM497 -725V-432H636V-725ZM155 1H223Q258 -1 260 -40V-686Q259 -724 223 -725H155ZM81 -719Q82 -739 58 -745V-757H240Q295 -757 316 -734Q334 -715 334 -675V-54Q334 -11 314 9Q293 34 238 34H58V21Q81 18 81 -6ZM915 -191Q933 -193 936 -210H949V-139H936Q931 -158 915 -158H412Q396 -156 392 -139H379V-210H392Q395 -191 412 -191H621V-278H441Q425 -276 421 -259H408V-330H421Q424 -311 441 -311H621V-399H394V-412Q418 -416 419 -436V-721Q419 -740 394 -745V-757H815Q873 -757 894 -734Q912 -715 912 -675V-487Q912 -443 892 -424Q870 -398 816 -399H710V-311H888Q906 -312 909 -330H922V-259H909Q905 -277 888 -278H710V-191Z"/>
</svg>