<svg xmlns="http://www.w3.org/2000/svg" viewBox="0 -800 1024 1024">
	<path fill="#000000" d="M895 49Q849 59 807 44Q782 36 746 -3L667 -82Q650 -100 635 -100V-113H787V-100Q759 -92 767 -81L838 -6Q858 13 886 15Q930 10 933 -25H946V21Q927 41 895 49ZM109 49Q78 41 58 21V-25H71Q74 10 118 15Q146 13 166 -6L237 -81Q242 -96 217 -100V-113H369V-100Q354 -100 337 -82L258 -3Q222 36 197 44Q155 59 109 49ZM736 -505H548V-415H778V-463Q777 -504 736 -505ZM228 -505V-415H458V-505ZM736 -289Q774 -292 778 -333V-382H548V-289ZM228 -382V-289H458V-382ZM388 -677Q387 -694 403 -708L464 -752Q472 -759 468 -763Q463 -768 449 -769V-781H606V-769Q588 -765 572 -752L489 -692Q476 -679 492 -666L549 -620Q579 -599 604 -607Q620 -615 619 -636H632V-592Q615 -577 592 -571Q562 -563 532 -568Q497 -573 470 -598L403 -651Q390 -660 388 -677ZM687 -678Q686 -695 702 -708L763 -752Q771 -759 767 -763Q762 -768 748 -769V-781H906V-769Q886 -765 871 -752L788 -692Q775 -679 791 -666L848 -620Q878 -599 903 -607Q919 -615 918 -636H931V-592Q914 -577 891 -571Q862 -563 831 -568Q796 -573 769 -598L702 -651Q689 -661 687 -678ZM89 -680Q89 -695 104 -708L165 -752Q172 -759 168 -763Q164 -768 149 -769V-781H307V-769Q289 -765 273 -752L190 -692Q178 -679 192 -666L250 -620Q280 -599 305 -607Q320 -614 320 -636H333V-592Q316 -577 293 -571Q262 -563 233 -568Q198 -573 171 -598L103 -651Q88 -665 89 -680ZM548 31Q547 57 576 62V75H430V62Q459 58 458 31V-162H99Q84 -160 79 -143H66V-214H79Q83 -194 99 -195H458V-258H112V-270Q136 -273 137 -294V-500Q137 -521 112 -524V-537H772Q826 -537 849 -514Q869 -493 869 -457V-347Q869 -302 847 -281Q825 -257 768 -258H548V-195H906Q924 -197 927 -214H939V-143H927Q923 -161 906 -162H548Z"/>
</svg>