<svg xmlns="http://www.w3.org/2000/svg" viewBox="0 -800 1024 1024">
	<path fill="#000000" d="M223 -725V-558H784Q816 -558 816 -589V-699Q816 -725 783 -725ZM494 -12Q489 38 456 60Q420 85 363 82Q303 77 271 42V-16H284Q290 29 331 44Q392 59 404 -5L444 -303H326Q311 -302 306 -284H293V-354H306Q310 -335 326 -335H449L463 -440Q468 -467 438 -467V-479H582V-467Q555 -465 553 -440L538 -335H732Q775 -335 799 -316Q825 -298 825 -250V15Q828 50 874 43Q930 30 935 -16H948V42Q915 70 866 79Q800 91 764 66Q735 46 735 7V-264Q733 -301 697 -303H534ZM223 4Q222 43 196 64Q163 89 116 77Q79 69 58 45V-12H72Q77 18 97 34Q132 51 133 11V-719Q133 -740 108 -745V-757H824Q869 -757 886 -742Q905 -729 905 -695V-594Q905 -562 884 -544Q863 -526 824 -526H223Z"/>
</svg>