<svg xmlns="http://www.w3.org/2000/svg" viewBox="0 -800 1024 1024">
	<path fill="#000000" d="M172 -157Q176 -68 290 -74Q422 -97 446 -187H459V-122Q424 -84 375 -60Q302 -27 235 -28Q167 -25 128 -58Q85 -92 85 -159V-661Q84 -689 59 -694V-707H284Q309 -706 322 -725L344 -754Q350 -765 329 -769V-781H462V-769Q448 -768 439 -756L402 -707Q388 -688 370 -681Q355 -674 320 -674H172V-432H418Q435 -434 438 -451H451V-380H438Q434 -398 418 -399H172ZM618 31Q616 58 646 62V75H504V62Q532 58 531 31V-719Q530 -740 505 -745V-757H843Q891 -758 911 -742Q932 -724 932 -683V-150Q933 -90 897 -63Q859 -32 793 -36Q727 -44 688 -79V-143H701Q710 -111 730 -95Q778 -63 820 -85Q847 -101 848 -143V-694Q849 -726 815 -725H618Z"/>
</svg>