<svg xmlns="http://www.w3.org/2000/svg" viewBox="0 -800 1024 1024">
	<path fill="#000000" d="M458 -213Q458 -237 430 -241V-254H579V-241Q551 -237 550 -213V-151H858Q875 -153 878 -170H891V-100H878Q874 -118 858 -119H550V32H915Q933 30 936 13H949V83H936Q932 65 915 64H92Q76 65 71 83H58V13H71Q75 32 92 32H458V-119H149Q133 -117 129 -100H116V-170H129Q133 -151 149 -151H458ZM325 -365Q314 -310 260 -286Q218 -268 149 -276Q95 -283 58 -310V-369H71Q84 -310 173 -312Q227 -319 235 -359L285 -623H103Q87 -622 82 -604H70V-675H82Q86 -656 103 -656H292L309 -746Q314 -767 288 -769V-781H429V-769Q402 -764 400 -746L382 -656H674L655 -734Q650 -754 622 -757V-770H769V-757Q743 -754 746 -736L766 -656H904Q922 -658 925 -675H938V-604H925Q921 -622 904 -623H634V-438H713Q767 -435 776 -465L794 -507Q801 -524 778 -527V-540H920V-527Q899 -523 892 -508L862 -451Q848 -426 821 -414Q801 -404 752 -405H634V-369Q634 -321 697 -312Q757 -304 836 -318Q923 -334 936 -376H949V-316Q901 -291 808 -279Q691 -266 642 -276Q544 -291 545 -373V-405H445Q429 -404 424 -386H411V-457H424Q429 -438 445 -438H545V-623H376Z"/>
</svg>