<svg xmlns="http://www.w3.org/2000/svg" viewBox="0 -800 1024 1024">
	<path fill="#000000" d="M756 -497H647V-353H809V-454Q810 -496 756 -497ZM756 -175Q809 -175 809 -229V-321H647V-175ZM259 -493Q264 -473 294 -468V-455H151V-468Q178 -471 169 -493L95 -743Q87 -765 59 -769V-781H203V-769Q177 -765 184 -743ZM182 -316Q184 -334 160 -340V-353H296V-340Q272 -333 269 -316L221 15Q217 45 189 68Q164 86 122 83Q83 78 58 49V-10H71Q77 32 98 42Q127 49 134 17ZM915 -353Q933 -355 936 -372H949V-302H936Q931 -321 915 -321H891V-240Q891 -192 866 -168Q839 -142 787 -142H647V-25Q647 34 610 61Q579 83 510 82Q434 77 385 46V-14H398Q404 34 482 47Q553 50 556 -12V-142H399Q383 -141 378 -123H365V-194H378Q381 -175 399 -175H556V-321H357Q341 -320 336 -302H323V-372H336Q341 -353 357 -353H556V-497H399Q383 -496 378 -478H365V-549H378Q382 -530 399 -530H628L687 -643Q695 -660 674 -662H514L488 -611Q473 -585 446 -575Q418 -565 381 -570Q335 -580 315 -602V-650H327Q332 -626 352 -614Q380 -597 399 -626L461 -750Q469 -765 442 -769V-781H587V-769Q567 -766 559 -751L530 -695H723Q758 -695 773 -677Q790 -655 774 -623L724 -530H787Q838 -530 864 -510Q891 -489 891 -440V-353Z"/>
</svg>