<svg xmlns="http://www.w3.org/2000/svg" viewBox="0 -800 1024 1024">
	<path fill="#000000" d="M519 -672V-568H800V-633Q799 -671 760 -672ZM760 -432Q797 -434 800 -474V-537H519V-432ZM702 31Q700 58 730 62V75H589V62Q618 58 617 31V-83H445Q429 -82 424 -64H411V-135H424Q429 -116 445 -116H617V-189Q618 -220 589 -220V-233H730V-220Q701 -216 702 -189V-116H874Q892 -118 895 -135H907V-64H895Q891 -82 874 -83H702ZM155 1H234Q270 0 271 -40V-686Q270 -724 234 -725H155ZM523 -205Q500 -177 466 -167Q439 -159 404 -170Q384 -176 369 -191V-237H382Q387 -207 407 -204Q425 -201 441 -219L505 -296H417Q401 -295 396 -278H383V-348H396Q401 -329 417 -329H533L593 -400H407V-412Q431 -416 432 -438V-667Q431 -688 407 -692V-705H571L588 -748Q595 -769 570 -769V-781H703V-769Q683 -770 678 -751L660 -705H793Q846 -705 869 -682Q887 -661 886 -623V-487Q886 -443 867 -424Q845 -400 791 -400H687L627 -329H901Q919 -331 922 -348H935V-278H922Q917 -296 901 -296H812L877 -219Q893 -200 912 -204Q931 -209 936 -237H949V-191Q934 -176 913 -170Q879 -159 853 -167Q821 -175 795 -205L718 -296H599ZM81 -719Q82 -739 58 -745V-757H251Q306 -757 327 -734Q345 -715 345 -675V-54Q345 -11 325 9Q304 34 249 34H58V21Q81 18 81 -6Z"/>
</svg>