<svg xmlns="http://www.w3.org/2000/svg" viewBox="0 -800 1024 1024">
	<path fill="#000000" d="M236 -386V-286H513V-386ZM236 -522V-421H513V-522ZM236 -629V-557H513V-659H251ZM748 42Q803 41 804 -4V-99Q803 -143 748 -144H237V42ZM788 -177Q838 -177 867 -157Q896 -137 896 -91V-14Q896 35 868 55Q844 75 788 75H119V62Q143 58 144 34V-139Q143 -160 119 -164V-177ZM58 -620H71Q75 -594 87 -582Q109 -568 123 -592L204 -747Q209 -763 184 -769V-781H333V-769Q307 -762 298 -747L268 -691H510L531 -750Q536 -765 513 -769V-781H651V-769Q629 -765 624 -750L603 -691H894Q912 -693 914 -710H927V-639H914Q910 -658 894 -659H602V-557H858Q876 -559 879 -576H892V-503H879Q875 -521 858 -522H602V-421H858Q876 -423 879 -440H892V-367H879Q875 -385 858 -386H602V-286H914Q932 -288 935 -305H948V-234H935Q931 -252 914 -253H119V-266Q146 -269 147 -293V-533Q127 -530 101 -539Q78 -545 58 -566Z"/>
</svg>