<svg xmlns="http://www.w3.org/2000/svg" viewBox="0 -800 1024 1024">
	<path fill="#000000" d="M429 -751H551V-738Q522 -733 533 -713L553 -677Q566 -656 587 -652V-639H465V-652Q495 -658 484 -677L464 -713Q449 -737 429 -738ZM776 -652Q798 -656 811 -677L831 -713Q841 -733 812 -738V-751H935V-738Q915 -737 900 -713L880 -677Q869 -658 898 -652V-639H776ZM415 -446H427Q428 -422 448 -414Q465 -410 471 -428L492 -508Q497 -522 473 -527V-540H588V-527Q569 -524 563 -507L541 -427Q531 -390 493 -381Q467 -377 443 -384Q423 -393 415 -402ZM776 -540H891V-527Q868 -522 871 -508L893 -428Q898 -410 915 -414Q936 -422 937 -446H949V-402Q939 -392 921 -384Q897 -377 871 -381Q833 -390 822 -427L801 -507Q794 -524 776 -527ZM723 -416Q722 -389 747 -386V-373H615V-386Q641 -389 640 -417V-574H462Q446 -572 442 -555H429V-626H442Q445 -607 462 -607H640V-737Q642 -769 617 -769V-781H744V-769Q721 -767 723 -737V-607H902Q918 -609 922 -629H934V-555H922Q916 -574 902 -574H723ZM595 -246Q602 -276 577 -275H526L517 -241Q512 -217 494 -206Q472 -194 444 -201Q423 -206 406 -220V-264H418Q420 -236 436 -231Q449 -228 455 -251L472 -326Q476 -342 455 -345V-358H564V-345Q543 -344 540 -326L535 -308H609Q647 -308 660 -285Q672 -264 662 -232L592 10Q580 53 552 69Q521 87 477 81Q438 74 411 53V6H424Q431 48 475 50Q508 51 522 6L538 -51H505Q475 -51 460 -62Q446 -73 442 -96L432 -143Q430 -157 411 -160V-173H505V-161Q485 -158 488 -143L498 -99Q500 -84 517 -84H548ZM669 -59Q684 -59 687 -76L704 -177Q707 -194 687 -197V-210H778V-197Q758 -196 755 -177L738 -79H803V-248H722Q706 -247 701 -229H689V-299H701Q706 -280 722 -280H803V-314Q804 -345 779 -345V-358H897V-345Q874 -343 876 -314V-280H909Q926 -282 929 -299H941V-229H929Q923 -248 909 -248H876V-79H917Q934 -81 937 -98H950V-27H937Q933 -45 917 -46H876V31Q875 59 901 62V75H777V62Q804 58 803 31V-46H669ZM131 2H196V-737Q197 -768 169 -769V-781H294V-769Q267 -764 268 -737V2H291Q332 1 333 -34V-590Q333 -616 312 -618V-631H405V-618Q382 -616 383 -590V-42Q383 0 361 17Q339 35 293 35H60V22Q81 20 81 -1V-590Q83 -618 60 -618V-631H155V-618Q131 -616 131 -590Z"/>
</svg>