<svg xmlns="http://www.w3.org/2000/svg" viewBox="0 -800 1024 1024">
	<path fill="#000000" d="M612 -217Q612 -222 611 -224Q580 -219 543 -206Q507 -192 501 -189Q482 -179 477 -166L478 -165Q480 -168 485 -171H499Q555 -175 610 -179V-185Q611 -201 612 -217ZM411 -355Q412 -342 392 -325Q372 -308 358 -313Q350 -315 326 -285Q305 -259 294 -240H297Q328 -238 337 -215Q346 -193 353 -170Q350 -153 350 -136Q351 -112 351 -89V-81Q349 -69 349 -63Q350 -57 350 -52Q350 -48 346 -48Q341 -59 340 -89Q339 -122 332 -132H330Q326 -132 324 -129Q322 -126 321 -123Q319 -109 319 -93V-5Q319 23 334 30Q338 24 340 7Q341 -8 344 -13Q352 -9 352 5Q352 13 351 20Q344 80 310 80Q307 80 304 79Q298 77 277 61Q257 44 249 30Q248 23 246 15Q243 9 239 3V-1Q240 -7 240 -14Q240 -19 237 -22Q234 -25 223 -25Q248 -53 248 -105Q248 -137 236 -157Q214 -142 191 -91Q171 -76 163 -57L147 -24Q140 -9 132 0Q121 11 109 11Q98 11 87 3H86Q83 6 79 9H77L80 -6Q74 -19 65 -36Q55 -52 54 -72V-76Q54 -107 56 -116Q60 -135 77 -141Q82 -162 86 -206Q90 -259 97 -280Q99 -268 99 -259Q97 -229 94 -199Q94 -178 103 -165Q110 -169 110 -181Q109 -197 107 -214Q107 -227 114 -233V-221Q114 -183 125 -183Q126 -182 151 -207Q211 -265 264 -342Q273 -354 284 -371Q294 -388 295 -406Q295 -418 287 -426H293Q308 -427 320 -436Q332 -445 344 -453Q349 -453 353 -454Q386 -452 395 -422Q405 -390 411 -355ZM392 -541Q392 -513 376 -500Q356 -483 334 -472Q325 -467 317 -465Q304 -461 299 -457Q291 -447 283 -438Q239 -398 234 -393Q209 -368 197 -346Q171 -368 151 -368Q138 -368 127 -358V-361Q130 -369 135 -372Q130 -376 123 -376Q116 -376 103 -369Q92 -363 87 -362V-363Q93 -375 105 -391H100Q88 -391 74 -376Q60 -360 48 -358Q72 -392 100 -421Q127 -450 154 -481Q163 -492 171 -502Q179 -513 191 -520Q188 -507 169 -486Q145 -458 144 -438Q212 -485 265 -581Q263 -584 261 -588Q249 -587 239 -573Q230 -560 221 -558Q220 -560 220 -564Q221 -572 227 -578Q233 -583 237 -589V-592Q237 -598 243 -609Q249 -619 249 -624V-627Q247 -639 244 -652Q244 -656 245 -658Q249 -655 254 -647Q261 -635 268 -633Q275 -636 275 -644Q275 -647 273 -655Q298 -660 318 -660Q357 -660 366 -632Q367 -629 367 -623V-615Q373 -601 381 -592Q392 -563 392 -541ZM916 78V80Q915 84 914 87V89Q908 86 902 83Q895 80 893 71Q895 70 898 70Q909 73 916 78ZM833 -46V-43Q833 -36 824 -32Q818 -29 816 -26Q812 -29 812 -34Q814 -47 826 -49Q830 -49 833 -46ZM565 -479Q549 -463 540 -460Q514 -450 488 -450H485Q472 -456 461 -459H459Q447 -461 440 -481Q429 -513 427 -527H439L440 -528Q439 -530 439 -532V-534Q462 -540 483 -540Q514 -540 538 -528Q545 -515 558 -503Q565 -492 565 -479ZM842 -670Q868 -670 890 -664Q903 -656 913 -640Q923 -631 923 -621Q922 -611 911 -601Q899 -592 887 -584Q838 -552 820 -502Q807 -501 792 -500Q776 -499 766 -492Q768 -496 769 -501H766Q756 -501 746 -490Q739 -483 736 -482V-483Q736 -488 741 -493Q746 -498 747 -502H745Q731 -501 724 -491Q718 -481 712 -470Q715 -510 744 -550Q755 -566 762 -566L765 -565V-564Q760 -549 755 -535Q755 -529 760 -527Q782 -565 788 -590H785Q777 -590 772 -582Q768 -576 765 -575Q764 -577 764 -580Q767 -593 770 -607Q770 -613 768 -616Q765 -621 768 -636Q729 -628 676 -606Q686 -596 695 -584Q693 -583 690 -583Q685 -583 678 -589Q669 -597 663 -597H659Q661 -587 672 -571Q686 -551 686 -536Q686 -530 685 -526Q689 -520 693 -520Q702 -525 702 -535Q698 -553 693 -572V-573Q706 -569 709 -556Q713 -542 718 -530Q718 -526 713 -519Q708 -512 708 -505V-503Q693 -501 685 -496Q693 -479 693 -451V-439Q670 -427 637 -416Q628 -415 619 -414Q610 -412 605 -404Q612 -398 630 -398Q643 -398 655 -399Q674 -399 680 -392Q691 -399 709 -420Q727 -441 739 -449V-475L741 -476Q743 -476 745 -473Q748 -468 751 -467Q765 -461 779 -455Q806 -431 812 -398V-395Q809 -377 754 -357Q726 -347 719 -344Q702 -336 693 -323Q741 -326 760 -335Q765 -335 769 -331Q778 -335 793 -337Q809 -339 819 -344Q815 -353 815 -364Q815 -390 834 -400Q884 -393 898 -365L923 -374Q923 -371 920 -368Q916 -364 916 -361V-359Q918 -355 920 -354Q922 -354 927 -358Q935 -364 941 -364Q943 -364 949 -362Q944 -358 938 -354Q933 -350 930 -344Q935 -329 948 -329H953V-328Q951 -326 949 -324V-322Q953 -310 953 -299Q953 -283 944 -264Q941 -258 927 -235Q920 -241 910 -241Q901 -240 892 -240Q885 -240 881 -241Q872 -243 862 -254Q852 -265 840 -265H836Q803 -265 751 -256Q751 -267 764 -271Q767 -272 788 -275L834 -281Q822 -287 803 -287Q779 -287 751 -280Q735 -277 720 -273Q705 -270 696 -259Q704 -261 710 -261Q728 -261 732 -252Q725 -246 713 -245Q700 -244 690 -241Q698 -199 711 -188Q761 -195 810 -203Q821 -204 845 -210Q876 -218 892 -218Q905 -218 916 -214V-209Q913 -204 904 -203Q896 -202 893 -198Q891 -196 891 -190Q891 -189 896 -172Q899 -173 904 -173Q910 -173 920 -171Q919 -163 910 -163H904Q901 -158 901 -156Q903 -148 911 -142H905Q911 -118 916 -94H912Q908 -94 896 -87Q879 -92 864 -92Q835 -92 815 -81Q807 -84 799 -88Q784 -81 725 -79Q732 -61 755 -45Q784 -24 790 -17Q800 -19 809 -21V-19Q808 -14 807 -9Q816 1 827 1Q835 1 854 -7Q873 -15 885 -15Q892 -15 898 -12Q884 -8 857 0Q833 7 831 20V21Q831 32 847 32Q858 32 875 27Q870 33 858 36Q845 39 843 54Q843 72 869 72Q880 72 886 71Q875 77 860 81Q845 84 843 101V103Q843 107 848 111Q852 115 854 121H850Q831 121 810 135Q779 119 745 106V104Q742 97 739 86V84Q753 90 763 98Q746 17 686 -32Q690 -18 706 7Q728 41 728 66V70Q714 52 688 7Q669 -25 656 -44Q627 -17 611 25Q596 67 580 109Q565 102 544 99Q523 95 518 77Q494 69 469 55Q471 54 474 54Q486 56 498 58Q501 58 503 57Q492 44 471 39Q450 35 431 30Q437 27 444 27Q450 27 464 32Q478 37 489 37H495Q479 21 425 10Q385 2 370 -5Q375 -6 384 -6Q409 -6 452 8Q492 21 511 21Q521 21 526 20Q542 -10 560 -36Q522 -31 506 -11H503Q498 -9 492 -8Q486 -18 474 -20Q471 -33 455 -38Q453 -47 447 -59Q437 -79 437 -90Q442 -115 450 -141L446 -142Q440 -140 434 -139Q438 -153 455 -162Q436 -175 416 -188Q396 -201 394 -233V-236Q389 -244 383 -252Q385 -258 385 -261Q385 -269 375 -282Q369 -290 367 -296Q383 -288 398 -281Q398 -287 405 -292Q423 -292 429 -287Q458 -295 489 -301Q519 -308 546 -319Q543 -322 535 -322Q520 -322 517 -315Q499 -319 481 -323Q478 -334 470 -347Q463 -358 461 -365Q458 -377 458 -391Q458 -410 466 -420Q474 -429 487 -429Q500 -429 517 -432Q529 -435 558 -460Q585 -483 601 -486Q592 -469 578 -459Q564 -449 552 -437Q571 -444 596 -464Q598 -466 635 -498Q633 -501 631 -504H630Q625 -504 618 -499Q612 -495 609 -495H607Q608 -502 617 -512Q614 -513 608 -513Q603 -513 600 -512Q602 -516 604 -521Q595 -528 582 -528Q572 -528 567 -524L565 -526Q571 -531 576 -536Q574 -549 557 -549Q547 -549 544 -551Q549 -556 554 -561Q553 -564 548 -564Q545 -564 539 -562Q480 -549 440 -550Q434 -550 420 -544Q429 -563 453 -576H459Q471 -576 472 -583Q467 -583 466 -585Q468 -586 470 -587Q472 -588 472 -591Q466 -594 460 -594Q449 -593 438 -592H435Q444 -596 453 -601V-613Q446 -618 437 -618Q432 -618 429 -617Q425 -628 427 -632Q509 -675 605 -712Q598 -698 584 -691Q570 -685 557 -680Q519 -663 508 -649Q568 -666 669 -721Q664 -729 655 -729Q636 -724 617 -719Q632 -732 650 -743Q650 -765 669 -774Q684 -781 712 -781Q735 -780 758 -780Q770 -780 775 -781Q782 -777 798 -764Q814 -750 827 -745Q824 -742 824 -736Q824 -728 828 -725H830Q836 -728 839 -732L840 -731Q837 -722 837 -705Q837 -684 843 -675Q843 -672 842 -670Z"/>
</svg>