<svg xmlns="http://www.w3.org/2000/svg" viewBox="0 -800 1024 1024">
	<path fill="#000000" d="M548 -183V-162H741L632 -264H379L265 -162H459V-183Q460 -214 432 -214V-227H575V-214Q547 -210 548 -183ZM233 -578V-504H774V-549Q775 -579 739 -578ZM738 -396Q773 -398 774 -427V-473H233V-396ZM221 -781H368V-769Q339 -766 340 -744V-722H667V-744Q669 -768 639 -769V-781H786V-769Q757 -765 758 -744V-722H915Q933 -724 936 -740H949V-671H936Q931 -690 915 -690H758V-674Q757 -655 786 -651V-638H639V-651Q669 -654 667 -674V-690H340V-674Q339 -656 368 -651V-638H221V-651Q250 -653 249 -674V-690H92Q76 -689 71 -671H58V-740H71Q75 -722 92 -722H249V-744Q250 -769 221 -769ZM898 -298Q916 -300 919 -317H932V-245H919Q915 -263 898 -264H737L833 -174Q855 -156 896 -156Q930 -157 936 -193H949V-145Q928 -129 896 -125Q876 -122 852 -122Q857 -109 857 -90V-32Q857 14 814 31Q774 47 717 38Q673 32 644 14V-36H657Q668 -1 700 5Q772 18 771 -31V-95Q770 -128 732 -130H548V31Q547 57 577 62V75H431V62Q460 58 459 31V-130H243V5Q245 25 271 28V39H129V28Q156 25 157 5V-122Q136 -121 119 -124Q82 -129 59 -145V-193H72Q76 -165 104 -158Q143 -152 171 -174L270 -264H109Q93 -263 88 -245H75V-317H88Q93 -298 109 -298H308L381 -364H120V-376Q144 -381 146 -403V-573Q145 -594 120 -598V-610H786Q826 -611 842 -597Q861 -581 861 -550V-424Q861 -393 838 -376Q819 -364 786 -364H491L417 -298Z"/>
</svg>