<svg xmlns="http://www.w3.org/2000/svg" viewBox="0 -800 1024 1024">
	<path fill="#000000" d="M735 -320Q790 -321 791 -367V-567Q789 -610 735 -612H547V-360Q547 -338 544 -320ZM216 -612V-320H453Q459 -342 459 -367V-612ZM159 81Q92 80 42 45V-17H55Q68 34 126 42Q170 44 202 9L323 -141H109Q91 -140 89 -124H76V-193H89Q92 -175 109 -175H351L429 -271Q435 -278 440 -287H96V-300Q121 -305 122 -329V-606Q120 -628 96 -632V-644H459V-736Q460 -768 431 -768V-781H575V-768Q547 -764 547 -736V-644H775Q828 -644 856 -622Q885 -598 885 -554V-382Q885 -331 857 -310Q829 -287 776 -287H535Q527 -269 513 -252L451 -175H555Q612 -176 639 -166Q673 -153 701 -123L818 4Q898 80 949 -17H962V45Q912 93 843 86Q775 77 720 15L598 -118Q576 -141 519 -141H423L290 25Q242 80 159 81Z"/>
</svg>