<svg xmlns="http://www.w3.org/2000/svg" viewBox="0 -800 1024 1024">
	<path fill="#000000" d="M666 -25Q668 27 741 41Q798 51 858 28Q923 3 936 -46H949V18Q907 57 836 74Q754 93 682 77Q578 52 577 -33V-737Q577 -765 549 -769V-781H694V-769Q666 -766 666 -737ZM345 -9Q344 61 264 79Q214 89 161 72Q122 59 101 37V-22H114Q127 28 186 42Q251 53 256 0V-325L92 -288Q76 -283 71 -265H58V-338H71Q76 -318 92 -322L256 -360V-470Q254 -519 273 -542L395 -704Q402 -712 399 -719Q396 -725 384 -725H116Q101 -723 95 -706H83V-776H95Q99 -757 116 -757H454Q487 -757 496 -739Q506 -716 487 -687L358 -520Q344 -502 345 -470V-380L492 -415Q510 -421 512 -438H525V-365H512Q509 -383 492 -380L345 -346Z"/>
</svg>