<svg xmlns="http://www.w3.org/2000/svg" viewBox="0 -800 1024 1024">
	<path fill="#000000" d="M428 -441V-289H581V-441ZM428 -626V-474H581V-626ZM201 -441L176 -289H343V-441ZM794 -626H665V-474H792Q829 -473 828 -508V-593Q828 -627 794 -626ZM343 -742Q344 -766 317 -769V-781H453V-769Q427 -765 428 -742V-659H581V-737Q581 -767 554 -768V-781H693V-768Q665 -764 665 -737V-659H821Q866 -659 886 -644Q910 -630 910 -591V-515Q910 -476 888 -457Q865 -441 824 -441H665V-289H839Q881 -289 904 -273Q926 -257 926 -215V-97Q925 -50 884 -26Q842 -5 791 -18Q759 -28 733 -52V-103H746Q762 -64 796 -54Q840 -44 844 -88V-224Q844 -255 808 -255H665V31Q664 57 693 62V75H553V62Q581 58 581 31V-255H428V-22Q428 33 384 61Q346 85 287 84Q242 84 203 69Q169 55 148 33V-22H161Q172 13 206 31Q236 50 271 49Q341 46 343 -15V-255H71V-268Q93 -273 97 -302L118 -431Q122 -457 94 -461V-474H343V-626H108Q92 -625 88 -607H75V-678H88Q91 -661 108 -659H343Z"/>
</svg>