<svg xmlns="http://www.w3.org/2000/svg" viewBox="0 -800 1024 1024">
	<path fill="#000000" d="M525 -529H681V-516Q654 -515 663 -508L727 -475Q740 -465 757 -466V-453H603V-466Q629 -467 621 -474L558 -507Q543 -515 525 -516ZM98 -529H254V-516Q228 -515 237 -508L301 -475Q312 -466 331 -466V-453H177V-466Q203 -467 195 -474L132 -507Q117 -515 98 -516ZM509 -411H521Q526 -381 547 -372Q565 -365 591 -382L628 -408Q637 -420 612 -421V-434H759V-421Q741 -418 727 -406L669 -364Q639 -340 603 -336Q573 -331 546 -343Q525 -351 509 -369ZM66 -411H78Q84 -379 109 -372Q135 -364 163 -382L201 -408Q210 -419 185 -421V-434H333V-421Q315 -418 301 -406L241 -364Q209 -341 172 -336Q138 -330 103 -343Q83 -351 66 -369ZM336 -100Q290 -76 236 -69Q192 -64 158 -76Q128 -86 110 -103V-152H123Q134 -125 151 -114Q172 -102 199 -106Q225 -109 270 -133L415 -204Q427 -213 402 -218V-230H585V-218Q569 -215 549 -206ZM467 -29Q414 -2 324 8Q262 17 204 8Q145 0 110 -22V-77H122Q144 -42 184 -29Q224 -17 283 -24Q332 -31 384 -55L539 -131Q551 -139 526 -144V-157H715V-144Q692 -142 675 -133ZM390 -589Q441 -589 460 -567Q476 -548 476 -506V-385Q475 -356 500 -352V-339H364V-352Q390 -355 389 -385V-512Q391 -558 347 -556H112Q96 -556 91 -538H78V-607H91Q94 -590 112 -589ZM815 -589Q866 -589 885 -567Q901 -548 901 -506V-385Q900 -357 926 -352V-339H788V-352Q815 -355 814 -385V-512Q816 -558 772 -556H536Q519 -555 516 -538H503V-607H516Q518 -590 536 -589ZM614 45Q554 76 415 83Q293 88 205 75Q125 65 80 39V-14H92Q114 32 221 46Q289 54 377 49Q476 44 522 17L724 -82Q736 -90 710 -96V-109H919V-96Q892 -93 873 -85ZM705 -307Q737 -307 756 -301Q779 -293 799 -278L906 -196Q925 -180 949 -177V-165H785V-177Q797 -179 801 -183Q805 -188 798 -193L715 -255Q685 -277 658 -276H319L206 -191Q200 -186 203 -182Q208 -178 219 -177V-165H58V-177Q81 -181 101 -196L204 -274Q216 -288 185 -294V-307ZM851 -719Q893 -719 910 -706Q924 -692 924 -669V-646Q924 -626 949 -623V-610H806V-623Q831 -623 831 -646V-665Q832 -689 803 -688H176V-647Q176 -626 202 -623V-610H58V-623Q83 -623 83 -647V-682Q83 -702 58 -707V-719H457V-743Q457 -766 429 -769V-781H577V-769Q549 -766 549 -743V-719Z"/>
</svg>