<svg xmlns="http://www.w3.org/2000/svg" viewBox="0 -800 1024 1024">
	<path fill="#000000" d="M544 -690V-564H701L673 -690ZM278 -302Q294 -332 293 -380V-587H189V-380Q188 -336 207 -302L242 -233ZM557 42H789Q827 40 829 2V-95H557ZM557 -264V-127H829V-226Q828 -263 789 -264ZM900 -564Q918 -566 921 -583H934V-512H921Q917 -530 900 -531H792L813 -438Q821 -404 859 -398Q895 -396 914 -415Q937 -439 936 -461H949V-401Q926 -374 887 -363Q834 -345 787 -364Q741 -387 728 -442L708 -531H544V-440Q545 -397 583 -391Q613 -388 639 -406Q671 -428 678 -462H690V-401Q656 -369 607 -357Q553 -344 516 -360Q459 -382 459 -446V-680Q459 -706 433 -710V-723H777Q797 -723 806 -736L821 -755Q826 -767 805 -769V-781H945V-769Q929 -767 919 -756L894 -722Q879 -703 863 -698Q843 -690 810 -690H757L785 -564ZM817 -297Q875 -297 896 -274Q914 -255 914 -215V-12Q914 30 894 50Q872 75 818 75H447V62Q471 57 472 36V-260Q471 -280 447 -284V-297ZM376 25Q393 50 408 28Q417 17 420 -8H433V52Q420 69 400 77Q379 87 352 82Q322 73 308 45L243 -78L180 45Q167 70 147 77Q124 88 92 79Q75 72 58 53V-8H71Q74 17 82 28Q97 48 110 26L203 -156L137 -283Q113 -327 115 -389V-587H96Q81 -585 76 -568H64V-639H76Q81 -620 96 -620H115V-739Q114 -764 88 -769V-781H211V-769Q189 -765 189 -739V-620H293V-739Q293 -765 271 -769V-781H393V-769Q368 -764 367 -739V-620H385Q402 -622 405 -639H418V-568H405Q401 -586 385 -587H367V-389Q368 -320 348 -282L283 -155Z"/>
</svg>