<svg xmlns="http://www.w3.org/2000/svg" viewBox="0 -800 1024 1024">
	<path fill="#000000" d="M820 -3Q822 53 877 40Q929 20 936 -32H949V30Q919 68 868 78Q808 91 772 68Q734 45 734 -13V-737Q735 -766 708 -769V-781H846V-769Q819 -767 820 -737ZM156 1H231Q267 0 269 -39V-685Q269 -723 232 -723H156ZM574 -9Q574 44 539 67Q505 91 450 81Q417 74 382 43V-18H396Q411 31 446 42Q487 50 488 1V-319L410 -291Q393 -284 389 -269H377V-341H389Q395 -319 410 -325L488 -353V-472Q488 -516 508 -556L584 -701Q593 -721 573 -723H418Q402 -721 398 -704H385V-776H398Q401 -757 418 -757H623Q659 -756 670 -735Q678 -715 665 -687L584 -529Q574 -505 574 -476V-384L651 -412Q669 -420 671 -435H684V-363H671Q665 -383 651 -378L574 -350ZM82 -719Q82 -739 58 -745V-757H251Q308 -757 327 -734Q343 -715 343 -677V-54Q343 -12 324 9Q302 34 246 34H58V21Q81 18 82 -4Z"/>
</svg>