<svg xmlns="http://www.w3.org/2000/svg" viewBox="0 -800 1024 1024">
	<path fill="#000000" d="M563 12Q557 54 526 72Q495 90 445 79Q413 72 388 50V-4H401Q413 31 446 40Q470 42 475 17L510 -300Q510 -320 487 -324V-337H623V-324Q598 -319 597 -300ZM831 3Q833 50 879 40Q925 23 936 -22H949V35Q921 69 870 78Q818 89 784 70Q744 48 744 -8V-292Q745 -322 716 -324V-337H859V-324Q830 -323 831 -292ZM515 -412Q457 -407 434 -436Q412 -471 436 -520L560 -747Q565 -763 540 -769V-781H685V-769Q664 -763 653 -747L517 -492Q500 -455 545 -455Q675 -462 806 -500L764 -635Q757 -660 732 -662V-675H871V-662Q845 -657 852 -635L919 -419Q926 -395 947 -392V-380H810V-393Q840 -397 831 -419L814 -472Q679 -427 515 -412ZM158 1H250Q283 0 285 -36V-686Q285 -722 249 -722H158ZM81 -719Q82 -739 58 -745V-757H269Q325 -757 346 -734Q364 -712 363 -676V-54Q363 -10 342 11Q321 35 267 34H58V21Q81 17 81 -4Z"/>
</svg>