<svg xmlns="http://www.w3.org/2000/svg" viewBox="0 -800 1024 1024">
	<path fill="#000000" d="M810 -416Q848 -417 849 -453V-526H727V-416ZM810 -669H727V-559H849V-630Q849 -669 810 -669ZM522 -526V-416H645V-526ZM522 -669V-559H645V-669ZM274 -302Q289 -329 287 -380V-587H187V-380Q186 -336 206 -302L242 -239ZM461 -140V-152Q480 -153 487 -173L527 -279H440Q424 -278 419 -260H407V-330H419Q424 -311 440 -311H915Q933 -313 936 -330H949V-260H936Q931 -279 915 -279H616L575 -171H814Q866 -171 888 -151Q908 -135 908 -97V-12Q908 43 866 66Q831 86 750 84Q688 83 638 71Q578 56 548 29V-29H561Q577 22 646 43Q710 58 756 51Q821 43 820 -7V-104Q818 -139 779 -140ZM645 -737Q646 -767 617 -769V-781H755V-769Q727 -765 727 -737V-701H823Q877 -701 897 -681Q920 -661 920 -615V-466Q920 -423 898 -405Q876 -384 824 -384H426V-396Q452 -401 452 -423V-663Q452 -684 426 -689V-701H645ZM395 26Q413 50 427 29Q432 21 437 0Q438 -5 438 -7H451V53Q438 70 420 78Q398 87 372 82Q348 75 329 45L248 -94L179 44Q167 68 146 78Q123 87 93 79Q74 72 58 53V-8H71Q74 17 82 28Q97 46 110 26L206 -167L140 -282Q112 -327 114 -389V-587H96Q81 -585 76 -568H64V-639H76Q81 -620 96 -620H114V-739Q113 -764 88 -769V-781H210V-769Q187 -765 187 -739V-620H287V-739Q287 -765 265 -769V-781H386V-769Q361 -765 361 -739V-620H378Q396 -622 399 -639H411V-568H399Q394 -587 378 -587H361V-389Q362 -321 343 -283L284 -166Z"/>
</svg>