<svg xmlns="http://www.w3.org/2000/svg" viewBox="0 -800 1024 1024">
	<path fill="#000000" d="M506 -547H603V-535Q584 -532 592 -520L615 -481Q621 -468 638 -466V-454H541V-466Q562 -467 555 -481L532 -520Q525 -533 506 -535ZM801 -466Q819 -468 825 -481L847 -520Q856 -532 836 -535V-547H933V-535Q916 -534 908 -520L886 -481Q877 -468 899 -466V-454H801ZM491 -371H502Q504 -350 516 -339Q531 -327 541 -348L559 -391Q566 -406 542 -410V-422H640V-410Q623 -407 617 -391L596 -340Q589 -322 570 -311Q548 -299 522 -308Q504 -313 491 -328ZM800 -422H897V-410Q876 -407 881 -391L899 -348Q909 -327 924 -339Q936 -350 938 -371H949V-328Q935 -313 918 -307Q894 -300 873 -309Q855 -318 844 -340L823 -391Q817 -407 800 -410ZM657 -556H784V-542Q759 -540 760 -517V-363Q758 -340 784 -338V-324H657V-338Q682 -340 681 -363V-517Q682 -542 657 -542ZM465 -725V-613H811Q843 -613 843 -643V-698Q843 -724 811 -725ZM495 -173H507Q508 -157 514 -148Q521 -139 527 -140Q534 -142 536 -153L554 -246Q559 -261 538 -265V-278H634V-265Q616 -262 614 -246L609 -222H682V-257Q683 -285 657 -286V-300H789V-286Q762 -283 762 -257V-222H880Q898 -224 900 -241H913V-170H900Q897 -188 880 -189H762V-85H915Q933 -87 936 -104H949V-33H936Q932 -51 915 -52H762V32Q761 58 789 61V75H654V61Q682 59 682 32V-52H529Q513 -51 508 -33H496V-104H508Q513 -85 529 -85H682V-189H603L596 -153Q590 -127 573 -117Q549 -105 522 -114Q507 -119 495 -131ZM58 -18H71Q76 0 92 -7L165 -40V-507H106Q90 -506 85 -488H72V-559H85Q90 -540 106 -540H165V-737Q166 -769 137 -769V-781H275V-769Q246 -764 247 -737V-540H307Q324 -542 327 -559H340V-488H327Q323 -506 307 -507H247V-77L312 -106Q330 -115 333 -131H345V-56H333Q329 -74 312 -69L92 29Q76 38 71 55H58ZM382 -718Q380 -739 354 -745V-757H838Q888 -758 905 -747Q926 -733 926 -700V-643Q926 -610 905 -594Q885 -580 840 -580H465V1Q465 50 432 69Q396 93 343 78Q307 70 286 45V-8H299Q308 42 344 48Q379 51 382 14Z"/>
</svg>