<svg xmlns="http://www.w3.org/2000/svg" viewBox="0 -800 1024 1024">
	<path fill="#000000" d="M58 -444H72Q75 -422 94 -408Q114 -397 133 -398Q165 -402 177 -426L220 -518Q229 -535 203 -538V-551H342V-538Q321 -535 313 -518L269 -423Q251 -387 207 -370Q166 -355 117 -366Q82 -374 58 -397ZM58 -675H72Q75 -653 93 -640Q110 -628 132 -629Q165 -630 180 -656L223 -748Q231 -766 206 -769V-781H345V-769Q325 -768 316 -749L272 -654Q253 -616 208 -599Q164 -585 120 -595Q85 -603 58 -627ZM249 31Q249 57 276 62V75H133V62Q162 58 161 31V-273Q162 -304 133 -304V-317H277V-304Q249 -300 249 -273ZM915 32Q933 30 936 13H949V83H936Q931 64 915 64H363Q347 65 342 83H330V13H342Q347 32 363 32H593V-237H390Q375 -235 370 -218H357V-289H370Q374 -269 390 -270H886Q903 -272 906 -289H919V-218H906Q900 -237 886 -237H683V32ZM738 -687Q751 -701 747 -713Q742 -725 724 -725H419Q404 -723 399 -706H386V-776H399Q403 -756 419 -757H771Q819 -757 834 -722Q842 -688 813 -656L682 -523H784V-510Q758 -505 765 -491L850 -381Q873 -354 906 -366Q933 -374 936 -409H949V-354Q931 -339 907 -332Q869 -321 834 -328Q786 -338 763 -371L670 -491Q666 -497 660 -501L532 -371Q500 -339 455 -329Q419 -319 377 -327Q344 -333 316 -353V-409H329Q340 -376 370 -367Q408 -354 441 -385Z"/>
</svg>