<svg xmlns="http://www.w3.org/2000/svg" viewBox="0 -800 1024 1024">
	<path fill="#000000" d="M616 -725V-609H698V-725ZM802 -326Q837 -326 837 -359V-548Q837 -578 802 -578H755V-326ZM616 -578V-326H698V-578ZM477 -578V-326H560V-578ZM613 -222Q614 -254 585 -254V-267H729V-254Q700 -250 701 -222V-160H881Q899 -162 902 -179H914V-108H902Q898 -126 881 -127H701V32H915Q933 30 936 14H949V83H936Q932 65 915 64H399Q383 66 379 83H366V14H379Q382 32 399 32H613V-127H434Q418 -125 414 -108H401V-179H414Q417 -160 434 -160H613ZM328 -105Q346 -111 348 -128H360V-54H348Q343 -73 328 -68L92 23Q76 32 71 48H58V-26H71Q77 -7 92 -13L168 -42V-507H106Q91 -505 86 -488H73V-559H86Q91 -539 106 -540H168V-737Q169 -769 140 -769V-781H281V-769Q252 -764 253 -737V-540H314Q331 -542 334 -559H347V-488H334Q330 -506 314 -507H253V-75ZM380 -295V-308Q401 -311 402 -335V-572Q402 -592 380 -597V-609H532V-725H399Q383 -723 379 -706H366V-776H379Q383 -757 399 -757H915Q933 -759 936 -776H949V-706H936Q932 -724 915 -725H782V-609H818Q870 -609 892 -588Q912 -570 912 -530V-374Q912 -333 889 -315Q868 -295 823 -295Z"/>
</svg>