<svg xmlns="http://www.w3.org/2000/svg" viewBox="0 -800 1024 1024">
	<path fill="#000000" d="M155 1H236Q269 0 271 -36V-686Q271 -722 235 -722H155ZM81 -719Q82 -739 58 -745V-757H252Q307 -757 328 -734Q346 -712 345 -676V-54Q345 -10 324 11Q304 34 250 34H58V21Q81 17 81 -4ZM486 -396Q487 -416 469 -418H424Q410 -417 405 -399H392V-470H405Q408 -451 424 -451H500Q527 -451 543 -437Q561 -418 553 -382L500 -69Q496 -37 471 -22Q444 -9 418 -17Q396 -23 378 -40V-90H391Q394 -62 410 -52Q424 -46 429 -69ZM622 -512Q622 -557 572 -557H459Q443 -555 439 -538H426V-612H439Q442 -593 459 -593H604Q657 -593 684 -570Q708 -548 708 -502V-11Q708 49 658 72Q617 90 559 80Q519 73 488 47V-3H501Q515 44 561 49Q619 51 622 -1ZM899 -69Q905 -43 922 -54Q934 -67 937 -90H949V-40Q940 -28 917 -18Q888 -7 867 -16Q835 -28 828 -69L774 -382Q767 -421 785 -437Q801 -451 828 -451H904Q921 -451 924 -470H936V-399H924Q919 -417 904 -418H859Q840 -416 843 -396ZM549 -753Q536 -766 515 -769V-781H666V-769Q639 -766 648 -754L738 -671Q768 -648 807 -661Q838 -673 841 -706H854V-653Q833 -634 803 -625Q768 -614 733 -620Q692 -624 657 -654Z"/>
</svg>