<svg xmlns="http://www.w3.org/2000/svg" viewBox="0 -800 1024 1024">
	<path fill="#000000" d="M370 -512V-393H526V-472Q527 -512 488 -512ZM487 -237Q524 -239 526 -278V-360H370V-237ZM738 -572V-327H825Q863 -329 865 -368V-534Q865 -572 826 -572ZM865 -249Q866 -282 841 -296H738V-48H825Q863 -49 865 -86ZM915 -698Q933 -700 935 -717H948V-646H935Q932 -664 915 -665H204V-4Q205 34 187 56Q161 86 117 82Q75 78 58 42V-8H71Q75 38 99 40Q119 36 120 6V-660Q120 -681 95 -685V-698H500V-744Q500 -766 473 -769V-781H617V-769Q590 -766 590 -744V-698ZM465 -166H569V-152Q550 -146 552 -135L592 44Q594 58 613 61V75H508V61Q529 57 527 44L519 8Q490 34 452 53Q393 82 347 76Q288 65 288 -2V-506Q289 -527 265 -532V-544H403V-593Q403 -620 376 -622V-634H510V-622Q483 -617 483 -593V-544H509Q563 -544 582 -522Q598 -505 598 -465V-294Q598 -246 576 -227Q555 -204 496 -204H370V-12Q370 26 398 29Q421 30 452 13Q491 -10 511 -28L487 -135Q484 -150 465 -152ZM738 31Q736 57 764 62V75H639V62Q661 59 660 31V-567Q661 -589 636 -592V-605H839Q892 -605 916 -581Q932 -559 932 -521V-383Q932 -338 910 -319Q904 -311 896 -307Q909 -301 918 -291Q933 -272 932 -232V-105Q932 -58 908 -35Q885 -16 833 -16H738Z"/>
</svg>