<svg xmlns="http://www.w3.org/2000/svg" viewBox="0 -800 1024 1024">
	<path fill="#000000" d="M58 -478H71Q75 -446 95 -435Q117 -425 128 -454L163 -564Q168 -582 144 -588V-600H271V-588Q246 -580 239 -564L201 -446Q192 -413 164 -400Q136 -388 102 -396Q74 -403 58 -423ZM735 -600H863V-588Q839 -583 843 -564L878 -454Q889 -425 911 -435Q931 -446 935 -478H948V-423Q932 -403 905 -396Q868 -388 843 -400Q813 -415 805 -446L767 -563Q759 -581 735 -588ZM281 -249Q283 -273 256 -276V-288H398V-276Q370 -274 371 -249V-196H645V-247Q644 -270 617 -276V-288H763V-276Q736 -271 735 -247V-196H915Q934 -197 936 -213H949V-144H936Q931 -163 915 -163H735V31Q733 57 763 61V75H617V61Q646 57 645 31V-163H371V-45Q371 31 315 63Q266 92 176 80Q100 73 58 30V-27H71Q82 20 124 38Q167 54 214 47Q281 37 281 -29V-163H92Q76 -162 71 -144H58V-213H71Q75 -195 92 -196H281ZM899 -685Q917 -687 919 -704H932V-633H919Q916 -651 899 -652H674V-422Q674 -367 634 -341Q591 -315 527 -326Q484 -336 462 -359V-412H475Q479 -386 502 -370Q527 -352 553 -362Q586 -371 587 -414V-652H420V-427Q420 -369 381 -343Q339 -314 272 -325Q226 -333 200 -359V-410H213Q219 -383 243 -367Q265 -352 297 -361Q333 -371 333 -417V-652H109Q93 -651 88 -633H75V-704H88Q93 -685 109 -685H458V-744Q458 -766 430 -769V-781H577V-769Q549 -766 549 -744V-685Z"/>
</svg>