<svg xmlns="http://www.w3.org/2000/svg" viewBox="0 -800 1024 1024">
	<path fill="#000000" d="M476 -725V-502H544Q580 -503 581 -537V-688Q580 -724 544 -725ZM677 -452V-523H690Q694 -504 711 -504H808Q846 -505 847 -539V-687Q846 -724 808 -725H711Q695 -724 690 -706H677V-776H690Q694 -757 711 -757H829Q879 -757 900 -738Q923 -718 923 -676V-558Q923 -511 900 -491Q880 -471 829 -471H711Q695 -470 690 -452ZM163 42H232Q268 40 270 2V-277Q269 -315 232 -316H163ZM694 -170Q681 -190 681 -218V-260Q680 -278 660 -280V-293H766V-280Q748 -277 748 -260V-219Q747 -196 757 -182L798 -121L844 -182Q854 -197 854 -219V-332Q853 -356 831 -357H706Q691 -356 686 -338H673V-408H686Q688 -389 706 -389H856Q893 -390 905 -375Q920 -361 920 -331V-218Q919 -184 906 -166L833 -69L899 28Q912 47 923 44Q931 42 936 8H949V60Q935 74 920 78Q896 87 879 80Q860 75 842 48L796 -20L745 48Q730 68 711 75Q690 85 664 82Q638 78 618 61V8H631Q635 39 651 45Q668 51 686 27L760 -72ZM476 32Q474 59 501 62V75H381V62Q407 60 405 32V-722Q405 -741 383 -745V-757H558Q609 -758 629 -740Q650 -724 649 -679V-547Q649 -505 625 -486Q604 -469 558 -469H476V-321H603Q621 -323 624 -340H636V-269H624Q620 -287 603 -288H476V-139H603Q621 -141 624 -158H636V-87H624Q620 -105 603 -106H476ZM177 -737Q178 -768 149 -769V-781H282V-769Q254 -765 254 -737V-584H338Q356 -586 359 -603H371V-533H359Q354 -552 338 -552H254V-349Q305 -349 324 -327Q340 -310 340 -268V-9Q340 33 321 52Q301 75 251 75H67V62Q91 58 92 35V-311Q91 -332 67 -336V-349H177V-552H91Q75 -551 70 -533H58V-603H70Q75 -584 91 -584H177Z"/>
</svg>