<svg xmlns="http://www.w3.org/2000/svg" viewBox="0 -800 1024 1024">
	<path fill="#000000" d="M619 -94H701Q728 -94 728 -119V-469Q729 -493 701 -492H619ZM153 1H229Q264 -1 266 -36V-689Q266 -722 230 -722H153ZM564 -489Q565 -508 543 -512V-524H712Q750 -525 763 -515Q783 -502 783 -472V-120Q783 -94 765 -76Q746 -61 712 -61H543V-74Q564 -77 564 -97ZM495 31Q493 58 521 62V75H389V62Q416 58 415 31V-603Q415 -622 392 -626V-638H573L609 -743Q617 -766 588 -769V-781H730V-769Q707 -765 700 -746L662 -638H836Q894 -639 915 -615Q931 -597 931 -558V-15Q931 41 886 69Q854 87 789 83Q741 78 700 47V-9H714Q719 32 768 47Q801 53 824 41Q853 26 852 -5V-564Q851 -605 809 -606H495ZM81 -719Q82 -739 58 -745V-757H245Q301 -757 321 -734Q339 -715 339 -676V-54Q339 -10 318 11Q297 34 243 34H58V21Q81 17 81 -4Z"/>
</svg>