<svg xmlns="http://www.w3.org/2000/svg" viewBox="0 -800 1024 1024">
	<path fill="#000000" d="M267 -493Q274 -472 303 -468V-455H161V-468Q189 -471 179 -493L95 -743Q86 -766 59 -769V-781H202V-769Q174 -764 182 -743ZM190 -316Q193 -334 168 -340V-353H304V-340Q279 -333 276 -316L220 15Q214 46 187 68Q162 86 122 83Q83 78 58 49V-10H71Q77 32 98 42Q125 49 134 17ZM810 -600H688V-178H810Q847 -180 850 -220V-561Q849 -599 810 -600ZM438 -178H599V-600H438ZM688 31Q687 57 716 62V75H571V62Q600 58 599 31V-147H331V-160Q356 -162 357 -186V-594Q356 -615 331 -619V-632H599V-736Q600 -768 571 -769V-781H716V-769Q688 -764 688 -736V-632H840Q892 -631 913 -607Q931 -586 931 -551V-233Q931 -191 909 -171Q885 -147 836 -147H688Z"/>
</svg>