<svg xmlns="http://www.w3.org/2000/svg" viewBox="0 -800 1024 1024">
	<path fill="#000000" d="M431 -155Q448 -159 456 -175L500 -283Q502 -295 481 -302V-315H595V-302Q577 -299 570 -285L526 -175Q523 -161 546 -156V-143H431ZM428 -592Q445 -594 452 -612L500 -720Q503 -732 481 -738V-751H595V-738Q577 -735 570 -721L522 -612Q518 -597 543 -592V-579H428ZM71 -751H186V-738Q164 -732 167 -720L204 -612Q209 -595 228 -592V-579H113V-592Q137 -598 133 -612L97 -721Q90 -735 71 -738ZM72 -315H186V-302Q164 -296 167 -283L204 -175Q209 -160 228 -155V-143H113V-156Q136 -161 133 -175L96 -285Q91 -300 72 -302ZM338 -548H474V-535Q451 -531 462 -513L525 -426Q543 -401 566 -416Q582 -430 584 -455H597V-405Q587 -387 559 -378Q527 -369 501 -376Q468 -384 444 -415L368 -518Q358 -530 338 -535ZM275 -589Q293 -608 292 -636V-737Q292 -768 263 -769V-781H403V-769Q374 -765 375 -737V-641Q376 -597 352 -568L224 -413Q201 -385 172 -378Q142 -370 113 -377Q78 -384 60 -405V-455H72Q76 -428 92 -417Q118 -403 145 -432ZM731 -115Q729 -86 756 -83V-70H635V-83Q661 -86 660 -115V-665Q662 -696 635 -696V-709H756V-696Q730 -693 731 -665ZM224 44Q201 71 171 79Q141 89 108 80Q77 72 58 53V4H71Q74 29 93 40Q120 54 143 26L269 -135Q293 -167 292 -207V-329Q292 -360 263 -360V-373H403V-360Q374 -358 375 -329V-203Q375 -152 350 -119L349 -118H470V-105Q448 -102 458 -84L525 32Q540 56 564 42Q584 28 586 3H599V51Q587 67 560 77Q532 86 501 82Q463 75 443 42L366 -88Q359 -100 338 -104ZM925 -52Q925 19 884 54Q842 88 767 82Q694 74 649 34V-20H662Q672 20 720 40Q769 58 804 39Q840 18 841 -41V-739Q842 -766 818 -769V-781H948V-769Q924 -765 925 -739Z"/>
</svg>