<svg xmlns="http://www.w3.org/2000/svg" viewBox="0 -800 1024 1024">
	<path fill="#000000" d="M236 -129V-117Q217 -115 209 -100L166 -4Q159 10 183 12V25H53V12Q72 10 79 -4L122 -100Q127 -113 105 -117V-129ZM191 -726V-648H464V-687Q463 -725 425 -726ZM425 -539Q463 -540 464 -576V-617H191V-539ZM553 -428Q571 -430 574 -447H586V-378H574Q569 -397 553 -397H91Q76 -395 71 -378H58V-447H71Q74 -428 91 -428H282V-452Q282 -472 255 -474V-487H392V-474Q366 -469 366 -452V-428ZM422 -206Q455 -205 454 -237V-286Q454 -316 423 -316H201V-206ZM776 -297Q753 -267 720 -254Q690 -241 646 -248Q610 -255 588 -269V-324H601Q607 -290 637 -283Q666 -277 686 -303L815 -474Q824 -489 797 -496V-508H940V-496Q922 -492 910 -474ZM774 -568Q749 -535 711 -524Q679 -514 646 -520Q615 -525 588 -542V-598H601Q606 -567 634 -557Q665 -552 686 -577L814 -747Q824 -762 798 -769V-781H940V-769Q921 -764 909 -747ZM407 -130H538V-118Q516 -114 521 -101L564 -5Q571 9 590 11V14H595Q598 40 625 48Q666 55 686 29L823 -191Q833 -207 805 -214V-227H948V-214Q928 -210 918 -192L777 32Q759 62 726 73Q697 84 656 82Q609 79 582 60V24H460V11Q484 9 477 -5L434 -101Q426 -116 407 -118ZM191 4H204Q210 38 243 47Q280 52 282 21V-174H90V-187Q114 -191 115 -213V-310Q115 -331 90 -335V-347H456Q505 -348 522 -333Q540 -318 540 -283V-237Q540 -206 518 -189Q496 -174 455 -174H367V13Q367 58 324 76Q289 90 244 77Q211 67 191 49ZM454 -757Q508 -757 528 -738Q550 -720 550 -673V-586Q550 -545 526 -526Q503 -508 455 -508H79V-521Q104 -525 105 -548V-719Q104 -741 79 -745V-757Z"/>
</svg>