<svg xmlns="http://www.w3.org/2000/svg" viewBox="0 -800 1024 1024">
	<path fill="#000000" d="M773 -309Q812 -311 814 -350V-406H543V-309ZM543 -535V-438H814V-496Q813 -534 774 -535ZM272 -302Q286 -332 285 -380V-582H177V-380Q176 -334 190 -302L230 -216ZM495 -781H634V-769Q606 -765 606 -737V-707H750V-737Q751 -768 722 -769V-781H862V-769Q834 -765 834 -737V-707H910Q928 -709 931 -726H944V-656H931Q926 -675 910 -675H834V-644Q832 -616 862 -612V-599H722V-612Q751 -616 750 -644V-675H606V-644Q605 -617 634 -612V-599H495V-612Q524 -616 523 -644V-675H446Q430 -673 426 -656H413V-726H426Q429 -707 446 -707H523V-737Q524 -768 495 -769ZM343 26Q354 49 371 30Q380 17 382 -7H395V53Q383 70 363 78Q335 88 311 78Q288 70 278 45L228 -61L176 45Q166 69 142 78Q119 88 91 78Q71 70 58 53V-7H71Q74 17 82 30Q99 49 111 26L192 -139L127 -280Q106 -322 108 -389V-582H96Q81 -580 76 -563H64V-634H76Q81 -615 96 -615H108V-739Q107 -764 82 -769V-781H202V-769Q178 -764 177 -739V-615H285V-739Q284 -764 261 -769V-781H380V-769Q355 -764 354 -739V-615H369Q388 -616 390 -632H402V-563H390Q385 -582 369 -582H354V-389Q356 -320 336 -280L266 -138ZM624 -151Q625 -152 626 -155Q629 -158 632 -165H446Q430 -163 426 -146H413V-217H426Q429 -198 446 -198H637V-276H435V-290Q458 -293 459 -316V-530Q459 -550 437 -555V-567H803Q858 -567 879 -544Q897 -523 897 -484V-364Q897 -324 877 -302Q853 -275 800 -276H720V-198H910Q928 -200 931 -217H944V-146H931Q927 -164 910 -165H718Q714 -149 701 -129L691 -115H806V-102Q781 -98 789 -85L869 23Q897 57 922 28Q934 14 936 -9H949V46Q937 64 917 73Q888 88 856 82Q812 75 789 42L697 -84Q691 -92 680 -98L585 41Q567 67 536 76Q497 90 461 78Q435 69 423 51V-3H436Q443 26 459 38Q481 57 505 22Z"/>
</svg>