<svg xmlns="http://www.w3.org/2000/svg" viewBox="0 -800 1024 1024">
	<path fill="#000000" d="M676 -588H775V-575Q757 -572 758 -558L775 -467Q777 -449 798 -450V-437H693V-450Q716 -452 713 -467L697 -559Q694 -574 676 -576ZM657 -682H669Q674 -663 690 -663H761V-741Q762 -766 736 -769V-781H864V-769Q838 -765 839 -741V-663H909Q927 -665 930 -682H942V-611H930Q926 -629 909 -630H690Q674 -629 669 -611H657ZM530 42H561Q591 42 591 14V-278Q590 -304 561 -305H530ZM434 -725V-453H520Q550 -453 550 -483V-699Q551 -727 519 -725ZM149 1H198Q233 0 234 -40V-686Q233 -724 198 -725H149ZM659 -411H671Q675 -391 689 -392H818L850 -558Q853 -573 833 -575V-588H932V-576Q913 -573 911 -558L880 -392H916Q934 -394 937 -411H949V-340H937Q933 -358 916 -359H839V-200H905Q921 -201 924 -219H936V-148H924Q920 -167 905 -167H839V33Q837 58 865 62V75H735V62Q762 58 761 33V-167H702Q689 -166 684 -148H671V-219H684Q689 -199 702 -200H761V-359H689Q676 -358 671 -340H659ZM476 -304Q476 -322 455 -325V-338H568Q612 -339 628 -321Q644 -305 644 -269V6Q644 42 623 59Q602 75 568 75H455V62Q475 60 476 40ZM434 10Q434 47 411 69Q389 90 352 79Q324 68 304 44V-1H317Q322 24 333 33Q344 45 353 40Q362 34 362 15V-717Q362 -738 340 -745V-757H531Q578 -758 597 -744Q619 -729 619 -694V-488Q619 -452 600 -437Q582 -421 536 -421H434ZM81 -719Q81 -739 58 -745V-757H211Q266 -757 285 -734Q303 -713 302 -675V-54Q302 -12 283 9Q262 34 209 34H58V21Q80 17 81 -6Z"/>
</svg>