<svg xmlns="http://www.w3.org/2000/svg" viewBox="0 -800 1024 1024">
	<path fill="#000000" d="M512 -234H635V-221Q616 -217 619 -199L654 -48Q660 -25 685 -21V-9H552V-22Q579 -23 573 -48L538 -199Q535 -219 512 -221ZM736 -185H860V-173Q840 -169 842 -152L889 16Q898 42 920 26Q933 16 936 -7H949V40Q934 59 904 68Q873 75 848 65Q818 51 809 20L760 -152Q755 -169 736 -173ZM58 -7H71Q74 16 87 26Q109 37 119 16L166 -152Q170 -170 147 -173V-186H273V-173Q254 -170 249 -152L200 20Q192 52 159 65Q133 75 100 68Q75 61 58 40ZM267 -628Q237 -597 189 -586Q141 -577 106 -586Q79 -593 58 -611V-672H71Q75 -631 114 -624Q150 -617 179 -646L282 -748Q293 -763 266 -769V-781H430V-769Q406 -764 390 -748ZM619 -748Q599 -767 577 -769V-781H744V-769Q717 -763 726 -748L829 -646Q859 -618 895 -623Q931 -632 936 -672H949V-611Q931 -595 902 -586Q856 -573 813 -585Q770 -597 743 -625ZM427 -26Q425 45 495 50Q542 55 604 51Q658 47 687 38Q729 24 737 -7H749V42Q719 64 657 74Q607 84 518 83Q421 85 386 63Q338 38 339 -37V-179Q339 -203 316 -206V-219H451V-206Q427 -199 427 -179ZM765 -546Q812 -546 836 -526Q857 -508 857 -464V-365Q857 -307 808 -280Q770 -256 704 -261Q619 -271 573 -304V-360H586Q599 -327 629 -310Q674 -289 725 -300Q766 -313 768 -349V-472Q768 -513 729 -513H500L401 -340Q368 -283 297 -263Q236 -247 174 -262Q122 -275 85 -302V-360H98Q110 -328 138 -311Q169 -292 217 -293Q279 -299 305 -342L404 -513H191Q175 -513 170 -494H157V-564H170Q174 -547 191 -546Z"/>
</svg>