<svg xmlns="http://www.w3.org/2000/svg" viewBox="0 -800 1024 1024">
	<path fill="#000000" d="M865 -487Q883 -489 886 -506H899V-435H886Q881 -454 865 -454H142Q126 -453 121 -435H108V-506H121Q126 -487 142 -487H457V-564Q457 -592 429 -593V-606H578V-593Q550 -590 550 -564V-487ZM843 -691Q890 -691 910 -672Q924 -656 924 -626V-579Q924 -559 949 -555V-543H806V-555Q832 -556 831 -579V-626Q831 -659 796 -659H176V-579Q176 -559 202 -555V-543H58V-555Q83 -557 83 -579V-654Q83 -674 58 -679V-691H457V-743Q457 -766 429 -769V-781H577V-769Q549 -766 549 -743V-691ZM214 -404H354V-392Q331 -387 338 -375L405 -264H600L668 -375Q676 -387 653 -392V-404H792V-392Q772 -389 763 -375L695 -264H915Q933 -266 936 -283H949V-212H936Q932 -230 915 -231H550V-106H865Q883 -108 886 -125H899V-55H886Q881 -74 865 -74H550V31Q548 56 578 62V75H429V62Q458 58 457 31V-74H142Q126 -73 121 -55H108V-125H121Q126 -106 142 -106H457V-231H92Q76 -230 71 -212H58V-283H71Q76 -264 92 -264H310L243 -375Q234 -389 214 -392Z"/>
</svg>