<svg xmlns="http://www.w3.org/2000/svg" viewBox="0 -800 1024 1024">
	<path fill="#000000" d="M416 -523V-417H586V-523ZM803 -523H670V-417H843V-485Q842 -522 803 -523ZM583 -276Q586 -283 586 -292V-385H416V-276ZM803 -276Q841 -278 843 -317V-385H670V-294Q670 -283 669 -276ZM915 -85Q933 -87 936 -104H949V-34H936Q931 -53 915 -53H751V31Q750 57 779 62V75H636V62Q665 58 664 31V-53H314Q298 -51 294 -34H281V-104H294Q297 -85 314 -85H664V-143Q665 -174 636 -174V-187H779V-174Q750 -170 751 -143V-85ZM915 -703Q933 -705 936 -722H948V-652H936Q932 -670 915 -671H222V-4Q222 45 194 68Q163 91 112 78Q76 68 58 42V-8H71Q73 31 105 42Q133 50 134 12V-665Q134 -686 110 -691V-703H502V-744Q502 -766 475 -769V-781H619V-769Q592 -766 592 -744V-703ZM827 -556Q885 -556 906 -533Q924 -512 923 -474V-331Q923 -289 903 -268Q881 -243 828 -243H655Q649 -235 640 -229L536 -151Q509 -133 468 -126Q423 -118 370 -128Q322 -136 295 -159V-206H308Q318 -168 370 -160Q424 -152 462 -177L551 -243H310V-256Q335 -260 336 -283V-519Q335 -539 310 -543V-556H531L549 -602Q558 -624 529 -627V-640H668V-627Q647 -624 639 -602L621 -556Z"/>
</svg>