<svg xmlns="http://www.w3.org/2000/svg" viewBox="0 -800 1024 1024">
	<path fill="#000000" d="M457 -741Q458 -767 429 -769V-781H577V-769Q549 -766 549 -741V-634H915Q933 -636 936 -653H949V-582H936Q931 -601 915 -601H549V-421H867Q885 -423 888 -440H901V-369H888Q883 -388 867 -388H141Q125 -387 120 -369H108V-440H120Q125 -421 141 -421H457V-601H92Q76 -600 71 -582H58V-653H71Q76 -634 92 -634H457ZM735 42Q773 41 775 2V-209Q774 -247 735 -248H231V42ZM773 -280Q822 -280 844 -262Q868 -244 868 -201V-6Q868 33 844 54Q819 75 770 75H111V62Q136 56 139 32V-239Q137 -262 111 -267V-280Z"/>
</svg>