<svg xmlns="http://www.w3.org/2000/svg" viewBox="0 -800 1024 1024">
	<path fill="#000000" d="M59 -53H72Q80 -20 103 -12Q132 0 149 -31L198 -122Q205 -136 177 -143V-156H310V-143Q288 -137 280 -121L228 -26Q212 7 171 21Q135 32 102 21Q76 14 59 -7ZM96 -308H234V-295Q209 -288 217 -276L271 -217Q284 -202 307 -197V-185H167V-197Q195 -201 185 -217L132 -277Q117 -293 96 -295ZM65 -347V-360Q90 -365 93 -392L116 -522Q119 -551 88 -555V-567H340Q375 -567 375 -602V-691Q376 -726 340 -725H101Q85 -725 80 -706H67V-776H80Q84 -758 101 -757H375Q424 -758 442 -740Q461 -724 461 -687V-608Q461 -570 438 -552Q417 -535 374 -535H204L178 -380H380Q428 -380 449 -362Q473 -344 473 -302V-9Q472 50 414 73Q369 88 316 78Q274 71 244 52V1H257Q272 46 327 51Q386 50 388 -1V-312Q389 -347 353 -347ZM519 -53H531Q538 -22 563 -12Q592 0 608 -31L658 -122Q664 -136 637 -143V-156H769V-143Q748 -137 739 -121L688 -26Q673 6 632 21Q595 32 563 21Q537 15 519 -7ZM556 -308H693V-295Q669 -288 676 -276L731 -217Q744 -202 767 -197V-185H626V-197Q654 -201 645 -217L591 -277Q578 -293 556 -295ZM524 -347V-360Q550 -365 553 -392L576 -522Q579 -551 548 -555V-567H800Q835 -567 835 -602V-691Q836 -726 800 -725H553Q537 -724 533 -706H520V-776H533Q536 -759 553 -757H834Q884 -758 902 -740Q920 -722 920 -687V-608Q920 -568 898 -552Q874 -534 834 -535H663L637 -380H840Q889 -380 909 -363Q932 -344 932 -302V-9Q931 50 872 73Q827 88 776 78Q732 71 704 52V1H717Q731 46 787 51Q846 50 848 -1V-312Q849 -348 812 -347Z"/>
</svg>