<svg xmlns="http://www.w3.org/2000/svg" viewBox="0 -800 1024 1024">
	<path fill="#000000" d="M794 -261H754V32H825V-230Q825 -261 794 -261ZM506 -261V32H577V-261ZM630 -261V32H701V-261ZM183 -380Q181 -336 201 -303L239 -233L273 -302Q288 -333 287 -380V-585H183ZM541 -725V-583H790V-686Q789 -724 750 -725ZM541 -408H751Q788 -410 790 -450V-551H541ZM780 -757Q836 -757 857 -734Q875 -713 875 -675V-463Q875 -421 855 -401Q835 -375 779 -376H432V-388Q456 -391 457 -416V-719Q457 -740 432 -745V-757ZM374 -616Q392 -618 395 -635H407V-566H395Q390 -585 374 -585H359V-389Q361 -320 339 -280L280 -159L339 -51Q354 -27 369 -50Q379 -65 380 -86H393V-25Q380 -8 361 0Q340 10 313 3Q286 -6 271 -32L243 -83L180 45Q170 67 147 78Q124 87 93 79Q74 72 58 53V-8H71Q74 16 82 29Q100 48 112 26L202 -158L135 -282Q120 -309 115 -331Q111 -350 111 -389V-585H96Q81 -583 76 -566H64V-635H76Q81 -616 96 -616H111V-739Q111 -765 85 -769V-781H208V-769Q184 -764 183 -739V-616H287V-739Q286 -764 262 -769V-781H385V-769Q359 -765 359 -739V-616ZM915 32Q933 30 936 13H949V83H936Q932 65 915 64H415Q400 65 395 83H382V14H395Q399 33 415 32H432V-257Q432 -276 408 -281V-293H817Q864 -293 882 -276Q899 -258 899 -222V32Z"/>
</svg>