<svg xmlns="http://www.w3.org/2000/svg" viewBox="0 -800 1024 1024">
	<path fill="#000000" d="M749 -551H873V-539Q845 -533 855 -515L911 -421Q922 -401 941 -396V-383H817V-396Q849 -400 836 -421L780 -515Q767 -539 749 -539ZM812 -315H766V-76H843V-285Q843 -315 812 -315ZM510 -315V-76H587V-315ZM638 -315V-76H715V-315ZM500 -478Q499 -452 525 -448V-435H413V-448Q439 -451 439 -478V-717Q439 -743 415 -744V-757H524V-744Q500 -741 500 -717ZM677 -646H689Q693 -623 708 -613Q727 -601 734 -627L763 -748Q767 -764 744 -769V-781H856V-769Q833 -763 831 -748L818 -693H917Q933 -694 936 -712H949V-641H935Q932 -660 917 -660H810L802 -626Q794 -598 774 -584Q751 -567 719 -575Q690 -583 677 -602ZM649 -439Q648 -412 674 -409V-396H548V-409Q574 -412 574 -439V-741Q574 -768 550 -769V-781H672V-769Q649 -765 649 -741ZM366 -35Q367 31 440 43Q510 55 654 54Q784 54 856 38Q937 21 936 -10H949V44Q902 63 823 71Q730 81 581 83Q419 86 369 67Q294 42 296 -43V-501Q298 -527 275 -528V-541H388V-528Q364 -527 366 -501ZM141 -736Q141 -767 113 -768V-781H245V-768Q217 -764 217 -736V-623H370Q388 -625 391 -642H403V-571H391Q387 -589 370 -590H217V-12Q217 31 197 56Q173 85 128 84Q83 81 58 35V-18H71Q74 30 108 41Q139 47 141 -1V-590H96Q79 -588 74 -571H62V-642H74Q80 -623 96 -623H141ZM827 -347Q873 -348 892 -334Q914 -319 914 -283V-76Q928 -79 931 -95H944V-24H931Q927 -42 911 -43H437Q422 -42 417 -24H405V-95H417Q422 -75 437 -76H440V-310Q440 -329 417 -334V-347Z"/>
</svg>