<svg xmlns="http://www.w3.org/2000/svg" viewBox="0 -800 1024 1024">
	<path fill="#000000" d="M782 -456H720V-310H833V-403Q834 -457 782 -456ZM523 -456V-310H636V-456ZM779 -126Q833 -126 833 -178V-277H720V-126ZM523 -126H636V-277H523ZM268 -302Q283 -334 282 -380V-590H186V-380Q185 -338 206 -302L239 -242ZM856 -693Q896 -694 911 -676Q927 -658 927 -630V-582Q927 -559 949 -559V-546H827V-559Q851 -563 850 -582V-632Q851 -662 818 -661H507V-582Q507 -562 530 -559V-546H408V-559Q430 -561 430 -582V-656Q430 -677 408 -680V-693H636V-743Q636 -766 608 -769V-781H747V-769Q718 -766 719 -743V-693ZM386 26Q403 49 420 28Q428 18 431 -8H444V53Q428 71 411 78Q389 87 363 82Q338 74 321 45L244 -94L177 45Q164 70 144 78Q121 87 93 79Q76 73 58 53V-8H71Q74 17 82 28Q98 48 110 26L203 -167L139 -283Q113 -329 115 -389V-590H96Q81 -588 76 -571H64V-642H76Q81 -623 96 -623H115V-739Q114 -764 88 -769V-781H208V-769Q186 -765 186 -739V-623H282V-739Q282 -765 260 -769V-781H379V-769Q354 -764 353 -739V-623H365Q383 -625 386 -642H398V-571H386Q382 -589 365 -590H353V-389Q354 -321 335 -283L279 -168ZM720 32Q718 58 748 62V75H608V62Q637 58 636 32V-93H423V-106Q446 -110 447 -133V-451Q447 -471 423 -476V-489H636V-562Q637 -591 610 -592V-605H747V-592Q719 -588 720 -562V-489H802Q868 -490 889 -462Q908 -441 908 -388V-191Q908 -143 884 -119Q856 -93 799 -93H720Z"/>
</svg>