<svg xmlns="http://www.w3.org/2000/svg" viewBox="0 -800 1024 1024">
	<path fill="#000000" d="M821 -408H763V-308H821Q854 -307 853 -336V-385Q853 -408 821 -408ZM600 -308H689V-408H600ZM463 -725V-633H810Q842 -632 841 -659V-700Q842 -727 810 -725ZM149 1H207Q243 -1 245 -40V-686Q244 -724 207 -725H149ZM384 -719Q383 -740 359 -745V-757H841Q843 -757 848 -757Q890 -758 904 -749Q923 -739 923 -707V-657Q923 -627 906 -615Q888 -599 841 -600H463V12Q463 47 441 66Q412 92 368 78Q340 70 320 44V1H333Q340 30 352 38Q379 51 384 22ZM540 -498Q525 -496 520 -479H507V-550H521Q523 -530 540 -531H798Q816 -530 821 -540L828 -550Q835 -563 815 -566V-579H937V-566Q920 -564 911 -550L895 -526Q882 -508 867 -503Q854 -497 823 -498H763V-441H831Q876 -442 892 -431Q913 -419 913 -389V-331Q913 -299 891 -285Q876 -274 831 -275H763V-219H844Q897 -219 916 -197Q932 -178 932 -141V7Q932 57 885 77Q847 90 798 79Q762 67 740 43V-5H753Q756 28 785 43Q807 54 836 50Q866 42 866 11V-148Q865 -185 827 -186H747V-73L788 -79L783 -119Q781 -133 770 -132V-145H830V-132Q820 -131 823 -119L834 -23Q836 -8 846 -8V5H786V-8Q796 -10 795 -23L792 -47L643 -25Q627 -21 622 -5H611V-76H622Q627 -55 643 -58L696 -65V-186H588V32Q586 58 614 62V75H497V62Q522 59 521 32V-182Q521 -201 499 -206V-219H689V-275H516V-288Q540 -292 540 -313V-405Q540 -425 516 -428V-441H689V-498ZM81 -719Q82 -739 58 -745V-757H219Q274 -757 295 -734Q313 -715 313 -675V-54Q313 -11 293 9Q271 34 217 34H58V21Q81 18 81 -6Z"/>
</svg>