<svg xmlns="http://www.w3.org/2000/svg" viewBox="0 -800 1024 1024">
	<path fill="#000000" d="M292 -38H304Q307 -17 322 -5Q346 6 354 -19L396 -190Q401 -205 379 -209V-222H500V-209Q479 -204 476 -190L434 -22Q426 11 397 27Q366 39 326 31Q305 25 292 9ZM741 -222H862V-209Q841 -205 844 -190L886 -19Q894 6 919 -8Q935 -20 936 -38H949V9Q937 24 919 31Q884 41 847 29Q815 14 806 -22L765 -190Q761 -204 741 -209ZM257 -493Q263 -473 292 -468V-455H152V-468Q179 -472 170 -493L95 -743Q88 -766 59 -769V-781H201V-769Q174 -764 182 -743ZM915 -661Q933 -663 936 -680H948V-609H936Q932 -627 915 -628H329Q313 -627 308 -609H296V-680H308Q313 -661 329 -661H576V-742Q577 -766 548 -769V-781H695V-769Q666 -764 667 -742V-661ZM180 -316Q183 -334 158 -340V-353H295V-340Q270 -333 267 -316L221 15Q218 44 189 68Q164 86 122 83Q83 78 58 49V-10H71Q77 32 98 42Q127 49 134 17ZM753 -314Q791 -316 793 -355V-476Q792 -513 753 -514H449V-314ZM788 -547Q840 -547 862 -526Q882 -506 882 -470V-363Q882 -323 859 -303Q834 -281 786 -281H665V-20Q665 33 636 59Q600 87 532 82Q474 73 450 52V2H462Q472 43 521 46Q575 52 575 -3V-281H336V-294Q359 -298 360 -321V-510Q360 -529 336 -534V-547Z"/>
</svg>