<svg xmlns="http://www.w3.org/2000/svg" viewBox="0 -800 1024 1024">
	<path fill="#000000" d="M663 -198H801V-186Q777 -184 783 -170L851 -17Q867 11 900 1Q931 -9 936 -44H949V1Q937 19 914 29Q881 43 843 40Q783 36 766 0L690 -171Q684 -184 663 -186ZM58 -44H71Q76 -10 107 1Q140 11 156 -17L224 -170Q230 -183 206 -186V-198H344V-186Q323 -184 317 -171L241 0Q224 36 164 40Q126 43 93 29Q71 19 58 1ZM391 -640L286 -481H723L619 -640ZM900 -298Q918 -300 921 -317H934V-246H921Q916 -265 900 -265H548V-3Q548 58 483 77Q435 89 376 73Q346 63 324 43V-8H337Q349 35 402 43Q455 45 458 6V-265H107Q91 -263 87 -246H74V-317H87Q90 -298 107 -298ZM901 -672Q919 -674 922 -691H934V-621H922Q917 -640 901 -640H720L848 -444Q866 -418 898 -427Q928 -436 936 -469H949V-417Q929 -399 903 -391Q864 -377 827 -386Q782 -393 758 -428L745 -448H264L252 -429Q234 -399 186 -386Q147 -376 107 -388Q74 -398 58 -417V-469H71Q81 -435 112 -425Q141 -416 159 -440L289 -640H106Q91 -638 86 -621H73V-691H86Q90 -671 106 -672H309L359 -748Q368 -764 340 -769V-781H501V-768Q475 -766 463 -749L412 -672Z"/>
</svg>