<svg xmlns="http://www.w3.org/2000/svg" viewBox="0 -800 1024 1024">
	<path fill="#000000" d="M794 -488Q832 -490 834 -529V-589H707V-488ZM794 -725H707V-622H834V-686Q833 -724 794 -725ZM514 -589V-488H641V-589ZM514 -725V-622H641V-725ZM762 -121H874V-108Q851 -105 858 -90L895 0Q905 23 923 10Q934 2 936 -17H948V25Q936 36 920 42Q895 53 872 47Q840 38 827 8L787 -90Q781 -105 762 -108ZM391 -17H403Q405 -1 416 9Q435 23 445 1L483 -90Q490 -105 466 -108V-121H578V-108Q559 -105 554 -90L513 8Q501 39 470 46Q444 53 422 43Q404 37 391 25ZM266 -302Q280 -331 279 -380V-587H184V-380Q182 -347 203 -302L232 -232ZM341 26Q344 34 348 35Q352 35 355 29Q360 19 362 -7H375V54Q362 69 348 75Q326 84 305 77Q286 70 275 45L228 -64L176 44Q164 68 142 78Q119 87 91 79Q72 70 58 53V-8H71Q74 17 80 27Q95 48 107 27L192 -149L135 -283Q111 -339 112 -389V-587H96Q80 -585 76 -568H64V-639H75Q80 -620 96 -620H112V-739Q111 -764 86 -769V-781H208V-769Q185 -764 184 -739V-620H279V-739Q279 -765 255 -769V-781H378V-769Q352 -764 351 -739V-620H365Q382 -621 384 -639H397V-568H384Q380 -587 365 -587H351V-389Q352 -319 334 -283L268 -147ZM434 -342Q429 -370 463 -391L575 -455H412V-468Q435 -471 437 -494V-720Q436 -739 412 -745V-757H817Q874 -757 894 -734Q912 -713 912 -675V-543Q912 -499 892 -480Q870 -455 816 -455H691L526 -361Q516 -356 519 -351Q522 -346 535 -345Q577 -344 658 -349L728 -383Q735 -387 733 -392Q731 -396 723 -397V-410H893V-397Q886 -396 862 -384Q858 -382 856 -381L512 -216Q503 -212 505 -206Q507 -200 517 -200Q673 -202 813 -223L789 -269Q782 -288 759 -289V-302H884V-289Q858 -286 868 -268L911 -186Q919 -167 938 -165V-152H817V-165Q842 -168 832 -186L826 -197Q790 -189 712 -178V5Q711 45 686 67Q660 88 612 82Q574 75 550 49V6H563Q571 47 598 47Q627 41 628 7V-169Q526 -161 462 -162Q414 -164 405 -195Q402 -226 441 -246L591 -317Q526 -312 494 -313Q444 -315 434 -342Z"/>
</svg>