<svg xmlns="http://www.w3.org/2000/svg" viewBox="0 -800 1024 1024">
	<path fill="#000000" d="M87 -781H218V-768Q196 -764 201 -752L281 -628Q290 -613 307 -613V-599H178V-613Q199 -615 194 -628L114 -752Q106 -765 87 -768ZM58 -400H72Q77 -367 106 -361Q141 -356 154 -384L209 -518Q215 -532 194 -535V-548H322V-534Q301 -530 295 -518L236 -373Q225 -346 191 -332Q157 -322 119 -326Q85 -330 58 -351ZM354 -622H366Q372 -595 393 -589Q417 -587 424 -610L460 -749Q465 -765 439 -769V-781H567V-768Q542 -761 539 -749L530 -716H821Q865 -716 882 -704Q902 -691 902 -658V-592Q902 -571 928 -568V-554H791V-568Q818 -569 818 -592V-656Q818 -683 787 -684H522L503 -610Q494 -576 462 -560Q435 -548 404 -552Q377 -556 354 -576ZM461 -313Q422 -307 390 -315Q357 -323 335 -345V-398H348Q350 -368 380 -355Q418 -341 451 -367L576 -512Q593 -526 591 -555V-584Q592 -610 564 -610V-624H704V-610Q677 -608 678 -584V-549Q678 -523 662 -501H761V-488Q742 -484 751 -470L839 -366Q863 -341 904 -358Q932 -370 935 -408H949V-350Q929 -328 900 -320Q863 -307 822 -315Q779 -322 760 -345L654 -471Q650 -476 644 -479L521 -338Q506 -320 461 -313ZM732 42Q769 40 771 2V-186Q770 -224 732 -225H235V42ZM769 -258Q819 -258 841 -240Q864 -220 864 -178V-6Q864 33 840 54Q815 75 766 75H114V62Q139 57 142 32V-217Q140 -241 114 -245V-258Z"/>
</svg>