<svg xmlns="http://www.w3.org/2000/svg" viewBox="0 -800 1024 1024">
	<path fill="#000000" d="M337 83Q278 83 254 70Q216 51 216 3V-102Q218 -128 188 -128V-141H333V-128Q303 -129 305 -102V7Q306 38 353 46Q390 52 456 39Q533 24 539 -12H552V43Q509 63 458 71Q400 81 337 83ZM899 -673Q917 -675 919 -692H932V-619H919Q915 -637 899 -638H109Q93 -637 88 -619H75V-692H88Q93 -673 109 -673H459V-744Q459 -765 431 -769V-781H577V-769Q549 -765 549 -744V-673ZM484 -230Q476 -241 448 -245V-257H606V-245Q581 -241 587 -229L656 -136H746Q783 -138 796 -163L821 -234Q827 -254 805 -256V-269H941V-256Q916 -251 909 -234L880 -157Q871 -132 846 -116Q821 -102 772 -102H682L769 14Q799 49 864 44Q931 37 936 -9H949V43Q923 66 868 78Q813 88 766 79Q707 67 683 36ZM735 -355Q774 -357 776 -396V-487Q775 -525 735 -526H231V-355ZM291 -190Q248 -165 202 -160Q158 -154 117 -164Q78 -173 58 -190V-241H71Q77 -203 114 -195Q154 -190 187 -208L379 -322H113V-335Q138 -340 141 -366V-518Q140 -540 113 -546V-559H772Q824 -559 844 -540Q866 -522 866 -481V-402Q866 -359 841 -340Q819 -322 770 -322H513Z"/>
</svg>