<svg xmlns="http://www.w3.org/2000/svg" viewBox="0 -800 1024 1024">
	<path fill="#000000" d="M293 31Q293 56 321 62V75H173V62Q202 58 201 31V-273Q202 -304 173 -304V-317H321V-304Q293 -300 293 -273ZM320 -422Q289 -381 233 -366Q182 -353 131 -363Q89 -372 58 -397V-444H71Q79 -416 115 -402Q143 -392 167 -396Q203 -401 222 -426L289 -516Q301 -535 273 -538V-551H424V-538Q402 -533 393 -518ZM320 -648Q291 -612 240 -596Q190 -582 138 -592Q94 -600 58 -627V-675H71Q79 -646 110 -631Q133 -621 164 -624Q203 -631 223 -656L292 -748Q302 -765 274 -769V-781H426V-769Q406 -766 394 -749Z"/>
</svg>