<svg xmlns="http://www.w3.org/2000/svg" viewBox="0 -800 1024 1024">
	<path fill="#000000" d="M588 -549H601Q605 -530 622 -530H765Q783 -532 786 -549H799V-478H786Q782 -496 765 -497H622Q606 -496 601 -478H588ZM588 -663H601Q605 -644 622 -644H765Q783 -646 786 -663H799V-592H786Q782 -610 765 -611H622Q606 -610 601 -592H588ZM572 41H768Q817 43 815 -3V-70H572ZM572 -360V-248H815V-314Q814 -359 768 -360ZM572 -215V-103H815V-215ZM856 -757Q896 -757 910 -740Q926 -725 926 -694V-480Q926 -458 949 -456V-443H823V-456Q848 -460 847 -480V-696Q848 -726 815 -725H541V-480Q540 -460 565 -456V-443H439V-456Q462 -458 462 -480V-721Q463 -739 439 -745V-757ZM136 -112Q136 -92 161 -89V-76H58V-89Q82 -91 82 -112V-591Q82 -610 58 -615V-628H203V-737Q204 -767 177 -769V-781H307V-769Q279 -765 280 -737V-628H329Q368 -628 387 -608Q401 -591 401 -559V-127Q401 -96 388 -83Q367 -63 340 -72Q321 -78 307 -96V-139H319Q319 -125 326 -114Q334 -105 340 -108Q346 -111 346 -125V-562Q347 -596 314 -595H280V32Q278 58 307 62V75H177V63Q204 58 203 32V-595H136ZM490 -354Q490 -376 465 -379V-392H794Q851 -392 874 -370Q898 -348 898 -299V-15Q898 27 877 49Q853 75 795 75H465V62Q490 59 490 36Z"/>
</svg>