<svg xmlns="http://www.w3.org/2000/svg" viewBox="0 -800 1024 1024">
	<path fill="#000000" d="M99 -176V-189Q125 -193 125 -212V-485Q125 -508 97 -510V-523H242V-510Q215 -507 214 -485V-209H458V-623H92Q76 -622 71 -604H58V-676H71Q76 -657 92 -657H458V-737Q459 -767 431 -769V-781H577V-769Q549 -765 549 -737V-657H915Q933 -659 936 -676H949V-604H936Q932 -622 915 -623H549V-209H751Q793 -209 793 -250V-485Q793 -509 765 -510V-523H911V-510Q884 -506 883 -485V-265Q883 -225 866 -204Q846 -176 792 -176H549V-26Q549 42 627 50Q693 57 777 48Q930 32 936 -29H949V35Q894 63 801 75Q694 89 618 82Q519 75 488 43Q458 14 458 -50V-176Z"/>
</svg>