<svg xmlns="http://www.w3.org/2000/svg" viewBox="0 -800 1024 1024">
	<path fill="#000000" d="M448 -722V-549H572V-682Q572 -722 534 -722ZM534 -335Q570 -337 572 -377V-516H448V-335ZM147 1H200Q236 -1 238 -40V-683Q237 -721 200 -722H147ZM764 31Q762 58 792 62V75H669V62Q691 60 691 32V-719Q690 -740 666 -745V-757H845Q895 -758 912 -743Q932 -727 932 -688V-118Q932 -84 916 -65Q890 -39 850 -48Q828 -54 808 -79V-135H821Q824 -111 837 -95Q864 -78 868 -114V-691Q868 -722 837 -722H764ZM628 39Q627 58 651 62V75H548V62Q571 61 569 39L566 9Q542 35 511 57Q462 93 414 78Q373 63 373 -1V-720Q373 -740 349 -745V-757H549Q601 -757 621 -737Q639 -720 638 -678V-388Q638 -346 618 -325Q598 -303 545 -303H448V4Q451 44 494 25Q534 -1 562 -29L545 -199Q543 -216 524 -218V-231H621V-218Q600 -214 604 -199ZM81 -719Q82 -739 58 -745V-757H210Q265 -757 286 -734Q304 -715 304 -675V-52Q304 -7 282 12Q260 34 208 34H58V21Q81 18 81 -6Z"/>
</svg>