<svg xmlns="http://www.w3.org/2000/svg" viewBox="0 -800 1024 1024">
	<path fill="#000000" d="M548 -350V-247H822V-312Q821 -349 783 -350ZM548 -215V-112H822V-215ZM503 -442Q461 -441 446 -468Q433 -493 459 -531L555 -656H451Q435 -654 431 -637H418V-710H431Q434 -691 451 -691H639V-742Q640 -767 611 -769V-781H754V-769Q725 -766 726 -742V-691H914Q932 -693 935 -710H947V-637H935Q931 -655 914 -656H652L540 -509Q532 -497 534 -490Q537 -484 551 -485Q673 -489 797 -510L760 -580Q753 -596 734 -597V-610H869V-597Q844 -596 847 -580L913 -455Q923 -436 942 -437V-425H805V-437Q831 -439 826 -455L811 -482Q639 -447 503 -442ZM158 1H246Q282 -1 284 -40V-683Q283 -721 246 -722H158ZM548 32Q546 58 575 62V75H435V62Q461 59 460 32V-344Q459 -365 435 -369V-382H817Q871 -382 892 -358Q910 -337 910 -299V-15Q910 36 879 62Q853 86 786 83Q724 77 690 42V-7H703Q715 41 762 47Q820 53 822 -5V-81H548ZM81 -719Q82 -739 58 -745V-757H267Q322 -757 343 -734Q361 -715 361 -675V-54Q361 -11 341 9Q320 34 265 34H58V21Q81 18 81 -6Z"/>
</svg>