<svg xmlns="http://www.w3.org/2000/svg" viewBox="0 -800 1024 1024">
	<path fill="#000000" d="M59 -520H176V-507Q151 -504 159 -482L199 -358Q205 -336 228 -334V-321H108V-334Q136 -338 129 -358L89 -482Q82 -505 59 -507ZM59 -781H176V-769Q151 -766 159 -744L205 -611Q210 -589 236 -586V-574H115V-586Q143 -590 135 -611L89 -744Q82 -767 59 -769ZM482 -72Q482 -58 504 -53V-41H408V-53Q429 -55 428 -72L402 -346Q400 -363 380 -364V-377H472V-364Q454 -361 455 -346ZM357 -72Q358 -58 381 -53V-41H275V-53Q296 -54 295 -73L270 -346Q268 -363 248 -364V-377H347V-364Q329 -361 331 -346ZM382 -725L343 -542H527L491 -694Q482 -724 443 -725ZM140 -228Q142 -248 118 -252V-265H232V-252Q213 -247 211 -229L188 15Q186 45 164 66Q141 86 111 83Q82 82 58 49V-3H71Q74 35 90 42Q113 50 117 20ZM628 -46Q648 -50 649 -64H661V4H649Q644 -16 628 -13L283 63Q266 67 262 82H250V13H262Q266 35 283 31L522 -22L556 -346Q557 -360 538 -364V-377H638V-364Q620 -363 619 -346L587 -37ZM325 -458Q320 -438 345 -434V-421H228V-434Q250 -436 254 -457L310 -719Q313 -741 289 -745V-757H469Q505 -757 528 -744Q554 -726 561 -698L618 -457Q623 -435 641 -434V-421H525V-434Q551 -438 547 -457L535 -509H336ZM709 -749Q711 -764 686 -769V-781H800V-769Q777 -764 776 -749L761 -627H907Q925 -628 928 -646H941V-575H928Q924 -593 907 -594H896V-329Q897 -277 881 -248L821 -121L887 23Q897 44 912 38Q932 28 936 2H949V50Q934 70 921 76Q896 86 868 78Q838 67 823 35L785 -46L747 35Q731 65 711 76Q683 91 642 78Q618 69 602 53V14H615Q619 33 644 45Q667 52 681 26L751 -122L693 -248Q675 -283 677 -327V-396Q676 -414 658 -416V-429H763V-416Q744 -413 743 -396V-319Q743 -293 753 -270L786 -197L821 -270Q830 -287 829 -320V-594H757L748 -521Q743 -482 720 -468Q700 -456 671 -462Q647 -469 632 -486V-531H644Q647 -508 660 -500Q676 -492 680 -517Z"/>
</svg>