<svg xmlns="http://www.w3.org/2000/svg" viewBox="0 -800 1024 1024">
	<path fill="#000000" d="M59 -520H181V-507Q158 -501 165 -482L207 -358Q215 -332 237 -332V-320H112V-332Q141 -337 132 -358L90 -482Q83 -504 59 -507ZM59 -781H181V-769Q158 -764 165 -744L213 -611Q221 -590 244 -586V-574H118V-586Q146 -592 138 -611L90 -744Q82 -765 59 -769ZM350 -725V-505H450V-686Q449 -724 412 -725ZM350 1H412Q450 1 450 -39V-220H350ZM350 -473V-253H450V-473ZM838 -618Q838 -638 816 -642V-655H917V-642Q896 -639 895 -618L909 -354Q910 -339 915 -337Q921 -335 928 -346Q932 -353 935 -370Q936 -373 936 -375H949V-324Q935 -309 921 -301Q896 -290 876 -303Q855 -318 853 -349ZM594 -618Q594 -638 573 -642V-655H674V-642Q651 -638 651 -619L637 -306Q635 -275 615 -261Q594 -246 571 -255Q551 -262 540 -282V-332H553Q553 -314 562 -301Q568 -291 574 -292Q579 -293 580 -304ZM141 -227Q143 -248 119 -251V-264H241V-251Q221 -244 218 -227L196 15Q193 48 174 66Q149 90 111 80Q78 72 58 49V-5H71Q77 23 87 36Q98 47 108 43Q117 38 119 20ZM764 32Q743 67 705 78Q672 87 626 79Q580 70 549 44V-9H562Q565 16 585 31Q605 45 633 47Q669 45 682 25L804 -179H677V-192Q706 -196 705 -224V-737Q705 -768 677 -769V-781H812V-769Q784 -765 784 -737V-224Q783 -197 811 -192L833 -228Q842 -244 815 -250V-263H948V-250Q930 -246 921 -228ZM282 -719Q282 -740 257 -745V-757H428Q479 -757 501 -736Q519 -716 519 -677V-51Q519 -7 498 12Q478 34 424 34H257V21Q281 18 282 -5Z"/>
</svg>