<svg xmlns="http://www.w3.org/2000/svg" viewBox="0 -800 1024 1024">
	<path fill="#000000" d="M66 -672H195V-659Q172 -656 178 -641L239 -499Q244 -488 263 -482V-469H134V-482Q153 -486 151 -498L91 -641Q85 -655 66 -659ZM744 -482Q763 -488 768 -499L829 -641Q835 -656 812 -659V-672H941V-659Q922 -655 916 -641L856 -498Q854 -486 873 -482V-469H744ZM430 -731V-414H577V-731ZM221 -260V-126H787V-218Q785 -258 743 -260ZM743 42Q785 40 787 -1V-93H221V42ZM915 -414Q933 -416 936 -433H949V-359H936Q932 -377 915 -378H92Q76 -377 71 -359H58V-433H71Q76 -414 92 -414H342V-731H121Q105 -729 101 -712H88V-786H101Q104 -767 121 -767H886Q904 -769 906 -786H919V-712H906Q903 -730 886 -731H665V-414ZM781 -293Q836 -293 859 -268Q878 -249 878 -210V-13Q878 30 856 51Q831 75 779 75H105V62Q129 57 131 35V-255Q129 -276 105 -280V-293Z"/>
</svg>