<svg xmlns="http://www.w3.org/2000/svg" viewBox="0 -800 1024 1024">
	<path fill="#000000" d="M372 -219V-100H558V-219ZM789 -219H637V-100H789Q827 -99 826 -131V-190Q825 -218 789 -219ZM756 -349Q786 -349 786 -379V-418Q785 -445 756 -446H413V-349ZM201 -681V-573H794Q825 -574 826 -600V-653Q826 -681 794 -681ZM802 -478Q834 -478 851 -465Q870 -449 870 -420V-379Q870 -349 852 -332Q836 -317 802 -317H302V-330Q327 -334 328 -357V-440Q327 -461 302 -465V-478ZM827 -253Q870 -253 889 -239Q910 -223 910 -190V-133Q910 -102 890 -84Q871 -67 827 -67H372V-12Q370 50 452 52Q547 55 654 50Q787 46 867 30Q919 18 929 -17H942V41Q852 71 688 80Q596 86 432 84Q353 84 319 57Q286 32 287 -24V-215Q287 -236 262 -240V-253ZM832 -711Q876 -711 893 -698Q912 -685 911 -653V-602Q911 -571 893 -555Q875 -541 832 -542H201V10Q201 52 176 72Q154 87 119 82Q83 76 58 44V-7H71Q78 26 97 40Q113 46 115 26V-674Q115 -694 90 -698V-711H471V-743Q472 -766 443 -769V-781H586V-768Q557 -765 558 -743V-711Z"/>
</svg>