<svg xmlns="http://www.w3.org/2000/svg" viewBox="0 -800 1024 1024">
	<path fill="#000000" d="M330 -223H450V-211Q428 -208 433 -192L478 -47Q482 -33 503 -29V-16H378V-29Q402 -30 399 -47L354 -192Q350 -209 330 -211ZM754 -29Q777 -34 781 -47L826 -192Q830 -208 809 -211V-223H928V-211Q909 -209 905 -192L860 -47Q857 -31 880 -29V-16H754ZM59 -520H201V-507Q171 -502 183 -482L254 -356Q265 -334 288 -332V-320H147V-332Q177 -339 166 -356L94 -482Q79 -505 59 -507ZM59 -781H201V-769Q172 -763 183 -744L254 -611Q263 -590 289 -586V-574H147V-586Q176 -592 165 -612L94 -744Q81 -766 59 -769ZM223 17Q215 52 186 69Q153 88 117 81Q79 72 58 49V-5H71Q76 30 99 41Q127 48 135 17L182 -227Q185 -245 160 -251V-264H297V-251Q273 -244 269 -227ZM753 -757Q795 -757 815 -743Q825 -736 837 -713Q842 -703 845 -698L921 -557Q922 -556 923 -554Q931 -536 948 -534V-521H810V-534Q840 -539 833 -557L757 -694Q741 -725 712 -725H509L423 -557Q415 -540 445 -534V-521H303V-534Q322 -535 332 -557L417 -719Q425 -739 397 -745V-757ZM915 32Q933 30 936 13H948V83H936Q932 65 915 64H342Q326 66 322 83H309V13H322Q325 32 342 32H584V-291H361Q345 -289 341 -272H328V-343H341Q344 -324 361 -324H584V-440H394Q378 -439 373 -421H361V-494H373Q377 -473 394 -473H864Q882 -475 885 -492H898V-421H885Q881 -439 864 -440H674V-324H896Q914 -326 917 -343H930V-272H917Q913 -290 896 -291H674V32Z"/>
</svg>