<svg xmlns="http://www.w3.org/2000/svg" viewBox="0 -800 1024 1024">
	<path fill="#000000" d="M698 -583H710Q714 -565 731 -566H784Q802 -567 804 -583H817V-519H804Q799 -536 784 -536H731Q714 -535 710 -519H698ZM465 -583H478Q481 -566 498 -566H547Q569 -568 571 -583H584V-519H571Q567 -535 547 -536H498Q481 -535 478 -519H465ZM698 -494H710Q714 -476 731 -477H784Q802 -478 804 -494H817V-429H804Q799 -446 784 -446H731Q714 -445 710 -429H698ZM465 -494H478Q481 -477 498 -477H547Q569 -479 571 -494H584V-429H571Q567 -445 547 -446H498Q481 -445 478 -429H465ZM487 -265V-187H657V-265ZM487 -155V-77H657V-155ZM487 -45V33H657V-45ZM667 -449Q666 -422 693 -418V-405H590V-418Q614 -421 614 -449V-621H435V-449Q435 -428 458 -426V-413H338V-426Q360 -428 360 -449V-617Q360 -636 337 -640V-653H601V-725H411Q396 -723 391 -706H378V-776H391Q395 -756 411 -757H871Q888 -759 891 -776H904V-706H891Q885 -725 871 -725H681V-653H845Q885 -653 904 -635Q921 -617 921 -584V-449Q922 -427 944 -426V-413H825V-426Q848 -430 847 -449V-591Q847 -621 813 -621H667ZM60 -278H73Q79 -258 93 -263L167 -291V-553H106Q90 -552 85 -534H73V-605H85Q90 -586 106 -586H167V-737Q168 -767 139 -769V-781H279V-769Q250 -766 251 -737V-586H294Q313 -588 314 -605H327V-534H314Q311 -552 294 -553H251V-323L320 -350Q338 -359 340 -373H352V-299H340Q335 -318 320 -313L251 -287V-15Q251 50 206 74Q163 94 115 76Q77 62 58 34V-19H71Q83 34 120 43Q164 47 167 -2V-255L93 -227Q76 -218 73 -203H60ZM308 -232H321Q322 -212 340 -203Q363 -195 376 -212L445 -351Q453 -367 427 -370V-383H555V-370Q536 -369 529 -351L501 -297H654L682 -353Q688 -367 667 -369V-383H788V-369Q768 -368 762 -353L735 -297H905Q923 -298 926 -316H938V-246H926Q922 -264 905 -265H739V-187H881Q898 -189 901 -206H914V-136H901Q897 -154 881 -155H739V-77H881Q898 -79 901 -96H914V-26H901Q897 -44 881 -45H739V33H904Q922 31 925 14H938V83H925Q921 65 904 64H380V50Q404 48 405 24V-163Q391 -160 379 -160Q332 -162 308 -186Z"/>
</svg>