<svg xmlns="http://www.w3.org/2000/svg" viewBox="0 -800 1024 1024">
	<path fill="#000000" d="M511 -224H635V-211Q614 -209 620 -187L653 -42Q660 -20 685 -16V-3H551V-17Q577 -20 572 -42L539 -187Q534 -211 511 -211ZM736 -183H860V-171Q837 -169 841 -153L889 16Q897 39 920 26Q933 16 936 -7H949V40Q934 59 904 68Q873 75 848 65Q818 51 809 20L759 -153Q754 -169 736 -171ZM58 -7H71Q74 16 87 26Q110 39 119 16L166 -154Q170 -170 147 -171V-184H272V-171Q254 -170 250 -154L200 20Q192 52 159 65Q133 75 100 68Q75 61 58 40ZM525 83Q469 83 443 80Q412 76 392 67Q337 42 338 -37V-169Q338 -196 315 -198V-211H450V-198Q427 -194 427 -169V-28Q425 44 495 50Q532 54 595 51Q664 46 703 33Q732 25 737 -7H749V42Q720 62 668 72Q610 84 525 83ZM242 -319Q229 -278 189 -262Q151 -247 108 -261Q79 -270 59 -295V-343H72Q78 -313 106 -300Q141 -286 153 -322L278 -749Q283 -766 256 -769V-781H394V-769Q373 -766 368 -749L329 -617H443V-604Q419 -601 426 -580L480 -415Q488 -393 514 -389V-376H380V-390Q408 -391 400 -415L347 -580Q341 -593 325 -601ZM595 -320Q581 -278 542 -263Q506 -249 463 -261Q430 -271 411 -296V-344H424Q431 -314 458 -302Q494 -289 506 -323L631 -749Q634 -767 609 -769V-781H746V-769Q725 -766 720 -749L681 -617H791V-604Q765 -602 770 -584L854 -322Q868 -288 903 -300Q930 -313 936 -343H949V-295Q933 -273 904 -262Q862 -248 822 -262Q786 -276 772 -319L686 -585Q683 -593 676 -598Z"/>
</svg>