<svg xmlns="http://www.w3.org/2000/svg" viewBox="0 -800 1024 1024">
	<path fill="#000000" d="M381 -106Q380 -94 398 -91V-78H320V-91Q338 -95 337 -106L316 -471Q314 -483 299 -487V-500H377V-487Q359 -485 359 -471ZM96 -471Q97 -485 79 -487V-500H157V-487Q142 -483 140 -471L118 -43Q117 -30 135 -27V-15H57V-27Q75 -30 75 -43ZM530 -33Q526 -2 504 15Q480 31 448 25Q422 18 403 -3V-59H416Q422 -25 437 -15Q458 -7 463 -34L494 -263Q496 -282 473 -286V-299H588V-286Q565 -281 562 -263ZM793 -263Q790 -281 767 -286V-299H883V-286Q860 -282 862 -263L892 -34Q897 -7 915 -15Q929 -24 936 -59H949V-3Q934 15 914 23Q880 33 853 16Q830 -1 825 -33ZM267 31Q265 58 294 62V75H162V62Q190 58 189 31V-575H107Q91 -573 87 -556H74V-627H87Q91 -608 107 -608H189V-737Q190 -768 162 -769V-781H294V-769Q266 -765 267 -737V-608H349Q367 -609 370 -627H383V-556H370Q366 -574 349 -575H267ZM415 -540H428Q434 -508 446 -501Q464 -499 467 -521L490 -709Q492 -725 470 -727V-740H578V-727Q557 -721 557 -710L546 -624H635V-737Q636 -769 608 -769V-781H748V-769Q720 -765 721 -737V-624H869Q886 -626 889 -643H902V-572H889Q885 -590 869 -591H721V-410H892Q910 -412 912 -429H925V-358H912Q909 -376 892 -377H721V31Q720 59 748 62V75H608V62Q636 58 635 31V-377H468Q452 -375 448 -358H435V-429H448Q452 -410 468 -410H635V-591H541L532 -518Q529 -492 508 -477Q487 -463 457 -469Q432 -475 415 -495Z"/>
</svg>