<svg xmlns="http://www.w3.org/2000/svg" viewBox="0 -800 1024 1024">
	<path fill="#000000" d="M101 -471Q101 -484 84 -487V-500H166V-487Q151 -482 149 -471L122 -43Q122 -30 140 -27V-15H57V-27Q75 -30 75 -43ZM414 -43Q416 -30 432 -27V-15H349V-27Q369 -30 367 -43L339 -471Q339 -483 322 -487V-500H405V-487Q387 -485 387 -471ZM284 31Q283 57 311 62V75H178V62Q205 57 204 31V-575H107Q91 -573 87 -556H74V-627H87Q91 -608 107 -608H204V-737Q204 -767 178 -769V-781H311V-769Q283 -765 284 -737V-608H388Q406 -609 409 -627H422V-556H409Q405 -574 388 -575H284ZM551 -4Q551 29 576 37Q604 42 631 20Q655 -1 661 -30H673V28Q647 59 605 74Q546 94 505 71Q467 49 467 -9V-737Q467 -765 439 -769V-781H579V-769Q552 -766 551 -737V-443H631Q649 -445 652 -462H664V-391H652Q648 -409 631 -410H551ZM701 -737Q700 -764 672 -769V-781H813V-769Q786 -765 785 -737V-443H814Q843 -443 847 -465L870 -622Q874 -638 852 -641V-654H949V-641Q931 -637 927 -622L905 -469Q900 -437 877 -422Q858 -409 818 -410H785V-12Q786 32 824 41Q859 46 891 27Q928 6 936 -30H949V28Q911 61 868 75Q802 94 750 73Q701 50 701 -12Z"/>
</svg>