<svg xmlns="http://www.w3.org/2000/svg" viewBox="0 -800 1024 1024">
	<path fill="#000000" d="M731 -198H744Q746 -174 763 -164Q785 -156 798 -178L831 -235Q835 -244 816 -247V-260H927V-247Q912 -244 906 -235L869 -167Q856 -139 832 -130Q801 -121 768 -132Q745 -139 731 -156ZM293 -15H306Q312 13 343 25Q364 29 384 13L452 -37Q460 -45 440 -46V-59H569V-46Q553 -45 542 -35L445 37Q429 53 400 54Q370 57 341 49Q305 39 293 27ZM300 -135H313Q320 -108 349 -99Q372 -92 388 -106L447 -155Q455 -162 435 -164V-177H564V-164Q546 -161 537 -152L452 -83Q432 -62 394 -64Q370 -64 341 -73Q311 -83 300 -93ZM733 -103H849V-90Q826 -88 833 -74L878 7Q894 30 919 14Q934 2 936 -18H949V25Q934 40 914 48Q891 58 862 55Q818 49 803 18L755 -73Q747 -89 733 -90ZM59 -520H197V-507Q166 -503 178 -483L245 -356Q256 -335 280 -332V-320H141V-332Q172 -337 160 -357L93 -483Q81 -505 59 -507ZM59 -781H197V-769Q167 -763 178 -744L249 -610Q261 -589 284 -586V-574H145V-586Q176 -591 164 -610L92 -744Q80 -767 59 -769ZM760 -534Q783 -533 782 -556V-589Q782 -609 760 -609H462V-534ZM901 -716Q919 -718 922 -735H934V-666H922Q918 -684 901 -685H341Q326 -683 321 -666H308V-735H321Q325 -715 341 -716H574V-746Q574 -766 548 -769V-781H689V-769Q662 -765 663 -746V-716ZM168 -227Q171 -245 146 -251V-264H274V-251Q249 -244 247 -227L211 15Q206 50 175 70Q152 87 114 82Q83 78 58 49V1H71Q74 33 97 42Q124 48 132 20ZM857 -457Q890 -457 906 -445Q921 -432 921 -409V-395Q921 -377 944 -376V-363H810V-376Q833 -379 833 -395V-410Q834 -428 810 -427H413V-396Q412 -379 436 -376V-363H303V-376Q327 -377 326 -396V-422Q326 -441 303 -444V-457ZM802 -639Q838 -639 852 -630Q870 -618 870 -588V-557Q870 -530 857 -518Q843 -503 799 -503H348V-516Q373 -520 374 -543V-602Q373 -623 348 -626V-639ZM490 -216Q456 -190 421 -183Q387 -175 351 -184Q320 -191 297 -210V-256H310Q317 -224 348 -217Q373 -212 392 -227L500 -306H383Q368 -304 363 -288H350V-355H363Q367 -336 383 -337H866Q883 -338 886 -355H899V-288H886Q881 -306 866 -306H615L549 -259H605Q652 -259 674 -242Q698 -223 697 -183V-4Q697 39 668 62Q634 89 578 81Q540 75 508 51V12H520Q537 44 576 47Q611 47 611 4V-193Q610 -228 575 -229H508Z"/>
</svg>