<svg xmlns="http://www.w3.org/2000/svg" viewBox="0 -800 1024 1024">
	<path fill="#000000" d="M651 -131H797V-118Q770 -112 778 -99L841 -15Q865 15 901 7Q934 -3 936 -34H949V14Q932 32 892 41Q852 51 815 41Q779 32 749 -12L683 -100Q673 -116 651 -118ZM58 -34H71Q73 -4 103 6Q140 15 166 -15L229 -99Q237 -112 210 -118V-131H356V-118Q334 -116 324 -100L258 -12Q228 32 192 41Q155 51 115 41Q75 32 58 14ZM241 -560V-453H769V-516Q766 -558 722 -560ZM725 -313Q767 -315 769 -362V-421H241V-313ZM432 -781H578V-768Q550 -764 550 -736V-708H905Q922 -710 925 -727H938V-656H925Q920 -674 905 -675H550V-593H761Q803 -593 829 -577Q861 -557 861 -513V-367Q861 -323 831 -299Q802 -280 760 -280H550V-206H893Q911 -208 914 -225H927V-154H914Q909 -173 893 -173H550V35Q549 62 578 67V81H432V67Q461 63 460 35V-173H112Q97 -171 92 -154H79V-225H92Q95 -206 112 -206H460V-280H122V-293Q149 -298 150 -320V-555Q148 -575 122 -580V-593H460V-736Q461 -766 432 -768Z"/>
</svg>