<svg xmlns="http://www.w3.org/2000/svg" viewBox="0 -800 1024 1024">
	<path fill="#000000" d="M667 -670Q688 -672 694 -689L713 -749Q718 -764 694 -769V-781H820V-769Q801 -768 795 -749L776 -689Q771 -672 796 -670V-657H667ZM547 -604L536 -566V-497H675V-604ZM543 -133H649V-121Q628 -114 629 -99L641 42Q642 60 661 62V75H555V62Q578 56 576 42L564 -99Q563 -115 543 -121ZM684 -133H790V-121Q769 -114 770 -99L782 42Q784 60 803 62V75H696V62Q719 56 717 42L705 -99Q704 -116 684 -121ZM536 -464V-356H675V-464ZM826 -133H932V-121Q911 -114 912 -99L923 42Q925 60 944 62V75H837V62Q860 56 858 42L846 -99Q845 -116 826 -121ZM396 62Q416 56 417 42L431 -99Q433 -115 410 -121V-133H517V-121Q498 -115 497 -99L483 42Q482 59 503 62V75H396ZM536 -323V-213H675V-323ZM381 -43Q381 -30 399 -27V-15H320V-27Q339 -31 338 -43L317 -471Q315 -483 299 -487V-500H378V-487Q360 -485 360 -471ZM95 -471Q96 -485 78 -487V-500H156V-487Q139 -483 139 -471L118 -43Q117 -30 135 -27V-15H57V-27Q75 -30 75 -43ZM267 31Q265 58 294 62V75H161V62Q189 58 188 31V-575H107Q90 -574 87 -556H74V-627H87Q91 -608 107 -608H188V-737Q189 -769 161 -769V-781H294V-769Q266 -765 267 -737V-608H349Q367 -609 370 -627H383V-556H370Q366 -574 349 -575H267ZM395 -575H407Q410 -555 424 -547Q442 -539 452 -562L509 -749Q515 -766 491 -769V-781H618V-769Q596 -766 592 -749L557 -637H905Q923 -638 926 -656H938V-585H926Q922 -603 905 -604H760V-497H879Q896 -499 899 -516H912V-445H899Q895 -463 879 -464H760V-356H879Q896 -358 899 -375H912V-304H899Q895 -322 879 -323H760V-213H908Q926 -215 929 -232H942V-163H929Q925 -181 908 -182H427V-194Q450 -197 451 -220V-506Q416 -510 395 -533Z"/>
</svg>