<svg xmlns="http://www.w3.org/2000/svg" viewBox="0 -800 1024 1024">
	<path fill="#000000" d="M186 -227Q189 -248 162 -251V-264H304V-251Q278 -247 275 -229L235 15Q228 50 193 71Q158 89 115 80Q78 73 58 51V-1H71Q75 38 107 45Q137 48 146 17ZM58 -524H207V-511Q178 -506 188 -486L259 -355Q271 -332 296 -329V-316H146V-329Q176 -333 166 -355L95 -486Q83 -507 58 -511ZM430 -396Q432 -417 414 -418H363Q349 -417 344 -399H331V-470H344Q347 -451 363 -451H449Q480 -450 493 -435Q510 -417 503 -379L451 -69Q445 -30 406 -16Q374 -10 344 -20Q325 -26 308 -40V-90H321Q324 -64 342 -54Q367 -41 376 -70ZM590 -515Q589 -559 539 -560H407Q391 -559 386 -541H373V-612H386Q391 -593 407 -593H574Q629 -593 654 -572Q678 -548 678 -502V-11Q677 49 627 72Q587 88 529 80Q498 75 463 46V-2H476Q488 45 535 50Q588 54 590 0ZM59 -781H207V-769Q179 -764 189 -744L260 -613Q272 -589 296 -586V-574H147V-586Q177 -592 167 -613L96 -744Q82 -766 59 -769ZM896 -69Q903 -44 921 -55Q933 -65 936 -90H949V-40Q940 -29 919 -19Q888 -6 859 -17Q828 -30 820 -71L764 -379Q758 -415 775 -435Q788 -450 819 -451H902Q919 -451 922 -470H934V-399H922Q917 -417 902 -418H854Q836 -416 837 -396ZM493 -753Q478 -767 453 -769V-781H631V-769Q599 -765 609 -753L704 -671Q736 -647 783 -656Q830 -668 832 -703H845V-655Q815 -631 779 -622Q730 -613 688 -620Q640 -628 608 -654Z"/>
</svg>