<svg xmlns="http://www.w3.org/2000/svg" viewBox="0 -800 1024 1024">
	<path fill="#000000" d="M769 -433Q825 -433 848 -411Q871 -390 871 -339V-44Q871 33 815 61Q776 84 685 83Q584 82 529 49V-12H542Q558 44 673 47Q734 49 755 32Q778 15 778 -32V-361Q776 -398 737 -400H329V-36Q329 41 273 67Q239 84 179 84Q95 81 58 48V-15H71Q80 35 144 46Q241 68 236 -27V-606H93Q77 -605 72 -587H60V-658H72Q77 -639 93 -639H453V-738Q454 -767 425 -769V-781H575V-769Q546 -765 547 -738V-639H914Q931 -641 934 -658H947V-587H934Q930 -605 914 -606H329V-433Z"/>
</svg>