<svg xmlns="http://www.w3.org/2000/svg" viewBox="0 -800 1024 1024">
	<path fill="#000000" d="M342 -333Q339 -311 363 -309V-296H282V-309Q303 -310 301 -333V-579Q302 -601 282 -602V-615H363V-602Q341 -599 342 -579ZM122 -333Q121 -311 141 -309V-296H60V-309Q81 -308 80 -333V-579Q82 -601 60 -602V-615H141V-602Q121 -599 122 -579ZM542 -427Q543 -440 526 -442V-454H600V-442Q585 -437 584 -427L561 -101Q560 -86 576 -81V-69H503V-81Q519 -85 520 -101ZM806 -101Q806 -85 822 -81V-69H749V-81Q766 -86 764 -101L742 -427Q741 -437 726 -442V-454H799V-442Q782 -439 784 -427ZM693 -47Q691 -19 720 -15V-2H605V-15Q633 -19 632 -47V-518H545Q529 -516 525 -499H512V-570H525Q530 -551 545 -551H632V-629Q633 -659 605 -660V-673H720V-660Q692 -656 693 -629V-551H781Q799 -552 802 -570H815V-499H802Q798 -517 781 -518H693ZM251 30Q250 56 279 61V75H145V61Q173 58 173 30V-737Q174 -769 145 -769V-781H279V-769Q250 -765 251 -737ZM471 42H815Q855 42 854 2V-686Q854 -725 815 -725H471ZM393 -720Q393 -740 369 -745V-757H840Q895 -757 915 -734Q933 -713 932 -675V-12Q932 30 912 50Q890 75 838 75H369V62Q392 60 393 36Z"/>
</svg>