<svg xmlns="http://www.w3.org/2000/svg" viewBox="0 -800 1024 1024">
	<path fill="#000000" d="M866 -337Q883 -340 887 -362H900V-285H887Q883 -303 866 -304H141Q125 -303 120 -285H107V-357H120Q124 -336 141 -337ZM221 -725V-618H787V-677Q783 -721 736 -725ZM738 -478Q785 -481 787 -529V-585H221V-478ZM915 -198Q931 -201 936 -222H949V-146H936Q931 -165 915 -165H434L213 22Q206 28 208 34Q211 40 220 40Q462 37 754 -9L687 -94Q676 -106 645 -111V-123H807V-111Q782 -106 787 -94L897 44Q907 57 935 62V75H773V62Q803 56 797 44L777 19Q486 71 168 76Q128 77 113 51Q99 20 130 -8L314 -165H92Q76 -164 71 -146H58V-217H71Q76 -198 92 -198ZM775 -757Q821 -757 848 -737Q878 -715 878 -668V-541Q878 -493 850 -469Q824 -445 776 -445H103V-458Q130 -463 131 -485V-720Q129 -740 103 -745V-757Z"/>
</svg>