<svg xmlns="http://www.w3.org/2000/svg" viewBox="0 -800 1024 1024">
	<path fill="#000000" d="M122 -320Q121 -298 141 -296V-283H60V-296Q81 -295 80 -320V-593Q80 -615 60 -616V-629H141V-616Q122 -613 122 -593ZM362 -320Q362 -299 381 -296V-283H300V-296Q319 -298 319 -320V-593Q320 -614 300 -616V-629H381V-616Q362 -613 362 -593ZM779 -358Q819 -358 819 -399V-442H527V-358ZM527 -559V-475H819V-520Q819 -559 779 -559ZM373 -697H386Q388 -677 401 -665Q419 -650 432 -670L479 -751Q487 -767 459 -769V-781H606V-769Q585 -767 576 -751L545 -698H913Q932 -700 934 -717H947V-646H934Q929 -665 913 -665H526L520 -655Q508 -631 478 -622Q446 -615 414 -625Q391 -631 373 -649ZM261 30Q260 56 289 61V75H151V61Q179 58 179 30V-737Q179 -768 151 -769V-781H289V-769Q260 -765 261 -737ZM803 -179Q814 -187 811 -198Q807 -209 792 -209H531L527 -204Q511 -181 483 -170Q458 -160 424 -167Q394 -174 373 -191V-235H385Q387 -217 409 -204Q425 -195 438 -214L481 -270Q490 -283 461 -287V-300H609V-287Q590 -287 577 -270L556 -242H846Q889 -241 903 -211Q918 -173 881 -147L715 -40L859 36Q886 50 910 38Q932 25 936 1H949V52Q936 66 913 75Q889 83 864 84Q814 82 779 62L657 -3L578 48Q544 71 507 78Q466 90 426 80Q386 73 365 51V1H377Q387 33 415 43Q440 52 473 34L587 -40L448 -114Q426 -127 400 -131V-143H591V-131Q567 -124 579 -113L645 -77ZM815 -592Q857 -592 881 -574Q907 -556 907 -513V-411Q907 -366 881 -345Q857 -324 811 -325H413V-338Q438 -342 440 -362V-556Q440 -574 413 -579V-592Z"/>
</svg>