<svg xmlns="http://www.w3.org/2000/svg" viewBox="0 -800 1024 1024">
	<path fill="#000000" d="M425 -43Q427 -30 443 -27V-15H361V-27Q378 -30 378 -43L350 -471Q348 -483 333 -487V-500H415V-487Q397 -485 398 -471ZM101 -471Q102 -485 84 -487V-500H166V-487Q151 -483 149 -471L122 -43Q122 -30 140 -27V-15H57V-27Q74 -31 75 -43ZM604 -576V-292H797V-576ZM604 42H758Q798 43 797 2V-260H604ZM290 31Q290 57 317 62V75H182V62Q208 57 209 31V-575H107Q91 -573 87 -556H74V-627H87Q91 -608 107 -608H209V-737Q209 -768 182 -769V-781H317V-769Q289 -765 290 -737V-608H384Q401 -609 404 -627H417V-556H404Q401 -574 384 -575H290ZM915 -609Q933 -611 936 -628H949V-557H936Q932 -575 915 -576H883V-8Q883 33 863 53Q842 75 798 75H494V62Q518 58 517 38V-576H485Q469 -574 465 -557H452V-628H465Q468 -609 485 -609H517V-746Q517 -766 494 -769V-781H628V-769Q606 -765 604 -746V-609H797V-746Q797 -765 773 -769V-781H907V-769Q884 -765 883 -746V-609Z"/>
</svg>