<svg xmlns="http://www.w3.org/2000/svg" viewBox="0 -800 1024 1024">
	<path fill="#000000" d="M839 -756Q839 -750 835 -746Q833 -744 828 -740L827 -743Q828 -755 837 -757ZM699 -735Q687 -732 675 -729Q675 -741 689 -741Q696 -741 699 -735ZM390 -392Q388 -381 376 -377Q372 -381 372 -384Q374 -394 383 -395Q386 -395 390 -392ZM683 -94Q679 -91 660 -85Q636 -77 628 -69Q620 -61 620 -50Q620 -44 624 -40Q638 -45 650 -50Q663 -56 678 -56Q681 -72 683 -89ZM617 -156V-153H619Q641 -156 658 -169Q666 -174 674 -176Q688 -180 694 -185Q697 -182 699 -180L700 -182Q705 -199 705 -209Q705 -214 704 -217Q683 -213 659 -197Q649 -190 646 -188Q635 -181 626 -176Q618 -171 617 -156ZM638 -387H663Q666 -404 668 -421Q669 -405 678 -399Q681 -404 681 -418V-447Q684 -467 686 -488Q686 -501 679 -507Q671 -504 671 -476Q671 -453 666 -447Q663 -497 660 -548Q659 -554 655 -557Q656 -560 657 -564V-566Q639 -559 630 -552Q631 -549 636 -546Q641 -543 642 -539V-522Q642 -507 645 -500Q636 -485 636 -449Q637 -418 638 -387ZM728 -446Q745 -474 766 -500Q792 -539 805 -566Q804 -577 797 -581Q790 -585 782 -587Q787 -589 803 -594L804 -596Q803 -601 801 -606V-608Q819 -620 836 -632Q862 -652 874 -652Q882 -652 892 -647Q895 -644 898 -641Q900 -641 904 -645Q909 -650 911 -650H912L913 -647Q913 -643 910 -639Q918 -645 924 -653Q925 -651 925 -648Q925 -642 920 -635Q914 -627 914 -623V-619Q917 -603 924 -587Q922 -584 922 -577Q923 -568 923 -560Q923 -553 920 -549Q917 -551 914 -559Q912 -565 910 -567Q900 -566 896 -541Q893 -523 890 -519Q873 -513 869 -511Q857 -505 852 -497Q858 -496 863 -496Q893 -496 906 -513Q910 -520 913 -526Q916 -533 922 -534V-515Q910 -511 903 -500Q896 -490 889 -480Q877 -482 872 -482Q846 -482 823 -462Q812 -453 785 -420Q778 -432 771 -432H768V-440L764 -441Q755 -439 747 -434L746 -438Q748 -446 753 -450Q750 -454 747 -454Q742 -453 737 -448Q732 -443 728 -439Q727 -424 725 -409Q805 -417 885 -425Q895 -426 899 -430Q902 -434 907 -443V-437Q907 -415 925 -415Q929 -415 939 -417V-416Q939 -412 937 -412Q934 -412 933 -407Q933 -396 943 -396H951Q956 -396 959 -395Q944 -387 944 -369Q944 -357 953 -351Q956 -343 956 -336Q956 -331 948 -296Q940 -292 933 -292Q917 -294 899 -306Q882 -310 870 -318Q873 -322 878 -322Q887 -320 896 -318Q901 -318 905 -321Q903 -334 891 -338Q883 -341 864 -342Q841 -345 817 -348Q801 -348 795 -338Q799 -328 821 -328Q839 -328 844 -321Q836 -319 831 -319Q817 -320 802 -321Q787 -321 777 -314Q779 -310 788 -303Q796 -298 797 -295Q802 -296 806 -298Q804 -294 804 -291L805 -287Q810 -288 815 -294Q821 -301 825 -301Q825 -294 821 -289Q817 -283 816 -280Q816 -277 815 -275Q818 -260 821 -246V-241Q820 -227 819 -214V-211Q788 -206 778 -170Q767 -129 761 -82Q757 -88 757 -92Q757 -94 760 -112Q768 -171 782 -196Q778 -200 774 -204Q757 -186 746 -131Q736 -82 736 -32V-15Q736 14 746 23Q749 17 749 1Q749 -24 757 -26Q755 -10 755 23V97Q744 104 734 115Q730 113 678 79Q673 56 670 29H665Q651 29 640 42H637Q628 42 617 56Q606 69 597 69H596Q583 69 569 43Q558 23 551 18Q555 8 558 -3Q553 -25 550 -48Q547 -71 539 -87Q539 -90 538 -93L539 -96Q526 -115 512 -138Q502 -152 501 -154Q495 -164 495 -176Q495 -182 496 -185Q497 -191 505 -205Q514 -220 514 -232V-236Q534 -238 551 -254Q562 -251 570 -251Q583 -251 592 -255Q608 -261 629 -273Q663 -291 678 -296Q686 -303 694 -311Q592 -298 516 -249V-250Q520 -261 534 -270Q585 -296 642 -315Q639 -322 631 -322Q627 -322 619 -320Q581 -313 541 -294Q509 -280 492 -268Q475 -257 463 -215L466 -214Q470 -214 479 -223Q489 -233 496 -233Q499 -233 503 -231Q501 -222 487 -211Q474 -200 471 -193Q470 -159 448 -160Q438 -160 429 -170H422Q399 -170 389 -184Q372 -202 364 -234Q363 -237 363 -244Q327 -223 320 -206Q314 -194 314 -168Q318 -118 322 -68H320Q316 -67 312 -67H310Q307 -93 298 -111Q285 -103 285 -68V-48Q285 -30 284 -12Q284 21 301 31Q308 26 314 21Q310 12 310 -7Q310 -21 311 -26Q318 -28 325 -30V-25Q325 -14 331 7Q336 24 336 34Q336 40 335 43Q334 50 322 65Q305 87 305 99Q303 97 299 97Q295 97 289 104Q284 110 281 111Q270 105 249 82Q234 68 220 53Q205 39 204 16Q204 4 208 -8Q205 -14 190 -18Q217 -24 220 -54Q223 -94 226 -131Q201 -123 194 -94Q187 -91 178 -91Q167 -92 161 -101Q155 -111 148 -117L154 -105Q153 -104 153 -103Q131 -134 131 -154Q131 -156 133 -164Q126 -175 117 -185Q116 -190 116 -200Q117 -235 140 -245Q165 -254 189 -263Q216 -276 242 -290V-296Q244 -316 245 -337Q205 -327 175 -297Q163 -284 147 -269Q131 -253 109 -252H104Q91 -254 84 -266Q77 -277 66 -288Q59 -294 51 -301Q43 -308 39 -319Q37 -327 37 -330Q41 -350 45 -371Q44 -381 40 -396Q34 -416 34 -428V-437Q40 -492 93 -533Q88 -522 92 -500Q92 -490 96 -483Q118 -486 133 -494Q150 -503 172 -504V-503Q172 -491 168 -490Q153 -485 141 -477Q122 -458 122 -457Q127 -450 138 -448Q144 -448 173 -466Q208 -483 242 -500Q238 -512 232 -515Q222 -513 212 -512Q207 -512 204 -515Q210 -527 228 -534Q246 -540 261 -547Q256 -572 250 -599Q244 -626 220 -629L219 -631Q224 -635 229 -639Q226 -643 223 -648Q216 -647 205 -640Q198 -635 196 -635Q215 -675 231 -695Q255 -724 286 -724Q291 -723 296 -723Q326 -719 352 -682Q381 -645 380 -623Q380 -614 371 -598Q363 -584 362 -573L364 -572Q370 -573 375 -575L378 -573V-570Q378 -564 377 -558Q377 -554 378 -552Q407 -577 433 -610Q443 -622 450 -622L454 -621V-618Q454 -612 445 -599Q434 -583 434 -575Q435 -572 435 -570Q440 -573 399 -464Q395 -460 395 -452V-448Q402 -445 409 -443H412Q418 -445 422 -452Q425 -458 430 -464Q428 -474 426 -484V-486Q434 -482 442 -478Q444 -478 447 -482Q442 -504 436 -527H437Q439 -527 447 -510Q457 -496 461 -492Q469 -499 470 -515Q474 -509 475 -500Q533 -464 543 -365Q575 -373 581 -373Q576 -400 569 -426Q562 -452 545 -463Q543 -475 541 -488Q541 -494 542 -497Q534 -490 525 -490Q510 -490 497 -527Q487 -557 478 -563Q475 -574 472 -585V-588Q475 -605 478 -623V-624Q478 -628 474 -634Q470 -639 470 -645Q470 -648 472 -648Q475 -648 477 -651Q477 -660 468 -667Q463 -671 461 -675Q467 -677 468 -677Q476 -675 484 -674H486Q496 -674 509 -692Q520 -707 526 -708H529Q542 -705 555 -702H556Q577 -702 586 -714Q596 -716 612 -721Q635 -729 644 -729Q650 -729 652 -728Q636 -711 610 -706Q579 -698 570 -680Q575 -677 581 -677Q592 -677 617 -688Q636 -696 643 -698Q713 -714 737 -735Q734 -742 728 -742Q721 -741 714 -740Q711 -740 709 -741Q712 -754 735 -764Q766 -770 796 -777Q795 -770 794 -764Q813 -772 830 -783Q829 -778 819 -768Q808 -757 808 -747Q808 -744 812 -734H813Q817 -736 820 -738H821L822 -737Q818 -726 813 -716V-702Q813 -695 814 -690L816 -689Q819 -692 824 -696H826Q825 -690 817 -680Q813 -675 810 -668Q808 -660 807 -652Q805 -644 799 -641L798 -639Q799 -637 800 -635L799 -632Q791 -627 787 -617Q785 -618 778 -618Q768 -618 764 -615Q760 -611 755 -606Q761 -594 761 -581Q760 -561 751 -541Q742 -521 737 -502Q731 -472 728 -446ZM388 -442Q378 -434 377 -422Q380 -418 385 -416Q390 -413 391 -407Q376 -402 354 -396Q332 -391 323 -380Q319 -373 319 -362Q322 -339 325 -317Q333 -325 348 -345Q350 -354 357 -352Q377 -364 397 -368H400Q391 -363 380 -358Q368 -352 366 -342Q376 -345 386 -348Q389 -348 392 -345Q382 -340 375 -334Q376 -333 370 -329Q364 -325 363 -325Q349 -310 346 -302L348 -301Q354 -303 359 -305Q354 -302 359 -297Q363 -292 368 -287Q375 -293 376 -298Q378 -314 381 -316Q383 -319 396 -327Q410 -340 424 -353Q432 -365 439 -367L443 -366Q441 -362 427 -352Q413 -342 410 -336Q420 -334 438 -334Q452 -334 465 -339Q476 -343 488 -345Q475 -357 456 -360Q450 -371 441 -374Q436 -376 420 -377V-379Q420 -382 423 -383Q426 -384 427 -386Q426 -397 415 -397Q405 -395 394 -393Q395 -402 403 -405Q415 -409 416 -411V-429Q411 -435 403 -437Q395 -439 388 -442Z"/>
</svg>