<svg xmlns="http://www.w3.org/2000/svg" viewBox="0 -800 1024 1024">
	<path fill="#000000" d="M635 -757H763V-744Q736 -740 737 -712V-516Q735 -488 763 -484V-471H636V-484Q662 -487 661 -516V-712Q662 -744 635 -744ZM835 -739Q835 -767 811 -768V-781H939V-768Q915 -764 915 -739V-466Q915 -406 875 -377Q839 -351 772 -356Q711 -362 675 -392V-444H688Q693 -410 728 -397Q769 -382 802 -396Q834 -413 835 -455ZM287 -738Q289 -769 265 -769V-781H398V-769Q371 -765 372 -737V-717H532Q550 -719 553 -736H566V-667H553Q548 -685 532 -685H372V-622H560Q578 -624 580 -641H593V-571H580Q576 -589 560 -590H372V-532H495Q530 -532 547 -520Q566 -506 566 -478V-424Q566 -392 542 -376Q516 -358 480 -361Q440 -366 415 -390V-438H427Q432 -408 460 -399Q492 -393 495 -425V-476Q495 -498 467 -499H372V-377Q372 -349 396 -345V-332H262V-345Q287 -349 287 -377V-499H165V-413Q165 -390 189 -384V-372H70V-384Q94 -389 95 -413V-497Q95 -516 71 -519V-532H287V-590H102Q87 -589 82 -571H69V-639H82Q85 -622 102 -622H287V-685H178Q170 -668 154 -659Q130 -645 102 -648Q78 -651 60 -663V-709H73Q75 -687 93 -682Q107 -680 114 -697L129 -739Q135 -755 117 -758V-770H221V-758Q206 -756 199 -739L190 -717H287ZM907 -82Q924 -84 927 -101H940V-30H927Q922 -48 907 -49H548V-17Q548 46 493 70Q445 89 368 80Q292 71 267 48V-2H279Q287 34 357 47Q399 53 424 41Q459 27 459 -10V-49H102Q87 -47 82 -30H69V-101H82Q85 -82 102 -82H459V-160H172Q156 -159 151 -141H138V-212H151Q154 -193 172 -193H459V-266H134Q118 -264 114 -247H101V-319H114Q117 -299 134 -300H767Q782 -300 788 -309L794 -316Q800 -324 782 -325V-339H920V-326Q907 -326 897 -310L884 -292Q872 -276 848 -269Q836 -266 809 -266Q804 -266 801 -266H548V-193H835Q853 -195 856 -212H869V-141H856Q852 -159 835 -160H548V-82Z"/>
</svg>