<svg xmlns="http://www.w3.org/2000/svg" viewBox="0 -800 1024 1024">
	<path fill="#000000" d="M803 -548Q833 -548 833 -578V-640Q833 -667 803 -667H707V-548ZM498 -667V-548H624V-667ZM122 -320Q121 -298 141 -296V-283H60V-296Q81 -295 80 -320V-593Q80 -615 60 -616V-629H141V-616Q122 -613 122 -593ZM355 -320Q355 -299 375 -296V-283H294V-296Q313 -297 313 -320V-593Q314 -614 294 -616V-629H375V-616Q354 -614 355 -593ZM821 -354Q875 -354 895 -332Q913 -312 912 -276V-144Q911 -116 938 -113V-100H811V-113Q837 -116 837 -144V-283Q837 -321 797 -321H495V-144Q494 -117 519 -113V-100H394V-113Q420 -116 420 -144V-318Q419 -339 396 -341V-354ZM608 -115Q623 -131 623 -164V-238Q624 -265 595 -266V-279H736V-266Q708 -263 708 -238V-161Q708 -134 703 -118Q698 -97 683 -81L676 -73H798V-60Q773 -57 783 -42L841 30Q863 56 898 42Q927 30 936 -1H949V50Q927 77 873 83Q839 86 810 79Q774 69 756 47L679 -46Q672 -53 663 -58L576 42Q549 70 512 79Q478 87 427 79Q382 72 357 50V-1H370Q381 40 430 46Q464 49 488 22ZM258 30Q257 56 286 61V75H149V61Q177 58 177 30V-737Q178 -769 149 -769V-781H286V-769Q257 -765 258 -737ZM915 -451Q933 -453 936 -470H949V-401H936Q932 -419 915 -420H417Q401 -418 397 -401H384V-470H397Q401 -451 417 -451H624V-518H394V-530Q418 -532 419 -556V-661Q419 -681 394 -686V-698H624V-746Q625 -767 598 -768V-781H734V-768Q708 -767 707 -746V-698H842Q876 -698 894 -684Q912 -670 912 -639V-575Q912 -545 894 -531Q876 -518 842 -518H707V-451Z"/>
</svg>