<svg xmlns="http://www.w3.org/2000/svg" viewBox="0 -800 1024 1024">
	<path fill="#000000" d="M510 -186H634V-173Q610 -170 619 -148L653 -46Q661 -24 685 -20V-7H551V-20Q580 -23 572 -46L537 -148Q530 -172 510 -173ZM738 -150H863V-137Q838 -135 843 -119L889 16Q899 41 920 29Q933 19 936 -4H949V40Q934 59 904 68Q873 75 848 65Q819 52 809 20L761 -119Q755 -135 738 -137ZM58 -4H71Q74 19 87 29Q108 41 119 16L164 -119Q169 -135 144 -137V-150H269V-137Q253 -135 248 -119L200 20Q190 53 159 65Q133 75 100 68Q75 61 58 40ZM525 83Q469 83 443 80Q412 76 392 67Q337 42 338 -37V-124Q339 -151 315 -152V-165H450V-152Q426 -149 427 -124V-28Q425 44 495 50Q544 55 600 51Q665 46 703 33Q731 25 737 -7H749V42Q717 64 659 74Q609 83 525 83ZM856 -513Q893 -513 908 -501Q925 -490 925 -462V-443Q924 -422 949 -419V-406H811V-419Q837 -421 835 -443V-460Q835 -480 813 -480H172V-444Q171 -424 196 -419V-406H58V-419Q83 -420 82 -444V-476Q82 -497 58 -500V-513ZM698 -391Q739 -391 757 -380Q777 -365 777 -336V-279Q778 -244 824 -234Q865 -227 899 -247Q932 -266 936 -304H948V-246Q932 -223 888 -208Q824 -185 760 -200Q688 -219 687 -277V-334Q687 -358 661 -358H320V-277Q318 -218 236 -199Q179 -187 123 -204Q77 -217 58 -246V-304H71Q80 -262 113 -243Q144 -228 179 -234Q228 -245 230 -279V-355Q230 -375 205 -378V-391ZM430 -781H577V-769Q550 -765 549 -737V-722H906Q924 -724 927 -741H940V-670H927Q922 -689 906 -689H549V-608H850Q868 -609 871 -627H884V-556H871Q867 -574 850 -575H158Q142 -574 137 -556H125V-627H137Q142 -608 158 -608H458V-689H101Q85 -687 81 -670H68V-741H81Q86 -722 101 -722H458V-737Q458 -768 430 -769Z"/>
</svg>