<svg xmlns="http://www.w3.org/2000/svg" viewBox="0 -800 1024 1024">
	<path fill="#000000" d="M730 -227Q749 -231 756 -243L811 -333Q820 -346 795 -351V-363H916V-351Q900 -348 890 -333L835 -243Q828 -229 852 -227V-214H730ZM329 -363H451V-351Q427 -347 434 -333L490 -243Q496 -231 516 -227V-214H393V-227Q418 -229 411 -243L355 -333Q347 -348 329 -351ZM297 -44H310Q310 -24 324 -12Q345 3 358 -21L410 -145Q416 -161 392 -165V-178H515V-165Q497 -162 490 -145L436 -18Q426 11 395 23Q365 34 337 27Q313 22 297 3ZM730 -178H854V-165Q830 -161 836 -145L888 -21Q901 3 922 -12Q935 -23 936 -44H949V3Q932 23 908 27Q880 34 851 23Q820 11 810 -18L756 -145Q749 -162 730 -165ZM59 -520H204V-507Q176 -499 186 -482L257 -359Q272 -335 293 -332V-320H148V-332Q179 -337 166 -359L94 -482Q82 -502 59 -507ZM59 -781H204V-769Q176 -762 185 -744L260 -613Q270 -592 296 -586V-574H149V-586Q178 -591 168 -613L94 -744Q85 -764 59 -769ZM177 -223Q179 -246 156 -251V-264H292V-251Q267 -244 263 -223L222 11Q215 48 185 68Q160 87 117 82Q83 77 58 49V-5H71Q76 31 98 40Q127 50 135 17ZM915 -457Q932 -458 935 -475H947V-404H935Q931 -422 914 -423H667V-3Q667 44 631 66Q596 88 541 79Q501 71 476 49V4H489Q499 34 527 43Q576 55 580 11V-423H337Q322 -421 317 -404H304V-475H317Q321 -456 337 -457H760L774 -575H388Q372 -574 367 -556H354V-626H367Q372 -607 388 -607H778L788 -686Q791 -723 750 -725H359Q343 -723 339 -706H326V-776H339Q344 -757 359 -757H782Q833 -757 854 -737Q879 -717 873 -674L846 -457Z"/>
</svg>