<svg xmlns="http://www.w3.org/2000/svg" viewBox="0 -800 1024 1024">
	<path fill="#000000" d="M543 -236H625V-223Q605 -219 607 -203L624 -47Q627 -29 645 -26V-13H559V-26Q581 -30 579 -47L562 -203Q561 -221 543 -223ZM265 10Q285 7 287 -11L307 -203Q308 -220 288 -223V-236H371V-223Q352 -221 352 -203L332 -11Q329 7 352 10V23H265ZM511 -526H483V-317H511Q551 -319 553 -356V-489Q552 -525 511 -526ZM360 -317H430V-526H360ZM59 -520H181V-507Q156 -504 165 -482L212 -358Q219 -335 241 -334V-321H116V-334Q144 -339 136 -358L89 -482Q80 -505 59 -507ZM59 -781H181V-769Q156 -765 165 -744L218 -611Q225 -589 248 -586V-574H122V-586Q151 -590 143 -611L89 -744Q80 -767 59 -769ZM145 -228Q148 -247 124 -252V-265H244V-252Q225 -247 222 -229L200 15Q198 45 176 66Q153 86 118 83Q83 79 58 49V-3H71Q75 33 93 42Q118 50 123 20ZM634 -565H646Q648 -533 658 -528Q675 -519 679 -547L710 -746Q713 -763 689 -769V-781H800V-769Q781 -765 777 -746L760 -641H855Q894 -642 909 -627Q925 -613 925 -578V-441Q925 -419 949 -416V-403H840V-416Q863 -417 863 -441V-579Q864 -608 834 -608H755L747 -553Q741 -512 722 -498Q704 -482 671 -487Q651 -491 634 -511ZM721 -239Q723 -252 723 -275Q723 -282 723 -285V-428Q724 -457 698 -457V-470H817V-457Q795 -454 796 -428V-283H876V-271Q856 -266 857 -249L896 29Q901 50 918 42Q934 32 937 6H949V52Q937 71 914 79Q883 88 859 74Q838 60 833 25L794 -251V-252L790 -229L732 28Q725 60 702 75Q679 87 643 81Q611 74 594 53V12H606Q610 36 625 43Q651 50 660 28ZM496 34Q495 59 520 62V75H392V62Q418 61 416 34V-285H274V-298Q296 -301 297 -324V-521Q297 -542 274 -546V-559H416V-642H305Q290 -640 285 -623H272V-694H285Q289 -674 305 -675H416V-740Q418 -768 392 -769V-781H520V-769Q494 -766 496 -740V-675H603Q621 -677 623 -694H636V-623H623Q619 -641 603 -642H496V-559H525Q578 -559 599 -536Q616 -518 616 -477V-372Q616 -328 597 -309Q575 -285 522 -285H496Z"/>
</svg>