<svg xmlns="http://www.w3.org/2000/svg" viewBox="0 -800 1024 1024">
	<path fill="#000000" d="M747 -468Q770 -471 780 -493L817 -573Q828 -593 803 -596V-610H917V-597Q895 -596 884 -573L847 -493Q835 -472 863 -468V-455H747ZM421 -610H535V-596Q510 -593 520 -573L558 -493Q566 -471 591 -468V-455H474V-468Q502 -472 490 -493L454 -573Q443 -596 421 -597ZM613 -37H698Q723 -38 724 -62V-186Q725 -211 697 -210H613ZM95 -471Q96 -485 78 -487V-500H156V-487Q139 -483 139 -471L118 -43Q117 -30 135 -27V-15H57V-27Q75 -30 75 -43ZM377 -43Q376 -30 394 -27V-15H315V-27Q335 -30 333 -43L312 -471Q310 -483 294 -487V-500H372V-487Q354 -485 355 -471ZM537 -241H710Q748 -242 762 -229Q779 -219 779 -186V-65Q779 -36 761 -20Q746 -7 710 -7H537V-20Q558 -23 558 -42V-206Q558 -224 537 -228ZM626 -737Q627 -769 599 -769V-781H739V-769Q711 -765 712 -737V-685H889Q907 -687 910 -704H922V-633H910Q905 -652 889 -652H712V-419H915Q933 -421 936 -438H949V-368H936Q932 -386 915 -387H422Q407 -385 402 -368H389V-438H402Q406 -419 422 -419H626V-652H449Q433 -651 428 -633H415V-704H428Q431 -685 449 -685H626ZM264 31Q262 58 290 62V75H160V62Q188 58 187 31V-575H107Q90 -574 87 -556H74V-627H87Q91 -608 107 -608H187V-737Q188 -768 160 -769V-781H290V-769Q263 -765 264 -737V-608H344Q362 -609 365 -627H378V-556H365Q361 -574 344 -575H264ZM802 42Q840 40 842 2V-251Q842 -289 802 -289H496V42ZM823 -322Q879 -322 898 -299Q916 -280 916 -240V-11Q916 29 896 50Q873 75 820 75H397V62Q421 58 422 35V-285Q421 -305 397 -309V-322Z"/>
</svg>