<svg xmlns="http://www.w3.org/2000/svg" viewBox="0 -800 1024 1024">
	<path fill="#000000" d="M307 -615H388V-602Q368 -599 369 -579V-432Q367 -410 388 -407V-394H307V-407Q328 -408 326 -432V-579Q327 -601 307 -602ZM122 -333Q121 -310 142 -309V-296H60V-309Q81 -308 80 -333V-579Q82 -601 60 -602V-615H142V-602Q121 -599 122 -579ZM768 42Q805 40 807 2V-173Q806 -211 768 -212H530V42ZM269 30Q267 57 297 61V75H153V61Q181 58 181 30V-737Q182 -769 153 -769V-781H297V-769Q268 -765 269 -737ZM820 -615Q843 -648 803 -655H568L554 -630Q536 -599 508 -592Q477 -584 447 -596Q423 -604 406 -621V-671H419Q422 -647 438 -633Q460 -616 472 -637L535 -749Q542 -763 513 -769V-781H653V-769Q636 -767 623 -749L587 -687H843Q897 -686 907 -642Q912 -605 881 -578L719 -442L864 -339Q896 -317 912 -325Q929 -332 936 -367H949V-313Q934 -298 907 -291Q877 -282 845 -289Q815 -295 781 -318L668 -399L578 -324Q548 -301 513 -293Q479 -283 441 -289Q403 -298 383 -313V-367H396Q405 -334 432 -325Q461 -318 490 -341L610 -441L493 -526Q480 -535 453 -542V-555H614V-542Q592 -536 603 -525L661 -483ZM800 -245Q855 -245 876 -222Q894 -203 894 -163V-12Q894 30 874 50Q853 75 798 75H415V62Q442 57 443 35V-206Q442 -227 415 -232V-245Z"/>
</svg>