<svg xmlns="http://www.w3.org/2000/svg" viewBox="0 -800 1024 1024">
	<path fill="#000000" d="M262 -506H275Q277 -487 286 -478Q308 -460 317 -489L335 -586Q337 -603 315 -607V-620H421V-607Q401 -604 396 -586L376 -483Q370 -452 341 -440Q319 -431 296 -439Q278 -444 262 -459ZM790 -620H896V-607Q874 -603 876 -586L895 -489Q903 -460 925 -478Q934 -487 936 -506H949V-459Q934 -444 916 -439Q892 -431 870 -440Q841 -452 835 -483L815 -586Q811 -604 790 -607ZM59 -520H194V-507Q167 -502 177 -482L237 -357Q246 -341 271 -332V-320H135V-332Q164 -336 153 -357L93 -482Q81 -503 59 -507ZM59 -781H193V-769Q169 -764 176 -744L236 -611Q245 -592 270 -586V-574H134V-586Q162 -591 152 -611L93 -744Q82 -765 59 -769ZM165 -222Q167 -246 142 -251V-264H273V-251Q250 -244 247 -222L215 13Q210 48 180 69Q156 87 116 82Q81 77 58 48V-5H71Q76 30 97 41Q125 51 132 20ZM443 -436Q467 -440 467 -464V-660H310Q295 -658 290 -641H277V-712H290Q294 -692 310 -693H562V-743Q563 -767 537 -769V-781H675V-769Q649 -767 650 -743V-693H899Q916 -695 919 -712H932V-641H919Q914 -659 899 -660H744V-464Q745 -441 768 -436V-423H641V-436Q664 -440 663 -464V-660H547V-464Q546 -442 568 -436V-423H443ZM294 -76V-89Q319 -92 323 -118L345 -207Q351 -231 323 -234V-246H789Q818 -246 818 -274V-328Q818 -353 790 -353H329Q312 -350 308 -334H295V-405H308Q312 -386 329 -386H821Q865 -386 884 -373Q907 -360 907 -325V-278Q907 -246 887 -229Q867 -214 825 -214H432L407 -108H841Q884 -108 903 -92Q924 -78 924 -44V-4Q924 28 902 50Q880 71 840 74Q766 81 696 84Q637 84 606 83Q570 82 541 80Q464 74 420 55V5H433Q442 29 498 42Q557 55 645 55Q707 54 787 46Q835 39 836 -2V-49Q834 -74 805 -76Z"/>
</svg>