<svg xmlns="http://www.w3.org/2000/svg" viewBox="0 -800 1024 1024">
	<path fill="#000000" d="M551 -112H492V33H579V-82Q579 -112 551 -112ZM199 -112V33H287V-112ZM345 -112V33H434V-112ZM840 -629Q858 -631 861 -648H873V-578H861Q856 -597 840 -597H295Q279 -595 275 -578H261V-648H275Q278 -629 295 -629ZM517 -230Q555 -232 557 -272V-298H222V-230ZM222 -397V-329H557V-358Q556 -396 517 -397ZM58 -664H71Q71 -645 83 -629Q108 -603 130 -633L204 -747Q212 -765 185 -769V-781H323V-769Q306 -766 292 -747L281 -730H902Q920 -732 923 -749H935V-679H923Q919 -697 902 -698H260L213 -625Q194 -593 167 -585Q135 -575 101 -584Q75 -591 58 -608ZM737 -527Q790 -527 817 -507Q845 -488 845 -443V11Q850 50 894 37Q934 24 936 -12H949V43Q929 64 888 75Q839 90 798 73Q756 53 756 1V-449Q757 -497 711 -496H115Q100 -495 95 -477H82V-546H95Q99 -527 115 -527ZM549 -428Q605 -428 625 -407Q643 -391 643 -351V-281Q643 -239 621 -221Q599 -199 547 -199H110V-212Q134 -215 135 -239V-390Q135 -411 110 -415V-428ZM686 33Q703 31 706 14H718V83H706Q700 64 686 64H93Q78 65 73 83H61V14H73Q77 34 93 33H117V-108Q117 -128 92 -131V-144H579Q626 -144 645 -125Q662 -108 662 -74V33Z"/>
</svg>