<svg xmlns="http://www.w3.org/2000/svg" viewBox="0 -800 1024 1024">
	<path fill="#000000" d="M101 -471Q102 -485 84 -487V-500H166V-487Q151 -483 149 -471L122 -43Q122 -30 140 -27V-15H57V-27Q75 -30 75 -43ZM414 -43Q414 -30 432 -27V-15H349V-27Q369 -30 367 -43L340 -471Q338 -483 322 -487V-500H405V-487Q387 -485 388 -471ZM553 -520Q546 -502 575 -496V-483H444V-496Q466 -498 473 -520L546 -719Q553 -739 525 -745V-757H762Q800 -757 822 -743Q842 -730 854 -700L921 -520Q926 -499 948 -496V-483H818V-496Q847 -501 841 -520L777 -694Q764 -724 730 -725H628ZM285 31Q283 58 311 62V75H178V62Q204 58 204 31V-575H107Q91 -574 86 -556H74V-627H86Q91 -608 107 -608H204V-737Q205 -768 178 -769V-781H311V-769Q284 -765 285 -737V-608H383Q400 -609 403 -627H416V-556H403Q400 -574 383 -575H285ZM584 -20Q583 46 660 48Q764 51 828 35Q922 12 936 -51H948V10Q903 52 812 69Q736 86 632 84Q565 82 531 49Q501 20 501 -40V-406Q500 -426 475 -432V-444H801Q845 -444 869 -424Q891 -404 891 -361V-211Q891 -153 843 -126Q801 -104 745 -115Q704 -123 678 -147V-198H691Q705 -152 755 -148Q806 -152 809 -199V-374Q808 -411 770 -412H584Z"/>
</svg>