<svg xmlns="http://www.w3.org/2000/svg" viewBox="0 -800 1024 1024">
	<path fill="#000000" d="M469 -636H594V-622Q573 -619 578 -606L597 -565Q603 -553 621 -550V-537H498V-550Q518 -552 513 -566L494 -606Q488 -621 469 -623ZM786 -170Q825 -171 825 -211V-264H707V-170ZM786 -391H707V-297H825V-353Q824 -390 786 -391ZM506 -391V-297H624V-391ZM506 -264V-170H624V-264ZM122 -320Q121 -298 141 -296V-283H60V-296Q81 -295 80 -320V-593Q80 -615 60 -616V-629H141V-616Q122 -613 122 -593ZM360 -320Q360 -299 380 -296V-283H299V-296Q318 -297 318 -320V-593Q319 -614 299 -616V-629H380V-616Q359 -614 360 -593ZM882 -698Q900 -700 903 -717H915V-646H903Q899 -664 882 -665H449Q433 -664 428 -646H416V-717H428Q433 -698 449 -698H624V-744Q624 -766 597 -769V-781H734V-768Q708 -765 707 -744V-698ZM912 -512Q930 -514 933 -531H945V-460H933Q929 -478 912 -479H420Q404 -478 399 -460H386V-531H399Q404 -512 420 -512H712L754 -603Q761 -620 738 -622V-636H865V-623Q847 -620 840 -606L797 -512ZM261 30Q259 57 289 61V75H151V61Q179 58 179 30V-737Q180 -769 151 -769V-781H289V-769Q260 -765 261 -737ZM915 32Q933 30 936 14H949V83H936Q932 65 915 64H416Q400 65 395 83H382V14H395Q398 32 416 32H624V-36H451Q435 -34 431 -17H418V-87H431Q434 -69 451 -69H624V-137H405V-150Q430 -153 431 -175V-388Q430 -407 405 -411V-424H805Q853 -424 876 -407Q900 -388 900 -342V-225Q900 -181 878 -159Q852 -137 804 -137H707V-69H879Q897 -70 900 -87H913V-17H900Q896 -35 879 -36H707V32Z"/>
</svg>