<svg xmlns="http://www.w3.org/2000/svg" viewBox="0 -800 1024 1024">
	<path fill="#000000" d="M393 -73Q393 -61 411 -58V-45H332V-58Q350 -62 349 -73L329 -471Q329 -483 312 -487V-500H391V-487Q373 -485 374 -471ZM96 -471Q97 -485 79 -487V-500H158V-487Q141 -483 141 -471L119 -43Q118 -30 136 -27V-15H57V-27Q75 -30 75 -43ZM409 -13H422Q430 23 454 38Q486 51 497 15L544 -170Q545 -189 522 -194V-207H654V-194Q632 -191 628 -170L582 14Q572 53 544 71Q510 93 463 78Q432 69 409 45ZM818 1Q819 54 877 44Q929 35 936 -13H949V45Q914 80 844 83Q788 84 764 65Q731 42 731 -14V-253H467Q451 -252 446 -234H434V-305H446Q451 -286 467 -286H915Q933 -288 936 -305H949V-234H936Q932 -252 915 -253H818ZM275 31Q273 58 301 62V75H169V62Q196 59 195 31V-575H107Q91 -573 87 -556H74V-627H87Q91 -608 107 -608H195V-737Q196 -768 169 -769V-781H301V-769Q274 -765 275 -737V-608H364Q382 -609 385 -627H397V-556H385Q381 -574 364 -575H275ZM524 -737Q515 -766 490 -769V-781H633V-769Q602 -763 611 -737L630 -681L903 -706Q922 -709 924 -725H937V-654H924Q919 -674 903 -673L641 -649L691 -502H744Q771 -501 783 -522L817 -579Q824 -596 799 -602V-615H926V-602Q911 -598 900 -581L860 -515Q846 -490 827 -480Q805 -468 765 -469H702L717 -427Q732 -380 796 -379Q844 -380 881 -399Q929 -423 936 -465H949V-409Q932 -383 895 -365Q854 -347 797 -342Q741 -337 701 -352Q649 -370 633 -419L616 -469H472Q456 -468 451 -450H438V-521H451Q456 -502 472 -502H604L557 -641L469 -633Q452 -630 448 -614H436V-685H448Q453 -664 469 -666L546 -673Z"/>
</svg>