<svg xmlns="http://www.w3.org/2000/svg" viewBox="0 -800 1024 1024">
	<path fill="#000000" d="M840 -594Q858 -596 861 -613H873V-543H861Q856 -562 840 -562H295Q279 -560 275 -543H261V-613H275Q278 -594 295 -594ZM438 14Q437 40 464 43V56H337V43Q362 41 362 14V-311Q362 -337 337 -338V-351H464V-338Q438 -335 438 -311ZM641 32Q640 58 666 62V75H535V62Q561 58 560 32V-328Q561 -357 536 -359V-372H666V-359Q640 -354 641 -328ZM163 -330Q164 -356 138 -359V-372H268V-359Q247 -355 244 -332L230 -9Q228 37 195 64Q159 92 110 80Q79 72 58 50V-6H71Q74 40 111 44Q144 45 148 4ZM58 -605H71Q72 -580 86 -566Q109 -547 126 -575L202 -747Q210 -765 184 -769V-781H323V-769Q300 -765 292 -747L281 -723H902Q920 -725 923 -742H935V-672H923Q918 -691 902 -691H266L210 -566Q198 -535 165 -525Q135 -515 99 -525Q74 -533 58 -548ZM744 -465Q796 -465 823 -445Q851 -426 851 -381V10Q852 51 891 39Q932 22 936 -12H949V41Q924 66 894 74Q844 90 808 75Q764 55 763 1V-386Q761 -431 717 -433H115Q100 -432 95 -414H82V-484H95Q99 -465 115 -465Z"/>
</svg>