<svg xmlns="http://www.w3.org/2000/svg" viewBox="0 -800 1024 1024">
	<path fill="#000000" d="M280 -737Q281 -768 252 -769V-781H398V-769Q370 -764 370 -737V-550H444Q462 -551 465 -569H477V-498H465Q461 -516 444 -517H370V-49L441 -70Q461 -76 462 -89H474V-9L462 -10Q455 -31 441 -28L92 72Q74 78 71 91H58V11H71Q77 34 92 30L113 24V-601Q114 -632 85 -632V-645H207V-632Q180 -629 180 -601V5L280 -23ZM656 -737Q657 -769 628 -768V-781H773V-768Q745 -765 745 -737V-639H910Q928 -641 931 -658H944V-587H931Q927 -605 910 -606H745V-452H823Q870 -452 889 -434Q906 -419 906 -381V-285Q907 -260 898 -239Q891 -223 875 -208L748 -90L862 28Q882 48 908 37Q930 25 936 -6H949V46Q934 68 910 77Q880 87 845 81Q805 72 782 50L695 -41L599 48Q581 67 545 77Q509 88 478 80Q447 73 423 46V-6H435Q442 27 468 38Q494 49 515 30L646 -92L536 -209Q521 -225 513 -245Q507 -264 506 -287V-331Q504 -347 480 -351V-364H616V-351Q591 -347 590 -331V-285Q590 -284 590 -281Q588 -255 602 -243L699 -141L808 -243Q824 -255 823 -285V-393Q823 -419 796 -419H514Q498 -418 493 -400H480V-471H493Q497 -452 514 -452H656V-606H483Q468 -604 463 -587H450V-658H463Q467 -638 483 -639H656Z"/>
</svg>