<svg xmlns="http://www.w3.org/2000/svg" viewBox="0 -800 1024 1024">
	<path fill="#000000" d="M561 -395V-408Q586 -413 586 -431V-558Q586 -576 562 -578V-591H687V-578Q663 -574 664 -558V-431Q664 -411 689 -408V-395ZM59 -781H207V-769Q178 -763 189 -744L259 -613Q271 -589 296 -586V-574H147V-586Q178 -592 166 -613L96 -744Q82 -766 59 -769ZM58 -524H207V-511Q178 -506 188 -486L256 -355Q268 -332 293 -329V-316H144V-329Q174 -334 163 -355L95 -486Q83 -507 58 -511ZM183 -227Q187 -247 159 -251V-264H301V-251Q277 -247 272 -229L235 15Q227 57 184 74Q143 89 104 76Q77 70 58 51V-1H71Q75 38 107 45Q137 48 146 17ZM726 -758Q765 -758 784 -745Q803 -734 818 -703L907 -490Q917 -470 949 -466V-453H788V-466Q823 -470 815 -491L726 -702Q717 -725 688 -725H533L433 -489Q428 -468 461 -466V-453H299V-466Q331 -469 341 -490L439 -720Q445 -741 417 -745V-758ZM400 -207Q388 -226 367 -228V-241H508V-228Q483 -226 493 -207L557 -90H689Q718 -90 731 -117L814 -288Q833 -332 790 -333H368Q353 -331 348 -314H335V-384H348Q351 -364 368 -365H829Q874 -365 896 -337Q916 -306 896 -262L828 -127Q810 -87 783 -73Q756 -57 702 -58H574L614 14Q632 46 679 52Q738 57 787 37Q834 16 834 -18H847V34Q822 54 795 64Q757 78 703 82Q644 84 607 77Q548 65 523 17Z"/>
</svg>