<svg xmlns="http://www.w3.org/2000/svg" viewBox="0 -800 1024 1024">
	<path fill="#000000" d="M689 -334H785V-321Q764 -319 769 -304L798 -225Q805 -208 822 -207V-194H726V-207Q747 -208 742 -225L713 -304Q705 -321 689 -321ZM413 -334H510V-321Q489 -319 494 -304L523 -225Q530 -208 547 -207V-194H451V-207Q471 -208 466 -225L438 -304Q431 -321 413 -321ZM682 -56H694Q698 -38 706 -32Q722 -21 729 -41L746 -128Q748 -145 727 -147V-160H823V-147Q808 -148 804 -129L785 -34Q779 -8 759 4Q741 11 716 5Q698 -1 682 -16ZM401 -56H413Q416 -40 425 -31Q443 -19 451 -41L470 -128Q472 -145 451 -147V-160H548V-147Q532 -148 528 -129L508 -34Q503 -7 481 4Q463 11 438 5Q417 -1 401 -16ZM393 -114Q393 -99 410 -99V-86H332V-99Q350 -100 349 -114L322 -471Q320 -484 305 -487V-500H382V-487Q364 -485 365 -471ZM102 -471Q104 -486 85 -487V-500H163V-487Q148 -485 145 -471L119 -43Q118 -28 136 -27V-15H58V-27Q75 -28 75 -43ZM773 -498Q817 -499 818 -543V-595H526V-498ZM526 -725V-628H818V-682Q818 -725 773 -725ZM852 -331Q853 -372 811 -372H714Q697 -370 694 -354H681V-422H694Q697 -404 714 -404H827Q886 -404 908 -384Q932 -363 932 -315V2Q932 48 897 70Q864 89 811 83Q768 74 744 57V23H757Q772 53 812 52Q851 47 852 13ZM577 -332Q577 -373 539 -373H438Q422 -372 417 -355H404V-422H417Q421 -404 438 -405H556Q609 -405 633 -385Q657 -364 657 -316V1Q657 48 622 69Q589 88 537 82Q491 74 468 56V22H480Q496 54 538 51Q576 46 577 12ZM273 31Q271 58 300 62V75H168V62Q195 59 194 31V-575H107Q91 -573 87 -556H74V-627H87Q91 -608 107 -608H194V-737Q195 -768 168 -769V-781H300V-769Q272 -765 273 -737V-608H360Q378 -609 381 -627H394V-556H381Q377 -574 360 -575H273ZM808 -757Q856 -757 878 -738Q904 -718 904 -675V-555Q904 -512 881 -489Q858 -466 805 -466H414V-478Q439 -483 441 -508V-718Q440 -739 414 -745V-757Z"/>
</svg>