<svg xmlns="http://www.w3.org/2000/svg" viewBox="0 -800 1024 1024">
	<path fill="#000000" d="M62 -278H75Q79 -259 95 -264L165 -288V-553H97Q81 -552 76 -534H63V-605H76Q81 -586 97 -586H165V-737Q166 -767 140 -769V-781H264V-769Q238 -766 239 -737V-586H303Q321 -587 324 -605H336V-534H324Q320 -552 303 -553H239V-314L290 -332Q309 -340 311 -356H323V-284H311Q307 -300 290 -296L239 -278V-17Q239 41 209 65Q182 88 133 81Q89 74 60 33V-22H71Q85 33 122 42Q166 48 165 -4V-252L95 -227Q78 -220 75 -204H62ZM518 -210H609V-197Q589 -193 590 -175L600 -36Q600 -16 618 -14V-1H527V-14Q548 -16 546 -36L544 -64Q494 -32 424 -17Q375 -10 356 -32Q335 -57 354 -98L474 -360Q433 -348 399 -346Q353 -344 340 -369Q327 -392 339 -429L442 -751Q445 -764 422 -769V-781H536V-769Q519 -764 513 -751L403 -407Q396 -379 417 -379Q451 -380 487 -389L522 -465Q529 -484 508 -489V-501H618V-489Q601 -484 594 -465L415 -73Q410 -63 415 -57Q421 -52 433 -55Q491 -62 542 -90L537 -175Q536 -195 518 -197ZM685 -739Q687 -766 661 -769V-781H787V-769Q760 -765 761 -739L757 -607H845Q897 -607 916 -585Q932 -565 932 -522V12Q932 43 912 65Q894 83 861 83Q816 82 789 52V1H802Q811 42 836 47Q862 48 863 14V-534Q865 -576 825 -574H756L741 -3Q740 40 714 64Q692 84 643 83Q591 82 558 52V14H571Q581 50 621 52Q664 51 666 8L681 -574H605Q589 -574 584 -555H571V-626H584Q587 -608 605 -607H682Z"/>
</svg>