<svg xmlns="http://www.w3.org/2000/svg" viewBox="0 -800 1024 1024">
	<path fill="#000000" d="M515 -575H527Q529 -558 547 -559H580Q598 -560 599 -575H612V-510H599Q597 -527 580 -526H547Q531 -525 527 -510H515ZM515 -478H527Q529 -461 547 -462H580Q598 -463 599 -478H612V-413H599Q596 -429 580 -429H547Q531 -428 527 -413H515ZM728 -478H741Q743 -461 760 -462H794Q811 -462 813 -478H826V-413H813Q810 -429 794 -429H760Q745 -428 741 -413H728ZM728 -575H741Q743 -558 760 -559H794Q811 -559 813 -575H826V-510H813Q809 -527 794 -526H760Q745 -525 741 -510H728ZM867 -336Q885 -338 888 -355H901V-284H888Q884 -302 867 -303H473Q458 -301 453 -284H440V-355H453Q457 -335 473 -336ZM95 -471Q96 -485 78 -487V-500H157V-487Q140 -483 140 -471L119 -43Q118 -30 136 -27V-15H57V-27Q75 -30 75 -43ZM379 -43Q378 -30 396 -27V-15H317V-27Q335 -30 334 -43L314 -471Q312 -483 296 -487V-500H375V-487Q357 -485 358 -471ZM456 -95V-108Q474 -109 482 -125L527 -207H425Q409 -206 404 -188H392V-259H404Q409 -240 425 -240H915Q933 -242 936 -259H949V-188H936Q931 -207 915 -207H615L571 -128H824Q867 -128 883 -113Q901 -97 901 -64V-9Q901 39 858 63Q817 86 728 84Q653 80 600 71Q530 55 495 29V-24H507Q514 16 561 33Q592 45 646 50Q701 55 749 51Q812 45 812 -3V-61Q812 -95 772 -95ZM266 31Q264 58 292 62V75H161V62Q188 59 187 31V-575H107Q90 -574 87 -556H74V-627H87Q91 -608 107 -608H187V-737Q188 -768 161 -769V-781H292V-769Q265 -765 266 -737V-608H346Q364 -609 367 -627H379V-556H367Q363 -574 346 -575H266ZM699 -403Q698 -382 720 -378V-365H620V-378Q644 -381 642 -403V-620H485V-425Q484 -404 507 -401V-388H390V-401Q413 -403 412 -425V-615Q412 -635 388 -639V-652H627V-725H437Q421 -724 416 -706H403V-776H416Q420 -757 437 -757H904Q922 -759 925 -776H937V-706H925Q921 -724 904 -725H713V-652H829Q877 -652 903 -631Q928 -611 928 -571V-426Q927 -404 949 -401V-388H833V-401Q856 -403 855 -426V-580Q855 -620 806 -620H699Z"/>
</svg>