<svg xmlns="http://www.w3.org/2000/svg" viewBox="0 -800 1024 1024">
	<path fill="#000000" d="M59 -520H204V-507Q173 -501 186 -482L271 -356Q285 -338 306 -332V-320H161V-332Q192 -339 180 -356L94 -482Q77 -506 59 -507ZM59 -781H204V-769Q173 -763 186 -744L271 -611Q283 -593 307 -586V-574H161V-586Q191 -593 179 -612L94 -744Q78 -766 59 -769ZM191 -227Q195 -244 169 -251V-264H307V-251Q284 -247 279 -227L223 15Q215 48 189 67Q166 87 124 83Q84 79 58 49V-5H71Q76 30 99 41Q125 48 135 17ZM788 -231Q827 -231 827 -272V-542Q827 -581 788 -581H674V-231ZM432 -581V-231H585V-581ZM585 -737Q585 -767 557 -769V-781H702V-769Q674 -765 674 -737V-614H815Q871 -614 890 -590Q908 -571 908 -531V-286Q908 -241 887 -221Q867 -198 812 -198H674V-5L819 -20L786 -110Q779 -128 764 -130V-143H889V-130Q864 -124 869 -110L924 40Q931 63 949 62V75H820V62Q846 59 841 40L833 19L333 69Q318 71 312 88H300V12H312Q315 30 333 28L585 3V-198H323V-211Q350 -214 351 -238V-575Q350 -595 324 -601V-614H585Z"/>
</svg>