<svg xmlns="http://www.w3.org/2000/svg" viewBox="0 -800 1024 1024">
	<path fill="#000000" d="M481 42H756Q794 40 796 2V-244Q795 -282 756 -283H481ZM196 -227Q201 -244 175 -251V-264H312V-251Q288 -244 284 -227L223 15Q213 50 189 67Q166 87 124 83Q84 79 58 49V-5H71Q76 31 99 40Q126 48 135 17ZM59 -520H204V-507Q173 -501 186 -482L275 -356Q286 -339 310 -332V-320H164V-332Q195 -338 183 -356L94 -482Q78 -504 59 -507ZM790 -316Q845 -316 866 -292Q884 -274 884 -233V-12Q884 30 865 50Q842 75 788 75H369V62Q392 58 393 35V-278Q393 -298 369 -303V-316ZM59 -781H204V-769Q173 -763 186 -744L276 -610Q288 -592 311 -586V-574H165V-586Q197 -592 184 -611L94 -744Q77 -767 59 -769ZM749 -757Q797 -757 818 -740Q842 -720 842 -678V-461Q843 -417 884 -426Q932 -439 936 -484H949V-428Q931 -405 894 -393Q851 -379 813 -391Q755 -408 754 -469V-687Q752 -723 715 -725H525V-470Q525 -423 482 -400Q438 -381 389 -392Q346 -400 321 -429V-485H334Q346 -434 394 -425Q434 -425 437 -460V-721Q437 -740 412 -745V-757Z"/>
</svg>