<svg xmlns="http://www.w3.org/2000/svg" viewBox="0 -800 1024 1024">
	<path fill="#000000" d="M381 -87Q399 -90 399 -102L410 -314Q412 -327 393 -330V-343H468V-330Q451 -325 451 -314L440 -102Q439 -91 457 -87V-75H381ZM595 -343H669V-330Q652 -327 652 -314L663 -74Q663 -62 681 -59V-46H606V-59Q623 -63 622 -74L611 -314Q612 -325 595 -330ZM368 -43Q369 -28 385 -27V-15H306V-27Q325 -30 323 -43L301 -471Q299 -483 284 -487V-500H363V-487Q345 -485 345 -471ZM119 -43Q118 -30 136 -27V-15H57V-27Q75 -30 75 -43L97 -471Q98 -485 80 -487V-500H159V-487Q144 -483 142 -471ZM258 31Q256 58 284 62V75H158V62Q186 58 185 31V-568H108Q92 -567 87 -549H74V-620H87Q92 -601 108 -601H185V-741Q185 -768 158 -769V-781H284V-769Q257 -765 258 -741V-601H337Q355 -602 358 -620H371V-549H358Q354 -567 337 -568H258ZM484 -737Q484 -768 456 -769V-781H586V-769Q558 -765 558 -737V-646H626Q644 -648 646 -665H659V-594H646Q643 -612 626 -613H558V-452H647Q665 -454 667 -471H680V-401H667Q664 -419 647 -420H567V8Q567 52 533 73Q504 89 469 80Q439 72 419 48V1H432Q441 38 468 47Q494 52 495 19V-420H410Q394 -418 390 -401H377V-471H390Q394 -452 410 -452H484ZM909 32Q912 42 919 42Q927 42 931 33Q935 25 937 11H949V59Q939 70 922 79Q897 88 878 77Q857 67 847 41L803 -92L752 37Q740 67 714 77Q691 87 667 81Q644 74 633 60V11H645Q650 35 660 44Q678 56 689 36L774 -182L709 -381Q701 -406 701 -450V-635Q701 -653 682 -656V-668H785V-656Q765 -650 765 -634V-447Q765 -414 772 -393L810 -274L857 -394Q864 -412 864 -451V-697Q863 -723 837 -723H713Q697 -722 693 -704H680V-775H693Q697 -756 713 -756H858Q892 -756 910 -742Q928 -726 928 -688V-457Q928 -405 917 -379L839 -183Z"/>
</svg>