<svg xmlns="http://www.w3.org/2000/svg" viewBox="0 -800 1024 1024">
	<path fill="#000000" d="M790 -312Q823 -311 822 -341V-387Q823 -419 790 -418H697V-312ZM485 -418V-312H611V-418ZM361 -556H373Q377 -531 398 -522Q424 -515 443 -531L483 -574Q493 -586 469 -592V-605H603V-592Q586 -588 575 -575L522 -516Q500 -492 464 -485Q431 -480 400 -489Q379 -495 361 -511ZM704 -605H838V-592Q814 -586 824 -574L865 -531Q883 -515 909 -522Q931 -532 935 -556H947V-511Q929 -495 907 -489Q875 -480 843 -485Q807 -492 785 -516L732 -575Q721 -589 704 -592ZM804 -69Q840 -68 839 -100V-161Q841 -195 804 -192H697V-69ZM469 -192V-69H611V-192ZM855 -710Q890 -710 906 -700Q925 -688 925 -666V-652Q925 -633 949 -633V-620H816V-633Q839 -634 839 -651V-663Q840 -679 815 -678H467V-652Q466 -634 491 -633V-620H358V-633Q382 -633 382 -652V-673Q382 -693 358 -698V-710H610V-743Q611 -767 582 -769V-781H724V-769Q696 -767 697 -743V-710ZM60 -272H73Q79 -252 93 -257L177 -292V-553H102Q86 -552 81 -534H68V-605H81Q86 -586 102 -586H177V-737Q178 -767 149 -769V-781H289V-769Q261 -765 262 -737V-586H311Q329 -588 332 -605H344V-534H332Q328 -552 311 -553H262V-329L314 -351Q333 -361 334 -375H347V-300H334Q329 -319 314 -314L262 -291V-15Q262 35 231 63Q193 89 127 81Q87 75 58 33V-21H71Q81 30 121 38Q174 47 177 -4V-255L93 -219Q76 -211 73 -196H60ZM697 32Q695 58 725 62V75H583V62Q612 58 611 32V-37H369V-49Q390 -53 390 -73V-189Q390 -207 368 -211V-224H611V-280H386V-292Q408 -296 409 -316V-415Q408 -433 386 -437V-450H611V-476Q612 -505 588 -506V-519H720V-506Q697 -503 697 -476V-450H816Q858 -450 876 -438Q899 -423 899 -390V-338Q899 -307 875 -292Q855 -280 816 -280H697V-224H834Q874 -224 895 -211Q917 -198 917 -164V-97Q917 -62 893 -48Q873 -37 834 -37H697Z"/>
</svg>