<svg xmlns="http://www.w3.org/2000/svg" viewBox="0 -800 1024 1024">
	<path fill="#000000" d="M340 -357Q357 -364 360 -381H372V-305H360Q355 -324 340 -319L275 -294V-15Q275 38 244 63Q207 89 140 82Q86 71 58 34V-19H71Q85 37 133 43Q186 44 187 -5V-261L93 -226Q75 -216 73 -202H60V-279H73Q80 -258 93 -264L187 -299V-556H106Q90 -555 85 -537H73V-610H85Q90 -591 106 -591H187V-737Q188 -767 159 -769V-781H304V-769Q274 -765 275 -737V-591H347Q365 -592 368 -610H380V-537H368Q364 -555 347 -556H275V-332ZM472 -661Q456 -660 451 -642H439V-715H451Q454 -696 472 -696H710Q737 -695 754 -713L787 -751Q797 -764 772 -769V-781H920V-769Q903 -767 891 -751L844 -699Q824 -677 806 -668Q788 -661 748 -661H718V-392H915Q933 -394 936 -411H949V-338H936Q932 -356 915 -357H718V31Q716 56 745 62V75H599V62Q626 58 626 31V-357H442Q426 -356 421 -338H409V-411H421Q425 -392 442 -392H626V-661Z"/>
</svg>