<svg xmlns="http://www.w3.org/2000/svg" viewBox="0 -800 1024 1024">
	<path fill="#000000" d="M923 -156Q926 -132 950 -129V-117H823V-129Q851 -132 845 -156L739 -598Q735 -622 711 -624V-637H838V-624Q811 -619 816 -598ZM633 31Q632 57 661 62V75H513V62Q542 58 541 31V-736Q541 -768 513 -769V-781H661V-769Q633 -764 633 -736ZM208 -737Q209 -767 180 -769V-781H329V-769Q300 -766 301 -737V-590H401Q418 -592 421 -609H434V-538H421Q417 -556 401 -557H301V-325L403 -356Q421 -362 423 -380H436V-303H423Q419 -321 403 -317L301 -286V-21Q301 35 262 64Q232 85 181 86Q138 84 109 72Q76 59 58 34V-19H71Q84 37 144 45Q204 49 208 -5V-258L93 -224Q76 -215 73 -200H60V-278H73Q79 -258 93 -263L208 -297V-557H106Q90 -556 85 -538H73V-609H85Q90 -590 106 -590H208Z"/>
</svg>