<svg xmlns="http://www.w3.org/2000/svg" viewBox="0 -800 1024 1024">
	<path fill="#000000" d="M209 -494Q212 -515 194 -516H108Q93 -515 88 -497H76V-568H88Q91 -549 108 -549H227Q261 -549 276 -529Q289 -513 282 -474L209 -16Q201 23 166 38Q133 50 99 40Q77 33 59 13V-39H71Q77 -13 97 1Q125 12 133 -15ZM869 -28Q875 5 895 1Q923 -9 932 -41H945V11Q922 32 898 39Q861 50 837 39Q801 25 794 -18L725 -474Q721 -507 733 -525Q748 -549 790 -549H900Q916 -549 919 -568H932V-497H919Q914 -515 900 -516H815Q797 -515 799 -494ZM774 -758Q823 -757 832 -729Q836 -699 805 -679L569 -551Q541 -536 541 -507V-490H646Q664 -492 667 -509H679V-438H667Q662 -457 646 -457H541V-325H645Q663 -327 666 -344H678V-272H666Q661 -291 645 -291H541V-161H675Q693 -163 696 -180H708V-109H696Q691 -128 675 -128H541V-23Q541 39 488 67Q448 87 396 80Q336 73 297 39V-11H310Q324 33 383 41Q449 42 452 -10V-128H330Q314 -127 309 -109H297V-180H309Q314 -161 330 -161H452V-291H360Q344 -290 339 -272H327V-344H339Q344 -325 360 -325H452V-457H359Q344 -455 339 -438H326V-509H339Q343 -489 359 -490H452V-517Q452 -541 463 -560Q472 -576 503 -592L720 -710Q729 -714 728 -719Q727 -724 717 -724H178Q163 -723 158 -705H145V-776H158Q161 -758 178 -758Z"/>
</svg>