<svg xmlns="http://www.w3.org/2000/svg" viewBox="0 -800 1024 1024">
	<path fill="#000000" d="M781 -757Q828 -757 847 -740Q869 -724 869 -682V-517Q870 -485 902 -490Q934 -502 936 -528H948V-480Q933 -464 883 -454Q833 -448 809 -465Q785 -484 784 -528V-689Q783 -724 747 -725H620V-527Q620 -482 588 -462Q560 -446 521 -452Q475 -460 457 -480V-527H469Q473 -500 502 -490Q534 -483 535 -516V-721Q535 -741 510 -745V-757ZM802 -196Q818 -207 817 -238V-341Q817 -365 792 -366H520Q504 -365 499 -347H486V-418H499Q503 -399 520 -399H828Q866 -399 884 -384Q901 -369 901 -335V-238Q902 -187 877 -168L752 -68L871 31Q892 48 910 40Q933 29 936 3H949V48Q937 64 907 74Q878 87 852 82Q821 78 789 50L697 -25L605 48Q578 72 548 79Q511 88 473 79Q442 72 425 56V10H438Q444 44 473 46Q499 49 521 30L644 -69L524 -168Q501 -188 500 -238V-280Q498 -297 478 -300V-313H606V-300Q585 -298 584 -280V-236Q583 -209 598 -197L698 -113ZM331 -496Q335 -532 300 -533H216L204 -475Q197 -436 174 -421Q146 -402 105 -410Q78 -416 59 -438V-493H72Q75 -461 93 -448Q114 -438 122 -470L176 -725H108Q92 -723 88 -706H75V-776H88Q91 -757 108 -757H415Q433 -759 436 -776H449V-706H436Q431 -725 415 -725H257L223 -566H326Q374 -566 395 -544Q416 -522 408 -473L344 -21Q334 50 276 73Q226 92 151 79Q87 63 59 36V-23H72Q80 16 122 35Q171 56 215 43Q255 27 263 -21L281 -150H232Q184 -149 164 -163Q134 -180 124 -222L99 -335Q97 -352 75 -356V-369H192V-356Q169 -352 173 -335L197 -220Q205 -181 245 -182H286Z"/>
</svg>