<svg xmlns="http://www.w3.org/2000/svg" viewBox="0 -800 1024 1024">
	<path fill="#000000" d="M453 -750H536V-737Q519 -735 525 -723L548 -657Q551 -645 571 -643V-630H485V-643Q503 -645 497 -657L474 -723Q471 -735 453 -737ZM824 -643Q843 -645 846 -657L869 -723Q876 -735 859 -737V-750H942V-737Q925 -737 921 -723L898 -657Q893 -644 909 -643V-630H824ZM59 -520H179V-507Q154 -504 163 -482L213 -358Q221 -336 242 -334V-321H119V-334Q148 -339 139 -358L89 -482Q80 -505 59 -507ZM59 -781H180V-769Q154 -765 163 -744L219 -611Q227 -589 250 -586V-574H125V-586Q156 -591 145 -611L89 -744Q80 -767 59 -769ZM700 -108H828V-95Q804 -91 812 -76L870 28Q888 57 919 37Q932 25 938 -1H949V47Q932 68 911 77Q880 88 849 82Q812 72 795 43L725 -80Q719 -92 700 -95ZM383 -519Q376 -478 349 -463Q316 -445 282 -459Q258 -468 239 -487V-540H252Q256 -503 276 -493Q301 -485 306 -516L338 -747Q342 -765 319 -769V-781H437V-769Q420 -765 414 -748ZM148 -228Q151 -247 126 -252V-265H246V-252Q227 -247 224 -229L202 15Q199 46 178 66Q154 86 121 83Q83 78 58 49V-3H71Q75 31 95 42Q121 50 126 20ZM389 31Q387 58 413 62V75H287V62Q314 59 313 31V-357Q315 -388 287 -389V-402H414V-389Q388 -386 389 -357ZM569 -781H681V-769Q659 -766 660 -745V-593H734V-745Q735 -767 713 -769V-781H826V-769Q802 -766 803 -745V-593H905Q922 -595 925 -612H938V-542H925Q920 -561 905 -561H491Q476 -559 472 -542H459V-612H472Q475 -593 491 -593H590V-745Q592 -768 569 -769ZM511 -525H629V-512Q605 -508 613 -495L657 -426H739L782 -495Q791 -509 766 -512V-525H885V-512Q869 -510 862 -495L817 -426H890Q907 -428 909 -445H921V-374H909Q905 -392 890 -393H738V-306H862Q879 -308 881 -325H894V-255H881Q877 -273 862 -274H738V-216Q738 -201 735 -187H907Q924 -189 927 -206H939V-135H927Q922 -154 907 -154H721L600 46Q582 74 547 82Q516 88 485 75Q463 67 445 47V1H458Q462 31 480 40Q509 53 526 26L635 -154H488Q473 -152 468 -135H456V-206H468Q473 -187 488 -187H652Q657 -201 657 -216V-274H534Q519 -272 515 -255H502V-325H515Q518 -306 534 -306H657V-393H507Q492 -391 487 -374H475V-445H487Q492 -426 507 -426H578L535 -495Q527 -510 511 -512Z"/>
</svg>