<svg xmlns="http://www.w3.org/2000/svg" viewBox="0 -800 1024 1024">
	<path fill="#000000" d="M809 -341Q849 -341 849 -382V-427H751V-341ZM809 -545H751V-459H849V-507Q848 -544 809 -545ZM505 -274H604V-261Q583 -258 589 -246L619 -177Q623 -165 645 -162V-149H546V-162Q570 -162 562 -177L531 -246Q526 -259 505 -261ZM780 -162Q802 -164 806 -177L836 -246Q843 -258 821 -261V-274H920V-261Q901 -260 894 -246L864 -177Q858 -162 880 -162V-149H780ZM480 -9H493Q495 6 503 14Q519 28 530 5L561 -81Q569 -96 545 -100V-113H644V-100Q624 -96 619 -81L584 13Q578 33 560 45Q538 60 511 49Q498 44 480 29ZM781 -114H881V-101Q857 -98 864 -83L895 4Q906 27 924 13Q935 2 935 -10H948V29Q934 41 920 47Q896 59 874 49Q850 37 841 12L806 -83Q801 -97 781 -101ZM120 -320Q119 -298 139 -296V-283H60V-296Q81 -295 80 -320V-593Q82 -615 60 -616V-629H139V-616Q120 -613 120 -593ZM333 -320Q332 -298 354 -296V-283H274V-296Q295 -297 293 -320V-593Q294 -615 274 -616V-629H354V-616Q333 -613 333 -593ZM245 31Q244 57 273 62V75H141V62Q170 58 169 31V-737Q170 -769 141 -769V-781H273V-769Q244 -765 245 -737ZM466 -13Q466 33 438 60Q407 87 362 81Q321 75 290 41V-7H303Q316 35 347 43Q384 48 386 -3V-661Q386 -681 361 -686V-699H631V-740Q630 -766 604 -769V-781H743V-769Q716 -764 716 -740V-699H915Q933 -701 936 -718H949V-648H936Q932 -666 915 -667H466ZM675 -600Q676 -628 646 -628V-641H779V-628Q750 -626 751 -600V-578H819Q871 -578 890 -557Q908 -541 908 -503V-459H915Q933 -461 936 -478H949V-408H936Q931 -427 915 -427H908V-391Q908 -349 887 -329Q864 -308 816 -308H751V7Q751 48 725 69Q698 90 657 81Q624 73 604 50V7H617Q622 39 645 43Q673 42 675 12V-308H565Q550 -306 545 -289H532V-360H545Q548 -341 565 -341H675V-427H520Q504 -426 499 -408H487V-478H499Q504 -459 520 -459H675V-545H565Q550 -543 545 -526H532V-597H545Q548 -578 565 -578H675Z"/>
</svg>