<svg xmlns="http://www.w3.org/2000/svg" viewBox="0 -800 1024 1024">
	<path fill="#000000" d="M263 -49Q238 -7 194 5Q154 15 110 2Q77 -6 58 -26V-73H71Q73 -42 105 -32Q146 -23 166 -51L399 -435Q407 -452 376 -457V-470H535V-457Q511 -455 498 -437ZM683 -740Q684 -763 656 -767V-780H802V-767Q774 -765 775 -740V-610H915Q933 -612 936 -629H949V-552H936Q932 -570 915 -571H775V-43Q775 51 695 74Q636 89 541 71Q462 58 416 24V-32H429Q439 16 526 37Q590 53 635 40Q683 28 683 -30V-571H97Q82 -569 77 -552H64V-629H77Q81 -609 97 -610H683Z"/>
</svg>