<svg xmlns="http://www.w3.org/2000/svg" viewBox="0 -800 1024 1024">
	<path fill="#000000" d="M501 -130H627V-117Q604 -111 611 -100L666 -35Q676 -20 693 -19V-6H568V-19Q593 -22 584 -35L530 -100Q518 -116 501 -117ZM857 -650Q875 -651 878 -669H892V-598H878Q874 -616 857 -617H505Q489 -616 484 -598H471V-669H484Q489 -650 505 -650ZM58 -520H197V-508Q170 -504 180 -483L240 -359Q252 -337 275 -333V-320H135V-333Q164 -335 154 -359L93 -483Q81 -506 58 -508ZM58 -781H197V-769Q170 -765 180 -744L239 -612Q249 -589 275 -585V-573H134V-585Q162 -588 153 -612L93 -744Q84 -766 58 -769ZM679 -447Q668 -461 650 -464V-477H773V-464Q752 -461 756 -447L785 -403H827Q844 -404 850 -417L864 -450Q869 -465 849 -467V-480H943V-467Q928 -464 923 -450L905 -406Q896 -387 882 -378Q864 -369 838 -370H807L829 -338Q844 -314 878 -312Q905 -312 920 -326Q935 -339 936 -362H949V-318Q934 -296 901 -287Q865 -276 829 -283Q779 -295 757 -332ZM168 -227Q171 -245 146 -251V-264H279V-251Q253 -244 251 -227L216 11Q211 50 181 68Q150 87 110 81Q81 77 58 49V0H71Q74 34 103 41Q128 48 133 17ZM776 -228Q777 -251 751 -253V-266H883V-253Q860 -249 859 -228V-203H915Q933 -205 936 -222H949V-152H936Q932 -170 915 -171H859V-7Q859 44 816 67Q782 87 724 82Q674 77 643 54V12H656Q662 33 688 46Q716 57 744 49Q776 38 776 6V-171H488Q472 -170 467 -152H454V-222H467Q472 -202 488 -203H776ZM333 -716Q332 -740 305 -745V-757H898Q916 -759 919 -776H931V-706H919Q915 -724 898 -725H419V-542H898Q916 -544 919 -561H932V-490H919Q915 -508 898 -509H575V-338Q579 -304 615 -307Q658 -318 664 -347H677V-301Q654 -281 621 -274Q564 -266 527 -287Q501 -304 501 -342V-509H419V-10Q419 39 386 67Q352 90 310 78Q280 70 260 44V-7H273Q278 21 293 31Q328 52 333 7Z"/>
</svg>