<svg xmlns="http://www.w3.org/2000/svg" viewBox="0 -800 1024 1024">
	<path fill="#000000" d="M660 -201H799V-188Q774 -183 779 -169L849 -28Q866 3 905 -10Q934 -21 936 -51H949V-2Q934 17 896 26Q852 38 813 25Q777 11 759 -25L687 -170Q678 -186 660 -188ZM58 -51H71Q73 -21 102 -10Q141 3 158 -28L228 -169Q233 -183 208 -188V-201H347V-188Q329 -186 320 -170L248 -25Q227 17 188 27Q151 37 111 26Q75 17 58 -2ZM457 -314Q457 -342 429 -343V-356H578V-343Q550 -340 550 -314V-277H902Q920 -279 923 -295H936V-225H923Q918 -244 902 -244H550V-17Q550 39 506 65Q461 91 399 79Q348 72 318 43V-9H331Q336 25 373 39Q405 51 431 38Q457 25 457 -12V-244H105Q89 -242 85 -225H72V-295H85Q88 -277 105 -277H457ZM122 -616Q86 -623 58 -650V-702H71Q77 -671 109 -658Q141 -647 167 -664L280 -747Q289 -753 284 -760Q279 -766 264 -769V-781H438V-769Q420 -766 399 -750L335 -703H793Q853 -702 864 -658Q872 -610 827 -587L582 -485L767 -408Q797 -396 836 -394Q875 -394 899 -410Q927 -424 936 -460H949V-397Q923 -375 888 -366Q845 -351 787 -353Q719 -356 670 -378L498 -450L338 -383Q272 -355 222 -350Q175 -346 127 -358Q82 -371 58 -397V-460H71Q76 -428 99 -411Q123 -393 163 -395Q197 -396 246 -416L413 -485L234 -561Q204 -574 177 -576V-589H417V-576Q392 -567 406 -558L497 -520L763 -631Q780 -639 777 -655Q772 -670 752 -670H291L272 -656Q237 -630 212 -621Q168 -606 122 -616Z"/>
</svg>