<svg xmlns="http://www.w3.org/2000/svg" viewBox="0 -800 1024 1024">
	<path fill="#000000" d="M577 -210H691V-197Q672 -194 673 -180L697 -15Q704 20 724 8Q744 -1 750 -39H763V9Q750 31 729 40Q696 58 662 44Q629 29 623 -11L597 -180Q595 -195 577 -197ZM760 -210H879V-197Q858 -194 860 -180L884 -15Q890 19 910 8Q930 -1 936 -39H949V9Q938 30 914 40Q881 58 847 44Q814 29 807 -11L782 -180Q781 -195 760 -197ZM58 -39H71Q78 1 107 13Q137 22 150 -10L212 -180Q216 -194 192 -197V-210H322V-197Q303 -195 298 -180L234 -6Q218 35 173 47Q134 56 98 38Q77 29 58 8ZM416 -315Q417 -342 388 -345V-358H534V-345Q505 -341 506 -315V-20Q505 48 448 72Q405 91 352 75Q316 63 285 30V-21H298Q312 37 364 44Q413 44 416 -5ZM371 -634V-460H636V-634ZM282 -738Q282 -766 254 -769V-781H399V-769Q371 -765 371 -738V-666H636V-738Q636 -766 608 -769V-781H754V-769Q726 -765 726 -738V-666H878Q896 -668 899 -685H911V-615H899Q894 -634 878 -634H726V-460H905Q923 -462 925 -479H938V-408H925Q921 -426 905 -427H738L842 -301Q867 -273 896 -278Q929 -287 936 -330H949V-273Q930 -255 906 -248Q868 -236 828 -244Q779 -253 752 -283L632 -427H375L255 -283Q228 -253 179 -244Q139 -236 101 -248Q78 -255 58 -273V-330H71Q78 -287 111 -278Q140 -273 165 -301L269 -427H102Q87 -425 82 -408H69V-479H82Q86 -459 102 -460H282V-634H129Q114 -632 109 -615H96V-685H109Q113 -665 129 -666H282Z"/>
</svg>