<svg xmlns="http://www.w3.org/2000/svg" viewBox="0 -800 1024 1024">
	<path fill="#000000" d="M544 -468V-277H703L675 -468ZM544 -725V-500H794Q835 -500 835 -542V-685Q835 -725 794 -725ZM205 32H363Q381 30 384 14H396V83H384Q381 65 363 65H95V52Q119 47 120 29V-564H92Q76 -563 71 -545H58V-615H71Q75 -597 92 -597H188V-742Q187 -765 160 -769V-781H304V-769Q277 -765 276 -742V-597H372Q391 -599 392 -615H405V-545H392Q388 -563 372 -564H205ZM904 -277Q921 -279 924 -296H937V-225H924Q919 -243 904 -244H793L828 0Q833 35 861 41Q887 47 914 23Q935 2 936 -26H949V26Q921 60 884 72Q832 94 789 69Q751 48 743 -4L708 -244H544V1Q545 43 588 45Q621 43 647 24Q679 0 683 -36H695V22Q670 52 626 69Q562 93 512 73Q460 52 459 -11V-714Q460 -740 433 -745V-757H827Q878 -758 898 -740Q920 -722 920 -678V-553Q920 -512 901 -493Q876 -468 824 -468H760L788 -277Z"/>
</svg>