<svg xmlns="http://www.w3.org/2000/svg" viewBox="0 -800 1024 1024">
	<path fill="#000000" d="M156 -725V-381H269V-686Q268 -724 231 -725ZM156 1H231Q268 0 269 -40V-349H156ZM675 -747Q667 -767 647 -768V-781H771V-769Q746 -764 753 -746L777 -678H795Q814 -677 822 -697L840 -741Q846 -756 823 -759V-772H918V-758Q901 -757 897 -741L878 -691Q870 -667 855 -657Q841 -645 807 -645H789L828 -534Q848 -533 855 -552L874 -596Q879 -610 857 -614V-627H949V-613Q932 -611 927 -596L909 -546Q900 -523 886 -513Q871 -500 840 -501L870 -417Q884 -380 911 -384Q930 -391 936 -423H949V-371Q934 -347 901 -342Q862 -338 832 -358Q809 -373 797 -405H711V-243H908Q925 -245 928 -262H941V-191H928Q923 -209 908 -210H705L699 -196L669 -150H784V-137Q761 -133 768 -120L863 19Q888 52 912 36Q930 24 936 -7H949V45Q931 69 904 78Q866 89 829 75Q798 63 776 29L675 -122Q669 -129 659 -134L555 27Q532 62 510 72Q476 88 439 81Q403 74 380 46V-7H393Q401 25 421 37Q447 51 468 21L612 -205L615 -210H430Q414 -209 409 -191H396V-262H409Q414 -243 430 -243H625Q626 -248 626 -254V-405H534Q523 -373 498 -355Q472 -337 434 -341Q401 -343 376 -371V-423H389Q397 -386 421 -382Q451 -379 464 -416L498 -524Q458 -524 440 -537Q419 -552 412 -589L400 -646Q398 -661 380 -664V-676H471V-664Q450 -660 454 -646L467 -588Q474 -555 503 -557H509L555 -700Q563 -728 533 -729H422Q407 -727 402 -710H389V-780H402Q407 -760 422 -761H560Q603 -761 622 -739Q638 -720 625 -678L545 -438H785ZM82 -719Q82 -741 58 -745V-757H248Q303 -757 324 -734Q342 -715 342 -675V-54Q342 -10 322 9Q303 35 246 34H58V21Q82 18 82 -6Z"/>
</svg>