<svg xmlns="http://www.w3.org/2000/svg" viewBox="0 -800 1024 1024">
	<path fill="#000000" d="M473 -410V-289H589V-374Q588 -409 552 -410ZM473 -256V-133H589V-256ZM344 -320Q344 -299 365 -296V-283H283V-296Q303 -298 303 -320V-593Q304 -614 283 -616V-629H365V-616Q344 -613 344 -593ZM122 -320Q121 -298 141 -296V-283H60V-296Q81 -295 80 -320V-593Q80 -615 60 -616V-629H141V-616Q122 -613 122 -593ZM775 -99Q774 -73 798 -69V-56H702V-69Q725 -72 724 -99V-375Q725 -403 702 -405V-418H798V-405Q774 -403 775 -375ZM572 -725L518 -601H801L761 -695Q747 -725 716 -725ZM840 -415Q840 -443 816 -446V-458H937V-446Q914 -442 914 -415V-14Q914 37 886 63Q859 84 811 83Q753 79 727 47V-3H739Q748 40 790 47Q839 53 840 -6ZM250 30Q249 56 278 61V75H146V61Q174 58 174 30V-737Q174 -768 146 -769V-781H278V-769Q249 -765 250 -737ZM751 -757Q788 -757 807 -745Q829 -733 842 -701L918 -525Q927 -504 948 -501V-489H811V-501Q839 -507 833 -525L814 -569H505L486 -525Q480 -507 509 -501V-489H371V-501Q392 -503 402 -525L485 -719Q493 -739 463 -745V-757ZM473 34Q471 60 496 62V75H380V62Q404 60 403 34V-405Q402 -425 379 -430V-442H565Q614 -442 634 -423Q659 -404 659 -360V10Q659 56 633 74Q607 91 569 78Q542 71 520 46V-3H532Q537 29 559 40Q588 49 589 19V-100H473Z"/>
</svg>