<svg xmlns="http://www.w3.org/2000/svg" viewBox="0 -800 1024 1024">
	<path fill="#000000" d="M122 -320Q121 -298 141 -296V-283H60V-296Q81 -295 80 -320V-593Q80 -615 60 -616V-629H141V-616Q122 -613 122 -593ZM804 -517Q840 -517 840 -553V-693Q840 -726 804 -726H762V-517ZM360 -320Q360 -299 381 -296V-283H299V-296Q318 -297 318 -320V-593Q319 -614 299 -616V-629H381V-616Q359 -614 360 -593ZM502 -726V-517H580V-726ZM631 -726V-517H710V-726ZM261 30Q260 56 289 61V75H151V61Q179 58 179 30V-737Q180 -769 151 -769V-781H289V-769Q260 -765 261 -737ZM812 -232Q861 -233 881 -217Q904 -201 904 -159V-1Q904 48 865 72Q831 91 769 84Q709 77 674 41V-10H687Q702 38 757 50Q817 59 818 9V-169Q818 -199 784 -199H588V1Q588 54 539 76Q499 91 450 81Q403 72 375 41V-10H388Q397 32 443 47Q497 57 502 15V-334H429Q413 -333 408 -315H395V-386H408Q413 -367 429 -367H624V-412Q624 -439 597 -441V-454H738V-441Q711 -436 711 -412V-367H915Q933 -369 936 -386H949V-315H936Q932 -333 915 -334H588V-232ZM831 -757Q875 -757 895 -742Q918 -725 918 -686V-560Q918 -521 897 -504Q875 -486 831 -486H397V-499Q423 -504 424 -525V-721Q424 -740 397 -745V-757Z"/>
</svg>