<svg xmlns="http://www.w3.org/2000/svg" viewBox="0 -800 1024 1024">
	<path fill="#000000" d="M122 -333Q121 -311 142 -309V-296H60V-309Q81 -308 80 -333V-579Q82 -601 60 -602V-615H142V-602Q121 -598 122 -579ZM365 -333Q363 -311 385 -309V-296H303V-309Q324 -310 322 -333V-579Q324 -601 303 -602V-615H385V-602Q364 -599 365 -579ZM602 -607H726V-594Q702 -590 703 -574V-443Q703 -424 725 -421V-408H602V-421Q626 -425 626 -443V-574Q626 -592 602 -594ZM496 -489Q491 -470 519 -466V-453H383V-466Q407 -468 415 -489L501 -719Q507 -741 479 -745V-757H754Q793 -757 813 -743Q832 -731 843 -700L921 -489Q927 -469 949 -466V-453H818V-466Q846 -470 841 -489L764 -694Q751 -724 719 -725H584ZM475 -198Q465 -217 442 -219V-232H582V-219Q555 -216 565 -198L629 -86H697Q727 -87 741 -112L817 -288Q828 -312 822 -322Q817 -332 793 -332H463Q446 -330 442 -311H428V-384H442Q445 -365 463 -365H833Q880 -365 898 -336Q913 -309 895 -267L833 -123Q817 -84 786 -68Q759 -52 703 -53H648L687 15Q710 50 759 48Q823 37 833 -19H845V35Q828 54 803 63Q780 76 733 81Q695 86 660 71Q620 53 600 18ZM267 30Q266 56 295 61V75H151V61Q179 58 179 30V-737Q180 -769 151 -769V-781H295V-769Q266 -765 267 -737Z"/>
</svg>