<svg xmlns="http://www.w3.org/2000/svg" viewBox="0 -800 1024 1024">
	<path fill="#000000" d="M587 -652H704V-639Q683 -637 683 -619V-558Q683 -538 704 -536V-523H587V-536Q608 -539 608 -558V-619Q607 -638 587 -639ZM628 -230H733V-217Q713 -214 716 -194L742 -38Q744 -20 767 -16V-3H664V-16Q684 -18 680 -38L652 -195Q648 -215 628 -217ZM775 -195H889V-183Q865 -177 870 -161L902 17Q906 36 923 30Q934 21 936 -5H949V41Q940 58 919 63Q894 69 864 60Q836 45 830 16L799 -163Q796 -177 775 -183ZM291 -5H303Q307 19 322 30Q345 39 351 17L383 -161Q386 -177 364 -183V-195H477V-183Q457 -177 454 -163L422 16Q418 42 392 57Q367 69 336 65Q306 60 291 41ZM592 -10Q590 45 652 49Q700 55 739 44Q788 31 792 -4H805V41Q792 56 759 68Q715 82 657 84Q580 85 552 67Q510 44 511 -19V-173Q512 -194 488 -196V-209H614V-196Q591 -194 592 -173ZM910 -462Q918 -433 886 -406L766 -310Q721 -274 658 -263Q586 -256 531 -267Q478 -278 450 -297V-353H469Q479 -317 517 -305Q565 -292 603 -298Q658 -307 698 -337L817 -434Q830 -445 827 -453Q824 -461 807 -461H414Q398 -460 393 -442H381V-513H393Q396 -494 414 -494H853Q900 -493 910 -462ZM742 -757Q777 -757 796 -747Q814 -737 832 -710L919 -577Q930 -557 948 -554V-541H810V-554Q840 -560 831 -577L751 -698Q734 -725 708 -725H564L470 -577Q460 -558 487 -554V-541H349V-554Q370 -557 382 -577L472 -719Q482 -738 453 -745V-757ZM63 -277H75Q81 -256 96 -262L175 -296V-554H98Q82 -552 78 -535H65V-606H78Q82 -587 98 -587H175V-737Q176 -767 147 -769V-781H287V-769Q258 -765 259 -737V-587H299Q317 -588 320 -606H332V-535H320Q316 -553 299 -554H259V-332L329 -362Q347 -370 349 -386H362V-312H349Q345 -329 329 -324L259 -294V-15Q259 42 224 66Q186 93 131 79Q81 68 58 33V-21H71Q82 36 125 41Q176 45 175 -4V-258L96 -224Q79 -215 76 -200H63Z"/>
</svg>