<svg xmlns="http://www.w3.org/2000/svg" viewBox="0 -800 1024 1024">
	<path fill="#000000" d="M662 -588H763V-575Q744 -572 746 -558L762 -467Q765 -450 785 -450V-437H680V-450Q703 -452 700 -467L683 -559Q681 -573 662 -576ZM517 42H548Q579 42 579 13V-277Q578 -304 548 -305H517ZM646 -682H659Q664 -663 679 -663H754V-741Q755 -766 729 -769V-781H860V-769Q834 -765 835 -741V-663H909Q927 -665 930 -682H942V-611H930Q926 -629 909 -630H679Q663 -628 659 -611H646ZM413 -725V-453H508Q538 -453 538 -482V-699Q540 -727 508 -725ZM653 -219H666Q671 -200 687 -200H755V-359H673Q657 -358 652 -340H640V-411H652Q657 -392 673 -392H807L846 -558Q849 -573 829 -575V-588H931V-576Q912 -573 910 -558L871 -392H915Q933 -394 936 -411H949V-340H936Q932 -358 915 -359H833V-200H902Q920 -201 923 -219H936V-148H923Q919 -166 902 -167H833V33Q831 58 859 62V75H729V62Q756 58 755 33V-167H687Q671 -166 666 -148H653ZM464 -304Q464 -322 442 -325V-338H555Q597 -339 612 -324Q631 -309 631 -276V6Q631 39 613 57Q595 75 555 75H442V62Q463 60 464 40ZM60 -298H73Q77 -279 93 -285L160 -313V-534H100Q84 -532 80 -515H67V-586H80Q84 -567 100 -567H160V-736Q161 -766 132 -768V-781H263V-768Q235 -764 236 -736V-567H276Q294 -568 297 -586H309V-515H297Q293 -533 276 -534H236V-346L282 -366Q294 -371 296 -390H310V-314H297Q294 -333 282 -327L236 -307V-12Q235 43 209 67Q184 89 140 82Q83 70 58 33V-21H71Q78 11 100 29Q123 48 143 39Q160 30 160 -1V-274L93 -246Q76 -236 73 -221H60ZM413 10Q413 46 392 67Q366 91 328 78Q301 70 281 44V-4H293Q299 22 310 33Q322 45 332 40Q342 34 342 15V-717Q341 -740 320 -745V-757H519Q567 -758 586 -744Q608 -729 608 -694V-488Q608 -452 589 -437Q571 -421 525 -421H413Z"/>
</svg>