<svg xmlns="http://www.w3.org/2000/svg" viewBox="0 -800 1024 1024">
	<path fill="#000000" d="M348 -100Q349 -87 371 -82V-69H260V-82Q281 -84 280 -101L252 -346Q249 -363 229 -364V-377H338V-364Q320 -361 321 -346ZM206 -100Q208 -87 228 -82V-69H117V-82Q138 -84 137 -102L95 -346Q93 -363 73 -364V-377H181V-364Q163 -360 165 -346ZM250 -725L193 -542H424L376 -694Q366 -725 330 -725ZM526 -62Q545 -66 547 -81H559V-11H547Q541 -32 526 -30L91 64Q73 68 71 83H58V13H71Q75 33 91 31L376 -30L436 -346Q437 -361 418 -364V-377H528V-364Q509 -363 505 -346L449 -45ZM167 -458Q160 -438 186 -434V-421H61V-434Q83 -436 88 -457L170 -719Q175 -740 150 -745V-757H365Q400 -757 422 -744Q445 -729 455 -698L530 -457Q536 -436 557 -434V-421H430V-434Q456 -439 451 -457L434 -509H183ZM682 -526Q676 -492 644 -472Q614 -455 585 -466Q563 -472 548 -491V-537H561Q566 -509 579 -500Q593 -493 598 -521L642 -748Q646 -765 620 -769V-781H755V-769Q729 -763 726 -748L702 -627H909Q927 -629 930 -646H942V-575H930Q926 -593 909 -594H888V-325Q888 -272 867 -240L783 -109L864 23Q882 51 908 40Q930 29 936 -7H949V48Q923 84 874 83Q815 81 785 35L739 -41L687 40Q658 83 599 83Q553 81 528 48V-4H540Q546 22 568 37Q591 50 606 30L697 -111L619 -240Q600 -268 601 -319V-397Q600 -414 580 -417V-430H703V-417Q682 -415 682 -397V-312Q681 -276 690 -263L741 -179L795 -264Q807 -283 808 -319V-594H695Z"/>
</svg>