<svg xmlns="http://www.w3.org/2000/svg" viewBox="0 -800 1024 1024">
	<path fill="#000000" d="M548 -499H662V-487Q640 -483 648 -469L693 -387Q702 -371 717 -371V-358H600V-371Q624 -373 617 -387L572 -470Q561 -486 548 -487ZM541 -245H656V-232Q634 -228 642 -215L687 -131Q695 -116 711 -115V-102H594V-115Q617 -118 610 -131L565 -215Q554 -232 541 -232ZM59 -781H203V-769Q173 -763 185 -744L269 -611Q283 -590 305 -586V-574H160V-586Q190 -593 178 -612L94 -744Q78 -767 59 -769ZM59 -520H203V-507Q173 -501 185 -482L266 -349Q282 -325 302 -324V-311H157V-324Q187 -330 176 -349L94 -482Q79 -505 59 -507ZM188 -220Q192 -237 167 -244V-257H303V-244Q279 -237 275 -220L222 15Q214 48 189 67Q165 87 123 83Q84 79 58 49V1H71Q75 31 99 41Q125 48 135 17ZM304 -681H317Q320 -659 340 -646Q372 -628 388 -657L433 -752Q437 -763 412 -769V-781H556V-769Q534 -764 529 -752L501 -696H910Q927 -697 930 -714H943V-643H930Q926 -661 909 -662H485L479 -650Q465 -618 429 -606Q395 -595 350 -607Q320 -616 304 -632ZM493 -537L475 -318H791L802 -498Q804 -535 763 -537ZM472 -285L454 -60H776L789 -285ZM342 -27V-41Q364 -42 367 -65L385 -285H354Q338 -284 333 -266H320V-336H333Q337 -318 354 -318H388L406 -531Q406 -552 383 -557V-570H795Q850 -570 871 -546Q892 -525 889 -487L879 -318H916Q933 -319 936 -336H949V-266H936Q931 -285 915 -285H877L863 -60H899Q916 -62 919 -79H932V-8H919Q913 -27 899 -27H861V-18Q858 28 827 53Q786 85 715 83Q640 79 595 50V3H608Q612 37 659 48Q697 55 731 44Q770 29 773 -8L774 -27Z"/>
</svg>