<svg xmlns="http://www.w3.org/2000/svg" viewBox="0 -800 1024 1024">
	<path fill="#000000" d="M359 -616H458V-603Q436 -599 439 -584L472 -442Q476 -425 493 -423V-410H396V-423Q420 -427 416 -442L383 -584Q381 -599 359 -603ZM58 -423Q76 -425 81 -442L119 -584Q124 -599 100 -603V-616H200V-603Q179 -599 176 -584L136 -442Q134 -427 157 -423V-410H58ZM513 -423Q532 -425 534 -442L567 -584Q571 -599 548 -603V-616H648V-603Q626 -599 624 -584L590 -442Q587 -426 610 -423V-410H513ZM806 -616H906V-603Q884 -599 887 -584L926 -442Q930 -426 948 -423V-410H850V-423Q872 -427 870 -442L830 -584Q828 -599 806 -603ZM768 -439Q767 -412 796 -407V-395H658V-407Q687 -412 686 -439V-663H555Q539 -662 534 -644H521V-715H534Q537 -697 555 -696H686V-737Q687 -766 658 -769V-781H796V-769Q767 -767 768 -737V-696H900Q916 -696 920 -715H933V-644H920Q916 -662 900 -663H768ZM320 -439Q319 -412 348 -407V-394H210V-407Q238 -411 238 -439V-663H107Q91 -662 86 -644H73V-715H86Q91 -696 107 -696H238V-737Q239 -768 210 -769V-781H348V-769Q320 -765 320 -737V-696H454Q472 -698 474 -715H487V-644H474Q471 -662 454 -663H320ZM852 -362Q883 -362 900 -349Q921 -334 921 -302V-254Q923 -229 949 -227V-214H804V-227Q830 -229 831 -254V-304Q830 -328 804 -329H559V-158H868Q885 -160 888 -176H901V-106H888Q883 -124 868 -125H559V32H916Q933 30 936 14H949V83H936Q930 64 916 64H473Q397 66 347 36L246 -15L242 12Q234 53 207 70Q183 85 146 84Q90 78 58 51V-4H71Q83 40 119 45Q147 50 153 19L196 -228Q198 -245 175 -251V-264H307V-251Q287 -247 283 -228L253 -51L380 15Q411 32 463 32H470V-329H108Q93 -327 88 -310H75V-381H88Q92 -362 108 -362Z"/>
</svg>