<svg xmlns="http://www.w3.org/2000/svg" viewBox="0 -800 1024 1024">
	<path fill="#000000" d="M59 -781H208V-769Q177 -762 190 -744L285 -611Q301 -590 327 -586V-574H172V-586Q203 -593 190 -612L96 -744Q78 -767 59 -769ZM58 -524H207V-511Q176 -505 189 -486L284 -353Q300 -331 325 -329V-316H171V-329Q203 -336 190 -353L95 -486Q78 -509 58 -511ZM208 -227Q213 -247 185 -251V-264H326V-251Q303 -246 296 -227L235 15Q225 50 194 69Q157 89 114 80Q78 73 58 51V-3H71Q75 33 108 43Q137 48 146 17ZM401 -667Q385 -666 380 -648H367V-719H380Q383 -700 401 -700H718Q754 -700 769 -718L792 -750Q801 -765 778 -769V-781H927V-769Q908 -766 897 -750L862 -703Q847 -684 823 -675Q802 -667 759 -667H682V-426H914Q932 -428 935 -445H948V-374H935Q930 -393 914 -393H681Q679 -355 661 -315L656 -305H753V-292Q729 -288 734 -271L839 10Q857 51 898 35Q928 18 936 -21H949V34Q933 58 904 73Q855 94 810 78Q768 61 752 19L645 -272L643 -275L520 16Q499 58 456 76Q417 92 371 78Q337 68 307 34V-21H320Q331 25 370 36Q411 45 431 1L573 -331Q587 -362 591 -393H368Q352 -392 347 -374H335V-445H347Q352 -426 368 -426H593V-667Z"/>
</svg>