<svg xmlns="http://www.w3.org/2000/svg" viewBox="0 -800 1024 1024">
	<path fill="#000000" d="M840 -608Q858 -610 861 -627H873V-556H861Q856 -575 840 -575H295Q279 -573 275 -556H261V-627H275Q278 -608 295 -608ZM58 -623H71Q74 -598 89 -584Q110 -568 122 -592L202 -747Q211 -764 183 -769V-781H323V-769Q304 -765 292 -747L280 -724H902Q920 -726 923 -743H935V-672H923Q919 -690 902 -691H262L206 -585Q190 -552 163 -545Q139 -538 106 -546Q82 -551 58 -570ZM754 -491Q805 -491 832 -471Q860 -449 860 -407V9Q863 53 902 34Q931 18 935 -14H948V42Q921 68 883 77Q828 90 798 66Q771 45 771 1V-414Q770 -457 724 -458H115Q99 -457 95 -439H82V-510H95Q99 -491 115 -491ZM161 -421H307V-408Q281 -405 288 -391L335 -325H456L504 -391Q512 -403 485 -408V-421H632V-408Q610 -406 599 -391L551 -325H665Q683 -327 686 -343H698V-274H686Q681 -293 665 -293H440V-201H633Q650 -203 653 -220H666V-150H653Q647 -169 633 -169H440V-77H687Q705 -79 708 -96H721V-26H708Q703 -45 687 -45H440V31Q438 58 468 62V75H323V62Q352 58 351 31V-45H104Q88 -44 83 -26H71V-96H83Q88 -77 104 -77H351V-169H158Q143 -167 138 -150H125V-220H138Q142 -200 158 -201H351V-293H126Q110 -291 106 -274H93V-343H106Q109 -325 126 -325H240L193 -391Q182 -406 161 -408Z"/>
</svg>