<svg xmlns="http://www.w3.org/2000/svg" viewBox="0 -800 1024 1024">
	<path fill="#000000" d="M850 -757Q888 -757 907 -742Q928 -726 928 -691V-648Q927 -629 951 -626V-613H816V-626Q839 -626 838 -648V-692Q839 -724 803 -724H486V-680Q486 -661 509 -658V-645H367V-658Q395 -660 396 -680V-721Q396 -737 367 -745V-757ZM60 -278H73Q80 -257 93 -263L174 -296V-552H106Q90 -551 85 -533H73V-605H85Q90 -586 106 -586H174V-737Q175 -767 146 -769V-781H288V-769Q259 -765 260 -737V-586H314Q332 -587 335 -605H347V-533H335Q331 -551 314 -552H260V-332L322 -358Q341 -366 343 -382H355V-305H343Q338 -324 322 -319L260 -293V-15Q260 37 229 63Q190 93 134 81Q84 69 58 34V-19H71Q81 26 120 40Q171 52 174 -2V-257L93 -224Q75 -214 73 -200H60ZM385 -272V-285Q404 -288 409 -302L493 -520H419Q403 -519 398 -501H385V-573H398Q403 -554 419 -554H507L522 -593Q528 -610 500 -613V-626H637V-613Q614 -609 608 -593L593 -554H898Q916 -556 919 -573H932V-501H919Q914 -520 898 -520H579L496 -305H639V-414Q640 -446 611 -445V-458H756V-445Q728 -442 728 -414V-305H898Q916 -306 919 -324H932V-253H919Q915 -271 898 -272H728V-145H915Q933 -147 936 -164H949V-93H936Q931 -112 915 -112H728V31Q727 57 756 62V75H611V62Q640 58 639 31V-112H404Q388 -111 383 -93H370V-164H383Q388 -145 404 -145H639V-272Z"/>
</svg>