<svg xmlns="http://www.w3.org/2000/svg" viewBox="0 -800 1024 1024">
	<path fill="#000000" d="M367 -493H465V-480Q444 -477 447 -462L478 -337Q482 -319 503 -318V-305H401V-318Q422 -320 420 -336L390 -461Q387 -477 367 -480ZM58 -272Q81 -274 83 -290L116 -462Q118 -478 98 -480V-493H197V-480Q178 -479 174 -461L140 -289Q139 -275 161 -272V-259H58ZM478 -727H581V-714Q559 -712 565 -691L606 -537Q613 -514 636 -511V-499H523V-511Q550 -513 544 -537L504 -691Q497 -713 478 -714ZM779 -511Q802 -514 808 -537L849 -691Q856 -712 834 -714V-727H937V-714Q917 -713 911 -691L871 -537Q864 -513 892 -511V-499H779ZM510 -187H634V-174Q610 -172 619 -150L653 -46Q662 -23 685 -20V-7H551V-20Q580 -23 572 -46L537 -150Q530 -173 510 -174ZM739 -155H863V-142Q838 -140 843 -124L889 16Q899 41 920 29Q933 19 936 -4H949V40Q934 59 904 68Q873 75 848 65Q819 52 809 20L761 -124Q755 -140 739 -142ZM58 -4H71Q74 19 87 29Q108 39 119 16L164 -124Q169 -140 144 -142V-155H267V-142Q252 -140 246 -124L199 20Q188 52 158 65Q131 76 100 68Q75 61 58 40ZM682 35Q728 22 737 -7H749V42Q711 66 654 74Q581 88 470 82Q407 79 378 56Q337 31 338 -37V-129Q339 -155 315 -157V-170H450V-157Q426 -154 427 -129V-28Q426 39 483 48Q578 61 682 35ZM129 -684Q113 -683 108 -665H95V-736H108Q111 -717 128 -717H322Q343 -716 349 -729L362 -750Q368 -764 347 -769V-781H483V-769Q464 -766 456 -750L436 -719Q423 -698 404 -690Q389 -684 357 -684H324V-580H453Q471 -582 473 -599H486V-528H473Q469 -546 453 -547H324V-260Q323 -238 348 -235V-222H215V-235Q239 -236 239 -260V-547H102Q86 -546 81 -528H69V-599H81Q86 -580 102 -580H239V-684ZM654 -487Q666 -511 666 -546V-743Q665 -766 639 -769V-781H776V-769Q749 -764 749 -743V-542Q749 -501 733 -469L723 -448H812V-436Q789 -435 795 -416L861 -271Q877 -241 909 -254Q934 -266 936 -288H949V-243Q931 -229 909 -221Q867 -208 835 -217Q798 -229 779 -270L711 -416L709 -419L641 -276Q620 -235 577 -218Q544 -207 504 -215Q475 -221 455 -240V-286H467Q473 -260 497 -253Q536 -244 559 -285Z"/>
</svg>