<svg xmlns="http://www.w3.org/2000/svg" viewBox="0 -800 1024 1024">
	<path fill="#000000" d="M335 6H347Q350 35 374 40Q404 44 419 25L440 -8Q449 -22 423 -26V-38H545V-26Q526 -24 516 -8L490 33Q475 56 447 65Q418 75 390 71Q351 66 335 48ZM741 -38H864V-26Q838 -22 847 -8L868 25Q882 43 911 39Q934 33 936 6H949V48Q932 66 896 71Q864 76 840 69Q816 62 797 33L769 -8Q760 -23 741 -26ZM474 -518V-474H825V-518ZM474 -593V-547H825V-563Q825 -593 791 -593ZM791 -400Q826 -399 825 -432V-446H474V-400ZM643 -691H655Q659 -670 671 -668Q682 -664 692 -684L720 -751Q724 -767 699 -770V-781H823V-770Q803 -767 797 -751L793 -741H915Q933 -743 936 -759H948V-696H936Q932 -714 915 -714H880L904 -671Q913 -654 933 -651V-639H838V-651Q865 -654 853 -671L829 -714H781L770 -686Q759 -660 738 -649Q715 -634 685 -637Q662 -639 643 -653ZM339 -701H352Q353 -679 368 -671Q387 -660 396 -679L425 -751Q429 -767 405 -770V-781H527V-770Q507 -767 501 -751L497 -741H627Q646 -742 648 -755H661V-700H648Q645 -715 627 -714H577L591 -673Q597 -655 622 -651V-639H528V-651Q550 -653 541 -673L527 -714H486L473 -679Q462 -650 434 -639Q408 -630 378 -638Q360 -642 339 -661ZM445 -169Q442 -189 472 -201L580 -241Q589 -244 586 -249Q581 -254 570 -255V-267H733V-255Q722 -253 697 -244Q690 -242 687 -241L525 -183Q519 -180 519 -177Q520 -174 527 -174Q573 -171 627 -173L658 -182Q665 -184 663 -187Q662 -189 653 -190V-202H837V-190Q828 -189 804 -182Q798 -181 796 -180L485 -95Q478 -93 478 -91Q479 -89 486 -90Q668 -90 795 -107L769 -131Q759 -138 744 -139V-150H869V-139Q848 -137 854 -130L912 -79Q919 -71 935 -69V-58H810V-69Q833 -71 826 -80L819 -85Q765 -75 699 -67V11Q699 49 664 69Q627 88 584 82Q542 76 521 55V15H533Q544 48 576 48Q610 46 613 12V-60Q519 -54 421 -56Q384 -58 377 -79Q374 -103 413 -114L529 -146Q513 -145 484 -145Q450 -146 445 -169ZM60 -282H73Q79 -262 93 -267L167 -294V-553H106Q90 -552 85 -534H73V-605H85Q90 -586 106 -586H167V-737Q168 -767 139 -769V-781H279V-769Q248 -764 248 -737V-586H299Q316 -588 319 -605H332V-534H319Q315 -552 299 -553H248V-323L291 -339Q310 -346 311 -363H324V-289H311Q307 -307 291 -303L248 -287V-13Q247 39 201 70Q164 93 115 76Q81 61 58 32V-21H71Q84 34 124 41Q160 36 167 -2V-257L93 -230Q76 -222 73 -207H60ZM493 -236Q468 -211 435 -202Q404 -191 372 -201Q350 -207 331 -223V-267H344Q351 -240 369 -232Q390 -225 417 -248L475 -302H378Q362 -301 357 -283H344V-352H357Q362 -333 378 -333H509L551 -372H366V-385Q390 -388 391 -410V-583Q390 -602 366 -608V-621H820Q867 -622 886 -607Q908 -594 908 -555V-441Q908 -405 883 -387Q862 -372 816 -372H640L598 -333H913Q931 -335 933 -352H946V-283H933Q929 -301 913 -302H795L858 -249Q882 -232 905 -235Q932 -241 936 -267H949V-226Q932 -211 909 -206Q874 -197 838 -208Q810 -215 785 -235L705 -302H564Z"/>
</svg>