<svg xmlns="http://www.w3.org/2000/svg" viewBox="0 -800 1024 1024">
	<path fill="#000000" d="M622 -781H762V-769Q733 -764 733 -735V-691Q733 -664 762 -659V-646H622V-659Q650 -664 651 -691V-735Q650 -767 622 -769ZM404 -43Q404 -29 423 -27V-15H340V-27Q358 -30 358 -43L337 -471Q335 -483 319 -487V-500H401V-487Q383 -485 384 -471ZM101 -471Q102 -485 84 -487V-500H166V-487Q151 -483 149 -471L122 -43Q122 -30 140 -27V-15H57V-27Q75 -30 75 -43ZM282 31Q282 57 309 62V75H177V62Q204 57 203 31V-575H106Q91 -574 86 -556H74V-627H86Q91 -608 106 -608H203V-737Q204 -767 177 -769V-781H309V-769Q281 -765 282 -737V-608H372Q390 -609 393 -627H405V-556H393Q389 -574 372 -575H282ZM543 -64Q543 -44 568 -41V-28H446V-41Q470 -43 470 -64V-443Q471 -462 446 -467V-479H651V-594H466Q450 -593 445 -575H432V-645H445Q450 -626 466 -626H915Q933 -628 936 -645H949V-575H936Q931 -594 915 -594H733V-479H814Q868 -479 891 -457Q913 -437 913 -397V-93Q913 -58 891 -39Q865 -19 823 -26Q795 -33 775 -54V-104H787Q794 -75 814 -64Q840 -57 841 -90V-407Q838 -444 799 -447H733V31Q733 57 762 62V75H622V62Q651 57 651 31V-447H543Z"/>
</svg>