<svg xmlns="http://www.w3.org/2000/svg" viewBox="0 -800 1024 1024">
	<path fill="#000000" d="M101 -471Q102 -485 84 -487V-500H166V-487Q151 -483 149 -471L122 -43Q123 -31 140 -27V-15H57V-27Q74 -31 75 -43ZM448 -43Q450 -30 466 -27V-15H383V-27Q402 -31 401 -43L373 -471Q373 -483 356 -487V-500H439V-487Q421 -485 421 -471ZM304 31Q303 58 331 62V75H192V62Q219 58 219 31V-575H108Q92 -574 87 -556H74V-627H87Q92 -608 108 -608H219V-737Q219 -767 192 -769V-781H331V-769Q303 -766 304 -737V-608H418Q436 -609 439 -627H452V-556H439Q435 -574 418 -575H304ZM915 32Q933 30 936 13H949V83H936Q932 65 915 64H485Q469 66 465 83H452V13H465Q468 32 485 32H658V-332H524Q508 -331 503 -313H490V-384H503Q507 -365 524 -365H658V-726H507Q491 -724 487 -707H474V-778H487Q490 -759 507 -759H895Q913 -761 916 -778H929V-707H916Q912 -725 895 -726H746V-365H878Q895 -367 898 -384H911V-313H898Q893 -331 878 -332H746V32Z"/>
</svg>