<svg xmlns="http://www.w3.org/2000/svg" viewBox="0 -800 1024 1024">
	<path fill="#000000" d="M909 -648Q927 -649 930 -667H943V-596H930Q926 -614 909 -615H417Q399 -613 396 -597H383V-667H396Q401 -648 417 -648H613V-737Q613 -766 585 -769V-781H731V-769Q704 -765 703 -737V-648ZM337 -357Q354 -364 357 -381H370V-306H357Q352 -325 337 -320L269 -294V-19Q269 38 235 64Q196 90 132 81Q86 74 58 34V-19H71Q85 40 125 43Q181 44 183 -6V-261L93 -227Q75 -217 73 -203H60V-279H73Q80 -258 93 -264L183 -298V-550H106Q90 -549 85 -531H73V-603H85Q90 -584 106 -584H183V-737Q184 -767 155 -769V-781H297V-769Q268 -766 269 -737V-584H334Q351 -586 354 -603H367V-531H354Q350 -549 334 -550H269V-331ZM463 -460Q464 -479 437 -484V-497H745Q807 -497 831 -471Q854 -447 854 -395V12Q856 42 890 41Q934 32 936 -6H949V50Q926 79 875 82Q824 86 799 67Q767 45 767 -1V-425Q766 -462 728 -463H550V-6Q550 44 509 68Q471 88 416 78Q369 71 347 44V-6H360Q366 30 406 39Q458 48 463 11Z"/>
</svg>