<svg xmlns="http://www.w3.org/2000/svg" viewBox="0 -800 1024 1024">
	<path fill="#000000" d="M541 -565H553Q553 -546 565 -534Q584 -518 593 -546L637 -749Q641 -766 615 -769V-781H745V-769Q724 -765 720 -749L696 -641H843Q888 -642 905 -626Q923 -610 923 -574V-447Q922 -424 949 -420V-407H829V-420Q855 -421 854 -447V-577Q854 -608 824 -608H688L675 -547Q669 -516 644 -499Q625 -488 587 -490Q561 -493 541 -514ZM128 -750Q110 -766 87 -769V-781H243V-769Q216 -761 228 -748L304 -687L381 -748Q392 -761 366 -769V-781H522V-769Q503 -766 480 -750L354 -648L428 -589Q456 -566 476 -574Q507 -582 511 -620H524V-569Q508 -551 480 -544Q455 -536 427 -539Q388 -543 364 -560L304 -608L245 -560Q223 -543 180 -538Q150 -536 127 -544Q100 -551 81 -569V-620H94Q99 -583 129 -574Q153 -566 180 -589L254 -648ZM669 -242Q673 -258 673 -285V-428Q674 -457 647 -457V-470H777V-457Q754 -453 754 -428V-283H855V-270Q834 -267 837 -250L903 30Q906 42 914 44Q922 46 928 36Q934 27 936 0H949V53Q934 75 911 81Q887 88 861 75Q837 61 830 33L762 -251Q759 -257 753 -263Q752 -248 748 -233L678 29Q670 58 648 73Q624 88 593 82Q571 78 552 58V6H565Q570 35 578 43Q592 53 598 32ZM103 -231Q73 -235 61 -255V-304H74Q77 -278 89 -269Q98 -262 110 -283L187 -438H92Q76 -437 71 -419H58V-490H71Q76 -471 92 -471H204L211 -485Q220 -504 193 -507V-520H317V-507Q293 -504 284 -486L276 -471H523Q541 -473 544 -490H556V-419H544Q540 -437 523 -438H260L185 -290H299V-342Q300 -373 273 -373V-386H403V-373Q376 -371 377 -342V-290H449Q501 -290 523 -268Q545 -248 545 -208V-56Q545 -23 524 -3Q502 18 464 12Q434 5 416 -14V-66H428Q432 -32 451 -24Q475 -16 477 -49V-217Q474 -254 437 -257H377V31Q375 58 403 62V75H273V62Q300 59 299 31V-257H199V-27Q199 -6 223 -4V9H109V-4Q134 -6 134 -27V-233Q119 -228 103 -231Z"/>
</svg>