<svg xmlns="http://www.w3.org/2000/svg" viewBox="0 -800 1024 1024">
	<path fill="#000000" d="M691 -757H821V-744Q796 -738 802 -725L832 -649Q837 -635 862 -627V-615H727V-627Q753 -631 750 -649L719 -725Q715 -739 691 -744ZM397 -64Q397 -51 415 -48V-35H335V-48Q355 -51 353 -64L331 -471Q329 -483 313 -487V-500H392V-487Q374 -485 375 -471ZM96 -471Q97 -485 79 -487V-500H158V-487Q141 -483 141 -471L119 -43Q118 -30 136 -27V-15H57V-27Q75 -30 75 -43ZM781 -1Q783 42 832 44Q871 42 898 28Q930 7 935 -26H948V32Q922 57 880 70Q824 86 775 79Q700 67 700 -10V-144H653Q638 -142 633 -125H620V-196H633Q638 -176 653 -177H700V-448Q699 -468 671 -473V-486H810V-473Q781 -468 781 -448V-177H795Q836 -177 840 -211L867 -400Q869 -419 846 -423V-436H944V-423Q926 -418 923 -402L897 -222Q893 -180 870 -162Q851 -144 802 -144H781ZM275 31Q273 58 301 62V75H170V62Q198 58 197 31V-575H107Q91 -573 87 -556H74V-627H87Q91 -608 107 -608H197V-737Q198 -768 170 -769V-781H301V-769Q274 -765 275 -737V-608H366Q383 -609 386 -627H399V-556H386Q383 -574 366 -575H275ZM524 -743Q525 -763 495 -769V-781H636V-769Q610 -763 607 -743L600 -578H912Q930 -580 933 -597H946V-526H933Q928 -545 912 -545H599L578 4Q576 47 542 70Q510 92 459 81Q420 71 397 41V-11H410Q416 22 442 37Q486 55 494 13L516 -545H456Q441 -543 436 -526H423V-597H436Q440 -577 456 -578H517Z"/>
</svg>