<svg xmlns="http://www.w3.org/2000/svg" viewBox="0 -800 1024 1024">
	<path fill="#000000" d="M427 -57Q428 -43 444 -42V-29H362V-42Q380 -44 379 -57L352 -471Q352 -483 335 -487V-500H417V-487Q399 -485 400 -471ZM101 -471Q102 -485 84 -487V-500H166V-487Q151 -483 149 -471L122 -43Q122 -30 140 -27V-15H57V-27Q73 -31 75 -43ZM292 31Q292 57 319 62V75H182V62Q209 57 209 31V-575H108Q92 -574 87 -556H74V-628H87Q92 -608 108 -608H209V-737Q209 -768 182 -769V-781H319V-769Q291 -765 292 -737V-608H383Q401 -610 404 -628H417V-556H403Q400 -574 383 -575H292ZM821 -370Q819 -406 783 -408H625V-6Q625 46 582 69Q544 89 488 79Q453 72 435 53V2H447Q452 39 495 46Q535 50 537 8V-606H478Q462 -605 457 -587H445V-659H457Q461 -638 478 -639H653V-738Q653 -765 625 -769V-781H771V-769Q744 -763 743 -738V-639H912Q930 -641 933 -659H946V-587H933Q929 -605 912 -606H625V-440H812Q861 -440 884 -421Q909 -403 909 -360V-14Q909 47 855 70Q809 88 754 79Q713 71 686 48V-4H699Q711 43 767 45Q820 48 821 -1Z"/>
</svg>