<svg xmlns="http://www.w3.org/2000/svg" viewBox="0 -800 1024 1024">
	<path fill="#000000" d="M177 -416H260Q280 -416 280 -433V-503Q280 -518 260 -518H177ZM141 -781H267V-769Q241 -766 243 -748V-731H349V-746Q351 -770 326 -769V-781H451V-769Q426 -765 427 -746V-731H494Q512 -733 514 -750H527V-681H514Q510 -699 494 -700H427V-691Q427 -670 451 -666V-653H326V-666Q350 -669 349 -691V-700H243Q244 -684 267 -681V-668H141V-681Q164 -683 166 -700H100Q84 -699 79 -681H66V-750H79Q84 -731 100 -731H166V-748Q167 -769 141 -769ZM92 -550H282Q316 -550 330 -542Q347 -532 347 -503V-434Q347 -405 329 -395Q316 -385 282 -386H92V-399Q114 -401 114 -420V-516Q115 -533 92 -537ZM58 -620H71Q73 -604 85 -596Q102 -586 112 -603L131 -631Q138 -643 117 -645V-657H237V-645Q224 -644 215 -633L208 -623H425Q468 -624 483 -612Q504 -598 504 -564V-423Q503 -387 474 -368Q445 -353 405 -361Q382 -367 361 -387V-426H373Q376 -408 393 -401Q420 -391 422 -418V-565Q423 -593 392 -592H189L187 -589Q173 -570 146 -563Q118 -556 94 -563Q73 -569 58 -585ZM541 -709H554Q556 -694 564 -684Q576 -669 586 -689L614 -748Q620 -765 596 -769V-781H726V-768Q704 -764 697 -749L682 -718H906Q923 -720 926 -737H939V-668H926Q921 -686 906 -687H882V-595Q883 -555 848 -526L794 -480L869 -429Q895 -412 917 -429Q933 -441 936 -467H949V-420Q937 -399 921 -391Q900 -379 868 -380Q832 -384 807 -401L748 -440L675 -378Q655 -362 623 -360Q594 -359 570 -372Q549 -382 536 -400V-446H548Q552 -419 569 -406Q594 -391 614 -408L694 -477L616 -530Q585 -549 586 -575V-596Q587 -612 563 -613V-626H688V-613Q665 -612 665 -596V-579Q664 -565 683 -555L740 -516L784 -553Q803 -571 803 -599V-687H667L661 -675Q649 -652 624 -645Q602 -637 576 -645Q564 -648 544 -664Q542 -666 541 -667ZM134 -287Q118 -285 113 -268H101V-339H114Q117 -320 134 -320H764Q776 -320 783 -327L790 -338Q798 -350 779 -354V-367H918V-354Q900 -351 893 -337L880 -318Q869 -299 856 -294Q841 -287 809 -287H549V-206H837Q853 -208 857 -225H870V-154H857Q853 -172 837 -173H549V-91H915Q932 -93 936 -110H949V-39H936Q931 -58 915 -58H549V-7Q549 50 502 73Q461 89 386 81Q325 72 293 51V-9H306Q316 25 357 39Q389 51 425 43Q459 33 459 4V-58H91Q76 -56 71 -39H58V-110H71Q76 -91 91 -91H459V-173H171Q155 -172 150 -154H138V-225H150Q156 -206 171 -206H459V-287Z"/>
</svg>