<svg xmlns="http://www.w3.org/2000/svg" viewBox="0 -800 1024 1024">
	<path fill="#000000" d="M184 -737Q185 -767 156 -769V-781H297V-769Q268 -766 269 -737V-590H346Q364 -591 367 -609H379V-536H367Q363 -554 346 -555H269V-328L350 -358Q368 -366 370 -382H383V-305H370Q365 -324 350 -319L269 -289V-15Q269 37 237 63Q202 89 137 82Q86 73 58 34V-19H71Q85 39 129 43Q183 43 184 -5V-258L93 -225Q76 -216 73 -201H60V-279H73Q80 -258 93 -264L184 -297V-555H106Q90 -554 85 -536H73V-609H85Q90 -590 106 -590H184ZM545 -741Q548 -768 517 -768V-781H651V-768Q624 -767 623 -741L609 -590H762Q818 -590 841 -568Q862 -546 862 -495V10Q864 41 893 38Q906 36 918 26Q935 9 936 -12H948V42Q928 67 893 77Q851 90 816 71Q778 50 777 5V-524Q778 -556 742 -555H606L585 -312L743 -153Q755 -142 768 -139V-126H672V-139Q688 -142 683 -150L580 -254L559 -12Q553 45 511 71Q479 91 426 82Q383 73 354 45V-9H367Q379 38 424 48Q472 53 480 -5L508 -326L423 -413Q421 -414 419 -417Q408 -428 398 -430V-442H498V-430Q477 -426 486 -412L513 -384L528 -555H436Q422 -554 417 -536H405V-607H417Q421 -589 436 -590H531Z"/>
</svg>