<svg xmlns="http://www.w3.org/2000/svg" viewBox="0 -800 1024 1024">
	<path fill="#000000" d="M397 -43Q398 -27 415 -27V-15H336V-27Q352 -28 353 -43L326 -471Q325 -484 308 -487V-500H388V-487Q370 -485 370 -471ZM102 -471Q104 -486 85 -487V-500H164V-487Q149 -485 147 -471L120 -43Q120 -28 137 -27V-15H58V-27Q75 -28 75 -43ZM538 -275V-133H822V-236Q821 -274 781 -275ZM538 42H781Q821 41 822 2V-100H538ZM521 -485Q523 -436 576 -441Q628 -451 644 -506H657V-451Q615 -408 550 -402Q508 -399 477 -417Q439 -442 439 -494V-737Q440 -766 413 -769V-781H548V-769Q521 -766 521 -737V-644H614Q631 -646 634 -663H647V-592H634Q629 -610 614 -611H521ZM770 -486Q772 -436 840 -439Q913 -450 932 -506H945V-451Q904 -410 827 -402Q771 -398 739 -414Q689 -437 688 -494V-737Q689 -765 662 -769V-781H797V-769Q769 -767 770 -737V-641H817Q839 -640 845 -663L859 -707Q866 -723 842 -726V-739H944V-726Q926 -722 921 -707L907 -661Q898 -630 883 -619Q869 -608 828 -608H770ZM276 31Q274 58 304 62V75H168V62Q197 58 196 31V-575H108Q92 -574 87 -556H74V-627H87Q92 -608 108 -608H196V-737Q196 -768 168 -769V-781H304V-769Q276 -765 276 -737V-608H365Q383 -609 386 -627H399V-556H386Q382 -574 365 -575H276ZM813 -308Q858 -307 882 -289Q906 -268 906 -225V-15Q906 30 886 51Q862 75 810 75H427V62Q452 58 454 36V-270Q453 -289 427 -295V-308H612L626 -346Q631 -361 607 -364V-377H740V-364Q721 -362 715 -346L700 -308Z"/>
</svg>