<svg xmlns="http://www.w3.org/2000/svg" viewBox="0 -800 1024 1024">
	<path fill="#000000" d="M540 -335Q496 -342 465 -361V-415H478Q484 -382 512 -370Q548 -357 580 -367Q602 -378 618 -402L699 -525Q707 -538 682 -545V-558H821V-545Q802 -543 792 -526L701 -387Q678 -353 634 -340Q596 -329 540 -335ZM744 -193Q716 -152 651 -136Q602 -125 543 -131Q481 -140 445 -161V-214H458Q469 -172 523 -163Q570 -154 610 -169Q640 -181 661 -211L749 -340Q759 -355 734 -362V-375H876V-362Q858 -361 846 -343ZM781 13Q744 66 660 80Q604 88 544 80Q473 73 425 52V-1H438Q450 43 527 53Q577 59 622 46Q671 33 697 -7L807 -171Q817 -184 790 -192V-205H938V-192Q915 -188 904 -173ZM763 -757Q799 -757 820 -745Q843 -731 856 -700L920 -522Q927 -502 949 -498V-485H816V-498Q839 -502 835 -521L773 -695Q761 -725 726 -725H622L548 -523Q541 -504 569 -498V-485H430V-498Q454 -503 462 -522L534 -718Q541 -739 515 -745V-757ZM324 -496Q328 -532 293 -533H214L202 -475Q193 -436 171 -421Q144 -402 105 -410Q78 -416 59 -438V-493H72Q75 -464 88 -451Q112 -433 122 -470L176 -725H108Q92 -723 88 -706H75V-776H88Q91 -757 108 -757H405Q422 -759 425 -776H438V-706H425Q419 -725 405 -725H254L221 -566H315Q364 -566 385 -544Q406 -522 398 -473L336 -21Q327 46 272 71Q226 91 166 82Q97 70 59 36V-23H71Q82 21 127 38Q176 55 214 44Q252 27 258 -21L276 -150H232Q184 -149 164 -163Q134 -180 124 -222L99 -335Q97 -352 75 -356V-369H190V-356Q167 -352 170 -335L195 -220Q203 -181 243 -182H280Z"/>
</svg>