<svg xmlns="http://www.w3.org/2000/svg" viewBox="0 -800 1024 1024">
	<path fill="#000000" d="M222 -399V-307H422V-399ZM222 -149V-45L422 -68V-149ZM222 -275V-181H422V-275ZM226 -725V-644H784V-677Q780 -721 733 -725ZM735 -530Q782 -532 784 -581V-612H226V-530ZM621 -99Q598 -118 599 -154V-244Q598 -259 581 -260V-273H696V-260Q680 -258 677 -246V-156Q677 -139 690 -128L753 -72L810 -124Q823 -136 823 -158V-283Q821 -306 797 -308H596Q579 -307 575 -291H563V-357H575Q579 -339 596 -339H828Q861 -339 881 -325Q900 -311 900 -278V-154Q903 -113 879 -96L803 -28L870 31Q893 50 913 38Q931 29 936 3H949V47Q937 63 917 73Q886 86 857 83Q825 81 802 60L753 17L707 59Q686 79 650 83Q620 86 592 75Q570 66 555 46V3H568Q571 29 591 39Q614 52 638 32L703 -27ZM511 31Q510 57 539 62V75H394V62Q422 58 422 31V-36L92 0Q75 3 71 19H58V-50H71Q76 -29 92 -31L134 -35V-399H92Q76 -398 71 -380H59V-450H71Q76 -431 92 -431H915Q933 -433 936 -450H949V-380H936Q932 -398 915 -399H511V-78L543 -82Q561 -85 563 -101H576V-30H563Q559 -50 543 -49L511 -45ZM773 -757Q819 -757 845 -737Q875 -715 875 -668V-593Q875 -549 852 -526Q825 -496 773 -497H107V-510Q134 -515 135 -537V-720Q133 -740 107 -745V-757Z"/>
</svg>