<svg xmlns="http://www.w3.org/2000/svg" viewBox="0 -800 1024 1024">
	<path fill="#000000" d="M796 -570H688V-492H835V-532Q835 -570 796 -570ZM470 -570V-492H616V-570ZM796 -379Q832 -381 835 -420V-459H688V-379ZM470 -459V-379H616V-459ZM915 -296Q933 -298 936 -315H949V-244H936Q931 -263 915 -263H389Q373 -261 369 -244H356V-315H369Q372 -296 389 -296ZM767 42Q804 40 806 2V-51H497V42ZM497 -179V-84H806V-140Q805 -178 767 -179ZM60 -272H73Q80 -249 93 -257L174 -300V-557H102Q86 -556 81 -538H68V-608H81Q86 -589 102 -589H174V-737Q175 -767 146 -769V-781H285V-769Q256 -765 257 -737V-589H311Q328 -591 331 -608H344V-538H331Q327 -556 311 -557H257V-345L313 -375Q332 -387 333 -399H345V-324H333Q326 -344 313 -338L257 -308V-15Q257 35 226 63Q189 90 127 81Q87 75 58 33V-21H71Q81 30 121 38Q172 48 174 -4V-263L93 -219Q75 -209 73 -196H60ZM795 -211Q851 -211 873 -189Q892 -167 892 -131V-11Q892 28 871 51Q849 75 796 75H387V62Q412 58 413 36V-174Q412 -194 387 -199V-211ZM822 -603Q876 -603 897 -582Q916 -562 916 -525V-431Q916 -390 894 -369Q871 -345 823 -346H365V-359Q388 -363 389 -386V-566Q388 -586 364 -590V-603H659L693 -665Q703 -688 679 -689H540L523 -658Q509 -633 473 -626Q442 -620 407 -629Q377 -637 356 -656V-703H368Q374 -673 400 -662Q431 -653 444 -675L487 -752Q493 -765 470 -769V-781H602V-769Q582 -765 575 -752L558 -721H726Q763 -721 775 -702Q789 -679 772 -647L748 -603Z"/>
</svg>