<svg xmlns="http://www.w3.org/2000/svg" viewBox="0 -800 1024 1024">
	<path fill="#000000" d="M416 10H429Q433 32 454 44Q473 54 483 36L534 -77Q538 -93 517 -96V-109H650V-96Q628 -96 621 -80L567 38Q555 65 529 77Q504 88 472 80Q437 74 416 55ZM715 -109H848V-96Q827 -93 831 -77L882 36Q892 54 911 44Q932 32 936 10H949V55Q929 74 893 80Q862 88 836 77Q810 65 798 38L744 -80Q737 -96 715 -96ZM398 -43Q398 -29 416 -27V-15H335V-27Q355 -30 353 -43L333 -471Q331 -483 315 -487V-500H396V-487Q378 -485 378 -471ZM96 -471Q97 -485 79 -487V-500H159V-487Q144 -483 142 -471L120 -43Q119 -30 137 -27V-15H57V-27Q75 -30 75 -43ZM581 -625V-502H784V-625ZM581 -469V-345H784V-469ZM581 -313V-188H784V-313ZM277 31Q275 58 303 62V75H171V62Q199 58 198 31V-575H107Q91 -573 87 -556H74V-627H87Q91 -608 107 -608H198V-737Q199 -768 171 -769V-781H303V-769Q276 -765 277 -737V-608H369Q387 -609 390 -627H403V-556H390Q386 -574 369 -575H277ZM784 -737Q785 -768 756 -769V-781H897V-769Q869 -765 869 -737V-658H896Q914 -660 917 -677H930V-606H917Q912 -625 896 -625H869V-188H915Q933 -190 936 -207H949V-137H936Q931 -156 915 -156H450Q434 -155 429 -137H416V-207H429Q434 -188 450 -188H496V-625H469Q453 -624 448 -606H436V-677H448Q453 -658 469 -658H496V-737Q497 -768 468 -769V-781H609V-769Q581 -765 581 -737V-658H784Z"/>
</svg>