<svg xmlns="http://www.w3.org/2000/svg" viewBox="0 -800 1024 1024">
	<path fill="#000000" d="M640 -239H732V-226Q715 -222 716 -210L740 -55Q741 -42 756 -41V-28H665V-41Q682 -43 681 -55L657 -210Q655 -222 640 -226ZM122 -320Q121 -298 141 -296V-283H60V-296Q81 -295 80 -320V-593Q82 -615 60 -616V-629H141V-616Q121 -614 122 -593ZM353 -320Q351 -298 373 -296V-283H292V-296Q313 -297 311 -320V-593Q312 -615 292 -616V-629H373V-616Q352 -614 353 -593ZM303 -21H316Q320 4 335 15Q355 30 362 -2L390 -152Q396 -172 371 -176V-188H481V-176Q459 -173 456 -152L428 -6Q420 27 396 44Q370 62 338 51Q318 45 303 27ZM774 -188H884V-176Q858 -173 863 -152L891 10Q898 38 916 26Q932 12 936 -10H949V37Q937 54 917 60Q890 71 862 59Q831 44 825 11L796 -152Q794 -173 774 -176ZM559 -370H573Q576 -338 595 -330Q616 -321 624 -345L673 -536Q676 -555 652 -559V-571H769V-559Q748 -555 744 -536L694 -346Q686 -318 663 -302Q642 -288 616 -291Q581 -296 559 -321ZM387 -370H400Q405 -337 422 -330Q443 -320 451 -345L500 -536Q503 -554 480 -559V-571H596V-559Q575 -554 572 -536L521 -346Q515 -320 491 -302Q468 -287 441 -291Q408 -298 387 -321ZM596 2Q596 47 651 52Q685 55 727 43Q779 26 782 -7H795V42Q759 69 713 78Q669 87 613 83Q561 79 538 56Q514 32 514 -10V-182Q515 -208 496 -208V-221H615V-208Q595 -208 596 -182ZM392 -655H405Q407 -637 424 -623Q442 -609 452 -635L497 -746Q503 -766 478 -770V-782H588V-770Q566 -767 563 -746L541 -696H826Q883 -697 902 -676Q922 -655 922 -609V-357Q922 -312 894 -289Q867 -266 809 -266Q762 -265 724 -293V-345H736Q745 -315 766 -307Q790 -295 813 -304Q836 -315 836 -345V-621Q837 -664 796 -663H527L517 -640Q516 -638 514 -633Q500 -599 485 -590Q459 -572 427 -583Q407 -589 392 -607ZM258 31Q257 57 286 62V75H147V62Q176 58 175 31V-737Q176 -769 147 -769V-781H286V-769Q257 -765 258 -737Z"/>
</svg>