<svg xmlns="http://www.w3.org/2000/svg" viewBox="0 -800 1024 1024">
	<path fill="#000000" d="M766 -599H878V-587Q858 -584 862 -567L890 -452Q898 -427 920 -438Q934 -445 936 -474H949V-424Q932 -408 913 -402Q886 -391 859 -400Q829 -414 821 -444L792 -566Q787 -584 766 -587ZM404 -474H417Q418 -446 433 -438Q454 -427 462 -452L489 -567Q492 -584 473 -587V-599H585V-587Q564 -584 560 -566L531 -444Q523 -414 493 -400Q466 -391 441 -402Q419 -409 404 -424ZM914 32Q932 30 935 13H948V83H935Q931 65 914 64H437Q421 65 416 83H404V13H416Q421 32 437 32ZM396 -43Q397 -27 414 -27V-15H334V-27Q353 -28 352 -43L326 -471Q325 -484 308 -487V-500H388V-487Q370 -485 371 -471ZM102 -471Q104 -486 85 -487V-500H164V-487Q150 -485 147 -471L120 -43Q121 -28 137 -27V-15H58V-27Q75 -28 75 -43ZM768 -59Q807 -60 808 -101V-173H542V-59ZM542 -319V-205H808V-280Q807 -318 768 -319ZM717 -429Q716 -400 744 -397V-384H606V-397Q634 -401 634 -429V-644H453Q437 -643 432 -625H419V-696H432Q437 -677 453 -677H634V-737Q634 -768 606 -769V-781H744V-769Q716 -765 717 -737V-677H897Q915 -678 918 -696H931V-625H918Q914 -643 897 -644H717ZM276 31Q274 58 304 62V75H168V62Q197 58 196 31V-575H108Q92 -574 87 -556H74V-627H87Q92 -608 108 -608H196V-737Q197 -768 168 -769V-781H304V-769Q276 -765 276 -737V-608H364Q382 -609 385 -627H397V-556H385Q381 -574 364 -575H276ZM436 -27V-39Q458 -44 460 -66V-314Q460 -332 435 -339V-352H791Q837 -352 861 -336Q891 -316 891 -272V-114Q891 -69 869 -50Q846 -26 795 -27Z"/>
</svg>