<svg xmlns="http://www.w3.org/2000/svg" viewBox="0 -800 1024 1024">
	<path fill="#000000" d="M342 -628H462V-615Q443 -611 445 -598L483 -489Q488 -472 506 -470V-457H385V-470Q406 -473 403 -489L365 -598Q359 -615 342 -615ZM547 -628H667V-615Q647 -611 651 -598L688 -489Q693 -472 712 -470V-457H590V-470Q611 -473 608 -489L570 -598Q564 -615 547 -615ZM764 -470Q783 -472 787 -489L825 -598Q829 -611 809 -615V-628H929V-615Q910 -615 906 -598L868 -489Q865 -473 886 -470V-457H764ZM59 -520H203V-507Q173 -502 185 -482L263 -356Q276 -335 298 -332V-320H154V-332Q184 -339 173 -356L94 -482Q79 -505 59 -507ZM59 -781H203V-769Q173 -763 185 -744L261 -611Q273 -591 297 -586V-574H152V-586Q182 -592 170 -612L94 -744Q80 -766 59 -769ZM786 -714Q804 -713 809 -726L822 -753Q828 -764 805 -769V-781H941V-769Q922 -766 915 -752L897 -717Q886 -695 867 -687Q853 -681 822 -681H362Q347 -679 342 -662H329V-733H342Q345 -714 362 -714ZM185 -227Q189 -244 163 -251V-264H300V-251Q276 -244 272 -227L222 15Q216 46 189 67Q165 87 123 83Q84 79 58 49V-5H71Q76 30 99 39Q127 47 135 17ZM848 -398Q894 -397 901 -361Q903 -330 870 -312L702 -228Q683 -220 685 -198V-182H915Q933 -184 936 -201H948V-130H936Q932 -148 915 -149H685V-9Q685 45 638 69Q586 93 507 78Q452 68 423 42V-9H436Q443 22 471 36Q504 54 547 49Q597 40 598 -1V-149H359Q343 -148 338 -130H325V-201H338Q343 -182 359 -182H598V-209Q597 -251 630 -266L794 -348Q801 -352 799 -359Q797 -365 789 -365H396Q380 -363 376 -346H363V-416H375Q379 -398 396 -398Z"/>
</svg>