<svg xmlns="http://www.w3.org/2000/svg" viewBox="0 -800 1024 1024">
	<path fill="#000000" d="M510 -202H634V-190Q611 -187 619 -165L653 -46Q661 -24 685 -20V-7H551V-20Q579 -23 572 -46L537 -165Q530 -189 510 -190ZM119 -547Q122 -564 100 -567V-579H199V-567Q176 -563 175 -547L135 -309Q134 -292 156 -290V-277H58V-290Q79 -293 81 -309ZM470 -309Q472 -293 492 -290V-277H394V-290Q416 -292 414 -309L375 -547Q373 -562 351 -567V-579H450V-567Q429 -564 430 -547ZM738 -175H863V-163Q839 -160 844 -145L890 16Q899 41 920 29Q933 19 936 -4H949V40Q934 59 904 68Q873 75 848 65Q818 51 809 20L761 -145Q756 -160 738 -163ZM58 -4H71Q74 19 87 29Q109 41 118 16L164 -145Q168 -161 144 -163V-175H269V-163Q253 -161 248 -145L200 20Q192 52 159 65Q133 75 100 68Q75 61 58 40ZM611 -724V-596H829V-685Q828 -723 790 -724ZM611 -273H790Q828 -274 829 -310V-402H611ZM611 -563V-435H829V-563ZM525 83Q469 83 443 80Q412 76 392 67Q337 42 338 -37V-150Q339 -176 315 -178V-190H450V-178Q426 -175 427 -150V-28Q425 44 495 50Q544 55 600 51Q665 46 703 33Q731 25 737 -7H749V42Q717 64 659 74Q609 83 525 83ZM317 -279Q315 -250 342 -247V-234H205V-247Q233 -249 232 -279V-637H107Q91 -636 86 -618H73V-688H86Q91 -669 107 -669H232V-737Q233 -769 205 -769V-781H344V-769Q316 -765 317 -737V-669H442Q460 -671 463 -688H476V-618H463Q459 -636 442 -637H317ZM525 -720Q524 -737 497 -744V-757H821Q872 -757 895 -736Q917 -717 916 -671V-323Q916 -280 894 -262Q873 -241 822 -241H497V-253Q523 -258 525 -279Z"/>
</svg>