<svg xmlns="http://www.w3.org/2000/svg" viewBox="0 -800 1024 1024">
	<path fill="#000000" d="M757 -757Q795 -757 814 -744Q832 -733 845 -700L921 -514Q928 -492 949 -489V-477H809V-489Q839 -495 832 -514L758 -694Q744 -724 711 -724H572L485 -514Q479 -495 508 -489V-477H368V-489Q388 -491 396 -514L481 -719Q488 -739 461 -745V-757ZM532 -30Q531 43 610 48Q657 52 728 46Q807 41 859 17Q913 -9 922 -54H934V7Q902 38 843 56Q787 73 718 79Q657 85 604 83Q528 82 492 59Q445 30 445 -43V-397Q447 -424 419 -425V-438H559V-425Q531 -421 532 -397V-218H682Q722 -218 735 -250L788 -375Q797 -394 769 -398V-410H911V-398Q891 -395 882 -375L831 -254Q814 -213 791 -200Q767 -183 713 -184H532ZM180 -737Q181 -767 152 -769V-781H294V-769Q266 -766 267 -737V-586H337Q354 -588 357 -605H370V-533H357Q353 -551 337 -552H267V-328L342 -356Q359 -363 362 -380H375V-303H362Q357 -322 342 -317L267 -289V-15Q267 36 235 63Q200 89 137 82Q87 72 58 33V-21H71Q85 33 125 41Q178 44 180 -3V-256L95 -224Q78 -215 75 -200H62V-278H75Q80 -257 95 -263L180 -295V-552H97Q81 -551 76 -533H63V-605H76Q81 -586 97 -586H180Z"/>
</svg>