<svg xmlns="http://www.w3.org/2000/svg" viewBox="0 -800 1024 1024">
	<path fill="#000000" d="M456 -781H582V-768Q560 -764 566 -751L604 -674Q611 -658 632 -658V-645H500V-658Q525 -661 519 -674L481 -752Q476 -766 456 -768ZM915 -611Q933 -613 936 -630H949V-559H936Q932 -577 915 -578H404Q388 -576 384 -559H371V-630H384Q388 -611 404 -611H689L755 -750Q761 -764 735 -768V-781H866V-768Q847 -765 840 -750L774 -611ZM59 -536H72Q76 -508 90 -499Q110 -488 119 -514L189 -724H108Q92 -723 87 -705H74V-775H87Q91 -757 108 -757H354Q372 -759 375 -775H388V-705H375Q370 -724 354 -724H274L204 -515Q194 -482 166 -465Q144 -453 111 -456Q79 -461 59 -481ZM175 42H240Q276 40 278 3V-353Q277 -390 240 -391H175ZM830 -104H923V-91Q903 -87 904 -68L915 41Q917 61 937 64V77H844V64Q864 62 862 41L860 27Q811 58 754 75Q710 87 685 70Q656 45 679 -4L791 -221Q753 -210 729 -209Q685 -206 671 -226Q655 -251 674 -291L771 -506Q777 -522 752 -526V-539H873V-526Q852 -525 844 -506L737 -273Q730 -257 734 -250Q738 -244 754 -245Q780 -247 807 -253L850 -336Q857 -353 833 -357V-370H946V-357Q931 -354 921 -336L743 14Q735 29 740 35Q746 41 764 36Q804 28 858 0L851 -68Q848 -89 830 -91ZM549 -104H641V-91Q620 -86 623 -68L634 41Q636 61 656 64V77H563V64Q583 62 581 41L579 27Q530 60 468 76Q428 86 403 70Q375 44 398 -4L509 -221Q471 -210 447 -209Q404 -205 390 -226Q375 -251 392 -291L490 -506Q496 -522 471 -526V-539H591V-526Q570 -525 562 -506L456 -273Q449 -257 453 -250Q457 -244 473 -245Q498 -247 525 -253L568 -336Q576 -353 552 -357V-370H665V-357Q649 -354 640 -336L462 14Q453 29 459 35Q464 41 482 37Q518 30 577 0L570 -68Q567 -89 549 -91ZM104 -385Q104 -406 78 -411V-423H255Q308 -423 329 -402Q349 -382 349 -341V-12Q349 30 329 50Q307 75 253 75H78V62Q103 58 104 35Z"/>
</svg>