<svg xmlns="http://www.w3.org/2000/svg" viewBox="0 -800 1024 1024">
	<path fill="#000000" d="M58 -682H148V-669Q127 -667 129 -650L145 -418Q145 -398 167 -397V-384H76V-397Q97 -399 95 -418L79 -650Q78 -668 58 -669ZM308 -397Q330 -398 330 -418L347 -650Q349 -667 328 -669V-682H418V-669Q398 -668 397 -650L380 -418Q379 -399 399 -397V-384H308ZM428 -546H441Q443 -526 458 -510Q483 -487 500 -519L594 -725H464Q448 -723 444 -706H431V-776H444Q447 -757 464 -757H915Q933 -759 936 -776H949V-706H936Q931 -725 915 -725H685L586 -506Q570 -474 537 -462Q502 -452 467 -466Q443 -476 428 -491ZM394 21Q400 46 417 40Q443 28 444 -3H457V51Q439 70 420 77Q385 89 357 76Q331 61 323 21L277 -238Q274 -254 264 -258L193 21Q185 53 160 71Q132 90 97 79Q76 74 58 51V-3H71Q74 27 86 38Q106 52 115 21L186 -260Q198 -307 198 -349V-738Q198 -768 169 -769V-781H307V-769Q278 -764 278 -738V-362Q278 -322 268 -275H369V-262Q344 -260 348 -238ZM584 40H782Q821 38 823 2V-353Q823 -389 782 -389H584ZM496 -387Q496 -406 471 -411V-424H817Q872 -424 893 -401Q911 -382 911 -342V-12Q911 30 891 50Q868 75 815 75H472V62Q495 58 496 35Z"/>
</svg>