<svg xmlns="http://www.w3.org/2000/svg" viewBox="0 -800 1024 1024">
	<path fill="#000000" d="M362 -101V-28H349Q343 -47 328 -44L92 26Q76 32 72 48H58V-25H72Q76 -4 92 -9L328 -78Q347 -87 349 -101ZM546 -308V-199H788V-308ZM546 -451V-341H788V-451ZM546 -166V-48L788 -60V-166ZM805 -617V-692Q805 -724 771 -724H538V-583H771Q803 -585 805 -617ZM404 -614V-601Q389 -598 379 -581L154 -229Q145 -215 150 -208Q154 -201 172 -202Q267 -204 332 -234Q367 -251 373 -283H385V-224Q272 -172 152 -166Q88 -165 77 -190Q64 -218 89 -260L218 -461Q177 -454 137 -452Q94 -451 79 -474Q62 -500 85 -542L206 -749Q212 -763 187 -768V-781H314V-768Q295 -763 287 -749L147 -513Q137 -491 160 -491Q184 -490 241 -496L295 -581Q300 -595 280 -601V-614ZM890 -693V-616Q890 -584 870 -569Q852 -552 810 -552H427V-564Q452 -569 453 -589V-720Q453 -738 427 -744V-757H809Q853 -757 872 -739Q890 -723 890 -693ZM901 63V76H760V63Q789 59 788 32V-27L413 -9Q396 -6 392 10H380V-61H392Q397 -40 413 -42L462 -44V-451H429Q413 -450 408 -432H396V-502H408Q413 -483 429 -483H904Q922 -484 925 -502H938V-432H925Q921 -450 904 -451H873V-64L914 -66Q932 -67 935 -85H948V-14H935Q931 -32 914 -33L873 -31V32Q871 59 901 63Z"/>
</svg>