<svg xmlns="http://www.w3.org/2000/svg" viewBox="0 -800 1024 1024">
	<path fill="#000000" d="M63 -653H153V-640Q132 -639 135 -620L151 -459Q151 -443 174 -439V-426H82V-439Q103 -441 101 -459L84 -620Q85 -640 63 -640ZM58 -176H71Q72 -155 80 -141Q87 -134 93 -138Q99 -143 99 -157L105 -339Q106 -358 86 -361V-373H173V-361Q155 -358 154 -340L148 -157Q146 -128 128 -112Q107 -96 83 -108Q70 -114 58 -131ZM525 33H904Q921 31 924 14H937V83H924Q920 65 904 64H409V51Q433 46 434 26V-212H373Q358 -210 353 -193H340V-264H353Q357 -244 373 -245H434V-485Q433 -505 409 -509V-522H897Q915 -523 918 -541H931V-470H918Q913 -489 897 -489H525V-245H915Q933 -247 936 -264H949V-193H936Q931 -212 915 -212H525ZM915 -686Q933 -688 936 -705H949V-634H936Q932 -652 915 -653H292V1Q291 55 239 76Q191 92 139 73Q116 63 92 41V-12H105Q116 32 157 42Q200 45 202 6V-645Q202 -670 177 -673V-686H531V-743Q532 -767 503 -769V-781H647V-769Q618 -766 619 -743V-686Z"/>
</svg>