<svg xmlns="http://www.w3.org/2000/svg" viewBox="0 -800 1024 1024">
	<path fill="#000000" d="M368 -104H517V-91Q492 -87 500 -73L573 4Q589 19 606 23V35H455V23Q483 20 476 4L401 -75Q387 -88 368 -91ZM502 -667H515Q516 -638 536 -635Q552 -634 563 -654L610 -750Q617 -765 591 -768V-781H728V-768Q706 -764 699 -750L690 -733H915Q933 -735 936 -752H949V-681H936Q932 -699 915 -700H824L866 -625Q876 -607 902 -602V-589H765V-602Q797 -604 784 -625L740 -700H674L647 -647Q632 -617 606 -605Q578 -592 545 -599Q515 -606 502 -626ZM58 -657H71Q72 -632 92 -623Q112 -618 123 -639L171 -750Q177 -766 151 -768V-781H289V-768Q266 -764 260 -750L252 -733H483Q501 -735 504 -752H517V-682H504Q500 -700 483 -700H387L425 -638Q437 -619 461 -615V-603H324V-615Q357 -618 343 -638L303 -700H238L208 -633Q194 -603 167 -590Q142 -579 106 -585Q71 -592 58 -612ZM249 13Q234 52 205 70Q169 93 128 80Q97 70 71 50V0H84Q94 34 117 44Q143 50 157 17L275 -270H105Q90 -268 85 -251H72V-320H85Q89 -300 105 -301H287L320 -380H147Q131 -378 127 -361H114V-430H127Q130 -411 147 -411H333L365 -489H122Q106 -488 101 -470H88V-539H101Q106 -520 122 -520H377L388 -545Q395 -561 369 -566V-579H512V-566Q488 -561 480 -545L469 -520H886Q904 -522 907 -539H920V-470H907Q903 -488 886 -489H457L424 -411H860Q878 -413 880 -430H893V-361H880Q877 -379 860 -380H411L379 -301H902Q919 -303 922 -320H935V-251H922Q918 -269 902 -270H366L329 -182H746V-196Q746 -222 721 -223V-236H859V-223Q835 -218 834 -196V-182H916Q934 -184 937 -200H949V-130H937Q933 -148 916 -149H834V-8Q834 48 794 70Q751 90 701 80Q669 73 643 50V0H656Q667 42 709 47Q744 45 746 6V-149H316Z"/>
</svg>