<svg xmlns="http://www.w3.org/2000/svg" viewBox="0 -800 1024 1024">
	<path fill="#000000" d="M457 -470H470Q475 -447 481 -438Q489 -427 497 -430Q504 -432 511 -447L541 -511Q547 -526 521 -532V-544H651V-532Q632 -528 625 -511L609 -476H903Q920 -478 923 -495H936V-424H923Q917 -443 903 -443H594Q579 -411 548 -401Q520 -387 492 -398Q472 -405 457 -424ZM502 -640H515Q515 -614 535 -608Q552 -606 562 -626L610 -750Q616 -766 591 -768V-781H727V-768Q703 -765 697 -750L684 -717H915Q933 -719 936 -736H949V-665H936Q932 -683 915 -684H826L866 -613Q875 -595 902 -590V-577H765V-590Q797 -592 784 -613L743 -684H671L646 -620Q636 -594 610 -579Q582 -564 548 -572Q519 -578 502 -602ZM58 -645H71Q72 -620 92 -611Q112 -605 123 -627L171 -750Q177 -766 151 -768V-781H287V-768Q264 -764 258 -750L245 -717H483Q501 -719 504 -736H517V-665H504Q500 -683 483 -684H386L424 -613Q433 -595 460 -590V-577H323V-590Q355 -592 342 -613L304 -684H232L207 -620Q194 -590 166 -577Q139 -566 105 -572Q71 -579 58 -599ZM452 -284H465Q468 -258 476 -250Q494 -233 505 -260L535 -338Q540 -353 515 -358V-371H638V-358Q616 -353 612 -338L607 -325H883Q901 -327 903 -344H916V-273H903Q899 -291 883 -292H749V-169H908Q925 -171 928 -188H941V-117H928Q923 -135 908 -136H746Q743 -127 739 -121L710 -85H816V-72Q790 -66 798 -54L862 22Q888 50 910 41Q930 30 936 -9H949V46Q928 69 900 79Q870 89 840 77Q809 67 778 30L705 -57Q704 -58 703 -59Q698 -65 695 -66L619 28Q589 66 570 73Q540 90 502 82Q463 73 441 47V-8H454Q463 27 483 41Q505 55 532 22L655 -133Q657 -134 657 -136H497Q481 -135 476 -117H464V-188H476Q481 -169 497 -169H663V-292H594L581 -257Q567 -223 542 -212Q515 -198 484 -212Q466 -220 452 -238ZM331 -235Q332 -265 298 -264H224V8Q224 46 201 66Q170 89 122 82Q90 77 59 49V-4H72Q80 28 103 43Q139 55 141 21V-404H102Q86 -403 82 -388H69V-459H82Q86 -439 102 -440H217V-501Q218 -530 189 -532V-544H330V-532Q301 -526 302 -501V-440H406Q424 -441 427 -459H440V-388H427Q424 -404 406 -404H224V-300H321Q369 -301 389 -285Q409 -270 409 -228V7Q409 49 381 70Q349 91 303 81Q265 70 248 49V-4H261Q267 30 294 43Q329 57 331 20Z"/>
</svg>