<svg xmlns="http://www.w3.org/2000/svg" viewBox="0 -800 1024 1024">
	<path fill="#000000" d="M323 -519Q340 -521 342 -536L363 -701Q366 -717 349 -719V-732H431V-719Q411 -717 411 -701L391 -537Q388 -520 407 -520V-506H323ZM71 -732H152V-719Q135 -718 138 -701L158 -536Q159 -521 177 -519V-506H93V-520Q113 -520 109 -537L89 -701Q86 -717 71 -719ZM425 -20Q426 -7 442 -5V8H358V-5Q377 -8 375 -21L347 -322Q345 -336 328 -339V-352H413V-339Q395 -336 396 -322ZM103 -322Q104 -336 86 -339V-352H171V-339Q155 -336 153 -322L124 -21Q122 -8 141 -5V8H58V-5Q74 -7 74 -20ZM560 -724V-326H664V-724ZM794 -724H730V-326H794Q833 -329 836 -368V-684Q835 -723 794 -724ZM289 38Q287 60 310 63V76H190V63Q213 61 211 38V-412H106Q91 -410 86 -393H73V-464H86Q90 -445 106 -446H211V-743Q213 -766 190 -768V-781H310V-768Q287 -766 289 -743V-446H388Q405 -447 407 -464H420V-393H407Q403 -411 387 -412H289ZM560 -40Q559 22 621 41Q675 57 753 47Q821 38 870 14Q926 -13 936 -64H949V1Q904 43 838 66Q763 91 644 85Q555 80 518 48Q480 16 480 -50V-716Q479 -739 455 -744V-757H820Q874 -757 896 -735Q914 -713 913 -677V-380Q913 -336 892 -317Q869 -292 818 -292H560Z"/>
</svg>