<svg xmlns="http://www.w3.org/2000/svg" viewBox="0 -800 1024 1024">
	<path fill="#000000" d="M758 -617Q775 -619 778 -636H791V-566H778Q772 -585 758 -585H441Q426 -583 421 -566H408V-636H421Q426 -617 441 -617ZM276 -420H364V-407Q346 -404 348 -391L360 -224Q362 -209 379 -213Q394 -221 398 -248H409V-202Q397 -188 380 -182Q357 -174 337 -182Q310 -190 307 -223L294 -391Q294 -404 276 -406ZM526 -110H638Q673 -112 675 -150V-410Q674 -446 638 -447H526ZM269 -604Q277 -623 258 -625H107Q91 -623 87 -606H74V-676H87Q90 -657 107 -657H167V-738Q168 -761 139 -768V-781H279V-768Q252 -763 251 -738V-657H305Q343 -657 352 -635Q362 -613 349 -588L245 -404V32Q243 57 273 63V76H132V63Q160 59 160 32V-314Q149 -312 140 -312Q89 -313 58 -345V-399H71Q77 -366 101 -356Q123 -348 138 -372ZM845 -673Q845 -724 791 -724H462Q446 -723 442 -705H429V-776H442Q445 -759 462 -757H824Q887 -758 911 -732Q932 -711 932 -668V-22Q932 37 889 62Q849 88 780 84Q690 76 636 38V-18H649Q664 25 716 41Q770 56 806 48Q844 37 845 -2ZM449 -445Q450 -463 426 -467V-480H666Q717 -480 736 -459Q754 -441 754 -405V-158Q754 -117 732 -99Q711 -78 664 -78H426V-90Q448 -94 449 -115Z"/>
</svg>