<svg xmlns="http://www.w3.org/2000/svg" viewBox="0 -800 1024 1024">
	<path fill="#000000" d="M113 -689Q114 -716 90 -719V-732H214V-719Q191 -714 191 -689V-493H284V-740Q285 -769 260 -769V-781H378V-769Q353 -764 354 -740V-493H392Q410 -495 413 -512H426V-441H413Q409 -459 392 -460H191V-348H303Q344 -348 359 -330Q374 -314 373 -281V38Q373 59 398 62V75H277V62Q301 57 301 38V-285Q302 -315 269 -315H191V11Q191 45 173 65Q150 88 116 83Q86 76 58 47V-8H71Q76 19 86 32Q94 43 103 40Q112 35 113 20ZM549 -8Q549 38 525 62Q498 88 462 82Q425 76 399 41V-10H412Q418 25 442 37Q464 41 467 9V-668Q468 -693 441 -698V-711H757Q787 -712 804 -731L821 -752Q828 -764 801 -769V-781H945V-769Q928 -765 919 -754L889 -714Q873 -693 852 -687Q828 -679 800 -679H549V-532H844Q896 -532 911 -496Q920 -470 904 -434L790 -174L892 26Q904 49 918 35Q929 23 936 -10H949V41Q936 62 920 71Q895 89 865 79Q835 69 818 37L753 -90L700 32Q688 61 666 73Q635 90 603 76Q579 65 564 41V-10H577Q584 24 596 34Q611 48 623 22L710 -176L607 -380Q596 -399 575 -403V-415H701V-403Q675 -399 685 -380L746 -259L833 -456Q847 -496 814 -498H549Z"/>
</svg>