<svg xmlns="http://www.w3.org/2000/svg" viewBox="0 -800 1024 1024">
	<path fill="#000000" d="M332 -102V-29H320Q315 -48 299 -44L92 16Q76 23 72 37H58V-36H72Q76 -15 92 -20L299 -80Q318 -87 320 -102ZM428 -662V-569H554V-626Q553 -661 517 -662ZM554 -482V-536H428V-442H517Q553 -443 554 -482ZM623 -138V9Q623 42 607 64Q588 85 551 84Q514 80 491 45V-5H503Q510 35 529 42Q557 53 558 16V-146Q558 -176 526 -176H456V12Q456 46 436 65Q413 88 376 83Q345 77 322 48V-5H335Q342 30 359 42Q384 52 385 19V-280H357Q344 -279 339 -261H327V-331H339Q344 -312 357 -312H453V-349Q454 -369 429 -370V-384H552V-370Q526 -369 528 -349V-312H616Q633 -314 637 -331H650V-261H637Q633 -279 616 -280H456V-209H538Q583 -209 603 -193Q623 -176 623 -138ZM799 -781V-767Q774 -763 772 -747L763 -626H911Q929 -628 932 -645H944V-574H932Q928 -592 911 -593H900V-336Q901 -290 884 -253L827 -115L891 22Q904 48 919 35Q933 21 936 -4H949V48Q939 68 927 75Q911 87 882 83Q847 77 830 38L794 -37L763 38Q752 62 733 75Q707 91 679 79Q659 70 646 48V-4H658Q664 21 675 35Q689 49 700 24L758 -115L693 -253Q674 -293 675 -334V-407Q674 -425 655 -427V-440H765V-427Q744 -425 743 -407V-323Q743 -294 753 -274L790 -193L824 -274Q833 -291 832 -324V-593H761L757 -533Q755 -497 729 -480Q711 -468 683 -473Q659 -480 644 -500V-549H656Q661 -521 671 -515Q688 -508 692 -534L706 -747Q708 -762 682 -767V-781ZM624 -616V-495Q624 -452 605 -432Q586 -410 534 -410H335V-423Q358 -426 358 -450V-596Q348 -592 342 -581L148 -229Q140 -215 144 -208Q148 -200 163 -202Q231 -206 273 -233Q302 -254 305 -282H317V-223Q240 -170 147 -166Q89 -165 77 -190Q65 -216 89 -260L198 -458Q172 -452 147 -450Q99 -447 80 -469Q62 -493 83 -545L176 -749Q180 -763 157 -768V-781H276V-768Q255 -765 249 -749L139 -509Q131 -489 155 -488Q177 -487 219 -494L267 -581Q272 -596 252 -600V-613H358V-656Q359 -677 335 -682V-695H440L456 -743Q465 -765 436 -767V-781H563V-767Q539 -766 533 -743L517 -695H536Q587 -695 608 -672Q624 -652 624 -616Z"/>
</svg>