<svg xmlns="http://www.w3.org/2000/svg" viewBox="0 -800 1024 1024">
	<path fill="#000000" d="M156 -506V-349H245V-506ZM349 -506H294V-349H387V-468Q386 -505 349 -506ZM422 -31Q441 -35 443 -52H456V17H442Q439 2 418 4L93 53Q77 58 72 76H59V5H72Q75 23 93 20ZM156 -147H245V-316H156ZM349 -147Q385 -148 387 -187V-316H294V-147ZM539 -387Q541 -402 524 -404V-417H611V-404Q596 -400 595 -387L579 -67Q577 -40 560 -27Q541 -12 514 -16Q492 -18 472 -33V-80H485Q488 -58 504 -49Q521 -45 523 -64ZM899 -64Q901 -45 918 -49Q933 -57 936 -80H949V-33Q931 -18 909 -16Q881 -12 862 -27Q845 -40 843 -67L826 -387Q825 -400 811 -404V-417H898V-404Q881 -402 883 -387ZM545 -669Q529 -668 524 -650H511V-721H524Q527 -702 545 -702H764Q784 -702 792 -716L811 -751Q817 -765 793 -768V-781H932V-768Q913 -765 904 -750L882 -710Q870 -686 850 -676Q835 -669 802 -669H753V-526H900Q918 -527 920 -544H933V-472H920Q917 -491 899 -492H753V29Q752 57 782 62V76H641V62Q669 57 669 29V-492H523Q507 -491 502 -473H489V-544H502Q506 -525 523 -526H669V-669ZM84 -500Q84 -521 59 -525V-538H276L311 -655Q315 -670 298 -670H202L183 -607Q169 -563 117 -566Q82 -568 59 -589V-639H72Q77 -613 86 -604Q102 -593 109 -612L150 -751Q154 -765 130 -768V-781H252V-768Q231 -767 226 -751L212 -705H327Q364 -705 379 -687Q393 -671 385 -644L353 -538H361Q417 -538 440 -516Q459 -496 459 -459V-202Q459 -159 439 -138Q421 -113 365 -114H59V-127Q83 -131 84 -154Z"/>
</svg>