<svg xmlns="http://www.w3.org/2000/svg" viewBox="0 -800 1024 1024">
	<path fill="#000000" d="M926 -76V-75Q926 -62 905 -62V-64Q907 -76 919 -78Q924 -78 926 -76ZM796 -644V-646Q797 -659 812 -661Q814 -661 820 -659Q818 -653 806 -649Q798 -646 796 -644ZM32 -113V-114Q33 -117 34 -120V-122Q50 -120 50 -107Q50 -103 49 -101Q43 -102 32 -113ZM680 -476Q690 -466 691 -449Q674 -447 671 -446Q666 -443 666 -432Q666 -427 667 -424Q685 -432 705 -438Q710 -438 714 -435Q704 -427 684 -421Q664 -414 662 -401V-398H664Q690 -403 712 -416Q727 -421 742 -424Q757 -428 766 -436Q764 -442 753 -442Q738 -440 722 -439H720V-440Q720 -453 750 -456Q762 -460 776 -466Q791 -473 805 -474Q816 -474 822 -469Q805 -466 794 -454Q796 -451 799 -449H801Q814 -451 827 -454Q826 -452 820 -448Q813 -443 813 -439V-437H814Q820 -438 825 -440Q828 -440 830 -438Q826 -435 826 -432Q834 -411 848 -391Q843 -388 843 -383Q843 -379 849 -369Q854 -361 854 -356V-353Q854 -347 849 -339Q844 -330 843 -326Q735 -311 634 -263Q650 -251 659 -234V-231Q658 -221 652 -213Q646 -206 642 -198Q627 -191 602 -179Q577 -168 565 -158Q573 -154 599 -160Q625 -165 634 -163Q639 -172 655 -191Q678 -218 683 -234Q685 -242 687 -251Q689 -260 698 -266H705Q718 -269 733 -275Q740 -274 745 -266Q751 -268 756 -270H759V-268Q759 -264 758 -260Q758 -257 760 -255Q775 -259 790 -264Q780 -254 784 -236Q784 -228 792 -223Q785 -219 785 -204Q785 -195 782 -190Q777 -182 767 -177Q757 -173 750 -168Q689 -114 673 -89Q626 -26 581 36Q590 34 599 32Q607 25 627 -4Q661 -54 674 -60Q678 -73 687 -82Q695 -90 704 -98Q712 -112 733 -127Q741 -133 768 -148V-146Q768 -144 765 -135L764 -134L766 -133H767L769 -132Q770 -125 776 -114Q783 -101 783 -95Q787 -73 778 -54Q786 -44 798 -42Q809 -40 824 -34Q846 -40 861 -49Q867 -55 879 -58Q875 -52 869 -47Q862 -43 861 -34Q869 -36 880 -46Q892 -58 901 -60L902 -58Q899 -52 889 -49Q879 -32 879 -24Q879 -16 886 -13Q889 -13 920 -35Q937 -52 953 -58Q949 -51 925 -28Q903 -7 903 4Q903 13 913 22Q925 16 935 16V18Q931 25 920 34Q927 57 930 76Q930 88 923 98Q900 104 883 113Q863 111 846 107Q828 104 825 91Q855 100 864 100Q873 100 880 96Q873 86 859 82Q844 79 831 72Q818 65 801 45Q777 18 757 11L756 14Q756 21 771 41Q781 55 793 65Q796 69 800 71Q804 73 804 77V79H801Q788 79 777 65Q764 48 750 30Q742 15 731 5Q722 11 698 39Q673 68 673 78Q673 84 674 87Q660 94 649 102Q641 99 632 96Q628 96 625 97Q625 94 610 86Q594 77 593 73Q593 71 592 68Q593 61 593 54Q593 44 584 42Q582 42 579 41Q573 41 568 47Q567 49 562 58Q556 54 556 50Q559 41 566 33Q580 12 606 -25Q633 -63 643 -86Q635 -85 631 -79Q627 -74 623 -69Q582 -27 542 18Q515 53 510 59Q501 68 492 77Q484 86 483 97V101Q497 98 511 82Q525 66 538 63Q534 75 520 90Q502 110 499 123Q496 124 493 124Q485 124 477 123Q471 124 465 124Q449 115 441 114Q434 88 408 85Q406 70 400 70H399Q403 61 412 54Q408 35 404 16Q404 10 405 7Q409 10 411 20Q414 33 421 35Q416 -10 397 -53Q408 -45 420 -20Q433 8 447 16Q462 11 471 1Q480 -9 489 -17Q527 -49 549 -81Q526 -79 496 -75Q452 -75 438 -72Q434 -80 436 -103Q439 -132 429 -139Q442 -145 454 -164Q480 -169 500 -187Q513 -199 531 -223Q523 -223 506 -212Q483 -198 470 -198Q459 -194 448 -190Q433 -196 413 -204Q394 -213 389 -228V-230Q393 -241 396 -253L395 -256Q394 -260 388 -266Q375 -248 375 -225Q375 -212 380 -205Q338 -186 317 -146Q295 -102 268 -63Q266 -71 266 -74Q270 -95 278 -113Q257 -100 246 -75Q236 -51 222 -26Q201 6 189 34Q194 43 194 45Q207 31 218 13Q229 -4 247 -13Q221 42 194 97Q190 99 187 99Q183 99 174 93Q167 88 161 87Q151 85 146 85Q127 87 107 88H103Q96 53 68 24V17Q68 2 62 -18H67Q72 -18 73 -20Q69 -36 62 -52Q56 -67 55 -84V-90Q70 -50 82 -38Q81 -60 66 -99Q51 -137 49 -159Q84 -105 112 -53Q124 -58 140 -76Q157 -93 168 -99Q163 -107 158 -116Q133 -116 133 -144Q133 -160 139 -174Q132 -186 124 -198H126Q131 -196 135 -195H136Q139 -195 141 -198Q144 -202 148 -202Q154 -201 159 -201Q176 -201 207 -212Q228 -220 243 -222Q215 -234 200 -248Q199 -248 186 -240L185 -242Q189 -247 192 -252Q187 -259 182 -266Q176 -274 169 -275Q165 -275 160 -270Q168 -292 170 -296Q169 -303 159 -303Q154 -302 149 -302Q140 -302 138 -308Q151 -308 173 -312V-313Q171 -320 168 -327Q179 -322 192 -320Q195 -320 197 -321Q198 -322 198 -326V-335Q198 -339 200 -340Q203 -339 206 -332Q208 -328 210 -326Q234 -322 254 -302Q275 -281 275 -257Q275 -244 269 -234Q311 -256 337 -295Q363 -333 389 -371Q373 -370 357 -361Q351 -358 330 -342Q301 -318 281 -318Q270 -318 262 -326Q256 -336 250 -347Q245 -353 230 -362Q214 -372 209 -378Q198 -394 198 -430Q198 -477 212 -491Q246 -514 277 -540Q308 -566 350 -581Q328 -567 323 -562Q311 -550 308 -531Q309 -528 319 -527Q327 -527 329 -525Q350 -532 408 -542Q483 -554 515 -572Q516 -577 516 -586Q515 -616 499 -630Q483 -645 465 -659L461 -660Q459 -659 456 -659L454 -660Q459 -668 463 -677V-678Q463 -681 459 -682Q455 -683 454 -684Q455 -730 488 -754Q512 -771 564 -783Q585 -776 596 -767Q611 -755 614 -736H616Q620 -737 623 -738L626 -737Q625 -735 625 -732Q628 -721 639 -716H641Q646 -717 651 -719Q646 -706 646 -704Q647 -701 647 -699Q637 -702 619 -718Q596 -738 583 -738Q581 -738 573 -736Q584 -719 596 -704Q609 -688 614 -667Q615 -664 615 -662Q615 -659 614 -657Q614 -649 621 -647Q640 -662 641 -689Q653 -681 653 -669Q653 -659 636 -636Q616 -609 616 -594V-593Q663 -602 704 -615Q745 -628 787 -641Q785 -635 785 -632Q785 -623 793 -620Q815 -628 842 -632H848Q839 -626 829 -621Q819 -615 814 -605Q825 -608 835 -611Q839 -611 842 -608Q821 -603 817 -582Q817 -578 820 -572H823Q829 -573 835 -575Q825 -567 825 -551Q827 -544 828 -538Q828 -525 822 -518Q809 -501 784 -497Q760 -494 734 -488Q707 -482 680 -476ZM526 -431Q467 -387 447 -337Q438 -328 434 -323Q461 -327 545 -357L590 -372Q583 -375 573 -375Q565 -375 556 -375Q516 -364 512 -364L511 -365Q514 -371 523 -375Q529 -379 533 -383Q536 -387 545 -391V-402Q545 -408 543 -409Q541 -410 531 -410H530Q523 -408 517 -403V-405Q517 -408 522 -416Q527 -423 527 -428Z"/>
</svg>