<svg xmlns="http://www.w3.org/2000/svg" viewBox="0 -800 1024 1024">
	<path fill="#000000" d="M390 -68V3H377Q372 -16 356 -12L83 55Q66 61 62 77H49V6H62Q66 27 83 23L356 -45Q374 -52 377 -68ZM949 14V84H936Q932 66 915 65H455Q439 66 434 84H422V14H434Q439 33 455 33H640V-236H484Q468 -235 463 -217H450V-288H463Q468 -269 484 -269H887Q904 -271 907 -288H920V-217H907Q901 -236 887 -236H728V33H915Q933 31 936 14ZM849 -718Q856 -687 832 -658L718 -525H805V-510Q785 -506 791 -492L873 -380Q894 -355 920 -367Q933 -376 936 -405H949V-348Q928 -333 905 -327Q878 -322 853 -329Q817 -339 797 -367L704 -492L697 -500L582 -365Q558 -336 526 -329Q496 -320 464 -328Q437 -333 416 -348V-405H429Q435 -377 450 -367Q476 -357 500 -383L759 -685Q777 -718 746 -724H480Q464 -723 459 -705H447V-776H459Q464 -757 480 -757H787Q837 -756 849 -718ZM456 -626V-614Q440 -613 427 -593L159 -229Q149 -216 155 -209Q160 -203 180 -202Q273 -208 335 -232Q374 -250 377 -277H389V-222Q356 -203 271 -182Q195 -166 147 -167Q96 -167 81 -189Q60 -216 90 -257L247 -469Q181 -456 137 -454Q92 -451 78 -478Q62 -511 86 -545L238 -749Q245 -762 220 -768V-781H354V-768Q335 -764 325 -749L151 -515Q140 -496 162 -493Q208 -494 274 -505L339 -593Q344 -608 326 -614V-626Z"/>
</svg>