<svg xmlns="http://www.w3.org/2000/svg" viewBox="0 -800 1024 1024">
	<path fill="#000000" d="M369 -102V-29H356Q352 -48 335 -44L92 16Q77 21 72 37H58V-36H72Q76 -16 92 -20L335 -80Q355 -87 356 -102ZM636 -63V-50Q615 -51 605 -35L553 42Q528 81 472 85Q438 86 409 73Q390 66 380 53V11H393Q396 43 423 50Q450 53 461 37L509 -34Q517 -49 492 -50V-63ZM949 11V53Q939 67 921 73Q894 86 857 85Q801 80 775 42L723 -35Q714 -51 693 -50V-63H836V-50Q811 -49 819 -34L867 37Q879 53 906 50Q932 44 936 11ZM531 -555V-473H807V-517Q806 -554 767 -555ZM531 -441V-359H807V-441ZM531 -327V-244H807V-327ZM531 -213V-130H807V-213ZM424 -617V-604Q410 -602 397 -584L158 -229Q149 -215 152 -209Q156 -203 174 -202Q259 -204 330 -233Q365 -251 370 -282H382V-223Q275 -175 152 -166Q89 -165 76 -190Q63 -219 89 -260L224 -460Q176 -451 136 -449Q96 -448 78 -470Q61 -499 85 -539L217 -749Q224 -762 199 -768V-781H329V-768Q312 -764 301 -749L149 -509Q137 -491 163 -488Q195 -487 249 -496L308 -584Q313 -598 293 -604V-617ZM946 -149V-78H933Q928 -97 912 -97H418Q402 -96 397 -78H384V-149H397Q402 -130 418 -130H447V-552Q448 -572 424 -575V-588H605L619 -661H424Q408 -660 403 -642H391V-713H403Q408 -694 424 -694H625L634 -739Q639 -764 611 -768V-781H748V-768Q723 -764 719 -739L710 -694H903Q921 -696 924 -713H937V-642H924Q919 -661 903 -661H704L690 -588H797Q852 -588 873 -565Q891 -544 891 -506V-130H912Q930 -132 933 -149Z"/>
</svg>