<svg xmlns="http://www.w3.org/2000/svg" viewBox="0 -800 1024 1024">
	<path fill="#000000" d="M179 -107Q176 -76 154 -59Q134 -44 103 -50Q81 -54 59 -74V-126H72Q78 -89 93 -83Q113 -82 117 -110L135 -370Q137 -388 114 -391V-404H220V-391Q198 -387 198 -373ZM536 -722V-611H822V-686Q822 -722 782 -722ZM782 -464Q820 -466 822 -504V-578H536V-464ZM637 -344Q638 -376 610 -376V-389H752V-376Q726 -373 726 -344V-287H898Q916 -288 919 -306H932V-236H918Q915 -254 898 -255H726V-128H875Q893 -129 896 -147H909V-77H896Q892 -95 875 -96H726V32H914Q932 31 935 13H948V83H935Q931 65 914 64H433Q417 66 413 83H400V13H413Q417 32 433 32H637V-96H472Q456 -94 452 -77H439V-147H452Q457 -128 472 -128H637V-255H517L509 -211Q504 -181 481 -169Q459 -157 427 -165Q403 -170 387 -189V-234H399Q402 -213 413 -205Q429 -192 435 -211L456 -328Q458 -344 436 -348V-361H554V-348Q533 -343 530 -329L522 -287H637ZM227 -504Q208 -474 176 -462Q146 -450 108 -460Q75 -467 58 -487V-538H71Q75 -501 104 -492Q134 -485 153 -511L203 -587L98 -746Q85 -770 66 -769V-781H206V-769Q175 -763 187 -746L248 -654L312 -749Q321 -763 295 -769V-781H420V-769Q402 -765 391 -749L288 -595L334 -528Q352 -503 352 -450V-17Q352 38 317 62Q290 86 215 83Q159 79 125 42V-9H137Q143 31 180 44Q220 54 244 40Q265 28 266 -6V-459Q265 -492 254 -511L243 -527ZM816 -758Q867 -758 890 -735Q908 -716 908 -675V-518Q908 -473 886 -453Q861 -428 812 -428H423V-443Q449 -447 450 -470V-720Q449 -741 427 -745V-758Z"/>
</svg>