<svg xmlns="http://www.w3.org/2000/svg" viewBox="0 -800 1024 1024">
	<path fill="#000000" d="M685 -98H815V-85Q792 -83 799 -70L826 -22Q835 -5 859 -4V9H720V-4Q750 -6 742 -22L714 -70Q707 -85 685 -85ZM58 -447H71Q76 -415 107 -407Q141 -403 157 -426L223 -535Q230 -548 205 -550V-563H345V-550Q326 -549 318 -536L240 -407Q225 -381 186 -371Q148 -363 108 -374Q80 -382 58 -401ZM662 -563H802V-550Q777 -548 784 -535L850 -426Q866 -403 900 -407Q931 -415 936 -447H949V-401Q929 -383 899 -374Q859 -363 821 -371Q782 -381 767 -407L689 -536Q681 -549 662 -550ZM324 -433H336Q348 -386 403 -384Q456 -387 458 -437V-606Q458 -633 430 -635V-648H577V-635Q549 -631 549 -606V-446Q549 -376 491 -353Q452 -338 396 -349Q347 -359 324 -383ZM58 -667H71Q72 -636 100 -625Q125 -617 139 -645L194 -749Q200 -764 173 -769V-781H315V-768Q295 -766 286 -750L270 -720H840Q884 -720 903 -704Q918 -692 918 -660V-624Q918 -599 936 -598V-585H809V-598Q830 -598 829 -624V-657Q831 -684 804 -682H251L226 -634Q208 -603 177 -591Q144 -580 103 -589Q78 -595 58 -612ZM915 32Q933 30 936 13H949V83H936Q933 66 916 66H92Q75 67 71 83H58V13H71Q76 32 92 32H459V-120H140Q124 -118 120 -101H107V-172H120Q123 -153 140 -153H459V-273H109Q93 -272 88 -254H75V-325H88Q93 -306 109 -306H898Q916 -308 919 -325H932V-254H919Q915 -272 898 -273H552V-153H868Q886 -155 889 -172H901V-101H889Q885 -119 868 -120H552V32Z"/>
</svg>