<svg xmlns="http://www.w3.org/2000/svg" viewBox="0 -800 1024 1024">
	<path fill="#000000" d="M344 -423Q363 -424 365 -438L378 -559Q381 -571 362 -574V-587H440V-574Q420 -573 418 -559L405 -438Q402 -424 420 -423V-411H344ZM171 -587H249V-574Q230 -571 233 -559L246 -438Q247 -424 266 -423V-411H191V-423Q209 -424 206 -438L192 -559Q191 -573 171 -574ZM111 -781H243V-769Q217 -763 224 -748L238 -719Q247 -701 267 -699V-686H134V-699Q163 -704 157 -719L143 -748Q135 -764 111 -769ZM759 -120Q757 -100 779 -97V-84H690V-97Q713 -100 711 -120L705 -389Q707 -412 685 -412V-425H774V-412Q753 -409 754 -389ZM193 42H378Q415 40 417 2V-74H193ZM193 -228V-110H417V-190Q417 -228 378 -228ZM416 -363Q452 -365 455 -406V-594Q454 -631 416 -632H331V-363ZM156 -632V-363H280V-632ZM409 -261Q463 -261 484 -238Q502 -219 502 -179V-12Q502 31 483 50Q461 75 406 75H83V62Q108 58 109 37V-224Q108 -244 83 -248V-261ZM630 1Q627 39 659 42Q685 43 717 15Q737 -6 743 -32H756V24Q728 62 665 78Q608 91 579 67Q552 45 556 -8L603 -722H578Q560 -721 556 -706H544V-776H556Q561 -758 578 -758H913Q931 -760 934 -776H947V-706H934Q930 -722 913 -722H678L667 -564H823Q875 -564 893 -544Q911 -526 909 -485L878 8Q877 30 885 35Q894 41 910 28Q930 10 936 -31H948V26Q936 58 899 74Q856 94 830 68Q805 43 808 -3L837 -494Q840 -531 801 -531H665ZM438 -665Q491 -665 512 -642Q530 -623 530 -583V-418Q530 -376 510 -356Q489 -332 434 -332H58V-344Q80 -347 81 -369V-628Q81 -649 58 -652V-665H344L387 -748Q393 -764 370 -769V-781H500V-769Q476 -764 468 -748L426 -665Z"/>
</svg>