<svg xmlns="http://www.w3.org/2000/svg" viewBox="0 -800 1024 1024">
	<path fill="#000000" d="M352 -79V-7H339Q333 -27 318 -23L83 44Q66 50 63 66H49V-5H62Q66 16 83 11L318 -56Q336 -63 339 -79ZM762 -725V-435H825Q862 -438 865 -477V-687Q864 -724 827 -725ZM837 -405H762V-97H826Q863 -98 865 -135V-358Q866 -391 841 -405ZM381 -573V-560Q367 -557 355 -540L150 -229Q141 -215 145 -209Q149 -203 168 -202Q216 -201 284 -230Q320 -249 326 -280H338V-222Q306 -201 256 -185Q197 -166 150 -166Q90 -165 78 -187Q62 -214 89 -260L220 -458Q175 -449 135 -447Q94 -444 77 -470Q59 -501 82 -541L212 -749Q218 -763 193 -768V-781H321V-768Q303 -763 294 -749L140 -508Q130 -489 156 -485Q179 -484 243 -493L274 -540Q279 -554 259 -560V-573ZM585 -781V-768Q557 -764 557 -736V-644H620Q638 -646 640 -663H653V-592H640Q637 -610 620 -611H557V-423H605Q623 -425 625 -442H638V-371H625Q622 -389 605 -390H557V-200H622Q640 -202 643 -219H655V-149H643Q638 -168 622 -168H557V-2Q556 48 521 71Q483 93 434 80Q397 71 374 46V-6H387Q393 19 413 33Q434 46 454 41Q473 33 474 6V-168H409Q394 -166 389 -149H376V-219H389Q393 -199 409 -200H474V-390H427Q411 -389 406 -371H393V-442H406Q411 -423 427 -423H474V-611H412Q396 -610 391 -592H378V-663H391Q396 -644 412 -644H474V-736Q474 -765 446 -768V-781ZM932 -344V-148Q932 -104 910 -85Q890 -66 840 -66H762V32Q760 58 789 63V76H658V63Q685 59 684 32V-718Q684 -740 659 -744V-757H842Q897 -757 916 -735Q932 -715 932 -677V-492Q932 -449 910 -427Q903 -419 894 -415Q908 -409 916 -400Q932 -384 932 -344Z"/>
</svg>