<svg xmlns="http://www.w3.org/2000/svg" viewBox="0 -800 1024 1024">
	<path fill="#000000" d="M358 -79V-7H345Q339 -27 324 -23L83 44Q66 50 63 66H49V-5H62Q66 16 83 11L324 -56Q342 -63 345 -79ZM656 -512V-500H570V-512Q591 -512 586 -529L561 -703Q558 -719 543 -721V-734H626V-721Q609 -719 613 -703L636 -529Q637 -513 656 -512ZM920 -734V-721Q901 -720 899 -703L876 -529Q871 -512 891 -512V-500H805V-512Q823 -513 824 -529L848 -703Q851 -719 834 -721V-734ZM929 -73V-60H844V-74Q862 -76 860 -89L827 -329Q824 -344 810 -346V-359H896V-346Q876 -343 879 -329L911 -89Q913 -75 929 -73ZM650 -359V-346Q636 -344 633 -329L601 -89Q600 -76 617 -74V-60H531V-73Q548 -76 549 -89L581 -329Q584 -343 564 -346V-359ZM308 -781V-768Q288 -763 280 -749L141 -511Q131 -491 154 -490Q177 -489 231 -497L282 -581Q287 -595 267 -601V-614H387V-601Q370 -597 361 -581L150 -229Q141 -215 145 -209Q149 -203 167 -202Q234 -202 305 -232Q341 -250 346 -282H358V-223Q327 -204 279 -189Q214 -169 152 -166Q91 -165 78 -187Q63 -213 89 -260L210 -461Q162 -453 142 -452Q97 -448 78 -476Q61 -507 85 -551L200 -749Q205 -762 182 -768V-781ZM791 -11V2H670V-11Q695 -13 693 -38V-413H563Q547 -411 543 -394H530V-464H543Q546 -445 563 -445H693V-740Q695 -766 670 -768V-780H791V-768Q767 -765 768 -740V-445H897Q916 -447 917 -464H930V-394H917Q913 -412 897 -413H768V-38Q766 -15 791 -11ZM949 14V84H937Q933 66 915 65H378V52Q404 47 406 26V-735Q407 -767 378 -767V-780H515V-767Q487 -763 487 -735V33H915Q934 31 937 14Z"/>
</svg>