<svg xmlns="http://www.w3.org/2000/svg" viewBox="0 -800 1024 1024">
	<path fill="#000000" d="M801 -744H899V-731Q878 -726 882 -714L898 -665Q904 -649 920 -647V-634H822V-647Q845 -650 840 -665L823 -714Q817 -730 801 -731ZM528 -119H649V-106Q633 -102 637 -93L701 49Q705 62 725 62V75H602V62Q620 61 614 49L550 -93Q546 -105 528 -106ZM306 -119H427V-106Q410 -102 415 -93L479 49Q483 62 503 62V75H379V62Q398 61 392 49L328 -93Q324 -105 306 -106ZM750 -119H874V-106Q856 -101 860 -93L924 49Q929 62 950 62V75H823V62Q843 61 836 49L772 -93Q767 -105 750 -106ZM58 62Q80 61 84 49L148 -93Q151 -101 132 -106V-119H257V-106Q240 -106 236 -93L172 49Q166 60 187 62V75H58ZM663 -550Q666 -559 668 -570H545Q529 -568 525 -551H512V-622H525Q528 -603 545 -603H670V-737Q671 -769 642 -769V-781H788V-769Q759 -766 760 -737V-603H901Q919 -605 921 -622H934V-551H921Q917 -569 901 -570H757Q755 -553 750 -541L720 -466H817V-453Q794 -449 800 -433L870 -230Q885 -188 912 -215Q929 -237 936 -265H949V-207Q932 -183 908 -171Q874 -154 843 -164Q805 -176 785 -231L716 -434Q714 -439 711 -442L626 -228Q613 -191 587 -173Q545 -148 497 -173Q470 -187 452 -208V-265H465Q474 -236 493 -218Q522 -190 538 -229ZM401 -643Q411 -669 381 -668H236L228 -644Q219 -613 183 -602Q156 -594 112 -598Q82 -603 58 -621V-671H71Q74 -646 101 -633Q130 -619 141 -650L175 -750Q182 -767 158 -769V-781H294V-769Q271 -765 264 -750L247 -702H416Q466 -702 482 -676Q495 -655 483 -613L362 -250Q346 -202 278 -177Q200 -150 125 -169Q81 -183 58 -207V-261H71Q88 -202 159 -196Q246 -196 272 -253L281 -280H243Q198 -280 177 -292Q159 -300 144 -323L105 -374Q93 -391 74 -395V-408H203V-395Q179 -390 188 -374L218 -335Q234 -312 267 -313H292L334 -441H250Q203 -441 180 -452Q165 -458 146 -480L96 -534Q82 -549 63 -553V-565H204V-553Q178 -548 189 -534L227 -493Q242 -474 283 -476H346Z"/>
</svg>