<svg xmlns="http://www.w3.org/2000/svg" viewBox="0 -800 1024 1024">
	<path fill="#000000" d="M179 -107Q176 -76 154 -59Q134 -44 103 -50Q81 -54 59 -74V-126H72Q78 -89 93 -83Q113 -82 117 -110L135 -370Q137 -388 114 -391V-404H220V-391Q198 -387 198 -373ZM577 -722L521 -576H809L765 -694Q754 -722 720 -722ZM772 42Q810 40 812 2V-155Q811 -193 772 -194H519V42ZM220 -504Q199 -476 178 -466Q149 -453 111 -458Q82 -462 58 -487V-538H71Q76 -504 98 -493Q128 -489 146 -511L203 -588L98 -746Q85 -770 66 -769V-781H206V-769Q175 -763 187 -746L250 -652L321 -749Q330 -763 304 -769V-781H429V-769Q411 -765 400 -749L288 -596L328 -538Q347 -510 346 -456V-17Q346 38 311 62Q284 86 210 83Q154 79 120 42V-9H133Q139 33 179 45Q217 53 240 40Q261 28 261 -6V-465Q260 -501 249 -520L241 -532ZM805 -227Q862 -227 882 -202Q900 -182 899 -145V-12Q899 30 879 50Q855 75 803 75H407V62Q431 58 432 35V-189Q431 -210 407 -214V-227H621V-346H435Q419 -345 414 -327H402V-398H414Q419 -379 435 -379H621V-544H509L491 -496Q484 -476 513 -472V-459H380V-472Q402 -474 409 -496L492 -719Q500 -739 474 -745V-758H754Q794 -758 814 -743Q833 -730 846 -698L921 -496Q928 -474 949 -472V-459H818V-472Q846 -476 840 -496L821 -544H707V-379H895Q913 -381 915 -398H928V-327H915Q911 -345 895 -346H707V-227Z"/>
</svg>