<svg xmlns="http://www.w3.org/2000/svg" viewBox="0 -800 1024 1024">
	<path fill="#000000" d="M307 -132H430V-119Q414 -117 417 -103L479 49Q484 63 503 62V75H378V62Q397 62 393 49L329 -108Q323 -119 307 -119ZM529 -132H652V-119Q635 -116 639 -103L702 49Q705 63 726 62V75H600V62Q619 61 615 49L551 -108Q545 -119 529 -119ZM58 62Q80 63 84 49L146 -103Q150 -115 132 -119V-132H257V-119Q241 -119 236 -108L172 49Q167 61 187 62V75H58ZM750 -132H876V-119Q858 -115 862 -103L924 49Q930 63 950 62V75H821V62Q842 62 836 49L772 -108Q767 -119 750 -119ZM730 -228Q771 -231 774 -269V-427Q772 -465 730 -467H232V-228ZM428 -781H576V-768Q548 -764 548 -736V-667H898Q916 -669 919 -686H932V-615H919Q914 -634 898 -634H548V-500H768Q818 -500 842 -480Q865 -461 865 -418V-278Q865 -236 840 -216Q815 -194 766 -194H113V-206Q138 -212 141 -238V-459Q139 -482 113 -487V-500H456V-736Q457 -768 428 -768Z"/>
</svg>