<svg xmlns="http://www.w3.org/2000/svg" viewBox="0 -800 1024 1024">
	<path fill="#000000" d="M455 -119H585V-106Q564 -103 569 -89L594 -27Q599 -12 617 -10V3H490V-10Q511 -14 507 -27L482 -89Q476 -105 455 -106ZM915 33Q933 32 936 14H949V84H936Q932 66 915 65H423Q407 66 402 84H390V14H402Q406 33 423 33H707L763 -89Q770 -103 746 -106V-119H877V-106Q858 -105 851 -89L796 33ZM58 -536H71Q77 -505 90 -497Q115 -488 124 -515L179 -724H106Q90 -722 86 -705H73V-775H86Q90 -757 106 -757H334Q352 -759 355 -775H367V-705H355Q350 -724 334 -724H259L203 -515Q194 -481 164 -465Q137 -453 106 -457Q79 -461 58 -481ZM768 -188Q806 -189 807 -225V-304Q806 -341 768 -342H534V-188ZM175 43H244Q280 42 281 4V-354Q281 -390 244 -391H175ZM797 -375Q849 -375 871 -357Q893 -338 893 -295V-232Q893 -191 869 -173Q847 -155 798 -155H423V-168Q449 -173 449 -195V-337Q448 -358 423 -362V-375ZM673 -753Q669 -765 648 -768V-781H777V-768Q753 -766 758 -751L780 -692H800Q824 -691 827 -709L833 -738Q836 -753 817 -756V-768H906V-755Q886 -752 884 -738L876 -701Q872 -678 854 -668Q839 -659 814 -659H792L822 -580H838Q862 -579 865 -597L872 -626Q876 -641 855 -643V-656H944V-643Q924 -640 923 -626L915 -589Q911 -567 893 -556Q876 -547 853 -547H834L864 -466Q875 -439 902 -444Q929 -449 936 -487H949V-440Q936 -421 916 -411Q883 -396 845 -404Q800 -414 782 -459L767 -500H557L537 -453Q524 -423 492 -409Q465 -398 433 -404Q394 -410 376 -434V-480H388Q394 -441 426 -441Q449 -439 463 -475L495 -551H481Q455 -551 441 -561Q423 -572 419 -597L411 -647Q408 -661 390 -664V-677H475V-665Q457 -662 459 -647L467 -602Q470 -582 493 -583H509L557 -694Q567 -722 535 -724H429Q413 -723 408 -705H396V-776H408Q413 -757 429 -757H580Q618 -757 632 -735Q646 -711 634 -681L571 -533H754ZM104 -385Q104 -406 78 -411V-423H258Q310 -423 331 -403Q352 -382 352 -341V-11Q352 31 332 51Q312 76 256 76H78V63Q103 59 104 36Z"/>
</svg>