<svg xmlns="http://www.w3.org/2000/svg" viewBox="0 -800 1024 1024">
	<path fill="#000000" d="M410 -333H422Q430 -300 450 -294Q468 -288 480 -310L537 -404Q544 -417 522 -420V-433H647V-420Q632 -418 624 -404L562 -302Q546 -275 517 -263Q485 -253 450 -264Q426 -272 410 -290ZM712 -433H838V-420Q815 -417 822 -404L879 -310Q891 -288 909 -294Q929 -301 936 -333H949V-290Q936 -273 909 -264Q876 -253 845 -262Q814 -273 797 -302L735 -404Q727 -418 712 -420ZM159 -725V-505H287V-686Q286 -724 248 -725ZM159 1H248Q286 0 287 -40V-220H159ZM159 -473V-253H287V-473ZM606 -781H751V-769Q723 -764 723 -737V-675H876Q893 -677 896 -694H909V-624H896Q890 -643 876 -643H723V-505H908Q925 -507 928 -524H941V-453H928Q923 -471 908 -472H449Q433 -470 429 -453H416V-524H429Q432 -505 449 -505H634V-643H481Q465 -642 460 -624H447V-694H460Q465 -675 481 -675H634V-737Q635 -768 606 -769ZM606 -251H751V-238Q723 -233 723 -207V-155H876Q893 -157 896 -174H909V-103H896Q890 -122 876 -122H723V32H914Q932 30 934 13H947V83H934Q930 65 914 64H442Q427 66 422 83H409V13H422Q426 33 442 32H634V-122H481Q465 -121 460 -103H447V-174H460Q465 -155 481 -155H634V-207Q635 -238 606 -238ZM82 -719Q82 -741 58 -745V-757H269Q324 -757 345 -734Q363 -715 363 -675V-54Q363 -10 343 9Q324 35 267 34H58V21Q82 18 82 -6Z"/>
</svg>