<svg xmlns="http://www.w3.org/2000/svg" viewBox="0 -800 1024 1024">
	<path fill="#000000" d="M389 -350H334V-210H390Q425 -211 426 -250V-311Q425 -349 389 -350ZM417 27V14Q443 9 439 -5L401 -109Q397 -120 376 -126V-139H488V-126Q463 -121 468 -109L505 -5Q510 10 529 14V27ZM60 14Q81 10 86 -5L124 -109Q130 -121 104 -126V-139H216V-126Q196 -119 191 -109L152 -5Q149 9 175 14V27H60ZM164 -210H256V-350H164ZM502 -641H515Q516 -614 535 -608Q552 -606 562 -626L610 -750Q616 -766 591 -768V-781H727V-768Q703 -765 697 -750L684 -719H915Q933 -721 936 -738H949V-667H936Q932 -685 915 -686H826L866 -612Q875 -594 902 -589V-576H765V-589Q796 -591 784 -612L743 -686H671L646 -621Q635 -592 606 -578Q580 -566 548 -572Q519 -579 502 -603ZM58 -645H71Q73 -620 92 -612Q112 -605 123 -627L171 -750Q177 -766 151 -768V-781H287V-768Q264 -764 258 -750L245 -719H483Q501 -721 504 -738H517V-667H504Q500 -685 483 -686H386L424 -613Q433 -595 460 -590V-577H323V-590Q354 -592 342 -613L304 -686H232L207 -621Q196 -592 166 -578Q139 -566 105 -573Q73 -579 58 -600ZM535 -408H548Q555 -376 570 -372Q584 -369 591 -387L635 -519Q640 -536 612 -539V-553H738V-539Q718 -536 713 -519L695 -468H843Q886 -468 905 -453Q923 -437 923 -401V-296Q922 -273 949 -269V-256H824V-269Q850 -269 849 -296V-404Q848 -434 819 -435H684L668 -388Q659 -355 637 -340Q609 -323 572 -333Q551 -339 535 -355ZM668 -125Q672 -135 671 -157Q671 -164 671 -168V-277Q673 -306 647 -306V-319H773V-306Q748 -302 749 -277V-168H848V-155Q827 -151 832 -135L901 30Q913 55 928 36Q934 26 936 -1H949V54Q934 76 907 83Q883 89 859 76Q841 66 829 34L758 -136Q754 -144 749 -148Q747 -127 743 -118L676 36Q664 66 646 76Q625 89 596 83Q570 77 553 53V1H566Q568 31 577 38Q589 49 599 28ZM334 32Q333 60 359 63V76H230V63Q257 60 256 32V-176H75V-189Q97 -193 98 -216V-345Q97 -366 75 -370V-383H256V-441H90Q76 -440 71 -422H59V-493H71Q76 -473 90 -474H256V-509Q257 -540 230 -540V-553H359V-540Q333 -536 334 -509V-474H490Q506 -475 509 -493H521V-423H509Q506 -441 490 -441H334V-383H406Q454 -383 475 -362Q492 -343 492 -306V-259Q492 -219 471 -198Q449 -176 403 -176H334Z"/>
</svg>