<svg xmlns="http://www.w3.org/2000/svg" viewBox="0 -800 1024 1024">
	<path fill="#000000" d="M724 -754H838V-741Q818 -738 822 -721L851 -623Q858 -604 875 -603V-590H758V-603Q781 -605 775 -623L746 -721Q741 -739 724 -741ZM179 -107Q176 -76 154 -59Q134 -44 103 -50Q81 -54 59 -74V-126H72Q78 -89 93 -83Q114 -82 117 -110L132 -370Q132 -388 111 -391V-404H216V-391Q194 -387 195 -373ZM811 -1Q811 37 845 44Q875 49 905 30Q931 8 936 -18H949V35Q936 49 912 62Q871 82 841 84Q786 82 760 64Q726 43 727 -6V-410Q727 -435 702 -439V-452H836V-439Q811 -436 811 -410ZM544 -741Q545 -767 517 -769V-781H656V-769Q631 -765 629 -741L621 -545H903Q921 -547 923 -564H936V-493H923Q920 -511 903 -512H619L599 -10Q596 51 546 73Q499 91 447 74Q413 61 393 39V-12H406Q412 18 431 33Q452 47 476 43Q511 37 514 4L535 -512H427Q411 -511 406 -493H394V-564H406Q411 -545 427 -545H536ZM220 -504Q202 -477 178 -466Q149 -453 111 -458Q82 -462 58 -487V-538H71Q76 -504 98 -493Q128 -489 146 -511L199 -587L98 -746Q85 -769 66 -769V-781H203V-769Q172 -763 184 -746L244 -651L314 -749Q323 -763 297 -769V-781H422V-769Q404 -766 393 -749L282 -592L328 -520Q347 -488 347 -442V-17Q347 35 313 61Q286 86 212 83Q159 79 125 42V-9H137Q143 31 180 44Q217 54 240 40Q262 29 262 -6V-452Q262 -489 251 -506L237 -528Z"/>
</svg>