<svg xmlns="http://www.w3.org/2000/svg" viewBox="0 -800 1024 1024">
	<path fill="#000000" d="M431 -69V1H418Q413 -17 396 -14L92 55Q75 61 72 77H58V6H72Q76 27 92 23L396 -47Q415 -53 418 -69ZM467 -608V-595Q453 -594 438 -574L159 -229Q149 -216 154 -209Q160 -202 180 -202Q248 -203 325 -222Q400 -244 404 -279H416L417 -224Q393 -208 310 -188Q218 -168 159 -167Q98 -166 81 -189Q58 -219 88 -257L274 -485Q176 -464 137 -462Q92 -461 78 -486Q60 -522 84 -553L241 -749Q248 -761 223 -768V-781H363V-768Q344 -764 333 -749L153 -523Q142 -505 165 -502Q213 -501 302 -520L346 -574Q352 -588 332 -595V-608ZM753 63V76H610V63Q637 59 637 32V-358H450Q434 -356 430 -339H417V-409H430Q433 -390 450 -390H637V-662H486Q470 -660 466 -643H453V-714H466Q469 -694 486 -695H710Q738 -694 754 -713L787 -750Q797 -765 772 -768V-781H917V-768Q902 -767 891 -750L844 -698Q824 -677 806 -670Q788 -661 748 -662H726V-390H915Q933 -392 936 -409H949V-339H936Q932 -357 915 -358H726V32Q724 57 753 63Z"/>
</svg>