<svg xmlns="http://www.w3.org/2000/svg" viewBox="0 -800 1024 1024">
	<path fill="#000000" d="M879 -121V-128H889Q887 -115 883 -108Q879 -110 879 -121ZM959 -735Q957 -729 951 -728Q945 -727 940 -725L939 -728Q942 -739 952 -741Q958 -741 959 -735ZM568 -448V-453Q552 -451 540 -440Q527 -428 527 -415Q527 -402 540 -392Q553 -397 554 -397Q560 -397 564 -393Q566 -420 568 -448ZM794 -490H793Q777 -490 766 -478Q755 -466 755 -452Q755 -436 770 -429Q773 -433 780 -433Q786 -433 789 -432Q793 -455 796 -479Q796 -484 794 -490ZM604 -111V-105Q604 -85 584 -50Q570 -25 567 -10Q612 -19 661 -24Q608 -28 608 -53Q608 -81 660 -96Q658 -110 643 -110Q636 -110 632 -106Q610 -122 605 -139Q613 -154 627 -162Q641 -170 656 -177Q655 -189 643 -189Q632 -189 613 -177Q595 -166 592 -160Q592 -149 598 -133Q604 -117 604 -111ZM429 -116V-112Q428 -99 426 -86Q428 -81 430 -77Q427 -59 413 -37Q399 -30 385 -30Q371 -30 356 -31Q292 -79 247 -142Q228 -114 219 -75Q205 -41 196 -5Q192 42 187 55Q180 60 172 65Q164 71 155 71Q151 71 147 70Q143 69 135 58Q125 44 119 45Q115 45 110 50L109 48L108 39Q105 31 93 22Q82 14 80 9Q78 -2 76 -13Q70 -23 64 -33V-38Q67 -61 69 -84Q69 -89 65 -99L67 -100Q73 -98 78 -97L81 -98Q79 -138 72 -180Q69 -195 65 -210Q65 -222 73 -227Q79 -178 81 -168Q87 -136 98 -119Q112 -134 119 -152Q126 -170 135 -187Q146 -208 156 -229Q166 -249 180 -265Q180 -243 158 -207Q134 -167 136 -143Q137 -138 137 -133Q165 -158 193 -229Q213 -280 227 -300V-302Q226 -316 235 -339Q242 -356 242 -363L241 -367Q228 -361 223 -346Q218 -332 211 -320Q208 -329 208 -330Q208 -345 215 -361Q222 -376 228 -392Q245 -432 248 -470Q246 -492 228 -504Q223 -535 198 -536Q201 -545 207 -549Q213 -553 219 -556Q219 -560 216 -562Q212 -565 212 -566L213 -568Q230 -574 242 -591Q254 -608 266 -622Q277 -631 288 -633Q296 -634 313 -627Q331 -620 342 -619Q350 -574 377 -524Q370 -510 368 -483Q349 -473 349 -436Q362 -424 377 -418Q380 -418 383 -422Q385 -415 387 -409Q396 -397 405 -385Q415 -373 416 -356Q416 -346 413 -336Q408 -334 400 -323Q393 -314 385 -312H382Q369 -314 356 -316Q348 -314 345 -310L344 -312Q345 -316 345 -321V-323Q344 -328 327 -338Q316 -345 313 -348Q289 -278 277 -232Q317 -215 347 -206Q351 -211 357 -227Q362 -211 368 -209Q375 -214 378 -231Q381 -245 383 -249Q385 -230 386 -208Q387 -187 397 -176H398Q401 -179 408 -183H409Q406 -177 406 -166Q408 -150 416 -138Q425 -126 429 -116ZM204 -408Q203 -386 198 -360Q195 -323 180 -298Q162 -291 156 -290Q149 -290 138 -293H136Q135 -293 133 -289Q132 -286 129 -286H128Q121 -312 109 -311Q98 -298 89 -285L88 -289Q91 -302 97 -314Q90 -321 82 -327Q75 -334 65 -335Q62 -335 58 -333Q58 -338 61 -341Q60 -345 54 -354Q46 -366 45 -374L44 -380Q45 -399 46 -418Q46 -422 45 -426Q44 -433 38 -441Q31 -450 30 -457Q38 -451 47 -449H50L52 -452L51 -459Q57 -457 59 -458Q65 -458 82 -471L81 -475Q80 -491 68 -522L71 -521L73 -523Q85 -495 103 -483Q131 -484 134 -510Q138 -488 154 -473Q170 -459 185 -445Q189 -448 193 -451H194V-445Q194 -435 192 -434Q204 -422 204 -408ZM153 -554V-551Q152 -543 150 -535Q145 -537 145 -544Q145 -547 147 -555L151 -553ZM749 -356Q767 -345 772 -323Q804 -333 836 -343Q841 -326 866 -326H875Q872 -317 872 -316L873 -312L877 -311Q886 -314 894 -318Q879 -303 879 -290Q879 -282 883 -277Q870 -266 861 -252Q851 -239 833 -234Q824 -240 809 -240Q794 -240 786 -234Q788 -246 799 -249Q811 -253 823 -258H797Q739 -258 722 -235Q725 -233 731 -233Q747 -235 762 -238Q768 -238 772 -235Q771 -227 755 -226Q744 -225 740 -222Q744 -215 747 -208H752Q767 -211 778 -215Q783 -215 786 -214V-213Q784 -210 781 -208V-207Q789 -207 796 -214Q804 -222 812 -222H814Q804 -211 796 -195Q799 -186 808 -183Q804 -170 799 -157Q773 -150 769 -149Q750 -142 750 -129Q750 -125 751 -123Q777 -133 802 -144Q809 -143 814 -132Q822 -137 829 -142Q836 -147 848 -147V-146Q848 -142 843 -137Q835 -128 835 -120V-117Q835 -113 840 -106Q845 -98 845 -92V-88Q834 -78 830 -60Q822 -62 802 -62Q793 -55 767 -52Q745 -49 733 -42Q732 -37 731 -33V-31Q739 -32 757 -32H787Q825 -32 842 -43Q857 -56 866 -73V-50Q869 -58 872 -71Q876 -92 880 -99Q882 -70 892 -50Q910 -48 914 -48Q922 -48 932 -51L935 -49Q935 -47 928 -40Q931 -31 938 -30Q941 -30 943 -31Q941 -23 937 -19Q948 0 953 22Q953 29 950 33Q954 44 957 54Q954 56 943 60Q942 66 935 71Q927 77 927 84Q892 82 867 69Q868 63 878 63H894Q882 42 816 42Q799 42 777 44Q781 51 814 53Q842 55 854 60V62Q854 70 846 70Q842 70 838 69Q788 67 738 65H727L629 72Q633 57 650 56Q668 55 686 54Q701 53 722 53Q742 53 754 47Q749 41 738 41Q728 42 718 42H688Q586 42 553 75L557 76Q566 76 580 70Q597 63 602 63Q612 63 617 73Q555 84 536 131L534 132Q530 129 525 125Q493 123 479 103Q465 84 451 63Q459 45 463 26Q475 7 489 -13Q497 -29 504 -60Q487 -68 467 -91Q444 -117 432 -125V-128Q432 -133 430 -141Q426 -149 420 -150Q424 -162 424 -172V-178Q422 -188 405 -188H398Q415 -206 436 -219Q446 -231 461 -235Q464 -235 466 -234Q465 -229 457 -221Q448 -213 448 -207Q448 -202 451 -198Q485 -210 505 -235Q526 -260 547 -285H544Q529 -285 510 -264Q492 -243 478 -243Q483 -258 498 -270Q514 -282 528 -294Q541 -309 558 -318Q575 -318 587 -326Q597 -321 613 -304Q629 -287 642 -282Q654 -287 669 -289V-292Q668 -307 666 -322V-327Q669 -338 687 -350Q706 -363 725 -363H726Q712 -371 703 -384Q694 -397 685 -412Q655 -411 638 -381Q622 -354 620 -312Q612 -314 603 -322Q593 -331 586 -333V-340H572Q539 -340 539 -320V-317Q506 -318 484 -337Q474 -345 450 -379H452Q464 -379 477 -363Q490 -347 500 -346Q481 -384 441 -433L440 -429Q444 -415 447 -401Q447 -397 446 -395Q418 -433 418 -467Q418 -481 422 -493Q427 -495 436 -495Q455 -492 474 -489H478Q488 -490 505 -500Q521 -511 531 -517Q543 -526 555 -535Q567 -545 583 -546Q573 -548 560 -562Q548 -575 540 -576Q537 -576 533 -577Q508 -575 484 -556Q461 -538 447 -527Q409 -543 375 -562Q374 -566 374 -573Q374 -581 379 -596Q383 -608 383 -617Q383 -623 382 -627Q390 -636 402 -641Q414 -646 425 -652V-650Q425 -648 424 -647Q422 -647 420 -645Q421 -641 431 -641Q441 -641 441 -636Q435 -632 427 -629Q419 -627 416 -619Q419 -616 425 -616Q439 -620 453 -624Q482 -630 491 -636Q489 -638 482 -638Q469 -636 455 -635Q447 -635 446 -639Q450 -647 468 -647Q475 -647 478 -646Q481 -652 487 -654H490V-656Q493 -676 505 -688Q503 -695 500 -703L503 -704Q505 -704 508 -699Q512 -692 517 -691L518 -695Q515 -706 511 -717Q516 -715 520 -707Q524 -700 528 -697Q531 -698 531 -700Q529 -705 527 -710V-711Q532 -708 537 -705Q543 -707 552 -707Q570 -706 581 -695Q591 -685 602 -674Q639 -682 676 -688Q720 -700 760 -700Q765 -720 765 -740Q763 -747 750 -747Q782 -779 822 -779Q828 -779 842 -777Q845 -768 858 -756Q870 -745 873 -738Q862 -723 850 -708Q878 -713 903 -725H904Q907 -722 908 -717Q916 -719 923 -722H927Q920 -720 920 -710Q920 -707 921 -705L923 -704Q927 -706 931 -708Q930 -705 930 -701Q930 -693 938 -682Q946 -671 946 -664V-662Q945 -653 931 -645Q916 -636 914 -627Q867 -623 829 -618Q791 -613 767 -587Q766 -572 755 -561Q743 -550 730 -550Q713 -550 705 -565Q689 -563 672 -561Q701 -582 723 -621Q666 -619 614 -594Q615 -586 615 -579Q615 -557 601 -546Q603 -543 605 -543Q611 -546 616 -549V-540Q625 -540 634 -537Q644 -553 675 -556Q669 -551 662 -548Q655 -544 654 -534Q675 -527 696 -520Q714 -533 740 -540Q740 -535 735 -531Q730 -526 730 -522V-519Q743 -522 770 -540Q791 -554 805 -559Q802 -562 798 -562Q794 -562 780 -554Q765 -545 755 -545Q752 -545 750 -546Q754 -553 762 -558Q770 -563 777 -567Q802 -583 826 -584Q831 -583 835 -579Q838 -579 842 -585Q844 -578 851 -578Q859 -577 863 -574Q871 -589 903 -591Q880 -582 879 -562L881 -561Q886 -564 890 -568L893 -567L894 -566Q894 -564 885 -555Q893 -539 896 -519Q899 -498 922 -496H924Q918 -487 908 -483Q912 -466 916 -450Q885 -448 878 -433Q875 -437 875 -441Q875 -446 883 -453Q890 -460 891 -464Q884 -473 876 -473Q862 -473 851 -446Q841 -422 841 -401V-395Q848 -396 854 -409Q860 -421 869 -421H870Q861 -400 851 -352Q841 -353 825 -366Q808 -380 795 -380Q789 -380 786 -379Q773 -377 767 -357Q762 -356 756 -356Q753 -356 749 -356Z"/>
</svg>