<svg xmlns="http://www.w3.org/2000/svg" viewBox="0 -800 1024 1024">
	<path fill="#000000" d="M156 -725V-505H279V-686Q278 -724 239 -725ZM156 1H240Q278 0 279 -40V-220H156ZM156 -473V-253H279V-473ZM583 15Q575 58 534 75Q495 90 449 76Q416 64 388 40V-14H400Q410 26 445 39Q490 52 499 10L533 -230Q535 -249 515 -254V-267H644V-254Q621 -250 620 -230ZM417 -309V-322Q439 -324 440 -347V-696Q440 -716 417 -719V-732H525Q542 -732 547 -742L553 -754Q556 -765 536 -769V-781H668V-769Q650 -764 642 -750L634 -734Q625 -715 607 -708Q591 -699 564 -699H525V-549H616Q634 -551 636 -568H649V-497H636Q633 -515 616 -516H525V-342H789Q828 -343 829 -379V-516H737Q721 -515 717 -497H704V-568H717Q720 -550 737 -549H829V-674Q829 -708 794 -708H736Q720 -706 716 -689H703V-760H716Q719 -741 736 -741H820Q871 -741 893 -723Q915 -703 915 -660V-392Q915 -349 893 -330Q869 -309 819 -309H810V-6Q814 49 874 45Q927 32 936 -15H949V39Q915 77 846 83Q787 82 756 61Q723 35 723 -16V-309ZM81 -719Q82 -740 58 -745V-757H258Q316 -757 336 -732Q354 -713 354 -672V-58Q354 -14 333 9Q311 34 256 34H58V21Q81 17 81 -6Z"/>
</svg>