<svg xmlns="http://www.w3.org/2000/svg" viewBox="0 -800 1024 1024">
	<path fill="#000000" d="M529 32Q527 58 555 62V75H419V62Q445 59 444 32V-573Q445 -605 419 -605V-617H555V-605Q528 -601 529 -573ZM230 -6Q230 39 205 62Q174 91 121 82Q77 71 58 42V-8H71Q78 39 108 42Q142 40 145 4V-688Q145 -709 120 -713V-726H764Q778 -726 785 -736L797 -752Q804 -763 783 -769V-781H924V-769Q909 -767 899 -752L880 -724Q867 -704 854 -699Q837 -692 805 -692H230ZM866 17Q873 51 902 39Q923 26 936 -24H949V37Q931 64 900 75Q859 91 822 74Q786 55 781 3L733 -575Q731 -601 705 -605V-618H843V-605Q813 -601 815 -575Z"/>
</svg>