<svg xmlns="http://www.w3.org/2000/svg" viewBox="0 -800 1024 1024">
	<path fill="#000000" d="M796 -383Q834 -385 837 -424V-461H683V-383ZM457 -461V-383H610V-461ZM796 -577H683V-494H837V-540Q837 -577 796 -577ZM457 -577V-494H610V-577ZM337 -14H350Q354 7 368 14Q387 26 403 4L437 -50Q446 -66 422 -70V-83H544V-70Q525 -67 516 -51L478 11Q467 33 434 46Q405 58 374 49Q353 43 337 28ZM742 -83H864V-70Q840 -66 849 -50L883 4Q899 26 918 14Q931 8 935 -14H949V28Q933 43 912 49Q881 58 852 46Q818 33 807 11L769 -51Q760 -67 742 -70ZM63 -667H156V-655Q136 -653 138 -635L154 -468Q156 -450 177 -447V-434H82V-447Q103 -448 101 -467L84 -634Q83 -652 63 -655ZM58 -177H71Q72 -157 78 -147Q84 -136 92 -140Q99 -144 99 -158L105 -350Q106 -368 85 -372V-384H177V-372Q157 -368 157 -351L151 -158Q149 -128 131 -113Q111 -98 84 -108Q70 -115 58 -133ZM917 -706Q935 -708 938 -725H950V-654H938Q933 -673 917 -673H290V-4Q289 48 244 72Q198 93 141 73Q117 63 94 41V-12H107Q114 16 136 32Q159 48 182 42Q207 33 207 6V-664Q208 -689 182 -693V-706H530V-743Q531 -767 502 -769V-781H646V-769Q617 -766 618 -743V-706ZM374 -257Q373 -285 409 -301L529 -350H351V-363Q376 -368 377 -389V-573Q377 -592 351 -597V-610H822Q874 -610 894 -593Q916 -576 916 -532V-435Q916 -393 895 -373Q872 -349 821 -350H666L475 -270Q466 -266 467 -261Q469 -255 479 -255Q552 -254 627 -261L677 -277Q684 -280 681 -285Q678 -290 668 -292V-305H888V-292Q873 -289 842 -278Q838 -277 836 -276L472 -157Q462 -154 462 -149Q463 -143 473 -143Q629 -144 797 -166L783 -185Q772 -201 752 -205V-218H881V-205Q855 -200 864 -187L905 -134Q917 -117 935 -115V-102H809V-115Q834 -118 824 -132L815 -143Q753 -130 686 -123V6Q686 50 648 73Q615 90 572 82Q538 75 519 51V9H532Q539 38 559 45Q596 55 600 16V-115Q506 -109 411 -109Q358 -110 356 -143Q360 -172 394 -185L517 -225Q472 -222 432 -222Q379 -225 374 -257Z"/>
</svg>