<svg xmlns="http://www.w3.org/2000/svg" viewBox="0 -800 1024 1024">
	<path fill="#000000" d="M220 -230V-168H786V-190Q785 -229 741 -230ZM220 -137V-75H786V-137ZM502 -673H515Q515 -646 535 -640Q551 -638 562 -656L610 -750Q617 -766 591 -768V-781H724V-768Q706 -766 699 -750L688 -730H915Q933 -732 936 -749H949V-679H936Q932 -697 915 -698H826L866 -624Q875 -606 902 -601V-589H765V-601Q796 -603 784 -624L743 -698H671L647 -653Q633 -625 611 -612Q583 -597 548 -605Q519 -610 502 -634ZM58 -655H71Q72 -630 92 -622Q112 -616 123 -637L171 -750Q177 -766 151 -768V-781H285V-768Q265 -766 260 -750L251 -730H483Q501 -732 504 -749H517V-684H504Q501 -699 483 -698H390L424 -645Q436 -626 460 -622V-609H323V-622Q356 -625 342 -645L307 -698H237L208 -631Q197 -602 167 -588Q138 -577 105 -584Q72 -591 58 -610ZM432 -586H574V-574Q549 -570 549 -544V-532H885Q903 -534 906 -550H919V-480H906Q901 -499 885 -499H549V-440H835Q853 -442 856 -458H869V-388H856Q851 -407 835 -407H549V-346H913Q931 -347 934 -365H947V-295H934Q929 -314 913 -314H93Q77 -312 73 -295H60V-365H73Q78 -346 93 -346H457V-407H172Q156 -406 151 -388H138V-458H151Q155 -440 172 -440H457V-499H122Q106 -498 101 -480H88V-550H101Q105 -532 122 -532H457V-544Q458 -572 432 -574ZM778 -262Q823 -262 849 -244Q877 -223 877 -176V-20Q877 43 839 66Q811 85 737 84Q628 79 574 53V2H587Q616 48 705 54Q784 53 786 -6V-44H220V32Q220 59 247 62V76H103V62Q130 59 129 32V-224Q128 -244 102 -248V-262Z"/>
</svg>