<svg xmlns="http://www.w3.org/2000/svg" viewBox="0 -800 1024 1024">
	<path fill="#000000" d="M407 -458H496Q524 -457 523 -481V-543Q525 -568 496 -566H407ZM722 -458H811Q839 -457 838 -481V-543Q840 -568 811 -566H722ZM460 -51V34H666V-51ZM460 -287V-201H666V-287ZM460 -170V-83H666V-170ZM59 -520H198V-507Q168 -502 180 -482L253 -356Q264 -334 287 -332V-320H146V-332Q176 -338 165 -356L92 -482Q77 -506 59 -507ZM59 -781H198V-769Q169 -763 180 -744L253 -611Q264 -590 287 -586V-574H146V-586Q176 -592 165 -611L92 -744Q79 -767 59 -769ZM177 -227Q181 -244 156 -251V-264H288V-251Q266 -244 262 -227L220 15Q213 48 190 67Q167 86 123 83Q84 79 58 49V-4H71Q76 31 98 42Q127 48 135 20ZM631 -597H831Q871 -597 887 -587Q907 -575 907 -542V-485Q907 -457 888 -441Q868 -425 832 -425H631V-438Q652 -441 653 -460V-562Q653 -580 631 -584ZM315 -597H516Q555 -597 572 -587Q592 -574 592 -542V-485Q592 -458 573 -441Q550 -425 517 -425H315V-438Q337 -441 338 -460V-562Q337 -580 315 -584ZM424 -781H555V-769Q529 -765 530 -747V-718H717V-747Q718 -768 692 -769V-781H823V-769Q797 -765 798 -747V-718H915Q933 -720 936 -735H948V-668H936Q932 -686 915 -687H798V-661Q799 -640 823 -638V-625H692V-638Q718 -640 717 -661V-687H530V-661Q531 -640 555 -638V-625H424V-638Q449 -640 448 -661V-687H331Q315 -686 310 -668H297V-737H310Q315 -718 331 -718H448V-747Q449 -768 424 -769ZM306 -274H319Q322 -254 330 -242Q336 -233 341 -235Q347 -236 352 -249L402 -364Q408 -379 383 -383V-396H515V-383Q495 -380 490 -364L470 -318H666L685 -364Q691 -379 668 -383V-396H798V-383Q777 -380 771 -364L751 -318H908Q926 -320 929 -337H943V-270H929Q925 -287 908 -287H751V-201H882Q900 -202 903 -220H917V-153H903Q899 -170 882 -170H751V-83H882Q900 -84 903 -102H917V-34H903Q899 -51 882 -51H751V34H915Q934 33 936 15H949V84H936Q933 67 914 66H346V52Q372 49 373 26V-197Q366 -197 358 -199Q323 -206 306 -230Z"/>
</svg>