<svg xmlns="http://www.w3.org/2000/svg" viewBox="0 -800 1024 1024">
	<path fill="#000000" d="M618 -724V-634H702V-724ZM360 -104V-30H347Q343 -49 326 -45L92 17Q76 23 72 38H58V-35H72Q76 -15 92 -19L326 -81Q346 -88 347 -104ZM840 -486V-564Q839 -603 801 -604H756V-444H801Q838 -446 840 -486ZM480 -604V-444H564V-604ZM618 -604V-444H702V-604ZM909 -364V-294H896Q891 -313 875 -313H445Q429 -311 425 -294H412V-364H425Q428 -345 445 -345H875Q893 -347 896 -364ZM949 -25V23Q936 36 913 42Q881 51 852 44Q813 33 808 3L779 -131Q776 -147 754 -151V-163H867V-151Q846 -148 851 -131L879 -2Q886 24 914 15Q935 4 936 -25ZM564 -163V-151Q541 -147 539 -131L510 3Q505 33 465 44Q431 52 402 42Q383 36 369 23V-25H381Q382 3 403 15Q432 24 439 -2L467 -131Q472 -149 450 -151V-163ZM949 -262V-192H936Q931 -211 915 -211H698V5Q697 45 673 66Q649 86 606 84Q554 79 526 49V4H539Q545 34 575 45Q611 53 613 8V-211H405Q389 -209 385 -192H372V-262H385Q388 -243 405 -243H915Q933 -245 936 -262ZM379 -609V-596Q363 -593 353 -576L151 -229Q143 -215 147 -209Q150 -203 168 -202Q235 -202 305 -232Q341 -250 346 -282H358V-223Q258 -172 152 -166Q91 -165 78 -187Q63 -213 89 -260L205 -459Q167 -450 138 -449Q93 -448 78 -472Q62 -500 83 -545L180 -749Q184 -763 161 -768V-781H285V-768Q265 -764 257 -749L140 -509Q130 -488 153 -488Q180 -487 226 -494L274 -576Q279 -591 259 -596V-609ZM915 -559V-494Q915 -452 891 -433Q870 -412 821 -413H382V-426Q404 -430 405 -451V-599Q406 -617 382 -621V-634H541V-724H407Q391 -723 386 -705H373V-776H386Q391 -757 407 -757H915Q933 -759 936 -776H948V-705H936Q931 -724 917 -724H779V-634H824Q875 -634 896 -615Q915 -597 915 -559Z"/>
</svg>