<svg xmlns="http://www.w3.org/2000/svg" viewBox="0 -800 1024 1024">
	<path fill="#000000" d="M208 -25Q207 46 299 47Q342 49 401 26Q451 6 461 -38H474V21Q421 60 333 77Q226 93 171 62Q117 36 117 -36V-304Q117 -331 89 -335V-348H236V-335Q209 -334 208 -304V-193H434Q451 -195 454 -212H467V-141H454Q449 -159 434 -160H208ZM459 -428Q477 -430 479 -447H492V-376H479Q477 -393 460 -392H93Q76 -391 72 -376H60V-447H72Q76 -428 93 -428H230V-560H115Q98 -559 94 -543H82V-614H94Q97 -596 115 -596H230V-722H104Q88 -721 84 -706H71V-776H84Q87 -758 104 -758H445Q463 -760 466 -776H479V-706H466Q462 -723 446 -722H320V-596H434Q451 -597 454 -614H466V-543H454Q450 -560 434 -560H320V-428ZM618 -33Q618 34 690 45Q748 54 832 36Q925 16 936 -38H949V21Q909 52 819 70Q719 89 642 79Q585 70 558 42Q528 15 527 -46V-307Q528 -333 500 -335V-348H644V-335Q617 -331 618 -307V-186H766Q792 -188 802 -213L828 -289Q834 -305 810 -310V-323H941V-310Q923 -306 917 -289L890 -211Q879 -180 858 -166Q835 -153 798 -153H618ZM915 -428Q932 -430 935 -447H948V-376H935Q931 -392 915 -392H548Q532 -391 528 -374H515V-447H527Q531 -428 548 -428H685V-560H570Q553 -559 549 -543H537V-614H549Q552 -598 570 -598H685V-722H560Q542 -721 538 -706H525V-776H538Q542 -758 560 -758H900Q917 -759 920 -776H933V-706H920Q916 -722 900 -722H774V-598H888Q907 -599 908 -614H921V-543H908Q905 -560 888 -560H774V-428Z"/>
</svg>