<svg xmlns="http://www.w3.org/2000/svg" viewBox="0 -800 1024 1024">
	<path fill="#000000" d="M359 -597H458V-584Q436 -581 439 -565L472 -399Q476 -382 493 -380V-367H396V-380Q418 -382 416 -399L383 -565Q381 -581 359 -584ZM58 -380Q77 -382 81 -399L119 -565Q123 -581 100 -584V-597H200V-584Q179 -581 176 -565L136 -399Q134 -382 157 -380V-367H58ZM513 -380Q532 -382 534 -399L567 -565Q571 -581 548 -584V-597H648V-584Q626 -581 624 -565L590 -399Q588 -382 610 -380V-367H513ZM806 -597H906V-584Q884 -581 887 -565L926 -399Q928 -383 948 -380V-367H850V-380Q872 -382 870 -399L830 -565Q828 -581 806 -584ZM103 -295H235V-282Q213 -280 220 -265L303 -154Q312 -144 331 -140V-128H198V-140Q219 -144 215 -154L132 -264Q122 -277 103 -282ZM664 -140Q684 -144 691 -154L776 -265Q783 -280 761 -282V-295H894V-282Q874 -277 865 -264L781 -154Q775 -144 797 -140V-128H664ZM768 -376Q767 -348 795 -344V-332H659V-344Q688 -348 686 -376V-653H555Q539 -653 534 -634H521V-704H534Q537 -686 555 -685H686V-737Q687 -765 659 -769V-781H795V-769Q767 -769 768 -737V-685H900Q916 -685 920 -704H933V-634H920Q915 -652 900 -653H768ZM320 -376Q318 -348 347 -344V-332H211V-344Q239 -348 238 -376V-653H107Q91 -652 86 -634H73V-704H86Q91 -685 107 -685H238V-737Q239 -769 211 -769V-781H347V-769Q319 -765 320 -737V-685H454Q472 -687 474 -704H487V-634H474Q471 -652 454 -653H320ZM428 -118Q457 -132 455 -164V-278Q455 -304 428 -307V-320H572V-307Q545 -300 544 -278V-173Q544 -139 537 -123Q532 -110 523 -101H633V-88Q608 -81 620 -69L791 32Q834 56 886 40Q934 25 936 -14H949V42Q932 61 898 72Q857 84 820 84Q762 84 723 61L502 -70L489 -77L257 60Q222 80 179 82Q141 84 105 73Q78 63 58 42V-13H71Q76 21 101 36Q138 53 174 32Z"/>
</svg>