<svg xmlns="http://www.w3.org/2000/svg" viewBox="0 -800 1024 1024">
	<path fill="#000000" d="M58 -536H71Q76 -506 90 -498Q115 -489 125 -516L183 -725H107Q90 -723 86 -706H73V-776H86Q91 -757 107 -757H356Q374 -758 377 -776H390V-706H377Q372 -725 356 -725H267L209 -515Q201 -485 166 -466Q139 -454 108 -458Q79 -462 58 -482ZM179 42H260Q296 41 297 3V-354Q297 -390 260 -391H179ZM104 -386Q104 -407 78 -411V-424H278Q331 -424 352 -403Q372 -383 372 -342V-12Q372 29 353 51Q331 75 276 75H78V62Q103 58 104 35ZM422 -342V-355Q441 -364 449 -388L539 -642H443Q428 -640 423 -623H410V-694H423Q427 -674 443 -675H550L576 -746Q581 -767 552 -769V-781H691V-769Q668 -769 659 -746L634 -675H904Q922 -677 925 -694H938V-623H925Q920 -642 904 -642H622L528 -375H670V-514Q671 -546 643 -546V-559H786V-546Q758 -542 758 -514V-375H886Q903 -377 906 -394H919V-323H906Q901 -341 886 -342H758V-179H915Q933 -181 936 -198H949V-127H936Q931 -146 915 -146H758V31Q757 57 786 62V75H642V62Q671 58 670 31V-146H448Q432 -144 428 -127H415V-198H428Q431 -179 448 -179H670V-342Z"/>
</svg>