<svg xmlns="http://www.w3.org/2000/svg" viewBox="0 -800 1024 1024">
	<path fill="#000000" d="M359 -608H458V-595Q435 -591 439 -576L472 -450Q476 -433 493 -431V-418H396V-431Q419 -434 416 -450L383 -576Q380 -592 359 -595ZM58 -431Q76 -433 81 -450L119 -576Q124 -591 100 -595V-608H200V-595Q180 -592 176 -576L136 -450Q133 -434 157 -431V-418H58ZM513 -431Q530 -433 534 -450L567 -576Q571 -591 548 -595V-608H648V-595Q627 -592 624 -576L590 -450Q588 -433 610 -431V-418H513ZM806 -608H906V-595Q883 -591 887 -576L926 -450Q930 -434 948 -431V-418H850V-431Q873 -434 870 -450L830 -576Q827 -592 806 -595ZM58 -47H71Q75 -13 114 -6Q157 0 185 -35L229 -97Q237 -110 209 -117V-129H351V-117Q330 -116 320 -98L269 -27Q238 15 188 29Q156 36 125 32Q86 26 58 -2ZM656 -129H798V-117Q771 -110 778 -97L825 -35Q849 -3 881 -3Q931 -8 936 -47H949V-2Q921 28 879 32Q844 37 814 27Q770 12 739 -27L686 -98Q674 -115 656 -117ZM837 -331Q855 -333 858 -350H870V-279H858Q853 -298 837 -298H177Q162 -296 157 -279H144V-350H157Q161 -330 177 -331ZM768 -427Q767 -399 795 -395V-382H659V-395Q688 -399 686 -427V-660H555Q539 -659 534 -641H521V-712H534Q537 -694 555 -693H686V-736Q687 -764 659 -768V-781H795V-768Q767 -768 768 -736V-693H900Q916 -693 920 -712H933V-641H920Q916 -659 900 -660H768ZM320 -427Q318 -399 347 -395V-382H211V-395Q239 -399 238 -427V-660H107Q91 -659 86 -641H73V-712H86Q91 -693 107 -693H238V-736Q239 -768 211 -768V-781H347V-768Q319 -764 320 -736V-693H454Q472 -695 474 -712H487V-641H474Q471 -659 454 -660H320ZM309 1H322Q330 42 397 45Q455 45 457 0V-169H92Q76 -168 71 -150H58V-221H71Q76 -202 92 -202H915Q933 -204 936 -221H949V-150H936Q931 -169 915 -169H550V-22Q550 37 508 64Q462 91 391 81Q334 71 309 46Z"/>
</svg>