<svg xmlns="http://www.w3.org/2000/svg" viewBox="0 -800 1024 1024">
	<path fill="#000000" d="M85 -425H98Q101 -406 119 -406H185V-708H103Q85 -707 83 -693H70V-763H83Q86 -746 103 -746H362Q381 -747 383 -763H395V-693H383Q380 -708 362 -708H273V-406H342Q360 -408 363 -425H376V-354H363Q360 -370 342 -370H273V-56L369 -89Q387 -96 390 -112H402V-37H390Q386 -54 370 -50L92 40Q76 43 71 61H58V-10H71Q75 9 92 4L185 -27V-370H119Q102 -369 98 -354H85ZM549 -514Q536 -478 507 -462Q475 -448 430 -455Q396 -462 375 -483V-538H388Q393 -504 421 -493Q445 -485 457 -514L545 -751Q550 -765 523 -769V-781H664V-769Q641 -763 637 -751L593 -632H793Q837 -632 856 -604Q873 -576 852 -532L692 -206H785V-193Q757 -188 763 -175L865 18Q881 48 903 43Q931 35 936 -2H949V52Q930 72 903 78Q864 88 834 77Q798 68 778 33L673 -168L595 -9Q570 42 540 61Q502 91 440 81Q386 72 356 39V-15H369Q378 29 420 41Q468 49 496 -5L769 -565Q777 -581 773 -588Q769 -596 753 -596H579Z"/>
</svg>