<svg xmlns="http://www.w3.org/2000/svg" viewBox="0 -800 1024 1024">
	<path fill="#000000" d="M544 -592H557Q561 -567 579 -561Q593 -557 601 -577L651 -746Q655 -764 632 -769V-781H757V-769Q735 -763 731 -746L709 -674H910Q928 -676 930 -693H943V-622H930Q926 -640 910 -641H700L682 -581Q672 -545 642 -532Q616 -522 588 -528Q558 -534 544 -553ZM74 -425H87Q90 -406 108 -406H144V-708H103Q85 -707 83 -693H70V-763H83Q86 -746 103 -746H260Q279 -747 282 -763H294V-693H282Q279 -708 262 -708H218V-406H254Q271 -408 274 -425H287V-354H274Q272 -370 254 -370H218V-55L261 -76Q280 -85 282 -99H294V-25H282Q276 -45 261 -41L92 38Q75 47 71 61H58V-10H71Q76 11 92 4L144 -20V-370H108Q91 -369 87 -354H74ZM626 -343Q628 -363 606 -364V-377H699V-364Q678 -363 677 -343L665 -58L734 13L740 19V-463H617Q602 -461 597 -444H584V-512H597Q600 -493 617 -493H862Q898 -493 912 -480Q927 -467 927 -437V-345Q926 -329 949 -327V-312H853V-327Q874 -328 876 -345V-441Q877 -464 851 -463H812V-250H894Q912 -251 915 -268H927V-200H915Q911 -218 894 -219H812V34H915Q933 32 936 15H949V83H936Q931 64 915 64H784Q757 64 741 58Q725 53 711 38L663 -10L662 28Q660 58 643 73Q628 84 604 81Q583 77 566 57V17H578Q585 43 595 48Q609 52 611 28ZM287 -669H300Q304 -649 320 -650H399V-738Q400 -767 373 -769V-781H499V-769Q473 -763 474 -738V-650H547Q564 -652 567 -669H580V-599H567Q563 -615 547 -614H409V-454H476Q518 -454 537 -436Q556 -416 556 -376V11Q555 56 525 75Q501 89 471 79Q446 72 429 48V2H442Q450 38 474 43Q494 44 495 16V-388Q495 -420 466 -421H409V8Q409 47 387 67Q363 89 323 81Q286 73 267 48V2H280Q286 34 311 41Q335 46 337 19V-614H320Q304 -613 300 -598H287Z"/>
</svg>