<svg xmlns="http://www.w3.org/2000/svg" viewBox="0 -800 1024 1024">
	<path fill="#000000" d="M555 -722V-550H777V-722ZM555 -514V-340H777V-514ZM555 -304V-112L777 -131V-304ZM85 -425H98Q101 -406 119 -406H183V-712H103Q87 -710 83 -693H70V-763H83Q86 -745 103 -745H347Q365 -746 368 -763H381V-693H368Q364 -711 347 -712H269V-406H328Q346 -408 349 -425H361V-354H349Q345 -372 328 -373H269V-53L344 -77Q362 -84 365 -100H377V-25H365Q362 -40 344 -36L92 40Q75 46 71 61H58V-10H71Q75 9 92 4L183 -25V-373H119Q103 -372 98 -354H85ZM865 33Q866 56 892 62V75H749V62Q776 57 777 33V-95L431 -65Q415 -61 411 -44H398V-117H411Q414 -99 431 -101L467 -104V-722H440Q422 -719 416 -702H403V-775H415Q418 -758 436 -758H899Q917 -759 919 -775H932V-706H919Q915 -723 899 -722H865V-139L915 -144Q933 -148 936 -166H949V-92H936Q932 -110 915 -108L865 -103Z"/>
</svg>