<svg xmlns="http://www.w3.org/2000/svg" viewBox="0 -800 1024 1024">
	<path fill="#000000" d="M292 -397Q314 -399 314 -418L330 -650Q331 -667 311 -669V-682H398V-669Q379 -668 377 -650L361 -418Q360 -399 380 -397V-384H292ZM675 -258H768V-245Q752 -241 752 -229L769 -50Q770 -33 788 -31V-18H695V-31Q710 -33 709 -50L693 -229Q690 -244 675 -245ZM57 -682H145V-669Q124 -667 126 -650L141 -418Q141 -399 163 -397V-384H75V-397Q96 -399 94 -418L78 -650Q78 -668 57 -669ZM390 3H401Q404 21 413 27Q427 33 431 20L448 -175Q450 -192 433 -194V-206H525V-194Q509 -192 508 -175L490 18Q488 41 469 54Q452 63 426 60Q407 57 390 43ZM812 -206H906V-194Q890 -192 891 -178L909 21Q910 29 918 30Q925 31 930 23Q937 16 937 -4H949V44Q934 55 916 60Q892 66 873 56Q852 46 849 19L831 -178Q830 -191 812 -194ZM533 -320H780Q817 -322 819 -361V-415H533ZM533 -670V-575H819V-631Q818 -669 780 -670ZM533 -543V-448H819V-543ZM637 -1Q637 46 681 51Q712 54 747 46Q800 35 804 -5H817V48Q793 66 759 73Q710 85 656 83Q608 80 587 62Q559 42 559 -4V-200Q560 -218 541 -220V-233H655V-220Q636 -220 637 -200ZM188 -738Q188 -768 160 -769V-781H296V-769Q268 -764 268 -738V-356Q268 -314 258 -275H353V-262Q327 -260 333 -239L357 -61Q359 -46 366 -43Q374 -41 382 -52Q391 -64 391 -83H404V-34Q387 -13 372 -7Q346 3 325 -9Q301 -22 296 -61L271 -239Q268 -255 254 -260L193 21Q187 54 160 72Q133 91 98 79Q74 73 58 51V2H71Q75 26 86 35Q106 49 115 20L181 -286Q187 -317 188 -351ZM808 -703Q864 -703 887 -680Q905 -659 905 -621V-375Q905 -333 885 -312Q861 -287 809 -287H423V-300Q447 -305 449 -327V-665Q448 -686 423 -690V-703H592L608 -743Q616 -767 588 -769V-781H725V-769Q701 -765 695 -743L679 -703Z"/>
</svg>