<svg xmlns="http://www.w3.org/2000/svg" viewBox="0 -800 1024 1024">
	<path fill="#000000" d="M548 -639H561Q564 -620 581 -620H783Q800 -622 803 -639H816V-569H803Q798 -588 783 -588H582Q566 -586 562 -569H548ZM635 -90H702Q729 -90 729 -115V-422Q730 -446 702 -445H635ZM58 -536H71Q77 -505 90 -497Q116 -489 125 -515L184 -724H106Q90 -722 86 -705H73V-775H86Q90 -757 106 -757H353Q371 -759 374 -775H386V-705H374Q369 -724 353 -724H267L208 -515Q199 -480 170 -465Q142 -453 107 -457Q80 -461 58 -481ZM169 43H249Q285 42 286 4V-354Q286 -390 249 -391H169ZM580 -442Q581 -461 559 -465V-477H715Q752 -478 765 -468Q784 -455 784 -422V-117Q784 -89 766 -73Q748 -58 715 -58H559V-70Q580 -73 580 -93ZM97 -385Q97 -406 71 -411V-423H264Q317 -423 338 -403Q358 -382 358 -341V-11Q358 31 339 51Q318 76 262 76H71V63Q96 59 97 36ZM510 33Q509 59 537 63V76H407V63Q434 60 433 33V-720Q433 -741 410 -744V-757H838Q893 -757 914 -733Q932 -715 931 -674V-14Q930 42 886 70Q854 89 792 83Q745 79 703 48V-6H716Q725 41 784 48Q851 49 854 -5V-685Q853 -723 815 -724H510Z"/>
</svg>