<svg xmlns="http://www.w3.org/2000/svg" viewBox="0 -800 1024 1024">
	<path fill="#000000" d="M289 -397Q311 -400 311 -419L327 -650Q329 -667 308 -669V-682H392V-669Q373 -668 372 -650L356 -419Q354 -400 375 -398V-385H289ZM58 -682H143V-669Q122 -667 124 -650L140 -419Q138 -400 161 -397V-385H75V-398Q96 -400 94 -419L78 -650Q79 -668 58 -669ZM710 -257Q710 -251 708 -238Q710 -247 708 -235H826V-455Q826 -494 784 -494H710ZM508 -494V-235H623Q626 -246 625 -258V-494ZM263 -334Q263 -304 259 -276H352V-263Q326 -259 331 -239L372 -58Q381 -33 402 -53Q412 -63 415 -90H428V-33Q414 -16 397 -9Q370 1 345 -8Q318 -19 309 -57L268 -239Q265 -252 256 -258L253 -243L189 26Q181 58 152 75Q126 88 98 80Q75 73 58 51V-7H72Q77 25 93 32Q107 38 114 16L175 -249Q186 -292 186 -339V-738Q187 -768 161 -769V-781H289V-769Q263 -765 263 -738ZM673 -122Q670 -128 663 -132L576 27Q555 63 513 77Q481 86 438 79Q406 71 390 52V8H403Q418 46 452 48Q475 46 488 23L610 -201H418Q402 -200 397 -182H385V-253H397Q401 -235 418 -235H438V-490Q438 -511 413 -516V-528H673L729 -647Q736 -664 716 -666H583L553 -599Q540 -570 506 -559Q478 -552 449 -561Q417 -572 406 -587V-635H419Q428 -602 445 -595Q463 -587 474 -608L538 -751Q545 -764 520 -769V-781H648V-769Q628 -765 622 -751L598 -699H757Q795 -699 807 -681Q821 -661 807 -631L757 -528H797Q848 -528 871 -510Q896 -490 896 -444V-235H914Q933 -237 934 -253H947V-182H934Q930 -200 914 -201H700Q699 -199 698 -196Q696 -193 696 -192L673 -151H779V-138Q755 -134 763 -119L841 24Q859 52 891 45Q927 34 936 -7H949V46Q927 71 895 80Q857 91 821 80Q778 68 760 34Z"/>
</svg>