<svg xmlns="http://www.w3.org/2000/svg" viewBox="0 -800 1024 1024">
	<path fill="#000000" d="M430 -552V-501H580V-552ZM780 -366Q813 -365 812 -398V-440Q812 -469 781 -469H662V-366ZM430 -469V-366H580V-469ZM199 -469V-366H349V-469ZM742 -113Q780 -115 782 -151V-169H227V-113ZM227 -255V-199H782V-218Q781 -254 742 -255ZM502 -676H515Q514 -654 535 -650Q550 -647 562 -668L610 -750Q618 -765 591 -768V-781H722V-768Q705 -766 697 -750L689 -736H915Q933 -738 936 -755H949V-685H936Q932 -703 915 -704H827L864 -653Q877 -635 899 -630V-617H763V-630Q795 -633 782 -653L744 -704H670L646 -663Q631 -637 610 -624Q582 -611 548 -617Q517 -622 502 -644ZM58 -688H71Q73 -663 92 -653Q110 -648 123 -669L171 -750Q179 -765 151 -768V-781H283V-768Q265 -766 258 -750L250 -736H483Q501 -738 504 -755H517V-689H504Q501 -705 483 -704H387L421 -653Q435 -634 457 -630V-617H320V-630Q353 -633 339 -653L305 -704H231L207 -663Q190 -634 166 -623Q136 -611 103 -618Q74 -623 58 -643ZM803 -501Q854 -501 874 -488Q896 -474 896 -439V-398Q896 -365 872 -348Q850 -334 804 -334H91V-347Q115 -350 115 -372V-464Q115 -484 91 -488V-501H349V-552H104Q88 -551 83 -533H71V-605H83Q88 -585 104 -585H903Q921 -587 924 -604H937V-533H924Q919 -552 903 -552H662V-501ZM430 63Q458 59 457 32V-4H92Q76 -3 71 15H58V-53H71Q76 -34 92 -34H457V-80H110V-96Q135 -99 136 -122V-248Q135 -267 110 -273V-286H780Q829 -286 853 -266Q873 -251 873 -215V-158Q873 -122 849 -103Q821 -80 777 -80H549V-34H915Q933 -36 936 -53H949V15H936Q931 -4 915 -4H549V32Q548 59 576 63V76H430Z"/>
</svg>