<svg xmlns="http://www.w3.org/2000/svg" viewBox="0 -800 1024 1024">
	<path fill="#000000" d="M457 -620H583V-607Q560 -603 567 -589L596 -534Q604 -519 618 -518V-505H495V-518Q517 -520 509 -535L480 -590Q473 -605 457 -607ZM897 -685Q915 -687 918 -704H930V-634H918Q913 -653 897 -653H435Q419 -651 415 -634H402V-704H415Q418 -685 435 -685H622V-743Q623 -766 595 -768V-781H737V-768Q710 -765 710 -743V-685ZM58 -536H71Q77 -505 90 -497Q115 -488 124 -515L179 -724H106Q90 -722 86 -705H73V-775H86Q90 -757 106 -757H337Q354 -758 357 -775H370V-705H357Q352 -724 337 -724H259L204 -515Q195 -482 164 -465Q137 -453 107 -457Q80 -461 58 -481ZM175 43H239Q275 42 276 4V-354Q276 -390 239 -391H175ZM853 -484Q892 -484 909 -467Q927 -451 927 -418V-369Q928 -346 949 -345V-332H820V-345Q843 -349 843 -369V-421Q844 -452 812 -451H489V-369Q490 -348 512 -345V-332H383V-345Q405 -348 406 -369V-447Q406 -468 383 -471V-484H709L764 -589Q771 -604 747 -607V-620H876V-607Q857 -605 851 -589L796 -484ZM708 32Q706 59 735 63V76H597V63Q625 59 624 32V-259H507V-37Q508 -15 531 -13V0H409V-13Q433 -15 433 -37V-257Q434 -275 410 -279V-292H624V-353Q625 -383 600 -383V-396H732V-383Q708 -380 708 -354V-292H807Q856 -292 878 -271Q899 -251 899 -213V-62Q898 -24 868 -6Q835 10 794 0Q771 -8 754 -23V-72H767Q773 -37 800 -33Q823 -29 825 -57V-219Q823 -257 787 -259H708ZM104 -385Q104 -406 78 -411V-423H252Q305 -423 326 -403Q346 -382 346 -341V-11Q346 31 327 51Q306 76 250 76H78V63Q103 59 104 36Z"/>
</svg>