<svg xmlns="http://www.w3.org/2000/svg" viewBox="0 -800 1024 1024">
	<path fill="#000000" d="M863 -497Q880 -499 883 -516H896V-447H883Q877 -466 863 -466H455Q439 -465 434 -447H421V-516H434Q439 -497 455 -497ZM765 -238H880V-225Q859 -221 862 -203L898 1Q903 23 918 13Q933 5 936 -25H949V25Q935 38 914 46Q878 57 856 45Q831 29 825 -2L790 -203Q788 -220 765 -225ZM368 -25H381Q385 3 400 12Q415 20 419 1L455 -203Q457 -221 437 -225V-238H551V-225Q528 -220 527 -203L492 -2Q487 27 464 43Q440 56 412 48Q386 41 368 25ZM847 -684Q883 -684 903 -670Q925 -654 925 -618V-581Q925 -559 949 -557V-544H816V-557Q839 -561 839 -581V-621Q839 -651 808 -651H478V-581Q478 -560 502 -557V-544H369V-557Q392 -559 392 -581V-646Q393 -667 369 -671V-684H615V-744Q616 -766 587 -769V-781H730V-769Q701 -767 702 -744V-684ZM898 -342Q916 -344 919 -361H931V-291H919Q914 -310 898 -310H701V2Q701 49 674 68Q652 85 607 83Q547 78 520 49V1H533Q540 36 577 45Q615 51 616 15V-310H420Q404 -308 400 -291H387V-361H400Q403 -342 420 -342ZM77 -425H90Q93 -406 110 -406H172V-710H103Q86 -708 83 -693H70V-764H83Q86 -746 103 -746H326Q344 -748 347 -764H360V-695H347Q344 -710 326 -710H255V-406H319Q336 -408 339 -425H352V-354H339Q337 -371 322 -370H255V-58L330 -86Q349 -93 350 -109H363V-34H350Q346 -53 330 -50L92 38Q75 46 71 61H58V-10H71Q75 9 92 4L172 -26V-370H110Q93 -369 90 -354H77Z"/>
</svg>