<svg xmlns="http://www.w3.org/2000/svg" viewBox="0 -800 1024 1024">
	<path fill="#000000" d="M287 -417H377V-404Q358 -402 359 -388L371 -222Q374 -208 391 -212Q408 -219 412 -244H423V-198Q414 -185 395 -179Q371 -171 349 -179Q321 -190 318 -221L306 -388Q304 -401 287 -404ZM568 10Q560 53 522 71Q487 88 436 77Q398 69 365 41V-13H378Q386 25 422 39Q472 52 481 11L524 -268Q525 -287 503 -292V-305H637V-292Q614 -289 611 -268ZM281 -604Q289 -623 270 -625H107Q91 -623 87 -606H74V-676H87Q90 -657 107 -657H176V-738Q177 -762 148 -768V-781H291V-768Q262 -764 263 -738V-657H317Q355 -657 365 -635Q374 -611 361 -585L254 -397V32Q252 57 281 63V76H140V63Q168 59 168 32V-315Q157 -312 146 -312Q89 -311 58 -344V-399H71Q78 -364 99 -356Q133 -344 151 -372ZM529 -390H779Q817 -392 819 -431V-685Q818 -723 779 -724H529ZM808 -5Q810 52 868 44Q926 31 936 -13H949V41Q915 77 840 83Q784 84 753 61Q720 36 720 -13V-357H416V-370Q441 -375 441 -397V-718Q441 -739 416 -744V-757H810Q862 -757 884 -737Q907 -715 907 -674V-445Q907 -404 888 -382Q866 -357 812 -357H808Z"/>
</svg>