<svg xmlns="http://www.w3.org/2000/svg" viewBox="0 -800 1024 1024">
	<path fill="#000000" d="M205 -726V-637H789Q821 -636 820 -667V-699Q821 -727 788 -726ZM624 -273H741V-260Q719 -259 726 -243L746 -205H795L815 -243Q823 -260 801 -260V-273H917V-260Q895 -257 888 -243L868 -205H903Q921 -207 924 -224H937V-156H924Q918 -174 900 -175H811V-122H883Q901 -124 903 -141H916V-74H903Q899 -92 883 -93H811V-36H908Q930 -39 932 -55H945V12H932Q928 -6 912 -7H811V34Q809 59 839 63V76H703V63Q732 60 731 34V-7H633Q617 -5 613 12H600V-55H613Q616 -36 633 -36H731V-93H656Q640 -92 635 -74H622V-141H635Q640 -122 656 -122H731V-175H634Q619 -173 614 -156H601V-224H614Q618 -204 634 -205H673L654 -243Q646 -257 624 -260ZM265 -273H383V-260Q362 -259 369 -243L388 -205H437L457 -243Q464 -259 442 -260V-273H559V-260Q537 -257 530 -243L510 -205H547Q564 -207 567 -224H580V-156H567Q561 -175 547 -175H451V-122H526Q544 -124 547 -141H559V-74H547Q542 -93 526 -93H451V-36H548Q565 -38 568 -55H581V12H568Q562 -7 548 -7H451V17Q451 54 417 73Q388 87 351 83Q307 79 278 60V20H291Q297 49 332 55Q370 56 372 25V-7H267Q251 -6 246 12H233V-55H246Q251 -36 267 -36H372V-93H296Q280 -92 275 -74H262V-141H275Q280 -122 296 -122H372V-175H274Q259 -173 254 -156H241V-224H254Q258 -204 274 -205H316L295 -243Q288 -257 265 -260ZM368 -585H515V-572Q491 -569 499 -555L521 -527H675L698 -555Q705 -569 682 -572V-585H829V-572Q806 -569 795 -555L772 -527H892Q910 -529 913 -546H925V-479H913Q908 -498 892 -498H643V-448H858Q876 -450 879 -467H891V-399H879Q875 -417 858 -418H643V-366H902Q920 -368 923 -385H935V-318H923Q918 -337 902 -337H643V-329Q641 -302 671 -299V-286H526V-299Q555 -302 554 -329V-337H294Q279 -335 274 -318H261V-385H274Q278 -365 294 -366H554V-418H338Q322 -417 317 -399H305V-467H317Q322 -448 338 -448H554V-498H305Q289 -496 285 -479H272V-546H285Q288 -527 305 -527H424L402 -555Q392 -568 368 -572ZM205 7Q204 63 163 73Q139 84 104 74Q76 66 58 46V-4H72Q76 21 93 36Q104 45 112 39Q119 33 119 15V-718Q118 -739 94 -744V-757H822Q862 -757 883 -745Q907 -731 907 -695V-670Q907 -636 886 -621Q866 -607 822 -607H205Z"/>
</svg>