<svg xmlns="http://www.w3.org/2000/svg" viewBox="0 -800 1024 1024">
	<path fill="#000000" d="M109 -667Q111 -682 90 -687V-699H187V-687Q169 -681 168 -668L161 -586H241V-737Q242 -768 213 -769V-781H355V-769Q327 -765 327 -737V-586H401Q419 -587 422 -605H435V-535H422Q418 -552 401 -552H327V-319L403 -350Q422 -358 423 -373H436V-298H423Q419 -318 403 -313L327 -282V31Q326 56 355 62V75H213V62Q241 58 241 31V-248L92 -189Q76 -183 71 -164H58V-240H71Q75 -220 92 -226L241 -285V-552H159L151 -448Q148 -419 134 -404Q114 -384 87 -394Q72 -399 58 -414V-465H70Q72 -444 77 -437Q81 -430 86 -431Q91 -433 92 -441ZM717 -15Q717 46 782 48Q844 47 884 27Q929 4 936 -33H949V29Q920 49 869 66Q817 82 760 85Q694 90 661 60Q629 31 629 -31V-213H466Q451 -211 446 -194H433V-264H446Q449 -247 466 -248H629V-438H490Q474 -436 470 -419H457V-490H470Q473 -471 490 -471H629V-656H478Q464 -655 459 -638H446V-709H459Q462 -690 479 -690H731Q761 -690 775 -708L806 -751Q815 -765 792 -769V-781H939V-769Q919 -766 909 -751L866 -695Q852 -675 828 -665Q804 -656 769 -656H717V-471H892Q910 -473 912 -490H925V-419H912Q909 -437 892 -438H717V-248H915Q934 -249 936 -264H949V-194H936Q931 -213 915 -213H717Z"/>
</svg>