<svg xmlns="http://www.w3.org/2000/svg" viewBox="0 -800 1024 1024">
	<path fill="#000000" d="M157 -725V-505H281V-686Q280 -724 242 -725ZM157 1H242Q280 0 281 -40V-220H157ZM157 -473V-253H281V-473ZM559 -298V-144H815V-256Q816 -299 771 -298ZM559 42H771Q815 42 815 3V-113H559ZM82 -719Q82 -741 58 -745V-757H261Q316 -757 337 -734Q355 -715 355 -675V-54Q355 -10 335 9Q316 35 259 34H58V21Q82 18 82 -6ZM761 -652Q779 -654 782 -671H795V-600H782Q778 -618 761 -619H678V-462H757L834 -702Q843 -728 815 -730V-743H946V-730Q926 -728 917 -702L840 -462H915Q933 -464 936 -481H948V-410H936Q932 -428 915 -429H607L559 -330H798Q863 -331 882 -307Q902 -287 902 -237V-14Q902 31 880 52Q856 75 799 75H445V62Q471 58 472 35V-214Q451 -209 429 -213Q405 -219 386 -238V-289H399Q401 -262 415 -255Q432 -247 442 -267L521 -429H437Q422 -427 417 -410H404V-481H417Q421 -461 437 -462H591V-619H472Q456 -618 451 -600H438V-671H451Q456 -652 472 -652H591V-737Q592 -768 563 -769V-781H706V-769Q678 -765 678 -737V-652Z"/>
</svg>