<svg xmlns="http://www.w3.org/2000/svg" viewBox="0 -800 1024 1024">
	<path fill="#000000" d="M387 -509H327V-403H388Q414 -402 413 -425V-491Q414 -511 387 -509ZM187 -509V-403H274V-509ZM800 -757Q840 -757 854 -746Q870 -733 870 -704V-640Q872 -614 909 -620Q936 -627 936 -654H949V-613Q935 -599 913 -591Q871 -578 836 -587Q793 -598 792 -642V-702Q793 -727 770 -726H667V-646Q667 -613 642 -596Q618 -581 580 -587Q545 -592 526 -612V-651H539Q541 -629 560 -622Q587 -615 589 -640V-721Q589 -740 564 -744V-757ZM230 -781H362V-768Q336 -765 337 -746V-720H483Q501 -722 504 -739H517V-671H504Q499 -689 483 -689H337V-626H458Q476 -628 479 -645H491V-575H479Q474 -594 458 -594H130Q114 -593 109 -575H97V-645H109Q114 -626 130 -626H256V-689H104Q88 -688 83 -670H70V-739H83Q88 -720 104 -720H256V-746Q256 -767 230 -768ZM604 -408Q577 -421 578 -452V-468Q577 -479 560 -478V-491H669V-478Q655 -477 654 -468V-453Q653 -443 668 -437L731 -406L805 -445Q819 -451 818 -468V-505Q818 -520 803 -520H586Q568 -520 565 -506H553V-567H565Q570 -551 586 -551H831Q868 -551 880 -541Q894 -532 894 -502V-463Q895 -430 864 -415L791 -377L865 -342Q901 -324 920 -340Q933 -349 936 -374H949V-329Q938 -317 924 -309Q905 -296 871 -296Q836 -298 808 -311L732 -347L663 -311Q635 -297 602 -294Q575 -291 547 -301Q528 -308 510 -326V-372H522Q526 -341 555 -333Q576 -326 604 -341L671 -376ZM740 44Q777 45 776 13V-64Q778 -99 740 -97H294V44ZM415 -540Q454 -541 468 -530Q486 -519 486 -492V-425Q486 -396 466 -383Q449 -371 415 -371H187V-366Q186 -333 167 -316Q148 -299 110 -302Q80 -305 58 -327V-370H71Q71 -343 91 -338Q111 -334 113 -360V-502Q114 -523 90 -528V-540ZM180 76V62Q204 58 205 37V-47Q178 -38 155 -36Q124 -33 95 -41Q79 -44 58 -60V-116H71Q74 -82 99 -74Q128 -67 151 -88L304 -227H92Q77 -225 71 -208H58V-278H71Q76 -259 92 -259H915Q933 -261 936 -278H949V-208H936Q930 -227 915 -227H413L305 -128H779Q824 -128 845 -110Q864 -91 864 -61V14Q864 45 843 60Q822 76 778 76Z"/>
</svg>