<svg xmlns="http://www.w3.org/2000/svg" viewBox="0 -800 1024 1024">
	<path fill="#000000" d="M63 -668H156V-655Q137 -652 138 -635L154 -468Q156 -450 177 -447V-434H82V-447Q103 -448 101 -467L84 -635Q82 -654 63 -655ZM58 -177H71Q72 -157 78 -147Q84 -136 92 -139Q99 -143 99 -158L105 -350Q106 -368 85 -372V-384H177V-372Q157 -368 157 -351L151 -158Q149 -128 131 -113Q111 -98 84 -108Q70 -115 58 -133ZM787 -201H734V33H820V-168Q820 -201 787 -201ZM593 -201V33H679V-201ZM452 -201V33H538V-201ZM486 -581V-472H787V-542Q786 -580 747 -581ZM747 -327Q785 -329 787 -368V-439H486V-327ZM917 -705Q935 -707 938 -724H950V-653H938Q933 -673 917 -673H291V-4Q290 51 242 74Q195 93 142 73Q119 65 94 41V-12H107Q115 17 137 33Q161 48 182 41Q208 34 208 6V-664Q208 -688 183 -693V-705H530V-743Q531 -767 502 -769V-781H647V-769Q618 -766 619 -743V-705ZM778 -614Q833 -614 854 -591Q872 -572 872 -533V-382Q872 -338 851 -318Q830 -293 776 -294H374V-307Q399 -311 401 -337V-574Q400 -596 374 -601V-614ZM915 33Q933 31 936 14H949V83H936Q932 65 915 64H355Q340 65 335 83H322V14H335Q339 34 355 33H373V-197Q373 -216 349 -221V-233H815Q862 -234 880 -215Q898 -199 898 -162V33Z"/>
</svg>