<svg xmlns="http://www.w3.org/2000/svg" viewBox="0 -800 1024 1024">
	<path fill="#000000" d="M63 -654H153V-641Q132 -638 135 -621L152 -460Q151 -443 175 -440V-427H82V-440Q103 -442 101 -460L84 -620Q85 -641 63 -641ZM58 -176H71Q72 -155 80 -141Q87 -134 93 -138Q99 -143 99 -157L105 -340Q107 -358 86 -361V-374H173V-361Q155 -359 154 -341L148 -157Q146 -128 128 -112Q107 -96 83 -108Q70 -114 58 -131ZM812 -528H700V-374H851V-490Q850 -528 812 -528ZM700 -341V-187H851V-341ZM470 -528V-374H622V-528ZM470 -341V-187H622V-341ZM915 -687Q933 -689 936 -706H949V-635H936Q931 -654 915 -654H285V1Q284 55 232 76Q187 92 139 73Q116 63 92 41V-12H105Q116 30 158 42Q200 45 202 6V-645Q203 -670 177 -674V-687H531V-743Q532 -767 503 -769V-781H647V-769Q618 -766 619 -743V-687ZM700 31Q698 58 724 62V75H597V62Q623 60 622 31V-154H470V10Q470 46 449 65Q428 83 389 83Q344 83 322 43V-5H335Q341 34 363 45Q388 52 390 20V-524Q390 -543 368 -548V-561H839Q894 -561 915 -538Q933 -517 932 -479V-15Q932 43 901 65Q876 85 833 83Q784 82 755 43V-8H768Q779 45 820 46Q852 51 851 0V-154H700Z"/>
</svg>