<svg xmlns="http://www.w3.org/2000/svg" viewBox="0 -800 1024 1024">
	<path fill="#000000" d="M634 -182H780V-169Q754 -163 762 -151L818 -62Q841 -31 882 -45Q913 -58 920 -88H933V-38Q906 -16 873 -7Q833 6 797 -3Q748 -14 723 -56L662 -151Q651 -167 634 -169ZM260 -88H273Q282 -54 319 -42Q355 -36 375 -62L431 -151Q441 -163 414 -169V-182H559V-169Q541 -166 532 -151L470 -56Q451 -20 405 -5Q368 7 326 -4Q287 -15 260 -38ZM293 -368V-266H714V-368ZM293 -650V-546H714V-650ZM293 -510V-406H714V-510ZM201 -737Q202 -768 173 -769V-781H320V-769Q292 -765 293 -737V-686H714V-737Q715 -769 687 -769V-781H835V-769Q806 -764 806 -737V-686H903Q920 -687 923 -704H936V-633H923Q918 -650 903 -650H806V-266H915Q933 -268 936 -284H949V-213H936Q933 -230 915 -230H222V32H889Q907 31 909 13H922V83H909Q904 65 889 64H104V51Q129 47 130 26V-230H92Q75 -229 71 -213H58V-284H71Q75 -266 92 -266H201V-650H104Q89 -648 84 -630H71V-704H84Q88 -685 104 -686H201Z"/>
</svg>