<svg xmlns="http://www.w3.org/2000/svg" viewBox="0 -800 1024 1024">
	<path fill="#000000" d="M168 -92Q167 -64 192 -60V-48H70V-60Q96 -64 95 -92V-439Q96 -469 71 -470V-483H192V-470Q167 -466 168 -439ZM502 -631H515Q515 -602 535 -594Q554 -590 562 -611L610 -750Q616 -766 591 -768V-781H728V-768Q704 -764 699 -750L689 -723H915Q933 -725 936 -742H949V-671H936Q932 -689 915 -690H825L866 -597Q874 -580 902 -575V-562H765V-575Q796 -577 784 -597L741 -690H677L647 -605Q638 -578 611 -564Q583 -551 548 -557Q519 -563 502 -588ZM58 -631H71Q72 -605 92 -596Q113 -590 123 -612L171 -750Q177 -766 151 -768V-781H289V-768Q265 -764 260 -750L250 -723H483Q501 -725 504 -742H517V-671H504Q500 -689 483 -690H386L425 -597Q433 -580 461 -575V-562H324V-575Q354 -576 343 -597L303 -690H238L208 -605Q198 -577 167 -562Q139 -551 106 -558Q70 -565 58 -585ZM268 -491Q269 -517 245 -520V-533H371V-520Q350 -515 349 -493V-6Q349 44 304 68Q264 90 213 82Q168 73 139 42V-8H151Q169 39 210 46Q262 46 268 2ZM731 36Q730 64 755 67V80H625V67Q651 64 650 36V-330H521V-47Q519 -20 546 -16V-3H427V-16Q452 -19 451 -47V-327Q451 -345 427 -350V-363H650V-475H460Q444 -474 439 -456H426V-527H439Q443 -508 460 -508H913Q931 -510 934 -527H947V-456H934Q930 -474 913 -475H731V-363H840Q891 -363 912 -342Q931 -323 931 -277V-94Q931 -49 907 -25Q882 2 844 -7Q815 -14 793 -39V-92H806Q814 -49 834 -48Q858 -51 860 -89V-291Q860 -330 823 -330H731Z"/>
</svg>