<svg xmlns="http://www.w3.org/2000/svg" viewBox="0 -800 1024 1024">
	<path fill="#000000" d="M502 -623H515Q515 -594 535 -585Q553 -582 562 -602L610 -750Q615 -766 591 -768V-781H728V-768Q704 -764 699 -750L688 -718H915Q933 -720 936 -737H949V-667H936Q932 -685 915 -686H823L866 -587Q873 -569 902 -564V-551H765V-564Q795 -565 784 -587L739 -686H677L647 -597Q640 -572 611 -555Q584 -543 548 -548Q519 -555 502 -580ZM58 -623H71Q72 -598 92 -587Q113 -582 123 -603L171 -750Q176 -766 151 -768V-781H289V-768Q265 -764 260 -750L249 -718H483Q502 -719 504 -735H517V-667H504Q500 -685 483 -686H384L425 -587Q432 -569 461 -564V-551H324V-564Q354 -565 343 -587L301 -686H238L208 -597Q198 -569 167 -554Q142 -543 106 -549Q73 -556 58 -576ZM726 -108Q763 -109 764 -139V-304Q764 -331 726 -331H417V-108ZM94 65V52Q118 48 120 26V-466Q119 -487 94 -492V-505H897Q915 -507 918 -523H930V-453H918Q914 -471 897 -472H208V32H914Q931 31 934 14H947V84H933Q930 66 914 65ZM757 -364Q801 -364 824 -348Q848 -332 848 -290V-155Q848 -113 827 -95Q805 -75 758 -75H307V-88Q332 -92 333 -114V-325Q332 -346 308 -351V-364Z"/>
</svg>