<svg xmlns="http://www.w3.org/2000/svg" viewBox="0 -800 1024 1024">
	<path fill="#000000" d="M831 -346H811V-190H868V-310Q867 -345 831 -346ZM710 -346V-190H767V-346ZM610 -346V-190H667V-346ZM266 -397Q286 -399 287 -418L304 -650Q305 -667 285 -669V-682H366V-669Q347 -668 347 -650L330 -418Q328 -400 348 -397V-385H266ZM59 -682H143V-669Q123 -667 125 -650L141 -418Q140 -399 161 -397V-385H76V-397Q95 -399 94 -418L78 -650Q78 -668 59 -669ZM485 -634V-482H803Q834 -482 834 -512V-605Q835 -635 801 -634ZM253 -338Q253 -315 245 -276H337V-263Q313 -261 317 -239L334 -83Q336 -65 344 -61Q352 -59 359 -74Q365 -89 366 -104H379V-49Q368 -33 354 -26Q327 -13 304 -29Q281 -46 278 -79L261 -239Q259 -256 242 -261L240 -249L190 20Q184 48 159 67Q133 87 100 79Q75 74 58 50V-7H71Q76 23 86 31Q107 46 113 16L164 -261Q175 -310 175 -350V-739Q176 -768 149 -769V-781H279V-769Q253 -765 253 -739ZM811 -21Q811 1 830 3V16H748V3Q767 -1 767 -21V-156H710V38Q709 59 728 62V75H650V62Q668 59 667 38V-156H610V35Q609 60 628 62V75H524V62Q545 58 545 35V-341Q545 -362 522 -366V-379H843Q897 -379 915 -357Q933 -338 932 -298V10Q931 51 906 70Q878 90 839 81Q816 77 791 56V25H804Q812 49 835 51Q866 52 868 18V-156H811ZM406 -629Q405 -648 378 -654V-667H614V-742Q614 -765 586 -769V-781H728V-768Q700 -764 700 -742V-667H825Q874 -668 892 -653Q914 -638 914 -604V-516Q914 -480 895 -464Q877 -448 830 -448H485V2Q484 48 451 69Q418 91 377 76Q346 69 322 44V-6H335Q342 26 369 39Q403 52 406 15Z"/>
</svg>