<svg xmlns="http://www.w3.org/2000/svg" viewBox="0 -800 1024 1024">
	<path fill="#000000" d="M265 -660V-673Q293 -676 286 -689L248 -752Q240 -765 218 -768V-781H361V-768Q336 -767 344 -751L380 -689Q390 -673 410 -673V-660ZM436 -240Q448 -253 453 -271H101Q86 -269 81 -252H68V-323H81Q85 -303 101 -304H457V-447H160Q144 -446 139 -428H126V-499H139Q144 -480 160 -480H457V-606H117Q102 -604 97 -587H84V-658H97Q101 -638 117 -639H586L658 -750Q667 -766 640 -768V-781H790V-768Q766 -765 757 -751L684 -639H889Q907 -641 910 -658H923V-587H910Q905 -606 889 -606H548V-480H848Q865 -482 868 -499H881V-428H868Q862 -447 848 -447H548V-304H905Q923 -306 925 -323H938V-252H925Q922 -270 905 -271H546Q542 -233 518 -210L514 -206H652V-193Q626 -190 626 -166V-29Q625 38 695 49Q751 58 831 40Q929 21 936 -33H949V24Q909 55 835 70Q773 84 700 84Q614 83 577 56Q535 27 535 -42V-166Q535 -191 510 -193V-201L299 27Q254 71 191 80Q144 89 102 72Q78 61 58 43V-15H71Q78 33 120 42Q166 46 205 10Z"/>
</svg>