<svg xmlns="http://www.w3.org/2000/svg" viewBox="0 -800 1024 1024">
	<path fill="#000000" d="M265 -658V-671Q294 -673 288 -689L251 -750Q243 -766 220 -768V-781H362V-768Q336 -766 343 -750L380 -689Q390 -672 409 -671V-658ZM866 -207Q884 -209 887 -225H899V-156H887Q882 -174 866 -174H547Q544 -136 515 -116H666V-104Q639 -97 651 -85L808 27Q848 54 891 47Q936 36 936 -8H949V46Q933 68 902 76Q864 87 814 84Q762 79 715 46L525 -89Q523 -90 519 -93Q505 -101 497 -103L270 58Q244 76 197 83Q157 88 118 79Q75 67 58 47V-8H71Q77 36 114 45Q149 51 183 30L434 -147Q450 -158 454 -174H142Q126 -173 121 -156H109V-225H121Q125 -207 142 -207H456V-242Q456 -268 428 -271V-284H576V-271Q548 -267 548 -242V-207ZM908 -358Q926 -360 929 -377H942V-306H929Q924 -325 908 -325H99Q83 -324 78 -306H65V-377H78Q83 -358 99 -358H458V-467H164Q148 -465 144 -448H131V-519H144Q147 -500 164 -500H458V-605H122Q107 -603 102 -586H89V-656H102Q106 -636 122 -637H586L659 -750Q666 -765 641 -768V-781H787V-768Q764 -764 755 -751L682 -637H885Q902 -639 905 -656H918V-586H905Q899 -605 885 -605H548V-500H843Q861 -502 864 -519H876V-448H864Q859 -467 843 -467H548V-358Z"/>
</svg>