<svg xmlns="http://www.w3.org/2000/svg" viewBox="0 -800 1024 1024">
	<path fill="#000000" d="M502 -631H515Q515 -602 535 -593Q553 -590 562 -610L610 -750Q616 -766 591 -768V-781H728V-768Q704 -764 699 -750L688 -720H915Q933 -722 936 -739H949V-669H936Q932 -687 915 -688H823L866 -597Q873 -579 902 -574V-561H765V-574Q796 -576 784 -597L739 -688H677L647 -605Q639 -579 611 -563Q583 -550 548 -556Q519 -563 502 -588ZM58 -631H71Q73 -605 92 -595Q113 -590 123 -611L171 -750Q177 -766 151 -768V-781H289V-768Q265 -764 260 -750L249 -720H483Q501 -722 504 -739H517V-669H504Q500 -687 483 -688H384L425 -597Q432 -579 461 -574V-561H324V-574Q354 -576 343 -597L301 -688H238L208 -605Q199 -577 167 -562Q140 -550 106 -557Q70 -564 58 -584ZM323 -485Q311 -508 277 -517V-530H437V-517Q404 -511 415 -485L446 -421L634 -434L596 -494Q587 -508 567 -511V-524H706V-511Q683 -506 690 -494L727 -441L883 -453Q900 -456 904 -472H916V-401H904Q897 -421 883 -420L462 -389L524 -263L901 -296Q918 -298 922 -315H935V-247H922Q916 -265 901 -264L539 -232L617 -74H709Q739 -73 755 -97L807 -169Q813 -184 789 -188V-201H937V-188Q914 -184 904 -169L849 -93Q829 -64 808 -54Q784 -41 739 -41H633L650 -8Q679 45 751 43Q807 40 860 16Q907 -3 936 -37H949V20Q913 36 848 56Q786 76 737 80Q683 87 641 72Q586 52 562 3L540 -41H134Q118 -39 114 -22H101V-92H114Q117 -74 134 -74H524L451 -224L107 -194Q91 -191 87 -175H73V-246H86Q92 -226 107 -227L435 -255L373 -382L137 -365Q120 -362 116 -346H103V-417H116Q122 -397 137 -398L357 -414Z"/>
</svg>