<svg xmlns="http://www.w3.org/2000/svg" viewBox="0 -800 1024 1024">
	<path fill="#000000" d="M625 -619H734V-607Q713 -603 714 -586V-520Q713 -500 734 -497V-485H625V-497Q646 -501 646 -520V-586Q646 -604 625 -607ZM302 -397Q323 -399 323 -418L337 -650Q340 -667 318 -669V-682H404V-669Q383 -668 382 -650L369 -418Q367 -399 388 -397V-384H302ZM57 -682H143V-669Q123 -667 124 -650L137 -418Q137 -399 159 -397V-384H72V-397Q93 -399 91 -418L78 -650Q78 -668 57 -669ZM842 -456Q888 -456 898 -432Q908 -406 888 -379L817 -295Q787 -259 735 -248Q687 -239 623 -246Q574 -251 519 -273V-325H532Q543 -291 578 -283Q618 -271 664 -275Q708 -280 735 -311L808 -398Q817 -408 814 -415Q810 -422 797 -422H486Q469 -421 465 -405H453V-475H465Q468 -456 486 -456ZM743 -757Q789 -757 813 -742Q834 -728 847 -700L921 -546Q928 -527 948 -522V-510H818V-522Q848 -529 841 -546L768 -694Q753 -725 723 -725H604L518 -546Q511 -528 541 -522V-510H411V-522Q428 -523 439 -546L520 -719Q529 -739 501 -745V-757ZM777 40Q815 39 816 2V-136Q815 -174 777 -175H544V40ZM274 -238Q271 -255 258 -259L192 24Q184 57 157 74Q131 88 98 79Q74 73 58 51V-6H71Q76 23 86 33Q107 50 116 20L183 -274Q191 -306 191 -338V-738Q191 -768 163 -769V-781H298V-769Q270 -764 270 -738V-352Q270 -313 262 -275H361V-262Q336 -259 341 -238L374 -5Q377 12 386 16Q395 20 405 8Q416 -7 418 -28H431V30Q416 48 396 55Q367 66 344 56Q314 43 309 2ZM809 -207Q866 -207 884 -184Q902 -165 902 -125V-12Q902 28 883 50Q861 75 806 75H439V62Q459 61 458 40V-173Q459 -192 439 -195V-207Z"/>
</svg>