<svg xmlns="http://www.w3.org/2000/svg" viewBox="0 -800 1024 1024">
	<path fill="#000000" d="M179 -107Q177 -78 155 -59Q134 -44 103 -50Q81 -54 59 -74V-126H72Q78 -92 91 -85Q112 -80 117 -110L135 -370Q137 -388 114 -391V-404H220V-391Q199 -388 199 -373ZM816 -685Q817 -723 776 -724H662L639 -378H805ZM637 -345L612 32H792L804 -345ZM211 -503Q193 -476 168 -464Q142 -453 105 -458Q81 -461 58 -487V-535H71Q76 -500 96 -493Q126 -489 143 -511L201 -598L98 -746Q85 -770 66 -769V-781H203V-769Q172 -763 184 -746L243 -660L303 -749Q312 -763 286 -769V-781H405V-769Q387 -766 376 -749L281 -607L338 -525Q358 -498 357 -447V-17Q357 35 323 61Q296 85 217 83Q159 78 125 42V-11H137Q143 30 180 42Q217 52 247 40Q272 29 272 -6V-459Q272 -497 261 -513L239 -544ZM904 32Q924 30 927 14H939V83H927Q922 67 904 66H444Q427 67 424 83H411V14H424Q427 32 444 32H528L551 -345H465Q449 -344 444 -326H431V-396H444Q448 -378 465 -378H553L575 -724H469Q453 -722 449 -705H436V-776H449Q452 -757 469 -757H807Q861 -757 881 -734Q902 -712 901 -676L878 32Z"/>
</svg>