<svg xmlns="http://www.w3.org/2000/svg" viewBox="0 -800 1024 1024">
	<path fill="#000000" d="M512 -722V-594H812V-682Q811 -721 768 -722ZM767 -428Q809 -430 812 -474V-558H512V-428ZM502 -3Q506 48 572 39Q630 21 638 -28H651V28Q628 53 593 68Q555 84 516 84Q471 84 445 62Q417 39 418 -9V-303Q419 -332 391 -335V-348H529V-335Q501 -333 502 -303V-192H614Q631 -193 634 -210H647V-140H634Q629 -158 614 -159H502ZM778 -4Q782 47 856 42Q923 30 935 -28H948V28Q929 50 897 64Q862 80 820 83Q760 86 726 61Q693 37 693 -12V-303Q694 -331 667 -335V-348H804V-335Q777 -333 778 -303V-192H814Q842 -191 848 -214L868 -286Q874 -301 850 -305V-318H949V-305Q931 -301 927 -286L909 -217Q898 -179 881 -169Q860 -156 822 -156H778ZM76 -425H89Q92 -406 109 -406H174V-712H103Q87 -710 83 -693H70V-763H83Q86 -746 103 -746H338Q352 -746 353 -763H366V-693H353Q350 -712 338 -712H257V-406H330Q348 -408 351 -425H364V-354H351Q348 -370 330 -370H257V-50L346 -78Q364 -84 366 -100H379V-25H366Q362 -42 346 -38L92 40Q75 46 71 61H58V-10H71Q74 8 92 2L174 -24V-370H109Q92 -368 89 -354H76ZM804 -758Q856 -758 879 -733Q900 -712 899 -674V-486Q899 -442 877 -421Q854 -396 801 -396H399V-408Q424 -412 425 -436V-720Q424 -741 399 -745V-758Z"/>
</svg>