<svg xmlns="http://www.w3.org/2000/svg" viewBox="0 -800 1024 1024">
	<path fill="#000000" d="M103 -346H237V-333Q215 -331 223 -314L305 -171Q311 -160 332 -156V-143H198V-156Q221 -157 215 -174L134 -316Q125 -329 103 -333ZM665 -156Q685 -159 693 -171L774 -314Q782 -331 761 -333V-346H894V-333Q872 -329 864 -316L783 -174Q777 -157 800 -156V-143H665ZM427 -134Q454 -156 454 -191V-343Q454 -368 427 -372V-384H570V-372Q543 -364 543 -343V-204Q543 -166 536 -147Q530 -129 517 -115H634V-103Q610 -97 621 -85L777 23Q822 52 878 42Q926 31 936 -14H949V42Q929 64 894 73Q850 86 800 82Q738 76 706 56L502 -85Q500 -86 497 -88Q493 -91 490 -92L314 49Q284 72 220 81Q168 87 123 76Q87 67 58 42V-13H71Q85 32 141 42Q194 51 232 23ZM776 -757Q833 -758 854 -734Q875 -713 875 -670V-515Q875 -472 854 -451Q829 -426 776 -426H139Q123 -424 118 -407H105V-477H118Q121 -460 138 -460H739Q786 -457 783 -501V-575H178Q162 -574 157 -556H144V-627H157Q161 -608 178 -608H783V-690Q782 -724 739 -725H139Q123 -724 118 -706H105V-776H118Q122 -757 139 -757Z"/>
</svg>