<svg xmlns="http://www.w3.org/2000/svg" viewBox="0 -800 1024 1024">
	<path fill="#000000" d="M712 -54Q713 -40 735 -35V-23H619V-35Q640 -37 639 -54L606 -346Q604 -363 582 -364V-377H698V-364Q679 -361 680 -346ZM547 -54Q549 -39 570 -35V-23H453V-35Q476 -37 473 -55L427 -346Q424 -363 404 -364V-377H518V-364Q498 -361 501 -346ZM157 -725V-505H286V-686Q285 -724 247 -725ZM157 1H247Q285 0 286 -40V-220H157ZM157 -473V-253H286V-473ZM587 -725L528 -542H811L762 -694Q752 -725 715 -725ZM915 32Q933 30 936 14H949V83H936Q932 65 915 64H420Q404 65 399 83H387V14H399Q402 32 420 32H756L825 -346Q827 -360 807 -364V-377H923V-364Q903 -363 900 -346L830 32ZM502 -458Q496 -438 522 -434V-421H392V-434Q413 -436 420 -457L503 -719Q508 -740 483 -745V-757H751Q787 -757 810 -744Q834 -729 844 -698L922 -457Q928 -436 948 -434V-421H817V-434Q846 -439 839 -457L822 -509H518ZM82 -719Q82 -741 58 -745V-757H267Q322 -757 343 -734Q361 -713 361 -675V-54Q361 -10 341 9Q321 35 265 34H58V21Q82 18 82 -6Z"/>
</svg>