<svg xmlns="http://www.w3.org/2000/svg" viewBox="0 -800 1024 1024">
	<path fill="#000000" d="M741 -264Q779 -266 781 -305V-342H547V-264ZM742 -452H547V-374H781V-413Q780 -451 742 -452ZM225 -342V-264H459V-342ZM225 -452V-374H459V-452ZM365 -89V-76Q344 -75 329 -58L254 19Q232 44 194 55Q154 66 111 57Q78 49 58 28V-14H71Q77 17 108 23Q141 28 167 4L226 -56Q236 -69 212 -76V-89ZM795 -89V-76Q771 -69 781 -56L840 4Q866 28 899 23Q930 17 936 -14H949V28Q929 49 896 57Q853 66 813 55Q775 44 753 19L678 -58Q663 -75 642 -76V-89ZM471 -651V-638Q453 -635 433 -618L373 -567Q340 -537 286 -527Q235 -519 184 -527Q135 -532 110 -545V-590H123Q129 -569 159 -559Q190 -552 228 -559Q264 -568 283 -584L320 -614Q335 -633 304 -638V-651ZM704 -651V-638Q673 -633 688 -614L725 -584Q744 -568 780 -559Q818 -552 849 -559Q879 -569 886 -590H899V-545Q873 -532 825 -527Q774 -519 722 -527Q668 -537 635 -567L575 -618Q555 -635 537 -638V-651ZM855 -722Q893 -722 910 -705Q925 -688 925 -659V-638Q926 -616 950 -614V-602H815V-614Q840 -620 839 -638V-660Q840 -690 807 -689H168V-638Q168 -617 192 -614V-602H57V-614Q81 -616 82 -638V-685Q82 -706 57 -709V-722H458V-743Q458 -765 430 -768V-781H576V-768Q548 -764 548 -743V-722ZM547 32Q546 58 575 63V76H431V63Q460 59 459 32V-133H98Q82 -132 77 -114H65V-184H77Q81 -166 98 -166H459V-231H112V-244Q136 -248 137 -271V-446Q137 -467 112 -472V-485H772Q829 -485 850 -462Q869 -442 869 -404V-316Q869 -276 847 -254Q824 -230 770 -231H547V-166H908Q926 -168 929 -184H941V-114H929Q924 -133 908 -133H547Z"/>
</svg>