<svg xmlns="http://www.w3.org/2000/svg" viewBox="0 -800 1024 1024">
	<path fill="#000000" d="M58 -536H71Q77 -505 90 -497Q115 -488 124 -515L179 -724H106Q90 -722 86 -705H73V-775H86Q90 -757 106 -757H345Q363 -759 366 -775H379V-705H366Q361 -724 345 -724H260L205 -515Q196 -480 168 -465Q140 -453 107 -457Q80 -461 58 -481ZM169 43H234Q270 42 271 4V-354Q271 -390 234 -391H169ZM848 -687Q889 -687 905 -668Q920 -650 920 -620V-587Q920 -565 944 -563V-550H813V-563Q837 -569 836 -587V-625Q837 -656 805 -654H505V-587Q505 -566 528 -563V-550H397V-563Q421 -565 421 -587V-649Q421 -670 398 -674V-687H628V-741Q629 -765 600 -768V-781H741V-767Q712 -764 713 -741V-687ZM777 -1Q778 41 822 49Q867 54 901 35Q932 14 936 -21H949V35Q928 55 899 69Q861 85 815 84Q768 84 742 65Q708 41 708 -9V-461Q707 -483 682 -487V-500H835Q881 -500 900 -486Q920 -468 920 -431V-187Q920 -154 902 -133Q878 -109 846 -117Q821 -123 804 -147V-194H815Q822 -159 839 -153Q859 -150 860 -179V-439Q860 -467 828 -467H777ZM578 -408Q583 -439 555 -438H511L497 -374Q491 -346 471 -331Q447 -314 415 -323Q394 -329 376 -344V-391H389Q391 -357 413 -353Q430 -352 435 -373L464 -500Q468 -518 446 -519V-532H550V-519Q529 -516 526 -500L519 -471H579Q619 -471 634 -454Q652 -435 647 -395L599 -1Q592 49 553 69Q517 88 464 83Q410 76 377 44V3H390Q402 51 467 53Q520 48 527 3L540 -102H486Q449 -102 434 -115Q420 -129 416 -158L403 -262Q402 -276 382 -280V-293H477V-280Q458 -277 460 -262L474 -157Q477 -134 499 -135H544ZM100 -385Q100 -406 74 -411V-423H247Q299 -423 320 -403Q341 -382 341 -341V-11Q341 31 321 51Q301 76 245 76H74V63Q99 59 100 36Z"/>
</svg>