<svg xmlns="http://www.w3.org/2000/svg" viewBox="0 -800 1024 1024">
	<path fill="#000000" d="M381 -516Q369 -542 375 -572Q342 -572 316 -551Q314 -524 333 -497Q370 -511 381 -516ZM486 -589Q485 -590 481 -587Q478 -584 475 -586Q475 -590 480 -596Q484 -601 481 -604Q459 -601 446 -593Q445 -578 452 -559Q458 -543 458 -531Q473 -535 481 -531Q490 -571 486 -589ZM676 -663Q639 -657 594 -638Q599 -609 576 -552Q588 -554 593 -554Q603 -554 613 -551Q638 -595 664 -636Q675 -653 676 -663ZM656 -13Q656 3 644 6V-13Q646 -15 650 -15Q652 -15 656 -13ZM875 -427Q853 -425 842 -410H820Q766 -410 697 -394Q566 -376 413 -328Q377 -269 305 -136Q229 5 177 90Q170 92 160 101Q147 113 135 113Q130 113 126 112Q124 104 121 96Q116 96 112 100Q107 105 104 105Q100 90 91 81Q81 73 74 62Q74 59 73 55Q76 38 78 20V18Q74 5 67 -4V-7Q67 -16 76 -35Q84 -51 85 -57Q87 -69 87 -96Q87 -128 86 -161Q86 -192 92 -205Q96 -126 109 -82Q111 -87 111 -101V-123Q114 -117 117 -105Q121 -88 126 -84Q135 -94 148 -120Q167 -157 181 -167Q178 -124 158 -96Q142 -66 147 -30Q188 -76 221 -136Q254 -196 286 -258Q268 -255 247 -258Q242 -258 237 -259Q231 -270 203 -279Q181 -286 181 -306Q181 -318 188 -332Q183 -342 183 -356Q183 -380 204 -397Q220 -410 245 -415Q245 -409 243 -401Q253 -396 267 -396Q278 -396 298 -401Q320 -407 330 -407Q570 -447 817 -497Q822 -477 873 -484Q862 -472 850 -461Q853 -458 871 -452Q856 -450 853 -440Q854 -433 875 -427ZM469 -248Q466 -240 463 -233H460Q453 -233 449 -225Q447 -226 444 -226Q433 -226 421 -212V-213Q421 -226 399 -226Q392 -226 384 -224Q394 -232 398 -233Q384 -244 386 -257Q388 -270 401 -279Q419 -286 428 -286Q438 -286 445 -279Q453 -283 458 -287L460 -286Q457 -281 457 -279Q457 -275 463 -265Q469 -255 469 -248ZM786 -199Q786 -164 783 -154Q783 -142 777 -139Q774 -162 771 -166Q761 -158 758 -132V-112Q758 -69 767 -59Q772 -66 773 -91Q774 -109 777 -116Q780 -110 780 -95Q780 -79 779 -63Q780 -55 780 -48V-46Q778 -38 768 -27Q758 -17 757 -10Q753 -12 750 -12Q739 -12 737 9Q733 -3 731 -15Q728 -28 716 -30Q714 -42 712 -54Q707 -55 702 -57Q712 -87 712 -116Q712 -123 710 -137Q706 -150 701 -163Q697 -181 698 -192Q699 -214 708 -227Q717 -240 726 -258Q734 -256 737 -255Q739 -273 744 -283Q747 -276 746 -266Q746 -255 753 -253Q753 -265 752 -277Q759 -267 763 -251Q770 -240 778 -228Q785 -217 786 -199ZM924 -341Q921 -334 914 -327Q913 -322 912 -317Q908 -312 904 -308Q904 -297 896 -287Q892 -262 884 -241Q885 -239 885 -235Q883 -224 880 -214Q876 -215 876 -223Q877 -228 877 -233Q877 -237 874 -240Q862 -235 859 -220Q858 -215 858 -191V-160Q858 -141 856 -132Q856 -121 856 -111Q856 -79 863 -64Q872 -75 872 -106V-137Q872 -156 874 -164Q874 -170 880 -172Q883 -167 883 -160Q883 -159 880 -141Q882 -135 882 -131Q880 -113 878 -96V-91Q879 -74 879 -58Q879 -43 877 -36Q872 -37 870 -45Q869 -50 865 -52Q855 -51 855 -33Q855 -12 867 -12H868Q871 -13 872 -20Q872 -24 874 -26Q879 -21 879 -17Q879 -11 878 -6V-3Q878 -2 883 10V32Q886 54 892 72Q894 90 894 94Q894 113 880 124Q878 127 862 135Q853 140 843 145H838Q823 144 813 133Q802 123 793 115V114Q792 98 778 92Q764 87 750 80H754Q763 81 771 82Q767 78 747 74Q724 70 718 64Q739 67 759 70Q754 66 734 63Q712 59 706 53Q737 57 768 60Q774 60 786 58Q800 42 802 0Q803 -16 809 -141Q811 -161 811 -169V-171Q810 -178 809 -185V-189Q811 -212 813 -236Q814 -247 814 -259Q814 -284 810 -301Q806 -316 799 -327Q789 -341 777 -341Q767 -341 759 -334Q761 -341 771 -347Q781 -353 783 -358Q772 -356 761 -355Q766 -366 780 -377Q815 -401 850 -403Q876 -404 900 -380Q920 -358 924 -341ZM894 -681Q886 -669 883 -652Q858 -648 845 -633L846 -631L850 -632L852 -629V-627Q840 -626 833 -620Q826 -614 818 -609Q817 -611 817 -616Q817 -622 823 -632Q830 -644 831 -652L830 -654Q824 -656 821 -656Q811 -656 802 -647Q793 -638 792 -627Q733 -605 713 -528Q733 -547 753 -573Q773 -600 808 -603Q767 -571 712 -490Q579 -479 551 -479Q538 -479 510 -477Q479 -475 420 -462Q368 -449 339 -437Q332 -434 323 -428Q307 -417 299 -415Q294 -414 285 -414H281Q271 -414 267 -411Q264 -419 259 -425Q253 -432 247 -432L244 -431L247 -442Q243 -448 229 -467Q214 -486 208 -500Q226 -497 244 -473Q258 -455 267 -451Q243 -539 180 -551V-548Q180 -541 191 -531Q201 -521 201 -514Q201 -511 200 -509Q174 -518 155 -539Q134 -563 134 -593Q134 -612 143 -630Q135 -646 133 -678Q141 -659 155 -647Q158 -653 152 -663Q147 -670 147 -675Q152 -674 158 -668Q163 -663 166 -663Q174 -663 175 -666Q172 -673 167 -681L180 -677Q190 -683 200 -689Q210 -692 218 -691Q268 -687 297 -643Q369 -659 433 -680Q472 -689 493 -697Q526 -714 562 -717Q575 -717 581 -715Q561 -704 490 -684Q432 -668 411 -644Q447 -648 482 -660Q516 -672 550 -681Q579 -688 621 -701Q665 -714 679 -734H676Q664 -732 652 -731Q645 -731 643 -734Q649 -744 661 -747Q673 -751 686 -754Q723 -766 739 -769Q750 -791 774 -791Q816 -786 837 -757Q843 -758 849 -760L850 -756Q850 -752 849 -749Q849 -746 852 -743Q856 -745 859 -748Q864 -754 869 -754H870Q863 -750 863 -740Q863 -734 867 -728H868Q871 -730 874 -732L875 -731V-728Q879 -699 894 -681ZM624 -728Q622 -720 606 -720Q597 -720 594 -725Q596 -734 612 -734Q623 -734 624 -728ZM647 14Q650 10 649 14V25Q649 28 651 34Q657 4 664 -18V-9Q663 11 662 30Q662 42 666 49Q670 44 672 27Q674 14 676 9Q680 38 684 49Q691 69 705 76Q706 85 710 89Q715 93 718 98Q719 106 720 114Q707 120 698 128Q689 135 672 136H669Q640 135 617 119Q594 104 571 86Q509 40 478 32Q465 41 459 55Q452 69 446 83Q437 111 405 116Q397 110 383 106Q364 100 359 94Q353 86 349 78Q345 70 334 68H331Q321 70 311 71Q314 66 324 62Q333 59 335 57Q327 57 319 56Q307 56 284 61Q256 67 241 67H238Q284 50 331 41Q374 31 401 -2Q399 -1 392 -1Q376 -5 360 -9Q329 -14 325 -18Q322 -22 321 -33Q320 -47 313 -50V-64Q313 -88 322 -94Q320 -90 320 -87Q320 -77 327 -75Q330 -77 329 -80Q329 -84 331 -84L334 -85Q338 -83 342 -81H344Q357 -82 369 -83Q373 -83 375 -82Q385 -81 401 -67Q418 -52 428 -51Q425 -48 435 -38Q449 -64 449 -79Q449 -90 444 -98Q459 -124 500 -124Q510 -124 514 -123Q523 -121 530 -109Q537 -97 544 -97H545Q544 -94 544 -88Q544 -82 545 -78Q540 -78 536 -71Q533 -65 530 -63Q530 -100 514 -100H513Q514 -96 514 -88Q512 -65 502 -51Q494 -47 494 -31Q499 -33 505 -44Q512 -57 521 -59Q528 -55 525 -47Q543 -63 564 -71Q563 -75 562 -79Q565 -81 589 -81Q599 -81 611 -78Q607 -84 599 -90Q591 -96 589 -101Q599 -102 610 -101Q599 -122 580 -139Q561 -155 543 -170Q544 -158 560 -143Q577 -127 579 -113Q565 -120 542 -147Q524 -168 513 -176Q482 -151 458 -131Q434 -112 409 -80Q395 -94 386 -94Q380 -94 377 -90L376 -93Q376 -94 379 -100Q372 -119 360 -130V-135Q360 -151 352 -170Q345 -186 344 -193Q353 -176 364 -163Q365 -171 371 -183L372 -185Q382 -177 392 -169Q456 -212 470 -225Q483 -238 486 -248V-257Q486 -280 474 -292V-297Q474 -300 469 -310Q466 -334 486 -341Q508 -356 528 -335Q538 -324 538 -295Q546 -303 546 -314V-325Q556 -322 556 -312Q556 -300 547 -278Q581 -300 597 -319Q633 -326 657 -306Q661 -269 631 -240Q605 -240 581 -237Q564 -237 557 -235Q583 -197 634 -168Q637 -175 639 -183Q642 -182 642 -175Q642 -167 645 -167Q651 -177 651 -203Q651 -212 650 -222Q650 -248 656 -260Q658 -212 659 -164Q661 -163 663 -163Q664 -162 668 -152Q669 -156 669 -165V-179Q669 -192 673 -196Q673 -150 690 -123Q689 -111 676 -89Q686 -76 696 -71Q695 -69 695 -63Q695 -55 698 -54L688 -40Q632 -37 596 -18Q580 -9 571 -9Q560 -9 556 -20H551Q532 -24 513 -28Q506 -25 504 -16Q504 -13 510 -10Q516 -7 517 -2Q527 1 537 5Q546 8 547 18V21Q537 17 527 9Q525 10 521 10Q513 8 505 6Q510 19 547 34Q583 51 603 51Q610 51 614 50Q608 46 592 41Q571 34 563 27Q571 25 575 25Q583 25 600 32Q615 38 624 38Q627 38 638 24Q644 16 647 14Z"/>
</svg>