<svg xmlns="http://www.w3.org/2000/svg" viewBox="0 -800 1024 1024">
	<path fill="#000000" d="M546 -136H558Q562 -112 577 -104Q589 -101 597 -120L642 -263Q647 -280 624 -281V-294H719V-281Q700 -278 696 -263L682 -219H761V-207Q739 -205 744 -189L764 -120Q771 -101 783 -104Q798 -112 802 -136H814V-94Q799 -82 783 -76Q761 -70 742 -79Q722 -89 712 -117L692 -188Q688 -200 677 -204L650 -117Q643 -93 623 -81Q607 -70 581 -76Q565 -79 546 -94ZM362 -632Q380 -633 382 -650H394V-579H382Q378 -597 361 -598H107Q92 -596 87 -579H74V-650H87Q91 -632 107 -632H194V-743Q195 -766 168 -768V-781H300V-768Q272 -765 274 -743V-632ZM197 -148Q198 -129 218 -127V-114H114V-127Q135 -129 132 -148L107 -491Q106 -510 86 -511V-524H188V-511Q170 -509 172 -491ZM771 -484Q809 -485 811 -524V-587H528V-484ZM528 -724V-620H811V-685Q810 -723 771 -724ZM402 1V-12Q428 -16 428 -37V-196Q429 -225 402 -226V-239H539V-226Q513 -222 513 -196V-32H758Q776 -33 780 -51H792V20H780Q775 2 758 1ZM359 -112Q377 -119 380 -135H393V-61H380Q375 -81 359 -77L91 13Q76 19 71 35H58V-39H71Q76 -17 91 -22L255 -77L288 -492Q289 -509 269 -511V-524H373V-511Q352 -509 353 -492L322 -100ZM388 -350H400Q407 -325 416 -315Q432 -302 446 -323L520 -450H418V-463Q440 -469 441 -490V-718Q441 -737 418 -744V-757H802Q853 -757 875 -737Q899 -716 899 -674V-538Q899 -496 879 -475Q857 -450 803 -450H607L560 -370H832Q891 -371 912 -350Q932 -329 932 -279V-8Q932 38 902 61Q874 84 814 84Q741 83 702 58V17H715Q725 43 757 52Q792 60 819 49Q847 35 847 4V-297Q849 -339 809 -337H541L529 -315Q515 -289 482 -279Q458 -271 433 -277Q403 -284 388 -298Z"/>
</svg>