<svg xmlns="http://www.w3.org/2000/svg" viewBox="0 -800 1024 1024">
	<path fill="#000000" d="M335 -143H400V-130Q385 -128 386 -116L400 49Q401 61 416 62V75H350V62Q366 60 365 49L361 11Q349 40 334 59Q315 83 293 80Q258 73 256 28V-572Q257 -597 234 -599V-612H339V-599Q314 -596 316 -573V17Q316 26 320 27Q325 28 331 22Q345 2 358 -28L350 -116Q350 -127 335 -130ZM495 -63Q497 -6 521 20Q547 51 633 53Q734 57 824 40Q930 18 936 -34H949V30Q879 60 802 70Q720 85 634 84Q515 84 472 54Q426 23 422 -69L396 -573Q396 -598 376 -599V-612H490V-599Q466 -596 469 -573ZM178 21Q178 53 163 67Q138 89 97 77Q73 70 58 53V1H71Q74 21 79 31Q86 45 96 41Q105 36 105 17V-661Q106 -687 80 -690V-704H355Q388 -702 397 -724L411 -754Q416 -765 394 -769V-781H526V-769Q507 -765 500 -754L480 -713Q468 -687 447 -678Q425 -668 391 -668H178ZM513 -562H526Q527 -538 538 -531Q550 -528 553 -546L565 -713Q567 -730 545 -734V-747H643V-734Q623 -730 622 -715L617 -652H698V-742Q700 -768 672 -769V-781H805V-769Q778 -765 779 -742V-652H880Q898 -654 901 -671H913V-600H901Q897 -618 880 -619H779V-468Q779 -453 778 -443H910Q928 -445 931 -462H943V-391H931Q927 -409 910 -410H772Q772 -409 771 -406Q769 -401 767 -393L755 -351H845V-338Q824 -334 827 -317L887 -105Q896 -74 918 -89Q936 -104 936 -131H949V-75Q934 -51 910 -43Q876 -32 847 -47Q819 -62 809 -97L747 -317L746 -318L688 -100Q676 -58 642 -40Q612 -27 575 -42Q549 -52 533 -75V-131H546Q547 -104 570 -85Q593 -68 603 -96L689 -408V-410H555Q539 -409 534 -391H522V-462H534Q539 -443 555 -443H696Q698 -453 698 -468V-619H615L610 -546Q607 -516 588 -503Q573 -492 545 -497Q525 -501 513 -521Z"/>
</svg>