<svg xmlns="http://www.w3.org/2000/svg" viewBox="0 -800 1024 1024">
	<path fill="#000000" d="M306 -397Q328 -399 327 -418L344 -650Q346 -667 325 -669V-682H414V-669Q393 -668 392 -650L376 -418Q374 -399 395 -397V-384H306ZM58 -682H147V-669Q126 -667 128 -650L143 -418Q143 -399 165 -397V-384H76V-397Q97 -399 95 -418L79 -650Q78 -668 58 -669ZM378 21Q383 44 404 40Q429 27 433 -3H446V51Q428 70 409 77Q373 89 344 76Q315 59 307 21L270 -238Q267 -251 261 -256L193 21Q185 53 160 71Q132 90 97 79Q76 74 58 51V-3H71Q76 28 86 38Q106 52 115 21L183 -260Q194 -303 194 -349V-738Q194 -768 166 -769V-781H303V-769Q275 -764 275 -738V-360Q275 -321 265 -275H361V-262Q336 -260 341 -238ZM756 -185H881V-172Q859 -167 864 -146L907 37Q913 58 935 62V75H809V62Q832 60 827 37L821 11Q661 65 535 67Q482 68 467 39Q453 10 480 -31L658 -296Q604 -286 517 -283Q468 -282 452 -310Q437 -339 460 -374L618 -609H461Q446 -607 441 -590H428V-660H441Q446 -640 461 -641H634V-743Q634 -765 606 -769V-781H752V-769Q723 -765 724 -743V-641H901Q918 -643 921 -660H934V-590H921Q916 -608 901 -609H715L539 -348Q532 -337 536 -329Q540 -321 553 -322Q615 -322 682 -331L760 -447Q773 -465 746 -471V-484H890V-471Q870 -467 858 -447L556 -2Q548 11 553 18Q558 26 573 25Q683 20 814 -15L783 -146Q779 -170 756 -172Z"/>
</svg>