<svg xmlns="http://www.w3.org/2000/svg" viewBox="0 -800 1024 1024">
	<path fill="#000000" d="M733 -482H499V-350H775V-441Q773 -480 733 -482ZM499 -208Q499 -197 498 -186H732Q772 -189 775 -223V-318H499ZM502 -632H515Q516 -602 535 -597Q554 -593 562 -614L610 -750Q616 -766 591 -768V-781H728V-768Q704 -764 699 -750L687 -719H915Q933 -721 936 -738H949V-667H936Q932 -685 915 -686H825L866 -597Q873 -579 902 -574V-561H765V-574Q796 -576 784 -597L741 -686H675L647 -608Q638 -581 611 -567Q583 -554 548 -560Q519 -566 502 -591ZM58 -632H71Q72 -607 92 -599Q113 -592 123 -615L171 -750Q177 -766 151 -768V-781H289V-768Q265 -764 260 -750L248 -719H483Q501 -721 504 -738H517V-667H504Q500 -685 483 -686H386L425 -597Q432 -579 461 -574V-561H324V-574Q354 -576 343 -597L303 -686H236L208 -608Q198 -580 167 -565Q141 -555 106 -561Q72 -568 58 -587ZM769 -514Q818 -514 842 -492Q863 -473 863 -430V-350H915Q933 -352 936 -369H949V-299H936Q932 -317 915 -318H863V-234Q863 -192 840 -173Q814 -152 769 -153H488Q483 -142 474 -134L273 40Q238 71 202 80Q161 88 120 80Q85 73 58 50V3H71Q82 40 114 44Q148 46 192 10L378 -153H158Q143 -152 138 -133H125V-204H138Q142 -186 158 -186H405Q411 -203 411 -221V-318H92Q76 -317 71 -299H58V-369H71Q76 -350 92 -350H411V-482H158Q143 -481 138 -463H125V-533H138Q141 -514 158 -514Z"/>
</svg>