<svg xmlns="http://www.w3.org/2000/svg" viewBox="0 -800 1024 1024">
	<path fill="#000000" d="M70 -369H83Q86 -340 110 -326Q137 -312 151 -340L213 -479Q218 -497 193 -501V-514H342V-501Q317 -497 308 -479L242 -333Q228 -300 197 -289Q162 -277 123 -290Q91 -299 70 -318ZM383 -292H538V-279Q507 -274 516 -256L619 -77Q627 -62 651 -59V-46H494V-59Q525 -64 519 -82L417 -261Q407 -277 383 -279ZM244 32Q243 56 270 63V76H128V63Q156 59 155 32V-208Q156 -239 128 -239V-252H270V-239Q243 -235 244 -208ZM502 -620H515Q515 -593 535 -583Q553 -580 562 -600L610 -750Q615 -766 591 -768V-781H728V-768Q704 -764 699 -750L688 -718H915Q933 -720 936 -737H949V-666H936Q932 -684 915 -685H823L866 -586Q873 -568 902 -563V-550H765V-563Q795 -564 784 -586L739 -685H677L647 -595Q640 -570 611 -553Q583 -540 548 -546Q519 -553 502 -578ZM58 -620H71Q72 -595 92 -585Q113 -579 123 -601L171 -750Q176 -766 151 -768V-781H289V-768Q265 -764 260 -750L249 -718H483Q501 -720 504 -737H517V-666H504Q500 -684 483 -685H385L425 -586Q432 -568 461 -563V-550H324V-563Q354 -564 343 -586L301 -685H238L208 -595Q199 -567 167 -552Q140 -540 106 -547Q70 -554 58 -574ZM745 -478Q746 -500 719 -501V-514H861V-501Q835 -498 835 -478V-401H915Q933 -403 935 -420H948V-349H935Q932 -367 915 -368H835V-23Q834 43 762 71Q707 91 625 81Q556 69 522 42V-12H535Q556 42 644 51Q741 51 745 -10V-368H377Q361 -366 357 -349H344V-420H357Q360 -401 377 -401H745Z"/>
</svg>