<svg xmlns="http://www.w3.org/2000/svg" viewBox="0 -800 1024 1024">
	<path fill="#000000" d="M369 -79V-7H356Q351 -26 335 -23L83 44Q66 50 63 66H49V-5H62Q66 16 83 11L335 -56Q355 -63 356 -79ZM940 -473V-460H844V-473Q862 -476 861 -492L833 -666Q829 -682 813 -683V-696H908V-683Q890 -679 892 -666L921 -492Q924 -475 940 -473ZM813 -781V-768Q787 -764 787 -736V-414Q785 -386 810 -382V-369H687V-382Q711 -387 710 -414V-736Q711 -767 684 -768V-781ZM369 -572V-559Q349 -554 341 -540L148 -229Q139 -215 144 -209Q148 -203 166 -202Q230 -202 297 -231Q334 -250 339 -282H351V-223Q326 -204 261 -186Q203 -168 152 -166Q91 -165 78 -187Q62 -214 89 -260L212 -459Q178 -451 138 -449Q98 -448 81 -466Q61 -496 83 -536L210 -749Q216 -763 191 -768V-781H318V-768Q298 -764 290 -749L145 -509Q134 -490 160 -488Q192 -487 234 -495L262 -539Q267 -553 247 -559V-572ZM812 3V-149Q811 -187 775 -188H502V43H775Q810 41 812 3ZM949 -381V-328Q905 -298 839 -287Q744 -272 681 -282Q603 -294 564 -341L531 -382L509 -337Q492 -303 451 -291Q414 -282 378 -289Q336 -301 311 -324V-370H325Q333 -333 386 -325Q419 -323 435 -350L482 -444L426 -516Q416 -528 396 -531V-544H514V-531Q494 -527 502 -516L512 -503L579 -635Q591 -665 568 -667H493L481 -636Q466 -598 439 -589Q388 -570 345 -609V-658H358Q362 -635 371 -625Q393 -609 406 -637L450 -748Q456 -764 432 -768V-781H552V-768Q532 -766 525 -748L506 -700H598Q640 -700 655 -672Q667 -645 645 -605L561 -441L625 -362Q652 -326 714 -315Q776 -304 846 -318Q929 -335 935 -381ZM899 -138V-11Q899 31 880 51Q860 76 809 76H389V63Q414 58 415 37V-182Q414 -202 389 -208V-220H808Q861 -220 882 -197Q900 -176 899 -138Z"/>
</svg>