<svg xmlns="http://www.w3.org/2000/svg" viewBox="0 -800 1024 1024">
	<path fill="#000000" d="M699 -724Q709 -723 719 -722Q747 -716 769 -701Q774 -691 776 -679L770 -655Q765 -659 763 -655Q761 -651 764 -646Q755 -628 750 -623Q749 -621 744 -617Q737 -612 738 -607Q735 -601 731 -594Q727 -587 719 -585Q716 -585 712 -580Q708 -574 703 -575Q695 -568 682 -552Q668 -534 660 -528Q654 -525 655 -520Q656 -515 661 -514Q721 -493 729 -490Q747 -483 767 -473Q799 -457 830 -441Q851 -431 868 -420Q873 -420 875 -414Q877 -408 881 -407Q891 -409 891 -395Q892 -391 889 -389Q886 -387 882 -389Q874 -383 865 -381Q861 -385 858 -383Q855 -382 855 -377Q845 -373 835 -380Q825 -383 817 -385Q813 -390 802 -393Q769 -408 730 -427Q709 -435 690 -446Q676 -448 652 -460Q633 -470 583 -490Q572 -488 566 -494Q559 -500 551 -503Q512 -510 479 -539Q476 -541 476 -542Q478 -545 485 -541Q516 -543 575 -533Q583 -534 592 -531Q601 -529 606 -536Q633 -562 683 -620Q691 -632 699 -645Q704 -652 708 -660Q713 -668 707 -674Q679 -669 661 -657Q657 -656 652 -652Q647 -647 641 -651Q621 -648 584 -665Q581 -669 570 -673Q561 -677 557 -682Q560 -682 594 -693Q616 -709 653 -718Q675 -724 699 -724ZM366 -703H367Q389 -700 391 -700Q413 -692 422 -683Q423 -664 415 -649Q412 -649 411 -643Q411 -639 408 -638Q401 -628 399 -617Q389 -606 388 -596Q377 -580 365 -565Q364 -560 349 -540Q349 -535 344 -531Q340 -528 340 -526Q330 -521 337 -501Q336 -498 331 -497Q323 -495 322 -491Q309 -495 303 -481Q296 -472 276 -458Q277 -449 267 -445Q264 -437 258 -432Q251 -427 245 -422Q241 -422 237 -415Q235 -411 232 -410Q214 -399 206 -399Q195 -390 180 -390Q172 -390 168 -394Q186 -405 218 -441Q231 -457 245 -471Q259 -485 268 -503Q264 -509 251 -516Q222 -535 193 -552Q197 -555 213 -555Q220 -551 226 -553Q232 -554 238 -555Q245 -553 270 -548Q274 -549 283 -544Q293 -539 297 -543Q323 -592 348 -641Q348 -647 345 -647Q337 -645 329 -642Q319 -639 291 -646Q273 -657 257 -670Q280 -680 300 -687Q306 -691 319 -694Q331 -697 336 -700Q352 -699 366 -703ZM627 -427H630Q646 -428 658 -424Q672 -425 683 -408Q689 -397 682 -372Q677 -353 678 -343Q672 -331 669 -318Q670 -314 669 -306Q667 -294 671 -289Q677 -288 698 -285Q706 -281 715 -279Q724 -277 730 -271Q732 -259 730 -251Q720 -242 709 -231Q697 -219 683 -217Q677 -207 661 -204Q657 -200 660 -198Q666 -196 669 -191Q678 -188 685 -179Q691 -170 697 -162Q696 -157 698 -152Q700 -148 696 -143Q696 -138 698 -133Q700 -127 698 -120Q693 -100 688 -95Q683 -98 682 -95Q682 -87 676 -82Q673 -78 669 -73Q664 -68 664 -61Q656 -60 652 -52Q648 -45 643 -39Q647 -34 658 -31Q666 -29 669 -27Q703 -20 733 -11Q765 3 799 11Q809 15 818 18Q839 20 845 33Q855 36 849 47Q848 54 841 59Q835 63 827 63Q818 63 810 59Q802 54 793 57Q767 51 741 44Q705 34 700 31Q690 30 674 23Q659 16 653 15Q628 8 602 1Q598 -2 592 1Q587 3 585 1Q582 4 580 10Q578 15 571 18Q561 13 546 17Q542 14 534 16Q526 19 522 14Q516 12 517 9Q521 4 528 1Q533 -3 539 -7Q545 -11 540 -18Q518 -22 469 -47Q456 -54 442 -61Q441 -61 440 -62Q429 -66 432 -72Q461 -65 489 -62Q521 -58 538 -54Q545 -55 556 -52Q572 -48 579 -51Q622 -107 634 -128Q638 -136 642 -146Q647 -155 638 -164L606 -155Q597 -153 589 -157Q581 -162 571 -166Q569 -168 561 -171Q551 -174 549 -181Q556 -181 565 -185Q590 -190 614 -200Q620 -199 626 -205Q634 -213 636 -214Q638 -221 649 -233Q657 -242 660 -249Q658 -250 624 -279Q617 -296 614 -314Q610 -324 613 -348Q615 -362 614 -370Q613 -378 607 -376Q601 -374 597 -370Q588 -367 586 -366Q581 -362 584 -355Q587 -342 580 -320Q578 -310 579 -300Q578 -290 566 -275Q566 -271 561 -267Q556 -263 555 -258Q551 -248 542 -261Q527 -276 519 -294Q510 -308 522 -328Q526 -343 529 -359Q532 -376 522 -390Q519 -397 522 -398Q527 -400 531 -393Q535 -397 541 -392Q546 -388 549 -389Q577 -404 604 -420Q615 -425 627 -427ZM356 -412Q375 -411 393 -410Q414 -410 422 -390Q419 -384 422 -373Q424 -364 423 -360Q420 -357 416 -349Q411 -339 407 -336Q405 -330 395 -321Q387 -314 385 -309Q381 -301 386 -299Q394 -296 401 -296Q414 -298 419 -286Q411 -266 393 -268Q383 -267 373 -267Q347 -261 328 -261Q326 -263 321 -260Q315 -257 313 -260Q302 -259 292 -252L310 -239Q319 -237 320 -227Q321 -218 314 -213Q314 -208 308 -202Q303 -197 303 -193Q308 -189 320 -189Q332 -188 337 -185Q349 -185 357 -177Q370 -173 381 -163Q393 -152 395 -140Q392 -136 392 -127Q392 -116 389 -113Q387 -96 384 -80Q383 -60 372 -45Q366 -32 360 -20Q360 -14 353 -4Q348 3 347 8Q348 13 341 19Q335 25 334 30Q328 31 323 40Q317 52 310 52Q304 48 300 54Q294 64 293 65Q288 55 279 43Q271 22 250 11Q247 11 246 10Q248 7 255 4Q269 4 282 1Q288 -2 294 -11Q300 -21 303 -23Q324 -52 337 -108Q342 -132 333 -155Q322 -159 294 -150Q290 -151 285 -148Q279 -144 275 -147Q270 -153 267 -149Q264 -145 260 -142Q247 -153 238 -168Q221 -187 228 -200Q237 -211 247 -222Q257 -233 261 -247Q256 -252 248 -250Q240 -249 233 -248Q201 -245 171 -256Q154 -260 161 -265Q221 -277 280 -289Q285 -291 299 -292Q319 -293 326 -300Q341 -324 352 -350Q359 -357 360 -366Q360 -371 352 -370Q340 -365 328 -366Q317 -366 308 -370Q299 -374 289 -377Q285 -378 279 -379Q273 -381 274 -385Q279 -383 284 -386Q288 -390 293 -392Q307 -398 356 -412Z"/>
</svg>