<svg xmlns="http://www.w3.org/2000/svg" viewBox="0 -800 1024 1024">
	<path fill="#000000" d="M739 -719V-377H833V-682Q834 -720 796 -719ZM456 -725V-377H550V-688Q551 -726 513 -725ZM80 -425H93Q96 -406 113 -406H165V-708H103Q85 -707 83 -693H70V-763H83Q86 -746 103 -746H308Q329 -747 331 -763H344V-693H331Q328 -708 310 -708H243V-406H294Q311 -408 312 -425H325V-354H312Q310 -370 292 -370H243V-51L313 -75Q333 -83 333 -98H346V-25H333Q328 -43 313 -40L92 37Q75 43 71 59H58V-13H71Q75 7 92 1L165 -24V-370H113Q96 -369 93 -354H80ZM456 14Q455 55 429 73Q400 90 358 75Q332 65 314 44V-1H326Q330 25 357 40Q388 52 390 16V-345H379Q363 -343 359 -326H347V-396H359Q362 -377 379 -377H390V-719Q390 -740 368 -745V-757H524Q572 -757 592 -741Q616 -723 616 -676V-377H673V-713Q673 -734 651 -739V-751H807Q855 -751 875 -735Q899 -717 899 -670V-377H915Q934 -379 937 -396H949V-326H937Q931 -344 915 -345H899V12Q899 44 884 65Q866 89 830 89Q788 88 760 50V5H772Q781 45 809 48Q832 46 833 19V-345H739V20Q738 61 712 79Q685 99 656 85Q636 79 620 57V12L628 10Q632 38 655 50Q676 63 673 22V-345H616V6Q616 38 601 59Q583 83 547 83Q505 82 477 44V-1H489Q498 39 526 42Q549 40 550 13V-345H456Z"/>
</svg>