<svg xmlns="http://www.w3.org/2000/svg" viewBox="0 -800 1024 1024">
	<path fill="#000000" d="M298 -397Q319 -399 319 -418L335 -650Q338 -667 316 -669V-682H403V-669Q382 -667 382 -650L366 -418Q364 -399 385 -397V-384H298ZM58 -682H148V-669Q127 -667 129 -650L145 -418Q145 -398 167 -397V-384H76V-397Q97 -399 95 -418L79 -650Q78 -669 58 -669ZM421 -88H434Q436 -72 443 -60Q448 -54 453 -57Q458 -59 460 -69L489 -256Q491 -274 468 -280V-293H580V-280Q559 -274 557 -256L528 -71Q525 -42 502 -27Q478 -11 452 -19Q435 -25 421 -41ZM791 -293H903V-280Q880 -274 882 -256L916 -44Q917 -33 922 -32Q927 -30 932 -39Q934 -45 935 -57Q936 -61 936 -63H949V-16Q934 1 920 5Q894 14 874 1Q852 -15 847 -49L814 -256Q812 -274 791 -280ZM272 -238Q269 -250 262 -256Q262 -255 262 -253Q261 -251 261 -250L196 21Q188 53 161 71Q133 90 98 79Q75 73 58 51V-7H71Q75 21 85 29Q108 45 118 15L184 -263Q193 -294 192 -345V-738Q192 -768 164 -769V-781H301V-769Q274 -764 274 -738V-347Q274 -320 266 -275H363V-261Q337 -259 342 -238L393 19Q397 36 408 40Q420 42 430 30Q439 18 442 0H455V50Q440 68 418 77Q390 88 364 76Q332 61 324 20ZM644 -569Q645 -597 620 -599V-613H755V-599Q726 -594 727 -568V-389H912Q929 -390 933 -408H945V-337H933Q929 -355 912 -356H727V-4Q726 47 686 70Q652 89 600 81Q561 74 537 51V0H549Q557 34 588 43Q640 55 644 10V-356H413V-369Q437 -373 440 -395L477 -664Q479 -690 451 -696V-709H768Q799 -708 807 -726L822 -752Q828 -766 804 -768V-781H945V-768Q927 -765 917 -754L890 -709Q881 -693 862 -684Q841 -675 815 -676H553L514 -389H644Z"/>
</svg>