<svg xmlns="http://www.w3.org/2000/svg" viewBox="0 -800 1024 1024">
	<path fill="#000000" d="M63 -654H154V-641Q133 -638 137 -621L153 -460Q153 -442 176 -440V-427H82V-440Q103 -442 101 -460L84 -620Q85 -641 63 -641ZM58 -176H71Q72 -155 80 -141Q87 -134 93 -139Q99 -144 99 -157L105 -340Q107 -358 86 -361V-374H175V-361Q156 -359 155 -341L149 -157Q147 -128 129 -112Q108 -96 83 -108Q70 -114 58 -131ZM786 -516H681V-221H786Q825 -224 828 -262V-477Q827 -515 786 -516ZM460 -516V-221H607V-516ZM915 -687Q933 -689 936 -706H949V-635H936Q931 -654 915 -654H289V1Q288 55 236 76Q189 92 139 73Q116 63 92 41V-12H105Q116 30 158 42Q202 45 204 6V-645Q204 -670 179 -674V-687H531V-743Q532 -767 503 -769V-781H647V-769Q618 -766 619 -743V-687ZM460 -41Q459 39 560 48Q595 52 660 49Q724 46 767 38Q855 21 893 -3Q929 -26 936 -64H949V0Q904 40 789 65Q678 86 540 84Q452 81 414 49Q375 19 374 -51V-508Q372 -529 346 -536V-549H820Q874 -549 896 -527Q913 -509 913 -469V-273Q913 -230 892 -211Q871 -188 817 -188H460Z"/>
</svg>