<svg xmlns="http://www.w3.org/2000/svg" viewBox="0 -800 1024 1024">
	<path fill="#000000" d="M315 -491H458V-478Q429 -472 435 -451L491 -276Q499 -250 524 -245V-233H381V-245Q411 -253 404 -276L348 -451Q340 -478 315 -478ZM190 -74Q190 -33 244 -41Q326 -58 387 -102Q421 -128 427 -158H439V-103Q423 -84 383 -60Q302 -11 228 8Q175 18 141 0Q101 -24 101 -86V-416Q102 -443 73 -447V-460H218V-447Q189 -446 190 -416ZM259 -781H406V-768Q378 -763 378 -741V-669H629V-741Q628 -766 601 -768V-781H748V-768Q720 -763 720 -741V-669H915Q933 -671 936 -688H949V-617H936Q932 -635 915 -636H720V-565Q719 -541 748 -535V-522H601V-535Q629 -540 629 -565V-636H378V-565Q377 -541 406 -535V-522H259V-535Q287 -540 287 -565V-636H92Q76 -635 71 -617H58V-688H71Q76 -669 92 -669H287V-741Q286 -766 259 -768ZM627 -215Q644 -240 644 -282V-437Q644 -468 617 -469V-482H759V-469Q733 -469 733 -437V-283Q734 -234 720 -206H823V-192Q797 -188 803 -163L849 14Q859 42 892 40Q930 33 936 -4H949V44Q928 67 895 74Q848 85 812 70Q776 57 765 20L717 -164Q713 -174 707 -182L557 30Q534 62 495 73Q456 82 410 74Q366 65 349 44V-3H362Q367 35 408 42Q444 42 466 14Z"/>
</svg>