<svg xmlns="http://www.w3.org/2000/svg" viewBox="0 -800 1024 1024">
	<path fill="#000000" d="M594 -297V-144H818V-255Q819 -298 774 -297ZM594 43H774Q818 43 818 4V-112H594ZM137 -249Q137 -228 161 -224V-211H58V-224Q81 -227 81 -249V-721Q82 -741 58 -745V-758H326Q369 -758 387 -737Q403 -720 403 -685V-249Q403 -227 426 -224V-211H324V-224Q348 -229 347 -249V-694Q348 -726 314 -725H137ZM280 -281Q281 -232 269 -199L259 -171H368V-158Q343 -155 348 -135L380 21Q394 60 427 38Q437 26 441 1H454V52Q439 67 417 77Q385 91 353 79Q316 63 306 25L272 -136Q268 -152 254 -156L190 33Q181 63 156 76Q126 90 94 77Q77 71 58 52V1H71Q73 25 83 35Q103 56 114 25L196 -219Q203 -239 203 -272Q203 -282 203 -288V-626Q205 -650 180 -651V-664H303V-651Q279 -649 280 -626ZM764 -651Q781 -653 784 -670H797V-599H784Q779 -617 764 -618H703V-461H761L838 -701Q847 -726 818 -729V-743H948V-729Q926 -725 918 -701L841 -461H915Q933 -463 936 -480H948V-409H936Q932 -427 915 -428H630L586 -329H801Q865 -330 884 -306Q904 -286 904 -236V-13Q904 31 882 53Q858 76 801 76H482V63Q507 59 508 37V-218Q482 -211 456 -220Q436 -227 422 -243V-292H434Q436 -276 446 -263Q463 -246 475 -269L546 -428H473Q457 -427 452 -409H440V-480H452Q457 -461 473 -461H616V-618H511Q495 -616 491 -599H478V-670H491Q495 -651 511 -651H616V-736Q617 -766 588 -767V-781H730V-767Q702 -763 703 -736V-651Z"/>
</svg>