<svg xmlns="http://www.w3.org/2000/svg" viewBox="0 -800 1024 1024">
	<path fill="#000000" d="M397 -46V-33Q376 -28 361 -17L294 39Q274 57 232 64Q190 71 139 65Q81 56 58 37V-3H71Q76 28 130 34Q187 40 211 22L254 -17Q261 -23 257 -27Q253 -31 239 -33V-46ZM603 -46H761V-33Q747 -31 743 -27Q739 -23 746 -17L789 22Q813 40 870 34Q924 28 929 -3H942V37Q919 56 861 65Q810 71 768 64Q726 57 706 39L639 -17Q624 -28 603 -33ZM606 -211Q635 -211 635 -235V-253Q636 -279 606 -278H374V-211ZM729 -451Q753 -450 752 -470V-489Q752 -507 729 -506H254V-451ZM896 -609Q914 -611 917 -629H929V-559H917Q913 -577 896 -578H112Q96 -577 91 -559H79V-629H91Q96 -609 112 -609H459V-645Q460 -667 437 -668V-681H570V-668Q547 -666 548 -645V-609ZM430 -157H575V-145Q546 -140 547 -114V-111H897Q915 -113 917 -130H930V-59H917Q914 -77 897 -78H547V31Q546 57 575 62V76H430V62Q459 58 458 31V-78H108Q92 -76 88 -59H75V-130H88Q91 -111 108 -111H458V-114Q459 -143 430 -145ZM217 -781H364V-768Q334 -766 336 -743V-732H671V-743Q672 -768 643 -768V-781H790V-768Q761 -765 762 -743V-732H915Q933 -734 936 -750H949V-681H936Q931 -700 915 -700H762V-677Q761 -654 790 -648V-635H647V-648Q671 -651 671 -677V-700H336V-677Q335 -652 359 -648V-635H217V-648Q245 -651 245 -677V-700H92Q76 -699 71 -681H58V-750H71Q75 -732 92 -732H245V-743Q247 -769 217 -768ZM649 -310Q681 -310 697 -300Q717 -287 717 -259V-234Q717 -205 699 -191Q683 -180 649 -180H270V-192Q293 -196 293 -214V-275Q293 -293 270 -297V-310ZM810 -379Q854 -379 877 -363Q902 -343 902 -305V-239Q901 -192 866 -168Q837 -150 794 -156Q758 -162 733 -184V-232H746Q754 -199 786 -191Q813 -185 814 -234V-309Q815 -349 768 -348H195V-205Q193 -178 220 -175V-162H83V-175Q108 -177 107 -205V-343Q107 -363 83 -367V-379ZM777 -537Q809 -537 825 -525Q841 -512 841 -489V-467Q841 -437 819 -427Q805 -420 777 -420H142V-433Q165 -434 165 -457V-501Q166 -521 142 -524V-537Z"/>
</svg>