<svg xmlns="http://www.w3.org/2000/svg" viewBox="0 -800 1024 1024">
	<path fill="#000000" d="M104 -335H240V-322Q219 -319 226 -305L316 -179Q322 -168 342 -164V-151H206V-164Q225 -168 222 -178L132 -304Q121 -318 104 -322ZM650 -164Q669 -168 676 -179L770 -305Q778 -318 756 -322V-335H893V-322Q875 -317 865 -304L771 -178Q766 -168 787 -164V-151H650ZM844 -526Q893 -525 909 -512Q925 -498 925 -468V-403Q924 -382 949 -379V-366H811V-379Q836 -379 835 -403V-466Q836 -494 807 -493H172V-402Q170 -383 197 -379V-366H59V-379Q84 -379 82 -402V-489Q83 -509 59 -513V-526ZM248 -781H393V-768Q366 -764 366 -736V-681H641V-736Q641 -767 614 -768V-781H759V-768Q732 -764 732 -736V-681H915Q933 -683 936 -700H949V-628H936Q930 -648 915 -648H732V-607Q731 -579 759 -575V-562H614V-575Q641 -578 641 -607V-648H366V-607Q365 -579 393 -575V-562H248V-575Q275 -578 275 -607V-648H92Q76 -646 71 -628H58V-700H71Q76 -681 92 -681H275V-736Q275 -766 248 -768ZM427 -136Q455 -153 453 -183V-382Q453 -408 426 -411V-424H570V-411Q544 -405 544 -382V-192Q545 -142 520 -116H639V-104Q614 -99 626 -86L798 33Q833 56 886 41Q934 26 936 -13H949V42Q932 62 898 73Q863 83 817 85Q753 85 720 62L502 -86L491 -93L261 61Q232 79 182 83Q140 84 105 73Q78 64 58 43V-13H71Q76 23 101 36Q138 55 173 33Z"/>
</svg>