<svg xmlns="http://www.w3.org/2000/svg" viewBox="0 -800 1024 1024">
	<path fill="#000000" d="M805 -642Q824 -646 828 -657L861 -722Q868 -734 849 -736V-749H941V-736Q925 -737 919 -722L887 -657Q880 -644 899 -642V-630H805ZM402 -749H494V-736Q475 -734 483 -722L514 -657Q519 -645 537 -642V-630H443V-642Q462 -645 455 -657L424 -722Q418 -736 402 -736ZM676 -107H807V-94Q782 -90 791 -76L862 29Q886 58 916 37Q932 23 936 -1H949V48Q934 67 913 76Q883 89 848 83Q808 76 786 44L702 -79Q695 -91 676 -94ZM171 -452H259Q296 -452 295 -491V-688Q295 -724 259 -724H171ZM537 -781H654V-768Q631 -766 633 -744V-593H709V-744Q710 -767 688 -768V-781H806V-768Q782 -766 783 -744V-593H903Q921 -595 924 -612H936V-541H924Q919 -560 903 -560H441Q426 -558 421 -541H408V-612H421Q425 -592 441 -593H559V-744Q560 -766 537 -768ZM472 -524H599V-511Q573 -507 582 -495L628 -425H715L762 -495Q770 -507 745 -511V-524H872V-511Q855 -509 847 -495L800 -425H887Q904 -427 907 -444H920V-373H907Q901 -392 887 -392H713V-306H858Q875 -308 878 -325H891V-254H878Q872 -273 858 -273H713V-215Q713 -200 710 -186H905Q923 -188 926 -205H939V-134H926Q922 -152 905 -153H695L556 47Q537 74 500 82Q468 89 434 76Q408 67 390 48V1H403Q407 30 428 41Q459 53 481 26L605 -153H438Q422 -151 418 -134H405V-205H418Q421 -186 438 -186H625Q630 -199 630 -215V-273H486Q470 -272 465 -254H452V-325H465Q470 -306 486 -306H630V-392H458Q442 -391 437 -373H424V-444H437Q442 -425 458 -425H543L497 -495Q489 -509 472 -511ZM101 -322Q102 -343 79 -344V-357H181V-344Q158 -340 159 -322V1L221 -20V-419H73V-432Q96 -436 97 -459V-719Q97 -739 73 -744V-757H280Q333 -757 353 -735Q369 -719 369 -681V-504Q369 -462 349 -442Q331 -423 296 -420V-272H351Q368 -274 371 -291H384V-221H371Q367 -239 351 -239H296V-46L369 -71Q389 -78 389 -92H402V-22H389Q384 -42 369 -39L92 55Q75 62 71 76H58V7H71Q77 29 92 24L101 21Z"/>
</svg>