<svg xmlns="http://www.w3.org/2000/svg" viewBox="0 -800 1024 1024">
	<path fill="#000000" d="M621 -507V-397H709V-507ZM621 -319Q621 -294 611 -257L608 -247H664V-234Q647 -229 649 -217L666 -136Q668 -126 676 -122L705 -261Q709 -280 709 -299V-364H621ZM754 -255L752 -247H808V-234Q791 -229 793 -218L817 -81Q820 -62 835 -60Q839 -59 842 -62V-326Q841 -363 803 -364H764V-317Q764 -295 754 -255ZM490 -364V-64H492Q508 -63 516 -87L562 -263Q567 -277 566 -301V-364ZM261 -588H250V-240H261Q300 -241 301 -278V-550Q300 -587 261 -588ZM150 -240H200V-588H150ZM487 -781H619V-768Q592 -764 593 -742V-690H740V-742Q741 -766 715 -768V-781H846V-768Q820 -764 821 -742V-690H915Q933 -692 936 -709H948V-638H936Q932 -656 915 -657H821V-610Q820 -587 846 -584V-570H715V-584Q741 -586 740 -610V-657H593V-610Q592 -587 619 -584V-570H487V-584Q514 -587 513 -610V-657H419Q403 -656 398 -638H386V-709H398Q403 -690 419 -690H513V-742Q514 -764 487 -768ZM58 2H71Q77 23 92 19L186 -10V-207H66V-220Q89 -224 90 -247V-582Q90 -603 66 -608V-620H186V-739Q187 -766 160 -768V-781H290V-768Q263 -766 264 -739V-620H271Q323 -620 344 -597Q362 -576 361 -538V-295Q361 -250 341 -230Q320 -206 268 -207H264V-34L313 -49V-135Q313 -148 296 -150V-163H377V-150Q359 -146 359 -135V45Q359 60 377 63V76H296V63Q313 59 313 45V-16L92 51Q76 57 71 72H58ZM827 -397Q881 -397 902 -374Q920 -355 920 -315V-14Q920 35 887 60Q856 84 796 84Q741 83 699 56V4H712Q719 33 750 44Q785 55 813 43Q842 30 842 -5V-35Q834 -32 826 -32Q805 -34 792 -47Q780 -58 776 -85L753 -218Q752 -224 748 -227L720 -87Q716 -63 696 -46Q677 -30 654 -30Q625 -32 608 -51V-84H621Q628 -62 644 -61Q662 -61 669 -85L673 -105H614V-118Q631 -122 628 -136L611 -217Q609 -225 603 -228L568 -89Q560 -61 542 -47Q527 -34 502 -32Q496 -32 490 -33V33Q489 59 517 63V76H389V63Q415 59 414 33V-361Q414 -381 389 -384V-397H542V-507H419Q403 -506 398 -488H386V-558H398Q403 -539 419 -539H915Q933 -541 936 -558H948V-488H936Q931 -507 915 -507H789V-397Z"/>
</svg>