<svg xmlns="http://www.w3.org/2000/svg" viewBox="0 -800 1024 1024">
	<path fill="#000000" d="M69 -555H225V-542Q200 -537 212 -519L276 -436Q294 -416 317 -412V-400H166V-412Q196 -418 181 -437L117 -519Q100 -539 69 -542ZM70 -360H230V-347Q202 -341 215 -322L283 -234Q300 -214 323 -210V-197H168V-210Q200 -218 187 -235L118 -324Q101 -344 70 -347ZM58 0H71Q78 40 111 47Q144 53 156 24L201 -119Q206 -137 178 -145V-157H319V-145Q296 -141 289 -120L245 18Q234 53 201 71Q175 85 137 84Q86 80 58 49ZM467 -111H574Q611 -112 612 -146V-339Q611 -376 574 -377H467ZM248 -781H393V-768Q366 -764 366 -736V-691H641V-736Q642 -767 614 -768V-781H759V-768Q732 -764 732 -736V-691H915Q933 -693 936 -710H949V-638H936Q930 -658 915 -658H732V-625Q731 -599 759 -593V-581H614V-593Q641 -598 641 -625V-658H366V-625Q365 -599 393 -593V-581H248V-593Q275 -598 275 -625V-658H92Q76 -656 71 -638H58V-710H71Q76 -691 92 -691H275V-736Q275 -767 248 -768ZM915 -532Q933 -534 936 -551H949V-480H936Q931 -499 915 -499H882V-51Q882 28 810 63Q746 93 654 79Q565 67 509 30V-26H521Q534 22 618 44Q695 63 752 35Q793 12 794 -40V-499H377Q361 -498 356 -480H343V-551H356Q361 -532 377 -532ZM387 -372Q387 -392 363 -397V-409H597Q650 -409 671 -389Q692 -370 692 -324V-160Q692 -117 671 -99Q647 -78 598 -78H363V-91Q386 -93 387 -117Z"/>
</svg>