<svg xmlns="http://www.w3.org/2000/svg" viewBox="0 -800 1024 1024">
	<path fill="#000000" d="M430 -726V-668H581V-726ZM783 -548Q815 -546 813 -577V-611Q813 -637 784 -637H662V-548ZM430 -637V-548H581V-637ZM198 -637V-548H349V-637ZM481 -345V-292H800V-319Q800 -345 771 -345ZM771 -204Q801 -203 800 -234V-258H481V-204ZM58 -426H71Q76 -388 110 -378Q134 -373 150 -397L186 -456Q193 -474 169 -478V-490H311V-478Q290 -476 279 -456L237 -389Q217 -354 176 -344Q137 -333 98 -348Q74 -357 58 -376ZM58 -254H71Q77 -213 113 -204Q135 -203 149 -225L185 -282Q192 -300 169 -304V-317H311V-304Q290 -302 279 -282L237 -217Q219 -186 184 -173Q143 -161 103 -175Q75 -183 58 -203ZM125 -138H266V-125Q238 -121 239 -93V32Q239 56 266 63V76H125V63Q152 60 151 32V-93Q152 -125 125 -125ZM324 -458H337Q345 -430 372 -424Q392 -421 407 -438L429 -463Q434 -469 431 -473Q428 -477 416 -478V-491H555V-478Q539 -476 527 -463L518 -453H899Q917 -455 920 -472H932V-403H919Q915 -421 899 -422H491Q474 -400 445 -394Q407 -386 366 -396Q341 -404 324 -416ZM814 -668Q853 -668 874 -654Q896 -639 896 -611V-577Q896 -546 875 -530Q856 -516 816 -516H91V-529Q115 -532 115 -554V-632Q115 -652 91 -656V-668H349V-726H105Q89 -725 84 -707H72V-776H84Q89 -757 105 -757H903Q921 -759 924 -776H936V-707H924Q919 -726 903 -726H662V-668ZM323 -148H336Q344 -119 372 -113Q394 -110 410 -128L453 -174H367V-186Q392 -190 393 -214V-338Q392 -359 367 -363V-376H808Q843 -376 866 -362Q888 -347 888 -314V-239Q888 -203 868 -189Q851 -174 809 -174H552L511 -130H825Q870 -129 877 -94Q878 -61 839 -44L704 5L805 38Q863 56 897 46Q931 37 936 3H949V54Q936 70 902 78Q860 87 808 81Q763 76 725 65L627 33L528 70Q501 79 461 83Q404 88 358 74Q332 68 308 52V3H321Q331 39 375 48Q410 54 457 38L544 6L416 -35Q388 -45 344 -52V-65H581V-52Q571 -50 569 -45Q568 -39 576 -36L621 -21L778 -78Q792 -84 793 -91Q792 -97 778 -97H477Q459 -85 439 -83Q403 -76 363 -86Q338 -94 323 -106Z"/>
</svg>