<svg xmlns="http://www.w3.org/2000/svg" viewBox="0 -800 1024 1024">
	<path fill="#000000" d="M790 -383Q789 -401 765 -406V-419H881V-406Q859 -403 860 -383L889 -90Q894 -60 914 -69Q930 -77 936 -110H949V-56Q930 -33 904 -28Q870 -21 845 -39Q822 -57 819 -87ZM498 -87Q495 -55 472 -39Q447 -21 413 -28Q387 -34 367 -56V-110H380Q386 -76 401 -69Q424 -60 428 -90L457 -383Q458 -402 437 -406V-419H552V-406Q529 -401 528 -383ZM615 -496Q615 -523 589 -526V-539H727V-526Q702 -522 702 -496V-29Q702 34 659 62Q614 90 548 84Q482 78 448 51V2H461Q468 30 511 43Q554 57 586 43Q615 28 615 -7ZM248 -781H393V-768Q366 -764 366 -736V-692H641V-736Q641 -767 614 -768V-781H759V-768Q732 -764 732 -736V-692H915Q933 -694 936 -711H949V-639H936Q931 -659 915 -659H732V-608Q731 -582 759 -576V-563H614V-576Q641 -581 641 -608V-659H366V-608Q365 -582 393 -576V-563H248V-576Q275 -581 275 -608V-659H92Q76 -657 71 -639H58V-711H71Q76 -692 92 -692H275V-736Q276 -767 248 -768ZM278 -8Q278 43 242 68Q208 90 150 82Q95 72 73 43V-15H86Q97 38 147 46Q190 47 192 1V-213L92 -190Q76 -185 71 -167H58V-240H71Q76 -221 92 -225L192 -247Q190 -284 210 -312L309 -469Q318 -489 298 -491H117Q102 -489 97 -472H84V-542H97Q101 -524 117 -524H344Q384 -524 395 -499Q403 -477 386 -449L287 -290Q281 -278 279 -267L356 -285Q374 -290 377 -308H389V-236H377Q372 -254 356 -251L278 -233Z"/>
</svg>