<svg xmlns="http://www.w3.org/2000/svg" viewBox="0 -800 1024 1024">
	<path fill="#000000" d="M184 -724V-517H323V-685Q323 -724 286 -724ZM184 -485V-278H323V-485ZM824 -369Q823 -406 786 -407H632V-5Q631 51 582 73Q540 91 492 79Q463 70 443 49V-3H456Q461 37 502 46Q542 52 544 9V-606H486Q470 -604 466 -587H453V-658H466Q469 -638 486 -638H656V-737Q656 -767 629 -768V-781H773V-768Q746 -764 746 -737V-638H915Q933 -640 936 -658H948V-587H936Q932 -605 915 -606H632V-440H815Q863 -440 887 -420Q912 -402 912 -359V-13Q912 51 850 73Q804 89 753 79Q711 70 686 49V-3H699Q711 44 770 45Q823 49 824 0ZM104 -718Q104 -740 81 -744V-757H308Q364 -757 386 -733Q404 -711 403 -672V7Q403 45 379 66Q355 86 314 83Q265 80 241 44V-4H253Q260 38 292 43Q321 41 323 14V-245H184V15Q184 49 161 69Q136 90 98 81Q72 72 58 44V-4H70Q76 36 87 41Q103 47 104 20Z"/>
</svg>