<svg xmlns="http://www.w3.org/2000/svg" viewBox="0 -800 1024 1024">
	<path fill="#000000" d="M333 84Q273 85 244 61Q219 41 219 -2V-101Q219 -124 191 -128V-141H340V-128Q313 -125 312 -101V5Q312 48 364 48Q433 50 493 31Q542 15 549 -12H562V42Q472 85 333 84ZM488 -231Q473 -246 454 -247V-260H608V-247Q583 -244 588 -231L675 -114H753Q790 -114 801 -145L828 -236Q832 -253 811 -257V-270H945V-257Q918 -252 914 -234L885 -143Q875 -109 849 -94Q826 -81 780 -81H699L769 13Q795 51 847 48Q884 46 912 26Q933 10 936 -12H949V42Q919 74 845 82Q798 88 757 78Q709 66 684 32ZM457 -740Q458 -767 429 -768V-781H577V-768Q550 -764 549 -740V-676H878Q896 -678 899 -695H912V-624H899Q894 -643 878 -643H549V-525H848Q866 -527 869 -544H882V-473H869Q864 -492 848 -492H549V-372H898Q916 -374 919 -391H932V-320H919Q914 -339 898 -339H530L298 -196Q259 -172 216 -166Q179 -162 137 -170Q88 -177 58 -196V-259H71Q82 -220 121 -208Q159 -197 188 -216L389 -339H109Q93 -338 88 -320H75V-391H88Q93 -372 109 -372H457V-492H159Q143 -491 138 -473H125V-544H138Q143 -525 159 -525H457V-643H129Q113 -642 108 -624H95V-695H108Q113 -676 129 -676H457Z"/>
</svg>