<svg xmlns="http://www.w3.org/2000/svg" viewBox="0 -800 1024 1024">
	<path fill="#000000" d="M58 -21H71Q73 10 102 18Q137 28 156 -1L223 -111Q231 -124 204 -130V-143H352V-130Q330 -130 320 -112L250 2Q228 39 192 51Q155 66 108 53Q76 45 58 26ZM655 -143H803V-130Q776 -124 784 -111L851 -1Q870 28 905 18Q934 10 936 -21H949V26Q933 44 899 53Q853 66 815 51Q779 39 757 2L687 -112Q677 -130 655 -130ZM234 -669V-580H778V-628Q778 -669 733 -669ZM735 -334Q777 -335 778 -376V-424H234V-334ZM234 -547V-457H778V-547ZM548 31Q547 57 576 62V76H428V62Q457 58 456 31V-197H108Q91 -194 87 -178H75V-248H88Q92 -229 108 -229H456V-301H117V-316Q141 -319 142 -345V-661Q142 -684 117 -689V-702H413L428 -743Q436 -765 406 -768V-781H555V-768Q529 -763 522 -743L507 -702H772Q821 -702 844 -680Q869 -659 869 -615V-388Q869 -344 843 -323Q818 -301 771 -301H548V-229H896Q913 -231 916 -248H929V-178H916Q911 -197 896 -197H548Z"/>
</svg>