<svg xmlns="http://www.w3.org/2000/svg" viewBox="0 -800 1024 1024">
	<path fill="#000000" d="M403 -97H562Q600 -100 603 -139V-316Q602 -354 562 -355H403ZM248 -781H393V-768Q366 -764 366 -736V-688H641V-736Q641 -767 614 -768V-781H759V-768Q732 -764 732 -736V-688H915Q933 -690 936 -707H949V-636H936Q930 -656 915 -656H732V-609Q731 -582 759 -577V-564H614V-577Q641 -580 641 -609V-656H366V-609Q365 -582 393 -577V-564H248V-577Q275 -580 275 -609V-656H92Q76 -654 71 -636H58V-707H71Q76 -688 92 -688H275V-736Q275 -766 248 -768ZM583 -387Q637 -387 661 -368Q687 -347 687 -301V-152Q687 -107 660 -85Q635 -65 584 -65H296V-78Q319 -81 320 -104V-350Q319 -370 296 -375V-387ZM766 43Q811 40 814 -6V-449Q814 -496 766 -496H193V43ZM787 -528Q848 -528 874 -507Q900 -485 900 -434V-20Q900 31 871 55Q845 76 787 76H80V63Q106 59 107 36V-490Q106 -511 80 -515V-528Z"/>
</svg>