<svg xmlns="http://www.w3.org/2000/svg" viewBox="0 -800 1024 1024">
	<path fill="#000000" d="M560 -558V-475H819V-520Q818 -557 778 -558ZM778 -357Q816 -359 819 -398V-442H560V-357ZM172 -724V-515H288V-685Q288 -724 252 -724ZM172 -482V-273H288V-482ZM401 -690H413Q415 -672 426 -660Q445 -640 459 -663L510 -751Q518 -764 490 -768V-781H631V-768Q611 -764 604 -751L571 -697H913Q932 -699 934 -716H947V-645H934Q930 -663 913 -664H552L548 -657Q535 -630 504 -618Q467 -605 435 -617Q418 -622 401 -642ZM805 -172Q826 -201 791 -208H562L557 -201Q538 -173 514 -167Q486 -160 455 -166Q425 -174 406 -187V-234H418Q420 -214 438 -202Q453 -191 470 -212L514 -270Q523 -282 493 -287V-300H638V-287Q617 -283 609 -270L587 -241H842Q884 -240 897 -208Q909 -171 873 -142L730 -39L861 36Q890 52 916 39Q932 28 936 2H949V53Q938 67 915 74Q878 87 842 83Q816 81 783 60L678 -1L610 48Q576 71 544 78Q506 87 478 83Q430 79 403 53V3H416Q422 41 463 48Q495 50 521 32L616 -36L486 -112Q464 -125 444 -128V-141H617V-128Q607 -126 603 -121Q600 -115 607 -110L669 -74ZM815 -591Q867 -591 889 -570Q907 -551 907 -513V-410Q907 -368 886 -348Q862 -324 811 -324H447V-337Q470 -340 471 -361V-556Q471 -575 447 -578V-591ZM97 -718Q98 -739 74 -744V-757H270Q324 -757 346 -733Q364 -712 363 -674V7Q363 44 340 66Q316 86 278 83Q233 80 207 45V-3H219Q225 35 256 43Q286 46 288 16V-241H172V15Q172 50 152 70Q129 90 97 81Q73 71 58 45V-3H71Q74 30 85 39Q96 47 97 23Z"/>
</svg>