<svg xmlns="http://www.w3.org/2000/svg" viewBox="0 -800 1024 1024">
	<path fill="#000000" d="M74 -780H214V-767Q190 -763 196 -749L276 -614Q284 -599 307 -593V-581H165V-594Q191 -596 182 -612L102 -749Q93 -767 74 -767ZM264 4Q269 46 308 25Q328 13 334 -21H347V30Q333 54 309 67Q281 82 255 82Q220 82 199 61Q176 38 176 -2V-438Q175 -466 146 -467H91Q77 -467 71 -448H58V-519H71Q76 -500 92 -500H181Q223 -500 243 -481Q264 -461 264 -423ZM718 -643Q711 -660 689 -663V-676H825V-663Q802 -659 805 -642L895 -406Q903 -387 926 -383V-371H788V-383Q813 -388 809 -406L795 -441Q618 -395 430 -395Q382 -397 367 -427Q354 -457 375 -494L518 -741Q531 -765 501 -768V-781H649V-768Q628 -766 614 -742L453 -464Q439 -434 471 -433Q630 -436 785 -467ZM764 42Q803 41 804 3V-221Q803 -255 762 -256H491V42ZM375 78V63Q402 59 402 32V-251Q401 -275 375 -279V-292H793Q847 -292 870 -271Q892 -251 892 -205V-11Q892 31 873 51Q849 78 798 78Z"/>
</svg>