<svg xmlns="http://www.w3.org/2000/svg" viewBox="0 -800 1024 1024">
	<path fill="#000000" d="M525 -638H537Q544 -612 552 -605Q565 -592 573 -620L614 -752Q617 -765 595 -768V-781H714V-768Q696 -766 692 -752L651 -619Q642 -587 619 -572Q586 -553 549 -571Q533 -582 525 -592ZM747 -781H865V-768Q843 -765 847 -752L887 -620Q897 -593 910 -606Q918 -615 924 -638H937V-592Q925 -580 911 -572Q872 -553 841 -573Q818 -587 809 -619L768 -752Q766 -766 747 -768ZM422 -694Q457 -694 475 -680Q492 -667 492 -636V-606Q490 -587 514 -584V-572H401V-584Q425 -584 423 -606V-635Q424 -663 395 -661H149V-606Q147 -587 172 -584V-572H58V-584Q82 -584 80 -606V-656Q81 -677 58 -681V-694H245V-739Q245 -767 217 -768V-781H355V-768Q327 -764 327 -739V-694ZM623 -303Q618 -284 646 -280V-267H519V-280Q538 -283 544 -303L602 -483Q607 -505 582 -509V-522H780Q812 -523 834 -508Q855 -493 864 -464L914 -303Q919 -285 949 -280V-267H813V-280Q839 -284 834 -303L787 -458Q778 -488 742 -489H683ZM170 43H364Q401 41 403 3V-116Q402 -154 364 -155H170ZM630 43H788Q826 42 828 3V-153Q827 -191 788 -192H630ZM815 -225Q869 -225 890 -202Q908 -181 907 -143V-11Q907 29 888 51Q866 76 812 76H527V63Q549 59 550 36V-186Q550 -209 527 -212V-225ZM245 -574Q247 -605 220 -606V-619H353V-606Q326 -602 327 -574V-528H460Q478 -530 481 -547H494V-477H481Q476 -496 460 -496H327V-416H437Q455 -417 457 -433H470V-363H457Q451 -382 437 -382H327V-302H475Q494 -303 496 -319H509V-248H496Q492 -266 475 -267H327V-187H393Q447 -187 466 -167Q485 -148 485 -111V-5Q485 36 463 54Q439 76 391 76H65V63Q88 60 88 37V-149Q88 -171 65 -174V-187H245V-267H92Q77 -265 72 -248H59V-319H72Q75 -302 92 -302H245V-382H136Q120 -380 116 -363H103V-433H116Q118 -415 136 -416H245V-496H113Q97 -495 92 -477H79V-547H92Q95 -528 113 -528H245Z"/>
</svg>