<svg xmlns="http://www.w3.org/2000/svg" viewBox="0 -800 1024 1024">
	<path fill="#000000" d="M607 -161Q640 -162 641 -189V-263Q642 -292 607 -290H467V-161ZM206 -290V-161H379V-290ZM788 -567Q820 -567 820 -596V-698Q820 -726 788 -726H663V-567ZM187 -726V-567H344V-726ZM425 -726V-567H582V-726ZM59 -442H71Q80 -399 109 -395Q145 -387 166 -417L207 -480Q216 -495 186 -499V-512H324V-499Q306 -496 295 -479L282 -460H815Q875 -460 898 -443Q927 -422 927 -367V-64Q927 18 868 53Q814 89 697 84Q602 78 549 57V6H562Q578 44 667 55Q720 59 760 49Q840 28 840 -24V-385Q839 -428 793 -429H261L243 -403Q225 -378 188 -365Q153 -353 120 -357Q79 -363 59 -389ZM646 -323Q689 -323 707 -309Q725 -293 725 -260V-190Q725 -158 703 -141Q682 -128 647 -128H467V-40L645 -49L622 -74Q610 -89 595 -89V-102H717V-89Q692 -85 702 -74L759 -12Q760 -11 760 -10Q772 3 785 3V16H664V3Q688 0 679 -12L673 -18L103 11Q86 13 83 29H70V-41H83Q87 -21 103 -22L379 -35V-128H96V-141Q121 -145 122 -168V-285Q121 -306 96 -310V-323H379V-353Q380 -381 353 -381V-394H496V-381Q466 -378 467 -353V-323ZM838 -757Q874 -756 890 -741Q907 -726 907 -693V-599Q907 -569 889 -552Q871 -536 838 -536H78V-549Q100 -551 100 -572V-721Q100 -740 78 -744V-757Z"/>
</svg>