<svg xmlns="http://www.w3.org/2000/svg" viewBox="0 -800 1024 1024">
	<path fill="#000000" d="M805 -294Q842 -296 845 -335V-397H768V-294ZM806 -532H768V-429H845V-493Q844 -531 806 -532ZM287 -588H266V-240H287Q325 -241 327 -278V-550Q326 -587 287 -588ZM152 -240H214V-588H152ZM656 43H803Q839 41 841 3V-108Q841 -146 803 -147H656ZM533 -10Q533 36 507 64Q485 88 449 82Q415 75 394 41V-8H406Q419 25 437 34Q455 45 455 -5V-668Q454 -688 431 -693V-706H661V-740Q661 -765 635 -768V-781H768V-768Q741 -763 741 -740V-706H914Q930 -707 933 -725H945V-654H933Q930 -672 914 -673H533ZM815 -564Q864 -564 884 -543Q902 -522 902 -485V-429H913Q930 -431 933 -448H945V-378H933Q927 -397 913 -397H902V-349Q902 -304 880 -284Q860 -261 808 -262H768V-180H831Q877 -180 898 -155Q916 -134 916 -94V-8Q916 33 897 53Q877 76 828 76H557V63Q578 61 579 39V-144Q579 -163 557 -167V-180H695V-262H630Q615 -261 610 -243H598V-313H610Q613 -294 630 -294H695V-397H588Q573 -395 569 -378H556V-448H569Q572 -429 588 -429H695V-532H630Q615 -531 610 -513H598V-583H610Q613 -564 630 -564H695V-598Q696 -628 668 -629V-642H796V-629Q767 -625 768 -598V-564ZM58 2H71Q77 23 92 19L199 -12V-207H65V-220Q90 -224 90 -247V-582Q90 -603 65 -608V-620H199V-739Q200 -766 173 -768V-781H306V-768Q278 -765 279 -739V-620H297Q351 -620 372 -597Q390 -578 390 -538V-295Q390 -250 370 -230Q349 -207 295 -207H279V-35L328 -49V-135Q328 -148 311 -150V-163H395V-150Q377 -146 377 -135V46Q377 61 394 63V76H311V63Q327 60 328 46V-16L92 51Q76 58 71 72H58Z"/>
</svg>