<svg xmlns="http://www.w3.org/2000/svg" viewBox="0 -800 1024 1024">
	<path fill="#000000" d="M289 -588H267V-240H289Q327 -241 329 -278V-550Q328 -587 289 -588ZM154 -240H216V-588H154ZM614 -615V-436H752V-615ZM562 43H771Q810 40 813 0V-108H562ZM562 -292V-141H813V-250Q812 -291 771 -292ZM533 -744Q535 -768 506 -768V-781H639V-768Q612 -766 614 -744V-648H752V-744Q754 -769 726 -768V-781H859V-768Q831 -766 833 -744V-648H894Q911 -650 914 -667H927V-598H914Q909 -615 894 -615H833V-436H915Q933 -438 936 -455H949V-384H936Q931 -403 915 -403H459Q443 -402 438 -384H425V-455H438Q443 -436 459 -436H533V-615H477Q462 -613 457 -596H444V-667H457Q461 -647 477 -648H533ZM804 -325Q851 -325 876 -304Q899 -284 899 -243V-14Q899 29 878 51Q853 76 800 76H452V63Q475 60 476 38V-288Q476 -307 452 -312V-325ZM326 -163H412V-150Q394 -146 394 -135V46Q394 61 411 63V76H326V63Q342 60 343 46V-19L92 51Q76 58 71 72H58V2H71Q77 23 92 19L200 -12V-207H65V-220Q90 -224 90 -247V-582Q90 -603 65 -608V-620H200V-739Q201 -766 174 -768V-781H309V-768Q281 -765 282 -739V-620H302Q354 -621 373 -599Q394 -580 394 -538V-295Q394 -249 371 -228Q349 -207 299 -207H282V-35L343 -53V-135Q343 -148 326 -150Z"/>
</svg>