<svg xmlns="http://www.w3.org/2000/svg" viewBox="0 -800 1024 1024">
	<path fill="#000000" d="M758 -651Q780 -655 793 -676L813 -713Q824 -733 794 -738V-750H919V-738Q898 -736 883 -713L863 -676Q851 -656 882 -651V-638H758ZM425 -750H549V-738Q519 -732 531 -713L551 -676Q564 -655 586 -651V-638H462V-651Q491 -657 481 -676L460 -713Q445 -736 425 -738ZM760 -539H876V-526Q853 -523 858 -507L887 -428Q896 -406 917 -417Q932 -428 937 -450H949V-401Q932 -387 908 -382Q876 -375 850 -387Q823 -403 815 -426L785 -506Q779 -524 760 -526ZM393 -450H405Q410 -428 425 -417Q446 -403 457 -428L486 -507Q491 -523 467 -526V-539H584V-526Q565 -524 559 -506L529 -426Q520 -402 494 -387Q467 -375 434 -382Q412 -388 393 -401ZM714 -416Q712 -387 739 -385V-372H605V-385Q631 -388 630 -416V-573H443Q427 -572 422 -554H409V-625H422Q427 -606 443 -606H630V-736Q632 -768 606 -768V-781H735V-768Q712 -766 714 -736V-606H903Q920 -608 924 -628H936V-554H924Q920 -572 903 -573H714ZM584 -245Q593 -275 566 -275H516L506 -240Q498 -212 472 -202Q450 -194 423 -200Q408 -203 388 -220V-263H400Q403 -233 422 -229Q435 -227 442 -250L463 -325Q467 -342 446 -344V-357H557V-344Q535 -342 532 -325L526 -308H600Q638 -308 652 -285Q664 -267 655 -232L591 -2Q577 47 543 67Q502 92 452 79Q409 69 389 45V-3H402Q413 44 459 49Q502 48 515 2L529 -50H497Q467 -50 454 -59Q438 -69 433 -94L424 -142Q422 -156 403 -159V-173H499V-160Q478 -157 482 -142L491 -98Q495 -84 512 -83H538ZM661 -58Q676 -60 679 -75L696 -176Q699 -193 679 -196V-209H771V-196Q751 -195 749 -177L731 -78H790V-247H712Q696 -246 691 -228H679V-298H691Q696 -279 712 -279H790V-313Q792 -345 767 -344V-357H887V-344Q864 -343 865 -313V-279H908Q926 -281 928 -298H941V-228H928Q924 -246 908 -247H865V-78H916Q934 -80 937 -97H950V-26H937Q933 -44 916 -45H865V32Q864 60 891 63V76H764V63Q791 59 790 32V-45H661ZM145 -748Q148 -765 124 -767V-781H238V-767Q211 -766 207 -748L190 -650H339Q357 -652 360 -669H372V-599H360Q355 -618 339 -618H184L137 -346H223V-502Q224 -533 195 -533V-547H329V-533Q300 -529 301 -502V-346H337Q356 -348 357 -365H371V-294H357Q354 -312 337 -313H301V-160L342 -168Q361 -172 363 -187H375V-117H363Q357 -138 342 -136L301 -128V31Q300 57 329 62V76H195V62Q224 58 223 31V-114L92 -90Q75 -86 71 -71H58V-142H71Q76 -120 92 -123L223 -146V-313H58V-326Q73 -327 75 -343L122 -618H92Q76 -617 71 -599H58V-669H71Q76 -650 92 -650H128Z"/>
</svg>