<svg xmlns="http://www.w3.org/2000/svg" viewBox="0 -800 1024 1024">
	<path fill="#000000" d="M827 -682H771V-590H827Q856 -589 856 -615V-658Q858 -684 827 -682ZM608 -590H693V-682H608ZM298 -781H423V-768Q403 -762 405 -750L461 -622Q469 -603 486 -603V-590H360V-603Q384 -608 379 -622L324 -750Q318 -764 298 -768ZM642 -378V-278H792Q822 -277 821 -303V-353Q822 -379 792 -378ZM74 -781H202V-768Q179 -765 185 -749L235 -611Q240 -597 261 -593V-581H133V-594Q156 -596 151 -611L101 -749Q96 -766 74 -768ZM642 -51H816Q845 -49 844 -78V-131Q845 -159 816 -157H642ZM155 -438Q154 -466 126 -467H90Q76 -466 71 -448H58V-519H71Q75 -499 90 -500H161Q198 -500 219 -479Q239 -461 239 -429V-54Q239 -33 249 -27Q259 -21 274 -33Q315 -66 322 -101H335V-45Q302 -7 269 11Q227 35 194 24Q156 8 155 -51ZM385 -460Q386 -488 359 -487H337Q322 -486 318 -468H306V-539H318Q322 -521 337 -520H387Q433 -520 449 -505Q469 -487 469 -444V-28L537 12Q568 34 623 33H916Q933 31 936 14H949V84H936Q930 65 916 65H636Q592 65 564 59Q532 52 505 35L468 13Q465 44 445 63Q417 88 371 82Q320 73 302 51V4H315Q324 33 354 45Q384 56 385 11ZM913 -500Q932 -501 933 -516H946V-446H933Q929 -464 913 -465H547Q532 -463 527 -446H514V-516H527Q530 -499 546 -500H693V-555H522V-568Q544 -570 544 -591V-681Q544 -700 522 -703V-716H693V-737Q693 -764 667 -768V-781H797V-768Q772 -761 771 -735V-716H847Q887 -716 904 -703Q920 -692 920 -661V-612Q920 -581 901 -568Q883 -555 847 -555H771V-500ZM827 -244H642V-192H851Q883 -192 903 -180Q924 -167 924 -136V-78Q924 -47 905 -33Q887 -19 851 -19H537V-32Q559 -36 559 -55V-375Q560 -394 538 -398V-411H827Q866 -412 882 -399Q901 -387 901 -354V-304Q901 -271 882 -258Q864 -244 827 -244Z"/>
</svg>