<svg xmlns="http://www.w3.org/2000/svg" viewBox="0 -800 1024 1024">
	<path fill="#000000" d="M233 -318L208 -240H456V-318ZM770 -429H548V-351H769Q797 -352 798 -378V-405Q799 -429 770 -429ZM535 -52Q514 -64 492 -67V-80H675V-67Q650 -62 662 -51L792 33Q830 54 875 48Q929 39 935 -8H949V46Q931 68 897 76Q851 89 791 81Q725 72 686 46ZM217 -781H361V-768Q334 -763 334 -736V-706H672V-736Q672 -766 646 -768V-781H790V-768Q764 -763 764 -736V-706H915Q933 -708 936 -725H949V-654H936Q931 -674 915 -674H764V-644Q763 -617 790 -612V-599H647V-612Q672 -616 672 -644V-674H334V-644Q333 -617 360 -612V-599H217V-612Q243 -617 243 -644V-674H92Q76 -672 71 -654H58V-725H71Q76 -706 92 -706H243V-736Q243 -766 217 -768ZM92 -208V-221Q115 -226 121 -249L142 -313Q146 -333 120 -338V-351H456V-429H116Q99 -426 95 -410H82V-481H95Q99 -462 116 -462H456V-532H92Q76 -531 71 -513H58V-584H71Q76 -565 92 -565H456V-596Q456 -623 430 -626V-639H574V-626Q548 -622 548 -596V-565H915Q933 -567 936 -584H949V-513H936Q931 -532 915 -532H548V-462H808Q846 -462 866 -449Q887 -435 887 -402V-381Q887 -347 868 -333Q850 -318 811 -318H548V-240H848Q882 -240 900 -226Q918 -213 918 -185V-161Q918 -122 883 -104Q855 -89 801 -87Q746 -86 690 -97Q642 -105 610 -122V-167H623Q659 -125 749 -120Q825 -119 828 -157V-186Q827 -207 803 -208H547Q543 -178 512 -148L311 47Q286 72 220 81Q168 88 120 78Q78 69 58 47V-8H71Q78 43 137 48Q189 48 215 25L434 -187Q445 -198 450 -208Z"/>
</svg>