<svg xmlns="http://www.w3.org/2000/svg" viewBox="0 -800 1024 1024">
	<path fill="#000000" d="M770 -757Q817 -757 842 -734Q870 -710 870 -663V-276Q871 -252 895 -250V-237H756V-250Q781 -255 781 -276V-677Q782 -725 727 -724H226V-276Q226 -253 252 -250V-237H111V-250Q136 -253 137 -276V-720Q137 -739 111 -744V-757ZM339 21Q302 70 223 82Q167 89 112 72Q88 64 58 39V-20H71Q88 35 149 46Q211 51 247 5L429 -244Q459 -285 458 -335V-617Q459 -646 432 -646V-659H574V-646Q549 -643 549 -617V-332Q551 -265 516 -222L511 -216H649V-203Q624 -200 625 -175V-4Q625 41 682 48Q752 53 817 36Q916 10 936 -44H949V12Q909 40 849 60Q781 81 703 83Q612 87 570 58Q534 34 534 -16V-175Q535 -201 510 -203V-214Z"/>
</svg>