<svg xmlns="http://www.w3.org/2000/svg" viewBox="0 -800 1024 1024">
	<path fill="#000000" d="M344 84Q284 84 259 74Q219 56 219 12V-25Q219 -48 191 -52V-65H338V-52Q311 -48 310 -25V13Q313 45 358 47Q427 47 493 31Q545 15 549 -13H562V41Q520 60 465 70Q415 81 344 84ZM488 -145Q470 -159 453 -162V-175H615V-162Q588 -158 596 -146L648 -99H746Q784 -99 796 -118L824 -160Q834 -180 807 -183V-196H944V-183Q927 -180 914 -160L882 -112Q868 -87 841 -76Q819 -66 779 -66H684L772 13Q812 46 860 45Q898 43 922 20Q934 7 936 -12H949V42Q927 62 886 72Q837 86 793 83Q736 80 696 42ZM704 -757Q739 -757 759 -748Q778 -742 801 -718L894 -621Q918 -597 949 -594V-581H786V-594Q810 -598 799 -613L710 -705Q691 -725 654 -724H314L207 -613Q196 -598 220 -594V-581H58V-594Q91 -600 111 -621L207 -720Q215 -736 185 -744V-757ZM298 -112Q259 -89 219 -85Q177 -79 136 -86Q84 -93 58 -113V-164H71Q78 -130 122 -119Q157 -112 190 -130L392 -252H109Q93 -251 88 -233H75V-304H88Q93 -285 109 -285H457V-300Q459 -326 432 -326V-339H574V-326Q549 -322 549 -300V-285H898Q916 -287 919 -304H932V-233H919Q914 -252 898 -252H530ZM811 -551Q851 -551 862 -529Q872 -501 843 -479L752 -409Q726 -388 690 -375Q653 -361 605 -360Q504 -357 405 -366Q317 -374 257 -391V-452H270Q291 -420 340 -409Q431 -390 559 -393Q612 -397 655 -429L750 -502Q757 -506 755 -512Q751 -518 742 -518H176Q160 -517 155 -499H142V-570H155Q158 -551 176 -551H457V-638Q458 -665 429 -666V-678H577V-666Q550 -663 549 -638V-551Z"/>
</svg>