<svg xmlns="http://www.w3.org/2000/svg" viewBox="0 -800 1024 1024">
	<path fill="#000000" d="M717 -195H850V-182Q823 -178 824 -155V8Q827 55 880 47Q930 35 936 -6H949V47Q921 68 881 78Q818 92 783 74Q743 55 743 5V-155Q745 -179 717 -182ZM644 -235Q657 -261 657 -312V-622Q658 -645 631 -646V-660H766V-646Q740 -643 741 -622V-306Q743 -246 721 -207L600 38Q583 70 544 81Q512 89 473 79Q439 68 425 50V0H438Q450 37 481 47Q500 53 515 28ZM550 -262Q550 -239 575 -236V-223H460V-236Q484 -238 484 -262V-720Q484 -740 460 -744V-757H836Q880 -757 897 -736Q914 -718 914 -684V-262Q914 -238 937 -236V-223H824V-236Q848 -241 847 -262V-693Q848 -726 815 -724H550ZM299 -353Q309 -374 309 -404V-678Q305 -720 268 -724H103Q87 -722 82 -705H69V-776H82Q86 -758 103 -757H299Q349 -757 368 -736Q387 -717 387 -673V-405Q387 -367 370 -330L305 -191L383 -78Q404 -51 426 -60Q451 -70 455 -106H469V-47Q448 -29 423 -20Q394 -10 365 -19Q332 -31 311 -61L271 -119L198 39Q186 64 155 78Q126 89 97 80Q76 74 58 53V-7H71Q74 19 85 34Q106 56 120 31L223 -190L127 -330Q106 -361 105 -405V-625Q104 -642 82 -646V-659H207V-646Q184 -643 183 -625V-400Q183 -370 195 -354L257 -263Z"/>
</svg>