<svg xmlns="http://www.w3.org/2000/svg" viewBox="0 -800 1024 1024">
	<path fill="#000000" d="M277 -588H261V-240H279Q317 -241 319 -278V-550Q318 -587 277 -588ZM150 -240H208V-588H150ZM820 -576H781V-288H858V-535Q857 -575 820 -576ZM512 -576V-288H590V-576ZM818 43Q856 41 858 2V-256H781V43ZM645 -576V-288H724V-576ZM512 43H590V-256H512ZM645 -256V43H724V-256ZM58 1H71Q77 23 92 19L195 -10V-207H65V-220Q89 -224 90 -247V-582Q90 -603 65 -608V-620H195V-739Q196 -766 169 -768V-781H300V-768Q272 -764 273 -739V-620H289Q342 -620 363 -597Q379 -579 379 -538V-295Q379 -251 360 -232Q339 -206 287 -207H273V-32L325 -46V-131Q325 -145 308 -147V-160H390V-147Q373 -143 373 -131V45Q372 61 390 63V76H308V63Q325 59 325 45V-12L92 51Q75 58 71 72H58ZM724 -744Q725 -768 702 -768V-781H832V-768Q803 -766 805 -744V-609H836Q887 -609 907 -588Q931 -567 931 -516V-18Q931 28 910 52Q890 77 830 76H417V63Q438 59 439 36V-571Q439 -593 415 -596V-609H565V-744Q567 -768 538 -768V-781H668V-768Q643 -765 645 -744V-609H724Z"/>
</svg>