<svg xmlns="http://www.w3.org/2000/svg" viewBox="0 -800 1024 1024">
	<path fill="#000000" d="M719 -118H839V-105H838Q819 -101 824 -90L875 35Q885 55 910 43Q930 33 936 5H948V53Q937 67 909 76Q874 88 847 81Q807 72 794 37L741 -89Q737 -103 719 -105ZM421 5H433Q439 33 461 43Q485 55 494 35L546 -90Q550 -100 533 -104Q532 -105 531 -105V-118H652V-105Q635 -103 629 -89L576 37Q563 71 523 80Q492 87 460 76Q434 67 421 53ZM290 -588H267V-240H290Q328 -241 329 -278V-550Q329 -588 290 -588ZM155 -240H217V-588H155ZM565 -555V-454H803V-516Q802 -554 764 -555ZM565 -321H763Q801 -323 803 -362V-423H565ZM907 -192Q924 -194 927 -211H939V-140H927Q922 -158 907 -159H462Q447 -157 442 -140H430V-211H442Q447 -192 462 -192H641V-223Q642 -249 616 -249V-262H753V-249Q726 -246 727 -223V-192ZM852 -757Q887 -757 905 -742Q925 -727 925 -695V-655Q926 -632 948 -630V-617H818V-630Q843 -636 842 -655V-693Q842 -724 808 -724H527V-655Q527 -633 551 -630V-617H420V-630Q444 -632 444 -655V-720Q444 -740 420 -744V-757ZM793 -587Q847 -587 867 -564Q885 -543 885 -504V-376Q885 -335 864 -314Q842 -287 790 -288H460V-301Q483 -305 484 -328V-551Q484 -570 460 -574V-587ZM58 2H71Q77 23 92 19L201 -12V-207H65V-220Q90 -224 90 -247V-582Q90 -603 65 -608V-620H201V-739Q202 -766 174 -768V-781H309V-768Q282 -765 283 -739V-620H300Q356 -620 377 -597Q395 -578 395 -538V-295Q395 -253 375 -230Q352 -207 298 -207H283V-36L331 -50V-135Q331 -148 313 -150V-163H399V-150Q381 -146 381 -135V46Q381 61 398 63V76H313V63Q330 60 331 46V-17L92 51Q76 58 71 72H58Z"/>
</svg>