<svg xmlns="http://www.w3.org/2000/svg" viewBox="0 -800 1024 1024">
	<path fill="#000000" d="M332 -237Q314 -253 287 -257V-270H459V-257Q433 -250 443 -237L524 -169Q554 -145 595 -149Q639 -152 651 -197H664V-154Q642 -129 606 -117Q565 -105 517 -113Q468 -121 434 -151ZM363 -46Q345 -62 316 -66V-79H497V-66Q471 -59 481 -45L567 28Q597 52 638 50Q699 40 712 -2H724V44Q705 65 671 76Q625 91 561 80Q502 73 466 43ZM248 -781H393V-768Q366 -765 366 -736V-695H641V-736Q641 -767 614 -768V-781H759V-768Q732 -764 732 -736V-695H915Q933 -697 936 -714H949V-642H936Q931 -662 915 -662H732V-633Q731 -605 759 -601V-588H614V-601Q641 -604 641 -633V-662H366V-633Q365 -605 393 -601V-588H248V-601Q275 -604 275 -633V-662H92Q76 -660 71 -642H58V-714H71Q76 -695 92 -695H275V-736Q275 -767 248 -768ZM222 -521V-364H763Q797 -364 797 -394V-492Q798 -522 763 -521ZM801 -553Q842 -553 864 -535Q887 -517 887 -480V-404Q887 -368 868 -352Q848 -333 801 -333H715L857 -72Q872 -46 899 -47Q932 -54 936 -90H949V-41Q934 -23 911 -15Q872 -1 828 -15Q782 -27 763 -61L616 -333H222V-84Q221 -35 188 -14Q154 4 107 -14Q76 -24 58 -44V-95H71Q77 -61 103 -47Q128 -38 132 -62V-515Q132 -535 107 -540V-553Z"/>
</svg>