<svg xmlns="http://www.w3.org/2000/svg" viewBox="0 -800 1024 1024">
	<path fill="#000000" d="M740 44Q776 44 775 10V-40H232V44ZM232 -155V-70H775V-123Q776 -155 740 -155ZM227 -781H370V-768Q344 -763 344 -736V-723H663V-736Q663 -766 637 -768V-781H780V-768Q754 -763 754 -736V-723H915Q933 -725 936 -742H949V-672H936Q932 -690 915 -691H754V-670Q753 -643 779 -638V-625H640V-638Q663 -641 663 -670V-691H344V-670Q343 -642 367 -638V-625H227V-638Q253 -641 253 -670V-691H92Q76 -690 71 -672H58V-742H71Q76 -723 92 -723H253V-736Q253 -766 227 -768ZM669 -583Q687 -585 689 -602H702V-533H689Q685 -551 669 -552H549V-482H680L794 -571Q806 -584 776 -586V-599H941V-586Q921 -584 904 -571L789 -482H905Q922 -484 925 -501H938V-431H925Q920 -449 905 -450H389L335 -406V-361H709Q726 -360 739 -370L776 -393Q781 -402 759 -404V-416H937V-404Q914 -403 899 -393L835 -353Q820 -341 804 -336Q785 -331 756 -331H335V-315Q336 -279 389 -267Q470 -253 620 -259Q776 -264 866 -287Q922 -304 924 -334H937V-278Q912 -268 848 -253Q844 -252 842 -252Q758 -234 592 -227Q449 -221 367 -231Q308 -237 280 -253Q245 -274 245 -313V-335Q223 -323 198 -318Q152 -310 114 -317Q77 -325 58 -342V-392H71Q75 -353 111 -348Q144 -344 172 -368L273 -450H102Q87 -448 82 -431H69V-501H82Q86 -481 102 -482H459V-552H169Q154 -550 149 -533H136V-602H149Q153 -582 169 -583H459V-616Q460 -644 434 -645V-658H573V-645Q549 -642 549 -616V-583ZM782 -187Q824 -187 845 -170Q866 -152 866 -115V-1Q866 33 850 51Q828 76 782 76H116V63Q140 59 141 37V-149Q141 -169 116 -174V-187Z"/>
</svg>