<svg xmlns="http://www.w3.org/2000/svg" viewBox="0 -800 1024 1024">
	<path fill="#000000" d="M854 -535Q871 -537 874 -554H887V-483H874Q868 -502 854 -502H158Q142 -500 138 -483H125V-554H138Q141 -535 158 -535ZM854 -395Q871 -397 874 -414H887V-343H874Q868 -361 854 -362H158Q142 -360 138 -343H125V-414H138Q141 -395 158 -395ZM915 -673Q933 -675 936 -692H949V-621H936Q931 -640 915 -640H92Q76 -639 71 -621H58V-692H71Q76 -673 92 -673H457V-742Q456 -764 429 -768V-781H577V-768Q550 -762 549 -742V-673ZM227 -221V42H750Q786 43 785 8V-189Q784 -220 751 -221ZM781 -254Q831 -254 855 -234Q876 -215 876 -174V-9Q876 36 853 55Q832 76 781 76H113V62Q135 58 136 32V-214Q135 -235 113 -241V-254Z"/>
</svg>