<svg xmlns="http://www.w3.org/2000/svg" viewBox="0 -800 1024 1024">
	<path fill="#000000" d="M172 -377H185Q187 -361 191 -351Q194 -341 199 -341Q203 -342 205 -354L216 -435Q218 -451 200 -454V-467H276V-454Q260 -452 258 -435L247 -355Q243 -330 228 -317Q214 -304 194 -313Q183 -318 172 -332ZM556 -377H569Q571 -361 575 -351Q578 -341 583 -341Q587 -342 589 -354L600 -435Q604 -451 584 -454V-467H661V-454Q644 -451 642 -435L631 -355Q627 -330 613 -317Q598 -303 579 -313Q567 -318 556 -332ZM172 -169H185Q187 -156 191 -144Q194 -134 199 -134Q204 -136 205 -148L216 -247Q218 -263 200 -266V-279H276V-266Q259 -264 258 -247L247 -148Q243 -125 234 -115Q217 -94 194 -107Q183 -112 172 -124ZM556 -169H569Q571 -156 575 -144Q578 -134 583 -134Q588 -136 589 -148L600 -247Q604 -263 584 -266V-279H661V-266Q643 -263 642 -247L631 -148Q629 -128 618 -115Q601 -94 579 -107Q567 -112 556 -124ZM357 -394H428V-381Q410 -378 411 -362L420 -154Q421 -141 426 -139Q431 -139 435 -151Q439 -165 439 -175H450V-130Q442 -119 433 -112Q414 -101 400 -109Q383 -120 381 -153L372 -362Q372 -378 357 -381ZM741 -394H813V-381Q795 -378 797 -362L805 -154Q805 -141 810 -139Q815 -139 819 -151Q823 -160 823 -175H835V-130Q831 -125 822 -116Q819 -113 818 -112Q798 -101 784 -109Q766 -121 766 -153L757 -362Q756 -379 741 -381ZM172 -582H184Q188 -562 199 -544Q205 -534 210 -536Q214 -538 217 -551L249 -724H208Q192 -723 187 -705H174V-775H187Q192 -757 208 -757H383Q402 -759 403 -775H416V-705H403Q400 -723 383 -724H298L276 -606H283Q321 -607 333 -592Q345 -578 345 -551V-487Q348 -484 352 -484Q368 -480 372 -503L391 -626Q393 -645 372 -649V-662H450V-649Q434 -647 432 -629L414 -503Q409 -474 395 -462Q382 -448 359 -456Q351 -458 345 -461V-91Q345 -37 315 -10Q282 18 235 1Q208 -7 186 -28V-77H198Q208 -33 254 -29Q288 -33 289 -74V-552Q289 -572 270 -574L266 -550Q262 -521 242 -508Q220 -494 195 -512Q185 -517 172 -532ZM556 -582H569Q573 -560 583 -544Q589 -534 594 -536Q599 -538 602 -551L634 -724H601Q585 -723 580 -705H567V-775H580Q585 -757 601 -757H777Q796 -759 797 -775H810V-705H797Q794 -723 777 -724H683L661 -606H667Q706 -607 718 -591Q730 -578 730 -551V-486Q733 -484 737 -484Q753 -481 757 -503L775 -626Q777 -645 756 -649V-662H834V-649Q818 -646 817 -629L799 -503Q793 -474 779 -462Q766 -448 743 -456Q742 -456 741 -456Q737 -457 730 -460V-91Q730 -39 700 -10Q667 18 619 1Q593 -7 570 -28V-77H583Q592 -33 638 -29Q672 -32 673 -74V-552Q673 -572 655 -574L651 -550Q645 -519 626 -508Q604 -494 579 -512Q569 -517 556 -532ZM61 76V63Q86 57 87 36V-642Q88 -673 60 -674V-686H181V-674Q154 -670 155 -642V43H467V-736Q467 -767 443 -768V-781H563V-768Q539 -764 539 -736V43H811Q849 41 851 3V-642Q852 -674 824 -674V-686H945V-674Q918 -670 919 -642V-11Q919 31 899 51Q879 76 823 76Z"/>
</svg>