<svg xmlns="http://www.w3.org/2000/svg" viewBox="0 -800 1024 1024">
	<path fill="#000000" d="M786 -343H722V-248H825V-305Q824 -342 786 -343ZM633 -670V-586H748V-670ZM633 -554V-469H748V-554ZM556 -343V-248H660V-343ZM722 -216V-120H825V-216ZM556 -216V-120H660V-216ZM54 3Q74 0 75 -13L97 -250Q99 -264 77 -267V-280H170V-267Q152 -264 150 -250L126 -14Q125 0 146 2V16H54ZM300 -280H393V-267Q370 -264 373 -250L395 -13Q396 0 415 3V16H322V2Q345 1 342 -14L320 -250Q319 -264 300 -267ZM93 -538H106Q111 -519 127 -519H197V-631H106Q90 -629 86 -612H72V-683H86Q89 -664 106 -664H197V-738Q198 -768 170 -768V-781H304V-768Q276 -765 277 -738V-664H368Q386 -666 389 -683H402V-612H389Q385 -630 368 -631H277V-519H346Q364 -521 366 -538H379V-468H366Q363 -486 346 -487H277V-375H378Q396 -377 399 -394H412V-323H399Q395 -341 378 -342H277V33Q275 59 304 63V76H170V63Q198 60 197 33V-342H93Q77 -341 72 -323H60V-394H72Q77 -375 93 -375H197V-487H127Q111 -486 106 -468H93ZM553 -736Q554 -768 529 -768V-781H658V-768Q632 -765 633 -736V-701H748V-736Q749 -768 724 -768V-781H854V-768Q828 -765 829 -736V-701H900Q917 -703 920 -720H933V-651H920Q914 -670 900 -670H829V-586H880Q897 -588 900 -605H913V-535H900Q896 -553 880 -554H829V-469H916Q933 -471 936 -488H949V-419H936Q930 -438 916 -438H731V-375H812Q859 -375 883 -356Q906 -338 906 -294V-120H917Q933 -122 936 -139H949V-70H936Q931 -89 917 -89H906V-12Q906 51 852 73Q812 91 758 79Q724 69 694 46V-5H707Q717 38 767 47Q822 51 825 -3V-89H556V39Q555 60 579 63V76H454V63Q477 59 476 39V-89H465Q449 -88 446 -70H433V-139H446Q449 -120 465 -120H476V-339Q477 -358 454 -362V-375H651V-438H466Q450 -436 446 -419H433V-488H446Q449 -469 466 -469H553V-554H502Q486 -552 482 -535H469V-605H482Q485 -586 502 -586H553V-670H482Q466 -668 462 -651H449V-720H462Q465 -701 482 -701H553Z"/>
</svg>