<svg xmlns="http://www.w3.org/2000/svg" viewBox="0 -800 1024 1024">
	<path fill="#000000" d="M528 -80H649V-67Q633 -63 637 -55L701 50Q707 63 725 63V76H602V63Q621 62 614 50L550 -55Q545 -66 528 -67ZM306 -80H427V-67Q410 -63 415 -55L479 50Q484 62 503 63V76H379V63Q398 61 392 50L328 -55Q323 -66 306 -67ZM750 -80H874V-67Q856 -63 860 -55L924 50Q930 62 950 63V76H823V63Q844 62 836 50L772 -55Q767 -66 750 -67ZM58 63Q79 62 84 50L148 -55Q151 -62 132 -67V-80H257V-67Q241 -67 236 -55L172 50Q166 61 187 63V76H58ZM256 -487L234 -451V-399H505V-487ZM234 -248V-159H505V-248ZM234 -368V-279H505V-368ZM258 -781H405V-768Q376 -764 377 -738V-716H637V-738Q637 -767 609 -768V-781H756V-768Q728 -762 728 -738V-716H915Q933 -718 936 -734H949V-664H936Q931 -683 915 -683H728V-658Q727 -635 756 -629V-616H609V-629Q637 -631 637 -658V-683H377V-658Q376 -633 405 -629V-616H258V-629Q287 -633 286 -658V-683H92Q76 -682 71 -664H58V-734H71Q75 -716 92 -716H286V-738Q286 -767 258 -768ZM58 -457H71Q78 -424 92 -419Q111 -411 132 -440L206 -558Q212 -574 186 -580V-592H335V-580Q311 -573 301 -558L276 -519H503L520 -561Q526 -575 502 -580V-592H642V-580Q620 -576 614 -561L597 -519H886Q904 -521 907 -538H920V-468H907Q903 -486 886 -487H593V-399H852Q870 -401 872 -418H885V-349H872Q869 -367 852 -368H593V-279H852Q870 -281 872 -298H885V-229H872Q869 -247 852 -248H593V-159H895Q912 -161 915 -179H928V-108H915Q911 -126 895 -127H119V-140Q145 -144 145 -167V-378Q128 -375 102 -381Q79 -385 58 -405Z"/>
</svg>