<svg xmlns="http://www.w3.org/2000/svg" viewBox="0 -800 1024 1024">
	<path fill="#000000" d="M497 -330Q511 -330 512 -341L526 -471Q528 -482 513 -483V-495H583V-482Q569 -482 568 -471L554 -342Q553 -331 568 -330V-317H497ZM274 -280H369V-267Q346 -264 350 -250L367 -39Q367 -26 389 -23V-10H294V-23Q317 -26 313 -39L295 -250Q295 -263 274 -267ZM50 3Q70 0 71 -13L91 -248Q92 -262 69 -265V-278H166V-265Q146 -262 145 -248L125 -14Q124 0 147 2V16H50ZM673 43H813Q846 44 845 12V-58Q844 -88 813 -89H673ZM869 -324Q868 -301 891 -297V-284H789V-297Q812 -300 811 -324V-535H773Q757 -533 753 -516H740V-587H753Q756 -568 773 -568H811V-608Q812 -630 789 -632V-645H891V-632Q869 -629 869 -608V-568H908Q926 -570 929 -587H941V-516H929Q925 -534 908 -535H869V-495H939V-483Q924 -482 925 -471L940 -339Q941 -328 955 -328V-315H884V-328Q899 -330 898 -340L883 -471Q884 -482 869 -482ZM653 -324Q651 -300 675 -297V-284H572V-297Q594 -301 593 -324V-535H556Q540 -533 536 -516H522V-587H536Q539 -568 556 -568H593V-608Q594 -630 572 -632V-645H675V-632Q653 -628 653 -608V-568H691Q708 -570 711 -587H724V-516H711Q707 -534 691 -535H653V-493H712V-482Q696 -481 699 -469L717 -339Q718 -325 728 -326V-328Q738 -329 739 -340L749 -472Q751 -482 738 -484V-497H807V-483Q795 -482 794 -473L782 -339Q783 -329 796 -329V-315H660V-327Q676 -327 675 -339L657 -469Q656 -475 653 -478ZM418 -668Q417 -688 394 -693V-706H646V-744Q645 -766 620 -768V-781H756V-768Q729 -765 730 -744V-706H911Q929 -708 932 -725H944V-654H932Q928 -672 911 -673H495V-2Q495 43 467 66Q437 92 393 80Q366 73 345 50V3H358Q364 34 389 47Q417 54 418 10ZM566 -47Q546 -50 529 -63V-112H540Q543 -89 554 -84Q565 -77 575 -96L638 -212H572Q557 -210 552 -193H540V-263H552Q556 -243 572 -244H908Q925 -246 928 -263H941V-193H928Q922 -212 908 -212H714L663 -121H838Q880 -121 897 -109Q919 -95 919 -53V4Q919 41 895 60Q873 76 832 76H576V63Q599 59 599 39V-46Q583 -42 566 -47ZM92 -538H104Q108 -518 124 -519H182V-631H104Q89 -630 84 -612H71V-683H84Q88 -663 104 -664H182V-738Q183 -768 156 -768V-781H282V-768Q255 -765 256 -738V-664H334Q351 -666 354 -683H366V-612H354Q350 -630 334 -631H256V-519H312Q330 -521 333 -538H345V-468H333Q329 -486 312 -487H256V-375H345Q362 -377 365 -394H377V-323H365Q361 -341 345 -342H256V33Q254 60 282 63V76H156V63Q183 60 182 33V-342H92Q77 -340 72 -323H60V-394H72Q76 -374 92 -375H182V-487H124Q109 -485 104 -468H92Z"/>
</svg>