<svg xmlns="http://www.w3.org/2000/svg" viewBox="0 -800 1024 1024">
	<path fill="#000000" d="M259 -781H406V-768Q378 -763 378 -741V-647H629V-741Q628 -766 601 -768V-781H748V-768Q720 -763 720 -741V-647H915Q933 -649 936 -666H949V-596H936Q931 -615 915 -615H720V-523Q719 -498 748 -492V-479H601V-492Q629 -497 629 -523V-615H378V-523Q377 -498 406 -492V-479H259V-492Q287 -497 287 -523V-615H92Q76 -614 71 -596H58V-666H71Q76 -647 92 -647H287V-741Q286 -766 259 -768ZM457 -403Q458 -432 429 -434V-448H578V-434Q549 -430 550 -403V-292H874Q891 -294 894 -311H907V-240H894Q888 -259 874 -259H550V33H915Q933 31 936 14H949V83H936Q931 64 915 64H92Q76 65 71 83H58V14H71Q76 33 92 33H457V-259H133Q118 -257 113 -240H100V-311H113Q117 -291 133 -292H457Z"/>
</svg>