<svg xmlns="http://www.w3.org/2000/svg" viewBox="0 -800 1024 1024">
	<path fill="#000000" d="M433 -549Q428 -528 426 -505Q406 -501 385 -497H381Q372 -497 356 -505Q339 -514 329 -514Q294 -508 264 -490Q234 -476 211 -457Q197 -460 181 -464Q166 -468 158 -479Q146 -506 131 -528Q126 -533 122 -536Q117 -539 115 -545Q114 -548 114 -555Q114 -566 116 -574Q127 -615 190 -636L192 -635Q188 -631 184 -623L186 -620Q187 -619 191 -619Q200 -620 209 -622Q204 -615 190 -610Q173 -604 171 -597V-596Q173 -592 175 -589Q232 -604 273 -620Q269 -624 263 -624Q246 -620 229 -617Q225 -617 221 -619Q226 -627 247 -633Q264 -638 270 -644V-649Q271 -675 282 -691Q293 -707 303 -725Q307 -725 307 -721Q308 -717 310 -715Q318 -720 325 -726Q339 -728 344 -728Q379 -728 397 -703Q411 -684 418 -645Q456 -656 538 -667Q589 -674 611 -679Q609 -716 589 -716H587Q588 -719 596 -723Q602 -727 604 -731Q602 -732 598 -732Q589 -732 578 -723Q568 -715 563 -714Q581 -740 607 -759Q640 -784 670 -784H672Q688 -784 711 -772Q728 -763 738 -761Q743 -739 747 -718Q747 -712 744 -703Q780 -712 785 -712Q790 -712 793 -711Q789 -705 775 -700Q762 -695 759 -691Q767 -688 776 -688Q805 -693 831 -702Q830 -709 823 -709Q816 -708 808 -707Q804 -707 802 -709Q805 -721 815 -722Q824 -723 836 -726L857 -711Q895 -721 904 -721Q908 -721 910 -720Q899 -716 886 -712Q872 -709 869 -697Q873 -695 874 -695Q883 -698 897 -702Q900 -701 902 -701Q896 -696 890 -691Q884 -686 883 -677Q883 -674 884 -671L887 -670Q891 -671 895 -672H896Q878 -663 878 -646Q878 -642 882 -628Q862 -623 855 -594Q784 -588 722 -582Q660 -577 634 -530Q629 -534 593 -533Q561 -532 556 -535Q571 -550 585 -566Q499 -571 433 -549ZM895 -36L898 -31Q894 -24 884 -24Q874 -24 867 -22Q870 -33 895 -36ZM124 -298Q115 -289 103 -289H100Q98 -293 98 -294Q101 -301 115 -303Q122 -303 124 -298ZM495 -234Q496 -236 496 -239Q496 -252 481 -252Q473 -252 467 -248Q461 -244 461 -238Q461 -235 463 -231Q467 -230 474 -230Q485 -230 495 -234ZM593 -251H596Q597 -261 603 -286Q601 -287 596 -287Q586 -287 580 -281Q581 -279 581 -276Q578 -265 574 -254L575 -250H579Q586 -250 593 -251ZM739 -302H736Q682 -302 676 -261Q691 -266 698 -266Q703 -266 713 -262Q736 -294 739 -302ZM610 -348V-349Q604 -367 598 -385V-386L597 -388Q598 -391 599 -394L596 -395Q555 -386 519 -376Q503 -374 495 -367Q507 -372 517 -372Q527 -372 539 -357Q548 -346 553 -333H558Q576 -336 593 -342Q610 -343 610 -348ZM235 -199V-198Q229 -173 208 -155Q202 -152 191 -152Q181 -152 159 -160Q140 -167 129 -167Q121 -167 112 -164Q112 -168 110 -174Q108 -175 104 -175Q98 -175 88 -169Q79 -164 74 -164H73Q74 -170 84 -176Q94 -182 95 -188Q95 -193 83 -207Q68 -224 68 -233Q68 -243 79 -251V-252Q77 -261 75 -271L76 -275Q80 -275 83 -272Q86 -269 88 -269Q98 -279 130 -279Q157 -279 181 -275Q184 -266 203 -254Q208 -255 212 -257H214Q218 -245 221 -233Q228 -216 235 -199ZM895 15H904Q885 22 859 24Q834 25 830 42Q832 47 851 48Q871 49 874 56Q869 55 860 55Q845 55 834 58Q826 68 820 77Q815 85 797 90Q791 92 784 92Q758 92 750 77Q768 80 785 83Q792 83 797 79Q796 68 783 63Q771 59 757 54Q736 47 729 47H723V48Q723 51 728 56Q735 63 735 68Q718 63 704 52Q689 42 676 32Q640 6 640 -4V-5Q644 -22 666 -32Q673 -34 687 -34Q706 -33 725 -33Q734 -33 738 -34Q743 -31 748 -28Q761 -35 774 -41Q773 -39 773 -34Q774 -24 784 -19Q794 -14 802 -9Q812 -10 830 -16Q848 -22 859 -22H863Q858 -17 841 -11Q822 -4 816 4Q824 14 824 17Q860 16 895 15ZM133 -313V-314Q135 -319 140 -323Q138 -330 131 -333Q100 -332 78 -325Q56 -318 34 -311Q55 -321 77 -329Q99 -338 117 -351Q109 -359 105 -378H69Q73 -384 88 -388Q103 -392 106 -396Q101 -407 88 -411Q75 -416 63 -421Q84 -419 104 -417H109Q113 -420 114 -425Q115 -430 124 -431H125Q124 -438 122 -446Q130 -442 137 -438Q148 -440 175 -440H196Q200 -441 203 -448Q207 -457 216 -457V-451Q216 -431 226 -425Q236 -423 245 -421Q256 -418 269 -406Q279 -396 288 -393Q290 -387 299 -374Q310 -358 311 -349Q310 -344 308 -339Q308 -336 311 -333Q297 -319 297 -307Q283 -296 269 -286Q259 -283 250 -283Q225 -287 199 -292Q196 -291 192 -291Q170 -311 146 -311Q138 -311 122 -305V-306Q122 -311 133 -313ZM205 41V50Q205 64 197 69Q182 78 161 78Q135 78 112 66Q88 53 85 36Q64 26 54 13Q52 5 52 2Q53 -10 59 -19Q66 -28 70 -37Q85 -80 100 -123Q101 -101 107 -85Q128 -91 153 -95Q151 -92 139 -84Q123 -74 123 -66Q123 -62 127 -57Q144 -58 156 -67Q167 -76 178 -83Q201 -97 225 -110Q249 -124 263 -145Q237 -141 218 -127Q199 -114 178 -103Q179 -117 195 -123Q210 -130 223 -138Q242 -152 260 -167Q288 -184 301 -199H306Q306 -192 295 -181Q282 -167 282 -156V-154Q283 -154 286 -158Q289 -162 292 -162H294Q291 -151 291 -140Q291 -116 313 -115Q310 -110 310 -107Q310 -104 313 -101L317 -100Q318 -100 324 -103Q304 -77 270 -45Q256 -29 242 -13Q231 -2 220 7Q208 16 206 30Q205 34 205 41ZM787 -167H785Q778 -167 768 -173Q763 -170 757 -167L756 -169V-175Q745 -183 726 -188Q723 -194 716 -199Q713 -198 707 -198Q682 -201 657 -205H652Q643 -205 580 -198Q521 -192 505 -189Q467 -181 457 -162Q451 -164 438 -164H420Q413 -164 409 -165Q405 -166 400 -170Q394 -175 392 -176Q385 -177 378 -178Q361 -190 350 -205Q342 -205 333 -213Q325 -220 316 -221Q313 -226 300 -235Q289 -242 286 -248Q281 -257 281 -267Q281 -284 296 -301Q309 -316 325 -323Q326 -328 332 -345Q335 -342 337 -338Q339 -334 345 -333Q350 -334 350 -342V-345Q355 -345 361 -341Q365 -338 368 -338Q370 -338 374 -340Q397 -312 438 -312Q445 -312 449 -313Q452 -339 488 -368Q474 -363 453 -363Q430 -363 417 -370Q402 -378 402 -393Q384 -397 379 -400Q371 -405 371 -417Q371 -441 389 -450V-452Q391 -476 415 -485Q439 -495 463 -504Q461 -500 461 -498V-496Q468 -492 478 -492Q497 -495 515 -498Q522 -498 526 -495Q517 -491 505 -488Q493 -485 491 -475Q501 -471 506 -471Q529 -474 557 -482Q594 -488 634 -496Q673 -504 702 -518Q700 -522 686 -522H684Q664 -522 629 -514Q591 -505 575 -505L574 -507Q574 -508 590 -516Q610 -519 630 -522Q637 -524 677 -530Q699 -536 720 -543H723Q736 -542 748 -541H753Q762 -544 771 -547H772Q770 -542 768 -538Q777 -540 797 -548Q819 -557 837 -559Q832 -554 814 -546Q790 -536 786 -525H787Q793 -528 808 -532Q811 -532 813 -531Q796 -520 796 -512Q796 -507 802 -503Q812 -509 821 -512H825Q815 -501 812 -484V-480L815 -478Q820 -479 825 -481Q816 -467 816 -461Q816 -454 821 -450Q816 -445 804 -442Q789 -438 787 -427Q728 -425 686 -409Q697 -376 707 -363Q729 -366 751 -369Q755 -368 759 -368Q781 -375 806 -387Q830 -399 856 -400Q873 -400 887 -393Q898 -396 908 -399V-398Q906 -394 904 -390Q909 -391 917 -399Q930 -412 942 -413Q941 -407 931 -399Q920 -390 919 -381Q921 -381 926 -386Q932 -392 937 -393Q932 -386 932 -382Q932 -376 943 -364Q955 -351 957 -341Q958 -337 958 -331Q957 -317 951 -298Q937 -292 919 -289Q913 -286 907 -281Q902 -276 895 -276H893V-278Q893 -282 900 -287Q907 -292 907 -296V-298Q906 -304 898 -304Q878 -301 869 -289Q862 -291 854 -293Q834 -288 823 -274Q812 -261 799 -246Q777 -222 777 -207Q793 -211 812 -233Q826 -249 836 -254Q841 -253 843 -250Q856 -258 875 -262Q860 -245 843 -230Q825 -216 816 -194Q812 -190 807 -186Q802 -182 802 -175Q788 -170 787 -167ZM836 -134Q849 -139 869 -142L860 -128Q862 -122 869 -119Q878 -122 886 -125H887Q884 -120 884 -116Q884 -101 901 -93Q895 -83 895 -71Q884 -54 860 -50H855Q836 -52 816 -55H773Q684 -55 621 -46V-45Q624 -38 627 -31V-30Q621 -23 615 -14Q614 -13 614 -9Q616 2 617 13Q617 23 610 26Q609 15 608 4Q607 -8 598 -13Q588 -13 588 -3Q589 4 589 11V47Q589 71 598 80Q612 77 613 64Q612 49 616 40Q626 50 626 64Q622 99 583 114Q559 112 546 101Q532 90 526 74Q515 40 506 8H508Q512 8 514 13Q516 18 521 18Q530 16 532 -10Q533 -15 533 -21Q533 -26 531 -36Q470 -32 427 -14Q456 -4 477 16Q492 35 494 55V58Q489 77 437 77Q408 77 390 71Q378 76 366 81Q367 77 372 72Q378 67 378 63Q378 58 366 56Q368 54 368 52Q367 46 365 40Q349 41 338 37L368 26Q366 22 363 17Q375 17 380 7L377 6Q370 8 363 9H361Q351 8 343 1Q334 -7 324 -14Q315 -19 306 -23Q298 -27 295 -36V-40Q295 -60 322 -71Q329 -91 351 -100Q354 -99 360 -99Q370 -99 382 -105Q396 -112 408 -112Q407 -108 397 -105Q386 -102 386 -96V-94Q386 -85 406 -85H409Q456 -90 502 -95H506Q496 -98 486 -101Q476 -104 473 -112Q467 -113 460 -114Q457 -114 455 -113Q443 -121 443 -129Q443 -137 459 -153Q472 -166 474 -173Q488 -176 501 -180Q507 -178 513 -176H514Q523 -177 531 -179Q536 -179 538 -176Q525 -167 512 -162V-161Q516 -158 519 -155Q574 -157 636 -173Q636 -175 628 -180H618Q593 -180 554 -173Q559 -183 585 -187Q611 -191 631 -194Q640 -197 646 -197Q657 -197 663 -188Q670 -188 676 -189H679L680 -188Q679 -186 677 -185L679 -184Q686 -186 692 -189Q695 -188 697 -188Q690 -185 690 -180Q692 -172 694 -164Q689 -152 685 -139Q685 -135 686 -133Q638 -128 592 -122Q546 -117 519 -97Q598 -105 683 -113Q768 -121 837 -140L839 -137Q838 -135 836 -134Z"/>
</svg>