<svg xmlns="http://www.w3.org/2000/svg" viewBox="0 -800 1024 1024">
	<path fill="#000000" d="M184 -724V-517H318V-685Q318 -724 281 -724ZM184 -485V-278H318V-485ZM638 -340L641 -348H477Q461 -347 456 -329H443V-400H456Q461 -381 477 -381H649Q651 -393 651 -407V-586H506Q491 -584 486 -567H473V-638H486Q490 -618 506 -619H651V-741Q653 -767 625 -768V-781H765V-768Q738 -764 739 -741V-619H884Q902 -621 904 -638H917V-567H904Q900 -585 884 -586H739V-405Q739 -393 737 -381H916Q933 -383 936 -400H949V-329H936Q930 -348 916 -348H731Q728 -336 723 -325L701 -268H810V-255Q785 -250 790 -234L867 14Q881 46 911 38Q931 29 936 -11H949V44Q929 74 891 82Q853 90 823 72Q794 54 782 18L702 -235Q698 -243 693 -246L593 20Q579 60 549 75Q515 92 478 80Q452 71 434 46V-10H447Q450 23 469 36Q489 48 501 21ZM104 -718Q104 -740 81 -744V-757H303Q359 -757 381 -733Q399 -711 398 -672V7Q398 45 374 66Q350 86 309 83Q261 80 235 44V-4H247Q254 38 287 43Q316 41 318 14V-245H184V15Q184 49 161 69Q136 90 98 81Q72 72 58 44V-4H70Q76 36 87 41Q103 47 104 20Z"/>
</svg>