<svg xmlns="http://www.w3.org/2000/svg" viewBox="0 -800 1024 1024">
	<path fill="#000000" d="M112 -439H233V-426Q211 -422 218 -408L238 -373Q246 -356 265 -356V-344H139V-356Q162 -359 156 -373L136 -408Q127 -424 112 -426ZM379 -133H480V-121Q457 -116 463 -103L502 -31Q510 -14 524 -13V-1H424V-13Q448 -17 443 -31L403 -103Q396 -118 379 -121ZM58 -13Q72 -14 80 -31L119 -103Q125 -116 102 -121V-133H204V-121Q186 -118 179 -103L139 -31Q134 -17 158 -13V-1H58ZM475 -511Q493 -513 495 -530H508V-459H495Q491 -477 475 -478H113Q98 -476 93 -459H80V-530H93Q97 -510 113 -511H249V-556Q250 -579 224 -581V-594H358V-581Q331 -578 333 -556V-511ZM251 -781H398V-768Q369 -764 370 -738V-716H637V-738Q637 -767 609 -768V-781H756V-768Q728 -762 728 -738V-716H915Q933 -718 936 -734H949V-664H936Q931 -683 915 -683H728V-662Q727 -638 756 -632V-620H609V-632Q638 -636 637 -662V-683H370V-662Q369 -637 398 -632V-620H251V-632Q280 -636 279 -662V-683H92Q76 -682 71 -664H58V-734H71Q75 -716 92 -716H279V-738Q279 -767 251 -768ZM468 -208Q486 -210 489 -227H502V-157H489Q485 -175 468 -176H334V8Q334 46 306 67Q278 87 231 84Q189 80 165 64V12H177Q183 45 209 49Q246 51 248 16V-176H120Q104 -175 99 -157H87V-227H99Q104 -208 120 -208H248V-277H93Q77 -276 72 -258H60V-329H72Q77 -310 93 -310H319L360 -408Q366 -422 343 -426V-439H467V-426Q449 -424 443 -408L401 -310H494Q512 -312 515 -329H527V-258H515Q511 -276 494 -277H334V-208ZM664 -3Q664 43 635 69Q608 92 562 87Q524 83 498 58V12H511Q517 45 545 51Q578 53 580 11V-477Q580 -501 556 -506V-519H746Q789 -518 800 -539L816 -566Q822 -578 798 -581V-594H945V-581Q927 -579 919 -567L891 -522Q877 -500 856 -493Q836 -486 792 -486H664V-327H915Q933 -328 936 -346H949V-275H935Q932 -293 915 -294H848V32Q846 59 876 63V76H739V63Q768 59 767 32V-294H664Z"/>
</svg>