<svg xmlns="http://www.w3.org/2000/svg" viewBox="0 -800 1024 1024">
	<path fill="#000000" d="M66 -566H210V-553Q188 -550 194 -539L297 -425Q306 -413 323 -411V-399H181V-412Q204 -413 198 -425L96 -539Q85 -550 66 -553ZM66 -375H210V-362Q188 -359 194 -348L297 -234Q306 -222 323 -220V-208H181V-221Q204 -222 198 -234L96 -348Q85 -359 66 -362ZM58 5H72Q77 37 103 45Q127 52 139 22L206 -137Q213 -158 187 -158V-171H325V-158Q303 -157 296 -141L223 32Q211 67 168 78Q134 86 94 76Q72 69 58 56ZM704 -230Q697 -247 680 -247V-260H798V-247Q777 -246 780 -229L818 -127H839Q868 -126 870 -154L878 -248Q881 -269 860 -270V-283H949V-270Q931 -268 929 -248L922 -152Q919 -125 906 -111Q891 -93 844 -94H830L873 22Q884 47 903 41Q934 27 936 -16H949V42Q938 63 916 75Q884 92 845 77Q812 60 799 26ZM630 1Q632 43 678 40Q732 31 744 -23H756V30Q736 60 698 75Q644 94 597 72Q552 48 551 -5V-328Q551 -356 526 -360V-373H779Q808 -373 819 -391L834 -415Q839 -428 816 -430V-443H949V-430Q934 -429 927 -417L900 -374Q889 -355 869 -347Q852 -339 811 -340H630ZM265 -781H412V-767Q385 -764 384 -738V-705H623V-738Q624 -766 595 -767V-781H742V-767Q715 -764 714 -738V-705H915Q933 -707 936 -724H949V-654H936Q931 -673 915 -673H714V-628Q712 -601 742 -598V-584H595V-598Q623 -601 623 -628V-673H384V-628Q382 -601 412 -598V-584H265V-598Q293 -601 293 -628V-673H92Q76 -672 71 -654H58V-724H71Q76 -705 92 -705H293V-738Q294 -766 265 -767ZM461 2Q461 50 423 73Q391 89 352 81Q315 76 292 41V-9H305Q307 30 340 40Q373 47 375 12V-459Q375 -488 350 -492V-504H771Q790 -504 801 -519L817 -539Q825 -552 802 -554V-567H946V-554Q928 -552 917 -539L888 -502Q877 -486 862 -480Q847 -471 812 -472H461Z"/>
</svg>