<svg xmlns="http://www.w3.org/2000/svg" viewBox="0 -800 1024 1024">
	<path fill="#000000" d="M672 -279V-291Q683 -291 683 -302V-410Q683 -418 673 -420V-433H728V-420Q717 -417 717 -410V-302Q717 -291 727 -291V-279ZM527 -433H582V-420Q573 -418 573 -410V-302Q573 -291 583 -291V-279H528V-291Q538 -291 538 -302V-410Q538 -418 527 -420ZM431 3Q444 2 449 -10L488 -157Q490 -166 473 -170V-182H548V-170Q535 -169 531 -157L492 -10Q489 0 507 3V16H431ZM708 -182H782V-170Q766 -166 768 -157L807 -10Q809 1 824 3V16H748V3Q765 0 763 -10L724 -157Q721 -169 708 -170ZM311 -781H440V-768Q419 -763 425 -751L470 -686Q480 -671 496 -668V-655H366V-668Q389 -673 383 -686L337 -752Q327 -765 311 -768ZM74 -781H197V-768Q175 -764 180 -749L233 -611Q239 -596 259 -593V-581H135V-594Q159 -596 154 -611L101 -749Q95 -767 74 -768ZM720 -461H652V-249H720Q746 -250 747 -277V-435Q747 -461 720 -461ZM508 -249H603V-461H508ZM145 -438Q144 -466 117 -467H90Q76 -466 71 -448H58V-519H71Q75 -499 90 -500H148Q184 -500 207 -479Q226 -461 226 -429V-4Q226 23 236 30Q246 37 261 21Q279 -2 283 -25H296V31Q269 58 245 70Q205 89 178 73Q146 54 145 -4ZM403 32Q401 59 431 63V76H298V63Q324 60 323 32V-571Q324 -603 298 -603V-615H428V-603Q402 -600 403 -571ZM853 -683Q852 -724 809 -725H539Q523 -723 519 -706H505V-776H519Q522 -757 539 -757H836Q894 -756 915 -735Q933 -714 932 -677V-10Q931 52 875 74Q840 88 795 82Q749 76 730 62V23H742Q751 44 780 54Q804 60 825 50Q853 36 853 0ZM734 -493Q766 -493 781 -481Q799 -466 799 -438V-278Q799 -248 782 -234Q763 -218 731 -218H666V26Q663 50 690 53V66H565V53Q591 50 589 26V-218H437V-230Q456 -233 456 -253V-458Q457 -477 437 -480V-493H589V-566H474Q458 -564 454 -547H441V-617H454Q457 -598 474 -598H589V-640Q592 -668 569 -667V-680H688V-667Q664 -665 666 -640V-598H781Q799 -600 802 -617H814V-547H802Q798 -565 781 -566H666V-493Z"/>
</svg>