<svg xmlns="http://www.w3.org/2000/svg" viewBox="0 -800 1024 1024">
	<path fill="#000000" d="M478 -684H576V-671Q554 -666 558 -653L576 -579Q579 -563 598 -561V-548H503V-561Q525 -563 521 -579L502 -653Q499 -669 478 -671ZM164 -452H228Q265 -452 264 -491V-688Q264 -724 228 -724H164ZM710 -461H721Q723 -446 732 -442Q745 -440 749 -457L778 -651Q781 -668 759 -671V-684H858V-671Q838 -667 835 -651L821 -557H869Q901 -557 915 -543Q930 -529 929 -500V-340Q928 -321 948 -318V-305H856V-318Q877 -319 876 -340V-501Q877 -526 854 -525H816L808 -465Q804 -436 784 -422Q765 -407 739 -415Q724 -419 710 -431ZM761 -171Q768 -195 768 -219V-344Q770 -369 745 -369V-382H849V-369Q828 -366 828 -344V-218H887V-205Q870 -202 873 -185L903 35Q904 45 909 47Q914 49 921 43Q934 36 937 13H948V56Q937 71 923 78Q900 88 879 80Q855 71 851 42L821 -167V-165L754 39Q744 66 724 77Q702 88 679 80Q659 74 644 54V8H657Q661 29 671 40Q684 51 693 33ZM447 4Q447 56 422 72Q402 90 372 82Q342 72 325 43V-5H338Q341 35 360 39Q378 42 379 12V-720Q379 -740 359 -744V-757H903Q921 -759 924 -776H937V-706H924Q920 -724 903 -725H447ZM479 -537H492Q495 -518 512 -518H601L639 -653Q644 -668 620 -671V-684H720V-671Q700 -669 696 -653L658 -518H688Q706 -520 709 -537H722V-469H709Q705 -485 688 -486H630V-193Q630 -184 629 -174H642Q668 -175 669 -202V-379Q670 -398 651 -400V-413H729V-400Q709 -397 709 -379V-207Q709 -174 691 -159Q676 -144 639 -145H626Q624 -140 624 -137L581 37Q573 64 552 77Q532 88 506 81Q487 75 471 53V11H484Q487 34 498 42Q514 53 521 31L562 -139Q562 -142 564 -145H471V-158Q492 -163 492 -181V-379Q492 -397 473 -400V-413H549V-400Q531 -395 532 -379V-174H568Q569 -181 569 -188V-486H512Q496 -484 492 -467H479ZM101 -322Q102 -343 79 -344V-357H174V-344Q151 -340 152 -322V-1L206 -24V-419H73V-432Q96 -436 97 -459V-719Q97 -739 73 -744V-757H241Q295 -757 315 -735Q331 -717 331 -681V-504Q331 -462 311 -442Q298 -427 275 -423V-272H309Q327 -274 330 -291H342V-221H330Q326 -239 309 -239H275V-54L318 -72Q338 -81 338 -93H351V-23H338Q333 -44 318 -40L92 55Q74 63 71 76H58V7H71Q77 30 92 24L101 20Z"/>
</svg>