<svg xmlns="http://www.w3.org/2000/svg" viewBox="0 -800 1024 1024">
	<path fill="#000000" d="M106 -261H244V-249Q222 -247 227 -231L308 -43Q313 -28 332 -25V-13H199V-25Q217 -29 214 -41L132 -232Q127 -244 106 -249ZM374 -261H512V-249Q490 -247 495 -231L576 -43Q581 -28 600 -25V-13H467V-25Q485 -29 482 -41L400 -232Q395 -244 374 -249ZM335 -516L244 -381H766L695 -494Q681 -517 638 -516ZM915 32Q933 30 936 13H949V83H936Q931 64 915 64H92Q76 65 71 83H58V13H71Q76 32 92 32H656L767 -230Q773 -247 751 -249V-261H889V-249Q867 -243 863 -231L752 32ZM248 -781H393V-768Q366 -764 366 -736V-695H641V-736Q641 -767 614 -768V-781H759V-768Q732 -764 732 -736V-695H915Q933 -697 936 -714H949V-643H936Q931 -662 915 -662H732V-627Q731 -601 759 -595V-583H614V-595Q641 -600 641 -627V-662H366V-627Q365 -601 393 -595V-583H248V-595Q275 -600 275 -627V-662H92Q76 -661 71 -643H58V-714H71Q76 -695 92 -695H275V-736Q275 -766 248 -768ZM680 -548Q724 -548 753 -533Q782 -518 799 -490L898 -333Q916 -306 949 -302V-289H788V-302Q811 -305 802 -325L787 -348H222L207 -325Q198 -307 220 -302V-289H58V-302Q94 -309 111 -333L231 -512Q238 -531 213 -536V-548Z"/>
</svg>