<svg xmlns="http://www.w3.org/2000/svg" viewBox="0 -800 1024 1024">
	<path fill="#000000" d="M259 -781H406V-768Q378 -763 378 -741V-697H629V-741Q628 -766 601 -768V-781H748V-768Q720 -763 720 -741V-697H915Q933 -699 936 -716H949V-645H936Q932 -663 915 -664H720V-621Q719 -597 748 -591V-578H601V-591Q629 -596 629 -621V-664H378V-621Q377 -597 406 -591V-578H259V-591Q287 -596 287 -621V-664H92Q76 -663 71 -645H58V-716H71Q76 -697 92 -697H287V-741Q286 -766 259 -768ZM912 -518Q930 -520 932 -537H945V-466H932Q929 -484 912 -485H215V2Q215 49 184 72Q148 95 99 78Q70 66 58 45V-5H71Q76 28 100 36Q123 41 127 13V-478Q126 -499 100 -505V-518ZM798 -371Q846 -372 862 -358Q884 -341 884 -301V-173Q884 -118 832 -94Q784 -71 699 -80Q610 -88 571 -122V-178H583Q596 -127 691 -114Q789 -106 796 -160V-311Q796 -339 765 -339H444V-34Q445 33 545 43Q598 48 669 49Q738 49 774 46Q936 29 936 -30H949V26Q914 52 849 65Q803 75 724 81Q648 86 579 84Q444 81 399 50Q355 22 355 -44V-333Q354 -353 329 -359V-371Z"/>
</svg>