<svg xmlns="http://www.w3.org/2000/svg" viewBox="0 -800 1024 1024">
	<path fill="#000000" d="M582 -453V-346H788V-453ZM582 -312V-205H788V-312ZM582 -172V-58L788 -71V-172ZM565 -581H771Q803 -583 805 -615V-692Q805 -724 771 -724H565ZM809 -757Q853 -757 872 -739Q890 -723 890 -693V-613Q890 -580 870 -566Q850 -549 810 -549H454V-562Q479 -567 480 -587V-720Q480 -739 454 -744V-757ZM162 -748Q165 -765 141 -767V-781H256V-767Q230 -766 225 -748L204 -650H381Q399 -652 402 -669H414V-599H402Q397 -618 381 -618H197L138 -346H241V-502Q242 -533 213 -533V-547H350V-533Q321 -529 322 -502V-346H381Q399 -347 402 -365H415V-294H402Q398 -312 381 -313H322V-157L398 -169Q416 -173 418 -188H431V-118H418Q412 -139 398 -137L322 -125V31Q321 57 350 62V76H213V62Q242 58 241 31V-113L92 -90Q75 -87 71 -71H58V-142H71Q76 -120 92 -123L241 -145V-313H58V-326Q72 -326 75 -343L134 -618H92Q76 -617 71 -599H58V-669H71Q76 -650 92 -650H141ZM872 32Q870 59 900 63V76H759V63Q789 59 788 32V-38L449 -17Q432 -14 429 2H416V-69H429Q433 -49 449 -50L497 -53V-453H465Q449 -452 444 -434H431V-505H444Q449 -486 465 -486H904Q922 -488 925 -505H937V-434H925Q921 -452 904 -453H872V-76L915 -79Q934 -82 936 -98H949V-27H936Q932 -47 915 -46L872 -43Z"/>
</svg>