<svg xmlns="http://www.w3.org/2000/svg" viewBox="0 -800 1024 1024">
	<path fill="#000000" d="M274 -336Q293 -336 298 -353L330 -458Q335 -472 318 -475V-488H403V-475Q385 -474 381 -458L350 -353Q345 -337 364 -336V-323H274ZM273 -285H359V-272Q340 -269 342 -256L352 -126Q354 -111 367 -115Q381 -119 384 -144H397V-102Q385 -85 368 -81Q346 -74 326 -85Q306 -99 303 -123L292 -256Q290 -269 273 -272ZM530 -4H542Q546 27 578 34Q608 39 619 12L676 -172Q680 -191 656 -196V-209H780V-196Q759 -193 752 -172L694 10Q679 55 645 68Q613 81 577 71Q548 64 530 41ZM338 -4H351Q354 26 385 34Q415 39 426 12L483 -172Q488 -192 461 -196V-209H587V-196Q566 -192 560 -172L502 10Q488 54 455 68Q421 81 384 71Q356 62 338 41ZM769 -455Q809 -457 811 -498V-573H535V-455ZM535 -724V-606H811V-682Q811 -724 769 -724ZM243 32Q241 57 270 63V76H133V63Q161 59 161 32V-303Q155 -300 149 -299Q122 -294 97 -303Q75 -309 58 -330V-384H71Q75 -361 84 -349Q99 -331 114 -351L260 -603Q269 -622 248 -624H107Q91 -622 87 -605H74V-676H87Q90 -657 107 -657H172V-738Q173 -762 144 -768V-781H282V-768Q254 -763 254 -738V-657H296Q329 -657 343 -637Q357 -615 341 -587L243 -419ZM389 -303H402Q407 -279 422 -268Q448 -255 462 -282L527 -422H420V-435Q446 -439 448 -459V-720Q447 -738 420 -744V-757H798Q848 -757 872 -738Q897 -718 897 -674V-513Q897 -467 875 -446Q851 -422 798 -422H618L573 -326H827Q882 -326 908 -301Q932 -277 932 -230V-9Q932 40 899 65Q872 86 814 84Q755 81 719 44V-2H731Q745 41 796 48Q846 51 848 6V-247Q847 -292 804 -293H558L550 -275Q533 -240 500 -230Q476 -222 440 -228Q413 -235 389 -252Z"/>
</svg>