<svg xmlns="http://www.w3.org/2000/svg" viewBox="0 -800 1024 1024">
	<path fill="#000000" d="M74 -781H208V-768Q186 -763 191 -749L269 -611Q278 -596 297 -593V-581H161V-594Q187 -598 179 -611L101 -749Q93 -767 74 -768ZM171 -438Q170 -466 143 -467H91Q76 -466 71 -448H58V-519H71Q75 -499 91 -500H177Q219 -500 238 -481Q259 -461 258 -423V3Q259 37 286 37Q304 35 317 19Q331 -1 334 -25H347V31Q335 51 314 64Q289 80 256 82Q220 83 197 62Q171 39 171 -6ZM752 -522Q794 -521 793 -563V-685Q793 -724 752 -724H506V-522ZM591 -212H400Q383 -210 379 -193H365V-264H379Q383 -244 400 -245H604Q605 -251 605 -258V-377H427Q411 -376 406 -358H392V-429H406Q410 -409 427 -410H873Q891 -412 893 -429H907V-358H893Q889 -376 873 -377H695V-260Q695 -252 694 -245H899Q918 -247 921 -264H934V-193H921Q918 -211 899 -212H687Q686 -210 685 -207Q683 -203 682 -201L654 -152H792V-139Q768 -136 775 -118L857 23Q876 54 905 41Q931 28 936 -7H949V45Q928 72 895 78Q856 91 817 75Q786 62 769 34L678 -122Q670 -137 651 -139V-147L549 31Q530 64 495 77Q457 91 421 79Q391 70 375 45V-7H388Q394 21 411 35Q437 55 458 22ZM785 -757Q836 -757 859 -738Q882 -719 882 -673V-575Q882 -529 860 -509Q838 -487 781 -488H391V-500Q416 -505 418 -529V-717Q417 -739 391 -744V-757Z"/>
</svg>