<svg xmlns="http://www.w3.org/2000/svg" viewBox="0 -800 1024 1024">
	<path fill="#000000" d="M655 -575Q679 -577 689 -589L797 -729Q802 -736 799 -738Q796 -741 783 -741V-754H928V-741Q903 -740 895 -728L787 -589Q781 -576 804 -575V-562H655ZM78 -754H221V-741Q208 -741 206 -738Q202 -736 208 -729L316 -589Q324 -577 349 -575V-562H200V-575Q224 -576 217 -589L110 -728Q101 -740 78 -741ZM219 -290V-151H787V-290ZM219 -461V-321H787V-421Q787 -461 743 -461ZM779 -492Q824 -492 850 -474Q878 -452 878 -408V-18Q879 41 842 63Q801 87 722 83Q619 78 566 52V3H578Q603 43 694 52Q786 56 787 -2V-120H219V32Q219 59 246 62V76H103V62Q130 59 129 32V-454Q128 -474 102 -479V-492H457V-739Q458 -767 432 -768V-781H573V-768Q547 -766 548 -739V-492Z"/>
</svg>