<svg xmlns="http://www.w3.org/2000/svg" viewBox="0 -800 1024 1024">
	<path fill="#000000" d="M524 -435H523Q521 -435 519 -439Q516 -444 512 -444H511Q511 -451 513 -457H515Q524 -457 524 -440ZM772 -215H769Q763 -213 758 -208Q754 -212 754 -216Q754 -219 762 -232Q748 -238 731 -269Q713 -303 696 -308Q692 -305 692 -299Q692 -292 696 -286Q700 -277 716 -257Q732 -237 736 -226Q733 -223 731 -223Q729 -223 724 -228Q719 -233 716 -233Q707 -253 679 -290Q647 -222 637 -172Q622 -166 605 -163V-164Q605 -168 598 -173V-177Q598 -183 597 -190V-193Q583 -220 568 -247H567Q564 -244 560 -241L559 -242Q563 -261 566 -280Q565 -295 555 -321Q545 -346 545 -359Q558 -341 568 -319Q564 -337 549 -364Q535 -388 532 -397Q544 -391 553 -373Q562 -356 571 -343Q550 -385 526 -431Q553 -395 579 -356Q594 -370 598 -375Q607 -386 613 -404Q604 -421 586 -450Q568 -479 566 -502V-506Q567 -523 568 -540V-543Q569 -546 570 -550Q568 -557 566 -565Q566 -568 567 -570H571Q586 -570 587 -573L588 -577Q587 -583 586 -589V-592Q594 -586 599 -579Q604 -581 612 -581Q628 -578 642 -552Q658 -520 669 -505Q680 -533 692 -559Q703 -584 712 -616Q716 -620 719 -625Q715 -639 715 -649V-653Q711 -660 690 -662Q701 -670 714 -679Q728 -689 737 -704Q756 -707 775 -716Q791 -700 792 -697Q795 -689 808 -676Q819 -665 824 -655Q830 -642 832 -611Q834 -575 840 -562V-560L838 -559H837Q838 -556 838 -548Q838 -522 825 -509Q818 -505 811 -505Q810 -502 808 -500H801Q792 -492 785 -488H783Q785 -503 805 -515Q825 -527 827 -545Q828 -548 828 -556Q828 -576 815 -623Q805 -619 805 -600Q807 -577 808 -555Q808 -541 803 -536Q781 -527 770 -503Q758 -480 748 -452H750Q752 -452 756 -458Q760 -465 764 -465L767 -464Q758 -441 747 -419Q756 -412 757 -401Q759 -402 764 -408Q770 -416 776 -416H777Q771 -404 768 -388V-383Q771 -379 775 -379Q779 -379 786 -385Q793 -391 795 -391Q796 -391 799 -388Q783 -380 781 -355Q781 -345 785 -337Q806 -345 831 -349Q822 -339 806 -335Q790 -332 787 -316V-312Q786 -299 784 -287Q796 -285 807 -284Q801 -280 793 -279Q785 -278 782 -269Q783 -267 783 -263Q779 -242 775 -229V-227Q778 -215 781 -203Q777 -203 776 -207Q774 -211 772 -215ZM815 79V72L816 68Q814 69 811 69Q806 69 804 64Q800 74 795 83Q793 79 793 76Q794 70 794 64Q794 62 793 59Q786 61 784 69Q782 77 779 83Q778 80 778 75Q779 65 780 55V52Q779 45 774 40Q768 34 764 28Q754 10 754 -10Q754 -22 755 -29Q753 -31 748 -31H737V-33Q738 -37 738 -41V-43Q746 -45 754 -47L758 -46Q760 -52 760 -54Q760 -64 746 -68Q730 -70 724 -70Q715 -70 691 -68Q650 -65 629 -60Q597 -52 582 -34Q585 -23 593 -23Q605 -27 625 -37Q630 -39 669 -44Q679 -45 689 -47Q698 -47 703 -41Q648 -34 595 -5Q578 6 574 19Q561 20 552 49Q542 80 532 83Q527 78 520 76L516 77Q511 66 505 55Q496 46 491 31Q478 -38 478 -40L476 -41H470V-44Q470 -50 474 -56L472 -57Q468 -55 464 -54L463 -55Q475 -80 484 -107Q478 -125 474 -143Q472 -150 466 -160Q458 -173 457 -182Q451 -186 443 -189Q435 -191 431 -200Q439 -202 442 -202Q463 -200 473 -174Q483 -147 496 -127Q496 -170 478 -206Q468 -222 457 -232Q452 -237 443 -239Q434 -241 429 -244Q422 -248 414 -270Q407 -287 401 -292Q394 -282 394 -268Q394 -254 410 -209Q398 -210 390 -227Q385 -239 379 -265Q371 -294 362 -323Q361 -326 361 -333Q364 -366 371 -389Q369 -393 369 -399Q371 -409 373 -419V-434Q376 -447 388 -466Q399 -483 402 -494Q404 -510 406 -527Q409 -522 411 -515Q413 -507 419 -506L421 -509Q420 -514 418 -520V-521H419Q422 -521 425 -516Q427 -512 429 -511Q433 -513 435 -513L437 -512Q446 -506 455 -499Q457 -493 461 -489Q466 -485 470 -481Q485 -457 499 -434Q504 -411 511 -403V-400Q511 -390 518 -377Q524 -365 525 -361Q527 -353 529 -339Q532 -317 536 -310Q538 -281 548 -262Q551 -205 565 -149Q583 -150 615 -160Q641 -169 656 -170Q667 -171 676 -171Q686 -172 693 -179H695Q700 -178 701 -175Q722 -183 757 -183Q782 -183 793 -181Q835 -329 867 -460Q858 -500 858 -517Q858 -539 869 -550Q889 -565 899 -568Q902 -569 908 -569Q915 -569 919 -566Q925 -546 931 -542Q936 -544 943 -551Q942 -544 941 -537Q941 -529 947 -529Q952 -531 959 -542Q969 -557 976 -560Q974 -551 965 -538Q953 -520 953 -507V-506H954Q956 -506 959 -510Q964 -516 966 -516L969 -515Q964 -501 960 -482V-478Q963 -464 981 -464L982 -462Q978 -455 973 -448Q972 -445 972 -439Q972 -432 979 -416Q972 -401 973 -382Q972 -376 965 -360Q957 -342 957 -328Q951 -334 948 -334Q943 -334 934 -321Q927 -310 923 -308Q922 -311 922 -315Q922 -327 938 -343Q950 -355 950 -364V-367Q949 -376 941 -376Q922 -370 912 -355Q903 -331 895 -298Q865 -200 859 -140Q861 -136 863 -133Q881 -184 898 -235Q900 -242 903 -251Q905 -259 911 -260H912Q912 -252 906 -239Q898 -221 898 -208Q885 -159 871 -110V-100Q868 -97 866 -90Q863 -80 859 -79Q857 -83 857 -86Q859 -96 861 -107L857 -108Q848 -108 842 -91Q837 -76 837 -56Q838 -46 838 -37H839Q844 -37 847 -48Q850 -58 853 -58Q855 -57 857 -56Q852 -18 841 25Q830 69 815 79ZM466 -63Q461 -52 456 -41Q447 -38 438 -31Q429 -24 422 -29Q425 -32 426 -32Q432 -36 438 -40Q440 -41 442 -43L441 -44Q434 -55 409 -38Q400 -29 403 -23Q406 -19 412 -21Q417 -22 419 -21Q421 -16 412 -12Q407 -9 402 -6L396 -2Q361 25 347 39Q340 42 336 41Q362 15 387 -12Q379 -16 367 -8Q352 15 332 23Q324 25 302 43Q279 62 283 68Q288 74 311 61L312 59Q318 55 323 50Q328 47 332 48Q319 64 301 79L297 81Q295 83 274 88Q262 92 246 70Q235 55 228 53Q226 53 224 50Q222 46 220 46H218Q201 46 187 55V54Q187 47 211 38Q204 24 204 7Q206 -33 217 -44L224 -45Q218 -49 212 -53L213 -54Q220 -54 223 -53Q228 -58 233 -94Q239 -143 251 -145Q251 -72 267 -58Q265 -160 271 -235Q265 -236 261 -220Q257 -203 257 -197Q252 -177 243 -159Q242 -164 242 -185Q241 -216 238 -247Q236 -277 241 -301Q213 -293 193 -269Q166 -262 146 -224Q134 -221 127 -221Q123 -221 115 -223Q105 -231 93 -256Q84 -275 79 -282Q73 -290 67 -299L66 -303Q68 -309 69 -315V-317Q68 -330 67 -344Q67 -348 68 -351Q63 -360 54 -367Q45 -374 40 -380Q42 -382 46 -382Q58 -377 68 -368Q66 -382 44 -398Q26 -411 21 -421Q34 -420 52 -404Q66 -391 75 -389Q76 -397 62 -406Q49 -414 47 -422Q64 -416 80 -405Q86 -402 89 -402H90Q94 -404 97 -407Q101 -409 113 -409Q121 -408 129 -408Q136 -408 138 -409Q183 -417 206 -423Q210 -421 214 -420Q207 -413 186 -410Q164 -407 152 -403Q140 -397 138 -387Q138 -380 145 -374Q189 -388 205 -393Q220 -398 261 -420Q259 -424 252 -426Q239 -423 225 -420L221 -421Q223 -433 236 -433H238Q250 -443 264 -450Q269 -449 274 -449Q278 -449 282 -450Q287 -447 292 -445Q297 -447 308 -455Q318 -463 326 -465V-464Q322 -458 311 -450Q306 -443 306 -434Q306 -430 306 -427Q311 -428 319 -434Q329 -442 335 -443Q319 -430 319 -418Q319 -409 328 -405Q333 -408 339 -411H342L343 -410Q341 -406 338 -403L340 -400L342 -398Q345 -399 348 -400Q343 -395 343 -383Q344 -366 345 -350Q345 -343 343 -340H342Q338 -340 336 -344Q334 -347 333 -350Q321 -345 320 -332Q318 -319 312 -308Q311 -306 305 -302Q300 -298 298 -293Q300 -290 302 -287H307Q324 -288 330 -301Q336 -314 346 -325Q350 -318 349 -310Q349 -309 343 -282Q338 -277 332 -279Q316 -278 311 -252Q307 -227 309 -191Q317 -112 313 -72Q329 -83 345 -95Q354 -102 340 -124Q329 -141 326 -156Q330 -153 342 -137Q353 -123 360 -120Q363 -128 342 -160L364 -137L334 -194L375 -142Q375 -154 363 -180Q368 -179 373 -174Q378 -166 381 -158Q388 -148 395 -138Q402 -128 411 -121Q431 -107 443 -94Q446 -91 448 -89Q453 -82 456 -75Q464 -65 466 -63ZM113 -524V-527Q113 -539 129 -539Q133 -539 135 -538Q126 -525 113 -524ZM210 -675V-679Q210 -685 209 -691L210 -695H212Q219 -693 224 -689Q241 -696 259 -699Q277 -702 286 -716Q292 -714 296 -704Q299 -697 302 -694Q310 -689 317 -685Q329 -672 339 -658Q341 -658 344 -663Q347 -668 352 -668L355 -667Q353 -661 353 -650Q359 -616 380 -597Q389 -568 389 -546Q389 -522 377 -507Q376 -506 358 -493Q348 -483 338 -478Q330 -476 326 -476Q313 -476 287 -497Q267 -514 255 -517Q250 -517 242 -510Q237 -506 234 -506Q233 -508 233 -511Q236 -521 243 -529Q243 -532 240 -532Q237 -532 237 -535Q211 -531 206 -529Q194 -525 177 -512Q162 -500 154 -497Q155 -506 163 -514Q172 -521 181 -529Q212 -554 212 -562Q212 -566 206 -568Q204 -569 199 -569Q186 -569 165 -554Q149 -543 142 -543Q150 -559 170 -566Q189 -573 191 -592Q191 -595 190 -598Q178 -598 169 -601Q179 -609 188 -618Q186 -635 170 -650Q152 -667 148 -678Q163 -665 183 -665Q199 -665 210 -675Z"/>
</svg>