<svg xmlns="http://www.w3.org/2000/svg" viewBox="0 -800 1024 1024">
	<path fill="#000000" d="M659 -40Q676 -42 679 -59H692V9H679Q674 -9 659 -10H95Q80 -9 75 9H62V-59H75Q78 -39 95 -40ZM226 -602V-536H781V-570Q780 -601 746 -602ZM746 -441Q781 -441 781 -473V-507H226V-441ZM265 -781H412V-767Q384 -764 384 -738V-730H623V-738Q624 -766 595 -767V-781H742V-767Q714 -764 714 -738V-730H915Q933 -732 936 -749H949V-681H936Q932 -699 915 -700H714V-694Q712 -667 742 -665V-651H595V-665Q624 -667 623 -694V-700H384V-694Q382 -667 412 -665V-651H265V-665Q294 -667 293 -694V-700H92Q76 -699 71 -681H58V-749H71Q76 -730 92 -730H293V-738Q294 -766 265 -767ZM905 -355Q922 -357 925 -374H938V-306H925Q920 -324 905 -325H766L854 -249Q879 -230 902 -233Q935 -240 936 -273H949V-225Q933 -210 910 -203Q880 -195 841 -198Q796 -205 767 -231L658 -325H345L278 -265H693Q730 -265 742 -240Q755 -210 729 -176L683 -122H789Q829 -122 849 -107Q870 -89 870 -51V-3Q868 48 808 68Q767 82 672 84Q627 85 571 78Q518 70 491 55V16H504Q510 40 571 52Q574 53 575 53Q660 65 722 52Q781 39 780 -2V-64Q781 -94 751 -92H181V-104Q199 -104 217 -120L264 -164Q275 -179 246 -182V-195H400V-182Q377 -181 359 -166L313 -122H582L652 -204Q669 -232 639 -235H244L240 -231Q211 -204 166 -198Q127 -195 97 -203Q76 -210 58 -225V-273H71Q72 -240 105 -233Q128 -230 153 -249L237 -325H102Q87 -323 82 -306H69V-374H82Q86 -354 102 -355H270L332 -411H110V-423Q135 -428 136 -452V-595Q135 -616 110 -620V-632H785Q835 -633 852 -617Q871 -600 871 -566V-474Q871 -438 849 -425Q829 -411 786 -411H440L378 -355Z"/>
</svg>