<svg xmlns="http://www.w3.org/2000/svg" viewBox="0 -800 1024 1024">
	<path fill="#000000" d="M181 -724V-517H300V-686Q300 -724 262 -724ZM181 -485V-278H300V-485ZM804 -264Q857 -266 859 -315V-476H735V-264ZM526 -264H650V-476H526ZM804 -724H735V-507H859V-671Q859 -724 804 -724ZM526 -724V-507H650V-724ZM104 -718Q105 -739 81 -744V-757H281Q336 -757 358 -733Q376 -712 376 -674V7Q376 44 353 66Q328 86 290 83Q243 80 217 44V-4H230Q236 37 267 43Q299 41 300 14V-245H181V15Q181 48 159 69Q133 90 98 81Q73 73 58 44V-4H71Q76 28 86 39Q102 50 104 22ZM735 32Q733 59 763 63V76H622V63Q651 59 650 32V-231H430V-244Q453 -248 454 -271V-720Q454 -739 430 -744V-757H821Q891 -758 913 -730Q932 -706 932 -656V-333Q932 -279 904 -254Q875 -230 819 -231H735Z"/>
</svg>