<svg xmlns="http://www.w3.org/2000/svg" viewBox="0 -800 1024 1024">
	<path fill="#000000" d="M825 -449Q858 -449 858 -477V-512H768V-449ZM825 -605H768V-542H858V-577Q859 -606 825 -605ZM604 -605V-542H695V-605ZM604 -449H695V-512H604ZM758 -232H869V-220Q850 -217 857 -202L881 -167Q891 -152 912 -156Q933 -161 936 -180H949V-146Q934 -133 909 -129Q878 -124 854 -129Q825 -135 813 -155L782 -202Q773 -217 758 -220ZM514 -180H526Q530 -160 550 -156Q570 -152 582 -167L606 -202Q614 -217 594 -220V-232H705V-220Q690 -217 681 -202L651 -155Q639 -135 610 -128Q583 -124 554 -129Q525 -135 514 -146ZM166 -452H238Q273 -452 273 -491V-688Q273 -724 237 -724H166ZM671 -123H791V-110Q768 -107 768 -82V-69H882Q899 -70 902 -87H915V-21H902Q899 -39 882 -39H768V36H911Q930 35 932 19H944V84H932Q928 66 911 65H550Q535 67 530 84H517V19H530Q534 37 550 36H694V-39H580Q563 -37 560 -21H547V-87H559Q563 -69 580 -69H694V-82Q695 -105 671 -110ZM489 -5Q489 41 459 65Q426 91 379 82Q340 76 319 48V7H331Q340 39 368 47Q407 52 409 9V-675Q408 -695 383 -701V-714H659V-746Q659 -764 633 -768V-781H770V-768Q744 -763 744 -746V-714H914Q932 -716 934 -733H947V-663H934Q931 -681 914 -682H489ZM909 -289Q927 -290 929 -306H942V-241H929Q926 -259 909 -259H552Q536 -257 533 -241H519V-306H532Q536 -288 552 -289H695V-340H580Q563 -338 560 -322H547V-388H559Q563 -370 580 -370H695V-419H524V-432Q547 -438 547 -458V-598Q547 -618 524 -622V-635H839Q879 -635 895 -625Q915 -612 915 -578V-480Q915 -443 892 -430Q869 -418 836 -419H768V-370H882Q899 -371 902 -388H915V-322H902Q899 -340 882 -340H768V-289ZM101 -322Q102 -343 79 -344V-357H177V-344Q154 -341 155 -322V-1L212 -24V-419H73V-432Q96 -436 97 -459V-719Q97 -739 73 -744V-757H253Q307 -757 327 -735Q343 -717 343 -681V-504Q343 -462 323 -442Q308 -427 284 -422V-272H329Q347 -274 350 -291H362V-221H350Q346 -239 329 -239H284V-52L330 -71Q349 -78 351 -92H364V-22H351Q346 -42 330 -39L92 55Q74 63 71 76H58V7H71Q77 30 92 24L101 20Z"/>
</svg>