<svg xmlns="http://www.w3.org/2000/svg" viewBox="0 -800 1024 1024">
	<path fill="#000000" d="M843 -360Q861 -361 864 -379H877V-308H864Q859 -327 843 -327H163Q147 -325 143 -308H130V-379H143Q148 -360 163 -360ZM330 22Q300 70 235 80Q187 89 136 76Q90 65 58 41V-19H71Q91 34 150 46Q209 51 233 16L304 -106Q314 -124 285 -129V-142H440V-129Q416 -128 405 -108ZM852 -523Q895 -524 910 -508Q926 -494 926 -462V-427Q925 -408 949 -404V-391H811V-404Q836 -404 835 -427V-460Q837 -492 805 -490H173V-427Q172 -408 197 -404V-391H59V-404Q83 -405 82 -427V-486Q82 -506 59 -510V-523H458V-578Q459 -604 433 -605V-618H575V-605Q550 -603 550 -578V-523ZM681 -7Q680 45 753 53Q804 57 853 44Q929 25 936 -20H949V38Q907 63 874 71Q830 83 761 84Q672 87 629 60Q590 34 590 -21V-183H92Q76 -181 71 -163H58V-234H71Q76 -215 92 -215H915Q933 -217 936 -234H949V-163H936Q930 -183 915 -183H681ZM217 -781H361V-768Q335 -764 335 -736V-689H672V-736Q672 -767 646 -768V-781H790V-768Q763 -763 763 -736V-689H915Q933 -691 936 -708H949V-637H936Q931 -656 915 -656H763V-613Q762 -586 790 -581V-568H646V-581Q672 -585 672 -613V-656H335V-613Q334 -586 360 -581V-568H217V-581Q243 -585 243 -613V-656H92Q76 -655 71 -637H58V-708H71Q76 -689 92 -689H243V-736Q243 -767 217 -768Z"/>
</svg>