<svg xmlns="http://www.w3.org/2000/svg" viewBox="0 -800 1024 1024">
	<path fill="#000000" d="M552 -49Q554 35 644 46Q725 56 821 40Q926 18 936 -40H949V22Q907 54 822 71Q708 90 632 85Q552 80 512 50Q465 15 465 -60V-202L295 -177Q278 -174 275 -158H262V-228H275Q279 -207 295 -209L465 -234V-417Q466 -444 438 -446V-459H578V-446Q551 -442 552 -417V-247L852 -293Q871 -296 873 -312H885V-241H873Q867 -262 852 -260L552 -215ZM412 -781H559V-768Q530 -764 531 -741V-703H897Q914 -705 917 -722H930V-652H917Q911 -671 897 -671H531V-556H845Q885 -556 905 -538Q926 -520 926 -487V-414Q926 -392 949 -389V-376H814V-389Q838 -394 837 -414V-486Q836 -522 796 -523H224V1Q224 46 192 69Q162 88 119 81Q80 74 58 48V-2H71Q81 33 103 38Q134 44 136 12V-518Q136 -539 111 -543V-556H440V-741Q441 -768 412 -768Z"/>
</svg>