<svg xmlns="http://www.w3.org/2000/svg" viewBox="0 -800 1024 1024">
	<path fill="#000000" d="M180 -724V-517H298V-685Q298 -724 262 -724ZM180 -485V-278H298V-485ZM528 -178H646V-599H528ZM816 -599H729V-178H816Q853 -180 855 -220V-560Q854 -598 816 -599ZM104 -718Q105 -739 81 -744V-757H280Q335 -757 356 -734Q374 -715 374 -674V7Q374 44 351 66Q327 86 289 83Q246 81 220 44V-4H233Q238 39 267 43Q296 41 298 14V-245H180V15Q180 48 158 69Q133 90 97 81Q72 73 58 44V-4H71Q77 35 87 41Q102 48 104 20ZM729 32Q728 58 756 63V76H620V63Q647 59 646 32V-146H429V-159Q453 -162 454 -185V-594Q454 -614 429 -618V-631H646V-736Q647 -767 620 -768V-781H756V-768Q729 -764 729 -736V-631H842Q892 -632 912 -606Q930 -584 930 -550V-232Q930 -190 908 -170Q886 -145 839 -146H729Z"/>
</svg>