<svg xmlns="http://www.w3.org/2000/svg" viewBox="0 -800 1024 1024">
	<path fill="#000000" d="M446 -364V-351Q423 -347 403 -333L318 -277Q291 -256 243 -242Q180 -225 126 -235Q90 -241 58 -263V-316H71Q93 -269 139 -267Q177 -267 209 -290L275 -333Q283 -338 280 -343Q276 -349 264 -351V-364ZM743 -364V-351Q731 -349 727 -343Q724 -338 732 -333L798 -290Q830 -267 868 -267Q914 -269 936 -316H949V-263Q917 -241 881 -235Q827 -225 764 -242Q716 -256 689 -277L604 -333Q584 -347 561 -351V-364ZM217 -781H361V-768Q335 -763 335 -737V-697H672V-737Q672 -767 646 -768V-781H790V-768Q763 -763 763 -737V-697H915Q933 -699 936 -716H949V-644H936Q931 -664 915 -664H763V-627Q762 -600 790 -595V-582H646V-595Q672 -598 672 -627V-664H335V-627Q334 -600 360 -595V-582H217V-595Q243 -598 243 -627V-664H92Q76 -662 71 -644H58V-716H71Q76 -697 92 -697H243V-737Q244 -768 217 -768ZM433 -626H575V-613Q550 -611 550 -586V-544H865Q883 -546 886 -563H899V-492H886Q881 -511 865 -511H550V-425H915Q933 -427 936 -444H949V-372H936Q931 -392 915 -392H92Q76 -390 71 -372H58V-444H71Q76 -425 92 -425H458V-511H142Q126 -510 121 -492H108V-563H121Q126 -544 142 -544H458V-586Q459 -612 433 -613ZM752 -143Q759 -146 759 -153Q757 -159 749 -159H363Q329 -141 269 -130Q195 -120 144 -129Q102 -136 71 -159V-212H83Q103 -163 172 -159Q231 -157 271 -183L376 -252Q383 -257 380 -261Q377 -266 364 -268V-280H545V-268Q521 -264 506 -254L413 -191H810Q855 -189 862 -153Q864 -120 826 -106L583 -24L780 32Q837 49 877 40Q920 31 935 -21H949V35Q931 58 900 70Q864 84 808 84Q761 84 708 70L489 7L301 71Q260 85 205 85Q150 85 112 71Q78 57 58 33V-21H71Q96 32 134 42Q172 51 224 33L387 -21L197 -76Q177 -81 145 -87Q135 -89 129 -90V-103H405V-91Q393 -90 389 -85Q386 -81 394 -78L482 -53Z"/>
</svg>