<svg xmlns="http://www.w3.org/2000/svg" viewBox="0 -800 1024 1024">
	<path fill="#000000" d="M822 -750H908V-737Q891 -732 893 -721L902 -676Q904 -661 922 -658V-645H835V-658Q852 -661 850 -676L841 -721Q838 -735 822 -737ZM534 -487Q535 -515 507 -519V-531H635V-519Q609 -516 609 -487L604 -342H657Q674 -344 677 -361H690V-290H677Q672 -308 657 -309H603L594 6Q592 51 563 73Q532 95 488 72Q463 57 447 30V-22H460Q468 12 484 25Q498 38 508 34Q518 30 518 11L528 -309H480Q465 -307 460 -290H447V-361H460Q464 -341 480 -342H529ZM136 -249Q136 -228 160 -224V-211H58V-224Q81 -227 81 -249V-721Q82 -741 58 -745V-758H332Q378 -758 394 -737Q410 -718 410 -685V-249Q410 -227 433 -224V-211H332V-224Q356 -229 355 -249V-694Q356 -726 323 -725H136ZM283 -281Q283 -248 281 -234Q279 -218 272 -199L262 -171H361V-158Q338 -155 341 -135L371 21Q378 55 399 41Q414 27 419 1H431V52Q415 69 394 77Q366 90 338 76Q308 60 299 25L268 -136Q265 -148 256 -154L190 33Q179 64 156 76Q126 90 94 77Q77 71 58 52V1H71Q73 22 86 38Q104 54 114 25L200 -219Q207 -239 207 -272Q207 -282 207 -288V-626Q209 -650 183 -651V-664H306V-651Q282 -649 283 -626ZM826 -5Q833 50 884 38Q927 23 936 -25H949V31Q922 70 880 81Q824 93 787 73Q748 48 744 -5L735 -130H674Q659 -128 654 -111H641V-181H654Q658 -163 674 -164H733L704 -582H477Q461 -580 457 -563H444V-634H457Q460 -615 477 -615H702L694 -736Q693 -766 666 -768V-781H802V-768Q773 -765 776 -736L784 -615H914Q931 -617 934 -634H947V-563H934Q929 -581 914 -582H786L815 -164H834Q865 -162 864 -195L874 -468Q875 -488 855 -491V-504H949V-491Q928 -486 927 -471L917 -217Q915 -164 896 -147Q880 -129 838 -130H817Z"/>
</svg>