<svg xmlns="http://www.w3.org/2000/svg" viewBox="0 -800 1024 1024">
	<path fill="#000000" d="M219 -318V-223H787V-278Q787 -318 743 -318ZM219 -192V-96H787V-192ZM804 -636V-649Q830 -651 831 -676V-697Q830 -721 804 -722H549V-598H863Q881 -600 884 -616H897V-547H884Q880 -565 863 -565H549V-451H915Q933 -453 936 -470H949V-401H936Q932 -419 915 -420H478Q420 -418 380 -444L252 -519L232 -455Q220 -424 189 -408Q155 -392 118 -399Q78 -408 58 -427V-476H71Q74 -452 105 -434Q134 -424 144 -454L200 -625Q206 -639 179 -645V-657H311V-645Q292 -640 287 -625L264 -554L408 -469Q432 -455 458 -452V-722H108Q93 -720 88 -703H75V-774H88Q92 -755 108 -755H852Q883 -755 900 -742Q921 -727 921 -695V-676Q923 -651 949 -649V-636ZM779 -349Q824 -349 850 -331Q878 -309 878 -265V-18Q879 42 843 64Q806 87 724 83Q627 78 566 52V1H579Q592 26 629 38Q684 55 735 51Q788 48 787 -5V-65H219V32Q219 59 246 62V76H103V62Q130 59 129 32V-311Q128 -331 102 -336V-349Z"/>
</svg>