<svg xmlns="http://www.w3.org/2000/svg" viewBox="0 -800 1024 1024">
	<path fill="#000000" d="M257 -337Q275 -339 279 -354L304 -455Q308 -470 293 -472V-485H370V-472Q356 -472 352 -455L327 -354Q321 -339 342 -337V-324H257ZM257 -287H343V-275Q324 -272 326 -258L336 -126Q339 -105 365 -109Q387 -118 390 -145H402V-103Q390 -87 368 -80Q338 -71 311 -83Q288 -95 286 -122L276 -258Q274 -272 257 -275ZM831 -398H801V-168H833Q865 -168 865 -197V-369Q864 -397 831 -398ZM688 -168H752V-398H688ZM710 -545H813Q843 -545 843 -574V-695Q844 -725 813 -724H710ZM493 -226Q494 -261 458 -260H364V-272Q380 -275 383 -298L403 -478Q404 -499 383 -505V-517H454Q491 -516 490 -552V-690Q491 -725 454 -724H386Q370 -723 366 -704H353V-776H366Q369 -759 386 -757H477Q521 -757 542 -744Q565 -729 565 -688V-555Q565 -523 547 -503Q528 -485 492 -485H475L454 -292H489Q528 -292 547 -276Q568 -259 568 -221V-12Q568 44 526 68Q484 93 422 79Q377 68 346 40V-12H358Q371 36 431 47Q491 52 493 3ZM247 -603Q255 -623 235 -624H107Q91 -622 87 -605H74V-676H87Q90 -657 107 -657H165V-738Q166 -762 137 -768V-781H274V-768Q246 -763 246 -738V-657H279Q311 -657 326 -633Q337 -614 323 -587L229 -406V32Q227 57 257 63V76H121V63Q149 59 149 32V-298Q125 -290 97 -302Q75 -308 58 -329V-382H71Q75 -362 85 -348Q103 -327 119 -357ZM602 11H614Q620 30 636 28L738 12V-135H603V-148Q625 -152 626 -175V-393Q626 -413 603 -418V-431H738V-513H612V-525Q637 -530 638 -553V-718Q638 -739 612 -744V-757H833Q874 -757 892 -744Q916 -728 916 -692V-583Q916 -548 896 -531Q875 -513 833 -513H815V-431H846Q888 -431 907 -416Q927 -403 927 -369V-205Q927 -170 908 -153Q889 -135 846 -135H815V0L872 -8L862 -66Q860 -81 843 -82V-95H928V-82Q909 -77 911 -66L930 45Q931 60 949 63V76H862V63Q883 59 882 45L878 23L636 61Q619 67 614 82H602Z"/>
</svg>