<svg xmlns="http://www.w3.org/2000/svg" viewBox="0 -800 1024 1024">
	<path fill="#000000" d="M532 -307V-160H658V-307ZM734 -307V-160H861V-307ZM822 -489H734V-339H861V-451Q860 -488 822 -489ZM532 -489V-339H658V-489ZM287 -588H267V-240H287Q324 -241 325 -278V-550Q324 -587 287 -588ZM153 -240H210V-588H153ZM319 -163H407V-150Q389 -146 389 -135V46Q389 60 407 63V76H319V63Q336 60 337 46V-18L90 51Q75 58 70 72H58V2H70Q76 23 90 19L200 -12V-207H66V-220Q88 -224 88 -247V-582Q88 -603 66 -608V-620H200V-739Q201 -766 175 -768V-781H302V-768Q276 -765 277 -739V-620H303Q353 -620 373 -597Q391 -576 390 -538V-295Q390 -250 371 -230Q351 -207 301 -207H277V-34L337 -51V-135Q337 -148 319 -150ZM503 -680H643V-668Q620 -661 626 -651L664 -609H705Q733 -608 748 -627L816 -706Q822 -713 819 -719Q815 -724 805 -724H484Q468 -723 463 -705H450V-776H463Q466 -757 484 -757H844Q890 -757 902 -735Q914 -711 890 -681L828 -611Q813 -593 787 -583Q765 -576 737 -576H694L744 -522H843Q900 -523 917 -498Q932 -480 932 -439V8Q932 47 905 69Q871 92 824 80Q793 72 773 45V-4H786Q794 39 824 44Q858 43 861 9V-127H734V39Q733 58 758 63V76H635V63Q659 59 658 39V-127H532V35Q531 59 558 63V76H434V63Q461 59 460 35V-485Q459 -506 434 -509V-522H654L537 -652Q525 -668 503 -668Z"/>
</svg>