<svg xmlns="http://www.w3.org/2000/svg" viewBox="0 -800 1024 1024">
	<path fill="#000000" d="M233 -246H342V-233Q323 -229 324 -214L356 -55Q358 -42 378 -37V-24H268V-37Q289 -39 288 -56L256 -215Q252 -232 233 -233ZM76 -246H184V-233Q163 -229 167 -214L213 -55Q217 -41 235 -37V-24H124V-37Q148 -40 143 -57L98 -215Q93 -232 76 -233ZM253 -510L196 -386H420L376 -479Q362 -510 328 -510ZM509 -2Q526 -4 529 -20H541V48H529Q523 29 509 30L91 64Q74 67 71 83H59V14H71Q75 33 91 33L384 8L445 -214Q448 -229 428 -233V-246H538V-233Q519 -232 515 -215L456 2ZM258 -781H405V-768Q376 -764 377 -738V-700H630V-738Q630 -766 602 -768V-781H749V-768Q721 -762 721 -738V-700H915Q933 -702 936 -718H949V-649H936Q931 -668 915 -668H721V-625Q720 -600 749 -596V-583H602V-596Q630 -599 630 -625V-668H377V-625Q376 -599 405 -596V-583H258V-596Q287 -598 286 -625V-668H92Q76 -667 71 -649H58V-718H71Q75 -700 92 -700H286V-738Q286 -767 258 -768ZM170 -328Q163 -308 189 -303V-291H64V-303Q82 -305 91 -327L172 -504Q179 -525 152 -530V-543H355Q391 -543 414 -530Q437 -516 453 -483L528 -327Q536 -305 555 -303V-291H428V-303Q456 -310 449 -327L436 -353H181ZM534 -425H547Q549 -401 565 -393Q579 -387 591 -415L627 -515Q632 -530 608 -536V-549H739V-536Q716 -531 711 -515L690 -460H905Q923 -462 926 -479H939V-408H926Q922 -426 905 -427H886V-277Q887 -227 863 -195L788 -83L863 22Q885 49 909 38Q933 26 936 -2H949V44Q935 65 917 75Q882 91 847 82Q810 70 784 35L745 -19L705 41Q686 68 658 78Q626 90 599 76Q578 65 561 44V-2H573Q577 21 595 34Q611 47 625 27L699 -83L616 -198Q603 -215 599 -230Q596 -243 596 -272V-298Q595 -315 575 -318V-331H699V-318Q678 -316 677 -298V-265Q677 -237 689 -220L742 -146L790 -218Q806 -241 806 -268V-427H678L675 -418Q664 -384 641 -370Q611 -349 578 -356Q551 -361 534 -384Z"/>
</svg>