<svg xmlns="http://www.w3.org/2000/svg" viewBox="0 -800 1024 1024">
	<path fill="#000000" d="M423 -182H533V-168Q522 -169 519 -166Q515 -163 521 -158L553 -124Q565 -112 584 -109V-96H475V-109Q485 -110 487 -114Q489 -117 482 -124L450 -158Q442 -167 423 -168ZM763 -109Q780 -112 794 -124L826 -158Q831 -163 828 -166Q824 -169 814 -168V-182H924V-168Q905 -167 897 -158L865 -124Q860 -118 862 -114Q864 -111 873 -109V-96H763ZM762 -479Q778 -480 786 -494L821 -538Q831 -550 809 -553V-566H915V-553Q900 -552 891 -538L858 -494Q848 -481 872 -479V-466H762ZM431 -566H537V-553Q516 -550 525 -538L560 -494Q568 -480 584 -479V-466H474V-479Q497 -482 490 -492L454 -538Q445 -552 431 -553ZM396 -6H409Q416 16 428 24Q443 31 460 13L490 -31Q498 -44 473 -49V-62H587V-49Q574 -46 564 -34Q563 -32 562 -31L528 18Q513 39 486 50Q463 59 437 53Q414 49 396 34ZM756 -62H872V-48Q845 -43 855 -31L885 11Q903 31 917 25Q930 17 935 -6H948V34Q930 48 908 54Q880 59 860 51Q834 40 817 19L779 -31Q768 -46 756 -48ZM179 -541V-385H293V-506Q293 -541 257 -541ZM179 -352V-196H293V-352ZM632 -206Q633 -236 603 -236V-248H743V-236Q714 -233 715 -206V12Q714 48 689 68Q663 88 619 83Q580 76 556 51V10H569Q577 46 605 50Q630 50 632 14ZM251 -781H398V-768Q369 -764 370 -738V-716H637V-738Q637 -767 609 -768V-781H756V-768Q728 -762 728 -738V-716H915Q933 -718 936 -734H949V-664H936Q931 -683 915 -683H728V-650Q727 -625 756 -621V-608H609V-621Q637 -624 637 -650V-683H370V-650Q369 -623 398 -621V-608H251V-621Q280 -623 279 -650V-683H92Q76 -682 71 -664H58V-734H71Q75 -716 92 -716H279V-738Q279 -767 251 -768ZM395 -264H408Q411 -240 436 -233Q462 -229 482 -249L541 -316H446Q430 -314 426 -298H413V-366H426Q429 -348 446 -348H632V-406H471Q455 -405 450 -388H438V-456H450Q454 -438 471 -438H632V-549Q633 -579 604 -579V-592H742V-579Q714 -575 715 -549V-438H874Q893 -440 894 -456H907V-388H894Q890 -405 874 -406H715V-348H899Q916 -350 919 -366H932V-298H919Q913 -315 899 -316H803L865 -249Q885 -229 909 -233Q933 -239 936 -264H949V-223Q931 -208 904 -201Q877 -194 849 -200Q814 -206 787 -234L711 -316H631L559 -234Q535 -208 502 -201Q471 -193 441 -201Q415 -207 395 -223ZM105 -537Q105 -556 81 -561V-574H274Q328 -574 351 -551Q369 -532 368 -496V12Q368 46 344 67Q321 85 283 84Q236 80 211 47V3H223Q231 41 263 48Q292 49 293 19V-164H179V20Q179 61 149 77Q121 89 90 75Q70 67 58 47V3H71Q75 34 87 43Q104 49 105 25Z"/>
</svg>