<svg xmlns="http://www.w3.org/2000/svg" viewBox="0 -800 1024 1024">
	<path fill="#000000" d="M820 -415Q858 -416 859 -452V-525H744V-415ZM820 -668H744V-558H859V-629Q859 -668 820 -668ZM547 -668V-558H663V-668ZM547 -525V-415H663V-525ZM196 -724V-549H305V-724ZM196 -516V-339H305V-516ZM196 -306V-112L305 -129V-306ZM502 -139V-151Q518 -151 527 -172L583 -278H476Q460 -276 456 -259H443V-329H456Q459 -310 476 -310H916Q934 -312 936 -329H949V-259H936Q933 -277 916 -278H671L614 -171H816Q863 -171 889 -151Q909 -134 909 -97V-33Q909 23 873 51Q836 81 758 84Q701 86 644 72Q580 55 546 27V-31H559Q576 18 647 40Q705 58 755 48Q824 35 824 -24V-103Q822 -138 783 -139ZM663 -736Q664 -766 635 -768V-781H771V-768Q744 -765 744 -736V-701H833Q884 -701 906 -680Q928 -660 928 -614V-465Q928 -424 906 -404Q884 -382 833 -382H453V-395Q479 -400 479 -422V-664Q479 -684 456 -688V-701H663ZM379 37Q377 59 403 63V75H281V63Q306 60 305 37V-84L92 -52Q77 -49 71 -29H58V-112H71Q74 -93 92 -96L122 -100V-724H99Q84 -722 79 -705H66V-774H79Q82 -757 99 -757H397Q415 -758 417 -774H430V-705H417Q413 -723 397 -724H379V-140L416 -146Q434 -150 437 -168H450V-86H437Q432 -104 416 -101L379 -95Z"/>
</svg>