<svg xmlns="http://www.w3.org/2000/svg" viewBox="0 -800 1024 1024">
	<path fill="#000000" d="M224 -591H295V-577Q280 -575 282 -557L298 -450Q299 -433 317 -430V-416H246V-430Q261 -434 259 -450L244 -557Q241 -573 224 -577ZM224 -273H295V-259Q280 -257 283 -239L298 -127Q300 -109 317 -107V-93H247V-107Q262 -111 260 -127L244 -239Q243 -256 224 -259ZM826 -560H757V-277H867V-521Q866 -559 826 -560ZM564 -560V-277H674V-560ZM825 43Q866 42 867 8V-244H757V43ZM564 43H674V-244H564ZM189 -645V-364H353V-606Q352 -644 314 -645ZM111 -639Q111 -661 84 -665V-677H206L228 -743Q237 -765 208 -768V-781H342V-767Q318 -765 313 -743L290 -677H337Q392 -677 413 -654Q431 -635 431 -595V3Q431 46 401 67Q364 89 316 79Q277 72 250 43V-7H263Q268 33 313 41Q350 48 353 11V-331H189V5Q189 45 164 67Q136 93 94 76Q76 69 59 43V-7H72Q75 23 90 34Q98 41 105 37Q111 32 111 18V-331H93Q77 -329 73 -312H59V-382H73Q75 -363 93 -364H111ZM674 -736Q675 -767 646 -768V-781H785V-768Q757 -764 757 -736V-593H842Q894 -593 916 -569Q932 -549 932 -510V-6Q932 34 909 54Q886 76 837 76H476V63Q499 60 499 36V-554Q499 -575 476 -580V-593H674Z"/>
</svg>