<svg xmlns="http://www.w3.org/2000/svg" viewBox="0 -800 1024 1024">
	<path fill="#000000" d="M621 -658H712V-645Q694 -642 697 -627L722 -496Q725 -481 747 -478V-466H654V-478Q672 -480 668 -496L642 -627Q639 -644 621 -645ZM741 -145Q776 -148 778 -179V-263Q777 -295 741 -297H548V-145ZM228 -297V-145H458V-297ZM385 -510Q404 -516 406 -532H418V-462H406Q400 -481 385 -477L93 -398Q75 -392 72 -379H60V-450H72Q78 -427 93 -431L209 -462V-718H116Q100 -717 95 -699H83V-770H95Q100 -751 116 -751H387Q405 -753 408 -770H421V-699H408Q403 -718 387 -718H293V-485ZM779 -757Q824 -757 845 -739Q867 -723 867 -681V-466Q869 -431 905 -439Q933 -448 936 -478H949V-430Q931 -410 894 -402Q845 -392 814 -413Q784 -433 783 -477V-688Q783 -724 747 -724H582V-478Q582 -443 555 -422Q527 -404 489 -413Q456 -420 440 -438V-487H453Q456 -461 473 -452Q494 -444 498 -468V-721Q498 -739 474 -744V-757ZM787 -330Q824 -330 844 -314Q867 -294 867 -257V-180Q867 -147 844 -129Q822 -112 788 -112H548V5L793 -10L764 -54Q754 -69 735 -70V-83H865V-70Q840 -66 848 -54L917 47Q926 62 946 63V76H816V63Q840 60 832 47L815 21L91 65Q75 68 71 84H58V14H71Q75 34 91 33L458 10V-112H114V-125Q139 -129 140 -152V-292Q139 -313 114 -317V-330H458V-345Q458 -377 431 -376V-389H576V-376Q547 -372 548 -345V-330Z"/>
</svg>