<svg xmlns="http://www.w3.org/2000/svg" viewBox="0 -800 1024 1024">
	<path fill="#000000" d="M754 -724V-377H839V-688Q838 -723 803 -724ZM471 -724V-377H557V-688Q556 -723 521 -724ZM166 -452H240Q281 -452 281 -493V-685Q280 -724 240 -724H166ZM101 -322Q102 -343 79 -344V-357H178V-344Q155 -340 156 -322V1L211 -17V-419H73V-432Q96 -436 97 -458V-719Q97 -739 73 -744V-757H260Q314 -757 333 -735Q351 -716 350 -676V-504Q350 -462 329 -442Q314 -425 285 -421V-269H324Q342 -271 345 -288H358V-218H345Q341 -236 324 -237H285V-43L329 -59Q348 -67 349 -81H362V-10H349Q344 -30 329 -27L92 55Q75 62 71 76H58V7H71Q77 29 92 24L101 21ZM471 15Q471 53 446 71Q419 91 384 78Q355 68 337 45V1H349Q354 30 379 41Q402 48 404 17V-344H393Q377 -342 373 -325H361V-396H373Q376 -377 393 -377H404V-718Q404 -739 383 -744V-757H532Q587 -757 608 -733Q624 -717 624 -675V-377H687V-718Q687 -740 663 -744V-757H814Q869 -757 891 -733Q906 -717 906 -675V-377H915Q934 -379 937 -396H949V-325H937Q931 -343 915 -344H906V7Q906 42 886 65Q858 93 820 79Q798 72 773 45V1H785Q792 29 814 42Q838 50 839 14V-344H754V15Q754 46 738 66Q716 90 686 78Q661 69 645 45V1H657Q659 26 670 36Q677 43 682 39Q687 34 687 20V-344H624V7Q624 46 604 65Q580 90 543 82Q508 72 490 45V1H502Q509 40 536 43Q556 40 557 14V-344H471Z"/>
</svg>