<svg xmlns="http://www.w3.org/2000/svg" viewBox="0 -800 1024 1024">
	<path fill="#000000" d="M548 -273H787Q826 -274 827 -309V-455H674Q657 -454 653 -436H641V-506H653Q657 -488 674 -487H827V-630Q827 -663 792 -663H664Q648 -662 643 -644H631V-715H643Q647 -696 664 -696H821Q874 -697 895 -678Q916 -660 916 -615V-322Q916 -281 894 -262Q872 -240 820 -240H545Q541 -213 523 -194L516 -187H648V-174Q622 -170 631 -157L802 23Q824 43 860 44Q900 45 922 23Q936 10 936 -14H949V43Q928 72 878 81Q841 88 797 82Q738 70 706 38L519 -158Q512 -164 500 -170L297 43Q274 67 238 78Q201 87 152 84Q84 76 58 44V-14H71Q79 15 106 31Q134 48 166 41Q195 34 211 17L438 -224Q444 -231 449 -240H67V-253Q90 -256 90 -278V-658Q90 -678 67 -681V-694H252Q269 -694 274 -704L284 -725Q285 -736 267 -740V-753H404V-740Q388 -736 378 -722L365 -697Q354 -675 341 -669Q328 -660 296 -661H179V-487H331Q349 -489 351 -506H364V-436H351Q348 -454 331 -455H179V-273H456Q457 -279 457 -285V-736Q458 -765 430 -767V-780H575V-767Q548 -763 548 -736Z"/>
</svg>