<svg xmlns="http://www.w3.org/2000/svg" viewBox="0 -800 1024 1024">
	<path fill="#000000" d="M233 -434H341V-421Q322 -417 326 -405L372 -318Q379 -305 399 -299V-287H289V-300Q309 -304 305 -318L258 -405Q250 -417 233 -421ZM606 -299Q626 -305 633 -318L680 -405Q684 -417 665 -421V-434H773V-421Q756 -417 748 -405L701 -318Q696 -304 716 -300V-287H606ZM210 -123H219Q236 -90 259 -86Q281 -81 287 -106L310 -223Q312 -236 289 -240V-252H395V-240Q394 -240 393 -239Q374 -234 373 -223L352 -111Q344 -79 320 -67Q290 -50 251 -60Q228 -65 210 -79ZM610 -252H716V-240Q693 -236 695 -223L719 -106Q723 -83 748 -88Q776 -95 786 -123H795V-79Q780 -66 751 -59Q716 -52 692 -64Q660 -78 653 -111L632 -223Q631 -235 610 -240ZM248 -781H393V-768Q366 -764 366 -736V-693H641V-736Q641 -766 615 -768V-781H759V-768Q732 -763 732 -736V-693H915Q933 -695 936 -712H949V-641H936Q931 -660 915 -660H732V-633Q731 -606 759 -601V-588H615V-601Q641 -605 641 -633V-660H366V-633Q365 -606 393 -601V-588H248V-601Q275 -604 275 -633V-660H92Q76 -659 71 -641H58V-712H71Q76 -693 92 -693H275V-736Q275 -766 248 -768ZM642 -554Q684 -553 694 -524Q701 -495 671 -469L562 -378Q545 -363 545 -342V-88Q545 -38 510 -9Q466 24 405 6Q374 -4 352 -25V-71H364Q379 -22 423 -24Q459 -32 461 -68V-351Q460 -389 494 -417L598 -503Q604 -509 603 -515Q601 -521 593 -521H264Q248 -519 244 -502H231V-573H244Q248 -554 264 -554ZM61 76V63Q86 57 87 36V-426Q88 -456 60 -457V-470H197V-457Q170 -453 170 -426V43H796Q833 41 836 3V-426Q837 -457 809 -457V-470H945V-457Q918 -454 919 -426V-11Q919 31 899 51Q879 76 823 76Z"/>
</svg>