<svg xmlns="http://www.w3.org/2000/svg" viewBox="0 -800 1024 1024">
	<path fill="#000000" d="M157 -240H230V-588H157ZM327 -588H291V-240H327Q365 -241 366 -278V-550Q366 -588 327 -588ZM915 13Q933 11 936 -6H949V64H936Q932 46 915 45H491Q475 46 470 64H458V-6H470Q473 13 491 13H659V-685H513Q497 -684 492 -666H479V-737H492Q495 -718 513 -718H895Q912 -720 915 -737H928V-666H915Q910 -685 895 -685H748V13ZM354 -163H442V-150Q425 -146 425 -135V46Q425 61 442 63V76H354V63Q371 60 372 46V-19L91 51Q75 56 71 72H58V2H71Q76 22 91 19L218 -13V-207H66V-220Q89 -224 89 -247V-582Q89 -603 66 -608V-620H218V-739Q219 -766 193 -768V-781H329V-768Q303 -765 304 -739V-620H344Q396 -620 416 -597Q433 -579 433 -538V-295Q433 -250 414 -230Q393 -207 342 -207H304V-34L372 -51V-135Q372 -148 354 -150Z"/>
</svg>