<svg xmlns="http://www.w3.org/2000/svg" viewBox="0 -800 1024 1024">
	<path fill="#000000" d="M787 -478Q804 -479 810 -495L853 -618Q859 -632 838 -635V-648H949V-635Q933 -635 927 -619L884 -495Q878 -480 901 -478V-465H787ZM593 -648H705V-635Q686 -632 692 -618L735 -495Q741 -480 761 -478V-465H644V-478Q667 -480 661 -495L618 -619Q612 -634 593 -635ZM411 -648H524V-635Q504 -632 510 -618L554 -495Q559 -480 579 -478V-465H462V-478Q485 -480 479 -495L436 -619Q430 -634 411 -635ZM436 -695Q421 -693 416 -676H403V-747H416Q419 -728 436 -728H794Q812 -727 819 -740L825 -752Q832 -765 812 -768V-781H948V-768Q931 -766 923 -752L908 -727Q896 -709 878 -702Q858 -695 831 -695ZM173 -452H266Q306 -452 306 -493V-685Q306 -724 266 -724H173ZM406 76V63Q429 60 429 37V-334Q429 -354 406 -357V-370H539Q555 -369 562 -381L571 -398Q574 -409 555 -414V-427H686V-414Q669 -410 661 -395L645 -365Q636 -348 623 -341Q610 -334 584 -334H517V-166H619Q637 -168 639 -185H652V-114H639Q636 -132 619 -133H517V43H804Q843 42 844 7V-133H741Q725 -131 722 -114H708V-185H721Q724 -167 741 -166H844V-303Q844 -337 809 -337H738Q722 -336 717 -318H704V-389H717Q721 -370 738 -370H838Q889 -370 911 -352Q932 -333 932 -289V-6Q932 34 910 54Q888 76 837 76ZM101 -322Q102 -343 79 -344V-357H182V-344Q158 -340 159 -322V2L229 -21V-419H73V-432Q96 -436 97 -458V-719Q97 -739 73 -744V-757H291Q345 -757 364 -735Q382 -717 382 -676V-504Q382 -462 361 -442Q343 -423 308 -420V-269H358Q375 -271 378 -288H391V-218H378Q373 -236 358 -237H308V-47L368 -67Q387 -74 389 -89H402V-18H389Q384 -37 368 -34L92 55Q75 62 71 76H58V7H71Q77 29 92 24L101 21Z"/>
</svg>