<svg xmlns="http://www.w3.org/2000/svg" viewBox="0 -800 1024 1024">
	<path fill="#000000" d="M74 -780H212V-767Q188 -763 193 -749L273 -614Q281 -599 304 -593V-581H164V-594Q191 -596 182 -612L101 -749Q92 -767 74 -767ZM256 6Q258 39 285 28Q309 19 316 -20H328V31Q317 52 297 66Q271 81 242 82Q211 81 191 61Q169 39 169 0V-438Q168 -466 140 -467H91Q76 -466 71 -448H58V-519H71Q76 -500 92 -500H174Q218 -500 237 -480Q256 -460 256 -423ZM504 3Q504 50 470 71Q441 88 404 79Q371 73 349 45V-4H362Q367 23 380 32Q413 51 416 14V-655Q416 -682 391 -687V-700H762Q791 -699 804 -722L820 -750Q828 -765 801 -768V-781H949V-768Q931 -766 921 -751L895 -706Q882 -683 858 -673Q829 -664 806 -664H504V-472H916Q933 -473 936 -490H949V-419H936Q932 -436 916 -436H779V-165L916 -42Q931 -29 949 -24V-12H832V-24Q853 -26 847 -40L779 -100V32Q778 58 807 63V76H665V63Q694 59 693 32V-177L547 -308Q532 -322 514 -325V-338H635V-325Q613 -320 621 -308L693 -243V-436H504Z"/>
</svg>