<svg xmlns="http://www.w3.org/2000/svg" viewBox="0 -800 1024 1024">
	<path fill="#000000" d="M794 -487Q832 -489 834 -528V-589H707V-487ZM794 -724H707V-621H834V-685Q833 -723 794 -724ZM515 -589V-487H641V-589ZM515 -724V-621H641V-724ZM396 -17H409Q410 -1 421 10Q439 23 450 2L486 -89Q493 -104 469 -107V-120H579V-107Q561 -104 556 -89L517 9Q506 38 475 47Q451 53 427 43Q412 39 396 25ZM763 -120H874V-107Q850 -104 857 -89L894 1Q905 24 923 10Q934 0 936 -17H948V25Q936 37 920 43Q895 53 872 48Q840 39 827 9L787 -89Q781 -104 763 -107ZM288 -588H266V-240H288Q327 -241 328 -278V-550Q327 -587 288 -588ZM153 -240H215V-588H153ZM58 2H71Q77 23 92 19L200 -12V-207H65V-220Q90 -224 90 -247V-582Q90 -603 65 -608V-620H200V-739Q201 -766 173 -768V-781H308V-768Q281 -765 282 -739V-620H298Q354 -620 375 -597Q392 -576 392 -538V-295Q392 -253 371 -230Q350 -207 296 -207H282V-36L329 -49V-135Q329 -148 312 -150V-163H397V-150Q380 -146 380 -135V46Q380 61 396 63V76H312V63Q328 60 329 46V-17L92 51Q76 58 71 72H58ZM436 -343Q432 -370 466 -391L577 -454H413V-467Q436 -471 437 -493V-720Q437 -739 413 -744V-757H817Q872 -757 893 -733Q911 -715 911 -674V-542Q911 -497 889 -477Q866 -453 816 -454H690L526 -360Q517 -355 520 -349Q524 -344 536 -345Q611 -345 661 -350L729 -382Q736 -386 734 -391Q732 -395 724 -396V-409H893V-396Q884 -395 856 -381L513 -216Q505 -211 507 -206Q511 -200 521 -200Q683 -202 813 -222L790 -268Q781 -288 760 -289V-301H884V-289Q858 -285 868 -267L910 -185Q920 -166 938 -164V-151H817V-164Q843 -167 832 -186L827 -196Q788 -188 713 -177V5Q713 44 687 67Q660 87 614 83Q575 76 552 49V7H565Q573 47 600 47Q628 42 630 8V-168Q528 -160 464 -161Q419 -163 412 -194Q410 -227 446 -247L594 -317Q546 -312 497 -312Q446 -313 436 -343Z"/>
</svg>