<svg xmlns="http://www.w3.org/2000/svg" viewBox="0 -800 1024 1024">
	<path fill="#000000" d="M799 -408Q836 -410 838 -450V-542Q837 -580 799 -581H722V-408ZM521 -581V-408H637V-581ZM172 -452H261Q298 -452 297 -491V-688Q297 -724 261 -724H172ZM101 -322Q102 -343 79 -344V-357H181V-344Q158 -340 159 -322V0L221 -21V-419H73V-432Q96 -436 97 -459V-719Q97 -739 73 -744V-757H283Q336 -757 356 -735Q374 -717 373 -681V-504Q373 -462 353 -442Q334 -421 296 -419V-272H349Q367 -273 370 -291H383V-221H370Q366 -239 349 -239H296V-48L361 -71Q380 -78 382 -92H394V-22H382Q377 -42 361 -39L92 55Q75 62 71 76H58V7H71Q77 30 92 24L101 21ZM530 -87H543Q546 -69 563 -72L637 -83V-267H502V32Q500 59 527 63V76H403V63Q428 60 427 32V-263Q427 -281 404 -287V-300H637V-376H427V-389Q450 -392 450 -415V-575Q451 -596 427 -601V-614H637V-690H451Q435 -688 431 -671H418V-741H431Q434 -722 451 -722H792Q809 -721 815 -734L824 -752Q828 -764 806 -768V-781H947V-768Q930 -765 922 -752L910 -728Q898 -707 880 -698Q864 -689 828 -690H722V-614H818Q872 -614 891 -593Q909 -575 909 -536V-458Q909 -417 889 -398Q869 -375 815 -376H722V-300H839Q894 -300 915 -276Q933 -255 932 -218V-9Q932 49 881 73Q836 92 779 77Q733 67 707 44V-6H720Q727 25 755 41Q785 57 818 48Q856 36 857 0V-228Q856 -266 818 -267H707V-93L767 -101L759 -172Q758 -190 741 -190V-203H821V-190Q802 -187 803 -172L818 -48Q820 -30 836 -27V-15H756V-27Q777 -29 774 -49L771 -71L563 -39Q546 -35 543 -16H530Z"/>
</svg>