<svg xmlns="http://www.w3.org/2000/svg" viewBox="0 -800 1024 1024">
	<path fill="#000000" d="M588 43H787Q824 41 826 3V-274Q826 -312 787 -312H588ZM179 -747Q183 -765 158 -767V-781H281V-767Q256 -766 252 -748L226 -647H403Q421 -649 424 -666H437V-595H424Q420 -613 403 -614H218L152 -346H267V-502Q268 -533 239 -533V-547H380V-533Q351 -529 352 -502V-346H405Q422 -348 425 -365H439V-294H425Q421 -312 405 -313H352V-167L407 -177Q426 -182 427 -198H440V-126H427Q422 -147 407 -145L352 -135V31Q351 57 380 62V76H239V62Q268 58 267 31V-120L92 -90Q75 -86 71 -71H58V-142H71Q76 -120 92 -123L267 -153V-313H58V-326Q75 -327 79 -343L146 -614H92Q76 -613 71 -595H58V-666H71Q76 -647 92 -647H154ZM664 -736Q665 -767 636 -768V-781H779V-768Q751 -764 751 -736V-581H915Q933 -583 936 -600H949V-529H936Q932 -547 915 -548H751V-345H819Q874 -345 895 -322Q913 -303 913 -263V-11Q913 31 893 51Q872 76 817 76H475V63Q501 59 502 36V-306Q501 -328 476 -332V-345H664V-548H501Q485 -547 480 -529H467V-600H480Q485 -581 501 -581H664Z"/>
</svg>