<svg xmlns="http://www.w3.org/2000/svg" viewBox="0 -800 1024 1024">
	<path fill="#000000" d="M178 -724V-517H285V-688Q285 -724 248 -724ZM178 -485V-278H285V-485ZM915 -656Q933 -658 936 -675H949V-604H936Q932 -622 915 -623H443Q426 -622 422 -604H410V-675H422Q427 -656 443 -656H635V-742Q636 -766 607 -768V-781H751V-768Q722 -765 723 -742V-656ZM513 43H803Q846 43 846 -1V-52Q837 -46 827 -43Q802 -34 776 -43Q747 -53 735 -83L679 -232L623 -83Q611 -53 582 -43Q555 -34 528 -44Q519 -46 513 -51ZM104 -718Q104 -739 81 -744V-757H267Q315 -757 338 -737Q359 -718 359 -674V7Q359 46 338 66Q315 87 279 83Q230 77 207 45V2H219Q224 29 259 40Q285 46 285 14V-245H178V15Q178 58 151 75Q125 91 92 75Q71 66 58 45V2H71Q73 26 86 36Q102 47 104 20ZM563 -541Q556 -558 535 -562V-575H642V-562Q614 -557 620 -540L679 -384L738 -540Q744 -557 716 -562V-575H824V-562Q804 -558 795 -541L707 -308L792 -86Q808 -59 838 -77Q843 -82 846 -88V-494Q847 -515 824 -515V-528H944V-515Q922 -513 922 -494V-12Q922 34 900 54Q877 76 832 76H413V63Q437 59 437 40V-494Q438 -513 413 -515V-528H534V-515Q511 -513 513 -494V-87Q516 -80 522 -76Q550 -61 566 -86L650 -308Z"/>
</svg>