<svg xmlns="http://www.w3.org/2000/svg" viewBox="0 -800 1024 1024">
	<path fill="#000000" d="M172 -452H260Q297 -452 296 -491V-688Q296 -724 260 -724H172ZM408 -512V-525Q432 -527 431 -548V-708Q433 -728 408 -730V-742H529V-730Q505 -727 506 -708V-545H628V-736Q629 -766 600 -768V-781H741V-768Q713 -764 713 -736V-545H805Q835 -544 835 -574V-708Q836 -729 812 -730V-742H932V-730Q908 -727 909 -708V-579Q909 -544 890 -527Q872 -512 831 -512ZM630 39Q628 63 646 63V76H561V63Q580 62 578 39V-276H497V39Q496 60 518 63V75H403V63Q425 60 424 39V-272Q424 -292 401 -296V-309H590L623 -408H424Q408 -406 404 -389H391V-460H404Q407 -441 424 -441H915Q933 -443 936 -460H949V-389H936Q932 -407 915 -408H710L676 -309H823Q878 -309 899 -285Q917 -266 917 -226V14Q917 53 893 71Q861 93 823 77Q804 69 786 47V2H799Q800 21 818 38Q841 50 843 28V-237Q842 -275 804 -276H763V39Q761 63 780 63V76H695V63Q713 62 711 39V-276H630ZM101 -322Q102 -343 79 -344V-357H181V-344Q158 -340 159 -322V0L221 -21V-419H73V-432Q96 -436 97 -459V-719Q97 -739 73 -744V-757H282Q335 -757 355 -735Q373 -717 372 -681V-504Q372 -462 352 -442Q332 -422 296 -419V-272H351Q368 -274 371 -291H384V-221H371Q367 -239 351 -239H296V-48L361 -71Q380 -78 382 -92H394V-22H382Q377 -42 361 -39L92 55Q75 62 71 76H58V7H71Q77 30 92 24L101 21Z"/>
</svg>