<svg xmlns="http://www.w3.org/2000/svg" viewBox="0 -800 1024 1024">
	<path fill="#000000" d="M75 -780H217V-767Q193 -762 197 -749L276 -614Q287 -597 308 -593V-581H168V-594Q194 -595 185 -611L104 -749Q94 -766 75 -767ZM178 -438Q177 -466 148 -467H91Q76 -466 71 -448H58V-519H71Q76 -500 92 -500H179Q225 -500 246 -480Q267 -460 266 -421V-5Q268 33 305 34Q326 32 344 13Q358 -3 365 -31H378V23Q363 46 338 61Q307 81 271 81Q234 84 207 62Q178 38 178 -8ZM343 -559H357Q363 -521 393 -512Q423 -504 438 -537L520 -746Q525 -764 500 -767V-781H638V-767Q619 -764 611 -747L581 -670H782Q827 -670 844 -644Q859 -621 847 -584L787 -418H829Q884 -418 906 -398Q932 -374 932 -332V-21Q932 22 904 45Q873 70 830 70H440Q422 69 420 84H406V14H420Q422 32 440 32H796Q839 31 840 -8V-160H455Q439 -158 435 -141H422V-212H434Q439 -193 455 -193H840V-342Q840 -382 796 -382H440Q423 -381 420 -366H406V-436H420Q423 -418 440 -418H696L763 -602Q772 -633 738 -634H567L527 -531Q512 -497 478 -480Q438 -462 395 -474Q361 -486 343 -511Z"/>
</svg>