<svg xmlns="http://www.w3.org/2000/svg" viewBox="0 -800 1024 1024">
	<path fill="#000000" d="M288 -334V-238H787V-294Q786 -333 745 -334ZM288 -206V-109H787V-206ZM187 -746Q144 -763 113 -768V-780H371V-768Q359 -765 355 -759Q352 -753 360 -750L503 -698L647 -750Q655 -753 652 -759Q648 -765 636 -768V-780H891V-768Q865 -764 820 -746L596 -664L734 -614Q804 -589 866 -598Q916 -607 936 -643H949V-592Q923 -577 859 -564Q808 -552 764 -554Q704 -556 655 -575L504 -630L353 -575Q304 -556 244 -554Q194 -553 142 -564Q96 -573 58 -592V-643H71Q88 -607 140 -598Q204 -591 273 -614L411 -664ZM781 -367Q835 -367 857 -343Q878 -322 878 -282V-19Q878 45 819 69Q774 88 704 83Q640 77 590 42V-8H602Q614 33 683 50Q781 58 787 -2V-78H288V32Q287 58 315 62V75H172V62Q198 59 197 32V-236Q191 -233 185 -231Q151 -221 121 -225Q83 -232 58 -246V-298H71Q80 -267 111 -260Q132 -261 148 -281L265 -444H91Q76 -442 71 -425H58V-496H71Q75 -476 91 -477H289L305 -499Q316 -518 286 -521L284 -534H435V-521Q416 -519 402 -500L385 -477H915Q933 -479 936 -496H948V-425H936Q932 -443 915 -444H361L305 -367Z"/>
</svg>