<svg xmlns="http://www.w3.org/2000/svg" viewBox="0 -800 1024 1024">
	<path fill="#000000" d="M393 -576V-529H615V-576ZM393 -498V-450H615V-498ZM842 -243Q859 -245 862 -261H875V-196H862Q858 -213 842 -214H165Q149 -213 145 -196H132V-261H144Q149 -243 165 -243ZM842 -161Q859 -162 862 -178H875V-114H862Q858 -131 842 -131H165Q150 -130 145 -114H132V-178H144Q149 -161 165 -161ZM435 -387H573V-374Q548 -371 548 -353V-326H747L643 -420H363L260 -326H459V-353Q460 -373 435 -374ZM863 -728Q897 -729 910 -716Q925 -706 925 -679V-665Q924 -645 949 -642V-630H818V-642Q843 -644 842 -665V-679Q841 -697 820 -698H166V-665Q164 -646 189 -642V-630H59V-642Q84 -643 82 -665V-692Q83 -712 59 -715V-728H459V-743Q460 -766 435 -768V-781H573V-768Q548 -765 549 -743V-728ZM753 46Q784 48 783 21V-23Q784 -49 753 -48H221V46ZM796 -78Q833 -78 851 -68Q872 -55 872 -25V24Q872 54 850 66Q834 77 796 76H107V62Q131 58 132 37V-41Q131 -61 107 -65V-78ZM285 -670H415V-658Q392 -657 393 -630V-606H615V-630Q617 -657 594 -658V-670H723V-658Q700 -657 701 -630V-606H860Q876 -607 879 -624H892V-558H879Q874 -576 860 -576H701V-529H832Q848 -530 851 -546H864V-481H851Q846 -498 832 -498H701V-450H910Q926 -451 929 -469H942V-401H929Q924 -420 910 -420H748L847 -332Q872 -309 896 -312Q923 -313 936 -345H949V-303Q933 -286 902 -279Q866 -270 829 -280Q806 -285 785 -296H221Q201 -285 178 -280Q141 -270 105 -279Q75 -285 58 -303V-345H71Q84 -313 111 -312Q135 -309 160 -332L258 -420H99Q83 -419 78 -401H65V-469H78Q83 -450 99 -450H306V-498H176Q161 -496 156 -481H143V-546H156Q161 -529 176 -529H306V-576H148Q133 -574 128 -558H115V-624H128Q132 -606 148 -606H306V-630Q308 -658 285 -658Z"/>
</svg>