<svg xmlns="http://www.w3.org/2000/svg" viewBox="0 -800 1024 1024">
	<path fill="#000000" d="M73 -781H217V-768Q191 -763 198 -749L286 -614Q297 -598 320 -593V-581H177V-594Q205 -597 194 -611L104 -749Q94 -767 73 -768ZM180 -438Q179 -466 151 -467H90Q76 -466 71 -448H58V-519H71Q75 -499 91 -500H187Q228 -500 247 -481Q268 -461 268 -423V3Q268 28 282 35Q297 43 316 28Q337 9 345 -25H357V31Q345 49 321 64Q293 83 257 83Q223 81 205 62Q180 38 180 -6ZM487 42H623V-736Q624 -767 595 -768V-781H739V-768Q711 -765 712 -736V42H808Q849 43 848 2V-593Q848 -618 824 -621V-634H947V-621Q924 -619 924 -593V-12Q924 34 899 55Q876 76 827 76H388V63Q412 60 411 36V-593Q411 -618 388 -621V-634H511V-621Q487 -619 487 -593Z"/>
</svg>