<svg xmlns="http://www.w3.org/2000/svg" viewBox="0 -800 1024 1024">
	<path fill="#000000" d="M826 -749H915V-736Q899 -733 899 -721L908 -679Q913 -664 928 -662V-649H839V-662Q858 -663 856 -679L847 -721Q843 -736 826 -737ZM74 -780H207V-767Q184 -763 189 -749L258 -614Q264 -599 288 -593V-581H153V-594Q178 -595 170 -612L101 -749Q93 -766 74 -767ZM240 4Q243 39 271 25Q291 13 297 -20H309V28Q300 51 281 64Q256 82 229 82Q199 82 179 62Q158 41 157 0V-439Q156 -466 129 -467H91Q76 -466 71 -448H58V-519H71Q76 -500 91 -500H160Q203 -500 222 -480Q240 -462 240 -423ZM408 -489Q410 -517 382 -519V-532H500V-519Q474 -517 475 -490L471 -334H558V-491Q559 -518 535 -520V-533H649V-520Q624 -517 625 -490V-334H660Q679 -336 682 -353H695V-282H682Q678 -300 660 -301H625V14Q623 42 651 45V58H531V45Q559 42 558 14V-301H471L465 4Q465 40 435 58Q402 76 365 58Q345 47 333 27V-19H345Q348 5 365 21Q379 31 389 27Q399 22 399 4L404 -301H367Q351 -300 346 -282H333V-353H346Q351 -334 367 -334H405ZM700 -737Q700 -765 672 -768V-781H808V-768Q778 -763 780 -737L788 -617H914Q932 -619 935 -636H947V-565H935Q930 -583 914 -584H790L818 -164H831Q864 -162 862 -195L875 -466Q876 -485 854 -490V-503H947V-490Q926 -486 927 -469L916 -204Q915 -160 895 -144Q878 -129 830 -130H820L828 -9Q832 34 869 36Q896 37 916 12Q931 -6 936 -36H949V23Q934 48 912 62Q883 83 845 84Q802 85 775 59Q752 38 749 -5L740 -130H704Q688 -129 683 -111H671V-181H683Q688 -164 704 -164H738L710 -584H370Q354 -583 349 -565H337V-636H349Q354 -617 370 -617H708Z"/>
</svg>