<svg xmlns="http://www.w3.org/2000/svg" viewBox="0 -800 1024 1024">
	<path fill="#000000" d="M74 -781H207V-768Q181 -763 190 -749L278 -611Q287 -595 304 -593V-581H171V-594Q196 -597 189 -611L101 -749Q91 -767 74 -768ZM181 -438Q180 -466 153 -467H90Q76 -466 71 -448H58V-519H71Q75 -499 90 -500H193Q229 -500 252 -479Q271 -461 271 -429V-3Q272 44 308 31Q342 15 349 -25H362V31Q333 61 297 74Q256 90 225 74Q182 52 181 -6ZM516 -513Q507 -476 475 -460Q446 -447 408 -455Q373 -464 355 -482V-534H368Q372 -510 389 -495Q418 -473 431 -511L495 -746Q500 -764 474 -768V-781H609V-768Q587 -764 582 -746L566 -691H811Q857 -691 871 -670Q883 -652 873 -614L836 -499Q826 -464 789 -451Q756 -440 721 -449Q676 -460 651 -482V-534H664Q670 -501 696 -487Q738 -473 754 -508L793 -632Q801 -658 774 -658H557ZM372 76V63Q395 60 395 38V-332Q395 -352 372 -356V-369H503Q520 -369 525 -379L535 -399Q539 -409 518 -415V-428H649V-415Q634 -412 625 -396L613 -371Q601 -349 588 -343Q576 -335 543 -336H484V-166H601Q619 -168 622 -185H634V-114H622Q618 -132 601 -133H484V43H802Q841 42 842 7V-133H725Q709 -131 705 -114H692V-185H705Q708 -168 725 -166H842V-302Q842 -335 807 -336H723Q708 -334 703 -317H690V-388H703Q706 -369 723 -369H838Q889 -369 911 -351Q932 -332 932 -288V-6Q932 34 910 54Q888 76 837 76Z"/>
</svg>