<svg xmlns="http://www.w3.org/2000/svg" viewBox="0 -800 1024 1024">
	<path fill="#000000" d="M186 -724V-517H335V-685Q335 -724 298 -724ZM186 -485V-278H335V-485ZM600 -736Q601 -765 572 -768V-781H714V-768Q687 -764 686 -736L679 -572H825Q887 -573 911 -545Q932 -522 932 -479V-3Q932 41 904 64Q867 92 802 80Q748 68 725 49V-8H738Q744 29 793 42Q843 47 846 2V-491Q845 -539 795 -540H678L657 1Q654 58 604 77Q567 90 522 76Q488 64 464 39V-19H477Q486 25 522 37Q565 44 571 2L592 -540H506Q490 -540 485 -521H473V-591H485Q490 -574 506 -572H593ZM105 -718Q106 -740 81 -744V-757H321Q377 -757 399 -733Q417 -711 416 -672V7Q416 45 392 66Q367 86 327 83Q275 79 249 44V-4H262Q266 32 303 43Q333 44 335 14V-245H186V15Q186 49 163 69Q136 90 100 81Q73 73 58 44V-4H71Q77 36 88 41Q104 47 105 20Z"/>
</svg>