<svg xmlns="http://www.w3.org/2000/svg" viewBox="0 -800 1024 1024">
	<path fill="#000000" d="M174 -400V-413Q189 -414 189 -428V-531Q190 -545 175 -546V-559H238V-546Q223 -545 224 -531V-428Q223 -413 238 -413V-400ZM354 -559H418V-546Q403 -545 404 -531V-428Q403 -414 418 -413V-400H354V-413Q369 -413 368 -428V-531Q369 -545 354 -546ZM76 -753H177V-740Q158 -738 165 -728L191 -685Q197 -674 218 -672V-659H111V-672Q130 -672 126 -685L100 -728Q93 -738 76 -740ZM375 -672Q395 -674 401 -685L427 -728Q436 -738 415 -740V-753H516V-740Q499 -738 493 -728L467 -685Q462 -673 481 -672V-659H375ZM740 -177Q771 -177 771 -208V-258Q773 -287 741 -285H241V-177ZM424 -633Q473 -633 492 -614Q510 -596 510 -558V-385Q511 -364 532 -362V-349H420V-362Q444 -364 444 -385V-566Q444 -599 408 -600H327V-401Q325 -372 349 -369V-356H243V-369Q267 -371 265 -401V-600H149V-385Q149 -365 172 -362V-349H60V-362Q83 -364 83 -385V-596Q83 -616 60 -621V-633H257V-736Q258 -768 230 -768V-781H362V-768Q335 -765 336 -736V-633ZM536 -705H548Q553 -685 569 -673Q592 -663 601 -688L622 -752Q627 -766 602 -768V-781H731V-768Q710 -767 703 -752L688 -709H907Q925 -711 927 -728H940V-657H927Q924 -675 907 -676H888V-570Q890 -531 863 -513L790 -456L880 -392Q902 -377 921 -397Q933 -411 936 -430H949V-379Q924 -353 885 -346Q844 -343 809 -368L741 -417L677 -368Q637 -338 591 -348Q559 -357 543 -379V-430H556Q558 -412 571 -395Q589 -377 606 -391L689 -455L604 -517Q587 -528 588 -560V-580Q588 -599 564 -599V-612H691V-599Q667 -597 667 -580V-562Q666 -545 677 -538L738 -494L793 -536Q810 -547 809 -575V-676H677Q665 -648 638 -640Q608 -630 575 -640Q548 -649 536 -663ZM773 -318Q817 -319 832 -310Q855 -298 855 -261V-205Q855 -177 833 -160Q810 -144 774 -144H547V-74H849Q867 -76 869 -93H882V-22H869Q866 -40 849 -41H547V34H915Q933 32 936 15H949V84H936Q932 66 915 66H390Q358 67 334 61Q312 57 289 43L240 13L233 29Q216 63 181 77Q150 89 113 81Q83 73 58 52V2H71Q77 27 98 39Q131 53 147 25L193 -70Q200 -87 177 -92V-104H307V-92Q289 -89 282 -73L257 -20L318 18Q344 34 381 34H458V-144H134V-157Q157 -160 157 -181V-282Q157 -302 134 -305V-318Z"/>
</svg>