<svg xmlns="http://www.w3.org/2000/svg" viewBox="0 -800 1024 1024">
	<path fill="#000000" d="M289 -588H266V-240H289Q327 -241 328 -278V-550Q328 -588 289 -588ZM154 -240H216V-588H154ZM562 -330V-236H817V-292Q816 -329 778 -330ZM562 -205V-110H817V-205ZM643 -740Q645 -767 615 -768V-781H761V-768Q732 -766 733 -740V-691H893Q910 -693 913 -710H926V-641H913Q909 -659 893 -660H733V-576H858Q876 -578 879 -595H892V-526H879Q875 -544 858 -545H733V-462H915Q933 -464 936 -481H949V-412H936Q932 -430 915 -431H456Q440 -430 435 -412H423V-481H435Q440 -462 456 -462H643V-545H513Q497 -543 493 -526H480V-595H493Q496 -576 513 -576H643V-660H479Q463 -658 459 -641H446V-710H459Q462 -691 479 -691H643ZM562 33Q560 59 589 63V76H450V63Q477 60 476 33V-324Q475 -345 449 -349V-362H809Q864 -362 885 -338Q903 -319 903 -280V-14Q903 38 871 62Q844 87 779 84Q721 79 681 43V-9H694Q705 40 755 48Q815 54 817 -4V-78H562ZM326 -163H411V-150Q393 -146 393 -135V46Q393 61 411 63V76H326V63Q343 60 344 46V-17L92 51Q76 58 71 72H58V1H71Q78 23 92 18L200 -12V-207H65V-220Q90 -224 90 -247V-582Q90 -603 65 -608V-620H200V-739Q201 -766 174 -768V-781H308V-768Q281 -765 282 -739V-620H300Q355 -620 376 -597Q394 -576 394 -538V-295Q394 -253 373 -230Q352 -207 298 -207H282V-34L344 -51V-135Q344 -148 326 -150Z"/>
</svg>