<svg xmlns="http://www.w3.org/2000/svg" viewBox="0 -800 1024 1024">
	<path fill="#000000" d="M763 -226Q796 -225 795 -255V-306H548V-226ZM212 -306V-226H459V-306ZM763 -417H548V-336H795V-388Q796 -418 763 -417ZM212 -417V-336H459V-417ZM193 82Q95 73 57 47V-5H70Q75 29 130 44Q177 54 223 47Q286 35 316 -16L361 -96H119Q103 -96 98 -77H85V-147H98Q101 -129 119 -128H379L388 -144Q394 -161 371 -165V-178H527V-165Q508 -163 499 -146L488 -128H807Q858 -128 876 -110Q896 -92 896 -53V-12Q896 30 862 55Q829 80 755 83Q692 85 644 76Q576 64 546 44V-8H559Q565 22 607 36Q631 46 669 50Q705 53 734 49Q806 40 806 -13V-51Q808 -98 762 -96H470L425 -16Q390 48 325 68Q277 87 193 82ZM433 -641Q451 -643 454 -660H466V-591H454Q450 -609 433 -610H201V-534H765Q804 -535 805 -571V-610H574Q557 -609 553 -591H541V-660H553Q556 -642 574 -641H805V-677Q804 -712 765 -713H571Q555 -712 550 -694H538V-762H550Q554 -743 571 -743H801Q854 -744 875 -725Q896 -708 896 -666V-583Q897 -542 874 -524Q852 -503 800 -503H88V-516Q110 -518 111 -540V-707Q111 -726 88 -731V-743H338Q350 -741 356 -751L364 -762Q368 -768 350 -771Q348 -772 347 -772V-785H485V-772Q467 -768 459 -758L442 -733Q432 -721 416 -717Q403 -713 377 -713H201V-641ZM802 -447Q842 -447 860 -436Q884 -421 884 -386V-259Q884 -225 861 -208Q840 -195 802 -195H97V-208Q122 -212 123 -238V-408Q122 -431 97 -435V-447Z"/>
</svg>