<svg xmlns="http://www.w3.org/2000/svg" viewBox="0 -800 1024 1024">
	<path fill="#000000" d="M647 -669Q668 -671 674 -688L693 -748Q698 -764 674 -768V-781H803V-768Q783 -767 778 -748L759 -688Q754 -672 779 -669V-656H647ZM507 -133H618V-120Q596 -114 598 -98L609 43Q610 59 630 63V76H519V63Q541 56 540 43L528 -98Q527 -116 507 -120ZM664 -133H775V-120Q753 -114 755 -98L766 43Q767 59 787 63V76H676V63Q698 56 697 43L685 -98Q684 -116 664 -120ZM821 -133H932V-120Q910 -114 912 -98L923 43Q924 59 944 63V76H833V63Q855 56 854 43L842 -98Q841 -116 821 -120ZM338 63Q357 58 359 43L380 -98Q382 -114 359 -120V-133H470V-120Q452 -115 450 -98L429 43Q427 58 450 63V76H338ZM484 -323V-216H654V-323ZM488 -604L484 -590V-496H654V-604ZM484 -463V-355H654V-463ZM74 -781H204V-768Q181 -764 187 -749L254 -611Q260 -596 280 -593V-581H150V-594Q174 -597 168 -611L101 -749Q93 -767 74 -768ZM166 -438Q165 -466 137 -467H90Q76 -466 71 -448H58V-519H71Q75 -499 90 -500H176Q213 -500 234 -479Q254 -461 254 -429V-4Q254 15 264 22Q273 27 286 16Q316 -13 326 -51H339V5Q309 48 278 64Q236 91 205 82Q167 69 166 4ZM306 -554H318Q324 -532 344 -525Q376 -518 385 -543L446 -749Q451 -765 428 -768V-781H557V-768Q536 -766 531 -749L498 -637H905Q923 -638 926 -656H938V-585H926Q922 -603 905 -604H741V-496H879Q896 -498 899 -515H912V-444H899Q895 -462 879 -463H741V-355H879Q896 -357 899 -374H912V-304H899Q895 -322 879 -323H741V-216H908Q927 -216 929 -232H942V-162H929Q925 -180 908 -181H372V-193Q396 -195 397 -220V-488Q380 -488 363 -491Q327 -499 306 -520Z"/>
</svg>