<svg xmlns="http://www.w3.org/2000/svg" viewBox="0 -800 1024 1024">
	<path fill="#000000" d="M175 -452H282Q322 -452 322 -493V-685Q322 -724 282 -724H175ZM692 -736Q693 -768 664 -768V-781H808V-768Q781 -764 780 -736V-444H893Q911 -445 914 -463H927V-392H914Q910 -410 893 -411H780V33H915Q933 31 936 14H949V84H936Q932 66 915 65H429Q414 67 409 84H396V14H409Q414 33 429 33H486V-600Q487 -631 458 -631V-644H598V-631Q570 -628 570 -600V33H692ZM103 -322Q104 -343 81 -344V-357H186V-344Q162 -340 163 -322V7L235 -14V-419H70V-432Q96 -436 97 -458V-719Q96 -739 70 -744V-757H309Q363 -757 383 -735Q401 -716 400 -676V-504Q400 -462 379 -442Q357 -420 316 -419V-265H373Q391 -267 394 -284H407V-214H394Q390 -232 373 -233H316V-38L385 -59Q404 -65 406 -80H418V-9H406Q401 -29 385 -26L92 60Q75 67 71 81H58V11H71Q77 34 92 29L103 25Z"/>
</svg>