<svg xmlns="http://www.w3.org/2000/svg" viewBox="0 -800 1024 1024">
	<path fill="#000000" d="M893 -346Q911 -348 914 -365H926V-295H914Q909 -314 893 -314H114Q98 -313 93 -295H81V-365H93Q98 -346 114 -346H457V-368Q457 -389 429 -389V-403H578V-389Q550 -389 550 -368V-346ZM746 -459Q777 -459 777 -489V-543Q779 -573 746 -571H230V-459ZM216 -286H361V-273Q336 -267 344 -256L394 -195H613L663 -256Q671 -267 646 -273V-286H791V-273Q771 -271 759 -258L707 -195H915Q933 -197 936 -214H949V-144H936Q931 -163 915 -163H550V-63H883Q901 -65 904 -82H916V-11H904Q900 -29 883 -30H550V31Q549 59 578 62V76H429V62Q458 58 457 31V-30H124Q108 -29 103 -11H91V-82H103Q108 -63 124 -63H457V-163H92Q76 -162 71 -144H58V-214H71Q76 -195 92 -195H300L248 -258Q237 -271 216 -273ZM429 -781H578V-767Q549 -763 550 -736V-711H905Q923 -713 925 -730H938V-660H925Q921 -678 905 -679H550V-604H786Q829 -604 847 -592Q868 -579 868 -544V-490Q868 -460 847 -442Q824 -426 787 -426H114V-439Q139 -442 139 -465V-566Q139 -586 114 -591V-604H457V-679H102Q86 -677 82 -660H69V-730H82Q85 -711 102 -711H457V-736Q458 -767 429 -767Z"/>
</svg>