<svg xmlns="http://www.w3.org/2000/svg" viewBox="0 -800 1024 1024">
	<path fill="#000000" d="M540 -181V-91H820V-181ZM540 -303V-212H820V-264Q819 -302 781 -303ZM163 -725V-432H250Q288 -434 290 -472V-688Q289 -724 250 -725ZM290 -354Q291 -386 270 -400H163V-84H250Q288 -86 290 -125ZM395 -561H408Q415 -536 430 -532Q449 -527 458 -550L500 -667H431Q415 -666 411 -650H398V-720H411Q415 -700 431 -701H513L530 -748Q535 -764 505 -768V-781H645V-768Q621 -761 617 -748L599 -701H911Q929 -703 932 -720H944V-650H932Q928 -667 911 -667H587L558 -588H866Q884 -590 886 -607H899V-536H886Q883 -554 866 -555H724V-436H915Q933 -438 936 -455H949V-384H936Q932 -402 915 -402H446Q430 -401 425 -384H412V-455H425Q430 -436 446 -436H637V-555H546L543 -547Q534 -519 510 -503Q488 -490 457 -490Q429 -488 395 -512ZM812 -334Q867 -334 888 -310Q906 -292 906 -252V-14Q906 39 872 61Q841 86 773 83Q713 80 675 43V-6H688Q697 22 721 37Q750 53 784 46Q820 35 820 -4V-59H540V33Q538 59 568 63V76H425V63Q454 59 453 33V-296Q451 -316 424 -321V-334ZM163 32Q161 58 189 63V76H59V63Q84 60 83 32V-718Q84 -741 59 -744V-757H269Q321 -757 343 -736Q362 -716 362 -677V-486Q362 -443 339 -423Q332 -415 324 -411Q338 -405 347 -395Q362 -377 362 -340V-140Q362 -94 338 -75Q315 -52 263 -52H163Z"/>
</svg>