<svg xmlns="http://www.w3.org/2000/svg" viewBox="0 -800 1024 1024">
	<path fill="#000000" d="M349 -506H294V-349H386V-468Q385 -505 349 -506ZM522 -781H646V-768Q621 -764 627 -751L663 -645Q669 -630 689 -629V-616H566V-629Q592 -631 586 -645L549 -751Q543 -766 522 -768ZM152 -506V-349H245V-506ZM349 -147Q384 -149 386 -187V-316H294V-147ZM452 -54Q470 -59 473 -76H485V-6H473Q469 -23 452 -20L92 53Q76 59 72 76H58V5H72Q76 24 92 20ZM152 -147H245V-316H152ZM762 31Q763 56 791 63V76H648V63Q675 58 676 31V-146H522Q506 -144 502 -127H489V-198H502Q505 -179 522 -179H676V-351H562Q550 -352 549 -332H536V-403H549Q549 -401 550 -397Q550 -383 562 -384H676V-550H536Q520 -549 515 -531H502V-601H515Q519 -583 536 -583H752L815 -751Q820 -765 794 -768V-781H918V-768Q897 -766 891 -751L828 -583H908Q926 -585 929 -602H941V-531H929Q925 -549 908 -550H762V-384H878Q896 -385 899 -403H912V-332H899Q895 -350 878 -351H762V-179H915Q933 -181 936 -198H949V-127H936Q932 -145 915 -146H762ZM83 -500Q83 -521 59 -525V-538H278L319 -655Q325 -672 307 -673H203L181 -607Q174 -582 150 -571Q133 -564 107 -566Q80 -571 58 -589V-639H72Q75 -616 85 -604Q102 -593 110 -612L156 -751Q160 -765 135 -768V-781H255V-768Q234 -766 229 -751L213 -705H341Q375 -705 388 -686Q399 -669 389 -644L352 -538H360Q417 -538 437 -516Q455 -498 455 -459V-202Q455 -159 436 -138Q418 -113 363 -114H59V-127Q82 -131 83 -154Z"/>
</svg>