<svg xmlns="http://www.w3.org/2000/svg" viewBox="0 -800 1024 1024">
	<path fill="#000000" d="M620 -674H713V-661Q694 -658 697 -643L722 -510Q727 -495 748 -492V-480H655V-492Q673 -495 669 -510L643 -643Q640 -660 620 -661ZM399 -529Q419 -534 419 -548H432V-477H419Q414 -498 399 -496L95 -432Q79 -427 75 -413H62V-483H75Q80 -460 95 -464L209 -488V-718H116Q100 -717 95 -699H83V-770H95Q100 -751 116 -751H387Q405 -753 408 -770H421V-699H408Q403 -718 387 -718H293V-506ZM721 -393Q752 -393 776 -386Q812 -374 831 -347L915 -220Q925 -204 949 -201V-188H815V-201Q825 -202 826 -206Q828 -210 822 -219L746 -335Q727 -361 684 -361H288L186 -217Q178 -202 202 -200V-187H58V-200Q79 -200 90 -215L188 -355Q198 -375 169 -381V-393ZM779 -757Q824 -757 845 -739Q867 -723 867 -681V-500Q869 -464 902 -472Q932 -483 936 -518H948V-468Q927 -444 890 -435Q844 -423 814 -443Q784 -460 783 -511V-688Q783 -724 747 -724H582V-498Q582 -464 562 -447Q536 -424 496 -434Q474 -439 450 -463V-511H462Q464 -489 478 -473Q497 -464 498 -487V-721Q498 -739 474 -744V-757ZM190 -73H319V-60Q298 -57 304 -42L334 33H460V-104H146Q130 -102 126 -85H113V-156H126Q129 -137 146 -137H460V-236H298Q283 -234 278 -217H265V-288H278Q282 -268 298 -269H710Q728 -271 731 -288H744V-217H731Q726 -236 710 -236H548V-137H862Q880 -139 883 -156H895V-85H875Q875 -86 874 -88Q873 -105 862 -104H548V33H673L703 -42Q710 -56 689 -60V-73H818V-60Q799 -59 793 -42L763 33H906Q923 31 927 11H940V83H927Q922 64 906 64H102Q86 65 81 83H69V11H81Q87 33 102 33H245L215 -42Q209 -59 190 -60Z"/>
</svg>