<svg xmlns="http://www.w3.org/2000/svg" viewBox="0 -800 1024 1024">
	<path fill="#000000" d="M300 -569Q328 -569 328 -596V-664H205V-569ZM342 -433H297V-222H342Q373 -223 374 -252V-404Q374 -433 342 -433ZM163 -222H239V-433H163ZM584 -724V-327H683V-724ZM802 -724H741V-327H802Q841 -329 842 -368V-684Q841 -723 802 -724ZM108 -536V-549Q133 -553 133 -571V-664H93Q76 -662 72 -645H58V-716H72Q75 -697 93 -697H133V-747Q133 -767 109 -768V-781H229V-768Q204 -764 205 -747V-697H328V-746Q329 -767 305 -768V-781H424V-768Q400 -764 401 -747V-697H426Q444 -698 449 -716H461V-645H449Q444 -663 426 -664H401V-603Q401 -568 381 -551Q362 -536 320 -536H307V-465H360Q401 -465 419 -451Q440 -436 440 -395V-263Q440 -222 417 -205Q394 -190 359 -190H307V-117H431Q450 -119 453 -136H466V-65H453Q448 -83 431 -83H307V32Q306 60 336 63V76H200V63Q229 59 229 32V-83H93Q77 -82 72 -65H58V-136H72Q77 -117 93 -117H229V-190H73V-204Q95 -206 96 -227V-429Q96 -448 73 -452V-465H229V-536ZM584 -31Q583 36 661 47Q713 55 783 48Q845 39 882 17Q926 -10 936 -53H949V11Q902 52 827 72Q758 89 662 85Q572 81 538 47Q505 19 504 -43V-716Q502 -738 478 -744V-757H829Q881 -757 902 -733Q920 -715 920 -675V-381Q920 -339 899 -318Q877 -294 826 -294H584Z"/>
</svg>