<svg xmlns="http://www.w3.org/2000/svg" viewBox="0 -800 1024 1024">
	<path fill="#000000" d="M250 -725V-591H308V-725ZM148 -559V-244Q160 -236 176 -231Q204 -225 204 -258V-559ZM374 -559H353V-258Q354 -227 390 -234Q402 -237 411 -242V-521Q411 -559 374 -559ZM559 -417H681V-404Q663 -399 666 -387L742 -156Q747 -141 775 -136V-123H641V-136Q663 -143 659 -156L584 -387Q582 -400 559 -404ZM148 44H371Q410 43 411 5V-78H148ZM250 -266Q250 -227 230 -214Q212 -197 174 -207Q160 -210 148 -217V-109H411V-216Q402 -210 391 -208Q353 -199 332 -210Q308 -226 308 -266V-559H250ZM848 -578Q850 -620 809 -618H669L648 -524Q641 -488 616 -473Q589 -456 555 -463Q531 -466 508 -483V-527H521Q522 -510 535 -499Q557 -488 564 -512L616 -745Q621 -763 595 -768V-781H726V-767Q702 -762 698 -745L677 -651H827Q887 -652 909 -632Q932 -614 932 -559V-55Q932 24 875 58Q807 95 716 78Q652 66 607 30V-26H619Q635 22 703 41Q756 55 796 39Q847 19 848 -41ZM81 -556Q81 -575 58 -578V-591H177V-725H92Q76 -724 71 -706H59V-775H71Q75 -757 92 -757H460Q478 -759 480 -776H493V-706H480Q477 -724 460 -725H383V-591H388Q442 -591 461 -569Q479 -551 479 -514V-8Q479 34 460 53Q441 77 386 76H58V63Q81 60 81 39Z"/>
</svg>