<svg xmlns="http://www.w3.org/2000/svg" viewBox="0 -800 1024 1024">
	<path fill="#000000" d="M58 -585H71Q77 -558 92 -549Q114 -541 123 -562L171 -748Q175 -766 151 -768V-781H287V-767Q262 -766 258 -748L238 -670H350Q368 -672 371 -689H383V-618H371Q366 -637 350 -637H230L211 -562Q203 -528 169 -514Q139 -501 104 -509Q76 -516 58 -536ZM564 -455V-321H817V-417Q816 -454 778 -455ZM564 -288V-151H817V-288ZM272 13Q275 54 328 38Q394 9 397 -34H410V19Q365 66 306 80Q252 91 223 76Q184 58 184 4V-225H93Q77 -224 72 -206H60V-276H72Q77 -257 93 -257H184V-430H110Q94 -429 89 -411H77V-482H89Q94 -463 110 -463H337Q355 -465 358 -482H370V-411H358Q353 -430 337 -430H272V-257H364Q382 -259 385 -276H398V-206H385Q380 -225 364 -225H272ZM564 33Q562 59 591 63V76H451V63Q478 60 477 33V-362H475Q450 -356 422 -366Q400 -374 386 -392V-447H399Q399 -418 416 -405Q436 -395 450 -423L547 -621H441Q426 -619 421 -602H408V-673H421Q425 -653 441 -654H563L609 -746Q615 -763 587 -768V-781H738V-768Q713 -764 703 -747L656 -654H915Q933 -656 936 -673H949V-602H936Q932 -620 915 -621H640L574 -488H811Q865 -488 887 -464Q905 -444 904 -406V-16Q904 36 873 62Q846 88 777 83Q717 78 682 41V-13H694Q706 38 755 47Q814 52 817 -6V-119H564Z"/>
</svg>