<svg xmlns="http://www.w3.org/2000/svg" viewBox="0 -800 1024 1024">
	<path fill="#000000" d="M97 -781H238V-768Q215 -763 226 -751L296 -688Q312 -673 329 -670V-657H184V-670Q209 -677 198 -689L128 -751Q115 -763 97 -768ZM516 -153H650V-140Q627 -137 634 -123L692 -53Q720 -22 744 -38Q764 -49 769 -80H782V-26Q766 -5 748 3Q714 20 673 4Q637 -8 613 -37L540 -126Q531 -138 516 -140ZM167 35Q166 59 190 63V76H62V63Q85 61 84 35V-571Q85 -596 61 -598V-611H189V-598Q167 -594 167 -571ZM846 -676Q847 -722 798 -722H407Q388 -721 384 -703H372V-774H384Q387 -756 407 -755H832Q879 -755 903 -733Q929 -707 929 -665V-58Q928 40 826 73Q765 91 688 81Q615 69 581 40V-16H593Q604 31 659 44Q721 60 776 44Q845 21 846 -47ZM513 -613Q505 -633 485 -634V-648H606V-635Q579 -631 588 -612L607 -569H633Q656 -568 663 -583L676 -604Q683 -618 661 -622V-635H750V-621Q735 -620 729 -604L708 -569Q698 -550 684 -543Q668 -536 641 -536H622L657 -461H666Q690 -460 697 -475L710 -496Q717 -510 696 -515V-527H784V-514Q771 -511 764 -499Q763 -498 762 -497L741 -460Q731 -443 716 -436Q700 -427 672 -428L697 -373Q713 -340 739 -344Q766 -345 771 -379H784V-326Q770 -310 744 -303Q708 -293 677 -309Q646 -325 629 -361L628 -362H547V-253Q547 -247 546 -242H738Q755 -244 758 -261H771V-190H758Q753 -208 738 -208H538Q535 -200 530 -196L401 -40Q375 -8 333 6Q298 18 267 4Q248 -4 231 -25V-79H244Q251 -43 274 -34Q298 -26 319 -51L448 -206Q448 -207 449 -207Q450 -207 450 -208H275Q259 -207 254 -190H241V-261H254Q259 -242 275 -242H464Q465 -247 465 -253V-362H388Q369 -322 349 -309Q319 -293 283 -297Q252 -302 229 -326V-379H242Q250 -343 275 -338Q301 -334 319 -372L349 -438H344Q312 -438 300 -445Q284 -453 274 -478L254 -520Q253 -521 252 -523Q245 -536 233 -537V-550H324V-537Q302 -534 308 -520L324 -486Q333 -468 353 -470H364L408 -566Q417 -593 387 -595H277Q261 -594 256 -576H243V-647H256Q261 -628 277 -628H410Q458 -627 474 -600Q487 -578 473 -545L403 -394H614Z"/>
</svg>