<svg xmlns="http://www.w3.org/2000/svg" viewBox="0 -800 1024 1024">
	<path fill="#000000" d="M550 -724V-577H816V-684Q816 -724 775 -724ZM775 -396Q813 -398 816 -437V-544H550V-396ZM164 -725V-432H265Q304 -434 306 -472V-687Q305 -724 265 -725ZM306 -354Q307 -386 285 -400H164V-84H265Q303 -86 306 -125ZM633 -273Q627 -289 607 -289V-302H739V-289Q715 -288 720 -272L769 -147H804Q830 -147 836 -171L863 -270Q866 -288 844 -292V-304H949V-292Q932 -287 926 -271L899 -170Q892 -141 873 -128Q853 -113 812 -113H782L831 11Q848 52 891 43Q931 31 936 -12H948V42Q934 60 907 72Q865 88 820 78Q768 65 750 22ZM550 -14Q554 56 626 33Q677 11 686 -38H699V23Q667 60 616 75Q551 98 502 64Q465 35 465 -25V-719Q465 -740 440 -744V-757H808Q862 -757 884 -735Q902 -716 902 -677V-448Q902 -407 880 -385Q858 -363 805 -363H550ZM164 32Q162 58 191 63V76H59V63Q84 60 83 32V-718Q84 -741 59 -744V-757H287Q339 -757 360 -736Q381 -716 380 -677V-486Q380 -444 356 -423Q349 -415 341 -411Q355 -405 364 -395Q380 -377 380 -340V-140Q380 -96 356 -75Q332 -52 281 -52H164Z"/>
</svg>