<svg xmlns="http://www.w3.org/2000/svg" viewBox="0 -800 1024 1024">
	<path fill="#000000" d="M547 -453H559Q562 -438 578 -438H597Q613 -439 616 -453H628V-392H616Q612 -409 597 -408H578Q563 -407 559 -392H547ZM744 -453H756Q759 -438 775 -438H795Q811 -439 814 -453H826V-392H814Q810 -409 795 -408H775Q760 -407 756 -392H744ZM547 -554H559Q562 -539 578 -539H597Q614 -540 616 -554H628V-492H616Q614 -508 598 -508H578Q563 -507 559 -492H547ZM744 -554H756Q759 -539 775 -539H795Q812 -540 814 -554H826V-492H814Q810 -509 796 -508H775Q760 -507 756 -492H744ZM285 -506H257V-349H323V-468Q322 -505 285 -506ZM145 -506V-349H211V-506ZM286 -147Q321 -149 323 -187V-316H257V-147ZM145 -147H211V-316H145ZM374 -54Q393 -61 394 -76H407V-6H394Q390 -24 374 -20L92 53Q75 60 72 76H58V5H72Q76 24 92 20ZM818 -303Q868 -303 890 -281Q913 -261 913 -218V-16Q913 26 886 44Q862 62 818 62H492Q476 63 471 81H458V12H471Q475 31 492 31H788Q826 29 828 -4V-104H514Q498 -102 493 -84H481V-155H493Q498 -136 514 -136H828V-231Q826 -270 788 -272H492Q476 -271 471 -252H458V-323H471Q474 -303 492 -303ZM713 -381Q714 -360 735 -356V-343H638V-356Q660 -358 660 -381V-608H516V-391Q516 -370 536 -367V-354H423V-367Q444 -368 444 -391V-603Q444 -621 421 -627V-639H646V-725H492Q476 -724 471 -706H458V-776H471Q474 -757 492 -757H880Q898 -758 901 -776H914V-706H901Q897 -724 880 -725H727V-639H827Q878 -639 903 -617Q928 -597 928 -555V-392Q929 -370 949 -367V-354H836V-367Q855 -371 856 -392V-567Q855 -607 808 -608H713ZM83 -500Q83 -521 58 -525V-538H239L279 -655Q284 -672 269 -673H191L173 -607Q167 -581 143 -570Q124 -564 105 -566Q78 -571 58 -589V-639H72Q73 -625 83 -607Q91 -598 98 -599Q105 -600 108 -612L144 -751Q148 -765 123 -768V-781H238V-768Q217 -766 212 -751L199 -705H294Q329 -704 341 -686Q352 -669 342 -644L305 -538Q349 -535 367 -516Q385 -498 385 -459V-202Q385 -159 366 -138Q348 -113 293 -114H58V-127Q82 -131 83 -154Z"/>
</svg>