<svg xmlns="http://www.w3.org/2000/svg" viewBox="0 -800 1024 1024">
	<path fill="#000000" d="M446 -342H508V-328Q493 -327 497 -313L502 -294Q503 -278 518 -277V-263H455V-277Q472 -277 466 -294L461 -314Q458 -327 446 -328ZM217 -342H282V-328Q268 -326 272 -313L276 -294Q278 -278 294 -277V-263H225V-277Q242 -277 236 -294L231 -314Q229 -326 217 -328ZM366 -753H461V-739Q443 -735 447 -723L456 -703Q462 -687 479 -685V-672H384V-685Q403 -689 398 -704L388 -725Q383 -738 366 -739ZM354 -176Q356 -186 356 -200H327Q313 -199 308 -181H295V-251H308Q312 -231 327 -232H357V-321Q358 -352 332 -352V-366H450V-352Q424 -348 425 -321V-232H473Q489 -234 492 -251H504V-181H491Q487 -199 473 -200H424Q424 -191 422 -176Q421 -170 421 -167L417 -143H490V-130Q473 -128 475 -110L484 -48Q486 -35 492 -33Q498 -33 504 -44Q510 -57 511 -68H523V-26Q514 -6 503 1Q479 22 456 3Q441 -11 434 -49L425 -111Q423 -119 415 -125L394 23Q389 60 367 76Q341 92 313 76Q301 67 288 44V5H301Q304 20 308 26Q313 36 319 35Q325 33 327 21ZM125 -176L127 -200H97Q83 -199 78 -181H65V-251H78Q82 -231 97 -232H128V-321Q129 -352 102 -352V-366H221V-352Q195 -349 196 -321V-232H243Q259 -234 262 -251H275V-181H261Q257 -200 243 -200H195L191 -167L187 -143H267V-130Q250 -128 252 -110L261 -48Q264 -34 269 -33Q275 -32 280 -44Q287 -59 287 -68H300V-26Q291 -6 278 4Q253 24 228 3Q212 -11 205 -49L196 -111Q194 -120 185 -125L164 23Q159 59 138 76Q112 91 87 76Q70 67 58 44V-1H71Q71 0 71 1Q74 17 78 25Q83 35 89 34Q95 32 97 20ZM192 -431Q177 -410 151 -398Q117 -382 87 -397Q70 -404 58 -425V-476H71Q78 -439 94 -435Q108 -429 123 -450L225 -599Q230 -605 233 -614H101Q86 -612 82 -595H68V-665H82Q85 -646 101 -646H239V-736Q240 -767 213 -767V-781H342V-767Q316 -764 317 -736V-646H469Q485 -647 488 -665H501V-595H487Q484 -613 469 -614H312Q307 -598 299 -586L280 -558H402V-545Q380 -539 388 -525L446 -451Q465 -427 480 -438Q492 -443 498 -476H511V-425Q502 -407 488 -399Q462 -383 427 -396Q398 -407 376 -433L305 -526Q292 -542 275 -544V-551ZM747 -601Q750 -616 729 -620V-633H817V-620Q797 -615 795 -601L741 -323L787 -89Q799 -57 822 -77Q823 -78 825 -82Q826 -84 827 -85V-683Q826 -723 789 -724H608V-81L614 -74Q637 -57 646 -89L692 -324L638 -601Q636 -615 616 -620V-633H705V-620Q684 -616 687 -601L717 -448ZM537 -719Q537 -740 513 -744V-757H805Q861 -758 880 -733Q897 -714 897 -674V22Q897 39 904 43Q911 46 921 34Q934 16 936 -5H949V44Q934 65 912 76Q877 93 854 76Q828 59 827 17V-46Q821 -43 814 -41Q789 -33 768 -45Q744 -58 740 -84L717 -199L695 -84Q688 -56 662 -44Q642 -33 616 -41L608 -44V6Q608 51 576 71Q549 88 506 82Q469 76 457 60V16H470Q474 37 501 45Q535 51 537 15Z"/>
</svg>