<svg xmlns="http://www.w3.org/2000/svg" viewBox="0 -800 1024 1024">
	<path fill="#000000" d="M766 -469H548V-356H809V-427Q809 -469 766 -469ZM198 -469V-356H460V-469ZM766 -206Q807 -207 809 -251V-323H548V-206ZM198 -323V-206H460V-323ZM129 -692Q114 -690 109 -673H96V-743H110Q113 -724 129 -724H754Q768 -723 779 -737L793 -752Q800 -764 779 -768V-781H921V-768Q905 -765 895 -752L876 -727Q875 -726 874 -725Q858 -702 847 -698Q832 -692 799 -692H548V-613H901Q919 -615 922 -632H935V-561H922Q918 -579 901 -580H548V-502H803Q858 -502 879 -480Q898 -461 898 -420V-262Q898 -220 877 -197Q855 -172 800 -173H548V-88H876Q893 -90 896 -107H909V-37H896Q891 -55 876 -56H548V33H915Q933 31 936 14H949V84H936Q932 66 915 65H92Q76 66 71 84H58V14H71Q75 33 92 33H460V-56H132Q116 -55 111 -37H98V-107H111Q115 -88 132 -88H460V-173H83V-186Q109 -191 109 -213V-463Q109 -484 83 -489V-502H460V-580H105Q89 -578 85 -561H72V-632H85Q88 -613 105 -613H460V-692Z"/>
</svg>