<svg xmlns="http://www.w3.org/2000/svg" viewBox="0 -800 1024 1024">
	<path fill="#000000" d="M97 -781H238V-768Q215 -763 226 -751L306 -677Q322 -662 339 -659V-647H194V-659Q219 -666 208 -678L128 -751Q115 -763 97 -768ZM347 -550V-451H666V-511Q666 -550 625 -550ZM625 -318Q664 -320 666 -359V-418H347V-318ZM460 -216Q450 -230 433 -233V-246H562V-233Q540 -231 544 -216L588 -155H652Q674 -153 683 -174L699 -214Q706 -232 679 -237V-249H788V-237Q772 -235 763 -214L744 -170Q731 -141 712 -131Q697 -121 661 -121H613L654 -66Q693 -19 736 -46Q766 -68 772 -111H785V-50Q756 -13 719 -3Q680 11 639 -3Q600 -20 574 -58ZM171 35Q170 59 194 63V76H62V63Q85 61 84 35V-571Q85 -596 61 -598V-611H195V-598Q170 -594 171 -571ZM842 -676Q843 -722 794 -722H407Q388 -721 384 -703H372V-774H384Q387 -756 407 -755H832Q879 -755 903 -733Q929 -707 929 -665V-58Q928 39 809 74Q739 93 665 82Q595 72 561 42V-13H573Q588 40 673 54Q722 60 769 44Q842 19 842 -47ZM347 -88Q347 -42 393 -36Q433 -30 466 -53Q496 -74 505 -109H518V-47Q485 -10 427 5Q361 20 313 -3Q262 -30 262 -97V-545Q263 -565 239 -570V-583H463V-639Q462 -667 435 -669V-682H578V-669Q550 -664 550 -639V-583H658Q714 -583 734 -561Q751 -544 751 -503V-370Q751 -326 730 -307Q709 -284 657 -285H347Z"/>
</svg>