<svg xmlns="http://www.w3.org/2000/svg" viewBox="0 -800 1024 1024">
	<path fill="#000000" d="M441 -781H537V-768Q520 -768 518 -759L535 -720Q540 -709 561 -707V-695H461V-707Q484 -711 480 -722L463 -759Q461 -766 441 -768ZM450 -459H549V-446Q531 -445 532 -436L559 -396Q565 -384 587 -382V-369H478V-382Q503 -387 499 -398L474 -436Q468 -445 450 -446ZM225 -655H331V-642Q312 -641 313 -632L358 -578Q368 -565 387 -563V-550H273V-563Q298 -568 293 -580L250 -632Q241 -641 225 -642ZM622 -627H728V-614Q709 -613 710 -604L756 -550Q766 -537 784 -535V-522H670V-535Q696 -540 689 -552L647 -604Q639 -613 622 -614ZM298 -746Q279 -766 255 -765V-777H399V-765Q373 -758 383 -745L503 -624L623 -745Q632 -758 607 -765V-777H751V-765Q725 -766 708 -746L544 -582L663 -463Q691 -437 726 -450Q749 -462 756 -489H769V-436Q755 -422 727 -413Q697 -404 664 -407Q625 -415 605 -437L502 -540L400 -437Q380 -416 342 -407Q310 -404 278 -413Q250 -423 237 -436V-489H250Q255 -461 280 -450Q315 -437 342 -463L461 -582ZM739 42Q905 28 936 -38H949V22Q881 64 751 74Q655 81 528 84Q464 85 397 85Q330 84 272 83Q191 82 153 49Q118 20 118 -45V-236Q118 -261 90 -264V-277H238V-264Q210 -260 210 -236V-154H700Q738 -154 754 -181L780 -225Q786 -239 760 -246V-259H917V-246Q893 -241 882 -225L849 -168Q835 -142 811 -132Q787 -122 742 -122H210V-29Q211 45 289 49Q519 57 739 42ZM70 -314V-326Q96 -332 96 -354V-702Q97 -732 70 -733V-746H210V-733Q185 -729 185 -702V-346H776Q821 -346 821 -390V-702Q822 -731 796 -733V-746H936V-733Q909 -730 909 -702V-404Q909 -359 887 -338Q863 -314 811 -314Z"/>
</svg>