<svg xmlns="http://www.w3.org/2000/svg" viewBox="0 -800 1024 1024">
	<path fill="#000000" d="M521 -724V-593H817V-682Q816 -723 772 -724ZM772 -428Q815 -430 817 -474V-560H521V-428ZM58 -553H71Q74 -527 82 -521Q100 -508 105 -531L132 -745Q136 -762 108 -768V-781H229V-768Q204 -761 203 -745L196 -692H304Q341 -692 359 -675Q374 -658 374 -629V-535Q373 -505 399 -504V-491H276V-504Q303 -507 302 -535V-631Q302 -659 270 -659H191L176 -540Q172 -505 149 -489Q128 -475 96 -482Q72 -489 58 -502ZM516 -3Q517 42 569 37Q639 30 657 -29H669V29Q626 75 551 83Q493 89 461 68Q428 45 428 -8V-303Q429 -330 401 -334V-347H543V-334Q515 -332 516 -303V-191H628Q646 -193 649 -210H662V-139H649Q645 -157 628 -158H516ZM254 -7Q258 57 319 30Q351 11 359 -27H371V30Q344 69 286 80Q237 90 204 69Q168 46 168 -16V-403Q169 -430 142 -434V-447H281V-434Q254 -433 254 -403ZM781 -9Q785 53 863 36Q927 20 935 -29H948V29Q892 81 819 83Q766 83 737 66Q693 42 693 -18V-303Q694 -330 666 -334V-347H808V-334Q780 -332 781 -303V-191H821Q850 -190 854 -213L874 -285Q878 -300 855 -304V-317H948V-304Q934 -302 928 -285L910 -217Q902 -185 878 -171Q856 -158 814 -158H781ZM810 -757Q864 -757 886 -732Q905 -712 905 -673V-485Q905 -442 884 -420Q861 -395 807 -395H407V-408Q432 -412 433 -435V-719Q432 -740 407 -744V-757Z"/>
</svg>