<svg xmlns="http://www.w3.org/2000/svg" viewBox="0 -800 1024 1024">
	<path fill="#000000" d="M768 -724H548V-541H808V-685Q807 -723 768 -724ZM200 -724V-541H460V-724ZM768 -321Q806 -323 808 -362V-508H548V-321ZM200 -508V-321H460V-508ZM915 33Q933 31 936 14H949V84H936Q932 66 915 65H92Q76 66 71 84H58V14H71Q75 33 92 33H460V-115H132Q116 -114 111 -96H98V-166H111Q115 -147 132 -147H460V-288H84V-301Q109 -305 110 -328V-718Q110 -739 84 -744V-757H802Q856 -757 878 -733Q898 -711 898 -672V-379Q898 -334 875 -312Q854 -288 800 -288H548V-147H876Q893 -149 896 -166H909V-96H896Q891 -114 876 -115H548V33Z"/>
</svg>