<svg xmlns="http://www.w3.org/2000/svg" viewBox="0 -800 1024 1024">
	<path fill="#000000" d="M283 -648H414V-635Q388 -631 395 -618L423 -578Q433 -562 453 -561V-548H319V-561Q344 -565 336 -579L309 -618Q299 -634 283 -635ZM97 -781H238V-768Q215 -763 226 -751L293 -692Q294 -691 297 -689Q311 -676 326 -675V-662H180V-675Q205 -681 194 -694L128 -751Q115 -763 97 -768ZM643 -241Q681 -243 683 -282V-350H549V-241ZM643 -492H549V-382H683V-453Q682 -491 643 -492ZM329 -350V-241H463V-350ZM329 -492V-382H463V-492ZM171 35Q170 59 194 63V76H62V63Q85 61 84 35V-571Q85 -596 61 -598V-611H195V-598Q170 -594 171 -571ZM842 -676Q843 -722 794 -722H407Q388 -721 384 -703H372V-774H384Q387 -756 407 -755H832Q879 -755 903 -733Q929 -707 929 -665V-58Q928 42 820 74Q760 91 691 80Q628 68 597 40V-16H610Q621 30 678 45Q735 57 775 43Q841 20 842 -47ZM549 12Q547 39 577 43V56H435V43Q464 39 463 12V-82H266Q250 -81 245 -63H232V-134H245Q250 -115 266 -115H463V-208H236V-220Q258 -223 259 -248V-487Q259 -507 236 -512V-525H532L597 -618Q605 -630 579 -635V-648H709V-635Q693 -634 684 -618L619 -525H656Q715 -525 736 -501Q754 -480 753 -442V-295Q753 -251 728 -229Q707 -208 657 -208H549V-115H747Q764 -117 767 -134H780V-63H767Q761 -82 747 -82H549Z"/>
</svg>