<svg xmlns="http://www.w3.org/2000/svg" viewBox="0 -800 1024 1024">
	<path fill="#000000" d="M314 -226Q313 -202 329 -192L382 -153L439 -194Q455 -204 454 -228V-258H314ZM303 -635V-549H480V-600Q479 -634 444 -635ZM303 -429H444Q479 -430 480 -464V-516H303ZM723 -725V-432H819Q855 -433 857 -472V-688Q856 -724 819 -725ZM857 -354Q858 -387 837 -400H723V-84H818Q855 -85 857 -122ZM246 -10Q216 -8 193 -21Q174 -31 163 -48V-94H176Q180 -64 197 -54Q222 -39 245 -55L329 -115L271 -158Q236 -183 237 -227V-258H224Q209 -256 204 -239H191V-309H204Q209 -289 224 -290H237V-327Q238 -347 213 -346V-359H338V-346Q314 -344 314 -327V-290H454V-329Q454 -346 430 -348V-361H555V-348Q530 -349 531 -329V-290H558Q575 -292 578 -309H591V-239H578Q573 -257 558 -258H531V-229Q532 -185 497 -160L436 -115L523 -53Q546 -37 571 -52Q588 -62 592 -92H605V-46Q594 -29 575 -19Q552 -6 522 -8Q471 -10 449 -27L382 -75L319 -29Q297 -12 246 -10ZM459 -668Q510 -668 530 -650Q552 -631 552 -587V-474Q552 -432 529 -415Q507 -397 459 -397H203V-410Q228 -415 229 -436V-631Q228 -651 203 -655V-668ZM153 33H565Q584 31 586 14H599V84H586Q582 66 565 65H56V52Q75 50 75 26V-718Q76 -741 56 -744V-757H564Q582 -759 584 -776H597V-705H584Q581 -723 564 -724H153ZM723 32Q721 58 749 63V76H624V63Q647 60 646 32V-716Q646 -740 621 -744V-757H839Q892 -757 915 -732Q933 -710 932 -673V-488Q932 -442 910 -423Q904 -415 896 -411Q908 -405 916 -397Q932 -380 932 -340V-138Q932 -95 908 -72Q886 -53 837 -53H723Z"/>
</svg>