<svg xmlns="http://www.w3.org/2000/svg" viewBox="0 -800 1024 1024">
	<path fill="#000000" d="M656 -632H742V-618Q721 -617 723 -601L741 -473Q744 -457 764 -457V-444H677V-457Q699 -459 698 -473L680 -601Q677 -619 656 -618ZM769 -137Q786 -139 789 -156H802V-85H789Q783 -104 769 -104H534Q518 -103 513 -85H501V-156H513Q518 -137 534 -137ZM219 -619V-432H332V-619ZM178 -300V-145H372V-261Q371 -299 332 -300ZM178 43H332Q371 42 372 7V-112H178ZM142 -739Q143 -766 116 -767V-781H244V-767Q218 -765 219 -739V-652H332V-739Q333 -767 307 -767V-781H435V-767Q409 -764 409 -739V-652H438Q456 -654 458 -671H471V-600H458Q455 -618 438 -619H409V-432H456Q473 -434 476 -451H489V-381H476Q470 -400 456 -400H91Q76 -398 71 -381H58V-451H71Q75 -431 91 -432H142V-619H113Q97 -617 93 -600H80V-671H93Q96 -652 113 -652H142ZM607 -297H841Q893 -298 909 -280Q929 -262 929 -225V-23Q930 30 893 57Q864 79 803 84Q759 86 701 80Q637 70 606 52V-6H619Q624 24 656 37Q705 56 772 51Q846 44 846 -13V-237Q847 -267 813 -266H502V-279Q524 -283 526 -305V-669Q525 -691 502 -695V-708H643L656 -743Q664 -766 636 -768V-781H771V-768Q748 -765 741 -743L728 -708H815Q864 -708 884 -692Q904 -676 904 -637V-448Q904 -402 875 -373Q848 -347 796 -347Q741 -349 700 -382V-423H713Q728 -381 783 -380Q824 -384 826 -435V-647Q827 -678 792 -677H607ZM97 -294Q97 -315 72 -320V-333H356Q409 -333 431 -312Q454 -293 453 -246V-6Q453 34 431 54Q409 76 357 76H72V63Q97 58 97 36Z"/>
</svg>