<svg xmlns="http://www.w3.org/2000/svg" viewBox="0 -800 1024 1024">
	<path fill="#000000" d="M589 -611H602Q605 -594 623 -594H766Q784 -595 786 -611H799V-545H786Q781 -563 766 -563H623Q607 -562 602 -545H589ZM208 -611H221Q224 -594 242 -594H385Q403 -595 405 -611H418V-545H405Q400 -563 385 -563H242Q226 -562 221 -545H208ZM589 -530H602Q605 -512 623 -512H766Q783 -513 786 -530H799V-463H786Q781 -481 766 -481H623Q607 -480 602 -463H589ZM208 -530H221Q224 -512 242 -512H385Q402 -513 405 -530H418V-463H405Q400 -481 385 -481H242Q226 -480 221 -463H208ZM672 -64Q706 -68 704 -104V-131H303V-104Q301 -68 335 -64L503 -26ZM872 -397Q890 -399 893 -416H906V-347H893Q889 -364 872 -364H135Q118 -363 114 -347H101V-416H114Q119 -397 135 -397H458V-416Q458 -432 434 -435V-447H572V-435Q548 -432 548 -416V-397ZM236 -340H378V-327Q356 -323 360 -312L386 -269H630L656 -310Q665 -324 639 -327V-340H781V-327Q760 -325 751 -310L725 -269H915Q933 -271 936 -288H949V-219H936Q932 -236 915 -236H92Q75 -235 71 -219H58V-288H71Q76 -269 92 -269H292L266 -312Q257 -326 236 -327ZM441 -482Q462 -485 461 -508V-644H166V-496Q164 -479 189 -474V-462H58V-474Q82 -474 81 -496V-639Q81 -658 58 -662V-675H461V-725H148Q132 -724 127 -706H115V-776H127Q130 -757 148 -757H859Q877 -759 880 -776H893V-706H880Q876 -724 859 -725H546V-675H849Q889 -675 907 -659Q926 -644 926 -610V-498Q925 -477 949 -474V-462H819V-474Q842 -476 841 -498V-616Q841 -644 812 -644H546V-508Q545 -487 566 -482V-469H441ZM778 36Q829 48 857 45Q889 43 911 29Q930 17 936 -10H949V43Q931 62 894 74Q858 85 808 85Q748 85 692 71L503 28L315 71Q259 85 199 85Q149 85 113 74Q75 62 58 43V-10H71Q78 17 96 29Q118 43 150 45Q178 48 229 36L382 1L283 -21Q247 -29 231 -47Q214 -67 214 -102V-131H98Q82 -129 78 -112H65V-183H78Q81 -164 98 -164H214V-177Q212 -193 190 -197V-209H328V-197Q303 -194 303 -177V-164H704V-177Q704 -194 679 -197V-209H817V-197Q795 -193 793 -177V-164H909Q926 -166 929 -183H942V-112H929Q923 -131 909 -131H793V-102Q793 -67 776 -47Q760 -29 724 -21L624 1Z"/>
</svg>