<svg xmlns="http://www.w3.org/2000/svg" viewBox="0 -800 1024 1024">
	<path fill="#000000" d="M551 -681Q551 -724 506 -724H96Q80 -722 76 -705H63V-776H76Q79 -757 96 -757H548Q599 -757 622 -736Q646 -713 645 -667V-36Q645 29 717 46Q781 60 862 36Q932 15 936 -9H949V40Q909 64 835 76Q777 85 719 84Q639 81 600 53Q551 23 551 -42ZM704 -378H832V-365Q804 -361 812 -345L891 -140Q898 -122 908 -119Q918 -117 927 -130Q935 -145 936 -159H949V-111Q939 -94 922 -85Q893 -69 860 -78Q825 -88 812 -123L726 -346Q721 -364 704 -365ZM704 -438Q725 -442 731 -461L825 -662Q834 -680 807 -686V-699H941V-686Q921 -685 911 -662L817 -461Q809 -442 837 -438V-425H704Z"/>
</svg>