<svg xmlns="http://www.w3.org/2000/svg" viewBox="0 -800 1024 1024">
	<path fill="#000000" d="M689 -725V-432H814Q851 -434 853 -472V-688Q852 -724 814 -725ZM853 -354Q854 -386 833 -400H689V-84H814Q851 -86 853 -122ZM435 -342Q434 -384 390 -385H110Q94 -383 90 -366H76V-436H90Q93 -418 110 -418H322L382 -597Q392 -635 356 -637H234L204 -535Q193 -501 169 -486Q138 -466 100 -479Q73 -491 58 -511V-559H71Q75 -536 87 -525Q110 -511 120 -537L184 -748Q188 -764 163 -767V-781H295V-767Q274 -764 268 -748L244 -670H402Q446 -670 462 -642Q475 -619 463 -584L408 -418H423Q480 -419 501 -399Q523 -379 523 -334V-18Q523 26 498 45Q474 65 423 65H110Q94 66 90 84H76V14H90Q92 32 110 33H390Q433 31 435 -8V-160H131Q115 -159 110 -141H98V-212H110Q115 -193 131 -193H435ZM689 32Q687 58 715 63V76H580V63Q605 60 604 32V-716Q604 -739 580 -744V-757H839Q892 -757 915 -732Q933 -710 932 -673V-488Q932 -442 910 -423Q904 -415 895 -411Q909 -405 916 -397Q932 -380 932 -340V-138Q932 -95 908 -72Q886 -53 837 -53H689Z"/>
</svg>