<svg xmlns="http://www.w3.org/2000/svg" viewBox="0 -800 1024 1024">
	<path fill="#000000" d="M663 -632H753V-618Q731 -617 735 -601L759 -473Q763 -457 782 -457V-444H690V-457Q715 -459 712 -473L686 -601Q683 -619 663 -618ZM774 -137Q791 -139 794 -156H807V-85H794Q788 -104 774 -104H550Q535 -103 530 -85H517V-156H530Q534 -136 550 -137ZM364 -434H311V-213H403V-395Q402 -433 364 -434ZM364 43Q401 41 403 3V-180H311V43ZM160 -434V-213H252V-434ZM160 43H252V-180H160ZM112 -781H243V-768Q216 -764 217 -736V-659H344V-736Q345 -768 318 -768V-781H448V-768Q420 -764 420 -736V-659H462Q480 -661 483 -678H495V-607H483Q478 -626 462 -626H420V-554Q419 -527 448 -522V-509H318V-522Q345 -524 344 -554V-626H217V-554Q215 -525 241 -522V-509H112V-522Q140 -525 140 -554V-626H92Q76 -625 71 -607H58V-678H71Q76 -659 92 -659H140V-736Q141 -767 112 -768ZM623 -297H847Q891 -297 909 -281Q929 -261 929 -227V-25Q929 33 890 59Q860 80 801 84Q752 86 694 77Q641 69 613 52V-2H627Q632 32 680 46Q731 59 783 52Q849 43 849 -13V-233Q849 -266 814 -266H520V-279Q542 -283 544 -305V-669Q543 -691 520 -695V-708H647L660 -743Q668 -766 641 -768V-781H769V-768Q748 -766 741 -743L729 -708H817Q867 -708 885 -691Q904 -673 904 -633V-443Q904 -393 875 -371Q842 -343 795 -347Q748 -352 716 -382V-423H730Q736 -399 759 -386Q783 -372 807 -384Q829 -399 829 -433V-647Q830 -678 796 -677H623ZM88 -428Q88 -449 64 -454V-467H381Q436 -467 457 -443Q475 -425 475 -384V-11Q475 31 455 51Q433 77 379 76H64V63Q87 59 88 36Z"/>
</svg>