<svg xmlns="http://www.w3.org/2000/svg" viewBox="0 -800 1024 1024">
	<path fill="#000000" d="M702 -93Q719 -95 722 -112H735V-38H722Q717 -56 702 -57H95Q80 -56 75 -38H62V-112H75Q78 -93 95 -93ZM657 -491H789Q826 -494 829 -533V-685Q828 -723 790 -724H657ZM162 -744Q165 -767 142 -768V-781H278V-768Q249 -763 248 -744L245 -708H407Q458 -709 476 -687Q492 -670 492 -626V-552Q492 -499 456 -474Q408 -438 345 -457Q314 -464 284 -492V-548H297Q302 -510 329 -493Q361 -479 387 -495Q408 -512 408 -543V-632Q410 -677 365 -676H242L231 -526Q228 -485 195 -467Q165 -454 124 -462Q84 -469 58 -497V-546H71Q76 -514 104 -500Q139 -484 144 -523L156 -676H98Q82 -676 77 -657H65V-727H77Q78 -707 91 -708H159ZM814 -757Q873 -757 896 -733Q914 -713 913 -674V-546Q913 -502 891 -481Q867 -459 815 -459H551V-472Q572 -475 573 -498V-719Q573 -739 551 -744V-757ZM106 -188V-201Q122 -202 136 -218L202 -303Q211 -319 183 -324V-337H336V-324Q317 -321 303 -303L238 -221H663L734 -334Q752 -369 721 -373H125Q109 -372 106 -354H93V-424H106Q108 -406 125 -405H769Q816 -404 830 -373Q841 -343 822 -313L764 -221H803Q865 -222 886 -197Q904 -176 904 -130V-19Q904 38 865 60Q836 78 757 82Q690 87 629 81Q533 73 491 47V-2H504Q517 37 585 46Q617 51 663 53Q712 54 747 51Q816 45 815 -11V-143Q816 -189 770 -188Z"/>
</svg>