<svg xmlns="http://www.w3.org/2000/svg" viewBox="0 -800 1024 1024">
	<path fill="#000000" d="M412 -470V-369H550V-431Q550 -470 514 -470ZM412 -336V-233H550V-336ZM59 -781H204V-768Q175 -763 187 -744L257 -643Q270 -621 295 -618V-605H147V-618Q178 -623 165 -643L96 -744Q78 -767 59 -768ZM757 -205Q755 -177 779 -175V-162H678V-175Q702 -176 700 -205V-435Q702 -467 678 -465V-478H779V-465Q756 -462 757 -435ZM523 -724L470 -636H785L750 -693Q729 -726 704 -724ZM837 -475Q837 -505 813 -506V-518H937V-506Q913 -503 914 -475V-124Q913 -69 871 -41Q839 -22 783 -25Q718 -31 689 -62V-113H702Q713 -70 773 -64Q834 -62 837 -116ZM735 -757Q782 -758 802 -743Q821 -728 837 -699L911 -579Q920 -561 948 -555V-543H799V-555Q829 -563 821 -579L806 -603H450L436 -579Q428 -562 459 -555V-543H308V-555Q338 -561 347 -579L430 -718Q439 -739 408 -744V-757ZM176 -484Q175 -512 151 -513H104Q90 -512 85 -494H72V-564H85Q89 -544 104 -545H183Q225 -545 242 -525Q258 -507 258 -470V-53L357 13Q384 33 425 33H915Q933 31 936 14H949V84H936Q932 66 915 65H430Q372 67 332 38L257 -11Q254 34 230 60Q196 93 137 82Q90 73 58 31V-29H71Q75 6 103 26Q132 47 155 38Q176 28 176 -8ZM412 -76Q410 -49 434 -47V-34H318V-47Q342 -49 341 -76V-465Q341 -485 318 -490V-502H530Q585 -502 605 -479Q621 -459 621 -422V-107Q621 -62 600 -42Q570 -17 524 -31Q497 -41 481 -63V-113H493Q495 -89 512 -73Q547 -53 550 -97V-200H412Z"/>
</svg>