<svg xmlns="http://www.w3.org/2000/svg" viewBox="0 -800 1024 1024">
	<path fill="#000000" d="M58 -585H71Q77 -558 92 -549Q114 -541 123 -562L171 -748Q175 -766 151 -768V-781H287V-767Q262 -766 258 -748L238 -670H360Q378 -672 381 -689H393V-618H381Q376 -637 360 -637H230L211 -562Q203 -528 169 -514Q138 -502 104 -509Q76 -516 58 -536ZM803 -724H719V-364H846V-682Q845 -723 803 -724ZM521 -724V-364H648V-724ZM803 43Q843 40 846 0V-331H719V43ZM521 43H648V-331H521ZM270 13Q273 54 324 38Q382 11 386 -34H398V19Q360 64 307 79Q256 91 225 78Q184 58 184 4V-225H93Q77 -224 72 -206H60V-276H72Q77 -257 93 -257H184V-430H110Q94 -429 89 -411H77V-482H89Q94 -463 110 -463H348Q366 -465 368 -482H381V-411H368Q364 -429 348 -430H270V-257H363Q381 -259 384 -276H397V-206H384Q379 -225 363 -225H270ZM440 -720Q440 -739 414 -744V-757H830Q884 -757 908 -733Q927 -712 927 -676V-14Q927 31 905 51Q883 77 827 76H415V63Q439 60 440 38Z"/>
</svg>