<svg xmlns="http://www.w3.org/2000/svg" viewBox="0 -800 1024 1024">
	<path fill="#000000" d="M634 -205H591V-40H665V-174Q665 -205 634 -205ZM347 -205V-40H421V-205ZM469 -205V-40H544V-205ZM97 -781H238V-768Q215 -763 226 -751L306 -677Q322 -662 339 -659V-647H194V-659Q219 -666 208 -678L128 -751Q115 -763 97 -768ZM168 35Q167 59 192 63V76H62V63Q85 61 84 35V-571Q85 -596 61 -598V-611H192V-598Q167 -594 168 -571ZM436 -686H577V-673Q549 -670 549 -642V-605H703Q720 -606 722 -623H735V-552H722Q717 -570 702 -571H549V-485H743Q761 -487 764 -504H776V-433H764Q759 -452 743 -452H481L357 -352Q348 -344 351 -338Q355 -332 368 -332Q475 -334 615 -352L588 -389Q572 -408 554 -408V-421H684V-408Q658 -404 668 -389L731 -307Q745 -288 764 -288V-274H631V-287Q659 -291 650 -306L634 -326Q476 -297 317 -293Q274 -294 263 -322Q255 -348 281 -373L382 -452H269Q253 -450 249 -433H236V-504H249Q252 -485 269 -485H464V-571H311Q295 -570 290 -552H277V-623H290Q294 -605 311 -605H464V-642Q465 -674 436 -673ZM845 -676Q847 -724 803 -722H407Q388 -721 384 -703H372V-774H384Q387 -756 407 -755H832Q879 -755 903 -733Q929 -707 929 -665V-58Q929 32 830 67Q763 89 685 83Q613 77 581 57V5H593Q602 36 674 49Q746 57 791 35Q845 9 845 -47ZM756 -40Q773 -42 776 -59H789V10H776Q772 -6 756 -7H257Q240 -6 236 10H223V-59H236Q241 -40 257 -40H272V-201Q272 -220 248 -225V-237H658Q705 -237 723 -220Q740 -202 740 -166V-40Z"/>
</svg>