<svg xmlns="http://www.w3.org/2000/svg" viewBox="0 -800 1024 1024">
	<path fill="#000000" d="M340 -335H487V-322Q464 -318 473 -309L567 -250Q583 -239 602 -236V-223H454V-236Q484 -238 472 -250L378 -309Q362 -321 340 -322ZM58 -537H71Q73 -511 89 -501Q112 -493 125 -513L173 -600Q180 -615 156 -619V-631H282V-619Q266 -617 258 -600L206 -511Q191 -479 163 -469Q138 -459 112 -462Q82 -465 58 -487ZM726 -631H851V-619Q827 -615 834 -600L882 -513Q895 -493 917 -501Q934 -511 936 -537H949V-487Q926 -465 895 -462Q869 -459 844 -469Q816 -479 801 -511L749 -600Q740 -615 726 -619ZM739 -67Q756 -69 759 -86H772V-16H759Q754 -35 739 -35H91Q75 -34 71 -16H58V-86H71Q76 -67 91 -67ZM320 -495Q344 -497 344 -523V-672H109Q93 -671 88 -653H75V-723H88Q93 -704 109 -704H458V-743Q458 -765 433 -768V-781H573V-768Q548 -764 548 -743V-704H899Q916 -706 919 -723H932V-653H919Q913 -672 899 -672H662V-523Q662 -498 686 -495V-483H551V-495Q575 -498 575 -523V-672H431V-523Q431 -499 455 -495V-483H320ZM115 -142V-155Q140 -158 141 -179V-370Q141 -389 115 -395V-408H400L410 -424Q419 -443 391 -447V-460H531V-447Q515 -446 502 -424L492 -408H789Q827 -408 848 -392Q867 -377 867 -352V-278Q867 -238 828 -223Q802 -213 760 -215Q713 -218 672 -236V-286H685Q696 -250 734 -247Q776 -246 779 -273V-350Q779 -377 747 -377H229V-173H826Q875 -173 897 -151Q917 -135 917 -99V-2Q917 41 871 64Q834 83 744 84Q739 84 727 84Q623 85 557 80Q478 74 415 54V0H427Q440 38 542 47Q555 48 561 49Q684 60 757 51Q832 44 829 -2V-109Q829 -141 797 -142Z"/>
</svg>