<svg xmlns="http://www.w3.org/2000/svg" viewBox="0 -800 1024 1024">
	<path fill="#000000" d="M232 -725V-591H281V-725ZM145 -560V-241Q154 -235 165 -233Q193 -226 193 -258V-560ZM332 -560H321V-258Q321 -225 349 -233Q360 -236 370 -242V-522Q370 -560 332 -560ZM912 -682Q930 -684 933 -701H945V-632H933Q930 -649 912 -649H502Q486 -647 482 -630H469V-701H482Q487 -682 502 -682H669V-741Q670 -766 642 -768V-781H782V-768Q754 -765 755 -741V-682ZM145 44H329Q368 42 370 5V-78H145ZM604 -409H784Q819 -409 819 -437V-525Q820 -553 786 -551H604ZM232 -266Q232 -227 214 -214Q191 -198 160 -209Q153 -210 145 -215V-109H370V-215Q363 -210 355 -209Q323 -198 301 -214Q281 -229 281 -266V-560H232ZM850 -308Q893 -307 902 -279Q909 -252 876 -231L765 -165Q749 -154 749 -134V-133H915Q933 -135 936 -152H949V-81H936Q932 -99 915 -100H749V-15Q749 41 716 64Q679 91 616 83Q559 75 533 43V-10H546Q553 38 597 48Q658 53 663 1V-100H498Q482 -98 478 -81H465V-152H478Q483 -133 498 -133H663V-142Q662 -181 693 -197L802 -263Q809 -267 809 -271Q808 -275 800 -275H529Q513 -274 508 -256H495V-327H508Q512 -308 529 -308ZM825 -584Q867 -584 885 -570Q903 -555 903 -522V-437Q903 -405 879 -388Q860 -376 826 -376H495V-389Q519 -391 519 -413V-548Q519 -568 495 -571V-584ZM82 -557Q82 -575 58 -578V-591H162V-725H93Q78 -724 71 -706H59V-775H71Q77 -756 93 -757H413Q431 -759 433 -776H447V-706H433Q430 -724 413 -725H351V-591Q397 -589 416 -570Q434 -552 433 -514V-8Q433 34 415 53Q393 77 339 76H58V63Q82 59 82 39Z"/>
</svg>