<svg xmlns="http://www.w3.org/2000/svg" viewBox="0 -800 1024 1024">
	<path fill="#000000" d="M814 -504Q852 -506 854 -545V-685Q853 -723 814 -724H769V-504ZM491 -724V-504H576V-724ZM629 -724V-504H716V-724ZM58 -585H71Q75 -561 84 -553Q99 -543 104 -562L151 -748Q156 -766 132 -768V-781H263V-767Q238 -766 234 -748L214 -670H341Q359 -672 362 -689H374V-618H362Q357 -637 341 -637H206L187 -562Q179 -530 155 -517Q127 -502 96 -512Q74 -518 58 -536ZM266 13Q270 55 322 38Q353 21 363 -20H376V33Q355 63 307 79Q259 92 225 78Q184 58 184 4V-225H93Q77 -224 72 -206H60V-276H72Q77 -257 93 -257H184V-430H110Q94 -429 89 -411H77V-482H89Q94 -463 110 -463H338Q356 -465 359 -482H371V-411H359Q354 -430 338 -430H266V-257H348Q366 -259 369 -276H382V-206H369Q364 -225 348 -225H266ZM400 -332H412Q419 -305 428 -297Q442 -286 454 -306L544 -471H390V-484Q415 -488 416 -511V-718Q416 -739 390 -744V-757H833Q882 -757 905 -737Q929 -716 929 -674V-559Q929 -517 909 -496Q888 -471 834 -471H632L571 -360H819Q873 -360 892 -332Q908 -305 886 -258L759 -3Q721 69 639 83Q576 95 508 76Q458 62 424 33V-22H436Q446 20 493 37Q538 56 589 49Q646 38 669 -6L701 -70H605Q562 -70 541 -81Q518 -94 506 -125L479 -194Q472 -212 452 -214V-228H582V-215Q557 -211 563 -194L588 -127Q598 -105 629 -103H717L808 -284Q822 -323 783 -327H553L540 -302Q525 -270 493 -259Q467 -250 437 -259Q416 -265 400 -278Z"/>
</svg>