<svg xmlns="http://www.w3.org/2000/svg" viewBox="0 -800 1024 1024">
	<path fill="#000000" d="M340 -280H497V-267Q474 -262 483 -254L567 -203Q583 -193 602 -189V-177H444V-189Q473 -192 462 -203L378 -255Q377 -255 375 -257Q357 -266 340 -267ZM738 -50Q755 -52 758 -69H771V1H758Q754 -17 738 -18H91Q76 -17 71 1H58V-69H71Q75 -49 91 -50ZM916 -452Q934 -453 936 -471H949V-400H936Q932 -418 916 -419H90Q76 -418 70 -400H58V-471H70Q74 -451 90 -452ZM170 -547Q163 -543 165 -536Q168 -530 177 -530Q307 -532 391 -546Q470 -557 475 -596H487V-536Q416 -516 314 -505Q213 -493 125 -492Q81 -493 69 -523Q61 -555 97 -574L212 -629Q164 -624 129 -626Q92 -628 79 -653Q68 -683 100 -705L170 -752Q181 -761 157 -768V-781H315V-768Q294 -763 278 -753L165 -679Q158 -674 160 -667Q164 -660 173 -660Q226 -660 286 -664L327 -684Q338 -695 314 -702V-715H492V-702Q480 -700 453 -686ZM617 -547Q610 -543 612 -536Q615 -530 624 -530Q752 -532 841 -546Q922 -559 926 -597H939V-536Q859 -515 761 -505Q662 -494 573 -492Q529 -493 517 -523Q510 -555 544 -574L660 -629Q604 -625 563 -626Q525 -628 515 -652Q504 -684 534 -705L605 -752Q615 -761 591 -768V-781H750V-768Q728 -763 712 -753L600 -679Q593 -674 595 -667Q598 -660 607 -660Q672 -660 735 -665L774 -684Q785 -695 761 -702V-715H939V-702Q926 -699 900 -686ZM115 -112V-125Q140 -128 141 -149V-305Q141 -324 115 -330V-343H400L410 -362Q419 -379 394 -382V-395H534V-382Q513 -378 503 -362L492 -343H789Q826 -343 848 -328Q867 -315 867 -287V-243Q867 -205 833 -188Q805 -175 760 -177Q716 -179 672 -198V-248H685Q695 -215 736 -209Q775 -208 779 -237V-285Q779 -312 747 -312H229V-143H826Q875 -143 897 -122Q917 -104 917 -69V-11Q918 41 867 63Q830 80 725 85Q661 87 570 83Q467 76 415 54V0H427Q440 44 542 51Q655 62 752 51Q830 44 829 -13V-79Q829 -112 796 -112Z"/>
</svg>