<svg xmlns="http://www.w3.org/2000/svg" viewBox="0 -800 1024 1024">
	<path fill="#000000" d="M58 -148H70Q74 -124 89 -111Q105 -99 111 -125L141 -292Q144 -307 122 -310V-323H227V-309Q207 -306 206 -292L175 -120Q169 -90 145 -76Q126 -64 95 -72Q74 -78 58 -93ZM758 -217Q759 -177 746 -155L725 -115H840V-102Q816 -96 823 -80L874 23Q896 61 921 34Q931 22 935 -1H948V51Q931 72 904 80Q875 89 847 77Q818 67 800 35L742 -81Q733 -97 718 -100L650 32Q628 71 594 80Q563 91 524 77Q497 68 474 51V-1H486Q491 28 517 42Q546 57 563 27L667 -174Q677 -193 677 -223V-470Q679 -494 653 -495V-508H781V-495Q757 -493 758 -470ZM588 -211Q588 -189 612 -186V-173H502V-186Q523 -188 524 -211V-574Q524 -593 503 -598V-611H651L688 -724H520Q504 -723 499 -705H486V-776H499Q504 -757 520 -757H915Q933 -759 936 -776H949V-705H936Q932 -723 915 -724H778L741 -611H834Q879 -611 895 -590Q912 -572 912 -538V-211Q913 -188 937 -186V-173H825V-186Q849 -190 848 -211V-547Q849 -579 816 -578H588ZM291 -742Q291 -765 263 -768V-781H401V-768Q374 -763 373 -742V-629H449Q467 -631 469 -648H482V-578H469Q466 -596 449 -597H373V-424H460Q478 -425 481 -442H494V-372H481Q476 -391 460 -391H332V-114Q331 -89 353 -84L408 -236Q417 -257 391 -259V-272H511V-259Q487 -257 481 -235L394 -2Q371 56 285 76Q225 89 158 78Q97 68 58 44V-14H71Q81 28 154 45Q205 57 252 46Q311 30 327 -13L347 -69H222V-82Q251 -87 251 -114V-391H92Q76 -390 71 -372H58V-442H71Q75 -424 92 -424H116V-685Q116 -705 89 -707V-719H215V-707Q189 -702 189 -685V-424H291Z"/>
</svg>