<svg xmlns="http://www.w3.org/2000/svg" viewBox="0 -800 1024 1024">
	<path fill="#000000" d="M673 -632H759V-618Q737 -617 740 -601L766 -473Q769 -457 788 -457V-444H700V-457Q725 -459 721 -473L696 -601Q691 -619 673 -618ZM539 -156H552Q556 -136 572 -137H774Q791 -139 794 -156H807V-85H794Q788 -104 774 -104H572Q557 -102 552 -85H539ZM391 -656H330V-519H431V-617Q430 -655 391 -656ZM156 -656V-519H256V-656ZM391 -344Q429 -346 431 -385V-486H330V-344ZM156 -344H256V-486H156ZM395 32Q393 59 423 63V76H287V63Q316 59 315 32V-95H92Q76 -94 71 -76H58V-147H71Q76 -128 92 -128H315V-205Q316 -237 287 -236V-249H423V-236Q395 -233 395 -205V-128H464Q482 -130 484 -147H497V-76H484Q480 -94 464 -95H395ZM638 -297H845Q887 -297 908 -280Q929 -262 929 -225V-25Q929 33 890 59Q859 81 799 84Q753 87 700 79Q643 69 613 52V-2H627Q632 32 680 46Q731 59 783 52Q849 43 850 -13V-230Q848 -264 811 -266H539V-279Q561 -283 563 -305V-669Q562 -690 539 -695V-708H655L668 -743Q677 -765 649 -768V-781H778V-768Q756 -765 750 -743L737 -708H817Q866 -709 883 -690Q903 -672 903 -630V-435Q903 -389 871 -365Q842 -344 798 -346Q755 -350 723 -376V-417H737Q749 -376 792 -378Q830 -384 831 -426V-645Q831 -677 796 -677H638ZM399 -689Q456 -689 477 -667Q496 -648 496 -606V-399Q496 -355 476 -335Q454 -311 401 -311H321L223 -196Q206 -176 179 -166Q145 -156 109 -169Q83 -179 72 -200V-248H85Q87 -211 111 -199Q135 -190 157 -216L238 -311H68V-324Q89 -326 90 -351V-651Q90 -672 68 -676V-689H222L240 -743Q249 -765 220 -768V-781H351V-768Q328 -765 322 -743L303 -689Z"/>
</svg>