<svg xmlns="http://www.w3.org/2000/svg" viewBox="0 -800 1024 1024">
	<path fill="#000000" d="M408 -781H541V-768Q517 -764 523 -751L564 -671Q572 -654 587 -654V-641H457V-654Q480 -656 473 -671L432 -751Q425 -767 408 -768ZM59 -781H207V-768Q177 -762 189 -744L262 -643Q275 -621 302 -618V-605H150V-618Q181 -624 168 -643L96 -744Q78 -767 59 -768ZM198 -484Q197 -512 173 -513H104Q90 -512 85 -494H72V-564H85Q89 -544 104 -545H205Q248 -545 264 -527Q283 -509 283 -468V-52L384 12Q419 31 469 33H915Q933 31 936 14H949V84H936Q932 66 915 65H460Q402 66 360 37L282 -11Q279 36 249 63Q204 94 130 80Q89 70 58 29V-32H71Q77 17 131 38Q195 55 198 -8ZM356 -261V-274Q379 -278 379 -298V-470Q378 -490 357 -492V-505H480V-492Q459 -490 458 -470V-294H589V-579H373Q357 -577 353 -560H340V-631H353Q356 -612 373 -612H679L749 -751Q755 -764 730 -768V-781H863V-768Q847 -766 840 -751L770 -612H899Q917 -614 920 -631H932V-560H920Q915 -579 899 -579H677V-294H782Q816 -293 815 -328V-470Q814 -490 793 -492V-505H916V-492Q895 -490 894 -470V-330Q894 -299 879 -280Q861 -261 822 -261H673Q668 -243 662 -229L583 -83Q560 -43 527 -29Q481 -9 417 -22Q378 -30 346 -55V-109H358Q362 -76 399 -62Q428 -53 450 -58Q480 -65 493 -88L576 -242Q580 -250 583 -261Z"/>
</svg>