<svg xmlns="http://www.w3.org/2000/svg" viewBox="0 -800 1024 1024">
	<path fill="#000000" d="M438 -656H362V-519H478V-617Q477 -655 438 -656ZM166 -656V-519H281V-656ZM438 -344Q476 -346 478 -385V-486H362V-365Q362 -353 360 -344ZM166 -344H280Q281 -350 281 -360V-486H166ZM702 -725V-432H817Q854 -434 856 -472V-688Q855 -724 817 -725ZM425 32Q424 58 453 63V76H311V63Q340 59 339 32V-95H91Q75 -94 70 -76H58V-147H70Q75 -128 91 -128H339V-205Q340 -237 311 -236V-249H453V-236Q425 -233 425 -205V-128H539Q557 -130 560 -147H572V-76H560Q555 -95 539 -95H425ZM856 -354Q857 -386 836 -400H702V-84H816Q854 -86 856 -122ZM453 -689Q511 -689 531 -665Q549 -647 549 -606V-399Q549 -355 529 -336Q507 -310 453 -311H347Q342 -303 336 -296L242 -201Q216 -174 184 -168Q149 -161 113 -170Q80 -179 57 -201V-250H70Q80 -217 112 -205Q144 -197 168 -220L257 -311H71V-324Q95 -326 96 -351V-651Q96 -671 71 -676V-689H241L260 -743Q268 -766 240 -768V-781H376V-768Q353 -765 347 -743L328 -689ZM702 32Q700 58 729 63V76H597V63Q622 60 621 32V-716Q621 -739 595 -744V-757H839Q892 -757 915 -732Q933 -710 932 -673V-488Q932 -442 910 -423Q904 -415 896 -411Q908 -405 916 -397Q932 -380 932 -340V-138Q932 -95 908 -72Q886 -53 835 -53H702Z"/>
</svg>