<svg xmlns="http://www.w3.org/2000/svg" viewBox="0 -800 1024 1024">
	<path fill="#000000" d="M58 -585H71Q77 -558 92 -549Q114 -541 123 -562L171 -748Q175 -766 151 -768V-781H283V-767Q259 -766 255 -748L235 -670H370Q388 -672 391 -689H403V-618H391Q386 -637 370 -637H227L208 -562Q198 -530 168 -516Q139 -503 107 -509Q78 -514 58 -536ZM591 10Q584 54 553 72Q527 88 486 82Q442 75 419 51V-1H432Q436 19 452 34Q470 52 487 44Q501 38 506 11L546 -253Q549 -272 527 -277V-290H654V-277Q634 -274 632 -253ZM271 13Q274 54 326 38Q383 11 387 -34H399V19Q356 66 308 79Q257 91 226 78Q185 57 185 4V-225H93Q77 -224 72 -206H60V-276H72Q77 -257 93 -257H185V-430H110Q94 -429 89 -411H77V-482H89Q94 -463 110 -463H350Q368 -465 370 -482H383V-411H370Q366 -429 350 -430H271V-257H365Q382 -259 385 -276H398V-206H385Q379 -225 365 -225H271ZM644 -736Q645 -768 616 -768V-781H760V-768Q731 -764 732 -736V-622H892Q910 -624 913 -641H926V-570H913Q908 -589 892 -589H732V-392H913Q931 -394 933 -411H946V-340H933Q930 -358 913 -359H826V-5Q828 50 884 42Q929 33 936 -13H949V40Q917 82 851 84Q799 84 771 63Q739 36 739 -13V-359H466Q451 -357 446 -340H433V-411H446Q450 -391 466 -392H644V-589H540L531 -509Q526 -470 501 -455Q474 -441 444 -450Q417 -459 403 -480V-521H416Q418 -496 435 -486Q457 -479 461 -504L484 -711Q487 -730 465 -734V-747H573V-734Q556 -728 554 -716L543 -622H644Z"/>
</svg>