<svg xmlns="http://www.w3.org/2000/svg" viewBox="0 -800 1024 1024">
	<path fill="#000000" d="M550 -292H664V-279Q643 -275 649 -262L665 -238Q673 -224 694 -220V-207H575V-220Q599 -223 591 -238L575 -262Q567 -277 550 -279ZM589 -504H602Q605 -486 622 -486H766Q783 -487 786 -504H799V-437H786Q782 -453 766 -453H622Q606 -452 602 -437H589ZM208 -504H221Q224 -486 241 -486H385Q402 -487 405 -504H418V-437H405Q401 -453 385 -453H241Q225 -452 221 -437H208ZM208 -596H221Q224 -578 241 -578H385Q402 -579 405 -596H418V-529H405Q401 -545 385 -545H241Q225 -544 221 -529H208ZM589 -596H602Q605 -578 622 -578H766Q783 -579 786 -596H799V-529H786Q782 -545 766 -545H622Q606 -544 602 -529H589ZM313 44H382Q411 45 411 15V-78Q412 -108 382 -106H313ZM891 -356Q909 -358 912 -375H925V-305H912Q908 -323 891 -324H549Q533 -323 528 -305H516V-375H528Q533 -356 549 -356H679V-370Q681 -395 656 -396V-409H786V-396Q760 -395 762 -370V-356ZM193 -348V-226H353Q386 -226 386 -256V-318Q386 -348 353 -348ZM231 -138H387Q436 -139 453 -124Q471 -108 471 -72V8Q471 46 450 61Q429 77 387 77H231V62Q253 61 253 38V-101Q253 -122 231 -125ZM653 63Q680 59 680 34V-44H549Q534 -42 529 -25H516V-94H529Q534 -75 549 -75H680V-160H526Q510 -159 505 -141H493V-211H505Q510 -192 526 -192H750L791 -262Q799 -275 776 -279V-292H894V-279Q877 -276 868 -262L826 -192H914Q931 -194 934 -211H947V-141H934Q930 -159 914 -160H763V-75H892Q909 -77 912 -94H925V-25H912Q908 -43 892 -44H763V34Q761 59 789 63V76H653ZM193 13Q193 48 174 66Q158 84 126 84Q86 84 58 50V4H71Q72 31 88 39Q110 50 112 25V-341Q112 -362 87 -366V-379H375Q425 -380 442 -366Q464 -351 464 -316V-262Q464 -222 438 -206Q420 -193 380 -193H193ZM547 -463Q546 -441 567 -438V-425H440V-438Q462 -440 460 -463V-633H166V-460Q165 -441 189 -438V-425H58V-438Q82 -437 81 -460V-630Q81 -649 58 -653V-666H460V-725H148Q132 -724 127 -706H115V-776H127Q130 -757 148 -757H859Q877 -759 880 -776H893V-706H880Q876 -724 859 -725H547V-666H846Q889 -666 907 -646Q926 -627 926 -594V-461Q926 -440 949 -438V-425H819V-438Q842 -440 841 -461V-603Q841 -633 810 -633H547Z"/>
</svg>