<svg xmlns="http://www.w3.org/2000/svg" viewBox="0 -800 1024 1024">
	<path fill="#000000" d="M793 -484Q831 -486 833 -525V-587H703V-484ZM793 -724H703V-620H833V-685Q832 -723 793 -724ZM500 -587V-484H630V-587ZM500 -724V-620H630V-724ZM386 -17H398Q400 0 411 10Q428 24 440 2L477 -89Q484 -104 460 -107V-120H574V-107Q556 -104 551 -89L509 9Q496 38 466 47Q441 53 418 43Q401 38 386 25ZM761 -120H874V-107Q851 -104 858 -89L895 1Q907 24 924 10Q936 -1 936 -17H949V25Q936 37 920 43Q897 53 870 48Q839 40 826 9L785 -89Q780 -104 761 -107ZM58 -585H71Q74 -557 90 -549Q107 -542 113 -562L161 -748Q164 -765 140 -768V-781H275V-767Q251 -766 247 -748L227 -670H335Q353 -672 356 -689H368V-618H356Q351 -637 335 -637H219L201 -564Q192 -534 168 -520Q137 -502 99 -512Q73 -519 58 -536ZM63 -276H75Q80 -257 96 -257H166V-430H108Q92 -429 87 -411H74V-482H87Q92 -463 108 -463H322Q340 -465 343 -482H355V-411H343Q338 -430 322 -430H252V-257H328Q346 -259 349 -276H361V-206H349Q344 -225 328 -225H252V11Q258 54 306 32Q335 15 349 -27H362V25Q339 57 286 76Q237 93 200 73Q166 51 166 1V-225H96Q80 -224 75 -206H63ZM410 -345Q410 -374 445 -391L564 -451H396V-464Q420 -468 421 -490V-720Q420 -738 396 -744V-757H817Q874 -757 894 -733Q912 -713 912 -674V-539Q912 -495 890 -474Q867 -450 816 -451H681L505 -360Q496 -356 498 -351Q500 -345 510 -345Q580 -342 650 -348L729 -384Q736 -387 734 -392Q732 -397 723 -398V-411H898V-398Q887 -395 863 -384Q860 -383 858 -382L497 -217Q489 -213 491 -207Q494 -200 503 -200Q661 -201 817 -225L795 -268Q787 -288 766 -289V-301H890V-289Q864 -284 875 -267L917 -185Q927 -166 945 -164V-151H823V-164Q848 -167 838 -186L831 -199Q779 -188 706 -179V5Q706 44 680 67Q652 87 603 83Q566 76 541 49V7H554Q562 46 591 47Q620 41 621 11V-171Q518 -162 448 -163Q399 -165 391 -196Q388 -229 427 -246L581 -316Q503 -311 469 -312Q416 -315 410 -345Z"/>
</svg>