<svg xmlns="http://www.w3.org/2000/svg" viewBox="0 -800 1024 1024">
	<path fill="#000000" d="M807 -540Q842 -542 845 -579V-686Q845 -724 806 -724H748V-540ZM593 -724V-540H690V-724ZM438 -724V-540H535V-724ZM60 -781H205V-768Q175 -763 187 -744L262 -622Q275 -600 302 -597V-584H153V-597Q184 -603 171 -623L97 -744Q83 -766 60 -768ZM183 -460Q183 -486 159 -486H105Q91 -485 85 -467H72V-538H85Q91 -519 105 -519H188Q230 -519 250 -499Q268 -480 268 -441V-49L369 14Q400 33 435 33H915Q933 31 936 13H949V83H936Q931 64 915 64H440Q383 66 344 38L268 -7Q265 39 234 65Q197 91 139 81Q91 71 58 30V-24H71Q79 17 120 37Q179 59 183 -1ZM325 -399H338Q348 -362 378 -357Q403 -354 419 -375L507 -507H334V-520Q358 -522 358 -545V-720Q358 -740 334 -744V-757H833Q880 -757 902 -738Q925 -719 925 -680V-592Q925 -549 905 -530Q885 -507 833 -507H603L540 -413H830Q878 -412 897 -382Q911 -355 886 -319L724 -105Q679 -45 594 -28Q535 -15 472 -24Q400 -32 354 -67V-128H366Q377 -80 442 -63Q489 -50 539 -62Q601 -77 632 -118L665 -163H535Q505 -163 486 -172Q467 -180 455 -201L419 -262Q412 -277 391 -281V-294H529V-281Q504 -277 511 -262L540 -213Q550 -196 576 -196H690L803 -347Q813 -361 808 -371Q804 -380 787 -380H518L515 -375Q492 -341 453 -328Q420 -318 384 -322Q349 -327 325 -347Z"/>
</svg>