<svg xmlns="http://www.w3.org/2000/svg" viewBox="0 -800 1024 1024">
	<path fill="#000000" d="M664 -632H749V-618Q727 -616 730 -601L749 -473Q751 -457 771 -457V-444H684V-457Q706 -459 705 -473L687 -601Q683 -619 664 -618ZM770 -137Q788 -139 791 -156H803V-85H791Q786 -104 770 -104H542Q527 -102 522 -85H509V-156H522Q526 -136 542 -137ZM219 -724L187 -545H363L336 -698Q332 -724 305 -724ZM184 43H336Q370 41 372 4V-258Q371 -293 336 -294H184ZM165 -420Q160 -398 185 -396V-383H58V-396Q85 -401 86 -420L140 -718Q145 -739 119 -743V-757H333Q368 -757 387 -742Q406 -728 413 -695L462 -420Q463 -400 487 -396V-383H366V-396Q390 -400 386 -419L369 -512H181ZM623 -297H841Q885 -297 908 -276Q929 -258 929 -221V-27Q929 32 890 58Q855 82 788 84Q737 85 690 78Q636 68 608 52V-3H621Q627 32 678 46Q726 57 777 52Q845 43 846 -14V-226Q846 -266 803 -266H518V-279Q540 -283 542 -305V-669Q541 -691 518 -695V-708H638L651 -743Q659 -766 631 -768V-781H767V-768Q745 -766 738 -743L725 -708H815Q865 -708 885 -692Q904 -676 904 -637V-448Q904 -398 875 -372Q847 -347 794 -347Q741 -351 701 -382V-423H714Q730 -381 782 -381Q824 -385 826 -436V-647Q827 -678 792 -677H623ZM101 -289Q101 -308 77 -314V-327H361Q416 -327 437 -303Q455 -284 455 -245V-11Q455 31 435 50Q413 75 359 75H77V62Q100 58 101 35Z"/>
</svg>