<svg xmlns="http://www.w3.org/2000/svg" viewBox="0 -800 1024 1024">
	<path fill="#000000" d="M58 -585H71Q77 -558 92 -549Q114 -541 123 -562L171 -748Q175 -766 151 -768V-781H286V-767Q262 -766 258 -748L238 -670H352Q370 -672 373 -689H385V-618H373Q368 -637 352 -637H229L210 -562Q201 -525 167 -513Q138 -501 103 -509Q74 -518 58 -536ZM265 13Q268 54 321 38Q387 9 390 -34H403V19Q361 62 302 79Q250 91 219 78Q178 57 178 4V-225H93Q77 -224 72 -206H60V-276H72Q77 -257 93 -257H178V-430H110Q94 -429 89 -411H77V-482H89Q94 -463 110 -463H338Q356 -465 359 -482H372V-411H359Q354 -430 338 -430H265V-257H346Q364 -259 367 -276H379V-206H367Q362 -225 346 -225H265ZM749 -640Q766 -642 769 -659H782V-588H769Q764 -607 749 -607H657V-432H741L834 -698Q843 -722 814 -724L815 -737H948V-724Q925 -720 917 -698L824 -432H910Q928 -434 931 -451H944V-380H931Q927 -398 910 -399H621L572 -277V-160H694Q741 -157 751 -192L790 -295Q799 -314 771 -319V-332H905V-319Q886 -317 877 -295L837 -189Q825 -155 800 -142Q774 -126 721 -127H572V-29Q569 46 653 48Q755 55 832 32Q912 8 923 -52H936V9Q897 47 815 68Q740 86 640 84Q564 83 529 61Q483 31 483 -41V-171Q463 -169 445 -175Q416 -182 395 -200V-252H408Q412 -230 427 -218Q451 -203 465 -232L533 -399H435Q419 -397 415 -380H402V-451H415Q418 -432 435 -432H569V-607H462Q446 -605 442 -588H429V-659H442Q445 -640 462 -640H569V-736Q570 -767 541 -768V-781H685V-768Q657 -764 657 -736V-640Z"/>
</svg>