<svg xmlns="http://www.w3.org/2000/svg" viewBox="0 -800 1024 1024">
	<path fill="#000000" d="M321 -370Q321 -365 320 -355Q320 -348 320 -345H381Q419 -346 420 -386V-487H321ZM148 -345H245Q247 -357 247 -370V-487H148ZM380 -667H321V-519H420V-628Q419 -666 380 -667ZM148 -667V-519H247V-667ZM450 -169H515V-155Q499 -154 500 -141L506 -40Q508 -26 525 -24V-10H457V-24Q471 -27 470 -40L469 -47Q451 -32 425 -25Q399 -18 387 -32Q375 -43 379 -66L410 -241Q415 -259 395 -261V-274H478V-261Q458 -258 455 -241L423 -66Q421 -51 437 -53Q451 -56 468 -67L464 -141Q463 -154 450 -155ZM575 -346Q575 -365 554 -370V-382H655V-370Q633 -366 633 -346L619 -130Q616 -96 593 -79Q570 -61 542 -72Q529 -78 518 -93V-137H530Q534 -111 547 -105Q560 -101 562 -123ZM894 -123Q896 -99 914 -103Q933 -110 936 -140H949V-93Q935 -78 919 -71Q895 -62 871 -72Q838 -88 835 -130L822 -346Q821 -366 801 -370V-382H901V-370Q880 -364 881 -346ZM767 -49Q765 -20 792 -18V-5H660V-18Q687 -22 686 -49V-451H549Q534 -450 529 -432H516V-503H529Q534 -483 549 -484H686V-625H569Q554 -624 549 -606H536V-677H549Q554 -657 569 -658H686V-736Q687 -768 660 -768V-781H793V-768Q766 -765 767 -736V-658H891Q909 -660 911 -677H923V-606H911Q908 -624 891 -625H767V-484H911Q929 -486 931 -503H943V-432H931Q928 -450 911 -451H767ZM426 82Q347 77 315 42Q286 15 286 -40V-213Q286 -224 283 -231L184 36Q173 64 151 76Q127 88 100 81Q76 75 58 54V3H71Q73 23 83 35Q99 52 110 29L236 -312H64V-325Q85 -327 85 -352V-663Q85 -683 64 -687V-700H208L226 -743Q235 -763 207 -767V-781H340V-767Q318 -764 308 -743L290 -700H391Q435 -700 458 -685Q484 -665 484 -619V-400Q484 -355 462 -336Q441 -312 388 -312H313L310 -303L292 -254H376V-241Q351 -239 353 -213V-33Q352 31 414 43Q494 58 642 52Q799 43 868 19Q931 -1 936 -37H949V19Q893 57 772 71Q698 81 603 84Q505 87 426 82Z"/>
</svg>