<svg xmlns="http://www.w3.org/2000/svg" viewBox="0 -800 1024 1024">
	<path fill="#000000" d="M660 -632H748V-618Q726 -617 728 -601L747 -473Q750 -457 769 -457V-444H681V-457Q703 -459 702 -473L683 -601Q680 -619 660 -618ZM770 -137Q788 -139 791 -156H803V-85H791Q786 -104 770 -104H487Q471 -103 466 -85H454V-156H466Q471 -137 487 -137ZM182 -494V-245H330Q368 -246 369 -282V-456Q368 -493 330 -494ZM604 -297H844Q889 -297 909 -279Q929 -259 929 -224V-25Q929 32 890 58Q858 82 797 84Q750 87 692 78Q638 70 608 52V-3H621Q627 32 678 46Q726 57 777 52Q846 44 846 -12V-228Q847 -267 805 -266H499V-279Q521 -282 523 -305V-669Q522 -691 499 -695V-708H629L642 -743Q650 -766 622 -768V-781H757V-768Q735 -765 729 -743L716 -708H815Q865 -708 885 -692Q904 -676 904 -637V-448Q904 -398 875 -372Q847 -347 794 -347Q741 -351 701 -382V-423H715Q729 -381 782 -381Q824 -385 826 -436V-647Q827 -678 792 -677H604ZM201 -781H341V-767Q312 -763 313 -736V-675H428Q445 -677 448 -694H461V-623H448Q442 -642 428 -642H313V-527H353Q407 -527 427 -507Q449 -487 449 -441V-295Q449 -252 427 -233Q406 -212 354 -212H182V16Q182 50 159 70Q136 89 103 81Q74 74 58 51V7H71Q76 44 90 48Q101 48 101 22V-491Q101 -509 78 -514V-527H228V-736Q229 -766 201 -767Z"/>
</svg>