<svg xmlns="http://www.w3.org/2000/svg" viewBox="0 -800 1024 1024">
	<path fill="#000000" d="M58 -585H71Q77 -558 92 -549Q114 -541 123 -562L171 -748Q175 -766 151 -768V-781H287V-767Q262 -766 258 -748L238 -670H381Q399 -672 402 -689H414V-618H402Q397 -637 381 -637H230L211 -562Q202 -527 168 -514Q139 -502 107 -509Q78 -514 58 -536ZM566 -453H783Q821 -455 823 -494V-685Q822 -723 784 -724H566ZM271 13Q274 54 325 38Q383 11 387 -34H399V19Q359 64 307 79Q256 91 225 78Q184 58 184 4V-225H93Q77 -224 72 -206H60V-276H72Q77 -257 93 -257H184V-430H110Q94 -429 89 -411H77V-482H89Q94 -463 110 -463H358Q376 -465 379 -482H391V-411H379Q374 -430 358 -430H271V-257H365Q382 -259 385 -276H398V-206H385Q379 -225 365 -225H271ZM546 43H803Q841 42 843 3V-259Q842 -297 804 -298H546ZM816 -757Q872 -757 895 -733Q913 -713 912 -674V-508Q912 -464 892 -445Q870 -419 817 -420H452V-433Q477 -436 478 -460V-719Q477 -739 452 -744V-757ZM836 -331Q892 -331 915 -308Q933 -287 932 -249V-11Q932 31 912 51Q889 76 837 76H432V63Q457 59 458 36V-293Q457 -314 432 -318V-331Z"/>
</svg>