<svg xmlns="http://www.w3.org/2000/svg" viewBox="0 -800 1024 1024">
	<path fill="#000000" d="M61 -172H74Q78 -149 94 -153L257 -184Q276 -188 278 -203H290V-133H278Q272 -154 257 -152L94 -120Q76 -116 74 -101H61ZM622 41Q603 64 574 77Q543 88 510 80Q484 76 458 58V8H471Q477 38 499 44Q521 49 542 24L816 -321Q825 -335 799 -342V-355H946V-342Q927 -340 911 -321L769 -143H853V-130Q829 -126 838 -107L902 32Q907 43 913 43Q919 42 927 31Q933 20 935 6H949V57Q935 74 917 80Q891 89 865 80Q837 69 827 42L758 -107L750 -119ZM491 -414Q472 -447 505 -491L617 -634H487Q472 -632 467 -615H454V-686H467Q472 -667 487 -667H657V-743Q657 -765 629 -768V-781H765V-768Q739 -764 739 -743V-667H910Q927 -669 930 -686H943V-615H930Q924 -634 910 -634H714L575 -461Q563 -447 566 -438Q569 -430 585 -430Q641 -431 696 -439L762 -520Q771 -534 747 -541V-554H892V-541Q873 -538 858 -520L604 -206Q586 -186 561 -177Q532 -167 504 -173Q480 -178 458 -193V-250H472Q477 -219 495 -211Q510 -207 526 -228L665 -401Q619 -391 557 -388Q508 -387 491 -414ZM324 -292Q325 -325 288 -324H60V-338Q81 -339 84 -360L117 -638Q121 -665 92 -667V-680H219V-667Q196 -664 193 -639L160 -356H269L310 -690Q315 -723 279 -723H101Q84 -722 81 -704H68V-775H80Q83 -757 101 -756H315Q361 -756 378 -736Q391 -720 388 -683L345 -355Q373 -354 388 -342Q407 -328 407 -288V-20Q407 42 365 69Q321 93 254 80Q213 74 169 48V-6H182Q189 24 212 36Q242 51 277 47Q323 40 324 0Z"/>
</svg>