<svg xmlns="http://www.w3.org/2000/svg" viewBox="0 -800 1024 1024">
	<path fill="#000000" d="M58 -585H71Q74 -557 90 -549Q107 -542 113 -562L161 -748Q164 -765 140 -768V-781H276V-767Q252 -766 248 -748L228 -670H349Q367 -672 370 -689H382V-618H370Q365 -637 349 -637H220L202 -564Q193 -534 169 -520Q137 -502 99 -512Q73 -519 58 -536ZM267 9Q269 52 320 37Q376 14 389 -28H401V24Q362 59 313 75Q259 93 219 73Q180 54 179 1V-225H96Q80 -224 75 -206H63V-276H75Q80 -257 96 -257H179V-430H108Q92 -429 87 -411H74V-482H87Q92 -463 108 -463H338Q356 -465 359 -482H371V-411H359Q354 -430 338 -430H267V-257H356Q374 -259 377 -276H389V-206H377Q372 -225 356 -225H267ZM779 43Q817 41 819 3V-194Q818 -231 779 -232H548V43ZM636 -736Q637 -768 609 -768V-781H751V-768Q725 -765 725 -736V-632H875Q893 -634 896 -651H909V-581H896Q892 -599 875 -600H725V-386H915Q933 -388 936 -405H949V-334H936Q932 -352 915 -353H442Q427 -351 422 -334H409V-405H422Q427 -385 442 -386H636V-600H538L530 -503Q528 -475 504 -457Q478 -442 442 -449Q411 -456 393 -476V-524H406Q408 -502 428 -489Q452 -477 457 -503L475 -712Q476 -730 454 -732V-745H571V-732Q548 -728 547 -712L540 -632H636ZM814 -265Q869 -265 889 -242Q907 -223 907 -183V-11Q907 29 888 51Q865 76 811 76H432V63Q458 58 460 36V-227Q458 -247 432 -252V-265Z"/>
</svg>