<svg xmlns="http://www.w3.org/2000/svg" viewBox="0 -800 1024 1024">
	<path fill="#000000" d="M464 -618H589V-605Q568 -601 577 -589L615 -534Q626 -518 642 -518V-505H515V-518Q538 -521 530 -534L491 -589Q481 -602 464 -605ZM613 -41H700Q726 -41 726 -66V-180Q728 -204 700 -202H613ZM915 -680Q933 -682 936 -699H949V-628H936Q932 -646 915 -647H422Q406 -646 401 -628H389V-699H401Q406 -680 422 -680H626V-744Q627 -766 599 -768V-781H738V-768Q711 -765 711 -744V-680ZM58 -585H71Q74 -557 90 -549Q107 -542 113 -562L161 -748Q164 -765 140 -768V-781H274V-767Q251 -766 246 -748L226 -670H322Q340 -672 342 -689H355V-618H342Q338 -636 322 -637H218L200 -564Q192 -535 167 -520Q137 -502 99 -512Q73 -519 58 -536ZM63 -276H75Q80 -257 96 -257H171V-430H108Q92 -429 87 -411H74V-482H87Q92 -463 108 -463H318Q335 -465 338 -482H351V-411H338Q332 -430 318 -430H253V-257H328Q345 -259 348 -276H361V-206H348Q342 -225 328 -225H253V9Q257 54 306 36Q346 16 357 -27H370V25Q336 59 291 75Q236 98 199 69Q171 48 171 1V-225H96Q80 -224 75 -206H63ZM608 -413H729V-400Q705 -399 706 -375V-342H785Q803 -344 806 -361H819V-290H806Q802 -308 785 -309H706V-235H713Q750 -236 764 -225Q782 -214 782 -182V-67Q782 -39 764 -24Q745 -8 713 -8H534V-21Q555 -23 555 -44V-200Q555 -218 534 -222V-235H631V-309H552Q536 -308 531 -290H518V-361H531Q536 -342 552 -342H631V-375Q632 -399 608 -400ZM491 33Q489 59 517 63V76H389V63Q413 60 412 33V-440Q412 -460 389 -464V-476H702L766 -587Q774 -601 751 -605V-618H880V-605Q861 -602 852 -587L788 -476H832Q887 -476 908 -453Q926 -432 925 -394V-17Q925 44 877 68Q846 85 790 85Q733 84 698 58V8H711Q717 38 754 49Q789 60 820 45Q846 29 846 -3V-405Q845 -443 807 -444H491Z"/>
</svg>