<svg xmlns="http://www.w3.org/2000/svg" viewBox="0 -800 1024 1024">
	<path fill="#000000" d="M638 -44Q660 -46 667 -58L746 -189Q754 -204 733 -207V-220H871V-207Q845 -201 839 -189L760 -58Q757 -47 776 -44V-31H638ZM134 -220H274V-207Q252 -204 260 -189L339 -58Q345 -44 368 -44V-31H229V-44Q249 -45 245 -58L166 -189Q160 -201 134 -207ZM688 -757Q747 -759 765 -743Q781 -733 793 -703L900 -459Q912 -432 949 -428V-415H797V-428Q823 -429 814 -450L707 -698Q699 -727 661 -724H312L193 -452Q185 -431 209 -428V-415H58V-428Q95 -433 106 -460L220 -719Q224 -740 199 -744V-757ZM910 32Q928 30 931 14H944V84H931Q926 65 910 65H97Q81 66 76 84H63V12H76Q81 32 97 32H458V-285H134Q117 -283 114 -267H101V-338H114Q117 -319 134 -319H458V-506H298Q283 -504 278 -487H265V-557H278Q282 -537 298 -538H711Q728 -540 731 -557H744V-487H731Q725 -506 711 -506H548V-319H872Q890 -321 892 -338H905V-267H892Q889 -285 872 -285H548V32Z"/>
</svg>