<svg xmlns="http://www.w3.org/2000/svg" viewBox="0 -800 1024 1024">
	<path fill="#000000" d="M408 -132H553V-119Q525 -118 525 -88V1Q525 34 554 43Q589 53 624 32Q658 9 664 -24H677V30Q634 73 566 82Q504 90 468 64Q436 40 436 -8V-88Q437 -117 408 -119ZM899 -672Q917 -674 920 -691H932V-620H920Q915 -639 899 -639H431Q415 -638 410 -620H397V-691H410Q415 -672 431 -672H620V-737Q621 -766 592 -768V-781H738V-768Q710 -764 710 -737V-672ZM58 -585H71Q74 -557 90 -549Q107 -542 113 -562L161 -748Q164 -765 140 -768V-781H275V-767Q251 -766 247 -748L227 -670H339Q357 -672 359 -689H372V-618H359Q355 -636 339 -637H219L201 -564Q192 -534 168 -520Q137 -502 99 -512Q73 -519 58 -536ZM764 -354Q802 -356 804 -395V-486Q803 -524 764 -525H526V-354ZM261 11Q264 55 314 36Q358 16 370 -27H383V25Q343 63 296 78Q240 95 204 69Q175 48 175 1V-260H96Q80 -259 75 -241H63V-311H75Q80 -292 96 -292H175V-430H108Q92 -429 87 -411H74V-482H87Q92 -463 108 -463H330Q348 -465 350 -482H363V-411H350Q346 -429 330 -430H261V-292H357Q375 -294 377 -311H390V-241H377Q373 -259 357 -260H261ZM355 -227H368Q375 -193 415 -186Q463 -185 485 -212L564 -321H410V-334Q436 -339 438 -361V-520Q436 -540 410 -545V-558H800Q852 -558 873 -538Q893 -520 893 -481V-404Q893 -360 870 -342Q848 -321 797 -321H667L621 -257H723V-244Q700 -240 705 -226L748 -135H779Q805 -133 814 -154L850 -233Q854 -251 832 -255V-268H949V-255Q933 -251 923 -233L887 -154Q875 -124 857 -113Q838 -100 795 -101H765L819 12Q842 55 887 42Q928 25 936 -22H948V32Q931 56 895 71Q850 91 805 80Q756 68 736 26L616 -226Q613 -231 606 -236L585 -208Q558 -171 532 -161Q481 -141 419 -153Q375 -160 355 -177Z"/>
</svg>