<svg xmlns="http://www.w3.org/2000/svg" viewBox="0 -800 1024 1024">
	<path fill="#000000" d="M314 -666H370V-653Q359 -649 358 -638V-522Q358 -506 370 -504V-492H314V-504Q327 -506 327 -522V-638Q326 -649 314 -653ZM173 -666H230V-653Q218 -649 217 -638V-522Q217 -508 230 -504V-492H173V-504Q186 -506 186 -522V-638Q185 -651 173 -653ZM171 76V63Q185 60 185 45V-87Q185 -100 171 -103V-116H251V-103Q237 -100 236 -87V45Q236 60 251 63V76ZM281 -116H362V-103Q348 -100 347 -87V45Q346 61 361 63V76H281V63Q295 60 295 45V-87Q295 -100 281 -103ZM60 -116H141V-103Q127 -99 127 -87V45Q127 61 140 63V76H60V63Q75 59 75 45V-87Q75 -100 60 -103ZM392 -116H472V-103Q459 -101 458 -87V45Q457 61 472 63V76H392V63Q405 60 405 45V-87Q405 -100 392 -103ZM479 -466H492Q496 -440 513 -431Q539 -421 553 -442L588 -505Q594 -519 572 -522V-534H692V-521Q677 -519 669 -505L629 -435Q618 -412 587 -400Q560 -390 528 -396Q499 -401 479 -419ZM734 -534H853V-522Q831 -518 838 -505L880 -427Q897 -401 921 -417Q932 -427 936 -451H948V-404Q935 -388 912 -382Q882 -373 852 -382Q818 -391 804 -419L757 -505Q749 -517 734 -521ZM350 -724H295V-432H350Q388 -433 389 -474V-685Q388 -723 350 -724ZM155 -432H249V-724H155ZM554 -569Q509 -568 497 -590Q482 -618 507 -649L597 -746Q611 -762 580 -768V-781H725V-768Q708 -765 690 -746L581 -628Q575 -621 577 -615Q579 -610 588 -610Q682 -611 800 -635L765 -702Q756 -718 738 -719V-732H864V-719Q839 -714 845 -702L904 -592Q912 -578 931 -575V-562H805V-575Q830 -579 824 -592L815 -609Q675 -573 554 -569ZM819 -259Q837 -290 804 -295H648L635 -275Q622 -251 594 -242Q570 -233 533 -240Q501 -249 488 -266V-307H500Q505 -283 523 -274Q544 -264 560 -288L601 -350Q608 -363 586 -366V-379H707V-366Q689 -362 683 -350L669 -328H839Q887 -326 901 -291Q911 -261 886 -230L751 -73L857 30Q880 50 907 44Q931 37 936 2H949V54Q921 82 873 84Q820 82 791 54L709 -25L647 48Q615 83 561 84Q514 82 488 56V2H501Q506 31 524 42Q551 51 569 32L659 -73L544 -185L543 -186Q530 -198 515 -200V-214H653V-201Q628 -195 638 -183L701 -121ZM430 -205Q448 -208 450 -223H463V-156H450Q447 -173 430 -172L93 -156Q76 -154 72 -139H60V-205H72Q78 -188 93 -189L233 -195V-284H117Q101 -283 96 -265H83V-336H96Q101 -317 117 -317H233V-400H69V-412Q91 -417 92 -437V-720Q91 -739 69 -744V-757H360Q415 -757 434 -733Q452 -715 452 -674V-487Q452 -445 432 -424Q413 -399 357 -400H311V-317H415Q432 -319 435 -336H448V-265H435Q432 -283 415 -284H311V-199Z"/>
</svg>