<svg xmlns="http://www.w3.org/2000/svg" viewBox="0 -800 1024 1024">
	<path fill="#000000" d="M711 -579H844V-566Q819 -562 828 -544L885 -426Q898 -404 922 -419Q935 -432 936 -450H949V-401Q933 -387 907 -379Q876 -370 849 -377Q814 -387 801 -419L740 -544Q731 -564 711 -566ZM402 -450H414Q416 -430 428 -420Q452 -403 465 -426L522 -544Q531 -562 506 -566V-579H639V-566Q619 -562 610 -544L550 -419Q537 -390 504 -378Q479 -369 446 -379Q418 -387 402 -401ZM901 -664Q918 -666 921 -683H934V-613H921Q915 -632 901 -632H450Q434 -631 429 -613H416V-683H429Q434 -664 450 -664H632V-738Q632 -766 603 -768V-781H749V-768Q721 -764 721 -738V-664ZM58 -553H71Q74 -527 82 -521Q100 -508 105 -531L132 -745Q136 -762 108 -768V-781H229V-768Q204 -761 203 -745L196 -692H305Q341 -692 359 -675Q374 -660 374 -629V-535Q373 -506 399 -504V-491H275V-504Q302 -507 301 -535V-631Q302 -660 270 -659H191L176 -540Q172 -505 149 -489Q128 -475 96 -482Q72 -489 58 -502ZM258 -12Q263 54 318 29Q346 13 354 -27H367V30Q351 56 314 74Q248 99 206 64Q172 38 172 -20V-403Q173 -430 146 -434V-447H285V-434Q258 -433 258 -403ZM487 -310Q472 -325 452 -329V-342H601V-329Q576 -324 585 -309L674 -200L764 -309Q773 -324 748 -329V-342H897V-329Q877 -325 862 -310L722 -142L857 22Q881 48 908 39Q928 31 936 1H949V55Q933 69 900 79Q864 87 832 78Q801 69 778 43L674 -83L569 43Q546 70 513 79Q487 88 448 79Q415 69 398 55V5H411Q419 34 440 41Q467 49 491 22L626 -141Z"/>
</svg>