<svg xmlns="http://www.w3.org/2000/svg" viewBox="0 -800 1024 1024">
	<path fill="#000000" d="M743 -384Q780 -386 783 -425V-465H547V-384ZM743 -577H547V-495H783V-538Q782 -576 743 -577ZM224 -465V-384H460V-465ZM224 -577V-495H460V-577ZM915 -295Q933 -297 936 -314H949V-246H936Q931 -265 915 -265H92Q76 -264 71 -246H58V-315H71Q75 -295 92 -295ZM718 45Q755 43 757 3V-50H250V45ZM250 -177V-80H757V-138Q756 -176 718 -177ZM752 -207Q807 -207 828 -187Q847 -168 847 -131V-5Q847 36 825 54Q801 76 753 76H134V63Q159 59 160 37V-170Q159 -190 134 -194V-207ZM170 -635Q132 -634 102 -647Q81 -656 68 -672V-721H81Q86 -693 113 -680Q140 -668 163 -685L252 -749Q264 -758 237 -763V-776H404V-763Q388 -761 369 -747L345 -730H628Q663 -729 671 -705Q675 -682 655 -662L593 -607H772Q830 -607 853 -583Q872 -564 871 -526V-444Q871 -399 850 -378Q826 -353 774 -353H110V-366Q135 -370 136 -393V-570Q135 -590 110 -594V-607H489L570 -682Q576 -688 574 -693Q572 -698 564 -698H301L246 -658Q219 -637 170 -635Z"/>
</svg>