<svg xmlns="http://www.w3.org/2000/svg" viewBox="0 -800 1024 1024">
	<path fill="#000000" d="M61 -172H74Q78 -149 94 -153L258 -184Q277 -188 279 -203H292V-133H279Q273 -154 258 -152L94 -120Q76 -116 74 -101H61ZM718 -633Q737 -635 741 -652L770 -748Q774 -764 753 -768V-781H880V-768Q861 -767 857 -748L828 -652Q823 -635 846 -633V-621H718ZM577 -551V-379H727V-551ZM577 33H727V-140H577ZM577 -347V-172H727V-347ZM325 -292Q326 -325 289 -324H60V-338Q81 -339 84 -360L117 -638Q121 -665 92 -667V-680H218V-667Q195 -664 193 -639L159 -356H270L313 -690Q318 -723 282 -723H101Q84 -722 81 -704H68V-775H80Q83 -757 101 -756H315Q360 -756 377 -736Q391 -720 387 -683L345 -355Q374 -354 390 -342Q409 -326 409 -288V-20Q409 42 367 69Q322 93 255 80Q216 74 172 48V-6H184Q191 23 215 36Q243 51 278 47Q324 40 325 0ZM424 -589H437Q438 -564 459 -555Q477 -547 485 -569L541 -749Q546 -765 523 -768V-781H653V-768Q631 -765 628 -749L577 -584H912Q930 -585 933 -603H946V-532H933Q929 -550 912 -551H811V-379H893Q910 -381 913 -398H926V-328H913Q909 -346 893 -347H811V-172H893Q910 -174 913 -191H926V-121H913Q909 -139 893 -140H811V33H915Q933 31 936 15H949V84H936Q932 66 915 65H468V53Q491 49 492 26V-516Q483 -516 474 -518Q446 -524 424 -542Z"/>
</svg>