<svg xmlns="http://www.w3.org/2000/svg" viewBox="0 -800 1024 1024">
	<path fill="#000000" d="M644 -632H731V-618Q708 -616 712 -601L746 -473Q749 -457 768 -457V-444H679V-457Q703 -459 700 -473L667 -601Q662 -619 644 -618ZM769 -137Q786 -139 789 -156H802V-85H789Q783 -104 769 -104H499Q483 -103 478 -85H465V-156H478Q483 -137 499 -137ZM151 -288Q152 -306 131 -309V-322H247V-309Q221 -304 221 -288L194 -37Q190 -1 172 16Q151 35 114 32Q83 31 59 5V-51H71Q75 -13 96 -6Q119 0 124 -30ZM59 -391V-404Q80 -405 84 -421L121 -625Q125 -642 101 -645V-658H221V-645Q197 -641 194 -625L156 -424H317V-724H96Q80 -723 75 -705H63V-776H75Q78 -757 96 -757H423Q441 -759 444 -776H457V-705H444Q440 -723 423 -724H398V-424H433Q452 -426 453 -443H466V-372H453Q450 -390 433 -391H398V-14Q398 41 364 65Q334 87 288 84Q238 80 208 50V-6H221Q232 48 275 49Q315 46 317 -3V-391ZM594 -297H835Q875 -297 902 -278Q929 -254 929 -217V-25Q929 35 885 61Q852 82 796 84Q743 87 687 77Q636 69 606 52V-3H619Q624 32 676 46Q725 57 775 52Q844 43 845 -15V-221Q842 -263 797 -266H490V-279Q511 -282 513 -305V-669Q512 -691 490 -695V-708H628L641 -743Q650 -766 621 -768V-781H756V-768Q732 -765 727 -743L714 -708H815Q862 -708 881 -691Q904 -673 904 -630V-448Q904 -398 875 -372Q847 -347 793 -347Q740 -351 700 -382V-423H713Q729 -381 780 -381Q823 -385 824 -436V-640Q823 -676 790 -677H594Z"/>
</svg>