<svg xmlns="http://www.w3.org/2000/svg" viewBox="0 -800 1024 1024">
	<path fill="#000000" d="M671 -725V-432H812Q849 -434 851 -472V-688Q850 -724 812 -725ZM851 -354Q852 -386 831 -400H671V-84H812Q849 -86 851 -122ZM251 -740Q252 -763 225 -768V-781H366V-768Q338 -766 339 -740V-643H481Q498 -645 501 -662H514V-592H501Q497 -610 481 -611H339V-423H461Q480 -425 481 -442H494V-371H481Q478 -389 461 -390H339V-201H491Q509 -202 512 -220H524V-149H512Q508 -167 491 -168H339V-28Q338 54 262 74Q222 88 169 79Q97 66 58 25V-31H71Q81 10 128 31Q175 53 214 36Q251 23 251 -19V-168H98Q82 -166 78 -149H65V-220H78Q82 -201 98 -201H251V-390H124Q109 -388 104 -371H91V-442H104Q109 -422 124 -423H251V-611H109Q93 -610 88 -592H76V-662H88Q93 -643 109 -643H251ZM671 32Q669 58 697 63V76H559V63Q584 60 583 32V-716Q583 -739 559 -744V-757H839Q892 -757 915 -732Q933 -710 932 -673V-488Q932 -442 910 -423Q904 -415 895 -411Q909 -405 916 -397Q932 -380 932 -340V-138Q932 -95 908 -72Q886 -53 837 -53H671Z"/>
</svg>