<svg xmlns="http://www.w3.org/2000/svg" viewBox="0 -800 1024 1024">
	<path fill="#000000" d="M367 -389H586Q637 -393 640 -441V-479H367ZM367 -724V-634H640V-671Q640 -724 586 -724ZM367 -602V-512H640V-602ZM838 -169Q887 -169 906 -148Q923 -131 923 -95V30Q923 56 949 61V75H813V61Q840 56 839 30V-98Q838 -135 801 -136H647V30Q648 55 675 61V75H537V61Q563 56 563 30V-263Q562 -286 537 -291V-304H799Q835 -306 837 -345V-681Q838 -712 809 -713V-726H949V-713Q921 -709 921 -681V-351Q921 -311 901 -292Q880 -271 832 -271H647V-169ZM58 3H71Q80 40 103 44Q127 44 133 21L160 -138H92Q76 -137 71 -119H58V-190H71Q76 -171 92 -171H357V-233Q356 -270 319 -271H60V-284Q85 -289 86 -312V-681Q87 -712 58 -713V-726H198V-713Q170 -709 170 -681V-304H356Q405 -304 424 -283Q441 -266 441 -230V30Q441 56 467 61V75H329V61Q356 56 357 30V-138H239L211 28Q205 61 172 76Q142 88 107 79Q76 71 58 49ZM614 -757Q684 -758 705 -731Q728 -705 728 -656V-451Q728 -405 698 -380Q672 -356 616 -356H255V-369Q281 -374 282 -396V-718Q282 -739 255 -744V-757Z"/>
</svg>