<svg xmlns="http://www.w3.org/2000/svg" viewBox="0 -800 1024 1024">
	<path fill="#000000" d="M280 -506H256V-349H319V-466Q318 -505 280 -506ZM145 -506V-349H209V-506ZM280 -147Q318 -148 319 -188V-316H256V-147ZM145 -147H209V-316H145ZM345 -60Q364 -67 366 -82H378V-13H366Q361 -31 345 -27L92 53Q75 60 72 76H58V5H72Q76 25 92 20ZM506 -724V-549H595V-724ZM506 -516V-339H595V-516ZM506 -306V-111L595 -127V-306ZM905 32Q909 44 915 46Q921 48 928 38Q934 27 936 7H949V48Q937 80 915 83Q890 87 869 69Q855 56 847 37L818 -43L788 37Q780 56 765 69Q745 87 722 83Q697 81 686 52V7H698Q700 28 707 38Q712 47 719 45Q724 44 729 32L788 -126L741 -257Q722 -309 722 -338V-578Q721 -595 701 -599V-611H803V-599Q782 -596 782 -578V-335Q782 -305 792 -280L818 -207L846 -281Q857 -309 857 -336V-655Q857 -681 832 -681H742Q727 -680 722 -662H709V-732H722Q726 -713 742 -713H844Q883 -713 898 -700Q917 -684 917 -650V-338Q917 -309 898 -257L848 -124ZM83 -500Q83 -521 59 -525V-538H236L269 -655Q274 -672 258 -673H188L174 -606Q163 -563 111 -566Q81 -569 58 -590V-640H72Q75 -617 85 -605Q103 -594 108 -613L137 -751Q140 -765 116 -768V-781H230V-768Q208 -766 204 -751L195 -706H286Q321 -706 332 -686Q340 -674 332 -644L302 -538Q346 -535 365 -516Q382 -496 382 -459V-198Q382 -156 360 -136Q341 -113 287 -114H59V-127Q82 -131 83 -154ZM659 40Q657 59 677 63V76H575V63Q596 61 595 40V-91L438 -64Q422 -59 417 -42H404V-114H417Q419 -97 438 -100H442V-724H434Q418 -723 415 -705H402V-774H415Q418 -757 434 -757H666Q685 -758 687 -774H699V-705H687Q683 -723 666 -724H659V-138L689 -143Q707 -148 710 -165H723V-92H710Q705 -110 689 -107L659 -102Z"/>
</svg>