<svg xmlns="http://www.w3.org/2000/svg" viewBox="0 -800 1024 1024">
	<path fill="#000000" d="M450 -693H529V-680Q516 -678 520 -666L533 -629Q537 -615 556 -613V-600H474V-613Q490 -615 485 -629L472 -665Q467 -679 450 -680ZM712 -693H791V-680Q778 -678 782 -666L795 -629Q799 -615 817 -613V-600H735V-613Q752 -615 747 -629L734 -665Q729 -679 712 -680ZM220 -725V-584H264V-725ZM702 -507H714Q714 -488 723 -475Q732 -467 739 -491L751 -546Q755 -559 735 -561V-574H819V-561Q804 -560 800 -546L786 -486Q780 -458 761 -449Q745 -439 726 -448Q711 -455 702 -466ZM440 -507H451Q451 -486 459 -475Q469 -468 477 -491L489 -546Q493 -559 473 -561V-574H558V-561Q542 -560 538 -546L524 -486Q518 -458 502 -449Q484 -439 462 -448Q450 -454 440 -466ZM309 -553H301V-258Q302 -224 329 -230Q337 -232 346 -238V-515Q346 -553 309 -553ZM138 -553V-237Q146 -232 155 -230Q183 -225 183 -258V-553ZM572 -136Q541 -130 511 -138Q481 -145 463 -158V-204H475Q489 -169 523 -166Q555 -165 577 -189L650 -274Q662 -286 639 -294V-307H764V-294Q746 -289 732 -274L634 -166Q613 -144 572 -136ZM630 -23Q603 -18 546 -25Q491 -30 451 -49V-96H462Q467 -65 523 -56Q564 -50 604 -55Q643 -60 663 -85L740 -173Q749 -187 727 -195V-208H852V-194Q834 -189 821 -174L726 -67Q695 -32 630 -23ZM796 40Q762 78 677 84Q608 91 547 83Q486 76 453 60V13H466Q469 39 517 50Q567 61 639 54Q709 47 734 20L821 -76Q832 -90 808 -98V-110H942V-98Q921 -92 906 -76ZM138 44H306Q345 43 346 5V-77H138ZM590 -692Q590 -724 558 -724H473Q457 -723 453 -705H442V-775H454Q457 -757 473 -757H576Q626 -758 643 -741Q663 -723 663 -684V-475Q661 -446 684 -443L683 -430H568V-443Q591 -446 590 -475ZM853 -692Q853 -724 821 -724H734Q717 -723 714 -705H702V-775H715Q718 -756 734 -757H840Q889 -758 906 -741Q926 -723 926 -684V-475Q925 -447 947 -443V-430H832V-443Q855 -445 853 -475ZM779 -406Q804 -406 817 -400Q836 -393 846 -377L924 -265Q925 -264 927 -261Q932 -250 948 -249V-236H824V-249Q854 -252 844 -266L783 -357Q771 -375 745 -374H618L544 -265Q536 -253 566 -249V-236H440V-249Q457 -252 464 -265L535 -368Q545 -388 517 -393V-406ZM220 -266Q220 -229 202 -214Q181 -198 151 -209Q144 -211 138 -214V-109H346V-214Q345 -213 342 -212Q339 -211 333 -209Q302 -198 281 -214Q264 -228 264 -266V-553H220ZM81 -550Q81 -568 58 -571V-584H156V-725H93Q77 -724 72 -706H59V-775H72Q76 -757 93 -757H382Q399 -759 402 -776H415V-706H402Q397 -724 382 -725H328V-584Q368 -582 386 -563Q404 -544 403 -507V-8Q403 35 385 53Q366 77 314 76H58V63Q81 59 81 39Z"/>
</svg>