<svg xmlns="http://www.w3.org/2000/svg" viewBox="0 -800 1024 1024">
	<path fill="#000000" d="M58 -585H71Q77 -558 92 -549Q114 -541 123 -562L171 -748Q175 -766 151 -768V-781H286V-767Q262 -766 258 -748L238 -670H359Q377 -672 380 -689H392V-618H380Q375 -637 359 -637H229L210 -562Q202 -527 167 -514Q139 -501 103 -509Q74 -518 58 -536ZM697 -161H798Q838 -161 838 -201V-494Q836 -529 800 -531H697ZM275 13Q277 54 328 38Q392 9 396 -34H408V19Q367 62 310 79Q259 91 228 78Q187 58 187 4V-225H93Q77 -224 72 -206H60V-276H72Q77 -257 93 -257H187V-430H110Q94 -429 89 -411H77V-482H89Q94 -463 110 -463H353Q370 -465 373 -482H386V-411H373Q367 -430 353 -430H275V-257H364Q382 -259 385 -276H397V-206H385Q380 -225 364 -225H275ZM535 33H915Q932 31 936 14H949V84H936Q933 66 915 65H425V52Q449 47 450 28V-719Q449 -738 425 -744V-757H914Q932 -758 934 -775H947V-705H934Q928 -724 914 -724H535ZM623 -526Q623 -547 600 -551V-564H815Q865 -564 887 -543Q912 -520 912 -477V-213Q912 -172 891 -151Q871 -128 815 -128H600V-141Q623 -144 623 -168Z"/>
</svg>