<svg xmlns="http://www.w3.org/2000/svg" viewBox="0 -800 1024 1024">
	<path fill="#000000" d="M750 -361H807V-348Q796 -348 796 -332L799 -231Q798 -214 813 -213V-200H755V-213Q765 -215 766 -231L763 -332Q765 -348 750 -348ZM676 -213Q691 -214 690 -231L693 -332Q693 -348 682 -348V-361H739V-348Q725 -348 726 -332L723 -231Q724 -215 734 -213V-200H676ZM540 -361H598V-348Q586 -348 586 -332L590 -231Q589 -213 603 -213V-200H545V-213Q556 -215 557 -231L553 -332Q554 -348 540 -348ZM886 -213Q900 -213 899 -231L903 -332Q903 -348 891 -348V-361H949V-348Q935 -348 936 -332L932 -231Q933 -215 944 -213V-200H886ZM813 -620Q834 -623 835 -640L851 -718Q853 -735 832 -737V-750H936V-737Q916 -734 913 -720L897 -640Q894 -624 917 -621V-607H813ZM552 -750H658V-737Q639 -731 639 -718L653 -640Q655 -625 677 -620V-607H568V-621Q590 -624 588 -640L575 -720Q572 -733 552 -737ZM832 -40Q825 -13 808 -4Q790 4 771 -8Q759 -16 749 -32V-84H761Q763 -62 768 -52Q771 -43 773 -44Q775 -45 778 -56L816 -185Q821 -203 821 -224V-358Q821 -387 793 -388V-401H905V-388Q878 -384 878 -358V-231Q878 -199 871 -174L870 -170H910V-157Q891 -156 898 -138L921 -55Q924 -46 928 -46Q933 -47 935 -57Q937 -77 937 -84H949V-32Q938 -14 926 -6Q910 3 894 -8Q878 -21 871 -44L852 -110ZM622 -40Q615 -12 599 -4Q579 4 559 -8Q550 -13 539 -32V-84H551Q553 -62 558 -52Q561 -43 563 -44Q566 -45 569 -56L606 -186Q611 -200 611 -224V-358Q611 -387 584 -388V-401H696V-388Q668 -383 668 -358V-231Q668 -196 662 -174L661 -170H700V-157Q681 -156 688 -138L712 -55Q715 -46 718 -46Q722 -47 724 -57Q727 -71 727 -84H738V-32Q731 -15 719 -9Q701 4 684 -8Q668 -21 661 -44L642 -109ZM699 -469Q686 -444 654 -434Q618 -422 580 -437Q557 -445 545 -460V-510H557Q561 -485 581 -472Q608 -455 627 -488L694 -610Q708 -634 707 -664V-736Q708 -767 679 -768V-781H812V-768Q783 -764 784 -736V-669Q783 -627 770 -600L761 -583H847V-570Q826 -567 835 -548L869 -482Q885 -455 914 -473Q932 -489 936 -510H949V-460Q934 -444 907 -435Q873 -423 839 -432Q810 -442 796 -470L755 -553Q754 -554 753 -555Q752 -556 748 -560ZM207 -608Q202 -623 188 -626V-639H267V-626Q250 -622 254 -607L304 -429L355 -607Q359 -622 342 -626V-639H421V-626Q407 -623 402 -608L327 -347L407 -68Q415 -42 433 -59L437 -64V-682Q437 -723 401 -723H172V-64Q173 -61 176 -59Q193 -42 202 -68L281 -346ZM247 -64Q239 -31 216 -25Q196 -22 177 -33L172 -36V19Q171 53 149 72Q124 90 89 80Q72 72 58 48V-1H71Q72 20 80 32Q86 42 93 40Q100 37 100 24V-718Q99 -739 75 -743V-756H419Q466 -756 489 -734Q510 -713 509 -670V-68Q508 5 570 33Q616 53 694 55Q782 57 842 46Q923 35 936 -4H949V44Q898 68 809 78Q724 89 636 84Q544 81 496 47Q451 17 440 -38Q437 -35 432 -33Q413 -22 393 -25Q370 -31 361 -64L304 -265Z"/>
</svg>