<svg xmlns="http://www.w3.org/2000/svg" viewBox="0 -800 1024 1024">
	<path fill="#000000" d="M95 -781H240V-768Q217 -763 228 -751L302 -677Q314 -663 333 -659V-647H185V-659Q210 -665 199 -678L126 -751Q113 -763 95 -768ZM173 35Q172 59 196 63V76H62V63Q85 61 84 35V-571Q85 -596 61 -598V-611H196V-598Q172 -594 173 -571ZM841 -676Q841 -722 792 -722H407Q388 -721 384 -703H372V-774H384Q387 -756 407 -755H832Q879 -755 903 -733Q929 -707 929 -665V-60Q929 25 845 62Q784 86 692 80Q604 74 564 40V-13H577Q592 30 668 46Q746 62 795 35Q840 9 841 -47ZM363 -283Q327 -314 328 -376V-419Q329 -450 300 -451V-464H442V-451Q414 -447 414 -419V-371Q412 -333 445 -307L508 -252L570 -307Q601 -333 600 -371V-513H298Q283 -511 278 -494H265V-564H278Q283 -544 298 -545H462V-615Q462 -643 435 -645V-658H580V-645Q552 -641 552 -615V-545H715Q733 -547 736 -564H748V-494H736Q732 -512 715 -513H686V-376Q687 -315 651 -283L563 -205L684 -101Q714 -77 736 -83Q760 -92 766 -134H779V-78Q760 -54 734 -46Q706 -34 665 -43Q633 -50 607 -73L509 -157L414 -74Q390 -52 354 -44Q317 -36 287 -47Q261 -55 241 -79V-134H254Q262 -90 293 -83Q313 -82 336 -101L454 -205Z"/>
</svg>