<svg xmlns="http://www.w3.org/2000/svg" viewBox="0 -800 1024 1024">
	<path fill="#000000" d="M58 -585H72Q75 -557 93 -549Q109 -543 114 -562L162 -748Q166 -765 142 -768V-781H268V-767Q244 -766 239 -748L219 -670H295Q313 -672 316 -689H329V-618H316Q311 -637 295 -637H211L193 -562Q185 -533 165 -520Q135 -500 97 -511Q72 -519 58 -536ZM530 -301Q541 -326 540 -379V-586H450V-379Q449 -326 459 -301L494 -217ZM63 -276H76Q81 -257 97 -257H161V-430H123Q107 -428 103 -411H90V-482H103Q106 -463 123 -463H298Q316 -465 319 -482H332V-411H319Q314 -430 298 -430H241V-257H312Q329 -259 332 -276H345V-206H332Q326 -225 312 -225H241V-3Q241 15 252 19Q263 22 278 9Q314 -27 325 -80H337V-26Q309 32 274 60Q232 92 196 80Q162 66 161 14V-225H97Q81 -224 76 -206H63ZM753 43H822Q859 42 860 3V-685Q860 -724 822 -724H753ZM597 29Q610 53 628 32Q635 18 638 -3H651V53Q636 74 613 81Q588 88 566 78Q543 68 534 46L493 -50L452 46Q441 69 420 78Q397 89 374 81Q351 74 334 53V-3H347Q350 19 357 32Q375 53 388 29L458 -134L396 -282Q388 -302 385 -325Q383 -345 383 -388V-586H375Q360 -584 355 -567H343V-638H355Q360 -619 375 -619H383V-739Q382 -763 356 -768V-781H472V-768Q450 -764 450 -739V-619H540V-739Q540 -764 517 -768V-781H633V-768Q608 -763 607 -739V-619H619Q637 -621 640 -638H652V-567H640Q636 -585 619 -586H607V-388Q607 -345 604 -325Q601 -302 593 -282L529 -133ZM686 -718Q686 -738 661 -744V-757H835Q889 -757 910 -733Q928 -712 927 -674V-11Q927 31 908 51Q886 76 832 76H661V63Q685 59 686 36Z"/>
</svg>