<svg xmlns="http://www.w3.org/2000/svg" viewBox="0 -800 1024 1024">
	<path fill="#000000" d="M423 -179H564V-166Q538 -162 547 -148L613 -43Q625 -27 643 -26V-13H505V-26Q529 -31 521 -43L454 -148Q442 -164 423 -166ZM543 -724V-620H813V-682Q812 -723 770 -724ZM770 -483Q809 -486 813 -527V-588H543V-483ZM58 -585H71Q74 -557 90 -549Q107 -542 113 -562L161 -748Q164 -765 140 -768V-781H276V-767Q252 -766 248 -748L228 -670H358Q376 -672 378 -689H391V-618H378Q374 -636 358 -637H220L202 -564Q193 -534 169 -520Q137 -502 99 -512Q73 -519 58 -536ZM265 9Q266 44 309 37Q387 20 408 -41H421V10Q385 46 333 68Q272 93 229 79Q176 63 176 1V-225H96Q80 -224 75 -206H63V-276H75Q80 -257 96 -257H176V-430H108Q92 -429 87 -411H74V-482H87Q92 -463 108 -463H339Q357 -465 360 -482H372V-411H360Q355 -430 339 -430H265V-257H332Q350 -259 353 -276H365V-206H353Q348 -225 332 -225H265ZM915 -247Q933 -249 936 -266H949V-195H936Q931 -214 915 -214H854V-17Q854 27 826 53Q795 82 735 84Q653 85 609 48V5H622Q629 35 660 46Q698 57 726 49Q764 38 764 -3V-214H424Q409 -212 404 -195H391V-266H404Q408 -246 424 -247H764V-343H441Q425 -342 420 -324H407V-395H420Q425 -376 441 -376H891Q909 -378 912 -395H924V-324H912Q908 -342 891 -343H854V-247ZM806 -757Q860 -757 883 -733Q903 -713 903 -676V-541Q903 -500 878 -475Q856 -450 802 -451H429V-463Q452 -466 453 -488V-720Q453 -739 429 -744V-757Z"/>
</svg>