<svg xmlns="http://www.w3.org/2000/svg" viewBox="0 -800 1024 1024">
	<path fill="#000000" d="M251 -724L193 -516H443L394 -693Q387 -724 350 -724ZM700 -725V-432H815Q852 -434 854 -472V-688Q853 -724 815 -725ZM854 -354Q855 -386 834 -400H700V-84H815Q852 -86 854 -122ZM362 -199H489V-186Q466 -181 470 -166L531 41Q537 61 562 63V76H431V62Q454 58 450 41L443 17Q284 66 168 76Q117 80 96 51Q79 24 101 -26L215 -276H107Q91 -275 86 -257H74V-328H86Q91 -309 107 -309H529Q547 -311 550 -328H562V-257H550Q546 -275 529 -276H306L178 5Q167 37 199 36Q288 27 434 -13L389 -166Q383 -183 362 -186ZM169 -429Q163 -409 190 -405V-392H58V-405Q80 -407 86 -428L166 -718Q171 -741 147 -744V-757H384Q421 -757 446 -743Q467 -729 476 -697L550 -428Q556 -407 578 -405V-392H445V-405Q471 -409 467 -428L452 -483H184ZM700 32Q698 58 727 63V76H593V63Q617 60 616 32V-716Q616 -739 591 -744V-757H839Q892 -757 915 -732Q933 -710 932 -673V-488Q932 -442 910 -423Q904 -415 896 -411Q908 -405 916 -397Q932 -380 932 -340V-138Q932 -95 908 -72Q886 -53 837 -53H700Z"/>
</svg>