<svg xmlns="http://www.w3.org/2000/svg" viewBox="0 -800 1024 1024">
	<path fill="#000000" d="M755 -148H866V-136Q846 -132 850 -119L885 -16Q893 7 910 -2Q930 -8 936 -36H948V8Q930 26 911 32Q878 44 847 29Q825 18 814 -12L778 -118Q774 -134 755 -136ZM353 -36H366Q373 -7 391 -3Q412 4 422 -16L456 -119Q462 -133 440 -136V-148H553V-136Q535 -134 529 -118L492 -12Q482 17 453 31Q420 42 388 32Q367 25 353 8ZM58 -585H71Q74 -557 90 -549Q107 -542 113 -562L161 -748Q164 -765 140 -768V-781H273V-767Q249 -766 245 -748L225 -670H297Q315 -672 318 -689H330V-618H318Q313 -637 297 -637H216L198 -564Q190 -532 168 -520Q137 -502 99 -512Q73 -519 58 -536ZM858 -718Q895 -718 910 -704Q924 -692 924 -669V-656Q923 -637 945 -636V-623H824V-636Q844 -639 843 -656V-668Q845 -687 822 -686H464V-657Q463 -637 484 -636V-623H363V-636Q384 -637 383 -657V-682Q383 -702 361 -705V-718H611V-743Q613 -768 588 -769V-781H720V-768Q695 -766 696 -743V-718ZM524 -4H537Q547 37 579 43Q610 47 612 10V-192H408Q392 -191 387 -173H374V-243H387Q392 -224 408 -224H901Q919 -226 922 -243H934V-173H922Q918 -191 901 -192H696V-4Q696 46 664 67Q634 90 588 81Q545 72 524 46ZM63 -276H75Q80 -257 96 -257H166V-430H108Q92 -429 87 -411H74V-482H87Q92 -463 108 -463H298Q316 -465 318 -482H331V-411H318Q314 -429 298 -430H251V-257H304Q322 -259 324 -276H337V-206H324Q320 -224 304 -225H251V10Q255 45 286 29Q310 12 319 -27H332V25Q313 57 276 75Q234 94 198 74Q166 54 166 1V-225H96Q80 -224 75 -206H63ZM638 -584Q630 -597 615 -601V-614H725V-601Q705 -597 713 -584L793 -435H810Q835 -434 842 -458L867 -531Q871 -545 857 -545H781Q768 -545 766 -531H753V-591H766Q768 -576 781 -577H876Q906 -577 918 -565Q934 -549 921 -515L898 -447Q891 -424 875 -414Q859 -403 829 -403H811L858 -316Q877 -281 906 -295Q929 -309 936 -340H949V-297Q937 -278 913 -267Q879 -254 847 -261Q810 -269 789 -305L783 -315H519L515 -309Q494 -275 461 -263Q426 -251 395 -269Q368 -284 357 -305V-345H370Q378 -308 400 -295Q425 -282 452 -324L464 -344H439Q410 -345 399 -365L384 -395Q381 -403 366 -405V-418H455V-405Q443 -404 444 -395L451 -381Q455 -374 464 -374H482L515 -428H480Q451 -428 440 -448L428 -471Q423 -480 409 -482V-495H502V-482Q488 -480 491 -471L494 -464Q498 -458 508 -458H534L567 -512Q574 -524 572 -531Q569 -538 556 -538H487L481 -531Q462 -510 442 -505Q418 -499 394 -508Q375 -514 361 -531V-570H374Q378 -544 395 -539Q408 -535 420 -549L455 -586Q461 -592 459 -596Q456 -599 446 -601V-614H556V-601Q542 -598 533 -586L518 -570H591Q625 -569 639 -545Q649 -521 630 -491L539 -347H766Z"/>
</svg>