<svg xmlns="http://www.w3.org/2000/svg" viewBox="0 -800 1024 1024">
	<path fill="#000000" d="M185 -279Q187 -295 163 -301V-313H295V-301Q271 -296 269 -279L222 -42Q214 6 190 24Q158 42 106 32Q79 25 57 1V-59H70Q75 -37 92 -19Q107 -4 120 -8Q132 -12 137 -33ZM678 -725V-432H812Q849 -434 851 -472V-688Q850 -724 812 -725ZM851 -354Q852 -386 831 -400H678V-84H812Q849 -86 851 -122ZM59 -385V-398Q75 -399 81 -415L143 -619Q148 -637 122 -639V-652H257V-639Q233 -637 229 -619L167 -418H377V-724H95Q79 -723 74 -705H62V-776H74Q77 -757 95 -757H494Q512 -759 515 -776H528V-705H515Q511 -723 494 -724H464V-418H512Q531 -420 532 -437H545V-366H532Q529 -384 512 -385H464V-17Q464 39 432 64Q396 91 335 82Q285 74 255 48V-9H268Q273 27 311 40Q372 60 377 -6V-385ZM678 32Q676 58 705 63V76H569V63Q594 60 593 32V-716Q593 -739 569 -744V-757H839Q892 -757 915 -732Q933 -710 932 -673V-488Q932 -442 910 -423Q904 -415 895 -411Q909 -405 916 -397Q932 -380 932 -340V-138Q932 -95 908 -72Q886 -53 837 -53H678Z"/>
</svg>