<svg xmlns="http://www.w3.org/2000/svg" viewBox="0 -800 1024 1024">
	<path fill="#000000" d="M270 -389V-327H387V-389ZM270 -296V-234H387V-296ZM157 -516H220Q244 -516 244 -542V-594Q245 -618 220 -617H157ZM419 -516H482Q506 -516 506 -542V-594Q507 -618 483 -617H419ZM116 -60H238V-47Q215 -47 216 -21V19Q216 47 251 46Q279 46 302 33Q324 19 330 -2H342V43Q316 66 274 77Q224 88 184 79Q138 66 137 23V-21Q139 -44 116 -47ZM569 -717Q585 -718 588 -736H600V-668H588Q584 -686 569 -687H94Q80 -686 75 -668H63V-736H75Q81 -717 94 -717H283V-743Q284 -767 260 -769V-781H384V-768Q360 -766 361 -743V-717ZM291 -161H411V-148Q391 -145 396 -129L423 -68H461Q488 -68 492 -88L503 -131Q508 -150 488 -154V-167H584V-154Q569 -149 563 -131L551 -86Q544 -60 527 -50Q510 -38 475 -38H436L461 19Q477 52 508 47Q540 39 551 -1H563V50Q543 70 517 77Q478 89 448 81Q407 70 389 31L319 -129Q310 -145 291 -147ZM337 -647H502Q536 -647 551 -637Q568 -623 568 -591V-547Q568 -520 551 -503Q534 -486 502 -486H337V-499Q358 -501 358 -521V-612Q358 -630 337 -634ZM75 -647H239Q275 -647 288 -637Q306 -624 306 -591V-547Q306 -520 289 -503Q272 -486 240 -486H75V-499Q94 -502 95 -521V-612Q96 -630 75 -634ZM171 -461H291V-448Q268 -447 270 -424V-419H387V-424Q388 -445 366 -449V-461H486V-448Q464 -447 466 -424V-419H551Q567 -421 570 -437H583V-371H570Q565 -389 551 -389H466V-327H530Q545 -328 548 -345H561V-278H548Q544 -295 530 -296H466V-234H564Q581 -235 583 -252H596V-185H583Q579 -203 564 -204H317L219 -111Q198 -89 168 -81Q135 -73 102 -79Q77 -84 58 -101V-146H71Q80 -112 102 -112Q124 -110 145 -130L225 -204H90Q76 -203 71 -185H59V-252H71Q76 -234 90 -234H192V-296H126Q111 -295 107 -278H95V-345H107Q111 -327 126 -327H192V-389H104Q90 -388 85 -371H73V-437H85Q90 -419 104 -419H192V-424Q193 -445 171 -449ZM861 -508Q862 -550 820 -549H756L741 2Q741 40 720 62Q694 88 649 82Q609 76 583 52V9H596Q602 43 633 47Q662 49 664 8L678 -549H643Q626 -548 622 -530H609V-601H622Q625 -583 643 -582H679L683 -739Q684 -766 657 -769V-781H787V-769Q762 -765 761 -739L757 -582H846Q895 -582 914 -561Q932 -545 931 -499V12Q931 48 910 66Q890 83 856 83Q812 82 785 52V1H798Q807 41 834 46Q860 47 861 14Z"/>
</svg>