<svg xmlns="http://www.w3.org/2000/svg" viewBox="0 -800 1024 1024">
	<path fill="#000000" d="M660 -291Q672 -293 682 -305L710 -335Q715 -344 699 -347V-361H784V-348Q771 -345 762 -336L737 -308Q730 -295 748 -292V-279H660ZM393 -361H479V-347Q462 -346 467 -336L494 -306Q504 -294 516 -292V-279H428V-292Q447 -294 439 -308L414 -335Q403 -345 393 -347ZM599 -33H710V-20Q691 -18 696 -9L752 52Q760 61 773 64V75H665V63Q682 61 678 50L622 -9Q614 -18 599 -20ZM225 64Q236 63 247 52L304 -9Q307 -19 291 -20V-33H397V-20Q383 -16 378 -9L323 50Q317 61 334 63V75H225ZM421 -33H533V-20Q514 -17 518 -9L575 52Q581 60 596 64V75H487V63Q505 61 500 50L444 -9Q437 -18 421 -20ZM774 -33H887V-20Q868 -18 871 -9L928 52Q937 61 950 64V75H840V63Q858 61 852 50L798 -9Q790 -18 774 -20ZM360 -386V-256H549V-386ZM791 -256Q818 -255 818 -285V-357Q818 -386 791 -386H627V-256ZM531 -568Q544 -572 547 -586H281Q266 -584 263 -567H251V-636H263Q266 -618 281 -618H548V-660Q546 -685 523 -689V-703H652V-689Q628 -684 627 -660V-618H778L761 -644Q753 -657 735 -660V-673H851V-660Q830 -657 835 -644L852 -618H895Q912 -620 913 -636H925V-567H913Q909 -586 895 -586H627Q625 -564 620 -555H745V-542Q720 -538 732 -530L833 -476Q864 -462 898 -472Q933 -483 940 -519H952V-477Q936 -457 910 -447Q875 -430 827 -433Q780 -438 744 -459L618 -528L603 -535Q599 -532 594 -530L399 -451Q366 -438 332 -435Q298 -431 272 -440Q245 -449 229 -472V-526H241Q245 -488 270 -478Q288 -470 328 -487ZM908 -757Q927 -759 928 -776H941V-708H928Q925 -726 908 -727H196V5Q196 48 175 66Q148 89 106 81Q79 74 58 41V-9H71Q77 34 94 41Q112 44 114 15V-718Q113 -739 89 -744V-757ZM911 -92Q927 -94 930 -111H941V-44H930Q925 -62 911 -62H264Q251 -60 247 -44H234V-111H247Q250 -92 264 -92H549V-145H303Q289 -143 286 -127H273V-194H286Q289 -176 303 -176H549V-226H267V-237Q288 -241 289 -264V-379Q289 -400 267 -404V-416H812Q854 -417 869 -403Q889 -386 889 -352V-289Q889 -258 870 -241Q853 -225 812 -226H627V-176H873Q889 -178 891 -194H904V-127H891Q888 -145 873 -145H627V-92Z"/>
</svg>