<svg xmlns="http://www.w3.org/2000/svg" viewBox="0 -800 1024 1024">
	<path fill="#000000" d="M243 -781H344V-768Q329 -763 331 -752L360 -641Q364 -627 380 -626V-614H278V-626Q295 -627 292 -641L262 -754Q258 -767 243 -768ZM70 -781H172V-768Q157 -763 159 -752L189 -641Q193 -627 208 -626V-614H105V-626Q123 -627 119 -641L89 -754Q86 -767 70 -768ZM490 -572Q527 -572 542 -559Q559 -544 559 -515V-472Q559 -450 580 -447V-434H454V-447Q478 -450 478 -472V-514Q478 -538 449 -539H162V-472Q162 -450 185 -447V-434H58V-447Q80 -449 81 -472V-536Q80 -557 58 -559V-572H410L462 -752Q464 -765 449 -768V-781H554V-768Q538 -768 533 -754L481 -572ZM472 -404Q513 -403 523 -375Q529 -345 495 -315L374 -218Q373 -217 371 -215Q369 -214 366 -210L530 -224Q548 -228 550 -245H563V-170H550Q546 -188 530 -188L360 -173V-13Q360 46 316 69Q270 92 208 82Q169 74 134 40V-14H146Q152 18 178 38Q202 53 235 47Q274 40 274 -5V-166L92 -150Q76 -146 71 -129H58V-206H71Q75 -186 92 -187L274 -202Q275 -231 302 -253L428 -351Q436 -357 434 -364Q433 -371 423 -371H145Q130 -370 125 -352H112V-422H125Q128 -404 145 -404ZM690 -740Q690 -765 662 -768V-781H800V-768Q773 -764 773 -740V-643H903Q921 -645 924 -662H937V-591H924Q920 -609 903 -610H773V-488H825Q870 -488 887 -473Q905 -458 905 -424V-281Q905 -234 883 -206L793 -87L885 31Q901 50 917 39Q933 25 936 -4H949V48Q924 81 882 85Q839 84 812 51L750 -29L689 51Q662 84 617 85Q578 82 550 48V-4H562Q568 24 585 39Q598 52 616 31L705 -87L614 -206Q592 -233 593 -281V-362Q591 -379 571 -382V-395H693V-382Q673 -380 672 -362V-278Q671 -245 684 -230L749 -145L813 -229Q826 -248 827 -280V-430Q827 -455 801 -455H626Q610 -454 606 -436H593V-507H606Q610 -488 626 -488H690Z"/>
</svg>