<svg xmlns="http://www.w3.org/2000/svg" viewBox="0 -800 1024 1024">
	<path fill="#000000" d="M300 -421H392V-408Q373 -405 375 -392L383 -203Q384 -186 399 -187Q416 -190 420 -220H431V-177Q414 -150 375 -150Q329 -157 327 -200L319 -392Q319 -404 300 -408ZM291 -604Q299 -623 279 -625H107Q91 -623 87 -606H74V-676H87Q90 -657 107 -657H184V-738Q185 -762 156 -768V-781H293V-768Q265 -764 266 -738V-657H325Q363 -657 374 -635Q382 -610 369 -588L257 -410V32Q256 57 285 63V75H147V63Q175 59 175 32V-302L166 -298Q134 -285 99 -296Q73 -305 58 -323V-375H71Q76 -345 96 -336Q117 -328 131 -351ZM698 32Q697 58 726 63V76H581V63Q610 59 609 32V-283H458Q442 -282 438 -264H425V-334H438Q440 -317 458 -316H609V-466H488Q473 -464 468 -447H455V-517H468Q472 -497 488 -498H609V-638H440Q424 -636 420 -619H407V-690H420Q423 -671 440 -671H609V-736Q610 -768 581 -768V-781H726V-768Q698 -764 698 -736V-671H898Q916 -673 919 -690H932V-619H919Q914 -638 898 -638H698V-498H876Q894 -500 897 -517H909V-447H897Q892 -466 876 -466H698V-316H838Q896 -316 915 -293Q933 -273 932 -230V-111Q932 -60 896 -36Q864 -16 816 -22Q777 -30 752 -52V-104H764Q775 -64 812 -59Q851 -55 852 -97V-241Q854 -285 812 -283H698Z"/>
</svg>