<svg xmlns="http://www.w3.org/2000/svg" viewBox="0 -800 1024 1024">
	<path fill="#000000" d="M792 -614V-600H659V-614Q686 -618 685 -639V-682Q686 -705 659 -707V-720H792V-707Q764 -703 765 -682V-639Q764 -618 792 -614ZM983 -614V-600H851V-614Q877 -618 876 -639V-682Q877 -705 851 -707V-720H983V-707Q956 -703 957 -682V-639Q956 -618 983 -614ZM599 -614V-600H466V-614Q493 -617 492 -639V-682Q493 -705 466 -707V-720H599V-707Q572 -703 573 -682V-639Q572 -618 599 -614ZM792 -13V0H659V-13Q685 -17 685 -45V-445Q686 -475 659 -477V-491H792V-477Q765 -473 765 -445V-45Q764 -18 792 -13ZM983 -13V0H851V-13Q877 -17 876 -45V-445Q877 -475 851 -477V-491H983V-477Q957 -472 957 -445V-45Q956 -17 983 -13ZM599 -13V0H466V-13Q493 -17 492 -45V-445Q493 -475 466 -477V-491H599V-477Q573 -473 573 -445V-45Q572 -17 599 -13ZM342 -491H427V-477Q410 -475 396 -458L262 -275L405 -45Q418 -22 444 -13V0H287V-13Q320 -21 310 -45L211 -205L85 -32Q81 -19 101 -13V0H16V-13Q34 -17 45 -32L193 -235L63 -447Q47 -477 23 -477V-491H176V-477Q145 -471 156 -447L244 -305L356 -458Q362 -473 342 -477Z"/>
</svg>