<svg xmlns="http://www.w3.org/2000/svg" viewBox="0 -800 1024 1024">
	<path fill="#000000" d="M439 -467H452Q456 -440 474 -432Q500 -422 514 -443L549 -505Q556 -519 534 -522V-535H657V-522Q641 -519 633 -505L593 -436Q571 -395 514 -394Q469 -395 439 -419ZM730 -535H852V-522Q830 -518 837 -505L879 -428Q896 -400 921 -418Q932 -428 936 -452H948V-405Q921 -377 876 -378Q822 -382 801 -420L753 -505Q747 -519 730 -522ZM152 -725V-380H222V-725ZM304 -725H272V-380H343V-686Q342 -724 304 -725ZM152 1H222V-347H152ZM304 1Q342 0 343 -40V-347H272V1ZM530 -570Q487 -568 474 -592Q461 -620 485 -649L577 -747Q592 -763 560 -769V-781H708V-769Q687 -763 673 -747L562 -629Q555 -622 557 -616Q559 -611 569 -611Q674 -613 798 -636L762 -703Q754 -717 734 -720V-733H864V-720Q840 -715 844 -703L903 -593Q912 -579 931 -575V-563H802V-575Q827 -579 821 -593L812 -609Q670 -576 530 -570ZM804 -259Q822 -290 789 -296H620L605 -272Q592 -251 563 -240Q538 -231 497 -241Q471 -246 456 -267V-306H468Q472 -285 487 -276Q511 -262 529 -285L572 -351Q579 -363 557 -367V-380H682V-367Q664 -365 656 -351L642 -329H825Q875 -328 890 -291Q899 -259 874 -231L728 -77L853 29Q878 49 907 43Q931 36 936 2H949V53Q920 82 871 83Q821 81 787 53L686 -33L611 47Q574 83 523 83Q474 81 446 53V2H459Q462 30 485 42Q509 52 529 31L633 -79L512 -184Q511 -185 510 -186Q496 -197 481 -199V-213H622V-200Q597 -194 606 -182L675 -123ZM82 -719Q82 -741 58 -745V-757H319Q374 -757 395 -734Q413 -715 413 -675V-54Q413 -10 393 9Q374 35 317 34H58V21Q82 18 82 -6Z"/>
</svg>