<svg xmlns="http://www.w3.org/2000/svg" viewBox="0 -800 1024 1024">
	<path fill="#000000" d="M122 -320Q121 -297 142 -296V-283H60V-296Q81 -295 80 -320V-593Q82 -615 60 -616V-629H142V-616Q121 -614 122 -593ZM358 -320Q355 -298 379 -296V-283H296V-296Q317 -297 315 -320V-593Q316 -615 296 -616V-629H379V-616Q357 -614 358 -593ZM908 -682Q926 -684 929 -701H942V-630H929Q925 -648 908 -649H427Q411 -648 406 -630H393V-701H406Q411 -682 427 -682H623V-737Q624 -767 595 -769V-781H740V-769Q712 -763 712 -737V-682ZM777 -409Q811 -409 811 -441V-524Q811 -553 778 -553H524V-409ZM261 31Q259 58 289 62V75H150V62Q179 58 178 31V-737Q179 -769 150 -769V-781H289V-769Q260 -765 261 -737ZM915 -133Q933 -135 936 -152H949V-81H936Q932 -99 915 -100H709V-14Q709 46 665 69Q621 90 555 80Q498 73 467 40V-13H480Q489 21 510 36Q542 53 578 47Q619 37 620 -6V-100H395Q380 -98 375 -81H362V-152H375Q379 -132 395 -133H620Q619 -167 653 -184L793 -257Q801 -261 800 -269Q798 -276 788 -276H444Q428 -275 423 -257H410V-326H423Q427 -308 444 -308H839Q884 -307 893 -273Q897 -241 863 -222L723 -151Q712 -146 709 -133ZM817 -584Q857 -584 875 -570Q895 -556 895 -519V-449Q895 -415 878 -397Q857 -377 818 -377H416V-390Q440 -393 440 -415V-548Q440 -568 416 -571V-584Z"/>
</svg>