<svg xmlns="http://www.w3.org/2000/svg" viewBox="0 -800 1024 1024">
	<path fill="#000000" d="M864 -583Q866 -599 846 -602V-615H932V-602Q914 -600 913 -583L889 -115Q889 -97 907 -96V-83H819V-96Q840 -98 840 -115ZM463 -115Q463 -98 484 -96V-83H396V-96Q414 -97 414 -115L390 -583Q389 -600 370 -602V-615H456V-602Q438 -599 439 -583ZM604 -725V32H699V-725ZM60 -278H73Q80 -257 93 -263L173 -295V-553H106Q90 -552 85 -534H73V-605H85Q90 -586 106 -586H173V-737Q174 -767 145 -769V-781H286V-769Q257 -766 258 -737V-586H316Q334 -587 337 -605H349V-534H337Q333 -552 316 -553H258V-329L326 -356Q344 -363 347 -380H359V-306H347Q342 -325 326 -320L258 -293V-15Q258 37 226 63Q192 89 131 82Q86 75 58 34V-19H71Q84 38 119 43Q172 46 173 -2V-259L93 -227Q75 -217 73 -203H60ZM915 32Q933 30 936 13H949V83H936Q931 64 915 64H387Q372 66 367 83H354V13H367Q371 33 387 32H522V-725H404Q389 -723 384 -706H371V-776H384Q388 -756 404 -757H898Q916 -759 919 -776H932V-706H919Q914 -725 898 -725H781V32Z"/>
</svg>