<svg xmlns="http://www.w3.org/2000/svg" viewBox="0 -800 1024 1024">
	<path fill="#000000" d="M58 -390H71Q76 -360 103 -350Q132 -344 153 -368L208 -435Q216 -447 193 -450V-463H333V-450Q317 -448 308 -435L242 -359Q213 -325 182 -316Q148 -308 116 -315Q84 -321 58 -343ZM674 -463H814V-450Q791 -447 799 -435L854 -368Q875 -344 904 -350Q931 -360 936 -390H949V-343Q926 -322 891 -315Q859 -308 825 -316Q794 -325 765 -359L699 -435Q690 -448 674 -450ZM756 -217H547V-105H794V-178Q794 -217 756 -217ZM213 -217V-105H460V-217ZM756 42Q792 41 794 2V-72H547V42ZM213 -72V42H460V-72ZM692 -757Q734 -757 755 -749Q772 -744 798 -717L894 -618Q922 -589 949 -586V-573H789V-586Q812 -593 802 -609L715 -699Q691 -726 655 -725H314L203 -609Q194 -593 216 -586V-573H58V-586Q85 -590 111 -618L210 -721Q218 -738 191 -745V-757ZM695 -653Q713 -655 716 -672H729V-602H716Q712 -620 695 -621H548V-527H912Q930 -529 932 -546H945V-475H932Q928 -493 912 -494H548V-373Q548 -320 510 -299Q475 -279 422 -284Q372 -288 343 -320V-372H355Q360 -337 396 -324Q419 -313 437 -322Q459 -331 459 -365V-494H95Q79 -492 75 -475H62V-546H75Q78 -527 95 -527H459V-621H308Q293 -619 288 -602H275V-672H288Q292 -652 308 -653ZM788 -249Q841 -249 864 -226Q884 -203 884 -164V-15Q884 28 861 51Q839 75 786 75H97V62Q122 58 123 35V-211Q123 -232 97 -237V-249Z"/>
</svg>