<svg xmlns="http://www.w3.org/2000/svg" viewBox="0 -800 1024 1024">
	<path fill="#000000" d="M670 -192Q662 -208 635 -212V-225H784V-212Q755 -206 760 -191L856 13Q875 51 910 31Q933 18 936 -12H949V41Q935 62 904 75Q859 90 824 78Q788 62 768 17ZM659 -324H803V-561Q803 -600 764 -600H659ZM85 -425H98Q101 -406 119 -406H183V-708H103Q85 -707 83 -693H70V-763H83Q86 -746 103 -746H352Q370 -747 372 -763H385V-693H372Q369 -708 352 -708H271V-406H332Q350 -408 353 -425H365V-354H353Q350 -370 332 -370H271V-53L357 -80Q377 -88 377 -103H390V-29H377Q372 -48 357 -45L92 38Q76 44 71 61H58V-10H71Q75 9 92 4L183 -25V-370H119Q102 -369 98 -354H85ZM915 -324Q933 -326 936 -342H949V-271H936Q932 -289 915 -290H653Q650 -277 644 -264L530 20Q516 54 488 70Q458 87 417 81Q370 73 346 42V-12H359Q366 26 393 36Q424 48 436 21L560 -283L563 -290H416Q401 -288 396 -271H383V-342H396Q399 -324 416 -324H570Q571 -331 571 -341V-600H459Q443 -599 438 -581H426V-652H438Q443 -633 459 -633H571V-742Q573 -768 545 -769V-781H685V-769Q658 -765 659 -742V-633H792Q846 -633 866 -610Q885 -590 885 -551V-324Z"/>
</svg>