<svg xmlns="http://www.w3.org/2000/svg" viewBox="0 -800 1024 1024">
	<path fill="#000000" d="M840 -360Q879 -360 894 -343Q910 -328 910 -297V-124Q910 -101 934 -101V-88H829V-101Q851 -103 851 -124V-299Q852 -327 819 -326H602V-124Q602 -102 623 -101V-88H519V-101Q541 -102 542 -124V-322Q542 -343 519 -348V-360ZM396 -360Q435 -360 450 -343Q466 -328 466 -297V-124Q466 -101 490 -101V-88H384V-101Q406 -103 406 -124V-299Q407 -327 375 -326H158V-124Q158 -102 179 -101V-88H74V-101Q97 -102 98 -124V-323Q98 -344 74 -348V-360ZM228 -97Q242 -115 242 -144V-249Q244 -275 218 -276V-290H346V-276Q322 -273 322 -249V-143Q322 -101 306 -80L291 -60H400V-47Q377 -42 386 -26L422 23Q442 49 460 36Q476 27 480 -2H492V50Q482 64 461 75Q432 88 402 79Q372 71 355 47L298 -28Q291 -39 279 -44L224 31Q199 62 176 74Q142 93 103 77Q78 71 58 50V-2H71Q77 32 100 42Q123 48 141 24ZM674 -97Q686 -113 686 -144V-249Q688 -275 662 -276V-290H790V-276Q767 -273 767 -249V-143Q767 -101 751 -80L737 -60H847V-47Q824 -42 834 -26L869 23Q891 50 914 39Q929 29 936 -2H949V50Q935 67 910 77Q886 87 855 81Q822 74 802 47L746 -28Q737 -38 725 -44L672 31Q652 58 627 74Q597 92 560 80Q535 73 513 50V-2H526Q534 39 557 44Q573 47 589 24ZM748 -757Q794 -757 823 -735Q854 -712 854 -661V-577Q856 -554 882 -550V-537H740V-550Q764 -557 764 -577V-673Q766 -725 702 -724H241V-577Q242 -553 266 -550V-537H123V-550Q149 -554 151 -577V-720Q151 -739 123 -744V-757ZM326 -440Q278 -416 237 -410Q187 -401 139 -408Q91 -415 58 -441V-501H71Q85 -452 127 -445Q175 -437 245 -475L424 -570Q459 -587 457 -625V-648Q457 -677 429 -678V-690H576V-678Q548 -673 548 -648V-618Q548 -578 526 -553H649V-540Q638 -538 634 -532Q631 -526 638 -522L742 -465Q790 -441 850 -443Q921 -448 936 -501H949V-441Q919 -422 880 -413Q825 -402 775 -405Q709 -411 638 -451L503 -524L492 -530Z"/>
</svg>