<svg xmlns="http://www.w3.org/2000/svg" viewBox="0 -800 1024 1024">
	<path fill="#000000" d="M58 -430H71Q72 -407 86 -396Q107 -381 120 -408L169 -517Q176 -536 149 -538V-551H282V-537Q261 -537 252 -517L229 -467H413Q431 -469 433 -486H446V-415H433Q430 -433 413 -434H214L203 -408Q188 -374 160 -363Q128 -350 91 -360Q73 -365 58 -382ZM456 -396H469Q475 -371 493 -367Q511 -364 518 -385L549 -518Q552 -536 527 -538V-551H660V-538Q638 -536 632 -519L618 -459H841Q883 -459 900 -443Q920 -428 920 -394V-288Q921 -264 942 -262V-249H814V-262Q840 -263 839 -289V-396Q840 -427 810 -426H610L601 -385Q593 -353 558 -337Q528 -327 500 -333Q475 -339 456 -355ZM308 9Q310 44 353 39Q401 29 413 -19H426V34Q406 58 371 71Q318 91 275 77Q225 59 224 0V-135H98Q82 -134 77 -116H65V-187H77Q82 -168 98 -168H224V-283H118Q102 -282 97 -264H84V-335H97Q102 -316 118 -316H396Q413 -318 416 -335H429V-264H416Q411 -282 396 -283H308V-168H432Q450 -170 452 -187H465V-116H452Q449 -134 432 -135H308ZM629 -179Q636 -195 637 -221V-281Q637 -308 613 -309V-322H745V-309Q721 -306 721 -281V-219Q721 -188 712 -166H815V-153Q789 -151 793 -135L857 28Q871 56 906 44Q933 32 936 3H949V51Q936 66 910 75Q866 89 826 78Q786 64 774 33L707 -134Q706 -135 705 -138Q703 -142 702 -143L617 38Q605 63 570 77Q536 87 499 80Q479 76 451 53V3H464Q471 36 494 45Q517 53 533 25ZM90 -598V-610Q115 -614 115 -634V-723Q114 -743 90 -745V-757H228V-745Q204 -744 203 -723V-630H458V-742Q459 -768 430 -769V-781H576V-769Q548 -766 548 -742V-630H770Q803 -630 803 -663V-723Q802 -742 779 -745V-757H916V-745Q893 -743 891 -723V-669Q891 -633 873 -617Q854 -598 805 -598Z"/>
</svg>