<svg xmlns="http://www.w3.org/2000/svg" viewBox="0 -800 1024 1024">
	<path fill="#000000" d="M63 -667H156V-655Q136 -651 138 -635L154 -468Q156 -450 177 -447V-434H82V-447Q103 -448 101 -467L84 -634Q83 -652 63 -655ZM58 -177H71Q72 -157 78 -147Q84 -136 92 -140Q99 -144 99 -158L105 -350Q106 -368 85 -372V-384H177V-372Q157 -368 157 -351L151 -158Q149 -128 131 -113Q111 -98 84 -108Q70 -115 58 -133ZM359 -490H372Q375 -472 391 -472H445V-532H376Q360 -531 356 -514H343V-582H356Q359 -564 376 -564H445V-598Q447 -626 421 -627V-640H545V-627Q520 -624 521 -598V-564H589Q606 -566 609 -582H621V-514H609Q605 -532 589 -532H521V-472H573Q590 -473 592 -490H605V-422H592Q589 -440 573 -440H521V-379H593Q609 -380 612 -397H625V-330H612Q609 -348 593 -348H521V-299Q519 -274 545 -270V-257H421V-270Q446 -273 445 -299V-348H372Q358 -347 353 -329H340V-397H353Q356 -379 372 -379H445V-440H391Q377 -439 372 -422H359ZM858 -551Q858 -584 824 -584H772L750 -323Q747 -284 724 -268Q703 -252 667 -257Q640 -263 623 -278V-317H636Q639 -297 660 -291Q679 -289 683 -314L705 -584H676Q660 -583 657 -565H644V-634H657Q660 -615 676 -616H842Q892 -617 910 -601Q931 -584 931 -546V-333Q931 -288 902 -269Q872 -246 824 -258Q795 -268 779 -287V-331H792Q797 -306 816 -296Q854 -279 858 -319ZM901 -170Q919 -172 922 -189H935V-118H922Q918 -136 901 -137H679Q675 -110 660 -96L657 -93H782V-80Q756 -74 764 -60L838 20Q857 41 881 44Q905 48 920 29Q931 17 936 -7H949V46Q934 67 905 77Q872 90 832 80Q789 70 760 39L670 -61Q659 -75 643 -79L534 34Q499 69 460 79Q417 90 381 75Q354 67 333 46V-7H345Q350 20 364 31Q374 42 394 44Q419 45 445 21L578 -115Q587 -124 592 -137H373Q357 -135 353 -118H340V-189H353Q356 -170 373 -170H595V-191Q596 -215 567 -218V-231H709V-218Q681 -215 681 -191V-170ZM917 -706Q935 -708 938 -725H950V-654H938Q933 -673 917 -673H291V-5Q290 49 242 73Q194 93 142 73Q119 65 94 41V-12H107Q115 19 138 34Q157 46 178 42Q207 34 208 4V-664Q208 -689 183 -693V-706H530V-743Q531 -767 502 -769V-781H647V-769Q618 -766 619 -743V-706Z"/>
</svg>