<svg xmlns="http://www.w3.org/2000/svg" viewBox="0 -800 1024 1024">
	<path fill="#000000" d="M273 -336Q292 -336 297 -353L326 -457Q329 -472 314 -474V-487H402V-474Q384 -472 380 -457L351 -353Q347 -337 366 -336V-323H273ZM271 -285H358V-272Q340 -269 340 -256L349 -124Q351 -109 365 -111Q379 -113 382 -141H394V-99Q383 -84 364 -79Q342 -72 321 -82Q299 -97 298 -120L289 -256Q287 -269 271 -272ZM850 -757Q887 -757 908 -742Q928 -725 928 -690V-649Q927 -630 951 -627V-614H819V-627Q844 -627 842 -649V-692Q843 -724 807 -724H510V-677Q511 -657 534 -655V-643H394V-655Q424 -657 424 -677V-720Q423 -739 394 -744V-757ZM241 32Q239 57 268 63V76H131V63Q159 59 159 32V-297L149 -294Q125 -288 97 -298Q75 -304 58 -325V-379H71Q75 -356 84 -344Q100 -326 114 -346L254 -603Q263 -622 242 -624H107Q91 -622 87 -605H74V-676H87Q90 -657 107 -657H169V-738Q170 -762 141 -768V-781H279V-768Q251 -763 251 -738V-657H290Q323 -657 337 -637Q350 -618 334 -587L241 -416ZM412 -272V-284Q431 -286 436 -301L513 -519H447Q431 -518 426 -500H413V-570H426Q431 -551 447 -551H525L539 -590Q546 -607 517 -610V-622H651V-610Q627 -606 622 -590L608 -551H898Q916 -553 919 -570H932V-500H919Q914 -519 898 -519H596L520 -304H660V-413Q661 -445 632 -445V-458H775V-445Q747 -441 747 -413V-304H898Q916 -305 919 -323H932V-253H919Q915 -271 898 -272H747V-145H915Q933 -147 936 -164H949V-93H936Q931 -112 915 -112H747V32Q746 58 775 63V76H632V63Q661 59 660 32V-112H450Q434 -110 430 -93H417V-164H430Q433 -145 450 -145H660V-272Z"/>
</svg>