<svg xmlns="http://www.w3.org/2000/svg" viewBox="0 -800 1024 1024">
	<path fill="#000000" d="M123 -333Q123 -311 142 -309V-296H60V-309Q80 -309 80 -333V-579Q81 -600 60 -602V-615H142V-602Q123 -598 123 -579ZM372 -333Q372 -312 392 -309V-296H310V-309Q329 -310 329 -333V-579Q330 -600 310 -602V-615H392V-602Q371 -599 372 -579ZM271 30Q271 55 299 61V75H154V61Q181 57 182 30V-737Q182 -768 154 -769V-781H299V-769Q270 -765 271 -737ZM535 42H782Q820 40 822 2V-281Q821 -318 782 -319H535ZM617 -737Q618 -767 589 -769V-781H736V-769Q709 -766 708 -737V-605H915Q933 -607 936 -624H949V-554H936Q932 -572 915 -573H708V-352H813Q870 -352 892 -329Q911 -308 911 -270V-12Q911 30 892 50Q870 76 816 75H422V62Q445 59 446 38V-313Q446 -334 422 -339V-352H617Z"/>
</svg>