<svg xmlns="http://www.w3.org/2000/svg" viewBox="0 -800 1024 1024">
	<path fill="#000000" d="M59 -520H181V-507Q156 -504 165 -482L217 -358Q224 -336 247 -334V-321H121V-334Q151 -339 142 -358L89 -482Q79 -504 59 -507ZM59 -781H181V-769Q156 -765 165 -744L223 -611Q233 -590 253 -586V-574H128V-586Q156 -592 148 -611L89 -744Q79 -766 59 -769ZM167 -228Q170 -247 145 -252V-265H268V-252Q247 -247 245 -229L211 15Q205 51 179 69Q150 88 116 81Q79 74 58 49V-3H71Q74 24 90 39Q123 57 133 20ZM829 -574H789V-90Q802 -75 822 -74Q860 -75 862 -108V-541Q863 -575 829 -574ZM302 -665Q303 -695 276 -696V-709H390V-696Q363 -693 364 -665V-115Q362 -86 390 -83V-70H276V-83Q303 -86 302 -115ZM437 -739Q436 -766 412 -769V-781H536V-769Q513 -765 513 -739V-23Q512 38 467 66Q423 92 355 76Q316 65 287 37V-20H300Q305 15 331 34Q367 58 407 43Q436 28 437 -9ZM636 -79Q636 -58 660 -55V-42H555V-55Q579 -57 579 -79V-571Q579 -591 555 -594V-607H710V-724H586Q569 -723 566 -706H553V-776H566Q569 -757 586 -757H915Q933 -759 936 -776H949V-706H936Q932 -724 915 -724H789V-607H846Q886 -607 905 -587Q920 -568 920 -538V-116Q919 -84 896 -63Q867 -39 824 -44Q804 -46 789 -54V31Q788 57 817 62V75H682V62Q711 58 710 31V-574H636Z"/>
</svg>