<svg xmlns="http://www.w3.org/2000/svg" viewBox="0 -800 1024 1024">
	<path fill="#000000" d="M787 -514Q802 -514 807 -494H820V-567H807Q804 -550 787 -548H550V-681Q550 -708 583 -712V-725H424V-712Q456 -711 456 -681V-548H214Q198 -548 193 -567H181V-494H193Q198 -512 214 -514ZM668 -387Q666 -404 689 -408V-421H552V-408Q572 -405 575 -387L638 -79Q648 -33 685 -9Q716 12 758 5Q804 2 829 -33V-88H816Q815 -72 807 -55Q793 -31 771 -31Q742 -34 732 -73ZM265 -73Q255 -34 225 -31Q205 -32 193 -51Q182 -69 182 -88H169V-33Q192 0 237 5Q280 11 313 -9Q347 -31 359 -80L422 -387Q425 -405 445 -408V-421H309V-408Q332 -404 329 -387ZM926 -776V75H74V-776Z"/>
</svg>