<svg xmlns="http://www.w3.org/2000/svg" viewBox="0 -800 1024 1024">
	<path fill="#000000" d="M332 -683V-367H516Q595 -367 639 -414Q677 -459 676 -527Q676 -597 637 -638Q596 -683 516 -683ZM332 -46Q332 -21 364 -13V0H198V-13Q231 -20 231 -46V-676Q230 -705 198 -708V-720H522Q645 -720 708 -677Q780 -630 780 -527Q780 -434 716 -383Q672 -350 613 -339L684 -82Q692 -55 704 -43Q716 -30 736 -29Q762 -28 775 -52Q782 -64 787 -93H800V-29Q786 -15 766 -3Q736 11 706 11Q663 11 632 -3Q594 -26 583 -67L510 -330H332Z"/>
</svg>