<svg xmlns="http://www.w3.org/2000/svg" viewBox="0 -800 1024 1024">
	<path fill="#000000" d="M561 -49Q593 -69 617 -106V-285Q592 -282 534 -273Q524 -272 519 -271Q517 -270 512 -269Q431 -253 399 -229Q355 -197 351 -142Q347 -89 374 -58Q410 -22 476 -24Q527 -28 561 -49ZM333 -258Q386 -287 496 -301Q530 -306 598 -313Q611 -314 617 -315V-338Q616 -404 580 -437Q547 -467 480 -467Q410 -469 360 -446Q329 -431 310 -406Q295 -386 288 -359H275V-433Q306 -464 349 -483Q395 -503 480 -502Q590 -502 646 -464Q714 -419 714 -324V-48Q717 -20 747 -13V0H620V-64Q596 -35 571 -20Q525 9 464 11Q367 14 313 -15Q253 -49 253 -128Q251 -214 333 -258Z"/>
</svg>