<svg xmlns="http://www.w3.org/2000/svg" viewBox="0 -800 1024 1024">
	<path fill="#000000" d="M406 -382Q356 -347 344 -295Q350 -170 385 -105Q427 -23 510 -23Q576 -22 615 -84Q651 -142 654 -220Q654 -309 624 -357Q587 -413 505 -412Q452 -412 406 -382ZM245 -341Q245 -494 289 -586Q355 -729 507 -733Q589 -734 632 -715Q683 -691 716 -640V-563H702Q699 -590 681 -619Q657 -663 613 -683Q567 -704 508 -698Q405 -689 365 -561Q353 -523 348 -474Q346 -450 345 -422Q344 -397 344 -355Q363 -388 396 -413Q446 -450 511 -451Q634 -454 697 -390Q754 -329 753 -223Q750 -128 691 -62Q624 9 510 12Q386 13 318 -71Q246 -165 245 -341Z"/>
</svg>