<svg xmlns="http://www.w3.org/2000/svg" viewBox="0 -800 1024 1024">
	<path fill="#000000" d="M578 -436Q586 -510 533 -522Q485 -528 445 -464Q414 -411 401 -341Q389 -280 396 -239Q403 -195 437 -190Q472 -187 505 -220Q529 -243 543 -283Q566 -353 578 -436ZM297 -648Q397 -731 542 -732Q671 -731 749 -659Q834 -578 835 -434Q830 -330 772 -237Q711 -145 627 -145Q585 -145 563 -165Q541 -187 544 -223Q529 -195 504 -178Q473 -154 432 -154Q366 -155 335 -218Q309 -273 322 -353Q341 -439 391 -498Q453 -568 533 -554Q588 -542 595 -493H597L610 -544H701V-532Q680 -530 675 -504L607 -236Q592 -172 642 -177Q690 -185 725 -258Q760 -338 767 -432Q771 -565 716 -627Q658 -695 536 -696Q409 -697 332 -609Q249 -519 240 -356Q231 -201 284 -121Q346 -25 507 -24Q598 -24 672 -49Q739 -72 778 -110Q798 -130 807 -168H821V-94Q760 -40 683 -15Q603 9 503 11Q307 16 226 -94Q160 -184 164 -352Q170 -539 297 -648Z"/>
</svg>