<svg xmlns="http://www.w3.org/2000/svg" viewBox="0 -800 1024 1024">
	<path fill="#000000" d="M443 -459L417 -275H556L582 -459ZM611 -661Q617 -689 592 -691V-703H710V-691Q686 -690 684 -661L660 -496H716Q734 -498 737 -516H750V-439H737Q732 -459 716 -459H655L629 -275H687Q705 -277 708 -295H720V-219H708Q703 -239 687 -239H624L596 -44Q591 -15 615 -12V0H498V-12Q520 -15 523 -44L551 -239H412L384 -44Q379 -15 403 -12V0H286V-12Q308 -15 311 -44L339 -239H282Q266 -237 261 -219H249V-295H261Q267 -275 282 -275H344L370 -459H312Q296 -457 291 -439H278V-516H291Q297 -496 312 -496H375L399 -661Q405 -689 380 -691V-703H498V-691Q474 -690 472 -661L448 -496H587Z"/>
</svg>